{
  "track_name": "20 - Stage Theme 19 ~ Menace",
  "duration_sec": 89.697,
  "sample_rate": 44100,
  "note_count": 21344,
  "unique_pitches": 52,
  "pitch_range": 56,
  "avg_note_duration": 0.0161,
  "reconstruction_stats": {
    "notes_reconstructed": 21344,
    "keyon_events": 21344,
    "keyoff_events": 1658,
    "orphan_keyons": 3,
    "unique_pitches": 52,
    "pitch_range": 56,
    "avg_duration_sec": 0.0161
  },
  "metadata": {
    "source": "L\\Lemmings\\20 - Stage Theme 19 ~ Menace.vgz"
  },
  "notes": [
    {
      "channel": 0,
      "note": 36,
      "start": 0.0525,
      "duration": 0.0153,
      "velocity": 115,
      "chip": "ym2612"
    },
    {
      "channel": 4,
      "note": 57,
      "start": 0.0553,
      "duration": 0.0137,
      "velocity": 120,
      "chip": "ym2612"
    },
    {
      "channel": 3,
      "note": 64,
      "start": 0.0579,
      "duration": 0.0123,
      "velocity": 120,
      "chip": "ym2612"
    },
    {
      "channel": 2,
      "note": 45,
      "start": 0.0632,
      "duration": 0.0082,
      "velocity": 100,
      "chip": "ym2612"
    },
    {
      "channel": 0,
      "note": 36,
      "start": 0.0678,
      "duration": 0.008,
      "velocity": 115,
      "chip": "ym2612"
    },
    {
      "channel": 4,
      "note": 57,
      "start": 0.069,
      "duration": 0.0079,
      "velocity": 120,
      "chip": "ym2612"
    },
    {
      "channel": 3,
      "note": 64,
      "start": 0.0702,
      "duration": 0.0086,
      "velocity": 120,
      "chip": "ym2612"
    },
    {
      "channel": 2,
      "note": 45,
      "start": 0.0714,
      "duration": 0.0085,
      "velocity": 100,
      "chip": "ym2612"
    },
    {
      "channel": 0,
      "note": 37,
      "start": 0.0758,
      "duration": 0.0161,
      "velocity": 115,
      "chip": "ym2612"
    },
    {
      "channel": 4,
      "note": 57,
      "start": 0.0769,
      "duration": 0.0161,
      "velocity": 120,
      "chip": "ym2612"
    },
    {
      "channel": 3,
      "note": 64,
      "start": 0.0788,
      "duration": 0.0181,
      "velocity": 120,
      "chip": "ym2612"
    },
    {
      "channel": 2,
      "note": 45,
      "start": 0.0799,
      "duration": 0.0181,
      "velocity": 100,
      "chip": "ym2612"
    },
    {
      "channel": 0,
      "note": 37,
      "start": 0.0919,
      "duration": 0.0161,
      "velocity": 115,
      "chip": "ym2612"
    },
    {
      "channel": 4,
      "note": 57,
      "start": 0.093,
      "duration": 0.0161,
      "velocity": 120,
      "chip": "ym2612"
    },
    {
      "channel": 3,
      "note": 64,
      "start": 0.0969,
      "duration": 0.0134,
      "velocity": 120,
      "chip": "ym2612"
    },
    {
      "channel": 2,
      "note": 45,
      "start": 0.098,
      "duration": 0.0161,
      "velocity": 100,
      "chip": "ym2612"
    },
    {
      "channel": 0,
      "note": 38,
      "start": 0.108,
      "duration": 0.0161,
      "velocity": 115,
      "chip": "ym2612"
    },
    {
      "channel": 4,
      "note": 57,
      "start": 0.1091,
      "duration": 0.0161,
      "velocity": 120,
      "chip": "ym2612"
    },
    {
      "channel": 3,
      "note": 64,
      "start": 0.1102,
      "duration": 0.0161,
      "velocity": 120,
      "chip": "ym2612"
    },
    {
      "channel": 2,
      "note": 45,
      "start": 0.1141,
      "duration": 0.0157,
      "velocity": 100,
      "chip": "ym2612"
    },
    {
      "channel": 0,
      "note": 38,
      "start": 0.124,
      "duration": 0.0161,
      "velocity": 115,
      "chip": "ym2612"
    },
    {
      "channel": 4,
      "note": 57,
      "start": 0.1252,
      "duration": 0.0161,
      "velocity": 120,
      "chip": "ym2612"
    },
    {
      "channel": 3,
      "note": 64,
      "start": 0.1263,
      "duration": 0.0161,
      "velocity": 120,
      "chip": "ym2612"
    },
    {
      "channel": 2,
      "note": 45,
      "start": 0.1298,
      "duration": 0.0137,
      "velocity": 100,
      "chip": "ym2612"
    },
    {
      "channel": 0,
      "note": 39,
      "start": 0.1401,
      "duration": 0.0161,
      "velocity": 115,
      "chip": "ym2612"
    },
    {
      "channel": 4,
      "note": 57,
      "start": 0.1413,
      "duration": 0.0161,
      "velocity": 120,
      "chip": "ym2612"
    },
    {
      "channel": 3,
      "note": 64,
      "start": 0.1424,
      "duration": 0.0161,
      "velocity": 120,
      "chip": "ym2612"
    },
    {
      "channel": 2,
      "note": 45,
      "start": 0.1436,
      "duration": 0.0161,
      "velocity": 100,
      "chip": "ym2612"
    },
    {
      "channel": 0,
      "note": 39,
      "start": 0.1562,
      "duration": 0.0161,
      "velocity": 115,
      "chip": "ym2612"
    },
    {
      "channel": 4,
      "note": 57,
      "start": 0.1574,
      "duration": 0.0161,
      "velocity": 120,
      "chip": "ym2612"
    },
    {
      "channel": 3,
      "note": 64,
      "start": 0.1585,
      "duration": 0.0161,
      "velocity": 120,
      "chip": "ym2612"
    },
    {
      "channel": 2,
      "note": 45,
      "start": 0.1597,
      "duration": 0.0161,
      "velocity": 100,
      "chip": "ym2612"
    },
    {
      "channel": 0,
      "note": 40,
      "start": 0.1724,
      "duration": 0.0161,
      "velocity": 115,
      "chip": "ym2612"
    },
    {
      "channel": 4,
      "note": 57,
      "start": 0.1735,
      "duration": 0.0161,
      "velocity": 120,
      "chip": "ym2612"
    },
    {
      "channel": 3,
      "note": 64,
      "start": 0.1747,
      "duration": 0.0161,
      "velocity": 120,
      "chip": "ym2612"
    },
    {
      "channel": 2,
      "note": 45,
      "start": 0.1758,
      "duration": 0.0161,
      "velocity": 100,
      "chip": "ym2612"
    },
    {
      "channel": 0,
      "note": 40,
      "start": 0.1885,
      "duration": 0.0161,
      "velocity": 115,
      "chip": "ym2612"
    },
    {
      "channel": 4,
      "note": 57,
      "start": 0.1896,
      "duration": 0.0161,
      "velocity": 120,
      "chip": "ym2612"
    },
    {
      "channel": 3,
      "note": 64,
      "start": 0.1908,
      "duration": 0.0161,
      "velocity": 120,
      "chip": "ym2612"
    },
    {
      "channel": 2,
      "note": 45,
      "start": 0.1919,
      "duration": 0.0161,
      "velocity": 100,
      "chip": "ym2612"
    },
    {
      "channel": 0,
      "note": 40,
      "start": 0.2046,
      "duration": 0.0161,
      "velocity": 115,
      "chip": "ym2612"
    },
    {
      "channel": 4,
      "note": 57,
      "start": 0.2057,
      "duration": 0.0161,
      "velocity": 120,
      "chip": "ym2612"
    },
    {
      "channel": 3,
      "note": 64,
      "start": 0.2069,
      "duration": 0.0161,
      "velocity": 120,
      "chip": "ym2612"
    },
    {
      "channel": 2,
      "note": 45,
      "start": 0.208,
      "duration": 0.0161,
      "velocity": 100,
      "chip": "ym2612"
    },
    {
      "channel": 0,
      "note": 41,
      "start": 0.2207,
      "duration": 0.0161,
      "velocity": 115,
      "chip": "ym2612"
    },
    {
      "channel": 4,
      "note": 57,
      "start": 0.2218,
      "duration": 0.0161,
      "velocity": 120,
      "chip": "ym2612"
    },
    {
      "channel": 3,
      "note": 64,
      "start": 0.223,
      "duration": 0.0161,
      "velocity": 120,
      "chip": "ym2612"
    },
    {
      "channel": 2,
      "note": 45,
      "start": 0.2241,
      "duration": 0.0163,
      "velocity": 100,
      "chip": "ym2612"
    },
    {
      "channel": 0,
      "note": 41,
      "start": 0.2368,
      "duration": 0.0161,
      "velocity": 115,
      "chip": "ym2612"
    },
    {
      "channel": 4,
      "note": 57,
      "start": 0.2379,
      "duration": 0.0161,
      "velocity": 120,
      "chip": "ym2612"
    },
    {
      "channel": 3,
      "note": 64,
      "start": 0.239,
      "duration": 0.0161,
      "velocity": 120,
      "chip": "ym2612"
    },
    {
      "channel": 2,
      "note": 52,
      "start": 0.2405,
      "duration": 0.0158,
      "velocity": 100,
      "chip": "ym2612"
    },
    {
      "channel": 0,
      "note": 42,
      "start": 0.2529,
      "duration": 0.0161,
      "velocity": 115,
      "chip": "ym2612"
    },
    {
      "channel": 4,
      "note": 57,
      "start": 0.254,
      "duration": 0.0161,
      "velocity": 120,
      "chip": "ym2612"
    },
    {
      "channel": 3,
      "note": 64,
      "start": 0.2551,
      "duration": 0.0161,
      "velocity": 120,
      "chip": "ym2612"
    },
    {
      "channel": 2,
      "note": 52,
      "start": 0.2563,
      "duration": 0.016,
      "velocity": 100,
      "chip": "ym2612"
    },
    {
      "channel": 0,
      "note": 42,
      "start": 0.269,
      "duration": 0.0161,
      "velocity": 115,
      "chip": "ym2612"
    },
    {
      "channel": 4,
      "note": 57,
      "start": 0.2701,
      "duration": 0.0161,
      "velocity": 120,
      "chip": "ym2612"
    },
    {
      "channel": 3,
      "note": 64,
      "start": 0.2712,
      "duration": 0.0161,
      "velocity": 120,
      "chip": "ym2612"
    },
    {
      "channel": 2,
      "note": 52,
      "start": 0.2724,
      "duration": 0.0161,
      "velocity": 100,
      "chip": "ym2612"
    },
    {
      "channel": 0,
      "note": 43,
      "start": 0.2851,
      "duration": 0.0161,
      "velocity": 115,
      "chip": "ym2612"
    },
    {
      "channel": 4,
      "note": 57,
      "start": 0.2862,
      "duration": 0.0162,
      "velocity": 120,
      "chip": "ym2612"
    },
    {
      "channel": 3,
      "note": 64,
      "start": 0.2873,
      "duration": 0.0161,
      "velocity": 120,
      "chip": "ym2612"
    },
    {
      "channel": 2,
      "note": 52,
      "start": 0.2885,
      "duration": 0.0161,
      "velocity": 100,
      "chip": "ym2612"
    },
    {
      "channel": 0,
      "note": 43,
      "start": 0.3012,
      "duration": 0.0161,
      "velocity": 115,
      "chip": "ym2612"
    },
    {
      "channel": 4,
      "note": 57,
      "start": 0.3024,
      "duration": 0.0161,
      "velocity": 120,
      "chip": "ym2612"
    },
    {
      "channel": 3,
      "note": 64,
      "start": 0.3035,
      "duration": 0.0161,
      "velocity": 120,
      "chip": "ym2612"
    },
    {
      "channel": 2,
      "note": 52,
      "start": 0.3046,
      "duration": 0.0161,
      "velocity": 100,
      "chip": "ym2612"
    },
    {
      "channel": 0,
      "note": 44,
      "start": 0.3173,
      "duration": 0.0161,
      "velocity": 115,
      "chip": "ym2612"
    },
    {
      "channel": 4,
      "note": 57,
      "start": 0.3184,
      "duration": 0.0161,
      "velocity": 120,
      "chip": "ym2612"
    },
    {
      "channel": 3,
      "note": 64,
      "start": 0.3196,
      "duration": 0.0161,
      "velocity": 120,
      "chip": "ym2612"
    },
    {
      "channel": 2,
      "note": 52,
      "start": 0.3207,
      "duration": 0.0161,
      "velocity": 100,
      "chip": "ym2612"
    },
    {
      "channel": 0,
      "note": 44,
      "start": 0.3334,
      "duration": 0.0161,
      "velocity": 115,
      "chip": "ym2612"
    },
    {
      "channel": 4,
      "note": 57,
      "start": 0.3345,
      "duration": 0.0161,
      "velocity": 120,
      "chip": "ym2612"
    },
    {
      "channel": 3,
      "note": 64,
      "start": 0.3357,
      "duration": 0.0161,
      "velocity": 120,
      "chip": "ym2612"
    },
    {
      "channel": 2,
      "note": 52,
      "start": 0.3368,
      "duration": 0.0161,
      "velocity": 100,
      "chip": "ym2612"
    },
    {
      "channel": 0,
      "note": 44,
      "start": 0.3495,
      "duration": 0.0161,
      "velocity": 115,
      "chip": "ym2612"
    },
    {
      "channel": 4,
      "note": 57,
      "start": 0.3506,
      "duration": 0.0161,
      "velocity": 120,
      "chip": "ym2612"
    },
    {
      "channel": 3,
      "note": 64,
      "start": 0.3518,
      "duration": 0.0161,
      "velocity": 120,
      "chip": "ym2612"
    },
    {
      "channel": 2,
      "note": 52,
      "start": 0.3529,
      "duration": 0.0162,
      "velocity": 100,
      "chip": "ym2612"
    },
    {
      "channel": 0,
      "note": 45,
      "start": 0.3656,
      "duration": 0.0165,
      "velocity": 115,
      "chip": "ym2612"
    },
    {
      "channel": 4,
      "note": 57,
      "start": 0.3667,
      "duration": 0.0165,
      "velocity": 120,
      "chip": "ym2612"
    },
    {
      "channel": 3,
      "note": 64,
      "start": 0.3679,
      "duration": 0.0165,
      "velocity": 120,
      "chip": "ym2612"
    },
    {
      "channel": 2,
      "note": 52,
      "start": 0.369,
      "duration": 0.0164,
      "velocity": 100,
      "chip": "ym2612"
    },
    {
      "channel": 0,
      "note": 45,
      "start": 0.3821,
      "duration": 0.0163,
      "velocity": 115,
      "chip": "ym2612"
    },
    {
      "channel": 4,
      "note": 57,
      "start": 0.3832,
      "duration": 0.0163,
      "velocity": 120,
      "chip": "ym2612"
    },
    {
      "channel": 3,
      "note": 64,
      "start": 0.3844,
      "duration": 0.0163,
      "velocity": 120,
      "chip": "ym2612"
    },
    {
      "channel": 2,
      "note": 52,
      "start": 0.3854,
      "duration": 0.0163,
      "velocity": 100,
      "chip": "ym2612"
    },
    {
      "channel": 0,
      "note": 46,
      "start": 0.3983,
      "duration": 0.0155,
      "velocity": 115,
      "chip": "ym2612"
    },
    {
      "channel": 4,
      "note": 57,
      "start": 0.3995,
      "duration": 0.0155,
      "velocity": 120,
      "chip": "ym2612"
    },
    {
      "channel": 3,
      "note": 64,
      "start": 0.4006,
      "duration": 0.0155,
      "velocity": 120,
      "chip": "ym2612"
    },
    {
      "channel": 2,
      "note": 52,
      "start": 0.4018,
      "duration": 0.0155,
      "velocity": 100,
      "chip": "ym2612"
    },
    {
      "channel": 0,
      "note": 46,
      "start": 0.4139,
      "duration": 0.0199,
      "velocity": 124,
      "chip": "ym2612"
    },
    {
      "channel": 4,
      "note": 57,
      "start": 0.415,
      "duration": 0.02,
      "velocity": 120,
      "chip": "ym2612"
    },
    {
      "channel": 3,
      "note": 64,
      "start": 0.4161,
      "duration": 0.02,
      "velocity": 120,
      "chip": "ym2612"
    },
    {
      "channel": 2,
      "note": 52,
      "start": 0.4173,
      "duration": 0.0202,
      "velocity": 100,
      "chip": "ym2612"
    },
    {
      "channel": 0,
      "note": 84,
      "start": 0.4338,
      "duration": 0.015,
      "velocity": 124,
      "chip": "ym2612"
    },
    {
      "channel": 4,
      "note": 57,
      "start": 0.435,
      "duration": 0.0149,
      "velocity": 120,
      "chip": "ym2612"
    },
    {
      "channel": 3,
      "note": 64,
      "start": 0.4361,
      "duration": 0.015,
      "velocity": 120,
      "chip": "ym2612"
    },
    {
      "channel": 2,
      "note": 52,
      "start": 0.4375,
      "duration": 0.0147,
      "velocity": 100,
      "chip": "ym2612"
    },
    {
      "channel": 0,
      "note": 82,
      "start": 0.4488,
      "duration": 0.0158,
      "velocity": 124,
      "chip": "ym2612"
    },
    {
      "channel": 4,
      "note": 57,
      "start": 0.4499,
      "duration": 0.0158,
      "velocity": 120,
      "chip": "ym2612"
    },
    {
      "channel": 3,
      "note": 64,
      "start": 0.4511,
      "duration": 0.0158,
      "velocity": 120,
      "chip": "ym2612"
    },
    {
      "channel": 2,
      "note": 52,
      "start": 0.4522,
      "duration": 0.0158,
      "velocity": 100,
      "chip": "ym2612"
    },
    {
      "channel": 0,
      "note": 80,
      "start": 0.4646,
      "duration": 0.0141,
      "velocity": 124,
      "chip": "ym2612"
    },
    {
      "channel": 4,
      "note": 57,
      "start": 0.4657,
      "duration": 0.0141,
      "velocity": 120,
      "chip": "ym2612"
    },
    {
      "channel": 3,
      "note": 64,
      "start": 0.4668,
      "duration": 0.0141,
      "velocity": 120,
      "chip": "ym2612"
    },
    {
      "channel": 2,
      "note": 52,
      "start": 0.468,
      "duration": 0.014,
      "velocity": 100,
      "chip": "ym2612"
    },
    {
      "channel": 0,
      "note": 77,
      "start": 0.4786,
      "duration": 0.0185,
      "velocity": 124,
      "chip": "ym2612"
    },
    {
      "channel": 4,
      "note": 57,
      "start": 0.4798,
      "duration": 0.0185,
      "velocity": 120,
      "chip": "ym2612"
    },
    {
      "channel": 3,
      "note": 64,
      "start": 0.4809,
      "duration": 0.0185,
      "velocity": 120,
      "chip": "ym2612"
    },
    {
      "channel": 2,
      "note": 52,
      "start": 0.482,
      "duration": 0.0186,
      "velocity": 100,
      "chip": "ym2612"
    },
    {
      "channel": 0,
      "note": 75,
      "start": 0.4971,
      "duration": 0.0134,
      "velocity": 124,
      "chip": "ym2612"
    },
    {
      "channel": 4,
      "note": 57,
      "start": 0.4983,
      "duration": 0.0161,
      "velocity": 120,
      "chip": "ym2612"
    },
    {
      "channel": 3,
      "note": 64,
      "start": 0.4994,
      "duration": 0.0161,
      "velocity": 120,
      "chip": "ym2612"
    },
    {
      "channel": 2,
      "note": 52,
      "start": 0.5006,
      "duration": 0.0161,
      "velocity": 100,
      "chip": "ym2612"
    },
    {
      "channel": 0,
      "note": 72,
      "start": 0.5105,
      "duration": 0.0161,
      "velocity": 124,
      "chip": "ym2612"
    },
    {
      "channel": 4,
      "note": 57,
      "start": 0.5144,
      "duration": 0.0158,
      "velocity": 120,
      "chip": "ym2612"
    },
    {
      "channel": 3,
      "note": 64,
      "start": 0.5155,
      "duration": 0.0158,
      "velocity": 120,
      "chip": "ym2612"
    },
    {
      "channel": 2,
      "note": 52,
      "start": 0.5167,
      "duration": 0.0157,
      "velocity": 100,
      "chip": "ym2612"
    },
    {
      "channel": 0,
      "note": 70,
      "start": 0.5266,
      "duration": 0.0161,
      "velocity": 124,
      "chip": "ym2612"
    },
    {
      "channel": 4,
      "note": 57,
      "start": 0.5302,
      "duration": 0.0137,
      "velocity": 120,
      "chip": "ym2612"
    },
    {
      "channel": 3,
      "note": 64,
      "start": 0.5313,
      "duration": 0.014,
      "velocity": 120,
      "chip": "ym2612"
    },
    {
      "channel": 2,
      "note": 52,
      "start": 0.5324,
      "duration": 0.0141,
      "velocity": 100,
      "chip": "ym2612"
    },
    {
      "channel": 0,
      "note": 68,
      "start": 0.5427,
      "duration": 0.0161,
      "velocity": 124,
      "chip": "ym2612"
    },
    {
      "channel": 4,
      "note": 57,
      "start": 0.5438,
      "duration": 0.0161,
      "velocity": 120,
      "chip": "ym2612"
    },
    {
      "channel": 3,
      "note": 64,
      "start": 0.5453,
      "duration": 0.0185,
      "velocity": 120,
      "chip": "ym2612"
    },
    {
      "channel": 2,
      "note": 52,
      "start": 0.5464,
      "duration": 0.0185,
      "velocity": 100,
      "chip": "ym2612"
    },
    {
      "channel": 0,
      "note": 65,
      "start": 0.5588,
      "duration": 0.0161,
      "velocity": 124,
      "chip": "ym2612"
    },
    {
      "channel": 4,
      "note": 57,
      "start": 0.5599,
      "duration": 0.0161,
      "velocity": 120,
      "chip": "ym2612"
    },
    {
      "channel": 3,
      "note": 64,
      "start": 0.5638,
      "duration": 0.0134,
      "velocity": 120,
      "chip": "ym2612"
    },
    {
      "channel": 2,
      "note": 52,
      "start": 0.5649,
      "duration": 0.0161,
      "velocity": 100,
      "chip": "ym2612"
    },
    {
      "channel": 0,
      "note": 63,
      "start": 0.5749,
      "duration": 0.0153,
      "velocity": 1,
      "chip": "ym2612"
    },
    {
      "channel": 4,
      "note": 57,
      "start": 0.576,
      "duration": 0.0153,
      "velocity": 120,
      "chip": "ym2612"
    },
    {
      "channel": 3,
      "note": 64,
      "start": 0.5772,
      "duration": 0.0153,
      "velocity": 120,
      "chip": "ym2612"
    },
    {
      "channel": 2,
      "note": 52,
      "start": 0.581,
      "duration": 0.0125,
      "velocity": 100,
      "chip": "ym2612"
    },
    {
      "channel": 4,
      "note": 57,
      "start": 0.5913,
      "duration": 0.0153,
      "velocity": 120,
      "chip": "ym2612"
    },
    {
      "channel": 3,
      "note": 64,
      "start": 0.5925,
      "duration": 0.0153,
      "velocity": 120,
      "chip": "ym2612"
    },
    {
      "channel": 2,
      "note": 52,
      "start": 0.5936,
      "duration": 0.0153,
      "velocity": 100,
      "chip": "ym2612"
    },
    {
      "channel": 4,
      "note": 57,
      "start": 0.6066,
      "duration": 0.0195,
      "velocity": 120,
      "chip": "ym2612"
    },
    {
      "channel": 3,
      "note": 64,
      "start": 0.6078,
      "duration": 0.0195,
      "velocity": 120,
      "chip": "ym2612"
    },
    {
      "channel": 2,
      "note": 52,
      "start": 0.6088,
      "duration": 0.0226,
      "velocity": 100,
      "chip": "ym2612"
    },
    {
      "channel": 0,
      "note": 36,
      "start": 0.625,
      "duration": 0.0144,
      "velocity": 115,
      "chip": "ym2612"
    },
    {
      "channel": 4,
      "note": 57,
      "start": 0.6261,
      "duration": 0.0144,
      "velocity": 120,
      "chip": "ym2612"
    },
    {
      "channel": 3,
      "note": 64,
      "start": 0.6273,
      "duration": 0.0144,
      "velocity": 120,
      "chip": "ym2612"
    },
    {
      "channel": 2,
      "note": 52,
      "start": 0.6315,
      "duration": 0.0113,
      "velocity": 100,
      "chip": "ym2612"
    },
    {
      "channel": 0,
      "note": 36,
      "start": 0.6394,
      "duration": 0.016,
      "velocity": 115,
      "chip": "ym2612"
    },
    {
      "channel": 4,
      "note": 57,
      "start": 0.6405,
      "duration": 0.016,
      "velocity": 120,
      "chip": "ym2612"
    },
    {
      "channel": 3,
      "note": 64,
      "start": 0.6417,
      "duration": 0.016,
      "velocity": 120,
      "chip": "ym2612"
    },
    {
      "channel": 2,
      "note": 52,
      "start": 0.6428,
      "duration": 0.016,
      "velocity": 100,
      "chip": "ym2612"
    },
    {
      "channel": 0,
      "note": 37,
      "start": 0.6554,
      "duration": 0.0161,
      "velocity": 115,
      "chip": "ym2612"
    },
    {
      "channel": 4,
      "note": 57,
      "start": 0.6566,
      "duration": 0.0161,
      "velocity": 120,
      "chip": "ym2612"
    },
    {
      "channel": 3,
      "note": 64,
      "start": 0.6577,
      "duration": 0.0161,
      "velocity": 120,
      "chip": "ym2612"
    },
    {
      "channel": 2,
      "note": 52,
      "start": 0.6588,
      "duration": 0.0162,
      "velocity": 100,
      "chip": "ym2612"
    },
    {
      "channel": 0,
      "note": 37,
      "start": 0.6715,
      "duration": 0.0161,
      "velocity": 115,
      "chip": "ym2612"
    },
    {
      "channel": 4,
      "note": 57,
      "start": 0.6727,
      "duration": 0.0161,
      "velocity": 120,
      "chip": "ym2612"
    },
    {
      "channel": 3,
      "note": 64,
      "start": 0.6738,
      "duration": 0.0161,
      "velocity": 120,
      "chip": "ym2612"
    },
    {
      "channel": 2,
      "note": 52,
      "start": 0.6749,
      "duration": 0.0161,
      "velocity": 100,
      "chip": "ym2612"
    },
    {
      "channel": 0,
      "note": 38,
      "start": 0.6876,
      "duration": 0.0161,
      "velocity": 115,
      "chip": "ym2612"
    },
    {
      "channel": 4,
      "note": 57,
      "start": 0.6887,
      "duration": 0.0161,
      "velocity": 120,
      "chip": "ym2612"
    },
    {
      "channel": 3,
      "note": 64,
      "start": 0.6899,
      "duration": 0.0161,
      "velocity": 120,
      "chip": "ym2612"
    },
    {
      "channel": 2,
      "note": 52,
      "start": 0.691,
      "duration": 0.0161,
      "velocity": 100,
      "chip": "ym2612"
    },
    {
      "channel": 0,
      "note": 38,
      "start": 0.7037,
      "duration": 0.0161,
      "velocity": 115,
      "chip": "ym2612"
    },
    {
      "channel": 4,
      "note": 57,
      "start": 0.7048,
      "duration": 0.0161,
      "velocity": 120,
      "chip": "ym2612"
    },
    {
      "channel": 3,
      "note": 64,
      "start": 0.706,
      "duration": 0.0161,
      "velocity": 120,
      "chip": "ym2612"
    },
    {
      "channel": 2,
      "note": 52,
      "start": 0.7071,
      "duration": 0.0161,
      "velocity": 100,
      "chip": "ym2612"
    },
    {
      "channel": 0,
      "note": 39,
      "start": 0.7198,
      "duration": 0.0161,
      "velocity": 115,
      "chip": "ym2612"
    },
    {
      "channel": 4,
      "note": 57,
      "start": 0.7209,
      "duration": 0.0161,
      "velocity": 120,
      "chip": "ym2612"
    },
    {
      "channel": 3,
      "note": 64,
      "start": 0.7221,
      "duration": 0.0161,
      "velocity": 120,
      "chip": "ym2612"
    },
    {
      "channel": 2,
      "note": 52,
      "start": 0.7232,
      "duration": 0.0161,
      "velocity": 100,
      "chip": "ym2612"
    },
    {
      "channel": 0,
      "note": 39,
      "start": 0.7359,
      "duration": 0.0162,
      "velocity": 115,
      "chip": "ym2612"
    },
    {
      "channel": 4,
      "note": 57,
      "start": 0.737,
      "duration": 0.0161,
      "velocity": 120,
      "chip": "ym2612"
    },
    {
      "channel": 3,
      "note": 64,
      "start": 0.7382,
      "duration": 0.0162,
      "velocity": 120,
      "chip": "ym2612"
    },
    {
      "channel": 2,
      "note": 52,
      "start": 0.7393,
      "duration": 0.0161,
      "velocity": 100,
      "chip": "ym2612"
    },
    {
      "channel": 0,
      "note": 40,
      "start": 0.752,
      "duration": 0.0161,
      "velocity": 115,
      "chip": "ym2612"
    },
    {
      "channel": 4,
      "note": 57,
      "start": 0.7532,
      "duration": 0.0161,
      "velocity": 120,
      "chip": "ym2612"
    },
    {
      "channel": 3,
      "note": 64,
      "start": 0.7543,
      "duration": 0.0161,
      "velocity": 120,
      "chip": "ym2612"
    },
    {
      "channel": 2,
      "note": 52,
      "start": 0.7554,
      "duration": 0.0161,
      "velocity": 100,
      "chip": "ym2612"
    },
    {
      "channel": 0,
      "note": 40,
      "start": 0.7681,
      "duration": 0.0161,
      "velocity": 115,
      "chip": "ym2612"
    },
    {
      "channel": 4,
      "note": 57,
      "start": 0.7693,
      "duration": 0.0161,
      "velocity": 120,
      "chip": "ym2612"
    },
    {
      "channel": 3,
      "note": 64,
      "start": 0.7704,
      "duration": 0.0161,
      "velocity": 120,
      "chip": "ym2612"
    },
    {
      "channel": 2,
      "note": 52,
      "start": 0.7715,
      "duration": 0.0161,
      "velocity": 100,
      "chip": "ym2612"
    },
    {
      "channel": 0,
      "note": 40,
      "start": 0.7842,
      "duration": 0.0161,
      "velocity": 115,
      "chip": "ym2612"
    },
    {
      "channel": 4,
      "note": 57,
      "start": 0.7854,
      "duration": 0.0161,
      "velocity": 120,
      "chip": "ym2612"
    },
    {
      "channel": 3,
      "note": 64,
      "start": 0.7865,
      "duration": 0.0161,
      "velocity": 120,
      "chip": "ym2612"
    },
    {
      "channel": 2,
      "note": 52,
      "start": 0.7876,
      "duration": 0.0161,
      "velocity": 100,
      "chip": "ym2612"
    },
    {
      "channel": 0,
      "note": 41,
      "start": 0.8003,
      "duration": 0.0179,
      "velocity": 115,
      "chip": "ym2612"
    },
    {
      "channel": 4,
      "note": 57,
      "start": 0.8015,
      "duration": 0.0179,
      "velocity": 120,
      "chip": "ym2612"
    },
    {
      "channel": 3,
      "note": 64,
      "start": 0.8026,
      "duration": 0.0179,
      "velocity": 120,
      "chip": "ym2612"
    },
    {
      "channel": 2,
      "note": 52,
      "start": 0.8037,
      "duration": 0.0181,
      "velocity": 100,
      "chip": "ym2612"
    },
    {
      "channel": 0,
      "note": 36,
      "start": 0.8182,
      "duration": 0.0144,
      "velocity": 115,
      "chip": "ym2612"
    },
    {
      "channel": 4,
      "note": 57,
      "start": 0.8193,
      "duration": 0.0144,
      "velocity": 120,
      "chip": "ym2612"
    },
    {
      "channel": 3,
      "note": 64,
      "start": 0.8205,
      "duration": 0.0144,
      "velocity": 120,
      "chip": "ym2612"
    },
    {
      "channel": 2,
      "note": 52,
      "start": 0.822,
      "duration": 0.0141,
      "velocity": 100,
      "chip": "ym2612"
    },
    {
      "channel": 0,
      "note": 36,
      "start": 0.8326,
      "duration": 0.0162,
      "velocity": 115,
      "chip": "ym2612"
    },
    {
      "channel": 4,
      "note": 57,
      "start": 0.8337,
      "duration": 0.0161,
      "velocity": 120,
      "chip": "ym2612"
    },
    {
      "channel": 3,
      "note": 64,
      "start": 0.8349,
      "duration": 0.0162,
      "velocity": 120,
      "chip": "ym2612"
    },
    {
      "channel": 2,
      "note": 52,
      "start": 0.8361,
      "duration": 0.016,
      "velocity": 100,
      "chip": "ym2612"
    },
    {
      "channel": 0,
      "note": 37,
      "start": 0.8487,
      "duration": 0.0163,
      "velocity": 115,
      "chip": "ym2612"
    },
    {
      "channel": 4,
      "note": 57,
      "start": 0.8499,
      "duration": 0.0163,
      "velocity": 120,
      "chip": "ym2612"
    },
    {
      "channel": 3,
      "note": 64,
      "start": 0.851,
      "duration": 0.0163,
      "velocity": 120,
      "chip": "ym2612"
    },
    {
      "channel": 2,
      "note": 52,
      "start": 0.8521,
      "duration": 0.0163,
      "velocity": 100,
      "chip": "ym2612"
    },
    {
      "channel": 0,
      "note": 37,
      "start": 0.865,
      "duration": 0.0158,
      "velocity": 115,
      "chip": "ym2612"
    },
    {
      "channel": 4,
      "note": 57,
      "start": 0.8661,
      "duration": 0.0158,
      "velocity": 120,
      "chip": "ym2612"
    },
    {
      "channel": 3,
      "note": 64,
      "start": 0.8673,
      "duration": 0.0158,
      "velocity": 120,
      "chip": "ym2612"
    },
    {
      "channel": 2,
      "note": 52,
      "start": 0.8684,
      "duration": 0.0158,
      "velocity": 100,
      "chip": "ym2612"
    },
    {
      "channel": 0,
      "note": 38,
      "start": 0.8808,
      "duration": 0.0179,
      "velocity": 115,
      "chip": "ym2612"
    },
    {
      "channel": 4,
      "note": 57,
      "start": 0.8819,
      "duration": 0.0179,
      "velocity": 120,
      "chip": "ym2612"
    },
    {
      "channel": 3,
      "note": 64,
      "start": 0.8831,
      "duration": 0.0179,
      "velocity": 120,
      "chip": "ym2612"
    },
    {
      "channel": 2,
      "note": 52,
      "start": 0.8842,
      "duration": 0.0179,
      "velocity": 100,
      "chip": "ym2612"
    },
    {
      "channel": 0,
      "note": 38,
      "start": 0.8987,
      "duration": 0.0167,
      "velocity": 115,
      "chip": "ym2612"
    },
    {
      "channel": 4,
      "note": 57,
      "start": 0.8999,
      "duration": 0.0167,
      "velocity": 120,
      "chip": "ym2612"
    },
    {
      "channel": 3,
      "note": 64,
      "start": 0.901,
      "duration": 0.0167,
      "velocity": 120,
      "chip": "ym2612"
    },
    {
      "channel": 2,
      "note": 52,
      "start": 0.9021,
      "duration": 0.0167,
      "velocity": 100,
      "chip": "ym2612"
    },
    {
      "channel": 0,
      "note": 39,
      "start": 0.9154,
      "duration": 0.0161,
      "velocity": 115,
      "chip": "ym2612"
    },
    {
      "channel": 4,
      "note": 57,
      "start": 0.9165,
      "duration": 0.0161,
      "velocity": 120,
      "chip": "ym2612"
    },
    {
      "channel": 3,
      "note": 64,
      "start": 0.9177,
      "duration": 0.0161,
      "velocity": 120,
      "chip": "ym2612"
    },
    {
      "channel": 2,
      "note": 52,
      "start": 0.9188,
      "duration": 0.0161,
      "velocity": 100,
      "chip": "ym2612"
    },
    {
      "channel": 0,
      "note": 39,
      "start": 0.9315,
      "duration": 0.0141,
      "velocity": 115,
      "chip": "ym2612"
    },
    {
      "channel": 4,
      "note": 57,
      "start": 0.9326,
      "duration": 0.0141,
      "velocity": 120,
      "chip": "ym2612"
    },
    {
      "channel": 3,
      "note": 64,
      "start": 0.9338,
      "duration": 0.0141,
      "velocity": 120,
      "chip": "ym2612"
    },
    {
      "channel": 2,
      "note": 52,
      "start": 0.9349,
      "duration": 0.0141,
      "velocity": 100,
      "chip": "ym2612"
    },
    {
      "channel": 0,
      "note": 40,
      "start": 0.9456,
      "duration": 0.0185,
      "velocity": 115,
      "chip": "ym2612"
    },
    {
      "channel": 4,
      "note": 57,
      "start": 0.9467,
      "duration": 0.0185,
      "velocity": 120,
      "chip": "ym2612"
    },
    {
      "channel": 3,
      "note": 64,
      "start": 0.9478,
      "duration": 0.0185,
      "velocity": 120,
      "chip": "ym2612"
    },
    {
      "channel": 2,
      "note": 52,
      "start": 0.949,
      "duration": 0.0185,
      "velocity": 100,
      "chip": "ym2612"
    },
    {
      "channel": 0,
      "note": 40,
      "start": 0.9641,
      "duration": 0.0161,
      "velocity": 115,
      "chip": "ym2612"
    },
    {
      "channel": 4,
      "note": 57,
      "start": 0.9652,
      "duration": 0.0161,
      "velocity": 120,
      "chip": "ym2612"
    },
    {
      "channel": 3,
      "note": 64,
      "start": 0.9663,
      "duration": 0.0161,
      "velocity": 120,
      "chip": "ym2612"
    },
    {
      "channel": 2,
      "note": 52,
      "start": 0.9675,
      "duration": 0.0161,
      "velocity": 100,
      "chip": "ym2612"
    },
    {
      "channel": 0,
      "note": 40,
      "start": 0.9802,
      "duration": 0.0134,
      "velocity": 115,
      "chip": "ym2612"
    },
    {
      "channel": 4,
      "note": 57,
      "start": 0.9813,
      "duration": 0.0158,
      "velocity": 120,
      "chip": "ym2612"
    },
    {
      "channel": 3,
      "note": 64,
      "start": 0.9824,
      "duration": 0.0157,
      "velocity": 120,
      "chip": "ym2612"
    },
    {
      "channel": 2,
      "note": 52,
      "start": 0.9836,
      "duration": 0.0157,
      "velocity": 100,
      "chip": "ym2612"
    },
    {
      "channel": 0,
      "note": 41,
      "start": 0.9935,
      "duration": 0.0161,
      "velocity": 115,
      "chip": "ym2612"
    },
    {
      "channel": 4,
      "note": 57,
      "start": 0.9971,
      "duration": 0.014,
      "velocity": 120,
      "chip": "ym2612"
    },
    {
      "channel": 3,
      "note": 64,
      "start": 0.9982,
      "duration": 0.0141,
      "velocity": 120,
      "chip": "ym2612"
    },
    {
      "channel": 2,
      "note": 52,
      "start": 0.9993,
      "duration": 0.0144,
      "velocity": 100,
      "chip": "ym2612"
    },
    {
      "channel": 0,
      "note": 41,
      "start": 1.0096,
      "duration": 0.0161,
      "velocity": 115,
      "chip": "ym2612"
    },
    {
      "channel": 4,
      "note": 57,
      "start": 1.0111,
      "duration": 0.0158,
      "velocity": 120,
      "chip": "ym2612"
    },
    {
      "channel": 3,
      "note": 64,
      "start": 1.0122,
      "duration": 0.0185,
      "velocity": 120,
      "chip": "ym2612"
    },
    {
      "channel": 2,
      "note": 52,
      "start": 1.0137,
      "duration": 0.0183,
      "velocity": 100,
      "chip": "ym2612"
    },
    {
      "channel": 0,
      "note": 42,
      "start": 1.0257,
      "duration": 0.0162,
      "velocity": 115,
      "chip": "ym2612"
    },
    {
      "channel": 4,
      "note": 57,
      "start": 1.0268,
      "duration": 0.0161,
      "velocity": 120,
      "chip": "ym2612"
    },
    {
      "channel": 3,
      "note": 64,
      "start": 1.0307,
      "duration": 0.0161,
      "velocity": 120,
      "chip": "ym2612"
    },
    {
      "channel": 2,
      "note": 52,
      "start": 1.0319,
      "duration": 0.0161,
      "velocity": 100,
      "chip": "ym2612"
    },
    {
      "channel": 0,
      "note": 42,
      "start": 1.0419,
      "duration": 0.016,
      "velocity": 115,
      "chip": "ym2612"
    },
    {
      "channel": 4,
      "note": 57,
      "start": 1.043,
      "duration": 0.0161,
      "velocity": 120,
      "chip": "ym2612"
    },
    {
      "channel": 3,
      "note": 64,
      "start": 1.0469,
      "duration": 0.0133,
      "velocity": 120,
      "chip": "ym2612"
    },
    {
      "channel": 2,
      "note": 52,
      "start": 1.048,
      "duration": 0.0157,
      "velocity": 100,
      "chip": "ym2612"
    },
    {
      "channel": 0,
      "note": 43,
      "start": 1.0579,
      "duration": 0.0161,
      "velocity": 115,
      "chip": "ym2612"
    },
    {
      "channel": 4,
      "note": 57,
      "start": 1.0591,
      "duration": 0.0161,
      "velocity": 120,
      "chip": "ym2612"
    },
    {
      "channel": 3,
      "note": 64,
      "start": 1.0602,
      "duration": 0.0161,
      "velocity": 120,
      "chip": "ym2612"
    },
    {
      "channel": 2,
      "note": 52,
      "start": 1.0637,
      "duration": 0.014,
      "velocity": 100,
      "chip": "ym2612"
    },
    {
      "channel": 0,
      "note": 43,
      "start": 1.074,
      "duration": 0.0161,
      "velocity": 115,
      "chip": "ym2612"
    },
    {
      "channel": 4,
      "note": 57,
      "start": 1.0752,
      "duration": 0.0161,
      "velocity": 120,
      "chip": "ym2612"
    },
    {
      "channel": 3,
      "note": 64,
      "start": 1.0763,
      "duration": 0.0161,
      "velocity": 120,
      "chip": "ym2612"
    },
    {
      "channel": 2,
      "note": 52,
      "start": 1.0777,
      "duration": 0.0159,
      "velocity": 100,
      "chip": "ym2612"
    },
    {
      "channel": 0,
      "note": 44,
      "start": 1.0901,
      "duration": 0.0161,
      "velocity": 115,
      "chip": "ym2612"
    },
    {
      "channel": 4,
      "note": 57,
      "start": 1.0913,
      "duration": 0.0161,
      "velocity": 120,
      "chip": "ym2612"
    },
    {
      "channel": 3,
      "note": 64,
      "start": 1.0924,
      "duration": 0.0161,
      "velocity": 120,
      "chip": "ym2612"
    },
    {
      "channel": 2,
      "note": 52,
      "start": 1.0936,
      "duration": 0.0161,
      "velocity": 100,
      "chip": "ym2612"
    },
    {
      "channel": 0,
      "note": 44,
      "start": 1.1062,
      "duration": 0.0161,
      "velocity": 115,
      "chip": "ym2612"
    },
    {
      "channel": 4,
      "note": 57,
      "start": 1.1074,
      "duration": 0.0161,
      "velocity": 120,
      "chip": "ym2612"
    },
    {
      "channel": 3,
      "note": 64,
      "start": 1.1085,
      "duration": 0.0161,
      "velocity": 120,
      "chip": "ym2612"
    },
    {
      "channel": 2,
      "note": 52,
      "start": 1.1097,
      "duration": 0.0161,
      "velocity": 100,
      "chip": "ym2612"
    },
    {
      "channel": 0,
      "note": 44,
      "start": 1.1223,
      "duration": 0.0161,
      "velocity": 115,
      "chip": "ym2612"
    },
    {
      "channel": 4,
      "note": 57,
      "start": 1.1235,
      "duration": 0.0161,
      "velocity": 120,
      "chip": "ym2612"
    },
    {
      "channel": 3,
      "note": 64,
      "start": 1.1246,
      "duration": 0.0161,
      "velocity": 120,
      "chip": "ym2612"
    },
    {
      "channel": 2,
      "note": 52,
      "start": 1.1258,
      "duration": 0.0161,
      "velocity": 100,
      "chip": "ym2612"
    },
    {
      "channel": 0,
      "note": 45,
      "start": 1.1384,
      "duration": 0.0161,
      "velocity": 115,
      "chip": "ym2612"
    },
    {
      "channel": 4,
      "note": 57,
      "start": 1.1396,
      "duration": 0.0161,
      "velocity": 120,
      "chip": "ym2612"
    },
    {
      "channel": 3,
      "note": 64,
      "start": 1.1407,
      "duration": 0.0161,
      "velocity": 120,
      "chip": "ym2612"
    },
    {
      "channel": 2,
      "note": 52,
      "start": 1.1419,
      "duration": 0.0161,
      "velocity": 100,
      "chip": "ym2612"
    },
    {
      "channel": 0,
      "note": 45,
      "start": 1.1545,
      "duration": 0.0161,
      "velocity": 115,
      "chip": "ym2612"
    },
    {
      "channel": 4,
      "note": 57,
      "start": 1.1557,
      "duration": 0.0161,
      "velocity": 120,
      "chip": "ym2612"
    },
    {
      "channel": 3,
      "note": 64,
      "start": 1.1568,
      "duration": 0.0161,
      "velocity": 120,
      "chip": "ym2612"
    },
    {
      "channel": 2,
      "note": 52,
      "start": 1.158,
      "duration": 0.0161,
      "velocity": 100,
      "chip": "ym2612"
    },
    {
      "channel": 0,
      "note": 46,
      "start": 1.1706,
      "duration": 0.0161,
      "velocity": 115,
      "chip": "ym2612"
    },
    {
      "channel": 4,
      "note": 57,
      "start": 1.1717,
      "duration": 0.0162,
      "velocity": 120,
      "chip": "ym2612"
    },
    {
      "channel": 3,
      "note": 64,
      "start": 1.1729,
      "duration": 0.0161,
      "velocity": 120,
      "chip": "ym2612"
    },
    {
      "channel": 2,
      "note": 52,
      "start": 1.174,
      "duration": 0.0161,
      "velocity": 100,
      "chip": "ym2612"
    },
    {
      "channel": 0,
      "note": 46,
      "start": 1.1867,
      "duration": 0.0179,
      "velocity": 124,
      "chip": "ym2612"
    },
    {
      "channel": 4,
      "note": 57,
      "start": 1.1879,
      "duration": 0.0179,
      "velocity": 120,
      "chip": "ym2612"
    },
    {
      "channel": 3,
      "note": 64,
      "start": 1.189,
      "duration": 0.0179,
      "velocity": 120,
      "chip": "ym2612"
    },
    {
      "channel": 2,
      "note": 52,
      "start": 1.1901,
      "duration": 0.0182,
      "velocity": 100,
      "chip": "ym2612"
    },
    {
      "channel": 0,
      "note": 84,
      "start": 1.2046,
      "duration": 0.0144,
      "velocity": 124,
      "chip": "ym2612"
    },
    {
      "channel": 4,
      "note": 57,
      "start": 1.2058,
      "duration": 0.0144,
      "velocity": 120,
      "chip": "ym2612"
    },
    {
      "channel": 3,
      "note": 64,
      "start": 1.2069,
      "duration": 0.0144,
      "velocity": 120,
      "chip": "ym2612"
    },
    {
      "channel": 2,
      "note": 52,
      "start": 1.2083,
      "duration": 0.0141,
      "velocity": 100,
      "chip": "ym2612"
    },
    {
      "channel": 0,
      "note": 82,
      "start": 1.219,
      "duration": 0.016,
      "velocity": 124,
      "chip": "ym2612"
    },
    {
      "channel": 4,
      "note": 57,
      "start": 1.2202,
      "duration": 0.016,
      "velocity": 120,
      "chip": "ym2612"
    },
    {
      "channel": 3,
      "note": 64,
      "start": 1.2213,
      "duration": 0.016,
      "velocity": 120,
      "chip": "ym2612"
    },
    {
      "channel": 2,
      "note": 52,
      "start": 1.2224,
      "duration": 0.016,
      "velocity": 100,
      "chip": "ym2612"
    },
    {
      "channel": 0,
      "note": 80,
      "start": 1.2351,
      "duration": 0.0161,
      "velocity": 124,
      "chip": "ym2612"
    },
    {
      "channel": 4,
      "note": 57,
      "start": 1.2362,
      "duration": 0.0161,
      "velocity": 120,
      "chip": "ym2612"
    },
    {
      "channel": 3,
      "note": 64,
      "start": 1.2373,
      "duration": 0.0161,
      "velocity": 120,
      "chip": "ym2612"
    },
    {
      "channel": 2,
      "note": 52,
      "start": 1.2384,
      "duration": 0.0162,
      "velocity": 100,
      "chip": "ym2612"
    },
    {
      "channel": 0,
      "note": 77,
      "start": 1.2511,
      "duration": 0.0161,
      "velocity": 124,
      "chip": "ym2612"
    },
    {
      "channel": 4,
      "note": 57,
      "start": 1.2523,
      "duration": 0.0161,
      "velocity": 120,
      "chip": "ym2612"
    },
    {
      "channel": 3,
      "note": 64,
      "start": 1.2534,
      "duration": 0.0161,
      "velocity": 120,
      "chip": "ym2612"
    },
    {
      "channel": 2,
      "note": 52,
      "start": 1.2546,
      "duration": 0.0161,
      "velocity": 100,
      "chip": "ym2612"
    },
    {
      "channel": 0,
      "note": 75,
      "start": 1.2672,
      "duration": 0.0161,
      "velocity": 124,
      "chip": "ym2612"
    },
    {
      "channel": 4,
      "note": 57,
      "start": 1.2684,
      "duration": 0.0161,
      "velocity": 120,
      "chip": "ym2612"
    },
    {
      "channel": 3,
      "note": 64,
      "start": 1.2695,
      "duration": 0.0161,
      "velocity": 120,
      "chip": "ym2612"
    },
    {
      "channel": 2,
      "note": 52,
      "start": 1.2707,
      "duration": 0.0161,
      "velocity": 100,
      "chip": "ym2612"
    },
    {
      "channel": 0,
      "note": 72,
      "start": 1.2833,
      "duration": 0.0161,
      "velocity": 124,
      "chip": "ym2612"
    },
    {
      "channel": 4,
      "note": 57,
      "start": 1.2845,
      "duration": 0.0161,
      "velocity": 120,
      "chip": "ym2612"
    },
    {
      "channel": 3,
      "note": 64,
      "start": 1.2856,
      "duration": 0.0161,
      "velocity": 120,
      "chip": "ym2612"
    },
    {
      "channel": 2,
      "note": 52,
      "start": 1.2868,
      "duration": 0.0161,
      "velocity": 100,
      "chip": "ym2612"
    },
    {
      "channel": 0,
      "note": 70,
      "start": 1.2994,
      "duration": 0.0161,
      "velocity": 124,
      "chip": "ym2612"
    },
    {
      "channel": 4,
      "note": 57,
      "start": 1.3006,
      "duration": 0.0161,
      "velocity": 120,
      "chip": "ym2612"
    },
    {
      "channel": 3,
      "note": 64,
      "start": 1.3017,
      "duration": 0.0161,
      "velocity": 120,
      "chip": "ym2612"
    },
    {
      "channel": 2,
      "note": 52,
      "start": 1.3029,
      "duration": 0.0161,
      "velocity": 100,
      "chip": "ym2612"
    },
    {
      "channel": 0,
      "note": 68,
      "start": 1.3155,
      "duration": 0.0162,
      "velocity": 124,
      "chip": "ym2612"
    },
    {
      "channel": 4,
      "note": 57,
      "start": 1.3167,
      "duration": 0.0161,
      "velocity": 120,
      "chip": "ym2612"
    },
    {
      "channel": 3,
      "note": 64,
      "start": 1.3178,
      "duration": 0.0162,
      "velocity": 120,
      "chip": "ym2612"
    },
    {
      "channel": 2,
      "note": 52,
      "start": 1.319,
      "duration": 0.0161,
      "velocity": 100,
      "chip": "ym2612"
    },
    {
      "channel": 0,
      "note": 65,
      "start": 1.3317,
      "duration": 0.0161,
      "velocity": 124,
      "chip": "ym2612"
    },
    {
      "channel": 4,
      "note": 57,
      "start": 1.3328,
      "duration": 0.0161,
      "velocity": 120,
      "chip": "ym2612"
    },
    {
      "channel": 3,
      "note": 64,
      "start": 1.334,
      "duration": 0.0161,
      "velocity": 120,
      "chip": "ym2612"
    },
    {
      "channel": 2,
      "note": 52,
      "start": 1.3351,
      "duration": 0.016,
      "velocity": 100,
      "chip": "ym2612"
    },
    {
      "channel": 0,
      "note": 63,
      "start": 1.3478,
      "duration": 0.0168,
      "velocity": 1,
      "chip": "ym2612"
    },
    {
      "channel": 4,
      "note": 57,
      "start": 1.3489,
      "duration": 0.0168,
      "velocity": 120,
      "chip": "ym2612"
    },
    {
      "channel": 3,
      "note": 64,
      "start": 1.3501,
      "duration": 0.0168,
      "velocity": 120,
      "chip": "ym2612"
    },
    {
      "channel": 2,
      "note": 52,
      "start": 1.3511,
      "duration": 0.0168,
      "velocity": 100,
      "chip": "ym2612"
    },
    {
      "channel": 4,
      "note": 57,
      "start": 1.3657,
      "duration": 0.0158,
      "velocity": 120,
      "chip": "ym2612"
    },
    {
      "channel": 3,
      "note": 64,
      "start": 1.3668,
      "duration": 0.0159,
      "velocity": 120,
      "chip": "ym2612"
    },
    {
      "channel": 2,
      "note": 52,
      "start": 1.3679,
      "duration": 0.0159,
      "velocity": 100,
      "chip": "ym2612"
    },
    {
      "channel": 4,
      "note": 57,
      "start": 1.3815,
      "duration": 0.0163,
      "velocity": 120,
      "chip": "ym2612"
    },
    {
      "channel": 3,
      "note": 64,
      "start": 1.3827,
      "duration": 0.0163,
      "velocity": 120,
      "chip": "ym2612"
    },
    {
      "channel": 2,
      "note": 52,
      "start": 1.3838,
      "duration": 0.0166,
      "velocity": 100,
      "chip": "ym2612"
    },
    {
      "channel": 4,
      "note": 57,
      "start": 1.3978,
      "duration": 0.0141,
      "velocity": 120,
      "chip": "ym2612"
    },
    {
      "channel": 3,
      "note": 64,
      "start": 1.399,
      "duration": 0.0141,
      "velocity": 120,
      "chip": "ym2612"
    },
    {
      "channel": 2,
      "note": 52,
      "start": 1.4005,
      "duration": 0.0139,
      "velocity": 100,
      "chip": "ym2612"
    },
    {
      "channel": 4,
      "note": 57,
      "start": 1.412,
      "duration": 0.0185,
      "velocity": 120,
      "chip": "ym2612"
    },
    {
      "channel": 3,
      "note": 64,
      "start": 1.4131,
      "duration": 0.0185,
      "velocity": 120,
      "chip": "ym2612"
    },
    {
      "channel": 2,
      "note": 52,
      "start": 1.4143,
      "duration": 0.0185,
      "velocity": 100,
      "chip": "ym2612"
    },
    {
      "channel": 4,
      "note": 57,
      "start": 1.4305,
      "duration": 0.0134,
      "velocity": 120,
      "chip": "ym2612"
    },
    {
      "channel": 3,
      "note": 64,
      "start": 1.4316,
      "duration": 0.0161,
      "velocity": 120,
      "chip": "ym2612"
    },
    {
      "channel": 2,
      "note": 52,
      "start": 1.4328,
      "duration": 0.0161,
      "velocity": 100,
      "chip": "ym2612"
    },
    {
      "channel": 4,
      "note": 57,
      "start": 1.4438,
      "duration": 0.0161,
      "velocity": 120,
      "chip": "ym2612"
    },
    {
      "channel": 3,
      "note": 64,
      "start": 1.4477,
      "duration": 0.0158,
      "velocity": 120,
      "chip": "ym2612"
    },
    {
      "channel": 2,
      "note": 52,
      "start": 1.4488,
      "duration": 0.0158,
      "velocity": 100,
      "chip": "ym2612"
    },
    {
      "channel": 4,
      "note": 57,
      "start": 1.46,
      "duration": 0.0161,
      "velocity": 120,
      "chip": "ym2612"
    },
    {
      "channel": 3,
      "note": 64,
      "start": 1.4635,
      "duration": 0.0137,
      "velocity": 120,
      "chip": "ym2612"
    },
    {
      "channel": 2,
      "note": 52,
      "start": 1.4646,
      "duration": 0.014,
      "velocity": 100,
      "chip": "ym2612"
    },
    {
      "channel": 4,
      "note": 57,
      "start": 1.4761,
      "duration": 0.0161,
      "velocity": 120,
      "chip": "ym2612"
    },
    {
      "channel": 3,
      "note": 64,
      "start": 1.4772,
      "duration": 0.0161,
      "velocity": 120,
      "chip": "ym2612"
    },
    {
      "channel": 2,
      "note": 52,
      "start": 1.4786,
      "duration": 0.0186,
      "velocity": 100,
      "chip": "ym2612"
    },
    {
      "channel": 4,
      "note": 57,
      "start": 1.4922,
      "duration": 0.0161,
      "velocity": 120,
      "chip": "ym2612"
    },
    {
      "channel": 3,
      "note": 64,
      "start": 1.4933,
      "duration": 0.0161,
      "velocity": 120,
      "chip": "ym2612"
    },
    {
      "channel": 2,
      "note": 52,
      "start": 1.4972,
      "duration": 0.0133,
      "velocity": 100,
      "chip": "ym2612"
    },
    {
      "channel": 4,
      "note": 57,
      "start": 1.5083,
      "duration": 0.0161,
      "velocity": 120,
      "chip": "ym2612"
    },
    {
      "channel": 3,
      "note": 64,
      "start": 1.5094,
      "duration": 0.0161,
      "velocity": 120,
      "chip": "ym2612"
    },
    {
      "channel": 2,
      "note": 52,
      "start": 1.5105,
      "duration": 0.0161,
      "velocity": 100,
      "chip": "ym2612"
    },
    {
      "channel": 4,
      "note": 57,
      "start": 1.5244,
      "duration": 0.0161,
      "velocity": 120,
      "chip": "ym2612"
    },
    {
      "channel": 3,
      "note": 64,
      "start": 1.5255,
      "duration": 0.0161,
      "velocity": 120,
      "chip": "ym2612"
    },
    {
      "channel": 2,
      "note": 52,
      "start": 1.5266,
      "duration": 0.0161,
      "velocity": 100,
      "chip": "ym2612"
    },
    {
      "channel": 4,
      "note": 57,
      "start": 1.5405,
      "duration": 0.0161,
      "velocity": 120,
      "chip": "ym2612"
    },
    {
      "channel": 3,
      "note": 64,
      "start": 1.5416,
      "duration": 0.0161,
      "velocity": 120,
      "chip": "ym2612"
    },
    {
      "channel": 2,
      "note": 52,
      "start": 1.5427,
      "duration": 0.0162,
      "velocity": 100,
      "chip": "ym2612"
    },
    {
      "channel": 4,
      "note": 57,
      "start": 1.5566,
      "duration": 0.0161,
      "velocity": 120,
      "chip": "ym2612"
    },
    {
      "channel": 3,
      "note": 64,
      "start": 1.5577,
      "duration": 0.0161,
      "velocity": 120,
      "chip": "ym2612"
    },
    {
      "channel": 2,
      "note": 52,
      "start": 1.5588,
      "duration": 0.0161,
      "velocity": 100,
      "chip": "ym2612"
    },
    {
      "channel": 4,
      "note": 57,
      "start": 1.5727,
      "duration": 0.0195,
      "velocity": 120,
      "chip": "ym2612"
    },
    {
      "channel": 3,
      "note": 64,
      "start": 1.5738,
      "duration": 0.0195,
      "velocity": 120,
      "chip": "ym2612"
    },
    {
      "channel": 2,
      "note": 52,
      "start": 1.5749,
      "duration": 0.0222,
      "velocity": 100,
      "chip": "ym2612"
    },
    {
      "channel": 0,
      "note": 36,
      "start": 1.591,
      "duration": 0.0144,
      "velocity": 115,
      "chip": "ym2612"
    },
    {
      "channel": 4,
      "note": 57,
      "start": 1.5922,
      "duration": 0.0144,
      "velocity": 120,
      "chip": "ym2612"
    },
    {
      "channel": 3,
      "note": 64,
      "start": 1.5933,
      "duration": 0.0144,
      "velocity": 120,
      "chip": "ym2612"
    },
    {
      "channel": 2,
      "note": 52,
      "start": 1.5972,
      "duration": 0.0117,
      "velocity": 100,
      "chip": "ym2612"
    },
    {
      "channel": 0,
      "note": 36,
      "start": 1.6054,
      "duration": 0.016,
      "velocity": 115,
      "chip": "ym2612"
    },
    {
      "channel": 4,
      "note": 57,
      "start": 1.6066,
      "duration": 0.016,
      "velocity": 120,
      "chip": "ym2612"
    },
    {
      "channel": 3,
      "note": 64,
      "start": 1.6077,
      "duration": 0.016,
      "velocity": 120,
      "chip": "ym2612"
    },
    {
      "channel": 2,
      "note": 52,
      "start": 1.6089,
      "duration": 0.016,
      "velocity": 100,
      "chip": "ym2612"
    },
    {
      "channel": 0,
      "note": 37,
      "start": 1.6214,
      "duration": 0.0161,
      "velocity": 115,
      "chip": "ym2612"
    },
    {
      "channel": 4,
      "note": 57,
      "start": 1.6226,
      "duration": 0.0161,
      "velocity": 120,
      "chip": "ym2612"
    },
    {
      "channel": 3,
      "note": 64,
      "start": 1.6237,
      "duration": 0.0161,
      "velocity": 120,
      "chip": "ym2612"
    },
    {
      "channel": 2,
      "note": 52,
      "start": 1.6249,
      "duration": 0.0161,
      "velocity": 100,
      "chip": "ym2612"
    },
    {
      "channel": 0,
      "note": 37,
      "start": 1.6375,
      "duration": 0.0162,
      "velocity": 115,
      "chip": "ym2612"
    },
    {
      "channel": 4,
      "note": 57,
      "start": 1.6387,
      "duration": 0.0161,
      "velocity": 120,
      "chip": "ym2612"
    },
    {
      "channel": 3,
      "note": 64,
      "start": 1.6398,
      "duration": 0.0162,
      "velocity": 120,
      "chip": "ym2612"
    },
    {
      "channel": 2,
      "note": 52,
      "start": 1.641,
      "duration": 0.0161,
      "velocity": 100,
      "chip": "ym2612"
    },
    {
      "channel": 0,
      "note": 38,
      "start": 1.6537,
      "duration": 0.0161,
      "velocity": 115,
      "chip": "ym2612"
    },
    {
      "channel": 4,
      "note": 57,
      "start": 1.6548,
      "duration": 0.0161,
      "velocity": 120,
      "chip": "ym2612"
    },
    {
      "channel": 3,
      "note": 64,
      "start": 1.656,
      "duration": 0.0161,
      "velocity": 120,
      "chip": "ym2612"
    },
    {
      "channel": 2,
      "note": 52,
      "start": 1.6571,
      "duration": 0.0161,
      "velocity": 100,
      "chip": "ym2612"
    },
    {
      "channel": 0,
      "note": 38,
      "start": 1.6698,
      "duration": 0.0161,
      "velocity": 115,
      "chip": "ym2612"
    },
    {
      "channel": 4,
      "note": 57,
      "start": 1.6709,
      "duration": 0.0161,
      "velocity": 120,
      "chip": "ym2612"
    },
    {
      "channel": 3,
      "note": 64,
      "start": 1.6721,
      "duration": 0.0161,
      "velocity": 120,
      "chip": "ym2612"
    },
    {
      "channel": 2,
      "note": 52,
      "start": 1.6732,
      "duration": 0.0161,
      "velocity": 100,
      "chip": "ym2612"
    },
    {
      "channel": 0,
      "note": 39,
      "start": 1.6859,
      "duration": 0.0161,
      "velocity": 115,
      "chip": "ym2612"
    },
    {
      "channel": 4,
      "note": 57,
      "start": 1.687,
      "duration": 0.0161,
      "velocity": 120,
      "chip": "ym2612"
    },
    {
      "channel": 3,
      "note": 64,
      "start": 1.6882,
      "duration": 0.0161,
      "velocity": 120,
      "chip": "ym2612"
    },
    {
      "channel": 2,
      "note": 52,
      "start": 1.6893,
      "duration": 0.0161,
      "velocity": 100,
      "chip": "ym2612"
    },
    {
      "channel": 0,
      "note": 39,
      "start": 1.702,
      "duration": 0.0161,
      "velocity": 115,
      "chip": "ym2612"
    },
    {
      "channel": 4,
      "note": 57,
      "start": 1.7031,
      "duration": 0.0161,
      "velocity": 120,
      "chip": "ym2612"
    },
    {
      "channel": 3,
      "note": 64,
      "start": 1.7043,
      "duration": 0.0161,
      "velocity": 120,
      "chip": "ym2612"
    },
    {
      "channel": 2,
      "note": 52,
      "start": 1.7054,
      "duration": 0.0161,
      "velocity": 100,
      "chip": "ym2612"
    },
    {
      "channel": 0,
      "note": 40,
      "start": 1.7181,
      "duration": 0.0161,
      "velocity": 115,
      "chip": "ym2612"
    },
    {
      "channel": 4,
      "note": 57,
      "start": 1.7192,
      "duration": 0.0161,
      "velocity": 120,
      "chip": "ym2612"
    },
    {
      "channel": 3,
      "note": 64,
      "start": 1.7204,
      "duration": 0.0161,
      "velocity": 120,
      "chip": "ym2612"
    },
    {
      "channel": 2,
      "note": 52,
      "start": 1.7215,
      "duration": 0.0161,
      "velocity": 100,
      "chip": "ym2612"
    },
    {
      "channel": 0,
      "note": 40,
      "start": 1.7341,
      "duration": 0.0161,
      "velocity": 115,
      "chip": "ym2612"
    },
    {
      "channel": 4,
      "note": 57,
      "start": 1.7353,
      "duration": 0.0161,
      "velocity": 120,
      "chip": "ym2612"
    },
    {
      "channel": 3,
      "note": 64,
      "start": 1.7364,
      "duration": 0.0161,
      "velocity": 120,
      "chip": "ym2612"
    },
    {
      "channel": 2,
      "note": 52,
      "start": 1.7376,
      "duration": 0.0161,
      "velocity": 100,
      "chip": "ym2612"
    },
    {
      "channel": 0,
      "note": 40,
      "start": 1.7502,
      "duration": 0.0161,
      "velocity": 115,
      "chip": "ym2612"
    },
    {
      "channel": 4,
      "note": 57,
      "start": 1.7514,
      "duration": 0.0161,
      "velocity": 120,
      "chip": "ym2612"
    },
    {
      "channel": 3,
      "note": 64,
      "start": 1.7525,
      "duration": 0.0161,
      "velocity": 120,
      "chip": "ym2612"
    },
    {
      "channel": 2,
      "note": 52,
      "start": 1.7537,
      "duration": 0.0161,
      "velocity": 100,
      "chip": "ym2612"
    },
    {
      "channel": 0,
      "note": 41,
      "start": 1.7663,
      "duration": 0.0161,
      "velocity": 115,
      "chip": "ym2612"
    },
    {
      "channel": 4,
      "note": 57,
      "start": 1.7675,
      "duration": 0.0161,
      "velocity": 120,
      "chip": "ym2612"
    },
    {
      "channel": 3,
      "note": 64,
      "start": 1.7686,
      "duration": 0.0161,
      "velocity": 120,
      "chip": "ym2612"
    },
    {
      "channel": 2,
      "note": 52,
      "start": 1.7698,
      "duration": 0.0163,
      "velocity": 100,
      "chip": "ym2612"
    },
    {
      "channel": 0,
      "note": 41,
      "start": 1.7824,
      "duration": 0.0161,
      "velocity": 115,
      "chip": "ym2612"
    },
    {
      "channel": 4,
      "note": 57,
      "start": 1.7836,
      "duration": 0.0162,
      "velocity": 120,
      "chip": "ym2612"
    },
    {
      "channel": 3,
      "note": 64,
      "start": 1.7847,
      "duration": 0.0161,
      "velocity": 120,
      "chip": "ym2612"
    },
    {
      "channel": 2,
      "note": 52,
      "start": 1.7862,
      "duration": 0.0159,
      "velocity": 100,
      "chip": "ym2612"
    },
    {
      "channel": 0,
      "note": 42,
      "start": 1.7986,
      "duration": 0.0161,
      "velocity": 115,
      "chip": "ym2612"
    },
    {
      "channel": 4,
      "note": 57,
      "start": 1.7998,
      "duration": 0.0161,
      "velocity": 120,
      "chip": "ym2612"
    },
    {
      "channel": 3,
      "note": 64,
      "start": 1.8009,
      "duration": 0.0161,
      "velocity": 120,
      "chip": "ym2612"
    },
    {
      "channel": 2,
      "note": 52,
      "start": 1.802,
      "duration": 0.016,
      "velocity": 100,
      "chip": "ym2612"
    },
    {
      "channel": 0,
      "note": 42,
      "start": 1.8147,
      "duration": 0.0173,
      "velocity": 115,
      "chip": "ym2612"
    },
    {
      "channel": 4,
      "note": 57,
      "start": 1.8158,
      "duration": 0.0174,
      "velocity": 120,
      "chip": "ym2612"
    },
    {
      "channel": 3,
      "note": 64,
      "start": 1.817,
      "duration": 0.0173,
      "velocity": 120,
      "chip": "ym2612"
    },
    {
      "channel": 2,
      "note": 52,
      "start": 1.8181,
      "duration": 0.0174,
      "velocity": 100,
      "chip": "ym2612"
    },
    {
      "channel": 0,
      "note": 43,
      "start": 1.832,
      "duration": 0.0167,
      "velocity": 115,
      "chip": "ym2612"
    },
    {
      "channel": 4,
      "note": 57,
      "start": 1.8332,
      "duration": 0.0167,
      "velocity": 120,
      "chip": "ym2612"
    },
    {
      "channel": 3,
      "note": 64,
      "start": 1.8343,
      "duration": 0.0167,
      "velocity": 120,
      "chip": "ym2612"
    },
    {
      "channel": 2,
      "note": 52,
      "start": 1.8354,
      "duration": 0.0167,
      "velocity": 100,
      "chip": "ym2612"
    },
    {
      "channel": 0,
      "note": 43,
      "start": 1.8487,
      "duration": 0.0163,
      "velocity": 115,
      "chip": "ym2612"
    },
    {
      "channel": 4,
      "note": 57,
      "start": 1.8499,
      "duration": 0.0163,
      "velocity": 120,
      "chip": "ym2612"
    },
    {
      "channel": 3,
      "note": 64,
      "start": 1.851,
      "duration": 0.0163,
      "velocity": 120,
      "chip": "ym2612"
    },
    {
      "channel": 2,
      "note": 52,
      "start": 1.8521,
      "duration": 0.0163,
      "velocity": 100,
      "chip": "ym2612"
    },
    {
      "channel": 0,
      "note": 44,
      "start": 1.865,
      "duration": 0.0144,
      "velocity": 115,
      "chip": "ym2612"
    },
    {
      "channel": 4,
      "note": 57,
      "start": 1.8661,
      "duration": 0.0144,
      "velocity": 120,
      "chip": "ym2612"
    },
    {
      "channel": 3,
      "note": 64,
      "start": 1.8673,
      "duration": 0.0144,
      "velocity": 120,
      "chip": "ym2612"
    },
    {
      "channel": 2,
      "note": 52,
      "start": 1.8684,
      "duration": 0.0144,
      "velocity": 100,
      "chip": "ym2612"
    },
    {
      "channel": 0,
      "note": 44,
      "start": 1.8794,
      "duration": 0.0185,
      "velocity": 115,
      "chip": "ym2612"
    },
    {
      "channel": 4,
      "note": 57,
      "start": 1.8805,
      "duration": 0.0185,
      "velocity": 120,
      "chip": "ym2612"
    },
    {
      "channel": 3,
      "note": 64,
      "start": 1.8817,
      "duration": 0.0185,
      "velocity": 120,
      "chip": "ym2612"
    },
    {
      "channel": 2,
      "note": 52,
      "start": 1.8828,
      "duration": 0.0185,
      "velocity": 100,
      "chip": "ym2612"
    },
    {
      "channel": 0,
      "note": 44,
      "start": 1.8979,
      "duration": 0.0161,
      "velocity": 115,
      "chip": "ym2612"
    },
    {
      "channel": 4,
      "note": 57,
      "start": 1.899,
      "duration": 0.0161,
      "velocity": 120,
      "chip": "ym2612"
    },
    {
      "channel": 3,
      "note": 64,
      "start": 1.9002,
      "duration": 0.0161,
      "velocity": 120,
      "chip": "ym2612"
    },
    {
      "channel": 2,
      "note": 52,
      "start": 1.9013,
      "duration": 0.0161,
      "velocity": 100,
      "chip": "ym2612"
    },
    {
      "channel": 0,
      "note": 45,
      "start": 1.914,
      "duration": 0.0157,
      "velocity": 115,
      "chip": "ym2612"
    },
    {
      "channel": 4,
      "note": 57,
      "start": 1.9152,
      "duration": 0.0157,
      "velocity": 120,
      "chip": "ym2612"
    },
    {
      "channel": 3,
      "note": 64,
      "start": 1.9163,
      "duration": 0.0158,
      "velocity": 120,
      "chip": "ym2612"
    },
    {
      "channel": 2,
      "note": 52,
      "start": 1.9174,
      "duration": 0.0157,
      "velocity": 100,
      "chip": "ym2612"
    },
    {
      "channel": 0,
      "note": 45,
      "start": 1.9297,
      "duration": 0.0138,
      "velocity": 115,
      "chip": "ym2612"
    },
    {
      "channel": 4,
      "note": 57,
      "start": 1.9309,
      "duration": 0.0141,
      "velocity": 120,
      "chip": "ym2612"
    },
    {
      "channel": 3,
      "note": 64,
      "start": 1.9321,
      "duration": 0.0141,
      "velocity": 120,
      "chip": "ym2612"
    },
    {
      "channel": 2,
      "note": 52,
      "start": 1.9332,
      "duration": 0.014,
      "velocity": 100,
      "chip": "ym2612"
    },
    {
      "channel": 0,
      "note": 46,
      "start": 1.9435,
      "duration": 0.0161,
      "velocity": 115,
      "chip": "ym2612"
    },
    {
      "channel": 4,
      "note": 57,
      "start": 1.945,
      "duration": 0.0185,
      "velocity": 120,
      "chip": "ym2612"
    },
    {
      "channel": 3,
      "note": 64,
      "start": 1.9461,
      "duration": 0.0185,
      "velocity": 120,
      "chip": "ym2612"
    },
    {
      "channel": 2,
      "note": 52,
      "start": 1.9472,
      "duration": 0.0186,
      "velocity": 100,
      "chip": "ym2612"
    },
    {
      "channel": 0,
      "note": 46,
      "start": 1.9596,
      "duration": 0.0205,
      "velocity": 124,
      "chip": "ym2612"
    },
    {
      "channel": 4,
      "note": 57,
      "start": 1.9635,
      "duration": 0.0179,
      "velocity": 120,
      "chip": "ym2612"
    },
    {
      "channel": 3,
      "note": 64,
      "start": 1.9646,
      "duration": 0.0179,
      "velocity": 120,
      "chip": "ym2612"
    },
    {
      "channel": 2,
      "note": 52,
      "start": 1.9658,
      "duration": 0.0181,
      "velocity": 100,
      "chip": "ym2612"
    },
    {
      "channel": 0,
      "note": 84,
      "start": 1.9802,
      "duration": 0.0117,
      "velocity": 124,
      "chip": "ym2612"
    },
    {
      "channel": 4,
      "note": 57,
      "start": 1.9814,
      "duration": 0.0116,
      "velocity": 120,
      "chip": "ym2612"
    },
    {
      "channel": 3,
      "note": 64,
      "start": 1.9825,
      "duration": 0.014,
      "velocity": 120,
      "chip": "ym2612"
    },
    {
      "channel": 2,
      "note": 52,
      "start": 1.984,
      "duration": 0.0137,
      "velocity": 100,
      "chip": "ym2612"
    },
    {
      "channel": 0,
      "note": 82,
      "start": 1.9919,
      "duration": 0.016,
      "velocity": 124,
      "chip": "ym2612"
    },
    {
      "channel": 4,
      "note": 57,
      "start": 1.993,
      "duration": 0.016,
      "velocity": 120,
      "chip": "ym2612"
    },
    {
      "channel": 3,
      "note": 64,
      "start": 1.9965,
      "duration": 0.0137,
      "velocity": 120,
      "chip": "ym2612"
    },
    {
      "channel": 2,
      "note": 52,
      "start": 1.9977,
      "duration": 0.0139,
      "velocity": 100,
      "chip": "ym2612"
    },
    {
      "channel": 0,
      "note": 80,
      "start": 2.0079,
      "duration": 0.0161,
      "velocity": 124,
      "chip": "ym2612"
    },
    {
      "channel": 4,
      "note": 57,
      "start": 2.009,
      "duration": 0.0161,
      "velocity": 120,
      "chip": "ym2612"
    },
    {
      "channel": 3,
      "note": 64,
      "start": 2.0102,
      "duration": 0.0161,
      "velocity": 120,
      "chip": "ym2612"
    },
    {
      "channel": 2,
      "note": 52,
      "start": 2.0116,
      "duration": 0.0185,
      "velocity": 100,
      "chip": "ym2612"
    },
    {
      "channel": 0,
      "note": 77,
      "start": 2.024,
      "duration": 0.0161,
      "velocity": 124,
      "chip": "ym2612"
    },
    {
      "channel": 4,
      "note": 57,
      "start": 2.0251,
      "duration": 0.0161,
      "velocity": 120,
      "chip": "ym2612"
    },
    {
      "channel": 3,
      "note": 64,
      "start": 2.0263,
      "duration": 0.0161,
      "velocity": 120,
      "chip": "ym2612"
    },
    {
      "channel": 2,
      "note": 52,
      "start": 2.0302,
      "duration": 0.0134,
      "velocity": 100,
      "chip": "ym2612"
    },
    {
      "channel": 0,
      "note": 75,
      "start": 2.0401,
      "duration": 0.0161,
      "velocity": 124,
      "chip": "ym2612"
    },
    {
      "channel": 4,
      "note": 57,
      "start": 2.0412,
      "duration": 0.0161,
      "velocity": 120,
      "chip": "ym2612"
    },
    {
      "channel": 3,
      "note": 64,
      "start": 2.0424,
      "duration": 0.0161,
      "velocity": 120,
      "chip": "ym2612"
    },
    {
      "channel": 2,
      "note": 52,
      "start": 2.0435,
      "duration": 0.0161,
      "velocity": 100,
      "chip": "ym2612"
    },
    {
      "channel": 0,
      "note": 72,
      "start": 2.0562,
      "duration": 0.0161,
      "velocity": 124,
      "chip": "ym2612"
    },
    {
      "channel": 4,
      "note": 57,
      "start": 2.0573,
      "duration": 0.0161,
      "velocity": 120,
      "chip": "ym2612"
    },
    {
      "channel": 3,
      "note": 64,
      "start": 2.0585,
      "duration": 0.0161,
      "velocity": 120,
      "chip": "ym2612"
    },
    {
      "channel": 2,
      "note": 52,
      "start": 2.0596,
      "duration": 0.0161,
      "velocity": 100,
      "chip": "ym2612"
    },
    {
      "channel": 0,
      "note": 70,
      "start": 2.0723,
      "duration": 0.0161,
      "velocity": 124,
      "chip": "ym2612"
    },
    {
      "channel": 4,
      "note": 57,
      "start": 2.0734,
      "duration": 0.0162,
      "velocity": 120,
      "chip": "ym2612"
    },
    {
      "channel": 3,
      "note": 64,
      "start": 2.0746,
      "duration": 0.0161,
      "velocity": 120,
      "chip": "ym2612"
    },
    {
      "channel": 2,
      "note": 52,
      "start": 2.0757,
      "duration": 0.0161,
      "velocity": 100,
      "chip": "ym2612"
    },
    {
      "channel": 0,
      "note": 68,
      "start": 2.0884,
      "duration": 0.0161,
      "velocity": 124,
      "chip": "ym2612"
    },
    {
      "channel": 4,
      "note": 57,
      "start": 2.0896,
      "duration": 0.0161,
      "velocity": 120,
      "chip": "ym2612"
    },
    {
      "channel": 3,
      "note": 64,
      "start": 2.0907,
      "duration": 0.0161,
      "velocity": 120,
      "chip": "ym2612"
    },
    {
      "channel": 2,
      "note": 52,
      "start": 2.0918,
      "duration": 0.0161,
      "velocity": 100,
      "chip": "ym2612"
    },
    {
      "channel": 0,
      "note": 65,
      "start": 2.1045,
      "duration": 0.0161,
      "velocity": 124,
      "chip": "ym2612"
    },
    {
      "channel": 4,
      "note": 57,
      "start": 2.1057,
      "duration": 0.0161,
      "velocity": 120,
      "chip": "ym2612"
    },
    {
      "channel": 3,
      "note": 64,
      "start": 2.1068,
      "duration": 0.0161,
      "velocity": 120,
      "chip": "ym2612"
    },
    {
      "channel": 2,
      "note": 52,
      "start": 2.1079,
      "duration": 0.0161,
      "velocity": 100,
      "chip": "ym2612"
    },
    {
      "channel": 0,
      "note": 63,
      "start": 2.1206,
      "duration": 0.0153,
      "velocity": 1,
      "chip": "ym2612"
    },
    {
      "channel": 4,
      "note": 57,
      "start": 2.1217,
      "duration": 0.0153,
      "velocity": 120,
      "chip": "ym2612"
    },
    {
      "channel": 3,
      "note": 64,
      "start": 2.1229,
      "duration": 0.0153,
      "velocity": 120,
      "chip": "ym2612"
    },
    {
      "channel": 2,
      "note": 52,
      "start": 2.124,
      "duration": 0.0153,
      "velocity": 100,
      "chip": "ym2612"
    },
    {
      "channel": 4,
      "note": 57,
      "start": 2.137,
      "duration": 0.0153,
      "velocity": 120,
      "chip": "ym2612"
    },
    {
      "channel": 3,
      "note": 64,
      "start": 2.1382,
      "duration": 0.0153,
      "velocity": 120,
      "chip": "ym2612"
    },
    {
      "channel": 2,
      "note": 52,
      "start": 2.1393,
      "duration": 0.0153,
      "velocity": 100,
      "chip": "ym2612"
    },
    {
      "channel": 4,
      "note": 57,
      "start": 2.1523,
      "duration": 0.0195,
      "velocity": 120,
      "chip": "ym2612"
    },
    {
      "channel": 3,
      "note": 64,
      "start": 2.1534,
      "duration": 0.0195,
      "velocity": 120,
      "chip": "ym2612"
    },
    {
      "channel": 2,
      "note": 52,
      "start": 2.1546,
      "duration": 0.0198,
      "velocity": 100,
      "chip": "ym2612"
    },
    {
      "channel": 0,
      "note": 36,
      "start": 2.1707,
      "duration": 0.0144,
      "velocity": 115,
      "chip": "ym2612"
    },
    {
      "channel": 4,
      "note": 57,
      "start": 2.1718,
      "duration": 0.0144,
      "velocity": 120,
      "chip": "ym2612"
    },
    {
      "channel": 3,
      "note": 64,
      "start": 2.173,
      "duration": 0.0144,
      "velocity": 120,
      "chip": "ym2612"
    },
    {
      "channel": 2,
      "note": 52,
      "start": 2.1744,
      "duration": 0.0141,
      "velocity": 100,
      "chip": "ym2612"
    },
    {
      "channel": 0,
      "note": 36,
      "start": 2.1851,
      "duration": 0.016,
      "velocity": 115,
      "chip": "ym2612"
    },
    {
      "channel": 4,
      "note": 57,
      "start": 2.1862,
      "duration": 0.016,
      "velocity": 120,
      "chip": "ym2612"
    },
    {
      "channel": 3,
      "note": 64,
      "start": 2.1873,
      "duration": 0.016,
      "velocity": 120,
      "chip": "ym2612"
    },
    {
      "channel": 2,
      "note": 52,
      "start": 2.1885,
      "duration": 0.016,
      "velocity": 100,
      "chip": "ym2612"
    },
    {
      "channel": 0,
      "note": 37,
      "start": 2.2011,
      "duration": 0.0161,
      "velocity": 115,
      "chip": "ym2612"
    },
    {
      "channel": 4,
      "note": 57,
      "start": 2.2022,
      "duration": 0.0161,
      "velocity": 120,
      "chip": "ym2612"
    },
    {
      "channel": 3,
      "note": 64,
      "start": 2.2034,
      "duration": 0.0161,
      "velocity": 120,
      "chip": "ym2612"
    },
    {
      "channel": 2,
      "note": 52,
      "start": 2.2045,
      "duration": 0.0161,
      "velocity": 100,
      "chip": "ym2612"
    },
    {
      "channel": 0,
      "note": 37,
      "start": 2.2172,
      "duration": 0.0162,
      "velocity": 115,
      "chip": "ym2612"
    },
    {
      "channel": 4,
      "note": 57,
      "start": 2.2183,
      "duration": 0.0161,
      "velocity": 120,
      "chip": "ym2612"
    },
    {
      "channel": 3,
      "note": 64,
      "start": 2.2195,
      "duration": 0.0162,
      "velocity": 120,
      "chip": "ym2612"
    },
    {
      "channel": 2,
      "note": 52,
      "start": 2.2206,
      "duration": 0.0161,
      "velocity": 100,
      "chip": "ym2612"
    },
    {
      "channel": 0,
      "note": 38,
      "start": 2.2333,
      "duration": 0.0161,
      "velocity": 115,
      "chip": "ym2612"
    },
    {
      "channel": 4,
      "note": 57,
      "start": 2.2345,
      "duration": 0.0161,
      "velocity": 120,
      "chip": "ym2612"
    },
    {
      "channel": 3,
      "note": 64,
      "start": 2.2356,
      "duration": 0.0161,
      "velocity": 120,
      "chip": "ym2612"
    },
    {
      "channel": 2,
      "note": 52,
      "start": 2.2367,
      "duration": 0.0161,
      "velocity": 100,
      "chip": "ym2612"
    },
    {
      "channel": 0,
      "note": 38,
      "start": 2.2494,
      "duration": 0.0161,
      "velocity": 115,
      "chip": "ym2612"
    },
    {
      "channel": 4,
      "note": 57,
      "start": 2.2506,
      "duration": 0.0161,
      "velocity": 120,
      "chip": "ym2612"
    },
    {
      "channel": 3,
      "note": 64,
      "start": 2.2517,
      "duration": 0.0161,
      "velocity": 120,
      "chip": "ym2612"
    },
    {
      "channel": 2,
      "note": 52,
      "start": 2.2528,
      "duration": 0.0161,
      "velocity": 100,
      "chip": "ym2612"
    },
    {
      "channel": 0,
      "note": 39,
      "start": 2.2655,
      "duration": 0.0161,
      "velocity": 115,
      "chip": "ym2612"
    },
    {
      "channel": 4,
      "note": 57,
      "start": 2.2667,
      "duration": 0.0161,
      "velocity": 120,
      "chip": "ym2612"
    },
    {
      "channel": 3,
      "note": 64,
      "start": 2.2678,
      "duration": 0.0161,
      "velocity": 120,
      "chip": "ym2612"
    },
    {
      "channel": 2,
      "note": 52,
      "start": 2.2689,
      "duration": 0.0162,
      "velocity": 100,
      "chip": "ym2612"
    },
    {
      "channel": 0,
      "note": 39,
      "start": 2.2816,
      "duration": 0.0171,
      "velocity": 115,
      "chip": "ym2612"
    },
    {
      "channel": 4,
      "note": 57,
      "start": 2.2828,
      "duration": 0.0171,
      "velocity": 120,
      "chip": "ym2612"
    },
    {
      "channel": 3,
      "note": 64,
      "start": 2.2839,
      "duration": 0.0171,
      "velocity": 120,
      "chip": "ym2612"
    },
    {
      "channel": 2,
      "note": 52,
      "start": 2.2851,
      "duration": 0.0171,
      "velocity": 100,
      "chip": "ym2612"
    },
    {
      "channel": 0,
      "note": 40,
      "start": 2.2987,
      "duration": 0.0167,
      "velocity": 115,
      "chip": "ym2612"
    },
    {
      "channel": 4,
      "note": 57,
      "start": 2.2999,
      "duration": 0.0167,
      "velocity": 120,
      "chip": "ym2612"
    },
    {
      "channel": 3,
      "note": 64,
      "start": 2.301,
      "duration": 0.0167,
      "velocity": 120,
      "chip": "ym2612"
    },
    {
      "channel": 2,
      "note": 52,
      "start": 2.3021,
      "duration": 0.0167,
      "velocity": 100,
      "chip": "ym2612"
    },
    {
      "channel": 0,
      "note": 40,
      "start": 2.3154,
      "duration": 0.0163,
      "velocity": 115,
      "chip": "ym2612"
    },
    {
      "channel": 4,
      "note": 57,
      "start": 2.3165,
      "duration": 0.0163,
      "velocity": 120,
      "chip": "ym2612"
    },
    {
      "channel": 3,
      "note": 64,
      "start": 2.3177,
      "duration": 0.0163,
      "velocity": 120,
      "chip": "ym2612"
    },
    {
      "channel": 2,
      "note": 52,
      "start": 2.3188,
      "duration": 0.0163,
      "velocity": 100,
      "chip": "ym2612"
    },
    {
      "channel": 0,
      "note": 40,
      "start": 2.3317,
      "duration": 0.0146,
      "velocity": 115,
      "chip": "ym2612"
    },
    {
      "channel": 4,
      "note": 57,
      "start": 2.3328,
      "duration": 0.0146,
      "velocity": 120,
      "chip": "ym2612"
    },
    {
      "channel": 3,
      "note": 64,
      "start": 2.334,
      "duration": 0.0146,
      "velocity": 120,
      "chip": "ym2612"
    },
    {
      "channel": 2,
      "note": 52,
      "start": 2.3351,
      "duration": 0.0146,
      "velocity": 100,
      "chip": "ym2612"
    },
    {
      "channel": 0,
      "note": 41,
      "start": 2.3463,
      "duration": 0.0203,
      "velocity": 115,
      "chip": "ym2612"
    },
    {
      "channel": 4,
      "note": 57,
      "start": 2.3475,
      "duration": 0.0203,
      "velocity": 120,
      "chip": "ym2612"
    },
    {
      "channel": 3,
      "note": 64,
      "start": 2.3486,
      "duration": 0.0204,
      "velocity": 120,
      "chip": "ym2612"
    },
    {
      "channel": 2,
      "note": 52,
      "start": 2.3497,
      "duration": 0.0207,
      "velocity": 100,
      "chip": "ym2612"
    },
    {
      "channel": 0,
      "note": 36,
      "start": 2.3667,
      "duration": 0.0144,
      "velocity": 115,
      "chip": "ym2612"
    },
    {
      "channel": 4,
      "note": 57,
      "start": 2.3678,
      "duration": 0.0144,
      "velocity": 120,
      "chip": "ym2612"
    },
    {
      "channel": 3,
      "note": 64,
      "start": 2.369,
      "duration": 0.0144,
      "velocity": 120,
      "chip": "ym2612"
    },
    {
      "channel": 2,
      "note": 52,
      "start": 2.3704,
      "duration": 0.0141,
      "velocity": 100,
      "chip": "ym2612"
    },
    {
      "channel": 0,
      "note": 36,
      "start": 2.381,
      "duration": 0.0156,
      "velocity": 115,
      "chip": "ym2612"
    },
    {
      "channel": 4,
      "note": 57,
      "start": 2.3822,
      "duration": 0.0157,
      "velocity": 120,
      "chip": "ym2612"
    },
    {
      "channel": 3,
      "note": 64,
      "start": 2.3833,
      "duration": 0.0156,
      "velocity": 120,
      "chip": "ym2612"
    },
    {
      "channel": 2,
      "note": 52,
      "start": 2.3845,
      "duration": 0.0157,
      "velocity": 100,
      "chip": "ym2612"
    },
    {
      "channel": 0,
      "note": 37,
      "start": 2.3967,
      "duration": 0.0137,
      "velocity": 115,
      "chip": "ym2612"
    },
    {
      "channel": 4,
      "note": 57,
      "start": 2.3978,
      "duration": 0.0141,
      "velocity": 120,
      "chip": "ym2612"
    },
    {
      "channel": 3,
      "note": 64,
      "start": 2.399,
      "duration": 0.0141,
      "velocity": 120,
      "chip": "ym2612"
    },
    {
      "channel": 2,
      "note": 52,
      "start": 2.4001,
      "duration": 0.014,
      "velocity": 100,
      "chip": "ym2612"
    },
    {
      "channel": 0,
      "note": 37,
      "start": 2.4104,
      "duration": 0.0161,
      "velocity": 115,
      "chip": "ym2612"
    },
    {
      "channel": 4,
      "note": 57,
      "start": 2.4119,
      "duration": 0.0185,
      "velocity": 120,
      "chip": "ym2612"
    },
    {
      "channel": 3,
      "note": 64,
      "start": 2.413,
      "duration": 0.0185,
      "velocity": 120,
      "chip": "ym2612"
    },
    {
      "channel": 2,
      "note": 52,
      "start": 2.4141,
      "duration": 0.0186,
      "velocity": 100,
      "chip": "ym2612"
    },
    {
      "channel": 0,
      "note": 38,
      "start": 2.4265,
      "duration": 0.0161,
      "velocity": 115,
      "chip": "ym2612"
    },
    {
      "channel": 4,
      "note": 57,
      "start": 2.4304,
      "duration": 0.0134,
      "velocity": 120,
      "chip": "ym2612"
    },
    {
      "channel": 3,
      "note": 64,
      "start": 2.4315,
      "duration": 0.0161,
      "velocity": 120,
      "chip": "ym2612"
    },
    {
      "channel": 2,
      "note": 52,
      "start": 2.4327,
      "duration": 0.0161,
      "velocity": 100,
      "chip": "ym2612"
    },
    {
      "channel": 0,
      "note": 38,
      "start": 2.4426,
      "duration": 0.0161,
      "velocity": 115,
      "chip": "ym2612"
    },
    {
      "channel": 4,
      "note": 57,
      "start": 2.4438,
      "duration": 0.0161,
      "velocity": 120,
      "chip": "ym2612"
    },
    {
      "channel": 3,
      "note": 64,
      "start": 2.4476,
      "duration": 0.0158,
      "velocity": 120,
      "chip": "ym2612"
    },
    {
      "channel": 2,
      "note": 52,
      "start": 2.4488,
      "duration": 0.0157,
      "velocity": 100,
      "chip": "ym2612"
    },
    {
      "channel": 0,
      "note": 39,
      "start": 2.4587,
      "duration": 0.0161,
      "velocity": 115,
      "chip": "ym2612"
    },
    {
      "channel": 4,
      "note": 57,
      "start": 2.4599,
      "duration": 0.0161,
      "velocity": 120,
      "chip": "ym2612"
    },
    {
      "channel": 3,
      "note": 64,
      "start": 2.4634,
      "duration": 0.0137,
      "velocity": 120,
      "chip": "ym2612"
    },
    {
      "channel": 2,
      "note": 52,
      "start": 2.4645,
      "duration": 0.0141,
      "velocity": 100,
      "chip": "ym2612"
    },
    {
      "channel": 0,
      "note": 39,
      "start": 2.4748,
      "duration": 0.0161,
      "velocity": 115,
      "chip": "ym2612"
    },
    {
      "channel": 4,
      "note": 57,
      "start": 2.476,
      "duration": 0.0161,
      "velocity": 120,
      "chip": "ym2612"
    },
    {
      "channel": 3,
      "note": 64,
      "start": 2.4771,
      "duration": 0.0161,
      "velocity": 120,
      "chip": "ym2612"
    },
    {
      "channel": 2,
      "note": 52,
      "start": 2.4786,
      "duration": 0.0185,
      "velocity": 100,
      "chip": "ym2612"
    },
    {
      "channel": 0,
      "note": 40,
      "start": 2.4909,
      "duration": 0.0161,
      "velocity": 115,
      "chip": "ym2612"
    },
    {
      "channel": 4,
      "note": 57,
      "start": 2.492,
      "duration": 0.0161,
      "velocity": 120,
      "chip": "ym2612"
    },
    {
      "channel": 3,
      "note": 64,
      "start": 2.4932,
      "duration": 0.0161,
      "velocity": 120,
      "chip": "ym2612"
    },
    {
      "channel": 2,
      "note": 52,
      "start": 2.4971,
      "duration": 0.0134,
      "velocity": 100,
      "chip": "ym2612"
    },
    {
      "channel": 0,
      "note": 40,
      "start": 2.507,
      "duration": 0.0161,
      "velocity": 115,
      "chip": "ym2612"
    },
    {
      "channel": 4,
      "note": 57,
      "start": 2.5081,
      "duration": 0.0162,
      "velocity": 120,
      "chip": "ym2612"
    },
    {
      "channel": 3,
      "note": 64,
      "start": 2.5093,
      "duration": 0.0161,
      "velocity": 120,
      "chip": "ym2612"
    },
    {
      "channel": 2,
      "note": 52,
      "start": 2.5104,
      "duration": 0.0161,
      "velocity": 100,
      "chip": "ym2612"
    },
    {
      "channel": 0,
      "note": 40,
      "start": 2.5232,
      "duration": 0.016,
      "velocity": 115,
      "chip": "ym2612"
    },
    {
      "channel": 4,
      "note": 57,
      "start": 2.5243,
      "duration": 0.0161,
      "velocity": 120,
      "chip": "ym2612"
    },
    {
      "channel": 3,
      "note": 64,
      "start": 2.5254,
      "duration": 0.016,
      "velocity": 120,
      "chip": "ym2612"
    },
    {
      "channel": 2,
      "note": 52,
      "start": 2.5265,
      "duration": 0.0161,
      "velocity": 100,
      "chip": "ym2612"
    },
    {
      "channel": 0,
      "note": 41,
      "start": 2.5392,
      "duration": 0.0179,
      "velocity": 115,
      "chip": "ym2612"
    },
    {
      "channel": 4,
      "note": 57,
      "start": 2.5404,
      "duration": 0.0179,
      "velocity": 120,
      "chip": "ym2612"
    },
    {
      "channel": 3,
      "note": 64,
      "start": 2.5415,
      "duration": 0.0179,
      "velocity": 120,
      "chip": "ym2612"
    },
    {
      "channel": 2,
      "note": 52,
      "start": 2.5426,
      "duration": 0.0209,
      "velocity": 100,
      "chip": "ym2612"
    },
    {
      "channel": 0,
      "note": 36,
      "start": 2.5571,
      "duration": 0.0144,
      "velocity": 115,
      "chip": "ym2612"
    },
    {
      "channel": 4,
      "note": 57,
      "start": 2.5583,
      "duration": 0.0144,
      "velocity": 120,
      "chip": "ym2612"
    },
    {
      "channel": 3,
      "note": 64,
      "start": 2.5594,
      "duration": 0.0144,
      "velocity": 120,
      "chip": "ym2612"
    },
    {
      "channel": 2,
      "note": 52,
      "start": 2.5636,
      "duration": 0.0113,
      "velocity": 100,
      "chip": "ym2612"
    },
    {
      "channel": 0,
      "note": 36,
      "start": 2.5715,
      "duration": 0.016,
      "velocity": 115,
      "chip": "ym2612"
    },
    {
      "channel": 4,
      "note": 57,
      "start": 2.5727,
      "duration": 0.016,
      "velocity": 120,
      "chip": "ym2612"
    },
    {
      "channel": 3,
      "note": 64,
      "start": 2.5738,
      "duration": 0.016,
      "velocity": 120,
      "chip": "ym2612"
    },
    {
      "channel": 2,
      "note": 52,
      "start": 2.5749,
      "duration": 0.016,
      "velocity": 100,
      "chip": "ym2612"
    },
    {
      "channel": 0,
      "note": 37,
      "start": 2.5875,
      "duration": 0.0161,
      "velocity": 115,
      "chip": "ym2612"
    },
    {
      "channel": 4,
      "note": 57,
      "start": 2.5887,
      "duration": 0.0161,
      "velocity": 120,
      "chip": "ym2612"
    },
    {
      "channel": 3,
      "note": 64,
      "start": 2.5898,
      "duration": 0.0161,
      "velocity": 120,
      "chip": "ym2612"
    },
    {
      "channel": 2,
      "note": 52,
      "start": 2.591,
      "duration": 0.0161,
      "velocity": 100,
      "chip": "ym2612"
    },
    {
      "channel": 0,
      "note": 37,
      "start": 2.6036,
      "duration": 0.0161,
      "velocity": 115,
      "chip": "ym2612"
    },
    {
      "channel": 4,
      "note": 57,
      "start": 2.6048,
      "duration": 0.0161,
      "velocity": 120,
      "chip": "ym2612"
    },
    {
      "channel": 3,
      "note": 64,
      "start": 2.6059,
      "duration": 0.0161,
      "velocity": 120,
      "chip": "ym2612"
    },
    {
      "channel": 2,
      "note": 52,
      "start": 2.6071,
      "duration": 0.0161,
      "velocity": 100,
      "chip": "ym2612"
    },
    {
      "channel": 0,
      "note": 38,
      "start": 2.6197,
      "duration": 0.0161,
      "velocity": 115,
      "chip": "ym2612"
    },
    {
      "channel": 4,
      "note": 57,
      "start": 2.6209,
      "duration": 0.0161,
      "velocity": 120,
      "chip": "ym2612"
    },
    {
      "channel": 3,
      "note": 64,
      "start": 2.622,
      "duration": 0.0161,
      "velocity": 120,
      "chip": "ym2612"
    },
    {
      "channel": 2,
      "note": 52,
      "start": 2.6232,
      "duration": 0.0161,
      "velocity": 100,
      "chip": "ym2612"
    },
    {
      "channel": 0,
      "note": 38,
      "start": 2.6358,
      "duration": 0.0161,
      "velocity": 115,
      "chip": "ym2612"
    },
    {
      "channel": 4,
      "note": 57,
      "start": 2.637,
      "duration": 0.0161,
      "velocity": 120,
      "chip": "ym2612"
    },
    {
      "channel": 3,
      "note": 64,
      "start": 2.6381,
      "duration": 0.0161,
      "velocity": 120,
      "chip": "ym2612"
    },
    {
      "channel": 2,
      "note": 52,
      "start": 2.6393,
      "duration": 0.0161,
      "velocity": 100,
      "chip": "ym2612"
    },
    {
      "channel": 0,
      "note": 39,
      "start": 2.6519,
      "duration": 0.0161,
      "velocity": 115,
      "chip": "ym2612"
    },
    {
      "channel": 4,
      "note": 57,
      "start": 2.6531,
      "duration": 0.0161,
      "velocity": 120,
      "chip": "ym2612"
    },
    {
      "channel": 3,
      "note": 64,
      "start": 2.6542,
      "duration": 0.0161,
      "velocity": 120,
      "chip": "ym2612"
    },
    {
      "channel": 2,
      "note": 52,
      "start": 2.6554,
      "duration": 0.0161,
      "velocity": 100,
      "chip": "ym2612"
    },
    {
      "channel": 0,
      "note": 39,
      "start": 2.668,
      "duration": 0.0161,
      "velocity": 115,
      "chip": "ym2612"
    },
    {
      "channel": 4,
      "note": 57,
      "start": 2.6692,
      "duration": 0.0161,
      "velocity": 120,
      "chip": "ym2612"
    },
    {
      "channel": 3,
      "note": 64,
      "start": 2.6703,
      "duration": 0.0161,
      "velocity": 120,
      "chip": "ym2612"
    },
    {
      "channel": 2,
      "note": 52,
      "start": 2.6714,
      "duration": 0.0161,
      "velocity": 100,
      "chip": "ym2612"
    },
    {
      "channel": 0,
      "note": 40,
      "start": 2.6841,
      "duration": 0.0161,
      "velocity": 115,
      "chip": "ym2612"
    },
    {
      "channel": 4,
      "note": 57,
      "start": 2.6853,
      "duration": 0.0161,
      "velocity": 120,
      "chip": "ym2612"
    },
    {
      "channel": 3,
      "note": 64,
      "start": 2.6864,
      "duration": 0.0161,
      "velocity": 120,
      "chip": "ym2612"
    },
    {
      "channel": 2,
      "note": 52,
      "start": 2.6875,
      "duration": 0.0161,
      "velocity": 100,
      "chip": "ym2612"
    },
    {
      "channel": 0,
      "note": 40,
      "start": 2.7002,
      "duration": 0.0161,
      "velocity": 115,
      "chip": "ym2612"
    },
    {
      "channel": 4,
      "note": 57,
      "start": 2.7014,
      "duration": 0.0161,
      "velocity": 120,
      "chip": "ym2612"
    },
    {
      "channel": 3,
      "note": 64,
      "start": 2.7025,
      "duration": 0.0161,
      "velocity": 120,
      "chip": "ym2612"
    },
    {
      "channel": 2,
      "note": 52,
      "start": 2.7036,
      "duration": 0.0161,
      "velocity": 100,
      "chip": "ym2612"
    },
    {
      "channel": 0,
      "note": 40,
      "start": 2.7163,
      "duration": 0.0161,
      "velocity": 115,
      "chip": "ym2612"
    },
    {
      "channel": 4,
      "note": 57,
      "start": 2.7175,
      "duration": 0.0161,
      "velocity": 120,
      "chip": "ym2612"
    },
    {
      "channel": 3,
      "note": 64,
      "start": 2.7186,
      "duration": 0.0161,
      "velocity": 120,
      "chip": "ym2612"
    },
    {
      "channel": 2,
      "note": 52,
      "start": 2.7197,
      "duration": 0.0161,
      "velocity": 100,
      "chip": "ym2612"
    },
    {
      "channel": 0,
      "note": 41,
      "start": 2.7324,
      "duration": 0.0179,
      "velocity": 124,
      "chip": "ym2612"
    },
    {
      "channel": 4,
      "note": 57,
      "start": 2.7336,
      "duration": 0.0179,
      "velocity": 120,
      "chip": "ym2612"
    },
    {
      "channel": 3,
      "note": 64,
      "start": 2.7347,
      "duration": 0.0179,
      "velocity": 120,
      "chip": "ym2612"
    },
    {
      "channel": 2,
      "note": 52,
      "start": 2.7359,
      "duration": 0.0181,
      "velocity": 100,
      "chip": "ym2612"
    },
    {
      "channel": 0,
      "note": 84,
      "start": 2.7503,
      "duration": 0.0151,
      "velocity": 124,
      "chip": "ym2612"
    },
    {
      "channel": 4,
      "note": 57,
      "start": 2.7515,
      "duration": 0.0151,
      "velocity": 120,
      "chip": "ym2612"
    },
    {
      "channel": 3,
      "note": 64,
      "start": 2.7526,
      "duration": 0.0151,
      "velocity": 120,
      "chip": "ym2612"
    },
    {
      "channel": 2,
      "note": 52,
      "start": 2.7541,
      "duration": 0.0148,
      "velocity": 100,
      "chip": "ym2612"
    },
    {
      "channel": 0,
      "note": 82,
      "start": 2.7654,
      "duration": 0.0167,
      "velocity": 124,
      "chip": "ym2612"
    },
    {
      "channel": 4,
      "note": 57,
      "start": 2.7666,
      "duration": 0.0166,
      "velocity": 120,
      "chip": "ym2612"
    },
    {
      "channel": 3,
      "note": 64,
      "start": 2.7677,
      "duration": 0.0167,
      "velocity": 120,
      "chip": "ym2612"
    },
    {
      "channel": 2,
      "note": 52,
      "start": 2.7689,
      "duration": 0.0166,
      "velocity": 100,
      "chip": "ym2612"
    },
    {
      "channel": 0,
      "note": 80,
      "start": 2.7821,
      "duration": 0.0163,
      "velocity": 124,
      "chip": "ym2612"
    },
    {
      "channel": 4,
      "note": 57,
      "start": 2.7832,
      "duration": 0.0163,
      "velocity": 120,
      "chip": "ym2612"
    },
    {
      "channel": 3,
      "note": 64,
      "start": 2.7844,
      "duration": 0.0163,
      "velocity": 120,
      "chip": "ym2612"
    },
    {
      "channel": 2,
      "note": 52,
      "start": 2.7854,
      "duration": 0.0163,
      "velocity": 100,
      "chip": "ym2612"
    },
    {
      "channel": 0,
      "note": 77,
      "start": 2.7983,
      "duration": 0.0147,
      "velocity": 124,
      "chip": "ym2612"
    },
    {
      "channel": 4,
      "note": 57,
      "start": 2.7995,
      "duration": 0.0147,
      "velocity": 120,
      "chip": "ym2612"
    },
    {
      "channel": 3,
      "note": 64,
      "start": 2.8006,
      "duration": 0.0147,
      "velocity": 120,
      "chip": "ym2612"
    },
    {
      "channel": 2,
      "note": 52,
      "start": 2.8018,
      "duration": 0.0147,
      "velocity": 100,
      "chip": "ym2612"
    },
    {
      "channel": 0,
      "note": 75,
      "start": 2.813,
      "duration": 0.0188,
      "velocity": 124,
      "chip": "ym2612"
    },
    {
      "channel": 4,
      "note": 57,
      "start": 2.8142,
      "duration": 0.0188,
      "velocity": 120,
      "chip": "ym2612"
    },
    {
      "channel": 3,
      "note": 64,
      "start": 2.8153,
      "duration": 0.0188,
      "velocity": 120,
      "chip": "ym2612"
    },
    {
      "channel": 2,
      "note": 52,
      "start": 2.8165,
      "duration": 0.0187,
      "velocity": 100,
      "chip": "ym2612"
    },
    {
      "channel": 0,
      "note": 72,
      "start": 2.8318,
      "duration": 0.0161,
      "velocity": 124,
      "chip": "ym2612"
    },
    {
      "channel": 4,
      "note": 57,
      "start": 2.8329,
      "duration": 0.0161,
      "velocity": 120,
      "chip": "ym2612"
    },
    {
      "channel": 3,
      "note": 64,
      "start": 2.8341,
      "duration": 0.0161,
      "velocity": 120,
      "chip": "ym2612"
    },
    {
      "channel": 2,
      "note": 52,
      "start": 2.8352,
      "duration": 0.0162,
      "velocity": 100,
      "chip": "ym2612"
    },
    {
      "channel": 0,
      "note": 70,
      "start": 2.8479,
      "duration": 0.0157,
      "velocity": 124,
      "chip": "ym2612"
    },
    {
      "channel": 4,
      "note": 57,
      "start": 2.849,
      "duration": 0.0157,
      "velocity": 120,
      "chip": "ym2612"
    },
    {
      "channel": 3,
      "note": 64,
      "start": 2.8502,
      "duration": 0.0157,
      "velocity": 120,
      "chip": "ym2612"
    },
    {
      "channel": 2,
      "note": 52,
      "start": 2.8513,
      "duration": 0.0157,
      "velocity": 100,
      "chip": "ym2612"
    },
    {
      "channel": 0,
      "note": 68,
      "start": 2.8636,
      "duration": 0.0139,
      "velocity": 124,
      "chip": "ym2612"
    },
    {
      "channel": 4,
      "note": 57,
      "start": 2.8648,
      "duration": 0.0141,
      "velocity": 120,
      "chip": "ym2612"
    },
    {
      "channel": 3,
      "note": 64,
      "start": 2.8659,
      "duration": 0.0141,
      "velocity": 120,
      "chip": "ym2612"
    },
    {
      "channel": 2,
      "note": 52,
      "start": 2.8671,
      "duration": 0.0141,
      "velocity": 100,
      "chip": "ym2612"
    },
    {
      "channel": 0,
      "note": 65,
      "start": 2.8775,
      "duration": 0.016,
      "velocity": 124,
      "chip": "ym2612"
    },
    {
      "channel": 4,
      "note": 57,
      "start": 2.8788,
      "duration": 0.0185,
      "velocity": 120,
      "chip": "ym2612"
    },
    {
      "channel": 3,
      "note": 64,
      "start": 2.88,
      "duration": 0.0185,
      "velocity": 120,
      "chip": "ym2612"
    },
    {
      "channel": 2,
      "note": 52,
      "start": 2.8811,
      "duration": 0.0185,
      "velocity": 100,
      "chip": "ym2612"
    },
    {
      "channel": 0,
      "note": 63,
      "start": 2.8934,
      "duration": 0.0153,
      "velocity": 1,
      "chip": "ym2612"
    },
    {
      "channel": 4,
      "note": 57,
      "start": 2.8973,
      "duration": 0.0126,
      "velocity": 120,
      "chip": "ym2612"
    },
    {
      "channel": 3,
      "note": 64,
      "start": 2.8985,
      "duration": 0.0153,
      "velocity": 120,
      "chip": "ym2612"
    },
    {
      "channel": 2,
      "note": 52,
      "start": 2.8996,
      "duration": 0.0153,
      "velocity": 100,
      "chip": "ym2612"
    },
    {
      "channel": 4,
      "note": 57,
      "start": 2.9099,
      "duration": 0.0152,
      "velocity": 120,
      "chip": "ym2612"
    },
    {
      "channel": 3,
      "note": 64,
      "start": 2.9138,
      "duration": 0.0125,
      "velocity": 120,
      "chip": "ym2612"
    },
    {
      "channel": 2,
      "note": 52,
      "start": 2.9149,
      "duration": 0.0149,
      "velocity": 100,
      "chip": "ym2612"
    },
    {
      "channel": 4,
      "note": 57,
      "start": 2.9251,
      "duration": 0.0162,
      "velocity": 120,
      "chip": "ym2612"
    },
    {
      "channel": 3,
      "note": 64,
      "start": 2.9263,
      "duration": 0.0161,
      "velocity": 120,
      "chip": "ym2612"
    },
    {
      "channel": 2,
      "note": 52,
      "start": 2.9298,
      "duration": 0.0141,
      "velocity": 100,
      "chip": "ym2612"
    },
    {
      "channel": 4,
      "note": 57,
      "start": 2.9413,
      "duration": 0.0161,
      "velocity": 120,
      "chip": "ym2612"
    },
    {
      "channel": 3,
      "note": 64,
      "start": 2.9424,
      "duration": 0.0161,
      "velocity": 120,
      "chip": "ym2612"
    },
    {
      "channel": 2,
      "note": 52,
      "start": 2.9438,
      "duration": 0.0158,
      "velocity": 100,
      "chip": "ym2612"
    },
    {
      "channel": 4,
      "note": 57,
      "start": 2.9574,
      "duration": 0.0161,
      "velocity": 120,
      "chip": "ym2612"
    },
    {
      "channel": 3,
      "note": 64,
      "start": 2.9585,
      "duration": 0.0162,
      "velocity": 120,
      "chip": "ym2612"
    },
    {
      "channel": 2,
      "note": 52,
      "start": 2.9597,
      "duration": 0.016,
      "velocity": 100,
      "chip": "ym2612"
    },
    {
      "channel": 4,
      "note": 57,
      "start": 2.9735,
      "duration": 0.0161,
      "velocity": 120,
      "chip": "ym2612"
    },
    {
      "channel": 3,
      "note": 64,
      "start": 2.9746,
      "duration": 0.0161,
      "velocity": 120,
      "chip": "ym2612"
    },
    {
      "channel": 2,
      "note": 52,
      "start": 2.9757,
      "duration": 0.0161,
      "velocity": 100,
      "chip": "ym2612"
    },
    {
      "channel": 4,
      "note": 57,
      "start": 2.9896,
      "duration": 0.0161,
      "velocity": 120,
      "chip": "ym2612"
    },
    {
      "channel": 3,
      "note": 64,
      "start": 2.9907,
      "duration": 0.0161,
      "velocity": 120,
      "chip": "ym2612"
    },
    {
      "channel": 2,
      "note": 52,
      "start": 2.9918,
      "duration": 0.0161,
      "velocity": 100,
      "chip": "ym2612"
    },
    {
      "channel": 4,
      "note": 57,
      "start": 3.0057,
      "duration": 0.0161,
      "velocity": 120,
      "chip": "ym2612"
    },
    {
      "channel": 3,
      "note": 64,
      "start": 3.0068,
      "duration": 0.0161,
      "velocity": 120,
      "chip": "ym2612"
    },
    {
      "channel": 2,
      "note": 52,
      "start": 3.0079,
      "duration": 0.0161,
      "velocity": 100,
      "chip": "ym2612"
    },
    {
      "channel": 4,
      "note": 57,
      "start": 3.0217,
      "duration": 0.0161,
      "velocity": 120,
      "chip": "ym2612"
    },
    {
      "channel": 3,
      "note": 64,
      "start": 3.0229,
      "duration": 0.0161,
      "velocity": 120,
      "chip": "ym2612"
    },
    {
      "channel": 2,
      "note": 52,
      "start": 3.024,
      "duration": 0.0161,
      "velocity": 100,
      "chip": "ym2612"
    },
    {
      "channel": 4,
      "note": 57,
      "start": 3.0378,
      "duration": 0.0161,
      "velocity": 120,
      "chip": "ym2612"
    },
    {
      "channel": 3,
      "note": 64,
      "start": 3.039,
      "duration": 0.0161,
      "velocity": 120,
      "chip": "ym2612"
    },
    {
      "channel": 2,
      "note": 52,
      "start": 3.0401,
      "duration": 0.0161,
      "velocity": 100,
      "chip": "ym2612"
    },
    {
      "channel": 4,
      "note": 57,
      "start": 3.0539,
      "duration": 0.0161,
      "velocity": 120,
      "chip": "ym2612"
    },
    {
      "channel": 3,
      "note": 64,
      "start": 3.0551,
      "duration": 0.0161,
      "velocity": 120,
      "chip": "ym2612"
    },
    {
      "channel": 2,
      "note": 52,
      "start": 3.0562,
      "duration": 0.0161,
      "velocity": 100,
      "chip": "ym2612"
    },
    {
      "channel": 4,
      "note": 57,
      "start": 3.07,
      "duration": 0.0161,
      "velocity": 120,
      "chip": "ym2612"
    },
    {
      "channel": 3,
      "note": 64,
      "start": 3.0712,
      "duration": 0.0161,
      "velocity": 120,
      "chip": "ym2612"
    },
    {
      "channel": 2,
      "note": 52,
      "start": 3.0723,
      "duration": 0.0161,
      "velocity": 100,
      "chip": "ym2612"
    },
    {
      "channel": 4,
      "note": 57,
      "start": 3.0862,
      "duration": 0.0161,
      "velocity": 120,
      "chip": "ym2612"
    },
    {
      "channel": 3,
      "note": 64,
      "start": 3.0873,
      "duration": 0.0161,
      "velocity": 120,
      "chip": "ym2612"
    },
    {
      "channel": 2,
      "note": 52,
      "start": 3.0884,
      "duration": 0.0161,
      "velocity": 100,
      "chip": "ym2612"
    },
    {
      "channel": 4,
      "note": 57,
      "start": 3.1023,
      "duration": 0.0161,
      "velocity": 120,
      "chip": "ym2612"
    },
    {
      "channel": 3,
      "note": 64,
      "start": 3.1034,
      "duration": 0.0161,
      "velocity": 120,
      "chip": "ym2612"
    },
    {
      "channel": 2,
      "note": 52,
      "start": 3.1045,
      "duration": 0.0161,
      "velocity": 100,
      "chip": "ym2612"
    },
    {
      "channel": 4,
      "note": 57,
      "start": 3.1184,
      "duration": 0.0197,
      "velocity": 120,
      "chip": "ym2612"
    },
    {
      "channel": 3,
      "note": 64,
      "start": 3.1195,
      "duration": 0.02,
      "velocity": 120,
      "chip": "ym2612"
    },
    {
      "channel": 2,
      "note": 52,
      "start": 3.1206,
      "duration": 0.0204,
      "velocity": 100,
      "chip": "ym2612"
    },
    {
      "channel": 0,
      "note": 36,
      "start": 3.1368,
      "duration": 0.0144,
      "velocity": 115,
      "chip": "ym2612"
    },
    {
      "channel": 4,
      "note": 57,
      "start": 3.1382,
      "duration": 0.0142,
      "velocity": 120,
      "chip": "ym2612"
    },
    {
      "channel": 3,
      "note": 64,
      "start": 3.1396,
      "duration": 0.0139,
      "velocity": 120,
      "chip": "ym2612"
    },
    {
      "channel": 2,
      "note": 52,
      "start": 3.141,
      "duration": 0.0137,
      "velocity": 100,
      "chip": "ym2612"
    },
    {
      "channel": 0,
      "note": 36,
      "start": 3.1511,
      "duration": 0.016,
      "velocity": 115,
      "chip": "ym2612"
    },
    {
      "channel": 4,
      "note": 57,
      "start": 3.1524,
      "duration": 0.016,
      "velocity": 120,
      "chip": "ym2612"
    },
    {
      "channel": 3,
      "note": 64,
      "start": 3.1535,
      "duration": 0.016,
      "velocity": 120,
      "chip": "ym2612"
    },
    {
      "channel": 2,
      "note": 52,
      "start": 3.1547,
      "duration": 0.0159,
      "velocity": 100,
      "chip": "ym2612"
    },
    {
      "channel": 0,
      "note": 37,
      "start": 3.1672,
      "duration": 0.0161,
      "velocity": 115,
      "chip": "ym2612"
    },
    {
      "channel": 4,
      "note": 57,
      "start": 3.1683,
      "duration": 0.0161,
      "velocity": 120,
      "chip": "ym2612"
    },
    {
      "channel": 3,
      "note": 64,
      "start": 3.1695,
      "duration": 0.0161,
      "velocity": 120,
      "chip": "ym2612"
    },
    {
      "channel": 2,
      "note": 52,
      "start": 3.1706,
      "duration": 0.0161,
      "velocity": 100,
      "chip": "ym2612"
    },
    {
      "channel": 0,
      "note": 37,
      "start": 3.1833,
      "duration": 0.0161,
      "velocity": 115,
      "chip": "ym2612"
    },
    {
      "channel": 4,
      "note": 57,
      "start": 3.1844,
      "duration": 0.0161,
      "velocity": 120,
      "chip": "ym2612"
    },
    {
      "channel": 3,
      "note": 64,
      "start": 3.1856,
      "duration": 0.0161,
      "velocity": 120,
      "chip": "ym2612"
    },
    {
      "channel": 2,
      "note": 52,
      "start": 3.1867,
      "duration": 0.0161,
      "velocity": 100,
      "chip": "ym2612"
    },
    {
      "channel": 0,
      "note": 38,
      "start": 3.1994,
      "duration": 0.0161,
      "velocity": 115,
      "chip": "ym2612"
    },
    {
      "channel": 4,
      "note": 57,
      "start": 3.2005,
      "duration": 0.0161,
      "velocity": 120,
      "chip": "ym2612"
    },
    {
      "channel": 3,
      "note": 64,
      "start": 3.2017,
      "duration": 0.0161,
      "velocity": 120,
      "chip": "ym2612"
    },
    {
      "channel": 2,
      "note": 52,
      "start": 3.2028,
      "duration": 0.0161,
      "velocity": 100,
      "chip": "ym2612"
    },
    {
      "channel": 0,
      "note": 38,
      "start": 3.2155,
      "duration": 0.0166,
      "velocity": 115,
      "chip": "ym2612"
    },
    {
      "channel": 4,
      "note": 57,
      "start": 3.2166,
      "duration": 0.0166,
      "velocity": 120,
      "chip": "ym2612"
    },
    {
      "channel": 3,
      "note": 64,
      "start": 3.2178,
      "duration": 0.0166,
      "velocity": 120,
      "chip": "ym2612"
    },
    {
      "channel": 2,
      "note": 52,
      "start": 3.2189,
      "duration": 0.0166,
      "velocity": 100,
      "chip": "ym2612"
    },
    {
      "channel": 0,
      "note": 39,
      "start": 3.2321,
      "duration": 0.0167,
      "velocity": 115,
      "chip": "ym2612"
    },
    {
      "channel": 4,
      "note": 57,
      "start": 3.2332,
      "duration": 0.0167,
      "velocity": 120,
      "chip": "ym2612"
    },
    {
      "channel": 3,
      "note": 64,
      "start": 3.2344,
      "duration": 0.0167,
      "velocity": 120,
      "chip": "ym2612"
    },
    {
      "channel": 2,
      "note": 52,
      "start": 3.2354,
      "duration": 0.0167,
      "velocity": 100,
      "chip": "ym2612"
    },
    {
      "channel": 0,
      "note": 39,
      "start": 3.2487,
      "duration": 0.0163,
      "velocity": 115,
      "chip": "ym2612"
    },
    {
      "channel": 4,
      "note": 57,
      "start": 3.2499,
      "duration": 0.0163,
      "velocity": 120,
      "chip": "ym2612"
    },
    {
      "channel": 3,
      "note": 64,
      "start": 3.251,
      "duration": 0.0163,
      "velocity": 120,
      "chip": "ym2612"
    },
    {
      "channel": 2,
      "note": 52,
      "start": 3.2521,
      "duration": 0.0163,
      "velocity": 100,
      "chip": "ym2612"
    },
    {
      "channel": 0,
      "note": 40,
      "start": 3.265,
      "duration": 0.0149,
      "velocity": 115,
      "chip": "ym2612"
    },
    {
      "channel": 4,
      "note": 57,
      "start": 3.2661,
      "duration": 0.0149,
      "velocity": 120,
      "chip": "ym2612"
    },
    {
      "channel": 3,
      "note": 64,
      "start": 3.2673,
      "duration": 0.0149,
      "velocity": 120,
      "chip": "ym2612"
    },
    {
      "channel": 2,
      "note": 52,
      "start": 3.2684,
      "duration": 0.0148,
      "velocity": 100,
      "chip": "ym2612"
    },
    {
      "channel": 0,
      "note": 40,
      "start": 3.2799,
      "duration": 0.0188,
      "velocity": 115,
      "chip": "ym2612"
    },
    {
      "channel": 4,
      "note": 57,
      "start": 3.281,
      "duration": 0.0188,
      "velocity": 120,
      "chip": "ym2612"
    },
    {
      "channel": 3,
      "note": 64,
      "start": 3.2822,
      "duration": 0.0188,
      "velocity": 120,
      "chip": "ym2612"
    },
    {
      "channel": 2,
      "note": 52,
      "start": 3.2833,
      "duration": 0.0188,
      "velocity": 100,
      "chip": "ym2612"
    },
    {
      "channel": 0,
      "note": 40,
      "start": 3.2987,
      "duration": 0.0161,
      "velocity": 115,
      "chip": "ym2612"
    },
    {
      "channel": 4,
      "note": 57,
      "start": 3.2999,
      "duration": 0.0161,
      "velocity": 120,
      "chip": "ym2612"
    },
    {
      "channel": 3,
      "note": 64,
      "start": 3.301,
      "duration": 0.0161,
      "velocity": 120,
      "chip": "ym2612"
    },
    {
      "channel": 2,
      "note": 52,
      "start": 3.3021,
      "duration": 0.0161,
      "velocity": 100,
      "chip": "ym2612"
    },
    {
      "channel": 0,
      "note": 41,
      "start": 3.3148,
      "duration": 0.0157,
      "velocity": 115,
      "chip": "ym2612"
    },
    {
      "channel": 4,
      "note": 57,
      "start": 3.316,
      "duration": 0.0158,
      "velocity": 120,
      "chip": "ym2612"
    },
    {
      "channel": 3,
      "note": 64,
      "start": 3.3171,
      "duration": 0.0157,
      "velocity": 120,
      "chip": "ym2612"
    },
    {
      "channel": 2,
      "note": 52,
      "start": 3.3183,
      "duration": 0.016,
      "velocity": 100,
      "chip": "ym2612"
    },
    {
      "channel": 0,
      "note": 41,
      "start": 3.3305,
      "duration": 0.0141,
      "velocity": 115,
      "chip": "ym2612"
    },
    {
      "channel": 4,
      "note": 57,
      "start": 3.3317,
      "duration": 0.014,
      "velocity": 120,
      "chip": "ym2612"
    },
    {
      "channel": 3,
      "note": 64,
      "start": 3.3328,
      "duration": 0.0141,
      "velocity": 120,
      "chip": "ym2612"
    },
    {
      "channel": 2,
      "note": 52,
      "start": 3.3343,
      "duration": 0.0138,
      "velocity": 100,
      "chip": "ym2612"
    },
    {
      "channel": 0,
      "note": 42,
      "start": 3.3446,
      "duration": 0.0158,
      "velocity": 115,
      "chip": "ym2612"
    },
    {
      "channel": 4,
      "note": 57,
      "start": 3.3457,
      "duration": 0.0185,
      "velocity": 120,
      "chip": "ym2612"
    },
    {
      "channel": 3,
      "note": 64,
      "start": 3.3469,
      "duration": 0.0185,
      "velocity": 120,
      "chip": "ym2612"
    },
    {
      "channel": 2,
      "note": 52,
      "start": 3.3481,
      "duration": 0.0184,
      "velocity": 100,
      "chip": "ym2612"
    },
    {
      "channel": 0,
      "note": 42,
      "start": 3.3604,
      "duration": 0.0161,
      "velocity": 115,
      "chip": "ym2612"
    },
    {
      "channel": 4,
      "note": 57,
      "start": 3.3642,
      "duration": 0.0162,
      "velocity": 120,
      "chip": "ym2612"
    },
    {
      "channel": 3,
      "note": 64,
      "start": 3.3654,
      "duration": 0.0161,
      "velocity": 120,
      "chip": "ym2612"
    },
    {
      "channel": 2,
      "note": 52,
      "start": 3.3665,
      "duration": 0.0161,
      "velocity": 100,
      "chip": "ym2612"
    },
    {
      "channel": 0,
      "note": 43,
      "start": 3.3765,
      "duration": 0.0161,
      "velocity": 115,
      "chip": "ym2612"
    },
    {
      "channel": 4,
      "note": 57,
      "start": 3.3804,
      "duration": 0.0133,
      "velocity": 120,
      "chip": "ym2612"
    },
    {
      "channel": 3,
      "note": 64,
      "start": 3.3815,
      "duration": 0.0158,
      "velocity": 120,
      "chip": "ym2612"
    },
    {
      "channel": 2,
      "note": 52,
      "start": 3.3826,
      "duration": 0.0157,
      "velocity": 100,
      "chip": "ym2612"
    },
    {
      "channel": 0,
      "note": 43,
      "start": 3.3926,
      "duration": 0.0161,
      "velocity": 115,
      "chip": "ym2612"
    },
    {
      "channel": 4,
      "note": 57,
      "start": 3.3937,
      "duration": 0.0161,
      "velocity": 120,
      "chip": "ym2612"
    },
    {
      "channel": 3,
      "note": 64,
      "start": 3.3973,
      "duration": 0.014,
      "velocity": 120,
      "chip": "ym2612"
    },
    {
      "channel": 2,
      "note": 52,
      "start": 3.3983,
      "duration": 0.0141,
      "velocity": 100,
      "chip": "ym2612"
    },
    {
      "channel": 0,
      "note": 44,
      "start": 3.4086,
      "duration": 0.0162,
      "velocity": 115,
      "chip": "ym2612"
    },
    {
      "channel": 4,
      "note": 57,
      "start": 3.4098,
      "duration": 0.0162,
      "velocity": 120,
      "chip": "ym2612"
    },
    {
      "channel": 3,
      "note": 64,
      "start": 3.4112,
      "duration": 0.0159,
      "velocity": 120,
      "chip": "ym2612"
    },
    {
      "channel": 2,
      "note": 52,
      "start": 3.4124,
      "duration": 0.0186,
      "velocity": 100,
      "chip": "ym2612"
    },
    {
      "channel": 0,
      "note": 44,
      "start": 3.4248,
      "duration": 0.0161,
      "velocity": 115,
      "chip": "ym2612"
    },
    {
      "channel": 4,
      "note": 57,
      "start": 3.426,
      "duration": 0.0161,
      "velocity": 120,
      "chip": "ym2612"
    },
    {
      "channel": 3,
      "note": 64,
      "start": 3.4271,
      "duration": 0.0161,
      "velocity": 120,
      "chip": "ym2612"
    },
    {
      "channel": 2,
      "note": 52,
      "start": 3.431,
      "duration": 0.0161,
      "velocity": 100,
      "chip": "ym2612"
    },
    {
      "channel": 0,
      "note": 44,
      "start": 3.4409,
      "duration": 0.0161,
      "velocity": 115,
      "chip": "ym2612"
    },
    {
      "channel": 4,
      "note": 57,
      "start": 3.442,
      "duration": 0.0161,
      "velocity": 120,
      "chip": "ym2612"
    },
    {
      "channel": 3,
      "note": 64,
      "start": 3.4432,
      "duration": 0.0161,
      "velocity": 120,
      "chip": "ym2612"
    },
    {
      "channel": 2,
      "note": 52,
      "start": 3.4471,
      "duration": 0.0133,
      "velocity": 100,
      "chip": "ym2612"
    },
    {
      "channel": 0,
      "note": 45,
      "start": 3.457,
      "duration": 0.0161,
      "velocity": 115,
      "chip": "ym2612"
    },
    {
      "channel": 4,
      "note": 57,
      "start": 3.4581,
      "duration": 0.0161,
      "velocity": 120,
      "chip": "ym2612"
    },
    {
      "channel": 3,
      "note": 64,
      "start": 3.4593,
      "duration": 0.0161,
      "velocity": 120,
      "chip": "ym2612"
    },
    {
      "channel": 2,
      "note": 52,
      "start": 3.4604,
      "duration": 0.0162,
      "velocity": 100,
      "chip": "ym2612"
    },
    {
      "channel": 0,
      "note": 45,
      "start": 3.4731,
      "duration": 0.0161,
      "velocity": 115,
      "chip": "ym2612"
    },
    {
      "channel": 4,
      "note": 57,
      "start": 3.4742,
      "duration": 0.0161,
      "velocity": 120,
      "chip": "ym2612"
    },
    {
      "channel": 3,
      "note": 64,
      "start": 3.4754,
      "duration": 0.0161,
      "velocity": 120,
      "chip": "ym2612"
    },
    {
      "channel": 2,
      "note": 52,
      "start": 3.4765,
      "duration": 0.0161,
      "velocity": 100,
      "chip": "ym2612"
    },
    {
      "channel": 0,
      "note": 46,
      "start": 3.4892,
      "duration": 0.0161,
      "velocity": 115,
      "chip": "ym2612"
    },
    {
      "channel": 4,
      "note": 57,
      "start": 3.4903,
      "duration": 0.0161,
      "velocity": 120,
      "chip": "ym2612"
    },
    {
      "channel": 3,
      "note": 64,
      "start": 3.4915,
      "duration": 0.0161,
      "velocity": 120,
      "chip": "ym2612"
    },
    {
      "channel": 2,
      "note": 52,
      "start": 3.4926,
      "duration": 0.0161,
      "velocity": 100,
      "chip": "ym2612"
    },
    {
      "channel": 0,
      "note": 46,
      "start": 3.5053,
      "duration": 0.0179,
      "velocity": 124,
      "chip": "ym2612"
    },
    {
      "channel": 4,
      "note": 57,
      "start": 3.5064,
      "duration": 0.0179,
      "velocity": 120,
      "chip": "ym2612"
    },
    {
      "channel": 3,
      "note": 64,
      "start": 3.5076,
      "duration": 0.0179,
      "velocity": 120,
      "chip": "ym2612"
    },
    {
      "channel": 2,
      "note": 52,
      "start": 3.5087,
      "duration": 0.0181,
      "velocity": 100,
      "chip": "ym2612"
    },
    {
      "channel": 0,
      "note": 84,
      "start": 3.5232,
      "duration": 0.0144,
      "velocity": 124,
      "chip": "ym2612"
    },
    {
      "channel": 4,
      "note": 57,
      "start": 3.5243,
      "duration": 0.0144,
      "velocity": 120,
      "chip": "ym2612"
    },
    {
      "channel": 3,
      "note": 64,
      "start": 3.5254,
      "duration": 0.0144,
      "velocity": 120,
      "chip": "ym2612"
    },
    {
      "channel": 2,
      "note": 52,
      "start": 3.5269,
      "duration": 0.0141,
      "velocity": 100,
      "chip": "ym2612"
    },
    {
      "channel": 0,
      "note": 82,
      "start": 3.5375,
      "duration": 0.016,
      "velocity": 124,
      "chip": "ym2612"
    },
    {
      "channel": 4,
      "note": 57,
      "start": 3.5387,
      "duration": 0.0161,
      "velocity": 120,
      "chip": "ym2612"
    },
    {
      "channel": 3,
      "note": 64,
      "start": 3.5398,
      "duration": 0.016,
      "velocity": 120,
      "chip": "ym2612"
    },
    {
      "channel": 2,
      "note": 52,
      "start": 3.541,
      "duration": 0.016,
      "velocity": 100,
      "chip": "ym2612"
    },
    {
      "channel": 0,
      "note": 80,
      "start": 3.5536,
      "duration": 0.0162,
      "velocity": 124,
      "chip": "ym2612"
    },
    {
      "channel": 4,
      "note": 57,
      "start": 3.5548,
      "duration": 0.0161,
      "velocity": 120,
      "chip": "ym2612"
    },
    {
      "channel": 3,
      "note": 64,
      "start": 3.5559,
      "duration": 0.0162,
      "velocity": 120,
      "chip": "ym2612"
    },
    {
      "channel": 2,
      "note": 52,
      "start": 3.557,
      "duration": 0.0161,
      "velocity": 100,
      "chip": "ym2612"
    },
    {
      "channel": 0,
      "note": 77,
      "start": 3.5697,
      "duration": 0.0161,
      "velocity": 124,
      "chip": "ym2612"
    },
    {
      "channel": 4,
      "note": 57,
      "start": 3.5709,
      "duration": 0.0161,
      "velocity": 120,
      "chip": "ym2612"
    },
    {
      "channel": 3,
      "note": 64,
      "start": 3.572,
      "duration": 0.0161,
      "velocity": 120,
      "chip": "ym2612"
    },
    {
      "channel": 2,
      "note": 52,
      "start": 3.5731,
      "duration": 0.0161,
      "velocity": 100,
      "chip": "ym2612"
    },
    {
      "channel": 0,
      "note": 75,
      "start": 3.5858,
      "duration": 0.0161,
      "velocity": 124,
      "chip": "ym2612"
    },
    {
      "channel": 4,
      "note": 57,
      "start": 3.587,
      "duration": 0.0161,
      "velocity": 120,
      "chip": "ym2612"
    },
    {
      "channel": 3,
      "note": 64,
      "start": 3.5881,
      "duration": 0.0161,
      "velocity": 120,
      "chip": "ym2612"
    },
    {
      "channel": 2,
      "note": 52,
      "start": 3.5892,
      "duration": 0.0161,
      "velocity": 100,
      "chip": "ym2612"
    },
    {
      "channel": 0,
      "note": 72,
      "start": 3.6019,
      "duration": 0.0161,
      "velocity": 124,
      "chip": "ym2612"
    },
    {
      "channel": 4,
      "note": 57,
      "start": 3.6031,
      "duration": 0.0161,
      "velocity": 120,
      "chip": "ym2612"
    },
    {
      "channel": 3,
      "note": 64,
      "start": 3.6042,
      "duration": 0.0161,
      "velocity": 120,
      "chip": "ym2612"
    },
    {
      "channel": 2,
      "note": 52,
      "start": 3.6053,
      "duration": 0.0161,
      "velocity": 100,
      "chip": "ym2612"
    },
    {
      "channel": 0,
      "note": 70,
      "start": 3.618,
      "duration": 0.0161,
      "velocity": 124,
      "chip": "ym2612"
    },
    {
      "channel": 4,
      "note": 57,
      "start": 3.6191,
      "duration": 0.0161,
      "velocity": 120,
      "chip": "ym2612"
    },
    {
      "channel": 3,
      "note": 64,
      "start": 3.6203,
      "duration": 0.0161,
      "velocity": 120,
      "chip": "ym2612"
    },
    {
      "channel": 2,
      "note": 52,
      "start": 3.6214,
      "duration": 0.0161,
      "velocity": 100,
      "chip": "ym2612"
    },
    {
      "channel": 0,
      "note": 68,
      "start": 3.6341,
      "duration": 0.0161,
      "velocity": 124,
      "chip": "ym2612"
    },
    {
      "channel": 4,
      "note": 57,
      "start": 3.6352,
      "duration": 0.0161,
      "velocity": 120,
      "chip": "ym2612"
    },
    {
      "channel": 3,
      "note": 64,
      "start": 3.6364,
      "duration": 0.0161,
      "velocity": 120,
      "chip": "ym2612"
    },
    {
      "channel": 2,
      "note": 52,
      "start": 3.6375,
      "duration": 0.0162,
      "velocity": 100,
      "chip": "ym2612"
    },
    {
      "channel": 0,
      "note": 65,
      "start": 3.6502,
      "duration": 0.0161,
      "velocity": 124,
      "chip": "ym2612"
    },
    {
      "channel": 4,
      "note": 57,
      "start": 3.6513,
      "duration": 0.0161,
      "velocity": 120,
      "chip": "ym2612"
    },
    {
      "channel": 3,
      "note": 64,
      "start": 3.6525,
      "duration": 0.0161,
      "velocity": 120,
      "chip": "ym2612"
    },
    {
      "channel": 2,
      "note": 52,
      "start": 3.6536,
      "duration": 0.0161,
      "velocity": 100,
      "chip": "ym2612"
    },
    {
      "channel": 0,
      "note": 63,
      "start": 3.6663,
      "duration": 0.0153,
      "velocity": 1,
      "chip": "ym2612"
    },
    {
      "channel": 4,
      "note": 57,
      "start": 3.6674,
      "duration": 0.0153,
      "velocity": 120,
      "chip": "ym2612"
    },
    {
      "channel": 3,
      "note": 64,
      "start": 3.6686,
      "duration": 0.0153,
      "velocity": 120,
      "chip": "ym2612"
    },
    {
      "channel": 2,
      "note": 52,
      "start": 3.6697,
      "duration": 0.0153,
      "velocity": 100,
      "chip": "ym2612"
    },
    {
      "channel": 4,
      "note": 57,
      "start": 3.6828,
      "duration": 0.0154,
      "velocity": 120,
      "chip": "ym2612"
    },
    {
      "channel": 3,
      "note": 64,
      "start": 3.6839,
      "duration": 0.0155,
      "velocity": 120,
      "chip": "ym2612"
    },
    {
      "channel": 2,
      "note": 52,
      "start": 3.685,
      "duration": 0.0155,
      "velocity": 100,
      "chip": "ym2612"
    },
    {
      "channel": 4,
      "note": 57,
      "start": 3.6982,
      "duration": 0.0201,
      "velocity": 120,
      "chip": "ym2612"
    },
    {
      "channel": 3,
      "note": 64,
      "start": 3.6994,
      "duration": 0.0201,
      "velocity": 120,
      "chip": "ym2612"
    },
    {
      "channel": 2,
      "note": 52,
      "start": 3.7005,
      "duration": 0.0204,
      "velocity": 100,
      "chip": "ym2612"
    },
    {
      "channel": 0,
      "note": 36,
      "start": 3.7172,
      "duration": 0.0146,
      "velocity": 115,
      "chip": "ym2612"
    },
    {
      "channel": 4,
      "note": 57,
      "start": 3.7183,
      "duration": 0.0146,
      "velocity": 120,
      "chip": "ym2612"
    },
    {
      "channel": 3,
      "note": 64,
      "start": 3.7195,
      "duration": 0.0146,
      "velocity": 120,
      "chip": "ym2612"
    },
    {
      "channel": 2,
      "note": 52,
      "start": 3.7209,
      "duration": 0.0143,
      "velocity": 100,
      "chip": "ym2612"
    },
    {
      "channel": 0,
      "note": 36,
      "start": 3.7317,
      "duration": 0.0151,
      "velocity": 115,
      "chip": "ym2612"
    },
    {
      "channel": 4,
      "note": 57,
      "start": 3.7329,
      "duration": 0.0151,
      "velocity": 120,
      "chip": "ym2612"
    },
    {
      "channel": 3,
      "note": 64,
      "start": 3.734,
      "duration": 0.0151,
      "velocity": 120,
      "chip": "ym2612"
    },
    {
      "channel": 2,
      "note": 52,
      "start": 3.7352,
      "duration": 0.015,
      "velocity": 100,
      "chip": "ym2612"
    },
    {
      "channel": 0,
      "note": 37,
      "start": 3.7468,
      "duration": 0.0186,
      "velocity": 115,
      "chip": "ym2612"
    },
    {
      "channel": 4,
      "note": 57,
      "start": 3.748,
      "duration": 0.0186,
      "velocity": 120,
      "chip": "ym2612"
    },
    {
      "channel": 3,
      "note": 64,
      "start": 3.7491,
      "duration": 0.0186,
      "velocity": 120,
      "chip": "ym2612"
    },
    {
      "channel": 2,
      "note": 52,
      "start": 3.7502,
      "duration": 0.0186,
      "velocity": 100,
      "chip": "ym2612"
    },
    {
      "channel": 0,
      "note": 37,
      "start": 3.7654,
      "duration": 0.0163,
      "velocity": 115,
      "chip": "ym2612"
    },
    {
      "channel": 4,
      "note": 57,
      "start": 3.7665,
      "duration": 0.0163,
      "velocity": 120,
      "chip": "ym2612"
    },
    {
      "channel": 3,
      "note": 64,
      "start": 3.7677,
      "duration": 0.0163,
      "velocity": 120,
      "chip": "ym2612"
    },
    {
      "channel": 2,
      "note": 52,
      "start": 3.7688,
      "duration": 0.0164,
      "velocity": 100,
      "chip": "ym2612"
    },
    {
      "channel": 0,
      "note": 38,
      "start": 3.7817,
      "duration": 0.0157,
      "velocity": 115,
      "chip": "ym2612"
    },
    {
      "channel": 4,
      "note": 57,
      "start": 3.7829,
      "duration": 0.0158,
      "velocity": 120,
      "chip": "ym2612"
    },
    {
      "channel": 3,
      "note": 64,
      "start": 3.784,
      "duration": 0.0157,
      "velocity": 120,
      "chip": "ym2612"
    },
    {
      "channel": 2,
      "note": 52,
      "start": 3.7852,
      "duration": 0.0157,
      "velocity": 100,
      "chip": "ym2612"
    },
    {
      "channel": 0,
      "note": 38,
      "start": 3.7975,
      "duration": 0.0141,
      "velocity": 115,
      "chip": "ym2612"
    },
    {
      "channel": 4,
      "note": 57,
      "start": 3.7987,
      "duration": 0.014,
      "velocity": 120,
      "chip": "ym2612"
    },
    {
      "channel": 3,
      "note": 64,
      "start": 3.7998,
      "duration": 0.0141,
      "velocity": 120,
      "chip": "ym2612"
    },
    {
      "channel": 2,
      "note": 52,
      "start": 3.8009,
      "duration": 0.0141,
      "velocity": 100,
      "chip": "ym2612"
    },
    {
      "channel": 0,
      "note": 39,
      "start": 3.8115,
      "duration": 0.0185,
      "velocity": 115,
      "chip": "ym2612"
    },
    {
      "channel": 4,
      "note": 57,
      "start": 3.8127,
      "duration": 0.0186,
      "velocity": 120,
      "chip": "ym2612"
    },
    {
      "channel": 3,
      "note": 64,
      "start": 3.8138,
      "duration": 0.0185,
      "velocity": 120,
      "chip": "ym2612"
    },
    {
      "channel": 2,
      "note": 52,
      "start": 3.8149,
      "duration": 0.0185,
      "velocity": 100,
      "chip": "ym2612"
    },
    {
      "channel": 0,
      "note": 39,
      "start": 3.83,
      "duration": 0.0134,
      "velocity": 115,
      "chip": "ym2612"
    },
    {
      "channel": 4,
      "note": 57,
      "start": 3.8312,
      "duration": 0.0161,
      "velocity": 120,
      "chip": "ym2612"
    },
    {
      "channel": 3,
      "note": 64,
      "start": 3.8323,
      "duration": 0.0161,
      "velocity": 120,
      "chip": "ym2612"
    },
    {
      "channel": 2,
      "note": 52,
      "start": 3.8335,
      "duration": 0.0161,
      "velocity": 100,
      "chip": "ym2612"
    },
    {
      "channel": 0,
      "note": 40,
      "start": 3.8434,
      "duration": 0.0161,
      "velocity": 115,
      "chip": "ym2612"
    },
    {
      "channel": 4,
      "note": 57,
      "start": 3.8473,
      "duration": 0.0157,
      "velocity": 120,
      "chip": "ym2612"
    },
    {
      "channel": 3,
      "note": 64,
      "start": 3.8484,
      "duration": 0.0158,
      "velocity": 120,
      "chip": "ym2612"
    },
    {
      "channel": 2,
      "note": 52,
      "start": 3.8495,
      "duration": 0.0158,
      "velocity": 100,
      "chip": "ym2612"
    },
    {
      "channel": 0,
      "note": 40,
      "start": 3.8595,
      "duration": 0.0161,
      "velocity": 115,
      "chip": "ym2612"
    },
    {
      "channel": 4,
      "note": 57,
      "start": 3.863,
      "duration": 0.0137,
      "velocity": 120,
      "chip": "ym2612"
    },
    {
      "channel": 3,
      "note": 64,
      "start": 3.8642,
      "duration": 0.0141,
      "velocity": 120,
      "chip": "ym2612"
    },
    {
      "channel": 2,
      "note": 52,
      "start": 3.8653,
      "duration": 0.014,
      "velocity": 100,
      "chip": "ym2612"
    },
    {
      "channel": 0,
      "note": 40,
      "start": 3.8756,
      "duration": 0.0161,
      "velocity": 115,
      "chip": "ym2612"
    },
    {
      "channel": 4,
      "note": 57,
      "start": 3.8768,
      "duration": 0.0161,
      "velocity": 120,
      "chip": "ym2612"
    },
    {
      "channel": 3,
      "note": 64,
      "start": 3.8783,
      "duration": 0.0185,
      "velocity": 120,
      "chip": "ym2612"
    },
    {
      "channel": 2,
      "note": 52,
      "start": 3.8793,
      "duration": 0.0186,
      "velocity": 100,
      "chip": "ym2612"
    },
    {
      "channel": 0,
      "note": 41,
      "start": 3.8917,
      "duration": 0.0179,
      "velocity": 115,
      "chip": "ym2612"
    },
    {
      "channel": 4,
      "note": 57,
      "start": 3.8929,
      "duration": 0.0207,
      "velocity": 120,
      "chip": "ym2612"
    },
    {
      "channel": 3,
      "note": 64,
      "start": 3.8968,
      "duration": 0.0179,
      "velocity": 120,
      "chip": "ym2612"
    },
    {
      "channel": 2,
      "note": 52,
      "start": 3.8979,
      "duration": 0.0182,
      "velocity": 100,
      "chip": "ym2612"
    },
    {
      "channel": 0,
      "note": 36,
      "start": 3.9096,
      "duration": 0.0144,
      "velocity": 115,
      "chip": "ym2612"
    },
    {
      "channel": 4,
      "note": 57,
      "start": 3.9135,
      "duration": 0.0116,
      "velocity": 120,
      "chip": "ym2612"
    },
    {
      "channel": 3,
      "note": 64,
      "start": 3.9146,
      "duration": 0.0117,
      "velocity": 120,
      "chip": "ym2612"
    },
    {
      "channel": 2,
      "note": 52,
      "start": 3.9161,
      "duration": 0.0137,
      "velocity": 100,
      "chip": "ym2612"
    },
    {
      "channel": 0,
      "note": 36,
      "start": 3.924,
      "duration": 0.016,
      "velocity": 115,
      "chip": "ym2612"
    },
    {
      "channel": 4,
      "note": 57,
      "start": 3.9251,
      "duration": 0.016,
      "velocity": 120,
      "chip": "ym2612"
    },
    {
      "channel": 3,
      "note": 64,
      "start": 3.9263,
      "duration": 0.016,
      "velocity": 120,
      "chip": "ym2612"
    },
    {
      "channel": 2,
      "note": 52,
      "start": 3.9298,
      "duration": 0.0136,
      "velocity": 100,
      "chip": "ym2612"
    },
    {
      "channel": 0,
      "note": 37,
      "start": 3.94,
      "duration": 0.0161,
      "velocity": 115,
      "chip": "ym2612"
    },
    {
      "channel": 4,
      "note": 57,
      "start": 3.9412,
      "duration": 0.0161,
      "velocity": 120,
      "chip": "ym2612"
    },
    {
      "channel": 3,
      "note": 64,
      "start": 3.9423,
      "duration": 0.0161,
      "velocity": 120,
      "chip": "ym2612"
    },
    {
      "channel": 2,
      "note": 52,
      "start": 3.9434,
      "duration": 0.0161,
      "velocity": 100,
      "chip": "ym2612"
    },
    {
      "channel": 0,
      "note": 37,
      "start": 3.9561,
      "duration": 0.0161,
      "velocity": 115,
      "chip": "ym2612"
    },
    {
      "channel": 4,
      "note": 57,
      "start": 3.9573,
      "duration": 0.0161,
      "velocity": 120,
      "chip": "ym2612"
    },
    {
      "channel": 3,
      "note": 64,
      "start": 3.9584,
      "duration": 0.0161,
      "velocity": 120,
      "chip": "ym2612"
    },
    {
      "channel": 2,
      "note": 52,
      "start": 3.9595,
      "duration": 0.0161,
      "velocity": 100,
      "chip": "ym2612"
    },
    {
      "channel": 0,
      "note": 38,
      "start": 3.9722,
      "duration": 0.0161,
      "velocity": 115,
      "chip": "ym2612"
    },
    {
      "channel": 4,
      "note": 57,
      "start": 3.9733,
      "duration": 0.0161,
      "velocity": 120,
      "chip": "ym2612"
    },
    {
      "channel": 3,
      "note": 64,
      "start": 3.9745,
      "duration": 0.0161,
      "velocity": 120,
      "chip": "ym2612"
    },
    {
      "channel": 2,
      "note": 52,
      "start": 3.9756,
      "duration": 0.0161,
      "velocity": 100,
      "chip": "ym2612"
    },
    {
      "channel": 0,
      "note": 38,
      "start": 3.9883,
      "duration": 0.0161,
      "velocity": 115,
      "chip": "ym2612"
    },
    {
      "channel": 4,
      "note": 57,
      "start": 3.9894,
      "duration": 0.0162,
      "velocity": 120,
      "chip": "ym2612"
    },
    {
      "channel": 3,
      "note": 64,
      "start": 3.9906,
      "duration": 0.0161,
      "velocity": 120,
      "chip": "ym2612"
    },
    {
      "channel": 2,
      "note": 52,
      "start": 3.9917,
      "duration": 0.0161,
      "velocity": 100,
      "chip": "ym2612"
    },
    {
      "channel": 0,
      "note": 39,
      "start": 4.0044,
      "duration": 0.0161,
      "velocity": 115,
      "chip": "ym2612"
    },
    {
      "channel": 4,
      "note": 57,
      "start": 4.0056,
      "duration": 0.0161,
      "velocity": 120,
      "chip": "ym2612"
    },
    {
      "channel": 3,
      "note": 64,
      "start": 4.0067,
      "duration": 0.0161,
      "velocity": 120,
      "chip": "ym2612"
    },
    {
      "channel": 2,
      "note": 52,
      "start": 4.0078,
      "duration": 0.0161,
      "velocity": 100,
      "chip": "ym2612"
    },
    {
      "channel": 0,
      "note": 39,
      "start": 4.0205,
      "duration": 0.0161,
      "velocity": 115,
      "chip": "ym2612"
    },
    {
      "channel": 4,
      "note": 57,
      "start": 4.0217,
      "duration": 0.0161,
      "velocity": 120,
      "chip": "ym2612"
    },
    {
      "channel": 3,
      "note": 64,
      "start": 4.0228,
      "duration": 0.0161,
      "velocity": 120,
      "chip": "ym2612"
    },
    {
      "channel": 2,
      "note": 52,
      "start": 4.0239,
      "duration": 0.0161,
      "velocity": 100,
      "chip": "ym2612"
    },
    {
      "channel": 0,
      "note": 40,
      "start": 4.0366,
      "duration": 0.0161,
      "velocity": 115,
      "chip": "ym2612"
    },
    {
      "channel": 4,
      "note": 57,
      "start": 4.0378,
      "duration": 0.0161,
      "velocity": 120,
      "chip": "ym2612"
    },
    {
      "channel": 3,
      "note": 64,
      "start": 4.0389,
      "duration": 0.0161,
      "velocity": 120,
      "chip": "ym2612"
    },
    {
      "channel": 2,
      "note": 52,
      "start": 4.04,
      "duration": 0.0162,
      "velocity": 100,
      "chip": "ym2612"
    },
    {
      "channel": 0,
      "note": 40,
      "start": 4.0527,
      "duration": 0.0161,
      "velocity": 115,
      "chip": "ym2612"
    },
    {
      "channel": 4,
      "note": 57,
      "start": 4.0539,
      "duration": 0.0161,
      "velocity": 120,
      "chip": "ym2612"
    },
    {
      "channel": 3,
      "note": 64,
      "start": 4.055,
      "duration": 0.0161,
      "velocity": 120,
      "chip": "ym2612"
    },
    {
      "channel": 2,
      "note": 52,
      "start": 4.0562,
      "duration": 0.0161,
      "velocity": 100,
      "chip": "ym2612"
    },
    {
      "channel": 0,
      "note": 40,
      "start": 4.0688,
      "duration": 0.0161,
      "velocity": 115,
      "chip": "ym2612"
    },
    {
      "channel": 4,
      "note": 57,
      "start": 4.07,
      "duration": 0.0161,
      "velocity": 120,
      "chip": "ym2612"
    },
    {
      "channel": 3,
      "note": 64,
      "start": 4.0711,
      "duration": 0.0161,
      "velocity": 120,
      "chip": "ym2612"
    },
    {
      "channel": 2,
      "note": 52,
      "start": 4.0723,
      "duration": 0.0161,
      "velocity": 100,
      "chip": "ym2612"
    },
    {
      "channel": 0,
      "note": 41,
      "start": 4.0849,
      "duration": 0.0161,
      "velocity": 115,
      "chip": "ym2612"
    },
    {
      "channel": 4,
      "note": 57,
      "start": 4.0861,
      "duration": 0.0161,
      "velocity": 120,
      "chip": "ym2612"
    },
    {
      "channel": 3,
      "note": 64,
      "start": 4.0872,
      "duration": 0.0161,
      "velocity": 120,
      "chip": "ym2612"
    },
    {
      "channel": 2,
      "note": 52,
      "start": 4.0884,
      "duration": 0.0163,
      "velocity": 100,
      "chip": "ym2612"
    },
    {
      "channel": 0,
      "note": 41,
      "start": 4.101,
      "duration": 0.0161,
      "velocity": 115,
      "chip": "ym2612"
    },
    {
      "channel": 4,
      "note": 57,
      "start": 4.1022,
      "duration": 0.0161,
      "velocity": 120,
      "chip": "ym2612"
    },
    {
      "channel": 3,
      "note": 64,
      "start": 4.1033,
      "duration": 0.0161,
      "velocity": 120,
      "chip": "ym2612"
    },
    {
      "channel": 2,
      "note": 52,
      "start": 4.1048,
      "duration": 0.0159,
      "velocity": 100,
      "chip": "ym2612"
    },
    {
      "channel": 0,
      "note": 42,
      "start": 4.1171,
      "duration": 0.0161,
      "velocity": 115,
      "chip": "ym2612"
    },
    {
      "channel": 4,
      "note": 57,
      "start": 4.1183,
      "duration": 0.0161,
      "velocity": 120,
      "chip": "ym2612"
    },
    {
      "channel": 3,
      "note": 64,
      "start": 4.1194,
      "duration": 0.0161,
      "velocity": 120,
      "chip": "ym2612"
    },
    {
      "channel": 2,
      "note": 52,
      "start": 4.1206,
      "duration": 0.016,
      "velocity": 100,
      "chip": "ym2612"
    },
    {
      "channel": 0,
      "note": 42,
      "start": 4.1332,
      "duration": 0.0161,
      "velocity": 115,
      "chip": "ym2612"
    },
    {
      "channel": 4,
      "note": 57,
      "start": 4.1344,
      "duration": 0.0161,
      "velocity": 120,
      "chip": "ym2612"
    },
    {
      "channel": 3,
      "note": 64,
      "start": 4.1355,
      "duration": 0.0161,
      "velocity": 120,
      "chip": "ym2612"
    },
    {
      "channel": 2,
      "note": 52,
      "start": 4.1366,
      "duration": 0.0161,
      "velocity": 100,
      "chip": "ym2612"
    },
    {
      "channel": 0,
      "note": 43,
      "start": 4.1493,
      "duration": 0.0162,
      "velocity": 115,
      "chip": "ym2612"
    },
    {
      "channel": 4,
      "note": 57,
      "start": 4.1505,
      "duration": 0.0161,
      "velocity": 120,
      "chip": "ym2612"
    },
    {
      "channel": 3,
      "note": 64,
      "start": 4.1516,
      "duration": 0.0162,
      "velocity": 120,
      "chip": "ym2612"
    },
    {
      "channel": 2,
      "note": 52,
      "start": 4.1527,
      "duration": 0.0161,
      "velocity": 100,
      "chip": "ym2612"
    },
    {
      "channel": 0,
      "note": 43,
      "start": 4.1655,
      "duration": 0.0166,
      "velocity": 115,
      "chip": "ym2612"
    },
    {
      "channel": 4,
      "note": 57,
      "start": 4.1666,
      "duration": 0.0166,
      "velocity": 120,
      "chip": "ym2612"
    },
    {
      "channel": 3,
      "note": 64,
      "start": 4.1678,
      "duration": 0.0166,
      "velocity": 120,
      "chip": "ym2612"
    },
    {
      "channel": 2,
      "note": 52,
      "start": 4.1688,
      "duration": 0.0166,
      "velocity": 100,
      "chip": "ym2612"
    },
    {
      "channel": 0,
      "note": 44,
      "start": 4.1821,
      "duration": 0.0163,
      "velocity": 115,
      "chip": "ym2612"
    },
    {
      "channel": 4,
      "note": 57,
      "start": 4.1832,
      "duration": 0.0163,
      "velocity": 120,
      "chip": "ym2612"
    },
    {
      "channel": 3,
      "note": 64,
      "start": 4.1844,
      "duration": 0.0163,
      "velocity": 120,
      "chip": "ym2612"
    },
    {
      "channel": 2,
      "note": 52,
      "start": 4.1854,
      "duration": 0.0163,
      "velocity": 100,
      "chip": "ym2612"
    },
    {
      "channel": 0,
      "note": 44,
      "start": 4.1983,
      "duration": 0.0154,
      "velocity": 115,
      "chip": "ym2612"
    },
    {
      "channel": 4,
      "note": 57,
      "start": 4.1995,
      "duration": 0.0154,
      "velocity": 120,
      "chip": "ym2612"
    },
    {
      "channel": 3,
      "note": 64,
      "start": 4.2006,
      "duration": 0.0154,
      "velocity": 120,
      "chip": "ym2612"
    },
    {
      "channel": 2,
      "note": 52,
      "start": 4.2018,
      "duration": 0.0154,
      "velocity": 100,
      "chip": "ym2612"
    },
    {
      "channel": 0,
      "note": 44,
      "start": 4.2137,
      "duration": 0.0183,
      "velocity": 115,
      "chip": "ym2612"
    },
    {
      "channel": 4,
      "note": 57,
      "start": 4.2149,
      "duration": 0.0183,
      "velocity": 120,
      "chip": "ym2612"
    },
    {
      "channel": 3,
      "note": 64,
      "start": 4.216,
      "duration": 0.0183,
      "velocity": 120,
      "chip": "ym2612"
    },
    {
      "channel": 2,
      "note": 52,
      "start": 4.2172,
      "duration": 0.0183,
      "velocity": 100,
      "chip": "ym2612"
    },
    {
      "channel": 0,
      "note": 45,
      "start": 4.2321,
      "duration": 0.0166,
      "velocity": 115,
      "chip": "ym2612"
    },
    {
      "channel": 4,
      "note": 57,
      "start": 4.2332,
      "duration": 0.0166,
      "velocity": 120,
      "chip": "ym2612"
    },
    {
      "channel": 3,
      "note": 64,
      "start": 4.2344,
      "duration": 0.0166,
      "velocity": 120,
      "chip": "ym2612"
    },
    {
      "channel": 2,
      "note": 52,
      "start": 4.2354,
      "duration": 0.0167,
      "velocity": 100,
      "chip": "ym2612"
    },
    {
      "channel": 0,
      "note": 45,
      "start": 4.2487,
      "duration": 0.0158,
      "velocity": 115,
      "chip": "ym2612"
    },
    {
      "channel": 4,
      "note": 57,
      "start": 4.2498,
      "duration": 0.0158,
      "velocity": 120,
      "chip": "ym2612"
    },
    {
      "channel": 3,
      "note": 64,
      "start": 4.251,
      "duration": 0.0158,
      "velocity": 120,
      "chip": "ym2612"
    },
    {
      "channel": 2,
      "note": 52,
      "start": 4.2521,
      "duration": 0.0157,
      "velocity": 100,
      "chip": "ym2612"
    },
    {
      "channel": 0,
      "note": 46,
      "start": 4.2644,
      "duration": 0.014,
      "velocity": 115,
      "chip": "ym2612"
    },
    {
      "channel": 4,
      "note": 57,
      "start": 4.2656,
      "duration": 0.0141,
      "velocity": 120,
      "chip": "ym2612"
    },
    {
      "channel": 3,
      "note": 64,
      "start": 4.2667,
      "duration": 0.014,
      "velocity": 120,
      "chip": "ym2612"
    },
    {
      "channel": 2,
      "note": 52,
      "start": 4.2678,
      "duration": 0.0141,
      "velocity": 100,
      "chip": "ym2612"
    },
    {
      "channel": 0,
      "note": 46,
      "start": 4.2784,
      "duration": 0.0203,
      "velocity": 124,
      "chip": "ym2612"
    },
    {
      "channel": 4,
      "note": 57,
      "start": 4.2796,
      "duration": 0.0203,
      "velocity": 120,
      "chip": "ym2612"
    },
    {
      "channel": 3,
      "note": 64,
      "start": 4.2807,
      "duration": 0.0204,
      "velocity": 120,
      "chip": "ym2612"
    },
    {
      "channel": 2,
      "note": 52,
      "start": 4.2819,
      "duration": 0.0206,
      "velocity": 100,
      "chip": "ym2612"
    },
    {
      "channel": 0,
      "note": 84,
      "start": 4.2988,
      "duration": 0.0116,
      "velocity": 124,
      "chip": "ym2612"
    },
    {
      "channel": 4,
      "note": 57,
      "start": 4.2999,
      "duration": 0.0144,
      "velocity": 120,
      "chip": "ym2612"
    },
    {
      "channel": 3,
      "note": 64,
      "start": 4.3011,
      "duration": 0.0144,
      "velocity": 120,
      "chip": "ym2612"
    },
    {
      "channel": 2,
      "note": 52,
      "start": 4.3025,
      "duration": 0.0141,
      "velocity": 100,
      "chip": "ym2612"
    },
    {
      "channel": 0,
      "note": 82,
      "start": 4.3104,
      "duration": 0.0161,
      "velocity": 124,
      "chip": "ym2612"
    },
    {
      "channel": 4,
      "note": 57,
      "start": 4.3143,
      "duration": 0.0156,
      "velocity": 120,
      "chip": "ym2612"
    },
    {
      "channel": 3,
      "note": 64,
      "start": 4.3155,
      "duration": 0.0156,
      "velocity": 120,
      "chip": "ym2612"
    },
    {
      "channel": 2,
      "note": 52,
      "start": 4.3166,
      "duration": 0.0156,
      "velocity": 100,
      "chip": "ym2612"
    },
    {
      "channel": 0,
      "note": 80,
      "start": 4.3265,
      "duration": 0.0161,
      "velocity": 124,
      "chip": "ym2612"
    },
    {
      "channel": 4,
      "note": 57,
      "start": 4.33,
      "duration": 0.0137,
      "velocity": 120,
      "chip": "ym2612"
    },
    {
      "channel": 3,
      "note": 64,
      "start": 4.3311,
      "duration": 0.0141,
      "velocity": 120,
      "chip": "ym2612"
    },
    {
      "channel": 2,
      "note": 52,
      "start": 4.3322,
      "duration": 0.0141,
      "velocity": 100,
      "chip": "ym2612"
    },
    {
      "channel": 0,
      "note": 77,
      "start": 4.3426,
      "duration": 0.0161,
      "velocity": 124,
      "chip": "ym2612"
    },
    {
      "channel": 4,
      "note": 57,
      "start": 4.3437,
      "duration": 0.0161,
      "velocity": 120,
      "chip": "ym2612"
    },
    {
      "channel": 3,
      "note": 64,
      "start": 4.3452,
      "duration": 0.0185,
      "velocity": 120,
      "chip": "ym2612"
    },
    {
      "channel": 2,
      "note": 52,
      "start": 4.3463,
      "duration": 0.0185,
      "velocity": 100,
      "chip": "ym2612"
    },
    {
      "channel": 0,
      "note": 75,
      "start": 4.3586,
      "duration": 0.0161,
      "velocity": 124,
      "chip": "ym2612"
    },
    {
      "channel": 4,
      "note": 57,
      "start": 4.3598,
      "duration": 0.0161,
      "velocity": 120,
      "chip": "ym2612"
    },
    {
      "channel": 3,
      "note": 64,
      "start": 4.3637,
      "duration": 0.0134,
      "velocity": 120,
      "chip": "ym2612"
    },
    {
      "channel": 2,
      "note": 52,
      "start": 4.3648,
      "duration": 0.0161,
      "velocity": 100,
      "chip": "ym2612"
    },
    {
      "channel": 0,
      "note": 72,
      "start": 4.3747,
      "duration": 0.0161,
      "velocity": 124,
      "chip": "ym2612"
    },
    {
      "channel": 4,
      "note": 57,
      "start": 4.3759,
      "duration": 0.0161,
      "velocity": 120,
      "chip": "ym2612"
    },
    {
      "channel": 3,
      "note": 64,
      "start": 4.377,
      "duration": 0.0161,
      "velocity": 120,
      "chip": "ym2612"
    },
    {
      "channel": 2,
      "note": 52,
      "start": 4.3809,
      "duration": 0.0157,
      "velocity": 100,
      "chip": "ym2612"
    },
    {
      "channel": 0,
      "note": 70,
      "start": 4.3908,
      "duration": 0.0161,
      "velocity": 124,
      "chip": "ym2612"
    },
    {
      "channel": 4,
      "note": 57,
      "start": 4.392,
      "duration": 0.0161,
      "velocity": 120,
      "chip": "ym2612"
    },
    {
      "channel": 3,
      "note": 64,
      "start": 4.3931,
      "duration": 0.0161,
      "velocity": 120,
      "chip": "ym2612"
    },
    {
      "channel": 2,
      "note": 52,
      "start": 4.3966,
      "duration": 0.0137,
      "velocity": 100,
      "chip": "ym2612"
    },
    {
      "channel": 0,
      "note": 68,
      "start": 4.4069,
      "duration": 0.0161,
      "velocity": 124,
      "chip": "ym2612"
    },
    {
      "channel": 4,
      "note": 57,
      "start": 4.4081,
      "duration": 0.0161,
      "velocity": 120,
      "chip": "ym2612"
    },
    {
      "channel": 3,
      "note": 64,
      "start": 4.4092,
      "duration": 0.0161,
      "velocity": 120,
      "chip": "ym2612"
    },
    {
      "channel": 2,
      "note": 52,
      "start": 4.4104,
      "duration": 0.0161,
      "velocity": 100,
      "chip": "ym2612"
    },
    {
      "channel": 0,
      "note": 65,
      "start": 4.423,
      "duration": 0.0162,
      "velocity": 124,
      "chip": "ym2612"
    },
    {
      "channel": 4,
      "note": 57,
      "start": 4.4242,
      "duration": 0.0162,
      "velocity": 120,
      "chip": "ym2612"
    },
    {
      "channel": 3,
      "note": 64,
      "start": 4.4253,
      "duration": 0.0162,
      "velocity": 120,
      "chip": "ym2612"
    },
    {
      "channel": 2,
      "note": 52,
      "start": 4.4265,
      "duration": 0.0161,
      "velocity": 100,
      "chip": "ym2612"
    },
    {
      "channel": 0,
      "note": 63,
      "start": 4.4392,
      "duration": 0.0153,
      "velocity": 1,
      "chip": "ym2612"
    },
    {
      "channel": 4,
      "note": 57,
      "start": 4.4403,
      "duration": 0.0153,
      "velocity": 120,
      "chip": "ym2612"
    },
    {
      "channel": 3,
      "note": 64,
      "start": 4.4415,
      "duration": 0.0153,
      "velocity": 120,
      "chip": "ym2612"
    },
    {
      "channel": 2,
      "note": 52,
      "start": 4.4426,
      "duration": 0.0153,
      "velocity": 100,
      "chip": "ym2612"
    },
    {
      "channel": 4,
      "note": 57,
      "start": 4.4556,
      "duration": 0.0153,
      "velocity": 120,
      "chip": "ym2612"
    },
    {
      "channel": 3,
      "note": 64,
      "start": 4.4567,
      "duration": 0.0153,
      "velocity": 120,
      "chip": "ym2612"
    },
    {
      "channel": 2,
      "note": 52,
      "start": 4.4578,
      "duration": 0.0153,
      "velocity": 100,
      "chip": "ym2612"
    },
    {
      "channel": 4,
      "note": 57,
      "start": 4.4709,
      "duration": 0.0161,
      "velocity": 120,
      "chip": "ym2612"
    },
    {
      "channel": 3,
      "note": 64,
      "start": 4.472,
      "duration": 0.0161,
      "velocity": 120,
      "chip": "ym2612"
    },
    {
      "channel": 2,
      "note": 52,
      "start": 4.4731,
      "duration": 0.0164,
      "velocity": 100,
      "chip": "ym2612"
    },
    {
      "channel": 4,
      "note": 57,
      "start": 4.487,
      "duration": 0.0161,
      "velocity": 120,
      "chip": "ym2612"
    },
    {
      "channel": 3,
      "note": 64,
      "start": 4.4881,
      "duration": 0.0161,
      "velocity": 120,
      "chip": "ym2612"
    },
    {
      "channel": 2,
      "note": 52,
      "start": 4.4895,
      "duration": 0.0159,
      "velocity": 100,
      "chip": "ym2612"
    },
    {
      "channel": 4,
      "note": 57,
      "start": 4.5031,
      "duration": 0.0161,
      "velocity": 120,
      "chip": "ym2612"
    },
    {
      "channel": 3,
      "note": 64,
      "start": 4.5042,
      "duration": 0.0161,
      "velocity": 120,
      "chip": "ym2612"
    },
    {
      "channel": 2,
      "note": 52,
      "start": 4.5054,
      "duration": 0.0161,
      "velocity": 100,
      "chip": "ym2612"
    },
    {
      "channel": 4,
      "note": 57,
      "start": 4.5191,
      "duration": 0.0161,
      "velocity": 120,
      "chip": "ym2612"
    },
    {
      "channel": 3,
      "note": 64,
      "start": 4.5203,
      "duration": 0.0161,
      "velocity": 120,
      "chip": "ym2612"
    },
    {
      "channel": 2,
      "note": 52,
      "start": 4.5214,
      "duration": 0.0161,
      "velocity": 100,
      "chip": "ym2612"
    },
    {
      "channel": 4,
      "note": 57,
      "start": 4.5352,
      "duration": 0.0161,
      "velocity": 120,
      "chip": "ym2612"
    },
    {
      "channel": 3,
      "note": 64,
      "start": 4.5364,
      "duration": 0.0161,
      "velocity": 120,
      "chip": "ym2612"
    },
    {
      "channel": 2,
      "note": 52,
      "start": 4.5375,
      "duration": 0.0161,
      "velocity": 100,
      "chip": "ym2612"
    },
    {
      "channel": 4,
      "note": 57,
      "start": 4.5513,
      "duration": 0.0161,
      "velocity": 120,
      "chip": "ym2612"
    },
    {
      "channel": 3,
      "note": 64,
      "start": 4.5525,
      "duration": 0.0161,
      "velocity": 120,
      "chip": "ym2612"
    },
    {
      "channel": 2,
      "note": 52,
      "start": 4.5536,
      "duration": 0.0161,
      "velocity": 100,
      "chip": "ym2612"
    },
    {
      "channel": 4,
      "note": 57,
      "start": 4.5675,
      "duration": 0.0161,
      "velocity": 120,
      "chip": "ym2612"
    },
    {
      "channel": 3,
      "note": 64,
      "start": 4.5686,
      "duration": 0.0161,
      "velocity": 120,
      "chip": "ym2612"
    },
    {
      "channel": 2,
      "note": 52,
      "start": 4.5697,
      "duration": 0.0161,
      "velocity": 100,
      "chip": "ym2612"
    },
    {
      "channel": 4,
      "note": 57,
      "start": 4.5836,
      "duration": 0.0161,
      "velocity": 120,
      "chip": "ym2612"
    },
    {
      "channel": 3,
      "note": 64,
      "start": 4.5847,
      "duration": 0.0161,
      "velocity": 120,
      "chip": "ym2612"
    },
    {
      "channel": 2,
      "note": 52,
      "start": 4.5858,
      "duration": 0.0161,
      "velocity": 100,
      "chip": "ym2612"
    },
    {
      "channel": 4,
      "note": 57,
      "start": 4.5997,
      "duration": 0.0161,
      "velocity": 120,
      "chip": "ym2612"
    },
    {
      "channel": 3,
      "note": 64,
      "start": 4.6008,
      "duration": 0.0161,
      "velocity": 120,
      "chip": "ym2612"
    },
    {
      "channel": 2,
      "note": 52,
      "start": 4.6019,
      "duration": 0.0161,
      "velocity": 100,
      "chip": "ym2612"
    },
    {
      "channel": 4,
      "note": 57,
      "start": 4.6158,
      "duration": 0.0161,
      "velocity": 120,
      "chip": "ym2612"
    },
    {
      "channel": 3,
      "note": 64,
      "start": 4.6169,
      "duration": 0.0161,
      "velocity": 120,
      "chip": "ym2612"
    },
    {
      "channel": 2,
      "note": 52,
      "start": 4.618,
      "duration": 0.0161,
      "velocity": 100,
      "chip": "ym2612"
    },
    {
      "channel": 4,
      "note": 57,
      "start": 4.6319,
      "duration": 0.0163,
      "velocity": 120,
      "chip": "ym2612"
    },
    {
      "channel": 3,
      "note": 64,
      "start": 4.633,
      "duration": 0.0163,
      "velocity": 120,
      "chip": "ym2612"
    },
    {
      "channel": 2,
      "note": 52,
      "start": 4.6341,
      "duration": 0.0163,
      "velocity": 100,
      "chip": "ym2612"
    },
    {
      "channel": 4,
      "note": 57,
      "start": 4.6482,
      "duration": 0.0163,
      "velocity": 120,
      "chip": "ym2612"
    },
    {
      "channel": 3,
      "note": 64,
      "start": 4.6494,
      "duration": 0.0163,
      "velocity": 120,
      "chip": "ym2612"
    },
    {
      "channel": 2,
      "note": 52,
      "start": 4.6505,
      "duration": 0.0163,
      "velocity": 100,
      "chip": "ym2612"
    },
    {
      "channel": 4,
      "note": 57,
      "start": 4.6645,
      "duration": 0.0193,
      "velocity": 120,
      "chip": "ym2612"
    },
    {
      "channel": 3,
      "note": 64,
      "start": 4.6656,
      "duration": 0.0197,
      "velocity": 120,
      "chip": "ym2612"
    },
    {
      "channel": 2,
      "note": 52,
      "start": 4.6668,
      "duration": 0.02,
      "velocity": 100,
      "chip": "ym2612"
    },
    {
      "channel": 0,
      "note": 36,
      "start": 4.6824,
      "duration": 0.0163,
      "velocity": 115,
      "chip": "ym2612"
    },
    {
      "channel": 4,
      "note": 57,
      "start": 4.6839,
      "duration": 0.016,
      "velocity": 120,
      "chip": "ym2612"
    },
    {
      "channel": 3,
      "note": 64,
      "start": 4.6854,
      "duration": 0.0158,
      "velocity": 120,
      "chip": "ym2612"
    },
    {
      "channel": 2,
      "note": 52,
      "start": 4.6868,
      "duration": 0.0155,
      "velocity": 100,
      "chip": "ym2612"
    },
    {
      "channel": 0,
      "note": 36,
      "start": 4.6987,
      "duration": 0.0167,
      "velocity": 115,
      "chip": "ym2612"
    },
    {
      "channel": 4,
      "note": 57,
      "start": 4.6999,
      "duration": 0.0166,
      "velocity": 120,
      "chip": "ym2612"
    },
    {
      "channel": 3,
      "note": 64,
      "start": 4.7011,
      "duration": 0.0166,
      "velocity": 120,
      "chip": "ym2612"
    },
    {
      "channel": 2,
      "note": 52,
      "start": 4.7024,
      "duration": 0.0164,
      "velocity": 100,
      "chip": "ym2612"
    },
    {
      "channel": 0,
      "note": 37,
      "start": 4.7154,
      "duration": 0.016,
      "velocity": 115,
      "chip": "ym2612"
    },
    {
      "channel": 4,
      "note": 57,
      "start": 4.7165,
      "duration": 0.016,
      "velocity": 120,
      "chip": "ym2612"
    },
    {
      "channel": 3,
      "note": 64,
      "start": 4.7177,
      "duration": 0.016,
      "velocity": 120,
      "chip": "ym2612"
    },
    {
      "channel": 2,
      "note": 52,
      "start": 4.7188,
      "duration": 0.016,
      "velocity": 100,
      "chip": "ym2612"
    },
    {
      "channel": 0,
      "note": 37,
      "start": 4.7314,
      "duration": 0.0141,
      "velocity": 115,
      "chip": "ym2612"
    },
    {
      "channel": 4,
      "note": 57,
      "start": 4.7325,
      "duration": 0.0141,
      "velocity": 120,
      "chip": "ym2612"
    },
    {
      "channel": 3,
      "note": 64,
      "start": 4.7337,
      "duration": 0.0141,
      "velocity": 120,
      "chip": "ym2612"
    },
    {
      "channel": 2,
      "note": 52,
      "start": 4.7348,
      "duration": 0.014,
      "velocity": 100,
      "chip": "ym2612"
    },
    {
      "channel": 0,
      "note": 38,
      "start": 4.7454,
      "duration": 0.0185,
      "velocity": 115,
      "chip": "ym2612"
    },
    {
      "channel": 4,
      "note": 57,
      "start": 4.7466,
      "duration": 0.0185,
      "velocity": 120,
      "chip": "ym2612"
    },
    {
      "channel": 3,
      "note": 64,
      "start": 4.7477,
      "duration": 0.0185,
      "velocity": 120,
      "chip": "ym2612"
    },
    {
      "channel": 2,
      "note": 52,
      "start": 4.7488,
      "duration": 0.0186,
      "velocity": 100,
      "chip": "ym2612"
    },
    {
      "channel": 0,
      "note": 38,
      "start": 4.7639,
      "duration": 0.0134,
      "velocity": 115,
      "chip": "ym2612"
    },
    {
      "channel": 4,
      "note": 57,
      "start": 4.7651,
      "duration": 0.0163,
      "velocity": 120,
      "chip": "ym2612"
    },
    {
      "channel": 3,
      "note": 64,
      "start": 4.7662,
      "duration": 0.0166,
      "velocity": 120,
      "chip": "ym2612"
    },
    {
      "channel": 2,
      "note": 52,
      "start": 4.7674,
      "duration": 0.0166,
      "velocity": 100,
      "chip": "ym2612"
    },
    {
      "channel": 0,
      "note": 39,
      "start": 4.7773,
      "duration": 0.0161,
      "velocity": 115,
      "chip": "ym2612"
    },
    {
      "channel": 4,
      "note": 56,
      "start": 4.7814,
      "duration": 0.0155,
      "velocity": 120,
      "chip": "ym2612"
    },
    {
      "channel": 3,
      "note": 63,
      "start": 4.7828,
      "duration": 0.0154,
      "velocity": 120,
      "chip": "ym2612"
    },
    {
      "channel": 2,
      "note": 52,
      "start": 4.784,
      "duration": 0.0153,
      "velocity": 100,
      "chip": "ym2612"
    },
    {
      "channel": 0,
      "note": 39,
      "start": 4.7934,
      "duration": 0.0161,
      "velocity": 115,
      "chip": "ym2612"
    },
    {
      "channel": 4,
      "note": 56,
      "start": 4.7969,
      "duration": 0.0138,
      "velocity": 120,
      "chip": "ym2612"
    },
    {
      "channel": 3,
      "note": 63,
      "start": 4.7982,
      "duration": 0.0139,
      "velocity": 120,
      "chip": "ym2612"
    },
    {
      "channel": 2,
      "note": 52,
      "start": 4.7993,
      "duration": 0.0139,
      "velocity": 100,
      "chip": "ym2612"
    },
    {
      "channel": 0,
      "note": 40,
      "start": 4.8095,
      "duration": 0.0161,
      "velocity": 115,
      "chip": "ym2612"
    },
    {
      "channel": 4,
      "note": 56,
      "start": 4.8107,
      "duration": 0.016,
      "velocity": 120,
      "chip": "ym2612"
    },
    {
      "channel": 3,
      "note": 63,
      "start": 4.8121,
      "duration": 0.0185,
      "velocity": 120,
      "chip": "ym2612"
    },
    {
      "channel": 2,
      "note": 52,
      "start": 4.8132,
      "duration": 0.0185,
      "velocity": 100,
      "chip": "ym2612"
    },
    {
      "channel": 0,
      "note": 40,
      "start": 4.8256,
      "duration": 0.0161,
      "velocity": 115,
      "chip": "ym2612"
    },
    {
      "channel": 4,
      "note": 56,
      "start": 4.8267,
      "duration": 0.0161,
      "velocity": 120,
      "chip": "ym2612"
    },
    {
      "channel": 3,
      "note": 63,
      "start": 4.8306,
      "duration": 0.0134,
      "velocity": 120,
      "chip": "ym2612"
    },
    {
      "channel": 2,
      "note": 52,
      "start": 4.8317,
      "duration": 0.0161,
      "velocity": 100,
      "chip": "ym2612"
    },
    {
      "channel": 0,
      "note": 40,
      "start": 4.8417,
      "duration": 0.0161,
      "velocity": 115,
      "chip": "ym2612"
    },
    {
      "channel": 4,
      "note": 56,
      "start": 4.8428,
      "duration": 0.0161,
      "velocity": 120,
      "chip": "ym2612"
    },
    {
      "channel": 3,
      "note": 63,
      "start": 4.8439,
      "duration": 0.0161,
      "velocity": 120,
      "chip": "ym2612"
    },
    {
      "channel": 2,
      "note": 52,
      "start": 4.8478,
      "duration": 0.0157,
      "velocity": 100,
      "chip": "ym2612"
    },
    {
      "channel": 0,
      "note": 41,
      "start": 4.8578,
      "duration": 0.0161,
      "velocity": 115,
      "chip": "ym2612"
    },
    {
      "channel": 4,
      "note": 56,
      "start": 4.8589,
      "duration": 0.0163,
      "velocity": 120,
      "chip": "ym2612"
    },
    {
      "channel": 3,
      "note": 63,
      "start": 4.86,
      "duration": 0.0166,
      "velocity": 120,
      "chip": "ym2612"
    },
    {
      "channel": 2,
      "note": 52,
      "start": 4.8635,
      "duration": 0.0149,
      "velocity": 100,
      "chip": "ym2612"
    },
    {
      "channel": 0,
      "note": 41,
      "start": 4.8739,
      "duration": 0.0161,
      "velocity": 115,
      "chip": "ym2612"
    },
    {
      "channel": 4,
      "note": 55,
      "start": 4.8753,
      "duration": 0.0159,
      "velocity": 120,
      "chip": "ym2612"
    },
    {
      "channel": 3,
      "note": 62,
      "start": 4.8766,
      "duration": 0.0157,
      "velocity": 120,
      "chip": "ym2612"
    },
    {
      "channel": 2,
      "note": 52,
      "start": 4.8784,
      "duration": 0.0151,
      "velocity": 100,
      "chip": "ym2612"
    },
    {
      "channel": 0,
      "note": 42,
      "start": 4.89,
      "duration": 0.0161,
      "velocity": 115,
      "chip": "ym2612"
    },
    {
      "channel": 4,
      "note": 55,
      "start": 4.8912,
      "duration": 0.0161,
      "velocity": 120,
      "chip": "ym2612"
    },
    {
      "channel": 3,
      "note": 62,
      "start": 4.8924,
      "duration": 0.016,
      "velocity": 120,
      "chip": "ym2612"
    },
    {
      "channel": 2,
      "note": 52,
      "start": 4.8936,
      "duration": 0.0159,
      "velocity": 100,
      "chip": "ym2612"
    },
    {
      "channel": 0,
      "note": 42,
      "start": 4.9061,
      "duration": 0.0161,
      "velocity": 115,
      "chip": "ym2612"
    },
    {
      "channel": 4,
      "note": 55,
      "start": 4.9073,
      "duration": 0.0161,
      "velocity": 120,
      "chip": "ym2612"
    },
    {
      "channel": 3,
      "note": 62,
      "start": 4.9084,
      "duration": 0.0161,
      "velocity": 120,
      "chip": "ym2612"
    },
    {
      "channel": 2,
      "note": 52,
      "start": 4.9095,
      "duration": 0.0161,
      "velocity": 100,
      "chip": "ym2612"
    },
    {
      "channel": 0,
      "note": 43,
      "start": 4.9222,
      "duration": 0.0161,
      "velocity": 115,
      "chip": "ym2612"
    },
    {
      "channel": 4,
      "note": 55,
      "start": 4.9233,
      "duration": 0.0161,
      "velocity": 120,
      "chip": "ym2612"
    },
    {
      "channel": 3,
      "note": 62,
      "start": 4.9245,
      "duration": 0.0161,
      "velocity": 120,
      "chip": "ym2612"
    },
    {
      "channel": 2,
      "note": 52,
      "start": 4.9256,
      "duration": 0.0161,
      "velocity": 100,
      "chip": "ym2612"
    },
    {
      "channel": 0,
      "note": 43,
      "start": 4.9383,
      "duration": 0.0161,
      "velocity": 115,
      "chip": "ym2612"
    },
    {
      "channel": 4,
      "note": 55,
      "start": 4.9394,
      "duration": 0.0161,
      "velocity": 120,
      "chip": "ym2612"
    },
    {
      "channel": 3,
      "note": 62,
      "start": 4.9406,
      "duration": 0.0161,
      "velocity": 120,
      "chip": "ym2612"
    },
    {
      "channel": 2,
      "note": 52,
      "start": 4.9417,
      "duration": 0.0161,
      "velocity": 100,
      "chip": "ym2612"
    },
    {
      "channel": 0,
      "note": 44,
      "start": 4.9544,
      "duration": 0.0161,
      "velocity": 115,
      "chip": "ym2612"
    },
    {
      "channel": 4,
      "note": 55,
      "start": 4.9555,
      "duration": 0.0163,
      "velocity": 120,
      "chip": "ym2612"
    },
    {
      "channel": 3,
      "note": 62,
      "start": 4.9567,
      "duration": 0.0166,
      "velocity": 120,
      "chip": "ym2612"
    },
    {
      "channel": 2,
      "note": 52,
      "start": 4.9578,
      "duration": 0.0166,
      "velocity": 100,
      "chip": "ym2612"
    },
    {
      "channel": 0,
      "note": 44,
      "start": 4.9705,
      "duration": 0.0161,
      "velocity": 115,
      "chip": "ym2612"
    },
    {
      "channel": 4,
      "note": 54,
      "start": 4.9719,
      "duration": 0.0159,
      "velocity": 120,
      "chip": "ym2612"
    },
    {
      "channel": 3,
      "note": 61,
      "start": 4.9733,
      "duration": 0.0157,
      "velocity": 120,
      "chip": "ym2612"
    },
    {
      "channel": 2,
      "note": 52,
      "start": 4.9744,
      "duration": 0.0157,
      "velocity": 100,
      "chip": "ym2612"
    },
    {
      "channel": 0,
      "note": 44,
      "start": 4.9866,
      "duration": 0.0161,
      "velocity": 115,
      "chip": "ym2612"
    },
    {
      "channel": 4,
      "note": 54,
      "start": 4.9878,
      "duration": 0.016,
      "velocity": 120,
      "chip": "ym2612"
    },
    {
      "channel": 3,
      "note": 61,
      "start": 4.989,
      "duration": 0.016,
      "velocity": 120,
      "chip": "ym2612"
    },
    {
      "channel": 2,
      "note": 52,
      "start": 4.9901,
      "duration": 0.016,
      "velocity": 100,
      "chip": "ym2612"
    },
    {
      "channel": 0,
      "note": 45,
      "start": 5.0027,
      "duration": 0.0161,
      "velocity": 115,
      "chip": "ym2612"
    },
    {
      "channel": 4,
      "note": 54,
      "start": 5.0038,
      "duration": 0.0162,
      "velocity": 120,
      "chip": "ym2612"
    },
    {
      "channel": 3,
      "note": 61,
      "start": 5.005,
      "duration": 0.0161,
      "velocity": 120,
      "chip": "ym2612"
    },
    {
      "channel": 2,
      "note": 52,
      "start": 5.0061,
      "duration": 0.0161,
      "velocity": 100,
      "chip": "ym2612"
    },
    {
      "channel": 0,
      "note": 45,
      "start": 5.0188,
      "duration": 0.0161,
      "velocity": 115,
      "chip": "ym2612"
    },
    {
      "channel": 4,
      "note": 54,
      "start": 5.02,
      "duration": 0.0161,
      "velocity": 120,
      "chip": "ym2612"
    },
    {
      "channel": 3,
      "note": 61,
      "start": 5.021,
      "duration": 0.0162,
      "velocity": 120,
      "chip": "ym2612"
    },
    {
      "channel": 2,
      "note": 52,
      "start": 5.0222,
      "duration": 0.0161,
      "velocity": 100,
      "chip": "ym2612"
    },
    {
      "channel": 0,
      "note": 46,
      "start": 5.0349,
      "duration": 0.0161,
      "velocity": 115,
      "chip": "ym2612"
    },
    {
      "channel": 4,
      "note": 54,
      "start": 5.0361,
      "duration": 0.0161,
      "velocity": 120,
      "chip": "ym2612"
    },
    {
      "channel": 3,
      "note": 61,
      "start": 5.0372,
      "duration": 0.0161,
      "velocity": 120,
      "chip": "ym2612"
    },
    {
      "channel": 2,
      "note": 52,
      "start": 5.0383,
      "duration": 0.0161,
      "velocity": 100,
      "chip": "ym2612"
    },
    {
      "channel": 0,
      "note": 46,
      "start": 5.051,
      "duration": 0.0178,
      "velocity": 124,
      "chip": "ym2612"
    },
    {
      "channel": 4,
      "note": 54,
      "start": 5.0522,
      "duration": 0.0181,
      "velocity": 120,
      "chip": "ym2612"
    },
    {
      "channel": 3,
      "note": 61,
      "start": 5.0533,
      "duration": 0.0183,
      "velocity": 120,
      "chip": "ym2612"
    },
    {
      "channel": 2,
      "note": 52,
      "start": 5.0544,
      "duration": 0.0187,
      "velocity": 100,
      "chip": "ym2612"
    },
    {
      "channel": 0,
      "note": 84,
      "start": 5.0689,
      "duration": 0.0144,
      "velocity": 124,
      "chip": "ym2612"
    },
    {
      "channel": 4,
      "note": 53,
      "start": 5.0703,
      "duration": 0.0142,
      "velocity": 120,
      "chip": "ym2612"
    },
    {
      "channel": 3,
      "note": 60,
      "start": 5.0717,
      "duration": 0.0139,
      "velocity": 120,
      "chip": "ym2612"
    },
    {
      "channel": 2,
      "note": 52,
      "start": 5.0732,
      "duration": 0.0137,
      "velocity": 100,
      "chip": "ym2612"
    },
    {
      "channel": 0,
      "note": 82,
      "start": 5.0833,
      "duration": 0.016,
      "velocity": 124,
      "chip": "ym2612"
    },
    {
      "channel": 4,
      "note": 53,
      "start": 5.0845,
      "duration": 0.016,
      "velocity": 120,
      "chip": "ym2612"
    },
    {
      "channel": 3,
      "note": 60,
      "start": 5.0856,
      "duration": 0.016,
      "velocity": 120,
      "chip": "ym2612"
    },
    {
      "channel": 2,
      "note": 52,
      "start": 5.0868,
      "duration": 0.0159,
      "velocity": 100,
      "chip": "ym2612"
    },
    {
      "channel": 0,
      "note": 80,
      "start": 5.0993,
      "duration": 0.0161,
      "velocity": 124,
      "chip": "ym2612"
    },
    {
      "channel": 4,
      "note": 53,
      "start": 5.1005,
      "duration": 0.0161,
      "velocity": 120,
      "chip": "ym2612"
    },
    {
      "channel": 3,
      "note": 60,
      "start": 5.1016,
      "duration": 0.0161,
      "velocity": 120,
      "chip": "ym2612"
    },
    {
      "channel": 2,
      "note": 52,
      "start": 5.1027,
      "duration": 0.0161,
      "velocity": 100,
      "chip": "ym2612"
    },
    {
      "channel": 0,
      "note": 77,
      "start": 5.1154,
      "duration": 0.0163,
      "velocity": 124,
      "chip": "ym2612"
    },
    {
      "channel": 4,
      "note": 53,
      "start": 5.1166,
      "duration": 0.0162,
      "velocity": 120,
      "chip": "ym2612"
    },
    {
      "channel": 3,
      "note": 60,
      "start": 5.1177,
      "duration": 0.0163,
      "velocity": 120,
      "chip": "ym2612"
    },
    {
      "channel": 2,
      "note": 52,
      "start": 5.1188,
      "duration": 0.0163,
      "velocity": 100,
      "chip": "ym2612"
    },
    {
      "channel": 0,
      "note": 75,
      "start": 5.1317,
      "duration": 0.0159,
      "velocity": 124,
      "chip": "ym2612"
    },
    {
      "channel": 4,
      "note": 53,
      "start": 5.1328,
      "duration": 0.016,
      "velocity": 120,
      "chip": "ym2612"
    },
    {
      "channel": 3,
      "note": 60,
      "start": 5.134,
      "duration": 0.0159,
      "velocity": 120,
      "chip": "ym2612"
    },
    {
      "channel": 2,
      "note": 52,
      "start": 5.1351,
      "duration": 0.0159,
      "velocity": 100,
      "chip": "ym2612"
    },
    {
      "channel": 0,
      "note": 72,
      "start": 5.1476,
      "duration": 0.0178,
      "velocity": 124,
      "chip": "ym2612"
    },
    {
      "channel": 4,
      "note": 53,
      "start": 5.1488,
      "duration": 0.0179,
      "velocity": 120,
      "chip": "ym2612"
    },
    {
      "channel": 3,
      "note": 60,
      "start": 5.1499,
      "duration": 0.0183,
      "velocity": 120,
      "chip": "ym2612"
    },
    {
      "channel": 2,
      "note": 52,
      "start": 5.151,
      "duration": 0.0183,
      "velocity": 100,
      "chip": "ym2612"
    },
    {
      "channel": 0,
      "note": 70,
      "start": 5.1654,
      "duration": 0.0167,
      "velocity": 124,
      "chip": "ym2612"
    },
    {
      "channel": 4,
      "note": 52,
      "start": 5.1668,
      "duration": 0.0165,
      "velocity": 120,
      "chip": "ym2612"
    },
    {
      "channel": 3,
      "note": 59,
      "start": 5.1682,
      "duration": 0.0162,
      "velocity": 120,
      "chip": "ym2612"
    },
    {
      "channel": 2,
      "note": 52,
      "start": 5.1693,
      "duration": 0.0162,
      "velocity": 100,
      "chip": "ym2612"
    },
    {
      "channel": 0,
      "note": 68,
      "start": 5.1821,
      "duration": 0.0162,
      "velocity": 124,
      "chip": "ym2612"
    },
    {
      "channel": 4,
      "note": 52,
      "start": 5.1833,
      "duration": 0.0162,
      "velocity": 120,
      "chip": "ym2612"
    },
    {
      "channel": 3,
      "note": 59,
      "start": 5.1844,
      "duration": 0.0161,
      "velocity": 120,
      "chip": "ym2612"
    },
    {
      "channel": 2,
      "note": 52,
      "start": 5.1856,
      "duration": 0.0162,
      "velocity": 100,
      "chip": "ym2612"
    },
    {
      "channel": 0,
      "note": 65,
      "start": 5.1983,
      "duration": 0.0141,
      "velocity": 124,
      "chip": "ym2612"
    },
    {
      "channel": 4,
      "note": 52,
      "start": 5.1994,
      "duration": 0.0141,
      "velocity": 120,
      "chip": "ym2612"
    },
    {
      "channel": 3,
      "note": 59,
      "start": 5.2006,
      "duration": 0.0141,
      "velocity": 120,
      "chip": "ym2612"
    },
    {
      "channel": 2,
      "note": 52,
      "start": 5.2017,
      "duration": 0.014,
      "velocity": 100,
      "chip": "ym2612"
    },
    {
      "channel": 0,
      "note": 63,
      "start": 5.2123,
      "duration": 0.0177,
      "velocity": 1,
      "chip": "ym2612"
    },
    {
      "channel": 4,
      "note": 52,
      "start": 5.2135,
      "duration": 0.0177,
      "velocity": 120,
      "chip": "ym2612"
    },
    {
      "channel": 3,
      "note": 59,
      "start": 5.2146,
      "duration": 0.0177,
      "velocity": 120,
      "chip": "ym2612"
    },
    {
      "channel": 2,
      "note": 52,
      "start": 5.2157,
      "duration": 0.0178,
      "velocity": 100,
      "chip": "ym2612"
    },
    {
      "channel": 4,
      "note": 52,
      "start": 5.2312,
      "duration": 0.0125,
      "velocity": 120,
      "chip": "ym2612"
    },
    {
      "channel": 3,
      "note": 59,
      "start": 5.2323,
      "duration": 0.0153,
      "velocity": 120,
      "chip": "ym2612"
    },
    {
      "channel": 2,
      "note": 52,
      "start": 5.2335,
      "duration": 0.0153,
      "velocity": 100,
      "chip": "ym2612"
    },
    {
      "channel": 4,
      "note": 52,
      "start": 5.2437,
      "duration": 0.0221,
      "velocity": 120,
      "chip": "ym2612"
    },
    {
      "channel": 3,
      "note": 59,
      "start": 5.2476,
      "duration": 0.0197,
      "velocity": 120,
      "chip": "ym2612"
    },
    {
      "channel": 2,
      "note": 52,
      "start": 5.2487,
      "duration": 0.02,
      "velocity": 100,
      "chip": "ym2612"
    },
    {
      "channel": 0,
      "note": 36,
      "start": 5.2645,
      "duration": 0.012,
      "velocity": 115,
      "chip": "ym2612"
    },
    {
      "channel": 4,
      "note": 51,
      "start": 5.2659,
      "duration": 0.0121,
      "velocity": 120,
      "chip": "ym2612"
    },
    {
      "channel": 3,
      "note": 58,
      "start": 5.2673,
      "duration": 0.0119,
      "velocity": 120,
      "chip": "ym2612"
    },
    {
      "channel": 2,
      "note": 52,
      "start": 5.2688,
      "duration": 0.0116,
      "velocity": 100,
      "chip": "ym2612"
    },
    {
      "channel": 0,
      "note": 36,
      "start": 5.2765,
      "duration": 0.016,
      "velocity": 115,
      "chip": "ym2612"
    },
    {
      "channel": 4,
      "note": 51,
      "start": 5.278,
      "duration": 0.0156,
      "velocity": 120,
      "chip": "ym2612"
    },
    {
      "channel": 3,
      "note": 58,
      "start": 5.2792,
      "duration": 0.0183,
      "velocity": 120,
      "chip": "ym2612"
    },
    {
      "channel": 2,
      "note": 52,
      "start": 5.2804,
      "duration": 0.0183,
      "velocity": 100,
      "chip": "ym2612"
    },
    {
      "channel": 0,
      "note": 37,
      "start": 5.2925,
      "duration": 0.0161,
      "velocity": 115,
      "chip": "ym2612"
    },
    {
      "channel": 4,
      "note": 51,
      "start": 5.2936,
      "duration": 0.0162,
      "velocity": 120,
      "chip": "ym2612"
    },
    {
      "channel": 3,
      "note": 58,
      "start": 5.2975,
      "duration": 0.0161,
      "velocity": 120,
      "chip": "ym2612"
    },
    {
      "channel": 2,
      "note": 52,
      "start": 5.2987,
      "duration": 0.0161,
      "velocity": 100,
      "chip": "ym2612"
    },
    {
      "channel": 0,
      "note": 37,
      "start": 5.3086,
      "duration": 0.0161,
      "velocity": 115,
      "chip": "ym2612"
    },
    {
      "channel": 4,
      "note": 51,
      "start": 5.3098,
      "duration": 0.0161,
      "velocity": 120,
      "chip": "ym2612"
    },
    {
      "channel": 3,
      "note": 58,
      "start": 5.3137,
      "duration": 0.0133,
      "velocity": 120,
      "chip": "ym2612"
    },
    {
      "channel": 2,
      "note": 52,
      "start": 5.3148,
      "duration": 0.0158,
      "velocity": 100,
      "chip": "ym2612"
    },
    {
      "channel": 0,
      "note": 38,
      "start": 5.3247,
      "duration": 0.0161,
      "velocity": 115,
      "chip": "ym2612"
    },
    {
      "channel": 4,
      "note": 51,
      "start": 5.3259,
      "duration": 0.0161,
      "velocity": 120,
      "chip": "ym2612"
    },
    {
      "channel": 3,
      "note": 58,
      "start": 5.327,
      "duration": 0.0161,
      "velocity": 120,
      "chip": "ym2612"
    },
    {
      "channel": 2,
      "note": 52,
      "start": 5.3305,
      "duration": 0.014,
      "velocity": 100,
      "chip": "ym2612"
    },
    {
      "channel": 0,
      "note": 38,
      "start": 5.3408,
      "duration": 0.0162,
      "velocity": 115,
      "chip": "ym2612"
    },
    {
      "channel": 4,
      "note": 51,
      "start": 5.342,
      "duration": 0.0163,
      "velocity": 120,
      "chip": "ym2612"
    },
    {
      "channel": 3,
      "note": 58,
      "start": 5.3431,
      "duration": 0.0166,
      "velocity": 120,
      "chip": "ym2612"
    },
    {
      "channel": 2,
      "note": 52,
      "start": 5.3445,
      "duration": 0.0191,
      "velocity": 100,
      "chip": "ym2612"
    },
    {
      "channel": 0,
      "note": 39,
      "start": 5.3569,
      "duration": 0.0161,
      "velocity": 115,
      "chip": "ym2612"
    },
    {
      "channel": 4,
      "note": 50,
      "start": 5.3583,
      "duration": 0.0159,
      "velocity": 120,
      "chip": "ym2612"
    },
    {
      "channel": 3,
      "note": 57,
      "start": 5.3597,
      "duration": 0.0157,
      "velocity": 120,
      "chip": "ym2612"
    },
    {
      "channel": 2,
      "note": 52,
      "start": 5.3636,
      "duration": 0.0129,
      "velocity": 100,
      "chip": "ym2612"
    },
    {
      "channel": 0,
      "note": 39,
      "start": 5.373,
      "duration": 0.0161,
      "velocity": 115,
      "chip": "ym2612"
    },
    {
      "channel": 4,
      "note": 50,
      "start": 5.3742,
      "duration": 0.016,
      "velocity": 120,
      "chip": "ym2612"
    },
    {
      "channel": 3,
      "note": 57,
      "start": 5.3754,
      "duration": 0.016,
      "velocity": 120,
      "chip": "ym2612"
    },
    {
      "channel": 2,
      "note": 52,
      "start": 5.3765,
      "duration": 0.016,
      "velocity": 100,
      "chip": "ym2612"
    },
    {
      "channel": 0,
      "note": 40,
      "start": 5.3891,
      "duration": 0.0161,
      "velocity": 115,
      "chip": "ym2612"
    },
    {
      "channel": 4,
      "note": 50,
      "start": 5.3903,
      "duration": 0.0161,
      "velocity": 120,
      "chip": "ym2612"
    },
    {
      "channel": 3,
      "note": 57,
      "start": 5.3914,
      "duration": 0.0161,
      "velocity": 120,
      "chip": "ym2612"
    },
    {
      "channel": 2,
      "note": 52,
      "start": 5.3926,
      "duration": 0.0161,
      "velocity": 100,
      "chip": "ym2612"
    },
    {
      "channel": 0,
      "note": 40,
      "start": 5.4052,
      "duration": 0.0161,
      "velocity": 115,
      "chip": "ym2612"
    },
    {
      "channel": 4,
      "note": 50,
      "start": 5.4063,
      "duration": 0.0161,
      "velocity": 120,
      "chip": "ym2612"
    },
    {
      "channel": 3,
      "note": 57,
      "start": 5.4075,
      "duration": 0.0161,
      "velocity": 120,
      "chip": "ym2612"
    },
    {
      "channel": 2,
      "note": 52,
      "start": 5.4086,
      "duration": 0.0161,
      "velocity": 100,
      "chip": "ym2612"
    },
    {
      "channel": 0,
      "note": 40,
      "start": 5.4213,
      "duration": 0.0161,
      "velocity": 115,
      "chip": "ym2612"
    },
    {
      "channel": 4,
      "note": 50,
      "start": 5.4224,
      "duration": 0.0161,
      "velocity": 120,
      "chip": "ym2612"
    },
    {
      "channel": 3,
      "note": 57,
      "start": 5.4236,
      "duration": 0.0161,
      "velocity": 120,
      "chip": "ym2612"
    },
    {
      "channel": 2,
      "note": 52,
      "start": 5.4247,
      "duration": 0.0161,
      "velocity": 100,
      "chip": "ym2612"
    },
    {
      "channel": 0,
      "note": 41,
      "start": 5.4374,
      "duration": 0.0179,
      "velocity": 115,
      "chip": "ym2612"
    },
    {
      "channel": 4,
      "note": 50,
      "start": 5.4385,
      "duration": 0.0181,
      "velocity": 120,
      "chip": "ym2612"
    },
    {
      "channel": 3,
      "note": 57,
      "start": 5.4397,
      "duration": 0.0184,
      "velocity": 120,
      "chip": "ym2612"
    },
    {
      "channel": 2,
      "note": 52,
      "start": 5.4408,
      "duration": 0.0187,
      "velocity": 100,
      "chip": "ym2612"
    },
    {
      "channel": 0,
      "note": 36,
      "start": 5.4553,
      "duration": 0.0144,
      "velocity": 115,
      "chip": "ym2612"
    },
    {
      "channel": 4,
      "note": 49,
      "start": 5.4567,
      "duration": 0.0141,
      "velocity": 120,
      "chip": "ym2612"
    },
    {
      "channel": 3,
      "note": 56,
      "start": 5.4581,
      "duration": 0.0139,
      "velocity": 120,
      "chip": "ym2612"
    },
    {
      "channel": 2,
      "note": 52,
      "start": 5.4595,
      "duration": 0.0137,
      "velocity": 100,
      "chip": "ym2612"
    },
    {
      "channel": 0,
      "note": 36,
      "start": 5.4697,
      "duration": 0.0161,
      "velocity": 115,
      "chip": "ym2612"
    },
    {
      "channel": 4,
      "note": 49,
      "start": 5.4709,
      "duration": 0.016,
      "velocity": 120,
      "chip": "ym2612"
    },
    {
      "channel": 3,
      "note": 56,
      "start": 5.4721,
      "duration": 0.016,
      "velocity": 120,
      "chip": "ym2612"
    },
    {
      "channel": 2,
      "note": 52,
      "start": 5.4733,
      "duration": 0.0159,
      "velocity": 100,
      "chip": "ym2612"
    },
    {
      "channel": 0,
      "note": 37,
      "start": 5.4858,
      "duration": 0.0161,
      "velocity": 115,
      "chip": "ym2612"
    },
    {
      "channel": 4,
      "note": 49,
      "start": 5.4869,
      "duration": 0.0161,
      "velocity": 120,
      "chip": "ym2612"
    },
    {
      "channel": 3,
      "note": 56,
      "start": 5.488,
      "duration": 0.0161,
      "velocity": 120,
      "chip": "ym2612"
    },
    {
      "channel": 2,
      "note": 52,
      "start": 5.4892,
      "duration": 0.0161,
      "velocity": 100,
      "chip": "ym2612"
    },
    {
      "channel": 0,
      "note": 37,
      "start": 5.5018,
      "duration": 0.0161,
      "velocity": 115,
      "chip": "ym2612"
    },
    {
      "channel": 4,
      "note": 49,
      "start": 5.503,
      "duration": 0.0161,
      "velocity": 120,
      "chip": "ym2612"
    },
    {
      "channel": 3,
      "note": 56,
      "start": 5.5041,
      "duration": 0.0161,
      "velocity": 120,
      "chip": "ym2612"
    },
    {
      "channel": 2,
      "note": 52,
      "start": 5.5053,
      "duration": 0.0161,
      "velocity": 100,
      "chip": "ym2612"
    },
    {
      "channel": 0,
      "note": 38,
      "start": 5.5179,
      "duration": 0.0161,
      "velocity": 115,
      "chip": "ym2612"
    },
    {
      "channel": 4,
      "note": 49,
      "start": 5.5191,
      "duration": 0.0161,
      "velocity": 120,
      "chip": "ym2612"
    },
    {
      "channel": 3,
      "note": 56,
      "start": 5.5202,
      "duration": 0.0161,
      "velocity": 120,
      "chip": "ym2612"
    },
    {
      "channel": 2,
      "note": 52,
      "start": 5.5214,
      "duration": 0.0161,
      "velocity": 100,
      "chip": "ym2612"
    },
    {
      "channel": 0,
      "note": 38,
      "start": 5.534,
      "duration": 0.0161,
      "velocity": 115,
      "chip": "ym2612"
    },
    {
      "channel": 4,
      "note": 49,
      "start": 5.5352,
      "duration": 0.0163,
      "velocity": 120,
      "chip": "ym2612"
    },
    {
      "channel": 3,
      "note": 56,
      "start": 5.5363,
      "duration": 0.0166,
      "velocity": 120,
      "chip": "ym2612"
    },
    {
      "channel": 2,
      "note": 52,
      "start": 5.5375,
      "duration": 0.0166,
      "velocity": 100,
      "chip": "ym2612"
    },
    {
      "channel": 0,
      "note": 39,
      "start": 5.5501,
      "duration": 0.0161,
      "velocity": 115,
      "chip": "ym2612"
    },
    {
      "channel": 4,
      "note": 48,
      "start": 5.5515,
      "duration": 0.0159,
      "velocity": 120,
      "chip": "ym2612"
    },
    {
      "channel": 3,
      "note": 55,
      "start": 5.5529,
      "duration": 0.0157,
      "velocity": 120,
      "chip": "ym2612"
    },
    {
      "channel": 2,
      "note": 52,
      "start": 5.5541,
      "duration": 0.0157,
      "velocity": 100,
      "chip": "ym2612"
    },
    {
      "channel": 0,
      "note": 39,
      "start": 5.5662,
      "duration": 0.0161,
      "velocity": 115,
      "chip": "ym2612"
    },
    {
      "channel": 4,
      "note": 48,
      "start": 5.5674,
      "duration": 0.016,
      "velocity": 120,
      "chip": "ym2612"
    },
    {
      "channel": 3,
      "note": 55,
      "start": 5.5686,
      "duration": 0.016,
      "velocity": 120,
      "chip": "ym2612"
    },
    {
      "channel": 2,
      "note": 52,
      "start": 5.5698,
      "duration": 0.016,
      "velocity": 100,
      "chip": "ym2612"
    },
    {
      "channel": 0,
      "note": 40,
      "start": 5.5823,
      "duration": 0.0162,
      "velocity": 115,
      "chip": "ym2612"
    },
    {
      "channel": 4,
      "note": 48,
      "start": 5.5835,
      "duration": 0.0161,
      "velocity": 120,
      "chip": "ym2612"
    },
    {
      "channel": 3,
      "note": 55,
      "start": 5.5846,
      "duration": 0.0162,
      "velocity": 120,
      "chip": "ym2612"
    },
    {
      "channel": 2,
      "note": 52,
      "start": 5.5858,
      "duration": 0.0161,
      "velocity": 100,
      "chip": "ym2612"
    },
    {
      "channel": 0,
      "note": 40,
      "start": 5.5985,
      "duration": 0.016,
      "velocity": 115,
      "chip": "ym2612"
    },
    {
      "channel": 4,
      "note": 48,
      "start": 5.5996,
      "duration": 0.0161,
      "velocity": 120,
      "chip": "ym2612"
    },
    {
      "channel": 3,
      "note": 55,
      "start": 5.6008,
      "duration": 0.016,
      "velocity": 120,
      "chip": "ym2612"
    },
    {
      "channel": 2,
      "note": 52,
      "start": 5.6019,
      "duration": 0.016,
      "velocity": 100,
      "chip": "ym2612"
    },
    {
      "channel": 0,
      "note": 40,
      "start": 5.6145,
      "duration": 0.0175,
      "velocity": 115,
      "chip": "ym2612"
    },
    {
      "channel": 4,
      "note": 48,
      "start": 5.6157,
      "duration": 0.0175,
      "velocity": 120,
      "chip": "ym2612"
    },
    {
      "channel": 3,
      "note": 55,
      "start": 5.6168,
      "duration": 0.0176,
      "velocity": 120,
      "chip": "ym2612"
    },
    {
      "channel": 2,
      "note": 52,
      "start": 5.6179,
      "duration": 0.0175,
      "velocity": 100,
      "chip": "ym2612"
    },
    {
      "channel": 0,
      "note": 41,
      "start": 5.632,
      "duration": 0.0185,
      "velocity": 115,
      "chip": "ym2612"
    },
    {
      "channel": 4,
      "note": 48,
      "start": 5.6332,
      "duration": 0.0187,
      "velocity": 120,
      "chip": "ym2612"
    },
    {
      "channel": 3,
      "note": 55,
      "start": 5.6344,
      "duration": 0.019,
      "velocity": 120,
      "chip": "ym2612"
    },
    {
      "channel": 2,
      "note": 52,
      "start": 5.6354,
      "duration": 0.0193,
      "velocity": 100,
      "chip": "ym2612"
    },
    {
      "channel": 0,
      "note": 36,
      "start": 5.6505,
      "duration": 0.0146,
      "velocity": 115,
      "chip": "ym2612"
    },
    {
      "channel": 4,
      "note": 47,
      "start": 5.6519,
      "duration": 0.0144,
      "velocity": 120,
      "chip": "ym2612"
    },
    {
      "channel": 3,
      "note": 54,
      "start": 5.6533,
      "duration": 0.0142,
      "velocity": 120,
      "chip": "ym2612"
    },
    {
      "channel": 2,
      "note": 52,
      "start": 5.6548,
      "duration": 0.0139,
      "velocity": 100,
      "chip": "ym2612"
    },
    {
      "channel": 0,
      "note": 36,
      "start": 5.6651,
      "duration": 0.0142,
      "velocity": 115,
      "chip": "ym2612"
    },
    {
      "channel": 4,
      "note": 47,
      "start": 5.6663,
      "duration": 0.0141,
      "velocity": 120,
      "chip": "ym2612"
    },
    {
      "channel": 3,
      "note": 54,
      "start": 5.6675,
      "duration": 0.0141,
      "velocity": 120,
      "chip": "ym2612"
    },
    {
      "channel": 2,
      "note": 52,
      "start": 5.6686,
      "duration": 0.0141,
      "velocity": 100,
      "chip": "ym2612"
    },
    {
      "channel": 0,
      "note": 37,
      "start": 5.6793,
      "duration": 0.0185,
      "velocity": 115,
      "chip": "ym2612"
    },
    {
      "channel": 4,
      "note": 47,
      "start": 5.6804,
      "duration": 0.0185,
      "velocity": 120,
      "chip": "ym2612"
    },
    {
      "channel": 3,
      "note": 54,
      "start": 5.6815,
      "duration": 0.0185,
      "velocity": 120,
      "chip": "ym2612"
    },
    {
      "channel": 2,
      "note": 52,
      "start": 5.6827,
      "duration": 0.0185,
      "velocity": 100,
      "chip": "ym2612"
    },
    {
      "channel": 0,
      "note": 37,
      "start": 5.6978,
      "duration": 0.0161,
      "velocity": 115,
      "chip": "ym2612"
    },
    {
      "channel": 4,
      "note": 47,
      "start": 5.6989,
      "duration": 0.0162,
      "velocity": 120,
      "chip": "ym2612"
    },
    {
      "channel": 3,
      "note": 54,
      "start": 5.7001,
      "duration": 0.0161,
      "velocity": 120,
      "chip": "ym2612"
    },
    {
      "channel": 2,
      "note": 52,
      "start": 5.7012,
      "duration": 0.0161,
      "velocity": 100,
      "chip": "ym2612"
    },
    {
      "channel": 0,
      "note": 38,
      "start": 5.7139,
      "duration": 0.0134,
      "velocity": 115,
      "chip": "ym2612"
    },
    {
      "channel": 4,
      "note": 47,
      "start": 5.7151,
      "duration": 0.0157,
      "velocity": 120,
      "chip": "ym2612"
    },
    {
      "channel": 3,
      "note": 54,
      "start": 5.7161,
      "duration": 0.0158,
      "velocity": 120,
      "chip": "ym2612"
    },
    {
      "channel": 2,
      "note": 52,
      "start": 5.7173,
      "duration": 0.0157,
      "velocity": 100,
      "chip": "ym2612"
    },
    {
      "channel": 0,
      "note": 38,
      "start": 5.7272,
      "duration": 0.0161,
      "velocity": 115,
      "chip": "ym2612"
    },
    {
      "channel": 4,
      "note": 47,
      "start": 5.7308,
      "duration": 0.0142,
      "velocity": 120,
      "chip": "ym2612"
    },
    {
      "channel": 3,
      "note": 54,
      "start": 5.7319,
      "duration": 0.0145,
      "velocity": 120,
      "chip": "ym2612"
    },
    {
      "channel": 2,
      "note": 52,
      "start": 5.733,
      "duration": 0.0146,
      "velocity": 100,
      "chip": "ym2612"
    },
    {
      "channel": 0,
      "note": 39,
      "start": 5.7433,
      "duration": 0.0161,
      "velocity": 115,
      "chip": "ym2612"
    },
    {
      "channel": 4,
      "note": 46,
      "start": 5.7451,
      "duration": 0.0183,
      "velocity": 120,
      "chip": "ym2612"
    },
    {
      "channel": 3,
      "note": 53,
      "start": 5.7465,
      "duration": 0.018,
      "velocity": 120,
      "chip": "ym2612"
    },
    {
      "channel": 2,
      "note": 52,
      "start": 5.7476,
      "duration": 0.0181,
      "velocity": 100,
      "chip": "ym2612"
    },
    {
      "channel": 0,
      "note": 39,
      "start": 5.7594,
      "duration": 0.0162,
      "velocity": 115,
      "chip": "ym2612"
    },
    {
      "channel": 4,
      "note": 46,
      "start": 5.7634,
      "duration": 0.0134,
      "velocity": 120,
      "chip": "ym2612"
    },
    {
      "channel": 3,
      "note": 53,
      "start": 5.7646,
      "duration": 0.016,
      "velocity": 120,
      "chip": "ym2612"
    },
    {
      "channel": 2,
      "note": 52,
      "start": 5.7657,
      "duration": 0.016,
      "velocity": 100,
      "chip": "ym2612"
    },
    {
      "channel": 0,
      "note": 40,
      "start": 5.7756,
      "duration": 0.0161,
      "velocity": 115,
      "chip": "ym2612"
    },
    {
      "channel": 4,
      "note": 46,
      "start": 5.7767,
      "duration": 0.0161,
      "velocity": 120,
      "chip": "ym2612"
    },
    {
      "channel": 3,
      "note": 53,
      "start": 5.7806,
      "duration": 0.0134,
      "velocity": 120,
      "chip": "ym2612"
    },
    {
      "channel": 2,
      "note": 52,
      "start": 5.7817,
      "duration": 0.0157,
      "velocity": 100,
      "chip": "ym2612"
    },
    {
      "channel": 0,
      "note": 40,
      "start": 5.7917,
      "duration": 0.0161,
      "velocity": 115,
      "chip": "ym2612"
    },
    {
      "channel": 4,
      "note": 46,
      "start": 5.7928,
      "duration": 0.0161,
      "velocity": 120,
      "chip": "ym2612"
    },
    {
      "channel": 3,
      "note": 53,
      "start": 5.7939,
      "duration": 0.0161,
      "velocity": 120,
      "chip": "ym2612"
    },
    {
      "channel": 2,
      "note": 52,
      "start": 5.7975,
      "duration": 0.0141,
      "velocity": 100,
      "chip": "ym2612"
    },
    {
      "channel": 0,
      "note": 40,
      "start": 5.8078,
      "duration": 0.0161,
      "velocity": 115,
      "chip": "ym2612"
    },
    {
      "channel": 4,
      "note": 46,
      "start": 5.8089,
      "duration": 0.0161,
      "velocity": 120,
      "chip": "ym2612"
    },
    {
      "channel": 3,
      "note": 53,
      "start": 5.81,
      "duration": 0.0161,
      "velocity": 120,
      "chip": "ym2612"
    },
    {
      "channel": 2,
      "note": 52,
      "start": 5.8115,
      "duration": 0.0158,
      "velocity": 100,
      "chip": "ym2612"
    },
    {
      "channel": 0,
      "note": 41,
      "start": 5.8239,
      "duration": 0.0178,
      "velocity": 124,
      "chip": "ym2612"
    },
    {
      "channel": 4,
      "note": 46,
      "start": 5.825,
      "duration": 0.0181,
      "velocity": 120,
      "chip": "ym2612"
    },
    {
      "channel": 3,
      "note": 53,
      "start": 5.8261,
      "duration": 0.0211,
      "velocity": 120,
      "chip": "ym2612"
    },
    {
      "channel": 2,
      "note": 52,
      "start": 5.8273,
      "duration": 0.0215,
      "velocity": 100,
      "chip": "ym2612"
    },
    {
      "channel": 0,
      "note": 84,
      "start": 5.8417,
      "duration": 0.0144,
      "velocity": 124,
      "chip": "ym2612"
    },
    {
      "channel": 4,
      "note": 45,
      "start": 5.8431,
      "duration": 0.0142,
      "velocity": 120,
      "chip": "ym2612"
    },
    {
      "channel": 3,
      "note": 52,
      "start": 5.8473,
      "duration": 0.0112,
      "velocity": 120,
      "chip": "ym2612"
    },
    {
      "channel": 2,
      "note": 52,
      "start": 5.8487,
      "duration": 0.011,
      "velocity": 100,
      "chip": "ym2612"
    },
    {
      "channel": 0,
      "note": 82,
      "start": 5.8561,
      "duration": 0.016,
      "velocity": 124,
      "chip": "ym2612"
    },
    {
      "channel": 4,
      "note": 45,
      "start": 5.8573,
      "duration": 0.016,
      "velocity": 120,
      "chip": "ym2612"
    },
    {
      "channel": 3,
      "note": 52,
      "start": 5.8585,
      "duration": 0.0159,
      "velocity": 120,
      "chip": "ym2612"
    },
    {
      "channel": 2,
      "note": 52,
      "start": 5.8597,
      "duration": 0.0159,
      "velocity": 100,
      "chip": "ym2612"
    },
    {
      "channel": 0,
      "note": 80,
      "start": 5.8721,
      "duration": 0.0161,
      "velocity": 124,
      "chip": "ym2612"
    },
    {
      "channel": 4,
      "note": 45,
      "start": 5.8733,
      "duration": 0.0161,
      "velocity": 120,
      "chip": "ym2612"
    },
    {
      "channel": 3,
      "note": 52,
      "start": 5.8744,
      "duration": 0.0161,
      "velocity": 120,
      "chip": "ym2612"
    },
    {
      "channel": 2,
      "note": 52,
      "start": 5.8756,
      "duration": 0.0161,
      "velocity": 100,
      "chip": "ym2612"
    },
    {
      "channel": 0,
      "note": 77,
      "start": 5.8882,
      "duration": 0.0161,
      "velocity": 124,
      "chip": "ym2612"
    },
    {
      "channel": 4,
      "note": 45,
      "start": 5.8894,
      "duration": 0.0161,
      "velocity": 120,
      "chip": "ym2612"
    },
    {
      "channel": 3,
      "note": 52,
      "start": 5.8905,
      "duration": 0.0161,
      "velocity": 120,
      "chip": "ym2612"
    },
    {
      "channel": 2,
      "note": 52,
      "start": 5.8917,
      "duration": 0.0161,
      "velocity": 100,
      "chip": "ym2612"
    },
    {
      "channel": 0,
      "note": 75,
      "start": 5.9043,
      "duration": 0.0161,
      "velocity": 124,
      "chip": "ym2612"
    },
    {
      "channel": 4,
      "note": 45,
      "start": 5.9055,
      "duration": 0.0161,
      "velocity": 120,
      "chip": "ym2612"
    },
    {
      "channel": 3,
      "note": 52,
      "start": 5.9066,
      "duration": 0.0161,
      "velocity": 120,
      "chip": "ym2612"
    },
    {
      "channel": 2,
      "note": 52,
      "start": 5.9078,
      "duration": 0.0161,
      "velocity": 100,
      "chip": "ym2612"
    },
    {
      "channel": 0,
      "note": 72,
      "start": 5.9204,
      "duration": 0.0162,
      "velocity": 124,
      "chip": "ym2612"
    },
    {
      "channel": 4,
      "note": 45,
      "start": 5.9216,
      "duration": 0.0163,
      "velocity": 120,
      "chip": "ym2612"
    },
    {
      "channel": 3,
      "note": 52,
      "start": 5.9227,
      "duration": 0.0166,
      "velocity": 120,
      "chip": "ym2612"
    },
    {
      "channel": 2,
      "note": 52,
      "start": 5.9239,
      "duration": 0.0167,
      "velocity": 100,
      "chip": "ym2612"
    },
    {
      "channel": 0,
      "note": 70,
      "start": 5.9366,
      "duration": 0.0161,
      "velocity": 124,
      "chip": "ym2612"
    },
    {
      "channel": 4,
      "note": 44,
      "start": 5.938,
      "duration": 0.0159,
      "velocity": 120,
      "chip": "ym2612"
    },
    {
      "channel": 3,
      "note": 51,
      "start": 5.9394,
      "duration": 0.0157,
      "velocity": 120,
      "chip": "ym2612"
    },
    {
      "channel": 2,
      "note": 52,
      "start": 5.9405,
      "duration": 0.0156,
      "velocity": 100,
      "chip": "ym2612"
    },
    {
      "channel": 0,
      "note": 68,
      "start": 5.9527,
      "duration": 0.0161,
      "velocity": 124,
      "chip": "ym2612"
    },
    {
      "channel": 4,
      "note": 44,
      "start": 5.9539,
      "duration": 0.016,
      "velocity": 120,
      "chip": "ym2612"
    },
    {
      "channel": 3,
      "note": 51,
      "start": 5.9551,
      "duration": 0.016,
      "velocity": 120,
      "chip": "ym2612"
    },
    {
      "channel": 2,
      "note": 52,
      "start": 5.9562,
      "duration": 0.016,
      "velocity": 100,
      "chip": "ym2612"
    },
    {
      "channel": 0,
      "note": 65,
      "start": 5.9688,
      "duration": 0.0161,
      "velocity": 124,
      "chip": "ym2612"
    },
    {
      "channel": 4,
      "note": 44,
      "start": 5.9699,
      "duration": 0.0161,
      "velocity": 120,
      "chip": "ym2612"
    },
    {
      "channel": 3,
      "note": 51,
      "start": 5.971,
      "duration": 0.0161,
      "velocity": 120,
      "chip": "ym2612"
    },
    {
      "channel": 2,
      "note": 52,
      "start": 5.9722,
      "duration": 0.0161,
      "velocity": 100,
      "chip": "ym2612"
    },
    {
      "channel": 0,
      "note": 63,
      "start": 5.9849,
      "duration": 0.0153,
      "velocity": 1,
      "chip": "ym2612"
    },
    {
      "channel": 4,
      "note": 44,
      "start": 5.986,
      "duration": 0.0153,
      "velocity": 120,
      "chip": "ym2612"
    },
    {
      "channel": 3,
      "note": 51,
      "start": 5.9871,
      "duration": 0.0153,
      "velocity": 120,
      "chip": "ym2612"
    },
    {
      "channel": 2,
      "note": 52,
      "start": 5.9883,
      "duration": 0.0153,
      "velocity": 100,
      "chip": "ym2612"
    },
    {
      "channel": 4,
      "note": 44,
      "start": 6.0013,
      "duration": 0.0152,
      "velocity": 120,
      "chip": "ym2612"
    },
    {
      "channel": 3,
      "note": 51,
      "start": 6.0025,
      "duration": 0.0152,
      "velocity": 120,
      "chip": "ym2612"
    },
    {
      "channel": 2,
      "note": 52,
      "start": 6.0036,
      "duration": 0.0153,
      "velocity": 100,
      "chip": "ym2612"
    },
    {
      "channel": 4,
      "note": 44,
      "start": 6.0165,
      "duration": 0.0163,
      "velocity": 120,
      "chip": "ym2612"
    },
    {
      "channel": 3,
      "note": 51,
      "start": 6.0177,
      "duration": 0.0166,
      "velocity": 120,
      "chip": "ym2612"
    },
    {
      "channel": 2,
      "note": 52,
      "start": 6.0188,
      "duration": 0.0169,
      "velocity": 100,
      "chip": "ym2612"
    },
    {
      "channel": 4,
      "note": 43,
      "start": 6.0329,
      "duration": 0.0159,
      "velocity": 120,
      "chip": "ym2612"
    },
    {
      "channel": 3,
      "note": 50,
      "start": 6.0344,
      "duration": 0.0156,
      "velocity": 120,
      "chip": "ym2612"
    },
    {
      "channel": 2,
      "note": 52,
      "start": 6.0358,
      "duration": 0.0154,
      "velocity": 100,
      "chip": "ym2612"
    },
    {
      "channel": 4,
      "note": 43,
      "start": 6.0488,
      "duration": 0.0161,
      "velocity": 120,
      "chip": "ym2612"
    },
    {
      "channel": 3,
      "note": 50,
      "start": 6.05,
      "duration": 0.016,
      "velocity": 120,
      "chip": "ym2612"
    },
    {
      "channel": 2,
      "note": 52,
      "start": 6.0512,
      "duration": 0.0159,
      "velocity": 100,
      "chip": "ym2612"
    },
    {
      "channel": 4,
      "note": 43,
      "start": 6.0649,
      "duration": 0.0161,
      "velocity": 120,
      "chip": "ym2612"
    },
    {
      "channel": 3,
      "note": 50,
      "start": 6.066,
      "duration": 0.0161,
      "velocity": 120,
      "chip": "ym2612"
    },
    {
      "channel": 2,
      "note": 52,
      "start": 6.0671,
      "duration": 0.0161,
      "velocity": 100,
      "chip": "ym2612"
    },
    {
      "channel": 4,
      "note": 43,
      "start": 6.081,
      "duration": 0.0172,
      "velocity": 120,
      "chip": "ym2612"
    },
    {
      "channel": 3,
      "note": 50,
      "start": 6.0821,
      "duration": 0.0172,
      "velocity": 120,
      "chip": "ym2612"
    },
    {
      "channel": 2,
      "note": 52,
      "start": 6.0833,
      "duration": 0.0172,
      "velocity": 100,
      "chip": "ym2612"
    },
    {
      "channel": 4,
      "note": 43,
      "start": 6.0982,
      "duration": 0.0167,
      "velocity": 120,
      "chip": "ym2612"
    },
    {
      "channel": 3,
      "note": 50,
      "start": 6.0994,
      "duration": 0.0167,
      "velocity": 120,
      "chip": "ym2612"
    },
    {
      "channel": 2,
      "note": 52,
      "start": 6.1005,
      "duration": 0.0167,
      "velocity": 100,
      "chip": "ym2612"
    },
    {
      "channel": 4,
      "note": 43,
      "start": 6.1149,
      "duration": 0.0166,
      "velocity": 120,
      "chip": "ym2612"
    },
    {
      "channel": 3,
      "note": 50,
      "start": 6.116,
      "duration": 0.0168,
      "velocity": 120,
      "chip": "ym2612"
    },
    {
      "channel": 2,
      "note": 52,
      "start": 6.1172,
      "duration": 0.0168,
      "velocity": 100,
      "chip": "ym2612"
    },
    {
      "channel": 4,
      "note": 42,
      "start": 6.1314,
      "duration": 0.0143,
      "velocity": 120,
      "chip": "ym2612"
    },
    {
      "channel": 3,
      "note": 49,
      "start": 6.1328,
      "duration": 0.0141,
      "velocity": 120,
      "chip": "ym2612"
    },
    {
      "channel": 2,
      "note": 52,
      "start": 6.134,
      "duration": 0.0141,
      "velocity": 100,
      "chip": "ym2612"
    },
    {
      "channel": 4,
      "note": 42,
      "start": 6.1457,
      "duration": 0.0185,
      "velocity": 120,
      "chip": "ym2612"
    },
    {
      "channel": 3,
      "note": 49,
      "start": 6.1469,
      "duration": 0.0184,
      "velocity": 120,
      "chip": "ym2612"
    },
    {
      "channel": 2,
      "note": 52,
      "start": 6.1481,
      "duration": 0.0184,
      "velocity": 100,
      "chip": "ym2612"
    },
    {
      "channel": 4,
      "note": 42,
      "start": 6.1642,
      "duration": 0.0161,
      "velocity": 120,
      "chip": "ym2612"
    },
    {
      "channel": 3,
      "note": 49,
      "start": 6.1653,
      "duration": 0.0162,
      "velocity": 120,
      "chip": "ym2612"
    },
    {
      "channel": 2,
      "note": 52,
      "start": 6.1665,
      "duration": 0.0161,
      "velocity": 100,
      "chip": "ym2612"
    },
    {
      "channel": 4,
      "note": 42,
      "start": 6.1803,
      "duration": 0.0134,
      "velocity": 120,
      "chip": "ym2612"
    },
    {
      "channel": 3,
      "note": 49,
      "start": 6.1815,
      "duration": 0.0157,
      "velocity": 120,
      "chip": "ym2612"
    },
    {
      "channel": 2,
      "note": 52,
      "start": 6.1826,
      "duration": 0.0158,
      "velocity": 100,
      "chip": "ym2612"
    },
    {
      "channel": 4,
      "note": 42,
      "start": 6.1937,
      "duration": 0.0161,
      "velocity": 120,
      "chip": "ym2612"
    },
    {
      "channel": 3,
      "note": 49,
      "start": 6.1972,
      "duration": 0.0141,
      "velocity": 120,
      "chip": "ym2612"
    },
    {
      "channel": 2,
      "note": 52,
      "start": 6.1983,
      "duration": 0.014,
      "velocity": 100,
      "chip": "ym2612"
    },
    {
      "channel": 4,
      "note": 42,
      "start": 6.2098,
      "duration": 0.0238,
      "velocity": 97,
      "chip": "ym2612"
    },
    {
      "channel": 3,
      "note": 49,
      "start": 6.2112,
      "duration": 0.0252,
      "velocity": 97,
      "chip": "ym2612"
    },
    {
      "channel": 2,
      "note": 52,
      "start": 6.2123,
      "duration": 0.0256,
      "velocity": 100,
      "chip": "ym2612"
    },
    {
      "channel": 0,
      "note": 36,
      "start": 6.2309,
      "duration": 0.0118,
      "velocity": 115,
      "chip": "ym2612"
    },
    {
      "channel": 4,
      "note": 42,
      "start": 6.2337,
      "duration": 0.0102,
      "velocity": 97,
      "chip": "ym2612"
    },
    {
      "channel": 3,
      "note": 64,
      "start": 6.2365,
      "duration": 0.0113,
      "velocity": 97,
      "chip": "ym2612"
    },
    {
      "channel": 2,
      "note": 52,
      "start": 6.238,
      "duration": 0.011,
      "velocity": 100,
      "chip": "ym2612"
    },
    {
      "channel": 0,
      "note": 36,
      "start": 6.2427,
      "duration": 0.0159,
      "velocity": 115,
      "chip": "ym2612"
    },
    {
      "channel": 4,
      "note": 42,
      "start": 6.2439,
      "duration": 0.0158,
      "velocity": 97,
      "chip": "ym2612"
    },
    {
      "channel": 3,
      "note": 64,
      "start": 6.2478,
      "duration": 0.0154,
      "velocity": 97,
      "chip": "ym2612"
    },
    {
      "channel": 2,
      "note": 52,
      "start": 6.249,
      "duration": 0.0153,
      "velocity": 100,
      "chip": "ym2612"
    },
    {
      "channel": 0,
      "note": 37,
      "start": 6.2586,
      "duration": 0.0161,
      "velocity": 115,
      "chip": "ym2612"
    },
    {
      "channel": 4,
      "note": 42,
      "start": 6.2597,
      "duration": 0.0163,
      "velocity": 97,
      "chip": "ym2612"
    },
    {
      "channel": 3,
      "note": 64,
      "start": 6.2632,
      "duration": 0.0141,
      "velocity": 97,
      "chip": "ym2612"
    },
    {
      "channel": 2,
      "note": 52,
      "start": 6.2644,
      "duration": 0.0143,
      "velocity": 100,
      "chip": "ym2612"
    },
    {
      "channel": 0,
      "note": 37,
      "start": 6.2747,
      "duration": 0.0161,
      "velocity": 115,
      "chip": "ym2612"
    },
    {
      "channel": 4,
      "note": 64,
      "start": 6.2761,
      "duration": 0.0158,
      "velocity": 97,
      "chip": "ym2612"
    },
    {
      "channel": 3,
      "note": 64,
      "start": 6.2773,
      "duration": 0.0159,
      "velocity": 97,
      "chip": "ym2612"
    },
    {
      "channel": 2,
      "note": 52,
      "start": 6.2787,
      "duration": 0.0183,
      "velocity": 100,
      "chip": "ym2612"
    },
    {
      "channel": 0,
      "note": 38,
      "start": 6.2908,
      "duration": 0.0161,
      "velocity": 115,
      "chip": "ym2612"
    },
    {
      "channel": 4,
      "note": 64,
      "start": 6.292,
      "duration": 0.016,
      "velocity": 97,
      "chip": "ym2612"
    },
    {
      "channel": 3,
      "note": 64,
      "start": 6.2931,
      "duration": 0.016,
      "velocity": 97,
      "chip": "ym2612"
    },
    {
      "channel": 2,
      "note": 52,
      "start": 6.297,
      "duration": 0.0133,
      "velocity": 100,
      "chip": "ym2612"
    },
    {
      "channel": 0,
      "note": 38,
      "start": 6.3069,
      "duration": 0.0161,
      "velocity": 115,
      "chip": "ym2612"
    },
    {
      "channel": 4,
      "note": 64,
      "start": 6.308,
      "duration": 0.0161,
      "velocity": 97,
      "chip": "ym2612"
    },
    {
      "channel": 3,
      "note": 64,
      "start": 6.3092,
      "duration": 0.0163,
      "velocity": 97,
      "chip": "ym2612"
    },
    {
      "channel": 2,
      "note": 52,
      "start": 6.3103,
      "duration": 0.0163,
      "velocity": 100,
      "chip": "ym2612"
    },
    {
      "channel": 0,
      "note": 39,
      "start": 6.323,
      "duration": 0.0161,
      "velocity": 115,
      "chip": "ym2612"
    },
    {
      "channel": 4,
      "note": 64,
      "start": 6.3241,
      "duration": 0.0161,
      "velocity": 97,
      "chip": "ym2612"
    },
    {
      "channel": 3,
      "note": 68,
      "start": 6.3255,
      "duration": 0.0159,
      "velocity": 97,
      "chip": "ym2612"
    },
    {
      "channel": 2,
      "note": 52,
      "start": 6.3266,
      "duration": 0.0159,
      "velocity": 100,
      "chip": "ym2612"
    },
    {
      "channel": 0,
      "note": 39,
      "start": 6.339,
      "duration": 0.0161,
      "velocity": 115,
      "chip": "ym2612"
    },
    {
      "channel": 4,
      "note": 64,
      "start": 6.3402,
      "duration": 0.0161,
      "velocity": 97,
      "chip": "ym2612"
    },
    {
      "channel": 3,
      "note": 68,
      "start": 6.3414,
      "duration": 0.016,
      "velocity": 97,
      "chip": "ym2612"
    },
    {
      "channel": 2,
      "note": 52,
      "start": 6.3426,
      "duration": 0.016,
      "velocity": 100,
      "chip": "ym2612"
    },
    {
      "channel": 0,
      "note": 40,
      "start": 6.3551,
      "duration": 0.0161,
      "velocity": 115,
      "chip": "ym2612"
    },
    {
      "channel": 4,
      "note": 64,
      "start": 6.3563,
      "duration": 0.0163,
      "velocity": 97,
      "chip": "ym2612"
    },
    {
      "channel": 3,
      "note": 68,
      "start": 6.3574,
      "duration": 0.0164,
      "velocity": 97,
      "chip": "ym2612"
    },
    {
      "channel": 2,
      "note": 52,
      "start": 6.3586,
      "duration": 0.0163,
      "velocity": 100,
      "chip": "ym2612"
    },
    {
      "channel": 0,
      "note": 40,
      "start": 6.3712,
      "duration": 0.0161,
      "velocity": 115,
      "chip": "ym2612"
    },
    {
      "channel": 4,
      "note": 68,
      "start": 6.3727,
      "duration": 0.0159,
      "velocity": 97,
      "chip": "ym2612"
    },
    {
      "channel": 3,
      "note": 68,
      "start": 6.3739,
      "duration": 0.0158,
      "velocity": 97,
      "chip": "ym2612"
    },
    {
      "channel": 2,
      "note": 52,
      "start": 6.3749,
      "duration": 0.0159,
      "velocity": 100,
      "chip": "ym2612"
    },
    {
      "channel": 0,
      "note": 40,
      "start": 6.3874,
      "duration": 0.0161,
      "velocity": 115,
      "chip": "ym2612"
    },
    {
      "channel": 4,
      "note": 68,
      "start": 6.3886,
      "duration": 0.016,
      "velocity": 97,
      "chip": "ym2612"
    },
    {
      "channel": 3,
      "note": 68,
      "start": 6.3897,
      "duration": 0.0161,
      "velocity": 97,
      "chip": "ym2612"
    },
    {
      "channel": 2,
      "note": 52,
      "start": 6.3908,
      "duration": 0.016,
      "velocity": 100,
      "chip": "ym2612"
    },
    {
      "channel": 0,
      "note": 41,
      "start": 6.4035,
      "duration": 0.0161,
      "velocity": 115,
      "chip": "ym2612"
    },
    {
      "channel": 4,
      "note": 68,
      "start": 6.4046,
      "duration": 0.0161,
      "velocity": 97,
      "chip": "ym2612"
    },
    {
      "channel": 3,
      "note": 68,
      "start": 6.4058,
      "duration": 0.0163,
      "velocity": 97,
      "chip": "ym2612"
    },
    {
      "channel": 2,
      "note": 52,
      "start": 6.4069,
      "duration": 0.0167,
      "velocity": 100,
      "chip": "ym2612"
    },
    {
      "channel": 0,
      "note": 41,
      "start": 6.4196,
      "duration": 0.0161,
      "velocity": 115,
      "chip": "ym2612"
    },
    {
      "channel": 4,
      "note": 68,
      "start": 6.4207,
      "duration": 0.0161,
      "velocity": 97,
      "chip": "ym2612"
    },
    {
      "channel": 3,
      "note": 71,
      "start": 6.4221,
      "duration": 0.0159,
      "velocity": 97,
      "chip": "ym2612"
    },
    {
      "channel": 2,
      "note": 52,
      "start": 6.4236,
      "duration": 0.0156,
      "velocity": 100,
      "chip": "ym2612"
    },
    {
      "channel": 0,
      "note": 42,
      "start": 6.4357,
      "duration": 0.0161,
      "velocity": 115,
      "chip": "ym2612"
    },
    {
      "channel": 4,
      "note": 68,
      "start": 6.4368,
      "duration": 0.0161,
      "velocity": 97,
      "chip": "ym2612"
    },
    {
      "channel": 3,
      "note": 71,
      "start": 6.438,
      "duration": 0.016,
      "velocity": 97,
      "chip": "ym2612"
    },
    {
      "channel": 2,
      "note": 52,
      "start": 6.4393,
      "duration": 0.016,
      "velocity": 100,
      "chip": "ym2612"
    },
    {
      "channel": 0,
      "note": 42,
      "start": 6.4518,
      "duration": 0.0161,
      "velocity": 115,
      "chip": "ym2612"
    },
    {
      "channel": 4,
      "note": 68,
      "start": 6.4529,
      "duration": 0.0163,
      "velocity": 97,
      "chip": "ym2612"
    },
    {
      "channel": 3,
      "note": 71,
      "start": 6.4541,
      "duration": 0.0163,
      "velocity": 97,
      "chip": "ym2612"
    },
    {
      "channel": 2,
      "note": 52,
      "start": 6.4552,
      "duration": 0.0163,
      "velocity": 100,
      "chip": "ym2612"
    },
    {
      "channel": 0,
      "note": 43,
      "start": 6.4679,
      "duration": 0.0161,
      "velocity": 115,
      "chip": "ym2612"
    },
    {
      "channel": 4,
      "note": 71,
      "start": 6.4693,
      "duration": 0.0159,
      "velocity": 97,
      "chip": "ym2612"
    },
    {
      "channel": 3,
      "note": 71,
      "start": 6.4704,
      "duration": 0.0159,
      "velocity": 97,
      "chip": "ym2612"
    },
    {
      "channel": 2,
      "note": 52,
      "start": 6.4716,
      "duration": 0.0159,
      "velocity": 100,
      "chip": "ym2612"
    },
    {
      "channel": 0,
      "note": 43,
      "start": 6.484,
      "duration": 0.0161,
      "velocity": 115,
      "chip": "ym2612"
    },
    {
      "channel": 4,
      "note": 71,
      "start": 6.4852,
      "duration": 0.0161,
      "velocity": 97,
      "chip": "ym2612"
    },
    {
      "channel": 3,
      "note": 71,
      "start": 6.4863,
      "duration": 0.016,
      "velocity": 97,
      "chip": "ym2612"
    },
    {
      "channel": 2,
      "note": 52,
      "start": 6.4875,
      "duration": 0.016,
      "velocity": 100,
      "chip": "ym2612"
    },
    {
      "channel": 0,
      "note": 44,
      "start": 6.5001,
      "duration": 0.0161,
      "velocity": 115,
      "chip": "ym2612"
    },
    {
      "channel": 4,
      "note": 71,
      "start": 6.5013,
      "duration": 0.0161,
      "velocity": 97,
      "chip": "ym2612"
    },
    {
      "channel": 3,
      "note": 71,
      "start": 6.5024,
      "duration": 0.0162,
      "velocity": 97,
      "chip": "ym2612"
    },
    {
      "channel": 2,
      "note": 52,
      "start": 6.5035,
      "duration": 0.0162,
      "velocity": 100,
      "chip": "ym2612"
    },
    {
      "channel": 0,
      "note": 44,
      "start": 6.5161,
      "duration": 0.0162,
      "velocity": 115,
      "chip": "ym2612"
    },
    {
      "channel": 4,
      "note": 71,
      "start": 6.5174,
      "duration": 0.0161,
      "velocity": 97,
      "chip": "ym2612"
    },
    {
      "channel": 3,
      "note": 71,
      "start": 6.5186,
      "duration": 0.016,
      "velocity": 97,
      "chip": "ym2612"
    },
    {
      "channel": 2,
      "note": 52,
      "start": 6.5197,
      "duration": 0.016,
      "velocity": 100,
      "chip": "ym2612"
    },
    {
      "channel": 0,
      "note": 44,
      "start": 6.5323,
      "duration": 0.0161,
      "velocity": 115,
      "chip": "ym2612"
    },
    {
      "channel": 4,
      "note": 71,
      "start": 6.5335,
      "duration": 0.0161,
      "velocity": 97,
      "chip": "ym2612"
    },
    {
      "channel": 3,
      "note": 71,
      "start": 6.5346,
      "duration": 0.0161,
      "velocity": 97,
      "chip": "ym2612"
    },
    {
      "channel": 2,
      "note": 52,
      "start": 6.5358,
      "duration": 0.016,
      "velocity": 100,
      "chip": "ym2612"
    },
    {
      "channel": 0,
      "note": 45,
      "start": 6.5484,
      "duration": 0.017,
      "velocity": 115,
      "chip": "ym2612"
    },
    {
      "channel": 4,
      "note": 71,
      "start": 6.5495,
      "duration": 0.0171,
      "velocity": 97,
      "chip": "ym2612"
    },
    {
      "channel": 3,
      "note": 71,
      "start": 6.5507,
      "duration": 0.0171,
      "velocity": 97,
      "chip": "ym2612"
    },
    {
      "channel": 2,
      "note": 52,
      "start": 6.5518,
      "duration": 0.0171,
      "velocity": 100,
      "chip": "ym2612"
    },
    {
      "channel": 0,
      "note": 45,
      "start": 6.5654,
      "duration": 0.0167,
      "velocity": 115,
      "chip": "ym2612"
    },
    {
      "channel": 4,
      "note": 71,
      "start": 6.5667,
      "duration": 0.0166,
      "velocity": 97,
      "chip": "ym2612"
    },
    {
      "channel": 3,
      "note": 71,
      "start": 6.5678,
      "duration": 0.0166,
      "velocity": 97,
      "chip": "ym2612"
    },
    {
      "channel": 2,
      "note": 52,
      "start": 6.5689,
      "duration": 0.0166,
      "velocity": 100,
      "chip": "ym2612"
    },
    {
      "channel": 0,
      "note": 46,
      "start": 6.5821,
      "duration": 0.0163,
      "velocity": 115,
      "chip": "ym2612"
    },
    {
      "channel": 4,
      "note": 71,
      "start": 6.5833,
      "duration": 0.0162,
      "velocity": 97,
      "chip": "ym2612"
    },
    {
      "channel": 3,
      "note": 71,
      "start": 6.5844,
      "duration": 0.0163,
      "velocity": 97,
      "chip": "ym2612"
    },
    {
      "channel": 2,
      "note": 52,
      "start": 6.5855,
      "duration": 0.0163,
      "velocity": 100,
      "chip": "ym2612"
    },
    {
      "channel": 0,
      "note": 46,
      "start": 6.5983,
      "duration": 0.0164,
      "velocity": 124,
      "chip": "ym2612"
    },
    {
      "channel": 4,
      "note": 71,
      "start": 6.5995,
      "duration": 0.0165,
      "velocity": 97,
      "chip": "ym2612"
    },
    {
      "channel": 3,
      "note": 71,
      "start": 6.6006,
      "duration": 0.0167,
      "velocity": 97,
      "chip": "ym2612"
    },
    {
      "channel": 2,
      "note": 52,
      "start": 6.6018,
      "duration": 0.017,
      "velocity": 100,
      "chip": "ym2612"
    },
    {
      "channel": 0,
      "note": 84,
      "start": 6.6148,
      "duration": 0.0168,
      "velocity": 124,
      "chip": "ym2612"
    },
    {
      "channel": 4,
      "note": 71,
      "start": 6.616,
      "duration": 0.0168,
      "velocity": 97,
      "chip": "ym2612"
    },
    {
      "channel": 3,
      "note": 68,
      "start": 6.6174,
      "duration": 0.0167,
      "velocity": 97,
      "chip": "ym2612"
    },
    {
      "channel": 2,
      "note": 52,
      "start": 6.6188,
      "duration": 0.0165,
      "velocity": 100,
      "chip": "ym2612"
    },
    {
      "channel": 0,
      "note": 82,
      "start": 6.6317,
      "duration": 0.0161,
      "velocity": 124,
      "chip": "ym2612"
    },
    {
      "channel": 4,
      "note": 71,
      "start": 6.6328,
      "duration": 0.0161,
      "velocity": 97,
      "chip": "ym2612"
    },
    {
      "channel": 3,
      "note": 68,
      "start": 6.634,
      "duration": 0.016,
      "velocity": 97,
      "chip": "ym2612"
    },
    {
      "channel": 2,
      "note": 52,
      "start": 6.6352,
      "duration": 0.0159,
      "velocity": 100,
      "chip": "ym2612"
    },
    {
      "channel": 0,
      "note": 80,
      "start": 6.6478,
      "duration": 0.0157,
      "velocity": 124,
      "chip": "ym2612"
    },
    {
      "channel": 4,
      "note": 71,
      "start": 6.6489,
      "duration": 0.0159,
      "velocity": 97,
      "chip": "ym2612"
    },
    {
      "channel": 3,
      "note": 68,
      "start": 6.65,
      "duration": 0.016,
      "velocity": 97,
      "chip": "ym2612"
    },
    {
      "channel": 2,
      "note": 52,
      "start": 6.6511,
      "duration": 0.016,
      "velocity": 100,
      "chip": "ym2612"
    },
    {
      "channel": 0,
      "note": 77,
      "start": 6.6635,
      "duration": 0.0137,
      "velocity": 124,
      "chip": "ym2612"
    },
    {
      "channel": 4,
      "note": 68,
      "start": 6.6649,
      "duration": 0.0139,
      "velocity": 97,
      "chip": "ym2612"
    },
    {
      "channel": 3,
      "note": 68,
      "start": 6.666,
      "duration": 0.0139,
      "velocity": 97,
      "chip": "ym2612"
    },
    {
      "channel": 2,
      "note": 52,
      "start": 6.6672,
      "duration": 0.0138,
      "velocity": 100,
      "chip": "ym2612"
    },
    {
      "channel": 0,
      "note": 75,
      "start": 6.6772,
      "duration": 0.0161,
      "velocity": 124,
      "chip": "ym2612"
    },
    {
      "channel": 4,
      "note": 68,
      "start": 6.6788,
      "duration": 0.0184,
      "velocity": 97,
      "chip": "ym2612"
    },
    {
      "channel": 3,
      "note": 68,
      "start": 6.6799,
      "duration": 0.0185,
      "velocity": 97,
      "chip": "ym2612"
    },
    {
      "channel": 2,
      "note": 52,
      "start": 6.681,
      "duration": 0.0185,
      "velocity": 100,
      "chip": "ym2612"
    },
    {
      "channel": 0,
      "note": 72,
      "start": 6.6933,
      "duration": 0.0161,
      "velocity": 124,
      "chip": "ym2612"
    },
    {
      "channel": 4,
      "note": 68,
      "start": 6.6972,
      "duration": 0.0134,
      "velocity": 97,
      "chip": "ym2612"
    },
    {
      "channel": 3,
      "note": 68,
      "start": 6.6983,
      "duration": 0.0163,
      "velocity": 97,
      "chip": "ym2612"
    },
    {
      "channel": 2,
      "note": 52,
      "start": 6.6995,
      "duration": 0.0163,
      "velocity": 100,
      "chip": "ym2612"
    },
    {
      "channel": 0,
      "note": 70,
      "start": 6.7094,
      "duration": 0.0161,
      "velocity": 124,
      "chip": "ym2612"
    },
    {
      "channel": 4,
      "note": 68,
      "start": 6.7106,
      "duration": 0.0161,
      "velocity": 97,
      "chip": "ym2612"
    },
    {
      "channel": 3,
      "note": 71,
      "start": 6.7147,
      "duration": 0.0155,
      "velocity": 97,
      "chip": "ym2612"
    },
    {
      "channel": 2,
      "note": 52,
      "start": 6.7158,
      "duration": 0.0155,
      "velocity": 100,
      "chip": "ym2612"
    },
    {
      "channel": 0,
      "note": 68,
      "start": 6.7255,
      "duration": 0.0161,
      "velocity": 124,
      "chip": "ym2612"
    },
    {
      "channel": 4,
      "note": 68,
      "start": 6.7266,
      "duration": 0.0161,
      "velocity": 97,
      "chip": "ym2612"
    },
    {
      "channel": 3,
      "note": 71,
      "start": 6.7302,
      "duration": 0.0137,
      "velocity": 97,
      "chip": "ym2612"
    },
    {
      "channel": 2,
      "note": 52,
      "start": 6.7314,
      "duration": 0.014,
      "velocity": 100,
      "chip": "ym2612"
    },
    {
      "channel": 0,
      "note": 65,
      "start": 6.7416,
      "duration": 0.0161,
      "velocity": 124,
      "chip": "ym2612"
    },
    {
      "channel": 4,
      "note": 68,
      "start": 6.7427,
      "duration": 0.0163,
      "velocity": 97,
      "chip": "ym2612"
    },
    {
      "channel": 3,
      "note": 71,
      "start": 6.7439,
      "duration": 0.0163,
      "velocity": 97,
      "chip": "ym2612"
    },
    {
      "channel": 2,
      "note": 52,
      "start": 6.7454,
      "duration": 0.0188,
      "velocity": 100,
      "chip": "ym2612"
    },
    {
      "channel": 0,
      "note": 63,
      "start": 6.7577,
      "duration": 0.0153,
      "velocity": 1,
      "chip": "ym2612"
    },
    {
      "channel": 4,
      "note": 71,
      "start": 6.7591,
      "duration": 0.0151,
      "velocity": 97,
      "chip": "ym2612"
    },
    {
      "channel": 3,
      "note": 71,
      "start": 6.7602,
      "duration": 0.0151,
      "velocity": 97,
      "chip": "ym2612"
    },
    {
      "channel": 2,
      "note": 52,
      "start": 6.7641,
      "duration": 0.0123,
      "velocity": 100,
      "chip": "ym2612"
    },
    {
      "channel": 4,
      "note": 71,
      "start": 6.7742,
      "duration": 0.0152,
      "velocity": 97,
      "chip": "ym2612"
    },
    {
      "channel": 3,
      "note": 71,
      "start": 6.7754,
      "duration": 0.0152,
      "velocity": 97,
      "chip": "ym2612"
    },
    {
      "channel": 2,
      "note": 52,
      "start": 6.7765,
      "duration": 0.0152,
      "velocity": 100,
      "chip": "ym2612"
    },
    {
      "channel": 4,
      "note": 71,
      "start": 6.7894,
      "duration": 0.0195,
      "velocity": 97,
      "chip": "ym2612"
    },
    {
      "channel": 3,
      "note": 71,
      "start": 6.7906,
      "duration": 0.0197,
      "velocity": 97,
      "chip": "ym2612"
    },
    {
      "channel": 2,
      "note": 52,
      "start": 6.7917,
      "duration": 0.0204,
      "velocity": 100,
      "chip": "ym2612"
    },
    {
      "channel": 0,
      "note": 36,
      "start": 6.8078,
      "duration": 0.0144,
      "velocity": 115,
      "chip": "ym2612"
    },
    {
      "channel": 4,
      "note": 71,
      "start": 6.809,
      "duration": 0.0144,
      "velocity": 97,
      "chip": "ym2612"
    },
    {
      "channel": 3,
      "note": 74,
      "start": 6.8104,
      "duration": 0.0142,
      "velocity": 97,
      "chip": "ym2612"
    },
    {
      "channel": 2,
      "note": 52,
      "start": 6.8122,
      "duration": 0.0135,
      "velocity": 100,
      "chip": "ym2612"
    },
    {
      "channel": 0,
      "note": 36,
      "start": 6.8222,
      "duration": 0.016,
      "velocity": 115,
      "chip": "ym2612"
    },
    {
      "channel": 4,
      "note": 71,
      "start": 6.8233,
      "duration": 0.016,
      "velocity": 97,
      "chip": "ym2612"
    },
    {
      "channel": 3,
      "note": 74,
      "start": 6.8246,
      "duration": 0.016,
      "velocity": 97,
      "chip": "ym2612"
    },
    {
      "channel": 2,
      "note": 52,
      "start": 6.8257,
      "duration": 0.0159,
      "velocity": 100,
      "chip": "ym2612"
    },
    {
      "channel": 0,
      "note": 37,
      "start": 6.8382,
      "duration": 0.0161,
      "velocity": 115,
      "chip": "ym2612"
    },
    {
      "channel": 4,
      "note": 71,
      "start": 6.8394,
      "duration": 0.0163,
      "velocity": 97,
      "chip": "ym2612"
    },
    {
      "channel": 3,
      "note": 74,
      "start": 6.8405,
      "duration": 0.0163,
      "velocity": 97,
      "chip": "ym2612"
    },
    {
      "channel": 2,
      "note": 52,
      "start": 6.8416,
      "duration": 0.0164,
      "velocity": 100,
      "chip": "ym2612"
    },
    {
      "channel": 0,
      "note": 37,
      "start": 6.8543,
      "duration": 0.0161,
      "velocity": 115,
      "chip": "ym2612"
    },
    {
      "channel": 4,
      "note": 74,
      "start": 6.8557,
      "duration": 0.0159,
      "velocity": 97,
      "chip": "ym2612"
    },
    {
      "channel": 3,
      "note": 74,
      "start": 6.8569,
      "duration": 0.0159,
      "velocity": 97,
      "chip": "ym2612"
    },
    {
      "channel": 2,
      "note": 52,
      "start": 6.858,
      "duration": 0.0159,
      "velocity": 100,
      "chip": "ym2612"
    },
    {
      "channel": 0,
      "note": 38,
      "start": 6.8704,
      "duration": 0.0161,
      "velocity": 115,
      "chip": "ym2612"
    },
    {
      "channel": 4,
      "note": 74,
      "start": 6.8716,
      "duration": 0.016,
      "velocity": 97,
      "chip": "ym2612"
    },
    {
      "channel": 3,
      "note": 74,
      "start": 6.8728,
      "duration": 0.016,
      "velocity": 97,
      "chip": "ym2612"
    },
    {
      "channel": 2,
      "note": 52,
      "start": 6.8739,
      "duration": 0.016,
      "velocity": 100,
      "chip": "ym2612"
    },
    {
      "channel": 0,
      "note": 38,
      "start": 6.8865,
      "duration": 0.0161,
      "velocity": 115,
      "chip": "ym2612"
    },
    {
      "channel": 4,
      "note": 74,
      "start": 6.8877,
      "duration": 0.0161,
      "velocity": 97,
      "chip": "ym2612"
    },
    {
      "channel": 3,
      "note": 74,
      "start": 6.8888,
      "duration": 0.0162,
      "velocity": 97,
      "chip": "ym2612"
    },
    {
      "channel": 2,
      "note": 52,
      "start": 6.89,
      "duration": 0.0162,
      "velocity": 100,
      "chip": "ym2612"
    },
    {
      "channel": 0,
      "note": 39,
      "start": 6.9026,
      "duration": 0.0161,
      "velocity": 115,
      "chip": "ym2612"
    },
    {
      "channel": 4,
      "note": 74,
      "start": 6.9037,
      "duration": 0.0161,
      "velocity": 97,
      "chip": "ym2612"
    },
    {
      "channel": 3,
      "note": 74,
      "start": 6.905,
      "duration": 0.016,
      "velocity": 97,
      "chip": "ym2612"
    },
    {
      "channel": 2,
      "note": 52,
      "start": 6.9062,
      "duration": 0.016,
      "velocity": 100,
      "chip": "ym2612"
    },
    {
      "channel": 0,
      "note": 39,
      "start": 6.9187,
      "duration": 0.0161,
      "velocity": 115,
      "chip": "ym2612"
    },
    {
      "channel": 4,
      "note": 74,
      "start": 6.9198,
      "duration": 0.0161,
      "velocity": 97,
      "chip": "ym2612"
    },
    {
      "channel": 3,
      "note": 74,
      "start": 6.921,
      "duration": 0.016,
      "velocity": 97,
      "chip": "ym2612"
    },
    {
      "channel": 2,
      "note": 52,
      "start": 6.9222,
      "duration": 0.016,
      "velocity": 100,
      "chip": "ym2612"
    },
    {
      "channel": 0,
      "note": 40,
      "start": 6.9348,
      "duration": 0.0161,
      "velocity": 115,
      "chip": "ym2612"
    },
    {
      "channel": 4,
      "note": 74,
      "start": 6.9359,
      "duration": 0.0163,
      "velocity": 97,
      "chip": "ym2612"
    },
    {
      "channel": 3,
      "note": 74,
      "start": 6.9371,
      "duration": 0.0162,
      "velocity": 97,
      "chip": "ym2612"
    },
    {
      "channel": 2,
      "note": 52,
      "start": 6.9382,
      "duration": 0.0162,
      "velocity": 100,
      "chip": "ym2612"
    },
    {
      "channel": 0,
      "note": 40,
      "start": 6.9509,
      "duration": 0.0162,
      "velocity": 115,
      "chip": "ym2612"
    },
    {
      "channel": 4,
      "note": 74,
      "start": 6.9522,
      "duration": 0.016,
      "velocity": 97,
      "chip": "ym2612"
    },
    {
      "channel": 3,
      "note": 74,
      "start": 6.9533,
      "duration": 0.016,
      "velocity": 97,
      "chip": "ym2612"
    },
    {
      "channel": 2,
      "note": 52,
      "start": 6.9544,
      "duration": 0.016,
      "velocity": 100,
      "chip": "ym2612"
    },
    {
      "channel": 0,
      "note": 40,
      "start": 6.9671,
      "duration": 0.0161,
      "velocity": 115,
      "chip": "ym2612"
    },
    {
      "channel": 4,
      "note": 74,
      "start": 6.9683,
      "duration": 0.016,
      "velocity": 97,
      "chip": "ym2612"
    },
    {
      "channel": 3,
      "note": 74,
      "start": 6.9693,
      "duration": 0.016,
      "velocity": 97,
      "chip": "ym2612"
    },
    {
      "channel": 2,
      "note": 52,
      "start": 6.9705,
      "duration": 0.016,
      "velocity": 100,
      "chip": "ym2612"
    },
    {
      "channel": 0,
      "note": 41,
      "start": 6.9832,
      "duration": 0.0178,
      "velocity": 115,
      "chip": "ym2612"
    },
    {
      "channel": 4,
      "note": 74,
      "start": 6.9843,
      "duration": 0.0179,
      "velocity": 97,
      "chip": "ym2612"
    },
    {
      "channel": 3,
      "note": 74,
      "start": 6.9854,
      "duration": 0.0182,
      "velocity": 97,
      "chip": "ym2612"
    },
    {
      "channel": 2,
      "note": 52,
      "start": 6.9865,
      "duration": 0.0185,
      "velocity": 100,
      "chip": "ym2612"
    },
    {
      "channel": 0,
      "note": 36,
      "start": 7.001,
      "duration": 0.0144,
      "velocity": 115,
      "chip": "ym2612"
    },
    {
      "channel": 4,
      "note": 74,
      "start": 7.0022,
      "duration": 0.0144,
      "velocity": 97,
      "chip": "ym2612"
    },
    {
      "channel": 3,
      "note": 71,
      "start": 7.0036,
      "duration": 0.0142,
      "velocity": 97,
      "chip": "ym2612"
    },
    {
      "channel": 2,
      "note": 52,
      "start": 7.005,
      "duration": 0.0139,
      "velocity": 100,
      "chip": "ym2612"
    },
    {
      "channel": 0,
      "note": 36,
      "start": 7.0154,
      "duration": 0.0167,
      "velocity": 115,
      "chip": "ym2612"
    },
    {
      "channel": 4,
      "note": 74,
      "start": 7.0165,
      "duration": 0.0167,
      "velocity": 97,
      "chip": "ym2612"
    },
    {
      "channel": 3,
      "note": 71,
      "start": 7.0178,
      "duration": 0.0166,
      "velocity": 97,
      "chip": "ym2612"
    },
    {
      "channel": 2,
      "note": 52,
      "start": 7.0189,
      "duration": 0.0166,
      "velocity": 100,
      "chip": "ym2612"
    },
    {
      "channel": 0,
      "note": 37,
      "start": 7.0321,
      "duration": 0.0167,
      "velocity": 115,
      "chip": "ym2612"
    },
    {
      "channel": 4,
      "note": 74,
      "start": 7.0332,
      "duration": 0.0169,
      "velocity": 97,
      "chip": "ym2612"
    },
    {
      "channel": 3,
      "note": 71,
      "start": 7.0344,
      "duration": 0.0169,
      "velocity": 97,
      "chip": "ym2612"
    },
    {
      "channel": 2,
      "note": 52,
      "start": 7.0354,
      "duration": 0.017,
      "velocity": 100,
      "chip": "ym2612"
    },
    {
      "channel": 0,
      "note": 37,
      "start": 7.0487,
      "duration": 0.0163,
      "velocity": 115,
      "chip": "ym2612"
    },
    {
      "channel": 4,
      "note": 71,
      "start": 7.0501,
      "duration": 0.0161,
      "velocity": 97,
      "chip": "ym2612"
    },
    {
      "channel": 3,
      "note": 71,
      "start": 7.0513,
      "duration": 0.0161,
      "velocity": 97,
      "chip": "ym2612"
    },
    {
      "channel": 2,
      "note": 52,
      "start": 7.0524,
      "duration": 0.0161,
      "velocity": 100,
      "chip": "ym2612"
    },
    {
      "channel": 0,
      "note": 38,
      "start": 7.065,
      "duration": 0.0147,
      "velocity": 115,
      "chip": "ym2612"
    },
    {
      "channel": 4,
      "note": 71,
      "start": 7.0662,
      "duration": 0.0147,
      "velocity": 97,
      "chip": "ym2612"
    },
    {
      "channel": 3,
      "note": 71,
      "start": 7.0674,
      "duration": 0.0147,
      "velocity": 97,
      "chip": "ym2612"
    },
    {
      "channel": 2,
      "note": 52,
      "start": 7.0685,
      "duration": 0.0146,
      "velocity": 100,
      "chip": "ym2612"
    },
    {
      "channel": 0,
      "note": 38,
      "start": 7.0797,
      "duration": 0.0189,
      "velocity": 115,
      "chip": "ym2612"
    },
    {
      "channel": 4,
      "note": 71,
      "start": 7.0809,
      "duration": 0.0188,
      "velocity": 97,
      "chip": "ym2612"
    },
    {
      "channel": 3,
      "note": 71,
      "start": 7.0821,
      "duration": 0.019,
      "velocity": 97,
      "chip": "ym2612"
    },
    {
      "channel": 2,
      "note": 52,
      "start": 7.0832,
      "duration": 0.0191,
      "velocity": 100,
      "chip": "ym2612"
    },
    {
      "channel": 0,
      "note": 39,
      "start": 7.0986,
      "duration": 0.0161,
      "velocity": 115,
      "chip": "ym2612"
    },
    {
      "channel": 4,
      "note": 71,
      "start": 7.0998,
      "duration": 0.0161,
      "velocity": 97,
      "chip": "ym2612"
    },
    {
      "channel": 3,
      "note": 74,
      "start": 7.1011,
      "duration": 0.0159,
      "velocity": 97,
      "chip": "ym2612"
    },
    {
      "channel": 2,
      "note": 52,
      "start": 7.1023,
      "duration": 0.0159,
      "velocity": 100,
      "chip": "ym2612"
    },
    {
      "channel": 0,
      "note": 39,
      "start": 7.1147,
      "duration": 0.0157,
      "velocity": 115,
      "chip": "ym2612"
    },
    {
      "channel": 4,
      "note": 71,
      "start": 7.1158,
      "duration": 0.0158,
      "velocity": 97,
      "chip": "ym2612"
    },
    {
      "channel": 3,
      "note": 74,
      "start": 7.1171,
      "duration": 0.0156,
      "velocity": 97,
      "chip": "ym2612"
    },
    {
      "channel": 2,
      "note": 52,
      "start": 7.1182,
      "duration": 0.0156,
      "velocity": 100,
      "chip": "ym2612"
    },
    {
      "channel": 0,
      "note": 40,
      "start": 7.1304,
      "duration": 0.0141,
      "velocity": 115,
      "chip": "ym2612"
    },
    {
      "channel": 4,
      "note": 71,
      "start": 7.1316,
      "duration": 0.0142,
      "velocity": 97,
      "chip": "ym2612"
    },
    {
      "channel": 3,
      "note": 74,
      "start": 7.1327,
      "duration": 0.0143,
      "velocity": 97,
      "chip": "ym2612"
    },
    {
      "channel": 2,
      "note": 52,
      "start": 7.1338,
      "duration": 0.0143,
      "velocity": 100,
      "chip": "ym2612"
    },
    {
      "channel": 0,
      "note": 40,
      "start": 7.1445,
      "duration": 0.0158,
      "velocity": 115,
      "chip": "ym2612"
    },
    {
      "channel": 4,
      "note": 74,
      "start": 7.1459,
      "duration": 0.0183,
      "velocity": 97,
      "chip": "ym2612"
    },
    {
      "channel": 3,
      "note": 74,
      "start": 7.147,
      "duration": 0.0183,
      "velocity": 97,
      "chip": "ym2612"
    },
    {
      "channel": 2,
      "note": 52,
      "start": 7.1482,
      "duration": 0.0183,
      "velocity": 100,
      "chip": "ym2612"
    },
    {
      "channel": 0,
      "note": 40,
      "start": 7.1602,
      "duration": 0.0161,
      "velocity": 115,
      "chip": "ym2612"
    },
    {
      "channel": 4,
      "note": 74,
      "start": 7.1642,
      "duration": 0.016,
      "velocity": 97,
      "chip": "ym2612"
    },
    {
      "channel": 3,
      "note": 74,
      "start": 7.1653,
      "duration": 0.016,
      "velocity": 97,
      "chip": "ym2612"
    },
    {
      "channel": 2,
      "note": 52,
      "start": 7.1665,
      "duration": 0.016,
      "velocity": 100,
      "chip": "ym2612"
    },
    {
      "channel": 0,
      "note": 41,
      "start": 7.1763,
      "duration": 0.0161,
      "velocity": 115,
      "chip": "ym2612"
    },
    {
      "channel": 4,
      "note": 74,
      "start": 7.1802,
      "duration": 0.0134,
      "velocity": 97,
      "chip": "ym2612"
    },
    {
      "channel": 3,
      "note": 74,
      "start": 7.1814,
      "duration": 0.016,
      "velocity": 97,
      "chip": "ym2612"
    },
    {
      "channel": 2,
      "note": 52,
      "start": 7.1825,
      "duration": 0.0163,
      "velocity": 100,
      "chip": "ym2612"
    },
    {
      "channel": 0,
      "note": 41,
      "start": 7.1924,
      "duration": 0.0161,
      "velocity": 115,
      "chip": "ym2612"
    },
    {
      "channel": 4,
      "note": 74,
      "start": 7.1936,
      "duration": 0.0161,
      "velocity": 97,
      "chip": "ym2612"
    },
    {
      "channel": 3,
      "note": 78,
      "start": 7.1974,
      "duration": 0.0138,
      "velocity": 97,
      "chip": "ym2612"
    },
    {
      "channel": 2,
      "note": 52,
      "start": 7.1988,
      "duration": 0.0136,
      "velocity": 100,
      "chip": "ym2612"
    },
    {
      "channel": 0,
      "note": 42,
      "start": 7.2085,
      "duration": 0.0161,
      "velocity": 115,
      "chip": "ym2612"
    },
    {
      "channel": 4,
      "note": 74,
      "start": 7.2097,
      "duration": 0.0161,
      "velocity": 97,
      "chip": "ym2612"
    },
    {
      "channel": 3,
      "note": 78,
      "start": 7.2112,
      "duration": 0.0157,
      "velocity": 97,
      "chip": "ym2612"
    },
    {
      "channel": 2,
      "note": 52,
      "start": 7.2124,
      "duration": 0.0184,
      "velocity": 100,
      "chip": "ym2612"
    },
    {
      "channel": 0,
      "note": 42,
      "start": 7.2246,
      "duration": 0.0161,
      "velocity": 115,
      "chip": "ym2612"
    },
    {
      "channel": 4,
      "note": 74,
      "start": 7.2258,
      "duration": 0.0163,
      "velocity": 97,
      "chip": "ym2612"
    },
    {
      "channel": 3,
      "note": 78,
      "start": 7.2269,
      "duration": 0.0164,
      "velocity": 97,
      "chip": "ym2612"
    },
    {
      "channel": 2,
      "note": 52,
      "start": 7.2308,
      "duration": 0.0164,
      "velocity": 100,
      "chip": "ym2612"
    },
    {
      "channel": 0,
      "note": 43,
      "start": 7.2407,
      "duration": 0.0161,
      "velocity": 115,
      "chip": "ym2612"
    },
    {
      "channel": 4,
      "note": 78,
      "start": 7.2422,
      "duration": 0.0158,
      "velocity": 97,
      "chip": "ym2612"
    },
    {
      "channel": 3,
      "note": 78,
      "start": 7.2433,
      "duration": 0.0159,
      "velocity": 97,
      "chip": "ym2612"
    },
    {
      "channel": 2,
      "note": 52,
      "start": 7.2472,
      "duration": 0.0131,
      "velocity": 100,
      "chip": "ym2612"
    },
    {
      "channel": 0,
      "note": 43,
      "start": 7.2568,
      "duration": 0.0162,
      "velocity": 115,
      "chip": "ym2612"
    },
    {
      "channel": 4,
      "note": 78,
      "start": 7.258,
      "duration": 0.0161,
      "velocity": 97,
      "chip": "ym2612"
    },
    {
      "channel": 3,
      "note": 78,
      "start": 7.2592,
      "duration": 0.0161,
      "velocity": 97,
      "chip": "ym2612"
    },
    {
      "channel": 2,
      "note": 52,
      "start": 7.2603,
      "duration": 0.016,
      "velocity": 100,
      "chip": "ym2612"
    },
    {
      "channel": 0,
      "note": 44,
      "start": 7.273,
      "duration": 0.0161,
      "velocity": 115,
      "chip": "ym2612"
    },
    {
      "channel": 4,
      "note": 78,
      "start": 7.2741,
      "duration": 0.0161,
      "velocity": 97,
      "chip": "ym2612"
    },
    {
      "channel": 3,
      "note": 78,
      "start": 7.2753,
      "duration": 0.0162,
      "velocity": 97,
      "chip": "ym2612"
    },
    {
      "channel": 2,
      "note": 52,
      "start": 7.2763,
      "duration": 0.0162,
      "velocity": 100,
      "chip": "ym2612"
    },
    {
      "channel": 0,
      "note": 44,
      "start": 7.289,
      "duration": 0.0161,
      "velocity": 115,
      "chip": "ym2612"
    },
    {
      "channel": 4,
      "note": 78,
      "start": 7.2902,
      "duration": 0.0161,
      "velocity": 97,
      "chip": "ym2612"
    },
    {
      "channel": 3,
      "note": 78,
      "start": 7.2915,
      "duration": 0.016,
      "velocity": 97,
      "chip": "ym2612"
    },
    {
      "channel": 2,
      "note": 52,
      "start": 7.2926,
      "duration": 0.0161,
      "velocity": 100,
      "chip": "ym2612"
    },
    {
      "channel": 0,
      "note": 44,
      "start": 7.3051,
      "duration": 0.0161,
      "velocity": 115,
      "chip": "ym2612"
    },
    {
      "channel": 4,
      "note": 78,
      "start": 7.3063,
      "duration": 0.0161,
      "velocity": 97,
      "chip": "ym2612"
    },
    {
      "channel": 3,
      "note": 78,
      "start": 7.3075,
      "duration": 0.016,
      "velocity": 97,
      "chip": "ym2612"
    },
    {
      "channel": 2,
      "note": 52,
      "start": 7.3086,
      "duration": 0.016,
      "velocity": 100,
      "chip": "ym2612"
    },
    {
      "channel": 0,
      "note": 45,
      "start": 7.3212,
      "duration": 0.0161,
      "velocity": 115,
      "chip": "ym2612"
    },
    {
      "channel": 4,
      "note": 78,
      "start": 7.3224,
      "duration": 0.0162,
      "velocity": 97,
      "chip": "ym2612"
    },
    {
      "channel": 3,
      "note": 78,
      "start": 7.3235,
      "duration": 0.0162,
      "velocity": 97,
      "chip": "ym2612"
    },
    {
      "channel": 2,
      "note": 52,
      "start": 7.3247,
      "duration": 0.0162,
      "velocity": 100,
      "chip": "ym2612"
    },
    {
      "channel": 0,
      "note": 45,
      "start": 7.3373,
      "duration": 0.0161,
      "velocity": 115,
      "chip": "ym2612"
    },
    {
      "channel": 4,
      "note": 78,
      "start": 7.3386,
      "duration": 0.016,
      "velocity": 97,
      "chip": "ym2612"
    },
    {
      "channel": 3,
      "note": 78,
      "start": 7.3398,
      "duration": 0.016,
      "velocity": 97,
      "chip": "ym2612"
    },
    {
      "channel": 2,
      "note": 52,
      "start": 7.3409,
      "duration": 0.016,
      "velocity": 100,
      "chip": "ym2612"
    },
    {
      "channel": 0,
      "note": 46,
      "start": 7.3534,
      "duration": 0.0161,
      "velocity": 115,
      "chip": "ym2612"
    },
    {
      "channel": 4,
      "note": 78,
      "start": 7.3546,
      "duration": 0.016,
      "velocity": 97,
      "chip": "ym2612"
    },
    {
      "channel": 3,
      "note": 78,
      "start": 7.3558,
      "duration": 0.016,
      "velocity": 97,
      "chip": "ym2612"
    },
    {
      "channel": 2,
      "note": 52,
      "start": 7.3569,
      "duration": 0.0161,
      "velocity": 100,
      "chip": "ym2612"
    },
    {
      "channel": 0,
      "note": 46,
      "start": 7.3695,
      "duration": 0.0179,
      "velocity": 124,
      "chip": "ym2612"
    },
    {
      "channel": 4,
      "note": 78,
      "start": 7.3707,
      "duration": 0.0179,
      "velocity": 97,
      "chip": "ym2612"
    },
    {
      "channel": 3,
      "note": 78,
      "start": 7.3718,
      "duration": 0.0181,
      "velocity": 97,
      "chip": "ym2612"
    },
    {
      "channel": 2,
      "note": 52,
      "start": 7.373,
      "duration": 0.0184,
      "velocity": 100,
      "chip": "ym2612"
    },
    {
      "channel": 0,
      "note": 84,
      "start": 7.3875,
      "duration": 0.0143,
      "velocity": 124,
      "chip": "ym2612"
    },
    {
      "channel": 4,
      "note": 78,
      "start": 7.3886,
      "duration": 0.0143,
      "velocity": 97,
      "chip": "ym2612"
    },
    {
      "channel": 3,
      "note": 74,
      "start": 7.39,
      "duration": 0.0141,
      "velocity": 97,
      "chip": "ym2612"
    },
    {
      "channel": 2,
      "note": 52,
      "start": 7.3914,
      "duration": 0.0139,
      "velocity": 100,
      "chip": "ym2612"
    },
    {
      "channel": 0,
      "note": 82,
      "start": 7.4018,
      "duration": 0.0161,
      "velocity": 124,
      "chip": "ym2612"
    },
    {
      "channel": 4,
      "note": 78,
      "start": 7.4029,
      "duration": 0.0161,
      "velocity": 97,
      "chip": "ym2612"
    },
    {
      "channel": 3,
      "note": 74,
      "start": 7.4041,
      "duration": 0.016,
      "velocity": 97,
      "chip": "ym2612"
    },
    {
      "channel": 2,
      "note": 52,
      "start": 7.4054,
      "duration": 0.016,
      "velocity": 100,
      "chip": "ym2612"
    },
    {
      "channel": 0,
      "note": 80,
      "start": 7.4179,
      "duration": 0.0161,
      "velocity": 124,
      "chip": "ym2612"
    },
    {
      "channel": 4,
      "note": 78,
      "start": 7.419,
      "duration": 0.0163,
      "velocity": 97,
      "chip": "ym2612"
    },
    {
      "channel": 3,
      "note": 74,
      "start": 7.4202,
      "duration": 0.0163,
      "velocity": 97,
      "chip": "ym2612"
    },
    {
      "channel": 2,
      "note": 52,
      "start": 7.4213,
      "duration": 0.0163,
      "velocity": 100,
      "chip": "ym2612"
    },
    {
      "channel": 0,
      "note": 77,
      "start": 7.434,
      "duration": 0.0161,
      "velocity": 124,
      "chip": "ym2612"
    },
    {
      "channel": 4,
      "note": 74,
      "start": 7.4354,
      "duration": 0.0159,
      "velocity": 97,
      "chip": "ym2612"
    },
    {
      "channel": 3,
      "note": 74,
      "start": 7.4365,
      "duration": 0.0159,
      "velocity": 97,
      "chip": "ym2612"
    },
    {
      "channel": 2,
      "note": 52,
      "start": 7.4377,
      "duration": 0.0159,
      "velocity": 100,
      "chip": "ym2612"
    },
    {
      "channel": 0,
      "note": 75,
      "start": 7.4501,
      "duration": 0.0161,
      "velocity": 124,
      "chip": "ym2612"
    },
    {
      "channel": 4,
      "note": 74,
      "start": 7.4513,
      "duration": 0.016,
      "velocity": 97,
      "chip": "ym2612"
    },
    {
      "channel": 3,
      "note": 74,
      "start": 7.4524,
      "duration": 0.016,
      "velocity": 97,
      "chip": "ym2612"
    },
    {
      "channel": 2,
      "note": 52,
      "start": 7.4536,
      "duration": 0.016,
      "velocity": 100,
      "chip": "ym2612"
    },
    {
      "channel": 0,
      "note": 72,
      "start": 7.4661,
      "duration": 0.0161,
      "velocity": 124,
      "chip": "ym2612"
    },
    {
      "channel": 4,
      "note": 74,
      "start": 7.4673,
      "duration": 0.0161,
      "velocity": 97,
      "chip": "ym2612"
    },
    {
      "channel": 3,
      "note": 74,
      "start": 7.4684,
      "duration": 0.0163,
      "velocity": 97,
      "chip": "ym2612"
    },
    {
      "channel": 2,
      "note": 52,
      "start": 7.4696,
      "duration": 0.0163,
      "velocity": 100,
      "chip": "ym2612"
    },
    {
      "channel": 0,
      "note": 70,
      "start": 7.4822,
      "duration": 0.0165,
      "velocity": 124,
      "chip": "ym2612"
    },
    {
      "channel": 4,
      "note": 74,
      "start": 7.4834,
      "duration": 0.0165,
      "velocity": 97,
      "chip": "ym2612"
    },
    {
      "channel": 3,
      "note": 78,
      "start": 7.4848,
      "duration": 0.0163,
      "velocity": 97,
      "chip": "ym2612"
    },
    {
      "channel": 2,
      "note": 52,
      "start": 7.4859,
      "duration": 0.0162,
      "velocity": 100,
      "chip": "ym2612"
    },
    {
      "channel": 0,
      "note": 68,
      "start": 7.4987,
      "duration": 0.0167,
      "velocity": 124,
      "chip": "ym2612"
    },
    {
      "channel": 4,
      "note": 74,
      "start": 7.4999,
      "duration": 0.0167,
      "velocity": 97,
      "chip": "ym2612"
    },
    {
      "channel": 3,
      "note": 78,
      "start": 7.5011,
      "duration": 0.0166,
      "velocity": 97,
      "chip": "ym2612"
    },
    {
      "channel": 2,
      "note": 52,
      "start": 7.5022,
      "duration": 0.0167,
      "velocity": 100,
      "chip": "ym2612"
    },
    {
      "channel": 0,
      "note": 65,
      "start": 7.5154,
      "duration": 0.0163,
      "velocity": 124,
      "chip": "ym2612"
    },
    {
      "channel": 4,
      "note": 74,
      "start": 7.5165,
      "duration": 0.0166,
      "velocity": 97,
      "chip": "ym2612"
    },
    {
      "channel": 3,
      "note": 78,
      "start": 7.5177,
      "duration": 0.0165,
      "velocity": 97,
      "chip": "ym2612"
    },
    {
      "channel": 2,
      "note": 52,
      "start": 7.5188,
      "duration": 0.0166,
      "velocity": 100,
      "chip": "ym2612"
    },
    {
      "channel": 0,
      "note": 63,
      "start": 7.5317,
      "duration": 0.0142,
      "velocity": 1,
      "chip": "ym2612"
    },
    {
      "channel": 4,
      "note": 78,
      "start": 7.5331,
      "duration": 0.014,
      "velocity": 97,
      "chip": "ym2612"
    },
    {
      "channel": 3,
      "note": 78,
      "start": 7.5342,
      "duration": 0.014,
      "velocity": 97,
      "chip": "ym2612"
    },
    {
      "channel": 2,
      "note": 52,
      "start": 7.5354,
      "duration": 0.014,
      "velocity": 100,
      "chip": "ym2612"
    },
    {
      "channel": 4,
      "note": 78,
      "start": 7.5471,
      "duration": 0.0178,
      "velocity": 97,
      "chip": "ym2612"
    },
    {
      "channel": 3,
      "note": 78,
      "start": 7.5482,
      "duration": 0.0178,
      "velocity": 97,
      "chip": "ym2612"
    },
    {
      "channel": 2,
      "note": 52,
      "start": 7.5494,
      "duration": 0.0178,
      "velocity": 100,
      "chip": "ym2612"
    },
    {
      "channel": 4,
      "note": 78,
      "start": 7.5649,
      "duration": 0.0162,
      "velocity": 97,
      "chip": "ym2612"
    },
    {
      "channel": 3,
      "note": 78,
      "start": 7.566,
      "duration": 0.0164,
      "velocity": 97,
      "chip": "ym2612"
    },
    {
      "channel": 2,
      "note": 52,
      "start": 7.5672,
      "duration": 0.0167,
      "velocity": 100,
      "chip": "ym2612"
    },
    {
      "channel": 4,
      "note": 78,
      "start": 7.5811,
      "duration": 0.0158,
      "velocity": 97,
      "chip": "ym2612"
    },
    {
      "channel": 3,
      "note": 80,
      "start": 7.5825,
      "duration": 0.0155,
      "velocity": 97,
      "chip": "ym2612"
    },
    {
      "channel": 2,
      "note": 52,
      "start": 7.584,
      "duration": 0.0153,
      "velocity": 100,
      "chip": "ym2612"
    },
    {
      "channel": 4,
      "note": 78,
      "start": 7.5969,
      "duration": 0.0137,
      "velocity": 97,
      "chip": "ym2612"
    },
    {
      "channel": 3,
      "note": 80,
      "start": 7.598,
      "duration": 0.014,
      "velocity": 97,
      "chip": "ym2612"
    },
    {
      "channel": 2,
      "note": 52,
      "start": 7.5992,
      "duration": 0.0139,
      "velocity": 100,
      "chip": "ym2612"
    },
    {
      "channel": 4,
      "note": 78,
      "start": 7.6106,
      "duration": 0.0163,
      "velocity": 97,
      "chip": "ym2612"
    },
    {
      "channel": 3,
      "note": 80,
      "start": 7.612,
      "duration": 0.0188,
      "velocity": 97,
      "chip": "ym2612"
    },
    {
      "channel": 2,
      "note": 52,
      "start": 7.6132,
      "duration": 0.0188,
      "velocity": 100,
      "chip": "ym2612"
    },
    {
      "channel": 4,
      "note": 80,
      "start": 7.6269,
      "duration": 0.0159,
      "velocity": 97,
      "chip": "ym2612"
    },
    {
      "channel": 3,
      "note": 80,
      "start": 7.6308,
      "duration": 0.0132,
      "velocity": 97,
      "chip": "ym2612"
    },
    {
      "channel": 2,
      "note": 52,
      "start": 7.6319,
      "duration": 0.0159,
      "velocity": 100,
      "chip": "ym2612"
    },
    {
      "channel": 4,
      "note": 80,
      "start": 7.6428,
      "duration": 0.0161,
      "velocity": 97,
      "chip": "ym2612"
    },
    {
      "channel": 3,
      "note": 80,
      "start": 7.6439,
      "duration": 0.016,
      "velocity": 97,
      "chip": "ym2612"
    },
    {
      "channel": 2,
      "note": 52,
      "start": 7.6478,
      "duration": 0.0157,
      "velocity": 100,
      "chip": "ym2612"
    },
    {
      "channel": 4,
      "note": 80,
      "start": 7.6589,
      "duration": 0.0161,
      "velocity": 97,
      "chip": "ym2612"
    },
    {
      "channel": 3,
      "note": 80,
      "start": 7.66,
      "duration": 0.0163,
      "velocity": 97,
      "chip": "ym2612"
    },
    {
      "channel": 2,
      "note": 52,
      "start": 7.6635,
      "duration": 0.014,
      "velocity": 100,
      "chip": "ym2612"
    },
    {
      "channel": 4,
      "note": 80,
      "start": 7.675,
      "duration": 0.0161,
      "velocity": 97,
      "chip": "ym2612"
    },
    {
      "channel": 3,
      "note": 80,
      "start": 7.6763,
      "duration": 0.016,
      "velocity": 97,
      "chip": "ym2612"
    },
    {
      "channel": 2,
      "note": 52,
      "start": 7.6776,
      "duration": 0.0158,
      "velocity": 100,
      "chip": "ym2612"
    },
    {
      "channel": 4,
      "note": 80,
      "start": 7.6911,
      "duration": 0.0161,
      "velocity": 97,
      "chip": "ym2612"
    },
    {
      "channel": 3,
      "note": 80,
      "start": 7.6922,
      "duration": 0.0161,
      "velocity": 97,
      "chip": "ym2612"
    },
    {
      "channel": 2,
      "note": 52,
      "start": 7.6934,
      "duration": 0.016,
      "velocity": 100,
      "chip": "ym2612"
    },
    {
      "channel": 4,
      "note": 80,
      "start": 7.7072,
      "duration": 0.0162,
      "velocity": 97,
      "chip": "ym2612"
    },
    {
      "channel": 3,
      "note": 80,
      "start": 7.7083,
      "duration": 0.0162,
      "velocity": 97,
      "chip": "ym2612"
    },
    {
      "channel": 2,
      "note": 52,
      "start": 7.7094,
      "duration": 0.0162,
      "velocity": 100,
      "chip": "ym2612"
    },
    {
      "channel": 4,
      "note": 80,
      "start": 7.7234,
      "duration": 0.016,
      "velocity": 97,
      "chip": "ym2612"
    },
    {
      "channel": 3,
      "note": 80,
      "start": 7.7246,
      "duration": 0.016,
      "velocity": 97,
      "chip": "ym2612"
    },
    {
      "channel": 2,
      "note": 52,
      "start": 7.7256,
      "duration": 0.016,
      "velocity": 100,
      "chip": "ym2612"
    },
    {
      "channel": 4,
      "note": 80,
      "start": 7.7394,
      "duration": 0.016,
      "velocity": 97,
      "chip": "ym2612"
    },
    {
      "channel": 3,
      "note": 80,
      "start": 7.7406,
      "duration": 0.016,
      "velocity": 97,
      "chip": "ym2612"
    },
    {
      "channel": 2,
      "note": 52,
      "start": 7.7417,
      "duration": 0.016,
      "velocity": 100,
      "chip": "ym2612"
    },
    {
      "channel": 4,
      "note": 80,
      "start": 7.7555,
      "duration": 0.0195,
      "velocity": 97,
      "chip": "ym2612"
    },
    {
      "channel": 3,
      "note": 80,
      "start": 7.7566,
      "duration": 0.0198,
      "velocity": 97,
      "chip": "ym2612"
    },
    {
      "channel": 2,
      "note": 52,
      "start": 7.7577,
      "duration": 0.0229,
      "velocity": 100,
      "chip": "ym2612"
    },
    {
      "channel": 0,
      "note": 36,
      "start": 7.7739,
      "duration": 0.0144,
      "velocity": 115,
      "chip": "ym2612"
    },
    {
      "channel": 4,
      "note": 80,
      "start": 7.775,
      "duration": 0.0144,
      "velocity": 97,
      "chip": "ym2612"
    },
    {
      "channel": 3,
      "note": 80,
      "start": 7.7764,
      "duration": 0.0142,
      "velocity": 97,
      "chip": "ym2612"
    },
    {
      "channel": 2,
      "note": 52,
      "start": 7.7806,
      "duration": 0.0112,
      "velocity": 100,
      "chip": "ym2612"
    },
    {
      "channel": 0,
      "note": 36,
      "start": 7.7882,
      "duration": 0.016,
      "velocity": 115,
      "chip": "ym2612"
    },
    {
      "channel": 4,
      "note": 80,
      "start": 7.7894,
      "duration": 0.016,
      "velocity": 97,
      "chip": "ym2612"
    },
    {
      "channel": 3,
      "note": 80,
      "start": 7.7906,
      "duration": 0.016,
      "velocity": 97,
      "chip": "ym2612"
    },
    {
      "channel": 2,
      "note": 52,
      "start": 7.7918,
      "duration": 0.0159,
      "velocity": 100,
      "chip": "ym2612"
    },
    {
      "channel": 0,
      "note": 37,
      "start": 7.8043,
      "duration": 0.0161,
      "velocity": 115,
      "chip": "ym2612"
    },
    {
      "channel": 4,
      "note": 80,
      "start": 7.8054,
      "duration": 0.0163,
      "velocity": 97,
      "chip": "ym2612"
    },
    {
      "channel": 3,
      "note": 80,
      "start": 7.8066,
      "duration": 0.0164,
      "velocity": 97,
      "chip": "ym2612"
    },
    {
      "channel": 2,
      "note": 52,
      "start": 7.8077,
      "duration": 0.0163,
      "velocity": 100,
      "chip": "ym2612"
    },
    {
      "channel": 0,
      "note": 37,
      "start": 7.8204,
      "duration": 0.0161,
      "velocity": 115,
      "chip": "ym2612"
    },
    {
      "channel": 4,
      "note": 80,
      "start": 7.8218,
      "duration": 0.0159,
      "velocity": 97,
      "chip": "ym2612"
    },
    {
      "channel": 3,
      "note": 80,
      "start": 7.823,
      "duration": 0.0158,
      "velocity": 97,
      "chip": "ym2612"
    },
    {
      "channel": 2,
      "note": 52,
      "start": 7.824,
      "duration": 0.0159,
      "velocity": 100,
      "chip": "ym2612"
    },
    {
      "channel": 0,
      "note": 38,
      "start": 7.8364,
      "duration": 0.0161,
      "velocity": 115,
      "chip": "ym2612"
    },
    {
      "channel": 4,
      "note": 80,
      "start": 7.8377,
      "duration": 0.0161,
      "velocity": 97,
      "chip": "ym2612"
    },
    {
      "channel": 3,
      "note": 80,
      "start": 7.8388,
      "duration": 0.016,
      "velocity": 97,
      "chip": "ym2612"
    },
    {
      "channel": 2,
      "note": 52,
      "start": 7.84,
      "duration": 0.016,
      "velocity": 100,
      "chip": "ym2612"
    },
    {
      "channel": 0,
      "note": 38,
      "start": 7.8525,
      "duration": 0.0162,
      "velocity": 115,
      "chip": "ym2612"
    },
    {
      "channel": 4,
      "note": 80,
      "start": 7.8537,
      "duration": 0.0161,
      "velocity": 97,
      "chip": "ym2612"
    },
    {
      "channel": 3,
      "note": 80,
      "start": 7.8548,
      "duration": 0.0163,
      "velocity": 97,
      "chip": "ym2612"
    },
    {
      "channel": 2,
      "note": 52,
      "start": 7.856,
      "duration": 0.0164,
      "velocity": 100,
      "chip": "ym2612"
    },
    {
      "channel": 0,
      "note": 39,
      "start": 7.8687,
      "duration": 0.0161,
      "velocity": 115,
      "chip": "ym2612"
    },
    {
      "channel": 4,
      "note": 80,
      "start": 7.8698,
      "duration": 0.0161,
      "velocity": 97,
      "chip": "ym2612"
    },
    {
      "channel": 3,
      "note": 80,
      "start": 7.8712,
      "duration": 0.0159,
      "velocity": 97,
      "chip": "ym2612"
    },
    {
      "channel": 2,
      "note": 52,
      "start": 7.8724,
      "duration": 0.0159,
      "velocity": 100,
      "chip": "ym2612"
    },
    {
      "channel": 0,
      "note": 39,
      "start": 7.8848,
      "duration": 0.0161,
      "velocity": 115,
      "chip": "ym2612"
    },
    {
      "channel": 4,
      "note": 80,
      "start": 7.8859,
      "duration": 0.0161,
      "velocity": 97,
      "chip": "ym2612"
    },
    {
      "channel": 3,
      "note": 80,
      "start": 7.8871,
      "duration": 0.016,
      "velocity": 97,
      "chip": "ym2612"
    },
    {
      "channel": 2,
      "note": 52,
      "start": 7.8883,
      "duration": 0.016,
      "velocity": 100,
      "chip": "ym2612"
    },
    {
      "channel": 0,
      "note": 40,
      "start": 7.9009,
      "duration": 0.0161,
      "velocity": 115,
      "chip": "ym2612"
    },
    {
      "channel": 4,
      "note": 80,
      "start": 7.902,
      "duration": 0.0163,
      "velocity": 97,
      "chip": "ym2612"
    },
    {
      "channel": 3,
      "note": 80,
      "start": 7.9032,
      "duration": 0.0163,
      "velocity": 97,
      "chip": "ym2612"
    },
    {
      "channel": 2,
      "note": 52,
      "start": 7.9043,
      "duration": 0.0163,
      "velocity": 100,
      "chip": "ym2612"
    },
    {
      "channel": 0,
      "note": 40,
      "start": 7.917,
      "duration": 0.0161,
      "velocity": 115,
      "chip": "ym2612"
    },
    {
      "channel": 4,
      "note": 80,
      "start": 7.9184,
      "duration": 0.0159,
      "velocity": 97,
      "chip": "ym2612"
    },
    {
      "channel": 3,
      "note": 80,
      "start": 7.9195,
      "duration": 0.0159,
      "velocity": 97,
      "chip": "ym2612"
    },
    {
      "channel": 2,
      "note": 52,
      "start": 7.9207,
      "duration": 0.0159,
      "velocity": 100,
      "chip": "ym2612"
    },
    {
      "channel": 0,
      "note": 40,
      "start": 7.9331,
      "duration": 0.0161,
      "velocity": 115,
      "chip": "ym2612"
    },
    {
      "channel": 4,
      "note": 80,
      "start": 7.9343,
      "duration": 0.016,
      "velocity": 97,
      "chip": "ym2612"
    },
    {
      "channel": 3,
      "note": 80,
      "start": 7.9354,
      "duration": 0.016,
      "velocity": 97,
      "chip": "ym2612"
    },
    {
      "channel": 2,
      "note": 52,
      "start": 7.9366,
      "duration": 0.016,
      "velocity": 100,
      "chip": "ym2612"
    },
    {
      "channel": 0,
      "note": 41,
      "start": 7.9492,
      "duration": 0.0162,
      "velocity": 115,
      "chip": "ym2612"
    },
    {
      "channel": 4,
      "note": 80,
      "start": 7.9503,
      "duration": 0.0162,
      "velocity": 97,
      "chip": "ym2612"
    },
    {
      "channel": 3,
      "note": 80,
      "start": 7.9515,
      "duration": 0.0164,
      "velocity": 97,
      "chip": "ym2612"
    },
    {
      "channel": 2,
      "note": 52,
      "start": 7.9526,
      "duration": 0.0167,
      "velocity": 100,
      "chip": "ym2612"
    },
    {
      "channel": 0,
      "note": 41,
      "start": 7.9654,
      "duration": 0.0167,
      "velocity": 115,
      "chip": "ym2612"
    },
    {
      "channel": 4,
      "note": 80,
      "start": 7.9665,
      "duration": 0.0167,
      "velocity": 97,
      "chip": "ym2612"
    },
    {
      "channel": 3,
      "note": 76,
      "start": 7.9679,
      "duration": 0.0165,
      "velocity": 97,
      "chip": "ym2612"
    },
    {
      "channel": 2,
      "note": 52,
      "start": 7.9694,
      "duration": 0.0161,
      "velocity": 100,
      "chip": "ym2612"
    },
    {
      "channel": 0,
      "note": 42,
      "start": 7.9821,
      "duration": 0.0163,
      "velocity": 115,
      "chip": "ym2612"
    },
    {
      "channel": 4,
      "note": 80,
      "start": 7.9832,
      "duration": 0.0163,
      "velocity": 97,
      "chip": "ym2612"
    },
    {
      "channel": 3,
      "note": 76,
      "start": 7.9844,
      "duration": 0.0162,
      "velocity": 97,
      "chip": "ym2612"
    },
    {
      "channel": 2,
      "note": 52,
      "start": 7.9856,
      "duration": 0.0162,
      "velocity": 100,
      "chip": "ym2612"
    },
    {
      "channel": 0,
      "note": 42,
      "start": 7.9983,
      "duration": 0.0153,
      "velocity": 115,
      "chip": "ym2612"
    },
    {
      "channel": 4,
      "note": 80,
      "start": 7.9995,
      "duration": 0.0155,
      "velocity": 97,
      "chip": "ym2612"
    },
    {
      "channel": 3,
      "note": 76,
      "start": 8.0006,
      "duration": 0.0155,
      "velocity": 97,
      "chip": "ym2612"
    },
    {
      "channel": 2,
      "note": 52,
      "start": 8.0018,
      "duration": 0.0155,
      "velocity": 100,
      "chip": "ym2612"
    },
    {
      "channel": 0,
      "note": 43,
      "start": 8.0136,
      "duration": 0.0185,
      "velocity": 115,
      "chip": "ym2612"
    },
    {
      "channel": 4,
      "note": 76,
      "start": 8.015,
      "duration": 0.0183,
      "velocity": 97,
      "chip": "ym2612"
    },
    {
      "channel": 3,
      "note": 76,
      "start": 8.0161,
      "duration": 0.0183,
      "velocity": 97,
      "chip": "ym2612"
    },
    {
      "channel": 2,
      "note": 52,
      "start": 8.0173,
      "duration": 0.0182,
      "velocity": 100,
      "chip": "ym2612"
    },
    {
      "channel": 0,
      "note": 43,
      "start": 8.0321,
      "duration": 0.0165,
      "velocity": 115,
      "chip": "ym2612"
    },
    {
      "channel": 4,
      "note": 76,
      "start": 8.0333,
      "duration": 0.0164,
      "velocity": 97,
      "chip": "ym2612"
    },
    {
      "channel": 3,
      "note": 76,
      "start": 8.0344,
      "duration": 0.0164,
      "velocity": 97,
      "chip": "ym2612"
    },
    {
      "channel": 2,
      "note": 52,
      "start": 8.0355,
      "duration": 0.0165,
      "velocity": 100,
      "chip": "ym2612"
    },
    {
      "channel": 0,
      "note": 44,
      "start": 8.0485,
      "duration": 0.0157,
      "velocity": 115,
      "chip": "ym2612"
    },
    {
      "channel": 4,
      "note": 76,
      "start": 8.0497,
      "duration": 0.0158,
      "velocity": 97,
      "chip": "ym2612"
    },
    {
      "channel": 3,
      "note": 76,
      "start": 8.0508,
      "duration": 0.0159,
      "velocity": 97,
      "chip": "ym2612"
    },
    {
      "channel": 2,
      "note": 52,
      "start": 8.052,
      "duration": 0.0158,
      "velocity": 100,
      "chip": "ym2612"
    },
    {
      "channel": 0,
      "note": 44,
      "start": 8.0642,
      "duration": 0.0141,
      "velocity": 115,
      "chip": "ym2612"
    },
    {
      "channel": 4,
      "note": 76,
      "start": 8.0655,
      "duration": 0.0141,
      "velocity": 97,
      "chip": "ym2612"
    },
    {
      "channel": 3,
      "note": 76,
      "start": 8.0667,
      "duration": 0.014,
      "velocity": 97,
      "chip": "ym2612"
    },
    {
      "channel": 2,
      "note": 52,
      "start": 8.0678,
      "duration": 0.014,
      "velocity": 100,
      "chip": "ym2612"
    },
    {
      "channel": 0,
      "note": 44,
      "start": 8.0783,
      "duration": 0.0185,
      "velocity": 115,
      "chip": "ym2612"
    },
    {
      "channel": 4,
      "note": 76,
      "start": 8.0795,
      "duration": 0.0185,
      "velocity": 97,
      "chip": "ym2612"
    },
    {
      "channel": 3,
      "note": 76,
      "start": 8.0807,
      "duration": 0.0185,
      "velocity": 97,
      "chip": "ym2612"
    },
    {
      "channel": 2,
      "note": 52,
      "start": 8.0818,
      "duration": 0.0184,
      "velocity": 100,
      "chip": "ym2612"
    },
    {
      "channel": 0,
      "note": 45,
      "start": 8.0968,
      "duration": 0.0134,
      "velocity": 115,
      "chip": "ym2612"
    },
    {
      "channel": 4,
      "note": 76,
      "start": 8.098,
      "duration": 0.0162,
      "velocity": 97,
      "chip": "ym2612"
    },
    {
      "channel": 3,
      "note": 76,
      "start": 8.0991,
      "duration": 0.0162,
      "velocity": 97,
      "chip": "ym2612"
    },
    {
      "channel": 2,
      "note": 52,
      "start": 8.1002,
      "duration": 0.0162,
      "velocity": 100,
      "chip": "ym2612"
    },
    {
      "channel": 0,
      "note": 45,
      "start": 8.1102,
      "duration": 0.0161,
      "velocity": 115,
      "chip": "ym2612"
    },
    {
      "channel": 4,
      "note": 76,
      "start": 8.1142,
      "duration": 0.0156,
      "velocity": 97,
      "chip": "ym2612"
    },
    {
      "channel": 3,
      "note": 76,
      "start": 8.1153,
      "duration": 0.0157,
      "velocity": 97,
      "chip": "ym2612"
    },
    {
      "channel": 2,
      "note": 52,
      "start": 8.1165,
      "duration": 0.0156,
      "velocity": 100,
      "chip": "ym2612"
    },
    {
      "channel": 0,
      "note": 46,
      "start": 8.1263,
      "duration": 0.0161,
      "velocity": 115,
      "chip": "ym2612"
    },
    {
      "channel": 4,
      "note": 76,
      "start": 8.1298,
      "duration": 0.0137,
      "velocity": 97,
      "chip": "ym2612"
    },
    {
      "channel": 3,
      "note": 76,
      "start": 8.131,
      "duration": 0.0139,
      "velocity": 97,
      "chip": "ym2612"
    },
    {
      "channel": 2,
      "note": 52,
      "start": 8.1321,
      "duration": 0.014,
      "velocity": 100,
      "chip": "ym2612"
    },
    {
      "channel": 0,
      "note": 46,
      "start": 8.1424,
      "duration": 0.0179,
      "velocity": 124,
      "chip": "ym2612"
    },
    {
      "channel": 4,
      "note": 76,
      "start": 8.1435,
      "duration": 0.0207,
      "velocity": 97,
      "chip": "ym2612"
    },
    {
      "channel": 3,
      "note": 76,
      "start": 8.145,
      "duration": 0.0206,
      "velocity": 97,
      "chip": "ym2612"
    },
    {
      "channel": 2,
      "note": 52,
      "start": 8.1461,
      "duration": 0.0209,
      "velocity": 100,
      "chip": "ym2612"
    },
    {
      "channel": 0,
      "note": 84,
      "start": 8.1603,
      "duration": 0.0144,
      "velocity": 124,
      "chip": "ym2612"
    },
    {
      "channel": 4,
      "note": 76,
      "start": 8.1642,
      "duration": 0.0116,
      "velocity": 97,
      "chip": "ym2612"
    },
    {
      "channel": 3,
      "note": 80,
      "start": 8.1656,
      "duration": 0.0114,
      "velocity": 97,
      "chip": "ym2612"
    },
    {
      "channel": 2,
      "note": 52,
      "start": 8.1671,
      "duration": 0.0139,
      "velocity": 100,
      "chip": "ym2612"
    },
    {
      "channel": 0,
      "note": 82,
      "start": 8.1747,
      "duration": 0.016,
      "velocity": 124,
      "chip": "ym2612"
    },
    {
      "channel": 4,
      "note": 76,
      "start": 8.1758,
      "duration": 0.016,
      "velocity": 97,
      "chip": "ym2612"
    },
    {
      "channel": 3,
      "note": 80,
      "start": 8.177,
      "duration": 0.016,
      "velocity": 97,
      "chip": "ym2612"
    },
    {
      "channel": 2,
      "note": 52,
      "start": 8.1809,
      "duration": 0.0156,
      "velocity": 100,
      "chip": "ym2612"
    },
    {
      "channel": 0,
      "note": 80,
      "start": 8.1907,
      "duration": 0.0161,
      "velocity": 124,
      "chip": "ym2612"
    },
    {
      "channel": 4,
      "note": 76,
      "start": 8.1919,
      "duration": 0.0163,
      "velocity": 97,
      "chip": "ym2612"
    },
    {
      "channel": 3,
      "note": 80,
      "start": 8.193,
      "duration": 0.0163,
      "velocity": 97,
      "chip": "ym2612"
    },
    {
      "channel": 2,
      "note": 52,
      "start": 8.1965,
      "duration": 0.014,
      "velocity": 100,
      "chip": "ym2612"
    },
    {
      "channel": 0,
      "note": 77,
      "start": 8.2068,
      "duration": 0.0161,
      "velocity": 124,
      "chip": "ym2612"
    },
    {
      "channel": 4,
      "note": 80,
      "start": 8.2082,
      "duration": 0.0159,
      "velocity": 97,
      "chip": "ym2612"
    },
    {
      "channel": 3,
      "note": 80,
      "start": 8.2093,
      "duration": 0.0159,
      "velocity": 97,
      "chip": "ym2612"
    },
    {
      "channel": 2,
      "note": 52,
      "start": 8.2105,
      "duration": 0.0159,
      "velocity": 100,
      "chip": "ym2612"
    },
    {
      "channel": 0,
      "note": 75,
      "start": 8.2229,
      "duration": 0.0161,
      "velocity": 124,
      "chip": "ym2612"
    },
    {
      "channel": 4,
      "note": 80,
      "start": 8.2241,
      "duration": 0.016,
      "velocity": 97,
      "chip": "ym2612"
    },
    {
      "channel": 3,
      "note": 80,
      "start": 8.2253,
      "duration": 0.016,
      "velocity": 97,
      "chip": "ym2612"
    },
    {
      "channel": 2,
      "note": 52,
      "start": 8.2264,
      "duration": 0.016,
      "velocity": 100,
      "chip": "ym2612"
    },
    {
      "channel": 0,
      "note": 72,
      "start": 8.239,
      "duration": 0.0161,
      "velocity": 124,
      "chip": "ym2612"
    },
    {
      "channel": 4,
      "note": 80,
      "start": 8.2401,
      "duration": 0.0162,
      "velocity": 97,
      "chip": "ym2612"
    },
    {
      "channel": 3,
      "note": 80,
      "start": 8.2413,
      "duration": 0.0163,
      "velocity": 97,
      "chip": "ym2612"
    },
    {
      "channel": 2,
      "note": 52,
      "start": 8.2424,
      "duration": 0.0163,
      "velocity": 100,
      "chip": "ym2612"
    },
    {
      "channel": 0,
      "note": 70,
      "start": 8.2551,
      "duration": 0.0161,
      "velocity": 124,
      "chip": "ym2612"
    },
    {
      "channel": 4,
      "note": 80,
      "start": 8.2563,
      "duration": 0.0161,
      "velocity": 97,
      "chip": "ym2612"
    },
    {
      "channel": 3,
      "note": 76,
      "start": 8.2577,
      "duration": 0.0159,
      "velocity": 97,
      "chip": "ym2612"
    },
    {
      "channel": 2,
      "note": 52,
      "start": 8.2588,
      "duration": 0.0159,
      "velocity": 100,
      "chip": "ym2612"
    },
    {
      "channel": 0,
      "note": 68,
      "start": 8.2712,
      "duration": 0.0161,
      "velocity": 124,
      "chip": "ym2612"
    },
    {
      "channel": 4,
      "note": 80,
      "start": 8.2724,
      "duration": 0.0161,
      "velocity": 97,
      "chip": "ym2612"
    },
    {
      "channel": 3,
      "note": 76,
      "start": 8.2735,
      "duration": 0.016,
      "velocity": 97,
      "chip": "ym2612"
    },
    {
      "channel": 2,
      "note": 52,
      "start": 8.2747,
      "duration": 0.016,
      "velocity": 100,
      "chip": "ym2612"
    },
    {
      "channel": 0,
      "note": 65,
      "start": 8.2873,
      "duration": 0.0161,
      "velocity": 124,
      "chip": "ym2612"
    },
    {
      "channel": 4,
      "note": 80,
      "start": 8.2885,
      "duration": 0.0163,
      "velocity": 97,
      "chip": "ym2612"
    },
    {
      "channel": 3,
      "note": 76,
      "start": 8.2896,
      "duration": 0.0164,
      "velocity": 97,
      "chip": "ym2612"
    },
    {
      "channel": 2,
      "note": 52,
      "start": 8.2907,
      "duration": 0.0164,
      "velocity": 100,
      "chip": "ym2612"
    },
    {
      "channel": 0,
      "note": 63,
      "start": 8.3034,
      "duration": 0.0153,
      "velocity": 1,
      "chip": "ym2612"
    },
    {
      "channel": 4,
      "note": 76,
      "start": 8.3048,
      "duration": 0.0151,
      "velocity": 97,
      "chip": "ym2612"
    },
    {
      "channel": 3,
      "note": 76,
      "start": 8.306,
      "duration": 0.0151,
      "velocity": 97,
      "chip": "ym2612"
    },
    {
      "channel": 2,
      "note": 52,
      "start": 8.3071,
      "duration": 0.0151,
      "velocity": 100,
      "chip": "ym2612"
    },
    {
      "channel": 4,
      "note": 76,
      "start": 8.3199,
      "duration": 0.0152,
      "velocity": 97,
      "chip": "ym2612"
    },
    {
      "channel": 3,
      "note": 76,
      "start": 8.321,
      "duration": 0.0152,
      "velocity": 97,
      "chip": "ym2612"
    },
    {
      "channel": 2,
      "note": 52,
      "start": 8.3222,
      "duration": 0.0152,
      "velocity": 100,
      "chip": "ym2612"
    },
    {
      "channel": 4,
      "note": 76,
      "start": 8.3351,
      "duration": 0.0196,
      "velocity": 97,
      "chip": "ym2612"
    },
    {
      "channel": 3,
      "note": 76,
      "start": 8.3363,
      "duration": 0.0198,
      "velocity": 97,
      "chip": "ym2612"
    },
    {
      "channel": 2,
      "note": 52,
      "start": 8.3374,
      "duration": 0.0201,
      "velocity": 100,
      "chip": "ym2612"
    },
    {
      "channel": 0,
      "note": 36,
      "start": 8.3535,
      "duration": 0.0144,
      "velocity": 115,
      "chip": "ym2612"
    },
    {
      "channel": 4,
      "note": 76,
      "start": 8.3547,
      "duration": 0.0143,
      "velocity": 97,
      "chip": "ym2612"
    },
    {
      "channel": 3,
      "note": 71,
      "start": 8.3561,
      "duration": 0.0141,
      "velocity": 97,
      "chip": "ym2612"
    },
    {
      "channel": 2,
      "note": 52,
      "start": 8.3575,
      "duration": 0.0139,
      "velocity": 100,
      "chip": "ym2612"
    },
    {
      "channel": 0,
      "note": 36,
      "start": 8.3679,
      "duration": 0.016,
      "velocity": 115,
      "chip": "ym2612"
    },
    {
      "channel": 4,
      "note": 76,
      "start": 8.369,
      "duration": 0.016,
      "velocity": 97,
      "chip": "ym2612"
    },
    {
      "channel": 3,
      "note": 71,
      "start": 8.3702,
      "duration": 0.016,
      "velocity": 97,
      "chip": "ym2612"
    },
    {
      "channel": 2,
      "note": 52,
      "start": 8.3714,
      "duration": 0.016,
      "velocity": 100,
      "chip": "ym2612"
    },
    {
      "channel": 0,
      "note": 37,
      "start": 8.3839,
      "duration": 0.0161,
      "velocity": 115,
      "chip": "ym2612"
    },
    {
      "channel": 4,
      "note": 76,
      "start": 8.3851,
      "duration": 0.0163,
      "velocity": 97,
      "chip": "ym2612"
    },
    {
      "channel": 3,
      "note": 71,
      "start": 8.3862,
      "duration": 0.0163,
      "velocity": 97,
      "chip": "ym2612"
    },
    {
      "channel": 2,
      "note": 52,
      "start": 8.3873,
      "duration": 0.0163,
      "velocity": 100,
      "chip": "ym2612"
    },
    {
      "channel": 0,
      "note": 37,
      "start": 8.4,
      "duration": 0.0161,
      "velocity": 115,
      "chip": "ym2612"
    },
    {
      "channel": 4,
      "note": 71,
      "start": 8.4014,
      "duration": 0.0159,
      "velocity": 97,
      "chip": "ym2612"
    },
    {
      "channel": 3,
      "note": 71,
      "start": 8.4025,
      "duration": 0.0159,
      "velocity": 97,
      "chip": "ym2612"
    },
    {
      "channel": 2,
      "note": 52,
      "start": 8.4037,
      "duration": 0.0159,
      "velocity": 100,
      "chip": "ym2612"
    },
    {
      "channel": 0,
      "note": 38,
      "start": 8.4161,
      "duration": 0.0161,
      "velocity": 115,
      "chip": "ym2612"
    },
    {
      "channel": 4,
      "note": 71,
      "start": 8.4173,
      "duration": 0.0161,
      "velocity": 97,
      "chip": "ym2612"
    },
    {
      "channel": 3,
      "note": 71,
      "start": 8.4184,
      "duration": 0.016,
      "velocity": 97,
      "chip": "ym2612"
    },
    {
      "channel": 2,
      "note": 52,
      "start": 8.4196,
      "duration": 0.016,
      "velocity": 100,
      "chip": "ym2612"
    },
    {
      "channel": 0,
      "note": 38,
      "start": 8.4322,
      "duration": 0.0166,
      "velocity": 115,
      "chip": "ym2612"
    },
    {
      "channel": 4,
      "note": 71,
      "start": 8.4334,
      "duration": 0.0165,
      "velocity": 97,
      "chip": "ym2612"
    },
    {
      "channel": 3,
      "note": 71,
      "start": 8.4345,
      "duration": 0.0167,
      "velocity": 97,
      "chip": "ym2612"
    },
    {
      "channel": 2,
      "note": 52,
      "start": 8.4356,
      "duration": 0.0166,
      "velocity": 100,
      "chip": "ym2612"
    },
    {
      "channel": 0,
      "note": 39,
      "start": 8.4487,
      "duration": 0.0163,
      "velocity": 115,
      "chip": "ym2612"
    },
    {
      "channel": 4,
      "note": 71,
      "start": 8.4499,
      "duration": 0.0163,
      "velocity": 97,
      "chip": "ym2612"
    },
    {
      "channel": 3,
      "note": 71,
      "start": 8.4511,
      "duration": 0.0162,
      "velocity": 97,
      "chip": "ym2612"
    },
    {
      "channel": 2,
      "note": 52,
      "start": 8.4522,
      "duration": 0.0163,
      "velocity": 100,
      "chip": "ym2612"
    },
    {
      "channel": 0,
      "note": 39,
      "start": 8.465,
      "duration": 0.0155,
      "velocity": 115,
      "chip": "ym2612"
    },
    {
      "channel": 4,
      "note": 71,
      "start": 8.4661,
      "duration": 0.0155,
      "velocity": 97,
      "chip": "ym2612"
    },
    {
      "channel": 3,
      "note": 71,
      "start": 8.4674,
      "duration": 0.0154,
      "velocity": 97,
      "chip": "ym2612"
    },
    {
      "channel": 2,
      "note": 52,
      "start": 8.4685,
      "duration": 0.0154,
      "velocity": 100,
      "chip": "ym2612"
    },
    {
      "channel": 0,
      "note": 40,
      "start": 8.4805,
      "duration": 0.0181,
      "velocity": 115,
      "chip": "ym2612"
    },
    {
      "channel": 4,
      "note": 71,
      "start": 8.4817,
      "duration": 0.0183,
      "velocity": 97,
      "chip": "ym2612"
    },
    {
      "channel": 3,
      "note": 71,
      "start": 8.4828,
      "duration": 0.0183,
      "velocity": 97,
      "chip": "ym2612"
    },
    {
      "channel": 2,
      "note": 52,
      "start": 8.4839,
      "duration": 0.0183,
      "velocity": 100,
      "chip": "ym2612"
    },
    {
      "channel": 0,
      "note": 40,
      "start": 8.4987,
      "duration": 0.0167,
      "velocity": 115,
      "chip": "ym2612"
    },
    {
      "channel": 4,
      "note": 71,
      "start": 8.5,
      "duration": 0.0166,
      "velocity": 97,
      "chip": "ym2612"
    },
    {
      "channel": 3,
      "note": 71,
      "start": 8.5011,
      "duration": 0.0166,
      "velocity": 97,
      "chip": "ym2612"
    },
    {
      "channel": 2,
      "note": 52,
      "start": 8.5022,
      "duration": 0.0166,
      "velocity": 100,
      "chip": "ym2612"
    },
    {
      "channel": 0,
      "note": 40,
      "start": 8.5154,
      "duration": 0.0158,
      "velocity": 115,
      "chip": "ym2612"
    },
    {
      "channel": 4,
      "note": 71,
      "start": 8.5166,
      "duration": 0.0158,
      "velocity": 97,
      "chip": "ym2612"
    },
    {
      "channel": 3,
      "note": 71,
      "start": 8.5177,
      "duration": 0.0158,
      "velocity": 97,
      "chip": "ym2612"
    },
    {
      "channel": 2,
      "note": 52,
      "start": 8.5188,
      "duration": 0.0158,
      "velocity": 100,
      "chip": "ym2612"
    },
    {
      "channel": 0,
      "note": 41,
      "start": 8.5312,
      "duration": 0.0158,
      "velocity": 115,
      "chip": "ym2612"
    },
    {
      "channel": 4,
      "note": 71,
      "start": 8.5324,
      "duration": 0.0158,
      "velocity": 97,
      "chip": "ym2612"
    },
    {
      "channel": 3,
      "note": 71,
      "start": 8.5335,
      "duration": 0.0161,
      "velocity": 97,
      "chip": "ym2612"
    },
    {
      "channel": 2,
      "note": 52,
      "start": 8.5346,
      "duration": 0.0164,
      "velocity": 100,
      "chip": "ym2612"
    },
    {
      "channel": 0,
      "note": 36,
      "start": 8.547,
      "duration": 0.0168,
      "velocity": 115,
      "chip": "ym2612"
    },
    {
      "channel": 4,
      "note": 71,
      "start": 8.5482,
      "duration": 0.0167,
      "velocity": 97,
      "chip": "ym2612"
    },
    {
      "channel": 3,
      "note": 78,
      "start": 8.5496,
      "duration": 0.0165,
      "velocity": 97,
      "chip": "ym2612"
    },
    {
      "channel": 2,
      "note": 52,
      "start": 8.551,
      "duration": 0.0163,
      "velocity": 100,
      "chip": "ym2612"
    },
    {
      "channel": 0,
      "note": 36,
      "start": 8.5638,
      "duration": 0.0133,
      "velocity": 115,
      "chip": "ym2612"
    },
    {
      "channel": 4,
      "note": 71,
      "start": 8.5649,
      "duration": 0.0161,
      "velocity": 97,
      "chip": "ym2612"
    },
    {
      "channel": 3,
      "note": 78,
      "start": 8.5661,
      "duration": 0.016,
      "velocity": 97,
      "chip": "ym2612"
    },
    {
      "channel": 2,
      "note": 52,
      "start": 8.5674,
      "duration": 0.0159,
      "velocity": 100,
      "chip": "ym2612"
    },
    {
      "channel": 0,
      "note": 37,
      "start": 8.5771,
      "duration": 0.0161,
      "velocity": 115,
      "chip": "ym2612"
    },
    {
      "channel": 4,
      "note": 71,
      "start": 8.581,
      "duration": 0.0159,
      "velocity": 97,
      "chip": "ym2612"
    },
    {
      "channel": 3,
      "note": 78,
      "start": 8.5822,
      "duration": 0.016,
      "velocity": 97,
      "chip": "ym2612"
    },
    {
      "channel": 2,
      "note": 52,
      "start": 8.5833,
      "duration": 0.016,
      "velocity": 100,
      "chip": "ym2612"
    },
    {
      "channel": 0,
      "note": 37,
      "start": 8.5932,
      "duration": 0.0161,
      "velocity": 115,
      "chip": "ym2612"
    },
    {
      "channel": 4,
      "note": 78,
      "start": 8.597,
      "duration": 0.0136,
      "velocity": 97,
      "chip": "ym2612"
    },
    {
      "channel": 3,
      "note": 78,
      "start": 8.5982,
      "duration": 0.0139,
      "velocity": 97,
      "chip": "ym2612"
    },
    {
      "channel": 2,
      "note": 52,
      "start": 8.5993,
      "duration": 0.0138,
      "velocity": 100,
      "chip": "ym2612"
    },
    {
      "channel": 0,
      "note": 38,
      "start": 8.6093,
      "duration": 0.0161,
      "velocity": 115,
      "chip": "ym2612"
    },
    {
      "channel": 4,
      "note": 78,
      "start": 8.6106,
      "duration": 0.016,
      "velocity": 97,
      "chip": "ym2612"
    },
    {
      "channel": 3,
      "note": 78,
      "start": 8.612,
      "duration": 0.0185,
      "velocity": 97,
      "chip": "ym2612"
    },
    {
      "channel": 2,
      "note": 52,
      "start": 8.6131,
      "duration": 0.0185,
      "velocity": 100,
      "chip": "ym2612"
    },
    {
      "channel": 0,
      "note": 38,
      "start": 8.6254,
      "duration": 0.0161,
      "velocity": 115,
      "chip": "ym2612"
    },
    {
      "channel": 4,
      "note": 78,
      "start": 8.6266,
      "duration": 0.0161,
      "velocity": 97,
      "chip": "ym2612"
    },
    {
      "channel": 3,
      "note": 78,
      "start": 8.6305,
      "duration": 0.0163,
      "velocity": 97,
      "chip": "ym2612"
    },
    {
      "channel": 2,
      "note": 52,
      "start": 8.6316,
      "duration": 0.0163,
      "velocity": 100,
      "chip": "ym2612"
    },
    {
      "channel": 0,
      "note": 39,
      "start": 8.6415,
      "duration": 0.0161,
      "velocity": 115,
      "chip": "ym2612"
    },
    {
      "channel": 4,
      "note": 78,
      "start": 8.6427,
      "duration": 0.0161,
      "velocity": 97,
      "chip": "ym2612"
    },
    {
      "channel": 3,
      "note": 74,
      "start": 8.6469,
      "duration": 0.0131,
      "velocity": 97,
      "chip": "ym2612"
    },
    {
      "channel": 2,
      "note": 52,
      "start": 8.648,
      "duration": 0.0155,
      "velocity": 100,
      "chip": "ym2612"
    },
    {
      "channel": 0,
      "note": 39,
      "start": 8.6576,
      "duration": 0.0161,
      "velocity": 115,
      "chip": "ym2612"
    },
    {
      "channel": 4,
      "note": 78,
      "start": 8.6588,
      "duration": 0.0161,
      "velocity": 97,
      "chip": "ym2612"
    },
    {
      "channel": 3,
      "note": 74,
      "start": 8.66,
      "duration": 0.016,
      "velocity": 97,
      "chip": "ym2612"
    },
    {
      "channel": 2,
      "note": 52,
      "start": 8.6635,
      "duration": 0.0137,
      "velocity": 100,
      "chip": "ym2612"
    },
    {
      "channel": 0,
      "note": 40,
      "start": 8.6737,
      "duration": 0.0161,
      "velocity": 115,
      "chip": "ym2612"
    },
    {
      "channel": 4,
      "note": 78,
      "start": 8.6749,
      "duration": 0.0163,
      "velocity": 97,
      "chip": "ym2612"
    },
    {
      "channel": 3,
      "note": 74,
      "start": 8.676,
      "duration": 0.0163,
      "velocity": 97,
      "chip": "ym2612"
    },
    {
      "channel": 2,
      "note": 52,
      "start": 8.6772,
      "duration": 0.0163,
      "velocity": 100,
      "chip": "ym2612"
    },
    {
      "channel": 0,
      "note": 40,
      "start": 8.6898,
      "duration": 0.0161,
      "velocity": 115,
      "chip": "ym2612"
    },
    {
      "channel": 4,
      "note": 74,
      "start": 8.6912,
      "duration": 0.0159,
      "velocity": 97,
      "chip": "ym2612"
    },
    {
      "channel": 3,
      "note": 74,
      "start": 8.6924,
      "duration": 0.0159,
      "velocity": 97,
      "chip": "ym2612"
    },
    {
      "channel": 2,
      "note": 52,
      "start": 8.6935,
      "duration": 0.0159,
      "velocity": 100,
      "chip": "ym2612"
    },
    {
      "channel": 0,
      "note": 40,
      "start": 8.7059,
      "duration": 0.0161,
      "velocity": 115,
      "chip": "ym2612"
    },
    {
      "channel": 4,
      "note": 74,
      "start": 8.7071,
      "duration": 0.0161,
      "velocity": 97,
      "chip": "ym2612"
    },
    {
      "channel": 3,
      "note": 74,
      "start": 8.7083,
      "duration": 0.016,
      "velocity": 97,
      "chip": "ym2612"
    },
    {
      "channel": 2,
      "note": 52,
      "start": 8.7094,
      "duration": 0.016,
      "velocity": 100,
      "chip": "ym2612"
    },
    {
      "channel": 0,
      "note": 41,
      "start": 8.722,
      "duration": 0.0179,
      "velocity": 115,
      "chip": "ym2612"
    },
    {
      "channel": 4,
      "note": 74,
      "start": 8.7232,
      "duration": 0.0179,
      "velocity": 97,
      "chip": "ym2612"
    },
    {
      "channel": 3,
      "note": 74,
      "start": 8.7243,
      "duration": 0.0181,
      "velocity": 97,
      "chip": "ym2612"
    },
    {
      "channel": 2,
      "note": 52,
      "start": 8.7254,
      "duration": 0.0185,
      "velocity": 100,
      "chip": "ym2612"
    },
    {
      "channel": 0,
      "note": 36,
      "start": 8.74,
      "duration": 0.0144,
      "velocity": 115,
      "chip": "ym2612"
    },
    {
      "channel": 4,
      "note": 74,
      "start": 8.7411,
      "duration": 0.0144,
      "velocity": 97,
      "chip": "ym2612"
    },
    {
      "channel": 3,
      "note": 71,
      "start": 8.7425,
      "duration": 0.0142,
      "velocity": 97,
      "chip": "ym2612"
    },
    {
      "channel": 2,
      "note": 52,
      "start": 8.7439,
      "duration": 0.0139,
      "velocity": 100,
      "chip": "ym2612"
    },
    {
      "channel": 0,
      "note": 36,
      "start": 8.7543,
      "duration": 0.016,
      "velocity": 115,
      "chip": "ym2612"
    },
    {
      "channel": 4,
      "note": 74,
      "start": 8.7555,
      "duration": 0.016,
      "velocity": 97,
      "chip": "ym2612"
    },
    {
      "channel": 3,
      "note": 71,
      "start": 8.7567,
      "duration": 0.016,
      "velocity": 97,
      "chip": "ym2612"
    },
    {
      "channel": 2,
      "note": 52,
      "start": 8.7578,
      "duration": 0.016,
      "velocity": 100,
      "chip": "ym2612"
    },
    {
      "channel": 0,
      "note": 37,
      "start": 8.7704,
      "duration": 0.0161,
      "velocity": 115,
      "chip": "ym2612"
    },
    {
      "channel": 4,
      "note": 74,
      "start": 8.7715,
      "duration": 0.0163,
      "velocity": 97,
      "chip": "ym2612"
    },
    {
      "channel": 3,
      "note": 71,
      "start": 8.7727,
      "duration": 0.0163,
      "velocity": 97,
      "chip": "ym2612"
    },
    {
      "channel": 2,
      "note": 52,
      "start": 8.7738,
      "duration": 0.0163,
      "velocity": 100,
      "chip": "ym2612"
    },
    {
      "channel": 0,
      "note": 37,
      "start": 8.7864,
      "duration": 0.0161,
      "velocity": 115,
      "chip": "ym2612"
    },
    {
      "channel": 4,
      "note": 71,
      "start": 8.7878,
      "duration": 0.0159,
      "velocity": 97,
      "chip": "ym2612"
    },
    {
      "channel": 3,
      "note": 71,
      "start": 8.789,
      "duration": 0.0159,
      "velocity": 97,
      "chip": "ym2612"
    },
    {
      "channel": 2,
      "note": 52,
      "start": 8.7901,
      "duration": 0.0159,
      "velocity": 100,
      "chip": "ym2612"
    },
    {
      "channel": 0,
      "note": 38,
      "start": 8.8025,
      "duration": 0.0161,
      "velocity": 115,
      "chip": "ym2612"
    },
    {
      "channel": 4,
      "note": 71,
      "start": 8.8037,
      "duration": 0.016,
      "velocity": 97,
      "chip": "ym2612"
    },
    {
      "channel": 3,
      "note": 71,
      "start": 8.8049,
      "duration": 0.016,
      "velocity": 97,
      "chip": "ym2612"
    },
    {
      "channel": 2,
      "note": 52,
      "start": 8.806,
      "duration": 0.016,
      "velocity": 100,
      "chip": "ym2612"
    },
    {
      "channel": 0,
      "note": 38,
      "start": 8.8186,
      "duration": 0.0161,
      "velocity": 115,
      "chip": "ym2612"
    },
    {
      "channel": 4,
      "note": 71,
      "start": 8.8198,
      "duration": 0.0161,
      "velocity": 97,
      "chip": "ym2612"
    },
    {
      "channel": 3,
      "note": 71,
      "start": 8.8209,
      "duration": 0.0162,
      "velocity": 97,
      "chip": "ym2612"
    },
    {
      "channel": 2,
      "note": 52,
      "start": 8.8221,
      "duration": 0.0162,
      "velocity": 100,
      "chip": "ym2612"
    },
    {
      "channel": 0,
      "note": 39,
      "start": 8.8347,
      "duration": 0.0161,
      "velocity": 115,
      "chip": "ym2612"
    },
    {
      "channel": 4,
      "note": 71,
      "start": 8.8359,
      "duration": 0.0161,
      "velocity": 97,
      "chip": "ym2612"
    },
    {
      "channel": 3,
      "note": 71,
      "start": 8.8371,
      "duration": 0.016,
      "velocity": 97,
      "chip": "ym2612"
    },
    {
      "channel": 2,
      "note": 52,
      "start": 8.8383,
      "duration": 0.016,
      "velocity": 100,
      "chip": "ym2612"
    },
    {
      "channel": 0,
      "note": 39,
      "start": 8.8508,
      "duration": 0.0161,
      "velocity": 115,
      "chip": "ym2612"
    },
    {
      "channel": 4,
      "note": 71,
      "start": 8.852,
      "duration": 0.0161,
      "velocity": 97,
      "chip": "ym2612"
    },
    {
      "channel": 3,
      "note": 71,
      "start": 8.8532,
      "duration": 0.016,
      "velocity": 97,
      "chip": "ym2612"
    },
    {
      "channel": 2,
      "note": 52,
      "start": 8.8543,
      "duration": 0.016,
      "velocity": 100,
      "chip": "ym2612"
    },
    {
      "channel": 0,
      "note": 40,
      "start": 8.8669,
      "duration": 0.0161,
      "velocity": 115,
      "chip": "ym2612"
    },
    {
      "channel": 4,
      "note": 71,
      "start": 8.8681,
      "duration": 0.0162,
      "velocity": 97,
      "chip": "ym2612"
    },
    {
      "channel": 3,
      "note": 71,
      "start": 8.8692,
      "duration": 0.0162,
      "velocity": 97,
      "chip": "ym2612"
    },
    {
      "channel": 2,
      "note": 52,
      "start": 8.8704,
      "duration": 0.0162,
      "velocity": 100,
      "chip": "ym2612"
    },
    {
      "channel": 0,
      "note": 40,
      "start": 8.883,
      "duration": 0.0161,
      "velocity": 115,
      "chip": "ym2612"
    },
    {
      "channel": 4,
      "note": 71,
      "start": 8.8844,
      "duration": 0.016,
      "velocity": 97,
      "chip": "ym2612"
    },
    {
      "channel": 3,
      "note": 71,
      "start": 8.8854,
      "duration": 0.016,
      "velocity": 97,
      "chip": "ym2612"
    },
    {
      "channel": 2,
      "note": 52,
      "start": 8.8866,
      "duration": 0.016,
      "velocity": 100,
      "chip": "ym2612"
    },
    {
      "channel": 0,
      "note": 40,
      "start": 8.8992,
      "duration": 0.0162,
      "velocity": 115,
      "chip": "ym2612"
    },
    {
      "channel": 4,
      "note": 71,
      "start": 8.9004,
      "duration": 0.0161,
      "velocity": 97,
      "chip": "ym2612"
    },
    {
      "channel": 3,
      "note": 71,
      "start": 8.9015,
      "duration": 0.0162,
      "velocity": 97,
      "chip": "ym2612"
    },
    {
      "channel": 2,
      "note": 52,
      "start": 8.9026,
      "duration": 0.0162,
      "velocity": 100,
      "chip": "ym2612"
    },
    {
      "channel": 0,
      "note": 41,
      "start": 8.9154,
      "duration": 0.018,
      "velocity": 124,
      "chip": "ym2612"
    },
    {
      "channel": 4,
      "note": 71,
      "start": 8.9165,
      "duration": 0.0181,
      "velocity": 97,
      "chip": "ym2612"
    },
    {
      "channel": 3,
      "note": 71,
      "start": 8.9176,
      "duration": 0.0184,
      "velocity": 97,
      "chip": "ym2612"
    },
    {
      "channel": 2,
      "note": 52,
      "start": 8.9188,
      "duration": 0.0186,
      "velocity": 100,
      "chip": "ym2612"
    },
    {
      "channel": 0,
      "note": 84,
      "start": 8.9335,
      "duration": 0.0141,
      "velocity": 124,
      "chip": "ym2612"
    },
    {
      "channel": 4,
      "note": 71,
      "start": 8.9346,
      "duration": 0.0141,
      "velocity": 97,
      "chip": "ym2612"
    },
    {
      "channel": 3,
      "note": 74,
      "start": 8.936,
      "duration": 0.0138,
      "velocity": 97,
      "chip": "ym2612"
    },
    {
      "channel": 2,
      "note": 52,
      "start": 8.9375,
      "duration": 0.0136,
      "velocity": 100,
      "chip": "ym2612"
    },
    {
      "channel": 0,
      "note": 82,
      "start": 8.9475,
      "duration": 0.0179,
      "velocity": 124,
      "chip": "ym2612"
    },
    {
      "channel": 4,
      "note": 71,
      "start": 8.9487,
      "duration": 0.0179,
      "velocity": 97,
      "chip": "ym2612"
    },
    {
      "channel": 3,
      "note": 74,
      "start": 8.9498,
      "duration": 0.0179,
      "velocity": 97,
      "chip": "ym2612"
    },
    {
      "channel": 2,
      "note": 52,
      "start": 8.951,
      "duration": 0.0178,
      "velocity": 100,
      "chip": "ym2612"
    },
    {
      "channel": 0,
      "note": 80,
      "start": 8.9654,
      "duration": 0.0167,
      "velocity": 124,
      "chip": "ym2612"
    },
    {
      "channel": 4,
      "note": 71,
      "start": 8.9665,
      "duration": 0.0169,
      "velocity": 97,
      "chip": "ym2612"
    },
    {
      "channel": 3,
      "note": 74,
      "start": 8.9677,
      "duration": 0.0169,
      "velocity": 97,
      "chip": "ym2612"
    },
    {
      "channel": 2,
      "note": 52,
      "start": 8.9688,
      "duration": 0.0169,
      "velocity": 100,
      "chip": "ym2612"
    },
    {
      "channel": 0,
      "note": 77,
      "start": 8.9821,
      "duration": 0.0161,
      "velocity": 124,
      "chip": "ym2612"
    },
    {
      "channel": 4,
      "note": 74,
      "start": 8.9835,
      "duration": 0.0159,
      "velocity": 97,
      "chip": "ym2612"
    },
    {
      "channel": 3,
      "note": 74,
      "start": 8.9846,
      "duration": 0.0159,
      "velocity": 97,
      "chip": "ym2612"
    },
    {
      "channel": 2,
      "note": 52,
      "start": 8.9858,
      "duration": 0.0159,
      "velocity": 100,
      "chip": "ym2612"
    },
    {
      "channel": 0,
      "note": 75,
      "start": 8.9982,
      "duration": 0.014,
      "velocity": 124,
      "chip": "ym2612"
    },
    {
      "channel": 4,
      "note": 74,
      "start": 8.9994,
      "duration": 0.014,
      "velocity": 97,
      "chip": "ym2612"
    },
    {
      "channel": 3,
      "note": 74,
      "start": 9.0005,
      "duration": 0.0139,
      "velocity": 97,
      "chip": "ym2612"
    },
    {
      "channel": 2,
      "note": 52,
      "start": 9.0017,
      "duration": 0.0139,
      "velocity": 100,
      "chip": "ym2612"
    },
    {
      "channel": 0,
      "note": 72,
      "start": 9.0122,
      "duration": 0.0186,
      "velocity": 124,
      "chip": "ym2612"
    },
    {
      "channel": 4,
      "note": 74,
      "start": 9.0134,
      "duration": 0.0185,
      "velocity": 97,
      "chip": "ym2612"
    },
    {
      "channel": 3,
      "note": 74,
      "start": 9.0144,
      "duration": 0.0188,
      "velocity": 97,
      "chip": "ym2612"
    },
    {
      "channel": 2,
      "note": 52,
      "start": 9.0156,
      "duration": 0.0188,
      "velocity": 100,
      "chip": "ym2612"
    },
    {
      "channel": 0,
      "note": 70,
      "start": 9.0307,
      "duration": 0.0161,
      "velocity": 124,
      "chip": "ym2612"
    },
    {
      "channel": 4,
      "note": 74,
      "start": 9.0319,
      "duration": 0.0161,
      "velocity": 97,
      "chip": "ym2612"
    },
    {
      "channel": 3,
      "note": 71,
      "start": 9.0333,
      "duration": 0.0159,
      "velocity": 97,
      "chip": "ym2612"
    },
    {
      "channel": 2,
      "note": 52,
      "start": 9.0344,
      "duration": 0.0158,
      "velocity": 100,
      "chip": "ym2612"
    },
    {
      "channel": 0,
      "note": 68,
      "start": 9.0468,
      "duration": 0.0134,
      "velocity": 124,
      "chip": "ym2612"
    },
    {
      "channel": 4,
      "note": 74,
      "start": 9.048,
      "duration": 0.0158,
      "velocity": 97,
      "chip": "ym2612"
    },
    {
      "channel": 3,
      "note": 71,
      "start": 9.0492,
      "duration": 0.0157,
      "velocity": 97,
      "chip": "ym2612"
    },
    {
      "channel": 2,
      "note": 52,
      "start": 9.0502,
      "duration": 0.0157,
      "velocity": 100,
      "chip": "ym2612"
    },
    {
      "channel": 0,
      "note": 65,
      "start": 9.0602,
      "duration": 0.0161,
      "velocity": 124,
      "chip": "ym2612"
    },
    {
      "channel": 4,
      "note": 74,
      "start": 9.0637,
      "duration": 0.0142,
      "velocity": 97,
      "chip": "ym2612"
    },
    {
      "channel": 3,
      "note": 71,
      "start": 9.0649,
      "duration": 0.0143,
      "velocity": 97,
      "chip": "ym2612"
    },
    {
      "channel": 2,
      "note": 52,
      "start": 9.066,
      "duration": 0.0143,
      "velocity": 100,
      "chip": "ym2612"
    },
    {
      "channel": 0,
      "note": 63,
      "start": 9.0763,
      "duration": 0.0153,
      "velocity": 1,
      "chip": "ym2612"
    },
    {
      "channel": 4,
      "note": 71,
      "start": 9.078,
      "duration": 0.0148,
      "velocity": 97,
      "chip": "ym2612"
    },
    {
      "channel": 3,
      "note": 71,
      "start": 9.0791,
      "duration": 0.0148,
      "velocity": 97,
      "chip": "ym2612"
    },
    {
      "channel": 2,
      "note": 52,
      "start": 9.0803,
      "duration": 0.0175,
      "velocity": 100,
      "chip": "ym2612"
    },
    {
      "channel": 4,
      "note": 71,
      "start": 9.0927,
      "duration": 0.0152,
      "velocity": 97,
      "chip": "ym2612"
    },
    {
      "channel": 3,
      "note": 71,
      "start": 9.0939,
      "duration": 0.0152,
      "velocity": 97,
      "chip": "ym2612"
    },
    {
      "channel": 2,
      "note": 52,
      "start": 9.0978,
      "duration": 0.0125,
      "velocity": 100,
      "chip": "ym2612"
    },
    {
      "channel": 4,
      "note": 71,
      "start": 9.108,
      "duration": 0.0161,
      "velocity": 97,
      "chip": "ym2612"
    },
    {
      "channel": 3,
      "note": 71,
      "start": 9.1091,
      "duration": 0.0163,
      "velocity": 97,
      "chip": "ym2612"
    },
    {
      "channel": 2,
      "note": 52,
      "start": 9.1102,
      "duration": 0.0167,
      "velocity": 100,
      "chip": "ym2612"
    },
    {
      "channel": 4,
      "note": 71,
      "start": 9.1241,
      "duration": 0.0161,
      "velocity": 97,
      "chip": "ym2612"
    },
    {
      "channel": 3,
      "note": 68,
      "start": 9.1255,
      "duration": 0.0158,
      "velocity": 97,
      "chip": "ym2612"
    },
    {
      "channel": 2,
      "note": 52,
      "start": 9.1269,
      "duration": 0.0156,
      "velocity": 100,
      "chip": "ym2612"
    },
    {
      "channel": 4,
      "note": 71,
      "start": 9.1402,
      "duration": 0.0161,
      "velocity": 97,
      "chip": "ym2612"
    },
    {
      "channel": 3,
      "note": 68,
      "start": 9.1413,
      "duration": 0.016,
      "velocity": 97,
      "chip": "ym2612"
    },
    {
      "channel": 2,
      "note": 52,
      "start": 9.1426,
      "duration": 0.016,
      "velocity": 100,
      "chip": "ym2612"
    },
    {
      "channel": 4,
      "note": 71,
      "start": 9.1563,
      "duration": 0.0163,
      "velocity": 97,
      "chip": "ym2612"
    },
    {
      "channel": 3,
      "note": 68,
      "start": 9.1574,
      "duration": 0.0164,
      "velocity": 97,
      "chip": "ym2612"
    },
    {
      "channel": 2,
      "note": 52,
      "start": 9.1585,
      "duration": 0.0163,
      "velocity": 100,
      "chip": "ym2612"
    },
    {
      "channel": 4,
      "note": 68,
      "start": 9.1727,
      "duration": 0.0159,
      "velocity": 97,
      "chip": "ym2612"
    },
    {
      "channel": 3,
      "note": 68,
      "start": 9.1738,
      "duration": 0.0159,
      "velocity": 97,
      "chip": "ym2612"
    },
    {
      "channel": 2,
      "note": 52,
      "start": 9.1749,
      "duration": 0.0159,
      "velocity": 100,
      "chip": "ym2612"
    },
    {
      "channel": 4,
      "note": 68,
      "start": 9.1885,
      "duration": 0.016,
      "velocity": 97,
      "chip": "ym2612"
    },
    {
      "channel": 3,
      "note": 68,
      "start": 9.1896,
      "duration": 0.0161,
      "velocity": 97,
      "chip": "ym2612"
    },
    {
      "channel": 2,
      "note": 52,
      "start": 9.1908,
      "duration": 0.016,
      "velocity": 100,
      "chip": "ym2612"
    },
    {
      "channel": 4,
      "note": 68,
      "start": 9.2046,
      "duration": 0.0161,
      "velocity": 97,
      "chip": "ym2612"
    },
    {
      "channel": 3,
      "note": 68,
      "start": 9.2057,
      "duration": 0.0162,
      "velocity": 97,
      "chip": "ym2612"
    },
    {
      "channel": 2,
      "note": 52,
      "start": 9.2068,
      "duration": 0.0162,
      "velocity": 100,
      "chip": "ym2612"
    },
    {
      "channel": 4,
      "note": 68,
      "start": 9.2207,
      "duration": 0.0161,
      "velocity": 97,
      "chip": "ym2612"
    },
    {
      "channel": 3,
      "note": 68,
      "start": 9.222,
      "duration": 0.016,
      "velocity": 97,
      "chip": "ym2612"
    },
    {
      "channel": 2,
      "note": 52,
      "start": 9.223,
      "duration": 0.016,
      "velocity": 100,
      "chip": "ym2612"
    },
    {
      "channel": 4,
      "note": 68,
      "start": 9.2368,
      "duration": 0.0161,
      "velocity": 97,
      "chip": "ym2612"
    },
    {
      "channel": 3,
      "note": 68,
      "start": 9.2379,
      "duration": 0.0161,
      "velocity": 97,
      "chip": "ym2612"
    },
    {
      "channel": 2,
      "note": 52,
      "start": 9.239,
      "duration": 0.0161,
      "velocity": 100,
      "chip": "ym2612"
    },
    {
      "channel": 4,
      "note": 68,
      "start": 9.2529,
      "duration": 0.0162,
      "velocity": 97,
      "chip": "ym2612"
    },
    {
      "channel": 3,
      "note": 68,
      "start": 9.254,
      "duration": 0.0162,
      "velocity": 97,
      "chip": "ym2612"
    },
    {
      "channel": 2,
      "note": 52,
      "start": 9.2551,
      "duration": 0.0162,
      "velocity": 100,
      "chip": "ym2612"
    },
    {
      "channel": 4,
      "note": 68,
      "start": 9.2691,
      "duration": 0.016,
      "velocity": 97,
      "chip": "ym2612"
    },
    {
      "channel": 3,
      "note": 68,
      "start": 9.2702,
      "duration": 0.016,
      "velocity": 97,
      "chip": "ym2612"
    },
    {
      "channel": 2,
      "note": 52,
      "start": 9.2714,
      "duration": 0.016,
      "velocity": 100,
      "chip": "ym2612"
    },
    {
      "channel": 4,
      "note": 68,
      "start": 9.2851,
      "duration": 0.016,
      "velocity": 97,
      "chip": "ym2612"
    },
    {
      "channel": 3,
      "note": 68,
      "start": 9.2863,
      "duration": 0.016,
      "velocity": 97,
      "chip": "ym2612"
    },
    {
      "channel": 2,
      "note": 52,
      "start": 9.2874,
      "duration": 0.016,
      "velocity": 100,
      "chip": "ym2612"
    },
    {
      "channel": 4,
      "note": 68,
      "start": 9.3011,
      "duration": 0.0196,
      "velocity": 97,
      "chip": "ym2612"
    },
    {
      "channel": 3,
      "note": 68,
      "start": 9.3023,
      "duration": 0.0198,
      "velocity": 97,
      "chip": "ym2612"
    },
    {
      "channel": 2,
      "note": 52,
      "start": 9.3034,
      "duration": 0.0201,
      "velocity": 100,
      "chip": "ym2612"
    },
    {
      "channel": 0,
      "note": 36,
      "start": 9.3195,
      "duration": 0.0144,
      "velocity": 115,
      "chip": "ym2612"
    },
    {
      "channel": 4,
      "note": 68,
      "start": 9.3207,
      "duration": 0.0144,
      "velocity": 97,
      "chip": "ym2612"
    },
    {
      "channel": 3,
      "note": 76,
      "start": 9.3221,
      "duration": 0.0142,
      "velocity": 97,
      "chip": "ym2612"
    },
    {
      "channel": 2,
      "note": 52,
      "start": 9.3235,
      "duration": 0.0139,
      "velocity": 100,
      "chip": "ym2612"
    },
    {
      "channel": 0,
      "note": 36,
      "start": 9.3339,
      "duration": 0.0161,
      "velocity": 115,
      "chip": "ym2612"
    },
    {
      "channel": 4,
      "note": 68,
      "start": 9.3351,
      "duration": 0.016,
      "velocity": 97,
      "chip": "ym2612"
    },
    {
      "channel": 3,
      "note": 76,
      "start": 9.3363,
      "duration": 0.016,
      "velocity": 97,
      "chip": "ym2612"
    },
    {
      "channel": 2,
      "note": 52,
      "start": 9.3375,
      "duration": 0.0159,
      "velocity": 100,
      "chip": "ym2612"
    },
    {
      "channel": 0,
      "note": 37,
      "start": 9.35,
      "duration": 0.0161,
      "velocity": 115,
      "chip": "ym2612"
    },
    {
      "channel": 4,
      "note": 68,
      "start": 9.3511,
      "duration": 0.0163,
      "velocity": 97,
      "chip": "ym2612"
    },
    {
      "channel": 3,
      "note": 76,
      "start": 9.3523,
      "duration": 0.0163,
      "velocity": 97,
      "chip": "ym2612"
    },
    {
      "channel": 2,
      "note": 52,
      "start": 9.3534,
      "duration": 0.0164,
      "velocity": 100,
      "chip": "ym2612"
    },
    {
      "channel": 0,
      "note": 37,
      "start": 9.3661,
      "duration": 0.0161,
      "velocity": 115,
      "chip": "ym2612"
    },
    {
      "channel": 4,
      "note": 76,
      "start": 9.3675,
      "duration": 0.0159,
      "velocity": 97,
      "chip": "ym2612"
    },
    {
      "channel": 3,
      "note": 76,
      "start": 9.3686,
      "duration": 0.0159,
      "velocity": 97,
      "chip": "ym2612"
    },
    {
      "channel": 2,
      "note": 52,
      "start": 9.3698,
      "duration": 0.0159,
      "velocity": 100,
      "chip": "ym2612"
    },
    {
      "channel": 0,
      "note": 38,
      "start": 9.3822,
      "duration": 0.0162,
      "velocity": 115,
      "chip": "ym2612"
    },
    {
      "channel": 4,
      "note": 76,
      "start": 9.3834,
      "duration": 0.0161,
      "velocity": 97,
      "chip": "ym2612"
    },
    {
      "channel": 3,
      "note": 76,
      "start": 9.3845,
      "duration": 0.0161,
      "velocity": 97,
      "chip": "ym2612"
    },
    {
      "channel": 2,
      "note": 52,
      "start": 9.3857,
      "duration": 0.0161,
      "velocity": 100,
      "chip": "ym2612"
    },
    {
      "channel": 0,
      "note": 38,
      "start": 9.3983,
      "duration": 0.016,
      "velocity": 115,
      "chip": "ym2612"
    },
    {
      "channel": 4,
      "note": 76,
      "start": 9.3995,
      "duration": 0.016,
      "velocity": 97,
      "chip": "ym2612"
    },
    {
      "channel": 3,
      "note": 76,
      "start": 9.4006,
      "duration": 0.0163,
      "velocity": 97,
      "chip": "ym2612"
    },
    {
      "channel": 2,
      "note": 52,
      "start": 9.4018,
      "duration": 0.0163,
      "velocity": 100,
      "chip": "ym2612"
    },
    {
      "channel": 0,
      "note": 39,
      "start": 9.4144,
      "duration": 0.0177,
      "velocity": 115,
      "chip": "ym2612"
    },
    {
      "channel": 4,
      "note": 76,
      "start": 9.4155,
      "duration": 0.0177,
      "velocity": 97,
      "chip": "ym2612"
    },
    {
      "channel": 3,
      "note": 80,
      "start": 9.4169,
      "duration": 0.0175,
      "velocity": 97,
      "chip": "ym2612"
    },
    {
      "channel": 2,
      "note": 52,
      "start": 9.4181,
      "duration": 0.0174,
      "velocity": 100,
      "chip": "ym2612"
    },
    {
      "channel": 0,
      "note": 39,
      "start": 9.4321,
      "duration": 0.0167,
      "velocity": 115,
      "chip": "ym2612"
    },
    {
      "channel": 4,
      "note": 76,
      "start": 9.4332,
      "duration": 0.0167,
      "velocity": 97,
      "chip": "ym2612"
    },
    {
      "channel": 3,
      "note": 80,
      "start": 9.4344,
      "duration": 0.0166,
      "velocity": 97,
      "chip": "ym2612"
    },
    {
      "channel": 2,
      "note": 52,
      "start": 9.4355,
      "duration": 0.0167,
      "velocity": 100,
      "chip": "ym2612"
    },
    {
      "channel": 0,
      "note": 40,
      "start": 9.4487,
      "duration": 0.0163,
      "velocity": 115,
      "chip": "ym2612"
    },
    {
      "channel": 4,
      "note": 76,
      "start": 9.4499,
      "duration": 0.0166,
      "velocity": 97,
      "chip": "ym2612"
    },
    {
      "channel": 3,
      "note": 80,
      "start": 9.451,
      "duration": 0.0165,
      "velocity": 97,
      "chip": "ym2612"
    },
    {
      "channel": 2,
      "note": 52,
      "start": 9.4522,
      "duration": 0.0166,
      "velocity": 100,
      "chip": "ym2612"
    },
    {
      "channel": 0,
      "note": 40,
      "start": 9.465,
      "duration": 0.0141,
      "velocity": 115,
      "chip": "ym2612"
    },
    {
      "channel": 4,
      "note": 80,
      "start": 9.4664,
      "duration": 0.0139,
      "velocity": 97,
      "chip": "ym2612"
    },
    {
      "channel": 3,
      "note": 80,
      "start": 9.4676,
      "duration": 0.0139,
      "velocity": 97,
      "chip": "ym2612"
    },
    {
      "channel": 2,
      "note": 52,
      "start": 9.4687,
      "duration": 0.0139,
      "velocity": 100,
      "chip": "ym2612"
    },
    {
      "channel": 0,
      "note": 40,
      "start": 9.4791,
      "duration": 0.0186,
      "velocity": 115,
      "chip": "ym2612"
    },
    {
      "channel": 4,
      "note": 80,
      "start": 9.4803,
      "duration": 0.0185,
      "velocity": 97,
      "chip": "ym2612"
    },
    {
      "channel": 3,
      "note": 80,
      "start": 9.4814,
      "duration": 0.0185,
      "velocity": 97,
      "chip": "ym2612"
    },
    {
      "channel": 2,
      "note": 52,
      "start": 9.4826,
      "duration": 0.0185,
      "velocity": 100,
      "chip": "ym2612"
    },
    {
      "channel": 0,
      "note": 41,
      "start": 9.4976,
      "duration": 0.0161,
      "velocity": 115,
      "chip": "ym2612"
    },
    {
      "channel": 4,
      "note": 80,
      "start": 9.4988,
      "duration": 0.0161,
      "velocity": 97,
      "chip": "ym2612"
    },
    {
      "channel": 3,
      "note": 80,
      "start": 9.4999,
      "duration": 0.0163,
      "velocity": 97,
      "chip": "ym2612"
    },
    {
      "channel": 2,
      "note": 52,
      "start": 9.5011,
      "duration": 0.0166,
      "velocity": 100,
      "chip": "ym2612"
    },
    {
      "channel": 0,
      "note": 41,
      "start": 9.5137,
      "duration": 0.0134,
      "velocity": 115,
      "chip": "ym2612"
    },
    {
      "channel": 4,
      "note": 80,
      "start": 9.5149,
      "duration": 0.0158,
      "velocity": 97,
      "chip": "ym2612"
    },
    {
      "channel": 3,
      "note": 83,
      "start": 9.5163,
      "duration": 0.0155,
      "velocity": 97,
      "chip": "ym2612"
    },
    {
      "channel": 2,
      "note": 52,
      "start": 9.5178,
      "duration": 0.0153,
      "velocity": 100,
      "chip": "ym2612"
    },
    {
      "channel": 0,
      "note": 42,
      "start": 9.5271,
      "duration": 0.0161,
      "velocity": 115,
      "chip": "ym2612"
    },
    {
      "channel": 4,
      "note": 80,
      "start": 9.5307,
      "duration": 0.014,
      "velocity": 97,
      "chip": "ym2612"
    },
    {
      "channel": 3,
      "note": 83,
      "start": 9.5318,
      "duration": 0.014,
      "velocity": 97,
      "chip": "ym2612"
    },
    {
      "channel": 2,
      "note": 52,
      "start": 9.533,
      "duration": 0.0139,
      "velocity": 100,
      "chip": "ym2612"
    },
    {
      "channel": 0,
      "note": 42,
      "start": 9.5432,
      "duration": 0.0161,
      "velocity": 115,
      "chip": "ym2612"
    },
    {
      "channel": 4,
      "note": 80,
      "start": 9.5446,
      "duration": 0.0188,
      "velocity": 97,
      "chip": "ym2612"
    },
    {
      "channel": 3,
      "note": 83,
      "start": 9.5458,
      "duration": 0.0188,
      "velocity": 97,
      "chip": "ym2612"
    },
    {
      "channel": 2,
      "note": 52,
      "start": 9.5469,
      "duration": 0.0188,
      "velocity": 100,
      "chip": "ym2612"
    },
    {
      "channel": 0,
      "note": 43,
      "start": 9.5593,
      "duration": 0.0161,
      "velocity": 115,
      "chip": "ym2612"
    },
    {
      "channel": 4,
      "note": 83,
      "start": 9.5635,
      "duration": 0.0131,
      "velocity": 97,
      "chip": "ym2612"
    },
    {
      "channel": 3,
      "note": 83,
      "start": 9.5646,
      "duration": 0.0159,
      "velocity": 97,
      "chip": "ym2612"
    },
    {
      "channel": 2,
      "note": 52,
      "start": 9.5657,
      "duration": 0.0159,
      "velocity": 100,
      "chip": "ym2612"
    },
    {
      "channel": 0,
      "note": 43,
      "start": 9.5754,
      "duration": 0.0161,
      "velocity": 115,
      "chip": "ym2612"
    },
    {
      "channel": 4,
      "note": 83,
      "start": 9.5766,
      "duration": 0.016,
      "velocity": 97,
      "chip": "ym2612"
    },
    {
      "channel": 3,
      "note": 83,
      "start": 9.5805,
      "duration": 0.0133,
      "velocity": 97,
      "chip": "ym2612"
    },
    {
      "channel": 2,
      "note": 52,
      "start": 9.5816,
      "duration": 0.0156,
      "velocity": 100,
      "chip": "ym2612"
    },
    {
      "channel": 0,
      "note": 44,
      "start": 9.5915,
      "duration": 0.0161,
      "velocity": 115,
      "chip": "ym2612"
    },
    {
      "channel": 4,
      "note": 83,
      "start": 9.5926,
      "duration": 0.0161,
      "velocity": 97,
      "chip": "ym2612"
    },
    {
      "channel": 3,
      "note": 83,
      "start": 9.5938,
      "duration": 0.0162,
      "velocity": 97,
      "chip": "ym2612"
    },
    {
      "channel": 2,
      "note": 52,
      "start": 9.5973,
      "duration": 0.0142,
      "velocity": 100,
      "chip": "ym2612"
    },
    {
      "channel": 0,
      "note": 44,
      "start": 9.6076,
      "duration": 0.0161,
      "velocity": 115,
      "chip": "ym2612"
    },
    {
      "channel": 4,
      "note": 83,
      "start": 9.6087,
      "duration": 0.0161,
      "velocity": 97,
      "chip": "ym2612"
    },
    {
      "channel": 3,
      "note": 83,
      "start": 9.61,
      "duration": 0.016,
      "velocity": 97,
      "chip": "ym2612"
    },
    {
      "channel": 2,
      "note": 52,
      "start": 9.6115,
      "duration": 0.0157,
      "velocity": 100,
      "chip": "ym2612"
    },
    {
      "channel": 0,
      "note": 44,
      "start": 9.6237,
      "duration": 0.0161,
      "velocity": 115,
      "chip": "ym2612"
    },
    {
      "channel": 4,
      "note": 83,
      "start": 9.6248,
      "duration": 0.0162,
      "velocity": 97,
      "chip": "ym2612"
    },
    {
      "channel": 3,
      "note": 83,
      "start": 9.626,
      "duration": 0.0161,
      "velocity": 97,
      "chip": "ym2612"
    },
    {
      "channel": 2,
      "note": 52,
      "start": 9.6272,
      "duration": 0.016,
      "velocity": 100,
      "chip": "ym2612"
    },
    {
      "channel": 0,
      "note": 45,
      "start": 9.6398,
      "duration": 0.0161,
      "velocity": 115,
      "chip": "ym2612"
    },
    {
      "channel": 4,
      "note": 83,
      "start": 9.641,
      "duration": 0.0162,
      "velocity": 97,
      "chip": "ym2612"
    },
    {
      "channel": 3,
      "note": 83,
      "start": 9.6421,
      "duration": 0.0162,
      "velocity": 97,
      "chip": "ym2612"
    },
    {
      "channel": 2,
      "note": 52,
      "start": 9.6432,
      "duration": 0.0162,
      "velocity": 100,
      "chip": "ym2612"
    },
    {
      "channel": 0,
      "note": 45,
      "start": 9.6559,
      "duration": 0.0161,
      "velocity": 115,
      "chip": "ym2612"
    },
    {
      "channel": 4,
      "note": 83,
      "start": 9.6572,
      "duration": 0.016,
      "velocity": 97,
      "chip": "ym2612"
    },
    {
      "channel": 3,
      "note": 83,
      "start": 9.6583,
      "duration": 0.0161,
      "velocity": 97,
      "chip": "ym2612"
    },
    {
      "channel": 2,
      "note": 52,
      "start": 9.6594,
      "duration": 0.016,
      "velocity": 100,
      "chip": "ym2612"
    },
    {
      "channel": 0,
      "note": 46,
      "start": 9.672,
      "duration": 0.0161,
      "velocity": 115,
      "chip": "ym2612"
    },
    {
      "channel": 4,
      "note": 83,
      "start": 9.6732,
      "duration": 0.016,
      "velocity": 97,
      "chip": "ym2612"
    },
    {
      "channel": 3,
      "note": 83,
      "start": 9.6744,
      "duration": 0.016,
      "velocity": 97,
      "chip": "ym2612"
    },
    {
      "channel": 2,
      "note": 52,
      "start": 9.6754,
      "duration": 0.016,
      "velocity": 100,
      "chip": "ym2612"
    },
    {
      "channel": 0,
      "note": 46,
      "start": 9.6881,
      "duration": 0.0179,
      "velocity": 124,
      "chip": "ym2612"
    },
    {
      "channel": 4,
      "note": 83,
      "start": 9.6893,
      "duration": 0.0179,
      "velocity": 97,
      "chip": "ym2612"
    },
    {
      "channel": 3,
      "note": 83,
      "start": 9.6904,
      "duration": 0.0181,
      "velocity": 97,
      "chip": "ym2612"
    },
    {
      "channel": 2,
      "note": 52,
      "start": 9.6915,
      "duration": 0.0185,
      "velocity": 100,
      "chip": "ym2612"
    },
    {
      "channel": 0,
      "note": 84,
      "start": 9.706,
      "duration": 0.0144,
      "velocity": 124,
      "chip": "ym2612"
    },
    {
      "channel": 4,
      "note": 83,
      "start": 9.7071,
      "duration": 0.0144,
      "velocity": 97,
      "chip": "ym2612"
    },
    {
      "channel": 3,
      "note": 80,
      "start": 9.7085,
      "duration": 0.0142,
      "velocity": 97,
      "chip": "ym2612"
    },
    {
      "channel": 2,
      "note": 52,
      "start": 9.71,
      "duration": 0.0139,
      "velocity": 100,
      "chip": "ym2612"
    },
    {
      "channel": 0,
      "note": 82,
      "start": 9.7204,
      "duration": 0.016,
      "velocity": 124,
      "chip": "ym2612"
    },
    {
      "channel": 4,
      "note": 83,
      "start": 9.7215,
      "duration": 0.016,
      "velocity": 97,
      "chip": "ym2612"
    },
    {
      "channel": 3,
      "note": 80,
      "start": 9.7227,
      "duration": 0.016,
      "velocity": 97,
      "chip": "ym2612"
    },
    {
      "channel": 2,
      "note": 52,
      "start": 9.7239,
      "duration": 0.016,
      "velocity": 100,
      "chip": "ym2612"
    },
    {
      "channel": 0,
      "note": 80,
      "start": 9.7364,
      "duration": 0.0161,
      "velocity": 124,
      "chip": "ym2612"
    },
    {
      "channel": 4,
      "note": 83,
      "start": 9.7375,
      "duration": 0.0163,
      "velocity": 97,
      "chip": "ym2612"
    },
    {
      "channel": 3,
      "note": 80,
      "start": 9.7387,
      "duration": 0.0164,
      "velocity": 97,
      "chip": "ym2612"
    },
    {
      "channel": 2,
      "note": 52,
      "start": 9.7398,
      "duration": 0.0163,
      "velocity": 100,
      "chip": "ym2612"
    },
    {
      "channel": 0,
      "note": 77,
      "start": 9.7525,
      "duration": 0.0162,
      "velocity": 124,
      "chip": "ym2612"
    },
    {
      "channel": 4,
      "note": 80,
      "start": 9.7539,
      "duration": 0.0159,
      "velocity": 97,
      "chip": "ym2612"
    },
    {
      "channel": 3,
      "note": 80,
      "start": 9.7551,
      "duration": 0.0159,
      "velocity": 97,
      "chip": "ym2612"
    },
    {
      "channel": 2,
      "note": 52,
      "start": 9.7562,
      "duration": 0.016,
      "velocity": 100,
      "chip": "ym2612"
    },
    {
      "channel": 0,
      "note": 75,
      "start": 9.7686,
      "duration": 0.0161,
      "velocity": 124,
      "chip": "ym2612"
    },
    {
      "channel": 4,
      "note": 80,
      "start": 9.7698,
      "duration": 0.016,
      "velocity": 97,
      "chip": "ym2612"
    },
    {
      "channel": 3,
      "note": 80,
      "start": 9.771,
      "duration": 0.016,
      "velocity": 97,
      "chip": "ym2612"
    },
    {
      "channel": 2,
      "note": 52,
      "start": 9.7721,
      "duration": 0.016,
      "velocity": 100,
      "chip": "ym2612"
    },
    {
      "channel": 0,
      "note": 72,
      "start": 9.7847,
      "duration": 0.0161,
      "velocity": 124,
      "chip": "ym2612"
    },
    {
      "channel": 4,
      "note": 80,
      "start": 9.7859,
      "duration": 0.0161,
      "velocity": 97,
      "chip": "ym2612"
    },
    {
      "channel": 3,
      "note": 80,
      "start": 9.787,
      "duration": 0.0163,
      "velocity": 97,
      "chip": "ym2612"
    },
    {
      "channel": 2,
      "note": 52,
      "start": 9.7882,
      "duration": 0.0163,
      "velocity": 100,
      "chip": "ym2612"
    },
    {
      "channel": 0,
      "note": 70,
      "start": 9.8008,
      "duration": 0.0161,
      "velocity": 124,
      "chip": "ym2612"
    },
    {
      "channel": 4,
      "note": 80,
      "start": 9.802,
      "duration": 0.0161,
      "velocity": 97,
      "chip": "ym2612"
    },
    {
      "channel": 3,
      "note": 83,
      "start": 9.8034,
      "duration": 0.0159,
      "velocity": 97,
      "chip": "ym2612"
    },
    {
      "channel": 2,
      "note": 52,
      "start": 9.8045,
      "duration": 0.0159,
      "velocity": 100,
      "chip": "ym2612"
    },
    {
      "channel": 0,
      "note": 68,
      "start": 9.8169,
      "duration": 0.0161,
      "velocity": 124,
      "chip": "ym2612"
    },
    {
      "channel": 4,
      "note": 80,
      "start": 9.8181,
      "duration": 0.0161,
      "velocity": 97,
      "chip": "ym2612"
    },
    {
      "channel": 3,
      "note": 83,
      "start": 9.8193,
      "duration": 0.016,
      "velocity": 97,
      "chip": "ym2612"
    },
    {
      "channel": 2,
      "note": 52,
      "start": 9.8204,
      "duration": 0.0161,
      "velocity": 100,
      "chip": "ym2612"
    },
    {
      "channel": 0,
      "note": 65,
      "start": 9.833,
      "duration": 0.0161,
      "velocity": 124,
      "chip": "ym2612"
    },
    {
      "channel": 4,
      "note": 80,
      "start": 9.8341,
      "duration": 0.0163,
      "velocity": 97,
      "chip": "ym2612"
    },
    {
      "channel": 3,
      "note": 83,
      "start": 9.8353,
      "duration": 0.0163,
      "velocity": 97,
      "chip": "ym2612"
    },
    {
      "channel": 2,
      "note": 52,
      "start": 9.8364,
      "duration": 0.0163,
      "velocity": 100,
      "chip": "ym2612"
    },
    {
      "channel": 0,
      "note": 63,
      "start": 9.8491,
      "duration": 0.0153,
      "velocity": 1,
      "chip": "ym2612"
    },
    {
      "channel": 4,
      "note": 83,
      "start": 9.8505,
      "duration": 0.0151,
      "velocity": 97,
      "chip": "ym2612"
    },
    {
      "channel": 3,
      "note": 83,
      "start": 9.8517,
      "duration": 0.0151,
      "velocity": 97,
      "chip": "ym2612"
    },
    {
      "channel": 2,
      "note": 52,
      "start": 9.8528,
      "duration": 0.0151,
      "velocity": 100,
      "chip": "ym2612"
    },
    {
      "channel": 4,
      "note": 83,
      "start": 9.8656,
      "duration": 0.0151,
      "velocity": 97,
      "chip": "ym2612"
    },
    {
      "channel": 3,
      "note": 83,
      "start": 9.8668,
      "duration": 0.0151,
      "velocity": 97,
      "chip": "ym2612"
    },
    {
      "channel": 2,
      "note": 52,
      "start": 9.8679,
      "duration": 0.0152,
      "velocity": 100,
      "chip": "ym2612"
    },
    {
      "channel": 4,
      "note": 83,
      "start": 9.8808,
      "duration": 0.0209,
      "velocity": 97,
      "chip": "ym2612"
    },
    {
      "channel": 3,
      "note": 83,
      "start": 9.8819,
      "duration": 0.0211,
      "velocity": 97,
      "chip": "ym2612"
    },
    {
      "channel": 2,
      "note": 52,
      "start": 9.8831,
      "duration": 0.0214,
      "velocity": 100,
      "chip": "ym2612"
    },
    {
      "channel": 0,
      "note": 36,
      "start": 9.9005,
      "duration": 0.015,
      "velocity": 115,
      "chip": "ym2612"
    },
    {
      "channel": 4,
      "note": 83,
      "start": 9.9017,
      "duration": 0.0149,
      "velocity": 97,
      "chip": "ym2612"
    },
    {
      "channel": 3,
      "note": 86,
      "start": 9.9031,
      "duration": 0.0147,
      "velocity": 97,
      "chip": "ym2612"
    },
    {
      "channel": 2,
      "note": 52,
      "start": 9.9045,
      "duration": 0.0144,
      "velocity": 100,
      "chip": "ym2612"
    },
    {
      "channel": 0,
      "note": 36,
      "start": 9.9155,
      "duration": 0.0162,
      "velocity": 115,
      "chip": "ym2612"
    },
    {
      "channel": 4,
      "note": 83,
      "start": 9.9166,
      "duration": 0.0162,
      "velocity": 97,
      "chip": "ym2612"
    },
    {
      "channel": 3,
      "note": 86,
      "start": 9.9178,
      "duration": 0.0162,
      "velocity": 97,
      "chip": "ym2612"
    },
    {
      "channel": 2,
      "note": 52,
      "start": 9.919,
      "duration": 0.0161,
      "velocity": 100,
      "chip": "ym2612"
    },
    {
      "channel": 0,
      "note": 37,
      "start": 9.9317,
      "duration": 0.0144,
      "velocity": 115,
      "chip": "ym2612"
    },
    {
      "channel": 4,
      "note": 83,
      "start": 9.9328,
      "duration": 0.0146,
      "velocity": 97,
      "chip": "ym2612"
    },
    {
      "channel": 3,
      "note": 86,
      "start": 9.934,
      "duration": 0.0146,
      "velocity": 97,
      "chip": "ym2612"
    },
    {
      "channel": 2,
      "note": 52,
      "start": 9.9351,
      "duration": 0.0146,
      "velocity": 100,
      "chip": "ym2612"
    },
    {
      "channel": 0,
      "note": 37,
      "start": 9.9461,
      "duration": 0.0185,
      "velocity": 115,
      "chip": "ym2612"
    },
    {
      "channel": 4,
      "note": 86,
      "start": 9.9475,
      "duration": 0.0183,
      "velocity": 97,
      "chip": "ym2612"
    },
    {
      "channel": 3,
      "note": 86,
      "start": 9.9486,
      "duration": 0.0183,
      "velocity": 97,
      "chip": "ym2612"
    },
    {
      "channel": 2,
      "note": 52,
      "start": 9.9498,
      "duration": 0.0183,
      "velocity": 100,
      "chip": "ym2612"
    },
    {
      "channel": 0,
      "note": 38,
      "start": 9.9646,
      "duration": 0.0161,
      "velocity": 115,
      "chip": "ym2612"
    },
    {
      "channel": 4,
      "note": 86,
      "start": 9.9658,
      "duration": 0.016,
      "velocity": 97,
      "chip": "ym2612"
    },
    {
      "channel": 3,
      "note": 86,
      "start": 9.9669,
      "duration": 0.016,
      "velocity": 97,
      "chip": "ym2612"
    },
    {
      "channel": 2,
      "note": 52,
      "start": 9.9681,
      "duration": 0.016,
      "velocity": 100,
      "chip": "ym2612"
    },
    {
      "channel": 0,
      "note": 38,
      "start": 9.9807,
      "duration": 0.0157,
      "velocity": 115,
      "chip": "ym2612"
    },
    {
      "channel": 4,
      "note": 86,
      "start": 9.9818,
      "duration": 0.0158,
      "velocity": 97,
      "chip": "ym2612"
    },
    {
      "channel": 3,
      "note": 86,
      "start": 9.9829,
      "duration": 0.0159,
      "velocity": 97,
      "chip": "ym2612"
    },
    {
      "channel": 2,
      "note": 52,
      "start": 9.9841,
      "duration": 0.0158,
      "velocity": 100,
      "chip": "ym2612"
    },
    {
      "channel": 0,
      "note": 39,
      "start": 9.9964,
      "duration": 0.0137,
      "velocity": 115,
      "chip": "ym2612"
    },
    {
      "channel": 4,
      "note": 86,
      "start": 9.9976,
      "duration": 0.014,
      "velocity": 97,
      "chip": "ym2612"
    },
    {
      "channel": 3,
      "note": 86,
      "start": 9.9988,
      "duration": 0.0139,
      "velocity": 97,
      "chip": "ym2612"
    },
    {
      "channel": 2,
      "note": 52,
      "start": 9.9999,
      "duration": 0.014,
      "velocity": 100,
      "chip": "ym2612"
    },
    {
      "channel": 0,
      "note": 39,
      "start": 10.0101,
      "duration": 0.0161,
      "velocity": 115,
      "chip": "ym2612"
    },
    {
      "channel": 4,
      "note": 86,
      "start": 10.0116,
      "duration": 0.0186,
      "velocity": 97,
      "chip": "ym2612"
    },
    {
      "channel": 3,
      "note": 86,
      "start": 10.0128,
      "duration": 0.0184,
      "velocity": 97,
      "chip": "ym2612"
    },
    {
      "channel": 2,
      "note": 52,
      "start": 10.0139,
      "duration": 0.0185,
      "velocity": 100,
      "chip": "ym2612"
    },
    {
      "channel": 0,
      "note": 40,
      "start": 10.0262,
      "duration": 0.0161,
      "velocity": 115,
      "chip": "ym2612"
    },
    {
      "channel": 4,
      "note": 86,
      "start": 10.0302,
      "duration": 0.0134,
      "velocity": 97,
      "chip": "ym2612"
    },
    {
      "channel": 3,
      "note": 86,
      "start": 10.0312,
      "duration": 0.0162,
      "velocity": 97,
      "chip": "ym2612"
    },
    {
      "channel": 2,
      "note": 52,
      "start": 10.0324,
      "duration": 0.0162,
      "velocity": 100,
      "chip": "ym2612"
    },
    {
      "channel": 0,
      "note": 40,
      "start": 10.0423,
      "duration": 0.0161,
      "velocity": 115,
      "chip": "ym2612"
    },
    {
      "channel": 4,
      "note": 86,
      "start": 10.0436,
      "duration": 0.016,
      "velocity": 97,
      "chip": "ym2612"
    },
    {
      "channel": 3,
      "note": 86,
      "start": 10.0475,
      "duration": 0.0156,
      "velocity": 97,
      "chip": "ym2612"
    },
    {
      "channel": 2,
      "note": 52,
      "start": 10.0486,
      "duration": 0.0156,
      "velocity": 100,
      "chip": "ym2612"
    },
    {
      "channel": 0,
      "note": 40,
      "start": 10.0584,
      "duration": 0.0161,
      "velocity": 115,
      "chip": "ym2612"
    },
    {
      "channel": 4,
      "note": 86,
      "start": 10.0596,
      "duration": 0.0161,
      "velocity": 97,
      "chip": "ym2612"
    },
    {
      "channel": 3,
      "note": 86,
      "start": 10.0631,
      "duration": 0.0137,
      "velocity": 97,
      "chip": "ym2612"
    },
    {
      "channel": 2,
      "note": 52,
      "start": 10.0642,
      "duration": 0.014,
      "velocity": 100,
      "chip": "ym2612"
    },
    {
      "channel": 0,
      "note": 41,
      "start": 10.0745,
      "duration": 0.0179,
      "velocity": 115,
      "chip": "ym2612"
    },
    {
      "channel": 4,
      "note": 86,
      "start": 10.0757,
      "duration": 0.0179,
      "velocity": 97,
      "chip": "ym2612"
    },
    {
      "channel": 3,
      "note": 86,
      "start": 10.0768,
      "duration": 0.0209,
      "velocity": 97,
      "chip": "ym2612"
    },
    {
      "channel": 2,
      "note": 52,
      "start": 10.0783,
      "duration": 0.0209,
      "velocity": 100,
      "chip": "ym2612"
    },
    {
      "channel": 0,
      "note": 36,
      "start": 10.0924,
      "duration": 0.0144,
      "velocity": 115,
      "chip": "ym2612"
    },
    {
      "channel": 4,
      "note": 86,
      "start": 10.0936,
      "duration": 0.0144,
      "velocity": 97,
      "chip": "ym2612"
    },
    {
      "channel": 3,
      "note": 83,
      "start": 10.0977,
      "duration": 0.0114,
      "velocity": 97,
      "chip": "ym2612"
    },
    {
      "channel": 2,
      "note": 52,
      "start": 10.0992,
      "duration": 0.0111,
      "velocity": 100,
      "chip": "ym2612"
    },
    {
      "channel": 0,
      "note": 36,
      "start": 10.1068,
      "duration": 0.016,
      "velocity": 115,
      "chip": "ym2612"
    },
    {
      "channel": 4,
      "note": 86,
      "start": 10.108,
      "duration": 0.016,
      "velocity": 97,
      "chip": "ym2612"
    },
    {
      "channel": 3,
      "note": 83,
      "start": 10.1091,
      "duration": 0.016,
      "velocity": 97,
      "chip": "ym2612"
    },
    {
      "channel": 2,
      "note": 52,
      "start": 10.1103,
      "duration": 0.016,
      "velocity": 100,
      "chip": "ym2612"
    },
    {
      "channel": 0,
      "note": 37,
      "start": 10.1228,
      "duration": 0.0161,
      "velocity": 115,
      "chip": "ym2612"
    },
    {
      "channel": 4,
      "note": 86,
      "start": 10.124,
      "duration": 0.0163,
      "velocity": 97,
      "chip": "ym2612"
    },
    {
      "channel": 3,
      "note": 83,
      "start": 10.1251,
      "duration": 0.0163,
      "velocity": 97,
      "chip": "ym2612"
    },
    {
      "channel": 2,
      "note": 52,
      "start": 10.1263,
      "duration": 0.0163,
      "velocity": 100,
      "chip": "ym2612"
    },
    {
      "channel": 0,
      "note": 37,
      "start": 10.1389,
      "duration": 0.0161,
      "velocity": 115,
      "chip": "ym2612"
    },
    {
      "channel": 4,
      "note": 83,
      "start": 10.1403,
      "duration": 0.0159,
      "velocity": 97,
      "chip": "ym2612"
    },
    {
      "channel": 3,
      "note": 83,
      "start": 10.1415,
      "duration": 0.0159,
      "velocity": 97,
      "chip": "ym2612"
    },
    {
      "channel": 2,
      "note": 52,
      "start": 10.1426,
      "duration": 0.0159,
      "velocity": 100,
      "chip": "ym2612"
    },
    {
      "channel": 0,
      "note": 38,
      "start": 10.155,
      "duration": 0.0161,
      "velocity": 115,
      "chip": "ym2612"
    },
    {
      "channel": 4,
      "note": 83,
      "start": 10.1562,
      "duration": 0.016,
      "velocity": 97,
      "chip": "ym2612"
    },
    {
      "channel": 3,
      "note": 83,
      "start": 10.1574,
      "duration": 0.016,
      "velocity": 97,
      "chip": "ym2612"
    },
    {
      "channel": 2,
      "note": 52,
      "start": 10.1585,
      "duration": 0.016,
      "velocity": 100,
      "chip": "ym2612"
    },
    {
      "channel": 0,
      "note": 38,
      "start": 10.1711,
      "duration": 0.0161,
      "velocity": 115,
      "chip": "ym2612"
    },
    {
      "channel": 4,
      "note": 83,
      "start": 10.1723,
      "duration": 0.0161,
      "velocity": 97,
      "chip": "ym2612"
    },
    {
      "channel": 3,
      "note": 83,
      "start": 10.1734,
      "duration": 0.0163,
      "velocity": 97,
      "chip": "ym2612"
    },
    {
      "channel": 2,
      "note": 52,
      "start": 10.1746,
      "duration": 0.0163,
      "velocity": 100,
      "chip": "ym2612"
    },
    {
      "channel": 0,
      "note": 39,
      "start": 10.1872,
      "duration": 0.0161,
      "velocity": 115,
      "chip": "ym2612"
    },
    {
      "channel": 4,
      "note": 83,
      "start": 10.1884,
      "duration": 0.0161,
      "velocity": 97,
      "chip": "ym2612"
    },
    {
      "channel": 3,
      "note": 86,
      "start": 10.1898,
      "duration": 0.0159,
      "velocity": 97,
      "chip": "ym2612"
    },
    {
      "channel": 2,
      "note": 52,
      "start": 10.1909,
      "duration": 0.0159,
      "velocity": 100,
      "chip": "ym2612"
    },
    {
      "channel": 0,
      "note": 39,
      "start": 10.2033,
      "duration": 0.0161,
      "velocity": 115,
      "chip": "ym2612"
    },
    {
      "channel": 4,
      "note": 83,
      "start": 10.2044,
      "duration": 0.0162,
      "velocity": 97,
      "chip": "ym2612"
    },
    {
      "channel": 3,
      "note": 86,
      "start": 10.2057,
      "duration": 0.0161,
      "velocity": 97,
      "chip": "ym2612"
    },
    {
      "channel": 2,
      "note": 52,
      "start": 10.2068,
      "duration": 0.016,
      "velocity": 100,
      "chip": "ym2612"
    },
    {
      "channel": 0,
      "note": 40,
      "start": 10.2195,
      "duration": 0.0161,
      "velocity": 115,
      "chip": "ym2612"
    },
    {
      "channel": 4,
      "note": 83,
      "start": 10.2206,
      "duration": 0.0163,
      "velocity": 97,
      "chip": "ym2612"
    },
    {
      "channel": 3,
      "note": 86,
      "start": 10.2217,
      "duration": 0.0163,
      "velocity": 97,
      "chip": "ym2612"
    },
    {
      "channel": 2,
      "note": 52,
      "start": 10.2228,
      "duration": 0.0163,
      "velocity": 100,
      "chip": "ym2612"
    },
    {
      "channel": 0,
      "note": 40,
      "start": 10.2356,
      "duration": 0.0161,
      "velocity": 115,
      "chip": "ym2612"
    },
    {
      "channel": 4,
      "note": 86,
      "start": 10.237,
      "duration": 0.0159,
      "velocity": 97,
      "chip": "ym2612"
    },
    {
      "channel": 3,
      "note": 86,
      "start": 10.2381,
      "duration": 0.0159,
      "velocity": 97,
      "chip": "ym2612"
    },
    {
      "channel": 2,
      "note": 52,
      "start": 10.2392,
      "duration": 0.0159,
      "velocity": 100,
      "chip": "ym2612"
    },
    {
      "channel": 0,
      "note": 40,
      "start": 10.2517,
      "duration": 0.0161,
      "velocity": 115,
      "chip": "ym2612"
    },
    {
      "channel": 4,
      "note": 86,
      "start": 10.2529,
      "duration": 0.016,
      "velocity": 97,
      "chip": "ym2612"
    },
    {
      "channel": 3,
      "note": 86,
      "start": 10.254,
      "duration": 0.016,
      "velocity": 97,
      "chip": "ym2612"
    },
    {
      "channel": 2,
      "note": 52,
      "start": 10.2551,
      "duration": 0.016,
      "velocity": 100,
      "chip": "ym2612"
    },
    {
      "channel": 0,
      "note": 41,
      "start": 10.2678,
      "duration": 0.0161,
      "velocity": 115,
      "chip": "ym2612"
    },
    {
      "channel": 4,
      "note": 86,
      "start": 10.2689,
      "duration": 0.0161,
      "velocity": 97,
      "chip": "ym2612"
    },
    {
      "channel": 3,
      "note": 86,
      "start": 10.27,
      "duration": 0.0163,
      "velocity": 97,
      "chip": "ym2612"
    },
    {
      "channel": 2,
      "note": 52,
      "start": 10.2711,
      "duration": 0.0167,
      "velocity": 100,
      "chip": "ym2612"
    },
    {
      "channel": 0,
      "note": 41,
      "start": 10.2838,
      "duration": 0.0161,
      "velocity": 115,
      "chip": "ym2612"
    },
    {
      "channel": 4,
      "note": 86,
      "start": 10.285,
      "duration": 0.0161,
      "velocity": 97,
      "chip": "ym2612"
    },
    {
      "channel": 3,
      "note": 90,
      "start": 10.2864,
      "duration": 0.0159,
      "velocity": 97,
      "chip": "ym2612"
    },
    {
      "channel": 2,
      "note": 52,
      "start": 10.2878,
      "duration": 0.0156,
      "velocity": 100,
      "chip": "ym2612"
    },
    {
      "channel": 0,
      "note": 42,
      "start": 10.2999,
      "duration": 0.0161,
      "velocity": 115,
      "chip": "ym2612"
    },
    {
      "channel": 4,
      "note": 86,
      "start": 10.3011,
      "duration": 0.0161,
      "velocity": 97,
      "chip": "ym2612"
    },
    {
      "channel": 3,
      "note": 90,
      "start": 10.3023,
      "duration": 0.016,
      "velocity": 97,
      "chip": "ym2612"
    },
    {
      "channel": 2,
      "note": 52,
      "start": 10.3035,
      "duration": 0.016,
      "velocity": 100,
      "chip": "ym2612"
    },
    {
      "channel": 0,
      "note": 42,
      "start": 10.316,
      "duration": 0.0161,
      "velocity": 115,
      "chip": "ym2612"
    },
    {
      "channel": 4,
      "note": 86,
      "start": 10.3172,
      "duration": 0.0163,
      "velocity": 97,
      "chip": "ym2612"
    },
    {
      "channel": 3,
      "note": 90,
      "start": 10.3183,
      "duration": 0.0163,
      "velocity": 97,
      "chip": "ym2612"
    },
    {
      "channel": 2,
      "note": 52,
      "start": 10.3195,
      "duration": 0.0163,
      "velocity": 100,
      "chip": "ym2612"
    },
    {
      "channel": 0,
      "note": 43,
      "start": 10.3321,
      "duration": 0.0161,
      "velocity": 115,
      "chip": "ym2612"
    },
    {
      "channel": 4,
      "note": 90,
      "start": 10.3336,
      "duration": 0.0159,
      "velocity": 97,
      "chip": "ym2612"
    },
    {
      "channel": 3,
      "note": 90,
      "start": 10.3347,
      "duration": 0.0159,
      "velocity": 97,
      "chip": "ym2612"
    },
    {
      "channel": 2,
      "note": 52,
      "start": 10.3358,
      "duration": 0.0159,
      "velocity": 100,
      "chip": "ym2612"
    },
    {
      "channel": 0,
      "note": 43,
      "start": 10.3482,
      "duration": 0.0171,
      "velocity": 115,
      "chip": "ym2612"
    },
    {
      "channel": 4,
      "note": 90,
      "start": 10.3494,
      "duration": 0.0171,
      "velocity": 97,
      "chip": "ym2612"
    },
    {
      "channel": 3,
      "note": 90,
      "start": 10.3506,
      "duration": 0.0171,
      "velocity": 97,
      "chip": "ym2612"
    },
    {
      "channel": 2,
      "note": 52,
      "start": 10.3517,
      "duration": 0.0171,
      "velocity": 100,
      "chip": "ym2612"
    },
    {
      "channel": 0,
      "note": 44,
      "start": 10.3653,
      "duration": 0.0167,
      "velocity": 115,
      "chip": "ym2612"
    },
    {
      "channel": 4,
      "note": 90,
      "start": 10.3665,
      "duration": 0.0167,
      "velocity": 97,
      "chip": "ym2612"
    },
    {
      "channel": 3,
      "note": 90,
      "start": 10.3676,
      "duration": 0.0168,
      "velocity": 97,
      "chip": "ym2612"
    },
    {
      "channel": 2,
      "note": 52,
      "start": 10.3688,
      "duration": 0.0168,
      "velocity": 100,
      "chip": "ym2612"
    },
    {
      "channel": 0,
      "note": 44,
      "start": 10.3821,
      "duration": 0.0163,
      "velocity": 115,
      "chip": "ym2612"
    },
    {
      "channel": 4,
      "note": 90,
      "start": 10.3832,
      "duration": 0.0163,
      "velocity": 97,
      "chip": "ym2612"
    },
    {
      "channel": 3,
      "note": 90,
      "start": 10.3845,
      "duration": 0.0162,
      "velocity": 97,
      "chip": "ym2612"
    },
    {
      "channel": 2,
      "note": 52,
      "start": 10.3856,
      "duration": 0.0163,
      "velocity": 100,
      "chip": "ym2612"
    },
    {
      "channel": 0,
      "note": 44,
      "start": 10.3983,
      "duration": 0.0146,
      "velocity": 115,
      "chip": "ym2612"
    },
    {
      "channel": 4,
      "note": 90,
      "start": 10.3995,
      "duration": 0.0146,
      "velocity": 97,
      "chip": "ym2612"
    },
    {
      "channel": 3,
      "note": 90,
      "start": 10.4007,
      "duration": 0.0146,
      "velocity": 97,
      "chip": "ym2612"
    },
    {
      "channel": 2,
      "note": 52,
      "start": 10.4018,
      "duration": 0.0145,
      "velocity": 100,
      "chip": "ym2612"
    },
    {
      "channel": 0,
      "note": 45,
      "start": 10.413,
      "duration": 0.0185,
      "velocity": 115,
      "chip": "ym2612"
    },
    {
      "channel": 4,
      "note": 90,
      "start": 10.4141,
      "duration": 0.0186,
      "velocity": 97,
      "chip": "ym2612"
    },
    {
      "channel": 3,
      "note": 90,
      "start": 10.4153,
      "duration": 0.0186,
      "velocity": 97,
      "chip": "ym2612"
    },
    {
      "channel": 2,
      "note": 52,
      "start": 10.4163,
      "duration": 0.0186,
      "velocity": 100,
      "chip": "ym2612"
    },
    {
      "channel": 0,
      "note": 45,
      "start": 10.4315,
      "duration": 0.0161,
      "velocity": 115,
      "chip": "ym2612"
    },
    {
      "channel": 4,
      "note": 90,
      "start": 10.4328,
      "duration": 0.016,
      "velocity": 97,
      "chip": "ym2612"
    },
    {
      "channel": 3,
      "note": 90,
      "start": 10.4339,
      "duration": 0.016,
      "velocity": 97,
      "chip": "ym2612"
    },
    {
      "channel": 2,
      "note": 52,
      "start": 10.435,
      "duration": 0.0161,
      "velocity": 100,
      "chip": "ym2612"
    },
    {
      "channel": 0,
      "note": 46,
      "start": 10.4476,
      "duration": 0.0158,
      "velocity": 115,
      "chip": "ym2612"
    },
    {
      "channel": 4,
      "note": 90,
      "start": 10.4488,
      "duration": 0.0157,
      "velocity": 97,
      "chip": "ym2612"
    },
    {
      "channel": 3,
      "note": 90,
      "start": 10.4499,
      "duration": 0.0156,
      "velocity": 97,
      "chip": "ym2612"
    },
    {
      "channel": 2,
      "note": 52,
      "start": 10.4511,
      "duration": 0.0156,
      "velocity": 100,
      "chip": "ym2612"
    },
    {
      "channel": 0,
      "note": 46,
      "start": 10.4634,
      "duration": 0.0158,
      "velocity": 124,
      "chip": "ym2612"
    },
    {
      "channel": 4,
      "note": 90,
      "start": 10.4645,
      "duration": 0.0158,
      "velocity": 97,
      "chip": "ym2612"
    },
    {
      "channel": 3,
      "note": 90,
      "start": 10.4656,
      "duration": 0.0161,
      "velocity": 97,
      "chip": "ym2612"
    },
    {
      "channel": 2,
      "note": 52,
      "start": 10.4667,
      "duration": 0.0163,
      "velocity": 100,
      "chip": "ym2612"
    },
    {
      "channel": 0,
      "note": 84,
      "start": 10.4791,
      "duration": 0.0141,
      "velocity": 124,
      "chip": "ym2612"
    },
    {
      "channel": 4,
      "note": 90,
      "start": 10.4803,
      "duration": 0.0169,
      "velocity": 97,
      "chip": "ym2612"
    },
    {
      "channel": 3,
      "note": 86,
      "start": 10.4817,
      "duration": 0.0166,
      "velocity": 97,
      "chip": "ym2612"
    },
    {
      "channel": 2,
      "note": 52,
      "start": 10.4832,
      "duration": 0.0163,
      "velocity": 100,
      "chip": "ym2612"
    },
    {
      "channel": 0,
      "note": 82,
      "start": 10.4932,
      "duration": 0.0161,
      "velocity": 124,
      "chip": "ym2612"
    },
    {
      "channel": 4,
      "note": 90,
      "start": 10.4971,
      "duration": 0.0133,
      "velocity": 97,
      "chip": "ym2612"
    },
    {
      "channel": 3,
      "note": 86,
      "start": 10.4983,
      "duration": 0.016,
      "velocity": 97,
      "chip": "ym2612"
    },
    {
      "channel": 2,
      "note": 52,
      "start": 10.4995,
      "duration": 0.016,
      "velocity": 100,
      "chip": "ym2612"
    },
    {
      "channel": 0,
      "note": 80,
      "start": 10.5093,
      "duration": 0.0161,
      "velocity": 124,
      "chip": "ym2612"
    },
    {
      "channel": 4,
      "note": 90,
      "start": 10.5104,
      "duration": 0.0163,
      "velocity": 97,
      "chip": "ym2612"
    },
    {
      "channel": 3,
      "note": 86,
      "start": 10.5143,
      "duration": 0.016,
      "velocity": 97,
      "chip": "ym2612"
    },
    {
      "channel": 2,
      "note": 52,
      "start": 10.5155,
      "duration": 0.016,
      "velocity": 100,
      "chip": "ym2612"
    },
    {
      "channel": 0,
      "note": 77,
      "start": 10.5254,
      "duration": 0.0161,
      "velocity": 124,
      "chip": "ym2612"
    },
    {
      "channel": 4,
      "note": 86,
      "start": 10.5268,
      "duration": 0.0159,
      "velocity": 97,
      "chip": "ym2612"
    },
    {
      "channel": 3,
      "note": 86,
      "start": 10.5303,
      "duration": 0.0136,
      "velocity": 97,
      "chip": "ym2612"
    },
    {
      "channel": 2,
      "note": 52,
      "start": 10.5314,
      "duration": 0.0139,
      "velocity": 100,
      "chip": "ym2612"
    },
    {
      "channel": 0,
      "note": 75,
      "start": 10.5415,
      "duration": 0.0161,
      "velocity": 124,
      "chip": "ym2612"
    },
    {
      "channel": 4,
      "note": 86,
      "start": 10.5427,
      "duration": 0.016,
      "velocity": 97,
      "chip": "ym2612"
    },
    {
      "channel": 3,
      "note": 86,
      "start": 10.5438,
      "duration": 0.016,
      "velocity": 97,
      "chip": "ym2612"
    },
    {
      "channel": 2,
      "note": 52,
      "start": 10.5453,
      "duration": 0.0185,
      "velocity": 100,
      "chip": "ym2612"
    },
    {
      "channel": 0,
      "note": 72,
      "start": 10.5576,
      "duration": 0.0161,
      "velocity": 124,
      "chip": "ym2612"
    },
    {
      "channel": 4,
      "note": 86,
      "start": 10.5587,
      "duration": 0.0161,
      "velocity": 97,
      "chip": "ym2612"
    },
    {
      "channel": 3,
      "note": 86,
      "start": 10.5599,
      "duration": 0.0163,
      "velocity": 97,
      "chip": "ym2612"
    },
    {
      "channel": 2,
      "note": 52,
      "start": 10.5637,
      "duration": 0.0163,
      "velocity": 100,
      "chip": "ym2612"
    },
    {
      "channel": 0,
      "note": 70,
      "start": 10.5737,
      "duration": 0.0161,
      "velocity": 124,
      "chip": "ym2612"
    },
    {
      "channel": 4,
      "note": 86,
      "start": 10.5748,
      "duration": 0.0161,
      "velocity": 97,
      "chip": "ym2612"
    },
    {
      "channel": 3,
      "note": 90,
      "start": 10.5762,
      "duration": 0.0159,
      "velocity": 97,
      "chip": "ym2612"
    },
    {
      "channel": 2,
      "note": 52,
      "start": 10.5801,
      "duration": 0.0132,
      "velocity": 100,
      "chip": "ym2612"
    },
    {
      "channel": 0,
      "note": 68,
      "start": 10.5898,
      "duration": 0.0161,
      "velocity": 124,
      "chip": "ym2612"
    },
    {
      "channel": 4,
      "note": 86,
      "start": 10.5909,
      "duration": 0.0161,
      "velocity": 97,
      "chip": "ym2612"
    },
    {
      "channel": 3,
      "note": 90,
      "start": 10.5921,
      "duration": 0.016,
      "velocity": 97,
      "chip": "ym2612"
    },
    {
      "channel": 2,
      "note": 52,
      "start": 10.5933,
      "duration": 0.016,
      "velocity": 100,
      "chip": "ym2612"
    },
    {
      "channel": 0,
      "note": 65,
      "start": 10.6059,
      "duration": 0.0161,
      "velocity": 124,
      "chip": "ym2612"
    },
    {
      "channel": 4,
      "note": 86,
      "start": 10.607,
      "duration": 0.0163,
      "velocity": 97,
      "chip": "ym2612"
    },
    {
      "channel": 3,
      "note": 90,
      "start": 10.6081,
      "duration": 0.0163,
      "velocity": 97,
      "chip": "ym2612"
    },
    {
      "channel": 2,
      "note": 52,
      "start": 10.6093,
      "duration": 0.0163,
      "velocity": 100,
      "chip": "ym2612"
    },
    {
      "channel": 0,
      "note": 63,
      "start": 10.622,
      "duration": 0.0153,
      "velocity": 1,
      "chip": "ym2612"
    },
    {
      "channel": 4,
      "note": 90,
      "start": 10.6234,
      "duration": 0.0151,
      "velocity": 97,
      "chip": "ym2612"
    },
    {
      "channel": 3,
      "note": 90,
      "start": 10.6245,
      "duration": 0.0151,
      "velocity": 97,
      "chip": "ym2612"
    },
    {
      "channel": 2,
      "note": 52,
      "start": 10.6256,
      "duration": 0.0151,
      "velocity": 100,
      "chip": "ym2612"
    },
    {
      "channel": 4,
      "note": 90,
      "start": 10.6385,
      "duration": 0.0152,
      "velocity": 97,
      "chip": "ym2612"
    },
    {
      "channel": 3,
      "note": 90,
      "start": 10.6396,
      "duration": 0.0151,
      "velocity": 97,
      "chip": "ym2612"
    },
    {
      "channel": 2,
      "note": 52,
      "start": 10.6407,
      "duration": 0.0152,
      "velocity": 100,
      "chip": "ym2612"
    },
    {
      "channel": 4,
      "note": 90,
      "start": 10.6537,
      "duration": 0.0161,
      "velocity": 97,
      "chip": "ym2612"
    },
    {
      "channel": 3,
      "note": 90,
      "start": 10.6548,
      "duration": 0.0163,
      "velocity": 97,
      "chip": "ym2612"
    },
    {
      "channel": 2,
      "note": 52,
      "start": 10.6559,
      "duration": 0.0167,
      "velocity": 100,
      "chip": "ym2612"
    },
    {
      "channel": 4,
      "note": 90,
      "start": 10.6698,
      "duration": 0.0161,
      "velocity": 97,
      "chip": "ym2612"
    },
    {
      "channel": 3,
      "note": 92,
      "start": 10.6712,
      "duration": 0.0159,
      "velocity": 97,
      "chip": "ym2612"
    },
    {
      "channel": 2,
      "note": 52,
      "start": 10.6727,
      "duration": 0.0156,
      "velocity": 100,
      "chip": "ym2612"
    },
    {
      "channel": 4,
      "note": 90,
      "start": 10.6859,
      "duration": 0.0161,
      "velocity": 97,
      "chip": "ym2612"
    },
    {
      "channel": 3,
      "note": 92,
      "start": 10.6871,
      "duration": 0.016,
      "velocity": 97,
      "chip": "ym2612"
    },
    {
      "channel": 2,
      "note": 52,
      "start": 10.6882,
      "duration": 0.016,
      "velocity": 100,
      "chip": "ym2612"
    },
    {
      "channel": 4,
      "note": 90,
      "start": 10.702,
      "duration": 0.0163,
      "velocity": 97,
      "chip": "ym2612"
    },
    {
      "channel": 3,
      "note": 92,
      "start": 10.7031,
      "duration": 0.0163,
      "velocity": 97,
      "chip": "ym2612"
    },
    {
      "channel": 2,
      "note": 52,
      "start": 10.7042,
      "duration": 0.0164,
      "velocity": 100,
      "chip": "ym2612"
    },
    {
      "channel": 4,
      "note": 92,
      "start": 10.7183,
      "duration": 0.0159,
      "velocity": 97,
      "chip": "ym2612"
    },
    {
      "channel": 3,
      "note": 92,
      "start": 10.7195,
      "duration": 0.0159,
      "velocity": 97,
      "chip": "ym2612"
    },
    {
      "channel": 2,
      "note": 52,
      "start": 10.7206,
      "duration": 0.0159,
      "velocity": 100,
      "chip": "ym2612"
    },
    {
      "channel": 4,
      "note": 92,
      "start": 10.7342,
      "duration": 0.016,
      "velocity": 97,
      "chip": "ym2612"
    },
    {
      "channel": 3,
      "note": 92,
      "start": 10.7354,
      "duration": 0.016,
      "velocity": 97,
      "chip": "ym2612"
    },
    {
      "channel": 2,
      "note": 52,
      "start": 10.7365,
      "duration": 0.016,
      "velocity": 100,
      "chip": "ym2612"
    },
    {
      "channel": 4,
      "note": 92,
      "start": 10.7502,
      "duration": 0.0161,
      "velocity": 97,
      "chip": "ym2612"
    },
    {
      "channel": 3,
      "note": 92,
      "start": 10.7514,
      "duration": 0.0162,
      "velocity": 97,
      "chip": "ym2612"
    },
    {
      "channel": 2,
      "note": 52,
      "start": 10.7525,
      "duration": 0.0162,
      "velocity": 100,
      "chip": "ym2612"
    },
    {
      "channel": 4,
      "note": 92,
      "start": 10.7663,
      "duration": 0.0161,
      "velocity": 97,
      "chip": "ym2612"
    },
    {
      "channel": 3,
      "note": 92,
      "start": 10.7676,
      "duration": 0.016,
      "velocity": 97,
      "chip": "ym2612"
    },
    {
      "channel": 2,
      "note": 52,
      "start": 10.7688,
      "duration": 0.016,
      "velocity": 100,
      "chip": "ym2612"
    },
    {
      "channel": 4,
      "note": 92,
      "start": 10.7825,
      "duration": 0.0161,
      "velocity": 97,
      "chip": "ym2612"
    },
    {
      "channel": 3,
      "note": 92,
      "start": 10.7837,
      "duration": 0.016,
      "velocity": 97,
      "chip": "ym2612"
    },
    {
      "channel": 2,
      "note": 52,
      "start": 10.7848,
      "duration": 0.016,
      "velocity": 100,
      "chip": "ym2612"
    },
    {
      "channel": 4,
      "note": 92,
      "start": 10.7986,
      "duration": 0.0162,
      "velocity": 97,
      "chip": "ym2612"
    },
    {
      "channel": 3,
      "note": 92,
      "start": 10.7997,
      "duration": 0.0162,
      "velocity": 97,
      "chip": "ym2612"
    },
    {
      "channel": 2,
      "note": 52,
      "start": 10.8008,
      "duration": 0.0162,
      "velocity": 100,
      "chip": "ym2612"
    },
    {
      "channel": 4,
      "note": 92,
      "start": 10.8148,
      "duration": 0.0168,
      "velocity": 97,
      "chip": "ym2612"
    },
    {
      "channel": 3,
      "note": 92,
      "start": 10.8159,
      "duration": 0.0168,
      "velocity": 97,
      "chip": "ym2612"
    },
    {
      "channel": 2,
      "note": 52,
      "start": 10.8171,
      "duration": 0.0168,
      "velocity": 100,
      "chip": "ym2612"
    },
    {
      "channel": 4,
      "note": 92,
      "start": 10.8316,
      "duration": 0.0166,
      "velocity": 97,
      "chip": "ym2612"
    },
    {
      "channel": 3,
      "note": 92,
      "start": 10.8327,
      "duration": 0.0166,
      "velocity": 97,
      "chip": "ym2612"
    },
    {
      "channel": 2,
      "note": 52,
      "start": 10.8338,
      "duration": 0.0166,
      "velocity": 100,
      "chip": "ym2612"
    },
    {
      "channel": 4,
      "note": 92,
      "start": 10.8482,
      "duration": 0.0197,
      "velocity": 97,
      "chip": "ym2612"
    },
    {
      "channel": 3,
      "note": 92,
      "start": 10.8493,
      "duration": 0.02,
      "velocity": 97,
      "chip": "ym2612"
    },
    {
      "channel": 2,
      "note": 52,
      "start": 10.8505,
      "duration": 0.0203,
      "velocity": 100,
      "chip": "ym2612"
    },
    {
      "channel": 0,
      "note": 36,
      "start": 10.8668,
      "duration": 0.013,
      "velocity": 115,
      "chip": "ym2612"
    },
    {
      "channel": 4,
      "note": 92,
      "start": 10.8679,
      "duration": 0.013,
      "velocity": 97,
      "chip": "ym2612"
    },
    {
      "channel": 3,
      "note": 92,
      "start": 10.8693,
      "duration": 0.0128,
      "velocity": 97,
      "chip": "ym2612"
    },
    {
      "channel": 2,
      "note": 52,
      "start": 10.8708,
      "duration": 0.0125,
      "velocity": 100,
      "chip": "ym2612"
    },
    {
      "channel": 0,
      "note": 36,
      "start": 10.8798,
      "duration": 0.0186,
      "velocity": 115,
      "chip": "ym2612"
    },
    {
      "channel": 4,
      "note": 92,
      "start": 10.8809,
      "duration": 0.0186,
      "velocity": 97,
      "chip": "ym2612"
    },
    {
      "channel": 3,
      "note": 92,
      "start": 10.8821,
      "duration": 0.0186,
      "velocity": 97,
      "chip": "ym2612"
    },
    {
      "channel": 2,
      "note": 52,
      "start": 10.8833,
      "duration": 0.0186,
      "velocity": 100,
      "chip": "ym2612"
    },
    {
      "channel": 0,
      "note": 37,
      "start": 10.8984,
      "duration": 0.0161,
      "velocity": 115,
      "chip": "ym2612"
    },
    {
      "channel": 4,
      "note": 92,
      "start": 10.8995,
      "duration": 0.0163,
      "velocity": 97,
      "chip": "ym2612"
    },
    {
      "channel": 3,
      "note": 92,
      "start": 10.9007,
      "duration": 0.0163,
      "velocity": 97,
      "chip": "ym2612"
    },
    {
      "channel": 2,
      "note": 52,
      "start": 10.9018,
      "duration": 0.0163,
      "velocity": 100,
      "chip": "ym2612"
    },
    {
      "channel": 0,
      "note": 37,
      "start": 10.9145,
      "duration": 0.0158,
      "velocity": 115,
      "chip": "ym2612"
    },
    {
      "channel": 4,
      "note": 92,
      "start": 10.916,
      "duration": 0.0155,
      "velocity": 97,
      "chip": "ym2612"
    },
    {
      "channel": 3,
      "note": 92,
      "start": 10.9171,
      "duration": 0.0156,
      "velocity": 97,
      "chip": "ym2612"
    },
    {
      "channel": 2,
      "note": 52,
      "start": 10.9182,
      "duration": 0.0155,
      "velocity": 100,
      "chip": "ym2612"
    },
    {
      "channel": 0,
      "note": 38,
      "start": 10.9303,
      "duration": 0.0138,
      "velocity": 115,
      "chip": "ym2612"
    },
    {
      "channel": 4,
      "note": 92,
      "start": 10.9315,
      "duration": 0.014,
      "velocity": 97,
      "chip": "ym2612"
    },
    {
      "channel": 3,
      "note": 92,
      "start": 10.9326,
      "duration": 0.0139,
      "velocity": 97,
      "chip": "ym2612"
    },
    {
      "channel": 2,
      "note": 52,
      "start": 10.9337,
      "duration": 0.014,
      "velocity": 100,
      "chip": "ym2612"
    },
    {
      "channel": 0,
      "note": 38,
      "start": 10.9441,
      "duration": 0.016,
      "velocity": 115,
      "chip": "ym2612"
    },
    {
      "channel": 4,
      "note": 92,
      "start": 10.9455,
      "duration": 0.0185,
      "velocity": 97,
      "chip": "ym2612"
    },
    {
      "channel": 3,
      "note": 92,
      "start": 10.9466,
      "duration": 0.0188,
      "velocity": 97,
      "chip": "ym2612"
    },
    {
      "channel": 2,
      "note": 52,
      "start": 10.9477,
      "duration": 0.0188,
      "velocity": 100,
      "chip": "ym2612"
    },
    {
      "channel": 0,
      "note": 39,
      "start": 10.96,
      "duration": 0.0162,
      "velocity": 115,
      "chip": "ym2612"
    },
    {
      "channel": 4,
      "note": 92,
      "start": 10.964,
      "duration": 0.0161,
      "velocity": 97,
      "chip": "ym2612"
    },
    {
      "channel": 3,
      "note": 92,
      "start": 10.9654,
      "duration": 0.0159,
      "velocity": 97,
      "chip": "ym2612"
    },
    {
      "channel": 2,
      "note": 52,
      "start": 10.9665,
      "duration": 0.0159,
      "velocity": 100,
      "chip": "ym2612"
    },
    {
      "channel": 0,
      "note": 39,
      "start": 10.9762,
      "duration": 0.0161,
      "velocity": 115,
      "chip": "ym2612"
    },
    {
      "channel": 4,
      "note": 92,
      "start": 10.9801,
      "duration": 0.0134,
      "velocity": 97,
      "chip": "ym2612"
    },
    {
      "channel": 3,
      "note": 92,
      "start": 10.9813,
      "duration": 0.0156,
      "velocity": 97,
      "chip": "ym2612"
    },
    {
      "channel": 2,
      "note": 52,
      "start": 10.9824,
      "duration": 0.0157,
      "velocity": 100,
      "chip": "ym2612"
    },
    {
      "channel": 0,
      "note": 40,
      "start": 10.9923,
      "duration": 0.0161,
      "velocity": 115,
      "chip": "ym2612"
    },
    {
      "channel": 4,
      "note": 92,
      "start": 10.9934,
      "duration": 0.0163,
      "velocity": 97,
      "chip": "ym2612"
    },
    {
      "channel": 3,
      "note": 92,
      "start": 10.9969,
      "duration": 0.0143,
      "velocity": 97,
      "chip": "ym2612"
    },
    {
      "channel": 2,
      "note": 52,
      "start": 10.9981,
      "duration": 0.0143,
      "velocity": 100,
      "chip": "ym2612"
    },
    {
      "channel": 0,
      "note": 40,
      "start": 11.0084,
      "duration": 0.0161,
      "velocity": 115,
      "chip": "ym2612"
    },
    {
      "channel": 4,
      "note": 92,
      "start": 11.0098,
      "duration": 0.0159,
      "velocity": 97,
      "chip": "ym2612"
    },
    {
      "channel": 3,
      "note": 92,
      "start": 11.0112,
      "duration": 0.0156,
      "velocity": 97,
      "chip": "ym2612"
    },
    {
      "channel": 2,
      "note": 52,
      "start": 11.0124,
      "duration": 0.0183,
      "velocity": 100,
      "chip": "ym2612"
    },
    {
      "channel": 0,
      "note": 40,
      "start": 11.0245,
      "duration": 0.0161,
      "velocity": 115,
      "chip": "ym2612"
    },
    {
      "channel": 4,
      "note": 92,
      "start": 11.0257,
      "duration": 0.016,
      "velocity": 97,
      "chip": "ym2612"
    },
    {
      "channel": 3,
      "note": 92,
      "start": 11.0268,
      "duration": 0.016,
      "velocity": 97,
      "chip": "ym2612"
    },
    {
      "channel": 2,
      "note": 52,
      "start": 11.0307,
      "duration": 0.016,
      "velocity": 100,
      "chip": "ym2612"
    },
    {
      "channel": 0,
      "note": 41,
      "start": 11.0406,
      "duration": 0.0161,
      "velocity": 115,
      "chip": "ym2612"
    },
    {
      "channel": 4,
      "note": 92,
      "start": 11.0417,
      "duration": 0.0161,
      "velocity": 97,
      "chip": "ym2612"
    },
    {
      "channel": 3,
      "note": 92,
      "start": 11.0429,
      "duration": 0.0163,
      "velocity": 97,
      "chip": "ym2612"
    },
    {
      "channel": 2,
      "note": 52,
      "start": 11.0468,
      "duration": 0.0162,
      "velocity": 100,
      "chip": "ym2612"
    },
    {
      "channel": 0,
      "note": 41,
      "start": 11.0567,
      "duration": 0.0161,
      "velocity": 115,
      "chip": "ym2612"
    },
    {
      "channel": 4,
      "note": 92,
      "start": 11.0578,
      "duration": 0.0161,
      "velocity": 97,
      "chip": "ym2612"
    },
    {
      "channel": 3,
      "note": 88,
      "start": 11.0592,
      "duration": 0.0159,
      "velocity": 97,
      "chip": "ym2612"
    },
    {
      "channel": 2,
      "note": 52,
      "start": 11.063,
      "duration": 0.0133,
      "velocity": 100,
      "chip": "ym2612"
    },
    {
      "channel": 0,
      "note": 42,
      "start": 11.0728,
      "duration": 0.0161,
      "velocity": 115,
      "chip": "ym2612"
    },
    {
      "channel": 4,
      "note": 92,
      "start": 11.0739,
      "duration": 0.0161,
      "velocity": 97,
      "chip": "ym2612"
    },
    {
      "channel": 3,
      "note": 88,
      "start": 11.0751,
      "duration": 0.016,
      "velocity": 97,
      "chip": "ym2612"
    },
    {
      "channel": 2,
      "note": 52,
      "start": 11.0763,
      "duration": 0.016,
      "velocity": 100,
      "chip": "ym2612"
    },
    {
      "channel": 0,
      "note": 42,
      "start": 11.0889,
      "duration": 0.0161,
      "velocity": 115,
      "chip": "ym2612"
    },
    {
      "channel": 4,
      "note": 92,
      "start": 11.09,
      "duration": 0.0163,
      "velocity": 97,
      "chip": "ym2612"
    },
    {
      "channel": 3,
      "note": 88,
      "start": 11.0912,
      "duration": 0.0163,
      "velocity": 97,
      "chip": "ym2612"
    },
    {
      "channel": 2,
      "note": 52,
      "start": 11.0923,
      "duration": 0.0163,
      "velocity": 100,
      "chip": "ym2612"
    },
    {
      "channel": 0,
      "note": 43,
      "start": 11.105,
      "duration": 0.0161,
      "velocity": 115,
      "chip": "ym2612"
    },
    {
      "channel": 4,
      "note": 88,
      "start": 11.1064,
      "duration": 0.0159,
      "velocity": 97,
      "chip": "ym2612"
    },
    {
      "channel": 3,
      "note": 88,
      "start": 11.1075,
      "duration": 0.0159,
      "velocity": 97,
      "chip": "ym2612"
    },
    {
      "channel": 2,
      "note": 52,
      "start": 11.1086,
      "duration": 0.0159,
      "velocity": 100,
      "chip": "ym2612"
    },
    {
      "channel": 0,
      "note": 43,
      "start": 11.1211,
      "duration": 0.0161,
      "velocity": 115,
      "chip": "ym2612"
    },
    {
      "channel": 4,
      "note": 88,
      "start": 11.1223,
      "duration": 0.016,
      "velocity": 97,
      "chip": "ym2612"
    },
    {
      "channel": 3,
      "note": 88,
      "start": 11.1234,
      "duration": 0.0161,
      "velocity": 97,
      "chip": "ym2612"
    },
    {
      "channel": 2,
      "note": 52,
      "start": 11.1246,
      "duration": 0.016,
      "velocity": 100,
      "chip": "ym2612"
    },
    {
      "channel": 0,
      "note": 44,
      "start": 11.1372,
      "duration": 0.0161,
      "velocity": 115,
      "chip": "ym2612"
    },
    {
      "channel": 4,
      "note": 88,
      "start": 11.1384,
      "duration": 0.0161,
      "velocity": 97,
      "chip": "ym2612"
    },
    {
      "channel": 3,
      "note": 88,
      "start": 11.1395,
      "duration": 0.0162,
      "velocity": 97,
      "chip": "ym2612"
    },
    {
      "channel": 2,
      "note": 52,
      "start": 11.1406,
      "duration": 0.0162,
      "velocity": 100,
      "chip": "ym2612"
    },
    {
      "channel": 0,
      "note": 44,
      "start": 11.1533,
      "duration": 0.0161,
      "velocity": 115,
      "chip": "ym2612"
    },
    {
      "channel": 4,
      "note": 88,
      "start": 11.1544,
      "duration": 0.0161,
      "velocity": 97,
      "chip": "ym2612"
    },
    {
      "channel": 3,
      "note": 88,
      "start": 11.1557,
      "duration": 0.016,
      "velocity": 97,
      "chip": "ym2612"
    },
    {
      "channel": 2,
      "note": 52,
      "start": 11.1568,
      "duration": 0.0161,
      "velocity": 100,
      "chip": "ym2612"
    },
    {
      "channel": 0,
      "note": 44,
      "start": 11.1694,
      "duration": 0.0161,
      "velocity": 115,
      "chip": "ym2612"
    },
    {
      "channel": 4,
      "note": 88,
      "start": 11.1705,
      "duration": 0.0161,
      "velocity": 97,
      "chip": "ym2612"
    },
    {
      "channel": 3,
      "note": 88,
      "start": 11.1717,
      "duration": 0.016,
      "velocity": 97,
      "chip": "ym2612"
    },
    {
      "channel": 2,
      "note": 52,
      "start": 11.1729,
      "duration": 0.016,
      "velocity": 100,
      "chip": "ym2612"
    },
    {
      "channel": 0,
      "note": 45,
      "start": 11.1855,
      "duration": 0.0161,
      "velocity": 115,
      "chip": "ym2612"
    },
    {
      "channel": 4,
      "note": 88,
      "start": 11.1866,
      "duration": 0.0162,
      "velocity": 97,
      "chip": "ym2612"
    },
    {
      "channel": 3,
      "note": 88,
      "start": 11.1878,
      "duration": 0.0162,
      "velocity": 97,
      "chip": "ym2612"
    },
    {
      "channel": 2,
      "note": 52,
      "start": 11.1889,
      "duration": 0.0161,
      "velocity": 100,
      "chip": "ym2612"
    },
    {
      "channel": 0,
      "note": 45,
      "start": 11.2016,
      "duration": 0.0161,
      "velocity": 115,
      "chip": "ym2612"
    },
    {
      "channel": 4,
      "note": 88,
      "start": 11.2029,
      "duration": 0.016,
      "velocity": 97,
      "chip": "ym2612"
    },
    {
      "channel": 3,
      "note": 88,
      "start": 11.204,
      "duration": 0.016,
      "velocity": 97,
      "chip": "ym2612"
    },
    {
      "channel": 2,
      "note": 52,
      "start": 11.2051,
      "duration": 0.016,
      "velocity": 100,
      "chip": "ym2612"
    },
    {
      "channel": 0,
      "note": 46,
      "start": 11.2177,
      "duration": 0.0161,
      "velocity": 115,
      "chip": "ym2612"
    },
    {
      "channel": 4,
      "note": 88,
      "start": 11.2189,
      "duration": 0.016,
      "velocity": 97,
      "chip": "ym2612"
    },
    {
      "channel": 3,
      "note": 88,
      "start": 11.22,
      "duration": 0.016,
      "velocity": 97,
      "chip": "ym2612"
    },
    {
      "channel": 2,
      "note": 52,
      "start": 11.2211,
      "duration": 0.0161,
      "velocity": 100,
      "chip": "ym2612"
    },
    {
      "channel": 0,
      "note": 46,
      "start": 11.2338,
      "duration": 0.0179,
      "velocity": 124,
      "chip": "ym2612"
    },
    {
      "channel": 4,
      "note": 88,
      "start": 11.2349,
      "duration": 0.0179,
      "velocity": 97,
      "chip": "ym2612"
    },
    {
      "channel": 3,
      "note": 88,
      "start": 11.2361,
      "duration": 0.0181,
      "velocity": 97,
      "chip": "ym2612"
    },
    {
      "channel": 2,
      "note": 52,
      "start": 11.2372,
      "duration": 0.0185,
      "velocity": 100,
      "chip": "ym2612"
    },
    {
      "channel": 0,
      "note": 84,
      "start": 11.2517,
      "duration": 0.0144,
      "velocity": 124,
      "chip": "ym2612"
    },
    {
      "channel": 4,
      "note": 88,
      "start": 11.2529,
      "duration": 0.0144,
      "velocity": 97,
      "chip": "ym2612"
    },
    {
      "channel": 3,
      "note": 92,
      "start": 11.2543,
      "duration": 0.0141,
      "velocity": 97,
      "chip": "ym2612"
    },
    {
      "channel": 2,
      "note": 52,
      "start": 11.2557,
      "duration": 0.0139,
      "velocity": 100,
      "chip": "ym2612"
    },
    {
      "channel": 0,
      "note": 82,
      "start": 11.2661,
      "duration": 0.016,
      "velocity": 124,
      "chip": "ym2612"
    },
    {
      "channel": 4,
      "note": 88,
      "start": 11.2672,
      "duration": 0.016,
      "velocity": 97,
      "chip": "ym2612"
    },
    {
      "channel": 3,
      "note": 92,
      "start": 11.2684,
      "duration": 0.016,
      "velocity": 97,
      "chip": "ym2612"
    },
    {
      "channel": 2,
      "note": 52,
      "start": 11.2696,
      "duration": 0.0159,
      "velocity": 100,
      "chip": "ym2612"
    },
    {
      "channel": 0,
      "note": 80,
      "start": 11.2821,
      "duration": 0.0166,
      "velocity": 124,
      "chip": "ym2612"
    },
    {
      "channel": 4,
      "note": 88,
      "start": 11.2833,
      "duration": 0.0168,
      "velocity": 97,
      "chip": "ym2612"
    },
    {
      "channel": 3,
      "note": 92,
      "start": 11.2844,
      "duration": 0.0168,
      "velocity": 97,
      "chip": "ym2612"
    },
    {
      "channel": 2,
      "note": 52,
      "start": 11.2855,
      "duration": 0.0169,
      "velocity": 100,
      "chip": "ym2612"
    },
    {
      "channel": 0,
      "note": 77,
      "start": 11.2987,
      "duration": 0.0167,
      "velocity": 124,
      "chip": "ym2612"
    },
    {
      "channel": 4,
      "note": 92,
      "start": 11.3001,
      "duration": 0.0165,
      "velocity": 97,
      "chip": "ym2612"
    },
    {
      "channel": 3,
      "note": 92,
      "start": 11.3013,
      "duration": 0.0165,
      "velocity": 97,
      "chip": "ym2612"
    },
    {
      "channel": 2,
      "note": 52,
      "start": 11.3024,
      "duration": 0.0165,
      "velocity": 100,
      "chip": "ym2612"
    },
    {
      "channel": 0,
      "note": 75,
      "start": 11.3154,
      "duration": 0.0163,
      "velocity": 124,
      "chip": "ym2612"
    },
    {
      "channel": 4,
      "note": 92,
      "start": 11.3166,
      "duration": 0.0162,
      "velocity": 97,
      "chip": "ym2612"
    },
    {
      "channel": 3,
      "note": 92,
      "start": 11.3178,
      "duration": 0.0162,
      "velocity": 97,
      "chip": "ym2612"
    },
    {
      "channel": 2,
      "note": 52,
      "start": 11.3188,
      "duration": 0.0163,
      "velocity": 100,
      "chip": "ym2612"
    },
    {
      "channel": 0,
      "note": 72,
      "start": 11.3317,
      "duration": 0.0148,
      "velocity": 124,
      "chip": "ym2612"
    },
    {
      "channel": 4,
      "note": 92,
      "start": 11.3328,
      "duration": 0.0148,
      "velocity": 97,
      "chip": "ym2612"
    },
    {
      "channel": 3,
      "note": 92,
      "start": 11.334,
      "duration": 0.0151,
      "velocity": 97,
      "chip": "ym2612"
    },
    {
      "channel": 2,
      "note": 52,
      "start": 11.3351,
      "duration": 0.0151,
      "velocity": 100,
      "chip": "ym2612"
    },
    {
      "channel": 0,
      "note": 70,
      "start": 11.3465,
      "duration": 0.0188,
      "velocity": 124,
      "chip": "ym2612"
    },
    {
      "channel": 4,
      "note": 92,
      "start": 11.3476,
      "duration": 0.0188,
      "velocity": 97,
      "chip": "ym2612"
    },
    {
      "channel": 3,
      "note": 88,
      "start": 11.349,
      "duration": 0.0186,
      "velocity": 97,
      "chip": "ym2612"
    },
    {
      "channel": 2,
      "note": 52,
      "start": 11.3502,
      "duration": 0.0186,
      "velocity": 100,
      "chip": "ym2612"
    },
    {
      "channel": 0,
      "note": 68,
      "start": 11.3653,
      "duration": 0.0162,
      "velocity": 124,
      "chip": "ym2612"
    },
    {
      "channel": 4,
      "note": 92,
      "start": 11.3665,
      "duration": 0.0161,
      "velocity": 97,
      "chip": "ym2612"
    },
    {
      "channel": 3,
      "note": 88,
      "start": 11.3677,
      "duration": 0.0161,
      "velocity": 97,
      "chip": "ym2612"
    },
    {
      "channel": 2,
      "note": 52,
      "start": 11.3688,
      "duration": 0.016,
      "velocity": 100,
      "chip": "ym2612"
    },
    {
      "channel": 0,
      "note": 65,
      "start": 11.3815,
      "duration": 0.0157,
      "velocity": 124,
      "chip": "ym2612"
    },
    {
      "channel": 4,
      "note": 92,
      "start": 11.3826,
      "duration": 0.0159,
      "velocity": 97,
      "chip": "ym2612"
    },
    {
      "channel": 3,
      "note": 88,
      "start": 11.3838,
      "duration": 0.016,
      "velocity": 97,
      "chip": "ym2612"
    },
    {
      "channel": 2,
      "note": 52,
      "start": 11.3849,
      "duration": 0.016,
      "velocity": 100,
      "chip": "ym2612"
    },
    {
      "channel": 0,
      "note": 63,
      "start": 11.3972,
      "duration": 0.0129,
      "velocity": 1,
      "chip": "ym2612"
    },
    {
      "channel": 4,
      "note": 88,
      "start": 11.3986,
      "duration": 0.013,
      "velocity": 97,
      "chip": "ym2612"
    },
    {
      "channel": 3,
      "note": 88,
      "start": 11.3998,
      "duration": 0.013,
      "velocity": 97,
      "chip": "ym2612"
    },
    {
      "channel": 2,
      "note": 52,
      "start": 11.4008,
      "duration": 0.0131,
      "velocity": 100,
      "chip": "ym2612"
    },
    {
      "channel": 4,
      "note": 88,
      "start": 11.4116,
      "duration": 0.0149,
      "velocity": 97,
      "chip": "ym2612"
    },
    {
      "channel": 3,
      "note": 88,
      "start": 11.4128,
      "duration": 0.0176,
      "velocity": 97,
      "chip": "ym2612"
    },
    {
      "channel": 2,
      "note": 52,
      "start": 11.4139,
      "duration": 0.0176,
      "velocity": 100,
      "chip": "ym2612"
    },
    {
      "channel": 4,
      "note": 88,
      "start": 11.4265,
      "duration": 0.0223,
      "velocity": 97,
      "chip": "ym2612"
    },
    {
      "channel": 3,
      "note": 88,
      "start": 11.4304,
      "duration": 0.0197,
      "velocity": 97,
      "chip": "ym2612"
    },
    {
      "channel": 2,
      "note": 52,
      "start": 11.4315,
      "duration": 0.02,
      "velocity": 100,
      "chip": "ym2612"
    },
    {
      "channel": 0,
      "note": 36,
      "start": 11.4476,
      "duration": 0.0117,
      "velocity": 115,
      "chip": "ym2612"
    },
    {
      "channel": 4,
      "note": 88,
      "start": 11.4488,
      "duration": 0.0116,
      "velocity": 97,
      "chip": "ym2612"
    },
    {
      "channel": 3,
      "note": 85,
      "start": 11.4502,
      "duration": 0.0138,
      "velocity": 97,
      "chip": "ym2612"
    },
    {
      "channel": 2,
      "note": 52,
      "start": 11.4517,
      "duration": 0.0135,
      "velocity": 100,
      "chip": "ym2612"
    },
    {
      "channel": 0,
      "note": 36,
      "start": 11.4593,
      "duration": 0.016,
      "velocity": 115,
      "chip": "ym2612"
    },
    {
      "channel": 4,
      "note": 88,
      "start": 11.4604,
      "duration": 0.016,
      "velocity": 97,
      "chip": "ym2612"
    },
    {
      "channel": 3,
      "note": 85,
      "start": 11.464,
      "duration": 0.0139,
      "velocity": 97,
      "chip": "ym2612"
    },
    {
      "channel": 2,
      "note": 52,
      "start": 11.4652,
      "duration": 0.0139,
      "velocity": 100,
      "chip": "ym2612"
    },
    {
      "channel": 0,
      "note": 37,
      "start": 11.4753,
      "duration": 0.0161,
      "velocity": 115,
      "chip": "ym2612"
    },
    {
      "channel": 4,
      "note": 88,
      "start": 11.4765,
      "duration": 0.0163,
      "velocity": 97,
      "chip": "ym2612"
    },
    {
      "channel": 3,
      "note": 85,
      "start": 11.4779,
      "duration": 0.0188,
      "velocity": 97,
      "chip": "ym2612"
    },
    {
      "channel": 2,
      "note": 52,
      "start": 11.4791,
      "duration": 0.0188,
      "velocity": 100,
      "chip": "ym2612"
    },
    {
      "channel": 0,
      "note": 37,
      "start": 11.4914,
      "duration": 0.0161,
      "velocity": 115,
      "chip": "ym2612"
    },
    {
      "channel": 4,
      "note": 85,
      "start": 11.4928,
      "duration": 0.0159,
      "velocity": 97,
      "chip": "ym2612"
    },
    {
      "channel": 3,
      "note": 85,
      "start": 11.4967,
      "duration": 0.0132,
      "velocity": 97,
      "chip": "ym2612"
    },
    {
      "channel": 2,
      "note": 52,
      "start": 11.4978,
      "duration": 0.0159,
      "velocity": 100,
      "chip": "ym2612"
    },
    {
      "channel": 0,
      "note": 38,
      "start": 11.5075,
      "duration": 0.0161,
      "velocity": 115,
      "chip": "ym2612"
    },
    {
      "channel": 4,
      "note": 85,
      "start": 11.5087,
      "duration": 0.016,
      "velocity": 97,
      "chip": "ym2612"
    },
    {
      "channel": 3,
      "note": 85,
      "start": 11.5099,
      "duration": 0.016,
      "velocity": 97,
      "chip": "ym2612"
    },
    {
      "channel": 2,
      "note": 52,
      "start": 11.5137,
      "duration": 0.0133,
      "velocity": 100,
      "chip": "ym2612"
    },
    {
      "channel": 0,
      "note": 38,
      "start": 11.5236,
      "duration": 0.0161,
      "velocity": 115,
      "chip": "ym2612"
    },
    {
      "channel": 4,
      "note": 85,
      "start": 11.5247,
      "duration": 0.0161,
      "velocity": 97,
      "chip": "ym2612"
    },
    {
      "channel": 3,
      "note": 85,
      "start": 11.5259,
      "duration": 0.0162,
      "velocity": 97,
      "chip": "ym2612"
    },
    {
      "channel": 2,
      "note": 52,
      "start": 11.527,
      "duration": 0.0162,
      "velocity": 100,
      "chip": "ym2612"
    },
    {
      "channel": 0,
      "note": 39,
      "start": 11.5397,
      "duration": 0.0162,
      "velocity": 115,
      "chip": "ym2612"
    },
    {
      "channel": 4,
      "note": 85,
      "start": 11.5408,
      "duration": 0.0162,
      "velocity": 97,
      "chip": "ym2612"
    },
    {
      "channel": 3,
      "note": 85,
      "start": 11.5421,
      "duration": 0.016,
      "velocity": 97,
      "chip": "ym2612"
    },
    {
      "channel": 2,
      "note": 52,
      "start": 11.5433,
      "duration": 0.016,
      "velocity": 100,
      "chip": "ym2612"
    },
    {
      "channel": 0,
      "note": 39,
      "start": 11.5559,
      "duration": 0.0161,
      "velocity": 115,
      "chip": "ym2612"
    },
    {
      "channel": 4,
      "note": 85,
      "start": 11.557,
      "duration": 0.0161,
      "velocity": 97,
      "chip": "ym2612"
    },
    {
      "channel": 3,
      "note": 85,
      "start": 11.5581,
      "duration": 0.0161,
      "velocity": 97,
      "chip": "ym2612"
    },
    {
      "channel": 2,
      "note": 52,
      "start": 11.5593,
      "duration": 0.016,
      "velocity": 100,
      "chip": "ym2612"
    },
    {
      "channel": 0,
      "note": 40,
      "start": 11.572,
      "duration": 0.0161,
      "velocity": 115,
      "chip": "ym2612"
    },
    {
      "channel": 4,
      "note": 85,
      "start": 11.5731,
      "duration": 0.0162,
      "velocity": 97,
      "chip": "ym2612"
    },
    {
      "channel": 3,
      "note": 85,
      "start": 11.5742,
      "duration": 0.0161,
      "velocity": 97,
      "chip": "ym2612"
    },
    {
      "channel": 2,
      "note": 52,
      "start": 11.5753,
      "duration": 0.0162,
      "velocity": 100,
      "chip": "ym2612"
    },
    {
      "channel": 0,
      "note": 40,
      "start": 11.588,
      "duration": 0.0161,
      "velocity": 115,
      "chip": "ym2612"
    },
    {
      "channel": 4,
      "note": 85,
      "start": 11.5893,
      "duration": 0.016,
      "velocity": 97,
      "chip": "ym2612"
    },
    {
      "channel": 3,
      "note": 85,
      "start": 11.5904,
      "duration": 0.0161,
      "velocity": 97,
      "chip": "ym2612"
    },
    {
      "channel": 2,
      "note": 52,
      "start": 11.5915,
      "duration": 0.016,
      "velocity": 100,
      "chip": "ym2612"
    },
    {
      "channel": 0,
      "note": 40,
      "start": 11.6041,
      "duration": 0.0161,
      "velocity": 115,
      "chip": "ym2612"
    },
    {
      "channel": 4,
      "note": 85,
      "start": 11.6054,
      "duration": 0.016,
      "velocity": 97,
      "chip": "ym2612"
    },
    {
      "channel": 3,
      "note": 85,
      "start": 11.6065,
      "duration": 0.016,
      "velocity": 97,
      "chip": "ym2612"
    },
    {
      "channel": 2,
      "note": 52,
      "start": 11.6076,
      "duration": 0.016,
      "velocity": 100,
      "chip": "ym2612"
    },
    {
      "channel": 0,
      "note": 41,
      "start": 11.6202,
      "duration": 0.0179,
      "velocity": 115,
      "chip": "ym2612"
    },
    {
      "channel": 4,
      "note": 85,
      "start": 11.6214,
      "duration": 0.0179,
      "velocity": 97,
      "chip": "ym2612"
    },
    {
      "channel": 3,
      "note": 85,
      "start": 11.6225,
      "duration": 0.0181,
      "velocity": 97,
      "chip": "ym2612"
    },
    {
      "channel": 2,
      "note": 52,
      "start": 11.6236,
      "duration": 0.0184,
      "velocity": 100,
      "chip": "ym2612"
    },
    {
      "channel": 0,
      "note": 36,
      "start": 11.6381,
      "duration": 0.0144,
      "velocity": 115,
      "chip": "ym2612"
    },
    {
      "channel": 4,
      "note": 85,
      "start": 11.6393,
      "duration": 0.0144,
      "velocity": 97,
      "chip": "ym2612"
    },
    {
      "channel": 3,
      "note": 90,
      "start": 11.6407,
      "duration": 0.0142,
      "velocity": 97,
      "chip": "ym2612"
    },
    {
      "channel": 2,
      "note": 52,
      "start": 11.6421,
      "duration": 0.0139,
      "velocity": 100,
      "chip": "ym2612"
    },
    {
      "channel": 0,
      "note": 36,
      "start": 11.6525,
      "duration": 0.016,
      "velocity": 115,
      "chip": "ym2612"
    },
    {
      "channel": 4,
      "note": 85,
      "start": 11.6536,
      "duration": 0.016,
      "velocity": 97,
      "chip": "ym2612"
    },
    {
      "channel": 3,
      "note": 90,
      "start": 11.6548,
      "duration": 0.016,
      "velocity": 97,
      "chip": "ym2612"
    },
    {
      "channel": 2,
      "note": 52,
      "start": 11.656,
      "duration": 0.016,
      "velocity": 100,
      "chip": "ym2612"
    },
    {
      "channel": 0,
      "note": 37,
      "start": 11.6685,
      "duration": 0.0161,
      "velocity": 115,
      "chip": "ym2612"
    },
    {
      "channel": 4,
      "note": 85,
      "start": 11.6697,
      "duration": 0.0163,
      "velocity": 97,
      "chip": "ym2612"
    },
    {
      "channel": 3,
      "note": 90,
      "start": 11.6708,
      "duration": 0.0163,
      "velocity": 97,
      "chip": "ym2612"
    },
    {
      "channel": 2,
      "note": 52,
      "start": 11.672,
      "duration": 0.0163,
      "velocity": 100,
      "chip": "ym2612"
    },
    {
      "channel": 0,
      "note": 37,
      "start": 11.6846,
      "duration": 0.0162,
      "velocity": 115,
      "chip": "ym2612"
    },
    {
      "channel": 4,
      "note": 90,
      "start": 11.6861,
      "duration": 0.0159,
      "velocity": 97,
      "chip": "ym2612"
    },
    {
      "channel": 3,
      "note": 90,
      "start": 11.6871,
      "duration": 0.0159,
      "velocity": 97,
      "chip": "ym2612"
    },
    {
      "channel": 2,
      "note": 52,
      "start": 11.6883,
      "duration": 0.0159,
      "velocity": 100,
      "chip": "ym2612"
    },
    {
      "channel": 0,
      "note": 38,
      "start": 11.7008,
      "duration": 0.0161,
      "velocity": 115,
      "chip": "ym2612"
    },
    {
      "channel": 4,
      "note": 90,
      "start": 11.702,
      "duration": 0.016,
      "velocity": 97,
      "chip": "ym2612"
    },
    {
      "channel": 3,
      "note": 90,
      "start": 11.7031,
      "duration": 0.0161,
      "velocity": 97,
      "chip": "ym2612"
    },
    {
      "channel": 2,
      "note": 52,
      "start": 11.7042,
      "duration": 0.016,
      "velocity": 100,
      "chip": "ym2612"
    },
    {
      "channel": 0,
      "note": 38,
      "start": 11.7168,
      "duration": 0.0161,
      "velocity": 115,
      "chip": "ym2612"
    },
    {
      "channel": 4,
      "note": 90,
      "start": 11.718,
      "duration": 0.0161,
      "velocity": 97,
      "chip": "ym2612"
    },
    {
      "channel": 3,
      "note": 90,
      "start": 11.7191,
      "duration": 0.0163,
      "velocity": 97,
      "chip": "ym2612"
    },
    {
      "channel": 2,
      "note": 52,
      "start": 11.7202,
      "duration": 0.0164,
      "velocity": 100,
      "chip": "ym2612"
    },
    {
      "channel": 0,
      "note": 39,
      "start": 11.7329,
      "duration": 0.0161,
      "velocity": 115,
      "chip": "ym2612"
    },
    {
      "channel": 4,
      "note": 90,
      "start": 11.7341,
      "duration": 0.0161,
      "velocity": 97,
      "chip": "ym2612"
    },
    {
      "channel": 3,
      "note": 86,
      "start": 11.7355,
      "duration": 0.0159,
      "velocity": 97,
      "chip": "ym2612"
    },
    {
      "channel": 2,
      "note": 52,
      "start": 11.7366,
      "duration": 0.0159,
      "velocity": 100,
      "chip": "ym2612"
    },
    {
      "channel": 0,
      "note": 39,
      "start": 11.749,
      "duration": 0.0163,
      "velocity": 115,
      "chip": "ym2612"
    },
    {
      "channel": 4,
      "note": 90,
      "start": 11.7502,
      "duration": 0.0163,
      "velocity": 97,
      "chip": "ym2612"
    },
    {
      "channel": 3,
      "note": 86,
      "start": 11.7514,
      "duration": 0.0163,
      "velocity": 97,
      "chip": "ym2612"
    },
    {
      "channel": 2,
      "note": 52,
      "start": 11.7525,
      "duration": 0.0162,
      "velocity": 100,
      "chip": "ym2612"
    },
    {
      "channel": 0,
      "note": 40,
      "start": 11.7654,
      "duration": 0.0167,
      "velocity": 115,
      "chip": "ym2612"
    },
    {
      "channel": 4,
      "note": 90,
      "start": 11.7665,
      "duration": 0.0169,
      "velocity": 97,
      "chip": "ym2612"
    },
    {
      "channel": 3,
      "note": 86,
      "start": 11.7677,
      "duration": 0.0169,
      "velocity": 97,
      "chip": "ym2612"
    },
    {
      "channel": 2,
      "note": 52,
      "start": 11.7688,
      "duration": 0.0169,
      "velocity": 100,
      "chip": "ym2612"
    },
    {
      "channel": 0,
      "note": 40,
      "start": 11.7821,
      "duration": 0.0163,
      "velocity": 115,
      "chip": "ym2612"
    },
    {
      "channel": 4,
      "note": 86,
      "start": 11.7835,
      "duration": 0.0161,
      "velocity": 97,
      "chip": "ym2612"
    },
    {
      "channel": 3,
      "note": 86,
      "start": 11.7846,
      "duration": 0.0161,
      "velocity": 97,
      "chip": "ym2612"
    },
    {
      "channel": 2,
      "note": 52,
      "start": 11.7857,
      "duration": 0.0161,
      "velocity": 100,
      "chip": "ym2612"
    },
    {
      "channel": 0,
      "note": 40,
      "start": 11.7983,
      "duration": 0.0151,
      "velocity": 115,
      "chip": "ym2612"
    },
    {
      "channel": 4,
      "note": 86,
      "start": 11.7995,
      "duration": 0.015,
      "velocity": 97,
      "chip": "ym2612"
    },
    {
      "channel": 3,
      "note": 86,
      "start": 11.8007,
      "duration": 0.015,
      "velocity": 97,
      "chip": "ym2612"
    },
    {
      "channel": 2,
      "note": 52,
      "start": 11.8018,
      "duration": 0.015,
      "velocity": 100,
      "chip": "ym2612"
    },
    {
      "channel": 0,
      "note": 41,
      "start": 11.8134,
      "duration": 0.0204,
      "velocity": 115,
      "chip": "ym2612"
    },
    {
      "channel": 4,
      "note": 86,
      "start": 11.8146,
      "duration": 0.0204,
      "velocity": 97,
      "chip": "ym2612"
    },
    {
      "channel": 3,
      "note": 86,
      "start": 11.8157,
      "duration": 0.0206,
      "velocity": 97,
      "chip": "ym2612"
    },
    {
      "channel": 2,
      "note": 52,
      "start": 11.8168,
      "duration": 0.0209,
      "velocity": 100,
      "chip": "ym2612"
    },
    {
      "channel": 0,
      "note": 36,
      "start": 11.8338,
      "duration": 0.0146,
      "velocity": 115,
      "chip": "ym2612"
    },
    {
      "channel": 4,
      "note": 86,
      "start": 11.835,
      "duration": 0.0146,
      "velocity": 97,
      "chip": "ym2612"
    },
    {
      "channel": 3,
      "note": 83,
      "start": 11.8364,
      "duration": 0.0144,
      "velocity": 97,
      "chip": "ym2612"
    },
    {
      "channel": 2,
      "note": 52,
      "start": 11.8378,
      "duration": 0.0141,
      "velocity": 100,
      "chip": "ym2612"
    },
    {
      "channel": 0,
      "note": 36,
      "start": 11.8485,
      "duration": 0.0156,
      "velocity": 115,
      "chip": "ym2612"
    },
    {
      "channel": 4,
      "note": 86,
      "start": 11.8496,
      "duration": 0.0156,
      "velocity": 97,
      "chip": "ym2612"
    },
    {
      "channel": 3,
      "note": 83,
      "start": 11.8508,
      "duration": 0.0156,
      "velocity": 97,
      "chip": "ym2612"
    },
    {
      "channel": 2,
      "note": 52,
      "start": 11.852,
      "duration": 0.0156,
      "velocity": 100,
      "chip": "ym2612"
    },
    {
      "channel": 0,
      "note": 37,
      "start": 11.8641,
      "duration": 0.0141,
      "velocity": 115,
      "chip": "ym2612"
    },
    {
      "channel": 4,
      "note": 86,
      "start": 11.8653,
      "duration": 0.0143,
      "velocity": 97,
      "chip": "ym2612"
    },
    {
      "channel": 3,
      "note": 83,
      "start": 11.8664,
      "duration": 0.0143,
      "velocity": 97,
      "chip": "ym2612"
    },
    {
      "channel": 2,
      "note": 52,
      "start": 11.8676,
      "duration": 0.0143,
      "velocity": 100,
      "chip": "ym2612"
    },
    {
      "channel": 0,
      "note": 37,
      "start": 11.8782,
      "duration": 0.0158,
      "velocity": 115,
      "chip": "ym2612"
    },
    {
      "channel": 4,
      "note": 83,
      "start": 11.8796,
      "duration": 0.0183,
      "velocity": 97,
      "chip": "ym2612"
    },
    {
      "channel": 3,
      "note": 83,
      "start": 11.8807,
      "duration": 0.0183,
      "velocity": 97,
      "chip": "ym2612"
    },
    {
      "channel": 2,
      "note": 52,
      "start": 11.8818,
      "duration": 0.0184,
      "velocity": 100,
      "chip": "ym2612"
    },
    {
      "channel": 0,
      "note": 38,
      "start": 11.8939,
      "duration": 0.0161,
      "velocity": 115,
      "chip": "ym2612"
    },
    {
      "channel": 4,
      "note": 83,
      "start": 11.8979,
      "duration": 0.016,
      "velocity": 97,
      "chip": "ym2612"
    },
    {
      "channel": 3,
      "note": 83,
      "start": 11.899,
      "duration": 0.016,
      "velocity": 97,
      "chip": "ym2612"
    },
    {
      "channel": 2,
      "note": 52,
      "start": 11.9002,
      "duration": 0.016,
      "velocity": 100,
      "chip": "ym2612"
    },
    {
      "channel": 0,
      "note": 38,
      "start": 11.91,
      "duration": 0.0161,
      "velocity": 115,
      "chip": "ym2612"
    },
    {
      "channel": 4,
      "note": 83,
      "start": 11.9139,
      "duration": 0.0157,
      "velocity": 97,
      "chip": "ym2612"
    },
    {
      "channel": 3,
      "note": 83,
      "start": 11.9151,
      "duration": 0.0159,
      "velocity": 97,
      "chip": "ym2612"
    },
    {
      "channel": 2,
      "note": 52,
      "start": 11.9162,
      "duration": 0.0159,
      "velocity": 100,
      "chip": "ym2612"
    },
    {
      "channel": 0,
      "note": 39,
      "start": 11.9261,
      "duration": 0.0161,
      "velocity": 115,
      "chip": "ym2612"
    },
    {
      "channel": 4,
      "note": 83,
      "start": 11.9296,
      "duration": 0.0137,
      "velocity": 97,
      "chip": "ym2612"
    },
    {
      "channel": 3,
      "note": 83,
      "start": 11.931,
      "duration": 0.0139,
      "velocity": 97,
      "chip": "ym2612"
    },
    {
      "channel": 2,
      "note": 52,
      "start": 11.9321,
      "duration": 0.014,
      "velocity": 100,
      "chip": "ym2612"
    },
    {
      "channel": 0,
      "note": 39,
      "start": 11.9422,
      "duration": 0.0161,
      "velocity": 115,
      "chip": "ym2612"
    },
    {
      "channel": 4,
      "note": 83,
      "start": 11.9434,
      "duration": 0.0161,
      "velocity": 97,
      "chip": "ym2612"
    },
    {
      "channel": 3,
      "note": 83,
      "start": 11.9449,
      "duration": 0.0157,
      "velocity": 97,
      "chip": "ym2612"
    },
    {
      "channel": 2,
      "note": 52,
      "start": 11.9461,
      "duration": 0.0185,
      "velocity": 100,
      "chip": "ym2612"
    },
    {
      "channel": 0,
      "note": 40,
      "start": 11.9583,
      "duration": 0.0161,
      "velocity": 115,
      "chip": "ym2612"
    },
    {
      "channel": 4,
      "note": 83,
      "start": 11.9595,
      "duration": 0.0162,
      "velocity": 97,
      "chip": "ym2612"
    },
    {
      "channel": 3,
      "note": 83,
      "start": 11.9606,
      "duration": 0.0162,
      "velocity": 97,
      "chip": "ym2612"
    },
    {
      "channel": 2,
      "note": 52,
      "start": 11.9645,
      "duration": 0.0162,
      "velocity": 100,
      "chip": "ym2612"
    },
    {
      "channel": 0,
      "note": 40,
      "start": 11.9744,
      "duration": 0.0162,
      "velocity": 115,
      "chip": "ym2612"
    },
    {
      "channel": 4,
      "note": 83,
      "start": 11.9757,
      "duration": 0.0161,
      "velocity": 97,
      "chip": "ym2612"
    },
    {
      "channel": 3,
      "note": 83,
      "start": 11.9768,
      "duration": 0.016,
      "velocity": 97,
      "chip": "ym2612"
    },
    {
      "channel": 2,
      "note": 52,
      "start": 11.9807,
      "duration": 0.0156,
      "velocity": 100,
      "chip": "ym2612"
    },
    {
      "channel": 0,
      "note": 40,
      "start": 11.9906,
      "duration": 0.0161,
      "velocity": 115,
      "chip": "ym2612"
    },
    {
      "channel": 4,
      "note": 83,
      "start": 11.9918,
      "duration": 0.016,
      "velocity": 97,
      "chip": "ym2612"
    },
    {
      "channel": 3,
      "note": 83,
      "start": 11.9929,
      "duration": 0.016,
      "velocity": 97,
      "chip": "ym2612"
    },
    {
      "channel": 2,
      "note": 52,
      "start": 11.9964,
      "duration": 0.0137,
      "velocity": 100,
      "chip": "ym2612"
    },
    {
      "channel": 0,
      "note": 41,
      "start": 12.0067,
      "duration": 0.0178,
      "velocity": 124,
      "chip": "ym2612"
    },
    {
      "channel": 4,
      "note": 83,
      "start": 12.0078,
      "duration": 0.0179,
      "velocity": 97,
      "chip": "ym2612"
    },
    {
      "channel": 3,
      "note": 83,
      "start": 12.0089,
      "duration": 0.0181,
      "velocity": 97,
      "chip": "ym2612"
    },
    {
      "channel": 2,
      "note": 52,
      "start": 12.01,
      "duration": 0.0212,
      "velocity": 100,
      "chip": "ym2612"
    },
    {
      "channel": 0,
      "note": 84,
      "start": 12.0246,
      "duration": 0.0144,
      "velocity": 124,
      "chip": "ym2612"
    },
    {
      "channel": 4,
      "note": 83,
      "start": 12.0257,
      "duration": 0.0144,
      "velocity": 97,
      "chip": "ym2612"
    },
    {
      "channel": 3,
      "note": 86,
      "start": 12.0271,
      "duration": 0.0141,
      "velocity": 97,
      "chip": "ym2612"
    },
    {
      "channel": 2,
      "note": 52,
      "start": 12.0313,
      "duration": 0.0111,
      "velocity": 100,
      "chip": "ym2612"
    },
    {
      "channel": 0,
      "note": 82,
      "start": 12.0389,
      "duration": 0.016,
      "velocity": 124,
      "chip": "ym2612"
    },
    {
      "channel": 4,
      "note": 83,
      "start": 12.0401,
      "duration": 0.016,
      "velocity": 97,
      "chip": "ym2612"
    },
    {
      "channel": 3,
      "note": 86,
      "start": 12.0412,
      "duration": 0.016,
      "velocity": 97,
      "chip": "ym2612"
    },
    {
      "channel": 2,
      "note": 52,
      "start": 12.0424,
      "duration": 0.016,
      "velocity": 100,
      "chip": "ym2612"
    },
    {
      "channel": 0,
      "note": 80,
      "start": 12.055,
      "duration": 0.0161,
      "velocity": 124,
      "chip": "ym2612"
    },
    {
      "channel": 4,
      "note": 83,
      "start": 12.0561,
      "duration": 0.0163,
      "velocity": 97,
      "chip": "ym2612"
    },
    {
      "channel": 3,
      "note": 86,
      "start": 12.0573,
      "duration": 0.0163,
      "velocity": 97,
      "chip": "ym2612"
    },
    {
      "channel": 2,
      "note": 52,
      "start": 12.0584,
      "duration": 0.0163,
      "velocity": 100,
      "chip": "ym2612"
    },
    {
      "channel": 0,
      "note": 77,
      "start": 12.071,
      "duration": 0.0161,
      "velocity": 124,
      "chip": "ym2612"
    },
    {
      "channel": 4,
      "note": 86,
      "start": 12.0724,
      "duration": 0.0159,
      "velocity": 97,
      "chip": "ym2612"
    },
    {
      "channel": 3,
      "note": 86,
      "start": 12.0736,
      "duration": 0.0159,
      "velocity": 97,
      "chip": "ym2612"
    },
    {
      "channel": 2,
      "note": 52,
      "start": 12.0747,
      "duration": 0.0159,
      "velocity": 100,
      "chip": "ym2612"
    },
    {
      "channel": 0,
      "note": 75,
      "start": 12.0871,
      "duration": 0.0161,
      "velocity": 124,
      "chip": "ym2612"
    },
    {
      "channel": 4,
      "note": 86,
      "start": 12.0884,
      "duration": 0.016,
      "velocity": 97,
      "chip": "ym2612"
    },
    {
      "channel": 3,
      "note": 86,
      "start": 12.0895,
      "duration": 0.016,
      "velocity": 97,
      "chip": "ym2612"
    },
    {
      "channel": 2,
      "note": 52,
      "start": 12.0907,
      "duration": 0.016,
      "velocity": 100,
      "chip": "ym2612"
    },
    {
      "channel": 0,
      "note": 72,
      "start": 12.1032,
      "duration": 0.0161,
      "velocity": 124,
      "chip": "ym2612"
    },
    {
      "channel": 4,
      "note": 86,
      "start": 12.1044,
      "duration": 0.0161,
      "velocity": 97,
      "chip": "ym2612"
    },
    {
      "channel": 3,
      "note": 86,
      "start": 12.1055,
      "duration": 0.0163,
      "velocity": 97,
      "chip": "ym2612"
    },
    {
      "channel": 2,
      "note": 52,
      "start": 12.1067,
      "duration": 0.0163,
      "velocity": 100,
      "chip": "ym2612"
    },
    {
      "channel": 0,
      "note": 70,
      "start": 12.1193,
      "duration": 0.0161,
      "velocity": 124,
      "chip": "ym2612"
    },
    {
      "channel": 4,
      "note": 86,
      "start": 12.1205,
      "duration": 0.0161,
      "velocity": 97,
      "chip": "ym2612"
    },
    {
      "channel": 3,
      "note": 83,
      "start": 12.1219,
      "duration": 0.0159,
      "velocity": 97,
      "chip": "ym2612"
    },
    {
      "channel": 2,
      "note": 52,
      "start": 12.123,
      "duration": 0.0159,
      "velocity": 100,
      "chip": "ym2612"
    },
    {
      "channel": 0,
      "note": 68,
      "start": 12.1354,
      "duration": 0.0161,
      "velocity": 124,
      "chip": "ym2612"
    },
    {
      "channel": 4,
      "note": 86,
      "start": 12.1366,
      "duration": 0.0162,
      "velocity": 97,
      "chip": "ym2612"
    },
    {
      "channel": 3,
      "note": 83,
      "start": 12.1378,
      "duration": 0.0161,
      "velocity": 97,
      "chip": "ym2612"
    },
    {
      "channel": 2,
      "note": 52,
      "start": 12.1389,
      "duration": 0.016,
      "velocity": 100,
      "chip": "ym2612"
    },
    {
      "channel": 0,
      "note": 65,
      "start": 12.1516,
      "duration": 0.0161,
      "velocity": 124,
      "chip": "ym2612"
    },
    {
      "channel": 4,
      "note": 86,
      "start": 12.1527,
      "duration": 0.0163,
      "velocity": 97,
      "chip": "ym2612"
    },
    {
      "channel": 3,
      "note": 83,
      "start": 12.1539,
      "duration": 0.0163,
      "velocity": 97,
      "chip": "ym2612"
    },
    {
      "channel": 2,
      "note": 52,
      "start": 12.155,
      "duration": 0.0163,
      "velocity": 100,
      "chip": "ym2612"
    },
    {
      "channel": 0,
      "note": 63,
      "start": 12.1677,
      "duration": 0.0153,
      "velocity": 1,
      "chip": "ym2612"
    },
    {
      "channel": 4,
      "note": 83,
      "start": 12.1691,
      "duration": 0.0151,
      "velocity": 97,
      "chip": "ym2612"
    },
    {
      "channel": 3,
      "note": 83,
      "start": 12.1702,
      "duration": 0.0151,
      "velocity": 97,
      "chip": "ym2612"
    },
    {
      "channel": 2,
      "note": 52,
      "start": 12.1713,
      "duration": 0.0151,
      "velocity": 100,
      "chip": "ym2612"
    },
    {
      "channel": 4,
      "note": 83,
      "start": 12.1841,
      "duration": 0.0152,
      "velocity": 97,
      "chip": "ym2612"
    },
    {
      "channel": 3,
      "note": 83,
      "start": 12.1853,
      "duration": 0.0152,
      "velocity": 97,
      "chip": "ym2612"
    },
    {
      "channel": 2,
      "note": 52,
      "start": 12.1864,
      "duration": 0.0151,
      "velocity": 100,
      "chip": "ym2612"
    },
    {
      "channel": 4,
      "note": 83,
      "start": 12.1994,
      "duration": 0.0161,
      "velocity": 97,
      "chip": "ym2612"
    },
    {
      "channel": 3,
      "note": 83,
      "start": 12.2005,
      "duration": 0.0163,
      "velocity": 97,
      "chip": "ym2612"
    },
    {
      "channel": 2,
      "note": 52,
      "start": 12.2016,
      "duration": 0.0167,
      "velocity": 100,
      "chip": "ym2612"
    },
    {
      "channel": 4,
      "note": 83,
      "start": 12.2155,
      "duration": 0.0161,
      "velocity": 97,
      "chip": "ym2612"
    },
    {
      "channel": 3,
      "note": 80,
      "start": 12.2168,
      "duration": 0.0159,
      "velocity": 97,
      "chip": "ym2612"
    },
    {
      "channel": 2,
      "note": 52,
      "start": 12.2183,
      "duration": 0.0156,
      "velocity": 100,
      "chip": "ym2612"
    },
    {
      "channel": 4,
      "note": 83,
      "start": 12.2316,
      "duration": 0.0166,
      "velocity": 97,
      "chip": "ym2612"
    },
    {
      "channel": 3,
      "note": 80,
      "start": 12.2328,
      "duration": 0.0166,
      "velocity": 97,
      "chip": "ym2612"
    },
    {
      "channel": 2,
      "note": 52,
      "start": 12.234,
      "duration": 0.0165,
      "velocity": 100,
      "chip": "ym2612"
    },
    {
      "channel": 4,
      "note": 83,
      "start": 12.2482,
      "duration": 0.0166,
      "velocity": 97,
      "chip": "ym2612"
    },
    {
      "channel": 3,
      "note": 80,
      "start": 12.2494,
      "duration": 0.0165,
      "velocity": 97,
      "chip": "ym2612"
    },
    {
      "channel": 2,
      "note": 52,
      "start": 12.2505,
      "duration": 0.0166,
      "velocity": 100,
      "chip": "ym2612"
    },
    {
      "channel": 4,
      "note": 80,
      "start": 12.2648,
      "duration": 0.0152,
      "velocity": 97,
      "chip": "ym2612"
    },
    {
      "channel": 3,
      "note": 80,
      "start": 12.2659,
      "duration": 0.0152,
      "velocity": 97,
      "chip": "ym2612"
    },
    {
      "channel": 2,
      "note": 52,
      "start": 12.2671,
      "duration": 0.0151,
      "velocity": 100,
      "chip": "ym2612"
    },
    {
      "channel": 4,
      "note": 80,
      "start": 12.28,
      "duration": 0.0183,
      "velocity": 97,
      "chip": "ym2612"
    },
    {
      "channel": 3,
      "note": 80,
      "start": 12.2811,
      "duration": 0.0183,
      "velocity": 97,
      "chip": "ym2612"
    },
    {
      "channel": 2,
      "note": 52,
      "start": 12.2822,
      "duration": 0.0183,
      "velocity": 100,
      "chip": "ym2612"
    },
    {
      "channel": 4,
      "note": 80,
      "start": 12.2982,
      "duration": 0.0166,
      "velocity": 97,
      "chip": "ym2612"
    },
    {
      "channel": 3,
      "note": 80,
      "start": 12.2994,
      "duration": 0.0167,
      "velocity": 97,
      "chip": "ym2612"
    },
    {
      "channel": 2,
      "note": 52,
      "start": 12.3005,
      "duration": 0.0167,
      "velocity": 100,
      "chip": "ym2612"
    },
    {
      "channel": 4,
      "note": 80,
      "start": 12.3148,
      "duration": 0.0158,
      "velocity": 97,
      "chip": "ym2612"
    },
    {
      "channel": 3,
      "note": 80,
      "start": 12.3161,
      "duration": 0.0156,
      "velocity": 97,
      "chip": "ym2612"
    },
    {
      "channel": 2,
      "note": 52,
      "start": 12.3172,
      "duration": 0.0157,
      "velocity": 100,
      "chip": "ym2612"
    },
    {
      "channel": 4,
      "note": 80,
      "start": 12.3306,
      "duration": 0.014,
      "velocity": 97,
      "chip": "ym2612"
    },
    {
      "channel": 3,
      "note": 80,
      "start": 12.3317,
      "duration": 0.014,
      "velocity": 97,
      "chip": "ym2612"
    },
    {
      "channel": 2,
      "note": 52,
      "start": 12.3329,
      "duration": 0.014,
      "velocity": 100,
      "chip": "ym2612"
    },
    {
      "channel": 4,
      "note": 80,
      "start": 12.3446,
      "duration": 0.016,
      "velocity": 97,
      "chip": "ym2612"
    },
    {
      "channel": 3,
      "note": 80,
      "start": 12.3457,
      "duration": 0.0187,
      "velocity": 97,
      "chip": "ym2612"
    },
    {
      "channel": 2,
      "note": 52,
      "start": 12.3469,
      "duration": 0.0187,
      "velocity": 100,
      "chip": "ym2612"
    },
    {
      "channel": 4,
      "note": 80,
      "start": 12.3606,
      "duration": 0.016,
      "velocity": 97,
      "chip": "ym2612"
    },
    {
      "channel": 3,
      "note": 80,
      "start": 12.3644,
      "duration": 0.016,
      "velocity": 97,
      "chip": "ym2612"
    },
    {
      "channel": 2,
      "note": 52,
      "start": 12.3656,
      "duration": 0.016,
      "velocity": 100,
      "chip": "ym2612"
    },
    {
      "channel": 4,
      "note": 80,
      "start": 12.3765,
      "duration": 0.016,
      "velocity": 97,
      "chip": "ym2612"
    },
    {
      "channel": 3,
      "note": 80,
      "start": 12.3804,
      "duration": 0.0133,
      "velocity": 97,
      "chip": "ym2612"
    },
    {
      "channel": 2,
      "note": 52,
      "start": 12.3815,
      "duration": 0.0156,
      "velocity": 100,
      "chip": "ym2612"
    },
    {
      "channel": 4,
      "note": 80,
      "start": 12.3926,
      "duration": 0.0215,
      "velocity": 120,
      "chip": "ym2612"
    },
    {
      "channel": 3,
      "note": 80,
      "start": 12.3937,
      "duration": 0.0232,
      "velocity": 120,
      "chip": "ym2612"
    },
    {
      "channel": 2,
      "note": 52,
      "start": 12.3972,
      "duration": 0.0212,
      "velocity": 100,
      "chip": "ym2612"
    },
    {
      "channel": 0,
      "note": 36,
      "start": 12.4113,
      "duration": 0.014,
      "velocity": 115,
      "chip": "ym2612"
    },
    {
      "channel": 4,
      "note": 57,
      "start": 12.4141,
      "duration": 0.0124,
      "velocity": 120,
      "chip": "ym2612"
    },
    {
      "channel": 3,
      "note": 64,
      "start": 12.417,
      "duration": 0.0135,
      "velocity": 120,
      "chip": "ym2612"
    },
    {
      "channel": 2,
      "note": 45,
      "start": 12.4185,
      "duration": 0.0132,
      "velocity": 100,
      "chip": "ym2612"
    },
    {
      "channel": 0,
      "note": 36,
      "start": 12.4253,
      "duration": 0.0161,
      "velocity": 115,
      "chip": "ym2612"
    },
    {
      "channel": 4,
      "note": 57,
      "start": 12.4265,
      "duration": 0.016,
      "velocity": 120,
      "chip": "ym2612"
    },
    {
      "channel": 3,
      "note": 64,
      "start": 12.4305,
      "duration": 0.0132,
      "velocity": 120,
      "chip": "ym2612"
    },
    {
      "channel": 2,
      "note": 45,
      "start": 12.4317,
      "duration": 0.0159,
      "velocity": 100,
      "chip": "ym2612"
    },
    {
      "channel": 0,
      "note": 37,
      "start": 12.4414,
      "duration": 0.0161,
      "velocity": 115,
      "chip": "ym2612"
    },
    {
      "channel": 4,
      "note": 57,
      "start": 12.4426,
      "duration": 0.0161,
      "velocity": 120,
      "chip": "ym2612"
    },
    {
      "channel": 3,
      "note": 64,
      "start": 12.4437,
      "duration": 0.0161,
      "velocity": 120,
      "chip": "ym2612"
    },
    {
      "channel": 2,
      "note": 45,
      "start": 12.4476,
      "duration": 0.0157,
      "velocity": 100,
      "chip": "ym2612"
    },
    {
      "channel": 0,
      "note": 37,
      "start": 12.4575,
      "duration": 0.0161,
      "velocity": 115,
      "chip": "ym2612"
    },
    {
      "channel": 4,
      "note": 57,
      "start": 12.4586,
      "duration": 0.0161,
      "velocity": 120,
      "chip": "ym2612"
    },
    {
      "channel": 3,
      "note": 64,
      "start": 12.4598,
      "duration": 0.0161,
      "velocity": 120,
      "chip": "ym2612"
    },
    {
      "channel": 2,
      "note": 45,
      "start": 12.4633,
      "duration": 0.0137,
      "velocity": 100,
      "chip": "ym2612"
    },
    {
      "channel": 0,
      "note": 38,
      "start": 12.4736,
      "duration": 0.0161,
      "velocity": 115,
      "chip": "ym2612"
    },
    {
      "channel": 4,
      "note": 57,
      "start": 12.4747,
      "duration": 0.0161,
      "velocity": 120,
      "chip": "ym2612"
    },
    {
      "channel": 3,
      "note": 64,
      "start": 12.4759,
      "duration": 0.0161,
      "velocity": 120,
      "chip": "ym2612"
    },
    {
      "channel": 2,
      "note": 45,
      "start": 12.477,
      "duration": 0.0162,
      "velocity": 100,
      "chip": "ym2612"
    },
    {
      "channel": 0,
      "note": 38,
      "start": 12.4897,
      "duration": 0.0161,
      "velocity": 115,
      "chip": "ym2612"
    },
    {
      "channel": 4,
      "note": 57,
      "start": 12.4908,
      "duration": 0.0161,
      "velocity": 120,
      "chip": "ym2612"
    },
    {
      "channel": 3,
      "note": 64,
      "start": 12.492,
      "duration": 0.0161,
      "velocity": 120,
      "chip": "ym2612"
    },
    {
      "channel": 2,
      "note": 45,
      "start": 12.4931,
      "duration": 0.0161,
      "velocity": 100,
      "chip": "ym2612"
    },
    {
      "channel": 0,
      "note": 39,
      "start": 12.5058,
      "duration": 0.0161,
      "velocity": 115,
      "chip": "ym2612"
    },
    {
      "channel": 4,
      "note": 57,
      "start": 12.5069,
      "duration": 0.0161,
      "velocity": 120,
      "chip": "ym2612"
    },
    {
      "channel": 3,
      "note": 64,
      "start": 12.5081,
      "duration": 0.0161,
      "velocity": 120,
      "chip": "ym2612"
    },
    {
      "channel": 2,
      "note": 45,
      "start": 12.5092,
      "duration": 0.0161,
      "velocity": 100,
      "chip": "ym2612"
    },
    {
      "channel": 0,
      "note": 39,
      "start": 12.5219,
      "duration": 0.0161,
      "velocity": 115,
      "chip": "ym2612"
    },
    {
      "channel": 4,
      "note": 57,
      "start": 12.523,
      "duration": 0.0161,
      "velocity": 120,
      "chip": "ym2612"
    },
    {
      "channel": 3,
      "note": 64,
      "start": 12.5242,
      "duration": 0.0161,
      "velocity": 120,
      "chip": "ym2612"
    },
    {
      "channel": 2,
      "note": 45,
      "start": 12.5253,
      "duration": 0.0161,
      "velocity": 100,
      "chip": "ym2612"
    },
    {
      "channel": 0,
      "note": 40,
      "start": 12.538,
      "duration": 0.0161,
      "velocity": 115,
      "chip": "ym2612"
    },
    {
      "channel": 4,
      "note": 57,
      "start": 12.5391,
      "duration": 0.0161,
      "velocity": 120,
      "chip": "ym2612"
    },
    {
      "channel": 3,
      "note": 64,
      "start": 12.5403,
      "duration": 0.0161,
      "velocity": 120,
      "chip": "ym2612"
    },
    {
      "channel": 2,
      "note": 45,
      "start": 12.5414,
      "duration": 0.0161,
      "velocity": 100,
      "chip": "ym2612"
    },
    {
      "channel": 0,
      "note": 40,
      "start": 12.5541,
      "duration": 0.0161,
      "velocity": 115,
      "chip": "ym2612"
    },
    {
      "channel": 4,
      "note": 57,
      "start": 12.5552,
      "duration": 0.0161,
      "velocity": 120,
      "chip": "ym2612"
    },
    {
      "channel": 3,
      "note": 64,
      "start": 12.5563,
      "duration": 0.0161,
      "velocity": 120,
      "chip": "ym2612"
    },
    {
      "channel": 2,
      "note": 45,
      "start": 12.5575,
      "duration": 0.0161,
      "velocity": 100,
      "chip": "ym2612"
    },
    {
      "channel": 0,
      "note": 40,
      "start": 12.5702,
      "duration": 0.0161,
      "velocity": 115,
      "chip": "ym2612"
    },
    {
      "channel": 4,
      "note": 57,
      "start": 12.5713,
      "duration": 0.0161,
      "velocity": 120,
      "chip": "ym2612"
    },
    {
      "channel": 3,
      "note": 64,
      "start": 12.5724,
      "duration": 0.0161,
      "velocity": 120,
      "chip": "ym2612"
    },
    {
      "channel": 2,
      "note": 45,
      "start": 12.5736,
      "duration": 0.0161,
      "velocity": 100,
      "chip": "ym2612"
    },
    {
      "channel": 0,
      "note": 41,
      "start": 12.5863,
      "duration": 0.0162,
      "velocity": 115,
      "chip": "ym2612"
    },
    {
      "channel": 4,
      "note": 57,
      "start": 12.5874,
      "duration": 0.0163,
      "velocity": 120,
      "chip": "ym2612"
    },
    {
      "channel": 3,
      "note": 64,
      "start": 12.5885,
      "duration": 0.0166,
      "velocity": 120,
      "chip": "ym2612"
    },
    {
      "channel": 2,
      "note": 45,
      "start": 12.5897,
      "duration": 0.0169,
      "velocity": 100,
      "chip": "ym2612"
    },
    {
      "channel": 0,
      "note": 41,
      "start": 12.6024,
      "duration": 0.0161,
      "velocity": 115,
      "chip": "ym2612"
    },
    {
      "channel": 4,
      "note": 57,
      "start": 12.6038,
      "duration": 0.0159,
      "velocity": 120,
      "chip": "ym2612"
    },
    {
      "channel": 3,
      "note": 64,
      "start": 12.6052,
      "duration": 0.0157,
      "velocity": 120,
      "chip": "ym2612"
    },
    {
      "channel": 2,
      "note": 52,
      "start": 12.6067,
      "duration": 0.0154,
      "velocity": 100,
      "chip": "ym2612"
    },
    {
      "channel": 0,
      "note": 42,
      "start": 12.6185,
      "duration": 0.0161,
      "velocity": 115,
      "chip": "ym2612"
    },
    {
      "channel": 4,
      "note": 57,
      "start": 12.6197,
      "duration": 0.016,
      "velocity": 120,
      "chip": "ym2612"
    },
    {
      "channel": 3,
      "note": 64,
      "start": 12.6209,
      "duration": 0.016,
      "velocity": 120,
      "chip": "ym2612"
    },
    {
      "channel": 2,
      "note": 52,
      "start": 12.6221,
      "duration": 0.016,
      "velocity": 100,
      "chip": "ym2612"
    },
    {
      "channel": 0,
      "note": 42,
      "start": 12.6346,
      "duration": 0.0161,
      "velocity": 115,
      "chip": "ym2612"
    },
    {
      "channel": 4,
      "note": 57,
      "start": 12.6358,
      "duration": 0.0161,
      "velocity": 120,
      "chip": "ym2612"
    },
    {
      "channel": 3,
      "note": 64,
      "start": 12.6369,
      "duration": 0.0161,
      "velocity": 120,
      "chip": "ym2612"
    },
    {
      "channel": 2,
      "note": 52,
      "start": 12.638,
      "duration": 0.0161,
      "velocity": 100,
      "chip": "ym2612"
    },
    {
      "channel": 0,
      "note": 43,
      "start": 12.6507,
      "duration": 0.0161,
      "velocity": 115,
      "chip": "ym2612"
    },
    {
      "channel": 4,
      "note": 57,
      "start": 12.6518,
      "duration": 0.0161,
      "velocity": 120,
      "chip": "ym2612"
    },
    {
      "channel": 3,
      "note": 64,
      "start": 12.653,
      "duration": 0.0161,
      "velocity": 120,
      "chip": "ym2612"
    },
    {
      "channel": 2,
      "note": 52,
      "start": 12.6541,
      "duration": 0.0161,
      "velocity": 100,
      "chip": "ym2612"
    },
    {
      "channel": 0,
      "note": 43,
      "start": 12.6668,
      "duration": 0.0161,
      "velocity": 115,
      "chip": "ym2612"
    },
    {
      "channel": 4,
      "note": 57,
      "start": 12.6679,
      "duration": 0.0161,
      "velocity": 120,
      "chip": "ym2612"
    },
    {
      "channel": 3,
      "note": 64,
      "start": 12.6691,
      "duration": 0.0161,
      "velocity": 120,
      "chip": "ym2612"
    },
    {
      "channel": 2,
      "note": 52,
      "start": 12.6702,
      "duration": 0.0161,
      "velocity": 100,
      "chip": "ym2612"
    },
    {
      "channel": 0,
      "note": 44,
      "start": 12.6829,
      "duration": 0.0161,
      "velocity": 115,
      "chip": "ym2612"
    },
    {
      "channel": 4,
      "note": 57,
      "start": 12.684,
      "duration": 0.0161,
      "velocity": 120,
      "chip": "ym2612"
    },
    {
      "channel": 3,
      "note": 64,
      "start": 12.6852,
      "duration": 0.0161,
      "velocity": 120,
      "chip": "ym2612"
    },
    {
      "channel": 2,
      "note": 52,
      "start": 12.6863,
      "duration": 0.0161,
      "velocity": 100,
      "chip": "ym2612"
    },
    {
      "channel": 0,
      "note": 44,
      "start": 12.699,
      "duration": 0.0164,
      "velocity": 115,
      "chip": "ym2612"
    },
    {
      "channel": 4,
      "note": 57,
      "start": 12.7001,
      "duration": 0.0164,
      "velocity": 120,
      "chip": "ym2612"
    },
    {
      "channel": 3,
      "note": 64,
      "start": 12.7013,
      "duration": 0.0164,
      "velocity": 120,
      "chip": "ym2612"
    },
    {
      "channel": 2,
      "note": 52,
      "start": 12.7024,
      "duration": 0.0163,
      "velocity": 100,
      "chip": "ym2612"
    },
    {
      "channel": 0,
      "note": 44,
      "start": 12.7154,
      "duration": 0.0163,
      "velocity": 115,
      "chip": "ym2612"
    },
    {
      "channel": 4,
      "note": 57,
      "start": 12.7165,
      "duration": 0.0163,
      "velocity": 120,
      "chip": "ym2612"
    },
    {
      "channel": 3,
      "note": 64,
      "start": 12.7177,
      "duration": 0.0163,
      "velocity": 120,
      "chip": "ym2612"
    },
    {
      "channel": 2,
      "note": 52,
      "start": 12.7188,
      "duration": 0.0163,
      "velocity": 100,
      "chip": "ym2612"
    },
    {
      "channel": 0,
      "note": 45,
      "start": 12.7317,
      "duration": 0.0156,
      "velocity": 115,
      "chip": "ym2612"
    },
    {
      "channel": 4,
      "note": 57,
      "start": 12.7328,
      "duration": 0.0157,
      "velocity": 120,
      "chip": "ym2612"
    },
    {
      "channel": 3,
      "note": 64,
      "start": 12.734,
      "duration": 0.0156,
      "velocity": 120,
      "chip": "ym2612"
    },
    {
      "channel": 2,
      "note": 52,
      "start": 12.7351,
      "duration": 0.0156,
      "velocity": 100,
      "chip": "ym2612"
    },
    {
      "channel": 0,
      "note": 45,
      "start": 12.7473,
      "duration": 0.0181,
      "velocity": 115,
      "chip": "ym2612"
    },
    {
      "channel": 4,
      "note": 57,
      "start": 12.7485,
      "duration": 0.018,
      "velocity": 120,
      "chip": "ym2612"
    },
    {
      "channel": 3,
      "note": 64,
      "start": 12.7496,
      "duration": 0.0181,
      "velocity": 120,
      "chip": "ym2612"
    },
    {
      "channel": 2,
      "note": 52,
      "start": 12.7507,
      "duration": 0.0181,
      "velocity": 100,
      "chip": "ym2612"
    },
    {
      "channel": 0,
      "note": 46,
      "start": 12.7654,
      "duration": 0.0167,
      "velocity": 115,
      "chip": "ym2612"
    },
    {
      "channel": 4,
      "note": 57,
      "start": 12.7665,
      "duration": 0.0167,
      "velocity": 120,
      "chip": "ym2612"
    },
    {
      "channel": 3,
      "note": 64,
      "start": 12.7677,
      "duration": 0.0167,
      "velocity": 120,
      "chip": "ym2612"
    },
    {
      "channel": 2,
      "note": 52,
      "start": 12.7688,
      "duration": 0.0167,
      "velocity": 100,
      "chip": "ym2612"
    },
    {
      "channel": 0,
      "note": 46,
      "start": 12.7821,
      "duration": 0.0177,
      "velocity": 124,
      "chip": "ym2612"
    },
    {
      "channel": 4,
      "note": 57,
      "start": 12.7832,
      "duration": 0.0179,
      "velocity": 120,
      "chip": "ym2612"
    },
    {
      "channel": 3,
      "note": 64,
      "start": 12.7844,
      "duration": 0.0182,
      "velocity": 120,
      "chip": "ym2612"
    },
    {
      "channel": 2,
      "note": 52,
      "start": 12.7854,
      "duration": 0.0186,
      "velocity": 100,
      "chip": "ym2612"
    },
    {
      "channel": 0,
      "note": 84,
      "start": 12.7998,
      "duration": 0.0123,
      "velocity": 124,
      "chip": "ym2612"
    },
    {
      "channel": 4,
      "note": 57,
      "start": 12.8012,
      "duration": 0.0121,
      "velocity": 120,
      "chip": "ym2612"
    },
    {
      "channel": 3,
      "note": 64,
      "start": 12.8026,
      "duration": 0.0119,
      "velocity": 120,
      "chip": "ym2612"
    },
    {
      "channel": 2,
      "note": 52,
      "start": 12.8041,
      "duration": 0.0117,
      "velocity": 100,
      "chip": "ym2612"
    },
    {
      "channel": 0,
      "note": 82,
      "start": 12.8121,
      "duration": 0.0184,
      "velocity": 124,
      "chip": "ym2612"
    },
    {
      "channel": 4,
      "note": 57,
      "start": 12.8133,
      "duration": 0.0184,
      "velocity": 120,
      "chip": "ym2612"
    },
    {
      "channel": 3,
      "note": 64,
      "start": 12.8145,
      "duration": 0.0183,
      "velocity": 120,
      "chip": "ym2612"
    },
    {
      "channel": 2,
      "note": 52,
      "start": 12.8157,
      "duration": 0.0183,
      "velocity": 100,
      "chip": "ym2612"
    },
    {
      "channel": 0,
      "note": 80,
      "start": 12.8305,
      "duration": 0.0134,
      "velocity": 124,
      "chip": "ym2612"
    },
    {
      "channel": 4,
      "note": 57,
      "start": 12.8317,
      "duration": 0.0162,
      "velocity": 120,
      "chip": "ym2612"
    },
    {
      "channel": 3,
      "note": 64,
      "start": 12.8328,
      "duration": 0.0161,
      "velocity": 120,
      "chip": "ym2612"
    },
    {
      "channel": 2,
      "note": 52,
      "start": 12.834,
      "duration": 0.0161,
      "velocity": 100,
      "chip": "ym2612"
    },
    {
      "channel": 0,
      "note": 77,
      "start": 12.8439,
      "duration": 0.0161,
      "velocity": 124,
      "chip": "ym2612"
    },
    {
      "channel": 4,
      "note": 57,
      "start": 12.8478,
      "duration": 0.0157,
      "velocity": 120,
      "chip": "ym2612"
    },
    {
      "channel": 3,
      "note": 64,
      "start": 12.8489,
      "duration": 0.0158,
      "velocity": 120,
      "chip": "ym2612"
    },
    {
      "channel": 2,
      "note": 52,
      "start": 12.8501,
      "duration": 0.0158,
      "velocity": 100,
      "chip": "ym2612"
    },
    {
      "channel": 0,
      "note": 75,
      "start": 12.86,
      "duration": 0.0162,
      "velocity": 124,
      "chip": "ym2612"
    },
    {
      "channel": 4,
      "note": 57,
      "start": 12.8635,
      "duration": 0.0137,
      "velocity": 120,
      "chip": "ym2612"
    },
    {
      "channel": 3,
      "note": 64,
      "start": 12.8647,
      "duration": 0.0141,
      "velocity": 120,
      "chip": "ym2612"
    },
    {
      "channel": 2,
      "note": 52,
      "start": 12.8658,
      "duration": 0.0141,
      "velocity": 100,
      "chip": "ym2612"
    },
    {
      "channel": 0,
      "note": 72,
      "start": 12.8761,
      "duration": 0.0161,
      "velocity": 124,
      "chip": "ym2612"
    },
    {
      "channel": 4,
      "note": 57,
      "start": 12.8773,
      "duration": 0.0161,
      "velocity": 120,
      "chip": "ym2612"
    },
    {
      "channel": 3,
      "note": 64,
      "start": 12.8788,
      "duration": 0.0185,
      "velocity": 120,
      "chip": "ym2612"
    },
    {
      "channel": 2,
      "note": 52,
      "start": 12.8799,
      "duration": 0.0185,
      "velocity": 100,
      "chip": "ym2612"
    },
    {
      "channel": 0,
      "note": 70,
      "start": 12.8922,
      "duration": 0.0161,
      "velocity": 124,
      "chip": "ym2612"
    },
    {
      "channel": 4,
      "note": 57,
      "start": 12.8934,
      "duration": 0.0161,
      "velocity": 120,
      "chip": "ym2612"
    },
    {
      "channel": 3,
      "note": 64,
      "start": 12.8973,
      "duration": 0.0134,
      "velocity": 120,
      "chip": "ym2612"
    },
    {
      "channel": 2,
      "note": 52,
      "start": 12.8984,
      "duration": 0.0161,
      "velocity": 100,
      "chip": "ym2612"
    },
    {
      "channel": 0,
      "note": 68,
      "start": 12.9083,
      "duration": 0.0161,
      "velocity": 124,
      "chip": "ym2612"
    },
    {
      "channel": 4,
      "note": 57,
      "start": 12.9095,
      "duration": 0.0161,
      "velocity": 120,
      "chip": "ym2612"
    },
    {
      "channel": 3,
      "note": 64,
      "start": 12.9106,
      "duration": 0.0161,
      "velocity": 120,
      "chip": "ym2612"
    },
    {
      "channel": 2,
      "note": 52,
      "start": 12.9145,
      "duration": 0.0157,
      "velocity": 100,
      "chip": "ym2612"
    },
    {
      "channel": 0,
      "note": 65,
      "start": 12.9244,
      "duration": 0.0161,
      "velocity": 124,
      "chip": "ym2612"
    },
    {
      "channel": 4,
      "note": 57,
      "start": 12.9256,
      "duration": 0.0161,
      "velocity": 120,
      "chip": "ym2612"
    },
    {
      "channel": 3,
      "note": 64,
      "start": 12.9267,
      "duration": 0.0161,
      "velocity": 120,
      "chip": "ym2612"
    },
    {
      "channel": 2,
      "note": 52,
      "start": 12.9302,
      "duration": 0.0137,
      "velocity": 100,
      "chip": "ym2612"
    },
    {
      "channel": 0,
      "note": 63,
      "start": 12.9405,
      "duration": 0.0153,
      "velocity": 1,
      "chip": "ym2612"
    },
    {
      "channel": 4,
      "note": 57,
      "start": 12.9417,
      "duration": 0.0154,
      "velocity": 120,
      "chip": "ym2612"
    },
    {
      "channel": 3,
      "note": 64,
      "start": 12.9428,
      "duration": 0.0153,
      "velocity": 120,
      "chip": "ym2612"
    },
    {
      "channel": 2,
      "note": 52,
      "start": 12.9439,
      "duration": 0.0153,
      "velocity": 100,
      "chip": "ym2612"
    },
    {
      "channel": 4,
      "note": 57,
      "start": 12.957,
      "duration": 0.0152,
      "velocity": 120,
      "chip": "ym2612"
    },
    {
      "channel": 3,
      "note": 64,
      "start": 12.9581,
      "duration": 0.0153,
      "velocity": 120,
      "chip": "ym2612"
    },
    {
      "channel": 2,
      "note": 52,
      "start": 12.9592,
      "duration": 0.0153,
      "velocity": 100,
      "chip": "ym2612"
    },
    {
      "channel": 4,
      "note": 57,
      "start": 12.9722,
      "duration": 0.0198,
      "velocity": 120,
      "chip": "ym2612"
    },
    {
      "channel": 3,
      "note": 64,
      "start": 12.9733,
      "duration": 0.02,
      "velocity": 120,
      "chip": "ym2612"
    },
    {
      "channel": 2,
      "note": 52,
      "start": 12.9745,
      "duration": 0.0227,
      "velocity": 100,
      "chip": "ym2612"
    },
    {
      "channel": 0,
      "note": 36,
      "start": 12.9906,
      "duration": 0.0144,
      "velocity": 115,
      "chip": "ym2612"
    },
    {
      "channel": 4,
      "note": 57,
      "start": 12.992,
      "duration": 0.0141,
      "velocity": 120,
      "chip": "ym2612"
    },
    {
      "channel": 3,
      "note": 64,
      "start": 12.9934,
      "duration": 0.014,
      "velocity": 120,
      "chip": "ym2612"
    },
    {
      "channel": 2,
      "note": 52,
      "start": 12.9973,
      "duration": 0.0113,
      "velocity": 100,
      "chip": "ym2612"
    },
    {
      "channel": 0,
      "note": 36,
      "start": 13.005,
      "duration": 0.016,
      "velocity": 115,
      "chip": "ym2612"
    },
    {
      "channel": 4,
      "note": 57,
      "start": 13.0062,
      "duration": 0.016,
      "velocity": 120,
      "chip": "ym2612"
    },
    {
      "channel": 3,
      "note": 64,
      "start": 13.0074,
      "duration": 0.0159,
      "velocity": 120,
      "chip": "ym2612"
    },
    {
      "channel": 2,
      "note": 52,
      "start": 13.0086,
      "duration": 0.0158,
      "velocity": 100,
      "chip": "ym2612"
    },
    {
      "channel": 0,
      "note": 37,
      "start": 13.021,
      "duration": 0.0161,
      "velocity": 115,
      "chip": "ym2612"
    },
    {
      "channel": 4,
      "note": 57,
      "start": 13.0221,
      "duration": 0.0162,
      "velocity": 120,
      "chip": "ym2612"
    },
    {
      "channel": 3,
      "note": 64,
      "start": 13.0233,
      "duration": 0.0161,
      "velocity": 120,
      "chip": "ym2612"
    },
    {
      "channel": 2,
      "note": 52,
      "start": 13.0244,
      "duration": 0.0161,
      "velocity": 100,
      "chip": "ym2612"
    },
    {
      "channel": 0,
      "note": 37,
      "start": 13.0371,
      "duration": 0.0162,
      "velocity": 115,
      "chip": "ym2612"
    },
    {
      "channel": 4,
      "note": 57,
      "start": 13.0383,
      "duration": 0.0161,
      "velocity": 120,
      "chip": "ym2612"
    },
    {
      "channel": 3,
      "note": 64,
      "start": 13.0394,
      "duration": 0.0162,
      "velocity": 120,
      "chip": "ym2612"
    },
    {
      "channel": 2,
      "note": 52,
      "start": 13.0405,
      "duration": 0.0161,
      "velocity": 100,
      "chip": "ym2612"
    },
    {
      "channel": 0,
      "note": 38,
      "start": 13.0532,
      "duration": 0.0161,
      "velocity": 115,
      "chip": "ym2612"
    },
    {
      "channel": 4,
      "note": 57,
      "start": 13.0544,
      "duration": 0.0161,
      "velocity": 120,
      "chip": "ym2612"
    },
    {
      "channel": 3,
      "note": 64,
      "start": 13.0555,
      "duration": 0.0161,
      "velocity": 120,
      "chip": "ym2612"
    },
    {
      "channel": 2,
      "note": 52,
      "start": 13.0566,
      "duration": 0.0161,
      "velocity": 100,
      "chip": "ym2612"
    },
    {
      "channel": 0,
      "note": 38,
      "start": 13.0693,
      "duration": 0.0161,
      "velocity": 115,
      "chip": "ym2612"
    },
    {
      "channel": 4,
      "note": 57,
      "start": 13.0705,
      "duration": 0.0161,
      "velocity": 120,
      "chip": "ym2612"
    },
    {
      "channel": 3,
      "note": 64,
      "start": 13.0716,
      "duration": 0.0161,
      "velocity": 120,
      "chip": "ym2612"
    },
    {
      "channel": 2,
      "note": 52,
      "start": 13.0727,
      "duration": 0.0162,
      "velocity": 100,
      "chip": "ym2612"
    },
    {
      "channel": 0,
      "note": 39,
      "start": 13.0854,
      "duration": 0.0161,
      "velocity": 115,
      "chip": "ym2612"
    },
    {
      "channel": 4,
      "note": 57,
      "start": 13.0866,
      "duration": 0.0161,
      "velocity": 120,
      "chip": "ym2612"
    },
    {
      "channel": 3,
      "note": 64,
      "start": 13.0877,
      "duration": 0.0161,
      "velocity": 120,
      "chip": "ym2612"
    },
    {
      "channel": 2,
      "note": 52,
      "start": 13.0889,
      "duration": 0.0161,
      "velocity": 100,
      "chip": "ym2612"
    },
    {
      "channel": 0,
      "note": 39,
      "start": 13.1015,
      "duration": 0.0161,
      "velocity": 115,
      "chip": "ym2612"
    },
    {
      "channel": 4,
      "note": 57,
      "start": 13.1027,
      "duration": 0.0161,
      "velocity": 120,
      "chip": "ym2612"
    },
    {
      "channel": 3,
      "note": 64,
      "start": 13.1038,
      "duration": 0.0161,
      "velocity": 120,
      "chip": "ym2612"
    },
    {
      "channel": 2,
      "note": 52,
      "start": 13.105,
      "duration": 0.0161,
      "velocity": 100,
      "chip": "ym2612"
    },
    {
      "channel": 0,
      "note": 40,
      "start": 13.1176,
      "duration": 0.0161,
      "velocity": 115,
      "chip": "ym2612"
    },
    {
      "channel": 4,
      "note": 57,
      "start": 13.1188,
      "duration": 0.0161,
      "velocity": 120,
      "chip": "ym2612"
    },
    {
      "channel": 3,
      "note": 64,
      "start": 13.1199,
      "duration": 0.0161,
      "velocity": 120,
      "chip": "ym2612"
    },
    {
      "channel": 2,
      "note": 52,
      "start": 13.121,
      "duration": 0.0161,
      "velocity": 100,
      "chip": "ym2612"
    },
    {
      "channel": 0,
      "note": 40,
      "start": 13.1337,
      "duration": 0.0161,
      "velocity": 115,
      "chip": "ym2612"
    },
    {
      "channel": 4,
      "note": 57,
      "start": 13.1349,
      "duration": 0.0161,
      "velocity": 120,
      "chip": "ym2612"
    },
    {
      "channel": 3,
      "note": 64,
      "start": 13.136,
      "duration": 0.0161,
      "velocity": 120,
      "chip": "ym2612"
    },
    {
      "channel": 2,
      "note": 52,
      "start": 13.1371,
      "duration": 0.0161,
      "velocity": 100,
      "chip": "ym2612"
    },
    {
      "channel": 0,
      "note": 40,
      "start": 13.1498,
      "duration": 0.0161,
      "velocity": 115,
      "chip": "ym2612"
    },
    {
      "channel": 4,
      "note": 57,
      "start": 13.151,
      "duration": 0.0161,
      "velocity": 120,
      "chip": "ym2612"
    },
    {
      "channel": 3,
      "note": 64,
      "start": 13.1521,
      "duration": 0.0161,
      "velocity": 120,
      "chip": "ym2612"
    },
    {
      "channel": 2,
      "note": 52,
      "start": 13.1532,
      "duration": 0.0161,
      "velocity": 100,
      "chip": "ym2612"
    },
    {
      "channel": 0,
      "note": 41,
      "start": 13.1659,
      "duration": 0.0179,
      "velocity": 115,
      "chip": "ym2612"
    },
    {
      "channel": 4,
      "note": 57,
      "start": 13.1671,
      "duration": 0.0181,
      "velocity": 120,
      "chip": "ym2612"
    },
    {
      "channel": 3,
      "note": 64,
      "start": 13.1682,
      "duration": 0.0184,
      "velocity": 120,
      "chip": "ym2612"
    },
    {
      "channel": 2,
      "note": 52,
      "start": 13.1693,
      "duration": 0.0187,
      "velocity": 100,
      "chip": "ym2612"
    },
    {
      "channel": 0,
      "note": 36,
      "start": 13.1838,
      "duration": 0.0146,
      "velocity": 115,
      "chip": "ym2612"
    },
    {
      "channel": 4,
      "note": 57,
      "start": 13.1852,
      "duration": 0.0144,
      "velocity": 120,
      "chip": "ym2612"
    },
    {
      "channel": 3,
      "note": 64,
      "start": 13.1866,
      "duration": 0.0142,
      "velocity": 120,
      "chip": "ym2612"
    },
    {
      "channel": 2,
      "note": 52,
      "start": 13.1881,
      "duration": 0.0139,
      "velocity": 100,
      "chip": "ym2612"
    },
    {
      "channel": 0,
      "note": 36,
      "start": 13.1984,
      "duration": 0.0158,
      "velocity": 115,
      "chip": "ym2612"
    },
    {
      "channel": 4,
      "note": 57,
      "start": 13.1996,
      "duration": 0.0158,
      "velocity": 120,
      "chip": "ym2612"
    },
    {
      "channel": 3,
      "note": 64,
      "start": 13.2008,
      "duration": 0.0157,
      "velocity": 120,
      "chip": "ym2612"
    },
    {
      "channel": 2,
      "note": 52,
      "start": 13.202,
      "duration": 0.0156,
      "velocity": 100,
      "chip": "ym2612"
    },
    {
      "channel": 0,
      "note": 37,
      "start": 13.2142,
      "duration": 0.0178,
      "velocity": 115,
      "chip": "ym2612"
    },
    {
      "channel": 4,
      "note": 57,
      "start": 13.2154,
      "duration": 0.0178,
      "velocity": 120,
      "chip": "ym2612"
    },
    {
      "channel": 3,
      "note": 64,
      "start": 13.2165,
      "duration": 0.0178,
      "velocity": 120,
      "chip": "ym2612"
    },
    {
      "channel": 2,
      "note": 52,
      "start": 13.2176,
      "duration": 0.0178,
      "velocity": 100,
      "chip": "ym2612"
    },
    {
      "channel": 0,
      "note": 37,
      "start": 13.2321,
      "duration": 0.0167,
      "velocity": 115,
      "chip": "ym2612"
    },
    {
      "channel": 4,
      "note": 57,
      "start": 13.2332,
      "duration": 0.0167,
      "velocity": 120,
      "chip": "ym2612"
    },
    {
      "channel": 3,
      "note": 64,
      "start": 13.2344,
      "duration": 0.0167,
      "velocity": 120,
      "chip": "ym2612"
    },
    {
      "channel": 2,
      "note": 52,
      "start": 13.2354,
      "duration": 0.0167,
      "velocity": 100,
      "chip": "ym2612"
    },
    {
      "channel": 0,
      "note": 38,
      "start": 13.2487,
      "duration": 0.0161,
      "velocity": 115,
      "chip": "ym2612"
    },
    {
      "channel": 4,
      "note": 57,
      "start": 13.2499,
      "duration": 0.0162,
      "velocity": 120,
      "chip": "ym2612"
    },
    {
      "channel": 3,
      "note": 64,
      "start": 13.251,
      "duration": 0.0161,
      "velocity": 120,
      "chip": "ym2612"
    },
    {
      "channel": 2,
      "note": 52,
      "start": 13.2521,
      "duration": 0.0162,
      "velocity": 100,
      "chip": "ym2612"
    },
    {
      "channel": 0,
      "note": 38,
      "start": 13.2649,
      "duration": 0.0141,
      "velocity": 115,
      "chip": "ym2612"
    },
    {
      "channel": 4,
      "note": 57,
      "start": 13.266,
      "duration": 0.0141,
      "velocity": 120,
      "chip": "ym2612"
    },
    {
      "channel": 3,
      "note": 64,
      "start": 13.2672,
      "duration": 0.0141,
      "velocity": 120,
      "chip": "ym2612"
    },
    {
      "channel": 2,
      "note": 52,
      "start": 13.2683,
      "duration": 0.0141,
      "velocity": 100,
      "chip": "ym2612"
    },
    {
      "channel": 0,
      "note": 39,
      "start": 13.2789,
      "duration": 0.0185,
      "velocity": 115,
      "chip": "ym2612"
    },
    {
      "channel": 4,
      "note": 57,
      "start": 13.2801,
      "duration": 0.0186,
      "velocity": 120,
      "chip": "ym2612"
    },
    {
      "channel": 3,
      "note": 64,
      "start": 13.2812,
      "duration": 0.0185,
      "velocity": 120,
      "chip": "ym2612"
    },
    {
      "channel": 2,
      "note": 52,
      "start": 13.2824,
      "duration": 0.0185,
      "velocity": 100,
      "chip": "ym2612"
    },
    {
      "channel": 0,
      "note": 39,
      "start": 13.2975,
      "duration": 0.0161,
      "velocity": 115,
      "chip": "ym2612"
    },
    {
      "channel": 4,
      "note": 57,
      "start": 13.2987,
      "duration": 0.0161,
      "velocity": 120,
      "chip": "ym2612"
    },
    {
      "channel": 3,
      "note": 64,
      "start": 13.2998,
      "duration": 0.0161,
      "velocity": 120,
      "chip": "ym2612"
    },
    {
      "channel": 2,
      "note": 52,
      "start": 13.3009,
      "duration": 0.0161,
      "velocity": 100,
      "chip": "ym2612"
    },
    {
      "channel": 0,
      "note": 40,
      "start": 13.3135,
      "duration": 0.0134,
      "velocity": 115,
      "chip": "ym2612"
    },
    {
      "channel": 4,
      "note": 57,
      "start": 13.3148,
      "duration": 0.0157,
      "velocity": 120,
      "chip": "ym2612"
    },
    {
      "channel": 3,
      "note": 64,
      "start": 13.3158,
      "duration": 0.0158,
      "velocity": 120,
      "chip": "ym2612"
    },
    {
      "channel": 2,
      "note": 52,
      "start": 13.317,
      "duration": 0.0158,
      "velocity": 100,
      "chip": "ym2612"
    },
    {
      "channel": 0,
      "note": 40,
      "start": 13.3269,
      "duration": 0.0161,
      "velocity": 115,
      "chip": "ym2612"
    },
    {
      "channel": 4,
      "note": 57,
      "start": 13.3305,
      "duration": 0.0141,
      "velocity": 120,
      "chip": "ym2612"
    },
    {
      "channel": 3,
      "note": 64,
      "start": 13.3316,
      "duration": 0.0141,
      "velocity": 120,
      "chip": "ym2612"
    },
    {
      "channel": 2,
      "note": 52,
      "start": 13.3328,
      "duration": 0.014,
      "velocity": 100,
      "chip": "ym2612"
    },
    {
      "channel": 0,
      "note": 40,
      "start": 13.3431,
      "duration": 0.0161,
      "velocity": 115,
      "chip": "ym2612"
    },
    {
      "channel": 4,
      "note": 57,
      "start": 13.3445,
      "duration": 0.0158,
      "velocity": 120,
      "chip": "ym2612"
    },
    {
      "channel": 3,
      "note": 64,
      "start": 13.3457,
      "duration": 0.0185,
      "velocity": 120,
      "chip": "ym2612"
    },
    {
      "channel": 2,
      "note": 52,
      "start": 13.3468,
      "duration": 0.0186,
      "velocity": 100,
      "chip": "ym2612"
    },
    {
      "channel": 0,
      "note": 41,
      "start": 13.3592,
      "duration": 0.0161,
      "velocity": 115,
      "chip": "ym2612"
    },
    {
      "channel": 4,
      "note": 57,
      "start": 13.3603,
      "duration": 0.0163,
      "velocity": 120,
      "chip": "ym2612"
    },
    {
      "channel": 3,
      "note": 64,
      "start": 13.3642,
      "duration": 0.0166,
      "velocity": 120,
      "chip": "ym2612"
    },
    {
      "channel": 2,
      "note": 52,
      "start": 13.3653,
      "duration": 0.0168,
      "velocity": 100,
      "chip": "ym2612"
    },
    {
      "channel": 0,
      "note": 41,
      "start": 13.3753,
      "duration": 0.0161,
      "velocity": 115,
      "chip": "ym2612"
    },
    {
      "channel": 4,
      "note": 57,
      "start": 13.3766,
      "duration": 0.0159,
      "velocity": 120,
      "chip": "ym2612"
    },
    {
      "channel": 3,
      "note": 64,
      "start": 13.3808,
      "duration": 0.013,
      "velocity": 120,
      "chip": "ym2612"
    },
    {
      "channel": 2,
      "note": 52,
      "start": 13.3822,
      "duration": 0.0151,
      "velocity": 100,
      "chip": "ym2612"
    },
    {
      "channel": 0,
      "note": 42,
      "start": 13.3913,
      "duration": 0.0161,
      "velocity": 115,
      "chip": "ym2612"
    },
    {
      "channel": 4,
      "note": 57,
      "start": 13.3926,
      "duration": 0.016,
      "velocity": 120,
      "chip": "ym2612"
    },
    {
      "channel": 3,
      "note": 64,
      "start": 13.3938,
      "duration": 0.016,
      "velocity": 120,
      "chip": "ym2612"
    },
    {
      "channel": 2,
      "note": 52,
      "start": 13.3973,
      "duration": 0.0139,
      "velocity": 100,
      "chip": "ym2612"
    },
    {
      "channel": 0,
      "note": 42,
      "start": 13.4074,
      "duration": 0.0161,
      "velocity": 115,
      "chip": "ym2612"
    },
    {
      "channel": 4,
      "note": 57,
      "start": 13.4086,
      "duration": 0.0161,
      "velocity": 120,
      "chip": "ym2612"
    },
    {
      "channel": 3,
      "note": 64,
      "start": 13.4097,
      "duration": 0.0161,
      "velocity": 120,
      "chip": "ym2612"
    },
    {
      "channel": 2,
      "note": 52,
      "start": 13.4112,
      "duration": 0.0158,
      "velocity": 100,
      "chip": "ym2612"
    },
    {
      "channel": 0,
      "note": 43,
      "start": 13.4235,
      "duration": 0.0161,
      "velocity": 115,
      "chip": "ym2612"
    },
    {
      "channel": 4,
      "note": 57,
      "start": 13.4247,
      "duration": 0.0161,
      "velocity": 120,
      "chip": "ym2612"
    },
    {
      "channel": 3,
      "note": 64,
      "start": 13.4258,
      "duration": 0.0161,
      "velocity": 120,
      "chip": "ym2612"
    },
    {
      "channel": 2,
      "note": 52,
      "start": 13.427,
      "duration": 0.0161,
      "velocity": 100,
      "chip": "ym2612"
    },
    {
      "channel": 0,
      "note": 43,
      "start": 13.4396,
      "duration": 0.0161,
      "velocity": 115,
      "chip": "ym2612"
    },
    {
      "channel": 4,
      "note": 57,
      "start": 13.4408,
      "duration": 0.0161,
      "velocity": 120,
      "chip": "ym2612"
    },
    {
      "channel": 3,
      "note": 64,
      "start": 13.4419,
      "duration": 0.0161,
      "velocity": 120,
      "chip": "ym2612"
    },
    {
      "channel": 2,
      "note": 52,
      "start": 13.4431,
      "duration": 0.0161,
      "velocity": 100,
      "chip": "ym2612"
    },
    {
      "channel": 0,
      "note": 44,
      "start": 13.4557,
      "duration": 0.0162,
      "velocity": 115,
      "chip": "ym2612"
    },
    {
      "channel": 4,
      "note": 57,
      "start": 13.4569,
      "duration": 0.0161,
      "velocity": 120,
      "chip": "ym2612"
    },
    {
      "channel": 3,
      "note": 64,
      "start": 13.458,
      "duration": 0.0162,
      "velocity": 120,
      "chip": "ym2612"
    },
    {
      "channel": 2,
      "note": 52,
      "start": 13.4592,
      "duration": 0.0161,
      "velocity": 100,
      "chip": "ym2612"
    },
    {
      "channel": 0,
      "note": 44,
      "start": 13.4719,
      "duration": 0.016,
      "velocity": 115,
      "chip": "ym2612"
    },
    {
      "channel": 4,
      "note": 57,
      "start": 13.473,
      "duration": 0.0161,
      "velocity": 120,
      "chip": "ym2612"
    },
    {
      "channel": 3,
      "note": 64,
      "start": 13.4742,
      "duration": 0.016,
      "velocity": 120,
      "chip": "ym2612"
    },
    {
      "channel": 2,
      "note": 52,
      "start": 13.4753,
      "duration": 0.0161,
      "velocity": 100,
      "chip": "ym2612"
    },
    {
      "channel": 0,
      "note": 44,
      "start": 13.4879,
      "duration": 0.0161,
      "velocity": 115,
      "chip": "ym2612"
    },
    {
      "channel": 4,
      "note": 57,
      "start": 13.4891,
      "duration": 0.0161,
      "velocity": 120,
      "chip": "ym2612"
    },
    {
      "channel": 3,
      "note": 64,
      "start": 13.4902,
      "duration": 0.0161,
      "velocity": 120,
      "chip": "ym2612"
    },
    {
      "channel": 2,
      "note": 52,
      "start": 13.4913,
      "duration": 0.0161,
      "velocity": 100,
      "chip": "ym2612"
    },
    {
      "channel": 0,
      "note": 45,
      "start": 13.5041,
      "duration": 0.0161,
      "velocity": 115,
      "chip": "ym2612"
    },
    {
      "channel": 4,
      "note": 57,
      "start": 13.5052,
      "duration": 0.0161,
      "velocity": 120,
      "chip": "ym2612"
    },
    {
      "channel": 3,
      "note": 64,
      "start": 13.5063,
      "duration": 0.0161,
      "velocity": 120,
      "chip": "ym2612"
    },
    {
      "channel": 2,
      "note": 52,
      "start": 13.5074,
      "duration": 0.0162,
      "velocity": 100,
      "chip": "ym2612"
    },
    {
      "channel": 0,
      "note": 45,
      "start": 13.5202,
      "duration": 0.0161,
      "velocity": 115,
      "chip": "ym2612"
    },
    {
      "channel": 4,
      "note": 57,
      "start": 13.5213,
      "duration": 0.0161,
      "velocity": 120,
      "chip": "ym2612"
    },
    {
      "channel": 3,
      "note": 64,
      "start": 13.5224,
      "duration": 0.0161,
      "velocity": 120,
      "chip": "ym2612"
    },
    {
      "channel": 2,
      "note": 52,
      "start": 13.5236,
      "duration": 0.0161,
      "velocity": 100,
      "chip": "ym2612"
    },
    {
      "channel": 0,
      "note": 46,
      "start": 13.5363,
      "duration": 0.0161,
      "velocity": 115,
      "chip": "ym2612"
    },
    {
      "channel": 4,
      "note": 57,
      "start": 13.5374,
      "duration": 0.0161,
      "velocity": 120,
      "chip": "ym2612"
    },
    {
      "channel": 3,
      "note": 64,
      "start": 13.5385,
      "duration": 0.0161,
      "velocity": 120,
      "chip": "ym2612"
    },
    {
      "channel": 2,
      "note": 52,
      "start": 13.5397,
      "duration": 0.0161,
      "velocity": 100,
      "chip": "ym2612"
    },
    {
      "channel": 0,
      "note": 46,
      "start": 13.5524,
      "duration": 0.0179,
      "velocity": 124,
      "chip": "ym2612"
    },
    {
      "channel": 4,
      "note": 57,
      "start": 13.5535,
      "duration": 0.0181,
      "velocity": 120,
      "chip": "ym2612"
    },
    {
      "channel": 3,
      "note": 64,
      "start": 13.5546,
      "duration": 0.0184,
      "velocity": 120,
      "chip": "ym2612"
    },
    {
      "channel": 2,
      "note": 52,
      "start": 13.5558,
      "duration": 0.0187,
      "velocity": 100,
      "chip": "ym2612"
    },
    {
      "channel": 0,
      "note": 84,
      "start": 13.5702,
      "duration": 0.0144,
      "velocity": 124,
      "chip": "ym2612"
    },
    {
      "channel": 4,
      "note": 57,
      "start": 13.5717,
      "duration": 0.0141,
      "velocity": 120,
      "chip": "ym2612"
    },
    {
      "channel": 3,
      "note": 64,
      "start": 13.573,
      "duration": 0.014,
      "velocity": 120,
      "chip": "ym2612"
    },
    {
      "channel": 2,
      "note": 52,
      "start": 13.5745,
      "duration": 0.0137,
      "velocity": 100,
      "chip": "ym2612"
    },
    {
      "channel": 0,
      "note": 82,
      "start": 13.5846,
      "duration": 0.016,
      "velocity": 124,
      "chip": "ym2612"
    },
    {
      "channel": 4,
      "note": 57,
      "start": 13.5858,
      "duration": 0.016,
      "velocity": 120,
      "chip": "ym2612"
    },
    {
      "channel": 3,
      "note": 64,
      "start": 13.587,
      "duration": 0.0159,
      "velocity": 120,
      "chip": "ym2612"
    },
    {
      "channel": 2,
      "note": 52,
      "start": 13.5882,
      "duration": 0.0158,
      "velocity": 100,
      "chip": "ym2612"
    },
    {
      "channel": 0,
      "note": 80,
      "start": 13.6006,
      "duration": 0.0162,
      "velocity": 124,
      "chip": "ym2612"
    },
    {
      "channel": 4,
      "note": 57,
      "start": 13.6018,
      "duration": 0.0162,
      "velocity": 120,
      "chip": "ym2612"
    },
    {
      "channel": 3,
      "note": 64,
      "start": 13.6029,
      "duration": 0.0162,
      "velocity": 120,
      "chip": "ym2612"
    },
    {
      "channel": 2,
      "note": 52,
      "start": 13.6041,
      "duration": 0.0161,
      "velocity": 100,
      "chip": "ym2612"
    },
    {
      "channel": 0,
      "note": 77,
      "start": 13.6168,
      "duration": 0.0161,
      "velocity": 124,
      "chip": "ym2612"
    },
    {
      "channel": 4,
      "note": 57,
      "start": 13.6179,
      "duration": 0.0161,
      "velocity": 120,
      "chip": "ym2612"
    },
    {
      "channel": 3,
      "note": 64,
      "start": 13.6191,
      "duration": 0.0161,
      "velocity": 120,
      "chip": "ym2612"
    },
    {
      "channel": 2,
      "note": 52,
      "start": 13.6202,
      "duration": 0.0161,
      "velocity": 100,
      "chip": "ym2612"
    },
    {
      "channel": 0,
      "note": 75,
      "start": 13.6329,
      "duration": 0.0161,
      "velocity": 124,
      "chip": "ym2612"
    },
    {
      "channel": 4,
      "note": 57,
      "start": 13.634,
      "duration": 0.0161,
      "velocity": 120,
      "chip": "ym2612"
    },
    {
      "channel": 3,
      "note": 64,
      "start": 13.6352,
      "duration": 0.0161,
      "velocity": 120,
      "chip": "ym2612"
    },
    {
      "channel": 2,
      "note": 52,
      "start": 13.6363,
      "duration": 0.0161,
      "velocity": 100,
      "chip": "ym2612"
    },
    {
      "channel": 0,
      "note": 72,
      "start": 13.649,
      "duration": 0.0161,
      "velocity": 124,
      "chip": "ym2612"
    },
    {
      "channel": 4,
      "note": 57,
      "start": 13.6501,
      "duration": 0.0161,
      "velocity": 120,
      "chip": "ym2612"
    },
    {
      "channel": 3,
      "note": 64,
      "start": 13.6513,
      "duration": 0.0161,
      "velocity": 120,
      "chip": "ym2612"
    },
    {
      "channel": 2,
      "note": 52,
      "start": 13.6524,
      "duration": 0.0161,
      "velocity": 100,
      "chip": "ym2612"
    },
    {
      "channel": 0,
      "note": 70,
      "start": 13.6651,
      "duration": 0.0161,
      "velocity": 124,
      "chip": "ym2612"
    },
    {
      "channel": 4,
      "note": 57,
      "start": 13.6662,
      "duration": 0.0161,
      "velocity": 120,
      "chip": "ym2612"
    },
    {
      "channel": 3,
      "note": 64,
      "start": 13.6674,
      "duration": 0.0161,
      "velocity": 120,
      "chip": "ym2612"
    },
    {
      "channel": 2,
      "note": 52,
      "start": 13.6685,
      "duration": 0.016,
      "velocity": 100,
      "chip": "ym2612"
    },
    {
      "channel": 0,
      "note": 68,
      "start": 13.6812,
      "duration": 0.0176,
      "velocity": 124,
      "chip": "ym2612"
    },
    {
      "channel": 4,
      "note": 57,
      "start": 13.6823,
      "duration": 0.0176,
      "velocity": 120,
      "chip": "ym2612"
    },
    {
      "channel": 3,
      "note": 64,
      "start": 13.6835,
      "duration": 0.0176,
      "velocity": 120,
      "chip": "ym2612"
    },
    {
      "channel": 2,
      "note": 52,
      "start": 13.6845,
      "duration": 0.0176,
      "velocity": 100,
      "chip": "ym2612"
    },
    {
      "channel": 0,
      "note": 65,
      "start": 13.6987,
      "duration": 0.0167,
      "velocity": 124,
      "chip": "ym2612"
    },
    {
      "channel": 4,
      "note": 57,
      "start": 13.6999,
      "duration": 0.0167,
      "velocity": 120,
      "chip": "ym2612"
    },
    {
      "channel": 3,
      "note": 64,
      "start": 13.701,
      "duration": 0.0167,
      "velocity": 120,
      "chip": "ym2612"
    },
    {
      "channel": 2,
      "note": 52,
      "start": 13.7021,
      "duration": 0.0167,
      "velocity": 100,
      "chip": "ym2612"
    },
    {
      "channel": 0,
      "note": 63,
      "start": 13.7154,
      "duration": 0.0155,
      "velocity": 1,
      "chip": "ym2612"
    },
    {
      "channel": 4,
      "note": 57,
      "start": 13.7165,
      "duration": 0.0155,
      "velocity": 120,
      "chip": "ym2612"
    },
    {
      "channel": 3,
      "note": 64,
      "start": 13.7177,
      "duration": 0.0155,
      "velocity": 120,
      "chip": "ym2612"
    },
    {
      "channel": 2,
      "note": 52,
      "start": 13.7188,
      "duration": 0.0155,
      "velocity": 100,
      "chip": "ym2612"
    },
    {
      "channel": 4,
      "note": 57,
      "start": 13.732,
      "duration": 0.0134,
      "velocity": 120,
      "chip": "ym2612"
    },
    {
      "channel": 3,
      "note": 64,
      "start": 13.7332,
      "duration": 0.0134,
      "velocity": 120,
      "chip": "ym2612"
    },
    {
      "channel": 2,
      "note": 52,
      "start": 13.7343,
      "duration": 0.0134,
      "velocity": 100,
      "chip": "ym2612"
    },
    {
      "channel": 4,
      "note": 57,
      "start": 13.7454,
      "duration": 0.0187,
      "velocity": 120,
      "chip": "ym2612"
    },
    {
      "channel": 3,
      "note": 64,
      "start": 13.7466,
      "duration": 0.019,
      "velocity": 120,
      "chip": "ym2612"
    },
    {
      "channel": 2,
      "note": 52,
      "start": 13.7476,
      "duration": 0.0193,
      "velocity": 100,
      "chip": "ym2612"
    },
    {
      "channel": 4,
      "note": 59,
      "start": 13.7642,
      "duration": 0.0159,
      "velocity": 120,
      "chip": "ym2612"
    },
    {
      "channel": 3,
      "note": 66,
      "start": 13.7656,
      "duration": 0.0157,
      "velocity": 120,
      "chip": "ym2612"
    },
    {
      "channel": 2,
      "note": 52,
      "start": 13.7671,
      "duration": 0.0154,
      "velocity": 100,
      "chip": "ym2612"
    },
    {
      "channel": 4,
      "note": 59,
      "start": 13.7801,
      "duration": 0.0133,
      "velocity": 120,
      "chip": "ym2612"
    },
    {
      "channel": 3,
      "note": 66,
      "start": 13.7813,
      "duration": 0.0156,
      "velocity": 120,
      "chip": "ym2612"
    },
    {
      "channel": 2,
      "note": 52,
      "start": 13.7824,
      "duration": 0.0156,
      "velocity": 100,
      "chip": "ym2612"
    },
    {
      "channel": 4,
      "note": 59,
      "start": 13.7934,
      "duration": 0.0161,
      "velocity": 120,
      "chip": "ym2612"
    },
    {
      "channel": 3,
      "note": 66,
      "start": 13.7969,
      "duration": 0.0137,
      "velocity": 120,
      "chip": "ym2612"
    },
    {
      "channel": 2,
      "note": 52,
      "start": 13.798,
      "duration": 0.014,
      "velocity": 100,
      "chip": "ym2612"
    },
    {
      "channel": 4,
      "note": 59,
      "start": 13.8095,
      "duration": 0.0161,
      "velocity": 120,
      "chip": "ym2612"
    },
    {
      "channel": 3,
      "note": 66,
      "start": 13.8106,
      "duration": 0.0161,
      "velocity": 120,
      "chip": "ym2612"
    },
    {
      "channel": 2,
      "note": 52,
      "start": 13.812,
      "duration": 0.0186,
      "velocity": 100,
      "chip": "ym2612"
    },
    {
      "channel": 4,
      "note": 59,
      "start": 13.8256,
      "duration": 0.0161,
      "velocity": 120,
      "chip": "ym2612"
    },
    {
      "channel": 3,
      "note": 66,
      "start": 13.8267,
      "duration": 0.0161,
      "velocity": 120,
      "chip": "ym2612"
    },
    {
      "channel": 2,
      "note": 52,
      "start": 13.8306,
      "duration": 0.0134,
      "velocity": 100,
      "chip": "ym2612"
    },
    {
      "channel": 4,
      "note": 59,
      "start": 13.8417,
      "duration": 0.0161,
      "velocity": 120,
      "chip": "ym2612"
    },
    {
      "channel": 3,
      "note": 66,
      "start": 13.8428,
      "duration": 0.0161,
      "velocity": 120,
      "chip": "ym2612"
    },
    {
      "channel": 2,
      "note": 52,
      "start": 13.8439,
      "duration": 0.0161,
      "velocity": 100,
      "chip": "ym2612"
    },
    {
      "channel": 4,
      "note": 59,
      "start": 13.8578,
      "duration": 0.0161,
      "velocity": 120,
      "chip": "ym2612"
    },
    {
      "channel": 3,
      "note": 66,
      "start": 13.8589,
      "duration": 0.0161,
      "velocity": 120,
      "chip": "ym2612"
    },
    {
      "channel": 2,
      "note": 52,
      "start": 13.86,
      "duration": 0.0161,
      "velocity": 100,
      "chip": "ym2612"
    },
    {
      "channel": 4,
      "note": 59,
      "start": 13.8739,
      "duration": 0.0161,
      "velocity": 120,
      "chip": "ym2612"
    },
    {
      "channel": 3,
      "note": 66,
      "start": 13.875,
      "duration": 0.0161,
      "velocity": 120,
      "chip": "ym2612"
    },
    {
      "channel": 2,
      "note": 52,
      "start": 13.8761,
      "duration": 0.0161,
      "velocity": 100,
      "chip": "ym2612"
    },
    {
      "channel": 4,
      "note": 59,
      "start": 13.89,
      "duration": 0.0161,
      "velocity": 120,
      "chip": "ym2612"
    },
    {
      "channel": 3,
      "note": 66,
      "start": 13.8911,
      "duration": 0.0161,
      "velocity": 120,
      "chip": "ym2612"
    },
    {
      "channel": 2,
      "note": 52,
      "start": 13.8922,
      "duration": 0.0161,
      "velocity": 100,
      "chip": "ym2612"
    },
    {
      "channel": 4,
      "note": 59,
      "start": 13.9061,
      "duration": 0.0161,
      "velocity": 120,
      "chip": "ym2612"
    },
    {
      "channel": 3,
      "note": 66,
      "start": 13.9072,
      "duration": 0.0161,
      "velocity": 120,
      "chip": "ym2612"
    },
    {
      "channel": 2,
      "note": 52,
      "start": 13.9083,
      "duration": 0.0161,
      "velocity": 100,
      "chip": "ym2612"
    },
    {
      "channel": 4,
      "note": 59,
      "start": 13.9222,
      "duration": 0.0161,
      "velocity": 120,
      "chip": "ym2612"
    },
    {
      "channel": 3,
      "note": 66,
      "start": 13.9233,
      "duration": 0.0161,
      "velocity": 120,
      "chip": "ym2612"
    },
    {
      "channel": 2,
      "note": 52,
      "start": 13.9244,
      "duration": 0.0161,
      "velocity": 100,
      "chip": "ym2612"
    },
    {
      "channel": 4,
      "note": 59,
      "start": 13.9383,
      "duration": 0.0197,
      "velocity": 120,
      "chip": "ym2612"
    },
    {
      "channel": 3,
      "note": 66,
      "start": 13.9394,
      "duration": 0.02,
      "velocity": 120,
      "chip": "ym2612"
    },
    {
      "channel": 2,
      "note": 52,
      "start": 13.9405,
      "duration": 0.0232,
      "velocity": 100,
      "chip": "ym2612"
    },
    {
      "channel": 0,
      "note": 36,
      "start": 13.9567,
      "duration": 0.0144,
      "velocity": 115,
      "chip": "ym2612"
    },
    {
      "channel": 4,
      "note": 59,
      "start": 13.9581,
      "duration": 0.0142,
      "velocity": 120,
      "chip": "ym2612"
    },
    {
      "channel": 3,
      "note": 66,
      "start": 13.9595,
      "duration": 0.014,
      "velocity": 120,
      "chip": "ym2612"
    },
    {
      "channel": 2,
      "note": 52,
      "start": 13.9637,
      "duration": 0.011,
      "velocity": 100,
      "chip": "ym2612"
    },
    {
      "channel": 0,
      "note": 36,
      "start": 13.971,
      "duration": 0.016,
      "velocity": 115,
      "chip": "ym2612"
    },
    {
      "channel": 4,
      "note": 59,
      "start": 13.9723,
      "duration": 0.016,
      "velocity": 120,
      "chip": "ym2612"
    },
    {
      "channel": 3,
      "note": 66,
      "start": 13.9735,
      "duration": 0.0159,
      "velocity": 120,
      "chip": "ym2612"
    },
    {
      "channel": 2,
      "note": 52,
      "start": 13.9746,
      "duration": 0.0159,
      "velocity": 100,
      "chip": "ym2612"
    },
    {
      "channel": 0,
      "note": 37,
      "start": 13.9871,
      "duration": 0.0161,
      "velocity": 115,
      "chip": "ym2612"
    },
    {
      "channel": 4,
      "note": 59,
      "start": 13.9882,
      "duration": 0.0161,
      "velocity": 120,
      "chip": "ym2612"
    },
    {
      "channel": 3,
      "note": 66,
      "start": 13.9894,
      "duration": 0.0161,
      "velocity": 120,
      "chip": "ym2612"
    },
    {
      "channel": 2,
      "note": 52,
      "start": 13.9905,
      "duration": 0.0161,
      "velocity": 100,
      "chip": "ym2612"
    },
    {
      "channel": 0,
      "note": 37,
      "start": 14.0032,
      "duration": 0.0161,
      "velocity": 115,
      "chip": "ym2612"
    },
    {
      "channel": 4,
      "note": 59,
      "start": 14.0043,
      "duration": 0.0161,
      "velocity": 120,
      "chip": "ym2612"
    },
    {
      "channel": 3,
      "note": 66,
      "start": 14.0055,
      "duration": 0.0161,
      "velocity": 120,
      "chip": "ym2612"
    },
    {
      "channel": 2,
      "note": 52,
      "start": 14.0066,
      "duration": 0.0161,
      "velocity": 100,
      "chip": "ym2612"
    },
    {
      "channel": 0,
      "note": 38,
      "start": 14.0193,
      "duration": 0.0161,
      "velocity": 115,
      "chip": "ym2612"
    },
    {
      "channel": 4,
      "note": 59,
      "start": 14.0204,
      "duration": 0.0161,
      "velocity": 120,
      "chip": "ym2612"
    },
    {
      "channel": 3,
      "note": 66,
      "start": 14.0216,
      "duration": 0.0161,
      "velocity": 120,
      "chip": "ym2612"
    },
    {
      "channel": 2,
      "note": 52,
      "start": 14.0227,
      "duration": 0.0161,
      "velocity": 100,
      "chip": "ym2612"
    },
    {
      "channel": 0,
      "note": 38,
      "start": 14.0354,
      "duration": 0.0161,
      "velocity": 115,
      "chip": "ym2612"
    },
    {
      "channel": 4,
      "note": 59,
      "start": 14.0365,
      "duration": 0.0161,
      "velocity": 120,
      "chip": "ym2612"
    },
    {
      "channel": 3,
      "note": 66,
      "start": 14.0377,
      "duration": 0.0161,
      "velocity": 120,
      "chip": "ym2612"
    },
    {
      "channel": 2,
      "note": 52,
      "start": 14.0388,
      "duration": 0.0161,
      "velocity": 100,
      "chip": "ym2612"
    },
    {
      "channel": 0,
      "note": 39,
      "start": 14.0515,
      "duration": 0.0161,
      "velocity": 115,
      "chip": "ym2612"
    },
    {
      "channel": 4,
      "note": 59,
      "start": 14.0526,
      "duration": 0.0162,
      "velocity": 120,
      "chip": "ym2612"
    },
    {
      "channel": 3,
      "note": 66,
      "start": 14.0537,
      "duration": 0.0161,
      "velocity": 120,
      "chip": "ym2612"
    },
    {
      "channel": 2,
      "note": 52,
      "start": 14.0549,
      "duration": 0.0161,
      "velocity": 100,
      "chip": "ym2612"
    },
    {
      "channel": 0,
      "note": 39,
      "start": 14.0676,
      "duration": 0.0162,
      "velocity": 115,
      "chip": "ym2612"
    },
    {
      "channel": 4,
      "note": 59,
      "start": 14.0688,
      "duration": 0.0161,
      "velocity": 120,
      "chip": "ym2612"
    },
    {
      "channel": 3,
      "note": 66,
      "start": 14.0698,
      "duration": 0.0162,
      "velocity": 120,
      "chip": "ym2612"
    },
    {
      "channel": 2,
      "note": 52,
      "start": 14.071,
      "duration": 0.0161,
      "velocity": 100,
      "chip": "ym2612"
    },
    {
      "channel": 0,
      "note": 40,
      "start": 14.0837,
      "duration": 0.0161,
      "velocity": 115,
      "chip": "ym2612"
    },
    {
      "channel": 4,
      "note": 59,
      "start": 14.0849,
      "duration": 0.0161,
      "velocity": 120,
      "chip": "ym2612"
    },
    {
      "channel": 3,
      "note": 66,
      "start": 14.086,
      "duration": 0.0161,
      "velocity": 120,
      "chip": "ym2612"
    },
    {
      "channel": 2,
      "note": 52,
      "start": 14.0871,
      "duration": 0.0161,
      "velocity": 100,
      "chip": "ym2612"
    },
    {
      "channel": 0,
      "note": 40,
      "start": 14.0998,
      "duration": 0.0161,
      "velocity": 115,
      "chip": "ym2612"
    },
    {
      "channel": 4,
      "note": 59,
      "start": 14.101,
      "duration": 0.0161,
      "velocity": 120,
      "chip": "ym2612"
    },
    {
      "channel": 3,
      "note": 66,
      "start": 14.1021,
      "duration": 0.0161,
      "velocity": 120,
      "chip": "ym2612"
    },
    {
      "channel": 2,
      "note": 52,
      "start": 14.1032,
      "duration": 0.0161,
      "velocity": 100,
      "chip": "ym2612"
    },
    {
      "channel": 0,
      "note": 40,
      "start": 14.1159,
      "duration": 0.0161,
      "velocity": 115,
      "chip": "ym2612"
    },
    {
      "channel": 4,
      "note": 59,
      "start": 14.1171,
      "duration": 0.0161,
      "velocity": 120,
      "chip": "ym2612"
    },
    {
      "channel": 3,
      "note": 66,
      "start": 14.1182,
      "duration": 0.0161,
      "velocity": 120,
      "chip": "ym2612"
    },
    {
      "channel": 2,
      "note": 52,
      "start": 14.1193,
      "duration": 0.0162,
      "velocity": 100,
      "chip": "ym2612"
    },
    {
      "channel": 0,
      "note": 41,
      "start": 14.132,
      "duration": 0.0161,
      "velocity": 115,
      "chip": "ym2612"
    },
    {
      "channel": 4,
      "note": 59,
      "start": 14.1332,
      "duration": 0.0163,
      "velocity": 120,
      "chip": "ym2612"
    },
    {
      "channel": 3,
      "note": 66,
      "start": 14.1343,
      "duration": 0.0165,
      "velocity": 120,
      "chip": "ym2612"
    },
    {
      "channel": 2,
      "note": 52,
      "start": 14.1354,
      "duration": 0.0168,
      "velocity": 100,
      "chip": "ym2612"
    },
    {
      "channel": 0,
      "note": 41,
      "start": 14.1481,
      "duration": 0.0172,
      "velocity": 115,
      "chip": "ym2612"
    },
    {
      "channel": 4,
      "note": 59,
      "start": 14.1495,
      "duration": 0.0171,
      "velocity": 120,
      "chip": "ym2612"
    },
    {
      "channel": 3,
      "note": 66,
      "start": 14.1509,
      "duration": 0.0169,
      "velocity": 120,
      "chip": "ym2612"
    },
    {
      "channel": 2,
      "note": 52,
      "start": 14.1524,
      "duration": 0.0166,
      "velocity": 100,
      "chip": "ym2612"
    },
    {
      "channel": 0,
      "note": 42,
      "start": 14.1653,
      "duration": 0.0167,
      "velocity": 115,
      "chip": "ym2612"
    },
    {
      "channel": 4,
      "note": 59,
      "start": 14.1665,
      "duration": 0.0167,
      "velocity": 120,
      "chip": "ym2612"
    },
    {
      "channel": 3,
      "note": 66,
      "start": 14.1678,
      "duration": 0.0166,
      "velocity": 120,
      "chip": "ym2612"
    },
    {
      "channel": 2,
      "note": 52,
      "start": 14.169,
      "duration": 0.0165,
      "velocity": 100,
      "chip": "ym2612"
    },
    {
      "channel": 0,
      "note": 42,
      "start": 14.1821,
      "duration": 0.0163,
      "velocity": 115,
      "chip": "ym2612"
    },
    {
      "channel": 4,
      "note": 59,
      "start": 14.1832,
      "duration": 0.0163,
      "velocity": 120,
      "chip": "ym2612"
    },
    {
      "channel": 3,
      "note": 66,
      "start": 14.1844,
      "duration": 0.0163,
      "velocity": 120,
      "chip": "ym2612"
    },
    {
      "channel": 2,
      "note": 52,
      "start": 14.1854,
      "duration": 0.0163,
      "velocity": 100,
      "chip": "ym2612"
    },
    {
      "channel": 0,
      "note": 43,
      "start": 14.1983,
      "duration": 0.0145,
      "velocity": 115,
      "chip": "ym2612"
    },
    {
      "channel": 4,
      "note": 59,
      "start": 14.1995,
      "duration": 0.0145,
      "velocity": 120,
      "chip": "ym2612"
    },
    {
      "channel": 3,
      "note": 66,
      "start": 14.2006,
      "duration": 0.0145,
      "velocity": 120,
      "chip": "ym2612"
    },
    {
      "channel": 2,
      "note": 52,
      "start": 14.2018,
      "duration": 0.0144,
      "velocity": 100,
      "chip": "ym2612"
    },
    {
      "channel": 0,
      "note": 43,
      "start": 14.2129,
      "duration": 0.0185,
      "velocity": 115,
      "chip": "ym2612"
    },
    {
      "channel": 4,
      "note": 59,
      "start": 14.214,
      "duration": 0.0185,
      "velocity": 120,
      "chip": "ym2612"
    },
    {
      "channel": 3,
      "note": 66,
      "start": 14.2151,
      "duration": 0.0185,
      "velocity": 120,
      "chip": "ym2612"
    },
    {
      "channel": 2,
      "note": 52,
      "start": 14.2162,
      "duration": 0.0186,
      "velocity": 100,
      "chip": "ym2612"
    },
    {
      "channel": 0,
      "note": 44,
      "start": 14.2314,
      "duration": 0.0161,
      "velocity": 115,
      "chip": "ym2612"
    },
    {
      "channel": 4,
      "note": 59,
      "start": 14.2325,
      "duration": 0.0161,
      "velocity": 120,
      "chip": "ym2612"
    },
    {
      "channel": 3,
      "note": 66,
      "start": 14.2337,
      "duration": 0.0161,
      "velocity": 120,
      "chip": "ym2612"
    },
    {
      "channel": 2,
      "note": 52,
      "start": 14.2348,
      "duration": 0.016,
      "velocity": 100,
      "chip": "ym2612"
    },
    {
      "channel": 0,
      "note": 44,
      "start": 14.2475,
      "duration": 0.0157,
      "velocity": 115,
      "chip": "ym2612"
    },
    {
      "channel": 4,
      "note": 59,
      "start": 14.2486,
      "duration": 0.0158,
      "velocity": 120,
      "chip": "ym2612"
    },
    {
      "channel": 3,
      "note": 66,
      "start": 14.2498,
      "duration": 0.0157,
      "velocity": 120,
      "chip": "ym2612"
    },
    {
      "channel": 2,
      "note": 52,
      "start": 14.2508,
      "duration": 0.0158,
      "velocity": 100,
      "chip": "ym2612"
    },
    {
      "channel": 0,
      "note": 44,
      "start": 14.2632,
      "duration": 0.0137,
      "velocity": 115,
      "chip": "ym2612"
    },
    {
      "channel": 4,
      "note": 59,
      "start": 14.2644,
      "duration": 0.014,
      "velocity": 120,
      "chip": "ym2612"
    },
    {
      "channel": 3,
      "note": 66,
      "start": 14.2655,
      "duration": 0.0141,
      "velocity": 120,
      "chip": "ym2612"
    },
    {
      "channel": 2,
      "note": 52,
      "start": 14.2666,
      "duration": 0.0141,
      "velocity": 100,
      "chip": "ym2612"
    },
    {
      "channel": 0,
      "note": 45,
      "start": 14.2769,
      "duration": 0.0161,
      "velocity": 115,
      "chip": "ym2612"
    },
    {
      "channel": 4,
      "note": 59,
      "start": 14.2784,
      "duration": 0.0185,
      "velocity": 120,
      "chip": "ym2612"
    },
    {
      "channel": 3,
      "note": 66,
      "start": 14.2795,
      "duration": 0.0185,
      "velocity": 120,
      "chip": "ym2612"
    },
    {
      "channel": 2,
      "note": 52,
      "start": 14.2807,
      "duration": 0.0185,
      "velocity": 100,
      "chip": "ym2612"
    },
    {
      "channel": 0,
      "note": 45,
      "start": 14.293,
      "duration": 0.0161,
      "velocity": 115,
      "chip": "ym2612"
    },
    {
      "channel": 4,
      "note": 59,
      "start": 14.2969,
      "duration": 0.0134,
      "velocity": 120,
      "chip": "ym2612"
    },
    {
      "channel": 3,
      "note": 66,
      "start": 14.298,
      "duration": 0.0161,
      "velocity": 120,
      "chip": "ym2612"
    },
    {
      "channel": 2,
      "note": 52,
      "start": 14.2992,
      "duration": 0.0161,
      "velocity": 100,
      "chip": "ym2612"
    },
    {
      "channel": 0,
      "note": 46,
      "start": 14.3091,
      "duration": 0.0161,
      "velocity": 115,
      "chip": "ym2612"
    },
    {
      "channel": 4,
      "note": 59,
      "start": 14.3102,
      "duration": 0.0161,
      "velocity": 120,
      "chip": "ym2612"
    },
    {
      "channel": 3,
      "note": 66,
      "start": 14.3141,
      "duration": 0.0157,
      "velocity": 120,
      "chip": "ym2612"
    },
    {
      "channel": 2,
      "note": 52,
      "start": 14.3153,
      "duration": 0.0157,
      "velocity": 100,
      "chip": "ym2612"
    },
    {
      "channel": 0,
      "note": 46,
      "start": 14.3252,
      "duration": 0.0179,
      "velocity": 124,
      "chip": "ym2612"
    },
    {
      "channel": 4,
      "note": 59,
      "start": 14.3263,
      "duration": 0.0185,
      "velocity": 120,
      "chip": "ym2612"
    },
    {
      "channel": 3,
      "note": 66,
      "start": 14.3298,
      "duration": 0.0163,
      "velocity": 120,
      "chip": "ym2612"
    },
    {
      "channel": 2,
      "note": 52,
      "start": 14.331,
      "duration": 0.0167,
      "velocity": 100,
      "chip": "ym2612"
    },
    {
      "channel": 0,
      "note": 84,
      "start": 14.3431,
      "duration": 0.0143,
      "velocity": 124,
      "chip": "ym2612"
    },
    {
      "channel": 4,
      "note": 59,
      "start": 14.3449,
      "duration": 0.0138,
      "velocity": 120,
      "chip": "ym2612"
    },
    {
      "channel": 3,
      "note": 66,
      "start": 14.3462,
      "duration": 0.0136,
      "velocity": 120,
      "chip": "ym2612"
    },
    {
      "channel": 2,
      "note": 52,
      "start": 14.3477,
      "duration": 0.0161,
      "velocity": 100,
      "chip": "ym2612"
    },
    {
      "channel": 0,
      "note": 82,
      "start": 14.3574,
      "duration": 0.0161,
      "velocity": 124,
      "chip": "ym2612"
    },
    {
      "channel": 4,
      "note": 59,
      "start": 14.3586,
      "duration": 0.016,
      "velocity": 120,
      "chip": "ym2612"
    },
    {
      "channel": 3,
      "note": 66,
      "start": 14.3599,
      "duration": 0.016,
      "velocity": 120,
      "chip": "ym2612"
    },
    {
      "channel": 2,
      "note": 52,
      "start": 14.3638,
      "duration": 0.0131,
      "velocity": 100,
      "chip": "ym2612"
    },
    {
      "channel": 0,
      "note": 80,
      "start": 14.3735,
      "duration": 0.0161,
      "velocity": 124,
      "chip": "ym2612"
    },
    {
      "channel": 4,
      "note": 59,
      "start": 14.3747,
      "duration": 0.0161,
      "velocity": 120,
      "chip": "ym2612"
    },
    {
      "channel": 3,
      "note": 66,
      "start": 14.3758,
      "duration": 0.0161,
      "velocity": 120,
      "chip": "ym2612"
    },
    {
      "channel": 2,
      "note": 52,
      "start": 14.3769,
      "duration": 0.0161,
      "velocity": 100,
      "chip": "ym2612"
    },
    {
      "channel": 0,
      "note": 77,
      "start": 14.3896,
      "duration": 0.0161,
      "velocity": 124,
      "chip": "ym2612"
    },
    {
      "channel": 4,
      "note": 59,
      "start": 14.3908,
      "duration": 0.0161,
      "velocity": 120,
      "chip": "ym2612"
    },
    {
      "channel": 3,
      "note": 66,
      "start": 14.3919,
      "duration": 0.0161,
      "velocity": 120,
      "chip": "ym2612"
    },
    {
      "channel": 2,
      "note": 52,
      "start": 14.393,
      "duration": 0.0161,
      "velocity": 100,
      "chip": "ym2612"
    },
    {
      "channel": 0,
      "note": 75,
      "start": 14.4057,
      "duration": 0.0161,
      "velocity": 124,
      "chip": "ym2612"
    },
    {
      "channel": 4,
      "note": 59,
      "start": 14.4069,
      "duration": 0.0161,
      "velocity": 120,
      "chip": "ym2612"
    },
    {
      "channel": 3,
      "note": 66,
      "start": 14.408,
      "duration": 0.0161,
      "velocity": 120,
      "chip": "ym2612"
    },
    {
      "channel": 2,
      "note": 52,
      "start": 14.4091,
      "duration": 0.0162,
      "velocity": 100,
      "chip": "ym2612"
    },
    {
      "channel": 0,
      "note": 72,
      "start": 14.4218,
      "duration": 0.0161,
      "velocity": 124,
      "chip": "ym2612"
    },
    {
      "channel": 4,
      "note": 59,
      "start": 14.423,
      "duration": 0.0161,
      "velocity": 120,
      "chip": "ym2612"
    },
    {
      "channel": 3,
      "note": 66,
      "start": 14.4241,
      "duration": 0.0161,
      "velocity": 120,
      "chip": "ym2612"
    },
    {
      "channel": 2,
      "note": 52,
      "start": 14.4253,
      "duration": 0.0161,
      "velocity": 100,
      "chip": "ym2612"
    },
    {
      "channel": 0,
      "note": 70,
      "start": 14.4379,
      "duration": 0.0161,
      "velocity": 124,
      "chip": "ym2612"
    },
    {
      "channel": 4,
      "note": 59,
      "start": 14.439,
      "duration": 0.0161,
      "velocity": 120,
      "chip": "ym2612"
    },
    {
      "channel": 3,
      "note": 66,
      "start": 14.4402,
      "duration": 0.0161,
      "velocity": 120,
      "chip": "ym2612"
    },
    {
      "channel": 2,
      "note": 52,
      "start": 14.4413,
      "duration": 0.0161,
      "velocity": 100,
      "chip": "ym2612"
    },
    {
      "channel": 0,
      "note": 68,
      "start": 14.454,
      "duration": 0.0161,
      "velocity": 124,
      "chip": "ym2612"
    },
    {
      "channel": 4,
      "note": 59,
      "start": 14.4551,
      "duration": 0.0161,
      "velocity": 120,
      "chip": "ym2612"
    },
    {
      "channel": 3,
      "note": 66,
      "start": 14.4563,
      "duration": 0.0161,
      "velocity": 120,
      "chip": "ym2612"
    },
    {
      "channel": 2,
      "note": 52,
      "start": 14.4574,
      "duration": 0.0161,
      "velocity": 100,
      "chip": "ym2612"
    },
    {
      "channel": 0,
      "note": 65,
      "start": 14.4701,
      "duration": 0.0161,
      "velocity": 124,
      "chip": "ym2612"
    },
    {
      "channel": 4,
      "note": 59,
      "start": 14.4712,
      "duration": 0.0161,
      "velocity": 120,
      "chip": "ym2612"
    },
    {
      "channel": 3,
      "note": 66,
      "start": 14.4724,
      "duration": 0.0161,
      "velocity": 120,
      "chip": "ym2612"
    },
    {
      "channel": 2,
      "note": 52,
      "start": 14.4735,
      "duration": 0.0161,
      "velocity": 100,
      "chip": "ym2612"
    },
    {
      "channel": 0,
      "note": 63,
      "start": 14.4862,
      "duration": 0.0153,
      "velocity": 1,
      "chip": "ym2612"
    },
    {
      "channel": 4,
      "note": 59,
      "start": 14.4873,
      "duration": 0.0153,
      "velocity": 120,
      "chip": "ym2612"
    },
    {
      "channel": 3,
      "note": 66,
      "start": 14.4885,
      "duration": 0.0153,
      "velocity": 120,
      "chip": "ym2612"
    },
    {
      "channel": 2,
      "note": 52,
      "start": 14.4896,
      "duration": 0.0153,
      "velocity": 100,
      "chip": "ym2612"
    },
    {
      "channel": 4,
      "note": 59,
      "start": 14.5027,
      "duration": 0.0153,
      "velocity": 120,
      "chip": "ym2612"
    },
    {
      "channel": 3,
      "note": 66,
      "start": 14.5038,
      "duration": 0.0153,
      "velocity": 120,
      "chip": "ym2612"
    },
    {
      "channel": 2,
      "note": 52,
      "start": 14.5049,
      "duration": 0.0153,
      "velocity": 100,
      "chip": "ym2612"
    },
    {
      "channel": 4,
      "note": 59,
      "start": 14.5179,
      "duration": 0.0197,
      "velocity": 120,
      "chip": "ym2612"
    },
    {
      "channel": 3,
      "note": 66,
      "start": 14.5191,
      "duration": 0.02,
      "velocity": 120,
      "chip": "ym2612"
    },
    {
      "channel": 2,
      "note": 52,
      "start": 14.5202,
      "duration": 0.0204,
      "velocity": 100,
      "chip": "ym2612"
    },
    {
      "channel": 0,
      "note": 36,
      "start": 14.5363,
      "duration": 0.0144,
      "velocity": 115,
      "chip": "ym2612"
    },
    {
      "channel": 4,
      "note": 59,
      "start": 14.5377,
      "duration": 0.0142,
      "velocity": 120,
      "chip": "ym2612"
    },
    {
      "channel": 3,
      "note": 66,
      "start": 14.5391,
      "duration": 0.0139,
      "velocity": 120,
      "chip": "ym2612"
    },
    {
      "channel": 2,
      "note": 52,
      "start": 14.5406,
      "duration": 0.0137,
      "velocity": 100,
      "chip": "ym2612"
    },
    {
      "channel": 0,
      "note": 36,
      "start": 14.5507,
      "duration": 0.016,
      "velocity": 115,
      "chip": "ym2612"
    },
    {
      "channel": 4,
      "note": 59,
      "start": 14.5519,
      "duration": 0.016,
      "velocity": 120,
      "chip": "ym2612"
    },
    {
      "channel": 3,
      "note": 66,
      "start": 14.5531,
      "duration": 0.016,
      "velocity": 120,
      "chip": "ym2612"
    },
    {
      "channel": 2,
      "note": 52,
      "start": 14.5543,
      "duration": 0.0159,
      "velocity": 100,
      "chip": "ym2612"
    },
    {
      "channel": 0,
      "note": 37,
      "start": 14.5667,
      "duration": 0.0161,
      "velocity": 115,
      "chip": "ym2612"
    },
    {
      "channel": 4,
      "note": 59,
      "start": 14.5679,
      "duration": 0.0161,
      "velocity": 120,
      "chip": "ym2612"
    },
    {
      "channel": 3,
      "note": 66,
      "start": 14.569,
      "duration": 0.0161,
      "velocity": 120,
      "chip": "ym2612"
    },
    {
      "channel": 2,
      "note": 52,
      "start": 14.5702,
      "duration": 0.0161,
      "velocity": 100,
      "chip": "ym2612"
    },
    {
      "channel": 0,
      "note": 37,
      "start": 14.5828,
      "duration": 0.0161,
      "velocity": 115,
      "chip": "ym2612"
    },
    {
      "channel": 4,
      "note": 59,
      "start": 14.584,
      "duration": 0.0161,
      "velocity": 120,
      "chip": "ym2612"
    },
    {
      "channel": 3,
      "note": 66,
      "start": 14.5851,
      "duration": 0.0161,
      "velocity": 120,
      "chip": "ym2612"
    },
    {
      "channel": 2,
      "note": 52,
      "start": 14.5863,
      "duration": 0.0161,
      "velocity": 100,
      "chip": "ym2612"
    },
    {
      "channel": 0,
      "note": 38,
      "start": 14.5989,
      "duration": 0.0161,
      "velocity": 115,
      "chip": "ym2612"
    },
    {
      "channel": 4,
      "note": 59,
      "start": 14.6001,
      "duration": 0.0161,
      "velocity": 120,
      "chip": "ym2612"
    },
    {
      "channel": 3,
      "note": 66,
      "start": 14.6012,
      "duration": 0.0161,
      "velocity": 120,
      "chip": "ym2612"
    },
    {
      "channel": 2,
      "note": 52,
      "start": 14.6024,
      "duration": 0.0161,
      "velocity": 100,
      "chip": "ym2612"
    },
    {
      "channel": 0,
      "note": 38,
      "start": 14.615,
      "duration": 0.0171,
      "velocity": 115,
      "chip": "ym2612"
    },
    {
      "channel": 4,
      "note": 59,
      "start": 14.6161,
      "duration": 0.0171,
      "velocity": 120,
      "chip": "ym2612"
    },
    {
      "channel": 3,
      "note": 66,
      "start": 14.6173,
      "duration": 0.0171,
      "velocity": 120,
      "chip": "ym2612"
    },
    {
      "channel": 2,
      "note": 52,
      "start": 14.6184,
      "duration": 0.017,
      "velocity": 100,
      "chip": "ym2612"
    },
    {
      "channel": 0,
      "note": 39,
      "start": 14.6321,
      "duration": 0.0167,
      "velocity": 115,
      "chip": "ym2612"
    },
    {
      "channel": 4,
      "note": 59,
      "start": 14.6332,
      "duration": 0.0167,
      "velocity": 120,
      "chip": "ym2612"
    },
    {
      "channel": 3,
      "note": 66,
      "start": 14.6344,
      "duration": 0.0167,
      "velocity": 120,
      "chip": "ym2612"
    },
    {
      "channel": 2,
      "note": 52,
      "start": 14.6354,
      "duration": 0.0167,
      "velocity": 100,
      "chip": "ym2612"
    },
    {
      "channel": 0,
      "note": 39,
      "start": 14.6487,
      "duration": 0.0163,
      "velocity": 115,
      "chip": "ym2612"
    },
    {
      "channel": 4,
      "note": 59,
      "start": 14.6499,
      "duration": 0.0163,
      "velocity": 120,
      "chip": "ym2612"
    },
    {
      "channel": 3,
      "note": 66,
      "start": 14.651,
      "duration": 0.0163,
      "velocity": 120,
      "chip": "ym2612"
    },
    {
      "channel": 2,
      "note": 52,
      "start": 14.6521,
      "duration": 0.0163,
      "velocity": 100,
      "chip": "ym2612"
    },
    {
      "channel": 0,
      "note": 40,
      "start": 14.665,
      "duration": 0.0146,
      "velocity": 115,
      "chip": "ym2612"
    },
    {
      "channel": 4,
      "note": 59,
      "start": 14.6661,
      "duration": 0.0146,
      "velocity": 120,
      "chip": "ym2612"
    },
    {
      "channel": 3,
      "note": 66,
      "start": 14.6673,
      "duration": 0.0146,
      "velocity": 120,
      "chip": "ym2612"
    },
    {
      "channel": 2,
      "note": 52,
      "start": 14.6684,
      "duration": 0.0146,
      "velocity": 100,
      "chip": "ym2612"
    },
    {
      "channel": 0,
      "note": 40,
      "start": 14.6796,
      "duration": 0.0186,
      "velocity": 115,
      "chip": "ym2612"
    },
    {
      "channel": 4,
      "note": 59,
      "start": 14.6808,
      "duration": 0.0186,
      "velocity": 120,
      "chip": "ym2612"
    },
    {
      "channel": 3,
      "note": 66,
      "start": 14.6819,
      "duration": 0.0186,
      "velocity": 120,
      "chip": "ym2612"
    },
    {
      "channel": 2,
      "note": 52,
      "start": 14.6831,
      "duration": 0.0186,
      "velocity": 100,
      "chip": "ym2612"
    },
    {
      "channel": 0,
      "note": 40,
      "start": 14.6983,
      "duration": 0.0161,
      "velocity": 115,
      "chip": "ym2612"
    },
    {
      "channel": 4,
      "note": 59,
      "start": 14.6994,
      "duration": 0.0161,
      "velocity": 120,
      "chip": "ym2612"
    },
    {
      "channel": 3,
      "note": 66,
      "start": 14.7006,
      "duration": 0.0161,
      "velocity": 120,
      "chip": "ym2612"
    },
    {
      "channel": 2,
      "note": 52,
      "start": 14.7017,
      "duration": 0.0161,
      "velocity": 100,
      "chip": "ym2612"
    },
    {
      "channel": 0,
      "note": 41,
      "start": 14.7144,
      "duration": 0.0175,
      "velocity": 115,
      "chip": "ym2612"
    },
    {
      "channel": 4,
      "note": 59,
      "start": 14.7155,
      "duration": 0.0178,
      "velocity": 120,
      "chip": "ym2612"
    },
    {
      "channel": 3,
      "note": 66,
      "start": 14.7167,
      "duration": 0.018,
      "velocity": 120,
      "chip": "ym2612"
    },
    {
      "channel": 2,
      "note": 52,
      "start": 14.7178,
      "duration": 0.0183,
      "velocity": 100,
      "chip": "ym2612"
    },
    {
      "channel": 0,
      "note": 36,
      "start": 14.7319,
      "duration": 0.012,
      "velocity": 115,
      "chip": "ym2612"
    },
    {
      "channel": 4,
      "note": 59,
      "start": 14.7333,
      "duration": 0.0121,
      "velocity": 120,
      "chip": "ym2612"
    },
    {
      "channel": 3,
      "note": 66,
      "start": 14.7347,
      "duration": 0.0119,
      "velocity": 120,
      "chip": "ym2612"
    },
    {
      "channel": 2,
      "note": 52,
      "start": 14.7362,
      "duration": 0.0117,
      "velocity": 100,
      "chip": "ym2612"
    },
    {
      "channel": 0,
      "note": 36,
      "start": 14.7439,
      "duration": 0.016,
      "velocity": 115,
      "chip": "ym2612"
    },
    {
      "channel": 4,
      "note": 59,
      "start": 14.7454,
      "duration": 0.0184,
      "velocity": 120,
      "chip": "ym2612"
    },
    {
      "channel": 3,
      "note": 66,
      "start": 14.7466,
      "duration": 0.0183,
      "velocity": 120,
      "chip": "ym2612"
    },
    {
      "channel": 2,
      "note": 52,
      "start": 14.7478,
      "duration": 0.0183,
      "velocity": 100,
      "chip": "ym2612"
    },
    {
      "channel": 0,
      "note": 37,
      "start": 14.7599,
      "duration": 0.0161,
      "velocity": 115,
      "chip": "ym2612"
    },
    {
      "channel": 4,
      "note": 59,
      "start": 14.7638,
      "duration": 0.0134,
      "velocity": 120,
      "chip": "ym2612"
    },
    {
      "channel": 3,
      "note": 66,
      "start": 14.7649,
      "duration": 0.0161,
      "velocity": 120,
      "chip": "ym2612"
    },
    {
      "channel": 2,
      "note": 52,
      "start": 14.7661,
      "duration": 0.0161,
      "velocity": 100,
      "chip": "ym2612"
    },
    {
      "channel": 0,
      "note": 37,
      "start": 14.776,
      "duration": 0.0161,
      "velocity": 115,
      "chip": "ym2612"
    },
    {
      "channel": 4,
      "note": 59,
      "start": 14.7772,
      "duration": 0.0161,
      "velocity": 120,
      "chip": "ym2612"
    },
    {
      "channel": 3,
      "note": 66,
      "start": 14.781,
      "duration": 0.0158,
      "velocity": 120,
      "chip": "ym2612"
    },
    {
      "channel": 2,
      "note": 52,
      "start": 14.7822,
      "duration": 0.0158,
      "velocity": 100,
      "chip": "ym2612"
    },
    {
      "channel": 0,
      "note": 38,
      "start": 14.7921,
      "duration": 0.0161,
      "velocity": 115,
      "chip": "ym2612"
    },
    {
      "channel": 4,
      "note": 59,
      "start": 14.7933,
      "duration": 0.0161,
      "velocity": 120,
      "chip": "ym2612"
    },
    {
      "channel": 3,
      "note": 66,
      "start": 14.7968,
      "duration": 0.0137,
      "velocity": 120,
      "chip": "ym2612"
    },
    {
      "channel": 2,
      "note": 52,
      "start": 14.798,
      "duration": 0.014,
      "velocity": 100,
      "chip": "ym2612"
    },
    {
      "channel": 0,
      "note": 38,
      "start": 14.8082,
      "duration": 0.0161,
      "velocity": 115,
      "chip": "ym2612"
    },
    {
      "channel": 4,
      "note": 59,
      "start": 14.8094,
      "duration": 0.0161,
      "velocity": 120,
      "chip": "ym2612"
    },
    {
      "channel": 3,
      "note": 66,
      "start": 14.8105,
      "duration": 0.0161,
      "velocity": 120,
      "chip": "ym2612"
    },
    {
      "channel": 2,
      "note": 52,
      "start": 14.812,
      "duration": 0.0186,
      "velocity": 100,
      "chip": "ym2612"
    },
    {
      "channel": 0,
      "note": 39,
      "start": 14.8244,
      "duration": 0.0161,
      "velocity": 115,
      "chip": "ym2612"
    },
    {
      "channel": 4,
      "note": 59,
      "start": 14.8255,
      "duration": 0.0161,
      "velocity": 120,
      "chip": "ym2612"
    },
    {
      "channel": 3,
      "note": 66,
      "start": 14.8266,
      "duration": 0.0161,
      "velocity": 120,
      "chip": "ym2612"
    },
    {
      "channel": 2,
      "note": 52,
      "start": 14.8305,
      "duration": 0.0133,
      "velocity": 100,
      "chip": "ym2612"
    },
    {
      "channel": 0,
      "note": 39,
      "start": 14.8405,
      "duration": 0.0161,
      "velocity": 115,
      "chip": "ym2612"
    },
    {
      "channel": 4,
      "note": 59,
      "start": 14.8416,
      "duration": 0.0161,
      "velocity": 120,
      "chip": "ym2612"
    },
    {
      "channel": 3,
      "note": 66,
      "start": 14.8427,
      "duration": 0.0161,
      "velocity": 120,
      "chip": "ym2612"
    },
    {
      "channel": 2,
      "note": 52,
      "start": 14.8438,
      "duration": 0.0161,
      "velocity": 100,
      "chip": "ym2612"
    },
    {
      "channel": 0,
      "note": 40,
      "start": 14.8566,
      "duration": 0.0161,
      "velocity": 115,
      "chip": "ym2612"
    },
    {
      "channel": 4,
      "note": 59,
      "start": 14.8577,
      "duration": 0.0161,
      "velocity": 120,
      "chip": "ym2612"
    },
    {
      "channel": 3,
      "note": 66,
      "start": 14.8588,
      "duration": 0.0161,
      "velocity": 120,
      "chip": "ym2612"
    },
    {
      "channel": 2,
      "note": 52,
      "start": 14.86,
      "duration": 0.0161,
      "velocity": 100,
      "chip": "ym2612"
    },
    {
      "channel": 0,
      "note": 40,
      "start": 14.8727,
      "duration": 0.0161,
      "velocity": 115,
      "chip": "ym2612"
    },
    {
      "channel": 4,
      "note": 59,
      "start": 14.8738,
      "duration": 0.0161,
      "velocity": 120,
      "chip": "ym2612"
    },
    {
      "channel": 3,
      "note": 66,
      "start": 14.8749,
      "duration": 0.0161,
      "velocity": 120,
      "chip": "ym2612"
    },
    {
      "channel": 2,
      "note": 52,
      "start": 14.8761,
      "duration": 0.0161,
      "velocity": 100,
      "chip": "ym2612"
    },
    {
      "channel": 0,
      "note": 40,
      "start": 14.8887,
      "duration": 0.0161,
      "velocity": 115,
      "chip": "ym2612"
    },
    {
      "channel": 4,
      "note": 59,
      "start": 14.8899,
      "duration": 0.0161,
      "velocity": 120,
      "chip": "ym2612"
    },
    {
      "channel": 3,
      "note": 66,
      "start": 14.891,
      "duration": 0.0161,
      "velocity": 120,
      "chip": "ym2612"
    },
    {
      "channel": 2,
      "note": 52,
      "start": 14.8922,
      "duration": 0.0161,
      "velocity": 100,
      "chip": "ym2612"
    },
    {
      "channel": 0,
      "note": 41,
      "start": 14.9048,
      "duration": 0.0179,
      "velocity": 115,
      "chip": "ym2612"
    },
    {
      "channel": 4,
      "note": 59,
      "start": 14.906,
      "duration": 0.0181,
      "velocity": 120,
      "chip": "ym2612"
    },
    {
      "channel": 3,
      "note": 66,
      "start": 14.9071,
      "duration": 0.0184,
      "velocity": 120,
      "chip": "ym2612"
    },
    {
      "channel": 2,
      "note": 52,
      "start": 14.9083,
      "duration": 0.0187,
      "velocity": 100,
      "chip": "ym2612"
    },
    {
      "channel": 0,
      "note": 36,
      "start": 14.9227,
      "duration": 0.0144,
      "velocity": 115,
      "chip": "ym2612"
    },
    {
      "channel": 4,
      "note": 59,
      "start": 14.9242,
      "duration": 0.0141,
      "velocity": 120,
      "chip": "ym2612"
    },
    {
      "channel": 3,
      "note": 66,
      "start": 14.9256,
      "duration": 0.0139,
      "velocity": 120,
      "chip": "ym2612"
    },
    {
      "channel": 2,
      "note": 52,
      "start": 14.927,
      "duration": 0.0137,
      "velocity": 100,
      "chip": "ym2612"
    },
    {
      "channel": 0,
      "note": 36,
      "start": 14.9371,
      "duration": 0.0161,
      "velocity": 115,
      "chip": "ym2612"
    },
    {
      "channel": 4,
      "note": 59,
      "start": 14.9383,
      "duration": 0.016,
      "velocity": 120,
      "chip": "ym2612"
    },
    {
      "channel": 3,
      "note": 66,
      "start": 14.9395,
      "duration": 0.016,
      "velocity": 120,
      "chip": "ym2612"
    },
    {
      "channel": 2,
      "note": 52,
      "start": 14.9407,
      "duration": 0.0159,
      "velocity": 100,
      "chip": "ym2612"
    },
    {
      "channel": 0,
      "note": 37,
      "start": 14.9532,
      "duration": 0.0161,
      "velocity": 115,
      "chip": "ym2612"
    },
    {
      "channel": 4,
      "note": 59,
      "start": 14.9543,
      "duration": 0.0161,
      "velocity": 120,
      "chip": "ym2612"
    },
    {
      "channel": 3,
      "note": 66,
      "start": 14.9555,
      "duration": 0.0161,
      "velocity": 120,
      "chip": "ym2612"
    },
    {
      "channel": 2,
      "note": 52,
      "start": 14.9566,
      "duration": 0.0161,
      "velocity": 100,
      "chip": "ym2612"
    },
    {
      "channel": 0,
      "note": 37,
      "start": 14.9693,
      "duration": 0.0161,
      "velocity": 115,
      "chip": "ym2612"
    },
    {
      "channel": 4,
      "note": 59,
      "start": 14.9704,
      "duration": 0.0161,
      "velocity": 120,
      "chip": "ym2612"
    },
    {
      "channel": 3,
      "note": 66,
      "start": 14.9716,
      "duration": 0.0161,
      "velocity": 120,
      "chip": "ym2612"
    },
    {
      "channel": 2,
      "note": 52,
      "start": 14.9727,
      "duration": 0.0161,
      "velocity": 100,
      "chip": "ym2612"
    },
    {
      "channel": 0,
      "note": 38,
      "start": 14.9854,
      "duration": 0.0161,
      "velocity": 115,
      "chip": "ym2612"
    },
    {
      "channel": 4,
      "note": 59,
      "start": 14.9865,
      "duration": 0.0161,
      "velocity": 120,
      "chip": "ym2612"
    },
    {
      "channel": 3,
      "note": 66,
      "start": 14.9877,
      "duration": 0.0161,
      "velocity": 120,
      "chip": "ym2612"
    },
    {
      "channel": 2,
      "note": 52,
      "start": 14.9887,
      "duration": 0.0161,
      "velocity": 100,
      "chip": "ym2612"
    },
    {
      "channel": 0,
      "note": 38,
      "start": 15.0015,
      "duration": 0.0161,
      "velocity": 115,
      "chip": "ym2612"
    },
    {
      "channel": 4,
      "note": 59,
      "start": 15.0026,
      "duration": 0.0161,
      "velocity": 120,
      "chip": "ym2612"
    },
    {
      "channel": 3,
      "note": 66,
      "start": 15.0037,
      "duration": 0.0161,
      "velocity": 120,
      "chip": "ym2612"
    },
    {
      "channel": 2,
      "note": 52,
      "start": 15.0048,
      "duration": 0.0162,
      "velocity": 100,
      "chip": "ym2612"
    },
    {
      "channel": 0,
      "note": 39,
      "start": 15.0176,
      "duration": 0.0161,
      "velocity": 115,
      "chip": "ym2612"
    },
    {
      "channel": 4,
      "note": 59,
      "start": 15.0187,
      "duration": 0.0161,
      "velocity": 120,
      "chip": "ym2612"
    },
    {
      "channel": 3,
      "note": 66,
      "start": 15.0198,
      "duration": 0.0161,
      "velocity": 120,
      "chip": "ym2612"
    },
    {
      "channel": 2,
      "note": 52,
      "start": 15.021,
      "duration": 0.0161,
      "velocity": 100,
      "chip": "ym2612"
    },
    {
      "channel": 0,
      "note": 39,
      "start": 15.0337,
      "duration": 0.0161,
      "velocity": 115,
      "chip": "ym2612"
    },
    {
      "channel": 4,
      "note": 59,
      "start": 15.0348,
      "duration": 0.0161,
      "velocity": 120,
      "chip": "ym2612"
    },
    {
      "channel": 3,
      "note": 66,
      "start": 15.0359,
      "duration": 0.0161,
      "velocity": 120,
      "chip": "ym2612"
    },
    {
      "channel": 2,
      "note": 52,
      "start": 15.0371,
      "duration": 0.0161,
      "velocity": 100,
      "chip": "ym2612"
    },
    {
      "channel": 0,
      "note": 40,
      "start": 15.0498,
      "duration": 0.0161,
      "velocity": 115,
      "chip": "ym2612"
    },
    {
      "channel": 4,
      "note": 59,
      "start": 15.0509,
      "duration": 0.0161,
      "velocity": 120,
      "chip": "ym2612"
    },
    {
      "channel": 3,
      "note": 66,
      "start": 15.052,
      "duration": 0.0161,
      "velocity": 120,
      "chip": "ym2612"
    },
    {
      "channel": 2,
      "note": 52,
      "start": 15.0532,
      "duration": 0.0161,
      "velocity": 100,
      "chip": "ym2612"
    },
    {
      "channel": 0,
      "note": 40,
      "start": 15.0658,
      "duration": 0.0161,
      "velocity": 115,
      "chip": "ym2612"
    },
    {
      "channel": 4,
      "note": 59,
      "start": 15.067,
      "duration": 0.0161,
      "velocity": 120,
      "chip": "ym2612"
    },
    {
      "channel": 3,
      "note": 66,
      "start": 15.0681,
      "duration": 0.0161,
      "velocity": 120,
      "chip": "ym2612"
    },
    {
      "channel": 2,
      "note": 52,
      "start": 15.0693,
      "duration": 0.0161,
      "velocity": 100,
      "chip": "ym2612"
    },
    {
      "channel": 0,
      "note": 40,
      "start": 15.0819,
      "duration": 0.0168,
      "velocity": 115,
      "chip": "ym2612"
    },
    {
      "channel": 4,
      "note": 59,
      "start": 15.0831,
      "duration": 0.0168,
      "velocity": 120,
      "chip": "ym2612"
    },
    {
      "channel": 3,
      "note": 66,
      "start": 15.0842,
      "duration": 0.0168,
      "velocity": 120,
      "chip": "ym2612"
    },
    {
      "channel": 2,
      "note": 52,
      "start": 15.0854,
      "duration": 0.0167,
      "velocity": 100,
      "chip": "ym2612"
    },
    {
      "channel": 0,
      "note": 41,
      "start": 15.0987,
      "duration": 0.0184,
      "velocity": 124,
      "chip": "ym2612"
    },
    {
      "channel": 4,
      "note": 59,
      "start": 15.0999,
      "duration": 0.0186,
      "velocity": 120,
      "chip": "ym2612"
    },
    {
      "channel": 3,
      "note": 66,
      "start": 15.101,
      "duration": 0.0189,
      "velocity": 120,
      "chip": "ym2612"
    },
    {
      "channel": 2,
      "note": 52,
      "start": 15.1021,
      "duration": 0.0193,
      "velocity": 100,
      "chip": "ym2612"
    },
    {
      "channel": 0,
      "note": 84,
      "start": 15.1172,
      "duration": 0.0146,
      "velocity": 124,
      "chip": "ym2612"
    },
    {
      "channel": 4,
      "note": 59,
      "start": 15.1186,
      "duration": 0.0144,
      "velocity": 120,
      "chip": "ym2612"
    },
    {
      "channel": 3,
      "note": 66,
      "start": 15.12,
      "duration": 0.0141,
      "velocity": 120,
      "chip": "ym2612"
    },
    {
      "channel": 2,
      "note": 52,
      "start": 15.1214,
      "duration": 0.0139,
      "velocity": 100,
      "chip": "ym2612"
    },
    {
      "channel": 0,
      "note": 82,
      "start": 15.1317,
      "duration": 0.0146,
      "velocity": 124,
      "chip": "ym2612"
    },
    {
      "channel": 4,
      "note": 59,
      "start": 15.1329,
      "duration": 0.0146,
      "velocity": 120,
      "chip": "ym2612"
    },
    {
      "channel": 3,
      "note": 66,
      "start": 15.1341,
      "duration": 0.0146,
      "velocity": 120,
      "chip": "ym2612"
    },
    {
      "channel": 2,
      "note": 52,
      "start": 15.1353,
      "duration": 0.0145,
      "velocity": 100,
      "chip": "ym2612"
    },
    {
      "channel": 0,
      "note": 80,
      "start": 15.1464,
      "duration": 0.0188,
      "velocity": 124,
      "chip": "ym2612"
    },
    {
      "channel": 4,
      "note": 59,
      "start": 15.1475,
      "duration": 0.0188,
      "velocity": 120,
      "chip": "ym2612"
    },
    {
      "channel": 3,
      "note": 66,
      "start": 15.1487,
      "duration": 0.0188,
      "velocity": 120,
      "chip": "ym2612"
    },
    {
      "channel": 2,
      "note": 52,
      "start": 15.1498,
      "duration": 0.0188,
      "velocity": 100,
      "chip": "ym2612"
    },
    {
      "channel": 0,
      "note": 77,
      "start": 15.1652,
      "duration": 0.0161,
      "velocity": 124,
      "chip": "ym2612"
    },
    {
      "channel": 4,
      "note": 59,
      "start": 15.1663,
      "duration": 0.0161,
      "velocity": 120,
      "chip": "ym2612"
    },
    {
      "channel": 3,
      "note": 66,
      "start": 15.1675,
      "duration": 0.0161,
      "velocity": 120,
      "chip": "ym2612"
    },
    {
      "channel": 2,
      "note": 52,
      "start": 15.1686,
      "duration": 0.0161,
      "velocity": 100,
      "chip": "ym2612"
    },
    {
      "channel": 0,
      "note": 75,
      "start": 15.1813,
      "duration": 0.0158,
      "velocity": 124,
      "chip": "ym2612"
    },
    {
      "channel": 4,
      "note": 59,
      "start": 15.1824,
      "duration": 0.0158,
      "velocity": 120,
      "chip": "ym2612"
    },
    {
      "channel": 3,
      "note": 66,
      "start": 15.1836,
      "duration": 0.0158,
      "velocity": 120,
      "chip": "ym2612"
    },
    {
      "channel": 2,
      "note": 52,
      "start": 15.1847,
      "duration": 0.0158,
      "velocity": 100,
      "chip": "ym2612"
    },
    {
      "channel": 0,
      "note": 72,
      "start": 15.1971,
      "duration": 0.014,
      "velocity": 124,
      "chip": "ym2612"
    },
    {
      "channel": 4,
      "note": 59,
      "start": 15.1982,
      "duration": 0.014,
      "velocity": 120,
      "chip": "ym2612"
    },
    {
      "channel": 3,
      "note": 66,
      "start": 15.1994,
      "duration": 0.014,
      "velocity": 120,
      "chip": "ym2612"
    },
    {
      "channel": 2,
      "note": 52,
      "start": 15.2005,
      "duration": 0.014,
      "velocity": 100,
      "chip": "ym2612"
    },
    {
      "channel": 0,
      "note": 70,
      "start": 15.2111,
      "duration": 0.0158,
      "velocity": 124,
      "chip": "ym2612"
    },
    {
      "channel": 4,
      "note": 59,
      "start": 15.2122,
      "duration": 0.0186,
      "velocity": 120,
      "chip": "ym2612"
    },
    {
      "channel": 3,
      "note": 66,
      "start": 15.2134,
      "duration": 0.0186,
      "velocity": 120,
      "chip": "ym2612"
    },
    {
      "channel": 2,
      "note": 52,
      "start": 15.2145,
      "duration": 0.0185,
      "velocity": 100,
      "chip": "ym2612"
    },
    {
      "channel": 0,
      "note": 68,
      "start": 15.2268,
      "duration": 0.0161,
      "velocity": 124,
      "chip": "ym2612"
    },
    {
      "channel": 4,
      "note": 59,
      "start": 15.2308,
      "duration": 0.0161,
      "velocity": 120,
      "chip": "ym2612"
    },
    {
      "channel": 3,
      "note": 66,
      "start": 15.2319,
      "duration": 0.0161,
      "velocity": 120,
      "chip": "ym2612"
    },
    {
      "channel": 2,
      "note": 52,
      "start": 15.233,
      "duration": 0.0161,
      "velocity": 100,
      "chip": "ym2612"
    },
    {
      "channel": 0,
      "note": 65,
      "start": 15.243,
      "duration": 0.0161,
      "velocity": 124,
      "chip": "ym2612"
    },
    {
      "channel": 4,
      "note": 59,
      "start": 15.2469,
      "duration": 0.0134,
      "velocity": 120,
      "chip": "ym2612"
    },
    {
      "channel": 3,
      "note": 66,
      "start": 15.248,
      "duration": 0.0157,
      "velocity": 120,
      "chip": "ym2612"
    },
    {
      "channel": 2,
      "note": 52,
      "start": 15.2492,
      "duration": 0.0157,
      "velocity": 100,
      "chip": "ym2612"
    },
    {
      "channel": 0,
      "note": 63,
      "start": 15.2591,
      "duration": 0.0153,
      "velocity": 1,
      "chip": "ym2612"
    },
    {
      "channel": 4,
      "note": 59,
      "start": 15.2602,
      "duration": 0.0153,
      "velocity": 120,
      "chip": "ym2612"
    },
    {
      "channel": 3,
      "note": 66,
      "start": 15.2637,
      "duration": 0.0129,
      "velocity": 120,
      "chip": "ym2612"
    },
    {
      "channel": 2,
      "note": 52,
      "start": 15.2649,
      "duration": 0.0132,
      "velocity": 100,
      "chip": "ym2612"
    },
    {
      "channel": 4,
      "note": 59,
      "start": 15.2755,
      "duration": 0.0153,
      "velocity": 120,
      "chip": "ym2612"
    },
    {
      "channel": 3,
      "note": 66,
      "start": 15.2766,
      "duration": 0.0153,
      "velocity": 120,
      "chip": "ym2612"
    },
    {
      "channel": 2,
      "note": 52,
      "start": 15.2781,
      "duration": 0.0149,
      "velocity": 100,
      "chip": "ym2612"
    },
    {
      "channel": 4,
      "note": 59,
      "start": 15.2908,
      "duration": 0.0163,
      "velocity": 120,
      "chip": "ym2612"
    },
    {
      "channel": 3,
      "note": 66,
      "start": 15.2919,
      "duration": 0.0165,
      "velocity": 120,
      "chip": "ym2612"
    },
    {
      "channel": 2,
      "note": 52,
      "start": 15.293,
      "duration": 0.0169,
      "velocity": 100,
      "chip": "ym2612"
    },
    {
      "channel": 4,
      "note": 61,
      "start": 15.3071,
      "duration": 0.0159,
      "velocity": 120,
      "chip": "ym2612"
    },
    {
      "channel": 3,
      "note": 68,
      "start": 15.3085,
      "duration": 0.0157,
      "velocity": 120,
      "chip": "ym2612"
    },
    {
      "channel": 2,
      "note": 52,
      "start": 15.31,
      "duration": 0.0155,
      "velocity": 100,
      "chip": "ym2612"
    },
    {
      "channel": 4,
      "note": 61,
      "start": 15.323,
      "duration": 0.016,
      "velocity": 120,
      "chip": "ym2612"
    },
    {
      "channel": 3,
      "note": 68,
      "start": 15.3242,
      "duration": 0.016,
      "velocity": 120,
      "chip": "ym2612"
    },
    {
      "channel": 2,
      "note": 52,
      "start": 15.3254,
      "duration": 0.0159,
      "velocity": 100,
      "chip": "ym2612"
    },
    {
      "channel": 4,
      "note": 61,
      "start": 15.339,
      "duration": 0.0161,
      "velocity": 120,
      "chip": "ym2612"
    },
    {
      "channel": 3,
      "note": 68,
      "start": 15.3402,
      "duration": 0.0161,
      "velocity": 120,
      "chip": "ym2612"
    },
    {
      "channel": 2,
      "note": 52,
      "start": 15.3413,
      "duration": 0.0161,
      "velocity": 100,
      "chip": "ym2612"
    },
    {
      "channel": 4,
      "note": 61,
      "start": 15.3551,
      "duration": 0.0162,
      "velocity": 120,
      "chip": "ym2612"
    },
    {
      "channel": 3,
      "note": 68,
      "start": 15.3563,
      "duration": 0.0161,
      "velocity": 120,
      "chip": "ym2612"
    },
    {
      "channel": 2,
      "note": 52,
      "start": 15.3574,
      "duration": 0.0161,
      "velocity": 100,
      "chip": "ym2612"
    },
    {
      "channel": 4,
      "note": 61,
      "start": 15.3713,
      "duration": 0.0161,
      "velocity": 120,
      "chip": "ym2612"
    },
    {
      "channel": 3,
      "note": 68,
      "start": 15.3724,
      "duration": 0.0161,
      "velocity": 120,
      "chip": "ym2612"
    },
    {
      "channel": 2,
      "note": 52,
      "start": 15.3735,
      "duration": 0.0161,
      "velocity": 100,
      "chip": "ym2612"
    },
    {
      "channel": 4,
      "note": 61,
      "start": 15.3874,
      "duration": 0.0161,
      "velocity": 120,
      "chip": "ym2612"
    },
    {
      "channel": 3,
      "note": 68,
      "start": 15.3885,
      "duration": 0.0162,
      "velocity": 120,
      "chip": "ym2612"
    },
    {
      "channel": 2,
      "note": 52,
      "start": 15.3896,
      "duration": 0.0161,
      "velocity": 100,
      "chip": "ym2612"
    },
    {
      "channel": 4,
      "note": 61,
      "start": 15.4035,
      "duration": 0.0161,
      "velocity": 120,
      "chip": "ym2612"
    },
    {
      "channel": 3,
      "note": 68,
      "start": 15.4046,
      "duration": 0.0161,
      "velocity": 120,
      "chip": "ym2612"
    },
    {
      "channel": 2,
      "note": 52,
      "start": 15.4057,
      "duration": 0.0161,
      "velocity": 100,
      "chip": "ym2612"
    },
    {
      "channel": 4,
      "note": 61,
      "start": 15.4196,
      "duration": 0.0161,
      "velocity": 120,
      "chip": "ym2612"
    },
    {
      "channel": 3,
      "note": 68,
      "start": 15.4207,
      "duration": 0.0161,
      "velocity": 120,
      "chip": "ym2612"
    },
    {
      "channel": 2,
      "note": 52,
      "start": 15.4218,
      "duration": 0.0161,
      "velocity": 100,
      "chip": "ym2612"
    },
    {
      "channel": 4,
      "note": 61,
      "start": 15.4357,
      "duration": 0.0161,
      "velocity": 120,
      "chip": "ym2612"
    },
    {
      "channel": 3,
      "note": 68,
      "start": 15.4368,
      "duration": 0.0161,
      "velocity": 120,
      "chip": "ym2612"
    },
    {
      "channel": 2,
      "note": 52,
      "start": 15.4379,
      "duration": 0.0161,
      "velocity": 100,
      "chip": "ym2612"
    },
    {
      "channel": 4,
      "note": 61,
      "start": 15.4518,
      "duration": 0.0161,
      "velocity": 120,
      "chip": "ym2612"
    },
    {
      "channel": 3,
      "note": 68,
      "start": 15.4529,
      "duration": 0.0161,
      "velocity": 120,
      "chip": "ym2612"
    },
    {
      "channel": 2,
      "note": 52,
      "start": 15.454,
      "duration": 0.0161,
      "velocity": 100,
      "chip": "ym2612"
    },
    {
      "channel": 4,
      "note": 61,
      "start": 15.4679,
      "duration": 0.0161,
      "velocity": 120,
      "chip": "ym2612"
    },
    {
      "channel": 3,
      "note": 68,
      "start": 15.469,
      "duration": 0.0161,
      "velocity": 120,
      "chip": "ym2612"
    },
    {
      "channel": 2,
      "note": 52,
      "start": 15.4702,
      "duration": 0.0161,
      "velocity": 100,
      "chip": "ym2612"
    },
    {
      "channel": 4,
      "note": 61,
      "start": 15.484,
      "duration": 0.0198,
      "velocity": 120,
      "chip": "ym2612"
    },
    {
      "channel": 3,
      "note": 68,
      "start": 15.4851,
      "duration": 0.02,
      "velocity": 120,
      "chip": "ym2612"
    },
    {
      "channel": 2,
      "note": 52,
      "start": 15.4863,
      "duration": 0.0204,
      "velocity": 100,
      "chip": "ym2612"
    },
    {
      "channel": 0,
      "note": 36,
      "start": 15.5024,
      "duration": 0.0144,
      "velocity": 115,
      "chip": "ym2612"
    },
    {
      "channel": 4,
      "note": 61,
      "start": 15.5038,
      "duration": 0.0141,
      "velocity": 120,
      "chip": "ym2612"
    },
    {
      "channel": 3,
      "note": 68,
      "start": 15.5051,
      "duration": 0.014,
      "velocity": 120,
      "chip": "ym2612"
    },
    {
      "channel": 2,
      "note": 52,
      "start": 15.5066,
      "duration": 0.0137,
      "velocity": 100,
      "chip": "ym2612"
    },
    {
      "channel": 0,
      "note": 36,
      "start": 15.5167,
      "duration": 0.016,
      "velocity": 115,
      "chip": "ym2612"
    },
    {
      "channel": 4,
      "note": 61,
      "start": 15.5179,
      "duration": 0.016,
      "velocity": 120,
      "chip": "ym2612"
    },
    {
      "channel": 3,
      "note": 68,
      "start": 15.5191,
      "duration": 0.0159,
      "velocity": 120,
      "chip": "ym2612"
    },
    {
      "channel": 2,
      "note": 52,
      "start": 15.5204,
      "duration": 0.0158,
      "velocity": 100,
      "chip": "ym2612"
    },
    {
      "channel": 0,
      "note": 37,
      "start": 15.5328,
      "duration": 0.0161,
      "velocity": 115,
      "chip": "ym2612"
    },
    {
      "channel": 4,
      "note": 61,
      "start": 15.5339,
      "duration": 0.0162,
      "velocity": 120,
      "chip": "ym2612"
    },
    {
      "channel": 3,
      "note": 68,
      "start": 15.5351,
      "duration": 0.0161,
      "velocity": 120,
      "chip": "ym2612"
    },
    {
      "channel": 2,
      "note": 52,
      "start": 15.5362,
      "duration": 0.0161,
      "velocity": 100,
      "chip": "ym2612"
    },
    {
      "channel": 0,
      "note": 37,
      "start": 15.5488,
      "duration": 0.0166,
      "velocity": 115,
      "chip": "ym2612"
    },
    {
      "channel": 4,
      "note": 61,
      "start": 15.5501,
      "duration": 0.0165,
      "velocity": 120,
      "chip": "ym2612"
    },
    {
      "channel": 3,
      "note": 68,
      "start": 15.5511,
      "duration": 0.0166,
      "velocity": 120,
      "chip": "ym2612"
    },
    {
      "channel": 2,
      "note": 52,
      "start": 15.5523,
      "duration": 0.0165,
      "velocity": 100,
      "chip": "ym2612"
    },
    {
      "channel": 0,
      "note": 38,
      "start": 15.5654,
      "duration": 0.0167,
      "velocity": 115,
      "chip": "ym2612"
    },
    {
      "channel": 4,
      "note": 61,
      "start": 15.5665,
      "duration": 0.0167,
      "velocity": 120,
      "chip": "ym2612"
    },
    {
      "channel": 3,
      "note": 68,
      "start": 15.5677,
      "duration": 0.0167,
      "velocity": 120,
      "chip": "ym2612"
    },
    {
      "channel": 2,
      "note": 52,
      "start": 15.5688,
      "duration": 0.0167,
      "velocity": 100,
      "chip": "ym2612"
    },
    {
      "channel": 0,
      "note": 38,
      "start": 15.5821,
      "duration": 0.0163,
      "velocity": 115,
      "chip": "ym2612"
    },
    {
      "channel": 4,
      "note": 61,
      "start": 15.5832,
      "duration": 0.0163,
      "velocity": 120,
      "chip": "ym2612"
    },
    {
      "channel": 3,
      "note": 68,
      "start": 15.5844,
      "duration": 0.0163,
      "velocity": 120,
      "chip": "ym2612"
    },
    {
      "channel": 2,
      "note": 52,
      "start": 15.5854,
      "duration": 0.0163,
      "velocity": 100,
      "chip": "ym2612"
    },
    {
      "channel": 0,
      "note": 39,
      "start": 15.5983,
      "duration": 0.0149,
      "velocity": 115,
      "chip": "ym2612"
    },
    {
      "channel": 4,
      "note": 61,
      "start": 15.5995,
      "duration": 0.015,
      "velocity": 120,
      "chip": "ym2612"
    },
    {
      "channel": 3,
      "note": 68,
      "start": 15.6006,
      "duration": 0.0149,
      "velocity": 120,
      "chip": "ym2612"
    },
    {
      "channel": 2,
      "note": 52,
      "start": 15.6018,
      "duration": 0.015,
      "velocity": 100,
      "chip": "ym2612"
    },
    {
      "channel": 0,
      "note": 39,
      "start": 15.6133,
      "duration": 0.0188,
      "velocity": 115,
      "chip": "ym2612"
    },
    {
      "channel": 4,
      "note": 61,
      "start": 15.6144,
      "duration": 0.0188,
      "velocity": 120,
      "chip": "ym2612"
    },
    {
      "channel": 3,
      "note": 68,
      "start": 15.6156,
      "duration": 0.0188,
      "velocity": 120,
      "chip": "ym2612"
    },
    {
      "channel": 2,
      "note": 52,
      "start": 15.6167,
      "duration": 0.0187,
      "velocity": 100,
      "chip": "ym2612"
    },
    {
      "channel": 0,
      "note": 40,
      "start": 15.6321,
      "duration": 0.0161,
      "velocity": 115,
      "chip": "ym2612"
    },
    {
      "channel": 4,
      "note": 61,
      "start": 15.6332,
      "duration": 0.0162,
      "velocity": 120,
      "chip": "ym2612"
    },
    {
      "channel": 3,
      "note": 68,
      "start": 15.6344,
      "duration": 0.0161,
      "velocity": 120,
      "chip": "ym2612"
    },
    {
      "channel": 2,
      "note": 52,
      "start": 15.6354,
      "duration": 0.0162,
      "velocity": 100,
      "chip": "ym2612"
    },
    {
      "channel": 0,
      "note": 40,
      "start": 15.6482,
      "duration": 0.0158,
      "velocity": 115,
      "chip": "ym2612"
    },
    {
      "channel": 4,
      "note": 61,
      "start": 15.6494,
      "duration": 0.0158,
      "velocity": 120,
      "chip": "ym2612"
    },
    {
      "channel": 3,
      "note": 68,
      "start": 15.6505,
      "duration": 0.0158,
      "velocity": 120,
      "chip": "ym2612"
    },
    {
      "channel": 2,
      "note": 52,
      "start": 15.6517,
      "duration": 0.0157,
      "velocity": 100,
      "chip": "ym2612"
    },
    {
      "channel": 0,
      "note": 40,
      "start": 15.664,
      "duration": 0.0141,
      "velocity": 115,
      "chip": "ym2612"
    },
    {
      "channel": 4,
      "note": 61,
      "start": 15.6651,
      "duration": 0.0141,
      "velocity": 120,
      "chip": "ym2612"
    },
    {
      "channel": 3,
      "note": 68,
      "start": 15.6663,
      "duration": 0.0141,
      "velocity": 120,
      "chip": "ym2612"
    },
    {
      "channel": 2,
      "note": 52,
      "start": 15.6674,
      "duration": 0.0141,
      "velocity": 100,
      "chip": "ym2612"
    },
    {
      "channel": 0,
      "note": 41,
      "start": 15.678,
      "duration": 0.0157,
      "velocity": 115,
      "chip": "ym2612"
    },
    {
      "channel": 4,
      "note": 61,
      "start": 15.6792,
      "duration": 0.0187,
      "velocity": 120,
      "chip": "ym2612"
    },
    {
      "channel": 3,
      "note": 68,
      "start": 15.6803,
      "duration": 0.019,
      "velocity": 120,
      "chip": "ym2612"
    },
    {
      "channel": 2,
      "note": 52,
      "start": 15.6814,
      "duration": 0.0193,
      "velocity": 100,
      "chip": "ym2612"
    },
    {
      "channel": 0,
      "note": 41,
      "start": 15.6938,
      "duration": 0.0162,
      "velocity": 115,
      "chip": "ym2612"
    },
    {
      "channel": 4,
      "note": 61,
      "start": 15.698,
      "duration": 0.0159,
      "velocity": 120,
      "chip": "ym2612"
    },
    {
      "channel": 3,
      "note": 68,
      "start": 15.6994,
      "duration": 0.0156,
      "velocity": 120,
      "chip": "ym2612"
    },
    {
      "channel": 2,
      "note": 52,
      "start": 15.7008,
      "duration": 0.0154,
      "velocity": 100,
      "chip": "ym2612"
    },
    {
      "channel": 0,
      "note": 42,
      "start": 15.7099,
      "duration": 0.0161,
      "velocity": 115,
      "chip": "ym2612"
    },
    {
      "channel": 4,
      "note": 61,
      "start": 15.7139,
      "duration": 0.0133,
      "velocity": 120,
      "chip": "ym2612"
    },
    {
      "channel": 3,
      "note": 68,
      "start": 15.715,
      "duration": 0.0156,
      "velocity": 120,
      "chip": "ym2612"
    },
    {
      "channel": 2,
      "note": 52,
      "start": 15.7162,
      "duration": 0.0156,
      "velocity": 100,
      "chip": "ym2612"
    },
    {
      "channel": 0,
      "note": 42,
      "start": 15.726,
      "duration": 0.0161,
      "velocity": 115,
      "chip": "ym2612"
    },
    {
      "channel": 4,
      "note": 61,
      "start": 15.7272,
      "duration": 0.0161,
      "velocity": 120,
      "chip": "ym2612"
    },
    {
      "channel": 3,
      "note": 68,
      "start": 15.7307,
      "duration": 0.0141,
      "velocity": 120,
      "chip": "ym2612"
    },
    {
      "channel": 2,
      "note": 52,
      "start": 15.7318,
      "duration": 0.0141,
      "velocity": 100,
      "chip": "ym2612"
    },
    {
      "channel": 0,
      "note": 43,
      "start": 15.7421,
      "duration": 0.0161,
      "velocity": 115,
      "chip": "ym2612"
    },
    {
      "channel": 4,
      "note": 61,
      "start": 15.7433,
      "duration": 0.0161,
      "velocity": 120,
      "chip": "ym2612"
    },
    {
      "channel": 3,
      "note": 68,
      "start": 15.7447,
      "duration": 0.0158,
      "velocity": 120,
      "chip": "ym2612"
    },
    {
      "channel": 2,
      "note": 52,
      "start": 15.7459,
      "duration": 0.0185,
      "velocity": 100,
      "chip": "ym2612"
    },
    {
      "channel": 0,
      "note": 43,
      "start": 15.7582,
      "duration": 0.0161,
      "velocity": 115,
      "chip": "ym2612"
    },
    {
      "channel": 4,
      "note": 61,
      "start": 15.7593,
      "duration": 0.0161,
      "velocity": 120,
      "chip": "ym2612"
    },
    {
      "channel": 3,
      "note": 68,
      "start": 15.7605,
      "duration": 0.0161,
      "velocity": 120,
      "chip": "ym2612"
    },
    {
      "channel": 2,
      "note": 52,
      "start": 15.7644,
      "duration": 0.0161,
      "velocity": 100,
      "chip": "ym2612"
    },
    {
      "channel": 0,
      "note": 44,
      "start": 15.7743,
      "duration": 0.0161,
      "velocity": 115,
      "chip": "ym2612"
    },
    {
      "channel": 4,
      "note": 61,
      "start": 15.7754,
      "duration": 0.0161,
      "velocity": 120,
      "chip": "ym2612"
    },
    {
      "channel": 3,
      "note": 68,
      "start": 15.7766,
      "duration": 0.0161,
      "velocity": 120,
      "chip": "ym2612"
    },
    {
      "channel": 2,
      "note": 52,
      "start": 15.7805,
      "duration": 0.0134,
      "velocity": 100,
      "chip": "ym2612"
    },
    {
      "channel": 0,
      "note": 44,
      "start": 15.7904,
      "duration": 0.0161,
      "velocity": 115,
      "chip": "ym2612"
    },
    {
      "channel": 4,
      "note": 61,
      "start": 15.7915,
      "duration": 0.0161,
      "velocity": 120,
      "chip": "ym2612"
    },
    {
      "channel": 3,
      "note": 68,
      "start": 15.7927,
      "duration": 0.0161,
      "velocity": 120,
      "chip": "ym2612"
    },
    {
      "channel": 2,
      "note": 52,
      "start": 15.7938,
      "duration": 0.0161,
      "velocity": 100,
      "chip": "ym2612"
    },
    {
      "channel": 0,
      "note": 44,
      "start": 15.8065,
      "duration": 0.0161,
      "velocity": 115,
      "chip": "ym2612"
    },
    {
      "channel": 4,
      "note": 61,
      "start": 15.8076,
      "duration": 0.0161,
      "velocity": 120,
      "chip": "ym2612"
    },
    {
      "channel": 3,
      "note": 68,
      "start": 15.8088,
      "duration": 0.0161,
      "velocity": 120,
      "chip": "ym2612"
    },
    {
      "channel": 2,
      "note": 52,
      "start": 15.8099,
      "duration": 0.0161,
      "velocity": 100,
      "chip": "ym2612"
    },
    {
      "channel": 0,
      "note": 45,
      "start": 15.8226,
      "duration": 0.0161,
      "velocity": 115,
      "chip": "ym2612"
    },
    {
      "channel": 4,
      "note": 61,
      "start": 15.8237,
      "duration": 0.0162,
      "velocity": 120,
      "chip": "ym2612"
    },
    {
      "channel": 3,
      "note": 68,
      "start": 15.8249,
      "duration": 0.0161,
      "velocity": 120,
      "chip": "ym2612"
    },
    {
      "channel": 2,
      "note": 52,
      "start": 15.826,
      "duration": 0.0161,
      "velocity": 100,
      "chip": "ym2612"
    },
    {
      "channel": 0,
      "note": 45,
      "start": 15.8387,
      "duration": 0.0161,
      "velocity": 115,
      "chip": "ym2612"
    },
    {
      "channel": 4,
      "note": 61,
      "start": 15.8399,
      "duration": 0.0161,
      "velocity": 120,
      "chip": "ym2612"
    },
    {
      "channel": 3,
      "note": 68,
      "start": 15.841,
      "duration": 0.0161,
      "velocity": 120,
      "chip": "ym2612"
    },
    {
      "channel": 2,
      "note": 52,
      "start": 15.8421,
      "duration": 0.0161,
      "velocity": 100,
      "chip": "ym2612"
    },
    {
      "channel": 0,
      "note": 46,
      "start": 15.8548,
      "duration": 0.0161,
      "velocity": 115,
      "chip": "ym2612"
    },
    {
      "channel": 4,
      "note": 61,
      "start": 15.856,
      "duration": 0.0161,
      "velocity": 120,
      "chip": "ym2612"
    },
    {
      "channel": 3,
      "note": 68,
      "start": 15.8571,
      "duration": 0.0161,
      "velocity": 120,
      "chip": "ym2612"
    },
    {
      "channel": 2,
      "note": 52,
      "start": 15.8582,
      "duration": 0.0161,
      "velocity": 100,
      "chip": "ym2612"
    },
    {
      "channel": 0,
      "note": 46,
      "start": 15.8709,
      "duration": 0.0178,
      "velocity": 124,
      "chip": "ym2612"
    },
    {
      "channel": 4,
      "note": 61,
      "start": 15.8721,
      "duration": 0.0181,
      "velocity": 120,
      "chip": "ym2612"
    },
    {
      "channel": 3,
      "note": 68,
      "start": 15.8732,
      "duration": 0.0183,
      "velocity": 120,
      "chip": "ym2612"
    },
    {
      "channel": 2,
      "note": 52,
      "start": 15.8743,
      "duration": 0.0187,
      "velocity": 100,
      "chip": "ym2612"
    },
    {
      "channel": 0,
      "note": 84,
      "start": 15.8888,
      "duration": 0.0144,
      "velocity": 124,
      "chip": "ym2612"
    },
    {
      "channel": 4,
      "note": 61,
      "start": 15.8902,
      "duration": 0.0142,
      "velocity": 120,
      "chip": "ym2612"
    },
    {
      "channel": 3,
      "note": 68,
      "start": 15.8916,
      "duration": 0.0139,
      "velocity": 120,
      "chip": "ym2612"
    },
    {
      "channel": 2,
      "note": 52,
      "start": 15.8931,
      "duration": 0.0137,
      "velocity": 100,
      "chip": "ym2612"
    },
    {
      "channel": 0,
      "note": 82,
      "start": 15.9032,
      "duration": 0.016,
      "velocity": 124,
      "chip": "ym2612"
    },
    {
      "channel": 4,
      "note": 61,
      "start": 15.9044,
      "duration": 0.016,
      "velocity": 120,
      "chip": "ym2612"
    },
    {
      "channel": 3,
      "note": 68,
      "start": 15.9055,
      "duration": 0.016,
      "velocity": 120,
      "chip": "ym2612"
    },
    {
      "channel": 2,
      "note": 52,
      "start": 15.9067,
      "duration": 0.0159,
      "velocity": 100,
      "chip": "ym2612"
    },
    {
      "channel": 0,
      "note": 80,
      "start": 15.9192,
      "duration": 0.0161,
      "velocity": 124,
      "chip": "ym2612"
    },
    {
      "channel": 4,
      "note": 61,
      "start": 15.9204,
      "duration": 0.0161,
      "velocity": 120,
      "chip": "ym2612"
    },
    {
      "channel": 3,
      "note": 68,
      "start": 15.9215,
      "duration": 0.0161,
      "velocity": 120,
      "chip": "ym2612"
    },
    {
      "channel": 2,
      "note": 52,
      "start": 15.9227,
      "duration": 0.0161,
      "velocity": 100,
      "chip": "ym2612"
    },
    {
      "channel": 0,
      "note": 77,
      "start": 15.9353,
      "duration": 0.0161,
      "velocity": 124,
      "chip": "ym2612"
    },
    {
      "channel": 4,
      "note": 61,
      "start": 15.9364,
      "duration": 0.0161,
      "velocity": 120,
      "chip": "ym2612"
    },
    {
      "channel": 3,
      "note": 68,
      "start": 15.9376,
      "duration": 0.0161,
      "velocity": 120,
      "chip": "ym2612"
    },
    {
      "channel": 2,
      "note": 52,
      "start": 15.9387,
      "duration": 0.0161,
      "velocity": 100,
      "chip": "ym2612"
    },
    {
      "channel": 0,
      "note": 75,
      "start": 15.9514,
      "duration": 0.0161,
      "velocity": 124,
      "chip": "ym2612"
    },
    {
      "channel": 4,
      "note": 61,
      "start": 15.9525,
      "duration": 0.0161,
      "velocity": 120,
      "chip": "ym2612"
    },
    {
      "channel": 3,
      "note": 68,
      "start": 15.9537,
      "duration": 0.0161,
      "velocity": 120,
      "chip": "ym2612"
    },
    {
      "channel": 2,
      "note": 52,
      "start": 15.9548,
      "duration": 0.0161,
      "velocity": 100,
      "chip": "ym2612"
    },
    {
      "channel": 0,
      "note": 72,
      "start": 15.9675,
      "duration": 0.0162,
      "velocity": 124,
      "chip": "ym2612"
    },
    {
      "channel": 4,
      "note": 61,
      "start": 15.9686,
      "duration": 0.0161,
      "velocity": 120,
      "chip": "ym2612"
    },
    {
      "channel": 3,
      "note": 68,
      "start": 15.9698,
      "duration": 0.0162,
      "velocity": 120,
      "chip": "ym2612"
    },
    {
      "channel": 2,
      "note": 52,
      "start": 15.9709,
      "duration": 0.0161,
      "velocity": 100,
      "chip": "ym2612"
    },
    {
      "channel": 0,
      "note": 70,
      "start": 15.9837,
      "duration": 0.0161,
      "velocity": 124,
      "chip": "ym2612"
    },
    {
      "channel": 4,
      "note": 61,
      "start": 15.9848,
      "duration": 0.0161,
      "velocity": 120,
      "chip": "ym2612"
    },
    {
      "channel": 3,
      "note": 68,
      "start": 15.9859,
      "duration": 0.0161,
      "velocity": 120,
      "chip": "ym2612"
    },
    {
      "channel": 2,
      "note": 52,
      "start": 15.987,
      "duration": 0.0161,
      "velocity": 100,
      "chip": "ym2612"
    },
    {
      "channel": 0,
      "note": 68,
      "start": 15.9998,
      "duration": 0.0161,
      "velocity": 124,
      "chip": "ym2612"
    },
    {
      "channel": 4,
      "note": 61,
      "start": 16.0009,
      "duration": 0.0161,
      "velocity": 120,
      "chip": "ym2612"
    },
    {
      "channel": 3,
      "note": 68,
      "start": 16.002,
      "duration": 0.0161,
      "velocity": 120,
      "chip": "ym2612"
    },
    {
      "channel": 2,
      "note": 52,
      "start": 16.0031,
      "duration": 0.0161,
      "velocity": 100,
      "chip": "ym2612"
    },
    {
      "channel": 0,
      "note": 65,
      "start": 16.0158,
      "duration": 0.0162,
      "velocity": 124,
      "chip": "ym2612"
    },
    {
      "channel": 4,
      "note": 61,
      "start": 16.017,
      "duration": 0.0162,
      "velocity": 120,
      "chip": "ym2612"
    },
    {
      "channel": 3,
      "note": 68,
      "start": 16.0181,
      "duration": 0.0162,
      "velocity": 120,
      "chip": "ym2612"
    },
    {
      "channel": 2,
      "note": 52,
      "start": 16.0192,
      "duration": 0.0162,
      "velocity": 100,
      "chip": "ym2612"
    },
    {
      "channel": 0,
      "note": 63,
      "start": 16.0321,
      "duration": 0.0158,
      "velocity": 1,
      "chip": "ym2612"
    },
    {
      "channel": 4,
      "note": 61,
      "start": 16.0332,
      "duration": 0.0159,
      "velocity": 120,
      "chip": "ym2612"
    },
    {
      "channel": 3,
      "note": 68,
      "start": 16.0344,
      "duration": 0.0158,
      "velocity": 120,
      "chip": "ym2612"
    },
    {
      "channel": 2,
      "note": 52,
      "start": 16.0354,
      "duration": 0.0158,
      "velocity": 100,
      "chip": "ym2612"
    },
    {
      "channel": 4,
      "note": 61,
      "start": 16.049,
      "duration": 0.0155,
      "velocity": 120,
      "chip": "ym2612"
    },
    {
      "channel": 3,
      "note": 68,
      "start": 16.0502,
      "duration": 0.0155,
      "velocity": 120,
      "chip": "ym2612"
    },
    {
      "channel": 2,
      "note": 52,
      "start": 16.0513,
      "duration": 0.0155,
      "velocity": 100,
      "chip": "ym2612"
    },
    {
      "channel": 4,
      "note": 61,
      "start": 16.0645,
      "duration": 0.0189,
      "velocity": 120,
      "chip": "ym2612"
    },
    {
      "channel": 3,
      "note": 68,
      "start": 16.0656,
      "duration": 0.0191,
      "velocity": 120,
      "chip": "ym2612"
    },
    {
      "channel": 2,
      "note": 52,
      "start": 16.0668,
      "duration": 0.0195,
      "velocity": 100,
      "chip": "ym2612"
    },
    {
      "channel": 0,
      "note": 36,
      "start": 16.082,
      "duration": 0.0167,
      "velocity": 115,
      "chip": "ym2612"
    },
    {
      "channel": 4,
      "note": 61,
      "start": 16.0835,
      "duration": 0.0165,
      "velocity": 120,
      "chip": "ym2612"
    },
    {
      "channel": 3,
      "note": 68,
      "start": 16.0848,
      "duration": 0.0163,
      "velocity": 120,
      "chip": "ym2612"
    },
    {
      "channel": 2,
      "note": 52,
      "start": 16.0863,
      "duration": 0.0161,
      "velocity": 100,
      "chip": "ym2612"
    },
    {
      "channel": 0,
      "note": 36,
      "start": 16.0987,
      "duration": 0.0164,
      "velocity": 115,
      "chip": "ym2612"
    },
    {
      "channel": 4,
      "note": 61,
      "start": 16.0999,
      "duration": 0.0164,
      "velocity": 120,
      "chip": "ym2612"
    },
    {
      "channel": 3,
      "note": 68,
      "start": 16.1011,
      "duration": 0.0163,
      "velocity": 120,
      "chip": "ym2612"
    },
    {
      "channel": 2,
      "note": 52,
      "start": 16.1024,
      "duration": 0.0162,
      "velocity": 100,
      "chip": "ym2612"
    },
    {
      "channel": 0,
      "note": 37,
      "start": 16.1151,
      "duration": 0.0158,
      "velocity": 115,
      "chip": "ym2612"
    },
    {
      "channel": 4,
      "note": 61,
      "start": 16.1163,
      "duration": 0.0157,
      "velocity": 120,
      "chip": "ym2612"
    },
    {
      "channel": 3,
      "note": 68,
      "start": 16.1174,
      "duration": 0.0158,
      "velocity": 120,
      "chip": "ym2612"
    },
    {
      "channel": 2,
      "note": 52,
      "start": 16.1186,
      "duration": 0.0157,
      "velocity": 100,
      "chip": "ym2612"
    },
    {
      "channel": 0,
      "note": 37,
      "start": 16.1309,
      "duration": 0.0141,
      "velocity": 115,
      "chip": "ym2612"
    },
    {
      "channel": 4,
      "note": 61,
      "start": 16.1321,
      "duration": 0.0141,
      "velocity": 120,
      "chip": "ym2612"
    },
    {
      "channel": 3,
      "note": 68,
      "start": 16.1332,
      "duration": 0.0141,
      "velocity": 120,
      "chip": "ym2612"
    },
    {
      "channel": 2,
      "note": 52,
      "start": 16.1343,
      "duration": 0.0141,
      "velocity": 100,
      "chip": "ym2612"
    },
    {
      "channel": 0,
      "note": 38,
      "start": 16.145,
      "duration": 0.0185,
      "velocity": 115,
      "chip": "ym2612"
    },
    {
      "channel": 4,
      "note": 61,
      "start": 16.1461,
      "duration": 0.0185,
      "velocity": 120,
      "chip": "ym2612"
    },
    {
      "channel": 3,
      "note": 68,
      "start": 16.1473,
      "duration": 0.0185,
      "velocity": 120,
      "chip": "ym2612"
    },
    {
      "channel": 2,
      "note": 52,
      "start": 16.1483,
      "duration": 0.0185,
      "velocity": 100,
      "chip": "ym2612"
    },
    {
      "channel": 0,
      "note": 38,
      "start": 16.1635,
      "duration": 0.0134,
      "velocity": 115,
      "chip": "ym2612"
    },
    {
      "channel": 4,
      "note": 61,
      "start": 16.1646,
      "duration": 0.0161,
      "velocity": 120,
      "chip": "ym2612"
    },
    {
      "channel": 3,
      "note": 68,
      "start": 16.1658,
      "duration": 0.0161,
      "velocity": 120,
      "chip": "ym2612"
    },
    {
      "channel": 2,
      "note": 52,
      "start": 16.1668,
      "duration": 0.0162,
      "velocity": 100,
      "chip": "ym2612"
    },
    {
      "channel": 0,
      "note": 39,
      "start": 16.1768,
      "duration": 0.0161,
      "velocity": 115,
      "chip": "ym2612"
    },
    {
      "channel": 4,
      "note": 61,
      "start": 16.1807,
      "duration": 0.0157,
      "velocity": 120,
      "chip": "ym2612"
    },
    {
      "channel": 3,
      "note": 68,
      "start": 16.1819,
      "duration": 0.0158,
      "velocity": 120,
      "chip": "ym2612"
    },
    {
      "channel": 2,
      "note": 52,
      "start": 16.183,
      "duration": 0.0157,
      "velocity": 100,
      "chip": "ym2612"
    },
    {
      "channel": 0,
      "note": 39,
      "start": 16.1929,
      "duration": 0.0161,
      "velocity": 115,
      "chip": "ym2612"
    },
    {
      "channel": 4,
      "note": 61,
      "start": 16.1964,
      "duration": 0.0137,
      "velocity": 120,
      "chip": "ym2612"
    },
    {
      "channel": 3,
      "note": 68,
      "start": 16.1976,
      "duration": 0.014,
      "velocity": 120,
      "chip": "ym2612"
    },
    {
      "channel": 2,
      "note": 52,
      "start": 16.1987,
      "duration": 0.0141,
      "velocity": 100,
      "chip": "ym2612"
    },
    {
      "channel": 0,
      "note": 40,
      "start": 16.209,
      "duration": 0.0161,
      "velocity": 115,
      "chip": "ym2612"
    },
    {
      "channel": 4,
      "note": 61,
      "start": 16.2102,
      "duration": 0.0161,
      "velocity": 120,
      "chip": "ym2612"
    },
    {
      "channel": 3,
      "note": 68,
      "start": 16.2116,
      "duration": 0.0185,
      "velocity": 120,
      "chip": "ym2612"
    },
    {
      "channel": 2,
      "note": 52,
      "start": 16.2128,
      "duration": 0.0185,
      "velocity": 100,
      "chip": "ym2612"
    },
    {
      "channel": 0,
      "note": 40,
      "start": 16.2251,
      "duration": 0.0161,
      "velocity": 115,
      "chip": "ym2612"
    },
    {
      "channel": 4,
      "note": 61,
      "start": 16.2263,
      "duration": 0.0161,
      "velocity": 120,
      "chip": "ym2612"
    },
    {
      "channel": 3,
      "note": 68,
      "start": 16.2302,
      "duration": 0.0134,
      "velocity": 120,
      "chip": "ym2612"
    },
    {
      "channel": 2,
      "note": 52,
      "start": 16.2313,
      "duration": 0.0161,
      "velocity": 100,
      "chip": "ym2612"
    },
    {
      "channel": 0,
      "note": 40,
      "start": 16.2412,
      "duration": 0.0161,
      "velocity": 115,
      "chip": "ym2612"
    },
    {
      "channel": 4,
      "note": 61,
      "start": 16.2424,
      "duration": 0.0161,
      "velocity": 120,
      "chip": "ym2612"
    },
    {
      "channel": 3,
      "note": 68,
      "start": 16.2435,
      "duration": 0.0161,
      "velocity": 120,
      "chip": "ym2612"
    },
    {
      "channel": 2,
      "note": 52,
      "start": 16.2474,
      "duration": 0.0157,
      "velocity": 100,
      "chip": "ym2612"
    },
    {
      "channel": 0,
      "note": 41,
      "start": 16.2573,
      "duration": 0.0179,
      "velocity": 115,
      "chip": "ym2612"
    },
    {
      "channel": 4,
      "note": 61,
      "start": 16.2585,
      "duration": 0.0181,
      "velocity": 120,
      "chip": "ym2612"
    },
    {
      "channel": 3,
      "note": 68,
      "start": 16.2596,
      "duration": 0.0187,
      "velocity": 120,
      "chip": "ym2612"
    },
    {
      "channel": 2,
      "note": 52,
      "start": 16.2631,
      "duration": 0.0167,
      "velocity": 100,
      "chip": "ym2612"
    },
    {
      "channel": 0,
      "note": 36,
      "start": 16.2752,
      "duration": 0.0144,
      "velocity": 115,
      "chip": "ym2612"
    },
    {
      "channel": 4,
      "note": 61,
      "start": 16.2766,
      "duration": 0.0141,
      "velocity": 120,
      "chip": "ym2612"
    },
    {
      "channel": 3,
      "note": 68,
      "start": 16.2784,
      "duration": 0.0136,
      "velocity": 120,
      "chip": "ym2612"
    },
    {
      "channel": 2,
      "note": 52,
      "start": 16.2798,
      "duration": 0.0134,
      "velocity": 100,
      "chip": "ym2612"
    },
    {
      "channel": 0,
      "note": 36,
      "start": 16.2896,
      "duration": 0.0161,
      "velocity": 115,
      "chip": "ym2612"
    },
    {
      "channel": 4,
      "note": 61,
      "start": 16.2908,
      "duration": 0.016,
      "velocity": 120,
      "chip": "ym2612"
    },
    {
      "channel": 3,
      "note": 68,
      "start": 16.292,
      "duration": 0.016,
      "velocity": 120,
      "chip": "ym2612"
    },
    {
      "channel": 2,
      "note": 52,
      "start": 16.2932,
      "duration": 0.0158,
      "velocity": 100,
      "chip": "ym2612"
    },
    {
      "channel": 0,
      "note": 37,
      "start": 16.3057,
      "duration": 0.0161,
      "velocity": 115,
      "chip": "ym2612"
    },
    {
      "channel": 4,
      "note": 61,
      "start": 16.3068,
      "duration": 0.0161,
      "velocity": 120,
      "chip": "ym2612"
    },
    {
      "channel": 3,
      "note": 68,
      "start": 16.308,
      "duration": 0.0161,
      "velocity": 120,
      "chip": "ym2612"
    },
    {
      "channel": 2,
      "note": 52,
      "start": 16.309,
      "duration": 0.0161,
      "velocity": 100,
      "chip": "ym2612"
    },
    {
      "channel": 0,
      "note": 37,
      "start": 16.3217,
      "duration": 0.0161,
      "velocity": 115,
      "chip": "ym2612"
    },
    {
      "channel": 4,
      "note": 61,
      "start": 16.3229,
      "duration": 0.0161,
      "velocity": 120,
      "chip": "ym2612"
    },
    {
      "channel": 3,
      "note": 68,
      "start": 16.324,
      "duration": 0.0161,
      "velocity": 120,
      "chip": "ym2612"
    },
    {
      "channel": 2,
      "note": 52,
      "start": 16.3251,
      "duration": 0.0161,
      "velocity": 100,
      "chip": "ym2612"
    },
    {
      "channel": 0,
      "note": 38,
      "start": 16.3378,
      "duration": 0.0161,
      "velocity": 115,
      "chip": "ym2612"
    },
    {
      "channel": 4,
      "note": 61,
      "start": 16.339,
      "duration": 0.0161,
      "velocity": 120,
      "chip": "ym2612"
    },
    {
      "channel": 3,
      "note": 68,
      "start": 16.3401,
      "duration": 0.0161,
      "velocity": 120,
      "chip": "ym2612"
    },
    {
      "channel": 2,
      "note": 52,
      "start": 16.3412,
      "duration": 0.0161,
      "velocity": 100,
      "chip": "ym2612"
    },
    {
      "channel": 0,
      "note": 38,
      "start": 16.3539,
      "duration": 0.0161,
      "velocity": 115,
      "chip": "ym2612"
    },
    {
      "channel": 4,
      "note": 61,
      "start": 16.3551,
      "duration": 0.0161,
      "velocity": 120,
      "chip": "ym2612"
    },
    {
      "channel": 3,
      "note": 68,
      "start": 16.3562,
      "duration": 0.0161,
      "velocity": 120,
      "chip": "ym2612"
    },
    {
      "channel": 2,
      "note": 52,
      "start": 16.3574,
      "duration": 0.0161,
      "velocity": 100,
      "chip": "ym2612"
    },
    {
      "channel": 0,
      "note": 39,
      "start": 16.37,
      "duration": 0.0161,
      "velocity": 115,
      "chip": "ym2612"
    },
    {
      "channel": 4,
      "note": 61,
      "start": 16.3712,
      "duration": 0.0161,
      "velocity": 120,
      "chip": "ym2612"
    },
    {
      "channel": 3,
      "note": 68,
      "start": 16.3723,
      "duration": 0.0161,
      "velocity": 120,
      "chip": "ym2612"
    },
    {
      "channel": 2,
      "note": 52,
      "start": 16.3735,
      "duration": 0.0161,
      "velocity": 100,
      "chip": "ym2612"
    },
    {
      "channel": 0,
      "note": 39,
      "start": 16.3861,
      "duration": 0.0161,
      "velocity": 115,
      "chip": "ym2612"
    },
    {
      "channel": 4,
      "note": 61,
      "start": 16.3873,
      "duration": 0.0161,
      "velocity": 120,
      "chip": "ym2612"
    },
    {
      "channel": 3,
      "note": 68,
      "start": 16.3884,
      "duration": 0.0161,
      "velocity": 120,
      "chip": "ym2612"
    },
    {
      "channel": 2,
      "note": 52,
      "start": 16.3896,
      "duration": 0.0161,
      "velocity": 100,
      "chip": "ym2612"
    },
    {
      "channel": 0,
      "note": 40,
      "start": 16.4022,
      "duration": 0.0161,
      "velocity": 115,
      "chip": "ym2612"
    },
    {
      "channel": 4,
      "note": 61,
      "start": 16.4034,
      "duration": 0.0161,
      "velocity": 120,
      "chip": "ym2612"
    },
    {
      "channel": 3,
      "note": 68,
      "start": 16.4045,
      "duration": 0.0161,
      "velocity": 120,
      "chip": "ym2612"
    },
    {
      "channel": 2,
      "note": 52,
      "start": 16.4057,
      "duration": 0.0161,
      "velocity": 100,
      "chip": "ym2612"
    },
    {
      "channel": 0,
      "note": 40,
      "start": 16.4183,
      "duration": 0.0161,
      "velocity": 115,
      "chip": "ym2612"
    },
    {
      "channel": 4,
      "note": 61,
      "start": 16.4195,
      "duration": 0.0162,
      "velocity": 120,
      "chip": "ym2612"
    },
    {
      "channel": 3,
      "note": 68,
      "start": 16.4206,
      "duration": 0.0161,
      "velocity": 120,
      "chip": "ym2612"
    },
    {
      "channel": 2,
      "note": 52,
      "start": 16.4217,
      "duration": 0.0161,
      "velocity": 100,
      "chip": "ym2612"
    },
    {
      "channel": 0,
      "note": 40,
      "start": 16.4345,
      "duration": 0.0161,
      "velocity": 115,
      "chip": "ym2612"
    },
    {
      "channel": 4,
      "note": 61,
      "start": 16.4356,
      "duration": 0.0161,
      "velocity": 120,
      "chip": "ym2612"
    },
    {
      "channel": 3,
      "note": 68,
      "start": 16.4368,
      "duration": 0.0161,
      "velocity": 120,
      "chip": "ym2612"
    },
    {
      "channel": 2,
      "note": 52,
      "start": 16.4378,
      "duration": 0.0161,
      "velocity": 100,
      "chip": "ym2612"
    },
    {
      "channel": 0,
      "note": 41,
      "start": 16.4506,
      "duration": 0.0161,
      "velocity": 115,
      "chip": "ym2612"
    },
    {
      "channel": 4,
      "note": 61,
      "start": 16.4517,
      "duration": 0.0163,
      "velocity": 120,
      "chip": "ym2612"
    },
    {
      "channel": 3,
      "note": 68,
      "start": 16.4529,
      "duration": 0.0166,
      "velocity": 120,
      "chip": "ym2612"
    },
    {
      "channel": 2,
      "note": 52,
      "start": 16.4539,
      "duration": 0.0169,
      "velocity": 100,
      "chip": "ym2612"
    },
    {
      "channel": 0,
      "note": 41,
      "start": 16.4667,
      "duration": 0.0161,
      "velocity": 115,
      "chip": "ym2612"
    },
    {
      "channel": 4,
      "note": 61,
      "start": 16.4681,
      "duration": 0.0159,
      "velocity": 120,
      "chip": "ym2612"
    },
    {
      "channel": 3,
      "note": 68,
      "start": 16.4695,
      "duration": 0.0157,
      "velocity": 120,
      "chip": "ym2612"
    },
    {
      "channel": 2,
      "note": 52,
      "start": 16.4709,
      "duration": 0.0155,
      "velocity": 100,
      "chip": "ym2612"
    },
    {
      "channel": 0,
      "note": 42,
      "start": 16.4828,
      "duration": 0.0161,
      "velocity": 115,
      "chip": "ym2612"
    },
    {
      "channel": 4,
      "note": 61,
      "start": 16.484,
      "duration": 0.016,
      "velocity": 120,
      "chip": "ym2612"
    },
    {
      "channel": 3,
      "note": 68,
      "start": 16.4852,
      "duration": 0.016,
      "velocity": 120,
      "chip": "ym2612"
    },
    {
      "channel": 2,
      "note": 52,
      "start": 16.4864,
      "duration": 0.0159,
      "velocity": 100,
      "chip": "ym2612"
    },
    {
      "channel": 0,
      "note": 42,
      "start": 16.4988,
      "duration": 0.0166,
      "velocity": 115,
      "chip": "ym2612"
    },
    {
      "channel": 4,
      "note": 61,
      "start": 16.5,
      "duration": 0.0165,
      "velocity": 120,
      "chip": "ym2612"
    },
    {
      "channel": 3,
      "note": 68,
      "start": 16.5011,
      "duration": 0.0166,
      "velocity": 120,
      "chip": "ym2612"
    },
    {
      "channel": 2,
      "note": 52,
      "start": 16.5023,
      "duration": 0.0165,
      "velocity": 100,
      "chip": "ym2612"
    },
    {
      "channel": 0,
      "note": 43,
      "start": 16.5154,
      "duration": 0.0163,
      "velocity": 115,
      "chip": "ym2612"
    },
    {
      "channel": 4,
      "note": 61,
      "start": 16.5165,
      "duration": 0.0163,
      "velocity": 120,
      "chip": "ym2612"
    },
    {
      "channel": 3,
      "note": 68,
      "start": 16.5177,
      "duration": 0.0163,
      "velocity": 120,
      "chip": "ym2612"
    },
    {
      "channel": 2,
      "note": 52,
      "start": 16.5188,
      "duration": 0.0163,
      "velocity": 100,
      "chip": "ym2612"
    },
    {
      "channel": 0,
      "note": 43,
      "start": 16.5317,
      "duration": 0.0155,
      "velocity": 115,
      "chip": "ym2612"
    },
    {
      "channel": 4,
      "note": 61,
      "start": 16.5328,
      "duration": 0.0155,
      "velocity": 120,
      "chip": "ym2612"
    },
    {
      "channel": 3,
      "note": 68,
      "start": 16.534,
      "duration": 0.0155,
      "velocity": 120,
      "chip": "ym2612"
    },
    {
      "channel": 2,
      "note": 52,
      "start": 16.5351,
      "duration": 0.0155,
      "velocity": 100,
      "chip": "ym2612"
    },
    {
      "channel": 0,
      "note": 44,
      "start": 16.5471,
      "duration": 0.0183,
      "velocity": 115,
      "chip": "ym2612"
    },
    {
      "channel": 4,
      "note": 61,
      "start": 16.5483,
      "duration": 0.0183,
      "velocity": 120,
      "chip": "ym2612"
    },
    {
      "channel": 3,
      "note": 68,
      "start": 16.5494,
      "duration": 0.0183,
      "velocity": 120,
      "chip": "ym2612"
    },
    {
      "channel": 2,
      "note": 52,
      "start": 16.5506,
      "duration": 0.0182,
      "velocity": 100,
      "chip": "ym2612"
    },
    {
      "channel": 0,
      "note": 44,
      "start": 16.5654,
      "duration": 0.0167,
      "velocity": 115,
      "chip": "ym2612"
    },
    {
      "channel": 4,
      "note": 61,
      "start": 16.5665,
      "duration": 0.0167,
      "velocity": 120,
      "chip": "ym2612"
    },
    {
      "channel": 3,
      "note": 68,
      "start": 16.5677,
      "duration": 0.0167,
      "velocity": 120,
      "chip": "ym2612"
    },
    {
      "channel": 2,
      "note": 52,
      "start": 16.5688,
      "duration": 0.0167,
      "velocity": 100,
      "chip": "ym2612"
    },
    {
      "channel": 0,
      "note": 44,
      "start": 16.5821,
      "duration": 0.0158,
      "velocity": 115,
      "chip": "ym2612"
    },
    {
      "channel": 4,
      "note": 61,
      "start": 16.5832,
      "duration": 0.0158,
      "velocity": 120,
      "chip": "ym2612"
    },
    {
      "channel": 3,
      "note": 68,
      "start": 16.5844,
      "duration": 0.0158,
      "velocity": 120,
      "chip": "ym2612"
    },
    {
      "channel": 2,
      "note": 52,
      "start": 16.5854,
      "duration": 0.0158,
      "velocity": 100,
      "chip": "ym2612"
    },
    {
      "channel": 0,
      "note": 45,
      "start": 16.5978,
      "duration": 0.0141,
      "velocity": 115,
      "chip": "ym2612"
    },
    {
      "channel": 4,
      "note": 61,
      "start": 16.599,
      "duration": 0.0141,
      "velocity": 120,
      "chip": "ym2612"
    },
    {
      "channel": 3,
      "note": 68,
      "start": 16.6001,
      "duration": 0.0141,
      "velocity": 120,
      "chip": "ym2612"
    },
    {
      "channel": 2,
      "note": 52,
      "start": 16.6013,
      "duration": 0.0141,
      "velocity": 100,
      "chip": "ym2612"
    },
    {
      "channel": 0,
      "note": 45,
      "start": 16.6119,
      "duration": 0.0185,
      "velocity": 115,
      "chip": "ym2612"
    },
    {
      "channel": 4,
      "note": 61,
      "start": 16.613,
      "duration": 0.0185,
      "velocity": 120,
      "chip": "ym2612"
    },
    {
      "channel": 3,
      "note": 68,
      "start": 16.6142,
      "duration": 0.0185,
      "velocity": 120,
      "chip": "ym2612"
    },
    {
      "channel": 2,
      "note": 52,
      "start": 16.6153,
      "duration": 0.0185,
      "velocity": 100,
      "chip": "ym2612"
    },
    {
      "channel": 0,
      "note": 46,
      "start": 16.6304,
      "duration": 0.0134,
      "velocity": 115,
      "chip": "ym2612"
    },
    {
      "channel": 4,
      "note": 61,
      "start": 16.6315,
      "duration": 0.0161,
      "velocity": 120,
      "chip": "ym2612"
    },
    {
      "channel": 3,
      "note": 68,
      "start": 16.6327,
      "duration": 0.0161,
      "velocity": 120,
      "chip": "ym2612"
    },
    {
      "channel": 2,
      "note": 52,
      "start": 16.6338,
      "duration": 0.0161,
      "velocity": 100,
      "chip": "ym2612"
    },
    {
      "channel": 0,
      "note": 46,
      "start": 16.6438,
      "duration": 0.0202,
      "velocity": 124,
      "chip": "ym2612"
    },
    {
      "channel": 4,
      "note": 61,
      "start": 16.6476,
      "duration": 0.0178,
      "velocity": 120,
      "chip": "ym2612"
    },
    {
      "channel": 3,
      "note": 68,
      "start": 16.6488,
      "duration": 0.018,
      "velocity": 120,
      "chip": "ym2612"
    },
    {
      "channel": 2,
      "note": 52,
      "start": 16.6499,
      "duration": 0.0183,
      "velocity": 100,
      "chip": "ym2612"
    },
    {
      "channel": 0,
      "note": 84,
      "start": 16.6641,
      "duration": 0.012,
      "velocity": 124,
      "chip": "ym2612"
    },
    {
      "channel": 4,
      "note": 61,
      "start": 16.6655,
      "duration": 0.0118,
      "velocity": 120,
      "chip": "ym2612"
    },
    {
      "channel": 3,
      "note": 68,
      "start": 16.6668,
      "duration": 0.0119,
      "velocity": 120,
      "chip": "ym2612"
    },
    {
      "channel": 2,
      "note": 52,
      "start": 16.6683,
      "duration": 0.0116,
      "velocity": 100,
      "chip": "ym2612"
    },
    {
      "channel": 0,
      "note": 82,
      "start": 16.676,
      "duration": 0.016,
      "velocity": 124,
      "chip": "ym2612"
    },
    {
      "channel": 4,
      "note": 61,
      "start": 16.6772,
      "duration": 0.016,
      "velocity": 120,
      "chip": "ym2612"
    },
    {
      "channel": 3,
      "note": 68,
      "start": 16.6788,
      "duration": 0.0183,
      "velocity": 120,
      "chip": "ym2612"
    },
    {
      "channel": 2,
      "note": 52,
      "start": 16.68,
      "duration": 0.0183,
      "velocity": 100,
      "chip": "ym2612"
    },
    {
      "channel": 0,
      "note": 80,
      "start": 16.692,
      "duration": 0.0161,
      "velocity": 124,
      "chip": "ym2612"
    },
    {
      "channel": 4,
      "note": 61,
      "start": 16.6932,
      "duration": 0.0161,
      "velocity": 120,
      "chip": "ym2612"
    },
    {
      "channel": 3,
      "note": 68,
      "start": 16.6971,
      "duration": 0.0134,
      "velocity": 120,
      "chip": "ym2612"
    },
    {
      "channel": 2,
      "note": 52,
      "start": 16.6982,
      "duration": 0.0161,
      "velocity": 100,
      "chip": "ym2612"
    },
    {
      "channel": 0,
      "note": 77,
      "start": 16.7081,
      "duration": 0.0161,
      "velocity": 124,
      "chip": "ym2612"
    },
    {
      "channel": 4,
      "note": 61,
      "start": 16.7093,
      "duration": 0.0161,
      "velocity": 120,
      "chip": "ym2612"
    },
    {
      "channel": 3,
      "note": 68,
      "start": 16.7104,
      "duration": 0.0161,
      "velocity": 120,
      "chip": "ym2612"
    },
    {
      "channel": 2,
      "note": 52,
      "start": 16.7143,
      "duration": 0.0158,
      "velocity": 100,
      "chip": "ym2612"
    },
    {
      "channel": 0,
      "note": 75,
      "start": 16.7242,
      "duration": 0.0161,
      "velocity": 124,
      "chip": "ym2612"
    },
    {
      "channel": 4,
      "note": 61,
      "start": 16.7254,
      "duration": 0.0161,
      "velocity": 120,
      "chip": "ym2612"
    },
    {
      "channel": 3,
      "note": 68,
      "start": 16.7265,
      "duration": 0.0161,
      "velocity": 120,
      "chip": "ym2612"
    },
    {
      "channel": 2,
      "note": 52,
      "start": 16.7301,
      "duration": 0.0137,
      "velocity": 100,
      "chip": "ym2612"
    },
    {
      "channel": 0,
      "note": 72,
      "start": 16.7404,
      "duration": 0.0161,
      "velocity": 124,
      "chip": "ym2612"
    },
    {
      "channel": 4,
      "note": 61,
      "start": 16.7415,
      "duration": 0.0161,
      "velocity": 120,
      "chip": "ym2612"
    },
    {
      "channel": 3,
      "note": 68,
      "start": 16.7427,
      "duration": 0.0161,
      "velocity": 120,
      "chip": "ym2612"
    },
    {
      "channel": 2,
      "note": 52,
      "start": 16.7438,
      "duration": 0.0161,
      "velocity": 100,
      "chip": "ym2612"
    },
    {
      "channel": 0,
      "note": 70,
      "start": 16.7565,
      "duration": 0.0161,
      "velocity": 124,
      "chip": "ym2612"
    },
    {
      "channel": 4,
      "note": 61,
      "start": 16.7576,
      "duration": 0.0161,
      "velocity": 120,
      "chip": "ym2612"
    },
    {
      "channel": 3,
      "note": 68,
      "start": 16.7588,
      "duration": 0.0161,
      "velocity": 120,
      "chip": "ym2612"
    },
    {
      "channel": 2,
      "note": 52,
      "start": 16.7599,
      "duration": 0.0161,
      "velocity": 100,
      "chip": "ym2612"
    },
    {
      "channel": 0,
      "note": 68,
      "start": 16.7726,
      "duration": 0.0161,
      "velocity": 124,
      "chip": "ym2612"
    },
    {
      "channel": 4,
      "note": 61,
      "start": 16.7737,
      "duration": 0.0161,
      "velocity": 120,
      "chip": "ym2612"
    },
    {
      "channel": 3,
      "note": 68,
      "start": 16.7749,
      "duration": 0.0161,
      "velocity": 120,
      "chip": "ym2612"
    },
    {
      "channel": 2,
      "note": 52,
      "start": 16.776,
      "duration": 0.0161,
      "velocity": 100,
      "chip": "ym2612"
    },
    {
      "channel": 0,
      "note": 65,
      "start": 16.7887,
      "duration": 0.0161,
      "velocity": 124,
      "chip": "ym2612"
    },
    {
      "channel": 4,
      "note": 61,
      "start": 16.7898,
      "duration": 0.0161,
      "velocity": 120,
      "chip": "ym2612"
    },
    {
      "channel": 3,
      "note": 68,
      "start": 16.791,
      "duration": 0.0161,
      "velocity": 120,
      "chip": "ym2612"
    },
    {
      "channel": 2,
      "note": 52,
      "start": 16.792,
      "duration": 0.0162,
      "velocity": 100,
      "chip": "ym2612"
    },
    {
      "channel": 0,
      "note": 63,
      "start": 16.8048,
      "duration": 0.0153,
      "velocity": 1,
      "chip": "ym2612"
    },
    {
      "channel": 4,
      "note": 61,
      "start": 16.8059,
      "duration": 0.0153,
      "velocity": 120,
      "chip": "ym2612"
    },
    {
      "channel": 3,
      "note": 68,
      "start": 16.8071,
      "duration": 0.0153,
      "velocity": 120,
      "chip": "ym2612"
    },
    {
      "channel": 2,
      "note": 52,
      "start": 16.8082,
      "duration": 0.0153,
      "velocity": 100,
      "chip": "ym2612"
    },
    {
      "channel": 4,
      "note": 61,
      "start": 16.8212,
      "duration": 0.0152,
      "velocity": 120,
      "chip": "ym2612"
    },
    {
      "channel": 3,
      "note": 68,
      "start": 16.8223,
      "duration": 0.0153,
      "velocity": 120,
      "chip": "ym2612"
    },
    {
      "channel": 2,
      "note": 52,
      "start": 16.8235,
      "duration": 0.0153,
      "velocity": 100,
      "chip": "ym2612"
    },
    {
      "channel": 4,
      "note": 61,
      "start": 16.8364,
      "duration": 0.0163,
      "velocity": 120,
      "chip": "ym2612"
    },
    {
      "channel": 3,
      "note": 68,
      "start": 16.8376,
      "duration": 0.0166,
      "velocity": 120,
      "chip": "ym2612"
    },
    {
      "channel": 2,
      "note": 52,
      "start": 16.8387,
      "duration": 0.0169,
      "velocity": 100,
      "chip": "ym2612"
    },
    {
      "channel": 4,
      "note": 59,
      "start": 16.8529,
      "duration": 0.0159,
      "velocity": 120,
      "chip": "ym2612"
    },
    {
      "channel": 3,
      "note": 66,
      "start": 16.8543,
      "duration": 0.0156,
      "velocity": 120,
      "chip": "ym2612"
    },
    {
      "channel": 2,
      "note": 52,
      "start": 16.8557,
      "duration": 0.0154,
      "velocity": 100,
      "chip": "ym2612"
    },
    {
      "channel": 4,
      "note": 59,
      "start": 16.8687,
      "duration": 0.0161,
      "velocity": 120,
      "chip": "ym2612"
    },
    {
      "channel": 3,
      "note": 66,
      "start": 16.8699,
      "duration": 0.016,
      "velocity": 120,
      "chip": "ym2612"
    },
    {
      "channel": 2,
      "note": 52,
      "start": 16.8711,
      "duration": 0.0159,
      "velocity": 100,
      "chip": "ym2612"
    },
    {
      "channel": 4,
      "note": 59,
      "start": 16.8848,
      "duration": 0.0161,
      "velocity": 120,
      "chip": "ym2612"
    },
    {
      "channel": 3,
      "note": 66,
      "start": 16.8859,
      "duration": 0.0161,
      "velocity": 120,
      "chip": "ym2612"
    },
    {
      "channel": 2,
      "note": 52,
      "start": 16.887,
      "duration": 0.0161,
      "velocity": 100,
      "chip": "ym2612"
    },
    {
      "channel": 4,
      "note": 59,
      "start": 16.9009,
      "duration": 0.0161,
      "velocity": 120,
      "chip": "ym2612"
    },
    {
      "channel": 3,
      "note": 66,
      "start": 16.902,
      "duration": 0.0161,
      "velocity": 120,
      "chip": "ym2612"
    },
    {
      "channel": 2,
      "note": 52,
      "start": 16.9031,
      "duration": 0.0161,
      "velocity": 100,
      "chip": "ym2612"
    },
    {
      "channel": 4,
      "note": 59,
      "start": 16.917,
      "duration": 0.0161,
      "velocity": 120,
      "chip": "ym2612"
    },
    {
      "channel": 3,
      "note": 66,
      "start": 16.9181,
      "duration": 0.0161,
      "velocity": 120,
      "chip": "ym2612"
    },
    {
      "channel": 2,
      "note": 52,
      "start": 16.9192,
      "duration": 0.0162,
      "velocity": 100,
      "chip": "ym2612"
    },
    {
      "channel": 4,
      "note": 59,
      "start": 16.9331,
      "duration": 0.0161,
      "velocity": 120,
      "chip": "ym2612"
    },
    {
      "channel": 3,
      "note": 66,
      "start": 16.9342,
      "duration": 0.0161,
      "velocity": 120,
      "chip": "ym2612"
    },
    {
      "channel": 2,
      "note": 52,
      "start": 16.9354,
      "duration": 0.0161,
      "velocity": 100,
      "chip": "ym2612"
    },
    {
      "channel": 4,
      "note": 59,
      "start": 16.9492,
      "duration": 0.0161,
      "velocity": 120,
      "chip": "ym2612"
    },
    {
      "channel": 3,
      "note": 66,
      "start": 16.9503,
      "duration": 0.0161,
      "velocity": 120,
      "chip": "ym2612"
    },
    {
      "channel": 2,
      "note": 52,
      "start": 16.9515,
      "duration": 0.0161,
      "velocity": 100,
      "chip": "ym2612"
    },
    {
      "channel": 4,
      "note": 59,
      "start": 16.9653,
      "duration": 0.0163,
      "velocity": 120,
      "chip": "ym2612"
    },
    {
      "channel": 3,
      "note": 66,
      "start": 16.9664,
      "duration": 0.0163,
      "velocity": 120,
      "chip": "ym2612"
    },
    {
      "channel": 2,
      "note": 52,
      "start": 16.9676,
      "duration": 0.0162,
      "velocity": 100,
      "chip": "ym2612"
    },
    {
      "channel": 4,
      "note": 59,
      "start": 16.9815,
      "duration": 0.0163,
      "velocity": 120,
      "chip": "ym2612"
    },
    {
      "channel": 3,
      "note": 66,
      "start": 16.9827,
      "duration": 0.0163,
      "velocity": 120,
      "chip": "ym2612"
    },
    {
      "channel": 2,
      "note": 52,
      "start": 16.9838,
      "duration": 0.0163,
      "velocity": 100,
      "chip": "ym2612"
    },
    {
      "channel": 4,
      "note": 59,
      "start": 16.9978,
      "duration": 0.0158,
      "velocity": 120,
      "chip": "ym2612"
    },
    {
      "channel": 3,
      "note": 66,
      "start": 16.999,
      "duration": 0.0158,
      "velocity": 120,
      "chip": "ym2612"
    },
    {
      "channel": 2,
      "note": 52,
      "start": 17.0001,
      "duration": 0.0157,
      "velocity": 100,
      "chip": "ym2612"
    },
    {
      "channel": 4,
      "note": 59,
      "start": 17.0136,
      "duration": 0.0179,
      "velocity": 120,
      "chip": "ym2612"
    },
    {
      "channel": 3,
      "note": 66,
      "start": 17.0148,
      "duration": 0.0179,
      "velocity": 120,
      "chip": "ym2612"
    },
    {
      "channel": 2,
      "note": 52,
      "start": 17.0158,
      "duration": 0.018,
      "velocity": 100,
      "chip": "ym2612"
    },
    {
      "channel": 4,
      "note": 59,
      "start": 17.0315,
      "duration": 0.0203,
      "velocity": 120,
      "chip": "ym2612"
    },
    {
      "channel": 3,
      "note": 66,
      "start": 17.0327,
      "duration": 0.0205,
      "velocity": 120,
      "chip": "ym2612"
    },
    {
      "channel": 2,
      "note": 52,
      "start": 17.0338,
      "duration": 0.0209,
      "velocity": 100,
      "chip": "ym2612"
    },
    {
      "channel": 0,
      "note": 36,
      "start": 17.0505,
      "duration": 0.0143,
      "velocity": 115,
      "chip": "ym2612"
    },
    {
      "channel": 4,
      "note": 59,
      "start": 17.0519,
      "duration": 0.0141,
      "velocity": 120,
      "chip": "ym2612"
    },
    {
      "channel": 3,
      "note": 66,
      "start": 17.0533,
      "duration": 0.0139,
      "velocity": 120,
      "chip": "ym2612"
    },
    {
      "channel": 2,
      "note": 52,
      "start": 17.0548,
      "duration": 0.0137,
      "velocity": 100,
      "chip": "ym2612"
    },
    {
      "channel": 0,
      "note": 36,
      "start": 17.0648,
      "duration": 0.014,
      "velocity": 115,
      "chip": "ym2612"
    },
    {
      "channel": 4,
      "note": 59,
      "start": 17.066,
      "duration": 0.0139,
      "velocity": 120,
      "chip": "ym2612"
    },
    {
      "channel": 3,
      "note": 66,
      "start": 17.0672,
      "duration": 0.0139,
      "velocity": 120,
      "chip": "ym2612"
    },
    {
      "channel": 2,
      "note": 52,
      "start": 17.0684,
      "duration": 0.0138,
      "velocity": 100,
      "chip": "ym2612"
    },
    {
      "channel": 0,
      "note": 37,
      "start": 17.0788,
      "duration": 0.0185,
      "velocity": 115,
      "chip": "ym2612"
    },
    {
      "channel": 4,
      "note": 59,
      "start": 17.08,
      "duration": 0.0185,
      "velocity": 120,
      "chip": "ym2612"
    },
    {
      "channel": 3,
      "note": 66,
      "start": 17.0811,
      "duration": 0.0185,
      "velocity": 120,
      "chip": "ym2612"
    },
    {
      "channel": 2,
      "note": 52,
      "start": 17.0822,
      "duration": 0.0185,
      "velocity": 100,
      "chip": "ym2612"
    },
    {
      "channel": 0,
      "note": 37,
      "start": 17.0973,
      "duration": 0.0161,
      "velocity": 115,
      "chip": "ym2612"
    },
    {
      "channel": 4,
      "note": 59,
      "start": 17.0985,
      "duration": 0.0161,
      "velocity": 120,
      "chip": "ym2612"
    },
    {
      "channel": 3,
      "note": 66,
      "start": 17.0996,
      "duration": 0.0161,
      "velocity": 120,
      "chip": "ym2612"
    },
    {
      "channel": 2,
      "note": 52,
      "start": 17.1008,
      "duration": 0.0161,
      "velocity": 100,
      "chip": "ym2612"
    },
    {
      "channel": 0,
      "note": 38,
      "start": 17.1134,
      "duration": 0.0134,
      "velocity": 115,
      "chip": "ym2612"
    },
    {
      "channel": 4,
      "note": 59,
      "start": 17.1146,
      "duration": 0.0158,
      "velocity": 120,
      "chip": "ym2612"
    },
    {
      "channel": 3,
      "note": 66,
      "start": 17.1157,
      "duration": 0.0157,
      "velocity": 120,
      "chip": "ym2612"
    },
    {
      "channel": 2,
      "note": 52,
      "start": 17.1168,
      "duration": 0.0157,
      "velocity": 100,
      "chip": "ym2612"
    },
    {
      "channel": 0,
      "note": 38,
      "start": 17.1268,
      "duration": 0.0161,
      "velocity": 115,
      "chip": "ym2612"
    },
    {
      "channel": 4,
      "note": 59,
      "start": 17.1303,
      "duration": 0.0138,
      "velocity": 120,
      "chip": "ym2612"
    },
    {
      "channel": 3,
      "note": 66,
      "start": 17.1314,
      "duration": 0.0141,
      "velocity": 120,
      "chip": "ym2612"
    },
    {
      "channel": 2,
      "note": 52,
      "start": 17.1326,
      "duration": 0.0141,
      "velocity": 100,
      "chip": "ym2612"
    },
    {
      "channel": 0,
      "note": 39,
      "start": 17.1429,
      "duration": 0.0161,
      "velocity": 115,
      "chip": "ym2612"
    },
    {
      "channel": 4,
      "note": 59,
      "start": 17.1441,
      "duration": 0.016,
      "velocity": 120,
      "chip": "ym2612"
    },
    {
      "channel": 3,
      "note": 66,
      "start": 17.1455,
      "duration": 0.0185,
      "velocity": 120,
      "chip": "ym2612"
    },
    {
      "channel": 2,
      "note": 52,
      "start": 17.1466,
      "duration": 0.0185,
      "velocity": 100,
      "chip": "ym2612"
    },
    {
      "channel": 0,
      "note": 39,
      "start": 17.159,
      "duration": 0.0162,
      "velocity": 115,
      "chip": "ym2612"
    },
    {
      "channel": 4,
      "note": 59,
      "start": 17.1601,
      "duration": 0.0162,
      "velocity": 120,
      "chip": "ym2612"
    },
    {
      "channel": 3,
      "note": 66,
      "start": 17.164,
      "duration": 0.0162,
      "velocity": 120,
      "chip": "ym2612"
    },
    {
      "channel": 2,
      "note": 52,
      "start": 17.1651,
      "duration": 0.0161,
      "velocity": 100,
      "chip": "ym2612"
    },
    {
      "channel": 0,
      "note": 40,
      "start": 17.1751,
      "duration": 0.0161,
      "velocity": 115,
      "chip": "ym2612"
    },
    {
      "channel": 4,
      "note": 59,
      "start": 17.1763,
      "duration": 0.0161,
      "velocity": 120,
      "chip": "ym2612"
    },
    {
      "channel": 3,
      "note": 66,
      "start": 17.1802,
      "duration": 0.0134,
      "velocity": 120,
      "chip": "ym2612"
    },
    {
      "channel": 2,
      "note": 52,
      "start": 17.1813,
      "duration": 0.0157,
      "velocity": 100,
      "chip": "ym2612"
    },
    {
      "channel": 0,
      "note": 40,
      "start": 17.1912,
      "duration": 0.0161,
      "velocity": 115,
      "chip": "ym2612"
    },
    {
      "channel": 4,
      "note": 59,
      "start": 17.1924,
      "duration": 0.0161,
      "velocity": 120,
      "chip": "ym2612"
    },
    {
      "channel": 3,
      "note": 66,
      "start": 17.1935,
      "duration": 0.0161,
      "velocity": 120,
      "chip": "ym2612"
    },
    {
      "channel": 2,
      "note": 52,
      "start": 17.197,
      "duration": 0.0139,
      "velocity": 100,
      "chip": "ym2612"
    },
    {
      "channel": 0,
      "note": 40,
      "start": 17.2073,
      "duration": 0.0161,
      "velocity": 115,
      "chip": "ym2612"
    },
    {
      "channel": 4,
      "note": 59,
      "start": 17.2085,
      "duration": 0.0161,
      "velocity": 120,
      "chip": "ym2612"
    },
    {
      "channel": 3,
      "note": 66,
      "start": 17.2096,
      "duration": 0.0161,
      "velocity": 120,
      "chip": "ym2612"
    },
    {
      "channel": 2,
      "note": 52,
      "start": 17.2109,
      "duration": 0.016,
      "velocity": 100,
      "chip": "ym2612"
    },
    {
      "channel": 0,
      "note": 41,
      "start": 17.2234,
      "duration": 0.0161,
      "velocity": 115,
      "chip": "ym2612"
    },
    {
      "channel": 4,
      "note": 59,
      "start": 17.2246,
      "duration": 0.0163,
      "velocity": 120,
      "chip": "ym2612"
    },
    {
      "channel": 3,
      "note": 66,
      "start": 17.2257,
      "duration": 0.0166,
      "velocity": 120,
      "chip": "ym2612"
    },
    {
      "channel": 2,
      "note": 52,
      "start": 17.2268,
      "duration": 0.0168,
      "velocity": 100,
      "chip": "ym2612"
    },
    {
      "channel": 0,
      "note": 41,
      "start": 17.2395,
      "duration": 0.0161,
      "velocity": 115,
      "chip": "ym2612"
    },
    {
      "channel": 4,
      "note": 59,
      "start": 17.2409,
      "duration": 0.0159,
      "velocity": 120,
      "chip": "ym2612"
    },
    {
      "channel": 3,
      "note": 66,
      "start": 17.2423,
      "duration": 0.0157,
      "velocity": 120,
      "chip": "ym2612"
    },
    {
      "channel": 2,
      "note": 52,
      "start": 17.2438,
      "duration": 0.0155,
      "velocity": 100,
      "chip": "ym2612"
    },
    {
      "channel": 0,
      "note": 42,
      "start": 17.2556,
      "duration": 0.0161,
      "velocity": 115,
      "chip": "ym2612"
    },
    {
      "channel": 4,
      "note": 59,
      "start": 17.2568,
      "duration": 0.016,
      "velocity": 120,
      "chip": "ym2612"
    },
    {
      "channel": 3,
      "note": 66,
      "start": 17.258,
      "duration": 0.016,
      "velocity": 120,
      "chip": "ym2612"
    },
    {
      "channel": 2,
      "note": 52,
      "start": 17.2592,
      "duration": 0.0159,
      "velocity": 100,
      "chip": "ym2612"
    },
    {
      "channel": 0,
      "note": 42,
      "start": 17.2717,
      "duration": 0.0161,
      "velocity": 115,
      "chip": "ym2612"
    },
    {
      "channel": 4,
      "note": 59,
      "start": 17.2728,
      "duration": 0.0161,
      "velocity": 120,
      "chip": "ym2612"
    },
    {
      "channel": 3,
      "note": 66,
      "start": 17.274,
      "duration": 0.0161,
      "velocity": 120,
      "chip": "ym2612"
    },
    {
      "channel": 2,
      "note": 52,
      "start": 17.2751,
      "duration": 0.0161,
      "velocity": 100,
      "chip": "ym2612"
    },
    {
      "channel": 0,
      "note": 43,
      "start": 17.2878,
      "duration": 0.0161,
      "velocity": 115,
      "chip": "ym2612"
    },
    {
      "channel": 4,
      "note": 59,
      "start": 17.2889,
      "duration": 0.0161,
      "velocity": 120,
      "chip": "ym2612"
    },
    {
      "channel": 3,
      "note": 66,
      "start": 17.2901,
      "duration": 0.0161,
      "velocity": 120,
      "chip": "ym2612"
    },
    {
      "channel": 2,
      "note": 52,
      "start": 17.2912,
      "duration": 0.0161,
      "velocity": 100,
      "chip": "ym2612"
    },
    {
      "channel": 0,
      "note": 43,
      "start": 17.3039,
      "duration": 0.0161,
      "velocity": 115,
      "chip": "ym2612"
    },
    {
      "channel": 4,
      "note": 59,
      "start": 17.305,
      "duration": 0.0161,
      "velocity": 120,
      "chip": "ym2612"
    },
    {
      "channel": 3,
      "note": 66,
      "start": 17.3062,
      "duration": 0.0161,
      "velocity": 120,
      "chip": "ym2612"
    },
    {
      "channel": 2,
      "note": 52,
      "start": 17.3073,
      "duration": 0.0161,
      "velocity": 100,
      "chip": "ym2612"
    },
    {
      "channel": 0,
      "note": 44,
      "start": 17.32,
      "duration": 0.0161,
      "velocity": 115,
      "chip": "ym2612"
    },
    {
      "channel": 4,
      "note": 59,
      "start": 17.3211,
      "duration": 0.0162,
      "velocity": 120,
      "chip": "ym2612"
    },
    {
      "channel": 3,
      "note": 66,
      "start": 17.3223,
      "duration": 0.0161,
      "velocity": 120,
      "chip": "ym2612"
    },
    {
      "channel": 2,
      "note": 52,
      "start": 17.3234,
      "duration": 0.0161,
      "velocity": 100,
      "chip": "ym2612"
    },
    {
      "channel": 0,
      "note": 44,
      "start": 17.3361,
      "duration": 0.0161,
      "velocity": 115,
      "chip": "ym2612"
    },
    {
      "channel": 4,
      "note": 59,
      "start": 17.3373,
      "duration": 0.0161,
      "velocity": 120,
      "chip": "ym2612"
    },
    {
      "channel": 3,
      "note": 66,
      "start": 17.3384,
      "duration": 0.0161,
      "velocity": 120,
      "chip": "ym2612"
    },
    {
      "channel": 2,
      "note": 52,
      "start": 17.3395,
      "duration": 0.0161,
      "velocity": 100,
      "chip": "ym2612"
    },
    {
      "channel": 0,
      "note": 44,
      "start": 17.3522,
      "duration": 0.0161,
      "velocity": 115,
      "chip": "ym2612"
    },
    {
      "channel": 4,
      "note": 59,
      "start": 17.3534,
      "duration": 0.0161,
      "velocity": 120,
      "chip": "ym2612"
    },
    {
      "channel": 3,
      "note": 66,
      "start": 17.3545,
      "duration": 0.0161,
      "velocity": 120,
      "chip": "ym2612"
    },
    {
      "channel": 2,
      "note": 52,
      "start": 17.3556,
      "duration": 0.0161,
      "velocity": 100,
      "chip": "ym2612"
    },
    {
      "channel": 0,
      "note": 45,
      "start": 17.3683,
      "duration": 0.0161,
      "velocity": 115,
      "chip": "ym2612"
    },
    {
      "channel": 4,
      "note": 59,
      "start": 17.3695,
      "duration": 0.0161,
      "velocity": 120,
      "chip": "ym2612"
    },
    {
      "channel": 3,
      "note": 66,
      "start": 17.3706,
      "duration": 0.0161,
      "velocity": 120,
      "chip": "ym2612"
    },
    {
      "channel": 2,
      "note": 52,
      "start": 17.3717,
      "duration": 0.0161,
      "velocity": 100,
      "chip": "ym2612"
    },
    {
      "channel": 0,
      "note": 45,
      "start": 17.3844,
      "duration": 0.0161,
      "velocity": 115,
      "chip": "ym2612"
    },
    {
      "channel": 4,
      "note": 59,
      "start": 17.3856,
      "duration": 0.0161,
      "velocity": 120,
      "chip": "ym2612"
    },
    {
      "channel": 3,
      "note": 66,
      "start": 17.3867,
      "duration": 0.0161,
      "velocity": 120,
      "chip": "ym2612"
    },
    {
      "channel": 2,
      "note": 52,
      "start": 17.3878,
      "duration": 0.0161,
      "velocity": 100,
      "chip": "ym2612"
    },
    {
      "channel": 0,
      "note": 46,
      "start": 17.4005,
      "duration": 0.0161,
      "velocity": 115,
      "chip": "ym2612"
    },
    {
      "channel": 4,
      "note": 59,
      "start": 17.4017,
      "duration": 0.0161,
      "velocity": 120,
      "chip": "ym2612"
    },
    {
      "channel": 3,
      "note": 66,
      "start": 17.4028,
      "duration": 0.0161,
      "velocity": 120,
      "chip": "ym2612"
    },
    {
      "channel": 2,
      "note": 52,
      "start": 17.4039,
      "duration": 0.0161,
      "velocity": 100,
      "chip": "ym2612"
    },
    {
      "channel": 0,
      "note": 46,
      "start": 17.4166,
      "duration": 0.0179,
      "velocity": 124,
      "chip": "ym2612"
    },
    {
      "channel": 4,
      "note": 59,
      "start": 17.4178,
      "duration": 0.0181,
      "velocity": 120,
      "chip": "ym2612"
    },
    {
      "channel": 3,
      "note": 66,
      "start": 17.4189,
      "duration": 0.0184,
      "velocity": 120,
      "chip": "ym2612"
    },
    {
      "channel": 2,
      "note": 52,
      "start": 17.42,
      "duration": 0.0187,
      "velocity": 100,
      "chip": "ym2612"
    },
    {
      "channel": 0,
      "note": 84,
      "start": 17.4345,
      "duration": 0.0144,
      "velocity": 124,
      "chip": "ym2612"
    },
    {
      "channel": 4,
      "note": 59,
      "start": 17.4359,
      "duration": 0.0141,
      "velocity": 120,
      "chip": "ym2612"
    },
    {
      "channel": 3,
      "note": 66,
      "start": 17.4373,
      "duration": 0.014,
      "velocity": 120,
      "chip": "ym2612"
    },
    {
      "channel": 2,
      "note": 52,
      "start": 17.4387,
      "duration": 0.0137,
      "velocity": 100,
      "chip": "ym2612"
    },
    {
      "channel": 0,
      "note": 82,
      "start": 17.4488,
      "duration": 0.0162,
      "velocity": 124,
      "chip": "ym2612"
    },
    {
      "channel": 4,
      "note": 59,
      "start": 17.4501,
      "duration": 0.0161,
      "velocity": 120,
      "chip": "ym2612"
    },
    {
      "channel": 3,
      "note": 66,
      "start": 17.4513,
      "duration": 0.016,
      "velocity": 120,
      "chip": "ym2612"
    },
    {
      "channel": 2,
      "note": 52,
      "start": 17.4525,
      "duration": 0.016,
      "velocity": 100,
      "chip": "ym2612"
    },
    {
      "channel": 0,
      "note": 80,
      "start": 17.465,
      "duration": 0.016,
      "velocity": 124,
      "chip": "ym2612"
    },
    {
      "channel": 4,
      "note": 59,
      "start": 17.4661,
      "duration": 0.016,
      "velocity": 120,
      "chip": "ym2612"
    },
    {
      "channel": 3,
      "note": 66,
      "start": 17.4673,
      "duration": 0.016,
      "velocity": 120,
      "chip": "ym2612"
    },
    {
      "channel": 2,
      "note": 52,
      "start": 17.4684,
      "duration": 0.016,
      "velocity": 100,
      "chip": "ym2612"
    },
    {
      "channel": 0,
      "note": 77,
      "start": 17.481,
      "duration": 0.0177,
      "velocity": 124,
      "chip": "ym2612"
    },
    {
      "channel": 4,
      "note": 59,
      "start": 17.4822,
      "duration": 0.0177,
      "velocity": 120,
      "chip": "ym2612"
    },
    {
      "channel": 3,
      "note": 66,
      "start": 17.4833,
      "duration": 0.0177,
      "velocity": 120,
      "chip": "ym2612"
    },
    {
      "channel": 2,
      "note": 52,
      "start": 17.4844,
      "duration": 0.0177,
      "velocity": 100,
      "chip": "ym2612"
    },
    {
      "channel": 0,
      "note": 75,
      "start": 17.4987,
      "duration": 0.0167,
      "velocity": 124,
      "chip": "ym2612"
    },
    {
      "channel": 4,
      "note": 59,
      "start": 17.4999,
      "duration": 0.0167,
      "velocity": 120,
      "chip": "ym2612"
    },
    {
      "channel": 3,
      "note": 66,
      "start": 17.501,
      "duration": 0.0167,
      "velocity": 120,
      "chip": "ym2612"
    },
    {
      "channel": 2,
      "note": 52,
      "start": 17.5021,
      "duration": 0.0167,
      "velocity": 100,
      "chip": "ym2612"
    },
    {
      "channel": 0,
      "note": 72,
      "start": 17.5154,
      "duration": 0.0163,
      "velocity": 124,
      "chip": "ym2612"
    },
    {
      "channel": 4,
      "note": 59,
      "start": 17.5165,
      "duration": 0.0163,
      "velocity": 120,
      "chip": "ym2612"
    },
    {
      "channel": 3,
      "note": 66,
      "start": 17.5177,
      "duration": 0.0163,
      "velocity": 120,
      "chip": "ym2612"
    },
    {
      "channel": 2,
      "note": 52,
      "start": 17.5188,
      "duration": 0.0163,
      "velocity": 100,
      "chip": "ym2612"
    },
    {
      "channel": 0,
      "note": 70,
      "start": 17.5317,
      "duration": 0.0141,
      "velocity": 124,
      "chip": "ym2612"
    },
    {
      "channel": 4,
      "note": 59,
      "start": 17.5328,
      "duration": 0.0141,
      "velocity": 120,
      "chip": "ym2612"
    },
    {
      "channel": 3,
      "note": 66,
      "start": 17.534,
      "duration": 0.0141,
      "velocity": 120,
      "chip": "ym2612"
    },
    {
      "channel": 2,
      "note": 52,
      "start": 17.5351,
      "duration": 0.0141,
      "velocity": 100,
      "chip": "ym2612"
    },
    {
      "channel": 0,
      "note": 68,
      "start": 17.5457,
      "duration": 0.0185,
      "velocity": 124,
      "chip": "ym2612"
    },
    {
      "channel": 4,
      "note": 59,
      "start": 17.5469,
      "duration": 0.0185,
      "velocity": 120,
      "chip": "ym2612"
    },
    {
      "channel": 3,
      "note": 66,
      "start": 17.548,
      "duration": 0.0185,
      "velocity": 120,
      "chip": "ym2612"
    },
    {
      "channel": 2,
      "note": 52,
      "start": 17.5492,
      "duration": 0.0185,
      "velocity": 100,
      "chip": "ym2612"
    },
    {
      "channel": 0,
      "note": 65,
      "start": 17.5642,
      "duration": 0.0161,
      "velocity": 124,
      "chip": "ym2612"
    },
    {
      "channel": 4,
      "note": 59,
      "start": 17.5654,
      "duration": 0.0161,
      "velocity": 120,
      "chip": "ym2612"
    },
    {
      "channel": 3,
      "note": 66,
      "start": 17.5665,
      "duration": 0.0161,
      "velocity": 120,
      "chip": "ym2612"
    },
    {
      "channel": 2,
      "note": 52,
      "start": 17.5677,
      "duration": 0.0161,
      "velocity": 100,
      "chip": "ym2612"
    },
    {
      "channel": 0,
      "note": 63,
      "start": 17.5803,
      "duration": 0.0126,
      "velocity": 1,
      "chip": "ym2612"
    },
    {
      "channel": 4,
      "note": 59,
      "start": 17.5815,
      "duration": 0.0149,
      "velocity": 120,
      "chip": "ym2612"
    },
    {
      "channel": 3,
      "note": 66,
      "start": 17.5826,
      "duration": 0.0149,
      "velocity": 120,
      "chip": "ym2612"
    },
    {
      "channel": 2,
      "note": 52,
      "start": 17.5838,
      "duration": 0.0149,
      "velocity": 100,
      "chip": "ym2612"
    },
    {
      "channel": 4,
      "note": 59,
      "start": 17.5964,
      "duration": 0.0129,
      "velocity": 120,
      "chip": "ym2612"
    },
    {
      "channel": 3,
      "note": 66,
      "start": 17.5976,
      "duration": 0.0129,
      "velocity": 120,
      "chip": "ym2612"
    },
    {
      "channel": 2,
      "note": 52,
      "start": 17.5987,
      "duration": 0.0132,
      "velocity": 100,
      "chip": "ym2612"
    },
    {
      "channel": 4,
      "note": 59,
      "start": 17.6093,
      "duration": 0.0225,
      "velocity": 120,
      "chip": "ym2612"
    },
    {
      "channel": 3,
      "note": 66,
      "start": 17.6104,
      "duration": 0.0228,
      "velocity": 120,
      "chip": "ym2612"
    },
    {
      "channel": 2,
      "note": 52,
      "start": 17.6119,
      "duration": 0.0228,
      "velocity": 100,
      "chip": "ym2612"
    },
    {
      "channel": 0,
      "note": 36,
      "start": 17.6305,
      "duration": 0.0116,
      "velocity": 115,
      "chip": "ym2612"
    },
    {
      "channel": 4,
      "note": 59,
      "start": 17.6319,
      "duration": 0.0115,
      "velocity": 120,
      "chip": "ym2612"
    },
    {
      "channel": 3,
      "note": 66,
      "start": 17.6333,
      "duration": 0.014,
      "velocity": 120,
      "chip": "ym2612"
    },
    {
      "channel": 2,
      "note": 52,
      "start": 17.6347,
      "duration": 0.0137,
      "velocity": 100,
      "chip": "ym2612"
    },
    {
      "channel": 0,
      "note": 36,
      "start": 17.6421,
      "duration": 0.016,
      "velocity": 115,
      "chip": "ym2612"
    },
    {
      "channel": 4,
      "note": 59,
      "start": 17.6433,
      "duration": 0.016,
      "velocity": 120,
      "chip": "ym2612"
    },
    {
      "channel": 3,
      "note": 66,
      "start": 17.6473,
      "duration": 0.0132,
      "velocity": 120,
      "chip": "ym2612"
    },
    {
      "channel": 2,
      "note": 52,
      "start": 17.6484,
      "duration": 0.0155,
      "velocity": 100,
      "chip": "ym2612"
    },
    {
      "channel": 0,
      "note": 37,
      "start": 17.6581,
      "duration": 0.0161,
      "velocity": 115,
      "chip": "ym2612"
    },
    {
      "channel": 4,
      "note": 59,
      "start": 17.6593,
      "duration": 0.0161,
      "velocity": 120,
      "chip": "ym2612"
    },
    {
      "channel": 3,
      "note": 66,
      "start": 17.6604,
      "duration": 0.0161,
      "velocity": 120,
      "chip": "ym2612"
    },
    {
      "channel": 2,
      "note": 52,
      "start": 17.6639,
      "duration": 0.0141,
      "velocity": 100,
      "chip": "ym2612"
    },
    {
      "channel": 0,
      "note": 37,
      "start": 17.6742,
      "duration": 0.0161,
      "velocity": 115,
      "chip": "ym2612"
    },
    {
      "channel": 4,
      "note": 59,
      "start": 17.6754,
      "duration": 0.0161,
      "velocity": 120,
      "chip": "ym2612"
    },
    {
      "channel": 3,
      "note": 66,
      "start": 17.6765,
      "duration": 0.0161,
      "velocity": 120,
      "chip": "ym2612"
    },
    {
      "channel": 2,
      "note": 52,
      "start": 17.678,
      "duration": 0.0158,
      "velocity": 100,
      "chip": "ym2612"
    },
    {
      "channel": 0,
      "note": 38,
      "start": 17.6903,
      "duration": 0.0161,
      "velocity": 115,
      "chip": "ym2612"
    },
    {
      "channel": 4,
      "note": 59,
      "start": 17.6915,
      "duration": 0.0161,
      "velocity": 120,
      "chip": "ym2612"
    },
    {
      "channel": 3,
      "note": 66,
      "start": 17.6926,
      "duration": 0.0161,
      "velocity": 120,
      "chip": "ym2612"
    },
    {
      "channel": 2,
      "note": 52,
      "start": 17.6938,
      "duration": 0.0161,
      "velocity": 100,
      "chip": "ym2612"
    },
    {
      "channel": 0,
      "note": 38,
      "start": 17.7064,
      "duration": 0.0161,
      "velocity": 115,
      "chip": "ym2612"
    },
    {
      "channel": 4,
      "note": 59,
      "start": 17.7076,
      "duration": 0.0161,
      "velocity": 120,
      "chip": "ym2612"
    },
    {
      "channel": 3,
      "note": 66,
      "start": 17.7087,
      "duration": 0.0161,
      "velocity": 120,
      "chip": "ym2612"
    },
    {
      "channel": 2,
      "note": 52,
      "start": 17.7099,
      "duration": 0.0161,
      "velocity": 100,
      "chip": "ym2612"
    },
    {
      "channel": 0,
      "note": 39,
      "start": 17.7225,
      "duration": 0.0161,
      "velocity": 115,
      "chip": "ym2612"
    },
    {
      "channel": 4,
      "note": 59,
      "start": 17.7237,
      "duration": 0.0161,
      "velocity": 120,
      "chip": "ym2612"
    },
    {
      "channel": 3,
      "note": 66,
      "start": 17.7248,
      "duration": 0.0161,
      "velocity": 120,
      "chip": "ym2612"
    },
    {
      "channel": 2,
      "note": 52,
      "start": 17.726,
      "duration": 0.0161,
      "velocity": 100,
      "chip": "ym2612"
    },
    {
      "channel": 0,
      "note": 39,
      "start": 17.7386,
      "duration": 0.0161,
      "velocity": 115,
      "chip": "ym2612"
    },
    {
      "channel": 4,
      "note": 59,
      "start": 17.7398,
      "duration": 0.0161,
      "velocity": 120,
      "chip": "ym2612"
    },
    {
      "channel": 3,
      "note": 66,
      "start": 17.7409,
      "duration": 0.0161,
      "velocity": 120,
      "chip": "ym2612"
    },
    {
      "channel": 2,
      "note": 52,
      "start": 17.742,
      "duration": 0.0161,
      "velocity": 100,
      "chip": "ym2612"
    },
    {
      "channel": 0,
      "note": 40,
      "start": 17.7547,
      "duration": 0.0161,
      "velocity": 115,
      "chip": "ym2612"
    },
    {
      "channel": 4,
      "note": 59,
      "start": 17.7559,
      "duration": 0.0162,
      "velocity": 120,
      "chip": "ym2612"
    },
    {
      "channel": 3,
      "note": 66,
      "start": 17.757,
      "duration": 0.0161,
      "velocity": 120,
      "chip": "ym2612"
    },
    {
      "channel": 2,
      "note": 52,
      "start": 17.7581,
      "duration": 0.0161,
      "velocity": 100,
      "chip": "ym2612"
    },
    {
      "channel": 0,
      "note": 40,
      "start": 17.7708,
      "duration": 0.0162,
      "velocity": 115,
      "chip": "ym2612"
    },
    {
      "channel": 4,
      "note": 59,
      "start": 17.772,
      "duration": 0.0161,
      "velocity": 120,
      "chip": "ym2612"
    },
    {
      "channel": 3,
      "note": 66,
      "start": 17.7731,
      "duration": 0.0162,
      "velocity": 120,
      "chip": "ym2612"
    },
    {
      "channel": 2,
      "note": 52,
      "start": 17.7742,
      "duration": 0.0161,
      "velocity": 100,
      "chip": "ym2612"
    },
    {
      "channel": 0,
      "note": 40,
      "start": 17.787,
      "duration": 0.0161,
      "velocity": 115,
      "chip": "ym2612"
    },
    {
      "channel": 4,
      "note": 59,
      "start": 17.7881,
      "duration": 0.0161,
      "velocity": 120,
      "chip": "ym2612"
    },
    {
      "channel": 3,
      "note": 66,
      "start": 17.7893,
      "duration": 0.0161,
      "velocity": 120,
      "chip": "ym2612"
    },
    {
      "channel": 2,
      "note": 52,
      "start": 17.7903,
      "duration": 0.0161,
      "velocity": 100,
      "chip": "ym2612"
    },
    {
      "channel": 0,
      "note": 41,
      "start": 17.8031,
      "duration": 0.0179,
      "velocity": 115,
      "chip": "ym2612"
    },
    {
      "channel": 4,
      "note": 59,
      "start": 17.8042,
      "duration": 0.0181,
      "velocity": 120,
      "chip": "ym2612"
    },
    {
      "channel": 3,
      "note": 66,
      "start": 17.8054,
      "duration": 0.0184,
      "velocity": 120,
      "chip": "ym2612"
    },
    {
      "channel": 2,
      "note": 52,
      "start": 17.8064,
      "duration": 0.0188,
      "velocity": 100,
      "chip": "ym2612"
    },
    {
      "channel": 0,
      "note": 36,
      "start": 17.8209,
      "duration": 0.0144,
      "velocity": 115,
      "chip": "ym2612"
    },
    {
      "channel": 4,
      "note": 59,
      "start": 17.8224,
      "duration": 0.0141,
      "velocity": 120,
      "chip": "ym2612"
    },
    {
      "channel": 3,
      "note": 66,
      "start": 17.8237,
      "duration": 0.014,
      "velocity": 120,
      "chip": "ym2612"
    },
    {
      "channel": 2,
      "note": 52,
      "start": 17.8252,
      "duration": 0.0137,
      "velocity": 100,
      "chip": "ym2612"
    },
    {
      "channel": 0,
      "note": 36,
      "start": 17.8353,
      "duration": 0.016,
      "velocity": 115,
      "chip": "ym2612"
    },
    {
      "channel": 4,
      "note": 59,
      "start": 17.8365,
      "duration": 0.016,
      "velocity": 120,
      "chip": "ym2612"
    },
    {
      "channel": 3,
      "note": 66,
      "start": 17.8377,
      "duration": 0.0159,
      "velocity": 120,
      "chip": "ym2612"
    },
    {
      "channel": 2,
      "note": 52,
      "start": 17.8389,
      "duration": 0.0158,
      "velocity": 100,
      "chip": "ym2612"
    },
    {
      "channel": 0,
      "note": 37,
      "start": 17.8513,
      "duration": 0.0161,
      "velocity": 115,
      "chip": "ym2612"
    },
    {
      "channel": 4,
      "note": 59,
      "start": 17.8525,
      "duration": 0.0161,
      "velocity": 120,
      "chip": "ym2612"
    },
    {
      "channel": 3,
      "note": 66,
      "start": 17.8536,
      "duration": 0.0161,
      "velocity": 120,
      "chip": "ym2612"
    },
    {
      "channel": 2,
      "note": 52,
      "start": 17.8548,
      "duration": 0.0161,
      "velocity": 100,
      "chip": "ym2612"
    },
    {
      "channel": 0,
      "note": 37,
      "start": 17.8674,
      "duration": 0.0161,
      "velocity": 115,
      "chip": "ym2612"
    },
    {
      "channel": 4,
      "note": 59,
      "start": 17.8686,
      "duration": 0.0161,
      "velocity": 120,
      "chip": "ym2612"
    },
    {
      "channel": 3,
      "note": 66,
      "start": 17.8697,
      "duration": 0.0161,
      "velocity": 120,
      "chip": "ym2612"
    },
    {
      "channel": 2,
      "note": 52,
      "start": 17.8709,
      "duration": 0.0161,
      "velocity": 100,
      "chip": "ym2612"
    },
    {
      "channel": 0,
      "note": 38,
      "start": 17.8835,
      "duration": 0.0161,
      "velocity": 115,
      "chip": "ym2612"
    },
    {
      "channel": 4,
      "note": 59,
      "start": 17.8847,
      "duration": 0.0161,
      "velocity": 120,
      "chip": "ym2612"
    },
    {
      "channel": 3,
      "note": 66,
      "start": 17.8858,
      "duration": 0.0161,
      "velocity": 120,
      "chip": "ym2612"
    },
    {
      "channel": 2,
      "note": 52,
      "start": 17.887,
      "duration": 0.0161,
      "velocity": 100,
      "chip": "ym2612"
    },
    {
      "channel": 0,
      "note": 38,
      "start": 17.8996,
      "duration": 0.0162,
      "velocity": 115,
      "chip": "ym2612"
    },
    {
      "channel": 4,
      "note": 59,
      "start": 17.9008,
      "duration": 0.0161,
      "velocity": 120,
      "chip": "ym2612"
    },
    {
      "channel": 3,
      "note": 66,
      "start": 17.9019,
      "duration": 0.0162,
      "velocity": 120,
      "chip": "ym2612"
    },
    {
      "channel": 2,
      "note": 52,
      "start": 17.9031,
      "duration": 0.0161,
      "velocity": 100,
      "chip": "ym2612"
    },
    {
      "channel": 0,
      "note": 39,
      "start": 17.9158,
      "duration": 0.0161,
      "velocity": 115,
      "chip": "ym2612"
    },
    {
      "channel": 4,
      "note": 59,
      "start": 17.9169,
      "duration": 0.0161,
      "velocity": 120,
      "chip": "ym2612"
    },
    {
      "channel": 3,
      "note": 66,
      "start": 17.9181,
      "duration": 0.0161,
      "velocity": 120,
      "chip": "ym2612"
    },
    {
      "channel": 2,
      "note": 52,
      "start": 17.9191,
      "duration": 0.0162,
      "velocity": 100,
      "chip": "ym2612"
    },
    {
      "channel": 0,
      "note": 39,
      "start": 17.9319,
      "duration": 0.0161,
      "velocity": 115,
      "chip": "ym2612"
    },
    {
      "channel": 4,
      "note": 59,
      "start": 17.933,
      "duration": 0.0161,
      "velocity": 120,
      "chip": "ym2612"
    },
    {
      "channel": 3,
      "note": 66,
      "start": 17.9341,
      "duration": 0.0161,
      "velocity": 120,
      "chip": "ym2612"
    },
    {
      "channel": 2,
      "note": 52,
      "start": 17.9353,
      "duration": 0.016,
      "velocity": 100,
      "chip": "ym2612"
    },
    {
      "channel": 0,
      "note": 40,
      "start": 17.948,
      "duration": 0.0174,
      "velocity": 115,
      "chip": "ym2612"
    },
    {
      "channel": 4,
      "note": 59,
      "start": 17.9491,
      "duration": 0.0174,
      "velocity": 120,
      "chip": "ym2612"
    },
    {
      "channel": 3,
      "note": 66,
      "start": 17.9502,
      "duration": 0.0174,
      "velocity": 120,
      "chip": "ym2612"
    },
    {
      "channel": 2,
      "note": 52,
      "start": 17.9513,
      "duration": 0.0174,
      "velocity": 100,
      "chip": "ym2612"
    },
    {
      "channel": 0,
      "note": 40,
      "start": 17.9653,
      "duration": 0.0167,
      "velocity": 115,
      "chip": "ym2612"
    },
    {
      "channel": 4,
      "note": 59,
      "start": 17.9665,
      "duration": 0.0167,
      "velocity": 120,
      "chip": "ym2612"
    },
    {
      "channel": 3,
      "note": 66,
      "start": 17.9676,
      "duration": 0.0167,
      "velocity": 120,
      "chip": "ym2612"
    },
    {
      "channel": 2,
      "note": 52,
      "start": 17.9688,
      "duration": 0.0167,
      "velocity": 100,
      "chip": "ym2612"
    },
    {
      "channel": 0,
      "note": 40,
      "start": 17.9821,
      "duration": 0.0163,
      "velocity": 115,
      "chip": "ym2612"
    },
    {
      "channel": 4,
      "note": 59,
      "start": 17.9832,
      "duration": 0.0163,
      "velocity": 120,
      "chip": "ym2612"
    },
    {
      "channel": 3,
      "note": 66,
      "start": 17.9844,
      "duration": 0.0163,
      "velocity": 120,
      "chip": "ym2612"
    },
    {
      "channel": 2,
      "note": 52,
      "start": 17.9854,
      "duration": 0.0163,
      "velocity": 100,
      "chip": "ym2612"
    },
    {
      "channel": 0,
      "note": 41,
      "start": 17.9983,
      "duration": 0.0161,
      "velocity": 115,
      "chip": "ym2612"
    },
    {
      "channel": 4,
      "note": 59,
      "start": 17.9995,
      "duration": 0.0163,
      "velocity": 120,
      "chip": "ym2612"
    },
    {
      "channel": 3,
      "note": 66,
      "start": 18.0006,
      "duration": 0.0166,
      "velocity": 120,
      "chip": "ym2612"
    },
    {
      "channel": 2,
      "note": 52,
      "start": 18.0018,
      "duration": 0.0169,
      "velocity": 100,
      "chip": "ym2612"
    },
    {
      "channel": 0,
      "note": 36,
      "start": 18.0144,
      "duration": 0.0168,
      "velocity": 115,
      "chip": "ym2612"
    },
    {
      "channel": 4,
      "note": 59,
      "start": 18.0159,
      "duration": 0.0166,
      "velocity": 120,
      "chip": "ym2612"
    },
    {
      "channel": 3,
      "note": 66,
      "start": 18.0173,
      "duration": 0.0163,
      "velocity": 120,
      "chip": "ym2612"
    },
    {
      "channel": 2,
      "note": 52,
      "start": 18.0188,
      "duration": 0.0161,
      "velocity": 100,
      "chip": "ym2612"
    },
    {
      "channel": 0,
      "note": 36,
      "start": 18.0312,
      "duration": 0.0161,
      "velocity": 115,
      "chip": "ym2612"
    },
    {
      "channel": 4,
      "note": 59,
      "start": 18.0324,
      "duration": 0.016,
      "velocity": 120,
      "chip": "ym2612"
    },
    {
      "channel": 3,
      "note": 66,
      "start": 18.0337,
      "duration": 0.016,
      "velocity": 120,
      "chip": "ym2612"
    },
    {
      "channel": 2,
      "note": 52,
      "start": 18.0349,
      "duration": 0.0159,
      "velocity": 100,
      "chip": "ym2612"
    },
    {
      "channel": 0,
      "note": 37,
      "start": 18.0473,
      "duration": 0.0156,
      "velocity": 115,
      "chip": "ym2612"
    },
    {
      "channel": 4,
      "note": 59,
      "start": 18.0485,
      "duration": 0.0157,
      "velocity": 120,
      "chip": "ym2612"
    },
    {
      "channel": 3,
      "note": 66,
      "start": 18.0496,
      "duration": 0.0157,
      "velocity": 120,
      "chip": "ym2612"
    },
    {
      "channel": 2,
      "note": 52,
      "start": 18.0507,
      "duration": 0.0157,
      "velocity": 100,
      "chip": "ym2612"
    },
    {
      "channel": 0,
      "note": 37,
      "start": 18.063,
      "duration": 0.0138,
      "velocity": 115,
      "chip": "ym2612"
    },
    {
      "channel": 4,
      "note": 59,
      "start": 18.0642,
      "duration": 0.0141,
      "velocity": 120,
      "chip": "ym2612"
    },
    {
      "channel": 3,
      "note": 66,
      "start": 18.0653,
      "duration": 0.0141,
      "velocity": 120,
      "chip": "ym2612"
    },
    {
      "channel": 2,
      "note": 52,
      "start": 18.0664,
      "duration": 0.0141,
      "velocity": 100,
      "chip": "ym2612"
    },
    {
      "channel": 0,
      "note": 38,
      "start": 18.0768,
      "duration": 0.0161,
      "velocity": 115,
      "chip": "ym2612"
    },
    {
      "channel": 4,
      "note": 59,
      "start": 18.0783,
      "duration": 0.0185,
      "velocity": 120,
      "chip": "ym2612"
    },
    {
      "channel": 3,
      "note": 66,
      "start": 18.0794,
      "duration": 0.0185,
      "velocity": 120,
      "chip": "ym2612"
    },
    {
      "channel": 2,
      "note": 52,
      "start": 18.0805,
      "duration": 0.0186,
      "velocity": 100,
      "chip": "ym2612"
    },
    {
      "channel": 0,
      "note": 38,
      "start": 18.0929,
      "duration": 0.0161,
      "velocity": 115,
      "chip": "ym2612"
    },
    {
      "channel": 4,
      "note": 59,
      "start": 18.0968,
      "duration": 0.0134,
      "velocity": 120,
      "chip": "ym2612"
    },
    {
      "channel": 3,
      "note": 66,
      "start": 18.0979,
      "duration": 0.0161,
      "velocity": 120,
      "chip": "ym2612"
    },
    {
      "channel": 2,
      "note": 52,
      "start": 18.099,
      "duration": 0.0161,
      "velocity": 100,
      "chip": "ym2612"
    },
    {
      "channel": 0,
      "note": 39,
      "start": 18.109,
      "duration": 0.0161,
      "velocity": 115,
      "chip": "ym2612"
    },
    {
      "channel": 4,
      "note": 59,
      "start": 18.1101,
      "duration": 0.0161,
      "velocity": 120,
      "chip": "ym2612"
    },
    {
      "channel": 3,
      "note": 66,
      "start": 18.114,
      "duration": 0.0157,
      "velocity": 120,
      "chip": "ym2612"
    },
    {
      "channel": 2,
      "note": 52,
      "start": 18.1151,
      "duration": 0.0157,
      "velocity": 100,
      "chip": "ym2612"
    },
    {
      "channel": 0,
      "note": 39,
      "start": 18.1251,
      "duration": 0.0161,
      "velocity": 115,
      "chip": "ym2612"
    },
    {
      "channel": 4,
      "note": 59,
      "start": 18.1262,
      "duration": 0.0161,
      "velocity": 120,
      "chip": "ym2612"
    },
    {
      "channel": 3,
      "note": 66,
      "start": 18.1297,
      "duration": 0.0137,
      "velocity": 120,
      "chip": "ym2612"
    },
    {
      "channel": 2,
      "note": 52,
      "start": 18.1309,
      "duration": 0.0141,
      "velocity": 100,
      "chip": "ym2612"
    },
    {
      "channel": 0,
      "note": 40,
      "start": 18.1412,
      "duration": 0.0161,
      "velocity": 115,
      "chip": "ym2612"
    },
    {
      "channel": 4,
      "note": 59,
      "start": 18.1423,
      "duration": 0.0161,
      "velocity": 120,
      "chip": "ym2612"
    },
    {
      "channel": 3,
      "note": 66,
      "start": 18.1434,
      "duration": 0.0161,
      "velocity": 120,
      "chip": "ym2612"
    },
    {
      "channel": 2,
      "note": 52,
      "start": 18.1449,
      "duration": 0.0185,
      "velocity": 100,
      "chip": "ym2612"
    },
    {
      "channel": 0,
      "note": 40,
      "start": 18.1573,
      "duration": 0.0161,
      "velocity": 115,
      "chip": "ym2612"
    },
    {
      "channel": 4,
      "note": 59,
      "start": 18.1584,
      "duration": 0.0161,
      "velocity": 120,
      "chip": "ym2612"
    },
    {
      "channel": 3,
      "note": 66,
      "start": 18.1595,
      "duration": 0.0161,
      "velocity": 120,
      "chip": "ym2612"
    },
    {
      "channel": 2,
      "note": 52,
      "start": 18.1634,
      "duration": 0.0134,
      "velocity": 100,
      "chip": "ym2612"
    },
    {
      "channel": 0,
      "note": 40,
      "start": 18.1733,
      "duration": 0.0161,
      "velocity": 115,
      "chip": "ym2612"
    },
    {
      "channel": 4,
      "note": 59,
      "start": 18.1745,
      "duration": 0.0161,
      "velocity": 120,
      "chip": "ym2612"
    },
    {
      "channel": 3,
      "note": 66,
      "start": 18.1756,
      "duration": 0.0161,
      "velocity": 120,
      "chip": "ym2612"
    },
    {
      "channel": 2,
      "note": 52,
      "start": 18.1768,
      "duration": 0.0161,
      "velocity": 100,
      "chip": "ym2612"
    },
    {
      "channel": 0,
      "note": 41,
      "start": 18.1894,
      "duration": 0.0179,
      "velocity": 124,
      "chip": "ym2612"
    },
    {
      "channel": 4,
      "note": 59,
      "start": 18.1906,
      "duration": 0.0181,
      "velocity": 120,
      "chip": "ym2612"
    },
    {
      "channel": 3,
      "note": 66,
      "start": 18.1917,
      "duration": 0.0184,
      "velocity": 120,
      "chip": "ym2612"
    },
    {
      "channel": 2,
      "note": 52,
      "start": 18.1929,
      "duration": 0.019,
      "velocity": 100,
      "chip": "ym2612"
    },
    {
      "channel": 0,
      "note": 84,
      "start": 18.2074,
      "duration": 0.0144,
      "velocity": 124,
      "chip": "ym2612"
    },
    {
      "channel": 4,
      "note": 59,
      "start": 18.2088,
      "duration": 0.0142,
      "velocity": 120,
      "chip": "ym2612"
    },
    {
      "channel": 3,
      "note": 66,
      "start": 18.2102,
      "duration": 0.0139,
      "velocity": 120,
      "chip": "ym2612"
    },
    {
      "channel": 2,
      "note": 52,
      "start": 18.212,
      "duration": 0.0134,
      "velocity": 100,
      "chip": "ym2612"
    },
    {
      "channel": 0,
      "note": 82,
      "start": 18.2217,
      "duration": 0.016,
      "velocity": 124,
      "chip": "ym2612"
    },
    {
      "channel": 4,
      "note": 59,
      "start": 18.223,
      "duration": 0.016,
      "velocity": 120,
      "chip": "ym2612"
    },
    {
      "channel": 3,
      "note": 66,
      "start": 18.2241,
      "duration": 0.016,
      "velocity": 120,
      "chip": "ym2612"
    },
    {
      "channel": 2,
      "note": 52,
      "start": 18.2253,
      "duration": 0.0159,
      "velocity": 100,
      "chip": "ym2612"
    },
    {
      "channel": 0,
      "note": 80,
      "start": 18.2378,
      "duration": 0.0161,
      "velocity": 124,
      "chip": "ym2612"
    },
    {
      "channel": 4,
      "note": 59,
      "start": 18.2389,
      "duration": 0.0161,
      "velocity": 120,
      "chip": "ym2612"
    },
    {
      "channel": 3,
      "note": 66,
      "start": 18.2401,
      "duration": 0.0161,
      "velocity": 120,
      "chip": "ym2612"
    },
    {
      "channel": 2,
      "note": 52,
      "start": 18.2412,
      "duration": 0.0162,
      "velocity": 100,
      "chip": "ym2612"
    },
    {
      "channel": 0,
      "note": 77,
      "start": 18.2539,
      "duration": 0.0161,
      "velocity": 124,
      "chip": "ym2612"
    },
    {
      "channel": 4,
      "note": 59,
      "start": 18.255,
      "duration": 0.0161,
      "velocity": 120,
      "chip": "ym2612"
    },
    {
      "channel": 3,
      "note": 66,
      "start": 18.2562,
      "duration": 0.0161,
      "velocity": 120,
      "chip": "ym2612"
    },
    {
      "channel": 2,
      "note": 52,
      "start": 18.2573,
      "duration": 0.0161,
      "velocity": 100,
      "chip": "ym2612"
    },
    {
      "channel": 0,
      "note": 75,
      "start": 18.27,
      "duration": 0.0161,
      "velocity": 124,
      "chip": "ym2612"
    },
    {
      "channel": 4,
      "note": 59,
      "start": 18.2711,
      "duration": 0.0161,
      "velocity": 120,
      "chip": "ym2612"
    },
    {
      "channel": 3,
      "note": 66,
      "start": 18.2723,
      "duration": 0.0161,
      "velocity": 120,
      "chip": "ym2612"
    },
    {
      "channel": 2,
      "note": 52,
      "start": 18.2734,
      "duration": 0.0161,
      "velocity": 100,
      "chip": "ym2612"
    },
    {
      "channel": 0,
      "note": 72,
      "start": 18.2861,
      "duration": 0.0161,
      "velocity": 124,
      "chip": "ym2612"
    },
    {
      "channel": 4,
      "note": 59,
      "start": 18.2872,
      "duration": 0.0161,
      "velocity": 120,
      "chip": "ym2612"
    },
    {
      "channel": 3,
      "note": 66,
      "start": 18.2884,
      "duration": 0.0161,
      "velocity": 120,
      "chip": "ym2612"
    },
    {
      "channel": 2,
      "note": 52,
      "start": 18.2895,
      "duration": 0.0161,
      "velocity": 100,
      "chip": "ym2612"
    },
    {
      "channel": 0,
      "note": 70,
      "start": 18.3022,
      "duration": 0.0161,
      "velocity": 124,
      "chip": "ym2612"
    },
    {
      "channel": 4,
      "note": 59,
      "start": 18.3033,
      "duration": 0.0161,
      "velocity": 120,
      "chip": "ym2612"
    },
    {
      "channel": 3,
      "note": 66,
      "start": 18.3044,
      "duration": 0.0161,
      "velocity": 120,
      "chip": "ym2612"
    },
    {
      "channel": 2,
      "note": 52,
      "start": 18.3056,
      "duration": 0.0161,
      "velocity": 100,
      "chip": "ym2612"
    },
    {
      "channel": 0,
      "note": 68,
      "start": 18.3183,
      "duration": 0.0161,
      "velocity": 124,
      "chip": "ym2612"
    },
    {
      "channel": 4,
      "note": 59,
      "start": 18.3194,
      "duration": 0.0161,
      "velocity": 120,
      "chip": "ym2612"
    },
    {
      "channel": 3,
      "note": 66,
      "start": 18.3205,
      "duration": 0.0161,
      "velocity": 120,
      "chip": "ym2612"
    },
    {
      "channel": 2,
      "note": 52,
      "start": 18.3217,
      "duration": 0.0161,
      "velocity": 100,
      "chip": "ym2612"
    },
    {
      "channel": 0,
      "note": 65,
      "start": 18.3344,
      "duration": 0.0161,
      "velocity": 124,
      "chip": "ym2612"
    },
    {
      "channel": 4,
      "note": 59,
      "start": 18.3355,
      "duration": 0.0162,
      "velocity": 120,
      "chip": "ym2612"
    },
    {
      "channel": 3,
      "note": 66,
      "start": 18.3366,
      "duration": 0.0161,
      "velocity": 120,
      "chip": "ym2612"
    },
    {
      "channel": 2,
      "note": 52,
      "start": 18.3378,
      "duration": 0.0161,
      "velocity": 100,
      "chip": "ym2612"
    },
    {
      "channel": 0,
      "note": 63,
      "start": 18.3505,
      "duration": 0.0153,
      "velocity": 1,
      "chip": "ym2612"
    },
    {
      "channel": 4,
      "note": 59,
      "start": 18.3517,
      "duration": 0.0153,
      "velocity": 120,
      "chip": "ym2612"
    },
    {
      "channel": 3,
      "note": 66,
      "start": 18.3528,
      "duration": 0.0153,
      "velocity": 120,
      "chip": "ym2612"
    },
    {
      "channel": 2,
      "note": 52,
      "start": 18.3539,
      "duration": 0.0153,
      "velocity": 100,
      "chip": "ym2612"
    },
    {
      "channel": 4,
      "note": 59,
      "start": 18.3669,
      "duration": 0.0153,
      "velocity": 120,
      "chip": "ym2612"
    },
    {
      "channel": 3,
      "note": 66,
      "start": 18.3681,
      "duration": 0.0153,
      "velocity": 120,
      "chip": "ym2612"
    },
    {
      "channel": 2,
      "note": 52,
      "start": 18.3691,
      "duration": 0.0153,
      "velocity": 100,
      "chip": "ym2612"
    },
    {
      "channel": 4,
      "note": 59,
      "start": 18.3822,
      "duration": 0.0163,
      "velocity": 120,
      "chip": "ym2612"
    },
    {
      "channel": 3,
      "note": 66,
      "start": 18.3833,
      "duration": 0.0165,
      "velocity": 120,
      "chip": "ym2612"
    },
    {
      "channel": 2,
      "note": 52,
      "start": 18.3844,
      "duration": 0.0169,
      "velocity": 100,
      "chip": "ym2612"
    },
    {
      "channel": 4,
      "note": 57,
      "start": 18.3985,
      "duration": 0.0159,
      "velocity": 120,
      "chip": "ym2612"
    },
    {
      "channel": 3,
      "note": 64,
      "start": 18.3999,
      "duration": 0.0157,
      "velocity": 120,
      "chip": "ym2612"
    },
    {
      "channel": 2,
      "note": 52,
      "start": 18.4014,
      "duration": 0.0154,
      "velocity": 100,
      "chip": "ym2612"
    },
    {
      "channel": 4,
      "note": 57,
      "start": 18.4144,
      "duration": 0.0171,
      "velocity": 120,
      "chip": "ym2612"
    },
    {
      "channel": 3,
      "note": 64,
      "start": 18.4156,
      "duration": 0.0171,
      "velocity": 120,
      "chip": "ym2612"
    },
    {
      "channel": 2,
      "note": 52,
      "start": 18.4168,
      "duration": 0.017,
      "velocity": 100,
      "chip": "ym2612"
    },
    {
      "channel": 4,
      "note": 57,
      "start": 18.4315,
      "duration": 0.0167,
      "velocity": 120,
      "chip": "ym2612"
    },
    {
      "channel": 3,
      "note": 64,
      "start": 18.4327,
      "duration": 0.0167,
      "velocity": 120,
      "chip": "ym2612"
    },
    {
      "channel": 2,
      "note": 52,
      "start": 18.4338,
      "duration": 0.0167,
      "velocity": 100,
      "chip": "ym2612"
    },
    {
      "channel": 4,
      "note": 57,
      "start": 18.4482,
      "duration": 0.0163,
      "velocity": 120,
      "chip": "ym2612"
    },
    {
      "channel": 3,
      "note": 64,
      "start": 18.4494,
      "duration": 0.0163,
      "velocity": 120,
      "chip": "ym2612"
    },
    {
      "channel": 2,
      "note": 52,
      "start": 18.4505,
      "duration": 0.0163,
      "velocity": 100,
      "chip": "ym2612"
    },
    {
      "channel": 4,
      "note": 57,
      "start": 18.4645,
      "duration": 0.0146,
      "velocity": 120,
      "chip": "ym2612"
    },
    {
      "channel": 3,
      "note": 64,
      "start": 18.4656,
      "duration": 0.0146,
      "velocity": 120,
      "chip": "ym2612"
    },
    {
      "channel": 2,
      "note": 52,
      "start": 18.4668,
      "duration": 0.0146,
      "velocity": 100,
      "chip": "ym2612"
    },
    {
      "channel": 4,
      "note": 57,
      "start": 18.4791,
      "duration": 0.0185,
      "velocity": 120,
      "chip": "ym2612"
    },
    {
      "channel": 3,
      "note": 64,
      "start": 18.4803,
      "duration": 0.0185,
      "velocity": 120,
      "chip": "ym2612"
    },
    {
      "channel": 2,
      "note": 52,
      "start": 18.4814,
      "duration": 0.0186,
      "velocity": 100,
      "chip": "ym2612"
    },
    {
      "channel": 4,
      "note": 57,
      "start": 18.4976,
      "duration": 0.0161,
      "velocity": 120,
      "chip": "ym2612"
    },
    {
      "channel": 3,
      "note": 64,
      "start": 18.4988,
      "duration": 0.0161,
      "velocity": 120,
      "chip": "ym2612"
    },
    {
      "channel": 2,
      "note": 52,
      "start": 18.4999,
      "duration": 0.0161,
      "velocity": 100,
      "chip": "ym2612"
    },
    {
      "channel": 4,
      "note": 57,
      "start": 18.5137,
      "duration": 0.0134,
      "velocity": 120,
      "chip": "ym2612"
    },
    {
      "channel": 3,
      "note": 64,
      "start": 18.5149,
      "duration": 0.0157,
      "velocity": 120,
      "chip": "ym2612"
    },
    {
      "channel": 2,
      "note": 52,
      "start": 18.516,
      "duration": 0.0157,
      "velocity": 100,
      "chip": "ym2612"
    },
    {
      "channel": 4,
      "note": 57,
      "start": 18.5271,
      "duration": 0.0161,
      "velocity": 120,
      "chip": "ym2612"
    },
    {
      "channel": 3,
      "note": 64,
      "start": 18.5306,
      "duration": 0.0141,
      "velocity": 120,
      "chip": "ym2612"
    },
    {
      "channel": 2,
      "note": 52,
      "start": 18.5317,
      "duration": 0.0141,
      "velocity": 100,
      "chip": "ym2612"
    },
    {
      "channel": 4,
      "note": 57,
      "start": 18.5432,
      "duration": 0.0161,
      "velocity": 120,
      "chip": "ym2612"
    },
    {
      "channel": 3,
      "note": 64,
      "start": 18.5446,
      "duration": 0.0158,
      "velocity": 120,
      "chip": "ym2612"
    },
    {
      "channel": 2,
      "note": 52,
      "start": 18.5458,
      "duration": 0.0185,
      "velocity": 100,
      "chip": "ym2612"
    },
    {
      "channel": 4,
      "note": 57,
      "start": 18.5593,
      "duration": 0.0161,
      "velocity": 120,
      "chip": "ym2612"
    },
    {
      "channel": 3,
      "note": 64,
      "start": 18.5604,
      "duration": 0.0161,
      "velocity": 120,
      "chip": "ym2612"
    },
    {
      "channel": 2,
      "note": 52,
      "start": 18.5643,
      "duration": 0.0161,
      "velocity": 100,
      "chip": "ym2612"
    },
    {
      "channel": 4,
      "note": 57,
      "start": 18.5754,
      "duration": 0.0235,
      "velocity": 120,
      "chip": "ym2612"
    },
    {
      "channel": 3,
      "note": 64,
      "start": 18.5765,
      "duration": 0.0252,
      "velocity": 120,
      "chip": "ym2612"
    },
    {
      "channel": 2,
      "note": 52,
      "start": 18.5804,
      "duration": 0.0228,
      "velocity": 100,
      "chip": "ym2612"
    },
    {
      "channel": 0,
      "note": 36,
      "start": 18.5938,
      "duration": 0.0144,
      "velocity": 115,
      "chip": "ym2612"
    },
    {
      "channel": 4,
      "note": 52,
      "start": 18.599,
      "duration": 0.0104,
      "velocity": 120,
      "chip": "ym2612"
    },
    {
      "channel": 3,
      "note": 59,
      "start": 18.6018,
      "duration": 0.0088,
      "velocity": 120,
      "chip": "ym2612"
    },
    {
      "channel": 2,
      "note": 52,
      "start": 18.6033,
      "duration": 0.0088,
      "velocity": 100,
      "chip": "ym2612"
    },
    {
      "channel": 0,
      "note": 36,
      "start": 18.6081,
      "duration": 0.016,
      "velocity": 115,
      "chip": "ym2612"
    },
    {
      "channel": 4,
      "note": 52,
      "start": 18.6093,
      "duration": 0.016,
      "velocity": 120,
      "chip": "ym2612"
    },
    {
      "channel": 3,
      "note": 59,
      "start": 18.6106,
      "duration": 0.0159,
      "velocity": 120,
      "chip": "ym2612"
    },
    {
      "channel": 2,
      "note": 52,
      "start": 18.6121,
      "duration": 0.0183,
      "velocity": 100,
      "chip": "ym2612"
    },
    {
      "channel": 0,
      "note": 37,
      "start": 18.6242,
      "duration": 0.0161,
      "velocity": 115,
      "chip": "ym2612"
    },
    {
      "channel": 4,
      "note": 52,
      "start": 18.6254,
      "duration": 0.0161,
      "velocity": 120,
      "chip": "ym2612"
    },
    {
      "channel": 3,
      "note": 59,
      "start": 18.6265,
      "duration": 0.0161,
      "velocity": 120,
      "chip": "ym2612"
    },
    {
      "channel": 2,
      "note": 52,
      "start": 18.6303,
      "duration": 0.0134,
      "velocity": 100,
      "chip": "ym2612"
    },
    {
      "channel": 0,
      "note": 37,
      "start": 18.6403,
      "duration": 0.0161,
      "velocity": 115,
      "chip": "ym2612"
    },
    {
      "channel": 4,
      "note": 52,
      "start": 18.6415,
      "duration": 0.0161,
      "velocity": 120,
      "chip": "ym2612"
    },
    {
      "channel": 3,
      "note": 59,
      "start": 18.6426,
      "duration": 0.0161,
      "velocity": 120,
      "chip": "ym2612"
    },
    {
      "channel": 2,
      "note": 52,
      "start": 18.6437,
      "duration": 0.0161,
      "velocity": 100,
      "chip": "ym2612"
    },
    {
      "channel": 0,
      "note": 38,
      "start": 18.6564,
      "duration": 0.0161,
      "velocity": 115,
      "chip": "ym2612"
    },
    {
      "channel": 4,
      "note": 52,
      "start": 18.6576,
      "duration": 0.0161,
      "velocity": 120,
      "chip": "ym2612"
    },
    {
      "channel": 3,
      "note": 59,
      "start": 18.6587,
      "duration": 0.0161,
      "velocity": 120,
      "chip": "ym2612"
    },
    {
      "channel": 2,
      "note": 52,
      "start": 18.6598,
      "duration": 0.0161,
      "velocity": 100,
      "chip": "ym2612"
    },
    {
      "channel": 0,
      "note": 38,
      "start": 18.6725,
      "duration": 0.0161,
      "velocity": 115,
      "chip": "ym2612"
    },
    {
      "channel": 4,
      "note": 52,
      "start": 18.6737,
      "duration": 0.0161,
      "velocity": 120,
      "chip": "ym2612"
    },
    {
      "channel": 3,
      "note": 59,
      "start": 18.6748,
      "duration": 0.0161,
      "velocity": 120,
      "chip": "ym2612"
    },
    {
      "channel": 2,
      "note": 52,
      "start": 18.6759,
      "duration": 0.0161,
      "velocity": 100,
      "chip": "ym2612"
    },
    {
      "channel": 0,
      "note": 39,
      "start": 18.6886,
      "duration": 0.0161,
      "velocity": 115,
      "chip": "ym2612"
    },
    {
      "channel": 4,
      "note": 52,
      "start": 18.6898,
      "duration": 0.0161,
      "velocity": 120,
      "chip": "ym2612"
    },
    {
      "channel": 3,
      "note": 59,
      "start": 18.6909,
      "duration": 0.0161,
      "velocity": 120,
      "chip": "ym2612"
    },
    {
      "channel": 2,
      "note": 52,
      "start": 18.692,
      "duration": 0.0161,
      "velocity": 100,
      "chip": "ym2612"
    },
    {
      "channel": 0,
      "note": 39,
      "start": 18.7047,
      "duration": 0.0161,
      "velocity": 115,
      "chip": "ym2612"
    },
    {
      "channel": 4,
      "note": 52,
      "start": 18.7059,
      "duration": 0.0161,
      "velocity": 120,
      "chip": "ym2612"
    },
    {
      "channel": 3,
      "note": 59,
      "start": 18.707,
      "duration": 0.0161,
      "velocity": 120,
      "chip": "ym2612"
    },
    {
      "channel": 2,
      "note": 52,
      "start": 18.7081,
      "duration": 0.0161,
      "velocity": 100,
      "chip": "ym2612"
    },
    {
      "channel": 0,
      "note": 40,
      "start": 18.7208,
      "duration": 0.0161,
      "velocity": 115,
      "chip": "ym2612"
    },
    {
      "channel": 4,
      "note": 52,
      "start": 18.722,
      "duration": 0.0161,
      "velocity": 120,
      "chip": "ym2612"
    },
    {
      "channel": 3,
      "note": 59,
      "start": 18.7231,
      "duration": 0.0161,
      "velocity": 120,
      "chip": "ym2612"
    },
    {
      "channel": 2,
      "note": 52,
      "start": 18.7242,
      "duration": 0.0161,
      "velocity": 100,
      "chip": "ym2612"
    },
    {
      "channel": 0,
      "note": 40,
      "start": 18.7369,
      "duration": 0.0161,
      "velocity": 115,
      "chip": "ym2612"
    },
    {
      "channel": 4,
      "note": 52,
      "start": 18.738,
      "duration": 0.0161,
      "velocity": 120,
      "chip": "ym2612"
    },
    {
      "channel": 3,
      "note": 59,
      "start": 18.7392,
      "duration": 0.0161,
      "velocity": 120,
      "chip": "ym2612"
    },
    {
      "channel": 2,
      "note": 52,
      "start": 18.7403,
      "duration": 0.0161,
      "velocity": 100,
      "chip": "ym2612"
    },
    {
      "channel": 0,
      "note": 40,
      "start": 18.753,
      "duration": 0.0161,
      "velocity": 115,
      "chip": "ym2612"
    },
    {
      "channel": 4,
      "note": 52,
      "start": 18.7541,
      "duration": 0.0162,
      "velocity": 120,
      "chip": "ym2612"
    },
    {
      "channel": 3,
      "note": 59,
      "start": 18.7553,
      "duration": 0.0161,
      "velocity": 120,
      "chip": "ym2612"
    },
    {
      "channel": 2,
      "note": 52,
      "start": 18.7564,
      "duration": 0.0161,
      "velocity": 100,
      "chip": "ym2612"
    },
    {
      "channel": 0,
      "note": 41,
      "start": 18.7691,
      "duration": 0.0161,
      "velocity": 115,
      "chip": "ym2612"
    },
    {
      "channel": 4,
      "note": 52,
      "start": 18.7703,
      "duration": 0.0163,
      "velocity": 120,
      "chip": "ym2612"
    },
    {
      "channel": 3,
      "note": 59,
      "start": 18.7714,
      "duration": 0.0166,
      "velocity": 120,
      "chip": "ym2612"
    },
    {
      "channel": 2,
      "note": 52,
      "start": 18.7725,
      "duration": 0.0169,
      "velocity": 100,
      "chip": "ym2612"
    },
    {
      "channel": 0,
      "note": 41,
      "start": 18.7852,
      "duration": 0.0161,
      "velocity": 115,
      "chip": "ym2612"
    },
    {
      "channel": 4,
      "note": 57,
      "start": 18.7866,
      "duration": 0.0158,
      "velocity": 120,
      "chip": "ym2612"
    },
    {
      "channel": 3,
      "note": 64,
      "start": 18.788,
      "duration": 0.0157,
      "velocity": 120,
      "chip": "ym2612"
    },
    {
      "channel": 2,
      "note": 52,
      "start": 18.7894,
      "duration": 0.0155,
      "velocity": 100,
      "chip": "ym2612"
    },
    {
      "channel": 0,
      "note": 42,
      "start": 18.8013,
      "duration": 0.0162,
      "velocity": 115,
      "chip": "ym2612"
    },
    {
      "channel": 4,
      "note": 57,
      "start": 18.8025,
      "duration": 0.0161,
      "velocity": 120,
      "chip": "ym2612"
    },
    {
      "channel": 3,
      "note": 64,
      "start": 18.8037,
      "duration": 0.016,
      "velocity": 120,
      "chip": "ym2612"
    },
    {
      "channel": 2,
      "note": 52,
      "start": 18.8049,
      "duration": 0.0159,
      "velocity": 100,
      "chip": "ym2612"
    },
    {
      "channel": 0,
      "note": 42,
      "start": 18.8174,
      "duration": 0.0161,
      "velocity": 115,
      "chip": "ym2612"
    },
    {
      "channel": 4,
      "note": 57,
      "start": 18.8186,
      "duration": 0.0161,
      "velocity": 120,
      "chip": "ym2612"
    },
    {
      "channel": 3,
      "note": 64,
      "start": 18.8197,
      "duration": 0.0161,
      "velocity": 120,
      "chip": "ym2612"
    },
    {
      "channel": 2,
      "note": 52,
      "start": 18.8208,
      "duration": 0.0161,
      "velocity": 100,
      "chip": "ym2612"
    },
    {
      "channel": 0,
      "note": 43,
      "start": 18.8335,
      "duration": 0.0161,
      "velocity": 115,
      "chip": "ym2612"
    },
    {
      "channel": 4,
      "note": 57,
      "start": 18.8347,
      "duration": 0.0161,
      "velocity": 120,
      "chip": "ym2612"
    },
    {
      "channel": 3,
      "note": 64,
      "start": 18.8358,
      "duration": 0.0161,
      "velocity": 120,
      "chip": "ym2612"
    },
    {
      "channel": 2,
      "note": 52,
      "start": 18.8369,
      "duration": 0.0161,
      "velocity": 100,
      "chip": "ym2612"
    },
    {
      "channel": 0,
      "note": 43,
      "start": 18.8496,
      "duration": 0.0161,
      "velocity": 115,
      "chip": "ym2612"
    },
    {
      "channel": 4,
      "note": 57,
      "start": 18.8508,
      "duration": 0.0161,
      "velocity": 120,
      "chip": "ym2612"
    },
    {
      "channel": 3,
      "note": 64,
      "start": 18.8519,
      "duration": 0.0161,
      "velocity": 120,
      "chip": "ym2612"
    },
    {
      "channel": 2,
      "note": 52,
      "start": 18.853,
      "duration": 0.0161,
      "velocity": 100,
      "chip": "ym2612"
    },
    {
      "channel": 0,
      "note": 44,
      "start": 18.8657,
      "duration": 0.0161,
      "velocity": 115,
      "chip": "ym2612"
    },
    {
      "channel": 4,
      "note": 57,
      "start": 18.8668,
      "duration": 0.0161,
      "velocity": 120,
      "chip": "ym2612"
    },
    {
      "channel": 3,
      "note": 64,
      "start": 18.868,
      "duration": 0.0161,
      "velocity": 120,
      "chip": "ym2612"
    },
    {
      "channel": 2,
      "note": 52,
      "start": 18.8691,
      "duration": 0.0161,
      "velocity": 100,
      "chip": "ym2612"
    },
    {
      "channel": 0,
      "note": 44,
      "start": 18.8818,
      "duration": 0.0168,
      "velocity": 115,
      "chip": "ym2612"
    },
    {
      "channel": 4,
      "note": 57,
      "start": 18.8829,
      "duration": 0.0169,
      "velocity": 120,
      "chip": "ym2612"
    },
    {
      "channel": 3,
      "note": 64,
      "start": 18.8841,
      "duration": 0.0168,
      "velocity": 120,
      "chip": "ym2612"
    },
    {
      "channel": 2,
      "note": 52,
      "start": 18.8852,
      "duration": 0.0169,
      "velocity": 100,
      "chip": "ym2612"
    },
    {
      "channel": 0,
      "note": 44,
      "start": 18.8987,
      "duration": 0.0167,
      "velocity": 115,
      "chip": "ym2612"
    },
    {
      "channel": 4,
      "note": 57,
      "start": 18.8999,
      "duration": 0.0167,
      "velocity": 120,
      "chip": "ym2612"
    },
    {
      "channel": 3,
      "note": 64,
      "start": 18.901,
      "duration": 0.0167,
      "velocity": 120,
      "chip": "ym2612"
    },
    {
      "channel": 2,
      "note": 52,
      "start": 18.9021,
      "duration": 0.0167,
      "velocity": 100,
      "chip": "ym2612"
    },
    {
      "channel": 0,
      "note": 45,
      "start": 18.9154,
      "duration": 0.0163,
      "velocity": 115,
      "chip": "ym2612"
    },
    {
      "channel": 4,
      "note": 57,
      "start": 18.9165,
      "duration": 0.0163,
      "velocity": 120,
      "chip": "ym2612"
    },
    {
      "channel": 3,
      "note": 64,
      "start": 18.9177,
      "duration": 0.0163,
      "velocity": 120,
      "chip": "ym2612"
    },
    {
      "channel": 2,
      "note": 52,
      "start": 18.9188,
      "duration": 0.0163,
      "velocity": 100,
      "chip": "ym2612"
    },
    {
      "channel": 0,
      "note": 45,
      "start": 18.9317,
      "duration": 0.0147,
      "velocity": 115,
      "chip": "ym2612"
    },
    {
      "channel": 4,
      "note": 57,
      "start": 18.9328,
      "duration": 0.0147,
      "velocity": 120,
      "chip": "ym2612"
    },
    {
      "channel": 3,
      "note": 64,
      "start": 18.934,
      "duration": 0.0147,
      "velocity": 120,
      "chip": "ym2612"
    },
    {
      "channel": 2,
      "note": 52,
      "start": 18.9351,
      "duration": 0.0147,
      "velocity": 100,
      "chip": "ym2612"
    },
    {
      "channel": 0,
      "note": 46,
      "start": 18.9464,
      "duration": 0.0187,
      "velocity": 115,
      "chip": "ym2612"
    },
    {
      "channel": 4,
      "note": 57,
      "start": 18.9475,
      "duration": 0.0187,
      "velocity": 120,
      "chip": "ym2612"
    },
    {
      "channel": 3,
      "note": 64,
      "start": 18.9487,
      "duration": 0.0187,
      "velocity": 120,
      "chip": "ym2612"
    },
    {
      "channel": 2,
      "note": 52,
      "start": 18.9498,
      "duration": 0.0186,
      "velocity": 100,
      "chip": "ym2612"
    },
    {
      "channel": 0,
      "note": 46,
      "start": 18.9651,
      "duration": 0.0178,
      "velocity": 124,
      "chip": "ym2612"
    },
    {
      "channel": 4,
      "note": 57,
      "start": 18.9662,
      "duration": 0.0181,
      "velocity": 120,
      "chip": "ym2612"
    },
    {
      "channel": 3,
      "note": 64,
      "start": 18.9674,
      "duration": 0.0183,
      "velocity": 120,
      "chip": "ym2612"
    },
    {
      "channel": 2,
      "note": 52,
      "start": 18.9684,
      "duration": 0.0187,
      "velocity": 100,
      "chip": "ym2612"
    },
    {
      "channel": 0,
      "note": 84,
      "start": 18.9829,
      "duration": 0.014,
      "velocity": 124,
      "chip": "ym2612"
    },
    {
      "channel": 4,
      "note": 57,
      "start": 18.9844,
      "duration": 0.0138,
      "velocity": 120,
      "chip": "ym2612"
    },
    {
      "channel": 3,
      "note": 64,
      "start": 18.9858,
      "duration": 0.0136,
      "velocity": 120,
      "chip": "ym2612"
    },
    {
      "channel": 2,
      "note": 52,
      "start": 18.9872,
      "duration": 0.0134,
      "velocity": 100,
      "chip": "ym2612"
    },
    {
      "channel": 0,
      "note": 82,
      "start": 18.9969,
      "duration": 0.0137,
      "velocity": 124,
      "chip": "ym2612"
    },
    {
      "channel": 4,
      "note": 57,
      "start": 18.9982,
      "duration": 0.0139,
      "velocity": 120,
      "chip": "ym2612"
    },
    {
      "channel": 3,
      "note": 64,
      "start": 18.9994,
      "duration": 0.0139,
      "velocity": 120,
      "chip": "ym2612"
    },
    {
      "channel": 2,
      "note": 52,
      "start": 19.0006,
      "duration": 0.0138,
      "velocity": 100,
      "chip": "ym2612"
    },
    {
      "channel": 0,
      "note": 80,
      "start": 19.0106,
      "duration": 0.0161,
      "velocity": 124,
      "chip": "ym2612"
    },
    {
      "channel": 4,
      "note": 57,
      "start": 19.0121,
      "duration": 0.0185,
      "velocity": 120,
      "chip": "ym2612"
    },
    {
      "channel": 3,
      "note": 64,
      "start": 19.0132,
      "duration": 0.0185,
      "velocity": 120,
      "chip": "ym2612"
    },
    {
      "channel": 2,
      "note": 52,
      "start": 19.0144,
      "duration": 0.0185,
      "velocity": 100,
      "chip": "ym2612"
    },
    {
      "channel": 0,
      "note": 77,
      "start": 19.0267,
      "duration": 0.0161,
      "velocity": 124,
      "chip": "ym2612"
    },
    {
      "channel": 4,
      "note": 57,
      "start": 19.0306,
      "duration": 0.0161,
      "velocity": 120,
      "chip": "ym2612"
    },
    {
      "channel": 3,
      "note": 64,
      "start": 19.0317,
      "duration": 0.0161,
      "velocity": 120,
      "chip": "ym2612"
    },
    {
      "channel": 2,
      "note": 52,
      "start": 19.0329,
      "duration": 0.0161,
      "velocity": 100,
      "chip": "ym2612"
    },
    {
      "channel": 0,
      "note": 75,
      "start": 19.0428,
      "duration": 0.0161,
      "velocity": 124,
      "chip": "ym2612"
    },
    {
      "channel": 4,
      "note": 57,
      "start": 19.0467,
      "duration": 0.0134,
      "velocity": 120,
      "chip": "ym2612"
    },
    {
      "channel": 3,
      "note": 64,
      "start": 19.0478,
      "duration": 0.0158,
      "velocity": 120,
      "chip": "ym2612"
    },
    {
      "channel": 2,
      "note": 52,
      "start": 19.049,
      "duration": 0.0157,
      "velocity": 100,
      "chip": "ym2612"
    },
    {
      "channel": 0,
      "note": 72,
      "start": 19.0589,
      "duration": 0.0161,
      "velocity": 124,
      "chip": "ym2612"
    },
    {
      "channel": 4,
      "note": 57,
      "start": 19.06,
      "duration": 0.0161,
      "velocity": 120,
      "chip": "ym2612"
    },
    {
      "channel": 3,
      "note": 64,
      "start": 19.0636,
      "duration": 0.0137,
      "velocity": 120,
      "chip": "ym2612"
    },
    {
      "channel": 2,
      "note": 52,
      "start": 19.0647,
      "duration": 0.0141,
      "velocity": 100,
      "chip": "ym2612"
    },
    {
      "channel": 0,
      "note": 70,
      "start": 19.075,
      "duration": 0.0161,
      "velocity": 124,
      "chip": "ym2612"
    },
    {
      "channel": 4,
      "note": 57,
      "start": 19.0761,
      "duration": 0.0161,
      "velocity": 120,
      "chip": "ym2612"
    },
    {
      "channel": 3,
      "note": 64,
      "start": 19.0773,
      "duration": 0.0161,
      "velocity": 120,
      "chip": "ym2612"
    },
    {
      "channel": 2,
      "note": 52,
      "start": 19.0788,
      "duration": 0.0185,
      "velocity": 100,
      "chip": "ym2612"
    },
    {
      "channel": 0,
      "note": 68,
      "start": 19.0911,
      "duration": 0.0162,
      "velocity": 124,
      "chip": "ym2612"
    },
    {
      "channel": 4,
      "note": 57,
      "start": 19.0922,
      "duration": 0.0161,
      "velocity": 120,
      "chip": "ym2612"
    },
    {
      "channel": 3,
      "note": 64,
      "start": 19.0934,
      "duration": 0.0162,
      "velocity": 120,
      "chip": "ym2612"
    },
    {
      "channel": 2,
      "note": 52,
      "start": 19.0973,
      "duration": 0.0161,
      "velocity": 100,
      "chip": "ym2612"
    },
    {
      "channel": 0,
      "note": 65,
      "start": 19.1073,
      "duration": 0.0161,
      "velocity": 124,
      "chip": "ym2612"
    },
    {
      "channel": 4,
      "note": 57,
      "start": 19.1084,
      "duration": 0.0161,
      "velocity": 120,
      "chip": "ym2612"
    },
    {
      "channel": 3,
      "note": 64,
      "start": 19.1095,
      "duration": 0.0161,
      "velocity": 120,
      "chip": "ym2612"
    },
    {
      "channel": 2,
      "note": 52,
      "start": 19.1134,
      "duration": 0.0134,
      "velocity": 100,
      "chip": "ym2612"
    },
    {
      "channel": 0,
      "note": 63,
      "start": 19.1233,
      "duration": 0.0153,
      "velocity": 1,
      "chip": "ym2612"
    },
    {
      "channel": 4,
      "note": 57,
      "start": 19.1245,
      "duration": 0.0153,
      "velocity": 120,
      "chip": "ym2612"
    },
    {
      "channel": 3,
      "note": 64,
      "start": 19.1256,
      "duration": 0.0153,
      "velocity": 120,
      "chip": "ym2612"
    },
    {
      "channel": 2,
      "note": 52,
      "start": 19.1267,
      "duration": 0.0153,
      "velocity": 100,
      "chip": "ym2612"
    },
    {
      "channel": 4,
      "note": 57,
      "start": 19.1398,
      "duration": 0.0153,
      "velocity": 120,
      "chip": "ym2612"
    },
    {
      "channel": 3,
      "note": 64,
      "start": 19.1409,
      "duration": 0.0153,
      "velocity": 120,
      "chip": "ym2612"
    },
    {
      "channel": 2,
      "note": 52,
      "start": 19.142,
      "duration": 0.0153,
      "velocity": 100,
      "chip": "ym2612"
    },
    {
      "channel": 4,
      "note": 57,
      "start": 19.155,
      "duration": 0.0198,
      "velocity": 120,
      "chip": "ym2612"
    },
    {
      "channel": 3,
      "note": 64,
      "start": 19.1562,
      "duration": 0.02,
      "velocity": 120,
      "chip": "ym2612"
    },
    {
      "channel": 2,
      "note": 52,
      "start": 19.1573,
      "duration": 0.0231,
      "velocity": 100,
      "chip": "ym2612"
    },
    {
      "channel": 0,
      "note": 36,
      "start": 19.1734,
      "duration": 0.0144,
      "velocity": 115,
      "chip": "ym2612"
    },
    {
      "channel": 4,
      "note": 55,
      "start": 19.1749,
      "duration": 0.0141,
      "velocity": 120,
      "chip": "ym2612"
    },
    {
      "channel": 3,
      "note": 62,
      "start": 19.1762,
      "duration": 0.014,
      "velocity": 120,
      "chip": "ym2612"
    },
    {
      "channel": 2,
      "note": 52,
      "start": 19.1805,
      "duration": 0.0109,
      "velocity": 100,
      "chip": "ym2612"
    },
    {
      "channel": 0,
      "note": 36,
      "start": 19.1878,
      "duration": 0.016,
      "velocity": 115,
      "chip": "ym2612"
    },
    {
      "channel": 4,
      "note": 55,
      "start": 19.189,
      "duration": 0.016,
      "velocity": 120,
      "chip": "ym2612"
    },
    {
      "channel": 3,
      "note": 62,
      "start": 19.1902,
      "duration": 0.0159,
      "velocity": 120,
      "chip": "ym2612"
    },
    {
      "channel": 2,
      "note": 52,
      "start": 19.1914,
      "duration": 0.0159,
      "velocity": 100,
      "chip": "ym2612"
    },
    {
      "channel": 0,
      "note": 37,
      "start": 19.2038,
      "duration": 0.0161,
      "velocity": 115,
      "chip": "ym2612"
    },
    {
      "channel": 4,
      "note": 55,
      "start": 19.205,
      "duration": 0.0161,
      "velocity": 120,
      "chip": "ym2612"
    },
    {
      "channel": 3,
      "note": 62,
      "start": 19.2061,
      "duration": 0.0161,
      "velocity": 120,
      "chip": "ym2612"
    },
    {
      "channel": 2,
      "note": 52,
      "start": 19.2073,
      "duration": 0.0161,
      "velocity": 100,
      "chip": "ym2612"
    },
    {
      "channel": 0,
      "note": 37,
      "start": 19.2199,
      "duration": 0.0161,
      "velocity": 115,
      "chip": "ym2612"
    },
    {
      "channel": 4,
      "note": 55,
      "start": 19.2211,
      "duration": 0.0161,
      "velocity": 120,
      "chip": "ym2612"
    },
    {
      "channel": 3,
      "note": 62,
      "start": 19.2222,
      "duration": 0.0161,
      "velocity": 120,
      "chip": "ym2612"
    },
    {
      "channel": 2,
      "note": 52,
      "start": 19.2233,
      "duration": 0.0161,
      "velocity": 100,
      "chip": "ym2612"
    },
    {
      "channel": 0,
      "note": 38,
      "start": 19.236,
      "duration": 0.0161,
      "velocity": 115,
      "chip": "ym2612"
    },
    {
      "channel": 4,
      "note": 55,
      "start": 19.2372,
      "duration": 0.0161,
      "velocity": 120,
      "chip": "ym2612"
    },
    {
      "channel": 3,
      "note": 62,
      "start": 19.2383,
      "duration": 0.0161,
      "velocity": 120,
      "chip": "ym2612"
    },
    {
      "channel": 2,
      "note": 52,
      "start": 19.2394,
      "duration": 0.0161,
      "velocity": 100,
      "chip": "ym2612"
    },
    {
      "channel": 0,
      "note": 38,
      "start": 19.2522,
      "duration": 0.0161,
      "velocity": 115,
      "chip": "ym2612"
    },
    {
      "channel": 4,
      "note": 55,
      "start": 19.2533,
      "duration": 0.0161,
      "velocity": 120,
      "chip": "ym2612"
    },
    {
      "channel": 3,
      "note": 62,
      "start": 19.2544,
      "duration": 0.0161,
      "velocity": 120,
      "chip": "ym2612"
    },
    {
      "channel": 2,
      "note": 52,
      "start": 19.2555,
      "duration": 0.0161,
      "velocity": 100,
      "chip": "ym2612"
    },
    {
      "channel": 0,
      "note": 39,
      "start": 19.2683,
      "duration": 0.0161,
      "velocity": 115,
      "chip": "ym2612"
    },
    {
      "channel": 4,
      "note": 55,
      "start": 19.2694,
      "duration": 0.0161,
      "velocity": 120,
      "chip": "ym2612"
    },
    {
      "channel": 3,
      "note": 62,
      "start": 19.2705,
      "duration": 0.0161,
      "velocity": 120,
      "chip": "ym2612"
    },
    {
      "channel": 2,
      "note": 52,
      "start": 19.2716,
      "duration": 0.0161,
      "velocity": 100,
      "chip": "ym2612"
    },
    {
      "channel": 0,
      "note": 39,
      "start": 19.2844,
      "duration": 0.0161,
      "velocity": 115,
      "chip": "ym2612"
    },
    {
      "channel": 4,
      "note": 55,
      "start": 19.2855,
      "duration": 0.0161,
      "velocity": 120,
      "chip": "ym2612"
    },
    {
      "channel": 3,
      "note": 62,
      "start": 19.2866,
      "duration": 0.0161,
      "velocity": 120,
      "chip": "ym2612"
    },
    {
      "channel": 2,
      "note": 52,
      "start": 19.2878,
      "duration": 0.0161,
      "velocity": 100,
      "chip": "ym2612"
    },
    {
      "channel": 0,
      "note": 40,
      "start": 19.3005,
      "duration": 0.0161,
      "velocity": 115,
      "chip": "ym2612"
    },
    {
      "channel": 4,
      "note": 55,
      "start": 19.3016,
      "duration": 0.0161,
      "velocity": 120,
      "chip": "ym2612"
    },
    {
      "channel": 3,
      "note": 62,
      "start": 19.3027,
      "duration": 0.0161,
      "velocity": 120,
      "chip": "ym2612"
    },
    {
      "channel": 2,
      "note": 52,
      "start": 19.3039,
      "duration": 0.0161,
      "velocity": 100,
      "chip": "ym2612"
    },
    {
      "channel": 0,
      "note": 40,
      "start": 19.3165,
      "duration": 0.0161,
      "velocity": 115,
      "chip": "ym2612"
    },
    {
      "channel": 4,
      "note": 55,
      "start": 19.3177,
      "duration": 0.0161,
      "velocity": 120,
      "chip": "ym2612"
    },
    {
      "channel": 3,
      "note": 62,
      "start": 19.3188,
      "duration": 0.0161,
      "velocity": 120,
      "chip": "ym2612"
    },
    {
      "channel": 2,
      "note": 52,
      "start": 19.32,
      "duration": 0.0161,
      "velocity": 100,
      "chip": "ym2612"
    },
    {
      "channel": 0,
      "note": 40,
      "start": 19.3326,
      "duration": 0.0161,
      "velocity": 115,
      "chip": "ym2612"
    },
    {
      "channel": 4,
      "note": 55,
      "start": 19.3338,
      "duration": 0.0161,
      "velocity": 120,
      "chip": "ym2612"
    },
    {
      "channel": 3,
      "note": 62,
      "start": 19.3349,
      "duration": 0.0161,
      "velocity": 120,
      "chip": "ym2612"
    },
    {
      "channel": 2,
      "note": 52,
      "start": 19.3361,
      "duration": 0.0161,
      "velocity": 100,
      "chip": "ym2612"
    },
    {
      "channel": 0,
      "note": 41,
      "start": 19.3487,
      "duration": 0.0184,
      "velocity": 115,
      "chip": "ym2612"
    },
    {
      "channel": 4,
      "note": 55,
      "start": 19.3499,
      "duration": 0.0187,
      "velocity": 120,
      "chip": "ym2612"
    },
    {
      "channel": 3,
      "note": 62,
      "start": 19.351,
      "duration": 0.0189,
      "velocity": 120,
      "chip": "ym2612"
    },
    {
      "channel": 2,
      "note": 52,
      "start": 19.3522,
      "duration": 0.0192,
      "velocity": 100,
      "chip": "ym2612"
    },
    {
      "channel": 0,
      "note": 36,
      "start": 19.3672,
      "duration": 0.015,
      "velocity": 115,
      "chip": "ym2612"
    },
    {
      "channel": 4,
      "note": 55,
      "start": 19.3686,
      "duration": 0.0148,
      "velocity": 120,
      "chip": "ym2612"
    },
    {
      "channel": 3,
      "note": 62,
      "start": 19.37,
      "duration": 0.0145,
      "velocity": 120,
      "chip": "ym2612"
    },
    {
      "channel": 2,
      "note": 52,
      "start": 19.3714,
      "duration": 0.0143,
      "velocity": 100,
      "chip": "ym2612"
    },
    {
      "channel": 0,
      "note": 36,
      "start": 19.3821,
      "duration": 0.0162,
      "velocity": 115,
      "chip": "ym2612"
    },
    {
      "channel": 4,
      "note": 55,
      "start": 19.3833,
      "duration": 0.0161,
      "velocity": 120,
      "chip": "ym2612"
    },
    {
      "channel": 3,
      "note": 62,
      "start": 19.3845,
      "duration": 0.0162,
      "velocity": 120,
      "chip": "ym2612"
    },
    {
      "channel": 2,
      "note": 52,
      "start": 19.3857,
      "duration": 0.0161,
      "velocity": 100,
      "chip": "ym2612"
    },
    {
      "channel": 0,
      "note": 37,
      "start": 19.3983,
      "duration": 0.0148,
      "velocity": 115,
      "chip": "ym2612"
    },
    {
      "channel": 4,
      "note": 55,
      "start": 19.3995,
      "duration": 0.0148,
      "velocity": 120,
      "chip": "ym2612"
    },
    {
      "channel": 3,
      "note": 62,
      "start": 19.4006,
      "duration": 0.0148,
      "velocity": 120,
      "chip": "ym2612"
    },
    {
      "channel": 2,
      "note": 52,
      "start": 19.4018,
      "duration": 0.0148,
      "velocity": 100,
      "chip": "ym2612"
    },
    {
      "channel": 0,
      "note": 37,
      "start": 19.4132,
      "duration": 0.0188,
      "velocity": 115,
      "chip": "ym2612"
    },
    {
      "channel": 4,
      "note": 55,
      "start": 19.4143,
      "duration": 0.0188,
      "velocity": 120,
      "chip": "ym2612"
    },
    {
      "channel": 3,
      "note": 62,
      "start": 19.4155,
      "duration": 0.0188,
      "velocity": 120,
      "chip": "ym2612"
    },
    {
      "channel": 2,
      "note": 52,
      "start": 19.4165,
      "duration": 0.0189,
      "velocity": 100,
      "chip": "ym2612"
    },
    {
      "channel": 0,
      "note": 38,
      "start": 19.432,
      "duration": 0.0161,
      "velocity": 115,
      "chip": "ym2612"
    },
    {
      "channel": 4,
      "note": 55,
      "start": 19.4332,
      "duration": 0.0161,
      "velocity": 120,
      "chip": "ym2612"
    },
    {
      "channel": 3,
      "note": 62,
      "start": 19.4343,
      "duration": 0.0161,
      "velocity": 120,
      "chip": "ym2612"
    },
    {
      "channel": 2,
      "note": 52,
      "start": 19.4354,
      "duration": 0.0161,
      "velocity": 100,
      "chip": "ym2612"
    },
    {
      "channel": 0,
      "note": 38,
      "start": 19.4481,
      "duration": 0.0158,
      "velocity": 115,
      "chip": "ym2612"
    },
    {
      "channel": 4,
      "note": 55,
      "start": 19.4492,
      "duration": 0.0158,
      "velocity": 120,
      "chip": "ym2612"
    },
    {
      "channel": 3,
      "note": 62,
      "start": 19.4504,
      "duration": 0.0158,
      "velocity": 120,
      "chip": "ym2612"
    },
    {
      "channel": 2,
      "note": 52,
      "start": 19.4515,
      "duration": 0.0157,
      "velocity": 100,
      "chip": "ym2612"
    },
    {
      "channel": 0,
      "note": 39,
      "start": 19.4639,
      "duration": 0.014,
      "velocity": 115,
      "chip": "ym2612"
    },
    {
      "channel": 4,
      "note": 55,
      "start": 19.465,
      "duration": 0.0141,
      "velocity": 120,
      "chip": "ym2612"
    },
    {
      "channel": 3,
      "note": 62,
      "start": 19.4661,
      "duration": 0.014,
      "velocity": 120,
      "chip": "ym2612"
    },
    {
      "channel": 2,
      "note": 52,
      "start": 19.4672,
      "duration": 0.0141,
      "velocity": 100,
      "chip": "ym2612"
    },
    {
      "channel": 0,
      "note": 39,
      "start": 19.4779,
      "duration": 0.0158,
      "velocity": 115,
      "chip": "ym2612"
    },
    {
      "channel": 4,
      "note": 55,
      "start": 19.4791,
      "duration": 0.0185,
      "velocity": 120,
      "chip": "ym2612"
    },
    {
      "channel": 3,
      "note": 62,
      "start": 19.4802,
      "duration": 0.0185,
      "velocity": 120,
      "chip": "ym2612"
    },
    {
      "channel": 2,
      "note": 52,
      "start": 19.4813,
      "duration": 0.0185,
      "velocity": 100,
      "chip": "ym2612"
    },
    {
      "channel": 0,
      "note": 40,
      "start": 19.4936,
      "duration": 0.0161,
      "velocity": 115,
      "chip": "ym2612"
    },
    {
      "channel": 4,
      "note": 55,
      "start": 19.4976,
      "duration": 0.0161,
      "velocity": 120,
      "chip": "ym2612"
    },
    {
      "channel": 3,
      "note": 62,
      "start": 19.4987,
      "duration": 0.0161,
      "velocity": 120,
      "chip": "ym2612"
    },
    {
      "channel": 2,
      "note": 52,
      "start": 19.4998,
      "duration": 0.0161,
      "velocity": 100,
      "chip": "ym2612"
    },
    {
      "channel": 0,
      "note": 40,
      "start": 19.5097,
      "duration": 0.0161,
      "velocity": 115,
      "chip": "ym2612"
    },
    {
      "channel": 4,
      "note": 55,
      "start": 19.5137,
      "duration": 0.0134,
      "velocity": 120,
      "chip": "ym2612"
    },
    {
      "channel": 3,
      "note": 62,
      "start": 19.5148,
      "duration": 0.0158,
      "velocity": 120,
      "chip": "ym2612"
    },
    {
      "channel": 2,
      "note": 52,
      "start": 19.5159,
      "duration": 0.0158,
      "velocity": 100,
      "chip": "ym2612"
    },
    {
      "channel": 0,
      "note": 40,
      "start": 19.5258,
      "duration": 0.0161,
      "velocity": 115,
      "chip": "ym2612"
    },
    {
      "channel": 4,
      "note": 55,
      "start": 19.527,
      "duration": 0.0161,
      "velocity": 120,
      "chip": "ym2612"
    },
    {
      "channel": 3,
      "note": 62,
      "start": 19.5305,
      "duration": 0.0141,
      "velocity": 120,
      "chip": "ym2612"
    },
    {
      "channel": 2,
      "note": 52,
      "start": 19.5317,
      "duration": 0.014,
      "velocity": 100,
      "chip": "ym2612"
    },
    {
      "channel": 0,
      "note": 41,
      "start": 19.5419,
      "duration": 0.0161,
      "velocity": 115,
      "chip": "ym2612"
    },
    {
      "channel": 4,
      "note": 55,
      "start": 19.5431,
      "duration": 0.0163,
      "velocity": 120,
      "chip": "ym2612"
    },
    {
      "channel": 3,
      "note": 62,
      "start": 19.5446,
      "duration": 0.019,
      "velocity": 120,
      "chip": "ym2612"
    },
    {
      "channel": 2,
      "note": 52,
      "start": 19.5457,
      "duration": 0.0193,
      "velocity": 100,
      "chip": "ym2612"
    },
    {
      "channel": 0,
      "note": 41,
      "start": 19.5581,
      "duration": 0.0161,
      "velocity": 115,
      "chip": "ym2612"
    },
    {
      "channel": 4,
      "note": 54,
      "start": 19.5595,
      "duration": 0.0159,
      "velocity": 120,
      "chip": "ym2612"
    },
    {
      "channel": 3,
      "note": 61,
      "start": 19.5636,
      "duration": 0.0129,
      "velocity": 120,
      "chip": "ym2612"
    },
    {
      "channel": 2,
      "note": 52,
      "start": 19.5651,
      "duration": 0.0154,
      "velocity": 100,
      "chip": "ym2612"
    },
    {
      "channel": 0,
      "note": 42,
      "start": 19.5742,
      "duration": 0.0161,
      "velocity": 115,
      "chip": "ym2612"
    },
    {
      "channel": 4,
      "note": 54,
      "start": 19.5754,
      "duration": 0.016,
      "velocity": 120,
      "chip": "ym2612"
    },
    {
      "channel": 3,
      "note": 61,
      "start": 19.5765,
      "duration": 0.016,
      "velocity": 120,
      "chip": "ym2612"
    },
    {
      "channel": 2,
      "note": 52,
      "start": 19.5805,
      "duration": 0.0132,
      "velocity": 100,
      "chip": "ym2612"
    },
    {
      "channel": 0,
      "note": 42,
      "start": 19.5903,
      "duration": 0.0161,
      "velocity": 115,
      "chip": "ym2612"
    },
    {
      "channel": 4,
      "note": 54,
      "start": 19.5914,
      "duration": 0.0161,
      "velocity": 120,
      "chip": "ym2612"
    },
    {
      "channel": 3,
      "note": 61,
      "start": 19.5926,
      "duration": 0.0161,
      "velocity": 120,
      "chip": "ym2612"
    },
    {
      "channel": 2,
      "note": 52,
      "start": 19.5937,
      "duration": 0.0161,
      "velocity": 100,
      "chip": "ym2612"
    },
    {
      "channel": 0,
      "note": 43,
      "start": 19.6063,
      "duration": 0.0161,
      "velocity": 115,
      "chip": "ym2612"
    },
    {
      "channel": 4,
      "note": 54,
      "start": 19.6075,
      "duration": 0.0161,
      "velocity": 120,
      "chip": "ym2612"
    },
    {
      "channel": 3,
      "note": 61,
      "start": 19.6086,
      "duration": 0.0161,
      "velocity": 120,
      "chip": "ym2612"
    },
    {
      "channel": 2,
      "note": 52,
      "start": 19.6098,
      "duration": 0.0161,
      "velocity": 100,
      "chip": "ym2612"
    },
    {
      "channel": 0,
      "note": 43,
      "start": 19.6224,
      "duration": 0.0161,
      "velocity": 115,
      "chip": "ym2612"
    },
    {
      "channel": 4,
      "note": 54,
      "start": 19.6236,
      "duration": 0.0161,
      "velocity": 120,
      "chip": "ym2612"
    },
    {
      "channel": 3,
      "note": 61,
      "start": 19.6247,
      "duration": 0.0161,
      "velocity": 120,
      "chip": "ym2612"
    },
    {
      "channel": 2,
      "note": 52,
      "start": 19.6259,
      "duration": 0.0161,
      "velocity": 100,
      "chip": "ym2612"
    },
    {
      "channel": 0,
      "note": 44,
      "start": 19.6385,
      "duration": 0.0161,
      "velocity": 115,
      "chip": "ym2612"
    },
    {
      "channel": 4,
      "note": 54,
      "start": 19.6397,
      "duration": 0.0161,
      "velocity": 120,
      "chip": "ym2612"
    },
    {
      "channel": 3,
      "note": 61,
      "start": 19.6408,
      "duration": 0.0161,
      "velocity": 120,
      "chip": "ym2612"
    },
    {
      "channel": 2,
      "note": 52,
      "start": 19.642,
      "duration": 0.0161,
      "velocity": 100,
      "chip": "ym2612"
    },
    {
      "channel": 0,
      "note": 44,
      "start": 19.6546,
      "duration": 0.0161,
      "velocity": 115,
      "chip": "ym2612"
    },
    {
      "channel": 4,
      "note": 54,
      "start": 19.6558,
      "duration": 0.0162,
      "velocity": 120,
      "chip": "ym2612"
    },
    {
      "channel": 3,
      "note": 61,
      "start": 19.6569,
      "duration": 0.0161,
      "velocity": 120,
      "chip": "ym2612"
    },
    {
      "channel": 2,
      "note": 52,
      "start": 19.6581,
      "duration": 0.0161,
      "velocity": 100,
      "chip": "ym2612"
    },
    {
      "channel": 0,
      "note": 44,
      "start": 19.6707,
      "duration": 0.0162,
      "velocity": 115,
      "chip": "ym2612"
    },
    {
      "channel": 4,
      "note": 54,
      "start": 19.672,
      "duration": 0.0161,
      "velocity": 120,
      "chip": "ym2612"
    },
    {
      "channel": 3,
      "note": 61,
      "start": 19.673,
      "duration": 0.0162,
      "velocity": 120,
      "chip": "ym2612"
    },
    {
      "channel": 2,
      "note": 52,
      "start": 19.6742,
      "duration": 0.0161,
      "velocity": 100,
      "chip": "ym2612"
    },
    {
      "channel": 0,
      "note": 45,
      "start": 19.6869,
      "duration": 0.0161,
      "velocity": 115,
      "chip": "ym2612"
    },
    {
      "channel": 4,
      "note": 54,
      "start": 19.688,
      "duration": 0.0161,
      "velocity": 120,
      "chip": "ym2612"
    },
    {
      "channel": 3,
      "note": 61,
      "start": 19.6892,
      "duration": 0.0161,
      "velocity": 120,
      "chip": "ym2612"
    },
    {
      "channel": 2,
      "note": 52,
      "start": 19.6903,
      "duration": 0.0161,
      "velocity": 100,
      "chip": "ym2612"
    },
    {
      "channel": 0,
      "note": 45,
      "start": 19.703,
      "duration": 0.0161,
      "velocity": 115,
      "chip": "ym2612"
    },
    {
      "channel": 4,
      "note": 54,
      "start": 19.7041,
      "duration": 0.0161,
      "velocity": 120,
      "chip": "ym2612"
    },
    {
      "channel": 3,
      "note": 61,
      "start": 19.7053,
      "duration": 0.0161,
      "velocity": 120,
      "chip": "ym2612"
    },
    {
      "channel": 2,
      "note": 52,
      "start": 19.7063,
      "duration": 0.0161,
      "velocity": 100,
      "chip": "ym2612"
    },
    {
      "channel": 0,
      "note": 46,
      "start": 19.7191,
      "duration": 0.0161,
      "velocity": 115,
      "chip": "ym2612"
    },
    {
      "channel": 4,
      "note": 54,
      "start": 19.7202,
      "duration": 0.0161,
      "velocity": 120,
      "chip": "ym2612"
    },
    {
      "channel": 3,
      "note": 61,
      "start": 19.7214,
      "duration": 0.0161,
      "velocity": 120,
      "chip": "ym2612"
    },
    {
      "channel": 2,
      "note": 52,
      "start": 19.7224,
      "duration": 0.0162,
      "velocity": 100,
      "chip": "ym2612"
    },
    {
      "channel": 0,
      "note": 46,
      "start": 19.7352,
      "duration": 0.0178,
      "velocity": 124,
      "chip": "ym2612"
    },
    {
      "channel": 4,
      "note": 54,
      "start": 19.7363,
      "duration": 0.0181,
      "velocity": 120,
      "chip": "ym2612"
    },
    {
      "channel": 3,
      "note": 61,
      "start": 19.7375,
      "duration": 0.0184,
      "velocity": 120,
      "chip": "ym2612"
    },
    {
      "channel": 2,
      "note": 52,
      "start": 19.7386,
      "duration": 0.0186,
      "velocity": 100,
      "chip": "ym2612"
    },
    {
      "channel": 0,
      "note": 84,
      "start": 19.7531,
      "duration": 0.0144,
      "velocity": 124,
      "chip": "ym2612"
    },
    {
      "channel": 4,
      "note": 54,
      "start": 19.7544,
      "duration": 0.0142,
      "velocity": 120,
      "chip": "ym2612"
    },
    {
      "channel": 3,
      "note": 61,
      "start": 19.7559,
      "duration": 0.014,
      "velocity": 120,
      "chip": "ym2612"
    },
    {
      "channel": 2,
      "note": 52,
      "start": 19.7573,
      "duration": 0.0137,
      "velocity": 100,
      "chip": "ym2612"
    },
    {
      "channel": 0,
      "note": 82,
      "start": 19.7674,
      "duration": 0.016,
      "velocity": 124,
      "chip": "ym2612"
    },
    {
      "channel": 4,
      "note": 54,
      "start": 19.7686,
      "duration": 0.016,
      "velocity": 120,
      "chip": "ym2612"
    },
    {
      "channel": 3,
      "note": 61,
      "start": 19.7698,
      "duration": 0.0159,
      "velocity": 120,
      "chip": "ym2612"
    },
    {
      "channel": 2,
      "note": 52,
      "start": 19.771,
      "duration": 0.0159,
      "velocity": 100,
      "chip": "ym2612"
    },
    {
      "channel": 0,
      "note": 80,
      "start": 19.7835,
      "duration": 0.0161,
      "velocity": 124,
      "chip": "ym2612"
    },
    {
      "channel": 4,
      "note": 54,
      "start": 19.7846,
      "duration": 0.0162,
      "velocity": 120,
      "chip": "ym2612"
    },
    {
      "channel": 3,
      "note": 61,
      "start": 19.7858,
      "duration": 0.0161,
      "velocity": 120,
      "chip": "ym2612"
    },
    {
      "channel": 2,
      "note": 52,
      "start": 19.7869,
      "duration": 0.0161,
      "velocity": 100,
      "chip": "ym2612"
    },
    {
      "channel": 0,
      "note": 77,
      "start": 19.7995,
      "duration": 0.0161,
      "velocity": 124,
      "chip": "ym2612"
    },
    {
      "channel": 4,
      "note": 54,
      "start": 19.8008,
      "duration": 0.0161,
      "velocity": 120,
      "chip": "ym2612"
    },
    {
      "channel": 3,
      "note": 61,
      "start": 19.8018,
      "duration": 0.0161,
      "velocity": 120,
      "chip": "ym2612"
    },
    {
      "channel": 2,
      "note": 52,
      "start": 19.803,
      "duration": 0.0161,
      "velocity": 100,
      "chip": "ym2612"
    },
    {
      "channel": 0,
      "note": 75,
      "start": 19.8156,
      "duration": 0.0164,
      "velocity": 124,
      "chip": "ym2612"
    },
    {
      "channel": 4,
      "note": 54,
      "start": 19.8168,
      "duration": 0.0163,
      "velocity": 120,
      "chip": "ym2612"
    },
    {
      "channel": 3,
      "note": 61,
      "start": 19.8179,
      "duration": 0.0164,
      "velocity": 120,
      "chip": "ym2612"
    },
    {
      "channel": 2,
      "note": 52,
      "start": 19.8191,
      "duration": 0.0163,
      "velocity": 100,
      "chip": "ym2612"
    },
    {
      "channel": 0,
      "note": 72,
      "start": 19.8321,
      "duration": 0.0167,
      "velocity": 124,
      "chip": "ym2612"
    },
    {
      "channel": 4,
      "note": 54,
      "start": 19.8332,
      "duration": 0.0167,
      "velocity": 120,
      "chip": "ym2612"
    },
    {
      "channel": 3,
      "note": 61,
      "start": 19.8344,
      "duration": 0.0167,
      "velocity": 120,
      "chip": "ym2612"
    },
    {
      "channel": 2,
      "note": 52,
      "start": 19.8354,
      "duration": 0.0167,
      "velocity": 100,
      "chip": "ym2612"
    },
    {
      "channel": 0,
      "note": 70,
      "start": 19.8487,
      "duration": 0.0163,
      "velocity": 124,
      "chip": "ym2612"
    },
    {
      "channel": 4,
      "note": 54,
      "start": 19.8499,
      "duration": 0.0163,
      "velocity": 120,
      "chip": "ym2612"
    },
    {
      "channel": 3,
      "note": 61,
      "start": 19.851,
      "duration": 0.0163,
      "velocity": 120,
      "chip": "ym2612"
    },
    {
      "channel": 2,
      "note": 52,
      "start": 19.8521,
      "duration": 0.0163,
      "velocity": 100,
      "chip": "ym2612"
    },
    {
      "channel": 0,
      "note": 68,
      "start": 19.865,
      "duration": 0.0151,
      "velocity": 124,
      "chip": "ym2612"
    },
    {
      "channel": 4,
      "note": 54,
      "start": 19.8661,
      "duration": 0.0151,
      "velocity": 120,
      "chip": "ym2612"
    },
    {
      "channel": 3,
      "note": 61,
      "start": 19.8673,
      "duration": 0.0151,
      "velocity": 120,
      "chip": "ym2612"
    },
    {
      "channel": 2,
      "note": 52,
      "start": 19.8684,
      "duration": 0.0151,
      "velocity": 100,
      "chip": "ym2612"
    },
    {
      "channel": 0,
      "note": 65,
      "start": 19.8801,
      "duration": 0.0186,
      "velocity": 124,
      "chip": "ym2612"
    },
    {
      "channel": 4,
      "note": 54,
      "start": 19.8812,
      "duration": 0.0186,
      "velocity": 120,
      "chip": "ym2612"
    },
    {
      "channel": 3,
      "note": 61,
      "start": 19.8824,
      "duration": 0.0186,
      "velocity": 120,
      "chip": "ym2612"
    },
    {
      "channel": 2,
      "note": 52,
      "start": 19.8835,
      "duration": 0.0186,
      "velocity": 100,
      "chip": "ym2612"
    },
    {
      "channel": 0,
      "note": 63,
      "start": 19.8987,
      "duration": 0.0155,
      "velocity": 1,
      "chip": "ym2612"
    },
    {
      "channel": 4,
      "note": 54,
      "start": 19.8999,
      "duration": 0.0155,
      "velocity": 120,
      "chip": "ym2612"
    },
    {
      "channel": 3,
      "note": 61,
      "start": 19.901,
      "duration": 0.0155,
      "velocity": 120,
      "chip": "ym2612"
    },
    {
      "channel": 2,
      "note": 52,
      "start": 19.9021,
      "duration": 0.0155,
      "velocity": 100,
      "chip": "ym2612"
    },
    {
      "channel": 4,
      "note": 54,
      "start": 19.9154,
      "duration": 0.0149,
      "velocity": 120,
      "chip": "ym2612"
    },
    {
      "channel": 3,
      "note": 61,
      "start": 19.9165,
      "duration": 0.0149,
      "velocity": 120,
      "chip": "ym2612"
    },
    {
      "channel": 2,
      "note": 52,
      "start": 19.9176,
      "duration": 0.0149,
      "velocity": 100,
      "chip": "ym2612"
    },
    {
      "channel": 4,
      "note": 54,
      "start": 19.9303,
      "duration": 0.0143,
      "velocity": 120,
      "chip": "ym2612"
    },
    {
      "channel": 3,
      "note": 61,
      "start": 19.9314,
      "duration": 0.0145,
      "velocity": 120,
      "chip": "ym2612"
    },
    {
      "channel": 2,
      "note": 52,
      "start": 19.9325,
      "duration": 0.0149,
      "velocity": 100,
      "chip": "ym2612"
    },
    {
      "channel": 4,
      "note": 52,
      "start": 19.9446,
      "duration": 0.0156,
      "velocity": 120,
      "chip": "ym2612"
    },
    {
      "channel": 3,
      "note": 59,
      "start": 19.946,
      "duration": 0.0181,
      "velocity": 120,
      "chip": "ym2612"
    },
    {
      "channel": 2,
      "note": 52,
      "start": 19.9474,
      "duration": 0.0179,
      "velocity": 100,
      "chip": "ym2612"
    },
    {
      "channel": 4,
      "note": 52,
      "start": 19.9602,
      "duration": 0.016,
      "velocity": 120,
      "chip": "ym2612"
    },
    {
      "channel": 3,
      "note": 59,
      "start": 19.9641,
      "duration": 0.016,
      "velocity": 120,
      "chip": "ym2612"
    },
    {
      "channel": 2,
      "note": 52,
      "start": 19.9653,
      "duration": 0.016,
      "velocity": 100,
      "chip": "ym2612"
    },
    {
      "channel": 4,
      "note": 52,
      "start": 19.9762,
      "duration": 0.0161,
      "velocity": 120,
      "chip": "ym2612"
    },
    {
      "channel": 3,
      "note": 59,
      "start": 19.9801,
      "duration": 0.0134,
      "velocity": 120,
      "chip": "ym2612"
    },
    {
      "channel": 2,
      "note": 52,
      "start": 19.9812,
      "duration": 0.0157,
      "velocity": 100,
      "chip": "ym2612"
    },
    {
      "channel": 4,
      "note": 52,
      "start": 19.9923,
      "duration": 0.0161,
      "velocity": 120,
      "chip": "ym2612"
    },
    {
      "channel": 3,
      "note": 59,
      "start": 19.9934,
      "duration": 0.0161,
      "velocity": 120,
      "chip": "ym2612"
    },
    {
      "channel": 2,
      "note": 52,
      "start": 19.9969,
      "duration": 0.0138,
      "velocity": 100,
      "chip": "ym2612"
    },
    {
      "channel": 4,
      "note": 52,
      "start": 20.0084,
      "duration": 0.0161,
      "velocity": 120,
      "chip": "ym2612"
    },
    {
      "channel": 3,
      "note": 59,
      "start": 20.0095,
      "duration": 0.0161,
      "velocity": 120,
      "chip": "ym2612"
    },
    {
      "channel": 2,
      "note": 52,
      "start": 20.0107,
      "duration": 0.016,
      "velocity": 100,
      "chip": "ym2612"
    },
    {
      "channel": 4,
      "note": 52,
      "start": 20.0245,
      "duration": 0.0161,
      "velocity": 120,
      "chip": "ym2612"
    },
    {
      "channel": 3,
      "note": 59,
      "start": 20.0256,
      "duration": 0.0161,
      "velocity": 120,
      "chip": "ym2612"
    },
    {
      "channel": 2,
      "note": 52,
      "start": 20.0268,
      "duration": 0.0161,
      "velocity": 100,
      "chip": "ym2612"
    },
    {
      "channel": 4,
      "note": 52,
      "start": 20.0406,
      "duration": 0.0161,
      "velocity": 120,
      "chip": "ym2612"
    },
    {
      "channel": 3,
      "note": 59,
      "start": 20.0417,
      "duration": 0.0161,
      "velocity": 120,
      "chip": "ym2612"
    },
    {
      "channel": 2,
      "note": 52,
      "start": 20.0429,
      "duration": 0.0161,
      "velocity": 100,
      "chip": "ym2612"
    },
    {
      "channel": 4,
      "note": 52,
      "start": 20.0567,
      "duration": 0.0161,
      "velocity": 120,
      "chip": "ym2612"
    },
    {
      "channel": 3,
      "note": 59,
      "start": 20.0578,
      "duration": 0.0161,
      "velocity": 120,
      "chip": "ym2612"
    },
    {
      "channel": 2,
      "note": 52,
      "start": 20.059,
      "duration": 0.0161,
      "velocity": 100,
      "chip": "ym2612"
    },
    {
      "channel": 4,
      "note": 52,
      "start": 20.0728,
      "duration": 0.0162,
      "velocity": 120,
      "chip": "ym2612"
    },
    {
      "channel": 3,
      "note": 59,
      "start": 20.0739,
      "duration": 0.0161,
      "velocity": 120,
      "chip": "ym2612"
    },
    {
      "channel": 2,
      "note": 52,
      "start": 20.0751,
      "duration": 0.0161,
      "velocity": 100,
      "chip": "ym2612"
    },
    {
      "channel": 4,
      "note": 52,
      "start": 20.0889,
      "duration": 0.0161,
      "velocity": 120,
      "chip": "ym2612"
    },
    {
      "channel": 3,
      "note": 59,
      "start": 20.09,
      "duration": 0.0161,
      "velocity": 120,
      "chip": "ym2612"
    },
    {
      "channel": 2,
      "note": 52,
      "start": 20.0912,
      "duration": 0.0161,
      "velocity": 100,
      "chip": "ym2612"
    },
    {
      "channel": 4,
      "note": 52,
      "start": 20.105,
      "duration": 0.0161,
      "velocity": 120,
      "chip": "ym2612"
    },
    {
      "channel": 3,
      "note": 59,
      "start": 20.1061,
      "duration": 0.0161,
      "velocity": 120,
      "chip": "ym2612"
    },
    {
      "channel": 2,
      "note": 52,
      "start": 20.1073,
      "duration": 0.0161,
      "velocity": 100,
      "chip": "ym2612"
    },
    {
      "channel": 4,
      "note": 52,
      "start": 20.1211,
      "duration": 0.0197,
      "velocity": 120,
      "chip": "ym2612"
    },
    {
      "channel": 3,
      "note": 59,
      "start": 20.1222,
      "duration": 0.02,
      "velocity": 120,
      "chip": "ym2612"
    },
    {
      "channel": 2,
      "note": 52,
      "start": 20.1233,
      "duration": 0.0204,
      "velocity": 100,
      "chip": "ym2612"
    },
    {
      "channel": 0,
      "note": 36,
      "start": 20.1395,
      "duration": 0.0144,
      "velocity": 115,
      "chip": "ym2612"
    },
    {
      "channel": 4,
      "note": 52,
      "start": 20.1409,
      "duration": 0.0142,
      "velocity": 120,
      "chip": "ym2612"
    },
    {
      "channel": 3,
      "note": 59,
      "start": 20.1423,
      "duration": 0.0139,
      "velocity": 120,
      "chip": "ym2612"
    },
    {
      "channel": 2,
      "note": 52,
      "start": 20.1438,
      "duration": 0.0137,
      "velocity": 100,
      "chip": "ym2612"
    },
    {
      "channel": 0,
      "note": 36,
      "start": 20.1539,
      "duration": 0.016,
      "velocity": 115,
      "chip": "ym2612"
    },
    {
      "channel": 4,
      "note": 52,
      "start": 20.1551,
      "duration": 0.016,
      "velocity": 120,
      "chip": "ym2612"
    },
    {
      "channel": 3,
      "note": 59,
      "start": 20.1562,
      "duration": 0.016,
      "velocity": 120,
      "chip": "ym2612"
    },
    {
      "channel": 2,
      "note": 52,
      "start": 20.1574,
      "duration": 0.0159,
      "velocity": 100,
      "chip": "ym2612"
    },
    {
      "channel": 0,
      "note": 37,
      "start": 20.1699,
      "duration": 0.0161,
      "velocity": 115,
      "chip": "ym2612"
    },
    {
      "channel": 4,
      "note": 52,
      "start": 20.171,
      "duration": 0.0161,
      "velocity": 120,
      "chip": "ym2612"
    },
    {
      "channel": 3,
      "note": 59,
      "start": 20.1722,
      "duration": 0.0161,
      "velocity": 120,
      "chip": "ym2612"
    },
    {
      "channel": 2,
      "note": 52,
      "start": 20.1733,
      "duration": 0.0161,
      "velocity": 100,
      "chip": "ym2612"
    },
    {
      "channel": 0,
      "note": 37,
      "start": 20.186,
      "duration": 0.0161,
      "velocity": 115,
      "chip": "ym2612"
    },
    {
      "channel": 4,
      "note": 52,
      "start": 20.1871,
      "duration": 0.0161,
      "velocity": 120,
      "chip": "ym2612"
    },
    {
      "channel": 3,
      "note": 59,
      "start": 20.1883,
      "duration": 0.0161,
      "velocity": 120,
      "chip": "ym2612"
    },
    {
      "channel": 2,
      "note": 52,
      "start": 20.1894,
      "duration": 0.0161,
      "velocity": 100,
      "chip": "ym2612"
    },
    {
      "channel": 0,
      "note": 38,
      "start": 20.2021,
      "duration": 0.0161,
      "velocity": 115,
      "chip": "ym2612"
    },
    {
      "channel": 4,
      "note": 52,
      "start": 20.2032,
      "duration": 0.0161,
      "velocity": 120,
      "chip": "ym2612"
    },
    {
      "channel": 3,
      "note": 59,
      "start": 20.2044,
      "duration": 0.0161,
      "velocity": 120,
      "chip": "ym2612"
    },
    {
      "channel": 2,
      "note": 52,
      "start": 20.2055,
      "duration": 0.0161,
      "velocity": 100,
      "chip": "ym2612"
    },
    {
      "channel": 0,
      "note": 38,
      "start": 20.2182,
      "duration": 0.0161,
      "velocity": 115,
      "chip": "ym2612"
    },
    {
      "channel": 4,
      "note": 52,
      "start": 20.2193,
      "duration": 0.0161,
      "velocity": 120,
      "chip": "ym2612"
    },
    {
      "channel": 3,
      "note": 59,
      "start": 20.2205,
      "duration": 0.0161,
      "velocity": 120,
      "chip": "ym2612"
    },
    {
      "channel": 2,
      "note": 52,
      "start": 20.2216,
      "duration": 0.0161,
      "velocity": 100,
      "chip": "ym2612"
    },
    {
      "channel": 0,
      "note": 39,
      "start": 20.2343,
      "duration": 0.0161,
      "velocity": 115,
      "chip": "ym2612"
    },
    {
      "channel": 4,
      "note": 52,
      "start": 20.2354,
      "duration": 0.0161,
      "velocity": 120,
      "chip": "ym2612"
    },
    {
      "channel": 3,
      "note": 59,
      "start": 20.2366,
      "duration": 0.0161,
      "velocity": 120,
      "chip": "ym2612"
    },
    {
      "channel": 2,
      "note": 52,
      "start": 20.2377,
      "duration": 0.0161,
      "velocity": 100,
      "chip": "ym2612"
    },
    {
      "channel": 0,
      "note": 39,
      "start": 20.2504,
      "duration": 0.0161,
      "velocity": 115,
      "chip": "ym2612"
    },
    {
      "channel": 4,
      "note": 52,
      "start": 20.2516,
      "duration": 0.0161,
      "velocity": 120,
      "chip": "ym2612"
    },
    {
      "channel": 3,
      "note": 59,
      "start": 20.2527,
      "duration": 0.0161,
      "velocity": 120,
      "chip": "ym2612"
    },
    {
      "channel": 2,
      "note": 52,
      "start": 20.2538,
      "duration": 0.0161,
      "velocity": 100,
      "chip": "ym2612"
    },
    {
      "channel": 0,
      "note": 40,
      "start": 20.2665,
      "duration": 0.0161,
      "velocity": 115,
      "chip": "ym2612"
    },
    {
      "channel": 4,
      "note": 52,
      "start": 20.2677,
      "duration": 0.0161,
      "velocity": 120,
      "chip": "ym2612"
    },
    {
      "channel": 3,
      "note": 59,
      "start": 20.2688,
      "duration": 0.0161,
      "velocity": 120,
      "chip": "ym2612"
    },
    {
      "channel": 2,
      "note": 52,
      "start": 20.2699,
      "duration": 0.0161,
      "velocity": 100,
      "chip": "ym2612"
    },
    {
      "channel": 0,
      "note": 40,
      "start": 20.2826,
      "duration": 0.0162,
      "velocity": 115,
      "chip": "ym2612"
    },
    {
      "channel": 4,
      "note": 52,
      "start": 20.2838,
      "duration": 0.0161,
      "velocity": 120,
      "chip": "ym2612"
    },
    {
      "channel": 3,
      "note": 59,
      "start": 20.2849,
      "duration": 0.0162,
      "velocity": 120,
      "chip": "ym2612"
    },
    {
      "channel": 2,
      "note": 52,
      "start": 20.286,
      "duration": 0.0161,
      "velocity": 100,
      "chip": "ym2612"
    },
    {
      "channel": 0,
      "note": 40,
      "start": 20.2987,
      "duration": 0.0167,
      "velocity": 115,
      "chip": "ym2612"
    },
    {
      "channel": 4,
      "note": 52,
      "start": 20.2999,
      "duration": 0.0167,
      "velocity": 120,
      "chip": "ym2612"
    },
    {
      "channel": 3,
      "note": 59,
      "start": 20.301,
      "duration": 0.0167,
      "velocity": 120,
      "chip": "ym2612"
    },
    {
      "channel": 2,
      "note": 52,
      "start": 20.3022,
      "duration": 0.0166,
      "velocity": 100,
      "chip": "ym2612"
    },
    {
      "channel": 0,
      "note": 41,
      "start": 20.3154,
      "duration": 0.0163,
      "velocity": 115,
      "chip": "ym2612"
    },
    {
      "channel": 4,
      "note": 52,
      "start": 20.3165,
      "duration": 0.0165,
      "velocity": 120,
      "chip": "ym2612"
    },
    {
      "channel": 3,
      "note": 59,
      "start": 20.3177,
      "duration": 0.0167,
      "velocity": 120,
      "chip": "ym2612"
    },
    {
      "channel": 2,
      "note": 52,
      "start": 20.3188,
      "duration": 0.0171,
      "velocity": 100,
      "chip": "ym2612"
    },
    {
      "channel": 0,
      "note": 41,
      "start": 20.3317,
      "duration": 0.0153,
      "velocity": 115,
      "chip": "ym2612"
    },
    {
      "channel": 4,
      "note": 57,
      "start": 20.3331,
      "duration": 0.0151,
      "velocity": 120,
      "chip": "ym2612"
    },
    {
      "channel": 3,
      "note": 64,
      "start": 20.3345,
      "duration": 0.015,
      "velocity": 120,
      "chip": "ym2612"
    },
    {
      "channel": 2,
      "note": 52,
      "start": 20.3359,
      "duration": 0.0147,
      "velocity": 100,
      "chip": "ym2612"
    },
    {
      "channel": 0,
      "note": 42,
      "start": 20.347,
      "duration": 0.0184,
      "velocity": 115,
      "chip": "ym2612"
    },
    {
      "channel": 4,
      "note": 57,
      "start": 20.3482,
      "duration": 0.0183,
      "velocity": 120,
      "chip": "ym2612"
    },
    {
      "channel": 3,
      "note": 64,
      "start": 20.3494,
      "duration": 0.0183,
      "velocity": 120,
      "chip": "ym2612"
    },
    {
      "channel": 2,
      "note": 52,
      "start": 20.3506,
      "duration": 0.0181,
      "velocity": 100,
      "chip": "ym2612"
    },
    {
      "channel": 0,
      "note": 42,
      "start": 20.3654,
      "duration": 0.0165,
      "velocity": 115,
      "chip": "ym2612"
    },
    {
      "channel": 4,
      "note": 57,
      "start": 20.3665,
      "duration": 0.0166,
      "velocity": 120,
      "chip": "ym2612"
    },
    {
      "channel": 3,
      "note": 64,
      "start": 20.3677,
      "duration": 0.0165,
      "velocity": 120,
      "chip": "ym2612"
    },
    {
      "channel": 2,
      "note": 52,
      "start": 20.3688,
      "duration": 0.0166,
      "velocity": 100,
      "chip": "ym2612"
    },
    {
      "channel": 0,
      "note": 43,
      "start": 20.3819,
      "duration": 0.0158,
      "velocity": 115,
      "chip": "ym2612"
    },
    {
      "channel": 4,
      "note": 57,
      "start": 20.3831,
      "duration": 0.0158,
      "velocity": 120,
      "chip": "ym2612"
    },
    {
      "channel": 3,
      "note": 64,
      "start": 20.3842,
      "duration": 0.0158,
      "velocity": 120,
      "chip": "ym2612"
    },
    {
      "channel": 2,
      "note": 52,
      "start": 20.3854,
      "duration": 0.0157,
      "velocity": 100,
      "chip": "ym2612"
    },
    {
      "channel": 0,
      "note": 43,
      "start": 20.3977,
      "duration": 0.014,
      "velocity": 115,
      "chip": "ym2612"
    },
    {
      "channel": 4,
      "note": 57,
      "start": 20.3988,
      "duration": 0.0141,
      "velocity": 120,
      "chip": "ym2612"
    },
    {
      "channel": 3,
      "note": 64,
      "start": 20.4,
      "duration": 0.014,
      "velocity": 120,
      "chip": "ym2612"
    },
    {
      "channel": 2,
      "note": 52,
      "start": 20.4011,
      "duration": 0.0141,
      "velocity": 100,
      "chip": "ym2612"
    },
    {
      "channel": 0,
      "note": 44,
      "start": 20.4117,
      "duration": 0.0186,
      "velocity": 115,
      "chip": "ym2612"
    },
    {
      "channel": 4,
      "note": 57,
      "start": 20.4129,
      "duration": 0.0185,
      "velocity": 120,
      "chip": "ym2612"
    },
    {
      "channel": 3,
      "note": 64,
      "start": 20.414,
      "duration": 0.0186,
      "velocity": 120,
      "chip": "ym2612"
    },
    {
      "channel": 2,
      "note": 52,
      "start": 20.4151,
      "duration": 0.0185,
      "velocity": 100,
      "chip": "ym2612"
    },
    {
      "channel": 0,
      "note": 44,
      "start": 20.4303,
      "duration": 0.0134,
      "velocity": 115,
      "chip": "ym2612"
    },
    {
      "channel": 4,
      "note": 57,
      "start": 20.4314,
      "duration": 0.0161,
      "velocity": 120,
      "chip": "ym2612"
    },
    {
      "channel": 3,
      "note": 64,
      "start": 20.4326,
      "duration": 0.0161,
      "velocity": 120,
      "chip": "ym2612"
    },
    {
      "channel": 2,
      "note": 52,
      "start": 20.4337,
      "duration": 0.0162,
      "velocity": 100,
      "chip": "ym2612"
    },
    {
      "channel": 0,
      "note": 44,
      "start": 20.4436,
      "duration": 0.0161,
      "velocity": 115,
      "chip": "ym2612"
    },
    {
      "channel": 4,
      "note": 57,
      "start": 20.4475,
      "duration": 0.0157,
      "velocity": 120,
      "chip": "ym2612"
    },
    {
      "channel": 3,
      "note": 64,
      "start": 20.4487,
      "duration": 0.0157,
      "velocity": 120,
      "chip": "ym2612"
    },
    {
      "channel": 2,
      "note": 52,
      "start": 20.4498,
      "duration": 0.0157,
      "velocity": 100,
      "chip": "ym2612"
    },
    {
      "channel": 0,
      "note": 45,
      "start": 20.4597,
      "duration": 0.0161,
      "velocity": 115,
      "chip": "ym2612"
    },
    {
      "channel": 4,
      "note": 57,
      "start": 20.4632,
      "duration": 0.0137,
      "velocity": 120,
      "chip": "ym2612"
    },
    {
      "channel": 3,
      "note": 64,
      "start": 20.4644,
      "duration": 0.0141,
      "velocity": 120,
      "chip": "ym2612"
    },
    {
      "channel": 2,
      "note": 52,
      "start": 20.4655,
      "duration": 0.0141,
      "velocity": 100,
      "chip": "ym2612"
    },
    {
      "channel": 0,
      "note": 45,
      "start": 20.4758,
      "duration": 0.0161,
      "velocity": 115,
      "chip": "ym2612"
    },
    {
      "channel": 4,
      "note": 57,
      "start": 20.477,
      "duration": 0.0161,
      "velocity": 120,
      "chip": "ym2612"
    },
    {
      "channel": 3,
      "note": 64,
      "start": 20.4784,
      "duration": 0.0185,
      "velocity": 120,
      "chip": "ym2612"
    },
    {
      "channel": 2,
      "note": 52,
      "start": 20.4796,
      "duration": 0.0185,
      "velocity": 100,
      "chip": "ym2612"
    },
    {
      "channel": 0,
      "note": 46,
      "start": 20.4919,
      "duration": 0.0161,
      "velocity": 115,
      "chip": "ym2612"
    },
    {
      "channel": 4,
      "note": 57,
      "start": 20.4931,
      "duration": 0.0161,
      "velocity": 120,
      "chip": "ym2612"
    },
    {
      "channel": 3,
      "note": 64,
      "start": 20.4969,
      "duration": 0.0134,
      "velocity": 120,
      "chip": "ym2612"
    },
    {
      "channel": 2,
      "note": 52,
      "start": 20.4981,
      "duration": 0.0161,
      "velocity": 100,
      "chip": "ym2612"
    },
    {
      "channel": 0,
      "note": 46,
      "start": 20.508,
      "duration": 0.0179,
      "velocity": 124,
      "chip": "ym2612"
    },
    {
      "channel": 4,
      "note": 57,
      "start": 20.5092,
      "duration": 0.0181,
      "velocity": 120,
      "chip": "ym2612"
    },
    {
      "channel": 3,
      "note": 64,
      "start": 20.5103,
      "duration": 0.0207,
      "velocity": 120,
      "chip": "ym2612"
    },
    {
      "channel": 2,
      "note": 52,
      "start": 20.5142,
      "duration": 0.0183,
      "velocity": 100,
      "chip": "ym2612"
    },
    {
      "channel": 0,
      "note": 84,
      "start": 20.5259,
      "duration": 0.0144,
      "velocity": 124,
      "chip": "ym2612"
    },
    {
      "channel": 4,
      "note": 57,
      "start": 20.5297,
      "duration": 0.0118,
      "velocity": 120,
      "chip": "ym2612"
    },
    {
      "channel": 3,
      "note": 64,
      "start": 20.5311,
      "duration": 0.0116,
      "velocity": 120,
      "chip": "ym2612"
    },
    {
      "channel": 2,
      "note": 52,
      "start": 20.5326,
      "duration": 0.0113,
      "velocity": 100,
      "chip": "ym2612"
    },
    {
      "channel": 0,
      "note": 82,
      "start": 20.5403,
      "duration": 0.016,
      "velocity": 124,
      "chip": "ym2612"
    },
    {
      "channel": 4,
      "note": 57,
      "start": 20.5415,
      "duration": 0.016,
      "velocity": 120,
      "chip": "ym2612"
    },
    {
      "channel": 3,
      "note": 64,
      "start": 20.5427,
      "duration": 0.0159,
      "velocity": 120,
      "chip": "ym2612"
    },
    {
      "channel": 2,
      "note": 52,
      "start": 20.5439,
      "duration": 0.0158,
      "velocity": 100,
      "chip": "ym2612"
    },
    {
      "channel": 0,
      "note": 80,
      "start": 20.5563,
      "duration": 0.0161,
      "velocity": 124,
      "chip": "ym2612"
    },
    {
      "channel": 4,
      "note": 57,
      "start": 20.5574,
      "duration": 0.0162,
      "velocity": 120,
      "chip": "ym2612"
    },
    {
      "channel": 3,
      "note": 64,
      "start": 20.5586,
      "duration": 0.0161,
      "velocity": 120,
      "chip": "ym2612"
    },
    {
      "channel": 2,
      "note": 52,
      "start": 20.5597,
      "duration": 0.0161,
      "velocity": 100,
      "chip": "ym2612"
    },
    {
      "channel": 0,
      "note": 77,
      "start": 20.5724,
      "duration": 0.0161,
      "velocity": 124,
      "chip": "ym2612"
    },
    {
      "channel": 4,
      "note": 57,
      "start": 20.5736,
      "duration": 0.0161,
      "velocity": 120,
      "chip": "ym2612"
    },
    {
      "channel": 3,
      "note": 64,
      "start": 20.5747,
      "duration": 0.0161,
      "velocity": 120,
      "chip": "ym2612"
    },
    {
      "channel": 2,
      "note": 52,
      "start": 20.5758,
      "duration": 0.0161,
      "velocity": 100,
      "chip": "ym2612"
    },
    {
      "channel": 0,
      "note": 75,
      "start": 20.5885,
      "duration": 0.0161,
      "velocity": 124,
      "chip": "ym2612"
    },
    {
      "channel": 4,
      "note": 57,
      "start": 20.5897,
      "duration": 0.0161,
      "velocity": 120,
      "chip": "ym2612"
    },
    {
      "channel": 3,
      "note": 64,
      "start": 20.5908,
      "duration": 0.0161,
      "velocity": 120,
      "chip": "ym2612"
    },
    {
      "channel": 2,
      "note": 52,
      "start": 20.5919,
      "duration": 0.0161,
      "velocity": 100,
      "chip": "ym2612"
    },
    {
      "channel": 0,
      "note": 72,
      "start": 20.6046,
      "duration": 0.0161,
      "velocity": 124,
      "chip": "ym2612"
    },
    {
      "channel": 4,
      "note": 57,
      "start": 20.6058,
      "duration": 0.0161,
      "velocity": 120,
      "chip": "ym2612"
    },
    {
      "channel": 3,
      "note": 64,
      "start": 20.6069,
      "duration": 0.0161,
      "velocity": 120,
      "chip": "ym2612"
    },
    {
      "channel": 2,
      "note": 52,
      "start": 20.608,
      "duration": 0.0161,
      "velocity": 100,
      "chip": "ym2612"
    },
    {
      "channel": 0,
      "note": 70,
      "start": 20.6207,
      "duration": 0.0161,
      "velocity": 124,
      "chip": "ym2612"
    },
    {
      "channel": 4,
      "note": 57,
      "start": 20.6219,
      "duration": 0.0161,
      "velocity": 120,
      "chip": "ym2612"
    },
    {
      "channel": 3,
      "note": 64,
      "start": 20.623,
      "duration": 0.0161,
      "velocity": 120,
      "chip": "ym2612"
    },
    {
      "channel": 2,
      "note": 52,
      "start": 20.6241,
      "duration": 0.0161,
      "velocity": 100,
      "chip": "ym2612"
    },
    {
      "channel": 0,
      "note": 68,
      "start": 20.6368,
      "duration": 0.0161,
      "velocity": 124,
      "chip": "ym2612"
    },
    {
      "channel": 4,
      "note": 57,
      "start": 20.638,
      "duration": 0.0161,
      "velocity": 120,
      "chip": "ym2612"
    },
    {
      "channel": 3,
      "note": 64,
      "start": 20.6391,
      "duration": 0.0161,
      "velocity": 120,
      "chip": "ym2612"
    },
    {
      "channel": 2,
      "note": 52,
      "start": 20.6402,
      "duration": 0.0161,
      "velocity": 100,
      "chip": "ym2612"
    },
    {
      "channel": 0,
      "note": 65,
      "start": 20.6529,
      "duration": 0.0161,
      "velocity": 124,
      "chip": "ym2612"
    },
    {
      "channel": 4,
      "note": 57,
      "start": 20.6541,
      "duration": 0.0161,
      "velocity": 120,
      "chip": "ym2612"
    },
    {
      "channel": 3,
      "note": 64,
      "start": 20.6552,
      "duration": 0.0161,
      "velocity": 120,
      "chip": "ym2612"
    },
    {
      "channel": 2,
      "note": 52,
      "start": 20.6563,
      "duration": 0.0161,
      "velocity": 100,
      "chip": "ym2612"
    },
    {
      "channel": 0,
      "note": 63,
      "start": 20.669,
      "duration": 0.0153,
      "velocity": 1,
      "chip": "ym2612"
    },
    {
      "channel": 4,
      "note": 57,
      "start": 20.6702,
      "duration": 0.0153,
      "velocity": 120,
      "chip": "ym2612"
    },
    {
      "channel": 3,
      "note": 64,
      "start": 20.6713,
      "duration": 0.0153,
      "velocity": 120,
      "chip": "ym2612"
    },
    {
      "channel": 2,
      "note": 52,
      "start": 20.6724,
      "duration": 0.0153,
      "velocity": 100,
      "chip": "ym2612"
    },
    {
      "channel": 4,
      "note": 57,
      "start": 20.6855,
      "duration": 0.0153,
      "velocity": 120,
      "chip": "ym2612"
    },
    {
      "channel": 3,
      "note": 64,
      "start": 20.6866,
      "duration": 0.0152,
      "velocity": 120,
      "chip": "ym2612"
    },
    {
      "channel": 2,
      "note": 52,
      "start": 20.6877,
      "duration": 0.0153,
      "velocity": 100,
      "chip": "ym2612"
    },
    {
      "channel": 4,
      "note": 57,
      "start": 20.7008,
      "duration": 0.0197,
      "velocity": 120,
      "chip": "ym2612"
    },
    {
      "channel": 3,
      "note": 64,
      "start": 20.7018,
      "duration": 0.02,
      "velocity": 120,
      "chip": "ym2612"
    },
    {
      "channel": 2,
      "note": 52,
      "start": 20.703,
      "duration": 0.0203,
      "velocity": 100,
      "chip": "ym2612"
    },
    {
      "channel": 0,
      "note": 36,
      "start": 20.7191,
      "duration": 0.0143,
      "velocity": 115,
      "chip": "ym2612"
    },
    {
      "channel": 4,
      "note": 55,
      "start": 20.7205,
      "duration": 0.0142,
      "velocity": 120,
      "chip": "ym2612"
    },
    {
      "channel": 3,
      "note": 62,
      "start": 20.722,
      "duration": 0.0139,
      "velocity": 120,
      "chip": "ym2612"
    },
    {
      "channel": 2,
      "note": 52,
      "start": 20.7234,
      "duration": 0.0137,
      "velocity": 100,
      "chip": "ym2612"
    },
    {
      "channel": 0,
      "note": 36,
      "start": 20.7335,
      "duration": 0.0161,
      "velocity": 115,
      "chip": "ym2612"
    },
    {
      "channel": 4,
      "note": 55,
      "start": 20.7347,
      "duration": 0.016,
      "velocity": 120,
      "chip": "ym2612"
    },
    {
      "channel": 3,
      "note": 62,
      "start": 20.7359,
      "duration": 0.016,
      "velocity": 120,
      "chip": "ym2612"
    },
    {
      "channel": 2,
      "note": 52,
      "start": 20.7371,
      "duration": 0.0159,
      "velocity": 100,
      "chip": "ym2612"
    },
    {
      "channel": 0,
      "note": 37,
      "start": 20.7495,
      "duration": 0.0161,
      "velocity": 115,
      "chip": "ym2612"
    },
    {
      "channel": 4,
      "note": 55,
      "start": 20.7507,
      "duration": 0.0161,
      "velocity": 120,
      "chip": "ym2612"
    },
    {
      "channel": 3,
      "note": 62,
      "start": 20.7518,
      "duration": 0.0161,
      "velocity": 120,
      "chip": "ym2612"
    },
    {
      "channel": 2,
      "note": 52,
      "start": 20.7529,
      "duration": 0.0161,
      "velocity": 100,
      "chip": "ym2612"
    },
    {
      "channel": 0,
      "note": 37,
      "start": 20.7656,
      "duration": 0.0164,
      "velocity": 115,
      "chip": "ym2612"
    },
    {
      "channel": 4,
      "note": 55,
      "start": 20.7668,
      "duration": 0.0164,
      "velocity": 120,
      "chip": "ym2612"
    },
    {
      "channel": 3,
      "note": 62,
      "start": 20.7679,
      "duration": 0.0164,
      "velocity": 120,
      "chip": "ym2612"
    },
    {
      "channel": 2,
      "note": 52,
      "start": 20.769,
      "duration": 0.0164,
      "velocity": 100,
      "chip": "ym2612"
    },
    {
      "channel": 0,
      "note": 38,
      "start": 20.7821,
      "duration": 0.0163,
      "velocity": 115,
      "chip": "ym2612"
    },
    {
      "channel": 4,
      "note": 55,
      "start": 20.7832,
      "duration": 0.0163,
      "velocity": 120,
      "chip": "ym2612"
    },
    {
      "channel": 3,
      "note": 62,
      "start": 20.7844,
      "duration": 0.0163,
      "velocity": 120,
      "chip": "ym2612"
    },
    {
      "channel": 2,
      "note": 52,
      "start": 20.7854,
      "duration": 0.0163,
      "velocity": 100,
      "chip": "ym2612"
    },
    {
      "channel": 0,
      "note": 38,
      "start": 20.7983,
      "duration": 0.0156,
      "velocity": 115,
      "chip": "ym2612"
    },
    {
      "channel": 4,
      "note": 55,
      "start": 20.7995,
      "duration": 0.0156,
      "velocity": 120,
      "chip": "ym2612"
    },
    {
      "channel": 3,
      "note": 62,
      "start": 20.8006,
      "duration": 0.0156,
      "velocity": 120,
      "chip": "ym2612"
    },
    {
      "channel": 2,
      "note": 52,
      "start": 20.8018,
      "duration": 0.0156,
      "velocity": 100,
      "chip": "ym2612"
    },
    {
      "channel": 0,
      "note": 39,
      "start": 20.8139,
      "duration": 0.0181,
      "velocity": 115,
      "chip": "ym2612"
    },
    {
      "channel": 4,
      "note": 55,
      "start": 20.8151,
      "duration": 0.0181,
      "velocity": 120,
      "chip": "ym2612"
    },
    {
      "channel": 3,
      "note": 62,
      "start": 20.8162,
      "duration": 0.0181,
      "velocity": 120,
      "chip": "ym2612"
    },
    {
      "channel": 2,
      "note": 52,
      "start": 20.8174,
      "duration": 0.0181,
      "velocity": 100,
      "chip": "ym2612"
    },
    {
      "channel": 0,
      "note": 39,
      "start": 20.832,
      "duration": 0.0167,
      "velocity": 115,
      "chip": "ym2612"
    },
    {
      "channel": 4,
      "note": 55,
      "start": 20.8332,
      "duration": 0.0167,
      "velocity": 120,
      "chip": "ym2612"
    },
    {
      "channel": 3,
      "note": 62,
      "start": 20.8343,
      "duration": 0.0167,
      "velocity": 120,
      "chip": "ym2612"
    },
    {
      "channel": 2,
      "note": 52,
      "start": 20.8354,
      "duration": 0.0167,
      "velocity": 100,
      "chip": "ym2612"
    },
    {
      "channel": 0,
      "note": 40,
      "start": 20.8487,
      "duration": 0.0159,
      "velocity": 115,
      "chip": "ym2612"
    },
    {
      "channel": 4,
      "note": 55,
      "start": 20.8499,
      "duration": 0.0159,
      "velocity": 120,
      "chip": "ym2612"
    },
    {
      "channel": 3,
      "note": 62,
      "start": 20.851,
      "duration": 0.0159,
      "velocity": 120,
      "chip": "ym2612"
    },
    {
      "channel": 2,
      "note": 52,
      "start": 20.8521,
      "duration": 0.016,
      "velocity": 100,
      "chip": "ym2612"
    },
    {
      "channel": 0,
      "note": 40,
      "start": 20.8646,
      "duration": 0.0141,
      "velocity": 115,
      "chip": "ym2612"
    },
    {
      "channel": 4,
      "note": 55,
      "start": 20.8658,
      "duration": 0.0141,
      "velocity": 120,
      "chip": "ym2612"
    },
    {
      "channel": 3,
      "note": 62,
      "start": 20.8669,
      "duration": 0.0141,
      "velocity": 120,
      "chip": "ym2612"
    },
    {
      "channel": 2,
      "note": 52,
      "start": 20.8681,
      "duration": 0.014,
      "velocity": 100,
      "chip": "ym2612"
    },
    {
      "channel": 0,
      "note": 40,
      "start": 20.8787,
      "duration": 0.0185,
      "velocity": 115,
      "chip": "ym2612"
    },
    {
      "channel": 4,
      "note": 55,
      "start": 20.8798,
      "duration": 0.0185,
      "velocity": 120,
      "chip": "ym2612"
    },
    {
      "channel": 3,
      "note": 62,
      "start": 20.881,
      "duration": 0.0185,
      "velocity": 120,
      "chip": "ym2612"
    },
    {
      "channel": 2,
      "note": 52,
      "start": 20.8821,
      "duration": 0.0186,
      "velocity": 100,
      "chip": "ym2612"
    },
    {
      "channel": 0,
      "note": 41,
      "start": 20.8972,
      "duration": 0.0179,
      "velocity": 115,
      "chip": "ym2612"
    },
    {
      "channel": 4,
      "note": 55,
      "start": 20.8983,
      "duration": 0.0181,
      "velocity": 120,
      "chip": "ym2612"
    },
    {
      "channel": 3,
      "note": 62,
      "start": 20.8995,
      "duration": 0.0184,
      "velocity": 120,
      "chip": "ym2612"
    },
    {
      "channel": 2,
      "note": 52,
      "start": 20.9006,
      "duration": 0.0187,
      "velocity": 100,
      "chip": "ym2612"
    },
    {
      "channel": 0,
      "note": 36,
      "start": 20.9151,
      "duration": 0.0116,
      "velocity": 115,
      "chip": "ym2612"
    },
    {
      "channel": 4,
      "note": 55,
      "start": 20.9165,
      "duration": 0.0137,
      "velocity": 120,
      "chip": "ym2612"
    },
    {
      "channel": 3,
      "note": 62,
      "start": 20.9179,
      "duration": 0.0136,
      "velocity": 120,
      "chip": "ym2612"
    },
    {
      "channel": 2,
      "note": 52,
      "start": 20.9193,
      "duration": 0.0134,
      "velocity": 100,
      "chip": "ym2612"
    },
    {
      "channel": 0,
      "note": 36,
      "start": 20.9267,
      "duration": 0.016,
      "velocity": 115,
      "chip": "ym2612"
    },
    {
      "channel": 4,
      "note": 55,
      "start": 20.9303,
      "duration": 0.0136,
      "velocity": 120,
      "chip": "ym2612"
    },
    {
      "channel": 3,
      "note": 62,
      "start": 20.9315,
      "duration": 0.0139,
      "velocity": 120,
      "chip": "ym2612"
    },
    {
      "channel": 2,
      "note": 52,
      "start": 20.9327,
      "duration": 0.0138,
      "velocity": 100,
      "chip": "ym2612"
    },
    {
      "channel": 0,
      "note": 37,
      "start": 20.9427,
      "duration": 0.0161,
      "velocity": 115,
      "chip": "ym2612"
    },
    {
      "channel": 4,
      "note": 55,
      "start": 20.9439,
      "duration": 0.0161,
      "velocity": 120,
      "chip": "ym2612"
    },
    {
      "channel": 3,
      "note": 62,
      "start": 20.9454,
      "duration": 0.0185,
      "velocity": 120,
      "chip": "ym2612"
    },
    {
      "channel": 2,
      "note": 52,
      "start": 20.9465,
      "duration": 0.0185,
      "velocity": 100,
      "chip": "ym2612"
    },
    {
      "channel": 0,
      "note": 37,
      "start": 20.9588,
      "duration": 0.0161,
      "velocity": 115,
      "chip": "ym2612"
    },
    {
      "channel": 4,
      "note": 55,
      "start": 20.96,
      "duration": 0.0161,
      "velocity": 120,
      "chip": "ym2612"
    },
    {
      "channel": 3,
      "note": 62,
      "start": 20.9639,
      "duration": 0.0134,
      "velocity": 120,
      "chip": "ym2612"
    },
    {
      "channel": 2,
      "note": 52,
      "start": 20.965,
      "duration": 0.0161,
      "velocity": 100,
      "chip": "ym2612"
    },
    {
      "channel": 0,
      "note": 38,
      "start": 20.9749,
      "duration": 0.0161,
      "velocity": 115,
      "chip": "ym2612"
    },
    {
      "channel": 4,
      "note": 55,
      "start": 20.9761,
      "duration": 0.0161,
      "velocity": 120,
      "chip": "ym2612"
    },
    {
      "channel": 3,
      "note": 62,
      "start": 20.9772,
      "duration": 0.0161,
      "velocity": 120,
      "chip": "ym2612"
    },
    {
      "channel": 2,
      "note": 52,
      "start": 20.9811,
      "duration": 0.0158,
      "velocity": 100,
      "chip": "ym2612"
    },
    {
      "channel": 0,
      "note": 38,
      "start": 20.991,
      "duration": 0.0161,
      "velocity": 115,
      "chip": "ym2612"
    },
    {
      "channel": 4,
      "note": 55,
      "start": 20.9922,
      "duration": 0.0161,
      "velocity": 120,
      "chip": "ym2612"
    },
    {
      "channel": 3,
      "note": 62,
      "start": 20.9933,
      "duration": 0.0161,
      "velocity": 120,
      "chip": "ym2612"
    },
    {
      "channel": 2,
      "note": 52,
      "start": 20.9969,
      "duration": 0.0137,
      "velocity": 100,
      "chip": "ym2612"
    },
    {
      "channel": 0,
      "note": 39,
      "start": 21.0071,
      "duration": 0.0162,
      "velocity": 115,
      "chip": "ym2612"
    },
    {
      "channel": 4,
      "note": 55,
      "start": 21.0083,
      "duration": 0.0161,
      "velocity": 120,
      "chip": "ym2612"
    },
    {
      "channel": 3,
      "note": 62,
      "start": 21.0094,
      "duration": 0.0162,
      "velocity": 120,
      "chip": "ym2612"
    },
    {
      "channel": 2,
      "note": 52,
      "start": 21.0106,
      "duration": 0.0161,
      "velocity": 100,
      "chip": "ym2612"
    },
    {
      "channel": 0,
      "note": 39,
      "start": 21.0233,
      "duration": 0.0161,
      "velocity": 115,
      "chip": "ym2612"
    },
    {
      "channel": 4,
      "note": 55,
      "start": 21.0244,
      "duration": 0.0161,
      "velocity": 120,
      "chip": "ym2612"
    },
    {
      "channel": 3,
      "note": 62,
      "start": 21.0256,
      "duration": 0.0161,
      "velocity": 120,
      "chip": "ym2612"
    },
    {
      "channel": 2,
      "note": 52,
      "start": 21.0266,
      "duration": 0.0161,
      "velocity": 100,
      "chip": "ym2612"
    },
    {
      "channel": 0,
      "note": 40,
      "start": 21.0394,
      "duration": 0.0161,
      "velocity": 115,
      "chip": "ym2612"
    },
    {
      "channel": 4,
      "note": 55,
      "start": 21.0405,
      "duration": 0.0161,
      "velocity": 120,
      "chip": "ym2612"
    },
    {
      "channel": 3,
      "note": 62,
      "start": 21.0417,
      "duration": 0.0161,
      "velocity": 120,
      "chip": "ym2612"
    },
    {
      "channel": 2,
      "note": 52,
      "start": 21.0427,
      "duration": 0.0162,
      "velocity": 100,
      "chip": "ym2612"
    },
    {
      "channel": 0,
      "note": 40,
      "start": 21.0555,
      "duration": 0.0161,
      "velocity": 115,
      "chip": "ym2612"
    },
    {
      "channel": 4,
      "note": 55,
      "start": 21.0566,
      "duration": 0.0161,
      "velocity": 120,
      "chip": "ym2612"
    },
    {
      "channel": 3,
      "note": 62,
      "start": 21.0578,
      "duration": 0.0161,
      "velocity": 120,
      "chip": "ym2612"
    },
    {
      "channel": 2,
      "note": 52,
      "start": 21.0589,
      "duration": 0.0161,
      "velocity": 100,
      "chip": "ym2612"
    },
    {
      "channel": 0,
      "note": 40,
      "start": 21.0716,
      "duration": 0.0161,
      "velocity": 115,
      "chip": "ym2612"
    },
    {
      "channel": 4,
      "note": 55,
      "start": 21.0727,
      "duration": 0.0161,
      "velocity": 120,
      "chip": "ym2612"
    },
    {
      "channel": 3,
      "note": 62,
      "start": 21.0739,
      "duration": 0.0161,
      "velocity": 120,
      "chip": "ym2612"
    },
    {
      "channel": 2,
      "note": 52,
      "start": 21.075,
      "duration": 0.0161,
      "velocity": 100,
      "chip": "ym2612"
    },
    {
      "channel": 0,
      "note": 41,
      "start": 21.0877,
      "duration": 0.0179,
      "velocity": 115,
      "chip": "ym2612"
    },
    {
      "channel": 4,
      "note": 55,
      "start": 21.0888,
      "duration": 0.0181,
      "velocity": 120,
      "chip": "ym2612"
    },
    {
      "channel": 3,
      "note": 62,
      "start": 21.09,
      "duration": 0.0184,
      "velocity": 120,
      "chip": "ym2612"
    },
    {
      "channel": 2,
      "note": 52,
      "start": 21.0911,
      "duration": 0.0187,
      "velocity": 100,
      "chip": "ym2612"
    },
    {
      "channel": 0,
      "note": 36,
      "start": 21.1055,
      "duration": 0.0144,
      "velocity": 115,
      "chip": "ym2612"
    },
    {
      "channel": 4,
      "note": 54,
      "start": 21.107,
      "duration": 0.0141,
      "velocity": 120,
      "chip": "ym2612"
    },
    {
      "channel": 3,
      "note": 61,
      "start": 21.1083,
      "duration": 0.014,
      "velocity": 120,
      "chip": "ym2612"
    },
    {
      "channel": 2,
      "note": 52,
      "start": 21.1098,
      "duration": 0.0137,
      "velocity": 100,
      "chip": "ym2612"
    },
    {
      "channel": 0,
      "note": 36,
      "start": 21.1199,
      "duration": 0.016,
      "velocity": 115,
      "chip": "ym2612"
    },
    {
      "channel": 4,
      "note": 54,
      "start": 21.1211,
      "duration": 0.016,
      "velocity": 120,
      "chip": "ym2612"
    },
    {
      "channel": 3,
      "note": 61,
      "start": 21.1223,
      "duration": 0.0159,
      "velocity": 120,
      "chip": "ym2612"
    },
    {
      "channel": 2,
      "note": 52,
      "start": 21.1235,
      "duration": 0.0158,
      "velocity": 100,
      "chip": "ym2612"
    },
    {
      "channel": 0,
      "note": 37,
      "start": 21.1359,
      "duration": 0.0161,
      "velocity": 115,
      "chip": "ym2612"
    },
    {
      "channel": 4,
      "note": 54,
      "start": 21.1371,
      "duration": 0.0162,
      "velocity": 120,
      "chip": "ym2612"
    },
    {
      "channel": 3,
      "note": 61,
      "start": 21.1382,
      "duration": 0.0161,
      "velocity": 120,
      "chip": "ym2612"
    },
    {
      "channel": 2,
      "note": 52,
      "start": 21.1394,
      "duration": 0.0161,
      "velocity": 100,
      "chip": "ym2612"
    },
    {
      "channel": 0,
      "note": 37,
      "start": 21.152,
      "duration": 0.0161,
      "velocity": 115,
      "chip": "ym2612"
    },
    {
      "channel": 4,
      "note": 54,
      "start": 21.1532,
      "duration": 0.0161,
      "velocity": 120,
      "chip": "ym2612"
    },
    {
      "channel": 3,
      "note": 61,
      "start": 21.1543,
      "duration": 0.0161,
      "velocity": 120,
      "chip": "ym2612"
    },
    {
      "channel": 2,
      "note": 52,
      "start": 21.1555,
      "duration": 0.0161,
      "velocity": 100,
      "chip": "ym2612"
    },
    {
      "channel": 0,
      "note": 38,
      "start": 21.1682,
      "duration": 0.0161,
      "velocity": 115,
      "chip": "ym2612"
    },
    {
      "channel": 4,
      "note": 54,
      "start": 21.1693,
      "duration": 0.0161,
      "velocity": 120,
      "chip": "ym2612"
    },
    {
      "channel": 3,
      "note": 61,
      "start": 21.1705,
      "duration": 0.0161,
      "velocity": 120,
      "chip": "ym2612"
    },
    {
      "channel": 2,
      "note": 52,
      "start": 21.1716,
      "duration": 0.0161,
      "velocity": 100,
      "chip": "ym2612"
    },
    {
      "channel": 0,
      "note": 38,
      "start": 21.1843,
      "duration": 0.0161,
      "velocity": 115,
      "chip": "ym2612"
    },
    {
      "channel": 4,
      "note": 54,
      "start": 21.1854,
      "duration": 0.0161,
      "velocity": 120,
      "chip": "ym2612"
    },
    {
      "channel": 3,
      "note": 61,
      "start": 21.1866,
      "duration": 0.0161,
      "velocity": 120,
      "chip": "ym2612"
    },
    {
      "channel": 2,
      "note": 52,
      "start": 21.1877,
      "duration": 0.0161,
      "velocity": 100,
      "chip": "ym2612"
    },
    {
      "channel": 0,
      "note": 39,
      "start": 21.2004,
      "duration": 0.0161,
      "velocity": 115,
      "chip": "ym2612"
    },
    {
      "channel": 4,
      "note": 54,
      "start": 21.2015,
      "duration": 0.0161,
      "velocity": 120,
      "chip": "ym2612"
    },
    {
      "channel": 3,
      "note": 61,
      "start": 21.2027,
      "duration": 0.0161,
      "velocity": 120,
      "chip": "ym2612"
    },
    {
      "channel": 2,
      "note": 52,
      "start": 21.2037,
      "duration": 0.0162,
      "velocity": 100,
      "chip": "ym2612"
    },
    {
      "channel": 0,
      "note": 39,
      "start": 21.2165,
      "duration": 0.0161,
      "velocity": 115,
      "chip": "ym2612"
    },
    {
      "channel": 4,
      "note": 54,
      "start": 21.2176,
      "duration": 0.0161,
      "velocity": 120,
      "chip": "ym2612"
    },
    {
      "channel": 3,
      "note": 61,
      "start": 21.2188,
      "duration": 0.0161,
      "velocity": 120,
      "chip": "ym2612"
    },
    {
      "channel": 2,
      "note": 52,
      "start": 21.2199,
      "duration": 0.0161,
      "velocity": 100,
      "chip": "ym2612"
    },
    {
      "channel": 0,
      "note": 40,
      "start": 21.2326,
      "duration": 0.0162,
      "velocity": 115,
      "chip": "ym2612"
    },
    {
      "channel": 4,
      "note": 54,
      "start": 21.2337,
      "duration": 0.0161,
      "velocity": 120,
      "chip": "ym2612"
    },
    {
      "channel": 3,
      "note": 61,
      "start": 21.2349,
      "duration": 0.0162,
      "velocity": 120,
      "chip": "ym2612"
    },
    {
      "channel": 2,
      "note": 52,
      "start": 21.236,
      "duration": 0.0161,
      "velocity": 100,
      "chip": "ym2612"
    },
    {
      "channel": 0,
      "note": 40,
      "start": 21.2487,
      "duration": 0.0163,
      "velocity": 115,
      "chip": "ym2612"
    },
    {
      "channel": 4,
      "note": 54,
      "start": 21.2499,
      "duration": 0.0163,
      "velocity": 120,
      "chip": "ym2612"
    },
    {
      "channel": 3,
      "note": 61,
      "start": 21.251,
      "duration": 0.0163,
      "velocity": 120,
      "chip": "ym2612"
    },
    {
      "channel": 2,
      "note": 52,
      "start": 21.2521,
      "duration": 0.0163,
      "velocity": 100,
      "chip": "ym2612"
    },
    {
      "channel": 0,
      "note": 40,
      "start": 21.265,
      "duration": 0.0159,
      "velocity": 115,
      "chip": "ym2612"
    },
    {
      "channel": 4,
      "note": 54,
      "start": 21.2661,
      "duration": 0.0159,
      "velocity": 120,
      "chip": "ym2612"
    },
    {
      "channel": 3,
      "note": 61,
      "start": 21.2673,
      "duration": 0.0159,
      "velocity": 120,
      "chip": "ym2612"
    },
    {
      "channel": 2,
      "note": 52,
      "start": 21.2684,
      "duration": 0.0159,
      "velocity": 100,
      "chip": "ym2612"
    },
    {
      "channel": 0,
      "note": 41,
      "start": 21.2809,
      "duration": 0.0196,
      "velocity": 124,
      "chip": "ym2612"
    },
    {
      "channel": 4,
      "note": 54,
      "start": 21.282,
      "duration": 0.0198,
      "velocity": 120,
      "chip": "ym2612"
    },
    {
      "channel": 3,
      "note": 61,
      "start": 21.2832,
      "duration": 0.0201,
      "velocity": 120,
      "chip": "ym2612"
    },
    {
      "channel": 2,
      "note": 52,
      "start": 21.2843,
      "duration": 0.0204,
      "velocity": 100,
      "chip": "ym2612"
    },
    {
      "channel": 0,
      "note": 84,
      "start": 21.3005,
      "duration": 0.015,
      "velocity": 124,
      "chip": "ym2612"
    },
    {
      "channel": 4,
      "note": 54,
      "start": 21.3019,
      "duration": 0.0148,
      "velocity": 120,
      "chip": "ym2612"
    },
    {
      "channel": 3,
      "note": 61,
      "start": 21.3033,
      "duration": 0.0145,
      "velocity": 120,
      "chip": "ym2612"
    },
    {
      "channel": 2,
      "note": 52,
      "start": 21.3048,
      "duration": 0.0143,
      "velocity": 100,
      "chip": "ym2612"
    },
    {
      "channel": 0,
      "note": 82,
      "start": 21.3155,
      "duration": 0.0161,
      "velocity": 124,
      "chip": "ym2612"
    },
    {
      "channel": 4,
      "note": 54,
      "start": 21.3167,
      "duration": 0.0161,
      "velocity": 120,
      "chip": "ym2612"
    },
    {
      "channel": 3,
      "note": 61,
      "start": 21.3178,
      "duration": 0.016,
      "velocity": 120,
      "chip": "ym2612"
    },
    {
      "channel": 2,
      "note": 52,
      "start": 21.319,
      "duration": 0.016,
      "velocity": 100,
      "chip": "ym2612"
    },
    {
      "channel": 0,
      "note": 80,
      "start": 21.3315,
      "duration": 0.0141,
      "velocity": 124,
      "chip": "ym2612"
    },
    {
      "channel": 4,
      "note": 54,
      "start": 21.3328,
      "duration": 0.014,
      "velocity": 120,
      "chip": "ym2612"
    },
    {
      "channel": 3,
      "note": 61,
      "start": 21.3338,
      "duration": 0.0141,
      "velocity": 120,
      "chip": "ym2612"
    },
    {
      "channel": 2,
      "note": 52,
      "start": 21.335,
      "duration": 0.014,
      "velocity": 100,
      "chip": "ym2612"
    },
    {
      "channel": 0,
      "note": 77,
      "start": 21.3456,
      "duration": 0.0185,
      "velocity": 124,
      "chip": "ym2612"
    },
    {
      "channel": 4,
      "note": 54,
      "start": 21.3468,
      "duration": 0.0185,
      "velocity": 120,
      "chip": "ym2612"
    },
    {
      "channel": 3,
      "note": 61,
      "start": 21.3479,
      "duration": 0.0185,
      "velocity": 120,
      "chip": "ym2612"
    },
    {
      "channel": 2,
      "note": 52,
      "start": 21.349,
      "duration": 0.0186,
      "velocity": 100,
      "chip": "ym2612"
    },
    {
      "channel": 0,
      "note": 75,
      "start": 21.3641,
      "duration": 0.0161,
      "velocity": 124,
      "chip": "ym2612"
    },
    {
      "channel": 4,
      "note": 54,
      "start": 21.3653,
      "duration": 0.0161,
      "velocity": 120,
      "chip": "ym2612"
    },
    {
      "channel": 3,
      "note": 61,
      "start": 21.3664,
      "duration": 0.0161,
      "velocity": 120,
      "chip": "ym2612"
    },
    {
      "channel": 2,
      "note": 52,
      "start": 21.3676,
      "duration": 0.0161,
      "velocity": 100,
      "chip": "ym2612"
    },
    {
      "channel": 0,
      "note": 72,
      "start": 21.3802,
      "duration": 0.0134,
      "velocity": 124,
      "chip": "ym2612"
    },
    {
      "channel": 4,
      "note": 54,
      "start": 21.3814,
      "duration": 0.0158,
      "velocity": 120,
      "chip": "ym2612"
    },
    {
      "channel": 3,
      "note": 61,
      "start": 21.3825,
      "duration": 0.0158,
      "velocity": 120,
      "chip": "ym2612"
    },
    {
      "channel": 2,
      "note": 52,
      "start": 21.3837,
      "duration": 0.0157,
      "velocity": 100,
      "chip": "ym2612"
    },
    {
      "channel": 0,
      "note": 70,
      "start": 21.3936,
      "duration": 0.0161,
      "velocity": 124,
      "chip": "ym2612"
    },
    {
      "channel": 4,
      "note": 54,
      "start": 21.3971,
      "duration": 0.014,
      "velocity": 120,
      "chip": "ym2612"
    },
    {
      "channel": 3,
      "note": 61,
      "start": 21.3983,
      "duration": 0.014,
      "velocity": 120,
      "chip": "ym2612"
    },
    {
      "channel": 2,
      "note": 52,
      "start": 21.3994,
      "duration": 0.0141,
      "velocity": 100,
      "chip": "ym2612"
    },
    {
      "channel": 0,
      "note": 68,
      "start": 21.4097,
      "duration": 0.0161,
      "velocity": 124,
      "chip": "ym2612"
    },
    {
      "channel": 4,
      "note": 54,
      "start": 21.4111,
      "duration": 0.0158,
      "velocity": 120,
      "chip": "ym2612"
    },
    {
      "channel": 3,
      "note": 61,
      "start": 21.4123,
      "duration": 0.0186,
      "velocity": 120,
      "chip": "ym2612"
    },
    {
      "channel": 2,
      "note": 52,
      "start": 21.4134,
      "duration": 0.0185,
      "velocity": 100,
      "chip": "ym2612"
    },
    {
      "channel": 0,
      "note": 65,
      "start": 21.4258,
      "duration": 0.0161,
      "velocity": 124,
      "chip": "ym2612"
    },
    {
      "channel": 4,
      "note": 54,
      "start": 21.427,
      "duration": 0.0161,
      "velocity": 120,
      "chip": "ym2612"
    },
    {
      "channel": 3,
      "note": 61,
      "start": 21.4309,
      "duration": 0.0161,
      "velocity": 120,
      "chip": "ym2612"
    },
    {
      "channel": 2,
      "note": 52,
      "start": 21.4319,
      "duration": 0.0161,
      "velocity": 100,
      "chip": "ym2612"
    },
    {
      "channel": 0,
      "note": 63,
      "start": 21.4419,
      "duration": 0.0153,
      "velocity": 1,
      "chip": "ym2612"
    },
    {
      "channel": 4,
      "note": 54,
      "start": 21.4431,
      "duration": 0.0153,
      "velocity": 120,
      "chip": "ym2612"
    },
    {
      "channel": 3,
      "note": 61,
      "start": 21.4469,
      "duration": 0.0125,
      "velocity": 120,
      "chip": "ym2612"
    },
    {
      "channel": 2,
      "note": 52,
      "start": 21.448,
      "duration": 0.0126,
      "velocity": 100,
      "chip": "ym2612"
    },
    {
      "channel": 4,
      "note": 54,
      "start": 21.4583,
      "duration": 0.0153,
      "velocity": 120,
      "chip": "ym2612"
    },
    {
      "channel": 3,
      "note": 61,
      "start": 21.4595,
      "duration": 0.0153,
      "velocity": 120,
      "chip": "ym2612"
    },
    {
      "channel": 2,
      "note": 52,
      "start": 21.4606,
      "duration": 0.0152,
      "velocity": 100,
      "chip": "ym2612"
    },
    {
      "channel": 4,
      "note": 54,
      "start": 21.4736,
      "duration": 0.0163,
      "velocity": 120,
      "chip": "ym2612"
    },
    {
      "channel": 3,
      "note": 61,
      "start": 21.4747,
      "duration": 0.0166,
      "velocity": 120,
      "chip": "ym2612"
    },
    {
      "channel": 2,
      "note": 52,
      "start": 21.4758,
      "duration": 0.0169,
      "velocity": 100,
      "chip": "ym2612"
    },
    {
      "channel": 4,
      "note": 52,
      "start": 21.49,
      "duration": 0.0159,
      "velocity": 120,
      "chip": "ym2612"
    },
    {
      "channel": 3,
      "note": 59,
      "start": 21.4913,
      "duration": 0.0157,
      "velocity": 120,
      "chip": "ym2612"
    },
    {
      "channel": 2,
      "note": 52,
      "start": 21.4928,
      "duration": 0.0154,
      "velocity": 100,
      "chip": "ym2612"
    },
    {
      "channel": 4,
      "note": 52,
      "start": 21.5059,
      "duration": 0.016,
      "velocity": 120,
      "chip": "ym2612"
    },
    {
      "channel": 3,
      "note": 59,
      "start": 21.5071,
      "duration": 0.016,
      "velocity": 120,
      "chip": "ym2612"
    },
    {
      "channel": 2,
      "note": 52,
      "start": 21.5082,
      "duration": 0.016,
      "velocity": 100,
      "chip": "ym2612"
    },
    {
      "channel": 4,
      "note": 52,
      "start": 21.5219,
      "duration": 0.0161,
      "velocity": 120,
      "chip": "ym2612"
    },
    {
      "channel": 3,
      "note": 59,
      "start": 21.523,
      "duration": 0.0161,
      "velocity": 120,
      "chip": "ym2612"
    },
    {
      "channel": 2,
      "note": 52,
      "start": 21.5242,
      "duration": 0.0161,
      "velocity": 100,
      "chip": "ym2612"
    },
    {
      "channel": 4,
      "note": 52,
      "start": 21.538,
      "duration": 0.0161,
      "velocity": 120,
      "chip": "ym2612"
    },
    {
      "channel": 3,
      "note": 59,
      "start": 21.5391,
      "duration": 0.0161,
      "velocity": 120,
      "chip": "ym2612"
    },
    {
      "channel": 2,
      "note": 52,
      "start": 21.5403,
      "duration": 0.0161,
      "velocity": 100,
      "chip": "ym2612"
    },
    {
      "channel": 4,
      "note": 52,
      "start": 21.5541,
      "duration": 0.0162,
      "velocity": 120,
      "chip": "ym2612"
    },
    {
      "channel": 3,
      "note": 59,
      "start": 21.5552,
      "duration": 0.0161,
      "velocity": 120,
      "chip": "ym2612"
    },
    {
      "channel": 2,
      "note": 52,
      "start": 21.5563,
      "duration": 0.0161,
      "velocity": 100,
      "chip": "ym2612"
    },
    {
      "channel": 4,
      "note": 52,
      "start": 21.5702,
      "duration": 0.0161,
      "velocity": 120,
      "chip": "ym2612"
    },
    {
      "channel": 3,
      "note": 59,
      "start": 21.5713,
      "duration": 0.0161,
      "velocity": 120,
      "chip": "ym2612"
    },
    {
      "channel": 2,
      "note": 52,
      "start": 21.5724,
      "duration": 0.0161,
      "velocity": 100,
      "chip": "ym2612"
    },
    {
      "channel": 4,
      "note": 52,
      "start": 21.5863,
      "duration": 0.0161,
      "velocity": 120,
      "chip": "ym2612"
    },
    {
      "channel": 3,
      "note": 59,
      "start": 21.5874,
      "duration": 0.0161,
      "velocity": 120,
      "chip": "ym2612"
    },
    {
      "channel": 2,
      "note": 52,
      "start": 21.5885,
      "duration": 0.0161,
      "velocity": 100,
      "chip": "ym2612"
    },
    {
      "channel": 4,
      "note": 52,
      "start": 21.6024,
      "duration": 0.0161,
      "velocity": 120,
      "chip": "ym2612"
    },
    {
      "channel": 3,
      "note": 59,
      "start": 21.6035,
      "duration": 0.0162,
      "velocity": 120,
      "chip": "ym2612"
    },
    {
      "channel": 2,
      "note": 52,
      "start": 21.6046,
      "duration": 0.0161,
      "velocity": 100,
      "chip": "ym2612"
    },
    {
      "channel": 4,
      "note": 52,
      "start": 21.6185,
      "duration": 0.0161,
      "velocity": 120,
      "chip": "ym2612"
    },
    {
      "channel": 3,
      "note": 59,
      "start": 21.6197,
      "duration": 0.0161,
      "velocity": 120,
      "chip": "ym2612"
    },
    {
      "channel": 2,
      "note": 52,
      "start": 21.6207,
      "duration": 0.0161,
      "velocity": 100,
      "chip": "ym2612"
    },
    {
      "channel": 4,
      "note": 52,
      "start": 21.6346,
      "duration": 0.0161,
      "velocity": 120,
      "chip": "ym2612"
    },
    {
      "channel": 3,
      "note": 59,
      "start": 21.6358,
      "duration": 0.0161,
      "velocity": 120,
      "chip": "ym2612"
    },
    {
      "channel": 2,
      "note": 52,
      "start": 21.6368,
      "duration": 0.0162,
      "velocity": 100,
      "chip": "ym2612"
    },
    {
      "channel": 4,
      "note": 52,
      "start": 21.6507,
      "duration": 0.0161,
      "velocity": 120,
      "chip": "ym2612"
    },
    {
      "channel": 3,
      "note": 59,
      "start": 21.6518,
      "duration": 0.0161,
      "velocity": 120,
      "chip": "ym2612"
    },
    {
      "channel": 2,
      "note": 52,
      "start": 21.653,
      "duration": 0.0161,
      "velocity": 100,
      "chip": "ym2612"
    },
    {
      "channel": 4,
      "note": 52,
      "start": 21.6668,
      "duration": 0.0198,
      "velocity": 120,
      "chip": "ym2612"
    },
    {
      "channel": 3,
      "note": 59,
      "start": 21.6679,
      "duration": 0.02,
      "velocity": 120,
      "chip": "ym2612"
    },
    {
      "channel": 2,
      "note": 52,
      "start": 21.6691,
      "duration": 0.0203,
      "velocity": 100,
      "chip": "ym2612"
    },
    {
      "channel": 0,
      "note": 36,
      "start": 21.6852,
      "duration": 0.0144,
      "velocity": 115,
      "chip": "ym2612"
    },
    {
      "channel": 4,
      "note": 52,
      "start": 21.6866,
      "duration": 0.0141,
      "velocity": 120,
      "chip": "ym2612"
    },
    {
      "channel": 3,
      "note": 59,
      "start": 21.688,
      "duration": 0.014,
      "velocity": 120,
      "chip": "ym2612"
    },
    {
      "channel": 2,
      "note": 52,
      "start": 21.6894,
      "duration": 0.0137,
      "velocity": 100,
      "chip": "ym2612"
    },
    {
      "channel": 0,
      "note": 36,
      "start": 21.6995,
      "duration": 0.016,
      "velocity": 115,
      "chip": "ym2612"
    },
    {
      "channel": 4,
      "note": 52,
      "start": 21.7008,
      "duration": 0.016,
      "velocity": 120,
      "chip": "ym2612"
    },
    {
      "channel": 3,
      "note": 59,
      "start": 21.702,
      "duration": 0.0159,
      "velocity": 120,
      "chip": "ym2612"
    },
    {
      "channel": 2,
      "note": 52,
      "start": 21.7032,
      "duration": 0.0159,
      "velocity": 100,
      "chip": "ym2612"
    },
    {
      "channel": 0,
      "note": 37,
      "start": 21.7156,
      "duration": 0.0162,
      "velocity": 115,
      "chip": "ym2612"
    },
    {
      "channel": 4,
      "note": 52,
      "start": 21.7167,
      "duration": 0.0161,
      "velocity": 120,
      "chip": "ym2612"
    },
    {
      "channel": 3,
      "note": 59,
      "start": 21.7179,
      "duration": 0.0162,
      "velocity": 120,
      "chip": "ym2612"
    },
    {
      "channel": 2,
      "note": 52,
      "start": 21.719,
      "duration": 0.0161,
      "velocity": 100,
      "chip": "ym2612"
    },
    {
      "channel": 0,
      "note": 37,
      "start": 21.7317,
      "duration": 0.016,
      "velocity": 115,
      "chip": "ym2612"
    },
    {
      "channel": 4,
      "note": 52,
      "start": 21.7329,
      "duration": 0.0161,
      "velocity": 120,
      "chip": "ym2612"
    },
    {
      "channel": 3,
      "note": 59,
      "start": 21.734,
      "duration": 0.016,
      "velocity": 120,
      "chip": "ym2612"
    },
    {
      "channel": 2,
      "note": 52,
      "start": 21.7352,
      "duration": 0.016,
      "velocity": 100,
      "chip": "ym2612"
    },
    {
      "channel": 0,
      "note": 38,
      "start": 21.7478,
      "duration": 0.0176,
      "velocity": 115,
      "chip": "ym2612"
    },
    {
      "channel": 4,
      "note": 52,
      "start": 21.749,
      "duration": 0.0176,
      "velocity": 120,
      "chip": "ym2612"
    },
    {
      "channel": 3,
      "note": 59,
      "start": 21.7501,
      "duration": 0.0176,
      "velocity": 120,
      "chip": "ym2612"
    },
    {
      "channel": 2,
      "note": 52,
      "start": 21.7512,
      "duration": 0.0176,
      "velocity": 100,
      "chip": "ym2612"
    },
    {
      "channel": 0,
      "note": 38,
      "start": 21.7654,
      "duration": 0.0167,
      "velocity": 115,
      "chip": "ym2612"
    },
    {
      "channel": 4,
      "note": 52,
      "start": 21.7665,
      "duration": 0.0167,
      "velocity": 120,
      "chip": "ym2612"
    },
    {
      "channel": 3,
      "note": 59,
      "start": 21.7677,
      "duration": 0.0167,
      "velocity": 120,
      "chip": "ym2612"
    },
    {
      "channel": 2,
      "note": 52,
      "start": 21.7688,
      "duration": 0.0167,
      "velocity": 100,
      "chip": "ym2612"
    },
    {
      "channel": 0,
      "note": 39,
      "start": 21.7821,
      "duration": 0.0163,
      "velocity": 115,
      "chip": "ym2612"
    },
    {
      "channel": 4,
      "note": 52,
      "start": 21.7832,
      "duration": 0.0163,
      "velocity": 120,
      "chip": "ym2612"
    },
    {
      "channel": 3,
      "note": 59,
      "start": 21.7844,
      "duration": 0.0163,
      "velocity": 120,
      "chip": "ym2612"
    },
    {
      "channel": 2,
      "note": 52,
      "start": 21.7854,
      "duration": 0.0163,
      "velocity": 100,
      "chip": "ym2612"
    },
    {
      "channel": 0,
      "note": 39,
      "start": 21.7983,
      "duration": 0.0142,
      "velocity": 115,
      "chip": "ym2612"
    },
    {
      "channel": 4,
      "note": 52,
      "start": 21.7995,
      "duration": 0.0142,
      "velocity": 120,
      "chip": "ym2612"
    },
    {
      "channel": 3,
      "note": 59,
      "start": 21.8006,
      "duration": 0.0142,
      "velocity": 120,
      "chip": "ym2612"
    },
    {
      "channel": 2,
      "note": 52,
      "start": 21.8018,
      "duration": 0.0142,
      "velocity": 100,
      "chip": "ym2612"
    },
    {
      "channel": 0,
      "note": 40,
      "start": 21.8125,
      "duration": 0.0185,
      "velocity": 115,
      "chip": "ym2612"
    },
    {
      "channel": 4,
      "note": 52,
      "start": 21.8137,
      "duration": 0.0185,
      "velocity": 120,
      "chip": "ym2612"
    },
    {
      "channel": 3,
      "note": 59,
      "start": 21.8148,
      "duration": 0.0185,
      "velocity": 120,
      "chip": "ym2612"
    },
    {
      "channel": 2,
      "note": 52,
      "start": 21.816,
      "duration": 0.0185,
      "velocity": 100,
      "chip": "ym2612"
    },
    {
      "channel": 0,
      "note": 40,
      "start": 21.831,
      "duration": 0.0161,
      "velocity": 115,
      "chip": "ym2612"
    },
    {
      "channel": 4,
      "note": 52,
      "start": 21.8322,
      "duration": 0.0161,
      "velocity": 120,
      "chip": "ym2612"
    },
    {
      "channel": 3,
      "note": 59,
      "start": 21.8333,
      "duration": 0.0161,
      "velocity": 120,
      "chip": "ym2612"
    },
    {
      "channel": 2,
      "note": 52,
      "start": 21.8345,
      "duration": 0.0161,
      "velocity": 100,
      "chip": "ym2612"
    },
    {
      "channel": 0,
      "note": 40,
      "start": 21.8471,
      "duration": 0.0134,
      "velocity": 115,
      "chip": "ym2612"
    },
    {
      "channel": 4,
      "note": 52,
      "start": 21.8483,
      "duration": 0.0158,
      "velocity": 120,
      "chip": "ym2612"
    },
    {
      "channel": 3,
      "note": 59,
      "start": 21.8494,
      "duration": 0.0158,
      "velocity": 120,
      "chip": "ym2612"
    },
    {
      "channel": 2,
      "note": 52,
      "start": 21.8506,
      "duration": 0.0157,
      "velocity": 100,
      "chip": "ym2612"
    },
    {
      "channel": 0,
      "note": 41,
      "start": 21.8605,
      "duration": 0.0161,
      "velocity": 115,
      "chip": "ym2612"
    },
    {
      "channel": 4,
      "note": 52,
      "start": 21.8641,
      "duration": 0.0142,
      "velocity": 120,
      "chip": "ym2612"
    },
    {
      "channel": 3,
      "note": 59,
      "start": 21.8652,
      "duration": 0.0145,
      "velocity": 120,
      "chip": "ym2612"
    },
    {
      "channel": 2,
      "note": 52,
      "start": 21.8663,
      "duration": 0.0149,
      "velocity": 100,
      "chip": "ym2612"
    },
    {
      "channel": 0,
      "note": 41,
      "start": 21.8766,
      "duration": 0.0161,
      "velocity": 115,
      "chip": "ym2612"
    },
    {
      "channel": 4,
      "note": 69,
      "start": 21.8783,
      "duration": 0.0156,
      "velocity": 120,
      "chip": "ym2612"
    },
    {
      "channel": 3,
      "note": 76,
      "start": 21.8797,
      "duration": 0.0181,
      "velocity": 120,
      "chip": "ym2612"
    },
    {
      "channel": 2,
      "note": 52,
      "start": 21.8812,
      "duration": 0.0179,
      "velocity": 100,
      "chip": "ym2612"
    },
    {
      "channel": 0,
      "note": 42,
      "start": 21.8927,
      "duration": 0.0162,
      "velocity": 115,
      "chip": "ym2612"
    },
    {
      "channel": 4,
      "note": 69,
      "start": 21.8939,
      "duration": 0.0161,
      "velocity": 120,
      "chip": "ym2612"
    },
    {
      "channel": 3,
      "note": 76,
      "start": 21.8978,
      "duration": 0.016,
      "velocity": 120,
      "chip": "ym2612"
    },
    {
      "channel": 2,
      "note": 52,
      "start": 21.899,
      "duration": 0.016,
      "velocity": 100,
      "chip": "ym2612"
    },
    {
      "channel": 0,
      "note": 42,
      "start": 21.9088,
      "duration": 0.0161,
      "velocity": 115,
      "chip": "ym2612"
    },
    {
      "channel": 4,
      "note": 69,
      "start": 21.91,
      "duration": 0.0161,
      "velocity": 120,
      "chip": "ym2612"
    },
    {
      "channel": 3,
      "note": 76,
      "start": 21.9139,
      "duration": 0.0134,
      "velocity": 120,
      "chip": "ym2612"
    },
    {
      "channel": 2,
      "note": 52,
      "start": 21.915,
      "duration": 0.0157,
      "velocity": 100,
      "chip": "ym2612"
    },
    {
      "channel": 0,
      "note": 43,
      "start": 21.9249,
      "duration": 0.0161,
      "velocity": 115,
      "chip": "ym2612"
    },
    {
      "channel": 4,
      "note": 69,
      "start": 21.9261,
      "duration": 0.0161,
      "velocity": 120,
      "chip": "ym2612"
    },
    {
      "channel": 3,
      "note": 76,
      "start": 21.9272,
      "duration": 0.0161,
      "velocity": 120,
      "chip": "ym2612"
    },
    {
      "channel": 2,
      "note": 52,
      "start": 21.9307,
      "duration": 0.0141,
      "velocity": 100,
      "chip": "ym2612"
    },
    {
      "channel": 0,
      "note": 43,
      "start": 21.941,
      "duration": 0.0161,
      "velocity": 115,
      "chip": "ym2612"
    },
    {
      "channel": 4,
      "note": 69,
      "start": 21.9422,
      "duration": 0.0161,
      "velocity": 120,
      "chip": "ym2612"
    },
    {
      "channel": 3,
      "note": 76,
      "start": 21.9433,
      "duration": 0.0161,
      "velocity": 120,
      "chip": "ym2612"
    },
    {
      "channel": 2,
      "note": 52,
      "start": 21.9448,
      "duration": 0.0158,
      "velocity": 100,
      "chip": "ym2612"
    },
    {
      "channel": 0,
      "note": 44,
      "start": 21.9571,
      "duration": 0.0161,
      "velocity": 115,
      "chip": "ym2612"
    },
    {
      "channel": 4,
      "note": 69,
      "start": 21.9583,
      "duration": 0.0161,
      "velocity": 120,
      "chip": "ym2612"
    },
    {
      "channel": 3,
      "note": 76,
      "start": 21.9594,
      "duration": 0.0161,
      "velocity": 120,
      "chip": "ym2612"
    },
    {
      "channel": 2,
      "note": 52,
      "start": 21.9606,
      "duration": 0.0161,
      "velocity": 100,
      "chip": "ym2612"
    },
    {
      "channel": 0,
      "note": 44,
      "start": 21.9732,
      "duration": 0.0161,
      "velocity": 115,
      "chip": "ym2612"
    },
    {
      "channel": 4,
      "note": 69,
      "start": 21.9744,
      "duration": 0.0161,
      "velocity": 120,
      "chip": "ym2612"
    },
    {
      "channel": 3,
      "note": 76,
      "start": 21.9755,
      "duration": 0.0161,
      "velocity": 120,
      "chip": "ym2612"
    },
    {
      "channel": 2,
      "note": 52,
      "start": 21.9766,
      "duration": 0.0161,
      "velocity": 100,
      "chip": "ym2612"
    },
    {
      "channel": 0,
      "note": 44,
      "start": 21.9893,
      "duration": 0.0161,
      "velocity": 115,
      "chip": "ym2612"
    },
    {
      "channel": 4,
      "note": 69,
      "start": 21.9905,
      "duration": 0.0161,
      "velocity": 120,
      "chip": "ym2612"
    },
    {
      "channel": 3,
      "note": 76,
      "start": 21.9916,
      "duration": 0.0161,
      "velocity": 120,
      "chip": "ym2612"
    },
    {
      "channel": 2,
      "note": 52,
      "start": 21.9927,
      "duration": 0.0161,
      "velocity": 100,
      "chip": "ym2612"
    },
    {
      "channel": 0,
      "note": 45,
      "start": 22.0054,
      "duration": 0.0161,
      "velocity": 115,
      "chip": "ym2612"
    },
    {
      "channel": 4,
      "note": 69,
      "start": 22.0066,
      "duration": 0.0161,
      "velocity": 120,
      "chip": "ym2612"
    },
    {
      "channel": 3,
      "note": 76,
      "start": 22.0077,
      "duration": 0.0161,
      "velocity": 120,
      "chip": "ym2612"
    },
    {
      "channel": 2,
      "note": 52,
      "start": 22.0088,
      "duration": 0.0161,
      "velocity": 100,
      "chip": "ym2612"
    },
    {
      "channel": 0,
      "note": 45,
      "start": 22.0215,
      "duration": 0.0161,
      "velocity": 115,
      "chip": "ym2612"
    },
    {
      "channel": 4,
      "note": 69,
      "start": 22.0227,
      "duration": 0.0161,
      "velocity": 120,
      "chip": "ym2612"
    },
    {
      "channel": 3,
      "note": 76,
      "start": 22.0238,
      "duration": 0.0161,
      "velocity": 120,
      "chip": "ym2612"
    },
    {
      "channel": 2,
      "note": 52,
      "start": 22.0249,
      "duration": 0.0161,
      "velocity": 100,
      "chip": "ym2612"
    },
    {
      "channel": 0,
      "note": 46,
      "start": 22.0376,
      "duration": 0.0161,
      "velocity": 115,
      "chip": "ym2612"
    },
    {
      "channel": 4,
      "note": 69,
      "start": 22.0388,
      "duration": 0.0161,
      "velocity": 120,
      "chip": "ym2612"
    },
    {
      "channel": 3,
      "note": 76,
      "start": 22.0399,
      "duration": 0.0161,
      "velocity": 120,
      "chip": "ym2612"
    },
    {
      "channel": 2,
      "note": 52,
      "start": 22.041,
      "duration": 0.0161,
      "velocity": 100,
      "chip": "ym2612"
    },
    {
      "channel": 0,
      "note": 46,
      "start": 22.0537,
      "duration": 0.0179,
      "velocity": 124,
      "chip": "ym2612"
    },
    {
      "channel": 4,
      "note": 69,
      "start": 22.0549,
      "duration": 0.0181,
      "velocity": 120,
      "chip": "ym2612"
    },
    {
      "channel": 3,
      "note": 76,
      "start": 22.056,
      "duration": 0.0184,
      "velocity": 120,
      "chip": "ym2612"
    },
    {
      "channel": 2,
      "note": 52,
      "start": 22.0571,
      "duration": 0.0187,
      "velocity": 100,
      "chip": "ym2612"
    },
    {
      "channel": 0,
      "note": 84,
      "start": 22.0716,
      "duration": 0.0144,
      "velocity": 124,
      "chip": "ym2612"
    },
    {
      "channel": 4,
      "note": 69,
      "start": 22.073,
      "duration": 0.0142,
      "velocity": 120,
      "chip": "ym2612"
    },
    {
      "channel": 3,
      "note": 76,
      "start": 22.0744,
      "duration": 0.014,
      "velocity": 120,
      "chip": "ym2612"
    },
    {
      "channel": 2,
      "note": 52,
      "start": 22.0759,
      "duration": 0.0137,
      "velocity": 100,
      "chip": "ym2612"
    },
    {
      "channel": 0,
      "note": 82,
      "start": 22.086,
      "duration": 0.016,
      "velocity": 124,
      "chip": "ym2612"
    },
    {
      "channel": 4,
      "note": 69,
      "start": 22.0872,
      "duration": 0.016,
      "velocity": 120,
      "chip": "ym2612"
    },
    {
      "channel": 3,
      "note": 76,
      "start": 22.0884,
      "duration": 0.0159,
      "velocity": 120,
      "chip": "ym2612"
    },
    {
      "channel": 2,
      "note": 52,
      "start": 22.0896,
      "duration": 0.0159,
      "velocity": 100,
      "chip": "ym2612"
    },
    {
      "channel": 0,
      "note": 80,
      "start": 22.102,
      "duration": 0.0161,
      "velocity": 124,
      "chip": "ym2612"
    },
    {
      "channel": 4,
      "note": 69,
      "start": 22.1032,
      "duration": 0.0161,
      "velocity": 120,
      "chip": "ym2612"
    },
    {
      "channel": 3,
      "note": 76,
      "start": 22.1043,
      "duration": 0.0161,
      "velocity": 120,
      "chip": "ym2612"
    },
    {
      "channel": 2,
      "note": 52,
      "start": 22.1055,
      "duration": 0.0161,
      "velocity": 100,
      "chip": "ym2612"
    },
    {
      "channel": 0,
      "note": 77,
      "start": 22.1181,
      "duration": 0.0161,
      "velocity": 124,
      "chip": "ym2612"
    },
    {
      "channel": 4,
      "note": 69,
      "start": 22.1193,
      "duration": 0.0161,
      "velocity": 120,
      "chip": "ym2612"
    },
    {
      "channel": 3,
      "note": 76,
      "start": 22.1204,
      "duration": 0.0161,
      "velocity": 120,
      "chip": "ym2612"
    },
    {
      "channel": 2,
      "note": 52,
      "start": 22.1216,
      "duration": 0.0161,
      "velocity": 100,
      "chip": "ym2612"
    },
    {
      "channel": 0,
      "note": 75,
      "start": 22.1342,
      "duration": 0.0161,
      "velocity": 124,
      "chip": "ym2612"
    },
    {
      "channel": 4,
      "note": 69,
      "start": 22.1354,
      "duration": 0.0161,
      "velocity": 120,
      "chip": "ym2612"
    },
    {
      "channel": 3,
      "note": 76,
      "start": 22.1365,
      "duration": 0.0161,
      "velocity": 120,
      "chip": "ym2612"
    },
    {
      "channel": 2,
      "note": 52,
      "start": 22.1377,
      "duration": 0.0161,
      "velocity": 100,
      "chip": "ym2612"
    },
    {
      "channel": 0,
      "note": 72,
      "start": 22.1503,
      "duration": 0.0161,
      "velocity": 124,
      "chip": "ym2612"
    },
    {
      "channel": 4,
      "note": 69,
      "start": 22.1515,
      "duration": 0.0161,
      "velocity": 120,
      "chip": "ym2612"
    },
    {
      "channel": 3,
      "note": 76,
      "start": 22.1526,
      "duration": 0.0161,
      "velocity": 120,
      "chip": "ym2612"
    },
    {
      "channel": 2,
      "note": 52,
      "start": 22.1537,
      "duration": 0.0161,
      "velocity": 100,
      "chip": "ym2612"
    },
    {
      "channel": 0,
      "note": 70,
      "start": 22.1664,
      "duration": 0.0161,
      "velocity": 124,
      "chip": "ym2612"
    },
    {
      "channel": 4,
      "note": 69,
      "start": 22.1676,
      "duration": 0.0161,
      "velocity": 120,
      "chip": "ym2612"
    },
    {
      "channel": 3,
      "note": 76,
      "start": 22.1687,
      "duration": 0.0161,
      "velocity": 120,
      "chip": "ym2612"
    },
    {
      "channel": 2,
      "note": 52,
      "start": 22.1698,
      "duration": 0.0161,
      "velocity": 100,
      "chip": "ym2612"
    },
    {
      "channel": 0,
      "note": 68,
      "start": 22.1825,
      "duration": 0.0162,
      "velocity": 124,
      "chip": "ym2612"
    },
    {
      "channel": 4,
      "note": 69,
      "start": 22.1837,
      "duration": 0.0161,
      "velocity": 120,
      "chip": "ym2612"
    },
    {
      "channel": 3,
      "note": 76,
      "start": 22.1848,
      "duration": 0.0162,
      "velocity": 120,
      "chip": "ym2612"
    },
    {
      "channel": 2,
      "note": 52,
      "start": 22.1859,
      "duration": 0.0161,
      "velocity": 100,
      "chip": "ym2612"
    },
    {
      "channel": 0,
      "note": 65,
      "start": 22.1987,
      "duration": 0.0161,
      "velocity": 124,
      "chip": "ym2612"
    },
    {
      "channel": 4,
      "note": 69,
      "start": 22.1998,
      "duration": 0.0161,
      "velocity": 120,
      "chip": "ym2612"
    },
    {
      "channel": 3,
      "note": 76,
      "start": 22.201,
      "duration": 0.0161,
      "velocity": 120,
      "chip": "ym2612"
    },
    {
      "channel": 2,
      "note": 52,
      "start": 22.202,
      "duration": 0.0161,
      "velocity": 100,
      "chip": "ym2612"
    },
    {
      "channel": 0,
      "note": 63,
      "start": 22.2148,
      "duration": 0.0165,
      "velocity": 1,
      "chip": "ym2612"
    },
    {
      "channel": 4,
      "note": 69,
      "start": 22.2159,
      "duration": 0.0165,
      "velocity": 120,
      "chip": "ym2612"
    },
    {
      "channel": 3,
      "note": 76,
      "start": 22.2171,
      "duration": 0.0165,
      "velocity": 120,
      "chip": "ym2612"
    },
    {
      "channel": 2,
      "note": 52,
      "start": 22.2181,
      "duration": 0.0166,
      "velocity": 100,
      "chip": "ym2612"
    },
    {
      "channel": 4,
      "note": 69,
      "start": 22.2324,
      "duration": 0.0158,
      "velocity": 120,
      "chip": "ym2612"
    },
    {
      "channel": 3,
      "note": 76,
      "start": 22.2335,
      "duration": 0.0159,
      "velocity": 120,
      "chip": "ym2612"
    },
    {
      "channel": 2,
      "note": 52,
      "start": 22.2347,
      "duration": 0.0158,
      "velocity": 100,
      "chip": "ym2612"
    },
    {
      "channel": 4,
      "note": 69,
      "start": 22.2482,
      "duration": 0.02,
      "velocity": 120,
      "chip": "ym2612"
    },
    {
      "channel": 3,
      "note": 76,
      "start": 22.2494,
      "duration": 0.0202,
      "velocity": 120,
      "chip": "ym2612"
    },
    {
      "channel": 2,
      "note": 52,
      "start": 22.2505,
      "duration": 0.0206,
      "velocity": 100,
      "chip": "ym2612"
    },
    {
      "channel": 0,
      "note": 36,
      "start": 22.2668,
      "duration": 0.0127,
      "velocity": 115,
      "chip": "ym2612"
    },
    {
      "channel": 4,
      "note": 67,
      "start": 22.2683,
      "duration": 0.0125,
      "velocity": 120,
      "chip": "ym2612"
    },
    {
      "channel": 3,
      "note": 74,
      "start": 22.2696,
      "duration": 0.0123,
      "velocity": 120,
      "chip": "ym2612"
    },
    {
      "channel": 2,
      "note": 52,
      "start": 22.271,
      "duration": 0.0121,
      "velocity": 100,
      "chip": "ym2612"
    },
    {
      "channel": 0,
      "note": 36,
      "start": 22.2795,
      "duration": 0.0184,
      "velocity": 115,
      "chip": "ym2612"
    },
    {
      "channel": 4,
      "note": 67,
      "start": 22.2807,
      "duration": 0.0184,
      "velocity": 120,
      "chip": "ym2612"
    },
    {
      "channel": 3,
      "note": 74,
      "start": 22.2819,
      "duration": 0.0183,
      "velocity": 120,
      "chip": "ym2612"
    },
    {
      "channel": 2,
      "note": 52,
      "start": 22.2832,
      "duration": 0.0183,
      "velocity": 100,
      "chip": "ym2612"
    },
    {
      "channel": 0,
      "note": 37,
      "start": 22.298,
      "duration": 0.0161,
      "velocity": 115,
      "chip": "ym2612"
    },
    {
      "channel": 4,
      "note": 67,
      "start": 22.2991,
      "duration": 0.0161,
      "velocity": 120,
      "chip": "ym2612"
    },
    {
      "channel": 3,
      "note": 74,
      "start": 22.3002,
      "duration": 0.0161,
      "velocity": 120,
      "chip": "ym2612"
    },
    {
      "channel": 2,
      "note": 52,
      "start": 22.3014,
      "duration": 0.0161,
      "velocity": 100,
      "chip": "ym2612"
    },
    {
      "channel": 0,
      "note": 37,
      "start": 22.3141,
      "duration": 0.0157,
      "velocity": 115,
      "chip": "ym2612"
    },
    {
      "channel": 4,
      "note": 67,
      "start": 22.3152,
      "duration": 0.0158,
      "velocity": 120,
      "chip": "ym2612"
    },
    {
      "channel": 3,
      "note": 74,
      "start": 22.3163,
      "duration": 0.0158,
      "velocity": 120,
      "chip": "ym2612"
    },
    {
      "channel": 2,
      "note": 52,
      "start": 22.3175,
      "duration": 0.0158,
      "velocity": 100,
      "chip": "ym2612"
    },
    {
      "channel": 0,
      "note": 38,
      "start": 22.3298,
      "duration": 0.0137,
      "velocity": 115,
      "chip": "ym2612"
    },
    {
      "channel": 4,
      "note": 67,
      "start": 22.331,
      "duration": 0.0141,
      "velocity": 120,
      "chip": "ym2612"
    },
    {
      "channel": 3,
      "note": 74,
      "start": 22.3321,
      "duration": 0.014,
      "velocity": 120,
      "chip": "ym2612"
    },
    {
      "channel": 2,
      "note": 52,
      "start": 22.3333,
      "duration": 0.014,
      "velocity": 100,
      "chip": "ym2612"
    },
    {
      "channel": 0,
      "note": 38,
      "start": 22.3435,
      "duration": 0.0161,
      "velocity": 115,
      "chip": "ym2612"
    },
    {
      "channel": 4,
      "note": 67,
      "start": 22.345,
      "duration": 0.0185,
      "velocity": 120,
      "chip": "ym2612"
    },
    {
      "channel": 3,
      "note": 74,
      "start": 22.3461,
      "duration": 0.0186,
      "velocity": 120,
      "chip": "ym2612"
    },
    {
      "channel": 2,
      "note": 52,
      "start": 22.3473,
      "duration": 0.0186,
      "velocity": 100,
      "chip": "ym2612"
    },
    {
      "channel": 0,
      "note": 39,
      "start": 22.3597,
      "duration": 0.0161,
      "velocity": 115,
      "chip": "ym2612"
    },
    {
      "channel": 4,
      "note": 67,
      "start": 22.3635,
      "duration": 0.0134,
      "velocity": 120,
      "chip": "ym2612"
    },
    {
      "channel": 3,
      "note": 74,
      "start": 22.3647,
      "duration": 0.0161,
      "velocity": 120,
      "chip": "ym2612"
    },
    {
      "channel": 2,
      "note": 52,
      "start": 22.3658,
      "duration": 0.0161,
      "velocity": 100,
      "chip": "ym2612"
    },
    {
      "channel": 0,
      "note": 39,
      "start": 22.3758,
      "duration": 0.0161,
      "velocity": 115,
      "chip": "ym2612"
    },
    {
      "channel": 4,
      "note": 67,
      "start": 22.3769,
      "duration": 0.0161,
      "velocity": 120,
      "chip": "ym2612"
    },
    {
      "channel": 3,
      "note": 74,
      "start": 22.3808,
      "duration": 0.0157,
      "velocity": 120,
      "chip": "ym2612"
    },
    {
      "channel": 2,
      "note": 52,
      "start": 22.3819,
      "duration": 0.0157,
      "velocity": 100,
      "chip": "ym2612"
    },
    {
      "channel": 0,
      "note": 40,
      "start": 22.3919,
      "duration": 0.0161,
      "velocity": 115,
      "chip": "ym2612"
    },
    {
      "channel": 4,
      "note": 67,
      "start": 22.393,
      "duration": 0.0161,
      "velocity": 120,
      "chip": "ym2612"
    },
    {
      "channel": 3,
      "note": 74,
      "start": 22.3965,
      "duration": 0.0137,
      "velocity": 120,
      "chip": "ym2612"
    },
    {
      "channel": 2,
      "note": 52,
      "start": 22.3976,
      "duration": 0.0141,
      "velocity": 100,
      "chip": "ym2612"
    },
    {
      "channel": 0,
      "note": 40,
      "start": 22.408,
      "duration": 0.0161,
      "velocity": 115,
      "chip": "ym2612"
    },
    {
      "channel": 4,
      "note": 67,
      "start": 22.4091,
      "duration": 0.0161,
      "velocity": 120,
      "chip": "ym2612"
    },
    {
      "channel": 3,
      "note": 74,
      "start": 22.4102,
      "duration": 0.0161,
      "velocity": 120,
      "chip": "ym2612"
    },
    {
      "channel": 2,
      "note": 52,
      "start": 22.4117,
      "duration": 0.0185,
      "velocity": 100,
      "chip": "ym2612"
    },
    {
      "channel": 0,
      "note": 40,
      "start": 22.424,
      "duration": 0.0161,
      "velocity": 115,
      "chip": "ym2612"
    },
    {
      "channel": 4,
      "note": 67,
      "start": 22.4252,
      "duration": 0.0161,
      "velocity": 120,
      "chip": "ym2612"
    },
    {
      "channel": 3,
      "note": 74,
      "start": 22.4263,
      "duration": 0.0161,
      "velocity": 120,
      "chip": "ym2612"
    },
    {
      "channel": 2,
      "note": 52,
      "start": 22.4302,
      "duration": 0.0134,
      "velocity": 100,
      "chip": "ym2612"
    },
    {
      "channel": 0,
      "note": 41,
      "start": 22.4401,
      "duration": 0.0179,
      "velocity": 115,
      "chip": "ym2612"
    },
    {
      "channel": 4,
      "note": 67,
      "start": 22.4413,
      "duration": 0.0181,
      "velocity": 120,
      "chip": "ym2612"
    },
    {
      "channel": 3,
      "note": 74,
      "start": 22.4424,
      "duration": 0.0207,
      "velocity": 120,
      "chip": "ym2612"
    },
    {
      "channel": 2,
      "note": 52,
      "start": 22.4436,
      "duration": 0.021,
      "velocity": 100,
      "chip": "ym2612"
    },
    {
      "channel": 0,
      "note": 36,
      "start": 22.458,
      "duration": 0.0144,
      "velocity": 115,
      "chip": "ym2612"
    },
    {
      "channel": 4,
      "note": 67,
      "start": 22.4595,
      "duration": 0.0141,
      "velocity": 120,
      "chip": "ym2612"
    },
    {
      "channel": 3,
      "note": 74,
      "start": 22.4632,
      "duration": 0.0116,
      "velocity": 120,
      "chip": "ym2612"
    },
    {
      "channel": 2,
      "note": 52,
      "start": 22.4647,
      "duration": 0.0113,
      "velocity": 100,
      "chip": "ym2612"
    },
    {
      "channel": 0,
      "note": 36,
      "start": 22.4724,
      "duration": 0.016,
      "velocity": 115,
      "chip": "ym2612"
    },
    {
      "channel": 4,
      "note": 67,
      "start": 22.4736,
      "duration": 0.016,
      "velocity": 120,
      "chip": "ym2612"
    },
    {
      "channel": 3,
      "note": 74,
      "start": 22.4748,
      "duration": 0.0159,
      "velocity": 120,
      "chip": "ym2612"
    },
    {
      "channel": 2,
      "note": 52,
      "start": 22.476,
      "duration": 0.0159,
      "velocity": 100,
      "chip": "ym2612"
    },
    {
      "channel": 0,
      "note": 37,
      "start": 22.4884,
      "duration": 0.0162,
      "velocity": 115,
      "chip": "ym2612"
    },
    {
      "channel": 4,
      "note": 67,
      "start": 22.4896,
      "duration": 0.0161,
      "velocity": 120,
      "chip": "ym2612"
    },
    {
      "channel": 3,
      "note": 74,
      "start": 22.4907,
      "duration": 0.0162,
      "velocity": 120,
      "chip": "ym2612"
    },
    {
      "channel": 2,
      "note": 52,
      "start": 22.4919,
      "duration": 0.0161,
      "velocity": 100,
      "chip": "ym2612"
    },
    {
      "channel": 0,
      "note": 37,
      "start": 22.5046,
      "duration": 0.0161,
      "velocity": 115,
      "chip": "ym2612"
    },
    {
      "channel": 4,
      "note": 67,
      "start": 22.5057,
      "duration": 0.0161,
      "velocity": 120,
      "chip": "ym2612"
    },
    {
      "channel": 3,
      "note": 74,
      "start": 22.5069,
      "duration": 0.0161,
      "velocity": 120,
      "chip": "ym2612"
    },
    {
      "channel": 2,
      "note": 52,
      "start": 22.508,
      "duration": 0.0161,
      "velocity": 100,
      "chip": "ym2612"
    },
    {
      "channel": 0,
      "note": 38,
      "start": 22.5207,
      "duration": 0.0161,
      "velocity": 115,
      "chip": "ym2612"
    },
    {
      "channel": 4,
      "note": 67,
      "start": 22.5218,
      "duration": 0.0161,
      "velocity": 120,
      "chip": "ym2612"
    },
    {
      "channel": 3,
      "note": 74,
      "start": 22.523,
      "duration": 0.0161,
      "velocity": 120,
      "chip": "ym2612"
    },
    {
      "channel": 2,
      "note": 52,
      "start": 22.524,
      "duration": 0.0162,
      "velocity": 100,
      "chip": "ym2612"
    },
    {
      "channel": 0,
      "note": 38,
      "start": 22.5368,
      "duration": 0.0161,
      "velocity": 115,
      "chip": "ym2612"
    },
    {
      "channel": 4,
      "note": 67,
      "start": 22.5379,
      "duration": 0.0161,
      "velocity": 120,
      "chip": "ym2612"
    },
    {
      "channel": 3,
      "note": 74,
      "start": 22.539,
      "duration": 0.0161,
      "velocity": 120,
      "chip": "ym2612"
    },
    {
      "channel": 2,
      "note": 52,
      "start": 22.5402,
      "duration": 0.0161,
      "velocity": 100,
      "chip": "ym2612"
    },
    {
      "channel": 0,
      "note": 39,
      "start": 22.5529,
      "duration": 0.0161,
      "velocity": 115,
      "chip": "ym2612"
    },
    {
      "channel": 4,
      "note": 67,
      "start": 22.554,
      "duration": 0.0161,
      "velocity": 120,
      "chip": "ym2612"
    },
    {
      "channel": 3,
      "note": 74,
      "start": 22.5551,
      "duration": 0.0161,
      "velocity": 120,
      "chip": "ym2612"
    },
    {
      "channel": 2,
      "note": 52,
      "start": 22.5563,
      "duration": 0.0161,
      "velocity": 100,
      "chip": "ym2612"
    },
    {
      "channel": 0,
      "note": 39,
      "start": 22.569,
      "duration": 0.0161,
      "velocity": 115,
      "chip": "ym2612"
    },
    {
      "channel": 4,
      "note": 67,
      "start": 22.5701,
      "duration": 0.0161,
      "velocity": 120,
      "chip": "ym2612"
    },
    {
      "channel": 3,
      "note": 74,
      "start": 22.5712,
      "duration": 0.0161,
      "velocity": 120,
      "chip": "ym2612"
    },
    {
      "channel": 2,
      "note": 52,
      "start": 22.5724,
      "duration": 0.0161,
      "velocity": 100,
      "chip": "ym2612"
    },
    {
      "channel": 0,
      "note": 40,
      "start": 22.5851,
      "duration": 0.0161,
      "velocity": 115,
      "chip": "ym2612"
    },
    {
      "channel": 4,
      "note": 67,
      "start": 22.5862,
      "duration": 0.0161,
      "velocity": 120,
      "chip": "ym2612"
    },
    {
      "channel": 3,
      "note": 74,
      "start": 22.5873,
      "duration": 0.0161,
      "velocity": 120,
      "chip": "ym2612"
    },
    {
      "channel": 2,
      "note": 52,
      "start": 22.5885,
      "duration": 0.0161,
      "velocity": 100,
      "chip": "ym2612"
    },
    {
      "channel": 0,
      "note": 40,
      "start": 22.6011,
      "duration": 0.0161,
      "velocity": 115,
      "chip": "ym2612"
    },
    {
      "channel": 4,
      "note": 67,
      "start": 22.6023,
      "duration": 0.0161,
      "velocity": 120,
      "chip": "ym2612"
    },
    {
      "channel": 3,
      "note": 74,
      "start": 22.6034,
      "duration": 0.0161,
      "velocity": 120,
      "chip": "ym2612"
    },
    {
      "channel": 2,
      "note": 52,
      "start": 22.6046,
      "duration": 0.0161,
      "velocity": 100,
      "chip": "ym2612"
    },
    {
      "channel": 0,
      "note": 40,
      "start": 22.6172,
      "duration": 0.0161,
      "velocity": 115,
      "chip": "ym2612"
    },
    {
      "channel": 4,
      "note": 67,
      "start": 22.6184,
      "duration": 0.0161,
      "velocity": 120,
      "chip": "ym2612"
    },
    {
      "channel": 3,
      "note": 74,
      "start": 22.6195,
      "duration": 0.0161,
      "velocity": 120,
      "chip": "ym2612"
    },
    {
      "channel": 2,
      "note": 52,
      "start": 22.6207,
      "duration": 0.0161,
      "velocity": 100,
      "chip": "ym2612"
    },
    {
      "channel": 0,
      "note": 41,
      "start": 22.6333,
      "duration": 0.0161,
      "velocity": 115,
      "chip": "ym2612"
    },
    {
      "channel": 4,
      "note": 67,
      "start": 22.6345,
      "duration": 0.0163,
      "velocity": 120,
      "chip": "ym2612"
    },
    {
      "channel": 3,
      "note": 74,
      "start": 22.6356,
      "duration": 0.0166,
      "velocity": 120,
      "chip": "ym2612"
    },
    {
      "channel": 2,
      "note": 52,
      "start": 22.6368,
      "duration": 0.0169,
      "velocity": 100,
      "chip": "ym2612"
    },
    {
      "channel": 0,
      "note": 41,
      "start": 22.6495,
      "duration": 0.0161,
      "velocity": 115,
      "chip": "ym2612"
    },
    {
      "channel": 4,
      "note": 66,
      "start": 22.6509,
      "duration": 0.0159,
      "velocity": 120,
      "chip": "ym2612"
    },
    {
      "channel": 3,
      "note": 73,
      "start": 22.6523,
      "duration": 0.0156,
      "velocity": 120,
      "chip": "ym2612"
    },
    {
      "channel": 2,
      "note": 52,
      "start": 22.6537,
      "duration": 0.0154,
      "velocity": 100,
      "chip": "ym2612"
    },
    {
      "channel": 0,
      "note": 42,
      "start": 22.6656,
      "duration": 0.0161,
      "velocity": 115,
      "chip": "ym2612"
    },
    {
      "channel": 4,
      "note": 66,
      "start": 22.6668,
      "duration": 0.016,
      "velocity": 120,
      "chip": "ym2612"
    },
    {
      "channel": 3,
      "note": 73,
      "start": 22.6679,
      "duration": 0.016,
      "velocity": 120,
      "chip": "ym2612"
    },
    {
      "channel": 2,
      "note": 52,
      "start": 22.6691,
      "duration": 0.016,
      "velocity": 100,
      "chip": "ym2612"
    },
    {
      "channel": 0,
      "note": 42,
      "start": 22.6817,
      "duration": 0.017,
      "velocity": 115,
      "chip": "ym2612"
    },
    {
      "channel": 4,
      "note": 66,
      "start": 22.6828,
      "duration": 0.0171,
      "velocity": 120,
      "chip": "ym2612"
    },
    {
      "channel": 3,
      "note": 73,
      "start": 22.684,
      "duration": 0.0171,
      "velocity": 120,
      "chip": "ym2612"
    },
    {
      "channel": 2,
      "note": 52,
      "start": 22.6851,
      "duration": 0.017,
      "velocity": 100,
      "chip": "ym2612"
    },
    {
      "channel": 0,
      "note": 43,
      "start": 22.6987,
      "duration": 0.0167,
      "velocity": 115,
      "chip": "ym2612"
    },
    {
      "channel": 4,
      "note": 66,
      "start": 22.6999,
      "duration": 0.0167,
      "velocity": 120,
      "chip": "ym2612"
    },
    {
      "channel": 3,
      "note": 73,
      "start": 22.701,
      "duration": 0.0167,
      "velocity": 120,
      "chip": "ym2612"
    },
    {
      "channel": 2,
      "note": 52,
      "start": 22.7021,
      "duration": 0.0167,
      "velocity": 100,
      "chip": "ym2612"
    },
    {
      "channel": 0,
      "note": 43,
      "start": 22.7154,
      "duration": 0.0163,
      "velocity": 115,
      "chip": "ym2612"
    },
    {
      "channel": 4,
      "note": 66,
      "start": 22.7165,
      "duration": 0.0163,
      "velocity": 120,
      "chip": "ym2612"
    },
    {
      "channel": 3,
      "note": 73,
      "start": 22.7177,
      "duration": 0.0163,
      "velocity": 120,
      "chip": "ym2612"
    },
    {
      "channel": 2,
      "note": 52,
      "start": 22.7188,
      "duration": 0.0163,
      "velocity": 100,
      "chip": "ym2612"
    },
    {
      "channel": 0,
      "note": 44,
      "start": 22.7317,
      "duration": 0.0146,
      "velocity": 115,
      "chip": "ym2612"
    },
    {
      "channel": 4,
      "note": 66,
      "start": 22.7328,
      "duration": 0.0146,
      "velocity": 120,
      "chip": "ym2612"
    },
    {
      "channel": 3,
      "note": 73,
      "start": 22.734,
      "duration": 0.0146,
      "velocity": 120,
      "chip": "ym2612"
    },
    {
      "channel": 2,
      "note": 52,
      "start": 22.7351,
      "duration": 0.0146,
      "velocity": 100,
      "chip": "ym2612"
    },
    {
      "channel": 0,
      "note": 44,
      "start": 22.7463,
      "duration": 0.0186,
      "velocity": 115,
      "chip": "ym2612"
    },
    {
      "channel": 4,
      "note": 66,
      "start": 22.7475,
      "duration": 0.0186,
      "velocity": 120,
      "chip": "ym2612"
    },
    {
      "channel": 3,
      "note": 73,
      "start": 22.7486,
      "duration": 0.0186,
      "velocity": 120,
      "chip": "ym2612"
    },
    {
      "channel": 2,
      "note": 52,
      "start": 22.7498,
      "duration": 0.0186,
      "velocity": 100,
      "chip": "ym2612"
    },
    {
      "channel": 0,
      "note": 44,
      "start": 22.7649,
      "duration": 0.0161,
      "velocity": 115,
      "chip": "ym2612"
    },
    {
      "channel": 4,
      "note": 66,
      "start": 22.766,
      "duration": 0.0161,
      "velocity": 120,
      "chip": "ym2612"
    },
    {
      "channel": 3,
      "note": 73,
      "start": 22.7672,
      "duration": 0.0162,
      "velocity": 120,
      "chip": "ym2612"
    },
    {
      "channel": 2,
      "note": 52,
      "start": 22.7683,
      "duration": 0.0161,
      "velocity": 100,
      "chip": "ym2612"
    },
    {
      "channel": 0,
      "note": 45,
      "start": 22.781,
      "duration": 0.0158,
      "velocity": 115,
      "chip": "ym2612"
    },
    {
      "channel": 4,
      "note": 66,
      "start": 22.7822,
      "duration": 0.0157,
      "velocity": 120,
      "chip": "ym2612"
    },
    {
      "channel": 3,
      "note": 73,
      "start": 22.7833,
      "duration": 0.0157,
      "velocity": 120,
      "chip": "ym2612"
    },
    {
      "channel": 2,
      "note": 52,
      "start": 22.7844,
      "duration": 0.0158,
      "velocity": 100,
      "chip": "ym2612"
    },
    {
      "channel": 0,
      "note": 45,
      "start": 22.7968,
      "duration": 0.0137,
      "velocity": 115,
      "chip": "ym2612"
    },
    {
      "channel": 4,
      "note": 66,
      "start": 22.7979,
      "duration": 0.0141,
      "velocity": 120,
      "chip": "ym2612"
    },
    {
      "channel": 3,
      "note": 73,
      "start": 22.799,
      "duration": 0.0141,
      "velocity": 120,
      "chip": "ym2612"
    },
    {
      "channel": 2,
      "note": 52,
      "start": 22.8002,
      "duration": 0.014,
      "velocity": 100,
      "chip": "ym2612"
    },
    {
      "channel": 0,
      "note": 46,
      "start": 22.8105,
      "duration": 0.0161,
      "velocity": 115,
      "chip": "ym2612"
    },
    {
      "channel": 4,
      "note": 66,
      "start": 22.812,
      "duration": 0.0185,
      "velocity": 120,
      "chip": "ym2612"
    },
    {
      "channel": 3,
      "note": 73,
      "start": 22.8131,
      "duration": 0.0185,
      "velocity": 120,
      "chip": "ym2612"
    },
    {
      "channel": 2,
      "note": 52,
      "start": 22.8142,
      "duration": 0.0186,
      "velocity": 100,
      "chip": "ym2612"
    },
    {
      "channel": 0,
      "note": 46,
      "start": 22.8266,
      "duration": 0.0206,
      "velocity": 124,
      "chip": "ym2612"
    },
    {
      "channel": 4,
      "note": 66,
      "start": 22.8305,
      "duration": 0.0181,
      "velocity": 120,
      "chip": "ym2612"
    },
    {
      "channel": 3,
      "note": 73,
      "start": 22.8316,
      "duration": 0.0184,
      "velocity": 120,
      "chip": "ym2612"
    },
    {
      "channel": 2,
      "note": 52,
      "start": 22.8328,
      "duration": 0.0187,
      "velocity": 100,
      "chip": "ym2612"
    },
    {
      "channel": 0,
      "note": 84,
      "start": 22.8472,
      "duration": 0.0117,
      "velocity": 124,
      "chip": "ym2612"
    },
    {
      "channel": 4,
      "note": 66,
      "start": 22.8487,
      "duration": 0.0114,
      "velocity": 120,
      "chip": "ym2612"
    },
    {
      "channel": 3,
      "note": 73,
      "start": 22.85,
      "duration": 0.0136,
      "velocity": 120,
      "chip": "ym2612"
    },
    {
      "channel": 2,
      "note": 52,
      "start": 22.8515,
      "duration": 0.0133,
      "velocity": 100,
      "chip": "ym2612"
    },
    {
      "channel": 0,
      "note": 82,
      "start": 22.8588,
      "duration": 0.016,
      "velocity": 124,
      "chip": "ym2612"
    },
    {
      "channel": 4,
      "note": 66,
      "start": 22.86,
      "duration": 0.016,
      "velocity": 120,
      "chip": "ym2612"
    },
    {
      "channel": 3,
      "note": 73,
      "start": 22.8636,
      "duration": 0.0136,
      "velocity": 120,
      "chip": "ym2612"
    },
    {
      "channel": 2,
      "note": 52,
      "start": 22.8648,
      "duration": 0.0139,
      "velocity": 100,
      "chip": "ym2612"
    },
    {
      "channel": 0,
      "note": 80,
      "start": 22.8749,
      "duration": 0.0161,
      "velocity": 124,
      "chip": "ym2612"
    },
    {
      "channel": 4,
      "note": 66,
      "start": 22.876,
      "duration": 0.0161,
      "velocity": 120,
      "chip": "ym2612"
    },
    {
      "channel": 3,
      "note": 73,
      "start": 22.8772,
      "duration": 0.0161,
      "velocity": 120,
      "chip": "ym2612"
    },
    {
      "channel": 2,
      "note": 52,
      "start": 22.8786,
      "duration": 0.0185,
      "velocity": 100,
      "chip": "ym2612"
    },
    {
      "channel": 0,
      "note": 77,
      "start": 22.891,
      "duration": 0.0161,
      "velocity": 124,
      "chip": "ym2612"
    },
    {
      "channel": 4,
      "note": 66,
      "start": 22.8921,
      "duration": 0.0161,
      "velocity": 120,
      "chip": "ym2612"
    },
    {
      "channel": 3,
      "note": 73,
      "start": 22.8933,
      "duration": 0.0161,
      "velocity": 120,
      "chip": "ym2612"
    },
    {
      "channel": 2,
      "note": 52,
      "start": 22.8971,
      "duration": 0.0134,
      "velocity": 100,
      "chip": "ym2612"
    },
    {
      "channel": 0,
      "note": 75,
      "start": 22.9071,
      "duration": 0.0161,
      "velocity": 124,
      "chip": "ym2612"
    },
    {
      "channel": 4,
      "note": 66,
      "start": 22.9082,
      "duration": 0.0161,
      "velocity": 120,
      "chip": "ym2612"
    },
    {
      "channel": 3,
      "note": 73,
      "start": 22.9093,
      "duration": 0.0161,
      "velocity": 120,
      "chip": "ym2612"
    },
    {
      "channel": 2,
      "note": 52,
      "start": 22.9105,
      "duration": 0.0161,
      "velocity": 100,
      "chip": "ym2612"
    },
    {
      "channel": 0,
      "note": 72,
      "start": 22.9232,
      "duration": 0.0161,
      "velocity": 124,
      "chip": "ym2612"
    },
    {
      "channel": 4,
      "note": 66,
      "start": 22.9243,
      "duration": 0.0161,
      "velocity": 120,
      "chip": "ym2612"
    },
    {
      "channel": 3,
      "note": 73,
      "start": 22.9254,
      "duration": 0.0161,
      "velocity": 120,
      "chip": "ym2612"
    },
    {
      "channel": 2,
      "note": 52,
      "start": 22.9266,
      "duration": 0.0161,
      "velocity": 100,
      "chip": "ym2612"
    },
    {
      "channel": 0,
      "note": 70,
      "start": 22.9393,
      "duration": 0.0161,
      "velocity": 124,
      "chip": "ym2612"
    },
    {
      "channel": 4,
      "note": 66,
      "start": 22.9404,
      "duration": 0.0162,
      "velocity": 120,
      "chip": "ym2612"
    },
    {
      "channel": 3,
      "note": 73,
      "start": 22.9415,
      "duration": 0.0161,
      "velocity": 120,
      "chip": "ym2612"
    },
    {
      "channel": 2,
      "note": 52,
      "start": 22.9427,
      "duration": 0.0161,
      "velocity": 100,
      "chip": "ym2612"
    },
    {
      "channel": 0,
      "note": 68,
      "start": 22.9554,
      "duration": 0.0161,
      "velocity": 124,
      "chip": "ym2612"
    },
    {
      "channel": 4,
      "note": 66,
      "start": 22.9566,
      "duration": 0.0161,
      "velocity": 120,
      "chip": "ym2612"
    },
    {
      "channel": 3,
      "note": 73,
      "start": 22.9577,
      "duration": 0.0161,
      "velocity": 120,
      "chip": "ym2612"
    },
    {
      "channel": 2,
      "note": 52,
      "start": 22.9588,
      "duration": 0.0162,
      "velocity": 100,
      "chip": "ym2612"
    },
    {
      "channel": 0,
      "note": 65,
      "start": 22.9715,
      "duration": 0.0161,
      "velocity": 124,
      "chip": "ym2612"
    },
    {
      "channel": 4,
      "note": 66,
      "start": 22.9727,
      "duration": 0.0161,
      "velocity": 120,
      "chip": "ym2612"
    },
    {
      "channel": 3,
      "note": 73,
      "start": 22.9738,
      "duration": 0.0161,
      "velocity": 120,
      "chip": "ym2612"
    },
    {
      "channel": 2,
      "note": 52,
      "start": 22.9749,
      "duration": 0.0161,
      "velocity": 100,
      "chip": "ym2612"
    },
    {
      "channel": 0,
      "note": 63,
      "start": 22.9876,
      "duration": 0.0153,
      "velocity": 1,
      "chip": "ym2612"
    },
    {
      "channel": 4,
      "note": 66,
      "start": 22.9887,
      "duration": 0.0153,
      "velocity": 120,
      "chip": "ym2612"
    },
    {
      "channel": 3,
      "note": 73,
      "start": 22.9899,
      "duration": 0.0153,
      "velocity": 120,
      "chip": "ym2612"
    },
    {
      "channel": 2,
      "note": 52,
      "start": 22.991,
      "duration": 0.0153,
      "velocity": 100,
      "chip": "ym2612"
    },
    {
      "channel": 4,
      "note": 66,
      "start": 23.0041,
      "duration": 0.0152,
      "velocity": 120,
      "chip": "ym2612"
    },
    {
      "channel": 3,
      "note": 73,
      "start": 23.0052,
      "duration": 0.0152,
      "velocity": 120,
      "chip": "ym2612"
    },
    {
      "channel": 2,
      "note": 52,
      "start": 23.0063,
      "duration": 0.0153,
      "velocity": 100,
      "chip": "ym2612"
    },
    {
      "channel": 4,
      "note": 66,
      "start": 23.0193,
      "duration": 0.0163,
      "velocity": 120,
      "chip": "ym2612"
    },
    {
      "channel": 3,
      "note": 73,
      "start": 23.0204,
      "duration": 0.0166,
      "velocity": 120,
      "chip": "ym2612"
    },
    {
      "channel": 2,
      "note": 52,
      "start": 23.0216,
      "duration": 0.0168,
      "velocity": 100,
      "chip": "ym2612"
    },
    {
      "channel": 4,
      "note": 64,
      "start": 23.0356,
      "duration": 0.0159,
      "velocity": 120,
      "chip": "ym2612"
    },
    {
      "channel": 3,
      "note": 71,
      "start": 23.037,
      "duration": 0.0157,
      "velocity": 120,
      "chip": "ym2612"
    },
    {
      "channel": 2,
      "note": 52,
      "start": 23.0385,
      "duration": 0.0155,
      "velocity": 100,
      "chip": "ym2612"
    },
    {
      "channel": 4,
      "note": 64,
      "start": 23.0515,
      "duration": 0.0161,
      "velocity": 120,
      "chip": "ym2612"
    },
    {
      "channel": 3,
      "note": 71,
      "start": 23.0527,
      "duration": 0.016,
      "velocity": 120,
      "chip": "ym2612"
    },
    {
      "channel": 2,
      "note": 52,
      "start": 23.0539,
      "duration": 0.0159,
      "velocity": 100,
      "chip": "ym2612"
    },
    {
      "channel": 4,
      "note": 64,
      "start": 23.0676,
      "duration": 0.0161,
      "velocity": 120,
      "chip": "ym2612"
    },
    {
      "channel": 3,
      "note": 71,
      "start": 23.0688,
      "duration": 0.0161,
      "velocity": 120,
      "chip": "ym2612"
    },
    {
      "channel": 2,
      "note": 52,
      "start": 23.0698,
      "duration": 0.0161,
      "velocity": 100,
      "chip": "ym2612"
    },
    {
      "channel": 4,
      "note": 64,
      "start": 23.0837,
      "duration": 0.0161,
      "velocity": 120,
      "chip": "ym2612"
    },
    {
      "channel": 3,
      "note": 71,
      "start": 23.0849,
      "duration": 0.0161,
      "velocity": 120,
      "chip": "ym2612"
    },
    {
      "channel": 2,
      "note": 52,
      "start": 23.0859,
      "duration": 0.0161,
      "velocity": 100,
      "chip": "ym2612"
    },
    {
      "channel": 4,
      "note": 64,
      "start": 23.0998,
      "duration": 0.0161,
      "velocity": 120,
      "chip": "ym2612"
    },
    {
      "channel": 3,
      "note": 71,
      "start": 23.101,
      "duration": 0.0161,
      "velocity": 120,
      "chip": "ym2612"
    },
    {
      "channel": 2,
      "note": 52,
      "start": 23.102,
      "duration": 0.0161,
      "velocity": 100,
      "chip": "ym2612"
    },
    {
      "channel": 4,
      "note": 64,
      "start": 23.1159,
      "duration": 0.0161,
      "velocity": 120,
      "chip": "ym2612"
    },
    {
      "channel": 3,
      "note": 71,
      "start": 23.1171,
      "duration": 0.0161,
      "velocity": 120,
      "chip": "ym2612"
    },
    {
      "channel": 2,
      "note": 52,
      "start": 23.1182,
      "duration": 0.0161,
      "velocity": 100,
      "chip": "ym2612"
    },
    {
      "channel": 4,
      "note": 64,
      "start": 23.132,
      "duration": 0.0161,
      "velocity": 120,
      "chip": "ym2612"
    },
    {
      "channel": 3,
      "note": 71,
      "start": 23.1332,
      "duration": 0.0161,
      "velocity": 120,
      "chip": "ym2612"
    },
    {
      "channel": 2,
      "note": 52,
      "start": 23.1343,
      "duration": 0.0161,
      "velocity": 100,
      "chip": "ym2612"
    },
    {
      "channel": 4,
      "note": 64,
      "start": 23.1481,
      "duration": 0.0168,
      "velocity": 120,
      "chip": "ym2612"
    },
    {
      "channel": 3,
      "note": 71,
      "start": 23.1492,
      "duration": 0.0168,
      "velocity": 120,
      "chip": "ym2612"
    },
    {
      "channel": 2,
      "note": 52,
      "start": 23.1504,
      "duration": 0.0167,
      "velocity": 100,
      "chip": "ym2612"
    },
    {
      "channel": 4,
      "note": 64,
      "start": 23.1649,
      "duration": 0.0167,
      "velocity": 120,
      "chip": "ym2612"
    },
    {
      "channel": 3,
      "note": 71,
      "start": 23.166,
      "duration": 0.0167,
      "velocity": 120,
      "chip": "ym2612"
    },
    {
      "channel": 2,
      "note": 52,
      "start": 23.1671,
      "duration": 0.0167,
      "velocity": 100,
      "chip": "ym2612"
    },
    {
      "channel": 4,
      "note": 64,
      "start": 23.1815,
      "duration": 0.0163,
      "velocity": 120,
      "chip": "ym2612"
    },
    {
      "channel": 3,
      "note": 71,
      "start": 23.1827,
      "duration": 0.0163,
      "velocity": 120,
      "chip": "ym2612"
    },
    {
      "channel": 2,
      "note": 52,
      "start": 23.1838,
      "duration": 0.0163,
      "velocity": 100,
      "chip": "ym2612"
    },
    {
      "channel": 4,
      "note": 64,
      "start": 23.1978,
      "duration": 0.0147,
      "velocity": 120,
      "chip": "ym2612"
    },
    {
      "channel": 3,
      "note": 71,
      "start": 23.199,
      "duration": 0.0147,
      "velocity": 120,
      "chip": "ym2612"
    },
    {
      "channel": 2,
      "note": 52,
      "start": 23.2001,
      "duration": 0.0147,
      "velocity": 100,
      "chip": "ym2612"
    },
    {
      "channel": 4,
      "note": 64,
      "start": 23.2125,
      "duration": 0.0224,
      "velocity": 120,
      "chip": "ym2612"
    },
    {
      "channel": 3,
      "note": 71,
      "start": 23.2137,
      "duration": 0.0227,
      "velocity": 120,
      "chip": "ym2612"
    },
    {
      "channel": 2,
      "note": 52,
      "start": 23.2148,
      "duration": 0.023,
      "velocity": 100,
      "chip": "ym2612"
    },
    {
      "channel": 0,
      "note": 36,
      "start": 23.2337,
      "duration": 0.0144,
      "velocity": 115,
      "chip": "ym2612"
    },
    {
      "channel": 4,
      "note": 64,
      "start": 23.2351,
      "duration": 0.0142,
      "velocity": 120,
      "chip": "ym2612"
    },
    {
      "channel": 3,
      "note": 71,
      "start": 23.2364,
      "duration": 0.014,
      "velocity": 120,
      "chip": "ym2612"
    },
    {
      "channel": 2,
      "note": 52,
      "start": 23.2379,
      "duration": 0.0137,
      "velocity": 100,
      "chip": "ym2612"
    },
    {
      "channel": 0,
      "note": 36,
      "start": 23.248,
      "duration": 0.0156,
      "velocity": 115,
      "chip": "ym2612"
    },
    {
      "channel": 4,
      "note": 64,
      "start": 23.2492,
      "duration": 0.0156,
      "velocity": 120,
      "chip": "ym2612"
    },
    {
      "channel": 3,
      "note": 71,
      "start": 23.2505,
      "duration": 0.0155,
      "velocity": 120,
      "chip": "ym2612"
    },
    {
      "channel": 2,
      "note": 52,
      "start": 23.2516,
      "duration": 0.0155,
      "velocity": 100,
      "chip": "ym2612"
    },
    {
      "channel": 0,
      "note": 37,
      "start": 23.2637,
      "duration": 0.0141,
      "velocity": 115,
      "chip": "ym2612"
    },
    {
      "channel": 4,
      "note": 64,
      "start": 23.2648,
      "duration": 0.0141,
      "velocity": 120,
      "chip": "ym2612"
    },
    {
      "channel": 3,
      "note": 71,
      "start": 23.266,
      "duration": 0.0141,
      "velocity": 120,
      "chip": "ym2612"
    },
    {
      "channel": 2,
      "note": 52,
      "start": 23.2671,
      "duration": 0.0141,
      "velocity": 100,
      "chip": "ym2612"
    },
    {
      "channel": 0,
      "note": 37,
      "start": 23.2777,
      "duration": 0.0158,
      "velocity": 115,
      "chip": "ym2612"
    },
    {
      "channel": 4,
      "note": 64,
      "start": 23.2789,
      "duration": 0.0185,
      "velocity": 120,
      "chip": "ym2612"
    },
    {
      "channel": 3,
      "note": 71,
      "start": 23.28,
      "duration": 0.0185,
      "velocity": 120,
      "chip": "ym2612"
    },
    {
      "channel": 2,
      "note": 52,
      "start": 23.2812,
      "duration": 0.0185,
      "velocity": 100,
      "chip": "ym2612"
    },
    {
      "channel": 0,
      "note": 38,
      "start": 23.2935,
      "duration": 0.0161,
      "velocity": 115,
      "chip": "ym2612"
    },
    {
      "channel": 4,
      "note": 64,
      "start": 23.2974,
      "duration": 0.0161,
      "velocity": 120,
      "chip": "ym2612"
    },
    {
      "channel": 3,
      "note": 71,
      "start": 23.2985,
      "duration": 0.0161,
      "velocity": 120,
      "chip": "ym2612"
    },
    {
      "channel": 2,
      "note": 52,
      "start": 23.2997,
      "duration": 0.0161,
      "velocity": 100,
      "chip": "ym2612"
    },
    {
      "channel": 0,
      "note": 38,
      "start": 23.3096,
      "duration": 0.0161,
      "velocity": 115,
      "chip": "ym2612"
    },
    {
      "channel": 4,
      "note": 64,
      "start": 23.3135,
      "duration": 0.0134,
      "velocity": 120,
      "chip": "ym2612"
    },
    {
      "channel": 3,
      "note": 71,
      "start": 23.3146,
      "duration": 0.0158,
      "velocity": 120,
      "chip": "ym2612"
    },
    {
      "channel": 2,
      "note": 52,
      "start": 23.3158,
      "duration": 0.0157,
      "velocity": 100,
      "chip": "ym2612"
    },
    {
      "channel": 0,
      "note": 39,
      "start": 23.3257,
      "duration": 0.0161,
      "velocity": 115,
      "chip": "ym2612"
    },
    {
      "channel": 4,
      "note": 64,
      "start": 23.3268,
      "duration": 0.0161,
      "velocity": 120,
      "chip": "ym2612"
    },
    {
      "channel": 3,
      "note": 71,
      "start": 23.3304,
      "duration": 0.014,
      "velocity": 120,
      "chip": "ym2612"
    },
    {
      "channel": 2,
      "note": 52,
      "start": 23.3315,
      "duration": 0.0141,
      "velocity": 100,
      "chip": "ym2612"
    },
    {
      "channel": 0,
      "note": 39,
      "start": 23.3418,
      "duration": 0.0161,
      "velocity": 115,
      "chip": "ym2612"
    },
    {
      "channel": 4,
      "note": 64,
      "start": 23.3429,
      "duration": 0.0161,
      "velocity": 120,
      "chip": "ym2612"
    },
    {
      "channel": 3,
      "note": 71,
      "start": 23.3444,
      "duration": 0.0158,
      "velocity": 120,
      "chip": "ym2612"
    },
    {
      "channel": 2,
      "note": 52,
      "start": 23.3456,
      "duration": 0.0185,
      "velocity": 100,
      "chip": "ym2612"
    },
    {
      "channel": 0,
      "note": 40,
      "start": 23.3579,
      "duration": 0.0161,
      "velocity": 115,
      "chip": "ym2612"
    },
    {
      "channel": 4,
      "note": 64,
      "start": 23.359,
      "duration": 0.0161,
      "velocity": 120,
      "chip": "ym2612"
    },
    {
      "channel": 3,
      "note": 71,
      "start": 23.3602,
      "duration": 0.0161,
      "velocity": 120,
      "chip": "ym2612"
    },
    {
      "channel": 2,
      "note": 52,
      "start": 23.3641,
      "duration": 0.0161,
      "velocity": 100,
      "chip": "ym2612"
    },
    {
      "channel": 0,
      "note": 40,
      "start": 23.374,
      "duration": 0.0161,
      "velocity": 115,
      "chip": "ym2612"
    },
    {
      "channel": 4,
      "note": 64,
      "start": 23.3751,
      "duration": 0.0162,
      "velocity": 120,
      "chip": "ym2612"
    },
    {
      "channel": 3,
      "note": 71,
      "start": 23.3763,
      "duration": 0.0161,
      "velocity": 120,
      "chip": "ym2612"
    },
    {
      "channel": 2,
      "note": 52,
      "start": 23.3802,
      "duration": 0.0134,
      "velocity": 100,
      "chip": "ym2612"
    },
    {
      "channel": 0,
      "note": 40,
      "start": 23.3901,
      "duration": 0.0161,
      "velocity": 115,
      "chip": "ym2612"
    },
    {
      "channel": 4,
      "note": 64,
      "start": 23.3913,
      "duration": 0.0161,
      "velocity": 120,
      "chip": "ym2612"
    },
    {
      "channel": 3,
      "note": 71,
      "start": 23.3924,
      "duration": 0.0161,
      "velocity": 120,
      "chip": "ym2612"
    },
    {
      "channel": 2,
      "note": 52,
      "start": 23.3935,
      "duration": 0.0161,
      "velocity": 100,
      "chip": "ym2612"
    },
    {
      "channel": 0,
      "note": 41,
      "start": 23.4062,
      "duration": 0.0161,
      "velocity": 115,
      "chip": "ym2612"
    },
    {
      "channel": 4,
      "note": 64,
      "start": 23.4074,
      "duration": 0.0163,
      "velocity": 120,
      "chip": "ym2612"
    },
    {
      "channel": 3,
      "note": 71,
      "start": 23.4085,
      "duration": 0.0166,
      "velocity": 120,
      "chip": "ym2612"
    },
    {
      "channel": 2,
      "note": 52,
      "start": 23.4096,
      "duration": 0.0169,
      "velocity": 100,
      "chip": "ym2612"
    },
    {
      "channel": 0,
      "note": 41,
      "start": 23.4223,
      "duration": 0.0161,
      "velocity": 115,
      "chip": "ym2612"
    },
    {
      "channel": 4,
      "note": 69,
      "start": 23.4237,
      "duration": 0.0159,
      "velocity": 120,
      "chip": "ym2612"
    },
    {
      "channel": 3,
      "note": 76,
      "start": 23.4251,
      "duration": 0.0157,
      "velocity": 120,
      "chip": "ym2612"
    },
    {
      "channel": 2,
      "note": 52,
      "start": 23.4266,
      "duration": 0.0154,
      "velocity": 100,
      "chip": "ym2612"
    },
    {
      "channel": 0,
      "note": 42,
      "start": 23.4384,
      "duration": 0.0161,
      "velocity": 115,
      "chip": "ym2612"
    },
    {
      "channel": 4,
      "note": 69,
      "start": 23.4396,
      "duration": 0.016,
      "velocity": 120,
      "chip": "ym2612"
    },
    {
      "channel": 3,
      "note": 76,
      "start": 23.4408,
      "duration": 0.016,
      "velocity": 120,
      "chip": "ym2612"
    },
    {
      "channel": 2,
      "note": 52,
      "start": 23.442,
      "duration": 0.0159,
      "velocity": 100,
      "chip": "ym2612"
    },
    {
      "channel": 0,
      "note": 42,
      "start": 23.4545,
      "duration": 0.0161,
      "velocity": 115,
      "chip": "ym2612"
    },
    {
      "channel": 4,
      "note": 69,
      "start": 23.4557,
      "duration": 0.0161,
      "velocity": 120,
      "chip": "ym2612"
    },
    {
      "channel": 3,
      "note": 76,
      "start": 23.4568,
      "duration": 0.0161,
      "velocity": 120,
      "chip": "ym2612"
    },
    {
      "channel": 2,
      "note": 52,
      "start": 23.458,
      "duration": 0.0161,
      "velocity": 100,
      "chip": "ym2612"
    },
    {
      "channel": 0,
      "note": 43,
      "start": 23.4706,
      "duration": 0.0161,
      "velocity": 115,
      "chip": "ym2612"
    },
    {
      "channel": 4,
      "note": 69,
      "start": 23.4717,
      "duration": 0.0161,
      "velocity": 120,
      "chip": "ym2612"
    },
    {
      "channel": 3,
      "note": 76,
      "start": 23.4729,
      "duration": 0.0161,
      "velocity": 120,
      "chip": "ym2612"
    },
    {
      "channel": 2,
      "note": 52,
      "start": 23.474,
      "duration": 0.0161,
      "velocity": 100,
      "chip": "ym2612"
    },
    {
      "channel": 0,
      "note": 43,
      "start": 23.4867,
      "duration": 0.0161,
      "velocity": 115,
      "chip": "ym2612"
    },
    {
      "channel": 4,
      "note": 69,
      "start": 23.4878,
      "duration": 0.0162,
      "velocity": 120,
      "chip": "ym2612"
    },
    {
      "channel": 3,
      "note": 76,
      "start": 23.489,
      "duration": 0.0161,
      "velocity": 120,
      "chip": "ym2612"
    },
    {
      "channel": 2,
      "note": 52,
      "start": 23.4901,
      "duration": 0.0161,
      "velocity": 100,
      "chip": "ym2612"
    },
    {
      "channel": 0,
      "note": 44,
      "start": 23.5028,
      "duration": 0.0161,
      "velocity": 115,
      "chip": "ym2612"
    },
    {
      "channel": 4,
      "note": 69,
      "start": 23.504,
      "duration": 0.0161,
      "velocity": 120,
      "chip": "ym2612"
    },
    {
      "channel": 3,
      "note": 76,
      "start": 23.5051,
      "duration": 0.0161,
      "velocity": 120,
      "chip": "ym2612"
    },
    {
      "channel": 2,
      "note": 52,
      "start": 23.5062,
      "duration": 0.0161,
      "velocity": 100,
      "chip": "ym2612"
    },
    {
      "channel": 0,
      "note": 44,
      "start": 23.5189,
      "duration": 0.0161,
      "velocity": 115,
      "chip": "ym2612"
    },
    {
      "channel": 4,
      "note": 69,
      "start": 23.5201,
      "duration": 0.0161,
      "velocity": 120,
      "chip": "ym2612"
    },
    {
      "channel": 3,
      "note": 76,
      "start": 23.5212,
      "duration": 0.0162,
      "velocity": 120,
      "chip": "ym2612"
    },
    {
      "channel": 2,
      "note": 52,
      "start": 23.5223,
      "duration": 0.0161,
      "velocity": 100,
      "chip": "ym2612"
    },
    {
      "channel": 0,
      "note": 44,
      "start": 23.535,
      "duration": 0.0161,
      "velocity": 115,
      "chip": "ym2612"
    },
    {
      "channel": 4,
      "note": 69,
      "start": 23.5362,
      "duration": 0.0161,
      "velocity": 120,
      "chip": "ym2612"
    },
    {
      "channel": 3,
      "note": 76,
      "start": 23.5373,
      "duration": 0.0161,
      "velocity": 120,
      "chip": "ym2612"
    },
    {
      "channel": 2,
      "note": 52,
      "start": 23.5384,
      "duration": 0.0161,
      "velocity": 100,
      "chip": "ym2612"
    },
    {
      "channel": 0,
      "note": 45,
      "start": 23.5511,
      "duration": 0.0161,
      "velocity": 115,
      "chip": "ym2612"
    },
    {
      "channel": 4,
      "note": 69,
      "start": 23.5523,
      "duration": 0.0161,
      "velocity": 120,
      "chip": "ym2612"
    },
    {
      "channel": 3,
      "note": 76,
      "start": 23.5534,
      "duration": 0.0161,
      "velocity": 120,
      "chip": "ym2612"
    },
    {
      "channel": 2,
      "note": 52,
      "start": 23.5545,
      "duration": 0.0161,
      "velocity": 100,
      "chip": "ym2612"
    },
    {
      "channel": 0,
      "note": 45,
      "start": 23.5672,
      "duration": 0.0161,
      "velocity": 115,
      "chip": "ym2612"
    },
    {
      "channel": 4,
      "note": 69,
      "start": 23.5684,
      "duration": 0.0161,
      "velocity": 120,
      "chip": "ym2612"
    },
    {
      "channel": 3,
      "note": 76,
      "start": 23.5695,
      "duration": 0.0161,
      "velocity": 120,
      "chip": "ym2612"
    },
    {
      "channel": 2,
      "note": 52,
      "start": 23.5706,
      "duration": 0.0161,
      "velocity": 100,
      "chip": "ym2612"
    },
    {
      "channel": 0,
      "note": 46,
      "start": 23.5833,
      "duration": 0.0161,
      "velocity": 115,
      "chip": "ym2612"
    },
    {
      "channel": 4,
      "note": 69,
      "start": 23.5845,
      "duration": 0.0161,
      "velocity": 120,
      "chip": "ym2612"
    },
    {
      "channel": 3,
      "note": 76,
      "start": 23.5856,
      "duration": 0.0161,
      "velocity": 120,
      "chip": "ym2612"
    },
    {
      "channel": 2,
      "note": 52,
      "start": 23.5868,
      "duration": 0.0161,
      "velocity": 100,
      "chip": "ym2612"
    },
    {
      "channel": 0,
      "note": 46,
      "start": 23.5994,
      "duration": 0.0179,
      "velocity": 124,
      "chip": "ym2612"
    },
    {
      "channel": 4,
      "note": 69,
      "start": 23.6006,
      "duration": 0.0181,
      "velocity": 120,
      "chip": "ym2612"
    },
    {
      "channel": 3,
      "note": 76,
      "start": 23.6017,
      "duration": 0.0184,
      "velocity": 120,
      "chip": "ym2612"
    },
    {
      "channel": 2,
      "note": 52,
      "start": 23.6029,
      "duration": 0.0187,
      "velocity": 100,
      "chip": "ym2612"
    },
    {
      "channel": 0,
      "note": 84,
      "start": 23.6173,
      "duration": 0.0148,
      "velocity": 124,
      "chip": "ym2612"
    },
    {
      "channel": 4,
      "note": 69,
      "start": 23.6188,
      "duration": 0.0146,
      "velocity": 120,
      "chip": "ym2612"
    },
    {
      "channel": 3,
      "note": 76,
      "start": 23.6202,
      "duration": 0.0144,
      "velocity": 120,
      "chip": "ym2612"
    },
    {
      "channel": 2,
      "note": 52,
      "start": 23.6216,
      "duration": 0.0141,
      "velocity": 100,
      "chip": "ym2612"
    },
    {
      "channel": 0,
      "note": 82,
      "start": 23.6321,
      "duration": 0.0166,
      "velocity": 124,
      "chip": "ym2612"
    },
    {
      "channel": 4,
      "note": 69,
      "start": 23.6333,
      "duration": 0.0165,
      "velocity": 120,
      "chip": "ym2612"
    },
    {
      "channel": 3,
      "note": 76,
      "start": 23.6345,
      "duration": 0.0165,
      "velocity": 120,
      "chip": "ym2612"
    },
    {
      "channel": 2,
      "note": 52,
      "start": 23.6357,
      "duration": 0.0165,
      "velocity": 100,
      "chip": "ym2612"
    },
    {
      "channel": 0,
      "note": 80,
      "start": 23.6487,
      "duration": 0.0163,
      "velocity": 124,
      "chip": "ym2612"
    },
    {
      "channel": 4,
      "note": 69,
      "start": 23.6499,
      "duration": 0.0163,
      "velocity": 120,
      "chip": "ym2612"
    },
    {
      "channel": 3,
      "note": 76,
      "start": 23.651,
      "duration": 0.0163,
      "velocity": 120,
      "chip": "ym2612"
    },
    {
      "channel": 2,
      "note": 52,
      "start": 23.6522,
      "duration": 0.0163,
      "velocity": 100,
      "chip": "ym2612"
    },
    {
      "channel": 0,
      "note": 77,
      "start": 23.665,
      "duration": 0.0149,
      "velocity": 124,
      "chip": "ym2612"
    },
    {
      "channel": 4,
      "note": 69,
      "start": 23.6661,
      "duration": 0.015,
      "velocity": 120,
      "chip": "ym2612"
    },
    {
      "channel": 3,
      "note": 76,
      "start": 23.6673,
      "duration": 0.0149,
      "velocity": 120,
      "chip": "ym2612"
    },
    {
      "channel": 2,
      "note": 52,
      "start": 23.6684,
      "duration": 0.015,
      "velocity": 100,
      "chip": "ym2612"
    },
    {
      "channel": 0,
      "note": 75,
      "start": 23.68,
      "duration": 0.0188,
      "velocity": 124,
      "chip": "ym2612"
    },
    {
      "channel": 4,
      "note": 69,
      "start": 23.6811,
      "duration": 0.0188,
      "velocity": 120,
      "chip": "ym2612"
    },
    {
      "channel": 3,
      "note": 76,
      "start": 23.6822,
      "duration": 0.0188,
      "velocity": 120,
      "chip": "ym2612"
    },
    {
      "channel": 2,
      "note": 52,
      "start": 23.6834,
      "duration": 0.0187,
      "velocity": 100,
      "chip": "ym2612"
    },
    {
      "channel": 0,
      "note": 72,
      "start": 23.6987,
      "duration": 0.0161,
      "velocity": 124,
      "chip": "ym2612"
    },
    {
      "channel": 4,
      "note": 69,
      "start": 23.6999,
      "duration": 0.0162,
      "velocity": 120,
      "chip": "ym2612"
    },
    {
      "channel": 3,
      "note": 76,
      "start": 23.701,
      "duration": 0.0161,
      "velocity": 120,
      "chip": "ym2612"
    },
    {
      "channel": 2,
      "note": 52,
      "start": 23.7021,
      "duration": 0.0162,
      "velocity": 100,
      "chip": "ym2612"
    },
    {
      "channel": 0,
      "note": 70,
      "start": 23.7149,
      "duration": 0.0157,
      "velocity": 124,
      "chip": "ym2612"
    },
    {
      "channel": 4,
      "note": 69,
      "start": 23.716,
      "duration": 0.0158,
      "velocity": 120,
      "chip": "ym2612"
    },
    {
      "channel": 3,
      "note": 76,
      "start": 23.7172,
      "duration": 0.0157,
      "velocity": 120,
      "chip": "ym2612"
    },
    {
      "channel": 2,
      "note": 52,
      "start": 23.7183,
      "duration": 0.0157,
      "velocity": 100,
      "chip": "ym2612"
    },
    {
      "channel": 0,
      "note": 68,
      "start": 23.7306,
      "duration": 0.0141,
      "velocity": 124,
      "chip": "ym2612"
    },
    {
      "channel": 4,
      "note": 69,
      "start": 23.7318,
      "duration": 0.0141,
      "velocity": 120,
      "chip": "ym2612"
    },
    {
      "channel": 3,
      "note": 76,
      "start": 23.7329,
      "duration": 0.0141,
      "velocity": 120,
      "chip": "ym2612"
    },
    {
      "channel": 2,
      "note": 52,
      "start": 23.734,
      "duration": 0.0141,
      "velocity": 100,
      "chip": "ym2612"
    },
    {
      "channel": 0,
      "note": 65,
      "start": 23.7446,
      "duration": 0.0158,
      "velocity": 124,
      "chip": "ym2612"
    },
    {
      "channel": 4,
      "note": 69,
      "start": 23.7459,
      "duration": 0.0185,
      "velocity": 120,
      "chip": "ym2612"
    },
    {
      "channel": 3,
      "note": 76,
      "start": 23.7469,
      "duration": 0.0185,
      "velocity": 120,
      "chip": "ym2612"
    },
    {
      "channel": 2,
      "note": 52,
      "start": 23.7481,
      "duration": 0.0185,
      "velocity": 100,
      "chip": "ym2612"
    },
    {
      "channel": 0,
      "note": 63,
      "start": 23.7604,
      "duration": 0.0153,
      "velocity": 1,
      "chip": "ym2612"
    },
    {
      "channel": 4,
      "note": 69,
      "start": 23.7644,
      "duration": 0.0125,
      "velocity": 120,
      "chip": "ym2612"
    },
    {
      "channel": 3,
      "note": 76,
      "start": 23.7655,
      "duration": 0.0153,
      "velocity": 120,
      "chip": "ym2612"
    },
    {
      "channel": 2,
      "note": 52,
      "start": 23.7666,
      "duration": 0.0153,
      "velocity": 100,
      "chip": "ym2612"
    },
    {
      "channel": 4,
      "note": 69,
      "start": 23.7769,
      "duration": 0.0153,
      "velocity": 120,
      "chip": "ym2612"
    },
    {
      "channel": 3,
      "note": 76,
      "start": 23.7808,
      "duration": 0.0125,
      "velocity": 120,
      "chip": "ym2612"
    },
    {
      "channel": 2,
      "note": 52,
      "start": 23.7819,
      "duration": 0.0149,
      "velocity": 100,
      "chip": "ym2612"
    },
    {
      "channel": 4,
      "note": 69,
      "start": 23.7922,
      "duration": 0.02,
      "velocity": 120,
      "chip": "ym2612"
    },
    {
      "channel": 3,
      "note": 76,
      "start": 23.7933,
      "duration": 0.0203,
      "velocity": 120,
      "chip": "ym2612"
    },
    {
      "channel": 2,
      "note": 52,
      "start": 23.7968,
      "duration": 0.0183,
      "velocity": 100,
      "chip": "ym2612"
    },
    {
      "channel": 0,
      "note": 36,
      "start": 23.8105,
      "duration": 0.0144,
      "velocity": 115,
      "chip": "ym2612"
    },
    {
      "channel": 4,
      "note": 67,
      "start": 23.8123,
      "duration": 0.0138,
      "velocity": 120,
      "chip": "ym2612"
    },
    {
      "channel": 3,
      "note": 74,
      "start": 23.8137,
      "duration": 0.0163,
      "velocity": 120,
      "chip": "ym2612"
    },
    {
      "channel": 2,
      "note": 52,
      "start": 23.8151,
      "duration": 0.0161,
      "velocity": 100,
      "chip": "ym2612"
    },
    {
      "channel": 0,
      "note": 36,
      "start": 23.8249,
      "duration": 0.0161,
      "velocity": 115,
      "chip": "ym2612"
    },
    {
      "channel": 4,
      "note": 67,
      "start": 23.8261,
      "duration": 0.016,
      "velocity": 120,
      "chip": "ym2612"
    },
    {
      "channel": 3,
      "note": 74,
      "start": 23.83,
      "duration": 0.0132,
      "velocity": 120,
      "chip": "ym2612"
    },
    {
      "channel": 2,
      "note": 52,
      "start": 23.8312,
      "duration": 0.0159,
      "velocity": 100,
      "chip": "ym2612"
    },
    {
      "channel": 0,
      "note": 37,
      "start": 23.841,
      "duration": 0.0161,
      "velocity": 115,
      "chip": "ym2612"
    },
    {
      "channel": 4,
      "note": 67,
      "start": 23.8421,
      "duration": 0.0161,
      "velocity": 120,
      "chip": "ym2612"
    },
    {
      "channel": 3,
      "note": 74,
      "start": 23.8433,
      "duration": 0.0161,
      "velocity": 120,
      "chip": "ym2612"
    },
    {
      "channel": 2,
      "note": 52,
      "start": 23.8471,
      "duration": 0.0133,
      "velocity": 100,
      "chip": "ym2612"
    },
    {
      "channel": 0,
      "note": 37,
      "start": 23.8571,
      "duration": 0.0161,
      "velocity": 115,
      "chip": "ym2612"
    },
    {
      "channel": 4,
      "note": 67,
      "start": 23.8582,
      "duration": 0.0161,
      "velocity": 120,
      "chip": "ym2612"
    },
    {
      "channel": 3,
      "note": 74,
      "start": 23.8593,
      "duration": 0.0161,
      "velocity": 120,
      "chip": "ym2612"
    },
    {
      "channel": 2,
      "note": 52,
      "start": 23.8604,
      "duration": 0.0162,
      "velocity": 100,
      "chip": "ym2612"
    },
    {
      "channel": 0,
      "note": 38,
      "start": 23.8732,
      "duration": 0.0161,
      "velocity": 115,
      "chip": "ym2612"
    },
    {
      "channel": 4,
      "note": 67,
      "start": 23.8743,
      "duration": 0.0161,
      "velocity": 120,
      "chip": "ym2612"
    },
    {
      "channel": 3,
      "note": 74,
      "start": 23.8754,
      "duration": 0.0161,
      "velocity": 120,
      "chip": "ym2612"
    },
    {
      "channel": 2,
      "note": 52,
      "start": 23.8766,
      "duration": 0.0161,
      "velocity": 100,
      "chip": "ym2612"
    },
    {
      "channel": 0,
      "note": 38,
      "start": 23.8893,
      "duration": 0.0161,
      "velocity": 115,
      "chip": "ym2612"
    },
    {
      "channel": 4,
      "note": 67,
      "start": 23.8904,
      "duration": 0.0161,
      "velocity": 120,
      "chip": "ym2612"
    },
    {
      "channel": 3,
      "note": 74,
      "start": 23.8915,
      "duration": 0.0161,
      "velocity": 120,
      "chip": "ym2612"
    },
    {
      "channel": 2,
      "note": 52,
      "start": 23.8927,
      "duration": 0.0161,
      "velocity": 100,
      "chip": "ym2612"
    },
    {
      "channel": 0,
      "note": 39,
      "start": 23.9054,
      "duration": 0.0161,
      "velocity": 115,
      "chip": "ym2612"
    },
    {
      "channel": 4,
      "note": 67,
      "start": 23.9065,
      "duration": 0.0161,
      "velocity": 120,
      "chip": "ym2612"
    },
    {
      "channel": 3,
      "note": 74,
      "start": 23.9076,
      "duration": 0.0161,
      "velocity": 120,
      "chip": "ym2612"
    },
    {
      "channel": 2,
      "note": 52,
      "start": 23.9088,
      "duration": 0.0161,
      "velocity": 100,
      "chip": "ym2612"
    },
    {
      "channel": 0,
      "note": 39,
      "start": 23.9214,
      "duration": 0.0161,
      "velocity": 115,
      "chip": "ym2612"
    },
    {
      "channel": 4,
      "note": 67,
      "start": 23.9226,
      "duration": 0.0161,
      "velocity": 120,
      "chip": "ym2612"
    },
    {
      "channel": 3,
      "note": 74,
      "start": 23.9237,
      "duration": 0.0161,
      "velocity": 120,
      "chip": "ym2612"
    },
    {
      "channel": 2,
      "note": 52,
      "start": 23.9249,
      "duration": 0.0161,
      "velocity": 100,
      "chip": "ym2612"
    },
    {
      "channel": 0,
      "note": 40,
      "start": 23.9375,
      "duration": 0.0161,
      "velocity": 115,
      "chip": "ym2612"
    },
    {
      "channel": 4,
      "note": 67,
      "start": 23.9387,
      "duration": 0.0161,
      "velocity": 120,
      "chip": "ym2612"
    },
    {
      "channel": 3,
      "note": 74,
      "start": 23.9398,
      "duration": 0.0161,
      "velocity": 120,
      "chip": "ym2612"
    },
    {
      "channel": 2,
      "note": 52,
      "start": 23.941,
      "duration": 0.0161,
      "velocity": 100,
      "chip": "ym2612"
    },
    {
      "channel": 0,
      "note": 40,
      "start": 23.9536,
      "duration": 0.0161,
      "velocity": 115,
      "chip": "ym2612"
    },
    {
      "channel": 4,
      "note": 67,
      "start": 23.9548,
      "duration": 0.0162,
      "velocity": 120,
      "chip": "ym2612"
    },
    {
      "channel": 3,
      "note": 74,
      "start": 23.9559,
      "duration": 0.0161,
      "velocity": 120,
      "chip": "ym2612"
    },
    {
      "channel": 2,
      "note": 52,
      "start": 23.9571,
      "duration": 0.0161,
      "velocity": 100,
      "chip": "ym2612"
    },
    {
      "channel": 0,
      "note": 40,
      "start": 23.9698,
      "duration": 0.016,
      "velocity": 115,
      "chip": "ym2612"
    },
    {
      "channel": 4,
      "note": 67,
      "start": 23.9709,
      "duration": 0.0161,
      "velocity": 120,
      "chip": "ym2612"
    },
    {
      "channel": 3,
      "note": 74,
      "start": 23.9721,
      "duration": 0.0161,
      "velocity": 120,
      "chip": "ym2612"
    },
    {
      "channel": 2,
      "note": 52,
      "start": 23.9732,
      "duration": 0.0161,
      "velocity": 100,
      "chip": "ym2612"
    },
    {
      "channel": 0,
      "note": 41,
      "start": 23.9858,
      "duration": 0.0179,
      "velocity": 115,
      "chip": "ym2612"
    },
    {
      "channel": 4,
      "note": 67,
      "start": 23.987,
      "duration": 0.018,
      "velocity": 120,
      "chip": "ym2612"
    },
    {
      "channel": 3,
      "note": 74,
      "start": 23.9882,
      "duration": 0.0184,
      "velocity": 120,
      "chip": "ym2612"
    },
    {
      "channel": 2,
      "note": 52,
      "start": 23.9893,
      "duration": 0.0187,
      "velocity": 100,
      "chip": "ym2612"
    },
    {
      "channel": 0,
      "note": 36,
      "start": 24.0037,
      "duration": 0.0144,
      "velocity": 115,
      "chip": "ym2612"
    },
    {
      "channel": 4,
      "note": 67,
      "start": 24.0051,
      "duration": 0.0142,
      "velocity": 120,
      "chip": "ym2612"
    },
    {
      "channel": 3,
      "note": 74,
      "start": 24.0066,
      "duration": 0.0139,
      "velocity": 120,
      "chip": "ym2612"
    },
    {
      "channel": 2,
      "note": 52,
      "start": 24.008,
      "duration": 0.0137,
      "velocity": 100,
      "chip": "ym2612"
    },
    {
      "channel": 0,
      "note": 36,
      "start": 24.0181,
      "duration": 0.016,
      "velocity": 115,
      "chip": "ym2612"
    },
    {
      "channel": 4,
      "note": 67,
      "start": 24.0193,
      "duration": 0.016,
      "velocity": 120,
      "chip": "ym2612"
    },
    {
      "channel": 3,
      "note": 74,
      "start": 24.0205,
      "duration": 0.016,
      "velocity": 120,
      "chip": "ym2612"
    },
    {
      "channel": 2,
      "note": 52,
      "start": 24.0217,
      "duration": 0.0159,
      "velocity": 100,
      "chip": "ym2612"
    },
    {
      "channel": 0,
      "note": 37,
      "start": 24.0341,
      "duration": 0.0161,
      "velocity": 115,
      "chip": "ym2612"
    },
    {
      "channel": 4,
      "note": 67,
      "start": 24.0353,
      "duration": 0.0161,
      "velocity": 120,
      "chip": "ym2612"
    },
    {
      "channel": 3,
      "note": 74,
      "start": 24.0364,
      "duration": 0.0161,
      "velocity": 120,
      "chip": "ym2612"
    },
    {
      "channel": 2,
      "note": 52,
      "start": 24.0376,
      "duration": 0.0161,
      "velocity": 100,
      "chip": "ym2612"
    },
    {
      "channel": 0,
      "note": 37,
      "start": 24.0502,
      "duration": 0.0161,
      "velocity": 115,
      "chip": "ym2612"
    },
    {
      "channel": 4,
      "note": 67,
      "start": 24.0514,
      "duration": 0.0161,
      "velocity": 120,
      "chip": "ym2612"
    },
    {
      "channel": 3,
      "note": 74,
      "start": 24.0525,
      "duration": 0.0161,
      "velocity": 120,
      "chip": "ym2612"
    },
    {
      "channel": 2,
      "note": 52,
      "start": 24.0537,
      "duration": 0.0161,
      "velocity": 100,
      "chip": "ym2612"
    },
    {
      "channel": 0,
      "note": 38,
      "start": 24.0663,
      "duration": 0.0161,
      "velocity": 115,
      "chip": "ym2612"
    },
    {
      "channel": 4,
      "note": 67,
      "start": 24.0675,
      "duration": 0.0161,
      "velocity": 120,
      "chip": "ym2612"
    },
    {
      "channel": 3,
      "note": 74,
      "start": 24.0686,
      "duration": 0.0161,
      "velocity": 120,
      "chip": "ym2612"
    },
    {
      "channel": 2,
      "note": 52,
      "start": 24.0698,
      "duration": 0.0161,
      "velocity": 100,
      "chip": "ym2612"
    },
    {
      "channel": 0,
      "note": 38,
      "start": 24.0824,
      "duration": 0.0163,
      "velocity": 115,
      "chip": "ym2612"
    },
    {
      "channel": 4,
      "note": 67,
      "start": 24.0836,
      "duration": 0.0163,
      "velocity": 120,
      "chip": "ym2612"
    },
    {
      "channel": 3,
      "note": 74,
      "start": 24.0847,
      "duration": 0.0163,
      "velocity": 120,
      "chip": "ym2612"
    },
    {
      "channel": 2,
      "note": 52,
      "start": 24.0859,
      "duration": 0.0162,
      "velocity": 100,
      "chip": "ym2612"
    },
    {
      "channel": 0,
      "note": 39,
      "start": 24.0987,
      "duration": 0.0167,
      "velocity": 115,
      "chip": "ym2612"
    },
    {
      "channel": 4,
      "note": 67,
      "start": 24.0999,
      "duration": 0.0167,
      "velocity": 120,
      "chip": "ym2612"
    },
    {
      "channel": 3,
      "note": 74,
      "start": 24.101,
      "duration": 0.0167,
      "velocity": 120,
      "chip": "ym2612"
    },
    {
      "channel": 2,
      "note": 52,
      "start": 24.1021,
      "duration": 0.0167,
      "velocity": 100,
      "chip": "ym2612"
    },
    {
      "channel": 0,
      "note": 39,
      "start": 24.1154,
      "duration": 0.0163,
      "velocity": 115,
      "chip": "ym2612"
    },
    {
      "channel": 4,
      "note": 67,
      "start": 24.1165,
      "duration": 0.0163,
      "velocity": 120,
      "chip": "ym2612"
    },
    {
      "channel": 3,
      "note": 74,
      "start": 24.1177,
      "duration": 0.0163,
      "velocity": 120,
      "chip": "ym2612"
    },
    {
      "channel": 2,
      "note": 52,
      "start": 24.1188,
      "duration": 0.0163,
      "velocity": 100,
      "chip": "ym2612"
    },
    {
      "channel": 0,
      "note": 40,
      "start": 24.1317,
      "duration": 0.0152,
      "velocity": 115,
      "chip": "ym2612"
    },
    {
      "channel": 4,
      "note": 67,
      "start": 24.1328,
      "duration": 0.0152,
      "velocity": 120,
      "chip": "ym2612"
    },
    {
      "channel": 3,
      "note": 74,
      "start": 24.134,
      "duration": 0.0152,
      "velocity": 120,
      "chip": "ym2612"
    },
    {
      "channel": 2,
      "note": 52,
      "start": 24.1351,
      "duration": 0.0151,
      "velocity": 100,
      "chip": "ym2612"
    },
    {
      "channel": 0,
      "note": 40,
      "start": 24.1469,
      "duration": 0.0185,
      "velocity": 115,
      "chip": "ym2612"
    },
    {
      "channel": 4,
      "note": 67,
      "start": 24.148,
      "duration": 0.0185,
      "velocity": 120,
      "chip": "ym2612"
    },
    {
      "channel": 3,
      "note": 74,
      "start": 24.1492,
      "duration": 0.0185,
      "velocity": 120,
      "chip": "ym2612"
    },
    {
      "channel": 2,
      "note": 52,
      "start": 24.1502,
      "duration": 0.0186,
      "velocity": 100,
      "chip": "ym2612"
    },
    {
      "channel": 0,
      "note": 40,
      "start": 24.1654,
      "duration": 0.0164,
      "velocity": 115,
      "chip": "ym2612"
    },
    {
      "channel": 4,
      "note": 67,
      "start": 24.1665,
      "duration": 0.0164,
      "velocity": 120,
      "chip": "ym2612"
    },
    {
      "channel": 3,
      "note": 74,
      "start": 24.1677,
      "duration": 0.0164,
      "velocity": 120,
      "chip": "ym2612"
    },
    {
      "channel": 2,
      "note": 52,
      "start": 24.1688,
      "duration": 0.0164,
      "velocity": 100,
      "chip": "ym2612"
    },
    {
      "channel": 0,
      "note": 41,
      "start": 24.1818,
      "duration": 0.0175,
      "velocity": 115,
      "chip": "ym2612"
    },
    {
      "channel": 4,
      "note": 67,
      "start": 24.1829,
      "duration": 0.0178,
      "velocity": 120,
      "chip": "ym2612"
    },
    {
      "channel": 3,
      "note": 74,
      "start": 24.1841,
      "duration": 0.018,
      "velocity": 120,
      "chip": "ym2612"
    },
    {
      "channel": 2,
      "note": 52,
      "start": 24.1852,
      "duration": 0.0183,
      "velocity": 100,
      "chip": "ym2612"
    },
    {
      "channel": 0,
      "note": 36,
      "start": 24.1994,
      "duration": 0.0123,
      "velocity": 115,
      "chip": "ym2612"
    },
    {
      "channel": 4,
      "note": 66,
      "start": 24.2008,
      "duration": 0.0121,
      "velocity": 120,
      "chip": "ym2612"
    },
    {
      "channel": 3,
      "note": 73,
      "start": 24.2022,
      "duration": 0.0119,
      "velocity": 120,
      "chip": "ym2612"
    },
    {
      "channel": 2,
      "note": 52,
      "start": 24.2036,
      "duration": 0.0116,
      "velocity": 100,
      "chip": "ym2612"
    },
    {
      "channel": 0,
      "note": 36,
      "start": 24.2116,
      "duration": 0.0185,
      "velocity": 115,
      "chip": "ym2612"
    },
    {
      "channel": 4,
      "note": 66,
      "start": 24.2129,
      "duration": 0.0184,
      "velocity": 120,
      "chip": "ym2612"
    },
    {
      "channel": 3,
      "note": 73,
      "start": 24.2141,
      "duration": 0.0183,
      "velocity": 120,
      "chip": "ym2612"
    },
    {
      "channel": 2,
      "note": 52,
      "start": 24.2153,
      "duration": 0.0183,
      "velocity": 100,
      "chip": "ym2612"
    },
    {
      "channel": 0,
      "note": 37,
      "start": 24.2301,
      "duration": 0.0134,
      "velocity": 115,
      "chip": "ym2612"
    },
    {
      "channel": 4,
      "note": 66,
      "start": 24.2312,
      "duration": 0.0162,
      "velocity": 120,
      "chip": "ym2612"
    },
    {
      "channel": 3,
      "note": 73,
      "start": 24.2324,
      "duration": 0.0161,
      "velocity": 120,
      "chip": "ym2612"
    },
    {
      "channel": 2,
      "note": 52,
      "start": 24.2335,
      "duration": 0.0161,
      "velocity": 100,
      "chip": "ym2612"
    },
    {
      "channel": 0,
      "note": 37,
      "start": 24.2434,
      "duration": 0.0161,
      "velocity": 115,
      "chip": "ym2612"
    },
    {
      "channel": 4,
      "note": 66,
      "start": 24.2474,
      "duration": 0.0157,
      "velocity": 120,
      "chip": "ym2612"
    },
    {
      "channel": 3,
      "note": 73,
      "start": 24.2485,
      "duration": 0.0157,
      "velocity": 120,
      "chip": "ym2612"
    },
    {
      "channel": 2,
      "note": 52,
      "start": 24.2496,
      "duration": 0.0157,
      "velocity": 100,
      "chip": "ym2612"
    },
    {
      "channel": 0,
      "note": 38,
      "start": 24.2595,
      "duration": 0.0161,
      "velocity": 115,
      "chip": "ym2612"
    },
    {
      "channel": 4,
      "note": 66,
      "start": 24.2631,
      "duration": 0.0137,
      "velocity": 120,
      "chip": "ym2612"
    },
    {
      "channel": 3,
      "note": 73,
      "start": 24.2642,
      "duration": 0.014,
      "velocity": 120,
      "chip": "ym2612"
    },
    {
      "channel": 2,
      "note": 52,
      "start": 24.2653,
      "duration": 0.0141,
      "velocity": 100,
      "chip": "ym2612"
    },
    {
      "channel": 0,
      "note": 38,
      "start": 24.2756,
      "duration": 0.0162,
      "velocity": 115,
      "chip": "ym2612"
    },
    {
      "channel": 4,
      "note": 66,
      "start": 24.2768,
      "duration": 0.0162,
      "velocity": 120,
      "chip": "ym2612"
    },
    {
      "channel": 3,
      "note": 73,
      "start": 24.2783,
      "duration": 0.0186,
      "velocity": 120,
      "chip": "ym2612"
    },
    {
      "channel": 2,
      "note": 52,
      "start": 24.2794,
      "duration": 0.0186,
      "velocity": 100,
      "chip": "ym2612"
    },
    {
      "channel": 0,
      "note": 39,
      "start": 24.2918,
      "duration": 0.0161,
      "velocity": 115,
      "chip": "ym2612"
    },
    {
      "channel": 4,
      "note": 66,
      "start": 24.2929,
      "duration": 0.0161,
      "velocity": 120,
      "chip": "ym2612"
    },
    {
      "channel": 3,
      "note": 73,
      "start": 24.2968,
      "duration": 0.0134,
      "velocity": 120,
      "chip": "ym2612"
    },
    {
      "channel": 2,
      "note": 52,
      "start": 24.298,
      "duration": 0.0161,
      "velocity": 100,
      "chip": "ym2612"
    },
    {
      "channel": 0,
      "note": 39,
      "start": 24.3079,
      "duration": 0.0161,
      "velocity": 115,
      "chip": "ym2612"
    },
    {
      "channel": 4,
      "note": 66,
      "start": 24.309,
      "duration": 0.0161,
      "velocity": 120,
      "chip": "ym2612"
    },
    {
      "channel": 3,
      "note": 73,
      "start": 24.3102,
      "duration": 0.0161,
      "velocity": 120,
      "chip": "ym2612"
    },
    {
      "channel": 2,
      "note": 52,
      "start": 24.3141,
      "duration": 0.0157,
      "velocity": 100,
      "chip": "ym2612"
    },
    {
      "channel": 0,
      "note": 40,
      "start": 24.324,
      "duration": 0.0161,
      "velocity": 115,
      "chip": "ym2612"
    },
    {
      "channel": 4,
      "note": 66,
      "start": 24.3251,
      "duration": 0.0161,
      "velocity": 120,
      "chip": "ym2612"
    },
    {
      "channel": 3,
      "note": 73,
      "start": 24.3263,
      "duration": 0.0161,
      "velocity": 120,
      "chip": "ym2612"
    },
    {
      "channel": 2,
      "note": 52,
      "start": 24.3298,
      "duration": 0.0137,
      "velocity": 100,
      "chip": "ym2612"
    },
    {
      "channel": 0,
      "note": 40,
      "start": 24.3401,
      "duration": 0.0161,
      "velocity": 115,
      "chip": "ym2612"
    },
    {
      "channel": 4,
      "note": 66,
      "start": 24.3412,
      "duration": 0.0161,
      "velocity": 120,
      "chip": "ym2612"
    },
    {
      "channel": 3,
      "note": 73,
      "start": 24.3424,
      "duration": 0.0161,
      "velocity": 120,
      "chip": "ym2612"
    },
    {
      "channel": 2,
      "note": 52,
      "start": 24.3435,
      "duration": 0.0161,
      "velocity": 100,
      "chip": "ym2612"
    },
    {
      "channel": 0,
      "note": 40,
      "start": 24.3562,
      "duration": 0.0161,
      "velocity": 115,
      "chip": "ym2612"
    },
    {
      "channel": 4,
      "note": 66,
      "start": 24.3573,
      "duration": 0.0161,
      "velocity": 120,
      "chip": "ym2612"
    },
    {
      "channel": 3,
      "note": 73,
      "start": 24.3585,
      "duration": 0.0161,
      "velocity": 120,
      "chip": "ym2612"
    },
    {
      "channel": 2,
      "note": 52,
      "start": 24.3596,
      "duration": 0.0161,
      "velocity": 100,
      "chip": "ym2612"
    },
    {
      "channel": 0,
      "note": 41,
      "start": 24.3723,
      "duration": 0.0179,
      "velocity": 124,
      "chip": "ym2612"
    },
    {
      "channel": 4,
      "note": 66,
      "start": 24.3734,
      "duration": 0.0181,
      "velocity": 120,
      "chip": "ym2612"
    },
    {
      "channel": 3,
      "note": 73,
      "start": 24.3746,
      "duration": 0.0184,
      "velocity": 120,
      "chip": "ym2612"
    },
    {
      "channel": 2,
      "note": 52,
      "start": 24.3757,
      "duration": 0.0211,
      "velocity": 100,
      "chip": "ym2612"
    },
    {
      "channel": 0,
      "note": 84,
      "start": 24.3901,
      "duration": 0.0144,
      "velocity": 124,
      "chip": "ym2612"
    },
    {
      "channel": 4,
      "note": 66,
      "start": 24.3916,
      "duration": 0.0141,
      "velocity": 120,
      "chip": "ym2612"
    },
    {
      "channel": 3,
      "note": 73,
      "start": 24.3929,
      "duration": 0.014,
      "velocity": 120,
      "chip": "ym2612"
    },
    {
      "channel": 2,
      "note": 52,
      "start": 24.3968,
      "duration": 0.0113,
      "velocity": 100,
      "chip": "ym2612"
    },
    {
      "channel": 0,
      "note": 82,
      "start": 24.4045,
      "duration": 0.0161,
      "velocity": 124,
      "chip": "ym2612"
    },
    {
      "channel": 4,
      "note": 66,
      "start": 24.4057,
      "duration": 0.016,
      "velocity": 120,
      "chip": "ym2612"
    },
    {
      "channel": 3,
      "note": 73,
      "start": 24.4069,
      "duration": 0.016,
      "velocity": 120,
      "chip": "ym2612"
    },
    {
      "channel": 2,
      "note": 52,
      "start": 24.4081,
      "duration": 0.0159,
      "velocity": 100,
      "chip": "ym2612"
    },
    {
      "channel": 0,
      "note": 80,
      "start": 24.4206,
      "duration": 0.0161,
      "velocity": 124,
      "chip": "ym2612"
    },
    {
      "channel": 4,
      "note": 66,
      "start": 24.4217,
      "duration": 0.0161,
      "velocity": 120,
      "chip": "ym2612"
    },
    {
      "channel": 3,
      "note": 73,
      "start": 24.4229,
      "duration": 0.0161,
      "velocity": 120,
      "chip": "ym2612"
    },
    {
      "channel": 2,
      "note": 52,
      "start": 24.424,
      "duration": 0.0161,
      "velocity": 100,
      "chip": "ym2612"
    },
    {
      "channel": 0,
      "note": 77,
      "start": 24.4367,
      "duration": 0.0161,
      "velocity": 124,
      "chip": "ym2612"
    },
    {
      "channel": 4,
      "note": 66,
      "start": 24.4378,
      "duration": 0.0161,
      "velocity": 120,
      "chip": "ym2612"
    },
    {
      "channel": 3,
      "note": 73,
      "start": 24.439,
      "duration": 0.0161,
      "velocity": 120,
      "chip": "ym2612"
    },
    {
      "channel": 2,
      "note": 52,
      "start": 24.4401,
      "duration": 0.0161,
      "velocity": 100,
      "chip": "ym2612"
    },
    {
      "channel": 0,
      "note": 75,
      "start": 24.4528,
      "duration": 0.0161,
      "velocity": 124,
      "chip": "ym2612"
    },
    {
      "channel": 4,
      "note": 66,
      "start": 24.4539,
      "duration": 0.0161,
      "velocity": 120,
      "chip": "ym2612"
    },
    {
      "channel": 3,
      "note": 73,
      "start": 24.4551,
      "duration": 0.0161,
      "velocity": 120,
      "chip": "ym2612"
    },
    {
      "channel": 2,
      "note": 52,
      "start": 24.4562,
      "duration": 0.0161,
      "velocity": 100,
      "chip": "ym2612"
    },
    {
      "channel": 0,
      "note": 72,
      "start": 24.4689,
      "duration": 0.0161,
      "velocity": 124,
      "chip": "ym2612"
    },
    {
      "channel": 4,
      "note": 66,
      "start": 24.47,
      "duration": 0.0161,
      "velocity": 120,
      "chip": "ym2612"
    },
    {
      "channel": 3,
      "note": 73,
      "start": 24.4712,
      "duration": 0.0161,
      "velocity": 120,
      "chip": "ym2612"
    },
    {
      "channel": 2,
      "note": 52,
      "start": 24.4723,
      "duration": 0.0161,
      "velocity": 100,
      "chip": "ym2612"
    },
    {
      "channel": 0,
      "note": 70,
      "start": 24.485,
      "duration": 0.0161,
      "velocity": 124,
      "chip": "ym2612"
    },
    {
      "channel": 4,
      "note": 66,
      "start": 24.4861,
      "duration": 0.0161,
      "velocity": 120,
      "chip": "ym2612"
    },
    {
      "channel": 3,
      "note": 73,
      "start": 24.4873,
      "duration": 0.0161,
      "velocity": 120,
      "chip": "ym2612"
    },
    {
      "channel": 2,
      "note": 52,
      "start": 24.4884,
      "duration": 0.0161,
      "velocity": 100,
      "chip": "ym2612"
    },
    {
      "channel": 0,
      "note": 68,
      "start": 24.5011,
      "duration": 0.0161,
      "velocity": 124,
      "chip": "ym2612"
    },
    {
      "channel": 4,
      "note": 66,
      "start": 24.5022,
      "duration": 0.0161,
      "velocity": 120,
      "chip": "ym2612"
    },
    {
      "channel": 3,
      "note": 73,
      "start": 24.5034,
      "duration": 0.0161,
      "velocity": 120,
      "chip": "ym2612"
    },
    {
      "channel": 2,
      "note": 52,
      "start": 24.5045,
      "duration": 0.0161,
      "velocity": 100,
      "chip": "ym2612"
    },
    {
      "channel": 0,
      "note": 65,
      "start": 24.5172,
      "duration": 0.0161,
      "velocity": 124,
      "chip": "ym2612"
    },
    {
      "channel": 4,
      "note": 66,
      "start": 24.5183,
      "duration": 0.0161,
      "velocity": 120,
      "chip": "ym2612"
    },
    {
      "channel": 3,
      "note": 73,
      "start": 24.5195,
      "duration": 0.0161,
      "velocity": 120,
      "chip": "ym2612"
    },
    {
      "channel": 2,
      "note": 52,
      "start": 24.5206,
      "duration": 0.0161,
      "velocity": 100,
      "chip": "ym2612"
    },
    {
      "channel": 0,
      "note": 63,
      "start": 24.5333,
      "duration": 0.0153,
      "velocity": 1,
      "chip": "ym2612"
    },
    {
      "channel": 4,
      "note": 66,
      "start": 24.5344,
      "duration": 0.0153,
      "velocity": 120,
      "chip": "ym2612"
    },
    {
      "channel": 3,
      "note": 73,
      "start": 24.5356,
      "duration": 0.0153,
      "velocity": 120,
      "chip": "ym2612"
    },
    {
      "channel": 2,
      "note": 52,
      "start": 24.5367,
      "duration": 0.0153,
      "velocity": 100,
      "chip": "ym2612"
    },
    {
      "channel": 4,
      "note": 66,
      "start": 24.5498,
      "duration": 0.0153,
      "velocity": 120,
      "chip": "ym2612"
    },
    {
      "channel": 3,
      "note": 73,
      "start": 24.5509,
      "duration": 0.0153,
      "velocity": 120,
      "chip": "ym2612"
    },
    {
      "channel": 2,
      "note": 52,
      "start": 24.552,
      "duration": 0.0152,
      "velocity": 100,
      "chip": "ym2612"
    },
    {
      "channel": 4,
      "note": 66,
      "start": 24.565,
      "duration": 0.0167,
      "velocity": 120,
      "chip": "ym2612"
    },
    {
      "channel": 3,
      "note": 73,
      "start": 24.5661,
      "duration": 0.017,
      "velocity": 120,
      "chip": "ym2612"
    },
    {
      "channel": 2,
      "note": 52,
      "start": 24.5672,
      "duration": 0.0174,
      "velocity": 100,
      "chip": "ym2612"
    },
    {
      "channel": 4,
      "note": 62,
      "start": 24.5818,
      "duration": 0.0161,
      "velocity": 120,
      "chip": "ym2612"
    },
    {
      "channel": 3,
      "note": 69,
      "start": 24.5832,
      "duration": 0.0159,
      "velocity": 120,
      "chip": "ym2612"
    },
    {
      "channel": 2,
      "note": 52,
      "start": 24.5847,
      "duration": 0.0156,
      "velocity": 100,
      "chip": "ym2612"
    },
    {
      "channel": 4,
      "note": 62,
      "start": 24.5979,
      "duration": 0.0154,
      "velocity": 120,
      "chip": "ym2612"
    },
    {
      "channel": 3,
      "note": 69,
      "start": 24.5991,
      "duration": 0.0153,
      "velocity": 120,
      "chip": "ym2612"
    },
    {
      "channel": 2,
      "note": 52,
      "start": 24.6003,
      "duration": 0.0153,
      "velocity": 100,
      "chip": "ym2612"
    },
    {
      "channel": 4,
      "note": 62,
      "start": 24.6133,
      "duration": 0.0183,
      "velocity": 120,
      "chip": "ym2612"
    },
    {
      "channel": 3,
      "note": 69,
      "start": 24.6144,
      "duration": 0.0183,
      "velocity": 120,
      "chip": "ym2612"
    },
    {
      "channel": 2,
      "note": 52,
      "start": 24.6156,
      "duration": 0.0183,
      "velocity": 100,
      "chip": "ym2612"
    },
    {
      "channel": 4,
      "note": 62,
      "start": 24.6315,
      "duration": 0.0167,
      "velocity": 120,
      "chip": "ym2612"
    },
    {
      "channel": 3,
      "note": 69,
      "start": 24.6327,
      "duration": 0.0167,
      "velocity": 120,
      "chip": "ym2612"
    },
    {
      "channel": 2,
      "note": 52,
      "start": 24.6338,
      "duration": 0.0166,
      "velocity": 100,
      "chip": "ym2612"
    },
    {
      "channel": 4,
      "note": 62,
      "start": 24.6482,
      "duration": 0.0158,
      "velocity": 120,
      "chip": "ym2612"
    },
    {
      "channel": 3,
      "note": 69,
      "start": 24.6494,
      "duration": 0.0158,
      "velocity": 120,
      "chip": "ym2612"
    },
    {
      "channel": 2,
      "note": 52,
      "start": 24.6505,
      "duration": 0.0158,
      "velocity": 100,
      "chip": "ym2612"
    },
    {
      "channel": 4,
      "note": 62,
      "start": 24.664,
      "duration": 0.0141,
      "velocity": 120,
      "chip": "ym2612"
    },
    {
      "channel": 3,
      "note": 69,
      "start": 24.6651,
      "duration": 0.014,
      "velocity": 120,
      "chip": "ym2612"
    },
    {
      "channel": 2,
      "note": 52,
      "start": 24.6662,
      "duration": 0.0141,
      "velocity": 100,
      "chip": "ym2612"
    },
    {
      "channel": 4,
      "note": 62,
      "start": 24.678,
      "duration": 0.0158,
      "velocity": 120,
      "chip": "ym2612"
    },
    {
      "channel": 3,
      "note": 69,
      "start": 24.6791,
      "duration": 0.0186,
      "velocity": 120,
      "chip": "ym2612"
    },
    {
      "channel": 2,
      "note": 52,
      "start": 24.6803,
      "duration": 0.0185,
      "velocity": 100,
      "chip": "ym2612"
    },
    {
      "channel": 4,
      "note": 62,
      "start": 24.6938,
      "duration": 0.0161,
      "velocity": 120,
      "chip": "ym2612"
    },
    {
      "channel": 3,
      "note": 69,
      "start": 24.6977,
      "duration": 0.0161,
      "velocity": 120,
      "chip": "ym2612"
    },
    {
      "channel": 2,
      "note": 52,
      "start": 24.6988,
      "duration": 0.0161,
      "velocity": 100,
      "chip": "ym2612"
    },
    {
      "channel": 4,
      "note": 62,
      "start": 24.7099,
      "duration": 0.0161,
      "velocity": 120,
      "chip": "ym2612"
    },
    {
      "channel": 3,
      "note": 69,
      "start": 24.7138,
      "duration": 0.0134,
      "velocity": 120,
      "chip": "ym2612"
    },
    {
      "channel": 2,
      "note": 52,
      "start": 24.7149,
      "duration": 0.0157,
      "velocity": 100,
      "chip": "ym2612"
    },
    {
      "channel": 4,
      "note": 62,
      "start": 24.726,
      "duration": 0.0161,
      "velocity": 120,
      "chip": "ym2612"
    },
    {
      "channel": 3,
      "note": 69,
      "start": 24.7272,
      "duration": 0.0161,
      "velocity": 120,
      "chip": "ym2612"
    },
    {
      "channel": 2,
      "note": 52,
      "start": 24.7307,
      "duration": 0.0141,
      "velocity": 100,
      "chip": "ym2612"
    },
    {
      "channel": 4,
      "note": 62,
      "start": 24.7421,
      "duration": 0.0161,
      "velocity": 120,
      "chip": "ym2612"
    },
    {
      "channel": 3,
      "note": 69,
      "start": 24.7433,
      "duration": 0.0161,
      "velocity": 120,
      "chip": "ym2612"
    },
    {
      "channel": 2,
      "note": 52,
      "start": 24.7447,
      "duration": 0.0158,
      "velocity": 100,
      "chip": "ym2612"
    },
    {
      "channel": 4,
      "note": 62,
      "start": 24.7582,
      "duration": 0.0239,
      "velocity": 120,
      "chip": "ym2612"
    },
    {
      "channel": 3,
      "note": 69,
      "start": 24.7593,
      "duration": 0.0256,
      "velocity": 120,
      "chip": "ym2612"
    },
    {
      "channel": 2,
      "note": 52,
      "start": 24.7605,
      "duration": 0.0259,
      "velocity": 100,
      "chip": "ym2612"
    },
    {
      "channel": 0,
      "note": 36,
      "start": 24.7766,
      "duration": 0.0146,
      "velocity": 115,
      "chip": "ym2612"
    },
    {
      "channel": 4,
      "note": 57,
      "start": 24.7822,
      "duration": 0.0102,
      "velocity": 120,
      "chip": "ym2612"
    },
    {
      "channel": 3,
      "note": 64,
      "start": 24.7849,
      "duration": 0.0087,
      "velocity": 120,
      "chip": "ym2612"
    },
    {
      "channel": 2,
      "note": 45,
      "start": 24.7865,
      "duration": 0.0107,
      "velocity": 100,
      "chip": "ym2612"
    },
    {
      "channel": 0,
      "note": 36,
      "start": 24.7912,
      "duration": 0.0159,
      "velocity": 115,
      "chip": "ym2612"
    },
    {
      "channel": 4,
      "note": 57,
      "start": 24.7924,
      "duration": 0.0158,
      "velocity": 120,
      "chip": "ym2612"
    },
    {
      "channel": 3,
      "note": 64,
      "start": 24.7936,
      "duration": 0.0157,
      "velocity": 120,
      "chip": "ym2612"
    },
    {
      "channel": 2,
      "note": 45,
      "start": 24.7972,
      "duration": 0.0132,
      "velocity": 100,
      "chip": "ym2612"
    },
    {
      "channel": 0,
      "note": 37,
      "start": 24.807,
      "duration": 0.0161,
      "velocity": 115,
      "chip": "ym2612"
    },
    {
      "channel": 4,
      "note": 57,
      "start": 24.8081,
      "duration": 0.0161,
      "velocity": 120,
      "chip": "ym2612"
    },
    {
      "channel": 3,
      "note": 64,
      "start": 24.8093,
      "duration": 0.0161,
      "velocity": 120,
      "chip": "ym2612"
    },
    {
      "channel": 2,
      "note": 45,
      "start": 24.8104,
      "duration": 0.0161,
      "velocity": 100,
      "chip": "ym2612"
    },
    {
      "channel": 0,
      "note": 37,
      "start": 24.8231,
      "duration": 0.0161,
      "velocity": 115,
      "chip": "ym2612"
    },
    {
      "channel": 4,
      "note": 57,
      "start": 24.8242,
      "duration": 0.0161,
      "velocity": 120,
      "chip": "ym2612"
    },
    {
      "channel": 3,
      "note": 64,
      "start": 24.8254,
      "duration": 0.0161,
      "velocity": 120,
      "chip": "ym2612"
    },
    {
      "channel": 2,
      "note": 45,
      "start": 24.8265,
      "duration": 0.0161,
      "velocity": 100,
      "chip": "ym2612"
    },
    {
      "channel": 0,
      "note": 38,
      "start": 24.8392,
      "duration": 0.0161,
      "velocity": 115,
      "chip": "ym2612"
    },
    {
      "channel": 4,
      "note": 57,
      "start": 24.8403,
      "duration": 0.0161,
      "velocity": 120,
      "chip": "ym2612"
    },
    {
      "channel": 3,
      "note": 64,
      "start": 24.8415,
      "duration": 0.0161,
      "velocity": 120,
      "chip": "ym2612"
    },
    {
      "channel": 2,
      "note": 45,
      "start": 24.8426,
      "duration": 0.0161,
      "velocity": 100,
      "chip": "ym2612"
    },
    {
      "channel": 0,
      "note": 38,
      "start": 24.8553,
      "duration": 0.0161,
      "velocity": 115,
      "chip": "ym2612"
    },
    {
      "channel": 4,
      "note": 57,
      "start": 24.8564,
      "duration": 0.0162,
      "velocity": 120,
      "chip": "ym2612"
    },
    {
      "channel": 3,
      "note": 64,
      "start": 24.8576,
      "duration": 0.0161,
      "velocity": 120,
      "chip": "ym2612"
    },
    {
      "channel": 2,
      "note": 45,
      "start": 24.8587,
      "duration": 0.0161,
      "velocity": 100,
      "chip": "ym2612"
    },
    {
      "channel": 0,
      "note": 39,
      "start": 24.8714,
      "duration": 0.0161,
      "velocity": 115,
      "chip": "ym2612"
    },
    {
      "channel": 4,
      "note": 57,
      "start": 24.8726,
      "duration": 0.0161,
      "velocity": 120,
      "chip": "ym2612"
    },
    {
      "channel": 3,
      "note": 64,
      "start": 24.8737,
      "duration": 0.0161,
      "velocity": 120,
      "chip": "ym2612"
    },
    {
      "channel": 2,
      "note": 45,
      "start": 24.8748,
      "duration": 0.0161,
      "velocity": 100,
      "chip": "ym2612"
    },
    {
      "channel": 0,
      "note": 39,
      "start": 24.8875,
      "duration": 0.0161,
      "velocity": 115,
      "chip": "ym2612"
    },
    {
      "channel": 4,
      "note": 57,
      "start": 24.8887,
      "duration": 0.0161,
      "velocity": 120,
      "chip": "ym2612"
    },
    {
      "channel": 3,
      "note": 64,
      "start": 24.8898,
      "duration": 0.0161,
      "velocity": 120,
      "chip": "ym2612"
    },
    {
      "channel": 2,
      "note": 45,
      "start": 24.8909,
      "duration": 0.0161,
      "velocity": 100,
      "chip": "ym2612"
    },
    {
      "channel": 0,
      "note": 40,
      "start": 24.9036,
      "duration": 0.0161,
      "velocity": 115,
      "chip": "ym2612"
    },
    {
      "channel": 4,
      "note": 57,
      "start": 24.9048,
      "duration": 0.0161,
      "velocity": 120,
      "chip": "ym2612"
    },
    {
      "channel": 3,
      "note": 64,
      "start": 24.9059,
      "duration": 0.0161,
      "velocity": 120,
      "chip": "ym2612"
    },
    {
      "channel": 2,
      "note": 45,
      "start": 24.907,
      "duration": 0.0161,
      "velocity": 100,
      "chip": "ym2612"
    },
    {
      "channel": 0,
      "note": 40,
      "start": 24.9197,
      "duration": 0.0161,
      "velocity": 115,
      "chip": "ym2612"
    },
    {
      "channel": 4,
      "note": 57,
      "start": 24.9209,
      "duration": 0.0161,
      "velocity": 120,
      "chip": "ym2612"
    },
    {
      "channel": 3,
      "note": 64,
      "start": 24.922,
      "duration": 0.0161,
      "velocity": 120,
      "chip": "ym2612"
    },
    {
      "channel": 2,
      "note": 45,
      "start": 24.9232,
      "duration": 0.0161,
      "velocity": 100,
      "chip": "ym2612"
    },
    {
      "channel": 0,
      "note": 40,
      "start": 24.9358,
      "duration": 0.0161,
      "velocity": 115,
      "chip": "ym2612"
    },
    {
      "channel": 4,
      "note": 57,
      "start": 24.937,
      "duration": 0.0161,
      "velocity": 120,
      "chip": "ym2612"
    },
    {
      "channel": 3,
      "note": 64,
      "start": 24.9381,
      "duration": 0.0161,
      "velocity": 120,
      "chip": "ym2612"
    },
    {
      "channel": 2,
      "note": 45,
      "start": 24.9393,
      "duration": 0.0161,
      "velocity": 100,
      "chip": "ym2612"
    },
    {
      "channel": 0,
      "note": 41,
      "start": 24.9519,
      "duration": 0.0161,
      "velocity": 115,
      "chip": "ym2612"
    },
    {
      "channel": 4,
      "note": 57,
      "start": 24.9531,
      "duration": 0.0163,
      "velocity": 120,
      "chip": "ym2612"
    },
    {
      "channel": 3,
      "note": 64,
      "start": 24.9542,
      "duration": 0.0165,
      "velocity": 120,
      "chip": "ym2612"
    },
    {
      "channel": 2,
      "note": 45,
      "start": 24.9554,
      "duration": 0.0168,
      "velocity": 100,
      "chip": "ym2612"
    },
    {
      "channel": 0,
      "note": 41,
      "start": 24.968,
      "duration": 0.0161,
      "velocity": 115,
      "chip": "ym2612"
    },
    {
      "channel": 4,
      "note": 57,
      "start": 24.9694,
      "duration": 0.0159,
      "velocity": 120,
      "chip": "ym2612"
    },
    {
      "channel": 3,
      "note": 64,
      "start": 24.9708,
      "duration": 0.0157,
      "velocity": 120,
      "chip": "ym2612"
    },
    {
      "channel": 2,
      "note": 52,
      "start": 24.9723,
      "duration": 0.0154,
      "velocity": 100,
      "chip": "ym2612"
    },
    {
      "channel": 0,
      "note": 42,
      "start": 24.9841,
      "duration": 0.0161,
      "velocity": 115,
      "chip": "ym2612"
    },
    {
      "channel": 4,
      "note": 57,
      "start": 24.9853,
      "duration": 0.016,
      "velocity": 120,
      "chip": "ym2612"
    },
    {
      "channel": 3,
      "note": 64,
      "start": 24.9865,
      "duration": 0.016,
      "velocity": 120,
      "chip": "ym2612"
    },
    {
      "channel": 2,
      "note": 52,
      "start": 24.9877,
      "duration": 0.0159,
      "velocity": 100,
      "chip": "ym2612"
    },
    {
      "channel": 0,
      "note": 42,
      "start": 25.0002,
      "duration": 0.0161,
      "velocity": 115,
      "chip": "ym2612"
    },
    {
      "channel": 4,
      "note": 57,
      "start": 25.0013,
      "duration": 0.0161,
      "velocity": 120,
      "chip": "ym2612"
    },
    {
      "channel": 3,
      "note": 64,
      "start": 25.0025,
      "duration": 0.0161,
      "velocity": 120,
      "chip": "ym2612"
    },
    {
      "channel": 2,
      "note": 52,
      "start": 25.0036,
      "duration": 0.0161,
      "velocity": 100,
      "chip": "ym2612"
    },
    {
      "channel": 0,
      "note": 43,
      "start": 25.0163,
      "duration": 0.0162,
      "velocity": 115,
      "chip": "ym2612"
    },
    {
      "channel": 4,
      "note": 57,
      "start": 25.0175,
      "duration": 0.0161,
      "velocity": 120,
      "chip": "ym2612"
    },
    {
      "channel": 3,
      "note": 64,
      "start": 25.0186,
      "duration": 0.0162,
      "velocity": 120,
      "chip": "ym2612"
    },
    {
      "channel": 2,
      "note": 52,
      "start": 25.0197,
      "duration": 0.0161,
      "velocity": 100,
      "chip": "ym2612"
    },
    {
      "channel": 0,
      "note": 43,
      "start": 25.0324,
      "duration": 0.0163,
      "velocity": 115,
      "chip": "ym2612"
    },
    {
      "channel": 4,
      "note": 57,
      "start": 25.0336,
      "duration": 0.0163,
      "velocity": 120,
      "chip": "ym2612"
    },
    {
      "channel": 3,
      "note": 64,
      "start": 25.0347,
      "duration": 0.0163,
      "velocity": 120,
      "chip": "ym2612"
    },
    {
      "channel": 2,
      "note": 52,
      "start": 25.0358,
      "duration": 0.0163,
      "velocity": 100,
      "chip": "ym2612"
    },
    {
      "channel": 0,
      "note": 44,
      "start": 25.0487,
      "duration": 0.0163,
      "velocity": 115,
      "chip": "ym2612"
    },
    {
      "channel": 4,
      "note": 57,
      "start": 25.0499,
      "duration": 0.0163,
      "velocity": 120,
      "chip": "ym2612"
    },
    {
      "channel": 3,
      "note": 64,
      "start": 25.051,
      "duration": 0.0163,
      "velocity": 120,
      "chip": "ym2612"
    },
    {
      "channel": 2,
      "note": 52,
      "start": 25.0521,
      "duration": 0.0163,
      "velocity": 100,
      "chip": "ym2612"
    },
    {
      "channel": 0,
      "note": 44,
      "start": 25.065,
      "duration": 0.0157,
      "velocity": 115,
      "chip": "ym2612"
    },
    {
      "channel": 4,
      "note": 57,
      "start": 25.0661,
      "duration": 0.0157,
      "velocity": 120,
      "chip": "ym2612"
    },
    {
      "channel": 3,
      "note": 64,
      "start": 25.0673,
      "duration": 0.0157,
      "velocity": 120,
      "chip": "ym2612"
    },
    {
      "channel": 2,
      "note": 52,
      "start": 25.0684,
      "duration": 0.0157,
      "velocity": 100,
      "chip": "ym2612"
    },
    {
      "channel": 0,
      "note": 44,
      "start": 25.0807,
      "duration": 0.018,
      "velocity": 115,
      "chip": "ym2612"
    },
    {
      "channel": 4,
      "note": 57,
      "start": 25.0819,
      "duration": 0.018,
      "velocity": 120,
      "chip": "ym2612"
    },
    {
      "channel": 3,
      "note": 64,
      "start": 25.083,
      "duration": 0.018,
      "velocity": 120,
      "chip": "ym2612"
    },
    {
      "channel": 2,
      "note": 52,
      "start": 25.0841,
      "duration": 0.018,
      "velocity": 100,
      "chip": "ym2612"
    },
    {
      "channel": 0,
      "note": 45,
      "start": 25.0987,
      "duration": 0.0167,
      "velocity": 115,
      "chip": "ym2612"
    },
    {
      "channel": 4,
      "note": 57,
      "start": 25.0999,
      "duration": 0.0167,
      "velocity": 120,
      "chip": "ym2612"
    },
    {
      "channel": 3,
      "note": 64,
      "start": 25.101,
      "duration": 0.0167,
      "velocity": 120,
      "chip": "ym2612"
    },
    {
      "channel": 2,
      "note": 52,
      "start": 25.1021,
      "duration": 0.0167,
      "velocity": 100,
      "chip": "ym2612"
    },
    {
      "channel": 0,
      "note": 45,
      "start": 25.1154,
      "duration": 0.016,
      "velocity": 115,
      "chip": "ym2612"
    },
    {
      "channel": 4,
      "note": 57,
      "start": 25.1165,
      "duration": 0.016,
      "velocity": 120,
      "chip": "ym2612"
    },
    {
      "channel": 3,
      "note": 64,
      "start": 25.1177,
      "duration": 0.016,
      "velocity": 120,
      "chip": "ym2612"
    },
    {
      "channel": 2,
      "note": 52,
      "start": 25.1188,
      "duration": 0.0161,
      "velocity": 100,
      "chip": "ym2612"
    },
    {
      "channel": 0,
      "note": 46,
      "start": 25.1314,
      "duration": 0.014,
      "velocity": 115,
      "chip": "ym2612"
    },
    {
      "channel": 4,
      "note": 57,
      "start": 25.1326,
      "duration": 0.014,
      "velocity": 120,
      "chip": "ym2612"
    },
    {
      "channel": 3,
      "note": 64,
      "start": 25.1337,
      "duration": 0.014,
      "velocity": 120,
      "chip": "ym2612"
    },
    {
      "channel": 2,
      "note": 52,
      "start": 25.1349,
      "duration": 0.014,
      "velocity": 100,
      "chip": "ym2612"
    },
    {
      "channel": 0,
      "note": 46,
      "start": 25.1454,
      "duration": 0.0203,
      "velocity": 124,
      "chip": "ym2612"
    },
    {
      "channel": 4,
      "note": 57,
      "start": 25.1466,
      "duration": 0.0206,
      "velocity": 120,
      "chip": "ym2612"
    },
    {
      "channel": 3,
      "note": 64,
      "start": 25.1477,
      "duration": 0.0208,
      "velocity": 120,
      "chip": "ym2612"
    },
    {
      "channel": 2,
      "note": 52,
      "start": 25.1488,
      "duration": 0.0211,
      "velocity": 100,
      "chip": "ym2612"
    },
    {
      "channel": 0,
      "note": 84,
      "start": 25.1658,
      "duration": 0.0144,
      "velocity": 124,
      "chip": "ym2612"
    },
    {
      "channel": 4,
      "note": 57,
      "start": 25.1672,
      "duration": 0.0142,
      "velocity": 120,
      "chip": "ym2612"
    },
    {
      "channel": 3,
      "note": 64,
      "start": 25.1686,
      "duration": 0.0139,
      "velocity": 120,
      "chip": "ym2612"
    },
    {
      "channel": 2,
      "note": 52,
      "start": 25.17,
      "duration": 0.0137,
      "velocity": 100,
      "chip": "ym2612"
    },
    {
      "channel": 0,
      "note": 82,
      "start": 25.1802,
      "duration": 0.0133,
      "velocity": 124,
      "chip": "ym2612"
    },
    {
      "channel": 4,
      "note": 57,
      "start": 25.1814,
      "duration": 0.0156,
      "velocity": 120,
      "chip": "ym2612"
    },
    {
      "channel": 3,
      "note": 64,
      "start": 25.1825,
      "duration": 0.0156,
      "velocity": 120,
      "chip": "ym2612"
    },
    {
      "channel": 2,
      "note": 52,
      "start": 25.1837,
      "duration": 0.0155,
      "velocity": 100,
      "chip": "ym2612"
    },
    {
      "channel": 0,
      "note": 80,
      "start": 25.1934,
      "duration": 0.0161,
      "velocity": 124,
      "chip": "ym2612"
    },
    {
      "channel": 4,
      "note": 57,
      "start": 25.1969,
      "duration": 0.0139,
      "velocity": 120,
      "chip": "ym2612"
    },
    {
      "channel": 3,
      "note": 64,
      "start": 25.1981,
      "duration": 0.0141,
      "velocity": 120,
      "chip": "ym2612"
    },
    {
      "channel": 2,
      "note": 52,
      "start": 25.1992,
      "duration": 0.0141,
      "velocity": 100,
      "chip": "ym2612"
    },
    {
      "channel": 0,
      "note": 77,
      "start": 25.2095,
      "duration": 0.0161,
      "velocity": 124,
      "chip": "ym2612"
    },
    {
      "channel": 4,
      "note": 57,
      "start": 25.2108,
      "duration": 0.016,
      "velocity": 120,
      "chip": "ym2612"
    },
    {
      "channel": 3,
      "note": 64,
      "start": 25.2122,
      "duration": 0.0185,
      "velocity": 120,
      "chip": "ym2612"
    },
    {
      "channel": 2,
      "note": 52,
      "start": 25.2133,
      "duration": 0.0185,
      "velocity": 100,
      "chip": "ym2612"
    },
    {
      "channel": 0,
      "note": 75,
      "start": 25.2256,
      "duration": 0.0161,
      "velocity": 124,
      "chip": "ym2612"
    },
    {
      "channel": 4,
      "note": 57,
      "start": 25.2268,
      "duration": 0.0161,
      "velocity": 120,
      "chip": "ym2612"
    },
    {
      "channel": 3,
      "note": 64,
      "start": 25.2307,
      "duration": 0.0161,
      "velocity": 120,
      "chip": "ym2612"
    },
    {
      "channel": 2,
      "note": 52,
      "start": 25.2318,
      "duration": 0.0161,
      "velocity": 100,
      "chip": "ym2612"
    },
    {
      "channel": 0,
      "note": 72,
      "start": 25.2417,
      "duration": 0.0161,
      "velocity": 124,
      "chip": "ym2612"
    },
    {
      "channel": 4,
      "note": 57,
      "start": 25.2429,
      "duration": 0.0161,
      "velocity": 120,
      "chip": "ym2612"
    },
    {
      "channel": 3,
      "note": 64,
      "start": 25.2468,
      "duration": 0.0134,
      "velocity": 120,
      "chip": "ym2612"
    },
    {
      "channel": 2,
      "note": 52,
      "start": 25.2479,
      "duration": 0.0157,
      "velocity": 100,
      "chip": "ym2612"
    },
    {
      "channel": 0,
      "note": 70,
      "start": 25.2578,
      "duration": 0.0161,
      "velocity": 124,
      "chip": "ym2612"
    },
    {
      "channel": 4,
      "note": 57,
      "start": 25.259,
      "duration": 0.0161,
      "velocity": 120,
      "chip": "ym2612"
    },
    {
      "channel": 3,
      "note": 64,
      "start": 25.2601,
      "duration": 0.0161,
      "velocity": 120,
      "chip": "ym2612"
    },
    {
      "channel": 2,
      "note": 52,
      "start": 25.2636,
      "duration": 0.0139,
      "velocity": 100,
      "chip": "ym2612"
    },
    {
      "channel": 0,
      "note": 68,
      "start": 25.2739,
      "duration": 0.0161,
      "velocity": 124,
      "chip": "ym2612"
    },
    {
      "channel": 4,
      "note": 57,
      "start": 25.2751,
      "duration": 0.0161,
      "velocity": 120,
      "chip": "ym2612"
    },
    {
      "channel": 3,
      "note": 64,
      "start": 25.2762,
      "duration": 0.0161,
      "velocity": 120,
      "chip": "ym2612"
    },
    {
      "channel": 2,
      "note": 52,
      "start": 25.2775,
      "duration": 0.016,
      "velocity": 100,
      "chip": "ym2612"
    },
    {
      "channel": 0,
      "note": 65,
      "start": 25.29,
      "duration": 0.0162,
      "velocity": 124,
      "chip": "ym2612"
    },
    {
      "channel": 4,
      "note": 57,
      "start": 25.2912,
      "duration": 0.0162,
      "velocity": 120,
      "chip": "ym2612"
    },
    {
      "channel": 3,
      "note": 64,
      "start": 25.2923,
      "duration": 0.0162,
      "velocity": 120,
      "chip": "ym2612"
    },
    {
      "channel": 2,
      "note": 52,
      "start": 25.2934,
      "duration": 0.0161,
      "velocity": 100,
      "chip": "ym2612"
    },
    {
      "channel": 0,
      "note": 63,
      "start": 25.3062,
      "duration": 0.0153,
      "velocity": 1,
      "chip": "ym2612"
    },
    {
      "channel": 4,
      "note": 57,
      "start": 25.3073,
      "duration": 0.0153,
      "velocity": 120,
      "chip": "ym2612"
    },
    {
      "channel": 3,
      "note": 64,
      "start": 25.3085,
      "duration": 0.0153,
      "velocity": 120,
      "chip": "ym2612"
    },
    {
      "channel": 2,
      "note": 52,
      "start": 25.3095,
      "duration": 0.0153,
      "velocity": 100,
      "chip": "ym2612"
    },
    {
      "channel": 4,
      "note": 57,
      "start": 25.3226,
      "duration": 0.0153,
      "velocity": 120,
      "chip": "ym2612"
    },
    {
      "channel": 3,
      "note": 64,
      "start": 25.3237,
      "duration": 0.0153,
      "velocity": 120,
      "chip": "ym2612"
    },
    {
      "channel": 2,
      "note": 52,
      "start": 25.3248,
      "duration": 0.0153,
      "velocity": 100,
      "chip": "ym2612"
    },
    {
      "channel": 4,
      "note": 57,
      "start": 25.3378,
      "duration": 0.0198,
      "velocity": 120,
      "chip": "ym2612"
    },
    {
      "channel": 3,
      "note": 64,
      "start": 25.339,
      "duration": 0.02,
      "velocity": 120,
      "chip": "ym2612"
    },
    {
      "channel": 2,
      "note": 52,
      "start": 25.3401,
      "duration": 0.0204,
      "velocity": 100,
      "chip": "ym2612"
    },
    {
      "channel": 0,
      "note": 36,
      "start": 25.3562,
      "duration": 0.0144,
      "velocity": 115,
      "chip": "ym2612"
    },
    {
      "channel": 4,
      "note": 57,
      "start": 25.3576,
      "duration": 0.0142,
      "velocity": 120,
      "chip": "ym2612"
    },
    {
      "channel": 3,
      "note": 64,
      "start": 25.359,
      "duration": 0.014,
      "velocity": 120,
      "chip": "ym2612"
    },
    {
      "channel": 2,
      "note": 52,
      "start": 25.3605,
      "duration": 0.0137,
      "velocity": 100,
      "chip": "ym2612"
    },
    {
      "channel": 0,
      "note": 36,
      "start": 25.3706,
      "duration": 0.016,
      "velocity": 115,
      "chip": "ym2612"
    },
    {
      "channel": 4,
      "note": 57,
      "start": 25.3718,
      "duration": 0.016,
      "velocity": 120,
      "chip": "ym2612"
    },
    {
      "channel": 3,
      "note": 64,
      "start": 25.373,
      "duration": 0.0159,
      "velocity": 120,
      "chip": "ym2612"
    },
    {
      "channel": 2,
      "note": 52,
      "start": 25.3742,
      "duration": 0.0159,
      "velocity": 100,
      "chip": "ym2612"
    },
    {
      "channel": 0,
      "note": 37,
      "start": 25.3866,
      "duration": 0.0161,
      "velocity": 115,
      "chip": "ym2612"
    },
    {
      "channel": 4,
      "note": 57,
      "start": 25.3878,
      "duration": 0.0161,
      "velocity": 120,
      "chip": "ym2612"
    },
    {
      "channel": 3,
      "note": 64,
      "start": 25.3889,
      "duration": 0.0161,
      "velocity": 120,
      "chip": "ym2612"
    },
    {
      "channel": 2,
      "note": 52,
      "start": 25.3901,
      "duration": 0.0161,
      "velocity": 100,
      "chip": "ym2612"
    },
    {
      "channel": 0,
      "note": 37,
      "start": 25.4027,
      "duration": 0.0161,
      "velocity": 115,
      "chip": "ym2612"
    },
    {
      "channel": 4,
      "note": 57,
      "start": 25.4039,
      "duration": 0.0161,
      "velocity": 120,
      "chip": "ym2612"
    },
    {
      "channel": 3,
      "note": 64,
      "start": 25.405,
      "duration": 0.0161,
      "velocity": 120,
      "chip": "ym2612"
    },
    {
      "channel": 2,
      "note": 52,
      "start": 25.4062,
      "duration": 0.0161,
      "velocity": 100,
      "chip": "ym2612"
    },
    {
      "channel": 0,
      "note": 38,
      "start": 25.4188,
      "duration": 0.0161,
      "velocity": 115,
      "chip": "ym2612"
    },
    {
      "channel": 4,
      "note": 57,
      "start": 25.42,
      "duration": 0.0161,
      "velocity": 120,
      "chip": "ym2612"
    },
    {
      "channel": 3,
      "note": 64,
      "start": 25.4211,
      "duration": 0.0161,
      "velocity": 120,
      "chip": "ym2612"
    },
    {
      "channel": 2,
      "note": 52,
      "start": 25.4223,
      "duration": 0.0161,
      "velocity": 100,
      "chip": "ym2612"
    },
    {
      "channel": 0,
      "note": 38,
      "start": 25.4349,
      "duration": 0.0161,
      "velocity": 115,
      "chip": "ym2612"
    },
    {
      "channel": 4,
      "note": 57,
      "start": 25.4361,
      "duration": 0.0161,
      "velocity": 120,
      "chip": "ym2612"
    },
    {
      "channel": 3,
      "note": 64,
      "start": 25.4372,
      "duration": 0.0161,
      "velocity": 120,
      "chip": "ym2612"
    },
    {
      "channel": 2,
      "note": 52,
      "start": 25.4384,
      "duration": 0.0161,
      "velocity": 100,
      "chip": "ym2612"
    },
    {
      "channel": 0,
      "note": 39,
      "start": 25.451,
      "duration": 0.0161,
      "velocity": 115,
      "chip": "ym2612"
    },
    {
      "channel": 4,
      "note": 57,
      "start": 25.4522,
      "duration": 0.0162,
      "velocity": 120,
      "chip": "ym2612"
    },
    {
      "channel": 3,
      "note": 64,
      "start": 25.4533,
      "duration": 0.0161,
      "velocity": 120,
      "chip": "ym2612"
    },
    {
      "channel": 2,
      "note": 52,
      "start": 25.4544,
      "duration": 0.0161,
      "velocity": 100,
      "chip": "ym2612"
    },
    {
      "channel": 0,
      "note": 39,
      "start": 25.4671,
      "duration": 0.0161,
      "velocity": 115,
      "chip": "ym2612"
    },
    {
      "channel": 4,
      "note": 57,
      "start": 25.4683,
      "duration": 0.0161,
      "velocity": 120,
      "chip": "ym2612"
    },
    {
      "channel": 3,
      "note": 64,
      "start": 25.4694,
      "duration": 0.0161,
      "velocity": 120,
      "chip": "ym2612"
    },
    {
      "channel": 2,
      "note": 52,
      "start": 25.4705,
      "duration": 0.0161,
      "velocity": 100,
      "chip": "ym2612"
    },
    {
      "channel": 0,
      "note": 40,
      "start": 25.4833,
      "duration": 0.0161,
      "velocity": 115,
      "chip": "ym2612"
    },
    {
      "channel": 4,
      "note": 57,
      "start": 25.4844,
      "duration": 0.0161,
      "velocity": 120,
      "chip": "ym2612"
    },
    {
      "channel": 3,
      "note": 64,
      "start": 25.4856,
      "duration": 0.0161,
      "velocity": 120,
      "chip": "ym2612"
    },
    {
      "channel": 2,
      "note": 52,
      "start": 25.4866,
      "duration": 0.0161,
      "velocity": 100,
      "chip": "ym2612"
    },
    {
      "channel": 0,
      "note": 40,
      "start": 25.4994,
      "duration": 0.0161,
      "velocity": 115,
      "chip": "ym2612"
    },
    {
      "channel": 4,
      "note": 57,
      "start": 25.5005,
      "duration": 0.0161,
      "velocity": 120,
      "chip": "ym2612"
    },
    {
      "channel": 3,
      "note": 64,
      "start": 25.5017,
      "duration": 0.0161,
      "velocity": 120,
      "chip": "ym2612"
    },
    {
      "channel": 2,
      "note": 52,
      "start": 25.5027,
      "duration": 0.0161,
      "velocity": 100,
      "chip": "ym2612"
    },
    {
      "channel": 0,
      "note": 40,
      "start": 25.5155,
      "duration": 0.0162,
      "velocity": 115,
      "chip": "ym2612"
    },
    {
      "channel": 4,
      "note": 57,
      "start": 25.5166,
      "duration": 0.0162,
      "velocity": 120,
      "chip": "ym2612"
    },
    {
      "channel": 3,
      "note": 64,
      "start": 25.5178,
      "duration": 0.0162,
      "velocity": 120,
      "chip": "ym2612"
    },
    {
      "channel": 2,
      "note": 52,
      "start": 25.5189,
      "duration": 0.0162,
      "velocity": 100,
      "chip": "ym2612"
    },
    {
      "channel": 0,
      "note": 41,
      "start": 25.5317,
      "duration": 0.0178,
      "velocity": 115,
      "chip": "ym2612"
    },
    {
      "channel": 4,
      "note": 57,
      "start": 25.5328,
      "duration": 0.018,
      "velocity": 120,
      "chip": "ym2612"
    },
    {
      "channel": 3,
      "note": 64,
      "start": 25.534,
      "duration": 0.0183,
      "velocity": 120,
      "chip": "ym2612"
    },
    {
      "channel": 2,
      "note": 52,
      "start": 25.5351,
      "duration": 0.0186,
      "velocity": 100,
      "chip": "ym2612"
    },
    {
      "channel": 0,
      "note": 36,
      "start": 25.5494,
      "duration": 0.016,
      "velocity": 115,
      "chip": "ym2612"
    },
    {
      "channel": 4,
      "note": 57,
      "start": 25.5509,
      "duration": 0.0157,
      "velocity": 120,
      "chip": "ym2612"
    },
    {
      "channel": 3,
      "note": 64,
      "start": 25.5522,
      "duration": 0.0156,
      "velocity": 120,
      "chip": "ym2612"
    },
    {
      "channel": 2,
      "note": 52,
      "start": 25.5537,
      "duration": 0.0153,
      "velocity": 100,
      "chip": "ym2612"
    },
    {
      "channel": 0,
      "note": 36,
      "start": 25.5654,
      "duration": 0.0167,
      "velocity": 115,
      "chip": "ym2612"
    },
    {
      "channel": 4,
      "note": 57,
      "start": 25.5666,
      "duration": 0.0166,
      "velocity": 120,
      "chip": "ym2612"
    },
    {
      "channel": 3,
      "note": 64,
      "start": 25.5678,
      "duration": 0.0166,
      "velocity": 120,
      "chip": "ym2612"
    },
    {
      "channel": 2,
      "note": 52,
      "start": 25.569,
      "duration": 0.0164,
      "velocity": 100,
      "chip": "ym2612"
    },
    {
      "channel": 0,
      "note": 37,
      "start": 25.5821,
      "duration": 0.0163,
      "velocity": 115,
      "chip": "ym2612"
    },
    {
      "channel": 4,
      "note": 57,
      "start": 25.5832,
      "duration": 0.0163,
      "velocity": 120,
      "chip": "ym2612"
    },
    {
      "channel": 3,
      "note": 64,
      "start": 25.5844,
      "duration": 0.0163,
      "velocity": 120,
      "chip": "ym2612"
    },
    {
      "channel": 2,
      "note": 52,
      "start": 25.5854,
      "duration": 0.0163,
      "velocity": 100,
      "chip": "ym2612"
    },
    {
      "channel": 0,
      "note": 37,
      "start": 25.5983,
      "duration": 0.0141,
      "velocity": 115,
      "chip": "ym2612"
    },
    {
      "channel": 4,
      "note": 57,
      "start": 25.5995,
      "duration": 0.0141,
      "velocity": 120,
      "chip": "ym2612"
    },
    {
      "channel": 3,
      "note": 64,
      "start": 25.6006,
      "duration": 0.0141,
      "velocity": 120,
      "chip": "ym2612"
    },
    {
      "channel": 2,
      "note": 52,
      "start": 25.6018,
      "duration": 0.014,
      "velocity": 100,
      "chip": "ym2612"
    },
    {
      "channel": 0,
      "note": 38,
      "start": 25.6124,
      "duration": 0.0185,
      "velocity": 115,
      "chip": "ym2612"
    },
    {
      "channel": 4,
      "note": 57,
      "start": 25.6135,
      "duration": 0.0185,
      "velocity": 120,
      "chip": "ym2612"
    },
    {
      "channel": 3,
      "note": 64,
      "start": 25.6147,
      "duration": 0.0185,
      "velocity": 120,
      "chip": "ym2612"
    },
    {
      "channel": 2,
      "note": 52,
      "start": 25.6158,
      "duration": 0.0185,
      "velocity": 100,
      "chip": "ym2612"
    },
    {
      "channel": 0,
      "note": 38,
      "start": 25.6309,
      "duration": 0.0161,
      "velocity": 115,
      "chip": "ym2612"
    },
    {
      "channel": 4,
      "note": 57,
      "start": 25.6321,
      "duration": 0.0161,
      "velocity": 120,
      "chip": "ym2612"
    },
    {
      "channel": 3,
      "note": 64,
      "start": 25.6332,
      "duration": 0.0161,
      "velocity": 120,
      "chip": "ym2612"
    },
    {
      "channel": 2,
      "note": 52,
      "start": 25.6343,
      "duration": 0.0162,
      "velocity": 100,
      "chip": "ym2612"
    },
    {
      "channel": 0,
      "note": 39,
      "start": 25.647,
      "duration": 0.0134,
      "velocity": 115,
      "chip": "ym2612"
    },
    {
      "channel": 4,
      "note": 57,
      "start": 25.6482,
      "duration": 0.0158,
      "velocity": 120,
      "chip": "ym2612"
    },
    {
      "channel": 3,
      "note": 64,
      "start": 25.6493,
      "duration": 0.0157,
      "velocity": 120,
      "chip": "ym2612"
    },
    {
      "channel": 2,
      "note": 52,
      "start": 25.6505,
      "duration": 0.0157,
      "velocity": 100,
      "chip": "ym2612"
    },
    {
      "channel": 0,
      "note": 39,
      "start": 25.6604,
      "duration": 0.0161,
      "velocity": 115,
      "chip": "ym2612"
    },
    {
      "channel": 4,
      "note": 57,
      "start": 25.6639,
      "duration": 0.014,
      "velocity": 120,
      "chip": "ym2612"
    },
    {
      "channel": 3,
      "note": 64,
      "start": 25.665,
      "duration": 0.0141,
      "velocity": 120,
      "chip": "ym2612"
    },
    {
      "channel": 2,
      "note": 52,
      "start": 25.6661,
      "duration": 0.0141,
      "velocity": 100,
      "chip": "ym2612"
    },
    {
      "channel": 0,
      "note": 40,
      "start": 25.6765,
      "duration": 0.0161,
      "velocity": 115,
      "chip": "ym2612"
    },
    {
      "channel": 4,
      "note": 57,
      "start": 25.6779,
      "duration": 0.0158,
      "velocity": 120,
      "chip": "ym2612"
    },
    {
      "channel": 3,
      "note": 64,
      "start": 25.6791,
      "duration": 0.0185,
      "velocity": 120,
      "chip": "ym2612"
    },
    {
      "channel": 2,
      "note": 52,
      "start": 25.6802,
      "duration": 0.0185,
      "velocity": 100,
      "chip": "ym2612"
    },
    {
      "channel": 0,
      "note": 40,
      "start": 25.6926,
      "duration": 0.0161,
      "velocity": 115,
      "chip": "ym2612"
    },
    {
      "channel": 4,
      "note": 57,
      "start": 25.6937,
      "duration": 0.0161,
      "velocity": 120,
      "chip": "ym2612"
    },
    {
      "channel": 3,
      "note": 64,
      "start": 25.6976,
      "duration": 0.0161,
      "velocity": 120,
      "chip": "ym2612"
    },
    {
      "channel": 2,
      "note": 52,
      "start": 25.6987,
      "duration": 0.0161,
      "velocity": 100,
      "chip": "ym2612"
    },
    {
      "channel": 0,
      "note": 40,
      "start": 25.7086,
      "duration": 0.0161,
      "velocity": 115,
      "chip": "ym2612"
    },
    {
      "channel": 4,
      "note": 57,
      "start": 25.7098,
      "duration": 0.0161,
      "velocity": 120,
      "chip": "ym2612"
    },
    {
      "channel": 3,
      "note": 64,
      "start": 25.7137,
      "duration": 0.0134,
      "velocity": 120,
      "chip": "ym2612"
    },
    {
      "channel": 2,
      "note": 52,
      "start": 25.7148,
      "duration": 0.0157,
      "velocity": 100,
      "chip": "ym2612"
    },
    {
      "channel": 0,
      "note": 41,
      "start": 25.7247,
      "duration": 0.0161,
      "velocity": 115,
      "chip": "ym2612"
    },
    {
      "channel": 4,
      "note": 57,
      "start": 25.7259,
      "duration": 0.0163,
      "velocity": 120,
      "chip": "ym2612"
    },
    {
      "channel": 3,
      "note": 64,
      "start": 25.727,
      "duration": 0.0166,
      "velocity": 120,
      "chip": "ym2612"
    },
    {
      "channel": 2,
      "note": 52,
      "start": 25.7305,
      "duration": 0.0149,
      "velocity": 100,
      "chip": "ym2612"
    },
    {
      "channel": 0,
      "note": 41,
      "start": 25.7408,
      "duration": 0.0162,
      "velocity": 115,
      "chip": "ym2612"
    },
    {
      "channel": 4,
      "note": 57,
      "start": 25.7423,
      "duration": 0.0159,
      "velocity": 120,
      "chip": "ym2612"
    },
    {
      "channel": 3,
      "note": 64,
      "start": 25.7436,
      "duration": 0.0157,
      "velocity": 120,
      "chip": "ym2612"
    },
    {
      "channel": 2,
      "note": 52,
      "start": 25.7454,
      "duration": 0.0151,
      "velocity": 100,
      "chip": "ym2612"
    },
    {
      "channel": 0,
      "note": 42,
      "start": 25.757,
      "duration": 0.0161,
      "velocity": 115,
      "chip": "ym2612"
    },
    {
      "channel": 4,
      "note": 57,
      "start": 25.7582,
      "duration": 0.016,
      "velocity": 120,
      "chip": "ym2612"
    },
    {
      "channel": 3,
      "note": 64,
      "start": 25.7593,
      "duration": 0.016,
      "velocity": 120,
      "chip": "ym2612"
    },
    {
      "channel": 2,
      "note": 52,
      "start": 25.7606,
      "duration": 0.0159,
      "velocity": 100,
      "chip": "ym2612"
    },
    {
      "channel": 0,
      "note": 42,
      "start": 25.7731,
      "duration": 0.0161,
      "velocity": 115,
      "chip": "ym2612"
    },
    {
      "channel": 4,
      "note": 57,
      "start": 25.7742,
      "duration": 0.0161,
      "velocity": 120,
      "chip": "ym2612"
    },
    {
      "channel": 3,
      "note": 64,
      "start": 25.7754,
      "duration": 0.0161,
      "velocity": 120,
      "chip": "ym2612"
    },
    {
      "channel": 2,
      "note": 52,
      "start": 25.7765,
      "duration": 0.0161,
      "velocity": 100,
      "chip": "ym2612"
    },
    {
      "channel": 0,
      "note": 43,
      "start": 25.7892,
      "duration": 0.0161,
      "velocity": 115,
      "chip": "ym2612"
    },
    {
      "channel": 4,
      "note": 57,
      "start": 25.7903,
      "duration": 0.0161,
      "velocity": 120,
      "chip": "ym2612"
    },
    {
      "channel": 3,
      "note": 64,
      "start": 25.7915,
      "duration": 0.0161,
      "velocity": 120,
      "chip": "ym2612"
    },
    {
      "channel": 2,
      "note": 52,
      "start": 25.7926,
      "duration": 0.0161,
      "velocity": 100,
      "chip": "ym2612"
    },
    {
      "channel": 0,
      "note": 43,
      "start": 25.8053,
      "duration": 0.0161,
      "velocity": 115,
      "chip": "ym2612"
    },
    {
      "channel": 4,
      "note": 57,
      "start": 25.8064,
      "duration": 0.0161,
      "velocity": 120,
      "chip": "ym2612"
    },
    {
      "channel": 3,
      "note": 64,
      "start": 25.8076,
      "duration": 0.0161,
      "velocity": 120,
      "chip": "ym2612"
    },
    {
      "channel": 2,
      "note": 52,
      "start": 25.8086,
      "duration": 0.0162,
      "velocity": 100,
      "chip": "ym2612"
    },
    {
      "channel": 0,
      "note": 44,
      "start": 25.8214,
      "duration": 0.0161,
      "velocity": 115,
      "chip": "ym2612"
    },
    {
      "channel": 4,
      "note": 57,
      "start": 25.8225,
      "duration": 0.0161,
      "velocity": 120,
      "chip": "ym2612"
    },
    {
      "channel": 3,
      "note": 64,
      "start": 25.8237,
      "duration": 0.0161,
      "velocity": 120,
      "chip": "ym2612"
    },
    {
      "channel": 2,
      "note": 52,
      "start": 25.8248,
      "duration": 0.0161,
      "velocity": 100,
      "chip": "ym2612"
    },
    {
      "channel": 0,
      "note": 44,
      "start": 25.8375,
      "duration": 0.0161,
      "velocity": 115,
      "chip": "ym2612"
    },
    {
      "channel": 4,
      "note": 57,
      "start": 25.8386,
      "duration": 0.0161,
      "velocity": 120,
      "chip": "ym2612"
    },
    {
      "channel": 3,
      "note": 64,
      "start": 25.8398,
      "duration": 0.0161,
      "velocity": 120,
      "chip": "ym2612"
    },
    {
      "channel": 2,
      "note": 52,
      "start": 25.8409,
      "duration": 0.0161,
      "velocity": 100,
      "chip": "ym2612"
    },
    {
      "channel": 0,
      "note": 44,
      "start": 25.8536,
      "duration": 0.0161,
      "velocity": 115,
      "chip": "ym2612"
    },
    {
      "channel": 4,
      "note": 57,
      "start": 25.8547,
      "duration": 0.0161,
      "velocity": 120,
      "chip": "ym2612"
    },
    {
      "channel": 3,
      "note": 64,
      "start": 25.8559,
      "duration": 0.0161,
      "velocity": 120,
      "chip": "ym2612"
    },
    {
      "channel": 2,
      "note": 52,
      "start": 25.857,
      "duration": 0.0161,
      "velocity": 100,
      "chip": "ym2612"
    },
    {
      "channel": 0,
      "note": 45,
      "start": 25.8697,
      "duration": 0.0161,
      "velocity": 115,
      "chip": "ym2612"
    },
    {
      "channel": 4,
      "note": 57,
      "start": 25.8708,
      "duration": 0.0161,
      "velocity": 120,
      "chip": "ym2612"
    },
    {
      "channel": 3,
      "note": 64,
      "start": 25.872,
      "duration": 0.0161,
      "velocity": 120,
      "chip": "ym2612"
    },
    {
      "channel": 2,
      "note": 52,
      "start": 25.8731,
      "duration": 0.0161,
      "velocity": 100,
      "chip": "ym2612"
    },
    {
      "channel": 0,
      "note": 45,
      "start": 25.8858,
      "duration": 0.0161,
      "velocity": 115,
      "chip": "ym2612"
    },
    {
      "channel": 4,
      "note": 57,
      "start": 25.8869,
      "duration": 0.0162,
      "velocity": 120,
      "chip": "ym2612"
    },
    {
      "channel": 3,
      "note": 64,
      "start": 25.888,
      "duration": 0.0161,
      "velocity": 120,
      "chip": "ym2612"
    },
    {
      "channel": 2,
      "note": 52,
      "start": 25.8892,
      "duration": 0.0161,
      "velocity": 100,
      "chip": "ym2612"
    },
    {
      "channel": 0,
      "note": 46,
      "start": 25.9019,
      "duration": 0.0161,
      "velocity": 115,
      "chip": "ym2612"
    },
    {
      "channel": 4,
      "note": 57,
      "start": 25.9031,
      "duration": 0.0161,
      "velocity": 120,
      "chip": "ym2612"
    },
    {
      "channel": 3,
      "note": 64,
      "start": 25.9042,
      "duration": 0.0161,
      "velocity": 120,
      "chip": "ym2612"
    },
    {
      "channel": 2,
      "note": 52,
      "start": 25.9053,
      "duration": 0.0161,
      "velocity": 100,
      "chip": "ym2612"
    },
    {
      "channel": 0,
      "note": 46,
      "start": 25.918,
      "duration": 0.0178,
      "velocity": 124,
      "chip": "ym2612"
    },
    {
      "channel": 4,
      "note": 57,
      "start": 25.9191,
      "duration": 0.0181,
      "velocity": 120,
      "chip": "ym2612"
    },
    {
      "channel": 3,
      "note": 64,
      "start": 25.9203,
      "duration": 0.0183,
      "velocity": 120,
      "chip": "ym2612"
    },
    {
      "channel": 2,
      "note": 52,
      "start": 25.9214,
      "duration": 0.0187,
      "velocity": 100,
      "chip": "ym2612"
    },
    {
      "channel": 0,
      "note": 84,
      "start": 25.9359,
      "duration": 0.0144,
      "velocity": 124,
      "chip": "ym2612"
    },
    {
      "channel": 4,
      "note": 57,
      "start": 25.9373,
      "duration": 0.0142,
      "velocity": 120,
      "chip": "ym2612"
    },
    {
      "channel": 3,
      "note": 64,
      "start": 25.9387,
      "duration": 0.0139,
      "velocity": 120,
      "chip": "ym2612"
    },
    {
      "channel": 2,
      "note": 52,
      "start": 25.9401,
      "duration": 0.0137,
      "velocity": 100,
      "chip": "ym2612"
    },
    {
      "channel": 0,
      "note": 82,
      "start": 25.9502,
      "duration": 0.016,
      "velocity": 124,
      "chip": "ym2612"
    },
    {
      "channel": 4,
      "note": 57,
      "start": 25.9515,
      "duration": 0.016,
      "velocity": 120,
      "chip": "ym2612"
    },
    {
      "channel": 3,
      "note": 64,
      "start": 25.9526,
      "duration": 0.016,
      "velocity": 120,
      "chip": "ym2612"
    },
    {
      "channel": 2,
      "note": 52,
      "start": 25.9538,
      "duration": 0.0159,
      "velocity": 100,
      "chip": "ym2612"
    },
    {
      "channel": 0,
      "note": 80,
      "start": 25.9663,
      "duration": 0.0161,
      "velocity": 124,
      "chip": "ym2612"
    },
    {
      "channel": 4,
      "note": 57,
      "start": 25.9674,
      "duration": 0.0161,
      "velocity": 120,
      "chip": "ym2612"
    },
    {
      "channel": 3,
      "note": 64,
      "start": 25.9686,
      "duration": 0.0161,
      "velocity": 120,
      "chip": "ym2612"
    },
    {
      "channel": 2,
      "note": 52,
      "start": 25.9697,
      "duration": 0.0161,
      "velocity": 100,
      "chip": "ym2612"
    },
    {
      "channel": 0,
      "note": 77,
      "start": 25.9824,
      "duration": 0.0161,
      "velocity": 124,
      "chip": "ym2612"
    },
    {
      "channel": 4,
      "note": 57,
      "start": 25.9835,
      "duration": 0.0162,
      "velocity": 120,
      "chip": "ym2612"
    },
    {
      "channel": 3,
      "note": 64,
      "start": 25.9847,
      "duration": 0.0161,
      "velocity": 120,
      "chip": "ym2612"
    },
    {
      "channel": 2,
      "note": 52,
      "start": 25.9858,
      "duration": 0.0161,
      "velocity": 100,
      "chip": "ym2612"
    },
    {
      "channel": 0,
      "note": 75,
      "start": 25.9985,
      "duration": 0.016,
      "velocity": 124,
      "chip": "ym2612"
    },
    {
      "channel": 4,
      "note": 57,
      "start": 25.9997,
      "duration": 0.016,
      "velocity": 120,
      "chip": "ym2612"
    },
    {
      "channel": 3,
      "note": 64,
      "start": 26.0008,
      "duration": 0.016,
      "velocity": 120,
      "chip": "ym2612"
    },
    {
      "channel": 2,
      "note": 52,
      "start": 26.0019,
      "duration": 0.0161,
      "velocity": 100,
      "chip": "ym2612"
    },
    {
      "channel": 0,
      "note": 72,
      "start": 26.0146,
      "duration": 0.0175,
      "velocity": 124,
      "chip": "ym2612"
    },
    {
      "channel": 4,
      "note": 57,
      "start": 26.0157,
      "duration": 0.0175,
      "velocity": 120,
      "chip": "ym2612"
    },
    {
      "channel": 3,
      "note": 64,
      "start": 26.0168,
      "duration": 0.0175,
      "velocity": 120,
      "chip": "ym2612"
    },
    {
      "channel": 2,
      "note": 52,
      "start": 26.018,
      "duration": 0.0174,
      "velocity": 100,
      "chip": "ym2612"
    },
    {
      "channel": 0,
      "note": 70,
      "start": 26.0321,
      "duration": 0.0167,
      "velocity": 124,
      "chip": "ym2612"
    },
    {
      "channel": 4,
      "note": 57,
      "start": 26.0332,
      "duration": 0.0167,
      "velocity": 120,
      "chip": "ym2612"
    },
    {
      "channel": 3,
      "note": 64,
      "start": 26.0344,
      "duration": 0.0167,
      "velocity": 120,
      "chip": "ym2612"
    },
    {
      "channel": 2,
      "note": 52,
      "start": 26.0354,
      "duration": 0.0167,
      "velocity": 100,
      "chip": "ym2612"
    },
    {
      "channel": 0,
      "note": 68,
      "start": 26.0487,
      "duration": 0.0163,
      "velocity": 124,
      "chip": "ym2612"
    },
    {
      "channel": 4,
      "note": 57,
      "start": 26.0499,
      "duration": 0.0163,
      "velocity": 120,
      "chip": "ym2612"
    },
    {
      "channel": 3,
      "note": 64,
      "start": 26.051,
      "duration": 0.0163,
      "velocity": 120,
      "chip": "ym2612"
    },
    {
      "channel": 2,
      "note": 52,
      "start": 26.0521,
      "duration": 0.0163,
      "velocity": 100,
      "chip": "ym2612"
    },
    {
      "channel": 0,
      "note": 65,
      "start": 26.065,
      "duration": 0.0143,
      "velocity": 124,
      "chip": "ym2612"
    },
    {
      "channel": 4,
      "note": 57,
      "start": 26.0661,
      "duration": 0.0143,
      "velocity": 120,
      "chip": "ym2612"
    },
    {
      "channel": 3,
      "note": 64,
      "start": 26.0673,
      "duration": 0.0143,
      "velocity": 120,
      "chip": "ym2612"
    },
    {
      "channel": 2,
      "note": 52,
      "start": 26.0684,
      "duration": 0.0143,
      "velocity": 100,
      "chip": "ym2612"
    },
    {
      "channel": 0,
      "note": 63,
      "start": 26.0793,
      "duration": 0.0178,
      "velocity": 1,
      "chip": "ym2612"
    },
    {
      "channel": 4,
      "note": 57,
      "start": 26.0805,
      "duration": 0.0177,
      "velocity": 120,
      "chip": "ym2612"
    },
    {
      "channel": 3,
      "note": 64,
      "start": 26.0816,
      "duration": 0.0177,
      "velocity": 120,
      "chip": "ym2612"
    },
    {
      "channel": 2,
      "note": 52,
      "start": 26.0827,
      "duration": 0.0178,
      "velocity": 100,
      "chip": "ym2612"
    },
    {
      "channel": 4,
      "note": 57,
      "start": 26.0982,
      "duration": 0.0152,
      "velocity": 120,
      "chip": "ym2612"
    },
    {
      "channel": 3,
      "note": 64,
      "start": 26.0993,
      "duration": 0.0153,
      "velocity": 120,
      "chip": "ym2612"
    },
    {
      "channel": 2,
      "note": 52,
      "start": 26.1005,
      "duration": 0.0153,
      "velocity": 100,
      "chip": "ym2612"
    },
    {
      "channel": 4,
      "note": 57,
      "start": 26.1134,
      "duration": 0.0136,
      "velocity": 120,
      "chip": "ym2612"
    },
    {
      "channel": 3,
      "note": 64,
      "start": 26.1146,
      "duration": 0.0162,
      "velocity": 120,
      "chip": "ym2612"
    },
    {
      "channel": 2,
      "note": 52,
      "start": 26.1157,
      "duration": 0.0165,
      "velocity": 100,
      "chip": "ym2612"
    },
    {
      "channel": 4,
      "note": 59,
      "start": 26.127,
      "duration": 0.0159,
      "velocity": 120,
      "chip": "ym2612"
    },
    {
      "channel": 3,
      "note": 66,
      "start": 26.1309,
      "duration": 0.0136,
      "velocity": 120,
      "chip": "ym2612"
    },
    {
      "channel": 2,
      "note": 52,
      "start": 26.1323,
      "duration": 0.0134,
      "velocity": 100,
      "chip": "ym2612"
    },
    {
      "channel": 4,
      "note": 59,
      "start": 26.1429,
      "duration": 0.016,
      "velocity": 120,
      "chip": "ym2612"
    },
    {
      "channel": 3,
      "note": 66,
      "start": 26.1445,
      "duration": 0.0156,
      "velocity": 120,
      "chip": "ym2612"
    },
    {
      "channel": 2,
      "note": 52,
      "start": 26.1457,
      "duration": 0.0183,
      "velocity": 100,
      "chip": "ym2612"
    },
    {
      "channel": 4,
      "note": 59,
      "start": 26.159,
      "duration": 0.0162,
      "velocity": 120,
      "chip": "ym2612"
    },
    {
      "channel": 3,
      "note": 66,
      "start": 26.1601,
      "duration": 0.0161,
      "velocity": 120,
      "chip": "ym2612"
    },
    {
      "channel": 2,
      "note": 52,
      "start": 26.164,
      "duration": 0.0161,
      "velocity": 100,
      "chip": "ym2612"
    },
    {
      "channel": 4,
      "note": 59,
      "start": 26.1751,
      "duration": 0.0161,
      "velocity": 120,
      "chip": "ym2612"
    },
    {
      "channel": 3,
      "note": 66,
      "start": 26.1762,
      "duration": 0.0161,
      "velocity": 120,
      "chip": "ym2612"
    },
    {
      "channel": 2,
      "note": 52,
      "start": 26.1801,
      "duration": 0.0134,
      "velocity": 100,
      "chip": "ym2612"
    },
    {
      "channel": 4,
      "note": 59,
      "start": 26.1912,
      "duration": 0.0161,
      "velocity": 120,
      "chip": "ym2612"
    },
    {
      "channel": 3,
      "note": 66,
      "start": 26.1923,
      "duration": 0.0162,
      "velocity": 120,
      "chip": "ym2612"
    },
    {
      "channel": 2,
      "note": 52,
      "start": 26.1934,
      "duration": 0.0161,
      "velocity": 100,
      "chip": "ym2612"
    },
    {
      "channel": 4,
      "note": 59,
      "start": 26.2073,
      "duration": 0.0161,
      "velocity": 120,
      "chip": "ym2612"
    },
    {
      "channel": 3,
      "note": 66,
      "start": 26.2085,
      "duration": 0.0161,
      "velocity": 120,
      "chip": "ym2612"
    },
    {
      "channel": 2,
      "note": 52,
      "start": 26.2095,
      "duration": 0.0161,
      "velocity": 100,
      "chip": "ym2612"
    },
    {
      "channel": 4,
      "note": 59,
      "start": 26.2234,
      "duration": 0.0161,
      "velocity": 120,
      "chip": "ym2612"
    },
    {
      "channel": 3,
      "note": 66,
      "start": 26.2246,
      "duration": 0.0161,
      "velocity": 120,
      "chip": "ym2612"
    },
    {
      "channel": 2,
      "note": 52,
      "start": 26.2256,
      "duration": 0.0161,
      "velocity": 100,
      "chip": "ym2612"
    },
    {
      "channel": 4,
      "note": 59,
      "start": 26.2395,
      "duration": 0.0161,
      "velocity": 120,
      "chip": "ym2612"
    },
    {
      "channel": 3,
      "note": 66,
      "start": 26.2407,
      "duration": 0.0161,
      "velocity": 120,
      "chip": "ym2612"
    },
    {
      "channel": 2,
      "note": 52,
      "start": 26.2417,
      "duration": 0.0161,
      "velocity": 100,
      "chip": "ym2612"
    },
    {
      "channel": 4,
      "note": 59,
      "start": 26.2556,
      "duration": 0.0161,
      "velocity": 120,
      "chip": "ym2612"
    },
    {
      "channel": 3,
      "note": 66,
      "start": 26.2567,
      "duration": 0.0161,
      "velocity": 120,
      "chip": "ym2612"
    },
    {
      "channel": 2,
      "note": 52,
      "start": 26.2578,
      "duration": 0.0162,
      "velocity": 100,
      "chip": "ym2612"
    },
    {
      "channel": 4,
      "note": 59,
      "start": 26.2717,
      "duration": 0.0161,
      "velocity": 120,
      "chip": "ym2612"
    },
    {
      "channel": 3,
      "note": 66,
      "start": 26.2728,
      "duration": 0.0161,
      "velocity": 120,
      "chip": "ym2612"
    },
    {
      "channel": 2,
      "note": 52,
      "start": 26.274,
      "duration": 0.0161,
      "velocity": 100,
      "chip": "ym2612"
    },
    {
      "channel": 4,
      "note": 59,
      "start": 26.2878,
      "duration": 0.0161,
      "velocity": 120,
      "chip": "ym2612"
    },
    {
      "channel": 3,
      "note": 66,
      "start": 26.2889,
      "duration": 0.0161,
      "velocity": 120,
      "chip": "ym2612"
    },
    {
      "channel": 2,
      "note": 52,
      "start": 26.2901,
      "duration": 0.0161,
      "velocity": 100,
      "chip": "ym2612"
    },
    {
      "channel": 4,
      "note": 59,
      "start": 26.3039,
      "duration": 0.0198,
      "velocity": 120,
      "chip": "ym2612"
    },
    {
      "channel": 3,
      "note": 66,
      "start": 26.305,
      "duration": 0.02,
      "velocity": 120,
      "chip": "ym2612"
    },
    {
      "channel": 2,
      "note": 52,
      "start": 26.3062,
      "duration": 0.0204,
      "velocity": 100,
      "chip": "ym2612"
    },
    {
      "channel": 0,
      "note": 36,
      "start": 26.3223,
      "duration": 0.0144,
      "velocity": 115,
      "chip": "ym2612"
    },
    {
      "channel": 4,
      "note": 59,
      "start": 26.3237,
      "duration": 0.0141,
      "velocity": 120,
      "chip": "ym2612"
    },
    {
      "channel": 3,
      "note": 66,
      "start": 26.3251,
      "duration": 0.0139,
      "velocity": 120,
      "chip": "ym2612"
    },
    {
      "channel": 2,
      "note": 52,
      "start": 26.3266,
      "duration": 0.0137,
      "velocity": 100,
      "chip": "ym2612"
    },
    {
      "channel": 0,
      "note": 36,
      "start": 26.3366,
      "duration": 0.0161,
      "velocity": 115,
      "chip": "ym2612"
    },
    {
      "channel": 4,
      "note": 59,
      "start": 26.3378,
      "duration": 0.016,
      "velocity": 120,
      "chip": "ym2612"
    },
    {
      "channel": 3,
      "note": 66,
      "start": 26.339,
      "duration": 0.016,
      "velocity": 120,
      "chip": "ym2612"
    },
    {
      "channel": 2,
      "note": 52,
      "start": 26.3403,
      "duration": 0.0158,
      "velocity": 100,
      "chip": "ym2612"
    },
    {
      "channel": 0,
      "note": 37,
      "start": 26.3527,
      "duration": 0.0161,
      "velocity": 115,
      "chip": "ym2612"
    },
    {
      "channel": 4,
      "note": 59,
      "start": 26.3539,
      "duration": 0.0161,
      "velocity": 120,
      "chip": "ym2612"
    },
    {
      "channel": 3,
      "note": 66,
      "start": 26.355,
      "duration": 0.0161,
      "velocity": 120,
      "chip": "ym2612"
    },
    {
      "channel": 2,
      "note": 52,
      "start": 26.3561,
      "duration": 0.0161,
      "velocity": 100,
      "chip": "ym2612"
    },
    {
      "channel": 0,
      "note": 37,
      "start": 26.3688,
      "duration": 0.0161,
      "velocity": 115,
      "chip": "ym2612"
    },
    {
      "channel": 4,
      "note": 59,
      "start": 26.37,
      "duration": 0.0161,
      "velocity": 120,
      "chip": "ym2612"
    },
    {
      "channel": 3,
      "note": 66,
      "start": 26.3711,
      "duration": 0.0161,
      "velocity": 120,
      "chip": "ym2612"
    },
    {
      "channel": 2,
      "note": 52,
      "start": 26.3722,
      "duration": 0.0161,
      "velocity": 100,
      "chip": "ym2612"
    },
    {
      "channel": 0,
      "note": 38,
      "start": 26.3849,
      "duration": 0.0161,
      "velocity": 115,
      "chip": "ym2612"
    },
    {
      "channel": 4,
      "note": 59,
      "start": 26.3861,
      "duration": 0.0161,
      "velocity": 120,
      "chip": "ym2612"
    },
    {
      "channel": 3,
      "note": 66,
      "start": 26.3872,
      "duration": 0.0161,
      "velocity": 120,
      "chip": "ym2612"
    },
    {
      "channel": 2,
      "note": 52,
      "start": 26.3883,
      "duration": 0.0161,
      "velocity": 100,
      "chip": "ym2612"
    },
    {
      "channel": 0,
      "note": 38,
      "start": 26.401,
      "duration": 0.0161,
      "velocity": 115,
      "chip": "ym2612"
    },
    {
      "channel": 4,
      "note": 59,
      "start": 26.4022,
      "duration": 0.0161,
      "velocity": 120,
      "chip": "ym2612"
    },
    {
      "channel": 3,
      "note": 66,
      "start": 26.4033,
      "duration": 0.0161,
      "velocity": 120,
      "chip": "ym2612"
    },
    {
      "channel": 2,
      "note": 52,
      "start": 26.4044,
      "duration": 0.0161,
      "velocity": 100,
      "chip": "ym2612"
    },
    {
      "channel": 0,
      "note": 39,
      "start": 26.4171,
      "duration": 0.0161,
      "velocity": 115,
      "chip": "ym2612"
    },
    {
      "channel": 4,
      "note": 59,
      "start": 26.4183,
      "duration": 0.0161,
      "velocity": 120,
      "chip": "ym2612"
    },
    {
      "channel": 3,
      "note": 66,
      "start": 26.4194,
      "duration": 0.0161,
      "velocity": 120,
      "chip": "ym2612"
    },
    {
      "channel": 2,
      "note": 52,
      "start": 26.4205,
      "duration": 0.0161,
      "velocity": 100,
      "chip": "ym2612"
    },
    {
      "channel": 0,
      "note": 39,
      "start": 26.4332,
      "duration": 0.0161,
      "velocity": 115,
      "chip": "ym2612"
    },
    {
      "channel": 4,
      "note": 59,
      "start": 26.4344,
      "duration": 0.0161,
      "velocity": 120,
      "chip": "ym2612"
    },
    {
      "channel": 3,
      "note": 66,
      "start": 26.4355,
      "duration": 0.0161,
      "velocity": 120,
      "chip": "ym2612"
    },
    {
      "channel": 2,
      "note": 52,
      "start": 26.4366,
      "duration": 0.0161,
      "velocity": 100,
      "chip": "ym2612"
    },
    {
      "channel": 0,
      "note": 40,
      "start": 26.4493,
      "duration": 0.0161,
      "velocity": 115,
      "chip": "ym2612"
    },
    {
      "channel": 4,
      "note": 59,
      "start": 26.4505,
      "duration": 0.0161,
      "velocity": 120,
      "chip": "ym2612"
    },
    {
      "channel": 3,
      "note": 66,
      "start": 26.4516,
      "duration": 0.0161,
      "velocity": 120,
      "chip": "ym2612"
    },
    {
      "channel": 2,
      "note": 52,
      "start": 26.4527,
      "duration": 0.0161,
      "velocity": 100,
      "chip": "ym2612"
    },
    {
      "channel": 0,
      "note": 40,
      "start": 26.4654,
      "duration": 0.0161,
      "velocity": 115,
      "chip": "ym2612"
    },
    {
      "channel": 4,
      "note": 59,
      "start": 26.4665,
      "duration": 0.0161,
      "velocity": 120,
      "chip": "ym2612"
    },
    {
      "channel": 3,
      "note": 66,
      "start": 26.4677,
      "duration": 0.0161,
      "velocity": 120,
      "chip": "ym2612"
    },
    {
      "channel": 2,
      "note": 52,
      "start": 26.4688,
      "duration": 0.0161,
      "velocity": 100,
      "chip": "ym2612"
    },
    {
      "channel": 0,
      "note": 40,
      "start": 26.4815,
      "duration": 0.0172,
      "velocity": 115,
      "chip": "ym2612"
    },
    {
      "channel": 4,
      "note": 59,
      "start": 26.4826,
      "duration": 0.0172,
      "velocity": 120,
      "chip": "ym2612"
    },
    {
      "channel": 3,
      "note": 66,
      "start": 26.4838,
      "duration": 0.0172,
      "velocity": 120,
      "chip": "ym2612"
    },
    {
      "channel": 2,
      "note": 52,
      "start": 26.4849,
      "duration": 0.0172,
      "velocity": 100,
      "chip": "ym2612"
    },
    {
      "channel": 0,
      "note": 41,
      "start": 26.4987,
      "duration": 0.0167,
      "velocity": 115,
      "chip": "ym2612"
    },
    {
      "channel": 4,
      "note": 59,
      "start": 26.4999,
      "duration": 0.0169,
      "velocity": 120,
      "chip": "ym2612"
    },
    {
      "channel": 3,
      "note": 66,
      "start": 26.501,
      "duration": 0.0172,
      "velocity": 120,
      "chip": "ym2612"
    },
    {
      "channel": 2,
      "note": 52,
      "start": 26.5021,
      "duration": 0.0175,
      "velocity": 100,
      "chip": "ym2612"
    },
    {
      "channel": 0,
      "note": 41,
      "start": 26.5154,
      "duration": 0.0163,
      "velocity": 115,
      "chip": "ym2612"
    },
    {
      "channel": 4,
      "note": 59,
      "start": 26.5168,
      "duration": 0.0161,
      "velocity": 120,
      "chip": "ym2612"
    },
    {
      "channel": 3,
      "note": 66,
      "start": 26.5182,
      "duration": 0.0159,
      "velocity": 120,
      "chip": "ym2612"
    },
    {
      "channel": 2,
      "note": 52,
      "start": 26.5197,
      "duration": 0.0156,
      "velocity": 100,
      "chip": "ym2612"
    },
    {
      "channel": 0,
      "note": 42,
      "start": 26.5317,
      "duration": 0.0146,
      "velocity": 115,
      "chip": "ym2612"
    },
    {
      "channel": 4,
      "note": 59,
      "start": 26.5329,
      "duration": 0.0145,
      "velocity": 120,
      "chip": "ym2612"
    },
    {
      "channel": 3,
      "note": 66,
      "start": 26.5341,
      "duration": 0.0144,
      "velocity": 120,
      "chip": "ym2612"
    },
    {
      "channel": 2,
      "note": 52,
      "start": 26.5353,
      "duration": 0.0144,
      "velocity": 100,
      "chip": "ym2612"
    },
    {
      "channel": 0,
      "note": 42,
      "start": 26.5462,
      "duration": 0.0185,
      "velocity": 115,
      "chip": "ym2612"
    },
    {
      "channel": 4,
      "note": 59,
      "start": 26.5474,
      "duration": 0.0185,
      "velocity": 120,
      "chip": "ym2612"
    },
    {
      "channel": 3,
      "note": 66,
      "start": 26.5485,
      "duration": 0.0185,
      "velocity": 120,
      "chip": "ym2612"
    },
    {
      "channel": 2,
      "note": 52,
      "start": 26.5497,
      "duration": 0.0185,
      "velocity": 100,
      "chip": "ym2612"
    },
    {
      "channel": 0,
      "note": 43,
      "start": 26.5648,
      "duration": 0.0161,
      "velocity": 115,
      "chip": "ym2612"
    },
    {
      "channel": 4,
      "note": 59,
      "start": 26.5659,
      "duration": 0.0161,
      "velocity": 120,
      "chip": "ym2612"
    },
    {
      "channel": 3,
      "note": 66,
      "start": 26.5671,
      "duration": 0.0161,
      "velocity": 120,
      "chip": "ym2612"
    },
    {
      "channel": 2,
      "note": 52,
      "start": 26.5682,
      "duration": 0.0161,
      "velocity": 100,
      "chip": "ym2612"
    },
    {
      "channel": 0,
      "note": 43,
      "start": 26.5809,
      "duration": 0.0157,
      "velocity": 115,
      "chip": "ym2612"
    },
    {
      "channel": 4,
      "note": 59,
      "start": 26.582,
      "duration": 0.0158,
      "velocity": 120,
      "chip": "ym2612"
    },
    {
      "channel": 3,
      "note": 66,
      "start": 26.5832,
      "duration": 0.0158,
      "velocity": 120,
      "chip": "ym2612"
    },
    {
      "channel": 2,
      "note": 52,
      "start": 26.5843,
      "duration": 0.0157,
      "velocity": 100,
      "chip": "ym2612"
    },
    {
      "channel": 0,
      "note": 44,
      "start": 26.5966,
      "duration": 0.0137,
      "velocity": 115,
      "chip": "ym2612"
    },
    {
      "channel": 4,
      "note": 59,
      "start": 26.5978,
      "duration": 0.014,
      "velocity": 120,
      "chip": "ym2612"
    },
    {
      "channel": 3,
      "note": 66,
      "start": 26.5989,
      "duration": 0.014,
      "velocity": 120,
      "chip": "ym2612"
    },
    {
      "channel": 2,
      "note": 52,
      "start": 26.6,
      "duration": 0.0141,
      "velocity": 100,
      "chip": "ym2612"
    },
    {
      "channel": 0,
      "note": 44,
      "start": 26.6103,
      "duration": 0.0161,
      "velocity": 115,
      "chip": "ym2612"
    },
    {
      "channel": 4,
      "note": 59,
      "start": 26.6118,
      "duration": 0.0186,
      "velocity": 120,
      "chip": "ym2612"
    },
    {
      "channel": 3,
      "note": 66,
      "start": 26.6129,
      "duration": 0.0185,
      "velocity": 120,
      "chip": "ym2612"
    },
    {
      "channel": 2,
      "note": 52,
      "start": 26.6141,
      "duration": 0.0185,
      "velocity": 100,
      "chip": "ym2612"
    },
    {
      "channel": 0,
      "note": 44,
      "start": 26.6264,
      "duration": 0.0162,
      "velocity": 115,
      "chip": "ym2612"
    },
    {
      "channel": 4,
      "note": 59,
      "start": 26.6303,
      "duration": 0.0134,
      "velocity": 120,
      "chip": "ym2612"
    },
    {
      "channel": 3,
      "note": 66,
      "start": 26.6314,
      "duration": 0.0161,
      "velocity": 120,
      "chip": "ym2612"
    },
    {
      "channel": 2,
      "note": 52,
      "start": 26.6326,
      "duration": 0.0162,
      "velocity": 100,
      "chip": "ym2612"
    },
    {
      "channel": 0,
      "note": 45,
      "start": 26.6426,
      "duration": 0.0161,
      "velocity": 115,
      "chip": "ym2612"
    },
    {
      "channel": 4,
      "note": 59,
      "start": 26.6437,
      "duration": 0.0161,
      "velocity": 120,
      "chip": "ym2612"
    },
    {
      "channel": 3,
      "note": 66,
      "start": 26.6476,
      "duration": 0.0157,
      "velocity": 120,
      "chip": "ym2612"
    },
    {
      "channel": 2,
      "note": 52,
      "start": 26.6487,
      "duration": 0.0157,
      "velocity": 100,
      "chip": "ym2612"
    },
    {
      "channel": 0,
      "note": 45,
      "start": 26.6586,
      "duration": 0.0161,
      "velocity": 115,
      "chip": "ym2612"
    },
    {
      "channel": 4,
      "note": 59,
      "start": 26.6598,
      "duration": 0.0161,
      "velocity": 120,
      "chip": "ym2612"
    },
    {
      "channel": 3,
      "note": 66,
      "start": 26.6633,
      "duration": 0.0137,
      "velocity": 120,
      "chip": "ym2612"
    },
    {
      "channel": 2,
      "note": 52,
      "start": 26.6644,
      "duration": 0.014,
      "velocity": 100,
      "chip": "ym2612"
    },
    {
      "channel": 0,
      "note": 46,
      "start": 26.6747,
      "duration": 0.0161,
      "velocity": 115,
      "chip": "ym2612"
    },
    {
      "channel": 4,
      "note": 59,
      "start": 26.6759,
      "duration": 0.0161,
      "velocity": 120,
      "chip": "ym2612"
    },
    {
      "channel": 3,
      "note": 66,
      "start": 26.677,
      "duration": 0.0161,
      "velocity": 120,
      "chip": "ym2612"
    },
    {
      "channel": 2,
      "note": 52,
      "start": 26.6784,
      "duration": 0.0186,
      "velocity": 100,
      "chip": "ym2612"
    },
    {
      "channel": 0,
      "note": 46,
      "start": 26.6908,
      "duration": 0.0179,
      "velocity": 124,
      "chip": "ym2612"
    },
    {
      "channel": 4,
      "note": 59,
      "start": 26.692,
      "duration": 0.0181,
      "velocity": 120,
      "chip": "ym2612"
    },
    {
      "channel": 3,
      "note": 66,
      "start": 26.6931,
      "duration": 0.0211,
      "velocity": 120,
      "chip": "ym2612"
    },
    {
      "channel": 2,
      "note": 52,
      "start": 26.697,
      "duration": 0.0187,
      "velocity": 100,
      "chip": "ym2612"
    },
    {
      "channel": 0,
      "note": 84,
      "start": 26.7087,
      "duration": 0.0144,
      "velocity": 124,
      "chip": "ym2612"
    },
    {
      "channel": 4,
      "note": 59,
      "start": 26.7102,
      "duration": 0.0141,
      "velocity": 120,
      "chip": "ym2612"
    },
    {
      "channel": 3,
      "note": 66,
      "start": 26.7143,
      "duration": 0.0112,
      "velocity": 120,
      "chip": "ym2612"
    },
    {
      "channel": 2,
      "note": 52,
      "start": 26.7158,
      "duration": 0.0109,
      "velocity": 100,
      "chip": "ym2612"
    },
    {
      "channel": 0,
      "note": 82,
      "start": 26.7231,
      "duration": 0.016,
      "velocity": 124,
      "chip": "ym2612"
    },
    {
      "channel": 4,
      "note": 59,
      "start": 26.7243,
      "duration": 0.016,
      "velocity": 120,
      "chip": "ym2612"
    },
    {
      "channel": 3,
      "note": 66,
      "start": 26.7255,
      "duration": 0.0159,
      "velocity": 120,
      "chip": "ym2612"
    },
    {
      "channel": 2,
      "note": 52,
      "start": 26.7267,
      "duration": 0.0159,
      "velocity": 100,
      "chip": "ym2612"
    },
    {
      "channel": 0,
      "note": 80,
      "start": 26.7391,
      "duration": 0.0161,
      "velocity": 124,
      "chip": "ym2612"
    },
    {
      "channel": 4,
      "note": 59,
      "start": 26.7403,
      "duration": 0.0161,
      "velocity": 120,
      "chip": "ym2612"
    },
    {
      "channel": 3,
      "note": 66,
      "start": 26.7414,
      "duration": 0.0161,
      "velocity": 120,
      "chip": "ym2612"
    },
    {
      "channel": 2,
      "note": 52,
      "start": 26.7426,
      "duration": 0.0161,
      "velocity": 100,
      "chip": "ym2612"
    },
    {
      "channel": 0,
      "note": 77,
      "start": 26.7552,
      "duration": 0.0161,
      "velocity": 124,
      "chip": "ym2612"
    },
    {
      "channel": 4,
      "note": 59,
      "start": 26.7563,
      "duration": 0.0162,
      "velocity": 120,
      "chip": "ym2612"
    },
    {
      "channel": 3,
      "note": 66,
      "start": 26.7575,
      "duration": 0.0161,
      "velocity": 120,
      "chip": "ym2612"
    },
    {
      "channel": 2,
      "note": 52,
      "start": 26.7586,
      "duration": 0.0161,
      "velocity": 100,
      "chip": "ym2612"
    },
    {
      "channel": 0,
      "note": 75,
      "start": 26.7713,
      "duration": 0.0161,
      "velocity": 124,
      "chip": "ym2612"
    },
    {
      "channel": 4,
      "note": 59,
      "start": 26.7725,
      "duration": 0.0161,
      "velocity": 120,
      "chip": "ym2612"
    },
    {
      "channel": 3,
      "note": 66,
      "start": 26.7736,
      "duration": 0.0161,
      "velocity": 120,
      "chip": "ym2612"
    },
    {
      "channel": 2,
      "note": 52,
      "start": 26.7747,
      "duration": 0.0161,
      "velocity": 100,
      "chip": "ym2612"
    },
    {
      "channel": 0,
      "note": 72,
      "start": 26.7875,
      "duration": 0.0161,
      "velocity": 124,
      "chip": "ym2612"
    },
    {
      "channel": 4,
      "note": 59,
      "start": 26.7886,
      "duration": 0.0161,
      "velocity": 120,
      "chip": "ym2612"
    },
    {
      "channel": 3,
      "note": 66,
      "start": 26.7898,
      "duration": 0.0161,
      "velocity": 120,
      "chip": "ym2612"
    },
    {
      "channel": 2,
      "note": 52,
      "start": 26.7908,
      "duration": 0.0161,
      "velocity": 100,
      "chip": "ym2612"
    },
    {
      "channel": 0,
      "note": 70,
      "start": 26.8036,
      "duration": 0.0161,
      "velocity": 124,
      "chip": "ym2612"
    },
    {
      "channel": 4,
      "note": 59,
      "start": 26.8047,
      "duration": 0.0161,
      "velocity": 120,
      "chip": "ym2612"
    },
    {
      "channel": 3,
      "note": 66,
      "start": 26.8059,
      "duration": 0.0161,
      "velocity": 120,
      "chip": "ym2612"
    },
    {
      "channel": 2,
      "note": 52,
      "start": 26.8069,
      "duration": 0.0161,
      "velocity": 100,
      "chip": "ym2612"
    },
    {
      "channel": 0,
      "note": 68,
      "start": 26.8197,
      "duration": 0.0161,
      "velocity": 124,
      "chip": "ym2612"
    },
    {
      "channel": 4,
      "note": 59,
      "start": 26.8208,
      "duration": 0.0161,
      "velocity": 120,
      "chip": "ym2612"
    },
    {
      "channel": 3,
      "note": 66,
      "start": 26.822,
      "duration": 0.0161,
      "velocity": 120,
      "chip": "ym2612"
    },
    {
      "channel": 2,
      "note": 52,
      "start": 26.823,
      "duration": 0.0161,
      "velocity": 100,
      "chip": "ym2612"
    },
    {
      "channel": 0,
      "note": 65,
      "start": 26.8358,
      "duration": 0.0161,
      "velocity": 124,
      "chip": "ym2612"
    },
    {
      "channel": 4,
      "note": 59,
      "start": 26.8369,
      "duration": 0.0161,
      "velocity": 120,
      "chip": "ym2612"
    },
    {
      "channel": 3,
      "note": 66,
      "start": 26.838,
      "duration": 0.0161,
      "velocity": 120,
      "chip": "ym2612"
    },
    {
      "channel": 2,
      "note": 52,
      "start": 26.8391,
      "duration": 0.0161,
      "velocity": 100,
      "chip": "ym2612"
    },
    {
      "channel": 0,
      "note": 63,
      "start": 26.8518,
      "duration": 0.0153,
      "velocity": 1,
      "chip": "ym2612"
    },
    {
      "channel": 4,
      "note": 59,
      "start": 26.853,
      "duration": 0.0153,
      "velocity": 120,
      "chip": "ym2612"
    },
    {
      "channel": 3,
      "note": 66,
      "start": 26.8541,
      "duration": 0.0153,
      "velocity": 120,
      "chip": "ym2612"
    },
    {
      "channel": 2,
      "note": 52,
      "start": 26.8552,
      "duration": 0.0153,
      "velocity": 100,
      "chip": "ym2612"
    },
    {
      "channel": 4,
      "note": 59,
      "start": 26.8683,
      "duration": 0.0152,
      "velocity": 120,
      "chip": "ym2612"
    },
    {
      "channel": 3,
      "note": 66,
      "start": 26.8694,
      "duration": 0.0153,
      "velocity": 120,
      "chip": "ym2612"
    },
    {
      "channel": 2,
      "note": 52,
      "start": 26.8705,
      "duration": 0.0153,
      "velocity": 100,
      "chip": "ym2612"
    },
    {
      "channel": 4,
      "note": 59,
      "start": 26.8835,
      "duration": 0.0198,
      "velocity": 120,
      "chip": "ym2612"
    },
    {
      "channel": 3,
      "note": 66,
      "start": 26.8847,
      "duration": 0.02,
      "velocity": 120,
      "chip": "ym2612"
    },
    {
      "channel": 2,
      "note": 52,
      "start": 26.8858,
      "duration": 0.0204,
      "velocity": 100,
      "chip": "ym2612"
    },
    {
      "channel": 0,
      "note": 36,
      "start": 26.9019,
      "duration": 0.0144,
      "velocity": 115,
      "chip": "ym2612"
    },
    {
      "channel": 4,
      "note": 59,
      "start": 26.9034,
      "duration": 0.0141,
      "velocity": 120,
      "chip": "ym2612"
    },
    {
      "channel": 3,
      "note": 66,
      "start": 26.9047,
      "duration": 0.014,
      "velocity": 120,
      "chip": "ym2612"
    },
    {
      "channel": 2,
      "note": 52,
      "start": 26.9062,
      "duration": 0.0137,
      "velocity": 100,
      "chip": "ym2612"
    },
    {
      "channel": 0,
      "note": 36,
      "start": 26.9163,
      "duration": 0.0161,
      "velocity": 115,
      "chip": "ym2612"
    },
    {
      "channel": 4,
      "note": 59,
      "start": 26.9175,
      "duration": 0.016,
      "velocity": 120,
      "chip": "ym2612"
    },
    {
      "channel": 3,
      "note": 66,
      "start": 26.9187,
      "duration": 0.016,
      "velocity": 120,
      "chip": "ym2612"
    },
    {
      "channel": 2,
      "note": 52,
      "start": 26.9199,
      "duration": 0.0159,
      "velocity": 100,
      "chip": "ym2612"
    },
    {
      "channel": 0,
      "note": 37,
      "start": 26.9324,
      "duration": 0.0161,
      "velocity": 115,
      "chip": "ym2612"
    },
    {
      "channel": 4,
      "note": 59,
      "start": 26.9335,
      "duration": 0.0161,
      "velocity": 120,
      "chip": "ym2612"
    },
    {
      "channel": 3,
      "note": 66,
      "start": 26.9347,
      "duration": 0.0161,
      "velocity": 120,
      "chip": "ym2612"
    },
    {
      "channel": 2,
      "note": 52,
      "start": 26.9358,
      "duration": 0.0161,
      "velocity": 100,
      "chip": "ym2612"
    },
    {
      "channel": 0,
      "note": 37,
      "start": 26.9485,
      "duration": 0.0169,
      "velocity": 115,
      "chip": "ym2612"
    },
    {
      "channel": 4,
      "note": 59,
      "start": 26.9496,
      "duration": 0.0169,
      "velocity": 120,
      "chip": "ym2612"
    },
    {
      "channel": 3,
      "note": 66,
      "start": 26.9508,
      "duration": 0.0169,
      "velocity": 120,
      "chip": "ym2612"
    },
    {
      "channel": 2,
      "note": 52,
      "start": 26.9518,
      "duration": 0.0169,
      "velocity": 100,
      "chip": "ym2612"
    },
    {
      "channel": 0,
      "note": 38,
      "start": 26.9654,
      "duration": 0.0167,
      "velocity": 115,
      "chip": "ym2612"
    },
    {
      "channel": 4,
      "note": 59,
      "start": 26.9665,
      "duration": 0.0167,
      "velocity": 120,
      "chip": "ym2612"
    },
    {
      "channel": 3,
      "note": 66,
      "start": 26.9677,
      "duration": 0.0167,
      "velocity": 120,
      "chip": "ym2612"
    },
    {
      "channel": 2,
      "note": 52,
      "start": 26.9688,
      "duration": 0.0167,
      "velocity": 100,
      "chip": "ym2612"
    },
    {
      "channel": 0,
      "note": 38,
      "start": 26.9821,
      "duration": 0.0163,
      "velocity": 115,
      "chip": "ym2612"
    },
    {
      "channel": 4,
      "note": 59,
      "start": 26.9832,
      "duration": 0.0163,
      "velocity": 120,
      "chip": "ym2612"
    },
    {
      "channel": 3,
      "note": 66,
      "start": 26.9844,
      "duration": 0.0163,
      "velocity": 120,
      "chip": "ym2612"
    },
    {
      "channel": 2,
      "note": 52,
      "start": 26.9854,
      "duration": 0.0163,
      "velocity": 100,
      "chip": "ym2612"
    },
    {
      "channel": 0,
      "note": 39,
      "start": 26.9983,
      "duration": 0.0147,
      "velocity": 115,
      "chip": "ym2612"
    },
    {
      "channel": 4,
      "note": 59,
      "start": 26.9995,
      "duration": 0.0147,
      "velocity": 120,
      "chip": "ym2612"
    },
    {
      "channel": 3,
      "note": 66,
      "start": 27.0006,
      "duration": 0.0147,
      "velocity": 120,
      "chip": "ym2612"
    },
    {
      "channel": 2,
      "note": 52,
      "start": 27.0018,
      "duration": 0.0146,
      "velocity": 100,
      "chip": "ym2612"
    },
    {
      "channel": 0,
      "note": 39,
      "start": 27.013,
      "duration": 0.0186,
      "velocity": 115,
      "chip": "ym2612"
    },
    {
      "channel": 4,
      "note": 59,
      "start": 27.0142,
      "duration": 0.0186,
      "velocity": 120,
      "chip": "ym2612"
    },
    {
      "channel": 3,
      "note": 66,
      "start": 27.0153,
      "duration": 0.0186,
      "velocity": 120,
      "chip": "ym2612"
    },
    {
      "channel": 2,
      "note": 52,
      "start": 27.0164,
      "duration": 0.0187,
      "velocity": 100,
      "chip": "ym2612"
    },
    {
      "channel": 0,
      "note": 40,
      "start": 27.0317,
      "duration": 0.0161,
      "velocity": 115,
      "chip": "ym2612"
    },
    {
      "channel": 4,
      "note": 59,
      "start": 27.0328,
      "duration": 0.0161,
      "velocity": 120,
      "chip": "ym2612"
    },
    {
      "channel": 3,
      "note": 66,
      "start": 27.034,
      "duration": 0.0161,
      "velocity": 120,
      "chip": "ym2612"
    },
    {
      "channel": 2,
      "note": 52,
      "start": 27.0351,
      "duration": 0.0161,
      "velocity": 100,
      "chip": "ym2612"
    },
    {
      "channel": 0,
      "note": 40,
      "start": 27.0478,
      "duration": 0.0158,
      "velocity": 115,
      "chip": "ym2612"
    },
    {
      "channel": 4,
      "note": 59,
      "start": 27.0489,
      "duration": 0.0158,
      "velocity": 120,
      "chip": "ym2612"
    },
    {
      "channel": 3,
      "note": 66,
      "start": 27.0501,
      "duration": 0.0158,
      "velocity": 120,
      "chip": "ym2612"
    },
    {
      "channel": 2,
      "note": 52,
      "start": 27.0512,
      "duration": 0.0157,
      "velocity": 100,
      "chip": "ym2612"
    },
    {
      "channel": 0,
      "note": 40,
      "start": 27.0635,
      "duration": 0.0137,
      "velocity": 115,
      "chip": "ym2612"
    },
    {
      "channel": 4,
      "note": 59,
      "start": 27.0647,
      "duration": 0.014,
      "velocity": 120,
      "chip": "ym2612"
    },
    {
      "channel": 3,
      "note": 66,
      "start": 27.0658,
      "duration": 0.014,
      "velocity": 120,
      "chip": "ym2612"
    },
    {
      "channel": 2,
      "note": 52,
      "start": 27.0669,
      "duration": 0.0141,
      "velocity": 100,
      "chip": "ym2612"
    },
    {
      "channel": 0,
      "note": 41,
      "start": 27.0772,
      "duration": 0.0206,
      "velocity": 115,
      "chip": "ym2612"
    },
    {
      "channel": 4,
      "note": 59,
      "start": 27.0787,
      "duration": 0.0206,
      "velocity": 120,
      "chip": "ym2612"
    },
    {
      "channel": 3,
      "note": 66,
      "start": 27.0798,
      "duration": 0.0208,
      "velocity": 120,
      "chip": "ym2612"
    },
    {
      "channel": 2,
      "note": 52,
      "start": 27.081,
      "duration": 0.0211,
      "velocity": 100,
      "chip": "ym2612"
    },
    {
      "channel": 0,
      "note": 36,
      "start": 27.0979,
      "duration": 0.0117,
      "velocity": 115,
      "chip": "ym2612"
    },
    {
      "channel": 4,
      "note": 59,
      "start": 27.0993,
      "duration": 0.0142,
      "velocity": 120,
      "chip": "ym2612"
    },
    {
      "channel": 3,
      "note": 66,
      "start": 27.1007,
      "duration": 0.014,
      "velocity": 120,
      "chip": "ym2612"
    },
    {
      "channel": 2,
      "note": 52,
      "start": 27.1022,
      "duration": 0.0137,
      "velocity": 100,
      "chip": "ym2612"
    },
    {
      "channel": 0,
      "note": 36,
      "start": 27.1095,
      "duration": 0.016,
      "velocity": 115,
      "chip": "ym2612"
    },
    {
      "channel": 4,
      "note": 59,
      "start": 27.1135,
      "duration": 0.0132,
      "velocity": 120,
      "chip": "ym2612"
    },
    {
      "channel": 3,
      "note": 66,
      "start": 27.1147,
      "duration": 0.0155,
      "velocity": 120,
      "chip": "ym2612"
    },
    {
      "channel": 2,
      "note": 52,
      "start": 27.1158,
      "duration": 0.0155,
      "velocity": 100,
      "chip": "ym2612"
    },
    {
      "channel": 0,
      "note": 37,
      "start": 27.1256,
      "duration": 0.0161,
      "velocity": 115,
      "chip": "ym2612"
    },
    {
      "channel": 4,
      "note": 59,
      "start": 27.1267,
      "duration": 0.0161,
      "velocity": 120,
      "chip": "ym2612"
    },
    {
      "channel": 3,
      "note": 66,
      "start": 27.1302,
      "duration": 0.0137,
      "velocity": 120,
      "chip": "ym2612"
    },
    {
      "channel": 2,
      "note": 52,
      "start": 27.1314,
      "duration": 0.0141,
      "velocity": 100,
      "chip": "ym2612"
    },
    {
      "channel": 0,
      "note": 37,
      "start": 27.1417,
      "duration": 0.0161,
      "velocity": 115,
      "chip": "ym2612"
    },
    {
      "channel": 4,
      "note": 59,
      "start": 27.1428,
      "duration": 0.0161,
      "velocity": 120,
      "chip": "ym2612"
    },
    {
      "channel": 3,
      "note": 66,
      "start": 27.1439,
      "duration": 0.0161,
      "velocity": 120,
      "chip": "ym2612"
    },
    {
      "channel": 2,
      "note": 52,
      "start": 27.1454,
      "duration": 0.0185,
      "velocity": 100,
      "chip": "ym2612"
    },
    {
      "channel": 0,
      "note": 38,
      "start": 27.1578,
      "duration": 0.0161,
      "velocity": 115,
      "chip": "ym2612"
    },
    {
      "channel": 4,
      "note": 59,
      "start": 27.1589,
      "duration": 0.0161,
      "velocity": 120,
      "chip": "ym2612"
    },
    {
      "channel": 3,
      "note": 66,
      "start": 27.16,
      "duration": 0.0161,
      "velocity": 120,
      "chip": "ym2612"
    },
    {
      "channel": 2,
      "note": 52,
      "start": 27.1639,
      "duration": 0.0134,
      "velocity": 100,
      "chip": "ym2612"
    },
    {
      "channel": 0,
      "note": 38,
      "start": 27.1739,
      "duration": 0.0161,
      "velocity": 115,
      "chip": "ym2612"
    },
    {
      "channel": 4,
      "note": 59,
      "start": 27.175,
      "duration": 0.0161,
      "velocity": 120,
      "chip": "ym2612"
    },
    {
      "channel": 3,
      "note": 66,
      "start": 27.1761,
      "duration": 0.0161,
      "velocity": 120,
      "chip": "ym2612"
    },
    {
      "channel": 2,
      "note": 52,
      "start": 27.1773,
      "duration": 0.0161,
      "velocity": 100,
      "chip": "ym2612"
    },
    {
      "channel": 0,
      "note": 39,
      "start": 27.19,
      "duration": 0.0161,
      "velocity": 115,
      "chip": "ym2612"
    },
    {
      "channel": 4,
      "note": 59,
      "start": 27.1911,
      "duration": 0.0161,
      "velocity": 120,
      "chip": "ym2612"
    },
    {
      "channel": 3,
      "note": 66,
      "start": 27.1922,
      "duration": 0.0161,
      "velocity": 120,
      "chip": "ym2612"
    },
    {
      "channel": 2,
      "note": 52,
      "start": 27.1934,
      "duration": 0.0161,
      "velocity": 100,
      "chip": "ym2612"
    },
    {
      "channel": 0,
      "note": 39,
      "start": 27.206,
      "duration": 0.0161,
      "velocity": 115,
      "chip": "ym2612"
    },
    {
      "channel": 4,
      "note": 59,
      "start": 27.2072,
      "duration": 0.0161,
      "velocity": 120,
      "chip": "ym2612"
    },
    {
      "channel": 3,
      "note": 66,
      "start": 27.2083,
      "duration": 0.0161,
      "velocity": 120,
      "chip": "ym2612"
    },
    {
      "channel": 2,
      "note": 52,
      "start": 27.2095,
      "duration": 0.0161,
      "velocity": 100,
      "chip": "ym2612"
    },
    {
      "channel": 0,
      "note": 40,
      "start": 27.2221,
      "duration": 0.0161,
      "velocity": 115,
      "chip": "ym2612"
    },
    {
      "channel": 4,
      "note": 59,
      "start": 27.2233,
      "duration": 0.0161,
      "velocity": 120,
      "chip": "ym2612"
    },
    {
      "channel": 3,
      "note": 66,
      "start": 27.2244,
      "duration": 0.0161,
      "velocity": 120,
      "chip": "ym2612"
    },
    {
      "channel": 2,
      "note": 52,
      "start": 27.2256,
      "duration": 0.0161,
      "velocity": 100,
      "chip": "ym2612"
    },
    {
      "channel": 0,
      "note": 40,
      "start": 27.2382,
      "duration": 0.0161,
      "velocity": 115,
      "chip": "ym2612"
    },
    {
      "channel": 4,
      "note": 59,
      "start": 27.2394,
      "duration": 0.0161,
      "velocity": 120,
      "chip": "ym2612"
    },
    {
      "channel": 3,
      "note": 66,
      "start": 27.2405,
      "duration": 0.0161,
      "velocity": 120,
      "chip": "ym2612"
    },
    {
      "channel": 2,
      "note": 52,
      "start": 27.2417,
      "duration": 0.0161,
      "velocity": 100,
      "chip": "ym2612"
    },
    {
      "channel": 0,
      "note": 40,
      "start": 27.2544,
      "duration": 0.0161,
      "velocity": 115,
      "chip": "ym2612"
    },
    {
      "channel": 4,
      "note": 59,
      "start": 27.2555,
      "duration": 0.0161,
      "velocity": 120,
      "chip": "ym2612"
    },
    {
      "channel": 3,
      "note": 66,
      "start": 27.2567,
      "duration": 0.0161,
      "velocity": 120,
      "chip": "ym2612"
    },
    {
      "channel": 2,
      "note": 52,
      "start": 27.2578,
      "duration": 0.0161,
      "velocity": 100,
      "chip": "ym2612"
    },
    {
      "channel": 0,
      "note": 41,
      "start": 27.2705,
      "duration": 0.0179,
      "velocity": 115,
      "chip": "ym2612"
    },
    {
      "channel": 4,
      "note": 59,
      "start": 27.2716,
      "duration": 0.0181,
      "velocity": 120,
      "chip": "ym2612"
    },
    {
      "channel": 3,
      "note": 66,
      "start": 27.2728,
      "duration": 0.0184,
      "velocity": 120,
      "chip": "ym2612"
    },
    {
      "channel": 2,
      "note": 52,
      "start": 27.2739,
      "duration": 0.0188,
      "velocity": 100,
      "chip": "ym2612"
    },
    {
      "channel": 0,
      "note": 36,
      "start": 27.2884,
      "duration": 0.0144,
      "velocity": 115,
      "chip": "ym2612"
    },
    {
      "channel": 4,
      "note": 59,
      "start": 27.2898,
      "duration": 0.0141,
      "velocity": 120,
      "chip": "ym2612"
    },
    {
      "channel": 3,
      "note": 66,
      "start": 27.2912,
      "duration": 0.014,
      "velocity": 120,
      "chip": "ym2612"
    },
    {
      "channel": 2,
      "note": 52,
      "start": 27.2926,
      "duration": 0.0137,
      "velocity": 100,
      "chip": "ym2612"
    },
    {
      "channel": 0,
      "note": 36,
      "start": 27.3027,
      "duration": 0.016,
      "velocity": 115,
      "chip": "ym2612"
    },
    {
      "channel": 4,
      "note": 59,
      "start": 27.3039,
      "duration": 0.016,
      "velocity": 120,
      "chip": "ym2612"
    },
    {
      "channel": 3,
      "note": 66,
      "start": 27.3051,
      "duration": 0.0159,
      "velocity": 120,
      "chip": "ym2612"
    },
    {
      "channel": 2,
      "note": 52,
      "start": 27.3063,
      "duration": 0.0159,
      "velocity": 100,
      "chip": "ym2612"
    },
    {
      "channel": 0,
      "note": 37,
      "start": 27.3188,
      "duration": 0.0161,
      "velocity": 115,
      "chip": "ym2612"
    },
    {
      "channel": 4,
      "note": 59,
      "start": 27.3199,
      "duration": 0.0161,
      "velocity": 120,
      "chip": "ym2612"
    },
    {
      "channel": 3,
      "note": 66,
      "start": 27.321,
      "duration": 0.0161,
      "velocity": 120,
      "chip": "ym2612"
    },
    {
      "channel": 2,
      "note": 52,
      "start": 27.3222,
      "duration": 0.0161,
      "velocity": 100,
      "chip": "ym2612"
    },
    {
      "channel": 0,
      "note": 37,
      "start": 27.3349,
      "duration": 0.0161,
      "velocity": 115,
      "chip": "ym2612"
    },
    {
      "channel": 4,
      "note": 59,
      "start": 27.336,
      "duration": 0.0161,
      "velocity": 120,
      "chip": "ym2612"
    },
    {
      "channel": 3,
      "note": 66,
      "start": 27.3371,
      "duration": 0.0161,
      "velocity": 120,
      "chip": "ym2612"
    },
    {
      "channel": 2,
      "note": 52,
      "start": 27.3383,
      "duration": 0.0161,
      "velocity": 100,
      "chip": "ym2612"
    },
    {
      "channel": 0,
      "note": 38,
      "start": 27.351,
      "duration": 0.0161,
      "velocity": 115,
      "chip": "ym2612"
    },
    {
      "channel": 4,
      "note": 59,
      "start": 27.3521,
      "duration": 0.0161,
      "velocity": 120,
      "chip": "ym2612"
    },
    {
      "channel": 3,
      "note": 66,
      "start": 27.3532,
      "duration": 0.0161,
      "velocity": 120,
      "chip": "ym2612"
    },
    {
      "channel": 2,
      "note": 52,
      "start": 27.3544,
      "duration": 0.0161,
      "velocity": 100,
      "chip": "ym2612"
    },
    {
      "channel": 0,
      "note": 38,
      "start": 27.3671,
      "duration": 0.0161,
      "velocity": 115,
      "chip": "ym2612"
    },
    {
      "channel": 4,
      "note": 59,
      "start": 27.3682,
      "duration": 0.0162,
      "velocity": 120,
      "chip": "ym2612"
    },
    {
      "channel": 3,
      "note": 66,
      "start": 27.3693,
      "duration": 0.0161,
      "velocity": 120,
      "chip": "ym2612"
    },
    {
      "channel": 2,
      "note": 52,
      "start": 27.3705,
      "duration": 0.0161,
      "velocity": 100,
      "chip": "ym2612"
    },
    {
      "channel": 0,
      "note": 39,
      "start": 27.3832,
      "duration": 0.0161,
      "velocity": 115,
      "chip": "ym2612"
    },
    {
      "channel": 4,
      "note": 59,
      "start": 27.3844,
      "duration": 0.0161,
      "velocity": 120,
      "chip": "ym2612"
    },
    {
      "channel": 3,
      "note": 66,
      "start": 27.3855,
      "duration": 0.0161,
      "velocity": 120,
      "chip": "ym2612"
    },
    {
      "channel": 2,
      "note": 52,
      "start": 27.3866,
      "duration": 0.0161,
      "velocity": 100,
      "chip": "ym2612"
    },
    {
      "channel": 0,
      "note": 39,
      "start": 27.3993,
      "duration": 0.0161,
      "velocity": 115,
      "chip": "ym2612"
    },
    {
      "channel": 4,
      "note": 59,
      "start": 27.4005,
      "duration": 0.0161,
      "velocity": 120,
      "chip": "ym2612"
    },
    {
      "channel": 3,
      "note": 66,
      "start": 27.4016,
      "duration": 0.0161,
      "velocity": 120,
      "chip": "ym2612"
    },
    {
      "channel": 2,
      "note": 52,
      "start": 27.4027,
      "duration": 0.0161,
      "velocity": 100,
      "chip": "ym2612"
    },
    {
      "channel": 0,
      "note": 40,
      "start": 27.4154,
      "duration": 0.0166,
      "velocity": 115,
      "chip": "ym2612"
    },
    {
      "channel": 4,
      "note": 59,
      "start": 27.4165,
      "duration": 0.0167,
      "velocity": 120,
      "chip": "ym2612"
    },
    {
      "channel": 3,
      "note": 66,
      "start": 27.4177,
      "duration": 0.0166,
      "velocity": 120,
      "chip": "ym2612"
    },
    {
      "channel": 2,
      "note": 52,
      "start": 27.4188,
      "duration": 0.0167,
      "velocity": 100,
      "chip": "ym2612"
    },
    {
      "channel": 0,
      "note": 40,
      "start": 27.432,
      "duration": 0.0167,
      "velocity": 115,
      "chip": "ym2612"
    },
    {
      "channel": 4,
      "note": 59,
      "start": 27.4332,
      "duration": 0.0167,
      "velocity": 120,
      "chip": "ym2612"
    },
    {
      "channel": 3,
      "note": 66,
      "start": 27.4343,
      "duration": 0.0167,
      "velocity": 120,
      "chip": "ym2612"
    },
    {
      "channel": 2,
      "note": 52,
      "start": 27.4354,
      "duration": 0.0167,
      "velocity": 100,
      "chip": "ym2612"
    },
    {
      "channel": 0,
      "note": 40,
      "start": 27.4487,
      "duration": 0.0163,
      "velocity": 115,
      "chip": "ym2612"
    },
    {
      "channel": 4,
      "note": 59,
      "start": 27.4499,
      "duration": 0.0163,
      "velocity": 120,
      "chip": "ym2612"
    },
    {
      "channel": 3,
      "note": 66,
      "start": 27.451,
      "duration": 0.0163,
      "velocity": 120,
      "chip": "ym2612"
    },
    {
      "channel": 2,
      "note": 52,
      "start": 27.4521,
      "duration": 0.0163,
      "velocity": 100,
      "chip": "ym2612"
    },
    {
      "channel": 0,
      "note": 41,
      "start": 27.465,
      "duration": 0.0165,
      "velocity": 124,
      "chip": "ym2612"
    },
    {
      "channel": 4,
      "note": 59,
      "start": 27.4661,
      "duration": 0.0168,
      "velocity": 120,
      "chip": "ym2612"
    },
    {
      "channel": 3,
      "note": 66,
      "start": 27.4673,
      "duration": 0.0171,
      "velocity": 120,
      "chip": "ym2612"
    },
    {
      "channel": 2,
      "note": 52,
      "start": 27.4684,
      "duration": 0.0174,
      "velocity": 100,
      "chip": "ym2612"
    },
    {
      "channel": 0,
      "note": 84,
      "start": 27.4816,
      "duration": 0.0171,
      "velocity": 124,
      "chip": "ym2612"
    },
    {
      "channel": 4,
      "note": 59,
      "start": 27.483,
      "duration": 0.0168,
      "velocity": 120,
      "chip": "ym2612"
    },
    {
      "channel": 3,
      "note": 66,
      "start": 27.4844,
      "duration": 0.0167,
      "velocity": 120,
      "chip": "ym2612"
    },
    {
      "channel": 2,
      "note": 52,
      "start": 27.4859,
      "duration": 0.0164,
      "velocity": 100,
      "chip": "ym2612"
    },
    {
      "channel": 0,
      "note": 82,
      "start": 27.4987,
      "duration": 0.0161,
      "velocity": 124,
      "chip": "ym2612"
    },
    {
      "channel": 4,
      "note": 59,
      "start": 27.4999,
      "duration": 0.016,
      "velocity": 120,
      "chip": "ym2612"
    },
    {
      "channel": 3,
      "note": 66,
      "start": 27.5011,
      "duration": 0.016,
      "velocity": 120,
      "chip": "ym2612"
    },
    {
      "channel": 2,
      "note": 52,
      "start": 27.5023,
      "duration": 0.0158,
      "velocity": 100,
      "chip": "ym2612"
    },
    {
      "channel": 0,
      "note": 80,
      "start": 27.5148,
      "duration": 0.0157,
      "velocity": 124,
      "chip": "ym2612"
    },
    {
      "channel": 4,
      "note": 59,
      "start": 27.5159,
      "duration": 0.0157,
      "velocity": 120,
      "chip": "ym2612"
    },
    {
      "channel": 3,
      "note": 66,
      "start": 27.5171,
      "duration": 0.0157,
      "velocity": 120,
      "chip": "ym2612"
    },
    {
      "channel": 2,
      "note": 52,
      "start": 27.5181,
      "duration": 0.0158,
      "velocity": 100,
      "chip": "ym2612"
    },
    {
      "channel": 0,
      "note": 77,
      "start": 27.5305,
      "duration": 0.0141,
      "velocity": 124,
      "chip": "ym2612"
    },
    {
      "channel": 4,
      "note": 59,
      "start": 27.5316,
      "duration": 0.0141,
      "velocity": 120,
      "chip": "ym2612"
    },
    {
      "channel": 3,
      "note": 66,
      "start": 27.5328,
      "duration": 0.0141,
      "velocity": 120,
      "chip": "ym2612"
    },
    {
      "channel": 2,
      "note": 52,
      "start": 27.5339,
      "duration": 0.0141,
      "velocity": 100,
      "chip": "ym2612"
    },
    {
      "channel": 0,
      "note": 75,
      "start": 27.5445,
      "duration": 0.0158,
      "velocity": 124,
      "chip": "ym2612"
    },
    {
      "channel": 4,
      "note": 59,
      "start": 27.5457,
      "duration": 0.0185,
      "velocity": 120,
      "chip": "ym2612"
    },
    {
      "channel": 3,
      "note": 66,
      "start": 27.5468,
      "duration": 0.0185,
      "velocity": 120,
      "chip": "ym2612"
    },
    {
      "channel": 2,
      "note": 52,
      "start": 27.548,
      "duration": 0.0185,
      "velocity": 100,
      "chip": "ym2612"
    },
    {
      "channel": 0,
      "note": 72,
      "start": 27.5603,
      "duration": 0.0161,
      "velocity": 124,
      "chip": "ym2612"
    },
    {
      "channel": 4,
      "note": 59,
      "start": 27.5642,
      "duration": 0.0161,
      "velocity": 120,
      "chip": "ym2612"
    },
    {
      "channel": 3,
      "note": 66,
      "start": 27.5653,
      "duration": 0.0161,
      "velocity": 120,
      "chip": "ym2612"
    },
    {
      "channel": 2,
      "note": 52,
      "start": 27.5665,
      "duration": 0.0161,
      "velocity": 100,
      "chip": "ym2612"
    },
    {
      "channel": 0,
      "note": 70,
      "start": 27.5764,
      "duration": 0.0161,
      "velocity": 124,
      "chip": "ym2612"
    },
    {
      "channel": 4,
      "note": 59,
      "start": 27.5803,
      "duration": 0.0134,
      "velocity": 120,
      "chip": "ym2612"
    },
    {
      "channel": 3,
      "note": 66,
      "start": 27.5814,
      "duration": 0.0157,
      "velocity": 120,
      "chip": "ym2612"
    },
    {
      "channel": 2,
      "note": 52,
      "start": 27.5826,
      "duration": 0.0157,
      "velocity": 100,
      "chip": "ym2612"
    },
    {
      "channel": 0,
      "note": 68,
      "start": 27.5925,
      "duration": 0.0161,
      "velocity": 124,
      "chip": "ym2612"
    },
    {
      "channel": 4,
      "note": 59,
      "start": 27.5936,
      "duration": 0.0161,
      "velocity": 120,
      "chip": "ym2612"
    },
    {
      "channel": 3,
      "note": 66,
      "start": 27.5971,
      "duration": 0.0141,
      "velocity": 120,
      "chip": "ym2612"
    },
    {
      "channel": 2,
      "note": 52,
      "start": 27.5983,
      "duration": 0.0141,
      "velocity": 100,
      "chip": "ym2612"
    },
    {
      "channel": 0,
      "note": 65,
      "start": 27.6086,
      "duration": 0.0161,
      "velocity": 124,
      "chip": "ym2612"
    },
    {
      "channel": 4,
      "note": 59,
      "start": 27.6097,
      "duration": 0.0161,
      "velocity": 120,
      "chip": "ym2612"
    },
    {
      "channel": 3,
      "note": 66,
      "start": 27.6112,
      "duration": 0.0158,
      "velocity": 120,
      "chip": "ym2612"
    },
    {
      "channel": 2,
      "note": 52,
      "start": 27.6123,
      "duration": 0.0185,
      "velocity": 100,
      "chip": "ym2612"
    },
    {
      "channel": 0,
      "note": 63,
      "start": 27.6247,
      "duration": 0.0153,
      "velocity": 1,
      "chip": "ym2612"
    },
    {
      "channel": 4,
      "note": 59,
      "start": 27.6258,
      "duration": 0.0153,
      "velocity": 120,
      "chip": "ym2612"
    },
    {
      "channel": 3,
      "note": 66,
      "start": 27.627,
      "duration": 0.0153,
      "velocity": 120,
      "chip": "ym2612"
    },
    {
      "channel": 2,
      "note": 52,
      "start": 27.6309,
      "duration": 0.0125,
      "velocity": 100,
      "chip": "ym2612"
    },
    {
      "channel": 4,
      "note": 59,
      "start": 27.6412,
      "duration": 0.0153,
      "velocity": 120,
      "chip": "ym2612"
    },
    {
      "channel": 3,
      "note": 66,
      "start": 27.6423,
      "duration": 0.0152,
      "velocity": 120,
      "chip": "ym2612"
    },
    {
      "channel": 2,
      "note": 52,
      "start": 27.6434,
      "duration": 0.0153,
      "velocity": 100,
      "chip": "ym2612"
    },
    {
      "channel": 4,
      "note": 59,
      "start": 27.6564,
      "duration": 0.0163,
      "velocity": 120,
      "chip": "ym2612"
    },
    {
      "channel": 3,
      "note": 66,
      "start": 27.6575,
      "duration": 0.0166,
      "velocity": 120,
      "chip": "ym2612"
    },
    {
      "channel": 2,
      "note": 52,
      "start": 27.6586,
      "duration": 0.0169,
      "velocity": 100,
      "chip": "ym2612"
    },
    {
      "channel": 4,
      "note": 61,
      "start": 27.6728,
      "duration": 0.0159,
      "velocity": 120,
      "chip": "ym2612"
    },
    {
      "channel": 3,
      "note": 68,
      "start": 27.6742,
      "duration": 0.0156,
      "velocity": 120,
      "chip": "ym2612"
    },
    {
      "channel": 2,
      "note": 52,
      "start": 27.6756,
      "duration": 0.0154,
      "velocity": 100,
      "chip": "ym2612"
    },
    {
      "channel": 4,
      "note": 61,
      "start": 27.6887,
      "duration": 0.016,
      "velocity": 120,
      "chip": "ym2612"
    },
    {
      "channel": 3,
      "note": 68,
      "start": 27.6898,
      "duration": 0.016,
      "velocity": 120,
      "chip": "ym2612"
    },
    {
      "channel": 2,
      "note": 52,
      "start": 27.691,
      "duration": 0.0159,
      "velocity": 100,
      "chip": "ym2612"
    },
    {
      "channel": 4,
      "note": 61,
      "start": 27.7047,
      "duration": 0.0161,
      "velocity": 120,
      "chip": "ym2612"
    },
    {
      "channel": 3,
      "note": 68,
      "start": 27.7059,
      "duration": 0.0161,
      "velocity": 120,
      "chip": "ym2612"
    },
    {
      "channel": 2,
      "note": 52,
      "start": 27.7069,
      "duration": 0.0161,
      "velocity": 100,
      "chip": "ym2612"
    },
    {
      "channel": 4,
      "note": 61,
      "start": 27.7208,
      "duration": 0.0161,
      "velocity": 120,
      "chip": "ym2612"
    },
    {
      "channel": 3,
      "note": 68,
      "start": 27.722,
      "duration": 0.0161,
      "velocity": 120,
      "chip": "ym2612"
    },
    {
      "channel": 2,
      "note": 52,
      "start": 27.723,
      "duration": 0.0162,
      "velocity": 100,
      "chip": "ym2612"
    },
    {
      "channel": 4,
      "note": 61,
      "start": 27.7369,
      "duration": 0.0161,
      "velocity": 120,
      "chip": "ym2612"
    },
    {
      "channel": 3,
      "note": 68,
      "start": 27.738,
      "duration": 0.0161,
      "velocity": 120,
      "chip": "ym2612"
    },
    {
      "channel": 2,
      "note": 52,
      "start": 27.7392,
      "duration": 0.0161,
      "velocity": 100,
      "chip": "ym2612"
    },
    {
      "channel": 4,
      "note": 61,
      "start": 27.753,
      "duration": 0.0161,
      "velocity": 120,
      "chip": "ym2612"
    },
    {
      "channel": 3,
      "note": 68,
      "start": 27.7541,
      "duration": 0.0161,
      "velocity": 120,
      "chip": "ym2612"
    },
    {
      "channel": 2,
      "note": 52,
      "start": 27.7553,
      "duration": 0.0161,
      "velocity": 100,
      "chip": "ym2612"
    },
    {
      "channel": 4,
      "note": 61,
      "start": 27.7691,
      "duration": 0.0161,
      "velocity": 120,
      "chip": "ym2612"
    },
    {
      "channel": 3,
      "note": 68,
      "start": 27.7702,
      "duration": 0.0161,
      "velocity": 120,
      "chip": "ym2612"
    },
    {
      "channel": 2,
      "note": 52,
      "start": 27.7714,
      "duration": 0.0161,
      "velocity": 100,
      "chip": "ym2612"
    },
    {
      "channel": 4,
      "note": 61,
      "start": 27.7852,
      "duration": 0.0161,
      "velocity": 120,
      "chip": "ym2612"
    },
    {
      "channel": 3,
      "note": 68,
      "start": 27.7863,
      "duration": 0.0161,
      "velocity": 120,
      "chip": "ym2612"
    },
    {
      "channel": 2,
      "note": 52,
      "start": 27.7875,
      "duration": 0.0161,
      "velocity": 100,
      "chip": "ym2612"
    },
    {
      "channel": 4,
      "note": 61,
      "start": 27.8013,
      "duration": 0.0161,
      "velocity": 120,
      "chip": "ym2612"
    },
    {
      "channel": 3,
      "note": 68,
      "start": 27.8024,
      "duration": 0.0161,
      "velocity": 120,
      "chip": "ym2612"
    },
    {
      "channel": 2,
      "note": 52,
      "start": 27.8036,
      "duration": 0.0161,
      "velocity": 100,
      "chip": "ym2612"
    },
    {
      "channel": 4,
      "note": 61,
      "start": 27.8174,
      "duration": 0.0161,
      "velocity": 120,
      "chip": "ym2612"
    },
    {
      "channel": 3,
      "note": 68,
      "start": 27.8186,
      "duration": 0.0161,
      "velocity": 120,
      "chip": "ym2612"
    },
    {
      "channel": 2,
      "note": 52,
      "start": 27.8197,
      "duration": 0.0161,
      "velocity": 100,
      "chip": "ym2612"
    },
    {
      "channel": 4,
      "note": 61,
      "start": 27.8335,
      "duration": 0.0161,
      "velocity": 120,
      "chip": "ym2612"
    },
    {
      "channel": 3,
      "note": 68,
      "start": 27.8347,
      "duration": 0.0161,
      "velocity": 120,
      "chip": "ym2612"
    },
    {
      "channel": 2,
      "note": 52,
      "start": 27.8358,
      "duration": 0.0161,
      "velocity": 100,
      "chip": "ym2612"
    },
    {
      "channel": 4,
      "note": 61,
      "start": 27.8496,
      "duration": 0.0198,
      "velocity": 120,
      "chip": "ym2612"
    },
    {
      "channel": 3,
      "note": 68,
      "start": 27.8508,
      "duration": 0.02,
      "velocity": 120,
      "chip": "ym2612"
    },
    {
      "channel": 2,
      "note": 52,
      "start": 27.8518,
      "duration": 0.0204,
      "velocity": 100,
      "chip": "ym2612"
    },
    {
      "channel": 0,
      "note": 36,
      "start": 27.868,
      "duration": 0.0144,
      "velocity": 115,
      "chip": "ym2612"
    },
    {
      "channel": 4,
      "note": 61,
      "start": 27.8694,
      "duration": 0.0142,
      "velocity": 120,
      "chip": "ym2612"
    },
    {
      "channel": 3,
      "note": 68,
      "start": 27.8708,
      "duration": 0.014,
      "velocity": 120,
      "chip": "ym2612"
    },
    {
      "channel": 2,
      "note": 52,
      "start": 27.8723,
      "duration": 0.0137,
      "velocity": 100,
      "chip": "ym2612"
    },
    {
      "channel": 0,
      "note": 36,
      "start": 27.8824,
      "duration": 0.0163,
      "velocity": 115,
      "chip": "ym2612"
    },
    {
      "channel": 4,
      "note": 61,
      "start": 27.8836,
      "duration": 0.0163,
      "velocity": 120,
      "chip": "ym2612"
    },
    {
      "channel": 3,
      "note": 68,
      "start": 27.8848,
      "duration": 0.0162,
      "velocity": 120,
      "chip": "ym2612"
    },
    {
      "channel": 2,
      "note": 52,
      "start": 27.8859,
      "duration": 0.0162,
      "velocity": 100,
      "chip": "ym2612"
    },
    {
      "channel": 0,
      "note": 37,
      "start": 27.8987,
      "duration": 0.0167,
      "velocity": 115,
      "chip": "ym2612"
    },
    {
      "channel": 4,
      "note": 61,
      "start": 27.8999,
      "duration": 0.0167,
      "velocity": 120,
      "chip": "ym2612"
    },
    {
      "channel": 3,
      "note": 68,
      "start": 27.901,
      "duration": 0.0167,
      "velocity": 120,
      "chip": "ym2612"
    },
    {
      "channel": 2,
      "note": 52,
      "start": 27.9021,
      "duration": 0.0167,
      "velocity": 100,
      "chip": "ym2612"
    },
    {
      "channel": 0,
      "note": 37,
      "start": 27.9154,
      "duration": 0.0163,
      "velocity": 115,
      "chip": "ym2612"
    },
    {
      "channel": 4,
      "note": 61,
      "start": 27.9165,
      "duration": 0.0163,
      "velocity": 120,
      "chip": "ym2612"
    },
    {
      "channel": 3,
      "note": 68,
      "start": 27.9177,
      "duration": 0.0163,
      "velocity": 120,
      "chip": "ym2612"
    },
    {
      "channel": 2,
      "note": 52,
      "start": 27.9188,
      "duration": 0.0163,
      "velocity": 100,
      "chip": "ym2612"
    },
    {
      "channel": 0,
      "note": 38,
      "start": 27.9317,
      "duration": 0.015,
      "velocity": 115,
      "chip": "ym2612"
    },
    {
      "channel": 4,
      "note": 61,
      "start": 27.9328,
      "duration": 0.015,
      "velocity": 120,
      "chip": "ym2612"
    },
    {
      "channel": 3,
      "note": 68,
      "start": 27.934,
      "duration": 0.015,
      "velocity": 120,
      "chip": "ym2612"
    },
    {
      "channel": 2,
      "note": 52,
      "start": 27.9351,
      "duration": 0.015,
      "velocity": 100,
      "chip": "ym2612"
    },
    {
      "channel": 0,
      "note": 38,
      "start": 27.9467,
      "duration": 0.0187,
      "velocity": 115,
      "chip": "ym2612"
    },
    {
      "channel": 4,
      "note": 61,
      "start": 27.9478,
      "duration": 0.0187,
      "velocity": 120,
      "chip": "ym2612"
    },
    {
      "channel": 3,
      "note": 68,
      "start": 27.949,
      "duration": 0.0187,
      "velocity": 120,
      "chip": "ym2612"
    },
    {
      "channel": 2,
      "note": 52,
      "start": 27.9501,
      "duration": 0.0186,
      "velocity": 100,
      "chip": "ym2612"
    },
    {
      "channel": 0,
      "note": 39,
      "start": 27.9654,
      "duration": 0.0163,
      "velocity": 115,
      "chip": "ym2612"
    },
    {
      "channel": 4,
      "note": 61,
      "start": 27.9665,
      "duration": 0.0163,
      "velocity": 120,
      "chip": "ym2612"
    },
    {
      "channel": 3,
      "note": 68,
      "start": 27.9677,
      "duration": 0.0163,
      "velocity": 120,
      "chip": "ym2612"
    },
    {
      "channel": 2,
      "note": 52,
      "start": 27.9688,
      "duration": 0.0163,
      "velocity": 100,
      "chip": "ym2612"
    },
    {
      "channel": 0,
      "note": 39,
      "start": 27.9817,
      "duration": 0.0157,
      "velocity": 115,
      "chip": "ym2612"
    },
    {
      "channel": 4,
      "note": 61,
      "start": 27.9828,
      "duration": 0.0157,
      "velocity": 120,
      "chip": "ym2612"
    },
    {
      "channel": 3,
      "note": 68,
      "start": 27.984,
      "duration": 0.0157,
      "velocity": 120,
      "chip": "ym2612"
    },
    {
      "channel": 2,
      "note": 52,
      "start": 27.9851,
      "duration": 0.0158,
      "velocity": 100,
      "chip": "ym2612"
    },
    {
      "channel": 0,
      "note": 40,
      "start": 27.9974,
      "duration": 0.0141,
      "velocity": 115,
      "chip": "ym2612"
    },
    {
      "channel": 4,
      "note": 61,
      "start": 27.9985,
      "duration": 0.0141,
      "velocity": 120,
      "chip": "ym2612"
    },
    {
      "channel": 3,
      "note": 68,
      "start": 27.9997,
      "duration": 0.0141,
      "velocity": 120,
      "chip": "ym2612"
    },
    {
      "channel": 2,
      "note": 52,
      "start": 28.0008,
      "duration": 0.014,
      "velocity": 100,
      "chip": "ym2612"
    },
    {
      "channel": 0,
      "note": 40,
      "start": 28.0115,
      "duration": 0.0158,
      "velocity": 115,
      "chip": "ym2612"
    },
    {
      "channel": 4,
      "note": 61,
      "start": 28.0126,
      "duration": 0.0185,
      "velocity": 120,
      "chip": "ym2612"
    },
    {
      "channel": 3,
      "note": 68,
      "start": 28.0137,
      "duration": 0.0185,
      "velocity": 120,
      "chip": "ym2612"
    },
    {
      "channel": 2,
      "note": 52,
      "start": 28.0148,
      "duration": 0.0186,
      "velocity": 100,
      "chip": "ym2612"
    },
    {
      "channel": 0,
      "note": 40,
      "start": 28.0272,
      "duration": 0.0161,
      "velocity": 115,
      "chip": "ym2612"
    },
    {
      "channel": 4,
      "note": 61,
      "start": 28.0311,
      "duration": 0.0161,
      "velocity": 120,
      "chip": "ym2612"
    },
    {
      "channel": 3,
      "note": 68,
      "start": 28.0322,
      "duration": 0.0161,
      "velocity": 120,
      "chip": "ym2612"
    },
    {
      "channel": 2,
      "note": 52,
      "start": 28.0334,
      "duration": 0.0161,
      "velocity": 100,
      "chip": "ym2612"
    },
    {
      "channel": 0,
      "note": 41,
      "start": 28.0433,
      "duration": 0.0161,
      "velocity": 115,
      "chip": "ym2612"
    },
    {
      "channel": 4,
      "note": 61,
      "start": 28.0472,
      "duration": 0.016,
      "velocity": 120,
      "chip": "ym2612"
    },
    {
      "channel": 3,
      "note": 68,
      "start": 28.0483,
      "duration": 0.0162,
      "velocity": 120,
      "chip": "ym2612"
    },
    {
      "channel": 2,
      "note": 52,
      "start": 28.0495,
      "duration": 0.0166,
      "velocity": 100,
      "chip": "ym2612"
    },
    {
      "channel": 0,
      "note": 41,
      "start": 28.0594,
      "duration": 0.0161,
      "velocity": 115,
      "chip": "ym2612"
    },
    {
      "channel": 4,
      "note": 61,
      "start": 28.0632,
      "duration": 0.0135,
      "velocity": 120,
      "chip": "ym2612"
    },
    {
      "channel": 3,
      "note": 68,
      "start": 28.0646,
      "duration": 0.0136,
      "velocity": 120,
      "chip": "ym2612"
    },
    {
      "channel": 2,
      "note": 52,
      "start": 28.0661,
      "duration": 0.0134,
      "velocity": 100,
      "chip": "ym2612"
    },
    {
      "channel": 0,
      "note": 42,
      "start": 28.0755,
      "duration": 0.0161,
      "velocity": 115,
      "chip": "ym2612"
    },
    {
      "channel": 4,
      "note": 61,
      "start": 28.0767,
      "duration": 0.016,
      "velocity": 120,
      "chip": "ym2612"
    },
    {
      "channel": 3,
      "note": 68,
      "start": 28.0783,
      "duration": 0.0156,
      "velocity": 120,
      "chip": "ym2612"
    },
    {
      "channel": 2,
      "note": 52,
      "start": 28.0795,
      "duration": 0.0183,
      "velocity": 100,
      "chip": "ym2612"
    },
    {
      "channel": 0,
      "note": 42,
      "start": 28.0916,
      "duration": 0.0161,
      "velocity": 115,
      "chip": "ym2612"
    },
    {
      "channel": 4,
      "note": 61,
      "start": 28.0927,
      "duration": 0.0161,
      "velocity": 120,
      "chip": "ym2612"
    },
    {
      "channel": 3,
      "note": 68,
      "start": 28.0939,
      "duration": 0.0161,
      "velocity": 120,
      "chip": "ym2612"
    },
    {
      "channel": 2,
      "note": 52,
      "start": 28.0978,
      "duration": 0.0161,
      "velocity": 100,
      "chip": "ym2612"
    },
    {
      "channel": 0,
      "note": 43,
      "start": 28.1077,
      "duration": 0.0162,
      "velocity": 115,
      "chip": "ym2612"
    },
    {
      "channel": 4,
      "note": 61,
      "start": 28.1088,
      "duration": 0.0161,
      "velocity": 120,
      "chip": "ym2612"
    },
    {
      "channel": 3,
      "note": 68,
      "start": 28.11,
      "duration": 0.0162,
      "velocity": 120,
      "chip": "ym2612"
    },
    {
      "channel": 2,
      "note": 52,
      "start": 28.1139,
      "duration": 0.0134,
      "velocity": 100,
      "chip": "ym2612"
    },
    {
      "channel": 0,
      "note": 43,
      "start": 28.1239,
      "duration": 0.0161,
      "velocity": 115,
      "chip": "ym2612"
    },
    {
      "channel": 4,
      "note": 61,
      "start": 28.125,
      "duration": 0.0161,
      "velocity": 120,
      "chip": "ym2612"
    },
    {
      "channel": 3,
      "note": 68,
      "start": 28.1261,
      "duration": 0.0161,
      "velocity": 120,
      "chip": "ym2612"
    },
    {
      "channel": 2,
      "note": 52,
      "start": 28.1272,
      "duration": 0.0161,
      "velocity": 100,
      "chip": "ym2612"
    },
    {
      "channel": 0,
      "note": 44,
      "start": 28.14,
      "duration": 0.0161,
      "velocity": 115,
      "chip": "ym2612"
    },
    {
      "channel": 4,
      "note": 61,
      "start": 28.1411,
      "duration": 0.0161,
      "velocity": 120,
      "chip": "ym2612"
    },
    {
      "channel": 3,
      "note": 68,
      "start": 28.1422,
      "duration": 0.0161,
      "velocity": 120,
      "chip": "ym2612"
    },
    {
      "channel": 2,
      "note": 52,
      "start": 28.1433,
      "duration": 0.0161,
      "velocity": 100,
      "chip": "ym2612"
    },
    {
      "channel": 0,
      "note": 44,
      "start": 28.156,
      "duration": 0.0161,
      "velocity": 115,
      "chip": "ym2612"
    },
    {
      "channel": 4,
      "note": 61,
      "start": 28.1572,
      "duration": 0.0161,
      "velocity": 120,
      "chip": "ym2612"
    },
    {
      "channel": 3,
      "note": 68,
      "start": 28.1583,
      "duration": 0.0161,
      "velocity": 120,
      "chip": "ym2612"
    },
    {
      "channel": 2,
      "note": 52,
      "start": 28.1594,
      "duration": 0.0161,
      "velocity": 100,
      "chip": "ym2612"
    },
    {
      "channel": 0,
      "note": 44,
      "start": 28.1721,
      "duration": 0.0161,
      "velocity": 115,
      "chip": "ym2612"
    },
    {
      "channel": 4,
      "note": 61,
      "start": 28.1733,
      "duration": 0.0161,
      "velocity": 120,
      "chip": "ym2612"
    },
    {
      "channel": 3,
      "note": 68,
      "start": 28.1744,
      "duration": 0.0161,
      "velocity": 120,
      "chip": "ym2612"
    },
    {
      "channel": 2,
      "note": 52,
      "start": 28.1755,
      "duration": 0.0161,
      "velocity": 100,
      "chip": "ym2612"
    },
    {
      "channel": 0,
      "note": 45,
      "start": 28.1882,
      "duration": 0.0161,
      "velocity": 115,
      "chip": "ym2612"
    },
    {
      "channel": 4,
      "note": 61,
      "start": 28.1894,
      "duration": 0.0161,
      "velocity": 120,
      "chip": "ym2612"
    },
    {
      "channel": 3,
      "note": 68,
      "start": 28.1905,
      "duration": 0.0161,
      "velocity": 120,
      "chip": "ym2612"
    },
    {
      "channel": 2,
      "note": 52,
      "start": 28.1917,
      "duration": 0.0161,
      "velocity": 100,
      "chip": "ym2612"
    },
    {
      "channel": 0,
      "note": 45,
      "start": 28.2043,
      "duration": 0.0161,
      "velocity": 115,
      "chip": "ym2612"
    },
    {
      "channel": 4,
      "note": 61,
      "start": 28.2055,
      "duration": 0.0161,
      "velocity": 120,
      "chip": "ym2612"
    },
    {
      "channel": 3,
      "note": 68,
      "start": 28.2066,
      "duration": 0.0161,
      "velocity": 120,
      "chip": "ym2612"
    },
    {
      "channel": 2,
      "note": 52,
      "start": 28.2078,
      "duration": 0.0161,
      "velocity": 100,
      "chip": "ym2612"
    },
    {
      "channel": 0,
      "note": 46,
      "start": 28.2204,
      "duration": 0.0161,
      "velocity": 115,
      "chip": "ym2612"
    },
    {
      "channel": 4,
      "note": 61,
      "start": 28.2216,
      "duration": 0.0161,
      "velocity": 120,
      "chip": "ym2612"
    },
    {
      "channel": 3,
      "note": 68,
      "start": 28.2227,
      "duration": 0.0161,
      "velocity": 120,
      "chip": "ym2612"
    },
    {
      "channel": 2,
      "note": 52,
      "start": 28.2239,
      "duration": 0.0161,
      "velocity": 100,
      "chip": "ym2612"
    },
    {
      "channel": 0,
      "note": 46,
      "start": 28.2365,
      "duration": 0.0179,
      "velocity": 124,
      "chip": "ym2612"
    },
    {
      "channel": 4,
      "note": 61,
      "start": 28.2377,
      "duration": 0.0181,
      "velocity": 120,
      "chip": "ym2612"
    },
    {
      "channel": 3,
      "note": 68,
      "start": 28.2388,
      "duration": 0.0184,
      "velocity": 120,
      "chip": "ym2612"
    },
    {
      "channel": 2,
      "note": 52,
      "start": 28.24,
      "duration": 0.0187,
      "velocity": 100,
      "chip": "ym2612"
    },
    {
      "channel": 0,
      "note": 84,
      "start": 28.2544,
      "duration": 0.0143,
      "velocity": 124,
      "chip": "ym2612"
    },
    {
      "channel": 4,
      "note": 61,
      "start": 28.2559,
      "duration": 0.0141,
      "velocity": 120,
      "chip": "ym2612"
    },
    {
      "channel": 3,
      "note": 68,
      "start": 28.2573,
      "duration": 0.0139,
      "velocity": 120,
      "chip": "ym2612"
    },
    {
      "channel": 2,
      "note": 52,
      "start": 28.2587,
      "duration": 0.0137,
      "velocity": 100,
      "chip": "ym2612"
    },
    {
      "channel": 0,
      "note": 82,
      "start": 28.2688,
      "duration": 0.0161,
      "velocity": 124,
      "chip": "ym2612"
    },
    {
      "channel": 4,
      "note": 61,
      "start": 28.27,
      "duration": 0.016,
      "velocity": 120,
      "chip": "ym2612"
    },
    {
      "channel": 3,
      "note": 68,
      "start": 28.2712,
      "duration": 0.016,
      "velocity": 120,
      "chip": "ym2612"
    },
    {
      "channel": 2,
      "note": 52,
      "start": 28.2724,
      "duration": 0.0159,
      "velocity": 100,
      "chip": "ym2612"
    },
    {
      "channel": 0,
      "note": 80,
      "start": 28.2849,
      "duration": 0.0161,
      "velocity": 124,
      "chip": "ym2612"
    },
    {
      "channel": 4,
      "note": 61,
      "start": 28.286,
      "duration": 0.0161,
      "velocity": 120,
      "chip": "ym2612"
    },
    {
      "channel": 3,
      "note": 68,
      "start": 28.2871,
      "duration": 0.0161,
      "velocity": 120,
      "chip": "ym2612"
    },
    {
      "channel": 2,
      "note": 52,
      "start": 28.2882,
      "duration": 0.0161,
      "velocity": 100,
      "chip": "ym2612"
    },
    {
      "channel": 0,
      "note": 77,
      "start": 28.301,
      "duration": 0.0161,
      "velocity": 124,
      "chip": "ym2612"
    },
    {
      "channel": 4,
      "note": 61,
      "start": 28.3021,
      "duration": 0.0161,
      "velocity": 120,
      "chip": "ym2612"
    },
    {
      "channel": 3,
      "note": 68,
      "start": 28.3032,
      "duration": 0.0161,
      "velocity": 120,
      "chip": "ym2612"
    },
    {
      "channel": 2,
      "note": 52,
      "start": 28.3043,
      "duration": 0.0161,
      "velocity": 100,
      "chip": "ym2612"
    },
    {
      "channel": 0,
      "note": 75,
      "start": 28.3171,
      "duration": 0.0161,
      "velocity": 124,
      "chip": "ym2612"
    },
    {
      "channel": 4,
      "note": 61,
      "start": 28.3182,
      "duration": 0.0161,
      "velocity": 120,
      "chip": "ym2612"
    },
    {
      "channel": 3,
      "note": 68,
      "start": 28.3193,
      "duration": 0.0161,
      "velocity": 120,
      "chip": "ym2612"
    },
    {
      "channel": 2,
      "note": 52,
      "start": 28.3204,
      "duration": 0.0162,
      "velocity": 100,
      "chip": "ym2612"
    },
    {
      "channel": 0,
      "note": 72,
      "start": 28.3332,
      "duration": 0.0161,
      "velocity": 124,
      "chip": "ym2612"
    },
    {
      "channel": 4,
      "note": 61,
      "start": 28.3343,
      "duration": 0.0161,
      "velocity": 120,
      "chip": "ym2612"
    },
    {
      "channel": 3,
      "note": 68,
      "start": 28.3354,
      "duration": 0.0161,
      "velocity": 120,
      "chip": "ym2612"
    },
    {
      "channel": 2,
      "note": 52,
      "start": 28.3366,
      "duration": 0.0161,
      "velocity": 100,
      "chip": "ym2612"
    },
    {
      "channel": 0,
      "note": 70,
      "start": 28.3492,
      "duration": 0.0162,
      "velocity": 124,
      "chip": "ym2612"
    },
    {
      "channel": 4,
      "note": 61,
      "start": 28.3504,
      "duration": 0.0161,
      "velocity": 120,
      "chip": "ym2612"
    },
    {
      "channel": 3,
      "note": 68,
      "start": 28.3515,
      "duration": 0.0162,
      "velocity": 120,
      "chip": "ym2612"
    },
    {
      "channel": 2,
      "note": 52,
      "start": 28.3527,
      "duration": 0.0161,
      "velocity": 100,
      "chip": "ym2612"
    },
    {
      "channel": 0,
      "note": 68,
      "start": 28.3654,
      "duration": 0.0167,
      "velocity": 124,
      "chip": "ym2612"
    },
    {
      "channel": 4,
      "note": 61,
      "start": 28.3665,
      "duration": 0.0167,
      "velocity": 120,
      "chip": "ym2612"
    },
    {
      "channel": 3,
      "note": 68,
      "start": 28.3677,
      "duration": 0.0167,
      "velocity": 120,
      "chip": "ym2612"
    },
    {
      "channel": 2,
      "note": 52,
      "start": 28.3688,
      "duration": 0.0167,
      "velocity": 100,
      "chip": "ym2612"
    },
    {
      "channel": 0,
      "note": 65,
      "start": 28.3821,
      "duration": 0.0163,
      "velocity": 124,
      "chip": "ym2612"
    },
    {
      "channel": 4,
      "note": 61,
      "start": 28.3832,
      "duration": 0.0163,
      "velocity": 120,
      "chip": "ym2612"
    },
    {
      "channel": 3,
      "note": 68,
      "start": 28.3844,
      "duration": 0.0163,
      "velocity": 120,
      "chip": "ym2612"
    },
    {
      "channel": 2,
      "note": 52,
      "start": 28.3854,
      "duration": 0.0163,
      "velocity": 100,
      "chip": "ym2612"
    },
    {
      "channel": 0,
      "note": 63,
      "start": 28.3983,
      "duration": 0.0145,
      "velocity": 1,
      "chip": "ym2612"
    },
    {
      "channel": 4,
      "note": 61,
      "start": 28.3995,
      "duration": 0.0145,
      "velocity": 120,
      "chip": "ym2612"
    },
    {
      "channel": 3,
      "note": 68,
      "start": 28.4006,
      "duration": 0.0145,
      "velocity": 120,
      "chip": "ym2612"
    },
    {
      "channel": 2,
      "note": 52,
      "start": 28.4017,
      "duration": 0.0145,
      "velocity": 100,
      "chip": "ym2612"
    },
    {
      "channel": 4,
      "note": 61,
      "start": 28.414,
      "duration": 0.0176,
      "velocity": 120,
      "chip": "ym2612"
    },
    {
      "channel": 3,
      "note": 68,
      "start": 28.4151,
      "duration": 0.0176,
      "velocity": 120,
      "chip": "ym2612"
    },
    {
      "channel": 2,
      "note": 52,
      "start": 28.4162,
      "duration": 0.0176,
      "velocity": 100,
      "chip": "ym2612"
    },
    {
      "channel": 4,
      "note": 61,
      "start": 28.4315,
      "duration": 0.0202,
      "velocity": 120,
      "chip": "ym2612"
    },
    {
      "channel": 3,
      "note": 68,
      "start": 28.4327,
      "duration": 0.0205,
      "velocity": 120,
      "chip": "ym2612"
    },
    {
      "channel": 2,
      "note": 52,
      "start": 28.4338,
      "duration": 0.0209,
      "velocity": 100,
      "chip": "ym2612"
    },
    {
      "channel": 0,
      "note": 36,
      "start": 28.4504,
      "duration": 0.014,
      "velocity": 115,
      "chip": "ym2612"
    },
    {
      "channel": 4,
      "note": 61,
      "start": 28.4518,
      "duration": 0.0137,
      "velocity": 120,
      "chip": "ym2612"
    },
    {
      "channel": 3,
      "note": 68,
      "start": 28.4532,
      "duration": 0.0136,
      "velocity": 120,
      "chip": "ym2612"
    },
    {
      "channel": 2,
      "note": 52,
      "start": 28.4546,
      "duration": 0.0134,
      "velocity": 100,
      "chip": "ym2612"
    },
    {
      "channel": 0,
      "note": 36,
      "start": 28.4644,
      "duration": 0.014,
      "velocity": 115,
      "chip": "ym2612"
    },
    {
      "channel": 4,
      "note": 61,
      "start": 28.4656,
      "duration": 0.0139,
      "velocity": 120,
      "chip": "ym2612"
    },
    {
      "channel": 3,
      "note": 68,
      "start": 28.4668,
      "duration": 0.0139,
      "velocity": 120,
      "chip": "ym2612"
    },
    {
      "channel": 2,
      "note": 52,
      "start": 28.468,
      "duration": 0.0138,
      "velocity": 100,
      "chip": "ym2612"
    },
    {
      "channel": 0,
      "note": 37,
      "start": 28.4784,
      "duration": 0.0185,
      "velocity": 115,
      "chip": "ym2612"
    },
    {
      "channel": 4,
      "note": 61,
      "start": 28.4795,
      "duration": 0.0185,
      "velocity": 120,
      "chip": "ym2612"
    },
    {
      "channel": 3,
      "note": 68,
      "start": 28.4807,
      "duration": 0.0185,
      "velocity": 120,
      "chip": "ym2612"
    },
    {
      "channel": 2,
      "note": 52,
      "start": 28.4818,
      "duration": 0.0185,
      "velocity": 100,
      "chip": "ym2612"
    },
    {
      "channel": 0,
      "note": 37,
      "start": 28.4969,
      "duration": 0.0134,
      "velocity": 115,
      "chip": "ym2612"
    },
    {
      "channel": 4,
      "note": 61,
      "start": 28.498,
      "duration": 0.0161,
      "velocity": 120,
      "chip": "ym2612"
    },
    {
      "channel": 3,
      "note": 68,
      "start": 28.4992,
      "duration": 0.0161,
      "velocity": 120,
      "chip": "ym2612"
    },
    {
      "channel": 2,
      "note": 52,
      "start": 28.5003,
      "duration": 0.0161,
      "velocity": 100,
      "chip": "ym2612"
    },
    {
      "channel": 0,
      "note": 38,
      "start": 28.5102,
      "duration": 0.0161,
      "velocity": 115,
      "chip": "ym2612"
    },
    {
      "channel": 4,
      "note": 61,
      "start": 28.5141,
      "duration": 0.0157,
      "velocity": 120,
      "chip": "ym2612"
    },
    {
      "channel": 3,
      "note": 68,
      "start": 28.5153,
      "duration": 0.0158,
      "velocity": 120,
      "chip": "ym2612"
    },
    {
      "channel": 2,
      "note": 52,
      "start": 28.5164,
      "duration": 0.0157,
      "velocity": 100,
      "chip": "ym2612"
    },
    {
      "channel": 0,
      "note": 38,
      "start": 28.5263,
      "duration": 0.0161,
      "velocity": 115,
      "chip": "ym2612"
    },
    {
      "channel": 4,
      "note": 61,
      "start": 28.5298,
      "duration": 0.0137,
      "velocity": 120,
      "chip": "ym2612"
    },
    {
      "channel": 3,
      "note": 68,
      "start": 28.531,
      "duration": 0.014,
      "velocity": 120,
      "chip": "ym2612"
    },
    {
      "channel": 2,
      "note": 52,
      "start": 28.5321,
      "duration": 0.0141,
      "velocity": 100,
      "chip": "ym2612"
    },
    {
      "channel": 0,
      "note": 39,
      "start": 28.5424,
      "duration": 0.0161,
      "velocity": 115,
      "chip": "ym2612"
    },
    {
      "channel": 4,
      "note": 61,
      "start": 28.5436,
      "duration": 0.0161,
      "velocity": 120,
      "chip": "ym2612"
    },
    {
      "channel": 3,
      "note": 68,
      "start": 28.545,
      "duration": 0.0186,
      "velocity": 120,
      "chip": "ym2612"
    },
    {
      "channel": 2,
      "note": 52,
      "start": 28.5462,
      "duration": 0.0185,
      "velocity": 100,
      "chip": "ym2612"
    },
    {
      "channel": 0,
      "note": 39,
      "start": 28.5585,
      "duration": 0.0161,
      "velocity": 115,
      "chip": "ym2612"
    },
    {
      "channel": 4,
      "note": 61,
      "start": 28.5597,
      "duration": 0.0161,
      "velocity": 120,
      "chip": "ym2612"
    },
    {
      "channel": 3,
      "note": 68,
      "start": 28.5636,
      "duration": 0.0134,
      "velocity": 120,
      "chip": "ym2612"
    },
    {
      "channel": 2,
      "note": 52,
      "start": 28.5647,
      "duration": 0.0162,
      "velocity": 100,
      "chip": "ym2612"
    },
    {
      "channel": 0,
      "note": 40,
      "start": 28.5747,
      "duration": 0.0161,
      "velocity": 115,
      "chip": "ym2612"
    },
    {
      "channel": 4,
      "note": 61,
      "start": 28.5758,
      "duration": 0.0161,
      "velocity": 120,
      "chip": "ym2612"
    },
    {
      "channel": 3,
      "note": 68,
      "start": 28.577,
      "duration": 0.0161,
      "velocity": 120,
      "chip": "ym2612"
    },
    {
      "channel": 2,
      "note": 52,
      "start": 28.5809,
      "duration": 0.0157,
      "velocity": 100,
      "chip": "ym2612"
    },
    {
      "channel": 0,
      "note": 40,
      "start": 28.5908,
      "duration": 0.0161,
      "velocity": 115,
      "chip": "ym2612"
    },
    {
      "channel": 4,
      "note": 61,
      "start": 28.5919,
      "duration": 0.0161,
      "velocity": 120,
      "chip": "ym2612"
    },
    {
      "channel": 3,
      "note": 68,
      "start": 28.5931,
      "duration": 0.0161,
      "velocity": 120,
      "chip": "ym2612"
    },
    {
      "channel": 2,
      "note": 52,
      "start": 28.5966,
      "duration": 0.0137,
      "velocity": 100,
      "chip": "ym2612"
    },
    {
      "channel": 0,
      "note": 40,
      "start": 28.6069,
      "duration": 0.0161,
      "velocity": 115,
      "chip": "ym2612"
    },
    {
      "channel": 4,
      "note": 61,
      "start": 28.608,
      "duration": 0.0161,
      "velocity": 120,
      "chip": "ym2612"
    },
    {
      "channel": 3,
      "note": 68,
      "start": 28.6092,
      "duration": 0.0161,
      "velocity": 120,
      "chip": "ym2612"
    },
    {
      "channel": 2,
      "note": 52,
      "start": 28.6102,
      "duration": 0.0161,
      "velocity": 100,
      "chip": "ym2612"
    },
    {
      "channel": 0,
      "note": 41,
      "start": 28.623,
      "duration": 0.0179,
      "velocity": 115,
      "chip": "ym2612"
    },
    {
      "channel": 4,
      "note": 61,
      "start": 28.6241,
      "duration": 0.0181,
      "velocity": 120,
      "chip": "ym2612"
    },
    {
      "channel": 3,
      "note": 68,
      "start": 28.6253,
      "duration": 0.0184,
      "velocity": 120,
      "chip": "ym2612"
    },
    {
      "channel": 2,
      "note": 52,
      "start": 28.6264,
      "duration": 0.0215,
      "velocity": 100,
      "chip": "ym2612"
    },
    {
      "channel": 0,
      "note": 36,
      "start": 28.6408,
      "duration": 0.0144,
      "velocity": 115,
      "chip": "ym2612"
    },
    {
      "channel": 4,
      "note": 61,
      "start": 28.6423,
      "duration": 0.0141,
      "velocity": 120,
      "chip": "ym2612"
    },
    {
      "channel": 3,
      "note": 68,
      "start": 28.6436,
      "duration": 0.014,
      "velocity": 120,
      "chip": "ym2612"
    },
    {
      "channel": 2,
      "note": 52,
      "start": 28.6478,
      "duration": 0.011,
      "velocity": 100,
      "chip": "ym2612"
    },
    {
      "channel": 0,
      "note": 36,
      "start": 28.6552,
      "duration": 0.016,
      "velocity": 115,
      "chip": "ym2612"
    },
    {
      "channel": 4,
      "note": 61,
      "start": 28.6564,
      "duration": 0.016,
      "velocity": 120,
      "chip": "ym2612"
    },
    {
      "channel": 3,
      "note": 68,
      "start": 28.6576,
      "duration": 0.0159,
      "velocity": 120,
      "chip": "ym2612"
    },
    {
      "channel": 2,
      "note": 52,
      "start": 28.6588,
      "duration": 0.0158,
      "velocity": 100,
      "chip": "ym2612"
    },
    {
      "channel": 0,
      "note": 37,
      "start": 28.6712,
      "duration": 0.0161,
      "velocity": 115,
      "chip": "ym2612"
    },
    {
      "channel": 4,
      "note": 61,
      "start": 28.6724,
      "duration": 0.0161,
      "velocity": 120,
      "chip": "ym2612"
    },
    {
      "channel": 3,
      "note": 68,
      "start": 28.6735,
      "duration": 0.0161,
      "velocity": 120,
      "chip": "ym2612"
    },
    {
      "channel": 2,
      "note": 52,
      "start": 28.6747,
      "duration": 0.0161,
      "velocity": 100,
      "chip": "ym2612"
    },
    {
      "channel": 0,
      "note": 37,
      "start": 28.6873,
      "duration": 0.0161,
      "velocity": 115,
      "chip": "ym2612"
    },
    {
      "channel": 4,
      "note": 61,
      "start": 28.6885,
      "duration": 0.0162,
      "velocity": 120,
      "chip": "ym2612"
    },
    {
      "channel": 3,
      "note": 68,
      "start": 28.6896,
      "duration": 0.0161,
      "velocity": 120,
      "chip": "ym2612"
    },
    {
      "channel": 2,
      "note": 52,
      "start": 28.6908,
      "duration": 0.0161,
      "velocity": 100,
      "chip": "ym2612"
    },
    {
      "channel": 0,
      "note": 38,
      "start": 28.7035,
      "duration": 0.016,
      "velocity": 115,
      "chip": "ym2612"
    },
    {
      "channel": 4,
      "note": 61,
      "start": 28.7046,
      "duration": 0.0161,
      "velocity": 120,
      "chip": "ym2612"
    },
    {
      "channel": 3,
      "note": 68,
      "start": 28.7058,
      "duration": 0.016,
      "velocity": 120,
      "chip": "ym2612"
    },
    {
      "channel": 2,
      "note": 52,
      "start": 28.7069,
      "duration": 0.0161,
      "velocity": 100,
      "chip": "ym2612"
    },
    {
      "channel": 0,
      "note": 38,
      "start": 28.7195,
      "duration": 0.0162,
      "velocity": 115,
      "chip": "ym2612"
    },
    {
      "channel": 4,
      "note": 61,
      "start": 28.7207,
      "duration": 0.0161,
      "velocity": 120,
      "chip": "ym2612"
    },
    {
      "channel": 3,
      "note": 68,
      "start": 28.7218,
      "duration": 0.0162,
      "velocity": 120,
      "chip": "ym2612"
    },
    {
      "channel": 2,
      "note": 52,
      "start": 28.723,
      "duration": 0.0161,
      "velocity": 100,
      "chip": "ym2612"
    },
    {
      "channel": 0,
      "note": 39,
      "start": 28.7357,
      "duration": 0.0161,
      "velocity": 115,
      "chip": "ym2612"
    },
    {
      "channel": 4,
      "note": 61,
      "start": 28.7368,
      "duration": 0.0161,
      "velocity": 120,
      "chip": "ym2612"
    },
    {
      "channel": 3,
      "note": 68,
      "start": 28.738,
      "duration": 0.0161,
      "velocity": 120,
      "chip": "ym2612"
    },
    {
      "channel": 2,
      "note": 52,
      "start": 28.739,
      "duration": 0.0161,
      "velocity": 100,
      "chip": "ym2612"
    },
    {
      "channel": 0,
      "note": 39,
      "start": 28.7518,
      "duration": 0.0161,
      "velocity": 115,
      "chip": "ym2612"
    },
    {
      "channel": 4,
      "note": 61,
      "start": 28.7529,
      "duration": 0.0161,
      "velocity": 120,
      "chip": "ym2612"
    },
    {
      "channel": 3,
      "note": 68,
      "start": 28.7541,
      "duration": 0.0161,
      "velocity": 120,
      "chip": "ym2612"
    },
    {
      "channel": 2,
      "note": 52,
      "start": 28.7551,
      "duration": 0.0162,
      "velocity": 100,
      "chip": "ym2612"
    },
    {
      "channel": 0,
      "note": 40,
      "start": 28.7679,
      "duration": 0.0161,
      "velocity": 115,
      "chip": "ym2612"
    },
    {
      "channel": 4,
      "note": 61,
      "start": 28.769,
      "duration": 0.0161,
      "velocity": 120,
      "chip": "ym2612"
    },
    {
      "channel": 3,
      "note": 68,
      "start": 28.7702,
      "duration": 0.0161,
      "velocity": 120,
      "chip": "ym2612"
    },
    {
      "channel": 2,
      "note": 52,
      "start": 28.7713,
      "duration": 0.0161,
      "velocity": 100,
      "chip": "ym2612"
    },
    {
      "channel": 0,
      "note": 40,
      "start": 28.784,
      "duration": 0.0161,
      "velocity": 115,
      "chip": "ym2612"
    },
    {
      "channel": 4,
      "note": 61,
      "start": 28.7851,
      "duration": 0.0161,
      "velocity": 120,
      "chip": "ym2612"
    },
    {
      "channel": 3,
      "note": 68,
      "start": 28.7863,
      "duration": 0.0161,
      "velocity": 120,
      "chip": "ym2612"
    },
    {
      "channel": 2,
      "note": 52,
      "start": 28.7874,
      "duration": 0.0161,
      "velocity": 100,
      "chip": "ym2612"
    },
    {
      "channel": 0,
      "note": 40,
      "start": 28.8001,
      "duration": 0.0161,
      "velocity": 115,
      "chip": "ym2612"
    },
    {
      "channel": 4,
      "note": 61,
      "start": 28.8012,
      "duration": 0.0161,
      "velocity": 120,
      "chip": "ym2612"
    },
    {
      "channel": 3,
      "note": 68,
      "start": 28.8024,
      "duration": 0.0161,
      "velocity": 120,
      "chip": "ym2612"
    },
    {
      "channel": 2,
      "note": 52,
      "start": 28.8035,
      "duration": 0.0161,
      "velocity": 100,
      "chip": "ym2612"
    },
    {
      "channel": 0,
      "note": 41,
      "start": 28.8161,
      "duration": 0.0161,
      "velocity": 115,
      "chip": "ym2612"
    },
    {
      "channel": 4,
      "note": 61,
      "start": 28.8173,
      "duration": 0.0163,
      "velocity": 120,
      "chip": "ym2612"
    },
    {
      "channel": 3,
      "note": 68,
      "start": 28.8184,
      "duration": 0.0166,
      "velocity": 120,
      "chip": "ym2612"
    },
    {
      "channel": 2,
      "note": 52,
      "start": 28.8196,
      "duration": 0.0169,
      "velocity": 100,
      "chip": "ym2612"
    },
    {
      "channel": 0,
      "note": 41,
      "start": 28.8322,
      "duration": 0.0165,
      "velocity": 115,
      "chip": "ym2612"
    },
    {
      "channel": 4,
      "note": 61,
      "start": 28.8337,
      "duration": 0.0162,
      "velocity": 120,
      "chip": "ym2612"
    },
    {
      "channel": 3,
      "note": 68,
      "start": 28.8351,
      "duration": 0.016,
      "velocity": 120,
      "chip": "ym2612"
    },
    {
      "channel": 2,
      "note": 52,
      "start": 28.8365,
      "duration": 0.0158,
      "velocity": 100,
      "chip": "ym2612"
    },
    {
      "channel": 0,
      "note": 42,
      "start": 28.8487,
      "duration": 0.0163,
      "velocity": 115,
      "chip": "ym2612"
    },
    {
      "channel": 4,
      "note": 61,
      "start": 28.8499,
      "duration": 0.0162,
      "velocity": 120,
      "chip": "ym2612"
    },
    {
      "channel": 3,
      "note": 68,
      "start": 28.8511,
      "duration": 0.0162,
      "velocity": 120,
      "chip": "ym2612"
    },
    {
      "channel": 2,
      "note": 52,
      "start": 28.8523,
      "duration": 0.0161,
      "velocity": 100,
      "chip": "ym2612"
    },
    {
      "channel": 0,
      "note": 42,
      "start": 28.865,
      "duration": 0.0156,
      "velocity": 115,
      "chip": "ym2612"
    },
    {
      "channel": 4,
      "note": 61,
      "start": 28.8661,
      "duration": 0.0156,
      "velocity": 120,
      "chip": "ym2612"
    },
    {
      "channel": 3,
      "note": 68,
      "start": 28.8673,
      "duration": 0.0156,
      "velocity": 120,
      "chip": "ym2612"
    },
    {
      "channel": 2,
      "note": 52,
      "start": 28.8684,
      "duration": 0.0155,
      "velocity": 100,
      "chip": "ym2612"
    },
    {
      "channel": 0,
      "note": 43,
      "start": 28.8806,
      "duration": 0.0181,
      "velocity": 115,
      "chip": "ym2612"
    },
    {
      "channel": 4,
      "note": 61,
      "start": 28.8817,
      "duration": 0.0181,
      "velocity": 120,
      "chip": "ym2612"
    },
    {
      "channel": 3,
      "note": 68,
      "start": 28.8829,
      "duration": 0.0181,
      "velocity": 120,
      "chip": "ym2612"
    },
    {
      "channel": 2,
      "note": 52,
      "start": 28.884,
      "duration": 0.0181,
      "velocity": 100,
      "chip": "ym2612"
    },
    {
      "channel": 0,
      "note": 43,
      "start": 28.8987,
      "duration": 0.0167,
      "velocity": 115,
      "chip": "ym2612"
    },
    {
      "channel": 4,
      "note": 61,
      "start": 28.8999,
      "duration": 0.0167,
      "velocity": 120,
      "chip": "ym2612"
    },
    {
      "channel": 3,
      "note": 68,
      "start": 28.901,
      "duration": 0.0167,
      "velocity": 120,
      "chip": "ym2612"
    },
    {
      "channel": 2,
      "note": 52,
      "start": 28.9021,
      "duration": 0.0167,
      "velocity": 100,
      "chip": "ym2612"
    },
    {
      "channel": 0,
      "note": 44,
      "start": 28.9154,
      "duration": 0.0158,
      "velocity": 115,
      "chip": "ym2612"
    },
    {
      "channel": 4,
      "note": 61,
      "start": 28.9165,
      "duration": 0.0159,
      "velocity": 120,
      "chip": "ym2612"
    },
    {
      "channel": 3,
      "note": 68,
      "start": 28.9177,
      "duration": 0.0158,
      "velocity": 120,
      "chip": "ym2612"
    },
    {
      "channel": 2,
      "note": 52,
      "start": 28.9188,
      "duration": 0.0159,
      "velocity": 100,
      "chip": "ym2612"
    },
    {
      "channel": 0,
      "note": 44,
      "start": 28.9312,
      "duration": 0.0141,
      "velocity": 115,
      "chip": "ym2612"
    },
    {
      "channel": 4,
      "note": 61,
      "start": 28.9324,
      "duration": 0.014,
      "velocity": 120,
      "chip": "ym2612"
    },
    {
      "channel": 3,
      "note": 68,
      "start": 28.9335,
      "duration": 0.0141,
      "velocity": 120,
      "chip": "ym2612"
    },
    {
      "channel": 2,
      "note": 52,
      "start": 28.9347,
      "duration": 0.0141,
      "velocity": 100,
      "chip": "ym2612"
    },
    {
      "channel": 0,
      "note": 44,
      "start": 28.9453,
      "duration": 0.0185,
      "velocity": 115,
      "chip": "ym2612"
    },
    {
      "channel": 4,
      "note": 61,
      "start": 28.9464,
      "duration": 0.0185,
      "velocity": 120,
      "chip": "ym2612"
    },
    {
      "channel": 3,
      "note": 68,
      "start": 28.9476,
      "duration": 0.0185,
      "velocity": 120,
      "chip": "ym2612"
    },
    {
      "channel": 2,
      "note": 52,
      "start": 28.9487,
      "duration": 0.0185,
      "velocity": 100,
      "chip": "ym2612"
    },
    {
      "channel": 0,
      "note": 45,
      "start": 28.9638,
      "duration": 0.0134,
      "velocity": 115,
      "chip": "ym2612"
    },
    {
      "channel": 4,
      "note": 61,
      "start": 28.9649,
      "duration": 0.0162,
      "velocity": 120,
      "chip": "ym2612"
    },
    {
      "channel": 3,
      "note": 68,
      "start": 28.9661,
      "duration": 0.0161,
      "velocity": 120,
      "chip": "ym2612"
    },
    {
      "channel": 2,
      "note": 52,
      "start": 28.9672,
      "duration": 0.0161,
      "velocity": 100,
      "chip": "ym2612"
    },
    {
      "channel": 0,
      "note": 45,
      "start": 28.9772,
      "duration": 0.0161,
      "velocity": 115,
      "chip": "ym2612"
    },
    {
      "channel": 4,
      "note": 61,
      "start": 28.9811,
      "duration": 0.0157,
      "velocity": 120,
      "chip": "ym2612"
    },
    {
      "channel": 3,
      "note": 68,
      "start": 28.9822,
      "duration": 0.0158,
      "velocity": 120,
      "chip": "ym2612"
    },
    {
      "channel": 2,
      "note": 52,
      "start": 28.9833,
      "duration": 0.0158,
      "velocity": 100,
      "chip": "ym2612"
    },
    {
      "channel": 0,
      "note": 46,
      "start": 28.9933,
      "duration": 0.0161,
      "velocity": 115,
      "chip": "ym2612"
    },
    {
      "channel": 4,
      "note": 61,
      "start": 28.9968,
      "duration": 0.0137,
      "velocity": 120,
      "chip": "ym2612"
    },
    {
      "channel": 3,
      "note": 68,
      "start": 28.998,
      "duration": 0.0141,
      "velocity": 120,
      "chip": "ym2612"
    },
    {
      "channel": 2,
      "note": 52,
      "start": 28.9991,
      "duration": 0.014,
      "velocity": 100,
      "chip": "ym2612"
    },
    {
      "channel": 0,
      "note": 46,
      "start": 29.0093,
      "duration": 0.0179,
      "velocity": 124,
      "chip": "ym2612"
    },
    {
      "channel": 4,
      "note": 61,
      "start": 29.0106,
      "duration": 0.0209,
      "velocity": 120,
      "chip": "ym2612"
    },
    {
      "channel": 3,
      "note": 68,
      "start": 29.012,
      "duration": 0.0207,
      "velocity": 120,
      "chip": "ym2612"
    },
    {
      "channel": 2,
      "note": 52,
      "start": 29.0131,
      "duration": 0.0211,
      "velocity": 100,
      "chip": "ym2612"
    },
    {
      "channel": 0,
      "note": 84,
      "start": 29.0273,
      "duration": 0.0144,
      "velocity": 124,
      "chip": "ym2612"
    },
    {
      "channel": 4,
      "note": 61,
      "start": 29.0314,
      "duration": 0.0115,
      "velocity": 120,
      "chip": "ym2612"
    },
    {
      "channel": 3,
      "note": 68,
      "start": 29.0328,
      "duration": 0.014,
      "velocity": 120,
      "chip": "ym2612"
    },
    {
      "channel": 2,
      "note": 52,
      "start": 29.0343,
      "duration": 0.0137,
      "velocity": 100,
      "chip": "ym2612"
    },
    {
      "channel": 0,
      "note": 82,
      "start": 29.0417,
      "duration": 0.016,
      "velocity": 124,
      "chip": "ym2612"
    },
    {
      "channel": 4,
      "note": 61,
      "start": 29.0429,
      "duration": 0.016,
      "velocity": 120,
      "chip": "ym2612"
    },
    {
      "channel": 3,
      "note": 68,
      "start": 29.0468,
      "duration": 0.0132,
      "velocity": 120,
      "chip": "ym2612"
    },
    {
      "channel": 2,
      "note": 52,
      "start": 29.048,
      "duration": 0.0155,
      "velocity": 100,
      "chip": "ym2612"
    },
    {
      "channel": 0,
      "note": 80,
      "start": 29.0577,
      "duration": 0.0161,
      "velocity": 124,
      "chip": "ym2612"
    },
    {
      "channel": 4,
      "note": 61,
      "start": 29.0588,
      "duration": 0.0161,
      "velocity": 120,
      "chip": "ym2612"
    },
    {
      "channel": 3,
      "note": 68,
      "start": 29.06,
      "duration": 0.0161,
      "velocity": 120,
      "chip": "ym2612"
    },
    {
      "channel": 2,
      "note": 52,
      "start": 29.0635,
      "duration": 0.0137,
      "velocity": 100,
      "chip": "ym2612"
    },
    {
      "channel": 0,
      "note": 77,
      "start": 29.0738,
      "duration": 0.0161,
      "velocity": 124,
      "chip": "ym2612"
    },
    {
      "channel": 4,
      "note": 61,
      "start": 29.0749,
      "duration": 0.0161,
      "velocity": 120,
      "chip": "ym2612"
    },
    {
      "channel": 3,
      "note": 68,
      "start": 29.0761,
      "duration": 0.0161,
      "velocity": 120,
      "chip": "ym2612"
    },
    {
      "channel": 2,
      "note": 52,
      "start": 29.0772,
      "duration": 0.0161,
      "velocity": 100,
      "chip": "ym2612"
    },
    {
      "channel": 0,
      "note": 75,
      "start": 29.0899,
      "duration": 0.0161,
      "velocity": 124,
      "chip": "ym2612"
    },
    {
      "channel": 4,
      "note": 61,
      "start": 29.091,
      "duration": 0.0161,
      "velocity": 120,
      "chip": "ym2612"
    },
    {
      "channel": 3,
      "note": 68,
      "start": 29.0922,
      "duration": 0.0161,
      "velocity": 120,
      "chip": "ym2612"
    },
    {
      "channel": 2,
      "note": 52,
      "start": 29.0933,
      "duration": 0.0161,
      "velocity": 100,
      "chip": "ym2612"
    },
    {
      "channel": 0,
      "note": 72,
      "start": 29.106,
      "duration": 0.0161,
      "velocity": 124,
      "chip": "ym2612"
    },
    {
      "channel": 4,
      "note": 61,
      "start": 29.1071,
      "duration": 0.0161,
      "velocity": 120,
      "chip": "ym2612"
    },
    {
      "channel": 3,
      "note": 68,
      "start": 29.1083,
      "duration": 0.0161,
      "velocity": 120,
      "chip": "ym2612"
    },
    {
      "channel": 2,
      "note": 52,
      "start": 29.1094,
      "duration": 0.0161,
      "velocity": 100,
      "chip": "ym2612"
    },
    {
      "channel": 0,
      "note": 70,
      "start": 29.1221,
      "duration": 0.0161,
      "velocity": 124,
      "chip": "ym2612"
    },
    {
      "channel": 4,
      "note": 61,
      "start": 29.1232,
      "duration": 0.0161,
      "velocity": 120,
      "chip": "ym2612"
    },
    {
      "channel": 3,
      "note": 68,
      "start": 29.1244,
      "duration": 0.0161,
      "velocity": 120,
      "chip": "ym2612"
    },
    {
      "channel": 2,
      "note": 52,
      "start": 29.1255,
      "duration": 0.0161,
      "velocity": 100,
      "chip": "ym2612"
    },
    {
      "channel": 0,
      "note": 68,
      "start": 29.1382,
      "duration": 0.0162,
      "velocity": 124,
      "chip": "ym2612"
    },
    {
      "channel": 4,
      "note": 61,
      "start": 29.1393,
      "duration": 0.0161,
      "velocity": 120,
      "chip": "ym2612"
    },
    {
      "channel": 3,
      "note": 68,
      "start": 29.1405,
      "duration": 0.0162,
      "velocity": 120,
      "chip": "ym2612"
    },
    {
      "channel": 2,
      "note": 52,
      "start": 29.1416,
      "duration": 0.0161,
      "velocity": 100,
      "chip": "ym2612"
    },
    {
      "channel": 0,
      "note": 65,
      "start": 29.1543,
      "duration": 0.0161,
      "velocity": 124,
      "chip": "ym2612"
    },
    {
      "channel": 4,
      "note": 61,
      "start": 29.1555,
      "duration": 0.0161,
      "velocity": 120,
      "chip": "ym2612"
    },
    {
      "channel": 3,
      "note": 68,
      "start": 29.1566,
      "duration": 0.0161,
      "velocity": 120,
      "chip": "ym2612"
    },
    {
      "channel": 2,
      "note": 52,
      "start": 29.1577,
      "duration": 0.0161,
      "velocity": 100,
      "chip": "ym2612"
    },
    {
      "channel": 0,
      "note": 63,
      "start": 29.1704,
      "duration": 0.0153,
      "velocity": 1,
      "chip": "ym2612"
    },
    {
      "channel": 4,
      "note": 61,
      "start": 29.1716,
      "duration": 0.0153,
      "velocity": 120,
      "chip": "ym2612"
    },
    {
      "channel": 3,
      "note": 68,
      "start": 29.1727,
      "duration": 0.0153,
      "velocity": 120,
      "chip": "ym2612"
    },
    {
      "channel": 2,
      "note": 52,
      "start": 29.1738,
      "duration": 0.0153,
      "velocity": 100,
      "chip": "ym2612"
    },
    {
      "channel": 4,
      "note": 61,
      "start": 29.1868,
      "duration": 0.0153,
      "velocity": 120,
      "chip": "ym2612"
    },
    {
      "channel": 3,
      "note": 68,
      "start": 29.188,
      "duration": 0.0153,
      "velocity": 120,
      "chip": "ym2612"
    },
    {
      "channel": 2,
      "note": 52,
      "start": 29.189,
      "duration": 0.0153,
      "velocity": 100,
      "chip": "ym2612"
    },
    {
      "channel": 4,
      "note": 61,
      "start": 29.2021,
      "duration": 0.0163,
      "velocity": 120,
      "chip": "ym2612"
    },
    {
      "channel": 3,
      "note": 68,
      "start": 29.2032,
      "duration": 0.0165,
      "velocity": 120,
      "chip": "ym2612"
    },
    {
      "channel": 2,
      "note": 52,
      "start": 29.2043,
      "duration": 0.0169,
      "velocity": 100,
      "chip": "ym2612"
    },
    {
      "channel": 4,
      "note": 59,
      "start": 29.2184,
      "duration": 0.0159,
      "velocity": 120,
      "chip": "ym2612"
    },
    {
      "channel": 3,
      "note": 66,
      "start": 29.2198,
      "duration": 0.0157,
      "velocity": 120,
      "chip": "ym2612"
    },
    {
      "channel": 2,
      "note": 52,
      "start": 29.2213,
      "duration": 0.0154,
      "velocity": 100,
      "chip": "ym2612"
    },
    {
      "channel": 4,
      "note": 59,
      "start": 29.2344,
      "duration": 0.016,
      "velocity": 120,
      "chip": "ym2612"
    },
    {
      "channel": 3,
      "note": 66,
      "start": 29.2356,
      "duration": 0.016,
      "velocity": 120,
      "chip": "ym2612"
    },
    {
      "channel": 2,
      "note": 52,
      "start": 29.2368,
      "duration": 0.0159,
      "velocity": 100,
      "chip": "ym2612"
    },
    {
      "channel": 4,
      "note": 59,
      "start": 29.2504,
      "duration": 0.0161,
      "velocity": 120,
      "chip": "ym2612"
    },
    {
      "channel": 3,
      "note": 66,
      "start": 29.2515,
      "duration": 0.0161,
      "velocity": 120,
      "chip": "ym2612"
    },
    {
      "channel": 2,
      "note": 52,
      "start": 29.2527,
      "duration": 0.0161,
      "velocity": 100,
      "chip": "ym2612"
    },
    {
      "channel": 4,
      "note": 59,
      "start": 29.2665,
      "duration": 0.0161,
      "velocity": 120,
      "chip": "ym2612"
    },
    {
      "channel": 3,
      "note": 66,
      "start": 29.2676,
      "duration": 0.0161,
      "velocity": 120,
      "chip": "ym2612"
    },
    {
      "channel": 2,
      "note": 52,
      "start": 29.2688,
      "duration": 0.0161,
      "velocity": 100,
      "chip": "ym2612"
    },
    {
      "channel": 4,
      "note": 59,
      "start": 29.2826,
      "duration": 0.0161,
      "velocity": 120,
      "chip": "ym2612"
    },
    {
      "channel": 3,
      "note": 66,
      "start": 29.2837,
      "duration": 0.0161,
      "velocity": 120,
      "chip": "ym2612"
    },
    {
      "channel": 2,
      "note": 52,
      "start": 29.2849,
      "duration": 0.0161,
      "velocity": 100,
      "chip": "ym2612"
    },
    {
      "channel": 4,
      "note": 59,
      "start": 29.2987,
      "duration": 0.0161,
      "velocity": 120,
      "chip": "ym2612"
    },
    {
      "channel": 3,
      "note": 66,
      "start": 29.2999,
      "duration": 0.0162,
      "velocity": 120,
      "chip": "ym2612"
    },
    {
      "channel": 2,
      "note": 52,
      "start": 29.301,
      "duration": 0.0162,
      "velocity": 100,
      "chip": "ym2612"
    },
    {
      "channel": 4,
      "note": 59,
      "start": 29.3149,
      "duration": 0.0163,
      "velocity": 120,
      "chip": "ym2612"
    },
    {
      "channel": 3,
      "note": 66,
      "start": 29.316,
      "duration": 0.0163,
      "velocity": 120,
      "chip": "ym2612"
    },
    {
      "channel": 2,
      "note": 52,
      "start": 29.3171,
      "duration": 0.0163,
      "velocity": 100,
      "chip": "ym2612"
    },
    {
      "channel": 4,
      "note": 59,
      "start": 29.3312,
      "duration": 0.0158,
      "velocity": 120,
      "chip": "ym2612"
    },
    {
      "channel": 3,
      "note": 66,
      "start": 29.3323,
      "duration": 0.0159,
      "velocity": 120,
      "chip": "ym2612"
    },
    {
      "channel": 2,
      "note": 52,
      "start": 29.3335,
      "duration": 0.0158,
      "velocity": 100,
      "chip": "ym2612"
    },
    {
      "channel": 4,
      "note": 59,
      "start": 29.347,
      "duration": 0.0179,
      "velocity": 120,
      "chip": "ym2612"
    },
    {
      "channel": 3,
      "note": 66,
      "start": 29.3482,
      "duration": 0.0179,
      "velocity": 120,
      "chip": "ym2612"
    },
    {
      "channel": 2,
      "note": 52,
      "start": 29.3492,
      "duration": 0.0179,
      "velocity": 100,
      "chip": "ym2612"
    },
    {
      "channel": 4,
      "note": 59,
      "start": 29.3649,
      "duration": 0.0167,
      "velocity": 120,
      "chip": "ym2612"
    },
    {
      "channel": 3,
      "note": 66,
      "start": 29.366,
      "duration": 0.0167,
      "velocity": 120,
      "chip": "ym2612"
    },
    {
      "channel": 2,
      "note": 52,
      "start": 29.3671,
      "duration": 0.0167,
      "velocity": 100,
      "chip": "ym2612"
    },
    {
      "channel": 4,
      "note": 59,
      "start": 29.3815,
      "duration": 0.0162,
      "velocity": 120,
      "chip": "ym2612"
    },
    {
      "channel": 3,
      "note": 66,
      "start": 29.3827,
      "duration": 0.0161,
      "velocity": 120,
      "chip": "ym2612"
    },
    {
      "channel": 2,
      "note": 52,
      "start": 29.3838,
      "duration": 0.0161,
      "velocity": 100,
      "chip": "ym2612"
    },
    {
      "channel": 4,
      "note": 59,
      "start": 29.3977,
      "duration": 0.0177,
      "velocity": 120,
      "chip": "ym2612"
    },
    {
      "channel": 3,
      "note": 66,
      "start": 29.3988,
      "duration": 0.018,
      "velocity": 120,
      "chip": "ym2612"
    },
    {
      "channel": 2,
      "note": 52,
      "start": 29.3999,
      "duration": 0.0183,
      "velocity": 100,
      "chip": "ym2612"
    },
    {
      "channel": 0,
      "note": 36,
      "start": 29.414,
      "duration": 0.0168,
      "velocity": 115,
      "chip": "ym2612"
    },
    {
      "channel": 4,
      "note": 59,
      "start": 29.4155,
      "duration": 0.0165,
      "velocity": 120,
      "chip": "ym2612"
    },
    {
      "channel": 3,
      "note": 66,
      "start": 29.4168,
      "duration": 0.0163,
      "velocity": 120,
      "chip": "ym2612"
    },
    {
      "channel": 2,
      "note": 52,
      "start": 29.4183,
      "duration": 0.0161,
      "velocity": 100,
      "chip": "ym2612"
    },
    {
      "channel": 0,
      "note": 36,
      "start": 29.4308,
      "duration": 0.0161,
      "velocity": 115,
      "chip": "ym2612"
    },
    {
      "channel": 4,
      "note": 59,
      "start": 29.432,
      "duration": 0.016,
      "velocity": 120,
      "chip": "ym2612"
    },
    {
      "channel": 3,
      "note": 66,
      "start": 29.4332,
      "duration": 0.016,
      "velocity": 120,
      "chip": "ym2612"
    },
    {
      "channel": 2,
      "note": 52,
      "start": 29.4344,
      "duration": 0.0158,
      "velocity": 100,
      "chip": "ym2612"
    },
    {
      "channel": 0,
      "note": 37,
      "start": 29.4469,
      "duration": 0.0134,
      "velocity": 115,
      "chip": "ym2612"
    },
    {
      "channel": 4,
      "note": 59,
      "start": 29.448,
      "duration": 0.0157,
      "velocity": 120,
      "chip": "ym2612"
    },
    {
      "channel": 3,
      "note": 66,
      "start": 29.4492,
      "duration": 0.0157,
      "velocity": 120,
      "chip": "ym2612"
    },
    {
      "channel": 2,
      "note": 52,
      "start": 29.4502,
      "duration": 0.0158,
      "velocity": 100,
      "chip": "ym2612"
    },
    {
      "channel": 0,
      "note": 37,
      "start": 29.4602,
      "duration": 0.0161,
      "velocity": 115,
      "chip": "ym2612"
    },
    {
      "channel": 4,
      "note": 59,
      "start": 29.4637,
      "duration": 0.0141,
      "velocity": 120,
      "chip": "ym2612"
    },
    {
      "channel": 3,
      "note": 66,
      "start": 29.4649,
      "duration": 0.0141,
      "velocity": 120,
      "chip": "ym2612"
    },
    {
      "channel": 2,
      "note": 52,
      "start": 29.466,
      "duration": 0.014,
      "velocity": 100,
      "chip": "ym2612"
    },
    {
      "channel": 0,
      "note": 38,
      "start": 29.4763,
      "duration": 0.0161,
      "velocity": 115,
      "chip": "ym2612"
    },
    {
      "channel": 4,
      "note": 59,
      "start": 29.4778,
      "duration": 0.0158,
      "velocity": 120,
      "chip": "ym2612"
    },
    {
      "channel": 3,
      "note": 66,
      "start": 29.4789,
      "duration": 0.0185,
      "velocity": 120,
      "chip": "ym2612"
    },
    {
      "channel": 2,
      "note": 52,
      "start": 29.48,
      "duration": 0.0186,
      "velocity": 100,
      "chip": "ym2612"
    },
    {
      "channel": 0,
      "note": 38,
      "start": 29.4924,
      "duration": 0.0161,
      "velocity": 115,
      "chip": "ym2612"
    },
    {
      "channel": 4,
      "note": 59,
      "start": 29.4936,
      "duration": 0.0161,
      "velocity": 120,
      "chip": "ym2612"
    },
    {
      "channel": 3,
      "note": 66,
      "start": 29.4975,
      "duration": 0.0161,
      "velocity": 120,
      "chip": "ym2612"
    },
    {
      "channel": 2,
      "note": 52,
      "start": 29.4986,
      "duration": 0.0161,
      "velocity": 100,
      "chip": "ym2612"
    },
    {
      "channel": 0,
      "note": 39,
      "start": 29.5085,
      "duration": 0.0161,
      "velocity": 115,
      "chip": "ym2612"
    },
    {
      "channel": 4,
      "note": 59,
      "start": 29.5097,
      "duration": 0.0161,
      "velocity": 120,
      "chip": "ym2612"
    },
    {
      "channel": 3,
      "note": 66,
      "start": 29.5135,
      "duration": 0.0134,
      "velocity": 120,
      "chip": "ym2612"
    },
    {
      "channel": 2,
      "note": 52,
      "start": 29.5147,
      "duration": 0.0157,
      "velocity": 100,
      "chip": "ym2612"
    },
    {
      "channel": 0,
      "note": 39,
      "start": 29.5246,
      "duration": 0.0161,
      "velocity": 115,
      "chip": "ym2612"
    },
    {
      "channel": 4,
      "note": 59,
      "start": 29.5258,
      "duration": 0.0161,
      "velocity": 120,
      "chip": "ym2612"
    },
    {
      "channel": 3,
      "note": 66,
      "start": 29.5269,
      "duration": 0.0161,
      "velocity": 120,
      "chip": "ym2612"
    },
    {
      "channel": 2,
      "note": 52,
      "start": 29.5304,
      "duration": 0.0141,
      "velocity": 100,
      "chip": "ym2612"
    },
    {
      "channel": 0,
      "note": 40,
      "start": 29.5407,
      "duration": 0.0161,
      "velocity": 115,
      "chip": "ym2612"
    },
    {
      "channel": 4,
      "note": 59,
      "start": 29.5419,
      "duration": 0.0161,
      "velocity": 120,
      "chip": "ym2612"
    },
    {
      "channel": 3,
      "note": 66,
      "start": 29.543,
      "duration": 0.0161,
      "velocity": 120,
      "chip": "ym2612"
    },
    {
      "channel": 2,
      "note": 52,
      "start": 29.5445,
      "duration": 0.0158,
      "velocity": 100,
      "chip": "ym2612"
    },
    {
      "channel": 0,
      "note": 40,
      "start": 29.5568,
      "duration": 0.0161,
      "velocity": 115,
      "chip": "ym2612"
    },
    {
      "channel": 4,
      "note": 59,
      "start": 29.558,
      "duration": 0.0161,
      "velocity": 120,
      "chip": "ym2612"
    },
    {
      "channel": 3,
      "note": 66,
      "start": 29.5591,
      "duration": 0.0161,
      "velocity": 120,
      "chip": "ym2612"
    },
    {
      "channel": 2,
      "note": 52,
      "start": 29.5602,
      "duration": 0.0161,
      "velocity": 100,
      "chip": "ym2612"
    },
    {
      "channel": 0,
      "note": 40,
      "start": 29.5729,
      "duration": 0.0161,
      "velocity": 115,
      "chip": "ym2612"
    },
    {
      "channel": 4,
      "note": 59,
      "start": 29.574,
      "duration": 0.0161,
      "velocity": 120,
      "chip": "ym2612"
    },
    {
      "channel": 3,
      "note": 66,
      "start": 29.5752,
      "duration": 0.0161,
      "velocity": 120,
      "chip": "ym2612"
    },
    {
      "channel": 2,
      "note": 52,
      "start": 29.5763,
      "duration": 0.0161,
      "velocity": 100,
      "chip": "ym2612"
    },
    {
      "channel": 0,
      "note": 41,
      "start": 29.589,
      "duration": 0.0161,
      "velocity": 115,
      "chip": "ym2612"
    },
    {
      "channel": 4,
      "note": 59,
      "start": 29.5901,
      "duration": 0.0163,
      "velocity": 120,
      "chip": "ym2612"
    },
    {
      "channel": 3,
      "note": 66,
      "start": 29.5913,
      "duration": 0.0166,
      "velocity": 120,
      "chip": "ym2612"
    },
    {
      "channel": 2,
      "note": 52,
      "start": 29.5924,
      "duration": 0.0169,
      "velocity": 100,
      "chip": "ym2612"
    },
    {
      "channel": 0,
      "note": 41,
      "start": 29.6051,
      "duration": 0.0161,
      "velocity": 115,
      "chip": "ym2612"
    },
    {
      "channel": 4,
      "note": 59,
      "start": 29.6066,
      "duration": 0.0159,
      "velocity": 120,
      "chip": "ym2612"
    },
    {
      "channel": 3,
      "note": 66,
      "start": 29.608,
      "duration": 0.0156,
      "velocity": 120,
      "chip": "ym2612"
    },
    {
      "channel": 2,
      "note": 52,
      "start": 29.6094,
      "duration": 0.0154,
      "velocity": 100,
      "chip": "ym2612"
    },
    {
      "channel": 0,
      "note": 42,
      "start": 29.6212,
      "duration": 0.0161,
      "velocity": 115,
      "chip": "ym2612"
    },
    {
      "channel": 4,
      "note": 59,
      "start": 29.6224,
      "duration": 0.016,
      "velocity": 120,
      "chip": "ym2612"
    },
    {
      "channel": 3,
      "note": 66,
      "start": 29.6236,
      "duration": 0.016,
      "velocity": 120,
      "chip": "ym2612"
    },
    {
      "channel": 2,
      "note": 52,
      "start": 29.6248,
      "duration": 0.0159,
      "velocity": 100,
      "chip": "ym2612"
    },
    {
      "channel": 0,
      "note": 42,
      "start": 29.6373,
      "duration": 0.0161,
      "velocity": 115,
      "chip": "ym2612"
    },
    {
      "channel": 4,
      "note": 59,
      "start": 29.6385,
      "duration": 0.0161,
      "velocity": 120,
      "chip": "ym2612"
    },
    {
      "channel": 3,
      "note": 66,
      "start": 29.6396,
      "duration": 0.0161,
      "velocity": 120,
      "chip": "ym2612"
    },
    {
      "channel": 2,
      "note": 52,
      "start": 29.6407,
      "duration": 0.0161,
      "velocity": 100,
      "chip": "ym2612"
    },
    {
      "channel": 0,
      "note": 43,
      "start": 29.6534,
      "duration": 0.0161,
      "velocity": 115,
      "chip": "ym2612"
    },
    {
      "channel": 4,
      "note": 59,
      "start": 29.6546,
      "duration": 0.0161,
      "velocity": 120,
      "chip": "ym2612"
    },
    {
      "channel": 3,
      "note": 66,
      "start": 29.6557,
      "duration": 0.0161,
      "velocity": 120,
      "chip": "ym2612"
    },
    {
      "channel": 2,
      "note": 52,
      "start": 29.6568,
      "duration": 0.0162,
      "velocity": 100,
      "chip": "ym2612"
    },
    {
      "channel": 0,
      "note": 43,
      "start": 29.6695,
      "duration": 0.0161,
      "velocity": 115,
      "chip": "ym2612"
    },
    {
      "channel": 4,
      "note": 59,
      "start": 29.6707,
      "duration": 0.0161,
      "velocity": 120,
      "chip": "ym2612"
    },
    {
      "channel": 3,
      "note": 66,
      "start": 29.6718,
      "duration": 0.0161,
      "velocity": 120,
      "chip": "ym2612"
    },
    {
      "channel": 2,
      "note": 52,
      "start": 29.673,
      "duration": 0.0161,
      "velocity": 100,
      "chip": "ym2612"
    },
    {
      "channel": 0,
      "note": 44,
      "start": 29.6856,
      "duration": 0.0161,
      "velocity": 115,
      "chip": "ym2612"
    },
    {
      "channel": 4,
      "note": 59,
      "start": 29.6868,
      "duration": 0.0161,
      "velocity": 120,
      "chip": "ym2612"
    },
    {
      "channel": 3,
      "note": 66,
      "start": 29.6879,
      "duration": 0.0161,
      "velocity": 120,
      "chip": "ym2612"
    },
    {
      "channel": 2,
      "note": 52,
      "start": 29.689,
      "duration": 0.0161,
      "velocity": 100,
      "chip": "ym2612"
    },
    {
      "channel": 0,
      "note": 44,
      "start": 29.7017,
      "duration": 0.0161,
      "velocity": 115,
      "chip": "ym2612"
    },
    {
      "channel": 4,
      "note": 59,
      "start": 29.7029,
      "duration": 0.0161,
      "velocity": 120,
      "chip": "ym2612"
    },
    {
      "channel": 3,
      "note": 66,
      "start": 29.704,
      "duration": 0.0161,
      "velocity": 120,
      "chip": "ym2612"
    },
    {
      "channel": 2,
      "note": 52,
      "start": 29.7051,
      "duration": 0.0161,
      "velocity": 100,
      "chip": "ym2612"
    },
    {
      "channel": 0,
      "note": 44,
      "start": 29.7178,
      "duration": 0.0161,
      "velocity": 115,
      "chip": "ym2612"
    },
    {
      "channel": 4,
      "note": 59,
      "start": 29.719,
      "duration": 0.0161,
      "velocity": 120,
      "chip": "ym2612"
    },
    {
      "channel": 3,
      "note": 66,
      "start": 29.7201,
      "duration": 0.0161,
      "velocity": 120,
      "chip": "ym2612"
    },
    {
      "channel": 2,
      "note": 52,
      "start": 29.7212,
      "duration": 0.0161,
      "velocity": 100,
      "chip": "ym2612"
    },
    {
      "channel": 0,
      "note": 45,
      "start": 29.7339,
      "duration": 0.0161,
      "velocity": 115,
      "chip": "ym2612"
    },
    {
      "channel": 4,
      "note": 59,
      "start": 29.7351,
      "duration": 0.0161,
      "velocity": 120,
      "chip": "ym2612"
    },
    {
      "channel": 3,
      "note": 66,
      "start": 29.7362,
      "duration": 0.0161,
      "velocity": 120,
      "chip": "ym2612"
    },
    {
      "channel": 2,
      "note": 52,
      "start": 29.7373,
      "duration": 0.0161,
      "velocity": 100,
      "chip": "ym2612"
    },
    {
      "channel": 0,
      "note": 45,
      "start": 29.75,
      "duration": 0.0161,
      "velocity": 115,
      "chip": "ym2612"
    },
    {
      "channel": 4,
      "note": 59,
      "start": 29.7512,
      "duration": 0.0161,
      "velocity": 120,
      "chip": "ym2612"
    },
    {
      "channel": 3,
      "note": 66,
      "start": 29.7523,
      "duration": 0.0161,
      "velocity": 120,
      "chip": "ym2612"
    },
    {
      "channel": 2,
      "note": 52,
      "start": 29.7534,
      "duration": 0.0161,
      "velocity": 100,
      "chip": "ym2612"
    },
    {
      "channel": 0,
      "note": 46,
      "start": 29.7661,
      "duration": 0.0161,
      "velocity": 115,
      "chip": "ym2612"
    },
    {
      "channel": 4,
      "note": 59,
      "start": 29.7673,
      "duration": 0.0161,
      "velocity": 120,
      "chip": "ym2612"
    },
    {
      "channel": 3,
      "note": 66,
      "start": 29.7684,
      "duration": 0.0161,
      "velocity": 120,
      "chip": "ym2612"
    },
    {
      "channel": 2,
      "note": 52,
      "start": 29.7695,
      "duration": 0.0161,
      "velocity": 100,
      "chip": "ym2612"
    },
    {
      "channel": 0,
      "note": 46,
      "start": 29.7822,
      "duration": 0.0179,
      "velocity": 124,
      "chip": "ym2612"
    },
    {
      "channel": 4,
      "note": 59,
      "start": 29.7834,
      "duration": 0.0181,
      "velocity": 120,
      "chip": "ym2612"
    },
    {
      "channel": 3,
      "note": 66,
      "start": 29.7845,
      "duration": 0.0184,
      "velocity": 120,
      "chip": "ym2612"
    },
    {
      "channel": 2,
      "note": 52,
      "start": 29.7856,
      "duration": 0.0188,
      "velocity": 100,
      "chip": "ym2612"
    },
    {
      "channel": 0,
      "note": 84,
      "start": 29.8002,
      "duration": 0.0143,
      "velocity": 124,
      "chip": "ym2612"
    },
    {
      "channel": 4,
      "note": 59,
      "start": 29.8016,
      "duration": 0.0141,
      "velocity": 120,
      "chip": "ym2612"
    },
    {
      "channel": 3,
      "note": 66,
      "start": 29.803,
      "duration": 0.0139,
      "velocity": 120,
      "chip": "ym2612"
    },
    {
      "channel": 2,
      "note": 52,
      "start": 29.8044,
      "duration": 0.0136,
      "velocity": 100,
      "chip": "ym2612"
    },
    {
      "channel": 0,
      "note": 82,
      "start": 29.8145,
      "duration": 0.0176,
      "velocity": 124,
      "chip": "ym2612"
    },
    {
      "channel": 4,
      "note": 59,
      "start": 29.8157,
      "duration": 0.0175,
      "velocity": 120,
      "chip": "ym2612"
    },
    {
      "channel": 3,
      "note": 66,
      "start": 29.8168,
      "duration": 0.0175,
      "velocity": 120,
      "chip": "ym2612"
    },
    {
      "channel": 2,
      "note": 52,
      "start": 29.8181,
      "duration": 0.0174,
      "velocity": 100,
      "chip": "ym2612"
    },
    {
      "channel": 0,
      "note": 80,
      "start": 29.8321,
      "duration": 0.0167,
      "velocity": 124,
      "chip": "ym2612"
    },
    {
      "channel": 4,
      "note": 59,
      "start": 29.8332,
      "duration": 0.0167,
      "velocity": 120,
      "chip": "ym2612"
    },
    {
      "channel": 3,
      "note": 66,
      "start": 29.8344,
      "duration": 0.0167,
      "velocity": 120,
      "chip": "ym2612"
    },
    {
      "channel": 2,
      "note": 52,
      "start": 29.8354,
      "duration": 0.0167,
      "velocity": 100,
      "chip": "ym2612"
    },
    {
      "channel": 0,
      "note": 77,
      "start": 29.8487,
      "duration": 0.0163,
      "velocity": 124,
      "chip": "ym2612"
    },
    {
      "channel": 4,
      "note": 59,
      "start": 29.8499,
      "duration": 0.0163,
      "velocity": 120,
      "chip": "ym2612"
    },
    {
      "channel": 3,
      "note": 66,
      "start": 29.851,
      "duration": 0.0163,
      "velocity": 120,
      "chip": "ym2612"
    },
    {
      "channel": 2,
      "note": 52,
      "start": 29.8521,
      "duration": 0.0163,
      "velocity": 100,
      "chip": "ym2612"
    },
    {
      "channel": 0,
      "note": 75,
      "start": 29.865,
      "duration": 0.0141,
      "velocity": 124,
      "chip": "ym2612"
    },
    {
      "channel": 4,
      "note": 59,
      "start": 29.8661,
      "duration": 0.0142,
      "velocity": 120,
      "chip": "ym2612"
    },
    {
      "channel": 3,
      "note": 66,
      "start": 29.8673,
      "duration": 0.0141,
      "velocity": 120,
      "chip": "ym2612"
    },
    {
      "channel": 2,
      "note": 52,
      "start": 29.8684,
      "duration": 0.0141,
      "velocity": 100,
      "chip": "ym2612"
    },
    {
      "channel": 0,
      "note": 72,
      "start": 29.8791,
      "duration": 0.0186,
      "velocity": 124,
      "chip": "ym2612"
    },
    {
      "channel": 4,
      "note": 59,
      "start": 29.8803,
      "duration": 0.0185,
      "velocity": 120,
      "chip": "ym2612"
    },
    {
      "channel": 3,
      "note": 66,
      "start": 29.8814,
      "duration": 0.0186,
      "velocity": 120,
      "chip": "ym2612"
    },
    {
      "channel": 2,
      "note": 52,
      "start": 29.8826,
      "duration": 0.0185,
      "velocity": 100,
      "chip": "ym2612"
    },
    {
      "channel": 0,
      "note": 70,
      "start": 29.8977,
      "duration": 0.0161,
      "velocity": 124,
      "chip": "ym2612"
    },
    {
      "channel": 4,
      "note": 59,
      "start": 29.8988,
      "duration": 0.0161,
      "velocity": 120,
      "chip": "ym2612"
    },
    {
      "channel": 3,
      "note": 66,
      "start": 29.9,
      "duration": 0.0161,
      "velocity": 120,
      "chip": "ym2612"
    },
    {
      "channel": 2,
      "note": 52,
      "start": 29.9011,
      "duration": 0.0161,
      "velocity": 100,
      "chip": "ym2612"
    },
    {
      "channel": 0,
      "note": 68,
      "start": 29.9138,
      "duration": 0.0134,
      "velocity": 124,
      "chip": "ym2612"
    },
    {
      "channel": 4,
      "note": 59,
      "start": 29.9149,
      "duration": 0.0157,
      "velocity": 120,
      "chip": "ym2612"
    },
    {
      "channel": 3,
      "note": 66,
      "start": 29.9161,
      "duration": 0.0157,
      "velocity": 120,
      "chip": "ym2612"
    },
    {
      "channel": 2,
      "note": 52,
      "start": 29.9172,
      "duration": 0.0158,
      "velocity": 100,
      "chip": "ym2612"
    },
    {
      "channel": 0,
      "note": 65,
      "start": 29.9272,
      "duration": 0.0161,
      "velocity": 124,
      "chip": "ym2612"
    },
    {
      "channel": 4,
      "note": 59,
      "start": 29.9307,
      "duration": 0.0141,
      "velocity": 120,
      "chip": "ym2612"
    },
    {
      "channel": 3,
      "note": 66,
      "start": 29.9318,
      "duration": 0.0141,
      "velocity": 120,
      "chip": "ym2612"
    },
    {
      "channel": 2,
      "note": 52,
      "start": 29.9329,
      "duration": 0.0141,
      "velocity": 100,
      "chip": "ym2612"
    },
    {
      "channel": 0,
      "note": 63,
      "start": 29.9433,
      "duration": 0.0153,
      "velocity": 1,
      "chip": "ym2612"
    },
    {
      "channel": 4,
      "note": 59,
      "start": 29.9447,
      "duration": 0.0149,
      "velocity": 120,
      "chip": "ym2612"
    },
    {
      "channel": 3,
      "note": 66,
      "start": 29.9459,
      "duration": 0.0177,
      "velocity": 120,
      "chip": "ym2612"
    },
    {
      "channel": 2,
      "note": 52,
      "start": 29.947,
      "duration": 0.0177,
      "velocity": 100,
      "chip": "ym2612"
    },
    {
      "channel": 4,
      "note": 59,
      "start": 29.9597,
      "duration": 0.0153,
      "velocity": 120,
      "chip": "ym2612"
    },
    {
      "channel": 3,
      "note": 66,
      "start": 29.9635,
      "duration": 0.0125,
      "velocity": 120,
      "chip": "ym2612"
    },
    {
      "channel": 2,
      "note": 52,
      "start": 29.9647,
      "duration": 0.0125,
      "velocity": 100,
      "chip": "ym2612"
    },
    {
      "channel": 4,
      "note": 59,
      "start": 29.9749,
      "duration": 0.0221,
      "velocity": 120,
      "chip": "ym2612"
    },
    {
      "channel": 3,
      "note": 66,
      "start": 29.9761,
      "duration": 0.0224,
      "velocity": 120,
      "chip": "ym2612"
    },
    {
      "channel": 2,
      "note": 52,
      "start": 29.9772,
      "duration": 0.0227,
      "velocity": 100,
      "chip": "ym2612"
    },
    {
      "channel": 0,
      "note": 36,
      "start": 29.9933,
      "duration": 0.0144,
      "velocity": 115,
      "chip": "ym2612"
    },
    {
      "channel": 4,
      "note": 59,
      "start": 29.9971,
      "duration": 0.0118,
      "velocity": 120,
      "chip": "ym2612"
    },
    {
      "channel": 3,
      "note": 66,
      "start": 29.9985,
      "duration": 0.0116,
      "velocity": 120,
      "chip": "ym2612"
    },
    {
      "channel": 2,
      "note": 52,
      "start": 30.0,
      "duration": 0.0116,
      "velocity": 100,
      "chip": "ym2612"
    },
    {
      "channel": 0,
      "note": 36,
      "start": 30.0077,
      "duration": 0.016,
      "velocity": 115,
      "chip": "ym2612"
    },
    {
      "channel": 4,
      "note": 59,
      "start": 30.0089,
      "duration": 0.016,
      "velocity": 120,
      "chip": "ym2612"
    },
    {
      "channel": 3,
      "note": 66,
      "start": 30.0101,
      "duration": 0.0159,
      "velocity": 120,
      "chip": "ym2612"
    },
    {
      "channel": 2,
      "note": 52,
      "start": 30.0116,
      "duration": 0.0155,
      "velocity": 100,
      "chip": "ym2612"
    },
    {
      "channel": 0,
      "note": 37,
      "start": 30.0237,
      "duration": 0.0161,
      "velocity": 115,
      "chip": "ym2612"
    },
    {
      "channel": 4,
      "note": 59,
      "start": 30.0249,
      "duration": 0.0161,
      "velocity": 120,
      "chip": "ym2612"
    },
    {
      "channel": 3,
      "note": 66,
      "start": 30.026,
      "duration": 0.0161,
      "velocity": 120,
      "chip": "ym2612"
    },
    {
      "channel": 2,
      "note": 52,
      "start": 30.0272,
      "duration": 0.0161,
      "velocity": 100,
      "chip": "ym2612"
    },
    {
      "channel": 0,
      "note": 37,
      "start": 30.0398,
      "duration": 0.0162,
      "velocity": 115,
      "chip": "ym2612"
    },
    {
      "channel": 4,
      "note": 59,
      "start": 30.041,
      "duration": 0.0161,
      "velocity": 120,
      "chip": "ym2612"
    },
    {
      "channel": 3,
      "note": 66,
      "start": 30.0421,
      "duration": 0.0162,
      "velocity": 120,
      "chip": "ym2612"
    },
    {
      "channel": 2,
      "note": 52,
      "start": 30.0433,
      "duration": 0.0161,
      "velocity": 100,
      "chip": "ym2612"
    },
    {
      "channel": 0,
      "note": 38,
      "start": 30.056,
      "duration": 0.0161,
      "velocity": 115,
      "chip": "ym2612"
    },
    {
      "channel": 4,
      "note": 59,
      "start": 30.0571,
      "duration": 0.0161,
      "velocity": 120,
      "chip": "ym2612"
    },
    {
      "channel": 3,
      "note": 66,
      "start": 30.0583,
      "duration": 0.0161,
      "velocity": 120,
      "chip": "ym2612"
    },
    {
      "channel": 2,
      "note": 52,
      "start": 30.0593,
      "duration": 0.0161,
      "velocity": 100,
      "chip": "ym2612"
    },
    {
      "channel": 0,
      "note": 38,
      "start": 30.0721,
      "duration": 0.0161,
      "velocity": 115,
      "chip": "ym2612"
    },
    {
      "channel": 4,
      "note": 59,
      "start": 30.0732,
      "duration": 0.0161,
      "velocity": 120,
      "chip": "ym2612"
    },
    {
      "channel": 3,
      "note": 66,
      "start": 30.0744,
      "duration": 0.0161,
      "velocity": 120,
      "chip": "ym2612"
    },
    {
      "channel": 2,
      "note": 52,
      "start": 30.0754,
      "duration": 0.0162,
      "velocity": 100,
      "chip": "ym2612"
    },
    {
      "channel": 0,
      "note": 39,
      "start": 30.0882,
      "duration": 0.0161,
      "velocity": 115,
      "chip": "ym2612"
    },
    {
      "channel": 4,
      "note": 59,
      "start": 30.0893,
      "duration": 0.0161,
      "velocity": 120,
      "chip": "ym2612"
    },
    {
      "channel": 3,
      "note": 66,
      "start": 30.0905,
      "duration": 0.0161,
      "velocity": 120,
      "chip": "ym2612"
    },
    {
      "channel": 2,
      "note": 52,
      "start": 30.0916,
      "duration": 0.0161,
      "velocity": 100,
      "chip": "ym2612"
    },
    {
      "channel": 0,
      "note": 39,
      "start": 30.1043,
      "duration": 0.0161,
      "velocity": 115,
      "chip": "ym2612"
    },
    {
      "channel": 4,
      "note": 59,
      "start": 30.1054,
      "duration": 0.0161,
      "velocity": 120,
      "chip": "ym2612"
    },
    {
      "channel": 3,
      "note": 66,
      "start": 30.1066,
      "duration": 0.0161,
      "velocity": 120,
      "chip": "ym2612"
    },
    {
      "channel": 2,
      "note": 52,
      "start": 30.1077,
      "duration": 0.0161,
      "velocity": 100,
      "chip": "ym2612"
    },
    {
      "channel": 0,
      "note": 40,
      "start": 30.1204,
      "duration": 0.0161,
      "velocity": 115,
      "chip": "ym2612"
    },
    {
      "channel": 4,
      "note": 59,
      "start": 30.1215,
      "duration": 0.0161,
      "velocity": 120,
      "chip": "ym2612"
    },
    {
      "channel": 3,
      "note": 66,
      "start": 30.1227,
      "duration": 0.0161,
      "velocity": 120,
      "chip": "ym2612"
    },
    {
      "channel": 2,
      "note": 52,
      "start": 30.1238,
      "duration": 0.0161,
      "velocity": 100,
      "chip": "ym2612"
    },
    {
      "channel": 0,
      "note": 40,
      "start": 30.1364,
      "duration": 0.0161,
      "velocity": 115,
      "chip": "ym2612"
    },
    {
      "channel": 4,
      "note": 59,
      "start": 30.1376,
      "duration": 0.0161,
      "velocity": 120,
      "chip": "ym2612"
    },
    {
      "channel": 3,
      "note": 66,
      "start": 30.1387,
      "duration": 0.0161,
      "velocity": 120,
      "chip": "ym2612"
    },
    {
      "channel": 2,
      "note": 52,
      "start": 30.1399,
      "duration": 0.0161,
      "velocity": 100,
      "chip": "ym2612"
    },
    {
      "channel": 0,
      "note": 40,
      "start": 30.1525,
      "duration": 0.0161,
      "velocity": 115,
      "chip": "ym2612"
    },
    {
      "channel": 4,
      "note": 59,
      "start": 30.1537,
      "duration": 0.0161,
      "velocity": 120,
      "chip": "ym2612"
    },
    {
      "channel": 3,
      "note": 66,
      "start": 30.1548,
      "duration": 0.0161,
      "velocity": 120,
      "chip": "ym2612"
    },
    {
      "channel": 2,
      "note": 52,
      "start": 30.156,
      "duration": 0.0161,
      "velocity": 100,
      "chip": "ym2612"
    },
    {
      "channel": 0,
      "note": 41,
      "start": 30.1686,
      "duration": 0.0179,
      "velocity": 115,
      "chip": "ym2612"
    },
    {
      "channel": 4,
      "note": 59,
      "start": 30.1698,
      "duration": 0.0181,
      "velocity": 120,
      "chip": "ym2612"
    },
    {
      "channel": 3,
      "note": 66,
      "start": 30.1709,
      "duration": 0.0184,
      "velocity": 120,
      "chip": "ym2612"
    },
    {
      "channel": 2,
      "note": 52,
      "start": 30.1721,
      "duration": 0.0187,
      "velocity": 100,
      "chip": "ym2612"
    },
    {
      "channel": 0,
      "note": 36,
      "start": 30.1865,
      "duration": 0.0144,
      "velocity": 115,
      "chip": "ym2612"
    },
    {
      "channel": 4,
      "note": 59,
      "start": 30.188,
      "duration": 0.0141,
      "velocity": 120,
      "chip": "ym2612"
    },
    {
      "channel": 3,
      "note": 66,
      "start": 30.1894,
      "duration": 0.0139,
      "velocity": 120,
      "chip": "ym2612"
    },
    {
      "channel": 2,
      "note": 52,
      "start": 30.1908,
      "duration": 0.0137,
      "velocity": 100,
      "chip": "ym2612"
    },
    {
      "channel": 0,
      "note": 36,
      "start": 30.2009,
      "duration": 0.0161,
      "velocity": 115,
      "chip": "ym2612"
    },
    {
      "channel": 4,
      "note": 59,
      "start": 30.2021,
      "duration": 0.016,
      "velocity": 120,
      "chip": "ym2612"
    },
    {
      "channel": 3,
      "note": 66,
      "start": 30.2033,
      "duration": 0.016,
      "velocity": 120,
      "chip": "ym2612"
    },
    {
      "channel": 2,
      "note": 52,
      "start": 30.2045,
      "duration": 0.0159,
      "velocity": 100,
      "chip": "ym2612"
    },
    {
      "channel": 0,
      "note": 37,
      "start": 30.217,
      "duration": 0.0161,
      "velocity": 115,
      "chip": "ym2612"
    },
    {
      "channel": 4,
      "note": 59,
      "start": 30.2181,
      "duration": 0.0161,
      "velocity": 120,
      "chip": "ym2612"
    },
    {
      "channel": 3,
      "note": 66,
      "start": 30.2193,
      "duration": 0.0161,
      "velocity": 120,
      "chip": "ym2612"
    },
    {
      "channel": 2,
      "note": 52,
      "start": 30.2204,
      "duration": 0.0161,
      "velocity": 100,
      "chip": "ym2612"
    },
    {
      "channel": 0,
      "note": 37,
      "start": 30.2331,
      "duration": 0.0161,
      "velocity": 115,
      "chip": "ym2612"
    },
    {
      "channel": 4,
      "note": 59,
      "start": 30.2342,
      "duration": 0.0161,
      "velocity": 120,
      "chip": "ym2612"
    },
    {
      "channel": 3,
      "note": 66,
      "start": 30.2354,
      "duration": 0.0161,
      "velocity": 120,
      "chip": "ym2612"
    },
    {
      "channel": 2,
      "note": 52,
      "start": 30.2364,
      "duration": 0.0162,
      "velocity": 100,
      "chip": "ym2612"
    },
    {
      "channel": 0,
      "note": 38,
      "start": 30.2492,
      "duration": 0.0161,
      "velocity": 115,
      "chip": "ym2612"
    },
    {
      "channel": 4,
      "note": 59,
      "start": 30.2503,
      "duration": 0.0161,
      "velocity": 120,
      "chip": "ym2612"
    },
    {
      "channel": 3,
      "note": 66,
      "start": 30.2515,
      "duration": 0.0161,
      "velocity": 120,
      "chip": "ym2612"
    },
    {
      "channel": 2,
      "note": 52,
      "start": 30.2526,
      "duration": 0.0161,
      "velocity": 100,
      "chip": "ym2612"
    },
    {
      "channel": 0,
      "note": 38,
      "start": 30.2653,
      "duration": 0.0161,
      "velocity": 115,
      "chip": "ym2612"
    },
    {
      "channel": 4,
      "note": 59,
      "start": 30.2664,
      "duration": 0.0161,
      "velocity": 120,
      "chip": "ym2612"
    },
    {
      "channel": 3,
      "note": 66,
      "start": 30.2676,
      "duration": 0.0161,
      "velocity": 120,
      "chip": "ym2612"
    },
    {
      "channel": 2,
      "note": 52,
      "start": 30.2687,
      "duration": 0.0161,
      "velocity": 100,
      "chip": "ym2612"
    },
    {
      "channel": 0,
      "note": 39,
      "start": 30.2814,
      "duration": 0.0173,
      "velocity": 115,
      "chip": "ym2612"
    },
    {
      "channel": 4,
      "note": 59,
      "start": 30.2825,
      "duration": 0.0174,
      "velocity": 120,
      "chip": "ym2612"
    },
    {
      "channel": 3,
      "note": 66,
      "start": 30.2837,
      "duration": 0.0173,
      "velocity": 120,
      "chip": "ym2612"
    },
    {
      "channel": 2,
      "note": 52,
      "start": 30.2848,
      "duration": 0.0173,
      "velocity": 100,
      "chip": "ym2612"
    },
    {
      "channel": 0,
      "note": 39,
      "start": 30.2987,
      "duration": 0.0167,
      "velocity": 115,
      "chip": "ym2612"
    },
    {
      "channel": 4,
      "note": 59,
      "start": 30.2999,
      "duration": 0.0167,
      "velocity": 120,
      "chip": "ym2612"
    },
    {
      "channel": 3,
      "note": 66,
      "start": 30.301,
      "duration": 0.0167,
      "velocity": 120,
      "chip": "ym2612"
    },
    {
      "channel": 2,
      "note": 52,
      "start": 30.3021,
      "duration": 0.0167,
      "velocity": 100,
      "chip": "ym2612"
    },
    {
      "channel": 0,
      "note": 40,
      "start": 30.3154,
      "duration": 0.0163,
      "velocity": 115,
      "chip": "ym2612"
    },
    {
      "channel": 4,
      "note": 59,
      "start": 30.3165,
      "duration": 0.0163,
      "velocity": 120,
      "chip": "ym2612"
    },
    {
      "channel": 3,
      "note": 66,
      "start": 30.3177,
      "duration": 0.0163,
      "velocity": 120,
      "chip": "ym2612"
    },
    {
      "channel": 2,
      "note": 52,
      "start": 30.3188,
      "duration": 0.0163,
      "velocity": 100,
      "chip": "ym2612"
    },
    {
      "channel": 0,
      "note": 40,
      "start": 30.3317,
      "duration": 0.0144,
      "velocity": 115,
      "chip": "ym2612"
    },
    {
      "channel": 4,
      "note": 59,
      "start": 30.3328,
      "duration": 0.0144,
      "velocity": 120,
      "chip": "ym2612"
    },
    {
      "channel": 3,
      "note": 66,
      "start": 30.334,
      "duration": 0.0144,
      "velocity": 120,
      "chip": "ym2612"
    },
    {
      "channel": 2,
      "note": 52,
      "start": 30.3351,
      "duration": 0.0144,
      "velocity": 100,
      "chip": "ym2612"
    },
    {
      "channel": 0,
      "note": 40,
      "start": 30.3461,
      "duration": 0.0185,
      "velocity": 115,
      "chip": "ym2612"
    },
    {
      "channel": 4,
      "note": 59,
      "start": 30.3473,
      "duration": 0.0185,
      "velocity": 120,
      "chip": "ym2612"
    },
    {
      "channel": 3,
      "note": 66,
      "start": 30.3484,
      "duration": 0.0185,
      "velocity": 120,
      "chip": "ym2612"
    },
    {
      "channel": 2,
      "note": 52,
      "start": 30.3495,
      "duration": 0.0186,
      "velocity": 100,
      "chip": "ym2612"
    },
    {
      "channel": 0,
      "note": 41,
      "start": 30.3646,
      "duration": 0.0178,
      "velocity": 115,
      "chip": "ym2612"
    },
    {
      "channel": 4,
      "note": 59,
      "start": 30.3658,
      "duration": 0.0181,
      "velocity": 120,
      "chip": "ym2612"
    },
    {
      "channel": 3,
      "note": 66,
      "start": 30.3669,
      "duration": 0.0183,
      "velocity": 120,
      "chip": "ym2612"
    },
    {
      "channel": 2,
      "note": 52,
      "start": 30.3681,
      "duration": 0.0186,
      "velocity": 100,
      "chip": "ym2612"
    },
    {
      "channel": 0,
      "note": 36,
      "start": 30.3825,
      "duration": 0.014,
      "velocity": 115,
      "chip": "ym2612"
    },
    {
      "channel": 4,
      "note": 59,
      "start": 30.3839,
      "duration": 0.0138,
      "velocity": 120,
      "chip": "ym2612"
    },
    {
      "channel": 3,
      "note": 66,
      "start": 30.3853,
      "duration": 0.0136,
      "velocity": 120,
      "chip": "ym2612"
    },
    {
      "channel": 2,
      "note": 52,
      "start": 30.3868,
      "duration": 0.0134,
      "velocity": 100,
      "chip": "ym2612"
    },
    {
      "channel": 0,
      "note": 36,
      "start": 30.3965,
      "duration": 0.0137,
      "velocity": 115,
      "chip": "ym2612"
    },
    {
      "channel": 4,
      "note": 59,
      "start": 30.3977,
      "duration": 0.0139,
      "velocity": 120,
      "chip": "ym2612"
    },
    {
      "channel": 3,
      "note": 66,
      "start": 30.3989,
      "duration": 0.0139,
      "velocity": 120,
      "chip": "ym2612"
    },
    {
      "channel": 2,
      "note": 52,
      "start": 30.4001,
      "duration": 0.0138,
      "velocity": 100,
      "chip": "ym2612"
    },
    {
      "channel": 0,
      "note": 37,
      "start": 30.4102,
      "duration": 0.0161,
      "velocity": 115,
      "chip": "ym2612"
    },
    {
      "channel": 4,
      "note": 59,
      "start": 30.4116,
      "duration": 0.0185,
      "velocity": 120,
      "chip": "ym2612"
    },
    {
      "channel": 3,
      "note": 66,
      "start": 30.4128,
      "duration": 0.0185,
      "velocity": 120,
      "chip": "ym2612"
    },
    {
      "channel": 2,
      "note": 52,
      "start": 30.4139,
      "duration": 0.0185,
      "velocity": 100,
      "chip": "ym2612"
    },
    {
      "channel": 0,
      "note": 37,
      "start": 30.4263,
      "duration": 0.0161,
      "velocity": 115,
      "chip": "ym2612"
    },
    {
      "channel": 4,
      "note": 59,
      "start": 30.4302,
      "duration": 0.0134,
      "velocity": 120,
      "chip": "ym2612"
    },
    {
      "channel": 3,
      "note": 66,
      "start": 30.4313,
      "duration": 0.0161,
      "velocity": 120,
      "chip": "ym2612"
    },
    {
      "channel": 2,
      "note": 52,
      "start": 30.4324,
      "duration": 0.0161,
      "velocity": 100,
      "chip": "ym2612"
    },
    {
      "channel": 0,
      "note": 38,
      "start": 30.4424,
      "duration": 0.0161,
      "velocity": 115,
      "chip": "ym2612"
    },
    {
      "channel": 4,
      "note": 59,
      "start": 30.4435,
      "duration": 0.0161,
      "velocity": 120,
      "chip": "ym2612"
    },
    {
      "channel": 3,
      "note": 66,
      "start": 30.4474,
      "duration": 0.0157,
      "velocity": 120,
      "chip": "ym2612"
    },
    {
      "channel": 2,
      "note": 52,
      "start": 30.4485,
      "duration": 0.0158,
      "velocity": 100,
      "chip": "ym2612"
    },
    {
      "channel": 0,
      "note": 38,
      "start": 30.4585,
      "duration": 0.0161,
      "velocity": 115,
      "chip": "ym2612"
    },
    {
      "channel": 4,
      "note": 59,
      "start": 30.4596,
      "duration": 0.0161,
      "velocity": 120,
      "chip": "ym2612"
    },
    {
      "channel": 3,
      "note": 66,
      "start": 30.4631,
      "duration": 0.0137,
      "velocity": 120,
      "chip": "ym2612"
    },
    {
      "channel": 2,
      "note": 52,
      "start": 30.4643,
      "duration": 0.014,
      "velocity": 100,
      "chip": "ym2612"
    },
    {
      "channel": 0,
      "note": 39,
      "start": 30.4746,
      "duration": 0.0161,
      "velocity": 115,
      "chip": "ym2612"
    },
    {
      "channel": 4,
      "note": 59,
      "start": 30.4757,
      "duration": 0.0162,
      "velocity": 120,
      "chip": "ym2612"
    },
    {
      "channel": 3,
      "note": 66,
      "start": 30.4768,
      "duration": 0.0161,
      "velocity": 120,
      "chip": "ym2612"
    },
    {
      "channel": 2,
      "note": 52,
      "start": 30.4783,
      "duration": 0.0185,
      "velocity": 100,
      "chip": "ym2612"
    },
    {
      "channel": 0,
      "note": 39,
      "start": 30.4907,
      "duration": 0.0161,
      "velocity": 115,
      "chip": "ym2612"
    },
    {
      "channel": 4,
      "note": 59,
      "start": 30.4919,
      "duration": 0.0161,
      "velocity": 120,
      "chip": "ym2612"
    },
    {
      "channel": 3,
      "note": 66,
      "start": 30.4929,
      "duration": 0.0161,
      "velocity": 120,
      "chip": "ym2612"
    },
    {
      "channel": 2,
      "note": 52,
      "start": 30.4968,
      "duration": 0.0134,
      "velocity": 100,
      "chip": "ym2612"
    },
    {
      "channel": 0,
      "note": 40,
      "start": 30.5068,
      "duration": 0.0161,
      "velocity": 115,
      "chip": "ym2612"
    },
    {
      "channel": 4,
      "note": 59,
      "start": 30.508,
      "duration": 0.0161,
      "velocity": 120,
      "chip": "ym2612"
    },
    {
      "channel": 3,
      "note": 66,
      "start": 30.5091,
      "duration": 0.0161,
      "velocity": 120,
      "chip": "ym2612"
    },
    {
      "channel": 2,
      "note": 52,
      "start": 30.5102,
      "duration": 0.0161,
      "velocity": 100,
      "chip": "ym2612"
    },
    {
      "channel": 0,
      "note": 40,
      "start": 30.5229,
      "duration": 0.0161,
      "velocity": 115,
      "chip": "ym2612"
    },
    {
      "channel": 4,
      "note": 59,
      "start": 30.524,
      "duration": 0.0161,
      "velocity": 120,
      "chip": "ym2612"
    },
    {
      "channel": 3,
      "note": 66,
      "start": 30.5252,
      "duration": 0.0161,
      "velocity": 120,
      "chip": "ym2612"
    },
    {
      "channel": 2,
      "note": 52,
      "start": 30.5263,
      "duration": 0.0161,
      "velocity": 100,
      "chip": "ym2612"
    },
    {
      "channel": 0,
      "note": 40,
      "start": 30.539,
      "duration": 0.0161,
      "velocity": 115,
      "chip": "ym2612"
    },
    {
      "channel": 4,
      "note": 59,
      "start": 30.5401,
      "duration": 0.0161,
      "velocity": 120,
      "chip": "ym2612"
    },
    {
      "channel": 3,
      "note": 66,
      "start": 30.5413,
      "duration": 0.0161,
      "velocity": 120,
      "chip": "ym2612"
    },
    {
      "channel": 2,
      "note": 52,
      "start": 30.5424,
      "duration": 0.0161,
      "velocity": 100,
      "chip": "ym2612"
    },
    {
      "channel": 0,
      "note": 41,
      "start": 30.5551,
      "duration": 0.0179,
      "velocity": 124,
      "chip": "ym2612"
    },
    {
      "channel": 4,
      "note": 59,
      "start": 30.5562,
      "duration": 0.0181,
      "velocity": 120,
      "chip": "ym2612"
    },
    {
      "channel": 3,
      "note": 66,
      "start": 30.5574,
      "duration": 0.0184,
      "velocity": 120,
      "chip": "ym2612"
    },
    {
      "channel": 2,
      "note": 52,
      "start": 30.5585,
      "duration": 0.0187,
      "velocity": 100,
      "chip": "ym2612"
    },
    {
      "channel": 0,
      "note": 84,
      "start": 30.573,
      "duration": 0.0144,
      "velocity": 124,
      "chip": "ym2612"
    },
    {
      "channel": 4,
      "note": 59,
      "start": 30.5744,
      "duration": 0.0141,
      "velocity": 120,
      "chip": "ym2612"
    },
    {
      "channel": 3,
      "note": 66,
      "start": 30.5758,
      "duration": 0.014,
      "velocity": 120,
      "chip": "ym2612"
    },
    {
      "channel": 2,
      "note": 52,
      "start": 30.5772,
      "duration": 0.0137,
      "velocity": 100,
      "chip": "ym2612"
    },
    {
      "channel": 0,
      "note": 82,
      "start": 30.5873,
      "duration": 0.016,
      "velocity": 124,
      "chip": "ym2612"
    },
    {
      "channel": 4,
      "note": 59,
      "start": 30.5885,
      "duration": 0.016,
      "velocity": 120,
      "chip": "ym2612"
    },
    {
      "channel": 3,
      "note": 66,
      "start": 30.5898,
      "duration": 0.0159,
      "velocity": 120,
      "chip": "ym2612"
    },
    {
      "channel": 2,
      "note": 52,
      "start": 30.591,
      "duration": 0.0158,
      "velocity": 100,
      "chip": "ym2612"
    },
    {
      "channel": 0,
      "note": 80,
      "start": 30.6034,
      "duration": 0.0161,
      "velocity": 124,
      "chip": "ym2612"
    },
    {
      "channel": 4,
      "note": 59,
      "start": 30.6045,
      "duration": 0.0162,
      "velocity": 120,
      "chip": "ym2612"
    },
    {
      "channel": 3,
      "note": 66,
      "start": 30.6057,
      "duration": 0.0161,
      "velocity": 120,
      "chip": "ym2612"
    },
    {
      "channel": 2,
      "note": 52,
      "start": 30.6068,
      "duration": 0.0161,
      "velocity": 100,
      "chip": "ym2612"
    },
    {
      "channel": 0,
      "note": 77,
      "start": 30.6195,
      "duration": 0.0162,
      "velocity": 124,
      "chip": "ym2612"
    },
    {
      "channel": 4,
      "note": 59,
      "start": 30.6207,
      "duration": 0.0161,
      "velocity": 120,
      "chip": "ym2612"
    },
    {
      "channel": 3,
      "note": 66,
      "start": 30.6217,
      "duration": 0.0162,
      "velocity": 120,
      "chip": "ym2612"
    },
    {
      "channel": 2,
      "note": 52,
      "start": 30.6229,
      "duration": 0.0161,
      "velocity": 100,
      "chip": "ym2612"
    },
    {
      "channel": 0,
      "note": 75,
      "start": 30.6356,
      "duration": 0.0161,
      "velocity": 124,
      "chip": "ym2612"
    },
    {
      "channel": 4,
      "note": 59,
      "start": 30.6368,
      "duration": 0.0161,
      "velocity": 120,
      "chip": "ym2612"
    },
    {
      "channel": 3,
      "note": 66,
      "start": 30.6379,
      "duration": 0.0161,
      "velocity": 120,
      "chip": "ym2612"
    },
    {
      "channel": 2,
      "note": 52,
      "start": 30.639,
      "duration": 0.0161,
      "velocity": 100,
      "chip": "ym2612"
    },
    {
      "channel": 0,
      "note": 72,
      "start": 30.6517,
      "duration": 0.0161,
      "velocity": 124,
      "chip": "ym2612"
    },
    {
      "channel": 4,
      "note": 59,
      "start": 30.6529,
      "duration": 0.0161,
      "velocity": 120,
      "chip": "ym2612"
    },
    {
      "channel": 3,
      "note": 66,
      "start": 30.654,
      "duration": 0.0161,
      "velocity": 120,
      "chip": "ym2612"
    },
    {
      "channel": 2,
      "note": 52,
      "start": 30.6551,
      "duration": 0.0161,
      "velocity": 100,
      "chip": "ym2612"
    },
    {
      "channel": 0,
      "note": 70,
      "start": 30.6678,
      "duration": 0.0161,
      "velocity": 124,
      "chip": "ym2612"
    },
    {
      "channel": 4,
      "note": 59,
      "start": 30.669,
      "duration": 0.0161,
      "velocity": 120,
      "chip": "ym2612"
    },
    {
      "channel": 3,
      "note": 66,
      "start": 30.6701,
      "duration": 0.0161,
      "velocity": 120,
      "chip": "ym2612"
    },
    {
      "channel": 2,
      "note": 52,
      "start": 30.6712,
      "duration": 0.0161,
      "velocity": 100,
      "chip": "ym2612"
    },
    {
      "channel": 0,
      "note": 68,
      "start": 30.6839,
      "duration": 0.0161,
      "velocity": 124,
      "chip": "ym2612"
    },
    {
      "channel": 4,
      "note": 59,
      "start": 30.6851,
      "duration": 0.0161,
      "velocity": 120,
      "chip": "ym2612"
    },
    {
      "channel": 3,
      "note": 66,
      "start": 30.6862,
      "duration": 0.0161,
      "velocity": 120,
      "chip": "ym2612"
    },
    {
      "channel": 2,
      "note": 52,
      "start": 30.6873,
      "duration": 0.0161,
      "velocity": 100,
      "chip": "ym2612"
    },
    {
      "channel": 0,
      "note": 65,
      "start": 30.7,
      "duration": 0.0161,
      "velocity": 124,
      "chip": "ym2612"
    },
    {
      "channel": 4,
      "note": 59,
      "start": 30.7011,
      "duration": 0.0161,
      "velocity": 120,
      "chip": "ym2612"
    },
    {
      "channel": 3,
      "note": 66,
      "start": 30.7023,
      "duration": 0.0161,
      "velocity": 120,
      "chip": "ym2612"
    },
    {
      "channel": 2,
      "note": 52,
      "start": 30.7034,
      "duration": 0.0161,
      "velocity": 100,
      "chip": "ym2612"
    },
    {
      "channel": 0,
      "note": 63,
      "start": 30.7161,
      "duration": 0.0153,
      "velocity": 1,
      "chip": "ym2612"
    },
    {
      "channel": 4,
      "note": 59,
      "start": 30.7172,
      "duration": 0.0153,
      "velocity": 120,
      "chip": "ym2612"
    },
    {
      "channel": 3,
      "note": 66,
      "start": 30.7184,
      "duration": 0.0153,
      "velocity": 120,
      "chip": "ym2612"
    },
    {
      "channel": 2,
      "note": 52,
      "start": 30.7195,
      "duration": 0.0153,
      "velocity": 100,
      "chip": "ym2612"
    },
    {
      "channel": 4,
      "note": 59,
      "start": 30.7326,
      "duration": 0.0152,
      "velocity": 120,
      "chip": "ym2612"
    },
    {
      "channel": 3,
      "note": 66,
      "start": 30.7337,
      "duration": 0.0153,
      "velocity": 120,
      "chip": "ym2612"
    },
    {
      "channel": 2,
      "note": 52,
      "start": 30.7348,
      "duration": 0.0153,
      "velocity": 100,
      "chip": "ym2612"
    },
    {
      "channel": 4,
      "note": 59,
      "start": 30.7478,
      "duration": 0.0173,
      "velocity": 120,
      "chip": "ym2612"
    },
    {
      "channel": 3,
      "note": 66,
      "start": 30.7489,
      "duration": 0.0176,
      "velocity": 120,
      "chip": "ym2612"
    },
    {
      "channel": 2,
      "note": 52,
      "start": 30.7501,
      "duration": 0.0179,
      "velocity": 100,
      "chip": "ym2612"
    },
    {
      "channel": 4,
      "note": 57,
      "start": 30.7651,
      "duration": 0.0165,
      "velocity": 120,
      "chip": "ym2612"
    },
    {
      "channel": 3,
      "note": 64,
      "start": 30.7665,
      "duration": 0.0162,
      "velocity": 120,
      "chip": "ym2612"
    },
    {
      "channel": 2,
      "note": 52,
      "start": 30.768,
      "duration": 0.016,
      "velocity": 100,
      "chip": "ym2612"
    },
    {
      "channel": 4,
      "note": 57,
      "start": 30.7816,
      "duration": 0.0162,
      "velocity": 120,
      "chip": "ym2612"
    },
    {
      "channel": 3,
      "note": 64,
      "start": 30.7828,
      "duration": 0.0162,
      "velocity": 120,
      "chip": "ym2612"
    },
    {
      "channel": 2,
      "note": 52,
      "start": 30.784,
      "duration": 0.0162,
      "velocity": 100,
      "chip": "ym2612"
    },
    {
      "channel": 4,
      "note": 57,
      "start": 30.7978,
      "duration": 0.0146,
      "velocity": 120,
      "chip": "ym2612"
    },
    {
      "channel": 3,
      "note": 64,
      "start": 30.799,
      "duration": 0.0146,
      "velocity": 120,
      "chip": "ym2612"
    },
    {
      "channel": 2,
      "note": 52,
      "start": 30.8001,
      "duration": 0.0146,
      "velocity": 100,
      "chip": "ym2612"
    },
    {
      "channel": 4,
      "note": 57,
      "start": 30.8125,
      "duration": 0.0186,
      "velocity": 120,
      "chip": "ym2612"
    },
    {
      "channel": 3,
      "note": 64,
      "start": 30.8136,
      "duration": 0.0186,
      "velocity": 120,
      "chip": "ym2612"
    },
    {
      "channel": 2,
      "note": 52,
      "start": 30.8147,
      "duration": 0.0186,
      "velocity": 100,
      "chip": "ym2612"
    },
    {
      "channel": 4,
      "note": 57,
      "start": 30.831,
      "duration": 0.0161,
      "velocity": 120,
      "chip": "ym2612"
    },
    {
      "channel": 3,
      "note": 64,
      "start": 30.8322,
      "duration": 0.0161,
      "velocity": 120,
      "chip": "ym2612"
    },
    {
      "channel": 2,
      "note": 52,
      "start": 30.8333,
      "duration": 0.0161,
      "velocity": 100,
      "chip": "ym2612"
    },
    {
      "channel": 4,
      "note": 57,
      "start": 30.8471,
      "duration": 0.0134,
      "velocity": 120,
      "chip": "ym2612"
    },
    {
      "channel": 3,
      "note": 64,
      "start": 30.8483,
      "duration": 0.0158,
      "velocity": 120,
      "chip": "ym2612"
    },
    {
      "channel": 2,
      "note": 52,
      "start": 30.8494,
      "duration": 0.0157,
      "velocity": 100,
      "chip": "ym2612"
    },
    {
      "channel": 4,
      "note": 57,
      "start": 30.8605,
      "duration": 0.0161,
      "velocity": 120,
      "chip": "ym2612"
    },
    {
      "channel": 3,
      "note": 64,
      "start": 30.8641,
      "duration": 0.014,
      "velocity": 120,
      "chip": "ym2612"
    },
    {
      "channel": 2,
      "note": 52,
      "start": 30.8651,
      "duration": 0.0141,
      "velocity": 100,
      "chip": "ym2612"
    },
    {
      "channel": 4,
      "note": 57,
      "start": 30.8766,
      "duration": 0.0161,
      "velocity": 120,
      "chip": "ym2612"
    },
    {
      "channel": 3,
      "note": 64,
      "start": 30.878,
      "duration": 0.0158,
      "velocity": 120,
      "chip": "ym2612"
    },
    {
      "channel": 2,
      "note": 52,
      "start": 30.8792,
      "duration": 0.0185,
      "velocity": 100,
      "chip": "ym2612"
    },
    {
      "channel": 4,
      "note": 57,
      "start": 30.8927,
      "duration": 0.0162,
      "velocity": 120,
      "chip": "ym2612"
    },
    {
      "channel": 3,
      "note": 64,
      "start": 30.8938,
      "duration": 0.0161,
      "velocity": 120,
      "chip": "ym2612"
    },
    {
      "channel": 2,
      "note": 52,
      "start": 30.8977,
      "duration": 0.0161,
      "velocity": 100,
      "chip": "ym2612"
    },
    {
      "channel": 4,
      "note": 57,
      "start": 30.9088,
      "duration": 0.0161,
      "velocity": 120,
      "chip": "ym2612"
    },
    {
      "channel": 3,
      "note": 64,
      "start": 30.9099,
      "duration": 0.0161,
      "velocity": 120,
      "chip": "ym2612"
    },
    {
      "channel": 2,
      "note": 52,
      "start": 30.9138,
      "duration": 0.0134,
      "velocity": 100,
      "chip": "ym2612"
    },
    {
      "channel": 4,
      "note": 57,
      "start": 30.9249,
      "duration": 0.0161,
      "velocity": 120,
      "chip": "ym2612"
    },
    {
      "channel": 3,
      "note": 64,
      "start": 30.9261,
      "duration": 0.0161,
      "velocity": 120,
      "chip": "ym2612"
    },
    {
      "channel": 2,
      "note": 52,
      "start": 30.9272,
      "duration": 0.0161,
      "velocity": 100,
      "chip": "ym2612"
    },
    {
      "channel": 4,
      "note": 57,
      "start": 30.941,
      "duration": 0.0238,
      "velocity": 97,
      "chip": "ym2612"
    },
    {
      "channel": 3,
      "note": 64,
      "start": 30.9422,
      "duration": 0.0255,
      "velocity": 97,
      "chip": "ym2612"
    },
    {
      "channel": 2,
      "note": 52,
      "start": 30.9433,
      "duration": 0.0259,
      "velocity": 100,
      "chip": "ym2612"
    },
    {
      "channel": 0,
      "note": 36,
      "start": 30.9594,
      "duration": 0.0145,
      "velocity": 115,
      "chip": "ym2612"
    },
    {
      "channel": 4,
      "note": 57,
      "start": 30.9649,
      "duration": 0.0102,
      "velocity": 97,
      "chip": "ym2612"
    },
    {
      "channel": 3,
      "note": 64,
      "start": 30.9678,
      "duration": 0.0086,
      "velocity": 97,
      "chip": "ym2612"
    },
    {
      "channel": 2,
      "note": 52,
      "start": 30.9693,
      "duration": 0.011,
      "velocity": 100,
      "chip": "ym2612"
    },
    {
      "channel": 0,
      "note": 36,
      "start": 30.9739,
      "duration": 0.0159,
      "velocity": 115,
      "chip": "ym2612"
    },
    {
      "channel": 4,
      "note": 57,
      "start": 30.9751,
      "duration": 0.0159,
      "velocity": 97,
      "chip": "ym2612"
    },
    {
      "channel": 3,
      "note": 64,
      "start": 30.9763,
      "duration": 0.0158,
      "velocity": 97,
      "chip": "ym2612"
    },
    {
      "channel": 2,
      "note": 52,
      "start": 30.9803,
      "duration": 0.013,
      "velocity": 100,
      "chip": "ym2612"
    },
    {
      "channel": 0,
      "note": 37,
      "start": 30.9898,
      "duration": 0.0161,
      "velocity": 115,
      "chip": "ym2612"
    },
    {
      "channel": 4,
      "note": 57,
      "start": 30.991,
      "duration": 0.0163,
      "velocity": 97,
      "chip": "ym2612"
    },
    {
      "channel": 3,
      "note": 64,
      "start": 30.9921,
      "duration": 0.0164,
      "velocity": 97,
      "chip": "ym2612"
    },
    {
      "channel": 2,
      "note": 52,
      "start": 30.9933,
      "duration": 0.0163,
      "velocity": 100,
      "chip": "ym2612"
    },
    {
      "channel": 0,
      "note": 37,
      "start": 31.0059,
      "duration": 0.0161,
      "velocity": 115,
      "chip": "ym2612"
    },
    {
      "channel": 4,
      "note": 64,
      "start": 31.0074,
      "duration": 0.0159,
      "velocity": 97,
      "chip": "ym2612"
    },
    {
      "channel": 3,
      "note": 64,
      "start": 31.0085,
      "duration": 0.0158,
      "velocity": 97,
      "chip": "ym2612"
    },
    {
      "channel": 2,
      "note": 52,
      "start": 31.0096,
      "duration": 0.0159,
      "velocity": 100,
      "chip": "ym2612"
    },
    {
      "channel": 0,
      "note": 38,
      "start": 31.022,
      "duration": 0.0161,
      "velocity": 115,
      "chip": "ym2612"
    },
    {
      "channel": 4,
      "note": 64,
      "start": 31.0232,
      "duration": 0.016,
      "velocity": 97,
      "chip": "ym2612"
    },
    {
      "channel": 3,
      "note": 64,
      "start": 31.0244,
      "duration": 0.016,
      "velocity": 97,
      "chip": "ym2612"
    },
    {
      "channel": 2,
      "note": 52,
      "start": 31.0255,
      "duration": 0.016,
      "velocity": 100,
      "chip": "ym2612"
    },
    {
      "channel": 0,
      "note": 38,
      "start": 31.0381,
      "duration": 0.0161,
      "velocity": 115,
      "chip": "ym2612"
    },
    {
      "channel": 4,
      "note": 64,
      "start": 31.0393,
      "duration": 0.0161,
      "velocity": 97,
      "chip": "ym2612"
    },
    {
      "channel": 3,
      "note": 64,
      "start": 31.0404,
      "duration": 0.0163,
      "velocity": 97,
      "chip": "ym2612"
    },
    {
      "channel": 2,
      "note": 52,
      "start": 31.0415,
      "duration": 0.0163,
      "velocity": 100,
      "chip": "ym2612"
    },
    {
      "channel": 0,
      "note": 39,
      "start": 31.0542,
      "duration": 0.0161,
      "velocity": 115,
      "chip": "ym2612"
    },
    {
      "channel": 4,
      "note": 64,
      "start": 31.0554,
      "duration": 0.0161,
      "velocity": 97,
      "chip": "ym2612"
    },
    {
      "channel": 3,
      "note": 68,
      "start": 31.0567,
      "duration": 0.0159,
      "velocity": 97,
      "chip": "ym2612"
    },
    {
      "channel": 2,
      "note": 52,
      "start": 31.0579,
      "duration": 0.0159,
      "velocity": 100,
      "chip": "ym2612"
    },
    {
      "channel": 0,
      "note": 39,
      "start": 31.0703,
      "duration": 0.0161,
      "velocity": 115,
      "chip": "ym2612"
    },
    {
      "channel": 4,
      "note": 64,
      "start": 31.0714,
      "duration": 0.0162,
      "velocity": 97,
      "chip": "ym2612"
    },
    {
      "channel": 3,
      "note": 68,
      "start": 31.0727,
      "duration": 0.0161,
      "velocity": 97,
      "chip": "ym2612"
    },
    {
      "channel": 2,
      "note": 52,
      "start": 31.0738,
      "duration": 0.016,
      "velocity": 100,
      "chip": "ym2612"
    },
    {
      "channel": 0,
      "note": 40,
      "start": 31.0864,
      "duration": 0.0161,
      "velocity": 115,
      "chip": "ym2612"
    },
    {
      "channel": 4,
      "note": 64,
      "start": 31.0876,
      "duration": 0.0163,
      "velocity": 97,
      "chip": "ym2612"
    },
    {
      "channel": 3,
      "note": 68,
      "start": 31.0887,
      "duration": 0.0163,
      "velocity": 97,
      "chip": "ym2612"
    },
    {
      "channel": 2,
      "note": 52,
      "start": 31.0898,
      "duration": 0.0163,
      "velocity": 100,
      "chip": "ym2612"
    },
    {
      "channel": 0,
      "note": 40,
      "start": 31.1025,
      "duration": 0.0161,
      "velocity": 115,
      "chip": "ym2612"
    },
    {
      "channel": 4,
      "note": 68,
      "start": 31.1039,
      "duration": 0.0159,
      "velocity": 97,
      "chip": "ym2612"
    },
    {
      "channel": 3,
      "note": 68,
      "start": 31.1051,
      "duration": 0.0159,
      "velocity": 97,
      "chip": "ym2612"
    },
    {
      "channel": 2,
      "note": 52,
      "start": 31.1062,
      "duration": 0.0159,
      "velocity": 100,
      "chip": "ym2612"
    },
    {
      "channel": 0,
      "note": 40,
      "start": 31.1186,
      "duration": 0.0161,
      "velocity": 115,
      "chip": "ym2612"
    },
    {
      "channel": 4,
      "note": 68,
      "start": 31.1198,
      "duration": 0.016,
      "velocity": 97,
      "chip": "ym2612"
    },
    {
      "channel": 3,
      "note": 68,
      "start": 31.121,
      "duration": 0.016,
      "velocity": 97,
      "chip": "ym2612"
    },
    {
      "channel": 2,
      "note": 52,
      "start": 31.1221,
      "duration": 0.0161,
      "velocity": 100,
      "chip": "ym2612"
    },
    {
      "channel": 0,
      "note": 41,
      "start": 31.1347,
      "duration": 0.0161,
      "velocity": 115,
      "chip": "ym2612"
    },
    {
      "channel": 4,
      "note": 68,
      "start": 31.1359,
      "duration": 0.0161,
      "velocity": 97,
      "chip": "ym2612"
    },
    {
      "channel": 3,
      "note": 68,
      "start": 31.137,
      "duration": 0.0163,
      "velocity": 97,
      "chip": "ym2612"
    },
    {
      "channel": 2,
      "note": 52,
      "start": 31.1382,
      "duration": 0.0166,
      "velocity": 100,
      "chip": "ym2612"
    },
    {
      "channel": 0,
      "note": 41,
      "start": 31.1508,
      "duration": 0.0161,
      "velocity": 115,
      "chip": "ym2612"
    },
    {
      "channel": 4,
      "note": 68,
      "start": 31.152,
      "duration": 0.0161,
      "velocity": 97,
      "chip": "ym2612"
    },
    {
      "channel": 3,
      "note": 71,
      "start": 31.1534,
      "duration": 0.0159,
      "velocity": 97,
      "chip": "ym2612"
    },
    {
      "channel": 2,
      "note": 52,
      "start": 31.1548,
      "duration": 0.0156,
      "velocity": 100,
      "chip": "ym2612"
    },
    {
      "channel": 0,
      "note": 42,
      "start": 31.1669,
      "duration": 0.0161,
      "velocity": 115,
      "chip": "ym2612"
    },
    {
      "channel": 4,
      "note": 68,
      "start": 31.1681,
      "duration": 0.0161,
      "velocity": 97,
      "chip": "ym2612"
    },
    {
      "channel": 3,
      "note": 71,
      "start": 31.1693,
      "duration": 0.016,
      "velocity": 97,
      "chip": "ym2612"
    },
    {
      "channel": 2,
      "note": 52,
      "start": 31.1705,
      "duration": 0.016,
      "velocity": 100,
      "chip": "ym2612"
    },
    {
      "channel": 0,
      "note": 42,
      "start": 31.183,
      "duration": 0.0161,
      "velocity": 115,
      "chip": "ym2612"
    },
    {
      "channel": 4,
      "note": 68,
      "start": 31.1841,
      "duration": 0.0163,
      "velocity": 97,
      "chip": "ym2612"
    },
    {
      "channel": 3,
      "note": 71,
      "start": 31.1853,
      "duration": 0.0164,
      "velocity": 97,
      "chip": "ym2612"
    },
    {
      "channel": 2,
      "note": 52,
      "start": 31.1864,
      "duration": 0.0163,
      "velocity": 100,
      "chip": "ym2612"
    },
    {
      "channel": 0,
      "note": 43,
      "start": 31.1991,
      "duration": 0.0161,
      "velocity": 115,
      "chip": "ym2612"
    },
    {
      "channel": 4,
      "note": 71,
      "start": 31.2006,
      "duration": 0.0159,
      "velocity": 97,
      "chip": "ym2612"
    },
    {
      "channel": 3,
      "note": 71,
      "start": 31.2017,
      "duration": 0.0158,
      "velocity": 97,
      "chip": "ym2612"
    },
    {
      "channel": 2,
      "note": 52,
      "start": 31.2028,
      "duration": 0.0159,
      "velocity": 100,
      "chip": "ym2612"
    },
    {
      "channel": 0,
      "note": 43,
      "start": 31.2152,
      "duration": 0.0169,
      "velocity": 115,
      "chip": "ym2612"
    },
    {
      "channel": 4,
      "note": 71,
      "start": 31.2164,
      "duration": 0.0168,
      "velocity": 97,
      "chip": "ym2612"
    },
    {
      "channel": 3,
      "note": 71,
      "start": 31.2176,
      "duration": 0.0168,
      "velocity": 97,
      "chip": "ym2612"
    },
    {
      "channel": 2,
      "note": 52,
      "start": 31.2187,
      "duration": 0.0167,
      "velocity": 100,
      "chip": "ym2612"
    },
    {
      "channel": 0,
      "note": 44,
      "start": 31.2321,
      "duration": 0.0167,
      "velocity": 115,
      "chip": "ym2612"
    },
    {
      "channel": 4,
      "note": 71,
      "start": 31.2332,
      "duration": 0.0167,
      "velocity": 97,
      "chip": "ym2612"
    },
    {
      "channel": 3,
      "note": 71,
      "start": 31.2344,
      "duration": 0.0168,
      "velocity": 97,
      "chip": "ym2612"
    },
    {
      "channel": 2,
      "note": 52,
      "start": 31.2354,
      "duration": 0.0168,
      "velocity": 100,
      "chip": "ym2612"
    },
    {
      "channel": 0,
      "note": 44,
      "start": 31.2487,
      "duration": 0.0163,
      "velocity": 115,
      "chip": "ym2612"
    },
    {
      "channel": 4,
      "note": 71,
      "start": 31.2499,
      "duration": 0.0163,
      "velocity": 97,
      "chip": "ym2612"
    },
    {
      "channel": 3,
      "note": 71,
      "start": 31.2511,
      "duration": 0.0162,
      "velocity": 97,
      "chip": "ym2612"
    },
    {
      "channel": 2,
      "note": 52,
      "start": 31.2522,
      "duration": 0.0163,
      "velocity": 100,
      "chip": "ym2612"
    },
    {
      "channel": 0,
      "note": 44,
      "start": 31.265,
      "duration": 0.0147,
      "velocity": 115,
      "chip": "ym2612"
    },
    {
      "channel": 4,
      "note": 71,
      "start": 31.2661,
      "duration": 0.0147,
      "velocity": 97,
      "chip": "ym2612"
    },
    {
      "channel": 3,
      "note": 71,
      "start": 31.2674,
      "duration": 0.0146,
      "velocity": 97,
      "chip": "ym2612"
    },
    {
      "channel": 2,
      "note": 52,
      "start": 31.2685,
      "duration": 0.0146,
      "velocity": 100,
      "chip": "ym2612"
    },
    {
      "channel": 0,
      "note": 45,
      "start": 31.2797,
      "duration": 0.0188,
      "velocity": 115,
      "chip": "ym2612"
    },
    {
      "channel": 4,
      "note": 71,
      "start": 31.2809,
      "duration": 0.0189,
      "velocity": 97,
      "chip": "ym2612"
    },
    {
      "channel": 3,
      "note": 71,
      "start": 31.282,
      "duration": 0.0189,
      "velocity": 97,
      "chip": "ym2612"
    },
    {
      "channel": 2,
      "note": 52,
      "start": 31.2832,
      "duration": 0.0189,
      "velocity": 100,
      "chip": "ym2612"
    },
    {
      "channel": 0,
      "note": 45,
      "start": 31.2985,
      "duration": 0.0161,
      "velocity": 115,
      "chip": "ym2612"
    },
    {
      "channel": 4,
      "note": 71,
      "start": 31.2998,
      "duration": 0.016,
      "velocity": 97,
      "chip": "ym2612"
    },
    {
      "channel": 3,
      "note": 71,
      "start": 31.3009,
      "duration": 0.016,
      "velocity": 97,
      "chip": "ym2612"
    },
    {
      "channel": 2,
      "note": 52,
      "start": 31.302,
      "duration": 0.016,
      "velocity": 100,
      "chip": "ym2612"
    },
    {
      "channel": 0,
      "note": 46,
      "start": 31.3146,
      "duration": 0.0158,
      "velocity": 115,
      "chip": "ym2612"
    },
    {
      "channel": 4,
      "note": 71,
      "start": 31.3158,
      "duration": 0.0157,
      "velocity": 97,
      "chip": "ym2612"
    },
    {
      "channel": 3,
      "note": 71,
      "start": 31.3169,
      "duration": 0.0157,
      "velocity": 97,
      "chip": "ym2612"
    },
    {
      "channel": 2,
      "note": 52,
      "start": 31.3181,
      "duration": 0.0156,
      "velocity": 100,
      "chip": "ym2612"
    },
    {
      "channel": 0,
      "note": 46,
      "start": 31.3303,
      "duration": 0.0158,
      "velocity": 124,
      "chip": "ym2612"
    },
    {
      "channel": 4,
      "note": 71,
      "start": 31.3315,
      "duration": 0.0158,
      "velocity": 97,
      "chip": "ym2612"
    },
    {
      "channel": 3,
      "note": 71,
      "start": 31.3326,
      "duration": 0.016,
      "velocity": 97,
      "chip": "ym2612"
    },
    {
      "channel": 2,
      "note": 52,
      "start": 31.3337,
      "duration": 0.0164,
      "velocity": 100,
      "chip": "ym2612"
    },
    {
      "channel": 0,
      "note": 84,
      "start": 31.3461,
      "duration": 0.0141,
      "velocity": 124,
      "chip": "ym2612"
    },
    {
      "channel": 4,
      "note": 71,
      "start": 31.3473,
      "duration": 0.0168,
      "velocity": 97,
      "chip": "ym2612"
    },
    {
      "channel": 3,
      "note": 68,
      "start": 31.3487,
      "duration": 0.0165,
      "velocity": 97,
      "chip": "ym2612"
    },
    {
      "channel": 2,
      "note": 52,
      "start": 31.3501,
      "duration": 0.0163,
      "velocity": 100,
      "chip": "ym2612"
    },
    {
      "channel": 0,
      "note": 82,
      "start": 31.3602,
      "duration": 0.016,
      "velocity": 124,
      "chip": "ym2612"
    },
    {
      "channel": 4,
      "note": 71,
      "start": 31.3641,
      "duration": 0.016,
      "velocity": 97,
      "chip": "ym2612"
    },
    {
      "channel": 3,
      "note": 68,
      "start": 31.3653,
      "duration": 0.016,
      "velocity": 97,
      "chip": "ym2612"
    },
    {
      "channel": 2,
      "note": 52,
      "start": 31.3665,
      "duration": 0.0159,
      "velocity": 100,
      "chip": "ym2612"
    },
    {
      "channel": 0,
      "note": 80,
      "start": 31.3762,
      "duration": 0.0161,
      "velocity": 124,
      "chip": "ym2612"
    },
    {
      "channel": 4,
      "note": 71,
      "start": 31.3802,
      "duration": 0.0135,
      "velocity": 97,
      "chip": "ym2612"
    },
    {
      "channel": 3,
      "note": 68,
      "start": 31.3813,
      "duration": 0.016,
      "velocity": 97,
      "chip": "ym2612"
    },
    {
      "channel": 2,
      "note": 52,
      "start": 31.3824,
      "duration": 0.016,
      "velocity": 100,
      "chip": "ym2612"
    },
    {
      "channel": 0,
      "note": 77,
      "start": 31.3924,
      "duration": 0.0161,
      "velocity": 124,
      "chip": "ym2612"
    },
    {
      "channel": 4,
      "note": 68,
      "start": 31.3938,
      "duration": 0.0159,
      "velocity": 97,
      "chip": "ym2612"
    },
    {
      "channel": 3,
      "note": 68,
      "start": 31.3973,
      "duration": 0.0139,
      "velocity": 97,
      "chip": "ym2612"
    },
    {
      "channel": 2,
      "note": 52,
      "start": 31.3984,
      "duration": 0.0139,
      "velocity": 100,
      "chip": "ym2612"
    },
    {
      "channel": 0,
      "note": 75,
      "start": 31.4085,
      "duration": 0.0161,
      "velocity": 124,
      "chip": "ym2612"
    },
    {
      "channel": 4,
      "note": 68,
      "start": 31.4097,
      "duration": 0.016,
      "velocity": 97,
      "chip": "ym2612"
    },
    {
      "channel": 3,
      "note": 68,
      "start": 31.4111,
      "duration": 0.0157,
      "velocity": 97,
      "chip": "ym2612"
    },
    {
      "channel": 2,
      "note": 52,
      "start": 31.4123,
      "duration": 0.0185,
      "velocity": 100,
      "chip": "ym2612"
    },
    {
      "channel": 0,
      "note": 72,
      "start": 31.4246,
      "duration": 0.0161,
      "velocity": 124,
      "chip": "ym2612"
    },
    {
      "channel": 4,
      "note": 68,
      "start": 31.4257,
      "duration": 0.0161,
      "velocity": 97,
      "chip": "ym2612"
    },
    {
      "channel": 3,
      "note": 68,
      "start": 31.4268,
      "duration": 0.0163,
      "velocity": 97,
      "chip": "ym2612"
    },
    {
      "channel": 2,
      "note": 52,
      "start": 31.4307,
      "duration": 0.0163,
      "velocity": 100,
      "chip": "ym2612"
    },
    {
      "channel": 0,
      "note": 70,
      "start": 31.4407,
      "duration": 0.0161,
      "velocity": 124,
      "chip": "ym2612"
    },
    {
      "channel": 4,
      "note": 68,
      "start": 31.4418,
      "duration": 0.0161,
      "velocity": 97,
      "chip": "ym2612"
    },
    {
      "channel": 3,
      "note": 71,
      "start": 31.4432,
      "duration": 0.0159,
      "velocity": 97,
      "chip": "ym2612"
    },
    {
      "channel": 2,
      "note": 52,
      "start": 31.4471,
      "duration": 0.0132,
      "velocity": 100,
      "chip": "ym2612"
    },
    {
      "channel": 0,
      "note": 68,
      "start": 31.4567,
      "duration": 0.0161,
      "velocity": 124,
      "chip": "ym2612"
    },
    {
      "channel": 4,
      "note": 68,
      "start": 31.4579,
      "duration": 0.0161,
      "velocity": 97,
      "chip": "ym2612"
    },
    {
      "channel": 3,
      "note": 71,
      "start": 31.4591,
      "duration": 0.016,
      "velocity": 97,
      "chip": "ym2612"
    },
    {
      "channel": 2,
      "note": 52,
      "start": 31.4602,
      "duration": 0.016,
      "velocity": 100,
      "chip": "ym2612"
    },
    {
      "channel": 0,
      "note": 65,
      "start": 31.4728,
      "duration": 0.0161,
      "velocity": 124,
      "chip": "ym2612"
    },
    {
      "channel": 4,
      "note": 68,
      "start": 31.474,
      "duration": 0.0163,
      "velocity": 97,
      "chip": "ym2612"
    },
    {
      "channel": 3,
      "note": 71,
      "start": 31.4751,
      "duration": 0.0164,
      "velocity": 97,
      "chip": "ym2612"
    },
    {
      "channel": 2,
      "note": 52,
      "start": 31.4763,
      "duration": 0.0163,
      "velocity": 100,
      "chip": "ym2612"
    },
    {
      "channel": 0,
      "note": 63,
      "start": 31.4889,
      "duration": 0.0153,
      "velocity": 1,
      "chip": "ym2612"
    },
    {
      "channel": 4,
      "note": 71,
      "start": 31.4904,
      "duration": 0.0151,
      "velocity": 97,
      "chip": "ym2612"
    },
    {
      "channel": 3,
      "note": 71,
      "start": 31.4915,
      "duration": 0.0151,
      "velocity": 97,
      "chip": "ym2612"
    },
    {
      "channel": 2,
      "note": 52,
      "start": 31.4926,
      "duration": 0.0151,
      "velocity": 100,
      "chip": "ym2612"
    },
    {
      "channel": 4,
      "note": 71,
      "start": 31.5055,
      "duration": 0.0152,
      "velocity": 97,
      "chip": "ym2612"
    },
    {
      "channel": 3,
      "note": 71,
      "start": 31.5066,
      "duration": 0.0152,
      "velocity": 97,
      "chip": "ym2612"
    },
    {
      "channel": 2,
      "note": 52,
      "start": 31.5077,
      "duration": 0.0152,
      "velocity": 100,
      "chip": "ym2612"
    },
    {
      "channel": 4,
      "note": 71,
      "start": 31.5207,
      "duration": 0.0195,
      "velocity": 97,
      "chip": "ym2612"
    },
    {
      "channel": 3,
      "note": 71,
      "start": 31.5218,
      "duration": 0.0197,
      "velocity": 97,
      "chip": "ym2612"
    },
    {
      "channel": 2,
      "note": 52,
      "start": 31.5229,
      "duration": 0.0201,
      "velocity": 100,
      "chip": "ym2612"
    },
    {
      "channel": 0,
      "note": 36,
      "start": 31.539,
      "duration": 0.0144,
      "velocity": 115,
      "chip": "ym2612"
    },
    {
      "channel": 4,
      "note": 71,
      "start": 31.5402,
      "duration": 0.0144,
      "velocity": 97,
      "chip": "ym2612"
    },
    {
      "channel": 3,
      "note": 74,
      "start": 31.5416,
      "duration": 0.0142,
      "velocity": 97,
      "chip": "ym2612"
    },
    {
      "channel": 2,
      "note": 52,
      "start": 31.5431,
      "duration": 0.0139,
      "velocity": 100,
      "chip": "ym2612"
    },
    {
      "channel": 0,
      "note": 36,
      "start": 31.5534,
      "duration": 0.016,
      "velocity": 115,
      "chip": "ym2612"
    },
    {
      "channel": 4,
      "note": 71,
      "start": 31.5546,
      "duration": 0.016,
      "velocity": 97,
      "chip": "ym2612"
    },
    {
      "channel": 3,
      "note": 74,
      "start": 31.5558,
      "duration": 0.016,
      "velocity": 97,
      "chip": "ym2612"
    },
    {
      "channel": 2,
      "note": 52,
      "start": 31.5569,
      "duration": 0.016,
      "velocity": 100,
      "chip": "ym2612"
    },
    {
      "channel": 0,
      "note": 37,
      "start": 31.5695,
      "duration": 0.0161,
      "velocity": 115,
      "chip": "ym2612"
    },
    {
      "channel": 4,
      "note": 71,
      "start": 31.5706,
      "duration": 0.0163,
      "velocity": 97,
      "chip": "ym2612"
    },
    {
      "channel": 3,
      "note": 74,
      "start": 31.5717,
      "duration": 0.0163,
      "velocity": 97,
      "chip": "ym2612"
    },
    {
      "channel": 2,
      "note": 52,
      "start": 31.5729,
      "duration": 0.0163,
      "velocity": 100,
      "chip": "ym2612"
    },
    {
      "channel": 0,
      "note": 37,
      "start": 31.5856,
      "duration": 0.0161,
      "velocity": 115,
      "chip": "ym2612"
    },
    {
      "channel": 4,
      "note": 74,
      "start": 31.587,
      "duration": 0.0159,
      "velocity": 97,
      "chip": "ym2612"
    },
    {
      "channel": 3,
      "note": 74,
      "start": 31.5881,
      "duration": 0.0159,
      "velocity": 97,
      "chip": "ym2612"
    },
    {
      "channel": 2,
      "note": 52,
      "start": 31.5893,
      "duration": 0.0159,
      "velocity": 100,
      "chip": "ym2612"
    },
    {
      "channel": 0,
      "note": 38,
      "start": 31.6017,
      "duration": 0.0161,
      "velocity": 115,
      "chip": "ym2612"
    },
    {
      "channel": 4,
      "note": 74,
      "start": 31.6029,
      "duration": 0.016,
      "velocity": 97,
      "chip": "ym2612"
    },
    {
      "channel": 3,
      "note": 74,
      "start": 31.604,
      "duration": 0.016,
      "velocity": 97,
      "chip": "ym2612"
    },
    {
      "channel": 2,
      "note": 52,
      "start": 31.6051,
      "duration": 0.016,
      "velocity": 100,
      "chip": "ym2612"
    },
    {
      "channel": 0,
      "note": 38,
      "start": 31.6178,
      "duration": 0.0161,
      "velocity": 115,
      "chip": "ym2612"
    },
    {
      "channel": 4,
      "note": 74,
      "start": 31.6189,
      "duration": 0.0161,
      "velocity": 97,
      "chip": "ym2612"
    },
    {
      "channel": 3,
      "note": 74,
      "start": 31.62,
      "duration": 0.0162,
      "velocity": 97,
      "chip": "ym2612"
    },
    {
      "channel": 2,
      "note": 52,
      "start": 31.6212,
      "duration": 0.0162,
      "velocity": 100,
      "chip": "ym2612"
    },
    {
      "channel": 0,
      "note": 39,
      "start": 31.6338,
      "duration": 0.0161,
      "velocity": 115,
      "chip": "ym2612"
    },
    {
      "channel": 4,
      "note": 74,
      "start": 31.635,
      "duration": 0.0161,
      "velocity": 97,
      "chip": "ym2612"
    },
    {
      "channel": 3,
      "note": 74,
      "start": 31.6363,
      "duration": 0.016,
      "velocity": 97,
      "chip": "ym2612"
    },
    {
      "channel": 2,
      "note": 52,
      "start": 31.6374,
      "duration": 0.016,
      "velocity": 100,
      "chip": "ym2612"
    },
    {
      "channel": 0,
      "note": 39,
      "start": 31.6499,
      "duration": 0.0162,
      "velocity": 115,
      "chip": "ym2612"
    },
    {
      "channel": 4,
      "note": 74,
      "start": 31.6511,
      "duration": 0.0161,
      "velocity": 97,
      "chip": "ym2612"
    },
    {
      "channel": 3,
      "note": 74,
      "start": 31.6523,
      "duration": 0.0161,
      "velocity": 97,
      "chip": "ym2612"
    },
    {
      "channel": 2,
      "note": 52,
      "start": 31.6534,
      "duration": 0.016,
      "velocity": 100,
      "chip": "ym2612"
    },
    {
      "channel": 0,
      "note": 40,
      "start": 31.6661,
      "duration": 0.0161,
      "velocity": 115,
      "chip": "ym2612"
    },
    {
      "channel": 4,
      "note": 74,
      "start": 31.6672,
      "duration": 0.0162,
      "velocity": 97,
      "chip": "ym2612"
    },
    {
      "channel": 3,
      "note": 74,
      "start": 31.6684,
      "duration": 0.0161,
      "velocity": 97,
      "chip": "ym2612"
    },
    {
      "channel": 2,
      "note": 52,
      "start": 31.6695,
      "duration": 0.0162,
      "velocity": 100,
      "chip": "ym2612"
    },
    {
      "channel": 0,
      "note": 40,
      "start": 31.6822,
      "duration": 0.0166,
      "velocity": 115,
      "chip": "ym2612"
    },
    {
      "channel": 4,
      "note": 74,
      "start": 31.6835,
      "duration": 0.0165,
      "velocity": 97,
      "chip": "ym2612"
    },
    {
      "channel": 3,
      "note": 74,
      "start": 31.6845,
      "duration": 0.0166,
      "velocity": 97,
      "chip": "ym2612"
    },
    {
      "channel": 2,
      "note": 52,
      "start": 31.6857,
      "duration": 0.0165,
      "velocity": 100,
      "chip": "ym2612"
    },
    {
      "channel": 0,
      "note": 40,
      "start": 31.6987,
      "duration": 0.0167,
      "velocity": 115,
      "chip": "ym2612"
    },
    {
      "channel": 4,
      "note": 74,
      "start": 31.6999,
      "duration": 0.0166,
      "velocity": 97,
      "chip": "ym2612"
    },
    {
      "channel": 3,
      "note": 74,
      "start": 31.7011,
      "duration": 0.0165,
      "velocity": 97,
      "chip": "ym2612"
    },
    {
      "channel": 2,
      "note": 52,
      "start": 31.7022,
      "duration": 0.0166,
      "velocity": 100,
      "chip": "ym2612"
    },
    {
      "channel": 0,
      "note": 41,
      "start": 31.7154,
      "duration": 0.0181,
      "velocity": 115,
      "chip": "ym2612"
    },
    {
      "channel": 4,
      "note": 74,
      "start": 31.7165,
      "duration": 0.0181,
      "velocity": 97,
      "chip": "ym2612"
    },
    {
      "channel": 3,
      "note": 74,
      "start": 31.7176,
      "duration": 0.0184,
      "velocity": 97,
      "chip": "ym2612"
    },
    {
      "channel": 2,
      "note": 52,
      "start": 31.7188,
      "duration": 0.0187,
      "velocity": 100,
      "chip": "ym2612"
    },
    {
      "channel": 0,
      "note": 36,
      "start": 31.7335,
      "duration": 0.0132,
      "velocity": 115,
      "chip": "ym2612"
    },
    {
      "channel": 4,
      "note": 74,
      "start": 31.7346,
      "duration": 0.0132,
      "velocity": 97,
      "chip": "ym2612"
    },
    {
      "channel": 3,
      "note": 71,
      "start": 31.736,
      "duration": 0.013,
      "velocity": 97,
      "chip": "ym2612"
    },
    {
      "channel": 2,
      "note": 52,
      "start": 31.7375,
      "duration": 0.0127,
      "velocity": 100,
      "chip": "ym2612"
    },
    {
      "channel": 0,
      "note": 36,
      "start": 31.7466,
      "duration": 0.0188,
      "velocity": 115,
      "chip": "ym2612"
    },
    {
      "channel": 4,
      "note": 74,
      "start": 31.7478,
      "duration": 0.0188,
      "velocity": 97,
      "chip": "ym2612"
    },
    {
      "channel": 3,
      "note": 71,
      "start": 31.749,
      "duration": 0.0187,
      "velocity": 97,
      "chip": "ym2612"
    },
    {
      "channel": 2,
      "note": 52,
      "start": 31.7501,
      "duration": 0.0186,
      "velocity": 100,
      "chip": "ym2612"
    },
    {
      "channel": 0,
      "note": 37,
      "start": 31.7654,
      "duration": 0.0161,
      "velocity": 115,
      "chip": "ym2612"
    },
    {
      "channel": 4,
      "note": 74,
      "start": 31.7665,
      "duration": 0.0163,
      "velocity": 97,
      "chip": "ym2612"
    },
    {
      "channel": 3,
      "note": 71,
      "start": 31.7677,
      "duration": 0.0164,
      "velocity": 97,
      "chip": "ym2612"
    },
    {
      "channel": 2,
      "note": 52,
      "start": 31.7688,
      "duration": 0.0164,
      "velocity": 100,
      "chip": "ym2612"
    },
    {
      "channel": 0,
      "note": 37,
      "start": 31.7815,
      "duration": 0.0158,
      "velocity": 115,
      "chip": "ym2612"
    },
    {
      "channel": 4,
      "note": 71,
      "start": 31.7829,
      "duration": 0.0155,
      "velocity": 97,
      "chip": "ym2612"
    },
    {
      "channel": 3,
      "note": 71,
      "start": 31.7841,
      "duration": 0.0155,
      "velocity": 97,
      "chip": "ym2612"
    },
    {
      "channel": 2,
      "note": 52,
      "start": 31.7852,
      "duration": 0.0156,
      "velocity": 100,
      "chip": "ym2612"
    },
    {
      "channel": 0,
      "note": 38,
      "start": 31.7973,
      "duration": 0.014,
      "velocity": 115,
      "chip": "ym2612"
    },
    {
      "channel": 4,
      "note": 71,
      "start": 31.7985,
      "duration": 0.014,
      "velocity": 97,
      "chip": "ym2612"
    },
    {
      "channel": 3,
      "note": 71,
      "start": 31.7996,
      "duration": 0.014,
      "velocity": 97,
      "chip": "ym2612"
    },
    {
      "channel": 2,
      "note": 52,
      "start": 31.8008,
      "duration": 0.0139,
      "velocity": 100,
      "chip": "ym2612"
    },
    {
      "channel": 0,
      "note": 38,
      "start": 31.8112,
      "duration": 0.0159,
      "velocity": 115,
      "chip": "ym2612"
    },
    {
      "channel": 4,
      "note": 71,
      "start": 31.8125,
      "duration": 0.0185,
      "velocity": 97,
      "chip": "ym2612"
    },
    {
      "channel": 3,
      "note": 71,
      "start": 31.8136,
      "duration": 0.0188,
      "velocity": 97,
      "chip": "ym2612"
    },
    {
      "channel": 2,
      "note": 52,
      "start": 31.8147,
      "duration": 0.0188,
      "velocity": 100,
      "chip": "ym2612"
    },
    {
      "channel": 0,
      "note": 39,
      "start": 31.8271,
      "duration": 0.0161,
      "velocity": 115,
      "chip": "ym2612"
    },
    {
      "channel": 4,
      "note": 71,
      "start": 31.831,
      "duration": 0.0161,
      "velocity": 97,
      "chip": "ym2612"
    },
    {
      "channel": 3,
      "note": 74,
      "start": 31.8324,
      "duration": 0.0159,
      "velocity": 97,
      "chip": "ym2612"
    },
    {
      "channel": 2,
      "note": 52,
      "start": 31.8335,
      "duration": 0.0159,
      "velocity": 100,
      "chip": "ym2612"
    },
    {
      "channel": 0,
      "note": 39,
      "start": 31.8432,
      "duration": 0.0161,
      "velocity": 115,
      "chip": "ym2612"
    },
    {
      "channel": 4,
      "note": 71,
      "start": 31.8471,
      "duration": 0.0134,
      "velocity": 97,
      "chip": "ym2612"
    },
    {
      "channel": 3,
      "note": 74,
      "start": 31.8483,
      "duration": 0.0156,
      "velocity": 97,
      "chip": "ym2612"
    },
    {
      "channel": 2,
      "note": 52,
      "start": 31.8494,
      "duration": 0.0156,
      "velocity": 100,
      "chip": "ym2612"
    },
    {
      "channel": 0,
      "note": 40,
      "start": 31.8593,
      "duration": 0.0161,
      "velocity": 115,
      "chip": "ym2612"
    },
    {
      "channel": 4,
      "note": 71,
      "start": 31.8604,
      "duration": 0.0163,
      "velocity": 97,
      "chip": "ym2612"
    },
    {
      "channel": 3,
      "note": 74,
      "start": 31.8639,
      "duration": 0.0143,
      "velocity": 97,
      "chip": "ym2612"
    },
    {
      "channel": 2,
      "note": 52,
      "start": 31.8651,
      "duration": 0.0143,
      "velocity": 100,
      "chip": "ym2612"
    },
    {
      "channel": 0,
      "note": 40,
      "start": 31.8754,
      "duration": 0.0161,
      "velocity": 115,
      "chip": "ym2612"
    },
    {
      "channel": 4,
      "note": 74,
      "start": 31.8768,
      "duration": 0.0159,
      "velocity": 97,
      "chip": "ym2612"
    },
    {
      "channel": 3,
      "note": 74,
      "start": 31.8783,
      "duration": 0.0156,
      "velocity": 97,
      "chip": "ym2612"
    },
    {
      "channel": 2,
      "note": 52,
      "start": 31.8794,
      "duration": 0.0183,
      "velocity": 100,
      "chip": "ym2612"
    },
    {
      "channel": 0,
      "note": 40,
      "start": 31.8915,
      "duration": 0.0161,
      "velocity": 115,
      "chip": "ym2612"
    },
    {
      "channel": 4,
      "note": 74,
      "start": 31.8927,
      "duration": 0.016,
      "velocity": 97,
      "chip": "ym2612"
    },
    {
      "channel": 3,
      "note": 74,
      "start": 31.8938,
      "duration": 0.016,
      "velocity": 97,
      "chip": "ym2612"
    },
    {
      "channel": 2,
      "note": 52,
      "start": 31.8977,
      "duration": 0.016,
      "velocity": 100,
      "chip": "ym2612"
    },
    {
      "channel": 0,
      "note": 41,
      "start": 31.9076,
      "duration": 0.0161,
      "velocity": 115,
      "chip": "ym2612"
    },
    {
      "channel": 4,
      "note": 74,
      "start": 31.9087,
      "duration": 0.0161,
      "velocity": 97,
      "chip": "ym2612"
    },
    {
      "channel": 3,
      "note": 74,
      "start": 31.9099,
      "duration": 0.0163,
      "velocity": 97,
      "chip": "ym2612"
    },
    {
      "channel": 2,
      "note": 52,
      "start": 31.9137,
      "duration": 0.0163,
      "velocity": 100,
      "chip": "ym2612"
    },
    {
      "channel": 0,
      "note": 41,
      "start": 31.9237,
      "duration": 0.0161,
      "velocity": 115,
      "chip": "ym2612"
    },
    {
      "channel": 4,
      "note": 74,
      "start": 31.9248,
      "duration": 0.0162,
      "velocity": 97,
      "chip": "ym2612"
    },
    {
      "channel": 3,
      "note": 78,
      "start": 31.9262,
      "duration": 0.0159,
      "velocity": 97,
      "chip": "ym2612"
    },
    {
      "channel": 2,
      "note": 52,
      "start": 31.9301,
      "duration": 0.0132,
      "velocity": 100,
      "chip": "ym2612"
    },
    {
      "channel": 0,
      "note": 42,
      "start": 31.9398,
      "duration": 0.0161,
      "velocity": 115,
      "chip": "ym2612"
    },
    {
      "channel": 4,
      "note": 74,
      "start": 31.941,
      "duration": 0.0161,
      "velocity": 97,
      "chip": "ym2612"
    },
    {
      "channel": 3,
      "note": 78,
      "start": 31.9421,
      "duration": 0.016,
      "velocity": 97,
      "chip": "ym2612"
    },
    {
      "channel": 2,
      "note": 52,
      "start": 31.9433,
      "duration": 0.016,
      "velocity": 100,
      "chip": "ym2612"
    },
    {
      "channel": 0,
      "note": 42,
      "start": 31.9559,
      "duration": 0.0161,
      "velocity": 115,
      "chip": "ym2612"
    },
    {
      "channel": 4,
      "note": 74,
      "start": 31.9571,
      "duration": 0.0163,
      "velocity": 97,
      "chip": "ym2612"
    },
    {
      "channel": 3,
      "note": 78,
      "start": 31.9581,
      "duration": 0.0164,
      "velocity": 97,
      "chip": "ym2612"
    },
    {
      "channel": 2,
      "note": 52,
      "start": 31.9593,
      "duration": 0.0163,
      "velocity": 100,
      "chip": "ym2612"
    },
    {
      "channel": 0,
      "note": 43,
      "start": 31.972,
      "duration": 0.0161,
      "velocity": 115,
      "chip": "ym2612"
    },
    {
      "channel": 4,
      "note": 78,
      "start": 31.9734,
      "duration": 0.0159,
      "velocity": 97,
      "chip": "ym2612"
    },
    {
      "channel": 3,
      "note": 78,
      "start": 31.9746,
      "duration": 0.0159,
      "velocity": 97,
      "chip": "ym2612"
    },
    {
      "channel": 2,
      "note": 52,
      "start": 31.9756,
      "duration": 0.0159,
      "velocity": 100,
      "chip": "ym2612"
    },
    {
      "channel": 0,
      "note": 43,
      "start": 31.9881,
      "duration": 0.0161,
      "velocity": 115,
      "chip": "ym2612"
    },
    {
      "channel": 4,
      "note": 78,
      "start": 31.9893,
      "duration": 0.016,
      "velocity": 97,
      "chip": "ym2612"
    },
    {
      "channel": 3,
      "note": 78,
      "start": 31.9905,
      "duration": 0.016,
      "velocity": 97,
      "chip": "ym2612"
    },
    {
      "channel": 2,
      "note": 52,
      "start": 31.9915,
      "duration": 0.016,
      "velocity": 100,
      "chip": "ym2612"
    },
    {
      "channel": 0,
      "note": 44,
      "start": 32.0042,
      "duration": 0.0161,
      "velocity": 115,
      "chip": "ym2612"
    },
    {
      "channel": 4,
      "note": 78,
      "start": 32.0054,
      "duration": 0.0161,
      "velocity": 97,
      "chip": "ym2612"
    },
    {
      "channel": 3,
      "note": 78,
      "start": 32.0065,
      "duration": 0.0162,
      "velocity": 97,
      "chip": "ym2612"
    },
    {
      "channel": 2,
      "note": 52,
      "start": 32.0076,
      "duration": 0.0163,
      "velocity": 100,
      "chip": "ym2612"
    },
    {
      "channel": 0,
      "note": 44,
      "start": 32.0203,
      "duration": 0.0161,
      "velocity": 115,
      "chip": "ym2612"
    },
    {
      "channel": 4,
      "note": 78,
      "start": 32.0214,
      "duration": 0.0161,
      "velocity": 97,
      "chip": "ym2612"
    },
    {
      "channel": 3,
      "note": 78,
      "start": 32.0227,
      "duration": 0.016,
      "velocity": 97,
      "chip": "ym2612"
    },
    {
      "channel": 2,
      "note": 52,
      "start": 32.0239,
      "duration": 0.016,
      "velocity": 100,
      "chip": "ym2612"
    },
    {
      "channel": 0,
      "note": 44,
      "start": 32.0364,
      "duration": 0.0161,
      "velocity": 115,
      "chip": "ym2612"
    },
    {
      "channel": 4,
      "note": 78,
      "start": 32.0375,
      "duration": 0.0161,
      "velocity": 97,
      "chip": "ym2612"
    },
    {
      "channel": 3,
      "note": 78,
      "start": 32.0387,
      "duration": 0.016,
      "velocity": 97,
      "chip": "ym2612"
    },
    {
      "channel": 2,
      "note": 52,
      "start": 32.0399,
      "duration": 0.016,
      "velocity": 100,
      "chip": "ym2612"
    },
    {
      "channel": 0,
      "note": 45,
      "start": 32.0525,
      "duration": 0.0161,
      "velocity": 115,
      "chip": "ym2612"
    },
    {
      "channel": 4,
      "note": 78,
      "start": 32.0536,
      "duration": 0.0162,
      "velocity": 97,
      "chip": "ym2612"
    },
    {
      "channel": 3,
      "note": 78,
      "start": 32.0548,
      "duration": 0.0162,
      "velocity": 97,
      "chip": "ym2612"
    },
    {
      "channel": 2,
      "note": 52,
      "start": 32.0559,
      "duration": 0.0162,
      "velocity": 100,
      "chip": "ym2612"
    },
    {
      "channel": 0,
      "note": 45,
      "start": 32.0686,
      "duration": 0.0161,
      "velocity": 115,
      "chip": "ym2612"
    },
    {
      "channel": 4,
      "note": 78,
      "start": 32.0698,
      "duration": 0.016,
      "velocity": 97,
      "chip": "ym2612"
    },
    {
      "channel": 3,
      "note": 78,
      "start": 32.071,
      "duration": 0.016,
      "velocity": 97,
      "chip": "ym2612"
    },
    {
      "channel": 2,
      "note": 52,
      "start": 32.0721,
      "duration": 0.016,
      "velocity": 100,
      "chip": "ym2612"
    },
    {
      "channel": 0,
      "note": 46,
      "start": 32.0847,
      "duration": 0.0161,
      "velocity": 115,
      "chip": "ym2612"
    },
    {
      "channel": 4,
      "note": 78,
      "start": 32.0859,
      "duration": 0.016,
      "velocity": 97,
      "chip": "ym2612"
    },
    {
      "channel": 3,
      "note": 78,
      "start": 32.087,
      "duration": 0.016,
      "velocity": 97,
      "chip": "ym2612"
    },
    {
      "channel": 2,
      "note": 52,
      "start": 32.0882,
      "duration": 0.016,
      "velocity": 100,
      "chip": "ym2612"
    },
    {
      "channel": 0,
      "note": 46,
      "start": 32.1008,
      "duration": 0.0179,
      "velocity": 124,
      "chip": "ym2612"
    },
    {
      "channel": 4,
      "note": 78,
      "start": 32.1019,
      "duration": 0.0179,
      "velocity": 97,
      "chip": "ym2612"
    },
    {
      "channel": 3,
      "note": 78,
      "start": 32.1031,
      "duration": 0.0181,
      "velocity": 97,
      "chip": "ym2612"
    },
    {
      "channel": 2,
      "note": 52,
      "start": 32.1042,
      "duration": 0.0185,
      "velocity": 100,
      "chip": "ym2612"
    },
    {
      "channel": 0,
      "note": 84,
      "start": 32.1187,
      "duration": 0.0144,
      "velocity": 124,
      "chip": "ym2612"
    },
    {
      "channel": 4,
      "note": 78,
      "start": 32.1198,
      "duration": 0.0144,
      "velocity": 97,
      "chip": "ym2612"
    },
    {
      "channel": 3,
      "note": 74,
      "start": 32.1212,
      "duration": 0.0141,
      "velocity": 97,
      "chip": "ym2612"
    },
    {
      "channel": 2,
      "note": 52,
      "start": 32.1227,
      "duration": 0.0139,
      "velocity": 100,
      "chip": "ym2612"
    },
    {
      "channel": 0,
      "note": 82,
      "start": 32.1331,
      "duration": 0.016,
      "velocity": 124,
      "chip": "ym2612"
    },
    {
      "channel": 4,
      "note": 78,
      "start": 32.1342,
      "duration": 0.016,
      "velocity": 97,
      "chip": "ym2612"
    },
    {
      "channel": 3,
      "note": 74,
      "start": 32.1354,
      "duration": 0.016,
      "velocity": 97,
      "chip": "ym2612"
    },
    {
      "channel": 2,
      "note": 52,
      "start": 32.1366,
      "duration": 0.016,
      "velocity": 100,
      "chip": "ym2612"
    },
    {
      "channel": 0,
      "note": 80,
      "start": 32.1491,
      "duration": 0.0163,
      "velocity": 124,
      "chip": "ym2612"
    },
    {
      "channel": 4,
      "note": 78,
      "start": 32.1502,
      "duration": 0.0165,
      "velocity": 97,
      "chip": "ym2612"
    },
    {
      "channel": 3,
      "note": 74,
      "start": 32.1514,
      "duration": 0.0165,
      "velocity": 97,
      "chip": "ym2612"
    },
    {
      "channel": 2,
      "note": 52,
      "start": 32.1525,
      "duration": 0.0166,
      "velocity": 100,
      "chip": "ym2612"
    },
    {
      "channel": 0,
      "note": 77,
      "start": 32.1654,
      "duration": 0.0167,
      "velocity": 124,
      "chip": "ym2612"
    },
    {
      "channel": 4,
      "note": 74,
      "start": 32.1668,
      "duration": 0.0165,
      "velocity": 97,
      "chip": "ym2612"
    },
    {
      "channel": 3,
      "note": 74,
      "start": 32.1679,
      "duration": 0.0165,
      "velocity": 97,
      "chip": "ym2612"
    },
    {
      "channel": 2,
      "note": 52,
      "start": 32.1691,
      "duration": 0.0165,
      "velocity": 100,
      "chip": "ym2612"
    },
    {
      "channel": 0,
      "note": 75,
      "start": 32.1821,
      "duration": 0.0163,
      "velocity": 124,
      "chip": "ym2612"
    },
    {
      "channel": 4,
      "note": 74,
      "start": 32.1833,
      "duration": 0.0162,
      "velocity": 97,
      "chip": "ym2612"
    },
    {
      "channel": 3,
      "note": 74,
      "start": 32.1844,
      "duration": 0.0162,
      "velocity": 97,
      "chip": "ym2612"
    },
    {
      "channel": 2,
      "note": 52,
      "start": 32.1856,
      "duration": 0.0162,
      "velocity": 100,
      "chip": "ym2612"
    },
    {
      "channel": 0,
      "note": 72,
      "start": 32.1983,
      "duration": 0.0151,
      "velocity": 124,
      "chip": "ym2612"
    },
    {
      "channel": 4,
      "note": 74,
      "start": 32.1995,
      "duration": 0.0152,
      "velocity": 97,
      "chip": "ym2612"
    },
    {
      "channel": 3,
      "note": 74,
      "start": 32.2006,
      "duration": 0.0154,
      "velocity": 97,
      "chip": "ym2612"
    },
    {
      "channel": 2,
      "note": 52,
      "start": 32.2018,
      "duration": 0.0154,
      "velocity": 100,
      "chip": "ym2612"
    },
    {
      "channel": 0,
      "note": 70,
      "start": 32.2135,
      "duration": 0.0186,
      "velocity": 124,
      "chip": "ym2612"
    },
    {
      "channel": 4,
      "note": 74,
      "start": 32.2147,
      "duration": 0.0185,
      "velocity": 97,
      "chip": "ym2612"
    },
    {
      "channel": 3,
      "note": 78,
      "start": 32.2161,
      "duration": 0.0183,
      "velocity": 97,
      "chip": "ym2612"
    },
    {
      "channel": 2,
      "note": 52,
      "start": 32.2172,
      "duration": 0.0183,
      "velocity": 100,
      "chip": "ym2612"
    },
    {
      "channel": 0,
      "note": 68,
      "start": 32.2321,
      "duration": 0.0164,
      "velocity": 124,
      "chip": "ym2612"
    },
    {
      "channel": 4,
      "note": 74,
      "start": 32.2332,
      "duration": 0.0164,
      "velocity": 97,
      "chip": "ym2612"
    },
    {
      "channel": 3,
      "note": 78,
      "start": 32.2344,
      "duration": 0.0163,
      "velocity": 97,
      "chip": "ym2612"
    },
    {
      "channel": 2,
      "note": 52,
      "start": 32.2355,
      "duration": 0.0163,
      "velocity": 100,
      "chip": "ym2612"
    },
    {
      "channel": 0,
      "note": 65,
      "start": 32.2485,
      "duration": 0.0157,
      "velocity": 124,
      "chip": "ym2612"
    },
    {
      "channel": 4,
      "note": 74,
      "start": 32.2496,
      "duration": 0.016,
      "velocity": 97,
      "chip": "ym2612"
    },
    {
      "channel": 3,
      "note": 78,
      "start": 32.2508,
      "duration": 0.016,
      "velocity": 97,
      "chip": "ym2612"
    },
    {
      "channel": 2,
      "note": 52,
      "start": 32.2518,
      "duration": 0.016,
      "velocity": 100,
      "chip": "ym2612"
    },
    {
      "channel": 0,
      "note": 63,
      "start": 32.2642,
      "duration": 0.0129,
      "velocity": 1,
      "chip": "ym2612"
    },
    {
      "channel": 4,
      "note": 78,
      "start": 32.2656,
      "duration": 0.013,
      "velocity": 97,
      "chip": "ym2612"
    },
    {
      "channel": 3,
      "note": 78,
      "start": 32.2667,
      "duration": 0.013,
      "velocity": 97,
      "chip": "ym2612"
    },
    {
      "channel": 2,
      "note": 52,
      "start": 32.2679,
      "duration": 0.013,
      "velocity": 100,
      "chip": "ym2612"
    },
    {
      "channel": 4,
      "note": 78,
      "start": 32.2786,
      "duration": 0.0149,
      "velocity": 97,
      "chip": "ym2612"
    },
    {
      "channel": 3,
      "note": 78,
      "start": 32.2798,
      "duration": 0.0176,
      "velocity": 97,
      "chip": "ym2612"
    },
    {
      "channel": 2,
      "note": 52,
      "start": 32.2809,
      "duration": 0.0176,
      "velocity": 100,
      "chip": "ym2612"
    },
    {
      "channel": 4,
      "note": 78,
      "start": 32.2935,
      "duration": 0.0161,
      "velocity": 97,
      "chip": "ym2612"
    },
    {
      "channel": 3,
      "note": 78,
      "start": 32.2974,
      "duration": 0.0163,
      "velocity": 97,
      "chip": "ym2612"
    },
    {
      "channel": 2,
      "note": 52,
      "start": 32.2985,
      "duration": 0.0166,
      "velocity": 100,
      "chip": "ym2612"
    },
    {
      "channel": 4,
      "note": 78,
      "start": 32.3096,
      "duration": 0.0161,
      "velocity": 97,
      "chip": "ym2612"
    },
    {
      "channel": 3,
      "note": 80,
      "start": 32.3137,
      "duration": 0.0132,
      "velocity": 97,
      "chip": "ym2612"
    },
    {
      "channel": 2,
      "note": 52,
      "start": 32.3152,
      "duration": 0.0153,
      "velocity": 100,
      "chip": "ym2612"
    },
    {
      "channel": 4,
      "note": 78,
      "start": 32.3257,
      "duration": 0.0161,
      "velocity": 97,
      "chip": "ym2612"
    },
    {
      "channel": 3,
      "note": 80,
      "start": 32.3269,
      "duration": 0.016,
      "velocity": 97,
      "chip": "ym2612"
    },
    {
      "channel": 2,
      "note": 52,
      "start": 32.3305,
      "duration": 0.0139,
      "velocity": 100,
      "chip": "ym2612"
    },
    {
      "channel": 4,
      "note": 78,
      "start": 32.3418,
      "duration": 0.0163,
      "velocity": 97,
      "chip": "ym2612"
    },
    {
      "channel": 3,
      "note": 80,
      "start": 32.3429,
      "duration": 0.0163,
      "velocity": 97,
      "chip": "ym2612"
    },
    {
      "channel": 2,
      "note": 52,
      "start": 32.3444,
      "duration": 0.016,
      "velocity": 100,
      "chip": "ym2612"
    },
    {
      "channel": 4,
      "note": 80,
      "start": 32.3581,
      "duration": 0.0159,
      "velocity": 97,
      "chip": "ym2612"
    },
    {
      "channel": 3,
      "note": 80,
      "start": 32.3593,
      "duration": 0.0159,
      "velocity": 97,
      "chip": "ym2612"
    },
    {
      "channel": 2,
      "note": 52,
      "start": 32.3604,
      "duration": 0.0159,
      "velocity": 100,
      "chip": "ym2612"
    },
    {
      "channel": 4,
      "note": 80,
      "start": 32.374,
      "duration": 0.0161,
      "velocity": 97,
      "chip": "ym2612"
    },
    {
      "channel": 3,
      "note": 80,
      "start": 32.3752,
      "duration": 0.0161,
      "velocity": 97,
      "chip": "ym2612"
    },
    {
      "channel": 2,
      "note": 52,
      "start": 32.3763,
      "duration": 0.016,
      "velocity": 100,
      "chip": "ym2612"
    },
    {
      "channel": 4,
      "note": 80,
      "start": 32.3901,
      "duration": 0.0161,
      "velocity": 97,
      "chip": "ym2612"
    },
    {
      "channel": 3,
      "note": 80,
      "start": 32.3913,
      "duration": 0.0162,
      "velocity": 97,
      "chip": "ym2612"
    },
    {
      "channel": 2,
      "note": 52,
      "start": 32.3924,
      "duration": 0.0162,
      "velocity": 100,
      "chip": "ym2612"
    },
    {
      "channel": 4,
      "note": 80,
      "start": 32.4062,
      "duration": 0.0161,
      "velocity": 97,
      "chip": "ym2612"
    },
    {
      "channel": 3,
      "note": 80,
      "start": 32.4075,
      "duration": 0.016,
      "velocity": 97,
      "chip": "ym2612"
    },
    {
      "channel": 2,
      "note": 52,
      "start": 32.4086,
      "duration": 0.016,
      "velocity": 100,
      "chip": "ym2612"
    },
    {
      "channel": 4,
      "note": 80,
      "start": 32.4223,
      "duration": 0.0161,
      "velocity": 97,
      "chip": "ym2612"
    },
    {
      "channel": 3,
      "note": 80,
      "start": 32.4235,
      "duration": 0.0161,
      "velocity": 97,
      "chip": "ym2612"
    },
    {
      "channel": 2,
      "note": 52,
      "start": 32.4246,
      "duration": 0.016,
      "velocity": 100,
      "chip": "ym2612"
    },
    {
      "channel": 4,
      "note": 80,
      "start": 32.4384,
      "duration": 0.0162,
      "velocity": 97,
      "chip": "ym2612"
    },
    {
      "channel": 3,
      "note": 80,
      "start": 32.4396,
      "duration": 0.0162,
      "velocity": 97,
      "chip": "ym2612"
    },
    {
      "channel": 2,
      "note": 52,
      "start": 32.4407,
      "duration": 0.0162,
      "velocity": 100,
      "chip": "ym2612"
    },
    {
      "channel": 4,
      "note": 80,
      "start": 32.4546,
      "duration": 0.016,
      "velocity": 97,
      "chip": "ym2612"
    },
    {
      "channel": 3,
      "note": 80,
      "start": 32.4558,
      "duration": 0.016,
      "velocity": 97,
      "chip": "ym2612"
    },
    {
      "channel": 2,
      "note": 52,
      "start": 32.4569,
      "duration": 0.016,
      "velocity": 100,
      "chip": "ym2612"
    },
    {
      "channel": 4,
      "note": 80,
      "start": 32.4707,
      "duration": 0.016,
      "velocity": 97,
      "chip": "ym2612"
    },
    {
      "channel": 3,
      "note": 80,
      "start": 32.4718,
      "duration": 0.016,
      "velocity": 97,
      "chip": "ym2612"
    },
    {
      "channel": 2,
      "note": 52,
      "start": 32.4729,
      "duration": 0.0161,
      "velocity": 100,
      "chip": "ym2612"
    },
    {
      "channel": 4,
      "note": 80,
      "start": 32.4867,
      "duration": 0.0195,
      "velocity": 97,
      "chip": "ym2612"
    },
    {
      "channel": 3,
      "note": 80,
      "start": 32.4878,
      "duration": 0.0198,
      "velocity": 97,
      "chip": "ym2612"
    },
    {
      "channel": 2,
      "note": 52,
      "start": 32.489,
      "duration": 0.0201,
      "velocity": 100,
      "chip": "ym2612"
    },
    {
      "channel": 0,
      "note": 36,
      "start": 32.5051,
      "duration": 0.0144,
      "velocity": 115,
      "chip": "ym2612"
    },
    {
      "channel": 4,
      "note": 80,
      "start": 32.5062,
      "duration": 0.0144,
      "velocity": 97,
      "chip": "ym2612"
    },
    {
      "channel": 3,
      "note": 80,
      "start": 32.5076,
      "duration": 0.0142,
      "velocity": 97,
      "chip": "ym2612"
    },
    {
      "channel": 2,
      "note": 52,
      "start": 32.5091,
      "duration": 0.0139,
      "velocity": 100,
      "chip": "ym2612"
    },
    {
      "channel": 0,
      "note": 36,
      "start": 32.5195,
      "duration": 0.016,
      "velocity": 115,
      "chip": "ym2612"
    },
    {
      "channel": 4,
      "note": 80,
      "start": 32.5206,
      "duration": 0.016,
      "velocity": 97,
      "chip": "ym2612"
    },
    {
      "channel": 3,
      "note": 80,
      "start": 32.5218,
      "duration": 0.016,
      "velocity": 97,
      "chip": "ym2612"
    },
    {
      "channel": 2,
      "note": 52,
      "start": 32.523,
      "duration": 0.0159,
      "velocity": 100,
      "chip": "ym2612"
    },
    {
      "channel": 0,
      "note": 37,
      "start": 32.5355,
      "duration": 0.0161,
      "velocity": 115,
      "chip": "ym2612"
    },
    {
      "channel": 4,
      "note": 80,
      "start": 32.5366,
      "duration": 0.0163,
      "velocity": 97,
      "chip": "ym2612"
    },
    {
      "channel": 3,
      "note": 80,
      "start": 32.5378,
      "duration": 0.0164,
      "velocity": 97,
      "chip": "ym2612"
    },
    {
      "channel": 2,
      "note": 52,
      "start": 32.5389,
      "duration": 0.0163,
      "velocity": 100,
      "chip": "ym2612"
    },
    {
      "channel": 0,
      "note": 37,
      "start": 32.5516,
      "duration": 0.0162,
      "velocity": 115,
      "chip": "ym2612"
    },
    {
      "channel": 4,
      "note": 80,
      "start": 32.5531,
      "duration": 0.0159,
      "velocity": 97,
      "chip": "ym2612"
    },
    {
      "channel": 3,
      "note": 80,
      "start": 32.5542,
      "duration": 0.0159,
      "velocity": 97,
      "chip": "ym2612"
    },
    {
      "channel": 2,
      "note": 52,
      "start": 32.5553,
      "duration": 0.0159,
      "velocity": 100,
      "chip": "ym2612"
    },
    {
      "channel": 0,
      "note": 38,
      "start": 32.5678,
      "duration": 0.0161,
      "velocity": 115,
      "chip": "ym2612"
    },
    {
      "channel": 4,
      "note": 80,
      "start": 32.569,
      "duration": 0.016,
      "velocity": 97,
      "chip": "ym2612"
    },
    {
      "channel": 3,
      "note": 80,
      "start": 32.5701,
      "duration": 0.016,
      "velocity": 97,
      "chip": "ym2612"
    },
    {
      "channel": 2,
      "note": 52,
      "start": 32.5712,
      "duration": 0.016,
      "velocity": 100,
      "chip": "ym2612"
    },
    {
      "channel": 0,
      "note": 38,
      "start": 32.5838,
      "duration": 0.0161,
      "velocity": 115,
      "chip": "ym2612"
    },
    {
      "channel": 4,
      "note": 80,
      "start": 32.585,
      "duration": 0.0161,
      "velocity": 97,
      "chip": "ym2612"
    },
    {
      "channel": 3,
      "note": 80,
      "start": 32.5861,
      "duration": 0.0163,
      "velocity": 97,
      "chip": "ym2612"
    },
    {
      "channel": 2,
      "note": 52,
      "start": 32.5872,
      "duration": 0.0164,
      "velocity": 100,
      "chip": "ym2612"
    },
    {
      "channel": 0,
      "note": 39,
      "start": 32.5999,
      "duration": 0.0161,
      "velocity": 115,
      "chip": "ym2612"
    },
    {
      "channel": 4,
      "note": 80,
      "start": 32.6011,
      "duration": 0.0161,
      "velocity": 97,
      "chip": "ym2612"
    },
    {
      "channel": 3,
      "note": 80,
      "start": 32.6025,
      "duration": 0.0159,
      "velocity": 97,
      "chip": "ym2612"
    },
    {
      "channel": 2,
      "note": 52,
      "start": 32.6036,
      "duration": 0.0159,
      "velocity": 100,
      "chip": "ym2612"
    },
    {
      "channel": 0,
      "note": 39,
      "start": 32.616,
      "duration": 0.0161,
      "velocity": 115,
      "chip": "ym2612"
    },
    {
      "channel": 4,
      "note": 80,
      "start": 32.6172,
      "duration": 0.0161,
      "velocity": 97,
      "chip": "ym2612"
    },
    {
      "channel": 3,
      "note": 80,
      "start": 32.6184,
      "duration": 0.016,
      "velocity": 97,
      "chip": "ym2612"
    },
    {
      "channel": 2,
      "note": 52,
      "start": 32.6195,
      "duration": 0.016,
      "velocity": 100,
      "chip": "ym2612"
    },
    {
      "channel": 0,
      "note": 40,
      "start": 32.6321,
      "duration": 0.0166,
      "velocity": 115,
      "chip": "ym2612"
    },
    {
      "channel": 4,
      "note": 80,
      "start": 32.6333,
      "duration": 0.0168,
      "velocity": 97,
      "chip": "ym2612"
    },
    {
      "channel": 3,
      "note": 80,
      "start": 32.6344,
      "duration": 0.0168,
      "velocity": 97,
      "chip": "ym2612"
    },
    {
      "channel": 2,
      "note": 52,
      "start": 32.6356,
      "duration": 0.0169,
      "velocity": 100,
      "chip": "ym2612"
    },
    {
      "channel": 0,
      "note": 40,
      "start": 32.6487,
      "duration": 0.0163,
      "velocity": 115,
      "chip": "ym2612"
    },
    {
      "channel": 4,
      "note": 80,
      "start": 32.6501,
      "duration": 0.0161,
      "velocity": 97,
      "chip": "ym2612"
    },
    {
      "channel": 3,
      "note": 80,
      "start": 32.6513,
      "duration": 0.0161,
      "velocity": 97,
      "chip": "ym2612"
    },
    {
      "channel": 2,
      "note": 52,
      "start": 32.6524,
      "duration": 0.0161,
      "velocity": 100,
      "chip": "ym2612"
    },
    {
      "channel": 0,
      "note": 40,
      "start": 32.665,
      "duration": 0.0154,
      "velocity": 115,
      "chip": "ym2612"
    },
    {
      "channel": 4,
      "note": 80,
      "start": 32.6662,
      "duration": 0.0154,
      "velocity": 97,
      "chip": "ym2612"
    },
    {
      "channel": 3,
      "note": 80,
      "start": 32.6674,
      "duration": 0.0153,
      "velocity": 97,
      "chip": "ym2612"
    },
    {
      "channel": 2,
      "note": 52,
      "start": 32.6685,
      "duration": 0.0153,
      "velocity": 100,
      "chip": "ym2612"
    },
    {
      "channel": 0,
      "note": 41,
      "start": 32.6804,
      "duration": 0.0183,
      "velocity": 115,
      "chip": "ym2612"
    },
    {
      "channel": 4,
      "note": 80,
      "start": 32.6816,
      "duration": 0.0183,
      "velocity": 97,
      "chip": "ym2612"
    },
    {
      "channel": 3,
      "note": 80,
      "start": 32.6827,
      "duration": 0.0185,
      "velocity": 97,
      "chip": "ym2612"
    },
    {
      "channel": 2,
      "note": 52,
      "start": 32.6838,
      "duration": 0.0188,
      "velocity": 100,
      "chip": "ym2612"
    },
    {
      "channel": 0,
      "note": 41,
      "start": 32.6987,
      "duration": 0.0167,
      "velocity": 115,
      "chip": "ym2612"
    },
    {
      "channel": 4,
      "note": 80,
      "start": 32.6999,
      "duration": 0.0167,
      "velocity": 97,
      "chip": "ym2612"
    },
    {
      "channel": 3,
      "note": 76,
      "start": 32.7013,
      "duration": 0.0165,
      "velocity": 97,
      "chip": "ym2612"
    },
    {
      "channel": 2,
      "note": 52,
      "start": 32.7027,
      "duration": 0.0161,
      "velocity": 100,
      "chip": "ym2612"
    },
    {
      "channel": 0,
      "note": 42,
      "start": 32.7154,
      "duration": 0.0157,
      "velocity": 115,
      "chip": "ym2612"
    },
    {
      "channel": 4,
      "note": 80,
      "start": 32.7165,
      "duration": 0.0157,
      "velocity": 97,
      "chip": "ym2612"
    },
    {
      "channel": 3,
      "note": 76,
      "start": 32.7178,
      "duration": 0.0156,
      "velocity": 97,
      "chip": "ym2612"
    },
    {
      "channel": 2,
      "note": 52,
      "start": 32.7189,
      "duration": 0.0156,
      "velocity": 100,
      "chip": "ym2612"
    },
    {
      "channel": 0,
      "note": 42,
      "start": 32.7311,
      "duration": 0.0141,
      "velocity": 115,
      "chip": "ym2612"
    },
    {
      "channel": 4,
      "note": 80,
      "start": 32.7322,
      "duration": 0.0143,
      "velocity": 97,
      "chip": "ym2612"
    },
    {
      "channel": 3,
      "note": 76,
      "start": 32.7334,
      "duration": 0.0143,
      "velocity": 97,
      "chip": "ym2612"
    },
    {
      "channel": 2,
      "note": 52,
      "start": 32.7345,
      "duration": 0.0143,
      "velocity": 100,
      "chip": "ym2612"
    },
    {
      "channel": 0,
      "note": 43,
      "start": 32.7452,
      "duration": 0.0185,
      "velocity": 115,
      "chip": "ym2612"
    },
    {
      "channel": 4,
      "note": 76,
      "start": 32.7466,
      "duration": 0.0183,
      "velocity": 97,
      "chip": "ym2612"
    },
    {
      "channel": 3,
      "note": 76,
      "start": 32.7477,
      "duration": 0.0183,
      "velocity": 97,
      "chip": "ym2612"
    },
    {
      "channel": 2,
      "note": 52,
      "start": 32.7488,
      "duration": 0.0183,
      "velocity": 100,
      "chip": "ym2612"
    },
    {
      "channel": 0,
      "note": 43,
      "start": 32.7637,
      "duration": 0.0134,
      "velocity": 115,
      "chip": "ym2612"
    },
    {
      "channel": 4,
      "note": 76,
      "start": 32.7649,
      "duration": 0.016,
      "velocity": 97,
      "chip": "ym2612"
    },
    {
      "channel": 3,
      "note": 76,
      "start": 32.766,
      "duration": 0.016,
      "velocity": 97,
      "chip": "ym2612"
    },
    {
      "channel": 2,
      "note": 52,
      "start": 32.7672,
      "duration": 0.016,
      "velocity": 100,
      "chip": "ym2612"
    },
    {
      "channel": 0,
      "note": 44,
      "start": 32.777,
      "duration": 0.0161,
      "velocity": 115,
      "chip": "ym2612"
    },
    {
      "channel": 4,
      "note": 76,
      "start": 32.7809,
      "duration": 0.0158,
      "velocity": 97,
      "chip": "ym2612"
    },
    {
      "channel": 3,
      "note": 76,
      "start": 32.7821,
      "duration": 0.0159,
      "velocity": 97,
      "chip": "ym2612"
    },
    {
      "channel": 2,
      "note": 52,
      "start": 32.7832,
      "duration": 0.0159,
      "velocity": 100,
      "chip": "ym2612"
    },
    {
      "channel": 0,
      "note": 44,
      "start": 32.7931,
      "duration": 0.0161,
      "velocity": 115,
      "chip": "ym2612"
    },
    {
      "channel": 4,
      "note": 76,
      "start": 32.7967,
      "duration": 0.0137,
      "velocity": 97,
      "chip": "ym2612"
    },
    {
      "channel": 3,
      "note": 76,
      "start": 32.798,
      "duration": 0.0139,
      "velocity": 97,
      "chip": "ym2612"
    },
    {
      "channel": 2,
      "note": 52,
      "start": 32.799,
      "duration": 0.014,
      "velocity": 100,
      "chip": "ym2612"
    },
    {
      "channel": 0,
      "note": 44,
      "start": 32.8092,
      "duration": 0.0161,
      "velocity": 115,
      "chip": "ym2612"
    },
    {
      "channel": 4,
      "note": 76,
      "start": 32.8104,
      "duration": 0.0162,
      "velocity": 97,
      "chip": "ym2612"
    },
    {
      "channel": 3,
      "note": 76,
      "start": 32.8119,
      "duration": 0.0185,
      "velocity": 97,
      "chip": "ym2612"
    },
    {
      "channel": 2,
      "note": 52,
      "start": 32.813,
      "duration": 0.0185,
      "velocity": 100,
      "chip": "ym2612"
    },
    {
      "channel": 0,
      "note": 45,
      "start": 32.8253,
      "duration": 0.0161,
      "velocity": 115,
      "chip": "ym2612"
    },
    {
      "channel": 4,
      "note": 76,
      "start": 32.8265,
      "duration": 0.0162,
      "velocity": 97,
      "chip": "ym2612"
    },
    {
      "channel": 3,
      "note": 76,
      "start": 32.8304,
      "duration": 0.0134,
      "velocity": 97,
      "chip": "ym2612"
    },
    {
      "channel": 2,
      "note": 52,
      "start": 32.8315,
      "duration": 0.0162,
      "velocity": 100,
      "chip": "ym2612"
    },
    {
      "channel": 0,
      "note": 45,
      "start": 32.8414,
      "duration": 0.0162,
      "velocity": 115,
      "chip": "ym2612"
    },
    {
      "channel": 4,
      "note": 76,
      "start": 32.8427,
      "duration": 0.016,
      "velocity": 97,
      "chip": "ym2612"
    },
    {
      "channel": 3,
      "note": 76,
      "start": 32.8438,
      "duration": 0.016,
      "velocity": 97,
      "chip": "ym2612"
    },
    {
      "channel": 2,
      "note": 52,
      "start": 32.8477,
      "duration": 0.0157,
      "velocity": 100,
      "chip": "ym2612"
    },
    {
      "channel": 0,
      "note": 46,
      "start": 32.8576,
      "duration": 0.0161,
      "velocity": 115,
      "chip": "ym2612"
    },
    {
      "channel": 4,
      "note": 76,
      "start": 32.8588,
      "duration": 0.016,
      "velocity": 97,
      "chip": "ym2612"
    },
    {
      "channel": 3,
      "note": 76,
      "start": 32.8599,
      "duration": 0.016,
      "velocity": 97,
      "chip": "ym2612"
    },
    {
      "channel": 2,
      "note": 52,
      "start": 32.8634,
      "duration": 0.0136,
      "velocity": 100,
      "chip": "ym2612"
    },
    {
      "channel": 0,
      "note": 46,
      "start": 32.8737,
      "duration": 0.0178,
      "velocity": 124,
      "chip": "ym2612"
    },
    {
      "channel": 4,
      "note": 76,
      "start": 32.8748,
      "duration": 0.0179,
      "velocity": 97,
      "chip": "ym2612"
    },
    {
      "channel": 3,
      "note": 76,
      "start": 32.8759,
      "duration": 0.0209,
      "velocity": 97,
      "chip": "ym2612"
    },
    {
      "channel": 2,
      "note": 52,
      "start": 32.877,
      "duration": 0.0212,
      "velocity": 100,
      "chip": "ym2612"
    },
    {
      "channel": 0,
      "note": 84,
      "start": 32.8915,
      "duration": 0.0144,
      "velocity": 124,
      "chip": "ym2612"
    },
    {
      "channel": 4,
      "note": 76,
      "start": 32.8927,
      "duration": 0.0144,
      "velocity": 97,
      "chip": "ym2612"
    },
    {
      "channel": 3,
      "note": 80,
      "start": 32.8968,
      "duration": 0.0114,
      "velocity": 97,
      "chip": "ym2612"
    },
    {
      "channel": 2,
      "note": 52,
      "start": 32.8983,
      "duration": 0.0111,
      "velocity": 100,
      "chip": "ym2612"
    },
    {
      "channel": 0,
      "note": 82,
      "start": 32.9059,
      "duration": 0.016,
      "velocity": 124,
      "chip": "ym2612"
    },
    {
      "channel": 4,
      "note": 76,
      "start": 32.9071,
      "duration": 0.016,
      "velocity": 97,
      "chip": "ym2612"
    },
    {
      "channel": 3,
      "note": 80,
      "start": 32.9082,
      "duration": 0.016,
      "velocity": 97,
      "chip": "ym2612"
    },
    {
      "channel": 2,
      "note": 52,
      "start": 32.9094,
      "duration": 0.016,
      "velocity": 100,
      "chip": "ym2612"
    },
    {
      "channel": 0,
      "note": 80,
      "start": 32.922,
      "duration": 0.0161,
      "velocity": 124,
      "chip": "ym2612"
    },
    {
      "channel": 4,
      "note": 76,
      "start": 32.9231,
      "duration": 0.0163,
      "velocity": 97,
      "chip": "ym2612"
    },
    {
      "channel": 3,
      "note": 80,
      "start": 32.9242,
      "duration": 0.0163,
      "velocity": 97,
      "chip": "ym2612"
    },
    {
      "channel": 2,
      "note": 52,
      "start": 32.9254,
      "duration": 0.0163,
      "velocity": 100,
      "chip": "ym2612"
    },
    {
      "channel": 0,
      "note": 77,
      "start": 32.938,
      "duration": 0.0161,
      "velocity": 124,
      "chip": "ym2612"
    },
    {
      "channel": 4,
      "note": 80,
      "start": 32.9394,
      "duration": 0.0159,
      "velocity": 97,
      "chip": "ym2612"
    },
    {
      "channel": 3,
      "note": 80,
      "start": 32.9406,
      "duration": 0.0159,
      "velocity": 97,
      "chip": "ym2612"
    },
    {
      "channel": 2,
      "note": 52,
      "start": 32.9417,
      "duration": 0.0159,
      "velocity": 100,
      "chip": "ym2612"
    },
    {
      "channel": 0,
      "note": 75,
      "start": 32.9541,
      "duration": 0.0161,
      "velocity": 124,
      "chip": "ym2612"
    },
    {
      "channel": 4,
      "note": 80,
      "start": 32.9554,
      "duration": 0.0161,
      "velocity": 97,
      "chip": "ym2612"
    },
    {
      "channel": 3,
      "note": 80,
      "start": 32.9565,
      "duration": 0.016,
      "velocity": 97,
      "chip": "ym2612"
    },
    {
      "channel": 2,
      "note": 52,
      "start": 32.9576,
      "duration": 0.016,
      "velocity": 100,
      "chip": "ym2612"
    },
    {
      "channel": 0,
      "note": 72,
      "start": 32.9702,
      "duration": 0.0161,
      "velocity": 124,
      "chip": "ym2612"
    },
    {
      "channel": 4,
      "note": 80,
      "start": 32.9714,
      "duration": 0.0161,
      "velocity": 97,
      "chip": "ym2612"
    },
    {
      "channel": 3,
      "note": 80,
      "start": 32.9725,
      "duration": 0.0163,
      "velocity": 97,
      "chip": "ym2612"
    },
    {
      "channel": 2,
      "note": 52,
      "start": 32.9737,
      "duration": 0.0163,
      "velocity": 100,
      "chip": "ym2612"
    },
    {
      "channel": 0,
      "note": 70,
      "start": 32.9863,
      "duration": 0.0161,
      "velocity": 124,
      "chip": "ym2612"
    },
    {
      "channel": 4,
      "note": 80,
      "start": 32.9875,
      "duration": 0.0161,
      "velocity": 97,
      "chip": "ym2612"
    },
    {
      "channel": 3,
      "note": 76,
      "start": 32.9889,
      "duration": 0.0159,
      "velocity": 97,
      "chip": "ym2612"
    },
    {
      "channel": 2,
      "note": 52,
      "start": 32.99,
      "duration": 0.0159,
      "velocity": 100,
      "chip": "ym2612"
    },
    {
      "channel": 0,
      "note": 68,
      "start": 33.0025,
      "duration": 0.0161,
      "velocity": 124,
      "chip": "ym2612"
    },
    {
      "channel": 4,
      "note": 80,
      "start": 33.0036,
      "duration": 0.0161,
      "velocity": 97,
      "chip": "ym2612"
    },
    {
      "channel": 3,
      "note": 76,
      "start": 33.0048,
      "duration": 0.016,
      "velocity": 97,
      "chip": "ym2612"
    },
    {
      "channel": 2,
      "note": 52,
      "start": 33.0059,
      "duration": 0.016,
      "velocity": 100,
      "chip": "ym2612"
    },
    {
      "channel": 0,
      "note": 65,
      "start": 33.0186,
      "duration": 0.0161,
      "velocity": 124,
      "chip": "ym2612"
    },
    {
      "channel": 4,
      "note": 80,
      "start": 33.0197,
      "duration": 0.0163,
      "velocity": 97,
      "chip": "ym2612"
    },
    {
      "channel": 3,
      "note": 76,
      "start": 33.0209,
      "duration": 0.0163,
      "velocity": 97,
      "chip": "ym2612"
    },
    {
      "channel": 2,
      "note": 52,
      "start": 33.022,
      "duration": 0.0164,
      "velocity": 100,
      "chip": "ym2612"
    },
    {
      "channel": 0,
      "note": 63,
      "start": 33.0347,
      "duration": 0.0153,
      "velocity": 1,
      "chip": "ym2612"
    },
    {
      "channel": 4,
      "note": 76,
      "start": 33.0361,
      "duration": 0.0151,
      "velocity": 97,
      "chip": "ym2612"
    },
    {
      "channel": 3,
      "note": 76,
      "start": 33.0372,
      "duration": 0.0151,
      "velocity": 97,
      "chip": "ym2612"
    },
    {
      "channel": 2,
      "note": 52,
      "start": 33.0384,
      "duration": 0.0151,
      "velocity": 100,
      "chip": "ym2612"
    },
    {
      "channel": 4,
      "note": 76,
      "start": 33.0511,
      "duration": 0.0152,
      "velocity": 97,
      "chip": "ym2612"
    },
    {
      "channel": 3,
      "note": 76,
      "start": 33.0523,
      "duration": 0.0152,
      "velocity": 97,
      "chip": "ym2612"
    },
    {
      "channel": 2,
      "note": 52,
      "start": 33.0534,
      "duration": 0.0152,
      "velocity": 100,
      "chip": "ym2612"
    },
    {
      "channel": 4,
      "note": 76,
      "start": 33.0663,
      "duration": 0.0196,
      "velocity": 97,
      "chip": "ym2612"
    },
    {
      "channel": 3,
      "note": 76,
      "start": 33.0675,
      "duration": 0.0198,
      "velocity": 97,
      "chip": "ym2612"
    },
    {
      "channel": 2,
      "note": 52,
      "start": 33.0686,
      "duration": 0.0201,
      "velocity": 100,
      "chip": "ym2612"
    },
    {
      "channel": 0,
      "note": 36,
      "start": 33.0847,
      "duration": 0.0144,
      "velocity": 115,
      "chip": "ym2612"
    },
    {
      "channel": 4,
      "note": 76,
      "start": 33.0859,
      "duration": 0.0143,
      "velocity": 97,
      "chip": "ym2612"
    },
    {
      "channel": 3,
      "note": 71,
      "start": 33.0873,
      "duration": 0.0141,
      "velocity": 97,
      "chip": "ym2612"
    },
    {
      "channel": 2,
      "note": 52,
      "start": 33.0887,
      "duration": 0.0139,
      "velocity": 100,
      "chip": "ym2612"
    },
    {
      "channel": 0,
      "note": 36,
      "start": 33.0991,
      "duration": 0.0163,
      "velocity": 115,
      "chip": "ym2612"
    },
    {
      "channel": 4,
      "note": 76,
      "start": 33.1002,
      "duration": 0.0163,
      "velocity": 97,
      "chip": "ym2612"
    },
    {
      "channel": 3,
      "note": 71,
      "start": 33.1015,
      "duration": 0.0162,
      "velocity": 97,
      "chip": "ym2612"
    },
    {
      "channel": 2,
      "note": 52,
      "start": 33.1027,
      "duration": 0.0161,
      "velocity": 100,
      "chip": "ym2612"
    },
    {
      "channel": 0,
      "note": 37,
      "start": 33.1154,
      "duration": 0.0163,
      "velocity": 115,
      "chip": "ym2612"
    },
    {
      "channel": 4,
      "note": 76,
      "start": 33.1165,
      "duration": 0.0166,
      "velocity": 97,
      "chip": "ym2612"
    },
    {
      "channel": 3,
      "note": 71,
      "start": 33.1177,
      "duration": 0.0165,
      "velocity": 97,
      "chip": "ym2612"
    },
    {
      "channel": 2,
      "note": 52,
      "start": 33.1188,
      "duration": 0.0166,
      "velocity": 100,
      "chip": "ym2612"
    },
    {
      "channel": 0,
      "note": 37,
      "start": 33.1317,
      "duration": 0.0157,
      "velocity": 115,
      "chip": "ym2612"
    },
    {
      "channel": 4,
      "note": 71,
      "start": 33.1331,
      "duration": 0.0155,
      "velocity": 97,
      "chip": "ym2612"
    },
    {
      "channel": 3,
      "note": 71,
      "start": 33.1342,
      "duration": 0.0155,
      "velocity": 97,
      "chip": "ym2612"
    },
    {
      "channel": 2,
      "note": 52,
      "start": 33.1354,
      "duration": 0.0154,
      "velocity": 100,
      "chip": "ym2612"
    },
    {
      "channel": 0,
      "note": 38,
      "start": 33.1474,
      "duration": 0.0179,
      "velocity": 115,
      "chip": "ym2612"
    },
    {
      "channel": 4,
      "note": 71,
      "start": 33.1486,
      "duration": 0.0179,
      "velocity": 97,
      "chip": "ym2612"
    },
    {
      "channel": 3,
      "note": 71,
      "start": 33.1498,
      "duration": 0.0179,
      "velocity": 97,
      "chip": "ym2612"
    },
    {
      "channel": 2,
      "note": 52,
      "start": 33.1508,
      "duration": 0.018,
      "velocity": 100,
      "chip": "ym2612"
    },
    {
      "channel": 0,
      "note": 38,
      "start": 33.1653,
      "duration": 0.0167,
      "velocity": 115,
      "chip": "ym2612"
    },
    {
      "channel": 4,
      "note": 71,
      "start": 33.1665,
      "duration": 0.0167,
      "velocity": 97,
      "chip": "ym2612"
    },
    {
      "channel": 3,
      "note": 71,
      "start": 33.1677,
      "duration": 0.0168,
      "velocity": 97,
      "chip": "ym2612"
    },
    {
      "channel": 2,
      "note": 52,
      "start": 33.1688,
      "duration": 0.0168,
      "velocity": 100,
      "chip": "ym2612"
    },
    {
      "channel": 0,
      "note": 39,
      "start": 33.1821,
      "duration": 0.016,
      "velocity": 115,
      "chip": "ym2612"
    },
    {
      "channel": 4,
      "note": 71,
      "start": 33.1832,
      "duration": 0.016,
      "velocity": 97,
      "chip": "ym2612"
    },
    {
      "channel": 3,
      "note": 71,
      "start": 33.1845,
      "duration": 0.0159,
      "velocity": 97,
      "chip": "ym2612"
    },
    {
      "channel": 2,
      "note": 52,
      "start": 33.1856,
      "duration": 0.016,
      "velocity": 100,
      "chip": "ym2612"
    },
    {
      "channel": 0,
      "note": 39,
      "start": 33.198,
      "duration": 0.0141,
      "velocity": 115,
      "chip": "ym2612"
    },
    {
      "channel": 4,
      "note": 71,
      "start": 33.1992,
      "duration": 0.014,
      "velocity": 97,
      "chip": "ym2612"
    },
    {
      "channel": 3,
      "note": 71,
      "start": 33.2004,
      "duration": 0.014,
      "velocity": 97,
      "chip": "ym2612"
    },
    {
      "channel": 2,
      "note": 52,
      "start": 33.2015,
      "duration": 0.014,
      "velocity": 100,
      "chip": "ym2612"
    },
    {
      "channel": 0,
      "note": 40,
      "start": 33.2121,
      "duration": 0.0185,
      "velocity": 115,
      "chip": "ym2612"
    },
    {
      "channel": 4,
      "note": 71,
      "start": 33.2132,
      "duration": 0.0186,
      "velocity": 97,
      "chip": "ym2612"
    },
    {
      "channel": 3,
      "note": 71,
      "start": 33.2144,
      "duration": 0.0186,
      "velocity": 97,
      "chip": "ym2612"
    },
    {
      "channel": 2,
      "note": 52,
      "start": 33.2155,
      "duration": 0.0186,
      "velocity": 100,
      "chip": "ym2612"
    },
    {
      "channel": 0,
      "note": 40,
      "start": 33.2306,
      "duration": 0.0134,
      "velocity": 115,
      "chip": "ym2612"
    },
    {
      "channel": 4,
      "note": 71,
      "start": 33.2319,
      "duration": 0.016,
      "velocity": 97,
      "chip": "ym2612"
    },
    {
      "channel": 3,
      "note": 71,
      "start": 33.233,
      "duration": 0.016,
      "velocity": 97,
      "chip": "ym2612"
    },
    {
      "channel": 2,
      "note": 52,
      "start": 33.2341,
      "duration": 0.016,
      "velocity": 100,
      "chip": "ym2612"
    },
    {
      "channel": 0,
      "note": 40,
      "start": 33.2439,
      "duration": 0.0161,
      "velocity": 115,
      "chip": "ym2612"
    },
    {
      "channel": 4,
      "note": 71,
      "start": 33.2479,
      "duration": 0.0157,
      "velocity": 97,
      "chip": "ym2612"
    },
    {
      "channel": 3,
      "note": 71,
      "start": 33.249,
      "duration": 0.0156,
      "velocity": 97,
      "chip": "ym2612"
    },
    {
      "channel": 2,
      "note": 52,
      "start": 33.2502,
      "duration": 0.0156,
      "velocity": 100,
      "chip": "ym2612"
    },
    {
      "channel": 0,
      "note": 41,
      "start": 33.26,
      "duration": 0.0182,
      "velocity": 115,
      "chip": "ym2612"
    },
    {
      "channel": 4,
      "note": 71,
      "start": 33.2636,
      "duration": 0.0159,
      "velocity": 97,
      "chip": "ym2612"
    },
    {
      "channel": 3,
      "note": 71,
      "start": 33.2647,
      "duration": 0.0161,
      "velocity": 97,
      "chip": "ym2612"
    },
    {
      "channel": 2,
      "note": 52,
      "start": 33.2658,
      "duration": 0.0164,
      "velocity": 100,
      "chip": "ym2612"
    },
    {
      "channel": 0,
      "note": 36,
      "start": 33.2783,
      "duration": 0.014,
      "velocity": 115,
      "chip": "ym2612"
    },
    {
      "channel": 4,
      "note": 71,
      "start": 33.2795,
      "duration": 0.014,
      "velocity": 97,
      "chip": "ym2612"
    },
    {
      "channel": 3,
      "note": 78,
      "start": 33.2809,
      "duration": 0.0165,
      "velocity": 97,
      "chip": "ym2612"
    },
    {
      "channel": 2,
      "note": 52,
      "start": 33.2822,
      "duration": 0.0163,
      "velocity": 100,
      "chip": "ym2612"
    },
    {
      "channel": 0,
      "note": 36,
      "start": 33.2923,
      "duration": 0.0161,
      "velocity": 115,
      "chip": "ym2612"
    },
    {
      "channel": 4,
      "note": 71,
      "start": 33.2934,
      "duration": 0.0161,
      "velocity": 97,
      "chip": "ym2612"
    },
    {
      "channel": 3,
      "note": 78,
      "start": 33.2974,
      "duration": 0.016,
      "velocity": 97,
      "chip": "ym2612"
    },
    {
      "channel": 2,
      "note": 52,
      "start": 33.2986,
      "duration": 0.0159,
      "velocity": 100,
      "chip": "ym2612"
    },
    {
      "channel": 0,
      "note": 37,
      "start": 33.3084,
      "duration": 0.0161,
      "velocity": 115,
      "chip": "ym2612"
    },
    {
      "channel": 4,
      "note": 71,
      "start": 33.3095,
      "duration": 0.0163,
      "velocity": 97,
      "chip": "ym2612"
    },
    {
      "channel": 3,
      "note": 78,
      "start": 33.3134,
      "duration": 0.0136,
      "velocity": 97,
      "chip": "ym2612"
    },
    {
      "channel": 2,
      "note": 52,
      "start": 33.3145,
      "duration": 0.016,
      "velocity": 100,
      "chip": "ym2612"
    },
    {
      "channel": 0,
      "note": 37,
      "start": 33.3245,
      "duration": 0.0161,
      "velocity": 115,
      "chip": "ym2612"
    },
    {
      "channel": 4,
      "note": 78,
      "start": 33.3259,
      "duration": 0.0159,
      "velocity": 97,
      "chip": "ym2612"
    },
    {
      "channel": 3,
      "note": 78,
      "start": 33.327,
      "duration": 0.0159,
      "velocity": 97,
      "chip": "ym2612"
    },
    {
      "channel": 2,
      "note": 52,
      "start": 33.3305,
      "duration": 0.0139,
      "velocity": 100,
      "chip": "ym2612"
    },
    {
      "channel": 0,
      "note": 38,
      "start": 33.3406,
      "duration": 0.0161,
      "velocity": 115,
      "chip": "ym2612"
    },
    {
      "channel": 4,
      "note": 78,
      "start": 33.3418,
      "duration": 0.016,
      "velocity": 97,
      "chip": "ym2612"
    },
    {
      "channel": 3,
      "note": 78,
      "start": 33.3429,
      "duration": 0.016,
      "velocity": 97,
      "chip": "ym2612"
    },
    {
      "channel": 2,
      "note": 52,
      "start": 33.3444,
      "duration": 0.0157,
      "velocity": 100,
      "chip": "ym2612"
    },
    {
      "channel": 0,
      "note": 38,
      "start": 33.3567,
      "duration": 0.0161,
      "velocity": 115,
      "chip": "ym2612"
    },
    {
      "channel": 4,
      "note": 78,
      "start": 33.3578,
      "duration": 0.0161,
      "velocity": 97,
      "chip": "ym2612"
    },
    {
      "channel": 3,
      "note": 78,
      "start": 33.359,
      "duration": 0.0163,
      "velocity": 97,
      "chip": "ym2612"
    },
    {
      "channel": 2,
      "note": 52,
      "start": 33.3601,
      "duration": 0.0163,
      "velocity": 100,
      "chip": "ym2612"
    },
    {
      "channel": 0,
      "note": 39,
      "start": 33.3728,
      "duration": 0.0161,
      "velocity": 115,
      "chip": "ym2612"
    },
    {
      "channel": 4,
      "note": 78,
      "start": 33.3739,
      "duration": 0.0161,
      "velocity": 97,
      "chip": "ym2612"
    },
    {
      "channel": 3,
      "note": 74,
      "start": 33.3753,
      "duration": 0.0159,
      "velocity": 97,
      "chip": "ym2612"
    },
    {
      "channel": 2,
      "note": 52,
      "start": 33.3765,
      "duration": 0.0159,
      "velocity": 100,
      "chip": "ym2612"
    },
    {
      "channel": 0,
      "note": 39,
      "start": 33.3889,
      "duration": 0.0161,
      "velocity": 115,
      "chip": "ym2612"
    },
    {
      "channel": 4,
      "note": 78,
      "start": 33.39,
      "duration": 0.0161,
      "velocity": 97,
      "chip": "ym2612"
    },
    {
      "channel": 3,
      "note": 74,
      "start": 33.3912,
      "duration": 0.016,
      "velocity": 97,
      "chip": "ym2612"
    },
    {
      "channel": 2,
      "note": 52,
      "start": 33.3924,
      "duration": 0.016,
      "velocity": 100,
      "chip": "ym2612"
    },
    {
      "channel": 0,
      "note": 40,
      "start": 33.405,
      "duration": 0.0161,
      "velocity": 115,
      "chip": "ym2612"
    },
    {
      "channel": 4,
      "note": 78,
      "start": 33.4061,
      "duration": 0.0163,
      "velocity": 97,
      "chip": "ym2612"
    },
    {
      "channel": 3,
      "note": 74,
      "start": 33.4073,
      "duration": 0.0164,
      "velocity": 97,
      "chip": "ym2612"
    },
    {
      "channel": 2,
      "note": 52,
      "start": 33.4084,
      "duration": 0.0163,
      "velocity": 100,
      "chip": "ym2612"
    },
    {
      "channel": 0,
      "note": 40,
      "start": 33.421,
      "duration": 0.0161,
      "velocity": 115,
      "chip": "ym2612"
    },
    {
      "channel": 4,
      "note": 74,
      "start": 33.4225,
      "duration": 0.0159,
      "velocity": 97,
      "chip": "ym2612"
    },
    {
      "channel": 3,
      "note": 74,
      "start": 33.4237,
      "duration": 0.0158,
      "velocity": 97,
      "chip": "ym2612"
    },
    {
      "channel": 2,
      "note": 52,
      "start": 33.4247,
      "duration": 0.0159,
      "velocity": 100,
      "chip": "ym2612"
    },
    {
      "channel": 0,
      "note": 40,
      "start": 33.4371,
      "duration": 0.0161,
      "velocity": 115,
      "chip": "ym2612"
    },
    {
      "channel": 4,
      "note": 74,
      "start": 33.4384,
      "duration": 0.0161,
      "velocity": 97,
      "chip": "ym2612"
    },
    {
      "channel": 3,
      "note": 74,
      "start": 33.4395,
      "duration": 0.0161,
      "velocity": 97,
      "chip": "ym2612"
    },
    {
      "channel": 2,
      "note": 52,
      "start": 33.4407,
      "duration": 0.016,
      "velocity": 100,
      "chip": "ym2612"
    },
    {
      "channel": 0,
      "note": 41,
      "start": 33.4532,
      "duration": 0.0179,
      "velocity": 115,
      "chip": "ym2612"
    },
    {
      "channel": 4,
      "note": 74,
      "start": 33.4544,
      "duration": 0.0179,
      "velocity": 97,
      "chip": "ym2612"
    },
    {
      "channel": 3,
      "note": 74,
      "start": 33.4556,
      "duration": 0.0181,
      "velocity": 97,
      "chip": "ym2612"
    },
    {
      "channel": 2,
      "note": 52,
      "start": 33.4567,
      "duration": 0.0185,
      "velocity": 100,
      "chip": "ym2612"
    },
    {
      "channel": 0,
      "note": 36,
      "start": 33.4712,
      "duration": 0.0144,
      "velocity": 115,
      "chip": "ym2612"
    },
    {
      "channel": 4,
      "note": 74,
      "start": 33.4723,
      "duration": 0.0144,
      "velocity": 97,
      "chip": "ym2612"
    },
    {
      "channel": 3,
      "note": 71,
      "start": 33.4737,
      "duration": 0.0142,
      "velocity": 97,
      "chip": "ym2612"
    },
    {
      "channel": 2,
      "note": 52,
      "start": 33.4752,
      "duration": 0.0139,
      "velocity": 100,
      "chip": "ym2612"
    },
    {
      "channel": 0,
      "note": 36,
      "start": 33.4856,
      "duration": 0.016,
      "velocity": 115,
      "chip": "ym2612"
    },
    {
      "channel": 4,
      "note": 74,
      "start": 33.4867,
      "duration": 0.016,
      "velocity": 97,
      "chip": "ym2612"
    },
    {
      "channel": 3,
      "note": 71,
      "start": 33.4879,
      "duration": 0.016,
      "velocity": 97,
      "chip": "ym2612"
    },
    {
      "channel": 2,
      "note": 52,
      "start": 33.489,
      "duration": 0.016,
      "velocity": 100,
      "chip": "ym2612"
    },
    {
      "channel": 0,
      "note": 37,
      "start": 33.5016,
      "duration": 0.0161,
      "velocity": 115,
      "chip": "ym2612"
    },
    {
      "channel": 4,
      "note": 74,
      "start": 33.5027,
      "duration": 0.0163,
      "velocity": 97,
      "chip": "ym2612"
    },
    {
      "channel": 3,
      "note": 71,
      "start": 33.5039,
      "duration": 0.0163,
      "velocity": 97,
      "chip": "ym2612"
    },
    {
      "channel": 2,
      "note": 52,
      "start": 33.505,
      "duration": 0.0163,
      "velocity": 100,
      "chip": "ym2612"
    },
    {
      "channel": 0,
      "note": 37,
      "start": 33.5177,
      "duration": 0.0161,
      "velocity": 115,
      "chip": "ym2612"
    },
    {
      "channel": 4,
      "note": 71,
      "start": 33.5191,
      "duration": 0.0159,
      "velocity": 97,
      "chip": "ym2612"
    },
    {
      "channel": 3,
      "note": 71,
      "start": 33.5202,
      "duration": 0.0159,
      "velocity": 97,
      "chip": "ym2612"
    },
    {
      "channel": 2,
      "note": 52,
      "start": 33.5214,
      "duration": 0.0159,
      "velocity": 100,
      "chip": "ym2612"
    },
    {
      "channel": 0,
      "note": 38,
      "start": 33.5338,
      "duration": 0.0161,
      "velocity": 115,
      "chip": "ym2612"
    },
    {
      "channel": 4,
      "note": 71,
      "start": 33.535,
      "duration": 0.016,
      "velocity": 97,
      "chip": "ym2612"
    },
    {
      "channel": 3,
      "note": 71,
      "start": 33.5361,
      "duration": 0.016,
      "velocity": 97,
      "chip": "ym2612"
    },
    {
      "channel": 2,
      "note": 52,
      "start": 33.5373,
      "duration": 0.016,
      "velocity": 100,
      "chip": "ym2612"
    },
    {
      "channel": 0,
      "note": 38,
      "start": 33.5499,
      "duration": 0.0161,
      "velocity": 115,
      "chip": "ym2612"
    },
    {
      "channel": 4,
      "note": 71,
      "start": 33.551,
      "duration": 0.0161,
      "velocity": 97,
      "chip": "ym2612"
    },
    {
      "channel": 3,
      "note": 71,
      "start": 33.5522,
      "duration": 0.0162,
      "velocity": 97,
      "chip": "ym2612"
    },
    {
      "channel": 2,
      "note": 52,
      "start": 33.5533,
      "duration": 0.0162,
      "velocity": 100,
      "chip": "ym2612"
    },
    {
      "channel": 0,
      "note": 39,
      "start": 33.566,
      "duration": 0.0161,
      "velocity": 115,
      "chip": "ym2612"
    },
    {
      "channel": 4,
      "note": 71,
      "start": 33.5672,
      "duration": 0.0161,
      "velocity": 97,
      "chip": "ym2612"
    },
    {
      "channel": 3,
      "note": 71,
      "start": 33.5684,
      "duration": 0.016,
      "velocity": 97,
      "chip": "ym2612"
    },
    {
      "channel": 2,
      "note": 52,
      "start": 33.5695,
      "duration": 0.016,
      "velocity": 100,
      "chip": "ym2612"
    },
    {
      "channel": 0,
      "note": 39,
      "start": 33.5821,
      "duration": 0.0163,
      "velocity": 115,
      "chip": "ym2612"
    },
    {
      "channel": 4,
      "note": 71,
      "start": 33.5833,
      "duration": 0.0162,
      "velocity": 97,
      "chip": "ym2612"
    },
    {
      "channel": 3,
      "note": 71,
      "start": 33.5844,
      "duration": 0.0162,
      "velocity": 97,
      "chip": "ym2612"
    },
    {
      "channel": 2,
      "note": 52,
      "start": 33.5856,
      "duration": 0.0162,
      "velocity": 100,
      "chip": "ym2612"
    },
    {
      "channel": 0,
      "note": 40,
      "start": 33.5983,
      "duration": 0.016,
      "velocity": 115,
      "chip": "ym2612"
    },
    {
      "channel": 4,
      "note": 71,
      "start": 33.5995,
      "duration": 0.0161,
      "velocity": 97,
      "chip": "ym2612"
    },
    {
      "channel": 3,
      "note": 71,
      "start": 33.6006,
      "duration": 0.016,
      "velocity": 97,
      "chip": "ym2612"
    },
    {
      "channel": 2,
      "note": 52,
      "start": 33.6018,
      "duration": 0.016,
      "velocity": 100,
      "chip": "ym2612"
    },
    {
      "channel": 0,
      "note": 40,
      "start": 33.6143,
      "duration": 0.0178,
      "velocity": 115,
      "chip": "ym2612"
    },
    {
      "channel": 4,
      "note": 71,
      "start": 33.6156,
      "duration": 0.0177,
      "velocity": 97,
      "chip": "ym2612"
    },
    {
      "channel": 3,
      "note": 71,
      "start": 33.6167,
      "duration": 0.0177,
      "velocity": 97,
      "chip": "ym2612"
    },
    {
      "channel": 2,
      "note": 52,
      "start": 33.6178,
      "duration": 0.0177,
      "velocity": 100,
      "chip": "ym2612"
    },
    {
      "channel": 0,
      "note": 40,
      "start": 33.6321,
      "duration": 0.0167,
      "velocity": 115,
      "chip": "ym2612"
    },
    {
      "channel": 4,
      "note": 71,
      "start": 33.6333,
      "duration": 0.0166,
      "velocity": 97,
      "chip": "ym2612"
    },
    {
      "channel": 3,
      "note": 71,
      "start": 33.6344,
      "duration": 0.0166,
      "velocity": 97,
      "chip": "ym2612"
    },
    {
      "channel": 2,
      "note": 52,
      "start": 33.6355,
      "duration": 0.0166,
      "velocity": 100,
      "chip": "ym2612"
    },
    {
      "channel": 0,
      "note": 41,
      "start": 33.6487,
      "duration": 0.018,
      "velocity": 124,
      "chip": "ym2612"
    },
    {
      "channel": 4,
      "note": 71,
      "start": 33.6499,
      "duration": 0.0181,
      "velocity": 97,
      "chip": "ym2612"
    },
    {
      "channel": 3,
      "note": 71,
      "start": 33.651,
      "duration": 0.0183,
      "velocity": 97,
      "chip": "ym2612"
    },
    {
      "channel": 2,
      "note": 52,
      "start": 33.6521,
      "duration": 0.0186,
      "velocity": 100,
      "chip": "ym2612"
    },
    {
      "channel": 0,
      "note": 84,
      "start": 33.6668,
      "duration": 0.0123,
      "velocity": 124,
      "chip": "ym2612"
    },
    {
      "channel": 4,
      "note": 71,
      "start": 33.6679,
      "duration": 0.0123,
      "velocity": 97,
      "chip": "ym2612"
    },
    {
      "channel": 3,
      "note": 74,
      "start": 33.6693,
      "duration": 0.0121,
      "velocity": 97,
      "chip": "ym2612"
    },
    {
      "channel": 2,
      "note": 52,
      "start": 33.6707,
      "duration": 0.0119,
      "velocity": 100,
      "chip": "ym2612"
    },
    {
      "channel": 0,
      "note": 82,
      "start": 33.6791,
      "duration": 0.0185,
      "velocity": 124,
      "chip": "ym2612"
    },
    {
      "channel": 4,
      "note": 71,
      "start": 33.6802,
      "duration": 0.0185,
      "velocity": 97,
      "chip": "ym2612"
    },
    {
      "channel": 3,
      "note": 74,
      "start": 33.6814,
      "duration": 0.0184,
      "velocity": 97,
      "chip": "ym2612"
    },
    {
      "channel": 2,
      "note": 52,
      "start": 33.6826,
      "duration": 0.0183,
      "velocity": 100,
      "chip": "ym2612"
    },
    {
      "channel": 0,
      "note": 80,
      "start": 33.6975,
      "duration": 0.0161,
      "velocity": 124,
      "chip": "ym2612"
    },
    {
      "channel": 4,
      "note": 71,
      "start": 33.6987,
      "duration": 0.0163,
      "velocity": 97,
      "chip": "ym2612"
    },
    {
      "channel": 3,
      "note": 74,
      "start": 33.6999,
      "duration": 0.0163,
      "velocity": 97,
      "chip": "ym2612"
    },
    {
      "channel": 2,
      "note": 52,
      "start": 33.701,
      "duration": 0.0164,
      "velocity": 100,
      "chip": "ym2612"
    },
    {
      "channel": 0,
      "note": 77,
      "start": 33.7137,
      "duration": 0.0133,
      "velocity": 124,
      "chip": "ym2612"
    },
    {
      "channel": 4,
      "note": 74,
      "start": 33.7151,
      "duration": 0.0155,
      "velocity": 97,
      "chip": "ym2612"
    },
    {
      "channel": 3,
      "note": 74,
      "start": 33.7162,
      "duration": 0.0155,
      "velocity": 97,
      "chip": "ym2612"
    },
    {
      "channel": 2,
      "note": 52,
      "start": 33.7174,
      "duration": 0.0155,
      "velocity": 100,
      "chip": "ym2612"
    },
    {
      "channel": 0,
      "note": 75,
      "start": 33.727,
      "duration": 0.0161,
      "velocity": 124,
      "chip": "ym2612"
    },
    {
      "channel": 4,
      "note": 74,
      "start": 33.7306,
      "duration": 0.014,
      "velocity": 97,
      "chip": "ym2612"
    },
    {
      "channel": 3,
      "note": 74,
      "start": 33.7317,
      "duration": 0.014,
      "velocity": 97,
      "chip": "ym2612"
    },
    {
      "channel": 2,
      "note": 52,
      "start": 33.7329,
      "duration": 0.0139,
      "velocity": 100,
      "chip": "ym2612"
    },
    {
      "channel": 0,
      "note": 72,
      "start": 33.7431,
      "duration": 0.0162,
      "velocity": 124,
      "chip": "ym2612"
    },
    {
      "channel": 4,
      "note": 74,
      "start": 33.7446,
      "duration": 0.0158,
      "velocity": 97,
      "chip": "ym2612"
    },
    {
      "channel": 3,
      "note": 74,
      "start": 33.7457,
      "duration": 0.0187,
      "velocity": 97,
      "chip": "ym2612"
    },
    {
      "channel": 2,
      "note": 52,
      "start": 33.7468,
      "duration": 0.0188,
      "velocity": 100,
      "chip": "ym2612"
    },
    {
      "channel": 0,
      "note": 70,
      "start": 33.7592,
      "duration": 0.0161,
      "velocity": 124,
      "chip": "ym2612"
    },
    {
      "channel": 4,
      "note": 74,
      "start": 33.7604,
      "duration": 0.0161,
      "velocity": 97,
      "chip": "ym2612"
    },
    {
      "channel": 3,
      "note": 71,
      "start": 33.7645,
      "duration": 0.0159,
      "velocity": 97,
      "chip": "ym2612"
    },
    {
      "channel": 2,
      "note": 52,
      "start": 33.7656,
      "duration": 0.0159,
      "velocity": 100,
      "chip": "ym2612"
    },
    {
      "channel": 0,
      "note": 68,
      "start": 33.7753,
      "duration": 0.0161,
      "velocity": 124,
      "chip": "ym2612"
    },
    {
      "channel": 4,
      "note": 74,
      "start": 33.7765,
      "duration": 0.0161,
      "velocity": 97,
      "chip": "ym2612"
    },
    {
      "channel": 3,
      "note": 71,
      "start": 33.7804,
      "duration": 0.0133,
      "velocity": 97,
      "chip": "ym2612"
    },
    {
      "channel": 2,
      "note": 52,
      "start": 33.7815,
      "duration": 0.0156,
      "velocity": 100,
      "chip": "ym2612"
    },
    {
      "channel": 0,
      "note": 65,
      "start": 33.7914,
      "duration": 0.0161,
      "velocity": 124,
      "chip": "ym2612"
    },
    {
      "channel": 4,
      "note": 74,
      "start": 33.7926,
      "duration": 0.0163,
      "velocity": 97,
      "chip": "ym2612"
    },
    {
      "channel": 3,
      "note": 71,
      "start": 33.7937,
      "duration": 0.0163,
      "velocity": 97,
      "chip": "ym2612"
    },
    {
      "channel": 2,
      "note": 52,
      "start": 33.7972,
      "duration": 0.0143,
      "velocity": 100,
      "chip": "ym2612"
    },
    {
      "channel": 0,
      "note": 63,
      "start": 33.8075,
      "duration": 0.0153,
      "velocity": 1,
      "chip": "ym2612"
    },
    {
      "channel": 4,
      "note": 71,
      "start": 33.8089,
      "duration": 0.0151,
      "velocity": 97,
      "chip": "ym2612"
    },
    {
      "channel": 3,
      "note": 71,
      "start": 33.81,
      "duration": 0.0151,
      "velocity": 97,
      "chip": "ym2612"
    },
    {
      "channel": 2,
      "note": 52,
      "start": 33.8115,
      "duration": 0.0148,
      "velocity": 100,
      "chip": "ym2612"
    },
    {
      "channel": 4,
      "note": 71,
      "start": 33.824,
      "duration": 0.0151,
      "velocity": 97,
      "chip": "ym2612"
    },
    {
      "channel": 3,
      "note": 71,
      "start": 33.8251,
      "duration": 0.0152,
      "velocity": 97,
      "chip": "ym2612"
    },
    {
      "channel": 2,
      "note": 52,
      "start": 33.8263,
      "duration": 0.0152,
      "velocity": 100,
      "chip": "ym2612"
    },
    {
      "channel": 4,
      "note": 71,
      "start": 33.8392,
      "duration": 0.0162,
      "velocity": 97,
      "chip": "ym2612"
    },
    {
      "channel": 3,
      "note": 71,
      "start": 33.8403,
      "duration": 0.0163,
      "velocity": 97,
      "chip": "ym2612"
    },
    {
      "channel": 2,
      "note": 52,
      "start": 33.8415,
      "duration": 0.0167,
      "velocity": 100,
      "chip": "ym2612"
    },
    {
      "channel": 4,
      "note": 71,
      "start": 33.8554,
      "duration": 0.0161,
      "velocity": 97,
      "chip": "ym2612"
    },
    {
      "channel": 3,
      "note": 68,
      "start": 33.8567,
      "duration": 0.0159,
      "velocity": 97,
      "chip": "ym2612"
    },
    {
      "channel": 2,
      "note": 52,
      "start": 33.8581,
      "duration": 0.0156,
      "velocity": 100,
      "chip": "ym2612"
    },
    {
      "channel": 4,
      "note": 71,
      "start": 33.8714,
      "duration": 0.0161,
      "velocity": 97,
      "chip": "ym2612"
    },
    {
      "channel": 3,
      "note": 68,
      "start": 33.8726,
      "duration": 0.0161,
      "velocity": 97,
      "chip": "ym2612"
    },
    {
      "channel": 2,
      "note": 52,
      "start": 33.8738,
      "duration": 0.016,
      "velocity": 100,
      "chip": "ym2612"
    },
    {
      "channel": 4,
      "note": 71,
      "start": 33.8875,
      "duration": 0.0163,
      "velocity": 97,
      "chip": "ym2612"
    },
    {
      "channel": 3,
      "note": 68,
      "start": 33.8887,
      "duration": 0.0163,
      "velocity": 97,
      "chip": "ym2612"
    },
    {
      "channel": 2,
      "note": 52,
      "start": 33.8898,
      "duration": 0.0163,
      "velocity": 100,
      "chip": "ym2612"
    },
    {
      "channel": 4,
      "note": 68,
      "start": 33.9039,
      "duration": 0.0159,
      "velocity": 97,
      "chip": "ym2612"
    },
    {
      "channel": 3,
      "note": 68,
      "start": 33.905,
      "duration": 0.0159,
      "velocity": 97,
      "chip": "ym2612"
    },
    {
      "channel": 2,
      "note": 52,
      "start": 33.9061,
      "duration": 0.0159,
      "velocity": 100,
      "chip": "ym2612"
    },
    {
      "channel": 4,
      "note": 68,
      "start": 33.9198,
      "duration": 0.016,
      "velocity": 97,
      "chip": "ym2612"
    },
    {
      "channel": 3,
      "note": 68,
      "start": 33.9209,
      "duration": 0.016,
      "velocity": 97,
      "chip": "ym2612"
    },
    {
      "channel": 2,
      "note": 52,
      "start": 33.922,
      "duration": 0.016,
      "velocity": 100,
      "chip": "ym2612"
    },
    {
      "channel": 4,
      "note": 68,
      "start": 33.9358,
      "duration": 0.0161,
      "velocity": 97,
      "chip": "ym2612"
    },
    {
      "channel": 3,
      "note": 68,
      "start": 33.937,
      "duration": 0.0162,
      "velocity": 97,
      "chip": "ym2612"
    },
    {
      "channel": 2,
      "note": 52,
      "start": 33.938,
      "duration": 0.0162,
      "velocity": 100,
      "chip": "ym2612"
    },
    {
      "channel": 4,
      "note": 68,
      "start": 33.9519,
      "duration": 0.0161,
      "velocity": 97,
      "chip": "ym2612"
    },
    {
      "channel": 3,
      "note": 68,
      "start": 33.9532,
      "duration": 0.016,
      "velocity": 97,
      "chip": "ym2612"
    },
    {
      "channel": 2,
      "note": 52,
      "start": 33.9543,
      "duration": 0.0161,
      "velocity": 100,
      "chip": "ym2612"
    },
    {
      "channel": 4,
      "note": 68,
      "start": 33.968,
      "duration": 0.0161,
      "velocity": 97,
      "chip": "ym2612"
    },
    {
      "channel": 3,
      "note": 68,
      "start": 33.9692,
      "duration": 0.016,
      "velocity": 97,
      "chip": "ym2612"
    },
    {
      "channel": 2,
      "note": 52,
      "start": 33.9704,
      "duration": 0.016,
      "velocity": 100,
      "chip": "ym2612"
    },
    {
      "channel": 4,
      "note": 68,
      "start": 33.9841,
      "duration": 0.0162,
      "velocity": 97,
      "chip": "ym2612"
    },
    {
      "channel": 3,
      "note": 68,
      "start": 33.9852,
      "duration": 0.0162,
      "velocity": 97,
      "chip": "ym2612"
    },
    {
      "channel": 2,
      "note": 52,
      "start": 33.9864,
      "duration": 0.0162,
      "velocity": 100,
      "chip": "ym2612"
    },
    {
      "channel": 4,
      "note": 68,
      "start": 34.0003,
      "duration": 0.016,
      "velocity": 97,
      "chip": "ym2612"
    },
    {
      "channel": 3,
      "note": 68,
      "start": 34.0015,
      "duration": 0.016,
      "velocity": 97,
      "chip": "ym2612"
    },
    {
      "channel": 2,
      "note": 52,
      "start": 34.0026,
      "duration": 0.016,
      "velocity": 100,
      "chip": "ym2612"
    },
    {
      "channel": 4,
      "note": 68,
      "start": 34.0163,
      "duration": 0.0161,
      "velocity": 97,
      "chip": "ym2612"
    },
    {
      "channel": 3,
      "note": 68,
      "start": 34.0175,
      "duration": 0.016,
      "velocity": 97,
      "chip": "ym2612"
    },
    {
      "channel": 2,
      "note": 52,
      "start": 34.0186,
      "duration": 0.016,
      "velocity": 100,
      "chip": "ym2612"
    },
    {
      "channel": 4,
      "note": 68,
      "start": 34.0324,
      "duration": 0.0195,
      "velocity": 97,
      "chip": "ym2612"
    },
    {
      "channel": 3,
      "note": 68,
      "start": 34.0335,
      "duration": 0.0198,
      "velocity": 97,
      "chip": "ym2612"
    },
    {
      "channel": 2,
      "note": 52,
      "start": 34.0347,
      "duration": 0.0201,
      "velocity": 100,
      "chip": "ym2612"
    },
    {
      "channel": 0,
      "note": 36,
      "start": 34.0508,
      "duration": 0.0144,
      "velocity": 115,
      "chip": "ym2612"
    },
    {
      "channel": 4,
      "note": 68,
      "start": 34.052,
      "duration": 0.0144,
      "velocity": 97,
      "chip": "ym2612"
    },
    {
      "channel": 3,
      "note": 76,
      "start": 34.0534,
      "duration": 0.0142,
      "velocity": 97,
      "chip": "ym2612"
    },
    {
      "channel": 2,
      "note": 52,
      "start": 34.0548,
      "duration": 0.0139,
      "velocity": 100,
      "chip": "ym2612"
    },
    {
      "channel": 0,
      "note": 36,
      "start": 34.0652,
      "duration": 0.016,
      "velocity": 115,
      "chip": "ym2612"
    },
    {
      "channel": 4,
      "note": 68,
      "start": 34.0663,
      "duration": 0.016,
      "velocity": 97,
      "chip": "ym2612"
    },
    {
      "channel": 3,
      "note": 76,
      "start": 34.0676,
      "duration": 0.016,
      "velocity": 97,
      "chip": "ym2612"
    },
    {
      "channel": 2,
      "note": 52,
      "start": 34.0687,
      "duration": 0.0159,
      "velocity": 100,
      "chip": "ym2612"
    },
    {
      "channel": 0,
      "note": 37,
      "start": 34.0812,
      "duration": 0.0174,
      "velocity": 115,
      "chip": "ym2612"
    },
    {
      "channel": 4,
      "note": 68,
      "start": 34.0824,
      "duration": 0.0177,
      "velocity": 97,
      "chip": "ym2612"
    },
    {
      "channel": 3,
      "note": 76,
      "start": 34.0835,
      "duration": 0.0178,
      "velocity": 97,
      "chip": "ym2612"
    },
    {
      "channel": 2,
      "note": 52,
      "start": 34.0846,
      "duration": 0.0178,
      "velocity": 100,
      "chip": "ym2612"
    },
    {
      "channel": 0,
      "note": 37,
      "start": 34.0987,
      "duration": 0.0167,
      "velocity": 115,
      "chip": "ym2612"
    },
    {
      "channel": 4,
      "note": 76,
      "start": 34.1001,
      "duration": 0.0165,
      "velocity": 97,
      "chip": "ym2612"
    },
    {
      "channel": 3,
      "note": 76,
      "start": 34.1013,
      "duration": 0.0165,
      "velocity": 97,
      "chip": "ym2612"
    },
    {
      "channel": 2,
      "note": 52,
      "start": 34.1024,
      "duration": 0.0165,
      "velocity": 100,
      "chip": "ym2612"
    },
    {
      "channel": 0,
      "note": 38,
      "start": 34.1154,
      "duration": 0.0163,
      "velocity": 115,
      "chip": "ym2612"
    },
    {
      "channel": 4,
      "note": 76,
      "start": 34.1166,
      "duration": 0.0162,
      "velocity": 97,
      "chip": "ym2612"
    },
    {
      "channel": 3,
      "note": 76,
      "start": 34.1178,
      "duration": 0.0162,
      "velocity": 97,
      "chip": "ym2612"
    },
    {
      "channel": 2,
      "note": 52,
      "start": 34.1188,
      "duration": 0.0163,
      "velocity": 100,
      "chip": "ym2612"
    },
    {
      "channel": 0,
      "note": 38,
      "start": 34.1317,
      "duration": 0.0142,
      "velocity": 115,
      "chip": "ym2612"
    },
    {
      "channel": 4,
      "note": 76,
      "start": 34.1328,
      "duration": 0.0143,
      "velocity": 97,
      "chip": "ym2612"
    },
    {
      "channel": 3,
      "note": 76,
      "start": 34.134,
      "duration": 0.0145,
      "velocity": 97,
      "chip": "ym2612"
    },
    {
      "channel": 2,
      "note": 52,
      "start": 34.1351,
      "duration": 0.0145,
      "velocity": 100,
      "chip": "ym2612"
    },
    {
      "channel": 0,
      "note": 39,
      "start": 34.1459,
      "duration": 0.0185,
      "velocity": 115,
      "chip": "ym2612"
    },
    {
      "channel": 4,
      "note": 76,
      "start": 34.1471,
      "duration": 0.0185,
      "velocity": 97,
      "chip": "ym2612"
    },
    {
      "channel": 3,
      "note": 80,
      "start": 34.1485,
      "duration": 0.0183,
      "velocity": 97,
      "chip": "ym2612"
    },
    {
      "channel": 2,
      "note": 52,
      "start": 34.1496,
      "duration": 0.0183,
      "velocity": 100,
      "chip": "ym2612"
    },
    {
      "channel": 0,
      "note": 39,
      "start": 34.1644,
      "duration": 0.0161,
      "velocity": 115,
      "chip": "ym2612"
    },
    {
      "channel": 4,
      "note": 76,
      "start": 34.1656,
      "duration": 0.0161,
      "velocity": 97,
      "chip": "ym2612"
    },
    {
      "channel": 3,
      "note": 80,
      "start": 34.1668,
      "duration": 0.0161,
      "velocity": 97,
      "chip": "ym2612"
    },
    {
      "channel": 2,
      "note": 52,
      "start": 34.1679,
      "duration": 0.016,
      "velocity": 100,
      "chip": "ym2612"
    },
    {
      "channel": 0,
      "note": 40,
      "start": 34.1806,
      "duration": 0.0133,
      "velocity": 115,
      "chip": "ym2612"
    },
    {
      "channel": 4,
      "note": 76,
      "start": 34.1817,
      "duration": 0.016,
      "velocity": 97,
      "chip": "ym2612"
    },
    {
      "channel": 3,
      "note": 80,
      "start": 34.1829,
      "duration": 0.016,
      "velocity": 97,
      "chip": "ym2612"
    },
    {
      "channel": 2,
      "note": 52,
      "start": 34.184,
      "duration": 0.016,
      "velocity": 100,
      "chip": "ym2612"
    },
    {
      "channel": 0,
      "note": 40,
      "start": 34.1939,
      "duration": 0.0161,
      "velocity": 115,
      "chip": "ym2612"
    },
    {
      "channel": 4,
      "note": 80,
      "start": 34.1977,
      "duration": 0.0139,
      "velocity": 97,
      "chip": "ym2612"
    },
    {
      "channel": 3,
      "note": 80,
      "start": 34.1988,
      "duration": 0.0139,
      "velocity": 97,
      "chip": "ym2612"
    },
    {
      "channel": 2,
      "note": 52,
      "start": 34.2,
      "duration": 0.0138,
      "velocity": 100,
      "chip": "ym2612"
    },
    {
      "channel": 0,
      "note": 40,
      "start": 34.21,
      "duration": 0.0161,
      "velocity": 115,
      "chip": "ym2612"
    },
    {
      "channel": 4,
      "note": 80,
      "start": 34.2116,
      "duration": 0.0157,
      "velocity": 97,
      "chip": "ym2612"
    },
    {
      "channel": 3,
      "note": 80,
      "start": 34.2127,
      "duration": 0.0185,
      "velocity": 97,
      "chip": "ym2612"
    },
    {
      "channel": 2,
      "note": 52,
      "start": 34.2138,
      "duration": 0.0185,
      "velocity": 100,
      "chip": "ym2612"
    },
    {
      "channel": 0,
      "note": 41,
      "start": 34.2261,
      "duration": 0.0161,
      "velocity": 115,
      "chip": "ym2612"
    },
    {
      "channel": 4,
      "note": 80,
      "start": 34.2273,
      "duration": 0.0161,
      "velocity": 97,
      "chip": "ym2612"
    },
    {
      "channel": 3,
      "note": 80,
      "start": 34.2312,
      "duration": 0.0163,
      "velocity": 97,
      "chip": "ym2612"
    },
    {
      "channel": 2,
      "note": 52,
      "start": 34.2323,
      "duration": 0.0167,
      "velocity": 100,
      "chip": "ym2612"
    },
    {
      "channel": 0,
      "note": 41,
      "start": 34.2422,
      "duration": 0.0161,
      "velocity": 115,
      "chip": "ym2612"
    },
    {
      "channel": 4,
      "note": 80,
      "start": 34.2434,
      "duration": 0.0161,
      "velocity": 97,
      "chip": "ym2612"
    },
    {
      "channel": 3,
      "note": 83,
      "start": 34.2475,
      "duration": 0.0155,
      "velocity": 97,
      "chip": "ym2612"
    },
    {
      "channel": 2,
      "note": 52,
      "start": 34.249,
      "duration": 0.0153,
      "velocity": 100,
      "chip": "ym2612"
    },
    {
      "channel": 0,
      "note": 42,
      "start": 34.2583,
      "duration": 0.0161,
      "velocity": 115,
      "chip": "ym2612"
    },
    {
      "channel": 4,
      "note": 80,
      "start": 34.2595,
      "duration": 0.0161,
      "velocity": 97,
      "chip": "ym2612"
    },
    {
      "channel": 3,
      "note": 83,
      "start": 34.263,
      "duration": 0.0137,
      "velocity": 97,
      "chip": "ym2612"
    },
    {
      "channel": 2,
      "note": 52,
      "start": 34.2642,
      "duration": 0.0139,
      "velocity": 100,
      "chip": "ym2612"
    },
    {
      "channel": 0,
      "note": 42,
      "start": 34.2744,
      "duration": 0.0161,
      "velocity": 115,
      "chip": "ym2612"
    },
    {
      "channel": 4,
      "note": 80,
      "start": 34.2756,
      "duration": 0.0163,
      "velocity": 97,
      "chip": "ym2612"
    },
    {
      "channel": 3,
      "note": 83,
      "start": 34.2767,
      "duration": 0.0163,
      "velocity": 97,
      "chip": "ym2612"
    },
    {
      "channel": 2,
      "note": 52,
      "start": 34.2782,
      "duration": 0.0188,
      "velocity": 100,
      "chip": "ym2612"
    },
    {
      "channel": 0,
      "note": 43,
      "start": 34.2905,
      "duration": 0.0161,
      "velocity": 115,
      "chip": "ym2612"
    },
    {
      "channel": 4,
      "note": 83,
      "start": 34.2919,
      "duration": 0.0159,
      "velocity": 97,
      "chip": "ym2612"
    },
    {
      "channel": 3,
      "note": 83,
      "start": 34.2931,
      "duration": 0.0159,
      "velocity": 97,
      "chip": "ym2612"
    },
    {
      "channel": 2,
      "note": 52,
      "start": 34.2969,
      "duration": 0.0132,
      "velocity": 100,
      "chip": "ym2612"
    },
    {
      "channel": 0,
      "note": 43,
      "start": 34.3066,
      "duration": 0.0161,
      "velocity": 115,
      "chip": "ym2612"
    },
    {
      "channel": 4,
      "note": 83,
      "start": 34.3078,
      "duration": 0.016,
      "velocity": 97,
      "chip": "ym2612"
    },
    {
      "channel": 3,
      "note": 83,
      "start": 34.309,
      "duration": 0.016,
      "velocity": 97,
      "chip": "ym2612"
    },
    {
      "channel": 2,
      "note": 52,
      "start": 34.3101,
      "duration": 0.016,
      "velocity": 100,
      "chip": "ym2612"
    },
    {
      "channel": 0,
      "note": 44,
      "start": 34.3227,
      "duration": 0.0162,
      "velocity": 115,
      "chip": "ym2612"
    },
    {
      "channel": 4,
      "note": 83,
      "start": 34.3239,
      "duration": 0.0161,
      "velocity": 97,
      "chip": "ym2612"
    },
    {
      "channel": 3,
      "note": 83,
      "start": 34.325,
      "duration": 0.0163,
      "velocity": 97,
      "chip": "ym2612"
    },
    {
      "channel": 2,
      "note": 52,
      "start": 34.3261,
      "duration": 0.0162,
      "velocity": 100,
      "chip": "ym2612"
    },
    {
      "channel": 0,
      "note": 44,
      "start": 34.3389,
      "duration": 0.0161,
      "velocity": 115,
      "chip": "ym2612"
    },
    {
      "channel": 4,
      "note": 83,
      "start": 34.34,
      "duration": 0.0161,
      "velocity": 97,
      "chip": "ym2612"
    },
    {
      "channel": 3,
      "note": 83,
      "start": 34.3413,
      "duration": 0.016,
      "velocity": 97,
      "chip": "ym2612"
    },
    {
      "channel": 2,
      "note": 52,
      "start": 34.3424,
      "duration": 0.016,
      "velocity": 100,
      "chip": "ym2612"
    },
    {
      "channel": 0,
      "note": 44,
      "start": 34.355,
      "duration": 0.0161,
      "velocity": 115,
      "chip": "ym2612"
    },
    {
      "channel": 4,
      "note": 83,
      "start": 34.3561,
      "duration": 0.0161,
      "velocity": 97,
      "chip": "ym2612"
    },
    {
      "channel": 3,
      "note": 83,
      "start": 34.3573,
      "duration": 0.0161,
      "velocity": 97,
      "chip": "ym2612"
    },
    {
      "channel": 2,
      "note": 52,
      "start": 34.3584,
      "duration": 0.016,
      "velocity": 100,
      "chip": "ym2612"
    },
    {
      "channel": 0,
      "note": 45,
      "start": 34.371,
      "duration": 0.0161,
      "velocity": 115,
      "chip": "ym2612"
    },
    {
      "channel": 4,
      "note": 83,
      "start": 34.3722,
      "duration": 0.0162,
      "velocity": 97,
      "chip": "ym2612"
    },
    {
      "channel": 3,
      "note": 83,
      "start": 34.3733,
      "duration": 0.0162,
      "velocity": 97,
      "chip": "ym2612"
    },
    {
      "channel": 2,
      "note": 52,
      "start": 34.3744,
      "duration": 0.0162,
      "velocity": 100,
      "chip": "ym2612"
    },
    {
      "channel": 0,
      "note": 45,
      "start": 34.3871,
      "duration": 0.0161,
      "velocity": 115,
      "chip": "ym2612"
    },
    {
      "channel": 4,
      "note": 83,
      "start": 34.3884,
      "duration": 0.016,
      "velocity": 97,
      "chip": "ym2612"
    },
    {
      "channel": 3,
      "note": 83,
      "start": 34.3896,
      "duration": 0.016,
      "velocity": 97,
      "chip": "ym2612"
    },
    {
      "channel": 2,
      "note": 52,
      "start": 34.3907,
      "duration": 0.016,
      "velocity": 100,
      "chip": "ym2612"
    },
    {
      "channel": 0,
      "note": 46,
      "start": 34.4032,
      "duration": 0.0161,
      "velocity": 115,
      "chip": "ym2612"
    },
    {
      "channel": 4,
      "note": 83,
      "start": 34.4044,
      "duration": 0.016,
      "velocity": 97,
      "chip": "ym2612"
    },
    {
      "channel": 3,
      "note": 83,
      "start": 34.4056,
      "duration": 0.016,
      "velocity": 97,
      "chip": "ym2612"
    },
    {
      "channel": 2,
      "note": 52,
      "start": 34.4067,
      "duration": 0.016,
      "velocity": 100,
      "chip": "ym2612"
    },
    {
      "channel": 0,
      "note": 46,
      "start": 34.4193,
      "duration": 0.0179,
      "velocity": 124,
      "chip": "ym2612"
    },
    {
      "channel": 4,
      "note": 83,
      "start": 34.4205,
      "duration": 0.0179,
      "velocity": 97,
      "chip": "ym2612"
    },
    {
      "channel": 3,
      "note": 83,
      "start": 34.4216,
      "duration": 0.0181,
      "velocity": 97,
      "chip": "ym2612"
    },
    {
      "channel": 2,
      "note": 52,
      "start": 34.4227,
      "duration": 0.0185,
      "velocity": 100,
      "chip": "ym2612"
    },
    {
      "channel": 0,
      "note": 84,
      "start": 34.4372,
      "duration": 0.0144,
      "velocity": 124,
      "chip": "ym2612"
    },
    {
      "channel": 4,
      "note": 83,
      "start": 34.4384,
      "duration": 0.0144,
      "velocity": 97,
      "chip": "ym2612"
    },
    {
      "channel": 3,
      "note": 80,
      "start": 34.4398,
      "duration": 0.0142,
      "velocity": 97,
      "chip": "ym2612"
    },
    {
      "channel": 2,
      "note": 52,
      "start": 34.4412,
      "duration": 0.0139,
      "velocity": 100,
      "chip": "ym2612"
    },
    {
      "channel": 0,
      "note": 82,
      "start": 34.4516,
      "duration": 0.016,
      "velocity": 124,
      "chip": "ym2612"
    },
    {
      "channel": 4,
      "note": 83,
      "start": 34.4527,
      "duration": 0.016,
      "velocity": 97,
      "chip": "ym2612"
    },
    {
      "channel": 3,
      "note": 80,
      "start": 34.4539,
      "duration": 0.016,
      "velocity": 97,
      "chip": "ym2612"
    },
    {
      "channel": 2,
      "note": 52,
      "start": 34.4551,
      "duration": 0.0159,
      "velocity": 100,
      "chip": "ym2612"
    },
    {
      "channel": 0,
      "note": 80,
      "start": 34.4676,
      "duration": 0.0162,
      "velocity": 124,
      "chip": "ym2612"
    },
    {
      "channel": 4,
      "note": 83,
      "start": 34.4688,
      "duration": 0.0163,
      "velocity": 97,
      "chip": "ym2612"
    },
    {
      "channel": 3,
      "note": 80,
      "start": 34.4699,
      "duration": 0.0164,
      "velocity": 97,
      "chip": "ym2612"
    },
    {
      "channel": 2,
      "note": 52,
      "start": 34.471,
      "duration": 0.0164,
      "velocity": 100,
      "chip": "ym2612"
    },
    {
      "channel": 0,
      "note": 77,
      "start": 34.4838,
      "duration": 0.0161,
      "velocity": 124,
      "chip": "ym2612"
    },
    {
      "channel": 4,
      "note": 80,
      "start": 34.4852,
      "duration": 0.0159,
      "velocity": 97,
      "chip": "ym2612"
    },
    {
      "channel": 3,
      "note": 80,
      "start": 34.4863,
      "duration": 0.0159,
      "velocity": 97,
      "chip": "ym2612"
    },
    {
      "channel": 2,
      "note": 52,
      "start": 34.4875,
      "duration": 0.0159,
      "velocity": 100,
      "chip": "ym2612"
    },
    {
      "channel": 0,
      "note": 75,
      "start": 34.4999,
      "duration": 0.0161,
      "velocity": 124,
      "chip": "ym2612"
    },
    {
      "channel": 4,
      "note": 80,
      "start": 34.5011,
      "duration": 0.016,
      "velocity": 97,
      "chip": "ym2612"
    },
    {
      "channel": 3,
      "note": 80,
      "start": 34.5022,
      "duration": 0.016,
      "velocity": 97,
      "chip": "ym2612"
    },
    {
      "channel": 2,
      "note": 52,
      "start": 34.5034,
      "duration": 0.016,
      "velocity": 100,
      "chip": "ym2612"
    },
    {
      "channel": 0,
      "note": 72,
      "start": 34.516,
      "duration": 0.0161,
      "velocity": 124,
      "chip": "ym2612"
    },
    {
      "channel": 4,
      "note": 80,
      "start": 34.5171,
      "duration": 0.0161,
      "velocity": 97,
      "chip": "ym2612"
    },
    {
      "channel": 3,
      "note": 80,
      "start": 34.5183,
      "duration": 0.0163,
      "velocity": 97,
      "chip": "ym2612"
    },
    {
      "channel": 2,
      "note": 52,
      "start": 34.5194,
      "duration": 0.0163,
      "velocity": 100,
      "chip": "ym2612"
    },
    {
      "channel": 0,
      "note": 70,
      "start": 34.5321,
      "duration": 0.0161,
      "velocity": 124,
      "chip": "ym2612"
    },
    {
      "channel": 4,
      "note": 80,
      "start": 34.5332,
      "duration": 0.0161,
      "velocity": 97,
      "chip": "ym2612"
    },
    {
      "channel": 3,
      "note": 83,
      "start": 34.5346,
      "duration": 0.0159,
      "velocity": 97,
      "chip": "ym2612"
    },
    {
      "channel": 2,
      "note": 52,
      "start": 34.5358,
      "duration": 0.0158,
      "velocity": 100,
      "chip": "ym2612"
    },
    {
      "channel": 0,
      "note": 68,
      "start": 34.5482,
      "duration": 0.0172,
      "velocity": 124,
      "chip": "ym2612"
    },
    {
      "channel": 4,
      "note": 80,
      "start": 34.5493,
      "duration": 0.0172,
      "velocity": 97,
      "chip": "ym2612"
    },
    {
      "channel": 3,
      "note": 83,
      "start": 34.5505,
      "duration": 0.0172,
      "velocity": 97,
      "chip": "ym2612"
    },
    {
      "channel": 2,
      "note": 52,
      "start": 34.5516,
      "duration": 0.0172,
      "velocity": 100,
      "chip": "ym2612"
    },
    {
      "channel": 0,
      "note": 65,
      "start": 34.5654,
      "duration": 0.0167,
      "velocity": 124,
      "chip": "ym2612"
    },
    {
      "channel": 4,
      "note": 80,
      "start": 34.5665,
      "duration": 0.0169,
      "velocity": 97,
      "chip": "ym2612"
    },
    {
      "channel": 3,
      "note": 83,
      "start": 34.5677,
      "duration": 0.0169,
      "velocity": 97,
      "chip": "ym2612"
    },
    {
      "channel": 2,
      "note": 52,
      "start": 34.5688,
      "duration": 0.0169,
      "velocity": 100,
      "chip": "ym2612"
    },
    {
      "channel": 0,
      "note": 63,
      "start": 34.5821,
      "duration": 0.0155,
      "velocity": 1,
      "chip": "ym2612"
    },
    {
      "channel": 4,
      "note": 83,
      "start": 34.5835,
      "duration": 0.0153,
      "velocity": 97,
      "chip": "ym2612"
    },
    {
      "channel": 3,
      "note": 83,
      "start": 34.5846,
      "duration": 0.0153,
      "velocity": 97,
      "chip": "ym2612"
    },
    {
      "channel": 2,
      "note": 52,
      "start": 34.5857,
      "duration": 0.0153,
      "velocity": 100,
      "chip": "ym2612"
    },
    {
      "channel": 4,
      "note": 83,
      "start": 34.5987,
      "duration": 0.0137,
      "velocity": 97,
      "chip": "ym2612"
    },
    {
      "channel": 3,
      "note": 83,
      "start": 34.5999,
      "duration": 0.0137,
      "velocity": 97,
      "chip": "ym2612"
    },
    {
      "channel": 2,
      "note": 52,
      "start": 34.601,
      "duration": 0.0136,
      "velocity": 100,
      "chip": "ym2612"
    },
    {
      "channel": 4,
      "note": 83,
      "start": 34.6124,
      "duration": 0.022,
      "velocity": 97,
      "chip": "ym2612"
    },
    {
      "channel": 3,
      "note": 83,
      "start": 34.6135,
      "duration": 0.0222,
      "velocity": 97,
      "chip": "ym2612"
    },
    {
      "channel": 2,
      "note": 52,
      "start": 34.6146,
      "duration": 0.0225,
      "velocity": 100,
      "chip": "ym2612"
    },
    {
      "channel": 0,
      "note": 36,
      "start": 34.6332,
      "duration": 0.0144,
      "velocity": 115,
      "chip": "ym2612"
    },
    {
      "channel": 4,
      "note": 83,
      "start": 34.6344,
      "duration": 0.0144,
      "velocity": 97,
      "chip": "ym2612"
    },
    {
      "channel": 3,
      "note": 86,
      "start": 34.6358,
      "duration": 0.0142,
      "velocity": 97,
      "chip": "ym2612"
    },
    {
      "channel": 2,
      "note": 52,
      "start": 34.6372,
      "duration": 0.0139,
      "velocity": 100,
      "chip": "ym2612"
    },
    {
      "channel": 0,
      "note": 36,
      "start": 34.6476,
      "duration": 0.0156,
      "velocity": 115,
      "chip": "ym2612"
    },
    {
      "channel": 4,
      "note": 83,
      "start": 34.6487,
      "duration": 0.0156,
      "velocity": 97,
      "chip": "ym2612"
    },
    {
      "channel": 3,
      "note": 86,
      "start": 34.6499,
      "duration": 0.0156,
      "velocity": 97,
      "chip": "ym2612"
    },
    {
      "channel": 2,
      "note": 52,
      "start": 34.6511,
      "duration": 0.0156,
      "velocity": 100,
      "chip": "ym2612"
    },
    {
      "channel": 0,
      "note": 37,
      "start": 34.6632,
      "duration": 0.0137,
      "velocity": 115,
      "chip": "ym2612"
    },
    {
      "channel": 4,
      "note": 83,
      "start": 34.6644,
      "duration": 0.0143,
      "velocity": 97,
      "chip": "ym2612"
    },
    {
      "channel": 3,
      "note": 86,
      "start": 34.6655,
      "duration": 0.0143,
      "velocity": 97,
      "chip": "ym2612"
    },
    {
      "channel": 2,
      "note": 52,
      "start": 34.6667,
      "duration": 0.0143,
      "velocity": 100,
      "chip": "ym2612"
    },
    {
      "channel": 0,
      "note": 37,
      "start": 34.677,
      "duration": 0.0161,
      "velocity": 115,
      "chip": "ym2612"
    },
    {
      "channel": 4,
      "note": 86,
      "start": 34.6787,
      "duration": 0.0183,
      "velocity": 97,
      "chip": "ym2612"
    },
    {
      "channel": 3,
      "note": 86,
      "start": 34.6798,
      "duration": 0.0183,
      "velocity": 97,
      "chip": "ym2612"
    },
    {
      "channel": 2,
      "note": 52,
      "start": 34.681,
      "duration": 0.0183,
      "velocity": 100,
      "chip": "ym2612"
    },
    {
      "channel": 0,
      "note": 38,
      "start": 34.6931,
      "duration": 0.0161,
      "velocity": 115,
      "chip": "ym2612"
    },
    {
      "channel": 4,
      "note": 86,
      "start": 34.697,
      "duration": 0.0133,
      "velocity": 97,
      "chip": "ym2612"
    },
    {
      "channel": 3,
      "note": 86,
      "start": 34.6982,
      "duration": 0.016,
      "velocity": 97,
      "chip": "ym2612"
    },
    {
      "channel": 2,
      "note": 52,
      "start": 34.6993,
      "duration": 0.016,
      "velocity": 100,
      "chip": "ym2612"
    },
    {
      "channel": 0,
      "note": 38,
      "start": 34.7092,
      "duration": 0.0161,
      "velocity": 115,
      "chip": "ym2612"
    },
    {
      "channel": 4,
      "note": 86,
      "start": 34.7103,
      "duration": 0.0161,
      "velocity": 97,
      "chip": "ym2612"
    },
    {
      "channel": 3,
      "note": 86,
      "start": 34.7142,
      "duration": 0.0159,
      "velocity": 97,
      "chip": "ym2612"
    },
    {
      "channel": 2,
      "note": 52,
      "start": 34.7153,
      "duration": 0.0159,
      "velocity": 100,
      "chip": "ym2612"
    },
    {
      "channel": 0,
      "note": 39,
      "start": 34.7253,
      "duration": 0.0161,
      "velocity": 115,
      "chip": "ym2612"
    },
    {
      "channel": 4,
      "note": 86,
      "start": 34.7264,
      "duration": 0.0161,
      "velocity": 97,
      "chip": "ym2612"
    },
    {
      "channel": 3,
      "note": 86,
      "start": 34.7301,
      "duration": 0.0136,
      "velocity": 97,
      "chip": "ym2612"
    },
    {
      "channel": 2,
      "note": 52,
      "start": 34.7312,
      "duration": 0.014,
      "velocity": 100,
      "chip": "ym2612"
    },
    {
      "channel": 0,
      "note": 39,
      "start": 34.7413,
      "duration": 0.0161,
      "velocity": 115,
      "chip": "ym2612"
    },
    {
      "channel": 4,
      "note": 86,
      "start": 34.7425,
      "duration": 0.0161,
      "velocity": 97,
      "chip": "ym2612"
    },
    {
      "channel": 3,
      "note": 86,
      "start": 34.7437,
      "duration": 0.016,
      "velocity": 97,
      "chip": "ym2612"
    },
    {
      "channel": 2,
      "note": 52,
      "start": 34.7452,
      "duration": 0.0184,
      "velocity": 100,
      "chip": "ym2612"
    },
    {
      "channel": 0,
      "note": 40,
      "start": 34.7574,
      "duration": 0.0161,
      "velocity": 115,
      "chip": "ym2612"
    },
    {
      "channel": 4,
      "note": 86,
      "start": 34.7586,
      "duration": 0.0163,
      "velocity": 97,
      "chip": "ym2612"
    },
    {
      "channel": 3,
      "note": 86,
      "start": 34.7597,
      "duration": 0.0162,
      "velocity": 97,
      "chip": "ym2612"
    },
    {
      "channel": 2,
      "note": 52,
      "start": 34.7636,
      "duration": 0.0135,
      "velocity": 100,
      "chip": "ym2612"
    },
    {
      "channel": 0,
      "note": 40,
      "start": 34.7735,
      "duration": 0.0161,
      "velocity": 115,
      "chip": "ym2612"
    },
    {
      "channel": 4,
      "note": 86,
      "start": 34.7749,
      "duration": 0.016,
      "velocity": 97,
      "chip": "ym2612"
    },
    {
      "channel": 3,
      "note": 86,
      "start": 34.776,
      "duration": 0.016,
      "velocity": 97,
      "chip": "ym2612"
    },
    {
      "channel": 2,
      "note": 52,
      "start": 34.7771,
      "duration": 0.016,
      "velocity": 100,
      "chip": "ym2612"
    },
    {
      "channel": 0,
      "note": 40,
      "start": 34.7897,
      "duration": 0.0161,
      "velocity": 115,
      "chip": "ym2612"
    },
    {
      "channel": 4,
      "note": 86,
      "start": 34.7909,
      "duration": 0.016,
      "velocity": 97,
      "chip": "ym2612"
    },
    {
      "channel": 3,
      "note": 86,
      "start": 34.792,
      "duration": 0.016,
      "velocity": 97,
      "chip": "ym2612"
    },
    {
      "channel": 2,
      "note": 52,
      "start": 34.7931,
      "duration": 0.016,
      "velocity": 100,
      "chip": "ym2612"
    },
    {
      "channel": 0,
      "note": 41,
      "start": 34.8058,
      "duration": 0.0178,
      "velocity": 115,
      "chip": "ym2612"
    },
    {
      "channel": 4,
      "note": 86,
      "start": 34.8069,
      "duration": 0.0179,
      "velocity": 97,
      "chip": "ym2612"
    },
    {
      "channel": 3,
      "note": 86,
      "start": 34.808,
      "duration": 0.0181,
      "velocity": 97,
      "chip": "ym2612"
    },
    {
      "channel": 2,
      "note": 52,
      "start": 34.8092,
      "duration": 0.0212,
      "velocity": 100,
      "chip": "ym2612"
    },
    {
      "channel": 0,
      "note": 36,
      "start": 34.8237,
      "duration": 0.0144,
      "velocity": 115,
      "chip": "ym2612"
    },
    {
      "channel": 4,
      "note": 86,
      "start": 34.8248,
      "duration": 0.0144,
      "velocity": 97,
      "chip": "ym2612"
    },
    {
      "channel": 3,
      "note": 83,
      "start": 34.8262,
      "duration": 0.0141,
      "velocity": 97,
      "chip": "ym2612"
    },
    {
      "channel": 2,
      "note": 52,
      "start": 34.8304,
      "duration": 0.0111,
      "velocity": 100,
      "chip": "ym2612"
    },
    {
      "channel": 0,
      "note": 36,
      "start": 34.838,
      "duration": 0.016,
      "velocity": 115,
      "chip": "ym2612"
    },
    {
      "channel": 4,
      "note": 86,
      "start": 34.8392,
      "duration": 0.016,
      "velocity": 97,
      "chip": "ym2612"
    },
    {
      "channel": 3,
      "note": 83,
      "start": 34.8403,
      "duration": 0.016,
      "velocity": 97,
      "chip": "ym2612"
    },
    {
      "channel": 2,
      "note": 52,
      "start": 34.8415,
      "duration": 0.016,
      "velocity": 100,
      "chip": "ym2612"
    },
    {
      "channel": 0,
      "note": 37,
      "start": 34.8541,
      "duration": 0.0161,
      "velocity": 115,
      "chip": "ym2612"
    },
    {
      "channel": 4,
      "note": 86,
      "start": 34.8552,
      "duration": 0.0163,
      "velocity": 97,
      "chip": "ym2612"
    },
    {
      "channel": 3,
      "note": 83,
      "start": 34.8563,
      "duration": 0.0163,
      "velocity": 97,
      "chip": "ym2612"
    },
    {
      "channel": 2,
      "note": 52,
      "start": 34.8575,
      "duration": 0.0163,
      "velocity": 100,
      "chip": "ym2612"
    },
    {
      "channel": 0,
      "note": 37,
      "start": 34.8702,
      "duration": 0.0161,
      "velocity": 115,
      "chip": "ym2612"
    },
    {
      "channel": 4,
      "note": 83,
      "start": 34.8716,
      "duration": 0.0159,
      "velocity": 97,
      "chip": "ym2612"
    },
    {
      "channel": 3,
      "note": 83,
      "start": 34.8727,
      "duration": 0.0159,
      "velocity": 97,
      "chip": "ym2612"
    },
    {
      "channel": 2,
      "note": 52,
      "start": 34.8739,
      "duration": 0.0159,
      "velocity": 100,
      "chip": "ym2612"
    },
    {
      "channel": 0,
      "note": 38,
      "start": 34.8863,
      "duration": 0.0161,
      "velocity": 115,
      "chip": "ym2612"
    },
    {
      "channel": 4,
      "note": 83,
      "start": 34.8875,
      "duration": 0.016,
      "velocity": 97,
      "chip": "ym2612"
    },
    {
      "channel": 3,
      "note": 83,
      "start": 34.8886,
      "duration": 0.016,
      "velocity": 97,
      "chip": "ym2612"
    },
    {
      "channel": 2,
      "note": 52,
      "start": 34.8898,
      "duration": 0.016,
      "velocity": 100,
      "chip": "ym2612"
    },
    {
      "channel": 0,
      "note": 38,
      "start": 34.9024,
      "duration": 0.0161,
      "velocity": 115,
      "chip": "ym2612"
    },
    {
      "channel": 4,
      "note": 83,
      "start": 34.9035,
      "duration": 0.0161,
      "velocity": 97,
      "chip": "ym2612"
    },
    {
      "channel": 3,
      "note": 83,
      "start": 34.9046,
      "duration": 0.0163,
      "velocity": 97,
      "chip": "ym2612"
    },
    {
      "channel": 2,
      "note": 52,
      "start": 34.9058,
      "duration": 0.0163,
      "velocity": 100,
      "chip": "ym2612"
    },
    {
      "channel": 0,
      "note": 39,
      "start": 34.9184,
      "duration": 0.0161,
      "velocity": 115,
      "chip": "ym2612"
    },
    {
      "channel": 4,
      "note": 83,
      "start": 34.9196,
      "duration": 0.0162,
      "velocity": 97,
      "chip": "ym2612"
    },
    {
      "channel": 3,
      "note": 86,
      "start": 34.921,
      "duration": 0.0159,
      "velocity": 97,
      "chip": "ym2612"
    },
    {
      "channel": 2,
      "note": 52,
      "start": 34.9221,
      "duration": 0.0159,
      "velocity": 100,
      "chip": "ym2612"
    },
    {
      "channel": 0,
      "note": 39,
      "start": 34.9345,
      "duration": 0.0162,
      "velocity": 115,
      "chip": "ym2612"
    },
    {
      "channel": 4,
      "note": 83,
      "start": 34.9358,
      "duration": 0.0161,
      "velocity": 97,
      "chip": "ym2612"
    },
    {
      "channel": 3,
      "note": 86,
      "start": 34.9369,
      "duration": 0.0161,
      "velocity": 97,
      "chip": "ym2612"
    },
    {
      "channel": 2,
      "note": 52,
      "start": 34.938,
      "duration": 0.016,
      "velocity": 100,
      "chip": "ym2612"
    },
    {
      "channel": 0,
      "note": 40,
      "start": 34.9507,
      "duration": 0.0161,
      "velocity": 115,
      "chip": "ym2612"
    },
    {
      "channel": 4,
      "note": 83,
      "start": 34.9518,
      "duration": 0.0163,
      "velocity": 97,
      "chip": "ym2612"
    },
    {
      "channel": 3,
      "note": 86,
      "start": 34.953,
      "duration": 0.0163,
      "velocity": 97,
      "chip": "ym2612"
    },
    {
      "channel": 2,
      "note": 52,
      "start": 34.9541,
      "duration": 0.0164,
      "velocity": 100,
      "chip": "ym2612"
    },
    {
      "channel": 0,
      "note": 40,
      "start": 34.9668,
      "duration": 0.0161,
      "velocity": 115,
      "chip": "ym2612"
    },
    {
      "channel": 4,
      "note": 86,
      "start": 34.9682,
      "duration": 0.0159,
      "velocity": 97,
      "chip": "ym2612"
    },
    {
      "channel": 3,
      "note": 86,
      "start": 34.9693,
      "duration": 0.0159,
      "velocity": 97,
      "chip": "ym2612"
    },
    {
      "channel": 2,
      "note": 52,
      "start": 34.9705,
      "duration": 0.0159,
      "velocity": 100,
      "chip": "ym2612"
    },
    {
      "channel": 0,
      "note": 40,
      "start": 34.9829,
      "duration": 0.0161,
      "velocity": 115,
      "chip": "ym2612"
    },
    {
      "channel": 4,
      "note": 86,
      "start": 34.9841,
      "duration": 0.016,
      "velocity": 97,
      "chip": "ym2612"
    },
    {
      "channel": 3,
      "note": 86,
      "start": 34.9852,
      "duration": 0.016,
      "velocity": 97,
      "chip": "ym2612"
    },
    {
      "channel": 2,
      "note": 52,
      "start": 34.9864,
      "duration": 0.016,
      "velocity": 100,
      "chip": "ym2612"
    },
    {
      "channel": 0,
      "note": 41,
      "start": 34.999,
      "duration": 0.0161,
      "velocity": 115,
      "chip": "ym2612"
    },
    {
      "channel": 4,
      "note": 86,
      "start": 35.0001,
      "duration": 0.0161,
      "velocity": 97,
      "chip": "ym2612"
    },
    {
      "channel": 3,
      "note": 86,
      "start": 35.0013,
      "duration": 0.0163,
      "velocity": 97,
      "chip": "ym2612"
    },
    {
      "channel": 2,
      "note": 52,
      "start": 35.0024,
      "duration": 0.0166,
      "velocity": 100,
      "chip": "ym2612"
    },
    {
      "channel": 0,
      "note": 41,
      "start": 35.0151,
      "duration": 0.0169,
      "velocity": 115,
      "chip": "ym2612"
    },
    {
      "channel": 4,
      "note": 86,
      "start": 35.0162,
      "duration": 0.017,
      "velocity": 97,
      "chip": "ym2612"
    },
    {
      "channel": 3,
      "note": 90,
      "start": 35.0176,
      "duration": 0.0167,
      "velocity": 97,
      "chip": "ym2612"
    },
    {
      "channel": 2,
      "note": 52,
      "start": 35.0191,
      "duration": 0.0165,
      "velocity": 100,
      "chip": "ym2612"
    },
    {
      "channel": 0,
      "note": 42,
      "start": 35.032,
      "duration": 0.0167,
      "velocity": 115,
      "chip": "ym2612"
    },
    {
      "channel": 4,
      "note": 86,
      "start": 35.0332,
      "duration": 0.0167,
      "velocity": 97,
      "chip": "ym2612"
    },
    {
      "channel": 3,
      "note": 90,
      "start": 35.0344,
      "duration": 0.0167,
      "velocity": 97,
      "chip": "ym2612"
    },
    {
      "channel": 2,
      "note": 52,
      "start": 35.0356,
      "duration": 0.0166,
      "velocity": 100,
      "chip": "ym2612"
    },
    {
      "channel": 0,
      "note": 42,
      "start": 35.0487,
      "duration": 0.0163,
      "velocity": 115,
      "chip": "ym2612"
    },
    {
      "channel": 4,
      "note": 86,
      "start": 35.0499,
      "duration": 0.0166,
      "velocity": 97,
      "chip": "ym2612"
    },
    {
      "channel": 3,
      "note": 90,
      "start": 35.051,
      "duration": 0.0165,
      "velocity": 97,
      "chip": "ym2612"
    },
    {
      "channel": 2,
      "note": 52,
      "start": 35.0521,
      "duration": 0.0166,
      "velocity": 100,
      "chip": "ym2612"
    },
    {
      "channel": 0,
      "note": 43,
      "start": 35.065,
      "duration": 0.0146,
      "velocity": 115,
      "chip": "ym2612"
    },
    {
      "channel": 4,
      "note": 90,
      "start": 35.0664,
      "duration": 0.0144,
      "velocity": 97,
      "chip": "ym2612"
    },
    {
      "channel": 3,
      "note": 90,
      "start": 35.0676,
      "duration": 0.0144,
      "velocity": 97,
      "chip": "ym2612"
    },
    {
      "channel": 2,
      "note": 52,
      "start": 35.0687,
      "duration": 0.0144,
      "velocity": 100,
      "chip": "ym2612"
    },
    {
      "channel": 0,
      "note": 43,
      "start": 35.0796,
      "duration": 0.0187,
      "velocity": 115,
      "chip": "ym2612"
    },
    {
      "channel": 4,
      "note": 90,
      "start": 35.0809,
      "duration": 0.0186,
      "velocity": 97,
      "chip": "ym2612"
    },
    {
      "channel": 3,
      "note": 90,
      "start": 35.082,
      "duration": 0.0186,
      "velocity": 97,
      "chip": "ym2612"
    },
    {
      "channel": 2,
      "note": 52,
      "start": 35.0832,
      "duration": 0.0186,
      "velocity": 100,
      "chip": "ym2612"
    },
    {
      "channel": 0,
      "note": 44,
      "start": 35.0983,
      "duration": 0.0161,
      "velocity": 115,
      "chip": "ym2612"
    },
    {
      "channel": 4,
      "note": 90,
      "start": 35.0995,
      "duration": 0.0161,
      "velocity": 97,
      "chip": "ym2612"
    },
    {
      "channel": 3,
      "note": 90,
      "start": 35.1006,
      "duration": 0.0162,
      "velocity": 97,
      "chip": "ym2612"
    },
    {
      "channel": 2,
      "note": 52,
      "start": 35.1017,
      "duration": 0.0163,
      "velocity": 100,
      "chip": "ym2612"
    },
    {
      "channel": 0,
      "note": 44,
      "start": 35.1144,
      "duration": 0.0157,
      "velocity": 115,
      "chip": "ym2612"
    },
    {
      "channel": 4,
      "note": 90,
      "start": 35.1156,
      "duration": 0.0158,
      "velocity": 97,
      "chip": "ym2612"
    },
    {
      "channel": 3,
      "note": 90,
      "start": 35.1168,
      "duration": 0.0156,
      "velocity": 97,
      "chip": "ym2612"
    },
    {
      "channel": 2,
      "note": 52,
      "start": 35.118,
      "duration": 0.0156,
      "velocity": 100,
      "chip": "ym2612"
    },
    {
      "channel": 0,
      "note": 44,
      "start": 35.1302,
      "duration": 0.0137,
      "velocity": 115,
      "chip": "ym2612"
    },
    {
      "channel": 4,
      "note": 90,
      "start": 35.1314,
      "duration": 0.014,
      "velocity": 97,
      "chip": "ym2612"
    },
    {
      "channel": 3,
      "note": 90,
      "start": 35.1325,
      "duration": 0.014,
      "velocity": 97,
      "chip": "ym2612"
    },
    {
      "channel": 2,
      "note": 52,
      "start": 35.1337,
      "duration": 0.014,
      "velocity": 100,
      "chip": "ym2612"
    },
    {
      "channel": 0,
      "note": 45,
      "start": 35.1439,
      "duration": 0.0161,
      "velocity": 115,
      "chip": "ym2612"
    },
    {
      "channel": 4,
      "note": 90,
      "start": 35.1454,
      "duration": 0.0186,
      "velocity": 97,
      "chip": "ym2612"
    },
    {
      "channel": 3,
      "note": 90,
      "start": 35.1465,
      "duration": 0.0186,
      "velocity": 97,
      "chip": "ym2612"
    },
    {
      "channel": 2,
      "note": 52,
      "start": 35.1476,
      "duration": 0.0186,
      "velocity": 100,
      "chip": "ym2612"
    },
    {
      "channel": 0,
      "note": 45,
      "start": 35.16,
      "duration": 0.0161,
      "velocity": 115,
      "chip": "ym2612"
    },
    {
      "channel": 4,
      "note": 90,
      "start": 35.164,
      "duration": 0.0133,
      "velocity": 97,
      "chip": "ym2612"
    },
    {
      "channel": 3,
      "note": 90,
      "start": 35.1651,
      "duration": 0.016,
      "velocity": 97,
      "chip": "ym2612"
    },
    {
      "channel": 2,
      "note": 52,
      "start": 35.1663,
      "duration": 0.016,
      "velocity": 100,
      "chip": "ym2612"
    },
    {
      "channel": 0,
      "note": 46,
      "start": 35.1761,
      "duration": 0.0161,
      "velocity": 115,
      "chip": "ym2612"
    },
    {
      "channel": 4,
      "note": 90,
      "start": 35.1773,
      "duration": 0.016,
      "velocity": 97,
      "chip": "ym2612"
    },
    {
      "channel": 3,
      "note": 90,
      "start": 35.1812,
      "duration": 0.0156,
      "velocity": 97,
      "chip": "ym2612"
    },
    {
      "channel": 2,
      "note": 52,
      "start": 35.1823,
      "duration": 0.0156,
      "velocity": 100,
      "chip": "ym2612"
    },
    {
      "channel": 0,
      "note": 46,
      "start": 35.1922,
      "duration": 0.0179,
      "velocity": 124,
      "chip": "ym2612"
    },
    {
      "channel": 4,
      "note": 90,
      "start": 35.1933,
      "duration": 0.0183,
      "velocity": 97,
      "chip": "ym2612"
    },
    {
      "channel": 3,
      "note": 90,
      "start": 35.1968,
      "duration": 0.0161,
      "velocity": 97,
      "chip": "ym2612"
    },
    {
      "channel": 2,
      "note": 52,
      "start": 35.198,
      "duration": 0.0164,
      "velocity": 100,
      "chip": "ym2612"
    },
    {
      "channel": 0,
      "note": 84,
      "start": 35.2101,
      "duration": 0.0144,
      "velocity": 124,
      "chip": "ym2612"
    },
    {
      "channel": 4,
      "note": 90,
      "start": 35.2116,
      "duration": 0.014,
      "velocity": 97,
      "chip": "ym2612"
    },
    {
      "channel": 3,
      "note": 86,
      "start": 35.213,
      "duration": 0.0138,
      "velocity": 97,
      "chip": "ym2612"
    },
    {
      "channel": 2,
      "note": 52,
      "start": 35.2144,
      "duration": 0.0163,
      "velocity": 100,
      "chip": "ym2612"
    },
    {
      "channel": 0,
      "note": 82,
      "start": 35.2245,
      "duration": 0.016,
      "velocity": 124,
      "chip": "ym2612"
    },
    {
      "channel": 4,
      "note": 90,
      "start": 35.2256,
      "duration": 0.016,
      "velocity": 97,
      "chip": "ym2612"
    },
    {
      "channel": 3,
      "note": 86,
      "start": 35.2268,
      "duration": 0.016,
      "velocity": 97,
      "chip": "ym2612"
    },
    {
      "channel": 2,
      "note": 52,
      "start": 35.2307,
      "duration": 0.0132,
      "velocity": 100,
      "chip": "ym2612"
    },
    {
      "channel": 0,
      "note": 80,
      "start": 35.2405,
      "duration": 0.0161,
      "velocity": 124,
      "chip": "ym2612"
    },
    {
      "channel": 4,
      "note": 90,
      "start": 35.2417,
      "duration": 0.0163,
      "velocity": 97,
      "chip": "ym2612"
    },
    {
      "channel": 3,
      "note": 86,
      "start": 35.2428,
      "duration": 0.0163,
      "velocity": 97,
      "chip": "ym2612"
    },
    {
      "channel": 2,
      "note": 52,
      "start": 35.2439,
      "duration": 0.0164,
      "velocity": 100,
      "chip": "ym2612"
    },
    {
      "channel": 0,
      "note": 77,
      "start": 35.2566,
      "duration": 0.0161,
      "velocity": 124,
      "chip": "ym2612"
    },
    {
      "channel": 4,
      "note": 86,
      "start": 35.258,
      "duration": 0.0159,
      "velocity": 97,
      "chip": "ym2612"
    },
    {
      "channel": 3,
      "note": 86,
      "start": 35.2592,
      "duration": 0.0159,
      "velocity": 97,
      "chip": "ym2612"
    },
    {
      "channel": 2,
      "note": 52,
      "start": 35.2603,
      "duration": 0.0159,
      "velocity": 100,
      "chip": "ym2612"
    },
    {
      "channel": 0,
      "note": 75,
      "start": 35.2727,
      "duration": 0.0161,
      "velocity": 124,
      "chip": "ym2612"
    },
    {
      "channel": 4,
      "note": 86,
      "start": 35.2739,
      "duration": 0.016,
      "velocity": 97,
      "chip": "ym2612"
    },
    {
      "channel": 3,
      "note": 86,
      "start": 35.2751,
      "duration": 0.016,
      "velocity": 97,
      "chip": "ym2612"
    },
    {
      "channel": 2,
      "note": 52,
      "start": 35.2762,
      "duration": 0.016,
      "velocity": 100,
      "chip": "ym2612"
    },
    {
      "channel": 0,
      "note": 72,
      "start": 35.2888,
      "duration": 0.0161,
      "velocity": 124,
      "chip": "ym2612"
    },
    {
      "channel": 4,
      "note": 86,
      "start": 35.29,
      "duration": 0.0161,
      "velocity": 97,
      "chip": "ym2612"
    },
    {
      "channel": 3,
      "note": 86,
      "start": 35.2911,
      "duration": 0.0163,
      "velocity": 97,
      "chip": "ym2612"
    },
    {
      "channel": 2,
      "note": 52,
      "start": 35.2922,
      "duration": 0.0163,
      "velocity": 100,
      "chip": "ym2612"
    },
    {
      "channel": 0,
      "note": 70,
      "start": 35.3049,
      "duration": 0.0161,
      "velocity": 124,
      "chip": "ym2612"
    },
    {
      "channel": 4,
      "note": 86,
      "start": 35.306,
      "duration": 0.0161,
      "velocity": 97,
      "chip": "ym2612"
    },
    {
      "channel": 3,
      "note": 90,
      "start": 35.3074,
      "duration": 0.0159,
      "velocity": 97,
      "chip": "ym2612"
    },
    {
      "channel": 2,
      "note": 52,
      "start": 35.3086,
      "duration": 0.0159,
      "velocity": 100,
      "chip": "ym2612"
    },
    {
      "channel": 0,
      "note": 68,
      "start": 35.321,
      "duration": 0.0161,
      "velocity": 124,
      "chip": "ym2612"
    },
    {
      "channel": 4,
      "note": 86,
      "start": 35.3221,
      "duration": 0.0161,
      "velocity": 97,
      "chip": "ym2612"
    },
    {
      "channel": 3,
      "note": 90,
      "start": 35.3233,
      "duration": 0.016,
      "velocity": 97,
      "chip": "ym2612"
    },
    {
      "channel": 2,
      "note": 52,
      "start": 35.3245,
      "duration": 0.016,
      "velocity": 100,
      "chip": "ym2612"
    },
    {
      "channel": 0,
      "note": 65,
      "start": 35.3371,
      "duration": 0.0161,
      "velocity": 124,
      "chip": "ym2612"
    },
    {
      "channel": 4,
      "note": 86,
      "start": 35.3382,
      "duration": 0.0163,
      "velocity": 97,
      "chip": "ym2612"
    },
    {
      "channel": 3,
      "note": 90,
      "start": 35.3394,
      "duration": 0.0163,
      "velocity": 97,
      "chip": "ym2612"
    },
    {
      "channel": 2,
      "note": 52,
      "start": 35.3405,
      "duration": 0.0163,
      "velocity": 100,
      "chip": "ym2612"
    },
    {
      "channel": 0,
      "note": 63,
      "start": 35.3532,
      "duration": 0.0153,
      "velocity": 1,
      "chip": "ym2612"
    },
    {
      "channel": 4,
      "note": 90,
      "start": 35.3546,
      "duration": 0.0151,
      "velocity": 97,
      "chip": "ym2612"
    },
    {
      "channel": 3,
      "note": 90,
      "start": 35.3557,
      "duration": 0.0151,
      "velocity": 97,
      "chip": "ym2612"
    },
    {
      "channel": 2,
      "note": 52,
      "start": 35.3569,
      "duration": 0.0151,
      "velocity": 100,
      "chip": "ym2612"
    },
    {
      "channel": 4,
      "note": 90,
      "start": 35.3697,
      "duration": 0.0152,
      "velocity": 97,
      "chip": "ym2612"
    },
    {
      "channel": 3,
      "note": 90,
      "start": 35.3709,
      "duration": 0.0152,
      "velocity": 97,
      "chip": "ym2612"
    },
    {
      "channel": 2,
      "note": 52,
      "start": 35.372,
      "duration": 0.0152,
      "velocity": 100,
      "chip": "ym2612"
    },
    {
      "channel": 4,
      "note": 90,
      "start": 35.3849,
      "duration": 0.0161,
      "velocity": 97,
      "chip": "ym2612"
    },
    {
      "channel": 3,
      "note": 90,
      "start": 35.3861,
      "duration": 0.0163,
      "velocity": 97,
      "chip": "ym2612"
    },
    {
      "channel": 2,
      "note": 52,
      "start": 35.3871,
      "duration": 0.0167,
      "velocity": 100,
      "chip": "ym2612"
    },
    {
      "channel": 4,
      "note": 90,
      "start": 35.401,
      "duration": 0.0161,
      "velocity": 97,
      "chip": "ym2612"
    },
    {
      "channel": 3,
      "note": 92,
      "start": 35.4024,
      "duration": 0.0159,
      "velocity": 97,
      "chip": "ym2612"
    },
    {
      "channel": 2,
      "note": 52,
      "start": 35.4039,
      "duration": 0.0156,
      "velocity": 100,
      "chip": "ym2612"
    },
    {
      "channel": 4,
      "note": 90,
      "start": 35.4171,
      "duration": 0.0161,
      "velocity": 97,
      "chip": "ym2612"
    },
    {
      "channel": 3,
      "note": 92,
      "start": 35.4183,
      "duration": 0.016,
      "velocity": 97,
      "chip": "ym2612"
    },
    {
      "channel": 2,
      "note": 52,
      "start": 35.4195,
      "duration": 0.016,
      "velocity": 100,
      "chip": "ym2612"
    },
    {
      "channel": 4,
      "note": 90,
      "start": 35.4332,
      "duration": 0.0163,
      "velocity": 97,
      "chip": "ym2612"
    },
    {
      "channel": 3,
      "note": 92,
      "start": 35.4344,
      "duration": 0.0163,
      "velocity": 97,
      "chip": "ym2612"
    },
    {
      "channel": 2,
      "note": 52,
      "start": 35.4355,
      "duration": 0.0163,
      "velocity": 100,
      "chip": "ym2612"
    },
    {
      "channel": 4,
      "note": 92,
      "start": 35.4495,
      "duration": 0.0159,
      "velocity": 97,
      "chip": "ym2612"
    },
    {
      "channel": 3,
      "note": 92,
      "start": 35.4507,
      "duration": 0.0159,
      "velocity": 97,
      "chip": "ym2612"
    },
    {
      "channel": 2,
      "note": 52,
      "start": 35.4518,
      "duration": 0.0159,
      "velocity": 100,
      "chip": "ym2612"
    },
    {
      "channel": 4,
      "note": 92,
      "start": 35.4655,
      "duration": 0.016,
      "velocity": 97,
      "chip": "ym2612"
    },
    {
      "channel": 3,
      "note": 92,
      "start": 35.4666,
      "duration": 0.016,
      "velocity": 97,
      "chip": "ym2612"
    },
    {
      "channel": 2,
      "note": 52,
      "start": 35.4678,
      "duration": 0.016,
      "velocity": 100,
      "chip": "ym2612"
    },
    {
      "channel": 4,
      "note": 92,
      "start": 35.4815,
      "duration": 0.0167,
      "velocity": 97,
      "chip": "ym2612"
    },
    {
      "channel": 3,
      "note": 92,
      "start": 35.4826,
      "duration": 0.0168,
      "velocity": 97,
      "chip": "ym2612"
    },
    {
      "channel": 2,
      "note": 52,
      "start": 35.4838,
      "duration": 0.0168,
      "velocity": 100,
      "chip": "ym2612"
    },
    {
      "channel": 4,
      "note": 92,
      "start": 35.4982,
      "duration": 0.0167,
      "velocity": 97,
      "chip": "ym2612"
    },
    {
      "channel": 3,
      "note": 92,
      "start": 35.4995,
      "duration": 0.0166,
      "velocity": 97,
      "chip": "ym2612"
    },
    {
      "channel": 2,
      "note": 52,
      "start": 35.5006,
      "duration": 0.0166,
      "velocity": 100,
      "chip": "ym2612"
    },
    {
      "channel": 4,
      "note": 92,
      "start": 35.5149,
      "duration": 0.0163,
      "velocity": 97,
      "chip": "ym2612"
    },
    {
      "channel": 3,
      "note": 92,
      "start": 35.5161,
      "duration": 0.0162,
      "velocity": 97,
      "chip": "ym2612"
    },
    {
      "channel": 2,
      "note": 52,
      "start": 35.5172,
      "duration": 0.0163,
      "velocity": 100,
      "chip": "ym2612"
    },
    {
      "channel": 4,
      "note": 92,
      "start": 35.5312,
      "duration": 0.0149,
      "velocity": 97,
      "chip": "ym2612"
    },
    {
      "channel": 3,
      "note": 92,
      "start": 35.5323,
      "duration": 0.0149,
      "velocity": 97,
      "chip": "ym2612"
    },
    {
      "channel": 2,
      "note": 52,
      "start": 35.5335,
      "duration": 0.0148,
      "velocity": 100,
      "chip": "ym2612"
    },
    {
      "channel": 4,
      "note": 92,
      "start": 35.5461,
      "duration": 0.0188,
      "velocity": 97,
      "chip": "ym2612"
    },
    {
      "channel": 3,
      "note": 92,
      "start": 35.5472,
      "duration": 0.0188,
      "velocity": 97,
      "chip": "ym2612"
    },
    {
      "channel": 2,
      "note": 52,
      "start": 35.5483,
      "duration": 0.0188,
      "velocity": 100,
      "chip": "ym2612"
    },
    {
      "channel": 4,
      "note": 92,
      "start": 35.5648,
      "duration": 0.016,
      "velocity": 97,
      "chip": "ym2612"
    },
    {
      "channel": 3,
      "note": 92,
      "start": 35.566,
      "duration": 0.016,
      "velocity": 97,
      "chip": "ym2612"
    },
    {
      "channel": 2,
      "note": 52,
      "start": 35.5671,
      "duration": 0.0161,
      "velocity": 100,
      "chip": "ym2612"
    },
    {
      "channel": 4,
      "note": 92,
      "start": 35.5809,
      "duration": 0.0192,
      "velocity": 97,
      "chip": "ym2612"
    },
    {
      "channel": 3,
      "note": 92,
      "start": 35.582,
      "duration": 0.0194,
      "velocity": 97,
      "chip": "ym2612"
    },
    {
      "channel": 2,
      "note": 52,
      "start": 35.5832,
      "duration": 0.0197,
      "velocity": 100,
      "chip": "ym2612"
    },
    {
      "channel": 0,
      "note": 36,
      "start": 35.5989,
      "duration": 0.0123,
      "velocity": 115,
      "chip": "ym2612"
    },
    {
      "channel": 4,
      "note": 92,
      "start": 35.6001,
      "duration": 0.0123,
      "velocity": 97,
      "chip": "ym2612"
    },
    {
      "channel": 3,
      "note": 92,
      "start": 35.6015,
      "duration": 0.0121,
      "velocity": 97,
      "chip": "ym2612"
    },
    {
      "channel": 2,
      "note": 52,
      "start": 35.6029,
      "duration": 0.0118,
      "velocity": 100,
      "chip": "ym2612"
    },
    {
      "channel": 0,
      "note": 36,
      "start": 35.6112,
      "duration": 0.0157,
      "velocity": 115,
      "chip": "ym2612"
    },
    {
      "channel": 4,
      "note": 92,
      "start": 35.6123,
      "duration": 0.0185,
      "velocity": 97,
      "chip": "ym2612"
    },
    {
      "channel": 3,
      "note": 92,
      "start": 35.6135,
      "duration": 0.0184,
      "velocity": 97,
      "chip": "ym2612"
    },
    {
      "channel": 2,
      "note": 52,
      "start": 35.6148,
      "duration": 0.0183,
      "velocity": 100,
      "chip": "ym2612"
    },
    {
      "channel": 0,
      "note": 37,
      "start": 35.6269,
      "duration": 0.0161,
      "velocity": 115,
      "chip": "ym2612"
    },
    {
      "channel": 4,
      "note": 92,
      "start": 35.6309,
      "duration": 0.0163,
      "velocity": 97,
      "chip": "ym2612"
    },
    {
      "channel": 3,
      "note": 92,
      "start": 35.6319,
      "duration": 0.0164,
      "velocity": 97,
      "chip": "ym2612"
    },
    {
      "channel": 2,
      "note": 52,
      "start": 35.6331,
      "duration": 0.0163,
      "velocity": 100,
      "chip": "ym2612"
    },
    {
      "channel": 0,
      "note": 37,
      "start": 35.643,
      "duration": 0.0162,
      "velocity": 115,
      "chip": "ym2612"
    },
    {
      "channel": 4,
      "note": 92,
      "start": 35.6472,
      "duration": 0.0132,
      "velocity": 97,
      "chip": "ym2612"
    },
    {
      "channel": 3,
      "note": 92,
      "start": 35.6483,
      "duration": 0.0155,
      "velocity": 97,
      "chip": "ym2612"
    },
    {
      "channel": 2,
      "note": 52,
      "start": 35.6494,
      "duration": 0.0156,
      "velocity": 100,
      "chip": "ym2612"
    },
    {
      "channel": 0,
      "note": 38,
      "start": 35.6592,
      "duration": 0.0161,
      "velocity": 115,
      "chip": "ym2612"
    },
    {
      "channel": 4,
      "note": 92,
      "start": 35.6604,
      "duration": 0.016,
      "velocity": 97,
      "chip": "ym2612"
    },
    {
      "channel": 3,
      "note": 92,
      "start": 35.6639,
      "duration": 0.014,
      "velocity": 97,
      "chip": "ym2612"
    },
    {
      "channel": 2,
      "note": 52,
      "start": 35.665,
      "duration": 0.014,
      "velocity": 100,
      "chip": "ym2612"
    },
    {
      "channel": 0,
      "note": 38,
      "start": 35.6753,
      "duration": 0.0161,
      "velocity": 115,
      "chip": "ym2612"
    },
    {
      "channel": 4,
      "note": 92,
      "start": 35.6764,
      "duration": 0.0161,
      "velocity": 97,
      "chip": "ym2612"
    },
    {
      "channel": 3,
      "note": 92,
      "start": 35.6779,
      "duration": 0.016,
      "velocity": 97,
      "chip": "ym2612"
    },
    {
      "channel": 2,
      "note": 52,
      "start": 35.679,
      "duration": 0.0188,
      "velocity": 100,
      "chip": "ym2612"
    },
    {
      "channel": 0,
      "note": 39,
      "start": 35.6913,
      "duration": 0.0161,
      "velocity": 115,
      "chip": "ym2612"
    },
    {
      "channel": 4,
      "note": 92,
      "start": 35.6925,
      "duration": 0.0161,
      "velocity": 97,
      "chip": "ym2612"
    },
    {
      "channel": 3,
      "note": 92,
      "start": 35.6939,
      "duration": 0.0159,
      "velocity": 97,
      "chip": "ym2612"
    },
    {
      "channel": 2,
      "note": 52,
      "start": 35.6978,
      "duration": 0.0159,
      "velocity": 100,
      "chip": "ym2612"
    },
    {
      "channel": 0,
      "note": 39,
      "start": 35.7074,
      "duration": 0.0161,
      "velocity": 115,
      "chip": "ym2612"
    },
    {
      "channel": 4,
      "note": 92,
      "start": 35.7086,
      "duration": 0.0161,
      "velocity": 97,
      "chip": "ym2612"
    },
    {
      "channel": 3,
      "note": 92,
      "start": 35.7098,
      "duration": 0.016,
      "velocity": 97,
      "chip": "ym2612"
    },
    {
      "channel": 2,
      "note": 52,
      "start": 35.7137,
      "duration": 0.0133,
      "velocity": 100,
      "chip": "ym2612"
    },
    {
      "channel": 0,
      "note": 40,
      "start": 35.7235,
      "duration": 0.0161,
      "velocity": 115,
      "chip": "ym2612"
    },
    {
      "channel": 4,
      "note": 92,
      "start": 35.7247,
      "duration": 0.0163,
      "velocity": 97,
      "chip": "ym2612"
    },
    {
      "channel": 3,
      "note": 92,
      "start": 35.7258,
      "duration": 0.0163,
      "velocity": 97,
      "chip": "ym2612"
    },
    {
      "channel": 2,
      "note": 52,
      "start": 35.727,
      "duration": 0.0163,
      "velocity": 100,
      "chip": "ym2612"
    },
    {
      "channel": 0,
      "note": 40,
      "start": 35.7396,
      "duration": 0.0161,
      "velocity": 115,
      "chip": "ym2612"
    },
    {
      "channel": 4,
      "note": 92,
      "start": 35.741,
      "duration": 0.0159,
      "velocity": 97,
      "chip": "ym2612"
    },
    {
      "channel": 3,
      "note": 92,
      "start": 35.7422,
      "duration": 0.0159,
      "velocity": 97,
      "chip": "ym2612"
    },
    {
      "channel": 2,
      "note": 52,
      "start": 35.7433,
      "duration": 0.0159,
      "velocity": 100,
      "chip": "ym2612"
    },
    {
      "channel": 0,
      "note": 40,
      "start": 35.7557,
      "duration": 0.0161,
      "velocity": 115,
      "chip": "ym2612"
    },
    {
      "channel": 4,
      "note": 92,
      "start": 35.7569,
      "duration": 0.016,
      "velocity": 97,
      "chip": "ym2612"
    },
    {
      "channel": 3,
      "note": 92,
      "start": 35.7581,
      "duration": 0.016,
      "velocity": 97,
      "chip": "ym2612"
    },
    {
      "channel": 2,
      "note": 52,
      "start": 35.7592,
      "duration": 0.016,
      "velocity": 100,
      "chip": "ym2612"
    },
    {
      "channel": 0,
      "note": 41,
      "start": 35.7718,
      "duration": 0.0161,
      "velocity": 115,
      "chip": "ym2612"
    },
    {
      "channel": 4,
      "note": 92,
      "start": 35.773,
      "duration": 0.0161,
      "velocity": 97,
      "chip": "ym2612"
    },
    {
      "channel": 3,
      "note": 92,
      "start": 35.7741,
      "duration": 0.0163,
      "velocity": 97,
      "chip": "ym2612"
    },
    {
      "channel": 2,
      "note": 52,
      "start": 35.7753,
      "duration": 0.0166,
      "velocity": 100,
      "chip": "ym2612"
    },
    {
      "channel": 0,
      "note": 41,
      "start": 35.7879,
      "duration": 0.0161,
      "velocity": 115,
      "chip": "ym2612"
    },
    {
      "channel": 4,
      "note": 92,
      "start": 35.789,
      "duration": 0.0162,
      "velocity": 97,
      "chip": "ym2612"
    },
    {
      "channel": 3,
      "note": 88,
      "start": 35.7905,
      "duration": 0.0159,
      "velocity": 97,
      "chip": "ym2612"
    },
    {
      "channel": 2,
      "note": 52,
      "start": 35.7919,
      "duration": 0.0156,
      "velocity": 100,
      "chip": "ym2612"
    },
    {
      "channel": 0,
      "note": 42,
      "start": 35.804,
      "duration": 0.0161,
      "velocity": 115,
      "chip": "ym2612"
    },
    {
      "channel": 4,
      "note": 92,
      "start": 35.8052,
      "duration": 0.0161,
      "velocity": 97,
      "chip": "ym2612"
    },
    {
      "channel": 3,
      "note": 88,
      "start": 35.8063,
      "duration": 0.0161,
      "velocity": 97,
      "chip": "ym2612"
    },
    {
      "channel": 2,
      "note": 52,
      "start": 35.8076,
      "duration": 0.016,
      "velocity": 100,
      "chip": "ym2612"
    },
    {
      "channel": 0,
      "note": 42,
      "start": 35.8202,
      "duration": 0.0161,
      "velocity": 115,
      "chip": "ym2612"
    },
    {
      "channel": 4,
      "note": 92,
      "start": 35.8213,
      "duration": 0.0163,
      "velocity": 97,
      "chip": "ym2612"
    },
    {
      "channel": 3,
      "note": 88,
      "start": 35.8224,
      "duration": 0.0163,
      "velocity": 97,
      "chip": "ym2612"
    },
    {
      "channel": 2,
      "note": 52,
      "start": 35.8235,
      "duration": 0.0163,
      "velocity": 100,
      "chip": "ym2612"
    },
    {
      "channel": 0,
      "note": 43,
      "start": 35.8363,
      "duration": 0.0161,
      "velocity": 115,
      "chip": "ym2612"
    },
    {
      "channel": 4,
      "note": 88,
      "start": 35.8377,
      "duration": 0.0159,
      "velocity": 97,
      "chip": "ym2612"
    },
    {
      "channel": 3,
      "note": 88,
      "start": 35.8388,
      "duration": 0.0159,
      "velocity": 97,
      "chip": "ym2612"
    },
    {
      "channel": 2,
      "note": 52,
      "start": 35.8399,
      "duration": 0.0159,
      "velocity": 100,
      "chip": "ym2612"
    },
    {
      "channel": 0,
      "note": 43,
      "start": 35.8524,
      "duration": 0.0161,
      "velocity": 115,
      "chip": "ym2612"
    },
    {
      "channel": 4,
      "note": 88,
      "start": 35.8536,
      "duration": 0.016,
      "velocity": 97,
      "chip": "ym2612"
    },
    {
      "channel": 3,
      "note": 88,
      "start": 35.8547,
      "duration": 0.016,
      "velocity": 97,
      "chip": "ym2612"
    },
    {
      "channel": 2,
      "note": 52,
      "start": 35.8558,
      "duration": 0.0161,
      "velocity": 100,
      "chip": "ym2612"
    },
    {
      "channel": 0,
      "note": 44,
      "start": 35.8684,
      "duration": 0.0161,
      "velocity": 115,
      "chip": "ym2612"
    },
    {
      "channel": 4,
      "note": 88,
      "start": 35.8696,
      "duration": 0.0161,
      "velocity": 97,
      "chip": "ym2612"
    },
    {
      "channel": 3,
      "note": 88,
      "start": 35.8707,
      "duration": 0.0162,
      "velocity": 97,
      "chip": "ym2612"
    },
    {
      "channel": 2,
      "note": 52,
      "start": 35.8719,
      "duration": 0.0162,
      "velocity": 100,
      "chip": "ym2612"
    },
    {
      "channel": 0,
      "note": 44,
      "start": 35.8845,
      "duration": 0.0161,
      "velocity": 115,
      "chip": "ym2612"
    },
    {
      "channel": 4,
      "note": 88,
      "start": 35.8857,
      "duration": 0.0161,
      "velocity": 97,
      "chip": "ym2612"
    },
    {
      "channel": 3,
      "note": 88,
      "start": 35.887,
      "duration": 0.016,
      "velocity": 97,
      "chip": "ym2612"
    },
    {
      "channel": 2,
      "note": 52,
      "start": 35.8881,
      "duration": 0.016,
      "velocity": 100,
      "chip": "ym2612"
    },
    {
      "channel": 0,
      "note": 44,
      "start": 35.9006,
      "duration": 0.0161,
      "velocity": 115,
      "chip": "ym2612"
    },
    {
      "channel": 4,
      "note": 88,
      "start": 35.9018,
      "duration": 0.0161,
      "velocity": 97,
      "chip": "ym2612"
    },
    {
      "channel": 3,
      "note": 88,
      "start": 35.903,
      "duration": 0.016,
      "velocity": 97,
      "chip": "ym2612"
    },
    {
      "channel": 2,
      "note": 52,
      "start": 35.9041,
      "duration": 0.016,
      "velocity": 100,
      "chip": "ym2612"
    },
    {
      "channel": 0,
      "note": 45,
      "start": 35.9167,
      "duration": 0.0161,
      "velocity": 115,
      "chip": "ym2612"
    },
    {
      "channel": 4,
      "note": 88,
      "start": 35.9179,
      "duration": 0.0162,
      "velocity": 97,
      "chip": "ym2612"
    },
    {
      "channel": 3,
      "note": 88,
      "start": 35.919,
      "duration": 0.0162,
      "velocity": 97,
      "chip": "ym2612"
    },
    {
      "channel": 2,
      "note": 52,
      "start": 35.9202,
      "duration": 0.0162,
      "velocity": 100,
      "chip": "ym2612"
    },
    {
      "channel": 0,
      "note": 45,
      "start": 35.9328,
      "duration": 0.0161,
      "velocity": 115,
      "chip": "ym2612"
    },
    {
      "channel": 4,
      "note": 88,
      "start": 35.9341,
      "duration": 0.016,
      "velocity": 97,
      "chip": "ym2612"
    },
    {
      "channel": 3,
      "note": 88,
      "start": 35.9352,
      "duration": 0.016,
      "velocity": 97,
      "chip": "ym2612"
    },
    {
      "channel": 2,
      "note": 52,
      "start": 35.9364,
      "duration": 0.016,
      "velocity": 100,
      "chip": "ym2612"
    },
    {
      "channel": 0,
      "note": 46,
      "start": 35.9489,
      "duration": 0.0165,
      "velocity": 115,
      "chip": "ym2612"
    },
    {
      "channel": 4,
      "note": 88,
      "start": 35.9501,
      "duration": 0.0164,
      "velocity": 97,
      "chip": "ym2612"
    },
    {
      "channel": 3,
      "note": 88,
      "start": 35.9513,
      "duration": 0.0163,
      "velocity": 97,
      "chip": "ym2612"
    },
    {
      "channel": 2,
      "note": 52,
      "start": 35.9524,
      "duration": 0.0163,
      "velocity": 100,
      "chip": "ym2612"
    },
    {
      "channel": 0,
      "note": 46,
      "start": 35.9654,
      "duration": 0.0184,
      "velocity": 124,
      "chip": "ym2612"
    },
    {
      "channel": 4,
      "note": 88,
      "start": 35.9665,
      "duration": 0.0185,
      "velocity": 97,
      "chip": "ym2612"
    },
    {
      "channel": 3,
      "note": 88,
      "start": 35.9676,
      "duration": 0.0187,
      "velocity": 97,
      "chip": "ym2612"
    },
    {
      "channel": 2,
      "note": 52,
      "start": 35.9688,
      "duration": 0.019,
      "velocity": 100,
      "chip": "ym2612"
    },
    {
      "channel": 0,
      "note": 84,
      "start": 35.9838,
      "duration": 0.0146,
      "velocity": 124,
      "chip": "ym2612"
    },
    {
      "channel": 4,
      "note": 88,
      "start": 35.985,
      "duration": 0.0146,
      "velocity": 97,
      "chip": "ym2612"
    },
    {
      "channel": 3,
      "note": 92,
      "start": 35.9864,
      "duration": 0.0143,
      "velocity": 97,
      "chip": "ym2612"
    },
    {
      "channel": 2,
      "note": 52,
      "start": 35.9878,
      "duration": 0.0141,
      "velocity": 100,
      "chip": "ym2612"
    },
    {
      "channel": 0,
      "note": 82,
      "start": 35.9984,
      "duration": 0.0149,
      "velocity": 124,
      "chip": "ym2612"
    },
    {
      "channel": 4,
      "note": 88,
      "start": 35.9995,
      "duration": 0.015,
      "velocity": 97,
      "chip": "ym2612"
    },
    {
      "channel": 3,
      "note": 92,
      "start": 36.0007,
      "duration": 0.0149,
      "velocity": 97,
      "chip": "ym2612"
    },
    {
      "channel": 2,
      "note": 52,
      "start": 36.0019,
      "duration": 0.0149,
      "velocity": 100,
      "chip": "ym2612"
    },
    {
      "channel": 0,
      "note": 80,
      "start": 36.0134,
      "duration": 0.0187,
      "velocity": 124,
      "chip": "ym2612"
    },
    {
      "channel": 4,
      "note": 88,
      "start": 36.0145,
      "duration": 0.0189,
      "velocity": 97,
      "chip": "ym2612"
    },
    {
      "channel": 3,
      "note": 92,
      "start": 36.0156,
      "duration": 0.019,
      "velocity": 97,
      "chip": "ym2612"
    },
    {
      "channel": 2,
      "note": 52,
      "start": 36.0168,
      "duration": 0.019,
      "velocity": 100,
      "chip": "ym2612"
    },
    {
      "channel": 0,
      "note": 77,
      "start": 36.0321,
      "duration": 0.0162,
      "velocity": 124,
      "chip": "ym2612"
    },
    {
      "channel": 4,
      "note": 92,
      "start": 36.0335,
      "duration": 0.016,
      "velocity": 97,
      "chip": "ym2612"
    },
    {
      "channel": 3,
      "note": 92,
      "start": 36.0346,
      "duration": 0.016,
      "velocity": 97,
      "chip": "ym2612"
    },
    {
      "channel": 2,
      "note": 52,
      "start": 36.0358,
      "duration": 0.016,
      "velocity": 100,
      "chip": "ym2612"
    },
    {
      "channel": 0,
      "note": 75,
      "start": 36.0483,
      "duration": 0.0158,
      "velocity": 124,
      "chip": "ym2612"
    },
    {
      "channel": 4,
      "note": 92,
      "start": 36.0495,
      "duration": 0.0157,
      "velocity": 97,
      "chip": "ym2612"
    },
    {
      "channel": 3,
      "note": 92,
      "start": 36.0506,
      "duration": 0.0157,
      "velocity": 97,
      "chip": "ym2612"
    },
    {
      "channel": 2,
      "note": 52,
      "start": 36.0518,
      "duration": 0.0157,
      "velocity": 100,
      "chip": "ym2612"
    },
    {
      "channel": 0,
      "note": 72,
      "start": 36.0641,
      "duration": 0.014,
      "velocity": 124,
      "chip": "ym2612"
    },
    {
      "channel": 4,
      "note": 92,
      "start": 36.0652,
      "duration": 0.014,
      "velocity": 97,
      "chip": "ym2612"
    },
    {
      "channel": 3,
      "note": 92,
      "start": 36.0663,
      "duration": 0.0142,
      "velocity": 97,
      "chip": "ym2612"
    },
    {
      "channel": 2,
      "note": 52,
      "start": 36.0675,
      "duration": 0.0143,
      "velocity": 100,
      "chip": "ym2612"
    },
    {
      "channel": 0,
      "note": 70,
      "start": 36.078,
      "duration": 0.0158,
      "velocity": 124,
      "chip": "ym2612"
    },
    {
      "channel": 4,
      "note": 92,
      "start": 36.0792,
      "duration": 0.0186,
      "velocity": 97,
      "chip": "ym2612"
    },
    {
      "channel": 3,
      "note": 88,
      "start": 36.0806,
      "duration": 0.0183,
      "velocity": 97,
      "chip": "ym2612"
    },
    {
      "channel": 2,
      "note": 52,
      "start": 36.0817,
      "duration": 0.0183,
      "velocity": 100,
      "chip": "ym2612"
    },
    {
      "channel": 0,
      "note": 68,
      "start": 36.0938,
      "duration": 0.0161,
      "velocity": 124,
      "chip": "ym2612"
    },
    {
      "channel": 4,
      "note": 92,
      "start": 36.0978,
      "duration": 0.0161,
      "velocity": 97,
      "chip": "ym2612"
    },
    {
      "channel": 3,
      "note": 88,
      "start": 36.0989,
      "duration": 0.016,
      "velocity": 97,
      "chip": "ym2612"
    },
    {
      "channel": 2,
      "note": 52,
      "start": 36.1001,
      "duration": 0.016,
      "velocity": 100,
      "chip": "ym2612"
    },
    {
      "channel": 0,
      "note": 65,
      "start": 36.1099,
      "duration": 0.0161,
      "velocity": 124,
      "chip": "ym2612"
    },
    {
      "channel": 4,
      "note": 92,
      "start": 36.1139,
      "duration": 0.0159,
      "velocity": 97,
      "chip": "ym2612"
    },
    {
      "channel": 3,
      "note": 88,
      "start": 36.1149,
      "duration": 0.016,
      "velocity": 97,
      "chip": "ym2612"
    },
    {
      "channel": 2,
      "note": 52,
      "start": 36.1161,
      "duration": 0.016,
      "velocity": 100,
      "chip": "ym2612"
    },
    {
      "channel": 0,
      "note": 63,
      "start": 36.1261,
      "duration": 0.0153,
      "velocity": 1,
      "chip": "ym2612"
    },
    {
      "channel": 4,
      "note": 88,
      "start": 36.1298,
      "duration": 0.0127,
      "velocity": 97,
      "chip": "ym2612"
    },
    {
      "channel": 3,
      "note": 88,
      "start": 36.131,
      "duration": 0.0127,
      "velocity": 97,
      "chip": "ym2612"
    },
    {
      "channel": 2,
      "note": 52,
      "start": 36.1321,
      "duration": 0.013,
      "velocity": 100,
      "chip": "ym2612"
    },
    {
      "channel": 4,
      "note": 88,
      "start": 36.1426,
      "duration": 0.0152,
      "velocity": 97,
      "chip": "ym2612"
    },
    {
      "channel": 3,
      "note": 88,
      "start": 36.1437,
      "duration": 0.0152,
      "velocity": 97,
      "chip": "ym2612"
    },
    {
      "channel": 2,
      "note": 52,
      "start": 36.1452,
      "duration": 0.0148,
      "velocity": 100,
      "chip": "ym2612"
    },
    {
      "channel": 4,
      "note": 88,
      "start": 36.1578,
      "duration": 0.0223,
      "velocity": 97,
      "chip": "ym2612"
    },
    {
      "channel": 3,
      "note": 88,
      "start": 36.1589,
      "duration": 0.0225,
      "velocity": 97,
      "chip": "ym2612"
    },
    {
      "channel": 2,
      "note": 52,
      "start": 36.16,
      "duration": 0.0229,
      "velocity": 100,
      "chip": "ym2612"
    },
    {
      "channel": 0,
      "note": 36,
      "start": 36.1761,
      "duration": 0.0144,
      "velocity": 115,
      "chip": "ym2612"
    },
    {
      "channel": 4,
      "note": 88,
      "start": 36.18,
      "duration": 0.0116,
      "velocity": 97,
      "chip": "ym2612"
    },
    {
      "channel": 3,
      "note": 85,
      "start": 36.1815,
      "duration": 0.0114,
      "velocity": 97,
      "chip": "ym2612"
    },
    {
      "channel": 2,
      "note": 52,
      "start": 36.1829,
      "duration": 0.0136,
      "velocity": 100,
      "chip": "ym2612"
    },
    {
      "channel": 0,
      "note": 36,
      "start": 36.1905,
      "duration": 0.016,
      "velocity": 115,
      "chip": "ym2612"
    },
    {
      "channel": 4,
      "note": 88,
      "start": 36.1917,
      "duration": 0.016,
      "velocity": 97,
      "chip": "ym2612"
    },
    {
      "channel": 3,
      "note": 85,
      "start": 36.1929,
      "duration": 0.016,
      "velocity": 97,
      "chip": "ym2612"
    },
    {
      "channel": 2,
      "note": 52,
      "start": 36.1964,
      "duration": 0.0135,
      "velocity": 100,
      "chip": "ym2612"
    },
    {
      "channel": 0,
      "note": 37,
      "start": 36.2066,
      "duration": 0.0161,
      "velocity": 115,
      "chip": "ym2612"
    },
    {
      "channel": 4,
      "note": 88,
      "start": 36.2077,
      "duration": 0.0163,
      "velocity": 97,
      "chip": "ym2612"
    },
    {
      "channel": 3,
      "note": 85,
      "start": 36.2088,
      "duration": 0.0163,
      "velocity": 97,
      "chip": "ym2612"
    },
    {
      "channel": 2,
      "note": 52,
      "start": 36.21,
      "duration": 0.0163,
      "velocity": 100,
      "chip": "ym2612"
    },
    {
      "channel": 0,
      "note": 37,
      "start": 36.2227,
      "duration": 0.0161,
      "velocity": 115,
      "chip": "ym2612"
    },
    {
      "channel": 4,
      "note": 85,
      "start": 36.224,
      "duration": 0.0159,
      "velocity": 97,
      "chip": "ym2612"
    },
    {
      "channel": 3,
      "note": 85,
      "start": 36.2252,
      "duration": 0.0159,
      "velocity": 97,
      "chip": "ym2612"
    },
    {
      "channel": 2,
      "note": 52,
      "start": 36.2263,
      "duration": 0.0159,
      "velocity": 100,
      "chip": "ym2612"
    },
    {
      "channel": 0,
      "note": 38,
      "start": 36.2387,
      "duration": 0.0161,
      "velocity": 115,
      "chip": "ym2612"
    },
    {
      "channel": 4,
      "note": 85,
      "start": 36.24,
      "duration": 0.016,
      "velocity": 97,
      "chip": "ym2612"
    },
    {
      "channel": 3,
      "note": 85,
      "start": 36.2411,
      "duration": 0.016,
      "velocity": 97,
      "chip": "ym2612"
    },
    {
      "channel": 2,
      "note": 52,
      "start": 36.2422,
      "duration": 0.016,
      "velocity": 100,
      "chip": "ym2612"
    },
    {
      "channel": 0,
      "note": 38,
      "start": 36.2548,
      "duration": 0.0162,
      "velocity": 115,
      "chip": "ym2612"
    },
    {
      "channel": 4,
      "note": 85,
      "start": 36.256,
      "duration": 0.0161,
      "velocity": 97,
      "chip": "ym2612"
    },
    {
      "channel": 3,
      "note": 85,
      "start": 36.2571,
      "duration": 0.0163,
      "velocity": 97,
      "chip": "ym2612"
    },
    {
      "channel": 2,
      "note": 52,
      "start": 36.2583,
      "duration": 0.0162,
      "velocity": 100,
      "chip": "ym2612"
    },
    {
      "channel": 0,
      "note": 39,
      "start": 36.271,
      "duration": 0.0161,
      "velocity": 115,
      "chip": "ym2612"
    },
    {
      "channel": 4,
      "note": 85,
      "start": 36.2721,
      "duration": 0.0161,
      "velocity": 97,
      "chip": "ym2612"
    },
    {
      "channel": 3,
      "note": 85,
      "start": 36.2734,
      "duration": 0.016,
      "velocity": 97,
      "chip": "ym2612"
    },
    {
      "channel": 2,
      "note": 52,
      "start": 36.2745,
      "duration": 0.016,
      "velocity": 100,
      "chip": "ym2612"
    },
    {
      "channel": 0,
      "note": 39,
      "start": 36.2871,
      "duration": 0.0161,
      "velocity": 115,
      "chip": "ym2612"
    },
    {
      "channel": 4,
      "note": 85,
      "start": 36.2882,
      "duration": 0.0161,
      "velocity": 97,
      "chip": "ym2612"
    },
    {
      "channel": 3,
      "note": 85,
      "start": 36.2894,
      "duration": 0.0161,
      "velocity": 97,
      "chip": "ym2612"
    },
    {
      "channel": 2,
      "note": 52,
      "start": 36.2905,
      "duration": 0.0161,
      "velocity": 100,
      "chip": "ym2612"
    },
    {
      "channel": 0,
      "note": 40,
      "start": 36.3032,
      "duration": 0.0161,
      "velocity": 115,
      "chip": "ym2612"
    },
    {
      "channel": 4,
      "note": 85,
      "start": 36.3043,
      "duration": 0.0162,
      "velocity": 97,
      "chip": "ym2612"
    },
    {
      "channel": 3,
      "note": 85,
      "start": 36.3055,
      "duration": 0.0162,
      "velocity": 97,
      "chip": "ym2612"
    },
    {
      "channel": 2,
      "note": 52,
      "start": 36.3066,
      "duration": 0.0161,
      "velocity": 100,
      "chip": "ym2612"
    },
    {
      "channel": 0,
      "note": 40,
      "start": 36.3193,
      "duration": 0.0161,
      "velocity": 115,
      "chip": "ym2612"
    },
    {
      "channel": 4,
      "note": 85,
      "start": 36.3205,
      "duration": 0.016,
      "velocity": 97,
      "chip": "ym2612"
    },
    {
      "channel": 3,
      "note": 85,
      "start": 36.3217,
      "duration": 0.016,
      "velocity": 97,
      "chip": "ym2612"
    },
    {
      "channel": 2,
      "note": 52,
      "start": 36.3228,
      "duration": 0.016,
      "velocity": 100,
      "chip": "ym2612"
    },
    {
      "channel": 0,
      "note": 40,
      "start": 36.3354,
      "duration": 0.0161,
      "velocity": 115,
      "chip": "ym2612"
    },
    {
      "channel": 4,
      "note": 85,
      "start": 36.3366,
      "duration": 0.016,
      "velocity": 97,
      "chip": "ym2612"
    },
    {
      "channel": 3,
      "note": 85,
      "start": 36.3377,
      "duration": 0.016,
      "velocity": 97,
      "chip": "ym2612"
    },
    {
      "channel": 2,
      "note": 52,
      "start": 36.3388,
      "duration": 0.0161,
      "velocity": 100,
      "chip": "ym2612"
    },
    {
      "channel": 0,
      "note": 41,
      "start": 36.3515,
      "duration": 0.0179,
      "velocity": 115,
      "chip": "ym2612"
    },
    {
      "channel": 4,
      "note": 85,
      "start": 36.3526,
      "duration": 0.0179,
      "velocity": 97,
      "chip": "ym2612"
    },
    {
      "channel": 3,
      "note": 85,
      "start": 36.3537,
      "duration": 0.0181,
      "velocity": 97,
      "chip": "ym2612"
    },
    {
      "channel": 2,
      "note": 52,
      "start": 36.3549,
      "duration": 0.0184,
      "velocity": 100,
      "chip": "ym2612"
    },
    {
      "channel": 0,
      "note": 36,
      "start": 36.3693,
      "duration": 0.0144,
      "velocity": 115,
      "chip": "ym2612"
    },
    {
      "channel": 4,
      "note": 85,
      "start": 36.3705,
      "duration": 0.0144,
      "velocity": 97,
      "chip": "ym2612"
    },
    {
      "channel": 3,
      "note": 90,
      "start": 36.3719,
      "duration": 0.0142,
      "velocity": 97,
      "chip": "ym2612"
    },
    {
      "channel": 2,
      "note": 52,
      "start": 36.3733,
      "duration": 0.0139,
      "velocity": 100,
      "chip": "ym2612"
    },
    {
      "channel": 0,
      "note": 36,
      "start": 36.3837,
      "duration": 0.0161,
      "velocity": 115,
      "chip": "ym2612"
    },
    {
      "channel": 4,
      "note": 85,
      "start": 36.3849,
      "duration": 0.0161,
      "velocity": 97,
      "chip": "ym2612"
    },
    {
      "channel": 3,
      "note": 90,
      "start": 36.3861,
      "duration": 0.016,
      "velocity": 97,
      "chip": "ym2612"
    },
    {
      "channel": 2,
      "note": 52,
      "start": 36.3873,
      "duration": 0.0159,
      "velocity": 100,
      "chip": "ym2612"
    },
    {
      "channel": 0,
      "note": 37,
      "start": 36.3998,
      "duration": 0.0161,
      "velocity": 115,
      "chip": "ym2612"
    },
    {
      "channel": 4,
      "note": 85,
      "start": 36.401,
      "duration": 0.0163,
      "velocity": 97,
      "chip": "ym2612"
    },
    {
      "channel": 3,
      "note": 90,
      "start": 36.402,
      "duration": 0.0164,
      "velocity": 97,
      "chip": "ym2612"
    },
    {
      "channel": 2,
      "note": 52,
      "start": 36.4032,
      "duration": 0.0163,
      "velocity": 100,
      "chip": "ym2612"
    },
    {
      "channel": 0,
      "note": 37,
      "start": 36.4159,
      "duration": 0.0162,
      "velocity": 115,
      "chip": "ym2612"
    },
    {
      "channel": 4,
      "note": 90,
      "start": 36.4173,
      "duration": 0.016,
      "velocity": 97,
      "chip": "ym2612"
    },
    {
      "channel": 3,
      "note": 90,
      "start": 36.4184,
      "duration": 0.016,
      "velocity": 97,
      "chip": "ym2612"
    },
    {
      "channel": 2,
      "note": 52,
      "start": 36.4195,
      "duration": 0.016,
      "velocity": 100,
      "chip": "ym2612"
    },
    {
      "channel": 0,
      "note": 38,
      "start": 36.4321,
      "duration": 0.0167,
      "velocity": 115,
      "chip": "ym2612"
    },
    {
      "channel": 4,
      "note": 90,
      "start": 36.4333,
      "duration": 0.0166,
      "velocity": 97,
      "chip": "ym2612"
    },
    {
      "channel": 3,
      "note": 90,
      "start": 36.4344,
      "duration": 0.0166,
      "velocity": 97,
      "chip": "ym2612"
    },
    {
      "channel": 2,
      "note": 52,
      "start": 36.4355,
      "duration": 0.0166,
      "velocity": 100,
      "chip": "ym2612"
    },
    {
      "channel": 0,
      "note": 38,
      "start": 36.4487,
      "duration": 0.0163,
      "velocity": 115,
      "chip": "ym2612"
    },
    {
      "channel": 4,
      "note": 90,
      "start": 36.4499,
      "duration": 0.0163,
      "velocity": 97,
      "chip": "ym2612"
    },
    {
      "channel": 3,
      "note": 90,
      "start": 36.451,
      "duration": 0.0165,
      "velocity": 97,
      "chip": "ym2612"
    },
    {
      "channel": 2,
      "note": 52,
      "start": 36.4521,
      "duration": 0.0166,
      "velocity": 100,
      "chip": "ym2612"
    },
    {
      "channel": 0,
      "note": 39,
      "start": 36.465,
      "duration": 0.0153,
      "velocity": 115,
      "chip": "ym2612"
    },
    {
      "channel": 4,
      "note": 90,
      "start": 36.4661,
      "duration": 0.0153,
      "velocity": 97,
      "chip": "ym2612"
    },
    {
      "channel": 3,
      "note": 86,
      "start": 36.4676,
      "duration": 0.0151,
      "velocity": 97,
      "chip": "ym2612"
    },
    {
      "channel": 2,
      "note": 52,
      "start": 36.4687,
      "duration": 0.0151,
      "velocity": 100,
      "chip": "ym2612"
    },
    {
      "channel": 0,
      "note": 39,
      "start": 36.4803,
      "duration": 0.0185,
      "velocity": 115,
      "chip": "ym2612"
    },
    {
      "channel": 4,
      "note": 90,
      "start": 36.4814,
      "duration": 0.0184,
      "velocity": 97,
      "chip": "ym2612"
    },
    {
      "channel": 3,
      "note": 86,
      "start": 36.4826,
      "duration": 0.0184,
      "velocity": 97,
      "chip": "ym2612"
    },
    {
      "channel": 2,
      "note": 52,
      "start": 36.4838,
      "duration": 0.0183,
      "velocity": 100,
      "chip": "ym2612"
    },
    {
      "channel": 0,
      "note": 40,
      "start": 36.4987,
      "duration": 0.0165,
      "velocity": 115,
      "chip": "ym2612"
    },
    {
      "channel": 4,
      "note": 90,
      "start": 36.4999,
      "duration": 0.0167,
      "velocity": 97,
      "chip": "ym2612"
    },
    {
      "channel": 3,
      "note": 86,
      "start": 36.501,
      "duration": 0.0168,
      "velocity": 97,
      "chip": "ym2612"
    },
    {
      "channel": 2,
      "note": 52,
      "start": 36.5021,
      "duration": 0.0168,
      "velocity": 100,
      "chip": "ym2612"
    },
    {
      "channel": 0,
      "note": 40,
      "start": 36.5152,
      "duration": 0.0158,
      "velocity": 115,
      "chip": "ym2612"
    },
    {
      "channel": 4,
      "note": 86,
      "start": 36.5167,
      "duration": 0.0155,
      "velocity": 97,
      "chip": "ym2612"
    },
    {
      "channel": 3,
      "note": 86,
      "start": 36.5178,
      "duration": 0.0155,
      "velocity": 97,
      "chip": "ym2612"
    },
    {
      "channel": 2,
      "note": 52,
      "start": 36.5189,
      "duration": 0.0155,
      "velocity": 100,
      "chip": "ym2612"
    },
    {
      "channel": 0,
      "note": 40,
      "start": 36.531,
      "duration": 0.014,
      "velocity": 115,
      "chip": "ym2612"
    },
    {
      "channel": 4,
      "note": 86,
      "start": 36.5322,
      "duration": 0.014,
      "velocity": 97,
      "chip": "ym2612"
    },
    {
      "channel": 3,
      "note": 86,
      "start": 36.5333,
      "duration": 0.0139,
      "velocity": 97,
      "chip": "ym2612"
    },
    {
      "channel": 2,
      "note": 52,
      "start": 36.5344,
      "duration": 0.014,
      "velocity": 100,
      "chip": "ym2612"
    },
    {
      "channel": 0,
      "note": 41,
      "start": 36.545,
      "duration": 0.0204,
      "velocity": 115,
      "chip": "ym2612"
    },
    {
      "channel": 4,
      "note": 86,
      "start": 36.5462,
      "duration": 0.0203,
      "velocity": 97,
      "chip": "ym2612"
    },
    {
      "channel": 3,
      "note": 86,
      "start": 36.5473,
      "duration": 0.0206,
      "velocity": 97,
      "chip": "ym2612"
    },
    {
      "channel": 2,
      "note": 52,
      "start": 36.5484,
      "duration": 0.0209,
      "velocity": 100,
      "chip": "ym2612"
    },
    {
      "channel": 0,
      "note": 36,
      "start": 36.5653,
      "duration": 0.0116,
      "velocity": 115,
      "chip": "ym2612"
    },
    {
      "channel": 4,
      "note": 86,
      "start": 36.5665,
      "duration": 0.0144,
      "velocity": 97,
      "chip": "ym2612"
    },
    {
      "channel": 3,
      "note": 83,
      "start": 36.5679,
      "duration": 0.0142,
      "velocity": 97,
      "chip": "ym2612"
    },
    {
      "channel": 2,
      "note": 52,
      "start": 36.5693,
      "duration": 0.0139,
      "velocity": 100,
      "chip": "ym2612"
    },
    {
      "channel": 0,
      "note": 36,
      "start": 36.577,
      "duration": 0.016,
      "velocity": 115,
      "chip": "ym2612"
    },
    {
      "channel": 4,
      "note": 86,
      "start": 36.5809,
      "duration": 0.0156,
      "velocity": 97,
      "chip": "ym2612"
    },
    {
      "channel": 3,
      "note": 83,
      "start": 36.5821,
      "duration": 0.0156,
      "velocity": 97,
      "chip": "ym2612"
    },
    {
      "channel": 2,
      "note": 52,
      "start": 36.5833,
      "duration": 0.0155,
      "velocity": 100,
      "chip": "ym2612"
    },
    {
      "channel": 0,
      "note": 37,
      "start": 36.593,
      "duration": 0.0161,
      "velocity": 115,
      "chip": "ym2612"
    },
    {
      "channel": 4,
      "note": 86,
      "start": 36.5965,
      "duration": 0.014,
      "velocity": 97,
      "chip": "ym2612"
    },
    {
      "channel": 3,
      "note": 83,
      "start": 36.5976,
      "duration": 0.0143,
      "velocity": 97,
      "chip": "ym2612"
    },
    {
      "channel": 2,
      "note": 52,
      "start": 36.5988,
      "duration": 0.0143,
      "velocity": 100,
      "chip": "ym2612"
    },
    {
      "channel": 0,
      "note": 37,
      "start": 36.6091,
      "duration": 0.0161,
      "velocity": 115,
      "chip": "ym2612"
    },
    {
      "channel": 4,
      "note": 83,
      "start": 36.6105,
      "duration": 0.0159,
      "velocity": 97,
      "chip": "ym2612"
    },
    {
      "channel": 3,
      "note": 83,
      "start": 36.612,
      "duration": 0.0183,
      "velocity": 97,
      "chip": "ym2612"
    },
    {
      "channel": 2,
      "note": 52,
      "start": 36.6131,
      "duration": 0.0183,
      "velocity": 100,
      "chip": "ym2612"
    },
    {
      "channel": 0,
      "note": 38,
      "start": 36.6252,
      "duration": 0.0161,
      "velocity": 115,
      "chip": "ym2612"
    },
    {
      "channel": 4,
      "note": 83,
      "start": 36.6264,
      "duration": 0.016,
      "velocity": 97,
      "chip": "ym2612"
    },
    {
      "channel": 3,
      "note": 83,
      "start": 36.6303,
      "duration": 0.0133,
      "velocity": 97,
      "chip": "ym2612"
    },
    {
      "channel": 2,
      "note": 52,
      "start": 36.6314,
      "duration": 0.016,
      "velocity": 100,
      "chip": "ym2612"
    },
    {
      "channel": 0,
      "note": 38,
      "start": 36.6413,
      "duration": 0.0161,
      "velocity": 115,
      "chip": "ym2612"
    },
    {
      "channel": 4,
      "note": 83,
      "start": 36.6424,
      "duration": 0.0161,
      "velocity": 97,
      "chip": "ym2612"
    },
    {
      "channel": 3,
      "note": 83,
      "start": 36.6436,
      "duration": 0.0162,
      "velocity": 97,
      "chip": "ym2612"
    },
    {
      "channel": 2,
      "note": 52,
      "start": 36.6475,
      "duration": 0.0158,
      "velocity": 100,
      "chip": "ym2612"
    },
    {
      "channel": 0,
      "note": 39,
      "start": 36.6574,
      "duration": 0.0161,
      "velocity": 115,
      "chip": "ym2612"
    },
    {
      "channel": 4,
      "note": 83,
      "start": 36.6585,
      "duration": 0.0161,
      "velocity": 97,
      "chip": "ym2612"
    },
    {
      "channel": 3,
      "note": 83,
      "start": 36.6598,
      "duration": 0.016,
      "velocity": 97,
      "chip": "ym2612"
    },
    {
      "channel": 2,
      "note": 52,
      "start": 36.6633,
      "duration": 0.0137,
      "velocity": 100,
      "chip": "ym2612"
    },
    {
      "channel": 0,
      "note": 39,
      "start": 36.6735,
      "duration": 0.0161,
      "velocity": 115,
      "chip": "ym2612"
    },
    {
      "channel": 4,
      "note": 83,
      "start": 36.6746,
      "duration": 0.0161,
      "velocity": 97,
      "chip": "ym2612"
    },
    {
      "channel": 3,
      "note": 83,
      "start": 36.6758,
      "duration": 0.016,
      "velocity": 97,
      "chip": "ym2612"
    },
    {
      "channel": 2,
      "note": 52,
      "start": 36.677,
      "duration": 0.016,
      "velocity": 100,
      "chip": "ym2612"
    },
    {
      "channel": 0,
      "note": 40,
      "start": 36.6896,
      "duration": 0.0161,
      "velocity": 115,
      "chip": "ym2612"
    },
    {
      "channel": 4,
      "note": 83,
      "start": 36.6907,
      "duration": 0.0163,
      "velocity": 97,
      "chip": "ym2612"
    },
    {
      "channel": 3,
      "note": 83,
      "start": 36.6919,
      "duration": 0.0162,
      "velocity": 97,
      "chip": "ym2612"
    },
    {
      "channel": 2,
      "note": 52,
      "start": 36.693,
      "duration": 0.0162,
      "velocity": 100,
      "chip": "ym2612"
    },
    {
      "channel": 0,
      "note": 40,
      "start": 36.7057,
      "duration": 0.0161,
      "velocity": 115,
      "chip": "ym2612"
    },
    {
      "channel": 4,
      "note": 83,
      "start": 36.707,
      "duration": 0.016,
      "velocity": 97,
      "chip": "ym2612"
    },
    {
      "channel": 3,
      "note": 83,
      "start": 36.7081,
      "duration": 0.016,
      "velocity": 97,
      "chip": "ym2612"
    },
    {
      "channel": 2,
      "note": 52,
      "start": 36.7092,
      "duration": 0.016,
      "velocity": 100,
      "chip": "ym2612"
    },
    {
      "channel": 0,
      "note": 40,
      "start": 36.7218,
      "duration": 0.0161,
      "velocity": 115,
      "chip": "ym2612"
    },
    {
      "channel": 4,
      "note": 83,
      "start": 36.723,
      "duration": 0.016,
      "velocity": 97,
      "chip": "ym2612"
    },
    {
      "channel": 3,
      "note": 83,
      "start": 36.7241,
      "duration": 0.0161,
      "velocity": 97,
      "chip": "ym2612"
    },
    {
      "channel": 2,
      "note": 52,
      "start": 36.7253,
      "duration": 0.016,
      "velocity": 100,
      "chip": "ym2612"
    },
    {
      "channel": 0,
      "note": 41,
      "start": 36.7379,
      "duration": 0.0178,
      "velocity": 124,
      "chip": "ym2612"
    },
    {
      "channel": 4,
      "note": 83,
      "start": 36.739,
      "duration": 0.0179,
      "velocity": 97,
      "chip": "ym2612"
    },
    {
      "channel": 3,
      "note": 83,
      "start": 36.7402,
      "duration": 0.0181,
      "velocity": 97,
      "chip": "ym2612"
    },
    {
      "channel": 2,
      "note": 52,
      "start": 36.7413,
      "duration": 0.0184,
      "velocity": 100,
      "chip": "ym2612"
    },
    {
      "channel": 0,
      "note": 84,
      "start": 36.7558,
      "duration": 0.0144,
      "velocity": 124,
      "chip": "ym2612"
    },
    {
      "channel": 4,
      "note": 83,
      "start": 36.7569,
      "duration": 0.0144,
      "velocity": 97,
      "chip": "ym2612"
    },
    {
      "channel": 3,
      "note": 86,
      "start": 36.7583,
      "duration": 0.0141,
      "velocity": 97,
      "chip": "ym2612"
    },
    {
      "channel": 2,
      "note": 52,
      "start": 36.7598,
      "duration": 0.0139,
      "velocity": 100,
      "chip": "ym2612"
    },
    {
      "channel": 0,
      "note": 82,
      "start": 36.7702,
      "duration": 0.016,
      "velocity": 124,
      "chip": "ym2612"
    },
    {
      "channel": 4,
      "note": 83,
      "start": 36.7713,
      "duration": 0.016,
      "velocity": 97,
      "chip": "ym2612"
    },
    {
      "channel": 3,
      "note": 86,
      "start": 36.7724,
      "duration": 0.016,
      "velocity": 97,
      "chip": "ym2612"
    },
    {
      "channel": 2,
      "note": 52,
      "start": 36.7737,
      "duration": 0.016,
      "velocity": 100,
      "chip": "ym2612"
    },
    {
      "channel": 0,
      "note": 80,
      "start": 36.7862,
      "duration": 0.0161,
      "velocity": 124,
      "chip": "ym2612"
    },
    {
      "channel": 4,
      "note": 83,
      "start": 36.7873,
      "duration": 0.0163,
      "velocity": 97,
      "chip": "ym2612"
    },
    {
      "channel": 3,
      "note": 86,
      "start": 36.7885,
      "duration": 0.0163,
      "velocity": 97,
      "chip": "ym2612"
    },
    {
      "channel": 2,
      "note": 52,
      "start": 36.7896,
      "duration": 0.0163,
      "velocity": 100,
      "chip": "ym2612"
    },
    {
      "channel": 0,
      "note": 77,
      "start": 36.8023,
      "duration": 0.0161,
      "velocity": 124,
      "chip": "ym2612"
    },
    {
      "channel": 4,
      "note": 86,
      "start": 36.8037,
      "duration": 0.0159,
      "velocity": 97,
      "chip": "ym2612"
    },
    {
      "channel": 3,
      "note": 86,
      "start": 36.8048,
      "duration": 0.0159,
      "velocity": 97,
      "chip": "ym2612"
    },
    {
      "channel": 2,
      "note": 52,
      "start": 36.806,
      "duration": 0.0159,
      "velocity": 100,
      "chip": "ym2612"
    },
    {
      "channel": 0,
      "note": 75,
      "start": 36.8184,
      "duration": 0.0161,
      "velocity": 124,
      "chip": "ym2612"
    },
    {
      "channel": 4,
      "note": 86,
      "start": 36.8196,
      "duration": 0.016,
      "velocity": 97,
      "chip": "ym2612"
    },
    {
      "channel": 3,
      "note": 86,
      "start": 36.8207,
      "duration": 0.016,
      "velocity": 97,
      "chip": "ym2612"
    },
    {
      "channel": 2,
      "note": 52,
      "start": 36.8219,
      "duration": 0.016,
      "velocity": 100,
      "chip": "ym2612"
    },
    {
      "channel": 0,
      "note": 72,
      "start": 36.8345,
      "duration": 0.0162,
      "velocity": 124,
      "chip": "ym2612"
    },
    {
      "channel": 4,
      "note": 86,
      "start": 36.8356,
      "duration": 0.0161,
      "velocity": 97,
      "chip": "ym2612"
    },
    {
      "channel": 3,
      "note": 86,
      "start": 36.8368,
      "duration": 0.0163,
      "velocity": 97,
      "chip": "ym2612"
    },
    {
      "channel": 2,
      "note": 52,
      "start": 36.8379,
      "duration": 0.0164,
      "velocity": 100,
      "chip": "ym2612"
    },
    {
      "channel": 0,
      "note": 70,
      "start": 36.8506,
      "duration": 0.0161,
      "velocity": 124,
      "chip": "ym2612"
    },
    {
      "channel": 4,
      "note": 86,
      "start": 36.8518,
      "duration": 0.0161,
      "velocity": 97,
      "chip": "ym2612"
    },
    {
      "channel": 3,
      "note": 83,
      "start": 36.8532,
      "duration": 0.0159,
      "velocity": 97,
      "chip": "ym2612"
    },
    {
      "channel": 2,
      "note": 52,
      "start": 36.8543,
      "duration": 0.0158,
      "velocity": 100,
      "chip": "ym2612"
    },
    {
      "channel": 0,
      "note": 68,
      "start": 36.8667,
      "duration": 0.0161,
      "velocity": 124,
      "chip": "ym2612"
    },
    {
      "channel": 4,
      "note": 86,
      "start": 36.8679,
      "duration": 0.0161,
      "velocity": 97,
      "chip": "ym2612"
    },
    {
      "channel": 3,
      "note": 83,
      "start": 36.869,
      "duration": 0.0161,
      "velocity": 97,
      "chip": "ym2612"
    },
    {
      "channel": 2,
      "note": 52,
      "start": 36.8702,
      "duration": 0.016,
      "velocity": 100,
      "chip": "ym2612"
    },
    {
      "channel": 0,
      "note": 65,
      "start": 36.8828,
      "duration": 0.0161,
      "velocity": 124,
      "chip": "ym2612"
    },
    {
      "channel": 4,
      "note": 86,
      "start": 36.884,
      "duration": 0.0163,
      "velocity": 97,
      "chip": "ym2612"
    },
    {
      "channel": 3,
      "note": 83,
      "start": 36.8851,
      "duration": 0.0163,
      "velocity": 97,
      "chip": "ym2612"
    },
    {
      "channel": 2,
      "note": 52,
      "start": 36.8862,
      "duration": 0.0164,
      "velocity": 100,
      "chip": "ym2612"
    },
    {
      "channel": 0,
      "note": 63,
      "start": 36.8989,
      "duration": 0.0156,
      "velocity": 1,
      "chip": "ym2612"
    },
    {
      "channel": 4,
      "note": 83,
      "start": 36.9003,
      "duration": 0.0155,
      "velocity": 97,
      "chip": "ym2612"
    },
    {
      "channel": 3,
      "note": 83,
      "start": 36.9015,
      "duration": 0.0155,
      "velocity": 97,
      "chip": "ym2612"
    },
    {
      "channel": 2,
      "note": 52,
      "start": 36.9026,
      "duration": 0.0154,
      "velocity": 100,
      "chip": "ym2612"
    },
    {
      "channel": 4,
      "note": 83,
      "start": 36.9158,
      "duration": 0.0154,
      "velocity": 97,
      "chip": "ym2612"
    },
    {
      "channel": 3,
      "note": 83,
      "start": 36.9169,
      "duration": 0.0154,
      "velocity": 97,
      "chip": "ym2612"
    },
    {
      "channel": 2,
      "note": 52,
      "start": 36.918,
      "duration": 0.0155,
      "velocity": 100,
      "chip": "ym2612"
    },
    {
      "channel": 4,
      "note": 83,
      "start": 36.9312,
      "duration": 0.0155,
      "velocity": 97,
      "chip": "ym2612"
    },
    {
      "channel": 3,
      "note": 83,
      "start": 36.9323,
      "duration": 0.0158,
      "velocity": 97,
      "chip": "ym2612"
    },
    {
      "channel": 2,
      "note": 52,
      "start": 36.9335,
      "duration": 0.0161,
      "velocity": 100,
      "chip": "ym2612"
    },
    {
      "channel": 4,
      "note": 83,
      "start": 36.9467,
      "duration": 0.0182,
      "velocity": 97,
      "chip": "ym2612"
    },
    {
      "channel": 3,
      "note": 80,
      "start": 36.9481,
      "duration": 0.018,
      "velocity": 97,
      "chip": "ym2612"
    },
    {
      "channel": 2,
      "note": 52,
      "start": 36.9495,
      "duration": 0.0177,
      "velocity": 100,
      "chip": "ym2612"
    },
    {
      "channel": 4,
      "note": 83,
      "start": 36.9649,
      "duration": 0.0167,
      "velocity": 97,
      "chip": "ym2612"
    },
    {
      "channel": 3,
      "note": 80,
      "start": 36.9661,
      "duration": 0.0166,
      "velocity": 97,
      "chip": "ym2612"
    },
    {
      "channel": 2,
      "note": 52,
      "start": 36.9672,
      "duration": 0.0166,
      "velocity": 100,
      "chip": "ym2612"
    },
    {
      "channel": 4,
      "note": 83,
      "start": 36.9815,
      "duration": 0.0161,
      "velocity": 97,
      "chip": "ym2612"
    },
    {
      "channel": 3,
      "note": 80,
      "start": 36.9827,
      "duration": 0.0161,
      "velocity": 97,
      "chip": "ym2612"
    },
    {
      "channel": 2,
      "note": 52,
      "start": 36.9838,
      "duration": 0.0161,
      "velocity": 100,
      "chip": "ym2612"
    },
    {
      "channel": 4,
      "note": 80,
      "start": 36.9976,
      "duration": 0.0139,
      "velocity": 97,
      "chip": "ym2612"
    },
    {
      "channel": 3,
      "note": 80,
      "start": 36.9988,
      "duration": 0.0139,
      "velocity": 97,
      "chip": "ym2612"
    },
    {
      "channel": 2,
      "note": 52,
      "start": 36.9999,
      "duration": 0.0138,
      "velocity": 100,
      "chip": "ym2612"
    },
    {
      "channel": 4,
      "note": 80,
      "start": 37.0115,
      "duration": 0.0157,
      "velocity": 97,
      "chip": "ym2612"
    },
    {
      "channel": 3,
      "note": 80,
      "start": 37.0127,
      "duration": 0.0185,
      "velocity": 97,
      "chip": "ym2612"
    },
    {
      "channel": 2,
      "note": 52,
      "start": 37.0137,
      "duration": 0.0185,
      "velocity": 100,
      "chip": "ym2612"
    },
    {
      "channel": 4,
      "note": 80,
      "start": 37.0272,
      "duration": 0.0161,
      "velocity": 97,
      "chip": "ym2612"
    },
    {
      "channel": 3,
      "note": 80,
      "start": 37.0311,
      "duration": 0.0162,
      "velocity": 97,
      "chip": "ym2612"
    },
    {
      "channel": 2,
      "note": 52,
      "start": 37.0322,
      "duration": 0.0162,
      "velocity": 100,
      "chip": "ym2612"
    },
    {
      "channel": 4,
      "note": 80,
      "start": 37.0433,
      "duration": 0.0161,
      "velocity": 97,
      "chip": "ym2612"
    },
    {
      "channel": 3,
      "note": 80,
      "start": 37.0473,
      "duration": 0.0133,
      "velocity": 97,
      "chip": "ym2612"
    },
    {
      "channel": 2,
      "note": 52,
      "start": 37.0485,
      "duration": 0.0156,
      "velocity": 100,
      "chip": "ym2612"
    },
    {
      "channel": 4,
      "note": 80,
      "start": 37.0594,
      "duration": 0.0161,
      "velocity": 97,
      "chip": "ym2612"
    },
    {
      "channel": 3,
      "note": 80,
      "start": 37.0606,
      "duration": 0.016,
      "velocity": 97,
      "chip": "ym2612"
    },
    {
      "channel": 2,
      "note": 52,
      "start": 37.0641,
      "duration": 0.014,
      "velocity": 100,
      "chip": "ym2612"
    },
    {
      "channel": 4,
      "note": 80,
      "start": 37.0755,
      "duration": 0.0163,
      "velocity": 97,
      "chip": "ym2612"
    },
    {
      "channel": 3,
      "note": 80,
      "start": 37.0766,
      "duration": 0.0163,
      "velocity": 97,
      "chip": "ym2612"
    },
    {
      "channel": 2,
      "note": 52,
      "start": 37.0781,
      "duration": 0.0187,
      "velocity": 100,
      "chip": "ym2612"
    },
    {
      "channel": 4,
      "note": 80,
      "start": 37.0919,
      "duration": 0.0159,
      "velocity": 97,
      "chip": "ym2612"
    },
    {
      "channel": 3,
      "note": 80,
      "start": 37.0929,
      "duration": 0.016,
      "velocity": 97,
      "chip": "ym2612"
    },
    {
      "channel": 2,
      "note": 52,
      "start": 37.0968,
      "duration": 0.0132,
      "velocity": 100,
      "chip": "ym2612"
    },
    {
      "channel": 4,
      "note": 80,
      "start": 37.1078,
      "duration": 0.0161,
      "velocity": 97,
      "chip": "ym2612"
    },
    {
      "channel": 3,
      "note": 80,
      "start": 37.1089,
      "duration": 0.016,
      "velocity": 97,
      "chip": "ym2612"
    },
    {
      "channel": 2,
      "note": 52,
      "start": 37.11,
      "duration": 0.016,
      "velocity": 100,
      "chip": "ym2612"
    },
    {
      "channel": 4,
      "note": 80,
      "start": 37.1239,
      "duration": 0.0214,
      "velocity": 97,
      "chip": "ym2612"
    },
    {
      "channel": 3,
      "note": 80,
      "start": 37.1249,
      "duration": 0.0232,
      "velocity": 97,
      "chip": "ym2612"
    },
    {
      "channel": 2,
      "note": 52,
      "start": 37.1261,
      "duration": 0.0235,
      "velocity": 100,
      "chip": "ym2612"
    },
    {
      "channel": 0,
      "note": 36,
      "start": 37.1422,
      "duration": 0.0144,
      "velocity": 115,
      "chip": "ym2612"
    },
    {
      "channel": 4,
      "note": 80,
      "start": 37.1453,
      "duration": 0.0125,
      "velocity": 97,
      "chip": "ym2612"
    },
    {
      "channel": 3,
      "note": 80,
      "start": 37.1481,
      "duration": 0.0109,
      "velocity": 97,
      "chip": "ym2612"
    },
    {
      "channel": 2,
      "note": 45,
      "start": 37.1497,
      "duration": 0.0105,
      "velocity": 100,
      "chip": "ym2612"
    },
    {
      "channel": 0,
      "note": 36,
      "start": 37.1566,
      "duration": 0.016,
      "velocity": 115,
      "chip": "ym2612"
    },
    {
      "channel": 4,
      "note": 80,
      "start": 37.1578,
      "duration": 0.016,
      "velocity": 97,
      "chip": "ym2612"
    },
    {
      "channel": 3,
      "note": 80,
      "start": 37.159,
      "duration": 0.0159,
      "velocity": 97,
      "chip": "ym2612"
    },
    {
      "channel": 2,
      "note": 45,
      "start": 37.1602,
      "duration": 0.0158,
      "velocity": 100,
      "chip": "ym2612"
    },
    {
      "channel": 0,
      "note": 37,
      "start": 37.1727,
      "duration": 0.0161,
      "velocity": 115,
      "chip": "ym2612"
    },
    {
      "channel": 4,
      "note": 80,
      "start": 37.1738,
      "duration": 0.0163,
      "velocity": 97,
      "chip": "ym2612"
    },
    {
      "channel": 3,
      "note": 80,
      "start": 37.1749,
      "duration": 0.0163,
      "velocity": 97,
      "chip": "ym2612"
    },
    {
      "channel": 2,
      "note": 45,
      "start": 37.176,
      "duration": 0.0163,
      "velocity": 100,
      "chip": "ym2612"
    },
    {
      "channel": 0,
      "note": 37,
      "start": 37.1887,
      "duration": 0.0161,
      "velocity": 115,
      "chip": "ym2612"
    },
    {
      "channel": 4,
      "note": 80,
      "start": 37.1901,
      "duration": 0.016,
      "velocity": 97,
      "chip": "ym2612"
    },
    {
      "channel": 3,
      "note": 80,
      "start": 37.1912,
      "duration": 0.016,
      "velocity": 97,
      "chip": "ym2612"
    },
    {
      "channel": 2,
      "note": 45,
      "start": 37.1923,
      "duration": 0.016,
      "velocity": 100,
      "chip": "ym2612"
    },
    {
      "channel": 0,
      "note": 38,
      "start": 37.2048,
      "duration": 0.0161,
      "velocity": 115,
      "chip": "ym2612"
    },
    {
      "channel": 4,
      "note": 80,
      "start": 37.206,
      "duration": 0.016,
      "velocity": 97,
      "chip": "ym2612"
    },
    {
      "channel": 3,
      "note": 80,
      "start": 37.2072,
      "duration": 0.016,
      "velocity": 97,
      "chip": "ym2612"
    },
    {
      "channel": 2,
      "note": 45,
      "start": 37.2083,
      "duration": 0.0161,
      "velocity": 100,
      "chip": "ym2612"
    },
    {
      "channel": 0,
      "note": 38,
      "start": 37.2209,
      "duration": 0.0161,
      "velocity": 115,
      "chip": "ym2612"
    },
    {
      "channel": 4,
      "note": 80,
      "start": 37.2221,
      "duration": 0.0161,
      "velocity": 97,
      "chip": "ym2612"
    },
    {
      "channel": 3,
      "note": 80,
      "start": 37.2232,
      "duration": 0.0161,
      "velocity": 97,
      "chip": "ym2612"
    },
    {
      "channel": 2,
      "note": 45,
      "start": 37.2244,
      "duration": 0.0161,
      "velocity": 100,
      "chip": "ym2612"
    },
    {
      "channel": 0,
      "note": 39,
      "start": 37.237,
      "duration": 0.0161,
      "velocity": 115,
      "chip": "ym2612"
    },
    {
      "channel": 4,
      "note": 80,
      "start": 37.2382,
      "duration": 0.0161,
      "velocity": 97,
      "chip": "ym2612"
    },
    {
      "channel": 3,
      "note": 80,
      "start": 37.2393,
      "duration": 0.0161,
      "velocity": 97,
      "chip": "ym2612"
    },
    {
      "channel": 2,
      "note": 45,
      "start": 37.2405,
      "duration": 0.0161,
      "velocity": 100,
      "chip": "ym2612"
    },
    {
      "channel": 0,
      "note": 39,
      "start": 37.2531,
      "duration": 0.0161,
      "velocity": 115,
      "chip": "ym2612"
    },
    {
      "channel": 4,
      "note": 80,
      "start": 37.2543,
      "duration": 0.0161,
      "velocity": 97,
      "chip": "ym2612"
    },
    {
      "channel": 3,
      "note": 80,
      "start": 37.2554,
      "duration": 0.0161,
      "velocity": 97,
      "chip": "ym2612"
    },
    {
      "channel": 2,
      "note": 45,
      "start": 37.2566,
      "duration": 0.0161,
      "velocity": 100,
      "chip": "ym2612"
    },
    {
      "channel": 0,
      "note": 40,
      "start": 37.2692,
      "duration": 0.0161,
      "velocity": 115,
      "chip": "ym2612"
    },
    {
      "channel": 4,
      "note": 80,
      "start": 37.2704,
      "duration": 0.0161,
      "velocity": 97,
      "chip": "ym2612"
    },
    {
      "channel": 3,
      "note": 80,
      "start": 37.2715,
      "duration": 0.0161,
      "velocity": 97,
      "chip": "ym2612"
    },
    {
      "channel": 2,
      "note": 45,
      "start": 37.2727,
      "duration": 0.0161,
      "velocity": 100,
      "chip": "ym2612"
    },
    {
      "channel": 0,
      "note": 40,
      "start": 37.2853,
      "duration": 0.0161,
      "velocity": 115,
      "chip": "ym2612"
    },
    {
      "channel": 4,
      "note": 80,
      "start": 37.2865,
      "duration": 0.0161,
      "velocity": 97,
      "chip": "ym2612"
    },
    {
      "channel": 3,
      "note": 80,
      "start": 37.2876,
      "duration": 0.0161,
      "velocity": 97,
      "chip": "ym2612"
    },
    {
      "channel": 2,
      "note": 45,
      "start": 37.2887,
      "duration": 0.0161,
      "velocity": 100,
      "chip": "ym2612"
    },
    {
      "channel": 0,
      "note": 40,
      "start": 37.3015,
      "duration": 0.0161,
      "velocity": 115,
      "chip": "ym2612"
    },
    {
      "channel": 4,
      "note": 80,
      "start": 37.3026,
      "duration": 0.0161,
      "velocity": 97,
      "chip": "ym2612"
    },
    {
      "channel": 3,
      "note": 80,
      "start": 37.3037,
      "duration": 0.0161,
      "velocity": 97,
      "chip": "ym2612"
    },
    {
      "channel": 2,
      "note": 45,
      "start": 37.3048,
      "duration": 0.0161,
      "velocity": 100,
      "chip": "ym2612"
    },
    {
      "channel": 0,
      "note": 41,
      "start": 37.3176,
      "duration": 0.0161,
      "velocity": 115,
      "chip": "ym2612"
    },
    {
      "channel": 4,
      "note": 80,
      "start": 37.3187,
      "duration": 0.0161,
      "velocity": 97,
      "chip": "ym2612"
    },
    {
      "channel": 3,
      "note": 80,
      "start": 37.3198,
      "duration": 0.0163,
      "velocity": 97,
      "chip": "ym2612"
    },
    {
      "channel": 2,
      "note": 45,
      "start": 37.3209,
      "duration": 0.0165,
      "velocity": 100,
      "chip": "ym2612"
    },
    {
      "channel": 0,
      "note": 41,
      "start": 37.3337,
      "duration": 0.0161,
      "velocity": 115,
      "chip": "ym2612"
    },
    {
      "channel": 4,
      "note": 80,
      "start": 37.3348,
      "duration": 0.0161,
      "velocity": 97,
      "chip": "ym2612"
    },
    {
      "channel": 3,
      "note": 80,
      "start": 37.3361,
      "duration": 0.016,
      "velocity": 97,
      "chip": "ym2612"
    },
    {
      "channel": 2,
      "note": 52,
      "start": 37.3375,
      "duration": 0.0158,
      "velocity": 100,
      "chip": "ym2612"
    },
    {
      "channel": 0,
      "note": 42,
      "start": 37.3498,
      "duration": 0.0161,
      "velocity": 115,
      "chip": "ym2612"
    },
    {
      "channel": 4,
      "note": 80,
      "start": 37.3509,
      "duration": 0.0161,
      "velocity": 97,
      "chip": "ym2612"
    },
    {
      "channel": 3,
      "note": 80,
      "start": 37.3521,
      "duration": 0.016,
      "velocity": 97,
      "chip": "ym2612"
    },
    {
      "channel": 2,
      "note": 52,
      "start": 37.3532,
      "duration": 0.016,
      "velocity": 100,
      "chip": "ym2612"
    },
    {
      "channel": 0,
      "note": 42,
      "start": 37.3658,
      "duration": 0.0162,
      "velocity": 115,
      "chip": "ym2612"
    },
    {
      "channel": 4,
      "note": 80,
      "start": 37.367,
      "duration": 0.0163,
      "velocity": 97,
      "chip": "ym2612"
    },
    {
      "channel": 3,
      "note": 80,
      "start": 37.3681,
      "duration": 0.0163,
      "velocity": 97,
      "chip": "ym2612"
    },
    {
      "channel": 2,
      "note": 52,
      "start": 37.3693,
      "duration": 0.0163,
      "velocity": 100,
      "chip": "ym2612"
    },
    {
      "channel": 0,
      "note": 43,
      "start": 37.3821,
      "duration": 0.0163,
      "velocity": 115,
      "chip": "ym2612"
    },
    {
      "channel": 4,
      "note": 80,
      "start": 37.3833,
      "duration": 0.0162,
      "velocity": 97,
      "chip": "ym2612"
    },
    {
      "channel": 3,
      "note": 80,
      "start": 37.3844,
      "duration": 0.0163,
      "velocity": 97,
      "chip": "ym2612"
    },
    {
      "channel": 2,
      "note": 52,
      "start": 37.3856,
      "duration": 0.0162,
      "velocity": 100,
      "chip": "ym2612"
    },
    {
      "channel": 0,
      "note": 43,
      "start": 37.3983,
      "duration": 0.0158,
      "velocity": 115,
      "chip": "ym2612"
    },
    {
      "channel": 4,
      "note": 80,
      "start": 37.3995,
      "duration": 0.0157,
      "velocity": 97,
      "chip": "ym2612"
    },
    {
      "channel": 3,
      "note": 80,
      "start": 37.4007,
      "duration": 0.0157,
      "velocity": 97,
      "chip": "ym2612"
    },
    {
      "channel": 2,
      "note": 52,
      "start": 37.4018,
      "duration": 0.0158,
      "velocity": 100,
      "chip": "ym2612"
    },
    {
      "channel": 0,
      "note": 44,
      "start": 37.4141,
      "duration": 0.0179,
      "velocity": 115,
      "chip": "ym2612"
    },
    {
      "channel": 4,
      "note": 80,
      "start": 37.4153,
      "duration": 0.0179,
      "velocity": 97,
      "chip": "ym2612"
    },
    {
      "channel": 3,
      "note": 80,
      "start": 37.4164,
      "duration": 0.0179,
      "velocity": 97,
      "chip": "ym2612"
    },
    {
      "channel": 2,
      "note": 52,
      "start": 37.4176,
      "duration": 0.0179,
      "velocity": 100,
      "chip": "ym2612"
    },
    {
      "channel": 0,
      "note": 44,
      "start": 37.4321,
      "duration": 0.0167,
      "velocity": 115,
      "chip": "ym2612"
    },
    {
      "channel": 4,
      "note": 80,
      "start": 37.4332,
      "duration": 0.0167,
      "velocity": 97,
      "chip": "ym2612"
    },
    {
      "channel": 3,
      "note": 80,
      "start": 37.4344,
      "duration": 0.0166,
      "velocity": 97,
      "chip": "ym2612"
    },
    {
      "channel": 2,
      "note": 52,
      "start": 37.4354,
      "duration": 0.0167,
      "velocity": 100,
      "chip": "ym2612"
    },
    {
      "channel": 0,
      "note": 44,
      "start": 37.4487,
      "duration": 0.0161,
      "velocity": 115,
      "chip": "ym2612"
    },
    {
      "channel": 4,
      "note": 80,
      "start": 37.4499,
      "duration": 0.0161,
      "velocity": 97,
      "chip": "ym2612"
    },
    {
      "channel": 3,
      "note": 80,
      "start": 37.451,
      "duration": 0.0162,
      "velocity": 97,
      "chip": "ym2612"
    },
    {
      "channel": 2,
      "note": 52,
      "start": 37.4521,
      "duration": 0.0161,
      "velocity": 100,
      "chip": "ym2612"
    },
    {
      "channel": 0,
      "note": 45,
      "start": 37.4648,
      "duration": 0.0141,
      "velocity": 115,
      "chip": "ym2612"
    },
    {
      "channel": 4,
      "note": 80,
      "start": 37.466,
      "duration": 0.0141,
      "velocity": 97,
      "chip": "ym2612"
    },
    {
      "channel": 3,
      "note": 80,
      "start": 37.4671,
      "duration": 0.0141,
      "velocity": 97,
      "chip": "ym2612"
    },
    {
      "channel": 2,
      "note": 52,
      "start": 37.4683,
      "duration": 0.014,
      "velocity": 100,
      "chip": "ym2612"
    },
    {
      "channel": 0,
      "note": 45,
      "start": 37.4789,
      "duration": 0.0185,
      "velocity": 115,
      "chip": "ym2612"
    },
    {
      "channel": 4,
      "note": 80,
      "start": 37.48,
      "duration": 0.0185,
      "velocity": 97,
      "chip": "ym2612"
    },
    {
      "channel": 3,
      "note": 80,
      "start": 37.4812,
      "duration": 0.0185,
      "velocity": 97,
      "chip": "ym2612"
    },
    {
      "channel": 2,
      "note": 52,
      "start": 37.4822,
      "duration": 0.0186,
      "velocity": 100,
      "chip": "ym2612"
    },
    {
      "channel": 0,
      "note": 46,
      "start": 37.4974,
      "duration": 0.0161,
      "velocity": 115,
      "chip": "ym2612"
    },
    {
      "channel": 4,
      "note": 80,
      "start": 37.4985,
      "duration": 0.0161,
      "velocity": 97,
      "chip": "ym2612"
    },
    {
      "channel": 3,
      "note": 80,
      "start": 37.4997,
      "duration": 0.0161,
      "velocity": 97,
      "chip": "ym2612"
    },
    {
      "channel": 2,
      "note": 52,
      "start": 37.5008,
      "duration": 0.0161,
      "velocity": 100,
      "chip": "ym2612"
    },
    {
      "channel": 0,
      "note": 46,
      "start": 37.5135,
      "duration": 0.0175,
      "velocity": 124,
      "chip": "ym2612"
    },
    {
      "channel": 4,
      "note": 80,
      "start": 37.5146,
      "duration": 0.0176,
      "velocity": 97,
      "chip": "ym2612"
    },
    {
      "channel": 3,
      "note": 80,
      "start": 37.5158,
      "duration": 0.0177,
      "velocity": 97,
      "chip": "ym2612"
    },
    {
      "channel": 2,
      "note": 52,
      "start": 37.5169,
      "duration": 0.0181,
      "velocity": 100,
      "chip": "ym2612"
    },
    {
      "channel": 0,
      "note": 84,
      "start": 37.531,
      "duration": 0.012,
      "velocity": 124,
      "chip": "ym2612"
    },
    {
      "channel": 4,
      "note": 80,
      "start": 37.5322,
      "duration": 0.0124,
      "velocity": 97,
      "chip": "ym2612"
    },
    {
      "channel": 3,
      "note": 76,
      "start": 37.5336,
      "duration": 0.0121,
      "velocity": 97,
      "chip": "ym2612"
    },
    {
      "channel": 2,
      "note": 52,
      "start": 37.5351,
      "duration": 0.0118,
      "velocity": 100,
      "chip": "ym2612"
    },
    {
      "channel": 0,
      "note": 82,
      "start": 37.543,
      "duration": 0.016,
      "velocity": 124,
      "chip": "ym2612"
    },
    {
      "channel": 4,
      "note": 80,
      "start": 37.5445,
      "duration": 0.0156,
      "velocity": 97,
      "chip": "ym2612"
    },
    {
      "channel": 3,
      "note": 76,
      "start": 37.5457,
      "duration": 0.0184,
      "velocity": 97,
      "chip": "ym2612"
    },
    {
      "channel": 2,
      "note": 52,
      "start": 37.5469,
      "duration": 0.0183,
      "velocity": 100,
      "chip": "ym2612"
    },
    {
      "channel": 0,
      "note": 80,
      "start": 37.559,
      "duration": 0.0161,
      "velocity": 124,
      "chip": "ym2612"
    },
    {
      "channel": 4,
      "note": 80,
      "start": 37.5602,
      "duration": 0.0163,
      "velocity": 97,
      "chip": "ym2612"
    },
    {
      "channel": 3,
      "note": 76,
      "start": 37.5641,
      "duration": 0.0164,
      "velocity": 97,
      "chip": "ym2612"
    },
    {
      "channel": 2,
      "note": 52,
      "start": 37.5652,
      "duration": 0.0164,
      "velocity": 100,
      "chip": "ym2612"
    },
    {
      "channel": 0,
      "note": 77,
      "start": 37.5751,
      "duration": 0.0162,
      "velocity": 124,
      "chip": "ym2612"
    },
    {
      "channel": 4,
      "note": 76,
      "start": 37.5766,
      "duration": 0.0159,
      "velocity": 97,
      "chip": "ym2612"
    },
    {
      "channel": 3,
      "note": 76,
      "start": 37.5805,
      "duration": 0.0132,
      "velocity": 97,
      "chip": "ym2612"
    },
    {
      "channel": 2,
      "note": 52,
      "start": 37.5816,
      "duration": 0.0155,
      "velocity": 100,
      "chip": "ym2612"
    },
    {
      "channel": 0,
      "note": 75,
      "start": 37.5913,
      "duration": 0.0161,
      "velocity": 124,
      "chip": "ym2612"
    },
    {
      "channel": 4,
      "note": 76,
      "start": 37.5925,
      "duration": 0.016,
      "velocity": 97,
      "chip": "ym2612"
    },
    {
      "channel": 3,
      "note": 76,
      "start": 37.5936,
      "duration": 0.016,
      "velocity": 97,
      "chip": "ym2612"
    },
    {
      "channel": 2,
      "note": 52,
      "start": 37.5971,
      "duration": 0.014,
      "velocity": 100,
      "chip": "ym2612"
    },
    {
      "channel": 0,
      "note": 72,
      "start": 37.6074,
      "duration": 0.0161,
      "velocity": 124,
      "chip": "ym2612"
    },
    {
      "channel": 4,
      "note": 76,
      "start": 37.6085,
      "duration": 0.0161,
      "velocity": 97,
      "chip": "ym2612"
    },
    {
      "channel": 3,
      "note": 76,
      "start": 37.6097,
      "duration": 0.0161,
      "velocity": 97,
      "chip": "ym2612"
    },
    {
      "channel": 2,
      "note": 52,
      "start": 37.6111,
      "duration": 0.0158,
      "velocity": 100,
      "chip": "ym2612"
    },
    {
      "channel": 0,
      "note": 70,
      "start": 37.6235,
      "duration": 0.0161,
      "velocity": 124,
      "chip": "ym2612"
    },
    {
      "channel": 4,
      "note": 76,
      "start": 37.6246,
      "duration": 0.0161,
      "velocity": 97,
      "chip": "ym2612"
    },
    {
      "channel": 3,
      "note": 76,
      "start": 37.6258,
      "duration": 0.0161,
      "velocity": 97,
      "chip": "ym2612"
    },
    {
      "channel": 2,
      "note": 52,
      "start": 37.6269,
      "duration": 0.0161,
      "velocity": 100,
      "chip": "ym2612"
    },
    {
      "channel": 0,
      "note": 68,
      "start": 37.6396,
      "duration": 0.0161,
      "velocity": 124,
      "chip": "ym2612"
    },
    {
      "channel": 4,
      "note": 76,
      "start": 37.6407,
      "duration": 0.0161,
      "velocity": 97,
      "chip": "ym2612"
    },
    {
      "channel": 3,
      "note": 76,
      "start": 37.6419,
      "duration": 0.0161,
      "velocity": 97,
      "chip": "ym2612"
    },
    {
      "channel": 2,
      "note": 52,
      "start": 37.643,
      "duration": 0.0161,
      "velocity": 100,
      "chip": "ym2612"
    },
    {
      "channel": 0,
      "note": 65,
      "start": 37.6557,
      "duration": 0.0161,
      "velocity": 124,
      "chip": "ym2612"
    },
    {
      "channel": 4,
      "note": 76,
      "start": 37.6568,
      "duration": 0.0161,
      "velocity": 97,
      "chip": "ym2612"
    },
    {
      "channel": 3,
      "note": 76,
      "start": 37.658,
      "duration": 0.0161,
      "velocity": 97,
      "chip": "ym2612"
    },
    {
      "channel": 2,
      "note": 52,
      "start": 37.6591,
      "duration": 0.0161,
      "velocity": 100,
      "chip": "ym2612"
    },
    {
      "channel": 0,
      "note": 63,
      "start": 37.6717,
      "duration": 0.0153,
      "velocity": 1,
      "chip": "ym2612"
    },
    {
      "channel": 4,
      "note": 76,
      "start": 37.6729,
      "duration": 0.0153,
      "velocity": 97,
      "chip": "ym2612"
    },
    {
      "channel": 3,
      "note": 76,
      "start": 37.674,
      "duration": 0.0153,
      "velocity": 97,
      "chip": "ym2612"
    },
    {
      "channel": 2,
      "note": 52,
      "start": 37.6752,
      "duration": 0.0153,
      "velocity": 100,
      "chip": "ym2612"
    },
    {
      "channel": 4,
      "note": 76,
      "start": 37.6882,
      "duration": 0.0153,
      "velocity": 97,
      "chip": "ym2612"
    },
    {
      "channel": 3,
      "note": 76,
      "start": 37.6894,
      "duration": 0.0152,
      "velocity": 97,
      "chip": "ym2612"
    },
    {
      "channel": 2,
      "note": 52,
      "start": 37.6905,
      "duration": 0.0153,
      "velocity": 100,
      "chip": "ym2612"
    },
    {
      "channel": 4,
      "note": 76,
      "start": 37.7035,
      "duration": 0.0195,
      "velocity": 97,
      "chip": "ym2612"
    },
    {
      "channel": 3,
      "note": 76,
      "start": 37.7046,
      "duration": 0.0197,
      "velocity": 97,
      "chip": "ym2612"
    },
    {
      "channel": 2,
      "note": 52,
      "start": 37.7057,
      "duration": 0.02,
      "velocity": 100,
      "chip": "ym2612"
    },
    {
      "channel": 0,
      "note": 36,
      "start": 37.7218,
      "duration": 0.0144,
      "velocity": 115,
      "chip": "ym2612"
    },
    {
      "channel": 4,
      "note": 76,
      "start": 37.723,
      "duration": 0.0144,
      "velocity": 97,
      "chip": "ym2612"
    },
    {
      "channel": 3,
      "note": 76,
      "start": 37.7243,
      "duration": 0.0142,
      "velocity": 97,
      "chip": "ym2612"
    },
    {
      "channel": 2,
      "note": 52,
      "start": 37.7257,
      "duration": 0.0141,
      "velocity": 100,
      "chip": "ym2612"
    },
    {
      "channel": 0,
      "note": 36,
      "start": 37.7362,
      "duration": 0.0161,
      "velocity": 115,
      "chip": "ym2612"
    },
    {
      "channel": 4,
      "note": 76,
      "start": 37.7374,
      "duration": 0.016,
      "velocity": 97,
      "chip": "ym2612"
    },
    {
      "channel": 3,
      "note": 76,
      "start": 37.7385,
      "duration": 0.016,
      "velocity": 97,
      "chip": "ym2612"
    },
    {
      "channel": 2,
      "note": 52,
      "start": 37.7398,
      "duration": 0.0159,
      "velocity": 100,
      "chip": "ym2612"
    },
    {
      "channel": 0,
      "note": 37,
      "start": 37.7523,
      "duration": 0.0161,
      "velocity": 115,
      "chip": "ym2612"
    },
    {
      "channel": 4,
      "note": 76,
      "start": 37.7534,
      "duration": 0.0162,
      "velocity": 97,
      "chip": "ym2612"
    },
    {
      "channel": 3,
      "note": 76,
      "start": 37.7546,
      "duration": 0.0161,
      "velocity": 97,
      "chip": "ym2612"
    },
    {
      "channel": 2,
      "note": 52,
      "start": 37.7557,
      "duration": 0.0162,
      "velocity": 100,
      "chip": "ym2612"
    },
    {
      "channel": 0,
      "note": 37,
      "start": 37.7684,
      "duration": 0.0161,
      "velocity": 115,
      "chip": "ym2612"
    },
    {
      "channel": 4,
      "note": 76,
      "start": 37.7697,
      "duration": 0.016,
      "velocity": 97,
      "chip": "ym2612"
    },
    {
      "channel": 3,
      "note": 76,
      "start": 37.7707,
      "duration": 0.0161,
      "velocity": 97,
      "chip": "ym2612"
    },
    {
      "channel": 2,
      "note": 52,
      "start": 37.7719,
      "duration": 0.016,
      "velocity": 100,
      "chip": "ym2612"
    },
    {
      "channel": 0,
      "note": 38,
      "start": 37.7845,
      "duration": 0.0161,
      "velocity": 115,
      "chip": "ym2612"
    },
    {
      "channel": 4,
      "note": 76,
      "start": 37.7857,
      "duration": 0.016,
      "velocity": 97,
      "chip": "ym2612"
    },
    {
      "channel": 3,
      "note": 76,
      "start": 37.7868,
      "duration": 0.016,
      "velocity": 97,
      "chip": "ym2612"
    },
    {
      "channel": 2,
      "note": 52,
      "start": 37.7879,
      "duration": 0.0161,
      "velocity": 100,
      "chip": "ym2612"
    },
    {
      "channel": 0,
      "note": 38,
      "start": 37.8006,
      "duration": 0.0161,
      "velocity": 115,
      "chip": "ym2612"
    },
    {
      "channel": 4,
      "note": 76,
      "start": 37.8017,
      "duration": 0.0161,
      "velocity": 97,
      "chip": "ym2612"
    },
    {
      "channel": 3,
      "note": 76,
      "start": 37.8029,
      "duration": 0.0161,
      "velocity": 97,
      "chip": "ym2612"
    },
    {
      "channel": 2,
      "note": 52,
      "start": 37.804,
      "duration": 0.0161,
      "velocity": 100,
      "chip": "ym2612"
    },
    {
      "channel": 0,
      "note": 39,
      "start": 37.8167,
      "duration": 0.0161,
      "velocity": 115,
      "chip": "ym2612"
    },
    {
      "channel": 4,
      "note": 76,
      "start": 37.8178,
      "duration": 0.0161,
      "velocity": 97,
      "chip": "ym2612"
    },
    {
      "channel": 3,
      "note": 76,
      "start": 37.819,
      "duration": 0.0161,
      "velocity": 97,
      "chip": "ym2612"
    },
    {
      "channel": 2,
      "note": 52,
      "start": 37.8201,
      "duration": 0.0161,
      "velocity": 100,
      "chip": "ym2612"
    },
    {
      "channel": 0,
      "note": 39,
      "start": 37.8328,
      "duration": 0.0161,
      "velocity": 115,
      "chip": "ym2612"
    },
    {
      "channel": 4,
      "note": 76,
      "start": 37.8339,
      "duration": 0.0161,
      "velocity": 97,
      "chip": "ym2612"
    },
    {
      "channel": 3,
      "note": 76,
      "start": 37.8351,
      "duration": 0.0161,
      "velocity": 97,
      "chip": "ym2612"
    },
    {
      "channel": 2,
      "note": 52,
      "start": 37.8362,
      "duration": 0.0161,
      "velocity": 100,
      "chip": "ym2612"
    },
    {
      "channel": 0,
      "note": 40,
      "start": 37.8488,
      "duration": 0.0162,
      "velocity": 115,
      "chip": "ym2612"
    },
    {
      "channel": 4,
      "note": 76,
      "start": 37.85,
      "duration": 0.0161,
      "velocity": 97,
      "chip": "ym2612"
    },
    {
      "channel": 3,
      "note": 76,
      "start": 37.8511,
      "duration": 0.0162,
      "velocity": 97,
      "chip": "ym2612"
    },
    {
      "channel": 2,
      "note": 52,
      "start": 37.8523,
      "duration": 0.0161,
      "velocity": 100,
      "chip": "ym2612"
    },
    {
      "channel": 0,
      "note": 40,
      "start": 37.865,
      "duration": 0.0161,
      "velocity": 115,
      "chip": "ym2612"
    },
    {
      "channel": 4,
      "note": 76,
      "start": 37.8661,
      "duration": 0.0161,
      "velocity": 97,
      "chip": "ym2612"
    },
    {
      "channel": 3,
      "note": 76,
      "start": 37.8673,
      "duration": 0.016,
      "velocity": 97,
      "chip": "ym2612"
    },
    {
      "channel": 2,
      "note": 52,
      "start": 37.8684,
      "duration": 0.016,
      "velocity": 100,
      "chip": "ym2612"
    },
    {
      "channel": 0,
      "note": 40,
      "start": 37.8811,
      "duration": 0.0176,
      "velocity": 115,
      "chip": "ym2612"
    },
    {
      "channel": 4,
      "note": 76,
      "start": 37.8822,
      "duration": 0.0176,
      "velocity": 97,
      "chip": "ym2612"
    },
    {
      "channel": 3,
      "note": 76,
      "start": 37.8833,
      "duration": 0.0176,
      "velocity": 97,
      "chip": "ym2612"
    },
    {
      "channel": 2,
      "note": 52,
      "start": 37.8845,
      "duration": 0.0176,
      "velocity": 100,
      "chip": "ym2612"
    },
    {
      "channel": 0,
      "note": 41,
      "start": 37.8987,
      "duration": 0.0185,
      "velocity": 115,
      "chip": "ym2612"
    },
    {
      "channel": 4,
      "note": 76,
      "start": 37.8999,
      "duration": 0.0185,
      "velocity": 97,
      "chip": "ym2612"
    },
    {
      "channel": 3,
      "note": 76,
      "start": 37.901,
      "duration": 0.0187,
      "velocity": 97,
      "chip": "ym2612"
    },
    {
      "channel": 2,
      "note": 52,
      "start": 37.9021,
      "duration": 0.019,
      "velocity": 100,
      "chip": "ym2612"
    },
    {
      "channel": 0,
      "note": 36,
      "start": 37.9172,
      "duration": 0.0146,
      "velocity": 115,
      "chip": "ym2612"
    },
    {
      "channel": 4,
      "note": 76,
      "start": 37.9183,
      "duration": 0.0146,
      "velocity": 97,
      "chip": "ym2612"
    },
    {
      "channel": 3,
      "note": 76,
      "start": 37.9197,
      "duration": 0.0144,
      "velocity": 97,
      "chip": "ym2612"
    },
    {
      "channel": 2,
      "note": 52,
      "start": 37.9212,
      "duration": 0.0141,
      "velocity": 100,
      "chip": "ym2612"
    },
    {
      "channel": 0,
      "note": 36,
      "start": 37.9317,
      "duration": 0.0141,
      "velocity": 115,
      "chip": "ym2612"
    },
    {
      "channel": 4,
      "note": 76,
      "start": 37.9329,
      "duration": 0.0141,
      "velocity": 97,
      "chip": "ym2612"
    },
    {
      "channel": 3,
      "note": 76,
      "start": 37.9341,
      "duration": 0.014,
      "velocity": 97,
      "chip": "ym2612"
    },
    {
      "channel": 2,
      "note": 52,
      "start": 37.9352,
      "duration": 0.014,
      "velocity": 100,
      "chip": "ym2612"
    },
    {
      "channel": 0,
      "note": 37,
      "start": 37.9458,
      "duration": 0.0185,
      "velocity": 115,
      "chip": "ym2612"
    },
    {
      "channel": 4,
      "note": 76,
      "start": 37.9469,
      "duration": 0.0188,
      "velocity": 97,
      "chip": "ym2612"
    },
    {
      "channel": 3,
      "note": 76,
      "start": 37.9481,
      "duration": 0.0188,
      "velocity": 97,
      "chip": "ym2612"
    },
    {
      "channel": 2,
      "note": 52,
      "start": 37.9492,
      "duration": 0.0188,
      "velocity": 100,
      "chip": "ym2612"
    },
    {
      "channel": 0,
      "note": 37,
      "start": 37.9643,
      "duration": 0.0161,
      "velocity": 115,
      "chip": "ym2612"
    },
    {
      "channel": 4,
      "note": 76,
      "start": 37.9657,
      "duration": 0.0159,
      "velocity": 97,
      "chip": "ym2612"
    },
    {
      "channel": 3,
      "note": 76,
      "start": 37.9668,
      "duration": 0.0159,
      "velocity": 97,
      "chip": "ym2612"
    },
    {
      "channel": 2,
      "note": 52,
      "start": 37.968,
      "duration": 0.0159,
      "velocity": 100,
      "chip": "ym2612"
    },
    {
      "channel": 0,
      "note": 38,
      "start": 37.9804,
      "duration": 0.0134,
      "velocity": 115,
      "chip": "ym2612"
    },
    {
      "channel": 4,
      "note": 76,
      "start": 37.9816,
      "duration": 0.0157,
      "velocity": 97,
      "chip": "ym2612"
    },
    {
      "channel": 3,
      "note": 76,
      "start": 37.9828,
      "duration": 0.0157,
      "velocity": 97,
      "chip": "ym2612"
    },
    {
      "channel": 2,
      "note": 52,
      "start": 37.9839,
      "duration": 0.0156,
      "velocity": 100,
      "chip": "ym2612"
    },
    {
      "channel": 0,
      "note": 38,
      "start": 37.9938,
      "duration": 0.0161,
      "velocity": 115,
      "chip": "ym2612"
    },
    {
      "channel": 4,
      "note": 76,
      "start": 37.9973,
      "duration": 0.0141,
      "velocity": 97,
      "chip": "ym2612"
    },
    {
      "channel": 3,
      "note": 76,
      "start": 37.9985,
      "duration": 0.0141,
      "velocity": 97,
      "chip": "ym2612"
    },
    {
      "channel": 2,
      "note": 52,
      "start": 37.9995,
      "duration": 0.0141,
      "velocity": 100,
      "chip": "ym2612"
    },
    {
      "channel": 0,
      "note": 39,
      "start": 38.0099,
      "duration": 0.0161,
      "velocity": 115,
      "chip": "ym2612"
    },
    {
      "channel": 4,
      "note": 76,
      "start": 38.0114,
      "duration": 0.0158,
      "velocity": 97,
      "chip": "ym2612"
    },
    {
      "channel": 3,
      "note": 76,
      "start": 38.0125,
      "duration": 0.0185,
      "velocity": 97,
      "chip": "ym2612"
    },
    {
      "channel": 2,
      "note": 52,
      "start": 38.0136,
      "duration": 0.0185,
      "velocity": 100,
      "chip": "ym2612"
    },
    {
      "channel": 0,
      "note": 39,
      "start": 38.026,
      "duration": 0.0161,
      "velocity": 115,
      "chip": "ym2612"
    },
    {
      "channel": 4,
      "note": 76,
      "start": 38.0272,
      "duration": 0.0161,
      "velocity": 97,
      "chip": "ym2612"
    },
    {
      "channel": 3,
      "note": 76,
      "start": 38.031,
      "duration": 0.0161,
      "velocity": 97,
      "chip": "ym2612"
    },
    {
      "channel": 2,
      "note": 52,
      "start": 38.0321,
      "duration": 0.0161,
      "velocity": 100,
      "chip": "ym2612"
    },
    {
      "channel": 0,
      "note": 40,
      "start": 38.0421,
      "duration": 0.0161,
      "velocity": 115,
      "chip": "ym2612"
    },
    {
      "channel": 4,
      "note": 76,
      "start": 38.0433,
      "duration": 0.0161,
      "velocity": 97,
      "chip": "ym2612"
    },
    {
      "channel": 3,
      "note": 76,
      "start": 38.0471,
      "duration": 0.0134,
      "velocity": 97,
      "chip": "ym2612"
    },
    {
      "channel": 2,
      "note": 52,
      "start": 38.0483,
      "duration": 0.0157,
      "velocity": 100,
      "chip": "ym2612"
    },
    {
      "channel": 0,
      "note": 40,
      "start": 38.0582,
      "duration": 0.0161,
      "velocity": 115,
      "chip": "ym2612"
    },
    {
      "channel": 4,
      "note": 76,
      "start": 38.0593,
      "duration": 0.0161,
      "velocity": 97,
      "chip": "ym2612"
    },
    {
      "channel": 3,
      "note": 76,
      "start": 38.0605,
      "duration": 0.0161,
      "velocity": 97,
      "chip": "ym2612"
    },
    {
      "channel": 2,
      "note": 52,
      "start": 38.064,
      "duration": 0.0141,
      "velocity": 100,
      "chip": "ym2612"
    },
    {
      "channel": 0,
      "note": 40,
      "start": 38.0743,
      "duration": 0.0161,
      "velocity": 115,
      "chip": "ym2612"
    },
    {
      "channel": 4,
      "note": 76,
      "start": 38.0754,
      "duration": 0.0161,
      "velocity": 97,
      "chip": "ym2612"
    },
    {
      "channel": 3,
      "note": 76,
      "start": 38.0766,
      "duration": 0.0161,
      "velocity": 97,
      "chip": "ym2612"
    },
    {
      "channel": 2,
      "note": 52,
      "start": 38.078,
      "duration": 0.0158,
      "velocity": 100,
      "chip": "ym2612"
    },
    {
      "channel": 0,
      "note": 41,
      "start": 38.0904,
      "duration": 0.0161,
      "velocity": 115,
      "chip": "ym2612"
    },
    {
      "channel": 4,
      "note": 76,
      "start": 38.0915,
      "duration": 0.0161,
      "velocity": 97,
      "chip": "ym2612"
    },
    {
      "channel": 3,
      "note": 76,
      "start": 38.0927,
      "duration": 0.0162,
      "velocity": 97,
      "chip": "ym2612"
    },
    {
      "channel": 2,
      "note": 52,
      "start": 38.0938,
      "duration": 0.0165,
      "velocity": 100,
      "chip": "ym2612"
    },
    {
      "channel": 0,
      "note": 41,
      "start": 38.1065,
      "duration": 0.0161,
      "velocity": 115,
      "chip": "ym2612"
    },
    {
      "channel": 4,
      "note": 76,
      "start": 38.1076,
      "duration": 0.0161,
      "velocity": 97,
      "chip": "ym2612"
    },
    {
      "channel": 3,
      "note": 76,
      "start": 38.1089,
      "duration": 0.016,
      "velocity": 97,
      "chip": "ym2612"
    },
    {
      "channel": 2,
      "note": 52,
      "start": 38.1104,
      "duration": 0.0158,
      "velocity": 100,
      "chip": "ym2612"
    },
    {
      "channel": 0,
      "note": 42,
      "start": 38.1226,
      "duration": 0.0161,
      "velocity": 115,
      "chip": "ym2612"
    },
    {
      "channel": 4,
      "note": 76,
      "start": 38.1237,
      "duration": 0.0161,
      "velocity": 97,
      "chip": "ym2612"
    },
    {
      "channel": 3,
      "note": 76,
      "start": 38.1249,
      "duration": 0.016,
      "velocity": 97,
      "chip": "ym2612"
    },
    {
      "channel": 2,
      "note": 52,
      "start": 38.1261,
      "duration": 0.016,
      "velocity": 100,
      "chip": "ym2612"
    },
    {
      "channel": 0,
      "note": 42,
      "start": 38.1387,
      "duration": 0.0161,
      "velocity": 115,
      "chip": "ym2612"
    },
    {
      "channel": 4,
      "note": 76,
      "start": 38.1398,
      "duration": 0.0162,
      "velocity": 97,
      "chip": "ym2612"
    },
    {
      "channel": 3,
      "note": 76,
      "start": 38.141,
      "duration": 0.0162,
      "velocity": 97,
      "chip": "ym2612"
    },
    {
      "channel": 2,
      "note": 52,
      "start": 38.1421,
      "duration": 0.0162,
      "velocity": 100,
      "chip": "ym2612"
    },
    {
      "channel": 0,
      "note": 43,
      "start": 38.1548,
      "duration": 0.0161,
      "velocity": 115,
      "chip": "ym2612"
    },
    {
      "channel": 4,
      "note": 76,
      "start": 38.156,
      "duration": 0.016,
      "velocity": 97,
      "chip": "ym2612"
    },
    {
      "channel": 3,
      "note": 76,
      "start": 38.1572,
      "duration": 0.016,
      "velocity": 97,
      "chip": "ym2612"
    },
    {
      "channel": 2,
      "note": 52,
      "start": 38.1583,
      "duration": 0.016,
      "velocity": 100,
      "chip": "ym2612"
    },
    {
      "channel": 0,
      "note": 43,
      "start": 38.1709,
      "duration": 0.0161,
      "velocity": 115,
      "chip": "ym2612"
    },
    {
      "channel": 4,
      "note": 76,
      "start": 38.1721,
      "duration": 0.0161,
      "velocity": 97,
      "chip": "ym2612"
    },
    {
      "channel": 3,
      "note": 76,
      "start": 38.1732,
      "duration": 0.016,
      "velocity": 97,
      "chip": "ym2612"
    },
    {
      "channel": 2,
      "note": 52,
      "start": 38.1744,
      "duration": 0.016,
      "velocity": 100,
      "chip": "ym2612"
    },
    {
      "channel": 0,
      "note": 44,
      "start": 38.187,
      "duration": 0.0161,
      "velocity": 115,
      "chip": "ym2612"
    },
    {
      "channel": 4,
      "note": 76,
      "start": 38.1882,
      "duration": 0.0161,
      "velocity": 97,
      "chip": "ym2612"
    },
    {
      "channel": 3,
      "note": 76,
      "start": 38.1893,
      "duration": 0.0161,
      "velocity": 97,
      "chip": "ym2612"
    },
    {
      "channel": 2,
      "note": 52,
      "start": 38.1904,
      "duration": 0.0161,
      "velocity": 100,
      "chip": "ym2612"
    },
    {
      "channel": 0,
      "note": 44,
      "start": 38.2031,
      "duration": 0.0161,
      "velocity": 115,
      "chip": "ym2612"
    },
    {
      "channel": 4,
      "note": 76,
      "start": 38.2043,
      "duration": 0.0161,
      "velocity": 97,
      "chip": "ym2612"
    },
    {
      "channel": 3,
      "note": 76,
      "start": 38.2054,
      "duration": 0.0161,
      "velocity": 97,
      "chip": "ym2612"
    },
    {
      "channel": 2,
      "note": 52,
      "start": 38.2065,
      "duration": 0.0161,
      "velocity": 100,
      "chip": "ym2612"
    },
    {
      "channel": 0,
      "note": 44,
      "start": 38.2192,
      "duration": 0.0161,
      "velocity": 115,
      "chip": "ym2612"
    },
    {
      "channel": 4,
      "note": 76,
      "start": 38.2204,
      "duration": 0.0161,
      "velocity": 97,
      "chip": "ym2612"
    },
    {
      "channel": 3,
      "note": 76,
      "start": 38.2215,
      "duration": 0.0161,
      "velocity": 97,
      "chip": "ym2612"
    },
    {
      "channel": 2,
      "note": 52,
      "start": 38.2226,
      "duration": 0.0161,
      "velocity": 100,
      "chip": "ym2612"
    },
    {
      "channel": 0,
      "note": 45,
      "start": 38.2353,
      "duration": 0.0161,
      "velocity": 115,
      "chip": "ym2612"
    },
    {
      "channel": 4,
      "note": 76,
      "start": 38.2364,
      "duration": 0.0161,
      "velocity": 97,
      "chip": "ym2612"
    },
    {
      "channel": 3,
      "note": 76,
      "start": 38.2376,
      "duration": 0.0161,
      "velocity": 97,
      "chip": "ym2612"
    },
    {
      "channel": 2,
      "note": 52,
      "start": 38.2387,
      "duration": 0.0161,
      "velocity": 100,
      "chip": "ym2612"
    },
    {
      "channel": 0,
      "note": 45,
      "start": 38.2514,
      "duration": 0.0161,
      "velocity": 115,
      "chip": "ym2612"
    },
    {
      "channel": 4,
      "note": 76,
      "start": 38.2525,
      "duration": 0.0161,
      "velocity": 97,
      "chip": "ym2612"
    },
    {
      "channel": 3,
      "note": 76,
      "start": 38.2537,
      "duration": 0.0161,
      "velocity": 97,
      "chip": "ym2612"
    },
    {
      "channel": 2,
      "note": 52,
      "start": 38.2548,
      "duration": 0.0161,
      "velocity": 100,
      "chip": "ym2612"
    },
    {
      "channel": 0,
      "note": 46,
      "start": 38.2675,
      "duration": 0.0161,
      "velocity": 115,
      "chip": "ym2612"
    },
    {
      "channel": 4,
      "note": 76,
      "start": 38.2686,
      "duration": 0.0161,
      "velocity": 97,
      "chip": "ym2612"
    },
    {
      "channel": 3,
      "note": 76,
      "start": 38.2698,
      "duration": 0.0161,
      "velocity": 97,
      "chip": "ym2612"
    },
    {
      "channel": 2,
      "note": 52,
      "start": 38.2709,
      "duration": 0.0161,
      "velocity": 100,
      "chip": "ym2612"
    },
    {
      "channel": 0,
      "note": 46,
      "start": 38.2836,
      "duration": 0.0179,
      "velocity": 124,
      "chip": "ym2612"
    },
    {
      "channel": 4,
      "note": 76,
      "start": 38.2847,
      "duration": 0.0179,
      "velocity": 97,
      "chip": "ym2612"
    },
    {
      "channel": 3,
      "note": 76,
      "start": 38.2859,
      "duration": 0.0181,
      "velocity": 97,
      "chip": "ym2612"
    },
    {
      "channel": 2,
      "note": 52,
      "start": 38.287,
      "duration": 0.0184,
      "velocity": 100,
      "chip": "ym2612"
    },
    {
      "channel": 0,
      "note": 84,
      "start": 38.3015,
      "duration": 0.0144,
      "velocity": 124,
      "chip": "ym2612"
    },
    {
      "channel": 4,
      "note": 76,
      "start": 38.3026,
      "duration": 0.0144,
      "velocity": 97,
      "chip": "ym2612"
    },
    {
      "channel": 3,
      "note": 76,
      "start": 38.304,
      "duration": 0.0142,
      "velocity": 97,
      "chip": "ym2612"
    },
    {
      "channel": 2,
      "note": 52,
      "start": 38.3055,
      "duration": 0.0139,
      "velocity": 100,
      "chip": "ym2612"
    },
    {
      "channel": 0,
      "note": 82,
      "start": 38.3158,
      "duration": 0.0161,
      "velocity": 124,
      "chip": "ym2612"
    },
    {
      "channel": 4,
      "note": 76,
      "start": 38.317,
      "duration": 0.0161,
      "velocity": 97,
      "chip": "ym2612"
    },
    {
      "channel": 3,
      "note": 76,
      "start": 38.3182,
      "duration": 0.016,
      "velocity": 97,
      "chip": "ym2612"
    },
    {
      "channel": 2,
      "note": 52,
      "start": 38.3194,
      "duration": 0.016,
      "velocity": 100,
      "chip": "ym2612"
    },
    {
      "channel": 0,
      "note": 80,
      "start": 38.3319,
      "duration": 0.0161,
      "velocity": 124,
      "chip": "ym2612"
    },
    {
      "channel": 4,
      "note": 76,
      "start": 38.3331,
      "duration": 0.0163,
      "velocity": 97,
      "chip": "ym2612"
    },
    {
      "channel": 3,
      "note": 76,
      "start": 38.3342,
      "duration": 0.0163,
      "velocity": 97,
      "chip": "ym2612"
    },
    {
      "channel": 2,
      "note": 52,
      "start": 38.3354,
      "duration": 0.0163,
      "velocity": 100,
      "chip": "ym2612"
    },
    {
      "channel": 0,
      "note": 77,
      "start": 38.348,
      "duration": 0.0174,
      "velocity": 124,
      "chip": "ym2612"
    },
    {
      "channel": 4,
      "note": 76,
      "start": 38.3494,
      "duration": 0.0172,
      "velocity": 97,
      "chip": "ym2612"
    },
    {
      "channel": 3,
      "note": 76,
      "start": 38.3506,
      "duration": 0.0172,
      "velocity": 97,
      "chip": "ym2612"
    },
    {
      "channel": 2,
      "note": 52,
      "start": 38.3517,
      "duration": 0.0172,
      "velocity": 100,
      "chip": "ym2612"
    },
    {
      "channel": 0,
      "note": 75,
      "start": 38.3654,
      "duration": 0.0167,
      "velocity": 124,
      "chip": "ym2612"
    },
    {
      "channel": 4,
      "note": 76,
      "start": 38.3666,
      "duration": 0.0166,
      "velocity": 97,
      "chip": "ym2612"
    },
    {
      "channel": 3,
      "note": 76,
      "start": 38.3678,
      "duration": 0.0166,
      "velocity": 97,
      "chip": "ym2612"
    },
    {
      "channel": 2,
      "note": 52,
      "start": 38.3689,
      "duration": 0.0166,
      "velocity": 100,
      "chip": "ym2612"
    },
    {
      "channel": 0,
      "note": 72,
      "start": 38.3821,
      "duration": 0.0163,
      "velocity": 124,
      "chip": "ym2612"
    },
    {
      "channel": 4,
      "note": 76,
      "start": 38.3832,
      "duration": 0.0163,
      "velocity": 97,
      "chip": "ym2612"
    },
    {
      "channel": 3,
      "note": 76,
      "start": 38.3844,
      "duration": 0.0163,
      "velocity": 97,
      "chip": "ym2612"
    },
    {
      "channel": 2,
      "note": 52,
      "start": 38.3855,
      "duration": 0.0163,
      "velocity": 100,
      "chip": "ym2612"
    },
    {
      "channel": 0,
      "note": 70,
      "start": 38.3983,
      "duration": 0.0144,
      "velocity": 124,
      "chip": "ym2612"
    },
    {
      "channel": 4,
      "note": 76,
      "start": 38.3995,
      "duration": 0.0144,
      "velocity": 97,
      "chip": "ym2612"
    },
    {
      "channel": 3,
      "note": 76,
      "start": 38.4006,
      "duration": 0.0144,
      "velocity": 97,
      "chip": "ym2612"
    },
    {
      "channel": 2,
      "note": 52,
      "start": 38.4018,
      "duration": 0.0144,
      "velocity": 100,
      "chip": "ym2612"
    },
    {
      "channel": 0,
      "note": 68,
      "start": 38.4127,
      "duration": 0.0185,
      "velocity": 124,
      "chip": "ym2612"
    },
    {
      "channel": 4,
      "note": 76,
      "start": 38.4139,
      "duration": 0.0185,
      "velocity": 97,
      "chip": "ym2612"
    },
    {
      "channel": 3,
      "note": 76,
      "start": 38.415,
      "duration": 0.0185,
      "velocity": 97,
      "chip": "ym2612"
    },
    {
      "channel": 2,
      "note": 52,
      "start": 38.4161,
      "duration": 0.0185,
      "velocity": 100,
      "chip": "ym2612"
    },
    {
      "channel": 0,
      "note": 65,
      "start": 38.4312,
      "duration": 0.0161,
      "velocity": 124,
      "chip": "ym2612"
    },
    {
      "channel": 4,
      "note": 76,
      "start": 38.4324,
      "duration": 0.0161,
      "velocity": 97,
      "chip": "ym2612"
    },
    {
      "channel": 3,
      "note": 76,
      "start": 38.4335,
      "duration": 0.0161,
      "velocity": 97,
      "chip": "ym2612"
    },
    {
      "channel": 2,
      "note": 52,
      "start": 38.4347,
      "duration": 0.0161,
      "velocity": 100,
      "chip": "ym2612"
    },
    {
      "channel": 0,
      "note": 63,
      "start": 38.4473,
      "duration": 0.0126,
      "velocity": 1,
      "chip": "ym2612"
    },
    {
      "channel": 4,
      "note": 76,
      "start": 38.4485,
      "duration": 0.015,
      "velocity": 97,
      "chip": "ym2612"
    },
    {
      "channel": 3,
      "note": 76,
      "start": 38.4496,
      "duration": 0.015,
      "velocity": 97,
      "chip": "ym2612"
    },
    {
      "channel": 2,
      "note": 52,
      "start": 38.4508,
      "duration": 0.0149,
      "velocity": 100,
      "chip": "ym2612"
    },
    {
      "channel": 4,
      "note": 76,
      "start": 38.4635,
      "duration": 0.0128,
      "velocity": 97,
      "chip": "ym2612"
    },
    {
      "channel": 3,
      "note": 76,
      "start": 38.4646,
      "duration": 0.0132,
      "velocity": 97,
      "chip": "ym2612"
    },
    {
      "channel": 2,
      "note": 52,
      "start": 38.4657,
      "duration": 0.0132,
      "velocity": 100,
      "chip": "ym2612"
    },
    {
      "channel": 4,
      "note": 76,
      "start": 38.4763,
      "duration": 0.0161,
      "velocity": 97,
      "chip": "ym2612"
    },
    {
      "channel": 3,
      "note": 76,
      "start": 38.4778,
      "duration": 0.016,
      "velocity": 97,
      "chip": "ym2612"
    },
    {
      "channel": 2,
      "note": 52,
      "start": 38.4789,
      "duration": 0.019,
      "velocity": 100,
      "chip": "ym2612"
    },
    {
      "channel": 4,
      "note": 76,
      "start": 38.4924,
      "duration": 0.0161,
      "velocity": 97,
      "chip": "ym2612"
    },
    {
      "channel": 3,
      "note": 78,
      "start": 38.4938,
      "duration": 0.0159,
      "velocity": 97,
      "chip": "ym2612"
    },
    {
      "channel": 2,
      "note": 52,
      "start": 38.498,
      "duration": 0.0156,
      "velocity": 100,
      "chip": "ym2612"
    },
    {
      "channel": 4,
      "note": 76,
      "start": 38.5085,
      "duration": 0.0161,
      "velocity": 97,
      "chip": "ym2612"
    },
    {
      "channel": 3,
      "note": 78,
      "start": 38.5097,
      "duration": 0.016,
      "velocity": 97,
      "chip": "ym2612"
    },
    {
      "channel": 2,
      "note": 52,
      "start": 38.5137,
      "duration": 0.0132,
      "velocity": 100,
      "chip": "ym2612"
    },
    {
      "channel": 4,
      "note": 76,
      "start": 38.5246,
      "duration": 0.0163,
      "velocity": 97,
      "chip": "ym2612"
    },
    {
      "channel": 3,
      "note": 78,
      "start": 38.5258,
      "duration": 0.0163,
      "velocity": 97,
      "chip": "ym2612"
    },
    {
      "channel": 2,
      "note": 52,
      "start": 38.5269,
      "duration": 0.0163,
      "velocity": 100,
      "chip": "ym2612"
    },
    {
      "channel": 4,
      "note": 78,
      "start": 38.541,
      "duration": 0.0159,
      "velocity": 97,
      "chip": "ym2612"
    },
    {
      "channel": 3,
      "note": 78,
      "start": 38.5421,
      "duration": 0.0159,
      "velocity": 97,
      "chip": "ym2612"
    },
    {
      "channel": 2,
      "note": 52,
      "start": 38.5433,
      "duration": 0.0159,
      "velocity": 100,
      "chip": "ym2612"
    },
    {
      "channel": 4,
      "note": 78,
      "start": 38.5569,
      "duration": 0.0161,
      "velocity": 97,
      "chip": "ym2612"
    },
    {
      "channel": 3,
      "note": 78,
      "start": 38.558,
      "duration": 0.016,
      "velocity": 97,
      "chip": "ym2612"
    },
    {
      "channel": 2,
      "note": 52,
      "start": 38.5592,
      "duration": 0.016,
      "velocity": 100,
      "chip": "ym2612"
    },
    {
      "channel": 4,
      "note": 78,
      "start": 38.573,
      "duration": 0.0161,
      "velocity": 97,
      "chip": "ym2612"
    },
    {
      "channel": 3,
      "note": 78,
      "start": 38.574,
      "duration": 0.0162,
      "velocity": 97,
      "chip": "ym2612"
    },
    {
      "channel": 2,
      "note": 52,
      "start": 38.5752,
      "duration": 0.0161,
      "velocity": 100,
      "chip": "ym2612"
    },
    {
      "channel": 4,
      "note": 78,
      "start": 38.589,
      "duration": 0.0161,
      "velocity": 97,
      "chip": "ym2612"
    },
    {
      "channel": 3,
      "note": 78,
      "start": 38.5902,
      "duration": 0.0161,
      "velocity": 97,
      "chip": "ym2612"
    },
    {
      "channel": 2,
      "note": 52,
      "start": 38.5913,
      "duration": 0.0161,
      "velocity": 100,
      "chip": "ym2612"
    },
    {
      "channel": 4,
      "note": 78,
      "start": 38.6051,
      "duration": 0.0161,
      "velocity": 97,
      "chip": "ym2612"
    },
    {
      "channel": 3,
      "note": 78,
      "start": 38.6063,
      "duration": 0.0161,
      "velocity": 97,
      "chip": "ym2612"
    },
    {
      "channel": 2,
      "note": 52,
      "start": 38.6074,
      "duration": 0.0161,
      "velocity": 100,
      "chip": "ym2612"
    },
    {
      "channel": 4,
      "note": 78,
      "start": 38.6212,
      "duration": 0.0161,
      "velocity": 97,
      "chip": "ym2612"
    },
    {
      "channel": 3,
      "note": 78,
      "start": 38.6224,
      "duration": 0.0161,
      "velocity": 97,
      "chip": "ym2612"
    },
    {
      "channel": 2,
      "note": 52,
      "start": 38.6235,
      "duration": 0.0161,
      "velocity": 100,
      "chip": "ym2612"
    },
    {
      "channel": 4,
      "note": 78,
      "start": 38.6373,
      "duration": 0.0161,
      "velocity": 97,
      "chip": "ym2612"
    },
    {
      "channel": 3,
      "note": 78,
      "start": 38.6385,
      "duration": 0.0161,
      "velocity": 97,
      "chip": "ym2612"
    },
    {
      "channel": 2,
      "note": 52,
      "start": 38.6396,
      "duration": 0.0161,
      "velocity": 100,
      "chip": "ym2612"
    },
    {
      "channel": 4,
      "note": 78,
      "start": 38.6534,
      "duration": 0.0161,
      "velocity": 97,
      "chip": "ym2612"
    },
    {
      "channel": 3,
      "note": 78,
      "start": 38.6546,
      "duration": 0.0161,
      "velocity": 97,
      "chip": "ym2612"
    },
    {
      "channel": 2,
      "note": 52,
      "start": 38.6557,
      "duration": 0.0161,
      "velocity": 100,
      "chip": "ym2612"
    },
    {
      "channel": 4,
      "note": 78,
      "start": 38.6695,
      "duration": 0.0196,
      "velocity": 97,
      "chip": "ym2612"
    },
    {
      "channel": 3,
      "note": 78,
      "start": 38.6707,
      "duration": 0.0197,
      "velocity": 97,
      "chip": "ym2612"
    },
    {
      "channel": 2,
      "note": 52,
      "start": 38.6718,
      "duration": 0.02,
      "velocity": 100,
      "chip": "ym2612"
    },
    {
      "channel": 0,
      "note": 36,
      "start": 38.6879,
      "duration": 0.0144,
      "velocity": 115,
      "chip": "ym2612"
    },
    {
      "channel": 4,
      "note": 78,
      "start": 38.6891,
      "duration": 0.0143,
      "velocity": 97,
      "chip": "ym2612"
    },
    {
      "channel": 3,
      "note": 78,
      "start": 38.6903,
      "duration": 0.0143,
      "velocity": 97,
      "chip": "ym2612"
    },
    {
      "channel": 2,
      "note": 52,
      "start": 38.6918,
      "duration": 0.014,
      "velocity": 100,
      "chip": "ym2612"
    },
    {
      "channel": 0,
      "note": 36,
      "start": 38.7023,
      "duration": 0.016,
      "velocity": 115,
      "chip": "ym2612"
    },
    {
      "channel": 4,
      "note": 78,
      "start": 38.7034,
      "duration": 0.016,
      "velocity": 97,
      "chip": "ym2612"
    },
    {
      "channel": 3,
      "note": 78,
      "start": 38.7046,
      "duration": 0.016,
      "velocity": 97,
      "chip": "ym2612"
    },
    {
      "channel": 2,
      "note": 52,
      "start": 38.7058,
      "duration": 0.016,
      "velocity": 100,
      "chip": "ym2612"
    },
    {
      "channel": 0,
      "note": 37,
      "start": 38.7183,
      "duration": 0.0161,
      "velocity": 115,
      "chip": "ym2612"
    },
    {
      "channel": 4,
      "note": 78,
      "start": 38.7195,
      "duration": 0.0162,
      "velocity": 97,
      "chip": "ym2612"
    },
    {
      "channel": 3,
      "note": 78,
      "start": 38.7206,
      "duration": 0.0162,
      "velocity": 97,
      "chip": "ym2612"
    },
    {
      "channel": 2,
      "note": 52,
      "start": 38.7217,
      "duration": 0.0162,
      "velocity": 100,
      "chip": "ym2612"
    },
    {
      "channel": 0,
      "note": 37,
      "start": 38.7344,
      "duration": 0.0161,
      "velocity": 115,
      "chip": "ym2612"
    },
    {
      "channel": 4,
      "note": 78,
      "start": 38.7357,
      "duration": 0.016,
      "velocity": 97,
      "chip": "ym2612"
    },
    {
      "channel": 3,
      "note": 78,
      "start": 38.7368,
      "duration": 0.016,
      "velocity": 97,
      "chip": "ym2612"
    },
    {
      "channel": 2,
      "note": 52,
      "start": 38.738,
      "duration": 0.016,
      "velocity": 100,
      "chip": "ym2612"
    },
    {
      "channel": 0,
      "note": 38,
      "start": 38.7505,
      "duration": 0.0161,
      "velocity": 115,
      "chip": "ym2612"
    },
    {
      "channel": 4,
      "note": 78,
      "start": 38.7517,
      "duration": 0.0161,
      "velocity": 97,
      "chip": "ym2612"
    },
    {
      "channel": 3,
      "note": 78,
      "start": 38.7529,
      "duration": 0.016,
      "velocity": 97,
      "chip": "ym2612"
    },
    {
      "channel": 2,
      "note": 52,
      "start": 38.754,
      "duration": 0.016,
      "velocity": 100,
      "chip": "ym2612"
    },
    {
      "channel": 0,
      "note": 38,
      "start": 38.7666,
      "duration": 0.0162,
      "velocity": 115,
      "chip": "ym2612"
    },
    {
      "channel": 4,
      "note": 78,
      "start": 38.7678,
      "duration": 0.0161,
      "velocity": 97,
      "chip": "ym2612"
    },
    {
      "channel": 3,
      "note": 78,
      "start": 38.7689,
      "duration": 0.0161,
      "velocity": 97,
      "chip": "ym2612"
    },
    {
      "channel": 2,
      "note": 52,
      "start": 38.77,
      "duration": 0.0161,
      "velocity": 100,
      "chip": "ym2612"
    },
    {
      "channel": 0,
      "note": 39,
      "start": 38.7828,
      "duration": 0.0161,
      "velocity": 115,
      "chip": "ym2612"
    },
    {
      "channel": 4,
      "note": 78,
      "start": 38.7839,
      "duration": 0.0161,
      "velocity": 97,
      "chip": "ym2612"
    },
    {
      "channel": 3,
      "note": 78,
      "start": 38.785,
      "duration": 0.0161,
      "velocity": 97,
      "chip": "ym2612"
    },
    {
      "channel": 2,
      "note": 52,
      "start": 38.7861,
      "duration": 0.0161,
      "velocity": 100,
      "chip": "ym2612"
    },
    {
      "channel": 0,
      "note": 39,
      "start": 38.7988,
      "duration": 0.0161,
      "velocity": 115,
      "chip": "ym2612"
    },
    {
      "channel": 4,
      "note": 78,
      "start": 38.8,
      "duration": 0.0161,
      "velocity": 97,
      "chip": "ym2612"
    },
    {
      "channel": 3,
      "note": 78,
      "start": 38.8011,
      "duration": 0.0161,
      "velocity": 97,
      "chip": "ym2612"
    },
    {
      "channel": 2,
      "note": 52,
      "start": 38.8022,
      "duration": 0.0161,
      "velocity": 100,
      "chip": "ym2612"
    },
    {
      "channel": 0,
      "note": 40,
      "start": 38.8149,
      "duration": 0.0171,
      "velocity": 115,
      "chip": "ym2612"
    },
    {
      "channel": 4,
      "note": 78,
      "start": 38.8161,
      "duration": 0.0171,
      "velocity": 97,
      "chip": "ym2612"
    },
    {
      "channel": 3,
      "note": 78,
      "start": 38.8172,
      "duration": 0.0171,
      "velocity": 97,
      "chip": "ym2612"
    },
    {
      "channel": 2,
      "note": 52,
      "start": 38.8183,
      "duration": 0.0171,
      "velocity": 100,
      "chip": "ym2612"
    },
    {
      "channel": 0,
      "note": 40,
      "start": 38.832,
      "duration": 0.0167,
      "velocity": 115,
      "chip": "ym2612"
    },
    {
      "channel": 4,
      "note": 78,
      "start": 38.8332,
      "duration": 0.0167,
      "velocity": 97,
      "chip": "ym2612"
    },
    {
      "channel": 3,
      "note": 78,
      "start": 38.8343,
      "duration": 0.0167,
      "velocity": 97,
      "chip": "ym2612"
    },
    {
      "channel": 2,
      "note": 52,
      "start": 38.8354,
      "duration": 0.0167,
      "velocity": 100,
      "chip": "ym2612"
    },
    {
      "channel": 0,
      "note": 40,
      "start": 38.8487,
      "duration": 0.0163,
      "velocity": 115,
      "chip": "ym2612"
    },
    {
      "channel": 4,
      "note": 78,
      "start": 38.8499,
      "duration": 0.0163,
      "velocity": 97,
      "chip": "ym2612"
    },
    {
      "channel": 3,
      "note": 78,
      "start": 38.851,
      "duration": 0.0163,
      "velocity": 97,
      "chip": "ym2612"
    },
    {
      "channel": 2,
      "note": 52,
      "start": 38.8521,
      "duration": 0.0163,
      "velocity": 100,
      "chip": "ym2612"
    },
    {
      "channel": 0,
      "note": 41,
      "start": 38.865,
      "duration": 0.0146,
      "velocity": 115,
      "chip": "ym2612"
    },
    {
      "channel": 4,
      "note": 78,
      "start": 38.8661,
      "duration": 0.0146,
      "velocity": 97,
      "chip": "ym2612"
    },
    {
      "channel": 3,
      "note": 78,
      "start": 38.8673,
      "duration": 0.0148,
      "velocity": 97,
      "chip": "ym2612"
    },
    {
      "channel": 2,
      "note": 52,
      "start": 38.8684,
      "duration": 0.015,
      "velocity": 100,
      "chip": "ym2612"
    },
    {
      "channel": 0,
      "note": 41,
      "start": 38.8796,
      "duration": 0.0186,
      "velocity": 115,
      "chip": "ym2612"
    },
    {
      "channel": 4,
      "note": 78,
      "start": 38.8808,
      "duration": 0.0186,
      "velocity": 97,
      "chip": "ym2612"
    },
    {
      "channel": 3,
      "note": 78,
      "start": 38.8821,
      "duration": 0.0184,
      "velocity": 97,
      "chip": "ym2612"
    },
    {
      "channel": 2,
      "note": 52,
      "start": 38.8835,
      "duration": 0.0183,
      "velocity": 100,
      "chip": "ym2612"
    },
    {
      "channel": 0,
      "note": 42,
      "start": 38.8982,
      "duration": 0.0161,
      "velocity": 115,
      "chip": "ym2612"
    },
    {
      "channel": 4,
      "note": 78,
      "start": 38.8994,
      "duration": 0.0161,
      "velocity": 97,
      "chip": "ym2612"
    },
    {
      "channel": 3,
      "note": 78,
      "start": 38.9005,
      "duration": 0.0161,
      "velocity": 97,
      "chip": "ym2612"
    },
    {
      "channel": 2,
      "note": 52,
      "start": 38.9017,
      "duration": 0.016,
      "velocity": 100,
      "chip": "ym2612"
    },
    {
      "channel": 0,
      "note": 42,
      "start": 38.9143,
      "duration": 0.0157,
      "velocity": 115,
      "chip": "ym2612"
    },
    {
      "channel": 4,
      "note": 78,
      "start": 38.9155,
      "duration": 0.0158,
      "velocity": 97,
      "chip": "ym2612"
    },
    {
      "channel": 3,
      "note": 78,
      "start": 38.9166,
      "duration": 0.0159,
      "velocity": 97,
      "chip": "ym2612"
    },
    {
      "channel": 2,
      "note": 52,
      "start": 38.9177,
      "duration": 0.0159,
      "velocity": 100,
      "chip": "ym2612"
    },
    {
      "channel": 0,
      "note": 43,
      "start": 38.93,
      "duration": 0.0137,
      "velocity": 115,
      "chip": "ym2612"
    },
    {
      "channel": 4,
      "note": 78,
      "start": 38.9313,
      "duration": 0.014,
      "velocity": 97,
      "chip": "ym2612"
    },
    {
      "channel": 3,
      "note": 78,
      "start": 38.9324,
      "duration": 0.0139,
      "velocity": 97,
      "chip": "ym2612"
    },
    {
      "channel": 2,
      "note": 52,
      "start": 38.9336,
      "duration": 0.0139,
      "velocity": 100,
      "chip": "ym2612"
    },
    {
      "channel": 0,
      "note": 43,
      "start": 38.9438,
      "duration": 0.0161,
      "velocity": 115,
      "chip": "ym2612"
    },
    {
      "channel": 4,
      "note": 78,
      "start": 38.9453,
      "duration": 0.0185,
      "velocity": 97,
      "chip": "ym2612"
    },
    {
      "channel": 3,
      "note": 78,
      "start": 38.9464,
      "duration": 0.0185,
      "velocity": 97,
      "chip": "ym2612"
    },
    {
      "channel": 2,
      "note": 52,
      "start": 38.9475,
      "duration": 0.0185,
      "velocity": 100,
      "chip": "ym2612"
    },
    {
      "channel": 0,
      "note": 44,
      "start": 38.9599,
      "duration": 0.0161,
      "velocity": 115,
      "chip": "ym2612"
    },
    {
      "channel": 4,
      "note": 78,
      "start": 38.9637,
      "duration": 0.0134,
      "velocity": 97,
      "chip": "ym2612"
    },
    {
      "channel": 3,
      "note": 78,
      "start": 38.9649,
      "duration": 0.0161,
      "velocity": 97,
      "chip": "ym2612"
    },
    {
      "channel": 2,
      "note": 52,
      "start": 38.966,
      "duration": 0.0161,
      "velocity": 100,
      "chip": "ym2612"
    },
    {
      "channel": 0,
      "note": 44,
      "start": 38.976,
      "duration": 0.0161,
      "velocity": 115,
      "chip": "ym2612"
    },
    {
      "channel": 4,
      "note": 78,
      "start": 38.9771,
      "duration": 0.0161,
      "velocity": 97,
      "chip": "ym2612"
    },
    {
      "channel": 3,
      "note": 78,
      "start": 38.981,
      "duration": 0.0158,
      "velocity": 97,
      "chip": "ym2612"
    },
    {
      "channel": 2,
      "note": 52,
      "start": 38.9821,
      "duration": 0.0157,
      "velocity": 100,
      "chip": "ym2612"
    },
    {
      "channel": 0,
      "note": 44,
      "start": 38.992,
      "duration": 0.0161,
      "velocity": 115,
      "chip": "ym2612"
    },
    {
      "channel": 4,
      "note": 78,
      "start": 38.9932,
      "duration": 0.0161,
      "velocity": 97,
      "chip": "ym2612"
    },
    {
      "channel": 3,
      "note": 78,
      "start": 38.9968,
      "duration": 0.0137,
      "velocity": 97,
      "chip": "ym2612"
    },
    {
      "channel": 2,
      "note": 52,
      "start": 38.9978,
      "duration": 0.0141,
      "velocity": 100,
      "chip": "ym2612"
    },
    {
      "channel": 0,
      "note": 45,
      "start": 39.0081,
      "duration": 0.0161,
      "velocity": 115,
      "chip": "ym2612"
    },
    {
      "channel": 4,
      "note": 78,
      "start": 39.0093,
      "duration": 0.0161,
      "velocity": 97,
      "chip": "ym2612"
    },
    {
      "channel": 3,
      "note": 78,
      "start": 39.0104,
      "duration": 0.0161,
      "velocity": 97,
      "chip": "ym2612"
    },
    {
      "channel": 2,
      "note": 52,
      "start": 39.0119,
      "duration": 0.0185,
      "velocity": 100,
      "chip": "ym2612"
    },
    {
      "channel": 0,
      "note": 45,
      "start": 39.0242,
      "duration": 0.0161,
      "velocity": 115,
      "chip": "ym2612"
    },
    {
      "channel": 4,
      "note": 78,
      "start": 39.0254,
      "duration": 0.0161,
      "velocity": 97,
      "chip": "ym2612"
    },
    {
      "channel": 3,
      "note": 78,
      "start": 39.0265,
      "duration": 0.0161,
      "velocity": 97,
      "chip": "ym2612"
    },
    {
      "channel": 2,
      "note": 52,
      "start": 39.0304,
      "duration": 0.0134,
      "velocity": 100,
      "chip": "ym2612"
    },
    {
      "channel": 0,
      "note": 46,
      "start": 39.0403,
      "duration": 0.0161,
      "velocity": 115,
      "chip": "ym2612"
    },
    {
      "channel": 4,
      "note": 78,
      "start": 39.0415,
      "duration": 0.0161,
      "velocity": 97,
      "chip": "ym2612"
    },
    {
      "channel": 3,
      "note": 78,
      "start": 39.0426,
      "duration": 0.0161,
      "velocity": 97,
      "chip": "ym2612"
    },
    {
      "channel": 2,
      "note": 52,
      "start": 39.0438,
      "duration": 0.0161,
      "velocity": 100,
      "chip": "ym2612"
    },
    {
      "channel": 0,
      "note": 46,
      "start": 39.0564,
      "duration": 0.0179,
      "velocity": 124,
      "chip": "ym2612"
    },
    {
      "channel": 4,
      "note": 78,
      "start": 39.0576,
      "duration": 0.0179,
      "velocity": 97,
      "chip": "ym2612"
    },
    {
      "channel": 3,
      "note": 78,
      "start": 39.0587,
      "duration": 0.0181,
      "velocity": 97,
      "chip": "ym2612"
    },
    {
      "channel": 2,
      "note": 52,
      "start": 39.0599,
      "duration": 0.0188,
      "velocity": 100,
      "chip": "ym2612"
    },
    {
      "channel": 0,
      "note": 84,
      "start": 39.0744,
      "duration": 0.0144,
      "velocity": 124,
      "chip": "ym2612"
    },
    {
      "channel": 4,
      "note": 78,
      "start": 39.0755,
      "duration": 0.0144,
      "velocity": 97,
      "chip": "ym2612"
    },
    {
      "channel": 3,
      "note": 78,
      "start": 39.0769,
      "duration": 0.0141,
      "velocity": 97,
      "chip": "ym2612"
    },
    {
      "channel": 2,
      "note": 52,
      "start": 39.0787,
      "duration": 0.0136,
      "velocity": 100,
      "chip": "ym2612"
    },
    {
      "channel": 0,
      "note": 82,
      "start": 39.0887,
      "duration": 0.016,
      "velocity": 124,
      "chip": "ym2612"
    },
    {
      "channel": 4,
      "note": 78,
      "start": 39.0899,
      "duration": 0.016,
      "velocity": 97,
      "chip": "ym2612"
    },
    {
      "channel": 3,
      "note": 78,
      "start": 39.091,
      "duration": 0.016,
      "velocity": 97,
      "chip": "ym2612"
    },
    {
      "channel": 2,
      "note": 52,
      "start": 39.0922,
      "duration": 0.016,
      "velocity": 100,
      "chip": "ym2612"
    },
    {
      "channel": 0,
      "note": 80,
      "start": 39.1048,
      "duration": 0.0161,
      "velocity": 124,
      "chip": "ym2612"
    },
    {
      "channel": 4,
      "note": 78,
      "start": 39.1059,
      "duration": 0.0163,
      "velocity": 97,
      "chip": "ym2612"
    },
    {
      "channel": 3,
      "note": 78,
      "start": 39.1071,
      "duration": 0.0163,
      "velocity": 97,
      "chip": "ym2612"
    },
    {
      "channel": 2,
      "note": 52,
      "start": 39.1082,
      "duration": 0.0163,
      "velocity": 100,
      "chip": "ym2612"
    },
    {
      "channel": 0,
      "note": 77,
      "start": 39.1209,
      "duration": 0.0161,
      "velocity": 124,
      "chip": "ym2612"
    },
    {
      "channel": 4,
      "note": 78,
      "start": 39.1223,
      "duration": 0.0159,
      "velocity": 97,
      "chip": "ym2612"
    },
    {
      "channel": 3,
      "note": 78,
      "start": 39.1234,
      "duration": 0.0159,
      "velocity": 97,
      "chip": "ym2612"
    },
    {
      "channel": 2,
      "note": 52,
      "start": 39.1246,
      "duration": 0.0159,
      "velocity": 100,
      "chip": "ym2612"
    },
    {
      "channel": 0,
      "note": 75,
      "start": 39.137,
      "duration": 0.0161,
      "velocity": 124,
      "chip": "ym2612"
    },
    {
      "channel": 4,
      "note": 78,
      "start": 39.1382,
      "duration": 0.016,
      "velocity": 97,
      "chip": "ym2612"
    },
    {
      "channel": 3,
      "note": 78,
      "start": 39.1393,
      "duration": 0.016,
      "velocity": 97,
      "chip": "ym2612"
    },
    {
      "channel": 2,
      "note": 52,
      "start": 39.1405,
      "duration": 0.016,
      "velocity": 100,
      "chip": "ym2612"
    },
    {
      "channel": 0,
      "note": 72,
      "start": 39.1531,
      "duration": 0.0161,
      "velocity": 124,
      "chip": "ym2612"
    },
    {
      "channel": 4,
      "note": 78,
      "start": 39.1542,
      "duration": 0.0162,
      "velocity": 97,
      "chip": "ym2612"
    },
    {
      "channel": 3,
      "note": 78,
      "start": 39.1554,
      "duration": 0.0161,
      "velocity": 97,
      "chip": "ym2612"
    },
    {
      "channel": 2,
      "note": 52,
      "start": 39.1565,
      "duration": 0.0161,
      "velocity": 100,
      "chip": "ym2612"
    },
    {
      "channel": 0,
      "note": 70,
      "start": 39.1691,
      "duration": 0.0161,
      "velocity": 124,
      "chip": "ym2612"
    },
    {
      "channel": 4,
      "note": 78,
      "start": 39.1704,
      "duration": 0.0161,
      "velocity": 97,
      "chip": "ym2612"
    },
    {
      "channel": 3,
      "note": 78,
      "start": 39.1714,
      "duration": 0.0161,
      "velocity": 97,
      "chip": "ym2612"
    },
    {
      "channel": 2,
      "note": 52,
      "start": 39.1726,
      "duration": 0.0161,
      "velocity": 100,
      "chip": "ym2612"
    },
    {
      "channel": 0,
      "note": 68,
      "start": 39.1852,
      "duration": 0.0161,
      "velocity": 124,
      "chip": "ym2612"
    },
    {
      "channel": 4,
      "note": 78,
      "start": 39.1864,
      "duration": 0.0161,
      "velocity": 97,
      "chip": "ym2612"
    },
    {
      "channel": 3,
      "note": 78,
      "start": 39.1875,
      "duration": 0.0161,
      "velocity": 97,
      "chip": "ym2612"
    },
    {
      "channel": 2,
      "note": 52,
      "start": 39.1887,
      "duration": 0.0161,
      "velocity": 100,
      "chip": "ym2612"
    },
    {
      "channel": 0,
      "note": 65,
      "start": 39.2013,
      "duration": 0.0161,
      "velocity": 124,
      "chip": "ym2612"
    },
    {
      "channel": 4,
      "note": 78,
      "start": 39.2025,
      "duration": 0.0161,
      "velocity": 97,
      "chip": "ym2612"
    },
    {
      "channel": 3,
      "note": 78,
      "start": 39.2036,
      "duration": 0.0161,
      "velocity": 97,
      "chip": "ym2612"
    },
    {
      "channel": 2,
      "note": 52,
      "start": 39.2048,
      "duration": 0.0161,
      "velocity": 100,
      "chip": "ym2612"
    },
    {
      "channel": 0,
      "note": 63,
      "start": 39.2175,
      "duration": 0.0153,
      "velocity": 1,
      "chip": "ym2612"
    },
    {
      "channel": 4,
      "note": 78,
      "start": 39.2186,
      "duration": 0.0153,
      "velocity": 97,
      "chip": "ym2612"
    },
    {
      "channel": 3,
      "note": 78,
      "start": 39.2198,
      "duration": 0.0153,
      "velocity": 97,
      "chip": "ym2612"
    },
    {
      "channel": 2,
      "note": 52,
      "start": 39.2209,
      "duration": 0.0153,
      "velocity": 100,
      "chip": "ym2612"
    },
    {
      "channel": 4,
      "note": 78,
      "start": 39.2339,
      "duration": 0.0153,
      "velocity": 97,
      "chip": "ym2612"
    },
    {
      "channel": 3,
      "note": 78,
      "start": 39.2351,
      "duration": 0.0153,
      "velocity": 97,
      "chip": "ym2612"
    },
    {
      "channel": 2,
      "note": 52,
      "start": 39.2362,
      "duration": 0.0153,
      "velocity": 100,
      "chip": "ym2612"
    },
    {
      "channel": 4,
      "note": 78,
      "start": 39.2492,
      "duration": 0.0195,
      "velocity": 97,
      "chip": "ym2612"
    },
    {
      "channel": 3,
      "note": 78,
      "start": 39.2503,
      "duration": 0.0197,
      "velocity": 97,
      "chip": "ym2612"
    },
    {
      "channel": 2,
      "note": 52,
      "start": 39.2515,
      "duration": 0.0199,
      "velocity": 100,
      "chip": "ym2612"
    },
    {
      "channel": 0,
      "note": 36,
      "start": 39.2676,
      "duration": 0.0144,
      "velocity": 115,
      "chip": "ym2612"
    },
    {
      "channel": 4,
      "note": 78,
      "start": 39.2687,
      "duration": 0.0144,
      "velocity": 97,
      "chip": "ym2612"
    },
    {
      "channel": 3,
      "note": 78,
      "start": 39.27,
      "duration": 0.0143,
      "velocity": 97,
      "chip": "ym2612"
    },
    {
      "channel": 2,
      "note": 52,
      "start": 39.2714,
      "duration": 0.014,
      "velocity": 100,
      "chip": "ym2612"
    },
    {
      "channel": 0,
      "note": 36,
      "start": 39.2819,
      "duration": 0.0168,
      "velocity": 115,
      "chip": "ym2612"
    },
    {
      "channel": 4,
      "note": 78,
      "start": 39.2831,
      "duration": 0.0168,
      "velocity": 97,
      "chip": "ym2612"
    },
    {
      "channel": 3,
      "note": 78,
      "start": 39.2843,
      "duration": 0.0167,
      "velocity": 97,
      "chip": "ym2612"
    },
    {
      "channel": 2,
      "note": 52,
      "start": 39.2854,
      "duration": 0.0167,
      "velocity": 100,
      "chip": "ym2612"
    },
    {
      "channel": 0,
      "note": 37,
      "start": 39.2987,
      "duration": 0.0167,
      "velocity": 115,
      "chip": "ym2612"
    },
    {
      "channel": 4,
      "note": 78,
      "start": 39.2999,
      "duration": 0.0168,
      "velocity": 97,
      "chip": "ym2612"
    },
    {
      "channel": 3,
      "note": 78,
      "start": 39.301,
      "duration": 0.0167,
      "velocity": 97,
      "chip": "ym2612"
    },
    {
      "channel": 2,
      "note": 52,
      "start": 39.3021,
      "duration": 0.0168,
      "velocity": 100,
      "chip": "ym2612"
    },
    {
      "channel": 0,
      "note": 37,
      "start": 39.3154,
      "duration": 0.0163,
      "velocity": 115,
      "chip": "ym2612"
    },
    {
      "channel": 4,
      "note": 78,
      "start": 39.3167,
      "duration": 0.0162,
      "velocity": 97,
      "chip": "ym2612"
    },
    {
      "channel": 3,
      "note": 78,
      "start": 39.3178,
      "duration": 0.0163,
      "velocity": 97,
      "chip": "ym2612"
    },
    {
      "channel": 2,
      "note": 52,
      "start": 39.3189,
      "duration": 0.0162,
      "velocity": 100,
      "chip": "ym2612"
    },
    {
      "channel": 0,
      "note": 38,
      "start": 39.3317,
      "duration": 0.0147,
      "velocity": 115,
      "chip": "ym2612"
    },
    {
      "channel": 4,
      "note": 78,
      "start": 39.3329,
      "duration": 0.0146,
      "velocity": 97,
      "chip": "ym2612"
    },
    {
      "channel": 3,
      "note": 78,
      "start": 39.334,
      "duration": 0.0146,
      "velocity": 97,
      "chip": "ym2612"
    },
    {
      "channel": 2,
      "note": 52,
      "start": 39.3351,
      "duration": 0.0147,
      "velocity": 100,
      "chip": "ym2612"
    },
    {
      "channel": 0,
      "note": 38,
      "start": 39.3464,
      "duration": 0.0188,
      "velocity": 115,
      "chip": "ym2612"
    },
    {
      "channel": 4,
      "note": 78,
      "start": 39.3475,
      "duration": 0.0188,
      "velocity": 97,
      "chip": "ym2612"
    },
    {
      "channel": 3,
      "note": 78,
      "start": 39.3487,
      "duration": 0.0187,
      "velocity": 97,
      "chip": "ym2612"
    },
    {
      "channel": 2,
      "note": 52,
      "start": 39.3498,
      "duration": 0.0187,
      "velocity": 100,
      "chip": "ym2612"
    },
    {
      "channel": 0,
      "note": 39,
      "start": 39.3651,
      "duration": 0.0161,
      "velocity": 115,
      "chip": "ym2612"
    },
    {
      "channel": 4,
      "note": 78,
      "start": 39.3663,
      "duration": 0.0161,
      "velocity": 97,
      "chip": "ym2612"
    },
    {
      "channel": 3,
      "note": 78,
      "start": 39.3674,
      "duration": 0.0161,
      "velocity": 97,
      "chip": "ym2612"
    },
    {
      "channel": 2,
      "note": 52,
      "start": 39.3685,
      "duration": 0.0161,
      "velocity": 100,
      "chip": "ym2612"
    },
    {
      "channel": 0,
      "note": 39,
      "start": 39.3812,
      "duration": 0.0157,
      "velocity": 115,
      "chip": "ym2612"
    },
    {
      "channel": 4,
      "note": 78,
      "start": 39.3824,
      "duration": 0.0157,
      "velocity": 97,
      "chip": "ym2612"
    },
    {
      "channel": 3,
      "note": 78,
      "start": 39.3835,
      "duration": 0.0157,
      "velocity": 97,
      "chip": "ym2612"
    },
    {
      "channel": 2,
      "note": 52,
      "start": 39.3846,
      "duration": 0.0158,
      "velocity": 100,
      "chip": "ym2612"
    },
    {
      "channel": 0,
      "note": 40,
      "start": 39.3969,
      "duration": 0.0139,
      "velocity": 115,
      "chip": "ym2612"
    },
    {
      "channel": 4,
      "note": 78,
      "start": 39.3981,
      "duration": 0.0141,
      "velocity": 97,
      "chip": "ym2612"
    },
    {
      "channel": 3,
      "note": 78,
      "start": 39.3992,
      "duration": 0.0141,
      "velocity": 97,
      "chip": "ym2612"
    },
    {
      "channel": 2,
      "note": 52,
      "start": 39.4004,
      "duration": 0.0141,
      "velocity": 100,
      "chip": "ym2612"
    },
    {
      "channel": 0,
      "note": 40,
      "start": 39.4108,
      "duration": 0.016,
      "velocity": 115,
      "chip": "ym2612"
    },
    {
      "channel": 4,
      "note": 78,
      "start": 39.4122,
      "duration": 0.0185,
      "velocity": 97,
      "chip": "ym2612"
    },
    {
      "channel": 3,
      "note": 78,
      "start": 39.4133,
      "duration": 0.0185,
      "velocity": 97,
      "chip": "ym2612"
    },
    {
      "channel": 2,
      "note": 52,
      "start": 39.4144,
      "duration": 0.0185,
      "velocity": 100,
      "chip": "ym2612"
    },
    {
      "channel": 0,
      "note": 40,
      "start": 39.4268,
      "duration": 0.0161,
      "velocity": 115,
      "chip": "ym2612"
    },
    {
      "channel": 4,
      "note": 78,
      "start": 39.4307,
      "duration": 0.0161,
      "velocity": 97,
      "chip": "ym2612"
    },
    {
      "channel": 3,
      "note": 78,
      "start": 39.4318,
      "duration": 0.0161,
      "velocity": 97,
      "chip": "ym2612"
    },
    {
      "channel": 2,
      "note": 52,
      "start": 39.4329,
      "duration": 0.0161,
      "velocity": 100,
      "chip": "ym2612"
    },
    {
      "channel": 0,
      "note": 41,
      "start": 39.4429,
      "duration": 0.0202,
      "velocity": 115,
      "chip": "ym2612"
    },
    {
      "channel": 4,
      "note": 78,
      "start": 39.4468,
      "duration": 0.0176,
      "velocity": 97,
      "chip": "ym2612"
    },
    {
      "channel": 3,
      "note": 78,
      "start": 39.4479,
      "duration": 0.0178,
      "velocity": 97,
      "chip": "ym2612"
    },
    {
      "channel": 2,
      "note": 52,
      "start": 39.449,
      "duration": 0.0181,
      "velocity": 100,
      "chip": "ym2612"
    },
    {
      "channel": 0,
      "note": 36,
      "start": 39.4631,
      "duration": 0.012,
      "velocity": 115,
      "chip": "ym2612"
    },
    {
      "channel": 4,
      "note": 78,
      "start": 39.4643,
      "duration": 0.012,
      "velocity": 97,
      "chip": "ym2612"
    },
    {
      "channel": 3,
      "note": 78,
      "start": 39.4657,
      "duration": 0.0121,
      "velocity": 97,
      "chip": "ym2612"
    },
    {
      "channel": 2,
      "note": 52,
      "start": 39.4672,
      "duration": 0.0118,
      "velocity": 100,
      "chip": "ym2612"
    },
    {
      "channel": 0,
      "note": 36,
      "start": 39.4751,
      "duration": 0.016,
      "velocity": 115,
      "chip": "ym2612"
    },
    {
      "channel": 4,
      "note": 78,
      "start": 39.4763,
      "duration": 0.016,
      "velocity": 97,
      "chip": "ym2612"
    },
    {
      "channel": 3,
      "note": 78,
      "start": 39.4778,
      "duration": 0.0156,
      "velocity": 97,
      "chip": "ym2612"
    },
    {
      "channel": 2,
      "note": 52,
      "start": 39.479,
      "duration": 0.0183,
      "velocity": 100,
      "chip": "ym2612"
    },
    {
      "channel": 0,
      "note": 37,
      "start": 39.4912,
      "duration": 0.0161,
      "velocity": 115,
      "chip": "ym2612"
    },
    {
      "channel": 4,
      "note": 78,
      "start": 39.4923,
      "duration": 0.0163,
      "velocity": 97,
      "chip": "ym2612"
    },
    {
      "channel": 3,
      "note": 78,
      "start": 39.4934,
      "duration": 0.0164,
      "velocity": 97,
      "chip": "ym2612"
    },
    {
      "channel": 2,
      "note": 52,
      "start": 39.4973,
      "duration": 0.0164,
      "velocity": 100,
      "chip": "ym2612"
    },
    {
      "channel": 0,
      "note": 37,
      "start": 39.5073,
      "duration": 0.0161,
      "velocity": 115,
      "chip": "ym2612"
    },
    {
      "channel": 4,
      "note": 78,
      "start": 39.5087,
      "duration": 0.0159,
      "velocity": 97,
      "chip": "ym2612"
    },
    {
      "channel": 3,
      "note": 78,
      "start": 39.5099,
      "duration": 0.0159,
      "velocity": 97,
      "chip": "ym2612"
    },
    {
      "channel": 2,
      "note": 52,
      "start": 39.5137,
      "duration": 0.0131,
      "velocity": 100,
      "chip": "ym2612"
    },
    {
      "channel": 0,
      "note": 38,
      "start": 39.5234,
      "duration": 0.0161,
      "velocity": 115,
      "chip": "ym2612"
    },
    {
      "channel": 4,
      "note": 78,
      "start": 39.5246,
      "duration": 0.016,
      "velocity": 97,
      "chip": "ym2612"
    },
    {
      "channel": 3,
      "note": 78,
      "start": 39.5258,
      "duration": 0.016,
      "velocity": 97,
      "chip": "ym2612"
    },
    {
      "channel": 2,
      "note": 52,
      "start": 39.5268,
      "duration": 0.016,
      "velocity": 100,
      "chip": "ym2612"
    },
    {
      "channel": 0,
      "note": 38,
      "start": 39.5395,
      "duration": 0.0161,
      "velocity": 115,
      "chip": "ym2612"
    },
    {
      "channel": 4,
      "note": 78,
      "start": 39.5407,
      "duration": 0.0161,
      "velocity": 97,
      "chip": "ym2612"
    },
    {
      "channel": 3,
      "note": 78,
      "start": 39.5418,
      "duration": 0.0161,
      "velocity": 97,
      "chip": "ym2612"
    },
    {
      "channel": 2,
      "note": 52,
      "start": 39.5429,
      "duration": 0.0161,
      "velocity": 100,
      "chip": "ym2612"
    },
    {
      "channel": 0,
      "note": 39,
      "start": 39.5556,
      "duration": 0.0161,
      "velocity": 115,
      "chip": "ym2612"
    },
    {
      "channel": 4,
      "note": 78,
      "start": 39.5567,
      "duration": 0.0161,
      "velocity": 97,
      "chip": "ym2612"
    },
    {
      "channel": 3,
      "note": 78,
      "start": 39.5579,
      "duration": 0.0161,
      "velocity": 97,
      "chip": "ym2612"
    },
    {
      "channel": 2,
      "note": 52,
      "start": 39.559,
      "duration": 0.0161,
      "velocity": 100,
      "chip": "ym2612"
    },
    {
      "channel": 0,
      "note": 39,
      "start": 39.5717,
      "duration": 0.0161,
      "velocity": 115,
      "chip": "ym2612"
    },
    {
      "channel": 4,
      "note": 78,
      "start": 39.5728,
      "duration": 0.0161,
      "velocity": 97,
      "chip": "ym2612"
    },
    {
      "channel": 3,
      "note": 78,
      "start": 39.574,
      "duration": 0.0161,
      "velocity": 97,
      "chip": "ym2612"
    },
    {
      "channel": 2,
      "note": 52,
      "start": 39.5751,
      "duration": 0.0161,
      "velocity": 100,
      "chip": "ym2612"
    },
    {
      "channel": 0,
      "note": 40,
      "start": 39.5878,
      "duration": 0.0161,
      "velocity": 115,
      "chip": "ym2612"
    },
    {
      "channel": 4,
      "note": 78,
      "start": 39.5889,
      "duration": 0.0161,
      "velocity": 97,
      "chip": "ym2612"
    },
    {
      "channel": 3,
      "note": 78,
      "start": 39.5901,
      "duration": 0.0161,
      "velocity": 97,
      "chip": "ym2612"
    },
    {
      "channel": 2,
      "note": 52,
      "start": 39.5912,
      "duration": 0.0161,
      "velocity": 100,
      "chip": "ym2612"
    },
    {
      "channel": 0,
      "note": 40,
      "start": 39.6039,
      "duration": 0.0161,
      "velocity": 115,
      "chip": "ym2612"
    },
    {
      "channel": 4,
      "note": 78,
      "start": 39.605,
      "duration": 0.0161,
      "velocity": 97,
      "chip": "ym2612"
    },
    {
      "channel": 3,
      "note": 78,
      "start": 39.6062,
      "duration": 0.0161,
      "velocity": 97,
      "chip": "ym2612"
    },
    {
      "channel": 2,
      "note": 52,
      "start": 39.6073,
      "duration": 0.0161,
      "velocity": 100,
      "chip": "ym2612"
    },
    {
      "channel": 0,
      "note": 40,
      "start": 39.62,
      "duration": 0.0161,
      "velocity": 115,
      "chip": "ym2612"
    },
    {
      "channel": 4,
      "note": 78,
      "start": 39.6211,
      "duration": 0.0162,
      "velocity": 97,
      "chip": "ym2612"
    },
    {
      "channel": 3,
      "note": 78,
      "start": 39.6223,
      "duration": 0.0161,
      "velocity": 97,
      "chip": "ym2612"
    },
    {
      "channel": 2,
      "note": 52,
      "start": 39.6234,
      "duration": 0.0161,
      "velocity": 100,
      "chip": "ym2612"
    },
    {
      "channel": 0,
      "note": 41,
      "start": 39.6361,
      "duration": 0.0179,
      "velocity": 115,
      "chip": "ym2612"
    },
    {
      "channel": 4,
      "note": 78,
      "start": 39.6373,
      "duration": 0.0179,
      "velocity": 97,
      "chip": "ym2612"
    },
    {
      "channel": 3,
      "note": 78,
      "start": 39.6384,
      "duration": 0.018,
      "velocity": 97,
      "chip": "ym2612"
    },
    {
      "channel": 2,
      "note": 52,
      "start": 39.6395,
      "duration": 0.0183,
      "velocity": 100,
      "chip": "ym2612"
    },
    {
      "channel": 0,
      "note": 36,
      "start": 39.6539,
      "duration": 0.0144,
      "velocity": 115,
      "chip": "ym2612"
    },
    {
      "channel": 4,
      "note": 78,
      "start": 39.6551,
      "duration": 0.0144,
      "velocity": 97,
      "chip": "ym2612"
    },
    {
      "channel": 3,
      "note": 78,
      "start": 39.6564,
      "duration": 0.0143,
      "velocity": 97,
      "chip": "ym2612"
    },
    {
      "channel": 2,
      "note": 52,
      "start": 39.6578,
      "duration": 0.0141,
      "velocity": 100,
      "chip": "ym2612"
    },
    {
      "channel": 0,
      "note": 36,
      "start": 39.6683,
      "duration": 0.0161,
      "velocity": 115,
      "chip": "ym2612"
    },
    {
      "channel": 4,
      "note": 78,
      "start": 39.6695,
      "duration": 0.016,
      "velocity": 97,
      "chip": "ym2612"
    },
    {
      "channel": 3,
      "note": 78,
      "start": 39.6707,
      "duration": 0.016,
      "velocity": 97,
      "chip": "ym2612"
    },
    {
      "channel": 2,
      "note": 52,
      "start": 39.6719,
      "duration": 0.0159,
      "velocity": 100,
      "chip": "ym2612"
    },
    {
      "channel": 0,
      "note": 37,
      "start": 39.6844,
      "duration": 0.0161,
      "velocity": 115,
      "chip": "ym2612"
    },
    {
      "channel": 4,
      "note": 78,
      "start": 39.6856,
      "duration": 0.0162,
      "velocity": 97,
      "chip": "ym2612"
    },
    {
      "channel": 3,
      "note": 78,
      "start": 39.6867,
      "duration": 0.0161,
      "velocity": 97,
      "chip": "ym2612"
    },
    {
      "channel": 2,
      "note": 52,
      "start": 39.6878,
      "duration": 0.0162,
      "velocity": 100,
      "chip": "ym2612"
    },
    {
      "channel": 0,
      "note": 37,
      "start": 39.7005,
      "duration": 0.0161,
      "velocity": 115,
      "chip": "ym2612"
    },
    {
      "channel": 4,
      "note": 78,
      "start": 39.7018,
      "duration": 0.016,
      "velocity": 97,
      "chip": "ym2612"
    },
    {
      "channel": 3,
      "note": 78,
      "start": 39.7029,
      "duration": 0.0161,
      "velocity": 97,
      "chip": "ym2612"
    },
    {
      "channel": 2,
      "note": 52,
      "start": 39.704,
      "duration": 0.016,
      "velocity": 100,
      "chip": "ym2612"
    },
    {
      "channel": 0,
      "note": 38,
      "start": 39.7166,
      "duration": 0.0161,
      "velocity": 115,
      "chip": "ym2612"
    },
    {
      "channel": 4,
      "note": 78,
      "start": 39.7178,
      "duration": 0.016,
      "velocity": 97,
      "chip": "ym2612"
    },
    {
      "channel": 3,
      "note": 78,
      "start": 39.719,
      "duration": 0.016,
      "velocity": 97,
      "chip": "ym2612"
    },
    {
      "channel": 2,
      "note": 52,
      "start": 39.72,
      "duration": 0.0161,
      "velocity": 100,
      "chip": "ym2612"
    },
    {
      "channel": 0,
      "note": 38,
      "start": 39.7327,
      "duration": 0.0161,
      "velocity": 115,
      "chip": "ym2612"
    },
    {
      "channel": 4,
      "note": 78,
      "start": 39.7338,
      "duration": 0.0161,
      "velocity": 97,
      "chip": "ym2612"
    },
    {
      "channel": 3,
      "note": 78,
      "start": 39.735,
      "duration": 0.0161,
      "velocity": 97,
      "chip": "ym2612"
    },
    {
      "channel": 2,
      "note": 52,
      "start": 39.7361,
      "duration": 0.0161,
      "velocity": 100,
      "chip": "ym2612"
    },
    {
      "channel": 0,
      "note": 39,
      "start": 39.7488,
      "duration": 0.0166,
      "velocity": 115,
      "chip": "ym2612"
    },
    {
      "channel": 4,
      "note": 78,
      "start": 39.7499,
      "duration": 0.0166,
      "velocity": 97,
      "chip": "ym2612"
    },
    {
      "channel": 3,
      "note": 78,
      "start": 39.7511,
      "duration": 0.0165,
      "velocity": 97,
      "chip": "ym2612"
    },
    {
      "channel": 2,
      "note": 52,
      "start": 39.7522,
      "duration": 0.0166,
      "velocity": 100,
      "chip": "ym2612"
    },
    {
      "channel": 0,
      "note": 39,
      "start": 39.7654,
      "duration": 0.0167,
      "velocity": 115,
      "chip": "ym2612"
    },
    {
      "channel": 4,
      "note": 78,
      "start": 39.7665,
      "duration": 0.0167,
      "velocity": 97,
      "chip": "ym2612"
    },
    {
      "channel": 3,
      "note": 78,
      "start": 39.7676,
      "duration": 0.0167,
      "velocity": 97,
      "chip": "ym2612"
    },
    {
      "channel": 2,
      "note": 52,
      "start": 39.7688,
      "duration": 0.0167,
      "velocity": 100,
      "chip": "ym2612"
    },
    {
      "channel": 0,
      "note": 40,
      "start": 39.7821,
      "duration": 0.0163,
      "velocity": 115,
      "chip": "ym2612"
    },
    {
      "channel": 4,
      "note": 78,
      "start": 39.7832,
      "duration": 0.0163,
      "velocity": 97,
      "chip": "ym2612"
    },
    {
      "channel": 3,
      "note": 78,
      "start": 39.7843,
      "duration": 0.0163,
      "velocity": 97,
      "chip": "ym2612"
    },
    {
      "channel": 2,
      "note": 52,
      "start": 39.7854,
      "duration": 0.0163,
      "velocity": 100,
      "chip": "ym2612"
    },
    {
      "channel": 0,
      "note": 40,
      "start": 39.7983,
      "duration": 0.0149,
      "velocity": 115,
      "chip": "ym2612"
    },
    {
      "channel": 4,
      "note": 78,
      "start": 39.7995,
      "duration": 0.0149,
      "velocity": 97,
      "chip": "ym2612"
    },
    {
      "channel": 3,
      "note": 78,
      "start": 39.8006,
      "duration": 0.0148,
      "velocity": 97,
      "chip": "ym2612"
    },
    {
      "channel": 2,
      "note": 52,
      "start": 39.8018,
      "duration": 0.0148,
      "velocity": 100,
      "chip": "ym2612"
    },
    {
      "channel": 0,
      "note": 40,
      "start": 39.8132,
      "duration": 0.0188,
      "velocity": 115,
      "chip": "ym2612"
    },
    {
      "channel": 4,
      "note": 78,
      "start": 39.8144,
      "duration": 0.0188,
      "velocity": 97,
      "chip": "ym2612"
    },
    {
      "channel": 3,
      "note": 78,
      "start": 39.8155,
      "duration": 0.0188,
      "velocity": 97,
      "chip": "ym2612"
    },
    {
      "channel": 2,
      "note": 52,
      "start": 39.8166,
      "duration": 0.0188,
      "velocity": 100,
      "chip": "ym2612"
    },
    {
      "channel": 0,
      "note": 41,
      "start": 39.832,
      "duration": 0.0179,
      "velocity": 124,
      "chip": "ym2612"
    },
    {
      "channel": 4,
      "note": 78,
      "start": 39.8332,
      "duration": 0.0179,
      "velocity": 97,
      "chip": "ym2612"
    },
    {
      "channel": 3,
      "note": 78,
      "start": 39.8343,
      "duration": 0.0182,
      "velocity": 97,
      "chip": "ym2612"
    },
    {
      "channel": 2,
      "note": 52,
      "start": 39.8354,
      "duration": 0.0184,
      "velocity": 100,
      "chip": "ym2612"
    },
    {
      "channel": 0,
      "note": 84,
      "start": 39.8499,
      "duration": 0.014,
      "velocity": 124,
      "chip": "ym2612"
    },
    {
      "channel": 4,
      "note": 78,
      "start": 39.8511,
      "duration": 0.014,
      "velocity": 97,
      "chip": "ym2612"
    },
    {
      "channel": 3,
      "note": 78,
      "start": 39.8525,
      "duration": 0.0138,
      "velocity": 97,
      "chip": "ym2612"
    },
    {
      "channel": 2,
      "note": 52,
      "start": 39.8539,
      "duration": 0.0135,
      "velocity": 100,
      "chip": "ym2612"
    },
    {
      "channel": 0,
      "note": 82,
      "start": 39.8639,
      "duration": 0.014,
      "velocity": 124,
      "chip": "ym2612"
    },
    {
      "channel": 4,
      "note": 78,
      "start": 39.8651,
      "duration": 0.014,
      "velocity": 97,
      "chip": "ym2612"
    },
    {
      "channel": 3,
      "note": 78,
      "start": 39.8663,
      "duration": 0.0139,
      "velocity": 97,
      "chip": "ym2612"
    },
    {
      "channel": 2,
      "note": 52,
      "start": 39.8675,
      "duration": 0.0139,
      "velocity": 100,
      "chip": "ym2612"
    },
    {
      "channel": 0,
      "note": 80,
      "start": 39.8779,
      "duration": 0.0158,
      "velocity": 124,
      "chip": "ym2612"
    },
    {
      "channel": 4,
      "note": 78,
      "start": 39.8791,
      "duration": 0.0188,
      "velocity": 97,
      "chip": "ym2612"
    },
    {
      "channel": 3,
      "note": 78,
      "start": 39.8802,
      "duration": 0.0188,
      "velocity": 97,
      "chip": "ym2612"
    },
    {
      "channel": 2,
      "note": 52,
      "start": 39.8814,
      "duration": 0.0188,
      "velocity": 100,
      "chip": "ym2612"
    },
    {
      "channel": 0,
      "note": 77,
      "start": 39.8937,
      "duration": 0.0161,
      "velocity": 124,
      "chip": "ym2612"
    },
    {
      "channel": 4,
      "note": 78,
      "start": 39.8979,
      "duration": 0.0159,
      "velocity": 97,
      "chip": "ym2612"
    },
    {
      "channel": 3,
      "note": 78,
      "start": 39.899,
      "duration": 0.0158,
      "velocity": 97,
      "chip": "ym2612"
    },
    {
      "channel": 2,
      "note": 52,
      "start": 39.9001,
      "duration": 0.0159,
      "velocity": 100,
      "chip": "ym2612"
    },
    {
      "channel": 0,
      "note": 75,
      "start": 39.9098,
      "duration": 0.0161,
      "velocity": 124,
      "chip": "ym2612"
    },
    {
      "channel": 4,
      "note": 78,
      "start": 39.9138,
      "duration": 0.0133,
      "velocity": 97,
      "chip": "ym2612"
    },
    {
      "channel": 3,
      "note": 78,
      "start": 39.9149,
      "duration": 0.0157,
      "velocity": 97,
      "chip": "ym2612"
    },
    {
      "channel": 2,
      "note": 52,
      "start": 39.916,
      "duration": 0.0157,
      "velocity": 100,
      "chip": "ym2612"
    },
    {
      "channel": 0,
      "note": 72,
      "start": 39.9259,
      "duration": 0.0161,
      "velocity": 124,
      "chip": "ym2612"
    },
    {
      "channel": 4,
      "note": 78,
      "start": 39.9271,
      "duration": 0.0161,
      "velocity": 97,
      "chip": "ym2612"
    },
    {
      "channel": 3,
      "note": 78,
      "start": 39.9306,
      "duration": 0.014,
      "velocity": 97,
      "chip": "ym2612"
    },
    {
      "channel": 2,
      "note": 52,
      "start": 39.9317,
      "duration": 0.014,
      "velocity": 100,
      "chip": "ym2612"
    },
    {
      "channel": 0,
      "note": 70,
      "start": 39.942,
      "duration": 0.0161,
      "velocity": 124,
      "chip": "ym2612"
    },
    {
      "channel": 4,
      "note": 78,
      "start": 39.9432,
      "duration": 0.0161,
      "velocity": 97,
      "chip": "ym2612"
    },
    {
      "channel": 3,
      "note": 78,
      "start": 39.9446,
      "duration": 0.0158,
      "velocity": 97,
      "chip": "ym2612"
    },
    {
      "channel": 2,
      "note": 52,
      "start": 39.9457,
      "duration": 0.0185,
      "velocity": 100,
      "chip": "ym2612"
    },
    {
      "channel": 0,
      "note": 68,
      "start": 39.9581,
      "duration": 0.0162,
      "velocity": 124,
      "chip": "ym2612"
    },
    {
      "channel": 4,
      "note": 78,
      "start": 39.9593,
      "duration": 0.0161,
      "velocity": 97,
      "chip": "ym2612"
    },
    {
      "channel": 3,
      "note": 78,
      "start": 39.9604,
      "duration": 0.0162,
      "velocity": 97,
      "chip": "ym2612"
    },
    {
      "channel": 2,
      "note": 52,
      "start": 39.9642,
      "duration": 0.0162,
      "velocity": 100,
      "chip": "ym2612"
    },
    {
      "channel": 0,
      "note": 65,
      "start": 39.9742,
      "duration": 0.0161,
      "velocity": 124,
      "chip": "ym2612"
    },
    {
      "channel": 4,
      "note": 78,
      "start": 39.9754,
      "duration": 0.0161,
      "velocity": 97,
      "chip": "ym2612"
    },
    {
      "channel": 3,
      "note": 78,
      "start": 39.9765,
      "duration": 0.0161,
      "velocity": 97,
      "chip": "ym2612"
    },
    {
      "channel": 2,
      "note": 52,
      "start": 39.9804,
      "duration": 0.0134,
      "velocity": 100,
      "chip": "ym2612"
    },
    {
      "channel": 0,
      "note": 63,
      "start": 39.9903,
      "duration": 0.0153,
      "velocity": 1,
      "chip": "ym2612"
    },
    {
      "channel": 4,
      "note": 78,
      "start": 39.9915,
      "duration": 0.0153,
      "velocity": 97,
      "chip": "ym2612"
    },
    {
      "channel": 3,
      "note": 78,
      "start": 39.9926,
      "duration": 0.0153,
      "velocity": 97,
      "chip": "ym2612"
    },
    {
      "channel": 2,
      "note": 52,
      "start": 39.9938,
      "duration": 0.0153,
      "velocity": 100,
      "chip": "ym2612"
    },
    {
      "channel": 4,
      "note": 78,
      "start": 40.0068,
      "duration": 0.0152,
      "velocity": 97,
      "chip": "ym2612"
    },
    {
      "channel": 3,
      "note": 78,
      "start": 40.0079,
      "duration": 0.0153,
      "velocity": 97,
      "chip": "ym2612"
    },
    {
      "channel": 2,
      "note": 52,
      "start": 40.009,
      "duration": 0.0153,
      "velocity": 100,
      "chip": "ym2612"
    },
    {
      "channel": 4,
      "note": 78,
      "start": 40.022,
      "duration": 0.0161,
      "velocity": 97,
      "chip": "ym2612"
    },
    {
      "channel": 3,
      "note": 78,
      "start": 40.0232,
      "duration": 0.0163,
      "velocity": 97,
      "chip": "ym2612"
    },
    {
      "channel": 2,
      "note": 52,
      "start": 40.0243,
      "duration": 0.0167,
      "velocity": 100,
      "chip": "ym2612"
    },
    {
      "channel": 4,
      "note": 78,
      "start": 40.0381,
      "duration": 0.0161,
      "velocity": 97,
      "chip": "ym2612"
    },
    {
      "channel": 3,
      "note": 80,
      "start": 40.0395,
      "duration": 0.0159,
      "velocity": 97,
      "chip": "ym2612"
    },
    {
      "channel": 2,
      "note": 52,
      "start": 40.041,
      "duration": 0.0156,
      "velocity": 100,
      "chip": "ym2612"
    },
    {
      "channel": 4,
      "note": 78,
      "start": 40.0542,
      "duration": 0.0162,
      "velocity": 97,
      "chip": "ym2612"
    },
    {
      "channel": 3,
      "note": 80,
      "start": 40.0554,
      "duration": 0.016,
      "velocity": 97,
      "chip": "ym2612"
    },
    {
      "channel": 2,
      "note": 52,
      "start": 40.0566,
      "duration": 0.016,
      "velocity": 100,
      "chip": "ym2612"
    },
    {
      "channel": 4,
      "note": 78,
      "start": 40.0704,
      "duration": 0.0163,
      "velocity": 97,
      "chip": "ym2612"
    },
    {
      "channel": 3,
      "note": 80,
      "start": 40.0714,
      "duration": 0.0164,
      "velocity": 97,
      "chip": "ym2612"
    },
    {
      "channel": 2,
      "note": 52,
      "start": 40.0726,
      "duration": 0.0163,
      "velocity": 100,
      "chip": "ym2612"
    },
    {
      "channel": 4,
      "note": 80,
      "start": 40.0867,
      "duration": 0.0159,
      "velocity": 97,
      "chip": "ym2612"
    },
    {
      "channel": 3,
      "note": 80,
      "start": 40.0878,
      "duration": 0.0159,
      "velocity": 97,
      "chip": "ym2612"
    },
    {
      "channel": 2,
      "note": 52,
      "start": 40.0889,
      "duration": 0.0159,
      "velocity": 100,
      "chip": "ym2612"
    },
    {
      "channel": 4,
      "note": 80,
      "start": 40.1026,
      "duration": 0.016,
      "velocity": 97,
      "chip": "ym2612"
    },
    {
      "channel": 3,
      "note": 80,
      "start": 40.1037,
      "duration": 0.016,
      "velocity": 97,
      "chip": "ym2612"
    },
    {
      "channel": 2,
      "note": 52,
      "start": 40.1048,
      "duration": 0.0161,
      "velocity": 100,
      "chip": "ym2612"
    },
    {
      "channel": 4,
      "note": 80,
      "start": 40.1186,
      "duration": 0.0161,
      "velocity": 97,
      "chip": "ym2612"
    },
    {
      "channel": 3,
      "note": 80,
      "start": 40.1198,
      "duration": 0.0161,
      "velocity": 97,
      "chip": "ym2612"
    },
    {
      "channel": 2,
      "note": 52,
      "start": 40.1209,
      "duration": 0.0161,
      "velocity": 100,
      "chip": "ym2612"
    },
    {
      "channel": 4,
      "note": 80,
      "start": 40.1347,
      "duration": 0.0161,
      "velocity": 97,
      "chip": "ym2612"
    },
    {
      "channel": 3,
      "note": 80,
      "start": 40.1359,
      "duration": 0.0161,
      "velocity": 97,
      "chip": "ym2612"
    },
    {
      "channel": 2,
      "note": 52,
      "start": 40.137,
      "duration": 0.0161,
      "velocity": 100,
      "chip": "ym2612"
    },
    {
      "channel": 4,
      "note": 80,
      "start": 40.1508,
      "duration": 0.0161,
      "velocity": 97,
      "chip": "ym2612"
    },
    {
      "channel": 3,
      "note": 80,
      "start": 40.152,
      "duration": 0.0161,
      "velocity": 97,
      "chip": "ym2612"
    },
    {
      "channel": 2,
      "note": 52,
      "start": 40.1531,
      "duration": 0.0161,
      "velocity": 100,
      "chip": "ym2612"
    },
    {
      "channel": 4,
      "note": 80,
      "start": 40.1669,
      "duration": 0.0161,
      "velocity": 97,
      "chip": "ym2612"
    },
    {
      "channel": 3,
      "note": 80,
      "start": 40.1681,
      "duration": 0.0161,
      "velocity": 97,
      "chip": "ym2612"
    },
    {
      "channel": 2,
      "note": 52,
      "start": 40.1692,
      "duration": 0.0161,
      "velocity": 100,
      "chip": "ym2612"
    },
    {
      "channel": 4,
      "note": 80,
      "start": 40.183,
      "duration": 0.0161,
      "velocity": 97,
      "chip": "ym2612"
    },
    {
      "channel": 3,
      "note": 80,
      "start": 40.1841,
      "duration": 0.0161,
      "velocity": 97,
      "chip": "ym2612"
    },
    {
      "channel": 2,
      "note": 52,
      "start": 40.1853,
      "duration": 0.0161,
      "velocity": 100,
      "chip": "ym2612"
    },
    {
      "channel": 4,
      "note": 80,
      "start": 40.1991,
      "duration": 0.0161,
      "velocity": 97,
      "chip": "ym2612"
    },
    {
      "channel": 3,
      "note": 80,
      "start": 40.2002,
      "duration": 0.0161,
      "velocity": 97,
      "chip": "ym2612"
    },
    {
      "channel": 2,
      "note": 52,
      "start": 40.2014,
      "duration": 0.0161,
      "velocity": 100,
      "chip": "ym2612"
    },
    {
      "channel": 4,
      "note": 80,
      "start": 40.2153,
      "duration": 0.0197,
      "velocity": 97,
      "chip": "ym2612"
    },
    {
      "channel": 3,
      "note": 80,
      "start": 40.2163,
      "duration": 0.0199,
      "velocity": 97,
      "chip": "ym2612"
    },
    {
      "channel": 2,
      "note": 52,
      "start": 40.2175,
      "duration": 0.0202,
      "velocity": 100,
      "chip": "ym2612"
    },
    {
      "channel": 0,
      "note": 36,
      "start": 40.2338,
      "duration": 0.015,
      "velocity": 115,
      "chip": "ym2612"
    },
    {
      "channel": 4,
      "note": 80,
      "start": 40.235,
      "duration": 0.0149,
      "velocity": 97,
      "chip": "ym2612"
    },
    {
      "channel": 3,
      "note": 80,
      "start": 40.2363,
      "duration": 0.0148,
      "velocity": 97,
      "chip": "ym2612"
    },
    {
      "channel": 2,
      "note": 52,
      "start": 40.2377,
      "duration": 0.0146,
      "velocity": 100,
      "chip": "ym2612"
    },
    {
      "channel": 0,
      "note": 36,
      "start": 40.2488,
      "duration": 0.0162,
      "velocity": 115,
      "chip": "ym2612"
    },
    {
      "channel": 4,
      "note": 80,
      "start": 40.2499,
      "duration": 0.0162,
      "velocity": 97,
      "chip": "ym2612"
    },
    {
      "channel": 3,
      "note": 80,
      "start": 40.2511,
      "duration": 0.0162,
      "velocity": 97,
      "chip": "ym2612"
    },
    {
      "channel": 2,
      "note": 52,
      "start": 40.2523,
      "duration": 0.0161,
      "velocity": 100,
      "chip": "ym2612"
    },
    {
      "channel": 0,
      "note": 37,
      "start": 40.265,
      "duration": 0.0151,
      "velocity": 115,
      "chip": "ym2612"
    },
    {
      "channel": 4,
      "note": 80,
      "start": 40.2661,
      "duration": 0.0153,
      "velocity": 97,
      "chip": "ym2612"
    },
    {
      "channel": 3,
      "note": 80,
      "start": 40.2673,
      "duration": 0.0152,
      "velocity": 97,
      "chip": "ym2612"
    },
    {
      "channel": 2,
      "note": 52,
      "start": 40.2684,
      "duration": 0.0152,
      "velocity": 100,
      "chip": "ym2612"
    },
    {
      "channel": 0,
      "note": 37,
      "start": 40.2802,
      "duration": 0.0186,
      "velocity": 115,
      "chip": "ym2612"
    },
    {
      "channel": 4,
      "note": 80,
      "start": 40.2814,
      "duration": 0.0185,
      "velocity": 97,
      "chip": "ym2612"
    },
    {
      "channel": 3,
      "note": 80,
      "start": 40.2825,
      "duration": 0.0185,
      "velocity": 97,
      "chip": "ym2612"
    },
    {
      "channel": 2,
      "note": 52,
      "start": 40.2837,
      "duration": 0.0185,
      "velocity": 100,
      "chip": "ym2612"
    },
    {
      "channel": 0,
      "note": 38,
      "start": 40.2987,
      "duration": 0.0163,
      "velocity": 115,
      "chip": "ym2612"
    },
    {
      "channel": 4,
      "note": 80,
      "start": 40.2999,
      "duration": 0.0163,
      "velocity": 97,
      "chip": "ym2612"
    },
    {
      "channel": 3,
      "note": 80,
      "start": 40.301,
      "duration": 0.0163,
      "velocity": 97,
      "chip": "ym2612"
    },
    {
      "channel": 2,
      "note": 52,
      "start": 40.3022,
      "duration": 0.0163,
      "velocity": 100,
      "chip": "ym2612"
    },
    {
      "channel": 0,
      "note": 38,
      "start": 40.3151,
      "duration": 0.0157,
      "velocity": 115,
      "chip": "ym2612"
    },
    {
      "channel": 4,
      "note": 80,
      "start": 40.3162,
      "duration": 0.0158,
      "velocity": 97,
      "chip": "ym2612"
    },
    {
      "channel": 3,
      "note": 80,
      "start": 40.3174,
      "duration": 0.0157,
      "velocity": 97,
      "chip": "ym2612"
    },
    {
      "channel": 2,
      "note": 52,
      "start": 40.3185,
      "duration": 0.0157,
      "velocity": 100,
      "chip": "ym2612"
    },
    {
      "channel": 0,
      "note": 39,
      "start": 40.3308,
      "duration": 0.0141,
      "velocity": 115,
      "chip": "ym2612"
    },
    {
      "channel": 4,
      "note": 80,
      "start": 40.332,
      "duration": 0.014,
      "velocity": 97,
      "chip": "ym2612"
    },
    {
      "channel": 3,
      "note": 80,
      "start": 40.3331,
      "duration": 0.0141,
      "velocity": 97,
      "chip": "ym2612"
    },
    {
      "channel": 2,
      "note": 52,
      "start": 40.3342,
      "duration": 0.0141,
      "velocity": 100,
      "chip": "ym2612"
    },
    {
      "channel": 0,
      "note": 39,
      "start": 40.3449,
      "duration": 0.0158,
      "velocity": 115,
      "chip": "ym2612"
    },
    {
      "channel": 4,
      "note": 80,
      "start": 40.346,
      "duration": 0.0185,
      "velocity": 97,
      "chip": "ym2612"
    },
    {
      "channel": 3,
      "note": 80,
      "start": 40.3471,
      "duration": 0.0185,
      "velocity": 97,
      "chip": "ym2612"
    },
    {
      "channel": 2,
      "note": 52,
      "start": 40.3483,
      "duration": 0.0185,
      "velocity": 100,
      "chip": "ym2612"
    },
    {
      "channel": 0,
      "note": 40,
      "start": 40.3606,
      "duration": 0.0161,
      "velocity": 115,
      "chip": "ym2612"
    },
    {
      "channel": 4,
      "note": 80,
      "start": 40.3645,
      "duration": 0.0161,
      "velocity": 97,
      "chip": "ym2612"
    },
    {
      "channel": 3,
      "note": 80,
      "start": 40.3656,
      "duration": 0.0161,
      "velocity": 97,
      "chip": "ym2612"
    },
    {
      "channel": 2,
      "note": 52,
      "start": 40.3668,
      "duration": 0.0161,
      "velocity": 100,
      "chip": "ym2612"
    },
    {
      "channel": 0,
      "note": 40,
      "start": 40.3767,
      "duration": 0.0161,
      "velocity": 115,
      "chip": "ym2612"
    },
    {
      "channel": 4,
      "note": 80,
      "start": 40.3807,
      "duration": 0.0156,
      "velocity": 97,
      "chip": "ym2612"
    },
    {
      "channel": 3,
      "note": 80,
      "start": 40.3817,
      "duration": 0.0158,
      "velocity": 97,
      "chip": "ym2612"
    },
    {
      "channel": 2,
      "note": 52,
      "start": 40.3829,
      "duration": 0.0157,
      "velocity": 100,
      "chip": "ym2612"
    },
    {
      "channel": 0,
      "note": 40,
      "start": 40.3928,
      "duration": 0.0161,
      "velocity": 115,
      "chip": "ym2612"
    },
    {
      "channel": 4,
      "note": 80,
      "start": 40.3963,
      "duration": 0.0138,
      "velocity": 97,
      "chip": "ym2612"
    },
    {
      "channel": 3,
      "note": 80,
      "start": 40.3975,
      "duration": 0.0141,
      "velocity": 97,
      "chip": "ym2612"
    },
    {
      "channel": 2,
      "note": 52,
      "start": 40.3986,
      "duration": 0.0141,
      "velocity": 100,
      "chip": "ym2612"
    },
    {
      "channel": 0,
      "note": 41,
      "start": 40.4089,
      "duration": 0.0161,
      "velocity": 115,
      "chip": "ym2612"
    },
    {
      "channel": 4,
      "note": 80,
      "start": 40.4101,
      "duration": 0.0161,
      "velocity": 97,
      "chip": "ym2612"
    },
    {
      "channel": 3,
      "note": 80,
      "start": 40.4116,
      "duration": 0.0186,
      "velocity": 97,
      "chip": "ym2612"
    },
    {
      "channel": 2,
      "note": 52,
      "start": 40.4127,
      "duration": 0.019,
      "velocity": 100,
      "chip": "ym2612"
    },
    {
      "channel": 0,
      "note": 41,
      "start": 40.4251,
      "duration": 0.0161,
      "velocity": 115,
      "chip": "ym2612"
    },
    {
      "channel": 4,
      "note": 80,
      "start": 40.4262,
      "duration": 0.0161,
      "velocity": 97,
      "chip": "ym2612"
    },
    {
      "channel": 3,
      "note": 80,
      "start": 40.4302,
      "duration": 0.0133,
      "velocity": 97,
      "chip": "ym2612"
    },
    {
      "channel": 2,
      "note": 52,
      "start": 40.4317,
      "duration": 0.0158,
      "velocity": 100,
      "chip": "ym2612"
    },
    {
      "channel": 0,
      "note": 42,
      "start": 40.4412,
      "duration": 0.0161,
      "velocity": 115,
      "chip": "ym2612"
    },
    {
      "channel": 4,
      "note": 80,
      "start": 40.4423,
      "duration": 0.0161,
      "velocity": 97,
      "chip": "ym2612"
    },
    {
      "channel": 3,
      "note": 80,
      "start": 40.4435,
      "duration": 0.016,
      "velocity": 97,
      "chip": "ym2612"
    },
    {
      "channel": 2,
      "note": 52,
      "start": 40.4475,
      "duration": 0.0156,
      "velocity": 100,
      "chip": "ym2612"
    },
    {
      "channel": 0,
      "note": 42,
      "start": 40.4573,
      "duration": 0.0161,
      "velocity": 115,
      "chip": "ym2612"
    },
    {
      "channel": 4,
      "note": 80,
      "start": 40.4584,
      "duration": 0.0162,
      "velocity": 97,
      "chip": "ym2612"
    },
    {
      "channel": 3,
      "note": 80,
      "start": 40.4595,
      "duration": 0.0162,
      "velocity": 97,
      "chip": "ym2612"
    },
    {
      "channel": 2,
      "note": 52,
      "start": 40.463,
      "duration": 0.0139,
      "velocity": 100,
      "chip": "ym2612"
    },
    {
      "channel": 0,
      "note": 43,
      "start": 40.4733,
      "duration": 0.0161,
      "velocity": 115,
      "chip": "ym2612"
    },
    {
      "channel": 4,
      "note": 80,
      "start": 40.4746,
      "duration": 0.016,
      "velocity": 97,
      "chip": "ym2612"
    },
    {
      "channel": 3,
      "note": 80,
      "start": 40.4758,
      "duration": 0.016,
      "velocity": 97,
      "chip": "ym2612"
    },
    {
      "channel": 2,
      "note": 52,
      "start": 40.4769,
      "duration": 0.016,
      "velocity": 100,
      "chip": "ym2612"
    },
    {
      "channel": 0,
      "note": 43,
      "start": 40.4894,
      "duration": 0.0161,
      "velocity": 115,
      "chip": "ym2612"
    },
    {
      "channel": 4,
      "note": 80,
      "start": 40.4907,
      "duration": 0.016,
      "velocity": 97,
      "chip": "ym2612"
    },
    {
      "channel": 3,
      "note": 80,
      "start": 40.4918,
      "duration": 0.016,
      "velocity": 97,
      "chip": "ym2612"
    },
    {
      "channel": 2,
      "note": 52,
      "start": 40.4929,
      "duration": 0.0161,
      "velocity": 100,
      "chip": "ym2612"
    },
    {
      "channel": 0,
      "note": 44,
      "start": 40.5055,
      "duration": 0.0161,
      "velocity": 115,
      "chip": "ym2612"
    },
    {
      "channel": 4,
      "note": 80,
      "start": 40.5067,
      "duration": 0.0161,
      "velocity": 97,
      "chip": "ym2612"
    },
    {
      "channel": 3,
      "note": 80,
      "start": 40.5078,
      "duration": 0.0161,
      "velocity": 97,
      "chip": "ym2612"
    },
    {
      "channel": 2,
      "note": 52,
      "start": 40.509,
      "duration": 0.0161,
      "velocity": 100,
      "chip": "ym2612"
    },
    {
      "channel": 0,
      "note": 44,
      "start": 40.5216,
      "duration": 0.0161,
      "velocity": 115,
      "chip": "ym2612"
    },
    {
      "channel": 4,
      "note": 80,
      "start": 40.5228,
      "duration": 0.0161,
      "velocity": 97,
      "chip": "ym2612"
    },
    {
      "channel": 3,
      "note": 80,
      "start": 40.5239,
      "duration": 0.0161,
      "velocity": 97,
      "chip": "ym2612"
    },
    {
      "channel": 2,
      "note": 52,
      "start": 40.5251,
      "duration": 0.0161,
      "velocity": 100,
      "chip": "ym2612"
    },
    {
      "channel": 0,
      "note": 44,
      "start": 40.5377,
      "duration": 0.0162,
      "velocity": 115,
      "chip": "ym2612"
    },
    {
      "channel": 4,
      "note": 80,
      "start": 40.5389,
      "duration": 0.0162,
      "velocity": 97,
      "chip": "ym2612"
    },
    {
      "channel": 3,
      "note": 80,
      "start": 40.54,
      "duration": 0.0161,
      "velocity": 97,
      "chip": "ym2612"
    },
    {
      "channel": 2,
      "note": 52,
      "start": 40.5412,
      "duration": 0.0161,
      "velocity": 100,
      "chip": "ym2612"
    },
    {
      "channel": 0,
      "note": 45,
      "start": 40.5539,
      "duration": 0.0161,
      "velocity": 115,
      "chip": "ym2612"
    },
    {
      "channel": 4,
      "note": 80,
      "start": 40.555,
      "duration": 0.0161,
      "velocity": 97,
      "chip": "ym2612"
    },
    {
      "channel": 3,
      "note": 80,
      "start": 40.5561,
      "duration": 0.0161,
      "velocity": 97,
      "chip": "ym2612"
    },
    {
      "channel": 2,
      "note": 52,
      "start": 40.5573,
      "duration": 0.0161,
      "velocity": 100,
      "chip": "ym2612"
    },
    {
      "channel": 0,
      "note": 45,
      "start": 40.57,
      "duration": 0.0161,
      "velocity": 115,
      "chip": "ym2612"
    },
    {
      "channel": 4,
      "note": 80,
      "start": 40.5711,
      "duration": 0.0161,
      "velocity": 97,
      "chip": "ym2612"
    },
    {
      "channel": 3,
      "note": 80,
      "start": 40.5722,
      "duration": 0.0162,
      "velocity": 97,
      "chip": "ym2612"
    },
    {
      "channel": 2,
      "note": 52,
      "start": 40.5733,
      "duration": 0.0161,
      "velocity": 100,
      "chip": "ym2612"
    },
    {
      "channel": 0,
      "note": 46,
      "start": 40.5861,
      "duration": 0.0161,
      "velocity": 115,
      "chip": "ym2612"
    },
    {
      "channel": 4,
      "note": 80,
      "start": 40.5872,
      "duration": 0.0161,
      "velocity": 97,
      "chip": "ym2612"
    },
    {
      "channel": 3,
      "note": 80,
      "start": 40.5884,
      "duration": 0.0161,
      "velocity": 97,
      "chip": "ym2612"
    },
    {
      "channel": 2,
      "note": 52,
      "start": 40.5894,
      "duration": 0.0162,
      "velocity": 100,
      "chip": "ym2612"
    },
    {
      "channel": 0,
      "note": 46,
      "start": 40.6022,
      "duration": 0.0178,
      "velocity": 124,
      "chip": "ym2612"
    },
    {
      "channel": 4,
      "note": 80,
      "start": 40.6033,
      "duration": 0.0179,
      "velocity": 97,
      "chip": "ym2612"
    },
    {
      "channel": 3,
      "note": 80,
      "start": 40.6044,
      "duration": 0.0181,
      "velocity": 97,
      "chip": "ym2612"
    },
    {
      "channel": 2,
      "note": 52,
      "start": 40.6056,
      "duration": 0.0184,
      "velocity": 100,
      "chip": "ym2612"
    },
    {
      "channel": 0,
      "note": 84,
      "start": 40.62,
      "duration": 0.0144,
      "velocity": 124,
      "chip": "ym2612"
    },
    {
      "channel": 4,
      "note": 80,
      "start": 40.6212,
      "duration": 0.0144,
      "velocity": 97,
      "chip": "ym2612"
    },
    {
      "channel": 3,
      "note": 80,
      "start": 40.6226,
      "duration": 0.0142,
      "velocity": 97,
      "chip": "ym2612"
    },
    {
      "channel": 2,
      "note": 52,
      "start": 40.624,
      "duration": 0.0139,
      "velocity": 100,
      "chip": "ym2612"
    },
    {
      "channel": 0,
      "note": 82,
      "start": 40.6344,
      "duration": 0.016,
      "velocity": 124,
      "chip": "ym2612"
    },
    {
      "channel": 4,
      "note": 80,
      "start": 40.6356,
      "duration": 0.016,
      "velocity": 97,
      "chip": "ym2612"
    },
    {
      "channel": 3,
      "note": 80,
      "start": 40.6368,
      "duration": 0.016,
      "velocity": 97,
      "chip": "ym2612"
    },
    {
      "channel": 2,
      "note": 52,
      "start": 40.638,
      "duration": 0.0159,
      "velocity": 100,
      "chip": "ym2612"
    },
    {
      "channel": 0,
      "note": 80,
      "start": 40.6505,
      "duration": 0.0161,
      "velocity": 124,
      "chip": "ym2612"
    },
    {
      "channel": 4,
      "note": 80,
      "start": 40.6516,
      "duration": 0.0163,
      "velocity": 97,
      "chip": "ym2612"
    },
    {
      "channel": 3,
      "note": 80,
      "start": 40.6527,
      "duration": 0.0164,
      "velocity": 97,
      "chip": "ym2612"
    },
    {
      "channel": 2,
      "note": 52,
      "start": 40.6539,
      "duration": 0.0163,
      "velocity": 100,
      "chip": "ym2612"
    },
    {
      "channel": 0,
      "note": 77,
      "start": 40.6665,
      "duration": 0.0161,
      "velocity": 124,
      "chip": "ym2612"
    },
    {
      "channel": 4,
      "note": 80,
      "start": 40.668,
      "duration": 0.0158,
      "velocity": 97,
      "chip": "ym2612"
    },
    {
      "channel": 3,
      "note": 80,
      "start": 40.6691,
      "duration": 0.0159,
      "velocity": 97,
      "chip": "ym2612"
    },
    {
      "channel": 2,
      "note": 52,
      "start": 40.6702,
      "duration": 0.0159,
      "velocity": 100,
      "chip": "ym2612"
    },
    {
      "channel": 0,
      "note": 75,
      "start": 40.6826,
      "duration": 0.0162,
      "velocity": 124,
      "chip": "ym2612"
    },
    {
      "channel": 4,
      "note": 80,
      "start": 40.6838,
      "duration": 0.0161,
      "velocity": 97,
      "chip": "ym2612"
    },
    {
      "channel": 3,
      "note": 80,
      "start": 40.685,
      "duration": 0.0161,
      "velocity": 97,
      "chip": "ym2612"
    },
    {
      "channel": 2,
      "note": 52,
      "start": 40.6861,
      "duration": 0.016,
      "velocity": 100,
      "chip": "ym2612"
    },
    {
      "channel": 0,
      "note": 72,
      "start": 40.6988,
      "duration": 0.0166,
      "velocity": 124,
      "chip": "ym2612"
    },
    {
      "channel": 4,
      "note": 80,
      "start": 40.6999,
      "duration": 0.0166,
      "velocity": 97,
      "chip": "ym2612"
    },
    {
      "channel": 3,
      "note": 80,
      "start": 40.7011,
      "duration": 0.0166,
      "velocity": 97,
      "chip": "ym2612"
    },
    {
      "channel": 2,
      "note": 52,
      "start": 40.7022,
      "duration": 0.0167,
      "velocity": 100,
      "chip": "ym2612"
    },
    {
      "channel": 0,
      "note": 70,
      "start": 40.7154,
      "duration": 0.0163,
      "velocity": 124,
      "chip": "ym2612"
    },
    {
      "channel": 4,
      "note": 80,
      "start": 40.7165,
      "duration": 0.0163,
      "velocity": 97,
      "chip": "ym2612"
    },
    {
      "channel": 3,
      "note": 80,
      "start": 40.7177,
      "duration": 0.0163,
      "velocity": 97,
      "chip": "ym2612"
    },
    {
      "channel": 2,
      "note": 52,
      "start": 40.7188,
      "duration": 0.0163,
      "velocity": 100,
      "chip": "ym2612"
    },
    {
      "channel": 0,
      "note": 68,
      "start": 40.7317,
      "duration": 0.0154,
      "velocity": 124,
      "chip": "ym2612"
    },
    {
      "channel": 4,
      "note": 80,
      "start": 40.7328,
      "duration": 0.0154,
      "velocity": 97,
      "chip": "ym2612"
    },
    {
      "channel": 3,
      "note": 80,
      "start": 40.734,
      "duration": 0.0154,
      "velocity": 97,
      "chip": "ym2612"
    },
    {
      "channel": 2,
      "note": 52,
      "start": 40.7351,
      "duration": 0.0154,
      "velocity": 100,
      "chip": "ym2612"
    },
    {
      "channel": 0,
      "note": 65,
      "start": 40.7471,
      "duration": 0.0183,
      "velocity": 124,
      "chip": "ym2612"
    },
    {
      "channel": 4,
      "note": 80,
      "start": 40.7482,
      "duration": 0.0183,
      "velocity": 97,
      "chip": "ym2612"
    },
    {
      "channel": 3,
      "note": 80,
      "start": 40.7494,
      "duration": 0.0183,
      "velocity": 97,
      "chip": "ym2612"
    },
    {
      "channel": 2,
      "note": 52,
      "start": 40.7505,
      "duration": 0.0183,
      "velocity": 100,
      "chip": "ym2612"
    },
    {
      "channel": 0,
      "note": 63,
      "start": 40.7654,
      "duration": 0.0158,
      "velocity": 1,
      "chip": "ym2612"
    },
    {
      "channel": 4,
      "note": 80,
      "start": 40.7665,
      "duration": 0.0159,
      "velocity": 97,
      "chip": "ym2612"
    },
    {
      "channel": 3,
      "note": 80,
      "start": 40.7677,
      "duration": 0.0158,
      "velocity": 97,
      "chip": "ym2612"
    },
    {
      "channel": 2,
      "note": 52,
      "start": 40.7688,
      "duration": 0.0159,
      "velocity": 100,
      "chip": "ym2612"
    },
    {
      "channel": 4,
      "note": 80,
      "start": 40.7824,
      "duration": 0.0149,
      "velocity": 97,
      "chip": "ym2612"
    },
    {
      "channel": 3,
      "note": 80,
      "start": 40.7835,
      "duration": 0.0149,
      "velocity": 97,
      "chip": "ym2612"
    },
    {
      "channel": 2,
      "note": 52,
      "start": 40.7847,
      "duration": 0.0149,
      "velocity": 100,
      "chip": "ym2612"
    },
    {
      "channel": 4,
      "note": 80,
      "start": 40.7973,
      "duration": 0.0175,
      "velocity": 97,
      "chip": "ym2612"
    },
    {
      "channel": 3,
      "note": 80,
      "start": 40.7984,
      "duration": 0.0176,
      "velocity": 97,
      "chip": "ym2612"
    },
    {
      "channel": 2,
      "note": 52,
      "start": 40.7995,
      "duration": 0.0179,
      "velocity": 100,
      "chip": "ym2612"
    },
    {
      "channel": 0,
      "note": 36,
      "start": 40.8136,
      "duration": 0.0167,
      "velocity": 115,
      "chip": "ym2612"
    },
    {
      "channel": 4,
      "note": 80,
      "start": 40.8148,
      "duration": 0.0168,
      "velocity": 97,
      "chip": "ym2612"
    },
    {
      "channel": 3,
      "note": 80,
      "start": 40.816,
      "duration": 0.0167,
      "velocity": 97,
      "chip": "ym2612"
    },
    {
      "channel": 2,
      "note": 52,
      "start": 40.8174,
      "duration": 0.0165,
      "velocity": 100,
      "chip": "ym2612"
    },
    {
      "channel": 0,
      "note": 36,
      "start": 40.8303,
      "duration": 0.0134,
      "velocity": 115,
      "chip": "ym2612"
    },
    {
      "channel": 4,
      "note": 80,
      "start": 40.8315,
      "duration": 0.016,
      "velocity": 97,
      "chip": "ym2612"
    },
    {
      "channel": 3,
      "note": 80,
      "start": 40.8327,
      "duration": 0.016,
      "velocity": 97,
      "chip": "ym2612"
    },
    {
      "channel": 2,
      "note": 52,
      "start": 40.8339,
      "duration": 0.016,
      "velocity": 100,
      "chip": "ym2612"
    },
    {
      "channel": 0,
      "note": 37,
      "start": 40.8437,
      "duration": 0.0161,
      "velocity": 115,
      "chip": "ym2612"
    },
    {
      "channel": 4,
      "note": 80,
      "start": 40.8476,
      "duration": 0.0159,
      "velocity": 97,
      "chip": "ym2612"
    },
    {
      "channel": 3,
      "note": 80,
      "start": 40.8487,
      "duration": 0.0158,
      "velocity": 97,
      "chip": "ym2612"
    },
    {
      "channel": 2,
      "note": 52,
      "start": 40.8499,
      "duration": 0.0159,
      "velocity": 100,
      "chip": "ym2612"
    },
    {
      "channel": 0,
      "note": 37,
      "start": 40.8598,
      "duration": 0.0161,
      "velocity": 115,
      "chip": "ym2612"
    },
    {
      "channel": 4,
      "note": 80,
      "start": 40.8634,
      "duration": 0.0137,
      "velocity": 97,
      "chip": "ym2612"
    },
    {
      "channel": 3,
      "note": 80,
      "start": 40.8646,
      "duration": 0.014,
      "velocity": 97,
      "chip": "ym2612"
    },
    {
      "channel": 2,
      "note": 52,
      "start": 40.8657,
      "duration": 0.0139,
      "velocity": 100,
      "chip": "ym2612"
    },
    {
      "channel": 0,
      "note": 38,
      "start": 40.8759,
      "duration": 0.0161,
      "velocity": 115,
      "chip": "ym2612"
    },
    {
      "channel": 4,
      "note": 80,
      "start": 40.8771,
      "duration": 0.016,
      "velocity": 97,
      "chip": "ym2612"
    },
    {
      "channel": 3,
      "note": 80,
      "start": 40.8786,
      "duration": 0.0184,
      "velocity": 97,
      "chip": "ym2612"
    },
    {
      "channel": 2,
      "note": 52,
      "start": 40.8796,
      "duration": 0.0185,
      "velocity": 100,
      "chip": "ym2612"
    },
    {
      "channel": 0,
      "note": 38,
      "start": 40.892,
      "duration": 0.0161,
      "velocity": 115,
      "chip": "ym2612"
    },
    {
      "channel": 4,
      "note": 80,
      "start": 40.8931,
      "duration": 0.0161,
      "velocity": 97,
      "chip": "ym2612"
    },
    {
      "channel": 3,
      "note": 80,
      "start": 40.897,
      "duration": 0.0134,
      "velocity": 97,
      "chip": "ym2612"
    },
    {
      "channel": 2,
      "note": 52,
      "start": 40.8982,
      "duration": 0.0161,
      "velocity": 100,
      "chip": "ym2612"
    },
    {
      "channel": 0,
      "note": 39,
      "start": 40.9081,
      "duration": 0.0161,
      "velocity": 115,
      "chip": "ym2612"
    },
    {
      "channel": 4,
      "note": 80,
      "start": 40.9092,
      "duration": 0.0161,
      "velocity": 97,
      "chip": "ym2612"
    },
    {
      "channel": 3,
      "note": 80,
      "start": 40.9104,
      "duration": 0.0161,
      "velocity": 97,
      "chip": "ym2612"
    },
    {
      "channel": 2,
      "note": 52,
      "start": 40.9142,
      "duration": 0.0157,
      "velocity": 100,
      "chip": "ym2612"
    },
    {
      "channel": 0,
      "note": 39,
      "start": 40.9242,
      "duration": 0.0161,
      "velocity": 115,
      "chip": "ym2612"
    },
    {
      "channel": 4,
      "note": 80,
      "start": 40.9253,
      "duration": 0.0161,
      "velocity": 97,
      "chip": "ym2612"
    },
    {
      "channel": 3,
      "note": 80,
      "start": 40.9265,
      "duration": 0.0161,
      "velocity": 97,
      "chip": "ym2612"
    },
    {
      "channel": 2,
      "note": 52,
      "start": 40.93,
      "duration": 0.0137,
      "velocity": 100,
      "chip": "ym2612"
    },
    {
      "channel": 0,
      "note": 40,
      "start": 40.9403,
      "duration": 0.0161,
      "velocity": 115,
      "chip": "ym2612"
    },
    {
      "channel": 4,
      "note": 80,
      "start": 40.9414,
      "duration": 0.0161,
      "velocity": 97,
      "chip": "ym2612"
    },
    {
      "channel": 3,
      "note": 80,
      "start": 40.9426,
      "duration": 0.0161,
      "velocity": 97,
      "chip": "ym2612"
    },
    {
      "channel": 2,
      "note": 52,
      "start": 40.9437,
      "duration": 0.0161,
      "velocity": 100,
      "chip": "ym2612"
    },
    {
      "channel": 0,
      "note": 40,
      "start": 40.9563,
      "duration": 0.0161,
      "velocity": 115,
      "chip": "ym2612"
    },
    {
      "channel": 4,
      "note": 80,
      "start": 40.9575,
      "duration": 0.0161,
      "velocity": 97,
      "chip": "ym2612"
    },
    {
      "channel": 3,
      "note": 80,
      "start": 40.9586,
      "duration": 0.0161,
      "velocity": 97,
      "chip": "ym2612"
    },
    {
      "channel": 2,
      "note": 52,
      "start": 40.9598,
      "duration": 0.0161,
      "velocity": 100,
      "chip": "ym2612"
    },
    {
      "channel": 0,
      "note": 40,
      "start": 40.9724,
      "duration": 0.0161,
      "velocity": 115,
      "chip": "ym2612"
    },
    {
      "channel": 4,
      "note": 80,
      "start": 40.9736,
      "duration": 0.0161,
      "velocity": 97,
      "chip": "ym2612"
    },
    {
      "channel": 3,
      "note": 80,
      "start": 40.9747,
      "duration": 0.0161,
      "velocity": 97,
      "chip": "ym2612"
    },
    {
      "channel": 2,
      "note": 52,
      "start": 40.9759,
      "duration": 0.0161,
      "velocity": 100,
      "chip": "ym2612"
    },
    {
      "channel": 0,
      "note": 41,
      "start": 40.9885,
      "duration": 0.0179,
      "velocity": 115,
      "chip": "ym2612"
    },
    {
      "channel": 4,
      "note": 80,
      "start": 40.9897,
      "duration": 0.018,
      "velocity": 97,
      "chip": "ym2612"
    },
    {
      "channel": 3,
      "note": 80,
      "start": 40.9908,
      "duration": 0.0181,
      "velocity": 97,
      "chip": "ym2612"
    },
    {
      "channel": 2,
      "note": 52,
      "start": 40.992,
      "duration": 0.0185,
      "velocity": 100,
      "chip": "ym2612"
    },
    {
      "channel": 0,
      "note": 36,
      "start": 41.0065,
      "duration": 0.0144,
      "velocity": 115,
      "chip": "ym2612"
    },
    {
      "channel": 4,
      "note": 80,
      "start": 41.0076,
      "duration": 0.0144,
      "velocity": 97,
      "chip": "ym2612"
    },
    {
      "channel": 3,
      "note": 80,
      "start": 41.009,
      "duration": 0.0141,
      "velocity": 97,
      "chip": "ym2612"
    },
    {
      "channel": 2,
      "note": 52,
      "start": 41.0105,
      "duration": 0.0139,
      "velocity": 100,
      "chip": "ym2612"
    },
    {
      "channel": 0,
      "note": 36,
      "start": 41.0209,
      "duration": 0.016,
      "velocity": 115,
      "chip": "ym2612"
    },
    {
      "channel": 4,
      "note": 80,
      "start": 41.022,
      "duration": 0.016,
      "velocity": 97,
      "chip": "ym2612"
    },
    {
      "channel": 3,
      "note": 80,
      "start": 41.0232,
      "duration": 0.016,
      "velocity": 97,
      "chip": "ym2612"
    },
    {
      "channel": 2,
      "note": 52,
      "start": 41.0244,
      "duration": 0.016,
      "velocity": 100,
      "chip": "ym2612"
    },
    {
      "channel": 0,
      "note": 37,
      "start": 41.0369,
      "duration": 0.0161,
      "velocity": 115,
      "chip": "ym2612"
    },
    {
      "channel": 4,
      "note": 80,
      "start": 41.038,
      "duration": 0.0163,
      "velocity": 97,
      "chip": "ym2612"
    },
    {
      "channel": 3,
      "note": 80,
      "start": 41.0392,
      "duration": 0.0163,
      "velocity": 97,
      "chip": "ym2612"
    },
    {
      "channel": 2,
      "note": 52,
      "start": 41.0403,
      "duration": 0.0163,
      "velocity": 100,
      "chip": "ym2612"
    },
    {
      "channel": 0,
      "note": 37,
      "start": 41.053,
      "duration": 0.0161,
      "velocity": 115,
      "chip": "ym2612"
    },
    {
      "channel": 4,
      "note": 80,
      "start": 41.0544,
      "duration": 0.0159,
      "velocity": 97,
      "chip": "ym2612"
    },
    {
      "channel": 3,
      "note": 80,
      "start": 41.0555,
      "duration": 0.0159,
      "velocity": 97,
      "chip": "ym2612"
    },
    {
      "channel": 2,
      "note": 52,
      "start": 41.0567,
      "duration": 0.0159,
      "velocity": 100,
      "chip": "ym2612"
    },
    {
      "channel": 0,
      "note": 38,
      "start": 41.0691,
      "duration": 0.0161,
      "velocity": 115,
      "chip": "ym2612"
    },
    {
      "channel": 4,
      "note": 80,
      "start": 41.0703,
      "duration": 0.016,
      "velocity": 97,
      "chip": "ym2612"
    },
    {
      "channel": 3,
      "note": 80,
      "start": 41.0714,
      "duration": 0.016,
      "velocity": 97,
      "chip": "ym2612"
    },
    {
      "channel": 2,
      "note": 52,
      "start": 41.0726,
      "duration": 0.016,
      "velocity": 100,
      "chip": "ym2612"
    },
    {
      "channel": 0,
      "note": 38,
      "start": 41.0852,
      "duration": 0.0161,
      "velocity": 115,
      "chip": "ym2612"
    },
    {
      "channel": 4,
      "note": 80,
      "start": 41.0863,
      "duration": 0.0161,
      "velocity": 97,
      "chip": "ym2612"
    },
    {
      "channel": 3,
      "note": 80,
      "start": 41.0875,
      "duration": 0.0161,
      "velocity": 97,
      "chip": "ym2612"
    },
    {
      "channel": 2,
      "note": 52,
      "start": 41.0886,
      "duration": 0.0161,
      "velocity": 100,
      "chip": "ym2612"
    },
    {
      "channel": 0,
      "note": 39,
      "start": 41.1013,
      "duration": 0.0161,
      "velocity": 115,
      "chip": "ym2612"
    },
    {
      "channel": 4,
      "note": 80,
      "start": 41.1024,
      "duration": 0.0161,
      "velocity": 97,
      "chip": "ym2612"
    },
    {
      "channel": 3,
      "note": 80,
      "start": 41.1036,
      "duration": 0.0161,
      "velocity": 97,
      "chip": "ym2612"
    },
    {
      "channel": 2,
      "note": 52,
      "start": 41.1047,
      "duration": 0.0161,
      "velocity": 100,
      "chip": "ym2612"
    },
    {
      "channel": 0,
      "note": 39,
      "start": 41.1174,
      "duration": 0.0161,
      "velocity": 115,
      "chip": "ym2612"
    },
    {
      "channel": 4,
      "note": 80,
      "start": 41.1186,
      "duration": 0.0161,
      "velocity": 97,
      "chip": "ym2612"
    },
    {
      "channel": 3,
      "note": 80,
      "start": 41.1197,
      "duration": 0.0161,
      "velocity": 97,
      "chip": "ym2612"
    },
    {
      "channel": 2,
      "note": 52,
      "start": 41.1208,
      "duration": 0.0161,
      "velocity": 100,
      "chip": "ym2612"
    },
    {
      "channel": 0,
      "note": 40,
      "start": 41.1335,
      "duration": 0.0161,
      "velocity": 115,
      "chip": "ym2612"
    },
    {
      "channel": 4,
      "note": 80,
      "start": 41.1347,
      "duration": 0.0161,
      "velocity": 97,
      "chip": "ym2612"
    },
    {
      "channel": 3,
      "note": 80,
      "start": 41.1358,
      "duration": 0.0161,
      "velocity": 97,
      "chip": "ym2612"
    },
    {
      "channel": 2,
      "note": 52,
      "start": 41.1369,
      "duration": 0.0161,
      "velocity": 100,
      "chip": "ym2612"
    },
    {
      "channel": 0,
      "note": 40,
      "start": 41.1496,
      "duration": 0.0161,
      "velocity": 115,
      "chip": "ym2612"
    },
    {
      "channel": 4,
      "note": 80,
      "start": 41.1508,
      "duration": 0.0161,
      "velocity": 97,
      "chip": "ym2612"
    },
    {
      "channel": 3,
      "note": 80,
      "start": 41.1519,
      "duration": 0.0161,
      "velocity": 97,
      "chip": "ym2612"
    },
    {
      "channel": 2,
      "note": 52,
      "start": 41.153,
      "duration": 0.0161,
      "velocity": 100,
      "chip": "ym2612"
    },
    {
      "channel": 0,
      "note": 40,
      "start": 41.1657,
      "duration": 0.0163,
      "velocity": 115,
      "chip": "ym2612"
    },
    {
      "channel": 4,
      "note": 80,
      "start": 41.1668,
      "duration": 0.0163,
      "velocity": 97,
      "chip": "ym2612"
    },
    {
      "channel": 3,
      "note": 80,
      "start": 41.168,
      "duration": 0.0163,
      "velocity": 97,
      "chip": "ym2612"
    },
    {
      "channel": 2,
      "note": 52,
      "start": 41.1691,
      "duration": 0.0163,
      "velocity": 100,
      "chip": "ym2612"
    },
    {
      "channel": 0,
      "note": 41,
      "start": 41.1821,
      "duration": 0.0163,
      "velocity": 115,
      "chip": "ym2612"
    },
    {
      "channel": 4,
      "note": 80,
      "start": 41.1832,
      "duration": 0.0163,
      "velocity": 97,
      "chip": "ym2612"
    },
    {
      "channel": 3,
      "note": 80,
      "start": 41.1844,
      "duration": 0.0164,
      "velocity": 97,
      "chip": "ym2612"
    },
    {
      "channel": 2,
      "note": 52,
      "start": 41.1854,
      "duration": 0.0167,
      "velocity": 100,
      "chip": "ym2612"
    },
    {
      "channel": 0,
      "note": 41,
      "start": 41.1983,
      "duration": 0.0156,
      "velocity": 115,
      "chip": "ym2612"
    },
    {
      "channel": 4,
      "note": 80,
      "start": 41.1995,
      "duration": 0.0157,
      "velocity": 97,
      "chip": "ym2612"
    },
    {
      "channel": 3,
      "note": 80,
      "start": 41.2008,
      "duration": 0.0156,
      "velocity": 97,
      "chip": "ym2612"
    },
    {
      "channel": 2,
      "note": 52,
      "start": 41.2022,
      "duration": 0.0153,
      "velocity": 100,
      "chip": "ym2612"
    },
    {
      "channel": 0,
      "note": 42,
      "start": 41.214,
      "duration": 0.0181,
      "velocity": 115,
      "chip": "ym2612"
    },
    {
      "channel": 4,
      "note": 80,
      "start": 41.2151,
      "duration": 0.018,
      "velocity": 97,
      "chip": "ym2612"
    },
    {
      "channel": 3,
      "note": 80,
      "start": 41.2163,
      "duration": 0.018,
      "velocity": 97,
      "chip": "ym2612"
    },
    {
      "channel": 2,
      "note": 52,
      "start": 41.2175,
      "duration": 0.018,
      "velocity": 100,
      "chip": "ym2612"
    },
    {
      "channel": 0,
      "note": 42,
      "start": 41.2321,
      "duration": 0.0167,
      "velocity": 115,
      "chip": "ym2612"
    },
    {
      "channel": 4,
      "note": 80,
      "start": 41.2332,
      "duration": 0.0168,
      "velocity": 97,
      "chip": "ym2612"
    },
    {
      "channel": 3,
      "note": 80,
      "start": 41.2344,
      "duration": 0.0167,
      "velocity": 97,
      "chip": "ym2612"
    },
    {
      "channel": 2,
      "note": 52,
      "start": 41.2354,
      "duration": 0.0168,
      "velocity": 100,
      "chip": "ym2612"
    },
    {
      "channel": 0,
      "note": 43,
      "start": 41.2487,
      "duration": 0.016,
      "velocity": 115,
      "chip": "ym2612"
    },
    {
      "channel": 4,
      "note": 80,
      "start": 41.25,
      "duration": 0.0159,
      "velocity": 97,
      "chip": "ym2612"
    },
    {
      "channel": 3,
      "note": 80,
      "start": 41.2511,
      "duration": 0.016,
      "velocity": 97,
      "chip": "ym2612"
    },
    {
      "channel": 2,
      "note": 52,
      "start": 41.2522,
      "duration": 0.0159,
      "velocity": 100,
      "chip": "ym2612"
    },
    {
      "channel": 0,
      "note": 43,
      "start": 41.2647,
      "duration": 0.0141,
      "velocity": 115,
      "chip": "ym2612"
    },
    {
      "channel": 4,
      "note": 80,
      "start": 41.2659,
      "duration": 0.014,
      "velocity": 97,
      "chip": "ym2612"
    },
    {
      "channel": 3,
      "note": 80,
      "start": 41.2671,
      "duration": 0.0139,
      "velocity": 97,
      "chip": "ym2612"
    },
    {
      "channel": 2,
      "note": 52,
      "start": 41.2681,
      "duration": 0.014,
      "velocity": 100,
      "chip": "ym2612"
    },
    {
      "channel": 0,
      "note": 44,
      "start": 41.2788,
      "duration": 0.0185,
      "velocity": 115,
      "chip": "ym2612"
    },
    {
      "channel": 4,
      "note": 80,
      "start": 41.2799,
      "duration": 0.0185,
      "velocity": 97,
      "chip": "ym2612"
    },
    {
      "channel": 3,
      "note": 80,
      "start": 41.281,
      "duration": 0.0186,
      "velocity": 97,
      "chip": "ym2612"
    },
    {
      "channel": 2,
      "note": 52,
      "start": 41.2821,
      "duration": 0.0186,
      "velocity": 100,
      "chip": "ym2612"
    },
    {
      "channel": 0,
      "note": 44,
      "start": 41.2973,
      "duration": 0.0134,
      "velocity": 115,
      "chip": "ym2612"
    },
    {
      "channel": 4,
      "note": 80,
      "start": 41.2984,
      "duration": 0.0161,
      "velocity": 97,
      "chip": "ym2612"
    },
    {
      "channel": 3,
      "note": 80,
      "start": 41.2995,
      "duration": 0.0161,
      "velocity": 97,
      "chip": "ym2612"
    },
    {
      "channel": 2,
      "note": 52,
      "start": 41.3007,
      "duration": 0.016,
      "velocity": 100,
      "chip": "ym2612"
    },
    {
      "channel": 0,
      "note": 44,
      "start": 41.3106,
      "duration": 0.0161,
      "velocity": 115,
      "chip": "ym2612"
    },
    {
      "channel": 4,
      "note": 80,
      "start": 41.3145,
      "duration": 0.0157,
      "velocity": 97,
      "chip": "ym2612"
    },
    {
      "channel": 3,
      "note": 80,
      "start": 41.3156,
      "duration": 0.0157,
      "velocity": 97,
      "chip": "ym2612"
    },
    {
      "channel": 2,
      "note": 52,
      "start": 41.3167,
      "duration": 0.0158,
      "velocity": 100,
      "chip": "ym2612"
    },
    {
      "channel": 0,
      "note": 45,
      "start": 41.3267,
      "duration": 0.0161,
      "velocity": 115,
      "chip": "ym2612"
    },
    {
      "channel": 4,
      "note": 80,
      "start": 41.3302,
      "duration": 0.0137,
      "velocity": 97,
      "chip": "ym2612"
    },
    {
      "channel": 3,
      "note": 80,
      "start": 41.3314,
      "duration": 0.0141,
      "velocity": 97,
      "chip": "ym2612"
    },
    {
      "channel": 2,
      "note": 52,
      "start": 41.3325,
      "duration": 0.0141,
      "velocity": 100,
      "chip": "ym2612"
    },
    {
      "channel": 0,
      "note": 45,
      "start": 41.3428,
      "duration": 0.0161,
      "velocity": 115,
      "chip": "ym2612"
    },
    {
      "channel": 4,
      "note": 80,
      "start": 41.3439,
      "duration": 0.0161,
      "velocity": 97,
      "chip": "ym2612"
    },
    {
      "channel": 3,
      "note": 80,
      "start": 41.3454,
      "duration": 0.0185,
      "velocity": 97,
      "chip": "ym2612"
    },
    {
      "channel": 2,
      "note": 52,
      "start": 41.3466,
      "duration": 0.0185,
      "velocity": 100,
      "chip": "ym2612"
    },
    {
      "channel": 0,
      "note": 46,
      "start": 41.3589,
      "duration": 0.0161,
      "velocity": 115,
      "chip": "ym2612"
    },
    {
      "channel": 4,
      "note": 80,
      "start": 41.36,
      "duration": 0.0161,
      "velocity": 97,
      "chip": "ym2612"
    },
    {
      "channel": 3,
      "note": 80,
      "start": 41.3639,
      "duration": 0.0134,
      "velocity": 97,
      "chip": "ym2612"
    },
    {
      "channel": 2,
      "note": 52,
      "start": 41.3651,
      "duration": 0.0161,
      "velocity": 100,
      "chip": "ym2612"
    },
    {
      "channel": 0,
      "note": 46,
      "start": 41.375,
      "duration": 0.0179,
      "velocity": 124,
      "chip": "ym2612"
    },
    {
      "channel": 4,
      "note": 80,
      "start": 41.3761,
      "duration": 0.0203,
      "velocity": 97,
      "chip": "ym2612"
    },
    {
      "channel": 3,
      "note": 80,
      "start": 41.3773,
      "duration": 0.0205,
      "velocity": 97,
      "chip": "ym2612"
    },
    {
      "channel": 2,
      "note": 52,
      "start": 41.3812,
      "duration": 0.018,
      "velocity": 100,
      "chip": "ym2612"
    },
    {
      "channel": 0,
      "note": 84,
      "start": 41.3929,
      "duration": 0.0144,
      "velocity": 124,
      "chip": "ym2612"
    },
    {
      "channel": 4,
      "note": 80,
      "start": 41.3964,
      "duration": 0.012,
      "velocity": 97,
      "chip": "ym2612"
    },
    {
      "channel": 3,
      "note": 80,
      "start": 41.3978,
      "duration": 0.0118,
      "velocity": 97,
      "chip": "ym2612"
    },
    {
      "channel": 2,
      "note": 52,
      "start": 41.3993,
      "duration": 0.0118,
      "velocity": 100,
      "chip": "ym2612"
    },
    {
      "channel": 0,
      "note": 82,
      "start": 41.4073,
      "duration": 0.016,
      "velocity": 124,
      "chip": "ym2612"
    },
    {
      "channel": 4,
      "note": 80,
      "start": 41.4084,
      "duration": 0.016,
      "velocity": 97,
      "chip": "ym2612"
    },
    {
      "channel": 3,
      "note": 80,
      "start": 41.4096,
      "duration": 0.016,
      "velocity": 97,
      "chip": "ym2612"
    },
    {
      "channel": 2,
      "note": 52,
      "start": 41.4111,
      "duration": 0.0156,
      "velocity": 100,
      "chip": "ym2612"
    },
    {
      "channel": 0,
      "note": 80,
      "start": 41.4233,
      "duration": 0.0161,
      "velocity": 124,
      "chip": "ym2612"
    },
    {
      "channel": 4,
      "note": 80,
      "start": 41.4244,
      "duration": 0.0163,
      "velocity": 97,
      "chip": "ym2612"
    },
    {
      "channel": 3,
      "note": 80,
      "start": 41.4256,
      "duration": 0.0164,
      "velocity": 97,
      "chip": "ym2612"
    },
    {
      "channel": 2,
      "note": 52,
      "start": 41.4267,
      "duration": 0.0164,
      "velocity": 100,
      "chip": "ym2612"
    },
    {
      "channel": 0,
      "note": 77,
      "start": 41.4394,
      "duration": 0.0161,
      "velocity": 124,
      "chip": "ym2612"
    },
    {
      "channel": 4,
      "note": 80,
      "start": 41.4408,
      "duration": 0.0159,
      "velocity": 97,
      "chip": "ym2612"
    },
    {
      "channel": 3,
      "note": 80,
      "start": 41.442,
      "duration": 0.0159,
      "velocity": 97,
      "chip": "ym2612"
    },
    {
      "channel": 2,
      "note": 52,
      "start": 41.4431,
      "duration": 0.0159,
      "velocity": 100,
      "chip": "ym2612"
    },
    {
      "channel": 0,
      "note": 75,
      "start": 41.4555,
      "duration": 0.0161,
      "velocity": 124,
      "chip": "ym2612"
    },
    {
      "channel": 4,
      "note": 80,
      "start": 41.4567,
      "duration": 0.016,
      "velocity": 97,
      "chip": "ym2612"
    },
    {
      "channel": 3,
      "note": 80,
      "start": 41.4579,
      "duration": 0.016,
      "velocity": 97,
      "chip": "ym2612"
    },
    {
      "channel": 2,
      "note": 52,
      "start": 41.459,
      "duration": 0.016,
      "velocity": 100,
      "chip": "ym2612"
    },
    {
      "channel": 0,
      "note": 72,
      "start": 41.4716,
      "duration": 0.0161,
      "velocity": 124,
      "chip": "ym2612"
    },
    {
      "channel": 4,
      "note": 80,
      "start": 41.4728,
      "duration": 0.0161,
      "velocity": 97,
      "chip": "ym2612"
    },
    {
      "channel": 3,
      "note": 80,
      "start": 41.4739,
      "duration": 0.0161,
      "velocity": 97,
      "chip": "ym2612"
    },
    {
      "channel": 2,
      "note": 52,
      "start": 41.4751,
      "duration": 0.0161,
      "velocity": 100,
      "chip": "ym2612"
    },
    {
      "channel": 0,
      "note": 70,
      "start": 41.4877,
      "duration": 0.0161,
      "velocity": 124,
      "chip": "ym2612"
    },
    {
      "channel": 4,
      "note": 80,
      "start": 41.4889,
      "duration": 0.0161,
      "velocity": 97,
      "chip": "ym2612"
    },
    {
      "channel": 3,
      "note": 80,
      "start": 41.49,
      "duration": 0.0161,
      "velocity": 97,
      "chip": "ym2612"
    },
    {
      "channel": 2,
      "note": 52,
      "start": 41.4912,
      "duration": 0.0161,
      "velocity": 100,
      "chip": "ym2612"
    },
    {
      "channel": 0,
      "note": 68,
      "start": 41.5038,
      "duration": 0.0161,
      "velocity": 124,
      "chip": "ym2612"
    },
    {
      "channel": 4,
      "note": 80,
      "start": 41.505,
      "duration": 0.0161,
      "velocity": 97,
      "chip": "ym2612"
    },
    {
      "channel": 3,
      "note": 80,
      "start": 41.5061,
      "duration": 0.0161,
      "velocity": 97,
      "chip": "ym2612"
    },
    {
      "channel": 2,
      "note": 52,
      "start": 41.5073,
      "duration": 0.0161,
      "velocity": 100,
      "chip": "ym2612"
    },
    {
      "channel": 0,
      "note": 65,
      "start": 41.5199,
      "duration": 0.0161,
      "velocity": 124,
      "chip": "ym2612"
    },
    {
      "channel": 4,
      "note": 80,
      "start": 41.521,
      "duration": 0.0162,
      "velocity": 97,
      "chip": "ym2612"
    },
    {
      "channel": 3,
      "note": 80,
      "start": 41.5222,
      "duration": 0.0161,
      "velocity": 97,
      "chip": "ym2612"
    },
    {
      "channel": 2,
      "note": 52,
      "start": 41.5233,
      "duration": 0.0161,
      "velocity": 100,
      "chip": "ym2612"
    },
    {
      "channel": 0,
      "note": 63,
      "start": 41.536,
      "duration": 0.0153,
      "velocity": 1,
      "chip": "ym2612"
    },
    {
      "channel": 4,
      "note": 80,
      "start": 41.5372,
      "duration": 0.0153,
      "velocity": 97,
      "chip": "ym2612"
    },
    {
      "channel": 3,
      "note": 80,
      "start": 41.5383,
      "duration": 0.0153,
      "velocity": 97,
      "chip": "ym2612"
    },
    {
      "channel": 2,
      "note": 52,
      "start": 41.5394,
      "duration": 0.0153,
      "velocity": 100,
      "chip": "ym2612"
    },
    {
      "channel": 4,
      "note": 80,
      "start": 41.5525,
      "duration": 0.0153,
      "velocity": 97,
      "chip": "ym2612"
    },
    {
      "channel": 3,
      "note": 80,
      "start": 41.5536,
      "duration": 0.0153,
      "velocity": 97,
      "chip": "ym2612"
    },
    {
      "channel": 2,
      "note": 52,
      "start": 41.5547,
      "duration": 0.0153,
      "velocity": 100,
      "chip": "ym2612"
    },
    {
      "channel": 4,
      "note": 80,
      "start": 41.5678,
      "duration": 0.0161,
      "velocity": 97,
      "chip": "ym2612"
    },
    {
      "channel": 3,
      "note": 80,
      "start": 41.5689,
      "duration": 0.0163,
      "velocity": 97,
      "chip": "ym2612"
    },
    {
      "channel": 2,
      "note": 52,
      "start": 41.57,
      "duration": 0.0167,
      "velocity": 100,
      "chip": "ym2612"
    },
    {
      "channel": 4,
      "note": 80,
      "start": 41.5838,
      "duration": 0.0161,
      "velocity": 97,
      "chip": "ym2612"
    },
    {
      "channel": 3,
      "note": 78,
      "start": 41.5852,
      "duration": 0.0159,
      "velocity": 97,
      "chip": "ym2612"
    },
    {
      "channel": 2,
      "note": 52,
      "start": 41.5867,
      "duration": 0.0156,
      "velocity": 100,
      "chip": "ym2612"
    },
    {
      "channel": 4,
      "note": 80,
      "start": 41.5999,
      "duration": 0.0161,
      "velocity": 97,
      "chip": "ym2612"
    },
    {
      "channel": 3,
      "note": 78,
      "start": 41.6011,
      "duration": 0.016,
      "velocity": 97,
      "chip": "ym2612"
    },
    {
      "channel": 2,
      "note": 52,
      "start": 41.6023,
      "duration": 0.016,
      "velocity": 100,
      "chip": "ym2612"
    },
    {
      "channel": 4,
      "note": 80,
      "start": 41.616,
      "duration": 0.0163,
      "velocity": 97,
      "chip": "ym2612"
    },
    {
      "channel": 3,
      "note": 78,
      "start": 41.6172,
      "duration": 0.0163,
      "velocity": 97,
      "chip": "ym2612"
    },
    {
      "channel": 2,
      "note": 52,
      "start": 41.6183,
      "duration": 0.0163,
      "velocity": 100,
      "chip": "ym2612"
    },
    {
      "channel": 4,
      "note": 78,
      "start": 41.6324,
      "duration": 0.0159,
      "velocity": 97,
      "chip": "ym2612"
    },
    {
      "channel": 3,
      "note": 78,
      "start": 41.6335,
      "duration": 0.0159,
      "velocity": 97,
      "chip": "ym2612"
    },
    {
      "channel": 2,
      "note": 52,
      "start": 41.6347,
      "duration": 0.0159,
      "velocity": 100,
      "chip": "ym2612"
    },
    {
      "channel": 4,
      "note": 78,
      "start": 41.6483,
      "duration": 0.0162,
      "velocity": 97,
      "chip": "ym2612"
    },
    {
      "channel": 3,
      "note": 78,
      "start": 41.6494,
      "duration": 0.0162,
      "velocity": 97,
      "chip": "ym2612"
    },
    {
      "channel": 2,
      "note": 52,
      "start": 41.6506,
      "duration": 0.0162,
      "velocity": 100,
      "chip": "ym2612"
    },
    {
      "channel": 4,
      "note": 78,
      "start": 41.6645,
      "duration": 0.016,
      "velocity": 97,
      "chip": "ym2612"
    },
    {
      "channel": 3,
      "note": 78,
      "start": 41.6656,
      "duration": 0.0159,
      "velocity": 97,
      "chip": "ym2612"
    },
    {
      "channel": 2,
      "note": 52,
      "start": 41.6668,
      "duration": 0.0159,
      "velocity": 100,
      "chip": "ym2612"
    },
    {
      "channel": 4,
      "note": 78,
      "start": 41.6805,
      "duration": 0.0177,
      "velocity": 97,
      "chip": "ym2612"
    },
    {
      "channel": 3,
      "note": 78,
      "start": 41.6815,
      "duration": 0.0178,
      "velocity": 97,
      "chip": "ym2612"
    },
    {
      "channel": 2,
      "note": 52,
      "start": 41.6827,
      "duration": 0.0178,
      "velocity": 100,
      "chip": "ym2612"
    },
    {
      "channel": 4,
      "note": 78,
      "start": 41.6982,
      "duration": 0.0167,
      "velocity": 97,
      "chip": "ym2612"
    },
    {
      "channel": 3,
      "note": 78,
      "start": 41.6994,
      "duration": 0.0167,
      "velocity": 97,
      "chip": "ym2612"
    },
    {
      "channel": 2,
      "note": 52,
      "start": 41.7005,
      "duration": 0.0167,
      "velocity": 100,
      "chip": "ym2612"
    },
    {
      "channel": 4,
      "note": 78,
      "start": 41.7149,
      "duration": 0.0162,
      "velocity": 97,
      "chip": "ym2612"
    },
    {
      "channel": 3,
      "note": 78,
      "start": 41.716,
      "duration": 0.0162,
      "velocity": 97,
      "chip": "ym2612"
    },
    {
      "channel": 2,
      "note": 52,
      "start": 41.7171,
      "duration": 0.0163,
      "velocity": 100,
      "chip": "ym2612"
    },
    {
      "channel": 4,
      "note": 78,
      "start": 41.7311,
      "duration": 0.0141,
      "velocity": 97,
      "chip": "ym2612"
    },
    {
      "channel": 3,
      "note": 78,
      "start": 41.7322,
      "duration": 0.0141,
      "velocity": 97,
      "chip": "ym2612"
    },
    {
      "channel": 2,
      "note": 52,
      "start": 41.7334,
      "duration": 0.0141,
      "velocity": 100,
      "chip": "ym2612"
    },
    {
      "channel": 4,
      "note": 78,
      "start": 41.7452,
      "duration": 0.0185,
      "velocity": 97,
      "chip": "ym2612"
    },
    {
      "channel": 3,
      "note": 78,
      "start": 41.7463,
      "duration": 0.0185,
      "velocity": 97,
      "chip": "ym2612"
    },
    {
      "channel": 2,
      "note": 52,
      "start": 41.7475,
      "duration": 0.0185,
      "velocity": 100,
      "chip": "ym2612"
    },
    {
      "channel": 4,
      "note": 78,
      "start": 41.7637,
      "duration": 0.0196,
      "velocity": 97,
      "chip": "ym2612"
    },
    {
      "channel": 3,
      "note": 78,
      "start": 41.7648,
      "duration": 0.0197,
      "velocity": 97,
      "chip": "ym2612"
    },
    {
      "channel": 2,
      "note": 52,
      "start": 41.766,
      "duration": 0.02,
      "velocity": 100,
      "chip": "ym2612"
    },
    {
      "channel": 0,
      "note": 36,
      "start": 41.7821,
      "duration": 0.0116,
      "velocity": 115,
      "chip": "ym2612"
    },
    {
      "channel": 4,
      "note": 78,
      "start": 41.7833,
      "duration": 0.014,
      "velocity": 97,
      "chip": "ym2612"
    },
    {
      "channel": 3,
      "note": 78,
      "start": 41.7845,
      "duration": 0.0139,
      "velocity": 97,
      "chip": "ym2612"
    },
    {
      "channel": 2,
      "note": 52,
      "start": 41.7859,
      "duration": 0.0137,
      "velocity": 100,
      "chip": "ym2612"
    },
    {
      "channel": 0,
      "note": 36,
      "start": 41.7937,
      "duration": 0.016,
      "velocity": 115,
      "chip": "ym2612"
    },
    {
      "channel": 4,
      "note": 78,
      "start": 41.7973,
      "duration": 0.0139,
      "velocity": 97,
      "chip": "ym2612"
    },
    {
      "channel": 3,
      "note": 78,
      "start": 41.7984,
      "duration": 0.0139,
      "velocity": 97,
      "chip": "ym2612"
    },
    {
      "channel": 2,
      "note": 52,
      "start": 41.7996,
      "duration": 0.0139,
      "velocity": 100,
      "chip": "ym2612"
    },
    {
      "channel": 0,
      "note": 37,
      "start": 41.8097,
      "duration": 0.0161,
      "velocity": 115,
      "chip": "ym2612"
    },
    {
      "channel": 4,
      "note": 78,
      "start": 41.8112,
      "duration": 0.0159,
      "velocity": 97,
      "chip": "ym2612"
    },
    {
      "channel": 3,
      "note": 78,
      "start": 41.8123,
      "duration": 0.0186,
      "velocity": 97,
      "chip": "ym2612"
    },
    {
      "channel": 2,
      "note": 52,
      "start": 41.8135,
      "duration": 0.0186,
      "velocity": 100,
      "chip": "ym2612"
    },
    {
      "channel": 0,
      "note": 37,
      "start": 41.8258,
      "duration": 0.0161,
      "velocity": 115,
      "chip": "ym2612"
    },
    {
      "channel": 4,
      "note": 78,
      "start": 41.8271,
      "duration": 0.016,
      "velocity": 97,
      "chip": "ym2612"
    },
    {
      "channel": 3,
      "note": 78,
      "start": 41.831,
      "duration": 0.016,
      "velocity": 97,
      "chip": "ym2612"
    },
    {
      "channel": 2,
      "note": 52,
      "start": 41.8321,
      "duration": 0.016,
      "velocity": 100,
      "chip": "ym2612"
    },
    {
      "channel": 0,
      "note": 38,
      "start": 41.8419,
      "duration": 0.0161,
      "velocity": 115,
      "chip": "ym2612"
    },
    {
      "channel": 4,
      "note": 78,
      "start": 41.8431,
      "duration": 0.016,
      "velocity": 97,
      "chip": "ym2612"
    },
    {
      "channel": 3,
      "note": 78,
      "start": 41.847,
      "duration": 0.0133,
      "velocity": 97,
      "chip": "ym2612"
    },
    {
      "channel": 2,
      "note": 52,
      "start": 41.8482,
      "duration": 0.0157,
      "velocity": 100,
      "chip": "ym2612"
    },
    {
      "channel": 0,
      "note": 38,
      "start": 41.858,
      "duration": 0.0161,
      "velocity": 115,
      "chip": "ym2612"
    },
    {
      "channel": 4,
      "note": 78,
      "start": 41.8592,
      "duration": 0.0161,
      "velocity": 97,
      "chip": "ym2612"
    },
    {
      "channel": 3,
      "note": 78,
      "start": 41.8603,
      "duration": 0.0161,
      "velocity": 97,
      "chip": "ym2612"
    },
    {
      "channel": 2,
      "note": 52,
      "start": 41.8639,
      "duration": 0.014,
      "velocity": 100,
      "chip": "ym2612"
    },
    {
      "channel": 0,
      "note": 39,
      "start": 41.8741,
      "duration": 0.0162,
      "velocity": 115,
      "chip": "ym2612"
    },
    {
      "channel": 4,
      "note": 78,
      "start": 41.8753,
      "duration": 0.0161,
      "velocity": 97,
      "chip": "ym2612"
    },
    {
      "channel": 3,
      "note": 78,
      "start": 41.8764,
      "duration": 0.0161,
      "velocity": 97,
      "chip": "ym2612"
    },
    {
      "channel": 2,
      "note": 52,
      "start": 41.8779,
      "duration": 0.0158,
      "velocity": 100,
      "chip": "ym2612"
    },
    {
      "channel": 0,
      "note": 39,
      "start": 41.8903,
      "duration": 0.0161,
      "velocity": 115,
      "chip": "ym2612"
    },
    {
      "channel": 4,
      "note": 78,
      "start": 41.8914,
      "duration": 0.0161,
      "velocity": 97,
      "chip": "ym2612"
    },
    {
      "channel": 3,
      "note": 78,
      "start": 41.8925,
      "duration": 0.0161,
      "velocity": 97,
      "chip": "ym2612"
    },
    {
      "channel": 2,
      "note": 52,
      "start": 41.8936,
      "duration": 0.0161,
      "velocity": 100,
      "chip": "ym2612"
    },
    {
      "channel": 0,
      "note": 40,
      "start": 41.9063,
      "duration": 0.0161,
      "velocity": 115,
      "chip": "ym2612"
    },
    {
      "channel": 4,
      "note": 78,
      "start": 41.9075,
      "duration": 0.0161,
      "velocity": 97,
      "chip": "ym2612"
    },
    {
      "channel": 3,
      "note": 78,
      "start": 41.9086,
      "duration": 0.016,
      "velocity": 97,
      "chip": "ym2612"
    },
    {
      "channel": 2,
      "note": 52,
      "start": 41.9097,
      "duration": 0.0161,
      "velocity": 100,
      "chip": "ym2612"
    },
    {
      "channel": 0,
      "note": 40,
      "start": 41.9224,
      "duration": 0.0161,
      "velocity": 115,
      "chip": "ym2612"
    },
    {
      "channel": 4,
      "note": 78,
      "start": 41.9236,
      "duration": 0.0161,
      "velocity": 97,
      "chip": "ym2612"
    },
    {
      "channel": 3,
      "note": 78,
      "start": 41.9247,
      "duration": 0.0162,
      "velocity": 97,
      "chip": "ym2612"
    },
    {
      "channel": 2,
      "note": 52,
      "start": 41.9258,
      "duration": 0.0161,
      "velocity": 100,
      "chip": "ym2612"
    },
    {
      "channel": 0,
      "note": 40,
      "start": 41.9385,
      "duration": 0.0161,
      "velocity": 115,
      "chip": "ym2612"
    },
    {
      "channel": 4,
      "note": 78,
      "start": 41.9397,
      "duration": 0.0161,
      "velocity": 97,
      "chip": "ym2612"
    },
    {
      "channel": 3,
      "note": 78,
      "start": 41.9408,
      "duration": 0.0161,
      "velocity": 97,
      "chip": "ym2612"
    },
    {
      "channel": 2,
      "note": 52,
      "start": 41.942,
      "duration": 0.0161,
      "velocity": 100,
      "chip": "ym2612"
    },
    {
      "channel": 0,
      "note": 41,
      "start": 41.9546,
      "duration": 0.0161,
      "velocity": 115,
      "chip": "ym2612"
    },
    {
      "channel": 4,
      "note": 78,
      "start": 41.9558,
      "duration": 0.0161,
      "velocity": 97,
      "chip": "ym2612"
    },
    {
      "channel": 3,
      "note": 78,
      "start": 41.9569,
      "duration": 0.0162,
      "velocity": 97,
      "chip": "ym2612"
    },
    {
      "channel": 2,
      "note": 52,
      "start": 41.9581,
      "duration": 0.0165,
      "velocity": 100,
      "chip": "ym2612"
    },
    {
      "channel": 0,
      "note": 41,
      "start": 41.9707,
      "duration": 0.0161,
      "velocity": 115,
      "chip": "ym2612"
    },
    {
      "channel": 4,
      "note": 78,
      "start": 41.9719,
      "duration": 0.0161,
      "velocity": 97,
      "chip": "ym2612"
    },
    {
      "channel": 3,
      "note": 78,
      "start": 41.9732,
      "duration": 0.016,
      "velocity": 97,
      "chip": "ym2612"
    },
    {
      "channel": 2,
      "note": 52,
      "start": 41.9746,
      "duration": 0.0157,
      "velocity": 100,
      "chip": "ym2612"
    },
    {
      "channel": 0,
      "note": 42,
      "start": 41.9868,
      "duration": 0.0161,
      "velocity": 115,
      "chip": "ym2612"
    },
    {
      "channel": 4,
      "note": 78,
      "start": 41.988,
      "duration": 0.0161,
      "velocity": 97,
      "chip": "ym2612"
    },
    {
      "channel": 3,
      "note": 78,
      "start": 41.9892,
      "duration": 0.016,
      "velocity": 97,
      "chip": "ym2612"
    },
    {
      "channel": 2,
      "note": 52,
      "start": 41.9903,
      "duration": 0.016,
      "velocity": 100,
      "chip": "ym2612"
    },
    {
      "channel": 0,
      "note": 42,
      "start": 42.0029,
      "duration": 0.0161,
      "velocity": 115,
      "chip": "ym2612"
    },
    {
      "channel": 4,
      "note": 78,
      "start": 42.0041,
      "duration": 0.0163,
      "velocity": 97,
      "chip": "ym2612"
    },
    {
      "channel": 3,
      "note": 78,
      "start": 42.0052,
      "duration": 0.0162,
      "velocity": 97,
      "chip": "ym2612"
    },
    {
      "channel": 2,
      "note": 52,
      "start": 42.0063,
      "duration": 0.0162,
      "velocity": 100,
      "chip": "ym2612"
    },
    {
      "channel": 0,
      "note": 43,
      "start": 42.019,
      "duration": 0.0161,
      "velocity": 115,
      "chip": "ym2612"
    },
    {
      "channel": 4,
      "note": 78,
      "start": 42.0204,
      "duration": 0.016,
      "velocity": 97,
      "chip": "ym2612"
    },
    {
      "channel": 3,
      "note": 78,
      "start": 42.0214,
      "duration": 0.016,
      "velocity": 97,
      "chip": "ym2612"
    },
    {
      "channel": 2,
      "note": 52,
      "start": 42.0226,
      "duration": 0.016,
      "velocity": 100,
      "chip": "ym2612"
    },
    {
      "channel": 0,
      "note": 43,
      "start": 42.0352,
      "duration": 0.0161,
      "velocity": 115,
      "chip": "ym2612"
    },
    {
      "channel": 4,
      "note": 78,
      "start": 42.0364,
      "duration": 0.016,
      "velocity": 97,
      "chip": "ym2612"
    },
    {
      "channel": 3,
      "note": 78,
      "start": 42.0375,
      "duration": 0.016,
      "velocity": 97,
      "chip": "ym2612"
    },
    {
      "channel": 2,
      "note": 52,
      "start": 42.0386,
      "duration": 0.016,
      "velocity": 100,
      "chip": "ym2612"
    },
    {
      "channel": 0,
      "note": 44,
      "start": 42.0513,
      "duration": 0.0161,
      "velocity": 115,
      "chip": "ym2612"
    },
    {
      "channel": 4,
      "note": 78,
      "start": 42.0524,
      "duration": 0.0161,
      "velocity": 97,
      "chip": "ym2612"
    },
    {
      "channel": 3,
      "note": 78,
      "start": 42.0535,
      "duration": 0.0162,
      "velocity": 97,
      "chip": "ym2612"
    },
    {
      "channel": 2,
      "note": 52,
      "start": 42.0546,
      "duration": 0.0161,
      "velocity": 100,
      "chip": "ym2612"
    },
    {
      "channel": 0,
      "note": 44,
      "start": 42.0674,
      "duration": 0.0161,
      "velocity": 115,
      "chip": "ym2612"
    },
    {
      "channel": 4,
      "note": 78,
      "start": 42.0685,
      "duration": 0.0161,
      "velocity": 97,
      "chip": "ym2612"
    },
    {
      "channel": 3,
      "note": 78,
      "start": 42.0697,
      "duration": 0.0161,
      "velocity": 97,
      "chip": "ym2612"
    },
    {
      "channel": 2,
      "note": 52,
      "start": 42.0707,
      "duration": 0.0162,
      "velocity": 100,
      "chip": "ym2612"
    },
    {
      "channel": 0,
      "note": 44,
      "start": 42.0835,
      "duration": 0.0161,
      "velocity": 115,
      "chip": "ym2612"
    },
    {
      "channel": 4,
      "note": 78,
      "start": 42.0846,
      "duration": 0.0161,
      "velocity": 97,
      "chip": "ym2612"
    },
    {
      "channel": 3,
      "note": 78,
      "start": 42.0858,
      "duration": 0.0161,
      "velocity": 97,
      "chip": "ym2612"
    },
    {
      "channel": 2,
      "note": 52,
      "start": 42.0869,
      "duration": 0.0161,
      "velocity": 100,
      "chip": "ym2612"
    },
    {
      "channel": 0,
      "note": 45,
      "start": 42.0995,
      "duration": 0.0161,
      "velocity": 115,
      "chip": "ym2612"
    },
    {
      "channel": 4,
      "note": 78,
      "start": 42.1007,
      "duration": 0.0161,
      "velocity": 97,
      "chip": "ym2612"
    },
    {
      "channel": 3,
      "note": 78,
      "start": 42.1018,
      "duration": 0.0161,
      "velocity": 97,
      "chip": "ym2612"
    },
    {
      "channel": 2,
      "note": 52,
      "start": 42.103,
      "duration": 0.0161,
      "velocity": 100,
      "chip": "ym2612"
    },
    {
      "channel": 0,
      "note": 45,
      "start": 42.1156,
      "duration": 0.0162,
      "velocity": 115,
      "chip": "ym2612"
    },
    {
      "channel": 4,
      "note": 78,
      "start": 42.1168,
      "duration": 0.0161,
      "velocity": 97,
      "chip": "ym2612"
    },
    {
      "channel": 3,
      "note": 78,
      "start": 42.1179,
      "duration": 0.0161,
      "velocity": 97,
      "chip": "ym2612"
    },
    {
      "channel": 2,
      "note": 52,
      "start": 42.1191,
      "duration": 0.0161,
      "velocity": 100,
      "chip": "ym2612"
    },
    {
      "channel": 0,
      "note": 46,
      "start": 42.1318,
      "duration": 0.016,
      "velocity": 115,
      "chip": "ym2612"
    },
    {
      "channel": 4,
      "note": 78,
      "start": 42.1329,
      "duration": 0.016,
      "velocity": 97,
      "chip": "ym2612"
    },
    {
      "channel": 3,
      "note": 78,
      "start": 42.134,
      "duration": 0.0161,
      "velocity": 97,
      "chip": "ym2612"
    },
    {
      "channel": 2,
      "note": 52,
      "start": 42.1352,
      "duration": 0.0161,
      "velocity": 100,
      "chip": "ym2612"
    },
    {
      "channel": 0,
      "note": 46,
      "start": 42.1478,
      "duration": 0.0193,
      "velocity": 124,
      "chip": "ym2612"
    },
    {
      "channel": 4,
      "note": 78,
      "start": 42.149,
      "duration": 0.0193,
      "velocity": 97,
      "chip": "ym2612"
    },
    {
      "channel": 3,
      "note": 78,
      "start": 42.1501,
      "duration": 0.0195,
      "velocity": 97,
      "chip": "ym2612"
    },
    {
      "channel": 2,
      "note": 52,
      "start": 42.1513,
      "duration": 0.0198,
      "velocity": 100,
      "chip": "ym2612"
    },
    {
      "channel": 0,
      "note": 84,
      "start": 42.1672,
      "duration": 0.015,
      "velocity": 124,
      "chip": "ym2612"
    },
    {
      "channel": 4,
      "note": 78,
      "start": 42.1683,
      "duration": 0.0149,
      "velocity": 97,
      "chip": "ym2612"
    },
    {
      "channel": 3,
      "note": 78,
      "start": 42.1697,
      "duration": 0.0147,
      "velocity": 97,
      "chip": "ym2612"
    },
    {
      "channel": 2,
      "note": 52,
      "start": 42.1712,
      "duration": 0.0144,
      "velocity": 100,
      "chip": "ym2612"
    },
    {
      "channel": 0,
      "note": 82,
      "start": 42.1821,
      "duration": 0.0162,
      "velocity": 124,
      "chip": "ym2612"
    },
    {
      "channel": 4,
      "note": 78,
      "start": 42.1833,
      "duration": 0.0162,
      "velocity": 97,
      "chip": "ym2612"
    },
    {
      "channel": 3,
      "note": 78,
      "start": 42.1844,
      "duration": 0.0162,
      "velocity": 97,
      "chip": "ym2612"
    },
    {
      "channel": 2,
      "note": 52,
      "start": 42.1856,
      "duration": 0.0161,
      "velocity": 100,
      "chip": "ym2612"
    },
    {
      "channel": 0,
      "note": 80,
      "start": 42.1983,
      "duration": 0.0142,
      "velocity": 124,
      "chip": "ym2612"
    },
    {
      "channel": 4,
      "note": 78,
      "start": 42.1995,
      "duration": 0.0145,
      "velocity": 97,
      "chip": "ym2612"
    },
    {
      "channel": 3,
      "note": 78,
      "start": 42.2006,
      "duration": 0.0145,
      "velocity": 97,
      "chip": "ym2612"
    },
    {
      "channel": 2,
      "note": 52,
      "start": 42.2018,
      "duration": 0.0145,
      "velocity": 100,
      "chip": "ym2612"
    },
    {
      "channel": 0,
      "note": 77,
      "start": 42.2126,
      "duration": 0.0185,
      "velocity": 124,
      "chip": "ym2612"
    },
    {
      "channel": 4,
      "note": 78,
      "start": 42.214,
      "duration": 0.0183,
      "velocity": 97,
      "chip": "ym2612"
    },
    {
      "channel": 3,
      "note": 78,
      "start": 42.2151,
      "duration": 0.0183,
      "velocity": 97,
      "chip": "ym2612"
    },
    {
      "channel": 2,
      "note": 52,
      "start": 42.2163,
      "duration": 0.0183,
      "velocity": 100,
      "chip": "ym2612"
    },
    {
      "channel": 0,
      "note": 75,
      "start": 42.2311,
      "duration": 0.0161,
      "velocity": 124,
      "chip": "ym2612"
    },
    {
      "channel": 4,
      "note": 78,
      "start": 42.2323,
      "duration": 0.0161,
      "velocity": 97,
      "chip": "ym2612"
    },
    {
      "channel": 3,
      "note": 78,
      "start": 42.2335,
      "duration": 0.016,
      "velocity": 97,
      "chip": "ym2612"
    },
    {
      "channel": 2,
      "note": 52,
      "start": 42.2346,
      "duration": 0.016,
      "velocity": 100,
      "chip": "ym2612"
    },
    {
      "channel": 0,
      "note": 72,
      "start": 42.2472,
      "duration": 0.0134,
      "velocity": 124,
      "chip": "ym2612"
    },
    {
      "channel": 4,
      "note": 78,
      "start": 42.2484,
      "duration": 0.0157,
      "velocity": 97,
      "chip": "ym2612"
    },
    {
      "channel": 3,
      "note": 78,
      "start": 42.2495,
      "duration": 0.0158,
      "velocity": 97,
      "chip": "ym2612"
    },
    {
      "channel": 2,
      "note": 52,
      "start": 42.2506,
      "duration": 0.0157,
      "velocity": 100,
      "chip": "ym2612"
    },
    {
      "channel": 0,
      "note": 70,
      "start": 42.2606,
      "duration": 0.0161,
      "velocity": 124,
      "chip": "ym2612"
    },
    {
      "channel": 4,
      "note": 78,
      "start": 42.2641,
      "duration": 0.0141,
      "velocity": 97,
      "chip": "ym2612"
    },
    {
      "channel": 3,
      "note": 78,
      "start": 42.2653,
      "duration": 0.0141,
      "velocity": 97,
      "chip": "ym2612"
    },
    {
      "channel": 2,
      "note": 52,
      "start": 42.2663,
      "duration": 0.0141,
      "velocity": 100,
      "chip": "ym2612"
    },
    {
      "channel": 0,
      "note": 68,
      "start": 42.2766,
      "duration": 0.0161,
      "velocity": 124,
      "chip": "ym2612"
    },
    {
      "channel": 4,
      "note": 78,
      "start": 42.2782,
      "duration": 0.0158,
      "velocity": 97,
      "chip": "ym2612"
    },
    {
      "channel": 3,
      "note": 78,
      "start": 42.2793,
      "duration": 0.0185,
      "velocity": 97,
      "chip": "ym2612"
    },
    {
      "channel": 2,
      "note": 52,
      "start": 42.2804,
      "duration": 0.0185,
      "velocity": 100,
      "chip": "ym2612"
    },
    {
      "channel": 0,
      "note": 65,
      "start": 42.2927,
      "duration": 0.0161,
      "velocity": 124,
      "chip": "ym2612"
    },
    {
      "channel": 4,
      "note": 78,
      "start": 42.2939,
      "duration": 0.0161,
      "velocity": 97,
      "chip": "ym2612"
    },
    {
      "channel": 3,
      "note": 78,
      "start": 42.2978,
      "duration": 0.0161,
      "velocity": 97,
      "chip": "ym2612"
    },
    {
      "channel": 2,
      "note": 52,
      "start": 42.2989,
      "duration": 0.0161,
      "velocity": 100,
      "chip": "ym2612"
    },
    {
      "channel": 0,
      "note": 63,
      "start": 42.3088,
      "duration": 0.0153,
      "velocity": 1,
      "chip": "ym2612"
    },
    {
      "channel": 4,
      "note": 78,
      "start": 42.31,
      "duration": 0.0153,
      "velocity": 97,
      "chip": "ym2612"
    },
    {
      "channel": 3,
      "note": 78,
      "start": 42.3139,
      "duration": 0.0125,
      "velocity": 97,
      "chip": "ym2612"
    },
    {
      "channel": 2,
      "note": 52,
      "start": 42.315,
      "duration": 0.0149,
      "velocity": 100,
      "chip": "ym2612"
    },
    {
      "channel": 4,
      "note": 78,
      "start": 42.3253,
      "duration": 0.0153,
      "velocity": 97,
      "chip": "ym2612"
    },
    {
      "channel": 3,
      "note": 78,
      "start": 42.3265,
      "duration": 0.0153,
      "velocity": 97,
      "chip": "ym2612"
    },
    {
      "channel": 2,
      "note": 52,
      "start": 42.33,
      "duration": 0.0129,
      "velocity": 100,
      "chip": "ym2612"
    },
    {
      "channel": 4,
      "note": 78,
      "start": 42.3406,
      "duration": 0.0195,
      "velocity": 97,
      "chip": "ym2612"
    },
    {
      "channel": 3,
      "note": 78,
      "start": 42.3417,
      "duration": 0.0224,
      "velocity": 97,
      "chip": "ym2612"
    },
    {
      "channel": 2,
      "note": 52,
      "start": 42.3429,
      "duration": 0.0226,
      "velocity": 100,
      "chip": "ym2612"
    },
    {
      "channel": 0,
      "note": 36,
      "start": 42.359,
      "duration": 0.0144,
      "velocity": 115,
      "chip": "ym2612"
    },
    {
      "channel": 4,
      "note": 78,
      "start": 42.3601,
      "duration": 0.0144,
      "velocity": 97,
      "chip": "ym2612"
    },
    {
      "channel": 3,
      "note": 78,
      "start": 42.3641,
      "duration": 0.0116,
      "velocity": 97,
      "chip": "ym2612"
    },
    {
      "channel": 2,
      "note": 52,
      "start": 42.3656,
      "duration": 0.0113,
      "velocity": 100,
      "chip": "ym2612"
    },
    {
      "channel": 0,
      "note": 36,
      "start": 42.3733,
      "duration": 0.016,
      "velocity": 115,
      "chip": "ym2612"
    },
    {
      "channel": 4,
      "note": 78,
      "start": 42.3745,
      "duration": 0.016,
      "velocity": 97,
      "chip": "ym2612"
    },
    {
      "channel": 3,
      "note": 78,
      "start": 42.3757,
      "duration": 0.016,
      "velocity": 97,
      "chip": "ym2612"
    },
    {
      "channel": 2,
      "note": 52,
      "start": 42.3768,
      "duration": 0.016,
      "velocity": 100,
      "chip": "ym2612"
    },
    {
      "channel": 0,
      "note": 37,
      "start": 42.3894,
      "duration": 0.0161,
      "velocity": 115,
      "chip": "ym2612"
    },
    {
      "channel": 4,
      "note": 78,
      "start": 42.3905,
      "duration": 0.0162,
      "velocity": 97,
      "chip": "ym2612"
    },
    {
      "channel": 3,
      "note": 78,
      "start": 42.3917,
      "duration": 0.0162,
      "velocity": 97,
      "chip": "ym2612"
    },
    {
      "channel": 2,
      "note": 52,
      "start": 42.3928,
      "duration": 0.0162,
      "velocity": 100,
      "chip": "ym2612"
    },
    {
      "channel": 0,
      "note": 37,
      "start": 42.4055,
      "duration": 0.0161,
      "velocity": 115,
      "chip": "ym2612"
    },
    {
      "channel": 4,
      "note": 78,
      "start": 42.4067,
      "duration": 0.016,
      "velocity": 97,
      "chip": "ym2612"
    },
    {
      "channel": 3,
      "note": 78,
      "start": 42.4079,
      "duration": 0.016,
      "velocity": 97,
      "chip": "ym2612"
    },
    {
      "channel": 2,
      "note": 52,
      "start": 42.409,
      "duration": 0.016,
      "velocity": 100,
      "chip": "ym2612"
    },
    {
      "channel": 0,
      "note": 38,
      "start": 42.4216,
      "duration": 0.0161,
      "velocity": 115,
      "chip": "ym2612"
    },
    {
      "channel": 4,
      "note": 78,
      "start": 42.4228,
      "duration": 0.016,
      "velocity": 97,
      "chip": "ym2612"
    },
    {
      "channel": 3,
      "note": 78,
      "start": 42.4239,
      "duration": 0.016,
      "velocity": 97,
      "chip": "ym2612"
    },
    {
      "channel": 2,
      "note": 52,
      "start": 42.4251,
      "duration": 0.016,
      "velocity": 100,
      "chip": "ym2612"
    },
    {
      "channel": 0,
      "note": 38,
      "start": 42.4377,
      "duration": 0.0161,
      "velocity": 115,
      "chip": "ym2612"
    },
    {
      "channel": 4,
      "note": 78,
      "start": 42.4388,
      "duration": 0.0161,
      "velocity": 97,
      "chip": "ym2612"
    },
    {
      "channel": 3,
      "note": 78,
      "start": 42.44,
      "duration": 0.0161,
      "velocity": 97,
      "chip": "ym2612"
    },
    {
      "channel": 2,
      "note": 52,
      "start": 42.4411,
      "duration": 0.0161,
      "velocity": 100,
      "chip": "ym2612"
    },
    {
      "channel": 0,
      "note": 39,
      "start": 42.4537,
      "duration": 0.0161,
      "velocity": 115,
      "chip": "ym2612"
    },
    {
      "channel": 4,
      "note": 78,
      "start": 42.4549,
      "duration": 0.0161,
      "velocity": 97,
      "chip": "ym2612"
    },
    {
      "channel": 3,
      "note": 78,
      "start": 42.456,
      "duration": 0.0161,
      "velocity": 97,
      "chip": "ym2612"
    },
    {
      "channel": 2,
      "note": 52,
      "start": 42.4572,
      "duration": 0.0161,
      "velocity": 100,
      "chip": "ym2612"
    },
    {
      "channel": 0,
      "note": 39,
      "start": 42.4698,
      "duration": 0.0162,
      "velocity": 115,
      "chip": "ym2612"
    },
    {
      "channel": 4,
      "note": 78,
      "start": 42.471,
      "duration": 0.0161,
      "velocity": 97,
      "chip": "ym2612"
    },
    {
      "channel": 3,
      "note": 78,
      "start": 42.4721,
      "duration": 0.0161,
      "velocity": 97,
      "chip": "ym2612"
    },
    {
      "channel": 2,
      "note": 52,
      "start": 42.4733,
      "duration": 0.0161,
      "velocity": 100,
      "chip": "ym2612"
    },
    {
      "channel": 0,
      "note": 40,
      "start": 42.486,
      "duration": 0.0161,
      "velocity": 115,
      "chip": "ym2612"
    },
    {
      "channel": 4,
      "note": 78,
      "start": 42.4871,
      "duration": 0.0161,
      "velocity": 97,
      "chip": "ym2612"
    },
    {
      "channel": 3,
      "note": 78,
      "start": 42.4882,
      "duration": 0.0161,
      "velocity": 97,
      "chip": "ym2612"
    },
    {
      "channel": 2,
      "note": 52,
      "start": 42.4894,
      "duration": 0.0161,
      "velocity": 100,
      "chip": "ym2612"
    },
    {
      "channel": 0,
      "note": 40,
      "start": 42.5021,
      "duration": 0.0161,
      "velocity": 115,
      "chip": "ym2612"
    },
    {
      "channel": 4,
      "note": 78,
      "start": 42.5032,
      "duration": 0.0161,
      "velocity": 97,
      "chip": "ym2612"
    },
    {
      "channel": 3,
      "note": 78,
      "start": 42.5043,
      "duration": 0.0161,
      "velocity": 97,
      "chip": "ym2612"
    },
    {
      "channel": 2,
      "note": 52,
      "start": 42.5055,
      "duration": 0.0161,
      "velocity": 100,
      "chip": "ym2612"
    },
    {
      "channel": 0,
      "note": 40,
      "start": 42.5182,
      "duration": 0.0161,
      "velocity": 115,
      "chip": "ym2612"
    },
    {
      "channel": 4,
      "note": 78,
      "start": 42.5193,
      "duration": 0.0161,
      "velocity": 97,
      "chip": "ym2612"
    },
    {
      "channel": 3,
      "note": 78,
      "start": 42.5205,
      "duration": 0.0161,
      "velocity": 97,
      "chip": "ym2612"
    },
    {
      "channel": 2,
      "note": 52,
      "start": 42.5216,
      "duration": 0.0161,
      "velocity": 100,
      "chip": "ym2612"
    },
    {
      "channel": 0,
      "note": 41,
      "start": 42.5343,
      "duration": 0.0179,
      "velocity": 115,
      "chip": "ym2612"
    },
    {
      "channel": 4,
      "note": 78,
      "start": 42.5354,
      "duration": 0.0179,
      "velocity": 97,
      "chip": "ym2612"
    },
    {
      "channel": 3,
      "note": 78,
      "start": 42.5366,
      "duration": 0.0181,
      "velocity": 97,
      "chip": "ym2612"
    },
    {
      "channel": 2,
      "note": 52,
      "start": 42.5377,
      "duration": 0.0185,
      "velocity": 100,
      "chip": "ym2612"
    },
    {
      "channel": 0,
      "note": 36,
      "start": 42.5522,
      "duration": 0.0144,
      "velocity": 115,
      "chip": "ym2612"
    },
    {
      "channel": 4,
      "note": 78,
      "start": 42.5533,
      "duration": 0.0144,
      "velocity": 97,
      "chip": "ym2612"
    },
    {
      "channel": 3,
      "note": 78,
      "start": 42.5547,
      "duration": 0.0142,
      "velocity": 97,
      "chip": "ym2612"
    },
    {
      "channel": 2,
      "note": 52,
      "start": 42.5562,
      "duration": 0.0139,
      "velocity": 100,
      "chip": "ym2612"
    },
    {
      "channel": 0,
      "note": 36,
      "start": 42.5665,
      "duration": 0.016,
      "velocity": 115,
      "chip": "ym2612"
    },
    {
      "channel": 4,
      "note": 78,
      "start": 42.5677,
      "duration": 0.016,
      "velocity": 97,
      "chip": "ym2612"
    },
    {
      "channel": 3,
      "note": 78,
      "start": 42.5689,
      "duration": 0.016,
      "velocity": 97,
      "chip": "ym2612"
    },
    {
      "channel": 2,
      "note": 52,
      "start": 42.5701,
      "duration": 0.0159,
      "velocity": 100,
      "chip": "ym2612"
    },
    {
      "channel": 0,
      "note": 37,
      "start": 42.5826,
      "duration": 0.0161,
      "velocity": 115,
      "chip": "ym2612"
    },
    {
      "channel": 4,
      "note": 78,
      "start": 42.5837,
      "duration": 0.0163,
      "velocity": 97,
      "chip": "ym2612"
    },
    {
      "channel": 3,
      "note": 78,
      "start": 42.5849,
      "duration": 0.0164,
      "velocity": 97,
      "chip": "ym2612"
    },
    {
      "channel": 2,
      "note": 52,
      "start": 42.586,
      "duration": 0.0163,
      "velocity": 100,
      "chip": "ym2612"
    },
    {
      "channel": 0,
      "note": 37,
      "start": 42.5987,
      "duration": 0.0162,
      "velocity": 115,
      "chip": "ym2612"
    },
    {
      "channel": 4,
      "note": 78,
      "start": 42.6001,
      "duration": 0.0159,
      "velocity": 97,
      "chip": "ym2612"
    },
    {
      "channel": 3,
      "note": 78,
      "start": 42.6013,
      "duration": 0.0159,
      "velocity": 97,
      "chip": "ym2612"
    },
    {
      "channel": 2,
      "note": 52,
      "start": 42.6024,
      "duration": 0.0159,
      "velocity": 100,
      "chip": "ym2612"
    },
    {
      "channel": 0,
      "note": 38,
      "start": 42.6148,
      "duration": 0.0172,
      "velocity": 115,
      "chip": "ym2612"
    },
    {
      "channel": 4,
      "note": 78,
      "start": 42.616,
      "duration": 0.0172,
      "velocity": 97,
      "chip": "ym2612"
    },
    {
      "channel": 3,
      "note": 78,
      "start": 42.6172,
      "duration": 0.0172,
      "velocity": 97,
      "chip": "ym2612"
    },
    {
      "channel": 2,
      "note": 52,
      "start": 42.6183,
      "duration": 0.0172,
      "velocity": 100,
      "chip": "ym2612"
    },
    {
      "channel": 0,
      "note": 38,
      "start": 42.6321,
      "duration": 0.0167,
      "velocity": 115,
      "chip": "ym2612"
    },
    {
      "channel": 4,
      "note": 78,
      "start": 42.6332,
      "duration": 0.0167,
      "velocity": 97,
      "chip": "ym2612"
    },
    {
      "channel": 3,
      "note": 78,
      "start": 42.6344,
      "duration": 0.0167,
      "velocity": 97,
      "chip": "ym2612"
    },
    {
      "channel": 2,
      "note": 52,
      "start": 42.6354,
      "duration": 0.0167,
      "velocity": 100,
      "chip": "ym2612"
    },
    {
      "channel": 0,
      "note": 39,
      "start": 42.6487,
      "duration": 0.0163,
      "velocity": 115,
      "chip": "ym2612"
    },
    {
      "channel": 4,
      "note": 78,
      "start": 42.6499,
      "duration": 0.0163,
      "velocity": 97,
      "chip": "ym2612"
    },
    {
      "channel": 3,
      "note": 78,
      "start": 42.651,
      "duration": 0.0163,
      "velocity": 97,
      "chip": "ym2612"
    },
    {
      "channel": 2,
      "note": 52,
      "start": 42.6521,
      "duration": 0.0163,
      "velocity": 100,
      "chip": "ym2612"
    },
    {
      "channel": 0,
      "note": 39,
      "start": 42.665,
      "duration": 0.0145,
      "velocity": 115,
      "chip": "ym2612"
    },
    {
      "channel": 4,
      "note": 78,
      "start": 42.6661,
      "duration": 0.0145,
      "velocity": 97,
      "chip": "ym2612"
    },
    {
      "channel": 3,
      "note": 78,
      "start": 42.6673,
      "duration": 0.0145,
      "velocity": 97,
      "chip": "ym2612"
    },
    {
      "channel": 2,
      "note": 52,
      "start": 42.6684,
      "duration": 0.0145,
      "velocity": 100,
      "chip": "ym2612"
    },
    {
      "channel": 0,
      "note": 40,
      "start": 42.6795,
      "duration": 0.0185,
      "velocity": 115,
      "chip": "ym2612"
    },
    {
      "channel": 4,
      "note": 78,
      "start": 42.6807,
      "duration": 0.0186,
      "velocity": 97,
      "chip": "ym2612"
    },
    {
      "channel": 3,
      "note": 78,
      "start": 42.6818,
      "duration": 0.0185,
      "velocity": 97,
      "chip": "ym2612"
    },
    {
      "channel": 2,
      "note": 52,
      "start": 42.6829,
      "duration": 0.0185,
      "velocity": 100,
      "chip": "ym2612"
    },
    {
      "channel": 0,
      "note": 40,
      "start": 42.698,
      "duration": 0.0161,
      "velocity": 115,
      "chip": "ym2612"
    },
    {
      "channel": 4,
      "note": 78,
      "start": 42.6992,
      "duration": 0.0161,
      "velocity": 97,
      "chip": "ym2612"
    },
    {
      "channel": 3,
      "note": 78,
      "start": 42.7003,
      "duration": 0.0161,
      "velocity": 97,
      "chip": "ym2612"
    },
    {
      "channel": 2,
      "note": 52,
      "start": 42.7015,
      "duration": 0.0161,
      "velocity": 100,
      "chip": "ym2612"
    },
    {
      "channel": 0,
      "note": 40,
      "start": 42.7141,
      "duration": 0.0157,
      "velocity": 115,
      "chip": "ym2612"
    },
    {
      "channel": 4,
      "note": 78,
      "start": 42.7153,
      "duration": 0.0157,
      "velocity": 97,
      "chip": "ym2612"
    },
    {
      "channel": 3,
      "note": 78,
      "start": 42.7164,
      "duration": 0.0158,
      "velocity": 97,
      "chip": "ym2612"
    },
    {
      "channel": 2,
      "note": 52,
      "start": 42.7176,
      "duration": 0.0157,
      "velocity": 100,
      "chip": "ym2612"
    },
    {
      "channel": 0,
      "note": 41,
      "start": 42.7298,
      "duration": 0.0158,
      "velocity": 115,
      "chip": "ym2612"
    },
    {
      "channel": 4,
      "note": 78,
      "start": 42.731,
      "duration": 0.0158,
      "velocity": 97,
      "chip": "ym2612"
    },
    {
      "channel": 3,
      "note": 78,
      "start": 42.7322,
      "duration": 0.016,
      "velocity": 97,
      "chip": "ym2612"
    },
    {
      "channel": 2,
      "note": 52,
      "start": 42.7333,
      "duration": 0.0163,
      "velocity": 100,
      "chip": "ym2612"
    },
    {
      "channel": 0,
      "note": 36,
      "start": 42.7457,
      "duration": 0.014,
      "velocity": 115,
      "chip": "ym2612"
    },
    {
      "channel": 4,
      "note": 78,
      "start": 42.7469,
      "duration": 0.0168,
      "velocity": 97,
      "chip": "ym2612"
    },
    {
      "channel": 3,
      "note": 78,
      "start": 42.7482,
      "duration": 0.0167,
      "velocity": 97,
      "chip": "ym2612"
    },
    {
      "channel": 2,
      "note": 52,
      "start": 42.7495,
      "duration": 0.0165,
      "velocity": 100,
      "chip": "ym2612"
    },
    {
      "channel": 0,
      "note": 36,
      "start": 42.7597,
      "duration": 0.0161,
      "velocity": 115,
      "chip": "ym2612"
    },
    {
      "channel": 4,
      "note": 78,
      "start": 42.7637,
      "duration": 0.0133,
      "velocity": 97,
      "chip": "ym2612"
    },
    {
      "channel": 3,
      "note": 78,
      "start": 42.7649,
      "duration": 0.016,
      "velocity": 97,
      "chip": "ym2612"
    },
    {
      "channel": 2,
      "note": 52,
      "start": 42.766,
      "duration": 0.0159,
      "velocity": 100,
      "chip": "ym2612"
    },
    {
      "channel": 0,
      "note": 37,
      "start": 42.7758,
      "duration": 0.0161,
      "velocity": 115,
      "chip": "ym2612"
    },
    {
      "channel": 4,
      "note": 78,
      "start": 42.777,
      "duration": 0.0162,
      "velocity": 97,
      "chip": "ym2612"
    },
    {
      "channel": 3,
      "note": 78,
      "start": 42.7809,
      "duration": 0.0158,
      "velocity": 97,
      "chip": "ym2612"
    },
    {
      "channel": 2,
      "note": 52,
      "start": 42.7819,
      "duration": 0.0159,
      "velocity": 100,
      "chip": "ym2612"
    },
    {
      "channel": 0,
      "note": 37,
      "start": 42.7919,
      "duration": 0.0161,
      "velocity": 115,
      "chip": "ym2612"
    },
    {
      "channel": 4,
      "note": 78,
      "start": 42.7932,
      "duration": 0.016,
      "velocity": 97,
      "chip": "ym2612"
    },
    {
      "channel": 3,
      "note": 78,
      "start": 42.7967,
      "duration": 0.0137,
      "velocity": 97,
      "chip": "ym2612"
    },
    {
      "channel": 2,
      "note": 52,
      "start": 42.7978,
      "duration": 0.0139,
      "velocity": 100,
      "chip": "ym2612"
    },
    {
      "channel": 0,
      "note": 38,
      "start": 42.808,
      "duration": 0.0161,
      "velocity": 115,
      "chip": "ym2612"
    },
    {
      "channel": 4,
      "note": 78,
      "start": 42.8092,
      "duration": 0.016,
      "velocity": 97,
      "chip": "ym2612"
    },
    {
      "channel": 3,
      "note": 78,
      "start": 42.8104,
      "duration": 0.016,
      "velocity": 97,
      "chip": "ym2612"
    },
    {
      "channel": 2,
      "note": 52,
      "start": 42.8118,
      "duration": 0.0185,
      "velocity": 100,
      "chip": "ym2612"
    },
    {
      "channel": 0,
      "note": 38,
      "start": 42.8241,
      "duration": 0.0161,
      "velocity": 115,
      "chip": "ym2612"
    },
    {
      "channel": 4,
      "note": 78,
      "start": 42.8253,
      "duration": 0.0161,
      "velocity": 97,
      "chip": "ym2612"
    },
    {
      "channel": 3,
      "note": 78,
      "start": 42.8264,
      "duration": 0.0161,
      "velocity": 97,
      "chip": "ym2612"
    },
    {
      "channel": 2,
      "note": 52,
      "start": 42.8303,
      "duration": 0.0134,
      "velocity": 100,
      "chip": "ym2612"
    },
    {
      "channel": 0,
      "note": 39,
      "start": 42.8402,
      "duration": 0.0161,
      "velocity": 115,
      "chip": "ym2612"
    },
    {
      "channel": 4,
      "note": 78,
      "start": 42.8413,
      "duration": 0.0161,
      "velocity": 97,
      "chip": "ym2612"
    },
    {
      "channel": 3,
      "note": 78,
      "start": 42.8425,
      "duration": 0.0161,
      "velocity": 97,
      "chip": "ym2612"
    },
    {
      "channel": 2,
      "note": 52,
      "start": 42.8436,
      "duration": 0.0161,
      "velocity": 100,
      "chip": "ym2612"
    },
    {
      "channel": 0,
      "note": 39,
      "start": 42.8563,
      "duration": 0.0161,
      "velocity": 115,
      "chip": "ym2612"
    },
    {
      "channel": 4,
      "note": 78,
      "start": 42.8574,
      "duration": 0.0161,
      "velocity": 97,
      "chip": "ym2612"
    },
    {
      "channel": 3,
      "note": 78,
      "start": 42.8586,
      "duration": 0.0161,
      "velocity": 97,
      "chip": "ym2612"
    },
    {
      "channel": 2,
      "note": 52,
      "start": 42.8597,
      "duration": 0.0161,
      "velocity": 100,
      "chip": "ym2612"
    },
    {
      "channel": 0,
      "note": 40,
      "start": 42.8724,
      "duration": 0.0161,
      "velocity": 115,
      "chip": "ym2612"
    },
    {
      "channel": 4,
      "note": 78,
      "start": 42.8735,
      "duration": 0.0161,
      "velocity": 97,
      "chip": "ym2612"
    },
    {
      "channel": 3,
      "note": 78,
      "start": 42.8747,
      "duration": 0.0161,
      "velocity": 97,
      "chip": "ym2612"
    },
    {
      "channel": 2,
      "note": 52,
      "start": 42.8758,
      "duration": 0.0161,
      "velocity": 100,
      "chip": "ym2612"
    },
    {
      "channel": 0,
      "note": 40,
      "start": 42.8885,
      "duration": 0.0161,
      "velocity": 115,
      "chip": "ym2612"
    },
    {
      "channel": 4,
      "note": 78,
      "start": 42.8896,
      "duration": 0.0161,
      "velocity": 97,
      "chip": "ym2612"
    },
    {
      "channel": 3,
      "note": 78,
      "start": 42.8908,
      "duration": 0.0161,
      "velocity": 97,
      "chip": "ym2612"
    },
    {
      "channel": 2,
      "note": 52,
      "start": 42.8919,
      "duration": 0.0161,
      "velocity": 100,
      "chip": "ym2612"
    },
    {
      "channel": 0,
      "note": 40,
      "start": 42.9046,
      "duration": 0.0161,
      "velocity": 115,
      "chip": "ym2612"
    },
    {
      "channel": 4,
      "note": 78,
      "start": 42.9057,
      "duration": 0.0162,
      "velocity": 97,
      "chip": "ym2612"
    },
    {
      "channel": 3,
      "note": 78,
      "start": 42.9069,
      "duration": 0.0161,
      "velocity": 97,
      "chip": "ym2612"
    },
    {
      "channel": 2,
      "note": 52,
      "start": 42.908,
      "duration": 0.0161,
      "velocity": 100,
      "chip": "ym2612"
    },
    {
      "channel": 0,
      "note": 41,
      "start": 42.9207,
      "duration": 0.0179,
      "velocity": 124,
      "chip": "ym2612"
    },
    {
      "channel": 4,
      "note": 78,
      "start": 42.9219,
      "duration": 0.0179,
      "velocity": 97,
      "chip": "ym2612"
    },
    {
      "channel": 3,
      "note": 78,
      "start": 42.923,
      "duration": 0.0181,
      "velocity": 97,
      "chip": "ym2612"
    },
    {
      "channel": 2,
      "note": 52,
      "start": 42.9241,
      "duration": 0.0185,
      "velocity": 100,
      "chip": "ym2612"
    },
    {
      "channel": 0,
      "note": 84,
      "start": 42.9386,
      "duration": 0.0144,
      "velocity": 124,
      "chip": "ym2612"
    },
    {
      "channel": 4,
      "note": 78,
      "start": 42.9398,
      "duration": 0.0144,
      "velocity": 97,
      "chip": "ym2612"
    },
    {
      "channel": 3,
      "note": 78,
      "start": 42.9412,
      "duration": 0.0141,
      "velocity": 97,
      "chip": "ym2612"
    },
    {
      "channel": 2,
      "note": 52,
      "start": 42.9426,
      "duration": 0.0139,
      "velocity": 100,
      "chip": "ym2612"
    },
    {
      "channel": 0,
      "note": 82,
      "start": 42.953,
      "duration": 0.016,
      "velocity": 124,
      "chip": "ym2612"
    },
    {
      "channel": 4,
      "note": 78,
      "start": 42.9541,
      "duration": 0.016,
      "velocity": 97,
      "chip": "ym2612"
    },
    {
      "channel": 3,
      "note": 78,
      "start": 42.9553,
      "duration": 0.016,
      "velocity": 97,
      "chip": "ym2612"
    },
    {
      "channel": 2,
      "note": 52,
      "start": 42.9565,
      "duration": 0.016,
      "velocity": 100,
      "chip": "ym2612"
    },
    {
      "channel": 0,
      "note": 80,
      "start": 42.969,
      "duration": 0.0161,
      "velocity": 124,
      "chip": "ym2612"
    },
    {
      "channel": 4,
      "note": 78,
      "start": 42.9702,
      "duration": 0.0163,
      "velocity": 97,
      "chip": "ym2612"
    },
    {
      "channel": 3,
      "note": 78,
      "start": 42.9713,
      "duration": 0.0163,
      "velocity": 97,
      "chip": "ym2612"
    },
    {
      "channel": 2,
      "note": 52,
      "start": 42.9724,
      "duration": 0.0163,
      "velocity": 100,
      "chip": "ym2612"
    },
    {
      "channel": 0,
      "note": 77,
      "start": 42.9851,
      "duration": 0.0161,
      "velocity": 124,
      "chip": "ym2612"
    },
    {
      "channel": 4,
      "note": 78,
      "start": 42.9865,
      "duration": 0.0159,
      "velocity": 97,
      "chip": "ym2612"
    },
    {
      "channel": 3,
      "note": 78,
      "start": 42.9877,
      "duration": 0.0159,
      "velocity": 97,
      "chip": "ym2612"
    },
    {
      "channel": 2,
      "note": 52,
      "start": 42.9888,
      "duration": 0.0159,
      "velocity": 100,
      "chip": "ym2612"
    },
    {
      "channel": 0,
      "note": 75,
      "start": 43.0012,
      "duration": 0.0161,
      "velocity": 124,
      "chip": "ym2612"
    },
    {
      "channel": 4,
      "note": 78,
      "start": 43.0024,
      "duration": 0.0161,
      "velocity": 97,
      "chip": "ym2612"
    },
    {
      "channel": 3,
      "note": 78,
      "start": 43.0036,
      "duration": 0.016,
      "velocity": 97,
      "chip": "ym2612"
    },
    {
      "channel": 2,
      "note": 52,
      "start": 43.0047,
      "duration": 0.016,
      "velocity": 100,
      "chip": "ym2612"
    },
    {
      "channel": 0,
      "note": 72,
      "start": 43.0173,
      "duration": 0.0161,
      "velocity": 124,
      "chip": "ym2612"
    },
    {
      "channel": 4,
      "note": 78,
      "start": 43.0185,
      "duration": 0.0161,
      "velocity": 97,
      "chip": "ym2612"
    },
    {
      "channel": 3,
      "note": 78,
      "start": 43.0196,
      "duration": 0.0161,
      "velocity": 97,
      "chip": "ym2612"
    },
    {
      "channel": 2,
      "note": 52,
      "start": 43.0207,
      "duration": 0.0161,
      "velocity": 100,
      "chip": "ym2612"
    },
    {
      "channel": 0,
      "note": 70,
      "start": 43.0334,
      "duration": 0.0161,
      "velocity": 124,
      "chip": "ym2612"
    },
    {
      "channel": 4,
      "note": 78,
      "start": 43.0346,
      "duration": 0.0161,
      "velocity": 97,
      "chip": "ym2612"
    },
    {
      "channel": 3,
      "note": 78,
      "start": 43.0357,
      "duration": 0.0161,
      "velocity": 97,
      "chip": "ym2612"
    },
    {
      "channel": 2,
      "note": 52,
      "start": 43.0368,
      "duration": 0.0161,
      "velocity": 100,
      "chip": "ym2612"
    },
    {
      "channel": 0,
      "note": 68,
      "start": 43.0495,
      "duration": 0.0162,
      "velocity": 124,
      "chip": "ym2612"
    },
    {
      "channel": 4,
      "note": 78,
      "start": 43.0507,
      "duration": 0.0161,
      "velocity": 97,
      "chip": "ym2612"
    },
    {
      "channel": 3,
      "note": 78,
      "start": 43.0518,
      "duration": 0.0162,
      "velocity": 97,
      "chip": "ym2612"
    },
    {
      "channel": 2,
      "note": 52,
      "start": 43.0529,
      "duration": 0.0161,
      "velocity": 100,
      "chip": "ym2612"
    },
    {
      "channel": 0,
      "note": 65,
      "start": 43.0656,
      "duration": 0.0161,
      "velocity": 124,
      "chip": "ym2612"
    },
    {
      "channel": 4,
      "note": 78,
      "start": 43.0668,
      "duration": 0.0161,
      "velocity": 97,
      "chip": "ym2612"
    },
    {
      "channel": 3,
      "note": 78,
      "start": 43.0679,
      "duration": 0.0161,
      "velocity": 97,
      "chip": "ym2612"
    },
    {
      "channel": 2,
      "note": 52,
      "start": 43.069,
      "duration": 0.0161,
      "velocity": 100,
      "chip": "ym2612"
    },
    {
      "channel": 0,
      "note": 63,
      "start": 43.0817,
      "duration": 0.0161,
      "velocity": 1,
      "chip": "ym2612"
    },
    {
      "channel": 4,
      "note": 78,
      "start": 43.0829,
      "duration": 0.0162,
      "velocity": 97,
      "chip": "ym2612"
    },
    {
      "channel": 3,
      "note": 78,
      "start": 43.084,
      "duration": 0.0161,
      "velocity": 97,
      "chip": "ym2612"
    },
    {
      "channel": 2,
      "note": 52,
      "start": 43.0851,
      "duration": 0.0162,
      "velocity": 100,
      "chip": "ym2612"
    },
    {
      "channel": 4,
      "note": 78,
      "start": 43.099,
      "duration": 0.0158,
      "velocity": 97,
      "chip": "ym2612"
    },
    {
      "channel": 3,
      "note": 78,
      "start": 43.1002,
      "duration": 0.0159,
      "velocity": 97,
      "chip": "ym2612"
    },
    {
      "channel": 2,
      "note": 52,
      "start": 43.1013,
      "duration": 0.0158,
      "velocity": 100,
      "chip": "ym2612"
    },
    {
      "channel": 4,
      "note": 78,
      "start": 43.1149,
      "duration": 0.0163,
      "velocity": 97,
      "chip": "ym2612"
    },
    {
      "channel": 3,
      "note": 78,
      "start": 43.116,
      "duration": 0.0165,
      "velocity": 97,
      "chip": "ym2612"
    },
    {
      "channel": 2,
      "note": 52,
      "start": 43.1171,
      "duration": 0.0168,
      "velocity": 100,
      "chip": "ym2612"
    },
    {
      "channel": 4,
      "note": 78,
      "start": 43.1312,
      "duration": 0.0147,
      "velocity": 97,
      "chip": "ym2612"
    },
    {
      "channel": 3,
      "note": 76,
      "start": 43.1326,
      "duration": 0.0144,
      "velocity": 97,
      "chip": "ym2612"
    },
    {
      "channel": 2,
      "note": 52,
      "start": 43.134,
      "duration": 0.0142,
      "velocity": 100,
      "chip": "ym2612"
    },
    {
      "channel": 4,
      "note": 78,
      "start": 43.1459,
      "duration": 0.0186,
      "velocity": 97,
      "chip": "ym2612"
    },
    {
      "channel": 3,
      "note": 76,
      "start": 43.147,
      "duration": 0.0186,
      "velocity": 97,
      "chip": "ym2612"
    },
    {
      "channel": 2,
      "note": 52,
      "start": 43.1482,
      "duration": 0.0185,
      "velocity": 100,
      "chip": "ym2612"
    },
    {
      "channel": 4,
      "note": 78,
      "start": 43.1645,
      "duration": 0.0163,
      "velocity": 97,
      "chip": "ym2612"
    },
    {
      "channel": 3,
      "note": 76,
      "start": 43.1656,
      "duration": 0.0164,
      "velocity": 97,
      "chip": "ym2612"
    },
    {
      "channel": 2,
      "note": 52,
      "start": 43.1667,
      "duration": 0.0164,
      "velocity": 100,
      "chip": "ym2612"
    },
    {
      "channel": 4,
      "note": 76,
      "start": 43.1809,
      "duration": 0.0155,
      "velocity": 97,
      "chip": "ym2612"
    },
    {
      "channel": 3,
      "note": 76,
      "start": 43.1821,
      "duration": 0.0155,
      "velocity": 97,
      "chip": "ym2612"
    },
    {
      "channel": 2,
      "note": 52,
      "start": 43.1832,
      "duration": 0.0155,
      "velocity": 100,
      "chip": "ym2612"
    },
    {
      "channel": 4,
      "note": 76,
      "start": 43.1964,
      "duration": 0.0137,
      "velocity": 97,
      "chip": "ym2612"
    },
    {
      "channel": 3,
      "note": 76,
      "start": 43.1975,
      "duration": 0.014,
      "velocity": 97,
      "chip": "ym2612"
    },
    {
      "channel": 2,
      "note": 52,
      "start": 43.1987,
      "duration": 0.0139,
      "velocity": 100,
      "chip": "ym2612"
    },
    {
      "channel": 4,
      "note": 76,
      "start": 43.21,
      "duration": 0.0161,
      "velocity": 97,
      "chip": "ym2612"
    },
    {
      "channel": 3,
      "note": 76,
      "start": 43.2115,
      "duration": 0.0158,
      "velocity": 97,
      "chip": "ym2612"
    },
    {
      "channel": 2,
      "note": 52,
      "start": 43.2126,
      "duration": 0.0186,
      "velocity": 100,
      "chip": "ym2612"
    },
    {
      "channel": 4,
      "note": 76,
      "start": 43.2261,
      "duration": 0.0161,
      "velocity": 97,
      "chip": "ym2612"
    },
    {
      "channel": 3,
      "note": 76,
      "start": 43.2273,
      "duration": 0.0161,
      "velocity": 97,
      "chip": "ym2612"
    },
    {
      "channel": 2,
      "note": 52,
      "start": 43.2312,
      "duration": 0.0161,
      "velocity": 100,
      "chip": "ym2612"
    },
    {
      "channel": 4,
      "note": 76,
      "start": 43.2422,
      "duration": 0.0161,
      "velocity": 97,
      "chip": "ym2612"
    },
    {
      "channel": 3,
      "note": 76,
      "start": 43.2434,
      "duration": 0.0161,
      "velocity": 97,
      "chip": "ym2612"
    },
    {
      "channel": 2,
      "note": 52,
      "start": 43.2473,
      "duration": 0.0134,
      "velocity": 100,
      "chip": "ym2612"
    },
    {
      "channel": 4,
      "note": 76,
      "start": 43.2583,
      "duration": 0.0161,
      "velocity": 97,
      "chip": "ym2612"
    },
    {
      "channel": 3,
      "note": 76,
      "start": 43.2595,
      "duration": 0.0161,
      "velocity": 97,
      "chip": "ym2612"
    },
    {
      "channel": 2,
      "note": 52,
      "start": 43.2606,
      "duration": 0.0161,
      "velocity": 100,
      "chip": "ym2612"
    },
    {
      "channel": 4,
      "note": 76,
      "start": 43.2744,
      "duration": 0.0161,
      "velocity": 97,
      "chip": "ym2612"
    },
    {
      "channel": 3,
      "note": 76,
      "start": 43.2756,
      "duration": 0.0161,
      "velocity": 97,
      "chip": "ym2612"
    },
    {
      "channel": 2,
      "note": 52,
      "start": 43.2767,
      "duration": 0.0161,
      "velocity": 100,
      "chip": "ym2612"
    },
    {
      "channel": 4,
      "note": 76,
      "start": 43.2905,
      "duration": 0.0161,
      "velocity": 97,
      "chip": "ym2612"
    },
    {
      "channel": 3,
      "note": 76,
      "start": 43.2917,
      "duration": 0.0161,
      "velocity": 97,
      "chip": "ym2612"
    },
    {
      "channel": 2,
      "note": 52,
      "start": 43.2928,
      "duration": 0.0161,
      "velocity": 100,
      "chip": "ym2612"
    },
    {
      "channel": 4,
      "note": 76,
      "start": 43.3067,
      "duration": 0.0235,
      "velocity": 120,
      "chip": "ym2612"
    },
    {
      "channel": 3,
      "note": 76,
      "start": 43.3078,
      "duration": 0.0253,
      "velocity": 120,
      "chip": "ym2612"
    },
    {
      "channel": 2,
      "note": 52,
      "start": 43.3089,
      "duration": 0.0256,
      "velocity": 100,
      "chip": "ym2612"
    },
    {
      "channel": 0,
      "note": 36,
      "start": 43.325,
      "duration": 0.0144,
      "velocity": 115,
      "chip": "ym2612"
    },
    {
      "channel": 4,
      "note": 52,
      "start": 43.3303,
      "duration": 0.0103,
      "velocity": 120,
      "chip": "ym2612"
    },
    {
      "channel": 3,
      "note": 59,
      "start": 43.333,
      "duration": 0.0088,
      "velocity": 120,
      "chip": "ym2612"
    },
    {
      "channel": 2,
      "note": 52,
      "start": 43.3346,
      "duration": 0.0084,
      "velocity": 100,
      "chip": "ym2612"
    },
    {
      "channel": 0,
      "note": 36,
      "start": 43.3394,
      "duration": 0.0161,
      "velocity": 115,
      "chip": "ym2612"
    },
    {
      "channel": 4,
      "note": 52,
      "start": 43.3406,
      "duration": 0.016,
      "velocity": 120,
      "chip": "ym2612"
    },
    {
      "channel": 3,
      "note": 59,
      "start": 43.3418,
      "duration": 0.016,
      "velocity": 120,
      "chip": "ym2612"
    },
    {
      "channel": 2,
      "note": 52,
      "start": 43.343,
      "duration": 0.0159,
      "velocity": 100,
      "chip": "ym2612"
    },
    {
      "channel": 0,
      "note": 37,
      "start": 43.3555,
      "duration": 0.016,
      "velocity": 115,
      "chip": "ym2612"
    },
    {
      "channel": 4,
      "note": 52,
      "start": 43.3566,
      "duration": 0.0161,
      "velocity": 120,
      "chip": "ym2612"
    },
    {
      "channel": 3,
      "note": 59,
      "start": 43.3578,
      "duration": 0.016,
      "velocity": 120,
      "chip": "ym2612"
    },
    {
      "channel": 2,
      "note": 52,
      "start": 43.3588,
      "duration": 0.0161,
      "velocity": 100,
      "chip": "ym2612"
    },
    {
      "channel": 0,
      "note": 37,
      "start": 43.3715,
      "duration": 0.0162,
      "velocity": 115,
      "chip": "ym2612"
    },
    {
      "channel": 4,
      "note": 52,
      "start": 43.3727,
      "duration": 0.0161,
      "velocity": 120,
      "chip": "ym2612"
    },
    {
      "channel": 3,
      "note": 59,
      "start": 43.3738,
      "duration": 0.0162,
      "velocity": 120,
      "chip": "ym2612"
    },
    {
      "channel": 2,
      "note": 52,
      "start": 43.3749,
      "duration": 0.0161,
      "velocity": 100,
      "chip": "ym2612"
    },
    {
      "channel": 0,
      "note": 38,
      "start": 43.3877,
      "duration": 0.0161,
      "velocity": 115,
      "chip": "ym2612"
    },
    {
      "channel": 4,
      "note": 52,
      "start": 43.3888,
      "duration": 0.0161,
      "velocity": 120,
      "chip": "ym2612"
    },
    {
      "channel": 3,
      "note": 59,
      "start": 43.39,
      "duration": 0.0161,
      "velocity": 120,
      "chip": "ym2612"
    },
    {
      "channel": 2,
      "note": 52,
      "start": 43.3911,
      "duration": 0.0161,
      "velocity": 100,
      "chip": "ym2612"
    },
    {
      "channel": 0,
      "note": 38,
      "start": 43.4037,
      "duration": 0.0161,
      "velocity": 115,
      "chip": "ym2612"
    },
    {
      "channel": 4,
      "note": 52,
      "start": 43.4049,
      "duration": 0.0161,
      "velocity": 120,
      "chip": "ym2612"
    },
    {
      "channel": 3,
      "note": 59,
      "start": 43.406,
      "duration": 0.0161,
      "velocity": 120,
      "chip": "ym2612"
    },
    {
      "channel": 2,
      "note": 52,
      "start": 43.4072,
      "duration": 0.0161,
      "velocity": 100,
      "chip": "ym2612"
    },
    {
      "channel": 0,
      "note": 39,
      "start": 43.4198,
      "duration": 0.0161,
      "velocity": 115,
      "chip": "ym2612"
    },
    {
      "channel": 4,
      "note": 52,
      "start": 43.421,
      "duration": 0.0161,
      "velocity": 120,
      "chip": "ym2612"
    },
    {
      "channel": 3,
      "note": 59,
      "start": 43.4221,
      "duration": 0.0161,
      "velocity": 120,
      "chip": "ym2612"
    },
    {
      "channel": 2,
      "note": 52,
      "start": 43.4233,
      "duration": 0.0161,
      "velocity": 100,
      "chip": "ym2612"
    },
    {
      "channel": 0,
      "note": 39,
      "start": 43.4359,
      "duration": 0.0161,
      "velocity": 115,
      "chip": "ym2612"
    },
    {
      "channel": 4,
      "note": 52,
      "start": 43.4371,
      "duration": 0.0161,
      "velocity": 120,
      "chip": "ym2612"
    },
    {
      "channel": 3,
      "note": 59,
      "start": 43.4382,
      "duration": 0.0161,
      "velocity": 120,
      "chip": "ym2612"
    },
    {
      "channel": 2,
      "note": 52,
      "start": 43.4394,
      "duration": 0.0161,
      "velocity": 100,
      "chip": "ym2612"
    },
    {
      "channel": 0,
      "note": 40,
      "start": 43.452,
      "duration": 0.0161,
      "velocity": 115,
      "chip": "ym2612"
    },
    {
      "channel": 4,
      "note": 52,
      "start": 43.4532,
      "duration": 0.0161,
      "velocity": 120,
      "chip": "ym2612"
    },
    {
      "channel": 3,
      "note": 59,
      "start": 43.4543,
      "duration": 0.0161,
      "velocity": 120,
      "chip": "ym2612"
    },
    {
      "channel": 2,
      "note": 52,
      "start": 43.4555,
      "duration": 0.0161,
      "velocity": 100,
      "chip": "ym2612"
    },
    {
      "channel": 0,
      "note": 40,
      "start": 43.4681,
      "duration": 0.0161,
      "velocity": 115,
      "chip": "ym2612"
    },
    {
      "channel": 4,
      "note": 52,
      "start": 43.4693,
      "duration": 0.0162,
      "velocity": 120,
      "chip": "ym2612"
    },
    {
      "channel": 3,
      "note": 59,
      "start": 43.4704,
      "duration": 0.0161,
      "velocity": 120,
      "chip": "ym2612"
    },
    {
      "channel": 2,
      "note": 52,
      "start": 43.4716,
      "duration": 0.0161,
      "velocity": 100,
      "chip": "ym2612"
    },
    {
      "channel": 0,
      "note": 40,
      "start": 43.4842,
      "duration": 0.0161,
      "velocity": 115,
      "chip": "ym2612"
    },
    {
      "channel": 4,
      "note": 52,
      "start": 43.4854,
      "duration": 0.0161,
      "velocity": 120,
      "chip": "ym2612"
    },
    {
      "channel": 3,
      "note": 59,
      "start": 43.4865,
      "duration": 0.0161,
      "velocity": 120,
      "chip": "ym2612"
    },
    {
      "channel": 2,
      "note": 52,
      "start": 43.4877,
      "duration": 0.0161,
      "velocity": 100,
      "chip": "ym2612"
    },
    {
      "channel": 0,
      "note": 41,
      "start": 43.5003,
      "duration": 0.0162,
      "velocity": 115,
      "chip": "ym2612"
    },
    {
      "channel": 4,
      "note": 52,
      "start": 43.5015,
      "duration": 0.0163,
      "velocity": 120,
      "chip": "ym2612"
    },
    {
      "channel": 3,
      "note": 59,
      "start": 43.5026,
      "duration": 0.0166,
      "velocity": 120,
      "chip": "ym2612"
    },
    {
      "channel": 2,
      "note": 52,
      "start": 43.5037,
      "duration": 0.0169,
      "velocity": 100,
      "chip": "ym2612"
    },
    {
      "channel": 0,
      "note": 41,
      "start": 43.5165,
      "duration": 0.0161,
      "velocity": 115,
      "chip": "ym2612"
    },
    {
      "channel": 4,
      "note": 57,
      "start": 43.5179,
      "duration": 0.0159,
      "velocity": 120,
      "chip": "ym2612"
    },
    {
      "channel": 3,
      "note": 64,
      "start": 43.5193,
      "duration": 0.0156,
      "velocity": 120,
      "chip": "ym2612"
    },
    {
      "channel": 2,
      "note": 52,
      "start": 43.5207,
      "duration": 0.0154,
      "velocity": 100,
      "chip": "ym2612"
    },
    {
      "channel": 0,
      "note": 42,
      "start": 43.5326,
      "duration": 0.0161,
      "velocity": 115,
      "chip": "ym2612"
    },
    {
      "channel": 4,
      "note": 57,
      "start": 43.5338,
      "duration": 0.016,
      "velocity": 120,
      "chip": "ym2612"
    },
    {
      "channel": 3,
      "note": 64,
      "start": 43.5349,
      "duration": 0.016,
      "velocity": 120,
      "chip": "ym2612"
    },
    {
      "channel": 2,
      "note": 52,
      "start": 43.5361,
      "duration": 0.0159,
      "velocity": 100,
      "chip": "ym2612"
    },
    {
      "channel": 0,
      "note": 42,
      "start": 43.5487,
      "duration": 0.0167,
      "velocity": 115,
      "chip": "ym2612"
    },
    {
      "channel": 4,
      "note": 57,
      "start": 43.5498,
      "duration": 0.0167,
      "velocity": 120,
      "chip": "ym2612"
    },
    {
      "channel": 3,
      "note": 64,
      "start": 43.551,
      "duration": 0.0167,
      "velocity": 120,
      "chip": "ym2612"
    },
    {
      "channel": 2,
      "note": 52,
      "start": 43.552,
      "duration": 0.0167,
      "velocity": 100,
      "chip": "ym2612"
    },
    {
      "channel": 0,
      "note": 43,
      "start": 43.5653,
      "duration": 0.0167,
      "velocity": 115,
      "chip": "ym2612"
    },
    {
      "channel": 4,
      "note": 57,
      "start": 43.5665,
      "duration": 0.0167,
      "velocity": 120,
      "chip": "ym2612"
    },
    {
      "channel": 3,
      "note": 64,
      "start": 43.5676,
      "duration": 0.0167,
      "velocity": 120,
      "chip": "ym2612"
    },
    {
      "channel": 2,
      "note": 52,
      "start": 43.5688,
      "duration": 0.0167,
      "velocity": 100,
      "chip": "ym2612"
    },
    {
      "channel": 0,
      "note": 43,
      "start": 43.5821,
      "duration": 0.0163,
      "velocity": 115,
      "chip": "ym2612"
    },
    {
      "channel": 4,
      "note": 57,
      "start": 43.5832,
      "duration": 0.0163,
      "velocity": 120,
      "chip": "ym2612"
    },
    {
      "channel": 3,
      "note": 64,
      "start": 43.5844,
      "duration": 0.0163,
      "velocity": 120,
      "chip": "ym2612"
    },
    {
      "channel": 2,
      "note": 52,
      "start": 43.5854,
      "duration": 0.0163,
      "velocity": 100,
      "chip": "ym2612"
    },
    {
      "channel": 0,
      "note": 44,
      "start": 43.5983,
      "duration": 0.0147,
      "velocity": 115,
      "chip": "ym2612"
    },
    {
      "channel": 4,
      "note": 57,
      "start": 43.5995,
      "duration": 0.0147,
      "velocity": 120,
      "chip": "ym2612"
    },
    {
      "channel": 3,
      "note": 64,
      "start": 43.6006,
      "duration": 0.0147,
      "velocity": 120,
      "chip": "ym2612"
    },
    {
      "channel": 2,
      "note": 52,
      "start": 43.6018,
      "duration": 0.0147,
      "velocity": 100,
      "chip": "ym2612"
    },
    {
      "channel": 0,
      "note": 44,
      "start": 43.613,
      "duration": 0.0189,
      "velocity": 115,
      "chip": "ym2612"
    },
    {
      "channel": 4,
      "note": 57,
      "start": 43.6142,
      "duration": 0.0189,
      "velocity": 120,
      "chip": "ym2612"
    },
    {
      "channel": 3,
      "note": 64,
      "start": 43.6153,
      "duration": 0.0189,
      "velocity": 120,
      "chip": "ym2612"
    },
    {
      "channel": 2,
      "note": 52,
      "start": 43.6165,
      "duration": 0.0188,
      "velocity": 100,
      "chip": "ym2612"
    },
    {
      "channel": 0,
      "note": 44,
      "start": 43.6319,
      "duration": 0.016,
      "velocity": 115,
      "chip": "ym2612"
    },
    {
      "channel": 4,
      "note": 57,
      "start": 43.6331,
      "duration": 0.0161,
      "velocity": 120,
      "chip": "ym2612"
    },
    {
      "channel": 3,
      "note": 64,
      "start": 43.6342,
      "duration": 0.016,
      "velocity": 120,
      "chip": "ym2612"
    },
    {
      "channel": 2,
      "note": 52,
      "start": 43.6353,
      "duration": 0.0161,
      "velocity": 100,
      "chip": "ym2612"
    },
    {
      "channel": 0,
      "note": 45,
      "start": 43.648,
      "duration": 0.0158,
      "velocity": 115,
      "chip": "ym2612"
    },
    {
      "channel": 4,
      "note": 57,
      "start": 43.6492,
      "duration": 0.0157,
      "velocity": 120,
      "chip": "ym2612"
    },
    {
      "channel": 3,
      "note": 64,
      "start": 43.6502,
      "duration": 0.0158,
      "velocity": 120,
      "chip": "ym2612"
    },
    {
      "channel": 2,
      "note": 52,
      "start": 43.6514,
      "duration": 0.0158,
      "velocity": 100,
      "chip": "ym2612"
    },
    {
      "channel": 0,
      "note": 45,
      "start": 43.6637,
      "duration": 0.0141,
      "velocity": 115,
      "chip": "ym2612"
    },
    {
      "channel": 4,
      "note": 57,
      "start": 43.6649,
      "duration": 0.0141,
      "velocity": 120,
      "chip": "ym2612"
    },
    {
      "channel": 3,
      "note": 64,
      "start": 43.666,
      "duration": 0.0141,
      "velocity": 120,
      "chip": "ym2612"
    },
    {
      "channel": 2,
      "note": 52,
      "start": 43.6672,
      "duration": 0.014,
      "velocity": 100,
      "chip": "ym2612"
    },
    {
      "channel": 0,
      "note": 46,
      "start": 43.6778,
      "duration": 0.0158,
      "velocity": 115,
      "chip": "ym2612"
    },
    {
      "channel": 4,
      "note": 57,
      "start": 43.6789,
      "duration": 0.0185,
      "velocity": 120,
      "chip": "ym2612"
    },
    {
      "channel": 3,
      "note": 64,
      "start": 43.6801,
      "duration": 0.0185,
      "velocity": 120,
      "chip": "ym2612"
    },
    {
      "channel": 2,
      "note": 52,
      "start": 43.6812,
      "duration": 0.0186,
      "velocity": 100,
      "chip": "ym2612"
    },
    {
      "channel": 0,
      "note": 46,
      "start": 43.6936,
      "duration": 0.0206,
      "velocity": 124,
      "chip": "ym2612"
    },
    {
      "channel": 4,
      "note": 57,
      "start": 43.6975,
      "duration": 0.0181,
      "velocity": 120,
      "chip": "ym2612"
    },
    {
      "channel": 3,
      "note": 64,
      "start": 43.6986,
      "duration": 0.0184,
      "velocity": 120,
      "chip": "ym2612"
    },
    {
      "channel": 2,
      "note": 52,
      "start": 43.6998,
      "duration": 0.0187,
      "velocity": 100,
      "chip": "ym2612"
    },
    {
      "channel": 0,
      "note": 84,
      "start": 43.7142,
      "duration": 0.0116,
      "velocity": 124,
      "chip": "ym2612"
    },
    {
      "channel": 4,
      "note": 57,
      "start": 43.7156,
      "duration": 0.0114,
      "velocity": 120,
      "chip": "ym2612"
    },
    {
      "channel": 3,
      "note": 64,
      "start": 43.717,
      "duration": 0.0136,
      "velocity": 120,
      "chip": "ym2612"
    },
    {
      "channel": 2,
      "note": 52,
      "start": 43.7184,
      "duration": 0.0134,
      "velocity": 100,
      "chip": "ym2612"
    },
    {
      "channel": 0,
      "note": 82,
      "start": 43.7258,
      "duration": 0.016,
      "velocity": 124,
      "chip": "ym2612"
    },
    {
      "channel": 4,
      "note": 57,
      "start": 43.727,
      "duration": 0.016,
      "velocity": 120,
      "chip": "ym2612"
    },
    {
      "channel": 3,
      "note": 64,
      "start": 43.7306,
      "duration": 0.0139,
      "velocity": 120,
      "chip": "ym2612"
    },
    {
      "channel": 2,
      "note": 52,
      "start": 43.7318,
      "duration": 0.0138,
      "velocity": 100,
      "chip": "ym2612"
    },
    {
      "channel": 0,
      "note": 80,
      "start": 43.7419,
      "duration": 0.0161,
      "velocity": 124,
      "chip": "ym2612"
    },
    {
      "channel": 4,
      "note": 57,
      "start": 43.743,
      "duration": 0.0161,
      "velocity": 120,
      "chip": "ym2612"
    },
    {
      "channel": 3,
      "note": 64,
      "start": 43.7445,
      "duration": 0.0158,
      "velocity": 120,
      "chip": "ym2612"
    },
    {
      "channel": 2,
      "note": 52,
      "start": 43.7456,
      "duration": 0.0185,
      "velocity": 100,
      "chip": "ym2612"
    },
    {
      "channel": 0,
      "note": 77,
      "start": 43.758,
      "duration": 0.0161,
      "velocity": 124,
      "chip": "ym2612"
    },
    {
      "channel": 4,
      "note": 57,
      "start": 43.7591,
      "duration": 0.0161,
      "velocity": 120,
      "chip": "ym2612"
    },
    {
      "channel": 3,
      "note": 64,
      "start": 43.7602,
      "duration": 0.0161,
      "velocity": 120,
      "chip": "ym2612"
    },
    {
      "channel": 2,
      "note": 52,
      "start": 43.7641,
      "duration": 0.0161,
      "velocity": 100,
      "chip": "ym2612"
    },
    {
      "channel": 0,
      "note": 75,
      "start": 43.774,
      "duration": 0.0161,
      "velocity": 124,
      "chip": "ym2612"
    },
    {
      "channel": 4,
      "note": 57,
      "start": 43.7752,
      "duration": 0.0161,
      "velocity": 120,
      "chip": "ym2612"
    },
    {
      "channel": 3,
      "note": 64,
      "start": 43.7763,
      "duration": 0.0161,
      "velocity": 120,
      "chip": "ym2612"
    },
    {
      "channel": 2,
      "note": 52,
      "start": 43.7802,
      "duration": 0.0134,
      "velocity": 100,
      "chip": "ym2612"
    },
    {
      "channel": 0,
      "note": 72,
      "start": 43.7901,
      "duration": 0.0162,
      "velocity": 124,
      "chip": "ym2612"
    },
    {
      "channel": 4,
      "note": 57,
      "start": 43.7913,
      "duration": 0.0161,
      "velocity": 120,
      "chip": "ym2612"
    },
    {
      "channel": 3,
      "note": 64,
      "start": 43.7924,
      "duration": 0.0162,
      "velocity": 120,
      "chip": "ym2612"
    },
    {
      "channel": 2,
      "note": 52,
      "start": 43.7936,
      "duration": 0.0161,
      "velocity": 100,
      "chip": "ym2612"
    },
    {
      "channel": 0,
      "note": 70,
      "start": 43.8063,
      "duration": 0.0161,
      "velocity": 124,
      "chip": "ym2612"
    },
    {
      "channel": 4,
      "note": 57,
      "start": 43.8074,
      "duration": 0.0161,
      "velocity": 120,
      "chip": "ym2612"
    },
    {
      "channel": 3,
      "note": 64,
      "start": 43.8086,
      "duration": 0.0161,
      "velocity": 120,
      "chip": "ym2612"
    },
    {
      "channel": 2,
      "note": 52,
      "start": 43.8097,
      "duration": 0.0161,
      "velocity": 100,
      "chip": "ym2612"
    },
    {
      "channel": 0,
      "note": 68,
      "start": 43.8224,
      "duration": 0.0161,
      "velocity": 124,
      "chip": "ym2612"
    },
    {
      "channel": 4,
      "note": 57,
      "start": 43.8235,
      "duration": 0.0161,
      "velocity": 120,
      "chip": "ym2612"
    },
    {
      "channel": 3,
      "note": 64,
      "start": 43.8247,
      "duration": 0.0161,
      "velocity": 120,
      "chip": "ym2612"
    },
    {
      "channel": 2,
      "note": 52,
      "start": 43.8258,
      "duration": 0.0161,
      "velocity": 100,
      "chip": "ym2612"
    },
    {
      "channel": 0,
      "note": 65,
      "start": 43.8385,
      "duration": 0.0161,
      "velocity": 124,
      "chip": "ym2612"
    },
    {
      "channel": 4,
      "note": 57,
      "start": 43.8396,
      "duration": 0.0161,
      "velocity": 120,
      "chip": "ym2612"
    },
    {
      "channel": 3,
      "note": 64,
      "start": 43.8408,
      "duration": 0.0161,
      "velocity": 120,
      "chip": "ym2612"
    },
    {
      "channel": 2,
      "note": 52,
      "start": 43.8419,
      "duration": 0.0161,
      "velocity": 100,
      "chip": "ym2612"
    },
    {
      "channel": 0,
      "note": 63,
      "start": 43.8546,
      "duration": 0.0153,
      "velocity": 1,
      "chip": "ym2612"
    },
    {
      "channel": 4,
      "note": 57,
      "start": 43.8557,
      "duration": 0.0153,
      "velocity": 120,
      "chip": "ym2612"
    },
    {
      "channel": 3,
      "note": 64,
      "start": 43.8569,
      "duration": 0.0153,
      "velocity": 120,
      "chip": "ym2612"
    },
    {
      "channel": 2,
      "note": 52,
      "start": 43.858,
      "duration": 0.0153,
      "velocity": 100,
      "chip": "ym2612"
    },
    {
      "channel": 4,
      "note": 57,
      "start": 43.871,
      "duration": 0.0152,
      "velocity": 120,
      "chip": "ym2612"
    },
    {
      "channel": 3,
      "note": 64,
      "start": 43.8721,
      "duration": 0.0153,
      "velocity": 120,
      "chip": "ym2612"
    },
    {
      "channel": 2,
      "note": 52,
      "start": 43.8733,
      "duration": 0.0153,
      "velocity": 100,
      "chip": "ym2612"
    },
    {
      "channel": 4,
      "note": 57,
      "start": 43.8863,
      "duration": 0.0198,
      "velocity": 120,
      "chip": "ym2612"
    },
    {
      "channel": 3,
      "note": 64,
      "start": 43.8874,
      "duration": 0.02,
      "velocity": 120,
      "chip": "ym2612"
    },
    {
      "channel": 2,
      "note": 52,
      "start": 43.8885,
      "duration": 0.0204,
      "velocity": 100,
      "chip": "ym2612"
    },
    {
      "channel": 0,
      "note": 36,
      "start": 43.9046,
      "duration": 0.0144,
      "velocity": 115,
      "chip": "ym2612"
    },
    {
      "channel": 4,
      "note": 55,
      "start": 43.9061,
      "duration": 0.0141,
      "velocity": 120,
      "chip": "ym2612"
    },
    {
      "channel": 3,
      "note": 62,
      "start": 43.9074,
      "duration": 0.014,
      "velocity": 120,
      "chip": "ym2612"
    },
    {
      "channel": 2,
      "note": 52,
      "start": 43.9089,
      "duration": 0.0137,
      "velocity": 100,
      "chip": "ym2612"
    },
    {
      "channel": 0,
      "note": 36,
      "start": 43.919,
      "duration": 0.016,
      "velocity": 115,
      "chip": "ym2612"
    },
    {
      "channel": 4,
      "note": 55,
      "start": 43.9202,
      "duration": 0.016,
      "velocity": 120,
      "chip": "ym2612"
    },
    {
      "channel": 3,
      "note": 62,
      "start": 43.9214,
      "duration": 0.0159,
      "velocity": 120,
      "chip": "ym2612"
    },
    {
      "channel": 2,
      "note": 52,
      "start": 43.9227,
      "duration": 0.0158,
      "velocity": 100,
      "chip": "ym2612"
    },
    {
      "channel": 0,
      "note": 37,
      "start": 43.9351,
      "duration": 0.0161,
      "velocity": 115,
      "chip": "ym2612"
    },
    {
      "channel": 4,
      "note": 55,
      "start": 43.9363,
      "duration": 0.0161,
      "velocity": 120,
      "chip": "ym2612"
    },
    {
      "channel": 3,
      "note": 62,
      "start": 43.9373,
      "duration": 0.0161,
      "velocity": 120,
      "chip": "ym2612"
    },
    {
      "channel": 2,
      "note": 52,
      "start": 43.9385,
      "duration": 0.0161,
      "velocity": 100,
      "chip": "ym2612"
    },
    {
      "channel": 0,
      "note": 37,
      "start": 43.9511,
      "duration": 0.0162,
      "velocity": 115,
      "chip": "ym2612"
    },
    {
      "channel": 4,
      "note": 55,
      "start": 43.9524,
      "duration": 0.0161,
      "velocity": 120,
      "chip": "ym2612"
    },
    {
      "channel": 3,
      "note": 62,
      "start": 43.9534,
      "duration": 0.0162,
      "velocity": 120,
      "chip": "ym2612"
    },
    {
      "channel": 2,
      "note": 52,
      "start": 43.9546,
      "duration": 0.0161,
      "velocity": 100,
      "chip": "ym2612"
    },
    {
      "channel": 0,
      "note": 38,
      "start": 43.9673,
      "duration": 0.0161,
      "velocity": 115,
      "chip": "ym2612"
    },
    {
      "channel": 4,
      "note": 55,
      "start": 43.9684,
      "duration": 0.0161,
      "velocity": 120,
      "chip": "ym2612"
    },
    {
      "channel": 3,
      "note": 62,
      "start": 43.9696,
      "duration": 0.0161,
      "velocity": 120,
      "chip": "ym2612"
    },
    {
      "channel": 2,
      "note": 52,
      "start": 43.9707,
      "duration": 0.0161,
      "velocity": 100,
      "chip": "ym2612"
    },
    {
      "channel": 0,
      "note": 38,
      "start": 43.9834,
      "duration": 0.0161,
      "velocity": 115,
      "chip": "ym2612"
    },
    {
      "channel": 4,
      "note": 55,
      "start": 43.9845,
      "duration": 0.0161,
      "velocity": 120,
      "chip": "ym2612"
    },
    {
      "channel": 3,
      "note": 62,
      "start": 43.9857,
      "duration": 0.0161,
      "velocity": 120,
      "chip": "ym2612"
    },
    {
      "channel": 2,
      "note": 52,
      "start": 43.9868,
      "duration": 0.0162,
      "velocity": 100,
      "chip": "ym2612"
    },
    {
      "channel": 0,
      "note": 39,
      "start": 43.9995,
      "duration": 0.0161,
      "velocity": 115,
      "chip": "ym2612"
    },
    {
      "channel": 4,
      "note": 55,
      "start": 44.0006,
      "duration": 0.0161,
      "velocity": 120,
      "chip": "ym2612"
    },
    {
      "channel": 3,
      "note": 62,
      "start": 44.0018,
      "duration": 0.0161,
      "velocity": 120,
      "chip": "ym2612"
    },
    {
      "channel": 2,
      "note": 52,
      "start": 44.0029,
      "duration": 0.0161,
      "velocity": 100,
      "chip": "ym2612"
    },
    {
      "channel": 0,
      "note": 39,
      "start": 44.0156,
      "duration": 0.0165,
      "velocity": 115,
      "chip": "ym2612"
    },
    {
      "channel": 4,
      "note": 55,
      "start": 44.0167,
      "duration": 0.0165,
      "velocity": 120,
      "chip": "ym2612"
    },
    {
      "channel": 3,
      "note": 62,
      "start": 44.0179,
      "duration": 0.0165,
      "velocity": 120,
      "chip": "ym2612"
    },
    {
      "channel": 2,
      "note": 52,
      "start": 44.019,
      "duration": 0.0164,
      "velocity": 100,
      "chip": "ym2612"
    },
    {
      "channel": 0,
      "note": 40,
      "start": 44.0321,
      "duration": 0.0167,
      "velocity": 115,
      "chip": "ym2612"
    },
    {
      "channel": 4,
      "note": 55,
      "start": 44.0332,
      "duration": 0.0167,
      "velocity": 120,
      "chip": "ym2612"
    },
    {
      "channel": 3,
      "note": 62,
      "start": 44.0344,
      "duration": 0.0167,
      "velocity": 120,
      "chip": "ym2612"
    },
    {
      "channel": 2,
      "note": 52,
      "start": 44.0354,
      "duration": 0.0167,
      "velocity": 100,
      "chip": "ym2612"
    },
    {
      "channel": 0,
      "note": 40,
      "start": 44.0487,
      "duration": 0.0163,
      "velocity": 115,
      "chip": "ym2612"
    },
    {
      "channel": 4,
      "note": 55,
      "start": 44.0499,
      "duration": 0.0163,
      "velocity": 120,
      "chip": "ym2612"
    },
    {
      "channel": 3,
      "note": 62,
      "start": 44.051,
      "duration": 0.0163,
      "velocity": 120,
      "chip": "ym2612"
    },
    {
      "channel": 2,
      "note": 52,
      "start": 44.0521,
      "duration": 0.0163,
      "velocity": 100,
      "chip": "ym2612"
    },
    {
      "channel": 0,
      "note": 40,
      "start": 44.065,
      "duration": 0.0149,
      "velocity": 115,
      "chip": "ym2612"
    },
    {
      "channel": 4,
      "note": 55,
      "start": 44.0661,
      "duration": 0.015,
      "velocity": 120,
      "chip": "ym2612"
    },
    {
      "channel": 3,
      "note": 62,
      "start": 44.0673,
      "duration": 0.0149,
      "velocity": 120,
      "chip": "ym2612"
    },
    {
      "channel": 2,
      "note": 52,
      "start": 44.0684,
      "duration": 0.015,
      "velocity": 100,
      "chip": "ym2612"
    },
    {
      "channel": 0,
      "note": 41,
      "start": 44.08,
      "duration": 0.0205,
      "velocity": 115,
      "chip": "ym2612"
    },
    {
      "channel": 4,
      "note": 55,
      "start": 44.0812,
      "duration": 0.0207,
      "velocity": 120,
      "chip": "ym2612"
    },
    {
      "channel": 3,
      "note": 62,
      "start": 44.0822,
      "duration": 0.021,
      "velocity": 120,
      "chip": "ym2612"
    },
    {
      "channel": 2,
      "note": 52,
      "start": 44.0834,
      "duration": 0.0213,
      "velocity": 100,
      "chip": "ym2612"
    },
    {
      "channel": 0,
      "note": 36,
      "start": 44.1005,
      "duration": 0.0145,
      "velocity": 115,
      "chip": "ym2612"
    },
    {
      "channel": 4,
      "note": 55,
      "start": 44.1019,
      "duration": 0.0143,
      "velocity": 120,
      "chip": "ym2612"
    },
    {
      "channel": 3,
      "note": 62,
      "start": 44.1033,
      "duration": 0.0141,
      "velocity": 120,
      "chip": "ym2612"
    },
    {
      "channel": 2,
      "note": 52,
      "start": 44.1048,
      "duration": 0.0138,
      "velocity": 100,
      "chip": "ym2612"
    },
    {
      "channel": 0,
      "note": 36,
      "start": 44.115,
      "duration": 0.0156,
      "velocity": 115,
      "chip": "ym2612"
    },
    {
      "channel": 4,
      "note": 55,
      "start": 44.1162,
      "duration": 0.0156,
      "velocity": 120,
      "chip": "ym2612"
    },
    {
      "channel": 3,
      "note": 62,
      "start": 44.1174,
      "duration": 0.0156,
      "velocity": 120,
      "chip": "ym2612"
    },
    {
      "channel": 2,
      "note": 52,
      "start": 44.1186,
      "duration": 0.0155,
      "velocity": 100,
      "chip": "ym2612"
    },
    {
      "channel": 0,
      "note": 37,
      "start": 44.1307,
      "duration": 0.0141,
      "velocity": 115,
      "chip": "ym2612"
    },
    {
      "channel": 4,
      "note": 55,
      "start": 44.1318,
      "duration": 0.0141,
      "velocity": 120,
      "chip": "ym2612"
    },
    {
      "channel": 3,
      "note": 62,
      "start": 44.1329,
      "duration": 0.0141,
      "velocity": 120,
      "chip": "ym2612"
    },
    {
      "channel": 2,
      "note": 52,
      "start": 44.1341,
      "duration": 0.0141,
      "velocity": 100,
      "chip": "ym2612"
    },
    {
      "channel": 0,
      "note": 37,
      "start": 44.1447,
      "duration": 0.0158,
      "velocity": 115,
      "chip": "ym2612"
    },
    {
      "channel": 4,
      "note": 55,
      "start": 44.1459,
      "duration": 0.0185,
      "velocity": 120,
      "chip": "ym2612"
    },
    {
      "channel": 3,
      "note": 62,
      "start": 44.147,
      "duration": 0.0185,
      "velocity": 120,
      "chip": "ym2612"
    },
    {
      "channel": 2,
      "note": 52,
      "start": 44.1482,
      "duration": 0.0185,
      "velocity": 100,
      "chip": "ym2612"
    },
    {
      "channel": 0,
      "note": 38,
      "start": 44.1605,
      "duration": 0.0161,
      "velocity": 115,
      "chip": "ym2612"
    },
    {
      "channel": 4,
      "note": 55,
      "start": 44.1644,
      "duration": 0.0161,
      "velocity": 120,
      "chip": "ym2612"
    },
    {
      "channel": 3,
      "note": 62,
      "start": 44.1655,
      "duration": 0.0161,
      "velocity": 120,
      "chip": "ym2612"
    },
    {
      "channel": 2,
      "note": 52,
      "start": 44.1667,
      "duration": 0.0161,
      "velocity": 100,
      "chip": "ym2612"
    },
    {
      "channel": 0,
      "note": 38,
      "start": 44.1766,
      "duration": 0.0161,
      "velocity": 115,
      "chip": "ym2612"
    },
    {
      "channel": 4,
      "note": 55,
      "start": 44.1805,
      "duration": 0.0134,
      "velocity": 120,
      "chip": "ym2612"
    },
    {
      "channel": 3,
      "note": 62,
      "start": 44.1816,
      "duration": 0.0158,
      "velocity": 120,
      "chip": "ym2612"
    },
    {
      "channel": 2,
      "note": 52,
      "start": 44.1828,
      "duration": 0.0157,
      "velocity": 100,
      "chip": "ym2612"
    },
    {
      "channel": 0,
      "note": 39,
      "start": 44.1927,
      "duration": 0.0161,
      "velocity": 115,
      "chip": "ym2612"
    },
    {
      "channel": 4,
      "note": 55,
      "start": 44.1938,
      "duration": 0.0161,
      "velocity": 120,
      "chip": "ym2612"
    },
    {
      "channel": 3,
      "note": 62,
      "start": 44.1974,
      "duration": 0.014,
      "velocity": 120,
      "chip": "ym2612"
    },
    {
      "channel": 2,
      "note": 52,
      "start": 44.1985,
      "duration": 0.0141,
      "velocity": 100,
      "chip": "ym2612"
    },
    {
      "channel": 0,
      "note": 39,
      "start": 44.2088,
      "duration": 0.0161,
      "velocity": 115,
      "chip": "ym2612"
    },
    {
      "channel": 4,
      "note": 55,
      "start": 44.2099,
      "duration": 0.0161,
      "velocity": 120,
      "chip": "ym2612"
    },
    {
      "channel": 3,
      "note": 62,
      "start": 44.2114,
      "duration": 0.0158,
      "velocity": 120,
      "chip": "ym2612"
    },
    {
      "channel": 2,
      "note": 52,
      "start": 44.2125,
      "duration": 0.0185,
      "velocity": 100,
      "chip": "ym2612"
    },
    {
      "channel": 0,
      "note": 40,
      "start": 44.2249,
      "duration": 0.0161,
      "velocity": 115,
      "chip": "ym2612"
    },
    {
      "channel": 4,
      "note": 55,
      "start": 44.2261,
      "duration": 0.0161,
      "velocity": 120,
      "chip": "ym2612"
    },
    {
      "channel": 3,
      "note": 62,
      "start": 44.2272,
      "duration": 0.0161,
      "velocity": 120,
      "chip": "ym2612"
    },
    {
      "channel": 2,
      "note": 52,
      "start": 44.231,
      "duration": 0.0161,
      "velocity": 100,
      "chip": "ym2612"
    },
    {
      "channel": 0,
      "note": 40,
      "start": 44.241,
      "duration": 0.0161,
      "velocity": 115,
      "chip": "ym2612"
    },
    {
      "channel": 4,
      "note": 55,
      "start": 44.2422,
      "duration": 0.0161,
      "velocity": 120,
      "chip": "ym2612"
    },
    {
      "channel": 3,
      "note": 62,
      "start": 44.2433,
      "duration": 0.0161,
      "velocity": 120,
      "chip": "ym2612"
    },
    {
      "channel": 2,
      "note": 52,
      "start": 44.2471,
      "duration": 0.0134,
      "velocity": 100,
      "chip": "ym2612"
    },
    {
      "channel": 0,
      "note": 40,
      "start": 44.2571,
      "duration": 0.0161,
      "velocity": 115,
      "chip": "ym2612"
    },
    {
      "channel": 4,
      "note": 55,
      "start": 44.2583,
      "duration": 0.0161,
      "velocity": 120,
      "chip": "ym2612"
    },
    {
      "channel": 3,
      "note": 62,
      "start": 44.2594,
      "duration": 0.0161,
      "velocity": 120,
      "chip": "ym2612"
    },
    {
      "channel": 2,
      "note": 52,
      "start": 44.2605,
      "duration": 0.0161,
      "velocity": 100,
      "chip": "ym2612"
    },
    {
      "channel": 0,
      "note": 41,
      "start": 44.2732,
      "duration": 0.0161,
      "velocity": 115,
      "chip": "ym2612"
    },
    {
      "channel": 4,
      "note": 55,
      "start": 44.2744,
      "duration": 0.0163,
      "velocity": 120,
      "chip": "ym2612"
    },
    {
      "channel": 3,
      "note": 62,
      "start": 44.2755,
      "duration": 0.0165,
      "velocity": 120,
      "chip": "ym2612"
    },
    {
      "channel": 2,
      "note": 52,
      "start": 44.2766,
      "duration": 0.0169,
      "velocity": 100,
      "chip": "ym2612"
    },
    {
      "channel": 0,
      "note": 41,
      "start": 44.2893,
      "duration": 0.0161,
      "velocity": 115,
      "chip": "ym2612"
    },
    {
      "channel": 4,
      "note": 54,
      "start": 44.2907,
      "duration": 0.0159,
      "velocity": 120,
      "chip": "ym2612"
    },
    {
      "channel": 3,
      "note": 61,
      "start": 44.2921,
      "duration": 0.0157,
      "velocity": 120,
      "chip": "ym2612"
    },
    {
      "channel": 2,
      "note": 52,
      "start": 44.2936,
      "duration": 0.0154,
      "velocity": 100,
      "chip": "ym2612"
    },
    {
      "channel": 0,
      "note": 42,
      "start": 44.3054,
      "duration": 0.0161,
      "velocity": 115,
      "chip": "ym2612"
    },
    {
      "channel": 4,
      "note": 54,
      "start": 44.3066,
      "duration": 0.016,
      "velocity": 120,
      "chip": "ym2612"
    },
    {
      "channel": 3,
      "note": 61,
      "start": 44.3078,
      "duration": 0.016,
      "velocity": 120,
      "chip": "ym2612"
    },
    {
      "channel": 2,
      "note": 52,
      "start": 44.309,
      "duration": 0.0159,
      "velocity": 100,
      "chip": "ym2612"
    },
    {
      "channel": 0,
      "note": 42,
      "start": 44.3215,
      "duration": 0.0161,
      "velocity": 115,
      "chip": "ym2612"
    },
    {
      "channel": 4,
      "note": 54,
      "start": 44.3227,
      "duration": 0.0161,
      "velocity": 120,
      "chip": "ym2612"
    },
    {
      "channel": 3,
      "note": 61,
      "start": 44.3238,
      "duration": 0.0161,
      "velocity": 120,
      "chip": "ym2612"
    },
    {
      "channel": 2,
      "note": 52,
      "start": 44.3249,
      "duration": 0.0161,
      "velocity": 100,
      "chip": "ym2612"
    },
    {
      "channel": 0,
      "note": 43,
      "start": 44.3376,
      "duration": 0.0161,
      "velocity": 115,
      "chip": "ym2612"
    },
    {
      "channel": 4,
      "note": 54,
      "start": 44.3387,
      "duration": 0.0161,
      "velocity": 120,
      "chip": "ym2612"
    },
    {
      "channel": 3,
      "note": 61,
      "start": 44.3399,
      "duration": 0.0161,
      "velocity": 120,
      "chip": "ym2612"
    },
    {
      "channel": 2,
      "note": 52,
      "start": 44.341,
      "duration": 0.0161,
      "velocity": 100,
      "chip": "ym2612"
    },
    {
      "channel": 0,
      "note": 43,
      "start": 44.3537,
      "duration": 0.0161,
      "velocity": 115,
      "chip": "ym2612"
    },
    {
      "channel": 4,
      "note": 54,
      "start": 44.3548,
      "duration": 0.0162,
      "velocity": 120,
      "chip": "ym2612"
    },
    {
      "channel": 3,
      "note": 61,
      "start": 44.356,
      "duration": 0.0161,
      "velocity": 120,
      "chip": "ym2612"
    },
    {
      "channel": 2,
      "note": 52,
      "start": 44.3571,
      "duration": 0.0161,
      "velocity": 100,
      "chip": "ym2612"
    },
    {
      "channel": 0,
      "note": 44,
      "start": 44.3698,
      "duration": 0.0161,
      "velocity": 115,
      "chip": "ym2612"
    },
    {
      "channel": 4,
      "note": 54,
      "start": 44.371,
      "duration": 0.0161,
      "velocity": 120,
      "chip": "ym2612"
    },
    {
      "channel": 3,
      "note": 61,
      "start": 44.3721,
      "duration": 0.0161,
      "velocity": 120,
      "chip": "ym2612"
    },
    {
      "channel": 2,
      "note": 52,
      "start": 44.3732,
      "duration": 0.0161,
      "velocity": 100,
      "chip": "ym2612"
    },
    {
      "channel": 0,
      "note": 44,
      "start": 44.3859,
      "duration": 0.0161,
      "velocity": 115,
      "chip": "ym2612"
    },
    {
      "channel": 4,
      "note": 54,
      "start": 44.3871,
      "duration": 0.0161,
      "velocity": 120,
      "chip": "ym2612"
    },
    {
      "channel": 3,
      "note": 61,
      "start": 44.3882,
      "duration": 0.0161,
      "velocity": 120,
      "chip": "ym2612"
    },
    {
      "channel": 2,
      "note": 52,
      "start": 44.3893,
      "duration": 0.0161,
      "velocity": 100,
      "chip": "ym2612"
    },
    {
      "channel": 0,
      "note": 44,
      "start": 44.402,
      "duration": 0.0161,
      "velocity": 115,
      "chip": "ym2612"
    },
    {
      "channel": 4,
      "note": 54,
      "start": 44.4032,
      "duration": 0.0161,
      "velocity": 120,
      "chip": "ym2612"
    },
    {
      "channel": 3,
      "note": 61,
      "start": 44.4043,
      "duration": 0.0161,
      "velocity": 120,
      "chip": "ym2612"
    },
    {
      "channel": 2,
      "note": 52,
      "start": 44.4054,
      "duration": 0.0161,
      "velocity": 100,
      "chip": "ym2612"
    },
    {
      "channel": 0,
      "note": 45,
      "start": 44.4181,
      "duration": 0.0161,
      "velocity": 115,
      "chip": "ym2612"
    },
    {
      "channel": 4,
      "note": 54,
      "start": 44.4193,
      "duration": 0.0161,
      "velocity": 120,
      "chip": "ym2612"
    },
    {
      "channel": 3,
      "note": 61,
      "start": 44.4204,
      "duration": 0.0161,
      "velocity": 120,
      "chip": "ym2612"
    },
    {
      "channel": 2,
      "note": 52,
      "start": 44.4215,
      "duration": 0.0162,
      "velocity": 100,
      "chip": "ym2612"
    },
    {
      "channel": 0,
      "note": 45,
      "start": 44.4342,
      "duration": 0.0161,
      "velocity": 115,
      "chip": "ym2612"
    },
    {
      "channel": 4,
      "note": 54,
      "start": 44.4354,
      "duration": 0.0161,
      "velocity": 120,
      "chip": "ym2612"
    },
    {
      "channel": 3,
      "note": 61,
      "start": 44.4365,
      "duration": 0.0161,
      "velocity": 120,
      "chip": "ym2612"
    },
    {
      "channel": 2,
      "note": 52,
      "start": 44.4377,
      "duration": 0.0161,
      "velocity": 100,
      "chip": "ym2612"
    },
    {
      "channel": 0,
      "note": 46,
      "start": 44.4503,
      "duration": 0.0161,
      "velocity": 115,
      "chip": "ym2612"
    },
    {
      "channel": 4,
      "note": 54,
      "start": 44.4515,
      "duration": 0.0161,
      "velocity": 120,
      "chip": "ym2612"
    },
    {
      "channel": 3,
      "note": 61,
      "start": 44.4526,
      "duration": 0.0161,
      "velocity": 120,
      "chip": "ym2612"
    },
    {
      "channel": 2,
      "note": 52,
      "start": 44.4537,
      "duration": 0.0161,
      "velocity": 100,
      "chip": "ym2612"
    },
    {
      "channel": 0,
      "note": 46,
      "start": 44.4664,
      "duration": 0.0179,
      "velocity": 124,
      "chip": "ym2612"
    },
    {
      "channel": 4,
      "note": 54,
      "start": 44.4676,
      "duration": 0.0181,
      "velocity": 120,
      "chip": "ym2612"
    },
    {
      "channel": 3,
      "note": 61,
      "start": 44.4687,
      "duration": 0.0184,
      "velocity": 120,
      "chip": "ym2612"
    },
    {
      "channel": 2,
      "note": 52,
      "start": 44.4698,
      "duration": 0.0187,
      "velocity": 100,
      "chip": "ym2612"
    },
    {
      "channel": 0,
      "note": 84,
      "start": 44.4843,
      "duration": 0.0144,
      "velocity": 124,
      "chip": "ym2612"
    },
    {
      "channel": 4,
      "note": 54,
      "start": 44.4858,
      "duration": 0.0142,
      "velocity": 120,
      "chip": "ym2612"
    },
    {
      "channel": 3,
      "note": 61,
      "start": 44.4871,
      "duration": 0.0141,
      "velocity": 120,
      "chip": "ym2612"
    },
    {
      "channel": 2,
      "note": 52,
      "start": 44.4885,
      "duration": 0.0138,
      "velocity": 100,
      "chip": "ym2612"
    },
    {
      "channel": 0,
      "note": 82,
      "start": 44.4987,
      "duration": 0.0167,
      "velocity": 124,
      "chip": "ym2612"
    },
    {
      "channel": 4,
      "note": 54,
      "start": 44.5,
      "duration": 0.0165,
      "velocity": 120,
      "chip": "ym2612"
    },
    {
      "channel": 3,
      "note": 61,
      "start": 44.5011,
      "duration": 0.0166,
      "velocity": 120,
      "chip": "ym2612"
    },
    {
      "channel": 2,
      "note": 52,
      "start": 44.5024,
      "duration": 0.0165,
      "velocity": 100,
      "chip": "ym2612"
    },
    {
      "channel": 0,
      "note": 80,
      "start": 44.5154,
      "duration": 0.0163,
      "velocity": 124,
      "chip": "ym2612"
    },
    {
      "channel": 4,
      "note": 54,
      "start": 44.5165,
      "duration": 0.0163,
      "velocity": 120,
      "chip": "ym2612"
    },
    {
      "channel": 3,
      "note": 61,
      "start": 44.5177,
      "duration": 0.0163,
      "velocity": 120,
      "chip": "ym2612"
    },
    {
      "channel": 2,
      "note": 52,
      "start": 44.5188,
      "duration": 0.0163,
      "velocity": 100,
      "chip": "ym2612"
    },
    {
      "channel": 0,
      "note": 77,
      "start": 44.5317,
      "duration": 0.0153,
      "velocity": 124,
      "chip": "ym2612"
    },
    {
      "channel": 4,
      "note": 54,
      "start": 44.5328,
      "duration": 0.0153,
      "velocity": 120,
      "chip": "ym2612"
    },
    {
      "channel": 3,
      "note": 61,
      "start": 44.534,
      "duration": 0.0153,
      "velocity": 120,
      "chip": "ym2612"
    },
    {
      "channel": 2,
      "note": 52,
      "start": 44.5351,
      "duration": 0.0153,
      "velocity": 100,
      "chip": "ym2612"
    },
    {
      "channel": 0,
      "note": 75,
      "start": 44.5469,
      "duration": 0.0185,
      "velocity": 124,
      "chip": "ym2612"
    },
    {
      "channel": 4,
      "note": 54,
      "start": 44.5481,
      "duration": 0.0184,
      "velocity": 120,
      "chip": "ym2612"
    },
    {
      "channel": 3,
      "note": 61,
      "start": 44.5492,
      "duration": 0.0185,
      "velocity": 120,
      "chip": "ym2612"
    },
    {
      "channel": 2,
      "note": 52,
      "start": 44.5504,
      "duration": 0.0184,
      "velocity": 100,
      "chip": "ym2612"
    },
    {
      "channel": 0,
      "note": 72,
      "start": 44.5654,
      "duration": 0.0165,
      "velocity": 124,
      "chip": "ym2612"
    },
    {
      "channel": 4,
      "note": 54,
      "start": 44.5665,
      "duration": 0.0165,
      "velocity": 120,
      "chip": "ym2612"
    },
    {
      "channel": 3,
      "note": 61,
      "start": 44.5677,
      "duration": 0.0165,
      "velocity": 120,
      "chip": "ym2612"
    },
    {
      "channel": 2,
      "note": 52,
      "start": 44.5688,
      "duration": 0.0165,
      "velocity": 100,
      "chip": "ym2612"
    },
    {
      "channel": 0,
      "note": 70,
      "start": 44.5819,
      "duration": 0.0157,
      "velocity": 124,
      "chip": "ym2612"
    },
    {
      "channel": 4,
      "note": 54,
      "start": 44.583,
      "duration": 0.0158,
      "velocity": 120,
      "chip": "ym2612"
    },
    {
      "channel": 3,
      "note": 61,
      "start": 44.5841,
      "duration": 0.0157,
      "velocity": 120,
      "chip": "ym2612"
    },
    {
      "channel": 2,
      "note": 52,
      "start": 44.5853,
      "duration": 0.0157,
      "velocity": 100,
      "chip": "ym2612"
    },
    {
      "channel": 0,
      "note": 68,
      "start": 44.5976,
      "duration": 0.0141,
      "velocity": 124,
      "chip": "ym2612"
    },
    {
      "channel": 4,
      "note": 54,
      "start": 44.5988,
      "duration": 0.014,
      "velocity": 120,
      "chip": "ym2612"
    },
    {
      "channel": 3,
      "note": 61,
      "start": 44.5999,
      "duration": 0.0141,
      "velocity": 120,
      "chip": "ym2612"
    },
    {
      "channel": 2,
      "note": 52,
      "start": 44.601,
      "duration": 0.0141,
      "velocity": 100,
      "chip": "ym2612"
    },
    {
      "channel": 0,
      "note": 65,
      "start": 44.6116,
      "duration": 0.0185,
      "velocity": 124,
      "chip": "ym2612"
    },
    {
      "channel": 4,
      "note": 54,
      "start": 44.6128,
      "duration": 0.0186,
      "velocity": 120,
      "chip": "ym2612"
    },
    {
      "channel": 3,
      "note": 61,
      "start": 44.6139,
      "duration": 0.0185,
      "velocity": 120,
      "chip": "ym2612"
    },
    {
      "channel": 2,
      "note": 52,
      "start": 44.6151,
      "duration": 0.0185,
      "velocity": 100,
      "chip": "ym2612"
    },
    {
      "channel": 0,
      "note": 63,
      "start": 44.6302,
      "duration": 0.0126,
      "velocity": 1,
      "chip": "ym2612"
    },
    {
      "channel": 4,
      "note": 54,
      "start": 44.6314,
      "duration": 0.0125,
      "velocity": 120,
      "chip": "ym2612"
    },
    {
      "channel": 3,
      "note": 61,
      "start": 44.6324,
      "duration": 0.0153,
      "velocity": 120,
      "chip": "ym2612"
    },
    {
      "channel": 2,
      "note": 52,
      "start": 44.6336,
      "duration": 0.0153,
      "velocity": 100,
      "chip": "ym2612"
    },
    {
      "channel": 4,
      "note": 54,
      "start": 44.6439,
      "duration": 0.0153,
      "velocity": 120,
      "chip": "ym2612"
    },
    {
      "channel": 3,
      "note": 61,
      "start": 44.6478,
      "duration": 0.0125,
      "velocity": 120,
      "chip": "ym2612"
    },
    {
      "channel": 2,
      "note": 52,
      "start": 44.6489,
      "duration": 0.0149,
      "velocity": 100,
      "chip": "ym2612"
    },
    {
      "channel": 4,
      "note": 54,
      "start": 44.6592,
      "duration": 0.0163,
      "velocity": 120,
      "chip": "ym2612"
    },
    {
      "channel": 3,
      "note": 61,
      "start": 44.6602,
      "duration": 0.0166,
      "velocity": 120,
      "chip": "ym2612"
    },
    {
      "channel": 2,
      "note": 52,
      "start": 44.6638,
      "duration": 0.0148,
      "velocity": 100,
      "chip": "ym2612"
    },
    {
      "channel": 4,
      "note": 52,
      "start": 44.6755,
      "duration": 0.0159,
      "velocity": 120,
      "chip": "ym2612"
    },
    {
      "channel": 3,
      "note": 59,
      "start": 44.6769,
      "duration": 0.0156,
      "velocity": 120,
      "chip": "ym2612"
    },
    {
      "channel": 2,
      "note": 52,
      "start": 44.6787,
      "duration": 0.0151,
      "velocity": 100,
      "chip": "ym2612"
    },
    {
      "channel": 4,
      "note": 52,
      "start": 44.6914,
      "duration": 0.016,
      "velocity": 120,
      "chip": "ym2612"
    },
    {
      "channel": 3,
      "note": 59,
      "start": 44.6926,
      "duration": 0.016,
      "velocity": 120,
      "chip": "ym2612"
    },
    {
      "channel": 2,
      "note": 52,
      "start": 44.6938,
      "duration": 0.0159,
      "velocity": 100,
      "chip": "ym2612"
    },
    {
      "channel": 4,
      "note": 52,
      "start": 44.7074,
      "duration": 0.0161,
      "velocity": 120,
      "chip": "ym2612"
    },
    {
      "channel": 3,
      "note": 59,
      "start": 44.7086,
      "duration": 0.0161,
      "velocity": 120,
      "chip": "ym2612"
    },
    {
      "channel": 2,
      "note": 52,
      "start": 44.7097,
      "duration": 0.0161,
      "velocity": 100,
      "chip": "ym2612"
    },
    {
      "channel": 4,
      "note": 52,
      "start": 44.7235,
      "duration": 0.0161,
      "velocity": 120,
      "chip": "ym2612"
    },
    {
      "channel": 3,
      "note": 59,
      "start": 44.7247,
      "duration": 0.0161,
      "velocity": 120,
      "chip": "ym2612"
    },
    {
      "channel": 2,
      "note": 52,
      "start": 44.7258,
      "duration": 0.0162,
      "velocity": 100,
      "chip": "ym2612"
    },
    {
      "channel": 4,
      "note": 52,
      "start": 44.7396,
      "duration": 0.0161,
      "velocity": 120,
      "chip": "ym2612"
    },
    {
      "channel": 3,
      "note": 59,
      "start": 44.7408,
      "duration": 0.0161,
      "velocity": 120,
      "chip": "ym2612"
    },
    {
      "channel": 2,
      "note": 52,
      "start": 44.7419,
      "duration": 0.0161,
      "velocity": 100,
      "chip": "ym2612"
    },
    {
      "channel": 4,
      "note": 52,
      "start": 44.7557,
      "duration": 0.0161,
      "velocity": 120,
      "chip": "ym2612"
    },
    {
      "channel": 3,
      "note": 59,
      "start": 44.7569,
      "duration": 0.0161,
      "velocity": 120,
      "chip": "ym2612"
    },
    {
      "channel": 2,
      "note": 52,
      "start": 44.758,
      "duration": 0.0161,
      "velocity": 100,
      "chip": "ym2612"
    },
    {
      "channel": 4,
      "note": 52,
      "start": 44.7718,
      "duration": 0.0161,
      "velocity": 120,
      "chip": "ym2612"
    },
    {
      "channel": 3,
      "note": 59,
      "start": 44.773,
      "duration": 0.0161,
      "velocity": 120,
      "chip": "ym2612"
    },
    {
      "channel": 2,
      "note": 52,
      "start": 44.7741,
      "duration": 0.0161,
      "velocity": 100,
      "chip": "ym2612"
    },
    {
      "channel": 4,
      "note": 52,
      "start": 44.7879,
      "duration": 0.0161,
      "velocity": 120,
      "chip": "ym2612"
    },
    {
      "channel": 3,
      "note": 59,
      "start": 44.789,
      "duration": 0.0161,
      "velocity": 120,
      "chip": "ym2612"
    },
    {
      "channel": 2,
      "note": 52,
      "start": 44.7902,
      "duration": 0.0161,
      "velocity": 100,
      "chip": "ym2612"
    },
    {
      "channel": 4,
      "note": 52,
      "start": 44.8041,
      "duration": 0.0161,
      "velocity": 120,
      "chip": "ym2612"
    },
    {
      "channel": 3,
      "note": 59,
      "start": 44.8051,
      "duration": 0.0161,
      "velocity": 120,
      "chip": "ym2612"
    },
    {
      "channel": 2,
      "note": 52,
      "start": 44.8063,
      "duration": 0.0161,
      "velocity": 100,
      "chip": "ym2612"
    },
    {
      "channel": 4,
      "note": 52,
      "start": 44.8202,
      "duration": 0.0161,
      "velocity": 120,
      "chip": "ym2612"
    },
    {
      "channel": 3,
      "note": 59,
      "start": 44.8212,
      "duration": 0.0161,
      "velocity": 120,
      "chip": "ym2612"
    },
    {
      "channel": 2,
      "note": 52,
      "start": 44.8224,
      "duration": 0.0161,
      "velocity": 100,
      "chip": "ym2612"
    },
    {
      "channel": 4,
      "note": 52,
      "start": 44.8363,
      "duration": 0.0161,
      "velocity": 120,
      "chip": "ym2612"
    },
    {
      "channel": 3,
      "note": 59,
      "start": 44.8374,
      "duration": 0.0161,
      "velocity": 120,
      "chip": "ym2612"
    },
    {
      "channel": 2,
      "note": 52,
      "start": 44.8385,
      "duration": 0.0161,
      "velocity": 100,
      "chip": "ym2612"
    },
    {
      "channel": 4,
      "note": 52,
      "start": 44.8524,
      "duration": 0.0198,
      "velocity": 120,
      "chip": "ym2612"
    },
    {
      "channel": 3,
      "note": 59,
      "start": 44.8535,
      "duration": 0.02,
      "velocity": 120,
      "chip": "ym2612"
    },
    {
      "channel": 2,
      "note": 52,
      "start": 44.8546,
      "duration": 0.0204,
      "velocity": 100,
      "chip": "ym2612"
    },
    {
      "channel": 0,
      "note": 36,
      "start": 44.8707,
      "duration": 0.0144,
      "velocity": 115,
      "chip": "ym2612"
    },
    {
      "channel": 4,
      "note": 52,
      "start": 44.8721,
      "duration": 0.0142,
      "velocity": 120,
      "chip": "ym2612"
    },
    {
      "channel": 3,
      "note": 59,
      "start": 44.8735,
      "duration": 0.0139,
      "velocity": 120,
      "chip": "ym2612"
    },
    {
      "channel": 2,
      "note": 52,
      "start": 44.875,
      "duration": 0.0137,
      "velocity": 100,
      "chip": "ym2612"
    },
    {
      "channel": 0,
      "note": 36,
      "start": 44.8851,
      "duration": 0.016,
      "velocity": 115,
      "chip": "ym2612"
    },
    {
      "channel": 4,
      "note": 52,
      "start": 44.8863,
      "duration": 0.016,
      "velocity": 120,
      "chip": "ym2612"
    },
    {
      "channel": 3,
      "note": 59,
      "start": 44.8875,
      "duration": 0.016,
      "velocity": 120,
      "chip": "ym2612"
    },
    {
      "channel": 2,
      "note": 52,
      "start": 44.8887,
      "duration": 0.0159,
      "velocity": 100,
      "chip": "ym2612"
    },
    {
      "channel": 0,
      "note": 37,
      "start": 44.9011,
      "duration": 0.0161,
      "velocity": 115,
      "chip": "ym2612"
    },
    {
      "channel": 4,
      "note": 52,
      "start": 44.9023,
      "duration": 0.0161,
      "velocity": 120,
      "chip": "ym2612"
    },
    {
      "channel": 3,
      "note": 59,
      "start": 44.9034,
      "duration": 0.0161,
      "velocity": 120,
      "chip": "ym2612"
    },
    {
      "channel": 2,
      "note": 52,
      "start": 44.9046,
      "duration": 0.0161,
      "velocity": 100,
      "chip": "ym2612"
    },
    {
      "channel": 0,
      "note": 37,
      "start": 44.9172,
      "duration": 0.0161,
      "velocity": 115,
      "chip": "ym2612"
    },
    {
      "channel": 4,
      "note": 52,
      "start": 44.9184,
      "duration": 0.0161,
      "velocity": 120,
      "chip": "ym2612"
    },
    {
      "channel": 3,
      "note": 59,
      "start": 44.9195,
      "duration": 0.0161,
      "velocity": 120,
      "chip": "ym2612"
    },
    {
      "channel": 2,
      "note": 52,
      "start": 44.9207,
      "duration": 0.0161,
      "velocity": 100,
      "chip": "ym2612"
    },
    {
      "channel": 0,
      "note": 38,
      "start": 44.9333,
      "duration": 0.0161,
      "velocity": 115,
      "chip": "ym2612"
    },
    {
      "channel": 4,
      "note": 52,
      "start": 44.9345,
      "duration": 0.0161,
      "velocity": 120,
      "chip": "ym2612"
    },
    {
      "channel": 3,
      "note": 59,
      "start": 44.9356,
      "duration": 0.0161,
      "velocity": 120,
      "chip": "ym2612"
    },
    {
      "channel": 2,
      "note": 52,
      "start": 44.9368,
      "duration": 0.0161,
      "velocity": 100,
      "chip": "ym2612"
    },
    {
      "channel": 0,
      "note": 38,
      "start": 44.9494,
      "duration": 0.0161,
      "velocity": 115,
      "chip": "ym2612"
    },
    {
      "channel": 4,
      "note": 52,
      "start": 44.9506,
      "duration": 0.0162,
      "velocity": 120,
      "chip": "ym2612"
    },
    {
      "channel": 3,
      "note": 59,
      "start": 44.9517,
      "duration": 0.0161,
      "velocity": 120,
      "chip": "ym2612"
    },
    {
      "channel": 2,
      "note": 52,
      "start": 44.9529,
      "duration": 0.0161,
      "velocity": 100,
      "chip": "ym2612"
    },
    {
      "channel": 0,
      "note": 39,
      "start": 44.9655,
      "duration": 0.0166,
      "velocity": 115,
      "chip": "ym2612"
    },
    {
      "channel": 4,
      "note": 52,
      "start": 44.9667,
      "duration": 0.0165,
      "velocity": 120,
      "chip": "ym2612"
    },
    {
      "channel": 3,
      "note": 59,
      "start": 44.9678,
      "duration": 0.0166,
      "velocity": 120,
      "chip": "ym2612"
    },
    {
      "channel": 2,
      "note": 52,
      "start": 44.969,
      "duration": 0.0165,
      "velocity": 100,
      "chip": "ym2612"
    },
    {
      "channel": 0,
      "note": 39,
      "start": 44.9821,
      "duration": 0.0163,
      "velocity": 115,
      "chip": "ym2612"
    },
    {
      "channel": 4,
      "note": 52,
      "start": 44.9832,
      "duration": 0.0163,
      "velocity": 120,
      "chip": "ym2612"
    },
    {
      "channel": 3,
      "note": 59,
      "start": 44.9844,
      "duration": 0.0163,
      "velocity": 120,
      "chip": "ym2612"
    },
    {
      "channel": 2,
      "note": 52,
      "start": 44.9854,
      "duration": 0.0163,
      "velocity": 100,
      "chip": "ym2612"
    },
    {
      "channel": 0,
      "note": 40,
      "start": 44.9983,
      "duration": 0.0155,
      "velocity": 115,
      "chip": "ym2612"
    },
    {
      "channel": 4,
      "note": 52,
      "start": 44.9995,
      "duration": 0.0155,
      "velocity": 120,
      "chip": "ym2612"
    },
    {
      "channel": 3,
      "note": 59,
      "start": 45.0006,
      "duration": 0.0155,
      "velocity": 120,
      "chip": "ym2612"
    },
    {
      "channel": 2,
      "note": 52,
      "start": 45.0018,
      "duration": 0.0155,
      "velocity": 100,
      "chip": "ym2612"
    },
    {
      "channel": 0,
      "note": 40,
      "start": 45.0139,
      "duration": 0.0182,
      "velocity": 115,
      "chip": "ym2612"
    },
    {
      "channel": 4,
      "note": 52,
      "start": 45.015,
      "duration": 0.0182,
      "velocity": 120,
      "chip": "ym2612"
    },
    {
      "channel": 3,
      "note": 59,
      "start": 45.0161,
      "duration": 0.0182,
      "velocity": 120,
      "chip": "ym2612"
    },
    {
      "channel": 2,
      "note": 52,
      "start": 45.0172,
      "duration": 0.0182,
      "velocity": 100,
      "chip": "ym2612"
    },
    {
      "channel": 0,
      "note": 40,
      "start": 45.0321,
      "duration": 0.0167,
      "velocity": 115,
      "chip": "ym2612"
    },
    {
      "channel": 4,
      "note": 52,
      "start": 45.0332,
      "duration": 0.0167,
      "velocity": 120,
      "chip": "ym2612"
    },
    {
      "channel": 3,
      "note": 59,
      "start": 45.0344,
      "duration": 0.0167,
      "velocity": 120,
      "chip": "ym2612"
    },
    {
      "channel": 2,
      "note": 52,
      "start": 45.0354,
      "duration": 0.0167,
      "velocity": 100,
      "chip": "ym2612"
    },
    {
      "channel": 0,
      "note": 41,
      "start": 45.0487,
      "duration": 0.0158,
      "velocity": 115,
      "chip": "ym2612"
    },
    {
      "channel": 4,
      "note": 52,
      "start": 45.0499,
      "duration": 0.016,
      "velocity": 120,
      "chip": "ym2612"
    },
    {
      "channel": 3,
      "note": 59,
      "start": 45.051,
      "duration": 0.0163,
      "velocity": 120,
      "chip": "ym2612"
    },
    {
      "channel": 2,
      "note": 52,
      "start": 45.0521,
      "duration": 0.0167,
      "velocity": 100,
      "chip": "ym2612"
    },
    {
      "channel": 0,
      "note": 41,
      "start": 45.0645,
      "duration": 0.0141,
      "velocity": 115,
      "chip": "ym2612"
    },
    {
      "channel": 4,
      "note": 57,
      "start": 45.066,
      "duration": 0.0138,
      "velocity": 120,
      "chip": "ym2612"
    },
    {
      "channel": 3,
      "note": 64,
      "start": 45.0674,
      "duration": 0.0136,
      "velocity": 120,
      "chip": "ym2612"
    },
    {
      "channel": 2,
      "note": 52,
      "start": 45.0688,
      "duration": 0.0134,
      "velocity": 100,
      "chip": "ym2612"
    },
    {
      "channel": 0,
      "note": 42,
      "start": 45.0786,
      "duration": 0.0185,
      "velocity": 115,
      "chip": "ym2612"
    },
    {
      "channel": 4,
      "note": 57,
      "start": 45.0798,
      "duration": 0.0184,
      "velocity": 120,
      "chip": "ym2612"
    },
    {
      "channel": 3,
      "note": 64,
      "start": 45.081,
      "duration": 0.0184,
      "velocity": 120,
      "chip": "ym2612"
    },
    {
      "channel": 2,
      "note": 52,
      "start": 45.0822,
      "duration": 0.0183,
      "velocity": 100,
      "chip": "ym2612"
    },
    {
      "channel": 0,
      "note": 42,
      "start": 45.0971,
      "duration": 0.0134,
      "velocity": 115,
      "chip": "ym2612"
    },
    {
      "channel": 4,
      "note": 57,
      "start": 45.0982,
      "duration": 0.0162,
      "velocity": 120,
      "chip": "ym2612"
    },
    {
      "channel": 3,
      "note": 64,
      "start": 45.0994,
      "duration": 0.0161,
      "velocity": 120,
      "chip": "ym2612"
    },
    {
      "channel": 2,
      "note": 52,
      "start": 45.1005,
      "duration": 0.0161,
      "velocity": 100,
      "chip": "ym2612"
    },
    {
      "channel": 0,
      "note": 43,
      "start": 45.1104,
      "duration": 0.0161,
      "velocity": 115,
      "chip": "ym2612"
    },
    {
      "channel": 4,
      "note": 57,
      "start": 45.1144,
      "duration": 0.0157,
      "velocity": 120,
      "chip": "ym2612"
    },
    {
      "channel": 3,
      "note": 64,
      "start": 45.1155,
      "duration": 0.0158,
      "velocity": 120,
      "chip": "ym2612"
    },
    {
      "channel": 2,
      "note": 52,
      "start": 45.1166,
      "duration": 0.0158,
      "velocity": 100,
      "chip": "ym2612"
    },
    {
      "channel": 0,
      "note": 43,
      "start": 45.1265,
      "duration": 0.0161,
      "velocity": 115,
      "chip": "ym2612"
    },
    {
      "channel": 4,
      "note": 57,
      "start": 45.1301,
      "duration": 0.0137,
      "velocity": 120,
      "chip": "ym2612"
    },
    {
      "channel": 3,
      "note": 64,
      "start": 45.1312,
      "duration": 0.0141,
      "velocity": 120,
      "chip": "ym2612"
    },
    {
      "channel": 2,
      "note": 52,
      "start": 45.1324,
      "duration": 0.014,
      "velocity": 100,
      "chip": "ym2612"
    },
    {
      "channel": 0,
      "note": 44,
      "start": 45.1426,
      "duration": 0.0161,
      "velocity": 115,
      "chip": "ym2612"
    },
    {
      "channel": 4,
      "note": 57,
      "start": 45.1438,
      "duration": 0.0161,
      "velocity": 120,
      "chip": "ym2612"
    },
    {
      "channel": 3,
      "note": 64,
      "start": 45.1453,
      "duration": 0.0185,
      "velocity": 120,
      "chip": "ym2612"
    },
    {
      "channel": 2,
      "note": 52,
      "start": 45.1464,
      "duration": 0.0186,
      "velocity": 100,
      "chip": "ym2612"
    },
    {
      "channel": 0,
      "note": 44,
      "start": 45.1588,
      "duration": 0.0161,
      "velocity": 115,
      "chip": "ym2612"
    },
    {
      "channel": 4,
      "note": 57,
      "start": 45.1599,
      "duration": 0.0161,
      "velocity": 120,
      "chip": "ym2612"
    },
    {
      "channel": 3,
      "note": 64,
      "start": 45.1638,
      "duration": 0.0134,
      "velocity": 120,
      "chip": "ym2612"
    },
    {
      "channel": 2,
      "note": 52,
      "start": 45.1649,
      "duration": 0.0161,
      "velocity": 100,
      "chip": "ym2612"
    },
    {
      "channel": 0,
      "note": 44,
      "start": 45.1749,
      "duration": 0.0161,
      "velocity": 115,
      "chip": "ym2612"
    },
    {
      "channel": 4,
      "note": 57,
      "start": 45.176,
      "duration": 0.0161,
      "velocity": 120,
      "chip": "ym2612"
    },
    {
      "channel": 3,
      "note": 64,
      "start": 45.1772,
      "duration": 0.0161,
      "velocity": 120,
      "chip": "ym2612"
    },
    {
      "channel": 2,
      "note": 52,
      "start": 45.181,
      "duration": 0.0157,
      "velocity": 100,
      "chip": "ym2612"
    },
    {
      "channel": 0,
      "note": 45,
      "start": 45.191,
      "duration": 0.0161,
      "velocity": 115,
      "chip": "ym2612"
    },
    {
      "channel": 4,
      "note": 57,
      "start": 45.1921,
      "duration": 0.0161,
      "velocity": 120,
      "chip": "ym2612"
    },
    {
      "channel": 3,
      "note": 64,
      "start": 45.1933,
      "duration": 0.0161,
      "velocity": 120,
      "chip": "ym2612"
    },
    {
      "channel": 2,
      "note": 52,
      "start": 45.1968,
      "duration": 0.0137,
      "velocity": 100,
      "chip": "ym2612"
    },
    {
      "channel": 0,
      "note": 45,
      "start": 45.2071,
      "duration": 0.0161,
      "velocity": 115,
      "chip": "ym2612"
    },
    {
      "channel": 4,
      "note": 57,
      "start": 45.2082,
      "duration": 0.0161,
      "velocity": 120,
      "chip": "ym2612"
    },
    {
      "channel": 3,
      "note": 64,
      "start": 45.2093,
      "duration": 0.0161,
      "velocity": 120,
      "chip": "ym2612"
    },
    {
      "channel": 2,
      "note": 52,
      "start": 45.2105,
      "duration": 0.0161,
      "velocity": 100,
      "chip": "ym2612"
    },
    {
      "channel": 0,
      "note": 46,
      "start": 45.2232,
      "duration": 0.0161,
      "velocity": 115,
      "chip": "ym2612"
    },
    {
      "channel": 4,
      "note": 57,
      "start": 45.2243,
      "duration": 0.0161,
      "velocity": 120,
      "chip": "ym2612"
    },
    {
      "channel": 3,
      "note": 64,
      "start": 45.2254,
      "duration": 0.0161,
      "velocity": 120,
      "chip": "ym2612"
    },
    {
      "channel": 2,
      "note": 52,
      "start": 45.2266,
      "duration": 0.0161,
      "velocity": 100,
      "chip": "ym2612"
    },
    {
      "channel": 0,
      "note": 46,
      "start": 45.2393,
      "duration": 0.0179,
      "velocity": 124,
      "chip": "ym2612"
    },
    {
      "channel": 4,
      "note": 57,
      "start": 45.2404,
      "duration": 0.0181,
      "velocity": 120,
      "chip": "ym2612"
    },
    {
      "channel": 3,
      "note": 64,
      "start": 45.2415,
      "duration": 0.0184,
      "velocity": 120,
      "chip": "ym2612"
    },
    {
      "channel": 2,
      "note": 52,
      "start": 45.2427,
      "duration": 0.0211,
      "velocity": 100,
      "chip": "ym2612"
    },
    {
      "channel": 0,
      "note": 84,
      "start": 45.2572,
      "duration": 0.0143,
      "velocity": 124,
      "chip": "ym2612"
    },
    {
      "channel": 4,
      "note": 57,
      "start": 45.2586,
      "duration": 0.0141,
      "velocity": 120,
      "chip": "ym2612"
    },
    {
      "channel": 3,
      "note": 64,
      "start": 45.26,
      "duration": 0.0139,
      "velocity": 120,
      "chip": "ym2612"
    },
    {
      "channel": 2,
      "note": 52,
      "start": 45.2638,
      "duration": 0.0113,
      "velocity": 100,
      "chip": "ym2612"
    },
    {
      "channel": 0,
      "note": 82,
      "start": 45.2715,
      "duration": 0.0161,
      "velocity": 124,
      "chip": "ym2612"
    },
    {
      "channel": 4,
      "note": 57,
      "start": 45.2727,
      "duration": 0.016,
      "velocity": 120,
      "chip": "ym2612"
    },
    {
      "channel": 3,
      "note": 64,
      "start": 45.2739,
      "duration": 0.016,
      "velocity": 120,
      "chip": "ym2612"
    },
    {
      "channel": 2,
      "note": 52,
      "start": 45.2751,
      "duration": 0.0159,
      "velocity": 100,
      "chip": "ym2612"
    },
    {
      "channel": 0,
      "note": 80,
      "start": 45.2876,
      "duration": 0.0161,
      "velocity": 124,
      "chip": "ym2612"
    },
    {
      "channel": 4,
      "note": 57,
      "start": 45.2887,
      "duration": 0.0161,
      "velocity": 120,
      "chip": "ym2612"
    },
    {
      "channel": 3,
      "note": 64,
      "start": 45.2899,
      "duration": 0.0161,
      "velocity": 120,
      "chip": "ym2612"
    },
    {
      "channel": 2,
      "note": 52,
      "start": 45.291,
      "duration": 0.0161,
      "velocity": 100,
      "chip": "ym2612"
    },
    {
      "channel": 0,
      "note": 77,
      "start": 45.3037,
      "duration": 0.0161,
      "velocity": 124,
      "chip": "ym2612"
    },
    {
      "channel": 4,
      "note": 57,
      "start": 45.3048,
      "duration": 0.0161,
      "velocity": 120,
      "chip": "ym2612"
    },
    {
      "channel": 3,
      "note": 64,
      "start": 45.306,
      "duration": 0.0161,
      "velocity": 120,
      "chip": "ym2612"
    },
    {
      "channel": 2,
      "note": 52,
      "start": 45.3071,
      "duration": 0.0161,
      "velocity": 100,
      "chip": "ym2612"
    },
    {
      "channel": 0,
      "note": 75,
      "start": 45.3198,
      "duration": 0.0161,
      "velocity": 124,
      "chip": "ym2612"
    },
    {
      "channel": 4,
      "note": 57,
      "start": 45.3209,
      "duration": 0.0161,
      "velocity": 120,
      "chip": "ym2612"
    },
    {
      "channel": 3,
      "note": 64,
      "start": 45.3221,
      "duration": 0.0161,
      "velocity": 120,
      "chip": "ym2612"
    },
    {
      "channel": 2,
      "note": 52,
      "start": 45.3232,
      "duration": 0.0162,
      "velocity": 100,
      "chip": "ym2612"
    },
    {
      "channel": 0,
      "note": 72,
      "start": 45.3359,
      "duration": 0.0161,
      "velocity": 124,
      "chip": "ym2612"
    },
    {
      "channel": 4,
      "note": 57,
      "start": 45.337,
      "duration": 0.0161,
      "velocity": 120,
      "chip": "ym2612"
    },
    {
      "channel": 3,
      "note": 64,
      "start": 45.3382,
      "duration": 0.0161,
      "velocity": 120,
      "chip": "ym2612"
    },
    {
      "channel": 2,
      "note": 52,
      "start": 45.3393,
      "duration": 0.016,
      "velocity": 100,
      "chip": "ym2612"
    },
    {
      "channel": 0,
      "note": 70,
      "start": 45.352,
      "duration": 0.0161,
      "velocity": 124,
      "chip": "ym2612"
    },
    {
      "channel": 4,
      "note": 57,
      "start": 45.3531,
      "duration": 0.0161,
      "velocity": 120,
      "chip": "ym2612"
    },
    {
      "channel": 3,
      "note": 64,
      "start": 45.3543,
      "duration": 0.0161,
      "velocity": 120,
      "chip": "ym2612"
    },
    {
      "channel": 2,
      "note": 52,
      "start": 45.3554,
      "duration": 0.0161,
      "velocity": 100,
      "chip": "ym2612"
    },
    {
      "channel": 0,
      "note": 68,
      "start": 45.3681,
      "duration": 0.0161,
      "velocity": 124,
      "chip": "ym2612"
    },
    {
      "channel": 4,
      "note": 57,
      "start": 45.3692,
      "duration": 0.0161,
      "velocity": 120,
      "chip": "ym2612"
    },
    {
      "channel": 3,
      "note": 64,
      "start": 45.3704,
      "duration": 0.0161,
      "velocity": 120,
      "chip": "ym2612"
    },
    {
      "channel": 2,
      "note": 52,
      "start": 45.3715,
      "duration": 0.0161,
      "velocity": 100,
      "chip": "ym2612"
    },
    {
      "channel": 0,
      "note": 65,
      "start": 45.3841,
      "duration": 0.0161,
      "velocity": 124,
      "chip": "ym2612"
    },
    {
      "channel": 4,
      "note": 57,
      "start": 45.3853,
      "duration": 0.0161,
      "velocity": 120,
      "chip": "ym2612"
    },
    {
      "channel": 3,
      "note": 64,
      "start": 45.3864,
      "duration": 0.0161,
      "velocity": 120,
      "chip": "ym2612"
    },
    {
      "channel": 2,
      "note": 52,
      "start": 45.3876,
      "duration": 0.0161,
      "velocity": 100,
      "chip": "ym2612"
    },
    {
      "channel": 0,
      "note": 63,
      "start": 45.4002,
      "duration": 0.0153,
      "velocity": 1,
      "chip": "ym2612"
    },
    {
      "channel": 4,
      "note": 57,
      "start": 45.4014,
      "duration": 0.0153,
      "velocity": 120,
      "chip": "ym2612"
    },
    {
      "channel": 3,
      "note": 64,
      "start": 45.4025,
      "duration": 0.0153,
      "velocity": 120,
      "chip": "ym2612"
    },
    {
      "channel": 2,
      "note": 52,
      "start": 45.4037,
      "duration": 0.0153,
      "velocity": 100,
      "chip": "ym2612"
    },
    {
      "channel": 4,
      "note": 57,
      "start": 45.4167,
      "duration": 0.0153,
      "velocity": 120,
      "chip": "ym2612"
    },
    {
      "channel": 3,
      "note": 64,
      "start": 45.4179,
      "duration": 0.0153,
      "velocity": 120,
      "chip": "ym2612"
    },
    {
      "channel": 2,
      "note": 52,
      "start": 45.419,
      "duration": 0.0153,
      "velocity": 100,
      "chip": "ym2612"
    },
    {
      "channel": 4,
      "note": 57,
      "start": 45.432,
      "duration": 0.0199,
      "velocity": 120,
      "chip": "ym2612"
    },
    {
      "channel": 3,
      "note": 64,
      "start": 45.4332,
      "duration": 0.0201,
      "velocity": 120,
      "chip": "ym2612"
    },
    {
      "channel": 2,
      "note": 52,
      "start": 45.4342,
      "duration": 0.0205,
      "velocity": 100,
      "chip": "ym2612"
    },
    {
      "channel": 0,
      "note": 36,
      "start": 45.4505,
      "duration": 0.0146,
      "velocity": 115,
      "chip": "ym2612"
    },
    {
      "channel": 4,
      "note": 55,
      "start": 45.4519,
      "duration": 0.0144,
      "velocity": 120,
      "chip": "ym2612"
    },
    {
      "channel": 3,
      "note": 62,
      "start": 45.4533,
      "duration": 0.0142,
      "velocity": 120,
      "chip": "ym2612"
    },
    {
      "channel": 2,
      "note": 52,
      "start": 45.4548,
      "duration": 0.0139,
      "velocity": 100,
      "chip": "ym2612"
    },
    {
      "channel": 0,
      "note": 36,
      "start": 45.4651,
      "duration": 0.0157,
      "velocity": 115,
      "chip": "ym2612"
    },
    {
      "channel": 4,
      "note": 55,
      "start": 45.4663,
      "duration": 0.0156,
      "velocity": 120,
      "chip": "ym2612"
    },
    {
      "channel": 3,
      "note": 62,
      "start": 45.4675,
      "duration": 0.0156,
      "velocity": 120,
      "chip": "ym2612"
    },
    {
      "channel": 2,
      "note": 52,
      "start": 45.4686,
      "duration": 0.0156,
      "velocity": 100,
      "chip": "ym2612"
    },
    {
      "channel": 0,
      "note": 37,
      "start": 45.4808,
      "duration": 0.0179,
      "velocity": 115,
      "chip": "ym2612"
    },
    {
      "channel": 4,
      "note": 55,
      "start": 45.4819,
      "duration": 0.0179,
      "velocity": 120,
      "chip": "ym2612"
    },
    {
      "channel": 3,
      "note": 62,
      "start": 45.4831,
      "duration": 0.0179,
      "velocity": 120,
      "chip": "ym2612"
    },
    {
      "channel": 2,
      "note": 52,
      "start": 45.4842,
      "duration": 0.0179,
      "velocity": 100,
      "chip": "ym2612"
    },
    {
      "channel": 0,
      "note": 37,
      "start": 45.4987,
      "duration": 0.0167,
      "velocity": 115,
      "chip": "ym2612"
    },
    {
      "channel": 4,
      "note": 55,
      "start": 45.4999,
      "duration": 0.0167,
      "velocity": 120,
      "chip": "ym2612"
    },
    {
      "channel": 3,
      "note": 62,
      "start": 45.501,
      "duration": 0.0167,
      "velocity": 120,
      "chip": "ym2612"
    },
    {
      "channel": 2,
      "note": 52,
      "start": 45.5021,
      "duration": 0.0167,
      "velocity": 100,
      "chip": "ym2612"
    },
    {
      "channel": 0,
      "note": 38,
      "start": 45.5154,
      "duration": 0.0161,
      "velocity": 115,
      "chip": "ym2612"
    },
    {
      "channel": 4,
      "note": 55,
      "start": 45.5165,
      "duration": 0.0161,
      "velocity": 120,
      "chip": "ym2612"
    },
    {
      "channel": 3,
      "note": 62,
      "start": 45.5177,
      "duration": 0.0161,
      "velocity": 120,
      "chip": "ym2612"
    },
    {
      "channel": 2,
      "note": 52,
      "start": 45.5188,
      "duration": 0.0161,
      "velocity": 100,
      "chip": "ym2612"
    },
    {
      "channel": 0,
      "note": 38,
      "start": 45.5315,
      "duration": 0.014,
      "velocity": 115,
      "chip": "ym2612"
    },
    {
      "channel": 4,
      "note": 55,
      "start": 45.5326,
      "duration": 0.0141,
      "velocity": 120,
      "chip": "ym2612"
    },
    {
      "channel": 3,
      "note": 62,
      "start": 45.5338,
      "duration": 0.014,
      "velocity": 120,
      "chip": "ym2612"
    },
    {
      "channel": 2,
      "note": 52,
      "start": 45.5349,
      "duration": 0.014,
      "velocity": 100,
      "chip": "ym2612"
    },
    {
      "channel": 0,
      "note": 39,
      "start": 45.5455,
      "duration": 0.0186,
      "velocity": 115,
      "chip": "ym2612"
    },
    {
      "channel": 4,
      "note": 55,
      "start": 45.5467,
      "duration": 0.0185,
      "velocity": 120,
      "chip": "ym2612"
    },
    {
      "channel": 3,
      "note": 62,
      "start": 45.5478,
      "duration": 0.0186,
      "velocity": 120,
      "chip": "ym2612"
    },
    {
      "channel": 2,
      "note": 52,
      "start": 45.5489,
      "duration": 0.0185,
      "velocity": 100,
      "chip": "ym2612"
    },
    {
      "channel": 0,
      "note": 39,
      "start": 45.5641,
      "duration": 0.0161,
      "velocity": 115,
      "chip": "ym2612"
    },
    {
      "channel": 4,
      "note": 55,
      "start": 45.5652,
      "duration": 0.0161,
      "velocity": 120,
      "chip": "ym2612"
    },
    {
      "channel": 3,
      "note": 62,
      "start": 45.5663,
      "duration": 0.0161,
      "velocity": 120,
      "chip": "ym2612"
    },
    {
      "channel": 2,
      "note": 52,
      "start": 45.5674,
      "duration": 0.0161,
      "velocity": 100,
      "chip": "ym2612"
    },
    {
      "channel": 0,
      "note": 40,
      "start": 45.5802,
      "duration": 0.0134,
      "velocity": 115,
      "chip": "ym2612"
    },
    {
      "channel": 4,
      "note": 55,
      "start": 45.5813,
      "duration": 0.0157,
      "velocity": 120,
      "chip": "ym2612"
    },
    {
      "channel": 3,
      "note": 62,
      "start": 45.5824,
      "duration": 0.0157,
      "velocity": 120,
      "chip": "ym2612"
    },
    {
      "channel": 2,
      "note": 52,
      "start": 45.5835,
      "duration": 0.0158,
      "velocity": 100,
      "chip": "ym2612"
    },
    {
      "channel": 0,
      "note": 40,
      "start": 45.5935,
      "duration": 0.0161,
      "velocity": 115,
      "chip": "ym2612"
    },
    {
      "channel": 4,
      "note": 55,
      "start": 45.597,
      "duration": 0.0141,
      "velocity": 120,
      "chip": "ym2612"
    },
    {
      "channel": 3,
      "note": 62,
      "start": 45.5982,
      "duration": 0.0141,
      "velocity": 120,
      "chip": "ym2612"
    },
    {
      "channel": 2,
      "note": 52,
      "start": 45.5993,
      "duration": 0.0141,
      "velocity": 100,
      "chip": "ym2612"
    },
    {
      "channel": 0,
      "note": 40,
      "start": 45.6096,
      "duration": 0.0161,
      "velocity": 115,
      "chip": "ym2612"
    },
    {
      "channel": 4,
      "note": 55,
      "start": 45.6111,
      "duration": 0.0158,
      "velocity": 120,
      "chip": "ym2612"
    },
    {
      "channel": 3,
      "note": 62,
      "start": 45.6122,
      "duration": 0.0185,
      "velocity": 120,
      "chip": "ym2612"
    },
    {
      "channel": 2,
      "note": 52,
      "start": 45.6134,
      "duration": 0.0185,
      "velocity": 100,
      "chip": "ym2612"
    },
    {
      "channel": 0,
      "note": 41,
      "start": 45.6257,
      "duration": 0.0179,
      "velocity": 115,
      "chip": "ym2612"
    },
    {
      "channel": 4,
      "note": 55,
      "start": 45.6268,
      "duration": 0.0209,
      "velocity": 120,
      "chip": "ym2612"
    },
    {
      "channel": 3,
      "note": 62,
      "start": 45.6307,
      "duration": 0.0184,
      "velocity": 120,
      "chip": "ym2612"
    },
    {
      "channel": 2,
      "note": 52,
      "start": 45.6319,
      "duration": 0.0187,
      "velocity": 100,
      "chip": "ym2612"
    },
    {
      "channel": 0,
      "note": 36,
      "start": 45.6436,
      "duration": 0.0144,
      "velocity": 115,
      "chip": "ym2612"
    },
    {
      "channel": 4,
      "note": 55,
      "start": 45.6478,
      "duration": 0.0114,
      "velocity": 120,
      "chip": "ym2612"
    },
    {
      "channel": 3,
      "note": 62,
      "start": 45.6492,
      "duration": 0.0112,
      "velocity": 120,
      "chip": "ym2612"
    },
    {
      "channel": 2,
      "note": 52,
      "start": 45.6506,
      "duration": 0.0133,
      "velocity": 100,
      "chip": "ym2612"
    },
    {
      "channel": 0,
      "note": 36,
      "start": 45.658,
      "duration": 0.016,
      "velocity": 115,
      "chip": "ym2612"
    },
    {
      "channel": 4,
      "note": 55,
      "start": 45.6592,
      "duration": 0.016,
      "velocity": 120,
      "chip": "ym2612"
    },
    {
      "channel": 3,
      "note": 62,
      "start": 45.6604,
      "duration": 0.0159,
      "velocity": 120,
      "chip": "ym2612"
    },
    {
      "channel": 2,
      "note": 52,
      "start": 45.6639,
      "duration": 0.0138,
      "velocity": 100,
      "chip": "ym2612"
    },
    {
      "channel": 0,
      "note": 37,
      "start": 45.674,
      "duration": 0.0161,
      "velocity": 115,
      "chip": "ym2612"
    },
    {
      "channel": 4,
      "note": 55,
      "start": 45.6751,
      "duration": 0.0162,
      "velocity": 120,
      "chip": "ym2612"
    },
    {
      "channel": 3,
      "note": 62,
      "start": 45.6763,
      "duration": 0.0161,
      "velocity": 120,
      "chip": "ym2612"
    },
    {
      "channel": 2,
      "note": 52,
      "start": 45.6777,
      "duration": 0.0158,
      "velocity": 100,
      "chip": "ym2612"
    },
    {
      "channel": 0,
      "note": 37,
      "start": 45.6901,
      "duration": 0.0161,
      "velocity": 115,
      "chip": "ym2612"
    },
    {
      "channel": 4,
      "note": 55,
      "start": 45.6913,
      "duration": 0.0161,
      "velocity": 120,
      "chip": "ym2612"
    },
    {
      "channel": 3,
      "note": 62,
      "start": 45.6924,
      "duration": 0.0161,
      "velocity": 120,
      "chip": "ym2612"
    },
    {
      "channel": 2,
      "note": 52,
      "start": 45.6935,
      "duration": 0.0161,
      "velocity": 100,
      "chip": "ym2612"
    },
    {
      "channel": 0,
      "note": 38,
      "start": 45.7062,
      "duration": 0.0161,
      "velocity": 115,
      "chip": "ym2612"
    },
    {
      "channel": 4,
      "note": 55,
      "start": 45.7074,
      "duration": 0.0161,
      "velocity": 120,
      "chip": "ym2612"
    },
    {
      "channel": 3,
      "note": 62,
      "start": 45.7085,
      "duration": 0.0161,
      "velocity": 120,
      "chip": "ym2612"
    },
    {
      "channel": 2,
      "note": 52,
      "start": 45.7096,
      "duration": 0.0161,
      "velocity": 100,
      "chip": "ym2612"
    },
    {
      "channel": 0,
      "note": 38,
      "start": 45.7223,
      "duration": 0.0161,
      "velocity": 115,
      "chip": "ym2612"
    },
    {
      "channel": 4,
      "note": 55,
      "start": 45.7235,
      "duration": 0.0161,
      "velocity": 120,
      "chip": "ym2612"
    },
    {
      "channel": 3,
      "note": 62,
      "start": 45.7246,
      "duration": 0.0161,
      "velocity": 120,
      "chip": "ym2612"
    },
    {
      "channel": 2,
      "note": 52,
      "start": 45.7257,
      "duration": 0.0161,
      "velocity": 100,
      "chip": "ym2612"
    },
    {
      "channel": 0,
      "note": 39,
      "start": 45.7384,
      "duration": 0.0161,
      "velocity": 115,
      "chip": "ym2612"
    },
    {
      "channel": 4,
      "note": 55,
      "start": 45.7396,
      "duration": 0.0161,
      "velocity": 120,
      "chip": "ym2612"
    },
    {
      "channel": 3,
      "note": 62,
      "start": 45.7407,
      "duration": 0.0161,
      "velocity": 120,
      "chip": "ym2612"
    },
    {
      "channel": 2,
      "note": 52,
      "start": 45.7418,
      "duration": 0.0161,
      "velocity": 100,
      "chip": "ym2612"
    },
    {
      "channel": 0,
      "note": 39,
      "start": 45.7545,
      "duration": 0.0161,
      "velocity": 115,
      "chip": "ym2612"
    },
    {
      "channel": 4,
      "note": 55,
      "start": 45.7557,
      "duration": 0.0161,
      "velocity": 120,
      "chip": "ym2612"
    },
    {
      "channel": 3,
      "note": 62,
      "start": 45.7568,
      "duration": 0.0161,
      "velocity": 120,
      "chip": "ym2612"
    },
    {
      "channel": 2,
      "note": 52,
      "start": 45.7579,
      "duration": 0.0161,
      "velocity": 100,
      "chip": "ym2612"
    },
    {
      "channel": 0,
      "note": 40,
      "start": 45.7706,
      "duration": 0.0161,
      "velocity": 115,
      "chip": "ym2612"
    },
    {
      "channel": 4,
      "note": 55,
      "start": 45.7717,
      "duration": 0.0161,
      "velocity": 120,
      "chip": "ym2612"
    },
    {
      "channel": 3,
      "note": 62,
      "start": 45.7729,
      "duration": 0.0161,
      "velocity": 120,
      "chip": "ym2612"
    },
    {
      "channel": 2,
      "note": 52,
      "start": 45.774,
      "duration": 0.0161,
      "velocity": 100,
      "chip": "ym2612"
    },
    {
      "channel": 0,
      "note": 40,
      "start": 45.7867,
      "duration": 0.0161,
      "velocity": 115,
      "chip": "ym2612"
    },
    {
      "channel": 4,
      "note": 55,
      "start": 45.7878,
      "duration": 0.0161,
      "velocity": 120,
      "chip": "ym2612"
    },
    {
      "channel": 3,
      "note": 62,
      "start": 45.789,
      "duration": 0.0161,
      "velocity": 120,
      "chip": "ym2612"
    },
    {
      "channel": 2,
      "note": 52,
      "start": 45.7901,
      "duration": 0.0161,
      "velocity": 100,
      "chip": "ym2612"
    },
    {
      "channel": 0,
      "note": 40,
      "start": 45.8028,
      "duration": 0.0161,
      "velocity": 115,
      "chip": "ym2612"
    },
    {
      "channel": 4,
      "note": 55,
      "start": 45.8039,
      "duration": 0.0161,
      "velocity": 120,
      "chip": "ym2612"
    },
    {
      "channel": 3,
      "note": 62,
      "start": 45.8051,
      "duration": 0.0161,
      "velocity": 120,
      "chip": "ym2612"
    },
    {
      "channel": 2,
      "note": 52,
      "start": 45.8062,
      "duration": 0.0161,
      "velocity": 100,
      "chip": "ym2612"
    },
    {
      "channel": 0,
      "note": 41,
      "start": 45.8189,
      "duration": 0.0179,
      "velocity": 115,
      "chip": "ym2612"
    },
    {
      "channel": 4,
      "note": 55,
      "start": 45.82,
      "duration": 0.0181,
      "velocity": 120,
      "chip": "ym2612"
    },
    {
      "channel": 3,
      "note": 62,
      "start": 45.8212,
      "duration": 0.0184,
      "velocity": 120,
      "chip": "ym2612"
    },
    {
      "channel": 2,
      "note": 52,
      "start": 45.8223,
      "duration": 0.0187,
      "velocity": 100,
      "chip": "ym2612"
    },
    {
      "channel": 0,
      "note": 36,
      "start": 45.8368,
      "duration": 0.0144,
      "velocity": 115,
      "chip": "ym2612"
    },
    {
      "channel": 4,
      "note": 54,
      "start": 45.8382,
      "duration": 0.0141,
      "velocity": 120,
      "chip": "ym2612"
    },
    {
      "channel": 3,
      "note": 61,
      "start": 45.8396,
      "duration": 0.014,
      "velocity": 120,
      "chip": "ym2612"
    },
    {
      "channel": 2,
      "note": 52,
      "start": 45.841,
      "duration": 0.0137,
      "velocity": 100,
      "chip": "ym2612"
    },
    {
      "channel": 0,
      "note": 36,
      "start": 45.8511,
      "duration": 0.016,
      "velocity": 115,
      "chip": "ym2612"
    },
    {
      "channel": 4,
      "note": 54,
      "start": 45.8524,
      "duration": 0.016,
      "velocity": 120,
      "chip": "ym2612"
    },
    {
      "channel": 3,
      "note": 61,
      "start": 45.8536,
      "duration": 0.0159,
      "velocity": 120,
      "chip": "ym2612"
    },
    {
      "channel": 2,
      "note": 52,
      "start": 45.8548,
      "duration": 0.0159,
      "velocity": 100,
      "chip": "ym2612"
    },
    {
      "channel": 0,
      "note": 37,
      "start": 45.8672,
      "duration": 0.0162,
      "velocity": 115,
      "chip": "ym2612"
    },
    {
      "channel": 4,
      "note": 54,
      "start": 45.8684,
      "duration": 0.0161,
      "velocity": 120,
      "chip": "ym2612"
    },
    {
      "channel": 3,
      "note": 61,
      "start": 45.8695,
      "duration": 0.0162,
      "velocity": 120,
      "chip": "ym2612"
    },
    {
      "channel": 2,
      "note": 52,
      "start": 45.8706,
      "duration": 0.0161,
      "velocity": 100,
      "chip": "ym2612"
    },
    {
      "channel": 0,
      "note": 37,
      "start": 45.8833,
      "duration": 0.0161,
      "velocity": 115,
      "chip": "ym2612"
    },
    {
      "channel": 4,
      "note": 54,
      "start": 45.8845,
      "duration": 0.0161,
      "velocity": 120,
      "chip": "ym2612"
    },
    {
      "channel": 3,
      "note": 61,
      "start": 45.8856,
      "duration": 0.0161,
      "velocity": 120,
      "chip": "ym2612"
    },
    {
      "channel": 2,
      "note": 52,
      "start": 45.8867,
      "duration": 0.0161,
      "velocity": 100,
      "chip": "ym2612"
    },
    {
      "channel": 0,
      "note": 38,
      "start": 45.8994,
      "duration": 0.0161,
      "velocity": 115,
      "chip": "ym2612"
    },
    {
      "channel": 4,
      "note": 54,
      "start": 45.9006,
      "duration": 0.0161,
      "velocity": 120,
      "chip": "ym2612"
    },
    {
      "channel": 3,
      "note": 61,
      "start": 45.9017,
      "duration": 0.0161,
      "velocity": 120,
      "chip": "ym2612"
    },
    {
      "channel": 2,
      "note": 52,
      "start": 45.9028,
      "duration": 0.0162,
      "velocity": 100,
      "chip": "ym2612"
    },
    {
      "channel": 0,
      "note": 38,
      "start": 45.9155,
      "duration": 0.0162,
      "velocity": 115,
      "chip": "ym2612"
    },
    {
      "channel": 4,
      "note": 54,
      "start": 45.9167,
      "duration": 0.0161,
      "velocity": 120,
      "chip": "ym2612"
    },
    {
      "channel": 3,
      "note": 61,
      "start": 45.9178,
      "duration": 0.0162,
      "velocity": 120,
      "chip": "ym2612"
    },
    {
      "channel": 2,
      "note": 52,
      "start": 45.919,
      "duration": 0.0161,
      "velocity": 100,
      "chip": "ym2612"
    },
    {
      "channel": 0,
      "note": 39,
      "start": 45.9317,
      "duration": 0.016,
      "velocity": 115,
      "chip": "ym2612"
    },
    {
      "channel": 4,
      "note": 54,
      "start": 45.9328,
      "duration": 0.016,
      "velocity": 120,
      "chip": "ym2612"
    },
    {
      "channel": 3,
      "note": 61,
      "start": 45.934,
      "duration": 0.016,
      "velocity": 120,
      "chip": "ym2612"
    },
    {
      "channel": 2,
      "note": 52,
      "start": 45.9351,
      "duration": 0.016,
      "velocity": 100,
      "chip": "ym2612"
    },
    {
      "channel": 0,
      "note": 39,
      "start": 45.9477,
      "duration": 0.0177,
      "velocity": 115,
      "chip": "ym2612"
    },
    {
      "channel": 4,
      "note": 54,
      "start": 45.9488,
      "duration": 0.0177,
      "velocity": 120,
      "chip": "ym2612"
    },
    {
      "channel": 3,
      "note": 61,
      "start": 45.95,
      "duration": 0.0177,
      "velocity": 120,
      "chip": "ym2612"
    },
    {
      "channel": 2,
      "note": 52,
      "start": 45.9511,
      "duration": 0.0177,
      "velocity": 100,
      "chip": "ym2612"
    },
    {
      "channel": 0,
      "note": 40,
      "start": 45.9654,
      "duration": 0.0167,
      "velocity": 115,
      "chip": "ym2612"
    },
    {
      "channel": 4,
      "note": 54,
      "start": 45.9665,
      "duration": 0.0167,
      "velocity": 120,
      "chip": "ym2612"
    },
    {
      "channel": 3,
      "note": 61,
      "start": 45.9677,
      "duration": 0.0167,
      "velocity": 120,
      "chip": "ym2612"
    },
    {
      "channel": 2,
      "note": 52,
      "start": 45.9688,
      "duration": 0.0166,
      "velocity": 100,
      "chip": "ym2612"
    },
    {
      "channel": 0,
      "note": 40,
      "start": 45.9821,
      "duration": 0.0163,
      "velocity": 115,
      "chip": "ym2612"
    },
    {
      "channel": 4,
      "note": 54,
      "start": 45.9832,
      "duration": 0.0163,
      "velocity": 120,
      "chip": "ym2612"
    },
    {
      "channel": 3,
      "note": 61,
      "start": 45.9844,
      "duration": 0.0163,
      "velocity": 120,
      "chip": "ym2612"
    },
    {
      "channel": 2,
      "note": 52,
      "start": 45.9854,
      "duration": 0.0163,
      "velocity": 100,
      "chip": "ym2612"
    },
    {
      "channel": 0,
      "note": 40,
      "start": 45.9983,
      "duration": 0.0141,
      "velocity": 115,
      "chip": "ym2612"
    },
    {
      "channel": 4,
      "note": 54,
      "start": 45.9995,
      "duration": 0.0141,
      "velocity": 120,
      "chip": "ym2612"
    },
    {
      "channel": 3,
      "note": 61,
      "start": 46.0006,
      "duration": 0.0141,
      "velocity": 120,
      "chip": "ym2612"
    },
    {
      "channel": 2,
      "note": 52,
      "start": 46.0018,
      "duration": 0.0141,
      "velocity": 100,
      "chip": "ym2612"
    },
    {
      "channel": 0,
      "note": 41,
      "start": 46.0125,
      "duration": 0.0202,
      "velocity": 124,
      "chip": "ym2612"
    },
    {
      "channel": 4,
      "note": 54,
      "start": 46.0136,
      "duration": 0.0205,
      "velocity": 120,
      "chip": "ym2612"
    },
    {
      "channel": 3,
      "note": 61,
      "start": 46.0148,
      "duration": 0.0208,
      "velocity": 120,
      "chip": "ym2612"
    },
    {
      "channel": 2,
      "note": 52,
      "start": 46.0158,
      "duration": 0.0211,
      "velocity": 100,
      "chip": "ym2612"
    },
    {
      "channel": 0,
      "note": 84,
      "start": 46.0328,
      "duration": 0.0144,
      "velocity": 124,
      "chip": "ym2612"
    },
    {
      "channel": 4,
      "note": 54,
      "start": 46.0341,
      "duration": 0.0142,
      "velocity": 120,
      "chip": "ym2612"
    },
    {
      "channel": 3,
      "note": 61,
      "start": 46.0356,
      "duration": 0.0139,
      "velocity": 120,
      "chip": "ym2612"
    },
    {
      "channel": 2,
      "note": 52,
      "start": 46.037,
      "duration": 0.0137,
      "velocity": 100,
      "chip": "ym2612"
    },
    {
      "channel": 0,
      "note": 82,
      "start": 46.0471,
      "duration": 0.0133,
      "velocity": 124,
      "chip": "ym2612"
    },
    {
      "channel": 4,
      "note": 54,
      "start": 46.0483,
      "duration": 0.0156,
      "velocity": 120,
      "chip": "ym2612"
    },
    {
      "channel": 3,
      "note": 61,
      "start": 46.0495,
      "duration": 0.0156,
      "velocity": 120,
      "chip": "ym2612"
    },
    {
      "channel": 2,
      "note": 52,
      "start": 46.0507,
      "duration": 0.0155,
      "velocity": 100,
      "chip": "ym2612"
    },
    {
      "channel": 0,
      "note": 80,
      "start": 46.0604,
      "duration": 0.0161,
      "velocity": 124,
      "chip": "ym2612"
    },
    {
      "channel": 4,
      "note": 54,
      "start": 46.0639,
      "duration": 0.0141,
      "velocity": 120,
      "chip": "ym2612"
    },
    {
      "channel": 3,
      "note": 61,
      "start": 46.0651,
      "duration": 0.0141,
      "velocity": 120,
      "chip": "ym2612"
    },
    {
      "channel": 2,
      "note": 52,
      "start": 46.0662,
      "duration": 0.0141,
      "velocity": 100,
      "chip": "ym2612"
    },
    {
      "channel": 0,
      "note": 77,
      "start": 46.0765,
      "duration": 0.0161,
      "velocity": 124,
      "chip": "ym2612"
    },
    {
      "channel": 4,
      "note": 54,
      "start": 46.078,
      "duration": 0.0158,
      "velocity": 120,
      "chip": "ym2612"
    },
    {
      "channel": 3,
      "note": 61,
      "start": 46.0791,
      "duration": 0.0185,
      "velocity": 120,
      "chip": "ym2612"
    },
    {
      "channel": 2,
      "note": 52,
      "start": 46.0803,
      "duration": 0.0185,
      "velocity": 100,
      "chip": "ym2612"
    },
    {
      "channel": 0,
      "note": 75,
      "start": 46.0926,
      "duration": 0.0161,
      "velocity": 124,
      "chip": "ym2612"
    },
    {
      "channel": 4,
      "note": 54,
      "start": 46.0938,
      "duration": 0.0161,
      "velocity": 120,
      "chip": "ym2612"
    },
    {
      "channel": 3,
      "note": 61,
      "start": 46.0976,
      "duration": 0.0161,
      "velocity": 120,
      "chip": "ym2612"
    },
    {
      "channel": 2,
      "note": 52,
      "start": 46.0988,
      "duration": 0.0161,
      "velocity": 100,
      "chip": "ym2612"
    },
    {
      "channel": 0,
      "note": 72,
      "start": 46.1087,
      "duration": 0.0161,
      "velocity": 124,
      "chip": "ym2612"
    },
    {
      "channel": 4,
      "note": 54,
      "start": 46.1099,
      "duration": 0.0161,
      "velocity": 120,
      "chip": "ym2612"
    },
    {
      "channel": 3,
      "note": 61,
      "start": 46.1137,
      "duration": 0.0134,
      "velocity": 120,
      "chip": "ym2612"
    },
    {
      "channel": 2,
      "note": 52,
      "start": 46.1149,
      "duration": 0.0158,
      "velocity": 100,
      "chip": "ym2612"
    },
    {
      "channel": 0,
      "note": 70,
      "start": 46.1248,
      "duration": 0.0161,
      "velocity": 124,
      "chip": "ym2612"
    },
    {
      "channel": 4,
      "note": 54,
      "start": 46.126,
      "duration": 0.0161,
      "velocity": 120,
      "chip": "ym2612"
    },
    {
      "channel": 3,
      "note": 61,
      "start": 46.1271,
      "duration": 0.0161,
      "velocity": 120,
      "chip": "ym2612"
    },
    {
      "channel": 2,
      "note": 52,
      "start": 46.1307,
      "duration": 0.014,
      "velocity": 100,
      "chip": "ym2612"
    },
    {
      "channel": 0,
      "note": 68,
      "start": 46.1409,
      "duration": 0.0161,
      "velocity": 124,
      "chip": "ym2612"
    },
    {
      "channel": 4,
      "note": 54,
      "start": 46.1421,
      "duration": 0.0161,
      "velocity": 120,
      "chip": "ym2612"
    },
    {
      "channel": 3,
      "note": 61,
      "start": 46.1432,
      "duration": 0.0161,
      "velocity": 120,
      "chip": "ym2612"
    },
    {
      "channel": 2,
      "note": 52,
      "start": 46.1446,
      "duration": 0.0158,
      "velocity": 100,
      "chip": "ym2612"
    },
    {
      "channel": 0,
      "note": 65,
      "start": 46.157,
      "duration": 0.0161,
      "velocity": 124,
      "chip": "ym2612"
    },
    {
      "channel": 4,
      "note": 54,
      "start": 46.1582,
      "duration": 0.0161,
      "velocity": 120,
      "chip": "ym2612"
    },
    {
      "channel": 3,
      "note": 61,
      "start": 46.1593,
      "duration": 0.0161,
      "velocity": 120,
      "chip": "ym2612"
    },
    {
      "channel": 2,
      "note": 52,
      "start": 46.1604,
      "duration": 0.0161,
      "velocity": 100,
      "chip": "ym2612"
    },
    {
      "channel": 0,
      "note": 63,
      "start": 46.1732,
      "duration": 0.0153,
      "velocity": 1,
      "chip": "ym2612"
    },
    {
      "channel": 4,
      "note": 54,
      "start": 46.1743,
      "duration": 0.0153,
      "velocity": 120,
      "chip": "ym2612"
    },
    {
      "channel": 3,
      "note": 61,
      "start": 46.1754,
      "duration": 0.0153,
      "velocity": 120,
      "chip": "ym2612"
    },
    {
      "channel": 2,
      "note": 52,
      "start": 46.1765,
      "duration": 0.0153,
      "velocity": 100,
      "chip": "ym2612"
    },
    {
      "channel": 4,
      "note": 54,
      "start": 46.1896,
      "duration": 0.0153,
      "velocity": 120,
      "chip": "ym2612"
    },
    {
      "channel": 3,
      "note": 61,
      "start": 46.1907,
      "duration": 0.0153,
      "velocity": 120,
      "chip": "ym2612"
    },
    {
      "channel": 2,
      "note": 52,
      "start": 46.1919,
      "duration": 0.0153,
      "velocity": 100,
      "chip": "ym2612"
    },
    {
      "channel": 4,
      "note": 54,
      "start": 46.2048,
      "duration": 0.0163,
      "velocity": 120,
      "chip": "ym2612"
    },
    {
      "channel": 3,
      "note": 61,
      "start": 46.206,
      "duration": 0.0165,
      "velocity": 120,
      "chip": "ym2612"
    },
    {
      "channel": 2,
      "note": 52,
      "start": 46.2071,
      "duration": 0.0169,
      "velocity": 100,
      "chip": "ym2612"
    },
    {
      "channel": 4,
      "note": 52,
      "start": 46.2212,
      "duration": 0.0159,
      "velocity": 120,
      "chip": "ym2612"
    },
    {
      "channel": 3,
      "note": 59,
      "start": 46.2226,
      "duration": 0.0157,
      "velocity": 120,
      "chip": "ym2612"
    },
    {
      "channel": 2,
      "note": 52,
      "start": 46.224,
      "duration": 0.0155,
      "velocity": 100,
      "chip": "ym2612"
    },
    {
      "channel": 4,
      "note": 52,
      "start": 46.2371,
      "duration": 0.016,
      "velocity": 120,
      "chip": "ym2612"
    },
    {
      "channel": 3,
      "note": 59,
      "start": 46.2383,
      "duration": 0.016,
      "velocity": 120,
      "chip": "ym2612"
    },
    {
      "channel": 2,
      "note": 52,
      "start": 46.2395,
      "duration": 0.0159,
      "velocity": 100,
      "chip": "ym2612"
    },
    {
      "channel": 4,
      "note": 52,
      "start": 46.2531,
      "duration": 0.0162,
      "velocity": 120,
      "chip": "ym2612"
    },
    {
      "channel": 3,
      "note": 59,
      "start": 46.2543,
      "duration": 0.0161,
      "velocity": 120,
      "chip": "ym2612"
    },
    {
      "channel": 2,
      "note": 52,
      "start": 46.2554,
      "duration": 0.0161,
      "velocity": 100,
      "chip": "ym2612"
    },
    {
      "channel": 4,
      "note": 52,
      "start": 46.2693,
      "duration": 0.0161,
      "velocity": 120,
      "chip": "ym2612"
    },
    {
      "channel": 3,
      "note": 59,
      "start": 46.2704,
      "duration": 0.0161,
      "velocity": 120,
      "chip": "ym2612"
    },
    {
      "channel": 2,
      "note": 52,
      "start": 46.2715,
      "duration": 0.0161,
      "velocity": 100,
      "chip": "ym2612"
    },
    {
      "channel": 4,
      "note": 52,
      "start": 46.2854,
      "duration": 0.0161,
      "velocity": 120,
      "chip": "ym2612"
    },
    {
      "channel": 3,
      "note": 59,
      "start": 46.2864,
      "duration": 0.0161,
      "velocity": 120,
      "chip": "ym2612"
    },
    {
      "channel": 2,
      "note": 52,
      "start": 46.2876,
      "duration": 0.0161,
      "velocity": 100,
      "chip": "ym2612"
    },
    {
      "channel": 4,
      "note": 52,
      "start": 46.3015,
      "duration": 0.0161,
      "velocity": 120,
      "chip": "ym2612"
    },
    {
      "channel": 3,
      "note": 59,
      "start": 46.3025,
      "duration": 0.0161,
      "velocity": 120,
      "chip": "ym2612"
    },
    {
      "channel": 2,
      "note": 52,
      "start": 46.3037,
      "duration": 0.0161,
      "velocity": 100,
      "chip": "ym2612"
    },
    {
      "channel": 4,
      "note": 52,
      "start": 46.3176,
      "duration": 0.0161,
      "velocity": 120,
      "chip": "ym2612"
    },
    {
      "channel": 3,
      "note": 59,
      "start": 46.3186,
      "duration": 0.0161,
      "velocity": 120,
      "chip": "ym2612"
    },
    {
      "channel": 2,
      "note": 52,
      "start": 46.3198,
      "duration": 0.0161,
      "velocity": 100,
      "chip": "ym2612"
    },
    {
      "channel": 4,
      "note": 52,
      "start": 46.3337,
      "duration": 0.0161,
      "velocity": 120,
      "chip": "ym2612"
    },
    {
      "channel": 3,
      "note": 59,
      "start": 46.3348,
      "duration": 0.0161,
      "velocity": 120,
      "chip": "ym2612"
    },
    {
      "channel": 2,
      "note": 52,
      "start": 46.3359,
      "duration": 0.0161,
      "velocity": 100,
      "chip": "ym2612"
    },
    {
      "channel": 4,
      "note": 52,
      "start": 46.3498,
      "duration": 0.0161,
      "velocity": 120,
      "chip": "ym2612"
    },
    {
      "channel": 3,
      "note": 59,
      "start": 46.3509,
      "duration": 0.0161,
      "velocity": 120,
      "chip": "ym2612"
    },
    {
      "channel": 2,
      "note": 52,
      "start": 46.352,
      "duration": 0.0161,
      "velocity": 100,
      "chip": "ym2612"
    },
    {
      "channel": 4,
      "note": 52,
      "start": 46.3658,
      "duration": 0.0161,
      "velocity": 120,
      "chip": "ym2612"
    },
    {
      "channel": 3,
      "note": 59,
      "start": 46.367,
      "duration": 0.0161,
      "velocity": 120,
      "chip": "ym2612"
    },
    {
      "channel": 2,
      "note": 52,
      "start": 46.3681,
      "duration": 0.0161,
      "velocity": 100,
      "chip": "ym2612"
    },
    {
      "channel": 4,
      "note": 52,
      "start": 46.3819,
      "duration": 0.0162,
      "velocity": 120,
      "chip": "ym2612"
    },
    {
      "channel": 3,
      "note": 59,
      "start": 46.3831,
      "duration": 0.0161,
      "velocity": 120,
      "chip": "ym2612"
    },
    {
      "channel": 2,
      "note": 52,
      "start": 46.3842,
      "duration": 0.0161,
      "velocity": 100,
      "chip": "ym2612"
    },
    {
      "channel": 4,
      "note": 52,
      "start": 46.3981,
      "duration": 0.0197,
      "velocity": 120,
      "chip": "ym2612"
    },
    {
      "channel": 3,
      "note": 59,
      "start": 46.3992,
      "duration": 0.02,
      "velocity": 120,
      "chip": "ym2612"
    },
    {
      "channel": 2,
      "note": 52,
      "start": 46.4003,
      "duration": 0.0204,
      "velocity": 100,
      "chip": "ym2612"
    },
    {
      "channel": 0,
      "note": 36,
      "start": 46.4164,
      "duration": 0.0156,
      "velocity": 115,
      "chip": "ym2612"
    },
    {
      "channel": 4,
      "note": 52,
      "start": 46.4179,
      "duration": 0.0155,
      "velocity": 120,
      "chip": "ym2612"
    },
    {
      "channel": 3,
      "note": 59,
      "start": 46.4192,
      "duration": 0.0153,
      "velocity": 120,
      "chip": "ym2612"
    },
    {
      "channel": 2,
      "note": 52,
      "start": 46.4207,
      "duration": 0.015,
      "velocity": 100,
      "chip": "ym2612"
    },
    {
      "channel": 0,
      "note": 36,
      "start": 46.4321,
      "duration": 0.0167,
      "velocity": 115,
      "chip": "ym2612"
    },
    {
      "channel": 4,
      "note": 52,
      "start": 46.4333,
      "duration": 0.0165,
      "velocity": 120,
      "chip": "ym2612"
    },
    {
      "channel": 3,
      "note": 59,
      "start": 46.4345,
      "duration": 0.0166,
      "velocity": 120,
      "chip": "ym2612"
    },
    {
      "channel": 2,
      "note": 52,
      "start": 46.4357,
      "duration": 0.0165,
      "velocity": 100,
      "chip": "ym2612"
    },
    {
      "channel": 0,
      "note": 37,
      "start": 46.4487,
      "duration": 0.0163,
      "velocity": 115,
      "chip": "ym2612"
    },
    {
      "channel": 4,
      "note": 52,
      "start": 46.4499,
      "duration": 0.0163,
      "velocity": 120,
      "chip": "ym2612"
    },
    {
      "channel": 3,
      "note": 59,
      "start": 46.451,
      "duration": 0.0163,
      "velocity": 120,
      "chip": "ym2612"
    },
    {
      "channel": 2,
      "note": 52,
      "start": 46.4522,
      "duration": 0.0163,
      "velocity": 100,
      "chip": "ym2612"
    },
    {
      "channel": 0,
      "note": 37,
      "start": 46.465,
      "duration": 0.0144,
      "velocity": 115,
      "chip": "ym2612"
    },
    {
      "channel": 4,
      "note": 52,
      "start": 46.4661,
      "duration": 0.0144,
      "velocity": 120,
      "chip": "ym2612"
    },
    {
      "channel": 3,
      "note": 59,
      "start": 46.4673,
      "duration": 0.0144,
      "velocity": 120,
      "chip": "ym2612"
    },
    {
      "channel": 2,
      "note": 52,
      "start": 46.4684,
      "duration": 0.0144,
      "velocity": 100,
      "chip": "ym2612"
    },
    {
      "channel": 0,
      "note": 38,
      "start": 46.4794,
      "duration": 0.0185,
      "velocity": 115,
      "chip": "ym2612"
    },
    {
      "channel": 4,
      "note": 52,
      "start": 46.4805,
      "duration": 0.0185,
      "velocity": 120,
      "chip": "ym2612"
    },
    {
      "channel": 3,
      "note": 59,
      "start": 46.4817,
      "duration": 0.0185,
      "velocity": 120,
      "chip": "ym2612"
    },
    {
      "channel": 2,
      "note": 52,
      "start": 46.4828,
      "duration": 0.0185,
      "velocity": 100,
      "chip": "ym2612"
    },
    {
      "channel": 0,
      "note": 38,
      "start": 46.4979,
      "duration": 0.0161,
      "velocity": 115,
      "chip": "ym2612"
    },
    {
      "channel": 4,
      "note": 52,
      "start": 46.499,
      "duration": 0.0161,
      "velocity": 120,
      "chip": "ym2612"
    },
    {
      "channel": 3,
      "note": 59,
      "start": 46.5002,
      "duration": 0.0161,
      "velocity": 120,
      "chip": "ym2612"
    },
    {
      "channel": 2,
      "note": 52,
      "start": 46.5013,
      "duration": 0.0161,
      "velocity": 100,
      "chip": "ym2612"
    },
    {
      "channel": 0,
      "note": 39,
      "start": 46.514,
      "duration": 0.0157,
      "velocity": 115,
      "chip": "ym2612"
    },
    {
      "channel": 4,
      "note": 52,
      "start": 46.5151,
      "duration": 0.0158,
      "velocity": 120,
      "chip": "ym2612"
    },
    {
      "channel": 3,
      "note": 59,
      "start": 46.5163,
      "duration": 0.0157,
      "velocity": 120,
      "chip": "ym2612"
    },
    {
      "channel": 2,
      "note": 52,
      "start": 46.5174,
      "duration": 0.0157,
      "velocity": 100,
      "chip": "ym2612"
    },
    {
      "channel": 0,
      "note": 39,
      "start": 46.5297,
      "duration": 0.0137,
      "velocity": 115,
      "chip": "ym2612"
    },
    {
      "channel": 4,
      "note": 52,
      "start": 46.5309,
      "duration": 0.014,
      "velocity": 120,
      "chip": "ym2612"
    },
    {
      "channel": 3,
      "note": 59,
      "start": 46.532,
      "duration": 0.0141,
      "velocity": 120,
      "chip": "ym2612"
    },
    {
      "channel": 2,
      "note": 52,
      "start": 46.5332,
      "duration": 0.014,
      "velocity": 100,
      "chip": "ym2612"
    },
    {
      "channel": 0,
      "note": 40,
      "start": 46.5434,
      "duration": 0.0161,
      "velocity": 115,
      "chip": "ym2612"
    },
    {
      "channel": 4,
      "note": 52,
      "start": 46.5449,
      "duration": 0.0186,
      "velocity": 120,
      "chip": "ym2612"
    },
    {
      "channel": 3,
      "note": 59,
      "start": 46.5461,
      "duration": 0.0185,
      "velocity": 120,
      "chip": "ym2612"
    },
    {
      "channel": 2,
      "note": 52,
      "start": 46.5472,
      "duration": 0.0185,
      "velocity": 100,
      "chip": "ym2612"
    },
    {
      "channel": 0,
      "note": 40,
      "start": 46.5595,
      "duration": 0.0161,
      "velocity": 115,
      "chip": "ym2612"
    },
    {
      "channel": 4,
      "note": 52,
      "start": 46.5635,
      "duration": 0.0133,
      "velocity": 120,
      "chip": "ym2612"
    },
    {
      "channel": 3,
      "note": 59,
      "start": 46.5646,
      "duration": 0.0161,
      "velocity": 120,
      "chip": "ym2612"
    },
    {
      "channel": 2,
      "note": 52,
      "start": 46.5657,
      "duration": 0.0161,
      "velocity": 100,
      "chip": "ym2612"
    },
    {
      "channel": 0,
      "note": 40,
      "start": 46.5756,
      "duration": 0.0161,
      "velocity": 115,
      "chip": "ym2612"
    },
    {
      "channel": 4,
      "note": 52,
      "start": 46.5768,
      "duration": 0.0162,
      "velocity": 120,
      "chip": "ym2612"
    },
    {
      "channel": 3,
      "note": 59,
      "start": 46.5807,
      "duration": 0.0158,
      "velocity": 120,
      "chip": "ym2612"
    },
    {
      "channel": 2,
      "note": 52,
      "start": 46.5818,
      "duration": 0.0158,
      "velocity": 100,
      "chip": "ym2612"
    },
    {
      "channel": 0,
      "note": 41,
      "start": 46.5917,
      "duration": 0.0162,
      "velocity": 115,
      "chip": "ym2612"
    },
    {
      "channel": 4,
      "note": 52,
      "start": 46.5929,
      "duration": 0.0163,
      "velocity": 120,
      "chip": "ym2612"
    },
    {
      "channel": 3,
      "note": 59,
      "start": 46.5964,
      "duration": 0.0142,
      "velocity": 120,
      "chip": "ym2612"
    },
    {
      "channel": 2,
      "note": 52,
      "start": 46.5976,
      "duration": 0.0148,
      "velocity": 100,
      "chip": "ym2612"
    },
    {
      "channel": 0,
      "note": 41,
      "start": 46.6079,
      "duration": 0.0161,
      "velocity": 115,
      "chip": "ym2612"
    },
    {
      "channel": 4,
      "note": 69,
      "start": 46.6093,
      "duration": 0.0159,
      "velocity": 120,
      "chip": "ym2612"
    },
    {
      "channel": 3,
      "note": 76,
      "start": 46.6108,
      "duration": 0.0156,
      "velocity": 120,
      "chip": "ym2612"
    },
    {
      "channel": 2,
      "note": 52,
      "start": 46.6125,
      "duration": 0.0179,
      "velocity": 100,
      "chip": "ym2612"
    },
    {
      "channel": 0,
      "note": 42,
      "start": 46.624,
      "duration": 0.0161,
      "velocity": 115,
      "chip": "ym2612"
    },
    {
      "channel": 4,
      "note": 69,
      "start": 46.6252,
      "duration": 0.016,
      "velocity": 120,
      "chip": "ym2612"
    },
    {
      "channel": 3,
      "note": 76,
      "start": 46.6264,
      "duration": 0.016,
      "velocity": 120,
      "chip": "ym2612"
    },
    {
      "channel": 2,
      "note": 52,
      "start": 46.6303,
      "duration": 0.0132,
      "velocity": 100,
      "chip": "ym2612"
    },
    {
      "channel": 0,
      "note": 42,
      "start": 46.6401,
      "duration": 0.0161,
      "velocity": 115,
      "chip": "ym2612"
    },
    {
      "channel": 4,
      "note": 69,
      "start": 46.6412,
      "duration": 0.0161,
      "velocity": 120,
      "chip": "ym2612"
    },
    {
      "channel": 3,
      "note": 76,
      "start": 46.6424,
      "duration": 0.0161,
      "velocity": 120,
      "chip": "ym2612"
    },
    {
      "channel": 2,
      "note": 52,
      "start": 46.6435,
      "duration": 0.0161,
      "velocity": 100,
      "chip": "ym2612"
    },
    {
      "channel": 0,
      "note": 43,
      "start": 46.6562,
      "duration": 0.0161,
      "velocity": 115,
      "chip": "ym2612"
    },
    {
      "channel": 4,
      "note": 69,
      "start": 46.6573,
      "duration": 0.0161,
      "velocity": 120,
      "chip": "ym2612"
    },
    {
      "channel": 3,
      "note": 76,
      "start": 46.6585,
      "duration": 0.0161,
      "velocity": 120,
      "chip": "ym2612"
    },
    {
      "channel": 2,
      "note": 52,
      "start": 46.6596,
      "duration": 0.0161,
      "velocity": 100,
      "chip": "ym2612"
    },
    {
      "channel": 0,
      "note": 43,
      "start": 46.6723,
      "duration": 0.0161,
      "velocity": 115,
      "chip": "ym2612"
    },
    {
      "channel": 4,
      "note": 69,
      "start": 46.6734,
      "duration": 0.0161,
      "velocity": 120,
      "chip": "ym2612"
    },
    {
      "channel": 3,
      "note": 76,
      "start": 46.6746,
      "duration": 0.0161,
      "velocity": 120,
      "chip": "ym2612"
    },
    {
      "channel": 2,
      "note": 52,
      "start": 46.6757,
      "duration": 0.0161,
      "velocity": 100,
      "chip": "ym2612"
    },
    {
      "channel": 0,
      "note": 44,
      "start": 46.6884,
      "duration": 0.0161,
      "velocity": 115,
      "chip": "ym2612"
    },
    {
      "channel": 4,
      "note": 69,
      "start": 46.6895,
      "duration": 0.0161,
      "velocity": 120,
      "chip": "ym2612"
    },
    {
      "channel": 3,
      "note": 76,
      "start": 46.6907,
      "duration": 0.0161,
      "velocity": 120,
      "chip": "ym2612"
    },
    {
      "channel": 2,
      "note": 52,
      "start": 46.6918,
      "duration": 0.0161,
      "velocity": 100,
      "chip": "ym2612"
    },
    {
      "channel": 0,
      "note": 44,
      "start": 46.7044,
      "duration": 0.0161,
      "velocity": 115,
      "chip": "ym2612"
    },
    {
      "channel": 4,
      "note": 69,
      "start": 46.7056,
      "duration": 0.0161,
      "velocity": 120,
      "chip": "ym2612"
    },
    {
      "channel": 3,
      "note": 76,
      "start": 46.7067,
      "duration": 0.0161,
      "velocity": 120,
      "chip": "ym2612"
    },
    {
      "channel": 2,
      "note": 52,
      "start": 46.7079,
      "duration": 0.0161,
      "velocity": 100,
      "chip": "ym2612"
    },
    {
      "channel": 0,
      "note": 44,
      "start": 46.7205,
      "duration": 0.0161,
      "velocity": 115,
      "chip": "ym2612"
    },
    {
      "channel": 4,
      "note": 69,
      "start": 46.7217,
      "duration": 0.0161,
      "velocity": 120,
      "chip": "ym2612"
    },
    {
      "channel": 3,
      "note": 76,
      "start": 46.7228,
      "duration": 0.0161,
      "velocity": 120,
      "chip": "ym2612"
    },
    {
      "channel": 2,
      "note": 52,
      "start": 46.724,
      "duration": 0.0161,
      "velocity": 100,
      "chip": "ym2612"
    },
    {
      "channel": 0,
      "note": 45,
      "start": 46.7366,
      "duration": 0.0161,
      "velocity": 115,
      "chip": "ym2612"
    },
    {
      "channel": 4,
      "note": 69,
      "start": 46.7378,
      "duration": 0.0161,
      "velocity": 120,
      "chip": "ym2612"
    },
    {
      "channel": 3,
      "note": 76,
      "start": 46.7389,
      "duration": 0.0161,
      "velocity": 120,
      "chip": "ym2612"
    },
    {
      "channel": 2,
      "note": 52,
      "start": 46.7401,
      "duration": 0.0161,
      "velocity": 100,
      "chip": "ym2612"
    },
    {
      "channel": 0,
      "note": 45,
      "start": 46.7527,
      "duration": 0.0161,
      "velocity": 115,
      "chip": "ym2612"
    },
    {
      "channel": 4,
      "note": 69,
      "start": 46.7539,
      "duration": 0.0161,
      "velocity": 120,
      "chip": "ym2612"
    },
    {
      "channel": 3,
      "note": 76,
      "start": 46.7551,
      "duration": 0.0161,
      "velocity": 120,
      "chip": "ym2612"
    },
    {
      "channel": 2,
      "note": 52,
      "start": 46.7562,
      "duration": 0.0161,
      "velocity": 100,
      "chip": "ym2612"
    },
    {
      "channel": 0,
      "note": 46,
      "start": 46.7689,
      "duration": 0.0161,
      "velocity": 115,
      "chip": "ym2612"
    },
    {
      "channel": 4,
      "note": 69,
      "start": 46.77,
      "duration": 0.0161,
      "velocity": 120,
      "chip": "ym2612"
    },
    {
      "channel": 3,
      "note": 76,
      "start": 46.7712,
      "duration": 0.0161,
      "velocity": 120,
      "chip": "ym2612"
    },
    {
      "channel": 2,
      "note": 52,
      "start": 46.7723,
      "duration": 0.0161,
      "velocity": 100,
      "chip": "ym2612"
    },
    {
      "channel": 0,
      "note": 46,
      "start": 46.785,
      "duration": 0.0178,
      "velocity": 124,
      "chip": "ym2612"
    },
    {
      "channel": 4,
      "note": 69,
      "start": 46.7861,
      "duration": 0.0181,
      "velocity": 120,
      "chip": "ym2612"
    },
    {
      "channel": 3,
      "note": 76,
      "start": 46.7873,
      "duration": 0.0184,
      "velocity": 120,
      "chip": "ym2612"
    },
    {
      "channel": 2,
      "note": 52,
      "start": 46.7884,
      "duration": 0.0187,
      "velocity": 100,
      "chip": "ym2612"
    },
    {
      "channel": 0,
      "note": 84,
      "start": 46.8029,
      "duration": 0.0144,
      "velocity": 124,
      "chip": "ym2612"
    },
    {
      "channel": 4,
      "note": 69,
      "start": 46.8043,
      "duration": 0.0142,
      "velocity": 120,
      "chip": "ym2612"
    },
    {
      "channel": 3,
      "note": 76,
      "start": 46.8057,
      "duration": 0.014,
      "velocity": 120,
      "chip": "ym2612"
    },
    {
      "channel": 2,
      "note": 52,
      "start": 46.8071,
      "duration": 0.0137,
      "velocity": 100,
      "chip": "ym2612"
    },
    {
      "channel": 0,
      "note": 82,
      "start": 46.8172,
      "duration": 0.016,
      "velocity": 124,
      "chip": "ym2612"
    },
    {
      "channel": 4,
      "note": 69,
      "start": 46.8184,
      "duration": 0.016,
      "velocity": 120,
      "chip": "ym2612"
    },
    {
      "channel": 3,
      "note": 76,
      "start": 46.8197,
      "duration": 0.0159,
      "velocity": 120,
      "chip": "ym2612"
    },
    {
      "channel": 2,
      "note": 52,
      "start": 46.8208,
      "duration": 0.0159,
      "velocity": 100,
      "chip": "ym2612"
    },
    {
      "channel": 0,
      "note": 80,
      "start": 46.8333,
      "duration": 0.0161,
      "velocity": 124,
      "chip": "ym2612"
    },
    {
      "channel": 4,
      "note": 69,
      "start": 46.8344,
      "duration": 0.0161,
      "velocity": 120,
      "chip": "ym2612"
    },
    {
      "channel": 3,
      "note": 76,
      "start": 46.8356,
      "duration": 0.0161,
      "velocity": 120,
      "chip": "ym2612"
    },
    {
      "channel": 2,
      "note": 52,
      "start": 46.8367,
      "duration": 0.0161,
      "velocity": 100,
      "chip": "ym2612"
    },
    {
      "channel": 0,
      "note": 77,
      "start": 46.8494,
      "duration": 0.0161,
      "velocity": 124,
      "chip": "ym2612"
    },
    {
      "channel": 4,
      "note": 69,
      "start": 46.8505,
      "duration": 0.0162,
      "velocity": 120,
      "chip": "ym2612"
    },
    {
      "channel": 3,
      "note": 76,
      "start": 46.8517,
      "duration": 0.0161,
      "velocity": 120,
      "chip": "ym2612"
    },
    {
      "channel": 2,
      "note": 52,
      "start": 46.8528,
      "duration": 0.0161,
      "velocity": 100,
      "chip": "ym2612"
    },
    {
      "channel": 0,
      "note": 75,
      "start": 46.8655,
      "duration": 0.0161,
      "velocity": 124,
      "chip": "ym2612"
    },
    {
      "channel": 4,
      "note": 69,
      "start": 46.8667,
      "duration": 0.0161,
      "velocity": 120,
      "chip": "ym2612"
    },
    {
      "channel": 3,
      "note": 76,
      "start": 46.8678,
      "duration": 0.0161,
      "velocity": 120,
      "chip": "ym2612"
    },
    {
      "channel": 2,
      "note": 52,
      "start": 46.8689,
      "duration": 0.0161,
      "velocity": 100,
      "chip": "ym2612"
    },
    {
      "channel": 0,
      "note": 72,
      "start": 46.8815,
      "duration": 0.0172,
      "velocity": 124,
      "chip": "ym2612"
    },
    {
      "channel": 4,
      "note": 69,
      "start": 46.8828,
      "duration": 0.0171,
      "velocity": 120,
      "chip": "ym2612"
    },
    {
      "channel": 3,
      "note": 76,
      "start": 46.8838,
      "duration": 0.0172,
      "velocity": 120,
      "chip": "ym2612"
    },
    {
      "channel": 2,
      "note": 52,
      "start": 46.885,
      "duration": 0.0172,
      "velocity": 100,
      "chip": "ym2612"
    },
    {
      "channel": 0,
      "note": 70,
      "start": 46.8987,
      "duration": 0.0167,
      "velocity": 124,
      "chip": "ym2612"
    },
    {
      "channel": 4,
      "note": 69,
      "start": 46.8999,
      "duration": 0.0167,
      "velocity": 120,
      "chip": "ym2612"
    },
    {
      "channel": 3,
      "note": 76,
      "start": 46.901,
      "duration": 0.0167,
      "velocity": 120,
      "chip": "ym2612"
    },
    {
      "channel": 2,
      "note": 52,
      "start": 46.9022,
      "duration": 0.0166,
      "velocity": 100,
      "chip": "ym2612"
    },
    {
      "channel": 0,
      "note": 68,
      "start": 46.9154,
      "duration": 0.0163,
      "velocity": 124,
      "chip": "ym2612"
    },
    {
      "channel": 4,
      "note": 69,
      "start": 46.9165,
      "duration": 0.0163,
      "velocity": 120,
      "chip": "ym2612"
    },
    {
      "channel": 3,
      "note": 76,
      "start": 46.9177,
      "duration": 0.0163,
      "velocity": 120,
      "chip": "ym2612"
    },
    {
      "channel": 2,
      "note": 52,
      "start": 46.9188,
      "duration": 0.0163,
      "velocity": 100,
      "chip": "ym2612"
    },
    {
      "channel": 0,
      "note": 65,
      "start": 46.9317,
      "duration": 0.0146,
      "velocity": 124,
      "chip": "ym2612"
    },
    {
      "channel": 4,
      "note": 69,
      "start": 46.9328,
      "duration": 0.0146,
      "velocity": 120,
      "chip": "ym2612"
    },
    {
      "channel": 3,
      "note": 76,
      "start": 46.934,
      "duration": 0.0146,
      "velocity": 120,
      "chip": "ym2612"
    },
    {
      "channel": 2,
      "note": 52,
      "start": 46.9351,
      "duration": 0.0146,
      "velocity": 100,
      "chip": "ym2612"
    },
    {
      "channel": 0,
      "note": 63,
      "start": 46.9463,
      "duration": 0.0178,
      "velocity": 1,
      "chip": "ym2612"
    },
    {
      "channel": 4,
      "note": 69,
      "start": 46.9475,
      "duration": 0.0177,
      "velocity": 120,
      "chip": "ym2612"
    },
    {
      "channel": 3,
      "note": 76,
      "start": 46.9486,
      "duration": 0.0178,
      "velocity": 120,
      "chip": "ym2612"
    },
    {
      "channel": 2,
      "note": 52,
      "start": 46.9498,
      "duration": 0.0177,
      "velocity": 100,
      "chip": "ym2612"
    },
    {
      "channel": 4,
      "note": 69,
      "start": 46.9652,
      "duration": 0.0152,
      "velocity": 120,
      "chip": "ym2612"
    },
    {
      "channel": 3,
      "note": 76,
      "start": 46.9663,
      "duration": 0.0152,
      "velocity": 120,
      "chip": "ym2612"
    },
    {
      "channel": 2,
      "note": 52,
      "start": 46.9674,
      "duration": 0.0153,
      "velocity": 100,
      "chip": "ym2612"
    },
    {
      "channel": 4,
      "note": 69,
      "start": 46.9804,
      "duration": 0.0194,
      "velocity": 120,
      "chip": "ym2612"
    },
    {
      "channel": 3,
      "note": 76,
      "start": 46.9815,
      "duration": 0.0197,
      "velocity": 120,
      "chip": "ym2612"
    },
    {
      "channel": 2,
      "note": 52,
      "start": 46.9827,
      "duration": 0.02,
      "velocity": 100,
      "chip": "ym2612"
    },
    {
      "channel": 0,
      "note": 36,
      "start": 46.9985,
      "duration": 0.012,
      "velocity": 115,
      "chip": "ym2612"
    },
    {
      "channel": 4,
      "note": 67,
      "start": 46.9999,
      "duration": 0.0121,
      "velocity": 120,
      "chip": "ym2612"
    },
    {
      "channel": 3,
      "note": 74,
      "start": 47.0013,
      "duration": 0.0119,
      "velocity": 120,
      "chip": "ym2612"
    },
    {
      "channel": 2,
      "note": 52,
      "start": 47.0027,
      "duration": 0.0116,
      "velocity": 100,
      "chip": "ym2612"
    },
    {
      "channel": 0,
      "note": 36,
      "start": 47.0104,
      "duration": 0.016,
      "velocity": 115,
      "chip": "ym2612"
    },
    {
      "channel": 4,
      "note": 67,
      "start": 47.012,
      "duration": 0.0185,
      "velocity": 120,
      "chip": "ym2612"
    },
    {
      "channel": 3,
      "note": 74,
      "start": 47.0132,
      "duration": 0.0184,
      "velocity": 120,
      "chip": "ym2612"
    },
    {
      "channel": 2,
      "note": 52,
      "start": 47.0144,
      "duration": 0.0183,
      "velocity": 100,
      "chip": "ym2612"
    },
    {
      "channel": 0,
      "note": 37,
      "start": 47.0265,
      "duration": 0.0161,
      "velocity": 115,
      "chip": "ym2612"
    },
    {
      "channel": 4,
      "note": 67,
      "start": 47.0304,
      "duration": 0.0133,
      "velocity": 120,
      "chip": "ym2612"
    },
    {
      "channel": 3,
      "note": 74,
      "start": 47.0315,
      "duration": 0.016,
      "velocity": 120,
      "chip": "ym2612"
    },
    {
      "channel": 2,
      "note": 52,
      "start": 47.0326,
      "duration": 0.0161,
      "velocity": 100,
      "chip": "ym2612"
    },
    {
      "channel": 0,
      "note": 37,
      "start": 47.0426,
      "duration": 0.0161,
      "velocity": 115,
      "chip": "ym2612"
    },
    {
      "channel": 4,
      "note": 67,
      "start": 47.0437,
      "duration": 0.0161,
      "velocity": 120,
      "chip": "ym2612"
    },
    {
      "channel": 3,
      "note": 74,
      "start": 47.0476,
      "duration": 0.0158,
      "velocity": 120,
      "chip": "ym2612"
    },
    {
      "channel": 2,
      "note": 52,
      "start": 47.0487,
      "duration": 0.0158,
      "velocity": 100,
      "chip": "ym2612"
    },
    {
      "channel": 0,
      "note": 38,
      "start": 47.0586,
      "duration": 0.0162,
      "velocity": 115,
      "chip": "ym2612"
    },
    {
      "channel": 4,
      "note": 67,
      "start": 47.0598,
      "duration": 0.0162,
      "velocity": 120,
      "chip": "ym2612"
    },
    {
      "channel": 3,
      "note": 74,
      "start": 47.0634,
      "duration": 0.0137,
      "velocity": 120,
      "chip": "ym2612"
    },
    {
      "channel": 2,
      "note": 52,
      "start": 47.0645,
      "duration": 0.0141,
      "velocity": 100,
      "chip": "ym2612"
    },
    {
      "channel": 0,
      "note": 38,
      "start": 47.0748,
      "duration": 0.0161,
      "velocity": 115,
      "chip": "ym2612"
    },
    {
      "channel": 4,
      "note": 67,
      "start": 47.076,
      "duration": 0.0161,
      "velocity": 120,
      "chip": "ym2612"
    },
    {
      "channel": 3,
      "note": 74,
      "start": 47.0771,
      "duration": 0.0161,
      "velocity": 120,
      "chip": "ym2612"
    },
    {
      "channel": 2,
      "note": 52,
      "start": 47.0786,
      "duration": 0.0185,
      "velocity": 100,
      "chip": "ym2612"
    },
    {
      "channel": 0,
      "note": 39,
      "start": 47.0909,
      "duration": 0.0161,
      "velocity": 115,
      "chip": "ym2612"
    },
    {
      "channel": 4,
      "note": 67,
      "start": 47.092,
      "duration": 0.0161,
      "velocity": 120,
      "chip": "ym2612"
    },
    {
      "channel": 3,
      "note": 74,
      "start": 47.0932,
      "duration": 0.0161,
      "velocity": 120,
      "chip": "ym2612"
    },
    {
      "channel": 2,
      "note": 52,
      "start": 47.0971,
      "duration": 0.0134,
      "velocity": 100,
      "chip": "ym2612"
    },
    {
      "channel": 0,
      "note": 39,
      "start": 47.107,
      "duration": 0.0161,
      "velocity": 115,
      "chip": "ym2612"
    },
    {
      "channel": 4,
      "note": 67,
      "start": 47.1081,
      "duration": 0.0161,
      "velocity": 120,
      "chip": "ym2612"
    },
    {
      "channel": 3,
      "note": 74,
      "start": 47.1093,
      "duration": 0.0161,
      "velocity": 120,
      "chip": "ym2612"
    },
    {
      "channel": 2,
      "note": 52,
      "start": 47.1104,
      "duration": 0.0161,
      "velocity": 100,
      "chip": "ym2612"
    },
    {
      "channel": 0,
      "note": 40,
      "start": 47.1231,
      "duration": 0.0161,
      "velocity": 115,
      "chip": "ym2612"
    },
    {
      "channel": 4,
      "note": 67,
      "start": 47.1242,
      "duration": 0.0161,
      "velocity": 120,
      "chip": "ym2612"
    },
    {
      "channel": 3,
      "note": 74,
      "start": 47.1254,
      "duration": 0.0161,
      "velocity": 120,
      "chip": "ym2612"
    },
    {
      "channel": 2,
      "note": 52,
      "start": 47.1265,
      "duration": 0.0161,
      "velocity": 100,
      "chip": "ym2612"
    },
    {
      "channel": 0,
      "note": 40,
      "start": 47.1392,
      "duration": 0.0161,
      "velocity": 115,
      "chip": "ym2612"
    },
    {
      "channel": 4,
      "note": 67,
      "start": 47.1403,
      "duration": 0.0161,
      "velocity": 120,
      "chip": "ym2612"
    },
    {
      "channel": 3,
      "note": 74,
      "start": 47.1415,
      "duration": 0.0161,
      "velocity": 120,
      "chip": "ym2612"
    },
    {
      "channel": 2,
      "note": 52,
      "start": 47.1426,
      "duration": 0.0161,
      "velocity": 100,
      "chip": "ym2612"
    },
    {
      "channel": 0,
      "note": 40,
      "start": 47.1553,
      "duration": 0.0161,
      "velocity": 115,
      "chip": "ym2612"
    },
    {
      "channel": 4,
      "note": 67,
      "start": 47.1564,
      "duration": 0.0161,
      "velocity": 120,
      "chip": "ym2612"
    },
    {
      "channel": 3,
      "note": 74,
      "start": 47.1576,
      "duration": 0.0161,
      "velocity": 120,
      "chip": "ym2612"
    },
    {
      "channel": 2,
      "note": 52,
      "start": 47.1587,
      "duration": 0.0161,
      "velocity": 100,
      "chip": "ym2612"
    },
    {
      "channel": 0,
      "note": 41,
      "start": 47.1714,
      "duration": 0.0179,
      "velocity": 115,
      "chip": "ym2612"
    },
    {
      "channel": 4,
      "note": 67,
      "start": 47.1725,
      "duration": 0.0181,
      "velocity": 120,
      "chip": "ym2612"
    },
    {
      "channel": 3,
      "note": 74,
      "start": 47.1737,
      "duration": 0.0184,
      "velocity": 120,
      "chip": "ym2612"
    },
    {
      "channel": 2,
      "note": 52,
      "start": 47.1748,
      "duration": 0.0187,
      "velocity": 100,
      "chip": "ym2612"
    },
    {
      "channel": 0,
      "note": 36,
      "start": 47.1893,
      "duration": 0.0144,
      "velocity": 115,
      "chip": "ym2612"
    },
    {
      "channel": 4,
      "note": 67,
      "start": 47.1907,
      "duration": 0.0141,
      "velocity": 120,
      "chip": "ym2612"
    },
    {
      "channel": 3,
      "note": 74,
      "start": 47.1921,
      "duration": 0.0139,
      "velocity": 120,
      "chip": "ym2612"
    },
    {
      "channel": 2,
      "note": 52,
      "start": 47.1936,
      "duration": 0.0137,
      "velocity": 100,
      "chip": "ym2612"
    },
    {
      "channel": 0,
      "note": 36,
      "start": 47.2036,
      "duration": 0.0161,
      "velocity": 115,
      "chip": "ym2612"
    },
    {
      "channel": 4,
      "note": 67,
      "start": 47.2048,
      "duration": 0.016,
      "velocity": 120,
      "chip": "ym2612"
    },
    {
      "channel": 3,
      "note": 74,
      "start": 47.206,
      "duration": 0.016,
      "velocity": 120,
      "chip": "ym2612"
    },
    {
      "channel": 2,
      "note": 52,
      "start": 47.2073,
      "duration": 0.0158,
      "velocity": 100,
      "chip": "ym2612"
    },
    {
      "channel": 0,
      "note": 37,
      "start": 47.2197,
      "duration": 0.0161,
      "velocity": 115,
      "chip": "ym2612"
    },
    {
      "channel": 4,
      "note": 67,
      "start": 47.2209,
      "duration": 0.0161,
      "velocity": 120,
      "chip": "ym2612"
    },
    {
      "channel": 3,
      "note": 74,
      "start": 47.222,
      "duration": 0.0161,
      "velocity": 120,
      "chip": "ym2612"
    },
    {
      "channel": 2,
      "note": 52,
      "start": 47.2231,
      "duration": 0.0161,
      "velocity": 100,
      "chip": "ym2612"
    },
    {
      "channel": 0,
      "note": 37,
      "start": 47.2358,
      "duration": 0.0161,
      "velocity": 115,
      "chip": "ym2612"
    },
    {
      "channel": 4,
      "note": 67,
      "start": 47.237,
      "duration": 0.0161,
      "velocity": 120,
      "chip": "ym2612"
    },
    {
      "channel": 3,
      "note": 74,
      "start": 47.2381,
      "duration": 0.0161,
      "velocity": 120,
      "chip": "ym2612"
    },
    {
      "channel": 2,
      "note": 52,
      "start": 47.2392,
      "duration": 0.0162,
      "velocity": 100,
      "chip": "ym2612"
    },
    {
      "channel": 0,
      "note": 38,
      "start": 47.2519,
      "duration": 0.0161,
      "velocity": 115,
      "chip": "ym2612"
    },
    {
      "channel": 4,
      "note": 67,
      "start": 47.2531,
      "duration": 0.0161,
      "velocity": 120,
      "chip": "ym2612"
    },
    {
      "channel": 3,
      "note": 74,
      "start": 47.2542,
      "duration": 0.0161,
      "velocity": 120,
      "chip": "ym2612"
    },
    {
      "channel": 2,
      "note": 52,
      "start": 47.2554,
      "duration": 0.0161,
      "velocity": 100,
      "chip": "ym2612"
    },
    {
      "channel": 0,
      "note": 38,
      "start": 47.268,
      "duration": 0.0161,
      "velocity": 115,
      "chip": "ym2612"
    },
    {
      "channel": 4,
      "note": 67,
      "start": 47.2691,
      "duration": 0.0161,
      "velocity": 120,
      "chip": "ym2612"
    },
    {
      "channel": 3,
      "note": 74,
      "start": 47.2703,
      "duration": 0.0161,
      "velocity": 120,
      "chip": "ym2612"
    },
    {
      "channel": 2,
      "note": 52,
      "start": 47.2714,
      "duration": 0.0161,
      "velocity": 100,
      "chip": "ym2612"
    },
    {
      "channel": 0,
      "note": 39,
      "start": 47.2841,
      "duration": 0.0161,
      "velocity": 115,
      "chip": "ym2612"
    },
    {
      "channel": 4,
      "note": 67,
      "start": 47.2852,
      "duration": 0.0161,
      "velocity": 120,
      "chip": "ym2612"
    },
    {
      "channel": 3,
      "note": 74,
      "start": 47.2864,
      "duration": 0.0161,
      "velocity": 120,
      "chip": "ym2612"
    },
    {
      "channel": 2,
      "note": 52,
      "start": 47.2875,
      "duration": 0.0161,
      "velocity": 100,
      "chip": "ym2612"
    },
    {
      "channel": 0,
      "note": 39,
      "start": 47.3002,
      "duration": 0.0161,
      "velocity": 115,
      "chip": "ym2612"
    },
    {
      "channel": 4,
      "note": 67,
      "start": 47.3013,
      "duration": 0.0161,
      "velocity": 120,
      "chip": "ym2612"
    },
    {
      "channel": 3,
      "note": 74,
      "start": 47.3025,
      "duration": 0.0161,
      "velocity": 120,
      "chip": "ym2612"
    },
    {
      "channel": 2,
      "note": 52,
      "start": 47.3036,
      "duration": 0.0161,
      "velocity": 100,
      "chip": "ym2612"
    },
    {
      "channel": 0,
      "note": 40,
      "start": 47.3163,
      "duration": 0.0161,
      "velocity": 115,
      "chip": "ym2612"
    },
    {
      "channel": 4,
      "note": 67,
      "start": 47.3174,
      "duration": 0.0161,
      "velocity": 120,
      "chip": "ym2612"
    },
    {
      "channel": 3,
      "note": 74,
      "start": 47.3186,
      "duration": 0.0161,
      "velocity": 120,
      "chip": "ym2612"
    },
    {
      "channel": 2,
      "note": 52,
      "start": 47.3197,
      "duration": 0.0161,
      "velocity": 100,
      "chip": "ym2612"
    },
    {
      "channel": 0,
      "note": 40,
      "start": 47.3324,
      "duration": 0.0161,
      "velocity": 115,
      "chip": "ym2612"
    },
    {
      "channel": 4,
      "note": 67,
      "start": 47.3335,
      "duration": 0.0162,
      "velocity": 120,
      "chip": "ym2612"
    },
    {
      "channel": 3,
      "note": 74,
      "start": 47.3347,
      "duration": 0.0161,
      "velocity": 120,
      "chip": "ym2612"
    },
    {
      "channel": 2,
      "note": 52,
      "start": 47.3358,
      "duration": 0.0161,
      "velocity": 100,
      "chip": "ym2612"
    },
    {
      "channel": 0,
      "note": 40,
      "start": 47.3485,
      "duration": 0.0168,
      "velocity": 115,
      "chip": "ym2612"
    },
    {
      "channel": 4,
      "note": 67,
      "start": 47.3497,
      "duration": 0.0168,
      "velocity": 120,
      "chip": "ym2612"
    },
    {
      "channel": 3,
      "note": 74,
      "start": 47.3508,
      "duration": 0.0169,
      "velocity": 120,
      "chip": "ym2612"
    },
    {
      "channel": 2,
      "note": 52,
      "start": 47.3519,
      "duration": 0.0169,
      "velocity": 100,
      "chip": "ym2612"
    },
    {
      "channel": 0,
      "note": 41,
      "start": 47.3653,
      "duration": 0.0167,
      "velocity": 115,
      "chip": "ym2612"
    },
    {
      "channel": 4,
      "note": 67,
      "start": 47.3665,
      "duration": 0.0169,
      "velocity": 120,
      "chip": "ym2612"
    },
    {
      "channel": 3,
      "note": 74,
      "start": 47.3677,
      "duration": 0.0171,
      "velocity": 120,
      "chip": "ym2612"
    },
    {
      "channel": 2,
      "note": 52,
      "start": 47.3688,
      "duration": 0.0175,
      "velocity": 100,
      "chip": "ym2612"
    },
    {
      "channel": 0,
      "note": 41,
      "start": 47.3821,
      "duration": 0.0163,
      "velocity": 115,
      "chip": "ym2612"
    },
    {
      "channel": 4,
      "note": 66,
      "start": 47.3835,
      "duration": 0.0161,
      "velocity": 120,
      "chip": "ym2612"
    },
    {
      "channel": 3,
      "note": 73,
      "start": 47.3849,
      "duration": 0.0159,
      "velocity": 120,
      "chip": "ym2612"
    },
    {
      "channel": 2,
      "note": 52,
      "start": 47.3863,
      "duration": 0.0156,
      "velocity": 100,
      "chip": "ym2612"
    },
    {
      "channel": 0,
      "note": 42,
      "start": 47.3983,
      "duration": 0.0147,
      "velocity": 115,
      "chip": "ym2612"
    },
    {
      "channel": 4,
      "note": 66,
      "start": 47.3995,
      "duration": 0.0146,
      "velocity": 120,
      "chip": "ym2612"
    },
    {
      "channel": 3,
      "note": 73,
      "start": 47.4008,
      "duration": 0.0146,
      "velocity": 120,
      "chip": "ym2612"
    },
    {
      "channel": 2,
      "note": 52,
      "start": 47.402,
      "duration": 0.0145,
      "velocity": 100,
      "chip": "ym2612"
    },
    {
      "channel": 0,
      "note": 42,
      "start": 47.413,
      "duration": 0.0187,
      "velocity": 115,
      "chip": "ym2612"
    },
    {
      "channel": 4,
      "note": 66,
      "start": 47.4142,
      "duration": 0.0187,
      "velocity": 120,
      "chip": "ym2612"
    },
    {
      "channel": 3,
      "note": 73,
      "start": 47.4153,
      "duration": 0.0187,
      "velocity": 120,
      "chip": "ym2612"
    },
    {
      "channel": 2,
      "note": 52,
      "start": 47.4165,
      "duration": 0.0187,
      "velocity": 100,
      "chip": "ym2612"
    },
    {
      "channel": 0,
      "note": 43,
      "start": 47.4317,
      "duration": 0.0161,
      "velocity": 115,
      "chip": "ym2612"
    },
    {
      "channel": 4,
      "note": 66,
      "start": 47.4329,
      "duration": 0.0161,
      "velocity": 120,
      "chip": "ym2612"
    },
    {
      "channel": 3,
      "note": 73,
      "start": 47.434,
      "duration": 0.0161,
      "velocity": 120,
      "chip": "ym2612"
    },
    {
      "channel": 2,
      "note": 52,
      "start": 47.4352,
      "duration": 0.0161,
      "velocity": 100,
      "chip": "ym2612"
    },
    {
      "channel": 0,
      "note": 43,
      "start": 47.4478,
      "duration": 0.0158,
      "velocity": 115,
      "chip": "ym2612"
    },
    {
      "channel": 4,
      "note": 66,
      "start": 47.449,
      "duration": 0.0158,
      "velocity": 120,
      "chip": "ym2612"
    },
    {
      "channel": 3,
      "note": 73,
      "start": 47.4501,
      "duration": 0.0158,
      "velocity": 120,
      "chip": "ym2612"
    },
    {
      "channel": 2,
      "note": 52,
      "start": 47.4513,
      "duration": 0.0157,
      "velocity": 100,
      "chip": "ym2612"
    },
    {
      "channel": 0,
      "note": 44,
      "start": 47.4636,
      "duration": 0.0138,
      "velocity": 115,
      "chip": "ym2612"
    },
    {
      "channel": 4,
      "note": 66,
      "start": 47.4648,
      "duration": 0.014,
      "velocity": 120,
      "chip": "ym2612"
    },
    {
      "channel": 3,
      "note": 73,
      "start": 47.4659,
      "duration": 0.014,
      "velocity": 120,
      "chip": "ym2612"
    },
    {
      "channel": 2,
      "note": 52,
      "start": 47.467,
      "duration": 0.0141,
      "velocity": 100,
      "chip": "ym2612"
    },
    {
      "channel": 0,
      "note": 44,
      "start": 47.4774,
      "duration": 0.016,
      "velocity": 115,
      "chip": "ym2612"
    },
    {
      "channel": 4,
      "note": 66,
      "start": 47.4788,
      "duration": 0.0186,
      "velocity": 120,
      "chip": "ym2612"
    },
    {
      "channel": 3,
      "note": 73,
      "start": 47.4799,
      "duration": 0.0186,
      "velocity": 120,
      "chip": "ym2612"
    },
    {
      "channel": 2,
      "note": 52,
      "start": 47.481,
      "duration": 0.0186,
      "velocity": 100,
      "chip": "ym2612"
    },
    {
      "channel": 0,
      "note": 44,
      "start": 47.4934,
      "duration": 0.0162,
      "velocity": 115,
      "chip": "ym2612"
    },
    {
      "channel": 4,
      "note": 66,
      "start": 47.4973,
      "duration": 0.0161,
      "velocity": 120,
      "chip": "ym2612"
    },
    {
      "channel": 3,
      "note": 73,
      "start": 47.4985,
      "duration": 0.0161,
      "velocity": 120,
      "chip": "ym2612"
    },
    {
      "channel": 2,
      "note": 52,
      "start": 47.4996,
      "duration": 0.0161,
      "velocity": 100,
      "chip": "ym2612"
    },
    {
      "channel": 0,
      "note": 45,
      "start": 47.5095,
      "duration": 0.0161,
      "velocity": 115,
      "chip": "ym2612"
    },
    {
      "channel": 4,
      "note": 66,
      "start": 47.5134,
      "duration": 0.0134,
      "velocity": 120,
      "chip": "ym2612"
    },
    {
      "channel": 3,
      "note": 73,
      "start": 47.5146,
      "duration": 0.0157,
      "velocity": 120,
      "chip": "ym2612"
    },
    {
      "channel": 2,
      "note": 52,
      "start": 47.5157,
      "duration": 0.0157,
      "velocity": 100,
      "chip": "ym2612"
    },
    {
      "channel": 0,
      "note": 45,
      "start": 47.5256,
      "duration": 0.0161,
      "velocity": 115,
      "chip": "ym2612"
    },
    {
      "channel": 4,
      "note": 66,
      "start": 47.5268,
      "duration": 0.0161,
      "velocity": 120,
      "chip": "ym2612"
    },
    {
      "channel": 3,
      "note": 73,
      "start": 47.5303,
      "duration": 0.0139,
      "velocity": 120,
      "chip": "ym2612"
    },
    {
      "channel": 2,
      "note": 52,
      "start": 47.5314,
      "duration": 0.0141,
      "velocity": 100,
      "chip": "ym2612"
    },
    {
      "channel": 0,
      "note": 46,
      "start": 47.5417,
      "duration": 0.0161,
      "velocity": 115,
      "chip": "ym2612"
    },
    {
      "channel": 4,
      "note": 66,
      "start": 47.5429,
      "duration": 0.0161,
      "velocity": 120,
      "chip": "ym2612"
    },
    {
      "channel": 3,
      "note": 73,
      "start": 47.5441,
      "duration": 0.016,
      "velocity": 120,
      "chip": "ym2612"
    },
    {
      "channel": 2,
      "note": 52,
      "start": 47.5455,
      "duration": 0.0185,
      "velocity": 100,
      "chip": "ym2612"
    },
    {
      "channel": 0,
      "note": 46,
      "start": 47.5578,
      "duration": 0.0179,
      "velocity": 124,
      "chip": "ym2612"
    },
    {
      "channel": 4,
      "note": 66,
      "start": 47.559,
      "duration": 0.0181,
      "velocity": 120,
      "chip": "ym2612"
    },
    {
      "channel": 3,
      "note": 73,
      "start": 47.5601,
      "duration": 0.0211,
      "velocity": 120,
      "chip": "ym2612"
    },
    {
      "channel": 2,
      "note": 52,
      "start": 47.564,
      "duration": 0.0187,
      "velocity": 100,
      "chip": "ym2612"
    },
    {
      "channel": 0,
      "note": 84,
      "start": 47.5757,
      "duration": 0.0144,
      "velocity": 124,
      "chip": "ym2612"
    },
    {
      "channel": 4,
      "note": 66,
      "start": 47.5772,
      "duration": 0.0141,
      "velocity": 120,
      "chip": "ym2612"
    },
    {
      "channel": 3,
      "note": 73,
      "start": 47.5813,
      "duration": 0.0112,
      "velocity": 120,
      "chip": "ym2612"
    },
    {
      "channel": 2,
      "note": 52,
      "start": 47.5828,
      "duration": 0.0109,
      "velocity": 100,
      "chip": "ym2612"
    },
    {
      "channel": 0,
      "note": 82,
      "start": 47.5901,
      "duration": 0.016,
      "velocity": 124,
      "chip": "ym2612"
    },
    {
      "channel": 4,
      "note": 66,
      "start": 47.5913,
      "duration": 0.016,
      "velocity": 120,
      "chip": "ym2612"
    },
    {
      "channel": 3,
      "note": 73,
      "start": 47.5925,
      "duration": 0.0159,
      "velocity": 120,
      "chip": "ym2612"
    },
    {
      "channel": 2,
      "note": 52,
      "start": 47.5937,
      "duration": 0.0159,
      "velocity": 100,
      "chip": "ym2612"
    },
    {
      "channel": 0,
      "note": 80,
      "start": 47.6061,
      "duration": 0.0161,
      "velocity": 124,
      "chip": "ym2612"
    },
    {
      "channel": 4,
      "note": 66,
      "start": 47.6073,
      "duration": 0.0161,
      "velocity": 120,
      "chip": "ym2612"
    },
    {
      "channel": 3,
      "note": 73,
      "start": 47.6084,
      "duration": 0.0161,
      "velocity": 120,
      "chip": "ym2612"
    },
    {
      "channel": 2,
      "note": 52,
      "start": 47.6095,
      "duration": 0.0161,
      "velocity": 100,
      "chip": "ym2612"
    },
    {
      "channel": 0,
      "note": 77,
      "start": 47.6222,
      "duration": 0.0161,
      "velocity": 124,
      "chip": "ym2612"
    },
    {
      "channel": 4,
      "note": 66,
      "start": 47.6233,
      "duration": 0.0162,
      "velocity": 120,
      "chip": "ym2612"
    },
    {
      "channel": 3,
      "note": 73,
      "start": 47.6245,
      "duration": 0.0162,
      "velocity": 120,
      "chip": "ym2612"
    },
    {
      "channel": 2,
      "note": 52,
      "start": 47.6256,
      "duration": 0.0161,
      "velocity": 100,
      "chip": "ym2612"
    },
    {
      "channel": 0,
      "note": 75,
      "start": 47.6383,
      "duration": 0.0161,
      "velocity": 124,
      "chip": "ym2612"
    },
    {
      "channel": 4,
      "note": 66,
      "start": 47.6395,
      "duration": 0.0161,
      "velocity": 120,
      "chip": "ym2612"
    },
    {
      "channel": 3,
      "note": 73,
      "start": 47.6407,
      "duration": 0.0161,
      "velocity": 120,
      "chip": "ym2612"
    },
    {
      "channel": 2,
      "note": 52,
      "start": 47.6417,
      "duration": 0.0161,
      "velocity": 100,
      "chip": "ym2612"
    },
    {
      "channel": 0,
      "note": 72,
      "start": 47.6544,
      "duration": 0.0161,
      "velocity": 124,
      "chip": "ym2612"
    },
    {
      "channel": 4,
      "note": 66,
      "start": 47.6556,
      "duration": 0.0161,
      "velocity": 120,
      "chip": "ym2612"
    },
    {
      "channel": 3,
      "note": 73,
      "start": 47.6567,
      "duration": 0.0161,
      "velocity": 120,
      "chip": "ym2612"
    },
    {
      "channel": 2,
      "note": 52,
      "start": 47.6578,
      "duration": 0.0162,
      "velocity": 100,
      "chip": "ym2612"
    },
    {
      "channel": 0,
      "note": 70,
      "start": 47.6705,
      "duration": 0.0161,
      "velocity": 124,
      "chip": "ym2612"
    },
    {
      "channel": 4,
      "note": 66,
      "start": 47.6717,
      "duration": 0.0161,
      "velocity": 120,
      "chip": "ym2612"
    },
    {
      "channel": 3,
      "note": 73,
      "start": 47.6728,
      "duration": 0.0161,
      "velocity": 120,
      "chip": "ym2612"
    },
    {
      "channel": 2,
      "note": 52,
      "start": 47.674,
      "duration": 0.0161,
      "velocity": 100,
      "chip": "ym2612"
    },
    {
      "channel": 0,
      "note": 68,
      "start": 47.6866,
      "duration": 0.0161,
      "velocity": 124,
      "chip": "ym2612"
    },
    {
      "channel": 4,
      "note": 66,
      "start": 47.6878,
      "duration": 0.0161,
      "velocity": 120,
      "chip": "ym2612"
    },
    {
      "channel": 3,
      "note": 73,
      "start": 47.6889,
      "duration": 0.0161,
      "velocity": 120,
      "chip": "ym2612"
    },
    {
      "channel": 2,
      "note": 52,
      "start": 47.6901,
      "duration": 0.0161,
      "velocity": 100,
      "chip": "ym2612"
    },
    {
      "channel": 0,
      "note": 65,
      "start": 47.7027,
      "duration": 0.0161,
      "velocity": 124,
      "chip": "ym2612"
    },
    {
      "channel": 4,
      "note": 66,
      "start": 47.7039,
      "duration": 0.0161,
      "velocity": 120,
      "chip": "ym2612"
    },
    {
      "channel": 3,
      "note": 73,
      "start": 47.705,
      "duration": 0.0161,
      "velocity": 120,
      "chip": "ym2612"
    },
    {
      "channel": 2,
      "note": 52,
      "start": 47.7062,
      "duration": 0.0161,
      "velocity": 100,
      "chip": "ym2612"
    },
    {
      "channel": 0,
      "note": 63,
      "start": 47.7188,
      "duration": 0.0153,
      "velocity": 1,
      "chip": "ym2612"
    },
    {
      "channel": 4,
      "note": 66,
      "start": 47.72,
      "duration": 0.0153,
      "velocity": 120,
      "chip": "ym2612"
    },
    {
      "channel": 3,
      "note": 73,
      "start": 47.7211,
      "duration": 0.0153,
      "velocity": 120,
      "chip": "ym2612"
    },
    {
      "channel": 2,
      "note": 52,
      "start": 47.7223,
      "duration": 0.0153,
      "velocity": 100,
      "chip": "ym2612"
    },
    {
      "channel": 4,
      "note": 66,
      "start": 47.7353,
      "duration": 0.0152,
      "velocity": 120,
      "chip": "ym2612"
    },
    {
      "channel": 3,
      "note": 73,
      "start": 47.7364,
      "duration": 0.0152,
      "velocity": 120,
      "chip": "ym2612"
    },
    {
      "channel": 2,
      "note": 52,
      "start": 47.7375,
      "duration": 0.0153,
      "velocity": 100,
      "chip": "ym2612"
    },
    {
      "channel": 4,
      "note": 66,
      "start": 47.7505,
      "duration": 0.0163,
      "velocity": 120,
      "chip": "ym2612"
    },
    {
      "channel": 3,
      "note": 73,
      "start": 47.7517,
      "duration": 0.0166,
      "velocity": 120,
      "chip": "ym2612"
    },
    {
      "channel": 2,
      "note": 52,
      "start": 47.7528,
      "duration": 0.0169,
      "velocity": 100,
      "chip": "ym2612"
    },
    {
      "channel": 4,
      "note": 64,
      "start": 47.7669,
      "duration": 0.0159,
      "velocity": 120,
      "chip": "ym2612"
    },
    {
      "channel": 3,
      "note": 71,
      "start": 47.7683,
      "duration": 0.0156,
      "velocity": 120,
      "chip": "ym2612"
    },
    {
      "channel": 2,
      "note": 52,
      "start": 47.7698,
      "duration": 0.0154,
      "velocity": 100,
      "chip": "ym2612"
    },
    {
      "channel": 4,
      "note": 64,
      "start": 47.7828,
      "duration": 0.0161,
      "velocity": 120,
      "chip": "ym2612"
    },
    {
      "channel": 3,
      "note": 71,
      "start": 47.784,
      "duration": 0.016,
      "velocity": 120,
      "chip": "ym2612"
    },
    {
      "channel": 2,
      "note": 52,
      "start": 47.7852,
      "duration": 0.0159,
      "velocity": 100,
      "chip": "ym2612"
    },
    {
      "channel": 4,
      "note": 64,
      "start": 47.7988,
      "duration": 0.0161,
      "velocity": 120,
      "chip": "ym2612"
    },
    {
      "channel": 3,
      "note": 71,
      "start": 47.8,
      "duration": 0.0161,
      "velocity": 120,
      "chip": "ym2612"
    },
    {
      "channel": 2,
      "note": 52,
      "start": 47.8011,
      "duration": 0.0161,
      "velocity": 100,
      "chip": "ym2612"
    },
    {
      "channel": 4,
      "note": 64,
      "start": 47.8149,
      "duration": 0.0166,
      "velocity": 120,
      "chip": "ym2612"
    },
    {
      "channel": 3,
      "note": 71,
      "start": 47.8161,
      "duration": 0.0166,
      "velocity": 120,
      "chip": "ym2612"
    },
    {
      "channel": 2,
      "note": 52,
      "start": 47.8172,
      "duration": 0.0166,
      "velocity": 100,
      "chip": "ym2612"
    },
    {
      "channel": 4,
      "note": 64,
      "start": 47.8315,
      "duration": 0.0167,
      "velocity": 120,
      "chip": "ym2612"
    },
    {
      "channel": 3,
      "note": 71,
      "start": 47.8327,
      "duration": 0.0167,
      "velocity": 120,
      "chip": "ym2612"
    },
    {
      "channel": 2,
      "note": 52,
      "start": 47.8338,
      "duration": 0.0167,
      "velocity": 100,
      "chip": "ym2612"
    },
    {
      "channel": 4,
      "note": 64,
      "start": 47.8482,
      "duration": 0.0163,
      "velocity": 120,
      "chip": "ym2612"
    },
    {
      "channel": 3,
      "note": 71,
      "start": 47.8494,
      "duration": 0.0163,
      "velocity": 120,
      "chip": "ym2612"
    },
    {
      "channel": 2,
      "note": 52,
      "start": 47.8505,
      "duration": 0.0163,
      "velocity": 100,
      "chip": "ym2612"
    },
    {
      "channel": 4,
      "note": 64,
      "start": 47.8645,
      "duration": 0.0148,
      "velocity": 120,
      "chip": "ym2612"
    },
    {
      "channel": 3,
      "note": 71,
      "start": 47.8656,
      "duration": 0.0148,
      "velocity": 120,
      "chip": "ym2612"
    },
    {
      "channel": 2,
      "note": 52,
      "start": 47.8668,
      "duration": 0.0148,
      "velocity": 100,
      "chip": "ym2612"
    },
    {
      "channel": 4,
      "note": 64,
      "start": 47.8793,
      "duration": 0.0189,
      "velocity": 120,
      "chip": "ym2612"
    },
    {
      "channel": 3,
      "note": 71,
      "start": 47.8805,
      "duration": 0.0189,
      "velocity": 120,
      "chip": "ym2612"
    },
    {
      "channel": 2,
      "note": 52,
      "start": 47.8816,
      "duration": 0.0188,
      "velocity": 100,
      "chip": "ym2612"
    },
    {
      "channel": 4,
      "note": 64,
      "start": 47.8982,
      "duration": 0.0161,
      "velocity": 120,
      "chip": "ym2612"
    },
    {
      "channel": 3,
      "note": 71,
      "start": 47.8994,
      "duration": 0.0161,
      "velocity": 120,
      "chip": "ym2612"
    },
    {
      "channel": 2,
      "note": 52,
      "start": 47.9005,
      "duration": 0.0161,
      "velocity": 100,
      "chip": "ym2612"
    },
    {
      "channel": 4,
      "note": 64,
      "start": 47.9143,
      "duration": 0.0157,
      "velocity": 120,
      "chip": "ym2612"
    },
    {
      "channel": 3,
      "note": 71,
      "start": 47.9155,
      "duration": 0.0157,
      "velocity": 120,
      "chip": "ym2612"
    },
    {
      "channel": 2,
      "note": 52,
      "start": 47.9165,
      "duration": 0.0158,
      "velocity": 100,
      "chip": "ym2612"
    },
    {
      "channel": 4,
      "note": 64,
      "start": 47.93,
      "duration": 0.0137,
      "velocity": 120,
      "chip": "ym2612"
    },
    {
      "channel": 3,
      "note": 71,
      "start": 47.9312,
      "duration": 0.0141,
      "velocity": 120,
      "chip": "ym2612"
    },
    {
      "channel": 2,
      "note": 52,
      "start": 47.9323,
      "duration": 0.0141,
      "velocity": 100,
      "chip": "ym2612"
    },
    {
      "channel": 4,
      "note": 64,
      "start": 47.9438,
      "duration": 0.0225,
      "velocity": 120,
      "chip": "ym2612"
    },
    {
      "channel": 3,
      "note": 71,
      "start": 47.9452,
      "duration": 0.0224,
      "velocity": 120,
      "chip": "ym2612"
    },
    {
      "channel": 2,
      "note": 52,
      "start": 47.9464,
      "duration": 0.0227,
      "velocity": 100,
      "chip": "ym2612"
    },
    {
      "channel": 0,
      "note": 36,
      "start": 47.9649,
      "duration": 0.0117,
      "velocity": 115,
      "chip": "ym2612"
    },
    {
      "channel": 4,
      "note": 64,
      "start": 47.9663,
      "duration": 0.0142,
      "velocity": 120,
      "chip": "ym2612"
    },
    {
      "channel": 3,
      "note": 71,
      "start": 47.9677,
      "duration": 0.014,
      "velocity": 120,
      "chip": "ym2612"
    },
    {
      "channel": 2,
      "note": 52,
      "start": 47.9691,
      "duration": 0.0137,
      "velocity": 100,
      "chip": "ym2612"
    },
    {
      "channel": 0,
      "note": 36,
      "start": 47.9765,
      "duration": 0.016,
      "velocity": 115,
      "chip": "ym2612"
    },
    {
      "channel": 4,
      "note": 64,
      "start": 47.9805,
      "duration": 0.0132,
      "velocity": 120,
      "chip": "ym2612"
    },
    {
      "channel": 3,
      "note": 71,
      "start": 47.9817,
      "duration": 0.0156,
      "velocity": 120,
      "chip": "ym2612"
    },
    {
      "channel": 2,
      "note": 52,
      "start": 47.9828,
      "duration": 0.0155,
      "velocity": 100,
      "chip": "ym2612"
    },
    {
      "channel": 0,
      "note": 37,
      "start": 47.9926,
      "duration": 0.0161,
      "velocity": 115,
      "chip": "ym2612"
    },
    {
      "channel": 4,
      "note": 64,
      "start": 47.9937,
      "duration": 0.0161,
      "velocity": 120,
      "chip": "ym2612"
    },
    {
      "channel": 3,
      "note": 71,
      "start": 47.9973,
      "duration": 0.014,
      "velocity": 120,
      "chip": "ym2612"
    },
    {
      "channel": 2,
      "note": 52,
      "start": 47.9983,
      "duration": 0.0141,
      "velocity": 100,
      "chip": "ym2612"
    },
    {
      "channel": 0,
      "note": 37,
      "start": 48.0086,
      "duration": 0.0161,
      "velocity": 115,
      "chip": "ym2612"
    },
    {
      "channel": 4,
      "note": 64,
      "start": 48.0098,
      "duration": 0.0161,
      "velocity": 120,
      "chip": "ym2612"
    },
    {
      "channel": 3,
      "note": 71,
      "start": 48.0112,
      "duration": 0.0158,
      "velocity": 120,
      "chip": "ym2612"
    },
    {
      "channel": 2,
      "note": 52,
      "start": 48.0124,
      "duration": 0.0185,
      "velocity": 100,
      "chip": "ym2612"
    },
    {
      "channel": 0,
      "note": 38,
      "start": 48.0247,
      "duration": 0.0161,
      "velocity": 115,
      "chip": "ym2612"
    },
    {
      "channel": 4,
      "note": 64,
      "start": 48.0259,
      "duration": 0.0161,
      "velocity": 120,
      "chip": "ym2612"
    },
    {
      "channel": 3,
      "note": 71,
      "start": 48.027,
      "duration": 0.0161,
      "velocity": 120,
      "chip": "ym2612"
    },
    {
      "channel": 2,
      "note": 52,
      "start": 48.0309,
      "duration": 0.0161,
      "velocity": 100,
      "chip": "ym2612"
    },
    {
      "channel": 0,
      "note": 38,
      "start": 48.0408,
      "duration": 0.0161,
      "velocity": 115,
      "chip": "ym2612"
    },
    {
      "channel": 4,
      "note": 64,
      "start": 48.042,
      "duration": 0.0161,
      "velocity": 120,
      "chip": "ym2612"
    },
    {
      "channel": 3,
      "note": 71,
      "start": 48.0431,
      "duration": 0.0161,
      "velocity": 120,
      "chip": "ym2612"
    },
    {
      "channel": 2,
      "note": 52,
      "start": 48.047,
      "duration": 0.0134,
      "velocity": 100,
      "chip": "ym2612"
    },
    {
      "channel": 0,
      "note": 39,
      "start": 48.0569,
      "duration": 0.0161,
      "velocity": 115,
      "chip": "ym2612"
    },
    {
      "channel": 4,
      "note": 64,
      "start": 48.0581,
      "duration": 0.0161,
      "velocity": 120,
      "chip": "ym2612"
    },
    {
      "channel": 3,
      "note": 71,
      "start": 48.0592,
      "duration": 0.0161,
      "velocity": 120,
      "chip": "ym2612"
    },
    {
      "channel": 2,
      "note": 52,
      "start": 48.0604,
      "duration": 0.0161,
      "velocity": 100,
      "chip": "ym2612"
    },
    {
      "channel": 0,
      "note": 39,
      "start": 48.073,
      "duration": 0.0161,
      "velocity": 115,
      "chip": "ym2612"
    },
    {
      "channel": 4,
      "note": 64,
      "start": 48.0742,
      "duration": 0.0161,
      "velocity": 120,
      "chip": "ym2612"
    },
    {
      "channel": 3,
      "note": 71,
      "start": 48.0753,
      "duration": 0.0161,
      "velocity": 120,
      "chip": "ym2612"
    },
    {
      "channel": 2,
      "note": 52,
      "start": 48.0765,
      "duration": 0.0161,
      "velocity": 100,
      "chip": "ym2612"
    },
    {
      "channel": 0,
      "note": 40,
      "start": 48.0891,
      "duration": 0.0162,
      "velocity": 115,
      "chip": "ym2612"
    },
    {
      "channel": 4,
      "note": 64,
      "start": 48.0903,
      "duration": 0.0161,
      "velocity": 120,
      "chip": "ym2612"
    },
    {
      "channel": 3,
      "note": 71,
      "start": 48.0914,
      "duration": 0.0162,
      "velocity": 120,
      "chip": "ym2612"
    },
    {
      "channel": 2,
      "note": 52,
      "start": 48.0926,
      "duration": 0.0161,
      "velocity": 100,
      "chip": "ym2612"
    },
    {
      "channel": 0,
      "note": 40,
      "start": 48.1053,
      "duration": 0.0161,
      "velocity": 115,
      "chip": "ym2612"
    },
    {
      "channel": 4,
      "note": 64,
      "start": 48.1064,
      "duration": 0.0161,
      "velocity": 120,
      "chip": "ym2612"
    },
    {
      "channel": 3,
      "note": 71,
      "start": 48.1076,
      "duration": 0.0161,
      "velocity": 120,
      "chip": "ym2612"
    },
    {
      "channel": 2,
      "note": 52,
      "start": 48.1086,
      "duration": 0.0162,
      "velocity": 100,
      "chip": "ym2612"
    },
    {
      "channel": 0,
      "note": 40,
      "start": 48.1214,
      "duration": 0.0161,
      "velocity": 115,
      "chip": "ym2612"
    },
    {
      "channel": 4,
      "note": 64,
      "start": 48.1225,
      "duration": 0.0161,
      "velocity": 120,
      "chip": "ym2612"
    },
    {
      "channel": 3,
      "note": 71,
      "start": 48.1237,
      "duration": 0.0161,
      "velocity": 120,
      "chip": "ym2612"
    },
    {
      "channel": 2,
      "note": 52,
      "start": 48.1248,
      "duration": 0.0161,
      "velocity": 100,
      "chip": "ym2612"
    },
    {
      "channel": 0,
      "note": 41,
      "start": 48.1375,
      "duration": 0.0161,
      "velocity": 115,
      "chip": "ym2612"
    },
    {
      "channel": 4,
      "note": 64,
      "start": 48.1386,
      "duration": 0.0163,
      "velocity": 120,
      "chip": "ym2612"
    },
    {
      "channel": 3,
      "note": 71,
      "start": 48.1398,
      "duration": 0.0166,
      "velocity": 120,
      "chip": "ym2612"
    },
    {
      "channel": 2,
      "note": 52,
      "start": 48.1409,
      "duration": 0.0168,
      "velocity": 100,
      "chip": "ym2612"
    },
    {
      "channel": 0,
      "note": 41,
      "start": 48.1536,
      "duration": 0.0161,
      "velocity": 115,
      "chip": "ym2612"
    },
    {
      "channel": 4,
      "note": 69,
      "start": 48.155,
      "duration": 0.0159,
      "velocity": 120,
      "chip": "ym2612"
    },
    {
      "channel": 3,
      "note": 76,
      "start": 48.1563,
      "duration": 0.0157,
      "velocity": 120,
      "chip": "ym2612"
    },
    {
      "channel": 2,
      "note": 52,
      "start": 48.1578,
      "duration": 0.0155,
      "velocity": 100,
      "chip": "ym2612"
    },
    {
      "channel": 0,
      "note": 42,
      "start": 48.1697,
      "duration": 0.0161,
      "velocity": 115,
      "chip": "ym2612"
    },
    {
      "channel": 4,
      "note": 69,
      "start": 48.1709,
      "duration": 0.016,
      "velocity": 120,
      "chip": "ym2612"
    },
    {
      "channel": 3,
      "note": 76,
      "start": 48.1721,
      "duration": 0.016,
      "velocity": 120,
      "chip": "ym2612"
    },
    {
      "channel": 2,
      "note": 52,
      "start": 48.1733,
      "duration": 0.0159,
      "velocity": 100,
      "chip": "ym2612"
    },
    {
      "channel": 0,
      "note": 42,
      "start": 48.1858,
      "duration": 0.0161,
      "velocity": 115,
      "chip": "ym2612"
    },
    {
      "channel": 4,
      "note": 69,
      "start": 48.1869,
      "duration": 0.0161,
      "velocity": 120,
      "chip": "ym2612"
    },
    {
      "channel": 3,
      "note": 76,
      "start": 48.188,
      "duration": 0.0161,
      "velocity": 120,
      "chip": "ym2612"
    },
    {
      "channel": 2,
      "note": 52,
      "start": 48.1892,
      "duration": 0.0161,
      "velocity": 100,
      "chip": "ym2612"
    },
    {
      "channel": 0,
      "note": 43,
      "start": 48.2018,
      "duration": 0.0161,
      "velocity": 115,
      "chip": "ym2612"
    },
    {
      "channel": 4,
      "note": 69,
      "start": 48.203,
      "duration": 0.0161,
      "velocity": 120,
      "chip": "ym2612"
    },
    {
      "channel": 3,
      "note": 76,
      "start": 48.2041,
      "duration": 0.0161,
      "velocity": 120,
      "chip": "ym2612"
    },
    {
      "channel": 2,
      "note": 52,
      "start": 48.2053,
      "duration": 0.0161,
      "velocity": 100,
      "chip": "ym2612"
    },
    {
      "channel": 0,
      "note": 43,
      "start": 48.2179,
      "duration": 0.0161,
      "velocity": 115,
      "chip": "ym2612"
    },
    {
      "channel": 4,
      "note": 69,
      "start": 48.2191,
      "duration": 0.0161,
      "velocity": 120,
      "chip": "ym2612"
    },
    {
      "channel": 3,
      "note": 76,
      "start": 48.2202,
      "duration": 0.0161,
      "velocity": 120,
      "chip": "ym2612"
    },
    {
      "channel": 2,
      "note": 52,
      "start": 48.2214,
      "duration": 0.0161,
      "velocity": 100,
      "chip": "ym2612"
    },
    {
      "channel": 0,
      "note": 44,
      "start": 48.234,
      "duration": 0.0161,
      "velocity": 115,
      "chip": "ym2612"
    },
    {
      "channel": 4,
      "note": 69,
      "start": 48.2352,
      "duration": 0.0161,
      "velocity": 120,
      "chip": "ym2612"
    },
    {
      "channel": 3,
      "note": 76,
      "start": 48.2363,
      "duration": 0.0161,
      "velocity": 120,
      "chip": "ym2612"
    },
    {
      "channel": 2,
      "note": 52,
      "start": 48.2375,
      "duration": 0.0161,
      "velocity": 100,
      "chip": "ym2612"
    },
    {
      "channel": 0,
      "note": 44,
      "start": 48.2502,
      "duration": 0.0161,
      "velocity": 115,
      "chip": "ym2612"
    },
    {
      "channel": 4,
      "note": 69,
      "start": 48.2513,
      "duration": 0.0161,
      "velocity": 120,
      "chip": "ym2612"
    },
    {
      "channel": 3,
      "note": 76,
      "start": 48.2525,
      "duration": 0.0161,
      "velocity": 120,
      "chip": "ym2612"
    },
    {
      "channel": 2,
      "note": 52,
      "start": 48.2536,
      "duration": 0.0161,
      "velocity": 100,
      "chip": "ym2612"
    },
    {
      "channel": 0,
      "note": 44,
      "start": 48.2663,
      "duration": 0.0161,
      "velocity": 115,
      "chip": "ym2612"
    },
    {
      "channel": 4,
      "note": 69,
      "start": 48.2674,
      "duration": 0.0161,
      "velocity": 120,
      "chip": "ym2612"
    },
    {
      "channel": 3,
      "note": 76,
      "start": 48.2686,
      "duration": 0.0161,
      "velocity": 120,
      "chip": "ym2612"
    },
    {
      "channel": 2,
      "note": 52,
      "start": 48.2697,
      "duration": 0.0161,
      "velocity": 100,
      "chip": "ym2612"
    },
    {
      "channel": 0,
      "note": 45,
      "start": 48.2824,
      "duration": 0.0163,
      "velocity": 115,
      "chip": "ym2612"
    },
    {
      "channel": 4,
      "note": 69,
      "start": 48.2835,
      "duration": 0.0163,
      "velocity": 120,
      "chip": "ym2612"
    },
    {
      "channel": 3,
      "note": 76,
      "start": 48.2847,
      "duration": 0.0163,
      "velocity": 120,
      "chip": "ym2612"
    },
    {
      "channel": 2,
      "note": 52,
      "start": 48.2858,
      "duration": 0.0163,
      "velocity": 100,
      "chip": "ym2612"
    },
    {
      "channel": 0,
      "note": 45,
      "start": 48.2987,
      "duration": 0.0167,
      "velocity": 115,
      "chip": "ym2612"
    },
    {
      "channel": 4,
      "note": 69,
      "start": 48.2999,
      "duration": 0.0167,
      "velocity": 120,
      "chip": "ym2612"
    },
    {
      "channel": 3,
      "note": 76,
      "start": 48.301,
      "duration": 0.0167,
      "velocity": 120,
      "chip": "ym2612"
    },
    {
      "channel": 2,
      "note": 52,
      "start": 48.3021,
      "duration": 0.0167,
      "velocity": 100,
      "chip": "ym2612"
    },
    {
      "channel": 0,
      "note": 46,
      "start": 48.3154,
      "duration": 0.0163,
      "velocity": 115,
      "chip": "ym2612"
    },
    {
      "channel": 4,
      "note": 69,
      "start": 48.3165,
      "duration": 0.0163,
      "velocity": 120,
      "chip": "ym2612"
    },
    {
      "channel": 3,
      "note": 76,
      "start": 48.3177,
      "duration": 0.0163,
      "velocity": 120,
      "chip": "ym2612"
    },
    {
      "channel": 2,
      "note": 52,
      "start": 48.3188,
      "duration": 0.0163,
      "velocity": 100,
      "chip": "ym2612"
    },
    {
      "channel": 0,
      "note": 46,
      "start": 48.3317,
      "duration": 0.0168,
      "velocity": 124,
      "chip": "ym2612"
    },
    {
      "channel": 4,
      "note": 69,
      "start": 48.3328,
      "duration": 0.0171,
      "velocity": 120,
      "chip": "ym2612"
    },
    {
      "channel": 3,
      "note": 76,
      "start": 48.334,
      "duration": 0.0174,
      "velocity": 120,
      "chip": "ym2612"
    },
    {
      "channel": 2,
      "note": 52,
      "start": 48.3351,
      "duration": 0.0177,
      "velocity": 100,
      "chip": "ym2612"
    },
    {
      "channel": 0,
      "note": 84,
      "start": 48.3485,
      "duration": 0.0169,
      "velocity": 124,
      "chip": "ym2612"
    },
    {
      "channel": 4,
      "note": 69,
      "start": 48.35,
      "duration": 0.0167,
      "velocity": 120,
      "chip": "ym2612"
    },
    {
      "channel": 3,
      "note": 76,
      "start": 48.3514,
      "duration": 0.0165,
      "velocity": 120,
      "chip": "ym2612"
    },
    {
      "channel": 2,
      "note": 52,
      "start": 48.3528,
      "duration": 0.0162,
      "velocity": 100,
      "chip": "ym2612"
    },
    {
      "channel": 0,
      "note": 82,
      "start": 48.3655,
      "duration": 0.0163,
      "velocity": 124,
      "chip": "ym2612"
    },
    {
      "channel": 4,
      "note": 69,
      "start": 48.3667,
      "duration": 0.0162,
      "velocity": 120,
      "chip": "ym2612"
    },
    {
      "channel": 3,
      "note": 76,
      "start": 48.3679,
      "duration": 0.0162,
      "velocity": 120,
      "chip": "ym2612"
    },
    {
      "channel": 2,
      "note": 52,
      "start": 48.369,
      "duration": 0.0161,
      "velocity": 100,
      "chip": "ym2612"
    },
    {
      "channel": 0,
      "note": 80,
      "start": 48.3817,
      "duration": 0.0157,
      "velocity": 124,
      "chip": "ym2612"
    },
    {
      "channel": 4,
      "note": 69,
      "start": 48.3829,
      "duration": 0.0158,
      "velocity": 120,
      "chip": "ym2612"
    },
    {
      "channel": 3,
      "note": 76,
      "start": 48.384,
      "duration": 0.0157,
      "velocity": 120,
      "chip": "ym2612"
    },
    {
      "channel": 2,
      "note": 52,
      "start": 48.3852,
      "duration": 0.0157,
      "velocity": 100,
      "chip": "ym2612"
    },
    {
      "channel": 0,
      "note": 77,
      "start": 48.3975,
      "duration": 0.0141,
      "velocity": 124,
      "chip": "ym2612"
    },
    {
      "channel": 4,
      "note": 69,
      "start": 48.3987,
      "duration": 0.014,
      "velocity": 120,
      "chip": "ym2612"
    },
    {
      "channel": 3,
      "note": 76,
      "start": 48.3998,
      "duration": 0.0141,
      "velocity": 120,
      "chip": "ym2612"
    },
    {
      "channel": 2,
      "note": 52,
      "start": 48.4009,
      "duration": 0.0141,
      "velocity": 100,
      "chip": "ym2612"
    },
    {
      "channel": 0,
      "note": 75,
      "start": 48.4115,
      "duration": 0.0158,
      "velocity": 124,
      "chip": "ym2612"
    },
    {
      "channel": 4,
      "note": 69,
      "start": 48.4127,
      "duration": 0.0185,
      "velocity": 120,
      "chip": "ym2612"
    },
    {
      "channel": 3,
      "note": 76,
      "start": 48.4138,
      "duration": 0.0185,
      "velocity": 120,
      "chip": "ym2612"
    },
    {
      "channel": 2,
      "note": 52,
      "start": 48.4149,
      "duration": 0.0185,
      "velocity": 100,
      "chip": "ym2612"
    },
    {
      "channel": 0,
      "note": 72,
      "start": 48.4273,
      "duration": 0.0161,
      "velocity": 124,
      "chip": "ym2612"
    },
    {
      "channel": 4,
      "note": 69,
      "start": 48.4312,
      "duration": 0.0161,
      "velocity": 120,
      "chip": "ym2612"
    },
    {
      "channel": 3,
      "note": 76,
      "start": 48.4323,
      "duration": 0.0161,
      "velocity": 120,
      "chip": "ym2612"
    },
    {
      "channel": 2,
      "note": 52,
      "start": 48.4335,
      "duration": 0.0161,
      "velocity": 100,
      "chip": "ym2612"
    },
    {
      "channel": 0,
      "note": 70,
      "start": 48.4434,
      "duration": 0.0161,
      "velocity": 124,
      "chip": "ym2612"
    },
    {
      "channel": 4,
      "note": 69,
      "start": 48.4473,
      "duration": 0.0134,
      "velocity": 120,
      "chip": "ym2612"
    },
    {
      "channel": 3,
      "note": 76,
      "start": 48.4484,
      "duration": 0.0157,
      "velocity": 120,
      "chip": "ym2612"
    },
    {
      "channel": 2,
      "note": 52,
      "start": 48.4495,
      "duration": 0.0157,
      "velocity": 100,
      "chip": "ym2612"
    },
    {
      "channel": 0,
      "note": 68,
      "start": 48.4595,
      "duration": 0.0161,
      "velocity": 124,
      "chip": "ym2612"
    },
    {
      "channel": 4,
      "note": 69,
      "start": 48.4606,
      "duration": 0.0161,
      "velocity": 120,
      "chip": "ym2612"
    },
    {
      "channel": 3,
      "note": 76,
      "start": 48.4641,
      "duration": 0.0141,
      "velocity": 120,
      "chip": "ym2612"
    },
    {
      "channel": 2,
      "note": 52,
      "start": 48.4653,
      "duration": 0.0141,
      "velocity": 100,
      "chip": "ym2612"
    },
    {
      "channel": 0,
      "note": 65,
      "start": 48.4756,
      "duration": 0.0161,
      "velocity": 124,
      "chip": "ym2612"
    },
    {
      "channel": 4,
      "note": 69,
      "start": 48.4767,
      "duration": 0.0162,
      "velocity": 120,
      "chip": "ym2612"
    },
    {
      "channel": 3,
      "note": 76,
      "start": 48.4782,
      "duration": 0.0185,
      "velocity": 120,
      "chip": "ym2612"
    },
    {
      "channel": 2,
      "note": 52,
      "start": 48.4793,
      "duration": 0.0185,
      "velocity": 100,
      "chip": "ym2612"
    },
    {
      "channel": 0,
      "note": 63,
      "start": 48.4917,
      "duration": 0.0154,
      "velocity": 1,
      "chip": "ym2612"
    },
    {
      "channel": 4,
      "note": 69,
      "start": 48.4929,
      "duration": 0.0153,
      "velocity": 120,
      "chip": "ym2612"
    },
    {
      "channel": 3,
      "note": 76,
      "start": 48.4967,
      "duration": 0.0126,
      "velocity": 120,
      "chip": "ym2612"
    },
    {
      "channel": 2,
      "note": 52,
      "start": 48.4978,
      "duration": 0.0125,
      "velocity": 100,
      "chip": "ym2612"
    },
    {
      "channel": 4,
      "note": 69,
      "start": 48.5081,
      "duration": 0.0153,
      "velocity": 120,
      "chip": "ym2612"
    },
    {
      "channel": 3,
      "note": 76,
      "start": 48.5093,
      "duration": 0.0153,
      "velocity": 120,
      "chip": "ym2612"
    },
    {
      "channel": 2,
      "note": 52,
      "start": 48.5104,
      "duration": 0.0153,
      "velocity": 100,
      "chip": "ym2612"
    },
    {
      "channel": 4,
      "note": 69,
      "start": 48.5234,
      "duration": 0.0197,
      "velocity": 120,
      "chip": "ym2612"
    },
    {
      "channel": 3,
      "note": 76,
      "start": 48.5246,
      "duration": 0.0203,
      "velocity": 120,
      "chip": "ym2612"
    },
    {
      "channel": 2,
      "note": 52,
      "start": 48.5256,
      "duration": 0.0207,
      "velocity": 100,
      "chip": "ym2612"
    },
    {
      "channel": 0,
      "note": 36,
      "start": 48.5418,
      "duration": 0.0144,
      "velocity": 115,
      "chip": "ym2612"
    },
    {
      "channel": 4,
      "note": 67,
      "start": 48.5432,
      "duration": 0.0142,
      "velocity": 120,
      "chip": "ym2612"
    },
    {
      "channel": 3,
      "note": 74,
      "start": 48.5449,
      "duration": 0.0136,
      "velocity": 120,
      "chip": "ym2612"
    },
    {
      "channel": 2,
      "note": 52,
      "start": 48.5464,
      "duration": 0.0134,
      "velocity": 100,
      "chip": "ym2612"
    },
    {
      "channel": 0,
      "note": 36,
      "start": 48.5562,
      "duration": 0.016,
      "velocity": 115,
      "chip": "ym2612"
    },
    {
      "channel": 4,
      "note": 67,
      "start": 48.5574,
      "duration": 0.016,
      "velocity": 120,
      "chip": "ym2612"
    },
    {
      "channel": 3,
      "note": 74,
      "start": 48.5585,
      "duration": 0.016,
      "velocity": 120,
      "chip": "ym2612"
    },
    {
      "channel": 2,
      "note": 52,
      "start": 48.5597,
      "duration": 0.0159,
      "velocity": 100,
      "chip": "ym2612"
    },
    {
      "channel": 0,
      "note": 37,
      "start": 48.5722,
      "duration": 0.0161,
      "velocity": 115,
      "chip": "ym2612"
    },
    {
      "channel": 4,
      "note": 67,
      "start": 48.5733,
      "duration": 0.0161,
      "velocity": 120,
      "chip": "ym2612"
    },
    {
      "channel": 3,
      "note": 74,
      "start": 48.5745,
      "duration": 0.0161,
      "velocity": 120,
      "chip": "ym2612"
    },
    {
      "channel": 2,
      "note": 52,
      "start": 48.5756,
      "duration": 0.0161,
      "velocity": 100,
      "chip": "ym2612"
    },
    {
      "channel": 0,
      "note": 37,
      "start": 48.5883,
      "duration": 0.0161,
      "velocity": 115,
      "chip": "ym2612"
    },
    {
      "channel": 4,
      "note": 67,
      "start": 48.5894,
      "duration": 0.0161,
      "velocity": 120,
      "chip": "ym2612"
    },
    {
      "channel": 3,
      "note": 74,
      "start": 48.5906,
      "duration": 0.0161,
      "velocity": 120,
      "chip": "ym2612"
    },
    {
      "channel": 2,
      "note": 52,
      "start": 48.5917,
      "duration": 0.0161,
      "velocity": 100,
      "chip": "ym2612"
    },
    {
      "channel": 0,
      "note": 38,
      "start": 48.6044,
      "duration": 0.0161,
      "velocity": 115,
      "chip": "ym2612"
    },
    {
      "channel": 4,
      "note": 67,
      "start": 48.6055,
      "duration": 0.0161,
      "velocity": 120,
      "chip": "ym2612"
    },
    {
      "channel": 3,
      "note": 74,
      "start": 48.6067,
      "duration": 0.0161,
      "velocity": 120,
      "chip": "ym2612"
    },
    {
      "channel": 2,
      "note": 52,
      "start": 48.6078,
      "duration": 0.0161,
      "velocity": 100,
      "chip": "ym2612"
    },
    {
      "channel": 0,
      "note": 38,
      "start": 48.6205,
      "duration": 0.0161,
      "velocity": 115,
      "chip": "ym2612"
    },
    {
      "channel": 4,
      "note": 67,
      "start": 48.6216,
      "duration": 0.0161,
      "velocity": 120,
      "chip": "ym2612"
    },
    {
      "channel": 3,
      "note": 74,
      "start": 48.6228,
      "duration": 0.0161,
      "velocity": 120,
      "chip": "ym2612"
    },
    {
      "channel": 2,
      "note": 52,
      "start": 48.6239,
      "duration": 0.0161,
      "velocity": 100,
      "chip": "ym2612"
    },
    {
      "channel": 0,
      "note": 39,
      "start": 48.6366,
      "duration": 0.0161,
      "velocity": 115,
      "chip": "ym2612"
    },
    {
      "channel": 4,
      "note": 67,
      "start": 48.6377,
      "duration": 0.0161,
      "velocity": 120,
      "chip": "ym2612"
    },
    {
      "channel": 3,
      "note": 74,
      "start": 48.6389,
      "duration": 0.0161,
      "velocity": 120,
      "chip": "ym2612"
    },
    {
      "channel": 2,
      "note": 52,
      "start": 48.64,
      "duration": 0.0161,
      "velocity": 100,
      "chip": "ym2612"
    },
    {
      "channel": 0,
      "note": 39,
      "start": 48.6527,
      "duration": 0.0161,
      "velocity": 115,
      "chip": "ym2612"
    },
    {
      "channel": 4,
      "note": 67,
      "start": 48.6538,
      "duration": 0.0161,
      "velocity": 120,
      "chip": "ym2612"
    },
    {
      "channel": 3,
      "note": 74,
      "start": 48.655,
      "duration": 0.0161,
      "velocity": 120,
      "chip": "ym2612"
    },
    {
      "channel": 2,
      "note": 52,
      "start": 48.6561,
      "duration": 0.0161,
      "velocity": 100,
      "chip": "ym2612"
    },
    {
      "channel": 0,
      "note": 40,
      "start": 48.6688,
      "duration": 0.0161,
      "velocity": 115,
      "chip": "ym2612"
    },
    {
      "channel": 4,
      "note": 67,
      "start": 48.6699,
      "duration": 0.0162,
      "velocity": 120,
      "chip": "ym2612"
    },
    {
      "channel": 3,
      "note": 74,
      "start": 48.671,
      "duration": 0.0162,
      "velocity": 120,
      "chip": "ym2612"
    },
    {
      "channel": 2,
      "note": 52,
      "start": 48.6722,
      "duration": 0.0161,
      "velocity": 100,
      "chip": "ym2612"
    },
    {
      "channel": 0,
      "note": 40,
      "start": 48.6849,
      "duration": 0.0162,
      "velocity": 115,
      "chip": "ym2612"
    },
    {
      "channel": 4,
      "note": 67,
      "start": 48.6861,
      "duration": 0.0161,
      "velocity": 120,
      "chip": "ym2612"
    },
    {
      "channel": 3,
      "note": 74,
      "start": 48.6872,
      "duration": 0.0161,
      "velocity": 120,
      "chip": "ym2612"
    },
    {
      "channel": 2,
      "note": 52,
      "start": 48.6883,
      "duration": 0.0161,
      "velocity": 100,
      "chip": "ym2612"
    },
    {
      "channel": 0,
      "note": 40,
      "start": 48.701,
      "duration": 0.0161,
      "velocity": 115,
      "chip": "ym2612"
    },
    {
      "channel": 4,
      "note": 67,
      "start": 48.7022,
      "duration": 0.0161,
      "velocity": 120,
      "chip": "ym2612"
    },
    {
      "channel": 3,
      "note": 74,
      "start": 48.7033,
      "duration": 0.0161,
      "velocity": 120,
      "chip": "ym2612"
    },
    {
      "channel": 2,
      "note": 52,
      "start": 48.7044,
      "duration": 0.0162,
      "velocity": 100,
      "chip": "ym2612"
    },
    {
      "channel": 0,
      "note": 41,
      "start": 48.7171,
      "duration": 0.0178,
      "velocity": 115,
      "chip": "ym2612"
    },
    {
      "channel": 4,
      "note": 67,
      "start": 48.7183,
      "duration": 0.0181,
      "velocity": 120,
      "chip": "ym2612"
    },
    {
      "channel": 3,
      "note": 74,
      "start": 48.7194,
      "duration": 0.0184,
      "velocity": 120,
      "chip": "ym2612"
    },
    {
      "channel": 2,
      "note": 52,
      "start": 48.7205,
      "duration": 0.0186,
      "velocity": 100,
      "chip": "ym2612"
    },
    {
      "channel": 0,
      "note": 36,
      "start": 48.735,
      "duration": 0.0144,
      "velocity": 115,
      "chip": "ym2612"
    },
    {
      "channel": 4,
      "note": 67,
      "start": 48.7364,
      "duration": 0.0142,
      "velocity": 120,
      "chip": "ym2612"
    },
    {
      "channel": 3,
      "note": 74,
      "start": 48.7378,
      "duration": 0.014,
      "velocity": 120,
      "chip": "ym2612"
    },
    {
      "channel": 2,
      "note": 52,
      "start": 48.7393,
      "duration": 0.0137,
      "velocity": 100,
      "chip": "ym2612"
    },
    {
      "channel": 0,
      "note": 36,
      "start": 48.7494,
      "duration": 0.016,
      "velocity": 115,
      "chip": "ym2612"
    },
    {
      "channel": 4,
      "note": 67,
      "start": 48.7506,
      "duration": 0.016,
      "velocity": 120,
      "chip": "ym2612"
    },
    {
      "channel": 3,
      "note": 74,
      "start": 48.7518,
      "duration": 0.0159,
      "velocity": 120,
      "chip": "ym2612"
    },
    {
      "channel": 2,
      "note": 52,
      "start": 48.7529,
      "duration": 0.0159,
      "velocity": 100,
      "chip": "ym2612"
    },
    {
      "channel": 0,
      "note": 37,
      "start": 48.7654,
      "duration": 0.0167,
      "velocity": 115,
      "chip": "ym2612"
    },
    {
      "channel": 4,
      "note": 67,
      "start": 48.7665,
      "duration": 0.0167,
      "velocity": 120,
      "chip": "ym2612"
    },
    {
      "channel": 3,
      "note": 74,
      "start": 48.7677,
      "duration": 0.0167,
      "velocity": 120,
      "chip": "ym2612"
    },
    {
      "channel": 2,
      "note": 52,
      "start": 48.7688,
      "duration": 0.0166,
      "velocity": 100,
      "chip": "ym2612"
    },
    {
      "channel": 0,
      "note": 37,
      "start": 48.7821,
      "duration": 0.0163,
      "velocity": 115,
      "chip": "ym2612"
    },
    {
      "channel": 4,
      "note": 67,
      "start": 48.7832,
      "duration": 0.0163,
      "velocity": 120,
      "chip": "ym2612"
    },
    {
      "channel": 3,
      "note": 74,
      "start": 48.7844,
      "duration": 0.0163,
      "velocity": 120,
      "chip": "ym2612"
    },
    {
      "channel": 2,
      "note": 52,
      "start": 48.7854,
      "duration": 0.0163,
      "velocity": 100,
      "chip": "ym2612"
    },
    {
      "channel": 0,
      "note": 38,
      "start": 48.7983,
      "duration": 0.0153,
      "velocity": 115,
      "chip": "ym2612"
    },
    {
      "channel": 4,
      "note": 67,
      "start": 48.7995,
      "duration": 0.0154,
      "velocity": 120,
      "chip": "ym2612"
    },
    {
      "channel": 3,
      "note": 74,
      "start": 48.8006,
      "duration": 0.0153,
      "velocity": 120,
      "chip": "ym2612"
    },
    {
      "channel": 2,
      "note": 52,
      "start": 48.8018,
      "duration": 0.0154,
      "velocity": 100,
      "chip": "ym2612"
    },
    {
      "channel": 0,
      "note": 38,
      "start": 48.8137,
      "duration": 0.0184,
      "velocity": 115,
      "chip": "ym2612"
    },
    {
      "channel": 4,
      "note": 67,
      "start": 48.8148,
      "duration": 0.0184,
      "velocity": 120,
      "chip": "ym2612"
    },
    {
      "channel": 3,
      "note": 74,
      "start": 48.816,
      "duration": 0.0184,
      "velocity": 120,
      "chip": "ym2612"
    },
    {
      "channel": 2,
      "note": 52,
      "start": 48.8171,
      "duration": 0.0184,
      "velocity": 100,
      "chip": "ym2612"
    },
    {
      "channel": 0,
      "note": 39,
      "start": 48.8321,
      "duration": 0.0166,
      "velocity": 115,
      "chip": "ym2612"
    },
    {
      "channel": 4,
      "note": 67,
      "start": 48.8332,
      "duration": 0.0166,
      "velocity": 120,
      "chip": "ym2612"
    },
    {
      "channel": 3,
      "note": 74,
      "start": 48.8344,
      "duration": 0.0166,
      "velocity": 120,
      "chip": "ym2612"
    },
    {
      "channel": 2,
      "note": 52,
      "start": 48.8355,
      "duration": 0.0166,
      "velocity": 100,
      "chip": "ym2612"
    },
    {
      "channel": 0,
      "note": 39,
      "start": 48.8487,
      "duration": 0.0157,
      "velocity": 115,
      "chip": "ym2612"
    },
    {
      "channel": 4,
      "note": 67,
      "start": 48.8498,
      "duration": 0.0157,
      "velocity": 120,
      "chip": "ym2612"
    },
    {
      "channel": 3,
      "note": 74,
      "start": 48.851,
      "duration": 0.0157,
      "velocity": 120,
      "chip": "ym2612"
    },
    {
      "channel": 2,
      "note": 52,
      "start": 48.8521,
      "duration": 0.0157,
      "velocity": 100,
      "chip": "ym2612"
    },
    {
      "channel": 0,
      "note": 40,
      "start": 48.8644,
      "duration": 0.0141,
      "velocity": 115,
      "chip": "ym2612"
    },
    {
      "channel": 4,
      "note": 67,
      "start": 48.8655,
      "duration": 0.0141,
      "velocity": 120,
      "chip": "ym2612"
    },
    {
      "channel": 3,
      "note": 74,
      "start": 48.8667,
      "duration": 0.0141,
      "velocity": 120,
      "chip": "ym2612"
    },
    {
      "channel": 2,
      "note": 52,
      "start": 48.8678,
      "duration": 0.0141,
      "velocity": 100,
      "chip": "ym2612"
    },
    {
      "channel": 0,
      "note": 40,
      "start": 48.8784,
      "duration": 0.0185,
      "velocity": 115,
      "chip": "ym2612"
    },
    {
      "channel": 4,
      "note": 67,
      "start": 48.8796,
      "duration": 0.0185,
      "velocity": 120,
      "chip": "ym2612"
    },
    {
      "channel": 3,
      "note": 74,
      "start": 48.8807,
      "duration": 0.0185,
      "velocity": 120,
      "chip": "ym2612"
    },
    {
      "channel": 2,
      "note": 52,
      "start": 48.8819,
      "duration": 0.0185,
      "velocity": 100,
      "chip": "ym2612"
    },
    {
      "channel": 0,
      "note": 40,
      "start": 48.8969,
      "duration": 0.0134,
      "velocity": 115,
      "chip": "ym2612"
    },
    {
      "channel": 4,
      "note": 67,
      "start": 48.8981,
      "duration": 0.0161,
      "velocity": 120,
      "chip": "ym2612"
    },
    {
      "channel": 3,
      "note": 74,
      "start": 48.8992,
      "duration": 0.0161,
      "velocity": 120,
      "chip": "ym2612"
    },
    {
      "channel": 2,
      "note": 52,
      "start": 48.9004,
      "duration": 0.0161,
      "velocity": 100,
      "chip": "ym2612"
    },
    {
      "channel": 0,
      "note": 41,
      "start": 48.9103,
      "duration": 0.0202,
      "velocity": 115,
      "chip": "ym2612"
    },
    {
      "channel": 4,
      "note": 67,
      "start": 48.9142,
      "duration": 0.0177,
      "velocity": 120,
      "chip": "ym2612"
    },
    {
      "channel": 3,
      "note": 74,
      "start": 48.9153,
      "duration": 0.0181,
      "velocity": 120,
      "chip": "ym2612"
    },
    {
      "channel": 2,
      "note": 52,
      "start": 48.9165,
      "duration": 0.0183,
      "velocity": 100,
      "chip": "ym2612"
    },
    {
      "channel": 0,
      "note": 36,
      "start": 48.9306,
      "duration": 0.012,
      "velocity": 115,
      "chip": "ym2612"
    },
    {
      "channel": 4,
      "note": 66,
      "start": 48.932,
      "duration": 0.0118,
      "velocity": 120,
      "chip": "ym2612"
    },
    {
      "channel": 3,
      "note": 73,
      "start": 48.9334,
      "duration": 0.0119,
      "velocity": 120,
      "chip": "ym2612"
    },
    {
      "channel": 2,
      "note": 52,
      "start": 48.9349,
      "duration": 0.0117,
      "velocity": 100,
      "chip": "ym2612"
    },
    {
      "channel": 0,
      "note": 36,
      "start": 48.9426,
      "duration": 0.016,
      "velocity": 115,
      "chip": "ym2612"
    },
    {
      "channel": 4,
      "note": 66,
      "start": 48.9438,
      "duration": 0.016,
      "velocity": 120,
      "chip": "ym2612"
    },
    {
      "channel": 3,
      "note": 73,
      "start": 48.9453,
      "duration": 0.0184,
      "velocity": 120,
      "chip": "ym2612"
    },
    {
      "channel": 2,
      "note": 52,
      "start": 48.9465,
      "duration": 0.0183,
      "velocity": 100,
      "chip": "ym2612"
    },
    {
      "channel": 0,
      "note": 37,
      "start": 48.9586,
      "duration": 0.0161,
      "velocity": 115,
      "chip": "ym2612"
    },
    {
      "channel": 4,
      "note": 66,
      "start": 48.9597,
      "duration": 0.0161,
      "velocity": 120,
      "chip": "ym2612"
    },
    {
      "channel": 3,
      "note": 73,
      "start": 48.9637,
      "duration": 0.0133,
      "velocity": 120,
      "chip": "ym2612"
    },
    {
      "channel": 2,
      "note": 52,
      "start": 48.9648,
      "duration": 0.0161,
      "velocity": 100,
      "chip": "ym2612"
    },
    {
      "channel": 0,
      "note": 37,
      "start": 48.9747,
      "duration": 0.0162,
      "velocity": 115,
      "chip": "ym2612"
    },
    {
      "channel": 4,
      "note": 66,
      "start": 48.9758,
      "duration": 0.0161,
      "velocity": 120,
      "chip": "ym2612"
    },
    {
      "channel": 3,
      "note": 73,
      "start": 48.977,
      "duration": 0.0162,
      "velocity": 120,
      "chip": "ym2612"
    },
    {
      "channel": 2,
      "note": 52,
      "start": 48.9809,
      "duration": 0.0158,
      "velocity": 100,
      "chip": "ym2612"
    },
    {
      "channel": 0,
      "note": 38,
      "start": 48.9908,
      "duration": 0.0161,
      "velocity": 115,
      "chip": "ym2612"
    },
    {
      "channel": 4,
      "note": 66,
      "start": 48.992,
      "duration": 0.0161,
      "velocity": 120,
      "chip": "ym2612"
    },
    {
      "channel": 3,
      "note": 73,
      "start": 48.9931,
      "duration": 0.0161,
      "velocity": 120,
      "chip": "ym2612"
    },
    {
      "channel": 2,
      "note": 52,
      "start": 48.9966,
      "duration": 0.0137,
      "velocity": 100,
      "chip": "ym2612"
    },
    {
      "channel": 0,
      "note": 38,
      "start": 49.0069,
      "duration": 0.0161,
      "velocity": 115,
      "chip": "ym2612"
    },
    {
      "channel": 4,
      "note": 66,
      "start": 49.0081,
      "duration": 0.0161,
      "velocity": 120,
      "chip": "ym2612"
    },
    {
      "channel": 3,
      "note": 73,
      "start": 49.0092,
      "duration": 0.0161,
      "velocity": 120,
      "chip": "ym2612"
    },
    {
      "channel": 2,
      "note": 52,
      "start": 49.0103,
      "duration": 0.0162,
      "velocity": 100,
      "chip": "ym2612"
    },
    {
      "channel": 0,
      "note": 39,
      "start": 49.023,
      "duration": 0.0161,
      "velocity": 115,
      "chip": "ym2612"
    },
    {
      "channel": 4,
      "note": 66,
      "start": 49.0242,
      "duration": 0.0161,
      "velocity": 120,
      "chip": "ym2612"
    },
    {
      "channel": 3,
      "note": 73,
      "start": 49.0253,
      "duration": 0.0161,
      "velocity": 120,
      "chip": "ym2612"
    },
    {
      "channel": 2,
      "note": 52,
      "start": 49.0265,
      "duration": 0.0161,
      "velocity": 100,
      "chip": "ym2612"
    },
    {
      "channel": 0,
      "note": 39,
      "start": 49.0391,
      "duration": 0.0161,
      "velocity": 115,
      "chip": "ym2612"
    },
    {
      "channel": 4,
      "note": 66,
      "start": 49.0403,
      "duration": 0.0161,
      "velocity": 120,
      "chip": "ym2612"
    },
    {
      "channel": 3,
      "note": 73,
      "start": 49.0414,
      "duration": 0.0161,
      "velocity": 120,
      "chip": "ym2612"
    },
    {
      "channel": 2,
      "note": 52,
      "start": 49.0426,
      "duration": 0.0161,
      "velocity": 100,
      "chip": "ym2612"
    },
    {
      "channel": 0,
      "note": 40,
      "start": 49.0552,
      "duration": 0.0161,
      "velocity": 115,
      "chip": "ym2612"
    },
    {
      "channel": 4,
      "note": 66,
      "start": 49.0563,
      "duration": 0.0161,
      "velocity": 120,
      "chip": "ym2612"
    },
    {
      "channel": 3,
      "note": 73,
      "start": 49.0575,
      "duration": 0.0161,
      "velocity": 120,
      "chip": "ym2612"
    },
    {
      "channel": 2,
      "note": 52,
      "start": 49.0586,
      "duration": 0.0161,
      "velocity": 100,
      "chip": "ym2612"
    },
    {
      "channel": 0,
      "note": 40,
      "start": 49.0713,
      "duration": 0.0161,
      "velocity": 115,
      "chip": "ym2612"
    },
    {
      "channel": 4,
      "note": 66,
      "start": 49.0724,
      "duration": 0.0161,
      "velocity": 120,
      "chip": "ym2612"
    },
    {
      "channel": 3,
      "note": 73,
      "start": 49.0736,
      "duration": 0.0161,
      "velocity": 120,
      "chip": "ym2612"
    },
    {
      "channel": 2,
      "note": 52,
      "start": 49.0747,
      "duration": 0.0161,
      "velocity": 100,
      "chip": "ym2612"
    },
    {
      "channel": 0,
      "note": 40,
      "start": 49.0874,
      "duration": 0.0161,
      "velocity": 115,
      "chip": "ym2612"
    },
    {
      "channel": 4,
      "note": 66,
      "start": 49.0885,
      "duration": 0.0161,
      "velocity": 120,
      "chip": "ym2612"
    },
    {
      "channel": 3,
      "note": 73,
      "start": 49.0897,
      "duration": 0.0161,
      "velocity": 120,
      "chip": "ym2612"
    },
    {
      "channel": 2,
      "note": 52,
      "start": 49.0908,
      "duration": 0.0161,
      "velocity": 100,
      "chip": "ym2612"
    },
    {
      "channel": 0,
      "note": 41,
      "start": 49.1035,
      "duration": 0.0179,
      "velocity": 124,
      "chip": "ym2612"
    },
    {
      "channel": 4,
      "note": 66,
      "start": 49.1046,
      "duration": 0.0181,
      "velocity": 120,
      "chip": "ym2612"
    },
    {
      "channel": 3,
      "note": 73,
      "start": 49.1058,
      "duration": 0.0184,
      "velocity": 120,
      "chip": "ym2612"
    },
    {
      "channel": 2,
      "note": 52,
      "start": 49.1069,
      "duration": 0.0187,
      "velocity": 100,
      "chip": "ym2612"
    },
    {
      "channel": 0,
      "note": 84,
      "start": 49.1214,
      "duration": 0.0143,
      "velocity": 124,
      "chip": "ym2612"
    },
    {
      "channel": 4,
      "note": 66,
      "start": 49.1228,
      "duration": 0.0141,
      "velocity": 120,
      "chip": "ym2612"
    },
    {
      "channel": 3,
      "note": 73,
      "start": 49.1242,
      "duration": 0.0139,
      "velocity": 120,
      "chip": "ym2612"
    },
    {
      "channel": 2,
      "note": 52,
      "start": 49.1257,
      "duration": 0.0137,
      "velocity": 100,
      "chip": "ym2612"
    },
    {
      "channel": 0,
      "note": 82,
      "start": 49.1358,
      "duration": 0.0161,
      "velocity": 124,
      "chip": "ym2612"
    },
    {
      "channel": 4,
      "note": 66,
      "start": 49.137,
      "duration": 0.016,
      "velocity": 120,
      "chip": "ym2612"
    },
    {
      "channel": 3,
      "note": 73,
      "start": 49.1382,
      "duration": 0.016,
      "velocity": 120,
      "chip": "ym2612"
    },
    {
      "channel": 2,
      "note": 52,
      "start": 49.1394,
      "duration": 0.0159,
      "velocity": 100,
      "chip": "ym2612"
    },
    {
      "channel": 0,
      "note": 80,
      "start": 49.1518,
      "duration": 0.0161,
      "velocity": 124,
      "chip": "ym2612"
    },
    {
      "channel": 4,
      "note": 66,
      "start": 49.153,
      "duration": 0.0161,
      "velocity": 120,
      "chip": "ym2612"
    },
    {
      "channel": 3,
      "note": 73,
      "start": 49.1541,
      "duration": 0.0161,
      "velocity": 120,
      "chip": "ym2612"
    },
    {
      "channel": 2,
      "note": 52,
      "start": 49.1553,
      "duration": 0.0161,
      "velocity": 100,
      "chip": "ym2612"
    },
    {
      "channel": 0,
      "note": 77,
      "start": 49.1679,
      "duration": 0.0161,
      "velocity": 124,
      "chip": "ym2612"
    },
    {
      "channel": 4,
      "note": 66,
      "start": 49.1691,
      "duration": 0.0161,
      "velocity": 120,
      "chip": "ym2612"
    },
    {
      "channel": 3,
      "note": 73,
      "start": 49.1702,
      "duration": 0.0161,
      "velocity": 120,
      "chip": "ym2612"
    },
    {
      "channel": 2,
      "note": 52,
      "start": 49.1714,
      "duration": 0.0161,
      "velocity": 100,
      "chip": "ym2612"
    },
    {
      "channel": 0,
      "note": 75,
      "start": 49.184,
      "duration": 0.0161,
      "velocity": 124,
      "chip": "ym2612"
    },
    {
      "channel": 4,
      "note": 66,
      "start": 49.1852,
      "duration": 0.0161,
      "velocity": 120,
      "chip": "ym2612"
    },
    {
      "channel": 3,
      "note": 73,
      "start": 49.1863,
      "duration": 0.0161,
      "velocity": 120,
      "chip": "ym2612"
    },
    {
      "channel": 2,
      "note": 52,
      "start": 49.1875,
      "duration": 0.0161,
      "velocity": 100,
      "chip": "ym2612"
    },
    {
      "channel": 0,
      "note": 72,
      "start": 49.2001,
      "duration": 0.0161,
      "velocity": 124,
      "chip": "ym2612"
    },
    {
      "channel": 4,
      "note": 66,
      "start": 49.2013,
      "duration": 0.0161,
      "velocity": 120,
      "chip": "ym2612"
    },
    {
      "channel": 3,
      "note": 73,
      "start": 49.2024,
      "duration": 0.0161,
      "velocity": 120,
      "chip": "ym2612"
    },
    {
      "channel": 2,
      "note": 52,
      "start": 49.2036,
      "duration": 0.0161,
      "velocity": 100,
      "chip": "ym2612"
    },
    {
      "channel": 0,
      "note": 70,
      "start": 49.2162,
      "duration": 0.0161,
      "velocity": 124,
      "chip": "ym2612"
    },
    {
      "channel": 4,
      "note": 66,
      "start": 49.2174,
      "duration": 0.0161,
      "velocity": 120,
      "chip": "ym2612"
    },
    {
      "channel": 3,
      "note": 73,
      "start": 49.2185,
      "duration": 0.0161,
      "velocity": 120,
      "chip": "ym2612"
    },
    {
      "channel": 2,
      "note": 52,
      "start": 49.2197,
      "duration": 0.0161,
      "velocity": 100,
      "chip": "ym2612"
    },
    {
      "channel": 0,
      "note": 68,
      "start": 49.2323,
      "duration": 0.0164,
      "velocity": 124,
      "chip": "ym2612"
    },
    {
      "channel": 4,
      "note": 66,
      "start": 49.2335,
      "duration": 0.0164,
      "velocity": 120,
      "chip": "ym2612"
    },
    {
      "channel": 3,
      "note": 73,
      "start": 49.2346,
      "duration": 0.0164,
      "velocity": 120,
      "chip": "ym2612"
    },
    {
      "channel": 2,
      "note": 52,
      "start": 49.2358,
      "duration": 0.0163,
      "velocity": 100,
      "chip": "ym2612"
    },
    {
      "channel": 0,
      "note": 65,
      "start": 49.2487,
      "duration": 0.0163,
      "velocity": 124,
      "chip": "ym2612"
    },
    {
      "channel": 4,
      "note": 66,
      "start": 49.2499,
      "duration": 0.0163,
      "velocity": 120,
      "chip": "ym2612"
    },
    {
      "channel": 3,
      "note": 73,
      "start": 49.251,
      "duration": 0.0163,
      "velocity": 120,
      "chip": "ym2612"
    },
    {
      "channel": 2,
      "note": 52,
      "start": 49.2521,
      "duration": 0.0163,
      "velocity": 100,
      "chip": "ym2612"
    },
    {
      "channel": 0,
      "note": 63,
      "start": 49.265,
      "duration": 0.0148,
      "velocity": 1,
      "chip": "ym2612"
    },
    {
      "channel": 4,
      "note": 66,
      "start": 49.2661,
      "duration": 0.0148,
      "velocity": 120,
      "chip": "ym2612"
    },
    {
      "channel": 3,
      "note": 73,
      "start": 49.2673,
      "duration": 0.0148,
      "velocity": 120,
      "chip": "ym2612"
    },
    {
      "channel": 2,
      "note": 52,
      "start": 49.2684,
      "duration": 0.0148,
      "velocity": 100,
      "chip": "ym2612"
    },
    {
      "channel": 4,
      "note": 66,
      "start": 49.281,
      "duration": 0.0172,
      "velocity": 120,
      "chip": "ym2612"
    },
    {
      "channel": 3,
      "note": 73,
      "start": 49.2821,
      "duration": 0.0172,
      "velocity": 120,
      "chip": "ym2612"
    },
    {
      "channel": 2,
      "note": 52,
      "start": 49.2833,
      "duration": 0.0172,
      "velocity": 100,
      "chip": "ym2612"
    },
    {
      "channel": 4,
      "note": 66,
      "start": 49.2982,
      "duration": 0.0169,
      "velocity": 120,
      "chip": "ym2612"
    },
    {
      "channel": 3,
      "note": 73,
      "start": 49.2994,
      "duration": 0.0171,
      "velocity": 120,
      "chip": "ym2612"
    },
    {
      "channel": 2,
      "note": 52,
      "start": 49.3005,
      "duration": 0.0174,
      "velocity": 100,
      "chip": "ym2612"
    },
    {
      "channel": 4,
      "note": 62,
      "start": 49.3151,
      "duration": 0.0157,
      "velocity": 120,
      "chip": "ym2612"
    },
    {
      "channel": 3,
      "note": 69,
      "start": 49.3165,
      "duration": 0.0155,
      "velocity": 120,
      "chip": "ym2612"
    },
    {
      "channel": 2,
      "note": 52,
      "start": 49.318,
      "duration": 0.0153,
      "velocity": 100,
      "chip": "ym2612"
    },
    {
      "channel": 4,
      "note": 62,
      "start": 49.3309,
      "duration": 0.014,
      "velocity": 120,
      "chip": "ym2612"
    },
    {
      "channel": 3,
      "note": 69,
      "start": 49.3321,
      "duration": 0.0139,
      "velocity": 120,
      "chip": "ym2612"
    },
    {
      "channel": 2,
      "note": 52,
      "start": 49.3333,
      "duration": 0.0139,
      "velocity": 100,
      "chip": "ym2612"
    },
    {
      "channel": 4,
      "note": 62,
      "start": 49.3449,
      "duration": 0.0185,
      "velocity": 120,
      "chip": "ym2612"
    },
    {
      "channel": 3,
      "note": 69,
      "start": 49.346,
      "duration": 0.0185,
      "velocity": 120,
      "chip": "ym2612"
    },
    {
      "channel": 2,
      "note": 52,
      "start": 49.3471,
      "duration": 0.0185,
      "velocity": 100,
      "chip": "ym2612"
    },
    {
      "channel": 4,
      "note": 62,
      "start": 49.3634,
      "duration": 0.0134,
      "velocity": 120,
      "chip": "ym2612"
    },
    {
      "channel": 3,
      "note": 69,
      "start": 49.3645,
      "duration": 0.0161,
      "velocity": 120,
      "chip": "ym2612"
    },
    {
      "channel": 2,
      "note": 52,
      "start": 49.3656,
      "duration": 0.0161,
      "velocity": 100,
      "chip": "ym2612"
    },
    {
      "channel": 4,
      "note": 62,
      "start": 49.3767,
      "duration": 0.0162,
      "velocity": 120,
      "chip": "ym2612"
    },
    {
      "channel": 3,
      "note": 69,
      "start": 49.3806,
      "duration": 0.0158,
      "velocity": 120,
      "chip": "ym2612"
    },
    {
      "channel": 2,
      "note": 52,
      "start": 49.3817,
      "duration": 0.0158,
      "velocity": 100,
      "chip": "ym2612"
    },
    {
      "channel": 4,
      "note": 62,
      "start": 49.3929,
      "duration": 0.0161,
      "velocity": 120,
      "chip": "ym2612"
    },
    {
      "channel": 3,
      "note": 69,
      "start": 49.3964,
      "duration": 0.0137,
      "velocity": 120,
      "chip": "ym2612"
    },
    {
      "channel": 2,
      "note": 52,
      "start": 49.3975,
      "duration": 0.014,
      "velocity": 100,
      "chip": "ym2612"
    },
    {
      "channel": 4,
      "note": 62,
      "start": 49.409,
      "duration": 0.0161,
      "velocity": 120,
      "chip": "ym2612"
    },
    {
      "channel": 3,
      "note": 69,
      "start": 49.4101,
      "duration": 0.0161,
      "velocity": 120,
      "chip": "ym2612"
    },
    {
      "channel": 2,
      "note": 52,
      "start": 49.4115,
      "duration": 0.0185,
      "velocity": 100,
      "chip": "ym2612"
    },
    {
      "channel": 4,
      "note": 62,
      "start": 49.4251,
      "duration": 0.0161,
      "velocity": 120,
      "chip": "ym2612"
    },
    {
      "channel": 3,
      "note": 69,
      "start": 49.4262,
      "duration": 0.0161,
      "velocity": 120,
      "chip": "ym2612"
    },
    {
      "channel": 2,
      "note": 52,
      "start": 49.43,
      "duration": 0.0134,
      "velocity": 100,
      "chip": "ym2612"
    },
    {
      "channel": 4,
      "note": 62,
      "start": 49.4412,
      "duration": 0.0161,
      "velocity": 120,
      "chip": "ym2612"
    },
    {
      "channel": 3,
      "note": 69,
      "start": 49.4423,
      "duration": 0.0161,
      "velocity": 120,
      "chip": "ym2612"
    },
    {
      "channel": 2,
      "note": 52,
      "start": 49.4434,
      "duration": 0.0161,
      "velocity": 100,
      "chip": "ym2612"
    },
    {
      "channel": 4,
      "note": 62,
      "start": 49.4573,
      "duration": 0.0161,
      "velocity": 120,
      "chip": "ym2612"
    },
    {
      "channel": 3,
      "note": 69,
      "start": 49.4584,
      "duration": 0.0161,
      "velocity": 120,
      "chip": "ym2612"
    },
    {
      "channel": 2,
      "note": 52,
      "start": 49.4595,
      "duration": 0.0161,
      "velocity": 100,
      "chip": "ym2612"
    },
    {
      "channel": 4,
      "note": 62,
      "start": 49.4733,
      "duration": 0.0161,
      "velocity": 120,
      "chip": "ym2612"
    },
    {
      "channel": 3,
      "note": 69,
      "start": 49.4745,
      "duration": 0.0161,
      "velocity": 120,
      "chip": "ym2612"
    },
    {
      "channel": 2,
      "note": 52,
      "start": 49.4756,
      "duration": 0.0161,
      "velocity": 100,
      "chip": "ym2612"
    },
    {
      "channel": 4,
      "note": 62,
      "start": 49.4894,
      "duration": 0.0212,
      "velocity": 120,
      "chip": "ym2612"
    },
    {
      "channel": 3,
      "note": 69,
      "start": 49.4906,
      "duration": 0.0256,
      "velocity": 120,
      "chip": "ym2612"
    },
    {
      "channel": 2,
      "note": 52,
      "start": 49.4917,
      "duration": 0.026,
      "velocity": 100,
      "chip": "ym2612"
    },
    {
      "channel": 0,
      "note": 36,
      "start": 49.5078,
      "duration": 0.0146,
      "velocity": 115,
      "chip": "ym2612"
    },
    {
      "channel": 4,
      "note": 57,
      "start": 49.5134,
      "duration": 0.0102,
      "velocity": 120,
      "chip": "ym2612"
    },
    {
      "channel": 3,
      "note": 64,
      "start": 49.5161,
      "duration": 0.0087,
      "velocity": 120,
      "chip": "ym2612"
    },
    {
      "channel": 2,
      "note": 45,
      "start": 49.5178,
      "duration": 0.0083,
      "velocity": 100,
      "chip": "ym2612"
    },
    {
      "channel": 0,
      "note": 36,
      "start": 49.5224,
      "duration": 0.0159,
      "velocity": 115,
      "chip": "ym2612"
    },
    {
      "channel": 4,
      "note": 57,
      "start": 49.5236,
      "duration": 0.0158,
      "velocity": 120,
      "chip": "ym2612"
    },
    {
      "channel": 3,
      "note": 64,
      "start": 49.5248,
      "duration": 0.0157,
      "velocity": 120,
      "chip": "ym2612"
    },
    {
      "channel": 2,
      "note": 45,
      "start": 49.526,
      "duration": 0.0156,
      "velocity": 100,
      "chip": "ym2612"
    },
    {
      "channel": 0,
      "note": 37,
      "start": 49.5382,
      "duration": 0.0161,
      "velocity": 115,
      "chip": "ym2612"
    },
    {
      "channel": 4,
      "note": 57,
      "start": 49.5394,
      "duration": 0.0161,
      "velocity": 120,
      "chip": "ym2612"
    },
    {
      "channel": 3,
      "note": 64,
      "start": 49.5405,
      "duration": 0.0161,
      "velocity": 120,
      "chip": "ym2612"
    },
    {
      "channel": 2,
      "note": 45,
      "start": 49.5417,
      "duration": 0.0161,
      "velocity": 100,
      "chip": "ym2612"
    },
    {
      "channel": 0,
      "note": 37,
      "start": 49.5543,
      "duration": 0.0161,
      "velocity": 115,
      "chip": "ym2612"
    },
    {
      "channel": 4,
      "note": 57,
      "start": 49.5555,
      "duration": 0.0162,
      "velocity": 120,
      "chip": "ym2612"
    },
    {
      "channel": 3,
      "note": 64,
      "start": 49.5566,
      "duration": 0.0161,
      "velocity": 120,
      "chip": "ym2612"
    },
    {
      "channel": 2,
      "note": 45,
      "start": 49.5578,
      "duration": 0.0161,
      "velocity": 100,
      "chip": "ym2612"
    },
    {
      "channel": 0,
      "note": 38,
      "start": 49.5705,
      "duration": 0.016,
      "velocity": 115,
      "chip": "ym2612"
    },
    {
      "channel": 4,
      "note": 57,
      "start": 49.5716,
      "duration": 0.0161,
      "velocity": 120,
      "chip": "ym2612"
    },
    {
      "channel": 3,
      "note": 64,
      "start": 49.5728,
      "duration": 0.016,
      "velocity": 120,
      "chip": "ym2612"
    },
    {
      "channel": 2,
      "note": 45,
      "start": 49.5739,
      "duration": 0.0161,
      "velocity": 100,
      "chip": "ym2612"
    },
    {
      "channel": 0,
      "note": 38,
      "start": 49.5865,
      "duration": 0.0162,
      "velocity": 115,
      "chip": "ym2612"
    },
    {
      "channel": 4,
      "note": 57,
      "start": 49.5877,
      "duration": 0.0161,
      "velocity": 120,
      "chip": "ym2612"
    },
    {
      "channel": 3,
      "note": 64,
      "start": 49.5888,
      "duration": 0.0162,
      "velocity": 120,
      "chip": "ym2612"
    },
    {
      "channel": 2,
      "note": 45,
      "start": 49.59,
      "duration": 0.0161,
      "velocity": 100,
      "chip": "ym2612"
    },
    {
      "channel": 0,
      "note": 39,
      "start": 49.6027,
      "duration": 0.0161,
      "velocity": 115,
      "chip": "ym2612"
    },
    {
      "channel": 4,
      "note": 57,
      "start": 49.6038,
      "duration": 0.0161,
      "velocity": 120,
      "chip": "ym2612"
    },
    {
      "channel": 3,
      "note": 64,
      "start": 49.605,
      "duration": 0.0161,
      "velocity": 120,
      "chip": "ym2612"
    },
    {
      "channel": 2,
      "note": 45,
      "start": 49.606,
      "duration": 0.0162,
      "velocity": 100,
      "chip": "ym2612"
    },
    {
      "channel": 0,
      "note": 39,
      "start": 49.6188,
      "duration": 0.0161,
      "velocity": 115,
      "chip": "ym2612"
    },
    {
      "channel": 4,
      "note": 57,
      "start": 49.6199,
      "duration": 0.0161,
      "velocity": 120,
      "chip": "ym2612"
    },
    {
      "channel": 3,
      "note": 64,
      "start": 49.621,
      "duration": 0.0161,
      "velocity": 120,
      "chip": "ym2612"
    },
    {
      "channel": 2,
      "note": 45,
      "start": 49.6222,
      "duration": 0.0161,
      "velocity": 100,
      "chip": "ym2612"
    },
    {
      "channel": 0,
      "note": 40,
      "start": 49.6349,
      "duration": 0.0161,
      "velocity": 115,
      "chip": "ym2612"
    },
    {
      "channel": 4,
      "note": 57,
      "start": 49.636,
      "duration": 0.0161,
      "velocity": 120,
      "chip": "ym2612"
    },
    {
      "channel": 3,
      "note": 64,
      "start": 49.6371,
      "duration": 0.0161,
      "velocity": 120,
      "chip": "ym2612"
    },
    {
      "channel": 2,
      "note": 45,
      "start": 49.6383,
      "duration": 0.0161,
      "velocity": 100,
      "chip": "ym2612"
    },
    {
      "channel": 0,
      "note": 40,
      "start": 49.651,
      "duration": 0.0161,
      "velocity": 115,
      "chip": "ym2612"
    },
    {
      "channel": 4,
      "note": 57,
      "start": 49.6521,
      "duration": 0.0161,
      "velocity": 120,
      "chip": "ym2612"
    },
    {
      "channel": 3,
      "note": 64,
      "start": 49.6532,
      "duration": 0.0161,
      "velocity": 120,
      "chip": "ym2612"
    },
    {
      "channel": 2,
      "note": 45,
      "start": 49.6544,
      "duration": 0.0161,
      "velocity": 100,
      "chip": "ym2612"
    },
    {
      "channel": 0,
      "note": 40,
      "start": 49.6671,
      "duration": 0.0161,
      "velocity": 115,
      "chip": "ym2612"
    },
    {
      "channel": 4,
      "note": 57,
      "start": 49.6682,
      "duration": 0.0161,
      "velocity": 120,
      "chip": "ym2612"
    },
    {
      "channel": 3,
      "note": 64,
      "start": 49.6693,
      "duration": 0.0161,
      "velocity": 120,
      "chip": "ym2612"
    },
    {
      "channel": 2,
      "note": 45,
      "start": 49.6705,
      "duration": 0.0161,
      "velocity": 100,
      "chip": "ym2612"
    },
    {
      "channel": 0,
      "note": 41,
      "start": 49.6832,
      "duration": 0.0161,
      "velocity": 115,
      "chip": "ym2612"
    },
    {
      "channel": 4,
      "note": 57,
      "start": 49.6843,
      "duration": 0.0163,
      "velocity": 120,
      "chip": "ym2612"
    },
    {
      "channel": 3,
      "note": 64,
      "start": 49.6854,
      "duration": 0.0166,
      "velocity": 120,
      "chip": "ym2612"
    },
    {
      "channel": 2,
      "note": 45,
      "start": 49.6866,
      "duration": 0.0169,
      "velocity": 100,
      "chip": "ym2612"
    },
    {
      "channel": 0,
      "note": 41,
      "start": 49.6992,
      "duration": 0.0162,
      "velocity": 115,
      "chip": "ym2612"
    },
    {
      "channel": 4,
      "note": 57,
      "start": 49.7007,
      "duration": 0.0159,
      "velocity": 120,
      "chip": "ym2612"
    },
    {
      "channel": 3,
      "note": 64,
      "start": 49.702,
      "duration": 0.0158,
      "velocity": 120,
      "chip": "ym2612"
    },
    {
      "channel": 2,
      "note": 52,
      "start": 49.7035,
      "duration": 0.0155,
      "velocity": 100,
      "chip": "ym2612"
    },
    {
      "channel": 0,
      "note": 42,
      "start": 49.7154,
      "duration": 0.0163,
      "velocity": 115,
      "chip": "ym2612"
    },
    {
      "channel": 4,
      "note": 57,
      "start": 49.7166,
      "duration": 0.0162,
      "velocity": 120,
      "chip": "ym2612"
    },
    {
      "channel": 3,
      "note": 64,
      "start": 49.7178,
      "duration": 0.0162,
      "velocity": 120,
      "chip": "ym2612"
    },
    {
      "channel": 2,
      "note": 52,
      "start": 49.719,
      "duration": 0.0161,
      "velocity": 100,
      "chip": "ym2612"
    },
    {
      "channel": 0,
      "note": 42,
      "start": 49.7317,
      "duration": 0.0159,
      "velocity": 115,
      "chip": "ym2612"
    },
    {
      "channel": 4,
      "note": 57,
      "start": 49.7328,
      "duration": 0.0159,
      "velocity": 120,
      "chip": "ym2612"
    },
    {
      "channel": 3,
      "note": 64,
      "start": 49.734,
      "duration": 0.0159,
      "velocity": 120,
      "chip": "ym2612"
    },
    {
      "channel": 2,
      "note": 52,
      "start": 49.7351,
      "duration": 0.0159,
      "velocity": 100,
      "chip": "ym2612"
    },
    {
      "channel": 0,
      "note": 43,
      "start": 49.7476,
      "duration": 0.0178,
      "velocity": 115,
      "chip": "ym2612"
    },
    {
      "channel": 4,
      "note": 57,
      "start": 49.7487,
      "duration": 0.0178,
      "velocity": 120,
      "chip": "ym2612"
    },
    {
      "channel": 3,
      "note": 64,
      "start": 49.7499,
      "duration": 0.0178,
      "velocity": 120,
      "chip": "ym2612"
    },
    {
      "channel": 2,
      "note": 52,
      "start": 49.751,
      "duration": 0.0178,
      "velocity": 100,
      "chip": "ym2612"
    },
    {
      "channel": 0,
      "note": 43,
      "start": 49.7654,
      "duration": 0.0167,
      "velocity": 115,
      "chip": "ym2612"
    },
    {
      "channel": 4,
      "note": 57,
      "start": 49.7665,
      "duration": 0.0167,
      "velocity": 120,
      "chip": "ym2612"
    },
    {
      "channel": 3,
      "note": 64,
      "start": 49.7677,
      "duration": 0.0167,
      "velocity": 120,
      "chip": "ym2612"
    },
    {
      "channel": 2,
      "note": 52,
      "start": 49.7688,
      "duration": 0.0167,
      "velocity": 100,
      "chip": "ym2612"
    },
    {
      "channel": 0,
      "note": 44,
      "start": 49.7821,
      "duration": 0.0162,
      "velocity": 115,
      "chip": "ym2612"
    },
    {
      "channel": 4,
      "note": 57,
      "start": 49.7832,
      "duration": 0.0162,
      "velocity": 120,
      "chip": "ym2612"
    },
    {
      "channel": 3,
      "note": 64,
      "start": 49.7844,
      "duration": 0.0162,
      "velocity": 120,
      "chip": "ym2612"
    },
    {
      "channel": 2,
      "note": 52,
      "start": 49.7854,
      "duration": 0.0162,
      "velocity": 100,
      "chip": "ym2612"
    },
    {
      "channel": 0,
      "note": 44,
      "start": 49.7983,
      "duration": 0.014,
      "velocity": 115,
      "chip": "ym2612"
    },
    {
      "channel": 4,
      "note": 57,
      "start": 49.7994,
      "duration": 0.014,
      "velocity": 120,
      "chip": "ym2612"
    },
    {
      "channel": 3,
      "note": 64,
      "start": 49.8006,
      "duration": 0.014,
      "velocity": 120,
      "chip": "ym2612"
    },
    {
      "channel": 2,
      "note": 52,
      "start": 49.8017,
      "duration": 0.0141,
      "velocity": 100,
      "chip": "ym2612"
    },
    {
      "channel": 0,
      "note": 44,
      "start": 49.8123,
      "duration": 0.0185,
      "velocity": 115,
      "chip": "ym2612"
    },
    {
      "channel": 4,
      "note": 57,
      "start": 49.8134,
      "duration": 0.0185,
      "velocity": 120,
      "chip": "ym2612"
    },
    {
      "channel": 3,
      "note": 64,
      "start": 49.8146,
      "duration": 0.0185,
      "velocity": 120,
      "chip": "ym2612"
    },
    {
      "channel": 2,
      "note": 52,
      "start": 49.8157,
      "duration": 0.0185,
      "velocity": 100,
      "chip": "ym2612"
    },
    {
      "channel": 0,
      "note": 45,
      "start": 49.8308,
      "duration": 0.0161,
      "velocity": 115,
      "chip": "ym2612"
    },
    {
      "channel": 4,
      "note": 57,
      "start": 49.8319,
      "duration": 0.0162,
      "velocity": 120,
      "chip": "ym2612"
    },
    {
      "channel": 3,
      "note": 64,
      "start": 49.8331,
      "duration": 0.0161,
      "velocity": 120,
      "chip": "ym2612"
    },
    {
      "channel": 2,
      "note": 52,
      "start": 49.8342,
      "duration": 0.0161,
      "velocity": 100,
      "chip": "ym2612"
    },
    {
      "channel": 0,
      "note": 45,
      "start": 49.8469,
      "duration": 0.0133,
      "velocity": 115,
      "chip": "ym2612"
    },
    {
      "channel": 4,
      "note": 57,
      "start": 49.8481,
      "duration": 0.0157,
      "velocity": 120,
      "chip": "ym2612"
    },
    {
      "channel": 3,
      "note": 64,
      "start": 49.8492,
      "duration": 0.0157,
      "velocity": 120,
      "chip": "ym2612"
    },
    {
      "channel": 2,
      "note": 52,
      "start": 49.8503,
      "duration": 0.0158,
      "velocity": 100,
      "chip": "ym2612"
    },
    {
      "channel": 0,
      "note": 46,
      "start": 49.8602,
      "duration": 0.0161,
      "velocity": 115,
      "chip": "ym2612"
    },
    {
      "channel": 4,
      "note": 57,
      "start": 49.8638,
      "duration": 0.0141,
      "velocity": 120,
      "chip": "ym2612"
    },
    {
      "channel": 3,
      "note": 64,
      "start": 49.8649,
      "duration": 0.014,
      "velocity": 120,
      "chip": "ym2612"
    },
    {
      "channel": 2,
      "note": 52,
      "start": 49.8661,
      "duration": 0.014,
      "velocity": 100,
      "chip": "ym2612"
    },
    {
      "channel": 0,
      "note": 46,
      "start": 49.8763,
      "duration": 0.0206,
      "velocity": 124,
      "chip": "ym2612"
    },
    {
      "channel": 4,
      "note": 57,
      "start": 49.8779,
      "duration": 0.0205,
      "velocity": 120,
      "chip": "ym2612"
    },
    {
      "channel": 3,
      "note": 64,
      "start": 49.8789,
      "duration": 0.0208,
      "velocity": 120,
      "chip": "ym2612"
    },
    {
      "channel": 2,
      "note": 52,
      "start": 49.8801,
      "duration": 0.0211,
      "velocity": 100,
      "chip": "ym2612"
    },
    {
      "channel": 0,
      "note": 84,
      "start": 49.897,
      "duration": 0.0116,
      "velocity": 124,
      "chip": "ym2612"
    },
    {
      "channel": 4,
      "note": 57,
      "start": 49.8984,
      "duration": 0.0115,
      "velocity": 120,
      "chip": "ym2612"
    },
    {
      "channel": 3,
      "note": 64,
      "start": 49.8998,
      "duration": 0.014,
      "velocity": 120,
      "chip": "ym2612"
    },
    {
      "channel": 2,
      "note": 52,
      "start": 49.9013,
      "duration": 0.0137,
      "velocity": 100,
      "chip": "ym2612"
    },
    {
      "channel": 0,
      "note": 82,
      "start": 49.9086,
      "duration": 0.016,
      "velocity": 124,
      "chip": "ym2612"
    },
    {
      "channel": 4,
      "note": 57,
      "start": 49.9099,
      "duration": 0.016,
      "velocity": 120,
      "chip": "ym2612"
    },
    {
      "channel": 3,
      "note": 64,
      "start": 49.9138,
      "duration": 0.0132,
      "velocity": 120,
      "chip": "ym2612"
    },
    {
      "channel": 2,
      "note": 52,
      "start": 49.9149,
      "duration": 0.0155,
      "velocity": 100,
      "chip": "ym2612"
    },
    {
      "channel": 0,
      "note": 80,
      "start": 49.9247,
      "duration": 0.0161,
      "velocity": 124,
      "chip": "ym2612"
    },
    {
      "channel": 4,
      "note": 57,
      "start": 49.9258,
      "duration": 0.0161,
      "velocity": 120,
      "chip": "ym2612"
    },
    {
      "channel": 3,
      "note": 64,
      "start": 49.927,
      "duration": 0.0161,
      "velocity": 120,
      "chip": "ym2612"
    },
    {
      "channel": 2,
      "note": 52,
      "start": 49.9305,
      "duration": 0.0141,
      "velocity": 100,
      "chip": "ym2612"
    },
    {
      "channel": 0,
      "note": 77,
      "start": 49.9408,
      "duration": 0.0161,
      "velocity": 124,
      "chip": "ym2612"
    },
    {
      "channel": 4,
      "note": 57,
      "start": 49.9419,
      "duration": 0.0161,
      "velocity": 120,
      "chip": "ym2612"
    },
    {
      "channel": 3,
      "note": 64,
      "start": 49.9431,
      "duration": 0.0161,
      "velocity": 120,
      "chip": "ym2612"
    },
    {
      "channel": 2,
      "note": 52,
      "start": 49.9445,
      "duration": 0.0158,
      "velocity": 100,
      "chip": "ym2612"
    },
    {
      "channel": 0,
      "note": 75,
      "start": 49.9569,
      "duration": 0.0161,
      "velocity": 124,
      "chip": "ym2612"
    },
    {
      "channel": 4,
      "note": 57,
      "start": 49.958,
      "duration": 0.0161,
      "velocity": 120,
      "chip": "ym2612"
    },
    {
      "channel": 3,
      "note": 64,
      "start": 49.9592,
      "duration": 0.0161,
      "velocity": 120,
      "chip": "ym2612"
    },
    {
      "channel": 2,
      "note": 52,
      "start": 49.9603,
      "duration": 0.0161,
      "velocity": 100,
      "chip": "ym2612"
    },
    {
      "channel": 0,
      "note": 72,
      "start": 49.973,
      "duration": 0.0161,
      "velocity": 124,
      "chip": "ym2612"
    },
    {
      "channel": 4,
      "note": 57,
      "start": 49.9741,
      "duration": 0.0161,
      "velocity": 120,
      "chip": "ym2612"
    },
    {
      "channel": 3,
      "note": 64,
      "start": 49.9753,
      "duration": 0.0161,
      "velocity": 120,
      "chip": "ym2612"
    },
    {
      "channel": 2,
      "note": 52,
      "start": 49.9764,
      "duration": 0.0161,
      "velocity": 100,
      "chip": "ym2612"
    },
    {
      "channel": 0,
      "note": 70,
      "start": 49.989,
      "duration": 0.0161,
      "velocity": 124,
      "chip": "ym2612"
    },
    {
      "channel": 4,
      "note": 57,
      "start": 49.9902,
      "duration": 0.0161,
      "velocity": 120,
      "chip": "ym2612"
    },
    {
      "channel": 3,
      "note": 64,
      "start": 49.9913,
      "duration": 0.0161,
      "velocity": 120,
      "chip": "ym2612"
    },
    {
      "channel": 2,
      "note": 52,
      "start": 49.9925,
      "duration": 0.0161,
      "velocity": 100,
      "chip": "ym2612"
    },
    {
      "channel": 0,
      "note": 68,
      "start": 50.0051,
      "duration": 0.0162,
      "velocity": 124,
      "chip": "ym2612"
    },
    {
      "channel": 4,
      "note": 57,
      "start": 50.0063,
      "duration": 0.0161,
      "velocity": 120,
      "chip": "ym2612"
    },
    {
      "channel": 3,
      "note": 64,
      "start": 50.0074,
      "duration": 0.0162,
      "velocity": 120,
      "chip": "ym2612"
    },
    {
      "channel": 2,
      "note": 52,
      "start": 50.0086,
      "duration": 0.0161,
      "velocity": 100,
      "chip": "ym2612"
    },
    {
      "channel": 0,
      "note": 65,
      "start": 50.0213,
      "duration": 0.0161,
      "velocity": 124,
      "chip": "ym2612"
    },
    {
      "channel": 4,
      "note": 57,
      "start": 50.0224,
      "duration": 0.0161,
      "velocity": 120,
      "chip": "ym2612"
    },
    {
      "channel": 3,
      "note": 64,
      "start": 50.0236,
      "duration": 0.0161,
      "velocity": 120,
      "chip": "ym2612"
    },
    {
      "channel": 2,
      "note": 52,
      "start": 50.0247,
      "duration": 0.0161,
      "velocity": 100,
      "chip": "ym2612"
    },
    {
      "channel": 0,
      "note": 63,
      "start": 50.0374,
      "duration": 0.0153,
      "velocity": 1,
      "chip": "ym2612"
    },
    {
      "channel": 4,
      "note": 57,
      "start": 50.0385,
      "duration": 0.0153,
      "velocity": 120,
      "chip": "ym2612"
    },
    {
      "channel": 3,
      "note": 64,
      "start": 50.0397,
      "duration": 0.0153,
      "velocity": 120,
      "chip": "ym2612"
    },
    {
      "channel": 2,
      "note": 52,
      "start": 50.0408,
      "duration": 0.0153,
      "velocity": 100,
      "chip": "ym2612"
    },
    {
      "channel": 4,
      "note": 57,
      "start": 50.0538,
      "duration": 0.0153,
      "velocity": 120,
      "chip": "ym2612"
    },
    {
      "channel": 3,
      "note": 64,
      "start": 50.055,
      "duration": 0.0153,
      "velocity": 120,
      "chip": "ym2612"
    },
    {
      "channel": 2,
      "note": 52,
      "start": 50.0561,
      "duration": 0.0152,
      "velocity": 100,
      "chip": "ym2612"
    },
    {
      "channel": 4,
      "note": 57,
      "start": 50.0691,
      "duration": 0.0198,
      "velocity": 120,
      "chip": "ym2612"
    },
    {
      "channel": 3,
      "note": 64,
      "start": 50.0702,
      "duration": 0.02,
      "velocity": 120,
      "chip": "ym2612"
    },
    {
      "channel": 2,
      "note": 52,
      "start": 50.0713,
      "duration": 0.0204,
      "velocity": 100,
      "chip": "ym2612"
    },
    {
      "channel": 0,
      "note": 36,
      "start": 50.0875,
      "duration": 0.0144,
      "velocity": 115,
      "chip": "ym2612"
    },
    {
      "channel": 4,
      "note": 57,
      "start": 50.0889,
      "duration": 0.0141,
      "velocity": 120,
      "chip": "ym2612"
    },
    {
      "channel": 3,
      "note": 64,
      "start": 50.0903,
      "duration": 0.014,
      "velocity": 120,
      "chip": "ym2612"
    },
    {
      "channel": 2,
      "note": 52,
      "start": 50.0917,
      "duration": 0.0137,
      "velocity": 100,
      "chip": "ym2612"
    },
    {
      "channel": 0,
      "note": 36,
      "start": 50.1018,
      "duration": 0.016,
      "velocity": 115,
      "chip": "ym2612"
    },
    {
      "channel": 4,
      "note": 57,
      "start": 50.1031,
      "duration": 0.016,
      "velocity": 120,
      "chip": "ym2612"
    },
    {
      "channel": 3,
      "note": 64,
      "start": 50.1043,
      "duration": 0.0159,
      "velocity": 120,
      "chip": "ym2612"
    },
    {
      "channel": 2,
      "note": 52,
      "start": 50.1055,
      "duration": 0.0159,
      "velocity": 100,
      "chip": "ym2612"
    },
    {
      "channel": 0,
      "note": 37,
      "start": 50.1179,
      "duration": 0.0161,
      "velocity": 115,
      "chip": "ym2612"
    },
    {
      "channel": 4,
      "note": 57,
      "start": 50.119,
      "duration": 0.0161,
      "velocity": 120,
      "chip": "ym2612"
    },
    {
      "channel": 3,
      "note": 64,
      "start": 50.1202,
      "duration": 0.0161,
      "velocity": 120,
      "chip": "ym2612"
    },
    {
      "channel": 2,
      "note": 52,
      "start": 50.1213,
      "duration": 0.0161,
      "velocity": 100,
      "chip": "ym2612"
    },
    {
      "channel": 0,
      "note": 37,
      "start": 50.134,
      "duration": 0.0161,
      "velocity": 115,
      "chip": "ym2612"
    },
    {
      "channel": 4,
      "note": 57,
      "start": 50.1351,
      "duration": 0.0161,
      "velocity": 120,
      "chip": "ym2612"
    },
    {
      "channel": 3,
      "note": 64,
      "start": 50.1363,
      "duration": 0.0161,
      "velocity": 120,
      "chip": "ym2612"
    },
    {
      "channel": 2,
      "note": 52,
      "start": 50.1374,
      "duration": 0.0161,
      "velocity": 100,
      "chip": "ym2612"
    },
    {
      "channel": 0,
      "note": 38,
      "start": 50.1501,
      "duration": 0.0161,
      "velocity": 115,
      "chip": "ym2612"
    },
    {
      "channel": 4,
      "note": 57,
      "start": 50.1512,
      "duration": 0.0161,
      "velocity": 120,
      "chip": "ym2612"
    },
    {
      "channel": 3,
      "note": 64,
      "start": 50.1524,
      "duration": 0.0161,
      "velocity": 120,
      "chip": "ym2612"
    },
    {
      "channel": 2,
      "note": 52,
      "start": 50.1535,
      "duration": 0.0161,
      "velocity": 100,
      "chip": "ym2612"
    },
    {
      "channel": 0,
      "note": 38,
      "start": 50.1661,
      "duration": 0.0162,
      "velocity": 115,
      "chip": "ym2612"
    },
    {
      "channel": 4,
      "note": 57,
      "start": 50.1673,
      "duration": 0.0162,
      "velocity": 120,
      "chip": "ym2612"
    },
    {
      "channel": 3,
      "note": 64,
      "start": 50.1684,
      "duration": 0.0162,
      "velocity": 120,
      "chip": "ym2612"
    },
    {
      "channel": 2,
      "note": 52,
      "start": 50.1696,
      "duration": 0.0161,
      "velocity": 100,
      "chip": "ym2612"
    },
    {
      "channel": 0,
      "note": 39,
      "start": 50.1823,
      "duration": 0.0161,
      "velocity": 115,
      "chip": "ym2612"
    },
    {
      "channel": 4,
      "note": 57,
      "start": 50.1835,
      "duration": 0.0161,
      "velocity": 120,
      "chip": "ym2612"
    },
    {
      "channel": 3,
      "note": 64,
      "start": 50.1846,
      "duration": 0.0161,
      "velocity": 120,
      "chip": "ym2612"
    },
    {
      "channel": 2,
      "note": 52,
      "start": 50.1857,
      "duration": 0.0161,
      "velocity": 100,
      "chip": "ym2612"
    },
    {
      "channel": 0,
      "note": 39,
      "start": 50.1984,
      "duration": 0.0161,
      "velocity": 115,
      "chip": "ym2612"
    },
    {
      "channel": 4,
      "note": 57,
      "start": 50.1995,
      "duration": 0.0161,
      "velocity": 120,
      "chip": "ym2612"
    },
    {
      "channel": 3,
      "note": 64,
      "start": 50.2007,
      "duration": 0.0161,
      "velocity": 120,
      "chip": "ym2612"
    },
    {
      "channel": 2,
      "note": 52,
      "start": 50.2018,
      "duration": 0.0161,
      "velocity": 100,
      "chip": "ym2612"
    },
    {
      "channel": 0,
      "note": 40,
      "start": 50.2145,
      "duration": 0.0175,
      "velocity": 115,
      "chip": "ym2612"
    },
    {
      "channel": 4,
      "note": 57,
      "start": 50.2156,
      "duration": 0.0176,
      "velocity": 120,
      "chip": "ym2612"
    },
    {
      "channel": 3,
      "note": 64,
      "start": 50.2168,
      "duration": 0.0175,
      "velocity": 120,
      "chip": "ym2612"
    },
    {
      "channel": 2,
      "note": 52,
      "start": 50.2179,
      "duration": 0.0175,
      "velocity": 100,
      "chip": "ym2612"
    },
    {
      "channel": 0,
      "note": 40,
      "start": 50.232,
      "duration": 0.0167,
      "velocity": 115,
      "chip": "ym2612"
    },
    {
      "channel": 4,
      "note": 57,
      "start": 50.2332,
      "duration": 0.0167,
      "velocity": 120,
      "chip": "ym2612"
    },
    {
      "channel": 3,
      "note": 64,
      "start": 50.2343,
      "duration": 0.0167,
      "velocity": 120,
      "chip": "ym2612"
    },
    {
      "channel": 2,
      "note": 52,
      "start": 50.2354,
      "duration": 0.0167,
      "velocity": 100,
      "chip": "ym2612"
    },
    {
      "channel": 0,
      "note": 40,
      "start": 50.2487,
      "duration": 0.0163,
      "velocity": 115,
      "chip": "ym2612"
    },
    {
      "channel": 4,
      "note": 57,
      "start": 50.2499,
      "duration": 0.0163,
      "velocity": 120,
      "chip": "ym2612"
    },
    {
      "channel": 3,
      "note": 64,
      "start": 50.251,
      "duration": 0.0163,
      "velocity": 120,
      "chip": "ym2612"
    },
    {
      "channel": 2,
      "note": 52,
      "start": 50.2521,
      "duration": 0.0163,
      "velocity": 100,
      "chip": "ym2612"
    },
    {
      "channel": 0,
      "note": 41,
      "start": 50.265,
      "duration": 0.016,
      "velocity": 115,
      "chip": "ym2612"
    },
    {
      "channel": 4,
      "note": 57,
      "start": 50.2661,
      "duration": 0.0162,
      "velocity": 120,
      "chip": "ym2612"
    },
    {
      "channel": 3,
      "note": 64,
      "start": 50.2673,
      "duration": 0.0165,
      "velocity": 120,
      "chip": "ym2612"
    },
    {
      "channel": 2,
      "note": 52,
      "start": 50.2684,
      "duration": 0.0168,
      "velocity": 100,
      "chip": "ym2612"
    },
    {
      "channel": 0,
      "note": 36,
      "start": 50.281,
      "duration": 0.0167,
      "velocity": 115,
      "chip": "ym2612"
    },
    {
      "channel": 4,
      "note": 57,
      "start": 50.2824,
      "duration": 0.0165,
      "velocity": 120,
      "chip": "ym2612"
    },
    {
      "channel": 3,
      "note": 64,
      "start": 50.2838,
      "duration": 0.0163,
      "velocity": 120,
      "chip": "ym2612"
    },
    {
      "channel": 2,
      "note": 52,
      "start": 50.2853,
      "duration": 0.0161,
      "velocity": 100,
      "chip": "ym2612"
    },
    {
      "channel": 0,
      "note": 36,
      "start": 50.2978,
      "duration": 0.0161,
      "velocity": 115,
      "chip": "ym2612"
    },
    {
      "channel": 4,
      "note": 57,
      "start": 50.299,
      "duration": 0.016,
      "velocity": 120,
      "chip": "ym2612"
    },
    {
      "channel": 3,
      "note": 64,
      "start": 50.3002,
      "duration": 0.016,
      "velocity": 120,
      "chip": "ym2612"
    },
    {
      "channel": 2,
      "note": 52,
      "start": 50.3014,
      "duration": 0.0158,
      "velocity": 100,
      "chip": "ym2612"
    },
    {
      "channel": 0,
      "note": 37,
      "start": 50.3139,
      "duration": 0.0134,
      "velocity": 115,
      "chip": "ym2612"
    },
    {
      "channel": 4,
      "note": 57,
      "start": 50.315,
      "duration": 0.0157,
      "velocity": 120,
      "chip": "ym2612"
    },
    {
      "channel": 3,
      "note": 64,
      "start": 50.3161,
      "duration": 0.0157,
      "velocity": 120,
      "chip": "ym2612"
    },
    {
      "channel": 2,
      "note": 52,
      "start": 50.3172,
      "duration": 0.0158,
      "velocity": 100,
      "chip": "ym2612"
    },
    {
      "channel": 0,
      "note": 37,
      "start": 50.3272,
      "duration": 0.0161,
      "velocity": 115,
      "chip": "ym2612"
    },
    {
      "channel": 4,
      "note": 57,
      "start": 50.3307,
      "duration": 0.0141,
      "velocity": 120,
      "chip": "ym2612"
    },
    {
      "channel": 3,
      "note": 64,
      "start": 50.3319,
      "duration": 0.0141,
      "velocity": 120,
      "chip": "ym2612"
    },
    {
      "channel": 2,
      "note": 52,
      "start": 50.333,
      "duration": 0.014,
      "velocity": 100,
      "chip": "ym2612"
    },
    {
      "channel": 0,
      "note": 38,
      "start": 50.3433,
      "duration": 0.0161,
      "velocity": 115,
      "chip": "ym2612"
    },
    {
      "channel": 4,
      "note": 57,
      "start": 50.3448,
      "duration": 0.0158,
      "velocity": 120,
      "chip": "ym2612"
    },
    {
      "channel": 3,
      "note": 64,
      "start": 50.3459,
      "duration": 0.0185,
      "velocity": 120,
      "chip": "ym2612"
    },
    {
      "channel": 2,
      "note": 52,
      "start": 50.347,
      "duration": 0.0186,
      "velocity": 100,
      "chip": "ym2612"
    },
    {
      "channel": 0,
      "note": 38,
      "start": 50.3594,
      "duration": 0.0161,
      "velocity": 115,
      "chip": "ym2612"
    },
    {
      "channel": 4,
      "note": 57,
      "start": 50.3606,
      "duration": 0.0161,
      "velocity": 120,
      "chip": "ym2612"
    },
    {
      "channel": 3,
      "note": 64,
      "start": 50.3644,
      "duration": 0.0161,
      "velocity": 120,
      "chip": "ym2612"
    },
    {
      "channel": 2,
      "note": 52,
      "start": 50.3656,
      "duration": 0.0161,
      "velocity": 100,
      "chip": "ym2612"
    },
    {
      "channel": 0,
      "note": 39,
      "start": 50.3755,
      "duration": 0.0161,
      "velocity": 115,
      "chip": "ym2612"
    },
    {
      "channel": 4,
      "note": 57,
      "start": 50.3766,
      "duration": 0.0161,
      "velocity": 120,
      "chip": "ym2612"
    },
    {
      "channel": 3,
      "note": 64,
      "start": 50.3805,
      "duration": 0.0134,
      "velocity": 120,
      "chip": "ym2612"
    },
    {
      "channel": 2,
      "note": 52,
      "start": 50.3817,
      "duration": 0.0157,
      "velocity": 100,
      "chip": "ym2612"
    },
    {
      "channel": 0,
      "note": 39,
      "start": 50.3916,
      "duration": 0.0161,
      "velocity": 115,
      "chip": "ym2612"
    },
    {
      "channel": 4,
      "note": 57,
      "start": 50.3927,
      "duration": 0.0161,
      "velocity": 120,
      "chip": "ym2612"
    },
    {
      "channel": 3,
      "note": 64,
      "start": 50.3939,
      "duration": 0.0161,
      "velocity": 120,
      "chip": "ym2612"
    },
    {
      "channel": 2,
      "note": 52,
      "start": 50.3974,
      "duration": 0.0141,
      "velocity": 100,
      "chip": "ym2612"
    },
    {
      "channel": 0,
      "note": 40,
      "start": 50.4077,
      "duration": 0.0161,
      "velocity": 115,
      "chip": "ym2612"
    },
    {
      "channel": 4,
      "note": 57,
      "start": 50.4088,
      "duration": 0.0161,
      "velocity": 120,
      "chip": "ym2612"
    },
    {
      "channel": 3,
      "note": 64,
      "start": 50.41,
      "duration": 0.0161,
      "velocity": 120,
      "chip": "ym2612"
    },
    {
      "channel": 2,
      "note": 52,
      "start": 50.4115,
      "duration": 0.0158,
      "velocity": 100,
      "chip": "ym2612"
    },
    {
      "channel": 0,
      "note": 40,
      "start": 50.4238,
      "duration": 0.0161,
      "velocity": 115,
      "chip": "ym2612"
    },
    {
      "channel": 4,
      "note": 57,
      "start": 50.4249,
      "duration": 0.0161,
      "velocity": 120,
      "chip": "ym2612"
    },
    {
      "channel": 3,
      "note": 64,
      "start": 50.4261,
      "duration": 0.0161,
      "velocity": 120,
      "chip": "ym2612"
    },
    {
      "channel": 2,
      "note": 52,
      "start": 50.4272,
      "duration": 0.0161,
      "velocity": 100,
      "chip": "ym2612"
    },
    {
      "channel": 0,
      "note": 40,
      "start": 50.4399,
      "duration": 0.0161,
      "velocity": 115,
      "chip": "ym2612"
    },
    {
      "channel": 4,
      "note": 57,
      "start": 50.441,
      "duration": 0.0161,
      "velocity": 120,
      "chip": "ym2612"
    },
    {
      "channel": 3,
      "note": 64,
      "start": 50.4422,
      "duration": 0.0161,
      "velocity": 120,
      "chip": "ym2612"
    },
    {
      "channel": 2,
      "note": 52,
      "start": 50.4433,
      "duration": 0.0161,
      "velocity": 100,
      "chip": "ym2612"
    },
    {
      "channel": 0,
      "note": 41,
      "start": 50.456,
      "duration": 0.0161,
      "velocity": 115,
      "chip": "ym2612"
    },
    {
      "channel": 4,
      "note": 57,
      "start": 50.4571,
      "duration": 0.0163,
      "velocity": 120,
      "chip": "ym2612"
    },
    {
      "channel": 3,
      "note": 64,
      "start": 50.4583,
      "duration": 0.0166,
      "velocity": 120,
      "chip": "ym2612"
    },
    {
      "channel": 2,
      "note": 52,
      "start": 50.4594,
      "duration": 0.0169,
      "velocity": 100,
      "chip": "ym2612"
    },
    {
      "channel": 0,
      "note": 41,
      "start": 50.4721,
      "duration": 0.0161,
      "velocity": 115,
      "chip": "ym2612"
    },
    {
      "channel": 4,
      "note": 57,
      "start": 50.4735,
      "duration": 0.0159,
      "velocity": 120,
      "chip": "ym2612"
    },
    {
      "channel": 3,
      "note": 64,
      "start": 50.4749,
      "duration": 0.0156,
      "velocity": 120,
      "chip": "ym2612"
    },
    {
      "channel": 2,
      "note": 52,
      "start": 50.4764,
      "duration": 0.0154,
      "velocity": 100,
      "chip": "ym2612"
    },
    {
      "channel": 0,
      "note": 42,
      "start": 50.4882,
      "duration": 0.0161,
      "velocity": 115,
      "chip": "ym2612"
    },
    {
      "channel": 4,
      "note": 57,
      "start": 50.4894,
      "duration": 0.016,
      "velocity": 120,
      "chip": "ym2612"
    },
    {
      "channel": 3,
      "note": 64,
      "start": 50.4906,
      "duration": 0.016,
      "velocity": 120,
      "chip": "ym2612"
    },
    {
      "channel": 2,
      "note": 52,
      "start": 50.4918,
      "duration": 0.0159,
      "velocity": 100,
      "chip": "ym2612"
    },
    {
      "channel": 0,
      "note": 42,
      "start": 50.5043,
      "duration": 0.0161,
      "velocity": 115,
      "chip": "ym2612"
    },
    {
      "channel": 4,
      "note": 57,
      "start": 50.5055,
      "duration": 0.0161,
      "velocity": 120,
      "chip": "ym2612"
    },
    {
      "channel": 3,
      "note": 64,
      "start": 50.5066,
      "duration": 0.0161,
      "velocity": 120,
      "chip": "ym2612"
    },
    {
      "channel": 2,
      "note": 52,
      "start": 50.5077,
      "duration": 0.0162,
      "velocity": 100,
      "chip": "ym2612"
    },
    {
      "channel": 0,
      "note": 43,
      "start": 50.5204,
      "duration": 0.0161,
      "velocity": 115,
      "chip": "ym2612"
    },
    {
      "channel": 4,
      "note": 57,
      "start": 50.5216,
      "duration": 0.0161,
      "velocity": 120,
      "chip": "ym2612"
    },
    {
      "channel": 3,
      "note": 64,
      "start": 50.5227,
      "duration": 0.0161,
      "velocity": 120,
      "chip": "ym2612"
    },
    {
      "channel": 2,
      "note": 52,
      "start": 50.5239,
      "duration": 0.0161,
      "velocity": 100,
      "chip": "ym2612"
    },
    {
      "channel": 0,
      "note": 43,
      "start": 50.5365,
      "duration": 0.0161,
      "velocity": 115,
      "chip": "ym2612"
    },
    {
      "channel": 4,
      "note": 57,
      "start": 50.5377,
      "duration": 0.0161,
      "velocity": 120,
      "chip": "ym2612"
    },
    {
      "channel": 3,
      "note": 64,
      "start": 50.5388,
      "duration": 0.0161,
      "velocity": 120,
      "chip": "ym2612"
    },
    {
      "channel": 2,
      "note": 52,
      "start": 50.54,
      "duration": 0.0161,
      "velocity": 100,
      "chip": "ym2612"
    },
    {
      "channel": 0,
      "note": 44,
      "start": 50.5526,
      "duration": 0.0161,
      "velocity": 115,
      "chip": "ym2612"
    },
    {
      "channel": 4,
      "note": 57,
      "start": 50.5537,
      "duration": 0.0161,
      "velocity": 120,
      "chip": "ym2612"
    },
    {
      "channel": 3,
      "note": 64,
      "start": 50.5549,
      "duration": 0.0161,
      "velocity": 120,
      "chip": "ym2612"
    },
    {
      "channel": 2,
      "note": 52,
      "start": 50.556,
      "duration": 0.0161,
      "velocity": 100,
      "chip": "ym2612"
    },
    {
      "channel": 0,
      "note": 44,
      "start": 50.5687,
      "duration": 0.0161,
      "velocity": 115,
      "chip": "ym2612"
    },
    {
      "channel": 4,
      "note": 57,
      "start": 50.5698,
      "duration": 0.0161,
      "velocity": 120,
      "chip": "ym2612"
    },
    {
      "channel": 3,
      "note": 64,
      "start": 50.571,
      "duration": 0.0161,
      "velocity": 120,
      "chip": "ym2612"
    },
    {
      "channel": 2,
      "note": 52,
      "start": 50.5721,
      "duration": 0.0161,
      "velocity": 100,
      "chip": "ym2612"
    },
    {
      "channel": 0,
      "note": 44,
      "start": 50.5848,
      "duration": 0.0162,
      "velocity": 115,
      "chip": "ym2612"
    },
    {
      "channel": 4,
      "note": 57,
      "start": 50.5859,
      "duration": 0.0162,
      "velocity": 120,
      "chip": "ym2612"
    },
    {
      "channel": 3,
      "note": 64,
      "start": 50.5871,
      "duration": 0.0162,
      "velocity": 120,
      "chip": "ym2612"
    },
    {
      "channel": 2,
      "note": 52,
      "start": 50.5882,
      "duration": 0.0161,
      "velocity": 100,
      "chip": "ym2612"
    },
    {
      "channel": 0,
      "note": 45,
      "start": 50.601,
      "duration": 0.0161,
      "velocity": 115,
      "chip": "ym2612"
    },
    {
      "channel": 4,
      "note": 57,
      "start": 50.6021,
      "duration": 0.0161,
      "velocity": 120,
      "chip": "ym2612"
    },
    {
      "channel": 3,
      "note": 64,
      "start": 50.6032,
      "duration": 0.0161,
      "velocity": 120,
      "chip": "ym2612"
    },
    {
      "channel": 2,
      "note": 52,
      "start": 50.6043,
      "duration": 0.0161,
      "velocity": 100,
      "chip": "ym2612"
    },
    {
      "channel": 0,
      "note": 45,
      "start": 50.6171,
      "duration": 0.0161,
      "velocity": 115,
      "chip": "ym2612"
    },
    {
      "channel": 4,
      "note": 57,
      "start": 50.6182,
      "duration": 0.0161,
      "velocity": 120,
      "chip": "ym2612"
    },
    {
      "channel": 3,
      "note": 64,
      "start": 50.6193,
      "duration": 0.0161,
      "velocity": 120,
      "chip": "ym2612"
    },
    {
      "channel": 2,
      "note": 52,
      "start": 50.6204,
      "duration": 0.0161,
      "velocity": 100,
      "chip": "ym2612"
    },
    {
      "channel": 0,
      "note": 46,
      "start": 50.6332,
      "duration": 0.0161,
      "velocity": 115,
      "chip": "ym2612"
    },
    {
      "channel": 4,
      "note": 57,
      "start": 50.6343,
      "duration": 0.0161,
      "velocity": 120,
      "chip": "ym2612"
    },
    {
      "channel": 3,
      "note": 64,
      "start": 50.6354,
      "duration": 0.0161,
      "velocity": 120,
      "chip": "ym2612"
    },
    {
      "channel": 2,
      "note": 52,
      "start": 50.6365,
      "duration": 0.0161,
      "velocity": 100,
      "chip": "ym2612"
    },
    {
      "channel": 0,
      "note": 46,
      "start": 50.6492,
      "duration": 0.0178,
      "velocity": 124,
      "chip": "ym2612"
    },
    {
      "channel": 4,
      "note": 57,
      "start": 50.6504,
      "duration": 0.0181,
      "velocity": 120,
      "chip": "ym2612"
    },
    {
      "channel": 3,
      "note": 64,
      "start": 50.6515,
      "duration": 0.0183,
      "velocity": 120,
      "chip": "ym2612"
    },
    {
      "channel": 2,
      "note": 52,
      "start": 50.6526,
      "duration": 0.0187,
      "velocity": 100,
      "chip": "ym2612"
    },
    {
      "channel": 0,
      "note": 84,
      "start": 50.6671,
      "duration": 0.0144,
      "velocity": 124,
      "chip": "ym2612"
    },
    {
      "channel": 4,
      "note": 57,
      "start": 50.6685,
      "duration": 0.0142,
      "velocity": 120,
      "chip": "ym2612"
    },
    {
      "channel": 3,
      "note": 64,
      "start": 50.6699,
      "duration": 0.0139,
      "velocity": 120,
      "chip": "ym2612"
    },
    {
      "channel": 2,
      "note": 52,
      "start": 50.6714,
      "duration": 0.0137,
      "velocity": 100,
      "chip": "ym2612"
    },
    {
      "channel": 0,
      "note": 82,
      "start": 50.6815,
      "duration": 0.0172,
      "velocity": 124,
      "chip": "ym2612"
    },
    {
      "channel": 4,
      "note": 57,
      "start": 50.6827,
      "duration": 0.0172,
      "velocity": 120,
      "chip": "ym2612"
    },
    {
      "channel": 3,
      "note": 64,
      "start": 50.6838,
      "duration": 0.0172,
      "velocity": 120,
      "chip": "ym2612"
    },
    {
      "channel": 2,
      "note": 52,
      "start": 50.6851,
      "duration": 0.0171,
      "velocity": 100,
      "chip": "ym2612"
    },
    {
      "channel": 0,
      "note": 80,
      "start": 50.6987,
      "duration": 0.0167,
      "velocity": 124,
      "chip": "ym2612"
    },
    {
      "channel": 4,
      "note": 57,
      "start": 50.6999,
      "duration": 0.0167,
      "velocity": 120,
      "chip": "ym2612"
    },
    {
      "channel": 3,
      "note": 64,
      "start": 50.701,
      "duration": 0.0167,
      "velocity": 120,
      "chip": "ym2612"
    },
    {
      "channel": 2,
      "note": 52,
      "start": 50.7021,
      "duration": 0.0167,
      "velocity": 100,
      "chip": "ym2612"
    },
    {
      "channel": 0,
      "note": 77,
      "start": 50.7154,
      "duration": 0.0163,
      "velocity": 124,
      "chip": "ym2612"
    },
    {
      "channel": 4,
      "note": 57,
      "start": 50.7165,
      "duration": 0.0163,
      "velocity": 120,
      "chip": "ym2612"
    },
    {
      "channel": 3,
      "note": 64,
      "start": 50.7177,
      "duration": 0.0163,
      "velocity": 120,
      "chip": "ym2612"
    },
    {
      "channel": 2,
      "note": 52,
      "start": 50.7188,
      "duration": 0.0163,
      "velocity": 100,
      "chip": "ym2612"
    },
    {
      "channel": 0,
      "note": 75,
      "start": 50.7317,
      "duration": 0.0145,
      "velocity": 124,
      "chip": "ym2612"
    },
    {
      "channel": 4,
      "note": 57,
      "start": 50.7328,
      "duration": 0.0145,
      "velocity": 120,
      "chip": "ym2612"
    },
    {
      "channel": 3,
      "note": 64,
      "start": 50.734,
      "duration": 0.0145,
      "velocity": 120,
      "chip": "ym2612"
    },
    {
      "channel": 2,
      "note": 52,
      "start": 50.7351,
      "duration": 0.0144,
      "velocity": 100,
      "chip": "ym2612"
    },
    {
      "channel": 0,
      "note": 72,
      "start": 50.7462,
      "duration": 0.0185,
      "velocity": 124,
      "chip": "ym2612"
    },
    {
      "channel": 4,
      "note": 57,
      "start": 50.7473,
      "duration": 0.0185,
      "velocity": 120,
      "chip": "ym2612"
    },
    {
      "channel": 3,
      "note": 64,
      "start": 50.7485,
      "duration": 0.0185,
      "velocity": 120,
      "chip": "ym2612"
    },
    {
      "channel": 2,
      "note": 52,
      "start": 50.7495,
      "duration": 0.0186,
      "velocity": 100,
      "chip": "ym2612"
    },
    {
      "channel": 0,
      "note": 70,
      "start": 50.7647,
      "duration": 0.0161,
      "velocity": 124,
      "chip": "ym2612"
    },
    {
      "channel": 4,
      "note": 57,
      "start": 50.7658,
      "duration": 0.0161,
      "velocity": 120,
      "chip": "ym2612"
    },
    {
      "channel": 3,
      "note": 64,
      "start": 50.767,
      "duration": 0.0161,
      "velocity": 120,
      "chip": "ym2612"
    },
    {
      "channel": 2,
      "note": 52,
      "start": 50.7681,
      "duration": 0.016,
      "velocity": 100,
      "chip": "ym2612"
    },
    {
      "channel": 0,
      "note": 68,
      "start": 50.7808,
      "duration": 0.0157,
      "velocity": 124,
      "chip": "ym2612"
    },
    {
      "channel": 4,
      "note": 57,
      "start": 50.7819,
      "duration": 0.0157,
      "velocity": 120,
      "chip": "ym2612"
    },
    {
      "channel": 3,
      "note": 64,
      "start": 50.7831,
      "duration": 0.0157,
      "velocity": 120,
      "chip": "ym2612"
    },
    {
      "channel": 2,
      "note": 52,
      "start": 50.7841,
      "duration": 0.0158,
      "velocity": 100,
      "chip": "ym2612"
    },
    {
      "channel": 0,
      "note": 65,
      "start": 50.7965,
      "duration": 0.0137,
      "velocity": 124,
      "chip": "ym2612"
    },
    {
      "channel": 4,
      "note": 57,
      "start": 50.7976,
      "duration": 0.0141,
      "velocity": 120,
      "chip": "ym2612"
    },
    {
      "channel": 3,
      "note": 64,
      "start": 50.7988,
      "duration": 0.0141,
      "velocity": 120,
      "chip": "ym2612"
    },
    {
      "channel": 2,
      "note": 52,
      "start": 50.7999,
      "duration": 0.0141,
      "velocity": 100,
      "chip": "ym2612"
    },
    {
      "channel": 0,
      "note": 63,
      "start": 50.8102,
      "duration": 0.0153,
      "velocity": 1,
      "chip": "ym2612"
    },
    {
      "channel": 4,
      "note": 57,
      "start": 50.8117,
      "duration": 0.0149,
      "velocity": 120,
      "chip": "ym2612"
    },
    {
      "channel": 3,
      "note": 64,
      "start": 50.8129,
      "duration": 0.0177,
      "velocity": 120,
      "chip": "ym2612"
    },
    {
      "channel": 2,
      "note": 52,
      "start": 50.814,
      "duration": 0.0177,
      "velocity": 100,
      "chip": "ym2612"
    },
    {
      "channel": 4,
      "note": 57,
      "start": 50.8266,
      "duration": 0.0153,
      "velocity": 120,
      "chip": "ym2612"
    },
    {
      "channel": 3,
      "note": 64,
      "start": 50.8305,
      "duration": 0.0125,
      "velocity": 120,
      "chip": "ym2612"
    },
    {
      "channel": 2,
      "note": 52,
      "start": 50.8317,
      "duration": 0.0153,
      "velocity": 100,
      "chip": "ym2612"
    },
    {
      "channel": 4,
      "note": 57,
      "start": 50.8419,
      "duration": 0.0163,
      "velocity": 120,
      "chip": "ym2612"
    },
    {
      "channel": 3,
      "note": 64,
      "start": 50.8431,
      "duration": 0.0166,
      "velocity": 120,
      "chip": "ym2612"
    },
    {
      "channel": 2,
      "note": 52,
      "start": 50.8469,
      "duration": 0.0166,
      "velocity": 100,
      "chip": "ym2612"
    },
    {
      "channel": 4,
      "note": 59,
      "start": 50.8583,
      "duration": 0.0159,
      "velocity": 120,
      "chip": "ym2612"
    },
    {
      "channel": 3,
      "note": 66,
      "start": 50.8597,
      "duration": 0.0157,
      "velocity": 120,
      "chip": "ym2612"
    },
    {
      "channel": 2,
      "note": 52,
      "start": 50.8635,
      "duration": 0.0131,
      "velocity": 100,
      "chip": "ym2612"
    },
    {
      "channel": 4,
      "note": 59,
      "start": 50.8742,
      "duration": 0.0161,
      "velocity": 120,
      "chip": "ym2612"
    },
    {
      "channel": 3,
      "note": 66,
      "start": 50.8754,
      "duration": 0.016,
      "velocity": 120,
      "chip": "ym2612"
    },
    {
      "channel": 2,
      "note": 52,
      "start": 50.8766,
      "duration": 0.0159,
      "velocity": 100,
      "chip": "ym2612"
    },
    {
      "channel": 4,
      "note": 59,
      "start": 50.8903,
      "duration": 0.0161,
      "velocity": 120,
      "chip": "ym2612"
    },
    {
      "channel": 3,
      "note": 66,
      "start": 50.8913,
      "duration": 0.0162,
      "velocity": 120,
      "chip": "ym2612"
    },
    {
      "channel": 2,
      "note": 52,
      "start": 50.8925,
      "duration": 0.0161,
      "velocity": 100,
      "chip": "ym2612"
    },
    {
      "channel": 4,
      "note": 59,
      "start": 50.9063,
      "duration": 0.0161,
      "velocity": 120,
      "chip": "ym2612"
    },
    {
      "channel": 3,
      "note": 66,
      "start": 50.9075,
      "duration": 0.0161,
      "velocity": 120,
      "chip": "ym2612"
    },
    {
      "channel": 2,
      "note": 52,
      "start": 50.9086,
      "duration": 0.0161,
      "velocity": 100,
      "chip": "ym2612"
    },
    {
      "channel": 4,
      "note": 59,
      "start": 50.9224,
      "duration": 0.0161,
      "velocity": 120,
      "chip": "ym2612"
    },
    {
      "channel": 3,
      "note": 66,
      "start": 50.9236,
      "duration": 0.0161,
      "velocity": 120,
      "chip": "ym2612"
    },
    {
      "channel": 2,
      "note": 52,
      "start": 50.9247,
      "duration": 0.0161,
      "velocity": 100,
      "chip": "ym2612"
    },
    {
      "channel": 4,
      "note": 59,
      "start": 50.9385,
      "duration": 0.0161,
      "velocity": 120,
      "chip": "ym2612"
    },
    {
      "channel": 3,
      "note": 66,
      "start": 50.9397,
      "duration": 0.0161,
      "velocity": 120,
      "chip": "ym2612"
    },
    {
      "channel": 2,
      "note": 52,
      "start": 50.9408,
      "duration": 0.0161,
      "velocity": 100,
      "chip": "ym2612"
    },
    {
      "channel": 4,
      "note": 59,
      "start": 50.9546,
      "duration": 0.0161,
      "velocity": 120,
      "chip": "ym2612"
    },
    {
      "channel": 3,
      "note": 66,
      "start": 50.9558,
      "duration": 0.0161,
      "velocity": 120,
      "chip": "ym2612"
    },
    {
      "channel": 2,
      "note": 52,
      "start": 50.9569,
      "duration": 0.0161,
      "velocity": 100,
      "chip": "ym2612"
    },
    {
      "channel": 4,
      "note": 59,
      "start": 50.9707,
      "duration": 0.0161,
      "velocity": 120,
      "chip": "ym2612"
    },
    {
      "channel": 3,
      "note": 66,
      "start": 50.9719,
      "duration": 0.0161,
      "velocity": 120,
      "chip": "ym2612"
    },
    {
      "channel": 2,
      "note": 52,
      "start": 50.973,
      "duration": 0.0161,
      "velocity": 100,
      "chip": "ym2612"
    },
    {
      "channel": 4,
      "note": 59,
      "start": 50.9868,
      "duration": 0.0161,
      "velocity": 120,
      "chip": "ym2612"
    },
    {
      "channel": 3,
      "note": 66,
      "start": 50.988,
      "duration": 0.0161,
      "velocity": 120,
      "chip": "ym2612"
    },
    {
      "channel": 2,
      "note": 52,
      "start": 50.9891,
      "duration": 0.0161,
      "velocity": 100,
      "chip": "ym2612"
    },
    {
      "channel": 4,
      "note": 59,
      "start": 51.0029,
      "duration": 0.0161,
      "velocity": 120,
      "chip": "ym2612"
    },
    {
      "channel": 3,
      "note": 66,
      "start": 51.0041,
      "duration": 0.0161,
      "velocity": 120,
      "chip": "ym2612"
    },
    {
      "channel": 2,
      "note": 52,
      "start": 51.0052,
      "duration": 0.0161,
      "velocity": 100,
      "chip": "ym2612"
    },
    {
      "channel": 4,
      "note": 59,
      "start": 51.019,
      "duration": 0.0161,
      "velocity": 120,
      "chip": "ym2612"
    },
    {
      "channel": 3,
      "note": 66,
      "start": 51.0202,
      "duration": 0.0161,
      "velocity": 120,
      "chip": "ym2612"
    },
    {
      "channel": 2,
      "note": 52,
      "start": 51.0213,
      "duration": 0.0161,
      "velocity": 100,
      "chip": "ym2612"
    },
    {
      "channel": 4,
      "note": 59,
      "start": 51.0352,
      "duration": 0.0197,
      "velocity": 120,
      "chip": "ym2612"
    },
    {
      "channel": 3,
      "note": 66,
      "start": 51.0363,
      "duration": 0.02,
      "velocity": 120,
      "chip": "ym2612"
    },
    {
      "channel": 2,
      "note": 52,
      "start": 51.0374,
      "duration": 0.0204,
      "velocity": 100,
      "chip": "ym2612"
    },
    {
      "channel": 0,
      "note": 36,
      "start": 51.0536,
      "duration": 0.0144,
      "velocity": 115,
      "chip": "ym2612"
    },
    {
      "channel": 4,
      "note": 59,
      "start": 51.055,
      "duration": 0.0142,
      "velocity": 120,
      "chip": "ym2612"
    },
    {
      "channel": 3,
      "note": 66,
      "start": 51.0563,
      "duration": 0.0139,
      "velocity": 120,
      "chip": "ym2612"
    },
    {
      "channel": 2,
      "note": 52,
      "start": 51.0578,
      "duration": 0.0137,
      "velocity": 100,
      "chip": "ym2612"
    },
    {
      "channel": 0,
      "note": 36,
      "start": 51.0679,
      "duration": 0.016,
      "velocity": 115,
      "chip": "ym2612"
    },
    {
      "channel": 4,
      "note": 59,
      "start": 51.0691,
      "duration": 0.016,
      "velocity": 120,
      "chip": "ym2612"
    },
    {
      "channel": 3,
      "note": 66,
      "start": 51.0703,
      "duration": 0.016,
      "velocity": 120,
      "chip": "ym2612"
    },
    {
      "channel": 2,
      "note": 52,
      "start": 51.0715,
      "duration": 0.0159,
      "velocity": 100,
      "chip": "ym2612"
    },
    {
      "channel": 0,
      "note": 37,
      "start": 51.084,
      "duration": 0.0161,
      "velocity": 115,
      "chip": "ym2612"
    },
    {
      "channel": 4,
      "note": 59,
      "start": 51.0851,
      "duration": 0.0161,
      "velocity": 120,
      "chip": "ym2612"
    },
    {
      "channel": 3,
      "note": 66,
      "start": 51.0863,
      "duration": 0.0161,
      "velocity": 120,
      "chip": "ym2612"
    },
    {
      "channel": 2,
      "note": 52,
      "start": 51.0873,
      "duration": 0.0161,
      "velocity": 100,
      "chip": "ym2612"
    },
    {
      "channel": 0,
      "note": 37,
      "start": 51.1001,
      "duration": 0.0161,
      "velocity": 115,
      "chip": "ym2612"
    },
    {
      "channel": 4,
      "note": 59,
      "start": 51.1012,
      "duration": 0.0161,
      "velocity": 120,
      "chip": "ym2612"
    },
    {
      "channel": 3,
      "note": 66,
      "start": 51.1024,
      "duration": 0.0161,
      "velocity": 120,
      "chip": "ym2612"
    },
    {
      "channel": 2,
      "note": 52,
      "start": 51.1035,
      "duration": 0.0161,
      "velocity": 100,
      "chip": "ym2612"
    },
    {
      "channel": 0,
      "note": 38,
      "start": 51.1161,
      "duration": 0.0161,
      "velocity": 115,
      "chip": "ym2612"
    },
    {
      "channel": 4,
      "note": 59,
      "start": 51.1173,
      "duration": 0.0161,
      "velocity": 120,
      "chip": "ym2612"
    },
    {
      "channel": 3,
      "note": 66,
      "start": 51.1184,
      "duration": 0.0161,
      "velocity": 120,
      "chip": "ym2612"
    },
    {
      "channel": 2,
      "note": 52,
      "start": 51.1196,
      "duration": 0.0161,
      "velocity": 100,
      "chip": "ym2612"
    },
    {
      "channel": 0,
      "note": 38,
      "start": 51.1322,
      "duration": 0.0161,
      "velocity": 115,
      "chip": "ym2612"
    },
    {
      "channel": 4,
      "note": 59,
      "start": 51.1334,
      "duration": 0.0161,
      "velocity": 120,
      "chip": "ym2612"
    },
    {
      "channel": 3,
      "note": 66,
      "start": 51.1345,
      "duration": 0.0161,
      "velocity": 120,
      "chip": "ym2612"
    },
    {
      "channel": 2,
      "note": 52,
      "start": 51.1357,
      "duration": 0.0161,
      "velocity": 100,
      "chip": "ym2612"
    },
    {
      "channel": 0,
      "note": 39,
      "start": 51.1483,
      "duration": 0.017,
      "velocity": 115,
      "chip": "ym2612"
    },
    {
      "channel": 4,
      "note": 59,
      "start": 51.1495,
      "duration": 0.0171,
      "velocity": 120,
      "chip": "ym2612"
    },
    {
      "channel": 3,
      "note": 66,
      "start": 51.1506,
      "duration": 0.017,
      "velocity": 120,
      "chip": "ym2612"
    },
    {
      "channel": 2,
      "note": 52,
      "start": 51.1518,
      "duration": 0.017,
      "velocity": 100,
      "chip": "ym2612"
    },
    {
      "channel": 0,
      "note": 39,
      "start": 51.1653,
      "duration": 0.0167,
      "velocity": 115,
      "chip": "ym2612"
    },
    {
      "channel": 4,
      "note": 59,
      "start": 51.1665,
      "duration": 0.0167,
      "velocity": 120,
      "chip": "ym2612"
    },
    {
      "channel": 3,
      "note": 66,
      "start": 51.1676,
      "duration": 0.0167,
      "velocity": 120,
      "chip": "ym2612"
    },
    {
      "channel": 2,
      "note": 52,
      "start": 51.1688,
      "duration": 0.0167,
      "velocity": 100,
      "chip": "ym2612"
    },
    {
      "channel": 0,
      "note": 40,
      "start": 51.1821,
      "duration": 0.0163,
      "velocity": 115,
      "chip": "ym2612"
    },
    {
      "channel": 4,
      "note": 59,
      "start": 51.1832,
      "duration": 0.0163,
      "velocity": 120,
      "chip": "ym2612"
    },
    {
      "channel": 3,
      "note": 66,
      "start": 51.1844,
      "duration": 0.0163,
      "velocity": 120,
      "chip": "ym2612"
    },
    {
      "channel": 2,
      "note": 52,
      "start": 51.1854,
      "duration": 0.0163,
      "velocity": 100,
      "chip": "ym2612"
    },
    {
      "channel": 0,
      "note": 40,
      "start": 51.1983,
      "duration": 0.0146,
      "velocity": 115,
      "chip": "ym2612"
    },
    {
      "channel": 4,
      "note": 59,
      "start": 51.1995,
      "duration": 0.0146,
      "velocity": 120,
      "chip": "ym2612"
    },
    {
      "channel": 3,
      "note": 66,
      "start": 51.2006,
      "duration": 0.0146,
      "velocity": 120,
      "chip": "ym2612"
    },
    {
      "channel": 2,
      "note": 52,
      "start": 51.2018,
      "duration": 0.0146,
      "velocity": 100,
      "chip": "ym2612"
    },
    {
      "channel": 0,
      "note": 40,
      "start": 51.213,
      "duration": 0.0186,
      "velocity": 115,
      "chip": "ym2612"
    },
    {
      "channel": 4,
      "note": 59,
      "start": 51.2141,
      "duration": 0.0186,
      "velocity": 120,
      "chip": "ym2612"
    },
    {
      "channel": 3,
      "note": 66,
      "start": 51.2153,
      "duration": 0.0186,
      "velocity": 120,
      "chip": "ym2612"
    },
    {
      "channel": 2,
      "note": 52,
      "start": 51.2164,
      "duration": 0.0186,
      "velocity": 100,
      "chip": "ym2612"
    },
    {
      "channel": 0,
      "note": 41,
      "start": 51.2316,
      "duration": 0.0161,
      "velocity": 115,
      "chip": "ym2612"
    },
    {
      "channel": 4,
      "note": 59,
      "start": 51.2328,
      "duration": 0.0163,
      "velocity": 120,
      "chip": "ym2612"
    },
    {
      "channel": 3,
      "note": 66,
      "start": 51.2339,
      "duration": 0.0166,
      "velocity": 120,
      "chip": "ym2612"
    },
    {
      "channel": 2,
      "note": 52,
      "start": 51.235,
      "duration": 0.0169,
      "velocity": 100,
      "chip": "ym2612"
    },
    {
      "channel": 0,
      "note": 41,
      "start": 51.2477,
      "duration": 0.0157,
      "velocity": 115,
      "chip": "ym2612"
    },
    {
      "channel": 4,
      "note": 59,
      "start": 51.2491,
      "duration": 0.0155,
      "velocity": 120,
      "chip": "ym2612"
    },
    {
      "channel": 3,
      "note": 66,
      "start": 51.2505,
      "duration": 0.0153,
      "velocity": 120,
      "chip": "ym2612"
    },
    {
      "channel": 2,
      "note": 52,
      "start": 51.252,
      "duration": 0.0151,
      "velocity": 100,
      "chip": "ym2612"
    },
    {
      "channel": 0,
      "note": 42,
      "start": 51.2634,
      "duration": 0.0137,
      "velocity": 115,
      "chip": "ym2612"
    },
    {
      "channel": 4,
      "note": 59,
      "start": 51.2646,
      "duration": 0.014,
      "velocity": 120,
      "chip": "ym2612"
    },
    {
      "channel": 3,
      "note": 66,
      "start": 51.2658,
      "duration": 0.0139,
      "velocity": 120,
      "chip": "ym2612"
    },
    {
      "channel": 2,
      "note": 52,
      "start": 51.2671,
      "duration": 0.0139,
      "velocity": 100,
      "chip": "ym2612"
    },
    {
      "channel": 0,
      "note": 42,
      "start": 51.2772,
      "duration": 0.0161,
      "velocity": 115,
      "chip": "ym2612"
    },
    {
      "channel": 4,
      "note": 59,
      "start": 51.2786,
      "duration": 0.0185,
      "velocity": 120,
      "chip": "ym2612"
    },
    {
      "channel": 3,
      "note": 66,
      "start": 51.2798,
      "duration": 0.0185,
      "velocity": 120,
      "chip": "ym2612"
    },
    {
      "channel": 2,
      "note": 52,
      "start": 51.2809,
      "duration": 0.0185,
      "velocity": 100,
      "chip": "ym2612"
    },
    {
      "channel": 0,
      "note": 43,
      "start": 51.2933,
      "duration": 0.0161,
      "velocity": 115,
      "chip": "ym2612"
    },
    {
      "channel": 4,
      "note": 59,
      "start": 51.2971,
      "duration": 0.0134,
      "velocity": 120,
      "chip": "ym2612"
    },
    {
      "channel": 3,
      "note": 66,
      "start": 51.2983,
      "duration": 0.0161,
      "velocity": 120,
      "chip": "ym2612"
    },
    {
      "channel": 2,
      "note": 52,
      "start": 51.2994,
      "duration": 0.0161,
      "velocity": 100,
      "chip": "ym2612"
    },
    {
      "channel": 0,
      "note": 43,
      "start": 51.3093,
      "duration": 0.0161,
      "velocity": 115,
      "chip": "ym2612"
    },
    {
      "channel": 4,
      "note": 59,
      "start": 51.3105,
      "duration": 0.0161,
      "velocity": 120,
      "chip": "ym2612"
    },
    {
      "channel": 3,
      "note": 66,
      "start": 51.3144,
      "duration": 0.0158,
      "velocity": 120,
      "chip": "ym2612"
    },
    {
      "channel": 2,
      "note": 52,
      "start": 51.3155,
      "duration": 0.0158,
      "velocity": 100,
      "chip": "ym2612"
    },
    {
      "channel": 0,
      "note": 44,
      "start": 51.3254,
      "duration": 0.0161,
      "velocity": 115,
      "chip": "ym2612"
    },
    {
      "channel": 4,
      "note": 59,
      "start": 51.3266,
      "duration": 0.0161,
      "velocity": 120,
      "chip": "ym2612"
    },
    {
      "channel": 3,
      "note": 66,
      "start": 51.3302,
      "duration": 0.0137,
      "velocity": 120,
      "chip": "ym2612"
    },
    {
      "channel": 2,
      "note": 52,
      "start": 51.3313,
      "duration": 0.014,
      "velocity": 100,
      "chip": "ym2612"
    },
    {
      "channel": 0,
      "note": 44,
      "start": 51.3415,
      "duration": 0.0161,
      "velocity": 115,
      "chip": "ym2612"
    },
    {
      "channel": 4,
      "note": 59,
      "start": 51.3427,
      "duration": 0.0162,
      "velocity": 120,
      "chip": "ym2612"
    },
    {
      "channel": 3,
      "note": 66,
      "start": 51.3438,
      "duration": 0.0161,
      "velocity": 120,
      "chip": "ym2612"
    },
    {
      "channel": 2,
      "note": 52,
      "start": 51.3453,
      "duration": 0.0185,
      "velocity": 100,
      "chip": "ym2612"
    },
    {
      "channel": 0,
      "note": 44,
      "start": 51.3576,
      "duration": 0.0161,
      "velocity": 115,
      "chip": "ym2612"
    },
    {
      "channel": 4,
      "note": 59,
      "start": 51.3588,
      "duration": 0.0161,
      "velocity": 120,
      "chip": "ym2612"
    },
    {
      "channel": 3,
      "note": 66,
      "start": 51.3599,
      "duration": 0.0161,
      "velocity": 120,
      "chip": "ym2612"
    },
    {
      "channel": 2,
      "note": 52,
      "start": 51.3638,
      "duration": 0.0134,
      "velocity": 100,
      "chip": "ym2612"
    },
    {
      "channel": 0,
      "note": 45,
      "start": 51.3738,
      "duration": 0.0161,
      "velocity": 115,
      "chip": "ym2612"
    },
    {
      "channel": 4,
      "note": 59,
      "start": 51.3749,
      "duration": 0.0161,
      "velocity": 120,
      "chip": "ym2612"
    },
    {
      "channel": 3,
      "note": 66,
      "start": 51.3761,
      "duration": 0.0161,
      "velocity": 120,
      "chip": "ym2612"
    },
    {
      "channel": 2,
      "note": 52,
      "start": 51.3772,
      "duration": 0.0161,
      "velocity": 100,
      "chip": "ym2612"
    },
    {
      "channel": 0,
      "note": 45,
      "start": 51.3899,
      "duration": 0.0161,
      "velocity": 115,
      "chip": "ym2612"
    },
    {
      "channel": 4,
      "note": 59,
      "start": 51.391,
      "duration": 0.0161,
      "velocity": 120,
      "chip": "ym2612"
    },
    {
      "channel": 3,
      "note": 66,
      "start": 51.3922,
      "duration": 0.0161,
      "velocity": 120,
      "chip": "ym2612"
    },
    {
      "channel": 2,
      "note": 52,
      "start": 51.3933,
      "duration": 0.0161,
      "velocity": 100,
      "chip": "ym2612"
    },
    {
      "channel": 0,
      "note": 46,
      "start": 51.406,
      "duration": 0.0161,
      "velocity": 115,
      "chip": "ym2612"
    },
    {
      "channel": 4,
      "note": 59,
      "start": 51.4071,
      "duration": 0.0161,
      "velocity": 120,
      "chip": "ym2612"
    },
    {
      "channel": 3,
      "note": 66,
      "start": 51.4083,
      "duration": 0.0161,
      "velocity": 120,
      "chip": "ym2612"
    },
    {
      "channel": 2,
      "note": 52,
      "start": 51.4094,
      "duration": 0.0161,
      "velocity": 100,
      "chip": "ym2612"
    },
    {
      "channel": 0,
      "note": 46,
      "start": 51.4221,
      "duration": 0.0179,
      "velocity": 124,
      "chip": "ym2612"
    },
    {
      "channel": 4,
      "note": 59,
      "start": 51.4232,
      "duration": 0.0181,
      "velocity": 120,
      "chip": "ym2612"
    },
    {
      "channel": 3,
      "note": 66,
      "start": 51.4244,
      "duration": 0.0184,
      "velocity": 120,
      "chip": "ym2612"
    },
    {
      "channel": 2,
      "note": 52,
      "start": 51.4255,
      "duration": 0.0214,
      "velocity": 100,
      "chip": "ym2612"
    },
    {
      "channel": 0,
      "note": 84,
      "start": 51.44,
      "duration": 0.0144,
      "velocity": 124,
      "chip": "ym2612"
    },
    {
      "channel": 4,
      "note": 59,
      "start": 51.4414,
      "duration": 0.0141,
      "velocity": 120,
      "chip": "ym2612"
    },
    {
      "channel": 3,
      "note": 66,
      "start": 51.4427,
      "duration": 0.014,
      "velocity": 120,
      "chip": "ym2612"
    },
    {
      "channel": 2,
      "note": 52,
      "start": 51.447,
      "duration": 0.011,
      "velocity": 100,
      "chip": "ym2612"
    },
    {
      "channel": 0,
      "note": 82,
      "start": 51.4543,
      "duration": 0.016,
      "velocity": 124,
      "chip": "ym2612"
    },
    {
      "channel": 4,
      "note": 59,
      "start": 51.4555,
      "duration": 0.016,
      "velocity": 120,
      "chip": "ym2612"
    },
    {
      "channel": 3,
      "note": 66,
      "start": 51.4567,
      "duration": 0.0159,
      "velocity": 120,
      "chip": "ym2612"
    },
    {
      "channel": 2,
      "note": 52,
      "start": 51.458,
      "duration": 0.0158,
      "velocity": 100,
      "chip": "ym2612"
    },
    {
      "channel": 0,
      "note": 80,
      "start": 51.4704,
      "duration": 0.0161,
      "velocity": 124,
      "chip": "ym2612"
    },
    {
      "channel": 4,
      "note": 59,
      "start": 51.4715,
      "duration": 0.0162,
      "velocity": 120,
      "chip": "ym2612"
    },
    {
      "channel": 3,
      "note": 66,
      "start": 51.4727,
      "duration": 0.0161,
      "velocity": 120,
      "chip": "ym2612"
    },
    {
      "channel": 2,
      "note": 52,
      "start": 51.4738,
      "duration": 0.0161,
      "velocity": 100,
      "chip": "ym2612"
    },
    {
      "channel": 0,
      "note": 77,
      "start": 51.4865,
      "duration": 0.0161,
      "velocity": 124,
      "chip": "ym2612"
    },
    {
      "channel": 4,
      "note": 59,
      "start": 51.4877,
      "duration": 0.0161,
      "velocity": 120,
      "chip": "ym2612"
    },
    {
      "channel": 3,
      "note": 66,
      "start": 51.4888,
      "duration": 0.0161,
      "velocity": 120,
      "chip": "ym2612"
    },
    {
      "channel": 2,
      "note": 52,
      "start": 51.4899,
      "duration": 0.0161,
      "velocity": 100,
      "chip": "ym2612"
    },
    {
      "channel": 0,
      "note": 75,
      "start": 51.5026,
      "duration": 0.0161,
      "velocity": 124,
      "chip": "ym2612"
    },
    {
      "channel": 4,
      "note": 59,
      "start": 51.5037,
      "duration": 0.0161,
      "velocity": 120,
      "chip": "ym2612"
    },
    {
      "channel": 3,
      "note": 66,
      "start": 51.5049,
      "duration": 0.0161,
      "velocity": 120,
      "chip": "ym2612"
    },
    {
      "channel": 2,
      "note": 52,
      "start": 51.506,
      "duration": 0.0161,
      "velocity": 100,
      "chip": "ym2612"
    },
    {
      "channel": 0,
      "note": 72,
      "start": 51.5187,
      "duration": 0.0161,
      "velocity": 124,
      "chip": "ym2612"
    },
    {
      "channel": 4,
      "note": 59,
      "start": 51.5198,
      "duration": 0.0161,
      "velocity": 120,
      "chip": "ym2612"
    },
    {
      "channel": 3,
      "note": 66,
      "start": 51.521,
      "duration": 0.0161,
      "velocity": 120,
      "chip": "ym2612"
    },
    {
      "channel": 2,
      "note": 52,
      "start": 51.5221,
      "duration": 0.0161,
      "velocity": 100,
      "chip": "ym2612"
    },
    {
      "channel": 0,
      "note": 70,
      "start": 51.5348,
      "duration": 0.0161,
      "velocity": 124,
      "chip": "ym2612"
    },
    {
      "channel": 4,
      "note": 59,
      "start": 51.5359,
      "duration": 0.0161,
      "velocity": 120,
      "chip": "ym2612"
    },
    {
      "channel": 3,
      "note": 66,
      "start": 51.5371,
      "duration": 0.0161,
      "velocity": 120,
      "chip": "ym2612"
    },
    {
      "channel": 2,
      "note": 52,
      "start": 51.5382,
      "duration": 0.0161,
      "velocity": 100,
      "chip": "ym2612"
    },
    {
      "channel": 0,
      "note": 68,
      "start": 51.5509,
      "duration": 0.0161,
      "velocity": 124,
      "chip": "ym2612"
    },
    {
      "channel": 4,
      "note": 59,
      "start": 51.552,
      "duration": 0.0161,
      "velocity": 120,
      "chip": "ym2612"
    },
    {
      "channel": 3,
      "note": 66,
      "start": 51.5532,
      "duration": 0.0161,
      "velocity": 120,
      "chip": "ym2612"
    },
    {
      "channel": 2,
      "note": 52,
      "start": 51.5543,
      "duration": 0.0161,
      "velocity": 100,
      "chip": "ym2612"
    },
    {
      "channel": 0,
      "note": 65,
      "start": 51.567,
      "duration": 0.0161,
      "velocity": 124,
      "chip": "ym2612"
    },
    {
      "channel": 4,
      "note": 59,
      "start": 51.5681,
      "duration": 0.0161,
      "velocity": 120,
      "chip": "ym2612"
    },
    {
      "channel": 3,
      "note": 66,
      "start": 51.5693,
      "duration": 0.0161,
      "velocity": 120,
      "chip": "ym2612"
    },
    {
      "channel": 2,
      "note": 52,
      "start": 51.5704,
      "duration": 0.0161,
      "velocity": 100,
      "chip": "ym2612"
    },
    {
      "channel": 0,
      "note": 63,
      "start": 51.5831,
      "duration": 0.0153,
      "velocity": 1,
      "chip": "ym2612"
    },
    {
      "channel": 4,
      "note": 59,
      "start": 51.5842,
      "duration": 0.0153,
      "velocity": 120,
      "chip": "ym2612"
    },
    {
      "channel": 3,
      "note": 66,
      "start": 51.5854,
      "duration": 0.0153,
      "velocity": 120,
      "chip": "ym2612"
    },
    {
      "channel": 2,
      "note": 52,
      "start": 51.5865,
      "duration": 0.0153,
      "velocity": 100,
      "chip": "ym2612"
    },
    {
      "channel": 4,
      "note": 59,
      "start": 51.5995,
      "duration": 0.0153,
      "velocity": 120,
      "chip": "ym2612"
    },
    {
      "channel": 3,
      "note": 66,
      "start": 51.6007,
      "duration": 0.0152,
      "velocity": 120,
      "chip": "ym2612"
    },
    {
      "channel": 2,
      "note": 52,
      "start": 51.6018,
      "duration": 0.0153,
      "velocity": 100,
      "chip": "ym2612"
    },
    {
      "channel": 4,
      "note": 59,
      "start": 51.6148,
      "duration": 0.0203,
      "velocity": 120,
      "chip": "ym2612"
    },
    {
      "channel": 3,
      "note": 66,
      "start": 51.6159,
      "duration": 0.0207,
      "velocity": 120,
      "chip": "ym2612"
    },
    {
      "channel": 2,
      "note": 52,
      "start": 51.6171,
      "duration": 0.021,
      "velocity": 100,
      "chip": "ym2612"
    },
    {
      "channel": 0,
      "note": 36,
      "start": 51.6338,
      "duration": 0.015,
      "velocity": 115,
      "chip": "ym2612"
    },
    {
      "channel": 4,
      "note": 59,
      "start": 51.6352,
      "duration": 0.0148,
      "velocity": 120,
      "chip": "ym2612"
    },
    {
      "channel": 3,
      "note": 66,
      "start": 51.6366,
      "duration": 0.0145,
      "velocity": 120,
      "chip": "ym2612"
    },
    {
      "channel": 2,
      "note": 52,
      "start": 51.6381,
      "duration": 0.0143,
      "velocity": 100,
      "chip": "ym2612"
    },
    {
      "channel": 0,
      "note": 36,
      "start": 51.6488,
      "duration": 0.0162,
      "velocity": 115,
      "chip": "ym2612"
    },
    {
      "channel": 4,
      "note": 59,
      "start": 51.65,
      "duration": 0.0161,
      "velocity": 120,
      "chip": "ym2612"
    },
    {
      "channel": 3,
      "note": 66,
      "start": 51.6511,
      "duration": 0.0162,
      "velocity": 120,
      "chip": "ym2612"
    },
    {
      "channel": 2,
      "note": 52,
      "start": 51.6524,
      "duration": 0.0161,
      "velocity": 100,
      "chip": "ym2612"
    },
    {
      "channel": 0,
      "note": 37,
      "start": 51.665,
      "duration": 0.0147,
      "velocity": 115,
      "chip": "ym2612"
    },
    {
      "channel": 4,
      "note": 59,
      "start": 51.6661,
      "duration": 0.0147,
      "velocity": 120,
      "chip": "ym2612"
    },
    {
      "channel": 3,
      "note": 66,
      "start": 51.6673,
      "duration": 0.0147,
      "velocity": 120,
      "chip": "ym2612"
    },
    {
      "channel": 2,
      "note": 52,
      "start": 51.6684,
      "duration": 0.0147,
      "velocity": 100,
      "chip": "ym2612"
    },
    {
      "channel": 0,
      "note": 37,
      "start": 51.6797,
      "duration": 0.0188,
      "velocity": 115,
      "chip": "ym2612"
    },
    {
      "channel": 4,
      "note": 59,
      "start": 51.6809,
      "duration": 0.0188,
      "velocity": 120,
      "chip": "ym2612"
    },
    {
      "channel": 3,
      "note": 66,
      "start": 51.682,
      "duration": 0.0188,
      "velocity": 120,
      "chip": "ym2612"
    },
    {
      "channel": 2,
      "note": 52,
      "start": 51.6832,
      "duration": 0.0188,
      "velocity": 100,
      "chip": "ym2612"
    },
    {
      "channel": 0,
      "note": 38,
      "start": 51.6985,
      "duration": 0.0161,
      "velocity": 115,
      "chip": "ym2612"
    },
    {
      "channel": 4,
      "note": 59,
      "start": 51.6997,
      "duration": 0.0161,
      "velocity": 120,
      "chip": "ym2612"
    },
    {
      "channel": 3,
      "note": 66,
      "start": 51.7008,
      "duration": 0.0161,
      "velocity": 120,
      "chip": "ym2612"
    },
    {
      "channel": 2,
      "note": 52,
      "start": 51.702,
      "duration": 0.0161,
      "velocity": 100,
      "chip": "ym2612"
    },
    {
      "channel": 0,
      "note": 38,
      "start": 51.7146,
      "duration": 0.0158,
      "velocity": 115,
      "chip": "ym2612"
    },
    {
      "channel": 4,
      "note": 59,
      "start": 51.7158,
      "duration": 0.0158,
      "velocity": 120,
      "chip": "ym2612"
    },
    {
      "channel": 3,
      "note": 66,
      "start": 51.7169,
      "duration": 0.0158,
      "velocity": 120,
      "chip": "ym2612"
    },
    {
      "channel": 2,
      "note": 52,
      "start": 51.7181,
      "duration": 0.0157,
      "velocity": 100,
      "chip": "ym2612"
    },
    {
      "channel": 0,
      "note": 39,
      "start": 51.7304,
      "duration": 0.014,
      "velocity": 115,
      "chip": "ym2612"
    },
    {
      "channel": 4,
      "note": 59,
      "start": 51.7315,
      "duration": 0.014,
      "velocity": 120,
      "chip": "ym2612"
    },
    {
      "channel": 3,
      "note": 66,
      "start": 51.7327,
      "duration": 0.014,
      "velocity": 120,
      "chip": "ym2612"
    },
    {
      "channel": 2,
      "note": 52,
      "start": 51.7338,
      "duration": 0.0141,
      "velocity": 100,
      "chip": "ym2612"
    },
    {
      "channel": 0,
      "note": 39,
      "start": 51.7444,
      "duration": 0.0158,
      "velocity": 115,
      "chip": "ym2612"
    },
    {
      "channel": 4,
      "note": 59,
      "start": 51.7456,
      "duration": 0.0185,
      "velocity": 120,
      "chip": "ym2612"
    },
    {
      "channel": 3,
      "note": 66,
      "start": 51.7467,
      "duration": 0.0185,
      "velocity": 120,
      "chip": "ym2612"
    },
    {
      "channel": 2,
      "note": 52,
      "start": 51.7478,
      "duration": 0.0185,
      "velocity": 100,
      "chip": "ym2612"
    },
    {
      "channel": 0,
      "note": 40,
      "start": 51.7602,
      "duration": 0.0161,
      "velocity": 115,
      "chip": "ym2612"
    },
    {
      "channel": 4,
      "note": 59,
      "start": 51.7641,
      "duration": 0.0161,
      "velocity": 120,
      "chip": "ym2612"
    },
    {
      "channel": 3,
      "note": 66,
      "start": 51.7652,
      "duration": 0.0161,
      "velocity": 120,
      "chip": "ym2612"
    },
    {
      "channel": 2,
      "note": 52,
      "start": 51.7663,
      "duration": 0.0161,
      "velocity": 100,
      "chip": "ym2612"
    },
    {
      "channel": 0,
      "note": 40,
      "start": 51.7763,
      "duration": 0.0161,
      "velocity": 115,
      "chip": "ym2612"
    },
    {
      "channel": 4,
      "note": 59,
      "start": 51.7802,
      "duration": 0.0134,
      "velocity": 120,
      "chip": "ym2612"
    },
    {
      "channel": 3,
      "note": 66,
      "start": 51.7813,
      "duration": 0.0158,
      "velocity": 120,
      "chip": "ym2612"
    },
    {
      "channel": 2,
      "note": 52,
      "start": 51.7824,
      "duration": 0.0158,
      "velocity": 100,
      "chip": "ym2612"
    },
    {
      "channel": 0,
      "note": 40,
      "start": 51.7924,
      "duration": 0.0161,
      "velocity": 115,
      "chip": "ym2612"
    },
    {
      "channel": 4,
      "note": 59,
      "start": 51.7936,
      "duration": 0.0161,
      "velocity": 120,
      "chip": "ym2612"
    },
    {
      "channel": 3,
      "note": 66,
      "start": 51.7971,
      "duration": 0.0141,
      "velocity": 120,
      "chip": "ym2612"
    },
    {
      "channel": 2,
      "note": 52,
      "start": 51.7982,
      "duration": 0.0141,
      "velocity": 100,
      "chip": "ym2612"
    },
    {
      "channel": 0,
      "note": 41,
      "start": 51.8085,
      "duration": 0.0178,
      "velocity": 115,
      "chip": "ym2612"
    },
    {
      "channel": 4,
      "note": 59,
      "start": 51.8097,
      "duration": 0.0209,
      "velocity": 120,
      "chip": "ym2612"
    },
    {
      "channel": 3,
      "note": 66,
      "start": 51.8111,
      "duration": 0.0208,
      "velocity": 120,
      "chip": "ym2612"
    },
    {
      "channel": 2,
      "note": 52,
      "start": 51.8123,
      "duration": 0.0211,
      "velocity": 100,
      "chip": "ym2612"
    },
    {
      "channel": 0,
      "note": 36,
      "start": 51.8264,
      "duration": 0.0144,
      "velocity": 115,
      "chip": "ym2612"
    },
    {
      "channel": 4,
      "note": 59,
      "start": 51.8305,
      "duration": 0.0115,
      "velocity": 120,
      "chip": "ym2612"
    },
    {
      "channel": 3,
      "note": 66,
      "start": 51.8319,
      "duration": 0.0113,
      "velocity": 120,
      "chip": "ym2612"
    },
    {
      "channel": 2,
      "note": 52,
      "start": 51.8334,
      "duration": 0.0137,
      "velocity": 100,
      "chip": "ym2612"
    },
    {
      "channel": 0,
      "note": 36,
      "start": 51.8408,
      "duration": 0.016,
      "velocity": 115,
      "chip": "ym2612"
    },
    {
      "channel": 4,
      "note": 59,
      "start": 51.842,
      "duration": 0.016,
      "velocity": 120,
      "chip": "ym2612"
    },
    {
      "channel": 3,
      "note": 66,
      "start": 51.8432,
      "duration": 0.0159,
      "velocity": 120,
      "chip": "ym2612"
    },
    {
      "channel": 2,
      "note": 52,
      "start": 51.8471,
      "duration": 0.0132,
      "velocity": 100,
      "chip": "ym2612"
    },
    {
      "channel": 0,
      "note": 37,
      "start": 51.8568,
      "duration": 0.0161,
      "velocity": 115,
      "chip": "ym2612"
    },
    {
      "channel": 4,
      "note": 59,
      "start": 51.858,
      "duration": 0.0161,
      "velocity": 120,
      "chip": "ym2612"
    },
    {
      "channel": 3,
      "note": 66,
      "start": 51.8591,
      "duration": 0.0161,
      "velocity": 120,
      "chip": "ym2612"
    },
    {
      "channel": 2,
      "note": 52,
      "start": 51.8602,
      "duration": 0.0161,
      "velocity": 100,
      "chip": "ym2612"
    },
    {
      "channel": 0,
      "note": 37,
      "start": 51.8729,
      "duration": 0.0161,
      "velocity": 115,
      "chip": "ym2612"
    },
    {
      "channel": 4,
      "note": 59,
      "start": 51.874,
      "duration": 0.0161,
      "velocity": 120,
      "chip": "ym2612"
    },
    {
      "channel": 3,
      "note": 66,
      "start": 51.8752,
      "duration": 0.0161,
      "velocity": 120,
      "chip": "ym2612"
    },
    {
      "channel": 2,
      "note": 52,
      "start": 51.8763,
      "duration": 0.0161,
      "velocity": 100,
      "chip": "ym2612"
    },
    {
      "channel": 0,
      "note": 38,
      "start": 51.889,
      "duration": 0.0161,
      "velocity": 115,
      "chip": "ym2612"
    },
    {
      "channel": 4,
      "note": 59,
      "start": 51.8901,
      "duration": 0.0161,
      "velocity": 120,
      "chip": "ym2612"
    },
    {
      "channel": 3,
      "note": 66,
      "start": 51.8913,
      "duration": 0.0161,
      "velocity": 120,
      "chip": "ym2612"
    },
    {
      "channel": 2,
      "note": 52,
      "start": 51.8924,
      "duration": 0.0161,
      "velocity": 100,
      "chip": "ym2612"
    },
    {
      "channel": 0,
      "note": 38,
      "start": 51.9051,
      "duration": 0.0161,
      "velocity": 115,
      "chip": "ym2612"
    },
    {
      "channel": 4,
      "note": 59,
      "start": 51.9062,
      "duration": 0.0161,
      "velocity": 120,
      "chip": "ym2612"
    },
    {
      "channel": 3,
      "note": 66,
      "start": 51.9074,
      "duration": 0.0161,
      "velocity": 120,
      "chip": "ym2612"
    },
    {
      "channel": 2,
      "note": 52,
      "start": 51.9085,
      "duration": 0.0161,
      "velocity": 100,
      "chip": "ym2612"
    },
    {
      "channel": 0,
      "note": 39,
      "start": 51.9212,
      "duration": 0.0161,
      "velocity": 115,
      "chip": "ym2612"
    },
    {
      "channel": 4,
      "note": 59,
      "start": 51.9223,
      "duration": 0.0161,
      "velocity": 120,
      "chip": "ym2612"
    },
    {
      "channel": 3,
      "note": 66,
      "start": 51.9235,
      "duration": 0.0161,
      "velocity": 120,
      "chip": "ym2612"
    },
    {
      "channel": 2,
      "note": 52,
      "start": 51.9246,
      "duration": 0.0161,
      "velocity": 100,
      "chip": "ym2612"
    },
    {
      "channel": 0,
      "note": 39,
      "start": 51.9373,
      "duration": 0.0161,
      "velocity": 115,
      "chip": "ym2612"
    },
    {
      "channel": 4,
      "note": 59,
      "start": 51.9385,
      "duration": 0.0161,
      "velocity": 120,
      "chip": "ym2612"
    },
    {
      "channel": 3,
      "note": 66,
      "start": 51.9396,
      "duration": 0.0161,
      "velocity": 120,
      "chip": "ym2612"
    },
    {
      "channel": 2,
      "note": 52,
      "start": 51.9407,
      "duration": 0.0161,
      "velocity": 100,
      "chip": "ym2612"
    },
    {
      "channel": 0,
      "note": 40,
      "start": 51.9534,
      "duration": 0.0161,
      "velocity": 115,
      "chip": "ym2612"
    },
    {
      "channel": 4,
      "note": 59,
      "start": 51.9546,
      "duration": 0.0161,
      "velocity": 120,
      "chip": "ym2612"
    },
    {
      "channel": 3,
      "note": 66,
      "start": 51.9557,
      "duration": 0.0161,
      "velocity": 120,
      "chip": "ym2612"
    },
    {
      "channel": 2,
      "note": 52,
      "start": 51.9568,
      "duration": 0.0161,
      "velocity": 100,
      "chip": "ym2612"
    },
    {
      "channel": 0,
      "note": 40,
      "start": 51.9695,
      "duration": 0.0161,
      "velocity": 115,
      "chip": "ym2612"
    },
    {
      "channel": 4,
      "note": 59,
      "start": 51.9707,
      "duration": 0.0161,
      "velocity": 120,
      "chip": "ym2612"
    },
    {
      "channel": 3,
      "note": 66,
      "start": 51.9718,
      "duration": 0.0161,
      "velocity": 120,
      "chip": "ym2612"
    },
    {
      "channel": 2,
      "note": 52,
      "start": 51.9729,
      "duration": 0.0161,
      "velocity": 100,
      "chip": "ym2612"
    },
    {
      "channel": 0,
      "note": 40,
      "start": 51.9856,
      "duration": 0.0161,
      "velocity": 115,
      "chip": "ym2612"
    },
    {
      "channel": 4,
      "note": 59,
      "start": 51.9868,
      "duration": 0.0161,
      "velocity": 120,
      "chip": "ym2612"
    },
    {
      "channel": 3,
      "note": 66,
      "start": 51.9879,
      "duration": 0.0161,
      "velocity": 120,
      "chip": "ym2612"
    },
    {
      "channel": 2,
      "note": 52,
      "start": 51.989,
      "duration": 0.0161,
      "velocity": 100,
      "chip": "ym2612"
    },
    {
      "channel": 0,
      "note": 41,
      "start": 52.0017,
      "duration": 0.0179,
      "velocity": 115,
      "chip": "ym2612"
    },
    {
      "channel": 4,
      "note": 59,
      "start": 52.0029,
      "duration": 0.0181,
      "velocity": 120,
      "chip": "ym2612"
    },
    {
      "channel": 3,
      "note": 66,
      "start": 52.004,
      "duration": 0.0184,
      "velocity": 120,
      "chip": "ym2612"
    },
    {
      "channel": 2,
      "note": 52,
      "start": 52.0051,
      "duration": 0.0187,
      "velocity": 100,
      "chip": "ym2612"
    },
    {
      "channel": 0,
      "note": 36,
      "start": 52.0196,
      "duration": 0.0144,
      "velocity": 115,
      "chip": "ym2612"
    },
    {
      "channel": 4,
      "note": 59,
      "start": 52.021,
      "duration": 0.0141,
      "velocity": 120,
      "chip": "ym2612"
    },
    {
      "channel": 3,
      "note": 66,
      "start": 52.0224,
      "duration": 0.014,
      "velocity": 120,
      "chip": "ym2612"
    },
    {
      "channel": 2,
      "note": 52,
      "start": 52.0239,
      "duration": 0.0137,
      "velocity": 100,
      "chip": "ym2612"
    },
    {
      "channel": 0,
      "note": 36,
      "start": 52.034,
      "duration": 0.016,
      "velocity": 115,
      "chip": "ym2612"
    },
    {
      "channel": 4,
      "note": 59,
      "start": 52.0352,
      "duration": 0.016,
      "velocity": 120,
      "chip": "ym2612"
    },
    {
      "channel": 3,
      "note": 66,
      "start": 52.0364,
      "duration": 0.0159,
      "velocity": 120,
      "chip": "ym2612"
    },
    {
      "channel": 2,
      "note": 52,
      "start": 52.0376,
      "duration": 0.0158,
      "velocity": 100,
      "chip": "ym2612"
    },
    {
      "channel": 0,
      "note": 37,
      "start": 52.05,
      "duration": 0.0161,
      "velocity": 115,
      "chip": "ym2612"
    },
    {
      "channel": 4,
      "note": 59,
      "start": 52.0511,
      "duration": 0.0161,
      "velocity": 120,
      "chip": "ym2612"
    },
    {
      "channel": 3,
      "note": 66,
      "start": 52.0523,
      "duration": 0.0161,
      "velocity": 120,
      "chip": "ym2612"
    },
    {
      "channel": 2,
      "note": 52,
      "start": 52.0534,
      "duration": 0.0161,
      "velocity": 100,
      "chip": "ym2612"
    },
    {
      "channel": 0,
      "note": 37,
      "start": 52.0661,
      "duration": 0.0161,
      "velocity": 115,
      "chip": "ym2612"
    },
    {
      "channel": 4,
      "note": 59,
      "start": 52.0672,
      "duration": 0.0162,
      "velocity": 120,
      "chip": "ym2612"
    },
    {
      "channel": 3,
      "note": 66,
      "start": 52.0684,
      "duration": 0.0161,
      "velocity": 120,
      "chip": "ym2612"
    },
    {
      "channel": 2,
      "note": 52,
      "start": 52.0695,
      "duration": 0.0161,
      "velocity": 100,
      "chip": "ym2612"
    },
    {
      "channel": 0,
      "note": 38,
      "start": 52.0822,
      "duration": 0.0165,
      "velocity": 115,
      "chip": "ym2612"
    },
    {
      "channel": 4,
      "note": 59,
      "start": 52.0834,
      "duration": 0.0165,
      "velocity": 120,
      "chip": "ym2612"
    },
    {
      "channel": 3,
      "note": 66,
      "start": 52.0845,
      "duration": 0.0165,
      "velocity": 120,
      "chip": "ym2612"
    },
    {
      "channel": 2,
      "note": 52,
      "start": 52.0856,
      "duration": 0.0165,
      "velocity": 100,
      "chip": "ym2612"
    },
    {
      "channel": 0,
      "note": 38,
      "start": 52.0987,
      "duration": 0.0167,
      "velocity": 115,
      "chip": "ym2612"
    },
    {
      "channel": 4,
      "note": 59,
      "start": 52.0999,
      "duration": 0.0167,
      "velocity": 120,
      "chip": "ym2612"
    },
    {
      "channel": 3,
      "note": 66,
      "start": 52.101,
      "duration": 0.0167,
      "velocity": 120,
      "chip": "ym2612"
    },
    {
      "channel": 2,
      "note": 52,
      "start": 52.1021,
      "duration": 0.0167,
      "velocity": 100,
      "chip": "ym2612"
    },
    {
      "channel": 0,
      "note": 39,
      "start": 52.1154,
      "duration": 0.0163,
      "velocity": 115,
      "chip": "ym2612"
    },
    {
      "channel": 4,
      "note": 59,
      "start": 52.1165,
      "duration": 0.0163,
      "velocity": 120,
      "chip": "ym2612"
    },
    {
      "channel": 3,
      "note": 66,
      "start": 52.1177,
      "duration": 0.0163,
      "velocity": 120,
      "chip": "ym2612"
    },
    {
      "channel": 2,
      "note": 52,
      "start": 52.1188,
      "duration": 0.0163,
      "velocity": 100,
      "chip": "ym2612"
    },
    {
      "channel": 0,
      "note": 39,
      "start": 52.1317,
      "duration": 0.0149,
      "velocity": 115,
      "chip": "ym2612"
    },
    {
      "channel": 4,
      "note": 59,
      "start": 52.1328,
      "duration": 0.015,
      "velocity": 120,
      "chip": "ym2612"
    },
    {
      "channel": 3,
      "note": 66,
      "start": 52.134,
      "duration": 0.0149,
      "velocity": 120,
      "chip": "ym2612"
    },
    {
      "channel": 2,
      "note": 52,
      "start": 52.1351,
      "duration": 0.015,
      "velocity": 100,
      "chip": "ym2612"
    },
    {
      "channel": 0,
      "note": 40,
      "start": 52.1466,
      "duration": 0.0187,
      "velocity": 115,
      "chip": "ym2612"
    },
    {
      "channel": 4,
      "note": 59,
      "start": 52.1478,
      "duration": 0.0188,
      "velocity": 120,
      "chip": "ym2612"
    },
    {
      "channel": 3,
      "note": 66,
      "start": 52.1489,
      "duration": 0.0187,
      "velocity": 120,
      "chip": "ym2612"
    },
    {
      "channel": 2,
      "note": 52,
      "start": 52.1501,
      "duration": 0.0187,
      "velocity": 100,
      "chip": "ym2612"
    },
    {
      "channel": 0,
      "note": 40,
      "start": 52.1653,
      "duration": 0.0162,
      "velocity": 115,
      "chip": "ym2612"
    },
    {
      "channel": 4,
      "note": 59,
      "start": 52.1665,
      "duration": 0.0162,
      "velocity": 120,
      "chip": "ym2612"
    },
    {
      "channel": 3,
      "note": 66,
      "start": 52.1676,
      "duration": 0.0162,
      "velocity": 120,
      "chip": "ym2612"
    },
    {
      "channel": 2,
      "note": 52,
      "start": 52.1688,
      "duration": 0.0162,
      "velocity": 100,
      "chip": "ym2612"
    },
    {
      "channel": 0,
      "note": 40,
      "start": 52.1815,
      "duration": 0.0158,
      "velocity": 115,
      "chip": "ym2612"
    },
    {
      "channel": 4,
      "note": 59,
      "start": 52.1827,
      "duration": 0.0158,
      "velocity": 120,
      "chip": "ym2612"
    },
    {
      "channel": 3,
      "note": 66,
      "start": 52.1838,
      "duration": 0.0158,
      "velocity": 120,
      "chip": "ym2612"
    },
    {
      "channel": 2,
      "note": 52,
      "start": 52.185,
      "duration": 0.0157,
      "velocity": 100,
      "chip": "ym2612"
    },
    {
      "channel": 0,
      "note": 41,
      "start": 52.1973,
      "duration": 0.0158,
      "velocity": 124,
      "chip": "ym2612"
    },
    {
      "channel": 4,
      "note": 59,
      "start": 52.1985,
      "duration": 0.016,
      "velocity": 120,
      "chip": "ym2612"
    },
    {
      "channel": 3,
      "note": 66,
      "start": 52.1996,
      "duration": 0.0163,
      "velocity": 120,
      "chip": "ym2612"
    },
    {
      "channel": 2,
      "note": 52,
      "start": 52.2007,
      "duration": 0.0167,
      "velocity": 100,
      "chip": "ym2612"
    },
    {
      "channel": 0,
      "note": 84,
      "start": 52.2132,
      "duration": 0.014,
      "velocity": 124,
      "chip": "ym2612"
    },
    {
      "channel": 4,
      "note": 59,
      "start": 52.2146,
      "duration": 0.0166,
      "velocity": 120,
      "chip": "ym2612"
    },
    {
      "channel": 3,
      "note": 66,
      "start": 52.216,
      "duration": 0.0163,
      "velocity": 120,
      "chip": "ym2612"
    },
    {
      "channel": 2,
      "note": 52,
      "start": 52.2174,
      "duration": 0.0161,
      "velocity": 100,
      "chip": "ym2612"
    },
    {
      "channel": 0,
      "note": 82,
      "start": 52.2272,
      "duration": 0.0161,
      "velocity": 124,
      "chip": "ym2612"
    },
    {
      "channel": 4,
      "note": 59,
      "start": 52.2312,
      "duration": 0.016,
      "velocity": 120,
      "chip": "ym2612"
    },
    {
      "channel": 3,
      "note": 66,
      "start": 52.2323,
      "duration": 0.016,
      "velocity": 120,
      "chip": "ym2612"
    },
    {
      "channel": 2,
      "note": 52,
      "start": 52.2335,
      "duration": 0.0159,
      "velocity": 100,
      "chip": "ym2612"
    },
    {
      "channel": 0,
      "note": 80,
      "start": 52.2433,
      "duration": 0.0161,
      "velocity": 124,
      "chip": "ym2612"
    },
    {
      "channel": 4,
      "note": 59,
      "start": 52.2471,
      "duration": 0.0134,
      "velocity": 120,
      "chip": "ym2612"
    },
    {
      "channel": 3,
      "note": 66,
      "start": 52.2483,
      "duration": 0.0157,
      "velocity": 120,
      "chip": "ym2612"
    },
    {
      "channel": 2,
      "note": 52,
      "start": 52.2494,
      "duration": 0.0157,
      "velocity": 100,
      "chip": "ym2612"
    },
    {
      "channel": 0,
      "note": 77,
      "start": 52.2593,
      "duration": 0.0161,
      "velocity": 124,
      "chip": "ym2612"
    },
    {
      "channel": 4,
      "note": 59,
      "start": 52.2605,
      "duration": 0.0161,
      "velocity": 120,
      "chip": "ym2612"
    },
    {
      "channel": 3,
      "note": 66,
      "start": 52.264,
      "duration": 0.0141,
      "velocity": 120,
      "chip": "ym2612"
    },
    {
      "channel": 2,
      "note": 52,
      "start": 52.2651,
      "duration": 0.0141,
      "velocity": 100,
      "chip": "ym2612"
    },
    {
      "channel": 0,
      "note": 75,
      "start": 52.2754,
      "duration": 0.0161,
      "velocity": 124,
      "chip": "ym2612"
    },
    {
      "channel": 4,
      "note": 59,
      "start": 52.2766,
      "duration": 0.0161,
      "velocity": 120,
      "chip": "ym2612"
    },
    {
      "channel": 3,
      "note": 66,
      "start": 52.278,
      "duration": 0.0158,
      "velocity": 120,
      "chip": "ym2612"
    },
    {
      "channel": 2,
      "note": 52,
      "start": 52.2792,
      "duration": 0.0185,
      "velocity": 100,
      "chip": "ym2612"
    },
    {
      "channel": 0,
      "note": 72,
      "start": 52.2915,
      "duration": 0.0161,
      "velocity": 124,
      "chip": "ym2612"
    },
    {
      "channel": 4,
      "note": 59,
      "start": 52.2927,
      "duration": 0.0161,
      "velocity": 120,
      "chip": "ym2612"
    },
    {
      "channel": 3,
      "note": 66,
      "start": 52.2938,
      "duration": 0.0161,
      "velocity": 120,
      "chip": "ym2612"
    },
    {
      "channel": 2,
      "note": 52,
      "start": 52.2977,
      "duration": 0.0161,
      "velocity": 100,
      "chip": "ym2612"
    },
    {
      "channel": 0,
      "note": 70,
      "start": 52.3076,
      "duration": 0.0161,
      "velocity": 124,
      "chip": "ym2612"
    },
    {
      "channel": 4,
      "note": 59,
      "start": 52.3088,
      "duration": 0.0161,
      "velocity": 120,
      "chip": "ym2612"
    },
    {
      "channel": 3,
      "note": 66,
      "start": 52.3099,
      "duration": 0.0161,
      "velocity": 120,
      "chip": "ym2612"
    },
    {
      "channel": 2,
      "note": 52,
      "start": 52.3138,
      "duration": 0.0134,
      "velocity": 100,
      "chip": "ym2612"
    },
    {
      "channel": 0,
      "note": 68,
      "start": 52.3237,
      "duration": 0.0161,
      "velocity": 124,
      "chip": "ym2612"
    },
    {
      "channel": 4,
      "note": 59,
      "start": 52.3249,
      "duration": 0.0161,
      "velocity": 120,
      "chip": "ym2612"
    },
    {
      "channel": 3,
      "note": 66,
      "start": 52.326,
      "duration": 0.0161,
      "velocity": 120,
      "chip": "ym2612"
    },
    {
      "channel": 2,
      "note": 52,
      "start": 52.3272,
      "duration": 0.0161,
      "velocity": 100,
      "chip": "ym2612"
    },
    {
      "channel": 0,
      "note": 65,
      "start": 52.3398,
      "duration": 0.0161,
      "velocity": 124,
      "chip": "ym2612"
    },
    {
      "channel": 4,
      "note": 59,
      "start": 52.341,
      "duration": 0.0161,
      "velocity": 120,
      "chip": "ym2612"
    },
    {
      "channel": 3,
      "note": 66,
      "start": 52.3421,
      "duration": 0.0161,
      "velocity": 120,
      "chip": "ym2612"
    },
    {
      "channel": 2,
      "note": 52,
      "start": 52.3433,
      "duration": 0.0161,
      "velocity": 100,
      "chip": "ym2612"
    },
    {
      "channel": 0,
      "note": 63,
      "start": 52.3559,
      "duration": 0.0153,
      "velocity": 1,
      "chip": "ym2612"
    },
    {
      "channel": 4,
      "note": 59,
      "start": 52.3571,
      "duration": 0.0153,
      "velocity": 120,
      "chip": "ym2612"
    },
    {
      "channel": 3,
      "note": 66,
      "start": 52.3582,
      "duration": 0.0153,
      "velocity": 120,
      "chip": "ym2612"
    },
    {
      "channel": 2,
      "note": 52,
      "start": 52.3593,
      "duration": 0.0153,
      "velocity": 100,
      "chip": "ym2612"
    },
    {
      "channel": 4,
      "note": 59,
      "start": 52.3724,
      "duration": 0.0153,
      "velocity": 120,
      "chip": "ym2612"
    },
    {
      "channel": 3,
      "note": 66,
      "start": 52.3735,
      "duration": 0.0153,
      "velocity": 120,
      "chip": "ym2612"
    },
    {
      "channel": 2,
      "note": 52,
      "start": 52.3746,
      "duration": 0.0153,
      "velocity": 100,
      "chip": "ym2612"
    },
    {
      "channel": 4,
      "note": 59,
      "start": 52.3877,
      "duration": 0.0163,
      "velocity": 120,
      "chip": "ym2612"
    },
    {
      "channel": 3,
      "note": 66,
      "start": 52.3888,
      "duration": 0.0166,
      "velocity": 120,
      "chip": "ym2612"
    },
    {
      "channel": 2,
      "note": 52,
      "start": 52.3899,
      "duration": 0.0169,
      "velocity": 100,
      "chip": "ym2612"
    },
    {
      "channel": 4,
      "note": 61,
      "start": 52.404,
      "duration": 0.0159,
      "velocity": 120,
      "chip": "ym2612"
    },
    {
      "channel": 3,
      "note": 68,
      "start": 52.4054,
      "duration": 0.0157,
      "velocity": 120,
      "chip": "ym2612"
    },
    {
      "channel": 2,
      "note": 52,
      "start": 52.4069,
      "duration": 0.0154,
      "velocity": 100,
      "chip": "ym2612"
    },
    {
      "channel": 4,
      "note": 61,
      "start": 52.4199,
      "duration": 0.016,
      "velocity": 120,
      "chip": "ym2612"
    },
    {
      "channel": 3,
      "note": 68,
      "start": 52.4211,
      "duration": 0.016,
      "velocity": 120,
      "chip": "ym2612"
    },
    {
      "channel": 2,
      "note": 52,
      "start": 52.4223,
      "duration": 0.0159,
      "velocity": 100,
      "chip": "ym2612"
    },
    {
      "channel": 4,
      "note": 61,
      "start": 52.4359,
      "duration": 0.0161,
      "velocity": 120,
      "chip": "ym2612"
    },
    {
      "channel": 3,
      "note": 68,
      "start": 52.4371,
      "duration": 0.0161,
      "velocity": 120,
      "chip": "ym2612"
    },
    {
      "channel": 2,
      "note": 52,
      "start": 52.4382,
      "duration": 0.0162,
      "velocity": 100,
      "chip": "ym2612"
    },
    {
      "channel": 4,
      "note": 61,
      "start": 52.452,
      "duration": 0.0161,
      "velocity": 120,
      "chip": "ym2612"
    },
    {
      "channel": 3,
      "note": 68,
      "start": 52.4532,
      "duration": 0.0161,
      "velocity": 120,
      "chip": "ym2612"
    },
    {
      "channel": 2,
      "note": 52,
      "start": 52.4543,
      "duration": 0.0161,
      "velocity": 100,
      "chip": "ym2612"
    },
    {
      "channel": 4,
      "note": 61,
      "start": 52.4681,
      "duration": 0.0161,
      "velocity": 120,
      "chip": "ym2612"
    },
    {
      "channel": 3,
      "note": 68,
      "start": 52.4693,
      "duration": 0.0161,
      "velocity": 120,
      "chip": "ym2612"
    },
    {
      "channel": 2,
      "note": 52,
      "start": 52.4704,
      "duration": 0.0161,
      "velocity": 100,
      "chip": "ym2612"
    },
    {
      "channel": 4,
      "note": 61,
      "start": 52.4842,
      "duration": 0.0162,
      "velocity": 120,
      "chip": "ym2612"
    },
    {
      "channel": 3,
      "note": 68,
      "start": 52.4854,
      "duration": 0.0161,
      "velocity": 120,
      "chip": "ym2612"
    },
    {
      "channel": 2,
      "note": 52,
      "start": 52.4865,
      "duration": 0.0161,
      "velocity": 100,
      "chip": "ym2612"
    },
    {
      "channel": 4,
      "note": 61,
      "start": 52.5004,
      "duration": 0.0161,
      "velocity": 120,
      "chip": "ym2612"
    },
    {
      "channel": 3,
      "note": 68,
      "start": 52.5015,
      "duration": 0.0161,
      "velocity": 120,
      "chip": "ym2612"
    },
    {
      "channel": 2,
      "note": 52,
      "start": 52.5026,
      "duration": 0.0161,
      "velocity": 100,
      "chip": "ym2612"
    },
    {
      "channel": 4,
      "note": 61,
      "start": 52.5165,
      "duration": 0.0161,
      "velocity": 120,
      "chip": "ym2612"
    },
    {
      "channel": 3,
      "note": 68,
      "start": 52.5176,
      "duration": 0.0162,
      "velocity": 120,
      "chip": "ym2612"
    },
    {
      "channel": 2,
      "note": 52,
      "start": 52.5187,
      "duration": 0.0161,
      "velocity": 100,
      "chip": "ym2612"
    },
    {
      "channel": 4,
      "note": 61,
      "start": 52.5326,
      "duration": 0.0161,
      "velocity": 120,
      "chip": "ym2612"
    },
    {
      "channel": 3,
      "note": 68,
      "start": 52.5337,
      "duration": 0.0161,
      "velocity": 120,
      "chip": "ym2612"
    },
    {
      "channel": 2,
      "note": 52,
      "start": 52.5348,
      "duration": 0.0161,
      "velocity": 100,
      "chip": "ym2612"
    },
    {
      "channel": 4,
      "note": 61,
      "start": 52.5487,
      "duration": 0.0162,
      "velocity": 120,
      "chip": "ym2612"
    },
    {
      "channel": 3,
      "note": 68,
      "start": 52.5498,
      "duration": 0.0162,
      "velocity": 120,
      "chip": "ym2612"
    },
    {
      "channel": 2,
      "note": 52,
      "start": 52.5509,
      "duration": 0.0162,
      "velocity": 100,
      "chip": "ym2612"
    },
    {
      "channel": 4,
      "note": 61,
      "start": 52.5649,
      "duration": 0.0167,
      "velocity": 120,
      "chip": "ym2612"
    },
    {
      "channel": 3,
      "note": 68,
      "start": 52.566,
      "duration": 0.0167,
      "velocity": 120,
      "chip": "ym2612"
    },
    {
      "channel": 2,
      "note": 52,
      "start": 52.5671,
      "duration": 0.0167,
      "velocity": 100,
      "chip": "ym2612"
    },
    {
      "channel": 4,
      "note": 61,
      "start": 52.5815,
      "duration": 0.02,
      "velocity": 120,
      "chip": "ym2612"
    },
    {
      "channel": 3,
      "note": 68,
      "start": 52.5827,
      "duration": 0.0202,
      "velocity": 120,
      "chip": "ym2612"
    },
    {
      "channel": 2,
      "note": 52,
      "start": 52.5838,
      "duration": 0.0206,
      "velocity": 100,
      "chip": "ym2612"
    },
    {
      "channel": 0,
      "note": 36,
      "start": 52.6001,
      "duration": 0.0135,
      "velocity": 115,
      "chip": "ym2612"
    },
    {
      "channel": 4,
      "note": 61,
      "start": 52.6016,
      "duration": 0.0132,
      "velocity": 120,
      "chip": "ym2612"
    },
    {
      "channel": 3,
      "note": 68,
      "start": 52.6029,
      "duration": 0.0131,
      "velocity": 120,
      "chip": "ym2612"
    },
    {
      "channel": 2,
      "note": 52,
      "start": 52.6044,
      "duration": 0.0129,
      "velocity": 100,
      "chip": "ym2612"
    },
    {
      "channel": 0,
      "note": 36,
      "start": 52.6136,
      "duration": 0.0185,
      "velocity": 115,
      "chip": "ym2612"
    },
    {
      "channel": 4,
      "note": 61,
      "start": 52.6148,
      "duration": 0.0184,
      "velocity": 120,
      "chip": "ym2612"
    },
    {
      "channel": 3,
      "note": 68,
      "start": 52.616,
      "duration": 0.0183,
      "velocity": 120,
      "chip": "ym2612"
    },
    {
      "channel": 2,
      "note": 52,
      "start": 52.6172,
      "duration": 0.0182,
      "velocity": 100,
      "chip": "ym2612"
    },
    {
      "channel": 0,
      "note": 37,
      "start": 52.6321,
      "duration": 0.0164,
      "velocity": 115,
      "chip": "ym2612"
    },
    {
      "channel": 4,
      "note": 61,
      "start": 52.6332,
      "duration": 0.0165,
      "velocity": 120,
      "chip": "ym2612"
    },
    {
      "channel": 3,
      "note": 68,
      "start": 52.6344,
      "duration": 0.0164,
      "velocity": 120,
      "chip": "ym2612"
    },
    {
      "channel": 2,
      "note": 52,
      "start": 52.6354,
      "duration": 0.0165,
      "velocity": 100,
      "chip": "ym2612"
    },
    {
      "channel": 0,
      "note": 37,
      "start": 52.6485,
      "duration": 0.0158,
      "velocity": 115,
      "chip": "ym2612"
    },
    {
      "channel": 4,
      "note": 61,
      "start": 52.6497,
      "duration": 0.0157,
      "velocity": 120,
      "chip": "ym2612"
    },
    {
      "channel": 3,
      "note": 68,
      "start": 52.6508,
      "duration": 0.0158,
      "velocity": 120,
      "chip": "ym2612"
    },
    {
      "channel": 2,
      "note": 52,
      "start": 52.6519,
      "duration": 0.0157,
      "velocity": 100,
      "chip": "ym2612"
    },
    {
      "channel": 0,
      "note": 38,
      "start": 52.6642,
      "duration": 0.0141,
      "velocity": 115,
      "chip": "ym2612"
    },
    {
      "channel": 4,
      "note": 61,
      "start": 52.6654,
      "duration": 0.0141,
      "velocity": 120,
      "chip": "ym2612"
    },
    {
      "channel": 3,
      "note": 68,
      "start": 52.6665,
      "duration": 0.0141,
      "velocity": 120,
      "chip": "ym2612"
    },
    {
      "channel": 2,
      "note": 52,
      "start": 52.6676,
      "duration": 0.0141,
      "velocity": 100,
      "chip": "ym2612"
    },
    {
      "channel": 0,
      "note": 38,
      "start": 52.6783,
      "duration": 0.0185,
      "velocity": 115,
      "chip": "ym2612"
    },
    {
      "channel": 4,
      "note": 61,
      "start": 52.6795,
      "duration": 0.0185,
      "velocity": 120,
      "chip": "ym2612"
    },
    {
      "channel": 3,
      "note": 68,
      "start": 52.6806,
      "duration": 0.0185,
      "velocity": 120,
      "chip": "ym2612"
    },
    {
      "channel": 2,
      "note": 52,
      "start": 52.6817,
      "duration": 0.0185,
      "velocity": 100,
      "chip": "ym2612"
    },
    {
      "channel": 0,
      "note": 39,
      "start": 52.6968,
      "duration": 0.0134,
      "velocity": 115,
      "chip": "ym2612"
    },
    {
      "channel": 4,
      "note": 61,
      "start": 52.698,
      "duration": 0.0161,
      "velocity": 120,
      "chip": "ym2612"
    },
    {
      "channel": 3,
      "note": 68,
      "start": 52.6991,
      "duration": 0.0161,
      "velocity": 120,
      "chip": "ym2612"
    },
    {
      "channel": 2,
      "note": 52,
      "start": 52.7002,
      "duration": 0.0162,
      "velocity": 100,
      "chip": "ym2612"
    },
    {
      "channel": 0,
      "note": 39,
      "start": 52.7102,
      "duration": 0.0161,
      "velocity": 115,
      "chip": "ym2612"
    },
    {
      "channel": 4,
      "note": 61,
      "start": 52.7141,
      "duration": 0.0157,
      "velocity": 120,
      "chip": "ym2612"
    },
    {
      "channel": 3,
      "note": 68,
      "start": 52.7152,
      "duration": 0.0158,
      "velocity": 120,
      "chip": "ym2612"
    },
    {
      "channel": 2,
      "note": 52,
      "start": 52.7163,
      "duration": 0.0157,
      "velocity": 100,
      "chip": "ym2612"
    },
    {
      "channel": 0,
      "note": 40,
      "start": 52.7263,
      "duration": 0.0161,
      "velocity": 115,
      "chip": "ym2612"
    },
    {
      "channel": 4,
      "note": 61,
      "start": 52.7298,
      "duration": 0.0137,
      "velocity": 120,
      "chip": "ym2612"
    },
    {
      "channel": 3,
      "note": 68,
      "start": 52.731,
      "duration": 0.014,
      "velocity": 120,
      "chip": "ym2612"
    },
    {
      "channel": 2,
      "note": 52,
      "start": 52.7321,
      "duration": 0.0141,
      "velocity": 100,
      "chip": "ym2612"
    },
    {
      "channel": 0,
      "note": 40,
      "start": 52.7424,
      "duration": 0.0161,
      "velocity": 115,
      "chip": "ym2612"
    },
    {
      "channel": 4,
      "note": 61,
      "start": 52.7435,
      "duration": 0.0161,
      "velocity": 120,
      "chip": "ym2612"
    },
    {
      "channel": 3,
      "note": 68,
      "start": 52.745,
      "duration": 0.0185,
      "velocity": 120,
      "chip": "ym2612"
    },
    {
      "channel": 2,
      "note": 52,
      "start": 52.7461,
      "duration": 0.0185,
      "velocity": 100,
      "chip": "ym2612"
    },
    {
      "channel": 0,
      "note": 40,
      "start": 52.7585,
      "duration": 0.0161,
      "velocity": 115,
      "chip": "ym2612"
    },
    {
      "channel": 4,
      "note": 61,
      "start": 52.7596,
      "duration": 0.0161,
      "velocity": 120,
      "chip": "ym2612"
    },
    {
      "channel": 3,
      "note": 68,
      "start": 52.7635,
      "duration": 0.0134,
      "velocity": 120,
      "chip": "ym2612"
    },
    {
      "channel": 2,
      "note": 52,
      "start": 52.7646,
      "duration": 0.0161,
      "velocity": 100,
      "chip": "ym2612"
    },
    {
      "channel": 0,
      "note": 41,
      "start": 52.7746,
      "duration": 0.0161,
      "velocity": 115,
      "chip": "ym2612"
    },
    {
      "channel": 4,
      "note": 61,
      "start": 52.7757,
      "duration": 0.0163,
      "velocity": 120,
      "chip": "ym2612"
    },
    {
      "channel": 3,
      "note": 68,
      "start": 52.7768,
      "duration": 0.0166,
      "velocity": 120,
      "chip": "ym2612"
    },
    {
      "channel": 2,
      "note": 52,
      "start": 52.7807,
      "duration": 0.0165,
      "velocity": 100,
      "chip": "ym2612"
    },
    {
      "channel": 0,
      "note": 41,
      "start": 52.7907,
      "duration": 0.0161,
      "velocity": 115,
      "chip": "ym2612"
    },
    {
      "channel": 4,
      "note": 61,
      "start": 52.7921,
      "duration": 0.0159,
      "velocity": 120,
      "chip": "ym2612"
    },
    {
      "channel": 3,
      "note": 68,
      "start": 52.7934,
      "duration": 0.0157,
      "velocity": 120,
      "chip": "ym2612"
    },
    {
      "channel": 2,
      "note": 52,
      "start": 52.7973,
      "duration": 0.013,
      "velocity": 100,
      "chip": "ym2612"
    },
    {
      "channel": 0,
      "note": 42,
      "start": 52.8067,
      "duration": 0.0162,
      "velocity": 115,
      "chip": "ym2612"
    },
    {
      "channel": 4,
      "note": 61,
      "start": 52.808,
      "duration": 0.0161,
      "velocity": 120,
      "chip": "ym2612"
    },
    {
      "channel": 3,
      "note": 68,
      "start": 52.8092,
      "duration": 0.016,
      "velocity": 120,
      "chip": "ym2612"
    },
    {
      "channel": 2,
      "note": 52,
      "start": 52.8104,
      "duration": 0.0159,
      "velocity": 100,
      "chip": "ym2612"
    },
    {
      "channel": 0,
      "note": 42,
      "start": 52.8229,
      "duration": 0.016,
      "velocity": 115,
      "chip": "ym2612"
    },
    {
      "channel": 4,
      "note": 61,
      "start": 52.824,
      "duration": 0.0161,
      "velocity": 120,
      "chip": "ym2612"
    },
    {
      "channel": 3,
      "note": 68,
      "start": 52.8252,
      "duration": 0.016,
      "velocity": 120,
      "chip": "ym2612"
    },
    {
      "channel": 2,
      "note": 52,
      "start": 52.8263,
      "duration": 0.0161,
      "velocity": 100,
      "chip": "ym2612"
    },
    {
      "channel": 0,
      "note": 43,
      "start": 52.8389,
      "duration": 0.0161,
      "velocity": 115,
      "chip": "ym2612"
    },
    {
      "channel": 4,
      "note": 61,
      "start": 52.8401,
      "duration": 0.0161,
      "velocity": 120,
      "chip": "ym2612"
    },
    {
      "channel": 3,
      "note": 68,
      "start": 52.8412,
      "duration": 0.0161,
      "velocity": 120,
      "chip": "ym2612"
    },
    {
      "channel": 2,
      "note": 52,
      "start": 52.8424,
      "duration": 0.0161,
      "velocity": 100,
      "chip": "ym2612"
    },
    {
      "channel": 0,
      "note": 43,
      "start": 52.8551,
      "duration": 0.0161,
      "velocity": 115,
      "chip": "ym2612"
    },
    {
      "channel": 4,
      "note": 61,
      "start": 52.8562,
      "duration": 0.0161,
      "velocity": 120,
      "chip": "ym2612"
    },
    {
      "channel": 3,
      "note": 68,
      "start": 52.8574,
      "duration": 0.0161,
      "velocity": 120,
      "chip": "ym2612"
    },
    {
      "channel": 2,
      "note": 52,
      "start": 52.8585,
      "duration": 0.0161,
      "velocity": 100,
      "chip": "ym2612"
    },
    {
      "channel": 0,
      "note": 44,
      "start": 52.8712,
      "duration": 0.0161,
      "velocity": 115,
      "chip": "ym2612"
    },
    {
      "channel": 4,
      "note": 61,
      "start": 52.8723,
      "duration": 0.0161,
      "velocity": 120,
      "chip": "ym2612"
    },
    {
      "channel": 3,
      "note": 68,
      "start": 52.8735,
      "duration": 0.0161,
      "velocity": 120,
      "chip": "ym2612"
    },
    {
      "channel": 2,
      "note": 52,
      "start": 52.8746,
      "duration": 0.0161,
      "velocity": 100,
      "chip": "ym2612"
    },
    {
      "channel": 0,
      "note": 44,
      "start": 52.8873,
      "duration": 0.0161,
      "velocity": 115,
      "chip": "ym2612"
    },
    {
      "channel": 4,
      "note": 61,
      "start": 52.8884,
      "duration": 0.0161,
      "velocity": 120,
      "chip": "ym2612"
    },
    {
      "channel": 3,
      "note": 68,
      "start": 52.8896,
      "duration": 0.0161,
      "velocity": 120,
      "chip": "ym2612"
    },
    {
      "channel": 2,
      "note": 52,
      "start": 52.8907,
      "duration": 0.0161,
      "velocity": 100,
      "chip": "ym2612"
    },
    {
      "channel": 0,
      "note": 44,
      "start": 52.9034,
      "duration": 0.0161,
      "velocity": 115,
      "chip": "ym2612"
    },
    {
      "channel": 4,
      "note": 61,
      "start": 52.9045,
      "duration": 0.0161,
      "velocity": 120,
      "chip": "ym2612"
    },
    {
      "channel": 3,
      "note": 68,
      "start": 52.9057,
      "duration": 0.0161,
      "velocity": 120,
      "chip": "ym2612"
    },
    {
      "channel": 2,
      "note": 52,
      "start": 52.9068,
      "duration": 0.0161,
      "velocity": 100,
      "chip": "ym2612"
    },
    {
      "channel": 0,
      "note": 45,
      "start": 52.9195,
      "duration": 0.0161,
      "velocity": 115,
      "chip": "ym2612"
    },
    {
      "channel": 4,
      "note": 61,
      "start": 52.9206,
      "duration": 0.0161,
      "velocity": 120,
      "chip": "ym2612"
    },
    {
      "channel": 3,
      "note": 68,
      "start": 52.9217,
      "duration": 0.0161,
      "velocity": 120,
      "chip": "ym2612"
    },
    {
      "channel": 2,
      "note": 52,
      "start": 52.9229,
      "duration": 0.0161,
      "velocity": 100,
      "chip": "ym2612"
    },
    {
      "channel": 0,
      "note": 45,
      "start": 52.9356,
      "duration": 0.0161,
      "velocity": 115,
      "chip": "ym2612"
    },
    {
      "channel": 4,
      "note": 61,
      "start": 52.9367,
      "duration": 0.0161,
      "velocity": 120,
      "chip": "ym2612"
    },
    {
      "channel": 3,
      "note": 68,
      "start": 52.9378,
      "duration": 0.0161,
      "velocity": 120,
      "chip": "ym2612"
    },
    {
      "channel": 2,
      "note": 52,
      "start": 52.939,
      "duration": 0.0161,
      "velocity": 100,
      "chip": "ym2612"
    },
    {
      "channel": 0,
      "note": 46,
      "start": 52.9517,
      "duration": 0.0161,
      "velocity": 115,
      "chip": "ym2612"
    },
    {
      "channel": 4,
      "note": 61,
      "start": 52.9528,
      "duration": 0.0162,
      "velocity": 120,
      "chip": "ym2612"
    },
    {
      "channel": 3,
      "note": 68,
      "start": 52.9539,
      "duration": 0.0161,
      "velocity": 120,
      "chip": "ym2612"
    },
    {
      "channel": 2,
      "note": 52,
      "start": 52.9551,
      "duration": 0.0161,
      "velocity": 100,
      "chip": "ym2612"
    },
    {
      "channel": 0,
      "note": 46,
      "start": 52.9678,
      "duration": 0.0179,
      "velocity": 124,
      "chip": "ym2612"
    },
    {
      "channel": 4,
      "note": 61,
      "start": 52.969,
      "duration": 0.0181,
      "velocity": 120,
      "chip": "ym2612"
    },
    {
      "channel": 3,
      "note": 68,
      "start": 52.97,
      "duration": 0.0184,
      "velocity": 120,
      "chip": "ym2612"
    },
    {
      "channel": 2,
      "note": 52,
      "start": 52.9712,
      "duration": 0.0187,
      "velocity": 100,
      "chip": "ym2612"
    },
    {
      "channel": 0,
      "note": 84,
      "start": 52.9857,
      "duration": 0.0144,
      "velocity": 124,
      "chip": "ym2612"
    },
    {
      "channel": 4,
      "note": 61,
      "start": 52.9871,
      "duration": 0.0142,
      "velocity": 120,
      "chip": "ym2612"
    },
    {
      "channel": 3,
      "note": 68,
      "start": 52.9885,
      "duration": 0.0139,
      "velocity": 120,
      "chip": "ym2612"
    },
    {
      "channel": 2,
      "note": 52,
      "start": 52.99,
      "duration": 0.0137,
      "velocity": 100,
      "chip": "ym2612"
    },
    {
      "channel": 0,
      "note": 82,
      "start": 53.0001,
      "duration": 0.016,
      "velocity": 124,
      "chip": "ym2612"
    },
    {
      "channel": 4,
      "note": 61,
      "start": 53.0013,
      "duration": 0.016,
      "velocity": 120,
      "chip": "ym2612"
    },
    {
      "channel": 3,
      "note": 68,
      "start": 53.0024,
      "duration": 0.016,
      "velocity": 120,
      "chip": "ym2612"
    },
    {
      "channel": 2,
      "note": 52,
      "start": 53.0036,
      "duration": 0.0158,
      "velocity": 100,
      "chip": "ym2612"
    },
    {
      "channel": 0,
      "note": 80,
      "start": 53.0161,
      "duration": 0.0161,
      "velocity": 124,
      "chip": "ym2612"
    },
    {
      "channel": 4,
      "note": 61,
      "start": 53.0172,
      "duration": 0.0161,
      "velocity": 120,
      "chip": "ym2612"
    },
    {
      "channel": 3,
      "note": 68,
      "start": 53.0184,
      "duration": 0.0161,
      "velocity": 120,
      "chip": "ym2612"
    },
    {
      "channel": 2,
      "note": 52,
      "start": 53.0195,
      "duration": 0.0162,
      "velocity": 100,
      "chip": "ym2612"
    },
    {
      "channel": 0,
      "note": 77,
      "start": 53.0322,
      "duration": 0.0166,
      "velocity": 124,
      "chip": "ym2612"
    },
    {
      "channel": 4,
      "note": 61,
      "start": 53.0333,
      "duration": 0.0165,
      "velocity": 120,
      "chip": "ym2612"
    },
    {
      "channel": 3,
      "note": 68,
      "start": 53.0345,
      "duration": 0.0166,
      "velocity": 120,
      "chip": "ym2612"
    },
    {
      "channel": 2,
      "note": 52,
      "start": 53.0356,
      "duration": 0.0165,
      "velocity": 100,
      "chip": "ym2612"
    },
    {
      "channel": 0,
      "note": 75,
      "start": 53.0487,
      "duration": 0.0163,
      "velocity": 124,
      "chip": "ym2612"
    },
    {
      "channel": 4,
      "note": 61,
      "start": 53.0499,
      "duration": 0.0163,
      "velocity": 120,
      "chip": "ym2612"
    },
    {
      "channel": 3,
      "note": 68,
      "start": 53.051,
      "duration": 0.0163,
      "velocity": 120,
      "chip": "ym2612"
    },
    {
      "channel": 2,
      "note": 52,
      "start": 53.0521,
      "duration": 0.0163,
      "velocity": 100,
      "chip": "ym2612"
    },
    {
      "channel": 0,
      "note": 72,
      "start": 53.065,
      "duration": 0.0155,
      "velocity": 124,
      "chip": "ym2612"
    },
    {
      "channel": 4,
      "note": 61,
      "start": 53.0661,
      "duration": 0.0155,
      "velocity": 120,
      "chip": "ym2612"
    },
    {
      "channel": 3,
      "note": 68,
      "start": 53.0673,
      "duration": 0.0155,
      "velocity": 120,
      "chip": "ym2612"
    },
    {
      "channel": 2,
      "note": 52,
      "start": 53.0684,
      "duration": 0.0155,
      "velocity": 100,
      "chip": "ym2612"
    },
    {
      "channel": 0,
      "note": 70,
      "start": 53.0805,
      "duration": 0.0183,
      "velocity": 124,
      "chip": "ym2612"
    },
    {
      "channel": 4,
      "note": 61,
      "start": 53.0816,
      "duration": 0.0183,
      "velocity": 120,
      "chip": "ym2612"
    },
    {
      "channel": 3,
      "note": 68,
      "start": 53.0828,
      "duration": 0.0183,
      "velocity": 120,
      "chip": "ym2612"
    },
    {
      "channel": 2,
      "note": 52,
      "start": 53.0839,
      "duration": 0.0182,
      "velocity": 100,
      "chip": "ym2612"
    },
    {
      "channel": 0,
      "note": 68,
      "start": 53.0987,
      "duration": 0.0167,
      "velocity": 124,
      "chip": "ym2612"
    },
    {
      "channel": 4,
      "note": 61,
      "start": 53.0999,
      "duration": 0.0167,
      "velocity": 120,
      "chip": "ym2612"
    },
    {
      "channel": 3,
      "note": 68,
      "start": 53.101,
      "duration": 0.0167,
      "velocity": 120,
      "chip": "ym2612"
    },
    {
      "channel": 2,
      "note": 52,
      "start": 53.1021,
      "duration": 0.0167,
      "velocity": 100,
      "chip": "ym2612"
    },
    {
      "channel": 0,
      "note": 65,
      "start": 53.1154,
      "duration": 0.0158,
      "velocity": 124,
      "chip": "ym2612"
    },
    {
      "channel": 4,
      "note": 61,
      "start": 53.1165,
      "duration": 0.0158,
      "velocity": 120,
      "chip": "ym2612"
    },
    {
      "channel": 3,
      "note": 68,
      "start": 53.1177,
      "duration": 0.0158,
      "velocity": 120,
      "chip": "ym2612"
    },
    {
      "channel": 2,
      "note": 52,
      "start": 53.1188,
      "duration": 0.0158,
      "velocity": 100,
      "chip": "ym2612"
    },
    {
      "channel": 0,
      "note": 63,
      "start": 53.1312,
      "duration": 0.0132,
      "velocity": 1,
      "chip": "ym2612"
    },
    {
      "channel": 4,
      "note": 61,
      "start": 53.1323,
      "duration": 0.0132,
      "velocity": 120,
      "chip": "ym2612"
    },
    {
      "channel": 3,
      "note": 68,
      "start": 53.1335,
      "duration": 0.0132,
      "velocity": 120,
      "chip": "ym2612"
    },
    {
      "channel": 2,
      "note": 52,
      "start": 53.1346,
      "duration": 0.0132,
      "velocity": 100,
      "chip": "ym2612"
    },
    {
      "channel": 4,
      "note": 61,
      "start": 53.1456,
      "duration": 0.0149,
      "velocity": 120,
      "chip": "ym2612"
    },
    {
      "channel": 3,
      "note": 68,
      "start": 53.1467,
      "duration": 0.0177,
      "velocity": 120,
      "chip": "ym2612"
    },
    {
      "channel": 2,
      "note": 52,
      "start": 53.1478,
      "duration": 0.0177,
      "velocity": 100,
      "chip": "ym2612"
    },
    {
      "channel": 4,
      "note": 61,
      "start": 53.1605,
      "duration": 0.0225,
      "velocity": 120,
      "chip": "ym2612"
    },
    {
      "channel": 3,
      "note": 68,
      "start": 53.1644,
      "duration": 0.02,
      "velocity": 120,
      "chip": "ym2612"
    },
    {
      "channel": 2,
      "note": 52,
      "start": 53.1655,
      "duration": 0.0204,
      "velocity": 100,
      "chip": "ym2612"
    },
    {
      "channel": 0,
      "note": 36,
      "start": 53.1816,
      "duration": 0.0117,
      "velocity": 115,
      "chip": "ym2612"
    },
    {
      "channel": 4,
      "note": 61,
      "start": 53.1831,
      "duration": 0.0138,
      "velocity": 120,
      "chip": "ym2612"
    },
    {
      "channel": 3,
      "note": 68,
      "start": 53.1845,
      "duration": 0.0136,
      "velocity": 120,
      "chip": "ym2612"
    },
    {
      "channel": 2,
      "note": 52,
      "start": 53.1859,
      "duration": 0.0133,
      "velocity": 100,
      "chip": "ym2612"
    },
    {
      "channel": 0,
      "note": 36,
      "start": 53.1933,
      "duration": 0.016,
      "velocity": 115,
      "chip": "ym2612"
    },
    {
      "channel": 4,
      "note": 61,
      "start": 53.1969,
      "duration": 0.0136,
      "velocity": 120,
      "chip": "ym2612"
    },
    {
      "channel": 3,
      "note": 68,
      "start": 53.198,
      "duration": 0.0139,
      "velocity": 120,
      "chip": "ym2612"
    },
    {
      "channel": 2,
      "note": 52,
      "start": 53.1992,
      "duration": 0.0138,
      "velocity": 100,
      "chip": "ym2612"
    },
    {
      "channel": 0,
      "note": 37,
      "start": 53.2093,
      "duration": 0.0161,
      "velocity": 115,
      "chip": "ym2612"
    },
    {
      "channel": 4,
      "note": 61,
      "start": 53.2104,
      "duration": 0.0161,
      "velocity": 120,
      "chip": "ym2612"
    },
    {
      "channel": 3,
      "note": 68,
      "start": 53.2119,
      "duration": 0.0185,
      "velocity": 120,
      "chip": "ym2612"
    },
    {
      "channel": 2,
      "note": 52,
      "start": 53.213,
      "duration": 0.0185,
      "velocity": 100,
      "chip": "ym2612"
    },
    {
      "channel": 0,
      "note": 37,
      "start": 53.2254,
      "duration": 0.0161,
      "velocity": 115,
      "chip": "ym2612"
    },
    {
      "channel": 4,
      "note": 61,
      "start": 53.2265,
      "duration": 0.0161,
      "velocity": 120,
      "chip": "ym2612"
    },
    {
      "channel": 3,
      "note": 68,
      "start": 53.2304,
      "duration": 0.0134,
      "velocity": 120,
      "chip": "ym2612"
    },
    {
      "channel": 2,
      "note": 52,
      "start": 53.2315,
      "duration": 0.0161,
      "velocity": 100,
      "chip": "ym2612"
    },
    {
      "channel": 0,
      "note": 38,
      "start": 53.2415,
      "duration": 0.0161,
      "velocity": 115,
      "chip": "ym2612"
    },
    {
      "channel": 4,
      "note": 61,
      "start": 53.2426,
      "duration": 0.0161,
      "velocity": 120,
      "chip": "ym2612"
    },
    {
      "channel": 3,
      "note": 68,
      "start": 53.2438,
      "duration": 0.0161,
      "velocity": 120,
      "chip": "ym2612"
    },
    {
      "channel": 2,
      "note": 52,
      "start": 53.2476,
      "duration": 0.0158,
      "velocity": 100,
      "chip": "ym2612"
    },
    {
      "channel": 0,
      "note": 38,
      "start": 53.2576,
      "duration": 0.0161,
      "velocity": 115,
      "chip": "ym2612"
    },
    {
      "channel": 4,
      "note": 61,
      "start": 53.2587,
      "duration": 0.0162,
      "velocity": 120,
      "chip": "ym2612"
    },
    {
      "channel": 3,
      "note": 68,
      "start": 53.2599,
      "duration": 0.0161,
      "velocity": 120,
      "chip": "ym2612"
    },
    {
      "channel": 2,
      "note": 52,
      "start": 53.2634,
      "duration": 0.0137,
      "velocity": 100,
      "chip": "ym2612"
    },
    {
      "channel": 0,
      "note": 39,
      "start": 53.2737,
      "duration": 0.0161,
      "velocity": 115,
      "chip": "ym2612"
    },
    {
      "channel": 4,
      "note": 61,
      "start": 53.2749,
      "duration": 0.0161,
      "velocity": 120,
      "chip": "ym2612"
    },
    {
      "channel": 3,
      "note": 68,
      "start": 53.276,
      "duration": 0.0161,
      "velocity": 120,
      "chip": "ym2612"
    },
    {
      "channel": 2,
      "note": 52,
      "start": 53.2771,
      "duration": 0.0161,
      "velocity": 100,
      "chip": "ym2612"
    },
    {
      "channel": 0,
      "note": 39,
      "start": 53.2898,
      "duration": 0.0161,
      "velocity": 115,
      "chip": "ym2612"
    },
    {
      "channel": 4,
      "note": 61,
      "start": 53.291,
      "duration": 0.0161,
      "velocity": 120,
      "chip": "ym2612"
    },
    {
      "channel": 3,
      "note": 68,
      "start": 53.2921,
      "duration": 0.0161,
      "velocity": 120,
      "chip": "ym2612"
    },
    {
      "channel": 2,
      "note": 52,
      "start": 53.2932,
      "duration": 0.0161,
      "velocity": 100,
      "chip": "ym2612"
    },
    {
      "channel": 0,
      "note": 40,
      "start": 53.3059,
      "duration": 0.0161,
      "velocity": 115,
      "chip": "ym2612"
    },
    {
      "channel": 4,
      "note": 61,
      "start": 53.3071,
      "duration": 0.0161,
      "velocity": 120,
      "chip": "ym2612"
    },
    {
      "channel": 3,
      "note": 68,
      "start": 53.3082,
      "duration": 0.0161,
      "velocity": 120,
      "chip": "ym2612"
    },
    {
      "channel": 2,
      "note": 52,
      "start": 53.3093,
      "duration": 0.0161,
      "velocity": 100,
      "chip": "ym2612"
    },
    {
      "channel": 0,
      "note": 40,
      "start": 53.322,
      "duration": 0.0161,
      "velocity": 115,
      "chip": "ym2612"
    },
    {
      "channel": 4,
      "note": 61,
      "start": 53.3232,
      "duration": 0.0161,
      "velocity": 120,
      "chip": "ym2612"
    },
    {
      "channel": 3,
      "note": 68,
      "start": 53.3243,
      "duration": 0.0161,
      "velocity": 120,
      "chip": "ym2612"
    },
    {
      "channel": 2,
      "note": 52,
      "start": 53.3254,
      "duration": 0.0161,
      "velocity": 100,
      "chip": "ym2612"
    },
    {
      "channel": 0,
      "note": 40,
      "start": 53.3381,
      "duration": 0.0161,
      "velocity": 115,
      "chip": "ym2612"
    },
    {
      "channel": 4,
      "note": 61,
      "start": 53.3393,
      "duration": 0.0161,
      "velocity": 120,
      "chip": "ym2612"
    },
    {
      "channel": 3,
      "note": 68,
      "start": 53.3404,
      "duration": 0.0161,
      "velocity": 120,
      "chip": "ym2612"
    },
    {
      "channel": 2,
      "note": 52,
      "start": 53.3415,
      "duration": 0.0161,
      "velocity": 100,
      "chip": "ym2612"
    },
    {
      "channel": 0,
      "note": 41,
      "start": 53.3542,
      "duration": 0.0179,
      "velocity": 115,
      "chip": "ym2612"
    },
    {
      "channel": 4,
      "note": 61,
      "start": 53.3554,
      "duration": 0.0181,
      "velocity": 120,
      "chip": "ym2612"
    },
    {
      "channel": 3,
      "note": 68,
      "start": 53.3565,
      "duration": 0.0184,
      "velocity": 120,
      "chip": "ym2612"
    },
    {
      "channel": 2,
      "note": 52,
      "start": 53.3576,
      "duration": 0.0187,
      "velocity": 100,
      "chip": "ym2612"
    },
    {
      "channel": 0,
      "note": 36,
      "start": 53.3721,
      "duration": 0.0144,
      "velocity": 115,
      "chip": "ym2612"
    },
    {
      "channel": 4,
      "note": 61,
      "start": 53.3735,
      "duration": 0.0141,
      "velocity": 120,
      "chip": "ym2612"
    },
    {
      "channel": 3,
      "note": 68,
      "start": 53.3749,
      "duration": 0.014,
      "velocity": 120,
      "chip": "ym2612"
    },
    {
      "channel": 2,
      "note": 52,
      "start": 53.3763,
      "duration": 0.0137,
      "velocity": 100,
      "chip": "ym2612"
    },
    {
      "channel": 0,
      "note": 36,
      "start": 53.3864,
      "duration": 0.016,
      "velocity": 115,
      "chip": "ym2612"
    },
    {
      "channel": 4,
      "note": 61,
      "start": 53.3877,
      "duration": 0.016,
      "velocity": 120,
      "chip": "ym2612"
    },
    {
      "channel": 3,
      "note": 68,
      "start": 53.3889,
      "duration": 0.0159,
      "velocity": 120,
      "chip": "ym2612"
    },
    {
      "channel": 2,
      "note": 52,
      "start": 53.3901,
      "duration": 0.0159,
      "velocity": 100,
      "chip": "ym2612"
    },
    {
      "channel": 0,
      "note": 37,
      "start": 53.4025,
      "duration": 0.0161,
      "velocity": 115,
      "chip": "ym2612"
    },
    {
      "channel": 4,
      "note": 61,
      "start": 53.4036,
      "duration": 0.0161,
      "velocity": 120,
      "chip": "ym2612"
    },
    {
      "channel": 3,
      "note": 68,
      "start": 53.4048,
      "duration": 0.0161,
      "velocity": 120,
      "chip": "ym2612"
    },
    {
      "channel": 2,
      "note": 52,
      "start": 53.4059,
      "duration": 0.0161,
      "velocity": 100,
      "chip": "ym2612"
    },
    {
      "channel": 0,
      "note": 37,
      "start": 53.4186,
      "duration": 0.0162,
      "velocity": 115,
      "chip": "ym2612"
    },
    {
      "channel": 4,
      "note": 61,
      "start": 53.4198,
      "duration": 0.0161,
      "velocity": 120,
      "chip": "ym2612"
    },
    {
      "channel": 3,
      "note": 68,
      "start": 53.4209,
      "duration": 0.0162,
      "velocity": 120,
      "chip": "ym2612"
    },
    {
      "channel": 2,
      "note": 52,
      "start": 53.422,
      "duration": 0.0161,
      "velocity": 100,
      "chip": "ym2612"
    },
    {
      "channel": 0,
      "note": 38,
      "start": 53.4347,
      "duration": 0.0161,
      "velocity": 115,
      "chip": "ym2612"
    },
    {
      "channel": 4,
      "note": 61,
      "start": 53.4359,
      "duration": 0.0161,
      "velocity": 120,
      "chip": "ym2612"
    },
    {
      "channel": 3,
      "note": 68,
      "start": 53.437,
      "duration": 0.0161,
      "velocity": 120,
      "chip": "ym2612"
    },
    {
      "channel": 2,
      "note": 52,
      "start": 53.4381,
      "duration": 0.0161,
      "velocity": 100,
      "chip": "ym2612"
    },
    {
      "channel": 0,
      "note": 38,
      "start": 53.4508,
      "duration": 0.0161,
      "velocity": 115,
      "chip": "ym2612"
    },
    {
      "channel": 4,
      "note": 61,
      "start": 53.452,
      "duration": 0.0161,
      "velocity": 120,
      "chip": "ym2612"
    },
    {
      "channel": 3,
      "note": 68,
      "start": 53.4531,
      "duration": 0.0161,
      "velocity": 120,
      "chip": "ym2612"
    },
    {
      "channel": 2,
      "note": 52,
      "start": 53.4542,
      "duration": 0.0162,
      "velocity": 100,
      "chip": "ym2612"
    },
    {
      "channel": 0,
      "note": 39,
      "start": 53.4669,
      "duration": 0.0161,
      "velocity": 115,
      "chip": "ym2612"
    },
    {
      "channel": 4,
      "note": 61,
      "start": 53.4681,
      "duration": 0.0161,
      "velocity": 120,
      "chip": "ym2612"
    },
    {
      "channel": 3,
      "note": 68,
      "start": 53.4692,
      "duration": 0.0161,
      "velocity": 120,
      "chip": "ym2612"
    },
    {
      "channel": 2,
      "note": 52,
      "start": 53.4704,
      "duration": 0.0161,
      "velocity": 100,
      "chip": "ym2612"
    },
    {
      "channel": 0,
      "note": 39,
      "start": 53.483,
      "duration": 0.0161,
      "velocity": 115,
      "chip": "ym2612"
    },
    {
      "channel": 4,
      "note": 61,
      "start": 53.4841,
      "duration": 0.0161,
      "velocity": 120,
      "chip": "ym2612"
    },
    {
      "channel": 3,
      "note": 68,
      "start": 53.4853,
      "duration": 0.0161,
      "velocity": 120,
      "chip": "ym2612"
    },
    {
      "channel": 2,
      "note": 52,
      "start": 53.4864,
      "duration": 0.0161,
      "velocity": 100,
      "chip": "ym2612"
    },
    {
      "channel": 0,
      "note": 40,
      "start": 53.4991,
      "duration": 0.0163,
      "velocity": 115,
      "chip": "ym2612"
    },
    {
      "channel": 4,
      "note": 61,
      "start": 53.5002,
      "duration": 0.0163,
      "velocity": 120,
      "chip": "ym2612"
    },
    {
      "channel": 3,
      "note": 68,
      "start": 53.5014,
      "duration": 0.0163,
      "velocity": 120,
      "chip": "ym2612"
    },
    {
      "channel": 2,
      "note": 52,
      "start": 53.5025,
      "duration": 0.0162,
      "velocity": 100,
      "chip": "ym2612"
    },
    {
      "channel": 0,
      "note": 40,
      "start": 53.5154,
      "duration": 0.0163,
      "velocity": 115,
      "chip": "ym2612"
    },
    {
      "channel": 4,
      "note": 61,
      "start": 53.5165,
      "duration": 0.0163,
      "velocity": 120,
      "chip": "ym2612"
    },
    {
      "channel": 3,
      "note": 68,
      "start": 53.5177,
      "duration": 0.0163,
      "velocity": 120,
      "chip": "ym2612"
    },
    {
      "channel": 2,
      "note": 52,
      "start": 53.5188,
      "duration": 0.0163,
      "velocity": 100,
      "chip": "ym2612"
    },
    {
      "channel": 0,
      "note": 40,
      "start": 53.5317,
      "duration": 0.0157,
      "velocity": 115,
      "chip": "ym2612"
    },
    {
      "channel": 4,
      "note": 61,
      "start": 53.5328,
      "duration": 0.0157,
      "velocity": 120,
      "chip": "ym2612"
    },
    {
      "channel": 3,
      "note": 68,
      "start": 53.534,
      "duration": 0.0157,
      "velocity": 120,
      "chip": "ym2612"
    },
    {
      "channel": 2,
      "note": 52,
      "start": 53.5351,
      "duration": 0.0157,
      "velocity": 100,
      "chip": "ym2612"
    },
    {
      "channel": 0,
      "note": 41,
      "start": 53.5474,
      "duration": 0.018,
      "velocity": 115,
      "chip": "ym2612"
    },
    {
      "channel": 4,
      "note": 61,
      "start": 53.5485,
      "duration": 0.0182,
      "velocity": 120,
      "chip": "ym2612"
    },
    {
      "channel": 3,
      "note": 68,
      "start": 53.5497,
      "duration": 0.0184,
      "velocity": 120,
      "chip": "ym2612"
    },
    {
      "channel": 2,
      "note": 52,
      "start": 53.5508,
      "duration": 0.0188,
      "velocity": 100,
      "chip": "ym2612"
    },
    {
      "channel": 0,
      "note": 41,
      "start": 53.5654,
      "duration": 0.0167,
      "velocity": 115,
      "chip": "ym2612"
    },
    {
      "channel": 4,
      "note": 61,
      "start": 53.5668,
      "duration": 0.0165,
      "velocity": 120,
      "chip": "ym2612"
    },
    {
      "channel": 3,
      "note": 68,
      "start": 53.5682,
      "duration": 0.0162,
      "velocity": 120,
      "chip": "ym2612"
    },
    {
      "channel": 2,
      "note": 52,
      "start": 53.5697,
      "duration": 0.016,
      "velocity": 100,
      "chip": "ym2612"
    },
    {
      "channel": 0,
      "note": 42,
      "start": 53.5821,
      "duration": 0.016,
      "velocity": 115,
      "chip": "ym2612"
    },
    {
      "channel": 4,
      "note": 61,
      "start": 53.5833,
      "duration": 0.016,
      "velocity": 120,
      "chip": "ym2612"
    },
    {
      "channel": 3,
      "note": 68,
      "start": 53.5844,
      "duration": 0.016,
      "velocity": 120,
      "chip": "ym2612"
    },
    {
      "channel": 2,
      "note": 52,
      "start": 53.5856,
      "duration": 0.0159,
      "velocity": 100,
      "chip": "ym2612"
    },
    {
      "channel": 0,
      "note": 42,
      "start": 53.5981,
      "duration": 0.0141,
      "velocity": 115,
      "chip": "ym2612"
    },
    {
      "channel": 4,
      "note": 61,
      "start": 53.5992,
      "duration": 0.0141,
      "velocity": 120,
      "chip": "ym2612"
    },
    {
      "channel": 3,
      "note": 68,
      "start": 53.6004,
      "duration": 0.0141,
      "velocity": 120,
      "chip": "ym2612"
    },
    {
      "channel": 2,
      "note": 52,
      "start": 53.6015,
      "duration": 0.014,
      "velocity": 100,
      "chip": "ym2612"
    },
    {
      "channel": 0,
      "note": 43,
      "start": 53.6122,
      "duration": 0.0185,
      "velocity": 115,
      "chip": "ym2612"
    },
    {
      "channel": 4,
      "note": 61,
      "start": 53.6133,
      "duration": 0.0185,
      "velocity": 120,
      "chip": "ym2612"
    },
    {
      "channel": 3,
      "note": 68,
      "start": 53.6144,
      "duration": 0.0185,
      "velocity": 120,
      "chip": "ym2612"
    },
    {
      "channel": 2,
      "note": 52,
      "start": 53.6155,
      "duration": 0.0186,
      "velocity": 100,
      "chip": "ym2612"
    },
    {
      "channel": 0,
      "note": 43,
      "start": 53.6307,
      "duration": 0.0161,
      "velocity": 115,
      "chip": "ym2612"
    },
    {
      "channel": 4,
      "note": 61,
      "start": 53.6318,
      "duration": 0.0161,
      "velocity": 120,
      "chip": "ym2612"
    },
    {
      "channel": 3,
      "note": 68,
      "start": 53.6329,
      "duration": 0.0161,
      "velocity": 120,
      "chip": "ym2612"
    },
    {
      "channel": 2,
      "note": 52,
      "start": 53.6341,
      "duration": 0.0161,
      "velocity": 100,
      "chip": "ym2612"
    },
    {
      "channel": 0,
      "note": 44,
      "start": 53.6468,
      "duration": 0.0134,
      "velocity": 115,
      "chip": "ym2612"
    },
    {
      "channel": 4,
      "note": 61,
      "start": 53.6479,
      "duration": 0.0158,
      "velocity": 120,
      "chip": "ym2612"
    },
    {
      "channel": 3,
      "note": 68,
      "start": 53.649,
      "duration": 0.0157,
      "velocity": 120,
      "chip": "ym2612"
    },
    {
      "channel": 2,
      "note": 52,
      "start": 53.6502,
      "duration": 0.0157,
      "velocity": 100,
      "chip": "ym2612"
    },
    {
      "channel": 0,
      "note": 44,
      "start": 53.6601,
      "duration": 0.0161,
      "velocity": 115,
      "chip": "ym2612"
    },
    {
      "channel": 4,
      "note": 61,
      "start": 53.6637,
      "duration": 0.0138,
      "velocity": 120,
      "chip": "ym2612"
    },
    {
      "channel": 3,
      "note": 68,
      "start": 53.6648,
      "duration": 0.0141,
      "velocity": 120,
      "chip": "ym2612"
    },
    {
      "channel": 2,
      "note": 52,
      "start": 53.6659,
      "duration": 0.0141,
      "velocity": 100,
      "chip": "ym2612"
    },
    {
      "channel": 0,
      "note": 44,
      "start": 53.6762,
      "duration": 0.0161,
      "velocity": 115,
      "chip": "ym2612"
    },
    {
      "channel": 4,
      "note": 61,
      "start": 53.6775,
      "duration": 0.016,
      "velocity": 120,
      "chip": "ym2612"
    },
    {
      "channel": 3,
      "note": 68,
      "start": 53.6788,
      "duration": 0.0185,
      "velocity": 120,
      "chip": "ym2612"
    },
    {
      "channel": 2,
      "note": 52,
      "start": 53.68,
      "duration": 0.0185,
      "velocity": 100,
      "chip": "ym2612"
    },
    {
      "channel": 0,
      "note": 45,
      "start": 53.6923,
      "duration": 0.0161,
      "velocity": 115,
      "chip": "ym2612"
    },
    {
      "channel": 4,
      "note": 61,
      "start": 53.6934,
      "duration": 0.0161,
      "velocity": 120,
      "chip": "ym2612"
    },
    {
      "channel": 3,
      "note": 68,
      "start": 53.6973,
      "duration": 0.0161,
      "velocity": 120,
      "chip": "ym2612"
    },
    {
      "channel": 2,
      "note": 52,
      "start": 53.6985,
      "duration": 0.0161,
      "velocity": 100,
      "chip": "ym2612"
    },
    {
      "channel": 0,
      "note": 45,
      "start": 53.7084,
      "duration": 0.0162,
      "velocity": 115,
      "chip": "ym2612"
    },
    {
      "channel": 4,
      "note": 61,
      "start": 53.7095,
      "duration": 0.0161,
      "velocity": 120,
      "chip": "ym2612"
    },
    {
      "channel": 3,
      "note": 68,
      "start": 53.7134,
      "duration": 0.0134,
      "velocity": 120,
      "chip": "ym2612"
    },
    {
      "channel": 2,
      "note": 52,
      "start": 53.7146,
      "duration": 0.0158,
      "velocity": 100,
      "chip": "ym2612"
    },
    {
      "channel": 0,
      "note": 46,
      "start": 53.7246,
      "duration": 0.0161,
      "velocity": 115,
      "chip": "ym2612"
    },
    {
      "channel": 4,
      "note": 61,
      "start": 53.7257,
      "duration": 0.0161,
      "velocity": 120,
      "chip": "ym2612"
    },
    {
      "channel": 3,
      "note": 68,
      "start": 53.7268,
      "duration": 0.0161,
      "velocity": 120,
      "chip": "ym2612"
    },
    {
      "channel": 2,
      "note": 52,
      "start": 53.7303,
      "duration": 0.0139,
      "velocity": 100,
      "chip": "ym2612"
    },
    {
      "channel": 0,
      "note": 46,
      "start": 53.7407,
      "duration": 0.0178,
      "velocity": 124,
      "chip": "ym2612"
    },
    {
      "channel": 4,
      "note": 61,
      "start": 53.7418,
      "duration": 0.0181,
      "velocity": 120,
      "chip": "ym2612"
    },
    {
      "channel": 3,
      "note": 68,
      "start": 53.7429,
      "duration": 0.0211,
      "velocity": 120,
      "chip": "ym2612"
    },
    {
      "channel": 2,
      "note": 52,
      "start": 53.7442,
      "duration": 0.0213,
      "velocity": 100,
      "chip": "ym2612"
    },
    {
      "channel": 0,
      "note": 84,
      "start": 53.7585,
      "duration": 0.0144,
      "velocity": 124,
      "chip": "ym2612"
    },
    {
      "channel": 4,
      "note": 61,
      "start": 53.7599,
      "duration": 0.0142,
      "velocity": 120,
      "chip": "ym2612"
    },
    {
      "channel": 3,
      "note": 68,
      "start": 53.7641,
      "duration": 0.0112,
      "velocity": 120,
      "chip": "ym2612"
    },
    {
      "channel": 2,
      "note": 52,
      "start": 53.7655,
      "duration": 0.011,
      "velocity": 100,
      "chip": "ym2612"
    },
    {
      "channel": 0,
      "note": 82,
      "start": 53.7729,
      "duration": 0.016,
      "velocity": 124,
      "chip": "ym2612"
    },
    {
      "channel": 4,
      "note": 61,
      "start": 53.7741,
      "duration": 0.016,
      "velocity": 120,
      "chip": "ym2612"
    },
    {
      "channel": 3,
      "note": 68,
      "start": 53.7753,
      "duration": 0.016,
      "velocity": 120,
      "chip": "ym2612"
    },
    {
      "channel": 2,
      "note": 52,
      "start": 53.7765,
      "duration": 0.0159,
      "velocity": 100,
      "chip": "ym2612"
    },
    {
      "channel": 0,
      "note": 80,
      "start": 53.7889,
      "duration": 0.0161,
      "velocity": 124,
      "chip": "ym2612"
    },
    {
      "channel": 4,
      "note": 61,
      "start": 53.7901,
      "duration": 0.0161,
      "velocity": 120,
      "chip": "ym2612"
    },
    {
      "channel": 3,
      "note": 68,
      "start": 53.7912,
      "duration": 0.0161,
      "velocity": 120,
      "chip": "ym2612"
    },
    {
      "channel": 2,
      "note": 52,
      "start": 53.7924,
      "duration": 0.0161,
      "velocity": 100,
      "chip": "ym2612"
    },
    {
      "channel": 0,
      "note": 77,
      "start": 53.805,
      "duration": 0.0161,
      "velocity": 124,
      "chip": "ym2612"
    },
    {
      "channel": 4,
      "note": 61,
      "start": 53.8062,
      "duration": 0.0161,
      "velocity": 120,
      "chip": "ym2612"
    },
    {
      "channel": 3,
      "note": 68,
      "start": 53.8073,
      "duration": 0.0161,
      "velocity": 120,
      "chip": "ym2612"
    },
    {
      "channel": 2,
      "note": 52,
      "start": 53.8085,
      "duration": 0.0161,
      "velocity": 100,
      "chip": "ym2612"
    },
    {
      "channel": 0,
      "note": 75,
      "start": 53.8211,
      "duration": 0.0161,
      "velocity": 124,
      "chip": "ym2612"
    },
    {
      "channel": 4,
      "note": 61,
      "start": 53.8223,
      "duration": 0.0161,
      "velocity": 120,
      "chip": "ym2612"
    },
    {
      "channel": 3,
      "note": 68,
      "start": 53.8234,
      "duration": 0.0161,
      "velocity": 120,
      "chip": "ym2612"
    },
    {
      "channel": 2,
      "note": 52,
      "start": 53.8246,
      "duration": 0.0161,
      "velocity": 100,
      "chip": "ym2612"
    },
    {
      "channel": 0,
      "note": 72,
      "start": 53.8372,
      "duration": 0.0161,
      "velocity": 124,
      "chip": "ym2612"
    },
    {
      "channel": 4,
      "note": 61,
      "start": 53.8384,
      "duration": 0.0161,
      "velocity": 120,
      "chip": "ym2612"
    },
    {
      "channel": 3,
      "note": 68,
      "start": 53.8395,
      "duration": 0.0161,
      "velocity": 120,
      "chip": "ym2612"
    },
    {
      "channel": 2,
      "note": 52,
      "start": 53.8407,
      "duration": 0.0161,
      "velocity": 100,
      "chip": "ym2612"
    },
    {
      "channel": 0,
      "note": 70,
      "start": 53.8533,
      "duration": 0.0161,
      "velocity": 124,
      "chip": "ym2612"
    },
    {
      "channel": 4,
      "note": 61,
      "start": 53.8544,
      "duration": 0.0162,
      "velocity": 120,
      "chip": "ym2612"
    },
    {
      "channel": 3,
      "note": 68,
      "start": 53.8556,
      "duration": 0.0161,
      "velocity": 120,
      "chip": "ym2612"
    },
    {
      "channel": 2,
      "note": 52,
      "start": 53.8567,
      "duration": 0.0161,
      "velocity": 100,
      "chip": "ym2612"
    },
    {
      "channel": 0,
      "note": 68,
      "start": 53.8695,
      "duration": 0.0161,
      "velocity": 124,
      "chip": "ym2612"
    },
    {
      "channel": 4,
      "note": 61,
      "start": 53.8706,
      "duration": 0.0161,
      "velocity": 120,
      "chip": "ym2612"
    },
    {
      "channel": 3,
      "note": 68,
      "start": 53.8717,
      "duration": 0.0161,
      "velocity": 120,
      "chip": "ym2612"
    },
    {
      "channel": 2,
      "note": 52,
      "start": 53.8728,
      "duration": 0.0161,
      "velocity": 100,
      "chip": "ym2612"
    },
    {
      "channel": 0,
      "note": 65,
      "start": 53.8856,
      "duration": 0.0161,
      "velocity": 124,
      "chip": "ym2612"
    },
    {
      "channel": 4,
      "note": 61,
      "start": 53.8867,
      "duration": 0.0161,
      "velocity": 120,
      "chip": "ym2612"
    },
    {
      "channel": 3,
      "note": 68,
      "start": 53.8878,
      "duration": 0.0161,
      "velocity": 120,
      "chip": "ym2612"
    },
    {
      "channel": 2,
      "note": 52,
      "start": 53.8889,
      "duration": 0.0161,
      "velocity": 100,
      "chip": "ym2612"
    },
    {
      "channel": 0,
      "note": 63,
      "start": 53.9017,
      "duration": 0.0153,
      "velocity": 1,
      "chip": "ym2612"
    },
    {
      "channel": 4,
      "note": 61,
      "start": 53.9028,
      "duration": 0.0153,
      "velocity": 120,
      "chip": "ym2612"
    },
    {
      "channel": 3,
      "note": 68,
      "start": 53.9039,
      "duration": 0.0153,
      "velocity": 120,
      "chip": "ym2612"
    },
    {
      "channel": 2,
      "note": 52,
      "start": 53.905,
      "duration": 0.0153,
      "velocity": 100,
      "chip": "ym2612"
    },
    {
      "channel": 4,
      "note": 61,
      "start": 53.9181,
      "duration": 0.0153,
      "velocity": 120,
      "chip": "ym2612"
    },
    {
      "channel": 3,
      "note": 68,
      "start": 53.9192,
      "duration": 0.0153,
      "velocity": 120,
      "chip": "ym2612"
    },
    {
      "channel": 2,
      "note": 52,
      "start": 53.9204,
      "duration": 0.0153,
      "velocity": 100,
      "chip": "ym2612"
    },
    {
      "channel": 4,
      "note": 61,
      "start": 53.9333,
      "duration": 0.0163,
      "velocity": 120,
      "chip": "ym2612"
    },
    {
      "channel": 3,
      "note": 68,
      "start": 53.9345,
      "duration": 0.0166,
      "velocity": 120,
      "chip": "ym2612"
    },
    {
      "channel": 2,
      "note": 52,
      "start": 53.9356,
      "duration": 0.0168,
      "velocity": 100,
      "chip": "ym2612"
    },
    {
      "channel": 4,
      "note": 59,
      "start": 53.9497,
      "duration": 0.0159,
      "velocity": 120,
      "chip": "ym2612"
    },
    {
      "channel": 3,
      "note": 66,
      "start": 53.9511,
      "duration": 0.0157,
      "velocity": 120,
      "chip": "ym2612"
    },
    {
      "channel": 2,
      "note": 52,
      "start": 53.9525,
      "duration": 0.0155,
      "velocity": 100,
      "chip": "ym2612"
    },
    {
      "channel": 4,
      "note": 59,
      "start": 53.9656,
      "duration": 0.0161,
      "velocity": 120,
      "chip": "ym2612"
    },
    {
      "channel": 3,
      "note": 66,
      "start": 53.9668,
      "duration": 0.016,
      "velocity": 120,
      "chip": "ym2612"
    },
    {
      "channel": 2,
      "note": 52,
      "start": 53.968,
      "duration": 0.0159,
      "velocity": 100,
      "chip": "ym2612"
    },
    {
      "channel": 4,
      "note": 59,
      "start": 53.9817,
      "duration": 0.0162,
      "velocity": 120,
      "chip": "ym2612"
    },
    {
      "channel": 3,
      "note": 66,
      "start": 53.9828,
      "duration": 0.0162,
      "velocity": 120,
      "chip": "ym2612"
    },
    {
      "channel": 2,
      "note": 52,
      "start": 53.9839,
      "duration": 0.0162,
      "velocity": 100,
      "chip": "ym2612"
    },
    {
      "channel": 4,
      "note": 59,
      "start": 53.9978,
      "duration": 0.016,
      "velocity": 120,
      "chip": "ym2612"
    },
    {
      "channel": 3,
      "note": 66,
      "start": 53.999,
      "duration": 0.016,
      "velocity": 120,
      "chip": "ym2612"
    },
    {
      "channel": 2,
      "note": 52,
      "start": 54.0001,
      "duration": 0.016,
      "velocity": 100,
      "chip": "ym2612"
    },
    {
      "channel": 4,
      "note": 59,
      "start": 54.0139,
      "duration": 0.0177,
      "velocity": 120,
      "chip": "ym2612"
    },
    {
      "channel": 3,
      "note": 66,
      "start": 54.015,
      "duration": 0.0177,
      "velocity": 120,
      "chip": "ym2612"
    },
    {
      "channel": 2,
      "note": 52,
      "start": 54.0161,
      "duration": 0.0177,
      "velocity": 100,
      "chip": "ym2612"
    },
    {
      "channel": 4,
      "note": 59,
      "start": 54.0315,
      "duration": 0.0167,
      "velocity": 120,
      "chip": "ym2612"
    },
    {
      "channel": 3,
      "note": 66,
      "start": 54.0327,
      "duration": 0.0167,
      "velocity": 120,
      "chip": "ym2612"
    },
    {
      "channel": 2,
      "note": 52,
      "start": 54.0338,
      "duration": 0.0167,
      "velocity": 100,
      "chip": "ym2612"
    },
    {
      "channel": 4,
      "note": 59,
      "start": 54.0482,
      "duration": 0.0163,
      "velocity": 120,
      "chip": "ym2612"
    },
    {
      "channel": 3,
      "note": 66,
      "start": 54.0494,
      "duration": 0.0163,
      "velocity": 120,
      "chip": "ym2612"
    },
    {
      "channel": 2,
      "note": 52,
      "start": 54.0505,
      "duration": 0.0163,
      "velocity": 100,
      "chip": "ym2612"
    },
    {
      "channel": 4,
      "note": 59,
      "start": 54.0645,
      "duration": 0.0141,
      "velocity": 120,
      "chip": "ym2612"
    },
    {
      "channel": 3,
      "note": 66,
      "start": 54.0656,
      "duration": 0.0141,
      "velocity": 120,
      "chip": "ym2612"
    },
    {
      "channel": 2,
      "note": 52,
      "start": 54.0668,
      "duration": 0.0141,
      "velocity": 100,
      "chip": "ym2612"
    },
    {
      "channel": 4,
      "note": 59,
      "start": 54.0786,
      "duration": 0.0185,
      "velocity": 120,
      "chip": "ym2612"
    },
    {
      "channel": 3,
      "note": 66,
      "start": 54.0797,
      "duration": 0.0185,
      "velocity": 120,
      "chip": "ym2612"
    },
    {
      "channel": 2,
      "note": 52,
      "start": 54.0809,
      "duration": 0.0185,
      "velocity": 100,
      "chip": "ym2612"
    },
    {
      "channel": 4,
      "note": 59,
      "start": 54.0971,
      "duration": 0.0134,
      "velocity": 120,
      "chip": "ym2612"
    },
    {
      "channel": 3,
      "note": 66,
      "start": 54.0982,
      "duration": 0.0161,
      "velocity": 120,
      "chip": "ym2612"
    },
    {
      "channel": 2,
      "note": 52,
      "start": 54.0994,
      "duration": 0.0161,
      "velocity": 100,
      "chip": "ym2612"
    },
    {
      "channel": 4,
      "note": 59,
      "start": 54.1104,
      "duration": 0.0162,
      "velocity": 120,
      "chip": "ym2612"
    },
    {
      "channel": 3,
      "note": 66,
      "start": 54.1143,
      "duration": 0.0158,
      "velocity": 120,
      "chip": "ym2612"
    },
    {
      "channel": 2,
      "note": 52,
      "start": 54.1155,
      "duration": 0.0158,
      "velocity": 100,
      "chip": "ym2612"
    },
    {
      "channel": 4,
      "note": 59,
      "start": 54.1266,
      "duration": 0.02,
      "velocity": 120,
      "chip": "ym2612"
    },
    {
      "channel": 3,
      "note": 66,
      "start": 54.1301,
      "duration": 0.0179,
      "velocity": 120,
      "chip": "ym2612"
    },
    {
      "channel": 2,
      "note": 52,
      "start": 54.1312,
      "duration": 0.0183,
      "velocity": 100,
      "chip": "ym2612"
    },
    {
      "channel": 0,
      "note": 36,
      "start": 54.1453,
      "duration": 0.014,
      "velocity": 115,
      "chip": "ym2612"
    },
    {
      "channel": 4,
      "note": 59,
      "start": 54.1467,
      "duration": 0.0138,
      "velocity": 120,
      "chip": "ym2612"
    },
    {
      "channel": 3,
      "note": 66,
      "start": 54.1481,
      "duration": 0.0163,
      "velocity": 120,
      "chip": "ym2612"
    },
    {
      "channel": 2,
      "note": 52,
      "start": 54.1495,
      "duration": 0.0161,
      "velocity": 100,
      "chip": "ym2612"
    },
    {
      "channel": 0,
      "note": 36,
      "start": 54.1593,
      "duration": 0.0161,
      "velocity": 115,
      "chip": "ym2612"
    },
    {
      "channel": 4,
      "note": 59,
      "start": 54.1605,
      "duration": 0.016,
      "velocity": 120,
      "chip": "ym2612"
    },
    {
      "channel": 3,
      "note": 66,
      "start": 54.1644,
      "duration": 0.016,
      "velocity": 120,
      "chip": "ym2612"
    },
    {
      "channel": 2,
      "note": 52,
      "start": 54.1656,
      "duration": 0.0159,
      "velocity": 100,
      "chip": "ym2612"
    },
    {
      "channel": 0,
      "note": 37,
      "start": 54.1754,
      "duration": 0.0161,
      "velocity": 115,
      "chip": "ym2612"
    },
    {
      "channel": 4,
      "note": 59,
      "start": 54.1765,
      "duration": 0.0161,
      "velocity": 120,
      "chip": "ym2612"
    },
    {
      "channel": 3,
      "note": 66,
      "start": 54.1804,
      "duration": 0.0134,
      "velocity": 120,
      "chip": "ym2612"
    },
    {
      "channel": 2,
      "note": 52,
      "start": 54.1815,
      "duration": 0.0157,
      "velocity": 100,
      "chip": "ym2612"
    },
    {
      "channel": 0,
      "note": 37,
      "start": 54.1915,
      "duration": 0.0161,
      "velocity": 115,
      "chip": "ym2612"
    },
    {
      "channel": 4,
      "note": 59,
      "start": 54.1926,
      "duration": 0.0161,
      "velocity": 120,
      "chip": "ym2612"
    },
    {
      "channel": 3,
      "note": 66,
      "start": 54.1938,
      "duration": 0.0161,
      "velocity": 120,
      "chip": "ym2612"
    },
    {
      "channel": 2,
      "note": 52,
      "start": 54.1973,
      "duration": 0.0141,
      "velocity": 100,
      "chip": "ym2612"
    },
    {
      "channel": 0,
      "note": 38,
      "start": 54.2076,
      "duration": 0.0161,
      "velocity": 115,
      "chip": "ym2612"
    },
    {
      "channel": 4,
      "note": 59,
      "start": 54.2087,
      "duration": 0.0161,
      "velocity": 120,
      "chip": "ym2612"
    },
    {
      "channel": 3,
      "note": 66,
      "start": 54.2099,
      "duration": 0.0161,
      "velocity": 120,
      "chip": "ym2612"
    },
    {
      "channel": 2,
      "note": 52,
      "start": 54.2113,
      "duration": 0.0158,
      "velocity": 100,
      "chip": "ym2612"
    },
    {
      "channel": 0,
      "note": 38,
      "start": 54.2237,
      "duration": 0.0161,
      "velocity": 115,
      "chip": "ym2612"
    },
    {
      "channel": 4,
      "note": 59,
      "start": 54.2248,
      "duration": 0.0161,
      "velocity": 120,
      "chip": "ym2612"
    },
    {
      "channel": 3,
      "note": 66,
      "start": 54.226,
      "duration": 0.0161,
      "velocity": 120,
      "chip": "ym2612"
    },
    {
      "channel": 2,
      "note": 52,
      "start": 54.2271,
      "duration": 0.0161,
      "velocity": 100,
      "chip": "ym2612"
    },
    {
      "channel": 0,
      "note": 39,
      "start": 54.2398,
      "duration": 0.0161,
      "velocity": 115,
      "chip": "ym2612"
    },
    {
      "channel": 4,
      "note": 59,
      "start": 54.2409,
      "duration": 0.0161,
      "velocity": 120,
      "chip": "ym2612"
    },
    {
      "channel": 3,
      "note": 66,
      "start": 54.242,
      "duration": 0.0161,
      "velocity": 120,
      "chip": "ym2612"
    },
    {
      "channel": 2,
      "note": 52,
      "start": 54.2432,
      "duration": 0.0161,
      "velocity": 100,
      "chip": "ym2612"
    },
    {
      "channel": 0,
      "note": 39,
      "start": 54.2559,
      "duration": 0.0161,
      "velocity": 115,
      "chip": "ym2612"
    },
    {
      "channel": 4,
      "note": 59,
      "start": 54.257,
      "duration": 0.0161,
      "velocity": 120,
      "chip": "ym2612"
    },
    {
      "channel": 3,
      "note": 66,
      "start": 54.2581,
      "duration": 0.0161,
      "velocity": 120,
      "chip": "ym2612"
    },
    {
      "channel": 2,
      "note": 52,
      "start": 54.2593,
      "duration": 0.0161,
      "velocity": 100,
      "chip": "ym2612"
    },
    {
      "channel": 0,
      "note": 40,
      "start": 54.272,
      "duration": 0.0161,
      "velocity": 115,
      "chip": "ym2612"
    },
    {
      "channel": 4,
      "note": 59,
      "start": 54.2731,
      "duration": 0.0161,
      "velocity": 120,
      "chip": "ym2612"
    },
    {
      "channel": 3,
      "note": 66,
      "start": 54.2742,
      "duration": 0.0161,
      "velocity": 120,
      "chip": "ym2612"
    },
    {
      "channel": 2,
      "note": 52,
      "start": 54.2754,
      "duration": 0.0161,
      "velocity": 100,
      "chip": "ym2612"
    },
    {
      "channel": 0,
      "note": 40,
      "start": 54.288,
      "duration": 0.0161,
      "velocity": 115,
      "chip": "ym2612"
    },
    {
      "channel": 4,
      "note": 59,
      "start": 54.2892,
      "duration": 0.0162,
      "velocity": 120,
      "chip": "ym2612"
    },
    {
      "channel": 3,
      "note": 66,
      "start": 54.2903,
      "duration": 0.0161,
      "velocity": 120,
      "chip": "ym2612"
    },
    {
      "channel": 2,
      "note": 52,
      "start": 54.2915,
      "duration": 0.0161,
      "velocity": 100,
      "chip": "ym2612"
    },
    {
      "channel": 0,
      "note": 40,
      "start": 54.3042,
      "duration": 0.016,
      "velocity": 115,
      "chip": "ym2612"
    },
    {
      "channel": 4,
      "note": 59,
      "start": 54.3054,
      "duration": 0.0161,
      "velocity": 120,
      "chip": "ym2612"
    },
    {
      "channel": 3,
      "note": 66,
      "start": 54.3065,
      "duration": 0.016,
      "velocity": 120,
      "chip": "ym2612"
    },
    {
      "channel": 2,
      "note": 52,
      "start": 54.3076,
      "duration": 0.0161,
      "velocity": 100,
      "chip": "ym2612"
    },
    {
      "channel": 0,
      "note": 41,
      "start": 54.3202,
      "duration": 0.0162,
      "velocity": 115,
      "chip": "ym2612"
    },
    {
      "channel": 4,
      "note": 59,
      "start": 54.3214,
      "duration": 0.0163,
      "velocity": 120,
      "chip": "ym2612"
    },
    {
      "channel": 3,
      "note": 66,
      "start": 54.3225,
      "duration": 0.0166,
      "velocity": 120,
      "chip": "ym2612"
    },
    {
      "channel": 2,
      "note": 52,
      "start": 54.3237,
      "duration": 0.0169,
      "velocity": 100,
      "chip": "ym2612"
    },
    {
      "channel": 0,
      "note": 41,
      "start": 54.3364,
      "duration": 0.0161,
      "velocity": 115,
      "chip": "ym2612"
    },
    {
      "channel": 4,
      "note": 59,
      "start": 54.3378,
      "duration": 0.0159,
      "velocity": 120,
      "chip": "ym2612"
    },
    {
      "channel": 3,
      "note": 66,
      "start": 54.3392,
      "duration": 0.0157,
      "velocity": 120,
      "chip": "ym2612"
    },
    {
      "channel": 2,
      "note": 52,
      "start": 54.3407,
      "duration": 0.0154,
      "velocity": 100,
      "chip": "ym2612"
    },
    {
      "channel": 0,
      "note": 42,
      "start": 54.3525,
      "duration": 0.0161,
      "velocity": 115,
      "chip": "ym2612"
    },
    {
      "channel": 4,
      "note": 59,
      "start": 54.3537,
      "duration": 0.016,
      "velocity": 120,
      "chip": "ym2612"
    },
    {
      "channel": 3,
      "note": 66,
      "start": 54.3549,
      "duration": 0.016,
      "velocity": 120,
      "chip": "ym2612"
    },
    {
      "channel": 2,
      "note": 52,
      "start": 54.3561,
      "duration": 0.0159,
      "velocity": 100,
      "chip": "ym2612"
    },
    {
      "channel": 0,
      "note": 42,
      "start": 54.3686,
      "duration": 0.0161,
      "velocity": 115,
      "chip": "ym2612"
    },
    {
      "channel": 4,
      "note": 59,
      "start": 54.3697,
      "duration": 0.0161,
      "velocity": 120,
      "chip": "ym2612"
    },
    {
      "channel": 3,
      "note": 66,
      "start": 54.3709,
      "duration": 0.0161,
      "velocity": 120,
      "chip": "ym2612"
    },
    {
      "channel": 2,
      "note": 52,
      "start": 54.372,
      "duration": 0.0161,
      "velocity": 100,
      "chip": "ym2612"
    },
    {
      "channel": 0,
      "note": 43,
      "start": 54.3847,
      "duration": 0.0161,
      "velocity": 115,
      "chip": "ym2612"
    },
    {
      "channel": 4,
      "note": 59,
      "start": 54.3858,
      "duration": 0.0161,
      "velocity": 120,
      "chip": "ym2612"
    },
    {
      "channel": 3,
      "note": 66,
      "start": 54.387,
      "duration": 0.0161,
      "velocity": 120,
      "chip": "ym2612"
    },
    {
      "channel": 2,
      "note": 52,
      "start": 54.3881,
      "duration": 0.0161,
      "velocity": 100,
      "chip": "ym2612"
    },
    {
      "channel": 0,
      "note": 43,
      "start": 54.4008,
      "duration": 0.0161,
      "velocity": 115,
      "chip": "ym2612"
    },
    {
      "channel": 4,
      "note": 59,
      "start": 54.4019,
      "duration": 0.0161,
      "velocity": 120,
      "chip": "ym2612"
    },
    {
      "channel": 3,
      "note": 66,
      "start": 54.4031,
      "duration": 0.0161,
      "velocity": 120,
      "chip": "ym2612"
    },
    {
      "channel": 2,
      "note": 52,
      "start": 54.4042,
      "duration": 0.0161,
      "velocity": 100,
      "chip": "ym2612"
    },
    {
      "channel": 0,
      "note": 44,
      "start": 54.4168,
      "duration": 0.0161,
      "velocity": 115,
      "chip": "ym2612"
    },
    {
      "channel": 4,
      "note": 59,
      "start": 54.418,
      "duration": 0.0161,
      "velocity": 120,
      "chip": "ym2612"
    },
    {
      "channel": 3,
      "note": 66,
      "start": 54.4191,
      "duration": 0.0161,
      "velocity": 120,
      "chip": "ym2612"
    },
    {
      "channel": 2,
      "note": 52,
      "start": 54.4203,
      "duration": 0.0161,
      "velocity": 100,
      "chip": "ym2612"
    },
    {
      "channel": 0,
      "note": 44,
      "start": 54.4329,
      "duration": 0.0161,
      "velocity": 115,
      "chip": "ym2612"
    },
    {
      "channel": 4,
      "note": 59,
      "start": 54.4341,
      "duration": 0.0161,
      "velocity": 120,
      "chip": "ym2612"
    },
    {
      "channel": 3,
      "note": 66,
      "start": 54.4352,
      "duration": 0.0161,
      "velocity": 120,
      "chip": "ym2612"
    },
    {
      "channel": 2,
      "note": 52,
      "start": 54.4364,
      "duration": 0.0161,
      "velocity": 100,
      "chip": "ym2612"
    },
    {
      "channel": 0,
      "note": 44,
      "start": 54.449,
      "duration": 0.0161,
      "velocity": 115,
      "chip": "ym2612"
    },
    {
      "channel": 4,
      "note": 59,
      "start": 54.4502,
      "duration": 0.0162,
      "velocity": 120,
      "chip": "ym2612"
    },
    {
      "channel": 3,
      "note": 66,
      "start": 54.4513,
      "duration": 0.0161,
      "velocity": 120,
      "chip": "ym2612"
    },
    {
      "channel": 2,
      "note": 52,
      "start": 54.4525,
      "duration": 0.0162,
      "velocity": 100,
      "chip": "ym2612"
    },
    {
      "channel": 0,
      "note": 45,
      "start": 54.4652,
      "duration": 0.0161,
      "velocity": 115,
      "chip": "ym2612"
    },
    {
      "channel": 4,
      "note": 59,
      "start": 54.4663,
      "duration": 0.0161,
      "velocity": 120,
      "chip": "ym2612"
    },
    {
      "channel": 3,
      "note": 66,
      "start": 54.4675,
      "duration": 0.0161,
      "velocity": 120,
      "chip": "ym2612"
    },
    {
      "channel": 2,
      "note": 52,
      "start": 54.4686,
      "duration": 0.016,
      "velocity": 100,
      "chip": "ym2612"
    },
    {
      "channel": 0,
      "note": 45,
      "start": 54.4813,
      "duration": 0.0174,
      "velocity": 115,
      "chip": "ym2612"
    },
    {
      "channel": 4,
      "note": 59,
      "start": 54.4824,
      "duration": 0.0174,
      "velocity": 120,
      "chip": "ym2612"
    },
    {
      "channel": 3,
      "note": 66,
      "start": 54.4836,
      "duration": 0.0174,
      "velocity": 120,
      "chip": "ym2612"
    },
    {
      "channel": 2,
      "note": 52,
      "start": 54.4847,
      "duration": 0.0174,
      "velocity": 100,
      "chip": "ym2612"
    },
    {
      "channel": 0,
      "note": 46,
      "start": 54.4987,
      "duration": 0.0167,
      "velocity": 115,
      "chip": "ym2612"
    },
    {
      "channel": 4,
      "note": 59,
      "start": 54.4999,
      "duration": 0.0167,
      "velocity": 120,
      "chip": "ym2612"
    },
    {
      "channel": 3,
      "note": 66,
      "start": 54.501,
      "duration": 0.0167,
      "velocity": 120,
      "chip": "ym2612"
    },
    {
      "channel": 2,
      "note": 52,
      "start": 54.5021,
      "duration": 0.0167,
      "velocity": 100,
      "chip": "ym2612"
    },
    {
      "channel": 0,
      "note": 46,
      "start": 54.5154,
      "duration": 0.018,
      "velocity": 124,
      "chip": "ym2612"
    },
    {
      "channel": 4,
      "note": 59,
      "start": 54.5165,
      "duration": 0.0183,
      "velocity": 120,
      "chip": "ym2612"
    },
    {
      "channel": 3,
      "note": 66,
      "start": 54.5177,
      "duration": 0.0185,
      "velocity": 120,
      "chip": "ym2612"
    },
    {
      "channel": 2,
      "note": 52,
      "start": 54.5188,
      "duration": 0.0189,
      "velocity": 100,
      "chip": "ym2612"
    },
    {
      "channel": 0,
      "note": 84,
      "start": 54.5335,
      "duration": 0.0126,
      "velocity": 124,
      "chip": "ym2612"
    },
    {
      "channel": 4,
      "note": 59,
      "start": 54.5349,
      "duration": 0.0124,
      "velocity": 120,
      "chip": "ym2612"
    },
    {
      "channel": 3,
      "note": 66,
      "start": 54.5363,
      "duration": 0.0122,
      "velocity": 120,
      "chip": "ym2612"
    },
    {
      "channel": 2,
      "note": 52,
      "start": 54.5377,
      "duration": 0.012,
      "velocity": 100,
      "chip": "ym2612"
    },
    {
      "channel": 0,
      "note": 82,
      "start": 54.5461,
      "duration": 0.0185,
      "velocity": 124,
      "chip": "ym2612"
    },
    {
      "channel": 4,
      "note": 59,
      "start": 54.5473,
      "duration": 0.0185,
      "velocity": 120,
      "chip": "ym2612"
    },
    {
      "channel": 3,
      "note": 66,
      "start": 54.5485,
      "duration": 0.0183,
      "velocity": 120,
      "chip": "ym2612"
    },
    {
      "channel": 2,
      "note": 52,
      "start": 54.5497,
      "duration": 0.0183,
      "velocity": 100,
      "chip": "ym2612"
    },
    {
      "channel": 0,
      "note": 80,
      "start": 54.5645,
      "duration": 0.0161,
      "velocity": 124,
      "chip": "ym2612"
    },
    {
      "channel": 4,
      "note": 59,
      "start": 54.5657,
      "duration": 0.0161,
      "velocity": 120,
      "chip": "ym2612"
    },
    {
      "channel": 3,
      "note": 66,
      "start": 54.5668,
      "duration": 0.0161,
      "velocity": 120,
      "chip": "ym2612"
    },
    {
      "channel": 2,
      "note": 52,
      "start": 54.5679,
      "duration": 0.0161,
      "velocity": 100,
      "chip": "ym2612"
    },
    {
      "channel": 0,
      "note": 77,
      "start": 54.5807,
      "duration": 0.0156,
      "velocity": 124,
      "chip": "ym2612"
    },
    {
      "channel": 4,
      "note": 59,
      "start": 54.5818,
      "duration": 0.0157,
      "velocity": 120,
      "chip": "ym2612"
    },
    {
      "channel": 3,
      "note": 66,
      "start": 54.5829,
      "duration": 0.0157,
      "velocity": 120,
      "chip": "ym2612"
    },
    {
      "channel": 2,
      "note": 52,
      "start": 54.584,
      "duration": 0.0158,
      "velocity": 100,
      "chip": "ym2612"
    },
    {
      "channel": 0,
      "note": 75,
      "start": 54.5963,
      "duration": 0.0138,
      "velocity": 124,
      "chip": "ym2612"
    },
    {
      "channel": 4,
      "note": 59,
      "start": 54.5975,
      "duration": 0.0141,
      "velocity": 120,
      "chip": "ym2612"
    },
    {
      "channel": 3,
      "note": 66,
      "start": 54.5987,
      "duration": 0.0141,
      "velocity": 120,
      "chip": "ym2612"
    },
    {
      "channel": 2,
      "note": 52,
      "start": 54.5998,
      "duration": 0.014,
      "velocity": 100,
      "chip": "ym2612"
    },
    {
      "channel": 0,
      "note": 72,
      "start": 54.6101,
      "duration": 0.0161,
      "velocity": 124,
      "chip": "ym2612"
    },
    {
      "channel": 4,
      "note": 59,
      "start": 54.6116,
      "duration": 0.0185,
      "velocity": 120,
      "chip": "ym2612"
    },
    {
      "channel": 3,
      "note": 66,
      "start": 54.6127,
      "duration": 0.0185,
      "velocity": 120,
      "chip": "ym2612"
    },
    {
      "channel": 2,
      "note": 52,
      "start": 54.6138,
      "duration": 0.0186,
      "velocity": 100,
      "chip": "ym2612"
    },
    {
      "channel": 0,
      "note": 70,
      "start": 54.6262,
      "duration": 0.0161,
      "velocity": 124,
      "chip": "ym2612"
    },
    {
      "channel": 4,
      "note": 59,
      "start": 54.6301,
      "duration": 0.0134,
      "velocity": 120,
      "chip": "ym2612"
    },
    {
      "channel": 3,
      "note": 66,
      "start": 54.6312,
      "duration": 0.0161,
      "velocity": 120,
      "chip": "ym2612"
    },
    {
      "channel": 2,
      "note": 52,
      "start": 54.6324,
      "duration": 0.0161,
      "velocity": 100,
      "chip": "ym2612"
    },
    {
      "channel": 0,
      "note": 68,
      "start": 54.6423,
      "duration": 0.0161,
      "velocity": 124,
      "chip": "ym2612"
    },
    {
      "channel": 4,
      "note": 59,
      "start": 54.6434,
      "duration": 0.0161,
      "velocity": 120,
      "chip": "ym2612"
    },
    {
      "channel": 3,
      "note": 66,
      "start": 54.6473,
      "duration": 0.0157,
      "velocity": 120,
      "chip": "ym2612"
    },
    {
      "channel": 2,
      "note": 52,
      "start": 54.6485,
      "duration": 0.0157,
      "velocity": 100,
      "chip": "ym2612"
    },
    {
      "channel": 0,
      "note": 65,
      "start": 54.6584,
      "duration": 0.0161,
      "velocity": 124,
      "chip": "ym2612"
    },
    {
      "channel": 4,
      "note": 59,
      "start": 54.6595,
      "duration": 0.0161,
      "velocity": 120,
      "chip": "ym2612"
    },
    {
      "channel": 3,
      "note": 66,
      "start": 54.663,
      "duration": 0.0137,
      "velocity": 120,
      "chip": "ym2612"
    },
    {
      "channel": 2,
      "note": 52,
      "start": 54.6642,
      "duration": 0.0141,
      "velocity": 100,
      "chip": "ym2612"
    },
    {
      "channel": 0,
      "note": 63,
      "start": 54.6745,
      "duration": 0.0153,
      "velocity": 1,
      "chip": "ym2612"
    },
    {
      "channel": 4,
      "note": 59,
      "start": 54.6756,
      "duration": 0.0154,
      "velocity": 120,
      "chip": "ym2612"
    },
    {
      "channel": 3,
      "note": 66,
      "start": 54.6768,
      "duration": 0.0153,
      "velocity": 120,
      "chip": "ym2612"
    },
    {
      "channel": 2,
      "note": 52,
      "start": 54.6783,
      "duration": 0.0149,
      "velocity": 100,
      "chip": "ym2612"
    },
    {
      "channel": 4,
      "note": 59,
      "start": 54.691,
      "duration": 0.0152,
      "velocity": 120,
      "chip": "ym2612"
    },
    {
      "channel": 3,
      "note": 66,
      "start": 54.692,
      "duration": 0.0153,
      "velocity": 120,
      "chip": "ym2612"
    },
    {
      "channel": 2,
      "note": 52,
      "start": 54.6932,
      "duration": 0.0153,
      "velocity": 100,
      "chip": "ym2612"
    },
    {
      "channel": 4,
      "note": 59,
      "start": 54.7062,
      "duration": 0.0198,
      "velocity": 120,
      "chip": "ym2612"
    },
    {
      "channel": 3,
      "note": 66,
      "start": 54.7073,
      "duration": 0.0224,
      "velocity": 120,
      "chip": "ym2612"
    },
    {
      "channel": 2,
      "note": 52,
      "start": 54.7085,
      "duration": 0.0227,
      "velocity": 100,
      "chip": "ym2612"
    },
    {
      "channel": 0,
      "note": 36,
      "start": 54.7246,
      "duration": 0.0144,
      "velocity": 115,
      "chip": "ym2612"
    },
    {
      "channel": 4,
      "note": 59,
      "start": 54.726,
      "duration": 0.0141,
      "velocity": 120,
      "chip": "ym2612"
    },
    {
      "channel": 3,
      "note": 66,
      "start": 54.7298,
      "duration": 0.0116,
      "velocity": 120,
      "chip": "ym2612"
    },
    {
      "channel": 2,
      "note": 52,
      "start": 54.7312,
      "duration": 0.0113,
      "velocity": 100,
      "chip": "ym2612"
    },
    {
      "channel": 0,
      "note": 36,
      "start": 54.7389,
      "duration": 0.0161,
      "velocity": 115,
      "chip": "ym2612"
    },
    {
      "channel": 4,
      "note": 59,
      "start": 54.7401,
      "duration": 0.016,
      "velocity": 120,
      "chip": "ym2612"
    },
    {
      "channel": 3,
      "note": 66,
      "start": 54.7413,
      "duration": 0.016,
      "velocity": 120,
      "chip": "ym2612"
    },
    {
      "channel": 2,
      "note": 52,
      "start": 54.7426,
      "duration": 0.0158,
      "velocity": 100,
      "chip": "ym2612"
    },
    {
      "channel": 0,
      "note": 37,
      "start": 54.755,
      "duration": 0.0161,
      "velocity": 115,
      "chip": "ym2612"
    },
    {
      "channel": 4,
      "note": 59,
      "start": 54.7562,
      "duration": 0.0161,
      "velocity": 120,
      "chip": "ym2612"
    },
    {
      "channel": 3,
      "note": 66,
      "start": 54.7573,
      "duration": 0.0161,
      "velocity": 120,
      "chip": "ym2612"
    },
    {
      "channel": 2,
      "note": 52,
      "start": 54.7584,
      "duration": 0.0161,
      "velocity": 100,
      "chip": "ym2612"
    },
    {
      "channel": 0,
      "note": 37,
      "start": 54.7711,
      "duration": 0.0161,
      "velocity": 115,
      "chip": "ym2612"
    },
    {
      "channel": 4,
      "note": 59,
      "start": 54.7723,
      "duration": 0.0161,
      "velocity": 120,
      "chip": "ym2612"
    },
    {
      "channel": 3,
      "note": 66,
      "start": 54.7734,
      "duration": 0.0161,
      "velocity": 120,
      "chip": "ym2612"
    },
    {
      "channel": 2,
      "note": 52,
      "start": 54.7745,
      "duration": 0.0161,
      "velocity": 100,
      "chip": "ym2612"
    },
    {
      "channel": 0,
      "note": 38,
      "start": 54.7872,
      "duration": 0.0161,
      "velocity": 115,
      "chip": "ym2612"
    },
    {
      "channel": 4,
      "note": 59,
      "start": 54.7884,
      "duration": 0.0161,
      "velocity": 120,
      "chip": "ym2612"
    },
    {
      "channel": 3,
      "note": 66,
      "start": 54.7895,
      "duration": 0.0161,
      "velocity": 120,
      "chip": "ym2612"
    },
    {
      "channel": 2,
      "note": 52,
      "start": 54.7906,
      "duration": 0.0161,
      "velocity": 100,
      "chip": "ym2612"
    },
    {
      "channel": 0,
      "note": 38,
      "start": 54.8033,
      "duration": 0.0161,
      "velocity": 115,
      "chip": "ym2612"
    },
    {
      "channel": 4,
      "note": 59,
      "start": 54.8044,
      "duration": 0.0161,
      "velocity": 120,
      "chip": "ym2612"
    },
    {
      "channel": 3,
      "note": 66,
      "start": 54.8056,
      "duration": 0.0161,
      "velocity": 120,
      "chip": "ym2612"
    },
    {
      "channel": 2,
      "note": 52,
      "start": 54.8067,
      "duration": 0.0162,
      "velocity": 100,
      "chip": "ym2612"
    },
    {
      "channel": 0,
      "note": 39,
      "start": 54.8194,
      "duration": 0.0161,
      "velocity": 115,
      "chip": "ym2612"
    },
    {
      "channel": 4,
      "note": 59,
      "start": 54.8205,
      "duration": 0.0161,
      "velocity": 120,
      "chip": "ym2612"
    },
    {
      "channel": 3,
      "note": 66,
      "start": 54.8217,
      "duration": 0.0161,
      "velocity": 120,
      "chip": "ym2612"
    },
    {
      "channel": 2,
      "note": 52,
      "start": 54.8228,
      "duration": 0.0161,
      "velocity": 100,
      "chip": "ym2612"
    },
    {
      "channel": 0,
      "note": 39,
      "start": 54.8355,
      "duration": 0.0161,
      "velocity": 115,
      "chip": "ym2612"
    },
    {
      "channel": 4,
      "note": 59,
      "start": 54.8366,
      "duration": 0.0161,
      "velocity": 120,
      "chip": "ym2612"
    },
    {
      "channel": 3,
      "note": 66,
      "start": 54.8378,
      "duration": 0.0161,
      "velocity": 120,
      "chip": "ym2612"
    },
    {
      "channel": 2,
      "note": 52,
      "start": 54.8389,
      "duration": 0.0161,
      "velocity": 100,
      "chip": "ym2612"
    },
    {
      "channel": 0,
      "note": 40,
      "start": 54.8516,
      "duration": 0.0161,
      "velocity": 115,
      "chip": "ym2612"
    },
    {
      "channel": 4,
      "note": 59,
      "start": 54.8527,
      "duration": 0.0161,
      "velocity": 120,
      "chip": "ym2612"
    },
    {
      "channel": 3,
      "note": 66,
      "start": 54.8539,
      "duration": 0.0161,
      "velocity": 120,
      "chip": "ym2612"
    },
    {
      "channel": 2,
      "note": 52,
      "start": 54.855,
      "duration": 0.0161,
      "velocity": 100,
      "chip": "ym2612"
    },
    {
      "channel": 0,
      "note": 40,
      "start": 54.8677,
      "duration": 0.0161,
      "velocity": 115,
      "chip": "ym2612"
    },
    {
      "channel": 4,
      "note": 59,
      "start": 54.8688,
      "duration": 0.0161,
      "velocity": 120,
      "chip": "ym2612"
    },
    {
      "channel": 3,
      "note": 66,
      "start": 54.87,
      "duration": 0.0161,
      "velocity": 120,
      "chip": "ym2612"
    },
    {
      "channel": 2,
      "note": 52,
      "start": 54.8711,
      "duration": 0.0161,
      "velocity": 100,
      "chip": "ym2612"
    },
    {
      "channel": 0,
      "note": 40,
      "start": 54.8838,
      "duration": 0.0161,
      "velocity": 115,
      "chip": "ym2612"
    },
    {
      "channel": 4,
      "note": 59,
      "start": 54.8849,
      "duration": 0.0161,
      "velocity": 120,
      "chip": "ym2612"
    },
    {
      "channel": 3,
      "note": 66,
      "start": 54.8861,
      "duration": 0.0161,
      "velocity": 120,
      "chip": "ym2612"
    },
    {
      "channel": 2,
      "note": 52,
      "start": 54.8872,
      "duration": 0.0161,
      "velocity": 100,
      "chip": "ym2612"
    },
    {
      "channel": 0,
      "note": 41,
      "start": 54.8999,
      "duration": 0.0179,
      "velocity": 115,
      "chip": "ym2612"
    },
    {
      "channel": 4,
      "note": 59,
      "start": 54.901,
      "duration": 0.0181,
      "velocity": 120,
      "chip": "ym2612"
    },
    {
      "channel": 3,
      "note": 66,
      "start": 54.9022,
      "duration": 0.0184,
      "velocity": 120,
      "chip": "ym2612"
    },
    {
      "channel": 2,
      "note": 52,
      "start": 54.9033,
      "duration": 0.0187,
      "velocity": 100,
      "chip": "ym2612"
    },
    {
      "channel": 0,
      "note": 36,
      "start": 54.9178,
      "duration": 0.0144,
      "velocity": 115,
      "chip": "ym2612"
    },
    {
      "channel": 4,
      "note": 59,
      "start": 54.9192,
      "duration": 0.0142,
      "velocity": 120,
      "chip": "ym2612"
    },
    {
      "channel": 3,
      "note": 66,
      "start": 54.9206,
      "duration": 0.0139,
      "velocity": 120,
      "chip": "ym2612"
    },
    {
      "channel": 2,
      "note": 52,
      "start": 54.9221,
      "duration": 0.0137,
      "velocity": 100,
      "chip": "ym2612"
    },
    {
      "channel": 0,
      "note": 36,
      "start": 54.9322,
      "duration": 0.016,
      "velocity": 115,
      "chip": "ym2612"
    },
    {
      "channel": 4,
      "note": 59,
      "start": 54.9334,
      "duration": 0.016,
      "velocity": 120,
      "chip": "ym2612"
    },
    {
      "channel": 3,
      "note": 66,
      "start": 54.9345,
      "duration": 0.016,
      "velocity": 120,
      "chip": "ym2612"
    },
    {
      "channel": 2,
      "note": 52,
      "start": 54.9358,
      "duration": 0.0159,
      "velocity": 100,
      "chip": "ym2612"
    },
    {
      "channel": 0,
      "note": 37,
      "start": 54.9482,
      "duration": 0.0172,
      "velocity": 115,
      "chip": "ym2612"
    },
    {
      "channel": 4,
      "note": 59,
      "start": 54.9494,
      "duration": 0.0172,
      "velocity": 120,
      "chip": "ym2612"
    },
    {
      "channel": 3,
      "note": 66,
      "start": 54.9505,
      "duration": 0.0172,
      "velocity": 120,
      "chip": "ym2612"
    },
    {
      "channel": 2,
      "note": 52,
      "start": 54.9517,
      "duration": 0.0171,
      "velocity": 100,
      "chip": "ym2612"
    },
    {
      "channel": 0,
      "note": 37,
      "start": 54.9654,
      "duration": 0.0167,
      "velocity": 115,
      "chip": "ym2612"
    },
    {
      "channel": 4,
      "note": 59,
      "start": 54.9665,
      "duration": 0.0167,
      "velocity": 120,
      "chip": "ym2612"
    },
    {
      "channel": 3,
      "note": 66,
      "start": 54.9677,
      "duration": 0.0167,
      "velocity": 120,
      "chip": "ym2612"
    },
    {
      "channel": 2,
      "note": 52,
      "start": 54.9688,
      "duration": 0.0167,
      "velocity": 100,
      "chip": "ym2612"
    },
    {
      "channel": 0,
      "note": 38,
      "start": 54.9821,
      "duration": 0.0163,
      "velocity": 115,
      "chip": "ym2612"
    },
    {
      "channel": 4,
      "note": 59,
      "start": 54.9832,
      "duration": 0.0163,
      "velocity": 120,
      "chip": "ym2612"
    },
    {
      "channel": 3,
      "note": 66,
      "start": 54.9844,
      "duration": 0.0163,
      "velocity": 120,
      "chip": "ym2612"
    },
    {
      "channel": 2,
      "note": 52,
      "start": 54.9854,
      "duration": 0.0163,
      "velocity": 100,
      "chip": "ym2612"
    },
    {
      "channel": 0,
      "note": 38,
      "start": 54.9983,
      "duration": 0.0146,
      "velocity": 115,
      "chip": "ym2612"
    },
    {
      "channel": 4,
      "note": 59,
      "start": 54.9995,
      "duration": 0.0146,
      "velocity": 120,
      "chip": "ym2612"
    },
    {
      "channel": 3,
      "note": 66,
      "start": 55.0006,
      "duration": 0.0146,
      "velocity": 120,
      "chip": "ym2612"
    },
    {
      "channel": 2,
      "note": 52,
      "start": 55.0018,
      "duration": 0.0146,
      "velocity": 100,
      "chip": "ym2612"
    },
    {
      "channel": 0,
      "note": 39,
      "start": 55.0129,
      "duration": 0.0186,
      "velocity": 115,
      "chip": "ym2612"
    },
    {
      "channel": 4,
      "note": 59,
      "start": 55.0141,
      "duration": 0.0186,
      "velocity": 120,
      "chip": "ym2612"
    },
    {
      "channel": 3,
      "note": 66,
      "start": 55.0152,
      "duration": 0.0186,
      "velocity": 120,
      "chip": "ym2612"
    },
    {
      "channel": 2,
      "note": 52,
      "start": 55.0163,
      "duration": 0.0185,
      "velocity": 100,
      "chip": "ym2612"
    },
    {
      "channel": 0,
      "note": 39,
      "start": 55.0315,
      "duration": 0.0161,
      "velocity": 115,
      "chip": "ym2612"
    },
    {
      "channel": 4,
      "note": 59,
      "start": 55.0326,
      "duration": 0.0161,
      "velocity": 120,
      "chip": "ym2612"
    },
    {
      "channel": 3,
      "note": 66,
      "start": 55.0338,
      "duration": 0.0161,
      "velocity": 120,
      "chip": "ym2612"
    },
    {
      "channel": 2,
      "note": 52,
      "start": 55.0349,
      "duration": 0.0161,
      "velocity": 100,
      "chip": "ym2612"
    },
    {
      "channel": 0,
      "note": 40,
      "start": 55.0476,
      "duration": 0.0157,
      "velocity": 115,
      "chip": "ym2612"
    },
    {
      "channel": 4,
      "note": 59,
      "start": 55.0487,
      "duration": 0.0157,
      "velocity": 120,
      "chip": "ym2612"
    },
    {
      "channel": 3,
      "note": 66,
      "start": 55.0499,
      "duration": 0.0157,
      "velocity": 120,
      "chip": "ym2612"
    },
    {
      "channel": 2,
      "note": 52,
      "start": 55.051,
      "duration": 0.0158,
      "velocity": 100,
      "chip": "ym2612"
    },
    {
      "channel": 0,
      "note": 40,
      "start": 55.0633,
      "duration": 0.0137,
      "velocity": 115,
      "chip": "ym2612"
    },
    {
      "channel": 4,
      "note": 59,
      "start": 55.0644,
      "duration": 0.0141,
      "velocity": 120,
      "chip": "ym2612"
    },
    {
      "channel": 3,
      "note": 66,
      "start": 55.0656,
      "duration": 0.0141,
      "velocity": 120,
      "chip": "ym2612"
    },
    {
      "channel": 2,
      "note": 52,
      "start": 55.0667,
      "duration": 0.014,
      "velocity": 100,
      "chip": "ym2612"
    },
    {
      "channel": 0,
      "note": 40,
      "start": 55.077,
      "duration": 0.0161,
      "velocity": 115,
      "chip": "ym2612"
    },
    {
      "channel": 4,
      "note": 59,
      "start": 55.0785,
      "duration": 0.0185,
      "velocity": 120,
      "chip": "ym2612"
    },
    {
      "channel": 3,
      "note": 66,
      "start": 55.0796,
      "duration": 0.0185,
      "velocity": 120,
      "chip": "ym2612"
    },
    {
      "channel": 2,
      "note": 52,
      "start": 55.0807,
      "duration": 0.0186,
      "velocity": 100,
      "chip": "ym2612"
    },
    {
      "channel": 0,
      "note": 41,
      "start": 55.0931,
      "duration": 0.0206,
      "velocity": 115,
      "chip": "ym2612"
    },
    {
      "channel": 4,
      "note": 59,
      "start": 55.097,
      "duration": 0.0181,
      "velocity": 120,
      "chip": "ym2612"
    },
    {
      "channel": 3,
      "note": 66,
      "start": 55.0982,
      "duration": 0.0184,
      "velocity": 120,
      "chip": "ym2612"
    },
    {
      "channel": 2,
      "note": 52,
      "start": 55.0993,
      "duration": 0.0187,
      "velocity": 100,
      "chip": "ym2612"
    },
    {
      "channel": 0,
      "note": 36,
      "start": 55.1137,
      "duration": 0.0116,
      "velocity": 115,
      "chip": "ym2612"
    },
    {
      "channel": 4,
      "note": 59,
      "start": 55.1152,
      "duration": 0.0114,
      "velocity": 120,
      "chip": "ym2612"
    },
    {
      "channel": 3,
      "note": 66,
      "start": 55.1166,
      "duration": 0.0136,
      "velocity": 120,
      "chip": "ym2612"
    },
    {
      "channel": 2,
      "note": 52,
      "start": 55.1181,
      "duration": 0.0133,
      "velocity": 100,
      "chip": "ym2612"
    },
    {
      "channel": 0,
      "note": 36,
      "start": 55.1254,
      "duration": 0.016,
      "velocity": 115,
      "chip": "ym2612"
    },
    {
      "channel": 4,
      "note": 59,
      "start": 55.1266,
      "duration": 0.016,
      "velocity": 120,
      "chip": "ym2612"
    },
    {
      "channel": 3,
      "note": 66,
      "start": 55.1302,
      "duration": 0.0135,
      "velocity": 120,
      "chip": "ym2612"
    },
    {
      "channel": 2,
      "note": 52,
      "start": 55.1314,
      "duration": 0.0138,
      "velocity": 100,
      "chip": "ym2612"
    },
    {
      "channel": 0,
      "note": 37,
      "start": 55.1414,
      "duration": 0.0161,
      "velocity": 115,
      "chip": "ym2612"
    },
    {
      "channel": 4,
      "note": 59,
      "start": 55.1426,
      "duration": 0.0161,
      "velocity": 120,
      "chip": "ym2612"
    },
    {
      "channel": 3,
      "note": 66,
      "start": 55.1437,
      "duration": 0.0161,
      "velocity": 120,
      "chip": "ym2612"
    },
    {
      "channel": 2,
      "note": 52,
      "start": 55.1452,
      "duration": 0.0185,
      "velocity": 100,
      "chip": "ym2612"
    },
    {
      "channel": 0,
      "note": 37,
      "start": 55.1575,
      "duration": 0.0161,
      "velocity": 115,
      "chip": "ym2612"
    },
    {
      "channel": 4,
      "note": 59,
      "start": 55.1586,
      "duration": 0.0161,
      "velocity": 120,
      "chip": "ym2612"
    },
    {
      "channel": 3,
      "note": 66,
      "start": 55.1598,
      "duration": 0.0161,
      "velocity": 120,
      "chip": "ym2612"
    },
    {
      "channel": 2,
      "note": 52,
      "start": 55.1637,
      "duration": 0.0134,
      "velocity": 100,
      "chip": "ym2612"
    },
    {
      "channel": 0,
      "note": 38,
      "start": 55.1736,
      "duration": 0.0161,
      "velocity": 115,
      "chip": "ym2612"
    },
    {
      "channel": 4,
      "note": 59,
      "start": 55.1747,
      "duration": 0.0162,
      "velocity": 120,
      "chip": "ym2612"
    },
    {
      "channel": 3,
      "note": 66,
      "start": 55.1759,
      "duration": 0.0161,
      "velocity": 120,
      "chip": "ym2612"
    },
    {
      "channel": 2,
      "note": 52,
      "start": 55.177,
      "duration": 0.0161,
      "velocity": 100,
      "chip": "ym2612"
    },
    {
      "channel": 0,
      "note": 38,
      "start": 55.1897,
      "duration": 0.0162,
      "velocity": 115,
      "chip": "ym2612"
    },
    {
      "channel": 4,
      "note": 59,
      "start": 55.1909,
      "duration": 0.0161,
      "velocity": 120,
      "chip": "ym2612"
    },
    {
      "channel": 3,
      "note": 66,
      "start": 55.192,
      "duration": 0.0162,
      "velocity": 120,
      "chip": "ym2612"
    },
    {
      "channel": 2,
      "note": 52,
      "start": 55.1931,
      "duration": 0.0161,
      "velocity": 100,
      "chip": "ym2612"
    },
    {
      "channel": 0,
      "note": 39,
      "start": 55.2059,
      "duration": 0.0161,
      "velocity": 115,
      "chip": "ym2612"
    },
    {
      "channel": 4,
      "note": 59,
      "start": 55.207,
      "duration": 0.0161,
      "velocity": 120,
      "chip": "ym2612"
    },
    {
      "channel": 3,
      "note": 66,
      "start": 55.2081,
      "duration": 0.0161,
      "velocity": 120,
      "chip": "ym2612"
    },
    {
      "channel": 2,
      "note": 52,
      "start": 55.2092,
      "duration": 0.0161,
      "velocity": 100,
      "chip": "ym2612"
    },
    {
      "channel": 0,
      "note": 39,
      "start": 55.222,
      "duration": 0.0161,
      "velocity": 115,
      "chip": "ym2612"
    },
    {
      "channel": 4,
      "note": 59,
      "start": 55.2231,
      "duration": 0.0161,
      "velocity": 120,
      "chip": "ym2612"
    },
    {
      "channel": 3,
      "note": 66,
      "start": 55.2242,
      "duration": 0.0161,
      "velocity": 120,
      "chip": "ym2612"
    },
    {
      "channel": 2,
      "note": 52,
      "start": 55.2253,
      "duration": 0.0161,
      "velocity": 100,
      "chip": "ym2612"
    },
    {
      "channel": 0,
      "note": 40,
      "start": 55.238,
      "duration": 0.0161,
      "velocity": 115,
      "chip": "ym2612"
    },
    {
      "channel": 4,
      "note": 59,
      "start": 55.2392,
      "duration": 0.0161,
      "velocity": 120,
      "chip": "ym2612"
    },
    {
      "channel": 3,
      "note": 66,
      "start": 55.2403,
      "duration": 0.0161,
      "velocity": 120,
      "chip": "ym2612"
    },
    {
      "channel": 2,
      "note": 52,
      "start": 55.2414,
      "duration": 0.0162,
      "velocity": 100,
      "chip": "ym2612"
    },
    {
      "channel": 0,
      "note": 40,
      "start": 55.2541,
      "duration": 0.0161,
      "velocity": 115,
      "chip": "ym2612"
    },
    {
      "channel": 4,
      "note": 59,
      "start": 55.2553,
      "duration": 0.0161,
      "velocity": 120,
      "chip": "ym2612"
    },
    {
      "channel": 3,
      "note": 66,
      "start": 55.2564,
      "duration": 0.0161,
      "velocity": 120,
      "chip": "ym2612"
    },
    {
      "channel": 2,
      "note": 52,
      "start": 55.2576,
      "duration": 0.0161,
      "velocity": 100,
      "chip": "ym2612"
    },
    {
      "channel": 0,
      "note": 40,
      "start": 55.2702,
      "duration": 0.0161,
      "velocity": 115,
      "chip": "ym2612"
    },
    {
      "channel": 4,
      "note": 59,
      "start": 55.2714,
      "duration": 0.0161,
      "velocity": 120,
      "chip": "ym2612"
    },
    {
      "channel": 3,
      "note": 66,
      "start": 55.2725,
      "duration": 0.0161,
      "velocity": 120,
      "chip": "ym2612"
    },
    {
      "channel": 2,
      "note": 52,
      "start": 55.2737,
      "duration": 0.0161,
      "velocity": 100,
      "chip": "ym2612"
    },
    {
      "channel": 0,
      "note": 41,
      "start": 55.2863,
      "duration": 0.0179,
      "velocity": 124,
      "chip": "ym2612"
    },
    {
      "channel": 4,
      "note": 59,
      "start": 55.2875,
      "duration": 0.0181,
      "velocity": 120,
      "chip": "ym2612"
    },
    {
      "channel": 3,
      "note": 66,
      "start": 55.2886,
      "duration": 0.0184,
      "velocity": 120,
      "chip": "ym2612"
    },
    {
      "channel": 2,
      "note": 52,
      "start": 55.2898,
      "duration": 0.0187,
      "velocity": 100,
      "chip": "ym2612"
    },
    {
      "channel": 0,
      "note": 84,
      "start": 55.3042,
      "duration": 0.0144,
      "velocity": 124,
      "chip": "ym2612"
    },
    {
      "channel": 4,
      "note": 59,
      "start": 55.3057,
      "duration": 0.0141,
      "velocity": 120,
      "chip": "ym2612"
    },
    {
      "channel": 3,
      "note": 66,
      "start": 55.307,
      "duration": 0.014,
      "velocity": 120,
      "chip": "ym2612"
    },
    {
      "channel": 2,
      "note": 52,
      "start": 55.3085,
      "duration": 0.0137,
      "velocity": 100,
      "chip": "ym2612"
    },
    {
      "channel": 0,
      "note": 82,
      "start": 55.3186,
      "duration": 0.016,
      "velocity": 124,
      "chip": "ym2612"
    },
    {
      "channel": 4,
      "note": 59,
      "start": 55.3198,
      "duration": 0.016,
      "velocity": 120,
      "chip": "ym2612"
    },
    {
      "channel": 3,
      "note": 66,
      "start": 55.321,
      "duration": 0.0159,
      "velocity": 120,
      "chip": "ym2612"
    },
    {
      "channel": 2,
      "note": 52,
      "start": 55.3222,
      "duration": 0.0159,
      "velocity": 100,
      "chip": "ym2612"
    },
    {
      "channel": 0,
      "note": 80,
      "start": 55.3346,
      "duration": 0.0162,
      "velocity": 124,
      "chip": "ym2612"
    },
    {
      "channel": 4,
      "note": 59,
      "start": 55.3358,
      "duration": 0.0161,
      "velocity": 120,
      "chip": "ym2612"
    },
    {
      "channel": 3,
      "note": 66,
      "start": 55.3369,
      "duration": 0.0162,
      "velocity": 120,
      "chip": "ym2612"
    },
    {
      "channel": 2,
      "note": 52,
      "start": 55.338,
      "duration": 0.0161,
      "velocity": 100,
      "chip": "ym2612"
    },
    {
      "channel": 0,
      "note": 77,
      "start": 55.3508,
      "duration": 0.0161,
      "velocity": 124,
      "chip": "ym2612"
    },
    {
      "channel": 4,
      "note": 59,
      "start": 55.3519,
      "duration": 0.0161,
      "velocity": 120,
      "chip": "ym2612"
    },
    {
      "channel": 3,
      "note": 66,
      "start": 55.3531,
      "duration": 0.0161,
      "velocity": 120,
      "chip": "ym2612"
    },
    {
      "channel": 2,
      "note": 52,
      "start": 55.3541,
      "duration": 0.0161,
      "velocity": 100,
      "chip": "ym2612"
    },
    {
      "channel": 0,
      "note": 75,
      "start": 55.3668,
      "duration": 0.0161,
      "velocity": 124,
      "chip": "ym2612"
    },
    {
      "channel": 4,
      "note": 59,
      "start": 55.368,
      "duration": 0.0161,
      "velocity": 120,
      "chip": "ym2612"
    },
    {
      "channel": 3,
      "note": 66,
      "start": 55.3691,
      "duration": 0.0161,
      "velocity": 120,
      "chip": "ym2612"
    },
    {
      "channel": 2,
      "note": 52,
      "start": 55.3702,
      "duration": 0.0161,
      "velocity": 100,
      "chip": "ym2612"
    },
    {
      "channel": 0,
      "note": 72,
      "start": 55.3829,
      "duration": 0.0161,
      "velocity": 124,
      "chip": "ym2612"
    },
    {
      "channel": 4,
      "note": 59,
      "start": 55.3841,
      "duration": 0.0161,
      "velocity": 120,
      "chip": "ym2612"
    },
    {
      "channel": 3,
      "note": 66,
      "start": 55.3852,
      "duration": 0.0161,
      "velocity": 120,
      "chip": "ym2612"
    },
    {
      "channel": 2,
      "note": 52,
      "start": 55.3863,
      "duration": 0.0161,
      "velocity": 100,
      "chip": "ym2612"
    },
    {
      "channel": 0,
      "note": 70,
      "start": 55.399,
      "duration": 0.0161,
      "velocity": 124,
      "chip": "ym2612"
    },
    {
      "channel": 4,
      "note": 59,
      "start": 55.4002,
      "duration": 0.0161,
      "velocity": 120,
      "chip": "ym2612"
    },
    {
      "channel": 3,
      "note": 66,
      "start": 55.4013,
      "duration": 0.0161,
      "velocity": 120,
      "chip": "ym2612"
    },
    {
      "channel": 2,
      "note": 52,
      "start": 55.4024,
      "duration": 0.0161,
      "velocity": 100,
      "chip": "ym2612"
    },
    {
      "channel": 0,
      "note": 68,
      "start": 55.4151,
      "duration": 0.0169,
      "velocity": 124,
      "chip": "ym2612"
    },
    {
      "channel": 4,
      "note": 59,
      "start": 55.4163,
      "duration": 0.0169,
      "velocity": 120,
      "chip": "ym2612"
    },
    {
      "channel": 3,
      "note": 66,
      "start": 55.4174,
      "duration": 0.0169,
      "velocity": 120,
      "chip": "ym2612"
    },
    {
      "channel": 2,
      "note": 52,
      "start": 55.4185,
      "duration": 0.0169,
      "velocity": 100,
      "chip": "ym2612"
    },
    {
      "channel": 0,
      "note": 65,
      "start": 55.4321,
      "duration": 0.0167,
      "velocity": 124,
      "chip": "ym2612"
    },
    {
      "channel": 4,
      "note": 59,
      "start": 55.4332,
      "duration": 0.0167,
      "velocity": 120,
      "chip": "ym2612"
    },
    {
      "channel": 3,
      "note": 66,
      "start": 55.4344,
      "duration": 0.0167,
      "velocity": 120,
      "chip": "ym2612"
    },
    {
      "channel": 2,
      "note": 52,
      "start": 55.4354,
      "duration": 0.0167,
      "velocity": 100,
      "chip": "ym2612"
    },
    {
      "channel": 0,
      "note": 63,
      "start": 55.4487,
      "duration": 0.0155,
      "velocity": 1,
      "chip": "ym2612"
    },
    {
      "channel": 4,
      "note": 59,
      "start": 55.4499,
      "duration": 0.0155,
      "velocity": 120,
      "chip": "ym2612"
    },
    {
      "channel": 3,
      "note": 66,
      "start": 55.451,
      "duration": 0.0155,
      "velocity": 120,
      "chip": "ym2612"
    },
    {
      "channel": 2,
      "note": 52,
      "start": 55.4521,
      "duration": 0.0155,
      "velocity": 100,
      "chip": "ym2612"
    },
    {
      "channel": 4,
      "note": 59,
      "start": 55.4653,
      "duration": 0.0139,
      "velocity": 120,
      "chip": "ym2612"
    },
    {
      "channel": 3,
      "note": 66,
      "start": 55.4665,
      "duration": 0.0139,
      "velocity": 120,
      "chip": "ym2612"
    },
    {
      "channel": 2,
      "note": 52,
      "start": 55.4676,
      "duration": 0.0139,
      "velocity": 100,
      "chip": "ym2612"
    },
    {
      "channel": 4,
      "note": 59,
      "start": 55.4792,
      "duration": 0.0189,
      "velocity": 120,
      "chip": "ym2612"
    },
    {
      "channel": 3,
      "note": 66,
      "start": 55.4803,
      "duration": 0.0191,
      "velocity": 120,
      "chip": "ym2612"
    },
    {
      "channel": 2,
      "note": 52,
      "start": 55.4815,
      "duration": 0.0195,
      "velocity": 100,
      "chip": "ym2612"
    },
    {
      "channel": 4,
      "note": 57,
      "start": 55.4982,
      "duration": 0.0159,
      "velocity": 120,
      "chip": "ym2612"
    },
    {
      "channel": 3,
      "note": 64,
      "start": 55.4995,
      "duration": 0.0157,
      "velocity": 120,
      "chip": "ym2612"
    },
    {
      "channel": 2,
      "note": 52,
      "start": 55.501,
      "duration": 0.0154,
      "velocity": 100,
      "chip": "ym2612"
    },
    {
      "channel": 4,
      "note": 57,
      "start": 55.5141,
      "duration": 0.0156,
      "velocity": 120,
      "chip": "ym2612"
    },
    {
      "channel": 3,
      "note": 64,
      "start": 55.5153,
      "duration": 0.0156,
      "velocity": 120,
      "chip": "ym2612"
    },
    {
      "channel": 2,
      "note": 52,
      "start": 55.5164,
      "duration": 0.0156,
      "velocity": 100,
      "chip": "ym2612"
    },
    {
      "channel": 4,
      "note": 57,
      "start": 55.5297,
      "duration": 0.0137,
      "velocity": 120,
      "chip": "ym2612"
    },
    {
      "channel": 3,
      "note": 64,
      "start": 55.5309,
      "duration": 0.0141,
      "velocity": 120,
      "chip": "ym2612"
    },
    {
      "channel": 2,
      "note": 52,
      "start": 55.532,
      "duration": 0.0141,
      "velocity": 100,
      "chip": "ym2612"
    },
    {
      "channel": 4,
      "note": 57,
      "start": 55.5434,
      "duration": 0.0161,
      "velocity": 120,
      "chip": "ym2612"
    },
    {
      "channel": 3,
      "note": 64,
      "start": 55.5449,
      "duration": 0.0185,
      "velocity": 120,
      "chip": "ym2612"
    },
    {
      "channel": 2,
      "note": 52,
      "start": 55.5461,
      "duration": 0.0185,
      "velocity": 100,
      "chip": "ym2612"
    },
    {
      "channel": 4,
      "note": 57,
      "start": 55.5595,
      "duration": 0.0161,
      "velocity": 120,
      "chip": "ym2612"
    },
    {
      "channel": 3,
      "note": 64,
      "start": 55.5634,
      "duration": 0.0134,
      "velocity": 120,
      "chip": "ym2612"
    },
    {
      "channel": 2,
      "note": 52,
      "start": 55.5646,
      "duration": 0.0161,
      "velocity": 100,
      "chip": "ym2612"
    },
    {
      "channel": 4,
      "note": 57,
      "start": 55.5756,
      "duration": 0.0161,
      "velocity": 120,
      "chip": "ym2612"
    },
    {
      "channel": 3,
      "note": 64,
      "start": 55.5768,
      "duration": 0.0161,
      "velocity": 120,
      "chip": "ym2612"
    },
    {
      "channel": 2,
      "note": 52,
      "start": 55.5807,
      "duration": 0.0157,
      "velocity": 100,
      "chip": "ym2612"
    },
    {
      "channel": 4,
      "note": 57,
      "start": 55.5917,
      "duration": 0.0161,
      "velocity": 120,
      "chip": "ym2612"
    },
    {
      "channel": 3,
      "note": 64,
      "start": 55.5929,
      "duration": 0.0161,
      "velocity": 120,
      "chip": "ym2612"
    },
    {
      "channel": 2,
      "note": 52,
      "start": 55.5964,
      "duration": 0.0137,
      "velocity": 100,
      "chip": "ym2612"
    },
    {
      "channel": 4,
      "note": 57,
      "start": 55.6078,
      "duration": 0.0162,
      "velocity": 120,
      "chip": "ym2612"
    },
    {
      "channel": 3,
      "note": 64,
      "start": 55.609,
      "duration": 0.0161,
      "velocity": 120,
      "chip": "ym2612"
    },
    {
      "channel": 2,
      "note": 52,
      "start": 55.6101,
      "duration": 0.0161,
      "velocity": 100,
      "chip": "ym2612"
    },
    {
      "channel": 4,
      "note": 57,
      "start": 55.624,
      "duration": 0.0161,
      "velocity": 120,
      "chip": "ym2612"
    },
    {
      "channel": 3,
      "note": 64,
      "start": 55.6251,
      "duration": 0.0162,
      "velocity": 120,
      "chip": "ym2612"
    },
    {
      "channel": 2,
      "note": 52,
      "start": 55.6262,
      "duration": 0.0161,
      "velocity": 100,
      "chip": "ym2612"
    },
    {
      "channel": 4,
      "note": 57,
      "start": 55.6401,
      "duration": 0.0161,
      "velocity": 120,
      "chip": "ym2612"
    },
    {
      "channel": 3,
      "note": 64,
      "start": 55.6412,
      "duration": 0.0161,
      "velocity": 120,
      "chip": "ym2612"
    },
    {
      "channel": 2,
      "note": 52,
      "start": 55.6423,
      "duration": 0.0161,
      "velocity": 100,
      "chip": "ym2612"
    },
    {
      "channel": 4,
      "note": 57,
      "start": 55.6562,
      "duration": 0.0161,
      "velocity": 120,
      "chip": "ym2612"
    },
    {
      "channel": 3,
      "note": 64,
      "start": 55.6573,
      "duration": 0.0161,
      "velocity": 120,
      "chip": "ym2612"
    },
    {
      "channel": 2,
      "note": 52,
      "start": 55.6584,
      "duration": 0.0161,
      "velocity": 100,
      "chip": "ym2612"
    },
    {
      "channel": 4,
      "note": 57,
      "start": 55.6723,
      "duration": 0.0212,
      "velocity": 120,
      "chip": "ym2612"
    },
    {
      "channel": 3,
      "note": 64,
      "start": 55.6734,
      "duration": 0.0256,
      "velocity": 120,
      "chip": "ym2612"
    },
    {
      "channel": 2,
      "note": 52,
      "start": 55.6745,
      "duration": 0.026,
      "velocity": 100,
      "chip": "ym2612"
    },
    {
      "channel": 0,
      "note": 36,
      "start": 55.6907,
      "duration": 0.0146,
      "velocity": 115,
      "chip": "ym2612"
    },
    {
      "channel": 4,
      "note": 52,
      "start": 55.6934,
      "duration": 0.013,
      "velocity": 120,
      "chip": "ym2612"
    },
    {
      "channel": 3,
      "note": 59,
      "start": 55.699,
      "duration": 0.0087,
      "velocity": 120,
      "chip": "ym2612"
    },
    {
      "channel": 2,
      "note": 52,
      "start": 55.7006,
      "duration": 0.0083,
      "velocity": 100,
      "chip": "ym2612"
    },
    {
      "channel": 0,
      "note": 36,
      "start": 55.7052,
      "duration": 0.0158,
      "velocity": 115,
      "chip": "ym2612"
    },
    {
      "channel": 4,
      "note": 52,
      "start": 55.7064,
      "duration": 0.0158,
      "velocity": 120,
      "chip": "ym2612"
    },
    {
      "channel": 3,
      "note": 59,
      "start": 55.7076,
      "duration": 0.0157,
      "velocity": 120,
      "chip": "ym2612"
    },
    {
      "channel": 2,
      "note": 52,
      "start": 55.7088,
      "duration": 0.0156,
      "velocity": 100,
      "chip": "ym2612"
    },
    {
      "channel": 0,
      "note": 37,
      "start": 55.721,
      "duration": 0.0161,
      "velocity": 115,
      "chip": "ym2612"
    },
    {
      "channel": 4,
      "note": 52,
      "start": 55.7222,
      "duration": 0.0161,
      "velocity": 120,
      "chip": "ym2612"
    },
    {
      "channel": 3,
      "note": 59,
      "start": 55.7233,
      "duration": 0.0161,
      "velocity": 120,
      "chip": "ym2612"
    },
    {
      "channel": 2,
      "note": 52,
      "start": 55.7245,
      "duration": 0.0161,
      "velocity": 100,
      "chip": "ym2612"
    },
    {
      "channel": 0,
      "note": 37,
      "start": 55.7371,
      "duration": 0.0161,
      "velocity": 115,
      "chip": "ym2612"
    },
    {
      "channel": 4,
      "note": 52,
      "start": 55.7383,
      "duration": 0.0161,
      "velocity": 120,
      "chip": "ym2612"
    },
    {
      "channel": 3,
      "note": 59,
      "start": 55.7394,
      "duration": 0.0161,
      "velocity": 120,
      "chip": "ym2612"
    },
    {
      "channel": 2,
      "note": 52,
      "start": 55.7406,
      "duration": 0.0161,
      "velocity": 100,
      "chip": "ym2612"
    },
    {
      "channel": 0,
      "note": 38,
      "start": 55.7532,
      "duration": 0.0161,
      "velocity": 115,
      "chip": "ym2612"
    },
    {
      "channel": 4,
      "note": 52,
      "start": 55.7544,
      "duration": 0.0162,
      "velocity": 120,
      "chip": "ym2612"
    },
    {
      "channel": 3,
      "note": 59,
      "start": 55.7555,
      "duration": 0.0161,
      "velocity": 120,
      "chip": "ym2612"
    },
    {
      "channel": 2,
      "note": 52,
      "start": 55.7567,
      "duration": 0.0161,
      "velocity": 100,
      "chip": "ym2612"
    },
    {
      "channel": 0,
      "note": 38,
      "start": 55.7693,
      "duration": 0.0161,
      "velocity": 115,
      "chip": "ym2612"
    },
    {
      "channel": 4,
      "note": 52,
      "start": 55.7705,
      "duration": 0.0161,
      "velocity": 120,
      "chip": "ym2612"
    },
    {
      "channel": 3,
      "note": 59,
      "start": 55.7716,
      "duration": 0.0161,
      "velocity": 120,
      "chip": "ym2612"
    },
    {
      "channel": 2,
      "note": 52,
      "start": 55.7728,
      "duration": 0.0161,
      "velocity": 100,
      "chip": "ym2612"
    },
    {
      "channel": 0,
      "note": 39,
      "start": 55.7855,
      "duration": 0.0161,
      "velocity": 115,
      "chip": "ym2612"
    },
    {
      "channel": 4,
      "note": 52,
      "start": 55.7866,
      "duration": 0.0161,
      "velocity": 120,
      "chip": "ym2612"
    },
    {
      "channel": 3,
      "note": 59,
      "start": 55.7878,
      "duration": 0.0161,
      "velocity": 120,
      "chip": "ym2612"
    },
    {
      "channel": 2,
      "note": 52,
      "start": 55.7889,
      "duration": 0.0161,
      "velocity": 100,
      "chip": "ym2612"
    },
    {
      "channel": 0,
      "note": 39,
      "start": 55.8016,
      "duration": 0.0161,
      "velocity": 115,
      "chip": "ym2612"
    },
    {
      "channel": 4,
      "note": 52,
      "start": 55.8027,
      "duration": 0.0161,
      "velocity": 120,
      "chip": "ym2612"
    },
    {
      "channel": 3,
      "note": 59,
      "start": 55.8039,
      "duration": 0.0161,
      "velocity": 120,
      "chip": "ym2612"
    },
    {
      "channel": 2,
      "note": 52,
      "start": 55.805,
      "duration": 0.0161,
      "velocity": 100,
      "chip": "ym2612"
    },
    {
      "channel": 0,
      "note": 40,
      "start": 55.8177,
      "duration": 0.0161,
      "velocity": 115,
      "chip": "ym2612"
    },
    {
      "channel": 4,
      "note": 52,
      "start": 55.8188,
      "duration": 0.0161,
      "velocity": 120,
      "chip": "ym2612"
    },
    {
      "channel": 3,
      "note": 59,
      "start": 55.82,
      "duration": 0.0161,
      "velocity": 120,
      "chip": "ym2612"
    },
    {
      "channel": 2,
      "note": 52,
      "start": 55.821,
      "duration": 0.0162,
      "velocity": 100,
      "chip": "ym2612"
    },
    {
      "channel": 0,
      "note": 40,
      "start": 55.8338,
      "duration": 0.0161,
      "velocity": 115,
      "chip": "ym2612"
    },
    {
      "channel": 4,
      "note": 52,
      "start": 55.8349,
      "duration": 0.0161,
      "velocity": 120,
      "chip": "ym2612"
    },
    {
      "channel": 3,
      "note": 59,
      "start": 55.8361,
      "duration": 0.0161,
      "velocity": 120,
      "chip": "ym2612"
    },
    {
      "channel": 2,
      "note": 52,
      "start": 55.8372,
      "duration": 0.0161,
      "velocity": 100,
      "chip": "ym2612"
    },
    {
      "channel": 0,
      "note": 40,
      "start": 55.8499,
      "duration": 0.0161,
      "velocity": 115,
      "chip": "ym2612"
    },
    {
      "channel": 4,
      "note": 52,
      "start": 55.851,
      "duration": 0.0161,
      "velocity": 120,
      "chip": "ym2612"
    },
    {
      "channel": 3,
      "note": 59,
      "start": 55.8522,
      "duration": 0.0161,
      "velocity": 120,
      "chip": "ym2612"
    },
    {
      "channel": 2,
      "note": 52,
      "start": 55.8533,
      "duration": 0.0161,
      "velocity": 100,
      "chip": "ym2612"
    },
    {
      "channel": 0,
      "note": 41,
      "start": 55.866,
      "duration": 0.0161,
      "velocity": 115,
      "chip": "ym2612"
    },
    {
      "channel": 4,
      "note": 52,
      "start": 55.8671,
      "duration": 0.0163,
      "velocity": 120,
      "chip": "ym2612"
    },
    {
      "channel": 3,
      "note": 59,
      "start": 55.8683,
      "duration": 0.0165,
      "velocity": 120,
      "chip": "ym2612"
    },
    {
      "channel": 2,
      "note": 52,
      "start": 55.8694,
      "duration": 0.0168,
      "velocity": 100,
      "chip": "ym2612"
    },
    {
      "channel": 0,
      "note": 41,
      "start": 55.8821,
      "duration": 0.0166,
      "velocity": 115,
      "chip": "ym2612"
    },
    {
      "channel": 4,
      "note": 57,
      "start": 55.8835,
      "duration": 0.0164,
      "velocity": 120,
      "chip": "ym2612"
    },
    {
      "channel": 3,
      "note": 64,
      "start": 55.8849,
      "duration": 0.0162,
      "velocity": 120,
      "chip": "ym2612"
    },
    {
      "channel": 2,
      "note": 52,
      "start": 55.8863,
      "duration": 0.016,
      "velocity": 100,
      "chip": "ym2612"
    },
    {
      "channel": 0,
      "note": 42,
      "start": 55.8987,
      "duration": 0.0167,
      "velocity": 115,
      "chip": "ym2612"
    },
    {
      "channel": 4,
      "note": 57,
      "start": 55.8999,
      "duration": 0.0167,
      "velocity": 120,
      "chip": "ym2612"
    },
    {
      "channel": 3,
      "note": 64,
      "start": 55.9011,
      "duration": 0.0166,
      "velocity": 120,
      "chip": "ym2612"
    },
    {
      "channel": 2,
      "note": 52,
      "start": 55.9023,
      "duration": 0.0165,
      "velocity": 100,
      "chip": "ym2612"
    },
    {
      "channel": 0,
      "note": 42,
      "start": 55.9154,
      "duration": 0.0163,
      "velocity": 115,
      "chip": "ym2612"
    },
    {
      "channel": 4,
      "note": 57,
      "start": 55.9165,
      "duration": 0.0163,
      "velocity": 120,
      "chip": "ym2612"
    },
    {
      "channel": 3,
      "note": 64,
      "start": 55.9177,
      "duration": 0.0163,
      "velocity": 120,
      "chip": "ym2612"
    },
    {
      "channel": 2,
      "note": 52,
      "start": 55.9188,
      "duration": 0.0163,
      "velocity": 100,
      "chip": "ym2612"
    },
    {
      "channel": 0,
      "note": 43,
      "start": 55.9317,
      "duration": 0.0148,
      "velocity": 115,
      "chip": "ym2612"
    },
    {
      "channel": 4,
      "note": 57,
      "start": 55.9328,
      "duration": 0.0148,
      "velocity": 120,
      "chip": "ym2612"
    },
    {
      "channel": 3,
      "note": 64,
      "start": 55.934,
      "duration": 0.0148,
      "velocity": 120,
      "chip": "ym2612"
    },
    {
      "channel": 2,
      "note": 52,
      "start": 55.9351,
      "duration": 0.0148,
      "velocity": 100,
      "chip": "ym2612"
    },
    {
      "channel": 0,
      "note": 43,
      "start": 55.9465,
      "duration": 0.0188,
      "velocity": 115,
      "chip": "ym2612"
    },
    {
      "channel": 4,
      "note": 57,
      "start": 55.9476,
      "duration": 0.0188,
      "velocity": 120,
      "chip": "ym2612"
    },
    {
      "channel": 3,
      "note": 64,
      "start": 55.9488,
      "duration": 0.0188,
      "velocity": 120,
      "chip": "ym2612"
    },
    {
      "channel": 2,
      "note": 52,
      "start": 55.9499,
      "duration": 0.0189,
      "velocity": 100,
      "chip": "ym2612"
    },
    {
      "channel": 0,
      "note": 44,
      "start": 55.9653,
      "duration": 0.0161,
      "velocity": 115,
      "chip": "ym2612"
    },
    {
      "channel": 4,
      "note": 57,
      "start": 55.9665,
      "duration": 0.0161,
      "velocity": 120,
      "chip": "ym2612"
    },
    {
      "channel": 3,
      "note": 64,
      "start": 55.9676,
      "duration": 0.0161,
      "velocity": 120,
      "chip": "ym2612"
    },
    {
      "channel": 2,
      "note": 52,
      "start": 55.9688,
      "duration": 0.0161,
      "velocity": 100,
      "chip": "ym2612"
    },
    {
      "channel": 0,
      "note": 44,
      "start": 55.9814,
      "duration": 0.0157,
      "velocity": 115,
      "chip": "ym2612"
    },
    {
      "channel": 4,
      "note": 57,
      "start": 55.9826,
      "duration": 0.0158,
      "velocity": 120,
      "chip": "ym2612"
    },
    {
      "channel": 3,
      "note": 64,
      "start": 55.9837,
      "duration": 0.0157,
      "velocity": 120,
      "chip": "ym2612"
    },
    {
      "channel": 2,
      "note": 52,
      "start": 55.9849,
      "duration": 0.0157,
      "velocity": 100,
      "chip": "ym2612"
    },
    {
      "channel": 0,
      "note": 44,
      "start": 55.9971,
      "duration": 0.0141,
      "velocity": 115,
      "chip": "ym2612"
    },
    {
      "channel": 4,
      "note": 57,
      "start": 55.9983,
      "duration": 0.014,
      "velocity": 120,
      "chip": "ym2612"
    },
    {
      "channel": 3,
      "note": 64,
      "start": 55.9994,
      "duration": 0.0141,
      "velocity": 120,
      "chip": "ym2612"
    },
    {
      "channel": 2,
      "note": 52,
      "start": 56.0006,
      "duration": 0.0141,
      "velocity": 100,
      "chip": "ym2612"
    },
    {
      "channel": 0,
      "note": 45,
      "start": 56.0112,
      "duration": 0.0158,
      "velocity": 115,
      "chip": "ym2612"
    },
    {
      "channel": 4,
      "note": 57,
      "start": 56.0123,
      "duration": 0.0185,
      "velocity": 120,
      "chip": "ym2612"
    },
    {
      "channel": 3,
      "note": 64,
      "start": 56.0135,
      "duration": 0.0185,
      "velocity": 120,
      "chip": "ym2612"
    },
    {
      "channel": 2,
      "note": 52,
      "start": 56.0146,
      "duration": 0.0185,
      "velocity": 100,
      "chip": "ym2612"
    },
    {
      "channel": 0,
      "note": 45,
      "start": 56.027,
      "duration": 0.0161,
      "velocity": 115,
      "chip": "ym2612"
    },
    {
      "channel": 4,
      "note": 57,
      "start": 56.0309,
      "duration": 0.0161,
      "velocity": 120,
      "chip": "ym2612"
    },
    {
      "channel": 3,
      "note": 64,
      "start": 56.032,
      "duration": 0.0161,
      "velocity": 120,
      "chip": "ym2612"
    },
    {
      "channel": 2,
      "note": 52,
      "start": 56.0332,
      "duration": 0.0161,
      "velocity": 100,
      "chip": "ym2612"
    },
    {
      "channel": 0,
      "note": 46,
      "start": 56.0431,
      "duration": 0.0161,
      "velocity": 115,
      "chip": "ym2612"
    },
    {
      "channel": 4,
      "note": 57,
      "start": 56.047,
      "duration": 0.0133,
      "velocity": 120,
      "chip": "ym2612"
    },
    {
      "channel": 3,
      "note": 64,
      "start": 56.0481,
      "duration": 0.0158,
      "velocity": 120,
      "chip": "ym2612"
    },
    {
      "channel": 2,
      "note": 52,
      "start": 56.0492,
      "duration": 0.0157,
      "velocity": 100,
      "chip": "ym2612"
    },
    {
      "channel": 0,
      "note": 46,
      "start": 56.0592,
      "duration": 0.0179,
      "velocity": 124,
      "chip": "ym2612"
    },
    {
      "channel": 4,
      "note": 57,
      "start": 56.0603,
      "duration": 0.0185,
      "velocity": 120,
      "chip": "ym2612"
    },
    {
      "channel": 3,
      "note": 64,
      "start": 56.0639,
      "duration": 0.0163,
      "velocity": 120,
      "chip": "ym2612"
    },
    {
      "channel": 2,
      "note": 52,
      "start": 56.0649,
      "duration": 0.0167,
      "velocity": 100,
      "chip": "ym2612"
    },
    {
      "channel": 0,
      "note": 84,
      "start": 56.0771,
      "duration": 0.0143,
      "velocity": 124,
      "chip": "ym2612"
    },
    {
      "channel": 4,
      "note": 57,
      "start": 56.0788,
      "duration": 0.0138,
      "velocity": 120,
      "chip": "ym2612"
    },
    {
      "channel": 3,
      "note": 64,
      "start": 56.0802,
      "duration": 0.0136,
      "velocity": 120,
      "chip": "ym2612"
    },
    {
      "channel": 2,
      "note": 52,
      "start": 56.0817,
      "duration": 0.0161,
      "velocity": 100,
      "chip": "ym2612"
    },
    {
      "channel": 0,
      "note": 82,
      "start": 56.0914,
      "duration": 0.0161,
      "velocity": 124,
      "chip": "ym2612"
    },
    {
      "channel": 4,
      "note": 57,
      "start": 56.0926,
      "duration": 0.016,
      "velocity": 120,
      "chip": "ym2612"
    },
    {
      "channel": 3,
      "note": 64,
      "start": 56.0938,
      "duration": 0.016,
      "velocity": 120,
      "chip": "ym2612"
    },
    {
      "channel": 2,
      "note": 52,
      "start": 56.0978,
      "duration": 0.0159,
      "velocity": 100,
      "chip": "ym2612"
    },
    {
      "channel": 0,
      "note": 80,
      "start": 56.1075,
      "duration": 0.0161,
      "velocity": 124,
      "chip": "ym2612"
    },
    {
      "channel": 4,
      "note": 57,
      "start": 56.1086,
      "duration": 0.0161,
      "velocity": 120,
      "chip": "ym2612"
    },
    {
      "channel": 3,
      "note": 64,
      "start": 56.1098,
      "duration": 0.0161,
      "velocity": 120,
      "chip": "ym2612"
    },
    {
      "channel": 2,
      "note": 52,
      "start": 56.1137,
      "duration": 0.0133,
      "velocity": 100,
      "chip": "ym2612"
    },
    {
      "channel": 0,
      "note": 77,
      "start": 56.1236,
      "duration": 0.0161,
      "velocity": 124,
      "chip": "ym2612"
    },
    {
      "channel": 4,
      "note": 57,
      "start": 56.1247,
      "duration": 0.0161,
      "velocity": 120,
      "chip": "ym2612"
    },
    {
      "channel": 3,
      "note": 64,
      "start": 56.1259,
      "duration": 0.0161,
      "velocity": 120,
      "chip": "ym2612"
    },
    {
      "channel": 2,
      "note": 52,
      "start": 56.127,
      "duration": 0.0162,
      "velocity": 100,
      "chip": "ym2612"
    },
    {
      "channel": 0,
      "note": 75,
      "start": 56.1397,
      "duration": 0.0161,
      "velocity": 124,
      "chip": "ym2612"
    },
    {
      "channel": 4,
      "note": 57,
      "start": 56.1408,
      "duration": 0.0161,
      "velocity": 120,
      "chip": "ym2612"
    },
    {
      "channel": 3,
      "note": 64,
      "start": 56.142,
      "duration": 0.0161,
      "velocity": 120,
      "chip": "ym2612"
    },
    {
      "channel": 2,
      "note": 52,
      "start": 56.1431,
      "duration": 0.0161,
      "velocity": 100,
      "chip": "ym2612"
    },
    {
      "channel": 0,
      "note": 72,
      "start": 56.1558,
      "duration": 0.0161,
      "velocity": 124,
      "chip": "ym2612"
    },
    {
      "channel": 4,
      "note": 57,
      "start": 56.1569,
      "duration": 0.0161,
      "velocity": 120,
      "chip": "ym2612"
    },
    {
      "channel": 3,
      "note": 64,
      "start": 56.1581,
      "duration": 0.0161,
      "velocity": 120,
      "chip": "ym2612"
    },
    {
      "channel": 2,
      "note": 52,
      "start": 56.1592,
      "duration": 0.0161,
      "velocity": 100,
      "chip": "ym2612"
    },
    {
      "channel": 0,
      "note": 70,
      "start": 56.1719,
      "duration": 0.0161,
      "velocity": 124,
      "chip": "ym2612"
    },
    {
      "channel": 4,
      "note": 57,
      "start": 56.173,
      "duration": 0.0161,
      "velocity": 120,
      "chip": "ym2612"
    },
    {
      "channel": 3,
      "note": 64,
      "start": 56.1742,
      "duration": 0.0161,
      "velocity": 120,
      "chip": "ym2612"
    },
    {
      "channel": 2,
      "note": 52,
      "start": 56.1753,
      "duration": 0.0161,
      "velocity": 100,
      "chip": "ym2612"
    },
    {
      "channel": 0,
      "note": 68,
      "start": 56.188,
      "duration": 0.0161,
      "velocity": 124,
      "chip": "ym2612"
    },
    {
      "channel": 4,
      "note": 57,
      "start": 56.1891,
      "duration": 0.0161,
      "velocity": 120,
      "chip": "ym2612"
    },
    {
      "channel": 3,
      "note": 64,
      "start": 56.1903,
      "duration": 0.0161,
      "velocity": 120,
      "chip": "ym2612"
    },
    {
      "channel": 2,
      "note": 52,
      "start": 56.1914,
      "duration": 0.0161,
      "velocity": 100,
      "chip": "ym2612"
    },
    {
      "channel": 0,
      "note": 65,
      "start": 56.2041,
      "duration": 0.0162,
      "velocity": 124,
      "chip": "ym2612"
    },
    {
      "channel": 4,
      "note": 57,
      "start": 56.2052,
      "duration": 0.0162,
      "velocity": 120,
      "chip": "ym2612"
    },
    {
      "channel": 3,
      "note": 64,
      "start": 56.2063,
      "duration": 0.0162,
      "velocity": 120,
      "chip": "ym2612"
    },
    {
      "channel": 2,
      "note": 52,
      "start": 56.2075,
      "duration": 0.0161,
      "velocity": 100,
      "chip": "ym2612"
    },
    {
      "channel": 0,
      "note": 63,
      "start": 56.2202,
      "duration": 0.0153,
      "velocity": 1,
      "chip": "ym2612"
    },
    {
      "channel": 4,
      "note": 57,
      "start": 56.2214,
      "duration": 0.0153,
      "velocity": 120,
      "chip": "ym2612"
    },
    {
      "channel": 3,
      "note": 64,
      "start": 56.2225,
      "duration": 0.0153,
      "velocity": 120,
      "chip": "ym2612"
    },
    {
      "channel": 2,
      "note": 52,
      "start": 56.2236,
      "duration": 0.0153,
      "velocity": 100,
      "chip": "ym2612"
    },
    {
      "channel": 4,
      "note": 57,
      "start": 56.2366,
      "duration": 0.0153,
      "velocity": 120,
      "chip": "ym2612"
    },
    {
      "channel": 3,
      "note": 64,
      "start": 56.2378,
      "duration": 0.0153,
      "velocity": 120,
      "chip": "ym2612"
    },
    {
      "channel": 2,
      "note": 52,
      "start": 56.2389,
      "duration": 0.0153,
      "velocity": 100,
      "chip": "ym2612"
    },
    {
      "channel": 4,
      "note": 57,
      "start": 56.2519,
      "duration": 0.0198,
      "velocity": 120,
      "chip": "ym2612"
    },
    {
      "channel": 3,
      "note": 64,
      "start": 56.2531,
      "duration": 0.02,
      "velocity": 120,
      "chip": "ym2612"
    },
    {
      "channel": 2,
      "note": 52,
      "start": 56.2541,
      "duration": 0.0204,
      "velocity": 100,
      "chip": "ym2612"
    },
    {
      "channel": 0,
      "note": 36,
      "start": 56.2703,
      "duration": 0.0144,
      "velocity": 115,
      "chip": "ym2612"
    },
    {
      "channel": 4,
      "note": 55,
      "start": 56.2717,
      "duration": 0.0142,
      "velocity": 120,
      "chip": "ym2612"
    },
    {
      "channel": 3,
      "note": 62,
      "start": 56.2731,
      "duration": 0.014,
      "velocity": 120,
      "chip": "ym2612"
    },
    {
      "channel": 2,
      "note": 52,
      "start": 56.2746,
      "duration": 0.0137,
      "velocity": 100,
      "chip": "ym2612"
    },
    {
      "channel": 0,
      "note": 36,
      "start": 56.2847,
      "duration": 0.016,
      "velocity": 115,
      "chip": "ym2612"
    },
    {
      "channel": 4,
      "note": 55,
      "start": 56.2859,
      "duration": 0.016,
      "velocity": 120,
      "chip": "ym2612"
    },
    {
      "channel": 3,
      "note": 62,
      "start": 56.2871,
      "duration": 0.0159,
      "velocity": 120,
      "chip": "ym2612"
    },
    {
      "channel": 2,
      "note": 52,
      "start": 56.2882,
      "duration": 0.0159,
      "velocity": 100,
      "chip": "ym2612"
    },
    {
      "channel": 0,
      "note": 37,
      "start": 56.3007,
      "duration": 0.0161,
      "velocity": 115,
      "chip": "ym2612"
    },
    {
      "channel": 4,
      "note": 55,
      "start": 56.3018,
      "duration": 0.0161,
      "velocity": 120,
      "chip": "ym2612"
    },
    {
      "channel": 3,
      "note": 62,
      "start": 56.303,
      "duration": 0.0161,
      "velocity": 120,
      "chip": "ym2612"
    },
    {
      "channel": 2,
      "note": 52,
      "start": 56.3041,
      "duration": 0.0161,
      "velocity": 100,
      "chip": "ym2612"
    },
    {
      "channel": 0,
      "note": 37,
      "start": 56.3168,
      "duration": 0.0161,
      "velocity": 115,
      "chip": "ym2612"
    },
    {
      "channel": 4,
      "note": 55,
      "start": 56.3179,
      "duration": 0.0161,
      "velocity": 120,
      "chip": "ym2612"
    },
    {
      "channel": 3,
      "note": 62,
      "start": 56.3191,
      "duration": 0.0161,
      "velocity": 120,
      "chip": "ym2612"
    },
    {
      "channel": 2,
      "note": 52,
      "start": 56.3202,
      "duration": 0.0161,
      "velocity": 100,
      "chip": "ym2612"
    },
    {
      "channel": 0,
      "note": 38,
      "start": 56.3329,
      "duration": 0.0161,
      "velocity": 115,
      "chip": "ym2612"
    },
    {
      "channel": 4,
      "note": 55,
      "start": 56.334,
      "duration": 0.0161,
      "velocity": 120,
      "chip": "ym2612"
    },
    {
      "channel": 3,
      "note": 62,
      "start": 56.3352,
      "duration": 0.0161,
      "velocity": 120,
      "chip": "ym2612"
    },
    {
      "channel": 2,
      "note": 52,
      "start": 56.3363,
      "duration": 0.0161,
      "velocity": 100,
      "chip": "ym2612"
    },
    {
      "channel": 0,
      "note": 38,
      "start": 56.349,
      "duration": 0.0164,
      "velocity": 115,
      "chip": "ym2612"
    },
    {
      "channel": 4,
      "note": 55,
      "start": 56.3502,
      "duration": 0.0163,
      "velocity": 120,
      "chip": "ym2612"
    },
    {
      "channel": 3,
      "note": 62,
      "start": 56.3513,
      "duration": 0.0164,
      "velocity": 120,
      "chip": "ym2612"
    },
    {
      "channel": 2,
      "note": 52,
      "start": 56.3524,
      "duration": 0.0163,
      "velocity": 100,
      "chip": "ym2612"
    },
    {
      "channel": 0,
      "note": 39,
      "start": 56.3654,
      "duration": 0.0167,
      "velocity": 115,
      "chip": "ym2612"
    },
    {
      "channel": 4,
      "note": 55,
      "start": 56.3665,
      "duration": 0.0167,
      "velocity": 120,
      "chip": "ym2612"
    },
    {
      "channel": 3,
      "note": 62,
      "start": 56.3677,
      "duration": 0.0167,
      "velocity": 120,
      "chip": "ym2612"
    },
    {
      "channel": 2,
      "note": 52,
      "start": 56.3688,
      "duration": 0.0167,
      "velocity": 100,
      "chip": "ym2612"
    },
    {
      "channel": 0,
      "note": 39,
      "start": 56.3821,
      "duration": 0.0163,
      "velocity": 115,
      "chip": "ym2612"
    },
    {
      "channel": 4,
      "note": 55,
      "start": 56.3832,
      "duration": 0.0163,
      "velocity": 120,
      "chip": "ym2612"
    },
    {
      "channel": 3,
      "note": 62,
      "start": 56.3844,
      "duration": 0.0163,
      "velocity": 120,
      "chip": "ym2612"
    },
    {
      "channel": 2,
      "note": 52,
      "start": 56.3854,
      "duration": 0.0163,
      "velocity": 100,
      "chip": "ym2612"
    },
    {
      "channel": 0,
      "note": 40,
      "start": 56.3983,
      "duration": 0.0151,
      "velocity": 115,
      "chip": "ym2612"
    },
    {
      "channel": 4,
      "note": 55,
      "start": 56.3995,
      "duration": 0.0151,
      "velocity": 120,
      "chip": "ym2612"
    },
    {
      "channel": 3,
      "note": 62,
      "start": 56.4006,
      "duration": 0.0151,
      "velocity": 120,
      "chip": "ym2612"
    },
    {
      "channel": 2,
      "note": 52,
      "start": 56.4018,
      "duration": 0.015,
      "velocity": 100,
      "chip": "ym2612"
    },
    {
      "channel": 0,
      "note": 40,
      "start": 56.4134,
      "duration": 0.0186,
      "velocity": 115,
      "chip": "ym2612"
    },
    {
      "channel": 4,
      "note": 55,
      "start": 56.4146,
      "duration": 0.0186,
      "velocity": 120,
      "chip": "ym2612"
    },
    {
      "channel": 3,
      "note": 62,
      "start": 56.4157,
      "duration": 0.0186,
      "velocity": 120,
      "chip": "ym2612"
    },
    {
      "channel": 2,
      "note": 52,
      "start": 56.4168,
      "duration": 0.0186,
      "velocity": 100,
      "chip": "ym2612"
    },
    {
      "channel": 0,
      "note": 40,
      "start": 56.4321,
      "duration": 0.0163,
      "velocity": 115,
      "chip": "ym2612"
    },
    {
      "channel": 4,
      "note": 55,
      "start": 56.4332,
      "duration": 0.0163,
      "velocity": 120,
      "chip": "ym2612"
    },
    {
      "channel": 3,
      "note": 62,
      "start": 56.4344,
      "duration": 0.0163,
      "velocity": 120,
      "chip": "ym2612"
    },
    {
      "channel": 2,
      "note": 52,
      "start": 56.4354,
      "duration": 0.0163,
      "velocity": 100,
      "chip": "ym2612"
    },
    {
      "channel": 0,
      "note": 41,
      "start": 56.4483,
      "duration": 0.0175,
      "velocity": 115,
      "chip": "ym2612"
    },
    {
      "channel": 4,
      "note": 55,
      "start": 56.4495,
      "duration": 0.0178,
      "velocity": 120,
      "chip": "ym2612"
    },
    {
      "channel": 3,
      "note": 62,
      "start": 56.4506,
      "duration": 0.018,
      "velocity": 120,
      "chip": "ym2612"
    },
    {
      "channel": 2,
      "note": 52,
      "start": 56.4518,
      "duration": 0.0183,
      "velocity": 100,
      "chip": "ym2612"
    },
    {
      "channel": 0,
      "note": 36,
      "start": 56.4659,
      "duration": 0.0123,
      "velocity": 115,
      "chip": "ym2612"
    },
    {
      "channel": 4,
      "note": 55,
      "start": 56.4673,
      "duration": 0.0121,
      "velocity": 120,
      "chip": "ym2612"
    },
    {
      "channel": 3,
      "note": 62,
      "start": 56.4687,
      "duration": 0.0119,
      "velocity": 120,
      "chip": "ym2612"
    },
    {
      "channel": 2,
      "note": 52,
      "start": 56.4702,
      "duration": 0.0117,
      "velocity": 100,
      "chip": "ym2612"
    },
    {
      "channel": 0,
      "note": 36,
      "start": 56.4782,
      "duration": 0.0157,
      "velocity": 115,
      "chip": "ym2612"
    },
    {
      "channel": 4,
      "note": 55,
      "start": 56.4794,
      "duration": 0.0185,
      "velocity": 120,
      "chip": "ym2612"
    },
    {
      "channel": 3,
      "note": 62,
      "start": 56.4806,
      "duration": 0.0183,
      "velocity": 120,
      "chip": "ym2612"
    },
    {
      "channel": 2,
      "note": 52,
      "start": 56.4818,
      "duration": 0.0183,
      "velocity": 100,
      "chip": "ym2612"
    },
    {
      "channel": 0,
      "note": 37,
      "start": 56.4939,
      "duration": 0.0161,
      "velocity": 115,
      "chip": "ym2612"
    },
    {
      "channel": 4,
      "note": 55,
      "start": 56.4978,
      "duration": 0.0161,
      "velocity": 120,
      "chip": "ym2612"
    },
    {
      "channel": 3,
      "note": 62,
      "start": 56.4989,
      "duration": 0.0161,
      "velocity": 120,
      "chip": "ym2612"
    },
    {
      "channel": 2,
      "note": 52,
      "start": 56.5001,
      "duration": 0.0161,
      "velocity": 100,
      "chip": "ym2612"
    },
    {
      "channel": 0,
      "note": 37,
      "start": 56.51,
      "duration": 0.0161,
      "velocity": 115,
      "chip": "ym2612"
    },
    {
      "channel": 4,
      "note": 55,
      "start": 56.5139,
      "duration": 0.0134,
      "velocity": 120,
      "chip": "ym2612"
    },
    {
      "channel": 3,
      "note": 62,
      "start": 56.515,
      "duration": 0.0158,
      "velocity": 120,
      "chip": "ym2612"
    },
    {
      "channel": 2,
      "note": 52,
      "start": 56.5161,
      "duration": 0.0158,
      "velocity": 100,
      "chip": "ym2612"
    },
    {
      "channel": 0,
      "note": 38,
      "start": 56.5261,
      "duration": 0.0162,
      "velocity": 115,
      "chip": "ym2612"
    },
    {
      "channel": 4,
      "note": 55,
      "start": 56.5273,
      "duration": 0.0161,
      "velocity": 120,
      "chip": "ym2612"
    },
    {
      "channel": 3,
      "note": 62,
      "start": 56.5308,
      "duration": 0.0141,
      "velocity": 120,
      "chip": "ym2612"
    },
    {
      "channel": 2,
      "note": 52,
      "start": 56.5319,
      "duration": 0.014,
      "velocity": 100,
      "chip": "ym2612"
    },
    {
      "channel": 0,
      "note": 38,
      "start": 56.5422,
      "duration": 0.0161,
      "velocity": 115,
      "chip": "ym2612"
    },
    {
      "channel": 4,
      "note": 55,
      "start": 56.5434,
      "duration": 0.0161,
      "velocity": 120,
      "chip": "ym2612"
    },
    {
      "channel": 3,
      "note": 62,
      "start": 56.5449,
      "duration": 0.0158,
      "velocity": 120,
      "chip": "ym2612"
    },
    {
      "channel": 2,
      "note": 52,
      "start": 56.5459,
      "duration": 0.0186,
      "velocity": 100,
      "chip": "ym2612"
    },
    {
      "channel": 0,
      "note": 39,
      "start": 56.5583,
      "duration": 0.0161,
      "velocity": 115,
      "chip": "ym2612"
    },
    {
      "channel": 4,
      "note": 55,
      "start": 56.5595,
      "duration": 0.0161,
      "velocity": 120,
      "chip": "ym2612"
    },
    {
      "channel": 3,
      "note": 62,
      "start": 56.5606,
      "duration": 0.0161,
      "velocity": 120,
      "chip": "ym2612"
    },
    {
      "channel": 2,
      "note": 52,
      "start": 56.5645,
      "duration": 0.0161,
      "velocity": 100,
      "chip": "ym2612"
    },
    {
      "channel": 0,
      "note": 39,
      "start": 56.5744,
      "duration": 0.0161,
      "velocity": 115,
      "chip": "ym2612"
    },
    {
      "channel": 4,
      "note": 55,
      "start": 56.5756,
      "duration": 0.0161,
      "velocity": 120,
      "chip": "ym2612"
    },
    {
      "channel": 3,
      "note": 62,
      "start": 56.5767,
      "duration": 0.0161,
      "velocity": 120,
      "chip": "ym2612"
    },
    {
      "channel": 2,
      "note": 52,
      "start": 56.5806,
      "duration": 0.0134,
      "velocity": 100,
      "chip": "ym2612"
    },
    {
      "channel": 0,
      "note": 40,
      "start": 56.5905,
      "duration": 0.0161,
      "velocity": 115,
      "chip": "ym2612"
    },
    {
      "channel": 4,
      "note": 55,
      "start": 56.5917,
      "duration": 0.0161,
      "velocity": 120,
      "chip": "ym2612"
    },
    {
      "channel": 3,
      "note": 62,
      "start": 56.5928,
      "duration": 0.0161,
      "velocity": 120,
      "chip": "ym2612"
    },
    {
      "channel": 2,
      "note": 52,
      "start": 56.5939,
      "duration": 0.0161,
      "velocity": 100,
      "chip": "ym2612"
    },
    {
      "channel": 0,
      "note": 40,
      "start": 56.6066,
      "duration": 0.0161,
      "velocity": 115,
      "chip": "ym2612"
    },
    {
      "channel": 4,
      "note": 55,
      "start": 56.6078,
      "duration": 0.0161,
      "velocity": 120,
      "chip": "ym2612"
    },
    {
      "channel": 3,
      "note": 62,
      "start": 56.6089,
      "duration": 0.0161,
      "velocity": 120,
      "chip": "ym2612"
    },
    {
      "channel": 2,
      "note": 52,
      "start": 56.61,
      "duration": 0.0161,
      "velocity": 100,
      "chip": "ym2612"
    },
    {
      "channel": 0,
      "note": 40,
      "start": 56.6227,
      "duration": 0.0161,
      "velocity": 115,
      "chip": "ym2612"
    },
    {
      "channel": 4,
      "note": 55,
      "start": 56.6239,
      "duration": 0.0161,
      "velocity": 120,
      "chip": "ym2612"
    },
    {
      "channel": 3,
      "note": 62,
      "start": 56.625,
      "duration": 0.0161,
      "velocity": 120,
      "chip": "ym2612"
    },
    {
      "channel": 2,
      "note": 52,
      "start": 56.6261,
      "duration": 0.0161,
      "velocity": 100,
      "chip": "ym2612"
    },
    {
      "channel": 0,
      "note": 41,
      "start": 56.6388,
      "duration": 0.0161,
      "velocity": 115,
      "chip": "ym2612"
    },
    {
      "channel": 4,
      "note": 55,
      "start": 56.64,
      "duration": 0.0163,
      "velocity": 120,
      "chip": "ym2612"
    },
    {
      "channel": 3,
      "note": 62,
      "start": 56.6411,
      "duration": 0.0166,
      "velocity": 120,
      "chip": "ym2612"
    },
    {
      "channel": 2,
      "note": 52,
      "start": 56.6422,
      "duration": 0.0169,
      "velocity": 100,
      "chip": "ym2612"
    },
    {
      "channel": 0,
      "note": 41,
      "start": 56.6549,
      "duration": 0.0161,
      "velocity": 115,
      "chip": "ym2612"
    },
    {
      "channel": 4,
      "note": 54,
      "start": 56.6563,
      "duration": 0.0159,
      "velocity": 120,
      "chip": "ym2612"
    },
    {
      "channel": 3,
      "note": 61,
      "start": 56.6577,
      "duration": 0.0157,
      "velocity": 120,
      "chip": "ym2612"
    },
    {
      "channel": 2,
      "note": 52,
      "start": 56.6592,
      "duration": 0.0155,
      "velocity": 100,
      "chip": "ym2612"
    },
    {
      "channel": 0,
      "note": 42,
      "start": 56.671,
      "duration": 0.0161,
      "velocity": 115,
      "chip": "ym2612"
    },
    {
      "channel": 4,
      "note": 54,
      "start": 56.6723,
      "duration": 0.016,
      "velocity": 120,
      "chip": "ym2612"
    },
    {
      "channel": 3,
      "note": 61,
      "start": 56.6734,
      "duration": 0.016,
      "velocity": 120,
      "chip": "ym2612"
    },
    {
      "channel": 2,
      "note": 52,
      "start": 56.6746,
      "duration": 0.0159,
      "velocity": 100,
      "chip": "ym2612"
    },
    {
      "channel": 0,
      "note": 42,
      "start": 56.6871,
      "duration": 0.0161,
      "velocity": 115,
      "chip": "ym2612"
    },
    {
      "channel": 4,
      "note": 54,
      "start": 56.6883,
      "duration": 0.0161,
      "velocity": 120,
      "chip": "ym2612"
    },
    {
      "channel": 3,
      "note": 61,
      "start": 56.6894,
      "duration": 0.0161,
      "velocity": 120,
      "chip": "ym2612"
    },
    {
      "channel": 2,
      "note": 52,
      "start": 56.6905,
      "duration": 0.0161,
      "velocity": 100,
      "chip": "ym2612"
    },
    {
      "channel": 0,
      "note": 43,
      "start": 56.7032,
      "duration": 0.0161,
      "velocity": 115,
      "chip": "ym2612"
    },
    {
      "channel": 4,
      "note": 54,
      "start": 56.7044,
      "duration": 0.0161,
      "velocity": 120,
      "chip": "ym2612"
    },
    {
      "channel": 3,
      "note": 61,
      "start": 56.7055,
      "duration": 0.0161,
      "velocity": 120,
      "chip": "ym2612"
    },
    {
      "channel": 2,
      "note": 52,
      "start": 56.7066,
      "duration": 0.0161,
      "velocity": 100,
      "chip": "ym2612"
    },
    {
      "channel": 0,
      "note": 43,
      "start": 56.7193,
      "duration": 0.0161,
      "velocity": 115,
      "chip": "ym2612"
    },
    {
      "channel": 4,
      "note": 54,
      "start": 56.7205,
      "duration": 0.0161,
      "velocity": 120,
      "chip": "ym2612"
    },
    {
      "channel": 3,
      "note": 61,
      "start": 56.7216,
      "duration": 0.0161,
      "velocity": 120,
      "chip": "ym2612"
    },
    {
      "channel": 2,
      "note": 52,
      "start": 56.7228,
      "duration": 0.0161,
      "velocity": 100,
      "chip": "ym2612"
    },
    {
      "channel": 0,
      "note": 44,
      "start": 56.7354,
      "duration": 0.0161,
      "velocity": 115,
      "chip": "ym2612"
    },
    {
      "channel": 4,
      "note": 54,
      "start": 56.7366,
      "duration": 0.0161,
      "velocity": 120,
      "chip": "ym2612"
    },
    {
      "channel": 3,
      "note": 61,
      "start": 56.7377,
      "duration": 0.0161,
      "velocity": 120,
      "chip": "ym2612"
    },
    {
      "channel": 2,
      "note": 52,
      "start": 56.7389,
      "duration": 0.0161,
      "velocity": 100,
      "chip": "ym2612"
    },
    {
      "channel": 0,
      "note": 44,
      "start": 56.7515,
      "duration": 0.0161,
      "velocity": 115,
      "chip": "ym2612"
    },
    {
      "channel": 4,
      "note": 54,
      "start": 56.7527,
      "duration": 0.0161,
      "velocity": 120,
      "chip": "ym2612"
    },
    {
      "channel": 3,
      "note": 61,
      "start": 56.7538,
      "duration": 0.0161,
      "velocity": 120,
      "chip": "ym2612"
    },
    {
      "channel": 2,
      "note": 52,
      "start": 56.755,
      "duration": 0.0161,
      "velocity": 100,
      "chip": "ym2612"
    },
    {
      "channel": 0,
      "note": 44,
      "start": 56.7676,
      "duration": 0.0161,
      "velocity": 115,
      "chip": "ym2612"
    },
    {
      "channel": 4,
      "note": 54,
      "start": 56.7688,
      "duration": 0.0161,
      "velocity": 120,
      "chip": "ym2612"
    },
    {
      "channel": 3,
      "note": 61,
      "start": 56.7699,
      "duration": 0.0161,
      "velocity": 120,
      "chip": "ym2612"
    },
    {
      "channel": 2,
      "note": 52,
      "start": 56.771,
      "duration": 0.0161,
      "velocity": 100,
      "chip": "ym2612"
    },
    {
      "channel": 0,
      "note": 45,
      "start": 56.7837,
      "duration": 0.0161,
      "velocity": 115,
      "chip": "ym2612"
    },
    {
      "channel": 4,
      "note": 54,
      "start": 56.7849,
      "duration": 0.0161,
      "velocity": 120,
      "chip": "ym2612"
    },
    {
      "channel": 3,
      "note": 61,
      "start": 56.786,
      "duration": 0.0161,
      "velocity": 120,
      "chip": "ym2612"
    },
    {
      "channel": 2,
      "note": 52,
      "start": 56.7871,
      "duration": 0.0161,
      "velocity": 100,
      "chip": "ym2612"
    },
    {
      "channel": 0,
      "note": 45,
      "start": 56.7998,
      "duration": 0.0161,
      "velocity": 115,
      "chip": "ym2612"
    },
    {
      "channel": 4,
      "note": 54,
      "start": 56.801,
      "duration": 0.0161,
      "velocity": 120,
      "chip": "ym2612"
    },
    {
      "channel": 3,
      "note": 61,
      "start": 56.8021,
      "duration": 0.0161,
      "velocity": 120,
      "chip": "ym2612"
    },
    {
      "channel": 2,
      "note": 52,
      "start": 56.8032,
      "duration": 0.0161,
      "velocity": 100,
      "chip": "ym2612"
    },
    {
      "channel": 0,
      "note": 46,
      "start": 56.8159,
      "duration": 0.0162,
      "velocity": 115,
      "chip": "ym2612"
    },
    {
      "channel": 4,
      "note": 54,
      "start": 56.8171,
      "duration": 0.0161,
      "velocity": 120,
      "chip": "ym2612"
    },
    {
      "channel": 3,
      "note": 61,
      "start": 56.8182,
      "duration": 0.0162,
      "velocity": 120,
      "chip": "ym2612"
    },
    {
      "channel": 2,
      "note": 52,
      "start": 56.8193,
      "duration": 0.0161,
      "velocity": 100,
      "chip": "ym2612"
    },
    {
      "channel": 0,
      "note": 46,
      "start": 56.8321,
      "duration": 0.0184,
      "velocity": 124,
      "chip": "ym2612"
    },
    {
      "channel": 4,
      "note": 54,
      "start": 56.8332,
      "duration": 0.0186,
      "velocity": 120,
      "chip": "ym2612"
    },
    {
      "channel": 3,
      "note": 61,
      "start": 56.8344,
      "duration": 0.0189,
      "velocity": 120,
      "chip": "ym2612"
    },
    {
      "channel": 2,
      "note": 52,
      "start": 56.8355,
      "duration": 0.0192,
      "velocity": 100,
      "chip": "ym2612"
    },
    {
      "channel": 0,
      "note": 84,
      "start": 56.8505,
      "duration": 0.0146,
      "velocity": 124,
      "chip": "ym2612"
    },
    {
      "channel": 4,
      "note": 54,
      "start": 56.8519,
      "duration": 0.0144,
      "velocity": 120,
      "chip": "ym2612"
    },
    {
      "channel": 3,
      "note": 61,
      "start": 56.8533,
      "duration": 0.0141,
      "velocity": 120,
      "chip": "ym2612"
    },
    {
      "channel": 2,
      "note": 52,
      "start": 56.8548,
      "duration": 0.0139,
      "velocity": 100,
      "chip": "ym2612"
    },
    {
      "channel": 0,
      "note": 82,
      "start": 56.8651,
      "duration": 0.0153,
      "velocity": 124,
      "chip": "ym2612"
    },
    {
      "channel": 4,
      "note": 54,
      "start": 56.8663,
      "duration": 0.0152,
      "velocity": 120,
      "chip": "ym2612"
    },
    {
      "channel": 3,
      "note": 61,
      "start": 56.8674,
      "duration": 0.0152,
      "velocity": 120,
      "chip": "ym2612"
    },
    {
      "channel": 2,
      "note": 52,
      "start": 56.8686,
      "duration": 0.0151,
      "velocity": 100,
      "chip": "ym2612"
    },
    {
      "channel": 0,
      "note": 80,
      "start": 56.8803,
      "duration": 0.0184,
      "velocity": 124,
      "chip": "ym2612"
    },
    {
      "channel": 4,
      "note": 54,
      "start": 56.8815,
      "duration": 0.0184,
      "velocity": 120,
      "chip": "ym2612"
    },
    {
      "channel": 3,
      "note": 61,
      "start": 56.8826,
      "duration": 0.0184,
      "velocity": 120,
      "chip": "ym2612"
    },
    {
      "channel": 2,
      "note": 52,
      "start": 56.8838,
      "duration": 0.0183,
      "velocity": 100,
      "chip": "ym2612"
    },
    {
      "channel": 0,
      "note": 77,
      "start": 56.8987,
      "duration": 0.0165,
      "velocity": 124,
      "chip": "ym2612"
    },
    {
      "channel": 4,
      "note": 54,
      "start": 56.8999,
      "duration": 0.0166,
      "velocity": 120,
      "chip": "ym2612"
    },
    {
      "channel": 3,
      "note": 61,
      "start": 56.901,
      "duration": 0.0165,
      "velocity": 120,
      "chip": "ym2612"
    },
    {
      "channel": 2,
      "note": 52,
      "start": 56.9021,
      "duration": 0.0166,
      "velocity": 100,
      "chip": "ym2612"
    },
    {
      "channel": 0,
      "note": 75,
      "start": 56.9153,
      "duration": 0.0158,
      "velocity": 124,
      "chip": "ym2612"
    },
    {
      "channel": 4,
      "note": 54,
      "start": 56.9165,
      "duration": 0.0157,
      "velocity": 120,
      "chip": "ym2612"
    },
    {
      "channel": 3,
      "note": 61,
      "start": 56.9176,
      "duration": 0.0158,
      "velocity": 120,
      "chip": "ym2612"
    },
    {
      "channel": 2,
      "note": 52,
      "start": 56.9187,
      "duration": 0.0158,
      "velocity": 100,
      "chip": "ym2612"
    },
    {
      "channel": 0,
      "note": 72,
      "start": 56.931,
      "duration": 0.014,
      "velocity": 124,
      "chip": "ym2612"
    },
    {
      "channel": 4,
      "note": 54,
      "start": 56.9322,
      "duration": 0.0141,
      "velocity": 120,
      "chip": "ym2612"
    },
    {
      "channel": 3,
      "note": 61,
      "start": 56.9333,
      "duration": 0.014,
      "velocity": 120,
      "chip": "ym2612"
    },
    {
      "channel": 2,
      "note": 52,
      "start": 56.9345,
      "duration": 0.014,
      "velocity": 100,
      "chip": "ym2612"
    },
    {
      "channel": 0,
      "note": 70,
      "start": 56.945,
      "duration": 0.0186,
      "velocity": 124,
      "chip": "ym2612"
    },
    {
      "channel": 4,
      "note": 54,
      "start": 56.9462,
      "duration": 0.0185,
      "velocity": 120,
      "chip": "ym2612"
    },
    {
      "channel": 3,
      "note": 61,
      "start": 56.9473,
      "duration": 0.0186,
      "velocity": 120,
      "chip": "ym2612"
    },
    {
      "channel": 2,
      "note": 52,
      "start": 56.9485,
      "duration": 0.0185,
      "velocity": 100,
      "chip": "ym2612"
    },
    {
      "channel": 0,
      "note": 68,
      "start": 56.9636,
      "duration": 0.0134,
      "velocity": 124,
      "chip": "ym2612"
    },
    {
      "channel": 4,
      "note": 54,
      "start": 56.9648,
      "duration": 0.0161,
      "velocity": 120,
      "chip": "ym2612"
    },
    {
      "channel": 3,
      "note": 61,
      "start": 56.9659,
      "duration": 0.0161,
      "velocity": 120,
      "chip": "ym2612"
    },
    {
      "channel": 2,
      "note": 52,
      "start": 56.967,
      "duration": 0.0162,
      "velocity": 100,
      "chip": "ym2612"
    },
    {
      "channel": 0,
      "note": 65,
      "start": 56.977,
      "duration": 0.0161,
      "velocity": 124,
      "chip": "ym2612"
    },
    {
      "channel": 4,
      "note": 54,
      "start": 56.9809,
      "duration": 0.0157,
      "velocity": 120,
      "chip": "ym2612"
    },
    {
      "channel": 3,
      "note": 61,
      "start": 56.982,
      "duration": 0.0157,
      "velocity": 120,
      "chip": "ym2612"
    },
    {
      "channel": 2,
      "note": 52,
      "start": 56.9832,
      "duration": 0.0157,
      "velocity": 100,
      "chip": "ym2612"
    },
    {
      "channel": 0,
      "note": 63,
      "start": 56.9931,
      "duration": 0.0153,
      "velocity": 1,
      "chip": "ym2612"
    },
    {
      "channel": 4,
      "note": 54,
      "start": 56.9966,
      "duration": 0.0129,
      "velocity": 120,
      "chip": "ym2612"
    },
    {
      "channel": 3,
      "note": 61,
      "start": 56.9977,
      "duration": 0.0129,
      "velocity": 120,
      "chip": "ym2612"
    },
    {
      "channel": 2,
      "note": 52,
      "start": 56.9988,
      "duration": 0.0132,
      "velocity": 100,
      "chip": "ym2612"
    },
    {
      "channel": 4,
      "note": 54,
      "start": 57.0095,
      "duration": 0.0153,
      "velocity": 120,
      "chip": "ym2612"
    },
    {
      "channel": 3,
      "note": 61,
      "start": 57.0106,
      "duration": 0.0153,
      "velocity": 120,
      "chip": "ym2612"
    },
    {
      "channel": 2,
      "note": 52,
      "start": 57.0121,
      "duration": 0.0149,
      "velocity": 100,
      "chip": "ym2612"
    },
    {
      "channel": 4,
      "note": 54,
      "start": 57.0247,
      "duration": 0.0163,
      "velocity": 120,
      "chip": "ym2612"
    },
    {
      "channel": 3,
      "note": 61,
      "start": 57.0259,
      "duration": 0.0166,
      "velocity": 120,
      "chip": "ym2612"
    },
    {
      "channel": 2,
      "note": 52,
      "start": 57.027,
      "duration": 0.0169,
      "velocity": 100,
      "chip": "ym2612"
    },
    {
      "channel": 4,
      "note": 52,
      "start": 57.0411,
      "duration": 0.0159,
      "velocity": 120,
      "chip": "ym2612"
    },
    {
      "channel": 3,
      "note": 59,
      "start": 57.0425,
      "duration": 0.0157,
      "velocity": 120,
      "chip": "ym2612"
    },
    {
      "channel": 2,
      "note": 52,
      "start": 57.0439,
      "duration": 0.0155,
      "velocity": 100,
      "chip": "ym2612"
    },
    {
      "channel": 4,
      "note": 52,
      "start": 57.057,
      "duration": 0.0161,
      "velocity": 120,
      "chip": "ym2612"
    },
    {
      "channel": 3,
      "note": 59,
      "start": 57.0582,
      "duration": 0.016,
      "velocity": 120,
      "chip": "ym2612"
    },
    {
      "channel": 2,
      "note": 52,
      "start": 57.0594,
      "duration": 0.0159,
      "velocity": 100,
      "chip": "ym2612"
    },
    {
      "channel": 4,
      "note": 52,
      "start": 57.0731,
      "duration": 0.0161,
      "velocity": 120,
      "chip": "ym2612"
    },
    {
      "channel": 3,
      "note": 59,
      "start": 57.0742,
      "duration": 0.0161,
      "velocity": 120,
      "chip": "ym2612"
    },
    {
      "channel": 2,
      "note": 52,
      "start": 57.0753,
      "duration": 0.0161,
      "velocity": 100,
      "chip": "ym2612"
    },
    {
      "channel": 4,
      "note": 52,
      "start": 57.0892,
      "duration": 0.0161,
      "velocity": 120,
      "chip": "ym2612"
    },
    {
      "channel": 3,
      "note": 59,
      "start": 57.0903,
      "duration": 0.0161,
      "velocity": 120,
      "chip": "ym2612"
    },
    {
      "channel": 2,
      "note": 52,
      "start": 57.0914,
      "duration": 0.0161,
      "velocity": 100,
      "chip": "ym2612"
    },
    {
      "channel": 4,
      "note": 52,
      "start": 57.1053,
      "duration": 0.0161,
      "velocity": 120,
      "chip": "ym2612"
    },
    {
      "channel": 3,
      "note": 59,
      "start": 57.1063,
      "duration": 0.0162,
      "velocity": 120,
      "chip": "ym2612"
    },
    {
      "channel": 2,
      "note": 52,
      "start": 57.1075,
      "duration": 0.0161,
      "velocity": 100,
      "chip": "ym2612"
    },
    {
      "channel": 4,
      "note": 52,
      "start": 57.1214,
      "duration": 0.0161,
      "velocity": 120,
      "chip": "ym2612"
    },
    {
      "channel": 3,
      "note": 59,
      "start": 57.1225,
      "duration": 0.0161,
      "velocity": 120,
      "chip": "ym2612"
    },
    {
      "channel": 2,
      "note": 52,
      "start": 57.1236,
      "duration": 0.0161,
      "velocity": 100,
      "chip": "ym2612"
    },
    {
      "channel": 4,
      "note": 52,
      "start": 57.1375,
      "duration": 0.0161,
      "velocity": 120,
      "chip": "ym2612"
    },
    {
      "channel": 3,
      "note": 59,
      "start": 57.1386,
      "duration": 0.0161,
      "velocity": 120,
      "chip": "ym2612"
    },
    {
      "channel": 2,
      "note": 52,
      "start": 57.1397,
      "duration": 0.0162,
      "velocity": 100,
      "chip": "ym2612"
    },
    {
      "channel": 4,
      "note": 52,
      "start": 57.1536,
      "duration": 0.0161,
      "velocity": 120,
      "chip": "ym2612"
    },
    {
      "channel": 3,
      "note": 59,
      "start": 57.1547,
      "duration": 0.0161,
      "velocity": 120,
      "chip": "ym2612"
    },
    {
      "channel": 2,
      "note": 52,
      "start": 57.1559,
      "duration": 0.0161,
      "velocity": 100,
      "chip": "ym2612"
    },
    {
      "channel": 4,
      "note": 52,
      "start": 57.1697,
      "duration": 0.0161,
      "velocity": 120,
      "chip": "ym2612"
    },
    {
      "channel": 3,
      "note": 59,
      "start": 57.1708,
      "duration": 0.0161,
      "velocity": 120,
      "chip": "ym2612"
    },
    {
      "channel": 2,
      "note": 52,
      "start": 57.172,
      "duration": 0.0161,
      "velocity": 100,
      "chip": "ym2612"
    },
    {
      "channel": 4,
      "note": 52,
      "start": 57.1858,
      "duration": 0.0161,
      "velocity": 120,
      "chip": "ym2612"
    },
    {
      "channel": 3,
      "note": 59,
      "start": 57.1869,
      "duration": 0.0161,
      "velocity": 120,
      "chip": "ym2612"
    },
    {
      "channel": 2,
      "note": 52,
      "start": 57.188,
      "duration": 0.0161,
      "velocity": 100,
      "chip": "ym2612"
    },
    {
      "channel": 4,
      "note": 52,
      "start": 57.2018,
      "duration": 0.0162,
      "velocity": 120,
      "chip": "ym2612"
    },
    {
      "channel": 3,
      "note": 59,
      "start": 57.203,
      "duration": 0.0161,
      "velocity": 120,
      "chip": "ym2612"
    },
    {
      "channel": 2,
      "note": 52,
      "start": 57.2041,
      "duration": 0.0161,
      "velocity": 100,
      "chip": "ym2612"
    },
    {
      "channel": 4,
      "note": 52,
      "start": 57.218,
      "duration": 0.0197,
      "velocity": 120,
      "chip": "ym2612"
    },
    {
      "channel": 3,
      "note": 59,
      "start": 57.2191,
      "duration": 0.02,
      "velocity": 120,
      "chip": "ym2612"
    },
    {
      "channel": 2,
      "note": 52,
      "start": 57.2202,
      "duration": 0.0204,
      "velocity": 100,
      "chip": "ym2612"
    },
    {
      "channel": 0,
      "note": 36,
      "start": 57.2363,
      "duration": 0.0144,
      "velocity": 115,
      "chip": "ym2612"
    },
    {
      "channel": 4,
      "note": 52,
      "start": 57.2378,
      "duration": 0.0141,
      "velocity": 120,
      "chip": "ym2612"
    },
    {
      "channel": 3,
      "note": 59,
      "start": 57.2391,
      "duration": 0.014,
      "velocity": 120,
      "chip": "ym2612"
    },
    {
      "channel": 2,
      "note": 52,
      "start": 57.2406,
      "duration": 0.0137,
      "velocity": 100,
      "chip": "ym2612"
    },
    {
      "channel": 0,
      "note": 36,
      "start": 57.2507,
      "duration": 0.0161,
      "velocity": 115,
      "chip": "ym2612"
    },
    {
      "channel": 4,
      "note": 52,
      "start": 57.2519,
      "duration": 0.016,
      "velocity": 120,
      "chip": "ym2612"
    },
    {
      "channel": 3,
      "note": 59,
      "start": 57.2531,
      "duration": 0.016,
      "velocity": 120,
      "chip": "ym2612"
    },
    {
      "channel": 2,
      "note": 52,
      "start": 57.2543,
      "duration": 0.0158,
      "velocity": 100,
      "chip": "ym2612"
    },
    {
      "channel": 0,
      "note": 37,
      "start": 57.2668,
      "duration": 0.0161,
      "velocity": 115,
      "chip": "ym2612"
    },
    {
      "channel": 4,
      "note": 52,
      "start": 57.2679,
      "duration": 0.0161,
      "velocity": 120,
      "chip": "ym2612"
    },
    {
      "channel": 3,
      "note": 59,
      "start": 57.2691,
      "duration": 0.0161,
      "velocity": 120,
      "chip": "ym2612"
    },
    {
      "channel": 2,
      "note": 52,
      "start": 57.2702,
      "duration": 0.0161,
      "velocity": 100,
      "chip": "ym2612"
    },
    {
      "channel": 0,
      "note": 37,
      "start": 57.2829,
      "duration": 0.0161,
      "velocity": 115,
      "chip": "ym2612"
    },
    {
      "channel": 4,
      "note": 52,
      "start": 57.284,
      "duration": 0.0161,
      "velocity": 120,
      "chip": "ym2612"
    },
    {
      "channel": 3,
      "note": 59,
      "start": 57.2852,
      "duration": 0.0161,
      "velocity": 120,
      "chip": "ym2612"
    },
    {
      "channel": 2,
      "note": 52,
      "start": 57.2863,
      "duration": 0.0162,
      "velocity": 100,
      "chip": "ym2612"
    },
    {
      "channel": 0,
      "note": 38,
      "start": 57.299,
      "duration": 0.0164,
      "velocity": 115,
      "chip": "ym2612"
    },
    {
      "channel": 4,
      "note": 52,
      "start": 57.3001,
      "duration": 0.0164,
      "velocity": 120,
      "chip": "ym2612"
    },
    {
      "channel": 3,
      "note": 59,
      "start": 57.3013,
      "duration": 0.0164,
      "velocity": 120,
      "chip": "ym2612"
    },
    {
      "channel": 2,
      "note": 52,
      "start": 57.3024,
      "duration": 0.0163,
      "velocity": 100,
      "chip": "ym2612"
    },
    {
      "channel": 0,
      "note": 38,
      "start": 57.3154,
      "duration": 0.0163,
      "velocity": 115,
      "chip": "ym2612"
    },
    {
      "channel": 4,
      "note": 52,
      "start": 57.3165,
      "duration": 0.0163,
      "velocity": 120,
      "chip": "ym2612"
    },
    {
      "channel": 3,
      "note": 59,
      "start": 57.3177,
      "duration": 0.0163,
      "velocity": 120,
      "chip": "ym2612"
    },
    {
      "channel": 2,
      "note": 52,
      "start": 57.3188,
      "duration": 0.0163,
      "velocity": 100,
      "chip": "ym2612"
    },
    {
      "channel": 0,
      "note": 39,
      "start": 57.3317,
      "duration": 0.0156,
      "velocity": 115,
      "chip": "ym2612"
    },
    {
      "channel": 4,
      "note": 52,
      "start": 57.3328,
      "duration": 0.0156,
      "velocity": 120,
      "chip": "ym2612"
    },
    {
      "channel": 3,
      "note": 59,
      "start": 57.334,
      "duration": 0.0156,
      "velocity": 120,
      "chip": "ym2612"
    },
    {
      "channel": 2,
      "note": 52,
      "start": 57.3351,
      "duration": 0.0156,
      "velocity": 100,
      "chip": "ym2612"
    },
    {
      "channel": 0,
      "note": 39,
      "start": 57.3473,
      "duration": 0.0181,
      "velocity": 115,
      "chip": "ym2612"
    },
    {
      "channel": 4,
      "note": 52,
      "start": 57.3484,
      "duration": 0.0181,
      "velocity": 120,
      "chip": "ym2612"
    },
    {
      "channel": 3,
      "note": 59,
      "start": 57.3495,
      "duration": 0.0181,
      "velocity": 120,
      "chip": "ym2612"
    },
    {
      "channel": 2,
      "note": 52,
      "start": 57.3507,
      "duration": 0.0181,
      "velocity": 100,
      "chip": "ym2612"
    },
    {
      "channel": 0,
      "note": 40,
      "start": 57.3654,
      "duration": 0.0167,
      "velocity": 115,
      "chip": "ym2612"
    },
    {
      "channel": 4,
      "note": 52,
      "start": 57.3665,
      "duration": 0.0167,
      "velocity": 120,
      "chip": "ym2612"
    },
    {
      "channel": 3,
      "note": 59,
      "start": 57.3677,
      "duration": 0.0167,
      "velocity": 120,
      "chip": "ym2612"
    },
    {
      "channel": 2,
      "note": 52,
      "start": 57.3688,
      "duration": 0.0167,
      "velocity": 100,
      "chip": "ym2612"
    },
    {
      "channel": 0,
      "note": 40,
      "start": 57.3821,
      "duration": 0.0159,
      "velocity": 115,
      "chip": "ym2612"
    },
    {
      "channel": 4,
      "note": 52,
      "start": 57.3832,
      "duration": 0.0159,
      "velocity": 120,
      "chip": "ym2612"
    },
    {
      "channel": 3,
      "note": 59,
      "start": 57.3844,
      "duration": 0.0159,
      "velocity": 120,
      "chip": "ym2612"
    },
    {
      "channel": 2,
      "note": 52,
      "start": 57.3854,
      "duration": 0.016,
      "velocity": 100,
      "chip": "ym2612"
    },
    {
      "channel": 0,
      "note": 40,
      "start": 57.398,
      "duration": 0.0141,
      "velocity": 115,
      "chip": "ym2612"
    },
    {
      "channel": 4,
      "note": 52,
      "start": 57.3991,
      "duration": 0.0141,
      "velocity": 120,
      "chip": "ym2612"
    },
    {
      "channel": 3,
      "note": 59,
      "start": 57.4002,
      "duration": 0.0141,
      "velocity": 120,
      "chip": "ym2612"
    },
    {
      "channel": 2,
      "note": 52,
      "start": 57.4014,
      "duration": 0.014,
      "velocity": 100,
      "chip": "ym2612"
    },
    {
      "channel": 0,
      "note": 41,
      "start": 57.412,
      "duration": 0.0185,
      "velocity": 115,
      "chip": "ym2612"
    },
    {
      "channel": 4,
      "note": 52,
      "start": 57.4132,
      "duration": 0.0187,
      "velocity": 120,
      "chip": "ym2612"
    },
    {
      "channel": 3,
      "note": 59,
      "start": 57.4143,
      "duration": 0.019,
      "velocity": 120,
      "chip": "ym2612"
    },
    {
      "channel": 2,
      "note": 52,
      "start": 57.4154,
      "duration": 0.0193,
      "velocity": 100,
      "chip": "ym2612"
    },
    {
      "channel": 0,
      "note": 41,
      "start": 57.4305,
      "duration": 0.0134,
      "velocity": 115,
      "chip": "ym2612"
    },
    {
      "channel": 4,
      "note": 57,
      "start": 57.4319,
      "duration": 0.0159,
      "velocity": 120,
      "chip": "ym2612"
    },
    {
      "channel": 3,
      "note": 64,
      "start": 57.4333,
      "duration": 0.0156,
      "velocity": 120,
      "chip": "ym2612"
    },
    {
      "channel": 2,
      "note": 52,
      "start": 57.4348,
      "duration": 0.0154,
      "velocity": 100,
      "chip": "ym2612"
    },
    {
      "channel": 0,
      "note": 42,
      "start": 57.4439,
      "duration": 0.0161,
      "velocity": 115,
      "chip": "ym2612"
    },
    {
      "channel": 4,
      "note": 57,
      "start": 57.4478,
      "duration": 0.0157,
      "velocity": 120,
      "chip": "ym2612"
    },
    {
      "channel": 3,
      "note": 64,
      "start": 57.449,
      "duration": 0.0156,
      "velocity": 120,
      "chip": "ym2612"
    },
    {
      "channel": 2,
      "note": 52,
      "start": 57.4502,
      "duration": 0.0156,
      "velocity": 100,
      "chip": "ym2612"
    },
    {
      "channel": 0,
      "note": 42,
      "start": 57.46,
      "duration": 0.0161,
      "velocity": 115,
      "chip": "ym2612"
    },
    {
      "channel": 4,
      "note": 57,
      "start": 57.4635,
      "duration": 0.0137,
      "velocity": 120,
      "chip": "ym2612"
    },
    {
      "channel": 3,
      "note": 64,
      "start": 57.4646,
      "duration": 0.0141,
      "velocity": 120,
      "chip": "ym2612"
    },
    {
      "channel": 2,
      "note": 52,
      "start": 57.4658,
      "duration": 0.0141,
      "velocity": 100,
      "chip": "ym2612"
    },
    {
      "channel": 0,
      "note": 43,
      "start": 57.4761,
      "duration": 0.0161,
      "velocity": 115,
      "chip": "ym2612"
    },
    {
      "channel": 4,
      "note": 57,
      "start": 57.4772,
      "duration": 0.0161,
      "velocity": 120,
      "chip": "ym2612"
    },
    {
      "channel": 3,
      "note": 64,
      "start": 57.4787,
      "duration": 0.0185,
      "velocity": 120,
      "chip": "ym2612"
    },
    {
      "channel": 2,
      "note": 52,
      "start": 57.4798,
      "duration": 0.0185,
      "velocity": 100,
      "chip": "ym2612"
    },
    {
      "channel": 0,
      "note": 43,
      "start": 57.4922,
      "duration": 0.0161,
      "velocity": 115,
      "chip": "ym2612"
    },
    {
      "channel": 4,
      "note": 57,
      "start": 57.4933,
      "duration": 0.0161,
      "velocity": 120,
      "chip": "ym2612"
    },
    {
      "channel": 3,
      "note": 64,
      "start": 57.4972,
      "duration": 0.0134,
      "velocity": 120,
      "chip": "ym2612"
    },
    {
      "channel": 2,
      "note": 52,
      "start": 57.4983,
      "duration": 0.0161,
      "velocity": 100,
      "chip": "ym2612"
    },
    {
      "channel": 0,
      "note": 44,
      "start": 57.5083,
      "duration": 0.0161,
      "velocity": 115,
      "chip": "ym2612"
    },
    {
      "channel": 4,
      "note": 57,
      "start": 57.5094,
      "duration": 0.0161,
      "velocity": 120,
      "chip": "ym2612"
    },
    {
      "channel": 3,
      "note": 64,
      "start": 57.5106,
      "duration": 0.0161,
      "velocity": 120,
      "chip": "ym2612"
    },
    {
      "channel": 2,
      "note": 52,
      "start": 57.5144,
      "duration": 0.0157,
      "velocity": 100,
      "chip": "ym2612"
    },
    {
      "channel": 0,
      "note": 44,
      "start": 57.5244,
      "duration": 0.0161,
      "velocity": 115,
      "chip": "ym2612"
    },
    {
      "channel": 4,
      "note": 57,
      "start": 57.5255,
      "duration": 0.0161,
      "velocity": 120,
      "chip": "ym2612"
    },
    {
      "channel": 3,
      "note": 64,
      "start": 57.5266,
      "duration": 0.0161,
      "velocity": 120,
      "chip": "ym2612"
    },
    {
      "channel": 2,
      "note": 52,
      "start": 57.5302,
      "duration": 0.0137,
      "velocity": 100,
      "chip": "ym2612"
    },
    {
      "channel": 0,
      "note": 44,
      "start": 57.5405,
      "duration": 0.0161,
      "velocity": 115,
      "chip": "ym2612"
    },
    {
      "channel": 4,
      "note": 57,
      "start": 57.5416,
      "duration": 0.0161,
      "velocity": 120,
      "chip": "ym2612"
    },
    {
      "channel": 3,
      "note": 64,
      "start": 57.5427,
      "duration": 0.0161,
      "velocity": 120,
      "chip": "ym2612"
    },
    {
      "channel": 2,
      "note": 52,
      "start": 57.5439,
      "duration": 0.0161,
      "velocity": 100,
      "chip": "ym2612"
    },
    {
      "channel": 0,
      "note": 45,
      "start": 57.5566,
      "duration": 0.0161,
      "velocity": 115,
      "chip": "ym2612"
    },
    {
      "channel": 4,
      "note": 57,
      "start": 57.5577,
      "duration": 0.0162,
      "velocity": 120,
      "chip": "ym2612"
    },
    {
      "channel": 3,
      "note": 64,
      "start": 57.5588,
      "duration": 0.0161,
      "velocity": 120,
      "chip": "ym2612"
    },
    {
      "channel": 2,
      "note": 52,
      "start": 57.56,
      "duration": 0.0161,
      "velocity": 100,
      "chip": "ym2612"
    },
    {
      "channel": 0,
      "note": 45,
      "start": 57.5727,
      "duration": 0.0161,
      "velocity": 115,
      "chip": "ym2612"
    },
    {
      "channel": 4,
      "note": 57,
      "start": 57.5739,
      "duration": 0.0161,
      "velocity": 120,
      "chip": "ym2612"
    },
    {
      "channel": 3,
      "note": 64,
      "start": 57.575,
      "duration": 0.0161,
      "velocity": 120,
      "chip": "ym2612"
    },
    {
      "channel": 2,
      "note": 52,
      "start": 57.5761,
      "duration": 0.0161,
      "velocity": 100,
      "chip": "ym2612"
    },
    {
      "channel": 0,
      "note": 46,
      "start": 57.5888,
      "duration": 0.0161,
      "velocity": 115,
      "chip": "ym2612"
    },
    {
      "channel": 4,
      "note": 57,
      "start": 57.59,
      "duration": 0.0161,
      "velocity": 120,
      "chip": "ym2612"
    },
    {
      "channel": 3,
      "note": 64,
      "start": 57.5911,
      "duration": 0.0161,
      "velocity": 120,
      "chip": "ym2612"
    },
    {
      "channel": 2,
      "note": 52,
      "start": 57.5922,
      "duration": 0.0161,
      "velocity": 100,
      "chip": "ym2612"
    },
    {
      "channel": 0,
      "note": 46,
      "start": 57.6049,
      "duration": 0.0179,
      "velocity": 124,
      "chip": "ym2612"
    },
    {
      "channel": 4,
      "note": 57,
      "start": 57.606,
      "duration": 0.0181,
      "velocity": 120,
      "chip": "ym2612"
    },
    {
      "channel": 3,
      "note": 64,
      "start": 57.6072,
      "duration": 0.0184,
      "velocity": 120,
      "chip": "ym2612"
    },
    {
      "channel": 2,
      "note": 52,
      "start": 57.6083,
      "duration": 0.0188,
      "velocity": 100,
      "chip": "ym2612"
    },
    {
      "channel": 0,
      "note": 84,
      "start": 57.6228,
      "duration": 0.0144,
      "velocity": 124,
      "chip": "ym2612"
    },
    {
      "channel": 4,
      "note": 57,
      "start": 57.6242,
      "duration": 0.0141,
      "velocity": 120,
      "chip": "ym2612"
    },
    {
      "channel": 3,
      "note": 64,
      "start": 57.6256,
      "duration": 0.014,
      "velocity": 120,
      "chip": "ym2612"
    },
    {
      "channel": 2,
      "note": 52,
      "start": 57.627,
      "duration": 0.0137,
      "velocity": 100,
      "chip": "ym2612"
    },
    {
      "channel": 0,
      "note": 82,
      "start": 57.6371,
      "duration": 0.016,
      "velocity": 124,
      "chip": "ym2612"
    },
    {
      "channel": 4,
      "note": 57,
      "start": 57.6384,
      "duration": 0.016,
      "velocity": 120,
      "chip": "ym2612"
    },
    {
      "channel": 3,
      "note": 64,
      "start": 57.6396,
      "duration": 0.0159,
      "velocity": 120,
      "chip": "ym2612"
    },
    {
      "channel": 2,
      "note": 52,
      "start": 57.6408,
      "duration": 0.0159,
      "velocity": 100,
      "chip": "ym2612"
    },
    {
      "channel": 0,
      "note": 80,
      "start": 57.6532,
      "duration": 0.0161,
      "velocity": 124,
      "chip": "ym2612"
    },
    {
      "channel": 4,
      "note": 57,
      "start": 57.6543,
      "duration": 0.0161,
      "velocity": 120,
      "chip": "ym2612"
    },
    {
      "channel": 3,
      "note": 64,
      "start": 57.6555,
      "duration": 0.0161,
      "velocity": 120,
      "chip": "ym2612"
    },
    {
      "channel": 2,
      "note": 52,
      "start": 57.6566,
      "duration": 0.0161,
      "velocity": 100,
      "chip": "ym2612"
    },
    {
      "channel": 0,
      "note": 77,
      "start": 57.6693,
      "duration": 0.0161,
      "velocity": 124,
      "chip": "ym2612"
    },
    {
      "channel": 4,
      "note": 57,
      "start": 57.6704,
      "duration": 0.0161,
      "velocity": 120,
      "chip": "ym2612"
    },
    {
      "channel": 3,
      "note": 64,
      "start": 57.6716,
      "duration": 0.0161,
      "velocity": 120,
      "chip": "ym2612"
    },
    {
      "channel": 2,
      "note": 52,
      "start": 57.6727,
      "duration": 0.0161,
      "velocity": 100,
      "chip": "ym2612"
    },
    {
      "channel": 0,
      "note": 75,
      "start": 57.6854,
      "duration": 0.0161,
      "velocity": 124,
      "chip": "ym2612"
    },
    {
      "channel": 4,
      "note": 57,
      "start": 57.6865,
      "duration": 0.0161,
      "velocity": 120,
      "chip": "ym2612"
    },
    {
      "channel": 3,
      "note": 64,
      "start": 57.6877,
      "duration": 0.0161,
      "velocity": 120,
      "chip": "ym2612"
    },
    {
      "channel": 2,
      "note": 52,
      "start": 57.6888,
      "duration": 0.0161,
      "velocity": 100,
      "chip": "ym2612"
    },
    {
      "channel": 0,
      "note": 72,
      "start": 57.7015,
      "duration": 0.0162,
      "velocity": 124,
      "chip": "ym2612"
    },
    {
      "channel": 4,
      "note": 57,
      "start": 57.7026,
      "duration": 0.0162,
      "velocity": 120,
      "chip": "ym2612"
    },
    {
      "channel": 3,
      "note": 64,
      "start": 57.7037,
      "duration": 0.0162,
      "velocity": 120,
      "chip": "ym2612"
    },
    {
      "channel": 2,
      "note": 52,
      "start": 57.7049,
      "duration": 0.0161,
      "velocity": 100,
      "chip": "ym2612"
    },
    {
      "channel": 0,
      "note": 70,
      "start": 57.7176,
      "duration": 0.0161,
      "velocity": 124,
      "chip": "ym2612"
    },
    {
      "channel": 4,
      "note": 57,
      "start": 57.7188,
      "duration": 0.0161,
      "velocity": 120,
      "chip": "ym2612"
    },
    {
      "channel": 3,
      "note": 64,
      "start": 57.7199,
      "duration": 0.0161,
      "velocity": 120,
      "chip": "ym2612"
    },
    {
      "channel": 2,
      "note": 52,
      "start": 57.721,
      "duration": 0.0161,
      "velocity": 100,
      "chip": "ym2612"
    },
    {
      "channel": 0,
      "note": 68,
      "start": 57.7337,
      "duration": 0.0161,
      "velocity": 124,
      "chip": "ym2612"
    },
    {
      "channel": 4,
      "note": 57,
      "start": 57.7349,
      "duration": 0.0161,
      "velocity": 120,
      "chip": "ym2612"
    },
    {
      "channel": 3,
      "note": 64,
      "start": 57.736,
      "duration": 0.0161,
      "velocity": 120,
      "chip": "ym2612"
    },
    {
      "channel": 2,
      "note": 52,
      "start": 57.7371,
      "duration": 0.0161,
      "velocity": 100,
      "chip": "ym2612"
    },
    {
      "channel": 0,
      "note": 65,
      "start": 57.7498,
      "duration": 0.0161,
      "velocity": 124,
      "chip": "ym2612"
    },
    {
      "channel": 4,
      "note": 57,
      "start": 57.751,
      "duration": 0.0161,
      "velocity": 120,
      "chip": "ym2612"
    },
    {
      "channel": 3,
      "note": 64,
      "start": 57.7521,
      "duration": 0.0161,
      "velocity": 120,
      "chip": "ym2612"
    },
    {
      "channel": 2,
      "note": 52,
      "start": 57.7532,
      "duration": 0.0161,
      "velocity": 100,
      "chip": "ym2612"
    },
    {
      "channel": 0,
      "note": 63,
      "start": 57.7659,
      "duration": 0.0153,
      "velocity": 1,
      "chip": "ym2612"
    },
    {
      "channel": 4,
      "note": 57,
      "start": 57.7671,
      "duration": 0.0153,
      "velocity": 120,
      "chip": "ym2612"
    },
    {
      "channel": 3,
      "note": 64,
      "start": 57.7682,
      "duration": 0.0153,
      "velocity": 120,
      "chip": "ym2612"
    },
    {
      "channel": 2,
      "note": 52,
      "start": 57.7693,
      "duration": 0.0153,
      "velocity": 100,
      "chip": "ym2612"
    },
    {
      "channel": 4,
      "note": 57,
      "start": 57.7824,
      "duration": 0.0155,
      "velocity": 120,
      "chip": "ym2612"
    },
    {
      "channel": 3,
      "note": 64,
      "start": 57.7835,
      "duration": 0.0155,
      "velocity": 120,
      "chip": "ym2612"
    },
    {
      "channel": 2,
      "note": 52,
      "start": 57.7846,
      "duration": 0.0155,
      "velocity": 100,
      "chip": "ym2612"
    },
    {
      "channel": 4,
      "note": 57,
      "start": 57.7978,
      "duration": 0.0195,
      "velocity": 120,
      "chip": "ym2612"
    },
    {
      "channel": 3,
      "note": 64,
      "start": 57.799,
      "duration": 0.0198,
      "velocity": 120,
      "chip": "ym2612"
    },
    {
      "channel": 2,
      "note": 52,
      "start": 57.8001,
      "duration": 0.0201,
      "velocity": 100,
      "chip": "ym2612"
    },
    {
      "channel": 0,
      "note": 36,
      "start": 57.816,
      "duration": 0.0162,
      "velocity": 115,
      "chip": "ym2612"
    },
    {
      "channel": 4,
      "note": 55,
      "start": 57.8174,
      "duration": 0.0159,
      "velocity": 120,
      "chip": "ym2612"
    },
    {
      "channel": 3,
      "note": 62,
      "start": 57.8188,
      "duration": 0.0157,
      "velocity": 120,
      "chip": "ym2612"
    },
    {
      "channel": 2,
      "note": 52,
      "start": 57.8202,
      "duration": 0.0155,
      "velocity": 100,
      "chip": "ym2612"
    },
    {
      "channel": 0,
      "note": 36,
      "start": 57.8321,
      "duration": 0.0166,
      "velocity": 115,
      "chip": "ym2612"
    },
    {
      "channel": 4,
      "note": 55,
      "start": 57.8333,
      "duration": 0.0165,
      "velocity": 120,
      "chip": "ym2612"
    },
    {
      "channel": 3,
      "note": 62,
      "start": 57.8345,
      "duration": 0.0166,
      "velocity": 120,
      "chip": "ym2612"
    },
    {
      "channel": 2,
      "note": 52,
      "start": 57.8357,
      "duration": 0.0164,
      "velocity": 100,
      "chip": "ym2612"
    },
    {
      "channel": 0,
      "note": 37,
      "start": 57.8487,
      "duration": 0.0161,
      "velocity": 115,
      "chip": "ym2612"
    },
    {
      "channel": 4,
      "note": 55,
      "start": 57.8499,
      "duration": 0.0162,
      "velocity": 120,
      "chip": "ym2612"
    },
    {
      "channel": 3,
      "note": 62,
      "start": 57.851,
      "duration": 0.0161,
      "velocity": 120,
      "chip": "ym2612"
    },
    {
      "channel": 2,
      "note": 52,
      "start": 57.8521,
      "duration": 0.0162,
      "velocity": 100,
      "chip": "ym2612"
    },
    {
      "channel": 0,
      "note": 37,
      "start": 57.8649,
      "duration": 0.0141,
      "velocity": 115,
      "chip": "ym2612"
    },
    {
      "channel": 4,
      "note": 55,
      "start": 57.8661,
      "duration": 0.014,
      "velocity": 120,
      "chip": "ym2612"
    },
    {
      "channel": 3,
      "note": 62,
      "start": 57.8672,
      "duration": 0.0141,
      "velocity": 120,
      "chip": "ym2612"
    },
    {
      "channel": 2,
      "note": 52,
      "start": 57.8683,
      "duration": 0.014,
      "velocity": 100,
      "chip": "ym2612"
    },
    {
      "channel": 0,
      "note": 38,
      "start": 57.8789,
      "duration": 0.0185,
      "velocity": 115,
      "chip": "ym2612"
    },
    {
      "channel": 4,
      "note": 55,
      "start": 57.8801,
      "duration": 0.0185,
      "velocity": 120,
      "chip": "ym2612"
    },
    {
      "channel": 3,
      "note": 62,
      "start": 57.8812,
      "duration": 0.0185,
      "velocity": 120,
      "chip": "ym2612"
    },
    {
      "channel": 2,
      "note": 52,
      "start": 57.8823,
      "duration": 0.0186,
      "velocity": 100,
      "chip": "ym2612"
    },
    {
      "channel": 0,
      "note": 38,
      "start": 57.8975,
      "duration": 0.0161,
      "velocity": 115,
      "chip": "ym2612"
    },
    {
      "channel": 4,
      "note": 55,
      "start": 57.8986,
      "duration": 0.0161,
      "velocity": 120,
      "chip": "ym2612"
    },
    {
      "channel": 3,
      "note": 62,
      "start": 57.8998,
      "duration": 0.0161,
      "velocity": 120,
      "chip": "ym2612"
    },
    {
      "channel": 2,
      "note": 52,
      "start": 57.9009,
      "duration": 0.0161,
      "velocity": 100,
      "chip": "ym2612"
    },
    {
      "channel": 0,
      "note": 39,
      "start": 57.9135,
      "duration": 0.0134,
      "velocity": 115,
      "chip": "ym2612"
    },
    {
      "channel": 4,
      "note": 55,
      "start": 57.9147,
      "duration": 0.0158,
      "velocity": 120,
      "chip": "ym2612"
    },
    {
      "channel": 3,
      "note": 62,
      "start": 57.9158,
      "duration": 0.0158,
      "velocity": 120,
      "chip": "ym2612"
    },
    {
      "channel": 2,
      "note": 52,
      "start": 57.917,
      "duration": 0.0157,
      "velocity": 100,
      "chip": "ym2612"
    },
    {
      "channel": 0,
      "note": 39,
      "start": 57.9269,
      "duration": 0.0161,
      "velocity": 115,
      "chip": "ym2612"
    },
    {
      "channel": 4,
      "note": 55,
      "start": 57.9305,
      "duration": 0.014,
      "velocity": 120,
      "chip": "ym2612"
    },
    {
      "channel": 3,
      "note": 62,
      "start": 57.9316,
      "duration": 0.014,
      "velocity": 120,
      "chip": "ym2612"
    },
    {
      "channel": 2,
      "note": 52,
      "start": 57.9327,
      "duration": 0.0141,
      "velocity": 100,
      "chip": "ym2612"
    },
    {
      "channel": 0,
      "note": 40,
      "start": 57.943,
      "duration": 0.0161,
      "velocity": 115,
      "chip": "ym2612"
    },
    {
      "channel": 4,
      "note": 55,
      "start": 57.9445,
      "duration": 0.0158,
      "velocity": 120,
      "chip": "ym2612"
    },
    {
      "channel": 3,
      "note": 62,
      "start": 57.9456,
      "duration": 0.0185,
      "velocity": 120,
      "chip": "ym2612"
    },
    {
      "channel": 2,
      "note": 52,
      "start": 57.9468,
      "duration": 0.0185,
      "velocity": 100,
      "chip": "ym2612"
    },
    {
      "channel": 0,
      "note": 40,
      "start": 57.9591,
      "duration": 0.0161,
      "velocity": 115,
      "chip": "ym2612"
    },
    {
      "channel": 4,
      "note": 55,
      "start": 57.9602,
      "duration": 0.0161,
      "velocity": 120,
      "chip": "ym2612"
    },
    {
      "channel": 3,
      "note": 62,
      "start": 57.9641,
      "duration": 0.0161,
      "velocity": 120,
      "chip": "ym2612"
    },
    {
      "channel": 2,
      "note": 52,
      "start": 57.9653,
      "duration": 0.0161,
      "velocity": 100,
      "chip": "ym2612"
    },
    {
      "channel": 0,
      "note": 40,
      "start": 57.9752,
      "duration": 0.0161,
      "velocity": 115,
      "chip": "ym2612"
    },
    {
      "channel": 4,
      "note": 55,
      "start": 57.9763,
      "duration": 0.0162,
      "velocity": 120,
      "chip": "ym2612"
    },
    {
      "channel": 3,
      "note": 62,
      "start": 57.9802,
      "duration": 0.0134,
      "velocity": 120,
      "chip": "ym2612"
    },
    {
      "channel": 2,
      "note": 52,
      "start": 57.9814,
      "duration": 0.0158,
      "velocity": 100,
      "chip": "ym2612"
    },
    {
      "channel": 0,
      "note": 41,
      "start": 57.9913,
      "duration": 0.0179,
      "velocity": 115,
      "chip": "ym2612"
    },
    {
      "channel": 4,
      "note": 55,
      "start": 57.9925,
      "duration": 0.0181,
      "velocity": 120,
      "chip": "ym2612"
    },
    {
      "channel": 3,
      "note": 62,
      "start": 57.9936,
      "duration": 0.0187,
      "velocity": 120,
      "chip": "ym2612"
    },
    {
      "channel": 2,
      "note": 52,
      "start": 57.9971,
      "duration": 0.0166,
      "velocity": 100,
      "chip": "ym2612"
    },
    {
      "channel": 0,
      "note": 36,
      "start": 58.0092,
      "duration": 0.0144,
      "velocity": 115,
      "chip": "ym2612"
    },
    {
      "channel": 4,
      "note": 55,
      "start": 58.0106,
      "duration": 0.0142,
      "velocity": 120,
      "chip": "ym2612"
    },
    {
      "channel": 3,
      "note": 62,
      "start": 58.0123,
      "duration": 0.0136,
      "velocity": 120,
      "chip": "ym2612"
    },
    {
      "channel": 2,
      "note": 52,
      "start": 58.0138,
      "duration": 0.0134,
      "velocity": 100,
      "chip": "ym2612"
    },
    {
      "channel": 0,
      "note": 36,
      "start": 58.0236,
      "duration": 0.016,
      "velocity": 115,
      "chip": "ym2612"
    },
    {
      "channel": 4,
      "note": 55,
      "start": 58.0248,
      "duration": 0.016,
      "velocity": 120,
      "chip": "ym2612"
    },
    {
      "channel": 3,
      "note": 62,
      "start": 58.026,
      "duration": 0.016,
      "velocity": 120,
      "chip": "ym2612"
    },
    {
      "channel": 2,
      "note": 52,
      "start": 58.0272,
      "duration": 0.0159,
      "velocity": 100,
      "chip": "ym2612"
    },
    {
      "channel": 0,
      "note": 37,
      "start": 58.0396,
      "duration": 0.0161,
      "velocity": 115,
      "chip": "ym2612"
    },
    {
      "channel": 4,
      "note": 55,
      "start": 58.0408,
      "duration": 0.0161,
      "velocity": 120,
      "chip": "ym2612"
    },
    {
      "channel": 3,
      "note": 62,
      "start": 58.0419,
      "duration": 0.0161,
      "velocity": 120,
      "chip": "ym2612"
    },
    {
      "channel": 2,
      "note": 52,
      "start": 58.0431,
      "duration": 0.0161,
      "velocity": 100,
      "chip": "ym2612"
    },
    {
      "channel": 0,
      "note": 37,
      "start": 58.0557,
      "duration": 0.0161,
      "velocity": 115,
      "chip": "ym2612"
    },
    {
      "channel": 4,
      "note": 55,
      "start": 58.0569,
      "duration": 0.0161,
      "velocity": 120,
      "chip": "ym2612"
    },
    {
      "channel": 3,
      "note": 62,
      "start": 58.058,
      "duration": 0.0161,
      "velocity": 120,
      "chip": "ym2612"
    },
    {
      "channel": 2,
      "note": 52,
      "start": 58.0592,
      "duration": 0.0161,
      "velocity": 100,
      "chip": "ym2612"
    },
    {
      "channel": 0,
      "note": 38,
      "start": 58.0718,
      "duration": 0.0161,
      "velocity": 115,
      "chip": "ym2612"
    },
    {
      "channel": 4,
      "note": 55,
      "start": 58.073,
      "duration": 0.0161,
      "velocity": 120,
      "chip": "ym2612"
    },
    {
      "channel": 3,
      "note": 62,
      "start": 58.0741,
      "duration": 0.0161,
      "velocity": 120,
      "chip": "ym2612"
    },
    {
      "channel": 2,
      "note": 52,
      "start": 58.0753,
      "duration": 0.0161,
      "velocity": 100,
      "chip": "ym2612"
    },
    {
      "channel": 0,
      "note": 38,
      "start": 58.0879,
      "duration": 0.0161,
      "velocity": 115,
      "chip": "ym2612"
    },
    {
      "channel": 4,
      "note": 55,
      "start": 58.089,
      "duration": 0.0161,
      "velocity": 120,
      "chip": "ym2612"
    },
    {
      "channel": 3,
      "note": 62,
      "start": 58.0902,
      "duration": 0.0161,
      "velocity": 120,
      "chip": "ym2612"
    },
    {
      "channel": 2,
      "note": 52,
      "start": 58.0913,
      "duration": 0.0161,
      "velocity": 100,
      "chip": "ym2612"
    },
    {
      "channel": 0,
      "note": 39,
      "start": 58.104,
      "duration": 0.0161,
      "velocity": 115,
      "chip": "ym2612"
    },
    {
      "channel": 4,
      "note": 55,
      "start": 58.1051,
      "duration": 0.0161,
      "velocity": 120,
      "chip": "ym2612"
    },
    {
      "channel": 3,
      "note": 62,
      "start": 58.1063,
      "duration": 0.0161,
      "velocity": 120,
      "chip": "ym2612"
    },
    {
      "channel": 2,
      "note": 52,
      "start": 58.1074,
      "duration": 0.0161,
      "velocity": 100,
      "chip": "ym2612"
    },
    {
      "channel": 0,
      "note": 39,
      "start": 58.1201,
      "duration": 0.0161,
      "velocity": 115,
      "chip": "ym2612"
    },
    {
      "channel": 4,
      "note": 55,
      "start": 58.1212,
      "duration": 0.0161,
      "velocity": 120,
      "chip": "ym2612"
    },
    {
      "channel": 3,
      "note": 62,
      "start": 58.1224,
      "duration": 0.0161,
      "velocity": 120,
      "chip": "ym2612"
    },
    {
      "channel": 2,
      "note": 52,
      "start": 58.1235,
      "duration": 0.0161,
      "velocity": 100,
      "chip": "ym2612"
    },
    {
      "channel": 0,
      "note": 40,
      "start": 58.1362,
      "duration": 0.0161,
      "velocity": 115,
      "chip": "ym2612"
    },
    {
      "channel": 4,
      "note": 55,
      "start": 58.1374,
      "duration": 0.0161,
      "velocity": 120,
      "chip": "ym2612"
    },
    {
      "channel": 3,
      "note": 62,
      "start": 58.1385,
      "duration": 0.0161,
      "velocity": 120,
      "chip": "ym2612"
    },
    {
      "channel": 2,
      "note": 52,
      "start": 58.1396,
      "duration": 0.0161,
      "velocity": 100,
      "chip": "ym2612"
    },
    {
      "channel": 0,
      "note": 40,
      "start": 58.1523,
      "duration": 0.0161,
      "velocity": 115,
      "chip": "ym2612"
    },
    {
      "channel": 4,
      "note": 55,
      "start": 58.1535,
      "duration": 0.0161,
      "velocity": 120,
      "chip": "ym2612"
    },
    {
      "channel": 3,
      "note": 62,
      "start": 58.1546,
      "duration": 0.0161,
      "velocity": 120,
      "chip": "ym2612"
    },
    {
      "channel": 2,
      "note": 52,
      "start": 58.1557,
      "duration": 0.0161,
      "velocity": 100,
      "chip": "ym2612"
    },
    {
      "channel": 0,
      "note": 40,
      "start": 58.1684,
      "duration": 0.0161,
      "velocity": 115,
      "chip": "ym2612"
    },
    {
      "channel": 4,
      "note": 55,
      "start": 58.1696,
      "duration": 0.0161,
      "velocity": 120,
      "chip": "ym2612"
    },
    {
      "channel": 3,
      "note": 62,
      "start": 58.1707,
      "duration": 0.0161,
      "velocity": 120,
      "chip": "ym2612"
    },
    {
      "channel": 2,
      "note": 52,
      "start": 58.1718,
      "duration": 0.0162,
      "velocity": 100,
      "chip": "ym2612"
    },
    {
      "channel": 0,
      "note": 41,
      "start": 58.1845,
      "duration": 0.0179,
      "velocity": 115,
      "chip": "ym2612"
    },
    {
      "channel": 4,
      "note": 55,
      "start": 58.1857,
      "duration": 0.0181,
      "velocity": 120,
      "chip": "ym2612"
    },
    {
      "channel": 3,
      "note": 62,
      "start": 58.1868,
      "duration": 0.0184,
      "velocity": 120,
      "chip": "ym2612"
    },
    {
      "channel": 2,
      "note": 52,
      "start": 58.188,
      "duration": 0.0187,
      "velocity": 100,
      "chip": "ym2612"
    },
    {
      "channel": 0,
      "note": 36,
      "start": 58.2024,
      "duration": 0.0144,
      "velocity": 115,
      "chip": "ym2612"
    },
    {
      "channel": 4,
      "note": 54,
      "start": 58.2039,
      "duration": 0.0141,
      "velocity": 120,
      "chip": "ym2612"
    },
    {
      "channel": 3,
      "note": 61,
      "start": 58.2052,
      "duration": 0.014,
      "velocity": 120,
      "chip": "ym2612"
    },
    {
      "channel": 2,
      "note": 52,
      "start": 58.2067,
      "duration": 0.0137,
      "velocity": 100,
      "chip": "ym2612"
    },
    {
      "channel": 0,
      "note": 36,
      "start": 58.2168,
      "duration": 0.016,
      "velocity": 115,
      "chip": "ym2612"
    },
    {
      "channel": 4,
      "note": 54,
      "start": 58.218,
      "duration": 0.016,
      "velocity": 120,
      "chip": "ym2612"
    },
    {
      "channel": 3,
      "note": 61,
      "start": 58.2192,
      "duration": 0.0159,
      "velocity": 120,
      "chip": "ym2612"
    },
    {
      "channel": 2,
      "note": 52,
      "start": 58.2204,
      "duration": 0.0159,
      "velocity": 100,
      "chip": "ym2612"
    },
    {
      "channel": 0,
      "note": 37,
      "start": 58.2328,
      "duration": 0.0161,
      "velocity": 115,
      "chip": "ym2612"
    },
    {
      "channel": 4,
      "note": 54,
      "start": 58.234,
      "duration": 0.0161,
      "velocity": 120,
      "chip": "ym2612"
    },
    {
      "channel": 3,
      "note": 61,
      "start": 58.2351,
      "duration": 0.0161,
      "velocity": 120,
      "chip": "ym2612"
    },
    {
      "channel": 2,
      "note": 52,
      "start": 58.2363,
      "duration": 0.0161,
      "velocity": 100,
      "chip": "ym2612"
    },
    {
      "channel": 0,
      "note": 37,
      "start": 58.2489,
      "duration": 0.0162,
      "velocity": 115,
      "chip": "ym2612"
    },
    {
      "channel": 4,
      "note": 54,
      "start": 58.2501,
      "duration": 0.0161,
      "velocity": 120,
      "chip": "ym2612"
    },
    {
      "channel": 3,
      "note": 61,
      "start": 58.2512,
      "duration": 0.0162,
      "velocity": 120,
      "chip": "ym2612"
    },
    {
      "channel": 2,
      "note": 52,
      "start": 58.2524,
      "duration": 0.0161,
      "velocity": 100,
      "chip": "ym2612"
    },
    {
      "channel": 0,
      "note": 38,
      "start": 58.2651,
      "duration": 0.016,
      "velocity": 115,
      "chip": "ym2612"
    },
    {
      "channel": 4,
      "note": 54,
      "start": 58.2662,
      "duration": 0.0161,
      "velocity": 120,
      "chip": "ym2612"
    },
    {
      "channel": 3,
      "note": 61,
      "start": 58.2674,
      "duration": 0.016,
      "velocity": 120,
      "chip": "ym2612"
    },
    {
      "channel": 2,
      "note": 52,
      "start": 58.2685,
      "duration": 0.016,
      "velocity": 100,
      "chip": "ym2612"
    },
    {
      "channel": 0,
      "note": 38,
      "start": 58.2811,
      "duration": 0.0176,
      "velocity": 115,
      "chip": "ym2612"
    },
    {
      "channel": 4,
      "note": 54,
      "start": 58.2823,
      "duration": 0.0176,
      "velocity": 120,
      "chip": "ym2612"
    },
    {
      "channel": 3,
      "note": 61,
      "start": 58.2834,
      "duration": 0.0176,
      "velocity": 120,
      "chip": "ym2612"
    },
    {
      "channel": 2,
      "note": 52,
      "start": 58.2845,
      "duration": 0.0176,
      "velocity": 100,
      "chip": "ym2612"
    },
    {
      "channel": 0,
      "note": 39,
      "start": 58.2987,
      "duration": 0.0167,
      "velocity": 115,
      "chip": "ym2612"
    },
    {
      "channel": 4,
      "note": 54,
      "start": 58.2999,
      "duration": 0.0167,
      "velocity": 120,
      "chip": "ym2612"
    },
    {
      "channel": 3,
      "note": 61,
      "start": 58.301,
      "duration": 0.0167,
      "velocity": 120,
      "chip": "ym2612"
    },
    {
      "channel": 2,
      "note": 52,
      "start": 58.3021,
      "duration": 0.0167,
      "velocity": 100,
      "chip": "ym2612"
    },
    {
      "channel": 0,
      "note": 39,
      "start": 58.3154,
      "duration": 0.0163,
      "velocity": 115,
      "chip": "ym2612"
    },
    {
      "channel": 4,
      "note": 54,
      "start": 58.3165,
      "duration": 0.0163,
      "velocity": 120,
      "chip": "ym2612"
    },
    {
      "channel": 3,
      "note": 61,
      "start": 58.3177,
      "duration": 0.0163,
      "velocity": 120,
      "chip": "ym2612"
    },
    {
      "channel": 2,
      "note": 52,
      "start": 58.3188,
      "duration": 0.0163,
      "velocity": 100,
      "chip": "ym2612"
    },
    {
      "channel": 0,
      "note": 40,
      "start": 58.3317,
      "duration": 0.0142,
      "velocity": 115,
      "chip": "ym2612"
    },
    {
      "channel": 4,
      "note": 54,
      "start": 58.3328,
      "duration": 0.0142,
      "velocity": 120,
      "chip": "ym2612"
    },
    {
      "channel": 3,
      "note": 61,
      "start": 58.334,
      "duration": 0.0142,
      "velocity": 120,
      "chip": "ym2612"
    },
    {
      "channel": 2,
      "note": 52,
      "start": 58.3351,
      "duration": 0.0142,
      "velocity": 100,
      "chip": "ym2612"
    },
    {
      "channel": 0,
      "note": 40,
      "start": 58.3459,
      "duration": 0.0185,
      "velocity": 115,
      "chip": "ym2612"
    },
    {
      "channel": 4,
      "note": 54,
      "start": 58.347,
      "duration": 0.0185,
      "velocity": 120,
      "chip": "ym2612"
    },
    {
      "channel": 3,
      "note": 61,
      "start": 58.3482,
      "duration": 0.0185,
      "velocity": 120,
      "chip": "ym2612"
    },
    {
      "channel": 2,
      "note": 52,
      "start": 58.3493,
      "duration": 0.0185,
      "velocity": 100,
      "chip": "ym2612"
    },
    {
      "channel": 0,
      "note": 40,
      "start": 58.3644,
      "duration": 0.0161,
      "velocity": 115,
      "chip": "ym2612"
    },
    {
      "channel": 4,
      "note": 54,
      "start": 58.3655,
      "duration": 0.0161,
      "velocity": 120,
      "chip": "ym2612"
    },
    {
      "channel": 3,
      "note": 61,
      "start": 58.3667,
      "duration": 0.0161,
      "velocity": 120,
      "chip": "ym2612"
    },
    {
      "channel": 2,
      "note": 52,
      "start": 58.3678,
      "duration": 0.0161,
      "velocity": 100,
      "chip": "ym2612"
    },
    {
      "channel": 0,
      "note": 41,
      "start": 58.3805,
      "duration": 0.0175,
      "velocity": 124,
      "chip": "ym2612"
    },
    {
      "channel": 4,
      "note": 54,
      "start": 58.3816,
      "duration": 0.0178,
      "velocity": 120,
      "chip": "ym2612"
    },
    {
      "channel": 3,
      "note": 61,
      "start": 58.3828,
      "duration": 0.018,
      "velocity": 120,
      "chip": "ym2612"
    },
    {
      "channel": 2,
      "note": 52,
      "start": 58.3839,
      "duration": 0.0183,
      "velocity": 100,
      "chip": "ym2612"
    },
    {
      "channel": 0,
      "note": 84,
      "start": 58.398,
      "duration": 0.012,
      "velocity": 124,
      "chip": "ym2612"
    },
    {
      "channel": 4,
      "note": 54,
      "start": 58.3994,
      "duration": 0.0122,
      "velocity": 120,
      "chip": "ym2612"
    },
    {
      "channel": 3,
      "note": 61,
      "start": 58.4008,
      "duration": 0.0119,
      "velocity": 120,
      "chip": "ym2612"
    },
    {
      "channel": 2,
      "note": 52,
      "start": 58.4023,
      "duration": 0.0116,
      "velocity": 100,
      "chip": "ym2612"
    },
    {
      "channel": 0,
      "note": 82,
      "start": 58.41,
      "duration": 0.016,
      "velocity": 124,
      "chip": "ym2612"
    },
    {
      "channel": 4,
      "note": 54,
      "start": 58.4116,
      "duration": 0.0156,
      "velocity": 120,
      "chip": "ym2612"
    },
    {
      "channel": 3,
      "note": 61,
      "start": 58.4127,
      "duration": 0.0184,
      "velocity": 120,
      "chip": "ym2612"
    },
    {
      "channel": 2,
      "note": 52,
      "start": 58.4139,
      "duration": 0.0183,
      "velocity": 100,
      "chip": "ym2612"
    },
    {
      "channel": 0,
      "note": 80,
      "start": 58.426,
      "duration": 0.0161,
      "velocity": 124,
      "chip": "ym2612"
    },
    {
      "channel": 4,
      "note": 54,
      "start": 58.4272,
      "duration": 0.0161,
      "velocity": 120,
      "chip": "ym2612"
    },
    {
      "channel": 3,
      "note": 61,
      "start": 58.4311,
      "duration": 0.0161,
      "velocity": 120,
      "chip": "ym2612"
    },
    {
      "channel": 2,
      "note": 52,
      "start": 58.4322,
      "duration": 0.0161,
      "velocity": 100,
      "chip": "ym2612"
    },
    {
      "channel": 0,
      "note": 77,
      "start": 58.4421,
      "duration": 0.0162,
      "velocity": 124,
      "chip": "ym2612"
    },
    {
      "channel": 4,
      "note": 54,
      "start": 58.4433,
      "duration": 0.0161,
      "velocity": 120,
      "chip": "ym2612"
    },
    {
      "channel": 3,
      "note": 61,
      "start": 58.4472,
      "duration": 0.0134,
      "velocity": 120,
      "chip": "ym2612"
    },
    {
      "channel": 2,
      "note": 52,
      "start": 58.4483,
      "duration": 0.0158,
      "velocity": 100,
      "chip": "ym2612"
    },
    {
      "channel": 0,
      "note": 75,
      "start": 58.4583,
      "duration": 0.0161,
      "velocity": 124,
      "chip": "ym2612"
    },
    {
      "channel": 4,
      "note": 54,
      "start": 58.4594,
      "duration": 0.0161,
      "velocity": 120,
      "chip": "ym2612"
    },
    {
      "channel": 3,
      "note": 61,
      "start": 58.4606,
      "duration": 0.0161,
      "velocity": 120,
      "chip": "ym2612"
    },
    {
      "channel": 2,
      "note": 52,
      "start": 58.4641,
      "duration": 0.0141,
      "velocity": 100,
      "chip": "ym2612"
    },
    {
      "channel": 0,
      "note": 72,
      "start": 58.4744,
      "duration": 0.0161,
      "velocity": 124,
      "chip": "ym2612"
    },
    {
      "channel": 4,
      "note": 54,
      "start": 58.4755,
      "duration": 0.0161,
      "velocity": 120,
      "chip": "ym2612"
    },
    {
      "channel": 3,
      "note": 61,
      "start": 58.4766,
      "duration": 0.0161,
      "velocity": 120,
      "chip": "ym2612"
    },
    {
      "channel": 2,
      "note": 52,
      "start": 58.4781,
      "duration": 0.0158,
      "velocity": 100,
      "chip": "ym2612"
    },
    {
      "channel": 0,
      "note": 70,
      "start": 58.4905,
      "duration": 0.0161,
      "velocity": 124,
      "chip": "ym2612"
    },
    {
      "channel": 4,
      "note": 54,
      "start": 58.4916,
      "duration": 0.0161,
      "velocity": 120,
      "chip": "ym2612"
    },
    {
      "channel": 3,
      "note": 61,
      "start": 58.4927,
      "duration": 0.0161,
      "velocity": 120,
      "chip": "ym2612"
    },
    {
      "channel": 2,
      "note": 52,
      "start": 58.4939,
      "duration": 0.0161,
      "velocity": 100,
      "chip": "ym2612"
    },
    {
      "channel": 0,
      "note": 68,
      "start": 58.5066,
      "duration": 0.0161,
      "velocity": 124,
      "chip": "ym2612"
    },
    {
      "channel": 4,
      "note": 54,
      "start": 58.5077,
      "duration": 0.0161,
      "velocity": 120,
      "chip": "ym2612"
    },
    {
      "channel": 3,
      "note": 61,
      "start": 58.5088,
      "duration": 0.0161,
      "velocity": 120,
      "chip": "ym2612"
    },
    {
      "channel": 2,
      "note": 52,
      "start": 58.51,
      "duration": 0.0161,
      "velocity": 100,
      "chip": "ym2612"
    },
    {
      "channel": 0,
      "note": 65,
      "start": 58.5227,
      "duration": 0.0161,
      "velocity": 124,
      "chip": "ym2612"
    },
    {
      "channel": 4,
      "note": 54,
      "start": 58.5238,
      "duration": 0.0161,
      "velocity": 120,
      "chip": "ym2612"
    },
    {
      "channel": 3,
      "note": 61,
      "start": 58.5249,
      "duration": 0.0161,
      "velocity": 120,
      "chip": "ym2612"
    },
    {
      "channel": 2,
      "note": 52,
      "start": 58.5261,
      "duration": 0.0161,
      "velocity": 100,
      "chip": "ym2612"
    },
    {
      "channel": 0,
      "note": 63,
      "start": 58.5387,
      "duration": 0.0153,
      "velocity": 1,
      "chip": "ym2612"
    },
    {
      "channel": 4,
      "note": 54,
      "start": 58.5399,
      "duration": 0.0153,
      "velocity": 120,
      "chip": "ym2612"
    },
    {
      "channel": 3,
      "note": 61,
      "start": 58.541,
      "duration": 0.0153,
      "velocity": 120,
      "chip": "ym2612"
    },
    {
      "channel": 2,
      "note": 52,
      "start": 58.5422,
      "duration": 0.0153,
      "velocity": 100,
      "chip": "ym2612"
    },
    {
      "channel": 4,
      "note": 54,
      "start": 58.5552,
      "duration": 0.0153,
      "velocity": 120,
      "chip": "ym2612"
    },
    {
      "channel": 3,
      "note": 61,
      "start": 58.5563,
      "duration": 0.0152,
      "velocity": 120,
      "chip": "ym2612"
    },
    {
      "channel": 2,
      "note": 52,
      "start": 58.5574,
      "duration": 0.0153,
      "velocity": 100,
      "chip": "ym2612"
    },
    {
      "channel": 4,
      "note": 54,
      "start": 58.5705,
      "duration": 0.0163,
      "velocity": 120,
      "chip": "ym2612"
    },
    {
      "channel": 3,
      "note": 61,
      "start": 58.5716,
      "duration": 0.0166,
      "velocity": 120,
      "chip": "ym2612"
    },
    {
      "channel": 2,
      "note": 52,
      "start": 58.5727,
      "duration": 0.0169,
      "velocity": 100,
      "chip": "ym2612"
    },
    {
      "channel": 4,
      "note": 52,
      "start": 58.5868,
      "duration": 0.0159,
      "velocity": 120,
      "chip": "ym2612"
    },
    {
      "channel": 3,
      "note": 59,
      "start": 58.5882,
      "duration": 0.0156,
      "velocity": 120,
      "chip": "ym2612"
    },
    {
      "channel": 2,
      "note": 52,
      "start": 58.5897,
      "duration": 0.0154,
      "velocity": 100,
      "chip": "ym2612"
    },
    {
      "channel": 4,
      "note": 52,
      "start": 58.6027,
      "duration": 0.016,
      "velocity": 120,
      "chip": "ym2612"
    },
    {
      "channel": 3,
      "note": 59,
      "start": 58.6039,
      "duration": 0.016,
      "velocity": 120,
      "chip": "ym2612"
    },
    {
      "channel": 2,
      "note": 52,
      "start": 58.6051,
      "duration": 0.0159,
      "velocity": 100,
      "chip": "ym2612"
    },
    {
      "channel": 4,
      "note": 52,
      "start": 58.6188,
      "duration": 0.0161,
      "velocity": 120,
      "chip": "ym2612"
    },
    {
      "channel": 3,
      "note": 59,
      "start": 58.6199,
      "duration": 0.0161,
      "velocity": 120,
      "chip": "ym2612"
    },
    {
      "channel": 2,
      "note": 52,
      "start": 58.621,
      "duration": 0.0161,
      "velocity": 100,
      "chip": "ym2612"
    },
    {
      "channel": 4,
      "note": 52,
      "start": 58.6349,
      "duration": 0.0161,
      "velocity": 120,
      "chip": "ym2612"
    },
    {
      "channel": 3,
      "note": 59,
      "start": 58.636,
      "duration": 0.0161,
      "velocity": 120,
      "chip": "ym2612"
    },
    {
      "channel": 2,
      "note": 52,
      "start": 58.6371,
      "duration": 0.0162,
      "velocity": 100,
      "chip": "ym2612"
    },
    {
      "channel": 4,
      "note": 52,
      "start": 58.651,
      "duration": 0.0161,
      "velocity": 120,
      "chip": "ym2612"
    },
    {
      "channel": 3,
      "note": 59,
      "start": 58.6521,
      "duration": 0.0161,
      "velocity": 120,
      "chip": "ym2612"
    },
    {
      "channel": 2,
      "note": 52,
      "start": 58.6532,
      "duration": 0.0161,
      "velocity": 100,
      "chip": "ym2612"
    },
    {
      "channel": 4,
      "note": 52,
      "start": 58.6671,
      "duration": 0.0161,
      "velocity": 120,
      "chip": "ym2612"
    },
    {
      "channel": 3,
      "note": 59,
      "start": 58.6682,
      "duration": 0.0161,
      "velocity": 120,
      "chip": "ym2612"
    },
    {
      "channel": 2,
      "note": 52,
      "start": 58.6693,
      "duration": 0.0161,
      "velocity": 100,
      "chip": "ym2612"
    },
    {
      "channel": 4,
      "note": 52,
      "start": 58.6832,
      "duration": 0.0161,
      "velocity": 120,
      "chip": "ym2612"
    },
    {
      "channel": 3,
      "note": 59,
      "start": 58.6843,
      "duration": 0.0161,
      "velocity": 120,
      "chip": "ym2612"
    },
    {
      "channel": 2,
      "note": 52,
      "start": 58.6854,
      "duration": 0.0161,
      "velocity": 100,
      "chip": "ym2612"
    },
    {
      "channel": 4,
      "note": 52,
      "start": 58.6993,
      "duration": 0.0161,
      "velocity": 120,
      "chip": "ym2612"
    },
    {
      "channel": 3,
      "note": 59,
      "start": 58.7004,
      "duration": 0.0161,
      "velocity": 120,
      "chip": "ym2612"
    },
    {
      "channel": 2,
      "note": 52,
      "start": 58.7015,
      "duration": 0.0161,
      "velocity": 100,
      "chip": "ym2612"
    },
    {
      "channel": 4,
      "note": 52,
      "start": 58.7154,
      "duration": 0.0161,
      "velocity": 120,
      "chip": "ym2612"
    },
    {
      "channel": 3,
      "note": 59,
      "start": 58.7165,
      "duration": 0.0161,
      "velocity": 120,
      "chip": "ym2612"
    },
    {
      "channel": 2,
      "note": 52,
      "start": 58.7176,
      "duration": 0.0161,
      "velocity": 100,
      "chip": "ym2612"
    },
    {
      "channel": 4,
      "note": 52,
      "start": 58.7315,
      "duration": 0.0161,
      "velocity": 120,
      "chip": "ym2612"
    },
    {
      "channel": 3,
      "note": 59,
      "start": 58.7326,
      "duration": 0.0162,
      "velocity": 120,
      "chip": "ym2612"
    },
    {
      "channel": 2,
      "note": 52,
      "start": 58.7337,
      "duration": 0.0161,
      "velocity": 100,
      "chip": "ym2612"
    },
    {
      "channel": 4,
      "note": 52,
      "start": 58.7476,
      "duration": 0.0173,
      "velocity": 120,
      "chip": "ym2612"
    },
    {
      "channel": 3,
      "note": 59,
      "start": 58.7487,
      "duration": 0.0173,
      "velocity": 120,
      "chip": "ym2612"
    },
    {
      "channel": 2,
      "note": 52,
      "start": 58.7498,
      "duration": 0.0173,
      "velocity": 100,
      "chip": "ym2612"
    },
    {
      "channel": 4,
      "note": 52,
      "start": 58.7649,
      "duration": 0.0204,
      "velocity": 120,
      "chip": "ym2612"
    },
    {
      "channel": 3,
      "note": 59,
      "start": 58.766,
      "duration": 0.0205,
      "velocity": 120,
      "chip": "ym2612"
    },
    {
      "channel": 2,
      "note": 52,
      "start": 58.7671,
      "duration": 0.0209,
      "velocity": 100,
      "chip": "ym2612"
    },
    {
      "channel": 0,
      "note": 36,
      "start": 58.7838,
      "duration": 0.0146,
      "velocity": 115,
      "chip": "ym2612"
    },
    {
      "channel": 4,
      "note": 52,
      "start": 58.7852,
      "duration": 0.0144,
      "velocity": 120,
      "chip": "ym2612"
    },
    {
      "channel": 3,
      "note": 59,
      "start": 58.7866,
      "duration": 0.0142,
      "velocity": 120,
      "chip": "ym2612"
    },
    {
      "channel": 2,
      "note": 52,
      "start": 58.7881,
      "duration": 0.0139,
      "velocity": 100,
      "chip": "ym2612"
    },
    {
      "channel": 0,
      "note": 36,
      "start": 58.7984,
      "duration": 0.0144,
      "velocity": 115,
      "chip": "ym2612"
    },
    {
      "channel": 4,
      "note": 52,
      "start": 58.7996,
      "duration": 0.0143,
      "velocity": 120,
      "chip": "ym2612"
    },
    {
      "channel": 3,
      "note": 59,
      "start": 58.8008,
      "duration": 0.0143,
      "velocity": 120,
      "chip": "ym2612"
    },
    {
      "channel": 2,
      "note": 52,
      "start": 58.802,
      "duration": 0.0142,
      "velocity": 100,
      "chip": "ym2612"
    },
    {
      "channel": 0,
      "note": 37,
      "start": 58.8128,
      "duration": 0.0185,
      "velocity": 115,
      "chip": "ym2612"
    },
    {
      "channel": 4,
      "note": 52,
      "start": 58.8139,
      "duration": 0.0186,
      "velocity": 120,
      "chip": "ym2612"
    },
    {
      "channel": 3,
      "note": 59,
      "start": 58.8151,
      "duration": 0.0185,
      "velocity": 120,
      "chip": "ym2612"
    },
    {
      "channel": 2,
      "note": 52,
      "start": 58.8162,
      "duration": 0.0185,
      "velocity": 100,
      "chip": "ym2612"
    },
    {
      "channel": 0,
      "note": 37,
      "start": 58.8313,
      "duration": 0.0161,
      "velocity": 115,
      "chip": "ym2612"
    },
    {
      "channel": 4,
      "note": 52,
      "start": 58.8325,
      "duration": 0.0161,
      "velocity": 120,
      "chip": "ym2612"
    },
    {
      "channel": 3,
      "note": 59,
      "start": 58.8336,
      "duration": 0.0161,
      "velocity": 120,
      "chip": "ym2612"
    },
    {
      "channel": 2,
      "note": 52,
      "start": 58.8347,
      "duration": 0.0161,
      "velocity": 100,
      "chip": "ym2612"
    },
    {
      "channel": 0,
      "note": 38,
      "start": 58.8474,
      "duration": 0.0157,
      "velocity": 115,
      "chip": "ym2612"
    },
    {
      "channel": 4,
      "note": 52,
      "start": 58.8486,
      "duration": 0.0157,
      "velocity": 120,
      "chip": "ym2612"
    },
    {
      "channel": 3,
      "note": 59,
      "start": 58.8497,
      "duration": 0.0158,
      "velocity": 120,
      "chip": "ym2612"
    },
    {
      "channel": 2,
      "note": 52,
      "start": 58.8508,
      "duration": 0.0157,
      "velocity": 100,
      "chip": "ym2612"
    },
    {
      "channel": 0,
      "note": 38,
      "start": 58.8631,
      "duration": 0.0137,
      "velocity": 115,
      "chip": "ym2612"
    },
    {
      "channel": 4,
      "note": 52,
      "start": 58.8643,
      "duration": 0.0141,
      "velocity": 120,
      "chip": "ym2612"
    },
    {
      "channel": 3,
      "note": 59,
      "start": 58.8655,
      "duration": 0.014,
      "velocity": 120,
      "chip": "ym2612"
    },
    {
      "channel": 2,
      "note": 52,
      "start": 58.8665,
      "duration": 0.0141,
      "velocity": 100,
      "chip": "ym2612"
    },
    {
      "channel": 0,
      "note": 39,
      "start": 58.8768,
      "duration": 0.0161,
      "velocity": 115,
      "chip": "ym2612"
    },
    {
      "channel": 4,
      "note": 52,
      "start": 58.8784,
      "duration": 0.0185,
      "velocity": 120,
      "chip": "ym2612"
    },
    {
      "channel": 3,
      "note": 59,
      "start": 58.8795,
      "duration": 0.0186,
      "velocity": 120,
      "chip": "ym2612"
    },
    {
      "channel": 2,
      "note": 52,
      "start": 58.8806,
      "duration": 0.0185,
      "velocity": 100,
      "chip": "ym2612"
    },
    {
      "channel": 0,
      "note": 39,
      "start": 58.8929,
      "duration": 0.0161,
      "velocity": 115,
      "chip": "ym2612"
    },
    {
      "channel": 4,
      "note": 52,
      "start": 58.8969,
      "duration": 0.0134,
      "velocity": 120,
      "chip": "ym2612"
    },
    {
      "channel": 3,
      "note": 59,
      "start": 58.898,
      "duration": 0.0161,
      "velocity": 120,
      "chip": "ym2612"
    },
    {
      "channel": 2,
      "note": 52,
      "start": 58.8991,
      "duration": 0.0161,
      "velocity": 100,
      "chip": "ym2612"
    },
    {
      "channel": 0,
      "note": 40,
      "start": 58.9091,
      "duration": 0.0161,
      "velocity": 115,
      "chip": "ym2612"
    },
    {
      "channel": 4,
      "note": 52,
      "start": 58.9102,
      "duration": 0.0161,
      "velocity": 120,
      "chip": "ym2612"
    },
    {
      "channel": 3,
      "note": 59,
      "start": 58.9141,
      "duration": 0.0157,
      "velocity": 120,
      "chip": "ym2612"
    },
    {
      "channel": 2,
      "note": 52,
      "start": 58.9153,
      "duration": 0.0157,
      "velocity": 100,
      "chip": "ym2612"
    },
    {
      "channel": 0,
      "note": 40,
      "start": 58.9252,
      "duration": 0.0161,
      "velocity": 115,
      "chip": "ym2612"
    },
    {
      "channel": 4,
      "note": 52,
      "start": 58.9263,
      "duration": 0.0161,
      "velocity": 120,
      "chip": "ym2612"
    },
    {
      "channel": 3,
      "note": 59,
      "start": 58.9298,
      "duration": 0.0137,
      "velocity": 120,
      "chip": "ym2612"
    },
    {
      "channel": 2,
      "note": 52,
      "start": 58.931,
      "duration": 0.0141,
      "velocity": 100,
      "chip": "ym2612"
    },
    {
      "channel": 0,
      "note": 40,
      "start": 58.9413,
      "duration": 0.0161,
      "velocity": 115,
      "chip": "ym2612"
    },
    {
      "channel": 4,
      "note": 52,
      "start": 58.9424,
      "duration": 0.0161,
      "velocity": 120,
      "chip": "ym2612"
    },
    {
      "channel": 3,
      "note": 59,
      "start": 58.9436,
      "duration": 0.0161,
      "velocity": 120,
      "chip": "ym2612"
    },
    {
      "channel": 2,
      "note": 52,
      "start": 58.945,
      "duration": 0.0185,
      "velocity": 100,
      "chip": "ym2612"
    },
    {
      "channel": 0,
      "note": 41,
      "start": 58.9574,
      "duration": 0.0161,
      "velocity": 115,
      "chip": "ym2612"
    },
    {
      "channel": 4,
      "note": 52,
      "start": 58.9585,
      "duration": 0.0163,
      "velocity": 120,
      "chip": "ym2612"
    },
    {
      "channel": 3,
      "note": 59,
      "start": 58.9597,
      "duration": 0.0166,
      "velocity": 120,
      "chip": "ym2612"
    },
    {
      "channel": 2,
      "note": 52,
      "start": 58.9635,
      "duration": 0.0169,
      "velocity": 100,
      "chip": "ym2612"
    },
    {
      "channel": 0,
      "note": 41,
      "start": 58.9735,
      "duration": 0.0161,
      "velocity": 115,
      "chip": "ym2612"
    },
    {
      "channel": 4,
      "note": 69,
      "start": 58.9749,
      "duration": 0.0159,
      "velocity": 120,
      "chip": "ym2612"
    },
    {
      "channel": 3,
      "note": 76,
      "start": 58.9763,
      "duration": 0.0157,
      "velocity": 120,
      "chip": "ym2612"
    },
    {
      "channel": 2,
      "note": 52,
      "start": 58.9805,
      "duration": 0.0127,
      "velocity": 100,
      "chip": "ym2612"
    },
    {
      "channel": 0,
      "note": 42,
      "start": 58.9896,
      "duration": 0.0161,
      "velocity": 115,
      "chip": "ym2612"
    },
    {
      "channel": 4,
      "note": 69,
      "start": 58.9908,
      "duration": 0.0161,
      "velocity": 120,
      "chip": "ym2612"
    },
    {
      "channel": 3,
      "note": 76,
      "start": 58.992,
      "duration": 0.016,
      "velocity": 120,
      "chip": "ym2612"
    },
    {
      "channel": 2,
      "note": 52,
      "start": 58.9932,
      "duration": 0.0159,
      "velocity": 100,
      "chip": "ym2612"
    },
    {
      "channel": 0,
      "note": 42,
      "start": 59.0057,
      "duration": 0.0161,
      "velocity": 115,
      "chip": "ym2612"
    },
    {
      "channel": 4,
      "note": 69,
      "start": 59.0069,
      "duration": 0.0161,
      "velocity": 120,
      "chip": "ym2612"
    },
    {
      "channel": 3,
      "note": 76,
      "start": 59.008,
      "duration": 0.0161,
      "velocity": 120,
      "chip": "ym2612"
    },
    {
      "channel": 2,
      "note": 52,
      "start": 59.0091,
      "duration": 0.0161,
      "velocity": 100,
      "chip": "ym2612"
    },
    {
      "channel": 0,
      "note": 43,
      "start": 59.0217,
      "duration": 0.0162,
      "velocity": 115,
      "chip": "ym2612"
    },
    {
      "channel": 4,
      "note": 69,
      "start": 59.023,
      "duration": 0.0161,
      "velocity": 120,
      "chip": "ym2612"
    },
    {
      "channel": 3,
      "note": 76,
      "start": 59.024,
      "duration": 0.0162,
      "velocity": 120,
      "chip": "ym2612"
    },
    {
      "channel": 2,
      "note": 52,
      "start": 59.0252,
      "duration": 0.0161,
      "velocity": 100,
      "chip": "ym2612"
    },
    {
      "channel": 0,
      "note": 43,
      "start": 59.0379,
      "duration": 0.016,
      "velocity": 115,
      "chip": "ym2612"
    },
    {
      "channel": 4,
      "note": 69,
      "start": 59.039,
      "duration": 0.0161,
      "velocity": 120,
      "chip": "ym2612"
    },
    {
      "channel": 3,
      "note": 76,
      "start": 59.0402,
      "duration": 0.0161,
      "velocity": 120,
      "chip": "ym2612"
    },
    {
      "channel": 2,
      "note": 52,
      "start": 59.0413,
      "duration": 0.0161,
      "velocity": 100,
      "chip": "ym2612"
    },
    {
      "channel": 0,
      "note": 44,
      "start": 59.0539,
      "duration": 0.0161,
      "velocity": 115,
      "chip": "ym2612"
    },
    {
      "channel": 4,
      "note": 69,
      "start": 59.0551,
      "duration": 0.0161,
      "velocity": 120,
      "chip": "ym2612"
    },
    {
      "channel": 3,
      "note": 76,
      "start": 59.0563,
      "duration": 0.0161,
      "velocity": 120,
      "chip": "ym2612"
    },
    {
      "channel": 2,
      "note": 52,
      "start": 59.0574,
      "duration": 0.0161,
      "velocity": 100,
      "chip": "ym2612"
    },
    {
      "channel": 0,
      "note": 44,
      "start": 59.0701,
      "duration": 0.0161,
      "velocity": 115,
      "chip": "ym2612"
    },
    {
      "channel": 4,
      "note": 69,
      "start": 59.0712,
      "duration": 0.0161,
      "velocity": 120,
      "chip": "ym2612"
    },
    {
      "channel": 3,
      "note": 76,
      "start": 59.0724,
      "duration": 0.0161,
      "velocity": 120,
      "chip": "ym2612"
    },
    {
      "channel": 2,
      "note": 52,
      "start": 59.0735,
      "duration": 0.0162,
      "velocity": 100,
      "chip": "ym2612"
    },
    {
      "channel": 0,
      "note": 44,
      "start": 59.0862,
      "duration": 0.0161,
      "velocity": 115,
      "chip": "ym2612"
    },
    {
      "channel": 4,
      "note": 69,
      "start": 59.0873,
      "duration": 0.0161,
      "velocity": 120,
      "chip": "ym2612"
    },
    {
      "channel": 3,
      "note": 76,
      "start": 59.0885,
      "duration": 0.0161,
      "velocity": 120,
      "chip": "ym2612"
    },
    {
      "channel": 2,
      "note": 52,
      "start": 59.0896,
      "duration": 0.0161,
      "velocity": 100,
      "chip": "ym2612"
    },
    {
      "channel": 0,
      "note": 45,
      "start": 59.1023,
      "duration": 0.0161,
      "velocity": 115,
      "chip": "ym2612"
    },
    {
      "channel": 4,
      "note": 69,
      "start": 59.1034,
      "duration": 0.0161,
      "velocity": 120,
      "chip": "ym2612"
    },
    {
      "channel": 3,
      "note": 76,
      "start": 59.1046,
      "duration": 0.0161,
      "velocity": 120,
      "chip": "ym2612"
    },
    {
      "channel": 2,
      "note": 52,
      "start": 59.1057,
      "duration": 0.0161,
      "velocity": 100,
      "chip": "ym2612"
    },
    {
      "channel": 0,
      "note": 45,
      "start": 59.1184,
      "duration": 0.0161,
      "velocity": 115,
      "chip": "ym2612"
    },
    {
      "channel": 4,
      "note": 69,
      "start": 59.1195,
      "duration": 0.0161,
      "velocity": 120,
      "chip": "ym2612"
    },
    {
      "channel": 3,
      "note": 76,
      "start": 59.1207,
      "duration": 0.0161,
      "velocity": 120,
      "chip": "ym2612"
    },
    {
      "channel": 2,
      "note": 52,
      "start": 59.1218,
      "duration": 0.0161,
      "velocity": 100,
      "chip": "ym2612"
    },
    {
      "channel": 0,
      "note": 46,
      "start": 59.1345,
      "duration": 0.0161,
      "velocity": 115,
      "chip": "ym2612"
    },
    {
      "channel": 4,
      "note": 69,
      "start": 59.1356,
      "duration": 0.0161,
      "velocity": 120,
      "chip": "ym2612"
    },
    {
      "channel": 3,
      "note": 76,
      "start": 59.1368,
      "duration": 0.0161,
      "velocity": 120,
      "chip": "ym2612"
    },
    {
      "channel": 2,
      "note": 52,
      "start": 59.1379,
      "duration": 0.0161,
      "velocity": 100,
      "chip": "ym2612"
    },
    {
      "channel": 0,
      "note": 46,
      "start": 59.1506,
      "duration": 0.0179,
      "velocity": 124,
      "chip": "ym2612"
    },
    {
      "channel": 4,
      "note": 69,
      "start": 59.1517,
      "duration": 0.0181,
      "velocity": 120,
      "chip": "ym2612"
    },
    {
      "channel": 3,
      "note": 76,
      "start": 59.1529,
      "duration": 0.0184,
      "velocity": 120,
      "chip": "ym2612"
    },
    {
      "channel": 2,
      "note": 52,
      "start": 59.154,
      "duration": 0.0187,
      "velocity": 100,
      "chip": "ym2612"
    },
    {
      "channel": 0,
      "note": 84,
      "start": 59.1685,
      "duration": 0.0143,
      "velocity": 124,
      "chip": "ym2612"
    },
    {
      "channel": 4,
      "note": 69,
      "start": 59.1699,
      "duration": 0.0141,
      "velocity": 120,
      "chip": "ym2612"
    },
    {
      "channel": 3,
      "note": 76,
      "start": 59.1713,
      "duration": 0.0139,
      "velocity": 120,
      "chip": "ym2612"
    },
    {
      "channel": 2,
      "note": 52,
      "start": 59.1728,
      "duration": 0.0137,
      "velocity": 100,
      "chip": "ym2612"
    },
    {
      "channel": 0,
      "note": 82,
      "start": 59.1828,
      "duration": 0.0161,
      "velocity": 124,
      "chip": "ym2612"
    },
    {
      "channel": 4,
      "note": 69,
      "start": 59.184,
      "duration": 0.016,
      "velocity": 120,
      "chip": "ym2612"
    },
    {
      "channel": 3,
      "note": 76,
      "start": 59.1852,
      "duration": 0.016,
      "velocity": 120,
      "chip": "ym2612"
    },
    {
      "channel": 2,
      "note": 52,
      "start": 59.1864,
      "duration": 0.0159,
      "velocity": 100,
      "chip": "ym2612"
    },
    {
      "channel": 0,
      "note": 80,
      "start": 59.1989,
      "duration": 0.0161,
      "velocity": 124,
      "chip": "ym2612"
    },
    {
      "channel": 4,
      "note": 69,
      "start": 59.2001,
      "duration": 0.0161,
      "velocity": 120,
      "chip": "ym2612"
    },
    {
      "channel": 3,
      "note": 76,
      "start": 59.2012,
      "duration": 0.0161,
      "velocity": 120,
      "chip": "ym2612"
    },
    {
      "channel": 2,
      "note": 52,
      "start": 59.2024,
      "duration": 0.0161,
      "velocity": 100,
      "chip": "ym2612"
    },
    {
      "channel": 0,
      "note": 77,
      "start": 59.215,
      "duration": 0.0171,
      "velocity": 124,
      "chip": "ym2612"
    },
    {
      "channel": 4,
      "note": 69,
      "start": 59.2161,
      "duration": 0.0171,
      "velocity": 120,
      "chip": "ym2612"
    },
    {
      "channel": 3,
      "note": 76,
      "start": 59.2173,
      "duration": 0.0171,
      "velocity": 120,
      "chip": "ym2612"
    },
    {
      "channel": 2,
      "note": 52,
      "start": 59.2184,
      "duration": 0.0171,
      "velocity": 100,
      "chip": "ym2612"
    },
    {
      "channel": 0,
      "note": 75,
      "start": 59.2321,
      "duration": 0.0167,
      "velocity": 124,
      "chip": "ym2612"
    },
    {
      "channel": 4,
      "note": 69,
      "start": 59.2332,
      "duration": 0.0167,
      "velocity": 120,
      "chip": "ym2612"
    },
    {
      "channel": 3,
      "note": 76,
      "start": 59.2344,
      "duration": 0.0167,
      "velocity": 120,
      "chip": "ym2612"
    },
    {
      "channel": 2,
      "note": 52,
      "start": 59.2355,
      "duration": 0.0167,
      "velocity": 100,
      "chip": "ym2612"
    },
    {
      "channel": 0,
      "note": 72,
      "start": 59.2487,
      "duration": 0.0163,
      "velocity": 124,
      "chip": "ym2612"
    },
    {
      "channel": 4,
      "note": 69,
      "start": 59.2499,
      "duration": 0.0163,
      "velocity": 120,
      "chip": "ym2612"
    },
    {
      "channel": 3,
      "note": 76,
      "start": 59.251,
      "duration": 0.0163,
      "velocity": 120,
      "chip": "ym2612"
    },
    {
      "channel": 2,
      "note": 52,
      "start": 59.2522,
      "duration": 0.0163,
      "velocity": 100,
      "chip": "ym2612"
    },
    {
      "channel": 0,
      "note": 70,
      "start": 59.265,
      "duration": 0.0146,
      "velocity": 124,
      "chip": "ym2612"
    },
    {
      "channel": 4,
      "note": 69,
      "start": 59.2661,
      "duration": 0.0146,
      "velocity": 120,
      "chip": "ym2612"
    },
    {
      "channel": 3,
      "note": 76,
      "start": 59.2673,
      "duration": 0.0146,
      "velocity": 120,
      "chip": "ym2612"
    },
    {
      "channel": 2,
      "note": 52,
      "start": 59.2684,
      "duration": 0.0146,
      "velocity": 100,
      "chip": "ym2612"
    },
    {
      "channel": 0,
      "note": 68,
      "start": 59.2796,
      "duration": 0.0186,
      "velocity": 124,
      "chip": "ym2612"
    },
    {
      "channel": 4,
      "note": 69,
      "start": 59.2808,
      "duration": 0.0186,
      "velocity": 120,
      "chip": "ym2612"
    },
    {
      "channel": 3,
      "note": 76,
      "start": 59.2819,
      "duration": 0.0186,
      "velocity": 120,
      "chip": "ym2612"
    },
    {
      "channel": 2,
      "note": 52,
      "start": 59.2831,
      "duration": 0.0186,
      "velocity": 100,
      "chip": "ym2612"
    },
    {
      "channel": 0,
      "note": 65,
      "start": 59.2982,
      "duration": 0.0161,
      "velocity": 124,
      "chip": "ym2612"
    },
    {
      "channel": 4,
      "note": 69,
      "start": 59.2994,
      "duration": 0.0161,
      "velocity": 120,
      "chip": "ym2612"
    },
    {
      "channel": 3,
      "note": 76,
      "start": 59.3005,
      "duration": 0.0162,
      "velocity": 120,
      "chip": "ym2612"
    },
    {
      "channel": 2,
      "note": 52,
      "start": 59.3017,
      "duration": 0.0161,
      "velocity": 100,
      "chip": "ym2612"
    },
    {
      "channel": 0,
      "note": 63,
      "start": 59.3143,
      "duration": 0.0126,
      "velocity": 1,
      "chip": "ym2612"
    },
    {
      "channel": 4,
      "note": 69,
      "start": 59.3155,
      "duration": 0.015,
      "velocity": 120,
      "chip": "ym2612"
    },
    {
      "channel": 3,
      "note": 76,
      "start": 59.3167,
      "duration": 0.0149,
      "velocity": 120,
      "chip": "ym2612"
    },
    {
      "channel": 2,
      "note": 52,
      "start": 59.3178,
      "duration": 0.0149,
      "velocity": 100,
      "chip": "ym2612"
    },
    {
      "channel": 4,
      "note": 69,
      "start": 59.3305,
      "duration": 0.0128,
      "velocity": 120,
      "chip": "ym2612"
    },
    {
      "channel": 3,
      "note": 76,
      "start": 59.3316,
      "duration": 0.0132,
      "velocity": 120,
      "chip": "ym2612"
    },
    {
      "channel": 2,
      "note": 52,
      "start": 59.3327,
      "duration": 0.0132,
      "velocity": 100,
      "chip": "ym2612"
    },
    {
      "channel": 4,
      "note": 69,
      "start": 59.3433,
      "duration": 0.0225,
      "velocity": 120,
      "chip": "ym2612"
    },
    {
      "channel": 3,
      "note": 76,
      "start": 59.3448,
      "duration": 0.0224,
      "velocity": 120,
      "chip": "ym2612"
    },
    {
      "channel": 2,
      "note": 52,
      "start": 59.3459,
      "duration": 0.0227,
      "velocity": 100,
      "chip": "ym2612"
    },
    {
      "channel": 0,
      "note": 36,
      "start": 59.3644,
      "duration": 0.0116,
      "velocity": 115,
      "chip": "ym2612"
    },
    {
      "channel": 4,
      "note": 67,
      "start": 59.3658,
      "duration": 0.0115,
      "velocity": 120,
      "chip": "ym2612"
    },
    {
      "channel": 3,
      "note": 74,
      "start": 59.3672,
      "duration": 0.014,
      "velocity": 120,
      "chip": "ym2612"
    },
    {
      "channel": 2,
      "note": 52,
      "start": 59.3687,
      "duration": 0.0137,
      "velocity": 100,
      "chip": "ym2612"
    },
    {
      "channel": 0,
      "note": 36,
      "start": 59.3761,
      "duration": 0.016,
      "velocity": 115,
      "chip": "ym2612"
    },
    {
      "channel": 4,
      "note": 67,
      "start": 59.3773,
      "duration": 0.016,
      "velocity": 120,
      "chip": "ym2612"
    },
    {
      "channel": 3,
      "note": 74,
      "start": 59.3812,
      "duration": 0.0156,
      "velocity": 120,
      "chip": "ym2612"
    },
    {
      "channel": 2,
      "note": 52,
      "start": 59.3824,
      "duration": 0.0155,
      "velocity": 100,
      "chip": "ym2612"
    },
    {
      "channel": 0,
      "note": 37,
      "start": 59.3921,
      "duration": 0.0161,
      "velocity": 115,
      "chip": "ym2612"
    },
    {
      "channel": 4,
      "note": 67,
      "start": 59.3933,
      "duration": 0.0161,
      "velocity": 120,
      "chip": "ym2612"
    },
    {
      "channel": 3,
      "note": 74,
      "start": 59.3968,
      "duration": 0.0137,
      "velocity": 120,
      "chip": "ym2612"
    },
    {
      "channel": 2,
      "note": 52,
      "start": 59.3979,
      "duration": 0.0141,
      "velocity": 100,
      "chip": "ym2612"
    },
    {
      "channel": 0,
      "note": 37,
      "start": 59.4082,
      "duration": 0.0161,
      "velocity": 115,
      "chip": "ym2612"
    },
    {
      "channel": 4,
      "note": 67,
      "start": 59.4093,
      "duration": 0.0161,
      "velocity": 120,
      "chip": "ym2612"
    },
    {
      "channel": 3,
      "note": 74,
      "start": 59.4105,
      "duration": 0.0161,
      "velocity": 120,
      "chip": "ym2612"
    },
    {
      "channel": 2,
      "note": 52,
      "start": 59.412,
      "duration": 0.0185,
      "velocity": 100,
      "chip": "ym2612"
    },
    {
      "channel": 0,
      "note": 38,
      "start": 59.4243,
      "duration": 0.0161,
      "velocity": 115,
      "chip": "ym2612"
    },
    {
      "channel": 4,
      "note": 67,
      "start": 59.4254,
      "duration": 0.0161,
      "velocity": 120,
      "chip": "ym2612"
    },
    {
      "channel": 3,
      "note": 74,
      "start": 59.4266,
      "duration": 0.0161,
      "velocity": 120,
      "chip": "ym2612"
    },
    {
      "channel": 2,
      "note": 52,
      "start": 59.4305,
      "duration": 0.0134,
      "velocity": 100,
      "chip": "ym2612"
    },
    {
      "channel": 0,
      "note": 38,
      "start": 59.4404,
      "duration": 0.0161,
      "velocity": 115,
      "chip": "ym2612"
    },
    {
      "channel": 4,
      "note": 67,
      "start": 59.4415,
      "duration": 0.0161,
      "velocity": 120,
      "chip": "ym2612"
    },
    {
      "channel": 3,
      "note": 74,
      "start": 59.4427,
      "duration": 0.0161,
      "velocity": 120,
      "chip": "ym2612"
    },
    {
      "channel": 2,
      "note": 52,
      "start": 59.4438,
      "duration": 0.0161,
      "velocity": 100,
      "chip": "ym2612"
    },
    {
      "channel": 0,
      "note": 39,
      "start": 59.4565,
      "duration": 0.0161,
      "velocity": 115,
      "chip": "ym2612"
    },
    {
      "channel": 4,
      "note": 67,
      "start": 59.4576,
      "duration": 0.0161,
      "velocity": 120,
      "chip": "ym2612"
    },
    {
      "channel": 3,
      "note": 74,
      "start": 59.4588,
      "duration": 0.0161,
      "velocity": 120,
      "chip": "ym2612"
    },
    {
      "channel": 2,
      "note": 52,
      "start": 59.4599,
      "duration": 0.0161,
      "velocity": 100,
      "chip": "ym2612"
    },
    {
      "channel": 0,
      "note": 39,
      "start": 59.4726,
      "duration": 0.0161,
      "velocity": 115,
      "chip": "ym2612"
    },
    {
      "channel": 4,
      "note": 67,
      "start": 59.4737,
      "duration": 0.0162,
      "velocity": 120,
      "chip": "ym2612"
    },
    {
      "channel": 3,
      "note": 74,
      "start": 59.4749,
      "duration": 0.0161,
      "velocity": 120,
      "chip": "ym2612"
    },
    {
      "channel": 2,
      "note": 52,
      "start": 59.476,
      "duration": 0.0161,
      "velocity": 100,
      "chip": "ym2612"
    },
    {
      "channel": 0,
      "note": 40,
      "start": 59.4887,
      "duration": 0.0161,
      "velocity": 115,
      "chip": "ym2612"
    },
    {
      "channel": 4,
      "note": 67,
      "start": 59.4899,
      "duration": 0.0161,
      "velocity": 120,
      "chip": "ym2612"
    },
    {
      "channel": 3,
      "note": 74,
      "start": 59.491,
      "duration": 0.0161,
      "velocity": 120,
      "chip": "ym2612"
    },
    {
      "channel": 2,
      "note": 52,
      "start": 59.4921,
      "duration": 0.0161,
      "velocity": 100,
      "chip": "ym2612"
    },
    {
      "channel": 0,
      "note": 40,
      "start": 59.5048,
      "duration": 0.0161,
      "velocity": 115,
      "chip": "ym2612"
    },
    {
      "channel": 4,
      "note": 67,
      "start": 59.506,
      "duration": 0.0161,
      "velocity": 120,
      "chip": "ym2612"
    },
    {
      "channel": 3,
      "note": 74,
      "start": 59.5071,
      "duration": 0.0161,
      "velocity": 120,
      "chip": "ym2612"
    },
    {
      "channel": 2,
      "note": 52,
      "start": 59.5082,
      "duration": 0.0161,
      "velocity": 100,
      "chip": "ym2612"
    },
    {
      "channel": 0,
      "note": 40,
      "start": 59.5209,
      "duration": 0.0161,
      "velocity": 115,
      "chip": "ym2612"
    },
    {
      "channel": 4,
      "note": 67,
      "start": 59.5221,
      "duration": 0.0161,
      "velocity": 120,
      "chip": "ym2612"
    },
    {
      "channel": 3,
      "note": 74,
      "start": 59.5232,
      "duration": 0.0161,
      "velocity": 120,
      "chip": "ym2612"
    },
    {
      "channel": 2,
      "note": 52,
      "start": 59.5244,
      "duration": 0.0161,
      "velocity": 100,
      "chip": "ym2612"
    },
    {
      "channel": 0,
      "note": 41,
      "start": 59.537,
      "duration": 0.0179,
      "velocity": 115,
      "chip": "ym2612"
    },
    {
      "channel": 4,
      "note": 67,
      "start": 59.5382,
      "duration": 0.0181,
      "velocity": 120,
      "chip": "ym2612"
    },
    {
      "channel": 3,
      "note": 74,
      "start": 59.5393,
      "duration": 0.0184,
      "velocity": 120,
      "chip": "ym2612"
    },
    {
      "channel": 2,
      "note": 52,
      "start": 59.5405,
      "duration": 0.0187,
      "velocity": 100,
      "chip": "ym2612"
    },
    {
      "channel": 0,
      "note": 36,
      "start": 59.5549,
      "duration": 0.0144,
      "velocity": 115,
      "chip": "ym2612"
    },
    {
      "channel": 4,
      "note": 67,
      "start": 59.5563,
      "duration": 0.0141,
      "velocity": 120,
      "chip": "ym2612"
    },
    {
      "channel": 3,
      "note": 74,
      "start": 59.5577,
      "duration": 0.014,
      "velocity": 120,
      "chip": "ym2612"
    },
    {
      "channel": 2,
      "note": 52,
      "start": 59.5592,
      "duration": 0.0137,
      "velocity": 100,
      "chip": "ym2612"
    },
    {
      "channel": 0,
      "note": 36,
      "start": 59.5693,
      "duration": 0.016,
      "velocity": 115,
      "chip": "ym2612"
    },
    {
      "channel": 4,
      "note": 67,
      "start": 59.5705,
      "duration": 0.016,
      "velocity": 120,
      "chip": "ym2612"
    },
    {
      "channel": 3,
      "note": 74,
      "start": 59.5717,
      "duration": 0.0159,
      "velocity": 120,
      "chip": "ym2612"
    },
    {
      "channel": 2,
      "note": 52,
      "start": 59.5729,
      "duration": 0.0158,
      "velocity": 100,
      "chip": "ym2612"
    },
    {
      "channel": 0,
      "note": 37,
      "start": 59.5853,
      "duration": 0.0161,
      "velocity": 115,
      "chip": "ym2612"
    },
    {
      "channel": 4,
      "note": 67,
      "start": 59.5864,
      "duration": 0.0161,
      "velocity": 120,
      "chip": "ym2612"
    },
    {
      "channel": 3,
      "note": 74,
      "start": 59.5876,
      "duration": 0.0161,
      "velocity": 120,
      "chip": "ym2612"
    },
    {
      "channel": 2,
      "note": 52,
      "start": 59.5887,
      "duration": 0.0161,
      "velocity": 100,
      "chip": "ym2612"
    },
    {
      "channel": 0,
      "note": 37,
      "start": 59.6014,
      "duration": 0.0161,
      "velocity": 115,
      "chip": "ym2612"
    },
    {
      "channel": 4,
      "note": 67,
      "start": 59.6025,
      "duration": 0.0161,
      "velocity": 120,
      "chip": "ym2612"
    },
    {
      "channel": 3,
      "note": 74,
      "start": 59.6037,
      "duration": 0.0161,
      "velocity": 120,
      "chip": "ym2612"
    },
    {
      "channel": 2,
      "note": 52,
      "start": 59.6048,
      "duration": 0.0161,
      "velocity": 100,
      "chip": "ym2612"
    },
    {
      "channel": 0,
      "note": 38,
      "start": 59.6175,
      "duration": 0.0161,
      "velocity": 115,
      "chip": "ym2612"
    },
    {
      "channel": 4,
      "note": 67,
      "start": 59.6186,
      "duration": 0.0161,
      "velocity": 120,
      "chip": "ym2612"
    },
    {
      "channel": 3,
      "note": 74,
      "start": 59.6198,
      "duration": 0.0161,
      "velocity": 120,
      "chip": "ym2612"
    },
    {
      "channel": 2,
      "note": 52,
      "start": 59.6209,
      "duration": 0.0161,
      "velocity": 100,
      "chip": "ym2612"
    },
    {
      "channel": 0,
      "note": 38,
      "start": 59.6336,
      "duration": 0.0162,
      "velocity": 115,
      "chip": "ym2612"
    },
    {
      "channel": 4,
      "note": 67,
      "start": 59.6347,
      "duration": 0.0161,
      "velocity": 120,
      "chip": "ym2612"
    },
    {
      "channel": 3,
      "note": 74,
      "start": 59.6359,
      "duration": 0.0162,
      "velocity": 120,
      "chip": "ym2612"
    },
    {
      "channel": 2,
      "note": 52,
      "start": 59.637,
      "duration": 0.0161,
      "velocity": 100,
      "chip": "ym2612"
    },
    {
      "channel": 0,
      "note": 39,
      "start": 59.6498,
      "duration": 0.0161,
      "velocity": 115,
      "chip": "ym2612"
    },
    {
      "channel": 4,
      "note": 67,
      "start": 59.6509,
      "duration": 0.0161,
      "velocity": 120,
      "chip": "ym2612"
    },
    {
      "channel": 3,
      "note": 74,
      "start": 59.652,
      "duration": 0.0161,
      "velocity": 120,
      "chip": "ym2612"
    },
    {
      "channel": 2,
      "note": 52,
      "start": 59.6531,
      "duration": 0.0162,
      "velocity": 100,
      "chip": "ym2612"
    },
    {
      "channel": 0,
      "note": 39,
      "start": 59.6658,
      "duration": 0.0161,
      "velocity": 115,
      "chip": "ym2612"
    },
    {
      "channel": 4,
      "note": 67,
      "start": 59.667,
      "duration": 0.0161,
      "velocity": 120,
      "chip": "ym2612"
    },
    {
      "channel": 3,
      "note": 74,
      "start": 59.6681,
      "duration": 0.0161,
      "velocity": 120,
      "chip": "ym2612"
    },
    {
      "channel": 2,
      "note": 52,
      "start": 59.6693,
      "duration": 0.0161,
      "velocity": 100,
      "chip": "ym2612"
    },
    {
      "channel": 0,
      "note": 40,
      "start": 59.6819,
      "duration": 0.0167,
      "velocity": 115,
      "chip": "ym2612"
    },
    {
      "channel": 4,
      "note": 67,
      "start": 59.6831,
      "duration": 0.0168,
      "velocity": 120,
      "chip": "ym2612"
    },
    {
      "channel": 3,
      "note": 74,
      "start": 59.6842,
      "duration": 0.0168,
      "velocity": 120,
      "chip": "ym2612"
    },
    {
      "channel": 2,
      "note": 52,
      "start": 59.6854,
      "duration": 0.0167,
      "velocity": 100,
      "chip": "ym2612"
    },
    {
      "channel": 0,
      "note": 40,
      "start": 59.6987,
      "duration": 0.0167,
      "velocity": 115,
      "chip": "ym2612"
    },
    {
      "channel": 4,
      "note": 67,
      "start": 59.6999,
      "duration": 0.0167,
      "velocity": 120,
      "chip": "ym2612"
    },
    {
      "channel": 3,
      "note": 74,
      "start": 59.701,
      "duration": 0.0167,
      "velocity": 120,
      "chip": "ym2612"
    },
    {
      "channel": 2,
      "note": 52,
      "start": 59.7021,
      "duration": 0.0167,
      "velocity": 100,
      "chip": "ym2612"
    },
    {
      "channel": 0,
      "note": 40,
      "start": 59.7154,
      "duration": 0.0163,
      "velocity": 115,
      "chip": "ym2612"
    },
    {
      "channel": 4,
      "note": 67,
      "start": 59.7165,
      "duration": 0.0163,
      "velocity": 120,
      "chip": "ym2612"
    },
    {
      "channel": 3,
      "note": 74,
      "start": 59.7177,
      "duration": 0.0163,
      "velocity": 120,
      "chip": "ym2612"
    },
    {
      "channel": 2,
      "note": 52,
      "start": 59.7188,
      "duration": 0.0163,
      "velocity": 100,
      "chip": "ym2612"
    },
    {
      "channel": 0,
      "note": 41,
      "start": 59.7317,
      "duration": 0.0147,
      "velocity": 115,
      "chip": "ym2612"
    },
    {
      "channel": 4,
      "note": 67,
      "start": 59.7328,
      "duration": 0.0149,
      "velocity": 120,
      "chip": "ym2612"
    },
    {
      "channel": 3,
      "note": 74,
      "start": 59.734,
      "duration": 0.0152,
      "velocity": 120,
      "chip": "ym2612"
    },
    {
      "channel": 2,
      "note": 52,
      "start": 59.7351,
      "duration": 0.0155,
      "velocity": 100,
      "chip": "ym2612"
    },
    {
      "channel": 0,
      "note": 41,
      "start": 59.7464,
      "duration": 0.0188,
      "velocity": 115,
      "chip": "ym2612"
    },
    {
      "channel": 4,
      "note": 66,
      "start": 59.7478,
      "duration": 0.0186,
      "velocity": 120,
      "chip": "ym2612"
    },
    {
      "channel": 3,
      "note": 73,
      "start": 59.7492,
      "duration": 0.0184,
      "velocity": 120,
      "chip": "ym2612"
    },
    {
      "channel": 2,
      "note": 52,
      "start": 59.7506,
      "duration": 0.0181,
      "velocity": 100,
      "chip": "ym2612"
    },
    {
      "channel": 0,
      "note": 42,
      "start": 59.7651,
      "duration": 0.0161,
      "velocity": 115,
      "chip": "ym2612"
    },
    {
      "channel": 4,
      "note": 66,
      "start": 59.7663,
      "duration": 0.0161,
      "velocity": 120,
      "chip": "ym2612"
    },
    {
      "channel": 3,
      "note": 73,
      "start": 59.7676,
      "duration": 0.016,
      "velocity": 120,
      "chip": "ym2612"
    },
    {
      "channel": 2,
      "note": 52,
      "start": 59.7688,
      "duration": 0.016,
      "velocity": 100,
      "chip": "ym2612"
    },
    {
      "channel": 0,
      "note": 42,
      "start": 59.7813,
      "duration": 0.0157,
      "velocity": 115,
      "chip": "ym2612"
    },
    {
      "channel": 4,
      "note": 66,
      "start": 59.7824,
      "duration": 0.0157,
      "velocity": 120,
      "chip": "ym2612"
    },
    {
      "channel": 3,
      "note": 73,
      "start": 59.7836,
      "duration": 0.0157,
      "velocity": 120,
      "chip": "ym2612"
    },
    {
      "channel": 2,
      "note": 52,
      "start": 59.7847,
      "duration": 0.0157,
      "velocity": 100,
      "chip": "ym2612"
    },
    {
      "channel": 0,
      "note": 43,
      "start": 59.797,
      "duration": 0.0139,
      "velocity": 115,
      "chip": "ym2612"
    },
    {
      "channel": 4,
      "note": 66,
      "start": 59.7982,
      "duration": 0.0141,
      "velocity": 120,
      "chip": "ym2612"
    },
    {
      "channel": 3,
      "note": 73,
      "start": 59.7993,
      "duration": 0.0141,
      "velocity": 120,
      "chip": "ym2612"
    },
    {
      "channel": 2,
      "note": 52,
      "start": 59.8005,
      "duration": 0.014,
      "velocity": 100,
      "chip": "ym2612"
    },
    {
      "channel": 0,
      "note": 43,
      "start": 59.8109,
      "duration": 0.016,
      "velocity": 115,
      "chip": "ym2612"
    },
    {
      "channel": 4,
      "note": 66,
      "start": 59.8122,
      "duration": 0.0185,
      "velocity": 120,
      "chip": "ym2612"
    },
    {
      "channel": 3,
      "note": 73,
      "start": 59.8134,
      "duration": 0.0185,
      "velocity": 120,
      "chip": "ym2612"
    },
    {
      "channel": 2,
      "note": 52,
      "start": 59.8144,
      "duration": 0.0186,
      "velocity": 100,
      "chip": "ym2612"
    },
    {
      "channel": 0,
      "note": 44,
      "start": 59.8268,
      "duration": 0.0161,
      "velocity": 115,
      "chip": "ym2612"
    },
    {
      "channel": 4,
      "note": 66,
      "start": 59.8307,
      "duration": 0.0161,
      "velocity": 120,
      "chip": "ym2612"
    },
    {
      "channel": 3,
      "note": 73,
      "start": 59.8319,
      "duration": 0.0161,
      "velocity": 120,
      "chip": "ym2612"
    },
    {
      "channel": 2,
      "note": 52,
      "start": 59.833,
      "duration": 0.0161,
      "velocity": 100,
      "chip": "ym2612"
    },
    {
      "channel": 0,
      "note": 44,
      "start": 59.8429,
      "duration": 0.0161,
      "velocity": 115,
      "chip": "ym2612"
    },
    {
      "channel": 4,
      "note": 66,
      "start": 59.8468,
      "duration": 0.0134,
      "velocity": 120,
      "chip": "ym2612"
    },
    {
      "channel": 3,
      "note": 73,
      "start": 59.848,
      "duration": 0.0158,
      "velocity": 120,
      "chip": "ym2612"
    },
    {
      "channel": 2,
      "note": 52,
      "start": 59.8491,
      "duration": 0.0157,
      "velocity": 100,
      "chip": "ym2612"
    },
    {
      "channel": 0,
      "note": 44,
      "start": 59.859,
      "duration": 0.0161,
      "velocity": 115,
      "chip": "ym2612"
    },
    {
      "channel": 4,
      "note": 66,
      "start": 59.8602,
      "duration": 0.0161,
      "velocity": 120,
      "chip": "ym2612"
    },
    {
      "channel": 3,
      "note": 73,
      "start": 59.8637,
      "duration": 0.014,
      "velocity": 120,
      "chip": "ym2612"
    },
    {
      "channel": 2,
      "note": 52,
      "start": 59.8648,
      "duration": 0.0141,
      "velocity": 100,
      "chip": "ym2612"
    },
    {
      "channel": 0,
      "note": 45,
      "start": 59.8751,
      "duration": 0.0161,
      "velocity": 115,
      "chip": "ym2612"
    },
    {
      "channel": 4,
      "note": 66,
      "start": 59.8763,
      "duration": 0.0161,
      "velocity": 120,
      "chip": "ym2612"
    },
    {
      "channel": 3,
      "note": 73,
      "start": 59.8777,
      "duration": 0.0158,
      "velocity": 120,
      "chip": "ym2612"
    },
    {
      "channel": 2,
      "note": 52,
      "start": 59.8789,
      "duration": 0.0185,
      "velocity": 100,
      "chip": "ym2612"
    },
    {
      "channel": 0,
      "note": 45,
      "start": 59.8912,
      "duration": 0.0161,
      "velocity": 115,
      "chip": "ym2612"
    },
    {
      "channel": 4,
      "note": 66,
      "start": 59.8924,
      "duration": 0.0161,
      "velocity": 120,
      "chip": "ym2612"
    },
    {
      "channel": 3,
      "note": 73,
      "start": 59.8935,
      "duration": 0.0161,
      "velocity": 120,
      "chip": "ym2612"
    },
    {
      "channel": 2,
      "note": 52,
      "start": 59.8974,
      "duration": 0.0161,
      "velocity": 100,
      "chip": "ym2612"
    },
    {
      "channel": 0,
      "note": 46,
      "start": 59.9073,
      "duration": 0.0161,
      "velocity": 115,
      "chip": "ym2612"
    },
    {
      "channel": 4,
      "note": 66,
      "start": 59.9085,
      "duration": 0.0162,
      "velocity": 120,
      "chip": "ym2612"
    },
    {
      "channel": 3,
      "note": 73,
      "start": 59.9096,
      "duration": 0.0161,
      "velocity": 120,
      "chip": "ym2612"
    },
    {
      "channel": 2,
      "note": 52,
      "start": 59.9135,
      "duration": 0.0134,
      "velocity": 100,
      "chip": "ym2612"
    },
    {
      "channel": 0,
      "note": 46,
      "start": 59.9234,
      "duration": 0.0179,
      "velocity": 124,
      "chip": "ym2612"
    },
    {
      "channel": 4,
      "note": 66,
      "start": 59.9246,
      "duration": 0.018,
      "velocity": 120,
      "chip": "ym2612"
    },
    {
      "channel": 3,
      "note": 73,
      "start": 59.9258,
      "duration": 0.0186,
      "velocity": 120,
      "chip": "ym2612"
    },
    {
      "channel": 2,
      "note": 52,
      "start": 59.9268,
      "duration": 0.019,
      "velocity": 100,
      "chip": "ym2612"
    },
    {
      "channel": 0,
      "note": 84,
      "start": 59.9413,
      "duration": 0.0144,
      "velocity": 124,
      "chip": "ym2612"
    },
    {
      "channel": 4,
      "note": 66,
      "start": 59.9427,
      "duration": 0.0142,
      "velocity": 120,
      "chip": "ym2612"
    },
    {
      "channel": 3,
      "note": 73,
      "start": 59.9445,
      "duration": 0.0136,
      "velocity": 120,
      "chip": "ym2612"
    },
    {
      "channel": 2,
      "note": 52,
      "start": 59.9459,
      "duration": 0.0134,
      "velocity": 100,
      "chip": "ym2612"
    },
    {
      "channel": 0,
      "note": 82,
      "start": 59.9557,
      "duration": 0.016,
      "velocity": 124,
      "chip": "ym2612"
    },
    {
      "channel": 4,
      "note": 66,
      "start": 59.9569,
      "duration": 0.016,
      "velocity": 120,
      "chip": "ym2612"
    },
    {
      "channel": 3,
      "note": 73,
      "start": 59.9581,
      "duration": 0.016,
      "velocity": 120,
      "chip": "ym2612"
    },
    {
      "channel": 2,
      "note": 52,
      "start": 59.9593,
      "duration": 0.0159,
      "velocity": 100,
      "chip": "ym2612"
    },
    {
      "channel": 0,
      "note": 80,
      "start": 59.9717,
      "duration": 0.0161,
      "velocity": 124,
      "chip": "ym2612"
    },
    {
      "channel": 4,
      "note": 66,
      "start": 59.9729,
      "duration": 0.0161,
      "velocity": 120,
      "chip": "ym2612"
    },
    {
      "channel": 3,
      "note": 73,
      "start": 59.974,
      "duration": 0.0161,
      "velocity": 120,
      "chip": "ym2612"
    },
    {
      "channel": 2,
      "note": 52,
      "start": 59.9752,
      "duration": 0.0161,
      "velocity": 100,
      "chip": "ym2612"
    },
    {
      "channel": 0,
      "note": 77,
      "start": 59.9878,
      "duration": 0.0161,
      "velocity": 124,
      "chip": "ym2612"
    },
    {
      "channel": 4,
      "note": 66,
      "start": 59.989,
      "duration": 0.0161,
      "velocity": 120,
      "chip": "ym2612"
    },
    {
      "channel": 3,
      "note": 73,
      "start": 59.9901,
      "duration": 0.0161,
      "velocity": 120,
      "chip": "ym2612"
    },
    {
      "channel": 2,
      "note": 52,
      "start": 59.9913,
      "duration": 0.0161,
      "velocity": 100,
      "chip": "ym2612"
    },
    {
      "channel": 0,
      "note": 75,
      "start": 60.0039,
      "duration": 0.0161,
      "velocity": 124,
      "chip": "ym2612"
    },
    {
      "channel": 4,
      "note": 66,
      "start": 60.0051,
      "duration": 0.0161,
      "velocity": 120,
      "chip": "ym2612"
    },
    {
      "channel": 3,
      "note": 73,
      "start": 60.0062,
      "duration": 0.0161,
      "velocity": 120,
      "chip": "ym2612"
    },
    {
      "channel": 2,
      "note": 52,
      "start": 60.0074,
      "duration": 0.0161,
      "velocity": 100,
      "chip": "ym2612"
    },
    {
      "channel": 0,
      "note": 72,
      "start": 60.02,
      "duration": 0.0161,
      "velocity": 124,
      "chip": "ym2612"
    },
    {
      "channel": 4,
      "note": 66,
      "start": 60.0212,
      "duration": 0.0161,
      "velocity": 120,
      "chip": "ym2612"
    },
    {
      "channel": 3,
      "note": 73,
      "start": 60.0223,
      "duration": 0.0161,
      "velocity": 120,
      "chip": "ym2612"
    },
    {
      "channel": 2,
      "note": 52,
      "start": 60.0235,
      "duration": 0.0161,
      "velocity": 100,
      "chip": "ym2612"
    },
    {
      "channel": 0,
      "note": 70,
      "start": 60.0361,
      "duration": 0.0161,
      "velocity": 124,
      "chip": "ym2612"
    },
    {
      "channel": 4,
      "note": 66,
      "start": 60.0373,
      "duration": 0.0161,
      "velocity": 120,
      "chip": "ym2612"
    },
    {
      "channel": 3,
      "note": 73,
      "start": 60.0384,
      "duration": 0.0161,
      "velocity": 120,
      "chip": "ym2612"
    },
    {
      "channel": 2,
      "note": 52,
      "start": 60.0396,
      "duration": 0.0161,
      "velocity": 100,
      "chip": "ym2612"
    },
    {
      "channel": 0,
      "note": 68,
      "start": 60.0522,
      "duration": 0.0162,
      "velocity": 124,
      "chip": "ym2612"
    },
    {
      "channel": 4,
      "note": 66,
      "start": 60.0534,
      "duration": 0.0161,
      "velocity": 120,
      "chip": "ym2612"
    },
    {
      "channel": 3,
      "note": 73,
      "start": 60.0545,
      "duration": 0.0162,
      "velocity": 120,
      "chip": "ym2612"
    },
    {
      "channel": 2,
      "note": 52,
      "start": 60.0557,
      "duration": 0.0161,
      "velocity": 100,
      "chip": "ym2612"
    },
    {
      "channel": 0,
      "note": 65,
      "start": 60.0684,
      "duration": 0.0161,
      "velocity": 124,
      "chip": "ym2612"
    },
    {
      "channel": 4,
      "note": 66,
      "start": 60.0695,
      "duration": 0.0161,
      "velocity": 120,
      "chip": "ym2612"
    },
    {
      "channel": 3,
      "note": 73,
      "start": 60.0707,
      "duration": 0.0161,
      "velocity": 120,
      "chip": "ym2612"
    },
    {
      "channel": 2,
      "note": 52,
      "start": 60.0717,
      "duration": 0.0161,
      "velocity": 100,
      "chip": "ym2612"
    },
    {
      "channel": 0,
      "note": 63,
      "start": 60.0845,
      "duration": 0.0153,
      "velocity": 1,
      "chip": "ym2612"
    },
    {
      "channel": 4,
      "note": 66,
      "start": 60.0856,
      "duration": 0.0153,
      "velocity": 120,
      "chip": "ym2612"
    },
    {
      "channel": 3,
      "note": 73,
      "start": 60.0868,
      "duration": 0.0153,
      "velocity": 120,
      "chip": "ym2612"
    },
    {
      "channel": 2,
      "note": 52,
      "start": 60.0878,
      "duration": 0.0153,
      "velocity": 100,
      "chip": "ym2612"
    },
    {
      "channel": 4,
      "note": 66,
      "start": 60.1009,
      "duration": 0.0153,
      "velocity": 120,
      "chip": "ym2612"
    },
    {
      "channel": 3,
      "note": 73,
      "start": 60.102,
      "duration": 0.0153,
      "velocity": 120,
      "chip": "ym2612"
    },
    {
      "channel": 2,
      "note": 52,
      "start": 60.1032,
      "duration": 0.0153,
      "velocity": 100,
      "chip": "ym2612"
    },
    {
      "channel": 4,
      "note": 66,
      "start": 60.1161,
      "duration": 0.0163,
      "velocity": 120,
      "chip": "ym2612"
    },
    {
      "channel": 3,
      "note": 73,
      "start": 60.1173,
      "duration": 0.0166,
      "velocity": 120,
      "chip": "ym2612"
    },
    {
      "channel": 2,
      "note": 52,
      "start": 60.1184,
      "duration": 0.0169,
      "velocity": 100,
      "chip": "ym2612"
    },
    {
      "channel": 4,
      "note": 64,
      "start": 60.1325,
      "duration": 0.0159,
      "velocity": 120,
      "chip": "ym2612"
    },
    {
      "channel": 3,
      "note": 71,
      "start": 60.1339,
      "duration": 0.0157,
      "velocity": 120,
      "chip": "ym2612"
    },
    {
      "channel": 2,
      "note": 52,
      "start": 60.1354,
      "duration": 0.0154,
      "velocity": 100,
      "chip": "ym2612"
    },
    {
      "channel": 4,
      "note": 64,
      "start": 60.1484,
      "duration": 0.0165,
      "velocity": 120,
      "chip": "ym2612"
    },
    {
      "channel": 3,
      "note": 71,
      "start": 60.1496,
      "duration": 0.0164,
      "velocity": 120,
      "chip": "ym2612"
    },
    {
      "channel": 2,
      "note": 52,
      "start": 60.1508,
      "duration": 0.0163,
      "velocity": 100,
      "chip": "ym2612"
    },
    {
      "channel": 4,
      "note": 64,
      "start": 60.1649,
      "duration": 0.0167,
      "velocity": 120,
      "chip": "ym2612"
    },
    {
      "channel": 3,
      "note": 71,
      "start": 60.166,
      "duration": 0.0167,
      "velocity": 120,
      "chip": "ym2612"
    },
    {
      "channel": 2,
      "note": 52,
      "start": 60.1671,
      "duration": 0.0167,
      "velocity": 100,
      "chip": "ym2612"
    },
    {
      "channel": 4,
      "note": 64,
      "start": 60.1815,
      "duration": 0.0163,
      "velocity": 120,
      "chip": "ym2612"
    },
    {
      "channel": 3,
      "note": 71,
      "start": 60.1827,
      "duration": 0.0163,
      "velocity": 120,
      "chip": "ym2612"
    },
    {
      "channel": 2,
      "note": 52,
      "start": 60.1838,
      "duration": 0.0163,
      "velocity": 100,
      "chip": "ym2612"
    },
    {
      "channel": 4,
      "note": 64,
      "start": 60.1978,
      "duration": 0.0149,
      "velocity": 120,
      "chip": "ym2612"
    },
    {
      "channel": 3,
      "note": 71,
      "start": 60.199,
      "duration": 0.0149,
      "velocity": 120,
      "chip": "ym2612"
    },
    {
      "channel": 2,
      "note": 52,
      "start": 60.2001,
      "duration": 0.0149,
      "velocity": 100,
      "chip": "ym2612"
    },
    {
      "channel": 4,
      "note": 64,
      "start": 60.2128,
      "duration": 0.0188,
      "velocity": 120,
      "chip": "ym2612"
    },
    {
      "channel": 3,
      "note": 71,
      "start": 60.2139,
      "duration": 0.0188,
      "velocity": 120,
      "chip": "ym2612"
    },
    {
      "channel": 2,
      "note": 52,
      "start": 60.215,
      "duration": 0.0188,
      "velocity": 100,
      "chip": "ym2612"
    },
    {
      "channel": 4,
      "note": 64,
      "start": 60.2315,
      "duration": 0.0162,
      "velocity": 120,
      "chip": "ym2612"
    },
    {
      "channel": 3,
      "note": 71,
      "start": 60.2327,
      "duration": 0.0161,
      "velocity": 120,
      "chip": "ym2612"
    },
    {
      "channel": 2,
      "note": 52,
      "start": 60.2338,
      "duration": 0.0162,
      "velocity": 100,
      "chip": "ym2612"
    },
    {
      "channel": 4,
      "note": 64,
      "start": 60.2477,
      "duration": 0.0158,
      "velocity": 120,
      "chip": "ym2612"
    },
    {
      "channel": 3,
      "note": 71,
      "start": 60.2488,
      "duration": 0.0158,
      "velocity": 120,
      "chip": "ym2612"
    },
    {
      "channel": 2,
      "note": 52,
      "start": 60.25,
      "duration": 0.0157,
      "velocity": 100,
      "chip": "ym2612"
    },
    {
      "channel": 4,
      "note": 64,
      "start": 60.2635,
      "duration": 0.0137,
      "velocity": 120,
      "chip": "ym2612"
    },
    {
      "channel": 3,
      "note": 71,
      "start": 60.2646,
      "duration": 0.014,
      "velocity": 120,
      "chip": "ym2612"
    },
    {
      "channel": 2,
      "note": 52,
      "start": 60.2657,
      "duration": 0.0141,
      "velocity": 100,
      "chip": "ym2612"
    },
    {
      "channel": 4,
      "note": 64,
      "start": 60.2772,
      "duration": 0.0161,
      "velocity": 120,
      "chip": "ym2612"
    },
    {
      "channel": 3,
      "note": 71,
      "start": 60.2786,
      "duration": 0.0185,
      "velocity": 120,
      "chip": "ym2612"
    },
    {
      "channel": 2,
      "note": 52,
      "start": 60.2798,
      "duration": 0.0185,
      "velocity": 100,
      "chip": "ym2612"
    },
    {
      "channel": 4,
      "note": 64,
      "start": 60.2933,
      "duration": 0.0161,
      "velocity": 120,
      "chip": "ym2612"
    },
    {
      "channel": 3,
      "note": 71,
      "start": 60.2971,
      "duration": 0.0134,
      "velocity": 120,
      "chip": "ym2612"
    },
    {
      "channel": 2,
      "note": 52,
      "start": 60.2983,
      "duration": 0.0161,
      "velocity": 100,
      "chip": "ym2612"
    },
    {
      "channel": 4,
      "note": 64,
      "start": 60.3093,
      "duration": 0.0222,
      "velocity": 120,
      "chip": "ym2612"
    },
    {
      "channel": 3,
      "note": 71,
      "start": 60.3105,
      "duration": 0.0224,
      "velocity": 120,
      "chip": "ym2612"
    },
    {
      "channel": 2,
      "note": 52,
      "start": 60.3144,
      "duration": 0.02,
      "velocity": 100,
      "chip": "ym2612"
    },
    {
      "channel": 0,
      "note": 36,
      "start": 60.3302,
      "duration": 0.012,
      "velocity": 115,
      "chip": "ym2612"
    },
    {
      "channel": 4,
      "note": 64,
      "start": 60.3315,
      "duration": 0.0118,
      "velocity": 120,
      "chip": "ym2612"
    },
    {
      "channel": 3,
      "note": 71,
      "start": 60.3329,
      "duration": 0.0119,
      "velocity": 120,
      "chip": "ym2612"
    },
    {
      "channel": 2,
      "note": 52,
      "start": 60.3344,
      "duration": 0.0116,
      "velocity": 100,
      "chip": "ym2612"
    },
    {
      "channel": 0,
      "note": 36,
      "start": 60.3421,
      "duration": 0.016,
      "velocity": 115,
      "chip": "ym2612"
    },
    {
      "channel": 4,
      "note": 64,
      "start": 60.3433,
      "duration": 0.016,
      "velocity": 120,
      "chip": "ym2612"
    },
    {
      "channel": 3,
      "note": 71,
      "start": 60.3449,
      "duration": 0.0156,
      "velocity": 120,
      "chip": "ym2612"
    },
    {
      "channel": 2,
      "note": 52,
      "start": 60.3461,
      "duration": 0.0183,
      "velocity": 100,
      "chip": "ym2612"
    },
    {
      "channel": 0,
      "note": 37,
      "start": 60.3581,
      "duration": 0.0161,
      "velocity": 115,
      "chip": "ym2612"
    },
    {
      "channel": 4,
      "note": 64,
      "start": 60.3593,
      "duration": 0.0161,
      "velocity": 120,
      "chip": "ym2612"
    },
    {
      "channel": 3,
      "note": 71,
      "start": 60.3604,
      "duration": 0.0161,
      "velocity": 120,
      "chip": "ym2612"
    },
    {
      "channel": 2,
      "note": 52,
      "start": 60.3643,
      "duration": 0.0161,
      "velocity": 100,
      "chip": "ym2612"
    },
    {
      "channel": 0,
      "note": 37,
      "start": 60.3742,
      "duration": 0.0161,
      "velocity": 115,
      "chip": "ym2612"
    },
    {
      "channel": 4,
      "note": 64,
      "start": 60.3754,
      "duration": 0.0162,
      "velocity": 120,
      "chip": "ym2612"
    },
    {
      "channel": 3,
      "note": 71,
      "start": 60.3765,
      "duration": 0.0161,
      "velocity": 120,
      "chip": "ym2612"
    },
    {
      "channel": 2,
      "note": 52,
      "start": 60.3804,
      "duration": 0.0134,
      "velocity": 100,
      "chip": "ym2612"
    },
    {
      "channel": 0,
      "note": 38,
      "start": 60.3904,
      "duration": 0.0161,
      "velocity": 115,
      "chip": "ym2612"
    },
    {
      "channel": 4,
      "note": 64,
      "start": 60.3915,
      "duration": 0.0161,
      "velocity": 120,
      "chip": "ym2612"
    },
    {
      "channel": 3,
      "note": 71,
      "start": 60.3927,
      "duration": 0.0161,
      "velocity": 120,
      "chip": "ym2612"
    },
    {
      "channel": 2,
      "note": 52,
      "start": 60.3938,
      "duration": 0.0162,
      "velocity": 100,
      "chip": "ym2612"
    },
    {
      "channel": 0,
      "note": 38,
      "start": 60.4065,
      "duration": 0.0161,
      "velocity": 115,
      "chip": "ym2612"
    },
    {
      "channel": 4,
      "note": 64,
      "start": 60.4076,
      "duration": 0.0161,
      "velocity": 120,
      "chip": "ym2612"
    },
    {
      "channel": 3,
      "note": 71,
      "start": 60.4088,
      "duration": 0.0161,
      "velocity": 120,
      "chip": "ym2612"
    },
    {
      "channel": 2,
      "note": 52,
      "start": 60.4099,
      "duration": 0.0161,
      "velocity": 100,
      "chip": "ym2612"
    },
    {
      "channel": 0,
      "note": 39,
      "start": 60.4226,
      "duration": 0.0161,
      "velocity": 115,
      "chip": "ym2612"
    },
    {
      "channel": 4,
      "note": 64,
      "start": 60.4237,
      "duration": 0.0161,
      "velocity": 120,
      "chip": "ym2612"
    },
    {
      "channel": 3,
      "note": 71,
      "start": 60.4249,
      "duration": 0.0161,
      "velocity": 120,
      "chip": "ym2612"
    },
    {
      "channel": 2,
      "note": 52,
      "start": 60.426,
      "duration": 0.0161,
      "velocity": 100,
      "chip": "ym2612"
    },
    {
      "channel": 0,
      "note": 39,
      "start": 60.4387,
      "duration": 0.0161,
      "velocity": 115,
      "chip": "ym2612"
    },
    {
      "channel": 4,
      "note": 64,
      "start": 60.4398,
      "duration": 0.0161,
      "velocity": 120,
      "chip": "ym2612"
    },
    {
      "channel": 3,
      "note": 71,
      "start": 60.441,
      "duration": 0.0161,
      "velocity": 120,
      "chip": "ym2612"
    },
    {
      "channel": 2,
      "note": 52,
      "start": 60.4421,
      "duration": 0.0161,
      "velocity": 100,
      "chip": "ym2612"
    },
    {
      "channel": 0,
      "note": 40,
      "start": 60.4548,
      "duration": 0.0161,
      "velocity": 115,
      "chip": "ym2612"
    },
    {
      "channel": 4,
      "note": 64,
      "start": 60.4559,
      "duration": 0.0161,
      "velocity": 120,
      "chip": "ym2612"
    },
    {
      "channel": 3,
      "note": 71,
      "start": 60.4571,
      "duration": 0.0161,
      "velocity": 120,
      "chip": "ym2612"
    },
    {
      "channel": 2,
      "note": 52,
      "start": 60.4582,
      "duration": 0.0161,
      "velocity": 100,
      "chip": "ym2612"
    },
    {
      "channel": 0,
      "note": 40,
      "start": 60.4709,
      "duration": 0.0161,
      "velocity": 115,
      "chip": "ym2612"
    },
    {
      "channel": 4,
      "note": 64,
      "start": 60.472,
      "duration": 0.0161,
      "velocity": 120,
      "chip": "ym2612"
    },
    {
      "channel": 3,
      "note": 71,
      "start": 60.4732,
      "duration": 0.0161,
      "velocity": 120,
      "chip": "ym2612"
    },
    {
      "channel": 2,
      "note": 52,
      "start": 60.4743,
      "duration": 0.0161,
      "velocity": 100,
      "chip": "ym2612"
    },
    {
      "channel": 0,
      "note": 40,
      "start": 60.487,
      "duration": 0.0161,
      "velocity": 115,
      "chip": "ym2612"
    },
    {
      "channel": 4,
      "note": 64,
      "start": 60.4881,
      "duration": 0.0161,
      "velocity": 120,
      "chip": "ym2612"
    },
    {
      "channel": 3,
      "note": 71,
      "start": 60.4893,
      "duration": 0.0161,
      "velocity": 120,
      "chip": "ym2612"
    },
    {
      "channel": 2,
      "note": 52,
      "start": 60.4904,
      "duration": 0.0161,
      "velocity": 100,
      "chip": "ym2612"
    },
    {
      "channel": 0,
      "note": 41,
      "start": 60.5031,
      "duration": 0.0161,
      "velocity": 115,
      "chip": "ym2612"
    },
    {
      "channel": 4,
      "note": 64,
      "start": 60.5042,
      "duration": 0.0163,
      "velocity": 120,
      "chip": "ym2612"
    },
    {
      "channel": 3,
      "note": 71,
      "start": 60.5054,
      "duration": 0.0166,
      "velocity": 120,
      "chip": "ym2612"
    },
    {
      "channel": 2,
      "note": 52,
      "start": 60.5065,
      "duration": 0.0169,
      "velocity": 100,
      "chip": "ym2612"
    },
    {
      "channel": 0,
      "note": 41,
      "start": 60.5191,
      "duration": 0.0162,
      "velocity": 115,
      "chip": "ym2612"
    },
    {
      "channel": 4,
      "note": 69,
      "start": 60.5206,
      "duration": 0.0159,
      "velocity": 120,
      "chip": "ym2612"
    },
    {
      "channel": 3,
      "note": 76,
      "start": 60.522,
      "duration": 0.0157,
      "velocity": 120,
      "chip": "ym2612"
    },
    {
      "channel": 2,
      "note": 52,
      "start": 60.5234,
      "duration": 0.0155,
      "velocity": 100,
      "chip": "ym2612"
    },
    {
      "channel": 0,
      "note": 42,
      "start": 60.5353,
      "duration": 0.0161,
      "velocity": 115,
      "chip": "ym2612"
    },
    {
      "channel": 4,
      "note": 69,
      "start": 60.5365,
      "duration": 0.016,
      "velocity": 120,
      "chip": "ym2612"
    },
    {
      "channel": 3,
      "note": 76,
      "start": 60.5377,
      "duration": 0.016,
      "velocity": 120,
      "chip": "ym2612"
    },
    {
      "channel": 2,
      "note": 52,
      "start": 60.5389,
      "duration": 0.0159,
      "velocity": 100,
      "chip": "ym2612"
    },
    {
      "channel": 0,
      "note": 42,
      "start": 60.5514,
      "duration": 0.0161,
      "velocity": 115,
      "chip": "ym2612"
    },
    {
      "channel": 4,
      "note": 69,
      "start": 60.5525,
      "duration": 0.0161,
      "velocity": 120,
      "chip": "ym2612"
    },
    {
      "channel": 3,
      "note": 76,
      "start": 60.5537,
      "duration": 0.0161,
      "velocity": 120,
      "chip": "ym2612"
    },
    {
      "channel": 2,
      "note": 52,
      "start": 60.5548,
      "duration": 0.0162,
      "velocity": 100,
      "chip": "ym2612"
    },
    {
      "channel": 0,
      "note": 43,
      "start": 60.5675,
      "duration": 0.0161,
      "velocity": 115,
      "chip": "ym2612"
    },
    {
      "channel": 4,
      "note": 69,
      "start": 60.5686,
      "duration": 0.0161,
      "velocity": 120,
      "chip": "ym2612"
    },
    {
      "channel": 3,
      "note": 76,
      "start": 60.5698,
      "duration": 0.0161,
      "velocity": 120,
      "chip": "ym2612"
    },
    {
      "channel": 2,
      "note": 52,
      "start": 60.5709,
      "duration": 0.0161,
      "velocity": 100,
      "chip": "ym2612"
    },
    {
      "channel": 0,
      "note": 43,
      "start": 60.5836,
      "duration": 0.0161,
      "velocity": 115,
      "chip": "ym2612"
    },
    {
      "channel": 4,
      "note": 69,
      "start": 60.5847,
      "duration": 0.0161,
      "velocity": 120,
      "chip": "ym2612"
    },
    {
      "channel": 3,
      "note": 76,
      "start": 60.5859,
      "duration": 0.0161,
      "velocity": 120,
      "chip": "ym2612"
    },
    {
      "channel": 2,
      "note": 52,
      "start": 60.587,
      "duration": 0.0161,
      "velocity": 100,
      "chip": "ym2612"
    },
    {
      "channel": 0,
      "note": 44,
      "start": 60.5997,
      "duration": 0.0161,
      "velocity": 115,
      "chip": "ym2612"
    },
    {
      "channel": 4,
      "note": 69,
      "start": 60.6008,
      "duration": 0.0161,
      "velocity": 120,
      "chip": "ym2612"
    },
    {
      "channel": 3,
      "note": 76,
      "start": 60.602,
      "duration": 0.0161,
      "velocity": 120,
      "chip": "ym2612"
    },
    {
      "channel": 2,
      "note": 52,
      "start": 60.6031,
      "duration": 0.0161,
      "velocity": 100,
      "chip": "ym2612"
    },
    {
      "channel": 0,
      "note": 44,
      "start": 60.6158,
      "duration": 0.0163,
      "velocity": 115,
      "chip": "ym2612"
    },
    {
      "channel": 4,
      "note": 69,
      "start": 60.6169,
      "duration": 0.0163,
      "velocity": 120,
      "chip": "ym2612"
    },
    {
      "channel": 3,
      "note": 76,
      "start": 60.6181,
      "duration": 0.0163,
      "velocity": 120,
      "chip": "ym2612"
    },
    {
      "channel": 2,
      "note": 52,
      "start": 60.6192,
      "duration": 0.0162,
      "velocity": 100,
      "chip": "ym2612"
    },
    {
      "channel": 0,
      "note": 44,
      "start": 60.6321,
      "duration": 0.0167,
      "velocity": 115,
      "chip": "ym2612"
    },
    {
      "channel": 4,
      "note": 69,
      "start": 60.6332,
      "duration": 0.0167,
      "velocity": 120,
      "chip": "ym2612"
    },
    {
      "channel": 3,
      "note": 76,
      "start": 60.6344,
      "duration": 0.0167,
      "velocity": 120,
      "chip": "ym2612"
    },
    {
      "channel": 2,
      "note": 52,
      "start": 60.6354,
      "duration": 0.0167,
      "velocity": 100,
      "chip": "ym2612"
    },
    {
      "channel": 0,
      "note": 45,
      "start": 60.6487,
      "duration": 0.0163,
      "velocity": 115,
      "chip": "ym2612"
    },
    {
      "channel": 4,
      "note": 69,
      "start": 60.6499,
      "duration": 0.0163,
      "velocity": 120,
      "chip": "ym2612"
    },
    {
      "channel": 3,
      "note": 76,
      "start": 60.651,
      "duration": 0.0163,
      "velocity": 120,
      "chip": "ym2612"
    },
    {
      "channel": 2,
      "note": 52,
      "start": 60.6521,
      "duration": 0.0163,
      "velocity": 100,
      "chip": "ym2612"
    },
    {
      "channel": 0,
      "note": 45,
      "start": 60.665,
      "duration": 0.0152,
      "velocity": 115,
      "chip": "ym2612"
    },
    {
      "channel": 4,
      "note": 69,
      "start": 60.6661,
      "duration": 0.0152,
      "velocity": 120,
      "chip": "ym2612"
    },
    {
      "channel": 3,
      "note": 76,
      "start": 60.6673,
      "duration": 0.0152,
      "velocity": 120,
      "chip": "ym2612"
    },
    {
      "channel": 2,
      "note": 52,
      "start": 60.6684,
      "duration": 0.0151,
      "velocity": 100,
      "chip": "ym2612"
    },
    {
      "channel": 0,
      "note": 46,
      "start": 60.6802,
      "duration": 0.0185,
      "velocity": 115,
      "chip": "ym2612"
    },
    {
      "channel": 4,
      "note": 69,
      "start": 60.6814,
      "duration": 0.0185,
      "velocity": 120,
      "chip": "ym2612"
    },
    {
      "channel": 3,
      "note": 76,
      "start": 60.6825,
      "duration": 0.0185,
      "velocity": 120,
      "chip": "ym2612"
    },
    {
      "channel": 2,
      "note": 52,
      "start": 60.6836,
      "duration": 0.0185,
      "velocity": 100,
      "chip": "ym2612"
    },
    {
      "channel": 0,
      "note": 46,
      "start": 60.6987,
      "duration": 0.0182,
      "velocity": 124,
      "chip": "ym2612"
    },
    {
      "channel": 4,
      "note": 69,
      "start": 60.6999,
      "duration": 0.0185,
      "velocity": 120,
      "chip": "ym2612"
    },
    {
      "channel": 3,
      "note": 76,
      "start": 60.701,
      "duration": 0.0187,
      "velocity": 120,
      "chip": "ym2612"
    },
    {
      "channel": 2,
      "note": 52,
      "start": 60.7021,
      "duration": 0.0191,
      "velocity": 100,
      "chip": "ym2612"
    },
    {
      "channel": 0,
      "note": 84,
      "start": 60.7169,
      "duration": 0.014,
      "velocity": 124,
      "chip": "ym2612"
    },
    {
      "channel": 4,
      "note": 69,
      "start": 60.7184,
      "duration": 0.0137,
      "velocity": 120,
      "chip": "ym2612"
    },
    {
      "channel": 3,
      "note": 76,
      "start": 60.7198,
      "duration": 0.0136,
      "velocity": 120,
      "chip": "ym2612"
    },
    {
      "channel": 2,
      "note": 52,
      "start": 60.7212,
      "duration": 0.0134,
      "velocity": 100,
      "chip": "ym2612"
    },
    {
      "channel": 0,
      "note": 82,
      "start": 60.7309,
      "duration": 0.014,
      "velocity": 124,
      "chip": "ym2612"
    },
    {
      "channel": 4,
      "note": 69,
      "start": 60.7321,
      "duration": 0.014,
      "velocity": 120,
      "chip": "ym2612"
    },
    {
      "channel": 3,
      "note": 76,
      "start": 60.7333,
      "duration": 0.0139,
      "velocity": 120,
      "chip": "ym2612"
    },
    {
      "channel": 2,
      "note": 52,
      "start": 60.7345,
      "duration": 0.0138,
      "velocity": 100,
      "chip": "ym2612"
    },
    {
      "channel": 0,
      "note": 80,
      "start": 60.7449,
      "duration": 0.0185,
      "velocity": 124,
      "chip": "ym2612"
    },
    {
      "channel": 4,
      "note": 69,
      "start": 60.7461,
      "duration": 0.0185,
      "velocity": 120,
      "chip": "ym2612"
    },
    {
      "channel": 3,
      "note": 76,
      "start": 60.7472,
      "duration": 0.0185,
      "velocity": 120,
      "chip": "ym2612"
    },
    {
      "channel": 2,
      "note": 52,
      "start": 60.7483,
      "duration": 0.0185,
      "velocity": 100,
      "chip": "ym2612"
    },
    {
      "channel": 0,
      "note": 77,
      "start": 60.7634,
      "duration": 0.0134,
      "velocity": 124,
      "chip": "ym2612"
    },
    {
      "channel": 4,
      "note": 69,
      "start": 60.7646,
      "duration": 0.0161,
      "velocity": 120,
      "chip": "ym2612"
    },
    {
      "channel": 3,
      "note": 76,
      "start": 60.7657,
      "duration": 0.0161,
      "velocity": 120,
      "chip": "ym2612"
    },
    {
      "channel": 2,
      "note": 52,
      "start": 60.7668,
      "duration": 0.0161,
      "velocity": 100,
      "chip": "ym2612"
    },
    {
      "channel": 0,
      "note": 75,
      "start": 60.7768,
      "duration": 0.0161,
      "velocity": 124,
      "chip": "ym2612"
    },
    {
      "channel": 4,
      "note": 69,
      "start": 60.7807,
      "duration": 0.0157,
      "velocity": 120,
      "chip": "ym2612"
    },
    {
      "channel": 3,
      "note": 76,
      "start": 60.7819,
      "duration": 0.0157,
      "velocity": 120,
      "chip": "ym2612"
    },
    {
      "channel": 2,
      "note": 52,
      "start": 60.7829,
      "duration": 0.0158,
      "velocity": 100,
      "chip": "ym2612"
    },
    {
      "channel": 0,
      "note": 72,
      "start": 60.7929,
      "duration": 0.0161,
      "velocity": 124,
      "chip": "ym2612"
    },
    {
      "channel": 4,
      "note": 69,
      "start": 60.7964,
      "duration": 0.0137,
      "velocity": 120,
      "chip": "ym2612"
    },
    {
      "channel": 3,
      "note": 76,
      "start": 60.7976,
      "duration": 0.0141,
      "velocity": 120,
      "chip": "ym2612"
    },
    {
      "channel": 2,
      "note": 52,
      "start": 60.7987,
      "duration": 0.0141,
      "velocity": 100,
      "chip": "ym2612"
    },
    {
      "channel": 0,
      "note": 70,
      "start": 60.809,
      "duration": 0.0161,
      "velocity": 124,
      "chip": "ym2612"
    },
    {
      "channel": 4,
      "note": 69,
      "start": 60.8102,
      "duration": 0.0161,
      "velocity": 120,
      "chip": "ym2612"
    },
    {
      "channel": 3,
      "note": 76,
      "start": 60.8116,
      "duration": 0.0185,
      "velocity": 120,
      "chip": "ym2612"
    },
    {
      "channel": 2,
      "note": 52,
      "start": 60.8128,
      "duration": 0.0185,
      "velocity": 100,
      "chip": "ym2612"
    },
    {
      "channel": 0,
      "note": 68,
      "start": 60.8251,
      "duration": 0.0161,
      "velocity": 124,
      "chip": "ym2612"
    },
    {
      "channel": 4,
      "note": 69,
      "start": 60.8263,
      "duration": 0.0161,
      "velocity": 120,
      "chip": "ym2612"
    },
    {
      "channel": 3,
      "note": 76,
      "start": 60.8302,
      "duration": 0.0134,
      "velocity": 120,
      "chip": "ym2612"
    },
    {
      "channel": 2,
      "note": 52,
      "start": 60.8313,
      "duration": 0.0161,
      "velocity": 100,
      "chip": "ym2612"
    },
    {
      "channel": 0,
      "note": 65,
      "start": 60.8412,
      "duration": 0.0161,
      "velocity": 124,
      "chip": "ym2612"
    },
    {
      "channel": 4,
      "note": 69,
      "start": 60.8424,
      "duration": 0.0161,
      "velocity": 120,
      "chip": "ym2612"
    },
    {
      "channel": 3,
      "note": 76,
      "start": 60.8435,
      "duration": 0.0161,
      "velocity": 120,
      "chip": "ym2612"
    },
    {
      "channel": 2,
      "note": 52,
      "start": 60.8474,
      "duration": 0.0157,
      "velocity": 100,
      "chip": "ym2612"
    },
    {
      "channel": 0,
      "note": 63,
      "start": 60.8573,
      "duration": 0.0153,
      "velocity": 1,
      "chip": "ym2612"
    },
    {
      "channel": 4,
      "note": 69,
      "start": 60.8585,
      "duration": 0.0153,
      "velocity": 120,
      "chip": "ym2612"
    },
    {
      "channel": 3,
      "note": 76,
      "start": 60.8596,
      "duration": 0.0153,
      "velocity": 120,
      "chip": "ym2612"
    },
    {
      "channel": 2,
      "note": 52,
      "start": 60.8631,
      "duration": 0.0129,
      "velocity": 100,
      "chip": "ym2612"
    },
    {
      "channel": 4,
      "note": 69,
      "start": 60.8738,
      "duration": 0.0152,
      "velocity": 120,
      "chip": "ym2612"
    },
    {
      "channel": 3,
      "note": 76,
      "start": 60.8749,
      "duration": 0.0153,
      "velocity": 120,
      "chip": "ym2612"
    },
    {
      "channel": 2,
      "note": 52,
      "start": 60.876,
      "duration": 0.0153,
      "velocity": 100,
      "chip": "ym2612"
    },
    {
      "channel": 4,
      "note": 69,
      "start": 60.889,
      "duration": 0.0198,
      "velocity": 120,
      "chip": "ym2612"
    },
    {
      "channel": 3,
      "note": 76,
      "start": 60.8901,
      "duration": 0.02,
      "velocity": 120,
      "chip": "ym2612"
    },
    {
      "channel": 2,
      "note": 52,
      "start": 60.8913,
      "duration": 0.0231,
      "velocity": 100,
      "chip": "ym2612"
    },
    {
      "channel": 0,
      "note": 36,
      "start": 60.9074,
      "duration": 0.0144,
      "velocity": 115,
      "chip": "ym2612"
    },
    {
      "channel": 4,
      "note": 67,
      "start": 60.9088,
      "duration": 0.0141,
      "velocity": 120,
      "chip": "ym2612"
    },
    {
      "channel": 3,
      "note": 74,
      "start": 60.9102,
      "duration": 0.014,
      "velocity": 120,
      "chip": "ym2612"
    },
    {
      "channel": 2,
      "note": 52,
      "start": 60.9144,
      "duration": 0.0109,
      "velocity": 100,
      "chip": "ym2612"
    },
    {
      "channel": 0,
      "note": 36,
      "start": 60.9217,
      "duration": 0.016,
      "velocity": 115,
      "chip": "ym2612"
    },
    {
      "channel": 4,
      "note": 67,
      "start": 60.923,
      "duration": 0.016,
      "velocity": 120,
      "chip": "ym2612"
    },
    {
      "channel": 3,
      "note": 74,
      "start": 60.9242,
      "duration": 0.0159,
      "velocity": 120,
      "chip": "ym2612"
    },
    {
      "channel": 2,
      "note": 52,
      "start": 60.9254,
      "duration": 0.0159,
      "velocity": 100,
      "chip": "ym2612"
    },
    {
      "channel": 0,
      "note": 37,
      "start": 60.9378,
      "duration": 0.0161,
      "velocity": 115,
      "chip": "ym2612"
    },
    {
      "channel": 4,
      "note": 67,
      "start": 60.9389,
      "duration": 0.0161,
      "velocity": 120,
      "chip": "ym2612"
    },
    {
      "channel": 3,
      "note": 74,
      "start": 60.9401,
      "duration": 0.0161,
      "velocity": 120,
      "chip": "ym2612"
    },
    {
      "channel": 2,
      "note": 52,
      "start": 60.9412,
      "duration": 0.0161,
      "velocity": 100,
      "chip": "ym2612"
    },
    {
      "channel": 0,
      "note": 37,
      "start": 60.9539,
      "duration": 0.0162,
      "velocity": 115,
      "chip": "ym2612"
    },
    {
      "channel": 4,
      "note": 67,
      "start": 60.955,
      "duration": 0.0161,
      "velocity": 120,
      "chip": "ym2612"
    },
    {
      "channel": 3,
      "note": 74,
      "start": 60.9562,
      "duration": 0.0162,
      "velocity": 120,
      "chip": "ym2612"
    },
    {
      "channel": 2,
      "note": 52,
      "start": 60.9573,
      "duration": 0.0161,
      "velocity": 100,
      "chip": "ym2612"
    },
    {
      "channel": 0,
      "note": 38,
      "start": 60.97,
      "duration": 0.0161,
      "velocity": 115,
      "chip": "ym2612"
    },
    {
      "channel": 4,
      "note": 67,
      "start": 60.9712,
      "duration": 0.0161,
      "velocity": 120,
      "chip": "ym2612"
    },
    {
      "channel": 3,
      "note": 74,
      "start": 60.9723,
      "duration": 0.0161,
      "velocity": 120,
      "chip": "ym2612"
    },
    {
      "channel": 2,
      "note": 52,
      "start": 60.9734,
      "duration": 0.0161,
      "velocity": 100,
      "chip": "ym2612"
    },
    {
      "channel": 0,
      "note": 38,
      "start": 60.9861,
      "duration": 0.0161,
      "velocity": 115,
      "chip": "ym2612"
    },
    {
      "channel": 4,
      "note": 67,
      "start": 60.9873,
      "duration": 0.0161,
      "velocity": 120,
      "chip": "ym2612"
    },
    {
      "channel": 3,
      "note": 74,
      "start": 60.9884,
      "duration": 0.0161,
      "velocity": 120,
      "chip": "ym2612"
    },
    {
      "channel": 2,
      "note": 52,
      "start": 60.9895,
      "duration": 0.0162,
      "velocity": 100,
      "chip": "ym2612"
    },
    {
      "channel": 0,
      "note": 39,
      "start": 61.0022,
      "duration": 0.0161,
      "velocity": 115,
      "chip": "ym2612"
    },
    {
      "channel": 4,
      "note": 67,
      "start": 61.0034,
      "duration": 0.0161,
      "velocity": 120,
      "chip": "ym2612"
    },
    {
      "channel": 3,
      "note": 74,
      "start": 61.0045,
      "duration": 0.0161,
      "velocity": 120,
      "chip": "ym2612"
    },
    {
      "channel": 2,
      "note": 52,
      "start": 61.0057,
      "duration": 0.0161,
      "velocity": 100,
      "chip": "ym2612"
    },
    {
      "channel": 0,
      "note": 39,
      "start": 61.0183,
      "duration": 0.0161,
      "velocity": 115,
      "chip": "ym2612"
    },
    {
      "channel": 4,
      "note": 67,
      "start": 61.0195,
      "duration": 0.0161,
      "velocity": 120,
      "chip": "ym2612"
    },
    {
      "channel": 3,
      "note": 74,
      "start": 61.0206,
      "duration": 0.0161,
      "velocity": 120,
      "chip": "ym2612"
    },
    {
      "channel": 2,
      "note": 52,
      "start": 61.0217,
      "duration": 0.0161,
      "velocity": 100,
      "chip": "ym2612"
    },
    {
      "channel": 0,
      "note": 40,
      "start": 61.0344,
      "duration": 0.0161,
      "velocity": 115,
      "chip": "ym2612"
    },
    {
      "channel": 4,
      "note": 67,
      "start": 61.0356,
      "duration": 0.0161,
      "velocity": 120,
      "chip": "ym2612"
    },
    {
      "channel": 3,
      "note": 74,
      "start": 61.0367,
      "duration": 0.0161,
      "velocity": 120,
      "chip": "ym2612"
    },
    {
      "channel": 2,
      "note": 52,
      "start": 61.0378,
      "duration": 0.0161,
      "velocity": 100,
      "chip": "ym2612"
    },
    {
      "channel": 0,
      "note": 40,
      "start": 61.0505,
      "duration": 0.0161,
      "velocity": 115,
      "chip": "ym2612"
    },
    {
      "channel": 4,
      "note": 67,
      "start": 61.0517,
      "duration": 0.0161,
      "velocity": 120,
      "chip": "ym2612"
    },
    {
      "channel": 3,
      "note": 74,
      "start": 61.0528,
      "duration": 0.0161,
      "velocity": 120,
      "chip": "ym2612"
    },
    {
      "channel": 2,
      "note": 52,
      "start": 61.0539,
      "duration": 0.0161,
      "velocity": 100,
      "chip": "ym2612"
    },
    {
      "channel": 0,
      "note": 40,
      "start": 61.0666,
      "duration": 0.0161,
      "velocity": 115,
      "chip": "ym2612"
    },
    {
      "channel": 4,
      "note": 67,
      "start": 61.0678,
      "duration": 0.0161,
      "velocity": 120,
      "chip": "ym2612"
    },
    {
      "channel": 3,
      "note": 74,
      "start": 61.0689,
      "duration": 0.0161,
      "velocity": 120,
      "chip": "ym2612"
    },
    {
      "channel": 2,
      "note": 52,
      "start": 61.07,
      "duration": 0.0161,
      "velocity": 100,
      "chip": "ym2612"
    },
    {
      "channel": 0,
      "note": 41,
      "start": 61.0827,
      "duration": 0.0179,
      "velocity": 115,
      "chip": "ym2612"
    },
    {
      "channel": 4,
      "note": 67,
      "start": 61.0838,
      "duration": 0.0181,
      "velocity": 120,
      "chip": "ym2612"
    },
    {
      "channel": 3,
      "note": 74,
      "start": 61.085,
      "duration": 0.0184,
      "velocity": 120,
      "chip": "ym2612"
    },
    {
      "channel": 2,
      "note": 52,
      "start": 61.0861,
      "duration": 0.0187,
      "velocity": 100,
      "chip": "ym2612"
    },
    {
      "channel": 0,
      "note": 36,
      "start": 61.1006,
      "duration": 0.0149,
      "velocity": 115,
      "chip": "ym2612"
    },
    {
      "channel": 4,
      "note": 67,
      "start": 61.102,
      "duration": 0.0146,
      "velocity": 120,
      "chip": "ym2612"
    },
    {
      "channel": 3,
      "note": 74,
      "start": 61.1034,
      "duration": 0.0144,
      "velocity": 120,
      "chip": "ym2612"
    },
    {
      "channel": 2,
      "note": 52,
      "start": 61.1049,
      "duration": 0.0141,
      "velocity": 100,
      "chip": "ym2612"
    },
    {
      "channel": 0,
      "note": 36,
      "start": 61.1155,
      "duration": 0.0162,
      "velocity": 115,
      "chip": "ym2612"
    },
    {
      "channel": 4,
      "note": 67,
      "start": 61.1167,
      "duration": 0.0161,
      "velocity": 120,
      "chip": "ym2612"
    },
    {
      "channel": 3,
      "note": 74,
      "start": 61.1178,
      "duration": 0.0162,
      "velocity": 120,
      "chip": "ym2612"
    },
    {
      "channel": 2,
      "note": 52,
      "start": 61.119,
      "duration": 0.0161,
      "velocity": 100,
      "chip": "ym2612"
    },
    {
      "channel": 0,
      "note": 37,
      "start": 61.1317,
      "duration": 0.0155,
      "velocity": 115,
      "chip": "ym2612"
    },
    {
      "channel": 4,
      "note": 67,
      "start": 61.1328,
      "duration": 0.0155,
      "velocity": 120,
      "chip": "ym2612"
    },
    {
      "channel": 3,
      "note": 74,
      "start": 61.134,
      "duration": 0.0155,
      "velocity": 120,
      "chip": "ym2612"
    },
    {
      "channel": 2,
      "note": 52,
      "start": 61.1351,
      "duration": 0.0154,
      "velocity": 100,
      "chip": "ym2612"
    },
    {
      "channel": 0,
      "note": 37,
      "start": 61.1471,
      "duration": 0.0183,
      "velocity": 115,
      "chip": "ym2612"
    },
    {
      "channel": 4,
      "note": 67,
      "start": 61.1483,
      "duration": 0.0183,
      "velocity": 120,
      "chip": "ym2612"
    },
    {
      "channel": 3,
      "note": 74,
      "start": 61.1494,
      "duration": 0.0183,
      "velocity": 120,
      "chip": "ym2612"
    },
    {
      "channel": 2,
      "note": 52,
      "start": 61.1505,
      "duration": 0.0183,
      "velocity": 100,
      "chip": "ym2612"
    },
    {
      "channel": 0,
      "note": 38,
      "start": 61.1654,
      "duration": 0.0167,
      "velocity": 115,
      "chip": "ym2612"
    },
    {
      "channel": 4,
      "note": 67,
      "start": 61.1665,
      "duration": 0.0167,
      "velocity": 120,
      "chip": "ym2612"
    },
    {
      "channel": 3,
      "note": 74,
      "start": 61.1677,
      "duration": 0.0167,
      "velocity": 120,
      "chip": "ym2612"
    },
    {
      "channel": 2,
      "note": 52,
      "start": 61.1688,
      "duration": 0.0167,
      "velocity": 100,
      "chip": "ym2612"
    },
    {
      "channel": 0,
      "note": 38,
      "start": 61.1821,
      "duration": 0.0158,
      "velocity": 115,
      "chip": "ym2612"
    },
    {
      "channel": 4,
      "note": 67,
      "start": 61.1832,
      "duration": 0.0158,
      "velocity": 120,
      "chip": "ym2612"
    },
    {
      "channel": 3,
      "note": 74,
      "start": 61.1844,
      "duration": 0.0158,
      "velocity": 120,
      "chip": "ym2612"
    },
    {
      "channel": 2,
      "note": 52,
      "start": 61.1854,
      "duration": 0.0158,
      "velocity": 100,
      "chip": "ym2612"
    },
    {
      "channel": 0,
      "note": 39,
      "start": 61.1978,
      "duration": 0.014,
      "velocity": 115,
      "chip": "ym2612"
    },
    {
      "channel": 4,
      "note": 67,
      "start": 61.199,
      "duration": 0.014,
      "velocity": 120,
      "chip": "ym2612"
    },
    {
      "channel": 3,
      "note": 74,
      "start": 61.2001,
      "duration": 0.014,
      "velocity": 120,
      "chip": "ym2612"
    },
    {
      "channel": 2,
      "note": 52,
      "start": 61.2012,
      "duration": 0.0141,
      "velocity": 100,
      "chip": "ym2612"
    },
    {
      "channel": 0,
      "note": 39,
      "start": 61.2118,
      "duration": 0.0185,
      "velocity": 115,
      "chip": "ym2612"
    },
    {
      "channel": 4,
      "note": 67,
      "start": 61.213,
      "duration": 0.0185,
      "velocity": 120,
      "chip": "ym2612"
    },
    {
      "channel": 3,
      "note": 74,
      "start": 61.2141,
      "duration": 0.0185,
      "velocity": 120,
      "chip": "ym2612"
    },
    {
      "channel": 2,
      "note": 52,
      "start": 61.2153,
      "duration": 0.0185,
      "velocity": 100,
      "chip": "ym2612"
    },
    {
      "channel": 0,
      "note": 40,
      "start": 61.2303,
      "duration": 0.0134,
      "velocity": 115,
      "chip": "ym2612"
    },
    {
      "channel": 4,
      "note": 67,
      "start": 61.2315,
      "duration": 0.0161,
      "velocity": 120,
      "chip": "ym2612"
    },
    {
      "channel": 3,
      "note": 74,
      "start": 61.2326,
      "duration": 0.0162,
      "velocity": 120,
      "chip": "ym2612"
    },
    {
      "channel": 2,
      "note": 52,
      "start": 61.2338,
      "duration": 0.0161,
      "velocity": 100,
      "chip": "ym2612"
    },
    {
      "channel": 0,
      "note": 40,
      "start": 61.2437,
      "duration": 0.0162,
      "velocity": 115,
      "chip": "ym2612"
    },
    {
      "channel": 4,
      "note": 67,
      "start": 61.2476,
      "duration": 0.0158,
      "velocity": 120,
      "chip": "ym2612"
    },
    {
      "channel": 3,
      "note": 74,
      "start": 61.2488,
      "duration": 0.0157,
      "velocity": 120,
      "chip": "ym2612"
    },
    {
      "channel": 2,
      "note": 52,
      "start": 61.2499,
      "duration": 0.0158,
      "velocity": 100,
      "chip": "ym2612"
    },
    {
      "channel": 0,
      "note": 40,
      "start": 61.2599,
      "duration": 0.0161,
      "velocity": 115,
      "chip": "ym2612"
    },
    {
      "channel": 4,
      "note": 67,
      "start": 61.2634,
      "duration": 0.0137,
      "velocity": 120,
      "chip": "ym2612"
    },
    {
      "channel": 3,
      "note": 74,
      "start": 61.2645,
      "duration": 0.0141,
      "velocity": 120,
      "chip": "ym2612"
    },
    {
      "channel": 2,
      "note": 52,
      "start": 61.2656,
      "duration": 0.0141,
      "velocity": 100,
      "chip": "ym2612"
    },
    {
      "channel": 0,
      "note": 41,
      "start": 61.276,
      "duration": 0.0178,
      "velocity": 115,
      "chip": "ym2612"
    },
    {
      "channel": 4,
      "note": 67,
      "start": 61.2771,
      "duration": 0.0208,
      "velocity": 120,
      "chip": "ym2612"
    },
    {
      "channel": 3,
      "note": 74,
      "start": 61.2786,
      "duration": 0.0208,
      "velocity": 120,
      "chip": "ym2612"
    },
    {
      "channel": 2,
      "note": 52,
      "start": 61.2797,
      "duration": 0.0211,
      "velocity": 100,
      "chip": "ym2612"
    },
    {
      "channel": 0,
      "note": 36,
      "start": 61.2938,
      "duration": 0.0144,
      "velocity": 115,
      "chip": "ym2612"
    },
    {
      "channel": 4,
      "note": 66,
      "start": 61.298,
      "duration": 0.0115,
      "velocity": 120,
      "chip": "ym2612"
    },
    {
      "channel": 3,
      "note": 73,
      "start": 61.2994,
      "duration": 0.0112,
      "velocity": 120,
      "chip": "ym2612"
    },
    {
      "channel": 2,
      "note": 52,
      "start": 61.3008,
      "duration": 0.0137,
      "velocity": 100,
      "chip": "ym2612"
    },
    {
      "channel": 0,
      "note": 36,
      "start": 61.3082,
      "duration": 0.016,
      "velocity": 115,
      "chip": "ym2612"
    },
    {
      "channel": 4,
      "note": 66,
      "start": 61.3094,
      "duration": 0.016,
      "velocity": 120,
      "chip": "ym2612"
    },
    {
      "channel": 3,
      "note": 73,
      "start": 61.3106,
      "duration": 0.0159,
      "velocity": 120,
      "chip": "ym2612"
    },
    {
      "channel": 2,
      "note": 52,
      "start": 61.3145,
      "duration": 0.0155,
      "velocity": 100,
      "chip": "ym2612"
    },
    {
      "channel": 0,
      "note": 37,
      "start": 61.3242,
      "duration": 0.0161,
      "velocity": 115,
      "chip": "ym2612"
    },
    {
      "channel": 4,
      "note": 66,
      "start": 61.3254,
      "duration": 0.0161,
      "velocity": 120,
      "chip": "ym2612"
    },
    {
      "channel": 3,
      "note": 73,
      "start": 61.3265,
      "duration": 0.0161,
      "velocity": 120,
      "chip": "ym2612"
    },
    {
      "channel": 2,
      "note": 52,
      "start": 61.33,
      "duration": 0.0137,
      "velocity": 100,
      "chip": "ym2612"
    },
    {
      "channel": 0,
      "note": 37,
      "start": 61.3403,
      "duration": 0.0161,
      "velocity": 115,
      "chip": "ym2612"
    },
    {
      "channel": 4,
      "note": 66,
      "start": 61.3415,
      "duration": 0.0161,
      "velocity": 120,
      "chip": "ym2612"
    },
    {
      "channel": 3,
      "note": 73,
      "start": 61.3426,
      "duration": 0.0161,
      "velocity": 120,
      "chip": "ym2612"
    },
    {
      "channel": 2,
      "note": 52,
      "start": 61.3438,
      "duration": 0.0161,
      "velocity": 100,
      "chip": "ym2612"
    },
    {
      "channel": 0,
      "note": 38,
      "start": 61.3564,
      "duration": 0.0161,
      "velocity": 115,
      "chip": "ym2612"
    },
    {
      "channel": 4,
      "note": 66,
      "start": 61.3576,
      "duration": 0.0161,
      "velocity": 120,
      "chip": "ym2612"
    },
    {
      "channel": 3,
      "note": 73,
      "start": 61.3587,
      "duration": 0.0161,
      "velocity": 120,
      "chip": "ym2612"
    },
    {
      "channel": 2,
      "note": 52,
      "start": 61.3599,
      "duration": 0.0161,
      "velocity": 100,
      "chip": "ym2612"
    },
    {
      "channel": 0,
      "note": 38,
      "start": 61.3725,
      "duration": 0.0161,
      "velocity": 115,
      "chip": "ym2612"
    },
    {
      "channel": 4,
      "note": 66,
      "start": 61.3737,
      "duration": 0.0161,
      "velocity": 120,
      "chip": "ym2612"
    },
    {
      "channel": 3,
      "note": 73,
      "start": 61.3748,
      "duration": 0.0161,
      "velocity": 120,
      "chip": "ym2612"
    },
    {
      "channel": 2,
      "note": 52,
      "start": 61.376,
      "duration": 0.0161,
      "velocity": 100,
      "chip": "ym2612"
    },
    {
      "channel": 0,
      "note": 39,
      "start": 61.3886,
      "duration": 0.0161,
      "velocity": 115,
      "chip": "ym2612"
    },
    {
      "channel": 4,
      "note": 66,
      "start": 61.3898,
      "duration": 0.0162,
      "velocity": 120,
      "chip": "ym2612"
    },
    {
      "channel": 3,
      "note": 73,
      "start": 61.3909,
      "duration": 0.0161,
      "velocity": 120,
      "chip": "ym2612"
    },
    {
      "channel": 2,
      "note": 52,
      "start": 61.392,
      "duration": 0.0161,
      "velocity": 100,
      "chip": "ym2612"
    },
    {
      "channel": 0,
      "note": 39,
      "start": 61.4047,
      "duration": 0.0161,
      "velocity": 115,
      "chip": "ym2612"
    },
    {
      "channel": 4,
      "note": 66,
      "start": 61.4059,
      "duration": 0.0161,
      "velocity": 120,
      "chip": "ym2612"
    },
    {
      "channel": 3,
      "note": 73,
      "start": 61.4071,
      "duration": 0.0161,
      "velocity": 120,
      "chip": "ym2612"
    },
    {
      "channel": 2,
      "note": 52,
      "start": 61.4081,
      "duration": 0.0161,
      "velocity": 100,
      "chip": "ym2612"
    },
    {
      "channel": 0,
      "note": 40,
      "start": 61.4209,
      "duration": 0.0161,
      "velocity": 115,
      "chip": "ym2612"
    },
    {
      "channel": 4,
      "note": 66,
      "start": 61.422,
      "duration": 0.0161,
      "velocity": 120,
      "chip": "ym2612"
    },
    {
      "channel": 3,
      "note": 73,
      "start": 61.4232,
      "duration": 0.0161,
      "velocity": 120,
      "chip": "ym2612"
    },
    {
      "channel": 2,
      "note": 52,
      "start": 61.4242,
      "duration": 0.0161,
      "velocity": 100,
      "chip": "ym2612"
    },
    {
      "channel": 0,
      "note": 40,
      "start": 61.437,
      "duration": 0.0161,
      "velocity": 115,
      "chip": "ym2612"
    },
    {
      "channel": 4,
      "note": 66,
      "start": 61.4381,
      "duration": 0.0161,
      "velocity": 120,
      "chip": "ym2612"
    },
    {
      "channel": 3,
      "note": 73,
      "start": 61.4393,
      "duration": 0.0161,
      "velocity": 120,
      "chip": "ym2612"
    },
    {
      "channel": 2,
      "note": 52,
      "start": 61.4403,
      "duration": 0.0161,
      "velocity": 100,
      "chip": "ym2612"
    },
    {
      "channel": 0,
      "note": 40,
      "start": 61.4531,
      "duration": 0.0161,
      "velocity": 115,
      "chip": "ym2612"
    },
    {
      "channel": 4,
      "note": 66,
      "start": 61.4542,
      "duration": 0.0161,
      "velocity": 120,
      "chip": "ym2612"
    },
    {
      "channel": 3,
      "note": 73,
      "start": 61.4554,
      "duration": 0.0161,
      "velocity": 120,
      "chip": "ym2612"
    },
    {
      "channel": 2,
      "note": 52,
      "start": 61.4565,
      "duration": 0.0161,
      "velocity": 100,
      "chip": "ym2612"
    },
    {
      "channel": 0,
      "note": 41,
      "start": 61.4691,
      "duration": 0.0179,
      "velocity": 124,
      "chip": "ym2612"
    },
    {
      "channel": 4,
      "note": 66,
      "start": 61.4703,
      "duration": 0.0181,
      "velocity": 120,
      "chip": "ym2612"
    },
    {
      "channel": 3,
      "note": 73,
      "start": 61.4714,
      "duration": 0.0184,
      "velocity": 120,
      "chip": "ym2612"
    },
    {
      "channel": 2,
      "note": 52,
      "start": 61.4726,
      "duration": 0.0187,
      "velocity": 100,
      "chip": "ym2612"
    },
    {
      "channel": 0,
      "note": 84,
      "start": 61.487,
      "duration": 0.0144,
      "velocity": 124,
      "chip": "ym2612"
    },
    {
      "channel": 4,
      "note": 66,
      "start": 61.4885,
      "duration": 0.0141,
      "velocity": 120,
      "chip": "ym2612"
    },
    {
      "channel": 3,
      "note": 73,
      "start": 61.4898,
      "duration": 0.014,
      "velocity": 120,
      "chip": "ym2612"
    },
    {
      "channel": 2,
      "note": 52,
      "start": 61.4913,
      "duration": 0.0137,
      "velocity": 100,
      "chip": "ym2612"
    },
    {
      "channel": 0,
      "note": 82,
      "start": 61.5014,
      "duration": 0.016,
      "velocity": 124,
      "chip": "ym2612"
    },
    {
      "channel": 4,
      "note": 66,
      "start": 61.5026,
      "duration": 0.016,
      "velocity": 120,
      "chip": "ym2612"
    },
    {
      "channel": 3,
      "note": 73,
      "start": 61.5038,
      "duration": 0.0159,
      "velocity": 120,
      "chip": "ym2612"
    },
    {
      "channel": 2,
      "note": 52,
      "start": 61.505,
      "duration": 0.0158,
      "velocity": 100,
      "chip": "ym2612"
    },
    {
      "channel": 0,
      "note": 80,
      "start": 61.5174,
      "duration": 0.0161,
      "velocity": 124,
      "chip": "ym2612"
    },
    {
      "channel": 4,
      "note": 66,
      "start": 61.5186,
      "duration": 0.0161,
      "velocity": 120,
      "chip": "ym2612"
    },
    {
      "channel": 3,
      "note": 73,
      "start": 61.5197,
      "duration": 0.0161,
      "velocity": 120,
      "chip": "ym2612"
    },
    {
      "channel": 2,
      "note": 52,
      "start": 61.5209,
      "duration": 0.0161,
      "velocity": 100,
      "chip": "ym2612"
    },
    {
      "channel": 0,
      "note": 77,
      "start": 61.5335,
      "duration": 0.0161,
      "velocity": 124,
      "chip": "ym2612"
    },
    {
      "channel": 4,
      "note": 66,
      "start": 61.5347,
      "duration": 0.0161,
      "velocity": 120,
      "chip": "ym2612"
    },
    {
      "channel": 3,
      "note": 73,
      "start": 61.5358,
      "duration": 0.0161,
      "velocity": 120,
      "chip": "ym2612"
    },
    {
      "channel": 2,
      "note": 52,
      "start": 61.537,
      "duration": 0.0161,
      "velocity": 100,
      "chip": "ym2612"
    },
    {
      "channel": 0,
      "note": 75,
      "start": 61.5496,
      "duration": 0.0162,
      "velocity": 124,
      "chip": "ym2612"
    },
    {
      "channel": 4,
      "note": 66,
      "start": 61.5508,
      "duration": 0.0161,
      "velocity": 120,
      "chip": "ym2612"
    },
    {
      "channel": 3,
      "note": 73,
      "start": 61.5519,
      "duration": 0.0162,
      "velocity": 120,
      "chip": "ym2612"
    },
    {
      "channel": 2,
      "note": 52,
      "start": 61.5531,
      "duration": 0.0161,
      "velocity": 100,
      "chip": "ym2612"
    },
    {
      "channel": 0,
      "note": 72,
      "start": 61.5658,
      "duration": 0.0163,
      "velocity": 124,
      "chip": "ym2612"
    },
    {
      "channel": 4,
      "note": 66,
      "start": 61.5669,
      "duration": 0.0163,
      "velocity": 120,
      "chip": "ym2612"
    },
    {
      "channel": 3,
      "note": 73,
      "start": 61.5681,
      "duration": 0.0163,
      "velocity": 120,
      "chip": "ym2612"
    },
    {
      "channel": 2,
      "note": 52,
      "start": 61.5692,
      "duration": 0.0163,
      "velocity": 100,
      "chip": "ym2612"
    },
    {
      "channel": 0,
      "note": 70,
      "start": 61.5821,
      "duration": 0.0163,
      "velocity": 124,
      "chip": "ym2612"
    },
    {
      "channel": 4,
      "note": 66,
      "start": 61.5832,
      "duration": 0.0163,
      "velocity": 120,
      "chip": "ym2612"
    },
    {
      "channel": 3,
      "note": 73,
      "start": 61.5844,
      "duration": 0.0163,
      "velocity": 120,
      "chip": "ym2612"
    },
    {
      "channel": 2,
      "note": 52,
      "start": 61.5855,
      "duration": 0.0163,
      "velocity": 100,
      "chip": "ym2612"
    },
    {
      "channel": 0,
      "note": 68,
      "start": 61.5983,
      "duration": 0.0157,
      "velocity": 124,
      "chip": "ym2612"
    },
    {
      "channel": 4,
      "note": 66,
      "start": 61.5995,
      "duration": 0.0157,
      "velocity": 120,
      "chip": "ym2612"
    },
    {
      "channel": 3,
      "note": 73,
      "start": 61.6006,
      "duration": 0.0157,
      "velocity": 120,
      "chip": "ym2612"
    },
    {
      "channel": 2,
      "note": 52,
      "start": 61.6018,
      "duration": 0.0157,
      "velocity": 100,
      "chip": "ym2612"
    },
    {
      "channel": 0,
      "note": 65,
      "start": 61.6141,
      "duration": 0.018,
      "velocity": 124,
      "chip": "ym2612"
    },
    {
      "channel": 4,
      "note": 66,
      "start": 61.6152,
      "duration": 0.018,
      "velocity": 120,
      "chip": "ym2612"
    },
    {
      "channel": 3,
      "note": 73,
      "start": 61.6163,
      "duration": 0.018,
      "velocity": 120,
      "chip": "ym2612"
    },
    {
      "channel": 2,
      "note": 52,
      "start": 61.6175,
      "duration": 0.018,
      "velocity": 100,
      "chip": "ym2612"
    },
    {
      "channel": 0,
      "note": 63,
      "start": 61.6321,
      "duration": 0.0158,
      "velocity": 1,
      "chip": "ym2612"
    },
    {
      "channel": 4,
      "note": 66,
      "start": 61.6332,
      "duration": 0.0159,
      "velocity": 120,
      "chip": "ym2612"
    },
    {
      "channel": 3,
      "note": 73,
      "start": 61.6344,
      "duration": 0.0158,
      "velocity": 120,
      "chip": "ym2612"
    },
    {
      "channel": 2,
      "note": 52,
      "start": 61.6354,
      "duration": 0.0159,
      "velocity": 100,
      "chip": "ym2612"
    },
    {
      "channel": 4,
      "note": 66,
      "start": 61.649,
      "duration": 0.0152,
      "velocity": 120,
      "chip": "ym2612"
    },
    {
      "channel": 3,
      "note": 73,
      "start": 61.6502,
      "duration": 0.0152,
      "velocity": 120,
      "chip": "ym2612"
    },
    {
      "channel": 2,
      "note": 52,
      "start": 61.6513,
      "duration": 0.0152,
      "velocity": 100,
      "chip": "ym2612"
    },
    {
      "channel": 4,
      "note": 66,
      "start": 61.6642,
      "duration": 0.0143,
      "velocity": 120,
      "chip": "ym2612"
    },
    {
      "channel": 3,
      "note": 73,
      "start": 61.6654,
      "duration": 0.0145,
      "velocity": 120,
      "chip": "ym2612"
    },
    {
      "channel": 2,
      "note": 52,
      "start": 61.6665,
      "duration": 0.0148,
      "velocity": 100,
      "chip": "ym2612"
    },
    {
      "channel": 4,
      "note": 62,
      "start": 61.6786,
      "duration": 0.0183,
      "velocity": 120,
      "chip": "ym2612"
    },
    {
      "channel": 3,
      "note": 69,
      "start": 61.68,
      "duration": 0.0181,
      "velocity": 120,
      "chip": "ym2612"
    },
    {
      "channel": 2,
      "note": 52,
      "start": 61.6814,
      "duration": 0.0178,
      "velocity": 100,
      "chip": "ym2612"
    },
    {
      "channel": 4,
      "note": 62,
      "start": 61.6969,
      "duration": 0.0133,
      "velocity": 120,
      "chip": "ym2612"
    },
    {
      "channel": 3,
      "note": 69,
      "start": 61.6981,
      "duration": 0.016,
      "velocity": 120,
      "chip": "ym2612"
    },
    {
      "channel": 2,
      "note": 52,
      "start": 61.6992,
      "duration": 0.016,
      "velocity": 100,
      "chip": "ym2612"
    },
    {
      "channel": 4,
      "note": 62,
      "start": 61.7102,
      "duration": 0.0161,
      "velocity": 120,
      "chip": "ym2612"
    },
    {
      "channel": 3,
      "note": 69,
      "start": 61.7141,
      "duration": 0.0157,
      "velocity": 120,
      "chip": "ym2612"
    },
    {
      "channel": 2,
      "note": 52,
      "start": 61.7152,
      "duration": 0.0157,
      "velocity": 100,
      "chip": "ym2612"
    },
    {
      "channel": 4,
      "note": 62,
      "start": 61.7263,
      "duration": 0.0161,
      "velocity": 120,
      "chip": "ym2612"
    },
    {
      "channel": 3,
      "note": 69,
      "start": 61.7298,
      "duration": 0.0137,
      "velocity": 120,
      "chip": "ym2612"
    },
    {
      "channel": 2,
      "note": 52,
      "start": 61.7309,
      "duration": 0.0141,
      "velocity": 100,
      "chip": "ym2612"
    },
    {
      "channel": 4,
      "note": 62,
      "start": 61.7424,
      "duration": 0.0161,
      "velocity": 120,
      "chip": "ym2612"
    },
    {
      "channel": 3,
      "note": 69,
      "start": 61.7435,
      "duration": 0.0161,
      "velocity": 120,
      "chip": "ym2612"
    },
    {
      "channel": 2,
      "note": 52,
      "start": 61.745,
      "duration": 0.0185,
      "velocity": 100,
      "chip": "ym2612"
    },
    {
      "channel": 4,
      "note": 62,
      "start": 61.7585,
      "duration": 0.0161,
      "velocity": 120,
      "chip": "ym2612"
    },
    {
      "channel": 3,
      "note": 69,
      "start": 61.7596,
      "duration": 0.0161,
      "velocity": 120,
      "chip": "ym2612"
    },
    {
      "channel": 2,
      "note": 52,
      "start": 61.7635,
      "duration": 0.0134,
      "velocity": 100,
      "chip": "ym2612"
    },
    {
      "channel": 4,
      "note": 62,
      "start": 61.7746,
      "duration": 0.0161,
      "velocity": 120,
      "chip": "ym2612"
    },
    {
      "channel": 3,
      "note": 69,
      "start": 61.7757,
      "duration": 0.0161,
      "velocity": 120,
      "chip": "ym2612"
    },
    {
      "channel": 2,
      "note": 52,
      "start": 61.7768,
      "duration": 0.0161,
      "velocity": 100,
      "chip": "ym2612"
    },
    {
      "channel": 4,
      "note": 62,
      "start": 61.7907,
      "duration": 0.0161,
      "velocity": 120,
      "chip": "ym2612"
    },
    {
      "channel": 3,
      "note": 69,
      "start": 61.7918,
      "duration": 0.0161,
      "velocity": 120,
      "chip": "ym2612"
    },
    {
      "channel": 2,
      "note": 52,
      "start": 61.7929,
      "duration": 0.0161,
      "velocity": 100,
      "chip": "ym2612"
    },
    {
      "channel": 4,
      "note": 62,
      "start": 61.8067,
      "duration": 0.0161,
      "velocity": 120,
      "chip": "ym2612"
    },
    {
      "channel": 3,
      "note": 69,
      "start": 61.8079,
      "duration": 0.0161,
      "velocity": 120,
      "chip": "ym2612"
    },
    {
      "channel": 2,
      "note": 52,
      "start": 61.809,
      "duration": 0.0161,
      "velocity": 100,
      "chip": "ym2612"
    },
    {
      "channel": 4,
      "note": 62,
      "start": 61.8228,
      "duration": 0.0162,
      "velocity": 120,
      "chip": "ym2612"
    },
    {
      "channel": 3,
      "note": 69,
      "start": 61.824,
      "duration": 0.0161,
      "velocity": 120,
      "chip": "ym2612"
    },
    {
      "channel": 2,
      "note": 52,
      "start": 61.8251,
      "duration": 0.0161,
      "velocity": 100,
      "chip": "ym2612"
    },
    {
      "channel": 4,
      "note": 62,
      "start": 61.839,
      "duration": 0.0161,
      "velocity": 120,
      "chip": "ym2612"
    },
    {
      "channel": 3,
      "note": 69,
      "start": 61.8401,
      "duration": 0.0161,
      "velocity": 120,
      "chip": "ym2612"
    },
    {
      "channel": 2,
      "note": 52,
      "start": 61.8412,
      "duration": 0.0161,
      "velocity": 100,
      "chip": "ym2612"
    },
    {
      "channel": 4,
      "note": 62,
      "start": 61.8551,
      "duration": 0.0211,
      "velocity": 120,
      "chip": "ym2612"
    },
    {
      "channel": 3,
      "note": 69,
      "start": 61.8562,
      "duration": 0.0231,
      "velocity": 120,
      "chip": "ym2612"
    },
    {
      "channel": 2,
      "note": 52,
      "start": 61.8573,
      "duration": 0.0235,
      "velocity": 100,
      "chip": "ym2612"
    },
    {
      "channel": 0,
      "note": 36,
      "start": 61.8735,
      "duration": 0.0144,
      "velocity": 115,
      "chip": "ym2612"
    },
    {
      "channel": 4,
      "note": 64,
      "start": 61.8763,
      "duration": 0.0128,
      "velocity": 120,
      "chip": "ym2612"
    },
    {
      "channel": 3,
      "note": 71,
      "start": 61.8794,
      "duration": 0.0108,
      "velocity": 120,
      "chip": "ym2612"
    },
    {
      "channel": 2,
      "note": 47,
      "start": 61.8809,
      "duration": 0.0105,
      "velocity": 100,
      "chip": "ym2612"
    },
    {
      "channel": 0,
      "note": 36,
      "start": 61.8878,
      "duration": 0.016,
      "velocity": 115,
      "chip": "ym2612"
    },
    {
      "channel": 4,
      "note": 64,
      "start": 61.889,
      "duration": 0.016,
      "velocity": 120,
      "chip": "ym2612"
    },
    {
      "channel": 3,
      "note": 71,
      "start": 61.8902,
      "duration": 0.016,
      "velocity": 120,
      "chip": "ym2612"
    },
    {
      "channel": 2,
      "note": 47,
      "start": 61.8914,
      "duration": 0.0159,
      "velocity": 100,
      "chip": "ym2612"
    },
    {
      "channel": 0,
      "note": 37,
      "start": 61.9039,
      "duration": 0.0161,
      "velocity": 115,
      "chip": "ym2612"
    },
    {
      "channel": 4,
      "note": 64,
      "start": 61.905,
      "duration": 0.0161,
      "velocity": 120,
      "chip": "ym2612"
    },
    {
      "channel": 3,
      "note": 71,
      "start": 61.9062,
      "duration": 0.0161,
      "velocity": 120,
      "chip": "ym2612"
    },
    {
      "channel": 2,
      "note": 47,
      "start": 61.9073,
      "duration": 0.0161,
      "velocity": 100,
      "chip": "ym2612"
    },
    {
      "channel": 0,
      "note": 37,
      "start": 61.92,
      "duration": 0.0161,
      "velocity": 115,
      "chip": "ym2612"
    },
    {
      "channel": 4,
      "note": 64,
      "start": 61.9211,
      "duration": 0.0161,
      "velocity": 120,
      "chip": "ym2612"
    },
    {
      "channel": 3,
      "note": 71,
      "start": 61.9223,
      "duration": 0.0161,
      "velocity": 120,
      "chip": "ym2612"
    },
    {
      "channel": 2,
      "note": 47,
      "start": 61.9234,
      "duration": 0.0161,
      "velocity": 100,
      "chip": "ym2612"
    },
    {
      "channel": 0,
      "note": 38,
      "start": 61.9361,
      "duration": 0.0161,
      "velocity": 115,
      "chip": "ym2612"
    },
    {
      "channel": 4,
      "note": 64,
      "start": 61.9372,
      "duration": 0.0161,
      "velocity": 120,
      "chip": "ym2612"
    },
    {
      "channel": 3,
      "note": 71,
      "start": 61.9384,
      "duration": 0.0161,
      "velocity": 120,
      "chip": "ym2612"
    },
    {
      "channel": 2,
      "note": 47,
      "start": 61.9395,
      "duration": 0.0161,
      "velocity": 100,
      "chip": "ym2612"
    },
    {
      "channel": 0,
      "note": 38,
      "start": 61.9522,
      "duration": 0.0161,
      "velocity": 115,
      "chip": "ym2612"
    },
    {
      "channel": 4,
      "note": 64,
      "start": 61.9533,
      "duration": 0.0161,
      "velocity": 120,
      "chip": "ym2612"
    },
    {
      "channel": 3,
      "note": 71,
      "start": 61.9544,
      "duration": 0.0161,
      "velocity": 120,
      "chip": "ym2612"
    },
    {
      "channel": 2,
      "note": 47,
      "start": 61.9556,
      "duration": 0.0161,
      "velocity": 100,
      "chip": "ym2612"
    },
    {
      "channel": 0,
      "note": 39,
      "start": 61.9683,
      "duration": 0.0161,
      "velocity": 115,
      "chip": "ym2612"
    },
    {
      "channel": 4,
      "note": 64,
      "start": 61.9694,
      "duration": 0.0161,
      "velocity": 120,
      "chip": "ym2612"
    },
    {
      "channel": 3,
      "note": 71,
      "start": 61.9705,
      "duration": 0.0161,
      "velocity": 120,
      "chip": "ym2612"
    },
    {
      "channel": 2,
      "note": 47,
      "start": 61.9717,
      "duration": 0.0161,
      "velocity": 100,
      "chip": "ym2612"
    },
    {
      "channel": 0,
      "note": 39,
      "start": 61.9844,
      "duration": 0.0161,
      "velocity": 115,
      "chip": "ym2612"
    },
    {
      "channel": 4,
      "note": 64,
      "start": 61.9855,
      "duration": 0.0162,
      "velocity": 120,
      "chip": "ym2612"
    },
    {
      "channel": 3,
      "note": 71,
      "start": 61.9866,
      "duration": 0.0161,
      "velocity": 120,
      "chip": "ym2612"
    },
    {
      "channel": 2,
      "note": 47,
      "start": 61.9878,
      "duration": 0.0161,
      "velocity": 100,
      "chip": "ym2612"
    },
    {
      "channel": 0,
      "note": 40,
      "start": 62.0005,
      "duration": 0.0161,
      "velocity": 115,
      "chip": "ym2612"
    },
    {
      "channel": 4,
      "note": 64,
      "start": 62.0017,
      "duration": 0.0161,
      "velocity": 120,
      "chip": "ym2612"
    },
    {
      "channel": 3,
      "note": 71,
      "start": 62.0028,
      "duration": 0.0161,
      "velocity": 120,
      "chip": "ym2612"
    },
    {
      "channel": 2,
      "note": 47,
      "start": 62.0039,
      "duration": 0.0161,
      "velocity": 100,
      "chip": "ym2612"
    },
    {
      "channel": 0,
      "note": 40,
      "start": 62.0166,
      "duration": 0.0161,
      "velocity": 115,
      "chip": "ym2612"
    },
    {
      "channel": 4,
      "note": 64,
      "start": 62.0178,
      "duration": 0.0161,
      "velocity": 120,
      "chip": "ym2612"
    },
    {
      "channel": 3,
      "note": 71,
      "start": 62.0189,
      "duration": 0.0161,
      "velocity": 120,
      "chip": "ym2612"
    },
    {
      "channel": 2,
      "note": 47,
      "start": 62.02,
      "duration": 0.0161,
      "velocity": 100,
      "chip": "ym2612"
    },
    {
      "channel": 0,
      "note": 40,
      "start": 62.0327,
      "duration": 0.0161,
      "velocity": 115,
      "chip": "ym2612"
    },
    {
      "channel": 4,
      "note": 64,
      "start": 62.0338,
      "duration": 0.0161,
      "velocity": 120,
      "chip": "ym2612"
    },
    {
      "channel": 3,
      "note": 71,
      "start": 62.035,
      "duration": 0.0161,
      "velocity": 120,
      "chip": "ym2612"
    },
    {
      "channel": 2,
      "note": 47,
      "start": 62.0361,
      "duration": 0.0161,
      "velocity": 100,
      "chip": "ym2612"
    },
    {
      "channel": 0,
      "note": 41,
      "start": 62.0488,
      "duration": 0.0162,
      "velocity": 115,
      "chip": "ym2612"
    },
    {
      "channel": 4,
      "note": 64,
      "start": 62.0499,
      "duration": 0.0164,
      "velocity": 120,
      "chip": "ym2612"
    },
    {
      "channel": 3,
      "note": 71,
      "start": 62.0511,
      "duration": 0.0167,
      "velocity": 120,
      "chip": "ym2612"
    },
    {
      "channel": 2,
      "note": 47,
      "start": 62.0522,
      "duration": 0.017,
      "velocity": 100,
      "chip": "ym2612"
    },
    {
      "channel": 0,
      "note": 41,
      "start": 62.065,
      "duration": 0.016,
      "velocity": 115,
      "chip": "ym2612"
    },
    {
      "channel": 4,
      "note": 67,
      "start": 62.0664,
      "duration": 0.0158,
      "velocity": 120,
      "chip": "ym2612"
    },
    {
      "channel": 3,
      "note": 74,
      "start": 62.0678,
      "duration": 0.0156,
      "velocity": 120,
      "chip": "ym2612"
    },
    {
      "channel": 2,
      "note": 47,
      "start": 62.0693,
      "duration": 0.0153,
      "velocity": 100,
      "chip": "ym2612"
    },
    {
      "channel": 0,
      "note": 42,
      "start": 62.081,
      "duration": 0.0178,
      "velocity": 115,
      "chip": "ym2612"
    },
    {
      "channel": 4,
      "note": 67,
      "start": 62.0822,
      "duration": 0.0177,
      "velocity": 120,
      "chip": "ym2612"
    },
    {
      "channel": 3,
      "note": 74,
      "start": 62.0834,
      "duration": 0.0176,
      "velocity": 120,
      "chip": "ym2612"
    },
    {
      "channel": 2,
      "note": 47,
      "start": 62.0846,
      "duration": 0.0176,
      "velocity": 100,
      "chip": "ym2612"
    },
    {
      "channel": 0,
      "note": 42,
      "start": 62.0987,
      "duration": 0.0167,
      "velocity": 115,
      "chip": "ym2612"
    },
    {
      "channel": 4,
      "note": 67,
      "start": 62.0999,
      "duration": 0.0167,
      "velocity": 120,
      "chip": "ym2612"
    },
    {
      "channel": 3,
      "note": 74,
      "start": 62.101,
      "duration": 0.0167,
      "velocity": 120,
      "chip": "ym2612"
    },
    {
      "channel": 2,
      "note": 47,
      "start": 62.1022,
      "duration": 0.0166,
      "velocity": 100,
      "chip": "ym2612"
    },
    {
      "channel": 0,
      "note": 43,
      "start": 62.1154,
      "duration": 0.0163,
      "velocity": 115,
      "chip": "ym2612"
    },
    {
      "channel": 4,
      "note": 67,
      "start": 62.1165,
      "duration": 0.0163,
      "velocity": 120,
      "chip": "ym2612"
    },
    {
      "channel": 3,
      "note": 74,
      "start": 62.1177,
      "duration": 0.0163,
      "velocity": 120,
      "chip": "ym2612"
    },
    {
      "channel": 2,
      "note": 47,
      "start": 62.1188,
      "duration": 0.0163,
      "velocity": 100,
      "chip": "ym2612"
    },
    {
      "channel": 0,
      "note": 43,
      "start": 62.1317,
      "duration": 0.0141,
      "velocity": 115,
      "chip": "ym2612"
    },
    {
      "channel": 4,
      "note": 67,
      "start": 62.1328,
      "duration": 0.0141,
      "velocity": 120,
      "chip": "ym2612"
    },
    {
      "channel": 3,
      "note": 74,
      "start": 62.134,
      "duration": 0.0141,
      "velocity": 120,
      "chip": "ym2612"
    },
    {
      "channel": 2,
      "note": 47,
      "start": 62.1351,
      "duration": 0.014,
      "velocity": 100,
      "chip": "ym2612"
    },
    {
      "channel": 0,
      "note": 44,
      "start": 62.1457,
      "duration": 0.0185,
      "velocity": 115,
      "chip": "ym2612"
    },
    {
      "channel": 4,
      "note": 67,
      "start": 62.1469,
      "duration": 0.0185,
      "velocity": 120,
      "chip": "ym2612"
    },
    {
      "channel": 3,
      "note": 74,
      "start": 62.148,
      "duration": 0.0185,
      "velocity": 120,
      "chip": "ym2612"
    },
    {
      "channel": 2,
      "note": 47,
      "start": 62.1491,
      "duration": 0.0186,
      "velocity": 100,
      "chip": "ym2612"
    },
    {
      "channel": 0,
      "note": 44,
      "start": 62.1642,
      "duration": 0.0161,
      "velocity": 115,
      "chip": "ym2612"
    },
    {
      "channel": 4,
      "note": 67,
      "start": 62.1654,
      "duration": 0.0161,
      "velocity": 120,
      "chip": "ym2612"
    },
    {
      "channel": 3,
      "note": 74,
      "start": 62.1665,
      "duration": 0.0161,
      "velocity": 120,
      "chip": "ym2612"
    },
    {
      "channel": 2,
      "note": 47,
      "start": 62.1677,
      "duration": 0.0161,
      "velocity": 100,
      "chip": "ym2612"
    },
    {
      "channel": 0,
      "note": 44,
      "start": 62.1803,
      "duration": 0.0134,
      "velocity": 115,
      "chip": "ym2612"
    },
    {
      "channel": 4,
      "note": 67,
      "start": 62.1815,
      "duration": 0.0157,
      "velocity": 120,
      "chip": "ym2612"
    },
    {
      "channel": 3,
      "note": 74,
      "start": 62.1826,
      "duration": 0.0157,
      "velocity": 120,
      "chip": "ym2612"
    },
    {
      "channel": 2,
      "note": 47,
      "start": 62.1838,
      "duration": 0.0157,
      "velocity": 100,
      "chip": "ym2612"
    },
    {
      "channel": 0,
      "note": 45,
      "start": 62.1937,
      "duration": 0.0161,
      "velocity": 115,
      "chip": "ym2612"
    },
    {
      "channel": 4,
      "note": 67,
      "start": 62.1972,
      "duration": 0.0141,
      "velocity": 120,
      "chip": "ym2612"
    },
    {
      "channel": 3,
      "note": 74,
      "start": 62.1983,
      "duration": 0.0141,
      "velocity": 120,
      "chip": "ym2612"
    },
    {
      "channel": 2,
      "note": 47,
      "start": 62.1995,
      "duration": 0.0141,
      "velocity": 100,
      "chip": "ym2612"
    },
    {
      "channel": 0,
      "note": 45,
      "start": 62.2098,
      "duration": 0.0161,
      "velocity": 115,
      "chip": "ym2612"
    },
    {
      "channel": 4,
      "note": 67,
      "start": 62.2112,
      "duration": 0.0158,
      "velocity": 120,
      "chip": "ym2612"
    },
    {
      "channel": 3,
      "note": 74,
      "start": 62.2124,
      "duration": 0.0185,
      "velocity": 120,
      "chip": "ym2612"
    },
    {
      "channel": 2,
      "note": 47,
      "start": 62.2135,
      "duration": 0.0185,
      "velocity": 100,
      "chip": "ym2612"
    },
    {
      "channel": 0,
      "note": 46,
      "start": 62.2259,
      "duration": 0.0161,
      "velocity": 115,
      "chip": "ym2612"
    },
    {
      "channel": 4,
      "note": 67,
      "start": 62.227,
      "duration": 0.0161,
      "velocity": 120,
      "chip": "ym2612"
    },
    {
      "channel": 3,
      "note": 74,
      "start": 62.2309,
      "duration": 0.0161,
      "velocity": 120,
      "chip": "ym2612"
    },
    {
      "channel": 2,
      "note": 47,
      "start": 62.2321,
      "duration": 0.0161,
      "velocity": 100,
      "chip": "ym2612"
    },
    {
      "channel": 0,
      "note": 46,
      "start": 62.242,
      "duration": 0.0179,
      "velocity": 124,
      "chip": "ym2612"
    },
    {
      "channel": 4,
      "note": 67,
      "start": 62.2431,
      "duration": 0.0205,
      "velocity": 120,
      "chip": "ym2612"
    },
    {
      "channel": 3,
      "note": 74,
      "start": 62.247,
      "duration": 0.018,
      "velocity": 120,
      "chip": "ym2612"
    },
    {
      "channel": 2,
      "note": 47,
      "start": 62.2482,
      "duration": 0.0183,
      "velocity": 100,
      "chip": "ym2612"
    },
    {
      "channel": 0,
      "note": 84,
      "start": 62.2599,
      "duration": 0.0144,
      "velocity": 124,
      "chip": "ym2612"
    },
    {
      "channel": 4,
      "note": 71,
      "start": 62.2637,
      "duration": 0.0118,
      "velocity": 120,
      "chip": "ym2612"
    },
    {
      "channel": 3,
      "note": 78,
      "start": 62.2651,
      "duration": 0.0116,
      "velocity": 120,
      "chip": "ym2612"
    },
    {
      "channel": 2,
      "note": 47,
      "start": 62.2665,
      "duration": 0.0117,
      "velocity": 100,
      "chip": "ym2612"
    },
    {
      "channel": 0,
      "note": 82,
      "start": 62.2742,
      "duration": 0.0161,
      "velocity": 124,
      "chip": "ym2612"
    },
    {
      "channel": 4,
      "note": 71,
      "start": 62.2754,
      "duration": 0.016,
      "velocity": 120,
      "chip": "ym2612"
    },
    {
      "channel": 3,
      "note": 78,
      "start": 62.2766,
      "duration": 0.016,
      "velocity": 120,
      "chip": "ym2612"
    },
    {
      "channel": 2,
      "note": 47,
      "start": 62.2782,
      "duration": 0.0156,
      "velocity": 100,
      "chip": "ym2612"
    },
    {
      "channel": 0,
      "note": 80,
      "start": 62.2903,
      "duration": 0.0161,
      "velocity": 124,
      "chip": "ym2612"
    },
    {
      "channel": 4,
      "note": 71,
      "start": 62.2915,
      "duration": 0.0161,
      "velocity": 120,
      "chip": "ym2612"
    },
    {
      "channel": 3,
      "note": 78,
      "start": 62.2926,
      "duration": 0.0161,
      "velocity": 120,
      "chip": "ym2612"
    },
    {
      "channel": 2,
      "note": 47,
      "start": 62.2938,
      "duration": 0.016,
      "velocity": 100,
      "chip": "ym2612"
    },
    {
      "channel": 0,
      "note": 77,
      "start": 62.3064,
      "duration": 0.0161,
      "velocity": 124,
      "chip": "ym2612"
    },
    {
      "channel": 4,
      "note": 71,
      "start": 62.3076,
      "duration": 0.0161,
      "velocity": 120,
      "chip": "ym2612"
    },
    {
      "channel": 3,
      "note": 78,
      "start": 62.3087,
      "duration": 0.0161,
      "velocity": 120,
      "chip": "ym2612"
    },
    {
      "channel": 2,
      "note": 47,
      "start": 62.3098,
      "duration": 0.0162,
      "velocity": 100,
      "chip": "ym2612"
    },
    {
      "channel": 0,
      "note": 75,
      "start": 62.3225,
      "duration": 0.0161,
      "velocity": 124,
      "chip": "ym2612"
    },
    {
      "channel": 4,
      "note": 71,
      "start": 62.3237,
      "duration": 0.0161,
      "velocity": 120,
      "chip": "ym2612"
    },
    {
      "channel": 3,
      "note": 78,
      "start": 62.3248,
      "duration": 0.0161,
      "velocity": 120,
      "chip": "ym2612"
    },
    {
      "channel": 2,
      "note": 47,
      "start": 62.326,
      "duration": 0.0161,
      "velocity": 100,
      "chip": "ym2612"
    },
    {
      "channel": 0,
      "note": 72,
      "start": 62.3386,
      "duration": 0.0161,
      "velocity": 124,
      "chip": "ym2612"
    },
    {
      "channel": 4,
      "note": 71,
      "start": 62.3398,
      "duration": 0.0161,
      "velocity": 120,
      "chip": "ym2612"
    },
    {
      "channel": 3,
      "note": 78,
      "start": 62.3409,
      "duration": 0.0161,
      "velocity": 120,
      "chip": "ym2612"
    },
    {
      "channel": 2,
      "note": 47,
      "start": 62.342,
      "duration": 0.0161,
      "velocity": 100,
      "chip": "ym2612"
    },
    {
      "channel": 0,
      "note": 70,
      "start": 62.3547,
      "duration": 0.0161,
      "velocity": 124,
      "chip": "ym2612"
    },
    {
      "channel": 4,
      "note": 71,
      "start": 62.3559,
      "duration": 0.0161,
      "velocity": 120,
      "chip": "ym2612"
    },
    {
      "channel": 3,
      "note": 78,
      "start": 62.357,
      "duration": 0.0161,
      "velocity": 120,
      "chip": "ym2612"
    },
    {
      "channel": 2,
      "note": 47,
      "start": 62.3581,
      "duration": 0.0161,
      "velocity": 100,
      "chip": "ym2612"
    },
    {
      "channel": 0,
      "note": 68,
      "start": 62.3708,
      "duration": 0.0161,
      "velocity": 124,
      "chip": "ym2612"
    },
    {
      "channel": 4,
      "note": 71,
      "start": 62.372,
      "duration": 0.0161,
      "velocity": 120,
      "chip": "ym2612"
    },
    {
      "channel": 3,
      "note": 78,
      "start": 62.3731,
      "duration": 0.0161,
      "velocity": 120,
      "chip": "ym2612"
    },
    {
      "channel": 2,
      "note": 47,
      "start": 62.3742,
      "duration": 0.0161,
      "velocity": 100,
      "chip": "ym2612"
    },
    {
      "channel": 0,
      "note": 65,
      "start": 62.3869,
      "duration": 0.0161,
      "velocity": 124,
      "chip": "ym2612"
    },
    {
      "channel": 4,
      "note": 71,
      "start": 62.388,
      "duration": 0.0161,
      "velocity": 120,
      "chip": "ym2612"
    },
    {
      "channel": 3,
      "note": 78,
      "start": 62.3892,
      "duration": 0.0161,
      "velocity": 120,
      "chip": "ym2612"
    },
    {
      "channel": 2,
      "note": 47,
      "start": 62.3903,
      "duration": 0.0161,
      "velocity": 100,
      "chip": "ym2612"
    },
    {
      "channel": 0,
      "note": 63,
      "start": 62.403,
      "duration": 0.0153,
      "velocity": 1,
      "chip": "ym2612"
    },
    {
      "channel": 4,
      "note": 71,
      "start": 62.4042,
      "duration": 0.0153,
      "velocity": 120,
      "chip": "ym2612"
    },
    {
      "channel": 3,
      "note": 78,
      "start": 62.4053,
      "duration": 0.0153,
      "velocity": 120,
      "chip": "ym2612"
    },
    {
      "channel": 2,
      "note": 47,
      "start": 62.4064,
      "duration": 0.0153,
      "velocity": 100,
      "chip": "ym2612"
    },
    {
      "channel": 4,
      "note": 71,
      "start": 62.4195,
      "duration": 0.0153,
      "velocity": 120,
      "chip": "ym2612"
    },
    {
      "channel": 3,
      "note": 78,
      "start": 62.4206,
      "duration": 0.0153,
      "velocity": 120,
      "chip": "ym2612"
    },
    {
      "channel": 2,
      "note": 47,
      "start": 62.4217,
      "duration": 0.0152,
      "velocity": 100,
      "chip": "ym2612"
    },
    {
      "channel": 4,
      "note": 71,
      "start": 62.4347,
      "duration": 0.0197,
      "velocity": 120,
      "chip": "ym2612"
    },
    {
      "channel": 3,
      "note": 78,
      "start": 62.4359,
      "duration": 0.02,
      "velocity": 120,
      "chip": "ym2612"
    },
    {
      "channel": 2,
      "note": 47,
      "start": 62.437,
      "duration": 0.0204,
      "velocity": 100,
      "chip": "ym2612"
    },
    {
      "channel": 0,
      "note": 36,
      "start": 62.4531,
      "duration": 0.0144,
      "velocity": 115,
      "chip": "ym2612"
    },
    {
      "channel": 4,
      "note": 67,
      "start": 62.4545,
      "duration": 0.0142,
      "velocity": 120,
      "chip": "ym2612"
    },
    {
      "channel": 3,
      "note": 74,
      "start": 62.4559,
      "duration": 0.0139,
      "velocity": 120,
      "chip": "ym2612"
    },
    {
      "channel": 2,
      "note": 47,
      "start": 62.4574,
      "duration": 0.0137,
      "velocity": 100,
      "chip": "ym2612"
    },
    {
      "channel": 0,
      "note": 36,
      "start": 62.4675,
      "duration": 0.016,
      "velocity": 115,
      "chip": "ym2612"
    },
    {
      "channel": 4,
      "note": 67,
      "start": 62.4687,
      "duration": 0.016,
      "velocity": 120,
      "chip": "ym2612"
    },
    {
      "channel": 3,
      "note": 74,
      "start": 62.4698,
      "duration": 0.016,
      "velocity": 120,
      "chip": "ym2612"
    },
    {
      "channel": 2,
      "note": 47,
      "start": 62.471,
      "duration": 0.0159,
      "velocity": 100,
      "chip": "ym2612"
    },
    {
      "channel": 0,
      "note": 37,
      "start": 62.4835,
      "duration": 0.0161,
      "velocity": 115,
      "chip": "ym2612"
    },
    {
      "channel": 4,
      "note": 67,
      "start": 62.4847,
      "duration": 0.0161,
      "velocity": 120,
      "chip": "ym2612"
    },
    {
      "channel": 3,
      "note": 74,
      "start": 62.4858,
      "duration": 0.0161,
      "velocity": 120,
      "chip": "ym2612"
    },
    {
      "channel": 2,
      "note": 47,
      "start": 62.487,
      "duration": 0.0161,
      "velocity": 100,
      "chip": "ym2612"
    },
    {
      "channel": 0,
      "note": 37,
      "start": 62.4996,
      "duration": 0.0161,
      "velocity": 115,
      "chip": "ym2612"
    },
    {
      "channel": 4,
      "note": 67,
      "start": 62.5008,
      "duration": 0.0161,
      "velocity": 120,
      "chip": "ym2612"
    },
    {
      "channel": 3,
      "note": 74,
      "start": 62.5019,
      "duration": 0.0161,
      "velocity": 120,
      "chip": "ym2612"
    },
    {
      "channel": 2,
      "note": 47,
      "start": 62.5031,
      "duration": 0.0161,
      "velocity": 100,
      "chip": "ym2612"
    },
    {
      "channel": 0,
      "note": 38,
      "start": 62.5157,
      "duration": 0.0161,
      "velocity": 115,
      "chip": "ym2612"
    },
    {
      "channel": 4,
      "note": 67,
      "start": 62.5168,
      "duration": 0.0162,
      "velocity": 120,
      "chip": "ym2612"
    },
    {
      "channel": 3,
      "note": 74,
      "start": 62.518,
      "duration": 0.0161,
      "velocity": 120,
      "chip": "ym2612"
    },
    {
      "channel": 2,
      "note": 47,
      "start": 62.5191,
      "duration": 0.0161,
      "velocity": 100,
      "chip": "ym2612"
    },
    {
      "channel": 0,
      "note": 38,
      "start": 62.5318,
      "duration": 0.0161,
      "velocity": 115,
      "chip": "ym2612"
    },
    {
      "channel": 4,
      "note": 67,
      "start": 62.533,
      "duration": 0.016,
      "velocity": 120,
      "chip": "ym2612"
    },
    {
      "channel": 3,
      "note": 74,
      "start": 62.5341,
      "duration": 0.016,
      "velocity": 120,
      "chip": "ym2612"
    },
    {
      "channel": 2,
      "note": 47,
      "start": 62.5352,
      "duration": 0.0161,
      "velocity": 100,
      "chip": "ym2612"
    },
    {
      "channel": 0,
      "note": 39,
      "start": 62.5479,
      "duration": 0.0174,
      "velocity": 115,
      "chip": "ym2612"
    },
    {
      "channel": 4,
      "note": 67,
      "start": 62.549,
      "duration": 0.0175,
      "velocity": 120,
      "chip": "ym2612"
    },
    {
      "channel": 3,
      "note": 74,
      "start": 62.5502,
      "duration": 0.0175,
      "velocity": 120,
      "chip": "ym2612"
    },
    {
      "channel": 2,
      "note": 47,
      "start": 62.5513,
      "duration": 0.0174,
      "velocity": 100,
      "chip": "ym2612"
    },
    {
      "channel": 0,
      "note": 39,
      "start": 62.5653,
      "duration": 0.0167,
      "velocity": 115,
      "chip": "ym2612"
    },
    {
      "channel": 4,
      "note": 67,
      "start": 62.5665,
      "duration": 0.0167,
      "velocity": 120,
      "chip": "ym2612"
    },
    {
      "channel": 3,
      "note": 74,
      "start": 62.5677,
      "duration": 0.0167,
      "velocity": 120,
      "chip": "ym2612"
    },
    {
      "channel": 2,
      "note": 47,
      "start": 62.5688,
      "duration": 0.0167,
      "velocity": 100,
      "chip": "ym2612"
    },
    {
      "channel": 0,
      "note": 40,
      "start": 62.5821,
      "duration": 0.0163,
      "velocity": 115,
      "chip": "ym2612"
    },
    {
      "channel": 4,
      "note": 67,
      "start": 62.5832,
      "duration": 0.0163,
      "velocity": 120,
      "chip": "ym2612"
    },
    {
      "channel": 3,
      "note": 74,
      "start": 62.5844,
      "duration": 0.0163,
      "velocity": 120,
      "chip": "ym2612"
    },
    {
      "channel": 2,
      "note": 47,
      "start": 62.5854,
      "duration": 0.0163,
      "velocity": 100,
      "chip": "ym2612"
    },
    {
      "channel": 0,
      "note": 40,
      "start": 62.5983,
      "duration": 0.0143,
      "velocity": 115,
      "chip": "ym2612"
    },
    {
      "channel": 4,
      "note": 67,
      "start": 62.5995,
      "duration": 0.0143,
      "velocity": 120,
      "chip": "ym2612"
    },
    {
      "channel": 3,
      "note": 74,
      "start": 62.6006,
      "duration": 0.0143,
      "velocity": 120,
      "chip": "ym2612"
    },
    {
      "channel": 2,
      "note": 47,
      "start": 62.6018,
      "duration": 0.0143,
      "velocity": 100,
      "chip": "ym2612"
    },
    {
      "channel": 0,
      "note": 40,
      "start": 62.6127,
      "duration": 0.0185,
      "velocity": 115,
      "chip": "ym2612"
    },
    {
      "channel": 4,
      "note": 67,
      "start": 62.6138,
      "duration": 0.0185,
      "velocity": 120,
      "chip": "ym2612"
    },
    {
      "channel": 3,
      "note": 74,
      "start": 62.6149,
      "duration": 0.0185,
      "velocity": 120,
      "chip": "ym2612"
    },
    {
      "channel": 2,
      "note": 47,
      "start": 62.6161,
      "duration": 0.0185,
      "velocity": 100,
      "chip": "ym2612"
    },
    {
      "channel": 0,
      "note": 41,
      "start": 62.6312,
      "duration": 0.0179,
      "velocity": 115,
      "chip": "ym2612"
    },
    {
      "channel": 4,
      "note": 67,
      "start": 62.6323,
      "duration": 0.0181,
      "velocity": 120,
      "chip": "ym2612"
    },
    {
      "channel": 3,
      "note": 74,
      "start": 62.6335,
      "duration": 0.0184,
      "velocity": 120,
      "chip": "ym2612"
    },
    {
      "channel": 2,
      "note": 47,
      "start": 62.6346,
      "duration": 0.0187,
      "velocity": 100,
      "chip": "ym2612"
    },
    {
      "channel": 0,
      "note": 36,
      "start": 62.649,
      "duration": 0.014,
      "velocity": 115,
      "chip": "ym2612"
    },
    {
      "channel": 4,
      "note": 71,
      "start": 62.6505,
      "duration": 0.0138,
      "velocity": 120,
      "chip": "ym2612"
    },
    {
      "channel": 3,
      "note": 78,
      "start": 62.6519,
      "duration": 0.0136,
      "velocity": 120,
      "chip": "ym2612"
    },
    {
      "channel": 2,
      "note": 47,
      "start": 62.6534,
      "duration": 0.0133,
      "velocity": 100,
      "chip": "ym2612"
    },
    {
      "channel": 0,
      "note": 36,
      "start": 62.663,
      "duration": 0.0137,
      "velocity": 115,
      "chip": "ym2612"
    },
    {
      "channel": 4,
      "note": 71,
      "start": 62.6643,
      "duration": 0.0139,
      "velocity": 120,
      "chip": "ym2612"
    },
    {
      "channel": 3,
      "note": 78,
      "start": 62.6655,
      "duration": 0.0139,
      "velocity": 120,
      "chip": "ym2612"
    },
    {
      "channel": 2,
      "note": 47,
      "start": 62.6667,
      "duration": 0.0138,
      "velocity": 100,
      "chip": "ym2612"
    },
    {
      "channel": 0,
      "note": 37,
      "start": 62.6767,
      "duration": 0.0161,
      "velocity": 115,
      "chip": "ym2612"
    },
    {
      "channel": 4,
      "note": 71,
      "start": 62.6782,
      "duration": 0.0185,
      "velocity": 120,
      "chip": "ym2612"
    },
    {
      "channel": 3,
      "note": 78,
      "start": 62.6793,
      "duration": 0.0185,
      "velocity": 120,
      "chip": "ym2612"
    },
    {
      "channel": 2,
      "note": 47,
      "start": 62.6805,
      "duration": 0.0185,
      "velocity": 100,
      "chip": "ym2612"
    },
    {
      "channel": 0,
      "note": 37,
      "start": 62.6928,
      "duration": 0.0161,
      "velocity": 115,
      "chip": "ym2612"
    },
    {
      "channel": 4,
      "note": 71,
      "start": 62.6967,
      "duration": 0.0134,
      "velocity": 120,
      "chip": "ym2612"
    },
    {
      "channel": 3,
      "note": 78,
      "start": 62.6978,
      "duration": 0.0161,
      "velocity": 120,
      "chip": "ym2612"
    },
    {
      "channel": 2,
      "note": 47,
      "start": 62.699,
      "duration": 0.0161,
      "velocity": 100,
      "chip": "ym2612"
    },
    {
      "channel": 0,
      "note": 38,
      "start": 62.7089,
      "duration": 0.0161,
      "velocity": 115,
      "chip": "ym2612"
    },
    {
      "channel": 4,
      "note": 71,
      "start": 62.7101,
      "duration": 0.0161,
      "velocity": 120,
      "chip": "ym2612"
    },
    {
      "channel": 3,
      "note": 78,
      "start": 62.714,
      "duration": 0.0156,
      "velocity": 120,
      "chip": "ym2612"
    },
    {
      "channel": 2,
      "note": 47,
      "start": 62.7151,
      "duration": 0.0158,
      "velocity": 100,
      "chip": "ym2612"
    },
    {
      "channel": 0,
      "note": 38,
      "start": 62.725,
      "duration": 0.0162,
      "velocity": 115,
      "chip": "ym2612"
    },
    {
      "channel": 4,
      "note": 71,
      "start": 62.7262,
      "duration": 0.0161,
      "velocity": 120,
      "chip": "ym2612"
    },
    {
      "channel": 3,
      "note": 78,
      "start": 62.7296,
      "duration": 0.0138,
      "velocity": 120,
      "chip": "ym2612"
    },
    {
      "channel": 2,
      "note": 47,
      "start": 62.7309,
      "duration": 0.0141,
      "velocity": 100,
      "chip": "ym2612"
    },
    {
      "channel": 0,
      "note": 39,
      "start": 62.7412,
      "duration": 0.0161,
      "velocity": 115,
      "chip": "ym2612"
    },
    {
      "channel": 4,
      "note": 71,
      "start": 62.7423,
      "duration": 0.0161,
      "velocity": 120,
      "chip": "ym2612"
    },
    {
      "channel": 3,
      "note": 78,
      "start": 62.7434,
      "duration": 0.0161,
      "velocity": 120,
      "chip": "ym2612"
    },
    {
      "channel": 2,
      "note": 47,
      "start": 62.7449,
      "duration": 0.0184,
      "velocity": 100,
      "chip": "ym2612"
    },
    {
      "channel": 0,
      "note": 39,
      "start": 62.7573,
      "duration": 0.0161,
      "velocity": 115,
      "chip": "ym2612"
    },
    {
      "channel": 4,
      "note": 71,
      "start": 62.7584,
      "duration": 0.0161,
      "velocity": 120,
      "chip": "ym2612"
    },
    {
      "channel": 3,
      "note": 78,
      "start": 62.7595,
      "duration": 0.0161,
      "velocity": 120,
      "chip": "ym2612"
    },
    {
      "channel": 2,
      "note": 47,
      "start": 62.7634,
      "duration": 0.0134,
      "velocity": 100,
      "chip": "ym2612"
    },
    {
      "channel": 0,
      "note": 40,
      "start": 62.7733,
      "duration": 0.0161,
      "velocity": 115,
      "chip": "ym2612"
    },
    {
      "channel": 4,
      "note": 71,
      "start": 62.7745,
      "duration": 0.0161,
      "velocity": 120,
      "chip": "ym2612"
    },
    {
      "channel": 3,
      "note": 78,
      "start": 62.7756,
      "duration": 0.0161,
      "velocity": 120,
      "chip": "ym2612"
    },
    {
      "channel": 2,
      "note": 47,
      "start": 62.7768,
      "duration": 0.0161,
      "velocity": 100,
      "chip": "ym2612"
    },
    {
      "channel": 0,
      "note": 40,
      "start": 62.7894,
      "duration": 0.0161,
      "velocity": 115,
      "chip": "ym2612"
    },
    {
      "channel": 4,
      "note": 71,
      "start": 62.7906,
      "duration": 0.0161,
      "velocity": 120,
      "chip": "ym2612"
    },
    {
      "channel": 3,
      "note": 78,
      "start": 62.7917,
      "duration": 0.0161,
      "velocity": 120,
      "chip": "ym2612"
    },
    {
      "channel": 2,
      "note": 47,
      "start": 62.7929,
      "duration": 0.0161,
      "velocity": 100,
      "chip": "ym2612"
    },
    {
      "channel": 0,
      "note": 40,
      "start": 62.8055,
      "duration": 0.0161,
      "velocity": 115,
      "chip": "ym2612"
    },
    {
      "channel": 4,
      "note": 71,
      "start": 62.8067,
      "duration": 0.0161,
      "velocity": 120,
      "chip": "ym2612"
    },
    {
      "channel": 3,
      "note": 78,
      "start": 62.8078,
      "duration": 0.0161,
      "velocity": 120,
      "chip": "ym2612"
    },
    {
      "channel": 2,
      "note": 47,
      "start": 62.809,
      "duration": 0.0161,
      "velocity": 100,
      "chip": "ym2612"
    },
    {
      "channel": 0,
      "note": 41,
      "start": 62.8216,
      "duration": 0.0161,
      "velocity": 115,
      "chip": "ym2612"
    },
    {
      "channel": 4,
      "note": 71,
      "start": 62.8228,
      "duration": 0.0163,
      "velocity": 120,
      "chip": "ym2612"
    },
    {
      "channel": 3,
      "note": 78,
      "start": 62.8239,
      "duration": 0.0166,
      "velocity": 120,
      "chip": "ym2612"
    },
    {
      "channel": 2,
      "note": 47,
      "start": 62.8251,
      "duration": 0.0169,
      "velocity": 100,
      "chip": "ym2612"
    },
    {
      "channel": 0,
      "note": 41,
      "start": 62.8377,
      "duration": 0.0161,
      "velocity": 115,
      "chip": "ym2612"
    },
    {
      "channel": 4,
      "note": 67,
      "start": 62.8391,
      "duration": 0.0159,
      "velocity": 120,
      "chip": "ym2612"
    },
    {
      "channel": 3,
      "note": 74,
      "start": 62.8405,
      "duration": 0.0157,
      "velocity": 120,
      "chip": "ym2612"
    },
    {
      "channel": 2,
      "note": 47,
      "start": 62.842,
      "duration": 0.0155,
      "velocity": 100,
      "chip": "ym2612"
    },
    {
      "channel": 0,
      "note": 42,
      "start": 62.8538,
      "duration": 0.0161,
      "velocity": 115,
      "chip": "ym2612"
    },
    {
      "channel": 4,
      "note": 67,
      "start": 62.855,
      "duration": 0.016,
      "velocity": 120,
      "chip": "ym2612"
    },
    {
      "channel": 3,
      "note": 74,
      "start": 62.8562,
      "duration": 0.016,
      "velocity": 120,
      "chip": "ym2612"
    },
    {
      "channel": 2,
      "note": 47,
      "start": 62.8574,
      "duration": 0.0159,
      "velocity": 100,
      "chip": "ym2612"
    },
    {
      "channel": 0,
      "note": 42,
      "start": 62.8699,
      "duration": 0.0161,
      "velocity": 115,
      "chip": "ym2612"
    },
    {
      "channel": 4,
      "note": 67,
      "start": 62.871,
      "duration": 0.0162,
      "velocity": 120,
      "chip": "ym2612"
    },
    {
      "channel": 3,
      "note": 74,
      "start": 62.8722,
      "duration": 0.0162,
      "velocity": 120,
      "chip": "ym2612"
    },
    {
      "channel": 2,
      "note": 47,
      "start": 62.8733,
      "duration": 0.0161,
      "velocity": 100,
      "chip": "ym2612"
    },
    {
      "channel": 0,
      "note": 43,
      "start": 62.886,
      "duration": 0.0161,
      "velocity": 115,
      "chip": "ym2612"
    },
    {
      "channel": 4,
      "note": 67,
      "start": 62.8872,
      "duration": 0.0161,
      "velocity": 120,
      "chip": "ym2612"
    },
    {
      "channel": 3,
      "note": 74,
      "start": 62.8884,
      "duration": 0.0161,
      "velocity": 120,
      "chip": "ym2612"
    },
    {
      "channel": 2,
      "note": 47,
      "start": 62.8894,
      "duration": 0.0161,
      "velocity": 100,
      "chip": "ym2612"
    },
    {
      "channel": 0,
      "note": 43,
      "start": 62.9022,
      "duration": 0.0161,
      "velocity": 115,
      "chip": "ym2612"
    },
    {
      "channel": 4,
      "note": 67,
      "start": 62.9033,
      "duration": 0.0161,
      "velocity": 120,
      "chip": "ym2612"
    },
    {
      "channel": 3,
      "note": 74,
      "start": 62.9044,
      "duration": 0.0161,
      "velocity": 120,
      "chip": "ym2612"
    },
    {
      "channel": 2,
      "note": 47,
      "start": 62.9055,
      "duration": 0.0161,
      "velocity": 100,
      "chip": "ym2612"
    },
    {
      "channel": 0,
      "note": 44,
      "start": 62.9183,
      "duration": 0.0161,
      "velocity": 115,
      "chip": "ym2612"
    },
    {
      "channel": 4,
      "note": 67,
      "start": 62.9194,
      "duration": 0.0161,
      "velocity": 120,
      "chip": "ym2612"
    },
    {
      "channel": 3,
      "note": 74,
      "start": 62.9205,
      "duration": 0.0161,
      "velocity": 120,
      "chip": "ym2612"
    },
    {
      "channel": 2,
      "note": 47,
      "start": 62.9216,
      "duration": 0.0161,
      "velocity": 100,
      "chip": "ym2612"
    },
    {
      "channel": 0,
      "note": 44,
      "start": 62.9344,
      "duration": 0.0161,
      "velocity": 115,
      "chip": "ym2612"
    },
    {
      "channel": 4,
      "note": 67,
      "start": 62.9355,
      "duration": 0.0161,
      "velocity": 120,
      "chip": "ym2612"
    },
    {
      "channel": 3,
      "note": 74,
      "start": 62.9366,
      "duration": 0.0161,
      "velocity": 120,
      "chip": "ym2612"
    },
    {
      "channel": 2,
      "note": 47,
      "start": 62.9378,
      "duration": 0.0161,
      "velocity": 100,
      "chip": "ym2612"
    },
    {
      "channel": 0,
      "note": 44,
      "start": 62.9505,
      "duration": 0.0161,
      "velocity": 115,
      "chip": "ym2612"
    },
    {
      "channel": 4,
      "note": 67,
      "start": 62.9516,
      "duration": 0.0161,
      "velocity": 120,
      "chip": "ym2612"
    },
    {
      "channel": 3,
      "note": 74,
      "start": 62.9527,
      "duration": 0.0161,
      "velocity": 120,
      "chip": "ym2612"
    },
    {
      "channel": 2,
      "note": 47,
      "start": 62.9539,
      "duration": 0.0161,
      "velocity": 100,
      "chip": "ym2612"
    },
    {
      "channel": 0,
      "note": 45,
      "start": 62.9665,
      "duration": 0.0161,
      "velocity": 115,
      "chip": "ym2612"
    },
    {
      "channel": 4,
      "note": 67,
      "start": 62.9677,
      "duration": 0.0161,
      "velocity": 120,
      "chip": "ym2612"
    },
    {
      "channel": 3,
      "note": 74,
      "start": 62.9688,
      "duration": 0.0161,
      "velocity": 120,
      "chip": "ym2612"
    },
    {
      "channel": 2,
      "note": 47,
      "start": 62.97,
      "duration": 0.0161,
      "velocity": 100,
      "chip": "ym2612"
    },
    {
      "channel": 0,
      "note": 45,
      "start": 62.9826,
      "duration": 0.0161,
      "velocity": 115,
      "chip": "ym2612"
    },
    {
      "channel": 4,
      "note": 67,
      "start": 62.9838,
      "duration": 0.0161,
      "velocity": 120,
      "chip": "ym2612"
    },
    {
      "channel": 3,
      "note": 74,
      "start": 62.9849,
      "duration": 0.0161,
      "velocity": 120,
      "chip": "ym2612"
    },
    {
      "channel": 2,
      "note": 47,
      "start": 62.9861,
      "duration": 0.0161,
      "velocity": 100,
      "chip": "ym2612"
    },
    {
      "channel": 0,
      "note": 46,
      "start": 62.9987,
      "duration": 0.0161,
      "velocity": 115,
      "chip": "ym2612"
    },
    {
      "channel": 4,
      "note": 67,
      "start": 62.9999,
      "duration": 0.0161,
      "velocity": 120,
      "chip": "ym2612"
    },
    {
      "channel": 3,
      "note": 74,
      "start": 63.001,
      "duration": 0.0161,
      "velocity": 120,
      "chip": "ym2612"
    },
    {
      "channel": 2,
      "note": 47,
      "start": 63.0022,
      "duration": 0.0161,
      "velocity": 100,
      "chip": "ym2612"
    },
    {
      "channel": 0,
      "note": 46,
      "start": 63.0148,
      "duration": 0.019,
      "velocity": 124,
      "chip": "ym2612"
    },
    {
      "channel": 4,
      "note": 67,
      "start": 63.016,
      "duration": 0.0193,
      "velocity": 120,
      "chip": "ym2612"
    },
    {
      "channel": 3,
      "note": 74,
      "start": 63.0171,
      "duration": 0.0195,
      "velocity": 120,
      "chip": "ym2612"
    },
    {
      "channel": 2,
      "note": 47,
      "start": 63.0183,
      "duration": 0.0198,
      "velocity": 100,
      "chip": "ym2612"
    },
    {
      "channel": 0,
      "note": 84,
      "start": 63.0338,
      "duration": 0.015,
      "velocity": 124,
      "chip": "ym2612"
    },
    {
      "channel": 4,
      "note": 71,
      "start": 63.0352,
      "duration": 0.0148,
      "velocity": 120,
      "chip": "ym2612"
    },
    {
      "channel": 3,
      "note": 78,
      "start": 63.0366,
      "duration": 0.0146,
      "velocity": 120,
      "chip": "ym2612"
    },
    {
      "channel": 2,
      "note": 47,
      "start": 63.0381,
      "duration": 0.0143,
      "velocity": 100,
      "chip": "ym2612"
    },
    {
      "channel": 0,
      "note": 82,
      "start": 63.0488,
      "duration": 0.0162,
      "velocity": 124,
      "chip": "ym2612"
    },
    {
      "channel": 4,
      "note": 71,
      "start": 63.05,
      "duration": 0.0161,
      "velocity": 120,
      "chip": "ym2612"
    },
    {
      "channel": 3,
      "note": 78,
      "start": 63.0512,
      "duration": 0.0161,
      "velocity": 120,
      "chip": "ym2612"
    },
    {
      "channel": 2,
      "note": 47,
      "start": 63.0524,
      "duration": 0.0161,
      "velocity": 100,
      "chip": "ym2612"
    },
    {
      "channel": 0,
      "note": 80,
      "start": 63.065,
      "duration": 0.0146,
      "velocity": 124,
      "chip": "ym2612"
    },
    {
      "channel": 4,
      "note": 71,
      "start": 63.0661,
      "duration": 0.0146,
      "velocity": 120,
      "chip": "ym2612"
    },
    {
      "channel": 3,
      "note": 78,
      "start": 63.0673,
      "duration": 0.0146,
      "velocity": 120,
      "chip": "ym2612"
    },
    {
      "channel": 2,
      "note": 47,
      "start": 63.0684,
      "duration": 0.0146,
      "velocity": 100,
      "chip": "ym2612"
    },
    {
      "channel": 0,
      "note": 77,
      "start": 63.0796,
      "duration": 0.0185,
      "velocity": 124,
      "chip": "ym2612"
    },
    {
      "channel": 4,
      "note": 71,
      "start": 63.0807,
      "duration": 0.0186,
      "velocity": 120,
      "chip": "ym2612"
    },
    {
      "channel": 3,
      "note": 78,
      "start": 63.0819,
      "duration": 0.0185,
      "velocity": 120,
      "chip": "ym2612"
    },
    {
      "channel": 2,
      "note": 47,
      "start": 63.083,
      "duration": 0.0185,
      "velocity": 100,
      "chip": "ym2612"
    },
    {
      "channel": 0,
      "note": 75,
      "start": 63.0981,
      "duration": 0.0161,
      "velocity": 124,
      "chip": "ym2612"
    },
    {
      "channel": 4,
      "note": 71,
      "start": 63.0993,
      "duration": 0.016,
      "velocity": 120,
      "chip": "ym2612"
    },
    {
      "channel": 3,
      "note": 78,
      "start": 63.1004,
      "duration": 0.0161,
      "velocity": 120,
      "chip": "ym2612"
    },
    {
      "channel": 2,
      "note": 47,
      "start": 63.1015,
      "duration": 0.0161,
      "velocity": 100,
      "chip": "ym2612"
    },
    {
      "channel": 0,
      "note": 72,
      "start": 63.1142,
      "duration": 0.0157,
      "velocity": 124,
      "chip": "ym2612"
    },
    {
      "channel": 4,
      "note": 71,
      "start": 63.1153,
      "duration": 0.0158,
      "velocity": 120,
      "chip": "ym2612"
    },
    {
      "channel": 3,
      "note": 78,
      "start": 63.1165,
      "duration": 0.0158,
      "velocity": 120,
      "chip": "ym2612"
    },
    {
      "channel": 2,
      "note": 47,
      "start": 63.1176,
      "duration": 0.0157,
      "velocity": 100,
      "chip": "ym2612"
    },
    {
      "channel": 0,
      "note": 70,
      "start": 63.1299,
      "duration": 0.0137,
      "velocity": 124,
      "chip": "ym2612"
    },
    {
      "channel": 4,
      "note": 71,
      "start": 63.1311,
      "duration": 0.0141,
      "velocity": 120,
      "chip": "ym2612"
    },
    {
      "channel": 3,
      "note": 78,
      "start": 63.1322,
      "duration": 0.014,
      "velocity": 120,
      "chip": "ym2612"
    },
    {
      "channel": 2,
      "note": 47,
      "start": 63.1333,
      "duration": 0.0141,
      "velocity": 100,
      "chip": "ym2612"
    },
    {
      "channel": 0,
      "note": 68,
      "start": 63.1436,
      "duration": 0.0161,
      "velocity": 124,
      "chip": "ym2612"
    },
    {
      "channel": 4,
      "note": 71,
      "start": 63.1452,
      "duration": 0.0185,
      "velocity": 120,
      "chip": "ym2612"
    },
    {
      "channel": 3,
      "note": 78,
      "start": 63.1462,
      "duration": 0.0186,
      "velocity": 120,
      "chip": "ym2612"
    },
    {
      "channel": 2,
      "note": 47,
      "start": 63.1474,
      "duration": 0.0185,
      "velocity": 100,
      "chip": "ym2612"
    },
    {
      "channel": 0,
      "note": 65,
      "start": 63.1597,
      "duration": 0.0161,
      "velocity": 124,
      "chip": "ym2612"
    },
    {
      "channel": 4,
      "note": 71,
      "start": 63.1637,
      "duration": 0.0134,
      "velocity": 120,
      "chip": "ym2612"
    },
    {
      "channel": 3,
      "note": 78,
      "start": 63.1648,
      "duration": 0.0161,
      "velocity": 120,
      "chip": "ym2612"
    },
    {
      "channel": 2,
      "note": 47,
      "start": 63.1659,
      "duration": 0.0161,
      "velocity": 100,
      "chip": "ym2612"
    },
    {
      "channel": 0,
      "note": 63,
      "start": 63.1758,
      "duration": 0.0153,
      "velocity": 1,
      "chip": "ym2612"
    },
    {
      "channel": 4,
      "note": 71,
      "start": 63.177,
      "duration": 0.0153,
      "velocity": 120,
      "chip": "ym2612"
    },
    {
      "channel": 3,
      "note": 78,
      "start": 63.1809,
      "duration": 0.0125,
      "velocity": 120,
      "chip": "ym2612"
    },
    {
      "channel": 2,
      "note": 47,
      "start": 63.182,
      "duration": 0.0149,
      "velocity": 100,
      "chip": "ym2612"
    },
    {
      "channel": 4,
      "note": 71,
      "start": 63.1923,
      "duration": 0.0153,
      "velocity": 120,
      "chip": "ym2612"
    },
    {
      "channel": 3,
      "note": 78,
      "start": 63.1934,
      "duration": 0.0153,
      "velocity": 120,
      "chip": "ym2612"
    },
    {
      "channel": 2,
      "note": 47,
      "start": 63.1969,
      "duration": 0.0129,
      "velocity": 100,
      "chip": "ym2612"
    },
    {
      "channel": 4,
      "note": 71,
      "start": 63.2076,
      "duration": 0.0163,
      "velocity": 120,
      "chip": "ym2612"
    },
    {
      "channel": 3,
      "note": 78,
      "start": 63.2087,
      "duration": 0.0166,
      "velocity": 120,
      "chip": "ym2612"
    },
    {
      "channel": 2,
      "note": 47,
      "start": 63.2099,
      "duration": 0.0168,
      "velocity": 100,
      "chip": "ym2612"
    },
    {
      "channel": 4,
      "note": 64,
      "start": 63.2239,
      "duration": 0.0159,
      "velocity": 120,
      "chip": "ym2612"
    },
    {
      "channel": 3,
      "note": 71,
      "start": 63.2253,
      "duration": 0.0157,
      "velocity": 120,
      "chip": "ym2612"
    },
    {
      "channel": 2,
      "note": 47,
      "start": 63.2268,
      "duration": 0.0154,
      "velocity": 100,
      "chip": "ym2612"
    },
    {
      "channel": 4,
      "note": 64,
      "start": 63.2398,
      "duration": 0.016,
      "velocity": 120,
      "chip": "ym2612"
    },
    {
      "channel": 3,
      "note": 71,
      "start": 63.241,
      "duration": 0.016,
      "velocity": 120,
      "chip": "ym2612"
    },
    {
      "channel": 2,
      "note": 47,
      "start": 63.2422,
      "duration": 0.016,
      "velocity": 100,
      "chip": "ym2612"
    },
    {
      "channel": 4,
      "note": 64,
      "start": 63.2559,
      "duration": 0.0161,
      "velocity": 120,
      "chip": "ym2612"
    },
    {
      "channel": 3,
      "note": 71,
      "start": 63.257,
      "duration": 0.0161,
      "velocity": 120,
      "chip": "ym2612"
    },
    {
      "channel": 2,
      "note": 47,
      "start": 63.2581,
      "duration": 0.0161,
      "velocity": 100,
      "chip": "ym2612"
    },
    {
      "channel": 4,
      "note": 64,
      "start": 63.272,
      "duration": 0.0161,
      "velocity": 120,
      "chip": "ym2612"
    },
    {
      "channel": 3,
      "note": 71,
      "start": 63.2731,
      "duration": 0.0161,
      "velocity": 120,
      "chip": "ym2612"
    },
    {
      "channel": 2,
      "note": 47,
      "start": 63.2742,
      "duration": 0.0161,
      "velocity": 100,
      "chip": "ym2612"
    },
    {
      "channel": 4,
      "note": 64,
      "start": 63.288,
      "duration": 0.0161,
      "velocity": 120,
      "chip": "ym2612"
    },
    {
      "channel": 3,
      "note": 71,
      "start": 63.2892,
      "duration": 0.0162,
      "velocity": 120,
      "chip": "ym2612"
    },
    {
      "channel": 2,
      "note": 47,
      "start": 63.2903,
      "duration": 0.0161,
      "velocity": 100,
      "chip": "ym2612"
    },
    {
      "channel": 4,
      "note": 64,
      "start": 63.3042,
      "duration": 0.0161,
      "velocity": 120,
      "chip": "ym2612"
    },
    {
      "channel": 3,
      "note": 71,
      "start": 63.3054,
      "duration": 0.0161,
      "velocity": 120,
      "chip": "ym2612"
    },
    {
      "channel": 2,
      "note": 47,
      "start": 63.3064,
      "duration": 0.0161,
      "velocity": 100,
      "chip": "ym2612"
    },
    {
      "channel": 4,
      "note": 64,
      "start": 63.3203,
      "duration": 0.0161,
      "velocity": 120,
      "chip": "ym2612"
    },
    {
      "channel": 3,
      "note": 71,
      "start": 63.3214,
      "duration": 0.0161,
      "velocity": 120,
      "chip": "ym2612"
    },
    {
      "channel": 2,
      "note": 47,
      "start": 63.3225,
      "duration": 0.0161,
      "velocity": 100,
      "chip": "ym2612"
    },
    {
      "channel": 4,
      "note": 64,
      "start": 63.3364,
      "duration": 0.0161,
      "velocity": 120,
      "chip": "ym2612"
    },
    {
      "channel": 3,
      "note": 71,
      "start": 63.3375,
      "duration": 0.0161,
      "velocity": 120,
      "chip": "ym2612"
    },
    {
      "channel": 2,
      "note": 47,
      "start": 63.3386,
      "duration": 0.0161,
      "velocity": 100,
      "chip": "ym2612"
    },
    {
      "channel": 4,
      "note": 64,
      "start": 63.3525,
      "duration": 0.0161,
      "velocity": 120,
      "chip": "ym2612"
    },
    {
      "channel": 3,
      "note": 71,
      "start": 63.3536,
      "duration": 0.0161,
      "velocity": 120,
      "chip": "ym2612"
    },
    {
      "channel": 2,
      "note": 47,
      "start": 63.3548,
      "duration": 0.0161,
      "velocity": 100,
      "chip": "ym2612"
    },
    {
      "channel": 4,
      "note": 64,
      "start": 63.3686,
      "duration": 0.0161,
      "velocity": 120,
      "chip": "ym2612"
    },
    {
      "channel": 3,
      "note": 71,
      "start": 63.3697,
      "duration": 0.0161,
      "velocity": 120,
      "chip": "ym2612"
    },
    {
      "channel": 2,
      "note": 47,
      "start": 63.3709,
      "duration": 0.0161,
      "velocity": 100,
      "chip": "ym2612"
    },
    {
      "channel": 4,
      "note": 64,
      "start": 63.3847,
      "duration": 0.0161,
      "velocity": 120,
      "chip": "ym2612"
    },
    {
      "channel": 3,
      "note": 71,
      "start": 63.3858,
      "duration": 0.0161,
      "velocity": 120,
      "chip": "ym2612"
    },
    {
      "channel": 2,
      "note": 47,
      "start": 63.387,
      "duration": 0.0161,
      "velocity": 100,
      "chip": "ym2612"
    },
    {
      "channel": 4,
      "note": 64,
      "start": 63.4008,
      "duration": 0.0198,
      "velocity": 120,
      "chip": "ym2612"
    },
    {
      "channel": 3,
      "note": 71,
      "start": 63.4019,
      "duration": 0.02,
      "velocity": 120,
      "chip": "ym2612"
    },
    {
      "channel": 2,
      "note": 47,
      "start": 63.4031,
      "duration": 0.0203,
      "velocity": 100,
      "chip": "ym2612"
    },
    {
      "channel": 0,
      "note": 36,
      "start": 63.4191,
      "duration": 0.0144,
      "velocity": 115,
      "chip": "ym2612"
    },
    {
      "channel": 4,
      "note": 67,
      "start": 63.4206,
      "duration": 0.0141,
      "velocity": 120,
      "chip": "ym2612"
    },
    {
      "channel": 3,
      "note": 74,
      "start": 63.422,
      "duration": 0.014,
      "velocity": 120,
      "chip": "ym2612"
    },
    {
      "channel": 2,
      "note": 47,
      "start": 63.4234,
      "duration": 0.0137,
      "velocity": 100,
      "chip": "ym2612"
    },
    {
      "channel": 0,
      "note": 36,
      "start": 63.4335,
      "duration": 0.016,
      "velocity": 115,
      "chip": "ym2612"
    },
    {
      "channel": 4,
      "note": 67,
      "start": 63.4347,
      "duration": 0.016,
      "velocity": 120,
      "chip": "ym2612"
    },
    {
      "channel": 3,
      "note": 74,
      "start": 63.4359,
      "duration": 0.0159,
      "velocity": 120,
      "chip": "ym2612"
    },
    {
      "channel": 2,
      "note": 47,
      "start": 63.4371,
      "duration": 0.0159,
      "velocity": 100,
      "chip": "ym2612"
    },
    {
      "channel": 0,
      "note": 37,
      "start": 63.4495,
      "duration": 0.0161,
      "velocity": 115,
      "chip": "ym2612"
    },
    {
      "channel": 4,
      "note": 67,
      "start": 63.4507,
      "duration": 0.0161,
      "velocity": 120,
      "chip": "ym2612"
    },
    {
      "channel": 3,
      "note": 74,
      "start": 63.4518,
      "duration": 0.0161,
      "velocity": 120,
      "chip": "ym2612"
    },
    {
      "channel": 2,
      "note": 47,
      "start": 63.453,
      "duration": 0.0161,
      "velocity": 100,
      "chip": "ym2612"
    },
    {
      "channel": 0,
      "note": 37,
      "start": 63.4656,
      "duration": 0.0161,
      "velocity": 115,
      "chip": "ym2612"
    },
    {
      "channel": 4,
      "note": 67,
      "start": 63.4668,
      "duration": 0.0161,
      "velocity": 120,
      "chip": "ym2612"
    },
    {
      "channel": 3,
      "note": 74,
      "start": 63.4679,
      "duration": 0.0161,
      "velocity": 120,
      "chip": "ym2612"
    },
    {
      "channel": 2,
      "note": 47,
      "start": 63.4691,
      "duration": 0.0161,
      "velocity": 100,
      "chip": "ym2612"
    },
    {
      "channel": 0,
      "note": 38,
      "start": 63.4817,
      "duration": 0.0169,
      "velocity": 115,
      "chip": "ym2612"
    },
    {
      "channel": 4,
      "note": 67,
      "start": 63.4829,
      "duration": 0.017,
      "velocity": 120,
      "chip": "ym2612"
    },
    {
      "channel": 3,
      "note": 74,
      "start": 63.484,
      "duration": 0.017,
      "velocity": 120,
      "chip": "ym2612"
    },
    {
      "channel": 2,
      "note": 47,
      "start": 63.4852,
      "duration": 0.0169,
      "velocity": 100,
      "chip": "ym2612"
    },
    {
      "channel": 0,
      "note": 38,
      "start": 63.4987,
      "duration": 0.0167,
      "velocity": 115,
      "chip": "ym2612"
    },
    {
      "channel": 4,
      "note": 67,
      "start": 63.4999,
      "duration": 0.0167,
      "velocity": 120,
      "chip": "ym2612"
    },
    {
      "channel": 3,
      "note": 74,
      "start": 63.501,
      "duration": 0.0167,
      "velocity": 120,
      "chip": "ym2612"
    },
    {
      "channel": 2,
      "note": 47,
      "start": 63.5021,
      "duration": 0.0167,
      "velocity": 100,
      "chip": "ym2612"
    },
    {
      "channel": 0,
      "note": 39,
      "start": 63.5154,
      "duration": 0.0163,
      "velocity": 115,
      "chip": "ym2612"
    },
    {
      "channel": 4,
      "note": 67,
      "start": 63.5165,
      "duration": 0.0163,
      "velocity": 120,
      "chip": "ym2612"
    },
    {
      "channel": 3,
      "note": 74,
      "start": 63.5177,
      "duration": 0.0163,
      "velocity": 120,
      "chip": "ym2612"
    },
    {
      "channel": 2,
      "note": 47,
      "start": 63.5188,
      "duration": 0.0163,
      "velocity": 100,
      "chip": "ym2612"
    },
    {
      "channel": 0,
      "note": 39,
      "start": 63.5317,
      "duration": 0.0147,
      "velocity": 115,
      "chip": "ym2612"
    },
    {
      "channel": 4,
      "note": 67,
      "start": 63.5328,
      "duration": 0.0147,
      "velocity": 120,
      "chip": "ym2612"
    },
    {
      "channel": 3,
      "note": 74,
      "start": 63.534,
      "duration": 0.0147,
      "velocity": 120,
      "chip": "ym2612"
    },
    {
      "channel": 2,
      "note": 47,
      "start": 63.5351,
      "duration": 0.0147,
      "velocity": 100,
      "chip": "ym2612"
    },
    {
      "channel": 0,
      "note": 40,
      "start": 63.5464,
      "duration": 0.0186,
      "velocity": 115,
      "chip": "ym2612"
    },
    {
      "channel": 4,
      "note": 67,
      "start": 63.5475,
      "duration": 0.0186,
      "velocity": 120,
      "chip": "ym2612"
    },
    {
      "channel": 3,
      "note": 74,
      "start": 63.5487,
      "duration": 0.0186,
      "velocity": 120,
      "chip": "ym2612"
    },
    {
      "channel": 2,
      "note": 47,
      "start": 63.5498,
      "duration": 0.0186,
      "velocity": 100,
      "chip": "ym2612"
    },
    {
      "channel": 0,
      "note": 40,
      "start": 63.565,
      "duration": 0.0161,
      "velocity": 115,
      "chip": "ym2612"
    },
    {
      "channel": 4,
      "note": 67,
      "start": 63.5661,
      "duration": 0.0161,
      "velocity": 120,
      "chip": "ym2612"
    },
    {
      "channel": 3,
      "note": 74,
      "start": 63.5673,
      "duration": 0.0161,
      "velocity": 120,
      "chip": "ym2612"
    },
    {
      "channel": 2,
      "note": 47,
      "start": 63.5684,
      "duration": 0.0161,
      "velocity": 100,
      "chip": "ym2612"
    },
    {
      "channel": 0,
      "note": 40,
      "start": 63.5811,
      "duration": 0.0158,
      "velocity": 115,
      "chip": "ym2612"
    },
    {
      "channel": 4,
      "note": 67,
      "start": 63.5822,
      "duration": 0.0158,
      "velocity": 120,
      "chip": "ym2612"
    },
    {
      "channel": 3,
      "note": 74,
      "start": 63.5834,
      "duration": 0.0158,
      "velocity": 120,
      "chip": "ym2612"
    },
    {
      "channel": 2,
      "note": 47,
      "start": 63.5845,
      "duration": 0.0157,
      "velocity": 100,
      "chip": "ym2612"
    },
    {
      "channel": 0,
      "note": 41,
      "start": 63.5969,
      "duration": 0.0137,
      "velocity": 115,
      "chip": "ym2612"
    },
    {
      "channel": 4,
      "note": 67,
      "start": 63.598,
      "duration": 0.0142,
      "velocity": 120,
      "chip": "ym2612"
    },
    {
      "channel": 3,
      "note": 74,
      "start": 63.5992,
      "duration": 0.0145,
      "velocity": 120,
      "chip": "ym2612"
    },
    {
      "channel": 2,
      "note": 47,
      "start": 63.6002,
      "duration": 0.0149,
      "velocity": 100,
      "chip": "ym2612"
    },
    {
      "channel": 0,
      "note": 41,
      "start": 63.6106,
      "duration": 0.0161,
      "velocity": 115,
      "chip": "ym2612"
    },
    {
      "channel": 4,
      "note": 71,
      "start": 63.6123,
      "duration": 0.0183,
      "velocity": 120,
      "chip": "ym2612"
    },
    {
      "channel": 3,
      "note": 78,
      "start": 63.6137,
      "duration": 0.0181,
      "velocity": 120,
      "chip": "ym2612"
    },
    {
      "channel": 2,
      "note": 47,
      "start": 63.6152,
      "duration": 0.0178,
      "velocity": 100,
      "chip": "ym2612"
    },
    {
      "channel": 0,
      "note": 42,
      "start": 63.6266,
      "duration": 0.0162,
      "velocity": 115,
      "chip": "ym2612"
    },
    {
      "channel": 4,
      "note": 71,
      "start": 63.6307,
      "duration": 0.0133,
      "velocity": 120,
      "chip": "ym2612"
    },
    {
      "channel": 3,
      "note": 78,
      "start": 63.6318,
      "duration": 0.016,
      "velocity": 120,
      "chip": "ym2612"
    },
    {
      "channel": 2,
      "note": 47,
      "start": 63.633,
      "duration": 0.016,
      "velocity": 100,
      "chip": "ym2612"
    },
    {
      "channel": 0,
      "note": 42,
      "start": 63.6428,
      "duration": 0.0161,
      "velocity": 115,
      "chip": "ym2612"
    },
    {
      "channel": 4,
      "note": 71,
      "start": 63.6439,
      "duration": 0.0161,
      "velocity": 120,
      "chip": "ym2612"
    },
    {
      "channel": 3,
      "note": 78,
      "start": 63.6478,
      "duration": 0.0157,
      "velocity": 120,
      "chip": "ym2612"
    },
    {
      "channel": 2,
      "note": 47,
      "start": 63.649,
      "duration": 0.0157,
      "velocity": 100,
      "chip": "ym2612"
    },
    {
      "channel": 0,
      "note": 43,
      "start": 63.6589,
      "duration": 0.0161,
      "velocity": 115,
      "chip": "ym2612"
    },
    {
      "channel": 4,
      "note": 71,
      "start": 63.66,
      "duration": 0.0161,
      "velocity": 120,
      "chip": "ym2612"
    },
    {
      "channel": 3,
      "note": 78,
      "start": 63.6635,
      "duration": 0.0137,
      "velocity": 120,
      "chip": "ym2612"
    },
    {
      "channel": 2,
      "note": 47,
      "start": 63.6647,
      "duration": 0.0141,
      "velocity": 100,
      "chip": "ym2612"
    },
    {
      "channel": 0,
      "note": 43,
      "start": 63.675,
      "duration": 0.0161,
      "velocity": 115,
      "chip": "ym2612"
    },
    {
      "channel": 4,
      "note": 71,
      "start": 63.6761,
      "duration": 0.0161,
      "velocity": 120,
      "chip": "ym2612"
    },
    {
      "channel": 3,
      "note": 78,
      "start": 63.6773,
      "duration": 0.0161,
      "velocity": 120,
      "chip": "ym2612"
    },
    {
      "channel": 2,
      "note": 47,
      "start": 63.6788,
      "duration": 0.0185,
      "velocity": 100,
      "chip": "ym2612"
    },
    {
      "channel": 0,
      "note": 44,
      "start": 63.6911,
      "duration": 0.0161,
      "velocity": 115,
      "chip": "ym2612"
    },
    {
      "channel": 4,
      "note": 71,
      "start": 63.6922,
      "duration": 0.0161,
      "velocity": 120,
      "chip": "ym2612"
    },
    {
      "channel": 3,
      "note": 78,
      "start": 63.6934,
      "duration": 0.0161,
      "velocity": 120,
      "chip": "ym2612"
    },
    {
      "channel": 2,
      "note": 47,
      "start": 63.6973,
      "duration": 0.0134,
      "velocity": 100,
      "chip": "ym2612"
    },
    {
      "channel": 0,
      "note": 44,
      "start": 63.7072,
      "duration": 0.0161,
      "velocity": 115,
      "chip": "ym2612"
    },
    {
      "channel": 4,
      "note": 71,
      "start": 63.7083,
      "duration": 0.0161,
      "velocity": 120,
      "chip": "ym2612"
    },
    {
      "channel": 3,
      "note": 78,
      "start": 63.7095,
      "duration": 0.0161,
      "velocity": 120,
      "chip": "ym2612"
    },
    {
      "channel": 2,
      "note": 47,
      "start": 63.7106,
      "duration": 0.0161,
      "velocity": 100,
      "chip": "ym2612"
    },
    {
      "channel": 0,
      "note": 44,
      "start": 63.7233,
      "duration": 0.0161,
      "velocity": 115,
      "chip": "ym2612"
    },
    {
      "channel": 4,
      "note": 71,
      "start": 63.7244,
      "duration": 0.0162,
      "velocity": 120,
      "chip": "ym2612"
    },
    {
      "channel": 3,
      "note": 78,
      "start": 63.7256,
      "duration": 0.0161,
      "velocity": 120,
      "chip": "ym2612"
    },
    {
      "channel": 2,
      "note": 47,
      "start": 63.7267,
      "duration": 0.0161,
      "velocity": 100,
      "chip": "ym2612"
    },
    {
      "channel": 0,
      "note": 45,
      "start": 63.7394,
      "duration": 0.0161,
      "velocity": 115,
      "chip": "ym2612"
    },
    {
      "channel": 4,
      "note": 71,
      "start": 63.7406,
      "duration": 0.0161,
      "velocity": 120,
      "chip": "ym2612"
    },
    {
      "channel": 3,
      "note": 78,
      "start": 63.7417,
      "duration": 0.0161,
      "velocity": 120,
      "chip": "ym2612"
    },
    {
      "channel": 2,
      "note": 47,
      "start": 63.7428,
      "duration": 0.0161,
      "velocity": 100,
      "chip": "ym2612"
    },
    {
      "channel": 0,
      "note": 45,
      "start": 63.7555,
      "duration": 0.0161,
      "velocity": 115,
      "chip": "ym2612"
    },
    {
      "channel": 4,
      "note": 71,
      "start": 63.7567,
      "duration": 0.0161,
      "velocity": 120,
      "chip": "ym2612"
    },
    {
      "channel": 3,
      "note": 78,
      "start": 63.7578,
      "duration": 0.0161,
      "velocity": 120,
      "chip": "ym2612"
    },
    {
      "channel": 2,
      "note": 47,
      "start": 63.7589,
      "duration": 0.0161,
      "velocity": 100,
      "chip": "ym2612"
    },
    {
      "channel": 0,
      "note": 46,
      "start": 63.7716,
      "duration": 0.0161,
      "velocity": 115,
      "chip": "ym2612"
    },
    {
      "channel": 4,
      "note": 71,
      "start": 63.7728,
      "duration": 0.0161,
      "velocity": 120,
      "chip": "ym2612"
    },
    {
      "channel": 3,
      "note": 78,
      "start": 63.7739,
      "duration": 0.0161,
      "velocity": 120,
      "chip": "ym2612"
    },
    {
      "channel": 2,
      "note": 47,
      "start": 63.775,
      "duration": 0.0161,
      "velocity": 100,
      "chip": "ym2612"
    },
    {
      "channel": 0,
      "note": 46,
      "start": 63.7877,
      "duration": 0.0179,
      "velocity": 124,
      "chip": "ym2612"
    },
    {
      "channel": 4,
      "note": 71,
      "start": 63.7889,
      "duration": 0.0181,
      "velocity": 120,
      "chip": "ym2612"
    },
    {
      "channel": 3,
      "note": 78,
      "start": 63.79,
      "duration": 0.0183,
      "velocity": 120,
      "chip": "ym2612"
    },
    {
      "channel": 2,
      "note": 47,
      "start": 63.7911,
      "duration": 0.0187,
      "velocity": 100,
      "chip": "ym2612"
    },
    {
      "channel": 0,
      "note": 84,
      "start": 63.8056,
      "duration": 0.0144,
      "velocity": 124,
      "chip": "ym2612"
    },
    {
      "channel": 4,
      "note": 64,
      "start": 63.807,
      "duration": 0.0142,
      "velocity": 120,
      "chip": "ym2612"
    },
    {
      "channel": 3,
      "note": 71,
      "start": 63.8084,
      "duration": 0.0139,
      "velocity": 120,
      "chip": "ym2612"
    },
    {
      "channel": 2,
      "note": 47,
      "start": 63.8099,
      "duration": 0.0137,
      "velocity": 100,
      "chip": "ym2612"
    },
    {
      "channel": 0,
      "note": 82,
      "start": 63.82,
      "duration": 0.016,
      "velocity": 124,
      "chip": "ym2612"
    },
    {
      "channel": 4,
      "note": 64,
      "start": 63.8212,
      "duration": 0.016,
      "velocity": 120,
      "chip": "ym2612"
    },
    {
      "channel": 3,
      "note": 71,
      "start": 63.8223,
      "duration": 0.016,
      "velocity": 120,
      "chip": "ym2612"
    },
    {
      "channel": 2,
      "note": 47,
      "start": 63.8235,
      "duration": 0.0159,
      "velocity": 100,
      "chip": "ym2612"
    },
    {
      "channel": 0,
      "note": 80,
      "start": 63.836,
      "duration": 0.0161,
      "velocity": 124,
      "chip": "ym2612"
    },
    {
      "channel": 4,
      "note": 64,
      "start": 63.8371,
      "duration": 0.0161,
      "velocity": 120,
      "chip": "ym2612"
    },
    {
      "channel": 3,
      "note": 71,
      "start": 63.8383,
      "duration": 0.0161,
      "velocity": 120,
      "chip": "ym2612"
    },
    {
      "channel": 2,
      "note": 47,
      "start": 63.8394,
      "duration": 0.0161,
      "velocity": 100,
      "chip": "ym2612"
    },
    {
      "channel": 0,
      "note": 77,
      "start": 63.8521,
      "duration": 0.0161,
      "velocity": 124,
      "chip": "ym2612"
    },
    {
      "channel": 4,
      "note": 64,
      "start": 63.8532,
      "duration": 0.0161,
      "velocity": 120,
      "chip": "ym2612"
    },
    {
      "channel": 3,
      "note": 71,
      "start": 63.8544,
      "duration": 0.0161,
      "velocity": 120,
      "chip": "ym2612"
    },
    {
      "channel": 2,
      "note": 47,
      "start": 63.8555,
      "duration": 0.0161,
      "velocity": 100,
      "chip": "ym2612"
    },
    {
      "channel": 0,
      "note": 75,
      "start": 63.8682,
      "duration": 0.0161,
      "velocity": 124,
      "chip": "ym2612"
    },
    {
      "channel": 4,
      "note": 64,
      "start": 63.8693,
      "duration": 0.0161,
      "velocity": 120,
      "chip": "ym2612"
    },
    {
      "channel": 3,
      "note": 71,
      "start": 63.8705,
      "duration": 0.0161,
      "velocity": 120,
      "chip": "ym2612"
    },
    {
      "channel": 2,
      "note": 47,
      "start": 63.8716,
      "duration": 0.0161,
      "velocity": 100,
      "chip": "ym2612"
    },
    {
      "channel": 0,
      "note": 72,
      "start": 63.8843,
      "duration": 0.0161,
      "velocity": 124,
      "chip": "ym2612"
    },
    {
      "channel": 4,
      "note": 64,
      "start": 63.8854,
      "duration": 0.0161,
      "velocity": 120,
      "chip": "ym2612"
    },
    {
      "channel": 3,
      "note": 71,
      "start": 63.8866,
      "duration": 0.0161,
      "velocity": 120,
      "chip": "ym2612"
    },
    {
      "channel": 2,
      "note": 47,
      "start": 63.8877,
      "duration": 0.0161,
      "velocity": 100,
      "chip": "ym2612"
    },
    {
      "channel": 0,
      "note": 70,
      "start": 63.9004,
      "duration": 0.0161,
      "velocity": 124,
      "chip": "ym2612"
    },
    {
      "channel": 4,
      "note": 64,
      "start": 63.9015,
      "duration": 0.0162,
      "velocity": 120,
      "chip": "ym2612"
    },
    {
      "channel": 3,
      "note": 71,
      "start": 63.9027,
      "duration": 0.0161,
      "velocity": 120,
      "chip": "ym2612"
    },
    {
      "channel": 2,
      "note": 47,
      "start": 63.9038,
      "duration": 0.0161,
      "velocity": 100,
      "chip": "ym2612"
    },
    {
      "channel": 0,
      "note": 68,
      "start": 63.9165,
      "duration": 0.0161,
      "velocity": 124,
      "chip": "ym2612"
    },
    {
      "channel": 4,
      "note": 64,
      "start": 63.9177,
      "duration": 0.0161,
      "velocity": 120,
      "chip": "ym2612"
    },
    {
      "channel": 3,
      "note": 71,
      "start": 63.9188,
      "duration": 0.0161,
      "velocity": 120,
      "chip": "ym2612"
    },
    {
      "channel": 2,
      "note": 47,
      "start": 63.9199,
      "duration": 0.0161,
      "velocity": 100,
      "chip": "ym2612"
    },
    {
      "channel": 0,
      "note": 65,
      "start": 63.9326,
      "duration": 0.0161,
      "velocity": 124,
      "chip": "ym2612"
    },
    {
      "channel": 4,
      "note": 64,
      "start": 63.9338,
      "duration": 0.0161,
      "velocity": 120,
      "chip": "ym2612"
    },
    {
      "channel": 3,
      "note": 71,
      "start": 63.9349,
      "duration": 0.0161,
      "velocity": 120,
      "chip": "ym2612"
    },
    {
      "channel": 2,
      "note": 47,
      "start": 63.936,
      "duration": 0.0161,
      "velocity": 100,
      "chip": "ym2612"
    },
    {
      "channel": 0,
      "note": 63,
      "start": 63.9487,
      "duration": 0.0158,
      "velocity": 1,
      "chip": "ym2612"
    },
    {
      "channel": 4,
      "note": 64,
      "start": 63.9499,
      "duration": 0.0159,
      "velocity": 120,
      "chip": "ym2612"
    },
    {
      "channel": 3,
      "note": 71,
      "start": 63.951,
      "duration": 0.0158,
      "velocity": 120,
      "chip": "ym2612"
    },
    {
      "channel": 2,
      "note": 47,
      "start": 63.9521,
      "duration": 0.0159,
      "velocity": 100,
      "chip": "ym2612"
    },
    {
      "channel": 4,
      "note": 64,
      "start": 63.9657,
      "duration": 0.0158,
      "velocity": 120,
      "chip": "ym2612"
    },
    {
      "channel": 3,
      "note": 71,
      "start": 63.9668,
      "duration": 0.0159,
      "velocity": 120,
      "chip": "ym2612"
    },
    {
      "channel": 2,
      "note": 47,
      "start": 63.968,
      "duration": 0.0158,
      "velocity": 100,
      "chip": "ym2612"
    },
    {
      "channel": 4,
      "note": 64,
      "start": 63.9815,
      "duration": 0.02,
      "velocity": 120,
      "chip": "ym2612"
    },
    {
      "channel": 3,
      "note": 71,
      "start": 63.9827,
      "duration": 0.0202,
      "velocity": 120,
      "chip": "ym2612"
    },
    {
      "channel": 2,
      "note": 47,
      "start": 63.9838,
      "duration": 0.0206,
      "velocity": 100,
      "chip": "ym2612"
    },
    {
      "channel": 0,
      "note": 36,
      "start": 64.0001,
      "duration": 0.013,
      "velocity": 115,
      "chip": "ym2612"
    },
    {
      "channel": 4,
      "note": 67,
      "start": 64.0016,
      "duration": 0.0128,
      "velocity": 120,
      "chip": "ym2612"
    },
    {
      "channel": 3,
      "note": 74,
      "start": 64.0029,
      "duration": 0.0127,
      "velocity": 120,
      "chip": "ym2612"
    },
    {
      "channel": 2,
      "note": 47,
      "start": 64.0044,
      "duration": 0.0124,
      "velocity": 100,
      "chip": "ym2612"
    },
    {
      "channel": 0,
      "note": 36,
      "start": 64.0132,
      "duration": 0.0188,
      "velocity": 115,
      "chip": "ym2612"
    },
    {
      "channel": 4,
      "note": 67,
      "start": 64.0144,
      "duration": 0.0188,
      "velocity": 120,
      "chip": "ym2612"
    },
    {
      "channel": 3,
      "note": 74,
      "start": 64.0156,
      "duration": 0.0187,
      "velocity": 120,
      "chip": "ym2612"
    },
    {
      "channel": 2,
      "note": 47,
      "start": 64.0168,
      "duration": 0.0186,
      "velocity": 100,
      "chip": "ym2612"
    },
    {
      "channel": 0,
      "note": 37,
      "start": 64.0319,
      "duration": 0.0161,
      "velocity": 115,
      "chip": "ym2612"
    },
    {
      "channel": 4,
      "note": 67,
      "start": 64.0332,
      "duration": 0.0161,
      "velocity": 120,
      "chip": "ym2612"
    },
    {
      "channel": 3,
      "note": 74,
      "start": 64.0343,
      "duration": 0.0161,
      "velocity": 120,
      "chip": "ym2612"
    },
    {
      "channel": 2,
      "note": 47,
      "start": 64.0354,
      "duration": 0.0161,
      "velocity": 100,
      "chip": "ym2612"
    },
    {
      "channel": 0,
      "note": 37,
      "start": 64.048,
      "duration": 0.0158,
      "velocity": 115,
      "chip": "ym2612"
    },
    {
      "channel": 4,
      "note": 67,
      "start": 64.0492,
      "duration": 0.0157,
      "velocity": 120,
      "chip": "ym2612"
    },
    {
      "channel": 3,
      "note": 74,
      "start": 64.0504,
      "duration": 0.0157,
      "velocity": 120,
      "chip": "ym2612"
    },
    {
      "channel": 2,
      "note": 47,
      "start": 64.0515,
      "duration": 0.0158,
      "velocity": 100,
      "chip": "ym2612"
    },
    {
      "channel": 0,
      "note": 38,
      "start": 64.0638,
      "duration": 0.0141,
      "velocity": 115,
      "chip": "ym2612"
    },
    {
      "channel": 4,
      "note": 67,
      "start": 64.0649,
      "duration": 0.0141,
      "velocity": 120,
      "chip": "ym2612"
    },
    {
      "channel": 3,
      "note": 74,
      "start": 64.0661,
      "duration": 0.0141,
      "velocity": 120,
      "chip": "ym2612"
    },
    {
      "channel": 2,
      "note": 47,
      "start": 64.0672,
      "duration": 0.014,
      "velocity": 100,
      "chip": "ym2612"
    },
    {
      "channel": 0,
      "note": 38,
      "start": 64.0779,
      "duration": 0.0158,
      "velocity": 115,
      "chip": "ym2612"
    },
    {
      "channel": 4,
      "note": 67,
      "start": 64.079,
      "duration": 0.0185,
      "velocity": 120,
      "chip": "ym2612"
    },
    {
      "channel": 3,
      "note": 74,
      "start": 64.0802,
      "duration": 0.0185,
      "velocity": 120,
      "chip": "ym2612"
    },
    {
      "channel": 2,
      "note": 47,
      "start": 64.0812,
      "duration": 0.0186,
      "velocity": 100,
      "chip": "ym2612"
    },
    {
      "channel": 0,
      "note": 39,
      "start": 64.0936,
      "duration": 0.0161,
      "velocity": 115,
      "chip": "ym2612"
    },
    {
      "channel": 4,
      "note": 67,
      "start": 64.0975,
      "duration": 0.0161,
      "velocity": 120,
      "chip": "ym2612"
    },
    {
      "channel": 3,
      "note": 74,
      "start": 64.0987,
      "duration": 0.0161,
      "velocity": 120,
      "chip": "ym2612"
    },
    {
      "channel": 2,
      "note": 47,
      "start": 64.0998,
      "duration": 0.0161,
      "velocity": 100,
      "chip": "ym2612"
    },
    {
      "channel": 0,
      "note": 39,
      "start": 64.1097,
      "duration": 0.0161,
      "velocity": 115,
      "chip": "ym2612"
    },
    {
      "channel": 4,
      "note": 67,
      "start": 64.1136,
      "duration": 0.0134,
      "velocity": 120,
      "chip": "ym2612"
    },
    {
      "channel": 3,
      "note": 74,
      "start": 64.1148,
      "duration": 0.0158,
      "velocity": 120,
      "chip": "ym2612"
    },
    {
      "channel": 2,
      "note": 47,
      "start": 64.1159,
      "duration": 0.0157,
      "velocity": 100,
      "chip": "ym2612"
    },
    {
      "channel": 0,
      "note": 40,
      "start": 64.1258,
      "duration": 0.0161,
      "velocity": 115,
      "chip": "ym2612"
    },
    {
      "channel": 4,
      "note": 67,
      "start": 64.127,
      "duration": 0.0161,
      "velocity": 120,
      "chip": "ym2612"
    },
    {
      "channel": 3,
      "note": 74,
      "start": 64.1305,
      "duration": 0.014,
      "velocity": 120,
      "chip": "ym2612"
    },
    {
      "channel": 2,
      "note": 47,
      "start": 64.1316,
      "duration": 0.0141,
      "velocity": 100,
      "chip": "ym2612"
    },
    {
      "channel": 0,
      "note": 40,
      "start": 64.1419,
      "duration": 0.0161,
      "velocity": 115,
      "chip": "ym2612"
    },
    {
      "channel": 4,
      "note": 67,
      "start": 64.1431,
      "duration": 0.0161,
      "velocity": 120,
      "chip": "ym2612"
    },
    {
      "channel": 3,
      "note": 74,
      "start": 64.1445,
      "duration": 0.0158,
      "velocity": 120,
      "chip": "ym2612"
    },
    {
      "channel": 2,
      "note": 47,
      "start": 64.1457,
      "duration": 0.0185,
      "velocity": 100,
      "chip": "ym2612"
    },
    {
      "channel": 0,
      "note": 40,
      "start": 64.158,
      "duration": 0.0161,
      "velocity": 115,
      "chip": "ym2612"
    },
    {
      "channel": 4,
      "note": 67,
      "start": 64.1592,
      "duration": 0.0161,
      "velocity": 120,
      "chip": "ym2612"
    },
    {
      "channel": 3,
      "note": 74,
      "start": 64.1603,
      "duration": 0.0161,
      "velocity": 120,
      "chip": "ym2612"
    },
    {
      "channel": 2,
      "note": 47,
      "start": 64.1642,
      "duration": 0.0161,
      "velocity": 100,
      "chip": "ym2612"
    },
    {
      "channel": 0,
      "note": 41,
      "start": 64.1741,
      "duration": 0.0179,
      "velocity": 115,
      "chip": "ym2612"
    },
    {
      "channel": 4,
      "note": 67,
      "start": 64.1753,
      "duration": 0.0181,
      "velocity": 120,
      "chip": "ym2612"
    },
    {
      "channel": 3,
      "note": 74,
      "start": 64.1764,
      "duration": 0.0207,
      "velocity": 120,
      "chip": "ym2612"
    },
    {
      "channel": 2,
      "note": 47,
      "start": 64.1803,
      "duration": 0.0183,
      "velocity": 100,
      "chip": "ym2612"
    },
    {
      "channel": 0,
      "note": 36,
      "start": 64.192,
      "duration": 0.0144,
      "velocity": 115,
      "chip": "ym2612"
    },
    {
      "channel": 4,
      "note": 71,
      "start": 64.1934,
      "duration": 0.0141,
      "velocity": 120,
      "chip": "ym2612"
    },
    {
      "channel": 3,
      "note": 78,
      "start": 64.1972,
      "duration": 0.0116,
      "velocity": 120,
      "chip": "ym2612"
    },
    {
      "channel": 2,
      "note": 47,
      "start": 64.1987,
      "duration": 0.0113,
      "velocity": 100,
      "chip": "ym2612"
    },
    {
      "channel": 0,
      "note": 36,
      "start": 64.2063,
      "duration": 0.0161,
      "velocity": 115,
      "chip": "ym2612"
    },
    {
      "channel": 4,
      "note": 71,
      "start": 64.2076,
      "duration": 0.016,
      "velocity": 120,
      "chip": "ym2612"
    },
    {
      "channel": 3,
      "note": 78,
      "start": 64.2088,
      "duration": 0.016,
      "velocity": 120,
      "chip": "ym2612"
    },
    {
      "channel": 2,
      "note": 47,
      "start": 64.21,
      "duration": 0.0159,
      "velocity": 100,
      "chip": "ym2612"
    },
    {
      "channel": 0,
      "note": 37,
      "start": 64.2224,
      "duration": 0.0161,
      "velocity": 115,
      "chip": "ym2612"
    },
    {
      "channel": 4,
      "note": 71,
      "start": 64.2236,
      "duration": 0.0161,
      "velocity": 120,
      "chip": "ym2612"
    },
    {
      "channel": 3,
      "note": 78,
      "start": 64.2247,
      "duration": 0.0161,
      "velocity": 120,
      "chip": "ym2612"
    },
    {
      "channel": 2,
      "note": 47,
      "start": 64.2258,
      "duration": 0.0161,
      "velocity": 100,
      "chip": "ym2612"
    },
    {
      "channel": 0,
      "note": 37,
      "start": 64.2385,
      "duration": 0.0161,
      "velocity": 115,
      "chip": "ym2612"
    },
    {
      "channel": 4,
      "note": 71,
      "start": 64.2397,
      "duration": 0.0161,
      "velocity": 120,
      "chip": "ym2612"
    },
    {
      "channel": 3,
      "note": 78,
      "start": 64.2408,
      "duration": 0.0161,
      "velocity": 120,
      "chip": "ym2612"
    },
    {
      "channel": 2,
      "note": 47,
      "start": 64.2419,
      "duration": 0.0161,
      "velocity": 100,
      "chip": "ym2612"
    },
    {
      "channel": 0,
      "note": 38,
      "start": 64.2546,
      "duration": 0.0161,
      "velocity": 115,
      "chip": "ym2612"
    },
    {
      "channel": 4,
      "note": 71,
      "start": 64.2558,
      "duration": 0.0161,
      "velocity": 120,
      "chip": "ym2612"
    },
    {
      "channel": 3,
      "note": 78,
      "start": 64.2569,
      "duration": 0.0161,
      "velocity": 120,
      "chip": "ym2612"
    },
    {
      "channel": 2,
      "note": 47,
      "start": 64.258,
      "duration": 0.0162,
      "velocity": 100,
      "chip": "ym2612"
    },
    {
      "channel": 0,
      "note": 38,
      "start": 64.2707,
      "duration": 0.0161,
      "velocity": 115,
      "chip": "ym2612"
    },
    {
      "channel": 4,
      "note": 71,
      "start": 64.2719,
      "duration": 0.0161,
      "velocity": 120,
      "chip": "ym2612"
    },
    {
      "channel": 3,
      "note": 78,
      "start": 64.273,
      "duration": 0.0161,
      "velocity": 120,
      "chip": "ym2612"
    },
    {
      "channel": 2,
      "note": 47,
      "start": 64.2742,
      "duration": 0.0161,
      "velocity": 100,
      "chip": "ym2612"
    },
    {
      "channel": 0,
      "note": 39,
      "start": 64.2868,
      "duration": 0.0161,
      "velocity": 115,
      "chip": "ym2612"
    },
    {
      "channel": 4,
      "note": 71,
      "start": 64.288,
      "duration": 0.0161,
      "velocity": 120,
      "chip": "ym2612"
    },
    {
      "channel": 3,
      "note": 78,
      "start": 64.2891,
      "duration": 0.0161,
      "velocity": 120,
      "chip": "ym2612"
    },
    {
      "channel": 2,
      "note": 47,
      "start": 64.2903,
      "duration": 0.0161,
      "velocity": 100,
      "chip": "ym2612"
    },
    {
      "channel": 0,
      "note": 39,
      "start": 64.3029,
      "duration": 0.0161,
      "velocity": 115,
      "chip": "ym2612"
    },
    {
      "channel": 4,
      "note": 71,
      "start": 64.3041,
      "duration": 0.0161,
      "velocity": 120,
      "chip": "ym2612"
    },
    {
      "channel": 3,
      "note": 78,
      "start": 64.3052,
      "duration": 0.0161,
      "velocity": 120,
      "chip": "ym2612"
    },
    {
      "channel": 2,
      "note": 47,
      "start": 64.3063,
      "duration": 0.0161,
      "velocity": 100,
      "chip": "ym2612"
    },
    {
      "channel": 0,
      "note": 40,
      "start": 64.319,
      "duration": 0.0161,
      "velocity": 115,
      "chip": "ym2612"
    },
    {
      "channel": 4,
      "note": 71,
      "start": 64.3202,
      "duration": 0.0161,
      "velocity": 120,
      "chip": "ym2612"
    },
    {
      "channel": 3,
      "note": 78,
      "start": 64.3213,
      "duration": 0.0161,
      "velocity": 120,
      "chip": "ym2612"
    },
    {
      "channel": 2,
      "note": 47,
      "start": 64.3224,
      "duration": 0.0161,
      "velocity": 100,
      "chip": "ym2612"
    },
    {
      "channel": 0,
      "note": 40,
      "start": 64.3351,
      "duration": 0.0161,
      "velocity": 115,
      "chip": "ym2612"
    },
    {
      "channel": 4,
      "note": 71,
      "start": 64.3363,
      "duration": 0.0162,
      "velocity": 120,
      "chip": "ym2612"
    },
    {
      "channel": 3,
      "note": 78,
      "start": 64.3374,
      "duration": 0.0161,
      "velocity": 120,
      "chip": "ym2612"
    },
    {
      "channel": 2,
      "note": 47,
      "start": 64.3385,
      "duration": 0.0161,
      "velocity": 100,
      "chip": "ym2612"
    },
    {
      "channel": 0,
      "note": 40,
      "start": 64.3512,
      "duration": 0.0161,
      "velocity": 115,
      "chip": "ym2612"
    },
    {
      "channel": 4,
      "note": 71,
      "start": 64.3524,
      "duration": 0.0161,
      "velocity": 120,
      "chip": "ym2612"
    },
    {
      "channel": 3,
      "note": 78,
      "start": 64.3535,
      "duration": 0.0162,
      "velocity": 120,
      "chip": "ym2612"
    },
    {
      "channel": 2,
      "note": 47,
      "start": 64.3546,
      "duration": 0.0161,
      "velocity": 100,
      "chip": "ym2612"
    },
    {
      "channel": 0,
      "note": 41,
      "start": 64.3673,
      "duration": 0.0179,
      "velocity": 115,
      "chip": "ym2612"
    },
    {
      "channel": 4,
      "note": 71,
      "start": 64.3685,
      "duration": 0.0181,
      "velocity": 120,
      "chip": "ym2612"
    },
    {
      "channel": 3,
      "note": 78,
      "start": 64.3697,
      "duration": 0.0183,
      "velocity": 120,
      "chip": "ym2612"
    },
    {
      "channel": 2,
      "note": 47,
      "start": 64.3707,
      "duration": 0.0187,
      "velocity": 100,
      "chip": "ym2612"
    },
    {
      "channel": 0,
      "note": 36,
      "start": 64.3852,
      "duration": 0.0144,
      "velocity": 115,
      "chip": "ym2612"
    },
    {
      "channel": 4,
      "note": 67,
      "start": 64.3866,
      "duration": 0.0142,
      "velocity": 120,
      "chip": "ym2612"
    },
    {
      "channel": 3,
      "note": 74,
      "start": 64.388,
      "duration": 0.0139,
      "velocity": 120,
      "chip": "ym2612"
    },
    {
      "channel": 2,
      "note": 47,
      "start": 64.3895,
      "duration": 0.0137,
      "velocity": 100,
      "chip": "ym2612"
    },
    {
      "channel": 0,
      "note": 36,
      "start": 64.3996,
      "duration": 0.016,
      "velocity": 115,
      "chip": "ym2612"
    },
    {
      "channel": 4,
      "note": 67,
      "start": 64.4008,
      "duration": 0.016,
      "velocity": 120,
      "chip": "ym2612"
    },
    {
      "channel": 3,
      "note": 74,
      "start": 64.402,
      "duration": 0.016,
      "velocity": 120,
      "chip": "ym2612"
    },
    {
      "channel": 2,
      "note": 47,
      "start": 64.4032,
      "duration": 0.0159,
      "velocity": 100,
      "chip": "ym2612"
    },
    {
      "channel": 0,
      "note": 37,
      "start": 64.4156,
      "duration": 0.0164,
      "velocity": 115,
      "chip": "ym2612"
    },
    {
      "channel": 4,
      "note": 67,
      "start": 64.4168,
      "duration": 0.0164,
      "velocity": 120,
      "chip": "ym2612"
    },
    {
      "channel": 3,
      "note": 74,
      "start": 64.4179,
      "duration": 0.0164,
      "velocity": 120,
      "chip": "ym2612"
    },
    {
      "channel": 2,
      "note": 47,
      "start": 64.4191,
      "duration": 0.0163,
      "velocity": 100,
      "chip": "ym2612"
    },
    {
      "channel": 0,
      "note": 37,
      "start": 64.4321,
      "duration": 0.0167,
      "velocity": 115,
      "chip": "ym2612"
    },
    {
      "channel": 4,
      "note": 67,
      "start": 64.4332,
      "duration": 0.0167,
      "velocity": 120,
      "chip": "ym2612"
    },
    {
      "channel": 3,
      "note": 74,
      "start": 64.4344,
      "duration": 0.0167,
      "velocity": 120,
      "chip": "ym2612"
    },
    {
      "channel": 2,
      "note": 47,
      "start": 64.4354,
      "duration": 0.0167,
      "velocity": 100,
      "chip": "ym2612"
    },
    {
      "channel": 0,
      "note": 38,
      "start": 64.4487,
      "duration": 0.0163,
      "velocity": 115,
      "chip": "ym2612"
    },
    {
      "channel": 4,
      "note": 67,
      "start": 64.4499,
      "duration": 0.0163,
      "velocity": 120,
      "chip": "ym2612"
    },
    {
      "channel": 3,
      "note": 74,
      "start": 64.451,
      "duration": 0.0163,
      "velocity": 120,
      "chip": "ym2612"
    },
    {
      "channel": 2,
      "note": 47,
      "start": 64.4522,
      "duration": 0.0163,
      "velocity": 100,
      "chip": "ym2612"
    },
    {
      "channel": 0,
      "note": 38,
      "start": 64.465,
      "duration": 0.015,
      "velocity": 115,
      "chip": "ym2612"
    },
    {
      "channel": 4,
      "note": 67,
      "start": 64.4661,
      "duration": 0.015,
      "velocity": 120,
      "chip": "ym2612"
    },
    {
      "channel": 3,
      "note": 74,
      "start": 64.4673,
      "duration": 0.015,
      "velocity": 120,
      "chip": "ym2612"
    },
    {
      "channel": 2,
      "note": 47,
      "start": 64.4684,
      "duration": 0.015,
      "velocity": 100,
      "chip": "ym2612"
    },
    {
      "channel": 0,
      "note": 39,
      "start": 64.48,
      "duration": 0.0186,
      "velocity": 115,
      "chip": "ym2612"
    },
    {
      "channel": 4,
      "note": 67,
      "start": 64.4812,
      "duration": 0.0187,
      "velocity": 120,
      "chip": "ym2612"
    },
    {
      "channel": 3,
      "note": 74,
      "start": 64.4823,
      "duration": 0.0187,
      "velocity": 120,
      "chip": "ym2612"
    },
    {
      "channel": 2,
      "note": 47,
      "start": 64.4835,
      "duration": 0.0186,
      "velocity": 100,
      "chip": "ym2612"
    },
    {
      "channel": 0,
      "note": 39,
      "start": 64.4987,
      "duration": 0.0163,
      "velocity": 115,
      "chip": "ym2612"
    },
    {
      "channel": 4,
      "note": 67,
      "start": 64.4999,
      "duration": 0.0163,
      "velocity": 120,
      "chip": "ym2612"
    },
    {
      "channel": 3,
      "note": 74,
      "start": 64.501,
      "duration": 0.0163,
      "velocity": 120,
      "chip": "ym2612"
    },
    {
      "channel": 2,
      "note": 47,
      "start": 64.5021,
      "duration": 0.0163,
      "velocity": 100,
      "chip": "ym2612"
    },
    {
      "channel": 0,
      "note": 40,
      "start": 64.515,
      "duration": 0.0157,
      "velocity": 115,
      "chip": "ym2612"
    },
    {
      "channel": 4,
      "note": 67,
      "start": 64.5161,
      "duration": 0.0157,
      "velocity": 120,
      "chip": "ym2612"
    },
    {
      "channel": 3,
      "note": 74,
      "start": 64.5173,
      "duration": 0.0157,
      "velocity": 120,
      "chip": "ym2612"
    },
    {
      "channel": 2,
      "note": 47,
      "start": 64.5184,
      "duration": 0.0157,
      "velocity": 100,
      "chip": "ym2612"
    },
    {
      "channel": 0,
      "note": 40,
      "start": 64.5307,
      "duration": 0.0141,
      "velocity": 115,
      "chip": "ym2612"
    },
    {
      "channel": 4,
      "note": 67,
      "start": 64.5319,
      "duration": 0.0141,
      "velocity": 120,
      "chip": "ym2612"
    },
    {
      "channel": 3,
      "note": 74,
      "start": 64.533,
      "duration": 0.0141,
      "velocity": 120,
      "chip": "ym2612"
    },
    {
      "channel": 2,
      "note": 47,
      "start": 64.5341,
      "duration": 0.0141,
      "velocity": 100,
      "chip": "ym2612"
    },
    {
      "channel": 0,
      "note": 40,
      "start": 64.5448,
      "duration": 0.0158,
      "velocity": 115,
      "chip": "ym2612"
    },
    {
      "channel": 4,
      "note": 67,
      "start": 64.5459,
      "duration": 0.0185,
      "velocity": 120,
      "chip": "ym2612"
    },
    {
      "channel": 3,
      "note": 74,
      "start": 64.5471,
      "duration": 0.0185,
      "velocity": 120,
      "chip": "ym2612"
    },
    {
      "channel": 2,
      "note": 47,
      "start": 64.5482,
      "duration": 0.0185,
      "velocity": 100,
      "chip": "ym2612"
    },
    {
      "channel": 0,
      "note": 41,
      "start": 64.5606,
      "duration": 0.0206,
      "velocity": 124,
      "chip": "ym2612"
    },
    {
      "channel": 4,
      "note": 67,
      "start": 64.5644,
      "duration": 0.0181,
      "velocity": 120,
      "chip": "ym2612"
    },
    {
      "channel": 3,
      "note": 74,
      "start": 64.5656,
      "duration": 0.0184,
      "velocity": 120,
      "chip": "ym2612"
    },
    {
      "channel": 2,
      "note": 47,
      "start": 64.5667,
      "duration": 0.0187,
      "velocity": 100,
      "chip": "ym2612"
    },
    {
      "channel": 0,
      "note": 84,
      "start": 64.5812,
      "duration": 0.0116,
      "velocity": 124,
      "chip": "ym2612"
    },
    {
      "channel": 4,
      "note": 71,
      "start": 64.5826,
      "duration": 0.0137,
      "velocity": 120,
      "chip": "ym2612"
    },
    {
      "channel": 3,
      "note": 78,
      "start": 64.584,
      "duration": 0.0135,
      "velocity": 120,
      "chip": "ym2612"
    },
    {
      "channel": 2,
      "note": 47,
      "start": 64.5855,
      "duration": 0.0133,
      "velocity": 100,
      "chip": "ym2612"
    },
    {
      "channel": 0,
      "note": 82,
      "start": 64.5928,
      "duration": 0.016,
      "velocity": 124,
      "chip": "ym2612"
    },
    {
      "channel": 4,
      "note": 71,
      "start": 64.5964,
      "duration": 0.0136,
      "velocity": 120,
      "chip": "ym2612"
    },
    {
      "channel": 3,
      "note": 78,
      "start": 64.5976,
      "duration": 0.0139,
      "velocity": 120,
      "chip": "ym2612"
    },
    {
      "channel": 2,
      "note": 47,
      "start": 64.5988,
      "duration": 0.0138,
      "velocity": 100,
      "chip": "ym2612"
    },
    {
      "channel": 0,
      "note": 80,
      "start": 64.6088,
      "duration": 0.0161,
      "velocity": 124,
      "chip": "ym2612"
    },
    {
      "channel": 4,
      "note": 71,
      "start": 64.61,
      "duration": 0.0162,
      "velocity": 120,
      "chip": "ym2612"
    },
    {
      "channel": 3,
      "note": 78,
      "start": 64.6115,
      "duration": 0.0158,
      "velocity": 120,
      "chip": "ym2612"
    },
    {
      "channel": 2,
      "note": 47,
      "start": 64.6126,
      "duration": 0.0185,
      "velocity": 100,
      "chip": "ym2612"
    },
    {
      "channel": 0,
      "note": 77,
      "start": 64.6249,
      "duration": 0.0161,
      "velocity": 124,
      "chip": "ym2612"
    },
    {
      "channel": 4,
      "note": 71,
      "start": 64.6261,
      "duration": 0.0161,
      "velocity": 120,
      "chip": "ym2612"
    },
    {
      "channel": 3,
      "note": 78,
      "start": 64.6272,
      "duration": 0.0161,
      "velocity": 120,
      "chip": "ym2612"
    },
    {
      "channel": 2,
      "note": 47,
      "start": 64.6311,
      "duration": 0.0161,
      "velocity": 100,
      "chip": "ym2612"
    },
    {
      "channel": 0,
      "note": 75,
      "start": 64.641,
      "duration": 0.0161,
      "velocity": 124,
      "chip": "ym2612"
    },
    {
      "channel": 4,
      "note": 71,
      "start": 64.6422,
      "duration": 0.0161,
      "velocity": 120,
      "chip": "ym2612"
    },
    {
      "channel": 3,
      "note": 78,
      "start": 64.6433,
      "duration": 0.0161,
      "velocity": 120,
      "chip": "ym2612"
    },
    {
      "channel": 2,
      "note": 47,
      "start": 64.6472,
      "duration": 0.0134,
      "velocity": 100,
      "chip": "ym2612"
    },
    {
      "channel": 0,
      "note": 72,
      "start": 64.6571,
      "duration": 0.0162,
      "velocity": 124,
      "chip": "ym2612"
    },
    {
      "channel": 4,
      "note": 71,
      "start": 64.6583,
      "duration": 0.0161,
      "velocity": 120,
      "chip": "ym2612"
    },
    {
      "channel": 3,
      "note": 78,
      "start": 64.6594,
      "duration": 0.0162,
      "velocity": 120,
      "chip": "ym2612"
    },
    {
      "channel": 2,
      "note": 47,
      "start": 64.6606,
      "duration": 0.0161,
      "velocity": 100,
      "chip": "ym2612"
    },
    {
      "channel": 0,
      "note": 70,
      "start": 64.6733,
      "duration": 0.0161,
      "velocity": 124,
      "chip": "ym2612"
    },
    {
      "channel": 4,
      "note": 71,
      "start": 64.6744,
      "duration": 0.0161,
      "velocity": 120,
      "chip": "ym2612"
    },
    {
      "channel": 3,
      "note": 78,
      "start": 64.6756,
      "duration": 0.0161,
      "velocity": 120,
      "chip": "ym2612"
    },
    {
      "channel": 2,
      "note": 47,
      "start": 64.6767,
      "duration": 0.016,
      "velocity": 100,
      "chip": "ym2612"
    },
    {
      "channel": 0,
      "note": 68,
      "start": 64.6894,
      "duration": 0.0161,
      "velocity": 124,
      "chip": "ym2612"
    },
    {
      "channel": 4,
      "note": 71,
      "start": 64.6905,
      "duration": 0.0161,
      "velocity": 120,
      "chip": "ym2612"
    },
    {
      "channel": 3,
      "note": 78,
      "start": 64.6917,
      "duration": 0.0161,
      "velocity": 120,
      "chip": "ym2612"
    },
    {
      "channel": 2,
      "note": 47,
      "start": 64.6927,
      "duration": 0.0162,
      "velocity": 100,
      "chip": "ym2612"
    },
    {
      "channel": 0,
      "note": 65,
      "start": 64.7055,
      "duration": 0.0161,
      "velocity": 124,
      "chip": "ym2612"
    },
    {
      "channel": 4,
      "note": 71,
      "start": 64.7066,
      "duration": 0.0161,
      "velocity": 120,
      "chip": "ym2612"
    },
    {
      "channel": 3,
      "note": 78,
      "start": 64.7078,
      "duration": 0.0161,
      "velocity": 120,
      "chip": "ym2612"
    },
    {
      "channel": 2,
      "note": 47,
      "start": 64.7089,
      "duration": 0.0161,
      "velocity": 100,
      "chip": "ym2612"
    },
    {
      "channel": 0,
      "note": 63,
      "start": 64.7216,
      "duration": 0.0153,
      "velocity": 1,
      "chip": "ym2612"
    },
    {
      "channel": 4,
      "note": 71,
      "start": 64.7227,
      "duration": 0.0154,
      "velocity": 120,
      "chip": "ym2612"
    },
    {
      "channel": 3,
      "note": 78,
      "start": 64.7239,
      "duration": 0.0153,
      "velocity": 120,
      "chip": "ym2612"
    },
    {
      "channel": 2,
      "note": 47,
      "start": 64.725,
      "duration": 0.0153,
      "velocity": 100,
      "chip": "ym2612"
    },
    {
      "channel": 4,
      "note": 71,
      "start": 64.738,
      "duration": 0.0152,
      "velocity": 120,
      "chip": "ym2612"
    },
    {
      "channel": 3,
      "note": 78,
      "start": 64.7392,
      "duration": 0.0152,
      "velocity": 120,
      "chip": "ym2612"
    },
    {
      "channel": 2,
      "note": 47,
      "start": 64.7403,
      "duration": 0.0153,
      "velocity": 100,
      "chip": "ym2612"
    },
    {
      "channel": 4,
      "note": 71,
      "start": 64.7532,
      "duration": 0.0163,
      "velocity": 120,
      "chip": "ym2612"
    },
    {
      "channel": 3,
      "note": 78,
      "start": 64.7544,
      "duration": 0.0166,
      "velocity": 120,
      "chip": "ym2612"
    },
    {
      "channel": 2,
      "note": 47,
      "start": 64.7555,
      "duration": 0.0169,
      "velocity": 100,
      "chip": "ym2612"
    },
    {
      "channel": 4,
      "note": 64,
      "start": 64.7697,
      "duration": 0.0158,
      "velocity": 120,
      "chip": "ym2612"
    },
    {
      "channel": 3,
      "note": 71,
      "start": 64.771,
      "duration": 0.0157,
      "velocity": 120,
      "chip": "ym2612"
    },
    {
      "channel": 2,
      "note": 47,
      "start": 64.7724,
      "duration": 0.0155,
      "velocity": 100,
      "chip": "ym2612"
    },
    {
      "channel": 4,
      "note": 64,
      "start": 64.7855,
      "duration": 0.0161,
      "velocity": 120,
      "chip": "ym2612"
    },
    {
      "channel": 3,
      "note": 71,
      "start": 64.7867,
      "duration": 0.016,
      "velocity": 120,
      "chip": "ym2612"
    },
    {
      "channel": 2,
      "note": 47,
      "start": 64.7879,
      "duration": 0.0159,
      "velocity": 100,
      "chip": "ym2612"
    },
    {
      "channel": 4,
      "note": 64,
      "start": 64.8016,
      "duration": 0.0161,
      "velocity": 120,
      "chip": "ym2612"
    },
    {
      "channel": 3,
      "note": 71,
      "start": 64.8027,
      "duration": 0.0161,
      "velocity": 120,
      "chip": "ym2612"
    },
    {
      "channel": 2,
      "note": 47,
      "start": 64.8038,
      "duration": 0.0161,
      "velocity": 100,
      "chip": "ym2612"
    },
    {
      "channel": 4,
      "note": 64,
      "start": 64.8177,
      "duration": 0.0161,
      "velocity": 120,
      "chip": "ym2612"
    },
    {
      "channel": 3,
      "note": 71,
      "start": 64.8188,
      "duration": 0.0161,
      "velocity": 120,
      "chip": "ym2612"
    },
    {
      "channel": 2,
      "note": 47,
      "start": 64.8199,
      "duration": 0.0162,
      "velocity": 100,
      "chip": "ym2612"
    },
    {
      "channel": 4,
      "note": 64,
      "start": 64.8338,
      "duration": 0.0161,
      "velocity": 120,
      "chip": "ym2612"
    },
    {
      "channel": 3,
      "note": 71,
      "start": 64.8349,
      "duration": 0.0161,
      "velocity": 120,
      "chip": "ym2612"
    },
    {
      "channel": 2,
      "note": 47,
      "start": 64.8361,
      "duration": 0.0161,
      "velocity": 100,
      "chip": "ym2612"
    },
    {
      "channel": 4,
      "note": 64,
      "start": 64.8499,
      "duration": 0.0161,
      "velocity": 120,
      "chip": "ym2612"
    },
    {
      "channel": 3,
      "note": 71,
      "start": 64.851,
      "duration": 0.0161,
      "velocity": 120,
      "chip": "ym2612"
    },
    {
      "channel": 2,
      "note": 47,
      "start": 64.8522,
      "duration": 0.0161,
      "velocity": 100,
      "chip": "ym2612"
    },
    {
      "channel": 4,
      "note": 64,
      "start": 64.866,
      "duration": 0.0161,
      "velocity": 120,
      "chip": "ym2612"
    },
    {
      "channel": 3,
      "note": 71,
      "start": 64.8671,
      "duration": 0.0161,
      "velocity": 120,
      "chip": "ym2612"
    },
    {
      "channel": 2,
      "note": 47,
      "start": 64.8683,
      "duration": 0.0161,
      "velocity": 100,
      "chip": "ym2612"
    },
    {
      "channel": 4,
      "note": 64,
      "start": 64.8821,
      "duration": 0.0161,
      "velocity": 120,
      "chip": "ym2612"
    },
    {
      "channel": 3,
      "note": 71,
      "start": 64.8832,
      "duration": 0.0162,
      "velocity": 120,
      "chip": "ym2612"
    },
    {
      "channel": 2,
      "note": 47,
      "start": 64.8844,
      "duration": 0.0161,
      "velocity": 100,
      "chip": "ym2612"
    },
    {
      "channel": 4,
      "note": 64,
      "start": 64.8982,
      "duration": 0.0167,
      "velocity": 120,
      "chip": "ym2612"
    },
    {
      "channel": 3,
      "note": 71,
      "start": 64.8994,
      "duration": 0.0167,
      "velocity": 120,
      "chip": "ym2612"
    },
    {
      "channel": 2,
      "note": 47,
      "start": 64.9005,
      "duration": 0.0166,
      "velocity": 100,
      "chip": "ym2612"
    },
    {
      "channel": 4,
      "note": 64,
      "start": 64.9149,
      "duration": 0.0163,
      "velocity": 120,
      "chip": "ym2612"
    },
    {
      "channel": 3,
      "note": 71,
      "start": 64.916,
      "duration": 0.0163,
      "velocity": 120,
      "chip": "ym2612"
    },
    {
      "channel": 2,
      "note": 47,
      "start": 64.9171,
      "duration": 0.0163,
      "velocity": 100,
      "chip": "ym2612"
    },
    {
      "channel": 4,
      "note": 64,
      "start": 64.9312,
      "duration": 0.0153,
      "velocity": 120,
      "chip": "ym2612"
    },
    {
      "channel": 3,
      "note": 71,
      "start": 64.9323,
      "duration": 0.0153,
      "velocity": 120,
      "chip": "ym2612"
    },
    {
      "channel": 2,
      "note": 47,
      "start": 64.9335,
      "duration": 0.0153,
      "velocity": 100,
      "chip": "ym2612"
    },
    {
      "channel": 4,
      "note": 64,
      "start": 64.9465,
      "duration": 0.022,
      "velocity": 120,
      "chip": "ym2612"
    },
    {
      "channel": 3,
      "note": 71,
      "start": 64.9476,
      "duration": 0.0223,
      "velocity": 120,
      "chip": "ym2612"
    },
    {
      "channel": 2,
      "note": 47,
      "start": 64.9487,
      "duration": 0.0227,
      "velocity": 100,
      "chip": "ym2612"
    },
    {
      "channel": 0,
      "note": 36,
      "start": 64.9672,
      "duration": 0.0148,
      "velocity": 115,
      "chip": "ym2612"
    },
    {
      "channel": 4,
      "note": 64,
      "start": 64.9686,
      "duration": 0.0146,
      "velocity": 120,
      "chip": "ym2612"
    },
    {
      "channel": 3,
      "note": 71,
      "start": 64.97,
      "duration": 0.0144,
      "velocity": 120,
      "chip": "ym2612"
    },
    {
      "channel": 2,
      "note": 47,
      "start": 64.9714,
      "duration": 0.0141,
      "velocity": 100,
      "chip": "ym2612"
    },
    {
      "channel": 0,
      "note": 36,
      "start": 64.982,
      "duration": 0.0156,
      "velocity": 115,
      "chip": "ym2612"
    },
    {
      "channel": 4,
      "note": 64,
      "start": 64.9832,
      "duration": 0.0156,
      "velocity": 120,
      "chip": "ym2612"
    },
    {
      "channel": 3,
      "note": 71,
      "start": 64.9844,
      "duration": 0.0155,
      "velocity": 120,
      "chip": "ym2612"
    },
    {
      "channel": 2,
      "note": 47,
      "start": 64.9856,
      "duration": 0.0155,
      "velocity": 100,
      "chip": "ym2612"
    },
    {
      "channel": 0,
      "note": 37,
      "start": 64.9976,
      "duration": 0.0141,
      "velocity": 115,
      "chip": "ym2612"
    },
    {
      "channel": 4,
      "note": 64,
      "start": 64.9988,
      "duration": 0.0141,
      "velocity": 120,
      "chip": "ym2612"
    },
    {
      "channel": 3,
      "note": 71,
      "start": 64.9999,
      "duration": 0.0141,
      "velocity": 120,
      "chip": "ym2612"
    },
    {
      "channel": 2,
      "note": 47,
      "start": 65.0011,
      "duration": 0.0141,
      "velocity": 100,
      "chip": "ym2612"
    },
    {
      "channel": 0,
      "note": 37,
      "start": 65.0117,
      "duration": 0.0185,
      "velocity": 115,
      "chip": "ym2612"
    },
    {
      "channel": 4,
      "note": 64,
      "start": 65.0129,
      "duration": 0.0185,
      "velocity": 120,
      "chip": "ym2612"
    },
    {
      "channel": 3,
      "note": 71,
      "start": 65.014,
      "duration": 0.0185,
      "velocity": 120,
      "chip": "ym2612"
    },
    {
      "channel": 2,
      "note": 47,
      "start": 65.0151,
      "duration": 0.0185,
      "velocity": 100,
      "chip": "ym2612"
    },
    {
      "channel": 0,
      "note": 38,
      "start": 65.0302,
      "duration": 0.0134,
      "velocity": 115,
      "chip": "ym2612"
    },
    {
      "channel": 4,
      "note": 64,
      "start": 65.0314,
      "duration": 0.0161,
      "velocity": 120,
      "chip": "ym2612"
    },
    {
      "channel": 3,
      "note": 71,
      "start": 65.0325,
      "duration": 0.0161,
      "velocity": 120,
      "chip": "ym2612"
    },
    {
      "channel": 2,
      "note": 47,
      "start": 65.0337,
      "duration": 0.0161,
      "velocity": 100,
      "chip": "ym2612"
    },
    {
      "channel": 0,
      "note": 38,
      "start": 65.0436,
      "duration": 0.0161,
      "velocity": 115,
      "chip": "ym2612"
    },
    {
      "channel": 4,
      "note": 64,
      "start": 65.0475,
      "duration": 0.0157,
      "velocity": 120,
      "chip": "ym2612"
    },
    {
      "channel": 3,
      "note": 71,
      "start": 65.0486,
      "duration": 0.0158,
      "velocity": 120,
      "chip": "ym2612"
    },
    {
      "channel": 2,
      "note": 47,
      "start": 65.0498,
      "duration": 0.0158,
      "velocity": 100,
      "chip": "ym2612"
    },
    {
      "channel": 0,
      "note": 39,
      "start": 65.0597,
      "duration": 0.0161,
      "velocity": 115,
      "chip": "ym2612"
    },
    {
      "channel": 4,
      "note": 64,
      "start": 65.0632,
      "duration": 0.0137,
      "velocity": 120,
      "chip": "ym2612"
    },
    {
      "channel": 3,
      "note": 71,
      "start": 65.0644,
      "duration": 0.014,
      "velocity": 120,
      "chip": "ym2612"
    },
    {
      "channel": 2,
      "note": 47,
      "start": 65.0655,
      "duration": 0.014,
      "velocity": 100,
      "chip": "ym2612"
    },
    {
      "channel": 0,
      "note": 39,
      "start": 65.0758,
      "duration": 0.0161,
      "velocity": 115,
      "chip": "ym2612"
    },
    {
      "channel": 4,
      "note": 64,
      "start": 65.0769,
      "duration": 0.0161,
      "velocity": 120,
      "chip": "ym2612"
    },
    {
      "channel": 3,
      "note": 71,
      "start": 65.0784,
      "duration": 0.0186,
      "velocity": 120,
      "chip": "ym2612"
    },
    {
      "channel": 2,
      "note": 47,
      "start": 65.0795,
      "duration": 0.0185,
      "velocity": 100,
      "chip": "ym2612"
    },
    {
      "channel": 0,
      "note": 40,
      "start": 65.0919,
      "duration": 0.0161,
      "velocity": 115,
      "chip": "ym2612"
    },
    {
      "channel": 4,
      "note": 64,
      "start": 65.093,
      "duration": 0.0162,
      "velocity": 120,
      "chip": "ym2612"
    },
    {
      "channel": 3,
      "note": 71,
      "start": 65.0969,
      "duration": 0.0134,
      "velocity": 120,
      "chip": "ym2612"
    },
    {
      "channel": 2,
      "note": 47,
      "start": 65.098,
      "duration": 0.0162,
      "velocity": 100,
      "chip": "ym2612"
    },
    {
      "channel": 0,
      "note": 40,
      "start": 65.108,
      "duration": 0.0161,
      "velocity": 115,
      "chip": "ym2612"
    },
    {
      "channel": 4,
      "note": 64,
      "start": 65.1092,
      "duration": 0.0161,
      "velocity": 120,
      "chip": "ym2612"
    },
    {
      "channel": 3,
      "note": 71,
      "start": 65.1103,
      "duration": 0.0161,
      "velocity": 120,
      "chip": "ym2612"
    },
    {
      "channel": 2,
      "note": 47,
      "start": 65.1142,
      "duration": 0.0157,
      "velocity": 100,
      "chip": "ym2612"
    },
    {
      "channel": 0,
      "note": 40,
      "start": 65.1241,
      "duration": 0.0161,
      "velocity": 115,
      "chip": "ym2612"
    },
    {
      "channel": 4,
      "note": 64,
      "start": 65.1253,
      "duration": 0.0161,
      "velocity": 120,
      "chip": "ym2612"
    },
    {
      "channel": 3,
      "note": 71,
      "start": 65.1264,
      "duration": 0.0161,
      "velocity": 120,
      "chip": "ym2612"
    },
    {
      "channel": 2,
      "note": 47,
      "start": 65.1299,
      "duration": 0.0137,
      "velocity": 100,
      "chip": "ym2612"
    },
    {
      "channel": 0,
      "note": 41,
      "start": 65.1402,
      "duration": 0.0161,
      "velocity": 115,
      "chip": "ym2612"
    },
    {
      "channel": 4,
      "note": 64,
      "start": 65.1413,
      "duration": 0.0163,
      "velocity": 120,
      "chip": "ym2612"
    },
    {
      "channel": 3,
      "note": 71,
      "start": 65.1425,
      "duration": 0.0166,
      "velocity": 120,
      "chip": "ym2612"
    },
    {
      "channel": 2,
      "note": 47,
      "start": 65.1436,
      "duration": 0.0169,
      "velocity": 100,
      "chip": "ym2612"
    },
    {
      "channel": 0,
      "note": 41,
      "start": 65.1563,
      "duration": 0.0161,
      "velocity": 115,
      "chip": "ym2612"
    },
    {
      "channel": 4,
      "note": 67,
      "start": 65.1577,
      "duration": 0.0159,
      "velocity": 120,
      "chip": "ym2612"
    },
    {
      "channel": 3,
      "note": 74,
      "start": 65.1591,
      "duration": 0.0157,
      "velocity": 120,
      "chip": "ym2612"
    },
    {
      "channel": 2,
      "note": 47,
      "start": 65.1606,
      "duration": 0.0154,
      "velocity": 100,
      "chip": "ym2612"
    },
    {
      "channel": 0,
      "note": 42,
      "start": 65.1724,
      "duration": 0.0161,
      "velocity": 115,
      "chip": "ym2612"
    },
    {
      "channel": 4,
      "note": 67,
      "start": 65.1736,
      "duration": 0.016,
      "velocity": 120,
      "chip": "ym2612"
    },
    {
      "channel": 3,
      "note": 74,
      "start": 65.1748,
      "duration": 0.016,
      "velocity": 120,
      "chip": "ym2612"
    },
    {
      "channel": 2,
      "note": 47,
      "start": 65.176,
      "duration": 0.0159,
      "velocity": 100,
      "chip": "ym2612"
    },
    {
      "channel": 0,
      "note": 42,
      "start": 65.1885,
      "duration": 0.0161,
      "velocity": 115,
      "chip": "ym2612"
    },
    {
      "channel": 4,
      "note": 67,
      "start": 65.1896,
      "duration": 0.0161,
      "velocity": 120,
      "chip": "ym2612"
    },
    {
      "channel": 3,
      "note": 74,
      "start": 65.1908,
      "duration": 0.0161,
      "velocity": 120,
      "chip": "ym2612"
    },
    {
      "channel": 2,
      "note": 47,
      "start": 65.1919,
      "duration": 0.0161,
      "velocity": 100,
      "chip": "ym2612"
    },
    {
      "channel": 0,
      "note": 43,
      "start": 65.2046,
      "duration": 0.0161,
      "velocity": 115,
      "chip": "ym2612"
    },
    {
      "channel": 4,
      "note": 67,
      "start": 65.2057,
      "duration": 0.0161,
      "velocity": 120,
      "chip": "ym2612"
    },
    {
      "channel": 3,
      "note": 74,
      "start": 65.2069,
      "duration": 0.0161,
      "velocity": 120,
      "chip": "ym2612"
    },
    {
      "channel": 2,
      "note": 47,
      "start": 65.208,
      "duration": 0.0161,
      "velocity": 100,
      "chip": "ym2612"
    },
    {
      "channel": 0,
      "note": 43,
      "start": 65.2207,
      "duration": 0.0161,
      "velocity": 115,
      "chip": "ym2612"
    },
    {
      "channel": 4,
      "note": 67,
      "start": 65.2218,
      "duration": 0.0161,
      "velocity": 120,
      "chip": "ym2612"
    },
    {
      "channel": 3,
      "note": 74,
      "start": 65.223,
      "duration": 0.0161,
      "velocity": 120,
      "chip": "ym2612"
    },
    {
      "channel": 2,
      "note": 47,
      "start": 65.2241,
      "duration": 0.0161,
      "velocity": 100,
      "chip": "ym2612"
    },
    {
      "channel": 0,
      "note": 44,
      "start": 65.2368,
      "duration": 0.0162,
      "velocity": 115,
      "chip": "ym2612"
    },
    {
      "channel": 4,
      "note": 67,
      "start": 65.2379,
      "duration": 0.0161,
      "velocity": 120,
      "chip": "ym2612"
    },
    {
      "channel": 3,
      "note": 74,
      "start": 65.239,
      "duration": 0.0162,
      "velocity": 120,
      "chip": "ym2612"
    },
    {
      "channel": 2,
      "note": 47,
      "start": 65.2402,
      "duration": 0.0161,
      "velocity": 100,
      "chip": "ym2612"
    },
    {
      "channel": 0,
      "note": 44,
      "start": 65.2529,
      "duration": 0.0161,
      "velocity": 115,
      "chip": "ym2612"
    },
    {
      "channel": 4,
      "note": 67,
      "start": 65.2541,
      "duration": 0.0161,
      "velocity": 120,
      "chip": "ym2612"
    },
    {
      "channel": 3,
      "note": 74,
      "start": 65.2552,
      "duration": 0.0161,
      "velocity": 120,
      "chip": "ym2612"
    },
    {
      "channel": 2,
      "note": 47,
      "start": 65.2563,
      "duration": 0.0161,
      "velocity": 100,
      "chip": "ym2612"
    },
    {
      "channel": 0,
      "note": 44,
      "start": 65.269,
      "duration": 0.0161,
      "velocity": 115,
      "chip": "ym2612"
    },
    {
      "channel": 4,
      "note": 67,
      "start": 65.2702,
      "duration": 0.0161,
      "velocity": 120,
      "chip": "ym2612"
    },
    {
      "channel": 3,
      "note": 74,
      "start": 65.2713,
      "duration": 0.0161,
      "velocity": 120,
      "chip": "ym2612"
    },
    {
      "channel": 2,
      "note": 47,
      "start": 65.2724,
      "duration": 0.0161,
      "velocity": 100,
      "chip": "ym2612"
    },
    {
      "channel": 0,
      "note": 45,
      "start": 65.2851,
      "duration": 0.0161,
      "velocity": 115,
      "chip": "ym2612"
    },
    {
      "channel": 4,
      "note": 67,
      "start": 65.2863,
      "duration": 0.0161,
      "velocity": 120,
      "chip": "ym2612"
    },
    {
      "channel": 3,
      "note": 74,
      "start": 65.2874,
      "duration": 0.0161,
      "velocity": 120,
      "chip": "ym2612"
    },
    {
      "channel": 2,
      "note": 47,
      "start": 65.2885,
      "duration": 0.0162,
      "velocity": 100,
      "chip": "ym2612"
    },
    {
      "channel": 0,
      "note": 45,
      "start": 65.3012,
      "duration": 0.0161,
      "velocity": 115,
      "chip": "ym2612"
    },
    {
      "channel": 4,
      "note": 67,
      "start": 65.3024,
      "duration": 0.0161,
      "velocity": 120,
      "chip": "ym2612"
    },
    {
      "channel": 3,
      "note": 74,
      "start": 65.3035,
      "duration": 0.0161,
      "velocity": 120,
      "chip": "ym2612"
    },
    {
      "channel": 2,
      "note": 47,
      "start": 65.3046,
      "duration": 0.0161,
      "velocity": 100,
      "chip": "ym2612"
    },
    {
      "channel": 0,
      "note": 46,
      "start": 65.3173,
      "duration": 0.0161,
      "velocity": 115,
      "chip": "ym2612"
    },
    {
      "channel": 4,
      "note": 67,
      "start": 65.3184,
      "duration": 0.0161,
      "velocity": 120,
      "chip": "ym2612"
    },
    {
      "channel": 3,
      "note": 74,
      "start": 65.3196,
      "duration": 0.0161,
      "velocity": 120,
      "chip": "ym2612"
    },
    {
      "channel": 2,
      "note": 47,
      "start": 65.3207,
      "duration": 0.0161,
      "velocity": 100,
      "chip": "ym2612"
    },
    {
      "channel": 0,
      "note": 46,
      "start": 65.3334,
      "duration": 0.0179,
      "velocity": 124,
      "chip": "ym2612"
    },
    {
      "channel": 4,
      "note": 67,
      "start": 65.3345,
      "duration": 0.0181,
      "velocity": 120,
      "chip": "ym2612"
    },
    {
      "channel": 3,
      "note": 74,
      "start": 65.3357,
      "duration": 0.0184,
      "velocity": 120,
      "chip": "ym2612"
    },
    {
      "channel": 2,
      "note": 47,
      "start": 65.3368,
      "duration": 0.0187,
      "velocity": 100,
      "chip": "ym2612"
    },
    {
      "channel": 0,
      "note": 84,
      "start": 65.3513,
      "duration": 0.0144,
      "velocity": 124,
      "chip": "ym2612"
    },
    {
      "channel": 4,
      "note": 71,
      "start": 65.3527,
      "duration": 0.0141,
      "velocity": 120,
      "chip": "ym2612"
    },
    {
      "channel": 3,
      "note": 78,
      "start": 65.3541,
      "duration": 0.0139,
      "velocity": 120,
      "chip": "ym2612"
    },
    {
      "channel": 2,
      "note": 47,
      "start": 65.3555,
      "duration": 0.0137,
      "velocity": 100,
      "chip": "ym2612"
    },
    {
      "channel": 0,
      "note": 82,
      "start": 65.3656,
      "duration": 0.0164,
      "velocity": 124,
      "chip": "ym2612"
    },
    {
      "channel": 4,
      "note": 71,
      "start": 65.3668,
      "duration": 0.0163,
      "velocity": 120,
      "chip": "ym2612"
    },
    {
      "channel": 3,
      "note": 78,
      "start": 65.3681,
      "duration": 0.0163,
      "velocity": 120,
      "chip": "ym2612"
    },
    {
      "channel": 2,
      "note": 47,
      "start": 65.3693,
      "duration": 0.0162,
      "velocity": 100,
      "chip": "ym2612"
    },
    {
      "channel": 0,
      "note": 80,
      "start": 65.3821,
      "duration": 0.0163,
      "velocity": 124,
      "chip": "ym2612"
    },
    {
      "channel": 4,
      "note": 71,
      "start": 65.3832,
      "duration": 0.0163,
      "velocity": 120,
      "chip": "ym2612"
    },
    {
      "channel": 3,
      "note": 78,
      "start": 65.3844,
      "duration": 0.0163,
      "velocity": 120,
      "chip": "ym2612"
    },
    {
      "channel": 2,
      "note": 47,
      "start": 65.3855,
      "duration": 0.0163,
      "velocity": 100,
      "chip": "ym2612"
    },
    {
      "channel": 0,
      "note": 77,
      "start": 65.3983,
      "duration": 0.0156,
      "velocity": 124,
      "chip": "ym2612"
    },
    {
      "channel": 4,
      "note": 71,
      "start": 65.3995,
      "duration": 0.0156,
      "velocity": 120,
      "chip": "ym2612"
    },
    {
      "channel": 3,
      "note": 78,
      "start": 65.4006,
      "duration": 0.0156,
      "velocity": 120,
      "chip": "ym2612"
    },
    {
      "channel": 2,
      "note": 47,
      "start": 65.4018,
      "duration": 0.0156,
      "velocity": 100,
      "chip": "ym2612"
    },
    {
      "channel": 0,
      "note": 75,
      "start": 65.4139,
      "duration": 0.0181,
      "velocity": 124,
      "chip": "ym2612"
    },
    {
      "channel": 4,
      "note": 71,
      "start": 65.4151,
      "duration": 0.0181,
      "velocity": 120,
      "chip": "ym2612"
    },
    {
      "channel": 3,
      "note": 78,
      "start": 65.4162,
      "duration": 0.0181,
      "velocity": 120,
      "chip": "ym2612"
    },
    {
      "channel": 2,
      "note": 47,
      "start": 65.4174,
      "duration": 0.0181,
      "velocity": 100,
      "chip": "ym2612"
    },
    {
      "channel": 0,
      "note": 72,
      "start": 65.4321,
      "duration": 0.0167,
      "velocity": 124,
      "chip": "ym2612"
    },
    {
      "channel": 4,
      "note": 71,
      "start": 65.4332,
      "duration": 0.0167,
      "velocity": 120,
      "chip": "ym2612"
    },
    {
      "channel": 3,
      "note": 78,
      "start": 65.4344,
      "duration": 0.0167,
      "velocity": 120,
      "chip": "ym2612"
    },
    {
      "channel": 2,
      "note": 47,
      "start": 65.4355,
      "duration": 0.0167,
      "velocity": 100,
      "chip": "ym2612"
    },
    {
      "channel": 0,
      "note": 70,
      "start": 65.4487,
      "duration": 0.0158,
      "velocity": 124,
      "chip": "ym2612"
    },
    {
      "channel": 4,
      "note": 71,
      "start": 65.4499,
      "duration": 0.0159,
      "velocity": 120,
      "chip": "ym2612"
    },
    {
      "channel": 3,
      "note": 78,
      "start": 65.451,
      "duration": 0.0158,
      "velocity": 120,
      "chip": "ym2612"
    },
    {
      "channel": 2,
      "note": 47,
      "start": 65.4522,
      "duration": 0.0159,
      "velocity": 100,
      "chip": "ym2612"
    },
    {
      "channel": 0,
      "note": 68,
      "start": 65.4646,
      "duration": 0.0141,
      "velocity": 124,
      "chip": "ym2612"
    },
    {
      "channel": 4,
      "note": 71,
      "start": 65.4658,
      "duration": 0.014,
      "velocity": 120,
      "chip": "ym2612"
    },
    {
      "channel": 3,
      "note": 78,
      "start": 65.4668,
      "duration": 0.0141,
      "velocity": 120,
      "chip": "ym2612"
    },
    {
      "channel": 2,
      "note": 47,
      "start": 65.468,
      "duration": 0.0141,
      "velocity": 100,
      "chip": "ym2612"
    },
    {
      "channel": 0,
      "note": 65,
      "start": 65.4786,
      "duration": 0.0185,
      "velocity": 124,
      "chip": "ym2612"
    },
    {
      "channel": 4,
      "note": 71,
      "start": 65.4798,
      "duration": 0.0186,
      "velocity": 120,
      "chip": "ym2612"
    },
    {
      "channel": 3,
      "note": 78,
      "start": 65.4809,
      "duration": 0.0185,
      "velocity": 120,
      "chip": "ym2612"
    },
    {
      "channel": 2,
      "note": 47,
      "start": 65.4821,
      "duration": 0.0185,
      "velocity": 100,
      "chip": "ym2612"
    },
    {
      "channel": 0,
      "note": 63,
      "start": 65.4971,
      "duration": 0.0126,
      "velocity": 1,
      "chip": "ym2612"
    },
    {
      "channel": 4,
      "note": 71,
      "start": 65.4983,
      "duration": 0.0153,
      "velocity": 120,
      "chip": "ym2612"
    },
    {
      "channel": 3,
      "note": 78,
      "start": 65.4994,
      "duration": 0.0153,
      "velocity": 120,
      "chip": "ym2612"
    },
    {
      "channel": 2,
      "note": 47,
      "start": 65.5006,
      "duration": 0.0153,
      "velocity": 100,
      "chip": "ym2612"
    },
    {
      "channel": 4,
      "note": 71,
      "start": 65.5136,
      "duration": 0.0125,
      "velocity": 120,
      "chip": "ym2612"
    },
    {
      "channel": 3,
      "note": 78,
      "start": 65.5148,
      "duration": 0.0125,
      "velocity": 120,
      "chip": "ym2612"
    },
    {
      "channel": 2,
      "note": 47,
      "start": 65.5159,
      "duration": 0.0149,
      "velocity": 100,
      "chip": "ym2612"
    },
    {
      "channel": 4,
      "note": 71,
      "start": 65.5261,
      "duration": 0.02,
      "velocity": 120,
      "chip": "ym2612"
    },
    {
      "channel": 3,
      "note": 78,
      "start": 65.5273,
      "duration": 0.0203,
      "velocity": 120,
      "chip": "ym2612"
    },
    {
      "channel": 2,
      "note": 47,
      "start": 65.5308,
      "duration": 0.0183,
      "velocity": 100,
      "chip": "ym2612"
    },
    {
      "channel": 0,
      "note": 36,
      "start": 65.5449,
      "duration": 0.014,
      "velocity": 115,
      "chip": "ym2612"
    },
    {
      "channel": 4,
      "note": 67,
      "start": 65.5462,
      "duration": 0.0138,
      "velocity": 120,
      "chip": "ym2612"
    },
    {
      "channel": 3,
      "note": 74,
      "start": 65.5476,
      "duration": 0.0163,
      "velocity": 120,
      "chip": "ym2612"
    },
    {
      "channel": 2,
      "note": 47,
      "start": 65.5491,
      "duration": 0.0161,
      "velocity": 100,
      "chip": "ym2612"
    },
    {
      "channel": 0,
      "note": 36,
      "start": 65.5588,
      "duration": 0.0161,
      "velocity": 115,
      "chip": "ym2612"
    },
    {
      "channel": 4,
      "note": 67,
      "start": 65.56,
      "duration": 0.016,
      "velocity": 120,
      "chip": "ym2612"
    },
    {
      "channel": 3,
      "note": 74,
      "start": 65.564,
      "duration": 0.0132,
      "velocity": 120,
      "chip": "ym2612"
    },
    {
      "channel": 2,
      "note": 47,
      "start": 65.5652,
      "duration": 0.0159,
      "velocity": 100,
      "chip": "ym2612"
    },
    {
      "channel": 0,
      "note": 37,
      "start": 65.5749,
      "duration": 0.0161,
      "velocity": 115,
      "chip": "ym2612"
    },
    {
      "channel": 4,
      "note": 67,
      "start": 65.5761,
      "duration": 0.0161,
      "velocity": 120,
      "chip": "ym2612"
    },
    {
      "channel": 3,
      "note": 74,
      "start": 65.5772,
      "duration": 0.0161,
      "velocity": 120,
      "chip": "ym2612"
    },
    {
      "channel": 2,
      "note": 47,
      "start": 65.5811,
      "duration": 0.0157,
      "velocity": 100,
      "chip": "ym2612"
    },
    {
      "channel": 0,
      "note": 37,
      "start": 65.591,
      "duration": 0.0161,
      "velocity": 115,
      "chip": "ym2612"
    },
    {
      "channel": 4,
      "note": 67,
      "start": 65.5922,
      "duration": 0.0161,
      "velocity": 120,
      "chip": "ym2612"
    },
    {
      "channel": 3,
      "note": 74,
      "start": 65.5933,
      "duration": 0.0161,
      "velocity": 120,
      "chip": "ym2612"
    },
    {
      "channel": 2,
      "note": 47,
      "start": 65.5968,
      "duration": 0.0137,
      "velocity": 100,
      "chip": "ym2612"
    },
    {
      "channel": 0,
      "note": 38,
      "start": 65.6071,
      "duration": 0.0161,
      "velocity": 115,
      "chip": "ym2612"
    },
    {
      "channel": 4,
      "note": 67,
      "start": 65.6083,
      "duration": 0.0161,
      "velocity": 120,
      "chip": "ym2612"
    },
    {
      "channel": 3,
      "note": 74,
      "start": 65.6094,
      "duration": 0.0161,
      "velocity": 120,
      "chip": "ym2612"
    },
    {
      "channel": 2,
      "note": 47,
      "start": 65.6106,
      "duration": 0.0161,
      "velocity": 100,
      "chip": "ym2612"
    },
    {
      "channel": 0,
      "note": 38,
      "start": 65.6232,
      "duration": 0.0161,
      "velocity": 115,
      "chip": "ym2612"
    },
    {
      "channel": 4,
      "note": 67,
      "start": 65.6244,
      "duration": 0.0161,
      "velocity": 120,
      "chip": "ym2612"
    },
    {
      "channel": 3,
      "note": 74,
      "start": 65.6255,
      "duration": 0.0161,
      "velocity": 120,
      "chip": "ym2612"
    },
    {
      "channel": 2,
      "note": 47,
      "start": 65.6266,
      "duration": 0.0161,
      "velocity": 100,
      "chip": "ym2612"
    },
    {
      "channel": 0,
      "note": 39,
      "start": 65.6393,
      "duration": 0.0161,
      "velocity": 115,
      "chip": "ym2612"
    },
    {
      "channel": 4,
      "note": 67,
      "start": 65.6405,
      "duration": 0.0161,
      "velocity": 120,
      "chip": "ym2612"
    },
    {
      "channel": 3,
      "note": 74,
      "start": 65.6416,
      "duration": 0.0161,
      "velocity": 120,
      "chip": "ym2612"
    },
    {
      "channel": 2,
      "note": 47,
      "start": 65.6427,
      "duration": 0.0161,
      "velocity": 100,
      "chip": "ym2612"
    },
    {
      "channel": 0,
      "note": 39,
      "start": 65.6554,
      "duration": 0.0161,
      "velocity": 115,
      "chip": "ym2612"
    },
    {
      "channel": 4,
      "note": 67,
      "start": 65.6566,
      "duration": 0.0161,
      "velocity": 120,
      "chip": "ym2612"
    },
    {
      "channel": 3,
      "note": 74,
      "start": 65.6577,
      "duration": 0.0161,
      "velocity": 120,
      "chip": "ym2612"
    },
    {
      "channel": 2,
      "note": 47,
      "start": 65.6588,
      "duration": 0.0161,
      "velocity": 100,
      "chip": "ym2612"
    },
    {
      "channel": 0,
      "note": 40,
      "start": 65.6715,
      "duration": 0.0161,
      "velocity": 115,
      "chip": "ym2612"
    },
    {
      "channel": 4,
      "note": 67,
      "start": 65.6727,
      "duration": 0.0161,
      "velocity": 120,
      "chip": "ym2612"
    },
    {
      "channel": 3,
      "note": 74,
      "start": 65.6738,
      "duration": 0.0161,
      "velocity": 120,
      "chip": "ym2612"
    },
    {
      "channel": 2,
      "note": 47,
      "start": 65.6749,
      "duration": 0.0161,
      "velocity": 100,
      "chip": "ym2612"
    },
    {
      "channel": 0,
      "note": 40,
      "start": 65.6876,
      "duration": 0.0161,
      "velocity": 115,
      "chip": "ym2612"
    },
    {
      "channel": 4,
      "note": 67,
      "start": 65.6887,
      "duration": 0.0162,
      "velocity": 120,
      "chip": "ym2612"
    },
    {
      "channel": 3,
      "note": 74,
      "start": 65.6899,
      "duration": 0.0161,
      "velocity": 120,
      "chip": "ym2612"
    },
    {
      "channel": 2,
      "note": 47,
      "start": 65.691,
      "duration": 0.0161,
      "velocity": 100,
      "chip": "ym2612"
    },
    {
      "channel": 0,
      "note": 40,
      "start": 65.7037,
      "duration": 0.0161,
      "velocity": 115,
      "chip": "ym2612"
    },
    {
      "channel": 4,
      "note": 67,
      "start": 65.7049,
      "duration": 0.0161,
      "velocity": 120,
      "chip": "ym2612"
    },
    {
      "channel": 3,
      "note": 74,
      "start": 65.706,
      "duration": 0.0161,
      "velocity": 120,
      "chip": "ym2612"
    },
    {
      "channel": 2,
      "note": 47,
      "start": 65.7071,
      "duration": 0.0161,
      "velocity": 100,
      "chip": "ym2612"
    },
    {
      "channel": 0,
      "note": 41,
      "start": 65.7198,
      "duration": 0.0178,
      "velocity": 115,
      "chip": "ym2612"
    },
    {
      "channel": 4,
      "note": 67,
      "start": 65.721,
      "duration": 0.0181,
      "velocity": 120,
      "chip": "ym2612"
    },
    {
      "channel": 3,
      "note": 74,
      "start": 65.7221,
      "duration": 0.0184,
      "velocity": 120,
      "chip": "ym2612"
    },
    {
      "channel": 2,
      "note": 47,
      "start": 65.7232,
      "duration": 0.0187,
      "velocity": 100,
      "chip": "ym2612"
    },
    {
      "channel": 0,
      "note": 36,
      "start": 65.7377,
      "duration": 0.0144,
      "velocity": 115,
      "chip": "ym2612"
    },
    {
      "channel": 4,
      "note": 71,
      "start": 65.7391,
      "duration": 0.0142,
      "velocity": 120,
      "chip": "ym2612"
    },
    {
      "channel": 3,
      "note": 78,
      "start": 65.7405,
      "duration": 0.014,
      "velocity": 120,
      "chip": "ym2612"
    },
    {
      "channel": 2,
      "note": 47,
      "start": 65.742,
      "duration": 0.0137,
      "velocity": 100,
      "chip": "ym2612"
    },
    {
      "channel": 0,
      "note": 36,
      "start": 65.7521,
      "duration": 0.016,
      "velocity": 115,
      "chip": "ym2612"
    },
    {
      "channel": 4,
      "note": 71,
      "start": 65.7533,
      "duration": 0.016,
      "velocity": 120,
      "chip": "ym2612"
    },
    {
      "channel": 3,
      "note": 78,
      "start": 65.7545,
      "duration": 0.0159,
      "velocity": 120,
      "chip": "ym2612"
    },
    {
      "channel": 2,
      "note": 47,
      "start": 65.7557,
      "duration": 0.0159,
      "velocity": 100,
      "chip": "ym2612"
    },
    {
      "channel": 0,
      "note": 37,
      "start": 65.7681,
      "duration": 0.0161,
      "velocity": 115,
      "chip": "ym2612"
    },
    {
      "channel": 4,
      "note": 71,
      "start": 65.7693,
      "duration": 0.0161,
      "velocity": 120,
      "chip": "ym2612"
    },
    {
      "channel": 3,
      "note": 78,
      "start": 65.7704,
      "duration": 0.0161,
      "velocity": 120,
      "chip": "ym2612"
    },
    {
      "channel": 2,
      "note": 47,
      "start": 65.7716,
      "duration": 0.0161,
      "velocity": 100,
      "chip": "ym2612"
    },
    {
      "channel": 0,
      "note": 37,
      "start": 65.7842,
      "duration": 0.0161,
      "velocity": 115,
      "chip": "ym2612"
    },
    {
      "channel": 4,
      "note": 71,
      "start": 65.7854,
      "duration": 0.0161,
      "velocity": 120,
      "chip": "ym2612"
    },
    {
      "channel": 3,
      "note": 78,
      "start": 65.7865,
      "duration": 0.0161,
      "velocity": 120,
      "chip": "ym2612"
    },
    {
      "channel": 2,
      "note": 47,
      "start": 65.7877,
      "duration": 0.0161,
      "velocity": 100,
      "chip": "ym2612"
    },
    {
      "channel": 0,
      "note": 38,
      "start": 65.8003,
      "duration": 0.0161,
      "velocity": 115,
      "chip": "ym2612"
    },
    {
      "channel": 4,
      "note": 71,
      "start": 65.8015,
      "duration": 0.0162,
      "velocity": 120,
      "chip": "ym2612"
    },
    {
      "channel": 3,
      "note": 78,
      "start": 65.8026,
      "duration": 0.0161,
      "velocity": 120,
      "chip": "ym2612"
    },
    {
      "channel": 2,
      "note": 47,
      "start": 65.8037,
      "duration": 0.0161,
      "velocity": 100,
      "chip": "ym2612"
    },
    {
      "channel": 0,
      "note": 38,
      "start": 65.8164,
      "duration": 0.0161,
      "velocity": 115,
      "chip": "ym2612"
    },
    {
      "channel": 4,
      "note": 71,
      "start": 65.8176,
      "duration": 0.0161,
      "velocity": 120,
      "chip": "ym2612"
    },
    {
      "channel": 3,
      "note": 78,
      "start": 65.8187,
      "duration": 0.0161,
      "velocity": 120,
      "chip": "ym2612"
    },
    {
      "channel": 2,
      "note": 47,
      "start": 65.8198,
      "duration": 0.0161,
      "velocity": 100,
      "chip": "ym2612"
    },
    {
      "channel": 0,
      "note": 39,
      "start": 65.8325,
      "duration": 0.0162,
      "velocity": 115,
      "chip": "ym2612"
    },
    {
      "channel": 4,
      "note": 71,
      "start": 65.8337,
      "duration": 0.0161,
      "velocity": 120,
      "chip": "ym2612"
    },
    {
      "channel": 3,
      "note": 78,
      "start": 65.8348,
      "duration": 0.0162,
      "velocity": 120,
      "chip": "ym2612"
    },
    {
      "channel": 2,
      "note": 47,
      "start": 65.8359,
      "duration": 0.0162,
      "velocity": 100,
      "chip": "ym2612"
    },
    {
      "channel": 0,
      "note": 39,
      "start": 65.8487,
      "duration": 0.0163,
      "velocity": 115,
      "chip": "ym2612"
    },
    {
      "channel": 4,
      "note": 71,
      "start": 65.8499,
      "duration": 0.0163,
      "velocity": 120,
      "chip": "ym2612"
    },
    {
      "channel": 3,
      "note": 78,
      "start": 65.851,
      "duration": 0.0163,
      "velocity": 120,
      "chip": "ym2612"
    },
    {
      "channel": 2,
      "note": 47,
      "start": 65.8521,
      "duration": 0.0163,
      "velocity": 100,
      "chip": "ym2612"
    },
    {
      "channel": 0,
      "note": 40,
      "start": 65.865,
      "duration": 0.0159,
      "velocity": 115,
      "chip": "ym2612"
    },
    {
      "channel": 4,
      "note": 71,
      "start": 65.8661,
      "duration": 0.0159,
      "velocity": 120,
      "chip": "ym2612"
    },
    {
      "channel": 3,
      "note": 78,
      "start": 65.8673,
      "duration": 0.0159,
      "velocity": 120,
      "chip": "ym2612"
    },
    {
      "channel": 2,
      "note": 47,
      "start": 65.8684,
      "duration": 0.0158,
      "velocity": 100,
      "chip": "ym2612"
    },
    {
      "channel": 0,
      "note": 40,
      "start": 65.8809,
      "duration": 0.0179,
      "velocity": 115,
      "chip": "ym2612"
    },
    {
      "channel": 4,
      "note": 71,
      "start": 65.882,
      "duration": 0.0179,
      "velocity": 120,
      "chip": "ym2612"
    },
    {
      "channel": 3,
      "note": 78,
      "start": 65.8832,
      "duration": 0.0179,
      "velocity": 120,
      "chip": "ym2612"
    },
    {
      "channel": 2,
      "note": 47,
      "start": 65.8842,
      "duration": 0.0179,
      "velocity": 100,
      "chip": "ym2612"
    },
    {
      "channel": 0,
      "note": 40,
      "start": 65.8987,
      "duration": 0.0167,
      "velocity": 115,
      "chip": "ym2612"
    },
    {
      "channel": 4,
      "note": 71,
      "start": 65.8999,
      "duration": 0.0167,
      "velocity": 120,
      "chip": "ym2612"
    },
    {
      "channel": 3,
      "note": 78,
      "start": 65.901,
      "duration": 0.0167,
      "velocity": 120,
      "chip": "ym2612"
    },
    {
      "channel": 2,
      "note": 47,
      "start": 65.9021,
      "duration": 0.0167,
      "velocity": 100,
      "chip": "ym2612"
    },
    {
      "channel": 0,
      "note": 41,
      "start": 65.9154,
      "duration": 0.0161,
      "velocity": 115,
      "chip": "ym2612"
    },
    {
      "channel": 4,
      "note": 71,
      "start": 65.9165,
      "duration": 0.0163,
      "velocity": 120,
      "chip": "ym2612"
    },
    {
      "channel": 3,
      "note": 78,
      "start": 65.9177,
      "duration": 0.0166,
      "velocity": 120,
      "chip": "ym2612"
    },
    {
      "channel": 2,
      "note": 47,
      "start": 65.9188,
      "duration": 0.017,
      "velocity": 100,
      "chip": "ym2612"
    },
    {
      "channel": 0,
      "note": 41,
      "start": 65.9315,
      "duration": 0.014,
      "velocity": 115,
      "chip": "ym2612"
    },
    {
      "channel": 4,
      "note": 67,
      "start": 65.9329,
      "duration": 0.0138,
      "velocity": 120,
      "chip": "ym2612"
    },
    {
      "channel": 3,
      "note": 74,
      "start": 65.9344,
      "duration": 0.0136,
      "velocity": 120,
      "chip": "ym2612"
    },
    {
      "channel": 2,
      "note": 47,
      "start": 65.9358,
      "duration": 0.0134,
      "velocity": 100,
      "chip": "ym2612"
    },
    {
      "channel": 0,
      "note": 42,
      "start": 65.9456,
      "duration": 0.0185,
      "velocity": 115,
      "chip": "ym2612"
    },
    {
      "channel": 4,
      "note": 67,
      "start": 65.9468,
      "duration": 0.0185,
      "velocity": 120,
      "chip": "ym2612"
    },
    {
      "channel": 3,
      "note": 74,
      "start": 65.948,
      "duration": 0.0185,
      "velocity": 120,
      "chip": "ym2612"
    },
    {
      "channel": 2,
      "note": 47,
      "start": 65.9492,
      "duration": 0.0183,
      "velocity": 100,
      "chip": "ym2612"
    },
    {
      "channel": 0,
      "note": 42,
      "start": 65.9641,
      "duration": 0.0161,
      "velocity": 115,
      "chip": "ym2612"
    },
    {
      "channel": 4,
      "note": 67,
      "start": 65.9653,
      "duration": 0.0161,
      "velocity": 120,
      "chip": "ym2612"
    },
    {
      "channel": 3,
      "note": 74,
      "start": 65.9664,
      "duration": 0.0161,
      "velocity": 120,
      "chip": "ym2612"
    },
    {
      "channel": 2,
      "note": 47,
      "start": 65.9675,
      "duration": 0.0161,
      "velocity": 100,
      "chip": "ym2612"
    },
    {
      "channel": 0,
      "note": 43,
      "start": 65.9802,
      "duration": 0.0133,
      "velocity": 115,
      "chip": "ym2612"
    },
    {
      "channel": 4,
      "note": 67,
      "start": 65.9814,
      "duration": 0.0157,
      "velocity": 120,
      "chip": "ym2612"
    },
    {
      "channel": 3,
      "note": 74,
      "start": 65.9825,
      "duration": 0.0157,
      "velocity": 120,
      "chip": "ym2612"
    },
    {
      "channel": 2,
      "note": 47,
      "start": 65.9836,
      "duration": 0.0158,
      "velocity": 100,
      "chip": "ym2612"
    },
    {
      "channel": 0,
      "note": 43,
      "start": 65.9935,
      "duration": 0.0161,
      "velocity": 115,
      "chip": "ym2612"
    },
    {
      "channel": 4,
      "note": 67,
      "start": 65.9971,
      "duration": 0.0141,
      "velocity": 120,
      "chip": "ym2612"
    },
    {
      "channel": 3,
      "note": 74,
      "start": 65.9982,
      "duration": 0.0141,
      "velocity": 120,
      "chip": "ym2612"
    },
    {
      "channel": 2,
      "note": 47,
      "start": 65.9994,
      "duration": 0.014,
      "velocity": 100,
      "chip": "ym2612"
    },
    {
      "channel": 0,
      "note": 44,
      "start": 66.0097,
      "duration": 0.0161,
      "velocity": 115,
      "chip": "ym2612"
    },
    {
      "channel": 4,
      "note": 67,
      "start": 66.0111,
      "duration": 0.0158,
      "velocity": 120,
      "chip": "ym2612"
    },
    {
      "channel": 3,
      "note": 74,
      "start": 66.0123,
      "duration": 0.0185,
      "velocity": 120,
      "chip": "ym2612"
    },
    {
      "channel": 2,
      "note": 47,
      "start": 66.0134,
      "duration": 0.0186,
      "velocity": 100,
      "chip": "ym2612"
    },
    {
      "channel": 0,
      "note": 44,
      "start": 66.0258,
      "duration": 0.0161,
      "velocity": 115,
      "chip": "ym2612"
    },
    {
      "channel": 4,
      "note": 67,
      "start": 66.0269,
      "duration": 0.0161,
      "velocity": 120,
      "chip": "ym2612"
    },
    {
      "channel": 3,
      "note": 74,
      "start": 66.0308,
      "duration": 0.0161,
      "velocity": 120,
      "chip": "ym2612"
    },
    {
      "channel": 2,
      "note": 47,
      "start": 66.0319,
      "duration": 0.0161,
      "velocity": 100,
      "chip": "ym2612"
    },
    {
      "channel": 0,
      "note": 44,
      "start": 66.0419,
      "duration": 0.0161,
      "velocity": 115,
      "chip": "ym2612"
    },
    {
      "channel": 4,
      "note": 67,
      "start": 66.043,
      "duration": 0.0161,
      "velocity": 120,
      "chip": "ym2612"
    },
    {
      "channel": 3,
      "note": 74,
      "start": 66.0469,
      "duration": 0.0134,
      "velocity": 120,
      "chip": "ym2612"
    },
    {
      "channel": 2,
      "note": 47,
      "start": 66.048,
      "duration": 0.0157,
      "velocity": 100,
      "chip": "ym2612"
    },
    {
      "channel": 0,
      "note": 45,
      "start": 66.058,
      "duration": 0.0161,
      "velocity": 115,
      "chip": "ym2612"
    },
    {
      "channel": 4,
      "note": 67,
      "start": 66.0591,
      "duration": 0.0161,
      "velocity": 120,
      "chip": "ym2612"
    },
    {
      "channel": 3,
      "note": 74,
      "start": 66.0602,
      "duration": 0.0161,
      "velocity": 120,
      "chip": "ym2612"
    },
    {
      "channel": 2,
      "note": 47,
      "start": 66.0637,
      "duration": 0.0141,
      "velocity": 100,
      "chip": "ym2612"
    },
    {
      "channel": 0,
      "note": 45,
      "start": 66.074,
      "duration": 0.0161,
      "velocity": 115,
      "chip": "ym2612"
    },
    {
      "channel": 4,
      "note": 67,
      "start": 66.0752,
      "duration": 0.0161,
      "velocity": 120,
      "chip": "ym2612"
    },
    {
      "channel": 3,
      "note": 74,
      "start": 66.0763,
      "duration": 0.0161,
      "velocity": 120,
      "chip": "ym2612"
    },
    {
      "channel": 2,
      "note": 47,
      "start": 66.0778,
      "duration": 0.0158,
      "velocity": 100,
      "chip": "ym2612"
    },
    {
      "channel": 0,
      "note": 46,
      "start": 66.0901,
      "duration": 0.0161,
      "velocity": 115,
      "chip": "ym2612"
    },
    {
      "channel": 4,
      "note": 67,
      "start": 66.0913,
      "duration": 0.0161,
      "velocity": 120,
      "chip": "ym2612"
    },
    {
      "channel": 3,
      "note": 74,
      "start": 66.0924,
      "duration": 0.0161,
      "velocity": 120,
      "chip": "ym2612"
    },
    {
      "channel": 2,
      "note": 47,
      "start": 66.0936,
      "duration": 0.0161,
      "velocity": 100,
      "chip": "ym2612"
    },
    {
      "channel": 0,
      "note": 46,
      "start": 66.1062,
      "duration": 0.0179,
      "velocity": 124,
      "chip": "ym2612"
    },
    {
      "channel": 4,
      "note": 67,
      "start": 66.1074,
      "duration": 0.0181,
      "velocity": 120,
      "chip": "ym2612"
    },
    {
      "channel": 3,
      "note": 74,
      "start": 66.1085,
      "duration": 0.0184,
      "velocity": 120,
      "chip": "ym2612"
    },
    {
      "channel": 2,
      "note": 47,
      "start": 66.1097,
      "duration": 0.0211,
      "velocity": 100,
      "chip": "ym2612"
    },
    {
      "channel": 0,
      "note": 84,
      "start": 66.1242,
      "duration": 0.0143,
      "velocity": 124,
      "chip": "ym2612"
    },
    {
      "channel": 4,
      "note": 71,
      "start": 66.1256,
      "duration": 0.0142,
      "velocity": 120,
      "chip": "ym2612"
    },
    {
      "channel": 3,
      "note": 78,
      "start": 66.127,
      "duration": 0.0139,
      "velocity": 120,
      "chip": "ym2612"
    },
    {
      "channel": 2,
      "note": 47,
      "start": 66.1308,
      "duration": 0.0113,
      "velocity": 100,
      "chip": "ym2612"
    },
    {
      "channel": 0,
      "note": 82,
      "start": 66.1385,
      "duration": 0.0161,
      "velocity": 124,
      "chip": "ym2612"
    },
    {
      "channel": 4,
      "note": 71,
      "start": 66.1398,
      "duration": 0.016,
      "velocity": 120,
      "chip": "ym2612"
    },
    {
      "channel": 3,
      "note": 78,
      "start": 66.1409,
      "duration": 0.016,
      "velocity": 120,
      "chip": "ym2612"
    },
    {
      "channel": 2,
      "note": 47,
      "start": 66.1421,
      "duration": 0.0159,
      "velocity": 100,
      "chip": "ym2612"
    },
    {
      "channel": 0,
      "note": 80,
      "start": 66.1546,
      "duration": 0.0161,
      "velocity": 124,
      "chip": "ym2612"
    },
    {
      "channel": 4,
      "note": 71,
      "start": 66.1557,
      "duration": 0.0161,
      "velocity": 120,
      "chip": "ym2612"
    },
    {
      "channel": 3,
      "note": 78,
      "start": 66.1569,
      "duration": 0.0161,
      "velocity": 120,
      "chip": "ym2612"
    },
    {
      "channel": 2,
      "note": 47,
      "start": 66.158,
      "duration": 0.0161,
      "velocity": 100,
      "chip": "ym2612"
    },
    {
      "channel": 0,
      "note": 77,
      "start": 66.1707,
      "duration": 0.0161,
      "velocity": 124,
      "chip": "ym2612"
    },
    {
      "channel": 4,
      "note": 71,
      "start": 66.1718,
      "duration": 0.0161,
      "velocity": 120,
      "chip": "ym2612"
    },
    {
      "channel": 3,
      "note": 78,
      "start": 66.173,
      "duration": 0.0161,
      "velocity": 120,
      "chip": "ym2612"
    },
    {
      "channel": 2,
      "note": 47,
      "start": 66.1741,
      "duration": 0.0161,
      "velocity": 100,
      "chip": "ym2612"
    },
    {
      "channel": 0,
      "note": 75,
      "start": 66.1868,
      "duration": 0.0161,
      "velocity": 124,
      "chip": "ym2612"
    },
    {
      "channel": 4,
      "note": 71,
      "start": 66.1879,
      "duration": 0.0161,
      "velocity": 120,
      "chip": "ym2612"
    },
    {
      "channel": 3,
      "note": 78,
      "start": 66.189,
      "duration": 0.0161,
      "velocity": 120,
      "chip": "ym2612"
    },
    {
      "channel": 2,
      "note": 47,
      "start": 66.1902,
      "duration": 0.0161,
      "velocity": 100,
      "chip": "ym2612"
    },
    {
      "channel": 0,
      "note": 72,
      "start": 66.2029,
      "duration": 0.0161,
      "velocity": 124,
      "chip": "ym2612"
    },
    {
      "channel": 4,
      "note": 71,
      "start": 66.204,
      "duration": 0.0161,
      "velocity": 120,
      "chip": "ym2612"
    },
    {
      "channel": 3,
      "note": 78,
      "start": 66.2051,
      "duration": 0.0161,
      "velocity": 120,
      "chip": "ym2612"
    },
    {
      "channel": 2,
      "note": 47,
      "start": 66.2063,
      "duration": 0.0161,
      "velocity": 100,
      "chip": "ym2612"
    },
    {
      "channel": 0,
      "note": 70,
      "start": 66.219,
      "duration": 0.0161,
      "velocity": 124,
      "chip": "ym2612"
    },
    {
      "channel": 4,
      "note": 71,
      "start": 66.2201,
      "duration": 0.0161,
      "velocity": 120,
      "chip": "ym2612"
    },
    {
      "channel": 3,
      "note": 78,
      "start": 66.2212,
      "duration": 0.0161,
      "velocity": 120,
      "chip": "ym2612"
    },
    {
      "channel": 2,
      "note": 47,
      "start": 66.2224,
      "duration": 0.0161,
      "velocity": 100,
      "chip": "ym2612"
    },
    {
      "channel": 0,
      "note": 68,
      "start": 66.2351,
      "duration": 0.0161,
      "velocity": 124,
      "chip": "ym2612"
    },
    {
      "channel": 4,
      "note": 71,
      "start": 66.2362,
      "duration": 0.0162,
      "velocity": 120,
      "chip": "ym2612"
    },
    {
      "channel": 3,
      "note": 78,
      "start": 66.2373,
      "duration": 0.0161,
      "velocity": 120,
      "chip": "ym2612"
    },
    {
      "channel": 2,
      "note": 47,
      "start": 66.2385,
      "duration": 0.0161,
      "velocity": 100,
      "chip": "ym2612"
    },
    {
      "channel": 0,
      "note": 65,
      "start": 66.2511,
      "duration": 0.0161,
      "velocity": 124,
      "chip": "ym2612"
    },
    {
      "channel": 4,
      "note": 71,
      "start": 66.2524,
      "duration": 0.0161,
      "velocity": 120,
      "chip": "ym2612"
    },
    {
      "channel": 3,
      "note": 78,
      "start": 66.2534,
      "duration": 0.0161,
      "velocity": 120,
      "chip": "ym2612"
    },
    {
      "channel": 2,
      "note": 47,
      "start": 66.2546,
      "duration": 0.0161,
      "velocity": 100,
      "chip": "ym2612"
    },
    {
      "channel": 0,
      "note": 63,
      "start": 66.2672,
      "duration": 0.0153,
      "velocity": 1,
      "chip": "ym2612"
    },
    {
      "channel": 4,
      "note": 71,
      "start": 66.2684,
      "duration": 0.0153,
      "velocity": 120,
      "chip": "ym2612"
    },
    {
      "channel": 3,
      "note": 78,
      "start": 66.2695,
      "duration": 0.0153,
      "velocity": 120,
      "chip": "ym2612"
    },
    {
      "channel": 2,
      "note": 47,
      "start": 66.2707,
      "duration": 0.0153,
      "velocity": 100,
      "chip": "ym2612"
    },
    {
      "channel": 4,
      "note": 71,
      "start": 66.2837,
      "duration": 0.0153,
      "velocity": 120,
      "chip": "ym2612"
    },
    {
      "channel": 3,
      "note": 78,
      "start": 66.2849,
      "duration": 0.0153,
      "velocity": 120,
      "chip": "ym2612"
    },
    {
      "channel": 2,
      "note": 47,
      "start": 66.286,
      "duration": 0.0152,
      "velocity": 100,
      "chip": "ym2612"
    },
    {
      "channel": 4,
      "note": 71,
      "start": 66.299,
      "duration": 0.0163,
      "velocity": 120,
      "chip": "ym2612"
    },
    {
      "channel": 3,
      "note": 78,
      "start": 66.3001,
      "duration": 0.0165,
      "velocity": 120,
      "chip": "ym2612"
    },
    {
      "channel": 2,
      "note": 47,
      "start": 66.3012,
      "duration": 0.0169,
      "velocity": 100,
      "chip": "ym2612"
    },
    {
      "channel": 4,
      "note": 67,
      "start": 66.3153,
      "duration": 0.0159,
      "velocity": 120,
      "chip": "ym2612"
    },
    {
      "channel": 3,
      "note": 74,
      "start": 66.3167,
      "duration": 0.0157,
      "velocity": 120,
      "chip": "ym2612"
    },
    {
      "channel": 2,
      "note": 47,
      "start": 66.3182,
      "duration": 0.0155,
      "velocity": 100,
      "chip": "ym2612"
    },
    {
      "channel": 4,
      "note": 67,
      "start": 66.3312,
      "duration": 0.016,
      "velocity": 120,
      "chip": "ym2612"
    },
    {
      "channel": 3,
      "note": 74,
      "start": 66.3324,
      "duration": 0.016,
      "velocity": 120,
      "chip": "ym2612"
    },
    {
      "channel": 2,
      "note": 47,
      "start": 66.3337,
      "duration": 0.0159,
      "velocity": 100,
      "chip": "ym2612"
    },
    {
      "channel": 4,
      "note": 67,
      "start": 66.3473,
      "duration": 0.0176,
      "velocity": 120,
      "chip": "ym2612"
    },
    {
      "channel": 3,
      "note": 74,
      "start": 66.3484,
      "duration": 0.0176,
      "velocity": 120,
      "chip": "ym2612"
    },
    {
      "channel": 2,
      "note": 47,
      "start": 66.3495,
      "duration": 0.0176,
      "velocity": 100,
      "chip": "ym2612"
    },
    {
      "channel": 4,
      "note": 67,
      "start": 66.3649,
      "duration": 0.0167,
      "velocity": 120,
      "chip": "ym2612"
    },
    {
      "channel": 3,
      "note": 74,
      "start": 66.366,
      "duration": 0.0167,
      "velocity": 120,
      "chip": "ym2612"
    },
    {
      "channel": 2,
      "note": 47,
      "start": 66.3671,
      "duration": 0.0167,
      "velocity": 100,
      "chip": "ym2612"
    },
    {
      "channel": 4,
      "note": 67,
      "start": 66.3815,
      "duration": 0.0163,
      "velocity": 120,
      "chip": "ym2612"
    },
    {
      "channel": 3,
      "note": 74,
      "start": 66.3827,
      "duration": 0.0163,
      "velocity": 120,
      "chip": "ym2612"
    },
    {
      "channel": 2,
      "note": 47,
      "start": 66.3838,
      "duration": 0.0163,
      "velocity": 100,
      "chip": "ym2612"
    },
    {
      "channel": 4,
      "note": 67,
      "start": 66.3978,
      "duration": 0.0142,
      "velocity": 120,
      "chip": "ym2612"
    },
    {
      "channel": 3,
      "note": 74,
      "start": 66.399,
      "duration": 0.0142,
      "velocity": 120,
      "chip": "ym2612"
    },
    {
      "channel": 2,
      "note": 47,
      "start": 66.4001,
      "duration": 0.0141,
      "velocity": 100,
      "chip": "ym2612"
    },
    {
      "channel": 4,
      "note": 67,
      "start": 66.412,
      "duration": 0.0185,
      "velocity": 120,
      "chip": "ym2612"
    },
    {
      "channel": 3,
      "note": 74,
      "start": 66.4132,
      "duration": 0.0185,
      "velocity": 120,
      "chip": "ym2612"
    },
    {
      "channel": 2,
      "note": 47,
      "start": 66.4142,
      "duration": 0.0185,
      "velocity": 100,
      "chip": "ym2612"
    },
    {
      "channel": 4,
      "note": 67,
      "start": 66.4305,
      "duration": 0.0134,
      "velocity": 120,
      "chip": "ym2612"
    },
    {
      "channel": 3,
      "note": 74,
      "start": 66.4317,
      "duration": 0.0161,
      "velocity": 120,
      "chip": "ym2612"
    },
    {
      "channel": 2,
      "note": 47,
      "start": 66.4328,
      "duration": 0.0161,
      "velocity": 100,
      "chip": "ym2612"
    },
    {
      "channel": 4,
      "note": 67,
      "start": 66.4439,
      "duration": 0.0161,
      "velocity": 120,
      "chip": "ym2612"
    },
    {
      "channel": 3,
      "note": 74,
      "start": 66.4478,
      "duration": 0.0157,
      "velocity": 120,
      "chip": "ym2612"
    },
    {
      "channel": 2,
      "note": 47,
      "start": 66.4489,
      "duration": 0.0157,
      "velocity": 100,
      "chip": "ym2612"
    },
    {
      "channel": 4,
      "note": 67,
      "start": 66.46,
      "duration": 0.0161,
      "velocity": 120,
      "chip": "ym2612"
    },
    {
      "channel": 3,
      "note": 74,
      "start": 66.4635,
      "duration": 0.0137,
      "velocity": 120,
      "chip": "ym2612"
    },
    {
      "channel": 2,
      "note": 47,
      "start": 66.4646,
      "duration": 0.0141,
      "velocity": 100,
      "chip": "ym2612"
    },
    {
      "channel": 4,
      "note": 67,
      "start": 66.4761,
      "duration": 0.0161,
      "velocity": 120,
      "chip": "ym2612"
    },
    {
      "channel": 3,
      "note": 74,
      "start": 66.4772,
      "duration": 0.0161,
      "velocity": 120,
      "chip": "ym2612"
    },
    {
      "channel": 2,
      "note": 47,
      "start": 66.4787,
      "duration": 0.0185,
      "velocity": 100,
      "chip": "ym2612"
    },
    {
      "channel": 4,
      "note": 67,
      "start": 66.4922,
      "duration": 0.0225,
      "velocity": 120,
      "chip": "ym2612"
    },
    {
      "channel": 3,
      "note": 74,
      "start": 66.4933,
      "duration": 0.0228,
      "velocity": 120,
      "chip": "ym2612"
    },
    {
      "channel": 2,
      "note": 47,
      "start": 66.4972,
      "duration": 0.0204,
      "velocity": 100,
      "chip": "ym2612"
    },
    {
      "channel": 0,
      "note": 36,
      "start": 66.5106,
      "duration": 0.0144,
      "velocity": 115,
      "chip": "ym2612"
    },
    {
      "channel": 4,
      "note": 64,
      "start": 66.5148,
      "duration": 0.0114,
      "velocity": 120,
      "chip": "ym2612"
    },
    {
      "channel": 3,
      "note": 71,
      "start": 66.5161,
      "duration": 0.0136,
      "velocity": 120,
      "chip": "ym2612"
    },
    {
      "channel": 2,
      "note": 47,
      "start": 66.5176,
      "duration": 0.0133,
      "velocity": 100,
      "chip": "ym2612"
    },
    {
      "channel": 0,
      "note": 36,
      "start": 66.5249,
      "duration": 0.016,
      "velocity": 115,
      "chip": "ym2612"
    },
    {
      "channel": 4,
      "note": 64,
      "start": 66.5261,
      "duration": 0.016,
      "velocity": 120,
      "chip": "ym2612"
    },
    {
      "channel": 3,
      "note": 71,
      "start": 66.5297,
      "duration": 0.0136,
      "velocity": 120,
      "chip": "ym2612"
    },
    {
      "channel": 2,
      "note": 47,
      "start": 66.5309,
      "duration": 0.0138,
      "velocity": 100,
      "chip": "ym2612"
    },
    {
      "channel": 0,
      "note": 37,
      "start": 66.541,
      "duration": 0.0161,
      "velocity": 115,
      "chip": "ym2612"
    },
    {
      "channel": 4,
      "note": 64,
      "start": 66.5421,
      "duration": 0.0161,
      "velocity": 120,
      "chip": "ym2612"
    },
    {
      "channel": 3,
      "note": 71,
      "start": 66.5433,
      "duration": 0.0161,
      "velocity": 120,
      "chip": "ym2612"
    },
    {
      "channel": 2,
      "note": 47,
      "start": 66.5447,
      "duration": 0.0158,
      "velocity": 100,
      "chip": "ym2612"
    },
    {
      "channel": 0,
      "note": 37,
      "start": 66.5571,
      "duration": 0.0161,
      "velocity": 115,
      "chip": "ym2612"
    },
    {
      "channel": 4,
      "note": 64,
      "start": 66.5582,
      "duration": 0.0161,
      "velocity": 120,
      "chip": "ym2612"
    },
    {
      "channel": 3,
      "note": 71,
      "start": 66.5593,
      "duration": 0.0161,
      "velocity": 120,
      "chip": "ym2612"
    },
    {
      "channel": 2,
      "note": 47,
      "start": 66.5605,
      "duration": 0.0161,
      "velocity": 100,
      "chip": "ym2612"
    },
    {
      "channel": 0,
      "note": 38,
      "start": 66.5732,
      "duration": 0.0162,
      "velocity": 115,
      "chip": "ym2612"
    },
    {
      "channel": 4,
      "note": 64,
      "start": 66.5743,
      "duration": 0.0161,
      "velocity": 120,
      "chip": "ym2612"
    },
    {
      "channel": 3,
      "note": 71,
      "start": 66.5754,
      "duration": 0.0162,
      "velocity": 120,
      "chip": "ym2612"
    },
    {
      "channel": 2,
      "note": 47,
      "start": 66.5766,
      "duration": 0.0161,
      "velocity": 100,
      "chip": "ym2612"
    },
    {
      "channel": 0,
      "note": 38,
      "start": 66.5893,
      "duration": 0.0161,
      "velocity": 115,
      "chip": "ym2612"
    },
    {
      "channel": 4,
      "note": 64,
      "start": 66.5905,
      "duration": 0.0161,
      "velocity": 120,
      "chip": "ym2612"
    },
    {
      "channel": 3,
      "note": 71,
      "start": 66.5916,
      "duration": 0.0161,
      "velocity": 120,
      "chip": "ym2612"
    },
    {
      "channel": 2,
      "note": 47,
      "start": 66.5927,
      "duration": 0.0161,
      "velocity": 100,
      "chip": "ym2612"
    },
    {
      "channel": 0,
      "note": 39,
      "start": 66.6054,
      "duration": 0.0161,
      "velocity": 115,
      "chip": "ym2612"
    },
    {
      "channel": 4,
      "note": 64,
      "start": 66.6066,
      "duration": 0.0161,
      "velocity": 120,
      "chip": "ym2612"
    },
    {
      "channel": 3,
      "note": 71,
      "start": 66.6077,
      "duration": 0.0161,
      "velocity": 120,
      "chip": "ym2612"
    },
    {
      "channel": 2,
      "note": 47,
      "start": 66.6088,
      "duration": 0.0161,
      "velocity": 100,
      "chip": "ym2612"
    },
    {
      "channel": 0,
      "note": 39,
      "start": 66.6215,
      "duration": 0.0161,
      "velocity": 115,
      "chip": "ym2612"
    },
    {
      "channel": 4,
      "note": 64,
      "start": 66.6227,
      "duration": 0.0161,
      "velocity": 120,
      "chip": "ym2612"
    },
    {
      "channel": 3,
      "note": 71,
      "start": 66.6238,
      "duration": 0.0161,
      "velocity": 120,
      "chip": "ym2612"
    },
    {
      "channel": 2,
      "note": 47,
      "start": 66.6249,
      "duration": 0.0161,
      "velocity": 100,
      "chip": "ym2612"
    },
    {
      "channel": 0,
      "note": 40,
      "start": 66.6376,
      "duration": 0.0161,
      "velocity": 115,
      "chip": "ym2612"
    },
    {
      "channel": 4,
      "note": 64,
      "start": 66.6387,
      "duration": 0.0161,
      "velocity": 120,
      "chip": "ym2612"
    },
    {
      "channel": 3,
      "note": 71,
      "start": 66.6399,
      "duration": 0.0161,
      "velocity": 120,
      "chip": "ym2612"
    },
    {
      "channel": 2,
      "note": 47,
      "start": 66.641,
      "duration": 0.0161,
      "velocity": 100,
      "chip": "ym2612"
    },
    {
      "channel": 0,
      "note": 40,
      "start": 66.6537,
      "duration": 0.0161,
      "velocity": 115,
      "chip": "ym2612"
    },
    {
      "channel": 4,
      "note": 64,
      "start": 66.6548,
      "duration": 0.0161,
      "velocity": 120,
      "chip": "ym2612"
    },
    {
      "channel": 3,
      "note": 71,
      "start": 66.656,
      "duration": 0.0161,
      "velocity": 120,
      "chip": "ym2612"
    },
    {
      "channel": 2,
      "note": 47,
      "start": 66.6571,
      "duration": 0.0161,
      "velocity": 100,
      "chip": "ym2612"
    },
    {
      "channel": 0,
      "note": 40,
      "start": 66.6698,
      "duration": 0.0161,
      "velocity": 115,
      "chip": "ym2612"
    },
    {
      "channel": 4,
      "note": 64,
      "start": 66.6709,
      "duration": 0.0161,
      "velocity": 120,
      "chip": "ym2612"
    },
    {
      "channel": 3,
      "note": 71,
      "start": 66.6721,
      "duration": 0.0161,
      "velocity": 120,
      "chip": "ym2612"
    },
    {
      "channel": 2,
      "note": 47,
      "start": 66.6732,
      "duration": 0.0161,
      "velocity": 100,
      "chip": "ym2612"
    },
    {
      "channel": 0,
      "note": 41,
      "start": 66.6859,
      "duration": 0.0161,
      "velocity": 115,
      "chip": "ym2612"
    },
    {
      "channel": 4,
      "note": 64,
      "start": 66.687,
      "duration": 0.0163,
      "velocity": 120,
      "chip": "ym2612"
    },
    {
      "channel": 3,
      "note": 71,
      "start": 66.6882,
      "duration": 0.0166,
      "velocity": 120,
      "chip": "ym2612"
    },
    {
      "channel": 2,
      "note": 47,
      "start": 66.6893,
      "duration": 0.0169,
      "velocity": 100,
      "chip": "ym2612"
    },
    {
      "channel": 0,
      "note": 41,
      "start": 66.702,
      "duration": 0.0161,
      "velocity": 115,
      "chip": "ym2612"
    },
    {
      "channel": 4,
      "note": 71,
      "start": 66.7034,
      "duration": 0.0159,
      "velocity": 120,
      "chip": "ym2612"
    },
    {
      "channel": 3,
      "note": 78,
      "start": 66.7048,
      "duration": 0.0156,
      "velocity": 120,
      "chip": "ym2612"
    },
    {
      "channel": 2,
      "note": 47,
      "start": 66.7062,
      "duration": 0.0155,
      "velocity": 100,
      "chip": "ym2612"
    },
    {
      "channel": 0,
      "note": 42,
      "start": 66.7181,
      "duration": 0.0161,
      "velocity": 115,
      "chip": "ym2612"
    },
    {
      "channel": 4,
      "note": 71,
      "start": 66.7193,
      "duration": 0.0161,
      "velocity": 120,
      "chip": "ym2612"
    },
    {
      "channel": 3,
      "note": 78,
      "start": 66.7205,
      "duration": 0.016,
      "velocity": 120,
      "chip": "ym2612"
    },
    {
      "channel": 2,
      "note": 47,
      "start": 66.7217,
      "duration": 0.0159,
      "velocity": 100,
      "chip": "ym2612"
    },
    {
      "channel": 0,
      "note": 42,
      "start": 66.7342,
      "duration": 0.0161,
      "velocity": 115,
      "chip": "ym2612"
    },
    {
      "channel": 4,
      "note": 71,
      "start": 66.7354,
      "duration": 0.0161,
      "velocity": 120,
      "chip": "ym2612"
    },
    {
      "channel": 3,
      "note": 78,
      "start": 66.7365,
      "duration": 0.0161,
      "velocity": 120,
      "chip": "ym2612"
    },
    {
      "channel": 2,
      "note": 47,
      "start": 66.7376,
      "duration": 0.0161,
      "velocity": 100,
      "chip": "ym2612"
    },
    {
      "channel": 0,
      "note": 43,
      "start": 66.7503,
      "duration": 0.0161,
      "velocity": 115,
      "chip": "ym2612"
    },
    {
      "channel": 4,
      "note": 71,
      "start": 66.7515,
      "duration": 0.0161,
      "velocity": 120,
      "chip": "ym2612"
    },
    {
      "channel": 3,
      "note": 78,
      "start": 66.7526,
      "duration": 0.0161,
      "velocity": 120,
      "chip": "ym2612"
    },
    {
      "channel": 2,
      "note": 47,
      "start": 66.7537,
      "duration": 0.0161,
      "velocity": 100,
      "chip": "ym2612"
    },
    {
      "channel": 0,
      "note": 43,
      "start": 66.7664,
      "duration": 0.0161,
      "velocity": 115,
      "chip": "ym2612"
    },
    {
      "channel": 4,
      "note": 71,
      "start": 66.7676,
      "duration": 0.0161,
      "velocity": 120,
      "chip": "ym2612"
    },
    {
      "channel": 3,
      "note": 78,
      "start": 66.7687,
      "duration": 0.0161,
      "velocity": 120,
      "chip": "ym2612"
    },
    {
      "channel": 2,
      "note": 47,
      "start": 66.7698,
      "duration": 0.0161,
      "velocity": 100,
      "chip": "ym2612"
    },
    {
      "channel": 0,
      "note": 44,
      "start": 66.7825,
      "duration": 0.0161,
      "velocity": 115,
      "chip": "ym2612"
    },
    {
      "channel": 4,
      "note": 71,
      "start": 66.7837,
      "duration": 0.0161,
      "velocity": 120,
      "chip": "ym2612"
    },
    {
      "channel": 3,
      "note": 78,
      "start": 66.7848,
      "duration": 0.0161,
      "velocity": 120,
      "chip": "ym2612"
    },
    {
      "channel": 2,
      "note": 47,
      "start": 66.7859,
      "duration": 0.0161,
      "velocity": 100,
      "chip": "ym2612"
    },
    {
      "channel": 0,
      "note": 44,
      "start": 66.7986,
      "duration": 0.0161,
      "velocity": 115,
      "chip": "ym2612"
    },
    {
      "channel": 4,
      "note": 71,
      "start": 66.7998,
      "duration": 0.0161,
      "velocity": 120,
      "chip": "ym2612"
    },
    {
      "channel": 3,
      "note": 78,
      "start": 66.8009,
      "duration": 0.0161,
      "velocity": 120,
      "chip": "ym2612"
    },
    {
      "channel": 2,
      "note": 47,
      "start": 66.802,
      "duration": 0.0161,
      "velocity": 100,
      "chip": "ym2612"
    },
    {
      "channel": 0,
      "note": 44,
      "start": 66.8147,
      "duration": 0.0174,
      "velocity": 115,
      "chip": "ym2612"
    },
    {
      "channel": 4,
      "note": 71,
      "start": 66.8158,
      "duration": 0.0174,
      "velocity": 120,
      "chip": "ym2612"
    },
    {
      "channel": 3,
      "note": 78,
      "start": 66.817,
      "duration": 0.0174,
      "velocity": 120,
      "chip": "ym2612"
    },
    {
      "channel": 2,
      "note": 47,
      "start": 66.8181,
      "duration": 0.0173,
      "velocity": 100,
      "chip": "ym2612"
    },
    {
      "channel": 0,
      "note": 45,
      "start": 66.8321,
      "duration": 0.0167,
      "velocity": 115,
      "chip": "ym2612"
    },
    {
      "channel": 4,
      "note": 71,
      "start": 66.8332,
      "duration": 0.0167,
      "velocity": 120,
      "chip": "ym2612"
    },
    {
      "channel": 3,
      "note": 78,
      "start": 66.8344,
      "duration": 0.0167,
      "velocity": 120,
      "chip": "ym2612"
    },
    {
      "channel": 2,
      "note": 47,
      "start": 66.8354,
      "duration": 0.0167,
      "velocity": 100,
      "chip": "ym2612"
    },
    {
      "channel": 0,
      "note": 45,
      "start": 66.8487,
      "duration": 0.0163,
      "velocity": 115,
      "chip": "ym2612"
    },
    {
      "channel": 4,
      "note": 71,
      "start": 66.8499,
      "duration": 0.0163,
      "velocity": 120,
      "chip": "ym2612"
    },
    {
      "channel": 3,
      "note": 78,
      "start": 66.851,
      "duration": 0.0163,
      "velocity": 120,
      "chip": "ym2612"
    },
    {
      "channel": 2,
      "note": 47,
      "start": 66.8521,
      "duration": 0.0163,
      "velocity": 100,
      "chip": "ym2612"
    },
    {
      "channel": 0,
      "note": 46,
      "start": 66.865,
      "duration": 0.0144,
      "velocity": 115,
      "chip": "ym2612"
    },
    {
      "channel": 4,
      "note": 71,
      "start": 66.8661,
      "duration": 0.0144,
      "velocity": 120,
      "chip": "ym2612"
    },
    {
      "channel": 3,
      "note": 78,
      "start": 66.8673,
      "duration": 0.0144,
      "velocity": 120,
      "chip": "ym2612"
    },
    {
      "channel": 2,
      "note": 47,
      "start": 66.8684,
      "duration": 0.0144,
      "velocity": 100,
      "chip": "ym2612"
    },
    {
      "channel": 0,
      "note": 46,
      "start": 66.8795,
      "duration": 0.0202,
      "velocity": 124,
      "chip": "ym2612"
    },
    {
      "channel": 4,
      "note": 71,
      "start": 66.8806,
      "duration": 0.0205,
      "velocity": 120,
      "chip": "ym2612"
    },
    {
      "channel": 3,
      "note": 78,
      "start": 66.8817,
      "duration": 0.0208,
      "velocity": 120,
      "chip": "ym2612"
    },
    {
      "channel": 2,
      "note": 47,
      "start": 66.8828,
      "duration": 0.0211,
      "velocity": 100,
      "chip": "ym2612"
    },
    {
      "channel": 0,
      "note": 84,
      "start": 66.8998,
      "duration": 0.0144,
      "velocity": 124,
      "chip": "ym2612"
    },
    {
      "channel": 4,
      "note": 67,
      "start": 66.9011,
      "duration": 0.0142,
      "velocity": 120,
      "chip": "ym2612"
    },
    {
      "channel": 3,
      "note": 74,
      "start": 66.9025,
      "duration": 0.014,
      "velocity": 120,
      "chip": "ym2612"
    },
    {
      "channel": 2,
      "note": 47,
      "start": 66.904,
      "duration": 0.0137,
      "velocity": 100,
      "chip": "ym2612"
    },
    {
      "channel": 0,
      "note": 82,
      "start": 66.9141,
      "duration": 0.0156,
      "velocity": 124,
      "chip": "ym2612"
    },
    {
      "channel": 4,
      "note": 67,
      "start": 66.9153,
      "duration": 0.0156,
      "velocity": 120,
      "chip": "ym2612"
    },
    {
      "channel": 3,
      "note": 74,
      "start": 66.9165,
      "duration": 0.0155,
      "velocity": 120,
      "chip": "ym2612"
    },
    {
      "channel": 2,
      "note": 47,
      "start": 66.9177,
      "duration": 0.0155,
      "velocity": 100,
      "chip": "ym2612"
    },
    {
      "channel": 0,
      "note": 80,
      "start": 66.9298,
      "duration": 0.0137,
      "velocity": 124,
      "chip": "ym2612"
    },
    {
      "channel": 4,
      "note": 67,
      "start": 66.9309,
      "duration": 0.0141,
      "velocity": 120,
      "chip": "ym2612"
    },
    {
      "channel": 3,
      "note": 74,
      "start": 66.9321,
      "duration": 0.0141,
      "velocity": 120,
      "chip": "ym2612"
    },
    {
      "channel": 2,
      "note": 47,
      "start": 66.9332,
      "duration": 0.0141,
      "velocity": 100,
      "chip": "ym2612"
    },
    {
      "channel": 0,
      "note": 77,
      "start": 66.9435,
      "duration": 0.0161,
      "velocity": 124,
      "chip": "ym2612"
    },
    {
      "channel": 4,
      "note": 67,
      "start": 66.945,
      "duration": 0.0186,
      "velocity": 120,
      "chip": "ym2612"
    },
    {
      "channel": 3,
      "note": 74,
      "start": 66.9461,
      "duration": 0.0185,
      "velocity": 120,
      "chip": "ym2612"
    },
    {
      "channel": 2,
      "note": 47,
      "start": 66.9473,
      "duration": 0.0185,
      "velocity": 100,
      "chip": "ym2612"
    },
    {
      "channel": 0,
      "note": 75,
      "start": 66.9596,
      "duration": 0.0161,
      "velocity": 124,
      "chip": "ym2612"
    },
    {
      "channel": 4,
      "note": 67,
      "start": 66.9635,
      "duration": 0.0133,
      "velocity": 120,
      "chip": "ym2612"
    },
    {
      "channel": 3,
      "note": 74,
      "start": 66.9646,
      "duration": 0.0161,
      "velocity": 120,
      "chip": "ym2612"
    },
    {
      "channel": 2,
      "note": 47,
      "start": 66.9658,
      "duration": 0.0161,
      "velocity": 100,
      "chip": "ym2612"
    },
    {
      "channel": 0,
      "note": 72,
      "start": 66.9757,
      "duration": 0.0161,
      "velocity": 124,
      "chip": "ym2612"
    },
    {
      "channel": 4,
      "note": 67,
      "start": 66.9768,
      "duration": 0.0161,
      "velocity": 120,
      "chip": "ym2612"
    },
    {
      "channel": 3,
      "note": 74,
      "start": 66.9807,
      "duration": 0.0157,
      "velocity": 120,
      "chip": "ym2612"
    },
    {
      "channel": 2,
      "note": 47,
      "start": 66.9819,
      "duration": 0.0158,
      "velocity": 100,
      "chip": "ym2612"
    },
    {
      "channel": 0,
      "note": 70,
      "start": 66.9918,
      "duration": 0.0161,
      "velocity": 124,
      "chip": "ym2612"
    },
    {
      "channel": 4,
      "note": 67,
      "start": 66.9929,
      "duration": 0.0161,
      "velocity": 120,
      "chip": "ym2612"
    },
    {
      "channel": 3,
      "note": 74,
      "start": 66.9964,
      "duration": 0.0137,
      "velocity": 120,
      "chip": "ym2612"
    },
    {
      "channel": 2,
      "note": 47,
      "start": 66.9976,
      "duration": 0.014,
      "velocity": 100,
      "chip": "ym2612"
    },
    {
      "channel": 0,
      "note": 68,
      "start": 67.0079,
      "duration": 0.0161,
      "velocity": 124,
      "chip": "ym2612"
    },
    {
      "channel": 4,
      "note": 67,
      "start": 67.009,
      "duration": 0.0161,
      "velocity": 120,
      "chip": "ym2612"
    },
    {
      "channel": 3,
      "note": 74,
      "start": 67.0102,
      "duration": 0.0161,
      "velocity": 120,
      "chip": "ym2612"
    },
    {
      "channel": 2,
      "note": 47,
      "start": 67.0116,
      "duration": 0.0185,
      "velocity": 100,
      "chip": "ym2612"
    },
    {
      "channel": 0,
      "note": 65,
      "start": 67.024,
      "duration": 0.0161,
      "velocity": 124,
      "chip": "ym2612"
    },
    {
      "channel": 4,
      "note": 67,
      "start": 67.0251,
      "duration": 0.0162,
      "velocity": 120,
      "chip": "ym2612"
    },
    {
      "channel": 3,
      "note": 74,
      "start": 67.0263,
      "duration": 0.0161,
      "velocity": 120,
      "chip": "ym2612"
    },
    {
      "channel": 2,
      "note": 47,
      "start": 67.0302,
      "duration": 0.0134,
      "velocity": 100,
      "chip": "ym2612"
    },
    {
      "channel": 0,
      "note": 63,
      "start": 67.0401,
      "duration": 0.0153,
      "velocity": 1,
      "chip": "ym2612"
    },
    {
      "channel": 4,
      "note": 67,
      "start": 67.0413,
      "duration": 0.0153,
      "velocity": 120,
      "chip": "ym2612"
    },
    {
      "channel": 3,
      "note": 74,
      "start": 67.0424,
      "duration": 0.0153,
      "velocity": 120,
      "chip": "ym2612"
    },
    {
      "channel": 2,
      "note": 47,
      "start": 67.0435,
      "duration": 0.0153,
      "velocity": 100,
      "chip": "ym2612"
    },
    {
      "channel": 4,
      "note": 67,
      "start": 67.0566,
      "duration": 0.0153,
      "velocity": 120,
      "chip": "ym2612"
    },
    {
      "channel": 3,
      "note": 74,
      "start": 67.0577,
      "duration": 0.0153,
      "velocity": 120,
      "chip": "ym2612"
    },
    {
      "channel": 2,
      "note": 47,
      "start": 67.0588,
      "duration": 0.0153,
      "velocity": 100,
      "chip": "ym2612"
    },
    {
      "channel": 4,
      "note": 67,
      "start": 67.0718,
      "duration": 0.0198,
      "velocity": 120,
      "chip": "ym2612"
    },
    {
      "channel": 3,
      "note": 74,
      "start": 67.073,
      "duration": 0.02,
      "velocity": 120,
      "chip": "ym2612"
    },
    {
      "channel": 2,
      "note": 47,
      "start": 67.0741,
      "duration": 0.0231,
      "velocity": 100,
      "chip": "ym2612"
    },
    {
      "channel": 0,
      "note": 36,
      "start": 67.0902,
      "duration": 0.0144,
      "velocity": 115,
      "chip": "ym2612"
    },
    {
      "channel": 4,
      "note": 71,
      "start": 67.0917,
      "duration": 0.0141,
      "velocity": 120,
      "chip": "ym2612"
    },
    {
      "channel": 3,
      "note": 78,
      "start": 67.0931,
      "duration": 0.0139,
      "velocity": 120,
      "chip": "ym2612"
    },
    {
      "channel": 2,
      "note": 47,
      "start": 67.0973,
      "duration": 0.011,
      "velocity": 100,
      "chip": "ym2612"
    },
    {
      "channel": 0,
      "note": 36,
      "start": 67.1046,
      "duration": 0.016,
      "velocity": 115,
      "chip": "ym2612"
    },
    {
      "channel": 4,
      "note": 71,
      "start": 67.1058,
      "duration": 0.016,
      "velocity": 120,
      "chip": "ym2612"
    },
    {
      "channel": 3,
      "note": 78,
      "start": 67.107,
      "duration": 0.0159,
      "velocity": 120,
      "chip": "ym2612"
    },
    {
      "channel": 2,
      "note": 47,
      "start": 67.1082,
      "duration": 0.0158,
      "velocity": 100,
      "chip": "ym2612"
    },
    {
      "channel": 0,
      "note": 37,
      "start": 67.1206,
      "duration": 0.0161,
      "velocity": 115,
      "chip": "ym2612"
    },
    {
      "channel": 4,
      "note": 71,
      "start": 67.1217,
      "duration": 0.0161,
      "velocity": 120,
      "chip": "ym2612"
    },
    {
      "channel": 3,
      "note": 78,
      "start": 67.1229,
      "duration": 0.0161,
      "velocity": 120,
      "chip": "ym2612"
    },
    {
      "channel": 2,
      "note": 47,
      "start": 67.124,
      "duration": 0.0161,
      "velocity": 100,
      "chip": "ym2612"
    },
    {
      "channel": 0,
      "note": 37,
      "start": 67.1367,
      "duration": 0.0161,
      "velocity": 115,
      "chip": "ym2612"
    },
    {
      "channel": 4,
      "note": 71,
      "start": 67.1378,
      "duration": 0.0162,
      "velocity": 120,
      "chip": "ym2612"
    },
    {
      "channel": 3,
      "note": 78,
      "start": 67.139,
      "duration": 0.0161,
      "velocity": 120,
      "chip": "ym2612"
    },
    {
      "channel": 2,
      "note": 47,
      "start": 67.1401,
      "duration": 0.0161,
      "velocity": 100,
      "chip": "ym2612"
    },
    {
      "channel": 0,
      "note": 38,
      "start": 67.1528,
      "duration": 0.0161,
      "velocity": 115,
      "chip": "ym2612"
    },
    {
      "channel": 4,
      "note": 71,
      "start": 67.154,
      "duration": 0.0161,
      "velocity": 120,
      "chip": "ym2612"
    },
    {
      "channel": 3,
      "note": 78,
      "start": 67.1551,
      "duration": 0.0161,
      "velocity": 120,
      "chip": "ym2612"
    },
    {
      "channel": 2,
      "note": 47,
      "start": 67.1562,
      "duration": 0.0161,
      "velocity": 100,
      "chip": "ym2612"
    },
    {
      "channel": 0,
      "note": 38,
      "start": 67.1689,
      "duration": 0.0162,
      "velocity": 115,
      "chip": "ym2612"
    },
    {
      "channel": 4,
      "note": 71,
      "start": 67.1701,
      "duration": 0.0161,
      "velocity": 120,
      "chip": "ym2612"
    },
    {
      "channel": 3,
      "note": 78,
      "start": 67.1712,
      "duration": 0.0162,
      "velocity": 120,
      "chip": "ym2612"
    },
    {
      "channel": 2,
      "note": 47,
      "start": 67.1723,
      "duration": 0.0161,
      "velocity": 100,
      "chip": "ym2612"
    },
    {
      "channel": 0,
      "note": 39,
      "start": 67.1851,
      "duration": 0.0161,
      "velocity": 115,
      "chip": "ym2612"
    },
    {
      "channel": 4,
      "note": 71,
      "start": 67.1862,
      "duration": 0.0161,
      "velocity": 120,
      "chip": "ym2612"
    },
    {
      "channel": 3,
      "note": 78,
      "start": 67.1873,
      "duration": 0.0161,
      "velocity": 120,
      "chip": "ym2612"
    },
    {
      "channel": 2,
      "note": 47,
      "start": 67.1884,
      "duration": 0.0161,
      "velocity": 100,
      "chip": "ym2612"
    },
    {
      "channel": 0,
      "note": 39,
      "start": 67.2011,
      "duration": 0.0161,
      "velocity": 115,
      "chip": "ym2612"
    },
    {
      "channel": 4,
      "note": 71,
      "start": 67.2023,
      "duration": 0.0161,
      "velocity": 120,
      "chip": "ym2612"
    },
    {
      "channel": 3,
      "note": 78,
      "start": 67.2034,
      "duration": 0.0161,
      "velocity": 120,
      "chip": "ym2612"
    },
    {
      "channel": 2,
      "note": 47,
      "start": 67.2045,
      "duration": 0.0162,
      "velocity": 100,
      "chip": "ym2612"
    },
    {
      "channel": 0,
      "note": 40,
      "start": 67.2172,
      "duration": 0.0161,
      "velocity": 115,
      "chip": "ym2612"
    },
    {
      "channel": 4,
      "note": 71,
      "start": 67.2184,
      "duration": 0.0161,
      "velocity": 120,
      "chip": "ym2612"
    },
    {
      "channel": 3,
      "note": 78,
      "start": 67.2195,
      "duration": 0.0161,
      "velocity": 120,
      "chip": "ym2612"
    },
    {
      "channel": 2,
      "note": 47,
      "start": 67.2207,
      "duration": 0.0161,
      "velocity": 100,
      "chip": "ym2612"
    },
    {
      "channel": 0,
      "note": 40,
      "start": 67.2333,
      "duration": 0.0161,
      "velocity": 115,
      "chip": "ym2612"
    },
    {
      "channel": 4,
      "note": 71,
      "start": 67.2345,
      "duration": 0.0161,
      "velocity": 120,
      "chip": "ym2612"
    },
    {
      "channel": 3,
      "note": 78,
      "start": 67.2356,
      "duration": 0.0161,
      "velocity": 120,
      "chip": "ym2612"
    },
    {
      "channel": 2,
      "note": 47,
      "start": 67.2368,
      "duration": 0.0161,
      "velocity": 100,
      "chip": "ym2612"
    },
    {
      "channel": 0,
      "note": 40,
      "start": 67.2494,
      "duration": 0.0161,
      "velocity": 115,
      "chip": "ym2612"
    },
    {
      "channel": 4,
      "note": 71,
      "start": 67.2506,
      "duration": 0.0161,
      "velocity": 120,
      "chip": "ym2612"
    },
    {
      "channel": 3,
      "note": 78,
      "start": 67.2517,
      "duration": 0.0161,
      "velocity": 120,
      "chip": "ym2612"
    },
    {
      "channel": 2,
      "note": 47,
      "start": 67.2529,
      "duration": 0.0161,
      "velocity": 100,
      "chip": "ym2612"
    },
    {
      "channel": 0,
      "note": 41,
      "start": 67.2655,
      "duration": 0.0179,
      "velocity": 115,
      "chip": "ym2612"
    },
    {
      "channel": 4,
      "note": 71,
      "start": 67.2667,
      "duration": 0.0181,
      "velocity": 120,
      "chip": "ym2612"
    },
    {
      "channel": 3,
      "note": 78,
      "start": 67.2678,
      "duration": 0.0184,
      "velocity": 120,
      "chip": "ym2612"
    },
    {
      "channel": 2,
      "note": 47,
      "start": 67.269,
      "duration": 0.0187,
      "velocity": 100,
      "chip": "ym2612"
    },
    {
      "channel": 0,
      "note": 36,
      "start": 67.2834,
      "duration": 0.0154,
      "velocity": 115,
      "chip": "ym2612"
    },
    {
      "channel": 4,
      "note": 64,
      "start": 67.2849,
      "duration": 0.0151,
      "velocity": 120,
      "chip": "ym2612"
    },
    {
      "channel": 3,
      "note": 71,
      "start": 67.2862,
      "duration": 0.0149,
      "velocity": 120,
      "chip": "ym2612"
    },
    {
      "channel": 2,
      "note": 47,
      "start": 67.2877,
      "duration": 0.0147,
      "velocity": 100,
      "chip": "ym2612"
    },
    {
      "channel": 0,
      "note": 36,
      "start": 67.2988,
      "duration": 0.0166,
      "velocity": 115,
      "chip": "ym2612"
    },
    {
      "channel": 4,
      "note": 64,
      "start": 67.3,
      "duration": 0.0165,
      "velocity": 120,
      "chip": "ym2612"
    },
    {
      "channel": 3,
      "note": 71,
      "start": 67.3011,
      "duration": 0.0166,
      "velocity": 120,
      "chip": "ym2612"
    },
    {
      "channel": 2,
      "note": 47,
      "start": 67.3024,
      "duration": 0.0164,
      "velocity": 100,
      "chip": "ym2612"
    },
    {
      "channel": 0,
      "note": 37,
      "start": 67.3154,
      "duration": 0.0163,
      "velocity": 115,
      "chip": "ym2612"
    },
    {
      "channel": 4,
      "note": 64,
      "start": 67.3165,
      "duration": 0.0163,
      "velocity": 120,
      "chip": "ym2612"
    },
    {
      "channel": 3,
      "note": 71,
      "start": 67.3177,
      "duration": 0.0163,
      "velocity": 120,
      "chip": "ym2612"
    },
    {
      "channel": 2,
      "note": 47,
      "start": 67.3188,
      "duration": 0.0163,
      "velocity": 100,
      "chip": "ym2612"
    },
    {
      "channel": 0,
      "note": 37,
      "start": 67.3317,
      "duration": 0.0146,
      "velocity": 115,
      "chip": "ym2612"
    },
    {
      "channel": 4,
      "note": 64,
      "start": 67.3328,
      "duration": 0.0146,
      "velocity": 120,
      "chip": "ym2612"
    },
    {
      "channel": 3,
      "note": 71,
      "start": 67.334,
      "duration": 0.0146,
      "velocity": 120,
      "chip": "ym2612"
    },
    {
      "channel": 2,
      "note": 47,
      "start": 67.3351,
      "duration": 0.0146,
      "velocity": 100,
      "chip": "ym2612"
    },
    {
      "channel": 0,
      "note": 38,
      "start": 67.3463,
      "duration": 0.0186,
      "velocity": 115,
      "chip": "ym2612"
    },
    {
      "channel": 4,
      "note": 64,
      "start": 67.3475,
      "duration": 0.0186,
      "velocity": 120,
      "chip": "ym2612"
    },
    {
      "channel": 3,
      "note": 71,
      "start": 67.3486,
      "duration": 0.0186,
      "velocity": 120,
      "chip": "ym2612"
    },
    {
      "channel": 2,
      "note": 47,
      "start": 67.3497,
      "duration": 0.0186,
      "velocity": 100,
      "chip": "ym2612"
    },
    {
      "channel": 0,
      "note": 38,
      "start": 67.3649,
      "duration": 0.0161,
      "velocity": 115,
      "chip": "ym2612"
    },
    {
      "channel": 4,
      "note": 64,
      "start": 67.366,
      "duration": 0.0161,
      "velocity": 120,
      "chip": "ym2612"
    },
    {
      "channel": 3,
      "note": 71,
      "start": 67.3672,
      "duration": 0.0161,
      "velocity": 120,
      "chip": "ym2612"
    },
    {
      "channel": 2,
      "note": 47,
      "start": 67.3683,
      "duration": 0.0161,
      "velocity": 100,
      "chip": "ym2612"
    },
    {
      "channel": 0,
      "note": 39,
      "start": 67.381,
      "duration": 0.0158,
      "velocity": 115,
      "chip": "ym2612"
    },
    {
      "channel": 4,
      "note": 64,
      "start": 67.3821,
      "duration": 0.0158,
      "velocity": 120,
      "chip": "ym2612"
    },
    {
      "channel": 3,
      "note": 71,
      "start": 67.3833,
      "duration": 0.0158,
      "velocity": 120,
      "chip": "ym2612"
    },
    {
      "channel": 2,
      "note": 47,
      "start": 67.3844,
      "duration": 0.0157,
      "velocity": 100,
      "chip": "ym2612"
    },
    {
      "channel": 0,
      "note": 39,
      "start": 67.3968,
      "duration": 0.0137,
      "velocity": 115,
      "chip": "ym2612"
    },
    {
      "channel": 4,
      "note": 64,
      "start": 67.3979,
      "duration": 0.014,
      "velocity": 120,
      "chip": "ym2612"
    },
    {
      "channel": 3,
      "note": 71,
      "start": 67.399,
      "duration": 0.014,
      "velocity": 120,
      "chip": "ym2612"
    },
    {
      "channel": 2,
      "note": 47,
      "start": 67.4001,
      "duration": 0.0141,
      "velocity": 100,
      "chip": "ym2612"
    },
    {
      "channel": 0,
      "note": 40,
      "start": 67.4104,
      "duration": 0.0161,
      "velocity": 115,
      "chip": "ym2612"
    },
    {
      "channel": 4,
      "note": 64,
      "start": 67.4119,
      "duration": 0.0185,
      "velocity": 120,
      "chip": "ym2612"
    },
    {
      "channel": 3,
      "note": 71,
      "start": 67.413,
      "duration": 0.0185,
      "velocity": 120,
      "chip": "ym2612"
    },
    {
      "channel": 2,
      "note": 47,
      "start": 67.4142,
      "duration": 0.0185,
      "velocity": 100,
      "chip": "ym2612"
    },
    {
      "channel": 0,
      "note": 40,
      "start": 67.4265,
      "duration": 0.0161,
      "velocity": 115,
      "chip": "ym2612"
    },
    {
      "channel": 4,
      "note": 64,
      "start": 67.4304,
      "duration": 0.0134,
      "velocity": 120,
      "chip": "ym2612"
    },
    {
      "channel": 3,
      "note": 71,
      "start": 67.4315,
      "duration": 0.0161,
      "velocity": 120,
      "chip": "ym2612"
    },
    {
      "channel": 2,
      "note": 47,
      "start": 67.4327,
      "duration": 0.0161,
      "velocity": 100,
      "chip": "ym2612"
    },
    {
      "channel": 0,
      "note": 40,
      "start": 67.4426,
      "duration": 0.0161,
      "velocity": 115,
      "chip": "ym2612"
    },
    {
      "channel": 4,
      "note": 64,
      "start": 67.4438,
      "duration": 0.0161,
      "velocity": 120,
      "chip": "ym2612"
    },
    {
      "channel": 3,
      "note": 71,
      "start": 67.4476,
      "duration": 0.0158,
      "velocity": 120,
      "chip": "ym2612"
    },
    {
      "channel": 2,
      "note": 47,
      "start": 67.4488,
      "duration": 0.0157,
      "velocity": 100,
      "chip": "ym2612"
    },
    {
      "channel": 0,
      "note": 41,
      "start": 67.4587,
      "duration": 0.0179,
      "velocity": 115,
      "chip": "ym2612"
    },
    {
      "channel": 4,
      "note": 64,
      "start": 67.4599,
      "duration": 0.0184,
      "velocity": 120,
      "chip": "ym2612"
    },
    {
      "channel": 3,
      "note": 71,
      "start": 67.4634,
      "duration": 0.0163,
      "velocity": 120,
      "chip": "ym2612"
    },
    {
      "channel": 2,
      "note": 47,
      "start": 67.4645,
      "duration": 0.0167,
      "velocity": 100,
      "chip": "ym2612"
    },
    {
      "channel": 0,
      "note": 36,
      "start": 67.4766,
      "duration": 0.0144,
      "velocity": 115,
      "chip": "ym2612"
    },
    {
      "channel": 4,
      "note": 67,
      "start": 67.4784,
      "duration": 0.0139,
      "velocity": 120,
      "chip": "ym2612"
    },
    {
      "channel": 3,
      "note": 74,
      "start": 67.4798,
      "duration": 0.0136,
      "velocity": 120,
      "chip": "ym2612"
    },
    {
      "channel": 2,
      "note": 47,
      "start": 67.4812,
      "duration": 0.0161,
      "velocity": 100,
      "chip": "ym2612"
    },
    {
      "channel": 0,
      "note": 36,
      "start": 67.491,
      "duration": 0.016,
      "velocity": 115,
      "chip": "ym2612"
    },
    {
      "channel": 4,
      "note": 67,
      "start": 67.4922,
      "duration": 0.016,
      "velocity": 120,
      "chip": "ym2612"
    },
    {
      "channel": 3,
      "note": 74,
      "start": 67.4934,
      "duration": 0.016,
      "velocity": 120,
      "chip": "ym2612"
    },
    {
      "channel": 2,
      "note": 47,
      "start": 67.4973,
      "duration": 0.0132,
      "velocity": 100,
      "chip": "ym2612"
    },
    {
      "channel": 0,
      "note": 37,
      "start": 67.5071,
      "duration": 0.0161,
      "velocity": 115,
      "chip": "ym2612"
    },
    {
      "channel": 4,
      "note": 67,
      "start": 67.5082,
      "duration": 0.0161,
      "velocity": 120,
      "chip": "ym2612"
    },
    {
      "channel": 3,
      "note": 74,
      "start": 67.5093,
      "duration": 0.0161,
      "velocity": 120,
      "chip": "ym2612"
    },
    {
      "channel": 2,
      "note": 47,
      "start": 67.5105,
      "duration": 0.0161,
      "velocity": 100,
      "chip": "ym2612"
    },
    {
      "channel": 0,
      "note": 37,
      "start": 67.5232,
      "duration": 0.0161,
      "velocity": 115,
      "chip": "ym2612"
    },
    {
      "channel": 4,
      "note": 67,
      "start": 67.5243,
      "duration": 0.0161,
      "velocity": 120,
      "chip": "ym2612"
    },
    {
      "channel": 3,
      "note": 74,
      "start": 67.5254,
      "duration": 0.0161,
      "velocity": 120,
      "chip": "ym2612"
    },
    {
      "channel": 2,
      "note": 47,
      "start": 67.5266,
      "duration": 0.0161,
      "velocity": 100,
      "chip": "ym2612"
    },
    {
      "channel": 0,
      "note": 38,
      "start": 67.5393,
      "duration": 0.0161,
      "velocity": 115,
      "chip": "ym2612"
    },
    {
      "channel": 4,
      "note": 67,
      "start": 67.5404,
      "duration": 0.0161,
      "velocity": 120,
      "chip": "ym2612"
    },
    {
      "channel": 3,
      "note": 74,
      "start": 67.5415,
      "duration": 0.0161,
      "velocity": 120,
      "chip": "ym2612"
    },
    {
      "channel": 2,
      "note": 47,
      "start": 67.5427,
      "duration": 0.0161,
      "velocity": 100,
      "chip": "ym2612"
    },
    {
      "channel": 0,
      "note": 38,
      "start": 67.5554,
      "duration": 0.0161,
      "velocity": 115,
      "chip": "ym2612"
    },
    {
      "channel": 4,
      "note": 67,
      "start": 67.5565,
      "duration": 0.0161,
      "velocity": 120,
      "chip": "ym2612"
    },
    {
      "channel": 3,
      "note": 74,
      "start": 67.5576,
      "duration": 0.0161,
      "velocity": 120,
      "chip": "ym2612"
    },
    {
      "channel": 2,
      "note": 47,
      "start": 67.5588,
      "duration": 0.0161,
      "velocity": 100,
      "chip": "ym2612"
    },
    {
      "channel": 0,
      "note": 39,
      "start": 67.5714,
      "duration": 0.0161,
      "velocity": 115,
      "chip": "ym2612"
    },
    {
      "channel": 4,
      "note": 67,
      "start": 67.5726,
      "duration": 0.0161,
      "velocity": 120,
      "chip": "ym2612"
    },
    {
      "channel": 3,
      "note": 74,
      "start": 67.5737,
      "duration": 0.0161,
      "velocity": 120,
      "chip": "ym2612"
    },
    {
      "channel": 2,
      "note": 47,
      "start": 67.5749,
      "duration": 0.0161,
      "velocity": 100,
      "chip": "ym2612"
    },
    {
      "channel": 0,
      "note": 39,
      "start": 67.5875,
      "duration": 0.0161,
      "velocity": 115,
      "chip": "ym2612"
    },
    {
      "channel": 4,
      "note": 67,
      "start": 67.5887,
      "duration": 0.0161,
      "velocity": 120,
      "chip": "ym2612"
    },
    {
      "channel": 3,
      "note": 74,
      "start": 67.5898,
      "duration": 0.0161,
      "velocity": 120,
      "chip": "ym2612"
    },
    {
      "channel": 2,
      "note": 47,
      "start": 67.591,
      "duration": 0.0161,
      "velocity": 100,
      "chip": "ym2612"
    },
    {
      "channel": 0,
      "note": 40,
      "start": 67.6036,
      "duration": 0.0161,
      "velocity": 115,
      "chip": "ym2612"
    },
    {
      "channel": 4,
      "note": 67,
      "start": 67.6048,
      "duration": 0.0162,
      "velocity": 120,
      "chip": "ym2612"
    },
    {
      "channel": 3,
      "note": 74,
      "start": 67.6059,
      "duration": 0.0161,
      "velocity": 120,
      "chip": "ym2612"
    },
    {
      "channel": 2,
      "note": 47,
      "start": 67.6071,
      "duration": 0.0161,
      "velocity": 100,
      "chip": "ym2612"
    },
    {
      "channel": 0,
      "note": 40,
      "start": 67.6197,
      "duration": 0.0161,
      "velocity": 115,
      "chip": "ym2612"
    },
    {
      "channel": 4,
      "note": 67,
      "start": 67.6209,
      "duration": 0.0161,
      "velocity": 120,
      "chip": "ym2612"
    },
    {
      "channel": 3,
      "note": 74,
      "start": 67.6221,
      "duration": 0.0161,
      "velocity": 120,
      "chip": "ym2612"
    },
    {
      "channel": 2,
      "note": 47,
      "start": 67.6232,
      "duration": 0.0161,
      "velocity": 100,
      "chip": "ym2612"
    },
    {
      "channel": 0,
      "note": 40,
      "start": 67.6359,
      "duration": 0.0161,
      "velocity": 115,
      "chip": "ym2612"
    },
    {
      "channel": 4,
      "note": 67,
      "start": 67.637,
      "duration": 0.0161,
      "velocity": 120,
      "chip": "ym2612"
    },
    {
      "channel": 3,
      "note": 74,
      "start": 67.6382,
      "duration": 0.0161,
      "velocity": 120,
      "chip": "ym2612"
    },
    {
      "channel": 2,
      "note": 47,
      "start": 67.6393,
      "duration": 0.0161,
      "velocity": 100,
      "chip": "ym2612"
    },
    {
      "channel": 0,
      "note": 41,
      "start": 67.652,
      "duration": 0.0178,
      "velocity": 124,
      "chip": "ym2612"
    },
    {
      "channel": 4,
      "note": 67,
      "start": 67.6531,
      "duration": 0.0181,
      "velocity": 120,
      "chip": "ym2612"
    },
    {
      "channel": 3,
      "note": 74,
      "start": 67.6543,
      "duration": 0.0184,
      "velocity": 120,
      "chip": "ym2612"
    },
    {
      "channel": 2,
      "note": 47,
      "start": 67.6554,
      "duration": 0.0188,
      "velocity": 100,
      "chip": "ym2612"
    },
    {
      "channel": 0,
      "note": 84,
      "start": 67.6698,
      "duration": 0.0144,
      "velocity": 124,
      "chip": "ym2612"
    },
    {
      "channel": 4,
      "note": 71,
      "start": 67.6712,
      "duration": 0.0142,
      "velocity": 120,
      "chip": "ym2612"
    },
    {
      "channel": 3,
      "note": 78,
      "start": 67.6727,
      "duration": 0.014,
      "velocity": 120,
      "chip": "ym2612"
    },
    {
      "channel": 2,
      "note": 47,
      "start": 67.6741,
      "duration": 0.0137,
      "velocity": 100,
      "chip": "ym2612"
    },
    {
      "channel": 0,
      "note": 82,
      "start": 67.6842,
      "duration": 0.016,
      "velocity": 124,
      "chip": "ym2612"
    },
    {
      "channel": 4,
      "note": 71,
      "start": 67.6854,
      "duration": 0.016,
      "velocity": 120,
      "chip": "ym2612"
    },
    {
      "channel": 3,
      "note": 78,
      "start": 67.6866,
      "duration": 0.0159,
      "velocity": 120,
      "chip": "ym2612"
    },
    {
      "channel": 2,
      "note": 47,
      "start": 67.6878,
      "duration": 0.0159,
      "velocity": 100,
      "chip": "ym2612"
    },
    {
      "channel": 0,
      "note": 80,
      "start": 67.7002,
      "duration": 0.0161,
      "velocity": 124,
      "chip": "ym2612"
    },
    {
      "channel": 4,
      "note": 71,
      "start": 67.7014,
      "duration": 0.0161,
      "velocity": 120,
      "chip": "ym2612"
    },
    {
      "channel": 3,
      "note": 78,
      "start": 67.7025,
      "duration": 0.0161,
      "velocity": 120,
      "chip": "ym2612"
    },
    {
      "channel": 2,
      "note": 47,
      "start": 67.7037,
      "duration": 0.0161,
      "velocity": 100,
      "chip": "ym2612"
    },
    {
      "channel": 0,
      "note": 77,
      "start": 67.7163,
      "duration": 0.0161,
      "velocity": 124,
      "chip": "ym2612"
    },
    {
      "channel": 4,
      "note": 71,
      "start": 67.7176,
      "duration": 0.0161,
      "velocity": 120,
      "chip": "ym2612"
    },
    {
      "channel": 3,
      "note": 78,
      "start": 67.7186,
      "duration": 0.0161,
      "velocity": 120,
      "chip": "ym2612"
    },
    {
      "channel": 2,
      "note": 47,
      "start": 67.7198,
      "duration": 0.0161,
      "velocity": 100,
      "chip": "ym2612"
    },
    {
      "channel": 0,
      "note": 75,
      "start": 67.7324,
      "duration": 0.0161,
      "velocity": 124,
      "chip": "ym2612"
    },
    {
      "channel": 4,
      "note": 71,
      "start": 67.7337,
      "duration": 0.0161,
      "velocity": 120,
      "chip": "ym2612"
    },
    {
      "channel": 3,
      "note": 78,
      "start": 67.7347,
      "duration": 0.0161,
      "velocity": 120,
      "chip": "ym2612"
    },
    {
      "channel": 2,
      "note": 47,
      "start": 67.7359,
      "duration": 0.0161,
      "velocity": 100,
      "chip": "ym2612"
    },
    {
      "channel": 0,
      "note": 72,
      "start": 67.7485,
      "duration": 0.0169,
      "velocity": 124,
      "chip": "ym2612"
    },
    {
      "channel": 4,
      "note": 71,
      "start": 67.7498,
      "duration": 0.0168,
      "velocity": 120,
      "chip": "ym2612"
    },
    {
      "channel": 3,
      "note": 78,
      "start": 67.7508,
      "duration": 0.0169,
      "velocity": 120,
      "chip": "ym2612"
    },
    {
      "channel": 2,
      "note": 47,
      "start": 67.752,
      "duration": 0.0168,
      "velocity": 100,
      "chip": "ym2612"
    },
    {
      "channel": 0,
      "note": 70,
      "start": 67.7654,
      "duration": 0.0167,
      "velocity": 124,
      "chip": "ym2612"
    },
    {
      "channel": 4,
      "note": 71,
      "start": 67.7665,
      "duration": 0.0167,
      "velocity": 120,
      "chip": "ym2612"
    },
    {
      "channel": 3,
      "note": 78,
      "start": 67.7677,
      "duration": 0.0167,
      "velocity": 120,
      "chip": "ym2612"
    },
    {
      "channel": 2,
      "note": 47,
      "start": 67.7688,
      "duration": 0.0166,
      "velocity": 100,
      "chip": "ym2612"
    },
    {
      "channel": 0,
      "note": 68,
      "start": 67.7821,
      "duration": 0.0163,
      "velocity": 124,
      "chip": "ym2612"
    },
    {
      "channel": 4,
      "note": 71,
      "start": 67.7832,
      "duration": 0.0163,
      "velocity": 120,
      "chip": "ym2612"
    },
    {
      "channel": 3,
      "note": 78,
      "start": 67.7844,
      "duration": 0.0163,
      "velocity": 120,
      "chip": "ym2612"
    },
    {
      "channel": 2,
      "note": 47,
      "start": 67.7854,
      "duration": 0.0163,
      "velocity": 100,
      "chip": "ym2612"
    },
    {
      "channel": 0,
      "note": 65,
      "start": 67.7983,
      "duration": 0.0147,
      "velocity": 124,
      "chip": "ym2612"
    },
    {
      "channel": 4,
      "note": 71,
      "start": 67.7995,
      "duration": 0.0147,
      "velocity": 120,
      "chip": "ym2612"
    },
    {
      "channel": 3,
      "note": 78,
      "start": 67.8006,
      "duration": 0.0147,
      "velocity": 120,
      "chip": "ym2612"
    },
    {
      "channel": 2,
      "note": 47,
      "start": 67.8018,
      "duration": 0.0147,
      "velocity": 100,
      "chip": "ym2612"
    },
    {
      "channel": 0,
      "note": 63,
      "start": 67.813,
      "duration": 0.018,
      "velocity": 1,
      "chip": "ym2612"
    },
    {
      "channel": 4,
      "note": 71,
      "start": 67.8142,
      "duration": 0.018,
      "velocity": 120,
      "chip": "ym2612"
    },
    {
      "channel": 3,
      "note": 78,
      "start": 67.8153,
      "duration": 0.018,
      "velocity": 120,
      "chip": "ym2612"
    },
    {
      "channel": 2,
      "note": 47,
      "start": 67.8165,
      "duration": 0.0179,
      "velocity": 100,
      "chip": "ym2612"
    },
    {
      "channel": 4,
      "note": 71,
      "start": 67.8322,
      "duration": 0.0152,
      "velocity": 120,
      "chip": "ym2612"
    },
    {
      "channel": 3,
      "note": 78,
      "start": 67.8333,
      "duration": 0.0152,
      "velocity": 120,
      "chip": "ym2612"
    },
    {
      "channel": 2,
      "note": 47,
      "start": 67.8344,
      "duration": 0.0153,
      "velocity": 100,
      "chip": "ym2612"
    },
    {
      "channel": 4,
      "note": 71,
      "start": 67.8474,
      "duration": 0.016,
      "velocity": 120,
      "chip": "ym2612"
    },
    {
      "channel": 3,
      "note": 78,
      "start": 67.8485,
      "duration": 0.0162,
      "velocity": 120,
      "chip": "ym2612"
    },
    {
      "channel": 2,
      "note": 47,
      "start": 67.8497,
      "duration": 0.0165,
      "velocity": 100,
      "chip": "ym2612"
    },
    {
      "channel": 4,
      "note": 67,
      "start": 67.8634,
      "duration": 0.0135,
      "velocity": 120,
      "chip": "ym2612"
    },
    {
      "channel": 3,
      "note": 74,
      "start": 67.8648,
      "duration": 0.0136,
      "velocity": 120,
      "chip": "ym2612"
    },
    {
      "channel": 2,
      "note": 47,
      "start": 67.8663,
      "duration": 0.0134,
      "velocity": 100,
      "chip": "ym2612"
    },
    {
      "channel": 4,
      "note": 67,
      "start": 67.8769,
      "duration": 0.0161,
      "velocity": 120,
      "chip": "ym2612"
    },
    {
      "channel": 3,
      "note": 74,
      "start": 67.8784,
      "duration": 0.0184,
      "velocity": 120,
      "chip": "ym2612"
    },
    {
      "channel": 2,
      "note": 47,
      "start": 67.8796,
      "duration": 0.0184,
      "velocity": 100,
      "chip": "ym2612"
    },
    {
      "channel": 4,
      "note": 67,
      "start": 67.893,
      "duration": 0.0161,
      "velocity": 120,
      "chip": "ym2612"
    },
    {
      "channel": 3,
      "note": 74,
      "start": 67.8969,
      "duration": 0.0134,
      "velocity": 120,
      "chip": "ym2612"
    },
    {
      "channel": 2,
      "note": 47,
      "start": 67.898,
      "duration": 0.0161,
      "velocity": 100,
      "chip": "ym2612"
    },
    {
      "channel": 4,
      "note": 67,
      "start": 67.9091,
      "duration": 0.0161,
      "velocity": 120,
      "chip": "ym2612"
    },
    {
      "channel": 3,
      "note": 74,
      "start": 67.9102,
      "duration": 0.0161,
      "velocity": 120,
      "chip": "ym2612"
    },
    {
      "channel": 2,
      "note": 47,
      "start": 67.9141,
      "duration": 0.0157,
      "velocity": 100,
      "chip": "ym2612"
    },
    {
      "channel": 4,
      "note": 67,
      "start": 67.9252,
      "duration": 0.0161,
      "velocity": 120,
      "chip": "ym2612"
    },
    {
      "channel": 3,
      "note": 74,
      "start": 67.9263,
      "duration": 0.0161,
      "velocity": 120,
      "chip": "ym2612"
    },
    {
      "channel": 2,
      "note": 47,
      "start": 67.9298,
      "duration": 0.0137,
      "velocity": 100,
      "chip": "ym2612"
    },
    {
      "channel": 4,
      "note": 67,
      "start": 67.9413,
      "duration": 0.0161,
      "velocity": 120,
      "chip": "ym2612"
    },
    {
      "channel": 3,
      "note": 74,
      "start": 67.9424,
      "duration": 0.0161,
      "velocity": 120,
      "chip": "ym2612"
    },
    {
      "channel": 2,
      "note": 47,
      "start": 67.9436,
      "duration": 0.0161,
      "velocity": 100,
      "chip": "ym2612"
    },
    {
      "channel": 4,
      "note": 67,
      "start": 67.9574,
      "duration": 0.0161,
      "velocity": 120,
      "chip": "ym2612"
    },
    {
      "channel": 3,
      "note": 74,
      "start": 67.9585,
      "duration": 0.0161,
      "velocity": 120,
      "chip": "ym2612"
    },
    {
      "channel": 2,
      "note": 47,
      "start": 67.9597,
      "duration": 0.0161,
      "velocity": 100,
      "chip": "ym2612"
    },
    {
      "channel": 4,
      "note": 67,
      "start": 67.9735,
      "duration": 0.0161,
      "velocity": 120,
      "chip": "ym2612"
    },
    {
      "channel": 3,
      "note": 74,
      "start": 67.9746,
      "duration": 0.0161,
      "velocity": 120,
      "chip": "ym2612"
    },
    {
      "channel": 2,
      "note": 47,
      "start": 67.9758,
      "duration": 0.0161,
      "velocity": 100,
      "chip": "ym2612"
    },
    {
      "channel": 4,
      "note": 67,
      "start": 67.9896,
      "duration": 0.0161,
      "velocity": 120,
      "chip": "ym2612"
    },
    {
      "channel": 3,
      "note": 74,
      "start": 67.9907,
      "duration": 0.0161,
      "velocity": 120,
      "chip": "ym2612"
    },
    {
      "channel": 2,
      "note": 47,
      "start": 67.9919,
      "duration": 0.0161,
      "velocity": 100,
      "chip": "ym2612"
    },
    {
      "channel": 4,
      "note": 67,
      "start": 68.0057,
      "duration": 0.0161,
      "velocity": 120,
      "chip": "ym2612"
    },
    {
      "channel": 3,
      "note": 74,
      "start": 68.0068,
      "duration": 0.0161,
      "velocity": 120,
      "chip": "ym2612"
    },
    {
      "channel": 2,
      "note": 47,
      "start": 68.008,
      "duration": 0.0161,
      "velocity": 100,
      "chip": "ym2612"
    },
    {
      "channel": 4,
      "note": 67,
      "start": 68.0217,
      "duration": 0.0162,
      "velocity": 120,
      "chip": "ym2612"
    },
    {
      "channel": 3,
      "note": 74,
      "start": 68.0229,
      "duration": 0.0161,
      "velocity": 120,
      "chip": "ym2612"
    },
    {
      "channel": 2,
      "note": 47,
      "start": 68.024,
      "duration": 0.0161,
      "velocity": 100,
      "chip": "ym2612"
    },
    {
      "channel": 4,
      "note": 67,
      "start": 68.0379,
      "duration": 0.0211,
      "velocity": 120,
      "chip": "ym2612"
    },
    {
      "channel": 3,
      "note": 74,
      "start": 68.039,
      "duration": 0.0251,
      "velocity": 120,
      "chip": "ym2612"
    },
    {
      "channel": 2,
      "note": 47,
      "start": 68.0401,
      "duration": 0.0256,
      "velocity": 100,
      "chip": "ym2612"
    },
    {
      "channel": 0,
      "note": 36,
      "start": 68.0562,
      "duration": 0.0144,
      "velocity": 115,
      "chip": "ym2612"
    },
    {
      "channel": 4,
      "note": 64,
      "start": 68.0591,
      "duration": 0.0127,
      "velocity": 120,
      "chip": "ym2612"
    },
    {
      "channel": 3,
      "note": 71,
      "start": 68.0642,
      "duration": 0.0088,
      "velocity": 120,
      "chip": "ym2612"
    },
    {
      "channel": 2,
      "note": 47,
      "start": 68.0658,
      "duration": 0.0085,
      "velocity": 100,
      "chip": "ym2612"
    },
    {
      "channel": 0,
      "note": 36,
      "start": 68.0706,
      "duration": 0.0161,
      "velocity": 115,
      "chip": "ym2612"
    },
    {
      "channel": 4,
      "note": 64,
      "start": 68.0718,
      "duration": 0.016,
      "velocity": 120,
      "chip": "ym2612"
    },
    {
      "channel": 3,
      "note": 71,
      "start": 68.073,
      "duration": 0.016,
      "velocity": 120,
      "chip": "ym2612"
    },
    {
      "channel": 2,
      "note": 47,
      "start": 68.0742,
      "duration": 0.0158,
      "velocity": 100,
      "chip": "ym2612"
    },
    {
      "channel": 0,
      "note": 37,
      "start": 68.0867,
      "duration": 0.0161,
      "velocity": 115,
      "chip": "ym2612"
    },
    {
      "channel": 4,
      "note": 64,
      "start": 68.0878,
      "duration": 0.0161,
      "velocity": 120,
      "chip": "ym2612"
    },
    {
      "channel": 3,
      "note": 71,
      "start": 68.089,
      "duration": 0.0161,
      "velocity": 120,
      "chip": "ym2612"
    },
    {
      "channel": 2,
      "note": 47,
      "start": 68.0901,
      "duration": 0.0161,
      "velocity": 100,
      "chip": "ym2612"
    },
    {
      "channel": 0,
      "note": 37,
      "start": 68.1028,
      "duration": 0.0161,
      "velocity": 115,
      "chip": "ym2612"
    },
    {
      "channel": 4,
      "note": 64,
      "start": 68.1039,
      "duration": 0.0161,
      "velocity": 120,
      "chip": "ym2612"
    },
    {
      "channel": 3,
      "note": 71,
      "start": 68.1051,
      "duration": 0.0161,
      "velocity": 120,
      "chip": "ym2612"
    },
    {
      "channel": 2,
      "note": 47,
      "start": 68.1062,
      "duration": 0.0162,
      "velocity": 100,
      "chip": "ym2612"
    },
    {
      "channel": 0,
      "note": 38,
      "start": 68.1189,
      "duration": 0.0161,
      "velocity": 115,
      "chip": "ym2612"
    },
    {
      "channel": 4,
      "note": 64,
      "start": 68.12,
      "duration": 0.0161,
      "velocity": 120,
      "chip": "ym2612"
    },
    {
      "channel": 3,
      "note": 71,
      "start": 68.1212,
      "duration": 0.0161,
      "velocity": 120,
      "chip": "ym2612"
    },
    {
      "channel": 2,
      "note": 47,
      "start": 68.1223,
      "duration": 0.0161,
      "velocity": 100,
      "chip": "ym2612"
    },
    {
      "channel": 0,
      "note": 38,
      "start": 68.135,
      "duration": 0.0161,
      "velocity": 115,
      "chip": "ym2612"
    },
    {
      "channel": 4,
      "note": 64,
      "start": 68.1361,
      "duration": 0.0161,
      "velocity": 120,
      "chip": "ym2612"
    },
    {
      "channel": 3,
      "note": 71,
      "start": 68.1373,
      "duration": 0.0161,
      "velocity": 120,
      "chip": "ym2612"
    },
    {
      "channel": 2,
      "note": 47,
      "start": 68.1384,
      "duration": 0.0161,
      "velocity": 100,
      "chip": "ym2612"
    },
    {
      "channel": 0,
      "note": 39,
      "start": 68.1511,
      "duration": 0.0161,
      "velocity": 115,
      "chip": "ym2612"
    },
    {
      "channel": 4,
      "note": 64,
      "start": 68.1522,
      "duration": 0.0161,
      "velocity": 120,
      "chip": "ym2612"
    },
    {
      "channel": 3,
      "note": 71,
      "start": 68.1534,
      "duration": 0.0161,
      "velocity": 120,
      "chip": "ym2612"
    },
    {
      "channel": 2,
      "note": 47,
      "start": 68.1545,
      "duration": 0.0161,
      "velocity": 100,
      "chip": "ym2612"
    },
    {
      "channel": 0,
      "note": 39,
      "start": 68.1672,
      "duration": 0.0161,
      "velocity": 115,
      "chip": "ym2612"
    },
    {
      "channel": 4,
      "note": 64,
      "start": 68.1683,
      "duration": 0.0161,
      "velocity": 120,
      "chip": "ym2612"
    },
    {
      "channel": 3,
      "note": 71,
      "start": 68.1695,
      "duration": 0.0161,
      "velocity": 120,
      "chip": "ym2612"
    },
    {
      "channel": 2,
      "note": 47,
      "start": 68.1706,
      "duration": 0.0161,
      "velocity": 100,
      "chip": "ym2612"
    },
    {
      "channel": 0,
      "note": 40,
      "start": 68.1833,
      "duration": 0.0161,
      "velocity": 115,
      "chip": "ym2612"
    },
    {
      "channel": 4,
      "note": 64,
      "start": 68.1844,
      "duration": 0.0161,
      "velocity": 120,
      "chip": "ym2612"
    },
    {
      "channel": 3,
      "note": 71,
      "start": 68.1856,
      "duration": 0.0161,
      "velocity": 120,
      "chip": "ym2612"
    },
    {
      "channel": 2,
      "note": 47,
      "start": 68.1867,
      "duration": 0.0161,
      "velocity": 100,
      "chip": "ym2612"
    },
    {
      "channel": 0,
      "note": 40,
      "start": 68.1994,
      "duration": 0.0161,
      "velocity": 115,
      "chip": "ym2612"
    },
    {
      "channel": 4,
      "note": 64,
      "start": 68.2005,
      "duration": 0.0161,
      "velocity": 120,
      "chip": "ym2612"
    },
    {
      "channel": 3,
      "note": 71,
      "start": 68.2017,
      "duration": 0.0161,
      "velocity": 120,
      "chip": "ym2612"
    },
    {
      "channel": 2,
      "note": 47,
      "start": 68.2028,
      "duration": 0.0161,
      "velocity": 100,
      "chip": "ym2612"
    },
    {
      "channel": 0,
      "note": 40,
      "start": 68.2155,
      "duration": 0.0166,
      "velocity": 115,
      "chip": "ym2612"
    },
    {
      "channel": 4,
      "note": 64,
      "start": 68.2166,
      "duration": 0.0166,
      "velocity": 120,
      "chip": "ym2612"
    },
    {
      "channel": 3,
      "note": 71,
      "start": 68.2178,
      "duration": 0.0166,
      "velocity": 120,
      "chip": "ym2612"
    },
    {
      "channel": 2,
      "note": 47,
      "start": 68.2189,
      "duration": 0.0166,
      "velocity": 100,
      "chip": "ym2612"
    },
    {
      "channel": 0,
      "note": 41,
      "start": 68.2321,
      "duration": 0.0167,
      "velocity": 115,
      "chip": "ym2612"
    },
    {
      "channel": 4,
      "note": 64,
      "start": 68.2332,
      "duration": 0.0169,
      "velocity": 120,
      "chip": "ym2612"
    },
    {
      "channel": 3,
      "note": 71,
      "start": 68.2344,
      "duration": 0.0171,
      "velocity": 120,
      "chip": "ym2612"
    },
    {
      "channel": 2,
      "note": 47,
      "start": 68.2354,
      "duration": 0.0175,
      "velocity": 100,
      "chip": "ym2612"
    },
    {
      "channel": 0,
      "note": 41,
      "start": 68.2487,
      "duration": 0.0163,
      "velocity": 115,
      "chip": "ym2612"
    },
    {
      "channel": 4,
      "note": 67,
      "start": 68.2501,
      "duration": 0.0161,
      "velocity": 120,
      "chip": "ym2612"
    },
    {
      "channel": 3,
      "note": 74,
      "start": 68.2515,
      "duration": 0.0159,
      "velocity": 120,
      "chip": "ym2612"
    },
    {
      "channel": 2,
      "note": 47,
      "start": 68.253,
      "duration": 0.0156,
      "velocity": 100,
      "chip": "ym2612"
    },
    {
      "channel": 0,
      "note": 42,
      "start": 68.265,
      "duration": 0.0149,
      "velocity": 115,
      "chip": "ym2612"
    },
    {
      "channel": 4,
      "note": 67,
      "start": 68.2662,
      "duration": 0.0148,
      "velocity": 120,
      "chip": "ym2612"
    },
    {
      "channel": 3,
      "note": 74,
      "start": 68.2674,
      "duration": 0.0147,
      "velocity": 120,
      "chip": "ym2612"
    },
    {
      "channel": 2,
      "note": 47,
      "start": 68.2686,
      "duration": 0.0147,
      "velocity": 100,
      "chip": "ym2612"
    },
    {
      "channel": 0,
      "note": 42,
      "start": 68.2799,
      "duration": 0.0188,
      "velocity": 115,
      "chip": "ym2612"
    },
    {
      "channel": 4,
      "note": 67,
      "start": 68.281,
      "duration": 0.0188,
      "velocity": 120,
      "chip": "ym2612"
    },
    {
      "channel": 3,
      "note": 74,
      "start": 68.2822,
      "duration": 0.0188,
      "velocity": 120,
      "chip": "ym2612"
    },
    {
      "channel": 2,
      "note": 47,
      "start": 68.2833,
      "duration": 0.0188,
      "velocity": 100,
      "chip": "ym2612"
    },
    {
      "channel": 0,
      "note": 43,
      "start": 68.2987,
      "duration": 0.0162,
      "velocity": 115,
      "chip": "ym2612"
    },
    {
      "channel": 4,
      "note": 67,
      "start": 68.2999,
      "duration": 0.0161,
      "velocity": 120,
      "chip": "ym2612"
    },
    {
      "channel": 3,
      "note": 74,
      "start": 68.301,
      "duration": 0.0161,
      "velocity": 120,
      "chip": "ym2612"
    },
    {
      "channel": 2,
      "note": 47,
      "start": 68.3021,
      "duration": 0.0161,
      "velocity": 100,
      "chip": "ym2612"
    },
    {
      "channel": 0,
      "note": 43,
      "start": 68.3148,
      "duration": 0.0158,
      "velocity": 115,
      "chip": "ym2612"
    },
    {
      "channel": 4,
      "note": 67,
      "start": 68.316,
      "duration": 0.0158,
      "velocity": 120,
      "chip": "ym2612"
    },
    {
      "channel": 3,
      "note": 74,
      "start": 68.3171,
      "duration": 0.0158,
      "velocity": 120,
      "chip": "ym2612"
    },
    {
      "channel": 2,
      "note": 47,
      "start": 68.3183,
      "duration": 0.0157,
      "velocity": 100,
      "chip": "ym2612"
    },
    {
      "channel": 0,
      "note": 44,
      "start": 68.3306,
      "duration": 0.014,
      "velocity": 115,
      "chip": "ym2612"
    },
    {
      "channel": 4,
      "note": 67,
      "start": 68.3317,
      "duration": 0.0141,
      "velocity": 120,
      "chip": "ym2612"
    },
    {
      "channel": 3,
      "note": 74,
      "start": 68.3329,
      "duration": 0.0141,
      "velocity": 120,
      "chip": "ym2612"
    },
    {
      "channel": 2,
      "note": 47,
      "start": 68.334,
      "duration": 0.0141,
      "velocity": 100,
      "chip": "ym2612"
    },
    {
      "channel": 0,
      "note": 44,
      "start": 68.3446,
      "duration": 0.0158,
      "velocity": 115,
      "chip": "ym2612"
    },
    {
      "channel": 4,
      "note": 67,
      "start": 68.3458,
      "duration": 0.0185,
      "velocity": 120,
      "chip": "ym2612"
    },
    {
      "channel": 3,
      "note": 74,
      "start": 68.3469,
      "duration": 0.0185,
      "velocity": 120,
      "chip": "ym2612"
    },
    {
      "channel": 2,
      "note": 47,
      "start": 68.348,
      "duration": 0.0185,
      "velocity": 100,
      "chip": "ym2612"
    },
    {
      "channel": 0,
      "note": 44,
      "start": 68.3604,
      "duration": 0.0162,
      "velocity": 115,
      "chip": "ym2612"
    },
    {
      "channel": 4,
      "note": 67,
      "start": 68.3643,
      "duration": 0.0161,
      "velocity": 120,
      "chip": "ym2612"
    },
    {
      "channel": 3,
      "note": 74,
      "start": 68.3655,
      "duration": 0.0161,
      "velocity": 120,
      "chip": "ym2612"
    },
    {
      "channel": 2,
      "note": 47,
      "start": 68.3665,
      "duration": 0.0162,
      "velocity": 100,
      "chip": "ym2612"
    },
    {
      "channel": 0,
      "note": 45,
      "start": 68.3765,
      "duration": 0.0161,
      "velocity": 115,
      "chip": "ym2612"
    },
    {
      "channel": 4,
      "note": 67,
      "start": 68.3804,
      "duration": 0.0134,
      "velocity": 120,
      "chip": "ym2612"
    },
    {
      "channel": 3,
      "note": 74,
      "start": 68.3815,
      "duration": 0.0157,
      "velocity": 120,
      "chip": "ym2612"
    },
    {
      "channel": 2,
      "note": 47,
      "start": 68.3827,
      "duration": 0.0157,
      "velocity": 100,
      "chip": "ym2612"
    },
    {
      "channel": 0,
      "note": 45,
      "start": 68.3926,
      "duration": 0.0161,
      "velocity": 115,
      "chip": "ym2612"
    },
    {
      "channel": 4,
      "note": 67,
      "start": 68.3938,
      "duration": 0.0161,
      "velocity": 120,
      "chip": "ym2612"
    },
    {
      "channel": 3,
      "note": 74,
      "start": 68.3973,
      "duration": 0.0141,
      "velocity": 120,
      "chip": "ym2612"
    },
    {
      "channel": 2,
      "note": 47,
      "start": 68.3984,
      "duration": 0.0141,
      "velocity": 100,
      "chip": "ym2612"
    },
    {
      "channel": 0,
      "note": 46,
      "start": 68.4087,
      "duration": 0.0161,
      "velocity": 115,
      "chip": "ym2612"
    },
    {
      "channel": 4,
      "note": 67,
      "start": 68.4099,
      "duration": 0.0161,
      "velocity": 120,
      "chip": "ym2612"
    },
    {
      "channel": 3,
      "note": 74,
      "start": 68.4113,
      "duration": 0.0158,
      "velocity": 120,
      "chip": "ym2612"
    },
    {
      "channel": 2,
      "note": 47,
      "start": 68.4125,
      "duration": 0.0185,
      "velocity": 100,
      "chip": "ym2612"
    },
    {
      "channel": 0,
      "note": 46,
      "start": 68.4248,
      "duration": 0.0179,
      "velocity": 124,
      "chip": "ym2612"
    },
    {
      "channel": 4,
      "note": 67,
      "start": 68.426,
      "duration": 0.0209,
      "velocity": 120,
      "chip": "ym2612"
    },
    {
      "channel": 3,
      "note": 74,
      "start": 68.4271,
      "duration": 0.0211,
      "velocity": 120,
      "chip": "ym2612"
    },
    {
      "channel": 2,
      "note": 47,
      "start": 68.431,
      "duration": 0.0187,
      "velocity": 100,
      "chip": "ym2612"
    },
    {
      "channel": 0,
      "note": 84,
      "start": 68.4427,
      "duration": 0.0144,
      "velocity": 124,
      "chip": "ym2612"
    },
    {
      "channel": 4,
      "note": 71,
      "start": 68.4469,
      "duration": 0.0114,
      "velocity": 120,
      "chip": "ym2612"
    },
    {
      "channel": 3,
      "note": 78,
      "start": 68.4483,
      "duration": 0.0112,
      "velocity": 120,
      "chip": "ym2612"
    },
    {
      "channel": 2,
      "note": 47,
      "start": 68.4498,
      "duration": 0.0133,
      "velocity": 100,
      "chip": "ym2612"
    },
    {
      "channel": 0,
      "note": 82,
      "start": 68.4571,
      "duration": 0.016,
      "velocity": 124,
      "chip": "ym2612"
    },
    {
      "channel": 4,
      "note": 71,
      "start": 68.4583,
      "duration": 0.016,
      "velocity": 120,
      "chip": "ym2612"
    },
    {
      "channel": 3,
      "note": 78,
      "start": 68.4595,
      "duration": 0.0159,
      "velocity": 120,
      "chip": "ym2612"
    },
    {
      "channel": 2,
      "note": 47,
      "start": 68.463,
      "duration": 0.0135,
      "velocity": 100,
      "chip": "ym2612"
    },
    {
      "channel": 0,
      "note": 80,
      "start": 68.4731,
      "duration": 0.0161,
      "velocity": 124,
      "chip": "ym2612"
    },
    {
      "channel": 4,
      "note": 71,
      "start": 68.4743,
      "duration": 0.0161,
      "velocity": 120,
      "chip": "ym2612"
    },
    {
      "channel": 3,
      "note": 78,
      "start": 68.4754,
      "duration": 0.0161,
      "velocity": 120,
      "chip": "ym2612"
    },
    {
      "channel": 2,
      "note": 47,
      "start": 68.4765,
      "duration": 0.0161,
      "velocity": 100,
      "chip": "ym2612"
    },
    {
      "channel": 0,
      "note": 77,
      "start": 68.4892,
      "duration": 0.0162,
      "velocity": 124,
      "chip": "ym2612"
    },
    {
      "channel": 4,
      "note": 71,
      "start": 68.4904,
      "duration": 0.0161,
      "velocity": 120,
      "chip": "ym2612"
    },
    {
      "channel": 3,
      "note": 78,
      "start": 68.4915,
      "duration": 0.0162,
      "velocity": 120,
      "chip": "ym2612"
    },
    {
      "channel": 2,
      "note": 47,
      "start": 68.4926,
      "duration": 0.0161,
      "velocity": 100,
      "chip": "ym2612"
    },
    {
      "channel": 0,
      "note": 75,
      "start": 68.5054,
      "duration": 0.0161,
      "velocity": 124,
      "chip": "ym2612"
    },
    {
      "channel": 4,
      "note": 71,
      "start": 68.5065,
      "duration": 0.0161,
      "velocity": 120,
      "chip": "ym2612"
    },
    {
      "channel": 3,
      "note": 78,
      "start": 68.5076,
      "duration": 0.0161,
      "velocity": 120,
      "chip": "ym2612"
    },
    {
      "channel": 2,
      "note": 47,
      "start": 68.5088,
      "duration": 0.0161,
      "velocity": 100,
      "chip": "ym2612"
    },
    {
      "channel": 0,
      "note": 72,
      "start": 68.5214,
      "duration": 0.0161,
      "velocity": 124,
      "chip": "ym2612"
    },
    {
      "channel": 4,
      "note": 71,
      "start": 68.5226,
      "duration": 0.0161,
      "velocity": 120,
      "chip": "ym2612"
    },
    {
      "channel": 3,
      "note": 78,
      "start": 68.5237,
      "duration": 0.0161,
      "velocity": 120,
      "chip": "ym2612"
    },
    {
      "channel": 2,
      "note": 47,
      "start": 68.5249,
      "duration": 0.0161,
      "velocity": 100,
      "chip": "ym2612"
    },
    {
      "channel": 0,
      "note": 70,
      "start": 68.5375,
      "duration": 0.0161,
      "velocity": 124,
      "chip": "ym2612"
    },
    {
      "channel": 4,
      "note": 71,
      "start": 68.5387,
      "duration": 0.0161,
      "velocity": 120,
      "chip": "ym2612"
    },
    {
      "channel": 3,
      "note": 78,
      "start": 68.5398,
      "duration": 0.0161,
      "velocity": 120,
      "chip": "ym2612"
    },
    {
      "channel": 2,
      "note": 47,
      "start": 68.541,
      "duration": 0.016,
      "velocity": 100,
      "chip": "ym2612"
    },
    {
      "channel": 0,
      "note": 68,
      "start": 68.5536,
      "duration": 0.0161,
      "velocity": 124,
      "chip": "ym2612"
    },
    {
      "channel": 4,
      "note": 71,
      "start": 68.5548,
      "duration": 0.0161,
      "velocity": 120,
      "chip": "ym2612"
    },
    {
      "channel": 3,
      "note": 78,
      "start": 68.5559,
      "duration": 0.0161,
      "velocity": 120,
      "chip": "ym2612"
    },
    {
      "channel": 2,
      "note": 47,
      "start": 68.557,
      "duration": 0.0161,
      "velocity": 100,
      "chip": "ym2612"
    },
    {
      "channel": 0,
      "note": 65,
      "start": 68.5697,
      "duration": 0.0161,
      "velocity": 124,
      "chip": "ym2612"
    },
    {
      "channel": 4,
      "note": 71,
      "start": 68.5709,
      "duration": 0.0161,
      "velocity": 120,
      "chip": "ym2612"
    },
    {
      "channel": 3,
      "note": 78,
      "start": 68.572,
      "duration": 0.0161,
      "velocity": 120,
      "chip": "ym2612"
    },
    {
      "channel": 2,
      "note": 47,
      "start": 68.5732,
      "duration": 0.0161,
      "velocity": 100,
      "chip": "ym2612"
    },
    {
      "channel": 0,
      "note": 63,
      "start": 68.5858,
      "duration": 0.0153,
      "velocity": 1,
      "chip": "ym2612"
    },
    {
      "channel": 4,
      "note": 71,
      "start": 68.587,
      "duration": 0.0153,
      "velocity": 120,
      "chip": "ym2612"
    },
    {
      "channel": 3,
      "note": 78,
      "start": 68.5881,
      "duration": 0.0153,
      "velocity": 120,
      "chip": "ym2612"
    },
    {
      "channel": 2,
      "note": 47,
      "start": 68.5893,
      "duration": 0.0153,
      "velocity": 100,
      "chip": "ym2612"
    },
    {
      "channel": 4,
      "note": 71,
      "start": 68.6023,
      "duration": 0.0153,
      "velocity": 120,
      "chip": "ym2612"
    },
    {
      "channel": 3,
      "note": 78,
      "start": 68.6034,
      "duration": 0.0152,
      "velocity": 120,
      "chip": "ym2612"
    },
    {
      "channel": 2,
      "note": 47,
      "start": 68.6045,
      "duration": 0.0153,
      "velocity": 100,
      "chip": "ym2612"
    },
    {
      "channel": 4,
      "note": 71,
      "start": 68.6176,
      "duration": 0.0197,
      "velocity": 120,
      "chip": "ym2612"
    },
    {
      "channel": 3,
      "note": 78,
      "start": 68.6186,
      "duration": 0.02,
      "velocity": 120,
      "chip": "ym2612"
    },
    {
      "channel": 2,
      "note": 47,
      "start": 68.6198,
      "duration": 0.0204,
      "velocity": 100,
      "chip": "ym2612"
    },
    {
      "channel": 0,
      "note": 36,
      "start": 68.6359,
      "duration": 0.0144,
      "velocity": 115,
      "chip": "ym2612"
    },
    {
      "channel": 4,
      "note": 67,
      "start": 68.6373,
      "duration": 0.0141,
      "velocity": 120,
      "chip": "ym2612"
    },
    {
      "channel": 3,
      "note": 74,
      "start": 68.6387,
      "duration": 0.0139,
      "velocity": 120,
      "chip": "ym2612"
    },
    {
      "channel": 2,
      "note": 47,
      "start": 68.6402,
      "duration": 0.0137,
      "velocity": 100,
      "chip": "ym2612"
    },
    {
      "channel": 0,
      "note": 36,
      "start": 68.6502,
      "duration": 0.0161,
      "velocity": 115,
      "chip": "ym2612"
    },
    {
      "channel": 4,
      "note": 67,
      "start": 68.6515,
      "duration": 0.016,
      "velocity": 120,
      "chip": "ym2612"
    },
    {
      "channel": 3,
      "note": 74,
      "start": 68.6527,
      "duration": 0.016,
      "velocity": 120,
      "chip": "ym2612"
    },
    {
      "channel": 2,
      "note": 47,
      "start": 68.6539,
      "duration": 0.0159,
      "velocity": 100,
      "chip": "ym2612"
    },
    {
      "channel": 0,
      "note": 37,
      "start": 68.6663,
      "duration": 0.0161,
      "velocity": 115,
      "chip": "ym2612"
    },
    {
      "channel": 4,
      "note": 67,
      "start": 68.6675,
      "duration": 0.0161,
      "velocity": 120,
      "chip": "ym2612"
    },
    {
      "channel": 3,
      "note": 74,
      "start": 68.6686,
      "duration": 0.0161,
      "velocity": 120,
      "chip": "ym2612"
    },
    {
      "channel": 2,
      "note": 47,
      "start": 68.6697,
      "duration": 0.0161,
      "velocity": 100,
      "chip": "ym2612"
    },
    {
      "channel": 0,
      "note": 37,
      "start": 68.6824,
      "duration": 0.0163,
      "velocity": 115,
      "chip": "ym2612"
    },
    {
      "channel": 4,
      "note": 67,
      "start": 68.6836,
      "duration": 0.0163,
      "velocity": 120,
      "chip": "ym2612"
    },
    {
      "channel": 3,
      "note": 74,
      "start": 68.6847,
      "duration": 0.0163,
      "velocity": 120,
      "chip": "ym2612"
    },
    {
      "channel": 2,
      "note": 47,
      "start": 68.6858,
      "duration": 0.0163,
      "velocity": 100,
      "chip": "ym2612"
    },
    {
      "channel": 0,
      "note": 38,
      "start": 68.6987,
      "duration": 0.0167,
      "velocity": 115,
      "chip": "ym2612"
    },
    {
      "channel": 4,
      "note": 67,
      "start": 68.6999,
      "duration": 0.0167,
      "velocity": 120,
      "chip": "ym2612"
    },
    {
      "channel": 3,
      "note": 74,
      "start": 68.701,
      "duration": 0.0167,
      "velocity": 120,
      "chip": "ym2612"
    },
    {
      "channel": 2,
      "note": 47,
      "start": 68.7022,
      "duration": 0.0166,
      "velocity": 100,
      "chip": "ym2612"
    },
    {
      "channel": 0,
      "note": 38,
      "start": 68.7154,
      "duration": 0.0163,
      "velocity": 115,
      "chip": "ym2612"
    },
    {
      "channel": 4,
      "note": 67,
      "start": 68.7165,
      "duration": 0.0163,
      "velocity": 120,
      "chip": "ym2612"
    },
    {
      "channel": 3,
      "note": 74,
      "start": 68.7177,
      "duration": 0.0163,
      "velocity": 120,
      "chip": "ym2612"
    },
    {
      "channel": 2,
      "note": 47,
      "start": 68.7188,
      "duration": 0.0163,
      "velocity": 100,
      "chip": "ym2612"
    },
    {
      "channel": 0,
      "note": 39,
      "start": 68.7317,
      "duration": 0.0151,
      "velocity": 115,
      "chip": "ym2612"
    },
    {
      "channel": 4,
      "note": 67,
      "start": 68.7328,
      "duration": 0.0151,
      "velocity": 120,
      "chip": "ym2612"
    },
    {
      "channel": 3,
      "note": 74,
      "start": 68.734,
      "duration": 0.0151,
      "velocity": 120,
      "chip": "ym2612"
    },
    {
      "channel": 2,
      "note": 47,
      "start": 68.7351,
      "duration": 0.0151,
      "velocity": 100,
      "chip": "ym2612"
    },
    {
      "channel": 0,
      "note": 39,
      "start": 68.7468,
      "duration": 0.0186,
      "velocity": 115,
      "chip": "ym2612"
    },
    {
      "channel": 4,
      "note": 67,
      "start": 68.748,
      "duration": 0.0186,
      "velocity": 120,
      "chip": "ym2612"
    },
    {
      "channel": 3,
      "note": 74,
      "start": 68.7491,
      "duration": 0.0186,
      "velocity": 120,
      "chip": "ym2612"
    },
    {
      "channel": 2,
      "note": 47,
      "start": 68.7502,
      "duration": 0.0186,
      "velocity": 100,
      "chip": "ym2612"
    },
    {
      "channel": 0,
      "note": 40,
      "start": 68.7654,
      "duration": 0.0163,
      "velocity": 115,
      "chip": "ym2612"
    },
    {
      "channel": 4,
      "note": 67,
      "start": 68.7665,
      "duration": 0.0164,
      "velocity": 120,
      "chip": "ym2612"
    },
    {
      "channel": 3,
      "note": 74,
      "start": 68.7677,
      "duration": 0.0164,
      "velocity": 120,
      "chip": "ym2612"
    },
    {
      "channel": 2,
      "note": 47,
      "start": 68.7688,
      "duration": 0.0163,
      "velocity": 100,
      "chip": "ym2612"
    },
    {
      "channel": 0,
      "note": 40,
      "start": 68.7817,
      "duration": 0.0158,
      "velocity": 115,
      "chip": "ym2612"
    },
    {
      "channel": 4,
      "note": 67,
      "start": 68.7829,
      "duration": 0.0157,
      "velocity": 120,
      "chip": "ym2612"
    },
    {
      "channel": 3,
      "note": 74,
      "start": 68.7841,
      "duration": 0.0157,
      "velocity": 120,
      "chip": "ym2612"
    },
    {
      "channel": 2,
      "note": 47,
      "start": 68.7852,
      "duration": 0.0158,
      "velocity": 100,
      "chip": "ym2612"
    },
    {
      "channel": 0,
      "note": 40,
      "start": 68.7975,
      "duration": 0.0141,
      "velocity": 115,
      "chip": "ym2612"
    },
    {
      "channel": 4,
      "note": 67,
      "start": 68.7987,
      "duration": 0.0141,
      "velocity": 120,
      "chip": "ym2612"
    },
    {
      "channel": 3,
      "note": 74,
      "start": 68.7998,
      "duration": 0.014,
      "velocity": 120,
      "chip": "ym2612"
    },
    {
      "channel": 2,
      "note": 47,
      "start": 68.801,
      "duration": 0.014,
      "velocity": 100,
      "chip": "ym2612"
    },
    {
      "channel": 0,
      "note": 41,
      "start": 68.8116,
      "duration": 0.0202,
      "velocity": 115,
      "chip": "ym2612"
    },
    {
      "channel": 4,
      "note": 67,
      "start": 68.8127,
      "duration": 0.0205,
      "velocity": 120,
      "chip": "ym2612"
    },
    {
      "channel": 3,
      "note": 74,
      "start": 68.8139,
      "duration": 0.0208,
      "velocity": 120,
      "chip": "ym2612"
    },
    {
      "channel": 2,
      "note": 47,
      "start": 68.8149,
      "duration": 0.0212,
      "velocity": 100,
      "chip": "ym2612"
    },
    {
      "channel": 0,
      "note": 36,
      "start": 68.8319,
      "duration": 0.0117,
      "velocity": 115,
      "chip": "ym2612"
    },
    {
      "channel": 4,
      "note": 71,
      "start": 68.8333,
      "duration": 0.0142,
      "velocity": 120,
      "chip": "ym2612"
    },
    {
      "channel": 3,
      "note": 78,
      "start": 68.8347,
      "duration": 0.014,
      "velocity": 120,
      "chip": "ym2612"
    },
    {
      "channel": 2,
      "note": 47,
      "start": 68.8361,
      "duration": 0.0137,
      "velocity": 100,
      "chip": "ym2612"
    },
    {
      "channel": 0,
      "note": 36,
      "start": 68.8435,
      "duration": 0.016,
      "velocity": 115,
      "chip": "ym2612"
    },
    {
      "channel": 4,
      "note": 71,
      "start": 68.8475,
      "duration": 0.0156,
      "velocity": 120,
      "chip": "ym2612"
    },
    {
      "channel": 3,
      "note": 78,
      "start": 68.8487,
      "duration": 0.0156,
      "velocity": 120,
      "chip": "ym2612"
    },
    {
      "channel": 2,
      "note": 47,
      "start": 68.8498,
      "duration": 0.0155,
      "velocity": 100,
      "chip": "ym2612"
    },
    {
      "channel": 0,
      "note": 37,
      "start": 68.8595,
      "duration": 0.0161,
      "velocity": 115,
      "chip": "ym2612"
    },
    {
      "channel": 4,
      "note": 71,
      "start": 68.863,
      "duration": 0.0137,
      "velocity": 120,
      "chip": "ym2612"
    },
    {
      "channel": 3,
      "note": 78,
      "start": 68.8642,
      "duration": 0.014,
      "velocity": 120,
      "chip": "ym2612"
    },
    {
      "channel": 2,
      "note": 47,
      "start": 68.8653,
      "duration": 0.0141,
      "velocity": 100,
      "chip": "ym2612"
    },
    {
      "channel": 0,
      "note": 37,
      "start": 68.8756,
      "duration": 0.0161,
      "velocity": 115,
      "chip": "ym2612"
    },
    {
      "channel": 4,
      "note": 71,
      "start": 68.8768,
      "duration": 0.0161,
      "velocity": 120,
      "chip": "ym2612"
    },
    {
      "channel": 3,
      "note": 78,
      "start": 68.8783,
      "duration": 0.0185,
      "velocity": 120,
      "chip": "ym2612"
    },
    {
      "channel": 2,
      "note": 47,
      "start": 68.8794,
      "duration": 0.0185,
      "velocity": 100,
      "chip": "ym2612"
    },
    {
      "channel": 0,
      "note": 38,
      "start": 68.8917,
      "duration": 0.0161,
      "velocity": 115,
      "chip": "ym2612"
    },
    {
      "channel": 4,
      "note": 71,
      "start": 68.8929,
      "duration": 0.0161,
      "velocity": 120,
      "chip": "ym2612"
    },
    {
      "channel": 3,
      "note": 78,
      "start": 68.8968,
      "duration": 0.0134,
      "velocity": 120,
      "chip": "ym2612"
    },
    {
      "channel": 2,
      "note": 47,
      "start": 68.8979,
      "duration": 0.0161,
      "velocity": 100,
      "chip": "ym2612"
    },
    {
      "channel": 0,
      "note": 38,
      "start": 68.9078,
      "duration": 0.0161,
      "velocity": 115,
      "chip": "ym2612"
    },
    {
      "channel": 4,
      "note": 71,
      "start": 68.909,
      "duration": 0.0161,
      "velocity": 120,
      "chip": "ym2612"
    },
    {
      "channel": 3,
      "note": 78,
      "start": 68.9101,
      "duration": 0.0161,
      "velocity": 120,
      "chip": "ym2612"
    },
    {
      "channel": 2,
      "note": 47,
      "start": 68.914,
      "duration": 0.0157,
      "velocity": 100,
      "chip": "ym2612"
    },
    {
      "channel": 0,
      "note": 39,
      "start": 68.9239,
      "duration": 0.0161,
      "velocity": 115,
      "chip": "ym2612"
    },
    {
      "channel": 4,
      "note": 71,
      "start": 68.9251,
      "duration": 0.0162,
      "velocity": 120,
      "chip": "ym2612"
    },
    {
      "channel": 3,
      "note": 78,
      "start": 68.9262,
      "duration": 0.0161,
      "velocity": 120,
      "chip": "ym2612"
    },
    {
      "channel": 2,
      "note": 47,
      "start": 68.9297,
      "duration": 0.0137,
      "velocity": 100,
      "chip": "ym2612"
    },
    {
      "channel": 0,
      "note": 39,
      "start": 68.94,
      "duration": 0.0162,
      "velocity": 115,
      "chip": "ym2612"
    },
    {
      "channel": 4,
      "note": 71,
      "start": 68.9412,
      "duration": 0.0161,
      "velocity": 120,
      "chip": "ym2612"
    },
    {
      "channel": 3,
      "note": 78,
      "start": 68.9423,
      "duration": 0.0162,
      "velocity": 120,
      "chip": "ym2612"
    },
    {
      "channel": 2,
      "note": 47,
      "start": 68.9434,
      "duration": 0.0161,
      "velocity": 100,
      "chip": "ym2612"
    },
    {
      "channel": 0,
      "note": 40,
      "start": 68.9562,
      "duration": 0.0161,
      "velocity": 115,
      "chip": "ym2612"
    },
    {
      "channel": 4,
      "note": 71,
      "start": 68.9573,
      "duration": 0.0161,
      "velocity": 120,
      "chip": "ym2612"
    },
    {
      "channel": 3,
      "note": 78,
      "start": 68.9585,
      "duration": 0.0161,
      "velocity": 120,
      "chip": "ym2612"
    },
    {
      "channel": 2,
      "note": 47,
      "start": 68.9595,
      "duration": 0.0161,
      "velocity": 100,
      "chip": "ym2612"
    },
    {
      "channel": 0,
      "note": 40,
      "start": 68.9723,
      "duration": 0.0161,
      "velocity": 115,
      "chip": "ym2612"
    },
    {
      "channel": 4,
      "note": 71,
      "start": 68.9734,
      "duration": 0.0161,
      "velocity": 120,
      "chip": "ym2612"
    },
    {
      "channel": 3,
      "note": 78,
      "start": 68.9746,
      "duration": 0.0161,
      "velocity": 120,
      "chip": "ym2612"
    },
    {
      "channel": 2,
      "note": 47,
      "start": 68.9756,
      "duration": 0.0162,
      "velocity": 100,
      "chip": "ym2612"
    },
    {
      "channel": 0,
      "note": 40,
      "start": 68.9884,
      "duration": 0.0161,
      "velocity": 115,
      "chip": "ym2612"
    },
    {
      "channel": 4,
      "note": 71,
      "start": 68.9895,
      "duration": 0.0161,
      "velocity": 120,
      "chip": "ym2612"
    },
    {
      "channel": 3,
      "note": 78,
      "start": 68.9907,
      "duration": 0.0161,
      "velocity": 120,
      "chip": "ym2612"
    },
    {
      "channel": 2,
      "note": 47,
      "start": 68.9918,
      "duration": 0.0161,
      "velocity": 100,
      "chip": "ym2612"
    },
    {
      "channel": 0,
      "note": 41,
      "start": 69.0044,
      "duration": 0.0161,
      "velocity": 115,
      "chip": "ym2612"
    },
    {
      "channel": 4,
      "note": 71,
      "start": 69.0056,
      "duration": 0.0163,
      "velocity": 120,
      "chip": "ym2612"
    },
    {
      "channel": 3,
      "note": 78,
      "start": 69.0067,
      "duration": 0.0166,
      "velocity": 120,
      "chip": "ym2612"
    },
    {
      "channel": 2,
      "note": 47,
      "start": 69.0079,
      "duration": 0.0168,
      "velocity": 100,
      "chip": "ym2612"
    },
    {
      "channel": 0,
      "note": 41,
      "start": 69.0205,
      "duration": 0.0161,
      "velocity": 115,
      "chip": "ym2612"
    },
    {
      "channel": 4,
      "note": 67,
      "start": 69.022,
      "duration": 0.0159,
      "velocity": 120,
      "chip": "ym2612"
    },
    {
      "channel": 3,
      "note": 74,
      "start": 69.0233,
      "duration": 0.0157,
      "velocity": 120,
      "chip": "ym2612"
    },
    {
      "channel": 2,
      "note": 47,
      "start": 69.0248,
      "duration": 0.0155,
      "velocity": 100,
      "chip": "ym2612"
    },
    {
      "channel": 0,
      "note": 42,
      "start": 69.0366,
      "duration": 0.0161,
      "velocity": 115,
      "chip": "ym2612"
    },
    {
      "channel": 4,
      "note": 67,
      "start": 69.0378,
      "duration": 0.016,
      "velocity": 120,
      "chip": "ym2612"
    },
    {
      "channel": 3,
      "note": 74,
      "start": 69.039,
      "duration": 0.016,
      "velocity": 120,
      "chip": "ym2612"
    },
    {
      "channel": 2,
      "note": 47,
      "start": 69.0403,
      "duration": 0.0159,
      "velocity": 100,
      "chip": "ym2612"
    },
    {
      "channel": 0,
      "note": 42,
      "start": 69.0527,
      "duration": 0.0161,
      "velocity": 115,
      "chip": "ym2612"
    },
    {
      "channel": 4,
      "note": 67,
      "start": 69.0539,
      "duration": 0.0161,
      "velocity": 120,
      "chip": "ym2612"
    },
    {
      "channel": 3,
      "note": 74,
      "start": 69.055,
      "duration": 0.0161,
      "velocity": 120,
      "chip": "ym2612"
    },
    {
      "channel": 2,
      "note": 47,
      "start": 69.0562,
      "duration": 0.0161,
      "velocity": 100,
      "chip": "ym2612"
    },
    {
      "channel": 0,
      "note": 43,
      "start": 69.0688,
      "duration": 0.0161,
      "velocity": 115,
      "chip": "ym2612"
    },
    {
      "channel": 4,
      "note": 67,
      "start": 69.07,
      "duration": 0.0161,
      "velocity": 120,
      "chip": "ym2612"
    },
    {
      "channel": 3,
      "note": 74,
      "start": 69.0711,
      "duration": 0.0161,
      "velocity": 120,
      "chip": "ym2612"
    },
    {
      "channel": 2,
      "note": 47,
      "start": 69.0723,
      "duration": 0.0161,
      "velocity": 100,
      "chip": "ym2612"
    },
    {
      "channel": 0,
      "note": 43,
      "start": 69.0849,
      "duration": 0.0161,
      "velocity": 115,
      "chip": "ym2612"
    },
    {
      "channel": 4,
      "note": 67,
      "start": 69.0861,
      "duration": 0.0161,
      "velocity": 120,
      "chip": "ym2612"
    },
    {
      "channel": 3,
      "note": 74,
      "start": 69.0872,
      "duration": 0.0161,
      "velocity": 120,
      "chip": "ym2612"
    },
    {
      "channel": 2,
      "note": 47,
      "start": 69.0884,
      "duration": 0.0161,
      "velocity": 100,
      "chip": "ym2612"
    },
    {
      "channel": 0,
      "note": 44,
      "start": 69.101,
      "duration": 0.0161,
      "velocity": 115,
      "chip": "ym2612"
    },
    {
      "channel": 4,
      "note": 67,
      "start": 69.1022,
      "duration": 0.0162,
      "velocity": 120,
      "chip": "ym2612"
    },
    {
      "channel": 3,
      "note": 74,
      "start": 69.1033,
      "duration": 0.0161,
      "velocity": 120,
      "chip": "ym2612"
    },
    {
      "channel": 2,
      "note": 47,
      "start": 69.1044,
      "duration": 0.0161,
      "velocity": 100,
      "chip": "ym2612"
    },
    {
      "channel": 0,
      "note": 44,
      "start": 69.1172,
      "duration": 0.0161,
      "velocity": 115,
      "chip": "ym2612"
    },
    {
      "channel": 4,
      "note": 67,
      "start": 69.1183,
      "duration": 0.0161,
      "velocity": 120,
      "chip": "ym2612"
    },
    {
      "channel": 3,
      "note": 74,
      "start": 69.1195,
      "duration": 0.0161,
      "velocity": 120,
      "chip": "ym2612"
    },
    {
      "channel": 2,
      "note": 47,
      "start": 69.1205,
      "duration": 0.0162,
      "velocity": 100,
      "chip": "ym2612"
    },
    {
      "channel": 0,
      "note": 44,
      "start": 69.1333,
      "duration": 0.0161,
      "velocity": 115,
      "chip": "ym2612"
    },
    {
      "channel": 4,
      "note": 67,
      "start": 69.1344,
      "duration": 0.0161,
      "velocity": 120,
      "chip": "ym2612"
    },
    {
      "channel": 3,
      "note": 74,
      "start": 69.1356,
      "duration": 0.0161,
      "velocity": 120,
      "chip": "ym2612"
    },
    {
      "channel": 2,
      "note": 47,
      "start": 69.1367,
      "duration": 0.0161,
      "velocity": 100,
      "chip": "ym2612"
    },
    {
      "channel": 0,
      "note": 45,
      "start": 69.1494,
      "duration": 0.0161,
      "velocity": 115,
      "chip": "ym2612"
    },
    {
      "channel": 4,
      "note": 67,
      "start": 69.1505,
      "duration": 0.0161,
      "velocity": 120,
      "chip": "ym2612"
    },
    {
      "channel": 3,
      "note": 74,
      "start": 69.1517,
      "duration": 0.0161,
      "velocity": 120,
      "chip": "ym2612"
    },
    {
      "channel": 2,
      "note": 47,
      "start": 69.1528,
      "duration": 0.0161,
      "velocity": 100,
      "chip": "ym2612"
    },
    {
      "channel": 0,
      "note": 45,
      "start": 69.1655,
      "duration": 0.0166,
      "velocity": 115,
      "chip": "ym2612"
    },
    {
      "channel": 4,
      "note": 67,
      "start": 69.1666,
      "duration": 0.0166,
      "velocity": 120,
      "chip": "ym2612"
    },
    {
      "channel": 3,
      "note": 74,
      "start": 69.1678,
      "duration": 0.0166,
      "velocity": 120,
      "chip": "ym2612"
    },
    {
      "channel": 2,
      "note": 47,
      "start": 69.1689,
      "duration": 0.0166,
      "velocity": 100,
      "chip": "ym2612"
    },
    {
      "channel": 0,
      "note": 46,
      "start": 69.1821,
      "duration": 0.0163,
      "velocity": 115,
      "chip": "ym2612"
    },
    {
      "channel": 4,
      "note": 67,
      "start": 69.1832,
      "duration": 0.0163,
      "velocity": 120,
      "chip": "ym2612"
    },
    {
      "channel": 3,
      "note": 74,
      "start": 69.1844,
      "duration": 0.0163,
      "velocity": 120,
      "chip": "ym2612"
    },
    {
      "channel": 2,
      "note": 47,
      "start": 69.1854,
      "duration": 0.0163,
      "velocity": 100,
      "chip": "ym2612"
    },
    {
      "channel": 0,
      "note": 46,
      "start": 69.1983,
      "duration": 0.0172,
      "velocity": 124,
      "chip": "ym2612"
    },
    {
      "channel": 4,
      "note": 67,
      "start": 69.1995,
      "duration": 0.0174,
      "velocity": 120,
      "chip": "ym2612"
    },
    {
      "channel": 3,
      "note": 74,
      "start": 69.2006,
      "duration": 0.0177,
      "velocity": 120,
      "chip": "ym2612"
    },
    {
      "channel": 2,
      "note": 47,
      "start": 69.2018,
      "duration": 0.018,
      "velocity": 100,
      "chip": "ym2612"
    },
    {
      "channel": 0,
      "note": 84,
      "start": 69.2156,
      "duration": 0.0165,
      "velocity": 124,
      "chip": "ym2612"
    },
    {
      "channel": 4,
      "note": 71,
      "start": 69.217,
      "duration": 0.0163,
      "velocity": 120,
      "chip": "ym2612"
    },
    {
      "channel": 3,
      "note": 78,
      "start": 69.2184,
      "duration": 0.0161,
      "velocity": 120,
      "chip": "ym2612"
    },
    {
      "channel": 2,
      "note": 47,
      "start": 69.2198,
      "duration": 0.0159,
      "velocity": 100,
      "chip": "ym2612"
    },
    {
      "channel": 0,
      "note": 82,
      "start": 69.2321,
      "duration": 0.0167,
      "velocity": 124,
      "chip": "ym2612"
    },
    {
      "channel": 4,
      "note": 71,
      "start": 69.2333,
      "duration": 0.0165,
      "velocity": 120,
      "chip": "ym2612"
    },
    {
      "channel": 3,
      "note": 78,
      "start": 69.2345,
      "duration": 0.0166,
      "velocity": 120,
      "chip": "ym2612"
    },
    {
      "channel": 2,
      "note": 47,
      "start": 69.2357,
      "duration": 0.0165,
      "velocity": 100,
      "chip": "ym2612"
    },
    {
      "channel": 0,
      "note": 80,
      "start": 69.2487,
      "duration": 0.0157,
      "velocity": 124,
      "chip": "ym2612"
    },
    {
      "channel": 4,
      "note": 71,
      "start": 69.2499,
      "duration": 0.0158,
      "velocity": 120,
      "chip": "ym2612"
    },
    {
      "channel": 3,
      "note": 78,
      "start": 69.251,
      "duration": 0.0157,
      "velocity": 120,
      "chip": "ym2612"
    },
    {
      "channel": 2,
      "note": 47,
      "start": 69.2522,
      "duration": 0.0157,
      "velocity": 100,
      "chip": "ym2612"
    },
    {
      "channel": 0,
      "note": 77,
      "start": 69.2644,
      "duration": 0.0141,
      "velocity": 124,
      "chip": "ym2612"
    },
    {
      "channel": 4,
      "note": 71,
      "start": 69.2656,
      "duration": 0.014,
      "velocity": 120,
      "chip": "ym2612"
    },
    {
      "channel": 3,
      "note": 78,
      "start": 69.2667,
      "duration": 0.0141,
      "velocity": 120,
      "chip": "ym2612"
    },
    {
      "channel": 2,
      "note": 47,
      "start": 69.2679,
      "duration": 0.0141,
      "velocity": 100,
      "chip": "ym2612"
    },
    {
      "channel": 0,
      "note": 75,
      "start": 69.2785,
      "duration": 0.0185,
      "velocity": 124,
      "chip": "ym2612"
    },
    {
      "channel": 4,
      "note": 71,
      "start": 69.2796,
      "duration": 0.0185,
      "velocity": 120,
      "chip": "ym2612"
    },
    {
      "channel": 3,
      "note": 78,
      "start": 69.2808,
      "duration": 0.0185,
      "velocity": 120,
      "chip": "ym2612"
    },
    {
      "channel": 2,
      "note": 47,
      "start": 69.2819,
      "duration": 0.0185,
      "velocity": 100,
      "chip": "ym2612"
    },
    {
      "channel": 0,
      "note": 72,
      "start": 69.297,
      "duration": 0.0134,
      "velocity": 124,
      "chip": "ym2612"
    },
    {
      "channel": 4,
      "note": 71,
      "start": 69.2982,
      "duration": 0.0161,
      "velocity": 120,
      "chip": "ym2612"
    },
    {
      "channel": 3,
      "note": 78,
      "start": 69.2993,
      "duration": 0.0162,
      "velocity": 120,
      "chip": "ym2612"
    },
    {
      "channel": 2,
      "note": 47,
      "start": 69.3005,
      "duration": 0.0161,
      "velocity": 100,
      "chip": "ym2612"
    },
    {
      "channel": 0,
      "note": 70,
      "start": 69.3104,
      "duration": 0.0161,
      "velocity": 124,
      "chip": "ym2612"
    },
    {
      "channel": 4,
      "note": 71,
      "start": 69.3143,
      "duration": 0.0157,
      "velocity": 120,
      "chip": "ym2612"
    },
    {
      "channel": 3,
      "note": 78,
      "start": 69.3155,
      "duration": 0.0157,
      "velocity": 120,
      "chip": "ym2612"
    },
    {
      "channel": 2,
      "note": 47,
      "start": 69.3165,
      "duration": 0.0157,
      "velocity": 100,
      "chip": "ym2612"
    },
    {
      "channel": 0,
      "note": 68,
      "start": 69.3265,
      "duration": 0.0161,
      "velocity": 124,
      "chip": "ym2612"
    },
    {
      "channel": 4,
      "note": 71,
      "start": 69.33,
      "duration": 0.0137,
      "velocity": 120,
      "chip": "ym2612"
    },
    {
      "channel": 3,
      "note": 78,
      "start": 69.3312,
      "duration": 0.014,
      "velocity": 120,
      "chip": "ym2612"
    },
    {
      "channel": 2,
      "note": 47,
      "start": 69.3322,
      "duration": 0.0141,
      "velocity": 100,
      "chip": "ym2612"
    },
    {
      "channel": 0,
      "note": 65,
      "start": 69.3426,
      "duration": 0.0161,
      "velocity": 124,
      "chip": "ym2612"
    },
    {
      "channel": 4,
      "note": 71,
      "start": 69.3437,
      "duration": 0.0162,
      "velocity": 120,
      "chip": "ym2612"
    },
    {
      "channel": 3,
      "note": 78,
      "start": 69.3452,
      "duration": 0.0186,
      "velocity": 120,
      "chip": "ym2612"
    },
    {
      "channel": 2,
      "note": 47,
      "start": 69.3463,
      "duration": 0.0185,
      "velocity": 100,
      "chip": "ym2612"
    },
    {
      "channel": 0,
      "note": 63,
      "start": 69.3586,
      "duration": 0.0154,
      "velocity": 1,
      "chip": "ym2612"
    },
    {
      "channel": 4,
      "note": 71,
      "start": 69.3599,
      "duration": 0.0153,
      "velocity": 120,
      "chip": "ym2612"
    },
    {
      "channel": 3,
      "note": 78,
      "start": 69.3637,
      "duration": 0.0125,
      "velocity": 120,
      "chip": "ym2612"
    },
    {
      "channel": 2,
      "note": 47,
      "start": 69.3648,
      "duration": 0.0153,
      "velocity": 100,
      "chip": "ym2612"
    },
    {
      "channel": 4,
      "note": 71,
      "start": 69.3751,
      "duration": 0.0153,
      "velocity": 120,
      "chip": "ym2612"
    },
    {
      "channel": 3,
      "note": 78,
      "start": 69.3763,
      "duration": 0.0153,
      "velocity": 120,
      "chip": "ym2612"
    },
    {
      "channel": 2,
      "note": 47,
      "start": 69.3802,
      "duration": 0.0125,
      "velocity": 100,
      "chip": "ym2612"
    },
    {
      "channel": 4,
      "note": 71,
      "start": 69.3904,
      "duration": 0.0163,
      "velocity": 120,
      "chip": "ym2612"
    },
    {
      "channel": 3,
      "note": 78,
      "start": 69.3915,
      "duration": 0.0165,
      "velocity": 120,
      "chip": "ym2612"
    },
    {
      "channel": 2,
      "note": 47,
      "start": 69.3926,
      "duration": 0.0169,
      "velocity": 100,
      "chip": "ym2612"
    },
    {
      "channel": 4,
      "note": 64,
      "start": 69.4067,
      "duration": 0.0159,
      "velocity": 120,
      "chip": "ym2612"
    },
    {
      "channel": 3,
      "note": 71,
      "start": 69.4081,
      "duration": 0.0157,
      "velocity": 120,
      "chip": "ym2612"
    },
    {
      "channel": 2,
      "note": 47,
      "start": 69.4096,
      "duration": 0.0154,
      "velocity": 100,
      "chip": "ym2612"
    },
    {
      "channel": 4,
      "note": 64,
      "start": 69.4227,
      "duration": 0.016,
      "velocity": 120,
      "chip": "ym2612"
    },
    {
      "channel": 3,
      "note": 71,
      "start": 69.4239,
      "duration": 0.016,
      "velocity": 120,
      "chip": "ym2612"
    },
    {
      "channel": 2,
      "note": 47,
      "start": 69.425,
      "duration": 0.016,
      "velocity": 100,
      "chip": "ym2612"
    },
    {
      "channel": 4,
      "note": 64,
      "start": 69.4387,
      "duration": 0.0161,
      "velocity": 120,
      "chip": "ym2612"
    },
    {
      "channel": 3,
      "note": 71,
      "start": 69.4398,
      "duration": 0.0161,
      "velocity": 120,
      "chip": "ym2612"
    },
    {
      "channel": 2,
      "note": 47,
      "start": 69.441,
      "duration": 0.0161,
      "velocity": 100,
      "chip": "ym2612"
    },
    {
      "channel": 4,
      "note": 64,
      "start": 69.4548,
      "duration": 0.0161,
      "velocity": 120,
      "chip": "ym2612"
    },
    {
      "channel": 3,
      "note": 71,
      "start": 69.4559,
      "duration": 0.0161,
      "velocity": 120,
      "chip": "ym2612"
    },
    {
      "channel": 2,
      "note": 47,
      "start": 69.4571,
      "duration": 0.0161,
      "velocity": 100,
      "chip": "ym2612"
    },
    {
      "channel": 4,
      "note": 64,
      "start": 69.4709,
      "duration": 0.0161,
      "velocity": 120,
      "chip": "ym2612"
    },
    {
      "channel": 3,
      "note": 71,
      "start": 69.472,
      "duration": 0.0161,
      "velocity": 120,
      "chip": "ym2612"
    },
    {
      "channel": 2,
      "note": 47,
      "start": 69.4732,
      "duration": 0.0161,
      "velocity": 100,
      "chip": "ym2612"
    },
    {
      "channel": 4,
      "note": 64,
      "start": 69.487,
      "duration": 0.0161,
      "velocity": 120,
      "chip": "ym2612"
    },
    {
      "channel": 3,
      "note": 71,
      "start": 69.4881,
      "duration": 0.0161,
      "velocity": 120,
      "chip": "ym2612"
    },
    {
      "channel": 2,
      "note": 47,
      "start": 69.4893,
      "duration": 0.0161,
      "velocity": 100,
      "chip": "ym2612"
    },
    {
      "channel": 4,
      "note": 64,
      "start": 69.5031,
      "duration": 0.0161,
      "velocity": 120,
      "chip": "ym2612"
    },
    {
      "channel": 3,
      "note": 71,
      "start": 69.5042,
      "duration": 0.0162,
      "velocity": 120,
      "chip": "ym2612"
    },
    {
      "channel": 2,
      "note": 47,
      "start": 69.5054,
      "duration": 0.0161,
      "velocity": 100,
      "chip": "ym2612"
    },
    {
      "channel": 4,
      "note": 64,
      "start": 69.5192,
      "duration": 0.0161,
      "velocity": 120,
      "chip": "ym2612"
    },
    {
      "channel": 3,
      "note": 71,
      "start": 69.5204,
      "duration": 0.0161,
      "velocity": 120,
      "chip": "ym2612"
    },
    {
      "channel": 2,
      "note": 47,
      "start": 69.5214,
      "duration": 0.0161,
      "velocity": 100,
      "chip": "ym2612"
    },
    {
      "channel": 4,
      "note": 64,
      "start": 69.5353,
      "duration": 0.0161,
      "velocity": 120,
      "chip": "ym2612"
    },
    {
      "channel": 3,
      "note": 71,
      "start": 69.5364,
      "duration": 0.0161,
      "velocity": 120,
      "chip": "ym2612"
    },
    {
      "channel": 2,
      "note": 47,
      "start": 69.5375,
      "duration": 0.0161,
      "velocity": 100,
      "chip": "ym2612"
    },
    {
      "channel": 4,
      "note": 64,
      "start": 69.5514,
      "duration": 0.0161,
      "velocity": 120,
      "chip": "ym2612"
    },
    {
      "channel": 3,
      "note": 71,
      "start": 69.5525,
      "duration": 0.0161,
      "velocity": 120,
      "chip": "ym2612"
    },
    {
      "channel": 2,
      "note": 47,
      "start": 69.5536,
      "duration": 0.0161,
      "velocity": 100,
      "chip": "ym2612"
    },
    {
      "channel": 4,
      "note": 64,
      "start": 69.5675,
      "duration": 0.0161,
      "velocity": 120,
      "chip": "ym2612"
    },
    {
      "channel": 3,
      "note": 71,
      "start": 69.5686,
      "duration": 0.0161,
      "velocity": 120,
      "chip": "ym2612"
    },
    {
      "channel": 2,
      "note": 47,
      "start": 69.5698,
      "duration": 0.0161,
      "velocity": 100,
      "chip": "ym2612"
    },
    {
      "channel": 4,
      "note": 64,
      "start": 69.5836,
      "duration": 0.0198,
      "velocity": 120,
      "chip": "ym2612"
    },
    {
      "channel": 3,
      "note": 71,
      "start": 69.5847,
      "duration": 0.02,
      "velocity": 120,
      "chip": "ym2612"
    },
    {
      "channel": 2,
      "note": 47,
      "start": 69.5859,
      "duration": 0.0204,
      "velocity": 100,
      "chip": "ym2612"
    },
    {
      "channel": 0,
      "note": 36,
      "start": 69.602,
      "duration": 0.0144,
      "velocity": 115,
      "chip": "ym2612"
    },
    {
      "channel": 4,
      "note": 67,
      "start": 69.6034,
      "duration": 0.0141,
      "velocity": 120,
      "chip": "ym2612"
    },
    {
      "channel": 3,
      "note": 74,
      "start": 69.6048,
      "duration": 0.014,
      "velocity": 120,
      "chip": "ym2612"
    },
    {
      "channel": 2,
      "note": 47,
      "start": 69.6062,
      "duration": 0.0137,
      "velocity": 100,
      "chip": "ym2612"
    },
    {
      "channel": 0,
      "note": 36,
      "start": 69.6163,
      "duration": 0.016,
      "velocity": 115,
      "chip": "ym2612"
    },
    {
      "channel": 4,
      "note": 67,
      "start": 69.6176,
      "duration": 0.016,
      "velocity": 120,
      "chip": "ym2612"
    },
    {
      "channel": 3,
      "note": 74,
      "start": 69.6188,
      "duration": 0.0159,
      "velocity": 120,
      "chip": "ym2612"
    },
    {
      "channel": 2,
      "note": 47,
      "start": 69.6199,
      "duration": 0.0159,
      "velocity": 100,
      "chip": "ym2612"
    },
    {
      "channel": 0,
      "note": 37,
      "start": 69.6324,
      "duration": 0.0163,
      "velocity": 115,
      "chip": "ym2612"
    },
    {
      "channel": 4,
      "note": 67,
      "start": 69.6335,
      "duration": 0.0163,
      "velocity": 120,
      "chip": "ym2612"
    },
    {
      "channel": 3,
      "note": 74,
      "start": 69.6347,
      "duration": 0.0163,
      "velocity": 120,
      "chip": "ym2612"
    },
    {
      "channel": 2,
      "note": 47,
      "start": 69.6358,
      "duration": 0.0163,
      "velocity": 100,
      "chip": "ym2612"
    },
    {
      "channel": 0,
      "note": 37,
      "start": 69.6487,
      "duration": 0.0163,
      "velocity": 115,
      "chip": "ym2612"
    },
    {
      "channel": 4,
      "note": 67,
      "start": 69.6499,
      "duration": 0.0163,
      "velocity": 120,
      "chip": "ym2612"
    },
    {
      "channel": 3,
      "note": 74,
      "start": 69.651,
      "duration": 0.0163,
      "velocity": 120,
      "chip": "ym2612"
    },
    {
      "channel": 2,
      "note": 47,
      "start": 69.6521,
      "duration": 0.0163,
      "velocity": 100,
      "chip": "ym2612"
    },
    {
      "channel": 0,
      "note": 38,
      "start": 69.665,
      "duration": 0.0156,
      "velocity": 115,
      "chip": "ym2612"
    },
    {
      "channel": 4,
      "note": 67,
      "start": 69.6661,
      "duration": 0.0157,
      "velocity": 120,
      "chip": "ym2612"
    },
    {
      "channel": 3,
      "note": 74,
      "start": 69.6673,
      "duration": 0.0156,
      "velocity": 120,
      "chip": "ym2612"
    },
    {
      "channel": 2,
      "note": 47,
      "start": 69.6684,
      "duration": 0.0157,
      "velocity": 100,
      "chip": "ym2612"
    },
    {
      "channel": 0,
      "note": 38,
      "start": 69.6807,
      "duration": 0.0181,
      "velocity": 115,
      "chip": "ym2612"
    },
    {
      "channel": 4,
      "note": 67,
      "start": 69.6818,
      "duration": 0.018,
      "velocity": 120,
      "chip": "ym2612"
    },
    {
      "channel": 3,
      "note": 74,
      "start": 69.6829,
      "duration": 0.0181,
      "velocity": 120,
      "chip": "ym2612"
    },
    {
      "channel": 2,
      "note": 47,
      "start": 69.6841,
      "duration": 0.018,
      "velocity": 100,
      "chip": "ym2612"
    },
    {
      "channel": 0,
      "note": 39,
      "start": 69.6987,
      "duration": 0.0167,
      "velocity": 115,
      "chip": "ym2612"
    },
    {
      "channel": 4,
      "note": 67,
      "start": 69.6999,
      "duration": 0.0167,
      "velocity": 120,
      "chip": "ym2612"
    },
    {
      "channel": 3,
      "note": 74,
      "start": 69.701,
      "duration": 0.0167,
      "velocity": 120,
      "chip": "ym2612"
    },
    {
      "channel": 2,
      "note": 47,
      "start": 69.7021,
      "duration": 0.0167,
      "velocity": 100,
      "chip": "ym2612"
    },
    {
      "channel": 0,
      "note": 39,
      "start": 69.7154,
      "duration": 0.016,
      "velocity": 115,
      "chip": "ym2612"
    },
    {
      "channel": 4,
      "note": 67,
      "start": 69.7165,
      "duration": 0.016,
      "velocity": 120,
      "chip": "ym2612"
    },
    {
      "channel": 3,
      "note": 74,
      "start": 69.7177,
      "duration": 0.016,
      "velocity": 120,
      "chip": "ym2612"
    },
    {
      "channel": 2,
      "note": 47,
      "start": 69.7188,
      "duration": 0.016,
      "velocity": 100,
      "chip": "ym2612"
    },
    {
      "channel": 0,
      "note": 40,
      "start": 69.7314,
      "duration": 0.0141,
      "velocity": 115,
      "chip": "ym2612"
    },
    {
      "channel": 4,
      "note": 67,
      "start": 69.7325,
      "duration": 0.0141,
      "velocity": 120,
      "chip": "ym2612"
    },
    {
      "channel": 3,
      "note": 74,
      "start": 69.7337,
      "duration": 0.0141,
      "velocity": 120,
      "chip": "ym2612"
    },
    {
      "channel": 2,
      "note": 47,
      "start": 69.7348,
      "duration": 0.0141,
      "velocity": 100,
      "chip": "ym2612"
    },
    {
      "channel": 0,
      "note": 40,
      "start": 69.7454,
      "duration": 0.0185,
      "velocity": 115,
      "chip": "ym2612"
    },
    {
      "channel": 4,
      "note": 67,
      "start": 69.7466,
      "duration": 0.0185,
      "velocity": 120,
      "chip": "ym2612"
    },
    {
      "channel": 3,
      "note": 74,
      "start": 69.7477,
      "duration": 0.0185,
      "velocity": 120,
      "chip": "ym2612"
    },
    {
      "channel": 2,
      "note": 47,
      "start": 69.7488,
      "duration": 0.0185,
      "velocity": 100,
      "chip": "ym2612"
    },
    {
      "channel": 0,
      "note": 40,
      "start": 69.7639,
      "duration": 0.0134,
      "velocity": 115,
      "chip": "ym2612"
    },
    {
      "channel": 4,
      "note": 67,
      "start": 69.7651,
      "duration": 0.0161,
      "velocity": 120,
      "chip": "ym2612"
    },
    {
      "channel": 3,
      "note": 74,
      "start": 69.7662,
      "duration": 0.0161,
      "velocity": 120,
      "chip": "ym2612"
    },
    {
      "channel": 2,
      "note": 47,
      "start": 69.7674,
      "duration": 0.0161,
      "velocity": 100,
      "chip": "ym2612"
    },
    {
      "channel": 0,
      "note": 41,
      "start": 69.7773,
      "duration": 0.0161,
      "velocity": 115,
      "chip": "ym2612"
    },
    {
      "channel": 4,
      "note": 67,
      "start": 69.7812,
      "duration": 0.016,
      "velocity": 120,
      "chip": "ym2612"
    },
    {
      "channel": 3,
      "note": 74,
      "start": 69.7823,
      "duration": 0.0162,
      "velocity": 120,
      "chip": "ym2612"
    },
    {
      "channel": 2,
      "note": 47,
      "start": 69.7835,
      "duration": 0.0165,
      "velocity": 100,
      "chip": "ym2612"
    },
    {
      "channel": 0,
      "note": 41,
      "start": 69.7934,
      "duration": 0.0161,
      "velocity": 115,
      "chip": "ym2612"
    },
    {
      "channel": 4,
      "note": 71,
      "start": 69.7972,
      "duration": 0.0136,
      "velocity": 120,
      "chip": "ym2612"
    },
    {
      "channel": 3,
      "note": 78,
      "start": 69.7986,
      "duration": 0.0136,
      "velocity": 120,
      "chip": "ym2612"
    },
    {
      "channel": 2,
      "note": 47,
      "start": 69.8001,
      "duration": 0.0134,
      "velocity": 100,
      "chip": "ym2612"
    },
    {
      "channel": 0,
      "note": 42,
      "start": 69.8095,
      "duration": 0.0161,
      "velocity": 115,
      "chip": "ym2612"
    },
    {
      "channel": 4,
      "note": 71,
      "start": 69.8108,
      "duration": 0.016,
      "velocity": 120,
      "chip": "ym2612"
    },
    {
      "channel": 3,
      "note": 78,
      "start": 69.8122,
      "duration": 0.0184,
      "velocity": 120,
      "chip": "ym2612"
    },
    {
      "channel": 2,
      "note": 47,
      "start": 69.8134,
      "duration": 0.0183,
      "velocity": 100,
      "chip": "ym2612"
    },
    {
      "channel": 0,
      "note": 42,
      "start": 69.8256,
      "duration": 0.0161,
      "velocity": 115,
      "chip": "ym2612"
    },
    {
      "channel": 4,
      "note": 71,
      "start": 69.8268,
      "duration": 0.0161,
      "velocity": 120,
      "chip": "ym2612"
    },
    {
      "channel": 3,
      "note": 78,
      "start": 69.8307,
      "duration": 0.016,
      "velocity": 120,
      "chip": "ym2612"
    },
    {
      "channel": 2,
      "note": 47,
      "start": 69.8317,
      "duration": 0.0161,
      "velocity": 100,
      "chip": "ym2612"
    },
    {
      "channel": 0,
      "note": 43,
      "start": 69.8417,
      "duration": 0.0162,
      "velocity": 115,
      "chip": "ym2612"
    },
    {
      "channel": 4,
      "note": 71,
      "start": 69.8429,
      "duration": 0.0161,
      "velocity": 120,
      "chip": "ym2612"
    },
    {
      "channel": 3,
      "note": 78,
      "start": 69.8467,
      "duration": 0.0134,
      "velocity": 120,
      "chip": "ym2612"
    },
    {
      "channel": 2,
      "note": 47,
      "start": 69.8478,
      "duration": 0.0158,
      "velocity": 100,
      "chip": "ym2612"
    },
    {
      "channel": 0,
      "note": 43,
      "start": 69.8578,
      "duration": 0.0161,
      "velocity": 115,
      "chip": "ym2612"
    },
    {
      "channel": 4,
      "note": 71,
      "start": 69.859,
      "duration": 0.0161,
      "velocity": 120,
      "chip": "ym2612"
    },
    {
      "channel": 3,
      "note": 78,
      "start": 69.8601,
      "duration": 0.0161,
      "velocity": 120,
      "chip": "ym2612"
    },
    {
      "channel": 2,
      "note": 47,
      "start": 69.8636,
      "duration": 0.0138,
      "velocity": 100,
      "chip": "ym2612"
    },
    {
      "channel": 0,
      "note": 44,
      "start": 69.8739,
      "duration": 0.0161,
      "velocity": 115,
      "chip": "ym2612"
    },
    {
      "channel": 4,
      "note": 71,
      "start": 69.8751,
      "duration": 0.0161,
      "velocity": 120,
      "chip": "ym2612"
    },
    {
      "channel": 3,
      "note": 78,
      "start": 69.8762,
      "duration": 0.0161,
      "velocity": 120,
      "chip": "ym2612"
    },
    {
      "channel": 2,
      "note": 47,
      "start": 69.8774,
      "duration": 0.016,
      "velocity": 100,
      "chip": "ym2612"
    },
    {
      "channel": 0,
      "note": 44,
      "start": 69.89,
      "duration": 0.0161,
      "velocity": 115,
      "chip": "ym2612"
    },
    {
      "channel": 4,
      "note": 71,
      "start": 69.8912,
      "duration": 0.0161,
      "velocity": 120,
      "chip": "ym2612"
    },
    {
      "channel": 3,
      "note": 78,
      "start": 69.8923,
      "duration": 0.0161,
      "velocity": 120,
      "chip": "ym2612"
    },
    {
      "channel": 2,
      "note": 47,
      "start": 69.8934,
      "duration": 0.0161,
      "velocity": 100,
      "chip": "ym2612"
    },
    {
      "channel": 0,
      "note": 44,
      "start": 69.9061,
      "duration": 0.0161,
      "velocity": 115,
      "chip": "ym2612"
    },
    {
      "channel": 4,
      "note": 71,
      "start": 69.9073,
      "duration": 0.0161,
      "velocity": 120,
      "chip": "ym2612"
    },
    {
      "channel": 3,
      "note": 78,
      "start": 69.9084,
      "duration": 0.0161,
      "velocity": 120,
      "chip": "ym2612"
    },
    {
      "channel": 2,
      "note": 47,
      "start": 69.9095,
      "duration": 0.0161,
      "velocity": 100,
      "chip": "ym2612"
    },
    {
      "channel": 0,
      "note": 45,
      "start": 69.9222,
      "duration": 0.0161,
      "velocity": 115,
      "chip": "ym2612"
    },
    {
      "channel": 4,
      "note": 71,
      "start": 69.9233,
      "duration": 0.0161,
      "velocity": 120,
      "chip": "ym2612"
    },
    {
      "channel": 3,
      "note": 78,
      "start": 69.9245,
      "duration": 0.0161,
      "velocity": 120,
      "chip": "ym2612"
    },
    {
      "channel": 2,
      "note": 47,
      "start": 69.9256,
      "duration": 0.0161,
      "velocity": 100,
      "chip": "ym2612"
    },
    {
      "channel": 0,
      "note": 45,
      "start": 69.9383,
      "duration": 0.0161,
      "velocity": 115,
      "chip": "ym2612"
    },
    {
      "channel": 4,
      "note": 71,
      "start": 69.9394,
      "duration": 0.0161,
      "velocity": 120,
      "chip": "ym2612"
    },
    {
      "channel": 3,
      "note": 78,
      "start": 69.9406,
      "duration": 0.0161,
      "velocity": 120,
      "chip": "ym2612"
    },
    {
      "channel": 2,
      "note": 47,
      "start": 69.9417,
      "duration": 0.0161,
      "velocity": 100,
      "chip": "ym2612"
    },
    {
      "channel": 0,
      "note": 46,
      "start": 69.9544,
      "duration": 0.0161,
      "velocity": 115,
      "chip": "ym2612"
    },
    {
      "channel": 4,
      "note": 71,
      "start": 69.9555,
      "duration": 0.0162,
      "velocity": 120,
      "chip": "ym2612"
    },
    {
      "channel": 3,
      "note": 78,
      "start": 69.9567,
      "duration": 0.0161,
      "velocity": 120,
      "chip": "ym2612"
    },
    {
      "channel": 2,
      "note": 47,
      "start": 69.9578,
      "duration": 0.0161,
      "velocity": 100,
      "chip": "ym2612"
    },
    {
      "channel": 0,
      "note": 46,
      "start": 69.9705,
      "duration": 0.0179,
      "velocity": 124,
      "chip": "ym2612"
    },
    {
      "channel": 4,
      "note": 71,
      "start": 69.9717,
      "duration": 0.018,
      "velocity": 120,
      "chip": "ym2612"
    },
    {
      "channel": 3,
      "note": 78,
      "start": 69.9728,
      "duration": 0.0184,
      "velocity": 120,
      "chip": "ym2612"
    },
    {
      "channel": 2,
      "note": 47,
      "start": 69.9739,
      "duration": 0.0187,
      "velocity": 100,
      "chip": "ym2612"
    },
    {
      "channel": 0,
      "note": 84,
      "start": 69.9884,
      "duration": 0.0144,
      "velocity": 124,
      "chip": "ym2612"
    },
    {
      "channel": 4,
      "note": 64,
      "start": 69.9898,
      "duration": 0.0142,
      "velocity": 120,
      "chip": "ym2612"
    },
    {
      "channel": 3,
      "note": 71,
      "start": 69.9912,
      "duration": 0.0139,
      "velocity": 120,
      "chip": "ym2612"
    },
    {
      "channel": 2,
      "note": 47,
      "start": 69.9927,
      "duration": 0.0137,
      "velocity": 100,
      "chip": "ym2612"
    },
    {
      "channel": 0,
      "note": 82,
      "start": 70.0028,
      "duration": 0.016,
      "velocity": 124,
      "chip": "ym2612"
    },
    {
      "channel": 4,
      "note": 64,
      "start": 70.004,
      "duration": 0.016,
      "velocity": 120,
      "chip": "ym2612"
    },
    {
      "channel": 3,
      "note": 71,
      "start": 70.0051,
      "duration": 0.016,
      "velocity": 120,
      "chip": "ym2612"
    },
    {
      "channel": 2,
      "note": 47,
      "start": 70.0063,
      "duration": 0.0159,
      "velocity": 100,
      "chip": "ym2612"
    },
    {
      "channel": 0,
      "note": 80,
      "start": 70.0188,
      "duration": 0.0161,
      "velocity": 124,
      "chip": "ym2612"
    },
    {
      "channel": 4,
      "note": 64,
      "start": 70.02,
      "duration": 0.0161,
      "velocity": 120,
      "chip": "ym2612"
    },
    {
      "channel": 3,
      "note": 71,
      "start": 70.0211,
      "duration": 0.0161,
      "velocity": 120,
      "chip": "ym2612"
    },
    {
      "channel": 2,
      "note": 47,
      "start": 70.0223,
      "duration": 0.0161,
      "velocity": 100,
      "chip": "ym2612"
    },
    {
      "channel": 0,
      "note": 77,
      "start": 70.0349,
      "duration": 0.0161,
      "velocity": 124,
      "chip": "ym2612"
    },
    {
      "channel": 4,
      "note": 64,
      "start": 70.0361,
      "duration": 0.0161,
      "velocity": 120,
      "chip": "ym2612"
    },
    {
      "channel": 3,
      "note": 71,
      "start": 70.0372,
      "duration": 0.0161,
      "velocity": 120,
      "chip": "ym2612"
    },
    {
      "channel": 2,
      "note": 47,
      "start": 70.0384,
      "duration": 0.0161,
      "velocity": 100,
      "chip": "ym2612"
    },
    {
      "channel": 0,
      "note": 75,
      "start": 70.051,
      "duration": 0.0161,
      "velocity": 124,
      "chip": "ym2612"
    },
    {
      "channel": 4,
      "note": 64,
      "start": 70.0522,
      "duration": 0.0161,
      "velocity": 120,
      "chip": "ym2612"
    },
    {
      "channel": 3,
      "note": 71,
      "start": 70.0533,
      "duration": 0.0161,
      "velocity": 120,
      "chip": "ym2612"
    },
    {
      "channel": 2,
      "note": 47,
      "start": 70.0544,
      "duration": 0.0161,
      "velocity": 100,
      "chip": "ym2612"
    },
    {
      "channel": 0,
      "note": 72,
      "start": 70.0671,
      "duration": 0.0161,
      "velocity": 124,
      "chip": "ym2612"
    },
    {
      "channel": 4,
      "note": 64,
      "start": 70.0683,
      "duration": 0.0161,
      "velocity": 120,
      "chip": "ym2612"
    },
    {
      "channel": 3,
      "note": 71,
      "start": 70.0694,
      "duration": 0.0161,
      "velocity": 120,
      "chip": "ym2612"
    },
    {
      "channel": 2,
      "note": 47,
      "start": 70.0705,
      "duration": 0.0161,
      "velocity": 100,
      "chip": "ym2612"
    },
    {
      "channel": 0,
      "note": 70,
      "start": 70.0832,
      "duration": 0.0161,
      "velocity": 124,
      "chip": "ym2612"
    },
    {
      "channel": 4,
      "note": 64,
      "start": 70.0844,
      "duration": 0.0161,
      "velocity": 120,
      "chip": "ym2612"
    },
    {
      "channel": 3,
      "note": 71,
      "start": 70.0855,
      "duration": 0.0161,
      "velocity": 120,
      "chip": "ym2612"
    },
    {
      "channel": 2,
      "note": 47,
      "start": 70.0866,
      "duration": 0.0161,
      "velocity": 100,
      "chip": "ym2612"
    },
    {
      "channel": 0,
      "note": 68,
      "start": 70.0993,
      "duration": 0.0162,
      "velocity": 124,
      "chip": "ym2612"
    },
    {
      "channel": 4,
      "note": 64,
      "start": 70.1005,
      "duration": 0.0161,
      "velocity": 120,
      "chip": "ym2612"
    },
    {
      "channel": 3,
      "note": 71,
      "start": 70.1016,
      "duration": 0.0162,
      "velocity": 120,
      "chip": "ym2612"
    },
    {
      "channel": 2,
      "note": 47,
      "start": 70.1027,
      "duration": 0.0161,
      "velocity": 100,
      "chip": "ym2612"
    },
    {
      "channel": 0,
      "note": 65,
      "start": 70.1155,
      "duration": 0.0162,
      "velocity": 124,
      "chip": "ym2612"
    },
    {
      "channel": 4,
      "note": 64,
      "start": 70.1166,
      "duration": 0.0162,
      "velocity": 120,
      "chip": "ym2612"
    },
    {
      "channel": 3,
      "note": 71,
      "start": 70.1178,
      "duration": 0.0162,
      "velocity": 120,
      "chip": "ym2612"
    },
    {
      "channel": 2,
      "note": 47,
      "start": 70.1188,
      "duration": 0.0163,
      "velocity": 100,
      "chip": "ym2612"
    },
    {
      "channel": 0,
      "note": 63,
      "start": 70.1317,
      "duration": 0.0151,
      "velocity": 1,
      "chip": "ym2612"
    },
    {
      "channel": 4,
      "note": 64,
      "start": 70.1328,
      "duration": 0.0151,
      "velocity": 120,
      "chip": "ym2612"
    },
    {
      "channel": 3,
      "note": 71,
      "start": 70.134,
      "duration": 0.0151,
      "velocity": 120,
      "chip": "ym2612"
    },
    {
      "channel": 2,
      "note": 47,
      "start": 70.1351,
      "duration": 0.0151,
      "velocity": 100,
      "chip": "ym2612"
    },
    {
      "channel": 4,
      "note": 64,
      "start": 70.148,
      "duration": 0.0169,
      "velocity": 120,
      "chip": "ym2612"
    },
    {
      "channel": 3,
      "note": 71,
      "start": 70.1491,
      "duration": 0.0169,
      "velocity": 120,
      "chip": "ym2612"
    },
    {
      "channel": 2,
      "note": 47,
      "start": 70.1502,
      "duration": 0.0169,
      "velocity": 100,
      "chip": "ym2612"
    },
    {
      "channel": 4,
      "note": 64,
      "start": 70.1649,
      "duration": 0.0203,
      "velocity": 120,
      "chip": "ym2612"
    },
    {
      "channel": 3,
      "note": 71,
      "start": 70.166,
      "duration": 0.0205,
      "velocity": 120,
      "chip": "ym2612"
    },
    {
      "channel": 2,
      "note": 47,
      "start": 70.1671,
      "duration": 0.0209,
      "velocity": 100,
      "chip": "ym2612"
    },
    {
      "channel": 0,
      "note": 36,
      "start": 70.1838,
      "duration": 0.0145,
      "velocity": 115,
      "chip": "ym2612"
    },
    {
      "channel": 4,
      "note": 67,
      "start": 70.1852,
      "duration": 0.0143,
      "velocity": 120,
      "chip": "ym2612"
    },
    {
      "channel": 3,
      "note": 74,
      "start": 70.1866,
      "duration": 0.0141,
      "velocity": 120,
      "chip": "ym2612"
    },
    {
      "channel": 2,
      "note": 47,
      "start": 70.1881,
      "duration": 0.0139,
      "velocity": 100,
      "chip": "ym2612"
    },
    {
      "channel": 0,
      "note": 36,
      "start": 70.1983,
      "duration": 0.014,
      "velocity": 115,
      "chip": "ym2612"
    },
    {
      "channel": 4,
      "note": 67,
      "start": 70.1995,
      "duration": 0.0139,
      "velocity": 120,
      "chip": "ym2612"
    },
    {
      "channel": 3,
      "note": 74,
      "start": 70.2008,
      "duration": 0.0139,
      "velocity": 120,
      "chip": "ym2612"
    },
    {
      "channel": 2,
      "note": 47,
      "start": 70.202,
      "duration": 0.0138,
      "velocity": 100,
      "chip": "ym2612"
    },
    {
      "channel": 0,
      "note": 37,
      "start": 70.2123,
      "duration": 0.0185,
      "velocity": 115,
      "chip": "ym2612"
    },
    {
      "channel": 4,
      "note": 67,
      "start": 70.2135,
      "duration": 0.0185,
      "velocity": 120,
      "chip": "ym2612"
    },
    {
      "channel": 3,
      "note": 74,
      "start": 70.2146,
      "duration": 0.0185,
      "velocity": 120,
      "chip": "ym2612"
    },
    {
      "channel": 2,
      "note": 47,
      "start": 70.2158,
      "duration": 0.0185,
      "velocity": 100,
      "chip": "ym2612"
    },
    {
      "channel": 0,
      "note": 37,
      "start": 70.2309,
      "duration": 0.0161,
      "velocity": 115,
      "chip": "ym2612"
    },
    {
      "channel": 4,
      "note": 67,
      "start": 70.232,
      "duration": 0.0161,
      "velocity": 120,
      "chip": "ym2612"
    },
    {
      "channel": 3,
      "note": 74,
      "start": 70.2332,
      "duration": 0.0161,
      "velocity": 120,
      "chip": "ym2612"
    },
    {
      "channel": 2,
      "note": 47,
      "start": 70.2343,
      "duration": 0.0161,
      "velocity": 100,
      "chip": "ym2612"
    },
    {
      "channel": 0,
      "note": 38,
      "start": 70.2469,
      "duration": 0.0134,
      "velocity": 115,
      "chip": "ym2612"
    },
    {
      "channel": 4,
      "note": 67,
      "start": 70.2481,
      "duration": 0.0158,
      "velocity": 120,
      "chip": "ym2612"
    },
    {
      "channel": 3,
      "note": 74,
      "start": 70.2492,
      "duration": 0.0158,
      "velocity": 120,
      "chip": "ym2612"
    },
    {
      "channel": 2,
      "note": 47,
      "start": 70.2504,
      "duration": 0.0158,
      "velocity": 100,
      "chip": "ym2612"
    },
    {
      "channel": 0,
      "note": 38,
      "start": 70.2603,
      "duration": 0.0161,
      "velocity": 115,
      "chip": "ym2612"
    },
    {
      "channel": 4,
      "note": 67,
      "start": 70.2639,
      "duration": 0.0141,
      "velocity": 120,
      "chip": "ym2612"
    },
    {
      "channel": 3,
      "note": 74,
      "start": 70.265,
      "duration": 0.0141,
      "velocity": 120,
      "chip": "ym2612"
    },
    {
      "channel": 2,
      "note": 47,
      "start": 70.2661,
      "duration": 0.014,
      "velocity": 100,
      "chip": "ym2612"
    },
    {
      "channel": 0,
      "note": 39,
      "start": 70.2764,
      "duration": 0.0162,
      "velocity": 115,
      "chip": "ym2612"
    },
    {
      "channel": 4,
      "note": 67,
      "start": 70.2779,
      "duration": 0.0158,
      "velocity": 120,
      "chip": "ym2612"
    },
    {
      "channel": 3,
      "note": 74,
      "start": 70.2791,
      "duration": 0.0185,
      "velocity": 120,
      "chip": "ym2612"
    },
    {
      "channel": 2,
      "note": 47,
      "start": 70.2802,
      "duration": 0.0186,
      "velocity": 100,
      "chip": "ym2612"
    },
    {
      "channel": 0,
      "note": 39,
      "start": 70.2926,
      "duration": 0.0161,
      "velocity": 115,
      "chip": "ym2612"
    },
    {
      "channel": 4,
      "note": 67,
      "start": 70.2937,
      "duration": 0.0161,
      "velocity": 120,
      "chip": "ym2612"
    },
    {
      "channel": 3,
      "note": 74,
      "start": 70.2976,
      "duration": 0.0161,
      "velocity": 120,
      "chip": "ym2612"
    },
    {
      "channel": 2,
      "note": 47,
      "start": 70.2987,
      "duration": 0.0161,
      "velocity": 100,
      "chip": "ym2612"
    },
    {
      "channel": 0,
      "note": 40,
      "start": 70.3086,
      "duration": 0.0161,
      "velocity": 115,
      "chip": "ym2612"
    },
    {
      "channel": 4,
      "note": 67,
      "start": 70.3098,
      "duration": 0.0161,
      "velocity": 120,
      "chip": "ym2612"
    },
    {
      "channel": 3,
      "note": 74,
      "start": 70.3137,
      "duration": 0.0134,
      "velocity": 120,
      "chip": "ym2612"
    },
    {
      "channel": 2,
      "note": 47,
      "start": 70.3148,
      "duration": 0.0157,
      "velocity": 100,
      "chip": "ym2612"
    },
    {
      "channel": 0,
      "note": 40,
      "start": 70.3247,
      "duration": 0.0161,
      "velocity": 115,
      "chip": "ym2612"
    },
    {
      "channel": 4,
      "note": 67,
      "start": 70.3259,
      "duration": 0.0161,
      "velocity": 120,
      "chip": "ym2612"
    },
    {
      "channel": 3,
      "note": 74,
      "start": 70.327,
      "duration": 0.0161,
      "velocity": 120,
      "chip": "ym2612"
    },
    {
      "channel": 2,
      "note": 47,
      "start": 70.3305,
      "duration": 0.0141,
      "velocity": 100,
      "chip": "ym2612"
    },
    {
      "channel": 0,
      "note": 40,
      "start": 70.3408,
      "duration": 0.0161,
      "velocity": 115,
      "chip": "ym2612"
    },
    {
      "channel": 4,
      "note": 67,
      "start": 70.342,
      "duration": 0.0161,
      "velocity": 120,
      "chip": "ym2612"
    },
    {
      "channel": 3,
      "note": 74,
      "start": 70.3431,
      "duration": 0.0161,
      "velocity": 120,
      "chip": "ym2612"
    },
    {
      "channel": 2,
      "note": 47,
      "start": 70.3446,
      "duration": 0.0158,
      "velocity": 100,
      "chip": "ym2612"
    },
    {
      "channel": 0,
      "note": 41,
      "start": 70.3569,
      "duration": 0.0179,
      "velocity": 115,
      "chip": "ym2612"
    },
    {
      "channel": 4,
      "note": 67,
      "start": 70.3581,
      "duration": 0.0181,
      "velocity": 120,
      "chip": "ym2612"
    },
    {
      "channel": 3,
      "note": 74,
      "start": 70.3592,
      "duration": 0.0211,
      "velocity": 120,
      "chip": "ym2612"
    },
    {
      "channel": 2,
      "note": 47,
      "start": 70.3604,
      "duration": 0.0215,
      "velocity": 100,
      "chip": "ym2612"
    },
    {
      "channel": 0,
      "note": 36,
      "start": 70.3748,
      "duration": 0.0144,
      "velocity": 115,
      "chip": "ym2612"
    },
    {
      "channel": 4,
      "note": 71,
      "start": 70.3763,
      "duration": 0.0141,
      "velocity": 120,
      "chip": "ym2612"
    },
    {
      "channel": 3,
      "note": 78,
      "start": 70.3804,
      "duration": 0.0112,
      "velocity": 120,
      "chip": "ym2612"
    },
    {
      "channel": 2,
      "note": 47,
      "start": 70.3819,
      "duration": 0.011,
      "velocity": 100,
      "chip": "ym2612"
    },
    {
      "channel": 0,
      "note": 36,
      "start": 70.3892,
      "duration": 0.016,
      "velocity": 115,
      "chip": "ym2612"
    },
    {
      "channel": 4,
      "note": 71,
      "start": 70.3904,
      "duration": 0.016,
      "velocity": 120,
      "chip": "ym2612"
    },
    {
      "channel": 3,
      "note": 78,
      "start": 70.3916,
      "duration": 0.0159,
      "velocity": 120,
      "chip": "ym2612"
    },
    {
      "channel": 2,
      "note": 47,
      "start": 70.3928,
      "duration": 0.0158,
      "velocity": 100,
      "chip": "ym2612"
    },
    {
      "channel": 0,
      "note": 37,
      "start": 70.4052,
      "duration": 0.0161,
      "velocity": 115,
      "chip": "ym2612"
    },
    {
      "channel": 4,
      "note": 71,
      "start": 70.4064,
      "duration": 0.0161,
      "velocity": 120,
      "chip": "ym2612"
    },
    {
      "channel": 3,
      "note": 78,
      "start": 70.4075,
      "duration": 0.0161,
      "velocity": 120,
      "chip": "ym2612"
    },
    {
      "channel": 2,
      "note": 47,
      "start": 70.4086,
      "duration": 0.0161,
      "velocity": 100,
      "chip": "ym2612"
    },
    {
      "channel": 0,
      "note": 37,
      "start": 70.4213,
      "duration": 0.0161,
      "velocity": 115,
      "chip": "ym2612"
    },
    {
      "channel": 4,
      "note": 71,
      "start": 70.4225,
      "duration": 0.0161,
      "velocity": 120,
      "chip": "ym2612"
    },
    {
      "channel": 3,
      "note": 78,
      "start": 70.4236,
      "duration": 0.0161,
      "velocity": 120,
      "chip": "ym2612"
    },
    {
      "channel": 2,
      "note": 47,
      "start": 70.4247,
      "duration": 0.0161,
      "velocity": 100,
      "chip": "ym2612"
    },
    {
      "channel": 0,
      "note": 38,
      "start": 70.4375,
      "duration": 0.0161,
      "velocity": 115,
      "chip": "ym2612"
    },
    {
      "channel": 4,
      "note": 71,
      "start": 70.4386,
      "duration": 0.0161,
      "velocity": 120,
      "chip": "ym2612"
    },
    {
      "channel": 3,
      "note": 78,
      "start": 70.4398,
      "duration": 0.0161,
      "velocity": 120,
      "chip": "ym2612"
    },
    {
      "channel": 2,
      "note": 47,
      "start": 70.4408,
      "duration": 0.0161,
      "velocity": 100,
      "chip": "ym2612"
    },
    {
      "channel": 0,
      "note": 38,
      "start": 70.4536,
      "duration": 0.0161,
      "velocity": 115,
      "chip": "ym2612"
    },
    {
      "channel": 4,
      "note": 71,
      "start": 70.4547,
      "duration": 0.0161,
      "velocity": 120,
      "chip": "ym2612"
    },
    {
      "channel": 3,
      "note": 78,
      "start": 70.4559,
      "duration": 0.0161,
      "velocity": 120,
      "chip": "ym2612"
    },
    {
      "channel": 2,
      "note": 47,
      "start": 70.4569,
      "duration": 0.0161,
      "velocity": 100,
      "chip": "ym2612"
    },
    {
      "channel": 0,
      "note": 39,
      "start": 70.4697,
      "duration": 0.0161,
      "velocity": 115,
      "chip": "ym2612"
    },
    {
      "channel": 4,
      "note": 71,
      "start": 70.4708,
      "duration": 0.0161,
      "velocity": 120,
      "chip": "ym2612"
    },
    {
      "channel": 3,
      "note": 78,
      "start": 70.472,
      "duration": 0.0161,
      "velocity": 120,
      "chip": "ym2612"
    },
    {
      "channel": 2,
      "note": 47,
      "start": 70.4731,
      "duration": 0.0161,
      "velocity": 100,
      "chip": "ym2612"
    },
    {
      "channel": 0,
      "note": 39,
      "start": 70.4858,
      "duration": 0.0161,
      "velocity": 115,
      "chip": "ym2612"
    },
    {
      "channel": 4,
      "note": 71,
      "start": 70.4869,
      "duration": 0.0161,
      "velocity": 120,
      "chip": "ym2612"
    },
    {
      "channel": 3,
      "note": 78,
      "start": 70.488,
      "duration": 0.0161,
      "velocity": 120,
      "chip": "ym2612"
    },
    {
      "channel": 2,
      "note": 47,
      "start": 70.4892,
      "duration": 0.0161,
      "velocity": 100,
      "chip": "ym2612"
    },
    {
      "channel": 0,
      "note": 40,
      "start": 70.5018,
      "duration": 0.0161,
      "velocity": 115,
      "chip": "ym2612"
    },
    {
      "channel": 4,
      "note": 71,
      "start": 70.503,
      "duration": 0.0161,
      "velocity": 120,
      "chip": "ym2612"
    },
    {
      "channel": 3,
      "note": 78,
      "start": 70.5041,
      "duration": 0.0161,
      "velocity": 120,
      "chip": "ym2612"
    },
    {
      "channel": 2,
      "note": 47,
      "start": 70.5053,
      "duration": 0.0161,
      "velocity": 100,
      "chip": "ym2612"
    },
    {
      "channel": 0,
      "note": 40,
      "start": 70.5179,
      "duration": 0.0161,
      "velocity": 115,
      "chip": "ym2612"
    },
    {
      "channel": 4,
      "note": 71,
      "start": 70.5191,
      "duration": 0.0161,
      "velocity": 120,
      "chip": "ym2612"
    },
    {
      "channel": 3,
      "note": 78,
      "start": 70.5202,
      "duration": 0.0161,
      "velocity": 120,
      "chip": "ym2612"
    },
    {
      "channel": 2,
      "note": 47,
      "start": 70.5214,
      "duration": 0.0161,
      "velocity": 100,
      "chip": "ym2612"
    },
    {
      "channel": 0,
      "note": 40,
      "start": 70.534,
      "duration": 0.0161,
      "velocity": 115,
      "chip": "ym2612"
    },
    {
      "channel": 4,
      "note": 71,
      "start": 70.5352,
      "duration": 0.0162,
      "velocity": 120,
      "chip": "ym2612"
    },
    {
      "channel": 3,
      "note": 78,
      "start": 70.5363,
      "duration": 0.0161,
      "velocity": 120,
      "chip": "ym2612"
    },
    {
      "channel": 2,
      "note": 47,
      "start": 70.5375,
      "duration": 0.0161,
      "velocity": 100,
      "chip": "ym2612"
    },
    {
      "channel": 0,
      "note": 41,
      "start": 70.5501,
      "duration": 0.0179,
      "velocity": 115,
      "chip": "ym2612"
    },
    {
      "channel": 4,
      "note": 71,
      "start": 70.5513,
      "duration": 0.0181,
      "velocity": 120,
      "chip": "ym2612"
    },
    {
      "channel": 3,
      "note": 78,
      "start": 70.5524,
      "duration": 0.0184,
      "velocity": 120,
      "chip": "ym2612"
    },
    {
      "channel": 2,
      "note": 47,
      "start": 70.5536,
      "duration": 0.0187,
      "velocity": 100,
      "chip": "ym2612"
    },
    {
      "channel": 0,
      "note": 36,
      "start": 70.568,
      "duration": 0.0144,
      "velocity": 115,
      "chip": "ym2612"
    },
    {
      "channel": 4,
      "note": 67,
      "start": 70.5695,
      "duration": 0.0141,
      "velocity": 120,
      "chip": "ym2612"
    },
    {
      "channel": 3,
      "note": 74,
      "start": 70.5709,
      "duration": 0.0139,
      "velocity": 120,
      "chip": "ym2612"
    },
    {
      "channel": 2,
      "note": 47,
      "start": 70.5723,
      "duration": 0.0137,
      "velocity": 100,
      "chip": "ym2612"
    },
    {
      "channel": 0,
      "note": 36,
      "start": 70.5824,
      "duration": 0.0161,
      "velocity": 115,
      "chip": "ym2612"
    },
    {
      "channel": 4,
      "note": 67,
      "start": 70.5836,
      "duration": 0.016,
      "velocity": 120,
      "chip": "ym2612"
    },
    {
      "channel": 3,
      "note": 74,
      "start": 70.5848,
      "duration": 0.016,
      "velocity": 120,
      "chip": "ym2612"
    },
    {
      "channel": 2,
      "note": 47,
      "start": 70.586,
      "duration": 0.0159,
      "velocity": 100,
      "chip": "ym2612"
    },
    {
      "channel": 0,
      "note": 37,
      "start": 70.5985,
      "duration": 0.0161,
      "velocity": 115,
      "chip": "ym2612"
    },
    {
      "channel": 4,
      "note": 67,
      "start": 70.5996,
      "duration": 0.0161,
      "velocity": 120,
      "chip": "ym2612"
    },
    {
      "channel": 3,
      "note": 74,
      "start": 70.6008,
      "duration": 0.0161,
      "velocity": 120,
      "chip": "ym2612"
    },
    {
      "channel": 2,
      "note": 47,
      "start": 70.6019,
      "duration": 0.016,
      "velocity": 100,
      "chip": "ym2612"
    },
    {
      "channel": 0,
      "note": 37,
      "start": 70.6146,
      "duration": 0.0175,
      "velocity": 115,
      "chip": "ym2612"
    },
    {
      "channel": 4,
      "note": 67,
      "start": 70.6157,
      "duration": 0.0175,
      "velocity": 120,
      "chip": "ym2612"
    },
    {
      "channel": 3,
      "note": 74,
      "start": 70.6168,
      "duration": 0.0175,
      "velocity": 120,
      "chip": "ym2612"
    },
    {
      "channel": 2,
      "note": 47,
      "start": 70.6179,
      "duration": 0.0175,
      "velocity": 100,
      "chip": "ym2612"
    },
    {
      "channel": 0,
      "note": 38,
      "start": 70.6321,
      "duration": 0.0167,
      "velocity": 115,
      "chip": "ym2612"
    },
    {
      "channel": 4,
      "note": 67,
      "start": 70.6332,
      "duration": 0.0167,
      "velocity": 120,
      "chip": "ym2612"
    },
    {
      "channel": 3,
      "note": 74,
      "start": 70.6344,
      "duration": 0.0167,
      "velocity": 120,
      "chip": "ym2612"
    },
    {
      "channel": 2,
      "note": 47,
      "start": 70.6354,
      "duration": 0.0167,
      "velocity": 100,
      "chip": "ym2612"
    },
    {
      "channel": 0,
      "note": 38,
      "start": 70.6487,
      "duration": 0.0163,
      "velocity": 115,
      "chip": "ym2612"
    },
    {
      "channel": 4,
      "note": 67,
      "start": 70.6499,
      "duration": 0.0163,
      "velocity": 120,
      "chip": "ym2612"
    },
    {
      "channel": 3,
      "note": 74,
      "start": 70.651,
      "duration": 0.0163,
      "velocity": 120,
      "chip": "ym2612"
    },
    {
      "channel": 2,
      "note": 47,
      "start": 70.6521,
      "duration": 0.0163,
      "velocity": 100,
      "chip": "ym2612"
    },
    {
      "channel": 0,
      "note": 39,
      "start": 70.665,
      "duration": 0.0142,
      "velocity": 115,
      "chip": "ym2612"
    },
    {
      "channel": 4,
      "note": 67,
      "start": 70.6661,
      "duration": 0.0143,
      "velocity": 120,
      "chip": "ym2612"
    },
    {
      "channel": 3,
      "note": 74,
      "start": 70.6673,
      "duration": 0.0142,
      "velocity": 120,
      "chip": "ym2612"
    },
    {
      "channel": 2,
      "note": 47,
      "start": 70.6684,
      "duration": 0.0143,
      "velocity": 100,
      "chip": "ym2612"
    },
    {
      "channel": 0,
      "note": 39,
      "start": 70.6793,
      "duration": 0.0185,
      "velocity": 115,
      "chip": "ym2612"
    },
    {
      "channel": 4,
      "note": 67,
      "start": 70.6804,
      "duration": 0.0186,
      "velocity": 120,
      "chip": "ym2612"
    },
    {
      "channel": 3,
      "note": 74,
      "start": 70.6815,
      "duration": 0.0186,
      "velocity": 120,
      "chip": "ym2612"
    },
    {
      "channel": 2,
      "note": 47,
      "start": 70.6827,
      "duration": 0.0185,
      "velocity": 100,
      "chip": "ym2612"
    },
    {
      "channel": 0,
      "note": 40,
      "start": 70.6978,
      "duration": 0.0161,
      "velocity": 115,
      "chip": "ym2612"
    },
    {
      "channel": 4,
      "note": 67,
      "start": 70.699,
      "duration": 0.0161,
      "velocity": 120,
      "chip": "ym2612"
    },
    {
      "channel": 3,
      "note": 74,
      "start": 70.7001,
      "duration": 0.0161,
      "velocity": 120,
      "chip": "ym2612"
    },
    {
      "channel": 2,
      "note": 47,
      "start": 70.7012,
      "duration": 0.0161,
      "velocity": 100,
      "chip": "ym2612"
    },
    {
      "channel": 0,
      "note": 40,
      "start": 70.7139,
      "duration": 0.0134,
      "velocity": 115,
      "chip": "ym2612"
    },
    {
      "channel": 4,
      "note": 67,
      "start": 70.7151,
      "duration": 0.0157,
      "velocity": 120,
      "chip": "ym2612"
    },
    {
      "channel": 3,
      "note": 74,
      "start": 70.7162,
      "duration": 0.0157,
      "velocity": 120,
      "chip": "ym2612"
    },
    {
      "channel": 2,
      "note": 47,
      "start": 70.7173,
      "duration": 0.0158,
      "velocity": 100,
      "chip": "ym2612"
    },
    {
      "channel": 0,
      "note": 40,
      "start": 70.7273,
      "duration": 0.016,
      "velocity": 115,
      "chip": "ym2612"
    },
    {
      "channel": 4,
      "note": 67,
      "start": 70.7308,
      "duration": 0.0141,
      "velocity": 120,
      "chip": "ym2612"
    },
    {
      "channel": 3,
      "note": 74,
      "start": 70.7319,
      "duration": 0.0141,
      "velocity": 120,
      "chip": "ym2612"
    },
    {
      "channel": 2,
      "note": 47,
      "start": 70.7331,
      "duration": 0.014,
      "velocity": 100,
      "chip": "ym2612"
    },
    {
      "channel": 0,
      "note": 41,
      "start": 70.7433,
      "duration": 0.0206,
      "velocity": 124,
      "chip": "ym2612"
    },
    {
      "channel": 4,
      "note": 67,
      "start": 70.7449,
      "duration": 0.0205,
      "velocity": 120,
      "chip": "ym2612"
    },
    {
      "channel": 3,
      "note": 74,
      "start": 70.746,
      "duration": 0.0208,
      "velocity": 120,
      "chip": "ym2612"
    },
    {
      "channel": 2,
      "note": 47,
      "start": 70.7471,
      "duration": 0.0211,
      "velocity": 100,
      "chip": "ym2612"
    },
    {
      "channel": 0,
      "note": 84,
      "start": 70.764,
      "duration": 0.0116,
      "velocity": 124,
      "chip": "ym2612"
    },
    {
      "channel": 4,
      "note": 71,
      "start": 70.7654,
      "duration": 0.0115,
      "velocity": 120,
      "chip": "ym2612"
    },
    {
      "channel": 3,
      "note": 78,
      "start": 70.7668,
      "duration": 0.014,
      "velocity": 120,
      "chip": "ym2612"
    },
    {
      "channel": 2,
      "note": 47,
      "start": 70.7683,
      "duration": 0.0137,
      "velocity": 100,
      "chip": "ym2612"
    },
    {
      "channel": 0,
      "note": 82,
      "start": 70.7756,
      "duration": 0.016,
      "velocity": 124,
      "chip": "ym2612"
    },
    {
      "channel": 4,
      "note": 71,
      "start": 70.7768,
      "duration": 0.016,
      "velocity": 120,
      "chip": "ym2612"
    },
    {
      "channel": 3,
      "note": 78,
      "start": 70.7808,
      "duration": 0.0132,
      "velocity": 120,
      "chip": "ym2612"
    },
    {
      "channel": 2,
      "note": 47,
      "start": 70.7819,
      "duration": 0.0155,
      "velocity": 100,
      "chip": "ym2612"
    },
    {
      "channel": 0,
      "note": 80,
      "start": 70.7917,
      "duration": 0.0161,
      "velocity": 124,
      "chip": "ym2612"
    },
    {
      "channel": 4,
      "note": 71,
      "start": 70.7928,
      "duration": 0.0161,
      "velocity": 120,
      "chip": "ym2612"
    },
    {
      "channel": 3,
      "note": 78,
      "start": 70.7939,
      "duration": 0.0161,
      "velocity": 120,
      "chip": "ym2612"
    },
    {
      "channel": 2,
      "note": 47,
      "start": 70.7975,
      "duration": 0.0141,
      "velocity": 100,
      "chip": "ym2612"
    },
    {
      "channel": 0,
      "note": 77,
      "start": 70.8078,
      "duration": 0.0161,
      "velocity": 124,
      "chip": "ym2612"
    },
    {
      "channel": 4,
      "note": 71,
      "start": 70.8089,
      "duration": 0.0161,
      "velocity": 120,
      "chip": "ym2612"
    },
    {
      "channel": 3,
      "note": 78,
      "start": 70.81,
      "duration": 0.0161,
      "velocity": 120,
      "chip": "ym2612"
    },
    {
      "channel": 2,
      "note": 47,
      "start": 70.8115,
      "duration": 0.0185,
      "velocity": 100,
      "chip": "ym2612"
    },
    {
      "channel": 0,
      "note": 75,
      "start": 70.8239,
      "duration": 0.0161,
      "velocity": 124,
      "chip": "ym2612"
    },
    {
      "channel": 4,
      "note": 71,
      "start": 70.8251,
      "duration": 0.0161,
      "velocity": 120,
      "chip": "ym2612"
    },
    {
      "channel": 3,
      "note": 78,
      "start": 70.8261,
      "duration": 0.0161,
      "velocity": 120,
      "chip": "ym2612"
    },
    {
      "channel": 2,
      "note": 47,
      "start": 70.83,
      "duration": 0.0134,
      "velocity": 100,
      "chip": "ym2612"
    },
    {
      "channel": 0,
      "note": 72,
      "start": 70.84,
      "duration": 0.0161,
      "velocity": 124,
      "chip": "ym2612"
    },
    {
      "channel": 4,
      "note": 71,
      "start": 70.8412,
      "duration": 0.0161,
      "velocity": 120,
      "chip": "ym2612"
    },
    {
      "channel": 3,
      "note": 78,
      "start": 70.8422,
      "duration": 0.0161,
      "velocity": 120,
      "chip": "ym2612"
    },
    {
      "channel": 2,
      "note": 47,
      "start": 70.8434,
      "duration": 0.0161,
      "velocity": 100,
      "chip": "ym2612"
    },
    {
      "channel": 0,
      "note": 70,
      "start": 70.856,
      "duration": 0.0162,
      "velocity": 124,
      "chip": "ym2612"
    },
    {
      "channel": 4,
      "note": 71,
      "start": 70.8573,
      "duration": 0.0161,
      "velocity": 120,
      "chip": "ym2612"
    },
    {
      "channel": 3,
      "note": 78,
      "start": 70.8583,
      "duration": 0.0162,
      "velocity": 120,
      "chip": "ym2612"
    },
    {
      "channel": 2,
      "note": 47,
      "start": 70.8595,
      "duration": 0.0161,
      "velocity": 100,
      "chip": "ym2612"
    },
    {
      "channel": 0,
      "note": 68,
      "start": 70.8722,
      "duration": 0.0161,
      "velocity": 124,
      "chip": "ym2612"
    },
    {
      "channel": 4,
      "note": 71,
      "start": 70.8733,
      "duration": 0.0161,
      "velocity": 120,
      "chip": "ym2612"
    },
    {
      "channel": 3,
      "note": 78,
      "start": 70.8745,
      "duration": 0.0161,
      "velocity": 120,
      "chip": "ym2612"
    },
    {
      "channel": 2,
      "note": 47,
      "start": 70.8756,
      "duration": 0.0161,
      "velocity": 100,
      "chip": "ym2612"
    },
    {
      "channel": 0,
      "note": 65,
      "start": 70.8883,
      "duration": 0.0161,
      "velocity": 124,
      "chip": "ym2612"
    },
    {
      "channel": 4,
      "note": 71,
      "start": 70.8894,
      "duration": 0.0161,
      "velocity": 120,
      "chip": "ym2612"
    },
    {
      "channel": 3,
      "note": 78,
      "start": 70.8906,
      "duration": 0.0161,
      "velocity": 120,
      "chip": "ym2612"
    },
    {
      "channel": 2,
      "note": 47,
      "start": 70.8917,
      "duration": 0.0161,
      "velocity": 100,
      "chip": "ym2612"
    },
    {
      "channel": 0,
      "note": 63,
      "start": 70.9044,
      "duration": 0.0153,
      "velocity": 1,
      "chip": "ym2612"
    },
    {
      "channel": 4,
      "note": 71,
      "start": 70.9055,
      "duration": 0.0153,
      "velocity": 120,
      "chip": "ym2612"
    },
    {
      "channel": 3,
      "note": 78,
      "start": 70.9067,
      "duration": 0.0153,
      "velocity": 120,
      "chip": "ym2612"
    },
    {
      "channel": 2,
      "note": 47,
      "start": 70.9078,
      "duration": 0.0153,
      "velocity": 100,
      "chip": "ym2612"
    },
    {
      "channel": 4,
      "note": 71,
      "start": 70.9208,
      "duration": 0.0153,
      "velocity": 120,
      "chip": "ym2612"
    },
    {
      "channel": 3,
      "note": 78,
      "start": 70.922,
      "duration": 0.0153,
      "velocity": 120,
      "chip": "ym2612"
    },
    {
      "channel": 2,
      "note": 47,
      "start": 70.9231,
      "duration": 0.0153,
      "velocity": 100,
      "chip": "ym2612"
    },
    {
      "channel": 4,
      "note": 71,
      "start": 70.9361,
      "duration": 0.0163,
      "velocity": 120,
      "chip": "ym2612"
    },
    {
      "channel": 3,
      "note": 78,
      "start": 70.9372,
      "duration": 0.0166,
      "velocity": 120,
      "chip": "ym2612"
    },
    {
      "channel": 2,
      "note": 47,
      "start": 70.9384,
      "duration": 0.0168,
      "velocity": 100,
      "chip": "ym2612"
    },
    {
      "channel": 4,
      "note": 64,
      "start": 70.9524,
      "duration": 0.0159,
      "velocity": 120,
      "chip": "ym2612"
    },
    {
      "channel": 3,
      "note": 71,
      "start": 70.9538,
      "duration": 0.0157,
      "velocity": 120,
      "chip": "ym2612"
    },
    {
      "channel": 2,
      "note": 47,
      "start": 70.9553,
      "duration": 0.0154,
      "velocity": 100,
      "chip": "ym2612"
    },
    {
      "channel": 4,
      "note": 64,
      "start": 70.9683,
      "duration": 0.016,
      "velocity": 120,
      "chip": "ym2612"
    },
    {
      "channel": 3,
      "note": 71,
      "start": 70.9695,
      "duration": 0.016,
      "velocity": 120,
      "chip": "ym2612"
    },
    {
      "channel": 2,
      "note": 47,
      "start": 70.9707,
      "duration": 0.0159,
      "velocity": 100,
      "chip": "ym2612"
    },
    {
      "channel": 4,
      "note": 64,
      "start": 70.9844,
      "duration": 0.0161,
      "velocity": 120,
      "chip": "ym2612"
    },
    {
      "channel": 3,
      "note": 71,
      "start": 70.9855,
      "duration": 0.0162,
      "velocity": 120,
      "chip": "ym2612"
    },
    {
      "channel": 2,
      "note": 47,
      "start": 70.9866,
      "duration": 0.0161,
      "velocity": 100,
      "chip": "ym2612"
    },
    {
      "channel": 4,
      "note": 64,
      "start": 71.0005,
      "duration": 0.0161,
      "velocity": 120,
      "chip": "ym2612"
    },
    {
      "channel": 3,
      "note": 71,
      "start": 71.0017,
      "duration": 0.0161,
      "velocity": 120,
      "chip": "ym2612"
    },
    {
      "channel": 2,
      "note": 47,
      "start": 71.0027,
      "duration": 0.0161,
      "velocity": 100,
      "chip": "ym2612"
    },
    {
      "channel": 4,
      "note": 64,
      "start": 71.0166,
      "duration": 0.0161,
      "velocity": 120,
      "chip": "ym2612"
    },
    {
      "channel": 3,
      "note": 71,
      "start": 71.0178,
      "duration": 0.0161,
      "velocity": 120,
      "chip": "ym2612"
    },
    {
      "channel": 2,
      "note": 47,
      "start": 71.0188,
      "duration": 0.0161,
      "velocity": 100,
      "chip": "ym2612"
    },
    {
      "channel": 4,
      "note": 64,
      "start": 71.0327,
      "duration": 0.0161,
      "velocity": 120,
      "chip": "ym2612"
    },
    {
      "channel": 3,
      "note": 71,
      "start": 71.0338,
      "duration": 0.0161,
      "velocity": 120,
      "chip": "ym2612"
    },
    {
      "channel": 2,
      "note": 47,
      "start": 71.0349,
      "duration": 0.0162,
      "velocity": 100,
      "chip": "ym2612"
    },
    {
      "channel": 4,
      "note": 64,
      "start": 71.0488,
      "duration": 0.0161,
      "velocity": 120,
      "chip": "ym2612"
    },
    {
      "channel": 3,
      "note": 71,
      "start": 71.0499,
      "duration": 0.0161,
      "velocity": 120,
      "chip": "ym2612"
    },
    {
      "channel": 2,
      "note": 47,
      "start": 71.0511,
      "duration": 0.0161,
      "velocity": 100,
      "chip": "ym2612"
    },
    {
      "channel": 4,
      "note": 64,
      "start": 71.0649,
      "duration": 0.0161,
      "velocity": 120,
      "chip": "ym2612"
    },
    {
      "channel": 3,
      "note": 71,
      "start": 71.066,
      "duration": 0.0161,
      "velocity": 120,
      "chip": "ym2612"
    },
    {
      "channel": 2,
      "note": 47,
      "start": 71.0672,
      "duration": 0.0161,
      "velocity": 100,
      "chip": "ym2612"
    },
    {
      "channel": 4,
      "note": 64,
      "start": 71.081,
      "duration": 0.0172,
      "velocity": 120,
      "chip": "ym2612"
    },
    {
      "channel": 3,
      "note": 71,
      "start": 71.0821,
      "duration": 0.0172,
      "velocity": 120,
      "chip": "ym2612"
    },
    {
      "channel": 2,
      "note": 47,
      "start": 71.0833,
      "duration": 0.0172,
      "velocity": 100,
      "chip": "ym2612"
    },
    {
      "channel": 4,
      "note": 64,
      "start": 71.0982,
      "duration": 0.0167,
      "velocity": 120,
      "chip": "ym2612"
    },
    {
      "channel": 3,
      "note": 71,
      "start": 71.0994,
      "duration": 0.0167,
      "velocity": 120,
      "chip": "ym2612"
    },
    {
      "channel": 2,
      "note": 47,
      "start": 71.1005,
      "duration": 0.0167,
      "velocity": 100,
      "chip": "ym2612"
    },
    {
      "channel": 4,
      "note": 64,
      "start": 71.1149,
      "duration": 0.0163,
      "velocity": 120,
      "chip": "ym2612"
    },
    {
      "channel": 3,
      "note": 71,
      "start": 71.116,
      "duration": 0.0163,
      "velocity": 120,
      "chip": "ym2612"
    },
    {
      "channel": 2,
      "note": 47,
      "start": 71.1171,
      "duration": 0.0163,
      "velocity": 100,
      "chip": "ym2612"
    },
    {
      "channel": 4,
      "note": 64,
      "start": 71.1312,
      "duration": 0.0182,
      "velocity": 120,
      "chip": "ym2612"
    },
    {
      "channel": 3,
      "note": 71,
      "start": 71.1323,
      "duration": 0.0185,
      "velocity": 120,
      "chip": "ym2612"
    },
    {
      "channel": 2,
      "note": 47,
      "start": 71.1335,
      "duration": 0.0188,
      "velocity": 100,
      "chip": "ym2612"
    },
    {
      "channel": 0,
      "note": 36,
      "start": 71.148,
      "duration": 0.0168,
      "velocity": 115,
      "chip": "ym2612"
    },
    {
      "channel": 4,
      "note": 64,
      "start": 71.1494,
      "duration": 0.0165,
      "velocity": 120,
      "chip": "ym2612"
    },
    {
      "channel": 3,
      "note": 71,
      "start": 71.1508,
      "duration": 0.0164,
      "velocity": 120,
      "chip": "ym2612"
    },
    {
      "channel": 2,
      "note": 47,
      "start": 71.1522,
      "duration": 0.0162,
      "velocity": 100,
      "chip": "ym2612"
    },
    {
      "channel": 0,
      "note": 36,
      "start": 71.1648,
      "duration": 0.0161,
      "velocity": 115,
      "chip": "ym2612"
    },
    {
      "channel": 4,
      "note": 64,
      "start": 71.166,
      "duration": 0.016,
      "velocity": 120,
      "chip": "ym2612"
    },
    {
      "channel": 3,
      "note": 71,
      "start": 71.1672,
      "duration": 0.016,
      "velocity": 120,
      "chip": "ym2612"
    },
    {
      "channel": 2,
      "note": 47,
      "start": 71.1684,
      "duration": 0.0159,
      "velocity": 100,
      "chip": "ym2612"
    },
    {
      "channel": 0,
      "note": 37,
      "start": 71.1809,
      "duration": 0.0157,
      "velocity": 115,
      "chip": "ym2612"
    },
    {
      "channel": 4,
      "note": 64,
      "start": 71.182,
      "duration": 0.0157,
      "velocity": 120,
      "chip": "ym2612"
    },
    {
      "channel": 3,
      "note": 71,
      "start": 71.1832,
      "duration": 0.0157,
      "velocity": 120,
      "chip": "ym2612"
    },
    {
      "channel": 2,
      "note": 47,
      "start": 71.1843,
      "duration": 0.0157,
      "velocity": 100,
      "chip": "ym2612"
    },
    {
      "channel": 0,
      "note": 37,
      "start": 71.1966,
      "duration": 0.0137,
      "velocity": 115,
      "chip": "ym2612"
    },
    {
      "channel": 4,
      "note": 64,
      "start": 71.1977,
      "duration": 0.0141,
      "velocity": 120,
      "chip": "ym2612"
    },
    {
      "channel": 3,
      "note": 71,
      "start": 71.1988,
      "duration": 0.0141,
      "velocity": 120,
      "chip": "ym2612"
    },
    {
      "channel": 2,
      "note": 47,
      "start": 71.2,
      "duration": 0.0141,
      "velocity": 100,
      "chip": "ym2612"
    },
    {
      "channel": 0,
      "note": 38,
      "start": 71.2103,
      "duration": 0.0161,
      "velocity": 115,
      "chip": "ym2612"
    },
    {
      "channel": 4,
      "note": 64,
      "start": 71.2118,
      "duration": 0.0185,
      "velocity": 120,
      "chip": "ym2612"
    },
    {
      "channel": 3,
      "note": 71,
      "start": 71.2129,
      "duration": 0.0185,
      "velocity": 120,
      "chip": "ym2612"
    },
    {
      "channel": 2,
      "note": 47,
      "start": 71.2141,
      "duration": 0.0185,
      "velocity": 100,
      "chip": "ym2612"
    },
    {
      "channel": 0,
      "note": 38,
      "start": 71.2264,
      "duration": 0.0161,
      "velocity": 115,
      "chip": "ym2612"
    },
    {
      "channel": 4,
      "note": 64,
      "start": 71.2303,
      "duration": 0.0134,
      "velocity": 120,
      "chip": "ym2612"
    },
    {
      "channel": 3,
      "note": 71,
      "start": 71.2314,
      "duration": 0.0161,
      "velocity": 120,
      "chip": "ym2612"
    },
    {
      "channel": 2,
      "note": 47,
      "start": 71.2326,
      "duration": 0.0161,
      "velocity": 100,
      "chip": "ym2612"
    },
    {
      "channel": 0,
      "note": 39,
      "start": 71.2425,
      "duration": 0.0161,
      "velocity": 115,
      "chip": "ym2612"
    },
    {
      "channel": 4,
      "note": 64,
      "start": 71.2436,
      "duration": 0.0161,
      "velocity": 120,
      "chip": "ym2612"
    },
    {
      "channel": 3,
      "note": 71,
      "start": 71.2475,
      "duration": 0.0157,
      "velocity": 120,
      "chip": "ym2612"
    },
    {
      "channel": 2,
      "note": 47,
      "start": 71.2487,
      "duration": 0.0157,
      "velocity": 100,
      "chip": "ym2612"
    },
    {
      "channel": 0,
      "note": 39,
      "start": 71.2586,
      "duration": 0.0161,
      "velocity": 115,
      "chip": "ym2612"
    },
    {
      "channel": 4,
      "note": 64,
      "start": 71.2597,
      "duration": 0.0161,
      "velocity": 120,
      "chip": "ym2612"
    },
    {
      "channel": 3,
      "note": 71,
      "start": 71.2632,
      "duration": 0.0137,
      "velocity": 120,
      "chip": "ym2612"
    },
    {
      "channel": 2,
      "note": 47,
      "start": 71.2644,
      "duration": 0.0141,
      "velocity": 100,
      "chip": "ym2612"
    },
    {
      "channel": 0,
      "note": 40,
      "start": 71.2747,
      "duration": 0.0161,
      "velocity": 115,
      "chip": "ym2612"
    },
    {
      "channel": 4,
      "note": 64,
      "start": 71.2758,
      "duration": 0.0161,
      "velocity": 120,
      "chip": "ym2612"
    },
    {
      "channel": 3,
      "note": 71,
      "start": 71.277,
      "duration": 0.0161,
      "velocity": 120,
      "chip": "ym2612"
    },
    {
      "channel": 2,
      "note": 47,
      "start": 71.2784,
      "duration": 0.0185,
      "velocity": 100,
      "chip": "ym2612"
    },
    {
      "channel": 0,
      "note": 40,
      "start": 71.2908,
      "duration": 0.0161,
      "velocity": 115,
      "chip": "ym2612"
    },
    {
      "channel": 4,
      "note": 64,
      "start": 71.2919,
      "duration": 0.0161,
      "velocity": 120,
      "chip": "ym2612"
    },
    {
      "channel": 3,
      "note": 71,
      "start": 71.2931,
      "duration": 0.0161,
      "velocity": 120,
      "chip": "ym2612"
    },
    {
      "channel": 2,
      "note": 47,
      "start": 71.2969,
      "duration": 0.0134,
      "velocity": 100,
      "chip": "ym2612"
    },
    {
      "channel": 0,
      "note": 40,
      "start": 71.3069,
      "duration": 0.0161,
      "velocity": 115,
      "chip": "ym2612"
    },
    {
      "channel": 4,
      "note": 64,
      "start": 71.308,
      "duration": 0.0161,
      "velocity": 120,
      "chip": "ym2612"
    },
    {
      "channel": 3,
      "note": 71,
      "start": 71.3092,
      "duration": 0.0161,
      "velocity": 120,
      "chip": "ym2612"
    },
    {
      "channel": 2,
      "note": 47,
      "start": 71.3103,
      "duration": 0.0161,
      "velocity": 100,
      "chip": "ym2612"
    },
    {
      "channel": 0,
      "note": 41,
      "start": 71.323,
      "duration": 0.0161,
      "velocity": 115,
      "chip": "ym2612"
    },
    {
      "channel": 4,
      "note": 64,
      "start": 71.3241,
      "duration": 0.0163,
      "velocity": 120,
      "chip": "ym2612"
    },
    {
      "channel": 3,
      "note": 71,
      "start": 71.3253,
      "duration": 0.0166,
      "velocity": 120,
      "chip": "ym2612"
    },
    {
      "channel": 2,
      "note": 47,
      "start": 71.3264,
      "duration": 0.0169,
      "velocity": 100,
      "chip": "ym2612"
    },
    {
      "channel": 0,
      "note": 41,
      "start": 71.3391,
      "duration": 0.0161,
      "velocity": 115,
      "chip": "ym2612"
    },
    {
      "channel": 4,
      "note": 67,
      "start": 71.3405,
      "duration": 0.0159,
      "velocity": 120,
      "chip": "ym2612"
    },
    {
      "channel": 3,
      "note": 74,
      "start": 71.3419,
      "duration": 0.0156,
      "velocity": 120,
      "chip": "ym2612"
    },
    {
      "channel": 2,
      "note": 47,
      "start": 71.3434,
      "duration": 0.0154,
      "velocity": 100,
      "chip": "ym2612"
    },
    {
      "channel": 0,
      "note": 42,
      "start": 71.3552,
      "duration": 0.0161,
      "velocity": 115,
      "chip": "ym2612"
    },
    {
      "channel": 4,
      "note": 67,
      "start": 71.3564,
      "duration": 0.016,
      "velocity": 120,
      "chip": "ym2612"
    },
    {
      "channel": 3,
      "note": 74,
      "start": 71.3576,
      "duration": 0.016,
      "velocity": 120,
      "chip": "ym2612"
    },
    {
      "channel": 2,
      "note": 47,
      "start": 71.3588,
      "duration": 0.016,
      "velocity": 100,
      "chip": "ym2612"
    },
    {
      "channel": 0,
      "note": 42,
      "start": 71.3713,
      "duration": 0.0161,
      "velocity": 115,
      "chip": "ym2612"
    },
    {
      "channel": 4,
      "note": 67,
      "start": 71.3724,
      "duration": 0.0161,
      "velocity": 120,
      "chip": "ym2612"
    },
    {
      "channel": 3,
      "note": 74,
      "start": 71.3736,
      "duration": 0.0161,
      "velocity": 120,
      "chip": "ym2612"
    },
    {
      "channel": 2,
      "note": 47,
      "start": 71.3747,
      "duration": 0.0161,
      "velocity": 100,
      "chip": "ym2612"
    },
    {
      "channel": 0,
      "note": 43,
      "start": 71.3874,
      "duration": 0.0161,
      "velocity": 115,
      "chip": "ym2612"
    },
    {
      "channel": 4,
      "note": 67,
      "start": 71.3885,
      "duration": 0.0161,
      "velocity": 120,
      "chip": "ym2612"
    },
    {
      "channel": 3,
      "note": 74,
      "start": 71.3897,
      "duration": 0.0161,
      "velocity": 120,
      "chip": "ym2612"
    },
    {
      "channel": 2,
      "note": 47,
      "start": 71.3908,
      "duration": 0.0161,
      "velocity": 100,
      "chip": "ym2612"
    },
    {
      "channel": 0,
      "note": 43,
      "start": 71.4035,
      "duration": 0.0161,
      "velocity": 115,
      "chip": "ym2612"
    },
    {
      "channel": 4,
      "note": 67,
      "start": 71.4046,
      "duration": 0.0161,
      "velocity": 120,
      "chip": "ym2612"
    },
    {
      "channel": 3,
      "note": 74,
      "start": 71.4058,
      "duration": 0.0161,
      "velocity": 120,
      "chip": "ym2612"
    },
    {
      "channel": 2,
      "note": 47,
      "start": 71.4069,
      "duration": 0.0161,
      "velocity": 100,
      "chip": "ym2612"
    },
    {
      "channel": 0,
      "note": 44,
      "start": 71.4196,
      "duration": 0.0161,
      "velocity": 115,
      "chip": "ym2612"
    },
    {
      "channel": 4,
      "note": 67,
      "start": 71.4207,
      "duration": 0.0161,
      "velocity": 120,
      "chip": "ym2612"
    },
    {
      "channel": 3,
      "note": 74,
      "start": 71.4219,
      "duration": 0.0161,
      "velocity": 120,
      "chip": "ym2612"
    },
    {
      "channel": 2,
      "note": 47,
      "start": 71.423,
      "duration": 0.0161,
      "velocity": 100,
      "chip": "ym2612"
    },
    {
      "channel": 0,
      "note": 44,
      "start": 71.4357,
      "duration": 0.0161,
      "velocity": 115,
      "chip": "ym2612"
    },
    {
      "channel": 4,
      "note": 67,
      "start": 71.4368,
      "duration": 0.0161,
      "velocity": 120,
      "chip": "ym2612"
    },
    {
      "channel": 3,
      "note": 74,
      "start": 71.438,
      "duration": 0.0161,
      "velocity": 120,
      "chip": "ym2612"
    },
    {
      "channel": 2,
      "note": 47,
      "start": 71.4391,
      "duration": 0.0161,
      "velocity": 100,
      "chip": "ym2612"
    },
    {
      "channel": 0,
      "note": 44,
      "start": 71.4518,
      "duration": 0.0162,
      "velocity": 115,
      "chip": "ym2612"
    },
    {
      "channel": 4,
      "note": 67,
      "start": 71.4529,
      "duration": 0.0162,
      "velocity": 120,
      "chip": "ym2612"
    },
    {
      "channel": 3,
      "note": 74,
      "start": 71.4541,
      "duration": 0.0162,
      "velocity": 120,
      "chip": "ym2612"
    },
    {
      "channel": 2,
      "note": 47,
      "start": 71.4552,
      "duration": 0.0161,
      "velocity": 100,
      "chip": "ym2612"
    },
    {
      "channel": 0,
      "note": 45,
      "start": 71.4679,
      "duration": 0.0161,
      "velocity": 115,
      "chip": "ym2612"
    },
    {
      "channel": 4,
      "note": 67,
      "start": 71.4691,
      "duration": 0.0161,
      "velocity": 120,
      "chip": "ym2612"
    },
    {
      "channel": 3,
      "note": 74,
      "start": 71.4702,
      "duration": 0.0161,
      "velocity": 120,
      "chip": "ym2612"
    },
    {
      "channel": 2,
      "note": 47,
      "start": 71.4713,
      "duration": 0.0161,
      "velocity": 100,
      "chip": "ym2612"
    },
    {
      "channel": 0,
      "note": 45,
      "start": 71.484,
      "duration": 0.0161,
      "velocity": 115,
      "chip": "ym2612"
    },
    {
      "channel": 4,
      "note": 67,
      "start": 71.4852,
      "duration": 0.0161,
      "velocity": 120,
      "chip": "ym2612"
    },
    {
      "channel": 3,
      "note": 74,
      "start": 71.4863,
      "duration": 0.0161,
      "velocity": 120,
      "chip": "ym2612"
    },
    {
      "channel": 2,
      "note": 47,
      "start": 71.4874,
      "duration": 0.0161,
      "velocity": 100,
      "chip": "ym2612"
    },
    {
      "channel": 0,
      "note": 46,
      "start": 71.5001,
      "duration": 0.0161,
      "velocity": 115,
      "chip": "ym2612"
    },
    {
      "channel": 4,
      "note": 67,
      "start": 71.5013,
      "duration": 0.0161,
      "velocity": 120,
      "chip": "ym2612"
    },
    {
      "channel": 3,
      "note": 74,
      "start": 71.5024,
      "duration": 0.0161,
      "velocity": 120,
      "chip": "ym2612"
    },
    {
      "channel": 2,
      "note": 47,
      "start": 71.5035,
      "duration": 0.0162,
      "velocity": 100,
      "chip": "ym2612"
    },
    {
      "channel": 0,
      "note": 46,
      "start": 71.5162,
      "duration": 0.0178,
      "velocity": 124,
      "chip": "ym2612"
    },
    {
      "channel": 4,
      "note": 67,
      "start": 71.5174,
      "duration": 0.0181,
      "velocity": 120,
      "chip": "ym2612"
    },
    {
      "channel": 3,
      "note": 74,
      "start": 71.5185,
      "duration": 0.0184,
      "velocity": 120,
      "chip": "ym2612"
    },
    {
      "channel": 2,
      "note": 47,
      "start": 71.5197,
      "duration": 0.0187,
      "velocity": 100,
      "chip": "ym2612"
    },
    {
      "channel": 0,
      "note": 84,
      "start": 71.5341,
      "duration": 0.0144,
      "velocity": 124,
      "chip": "ym2612"
    },
    {
      "channel": 4,
      "note": 71,
      "start": 71.5355,
      "duration": 0.0142,
      "velocity": 120,
      "chip": "ym2612"
    },
    {
      "channel": 3,
      "note": 78,
      "start": 71.5369,
      "duration": 0.014,
      "velocity": 120,
      "chip": "ym2612"
    },
    {
      "channel": 2,
      "note": 47,
      "start": 71.5384,
      "duration": 0.0137,
      "velocity": 100,
      "chip": "ym2612"
    },
    {
      "channel": 0,
      "note": 82,
      "start": 71.5485,
      "duration": 0.0169,
      "velocity": 124,
      "chip": "ym2612"
    },
    {
      "channel": 4,
      "note": 71,
      "start": 71.5497,
      "duration": 0.0168,
      "velocity": 120,
      "chip": "ym2612"
    },
    {
      "channel": 3,
      "note": 78,
      "start": 71.5509,
      "duration": 0.0168,
      "velocity": 120,
      "chip": "ym2612"
    },
    {
      "channel": 2,
      "note": 47,
      "start": 71.5521,
      "duration": 0.0167,
      "velocity": 100,
      "chip": "ym2612"
    },
    {
      "channel": 0,
      "note": 80,
      "start": 71.5654,
      "duration": 0.0167,
      "velocity": 124,
      "chip": "ym2612"
    },
    {
      "channel": 4,
      "note": 71,
      "start": 71.5665,
      "duration": 0.0167,
      "velocity": 120,
      "chip": "ym2612"
    },
    {
      "channel": 3,
      "note": 78,
      "start": 71.5677,
      "duration": 0.0167,
      "velocity": 120,
      "chip": "ym2612"
    },
    {
      "channel": 2,
      "note": 47,
      "start": 71.5688,
      "duration": 0.0167,
      "velocity": 100,
      "chip": "ym2612"
    },
    {
      "channel": 0,
      "note": 77,
      "start": 71.5821,
      "duration": 0.0163,
      "velocity": 124,
      "chip": "ym2612"
    },
    {
      "channel": 4,
      "note": 71,
      "start": 71.5832,
      "duration": 0.0163,
      "velocity": 120,
      "chip": "ym2612"
    },
    {
      "channel": 3,
      "note": 78,
      "start": 71.5844,
      "duration": 0.0163,
      "velocity": 120,
      "chip": "ym2612"
    },
    {
      "channel": 2,
      "note": 47,
      "start": 71.5855,
      "duration": 0.0163,
      "velocity": 100,
      "chip": "ym2612"
    },
    {
      "channel": 0,
      "note": 75,
      "start": 71.5983,
      "duration": 0.0146,
      "velocity": 124,
      "chip": "ym2612"
    },
    {
      "channel": 4,
      "note": 71,
      "start": 71.5995,
      "duration": 0.0147,
      "velocity": 120,
      "chip": "ym2612"
    },
    {
      "channel": 3,
      "note": 78,
      "start": 71.6006,
      "duration": 0.0147,
      "velocity": 120,
      "chip": "ym2612"
    },
    {
      "channel": 2,
      "note": 47,
      "start": 71.6018,
      "duration": 0.0146,
      "velocity": 100,
      "chip": "ym2612"
    },
    {
      "channel": 0,
      "note": 72,
      "start": 71.613,
      "duration": 0.0187,
      "velocity": 124,
      "chip": "ym2612"
    },
    {
      "channel": 4,
      "note": 71,
      "start": 71.6142,
      "duration": 0.0186,
      "velocity": 120,
      "chip": "ym2612"
    },
    {
      "channel": 3,
      "note": 78,
      "start": 71.6153,
      "duration": 0.0186,
      "velocity": 120,
      "chip": "ym2612"
    },
    {
      "channel": 2,
      "note": 47,
      "start": 71.6164,
      "duration": 0.0187,
      "velocity": 100,
      "chip": "ym2612"
    },
    {
      "channel": 0,
      "note": 70,
      "start": 71.6317,
      "duration": 0.0161,
      "velocity": 124,
      "chip": "ym2612"
    },
    {
      "channel": 4,
      "note": 71,
      "start": 71.6328,
      "duration": 0.0161,
      "velocity": 120,
      "chip": "ym2612"
    },
    {
      "channel": 3,
      "note": 78,
      "start": 71.634,
      "duration": 0.0161,
      "velocity": 120,
      "chip": "ym2612"
    },
    {
      "channel": 2,
      "note": 47,
      "start": 71.6351,
      "duration": 0.0161,
      "velocity": 100,
      "chip": "ym2612"
    },
    {
      "channel": 0,
      "note": 68,
      "start": 71.6478,
      "duration": 0.0157,
      "velocity": 124,
      "chip": "ym2612"
    },
    {
      "channel": 4,
      "note": 71,
      "start": 71.6489,
      "duration": 0.0158,
      "velocity": 120,
      "chip": "ym2612"
    },
    {
      "channel": 3,
      "note": 78,
      "start": 71.6501,
      "duration": 0.0157,
      "velocity": 120,
      "chip": "ym2612"
    },
    {
      "channel": 2,
      "note": 47,
      "start": 71.6512,
      "duration": 0.0157,
      "velocity": 100,
      "chip": "ym2612"
    },
    {
      "channel": 0,
      "note": 65,
      "start": 71.6635,
      "duration": 0.0137,
      "velocity": 124,
      "chip": "ym2612"
    },
    {
      "channel": 4,
      "note": 71,
      "start": 71.6647,
      "duration": 0.014,
      "velocity": 120,
      "chip": "ym2612"
    },
    {
      "channel": 3,
      "note": 78,
      "start": 71.6658,
      "duration": 0.0141,
      "velocity": 120,
      "chip": "ym2612"
    },
    {
      "channel": 2,
      "note": 47,
      "start": 71.6669,
      "duration": 0.0141,
      "velocity": 100,
      "chip": "ym2612"
    },
    {
      "channel": 0,
      "note": 63,
      "start": 71.6772,
      "duration": 0.0153,
      "velocity": 1,
      "chip": "ym2612"
    },
    {
      "channel": 4,
      "note": 71,
      "start": 71.6787,
      "duration": 0.015,
      "velocity": 120,
      "chip": "ym2612"
    },
    {
      "channel": 3,
      "note": 78,
      "start": 71.6798,
      "duration": 0.0177,
      "velocity": 120,
      "chip": "ym2612"
    },
    {
      "channel": 2,
      "note": 47,
      "start": 71.681,
      "duration": 0.0178,
      "velocity": 100,
      "chip": "ym2612"
    },
    {
      "channel": 4,
      "note": 71,
      "start": 71.6937,
      "duration": 0.0152,
      "velocity": 120,
      "chip": "ym2612"
    },
    {
      "channel": 3,
      "note": 78,
      "start": 71.6976,
      "duration": 0.0125,
      "velocity": 120,
      "chip": "ym2612"
    },
    {
      "channel": 2,
      "note": 47,
      "start": 71.6987,
      "duration": 0.0152,
      "velocity": 100,
      "chip": "ym2612"
    },
    {
      "channel": 4,
      "note": 71,
      "start": 71.7089,
      "duration": 0.0221,
      "velocity": 120,
      "chip": "ym2612"
    },
    {
      "channel": 3,
      "note": 78,
      "start": 71.71,
      "duration": 0.0224,
      "velocity": 120,
      "chip": "ym2612"
    },
    {
      "channel": 2,
      "note": 47,
      "start": 71.7139,
      "duration": 0.02,
      "velocity": 100,
      "chip": "ym2612"
    },
    {
      "channel": 0,
      "note": 36,
      "start": 71.7296,
      "duration": 0.012,
      "velocity": 115,
      "chip": "ym2612"
    },
    {
      "channel": 4,
      "note": 67,
      "start": 71.7311,
      "duration": 0.0118,
      "velocity": 120,
      "chip": "ym2612"
    },
    {
      "channel": 3,
      "note": 74,
      "start": 71.7325,
      "duration": 0.0119,
      "velocity": 120,
      "chip": "ym2612"
    },
    {
      "channel": 2,
      "note": 47,
      "start": 71.734,
      "duration": 0.0116,
      "velocity": 100,
      "chip": "ym2612"
    },
    {
      "channel": 0,
      "note": 36,
      "start": 71.7417,
      "duration": 0.0161,
      "velocity": 115,
      "chip": "ym2612"
    },
    {
      "channel": 4,
      "note": 67,
      "start": 71.7429,
      "duration": 0.016,
      "velocity": 120,
      "chip": "ym2612"
    },
    {
      "channel": 3,
      "note": 74,
      "start": 71.7444,
      "duration": 0.0156,
      "velocity": 120,
      "chip": "ym2612"
    },
    {
      "channel": 2,
      "note": 47,
      "start": 71.7456,
      "duration": 0.0183,
      "velocity": 100,
      "chip": "ym2612"
    },
    {
      "channel": 0,
      "note": 37,
      "start": 71.7578,
      "duration": 0.016,
      "velocity": 115,
      "chip": "ym2612"
    },
    {
      "channel": 4,
      "note": 67,
      "start": 71.7589,
      "duration": 0.0161,
      "velocity": 120,
      "chip": "ym2612"
    },
    {
      "channel": 3,
      "note": 74,
      "start": 71.76,
      "duration": 0.0161,
      "velocity": 120,
      "chip": "ym2612"
    },
    {
      "channel": 2,
      "note": 47,
      "start": 71.7639,
      "duration": 0.0133,
      "velocity": 100,
      "chip": "ym2612"
    },
    {
      "channel": 0,
      "note": 37,
      "start": 71.7738,
      "duration": 0.0162,
      "velocity": 115,
      "chip": "ym2612"
    },
    {
      "channel": 4,
      "note": 67,
      "start": 71.775,
      "duration": 0.0161,
      "velocity": 120,
      "chip": "ym2612"
    },
    {
      "channel": 3,
      "note": 74,
      "start": 71.7761,
      "duration": 0.0161,
      "velocity": 120,
      "chip": "ym2612"
    },
    {
      "channel": 2,
      "note": 47,
      "start": 71.7772,
      "duration": 0.0161,
      "velocity": 100,
      "chip": "ym2612"
    },
    {
      "channel": 0,
      "note": 38,
      "start": 71.79,
      "duration": 0.0161,
      "velocity": 115,
      "chip": "ym2612"
    },
    {
      "channel": 4,
      "note": 67,
      "start": 71.7911,
      "duration": 0.0161,
      "velocity": 120,
      "chip": "ym2612"
    },
    {
      "channel": 3,
      "note": 74,
      "start": 71.7922,
      "duration": 0.0161,
      "velocity": 120,
      "chip": "ym2612"
    },
    {
      "channel": 2,
      "note": 47,
      "start": 71.7933,
      "duration": 0.0162,
      "velocity": 100,
      "chip": "ym2612"
    },
    {
      "channel": 0,
      "note": 38,
      "start": 71.806,
      "duration": 0.0161,
      "velocity": 115,
      "chip": "ym2612"
    },
    {
      "channel": 4,
      "note": 67,
      "start": 71.8072,
      "duration": 0.0161,
      "velocity": 120,
      "chip": "ym2612"
    },
    {
      "channel": 3,
      "note": 74,
      "start": 71.8083,
      "duration": 0.0161,
      "velocity": 120,
      "chip": "ym2612"
    },
    {
      "channel": 2,
      "note": 47,
      "start": 71.8095,
      "duration": 0.0161,
      "velocity": 100,
      "chip": "ym2612"
    },
    {
      "channel": 0,
      "note": 39,
      "start": 71.8221,
      "duration": 0.0161,
      "velocity": 115,
      "chip": "ym2612"
    },
    {
      "channel": 4,
      "note": 67,
      "start": 71.8233,
      "duration": 0.0161,
      "velocity": 120,
      "chip": "ym2612"
    },
    {
      "channel": 3,
      "note": 74,
      "start": 71.8244,
      "duration": 0.0161,
      "velocity": 120,
      "chip": "ym2612"
    },
    {
      "channel": 2,
      "note": 47,
      "start": 71.8256,
      "duration": 0.0161,
      "velocity": 100,
      "chip": "ym2612"
    },
    {
      "channel": 0,
      "note": 39,
      "start": 71.8382,
      "duration": 0.0161,
      "velocity": 115,
      "chip": "ym2612"
    },
    {
      "channel": 4,
      "note": 67,
      "start": 71.8394,
      "duration": 0.0161,
      "velocity": 120,
      "chip": "ym2612"
    },
    {
      "channel": 3,
      "note": 74,
      "start": 71.8405,
      "duration": 0.0161,
      "velocity": 120,
      "chip": "ym2612"
    },
    {
      "channel": 2,
      "note": 47,
      "start": 71.8417,
      "duration": 0.0161,
      "velocity": 100,
      "chip": "ym2612"
    },
    {
      "channel": 0,
      "note": 40,
      "start": 71.8543,
      "duration": 0.0161,
      "velocity": 115,
      "chip": "ym2612"
    },
    {
      "channel": 4,
      "note": 67,
      "start": 71.8555,
      "duration": 0.0161,
      "velocity": 120,
      "chip": "ym2612"
    },
    {
      "channel": 3,
      "note": 74,
      "start": 71.8566,
      "duration": 0.0161,
      "velocity": 120,
      "chip": "ym2612"
    },
    {
      "channel": 2,
      "note": 47,
      "start": 71.8578,
      "duration": 0.0161,
      "velocity": 100,
      "chip": "ym2612"
    },
    {
      "channel": 0,
      "note": 40,
      "start": 71.8704,
      "duration": 0.0161,
      "velocity": 115,
      "chip": "ym2612"
    },
    {
      "channel": 4,
      "note": 67,
      "start": 71.8716,
      "duration": 0.0161,
      "velocity": 120,
      "chip": "ym2612"
    },
    {
      "channel": 3,
      "note": 74,
      "start": 71.8727,
      "duration": 0.0161,
      "velocity": 120,
      "chip": "ym2612"
    },
    {
      "channel": 2,
      "note": 47,
      "start": 71.8739,
      "duration": 0.0161,
      "velocity": 100,
      "chip": "ym2612"
    },
    {
      "channel": 0,
      "note": 40,
      "start": 71.8865,
      "duration": 0.0161,
      "velocity": 115,
      "chip": "ym2612"
    },
    {
      "channel": 4,
      "note": 67,
      "start": 71.8877,
      "duration": 0.0161,
      "velocity": 120,
      "chip": "ym2612"
    },
    {
      "channel": 3,
      "note": 74,
      "start": 71.8888,
      "duration": 0.0162,
      "velocity": 120,
      "chip": "ym2612"
    },
    {
      "channel": 2,
      "note": 47,
      "start": 71.89,
      "duration": 0.0161,
      "velocity": 100,
      "chip": "ym2612"
    },
    {
      "channel": 0,
      "note": 41,
      "start": 71.9026,
      "duration": 0.0179,
      "velocity": 115,
      "chip": "ym2612"
    },
    {
      "channel": 4,
      "note": 67,
      "start": 71.9038,
      "duration": 0.0181,
      "velocity": 120,
      "chip": "ym2612"
    },
    {
      "channel": 3,
      "note": 74,
      "start": 71.905,
      "duration": 0.0184,
      "velocity": 120,
      "chip": "ym2612"
    },
    {
      "channel": 2,
      "note": 47,
      "start": 71.906,
      "duration": 0.0187,
      "velocity": 100,
      "chip": "ym2612"
    },
    {
      "channel": 0,
      "note": 36,
      "start": 71.9205,
      "duration": 0.0144,
      "velocity": 115,
      "chip": "ym2612"
    },
    {
      "channel": 4,
      "note": 71,
      "start": 71.922,
      "duration": 0.0142,
      "velocity": 120,
      "chip": "ym2612"
    },
    {
      "channel": 3,
      "note": 78,
      "start": 71.9233,
      "duration": 0.014,
      "velocity": 120,
      "chip": "ym2612"
    },
    {
      "channel": 2,
      "note": 47,
      "start": 71.9248,
      "duration": 0.0137,
      "velocity": 100,
      "chip": "ym2612"
    },
    {
      "channel": 0,
      "note": 36,
      "start": 71.9349,
      "duration": 0.016,
      "velocity": 115,
      "chip": "ym2612"
    },
    {
      "channel": 4,
      "note": 71,
      "start": 71.9361,
      "duration": 0.016,
      "velocity": 120,
      "chip": "ym2612"
    },
    {
      "channel": 3,
      "note": 78,
      "start": 71.9373,
      "duration": 0.0159,
      "velocity": 120,
      "chip": "ym2612"
    },
    {
      "channel": 2,
      "note": 47,
      "start": 71.9385,
      "duration": 0.0159,
      "velocity": 100,
      "chip": "ym2612"
    },
    {
      "channel": 0,
      "note": 37,
      "start": 71.951,
      "duration": 0.0161,
      "velocity": 115,
      "chip": "ym2612"
    },
    {
      "channel": 4,
      "note": 71,
      "start": 71.9521,
      "duration": 0.0161,
      "velocity": 120,
      "chip": "ym2612"
    },
    {
      "channel": 3,
      "note": 78,
      "start": 71.9532,
      "duration": 0.0161,
      "velocity": 120,
      "chip": "ym2612"
    },
    {
      "channel": 2,
      "note": 47,
      "start": 71.9544,
      "duration": 0.0161,
      "velocity": 100,
      "chip": "ym2612"
    },
    {
      "channel": 0,
      "note": 37,
      "start": 71.9671,
      "duration": 0.0161,
      "velocity": 115,
      "chip": "ym2612"
    },
    {
      "channel": 4,
      "note": 71,
      "start": 71.9682,
      "duration": 0.0161,
      "velocity": 120,
      "chip": "ym2612"
    },
    {
      "channel": 3,
      "note": 78,
      "start": 71.9693,
      "duration": 0.0161,
      "velocity": 120,
      "chip": "ym2612"
    },
    {
      "channel": 2,
      "note": 47,
      "start": 71.9705,
      "duration": 0.0161,
      "velocity": 100,
      "chip": "ym2612"
    },
    {
      "channel": 0,
      "note": 38,
      "start": 71.9832,
      "duration": 0.0161,
      "velocity": 115,
      "chip": "ym2612"
    },
    {
      "channel": 4,
      "note": 71,
      "start": 71.9843,
      "duration": 0.0161,
      "velocity": 120,
      "chip": "ym2612"
    },
    {
      "channel": 3,
      "note": 78,
      "start": 71.9854,
      "duration": 0.0161,
      "velocity": 120,
      "chip": "ym2612"
    },
    {
      "channel": 2,
      "note": 47,
      "start": 71.9866,
      "duration": 0.0161,
      "velocity": 100,
      "chip": "ym2612"
    },
    {
      "channel": 0,
      "note": 38,
      "start": 71.9992,
      "duration": 0.0161,
      "velocity": 115,
      "chip": "ym2612"
    },
    {
      "channel": 4,
      "note": 71,
      "start": 72.0004,
      "duration": 0.0161,
      "velocity": 120,
      "chip": "ym2612"
    },
    {
      "channel": 3,
      "note": 78,
      "start": 72.0015,
      "duration": 0.0161,
      "velocity": 120,
      "chip": "ym2612"
    },
    {
      "channel": 2,
      "note": 47,
      "start": 72.0027,
      "duration": 0.0161,
      "velocity": 100,
      "chip": "ym2612"
    },
    {
      "channel": 0,
      "note": 39,
      "start": 72.0153,
      "duration": 0.0167,
      "velocity": 115,
      "chip": "ym2612"
    },
    {
      "channel": 4,
      "note": 71,
      "start": 72.0165,
      "duration": 0.0167,
      "velocity": 120,
      "chip": "ym2612"
    },
    {
      "channel": 3,
      "note": 78,
      "start": 72.0176,
      "duration": 0.0167,
      "velocity": 120,
      "chip": "ym2612"
    },
    {
      "channel": 2,
      "note": 47,
      "start": 72.0188,
      "duration": 0.0167,
      "velocity": 100,
      "chip": "ym2612"
    },
    {
      "channel": 0,
      "note": 39,
      "start": 72.032,
      "duration": 0.0167,
      "velocity": 115,
      "chip": "ym2612"
    },
    {
      "channel": 4,
      "note": 71,
      "start": 72.0332,
      "duration": 0.0167,
      "velocity": 120,
      "chip": "ym2612"
    },
    {
      "channel": 3,
      "note": 78,
      "start": 72.0344,
      "duration": 0.0167,
      "velocity": 120,
      "chip": "ym2612"
    },
    {
      "channel": 2,
      "note": 47,
      "start": 72.0354,
      "duration": 0.0167,
      "velocity": 100,
      "chip": "ym2612"
    },
    {
      "channel": 0,
      "note": 40,
      "start": 72.0487,
      "duration": 0.0163,
      "velocity": 115,
      "chip": "ym2612"
    },
    {
      "channel": 4,
      "note": 71,
      "start": 72.0499,
      "duration": 0.0163,
      "velocity": 120,
      "chip": "ym2612"
    },
    {
      "channel": 3,
      "note": 78,
      "start": 72.051,
      "duration": 0.0163,
      "velocity": 120,
      "chip": "ym2612"
    },
    {
      "channel": 2,
      "note": 47,
      "start": 72.0521,
      "duration": 0.0163,
      "velocity": 100,
      "chip": "ym2612"
    },
    {
      "channel": 0,
      "note": 40,
      "start": 72.065,
      "duration": 0.0148,
      "velocity": 115,
      "chip": "ym2612"
    },
    {
      "channel": 4,
      "note": 71,
      "start": 72.0661,
      "duration": 0.0148,
      "velocity": 120,
      "chip": "ym2612"
    },
    {
      "channel": 3,
      "note": 78,
      "start": 72.0673,
      "duration": 0.0148,
      "velocity": 120,
      "chip": "ym2612"
    },
    {
      "channel": 2,
      "note": 47,
      "start": 72.0684,
      "duration": 0.0148,
      "velocity": 100,
      "chip": "ym2612"
    },
    {
      "channel": 0,
      "note": 40,
      "start": 72.0798,
      "duration": 0.0188,
      "velocity": 115,
      "chip": "ym2612"
    },
    {
      "channel": 4,
      "note": 71,
      "start": 72.0809,
      "duration": 0.0188,
      "velocity": 120,
      "chip": "ym2612"
    },
    {
      "channel": 3,
      "note": 78,
      "start": 72.0821,
      "duration": 0.0188,
      "velocity": 120,
      "chip": "ym2612"
    },
    {
      "channel": 2,
      "note": 47,
      "start": 72.0832,
      "duration": 0.0188,
      "velocity": 100,
      "chip": "ym2612"
    },
    {
      "channel": 0,
      "note": 41,
      "start": 72.0986,
      "duration": 0.0161,
      "velocity": 115,
      "chip": "ym2612"
    },
    {
      "channel": 4,
      "note": 71,
      "start": 72.0998,
      "duration": 0.0163,
      "velocity": 120,
      "chip": "ym2612"
    },
    {
      "channel": 3,
      "note": 78,
      "start": 72.1009,
      "duration": 0.0166,
      "velocity": 120,
      "chip": "ym2612"
    },
    {
      "channel": 2,
      "note": 47,
      "start": 72.102,
      "duration": 0.0168,
      "velocity": 100,
      "chip": "ym2612"
    },
    {
      "channel": 0,
      "note": 41,
      "start": 72.1147,
      "duration": 0.0157,
      "velocity": 115,
      "chip": "ym2612"
    },
    {
      "channel": 4,
      "note": 67,
      "start": 72.1161,
      "duration": 0.0155,
      "velocity": 120,
      "chip": "ym2612"
    },
    {
      "channel": 3,
      "note": 74,
      "start": 72.1175,
      "duration": 0.0153,
      "velocity": 120,
      "chip": "ym2612"
    },
    {
      "channel": 2,
      "note": 47,
      "start": 72.119,
      "duration": 0.0151,
      "velocity": 100,
      "chip": "ym2612"
    },
    {
      "channel": 0,
      "note": 42,
      "start": 72.1304,
      "duration": 0.0141,
      "velocity": 115,
      "chip": "ym2612"
    },
    {
      "channel": 4,
      "note": 67,
      "start": 72.1316,
      "duration": 0.014,
      "velocity": 120,
      "chip": "ym2612"
    },
    {
      "channel": 3,
      "note": 74,
      "start": 72.1328,
      "duration": 0.0139,
      "velocity": 120,
      "chip": "ym2612"
    },
    {
      "channel": 2,
      "note": 47,
      "start": 72.134,
      "duration": 0.0139,
      "velocity": 100,
      "chip": "ym2612"
    },
    {
      "channel": 0,
      "note": 42,
      "start": 72.1445,
      "duration": 0.0158,
      "velocity": 115,
      "chip": "ym2612"
    },
    {
      "channel": 4,
      "note": 67,
      "start": 72.1456,
      "duration": 0.0185,
      "velocity": 120,
      "chip": "ym2612"
    },
    {
      "channel": 3,
      "note": 74,
      "start": 72.1468,
      "duration": 0.0185,
      "velocity": 120,
      "chip": "ym2612"
    },
    {
      "channel": 2,
      "note": 47,
      "start": 72.1479,
      "duration": 0.0185,
      "velocity": 100,
      "chip": "ym2612"
    },
    {
      "channel": 0,
      "note": 43,
      "start": 72.1602,
      "duration": 0.0161,
      "velocity": 115,
      "chip": "ym2612"
    },
    {
      "channel": 4,
      "note": 67,
      "start": 72.1641,
      "duration": 0.0161,
      "velocity": 120,
      "chip": "ym2612"
    },
    {
      "channel": 3,
      "note": 74,
      "start": 72.1653,
      "duration": 0.0161,
      "velocity": 120,
      "chip": "ym2612"
    },
    {
      "channel": 2,
      "note": 47,
      "start": 72.1664,
      "duration": 0.0161,
      "velocity": 100,
      "chip": "ym2612"
    },
    {
      "channel": 0,
      "note": 43,
      "start": 72.1763,
      "duration": 0.0161,
      "velocity": 115,
      "chip": "ym2612"
    },
    {
      "channel": 4,
      "note": 67,
      "start": 72.1802,
      "duration": 0.0134,
      "velocity": 120,
      "chip": "ym2612"
    },
    {
      "channel": 3,
      "note": 74,
      "start": 72.1814,
      "duration": 0.0158,
      "velocity": 120,
      "chip": "ym2612"
    },
    {
      "channel": 2,
      "note": 47,
      "start": 72.1825,
      "duration": 0.0158,
      "velocity": 100,
      "chip": "ym2612"
    },
    {
      "channel": 0,
      "note": 44,
      "start": 72.1924,
      "duration": 0.0162,
      "velocity": 115,
      "chip": "ym2612"
    },
    {
      "channel": 4,
      "note": 67,
      "start": 72.1936,
      "duration": 0.0161,
      "velocity": 120,
      "chip": "ym2612"
    },
    {
      "channel": 3,
      "note": 74,
      "start": 72.1971,
      "duration": 0.0141,
      "velocity": 120,
      "chip": "ym2612"
    },
    {
      "channel": 2,
      "note": 47,
      "start": 72.1983,
      "duration": 0.0141,
      "velocity": 100,
      "chip": "ym2612"
    },
    {
      "channel": 0,
      "note": 44,
      "start": 72.2086,
      "duration": 0.0161,
      "velocity": 115,
      "chip": "ym2612"
    },
    {
      "channel": 4,
      "note": 67,
      "start": 72.2097,
      "duration": 0.0161,
      "velocity": 120,
      "chip": "ym2612"
    },
    {
      "channel": 3,
      "note": 74,
      "start": 72.2112,
      "duration": 0.0158,
      "velocity": 120,
      "chip": "ym2612"
    },
    {
      "channel": 2,
      "note": 47,
      "start": 72.2123,
      "duration": 0.0185,
      "velocity": 100,
      "chip": "ym2612"
    },
    {
      "channel": 0,
      "note": 44,
      "start": 72.2247,
      "duration": 0.0161,
      "velocity": 115,
      "chip": "ym2612"
    },
    {
      "channel": 4,
      "note": 67,
      "start": 72.2258,
      "duration": 0.0161,
      "velocity": 120,
      "chip": "ym2612"
    },
    {
      "channel": 3,
      "note": 74,
      "start": 72.227,
      "duration": 0.0161,
      "velocity": 120,
      "chip": "ym2612"
    },
    {
      "channel": 2,
      "note": 47,
      "start": 72.2309,
      "duration": 0.0161,
      "velocity": 100,
      "chip": "ym2612"
    },
    {
      "channel": 0,
      "note": 45,
      "start": 72.2408,
      "duration": 0.0161,
      "velocity": 115,
      "chip": "ym2612"
    },
    {
      "channel": 4,
      "note": 67,
      "start": 72.2419,
      "duration": 0.0161,
      "velocity": 120,
      "chip": "ym2612"
    },
    {
      "channel": 3,
      "note": 74,
      "start": 72.2431,
      "duration": 0.0161,
      "velocity": 120,
      "chip": "ym2612"
    },
    {
      "channel": 2,
      "note": 47,
      "start": 72.2469,
      "duration": 0.0134,
      "velocity": 100,
      "chip": "ym2612"
    },
    {
      "channel": 0,
      "note": 45,
      "start": 72.2569,
      "duration": 0.0161,
      "velocity": 115,
      "chip": "ym2612"
    },
    {
      "channel": 4,
      "note": 67,
      "start": 72.258,
      "duration": 0.0161,
      "velocity": 120,
      "chip": "ym2612"
    },
    {
      "channel": 3,
      "note": 74,
      "start": 72.2592,
      "duration": 0.0161,
      "velocity": 120,
      "chip": "ym2612"
    },
    {
      "channel": 2,
      "note": 47,
      "start": 72.2603,
      "duration": 0.0161,
      "velocity": 100,
      "chip": "ym2612"
    },
    {
      "channel": 0,
      "note": 46,
      "start": 72.273,
      "duration": 0.0161,
      "velocity": 115,
      "chip": "ym2612"
    },
    {
      "channel": 4,
      "note": 67,
      "start": 72.2741,
      "duration": 0.0161,
      "velocity": 120,
      "chip": "ym2612"
    },
    {
      "channel": 3,
      "note": 74,
      "start": 72.2753,
      "duration": 0.0161,
      "velocity": 120,
      "chip": "ym2612"
    },
    {
      "channel": 2,
      "note": 47,
      "start": 72.2764,
      "duration": 0.0161,
      "velocity": 100,
      "chip": "ym2612"
    },
    {
      "channel": 0,
      "note": 46,
      "start": 72.289,
      "duration": 0.0179,
      "velocity": 124,
      "chip": "ym2612"
    },
    {
      "channel": 4,
      "note": 67,
      "start": 72.2902,
      "duration": 0.0181,
      "velocity": 120,
      "chip": "ym2612"
    },
    {
      "channel": 3,
      "note": 74,
      "start": 72.2913,
      "duration": 0.0184,
      "velocity": 120,
      "chip": "ym2612"
    },
    {
      "channel": 2,
      "note": 47,
      "start": 72.2925,
      "duration": 0.0214,
      "velocity": 100,
      "chip": "ym2612"
    },
    {
      "channel": 0,
      "note": 84,
      "start": 72.3069,
      "duration": 0.0144,
      "velocity": 124,
      "chip": "ym2612"
    },
    {
      "channel": 4,
      "note": 71,
      "start": 72.3084,
      "duration": 0.0141,
      "velocity": 120,
      "chip": "ym2612"
    },
    {
      "channel": 3,
      "note": 78,
      "start": 72.3098,
      "duration": 0.0139,
      "velocity": 120,
      "chip": "ym2612"
    },
    {
      "channel": 2,
      "note": 47,
      "start": 72.314,
      "duration": 0.011,
      "velocity": 100,
      "chip": "ym2612"
    },
    {
      "channel": 0,
      "note": 82,
      "start": 72.3213,
      "duration": 0.016,
      "velocity": 124,
      "chip": "ym2612"
    },
    {
      "channel": 4,
      "note": 71,
      "start": 72.3225,
      "duration": 0.016,
      "velocity": 120,
      "chip": "ym2612"
    },
    {
      "channel": 3,
      "note": 78,
      "start": 72.3237,
      "duration": 0.0159,
      "velocity": 120,
      "chip": "ym2612"
    },
    {
      "channel": 2,
      "note": 47,
      "start": 72.3249,
      "duration": 0.0158,
      "velocity": 100,
      "chip": "ym2612"
    },
    {
      "channel": 0,
      "note": 80,
      "start": 72.3373,
      "duration": 0.0161,
      "velocity": 124,
      "chip": "ym2612"
    },
    {
      "channel": 4,
      "note": 71,
      "start": 72.3385,
      "duration": 0.0161,
      "velocity": 120,
      "chip": "ym2612"
    },
    {
      "channel": 3,
      "note": 78,
      "start": 72.3396,
      "duration": 0.0161,
      "velocity": 120,
      "chip": "ym2612"
    },
    {
      "channel": 2,
      "note": 47,
      "start": 72.3408,
      "duration": 0.0161,
      "velocity": 100,
      "chip": "ym2612"
    },
    {
      "channel": 0,
      "note": 77,
      "start": 72.3535,
      "duration": 0.0161,
      "velocity": 124,
      "chip": "ym2612"
    },
    {
      "channel": 4,
      "note": 71,
      "start": 72.3546,
      "duration": 0.0161,
      "velocity": 120,
      "chip": "ym2612"
    },
    {
      "channel": 3,
      "note": 78,
      "start": 72.3558,
      "duration": 0.0161,
      "velocity": 120,
      "chip": "ym2612"
    },
    {
      "channel": 2,
      "note": 47,
      "start": 72.3569,
      "duration": 0.0161,
      "velocity": 100,
      "chip": "ym2612"
    },
    {
      "channel": 0,
      "note": 75,
      "start": 72.3696,
      "duration": 0.0161,
      "velocity": 124,
      "chip": "ym2612"
    },
    {
      "channel": 4,
      "note": 71,
      "start": 72.3707,
      "duration": 0.0161,
      "velocity": 120,
      "chip": "ym2612"
    },
    {
      "channel": 3,
      "note": 78,
      "start": 72.3719,
      "duration": 0.0161,
      "velocity": 120,
      "chip": "ym2612"
    },
    {
      "channel": 2,
      "note": 47,
      "start": 72.373,
      "duration": 0.0161,
      "velocity": 100,
      "chip": "ym2612"
    },
    {
      "channel": 0,
      "note": 72,
      "start": 72.3857,
      "duration": 0.0161,
      "velocity": 124,
      "chip": "ym2612"
    },
    {
      "channel": 4,
      "note": 71,
      "start": 72.3868,
      "duration": 0.0161,
      "velocity": 120,
      "chip": "ym2612"
    },
    {
      "channel": 3,
      "note": 78,
      "start": 72.388,
      "duration": 0.0161,
      "velocity": 120,
      "chip": "ym2612"
    },
    {
      "channel": 2,
      "note": 47,
      "start": 72.3891,
      "duration": 0.0161,
      "velocity": 100,
      "chip": "ym2612"
    },
    {
      "channel": 0,
      "note": 70,
      "start": 72.4018,
      "duration": 0.0161,
      "velocity": 124,
      "chip": "ym2612"
    },
    {
      "channel": 4,
      "note": 71,
      "start": 72.4029,
      "duration": 0.0161,
      "velocity": 120,
      "chip": "ym2612"
    },
    {
      "channel": 3,
      "note": 78,
      "start": 72.4041,
      "duration": 0.0161,
      "velocity": 120,
      "chip": "ym2612"
    },
    {
      "channel": 2,
      "note": 47,
      "start": 72.4052,
      "duration": 0.0161,
      "velocity": 100,
      "chip": "ym2612"
    },
    {
      "channel": 0,
      "note": 68,
      "start": 72.4179,
      "duration": 0.0161,
      "velocity": 124,
      "chip": "ym2612"
    },
    {
      "channel": 4,
      "note": 71,
      "start": 72.419,
      "duration": 0.0161,
      "velocity": 120,
      "chip": "ym2612"
    },
    {
      "channel": 3,
      "note": 78,
      "start": 72.4202,
      "duration": 0.0161,
      "velocity": 120,
      "chip": "ym2612"
    },
    {
      "channel": 2,
      "note": 47,
      "start": 72.4213,
      "duration": 0.0161,
      "velocity": 100,
      "chip": "ym2612"
    },
    {
      "channel": 0,
      "note": 65,
      "start": 72.434,
      "duration": 0.0161,
      "velocity": 124,
      "chip": "ym2612"
    },
    {
      "channel": 4,
      "note": 71,
      "start": 72.4351,
      "duration": 0.0162,
      "velocity": 120,
      "chip": "ym2612"
    },
    {
      "channel": 3,
      "note": 78,
      "start": 72.4363,
      "duration": 0.0161,
      "velocity": 120,
      "chip": "ym2612"
    },
    {
      "channel": 2,
      "note": 47,
      "start": 72.4374,
      "duration": 0.0161,
      "velocity": 100,
      "chip": "ym2612"
    },
    {
      "channel": 0,
      "note": 63,
      "start": 72.4501,
      "duration": 0.0153,
      "velocity": 1,
      "chip": "ym2612"
    },
    {
      "channel": 4,
      "note": 71,
      "start": 72.4513,
      "duration": 0.0153,
      "velocity": 120,
      "chip": "ym2612"
    },
    {
      "channel": 3,
      "note": 78,
      "start": 72.4524,
      "duration": 0.0153,
      "velocity": 120,
      "chip": "ym2612"
    },
    {
      "channel": 2,
      "note": 47,
      "start": 72.4535,
      "duration": 0.0153,
      "velocity": 100,
      "chip": "ym2612"
    },
    {
      "channel": 4,
      "note": 71,
      "start": 72.4665,
      "duration": 0.0153,
      "velocity": 120,
      "chip": "ym2612"
    },
    {
      "channel": 3,
      "note": 78,
      "start": 72.4677,
      "duration": 0.0153,
      "velocity": 120,
      "chip": "ym2612"
    },
    {
      "channel": 2,
      "note": 47,
      "start": 72.4688,
      "duration": 0.0153,
      "velocity": 100,
      "chip": "ym2612"
    },
    {
      "channel": 4,
      "note": 71,
      "start": 72.4818,
      "duration": 0.0166,
      "velocity": 120,
      "chip": "ym2612"
    },
    {
      "channel": 3,
      "note": 78,
      "start": 72.4829,
      "duration": 0.0169,
      "velocity": 120,
      "chip": "ym2612"
    },
    {
      "channel": 2,
      "note": 47,
      "start": 72.484,
      "duration": 0.0172,
      "velocity": 100,
      "chip": "ym2612"
    },
    {
      "channel": 4,
      "note": 67,
      "start": 72.4985,
      "duration": 0.0165,
      "velocity": 120,
      "chip": "ym2612"
    },
    {
      "channel": 3,
      "note": 74,
      "start": 72.4999,
      "duration": 0.0162,
      "velocity": 120,
      "chip": "ym2612"
    },
    {
      "channel": 2,
      "note": 47,
      "start": 72.5013,
      "duration": 0.016,
      "velocity": 100,
      "chip": "ym2612"
    },
    {
      "channel": 4,
      "note": 67,
      "start": 72.5149,
      "duration": 0.0162,
      "velocity": 120,
      "chip": "ym2612"
    },
    {
      "channel": 3,
      "note": 74,
      "start": 72.5161,
      "duration": 0.0162,
      "velocity": 120,
      "chip": "ym2612"
    },
    {
      "channel": 2,
      "note": 47,
      "start": 72.5173,
      "duration": 0.0162,
      "velocity": 100,
      "chip": "ym2612"
    },
    {
      "channel": 4,
      "note": 67,
      "start": 72.5312,
      "duration": 0.015,
      "velocity": 120,
      "chip": "ym2612"
    },
    {
      "channel": 3,
      "note": 74,
      "start": 72.5323,
      "duration": 0.015,
      "velocity": 120,
      "chip": "ym2612"
    },
    {
      "channel": 2,
      "note": 47,
      "start": 72.5335,
      "duration": 0.015,
      "velocity": 100,
      "chip": "ym2612"
    },
    {
      "channel": 4,
      "note": 67,
      "start": 72.5462,
      "duration": 0.0187,
      "velocity": 120,
      "chip": "ym2612"
    },
    {
      "channel": 3,
      "note": 74,
      "start": 72.5473,
      "duration": 0.0187,
      "velocity": 120,
      "chip": "ym2612"
    },
    {
      "channel": 2,
      "note": 47,
      "start": 72.5485,
      "duration": 0.0186,
      "velocity": 100,
      "chip": "ym2612"
    },
    {
      "channel": 4,
      "note": 67,
      "start": 72.5649,
      "duration": 0.0163,
      "velocity": 120,
      "chip": "ym2612"
    },
    {
      "channel": 3,
      "note": 74,
      "start": 72.566,
      "duration": 0.0162,
      "velocity": 120,
      "chip": "ym2612"
    },
    {
      "channel": 2,
      "note": 47,
      "start": 72.5671,
      "duration": 0.0163,
      "velocity": 100,
      "chip": "ym2612"
    },
    {
      "channel": 4,
      "note": 67,
      "start": 72.5812,
      "duration": 0.0157,
      "velocity": 120,
      "chip": "ym2612"
    },
    {
      "channel": 3,
      "note": 74,
      "start": 72.5822,
      "duration": 0.0158,
      "velocity": 120,
      "chip": "ym2612"
    },
    {
      "channel": 2,
      "note": 47,
      "start": 72.5834,
      "duration": 0.0158,
      "velocity": 100,
      "chip": "ym2612"
    },
    {
      "channel": 4,
      "note": 67,
      "start": 72.5969,
      "duration": 0.0137,
      "velocity": 120,
      "chip": "ym2612"
    },
    {
      "channel": 3,
      "note": 74,
      "start": 72.598,
      "duration": 0.014,
      "velocity": 120,
      "chip": "ym2612"
    },
    {
      "channel": 2,
      "note": 47,
      "start": 72.5992,
      "duration": 0.014,
      "velocity": 100,
      "chip": "ym2612"
    },
    {
      "channel": 4,
      "note": 67,
      "start": 72.6106,
      "duration": 0.0161,
      "velocity": 120,
      "chip": "ym2612"
    },
    {
      "channel": 3,
      "note": 74,
      "start": 72.612,
      "duration": 0.0186,
      "velocity": 120,
      "chip": "ym2612"
    },
    {
      "channel": 2,
      "note": 47,
      "start": 72.6132,
      "duration": 0.0185,
      "velocity": 100,
      "chip": "ym2612"
    },
    {
      "channel": 4,
      "note": 67,
      "start": 72.6267,
      "duration": 0.0161,
      "velocity": 120,
      "chip": "ym2612"
    },
    {
      "channel": 3,
      "note": 74,
      "start": 72.6306,
      "duration": 0.0134,
      "velocity": 120,
      "chip": "ym2612"
    },
    {
      "channel": 2,
      "note": 47,
      "start": 72.6317,
      "duration": 0.0162,
      "velocity": 100,
      "chip": "ym2612"
    },
    {
      "channel": 4,
      "note": 67,
      "start": 72.6428,
      "duration": 0.0161,
      "velocity": 120,
      "chip": "ym2612"
    },
    {
      "channel": 3,
      "note": 74,
      "start": 72.6439,
      "duration": 0.0161,
      "velocity": 120,
      "chip": "ym2612"
    },
    {
      "channel": 2,
      "note": 47,
      "start": 72.6478,
      "duration": 0.0157,
      "velocity": 100,
      "chip": "ym2612"
    },
    {
      "channel": 4,
      "note": 67,
      "start": 72.6589,
      "duration": 0.0161,
      "velocity": 120,
      "chip": "ym2612"
    },
    {
      "channel": 3,
      "note": 74,
      "start": 72.66,
      "duration": 0.0161,
      "velocity": 120,
      "chip": "ym2612"
    },
    {
      "channel": 2,
      "note": 47,
      "start": 72.6635,
      "duration": 0.0137,
      "velocity": 100,
      "chip": "ym2612"
    },
    {
      "channel": 4,
      "note": 67,
      "start": 72.675,
      "duration": 0.0225,
      "velocity": 120,
      "chip": "ym2612"
    },
    {
      "channel": 3,
      "note": 74,
      "start": 72.6761,
      "duration": 0.0228,
      "velocity": 120,
      "chip": "ym2612"
    },
    {
      "channel": 2,
      "note": 47,
      "start": 72.6773,
      "duration": 0.0231,
      "velocity": 100,
      "chip": "ym2612"
    },
    {
      "channel": 0,
      "note": 36,
      "start": 72.6934,
      "duration": 0.0144,
      "velocity": 115,
      "chip": "ym2612"
    },
    {
      "channel": 4,
      "note": 64,
      "start": 72.6975,
      "duration": 0.0114,
      "velocity": 120,
      "chip": "ym2612"
    },
    {
      "channel": 3,
      "note": 71,
      "start": 72.6989,
      "duration": 0.0113,
      "velocity": 120,
      "chip": "ym2612"
    },
    {
      "channel": 2,
      "note": 47,
      "start": 72.7004,
      "duration": 0.0137,
      "velocity": 100,
      "chip": "ym2612"
    },
    {
      "channel": 0,
      "note": 36,
      "start": 72.7078,
      "duration": 0.016,
      "velocity": 115,
      "chip": "ym2612"
    },
    {
      "channel": 4,
      "note": 64,
      "start": 72.709,
      "duration": 0.016,
      "velocity": 120,
      "chip": "ym2612"
    },
    {
      "channel": 3,
      "note": 71,
      "start": 72.7102,
      "duration": 0.0159,
      "velocity": 120,
      "chip": "ym2612"
    },
    {
      "channel": 2,
      "note": 47,
      "start": 72.7141,
      "duration": 0.0131,
      "velocity": 100,
      "chip": "ym2612"
    },
    {
      "channel": 0,
      "note": 37,
      "start": 72.7238,
      "duration": 0.0161,
      "velocity": 115,
      "chip": "ym2612"
    },
    {
      "channel": 4,
      "note": 64,
      "start": 72.7249,
      "duration": 0.0161,
      "velocity": 120,
      "chip": "ym2612"
    },
    {
      "channel": 3,
      "note": 71,
      "start": 72.7261,
      "duration": 0.0161,
      "velocity": 120,
      "chip": "ym2612"
    },
    {
      "channel": 2,
      "note": 47,
      "start": 72.7272,
      "duration": 0.0161,
      "velocity": 100,
      "chip": "ym2612"
    },
    {
      "channel": 0,
      "note": 37,
      "start": 72.7399,
      "duration": 0.0161,
      "velocity": 115,
      "chip": "ym2612"
    },
    {
      "channel": 4,
      "note": 64,
      "start": 72.741,
      "duration": 0.0161,
      "velocity": 120,
      "chip": "ym2612"
    },
    {
      "channel": 3,
      "note": 71,
      "start": 72.7422,
      "duration": 0.0161,
      "velocity": 120,
      "chip": "ym2612"
    },
    {
      "channel": 2,
      "note": 47,
      "start": 72.7433,
      "duration": 0.0161,
      "velocity": 100,
      "chip": "ym2612"
    },
    {
      "channel": 0,
      "note": 38,
      "start": 72.756,
      "duration": 0.0161,
      "velocity": 115,
      "chip": "ym2612"
    },
    {
      "channel": 4,
      "note": 64,
      "start": 72.7571,
      "duration": 0.0161,
      "velocity": 120,
      "chip": "ym2612"
    },
    {
      "channel": 3,
      "note": 71,
      "start": 72.7583,
      "duration": 0.0161,
      "velocity": 120,
      "chip": "ym2612"
    },
    {
      "channel": 2,
      "note": 47,
      "start": 72.7594,
      "duration": 0.0161,
      "velocity": 100,
      "chip": "ym2612"
    },
    {
      "channel": 0,
      "note": 38,
      "start": 72.7721,
      "duration": 0.0161,
      "velocity": 115,
      "chip": "ym2612"
    },
    {
      "channel": 4,
      "note": 64,
      "start": 72.7732,
      "duration": 0.0161,
      "velocity": 120,
      "chip": "ym2612"
    },
    {
      "channel": 3,
      "note": 71,
      "start": 72.7744,
      "duration": 0.0161,
      "velocity": 120,
      "chip": "ym2612"
    },
    {
      "channel": 2,
      "note": 47,
      "start": 72.7755,
      "duration": 0.0161,
      "velocity": 100,
      "chip": "ym2612"
    },
    {
      "channel": 0,
      "note": 39,
      "start": 72.7882,
      "duration": 0.0161,
      "velocity": 115,
      "chip": "ym2612"
    },
    {
      "channel": 4,
      "note": 64,
      "start": 72.7893,
      "duration": 0.0161,
      "velocity": 120,
      "chip": "ym2612"
    },
    {
      "channel": 3,
      "note": 71,
      "start": 72.7905,
      "duration": 0.0162,
      "velocity": 120,
      "chip": "ym2612"
    },
    {
      "channel": 2,
      "note": 47,
      "start": 72.7916,
      "duration": 0.0161,
      "velocity": 100,
      "chip": "ym2612"
    },
    {
      "channel": 0,
      "note": 39,
      "start": 72.8043,
      "duration": 0.0161,
      "velocity": 115,
      "chip": "ym2612"
    },
    {
      "channel": 4,
      "note": 64,
      "start": 72.8055,
      "duration": 0.0161,
      "velocity": 120,
      "chip": "ym2612"
    },
    {
      "channel": 3,
      "note": 71,
      "start": 72.8066,
      "duration": 0.0161,
      "velocity": 120,
      "chip": "ym2612"
    },
    {
      "channel": 2,
      "note": 47,
      "start": 72.8077,
      "duration": 0.0161,
      "velocity": 100,
      "chip": "ym2612"
    },
    {
      "channel": 0,
      "note": 40,
      "start": 72.8204,
      "duration": 0.0161,
      "velocity": 115,
      "chip": "ym2612"
    },
    {
      "channel": 4,
      "note": 64,
      "start": 72.8216,
      "duration": 0.0161,
      "velocity": 120,
      "chip": "ym2612"
    },
    {
      "channel": 3,
      "note": 71,
      "start": 72.8227,
      "duration": 0.0161,
      "velocity": 120,
      "chip": "ym2612"
    },
    {
      "channel": 2,
      "note": 47,
      "start": 72.8238,
      "duration": 0.0162,
      "velocity": 100,
      "chip": "ym2612"
    },
    {
      "channel": 0,
      "note": 40,
      "start": 72.8365,
      "duration": 0.0161,
      "velocity": 115,
      "chip": "ym2612"
    },
    {
      "channel": 4,
      "note": 64,
      "start": 72.8377,
      "duration": 0.0161,
      "velocity": 120,
      "chip": "ym2612"
    },
    {
      "channel": 3,
      "note": 71,
      "start": 72.8388,
      "duration": 0.0161,
      "velocity": 120,
      "chip": "ym2612"
    },
    {
      "channel": 2,
      "note": 47,
      "start": 72.84,
      "duration": 0.0161,
      "velocity": 100,
      "chip": "ym2612"
    },
    {
      "channel": 0,
      "note": 40,
      "start": 72.8526,
      "duration": 0.0161,
      "velocity": 115,
      "chip": "ym2612"
    },
    {
      "channel": 4,
      "note": 64,
      "start": 72.8537,
      "duration": 0.0161,
      "velocity": 120,
      "chip": "ym2612"
    },
    {
      "channel": 3,
      "note": 71,
      "start": 72.8549,
      "duration": 0.0161,
      "velocity": 120,
      "chip": "ym2612"
    },
    {
      "channel": 2,
      "note": 47,
      "start": 72.856,
      "duration": 0.0161,
      "velocity": 100,
      "chip": "ym2612"
    },
    {
      "channel": 0,
      "note": 41,
      "start": 72.8687,
      "duration": 0.0161,
      "velocity": 115,
      "chip": "ym2612"
    },
    {
      "channel": 4,
      "note": 64,
      "start": 72.8698,
      "duration": 0.0163,
      "velocity": 120,
      "chip": "ym2612"
    },
    {
      "channel": 3,
      "note": 71,
      "start": 72.871,
      "duration": 0.0166,
      "velocity": 120,
      "chip": "ym2612"
    },
    {
      "channel": 2,
      "note": 47,
      "start": 72.8721,
      "duration": 0.0169,
      "velocity": 100,
      "chip": "ym2612"
    },
    {
      "channel": 0,
      "note": 41,
      "start": 72.8848,
      "duration": 0.0161,
      "velocity": 115,
      "chip": "ym2612"
    },
    {
      "channel": 4,
      "note": 71,
      "start": 72.8862,
      "duration": 0.0159,
      "velocity": 120,
      "chip": "ym2612"
    },
    {
      "channel": 3,
      "note": 78,
      "start": 72.8876,
      "duration": 0.0157,
      "velocity": 120,
      "chip": "ym2612"
    },
    {
      "channel": 2,
      "note": 47,
      "start": 72.889,
      "duration": 0.0155,
      "velocity": 100,
      "chip": "ym2612"
    },
    {
      "channel": 0,
      "note": 42,
      "start": 72.9009,
      "duration": 0.0161,
      "velocity": 115,
      "chip": "ym2612"
    },
    {
      "channel": 4,
      "note": 71,
      "start": 72.9021,
      "duration": 0.016,
      "velocity": 120,
      "chip": "ym2612"
    },
    {
      "channel": 3,
      "note": 78,
      "start": 72.9033,
      "duration": 0.016,
      "velocity": 120,
      "chip": "ym2612"
    },
    {
      "channel": 2,
      "note": 47,
      "start": 72.9045,
      "duration": 0.0159,
      "velocity": 100,
      "chip": "ym2612"
    },
    {
      "channel": 0,
      "note": 42,
      "start": 72.917,
      "duration": 0.0161,
      "velocity": 115,
      "chip": "ym2612"
    },
    {
      "channel": 4,
      "note": 71,
      "start": 72.9181,
      "duration": 0.0162,
      "velocity": 120,
      "chip": "ym2612"
    },
    {
      "channel": 3,
      "note": 78,
      "start": 72.9193,
      "duration": 0.0161,
      "velocity": 120,
      "chip": "ym2612"
    },
    {
      "channel": 2,
      "note": 47,
      "start": 72.9204,
      "duration": 0.0161,
      "velocity": 100,
      "chip": "ym2612"
    },
    {
      "channel": 0,
      "note": 43,
      "start": 72.9331,
      "duration": 0.0161,
      "velocity": 115,
      "chip": "ym2612"
    },
    {
      "channel": 4,
      "note": 71,
      "start": 72.9343,
      "duration": 0.0161,
      "velocity": 120,
      "chip": "ym2612"
    },
    {
      "channel": 3,
      "note": 78,
      "start": 72.9354,
      "duration": 0.0161,
      "velocity": 120,
      "chip": "ym2612"
    },
    {
      "channel": 2,
      "note": 47,
      "start": 72.9365,
      "duration": 0.0161,
      "velocity": 100,
      "chip": "ym2612"
    },
    {
      "channel": 0,
      "note": 43,
      "start": 72.9492,
      "duration": 0.0162,
      "velocity": 115,
      "chip": "ym2612"
    },
    {
      "channel": 4,
      "note": 71,
      "start": 72.9504,
      "duration": 0.0161,
      "velocity": 120,
      "chip": "ym2612"
    },
    {
      "channel": 3,
      "note": 78,
      "start": 72.9515,
      "duration": 0.0162,
      "velocity": 120,
      "chip": "ym2612"
    },
    {
      "channel": 2,
      "note": 47,
      "start": 72.9526,
      "duration": 0.0162,
      "velocity": 100,
      "chip": "ym2612"
    },
    {
      "channel": 0,
      "note": 44,
      "start": 72.9653,
      "duration": 0.0167,
      "velocity": 115,
      "chip": "ym2612"
    },
    {
      "channel": 4,
      "note": 71,
      "start": 72.9665,
      "duration": 0.0167,
      "velocity": 120,
      "chip": "ym2612"
    },
    {
      "channel": 3,
      "note": 78,
      "start": 72.9677,
      "duration": 0.0167,
      "velocity": 120,
      "chip": "ym2612"
    },
    {
      "channel": 2,
      "note": 47,
      "start": 72.9688,
      "duration": 0.0167,
      "velocity": 100,
      "chip": "ym2612"
    },
    {
      "channel": 0,
      "note": 44,
      "start": 72.9821,
      "duration": 0.0163,
      "velocity": 115,
      "chip": "ym2612"
    },
    {
      "channel": 4,
      "note": 71,
      "start": 72.9832,
      "duration": 0.0163,
      "velocity": 120,
      "chip": "ym2612"
    },
    {
      "channel": 3,
      "note": 78,
      "start": 72.9844,
      "duration": 0.0163,
      "velocity": 120,
      "chip": "ym2612"
    },
    {
      "channel": 2,
      "note": 47,
      "start": 72.9855,
      "duration": 0.0163,
      "velocity": 100,
      "chip": "ym2612"
    },
    {
      "channel": 0,
      "note": 44,
      "start": 72.9983,
      "duration": 0.0153,
      "velocity": 115,
      "chip": "ym2612"
    },
    {
      "channel": 4,
      "note": 71,
      "start": 72.9995,
      "duration": 0.0153,
      "velocity": 120,
      "chip": "ym2612"
    },
    {
      "channel": 3,
      "note": 78,
      "start": 73.0006,
      "duration": 0.0153,
      "velocity": 120,
      "chip": "ym2612"
    },
    {
      "channel": 2,
      "note": 47,
      "start": 73.0018,
      "duration": 0.0153,
      "velocity": 100,
      "chip": "ym2612"
    },
    {
      "channel": 0,
      "note": 45,
      "start": 73.0136,
      "duration": 0.0184,
      "velocity": 115,
      "chip": "ym2612"
    },
    {
      "channel": 4,
      "note": 71,
      "start": 73.0148,
      "duration": 0.0184,
      "velocity": 120,
      "chip": "ym2612"
    },
    {
      "channel": 3,
      "note": 78,
      "start": 73.0159,
      "duration": 0.0185,
      "velocity": 120,
      "chip": "ym2612"
    },
    {
      "channel": 2,
      "note": 47,
      "start": 73.0171,
      "duration": 0.0184,
      "velocity": 100,
      "chip": "ym2612"
    },
    {
      "channel": 0,
      "note": 45,
      "start": 73.032,
      "duration": 0.0165,
      "velocity": 115,
      "chip": "ym2612"
    },
    {
      "channel": 4,
      "note": 71,
      "start": 73.0332,
      "duration": 0.0166,
      "velocity": 120,
      "chip": "ym2612"
    },
    {
      "channel": 3,
      "note": 78,
      "start": 73.0344,
      "duration": 0.0165,
      "velocity": 120,
      "chip": "ym2612"
    },
    {
      "channel": 2,
      "note": 47,
      "start": 73.0354,
      "duration": 0.0165,
      "velocity": 100,
      "chip": "ym2612"
    },
    {
      "channel": 0,
      "note": 46,
      "start": 73.0485,
      "duration": 0.0158,
      "velocity": 115,
      "chip": "ym2612"
    },
    {
      "channel": 4,
      "note": 71,
      "start": 73.0498,
      "duration": 0.0157,
      "velocity": 120,
      "chip": "ym2612"
    },
    {
      "channel": 3,
      "note": 78,
      "start": 73.0509,
      "duration": 0.0157,
      "velocity": 120,
      "chip": "ym2612"
    },
    {
      "channel": 2,
      "note": 47,
      "start": 73.052,
      "duration": 0.0158,
      "velocity": 100,
      "chip": "ym2612"
    },
    {
      "channel": 0,
      "note": 46,
      "start": 73.0643,
      "duration": 0.0158,
      "velocity": 124,
      "chip": "ym2612"
    },
    {
      "channel": 4,
      "note": 71,
      "start": 73.0655,
      "duration": 0.016,
      "velocity": 120,
      "chip": "ym2612"
    },
    {
      "channel": 3,
      "note": 78,
      "start": 73.0666,
      "duration": 0.0163,
      "velocity": 120,
      "chip": "ym2612"
    },
    {
      "channel": 2,
      "note": 47,
      "start": 73.0678,
      "duration": 0.0166,
      "velocity": 100,
      "chip": "ym2612"
    },
    {
      "channel": 0,
      "note": 84,
      "start": 73.0802,
      "duration": 0.0168,
      "velocity": 124,
      "chip": "ym2612"
    },
    {
      "channel": 4,
      "note": 67,
      "start": 73.0815,
      "duration": 0.0166,
      "velocity": 120,
      "chip": "ym2612"
    },
    {
      "channel": 3,
      "note": 74,
      "start": 73.0829,
      "duration": 0.0164,
      "velocity": 120,
      "chip": "ym2612"
    },
    {
      "channel": 2,
      "note": 47,
      "start": 73.0844,
      "duration": 0.0161,
      "velocity": 100,
      "chip": "ym2612"
    },
    {
      "channel": 0,
      "note": 82,
      "start": 73.0969,
      "duration": 0.0133,
      "velocity": 124,
      "chip": "ym2612"
    },
    {
      "channel": 4,
      "note": 67,
      "start": 73.0982,
      "duration": 0.016,
      "velocity": 120,
      "chip": "ym2612"
    },
    {
      "channel": 3,
      "note": 74,
      "start": 73.0994,
      "duration": 0.0159,
      "velocity": 120,
      "chip": "ym2612"
    },
    {
      "channel": 2,
      "note": 47,
      "start": 73.1005,
      "duration": 0.0159,
      "velocity": 100,
      "chip": "ym2612"
    },
    {
      "channel": 0,
      "note": 80,
      "start": 73.1102,
      "duration": 0.0161,
      "velocity": 124,
      "chip": "ym2612"
    },
    {
      "channel": 4,
      "note": 67,
      "start": 73.1141,
      "duration": 0.0157,
      "velocity": 120,
      "chip": "ym2612"
    },
    {
      "channel": 3,
      "note": 74,
      "start": 73.1153,
      "duration": 0.0157,
      "velocity": 120,
      "chip": "ym2612"
    },
    {
      "channel": 2,
      "note": 47,
      "start": 73.1164,
      "duration": 0.0157,
      "velocity": 100,
      "chip": "ym2612"
    },
    {
      "channel": 0,
      "note": 77,
      "start": 73.1263,
      "duration": 0.0161,
      "velocity": 124,
      "chip": "ym2612"
    },
    {
      "channel": 4,
      "note": 67,
      "start": 73.1298,
      "duration": 0.0137,
      "velocity": 120,
      "chip": "ym2612"
    },
    {
      "channel": 3,
      "note": 74,
      "start": 73.131,
      "duration": 0.0141,
      "velocity": 120,
      "chip": "ym2612"
    },
    {
      "channel": 2,
      "note": 47,
      "start": 73.1321,
      "duration": 0.0141,
      "velocity": 100,
      "chip": "ym2612"
    },
    {
      "channel": 0,
      "note": 75,
      "start": 73.1424,
      "duration": 0.0161,
      "velocity": 124,
      "chip": "ym2612"
    },
    {
      "channel": 4,
      "note": 67,
      "start": 73.1436,
      "duration": 0.0161,
      "velocity": 120,
      "chip": "ym2612"
    },
    {
      "channel": 3,
      "note": 74,
      "start": 73.145,
      "duration": 0.0185,
      "velocity": 120,
      "chip": "ym2612"
    },
    {
      "channel": 2,
      "note": 47,
      "start": 73.1462,
      "duration": 0.0185,
      "velocity": 100,
      "chip": "ym2612"
    },
    {
      "channel": 0,
      "note": 72,
      "start": 73.1585,
      "duration": 0.0161,
      "velocity": 124,
      "chip": "ym2612"
    },
    {
      "channel": 4,
      "note": 67,
      "start": 73.1597,
      "duration": 0.0161,
      "velocity": 120,
      "chip": "ym2612"
    },
    {
      "channel": 3,
      "note": 74,
      "start": 73.1635,
      "duration": 0.0134,
      "velocity": 120,
      "chip": "ym2612"
    },
    {
      "channel": 2,
      "note": 47,
      "start": 73.1647,
      "duration": 0.0161,
      "velocity": 100,
      "chip": "ym2612"
    },
    {
      "channel": 0,
      "note": 70,
      "start": 73.1746,
      "duration": 0.0161,
      "velocity": 124,
      "chip": "ym2612"
    },
    {
      "channel": 4,
      "note": 67,
      "start": 73.1758,
      "duration": 0.0161,
      "velocity": 120,
      "chip": "ym2612"
    },
    {
      "channel": 3,
      "note": 74,
      "start": 73.1769,
      "duration": 0.0161,
      "velocity": 120,
      "chip": "ym2612"
    },
    {
      "channel": 2,
      "note": 47,
      "start": 73.1808,
      "duration": 0.0157,
      "velocity": 100,
      "chip": "ym2612"
    },
    {
      "channel": 0,
      "note": 68,
      "start": 73.1907,
      "duration": 0.0161,
      "velocity": 124,
      "chip": "ym2612"
    },
    {
      "channel": 4,
      "note": 67,
      "start": 73.1919,
      "duration": 0.0161,
      "velocity": 120,
      "chip": "ym2612"
    },
    {
      "channel": 3,
      "note": 74,
      "start": 73.193,
      "duration": 0.0161,
      "velocity": 120,
      "chip": "ym2612"
    },
    {
      "channel": 2,
      "note": 47,
      "start": 73.1965,
      "duration": 0.0137,
      "velocity": 100,
      "chip": "ym2612"
    },
    {
      "channel": 0,
      "note": 65,
      "start": 73.2068,
      "duration": 0.0161,
      "velocity": 124,
      "chip": "ym2612"
    },
    {
      "channel": 4,
      "note": 67,
      "start": 73.208,
      "duration": 0.0161,
      "velocity": 120,
      "chip": "ym2612"
    },
    {
      "channel": 3,
      "note": 74,
      "start": 73.2091,
      "duration": 0.0161,
      "velocity": 120,
      "chip": "ym2612"
    },
    {
      "channel": 2,
      "note": 47,
      "start": 73.2102,
      "duration": 0.0161,
      "velocity": 100,
      "chip": "ym2612"
    },
    {
      "channel": 0,
      "note": 63,
      "start": 73.2229,
      "duration": 0.0153,
      "velocity": 1,
      "chip": "ym2612"
    },
    {
      "channel": 4,
      "note": 67,
      "start": 73.224,
      "duration": 0.0153,
      "velocity": 120,
      "chip": "ym2612"
    },
    {
      "channel": 3,
      "note": 74,
      "start": 73.2252,
      "duration": 0.0153,
      "velocity": 120,
      "chip": "ym2612"
    },
    {
      "channel": 2,
      "note": 47,
      "start": 73.2263,
      "duration": 0.0153,
      "velocity": 100,
      "chip": "ym2612"
    },
    {
      "channel": 4,
      "note": 67,
      "start": 73.2394,
      "duration": 0.0153,
      "velocity": 120,
      "chip": "ym2612"
    },
    {
      "channel": 3,
      "note": 74,
      "start": 73.2405,
      "duration": 0.0153,
      "velocity": 120,
      "chip": "ym2612"
    },
    {
      "channel": 2,
      "note": 47,
      "start": 73.2417,
      "duration": 0.0153,
      "velocity": 100,
      "chip": "ym2612"
    },
    {
      "channel": 4,
      "note": 67,
      "start": 73.2546,
      "duration": 0.0198,
      "velocity": 120,
      "chip": "ym2612"
    },
    {
      "channel": 3,
      "note": 74,
      "start": 73.2558,
      "duration": 0.02,
      "velocity": 120,
      "chip": "ym2612"
    },
    {
      "channel": 2,
      "note": 47,
      "start": 73.2569,
      "duration": 0.0203,
      "velocity": 100,
      "chip": "ym2612"
    },
    {
      "channel": 0,
      "note": 36,
      "start": 73.273,
      "duration": 0.0144,
      "velocity": 115,
      "chip": "ym2612"
    },
    {
      "channel": 4,
      "note": 71,
      "start": 73.2744,
      "duration": 0.0142,
      "velocity": 120,
      "chip": "ym2612"
    },
    {
      "channel": 3,
      "note": 78,
      "start": 73.2758,
      "duration": 0.014,
      "velocity": 120,
      "chip": "ym2612"
    },
    {
      "channel": 2,
      "note": 47,
      "start": 73.2773,
      "duration": 0.0137,
      "velocity": 100,
      "chip": "ym2612"
    },
    {
      "channel": 0,
      "note": 36,
      "start": 73.2874,
      "duration": 0.016,
      "velocity": 115,
      "chip": "ym2612"
    },
    {
      "channel": 4,
      "note": 71,
      "start": 73.2886,
      "duration": 0.016,
      "velocity": 120,
      "chip": "ym2612"
    },
    {
      "channel": 3,
      "note": 78,
      "start": 73.2898,
      "duration": 0.0159,
      "velocity": 120,
      "chip": "ym2612"
    },
    {
      "channel": 2,
      "note": 47,
      "start": 73.291,
      "duration": 0.0159,
      "velocity": 100,
      "chip": "ym2612"
    },
    {
      "channel": 0,
      "note": 37,
      "start": 73.3034,
      "duration": 0.0161,
      "velocity": 115,
      "chip": "ym2612"
    },
    {
      "channel": 4,
      "note": 71,
      "start": 73.3046,
      "duration": 0.0161,
      "velocity": 120,
      "chip": "ym2612"
    },
    {
      "channel": 3,
      "note": 78,
      "start": 73.3057,
      "duration": 0.0161,
      "velocity": 120,
      "chip": "ym2612"
    },
    {
      "channel": 2,
      "note": 47,
      "start": 73.3069,
      "duration": 0.0161,
      "velocity": 100,
      "chip": "ym2612"
    },
    {
      "channel": 0,
      "note": 37,
      "start": 73.3195,
      "duration": 0.0161,
      "velocity": 115,
      "chip": "ym2612"
    },
    {
      "channel": 4,
      "note": 71,
      "start": 73.3207,
      "duration": 0.0161,
      "velocity": 120,
      "chip": "ym2612"
    },
    {
      "channel": 3,
      "note": 78,
      "start": 73.3218,
      "duration": 0.0161,
      "velocity": 120,
      "chip": "ym2612"
    },
    {
      "channel": 2,
      "note": 47,
      "start": 73.323,
      "duration": 0.0161,
      "velocity": 100,
      "chip": "ym2612"
    },
    {
      "channel": 0,
      "note": 38,
      "start": 73.3356,
      "duration": 0.0161,
      "velocity": 115,
      "chip": "ym2612"
    },
    {
      "channel": 4,
      "note": 71,
      "start": 73.3368,
      "duration": 0.0161,
      "velocity": 120,
      "chip": "ym2612"
    },
    {
      "channel": 3,
      "note": 78,
      "start": 73.3379,
      "duration": 0.0161,
      "velocity": 120,
      "chip": "ym2612"
    },
    {
      "channel": 2,
      "note": 47,
      "start": 73.339,
      "duration": 0.0161,
      "velocity": 100,
      "chip": "ym2612"
    },
    {
      "channel": 0,
      "note": 38,
      "start": 73.3517,
      "duration": 0.0161,
      "velocity": 115,
      "chip": "ym2612"
    },
    {
      "channel": 4,
      "note": 71,
      "start": 73.3529,
      "duration": 0.0162,
      "velocity": 120,
      "chip": "ym2612"
    },
    {
      "channel": 3,
      "note": 78,
      "start": 73.354,
      "duration": 0.0161,
      "velocity": 120,
      "chip": "ym2612"
    },
    {
      "channel": 2,
      "note": 47,
      "start": 73.3551,
      "duration": 0.0161,
      "velocity": 100,
      "chip": "ym2612"
    },
    {
      "channel": 0,
      "note": 39,
      "start": 73.3678,
      "duration": 0.0161,
      "velocity": 115,
      "chip": "ym2612"
    },
    {
      "channel": 4,
      "note": 71,
      "start": 73.369,
      "duration": 0.0161,
      "velocity": 120,
      "chip": "ym2612"
    },
    {
      "channel": 3,
      "note": 78,
      "start": 73.3701,
      "duration": 0.0162,
      "velocity": 120,
      "chip": "ym2612"
    },
    {
      "channel": 2,
      "note": 47,
      "start": 73.3712,
      "duration": 0.0161,
      "velocity": 100,
      "chip": "ym2612"
    },
    {
      "channel": 0,
      "note": 39,
      "start": 73.3839,
      "duration": 0.0162,
      "velocity": 115,
      "chip": "ym2612"
    },
    {
      "channel": 4,
      "note": 71,
      "start": 73.3851,
      "duration": 0.0161,
      "velocity": 120,
      "chip": "ym2612"
    },
    {
      "channel": 3,
      "note": 78,
      "start": 73.3863,
      "duration": 0.0161,
      "velocity": 120,
      "chip": "ym2612"
    },
    {
      "channel": 2,
      "note": 47,
      "start": 73.3873,
      "duration": 0.0161,
      "velocity": 100,
      "chip": "ym2612"
    },
    {
      "channel": 0,
      "note": 40,
      "start": 73.4001,
      "duration": 0.0161,
      "velocity": 115,
      "chip": "ym2612"
    },
    {
      "channel": 4,
      "note": 71,
      "start": 73.4012,
      "duration": 0.0161,
      "velocity": 120,
      "chip": "ym2612"
    },
    {
      "channel": 3,
      "note": 78,
      "start": 73.4024,
      "duration": 0.0161,
      "velocity": 120,
      "chip": "ym2612"
    },
    {
      "channel": 2,
      "note": 47,
      "start": 73.4034,
      "duration": 0.0161,
      "velocity": 100,
      "chip": "ym2612"
    },
    {
      "channel": 0,
      "note": 40,
      "start": 73.4161,
      "duration": 0.0161,
      "velocity": 115,
      "chip": "ym2612"
    },
    {
      "channel": 4,
      "note": 71,
      "start": 73.4173,
      "duration": 0.0161,
      "velocity": 120,
      "chip": "ym2612"
    },
    {
      "channel": 3,
      "note": 78,
      "start": 73.4184,
      "duration": 0.0161,
      "velocity": 120,
      "chip": "ym2612"
    },
    {
      "channel": 2,
      "note": 47,
      "start": 73.4195,
      "duration": 0.0162,
      "velocity": 100,
      "chip": "ym2612"
    },
    {
      "channel": 0,
      "note": 40,
      "start": 73.4322,
      "duration": 0.0165,
      "velocity": 115,
      "chip": "ym2612"
    },
    {
      "channel": 4,
      "note": 71,
      "start": 73.4334,
      "duration": 0.0165,
      "velocity": 120,
      "chip": "ym2612"
    },
    {
      "channel": 3,
      "note": 78,
      "start": 73.4345,
      "duration": 0.0165,
      "velocity": 120,
      "chip": "ym2612"
    },
    {
      "channel": 2,
      "note": 47,
      "start": 73.4357,
      "duration": 0.0164,
      "velocity": 100,
      "chip": "ym2612"
    },
    {
      "channel": 0,
      "note": 41,
      "start": 73.4487,
      "duration": 0.0181,
      "velocity": 115,
      "chip": "ym2612"
    },
    {
      "channel": 4,
      "note": 71,
      "start": 73.4499,
      "duration": 0.0183,
      "velocity": 120,
      "chip": "ym2612"
    },
    {
      "channel": 3,
      "note": 78,
      "start": 73.451,
      "duration": 0.0186,
      "velocity": 120,
      "chip": "ym2612"
    },
    {
      "channel": 2,
      "note": 47,
      "start": 73.4521,
      "duration": 0.0189,
      "velocity": 100,
      "chip": "ym2612"
    },
    {
      "channel": 0,
      "note": 36,
      "start": 73.4668,
      "duration": 0.0138,
      "velocity": 115,
      "chip": "ym2612"
    },
    {
      "channel": 4,
      "note": 64,
      "start": 73.4683,
      "duration": 0.0136,
      "velocity": 120,
      "chip": "ym2612"
    },
    {
      "channel": 3,
      "note": 71,
      "start": 73.4696,
      "duration": 0.0134,
      "velocity": 120,
      "chip": "ym2612"
    },
    {
      "channel": 2,
      "note": 47,
      "start": 73.471,
      "duration": 0.0132,
      "velocity": 100,
      "chip": "ym2612"
    },
    {
      "channel": 0,
      "note": 36,
      "start": 73.4806,
      "duration": 0.0181,
      "velocity": 115,
      "chip": "ym2612"
    },
    {
      "channel": 4,
      "note": 64,
      "start": 73.4818,
      "duration": 0.018,
      "velocity": 120,
      "chip": "ym2612"
    },
    {
      "channel": 3,
      "note": 71,
      "start": 73.483,
      "duration": 0.018,
      "velocity": 120,
      "chip": "ym2612"
    },
    {
      "channel": 2,
      "note": 47,
      "start": 73.4842,
      "duration": 0.0179,
      "velocity": 100,
      "chip": "ym2612"
    },
    {
      "channel": 0,
      "note": 37,
      "start": 73.4987,
      "duration": 0.0167,
      "velocity": 115,
      "chip": "ym2612"
    },
    {
      "channel": 4,
      "note": 64,
      "start": 73.4999,
      "duration": 0.0167,
      "velocity": 120,
      "chip": "ym2612"
    },
    {
      "channel": 3,
      "note": 71,
      "start": 73.501,
      "duration": 0.0167,
      "velocity": 120,
      "chip": "ym2612"
    },
    {
      "channel": 2,
      "note": 47,
      "start": 73.5021,
      "duration": 0.0167,
      "velocity": 100,
      "chip": "ym2612"
    },
    {
      "channel": 0,
      "note": 37,
      "start": 73.5154,
      "duration": 0.0158,
      "velocity": 115,
      "chip": "ym2612"
    },
    {
      "channel": 4,
      "note": 64,
      "start": 73.5165,
      "duration": 0.0159,
      "velocity": 120,
      "chip": "ym2612"
    },
    {
      "channel": 3,
      "note": 71,
      "start": 73.5177,
      "duration": 0.0158,
      "velocity": 120,
      "chip": "ym2612"
    },
    {
      "channel": 2,
      "note": 47,
      "start": 73.5188,
      "duration": 0.0159,
      "velocity": 100,
      "chip": "ym2612"
    },
    {
      "channel": 0,
      "note": 38,
      "start": 73.5312,
      "duration": 0.0141,
      "velocity": 115,
      "chip": "ym2612"
    },
    {
      "channel": 4,
      "note": 64,
      "start": 73.5324,
      "duration": 0.0141,
      "velocity": 120,
      "chip": "ym2612"
    },
    {
      "channel": 3,
      "note": 71,
      "start": 73.5335,
      "duration": 0.0141,
      "velocity": 120,
      "chip": "ym2612"
    },
    {
      "channel": 2,
      "note": 47,
      "start": 73.5347,
      "duration": 0.0141,
      "velocity": 100,
      "chip": "ym2612"
    },
    {
      "channel": 0,
      "note": 38,
      "start": 73.5453,
      "duration": 0.0185,
      "velocity": 115,
      "chip": "ym2612"
    },
    {
      "channel": 4,
      "note": 64,
      "start": 73.5464,
      "duration": 0.0185,
      "velocity": 120,
      "chip": "ym2612"
    },
    {
      "channel": 3,
      "note": 71,
      "start": 73.5476,
      "duration": 0.0185,
      "velocity": 120,
      "chip": "ym2612"
    },
    {
      "channel": 2,
      "note": 47,
      "start": 73.5487,
      "duration": 0.0185,
      "velocity": 100,
      "chip": "ym2612"
    },
    {
      "channel": 0,
      "note": 39,
      "start": 73.5638,
      "duration": 0.0134,
      "velocity": 115,
      "chip": "ym2612"
    },
    {
      "channel": 4,
      "note": 64,
      "start": 73.5649,
      "duration": 0.0161,
      "velocity": 120,
      "chip": "ym2612"
    },
    {
      "channel": 3,
      "note": 71,
      "start": 73.5661,
      "duration": 0.0161,
      "velocity": 120,
      "chip": "ym2612"
    },
    {
      "channel": 2,
      "note": 47,
      "start": 73.5672,
      "duration": 0.0161,
      "velocity": 100,
      "chip": "ym2612"
    },
    {
      "channel": 0,
      "note": 39,
      "start": 73.5772,
      "duration": 0.0161,
      "velocity": 115,
      "chip": "ym2612"
    },
    {
      "channel": 4,
      "note": 64,
      "start": 73.581,
      "duration": 0.0158,
      "velocity": 120,
      "chip": "ym2612"
    },
    {
      "channel": 3,
      "note": 71,
      "start": 73.5822,
      "duration": 0.0158,
      "velocity": 120,
      "chip": "ym2612"
    },
    {
      "channel": 2,
      "note": 47,
      "start": 73.5833,
      "duration": 0.0157,
      "velocity": 100,
      "chip": "ym2612"
    },
    {
      "channel": 0,
      "note": 40,
      "start": 73.5933,
      "duration": 0.0161,
      "velocity": 115,
      "chip": "ym2612"
    },
    {
      "channel": 4,
      "note": 64,
      "start": 73.5968,
      "duration": 0.0137,
      "velocity": 120,
      "chip": "ym2612"
    },
    {
      "channel": 3,
      "note": 71,
      "start": 73.598,
      "duration": 0.014,
      "velocity": 120,
      "chip": "ym2612"
    },
    {
      "channel": 2,
      "note": 47,
      "start": 73.599,
      "duration": 0.0141,
      "velocity": 100,
      "chip": "ym2612"
    },
    {
      "channel": 0,
      "note": 40,
      "start": 73.6093,
      "duration": 0.0161,
      "velocity": 115,
      "chip": "ym2612"
    },
    {
      "channel": 4,
      "note": 64,
      "start": 73.6105,
      "duration": 0.0161,
      "velocity": 120,
      "chip": "ym2612"
    },
    {
      "channel": 3,
      "note": 71,
      "start": 73.612,
      "duration": 0.0185,
      "velocity": 120,
      "chip": "ym2612"
    },
    {
      "channel": 2,
      "note": 47,
      "start": 73.6131,
      "duration": 0.0185,
      "velocity": 100,
      "chip": "ym2612"
    },
    {
      "channel": 0,
      "note": 40,
      "start": 73.6254,
      "duration": 0.0161,
      "velocity": 115,
      "chip": "ym2612"
    },
    {
      "channel": 4,
      "note": 64,
      "start": 73.6266,
      "duration": 0.0161,
      "velocity": 120,
      "chip": "ym2612"
    },
    {
      "channel": 3,
      "note": 71,
      "start": 73.6305,
      "duration": 0.0134,
      "velocity": 120,
      "chip": "ym2612"
    },
    {
      "channel": 2,
      "note": 47,
      "start": 73.6316,
      "duration": 0.0161,
      "velocity": 100,
      "chip": "ym2612"
    },
    {
      "channel": 0,
      "note": 41,
      "start": 73.6415,
      "duration": 0.0179,
      "velocity": 115,
      "chip": "ym2612"
    },
    {
      "channel": 4,
      "note": 64,
      "start": 73.6427,
      "duration": 0.0205,
      "velocity": 120,
      "chip": "ym2612"
    },
    {
      "channel": 3,
      "note": 71,
      "start": 73.6438,
      "duration": 0.0208,
      "velocity": 120,
      "chip": "ym2612"
    },
    {
      "channel": 2,
      "note": 47,
      "start": 73.6477,
      "duration": 0.0183,
      "velocity": 100,
      "chip": "ym2612"
    },
    {
      "channel": 0,
      "note": 36,
      "start": 73.6594,
      "duration": 0.0144,
      "velocity": 115,
      "chip": "ym2612"
    },
    {
      "channel": 4,
      "note": 67,
      "start": 73.6632,
      "duration": 0.0118,
      "velocity": 120,
      "chip": "ym2612"
    },
    {
      "channel": 3,
      "note": 74,
      "start": 73.6646,
      "duration": 0.0116,
      "velocity": 120,
      "chip": "ym2612"
    },
    {
      "channel": 2,
      "note": 47,
      "start": 73.6661,
      "duration": 0.0116,
      "velocity": 100,
      "chip": "ym2612"
    },
    {
      "channel": 0,
      "note": 36,
      "start": 73.6738,
      "duration": 0.0161,
      "velocity": 115,
      "chip": "ym2612"
    },
    {
      "channel": 4,
      "note": 67,
      "start": 73.675,
      "duration": 0.016,
      "velocity": 120,
      "chip": "ym2612"
    },
    {
      "channel": 3,
      "note": 74,
      "start": 73.6762,
      "duration": 0.016,
      "velocity": 120,
      "chip": "ym2612"
    },
    {
      "channel": 2,
      "note": 47,
      "start": 73.6777,
      "duration": 0.0155,
      "velocity": 100,
      "chip": "ym2612"
    },
    {
      "channel": 0,
      "note": 37,
      "start": 73.6899,
      "duration": 0.0161,
      "velocity": 115,
      "chip": "ym2612"
    },
    {
      "channel": 4,
      "note": 67,
      "start": 73.691,
      "duration": 0.0161,
      "velocity": 120,
      "chip": "ym2612"
    },
    {
      "channel": 3,
      "note": 74,
      "start": 73.6922,
      "duration": 0.0161,
      "velocity": 120,
      "chip": "ym2612"
    },
    {
      "channel": 2,
      "note": 47,
      "start": 73.6933,
      "duration": 0.0161,
      "velocity": 100,
      "chip": "ym2612"
    },
    {
      "channel": 0,
      "note": 37,
      "start": 73.706,
      "duration": 0.0161,
      "velocity": 115,
      "chip": "ym2612"
    },
    {
      "channel": 4,
      "note": 67,
      "start": 73.7071,
      "duration": 0.0161,
      "velocity": 120,
      "chip": "ym2612"
    },
    {
      "channel": 3,
      "note": 74,
      "start": 73.7083,
      "duration": 0.0161,
      "velocity": 120,
      "chip": "ym2612"
    },
    {
      "channel": 2,
      "note": 47,
      "start": 73.7093,
      "duration": 0.0161,
      "velocity": 100,
      "chip": "ym2612"
    },
    {
      "channel": 0,
      "note": 38,
      "start": 73.7221,
      "duration": 0.0161,
      "velocity": 115,
      "chip": "ym2612"
    },
    {
      "channel": 4,
      "note": 67,
      "start": 73.7232,
      "duration": 0.0161,
      "velocity": 120,
      "chip": "ym2612"
    },
    {
      "channel": 3,
      "note": 74,
      "start": 73.7244,
      "duration": 0.0161,
      "velocity": 120,
      "chip": "ym2612"
    },
    {
      "channel": 2,
      "note": 47,
      "start": 73.7254,
      "duration": 0.0162,
      "velocity": 100,
      "chip": "ym2612"
    },
    {
      "channel": 0,
      "note": 38,
      "start": 73.7382,
      "duration": 0.0161,
      "velocity": 115,
      "chip": "ym2612"
    },
    {
      "channel": 4,
      "note": 67,
      "start": 73.7393,
      "duration": 0.0161,
      "velocity": 120,
      "chip": "ym2612"
    },
    {
      "channel": 3,
      "note": 74,
      "start": 73.7405,
      "duration": 0.0161,
      "velocity": 120,
      "chip": "ym2612"
    },
    {
      "channel": 2,
      "note": 47,
      "start": 73.7416,
      "duration": 0.0161,
      "velocity": 100,
      "chip": "ym2612"
    },
    {
      "channel": 0,
      "note": 39,
      "start": 73.7543,
      "duration": 0.0161,
      "velocity": 115,
      "chip": "ym2612"
    },
    {
      "channel": 4,
      "note": 67,
      "start": 73.7554,
      "duration": 0.0161,
      "velocity": 120,
      "chip": "ym2612"
    },
    {
      "channel": 3,
      "note": 74,
      "start": 73.7566,
      "duration": 0.0161,
      "velocity": 120,
      "chip": "ym2612"
    },
    {
      "channel": 2,
      "note": 47,
      "start": 73.7577,
      "duration": 0.0161,
      "velocity": 100,
      "chip": "ym2612"
    },
    {
      "channel": 0,
      "note": 39,
      "start": 73.7704,
      "duration": 0.0161,
      "velocity": 115,
      "chip": "ym2612"
    },
    {
      "channel": 4,
      "note": 67,
      "start": 73.7715,
      "duration": 0.0161,
      "velocity": 120,
      "chip": "ym2612"
    },
    {
      "channel": 3,
      "note": 74,
      "start": 73.7727,
      "duration": 0.0161,
      "velocity": 120,
      "chip": "ym2612"
    },
    {
      "channel": 2,
      "note": 47,
      "start": 73.7738,
      "duration": 0.0161,
      "velocity": 100,
      "chip": "ym2612"
    },
    {
      "channel": 0,
      "note": 40,
      "start": 73.7864,
      "duration": 0.0161,
      "velocity": 115,
      "chip": "ym2612"
    },
    {
      "channel": 4,
      "note": 67,
      "start": 73.7876,
      "duration": 0.0161,
      "velocity": 120,
      "chip": "ym2612"
    },
    {
      "channel": 3,
      "note": 74,
      "start": 73.7887,
      "duration": 0.0161,
      "velocity": 120,
      "chip": "ym2612"
    },
    {
      "channel": 2,
      "note": 47,
      "start": 73.7899,
      "duration": 0.0161,
      "velocity": 100,
      "chip": "ym2612"
    },
    {
      "channel": 0,
      "note": 40,
      "start": 73.8025,
      "duration": 0.0161,
      "velocity": 115,
      "chip": "ym2612"
    },
    {
      "channel": 4,
      "note": 67,
      "start": 73.8037,
      "duration": 0.0161,
      "velocity": 120,
      "chip": "ym2612"
    },
    {
      "channel": 3,
      "note": 74,
      "start": 73.8048,
      "duration": 0.0161,
      "velocity": 120,
      "chip": "ym2612"
    },
    {
      "channel": 2,
      "note": 47,
      "start": 73.806,
      "duration": 0.0161,
      "velocity": 100,
      "chip": "ym2612"
    },
    {
      "channel": 0,
      "note": 40,
      "start": 73.8186,
      "duration": 0.0161,
      "velocity": 115,
      "chip": "ym2612"
    },
    {
      "channel": 4,
      "note": 67,
      "start": 73.8198,
      "duration": 0.0161,
      "velocity": 120,
      "chip": "ym2612"
    },
    {
      "channel": 3,
      "note": 74,
      "start": 73.8209,
      "duration": 0.0161,
      "velocity": 120,
      "chip": "ym2612"
    },
    {
      "channel": 2,
      "note": 47,
      "start": 73.8221,
      "duration": 0.0161,
      "velocity": 100,
      "chip": "ym2612"
    },
    {
      "channel": 0,
      "note": 41,
      "start": 73.8347,
      "duration": 0.0179,
      "velocity": 124,
      "chip": "ym2612"
    },
    {
      "channel": 4,
      "note": 67,
      "start": 73.8359,
      "duration": 0.0182,
      "velocity": 120,
      "chip": "ym2612"
    },
    {
      "channel": 3,
      "note": 74,
      "start": 73.837,
      "duration": 0.0184,
      "velocity": 120,
      "chip": "ym2612"
    },
    {
      "channel": 2,
      "note": 47,
      "start": 73.8382,
      "duration": 0.0187,
      "velocity": 100,
      "chip": "ym2612"
    },
    {
      "channel": 0,
      "note": 84,
      "start": 73.8527,
      "duration": 0.0144,
      "velocity": 124,
      "chip": "ym2612"
    },
    {
      "channel": 4,
      "note": 71,
      "start": 73.8541,
      "duration": 0.0142,
      "velocity": 120,
      "chip": "ym2612"
    },
    {
      "channel": 3,
      "note": 78,
      "start": 73.8555,
      "duration": 0.014,
      "velocity": 120,
      "chip": "ym2612"
    },
    {
      "channel": 2,
      "note": 47,
      "start": 73.8569,
      "duration": 0.0137,
      "velocity": 100,
      "chip": "ym2612"
    },
    {
      "channel": 0,
      "note": 82,
      "start": 73.8671,
      "duration": 0.016,
      "velocity": 124,
      "chip": "ym2612"
    },
    {
      "channel": 4,
      "note": 71,
      "start": 73.8683,
      "duration": 0.016,
      "velocity": 120,
      "chip": "ym2612"
    },
    {
      "channel": 3,
      "note": 78,
      "start": 73.8695,
      "duration": 0.0159,
      "velocity": 120,
      "chip": "ym2612"
    },
    {
      "channel": 2,
      "note": 47,
      "start": 73.8706,
      "duration": 0.0159,
      "velocity": 100,
      "chip": "ym2612"
    },
    {
      "channel": 0,
      "note": 80,
      "start": 73.8831,
      "duration": 0.0161,
      "velocity": 124,
      "chip": "ym2612"
    },
    {
      "channel": 4,
      "note": 71,
      "start": 73.8842,
      "duration": 0.0161,
      "velocity": 120,
      "chip": "ym2612"
    },
    {
      "channel": 3,
      "note": 78,
      "start": 73.8854,
      "duration": 0.0161,
      "velocity": 120,
      "chip": "ym2612"
    },
    {
      "channel": 2,
      "note": 47,
      "start": 73.8865,
      "duration": 0.0161,
      "velocity": 100,
      "chip": "ym2612"
    },
    {
      "channel": 0,
      "note": 77,
      "start": 73.8992,
      "duration": 0.0162,
      "velocity": 124,
      "chip": "ym2612"
    },
    {
      "channel": 4,
      "note": 71,
      "start": 73.9003,
      "duration": 0.0162,
      "velocity": 120,
      "chip": "ym2612"
    },
    {
      "channel": 3,
      "note": 78,
      "start": 73.9015,
      "duration": 0.0162,
      "velocity": 120,
      "chip": "ym2612"
    },
    {
      "channel": 2,
      "note": 47,
      "start": 73.9026,
      "duration": 0.0162,
      "velocity": 100,
      "chip": "ym2612"
    },
    {
      "channel": 0,
      "note": 75,
      "start": 73.9154,
      "duration": 0.0163,
      "velocity": 124,
      "chip": "ym2612"
    },
    {
      "channel": 4,
      "note": 71,
      "start": 73.9165,
      "duration": 0.0163,
      "velocity": 120,
      "chip": "ym2612"
    },
    {
      "channel": 3,
      "note": 78,
      "start": 73.9177,
      "duration": 0.0163,
      "velocity": 120,
      "chip": "ym2612"
    },
    {
      "channel": 2,
      "note": 47,
      "start": 73.9188,
      "duration": 0.0163,
      "velocity": 100,
      "chip": "ym2612"
    },
    {
      "channel": 0,
      "note": 72,
      "start": 73.9317,
      "duration": 0.0158,
      "velocity": 124,
      "chip": "ym2612"
    },
    {
      "channel": 4,
      "note": 71,
      "start": 73.9328,
      "duration": 0.0159,
      "velocity": 120,
      "chip": "ym2612"
    },
    {
      "channel": 3,
      "note": 78,
      "start": 73.934,
      "duration": 0.0158,
      "velocity": 120,
      "chip": "ym2612"
    },
    {
      "channel": 2,
      "note": 47,
      "start": 73.9351,
      "duration": 0.0158,
      "velocity": 100,
      "chip": "ym2612"
    },
    {
      "channel": 0,
      "note": 70,
      "start": 73.9475,
      "duration": 0.0179,
      "velocity": 124,
      "chip": "ym2612"
    },
    {
      "channel": 4,
      "note": 71,
      "start": 73.9487,
      "duration": 0.0179,
      "velocity": 120,
      "chip": "ym2612"
    },
    {
      "channel": 3,
      "note": 78,
      "start": 73.9498,
      "duration": 0.0179,
      "velocity": 120,
      "chip": "ym2612"
    },
    {
      "channel": 2,
      "note": 47,
      "start": 73.9509,
      "duration": 0.0179,
      "velocity": 100,
      "chip": "ym2612"
    },
    {
      "channel": 0,
      "note": 68,
      "start": 73.9654,
      "duration": 0.0167,
      "velocity": 124,
      "chip": "ym2612"
    },
    {
      "channel": 4,
      "note": 71,
      "start": 73.9665,
      "duration": 0.0167,
      "velocity": 120,
      "chip": "ym2612"
    },
    {
      "channel": 3,
      "note": 78,
      "start": 73.9677,
      "duration": 0.0167,
      "velocity": 120,
      "chip": "ym2612"
    },
    {
      "channel": 2,
      "note": 47,
      "start": 73.9688,
      "duration": 0.0167,
      "velocity": 100,
      "chip": "ym2612"
    },
    {
      "channel": 0,
      "note": 65,
      "start": 73.9821,
      "duration": 0.0161,
      "velocity": 124,
      "chip": "ym2612"
    },
    {
      "channel": 4,
      "note": 71,
      "start": 73.9832,
      "duration": 0.0161,
      "velocity": 120,
      "chip": "ym2612"
    },
    {
      "channel": 3,
      "note": 78,
      "start": 73.9844,
      "duration": 0.0161,
      "velocity": 120,
      "chip": "ym2612"
    },
    {
      "channel": 2,
      "note": 47,
      "start": 73.9854,
      "duration": 0.0161,
      "velocity": 100,
      "chip": "ym2612"
    },
    {
      "channel": 0,
      "note": 63,
      "start": 73.9982,
      "duration": 0.0132,
      "velocity": 1,
      "chip": "ym2612"
    },
    {
      "channel": 4,
      "note": 71,
      "start": 73.9993,
      "duration": 0.0132,
      "velocity": 120,
      "chip": "ym2612"
    },
    {
      "channel": 3,
      "note": 78,
      "start": 74.0005,
      "duration": 0.0132,
      "velocity": 120,
      "chip": "ym2612"
    },
    {
      "channel": 2,
      "note": 47,
      "start": 74.0016,
      "duration": 0.0132,
      "velocity": 100,
      "chip": "ym2612"
    },
    {
      "channel": 4,
      "note": 71,
      "start": 74.0125,
      "duration": 0.0177,
      "velocity": 120,
      "chip": "ym2612"
    },
    {
      "channel": 3,
      "note": 78,
      "start": 74.0137,
      "duration": 0.0177,
      "velocity": 120,
      "chip": "ym2612"
    },
    {
      "channel": 2,
      "note": 47,
      "start": 74.0148,
      "duration": 0.0177,
      "velocity": 100,
      "chip": "ym2612"
    },
    {
      "channel": 4,
      "note": 71,
      "start": 74.0302,
      "duration": 0.0136,
      "velocity": 120,
      "chip": "ym2612"
    },
    {
      "channel": 3,
      "note": 78,
      "start": 74.0314,
      "duration": 0.0166,
      "velocity": 120,
      "chip": "ym2612"
    },
    {
      "channel": 2,
      "note": 47,
      "start": 74.0325,
      "duration": 0.0169,
      "velocity": 100,
      "chip": "ym2612"
    },
    {
      "channel": 4,
      "note": 67,
      "start": 74.0438,
      "duration": 0.0159,
      "velocity": 120,
      "chip": "ym2612"
    },
    {
      "channel": 3,
      "note": 74,
      "start": 74.048,
      "duration": 0.0154,
      "velocity": 120,
      "chip": "ym2612"
    },
    {
      "channel": 2,
      "note": 47,
      "start": 74.0494,
      "duration": 0.0151,
      "velocity": 100,
      "chip": "ym2612"
    },
    {
      "channel": 4,
      "note": 67,
      "start": 74.0597,
      "duration": 0.016,
      "velocity": 120,
      "chip": "ym2612"
    },
    {
      "channel": 3,
      "note": 74,
      "start": 74.0634,
      "duration": 0.0136,
      "velocity": 120,
      "chip": "ym2612"
    },
    {
      "channel": 2,
      "note": 47,
      "start": 74.0645,
      "duration": 0.0139,
      "velocity": 100,
      "chip": "ym2612"
    },
    {
      "channel": 4,
      "note": 67,
      "start": 74.0758,
      "duration": 0.0161,
      "velocity": 120,
      "chip": "ym2612"
    },
    {
      "channel": 3,
      "note": 74,
      "start": 74.0769,
      "duration": 0.0161,
      "velocity": 120,
      "chip": "ym2612"
    },
    {
      "channel": 2,
      "note": 47,
      "start": 74.0784,
      "duration": 0.0185,
      "velocity": 100,
      "chip": "ym2612"
    },
    {
      "channel": 4,
      "note": 67,
      "start": 74.0919,
      "duration": 0.0161,
      "velocity": 120,
      "chip": "ym2612"
    },
    {
      "channel": 3,
      "note": 74,
      "start": 74.093,
      "duration": 0.0162,
      "velocity": 120,
      "chip": "ym2612"
    },
    {
      "channel": 2,
      "note": 47,
      "start": 74.0969,
      "duration": 0.0134,
      "velocity": 100,
      "chip": "ym2612"
    },
    {
      "channel": 4,
      "note": 67,
      "start": 74.108,
      "duration": 0.0161,
      "velocity": 120,
      "chip": "ym2612"
    },
    {
      "channel": 3,
      "note": 74,
      "start": 74.1092,
      "duration": 0.0161,
      "velocity": 120,
      "chip": "ym2612"
    },
    {
      "channel": 2,
      "note": 47,
      "start": 74.1102,
      "duration": 0.0161,
      "velocity": 100,
      "chip": "ym2612"
    },
    {
      "channel": 4,
      "note": 67,
      "start": 74.1241,
      "duration": 0.0161,
      "velocity": 120,
      "chip": "ym2612"
    },
    {
      "channel": 3,
      "note": 74,
      "start": 74.1253,
      "duration": 0.0161,
      "velocity": 120,
      "chip": "ym2612"
    },
    {
      "channel": 2,
      "note": 47,
      "start": 74.1263,
      "duration": 0.0161,
      "velocity": 100,
      "chip": "ym2612"
    },
    {
      "channel": 4,
      "note": 67,
      "start": 74.1402,
      "duration": 0.0161,
      "velocity": 120,
      "chip": "ym2612"
    },
    {
      "channel": 3,
      "note": 74,
      "start": 74.1413,
      "duration": 0.0161,
      "velocity": 120,
      "chip": "ym2612"
    },
    {
      "channel": 2,
      "note": 47,
      "start": 74.1424,
      "duration": 0.0162,
      "velocity": 100,
      "chip": "ym2612"
    },
    {
      "channel": 4,
      "note": 67,
      "start": 74.1563,
      "duration": 0.0161,
      "velocity": 120,
      "chip": "ym2612"
    },
    {
      "channel": 3,
      "note": 74,
      "start": 74.1574,
      "duration": 0.0161,
      "velocity": 120,
      "chip": "ym2612"
    },
    {
      "channel": 2,
      "note": 47,
      "start": 74.1586,
      "duration": 0.0161,
      "velocity": 100,
      "chip": "ym2612"
    },
    {
      "channel": 4,
      "note": 67,
      "start": 74.1724,
      "duration": 0.0161,
      "velocity": 120,
      "chip": "ym2612"
    },
    {
      "channel": 3,
      "note": 74,
      "start": 74.1735,
      "duration": 0.0161,
      "velocity": 120,
      "chip": "ym2612"
    },
    {
      "channel": 2,
      "note": 47,
      "start": 74.1747,
      "duration": 0.0161,
      "velocity": 100,
      "chip": "ym2612"
    },
    {
      "channel": 4,
      "note": 67,
      "start": 74.1885,
      "duration": 0.0161,
      "velocity": 120,
      "chip": "ym2612"
    },
    {
      "channel": 3,
      "note": 74,
      "start": 74.1896,
      "duration": 0.0161,
      "velocity": 120,
      "chip": "ym2612"
    },
    {
      "channel": 2,
      "note": 47,
      "start": 74.1908,
      "duration": 0.0161,
      "velocity": 100,
      "chip": "ym2612"
    },
    {
      "channel": 4,
      "note": 67,
      "start": 74.2046,
      "duration": 0.0161,
      "velocity": 120,
      "chip": "ym2612"
    },
    {
      "channel": 3,
      "note": 74,
      "start": 74.2057,
      "duration": 0.0161,
      "velocity": 120,
      "chip": "ym2612"
    },
    {
      "channel": 2,
      "note": 47,
      "start": 74.2069,
      "duration": 0.0161,
      "velocity": 100,
      "chip": "ym2612"
    },
    {
      "channel": 4,
      "note": 67,
      "start": 74.2207,
      "duration": 0.0212,
      "velocity": 120,
      "chip": "ym2612"
    },
    {
      "channel": 3,
      "note": 74,
      "start": 74.2218,
      "duration": 0.0256,
      "velocity": 120,
      "chip": "ym2612"
    },
    {
      "channel": 2,
      "note": 47,
      "start": 74.223,
      "duration": 0.0259,
      "velocity": 100,
      "chip": "ym2612"
    },
    {
      "channel": 0,
      "note": 36,
      "start": 74.239,
      "duration": 0.0146,
      "velocity": 115,
      "chip": "ym2612"
    },
    {
      "channel": 4,
      "note": 64,
      "start": 74.2419,
      "duration": 0.013,
      "velocity": 120,
      "chip": "ym2612"
    },
    {
      "channel": 3,
      "note": 71,
      "start": 74.2474,
      "duration": 0.0086,
      "velocity": 120,
      "chip": "ym2612"
    },
    {
      "channel": 2,
      "note": 52,
      "start": 74.249,
      "duration": 0.0083,
      "velocity": 100,
      "chip": "ym2612"
    },
    {
      "channel": 0,
      "note": 36,
      "start": 74.2536,
      "duration": 0.0158,
      "velocity": 115,
      "chip": "ym2612"
    },
    {
      "channel": 4,
      "note": 64,
      "start": 74.2548,
      "duration": 0.0158,
      "velocity": 120,
      "chip": "ym2612"
    },
    {
      "channel": 3,
      "note": 71,
      "start": 74.256,
      "duration": 0.0157,
      "velocity": 120,
      "chip": "ym2612"
    },
    {
      "channel": 2,
      "note": 52,
      "start": 74.2573,
      "duration": 0.0156,
      "velocity": 100,
      "chip": "ym2612"
    },
    {
      "channel": 0,
      "note": 37,
      "start": 74.2695,
      "duration": 0.0162,
      "velocity": 115,
      "chip": "ym2612"
    },
    {
      "channel": 4,
      "note": 64,
      "start": 74.2706,
      "duration": 0.0161,
      "velocity": 120,
      "chip": "ym2612"
    },
    {
      "channel": 3,
      "note": 71,
      "start": 74.2717,
      "duration": 0.0162,
      "velocity": 120,
      "chip": "ym2612"
    },
    {
      "channel": 2,
      "note": 52,
      "start": 74.2729,
      "duration": 0.0161,
      "velocity": 100,
      "chip": "ym2612"
    },
    {
      "channel": 0,
      "note": 37,
      "start": 74.2856,
      "duration": 0.0161,
      "velocity": 115,
      "chip": "ym2612"
    },
    {
      "channel": 4,
      "note": 64,
      "start": 74.2868,
      "duration": 0.0161,
      "velocity": 120,
      "chip": "ym2612"
    },
    {
      "channel": 3,
      "note": 71,
      "start": 74.2879,
      "duration": 0.0161,
      "velocity": 120,
      "chip": "ym2612"
    },
    {
      "channel": 2,
      "note": 52,
      "start": 74.289,
      "duration": 0.0161,
      "velocity": 100,
      "chip": "ym2612"
    },
    {
      "channel": 0,
      "note": 38,
      "start": 74.3017,
      "duration": 0.0161,
      "velocity": 115,
      "chip": "ym2612"
    },
    {
      "channel": 4,
      "note": 64,
      "start": 74.3029,
      "duration": 0.0161,
      "velocity": 120,
      "chip": "ym2612"
    },
    {
      "channel": 3,
      "note": 71,
      "start": 74.304,
      "duration": 0.0161,
      "velocity": 120,
      "chip": "ym2612"
    },
    {
      "channel": 2,
      "note": 52,
      "start": 74.3051,
      "duration": 0.0162,
      "velocity": 100,
      "chip": "ym2612"
    },
    {
      "channel": 0,
      "note": 38,
      "start": 74.3178,
      "duration": 0.0161,
      "velocity": 115,
      "chip": "ym2612"
    },
    {
      "channel": 4,
      "note": 64,
      "start": 74.319,
      "duration": 0.0161,
      "velocity": 120,
      "chip": "ym2612"
    },
    {
      "channel": 3,
      "note": 71,
      "start": 74.3201,
      "duration": 0.0161,
      "velocity": 120,
      "chip": "ym2612"
    },
    {
      "channel": 2,
      "note": 52,
      "start": 74.3212,
      "duration": 0.0161,
      "velocity": 100,
      "chip": "ym2612"
    },
    {
      "channel": 0,
      "note": 39,
      "start": 74.3339,
      "duration": 0.0161,
      "velocity": 115,
      "chip": "ym2612"
    },
    {
      "channel": 4,
      "note": 64,
      "start": 74.3351,
      "duration": 0.0161,
      "velocity": 120,
      "chip": "ym2612"
    },
    {
      "channel": 3,
      "note": 71,
      "start": 74.3362,
      "duration": 0.0161,
      "velocity": 120,
      "chip": "ym2612"
    },
    {
      "channel": 2,
      "note": 52,
      "start": 74.3373,
      "duration": 0.0161,
      "velocity": 100,
      "chip": "ym2612"
    },
    {
      "channel": 0,
      "note": 39,
      "start": 74.35,
      "duration": 0.0161,
      "velocity": 115,
      "chip": "ym2612"
    },
    {
      "channel": 4,
      "note": 64,
      "start": 74.3511,
      "duration": 0.0161,
      "velocity": 120,
      "chip": "ym2612"
    },
    {
      "channel": 3,
      "note": 71,
      "start": 74.3523,
      "duration": 0.0161,
      "velocity": 120,
      "chip": "ym2612"
    },
    {
      "channel": 2,
      "note": 52,
      "start": 74.3534,
      "duration": 0.0161,
      "velocity": 100,
      "chip": "ym2612"
    },
    {
      "channel": 0,
      "note": 40,
      "start": 74.3661,
      "duration": 0.0161,
      "velocity": 115,
      "chip": "ym2612"
    },
    {
      "channel": 4,
      "note": 64,
      "start": 74.3672,
      "duration": 0.0161,
      "velocity": 120,
      "chip": "ym2612"
    },
    {
      "channel": 3,
      "note": 71,
      "start": 74.3684,
      "duration": 0.0161,
      "velocity": 120,
      "chip": "ym2612"
    },
    {
      "channel": 2,
      "note": 52,
      "start": 74.3695,
      "duration": 0.0161,
      "velocity": 100,
      "chip": "ym2612"
    },
    {
      "channel": 0,
      "note": 40,
      "start": 74.3822,
      "duration": 0.0162,
      "velocity": 115,
      "chip": "ym2612"
    },
    {
      "channel": 4,
      "note": 64,
      "start": 74.3833,
      "duration": 0.0161,
      "velocity": 120,
      "chip": "ym2612"
    },
    {
      "channel": 3,
      "note": 71,
      "start": 74.3845,
      "duration": 0.0162,
      "velocity": 120,
      "chip": "ym2612"
    },
    {
      "channel": 2,
      "note": 52,
      "start": 74.3856,
      "duration": 0.0161,
      "velocity": 100,
      "chip": "ym2612"
    },
    {
      "channel": 0,
      "note": 40,
      "start": 74.3983,
      "duration": 0.016,
      "velocity": 115,
      "chip": "ym2612"
    },
    {
      "channel": 4,
      "note": 64,
      "start": 74.3995,
      "duration": 0.016,
      "velocity": 120,
      "chip": "ym2612"
    },
    {
      "channel": 3,
      "note": 71,
      "start": 74.4006,
      "duration": 0.016,
      "velocity": 120,
      "chip": "ym2612"
    },
    {
      "channel": 2,
      "note": 52,
      "start": 74.4018,
      "duration": 0.016,
      "velocity": 100,
      "chip": "ym2612"
    },
    {
      "channel": 0,
      "note": 41,
      "start": 74.4144,
      "duration": 0.0177,
      "velocity": 115,
      "chip": "ym2612"
    },
    {
      "channel": 4,
      "note": 64,
      "start": 74.4155,
      "duration": 0.0179,
      "velocity": 120,
      "chip": "ym2612"
    },
    {
      "channel": 3,
      "note": 71,
      "start": 74.4167,
      "duration": 0.0181,
      "velocity": 120,
      "chip": "ym2612"
    },
    {
      "channel": 2,
      "note": 52,
      "start": 74.4178,
      "duration": 0.0185,
      "velocity": 100,
      "chip": "ym2612"
    },
    {
      "channel": 0,
      "note": 41,
      "start": 74.4321,
      "duration": 0.0167,
      "velocity": 115,
      "chip": "ym2612"
    },
    {
      "channel": 4,
      "note": 67,
      "start": 74.4335,
      "duration": 0.0165,
      "velocity": 120,
      "chip": "ym2612"
    },
    {
      "channel": 3,
      "note": 74,
      "start": 74.4349,
      "duration": 0.0162,
      "velocity": 120,
      "chip": "ym2612"
    },
    {
      "channel": 2,
      "note": 52,
      "start": 74.4363,
      "duration": 0.016,
      "velocity": 100,
      "chip": "ym2612"
    },
    {
      "channel": 0,
      "note": 42,
      "start": 74.4487,
      "duration": 0.0163,
      "velocity": 115,
      "chip": "ym2612"
    },
    {
      "channel": 4,
      "note": 67,
      "start": 74.4499,
      "duration": 0.0162,
      "velocity": 120,
      "chip": "ym2612"
    },
    {
      "channel": 3,
      "note": 74,
      "start": 74.4511,
      "duration": 0.0162,
      "velocity": 120,
      "chip": "ym2612"
    },
    {
      "channel": 2,
      "note": 52,
      "start": 74.4523,
      "duration": 0.0161,
      "velocity": 100,
      "chip": "ym2612"
    },
    {
      "channel": 0,
      "note": 42,
      "start": 74.465,
      "duration": 0.0141,
      "velocity": 115,
      "chip": "ym2612"
    },
    {
      "channel": 4,
      "note": 67,
      "start": 74.4661,
      "duration": 0.0141,
      "velocity": 120,
      "chip": "ym2612"
    },
    {
      "channel": 3,
      "note": 74,
      "start": 74.4673,
      "duration": 0.0141,
      "velocity": 120,
      "chip": "ym2612"
    },
    {
      "channel": 2,
      "note": 52,
      "start": 74.4684,
      "duration": 0.0141,
      "velocity": 100,
      "chip": "ym2612"
    },
    {
      "channel": 0,
      "note": 43,
      "start": 74.4791,
      "duration": 0.0185,
      "velocity": 115,
      "chip": "ym2612"
    },
    {
      "channel": 4,
      "note": 67,
      "start": 74.4803,
      "duration": 0.0185,
      "velocity": 120,
      "chip": "ym2612"
    },
    {
      "channel": 3,
      "note": 74,
      "start": 74.4814,
      "duration": 0.0185,
      "velocity": 120,
      "chip": "ym2612"
    },
    {
      "channel": 2,
      "note": 52,
      "start": 74.4826,
      "duration": 0.0185,
      "velocity": 100,
      "chip": "ym2612"
    },
    {
      "channel": 0,
      "note": 43,
      "start": 74.4976,
      "duration": 0.0161,
      "velocity": 115,
      "chip": "ym2612"
    },
    {
      "channel": 4,
      "note": 67,
      "start": 74.4988,
      "duration": 0.0161,
      "velocity": 120,
      "chip": "ym2612"
    },
    {
      "channel": 3,
      "note": 74,
      "start": 74.4999,
      "duration": 0.0161,
      "velocity": 120,
      "chip": "ym2612"
    },
    {
      "channel": 2,
      "note": 52,
      "start": 74.5011,
      "duration": 0.0161,
      "velocity": 100,
      "chip": "ym2612"
    },
    {
      "channel": 0,
      "note": 44,
      "start": 74.5137,
      "duration": 0.0134,
      "velocity": 115,
      "chip": "ym2612"
    },
    {
      "channel": 4,
      "note": 67,
      "start": 74.5149,
      "duration": 0.0158,
      "velocity": 120,
      "chip": "ym2612"
    },
    {
      "channel": 3,
      "note": 74,
      "start": 74.516,
      "duration": 0.0158,
      "velocity": 120,
      "chip": "ym2612"
    },
    {
      "channel": 2,
      "note": 52,
      "start": 74.5172,
      "duration": 0.0157,
      "velocity": 100,
      "chip": "ym2612"
    },
    {
      "channel": 0,
      "note": 44,
      "start": 74.5271,
      "duration": 0.0161,
      "velocity": 115,
      "chip": "ym2612"
    },
    {
      "channel": 4,
      "note": 67,
      "start": 74.5307,
      "duration": 0.014,
      "velocity": 120,
      "chip": "ym2612"
    },
    {
      "channel": 3,
      "note": 74,
      "start": 74.5318,
      "duration": 0.014,
      "velocity": 120,
      "chip": "ym2612"
    },
    {
      "channel": 2,
      "note": 52,
      "start": 74.5329,
      "duration": 0.0141,
      "velocity": 100,
      "chip": "ym2612"
    },
    {
      "channel": 0,
      "note": 44,
      "start": 74.5432,
      "duration": 0.0161,
      "velocity": 115,
      "chip": "ym2612"
    },
    {
      "channel": 4,
      "note": 67,
      "start": 74.5446,
      "duration": 0.0158,
      "velocity": 120,
      "chip": "ym2612"
    },
    {
      "channel": 3,
      "note": 74,
      "start": 74.5458,
      "duration": 0.0186,
      "velocity": 120,
      "chip": "ym2612"
    },
    {
      "channel": 2,
      "note": 52,
      "start": 74.5469,
      "duration": 0.0185,
      "velocity": 100,
      "chip": "ym2612"
    },
    {
      "channel": 0,
      "note": 45,
      "start": 74.5593,
      "duration": 0.0161,
      "velocity": 115,
      "chip": "ym2612"
    },
    {
      "channel": 4,
      "note": 67,
      "start": 74.5604,
      "duration": 0.0162,
      "velocity": 120,
      "chip": "ym2612"
    },
    {
      "channel": 3,
      "note": 74,
      "start": 74.5644,
      "duration": 0.0161,
      "velocity": 120,
      "chip": "ym2612"
    },
    {
      "channel": 2,
      "note": 52,
      "start": 74.5655,
      "duration": 0.0161,
      "velocity": 100,
      "chip": "ym2612"
    },
    {
      "channel": 0,
      "note": 45,
      "start": 74.5754,
      "duration": 0.0162,
      "velocity": 115,
      "chip": "ym2612"
    },
    {
      "channel": 4,
      "note": 67,
      "start": 74.5766,
      "duration": 0.0161,
      "velocity": 120,
      "chip": "ym2612"
    },
    {
      "channel": 3,
      "note": 74,
      "start": 74.5805,
      "duration": 0.0134,
      "velocity": 120,
      "chip": "ym2612"
    },
    {
      "channel": 2,
      "note": 52,
      "start": 74.5815,
      "duration": 0.0158,
      "velocity": 100,
      "chip": "ym2612"
    },
    {
      "channel": 0,
      "note": 46,
      "start": 74.5915,
      "duration": 0.0161,
      "velocity": 115,
      "chip": "ym2612"
    },
    {
      "channel": 4,
      "note": 67,
      "start": 74.5927,
      "duration": 0.0161,
      "velocity": 120,
      "chip": "ym2612"
    },
    {
      "channel": 3,
      "note": 74,
      "start": 74.5938,
      "duration": 0.0161,
      "velocity": 120,
      "chip": "ym2612"
    },
    {
      "channel": 2,
      "note": 52,
      "start": 74.5973,
      "duration": 0.0141,
      "velocity": 100,
      "chip": "ym2612"
    },
    {
      "channel": 0,
      "note": 46,
      "start": 74.6076,
      "duration": 0.0178,
      "velocity": 124,
      "chip": "ym2612"
    },
    {
      "channel": 4,
      "note": 67,
      "start": 74.6088,
      "duration": 0.0181,
      "velocity": 120,
      "chip": "ym2612"
    },
    {
      "channel": 3,
      "note": 74,
      "start": 74.6099,
      "duration": 0.0211,
      "velocity": 120,
      "chip": "ym2612"
    },
    {
      "channel": 2,
      "note": 52,
      "start": 74.6114,
      "duration": 0.0211,
      "velocity": 100,
      "chip": "ym2612"
    },
    {
      "channel": 0,
      "note": 84,
      "start": 74.6255,
      "duration": 0.0144,
      "velocity": 124,
      "chip": "ym2612"
    },
    {
      "channel": 4,
      "note": 69,
      "start": 74.6269,
      "duration": 0.0142,
      "velocity": 120,
      "chip": "ym2612"
    },
    {
      "channel": 3,
      "note": 76,
      "start": 74.6311,
      "duration": 0.0112,
      "velocity": 120,
      "chip": "ym2612"
    },
    {
      "channel": 2,
      "note": 52,
      "start": 74.6325,
      "duration": 0.011,
      "velocity": 100,
      "chip": "ym2612"
    },
    {
      "channel": 0,
      "note": 82,
      "start": 74.6399,
      "duration": 0.016,
      "velocity": 124,
      "chip": "ym2612"
    },
    {
      "channel": 4,
      "note": 69,
      "start": 74.6411,
      "duration": 0.016,
      "velocity": 120,
      "chip": "ym2612"
    },
    {
      "channel": 3,
      "note": 76,
      "start": 74.6423,
      "duration": 0.0159,
      "velocity": 120,
      "chip": "ym2612"
    },
    {
      "channel": 2,
      "note": 52,
      "start": 74.6434,
      "duration": 0.0159,
      "velocity": 100,
      "chip": "ym2612"
    },
    {
      "channel": 0,
      "note": 80,
      "start": 74.6559,
      "duration": 0.0161,
      "velocity": 124,
      "chip": "ym2612"
    },
    {
      "channel": 4,
      "note": 69,
      "start": 74.6571,
      "duration": 0.0161,
      "velocity": 120,
      "chip": "ym2612"
    },
    {
      "channel": 3,
      "note": 76,
      "start": 74.6582,
      "duration": 0.0161,
      "velocity": 120,
      "chip": "ym2612"
    },
    {
      "channel": 2,
      "note": 52,
      "start": 74.6593,
      "duration": 0.0161,
      "velocity": 100,
      "chip": "ym2612"
    },
    {
      "channel": 0,
      "note": 77,
      "start": 74.672,
      "duration": 0.0161,
      "velocity": 124,
      "chip": "ym2612"
    },
    {
      "channel": 4,
      "note": 69,
      "start": 74.6732,
      "duration": 0.0162,
      "velocity": 120,
      "chip": "ym2612"
    },
    {
      "channel": 3,
      "note": 76,
      "start": 74.6743,
      "duration": 0.0161,
      "velocity": 120,
      "chip": "ym2612"
    },
    {
      "channel": 2,
      "note": 52,
      "start": 74.6754,
      "duration": 0.0161,
      "velocity": 100,
      "chip": "ym2612"
    },
    {
      "channel": 0,
      "note": 75,
      "start": 74.6881,
      "duration": 0.0161,
      "velocity": 124,
      "chip": "ym2612"
    },
    {
      "channel": 4,
      "note": 69,
      "start": 74.6893,
      "duration": 0.0161,
      "velocity": 120,
      "chip": "ym2612"
    },
    {
      "channel": 3,
      "note": 76,
      "start": 74.6904,
      "duration": 0.0161,
      "velocity": 120,
      "chip": "ym2612"
    },
    {
      "channel": 2,
      "note": 52,
      "start": 74.6915,
      "duration": 0.0161,
      "velocity": 100,
      "chip": "ym2612"
    },
    {
      "channel": 0,
      "note": 72,
      "start": 74.7042,
      "duration": 0.0162,
      "velocity": 124,
      "chip": "ym2612"
    },
    {
      "channel": 4,
      "note": 69,
      "start": 74.7054,
      "duration": 0.0161,
      "velocity": 120,
      "chip": "ym2612"
    },
    {
      "channel": 3,
      "note": 76,
      "start": 74.7065,
      "duration": 0.0162,
      "velocity": 120,
      "chip": "ym2612"
    },
    {
      "channel": 2,
      "note": 52,
      "start": 74.7076,
      "duration": 0.0161,
      "velocity": 100,
      "chip": "ym2612"
    },
    {
      "channel": 0,
      "note": 70,
      "start": 74.7204,
      "duration": 0.0161,
      "velocity": 124,
      "chip": "ym2612"
    },
    {
      "channel": 4,
      "note": 69,
      "start": 74.7215,
      "duration": 0.0161,
      "velocity": 120,
      "chip": "ym2612"
    },
    {
      "channel": 3,
      "note": 76,
      "start": 74.7227,
      "duration": 0.0161,
      "velocity": 120,
      "chip": "ym2612"
    },
    {
      "channel": 2,
      "note": 52,
      "start": 74.7238,
      "duration": 0.016,
      "velocity": 100,
      "chip": "ym2612"
    },
    {
      "channel": 0,
      "note": 68,
      "start": 74.7364,
      "duration": 0.0161,
      "velocity": 124,
      "chip": "ym2612"
    },
    {
      "channel": 4,
      "note": 69,
      "start": 74.7376,
      "duration": 0.0161,
      "velocity": 120,
      "chip": "ym2612"
    },
    {
      "channel": 3,
      "note": 76,
      "start": 74.7387,
      "duration": 0.0161,
      "velocity": 120,
      "chip": "ym2612"
    },
    {
      "channel": 2,
      "note": 52,
      "start": 74.7398,
      "duration": 0.0161,
      "velocity": 100,
      "chip": "ym2612"
    },
    {
      "channel": 0,
      "note": 65,
      "start": 74.7525,
      "duration": 0.0161,
      "velocity": 124,
      "chip": "ym2612"
    },
    {
      "channel": 4,
      "note": 69,
      "start": 74.7537,
      "duration": 0.0161,
      "velocity": 120,
      "chip": "ym2612"
    },
    {
      "channel": 3,
      "note": 76,
      "start": 74.7548,
      "duration": 0.0161,
      "velocity": 120,
      "chip": "ym2612"
    },
    {
      "channel": 2,
      "note": 52,
      "start": 74.7559,
      "duration": 0.0161,
      "velocity": 100,
      "chip": "ym2612"
    },
    {
      "channel": 0,
      "note": 63,
      "start": 74.7686,
      "duration": 0.0153,
      "velocity": 1,
      "chip": "ym2612"
    },
    {
      "channel": 4,
      "note": 69,
      "start": 74.7698,
      "duration": 0.0153,
      "velocity": 120,
      "chip": "ym2612"
    },
    {
      "channel": 3,
      "note": 76,
      "start": 74.7709,
      "duration": 0.0153,
      "velocity": 120,
      "chip": "ym2612"
    },
    {
      "channel": 2,
      "note": 52,
      "start": 74.7721,
      "duration": 0.0153,
      "velocity": 100,
      "chip": "ym2612"
    },
    {
      "channel": 4,
      "note": 69,
      "start": 74.7851,
      "duration": 0.0152,
      "velocity": 120,
      "chip": "ym2612"
    },
    {
      "channel": 3,
      "note": 76,
      "start": 74.7862,
      "duration": 0.0153,
      "velocity": 120,
      "chip": "ym2612"
    },
    {
      "channel": 2,
      "note": 52,
      "start": 74.7873,
      "duration": 0.0153,
      "velocity": 100,
      "chip": "ym2612"
    },
    {
      "channel": 4,
      "note": 69,
      "start": 74.8003,
      "duration": 0.0198,
      "velocity": 120,
      "chip": "ym2612"
    },
    {
      "channel": 3,
      "note": 76,
      "start": 74.8015,
      "duration": 0.02,
      "velocity": 120,
      "chip": "ym2612"
    },
    {
      "channel": 2,
      "note": 52,
      "start": 74.8026,
      "duration": 0.0204,
      "velocity": 100,
      "chip": "ym2612"
    },
    {
      "channel": 0,
      "note": 36,
      "start": 74.8187,
      "duration": 0.0144,
      "velocity": 115,
      "chip": "ym2612"
    },
    {
      "channel": 4,
      "note": 67,
      "start": 74.8202,
      "duration": 0.0141,
      "velocity": 120,
      "chip": "ym2612"
    },
    {
      "channel": 3,
      "note": 74,
      "start": 74.8215,
      "duration": 0.014,
      "velocity": 120,
      "chip": "ym2612"
    },
    {
      "channel": 2,
      "note": 52,
      "start": 74.823,
      "duration": 0.0137,
      "velocity": 100,
      "chip": "ym2612"
    },
    {
      "channel": 0,
      "note": 36,
      "start": 74.8331,
      "duration": 0.016,
      "velocity": 115,
      "chip": "ym2612"
    },
    {
      "channel": 4,
      "note": 67,
      "start": 74.8343,
      "duration": 0.016,
      "velocity": 120,
      "chip": "ym2612"
    },
    {
      "channel": 3,
      "note": 74,
      "start": 74.8355,
      "duration": 0.0159,
      "velocity": 120,
      "chip": "ym2612"
    },
    {
      "channel": 2,
      "note": 52,
      "start": 74.8367,
      "duration": 0.0158,
      "velocity": 100,
      "chip": "ym2612"
    },
    {
      "channel": 0,
      "note": 37,
      "start": 74.8491,
      "duration": 0.0161,
      "velocity": 115,
      "chip": "ym2612"
    },
    {
      "channel": 4,
      "note": 67,
      "start": 74.8502,
      "duration": 0.0162,
      "velocity": 120,
      "chip": "ym2612"
    },
    {
      "channel": 3,
      "note": 74,
      "start": 74.8514,
      "duration": 0.0161,
      "velocity": 120,
      "chip": "ym2612"
    },
    {
      "channel": 2,
      "note": 52,
      "start": 74.8525,
      "duration": 0.0161,
      "velocity": 100,
      "chip": "ym2612"
    },
    {
      "channel": 0,
      "note": 37,
      "start": 74.8653,
      "duration": 0.0161,
      "velocity": 115,
      "chip": "ym2612"
    },
    {
      "channel": 4,
      "note": 67,
      "start": 74.8664,
      "duration": 0.0161,
      "velocity": 120,
      "chip": "ym2612"
    },
    {
      "channel": 3,
      "note": 74,
      "start": 74.8676,
      "duration": 0.0161,
      "velocity": 120,
      "chip": "ym2612"
    },
    {
      "channel": 2,
      "note": 52,
      "start": 74.8686,
      "duration": 0.0161,
      "velocity": 100,
      "chip": "ym2612"
    },
    {
      "channel": 0,
      "note": 38,
      "start": 74.8814,
      "duration": 0.0173,
      "velocity": 115,
      "chip": "ym2612"
    },
    {
      "channel": 4,
      "note": 67,
      "start": 74.8825,
      "duration": 0.0174,
      "velocity": 120,
      "chip": "ym2612"
    },
    {
      "channel": 3,
      "note": 74,
      "start": 74.8837,
      "duration": 0.0174,
      "velocity": 120,
      "chip": "ym2612"
    },
    {
      "channel": 2,
      "note": 52,
      "start": 74.8847,
      "duration": 0.0174,
      "velocity": 100,
      "chip": "ym2612"
    },
    {
      "channel": 0,
      "note": 38,
      "start": 74.8987,
      "duration": 0.0167,
      "velocity": 115,
      "chip": "ym2612"
    },
    {
      "channel": 4,
      "note": 67,
      "start": 74.8999,
      "duration": 0.0167,
      "velocity": 120,
      "chip": "ym2612"
    },
    {
      "channel": 3,
      "note": 74,
      "start": 74.901,
      "duration": 0.0167,
      "velocity": 120,
      "chip": "ym2612"
    },
    {
      "channel": 2,
      "note": 52,
      "start": 74.9021,
      "duration": 0.0167,
      "velocity": 100,
      "chip": "ym2612"
    },
    {
      "channel": 0,
      "note": 39,
      "start": 74.9154,
      "duration": 0.0163,
      "velocity": 115,
      "chip": "ym2612"
    },
    {
      "channel": 4,
      "note": 67,
      "start": 74.9165,
      "duration": 0.0163,
      "velocity": 120,
      "chip": "ym2612"
    },
    {
      "channel": 3,
      "note": 74,
      "start": 74.9177,
      "duration": 0.0163,
      "velocity": 120,
      "chip": "ym2612"
    },
    {
      "channel": 2,
      "note": 52,
      "start": 74.9188,
      "duration": 0.0163,
      "velocity": 100,
      "chip": "ym2612"
    },
    {
      "channel": 0,
      "note": 39,
      "start": 74.9317,
      "duration": 0.0144,
      "velocity": 115,
      "chip": "ym2612"
    },
    {
      "channel": 4,
      "note": 67,
      "start": 74.9328,
      "duration": 0.0144,
      "velocity": 120,
      "chip": "ym2612"
    },
    {
      "channel": 3,
      "note": 74,
      "start": 74.934,
      "duration": 0.0144,
      "velocity": 120,
      "chip": "ym2612"
    },
    {
      "channel": 2,
      "note": 52,
      "start": 74.9351,
      "duration": 0.0144,
      "velocity": 100,
      "chip": "ym2612"
    },
    {
      "channel": 0,
      "note": 40,
      "start": 74.9461,
      "duration": 0.0185,
      "velocity": 115,
      "chip": "ym2612"
    },
    {
      "channel": 4,
      "note": 67,
      "start": 74.9472,
      "duration": 0.0185,
      "velocity": 120,
      "chip": "ym2612"
    },
    {
      "channel": 3,
      "note": 74,
      "start": 74.9483,
      "duration": 0.0185,
      "velocity": 120,
      "chip": "ym2612"
    },
    {
      "channel": 2,
      "note": 52,
      "start": 74.9495,
      "duration": 0.0185,
      "velocity": 100,
      "chip": "ym2612"
    },
    {
      "channel": 0,
      "note": 40,
      "start": 74.9646,
      "duration": 0.0161,
      "velocity": 115,
      "chip": "ym2612"
    },
    {
      "channel": 4,
      "note": 67,
      "start": 74.9657,
      "duration": 0.0161,
      "velocity": 120,
      "chip": "ym2612"
    },
    {
      "channel": 3,
      "note": 74,
      "start": 74.9668,
      "duration": 0.0161,
      "velocity": 120,
      "chip": "ym2612"
    },
    {
      "channel": 2,
      "note": 52,
      "start": 74.968,
      "duration": 0.0161,
      "velocity": 100,
      "chip": "ym2612"
    },
    {
      "channel": 0,
      "note": 40,
      "start": 74.9807,
      "duration": 0.0157,
      "velocity": 115,
      "chip": "ym2612"
    },
    {
      "channel": 4,
      "note": 67,
      "start": 74.9818,
      "duration": 0.0158,
      "velocity": 120,
      "chip": "ym2612"
    },
    {
      "channel": 3,
      "note": 74,
      "start": 74.9829,
      "duration": 0.0158,
      "velocity": 120,
      "chip": "ym2612"
    },
    {
      "channel": 2,
      "note": 52,
      "start": 74.9841,
      "duration": 0.0158,
      "velocity": 100,
      "chip": "ym2612"
    },
    {
      "channel": 0,
      "note": 41,
      "start": 74.9964,
      "duration": 0.0159,
      "velocity": 115,
      "chip": "ym2612"
    },
    {
      "channel": 4,
      "note": 67,
      "start": 74.9976,
      "duration": 0.016,
      "velocity": 120,
      "chip": "ym2612"
    },
    {
      "channel": 3,
      "note": 74,
      "start": 74.9987,
      "duration": 0.0163,
      "velocity": 120,
      "chip": "ym2612"
    },
    {
      "channel": 2,
      "note": 52,
      "start": 74.9999,
      "duration": 0.0166,
      "velocity": 100,
      "chip": "ym2612"
    },
    {
      "channel": 0,
      "note": 36,
      "start": 75.0123,
      "duration": 0.014,
      "velocity": 115,
      "chip": "ym2612"
    },
    {
      "channel": 4,
      "note": 69,
      "start": 75.0137,
      "duration": 0.0166,
      "velocity": 120,
      "chip": "ym2612"
    },
    {
      "channel": 3,
      "note": 76,
      "start": 75.0151,
      "duration": 0.0163,
      "velocity": 120,
      "chip": "ym2612"
    },
    {
      "channel": 2,
      "note": 52,
      "start": 75.0165,
      "duration": 0.0161,
      "velocity": 100,
      "chip": "ym2612"
    },
    {
      "channel": 0,
      "note": 36,
      "start": 75.0263,
      "duration": 0.0161,
      "velocity": 115,
      "chip": "ym2612"
    },
    {
      "channel": 4,
      "note": 69,
      "start": 75.0303,
      "duration": 0.0132,
      "velocity": 120,
      "chip": "ym2612"
    },
    {
      "channel": 3,
      "note": 76,
      "start": 75.0314,
      "duration": 0.016,
      "velocity": 120,
      "chip": "ym2612"
    },
    {
      "channel": 2,
      "note": 52,
      "start": 75.0326,
      "duration": 0.0159,
      "velocity": 100,
      "chip": "ym2612"
    },
    {
      "channel": 0,
      "note": 37,
      "start": 75.0424,
      "duration": 0.0161,
      "velocity": 115,
      "chip": "ym2612"
    },
    {
      "channel": 4,
      "note": 69,
      "start": 75.0435,
      "duration": 0.0161,
      "velocity": 120,
      "chip": "ym2612"
    },
    {
      "channel": 3,
      "note": 76,
      "start": 75.0474,
      "duration": 0.0157,
      "velocity": 120,
      "chip": "ym2612"
    },
    {
      "channel": 2,
      "note": 52,
      "start": 75.0485,
      "duration": 0.0157,
      "velocity": 100,
      "chip": "ym2612"
    },
    {
      "channel": 0,
      "note": 37,
      "start": 75.0585,
      "duration": 0.0161,
      "velocity": 115,
      "chip": "ym2612"
    },
    {
      "channel": 4,
      "note": 69,
      "start": 75.0596,
      "duration": 0.0161,
      "velocity": 120,
      "chip": "ym2612"
    },
    {
      "channel": 3,
      "note": 76,
      "start": 75.0631,
      "duration": 0.0137,
      "velocity": 120,
      "chip": "ym2612"
    },
    {
      "channel": 2,
      "note": 52,
      "start": 75.0642,
      "duration": 0.0141,
      "velocity": 100,
      "chip": "ym2612"
    },
    {
      "channel": 0,
      "note": 38,
      "start": 75.0746,
      "duration": 0.0161,
      "velocity": 115,
      "chip": "ym2612"
    },
    {
      "channel": 4,
      "note": 69,
      "start": 75.0757,
      "duration": 0.0161,
      "velocity": 120,
      "chip": "ym2612"
    },
    {
      "channel": 3,
      "note": 76,
      "start": 75.0768,
      "duration": 0.0161,
      "velocity": 120,
      "chip": "ym2612"
    },
    {
      "channel": 2,
      "note": 52,
      "start": 75.0783,
      "duration": 0.0185,
      "velocity": 100,
      "chip": "ym2612"
    },
    {
      "channel": 0,
      "note": 38,
      "start": 75.0907,
      "duration": 0.0161,
      "velocity": 115,
      "chip": "ym2612"
    },
    {
      "channel": 4,
      "note": 69,
      "start": 75.0918,
      "duration": 0.0161,
      "velocity": 120,
      "chip": "ym2612"
    },
    {
      "channel": 3,
      "note": 76,
      "start": 75.0929,
      "duration": 0.0161,
      "velocity": 120,
      "chip": "ym2612"
    },
    {
      "channel": 2,
      "note": 52,
      "start": 75.0968,
      "duration": 0.0134,
      "velocity": 100,
      "chip": "ym2612"
    },
    {
      "channel": 0,
      "note": 39,
      "start": 75.1067,
      "duration": 0.0161,
      "velocity": 115,
      "chip": "ym2612"
    },
    {
      "channel": 4,
      "note": 69,
      "start": 75.1079,
      "duration": 0.0161,
      "velocity": 120,
      "chip": "ym2612"
    },
    {
      "channel": 3,
      "note": 76,
      "start": 75.109,
      "duration": 0.0161,
      "velocity": 120,
      "chip": "ym2612"
    },
    {
      "channel": 2,
      "note": 52,
      "start": 75.1102,
      "duration": 0.0161,
      "velocity": 100,
      "chip": "ym2612"
    },
    {
      "channel": 0,
      "note": 39,
      "start": 75.1228,
      "duration": 0.0161,
      "velocity": 115,
      "chip": "ym2612"
    },
    {
      "channel": 4,
      "note": 69,
      "start": 75.124,
      "duration": 0.0161,
      "velocity": 120,
      "chip": "ym2612"
    },
    {
      "channel": 3,
      "note": 76,
      "start": 75.1251,
      "duration": 0.0161,
      "velocity": 120,
      "chip": "ym2612"
    },
    {
      "channel": 2,
      "note": 52,
      "start": 75.1263,
      "duration": 0.0161,
      "velocity": 100,
      "chip": "ym2612"
    },
    {
      "channel": 0,
      "note": 40,
      "start": 75.1389,
      "duration": 0.0161,
      "velocity": 115,
      "chip": "ym2612"
    },
    {
      "channel": 4,
      "note": 69,
      "start": 75.1401,
      "duration": 0.0161,
      "velocity": 120,
      "chip": "ym2612"
    },
    {
      "channel": 3,
      "note": 76,
      "start": 75.1412,
      "duration": 0.0161,
      "velocity": 120,
      "chip": "ym2612"
    },
    {
      "channel": 2,
      "note": 52,
      "start": 75.1424,
      "duration": 0.0161,
      "velocity": 100,
      "chip": "ym2612"
    },
    {
      "channel": 0,
      "note": 40,
      "start": 75.155,
      "duration": 0.0161,
      "velocity": 115,
      "chip": "ym2612"
    },
    {
      "channel": 4,
      "note": 69,
      "start": 75.1562,
      "duration": 0.0161,
      "velocity": 120,
      "chip": "ym2612"
    },
    {
      "channel": 3,
      "note": 76,
      "start": 75.1573,
      "duration": 0.0161,
      "velocity": 120,
      "chip": "ym2612"
    },
    {
      "channel": 2,
      "note": 52,
      "start": 75.1585,
      "duration": 0.0161,
      "velocity": 100,
      "chip": "ym2612"
    },
    {
      "channel": 0,
      "note": 40,
      "start": 75.1712,
      "duration": 0.0161,
      "velocity": 115,
      "chip": "ym2612"
    },
    {
      "channel": 4,
      "note": 69,
      "start": 75.1723,
      "duration": 0.0161,
      "velocity": 120,
      "chip": "ym2612"
    },
    {
      "channel": 3,
      "note": 76,
      "start": 75.1735,
      "duration": 0.0161,
      "velocity": 120,
      "chip": "ym2612"
    },
    {
      "channel": 2,
      "note": 52,
      "start": 75.1746,
      "duration": 0.0161,
      "velocity": 100,
      "chip": "ym2612"
    },
    {
      "channel": 0,
      "note": 41,
      "start": 75.1873,
      "duration": 0.0161,
      "velocity": 115,
      "chip": "ym2612"
    },
    {
      "channel": 4,
      "note": 69,
      "start": 75.1884,
      "duration": 0.0163,
      "velocity": 120,
      "chip": "ym2612"
    },
    {
      "channel": 3,
      "note": 76,
      "start": 75.1896,
      "duration": 0.0165,
      "velocity": 120,
      "chip": "ym2612"
    },
    {
      "channel": 2,
      "note": 52,
      "start": 75.1907,
      "duration": 0.0169,
      "velocity": 100,
      "chip": "ym2612"
    },
    {
      "channel": 0,
      "note": 41,
      "start": 75.2034,
      "duration": 0.0161,
      "velocity": 115,
      "chip": "ym2612"
    },
    {
      "channel": 4,
      "note": 67,
      "start": 75.2048,
      "duration": 0.0159,
      "velocity": 120,
      "chip": "ym2612"
    },
    {
      "channel": 3,
      "note": 74,
      "start": 75.2062,
      "duration": 0.0157,
      "velocity": 120,
      "chip": "ym2612"
    },
    {
      "channel": 2,
      "note": 52,
      "start": 75.2076,
      "duration": 0.0154,
      "velocity": 100,
      "chip": "ym2612"
    },
    {
      "channel": 0,
      "note": 42,
      "start": 75.2195,
      "duration": 0.0161,
      "velocity": 115,
      "chip": "ym2612"
    },
    {
      "channel": 4,
      "note": 67,
      "start": 75.2207,
      "duration": 0.016,
      "velocity": 120,
      "chip": "ym2612"
    },
    {
      "channel": 3,
      "note": 74,
      "start": 75.2219,
      "duration": 0.016,
      "velocity": 120,
      "chip": "ym2612"
    },
    {
      "channel": 2,
      "note": 52,
      "start": 75.2231,
      "duration": 0.0159,
      "velocity": 100,
      "chip": "ym2612"
    },
    {
      "channel": 0,
      "note": 42,
      "start": 75.2356,
      "duration": 0.0161,
      "velocity": 115,
      "chip": "ym2612"
    },
    {
      "channel": 4,
      "note": 67,
      "start": 75.2367,
      "duration": 0.0161,
      "velocity": 120,
      "chip": "ym2612"
    },
    {
      "channel": 3,
      "note": 74,
      "start": 75.2378,
      "duration": 0.0161,
      "velocity": 120,
      "chip": "ym2612"
    },
    {
      "channel": 2,
      "note": 52,
      "start": 75.239,
      "duration": 0.0161,
      "velocity": 100,
      "chip": "ym2612"
    },
    {
      "channel": 0,
      "note": 43,
      "start": 75.2517,
      "duration": 0.0161,
      "velocity": 115,
      "chip": "ym2612"
    },
    {
      "channel": 4,
      "note": 67,
      "start": 75.2528,
      "duration": 0.0161,
      "velocity": 120,
      "chip": "ym2612"
    },
    {
      "channel": 3,
      "note": 74,
      "start": 75.2539,
      "duration": 0.0161,
      "velocity": 120,
      "chip": "ym2612"
    },
    {
      "channel": 2,
      "note": 52,
      "start": 75.2551,
      "duration": 0.0161,
      "velocity": 100,
      "chip": "ym2612"
    },
    {
      "channel": 0,
      "note": 43,
      "start": 75.2678,
      "duration": 0.0161,
      "velocity": 115,
      "chip": "ym2612"
    },
    {
      "channel": 4,
      "note": 67,
      "start": 75.2689,
      "duration": 0.0161,
      "velocity": 120,
      "chip": "ym2612"
    },
    {
      "channel": 3,
      "note": 74,
      "start": 75.27,
      "duration": 0.0161,
      "velocity": 120,
      "chip": "ym2612"
    },
    {
      "channel": 2,
      "note": 52,
      "start": 75.2712,
      "duration": 0.0161,
      "velocity": 100,
      "chip": "ym2612"
    },
    {
      "channel": 0,
      "note": 44,
      "start": 75.2838,
      "duration": 0.0161,
      "velocity": 115,
      "chip": "ym2612"
    },
    {
      "channel": 4,
      "note": 67,
      "start": 75.285,
      "duration": 0.0161,
      "velocity": 120,
      "chip": "ym2612"
    },
    {
      "channel": 3,
      "note": 74,
      "start": 75.2861,
      "duration": 0.0161,
      "velocity": 120,
      "chip": "ym2612"
    },
    {
      "channel": 2,
      "note": 52,
      "start": 75.2873,
      "duration": 0.0161,
      "velocity": 100,
      "chip": "ym2612"
    },
    {
      "channel": 0,
      "note": 44,
      "start": 75.2999,
      "duration": 0.0161,
      "velocity": 115,
      "chip": "ym2612"
    },
    {
      "channel": 4,
      "note": 67,
      "start": 75.3011,
      "duration": 0.0161,
      "velocity": 120,
      "chip": "ym2612"
    },
    {
      "channel": 3,
      "note": 74,
      "start": 75.3022,
      "duration": 0.0162,
      "velocity": 120,
      "chip": "ym2612"
    },
    {
      "channel": 2,
      "note": 52,
      "start": 75.3034,
      "duration": 0.0161,
      "velocity": 100,
      "chip": "ym2612"
    },
    {
      "channel": 0,
      "note": 44,
      "start": 75.316,
      "duration": 0.0161,
      "velocity": 115,
      "chip": "ym2612"
    },
    {
      "channel": 4,
      "note": 67,
      "start": 75.3172,
      "duration": 0.0161,
      "velocity": 120,
      "chip": "ym2612"
    },
    {
      "channel": 3,
      "note": 74,
      "start": 75.3184,
      "duration": 0.0161,
      "velocity": 120,
      "chip": "ym2612"
    },
    {
      "channel": 2,
      "note": 52,
      "start": 75.3195,
      "duration": 0.0161,
      "velocity": 100,
      "chip": "ym2612"
    },
    {
      "channel": 0,
      "note": 45,
      "start": 75.3322,
      "duration": 0.0161,
      "velocity": 115,
      "chip": "ym2612"
    },
    {
      "channel": 4,
      "note": 67,
      "start": 75.3333,
      "duration": 0.0161,
      "velocity": 120,
      "chip": "ym2612"
    },
    {
      "channel": 3,
      "note": 74,
      "start": 75.3345,
      "duration": 0.0161,
      "velocity": 120,
      "chip": "ym2612"
    },
    {
      "channel": 2,
      "note": 52,
      "start": 75.3356,
      "duration": 0.0161,
      "velocity": 100,
      "chip": "ym2612"
    },
    {
      "channel": 0,
      "note": 45,
      "start": 75.3483,
      "duration": 0.0171,
      "velocity": 115,
      "chip": "ym2612"
    },
    {
      "channel": 4,
      "note": 67,
      "start": 75.3494,
      "duration": 0.0171,
      "velocity": 120,
      "chip": "ym2612"
    },
    {
      "channel": 3,
      "note": 74,
      "start": 75.3506,
      "duration": 0.0171,
      "velocity": 120,
      "chip": "ym2612"
    },
    {
      "channel": 2,
      "note": 52,
      "start": 75.3517,
      "duration": 0.0171,
      "velocity": 100,
      "chip": "ym2612"
    },
    {
      "channel": 0,
      "note": 46,
      "start": 75.3654,
      "duration": 0.0167,
      "velocity": 115,
      "chip": "ym2612"
    },
    {
      "channel": 4,
      "note": 67,
      "start": 75.3665,
      "duration": 0.0167,
      "velocity": 120,
      "chip": "ym2612"
    },
    {
      "channel": 3,
      "note": 74,
      "start": 75.3677,
      "duration": 0.0167,
      "velocity": 120,
      "chip": "ym2612"
    },
    {
      "channel": 2,
      "note": 52,
      "start": 75.3688,
      "duration": 0.0167,
      "velocity": 100,
      "chip": "ym2612"
    },
    {
      "channel": 0,
      "note": 46,
      "start": 75.3821,
      "duration": 0.018,
      "velocity": 124,
      "chip": "ym2612"
    },
    {
      "channel": 4,
      "note": 67,
      "start": 75.3832,
      "duration": 0.0183,
      "velocity": 120,
      "chip": "ym2612"
    },
    {
      "channel": 3,
      "note": 74,
      "start": 75.3844,
      "duration": 0.0186,
      "velocity": 120,
      "chip": "ym2612"
    },
    {
      "channel": 2,
      "note": 52,
      "start": 75.3854,
      "duration": 0.0189,
      "velocity": 100,
      "chip": "ym2612"
    },
    {
      "channel": 0,
      "note": 84,
      "start": 75.4001,
      "duration": 0.0129,
      "velocity": 124,
      "chip": "ym2612"
    },
    {
      "channel": 4,
      "note": 69,
      "start": 75.4015,
      "duration": 0.0127,
      "velocity": 120,
      "chip": "ym2612"
    },
    {
      "channel": 3,
      "note": 76,
      "start": 75.4029,
      "duration": 0.0125,
      "velocity": 120,
      "chip": "ym2612"
    },
    {
      "channel": 2,
      "note": 52,
      "start": 75.4044,
      "duration": 0.0122,
      "velocity": 100,
      "chip": "ym2612"
    },
    {
      "channel": 0,
      "note": 82,
      "start": 75.413,
      "duration": 0.0185,
      "velocity": 124,
      "chip": "ym2612"
    },
    {
      "channel": 4,
      "note": 69,
      "start": 75.4142,
      "duration": 0.0185,
      "velocity": 120,
      "chip": "ym2612"
    },
    {
      "channel": 3,
      "note": 76,
      "start": 75.4155,
      "duration": 0.0184,
      "velocity": 120,
      "chip": "ym2612"
    },
    {
      "channel": 2,
      "note": 52,
      "start": 75.4166,
      "duration": 0.0183,
      "velocity": 100,
      "chip": "ym2612"
    },
    {
      "channel": 0,
      "note": 80,
      "start": 75.4315,
      "duration": 0.0161,
      "velocity": 124,
      "chip": "ym2612"
    },
    {
      "channel": 4,
      "note": 69,
      "start": 75.4327,
      "duration": 0.0161,
      "velocity": 120,
      "chip": "ym2612"
    },
    {
      "channel": 3,
      "note": 76,
      "start": 75.4338,
      "duration": 0.0161,
      "velocity": 120,
      "chip": "ym2612"
    },
    {
      "channel": 2,
      "note": 52,
      "start": 75.4349,
      "duration": 0.0162,
      "velocity": 100,
      "chip": "ym2612"
    },
    {
      "channel": 0,
      "note": 77,
      "start": 75.4476,
      "duration": 0.0157,
      "velocity": 124,
      "chip": "ym2612"
    },
    {
      "channel": 4,
      "note": 69,
      "start": 75.4488,
      "duration": 0.0158,
      "velocity": 120,
      "chip": "ym2612"
    },
    {
      "channel": 3,
      "note": 76,
      "start": 75.4499,
      "duration": 0.0158,
      "velocity": 120,
      "chip": "ym2612"
    },
    {
      "channel": 2,
      "note": 52,
      "start": 75.4511,
      "duration": 0.0157,
      "velocity": 100,
      "chip": "ym2612"
    },
    {
      "channel": 0,
      "note": 75,
      "start": 75.4634,
      "duration": 0.0137,
      "velocity": 124,
      "chip": "ym2612"
    },
    {
      "channel": 4,
      "note": 69,
      "start": 75.4646,
      "duration": 0.014,
      "velocity": 120,
      "chip": "ym2612"
    },
    {
      "channel": 3,
      "note": 76,
      "start": 75.4657,
      "duration": 0.014,
      "velocity": 120,
      "chip": "ym2612"
    },
    {
      "channel": 2,
      "note": 52,
      "start": 75.4668,
      "duration": 0.0141,
      "velocity": 100,
      "chip": "ym2612"
    },
    {
      "channel": 0,
      "note": 72,
      "start": 75.4771,
      "duration": 0.0161,
      "velocity": 124,
      "chip": "ym2612"
    },
    {
      "channel": 4,
      "note": 69,
      "start": 75.4786,
      "duration": 0.0185,
      "velocity": 120,
      "chip": "ym2612"
    },
    {
      "channel": 3,
      "note": 76,
      "start": 75.4797,
      "duration": 0.0185,
      "velocity": 120,
      "chip": "ym2612"
    },
    {
      "channel": 2,
      "note": 52,
      "start": 75.4809,
      "duration": 0.0185,
      "velocity": 100,
      "chip": "ym2612"
    },
    {
      "channel": 0,
      "note": 70,
      "start": 75.4932,
      "duration": 0.0161,
      "velocity": 124,
      "chip": "ym2612"
    },
    {
      "channel": 4,
      "note": 69,
      "start": 75.4971,
      "duration": 0.0134,
      "velocity": 120,
      "chip": "ym2612"
    },
    {
      "channel": 3,
      "note": 76,
      "start": 75.4982,
      "duration": 0.0161,
      "velocity": 120,
      "chip": "ym2612"
    },
    {
      "channel": 2,
      "note": 52,
      "start": 75.4994,
      "duration": 0.0161,
      "velocity": 100,
      "chip": "ym2612"
    },
    {
      "channel": 0,
      "note": 68,
      "start": 75.5093,
      "duration": 0.0161,
      "velocity": 124,
      "chip": "ym2612"
    },
    {
      "channel": 4,
      "note": 69,
      "start": 75.5104,
      "duration": 0.0161,
      "velocity": 120,
      "chip": "ym2612"
    },
    {
      "channel": 3,
      "note": 76,
      "start": 75.5143,
      "duration": 0.0158,
      "velocity": 120,
      "chip": "ym2612"
    },
    {
      "channel": 2,
      "note": 52,
      "start": 75.5155,
      "duration": 0.0157,
      "velocity": 100,
      "chip": "ym2612"
    },
    {
      "channel": 0,
      "note": 65,
      "start": 75.5254,
      "duration": 0.0161,
      "velocity": 124,
      "chip": "ym2612"
    },
    {
      "channel": 4,
      "note": 69,
      "start": 75.5265,
      "duration": 0.0161,
      "velocity": 120,
      "chip": "ym2612"
    },
    {
      "channel": 3,
      "note": 76,
      "start": 75.5301,
      "duration": 0.0137,
      "velocity": 120,
      "chip": "ym2612"
    },
    {
      "channel": 2,
      "note": 52,
      "start": 75.5312,
      "duration": 0.0141,
      "velocity": 100,
      "chip": "ym2612"
    },
    {
      "channel": 0,
      "note": 63,
      "start": 75.5415,
      "duration": 0.0153,
      "velocity": 1,
      "chip": "ym2612"
    },
    {
      "channel": 4,
      "note": 69,
      "start": 75.5426,
      "duration": 0.0153,
      "velocity": 120,
      "chip": "ym2612"
    },
    {
      "channel": 3,
      "note": 76,
      "start": 75.5438,
      "duration": 0.0153,
      "velocity": 120,
      "chip": "ym2612"
    },
    {
      "channel": 2,
      "note": 52,
      "start": 75.5452,
      "duration": 0.0149,
      "velocity": 100,
      "chip": "ym2612"
    },
    {
      "channel": 4,
      "note": 69,
      "start": 75.558,
      "duration": 0.0153,
      "velocity": 120,
      "chip": "ym2612"
    },
    {
      "channel": 3,
      "note": 76,
      "start": 75.5591,
      "duration": 0.0152,
      "velocity": 120,
      "chip": "ym2612"
    },
    {
      "channel": 2,
      "note": 52,
      "start": 75.5602,
      "duration": 0.0153,
      "velocity": 100,
      "chip": "ym2612"
    },
    {
      "channel": 4,
      "note": 69,
      "start": 75.5732,
      "duration": 0.0163,
      "velocity": 120,
      "chip": "ym2612"
    },
    {
      "channel": 3,
      "note": 76,
      "start": 75.5743,
      "duration": 0.0166,
      "velocity": 120,
      "chip": "ym2612"
    },
    {
      "channel": 2,
      "note": 52,
      "start": 75.5754,
      "duration": 0.0169,
      "velocity": 100,
      "chip": "ym2612"
    },
    {
      "channel": 4,
      "note": 64,
      "start": 75.5896,
      "duration": 0.0159,
      "velocity": 120,
      "chip": "ym2612"
    },
    {
      "channel": 3,
      "note": 71,
      "start": 75.591,
      "duration": 0.0156,
      "velocity": 120,
      "chip": "ym2612"
    },
    {
      "channel": 2,
      "note": 52,
      "start": 75.5924,
      "duration": 0.0154,
      "velocity": 100,
      "chip": "ym2612"
    },
    {
      "channel": 4,
      "note": 64,
      "start": 75.6055,
      "duration": 0.016,
      "velocity": 120,
      "chip": "ym2612"
    },
    {
      "channel": 3,
      "note": 71,
      "start": 75.6066,
      "duration": 0.016,
      "velocity": 120,
      "chip": "ym2612"
    },
    {
      "channel": 2,
      "note": 52,
      "start": 75.6078,
      "duration": 0.0159,
      "velocity": 100,
      "chip": "ym2612"
    },
    {
      "channel": 4,
      "note": 64,
      "start": 75.6215,
      "duration": 0.0161,
      "velocity": 120,
      "chip": "ym2612"
    },
    {
      "channel": 3,
      "note": 71,
      "start": 75.6227,
      "duration": 0.0161,
      "velocity": 120,
      "chip": "ym2612"
    },
    {
      "channel": 2,
      "note": 52,
      "start": 75.6237,
      "duration": 0.0162,
      "velocity": 100,
      "chip": "ym2612"
    },
    {
      "channel": 4,
      "note": 64,
      "start": 75.6376,
      "duration": 0.0161,
      "velocity": 120,
      "chip": "ym2612"
    },
    {
      "channel": 3,
      "note": 71,
      "start": 75.6387,
      "duration": 0.0161,
      "velocity": 120,
      "chip": "ym2612"
    },
    {
      "channel": 2,
      "note": 52,
      "start": 75.6399,
      "duration": 0.0161,
      "velocity": 100,
      "chip": "ym2612"
    },
    {
      "channel": 4,
      "note": 64,
      "start": 75.6537,
      "duration": 0.0161,
      "velocity": 120,
      "chip": "ym2612"
    },
    {
      "channel": 3,
      "note": 71,
      "start": 75.6548,
      "duration": 0.0161,
      "velocity": 120,
      "chip": "ym2612"
    },
    {
      "channel": 2,
      "note": 52,
      "start": 75.656,
      "duration": 0.0161,
      "velocity": 100,
      "chip": "ym2612"
    },
    {
      "channel": 4,
      "note": 64,
      "start": 75.6698,
      "duration": 0.0161,
      "velocity": 120,
      "chip": "ym2612"
    },
    {
      "channel": 3,
      "note": 71,
      "start": 75.6709,
      "duration": 0.0161,
      "velocity": 120,
      "chip": "ym2612"
    },
    {
      "channel": 2,
      "note": 52,
      "start": 75.6721,
      "duration": 0.0161,
      "velocity": 100,
      "chip": "ym2612"
    },
    {
      "channel": 4,
      "note": 64,
      "start": 75.6859,
      "duration": 0.0161,
      "velocity": 120,
      "chip": "ym2612"
    },
    {
      "channel": 3,
      "note": 71,
      "start": 75.687,
      "duration": 0.0161,
      "velocity": 120,
      "chip": "ym2612"
    },
    {
      "channel": 2,
      "note": 52,
      "start": 75.6882,
      "duration": 0.0161,
      "velocity": 100,
      "chip": "ym2612"
    },
    {
      "channel": 4,
      "note": 64,
      "start": 75.702,
      "duration": 0.0161,
      "velocity": 120,
      "chip": "ym2612"
    },
    {
      "channel": 3,
      "note": 71,
      "start": 75.7031,
      "duration": 0.0161,
      "velocity": 120,
      "chip": "ym2612"
    },
    {
      "channel": 2,
      "note": 52,
      "start": 75.7043,
      "duration": 0.0161,
      "velocity": 100,
      "chip": "ym2612"
    },
    {
      "channel": 4,
      "note": 64,
      "start": 75.7181,
      "duration": 0.0161,
      "velocity": 120,
      "chip": "ym2612"
    },
    {
      "channel": 3,
      "note": 71,
      "start": 75.7192,
      "duration": 0.0162,
      "velocity": 120,
      "chip": "ym2612"
    },
    {
      "channel": 2,
      "note": 52,
      "start": 75.7204,
      "duration": 0.0161,
      "velocity": 100,
      "chip": "ym2612"
    },
    {
      "channel": 4,
      "note": 64,
      "start": 75.7342,
      "duration": 0.0161,
      "velocity": 120,
      "chip": "ym2612"
    },
    {
      "channel": 3,
      "note": 71,
      "start": 75.7354,
      "duration": 0.0161,
      "velocity": 120,
      "chip": "ym2612"
    },
    {
      "channel": 2,
      "note": 52,
      "start": 75.7364,
      "duration": 0.0161,
      "velocity": 100,
      "chip": "ym2612"
    },
    {
      "channel": 4,
      "note": 64,
      "start": 75.7503,
      "duration": 0.0161,
      "velocity": 120,
      "chip": "ym2612"
    },
    {
      "channel": 3,
      "note": 71,
      "start": 75.7515,
      "duration": 0.0161,
      "velocity": 120,
      "chip": "ym2612"
    },
    {
      "channel": 2,
      "note": 52,
      "start": 75.7525,
      "duration": 0.0161,
      "velocity": 100,
      "chip": "ym2612"
    },
    {
      "channel": 4,
      "note": 64,
      "start": 75.7664,
      "duration": 0.0197,
      "velocity": 120,
      "chip": "ym2612"
    },
    {
      "channel": 3,
      "note": 71,
      "start": 75.7676,
      "duration": 0.02,
      "velocity": 120,
      "chip": "ym2612"
    },
    {
      "channel": 2,
      "note": 52,
      "start": 75.7686,
      "duration": 0.0204,
      "velocity": 100,
      "chip": "ym2612"
    },
    {
      "channel": 0,
      "note": 36,
      "start": 75.7848,
      "duration": 0.0144,
      "velocity": 115,
      "chip": "ym2612"
    },
    {
      "channel": 4,
      "note": 67,
      "start": 75.7862,
      "duration": 0.0142,
      "velocity": 120,
      "chip": "ym2612"
    },
    {
      "channel": 3,
      "note": 74,
      "start": 75.7876,
      "duration": 0.0139,
      "velocity": 120,
      "chip": "ym2612"
    },
    {
      "channel": 2,
      "note": 52,
      "start": 75.789,
      "duration": 0.0137,
      "velocity": 100,
      "chip": "ym2612"
    },
    {
      "channel": 0,
      "note": 36,
      "start": 75.7992,
      "duration": 0.016,
      "velocity": 115,
      "chip": "ym2612"
    },
    {
      "channel": 4,
      "note": 67,
      "start": 75.8004,
      "duration": 0.016,
      "velocity": 120,
      "chip": "ym2612"
    },
    {
      "channel": 3,
      "note": 74,
      "start": 75.8015,
      "duration": 0.016,
      "velocity": 120,
      "chip": "ym2612"
    },
    {
      "channel": 2,
      "note": 52,
      "start": 75.8027,
      "duration": 0.0159,
      "velocity": 100,
      "chip": "ym2612"
    },
    {
      "channel": 0,
      "note": 37,
      "start": 75.8152,
      "duration": 0.0168,
      "velocity": 115,
      "chip": "ym2612"
    },
    {
      "channel": 4,
      "note": 67,
      "start": 75.8163,
      "duration": 0.0168,
      "velocity": 120,
      "chip": "ym2612"
    },
    {
      "channel": 3,
      "note": 74,
      "start": 75.8175,
      "duration": 0.0169,
      "velocity": 120,
      "chip": "ym2612"
    },
    {
      "channel": 2,
      "note": 52,
      "start": 75.8186,
      "duration": 0.0168,
      "velocity": 100,
      "chip": "ym2612"
    },
    {
      "channel": 0,
      "note": 37,
      "start": 75.832,
      "duration": 0.0167,
      "velocity": 115,
      "chip": "ym2612"
    },
    {
      "channel": 4,
      "note": 67,
      "start": 75.8332,
      "duration": 0.0167,
      "velocity": 120,
      "chip": "ym2612"
    },
    {
      "channel": 3,
      "note": 74,
      "start": 75.8344,
      "duration": 0.0167,
      "velocity": 120,
      "chip": "ym2612"
    },
    {
      "channel": 2,
      "note": 52,
      "start": 75.8354,
      "duration": 0.0167,
      "velocity": 100,
      "chip": "ym2612"
    },
    {
      "channel": 0,
      "note": 38,
      "start": 75.8487,
      "duration": 0.0163,
      "velocity": 115,
      "chip": "ym2612"
    },
    {
      "channel": 4,
      "note": 67,
      "start": 75.8499,
      "duration": 0.0163,
      "velocity": 120,
      "chip": "ym2612"
    },
    {
      "channel": 3,
      "note": 74,
      "start": 75.851,
      "duration": 0.0163,
      "velocity": 120,
      "chip": "ym2612"
    },
    {
      "channel": 2,
      "note": 52,
      "start": 75.8522,
      "duration": 0.0163,
      "velocity": 100,
      "chip": "ym2612"
    },
    {
      "channel": 0,
      "note": 38,
      "start": 75.865,
      "duration": 0.0147,
      "velocity": 115,
      "chip": "ym2612"
    },
    {
      "channel": 4,
      "note": 67,
      "start": 75.8661,
      "duration": 0.0147,
      "velocity": 120,
      "chip": "ym2612"
    },
    {
      "channel": 3,
      "note": 74,
      "start": 75.8673,
      "duration": 0.0147,
      "velocity": 120,
      "chip": "ym2612"
    },
    {
      "channel": 2,
      "note": 52,
      "start": 75.8684,
      "duration": 0.0147,
      "velocity": 100,
      "chip": "ym2612"
    },
    {
      "channel": 0,
      "note": 39,
      "start": 75.8797,
      "duration": 0.0187,
      "velocity": 115,
      "chip": "ym2612"
    },
    {
      "channel": 4,
      "note": 67,
      "start": 75.8809,
      "duration": 0.0188,
      "velocity": 120,
      "chip": "ym2612"
    },
    {
      "channel": 3,
      "note": 74,
      "start": 75.882,
      "duration": 0.0188,
      "velocity": 120,
      "chip": "ym2612"
    },
    {
      "channel": 2,
      "note": 52,
      "start": 75.8832,
      "duration": 0.0187,
      "velocity": 100,
      "chip": "ym2612"
    },
    {
      "channel": 0,
      "note": 39,
      "start": 75.8984,
      "duration": 0.0161,
      "velocity": 115,
      "chip": "ym2612"
    },
    {
      "channel": 4,
      "note": 67,
      "start": 75.8996,
      "duration": 0.0161,
      "velocity": 120,
      "chip": "ym2612"
    },
    {
      "channel": 3,
      "note": 74,
      "start": 75.9008,
      "duration": 0.0161,
      "velocity": 120,
      "chip": "ym2612"
    },
    {
      "channel": 2,
      "note": 52,
      "start": 75.9018,
      "duration": 0.0162,
      "velocity": 100,
      "chip": "ym2612"
    },
    {
      "channel": 0,
      "note": 40,
      "start": 75.9146,
      "duration": 0.0157,
      "velocity": 115,
      "chip": "ym2612"
    },
    {
      "channel": 4,
      "note": 67,
      "start": 75.9157,
      "duration": 0.0157,
      "velocity": 120,
      "chip": "ym2612"
    },
    {
      "channel": 3,
      "note": 74,
      "start": 75.9168,
      "duration": 0.0157,
      "velocity": 120,
      "chip": "ym2612"
    },
    {
      "channel": 2,
      "note": 52,
      "start": 75.918,
      "duration": 0.0157,
      "velocity": 100,
      "chip": "ym2612"
    },
    {
      "channel": 0,
      "note": 40,
      "start": 75.9303,
      "duration": 0.0139,
      "velocity": 115,
      "chip": "ym2612"
    },
    {
      "channel": 4,
      "note": 67,
      "start": 75.9314,
      "duration": 0.0141,
      "velocity": 120,
      "chip": "ym2612"
    },
    {
      "channel": 3,
      "note": 74,
      "start": 75.9326,
      "duration": 0.0141,
      "velocity": 120,
      "chip": "ym2612"
    },
    {
      "channel": 2,
      "note": 52,
      "start": 75.9337,
      "duration": 0.0141,
      "velocity": 100,
      "chip": "ym2612"
    },
    {
      "channel": 0,
      "note": 40,
      "start": 75.9441,
      "duration": 0.016,
      "velocity": 115,
      "chip": "ym2612"
    },
    {
      "channel": 4,
      "note": 67,
      "start": 75.9455,
      "duration": 0.0185,
      "velocity": 120,
      "chip": "ym2612"
    },
    {
      "channel": 3,
      "note": 74,
      "start": 75.9466,
      "duration": 0.0185,
      "velocity": 120,
      "chip": "ym2612"
    },
    {
      "channel": 2,
      "note": 52,
      "start": 75.9478,
      "duration": 0.0185,
      "velocity": 100,
      "chip": "ym2612"
    },
    {
      "channel": 0,
      "note": 41,
      "start": 75.9601,
      "duration": 0.0161,
      "velocity": 115,
      "chip": "ym2612"
    },
    {
      "channel": 4,
      "note": 67,
      "start": 75.964,
      "duration": 0.0163,
      "velocity": 120,
      "chip": "ym2612"
    },
    {
      "channel": 3,
      "note": 74,
      "start": 75.9651,
      "duration": 0.0166,
      "velocity": 120,
      "chip": "ym2612"
    },
    {
      "channel": 2,
      "note": 52,
      "start": 75.9663,
      "duration": 0.0169,
      "velocity": 100,
      "chip": "ym2612"
    },
    {
      "channel": 0,
      "note": 41,
      "start": 75.9762,
      "duration": 0.0161,
      "velocity": 115,
      "chip": "ym2612"
    },
    {
      "channel": 4,
      "note": 69,
      "start": 75.9804,
      "duration": 0.0131,
      "velocity": 120,
      "chip": "ym2612"
    },
    {
      "channel": 3,
      "note": 76,
      "start": 75.9818,
      "duration": 0.0153,
      "velocity": 120,
      "chip": "ym2612"
    },
    {
      "channel": 2,
      "note": 52,
      "start": 75.9832,
      "duration": 0.0151,
      "velocity": 100,
      "chip": "ym2612"
    },
    {
      "channel": 0,
      "note": 42,
      "start": 75.9923,
      "duration": 0.0161,
      "velocity": 115,
      "chip": "ym2612"
    },
    {
      "channel": 4,
      "note": 69,
      "start": 75.9935,
      "duration": 0.016,
      "velocity": 120,
      "chip": "ym2612"
    },
    {
      "channel": 3,
      "note": 76,
      "start": 75.9971,
      "duration": 0.0137,
      "velocity": 120,
      "chip": "ym2612"
    },
    {
      "channel": 2,
      "note": 52,
      "start": 75.9983,
      "duration": 0.0139,
      "velocity": 100,
      "chip": "ym2612"
    },
    {
      "channel": 0,
      "note": 42,
      "start": 76.0084,
      "duration": 0.0161,
      "velocity": 115,
      "chip": "ym2612"
    },
    {
      "channel": 4,
      "note": 69,
      "start": 76.0095,
      "duration": 0.0161,
      "velocity": 120,
      "chip": "ym2612"
    },
    {
      "channel": 3,
      "note": 76,
      "start": 76.0108,
      "duration": 0.016,
      "velocity": 120,
      "chip": "ym2612"
    },
    {
      "channel": 2,
      "note": 52,
      "start": 76.0122,
      "duration": 0.0185,
      "velocity": 100,
      "chip": "ym2612"
    },
    {
      "channel": 0,
      "note": 43,
      "start": 76.0245,
      "duration": 0.0161,
      "velocity": 115,
      "chip": "ym2612"
    },
    {
      "channel": 4,
      "note": 69,
      "start": 76.0256,
      "duration": 0.0162,
      "velocity": 120,
      "chip": "ym2612"
    },
    {
      "channel": 3,
      "note": 76,
      "start": 76.0268,
      "duration": 0.0161,
      "velocity": 120,
      "chip": "ym2612"
    },
    {
      "channel": 2,
      "note": 52,
      "start": 76.0307,
      "duration": 0.0161,
      "velocity": 100,
      "chip": "ym2612"
    },
    {
      "channel": 0,
      "note": 43,
      "start": 76.0406,
      "duration": 0.0161,
      "velocity": 115,
      "chip": "ym2612"
    },
    {
      "channel": 4,
      "note": 69,
      "start": 76.0418,
      "duration": 0.0161,
      "velocity": 120,
      "chip": "ym2612"
    },
    {
      "channel": 3,
      "note": 76,
      "start": 76.0429,
      "duration": 0.0161,
      "velocity": 120,
      "chip": "ym2612"
    },
    {
      "channel": 2,
      "note": 52,
      "start": 76.0468,
      "duration": 0.0134,
      "velocity": 100,
      "chip": "ym2612"
    },
    {
      "channel": 0,
      "note": 44,
      "start": 76.0567,
      "duration": 0.0162,
      "velocity": 115,
      "chip": "ym2612"
    },
    {
      "channel": 4,
      "note": 69,
      "start": 76.0579,
      "duration": 0.0161,
      "velocity": 120,
      "chip": "ym2612"
    },
    {
      "channel": 3,
      "note": 76,
      "start": 76.059,
      "duration": 0.0162,
      "velocity": 120,
      "chip": "ym2612"
    },
    {
      "channel": 2,
      "note": 52,
      "start": 76.0601,
      "duration": 0.0161,
      "velocity": 100,
      "chip": "ym2612"
    },
    {
      "channel": 0,
      "note": 44,
      "start": 76.0728,
      "duration": 0.0161,
      "velocity": 115,
      "chip": "ym2612"
    },
    {
      "channel": 4,
      "note": 69,
      "start": 76.074,
      "duration": 0.0161,
      "velocity": 120,
      "chip": "ym2612"
    },
    {
      "channel": 3,
      "note": 76,
      "start": 76.0751,
      "duration": 0.0161,
      "velocity": 120,
      "chip": "ym2612"
    },
    {
      "channel": 2,
      "note": 52,
      "start": 76.0762,
      "duration": 0.0161,
      "velocity": 100,
      "chip": "ym2612"
    },
    {
      "channel": 0,
      "note": 44,
      "start": 76.0889,
      "duration": 0.0161,
      "velocity": 115,
      "chip": "ym2612"
    },
    {
      "channel": 4,
      "note": 69,
      "start": 76.0901,
      "duration": 0.0161,
      "velocity": 120,
      "chip": "ym2612"
    },
    {
      "channel": 3,
      "note": 76,
      "start": 76.0912,
      "duration": 0.0161,
      "velocity": 120,
      "chip": "ym2612"
    },
    {
      "channel": 2,
      "note": 52,
      "start": 76.0923,
      "duration": 0.0162,
      "velocity": 100,
      "chip": "ym2612"
    },
    {
      "channel": 0,
      "note": 45,
      "start": 76.105,
      "duration": 0.0161,
      "velocity": 115,
      "chip": "ym2612"
    },
    {
      "channel": 4,
      "note": 69,
      "start": 76.1062,
      "duration": 0.0161,
      "velocity": 120,
      "chip": "ym2612"
    },
    {
      "channel": 3,
      "note": 76,
      "start": 76.1073,
      "duration": 0.0161,
      "velocity": 120,
      "chip": "ym2612"
    },
    {
      "channel": 2,
      "note": 52,
      "start": 76.1085,
      "duration": 0.0161,
      "velocity": 100,
      "chip": "ym2612"
    },
    {
      "channel": 0,
      "note": 45,
      "start": 76.1211,
      "duration": 0.0161,
      "velocity": 115,
      "chip": "ym2612"
    },
    {
      "channel": 4,
      "note": 69,
      "start": 76.1223,
      "duration": 0.0161,
      "velocity": 120,
      "chip": "ym2612"
    },
    {
      "channel": 3,
      "note": 76,
      "start": 76.1234,
      "duration": 0.0161,
      "velocity": 120,
      "chip": "ym2612"
    },
    {
      "channel": 2,
      "note": 52,
      "start": 76.1246,
      "duration": 0.0161,
      "velocity": 100,
      "chip": "ym2612"
    },
    {
      "channel": 0,
      "note": 46,
      "start": 76.1372,
      "duration": 0.0161,
      "velocity": 115,
      "chip": "ym2612"
    },
    {
      "channel": 4,
      "note": 69,
      "start": 76.1384,
      "duration": 0.0161,
      "velocity": 120,
      "chip": "ym2612"
    },
    {
      "channel": 3,
      "note": 76,
      "start": 76.1395,
      "duration": 0.0161,
      "velocity": 120,
      "chip": "ym2612"
    },
    {
      "channel": 2,
      "note": 52,
      "start": 76.1407,
      "duration": 0.0161,
      "velocity": 100,
      "chip": "ym2612"
    },
    {
      "channel": 0,
      "note": 46,
      "start": 76.1533,
      "duration": 0.0179,
      "velocity": 124,
      "chip": "ym2612"
    },
    {
      "channel": 4,
      "note": 69,
      "start": 76.1544,
      "duration": 0.0181,
      "velocity": 120,
      "chip": "ym2612"
    },
    {
      "channel": 3,
      "note": 76,
      "start": 76.1556,
      "duration": 0.0184,
      "velocity": 120,
      "chip": "ym2612"
    },
    {
      "channel": 2,
      "note": 52,
      "start": 76.1567,
      "duration": 0.0187,
      "velocity": 100,
      "chip": "ym2612"
    },
    {
      "channel": 0,
      "note": 84,
      "start": 76.1712,
      "duration": 0.0144,
      "velocity": 124,
      "chip": "ym2612"
    },
    {
      "channel": 4,
      "note": 64,
      "start": 76.1727,
      "duration": 0.0141,
      "velocity": 120,
      "chip": "ym2612"
    },
    {
      "channel": 3,
      "note": 71,
      "start": 76.174,
      "duration": 0.014,
      "velocity": 120,
      "chip": "ym2612"
    },
    {
      "channel": 2,
      "note": 52,
      "start": 76.1754,
      "duration": 0.0137,
      "velocity": 100,
      "chip": "ym2612"
    },
    {
      "channel": 0,
      "note": 82,
      "start": 76.1856,
      "duration": 0.0161,
      "velocity": 124,
      "chip": "ym2612"
    },
    {
      "channel": 4,
      "note": 64,
      "start": 76.1868,
      "duration": 0.016,
      "velocity": 120,
      "chip": "ym2612"
    },
    {
      "channel": 3,
      "note": 71,
      "start": 76.188,
      "duration": 0.016,
      "velocity": 120,
      "chip": "ym2612"
    },
    {
      "channel": 2,
      "note": 52,
      "start": 76.1892,
      "duration": 0.0159,
      "velocity": 100,
      "chip": "ym2612"
    },
    {
      "channel": 0,
      "note": 80,
      "start": 76.2017,
      "duration": 0.0161,
      "velocity": 124,
      "chip": "ym2612"
    },
    {
      "channel": 4,
      "note": 64,
      "start": 76.2028,
      "duration": 0.0161,
      "velocity": 120,
      "chip": "ym2612"
    },
    {
      "channel": 3,
      "note": 71,
      "start": 76.2039,
      "duration": 0.0161,
      "velocity": 120,
      "chip": "ym2612"
    },
    {
      "channel": 2,
      "note": 52,
      "start": 76.2051,
      "duration": 0.0161,
      "velocity": 100,
      "chip": "ym2612"
    },
    {
      "channel": 0,
      "note": 77,
      "start": 76.2178,
      "duration": 0.0161,
      "velocity": 124,
      "chip": "ym2612"
    },
    {
      "channel": 4,
      "note": 64,
      "start": 76.2189,
      "duration": 0.0161,
      "velocity": 120,
      "chip": "ym2612"
    },
    {
      "channel": 3,
      "note": 71,
      "start": 76.22,
      "duration": 0.0161,
      "velocity": 120,
      "chip": "ym2612"
    },
    {
      "channel": 2,
      "note": 52,
      "start": 76.2212,
      "duration": 0.0161,
      "velocity": 100,
      "chip": "ym2612"
    },
    {
      "channel": 0,
      "note": 75,
      "start": 76.2338,
      "duration": 0.0161,
      "velocity": 124,
      "chip": "ym2612"
    },
    {
      "channel": 4,
      "note": 64,
      "start": 76.235,
      "duration": 0.0161,
      "velocity": 120,
      "chip": "ym2612"
    },
    {
      "channel": 3,
      "note": 71,
      "start": 76.2361,
      "duration": 0.0161,
      "velocity": 120,
      "chip": "ym2612"
    },
    {
      "channel": 2,
      "note": 52,
      "start": 76.2373,
      "duration": 0.0161,
      "velocity": 100,
      "chip": "ym2612"
    },
    {
      "channel": 0,
      "note": 72,
      "start": 76.2499,
      "duration": 0.0161,
      "velocity": 124,
      "chip": "ym2612"
    },
    {
      "channel": 4,
      "note": 64,
      "start": 76.2511,
      "duration": 0.0161,
      "velocity": 120,
      "chip": "ym2612"
    },
    {
      "channel": 3,
      "note": 71,
      "start": 76.2522,
      "duration": 0.0161,
      "velocity": 120,
      "chip": "ym2612"
    },
    {
      "channel": 2,
      "note": 52,
      "start": 76.2534,
      "duration": 0.0161,
      "velocity": 100,
      "chip": "ym2612"
    },
    {
      "channel": 0,
      "note": 70,
      "start": 76.266,
      "duration": 0.0161,
      "velocity": 124,
      "chip": "ym2612"
    },
    {
      "channel": 4,
      "note": 64,
      "start": 76.2672,
      "duration": 0.0161,
      "velocity": 120,
      "chip": "ym2612"
    },
    {
      "channel": 3,
      "note": 71,
      "start": 76.2683,
      "duration": 0.0161,
      "velocity": 120,
      "chip": "ym2612"
    },
    {
      "channel": 2,
      "note": 52,
      "start": 76.2695,
      "duration": 0.0161,
      "velocity": 100,
      "chip": "ym2612"
    },
    {
      "channel": 0,
      "note": 68,
      "start": 76.2821,
      "duration": 0.0166,
      "velocity": 124,
      "chip": "ym2612"
    },
    {
      "channel": 4,
      "note": 64,
      "start": 76.2833,
      "duration": 0.0166,
      "velocity": 120,
      "chip": "ym2612"
    },
    {
      "channel": 3,
      "note": 71,
      "start": 76.2844,
      "duration": 0.0166,
      "velocity": 120,
      "chip": "ym2612"
    },
    {
      "channel": 2,
      "note": 52,
      "start": 76.2856,
      "duration": 0.0166,
      "velocity": 100,
      "chip": "ym2612"
    },
    {
      "channel": 0,
      "note": 65,
      "start": 76.2987,
      "duration": 0.0167,
      "velocity": 124,
      "chip": "ym2612"
    },
    {
      "channel": 4,
      "note": 64,
      "start": 76.2999,
      "duration": 0.0167,
      "velocity": 120,
      "chip": "ym2612"
    },
    {
      "channel": 3,
      "note": 71,
      "start": 76.301,
      "duration": 0.0167,
      "velocity": 120,
      "chip": "ym2612"
    },
    {
      "channel": 2,
      "note": 52,
      "start": 76.3021,
      "duration": 0.0167,
      "velocity": 100,
      "chip": "ym2612"
    },
    {
      "channel": 0,
      "note": 63,
      "start": 76.3154,
      "duration": 0.0155,
      "velocity": 1,
      "chip": "ym2612"
    },
    {
      "channel": 4,
      "note": 64,
      "start": 76.3165,
      "duration": 0.0155,
      "velocity": 120,
      "chip": "ym2612"
    },
    {
      "channel": 3,
      "note": 71,
      "start": 76.3177,
      "duration": 0.0155,
      "velocity": 120,
      "chip": "ym2612"
    },
    {
      "channel": 2,
      "note": 52,
      "start": 76.3188,
      "duration": 0.0155,
      "velocity": 100,
      "chip": "ym2612"
    },
    {
      "channel": 4,
      "note": 64,
      "start": 76.332,
      "duration": 0.0141,
      "velocity": 120,
      "chip": "ym2612"
    },
    {
      "channel": 3,
      "note": 71,
      "start": 76.3332,
      "duration": 0.014,
      "velocity": 120,
      "chip": "ym2612"
    },
    {
      "channel": 2,
      "note": 52,
      "start": 76.3343,
      "duration": 0.014,
      "velocity": 100,
      "chip": "ym2612"
    },
    {
      "channel": 4,
      "note": 64,
      "start": 76.3461,
      "duration": 0.0224,
      "velocity": 120,
      "chip": "ym2612"
    },
    {
      "channel": 3,
      "note": 71,
      "start": 76.3472,
      "duration": 0.0227,
      "velocity": 120,
      "chip": "ym2612"
    },
    {
      "channel": 2,
      "note": 52,
      "start": 76.3483,
      "duration": 0.0231,
      "velocity": 100,
      "chip": "ym2612"
    },
    {
      "channel": 0,
      "note": 36,
      "start": 76.3672,
      "duration": 0.0144,
      "velocity": 115,
      "chip": "ym2612"
    },
    {
      "channel": 4,
      "note": 67,
      "start": 76.3686,
      "duration": 0.0142,
      "velocity": 120,
      "chip": "ym2612"
    },
    {
      "channel": 3,
      "note": 74,
      "start": 76.37,
      "duration": 0.014,
      "velocity": 120,
      "chip": "ym2612"
    },
    {
      "channel": 2,
      "note": 52,
      "start": 76.3714,
      "duration": 0.0137,
      "velocity": 100,
      "chip": "ym2612"
    },
    {
      "channel": 0,
      "note": 36,
      "start": 76.3815,
      "duration": 0.0156,
      "velocity": 115,
      "chip": "ym2612"
    },
    {
      "channel": 4,
      "note": 67,
      "start": 76.3828,
      "duration": 0.0156,
      "velocity": 120,
      "chip": "ym2612"
    },
    {
      "channel": 3,
      "note": 74,
      "start": 76.384,
      "duration": 0.0155,
      "velocity": 120,
      "chip": "ym2612"
    },
    {
      "channel": 2,
      "note": 52,
      "start": 76.3851,
      "duration": 0.0155,
      "velocity": 100,
      "chip": "ym2612"
    },
    {
      "channel": 0,
      "note": 37,
      "start": 76.3972,
      "duration": 0.0141,
      "velocity": 115,
      "chip": "ym2612"
    },
    {
      "channel": 4,
      "note": 67,
      "start": 76.3983,
      "duration": 0.0141,
      "velocity": 120,
      "chip": "ym2612"
    },
    {
      "channel": 3,
      "note": 74,
      "start": 76.3995,
      "duration": 0.0141,
      "velocity": 120,
      "chip": "ym2612"
    },
    {
      "channel": 2,
      "note": 52,
      "start": 76.4006,
      "duration": 0.0141,
      "velocity": 100,
      "chip": "ym2612"
    },
    {
      "channel": 0,
      "note": 37,
      "start": 76.4112,
      "duration": 0.0158,
      "velocity": 115,
      "chip": "ym2612"
    },
    {
      "channel": 4,
      "note": 67,
      "start": 76.4124,
      "duration": 0.0185,
      "velocity": 120,
      "chip": "ym2612"
    },
    {
      "channel": 3,
      "note": 74,
      "start": 76.4135,
      "duration": 0.0185,
      "velocity": 120,
      "chip": "ym2612"
    },
    {
      "channel": 2,
      "note": 52,
      "start": 76.4147,
      "duration": 0.0185,
      "velocity": 100,
      "chip": "ym2612"
    },
    {
      "channel": 0,
      "note": 38,
      "start": 76.427,
      "duration": 0.0161,
      "velocity": 115,
      "chip": "ym2612"
    },
    {
      "channel": 4,
      "note": 67,
      "start": 76.4309,
      "duration": 0.0161,
      "velocity": 120,
      "chip": "ym2612"
    },
    {
      "channel": 3,
      "note": 74,
      "start": 76.4321,
      "duration": 0.0161,
      "velocity": 120,
      "chip": "ym2612"
    },
    {
      "channel": 2,
      "note": 52,
      "start": 76.4332,
      "duration": 0.0161,
      "velocity": 100,
      "chip": "ym2612"
    },
    {
      "channel": 0,
      "note": 38,
      "start": 76.4431,
      "duration": 0.0161,
      "velocity": 115,
      "chip": "ym2612"
    },
    {
      "channel": 4,
      "note": 67,
      "start": 76.447,
      "duration": 0.0134,
      "velocity": 120,
      "chip": "ym2612"
    },
    {
      "channel": 3,
      "note": 74,
      "start": 76.4482,
      "duration": 0.0158,
      "velocity": 120,
      "chip": "ym2612"
    },
    {
      "channel": 2,
      "note": 52,
      "start": 76.4493,
      "duration": 0.0157,
      "velocity": 100,
      "chip": "ym2612"
    },
    {
      "channel": 0,
      "note": 39,
      "start": 76.4592,
      "duration": 0.0161,
      "velocity": 115,
      "chip": "ym2612"
    },
    {
      "channel": 4,
      "note": 67,
      "start": 76.4604,
      "duration": 0.0161,
      "velocity": 120,
      "chip": "ym2612"
    },
    {
      "channel": 3,
      "note": 74,
      "start": 76.4639,
      "duration": 0.014,
      "velocity": 120,
      "chip": "ym2612"
    },
    {
      "channel": 2,
      "note": 52,
      "start": 76.465,
      "duration": 0.0141,
      "velocity": 100,
      "chip": "ym2612"
    },
    {
      "channel": 0,
      "note": 39,
      "start": 76.4753,
      "duration": 0.0161,
      "velocity": 115,
      "chip": "ym2612"
    },
    {
      "channel": 4,
      "note": 67,
      "start": 76.4765,
      "duration": 0.0161,
      "velocity": 120,
      "chip": "ym2612"
    },
    {
      "channel": 3,
      "note": 74,
      "start": 76.4779,
      "duration": 0.0158,
      "velocity": 120,
      "chip": "ym2612"
    },
    {
      "channel": 2,
      "note": 52,
      "start": 76.4791,
      "duration": 0.0185,
      "velocity": 100,
      "chip": "ym2612"
    },
    {
      "channel": 0,
      "note": 40,
      "start": 76.4914,
      "duration": 0.0161,
      "velocity": 115,
      "chip": "ym2612"
    },
    {
      "channel": 4,
      "note": 67,
      "start": 76.4926,
      "duration": 0.0161,
      "velocity": 120,
      "chip": "ym2612"
    },
    {
      "channel": 3,
      "note": 74,
      "start": 76.4937,
      "duration": 0.0162,
      "velocity": 120,
      "chip": "ym2612"
    },
    {
      "channel": 2,
      "note": 52,
      "start": 76.4976,
      "duration": 0.0162,
      "velocity": 100,
      "chip": "ym2612"
    },
    {
      "channel": 0,
      "note": 40,
      "start": 76.5075,
      "duration": 0.0162,
      "velocity": 115,
      "chip": "ym2612"
    },
    {
      "channel": 4,
      "note": 67,
      "start": 76.5087,
      "duration": 0.0161,
      "velocity": 120,
      "chip": "ym2612"
    },
    {
      "channel": 3,
      "note": 74,
      "start": 76.5099,
      "duration": 0.0161,
      "velocity": 120,
      "chip": "ym2612"
    },
    {
      "channel": 2,
      "note": 52,
      "start": 76.5137,
      "duration": 0.0134,
      "velocity": 100,
      "chip": "ym2612"
    },
    {
      "channel": 0,
      "note": 40,
      "start": 76.5237,
      "duration": 0.0161,
      "velocity": 115,
      "chip": "ym2612"
    },
    {
      "channel": 4,
      "note": 67,
      "start": 76.5248,
      "duration": 0.0161,
      "velocity": 120,
      "chip": "ym2612"
    },
    {
      "channel": 3,
      "note": 74,
      "start": 76.526,
      "duration": 0.0161,
      "velocity": 120,
      "chip": "ym2612"
    },
    {
      "channel": 2,
      "note": 52,
      "start": 76.5271,
      "duration": 0.016,
      "velocity": 100,
      "chip": "ym2612"
    },
    {
      "channel": 0,
      "note": 41,
      "start": 76.5398,
      "duration": 0.0179,
      "velocity": 115,
      "chip": "ym2612"
    },
    {
      "channel": 4,
      "note": 67,
      "start": 76.5409,
      "duration": 0.0181,
      "velocity": 120,
      "chip": "ym2612"
    },
    {
      "channel": 3,
      "note": 74,
      "start": 76.542,
      "duration": 0.0184,
      "velocity": 120,
      "chip": "ym2612"
    },
    {
      "channel": 2,
      "note": 52,
      "start": 76.5431,
      "duration": 0.0215,
      "velocity": 100,
      "chip": "ym2612"
    },
    {
      "channel": 0,
      "note": 36,
      "start": 76.5576,
      "duration": 0.0144,
      "velocity": 115,
      "chip": "ym2612"
    },
    {
      "channel": 4,
      "note": 69,
      "start": 76.5591,
      "duration": 0.0141,
      "velocity": 120,
      "chip": "ym2612"
    },
    {
      "channel": 3,
      "note": 76,
      "start": 76.5605,
      "duration": 0.0139,
      "velocity": 120,
      "chip": "ym2612"
    },
    {
      "channel": 2,
      "note": 52,
      "start": 76.5647,
      "duration": 0.0109,
      "velocity": 100,
      "chip": "ym2612"
    },
    {
      "channel": 0,
      "note": 36,
      "start": 76.572,
      "duration": 0.016,
      "velocity": 115,
      "chip": "ym2612"
    },
    {
      "channel": 4,
      "note": 69,
      "start": 76.5732,
      "duration": 0.016,
      "velocity": 120,
      "chip": "ym2612"
    },
    {
      "channel": 3,
      "note": 76,
      "start": 76.5744,
      "duration": 0.0159,
      "velocity": 120,
      "chip": "ym2612"
    },
    {
      "channel": 2,
      "note": 52,
      "start": 76.5756,
      "duration": 0.0159,
      "velocity": 100,
      "chip": "ym2612"
    },
    {
      "channel": 0,
      "note": 37,
      "start": 76.588,
      "duration": 0.0161,
      "velocity": 115,
      "chip": "ym2612"
    },
    {
      "channel": 4,
      "note": 69,
      "start": 76.5892,
      "duration": 0.0161,
      "velocity": 120,
      "chip": "ym2612"
    },
    {
      "channel": 3,
      "note": 76,
      "start": 76.5903,
      "duration": 0.0161,
      "velocity": 120,
      "chip": "ym2612"
    },
    {
      "channel": 2,
      "note": 52,
      "start": 76.5915,
      "duration": 0.0161,
      "velocity": 100,
      "chip": "ym2612"
    },
    {
      "channel": 0,
      "note": 37,
      "start": 76.6041,
      "duration": 0.0161,
      "velocity": 115,
      "chip": "ym2612"
    },
    {
      "channel": 4,
      "note": 69,
      "start": 76.6053,
      "duration": 0.0161,
      "velocity": 120,
      "chip": "ym2612"
    },
    {
      "channel": 3,
      "note": 76,
      "start": 76.6064,
      "duration": 0.0161,
      "velocity": 120,
      "chip": "ym2612"
    },
    {
      "channel": 2,
      "note": 52,
      "start": 76.6076,
      "duration": 0.0161,
      "velocity": 100,
      "chip": "ym2612"
    },
    {
      "channel": 0,
      "note": 38,
      "start": 76.6202,
      "duration": 0.0161,
      "velocity": 115,
      "chip": "ym2612"
    },
    {
      "channel": 4,
      "note": 69,
      "start": 76.6214,
      "duration": 0.0161,
      "velocity": 120,
      "chip": "ym2612"
    },
    {
      "channel": 3,
      "note": 76,
      "start": 76.6225,
      "duration": 0.0161,
      "velocity": 120,
      "chip": "ym2612"
    },
    {
      "channel": 2,
      "note": 52,
      "start": 76.6237,
      "duration": 0.0161,
      "velocity": 100,
      "chip": "ym2612"
    },
    {
      "channel": 0,
      "note": 38,
      "start": 76.6363,
      "duration": 0.0161,
      "velocity": 115,
      "chip": "ym2612"
    },
    {
      "channel": 4,
      "note": 69,
      "start": 76.6375,
      "duration": 0.0161,
      "velocity": 120,
      "chip": "ym2612"
    },
    {
      "channel": 3,
      "note": 76,
      "start": 76.6386,
      "duration": 0.0161,
      "velocity": 120,
      "chip": "ym2612"
    },
    {
      "channel": 2,
      "note": 52,
      "start": 76.6398,
      "duration": 0.0161,
      "velocity": 100,
      "chip": "ym2612"
    },
    {
      "channel": 0,
      "note": 39,
      "start": 76.6525,
      "duration": 0.0161,
      "velocity": 115,
      "chip": "ym2612"
    },
    {
      "channel": 4,
      "note": 69,
      "start": 76.6536,
      "duration": 0.0161,
      "velocity": 120,
      "chip": "ym2612"
    },
    {
      "channel": 3,
      "note": 76,
      "start": 76.6548,
      "duration": 0.0161,
      "velocity": 120,
      "chip": "ym2612"
    },
    {
      "channel": 2,
      "note": 52,
      "start": 76.6559,
      "duration": 0.0161,
      "velocity": 100,
      "chip": "ym2612"
    },
    {
      "channel": 0,
      "note": 39,
      "start": 76.6686,
      "duration": 0.0161,
      "velocity": 115,
      "chip": "ym2612"
    },
    {
      "channel": 4,
      "note": 69,
      "start": 76.6697,
      "duration": 0.0161,
      "velocity": 120,
      "chip": "ym2612"
    },
    {
      "channel": 3,
      "note": 76,
      "start": 76.6709,
      "duration": 0.0161,
      "velocity": 120,
      "chip": "ym2612"
    },
    {
      "channel": 2,
      "note": 52,
      "start": 76.672,
      "duration": 0.0161,
      "velocity": 100,
      "chip": "ym2612"
    },
    {
      "channel": 0,
      "note": 40,
      "start": 76.6847,
      "duration": 0.0161,
      "velocity": 115,
      "chip": "ym2612"
    },
    {
      "channel": 4,
      "note": 69,
      "start": 76.6858,
      "duration": 0.0161,
      "velocity": 120,
      "chip": "ym2612"
    },
    {
      "channel": 3,
      "note": 76,
      "start": 76.687,
      "duration": 0.0161,
      "velocity": 120,
      "chip": "ym2612"
    },
    {
      "channel": 2,
      "note": 52,
      "start": 76.6881,
      "duration": 0.0161,
      "velocity": 100,
      "chip": "ym2612"
    },
    {
      "channel": 0,
      "note": 40,
      "start": 76.7008,
      "duration": 0.0161,
      "velocity": 115,
      "chip": "ym2612"
    },
    {
      "channel": 4,
      "note": 69,
      "start": 76.7019,
      "duration": 0.0161,
      "velocity": 120,
      "chip": "ym2612"
    },
    {
      "channel": 3,
      "note": 76,
      "start": 76.7031,
      "duration": 0.0161,
      "velocity": 120,
      "chip": "ym2612"
    },
    {
      "channel": 2,
      "note": 52,
      "start": 76.7042,
      "duration": 0.0161,
      "velocity": 100,
      "chip": "ym2612"
    },
    {
      "channel": 0,
      "note": 40,
      "start": 76.7168,
      "duration": 0.0161,
      "velocity": 115,
      "chip": "ym2612"
    },
    {
      "channel": 4,
      "note": 69,
      "start": 76.718,
      "duration": 0.0161,
      "velocity": 120,
      "chip": "ym2612"
    },
    {
      "channel": 3,
      "note": 76,
      "start": 76.7191,
      "duration": 0.0161,
      "velocity": 120,
      "chip": "ym2612"
    },
    {
      "channel": 2,
      "note": 52,
      "start": 76.7203,
      "duration": 0.0161,
      "velocity": 100,
      "chip": "ym2612"
    },
    {
      "channel": 0,
      "note": 41,
      "start": 76.7329,
      "duration": 0.0179,
      "velocity": 115,
      "chip": "ym2612"
    },
    {
      "channel": 4,
      "note": 69,
      "start": 76.7341,
      "duration": 0.0181,
      "velocity": 120,
      "chip": "ym2612"
    },
    {
      "channel": 3,
      "note": 76,
      "start": 76.7352,
      "duration": 0.0184,
      "velocity": 120,
      "chip": "ym2612"
    },
    {
      "channel": 2,
      "note": 52,
      "start": 76.7364,
      "duration": 0.0187,
      "velocity": 100,
      "chip": "ym2612"
    },
    {
      "channel": 0,
      "note": 36,
      "start": 76.7508,
      "duration": 0.0146,
      "velocity": 115,
      "chip": "ym2612"
    },
    {
      "channel": 4,
      "note": 67,
      "start": 76.7523,
      "duration": 0.0144,
      "velocity": 120,
      "chip": "ym2612"
    },
    {
      "channel": 3,
      "note": 74,
      "start": 76.7536,
      "duration": 0.0142,
      "velocity": 120,
      "chip": "ym2612"
    },
    {
      "channel": 2,
      "note": 52,
      "start": 76.7551,
      "duration": 0.0139,
      "velocity": 100,
      "chip": "ym2612"
    },
    {
      "channel": 0,
      "note": 36,
      "start": 76.7655,
      "duration": 0.0166,
      "velocity": 115,
      "chip": "ym2612"
    },
    {
      "channel": 4,
      "note": 67,
      "start": 76.7667,
      "duration": 0.0165,
      "velocity": 120,
      "chip": "ym2612"
    },
    {
      "channel": 3,
      "note": 74,
      "start": 76.7678,
      "duration": 0.0166,
      "velocity": 120,
      "chip": "ym2612"
    },
    {
      "channel": 2,
      "note": 52,
      "start": 76.769,
      "duration": 0.0164,
      "velocity": 100,
      "chip": "ym2612"
    },
    {
      "channel": 0,
      "note": 37,
      "start": 76.7821,
      "duration": 0.0163,
      "velocity": 115,
      "chip": "ym2612"
    },
    {
      "channel": 4,
      "note": 67,
      "start": 76.7832,
      "duration": 0.0163,
      "velocity": 120,
      "chip": "ym2612"
    },
    {
      "channel": 3,
      "note": 74,
      "start": 76.7844,
      "duration": 0.0163,
      "velocity": 120,
      "chip": "ym2612"
    },
    {
      "channel": 2,
      "note": 52,
      "start": 76.7854,
      "duration": 0.0163,
      "velocity": 100,
      "chip": "ym2612"
    },
    {
      "channel": 0,
      "note": 37,
      "start": 76.7983,
      "duration": 0.0151,
      "velocity": 115,
      "chip": "ym2612"
    },
    {
      "channel": 4,
      "note": 67,
      "start": 76.7995,
      "duration": 0.0151,
      "velocity": 120,
      "chip": "ym2612"
    },
    {
      "channel": 3,
      "note": 74,
      "start": 76.8006,
      "duration": 0.0151,
      "velocity": 120,
      "chip": "ym2612"
    },
    {
      "channel": 2,
      "note": 52,
      "start": 76.8018,
      "duration": 0.0151,
      "velocity": 100,
      "chip": "ym2612"
    },
    {
      "channel": 0,
      "note": 38,
      "start": 76.8135,
      "duration": 0.0186,
      "velocity": 115,
      "chip": "ym2612"
    },
    {
      "channel": 4,
      "note": 67,
      "start": 76.8146,
      "duration": 0.0186,
      "velocity": 120,
      "chip": "ym2612"
    },
    {
      "channel": 3,
      "note": 74,
      "start": 76.8158,
      "duration": 0.0186,
      "velocity": 120,
      "chip": "ym2612"
    },
    {
      "channel": 2,
      "note": 52,
      "start": 76.8168,
      "duration": 0.0186,
      "velocity": 100,
      "chip": "ym2612"
    },
    {
      "channel": 0,
      "note": 38,
      "start": 76.8321,
      "duration": 0.0163,
      "velocity": 115,
      "chip": "ym2612"
    },
    {
      "channel": 4,
      "note": 67,
      "start": 76.8332,
      "duration": 0.0163,
      "velocity": 120,
      "chip": "ym2612"
    },
    {
      "channel": 3,
      "note": 74,
      "start": 76.8344,
      "duration": 0.0163,
      "velocity": 120,
      "chip": "ym2612"
    },
    {
      "channel": 2,
      "note": 52,
      "start": 76.8354,
      "duration": 0.0164,
      "velocity": 100,
      "chip": "ym2612"
    },
    {
      "channel": 0,
      "note": 39,
      "start": 76.8484,
      "duration": 0.0157,
      "velocity": 115,
      "chip": "ym2612"
    },
    {
      "channel": 4,
      "note": 67,
      "start": 76.8495,
      "duration": 0.0157,
      "velocity": 120,
      "chip": "ym2612"
    },
    {
      "channel": 3,
      "note": 74,
      "start": 76.8507,
      "duration": 0.0157,
      "velocity": 120,
      "chip": "ym2612"
    },
    {
      "channel": 2,
      "note": 52,
      "start": 76.8518,
      "duration": 0.0157,
      "velocity": 100,
      "chip": "ym2612"
    },
    {
      "channel": 0,
      "note": 39,
      "start": 76.8641,
      "duration": 0.0141,
      "velocity": 115,
      "chip": "ym2612"
    },
    {
      "channel": 4,
      "note": 67,
      "start": 76.8653,
      "duration": 0.0141,
      "velocity": 120,
      "chip": "ym2612"
    },
    {
      "channel": 3,
      "note": 74,
      "start": 76.8664,
      "duration": 0.0141,
      "velocity": 120,
      "chip": "ym2612"
    },
    {
      "channel": 2,
      "note": 52,
      "start": 76.8676,
      "duration": 0.0141,
      "velocity": 100,
      "chip": "ym2612"
    },
    {
      "channel": 0,
      "note": 40,
      "start": 76.8782,
      "duration": 0.0158,
      "velocity": 115,
      "chip": "ym2612"
    },
    {
      "channel": 4,
      "note": 67,
      "start": 76.8793,
      "duration": 0.0185,
      "velocity": 120,
      "chip": "ym2612"
    },
    {
      "channel": 3,
      "note": 74,
      "start": 76.8805,
      "duration": 0.0185,
      "velocity": 120,
      "chip": "ym2612"
    },
    {
      "channel": 2,
      "note": 52,
      "start": 76.8816,
      "duration": 0.0185,
      "velocity": 100,
      "chip": "ym2612"
    },
    {
      "channel": 0,
      "note": 40,
      "start": 76.8939,
      "duration": 0.0161,
      "velocity": 115,
      "chip": "ym2612"
    },
    {
      "channel": 4,
      "note": 67,
      "start": 76.8978,
      "duration": 0.0161,
      "velocity": 120,
      "chip": "ym2612"
    },
    {
      "channel": 3,
      "note": 74,
      "start": 76.899,
      "duration": 0.0161,
      "velocity": 120,
      "chip": "ym2612"
    },
    {
      "channel": 2,
      "note": 52,
      "start": 76.9001,
      "duration": 0.0161,
      "velocity": 100,
      "chip": "ym2612"
    },
    {
      "channel": 0,
      "note": 40,
      "start": 76.91,
      "duration": 0.0161,
      "velocity": 115,
      "chip": "ym2612"
    },
    {
      "channel": 4,
      "note": 67,
      "start": 76.9139,
      "duration": 0.0157,
      "velocity": 120,
      "chip": "ym2612"
    },
    {
      "channel": 3,
      "note": 74,
      "start": 76.9151,
      "duration": 0.0158,
      "velocity": 120,
      "chip": "ym2612"
    },
    {
      "channel": 2,
      "note": 52,
      "start": 76.9162,
      "duration": 0.0158,
      "velocity": 100,
      "chip": "ym2612"
    },
    {
      "channel": 0,
      "note": 41,
      "start": 76.9261,
      "duration": 0.018,
      "velocity": 124,
      "chip": "ym2612"
    },
    {
      "channel": 4,
      "note": 67,
      "start": 76.9296,
      "duration": 0.0161,
      "velocity": 120,
      "chip": "ym2612"
    },
    {
      "channel": 3,
      "note": 74,
      "start": 76.9309,
      "duration": 0.0163,
      "velocity": 120,
      "chip": "ym2612"
    },
    {
      "channel": 2,
      "note": 52,
      "start": 76.932,
      "duration": 0.0166,
      "velocity": 100,
      "chip": "ym2612"
    },
    {
      "channel": 0,
      "note": 84,
      "start": 76.9442,
      "duration": 0.0142,
      "velocity": 124,
      "chip": "ym2612"
    },
    {
      "channel": 4,
      "note": 69,
      "start": 76.9458,
      "duration": 0.0139,
      "velocity": 120,
      "chip": "ym2612"
    },
    {
      "channel": 3,
      "note": 76,
      "start": 76.9472,
      "duration": 0.0164,
      "velocity": 120,
      "chip": "ym2612"
    },
    {
      "channel": 2,
      "note": 52,
      "start": 76.9487,
      "duration": 0.0161,
      "velocity": 100,
      "chip": "ym2612"
    },
    {
      "channel": 0,
      "note": 82,
      "start": 76.9585,
      "duration": 0.016,
      "velocity": 124,
      "chip": "ym2612"
    },
    {
      "channel": 4,
      "note": 69,
      "start": 76.9597,
      "duration": 0.016,
      "velocity": 120,
      "chip": "ym2612"
    },
    {
      "channel": 3,
      "note": 76,
      "start": 76.9636,
      "duration": 0.0132,
      "velocity": 120,
      "chip": "ym2612"
    },
    {
      "channel": 2,
      "note": 52,
      "start": 76.9648,
      "duration": 0.0159,
      "velocity": 100,
      "chip": "ym2612"
    },
    {
      "channel": 0,
      "note": 80,
      "start": 76.9745,
      "duration": 0.0161,
      "velocity": 124,
      "chip": "ym2612"
    },
    {
      "channel": 4,
      "note": 69,
      "start": 76.9756,
      "duration": 0.0161,
      "velocity": 120,
      "chip": "ym2612"
    },
    {
      "channel": 3,
      "note": 76,
      "start": 76.9768,
      "duration": 0.0161,
      "velocity": 120,
      "chip": "ym2612"
    },
    {
      "channel": 2,
      "note": 52,
      "start": 76.9807,
      "duration": 0.0157,
      "velocity": 100,
      "chip": "ym2612"
    },
    {
      "channel": 0,
      "note": 77,
      "start": 76.9906,
      "duration": 0.0161,
      "velocity": 124,
      "chip": "ym2612"
    },
    {
      "channel": 4,
      "note": 69,
      "start": 76.9917,
      "duration": 0.0161,
      "velocity": 120,
      "chip": "ym2612"
    },
    {
      "channel": 3,
      "note": 76,
      "start": 76.9929,
      "duration": 0.0161,
      "velocity": 120,
      "chip": "ym2612"
    },
    {
      "channel": 2,
      "note": 52,
      "start": 76.9964,
      "duration": 0.0137,
      "velocity": 100,
      "chip": "ym2612"
    },
    {
      "channel": 0,
      "note": 75,
      "start": 77.0067,
      "duration": 0.0161,
      "velocity": 124,
      "chip": "ym2612"
    },
    {
      "channel": 4,
      "note": 69,
      "start": 77.0078,
      "duration": 0.0161,
      "velocity": 120,
      "chip": "ym2612"
    },
    {
      "channel": 3,
      "note": 76,
      "start": 77.009,
      "duration": 0.0161,
      "velocity": 120,
      "chip": "ym2612"
    },
    {
      "channel": 2,
      "note": 52,
      "start": 77.0101,
      "duration": 0.0161,
      "velocity": 100,
      "chip": "ym2612"
    },
    {
      "channel": 0,
      "note": 72,
      "start": 77.0228,
      "duration": 0.0161,
      "velocity": 124,
      "chip": "ym2612"
    },
    {
      "channel": 4,
      "note": 69,
      "start": 77.0239,
      "duration": 0.0161,
      "velocity": 120,
      "chip": "ym2612"
    },
    {
      "channel": 3,
      "note": 76,
      "start": 77.0251,
      "duration": 0.0161,
      "velocity": 120,
      "chip": "ym2612"
    },
    {
      "channel": 2,
      "note": 52,
      "start": 77.0262,
      "duration": 0.0161,
      "velocity": 100,
      "chip": "ym2612"
    },
    {
      "channel": 0,
      "note": 70,
      "start": 77.0389,
      "duration": 0.0161,
      "velocity": 124,
      "chip": "ym2612"
    },
    {
      "channel": 4,
      "note": 69,
      "start": 77.04,
      "duration": 0.0162,
      "velocity": 120,
      "chip": "ym2612"
    },
    {
      "channel": 3,
      "note": 76,
      "start": 77.0412,
      "duration": 0.0161,
      "velocity": 120,
      "chip": "ym2612"
    },
    {
      "channel": 2,
      "note": 52,
      "start": 77.0423,
      "duration": 0.0161,
      "velocity": 100,
      "chip": "ym2612"
    },
    {
      "channel": 0,
      "note": 68,
      "start": 77.055,
      "duration": 0.0161,
      "velocity": 124,
      "chip": "ym2612"
    },
    {
      "channel": 4,
      "note": 69,
      "start": 77.0562,
      "duration": 0.0161,
      "velocity": 120,
      "chip": "ym2612"
    },
    {
      "channel": 3,
      "note": 76,
      "start": 77.0573,
      "duration": 0.0161,
      "velocity": 120,
      "chip": "ym2612"
    },
    {
      "channel": 2,
      "note": 52,
      "start": 77.0584,
      "duration": 0.0161,
      "velocity": 100,
      "chip": "ym2612"
    },
    {
      "channel": 0,
      "note": 65,
      "start": 77.071,
      "duration": 0.0162,
      "velocity": 124,
      "chip": "ym2612"
    },
    {
      "channel": 4,
      "note": 69,
      "start": 77.0723,
      "duration": 0.0161,
      "velocity": 120,
      "chip": "ym2612"
    },
    {
      "channel": 3,
      "note": 76,
      "start": 77.0733,
      "duration": 0.0162,
      "velocity": 120,
      "chip": "ym2612"
    },
    {
      "channel": 2,
      "note": 52,
      "start": 77.0745,
      "duration": 0.0161,
      "velocity": 100,
      "chip": "ym2612"
    },
    {
      "channel": 0,
      "note": 63,
      "start": 77.0872,
      "duration": 0.0153,
      "velocity": 1,
      "chip": "ym2612"
    },
    {
      "channel": 4,
      "note": 69,
      "start": 77.0884,
      "duration": 0.0153,
      "velocity": 120,
      "chip": "ym2612"
    },
    {
      "channel": 3,
      "note": 76,
      "start": 77.0895,
      "duration": 0.0153,
      "velocity": 120,
      "chip": "ym2612"
    },
    {
      "channel": 2,
      "note": 52,
      "start": 77.0906,
      "duration": 0.0153,
      "velocity": 100,
      "chip": "ym2612"
    },
    {
      "channel": 4,
      "note": 69,
      "start": 77.1036,
      "duration": 0.0153,
      "velocity": 120,
      "chip": "ym2612"
    },
    {
      "channel": 3,
      "note": 76,
      "start": 77.1048,
      "duration": 0.0153,
      "velocity": 120,
      "chip": "ym2612"
    },
    {
      "channel": 2,
      "note": 52,
      "start": 77.1059,
      "duration": 0.0153,
      "velocity": 100,
      "chip": "ym2612"
    },
    {
      "channel": 4,
      "note": 69,
      "start": 77.1189,
      "duration": 0.0163,
      "velocity": 120,
      "chip": "ym2612"
    },
    {
      "channel": 3,
      "note": 76,
      "start": 77.12,
      "duration": 0.0165,
      "velocity": 120,
      "chip": "ym2612"
    },
    {
      "channel": 2,
      "note": 52,
      "start": 77.1212,
      "duration": 0.0169,
      "velocity": 100,
      "chip": "ym2612"
    },
    {
      "channel": 4,
      "note": 64,
      "start": 77.1352,
      "duration": 0.0159,
      "velocity": 120,
      "chip": "ym2612"
    },
    {
      "channel": 3,
      "note": 71,
      "start": 77.1366,
      "duration": 0.0157,
      "velocity": 120,
      "chip": "ym2612"
    },
    {
      "channel": 2,
      "note": 52,
      "start": 77.1381,
      "duration": 0.0155,
      "velocity": 100,
      "chip": "ym2612"
    },
    {
      "channel": 4,
      "note": 64,
      "start": 77.1511,
      "duration": 0.016,
      "velocity": 120,
      "chip": "ym2612"
    },
    {
      "channel": 3,
      "note": 71,
      "start": 77.1524,
      "duration": 0.016,
      "velocity": 120,
      "chip": "ym2612"
    },
    {
      "channel": 2,
      "note": 52,
      "start": 77.1536,
      "duration": 0.0159,
      "velocity": 100,
      "chip": "ym2612"
    },
    {
      "channel": 4,
      "note": 64,
      "start": 77.1672,
      "duration": 0.0161,
      "velocity": 120,
      "chip": "ym2612"
    },
    {
      "channel": 3,
      "note": 71,
      "start": 77.1683,
      "duration": 0.0161,
      "velocity": 120,
      "chip": "ym2612"
    },
    {
      "channel": 2,
      "note": 52,
      "start": 77.1695,
      "duration": 0.0161,
      "velocity": 100,
      "chip": "ym2612"
    },
    {
      "channel": 4,
      "note": 64,
      "start": 77.1833,
      "duration": 0.0162,
      "velocity": 120,
      "chip": "ym2612"
    },
    {
      "channel": 3,
      "note": 71,
      "start": 77.1844,
      "duration": 0.0161,
      "velocity": 120,
      "chip": "ym2612"
    },
    {
      "channel": 2,
      "note": 52,
      "start": 77.1856,
      "duration": 0.0161,
      "velocity": 100,
      "chip": "ym2612"
    },
    {
      "channel": 4,
      "note": 64,
      "start": 77.1994,
      "duration": 0.0161,
      "velocity": 120,
      "chip": "ym2612"
    },
    {
      "channel": 3,
      "note": 71,
      "start": 77.2006,
      "duration": 0.0161,
      "velocity": 120,
      "chip": "ym2612"
    },
    {
      "channel": 2,
      "note": 52,
      "start": 77.2017,
      "duration": 0.0161,
      "velocity": 100,
      "chip": "ym2612"
    },
    {
      "channel": 4,
      "note": 64,
      "start": 77.2155,
      "duration": 0.0161,
      "velocity": 120,
      "chip": "ym2612"
    },
    {
      "channel": 3,
      "note": 71,
      "start": 77.2167,
      "duration": 0.0161,
      "velocity": 120,
      "chip": "ym2612"
    },
    {
      "channel": 2,
      "note": 52,
      "start": 77.2178,
      "duration": 0.0161,
      "velocity": 100,
      "chip": "ym2612"
    },
    {
      "channel": 4,
      "note": 64,
      "start": 77.2316,
      "duration": 0.0166,
      "velocity": 120,
      "chip": "ym2612"
    },
    {
      "channel": 3,
      "note": 71,
      "start": 77.2328,
      "duration": 0.0166,
      "velocity": 120,
      "chip": "ym2612"
    },
    {
      "channel": 2,
      "note": 52,
      "start": 77.2338,
      "duration": 0.0166,
      "velocity": 100,
      "chip": "ym2612"
    },
    {
      "channel": 4,
      "note": 64,
      "start": 77.2482,
      "duration": 0.0163,
      "velocity": 120,
      "chip": "ym2612"
    },
    {
      "channel": 3,
      "note": 71,
      "start": 77.2494,
      "duration": 0.0163,
      "velocity": 120,
      "chip": "ym2612"
    },
    {
      "channel": 2,
      "note": 52,
      "start": 77.2505,
      "duration": 0.0163,
      "velocity": 100,
      "chip": "ym2612"
    },
    {
      "channel": 4,
      "note": 64,
      "start": 77.2645,
      "duration": 0.0154,
      "velocity": 120,
      "chip": "ym2612"
    },
    {
      "channel": 3,
      "note": 71,
      "start": 77.2656,
      "duration": 0.0154,
      "velocity": 120,
      "chip": "ym2612"
    },
    {
      "channel": 2,
      "note": 52,
      "start": 77.2668,
      "duration": 0.0154,
      "velocity": 100,
      "chip": "ym2612"
    },
    {
      "channel": 4,
      "note": 64,
      "start": 77.2799,
      "duration": 0.0183,
      "velocity": 120,
      "chip": "ym2612"
    },
    {
      "channel": 3,
      "note": 71,
      "start": 77.281,
      "duration": 0.0183,
      "velocity": 120,
      "chip": "ym2612"
    },
    {
      "channel": 2,
      "note": 52,
      "start": 77.2822,
      "duration": 0.0183,
      "velocity": 100,
      "chip": "ym2612"
    },
    {
      "channel": 4,
      "note": 64,
      "start": 77.2982,
      "duration": 0.0166,
      "velocity": 120,
      "chip": "ym2612"
    },
    {
      "channel": 3,
      "note": 71,
      "start": 77.2994,
      "duration": 0.0166,
      "velocity": 120,
      "chip": "ym2612"
    },
    {
      "channel": 2,
      "note": 52,
      "start": 77.3005,
      "duration": 0.0167,
      "velocity": 100,
      "chip": "ym2612"
    },
    {
      "channel": 4,
      "note": 64,
      "start": 77.3148,
      "duration": 0.0194,
      "velocity": 120,
      "chip": "ym2612"
    },
    {
      "channel": 3,
      "note": 71,
      "start": 77.316,
      "duration": 0.0197,
      "velocity": 120,
      "chip": "ym2612"
    },
    {
      "channel": 2,
      "note": 52,
      "start": 77.3171,
      "duration": 0.02,
      "velocity": 100,
      "chip": "ym2612"
    },
    {
      "channel": 0,
      "note": 36,
      "start": 77.3329,
      "duration": 0.0123,
      "velocity": 115,
      "chip": "ym2612"
    },
    {
      "channel": 4,
      "note": 66,
      "start": 77.3343,
      "duration": 0.0121,
      "velocity": 120,
      "chip": "ym2612"
    },
    {
      "channel": 3,
      "note": 73,
      "start": 77.3357,
      "duration": 0.0119,
      "velocity": 120,
      "chip": "ym2612"
    },
    {
      "channel": 2,
      "note": 54,
      "start": 77.3371,
      "duration": 0.0117,
      "velocity": 100,
      "chip": "ym2612"
    },
    {
      "channel": 0,
      "note": 36,
      "start": 77.3452,
      "duration": 0.0184,
      "velocity": 115,
      "chip": "ym2612"
    },
    {
      "channel": 4,
      "note": 66,
      "start": 77.3464,
      "duration": 0.0185,
      "velocity": 120,
      "chip": "ym2612"
    },
    {
      "channel": 3,
      "note": 73,
      "start": 77.3476,
      "duration": 0.0184,
      "velocity": 120,
      "chip": "ym2612"
    },
    {
      "channel": 2,
      "note": 54,
      "start": 77.3488,
      "duration": 0.0183,
      "velocity": 100,
      "chip": "ym2612"
    },
    {
      "channel": 0,
      "note": 37,
      "start": 77.3636,
      "duration": 0.0134,
      "velocity": 115,
      "chip": "ym2612"
    },
    {
      "channel": 4,
      "note": 66,
      "start": 77.3648,
      "duration": 0.0161,
      "velocity": 120,
      "chip": "ym2612"
    },
    {
      "channel": 3,
      "note": 73,
      "start": 77.366,
      "duration": 0.0161,
      "velocity": 120,
      "chip": "ym2612"
    },
    {
      "channel": 2,
      "note": 54,
      "start": 77.3671,
      "duration": 0.0161,
      "velocity": 100,
      "chip": "ym2612"
    },
    {
      "channel": 0,
      "note": 37,
      "start": 77.377,
      "duration": 0.0162,
      "velocity": 115,
      "chip": "ym2612"
    },
    {
      "channel": 4,
      "note": 66,
      "start": 77.3809,
      "duration": 0.0157,
      "velocity": 120,
      "chip": "ym2612"
    },
    {
      "channel": 3,
      "note": 73,
      "start": 77.3821,
      "duration": 0.0157,
      "velocity": 120,
      "chip": "ym2612"
    },
    {
      "channel": 2,
      "note": 54,
      "start": 77.3832,
      "duration": 0.0158,
      "velocity": 100,
      "chip": "ym2612"
    },
    {
      "channel": 0,
      "note": 38,
      "start": 77.3931,
      "duration": 0.0161,
      "velocity": 115,
      "chip": "ym2612"
    },
    {
      "channel": 4,
      "note": 66,
      "start": 77.3966,
      "duration": 0.0137,
      "velocity": 120,
      "chip": "ym2612"
    },
    {
      "channel": 3,
      "note": 73,
      "start": 77.3978,
      "duration": 0.0141,
      "velocity": 120,
      "chip": "ym2612"
    },
    {
      "channel": 2,
      "note": 54,
      "start": 77.3989,
      "duration": 0.0141,
      "velocity": 100,
      "chip": "ym2612"
    },
    {
      "channel": 0,
      "note": 38,
      "start": 77.4092,
      "duration": 0.0161,
      "velocity": 115,
      "chip": "ym2612"
    },
    {
      "channel": 4,
      "note": 66,
      "start": 77.4104,
      "duration": 0.0161,
      "velocity": 120,
      "chip": "ym2612"
    },
    {
      "channel": 3,
      "note": 73,
      "start": 77.4118,
      "duration": 0.0185,
      "velocity": 120,
      "chip": "ym2612"
    },
    {
      "channel": 2,
      "note": 54,
      "start": 77.413,
      "duration": 0.0185,
      "velocity": 100,
      "chip": "ym2612"
    },
    {
      "channel": 0,
      "note": 39,
      "start": 77.4253,
      "duration": 0.0161,
      "velocity": 115,
      "chip": "ym2612"
    },
    {
      "channel": 4,
      "note": 66,
      "start": 77.4265,
      "duration": 0.0161,
      "velocity": 120,
      "chip": "ym2612"
    },
    {
      "channel": 3,
      "note": 73,
      "start": 77.4303,
      "duration": 0.0134,
      "velocity": 120,
      "chip": "ym2612"
    },
    {
      "channel": 2,
      "note": 54,
      "start": 77.4315,
      "duration": 0.0161,
      "velocity": 100,
      "chip": "ym2612"
    },
    {
      "channel": 0,
      "note": 39,
      "start": 77.4414,
      "duration": 0.0161,
      "velocity": 115,
      "chip": "ym2612"
    },
    {
      "channel": 4,
      "note": 66,
      "start": 77.4426,
      "duration": 0.0161,
      "velocity": 120,
      "chip": "ym2612"
    },
    {
      "channel": 3,
      "note": 73,
      "start": 77.4437,
      "duration": 0.0161,
      "velocity": 120,
      "chip": "ym2612"
    },
    {
      "channel": 2,
      "note": 54,
      "start": 77.4476,
      "duration": 0.0157,
      "velocity": 100,
      "chip": "ym2612"
    },
    {
      "channel": 0,
      "note": 40,
      "start": 77.4575,
      "duration": 0.0161,
      "velocity": 115,
      "chip": "ym2612"
    },
    {
      "channel": 4,
      "note": 66,
      "start": 77.4586,
      "duration": 0.0161,
      "velocity": 120,
      "chip": "ym2612"
    },
    {
      "channel": 3,
      "note": 73,
      "start": 77.4598,
      "duration": 0.0161,
      "velocity": 120,
      "chip": "ym2612"
    },
    {
      "channel": 2,
      "note": 54,
      "start": 77.4633,
      "duration": 0.0137,
      "velocity": 100,
      "chip": "ym2612"
    },
    {
      "channel": 0,
      "note": 40,
      "start": 77.4736,
      "duration": 0.0161,
      "velocity": 115,
      "chip": "ym2612"
    },
    {
      "channel": 4,
      "note": 66,
      "start": 77.4747,
      "duration": 0.0161,
      "velocity": 120,
      "chip": "ym2612"
    },
    {
      "channel": 3,
      "note": 73,
      "start": 77.4759,
      "duration": 0.0161,
      "velocity": 120,
      "chip": "ym2612"
    },
    {
      "channel": 2,
      "note": 54,
      "start": 77.477,
      "duration": 0.0161,
      "velocity": 100,
      "chip": "ym2612"
    },
    {
      "channel": 0,
      "note": 40,
      "start": 77.4897,
      "duration": 0.0161,
      "velocity": 115,
      "chip": "ym2612"
    },
    {
      "channel": 4,
      "note": 66,
      "start": 77.4908,
      "duration": 0.0161,
      "velocity": 120,
      "chip": "ym2612"
    },
    {
      "channel": 3,
      "note": 73,
      "start": 77.492,
      "duration": 0.0161,
      "velocity": 120,
      "chip": "ym2612"
    },
    {
      "channel": 2,
      "note": 54,
      "start": 77.4931,
      "duration": 0.0161,
      "velocity": 100,
      "chip": "ym2612"
    },
    {
      "channel": 0,
      "note": 41,
      "start": 77.5058,
      "duration": 0.0161,
      "velocity": 115,
      "chip": "ym2612"
    },
    {
      "channel": 4,
      "note": 66,
      "start": 77.5069,
      "duration": 0.0163,
      "velocity": 120,
      "chip": "ym2612"
    },
    {
      "channel": 3,
      "note": 73,
      "start": 77.5081,
      "duration": 0.0166,
      "velocity": 120,
      "chip": "ym2612"
    },
    {
      "channel": 2,
      "note": 54,
      "start": 77.5092,
      "duration": 0.0169,
      "velocity": 100,
      "chip": "ym2612"
    },
    {
      "channel": 0,
      "note": 41,
      "start": 77.5219,
      "duration": 0.0161,
      "velocity": 115,
      "chip": "ym2612"
    },
    {
      "channel": 4,
      "note": 69,
      "start": 77.5233,
      "duration": 0.0159,
      "velocity": 120,
      "chip": "ym2612"
    },
    {
      "channel": 3,
      "note": 76,
      "start": 77.5247,
      "duration": 0.0156,
      "velocity": 120,
      "chip": "ym2612"
    },
    {
      "channel": 2,
      "note": 54,
      "start": 77.5261,
      "duration": 0.0155,
      "velocity": 100,
      "chip": "ym2612"
    },
    {
      "channel": 0,
      "note": 42,
      "start": 77.538,
      "duration": 0.0161,
      "velocity": 115,
      "chip": "ym2612"
    },
    {
      "channel": 4,
      "note": 69,
      "start": 77.5393,
      "duration": 0.016,
      "velocity": 120,
      "chip": "ym2612"
    },
    {
      "channel": 3,
      "note": 76,
      "start": 77.5404,
      "duration": 0.016,
      "velocity": 120,
      "chip": "ym2612"
    },
    {
      "channel": 2,
      "note": 54,
      "start": 77.5416,
      "duration": 0.0159,
      "velocity": 100,
      "chip": "ym2612"
    },
    {
      "channel": 0,
      "note": 42,
      "start": 77.5541,
      "duration": 0.0161,
      "velocity": 115,
      "chip": "ym2612"
    },
    {
      "channel": 4,
      "note": 69,
      "start": 77.5553,
      "duration": 0.0161,
      "velocity": 120,
      "chip": "ym2612"
    },
    {
      "channel": 3,
      "note": 76,
      "start": 77.5564,
      "duration": 0.0161,
      "velocity": 120,
      "chip": "ym2612"
    },
    {
      "channel": 2,
      "note": 54,
      "start": 77.5575,
      "duration": 0.0161,
      "velocity": 100,
      "chip": "ym2612"
    },
    {
      "channel": 0,
      "note": 43,
      "start": 77.5702,
      "duration": 0.0161,
      "velocity": 115,
      "chip": "ym2612"
    },
    {
      "channel": 4,
      "note": 69,
      "start": 77.5714,
      "duration": 0.0161,
      "velocity": 120,
      "chip": "ym2612"
    },
    {
      "channel": 3,
      "note": 76,
      "start": 77.5725,
      "duration": 0.0161,
      "velocity": 120,
      "chip": "ym2612"
    },
    {
      "channel": 2,
      "note": 54,
      "start": 77.5736,
      "duration": 0.0161,
      "velocity": 100,
      "chip": "ym2612"
    },
    {
      "channel": 0,
      "note": 43,
      "start": 77.5863,
      "duration": 0.0161,
      "velocity": 115,
      "chip": "ym2612"
    },
    {
      "channel": 4,
      "note": 69,
      "start": 77.5875,
      "duration": 0.0161,
      "velocity": 120,
      "chip": "ym2612"
    },
    {
      "channel": 3,
      "note": 76,
      "start": 77.5886,
      "duration": 0.0161,
      "velocity": 120,
      "chip": "ym2612"
    },
    {
      "channel": 2,
      "note": 54,
      "start": 77.5898,
      "duration": 0.0161,
      "velocity": 100,
      "chip": "ym2612"
    },
    {
      "channel": 0,
      "note": 44,
      "start": 77.6024,
      "duration": 0.0161,
      "velocity": 115,
      "chip": "ym2612"
    },
    {
      "channel": 4,
      "note": 69,
      "start": 77.6036,
      "duration": 0.0161,
      "velocity": 120,
      "chip": "ym2612"
    },
    {
      "channel": 3,
      "note": 76,
      "start": 77.6047,
      "duration": 0.0161,
      "velocity": 120,
      "chip": "ym2612"
    },
    {
      "channel": 2,
      "note": 54,
      "start": 77.6059,
      "duration": 0.0161,
      "velocity": 100,
      "chip": "ym2612"
    },
    {
      "channel": 0,
      "note": 44,
      "start": 77.6185,
      "duration": 0.0161,
      "velocity": 115,
      "chip": "ym2612"
    },
    {
      "channel": 4,
      "note": 69,
      "start": 77.6197,
      "duration": 0.0161,
      "velocity": 120,
      "chip": "ym2612"
    },
    {
      "channel": 3,
      "note": 76,
      "start": 77.6208,
      "duration": 0.0161,
      "velocity": 120,
      "chip": "ym2612"
    },
    {
      "channel": 2,
      "note": 54,
      "start": 77.622,
      "duration": 0.0161,
      "velocity": 100,
      "chip": "ym2612"
    },
    {
      "channel": 0,
      "note": 44,
      "start": 77.6346,
      "duration": 0.0161,
      "velocity": 115,
      "chip": "ym2612"
    },
    {
      "channel": 4,
      "note": 69,
      "start": 77.6358,
      "duration": 0.0161,
      "velocity": 120,
      "chip": "ym2612"
    },
    {
      "channel": 3,
      "note": 76,
      "start": 77.6369,
      "duration": 0.0161,
      "velocity": 120,
      "chip": "ym2612"
    },
    {
      "channel": 2,
      "note": 54,
      "start": 77.638,
      "duration": 0.0161,
      "velocity": 100,
      "chip": "ym2612"
    },
    {
      "channel": 0,
      "note": 45,
      "start": 77.6507,
      "duration": 0.0161,
      "velocity": 115,
      "chip": "ym2612"
    },
    {
      "channel": 4,
      "note": 69,
      "start": 77.6518,
      "duration": 0.0162,
      "velocity": 120,
      "chip": "ym2612"
    },
    {
      "channel": 3,
      "note": 76,
      "start": 77.653,
      "duration": 0.0161,
      "velocity": 120,
      "chip": "ym2612"
    },
    {
      "channel": 2,
      "note": 54,
      "start": 77.6541,
      "duration": 0.0161,
      "velocity": 100,
      "chip": "ym2612"
    },
    {
      "channel": 0,
      "note": 45,
      "start": 77.6668,
      "duration": 0.0161,
      "velocity": 115,
      "chip": "ym2612"
    },
    {
      "channel": 4,
      "note": 69,
      "start": 77.668,
      "duration": 0.0161,
      "velocity": 120,
      "chip": "ym2612"
    },
    {
      "channel": 3,
      "note": 76,
      "start": 77.6691,
      "duration": 0.0161,
      "velocity": 120,
      "chip": "ym2612"
    },
    {
      "channel": 2,
      "note": 54,
      "start": 77.6702,
      "duration": 0.0161,
      "velocity": 100,
      "chip": "ym2612"
    },
    {
      "channel": 0,
      "note": 46,
      "start": 77.6829,
      "duration": 0.0162,
      "velocity": 115,
      "chip": "ym2612"
    },
    {
      "channel": 4,
      "note": 69,
      "start": 77.6841,
      "duration": 0.0161,
      "velocity": 120,
      "chip": "ym2612"
    },
    {
      "channel": 3,
      "note": 76,
      "start": 77.6852,
      "duration": 0.0162,
      "velocity": 120,
      "chip": "ym2612"
    },
    {
      "channel": 2,
      "note": 54,
      "start": 77.6863,
      "duration": 0.0161,
      "velocity": 100,
      "chip": "ym2612"
    },
    {
      "channel": 0,
      "note": 46,
      "start": 77.699,
      "duration": 0.0181,
      "velocity": 124,
      "chip": "ym2612"
    },
    {
      "channel": 4,
      "note": 69,
      "start": 77.7002,
      "duration": 0.0184,
      "velocity": 120,
      "chip": "ym2612"
    },
    {
      "channel": 3,
      "note": 76,
      "start": 77.7013,
      "duration": 0.0186,
      "velocity": 120,
      "chip": "ym2612"
    },
    {
      "channel": 2,
      "note": 54,
      "start": 77.7024,
      "duration": 0.019,
      "velocity": 100,
      "chip": "ym2612"
    },
    {
      "channel": 0,
      "note": 84,
      "start": 77.7172,
      "duration": 0.0146,
      "velocity": 124,
      "chip": "ym2612"
    },
    {
      "channel": 4,
      "note": 71,
      "start": 77.7186,
      "duration": 0.0144,
      "velocity": 120,
      "chip": "ym2612"
    },
    {
      "channel": 3,
      "note": 78,
      "start": 77.72,
      "duration": 0.0142,
      "velocity": 120,
      "chip": "ym2612"
    },
    {
      "channel": 2,
      "note": 54,
      "start": 77.7214,
      "duration": 0.0139,
      "velocity": 100,
      "chip": "ym2612"
    },
    {
      "channel": 0,
      "note": 82,
      "start": 77.7317,
      "duration": 0.0156,
      "velocity": 124,
      "chip": "ym2612"
    },
    {
      "channel": 4,
      "note": 71,
      "start": 77.7329,
      "duration": 0.0155,
      "velocity": 120,
      "chip": "ym2612"
    },
    {
      "channel": 3,
      "note": 78,
      "start": 77.7341,
      "duration": 0.0155,
      "velocity": 120,
      "chip": "ym2612"
    },
    {
      "channel": 2,
      "note": 54,
      "start": 77.7353,
      "duration": 0.0155,
      "velocity": 100,
      "chip": "ym2612"
    },
    {
      "channel": 0,
      "note": 80,
      "start": 77.7473,
      "duration": 0.0181,
      "velocity": 124,
      "chip": "ym2612"
    },
    {
      "channel": 4,
      "note": 71,
      "start": 77.7485,
      "duration": 0.018,
      "velocity": 120,
      "chip": "ym2612"
    },
    {
      "channel": 3,
      "note": 78,
      "start": 77.7496,
      "duration": 0.0181,
      "velocity": 120,
      "chip": "ym2612"
    },
    {
      "channel": 2,
      "note": 54,
      "start": 77.7508,
      "duration": 0.018,
      "velocity": 100,
      "chip": "ym2612"
    },
    {
      "channel": 0,
      "note": 77,
      "start": 77.7654,
      "duration": 0.0167,
      "velocity": 124,
      "chip": "ym2612"
    },
    {
      "channel": 4,
      "note": 71,
      "start": 77.7665,
      "duration": 0.0167,
      "velocity": 120,
      "chip": "ym2612"
    },
    {
      "channel": 3,
      "note": 78,
      "start": 77.7677,
      "duration": 0.0167,
      "velocity": 120,
      "chip": "ym2612"
    },
    {
      "channel": 2,
      "note": 54,
      "start": 77.7688,
      "duration": 0.0167,
      "velocity": 100,
      "chip": "ym2612"
    },
    {
      "channel": 0,
      "note": 75,
      "start": 77.7821,
      "duration": 0.016,
      "velocity": 124,
      "chip": "ym2612"
    },
    {
      "channel": 4,
      "note": 71,
      "start": 77.7832,
      "duration": 0.016,
      "velocity": 120,
      "chip": "ym2612"
    },
    {
      "channel": 3,
      "note": 78,
      "start": 77.7844,
      "duration": 0.016,
      "velocity": 120,
      "chip": "ym2612"
    },
    {
      "channel": 2,
      "note": 54,
      "start": 77.7855,
      "duration": 0.016,
      "velocity": 100,
      "chip": "ym2612"
    },
    {
      "channel": 0,
      "note": 72,
      "start": 77.798,
      "duration": 0.014,
      "velocity": 124,
      "chip": "ym2612"
    },
    {
      "channel": 4,
      "note": 71,
      "start": 77.7992,
      "duration": 0.0141,
      "velocity": 120,
      "chip": "ym2612"
    },
    {
      "channel": 3,
      "note": 78,
      "start": 77.8003,
      "duration": 0.014,
      "velocity": 120,
      "chip": "ym2612"
    },
    {
      "channel": 2,
      "note": 54,
      "start": 77.8015,
      "duration": 0.014,
      "velocity": 100,
      "chip": "ym2612"
    },
    {
      "channel": 0,
      "note": 70,
      "start": 77.812,
      "duration": 0.0185,
      "velocity": 124,
      "chip": "ym2612"
    },
    {
      "channel": 4,
      "note": 71,
      "start": 77.8132,
      "duration": 0.0185,
      "velocity": 120,
      "chip": "ym2612"
    },
    {
      "channel": 3,
      "note": 78,
      "start": 77.8143,
      "duration": 0.0186,
      "velocity": 120,
      "chip": "ym2612"
    },
    {
      "channel": 2,
      "note": 54,
      "start": 77.8155,
      "duration": 0.0185,
      "velocity": 100,
      "chip": "ym2612"
    },
    {
      "channel": 0,
      "note": 68,
      "start": 77.8305,
      "duration": 0.0134,
      "velocity": 124,
      "chip": "ym2612"
    },
    {
      "channel": 4,
      "note": 71,
      "start": 77.8317,
      "duration": 0.0161,
      "velocity": 120,
      "chip": "ym2612"
    },
    {
      "channel": 3,
      "note": 78,
      "start": 77.8329,
      "duration": 0.0161,
      "velocity": 120,
      "chip": "ym2612"
    },
    {
      "channel": 2,
      "note": 54,
      "start": 77.834,
      "duration": 0.0162,
      "velocity": 100,
      "chip": "ym2612"
    },
    {
      "channel": 0,
      "note": 65,
      "start": 77.8439,
      "duration": 0.0161,
      "velocity": 124,
      "chip": "ym2612"
    },
    {
      "channel": 4,
      "note": 71,
      "start": 77.8478,
      "duration": 0.0157,
      "velocity": 120,
      "chip": "ym2612"
    },
    {
      "channel": 3,
      "note": 78,
      "start": 77.849,
      "duration": 0.0157,
      "velocity": 120,
      "chip": "ym2612"
    },
    {
      "channel": 2,
      "note": 54,
      "start": 77.8501,
      "duration": 0.0157,
      "velocity": 100,
      "chip": "ym2612"
    },
    {
      "channel": 0,
      "note": 63,
      "start": 77.86,
      "duration": 0.0153,
      "velocity": 1,
      "chip": "ym2612"
    },
    {
      "channel": 4,
      "note": 71,
      "start": 77.8635,
      "duration": 0.013,
      "velocity": 120,
      "chip": "ym2612"
    },
    {
      "channel": 3,
      "note": 78,
      "start": 77.8647,
      "duration": 0.0132,
      "velocity": 120,
      "chip": "ym2612"
    },
    {
      "channel": 2,
      "note": 54,
      "start": 77.8658,
      "duration": 0.0132,
      "velocity": 100,
      "chip": "ym2612"
    },
    {
      "channel": 4,
      "note": 71,
      "start": 77.8765,
      "duration": 0.0152,
      "velocity": 120,
      "chip": "ym2612"
    },
    {
      "channel": 3,
      "note": 78,
      "start": 77.8779,
      "duration": 0.015,
      "velocity": 120,
      "chip": "ym2612"
    },
    {
      "channel": 2,
      "note": 54,
      "start": 77.8791,
      "duration": 0.0177,
      "velocity": 100,
      "chip": "ym2612"
    },
    {
      "channel": 4,
      "note": 71,
      "start": 77.8917,
      "duration": 0.0225,
      "velocity": 120,
      "chip": "ym2612"
    },
    {
      "channel": 3,
      "note": 78,
      "start": 77.8929,
      "duration": 0.0228,
      "velocity": 120,
      "chip": "ym2612"
    },
    {
      "channel": 2,
      "note": 54,
      "start": 77.8968,
      "duration": 0.0204,
      "velocity": 100,
      "chip": "ym2612"
    },
    {
      "channel": 0,
      "note": 36,
      "start": 77.9101,
      "duration": 0.0144,
      "velocity": 115,
      "chip": "ym2612"
    },
    {
      "channel": 4,
      "note": 69,
      "start": 77.9143,
      "duration": 0.0114,
      "velocity": 120,
      "chip": "ym2612"
    },
    {
      "channel": 3,
      "note": 76,
      "start": 77.9157,
      "duration": 0.0112,
      "velocity": 120,
      "chip": "ym2612"
    },
    {
      "channel": 2,
      "note": 54,
      "start": 77.9172,
      "duration": 0.0133,
      "velocity": 100,
      "chip": "ym2612"
    },
    {
      "channel": 0,
      "note": 36,
      "start": 77.9245,
      "duration": 0.016,
      "velocity": 115,
      "chip": "ym2612"
    },
    {
      "channel": 4,
      "note": 69,
      "start": 77.9257,
      "duration": 0.016,
      "velocity": 120,
      "chip": "ym2612"
    },
    {
      "channel": 3,
      "note": 76,
      "start": 77.9269,
      "duration": 0.0159,
      "velocity": 120,
      "chip": "ym2612"
    },
    {
      "channel": 2,
      "note": 54,
      "start": 77.9305,
      "duration": 0.0135,
      "velocity": 100,
      "chip": "ym2612"
    },
    {
      "channel": 0,
      "note": 37,
      "start": 77.9405,
      "duration": 0.0161,
      "velocity": 115,
      "chip": "ym2612"
    },
    {
      "channel": 4,
      "note": 69,
      "start": 77.9417,
      "duration": 0.0162,
      "velocity": 120,
      "chip": "ym2612"
    },
    {
      "channel": 3,
      "note": 76,
      "start": 77.9428,
      "duration": 0.0161,
      "velocity": 120,
      "chip": "ym2612"
    },
    {
      "channel": 2,
      "note": 54,
      "start": 77.9439,
      "duration": 0.0161,
      "velocity": 100,
      "chip": "ym2612"
    },
    {
      "channel": 0,
      "note": 37,
      "start": 77.9566,
      "duration": 0.0161,
      "velocity": 115,
      "chip": "ym2612"
    },
    {
      "channel": 4,
      "note": 69,
      "start": 77.9578,
      "duration": 0.0161,
      "velocity": 120,
      "chip": "ym2612"
    },
    {
      "channel": 3,
      "note": 76,
      "start": 77.9589,
      "duration": 0.0161,
      "velocity": 120,
      "chip": "ym2612"
    },
    {
      "channel": 2,
      "note": 54,
      "start": 77.96,
      "duration": 0.0161,
      "velocity": 100,
      "chip": "ym2612"
    },
    {
      "channel": 0,
      "note": 38,
      "start": 77.9728,
      "duration": 0.016,
      "velocity": 115,
      "chip": "ym2612"
    },
    {
      "channel": 4,
      "note": 69,
      "start": 77.9739,
      "duration": 0.0161,
      "velocity": 120,
      "chip": "ym2612"
    },
    {
      "channel": 3,
      "note": 76,
      "start": 77.9751,
      "duration": 0.0161,
      "velocity": 120,
      "chip": "ym2612"
    },
    {
      "channel": 2,
      "note": 54,
      "start": 77.9761,
      "duration": 0.0161,
      "velocity": 100,
      "chip": "ym2612"
    },
    {
      "channel": 0,
      "note": 38,
      "start": 77.9888,
      "duration": 0.0162,
      "velocity": 115,
      "chip": "ym2612"
    },
    {
      "channel": 4,
      "note": 69,
      "start": 77.99,
      "duration": 0.0161,
      "velocity": 120,
      "chip": "ym2612"
    },
    {
      "channel": 3,
      "note": 76,
      "start": 77.9912,
      "duration": 0.0161,
      "velocity": 120,
      "chip": "ym2612"
    },
    {
      "channel": 2,
      "note": 54,
      "start": 77.9922,
      "duration": 0.0161,
      "velocity": 100,
      "chip": "ym2612"
    },
    {
      "channel": 0,
      "note": 39,
      "start": 78.005,
      "duration": 0.0161,
      "velocity": 115,
      "chip": "ym2612"
    },
    {
      "channel": 4,
      "note": 69,
      "start": 78.0061,
      "duration": 0.0161,
      "velocity": 120,
      "chip": "ym2612"
    },
    {
      "channel": 3,
      "note": 76,
      "start": 78.0073,
      "duration": 0.0161,
      "velocity": 120,
      "chip": "ym2612"
    },
    {
      "channel": 2,
      "note": 54,
      "start": 78.0084,
      "duration": 0.016,
      "velocity": 100,
      "chip": "ym2612"
    },
    {
      "channel": 0,
      "note": 39,
      "start": 78.021,
      "duration": 0.0161,
      "velocity": 115,
      "chip": "ym2612"
    },
    {
      "channel": 4,
      "note": 69,
      "start": 78.0222,
      "duration": 0.0161,
      "velocity": 120,
      "chip": "ym2612"
    },
    {
      "channel": 3,
      "note": 76,
      "start": 78.0233,
      "duration": 0.0161,
      "velocity": 120,
      "chip": "ym2612"
    },
    {
      "channel": 2,
      "note": 54,
      "start": 78.0244,
      "duration": 0.0162,
      "velocity": 100,
      "chip": "ym2612"
    },
    {
      "channel": 0,
      "note": 40,
      "start": 78.0371,
      "duration": 0.0161,
      "velocity": 115,
      "chip": "ym2612"
    },
    {
      "channel": 4,
      "note": 69,
      "start": 78.0383,
      "duration": 0.0161,
      "velocity": 120,
      "chip": "ym2612"
    },
    {
      "channel": 3,
      "note": 76,
      "start": 78.0394,
      "duration": 0.0161,
      "velocity": 120,
      "chip": "ym2612"
    },
    {
      "channel": 2,
      "note": 54,
      "start": 78.0406,
      "duration": 0.0161,
      "velocity": 100,
      "chip": "ym2612"
    },
    {
      "channel": 0,
      "note": 40,
      "start": 78.0532,
      "duration": 0.0161,
      "velocity": 115,
      "chip": "ym2612"
    },
    {
      "channel": 4,
      "note": 69,
      "start": 78.0544,
      "duration": 0.0161,
      "velocity": 120,
      "chip": "ym2612"
    },
    {
      "channel": 3,
      "note": 76,
      "start": 78.0555,
      "duration": 0.0161,
      "velocity": 120,
      "chip": "ym2612"
    },
    {
      "channel": 2,
      "note": 54,
      "start": 78.0567,
      "duration": 0.0161,
      "velocity": 100,
      "chip": "ym2612"
    },
    {
      "channel": 0,
      "note": 40,
      "start": 78.0693,
      "duration": 0.0161,
      "velocity": 115,
      "chip": "ym2612"
    },
    {
      "channel": 4,
      "note": 69,
      "start": 78.0705,
      "duration": 0.0161,
      "velocity": 120,
      "chip": "ym2612"
    },
    {
      "channel": 3,
      "note": 76,
      "start": 78.0716,
      "duration": 0.0161,
      "velocity": 120,
      "chip": "ym2612"
    },
    {
      "channel": 2,
      "note": 54,
      "start": 78.0728,
      "duration": 0.0161,
      "velocity": 100,
      "chip": "ym2612"
    },
    {
      "channel": 0,
      "note": 41,
      "start": 78.0854,
      "duration": 0.0179,
      "velocity": 115,
      "chip": "ym2612"
    },
    {
      "channel": 4,
      "note": 69,
      "start": 78.0866,
      "duration": 0.0181,
      "velocity": 120,
      "chip": "ym2612"
    },
    {
      "channel": 3,
      "note": 76,
      "start": 78.0877,
      "duration": 0.0184,
      "velocity": 120,
      "chip": "ym2612"
    },
    {
      "channel": 2,
      "note": 54,
      "start": 78.0889,
      "duration": 0.0187,
      "velocity": 100,
      "chip": "ym2612"
    },
    {
      "channel": 0,
      "note": 36,
      "start": 78.1033,
      "duration": 0.0144,
      "velocity": 115,
      "chip": "ym2612"
    },
    {
      "channel": 4,
      "note": 71,
      "start": 78.1048,
      "duration": 0.0141,
      "velocity": 120,
      "chip": "ym2612"
    },
    {
      "channel": 3,
      "note": 78,
      "start": 78.1062,
      "duration": 0.0139,
      "velocity": 120,
      "chip": "ym2612"
    },
    {
      "channel": 2,
      "note": 54,
      "start": 78.1076,
      "duration": 0.0137,
      "velocity": 100,
      "chip": "ym2612"
    },
    {
      "channel": 0,
      "note": 36,
      "start": 78.1177,
      "duration": 0.0161,
      "velocity": 115,
      "chip": "ym2612"
    },
    {
      "channel": 4,
      "note": 71,
      "start": 78.1189,
      "duration": 0.016,
      "velocity": 120,
      "chip": "ym2612"
    },
    {
      "channel": 3,
      "note": 78,
      "start": 78.1201,
      "duration": 0.016,
      "velocity": 120,
      "chip": "ym2612"
    },
    {
      "channel": 2,
      "note": 54,
      "start": 78.1213,
      "duration": 0.0158,
      "velocity": 100,
      "chip": "ym2612"
    },
    {
      "channel": 0,
      "note": 37,
      "start": 78.1338,
      "duration": 0.0161,
      "velocity": 115,
      "chip": "ym2612"
    },
    {
      "channel": 4,
      "note": 71,
      "start": 78.1349,
      "duration": 0.0161,
      "velocity": 120,
      "chip": "ym2612"
    },
    {
      "channel": 3,
      "note": 78,
      "start": 78.1361,
      "duration": 0.0161,
      "velocity": 120,
      "chip": "ym2612"
    },
    {
      "channel": 2,
      "note": 54,
      "start": 78.1371,
      "duration": 0.0161,
      "velocity": 100,
      "chip": "ym2612"
    },
    {
      "channel": 0,
      "note": 37,
      "start": 78.1499,
      "duration": 0.0161,
      "velocity": 115,
      "chip": "ym2612"
    },
    {
      "channel": 4,
      "note": 71,
      "start": 78.151,
      "duration": 0.0161,
      "velocity": 120,
      "chip": "ym2612"
    },
    {
      "channel": 3,
      "note": 78,
      "start": 78.1522,
      "duration": 0.0161,
      "velocity": 120,
      "chip": "ym2612"
    },
    {
      "channel": 2,
      "note": 54,
      "start": 78.1532,
      "duration": 0.0162,
      "velocity": 100,
      "chip": "ym2612"
    },
    {
      "channel": 0,
      "note": 38,
      "start": 78.166,
      "duration": 0.0161,
      "velocity": 115,
      "chip": "ym2612"
    },
    {
      "channel": 4,
      "note": 71,
      "start": 78.1671,
      "duration": 0.0161,
      "velocity": 120,
      "chip": "ym2612"
    },
    {
      "channel": 3,
      "note": 78,
      "start": 78.1683,
      "duration": 0.0161,
      "velocity": 120,
      "chip": "ym2612"
    },
    {
      "channel": 2,
      "note": 54,
      "start": 78.1694,
      "duration": 0.0161,
      "velocity": 100,
      "chip": "ym2612"
    },
    {
      "channel": 0,
      "note": 38,
      "start": 78.1821,
      "duration": 0.0163,
      "velocity": 115,
      "chip": "ym2612"
    },
    {
      "channel": 4,
      "note": 71,
      "start": 78.1832,
      "duration": 0.0163,
      "velocity": 120,
      "chip": "ym2612"
    },
    {
      "channel": 3,
      "note": 78,
      "start": 78.1844,
      "duration": 0.0163,
      "velocity": 120,
      "chip": "ym2612"
    },
    {
      "channel": 2,
      "note": 54,
      "start": 78.1855,
      "duration": 0.0163,
      "velocity": 100,
      "chip": "ym2612"
    },
    {
      "channel": 0,
      "note": 39,
      "start": 78.1983,
      "duration": 0.0159,
      "velocity": 115,
      "chip": "ym2612"
    },
    {
      "channel": 4,
      "note": 71,
      "start": 78.1995,
      "duration": 0.0159,
      "velocity": 120,
      "chip": "ym2612"
    },
    {
      "channel": 3,
      "note": 78,
      "start": 78.2006,
      "duration": 0.0159,
      "velocity": 120,
      "chip": "ym2612"
    },
    {
      "channel": 2,
      "note": 54,
      "start": 78.2018,
      "duration": 0.0159,
      "velocity": 100,
      "chip": "ym2612"
    },
    {
      "channel": 0,
      "note": 39,
      "start": 78.2142,
      "duration": 0.0178,
      "velocity": 115,
      "chip": "ym2612"
    },
    {
      "channel": 4,
      "note": 71,
      "start": 78.2154,
      "duration": 0.0178,
      "velocity": 120,
      "chip": "ym2612"
    },
    {
      "channel": 3,
      "note": 78,
      "start": 78.2165,
      "duration": 0.0178,
      "velocity": 120,
      "chip": "ym2612"
    },
    {
      "channel": 2,
      "note": 54,
      "start": 78.2177,
      "duration": 0.0178,
      "velocity": 100,
      "chip": "ym2612"
    },
    {
      "channel": 0,
      "note": 40,
      "start": 78.2321,
      "duration": 0.0167,
      "velocity": 115,
      "chip": "ym2612"
    },
    {
      "channel": 4,
      "note": 71,
      "start": 78.2332,
      "duration": 0.0167,
      "velocity": 120,
      "chip": "ym2612"
    },
    {
      "channel": 3,
      "note": 78,
      "start": 78.2344,
      "duration": 0.0167,
      "velocity": 120,
      "chip": "ym2612"
    },
    {
      "channel": 2,
      "note": 54,
      "start": 78.2354,
      "duration": 0.0167,
      "velocity": 100,
      "chip": "ym2612"
    },
    {
      "channel": 0,
      "note": 40,
      "start": 78.2487,
      "duration": 0.0162,
      "velocity": 115,
      "chip": "ym2612"
    },
    {
      "channel": 4,
      "note": 71,
      "start": 78.2499,
      "duration": 0.0162,
      "velocity": 120,
      "chip": "ym2612"
    },
    {
      "channel": 3,
      "note": 78,
      "start": 78.251,
      "duration": 0.0162,
      "velocity": 120,
      "chip": "ym2612"
    },
    {
      "channel": 2,
      "note": 54,
      "start": 78.2521,
      "duration": 0.0163,
      "velocity": 100,
      "chip": "ym2612"
    },
    {
      "channel": 0,
      "note": 40,
      "start": 78.2649,
      "duration": 0.0141,
      "velocity": 115,
      "chip": "ym2612"
    },
    {
      "channel": 4,
      "note": 71,
      "start": 78.2661,
      "duration": 0.0141,
      "velocity": 120,
      "chip": "ym2612"
    },
    {
      "channel": 3,
      "note": 78,
      "start": 78.2672,
      "duration": 0.0141,
      "velocity": 120,
      "chip": "ym2612"
    },
    {
      "channel": 2,
      "note": 54,
      "start": 78.2684,
      "duration": 0.014,
      "velocity": 100,
      "chip": "ym2612"
    },
    {
      "channel": 0,
      "note": 41,
      "start": 78.279,
      "duration": 0.0185,
      "velocity": 115,
      "chip": "ym2612"
    },
    {
      "channel": 4,
      "note": 71,
      "start": 78.2802,
      "duration": 0.0188,
      "velocity": 120,
      "chip": "ym2612"
    },
    {
      "channel": 3,
      "note": 78,
      "start": 78.2813,
      "duration": 0.019,
      "velocity": 120,
      "chip": "ym2612"
    },
    {
      "channel": 2,
      "note": 54,
      "start": 78.2824,
      "duration": 0.0193,
      "velocity": 100,
      "chip": "ym2612"
    },
    {
      "channel": 0,
      "note": 41,
      "start": 78.2975,
      "duration": 0.0161,
      "velocity": 115,
      "chip": "ym2612"
    },
    {
      "channel": 4,
      "note": 69,
      "start": 78.2989,
      "duration": 0.0159,
      "velocity": 120,
      "chip": "ym2612"
    },
    {
      "channel": 3,
      "note": 76,
      "start": 78.3003,
      "duration": 0.0157,
      "velocity": 120,
      "chip": "ym2612"
    },
    {
      "channel": 2,
      "note": 54,
      "start": 78.3018,
      "duration": 0.0155,
      "velocity": 100,
      "chip": "ym2612"
    },
    {
      "channel": 0,
      "note": 42,
      "start": 78.3136,
      "duration": 0.0134,
      "velocity": 115,
      "chip": "ym2612"
    },
    {
      "channel": 4,
      "note": 69,
      "start": 78.3148,
      "duration": 0.0157,
      "velocity": 120,
      "chip": "ym2612"
    },
    {
      "channel": 3,
      "note": 76,
      "start": 78.316,
      "duration": 0.0156,
      "velocity": 120,
      "chip": "ym2612"
    },
    {
      "channel": 2,
      "note": 54,
      "start": 78.3172,
      "duration": 0.0155,
      "velocity": 100,
      "chip": "ym2612"
    },
    {
      "channel": 0,
      "note": 42,
      "start": 78.327,
      "duration": 0.0161,
      "velocity": 115,
      "chip": "ym2612"
    },
    {
      "channel": 4,
      "note": 69,
      "start": 78.3305,
      "duration": 0.014,
      "velocity": 120,
      "chip": "ym2612"
    },
    {
      "channel": 3,
      "note": 76,
      "start": 78.3317,
      "duration": 0.014,
      "velocity": 120,
      "chip": "ym2612"
    },
    {
      "channel": 2,
      "note": 54,
      "start": 78.3328,
      "duration": 0.0141,
      "velocity": 100,
      "chip": "ym2612"
    },
    {
      "channel": 0,
      "note": 43,
      "start": 78.3431,
      "duration": 0.0161,
      "velocity": 115,
      "chip": "ym2612"
    },
    {
      "channel": 4,
      "note": 69,
      "start": 78.3445,
      "duration": 0.0158,
      "velocity": 120,
      "chip": "ym2612"
    },
    {
      "channel": 3,
      "note": 76,
      "start": 78.3457,
      "duration": 0.0185,
      "velocity": 120,
      "chip": "ym2612"
    },
    {
      "channel": 2,
      "note": 54,
      "start": 78.3468,
      "duration": 0.0185,
      "velocity": 100,
      "chip": "ym2612"
    },
    {
      "channel": 0,
      "note": 43,
      "start": 78.3592,
      "duration": 0.0161,
      "velocity": 115,
      "chip": "ym2612"
    },
    {
      "channel": 4,
      "note": 69,
      "start": 78.3603,
      "duration": 0.0161,
      "velocity": 120,
      "chip": "ym2612"
    },
    {
      "channel": 3,
      "note": 76,
      "start": 78.3642,
      "duration": 0.0161,
      "velocity": 120,
      "chip": "ym2612"
    },
    {
      "channel": 2,
      "note": 54,
      "start": 78.3653,
      "duration": 0.0161,
      "velocity": 100,
      "chip": "ym2612"
    },
    {
      "channel": 0,
      "note": 44,
      "start": 78.3753,
      "duration": 0.0161,
      "velocity": 115,
      "chip": "ym2612"
    },
    {
      "channel": 4,
      "note": 69,
      "start": 78.3764,
      "duration": 0.0162,
      "velocity": 120,
      "chip": "ym2612"
    },
    {
      "channel": 3,
      "note": 76,
      "start": 78.3803,
      "duration": 0.0133,
      "velocity": 120,
      "chip": "ym2612"
    },
    {
      "channel": 2,
      "note": 54,
      "start": 78.3814,
      "duration": 0.0158,
      "velocity": 100,
      "chip": "ym2612"
    },
    {
      "channel": 0,
      "note": 44,
      "start": 78.3913,
      "duration": 0.0161,
      "velocity": 115,
      "chip": "ym2612"
    },
    {
      "channel": 4,
      "note": 69,
      "start": 78.3926,
      "duration": 0.0161,
      "velocity": 120,
      "chip": "ym2612"
    },
    {
      "channel": 3,
      "note": 76,
      "start": 78.3936,
      "duration": 0.0161,
      "velocity": 120,
      "chip": "ym2612"
    },
    {
      "channel": 2,
      "note": 54,
      "start": 78.3972,
      "duration": 0.014,
      "velocity": 100,
      "chip": "ym2612"
    },
    {
      "channel": 0,
      "note": 44,
      "start": 78.4074,
      "duration": 0.0161,
      "velocity": 115,
      "chip": "ym2612"
    },
    {
      "channel": 4,
      "note": 69,
      "start": 78.4086,
      "duration": 0.0161,
      "velocity": 120,
      "chip": "ym2612"
    },
    {
      "channel": 3,
      "note": 76,
      "start": 78.4097,
      "duration": 0.0161,
      "velocity": 120,
      "chip": "ym2612"
    },
    {
      "channel": 2,
      "note": 54,
      "start": 78.4112,
      "duration": 0.0158,
      "velocity": 100,
      "chip": "ym2612"
    },
    {
      "channel": 0,
      "note": 45,
      "start": 78.4235,
      "duration": 0.0161,
      "velocity": 115,
      "chip": "ym2612"
    },
    {
      "channel": 4,
      "note": 69,
      "start": 78.4247,
      "duration": 0.0161,
      "velocity": 120,
      "chip": "ym2612"
    },
    {
      "channel": 3,
      "note": 76,
      "start": 78.4258,
      "duration": 0.0161,
      "velocity": 120,
      "chip": "ym2612"
    },
    {
      "channel": 2,
      "note": 54,
      "start": 78.427,
      "duration": 0.0161,
      "velocity": 100,
      "chip": "ym2612"
    },
    {
      "channel": 0,
      "note": 45,
      "start": 78.4397,
      "duration": 0.0161,
      "velocity": 115,
      "chip": "ym2612"
    },
    {
      "channel": 4,
      "note": 69,
      "start": 78.4408,
      "duration": 0.0161,
      "velocity": 120,
      "chip": "ym2612"
    },
    {
      "channel": 3,
      "note": 76,
      "start": 78.442,
      "duration": 0.0161,
      "velocity": 120,
      "chip": "ym2612"
    },
    {
      "channel": 2,
      "note": 54,
      "start": 78.4431,
      "duration": 0.0162,
      "velocity": 100,
      "chip": "ym2612"
    },
    {
      "channel": 0,
      "note": 46,
      "start": 78.4558,
      "duration": 0.0161,
      "velocity": 115,
      "chip": "ym2612"
    },
    {
      "channel": 4,
      "note": 69,
      "start": 78.4569,
      "duration": 0.0161,
      "velocity": 120,
      "chip": "ym2612"
    },
    {
      "channel": 3,
      "note": 76,
      "start": 78.4581,
      "duration": 0.0161,
      "velocity": 120,
      "chip": "ym2612"
    },
    {
      "channel": 2,
      "note": 54,
      "start": 78.4592,
      "duration": 0.0161,
      "velocity": 100,
      "chip": "ym2612"
    },
    {
      "channel": 0,
      "note": 46,
      "start": 78.4719,
      "duration": 0.0178,
      "velocity": 124,
      "chip": "ym2612"
    },
    {
      "channel": 4,
      "note": 69,
      "start": 78.473,
      "duration": 0.0181,
      "velocity": 120,
      "chip": "ym2612"
    },
    {
      "channel": 3,
      "note": 76,
      "start": 78.4742,
      "duration": 0.0184,
      "velocity": 120,
      "chip": "ym2612"
    },
    {
      "channel": 2,
      "note": 54,
      "start": 78.4753,
      "duration": 0.0215,
      "velocity": 100,
      "chip": "ym2612"
    },
    {
      "channel": 0,
      "note": 84,
      "start": 78.4898,
      "duration": 0.0144,
      "velocity": 124,
      "chip": "ym2612"
    },
    {
      "channel": 4,
      "note": 71,
      "start": 78.4912,
      "duration": 0.0142,
      "velocity": 120,
      "chip": "ym2612"
    },
    {
      "channel": 3,
      "note": 78,
      "start": 78.4926,
      "duration": 0.014,
      "velocity": 120,
      "chip": "ym2612"
    },
    {
      "channel": 2,
      "note": 54,
      "start": 78.4968,
      "duration": 0.0109,
      "velocity": 100,
      "chip": "ym2612"
    },
    {
      "channel": 0,
      "note": 82,
      "start": 78.5041,
      "duration": 0.016,
      "velocity": 124,
      "chip": "ym2612"
    },
    {
      "channel": 4,
      "note": 71,
      "start": 78.5054,
      "duration": 0.016,
      "velocity": 120,
      "chip": "ym2612"
    },
    {
      "channel": 3,
      "note": 78,
      "start": 78.5066,
      "duration": 0.0159,
      "velocity": 120,
      "chip": "ym2612"
    },
    {
      "channel": 2,
      "note": 54,
      "start": 78.5078,
      "duration": 0.0159,
      "velocity": 100,
      "chip": "ym2612"
    },
    {
      "channel": 0,
      "note": 80,
      "start": 78.5202,
      "duration": 0.0161,
      "velocity": 124,
      "chip": "ym2612"
    },
    {
      "channel": 4,
      "note": 71,
      "start": 78.5214,
      "duration": 0.0161,
      "velocity": 120,
      "chip": "ym2612"
    },
    {
      "channel": 3,
      "note": 78,
      "start": 78.5224,
      "duration": 0.0161,
      "velocity": 120,
      "chip": "ym2612"
    },
    {
      "channel": 2,
      "note": 54,
      "start": 78.5236,
      "duration": 0.0161,
      "velocity": 100,
      "chip": "ym2612"
    },
    {
      "channel": 0,
      "note": 77,
      "start": 78.5363,
      "duration": 0.0161,
      "velocity": 124,
      "chip": "ym2612"
    },
    {
      "channel": 4,
      "note": 71,
      "start": 78.5375,
      "duration": 0.0161,
      "velocity": 120,
      "chip": "ym2612"
    },
    {
      "channel": 3,
      "note": 78,
      "start": 78.5385,
      "duration": 0.0161,
      "velocity": 120,
      "chip": "ym2612"
    },
    {
      "channel": 2,
      "note": 54,
      "start": 78.5397,
      "duration": 0.0161,
      "velocity": 100,
      "chip": "ym2612"
    },
    {
      "channel": 0,
      "note": 75,
      "start": 78.5524,
      "duration": 0.0161,
      "velocity": 124,
      "chip": "ym2612"
    },
    {
      "channel": 4,
      "note": 71,
      "start": 78.5536,
      "duration": 0.0161,
      "velocity": 120,
      "chip": "ym2612"
    },
    {
      "channel": 3,
      "note": 78,
      "start": 78.5546,
      "duration": 0.0161,
      "velocity": 120,
      "chip": "ym2612"
    },
    {
      "channel": 2,
      "note": 54,
      "start": 78.5558,
      "duration": 0.0161,
      "velocity": 100,
      "chip": "ym2612"
    },
    {
      "channel": 0,
      "note": 72,
      "start": 78.5685,
      "duration": 0.0161,
      "velocity": 124,
      "chip": "ym2612"
    },
    {
      "channel": 4,
      "note": 71,
      "start": 78.5697,
      "duration": 0.0161,
      "velocity": 120,
      "chip": "ym2612"
    },
    {
      "channel": 3,
      "note": 78,
      "start": 78.5708,
      "duration": 0.0161,
      "velocity": 120,
      "chip": "ym2612"
    },
    {
      "channel": 2,
      "note": 54,
      "start": 78.5719,
      "duration": 0.0162,
      "velocity": 100,
      "chip": "ym2612"
    },
    {
      "channel": 0,
      "note": 70,
      "start": 78.5846,
      "duration": 0.0161,
      "velocity": 124,
      "chip": "ym2612"
    },
    {
      "channel": 4,
      "note": 71,
      "start": 78.5858,
      "duration": 0.0161,
      "velocity": 120,
      "chip": "ym2612"
    },
    {
      "channel": 3,
      "note": 78,
      "start": 78.5869,
      "duration": 0.0161,
      "velocity": 120,
      "chip": "ym2612"
    },
    {
      "channel": 2,
      "note": 54,
      "start": 78.588,
      "duration": 0.016,
      "velocity": 100,
      "chip": "ym2612"
    },
    {
      "channel": 0,
      "note": 68,
      "start": 78.6007,
      "duration": 0.0161,
      "velocity": 124,
      "chip": "ym2612"
    },
    {
      "channel": 4,
      "note": 71,
      "start": 78.6018,
      "duration": 0.0161,
      "velocity": 120,
      "chip": "ym2612"
    },
    {
      "channel": 3,
      "note": 78,
      "start": 78.603,
      "duration": 0.0161,
      "velocity": 120,
      "chip": "ym2612"
    },
    {
      "channel": 2,
      "note": 54,
      "start": 78.6041,
      "duration": 0.0162,
      "velocity": 100,
      "chip": "ym2612"
    },
    {
      "channel": 0,
      "note": 65,
      "start": 78.6168,
      "duration": 0.0161,
      "velocity": 124,
      "chip": "ym2612"
    },
    {
      "channel": 4,
      "note": 71,
      "start": 78.6179,
      "duration": 0.0161,
      "velocity": 120,
      "chip": "ym2612"
    },
    {
      "channel": 3,
      "note": 78,
      "start": 78.6191,
      "duration": 0.0161,
      "velocity": 120,
      "chip": "ym2612"
    },
    {
      "channel": 2,
      "note": 54,
      "start": 78.6202,
      "duration": 0.0161,
      "velocity": 100,
      "chip": "ym2612"
    },
    {
      "channel": 0,
      "note": 63,
      "start": 78.6329,
      "duration": 0.0153,
      "velocity": 1,
      "chip": "ym2612"
    },
    {
      "channel": 4,
      "note": 71,
      "start": 78.634,
      "duration": 0.0153,
      "velocity": 120,
      "chip": "ym2612"
    },
    {
      "channel": 3,
      "note": 78,
      "start": 78.6352,
      "duration": 0.0153,
      "velocity": 120,
      "chip": "ym2612"
    },
    {
      "channel": 2,
      "note": 54,
      "start": 78.6363,
      "duration": 0.0153,
      "velocity": 100,
      "chip": "ym2612"
    },
    {
      "channel": 4,
      "note": 71,
      "start": 78.6494,
      "duration": 0.0153,
      "velocity": 120,
      "chip": "ym2612"
    },
    {
      "channel": 3,
      "note": 78,
      "start": 78.6505,
      "duration": 0.0153,
      "velocity": 120,
      "chip": "ym2612"
    },
    {
      "channel": 2,
      "note": 54,
      "start": 78.6516,
      "duration": 0.0153,
      "velocity": 100,
      "chip": "ym2612"
    },
    {
      "channel": 4,
      "note": 71,
      "start": 78.6646,
      "duration": 0.0163,
      "velocity": 120,
      "chip": "ym2612"
    },
    {
      "channel": 3,
      "note": 78,
      "start": 78.6658,
      "duration": 0.0165,
      "velocity": 120,
      "chip": "ym2612"
    },
    {
      "channel": 2,
      "note": 54,
      "start": 78.6668,
      "duration": 0.0169,
      "velocity": 100,
      "chip": "ym2612"
    },
    {
      "channel": 4,
      "note": 69,
      "start": 78.681,
      "duration": 0.0173,
      "velocity": 120,
      "chip": "ym2612"
    },
    {
      "channel": 3,
      "note": 76,
      "start": 78.6824,
      "duration": 0.0171,
      "velocity": 120,
      "chip": "ym2612"
    },
    {
      "channel": 2,
      "note": 54,
      "start": 78.6838,
      "duration": 0.0168,
      "velocity": 100,
      "chip": "ym2612"
    },
    {
      "channel": 4,
      "note": 69,
      "start": 78.6983,
      "duration": 0.0166,
      "velocity": 120,
      "chip": "ym2612"
    },
    {
      "channel": 3,
      "note": 76,
      "start": 78.6995,
      "duration": 0.0166,
      "velocity": 120,
      "chip": "ym2612"
    },
    {
      "channel": 2,
      "note": 54,
      "start": 78.7006,
      "duration": 0.0165,
      "velocity": 100,
      "chip": "ym2612"
    },
    {
      "channel": 4,
      "note": 69,
      "start": 78.7149,
      "duration": 0.0163,
      "velocity": 120,
      "chip": "ym2612"
    },
    {
      "channel": 3,
      "note": 76,
      "start": 78.716,
      "duration": 0.0163,
      "velocity": 120,
      "chip": "ym2612"
    },
    {
      "channel": 2,
      "note": 54,
      "start": 78.7171,
      "duration": 0.0163,
      "velocity": 100,
      "chip": "ym2612"
    },
    {
      "channel": 4,
      "note": 69,
      "start": 78.7312,
      "duration": 0.0142,
      "velocity": 120,
      "chip": "ym2612"
    },
    {
      "channel": 3,
      "note": 76,
      "start": 78.7323,
      "duration": 0.0142,
      "velocity": 120,
      "chip": "ym2612"
    },
    {
      "channel": 2,
      "note": 54,
      "start": 78.7335,
      "duration": 0.0142,
      "velocity": 100,
      "chip": "ym2612"
    },
    {
      "channel": 4,
      "note": 69,
      "start": 78.7454,
      "duration": 0.0185,
      "velocity": 120,
      "chip": "ym2612"
    },
    {
      "channel": 3,
      "note": 76,
      "start": 78.7466,
      "duration": 0.0185,
      "velocity": 120,
      "chip": "ym2612"
    },
    {
      "channel": 2,
      "note": 54,
      "start": 78.7477,
      "duration": 0.0185,
      "velocity": 100,
      "chip": "ym2612"
    },
    {
      "channel": 4,
      "note": 69,
      "start": 78.7639,
      "duration": 0.0161,
      "velocity": 120,
      "chip": "ym2612"
    },
    {
      "channel": 3,
      "note": 76,
      "start": 78.7651,
      "duration": 0.0161,
      "velocity": 120,
      "chip": "ym2612"
    },
    {
      "channel": 2,
      "note": 54,
      "start": 78.7662,
      "duration": 0.0161,
      "velocity": 100,
      "chip": "ym2612"
    },
    {
      "channel": 4,
      "note": 69,
      "start": 78.78,
      "duration": 0.0134,
      "velocity": 120,
      "chip": "ym2612"
    },
    {
      "channel": 3,
      "note": 76,
      "start": 78.7812,
      "duration": 0.0158,
      "velocity": 120,
      "chip": "ym2612"
    },
    {
      "channel": 2,
      "note": 54,
      "start": 78.7823,
      "duration": 0.0158,
      "velocity": 100,
      "chip": "ym2612"
    },
    {
      "channel": 4,
      "note": 69,
      "start": 78.7934,
      "duration": 0.0161,
      "velocity": 120,
      "chip": "ym2612"
    },
    {
      "channel": 3,
      "note": 76,
      "start": 78.7969,
      "duration": 0.0138,
      "velocity": 120,
      "chip": "ym2612"
    },
    {
      "channel": 2,
      "note": 54,
      "start": 78.7981,
      "duration": 0.014,
      "velocity": 100,
      "chip": "ym2612"
    },
    {
      "channel": 4,
      "note": 69,
      "start": 78.8095,
      "duration": 0.0161,
      "velocity": 120,
      "chip": "ym2612"
    },
    {
      "channel": 3,
      "note": 76,
      "start": 78.8107,
      "duration": 0.016,
      "velocity": 120,
      "chip": "ym2612"
    },
    {
      "channel": 2,
      "note": 54,
      "start": 78.8121,
      "duration": 0.0185,
      "velocity": 100,
      "chip": "ym2612"
    },
    {
      "channel": 4,
      "note": 69,
      "start": 78.8256,
      "duration": 0.0161,
      "velocity": 120,
      "chip": "ym2612"
    },
    {
      "channel": 3,
      "note": 76,
      "start": 78.8267,
      "duration": 0.0162,
      "velocity": 120,
      "chip": "ym2612"
    },
    {
      "channel": 2,
      "note": 54,
      "start": 78.8306,
      "duration": 0.0161,
      "velocity": 100,
      "chip": "ym2612"
    },
    {
      "channel": 4,
      "note": 69,
      "start": 78.8417,
      "duration": 0.0161,
      "velocity": 120,
      "chip": "ym2612"
    },
    {
      "channel": 3,
      "note": 76,
      "start": 78.8429,
      "duration": 0.0161,
      "velocity": 120,
      "chip": "ym2612"
    },
    {
      "channel": 2,
      "note": 54,
      "start": 78.8467,
      "duration": 0.0134,
      "velocity": 100,
      "chip": "ym2612"
    },
    {
      "channel": 4,
      "note": 69,
      "start": 78.8578,
      "duration": 0.0201,
      "velocity": 120,
      "chip": "ym2612"
    },
    {
      "channel": 3,
      "note": 76,
      "start": 78.859,
      "duration": 0.0204,
      "velocity": 120,
      "chip": "ym2612"
    },
    {
      "channel": 2,
      "note": 54,
      "start": 78.86,
      "duration": 0.0207,
      "velocity": 100,
      "chip": "ym2612"
    },
    {
      "channel": 0,
      "note": 36,
      "start": 78.8762,
      "duration": 0.0144,
      "velocity": 115,
      "chip": "ym2612"
    },
    {
      "channel": 4,
      "note": 66,
      "start": 78.8779,
      "duration": 0.0139,
      "velocity": 120,
      "chip": "ym2612"
    },
    {
      "channel": 3,
      "note": 73,
      "start": 78.8793,
      "duration": 0.0136,
      "velocity": 120,
      "chip": "ym2612"
    },
    {
      "channel": 2,
      "note": 54,
      "start": 78.8808,
      "duration": 0.0161,
      "velocity": 100,
      "chip": "ym2612"
    },
    {
      "channel": 0,
      "note": 36,
      "start": 78.8906,
      "duration": 0.016,
      "velocity": 115,
      "chip": "ym2612"
    },
    {
      "channel": 4,
      "note": 66,
      "start": 78.8918,
      "duration": 0.016,
      "velocity": 120,
      "chip": "ym2612"
    },
    {
      "channel": 3,
      "note": 73,
      "start": 78.8929,
      "duration": 0.016,
      "velocity": 120,
      "chip": "ym2612"
    },
    {
      "channel": 2,
      "note": 54,
      "start": 78.8969,
      "duration": 0.0132,
      "velocity": 100,
      "chip": "ym2612"
    },
    {
      "channel": 0,
      "note": 37,
      "start": 78.9066,
      "duration": 0.0161,
      "velocity": 115,
      "chip": "ym2612"
    },
    {
      "channel": 4,
      "note": 66,
      "start": 78.9078,
      "duration": 0.0161,
      "velocity": 120,
      "chip": "ym2612"
    },
    {
      "channel": 3,
      "note": 73,
      "start": 78.9089,
      "duration": 0.0161,
      "velocity": 120,
      "chip": "ym2612"
    },
    {
      "channel": 2,
      "note": 54,
      "start": 78.91,
      "duration": 0.0161,
      "velocity": 100,
      "chip": "ym2612"
    },
    {
      "channel": 0,
      "note": 37,
      "start": 78.9227,
      "duration": 0.0161,
      "velocity": 115,
      "chip": "ym2612"
    },
    {
      "channel": 4,
      "note": 66,
      "start": 78.9239,
      "duration": 0.0161,
      "velocity": 120,
      "chip": "ym2612"
    },
    {
      "channel": 3,
      "note": 73,
      "start": 78.925,
      "duration": 0.0161,
      "velocity": 120,
      "chip": "ym2612"
    },
    {
      "channel": 2,
      "note": 54,
      "start": 78.9261,
      "duration": 0.0161,
      "velocity": 100,
      "chip": "ym2612"
    },
    {
      "channel": 0,
      "note": 38,
      "start": 78.9388,
      "duration": 0.0161,
      "velocity": 115,
      "chip": "ym2612"
    },
    {
      "channel": 4,
      "note": 66,
      "start": 78.94,
      "duration": 0.0161,
      "velocity": 120,
      "chip": "ym2612"
    },
    {
      "channel": 3,
      "note": 73,
      "start": 78.9411,
      "duration": 0.0161,
      "velocity": 120,
      "chip": "ym2612"
    },
    {
      "channel": 2,
      "note": 54,
      "start": 78.9422,
      "duration": 0.0161,
      "velocity": 100,
      "chip": "ym2612"
    },
    {
      "channel": 0,
      "note": 38,
      "start": 78.9549,
      "duration": 0.0161,
      "velocity": 115,
      "chip": "ym2612"
    },
    {
      "channel": 4,
      "note": 66,
      "start": 78.956,
      "duration": 0.0161,
      "velocity": 120,
      "chip": "ym2612"
    },
    {
      "channel": 3,
      "note": 73,
      "start": 78.9572,
      "duration": 0.0161,
      "velocity": 120,
      "chip": "ym2612"
    },
    {
      "channel": 2,
      "note": 54,
      "start": 78.9583,
      "duration": 0.0161,
      "velocity": 100,
      "chip": "ym2612"
    },
    {
      "channel": 0,
      "note": 39,
      "start": 78.971,
      "duration": 0.0161,
      "velocity": 115,
      "chip": "ym2612"
    },
    {
      "channel": 4,
      "note": 66,
      "start": 78.9721,
      "duration": 0.0161,
      "velocity": 120,
      "chip": "ym2612"
    },
    {
      "channel": 3,
      "note": 73,
      "start": 78.9733,
      "duration": 0.0161,
      "velocity": 120,
      "chip": "ym2612"
    },
    {
      "channel": 2,
      "note": 54,
      "start": 78.9744,
      "duration": 0.0161,
      "velocity": 100,
      "chip": "ym2612"
    },
    {
      "channel": 0,
      "note": 39,
      "start": 78.9871,
      "duration": 0.0161,
      "velocity": 115,
      "chip": "ym2612"
    },
    {
      "channel": 4,
      "note": 66,
      "start": 78.9882,
      "duration": 0.0161,
      "velocity": 120,
      "chip": "ym2612"
    },
    {
      "channel": 3,
      "note": 73,
      "start": 78.9894,
      "duration": 0.0161,
      "velocity": 120,
      "chip": "ym2612"
    },
    {
      "channel": 2,
      "note": 54,
      "start": 78.9905,
      "duration": 0.0161,
      "velocity": 100,
      "chip": "ym2612"
    },
    {
      "channel": 0,
      "note": 40,
      "start": 79.0032,
      "duration": 0.0162,
      "velocity": 115,
      "chip": "ym2612"
    },
    {
      "channel": 4,
      "note": 66,
      "start": 79.0043,
      "duration": 0.0161,
      "velocity": 120,
      "chip": "ym2612"
    },
    {
      "channel": 3,
      "note": 73,
      "start": 79.0055,
      "duration": 0.0162,
      "velocity": 120,
      "chip": "ym2612"
    },
    {
      "channel": 2,
      "note": 54,
      "start": 79.0066,
      "duration": 0.0161,
      "velocity": 100,
      "chip": "ym2612"
    },
    {
      "channel": 0,
      "note": 40,
      "start": 79.0193,
      "duration": 0.0161,
      "velocity": 115,
      "chip": "ym2612"
    },
    {
      "channel": 4,
      "note": 66,
      "start": 79.0205,
      "duration": 0.0161,
      "velocity": 120,
      "chip": "ym2612"
    },
    {
      "channel": 3,
      "note": 73,
      "start": 79.0216,
      "duration": 0.0161,
      "velocity": 120,
      "chip": "ym2612"
    },
    {
      "channel": 2,
      "note": 54,
      "start": 79.0227,
      "duration": 0.0161,
      "velocity": 100,
      "chip": "ym2612"
    },
    {
      "channel": 0,
      "note": 40,
      "start": 79.0354,
      "duration": 0.0161,
      "velocity": 115,
      "chip": "ym2612"
    },
    {
      "channel": 4,
      "note": 66,
      "start": 79.0366,
      "duration": 0.0161,
      "velocity": 120,
      "chip": "ym2612"
    },
    {
      "channel": 3,
      "note": 73,
      "start": 79.0377,
      "duration": 0.0161,
      "velocity": 120,
      "chip": "ym2612"
    },
    {
      "channel": 2,
      "note": 54,
      "start": 79.0388,
      "duration": 0.0162,
      "velocity": 100,
      "chip": "ym2612"
    },
    {
      "channel": 0,
      "note": 41,
      "start": 79.0515,
      "duration": 0.0161,
      "velocity": 115,
      "chip": "ym2612"
    },
    {
      "channel": 4,
      "note": 66,
      "start": 79.0527,
      "duration": 0.0163,
      "velocity": 120,
      "chip": "ym2612"
    },
    {
      "channel": 3,
      "note": 73,
      "start": 79.0538,
      "duration": 0.0166,
      "velocity": 120,
      "chip": "ym2612"
    },
    {
      "channel": 2,
      "note": 54,
      "start": 79.055,
      "duration": 0.0168,
      "velocity": 100,
      "chip": "ym2612"
    },
    {
      "channel": 0,
      "note": 41,
      "start": 79.0676,
      "duration": 0.0161,
      "velocity": 115,
      "chip": "ym2612"
    },
    {
      "channel": 4,
      "note": 71,
      "start": 79.069,
      "duration": 0.0159,
      "velocity": 120,
      "chip": "ym2612"
    },
    {
      "channel": 3,
      "note": 78,
      "start": 79.0704,
      "duration": 0.0157,
      "velocity": 120,
      "chip": "ym2612"
    },
    {
      "channel": 2,
      "note": 54,
      "start": 79.0719,
      "duration": 0.0155,
      "velocity": 100,
      "chip": "ym2612"
    },
    {
      "channel": 0,
      "note": 42,
      "start": 79.0837,
      "duration": 0.0161,
      "velocity": 115,
      "chip": "ym2612"
    },
    {
      "channel": 4,
      "note": 71,
      "start": 79.0849,
      "duration": 0.016,
      "velocity": 120,
      "chip": "ym2612"
    },
    {
      "channel": 3,
      "note": 78,
      "start": 79.0861,
      "duration": 0.016,
      "velocity": 120,
      "chip": "ym2612"
    },
    {
      "channel": 2,
      "note": 54,
      "start": 79.0873,
      "duration": 0.0159,
      "velocity": 100,
      "chip": "ym2612"
    },
    {
      "channel": 0,
      "note": 42,
      "start": 79.0998,
      "duration": 0.0161,
      "velocity": 115,
      "chip": "ym2612"
    },
    {
      "channel": 4,
      "note": 71,
      "start": 79.101,
      "duration": 0.0161,
      "velocity": 120,
      "chip": "ym2612"
    },
    {
      "channel": 3,
      "note": 78,
      "start": 79.1021,
      "duration": 0.0161,
      "velocity": 120,
      "chip": "ym2612"
    },
    {
      "channel": 2,
      "note": 54,
      "start": 79.1032,
      "duration": 0.0161,
      "velocity": 100,
      "chip": "ym2612"
    },
    {
      "channel": 0,
      "note": 43,
      "start": 79.1159,
      "duration": 0.0161,
      "velocity": 115,
      "chip": "ym2612"
    },
    {
      "channel": 4,
      "note": 71,
      "start": 79.1171,
      "duration": 0.0161,
      "velocity": 120,
      "chip": "ym2612"
    },
    {
      "channel": 3,
      "note": 78,
      "start": 79.1182,
      "duration": 0.0161,
      "velocity": 120,
      "chip": "ym2612"
    },
    {
      "channel": 2,
      "note": 54,
      "start": 79.1193,
      "duration": 0.0161,
      "velocity": 100,
      "chip": "ym2612"
    },
    {
      "channel": 0,
      "note": 43,
      "start": 79.132,
      "duration": 0.0161,
      "velocity": 115,
      "chip": "ym2612"
    },
    {
      "channel": 4,
      "note": 71,
      "start": 79.1332,
      "duration": 0.0161,
      "velocity": 120,
      "chip": "ym2612"
    },
    {
      "channel": 3,
      "note": 78,
      "start": 79.1343,
      "duration": 0.0161,
      "velocity": 120,
      "chip": "ym2612"
    },
    {
      "channel": 2,
      "note": 54,
      "start": 79.1354,
      "duration": 0.0161,
      "velocity": 100,
      "chip": "ym2612"
    },
    {
      "channel": 0,
      "note": 44,
      "start": 79.1481,
      "duration": 0.0173,
      "velocity": 115,
      "chip": "ym2612"
    },
    {
      "channel": 4,
      "note": 71,
      "start": 79.1493,
      "duration": 0.0172,
      "velocity": 120,
      "chip": "ym2612"
    },
    {
      "channel": 3,
      "note": 78,
      "start": 79.1504,
      "duration": 0.0173,
      "velocity": 120,
      "chip": "ym2612"
    },
    {
      "channel": 2,
      "note": 54,
      "start": 79.1515,
      "duration": 0.0173,
      "velocity": 100,
      "chip": "ym2612"
    },
    {
      "channel": 0,
      "note": 44,
      "start": 79.1654,
      "duration": 0.0167,
      "velocity": 115,
      "chip": "ym2612"
    },
    {
      "channel": 4,
      "note": 71,
      "start": 79.1665,
      "duration": 0.0167,
      "velocity": 120,
      "chip": "ym2612"
    },
    {
      "channel": 3,
      "note": 78,
      "start": 79.1677,
      "duration": 0.0167,
      "velocity": 120,
      "chip": "ym2612"
    },
    {
      "channel": 2,
      "note": 54,
      "start": 79.1688,
      "duration": 0.0166,
      "velocity": 100,
      "chip": "ym2612"
    },
    {
      "channel": 0,
      "note": 44,
      "start": 79.1821,
      "duration": 0.0163,
      "velocity": 115,
      "chip": "ym2612"
    },
    {
      "channel": 4,
      "note": 71,
      "start": 79.1832,
      "duration": 0.0163,
      "velocity": 120,
      "chip": "ym2612"
    },
    {
      "channel": 3,
      "note": 78,
      "start": 79.1844,
      "duration": 0.0163,
      "velocity": 120,
      "chip": "ym2612"
    },
    {
      "channel": 2,
      "note": 54,
      "start": 79.1854,
      "duration": 0.0163,
      "velocity": 100,
      "chip": "ym2612"
    },
    {
      "channel": 0,
      "note": 45,
      "start": 79.1983,
      "duration": 0.0145,
      "velocity": 115,
      "chip": "ym2612"
    },
    {
      "channel": 4,
      "note": 71,
      "start": 79.1995,
      "duration": 0.0145,
      "velocity": 120,
      "chip": "ym2612"
    },
    {
      "channel": 3,
      "note": 78,
      "start": 79.2006,
      "duration": 0.0145,
      "velocity": 120,
      "chip": "ym2612"
    },
    {
      "channel": 2,
      "note": 54,
      "start": 79.2018,
      "duration": 0.0145,
      "velocity": 100,
      "chip": "ym2612"
    },
    {
      "channel": 0,
      "note": 45,
      "start": 79.2129,
      "duration": 0.0185,
      "velocity": 115,
      "chip": "ym2612"
    },
    {
      "channel": 4,
      "note": 71,
      "start": 79.214,
      "duration": 0.0185,
      "velocity": 120,
      "chip": "ym2612"
    },
    {
      "channel": 3,
      "note": 78,
      "start": 79.2151,
      "duration": 0.0185,
      "velocity": 120,
      "chip": "ym2612"
    },
    {
      "channel": 2,
      "note": 54,
      "start": 79.2163,
      "duration": 0.0185,
      "velocity": 100,
      "chip": "ym2612"
    },
    {
      "channel": 0,
      "note": 46,
      "start": 79.2314,
      "duration": 0.0161,
      "velocity": 115,
      "chip": "ym2612"
    },
    {
      "channel": 4,
      "note": 71,
      "start": 79.2325,
      "duration": 0.0162,
      "velocity": 120,
      "chip": "ym2612"
    },
    {
      "channel": 3,
      "note": 78,
      "start": 79.2337,
      "duration": 0.0161,
      "velocity": 120,
      "chip": "ym2612"
    },
    {
      "channel": 2,
      "note": 54,
      "start": 79.2348,
      "duration": 0.0161,
      "velocity": 100,
      "chip": "ym2612"
    },
    {
      "channel": 0,
      "note": 46,
      "start": 79.2475,
      "duration": 0.0175,
      "velocity": 124,
      "chip": "ym2612"
    },
    {
      "channel": 4,
      "note": 71,
      "start": 79.2487,
      "duration": 0.0178,
      "velocity": 120,
      "chip": "ym2612"
    },
    {
      "channel": 3,
      "note": 78,
      "start": 79.2498,
      "duration": 0.018,
      "velocity": 120,
      "chip": "ym2612"
    },
    {
      "channel": 2,
      "note": 54,
      "start": 79.2509,
      "duration": 0.0183,
      "velocity": 100,
      "chip": "ym2612"
    },
    {
      "channel": 0,
      "note": 84,
      "start": 79.265,
      "duration": 0.012,
      "velocity": 124,
      "chip": "ym2612"
    },
    {
      "channel": 4,
      "note": 69,
      "start": 79.2664,
      "duration": 0.0121,
      "velocity": 120,
      "chip": "ym2612"
    },
    {
      "channel": 3,
      "note": 76,
      "start": 79.2678,
      "duration": 0.0119,
      "velocity": 120,
      "chip": "ym2612"
    },
    {
      "channel": 2,
      "note": 54,
      "start": 79.2693,
      "duration": 0.0116,
      "velocity": 100,
      "chip": "ym2612"
    },
    {
      "channel": 0,
      "note": 82,
      "start": 79.277,
      "duration": 0.016,
      "velocity": 124,
      "chip": "ym2612"
    },
    {
      "channel": 4,
      "note": 69,
      "start": 79.2785,
      "duration": 0.0184,
      "velocity": 120,
      "chip": "ym2612"
    },
    {
      "channel": 3,
      "note": 76,
      "start": 79.2797,
      "duration": 0.0184,
      "velocity": 120,
      "chip": "ym2612"
    },
    {
      "channel": 2,
      "note": 54,
      "start": 79.2809,
      "duration": 0.0183,
      "velocity": 100,
      "chip": "ym2612"
    },
    {
      "channel": 0,
      "note": 80,
      "start": 79.293,
      "duration": 0.0161,
      "velocity": 124,
      "chip": "ym2612"
    },
    {
      "channel": 4,
      "note": 69,
      "start": 79.2969,
      "duration": 0.0134,
      "velocity": 120,
      "chip": "ym2612"
    },
    {
      "channel": 3,
      "note": 76,
      "start": 79.2981,
      "duration": 0.0161,
      "velocity": 120,
      "chip": "ym2612"
    },
    {
      "channel": 2,
      "note": 54,
      "start": 79.2992,
      "duration": 0.0162,
      "velocity": 100,
      "chip": "ym2612"
    },
    {
      "channel": 0,
      "note": 77,
      "start": 79.3091,
      "duration": 0.0162,
      "velocity": 124,
      "chip": "ym2612"
    },
    {
      "channel": 4,
      "note": 69,
      "start": 79.3103,
      "duration": 0.0161,
      "velocity": 120,
      "chip": "ym2612"
    },
    {
      "channel": 3,
      "note": 76,
      "start": 79.3142,
      "duration": 0.0157,
      "velocity": 120,
      "chip": "ym2612"
    },
    {
      "channel": 2,
      "note": 54,
      "start": 79.3153,
      "duration": 0.0157,
      "velocity": 100,
      "chip": "ym2612"
    },
    {
      "channel": 0,
      "note": 75,
      "start": 79.3253,
      "duration": 0.0161,
      "velocity": 124,
      "chip": "ym2612"
    },
    {
      "channel": 4,
      "note": 69,
      "start": 79.3264,
      "duration": 0.0161,
      "velocity": 120,
      "chip": "ym2612"
    },
    {
      "channel": 3,
      "note": 76,
      "start": 79.3299,
      "duration": 0.0137,
      "velocity": 120,
      "chip": "ym2612"
    },
    {
      "channel": 2,
      "note": 54,
      "start": 79.331,
      "duration": 0.0141,
      "velocity": 100,
      "chip": "ym2612"
    },
    {
      "channel": 0,
      "note": 72,
      "start": 79.3413,
      "duration": 0.0161,
      "velocity": 124,
      "chip": "ym2612"
    },
    {
      "channel": 4,
      "note": 69,
      "start": 79.3425,
      "duration": 0.0161,
      "velocity": 120,
      "chip": "ym2612"
    },
    {
      "channel": 3,
      "note": 76,
      "start": 79.3436,
      "duration": 0.0161,
      "velocity": 120,
      "chip": "ym2612"
    },
    {
      "channel": 2,
      "note": 54,
      "start": 79.3451,
      "duration": 0.0185,
      "velocity": 100,
      "chip": "ym2612"
    },
    {
      "channel": 0,
      "note": 70,
      "start": 79.3574,
      "duration": 0.0161,
      "velocity": 124,
      "chip": "ym2612"
    },
    {
      "channel": 4,
      "note": 69,
      "start": 79.3586,
      "duration": 0.0161,
      "velocity": 120,
      "chip": "ym2612"
    },
    {
      "channel": 3,
      "note": 76,
      "start": 79.3597,
      "duration": 0.0161,
      "velocity": 120,
      "chip": "ym2612"
    },
    {
      "channel": 2,
      "note": 54,
      "start": 79.3636,
      "duration": 0.0134,
      "velocity": 100,
      "chip": "ym2612"
    },
    {
      "channel": 0,
      "note": 68,
      "start": 79.3735,
      "duration": 0.0161,
      "velocity": 124,
      "chip": "ym2612"
    },
    {
      "channel": 4,
      "note": 69,
      "start": 79.3747,
      "duration": 0.0161,
      "velocity": 120,
      "chip": "ym2612"
    },
    {
      "channel": 3,
      "note": 76,
      "start": 79.3758,
      "duration": 0.0161,
      "velocity": 120,
      "chip": "ym2612"
    },
    {
      "channel": 2,
      "note": 54,
      "start": 79.377,
      "duration": 0.0161,
      "velocity": 100,
      "chip": "ym2612"
    },
    {
      "channel": 0,
      "note": 65,
      "start": 79.3896,
      "duration": 0.0161,
      "velocity": 124,
      "chip": "ym2612"
    },
    {
      "channel": 4,
      "note": 69,
      "start": 79.3908,
      "duration": 0.0162,
      "velocity": 120,
      "chip": "ym2612"
    },
    {
      "channel": 3,
      "note": 76,
      "start": 79.3919,
      "duration": 0.0161,
      "velocity": 120,
      "chip": "ym2612"
    },
    {
      "channel": 2,
      "note": 54,
      "start": 79.3931,
      "duration": 0.0161,
      "velocity": 100,
      "chip": "ym2612"
    },
    {
      "channel": 0,
      "note": 63,
      "start": 79.4057,
      "duration": 0.0153,
      "velocity": 1,
      "chip": "ym2612"
    },
    {
      "channel": 4,
      "note": 69,
      "start": 79.4069,
      "duration": 0.0153,
      "velocity": 120,
      "chip": "ym2612"
    },
    {
      "channel": 3,
      "note": 76,
      "start": 79.408,
      "duration": 0.0153,
      "velocity": 120,
      "chip": "ym2612"
    },
    {
      "channel": 2,
      "note": 54,
      "start": 79.4092,
      "duration": 0.0153,
      "velocity": 100,
      "chip": "ym2612"
    },
    {
      "channel": 4,
      "note": 69,
      "start": 79.4222,
      "duration": 0.0153,
      "velocity": 120,
      "chip": "ym2612"
    },
    {
      "channel": 3,
      "note": 76,
      "start": 79.4233,
      "duration": 0.0153,
      "velocity": 120,
      "chip": "ym2612"
    },
    {
      "channel": 2,
      "note": 54,
      "start": 79.4245,
      "duration": 0.0152,
      "velocity": 100,
      "chip": "ym2612"
    },
    {
      "channel": 4,
      "note": 69,
      "start": 79.4375,
      "duration": 0.0198,
      "velocity": 120,
      "chip": "ym2612"
    },
    {
      "channel": 3,
      "note": 76,
      "start": 79.4386,
      "duration": 0.02,
      "velocity": 120,
      "chip": "ym2612"
    },
    {
      "channel": 2,
      "note": 54,
      "start": 79.4397,
      "duration": 0.0204,
      "velocity": 100,
      "chip": "ym2612"
    },
    {
      "channel": 0,
      "note": 36,
      "start": 79.4559,
      "duration": 0.0143,
      "velocity": 115,
      "chip": "ym2612"
    },
    {
      "channel": 4,
      "note": 71,
      "start": 79.4573,
      "duration": 0.0142,
      "velocity": 120,
      "chip": "ym2612"
    },
    {
      "channel": 3,
      "note": 78,
      "start": 79.4586,
      "duration": 0.0139,
      "velocity": 120,
      "chip": "ym2612"
    },
    {
      "channel": 2,
      "note": 54,
      "start": 79.4601,
      "duration": 0.0137,
      "velocity": 100,
      "chip": "ym2612"
    },
    {
      "channel": 0,
      "note": 36,
      "start": 79.4702,
      "duration": 0.0161,
      "velocity": 115,
      "chip": "ym2612"
    },
    {
      "channel": 4,
      "note": 71,
      "start": 79.4714,
      "duration": 0.016,
      "velocity": 120,
      "chip": "ym2612"
    },
    {
      "channel": 3,
      "note": 78,
      "start": 79.4726,
      "duration": 0.016,
      "velocity": 120,
      "chip": "ym2612"
    },
    {
      "channel": 2,
      "note": 54,
      "start": 79.4738,
      "duration": 0.0159,
      "velocity": 100,
      "chip": "ym2612"
    },
    {
      "channel": 0,
      "note": 37,
      "start": 79.4863,
      "duration": 0.0161,
      "velocity": 115,
      "chip": "ym2612"
    },
    {
      "channel": 4,
      "note": 71,
      "start": 79.4874,
      "duration": 0.0161,
      "velocity": 120,
      "chip": "ym2612"
    },
    {
      "channel": 3,
      "note": 78,
      "start": 79.4885,
      "duration": 0.0161,
      "velocity": 120,
      "chip": "ym2612"
    },
    {
      "channel": 2,
      "note": 54,
      "start": 79.4896,
      "duration": 0.0161,
      "velocity": 100,
      "chip": "ym2612"
    },
    {
      "channel": 0,
      "note": 37,
      "start": 79.5024,
      "duration": 0.0161,
      "velocity": 115,
      "chip": "ym2612"
    },
    {
      "channel": 4,
      "note": 71,
      "start": 79.5035,
      "duration": 0.0161,
      "velocity": 120,
      "chip": "ym2612"
    },
    {
      "channel": 3,
      "note": 78,
      "start": 79.5046,
      "duration": 0.0161,
      "velocity": 120,
      "chip": "ym2612"
    },
    {
      "channel": 2,
      "note": 54,
      "start": 79.5058,
      "duration": 0.0161,
      "velocity": 100,
      "chip": "ym2612"
    },
    {
      "channel": 0,
      "note": 38,
      "start": 79.5184,
      "duration": 0.0161,
      "velocity": 115,
      "chip": "ym2612"
    },
    {
      "channel": 4,
      "note": 71,
      "start": 79.5196,
      "duration": 0.0161,
      "velocity": 120,
      "chip": "ym2612"
    },
    {
      "channel": 3,
      "note": 78,
      "start": 79.5207,
      "duration": 0.0161,
      "velocity": 120,
      "chip": "ym2612"
    },
    {
      "channel": 2,
      "note": 54,
      "start": 79.5219,
      "duration": 0.0161,
      "velocity": 100,
      "chip": "ym2612"
    },
    {
      "channel": 0,
      "note": 38,
      "start": 79.5345,
      "duration": 0.0161,
      "velocity": 115,
      "chip": "ym2612"
    },
    {
      "channel": 4,
      "note": 71,
      "start": 79.5357,
      "duration": 0.0161,
      "velocity": 120,
      "chip": "ym2612"
    },
    {
      "channel": 3,
      "note": 78,
      "start": 79.5368,
      "duration": 0.0161,
      "velocity": 120,
      "chip": "ym2612"
    },
    {
      "channel": 2,
      "note": 54,
      "start": 79.538,
      "duration": 0.0161,
      "velocity": 100,
      "chip": "ym2612"
    },
    {
      "channel": 0,
      "note": 39,
      "start": 79.5506,
      "duration": 0.0161,
      "velocity": 115,
      "chip": "ym2612"
    },
    {
      "channel": 4,
      "note": 71,
      "start": 79.5518,
      "duration": 0.0161,
      "velocity": 120,
      "chip": "ym2612"
    },
    {
      "channel": 3,
      "note": 78,
      "start": 79.5529,
      "duration": 0.0161,
      "velocity": 120,
      "chip": "ym2612"
    },
    {
      "channel": 2,
      "note": 54,
      "start": 79.5541,
      "duration": 0.0161,
      "velocity": 100,
      "chip": "ym2612"
    },
    {
      "channel": 0,
      "note": 39,
      "start": 79.5667,
      "duration": 0.0161,
      "velocity": 115,
      "chip": "ym2612"
    },
    {
      "channel": 4,
      "note": 71,
      "start": 79.5679,
      "duration": 0.0162,
      "velocity": 120,
      "chip": "ym2612"
    },
    {
      "channel": 3,
      "note": 78,
      "start": 79.569,
      "duration": 0.0161,
      "velocity": 120,
      "chip": "ym2612"
    },
    {
      "channel": 2,
      "note": 54,
      "start": 79.5702,
      "duration": 0.0161,
      "velocity": 100,
      "chip": "ym2612"
    },
    {
      "channel": 0,
      "note": 40,
      "start": 79.5828,
      "duration": 0.0161,
      "velocity": 115,
      "chip": "ym2612"
    },
    {
      "channel": 4,
      "note": 71,
      "start": 79.584,
      "duration": 0.0161,
      "velocity": 120,
      "chip": "ym2612"
    },
    {
      "channel": 3,
      "note": 78,
      "start": 79.5851,
      "duration": 0.0162,
      "velocity": 120,
      "chip": "ym2612"
    },
    {
      "channel": 2,
      "note": 54,
      "start": 79.5863,
      "duration": 0.0161,
      "velocity": 100,
      "chip": "ym2612"
    },
    {
      "channel": 0,
      "note": 40,
      "start": 79.5989,
      "duration": 0.0162,
      "velocity": 115,
      "chip": "ym2612"
    },
    {
      "channel": 4,
      "note": 71,
      "start": 79.6001,
      "duration": 0.0161,
      "velocity": 120,
      "chip": "ym2612"
    },
    {
      "channel": 3,
      "note": 78,
      "start": 79.6013,
      "duration": 0.0161,
      "velocity": 120,
      "chip": "ym2612"
    },
    {
      "channel": 2,
      "note": 54,
      "start": 79.6024,
      "duration": 0.0161,
      "velocity": 100,
      "chip": "ym2612"
    },
    {
      "channel": 0,
      "note": 40,
      "start": 79.6151,
      "duration": 0.017,
      "velocity": 115,
      "chip": "ym2612"
    },
    {
      "channel": 4,
      "note": 71,
      "start": 79.6162,
      "duration": 0.017,
      "velocity": 120,
      "chip": "ym2612"
    },
    {
      "channel": 3,
      "note": 78,
      "start": 79.6174,
      "duration": 0.017,
      "velocity": 120,
      "chip": "ym2612"
    },
    {
      "channel": 2,
      "note": 54,
      "start": 79.6184,
      "duration": 0.017,
      "velocity": 100,
      "chip": "ym2612"
    },
    {
      "channel": 0,
      "note": 41,
      "start": 79.6321,
      "duration": 0.0184,
      "velocity": 115,
      "chip": "ym2612"
    },
    {
      "channel": 4,
      "note": 71,
      "start": 79.6332,
      "duration": 0.0186,
      "velocity": 120,
      "chip": "ym2612"
    },
    {
      "channel": 3,
      "note": 78,
      "start": 79.6344,
      "duration": 0.0189,
      "velocity": 120,
      "chip": "ym2612"
    },
    {
      "channel": 2,
      "note": 54,
      "start": 79.6354,
      "duration": 0.0193,
      "velocity": 100,
      "chip": "ym2612"
    },
    {
      "channel": 0,
      "note": 36,
      "start": 79.6505,
      "duration": 0.0146,
      "velocity": 115,
      "chip": "ym2612"
    },
    {
      "channel": 4,
      "note": 66,
      "start": 79.6519,
      "duration": 0.0144,
      "velocity": 120,
      "chip": "ym2612"
    },
    {
      "channel": 3,
      "note": 73,
      "start": 79.6533,
      "duration": 0.0142,
      "velocity": 120,
      "chip": "ym2612"
    },
    {
      "channel": 2,
      "note": 54,
      "start": 79.6548,
      "duration": 0.0139,
      "velocity": 100,
      "chip": "ym2612"
    },
    {
      "channel": 0,
      "note": 36,
      "start": 79.6651,
      "duration": 0.0146,
      "velocity": 115,
      "chip": "ym2612"
    },
    {
      "channel": 4,
      "note": 66,
      "start": 79.6663,
      "duration": 0.0145,
      "velocity": 120,
      "chip": "ym2612"
    },
    {
      "channel": 3,
      "note": 73,
      "start": 79.6675,
      "duration": 0.0144,
      "velocity": 120,
      "chip": "ym2612"
    },
    {
      "channel": 2,
      "note": 54,
      "start": 79.6686,
      "duration": 0.0144,
      "velocity": 100,
      "chip": "ym2612"
    },
    {
      "channel": 0,
      "note": 37,
      "start": 79.6796,
      "duration": 0.0186,
      "velocity": 115,
      "chip": "ym2612"
    },
    {
      "channel": 4,
      "note": 66,
      "start": 79.6808,
      "duration": 0.0186,
      "velocity": 120,
      "chip": "ym2612"
    },
    {
      "channel": 3,
      "note": 73,
      "start": 79.6819,
      "duration": 0.0186,
      "velocity": 120,
      "chip": "ym2612"
    },
    {
      "channel": 2,
      "note": 54,
      "start": 79.6831,
      "duration": 0.0186,
      "velocity": 100,
      "chip": "ym2612"
    },
    {
      "channel": 0,
      "note": 37,
      "start": 79.6983,
      "duration": 0.0161,
      "velocity": 115,
      "chip": "ym2612"
    },
    {
      "channel": 4,
      "note": 66,
      "start": 79.6994,
      "duration": 0.0161,
      "velocity": 120,
      "chip": "ym2612"
    },
    {
      "channel": 3,
      "note": 73,
      "start": 79.7006,
      "duration": 0.0161,
      "velocity": 120,
      "chip": "ym2612"
    },
    {
      "channel": 2,
      "note": 54,
      "start": 79.7017,
      "duration": 0.0161,
      "velocity": 100,
      "chip": "ym2612"
    },
    {
      "channel": 0,
      "note": 38,
      "start": 79.7144,
      "duration": 0.0158,
      "velocity": 115,
      "chip": "ym2612"
    },
    {
      "channel": 4,
      "note": 66,
      "start": 79.7155,
      "duration": 0.0158,
      "velocity": 120,
      "chip": "ym2612"
    },
    {
      "channel": 3,
      "note": 73,
      "start": 79.7167,
      "duration": 0.0158,
      "velocity": 120,
      "chip": "ym2612"
    },
    {
      "channel": 2,
      "note": 54,
      "start": 79.7178,
      "duration": 0.0158,
      "velocity": 100,
      "chip": "ym2612"
    },
    {
      "channel": 0,
      "note": 38,
      "start": 79.7302,
      "duration": 0.0137,
      "velocity": 115,
      "chip": "ym2612"
    },
    {
      "channel": 4,
      "note": 66,
      "start": 79.7313,
      "duration": 0.0141,
      "velocity": 120,
      "chip": "ym2612"
    },
    {
      "channel": 3,
      "note": 73,
      "start": 79.7324,
      "duration": 0.0141,
      "velocity": 120,
      "chip": "ym2612"
    },
    {
      "channel": 2,
      "note": 54,
      "start": 79.7336,
      "duration": 0.014,
      "velocity": 100,
      "chip": "ym2612"
    },
    {
      "channel": 0,
      "note": 39,
      "start": 79.7439,
      "duration": 0.0161,
      "velocity": 115,
      "chip": "ym2612"
    },
    {
      "channel": 4,
      "note": 66,
      "start": 79.7454,
      "duration": 0.0185,
      "velocity": 120,
      "chip": "ym2612"
    },
    {
      "channel": 3,
      "note": 73,
      "start": 79.7465,
      "duration": 0.0185,
      "velocity": 120,
      "chip": "ym2612"
    },
    {
      "channel": 2,
      "note": 54,
      "start": 79.7476,
      "duration": 0.0186,
      "velocity": 100,
      "chip": "ym2612"
    },
    {
      "channel": 0,
      "note": 39,
      "start": 79.76,
      "duration": 0.0161,
      "velocity": 115,
      "chip": "ym2612"
    },
    {
      "channel": 4,
      "note": 66,
      "start": 79.7639,
      "duration": 0.0134,
      "velocity": 120,
      "chip": "ym2612"
    },
    {
      "channel": 3,
      "note": 73,
      "start": 79.765,
      "duration": 0.0161,
      "velocity": 120,
      "chip": "ym2612"
    },
    {
      "channel": 2,
      "note": 54,
      "start": 79.7661,
      "duration": 0.0161,
      "velocity": 100,
      "chip": "ym2612"
    },
    {
      "channel": 0,
      "note": 40,
      "start": 79.7761,
      "duration": 0.0161,
      "velocity": 115,
      "chip": "ym2612"
    },
    {
      "channel": 4,
      "note": 66,
      "start": 79.7772,
      "duration": 0.0161,
      "velocity": 120,
      "chip": "ym2612"
    },
    {
      "channel": 3,
      "note": 73,
      "start": 79.7811,
      "duration": 0.0157,
      "velocity": 120,
      "chip": "ym2612"
    },
    {
      "channel": 2,
      "note": 54,
      "start": 79.7822,
      "duration": 0.0157,
      "velocity": 100,
      "chip": "ym2612"
    },
    {
      "channel": 0,
      "note": 40,
      "start": 79.7922,
      "duration": 0.0161,
      "velocity": 115,
      "chip": "ym2612"
    },
    {
      "channel": 4,
      "note": 66,
      "start": 79.7933,
      "duration": 0.0161,
      "velocity": 120,
      "chip": "ym2612"
    },
    {
      "channel": 3,
      "note": 73,
      "start": 79.7968,
      "duration": 0.0137,
      "velocity": 120,
      "chip": "ym2612"
    },
    {
      "channel": 2,
      "note": 54,
      "start": 79.798,
      "duration": 0.0141,
      "velocity": 100,
      "chip": "ym2612"
    },
    {
      "channel": 0,
      "note": 40,
      "start": 79.8083,
      "duration": 0.0161,
      "velocity": 115,
      "chip": "ym2612"
    },
    {
      "channel": 4,
      "note": 66,
      "start": 79.8094,
      "duration": 0.0161,
      "velocity": 120,
      "chip": "ym2612"
    },
    {
      "channel": 3,
      "note": 73,
      "start": 79.8106,
      "duration": 0.0161,
      "velocity": 120,
      "chip": "ym2612"
    },
    {
      "channel": 2,
      "note": 54,
      "start": 79.812,
      "duration": 0.0185,
      "velocity": 100,
      "chip": "ym2612"
    },
    {
      "channel": 0,
      "note": 41,
      "start": 79.8244,
      "duration": 0.0179,
      "velocity": 115,
      "chip": "ym2612"
    },
    {
      "channel": 4,
      "note": 66,
      "start": 79.8255,
      "duration": 0.0181,
      "velocity": 120,
      "chip": "ym2612"
    },
    {
      "channel": 3,
      "note": 73,
      "start": 79.8266,
      "duration": 0.0211,
      "velocity": 120,
      "chip": "ym2612"
    },
    {
      "channel": 2,
      "note": 54,
      "start": 79.8305,
      "duration": 0.0187,
      "velocity": 100,
      "chip": "ym2612"
    },
    {
      "channel": 0,
      "note": 36,
      "start": 79.8422,
      "duration": 0.0144,
      "velocity": 115,
      "chip": "ym2612"
    },
    {
      "channel": 4,
      "note": 69,
      "start": 79.8437,
      "duration": 0.0141,
      "velocity": 120,
      "chip": "ym2612"
    },
    {
      "channel": 3,
      "note": 76,
      "start": 79.8478,
      "duration": 0.0112,
      "velocity": 120,
      "chip": "ym2612"
    },
    {
      "channel": 2,
      "note": 54,
      "start": 79.8493,
      "duration": 0.011,
      "velocity": 100,
      "chip": "ym2612"
    },
    {
      "channel": 0,
      "note": 36,
      "start": 79.8566,
      "duration": 0.016,
      "velocity": 115,
      "chip": "ym2612"
    },
    {
      "channel": 4,
      "note": 69,
      "start": 79.8578,
      "duration": 0.016,
      "velocity": 120,
      "chip": "ym2612"
    },
    {
      "channel": 3,
      "note": 76,
      "start": 79.859,
      "duration": 0.0159,
      "velocity": 120,
      "chip": "ym2612"
    },
    {
      "channel": 2,
      "note": 54,
      "start": 79.8602,
      "duration": 0.0158,
      "velocity": 100,
      "chip": "ym2612"
    },
    {
      "channel": 0,
      "note": 37,
      "start": 79.8727,
      "duration": 0.0161,
      "velocity": 115,
      "chip": "ym2612"
    },
    {
      "channel": 4,
      "note": 69,
      "start": 79.8739,
      "duration": 0.0161,
      "velocity": 120,
      "chip": "ym2612"
    },
    {
      "channel": 3,
      "note": 76,
      "start": 79.8749,
      "duration": 0.0161,
      "velocity": 120,
      "chip": "ym2612"
    },
    {
      "channel": 2,
      "note": 54,
      "start": 79.8761,
      "duration": 0.0161,
      "velocity": 100,
      "chip": "ym2612"
    },
    {
      "channel": 0,
      "note": 37,
      "start": 79.8887,
      "duration": 0.0162,
      "velocity": 115,
      "chip": "ym2612"
    },
    {
      "channel": 4,
      "note": 69,
      "start": 79.89,
      "duration": 0.0161,
      "velocity": 120,
      "chip": "ym2612"
    },
    {
      "channel": 3,
      "note": 76,
      "start": 79.891,
      "duration": 0.0162,
      "velocity": 120,
      "chip": "ym2612"
    },
    {
      "channel": 2,
      "note": 54,
      "start": 79.8922,
      "duration": 0.0161,
      "velocity": 100,
      "chip": "ym2612"
    },
    {
      "channel": 0,
      "note": 38,
      "start": 79.9049,
      "duration": 0.0161,
      "velocity": 115,
      "chip": "ym2612"
    },
    {
      "channel": 4,
      "note": 69,
      "start": 79.906,
      "duration": 0.0161,
      "velocity": 120,
      "chip": "ym2612"
    },
    {
      "channel": 3,
      "note": 76,
      "start": 79.9072,
      "duration": 0.0161,
      "velocity": 120,
      "chip": "ym2612"
    },
    {
      "channel": 2,
      "note": 54,
      "start": 79.9083,
      "duration": 0.0161,
      "velocity": 100,
      "chip": "ym2612"
    },
    {
      "channel": 0,
      "note": 38,
      "start": 79.921,
      "duration": 0.0161,
      "velocity": 115,
      "chip": "ym2612"
    },
    {
      "channel": 4,
      "note": 69,
      "start": 79.9221,
      "duration": 0.0161,
      "velocity": 120,
      "chip": "ym2612"
    },
    {
      "channel": 3,
      "note": 76,
      "start": 79.9233,
      "duration": 0.0161,
      "velocity": 120,
      "chip": "ym2612"
    },
    {
      "channel": 2,
      "note": 54,
      "start": 79.9244,
      "duration": 0.0161,
      "velocity": 100,
      "chip": "ym2612"
    },
    {
      "channel": 0,
      "note": 39,
      "start": 79.9371,
      "duration": 0.0161,
      "velocity": 115,
      "chip": "ym2612"
    },
    {
      "channel": 4,
      "note": 69,
      "start": 79.9382,
      "duration": 0.0161,
      "velocity": 120,
      "chip": "ym2612"
    },
    {
      "channel": 3,
      "note": 76,
      "start": 79.9394,
      "duration": 0.0161,
      "velocity": 120,
      "chip": "ym2612"
    },
    {
      "channel": 2,
      "note": 54,
      "start": 79.9405,
      "duration": 0.0162,
      "velocity": 100,
      "chip": "ym2612"
    },
    {
      "channel": 0,
      "note": 39,
      "start": 79.9532,
      "duration": 0.0161,
      "velocity": 115,
      "chip": "ym2612"
    },
    {
      "channel": 4,
      "note": 69,
      "start": 79.9543,
      "duration": 0.0161,
      "velocity": 120,
      "chip": "ym2612"
    },
    {
      "channel": 3,
      "note": 76,
      "start": 79.9555,
      "duration": 0.0161,
      "velocity": 120,
      "chip": "ym2612"
    },
    {
      "channel": 2,
      "note": 54,
      "start": 79.9566,
      "duration": 0.0161,
      "velocity": 100,
      "chip": "ym2612"
    },
    {
      "channel": 0,
      "note": 40,
      "start": 79.9693,
      "duration": 0.0161,
      "velocity": 115,
      "chip": "ym2612"
    },
    {
      "channel": 4,
      "note": 69,
      "start": 79.9704,
      "duration": 0.0161,
      "velocity": 120,
      "chip": "ym2612"
    },
    {
      "channel": 3,
      "note": 76,
      "start": 79.9716,
      "duration": 0.0161,
      "velocity": 120,
      "chip": "ym2612"
    },
    {
      "channel": 2,
      "note": 54,
      "start": 79.9727,
      "duration": 0.0161,
      "velocity": 100,
      "chip": "ym2612"
    },
    {
      "channel": 0,
      "note": 40,
      "start": 79.9854,
      "duration": 0.0161,
      "velocity": 115,
      "chip": "ym2612"
    },
    {
      "channel": 4,
      "note": 69,
      "start": 79.9865,
      "duration": 0.0161,
      "velocity": 120,
      "chip": "ym2612"
    },
    {
      "channel": 3,
      "note": 76,
      "start": 79.9877,
      "duration": 0.0161,
      "velocity": 120,
      "chip": "ym2612"
    },
    {
      "channel": 2,
      "note": 54,
      "start": 79.9888,
      "duration": 0.0161,
      "velocity": 100,
      "chip": "ym2612"
    },
    {
      "channel": 0,
      "note": 40,
      "start": 80.0015,
      "duration": 0.0161,
      "velocity": 115,
      "chip": "ym2612"
    },
    {
      "channel": 4,
      "note": 69,
      "start": 80.0026,
      "duration": 0.0162,
      "velocity": 120,
      "chip": "ym2612"
    },
    {
      "channel": 3,
      "note": 76,
      "start": 80.0037,
      "duration": 0.0161,
      "velocity": 120,
      "chip": "ym2612"
    },
    {
      "channel": 2,
      "note": 54,
      "start": 80.0049,
      "duration": 0.0161,
      "velocity": 100,
      "chip": "ym2612"
    },
    {
      "channel": 0,
      "note": 41,
      "start": 80.0176,
      "duration": 0.0179,
      "velocity": 124,
      "chip": "ym2612"
    },
    {
      "channel": 4,
      "note": 69,
      "start": 80.0188,
      "duration": 0.018,
      "velocity": 120,
      "chip": "ym2612"
    },
    {
      "channel": 3,
      "note": 76,
      "start": 80.0198,
      "duration": 0.0184,
      "velocity": 120,
      "chip": "ym2612"
    },
    {
      "channel": 2,
      "note": 54,
      "start": 80.021,
      "duration": 0.0187,
      "velocity": 100,
      "chip": "ym2612"
    },
    {
      "channel": 0,
      "note": 84,
      "start": 80.0355,
      "duration": 0.0143,
      "velocity": 124,
      "chip": "ym2612"
    },
    {
      "channel": 4,
      "note": 71,
      "start": 80.0369,
      "duration": 0.0142,
      "velocity": 120,
      "chip": "ym2612"
    },
    {
      "channel": 3,
      "note": 78,
      "start": 80.0383,
      "duration": 0.0139,
      "velocity": 120,
      "chip": "ym2612"
    },
    {
      "channel": 2,
      "note": 54,
      "start": 80.0398,
      "duration": 0.0137,
      "velocity": 100,
      "chip": "ym2612"
    },
    {
      "channel": 0,
      "note": 82,
      "start": 80.0498,
      "duration": 0.0161,
      "velocity": 124,
      "chip": "ym2612"
    },
    {
      "channel": 4,
      "note": 71,
      "start": 80.0511,
      "duration": 0.016,
      "velocity": 120,
      "chip": "ym2612"
    },
    {
      "channel": 3,
      "note": 78,
      "start": 80.0522,
      "duration": 0.016,
      "velocity": 120,
      "chip": "ym2612"
    },
    {
      "channel": 2,
      "note": 54,
      "start": 80.0534,
      "duration": 0.0159,
      "velocity": 100,
      "chip": "ym2612"
    },
    {
      "channel": 0,
      "note": 80,
      "start": 80.0659,
      "duration": 0.0161,
      "velocity": 124,
      "chip": "ym2612"
    },
    {
      "channel": 4,
      "note": 71,
      "start": 80.0671,
      "duration": 0.0161,
      "velocity": 120,
      "chip": "ym2612"
    },
    {
      "channel": 3,
      "note": 78,
      "start": 80.0682,
      "duration": 0.0161,
      "velocity": 120,
      "chip": "ym2612"
    },
    {
      "channel": 2,
      "note": 54,
      "start": 80.0693,
      "duration": 0.0161,
      "velocity": 100,
      "chip": "ym2612"
    },
    {
      "channel": 0,
      "note": 77,
      "start": 80.082,
      "duration": 0.0167,
      "velocity": 124,
      "chip": "ym2612"
    },
    {
      "channel": 4,
      "note": 71,
      "start": 80.0832,
      "duration": 0.0167,
      "velocity": 120,
      "chip": "ym2612"
    },
    {
      "channel": 3,
      "note": 78,
      "start": 80.0843,
      "duration": 0.0167,
      "velocity": 120,
      "chip": "ym2612"
    },
    {
      "channel": 2,
      "note": 54,
      "start": 80.0854,
      "duration": 0.0167,
      "velocity": 100,
      "chip": "ym2612"
    },
    {
      "channel": 0,
      "note": 75,
      "start": 80.0987,
      "duration": 0.0167,
      "velocity": 124,
      "chip": "ym2612"
    },
    {
      "channel": 4,
      "note": 71,
      "start": 80.0999,
      "duration": 0.0167,
      "velocity": 120,
      "chip": "ym2612"
    },
    {
      "channel": 3,
      "note": 78,
      "start": 80.101,
      "duration": 0.0167,
      "velocity": 120,
      "chip": "ym2612"
    },
    {
      "channel": 2,
      "note": 54,
      "start": 80.1022,
      "duration": 0.0167,
      "velocity": 100,
      "chip": "ym2612"
    },
    {
      "channel": 0,
      "note": 72,
      "start": 80.1154,
      "duration": 0.0163,
      "velocity": 124,
      "chip": "ym2612"
    },
    {
      "channel": 4,
      "note": 71,
      "start": 80.1165,
      "duration": 0.0163,
      "velocity": 120,
      "chip": "ym2612"
    },
    {
      "channel": 3,
      "note": 78,
      "start": 80.1177,
      "duration": 0.0163,
      "velocity": 120,
      "chip": "ym2612"
    },
    {
      "channel": 2,
      "note": 54,
      "start": 80.1188,
      "duration": 0.0163,
      "velocity": 100,
      "chip": "ym2612"
    },
    {
      "channel": 0,
      "note": 70,
      "start": 80.1317,
      "duration": 0.0147,
      "velocity": 124,
      "chip": "ym2612"
    },
    {
      "channel": 4,
      "note": 71,
      "start": 80.1328,
      "duration": 0.0148,
      "velocity": 120,
      "chip": "ym2612"
    },
    {
      "channel": 3,
      "note": 78,
      "start": 80.134,
      "duration": 0.0147,
      "velocity": 120,
      "chip": "ym2612"
    },
    {
      "channel": 2,
      "note": 54,
      "start": 80.1351,
      "duration": 0.0147,
      "velocity": 100,
      "chip": "ym2612"
    },
    {
      "channel": 0,
      "note": 68,
      "start": 80.1464,
      "duration": 0.0189,
      "velocity": 124,
      "chip": "ym2612"
    },
    {
      "channel": 4,
      "note": 71,
      "start": 80.1476,
      "duration": 0.0188,
      "velocity": 120,
      "chip": "ym2612"
    },
    {
      "channel": 3,
      "note": 78,
      "start": 80.1487,
      "duration": 0.0189,
      "velocity": 120,
      "chip": "ym2612"
    },
    {
      "channel": 2,
      "note": 54,
      "start": 80.1498,
      "duration": 0.0188,
      "velocity": 100,
      "chip": "ym2612"
    },
    {
      "channel": 0,
      "note": 65,
      "start": 80.1653,
      "duration": 0.016,
      "velocity": 124,
      "chip": "ym2612"
    },
    {
      "channel": 4,
      "note": 71,
      "start": 80.1664,
      "duration": 0.0161,
      "velocity": 120,
      "chip": "ym2612"
    },
    {
      "channel": 3,
      "note": 78,
      "start": 80.1676,
      "duration": 0.0161,
      "velocity": 120,
      "chip": "ym2612"
    },
    {
      "channel": 2,
      "note": 54,
      "start": 80.1686,
      "duration": 0.0161,
      "velocity": 100,
      "chip": "ym2612"
    },
    {
      "channel": 0,
      "note": 63,
      "start": 80.1813,
      "duration": 0.0126,
      "velocity": 1,
      "chip": "ym2612"
    },
    {
      "channel": 4,
      "note": 71,
      "start": 80.1825,
      "duration": 0.015,
      "velocity": 120,
      "chip": "ym2612"
    },
    {
      "channel": 3,
      "note": 78,
      "start": 80.1837,
      "duration": 0.0149,
      "velocity": 120,
      "chip": "ym2612"
    },
    {
      "channel": 2,
      "note": 54,
      "start": 80.1847,
      "duration": 0.0149,
      "velocity": 100,
      "chip": "ym2612"
    },
    {
      "channel": 4,
      "note": 71,
      "start": 80.1975,
      "duration": 0.0128,
      "velocity": 120,
      "chip": "ym2612"
    },
    {
      "channel": 3,
      "note": 78,
      "start": 80.1986,
      "duration": 0.0132,
      "velocity": 120,
      "chip": "ym2612"
    },
    {
      "channel": 2,
      "note": 54,
      "start": 80.1997,
      "duration": 0.0132,
      "velocity": 100,
      "chip": "ym2612"
    },
    {
      "channel": 4,
      "note": 71,
      "start": 80.2103,
      "duration": 0.0163,
      "velocity": 120,
      "chip": "ym2612"
    },
    {
      "channel": 3,
      "note": 78,
      "start": 80.2118,
      "duration": 0.019,
      "velocity": 120,
      "chip": "ym2612"
    },
    {
      "channel": 2,
      "note": 54,
      "start": 80.2129,
      "duration": 0.0193,
      "velocity": 100,
      "chip": "ym2612"
    },
    {
      "channel": 4,
      "note": 69,
      "start": 80.2266,
      "duration": 0.0159,
      "velocity": 120,
      "chip": "ym2612"
    },
    {
      "channel": 3,
      "note": 76,
      "start": 80.2308,
      "duration": 0.013,
      "velocity": 120,
      "chip": "ym2612"
    },
    {
      "channel": 2,
      "note": 54,
      "start": 80.2322,
      "duration": 0.0155,
      "velocity": 100,
      "chip": "ym2612"
    },
    {
      "channel": 4,
      "note": 69,
      "start": 80.2426,
      "duration": 0.016,
      "velocity": 120,
      "chip": "ym2612"
    },
    {
      "channel": 3,
      "note": 76,
      "start": 80.2438,
      "duration": 0.016,
      "velocity": 120,
      "chip": "ym2612"
    },
    {
      "channel": 2,
      "note": 54,
      "start": 80.2477,
      "duration": 0.0155,
      "velocity": 100,
      "chip": "ym2612"
    },
    {
      "channel": 4,
      "note": 69,
      "start": 80.2586,
      "duration": 0.0161,
      "velocity": 120,
      "chip": "ym2612"
    },
    {
      "channel": 3,
      "note": 76,
      "start": 80.2597,
      "duration": 0.0161,
      "velocity": 120,
      "chip": "ym2612"
    },
    {
      "channel": 2,
      "note": 54,
      "start": 80.2632,
      "duration": 0.0137,
      "velocity": 100,
      "chip": "ym2612"
    },
    {
      "channel": 4,
      "note": 69,
      "start": 80.2747,
      "duration": 0.0161,
      "velocity": 120,
      "chip": "ym2612"
    },
    {
      "channel": 3,
      "note": 76,
      "start": 80.2758,
      "duration": 0.0161,
      "velocity": 120,
      "chip": "ym2612"
    },
    {
      "channel": 2,
      "note": 54,
      "start": 80.277,
      "duration": 0.0161,
      "velocity": 100,
      "chip": "ym2612"
    },
    {
      "channel": 4,
      "note": 69,
      "start": 80.2908,
      "duration": 0.0162,
      "velocity": 120,
      "chip": "ym2612"
    },
    {
      "channel": 3,
      "note": 76,
      "start": 80.2919,
      "duration": 0.0161,
      "velocity": 120,
      "chip": "ym2612"
    },
    {
      "channel": 2,
      "note": 54,
      "start": 80.2931,
      "duration": 0.0161,
      "velocity": 100,
      "chip": "ym2612"
    },
    {
      "channel": 4,
      "note": 69,
      "start": 80.3069,
      "duration": 0.0161,
      "velocity": 120,
      "chip": "ym2612"
    },
    {
      "channel": 3,
      "note": 76,
      "start": 80.3081,
      "duration": 0.0161,
      "velocity": 120,
      "chip": "ym2612"
    },
    {
      "channel": 2,
      "note": 54,
      "start": 80.3092,
      "duration": 0.0161,
      "velocity": 100,
      "chip": "ym2612"
    },
    {
      "channel": 4,
      "note": 69,
      "start": 80.323,
      "duration": 0.0161,
      "velocity": 120,
      "chip": "ym2612"
    },
    {
      "channel": 3,
      "note": 76,
      "start": 80.3242,
      "duration": 0.0161,
      "velocity": 120,
      "chip": "ym2612"
    },
    {
      "channel": 2,
      "note": 54,
      "start": 80.3253,
      "duration": 0.0161,
      "velocity": 100,
      "chip": "ym2612"
    },
    {
      "channel": 4,
      "note": 69,
      "start": 80.3391,
      "duration": 0.0161,
      "velocity": 120,
      "chip": "ym2612"
    },
    {
      "channel": 3,
      "note": 76,
      "start": 80.3403,
      "duration": 0.0161,
      "velocity": 120,
      "chip": "ym2612"
    },
    {
      "channel": 2,
      "note": 54,
      "start": 80.3413,
      "duration": 0.0161,
      "velocity": 100,
      "chip": "ym2612"
    },
    {
      "channel": 4,
      "note": 69,
      "start": 80.3552,
      "duration": 0.0161,
      "velocity": 120,
      "chip": "ym2612"
    },
    {
      "channel": 3,
      "note": 76,
      "start": 80.3563,
      "duration": 0.0161,
      "velocity": 120,
      "chip": "ym2612"
    },
    {
      "channel": 2,
      "note": 54,
      "start": 80.3574,
      "duration": 0.0162,
      "velocity": 100,
      "chip": "ym2612"
    },
    {
      "channel": 4,
      "note": 69,
      "start": 80.3713,
      "duration": 0.0161,
      "velocity": 120,
      "chip": "ym2612"
    },
    {
      "channel": 3,
      "note": 76,
      "start": 80.3724,
      "duration": 0.0161,
      "velocity": 120,
      "chip": "ym2612"
    },
    {
      "channel": 2,
      "note": 54,
      "start": 80.3736,
      "duration": 0.0161,
      "velocity": 100,
      "chip": "ym2612"
    },
    {
      "channel": 4,
      "note": 69,
      "start": 80.3874,
      "duration": 0.0161,
      "velocity": 120,
      "chip": "ym2612"
    },
    {
      "channel": 3,
      "note": 76,
      "start": 80.3885,
      "duration": 0.0161,
      "velocity": 120,
      "chip": "ym2612"
    },
    {
      "channel": 2,
      "note": 54,
      "start": 80.3897,
      "duration": 0.0161,
      "velocity": 100,
      "chip": "ym2612"
    },
    {
      "channel": 4,
      "note": 69,
      "start": 80.4035,
      "duration": 0.0211,
      "velocity": 120,
      "chip": "ym2612"
    },
    {
      "channel": 3,
      "note": 76,
      "start": 80.4046,
      "duration": 0.0254,
      "velocity": 120,
      "chip": "ym2612"
    },
    {
      "channel": 2,
      "note": 54,
      "start": 80.4058,
      "duration": 0.0259,
      "velocity": 100,
      "chip": "ym2612"
    },
    {
      "channel": 0,
      "note": 36,
      "start": 80.4219,
      "duration": 0.0145,
      "velocity": 115,
      "chip": "ym2612"
    },
    {
      "channel": 4,
      "note": 57,
      "start": 80.4247,
      "duration": 0.0129,
      "velocity": 120,
      "chip": "ym2612"
    },
    {
      "channel": 3,
      "note": 64,
      "start": 80.4302,
      "duration": 0.0086,
      "velocity": 120,
      "chip": "ym2612"
    },
    {
      "channel": 2,
      "note": 45,
      "start": 80.4317,
      "duration": 0.0083,
      "velocity": 100,
      "chip": "ym2612"
    },
    {
      "channel": 0,
      "note": 36,
      "start": 80.4364,
      "duration": 0.0159,
      "velocity": 115,
      "chip": "ym2612"
    },
    {
      "channel": 4,
      "note": 57,
      "start": 80.4376,
      "duration": 0.0158,
      "velocity": 120,
      "chip": "ym2612"
    },
    {
      "channel": 3,
      "note": 64,
      "start": 80.4388,
      "duration": 0.0158,
      "velocity": 120,
      "chip": "ym2612"
    },
    {
      "channel": 2,
      "note": 45,
      "start": 80.44,
      "duration": 0.0158,
      "velocity": 100,
      "chip": "ym2612"
    },
    {
      "channel": 0,
      "note": 37,
      "start": 80.4523,
      "duration": 0.0161,
      "velocity": 115,
      "chip": "ym2612"
    },
    {
      "channel": 4,
      "note": 57,
      "start": 80.4534,
      "duration": 0.0161,
      "velocity": 120,
      "chip": "ym2612"
    },
    {
      "channel": 3,
      "note": 64,
      "start": 80.4546,
      "duration": 0.0161,
      "velocity": 120,
      "chip": "ym2612"
    },
    {
      "channel": 2,
      "note": 45,
      "start": 80.4557,
      "duration": 0.0161,
      "velocity": 100,
      "chip": "ym2612"
    },
    {
      "channel": 0,
      "note": 37,
      "start": 80.4684,
      "duration": 0.0161,
      "velocity": 115,
      "chip": "ym2612"
    },
    {
      "channel": 4,
      "note": 57,
      "start": 80.4695,
      "duration": 0.0161,
      "velocity": 120,
      "chip": "ym2612"
    },
    {
      "channel": 3,
      "note": 64,
      "start": 80.4707,
      "duration": 0.0161,
      "velocity": 120,
      "chip": "ym2612"
    },
    {
      "channel": 2,
      "note": 45,
      "start": 80.4718,
      "duration": 0.0161,
      "velocity": 100,
      "chip": "ym2612"
    },
    {
      "channel": 0,
      "note": 38,
      "start": 80.4845,
      "duration": 0.0162,
      "velocity": 115,
      "chip": "ym2612"
    },
    {
      "channel": 4,
      "note": 57,
      "start": 80.4856,
      "duration": 0.0161,
      "velocity": 120,
      "chip": "ym2612"
    },
    {
      "channel": 3,
      "note": 64,
      "start": 80.4868,
      "duration": 0.0162,
      "velocity": 120,
      "chip": "ym2612"
    },
    {
      "channel": 2,
      "note": 45,
      "start": 80.4879,
      "duration": 0.0161,
      "velocity": 100,
      "chip": "ym2612"
    },
    {
      "channel": 0,
      "note": 38,
      "start": 80.5006,
      "duration": 0.0161,
      "velocity": 115,
      "chip": "ym2612"
    },
    {
      "channel": 4,
      "note": 57,
      "start": 80.5018,
      "duration": 0.0161,
      "velocity": 120,
      "chip": "ym2612"
    },
    {
      "channel": 3,
      "note": 64,
      "start": 80.5029,
      "duration": 0.0161,
      "velocity": 120,
      "chip": "ym2612"
    },
    {
      "channel": 2,
      "note": 45,
      "start": 80.504,
      "duration": 0.0161,
      "velocity": 100,
      "chip": "ym2612"
    },
    {
      "channel": 0,
      "note": 39,
      "start": 80.5167,
      "duration": 0.0161,
      "velocity": 115,
      "chip": "ym2612"
    },
    {
      "channel": 4,
      "note": 57,
      "start": 80.5179,
      "duration": 0.0161,
      "velocity": 120,
      "chip": "ym2612"
    },
    {
      "channel": 3,
      "note": 64,
      "start": 80.519,
      "duration": 0.0161,
      "velocity": 120,
      "chip": "ym2612"
    },
    {
      "channel": 2,
      "note": 45,
      "start": 80.5201,
      "duration": 0.0161,
      "velocity": 100,
      "chip": "ym2612"
    },
    {
      "channel": 0,
      "note": 39,
      "start": 80.5328,
      "duration": 0.0161,
      "velocity": 115,
      "chip": "ym2612"
    },
    {
      "channel": 4,
      "note": 57,
      "start": 80.534,
      "duration": 0.0161,
      "velocity": 120,
      "chip": "ym2612"
    },
    {
      "channel": 3,
      "note": 64,
      "start": 80.5351,
      "duration": 0.0161,
      "velocity": 120,
      "chip": "ym2612"
    },
    {
      "channel": 2,
      "note": 45,
      "start": 80.5362,
      "duration": 0.0162,
      "velocity": 100,
      "chip": "ym2612"
    },
    {
      "channel": 0,
      "note": 40,
      "start": 80.5489,
      "duration": 0.0164,
      "velocity": 115,
      "chip": "ym2612"
    },
    {
      "channel": 4,
      "note": 57,
      "start": 80.5501,
      "duration": 0.0165,
      "velocity": 120,
      "chip": "ym2612"
    },
    {
      "channel": 3,
      "note": 64,
      "start": 80.5512,
      "duration": 0.0164,
      "velocity": 120,
      "chip": "ym2612"
    },
    {
      "channel": 2,
      "note": 45,
      "start": 80.5524,
      "duration": 0.0164,
      "velocity": 100,
      "chip": "ym2612"
    },
    {
      "channel": 0,
      "note": 40,
      "start": 80.5653,
      "duration": 0.0167,
      "velocity": 115,
      "chip": "ym2612"
    },
    {
      "channel": 4,
      "note": 57,
      "start": 80.5665,
      "duration": 0.0167,
      "velocity": 120,
      "chip": "ym2612"
    },
    {
      "channel": 3,
      "note": 64,
      "start": 80.5676,
      "duration": 0.0167,
      "velocity": 120,
      "chip": "ym2612"
    },
    {
      "channel": 2,
      "note": 45,
      "start": 80.5688,
      "duration": 0.0167,
      "velocity": 100,
      "chip": "ym2612"
    },
    {
      "channel": 0,
      "note": 40,
      "start": 80.5821,
      "duration": 0.0163,
      "velocity": 115,
      "chip": "ym2612"
    },
    {
      "channel": 4,
      "note": 57,
      "start": 80.5832,
      "duration": 0.0163,
      "velocity": 120,
      "chip": "ym2612"
    },
    {
      "channel": 3,
      "note": 64,
      "start": 80.5844,
      "duration": 0.0163,
      "velocity": 120,
      "chip": "ym2612"
    },
    {
      "channel": 2,
      "note": 45,
      "start": 80.5854,
      "duration": 0.0163,
      "velocity": 100,
      "chip": "ym2612"
    },
    {
      "channel": 0,
      "note": 41,
      "start": 80.5983,
      "duration": 0.0149,
      "velocity": 115,
      "chip": "ym2612"
    },
    {
      "channel": 4,
      "note": 57,
      "start": 80.5995,
      "duration": 0.015,
      "velocity": 120,
      "chip": "ym2612"
    },
    {
      "channel": 3,
      "note": 64,
      "start": 80.6006,
      "duration": 0.0149,
      "velocity": 120,
      "chip": "ym2612"
    },
    {
      "channel": 2,
      "note": 45,
      "start": 80.6018,
      "duration": 0.0152,
      "velocity": 100,
      "chip": "ym2612"
    },
    {
      "channel": 0,
      "note": 41,
      "start": 80.6133,
      "duration": 0.0188,
      "velocity": 115,
      "chip": "ym2612"
    },
    {
      "channel": 4,
      "note": 57,
      "start": 80.6144,
      "duration": 0.0188,
      "velocity": 120,
      "chip": "ym2612"
    },
    {
      "channel": 3,
      "note": 64,
      "start": 80.6156,
      "duration": 0.0188,
      "velocity": 120,
      "chip": "ym2612"
    },
    {
      "channel": 2,
      "note": 52,
      "start": 80.6171,
      "duration": 0.0184,
      "velocity": 100,
      "chip": "ym2612"
    },
    {
      "channel": 0,
      "note": 42,
      "start": 80.6321,
      "duration": 0.0162,
      "velocity": 115,
      "chip": "ym2612"
    },
    {
      "channel": 4,
      "note": 57,
      "start": 80.6332,
      "duration": 0.0162,
      "velocity": 120,
      "chip": "ym2612"
    },
    {
      "channel": 3,
      "note": 64,
      "start": 80.6344,
      "duration": 0.0162,
      "velocity": 120,
      "chip": "ym2612"
    },
    {
      "channel": 2,
      "note": 52,
      "start": 80.6355,
      "duration": 0.0162,
      "velocity": 100,
      "chip": "ym2612"
    },
    {
      "channel": 0,
      "note": 42,
      "start": 80.6483,
      "duration": 0.0157,
      "velocity": 115,
      "chip": "ym2612"
    },
    {
      "channel": 4,
      "note": 57,
      "start": 80.6494,
      "duration": 0.0157,
      "velocity": 120,
      "chip": "ym2612"
    },
    {
      "channel": 3,
      "note": 64,
      "start": 80.6506,
      "duration": 0.0157,
      "velocity": 120,
      "chip": "ym2612"
    },
    {
      "channel": 2,
      "note": 52,
      "start": 80.6517,
      "duration": 0.0158,
      "velocity": 100,
      "chip": "ym2612"
    },
    {
      "channel": 0,
      "note": 43,
      "start": 80.664,
      "duration": 0.0141,
      "velocity": 115,
      "chip": "ym2612"
    },
    {
      "channel": 4,
      "note": 57,
      "start": 80.6651,
      "duration": 0.0141,
      "velocity": 120,
      "chip": "ym2612"
    },
    {
      "channel": 3,
      "note": 64,
      "start": 80.6663,
      "duration": 0.0141,
      "velocity": 120,
      "chip": "ym2612"
    },
    {
      "channel": 2,
      "note": 52,
      "start": 80.6674,
      "duration": 0.014,
      "velocity": 100,
      "chip": "ym2612"
    },
    {
      "channel": 0,
      "note": 43,
      "start": 80.678,
      "duration": 0.0158,
      "velocity": 115,
      "chip": "ym2612"
    },
    {
      "channel": 4,
      "note": 57,
      "start": 80.6792,
      "duration": 0.0185,
      "velocity": 120,
      "chip": "ym2612"
    },
    {
      "channel": 3,
      "note": 64,
      "start": 80.6803,
      "duration": 0.0185,
      "velocity": 120,
      "chip": "ym2612"
    },
    {
      "channel": 2,
      "note": 52,
      "start": 80.6814,
      "duration": 0.0186,
      "velocity": 100,
      "chip": "ym2612"
    },
    {
      "channel": 0,
      "note": 44,
      "start": 80.6938,
      "duration": 0.0161,
      "velocity": 115,
      "chip": "ym2612"
    },
    {
      "channel": 4,
      "note": 57,
      "start": 80.6977,
      "duration": 0.0161,
      "velocity": 120,
      "chip": "ym2612"
    },
    {
      "channel": 3,
      "note": 64,
      "start": 80.6988,
      "duration": 0.0161,
      "velocity": 120,
      "chip": "ym2612"
    },
    {
      "channel": 2,
      "note": 52,
      "start": 80.7,
      "duration": 0.0161,
      "velocity": 100,
      "chip": "ym2612"
    },
    {
      "channel": 0,
      "note": 44,
      "start": 80.7099,
      "duration": 0.0161,
      "velocity": 115,
      "chip": "ym2612"
    },
    {
      "channel": 4,
      "note": 57,
      "start": 80.7138,
      "duration": 0.0134,
      "velocity": 120,
      "chip": "ym2612"
    },
    {
      "channel": 3,
      "note": 64,
      "start": 80.7149,
      "duration": 0.0158,
      "velocity": 120,
      "chip": "ym2612"
    },
    {
      "channel": 2,
      "note": 52,
      "start": 80.7161,
      "duration": 0.0157,
      "velocity": 100,
      "chip": "ym2612"
    },
    {
      "channel": 0,
      "note": 44,
      "start": 80.726,
      "duration": 0.0161,
      "velocity": 115,
      "chip": "ym2612"
    },
    {
      "channel": 4,
      "note": 57,
      "start": 80.7272,
      "duration": 0.0161,
      "velocity": 120,
      "chip": "ym2612"
    },
    {
      "channel": 3,
      "note": 64,
      "start": 80.7307,
      "duration": 0.014,
      "velocity": 120,
      "chip": "ym2612"
    },
    {
      "channel": 2,
      "note": 52,
      "start": 80.7318,
      "duration": 0.0141,
      "velocity": 100,
      "chip": "ym2612"
    },
    {
      "channel": 0,
      "note": 45,
      "start": 80.7421,
      "duration": 0.0161,
      "velocity": 115,
      "chip": "ym2612"
    },
    {
      "channel": 4,
      "note": 57,
      "start": 80.7433,
      "duration": 0.0161,
      "velocity": 120,
      "chip": "ym2612"
    },
    {
      "channel": 3,
      "note": 64,
      "start": 80.7447,
      "duration": 0.0158,
      "velocity": 120,
      "chip": "ym2612"
    },
    {
      "channel": 2,
      "note": 52,
      "start": 80.7459,
      "duration": 0.0185,
      "velocity": 100,
      "chip": "ym2612"
    },
    {
      "channel": 0,
      "note": 45,
      "start": 80.7582,
      "duration": 0.0161,
      "velocity": 115,
      "chip": "ym2612"
    },
    {
      "channel": 4,
      "note": 57,
      "start": 80.7593,
      "duration": 0.0161,
      "velocity": 120,
      "chip": "ym2612"
    },
    {
      "channel": 3,
      "note": 64,
      "start": 80.7605,
      "duration": 0.0161,
      "velocity": 120,
      "chip": "ym2612"
    },
    {
      "channel": 2,
      "note": 52,
      "start": 80.7644,
      "duration": 0.0161,
      "velocity": 100,
      "chip": "ym2612"
    },
    {
      "channel": 0,
      "note": 46,
      "start": 80.7743,
      "duration": 0.0161,
      "velocity": 115,
      "chip": "ym2612"
    },
    {
      "channel": 4,
      "note": 57,
      "start": 80.7754,
      "duration": 0.0161,
      "velocity": 120,
      "chip": "ym2612"
    },
    {
      "channel": 3,
      "note": 64,
      "start": 80.7766,
      "duration": 0.0161,
      "velocity": 120,
      "chip": "ym2612"
    },
    {
      "channel": 2,
      "note": 52,
      "start": 80.7805,
      "duration": 0.0134,
      "velocity": 100,
      "chip": "ym2612"
    },
    {
      "channel": 0,
      "note": 46,
      "start": 80.7904,
      "duration": 0.0179,
      "velocity": 124,
      "chip": "ym2612"
    },
    {
      "channel": 4,
      "note": 57,
      "start": 80.7915,
      "duration": 0.0179,
      "velocity": 120,
      "chip": "ym2612"
    },
    {
      "channel": 3,
      "note": 64,
      "start": 80.7927,
      "duration": 0.0179,
      "velocity": 120,
      "chip": "ym2612"
    },
    {
      "channel": 2,
      "note": 52,
      "start": 80.7938,
      "duration": 0.0185,
      "velocity": 100,
      "chip": "ym2612"
    },
    {
      "channel": 0,
      "note": 84,
      "start": 80.8083,
      "duration": 0.0144,
      "velocity": 124,
      "chip": "ym2612"
    },
    {
      "channel": 4,
      "note": 57,
      "start": 80.8095,
      "duration": 0.0144,
      "velocity": 120,
      "chip": "ym2612"
    },
    {
      "channel": 3,
      "note": 64,
      "start": 80.8106,
      "duration": 0.0144,
      "velocity": 120,
      "chip": "ym2612"
    },
    {
      "channel": 2,
      "note": 52,
      "start": 80.8124,
      "duration": 0.0137,
      "velocity": 100,
      "chip": "ym2612"
    },
    {
      "channel": 0,
      "note": 82,
      "start": 80.8227,
      "duration": 0.016,
      "velocity": 124,
      "chip": "ym2612"
    },
    {
      "channel": 4,
      "note": 57,
      "start": 80.8239,
      "duration": 0.016,
      "velocity": 120,
      "chip": "ym2612"
    },
    {
      "channel": 3,
      "note": 64,
      "start": 80.825,
      "duration": 0.016,
      "velocity": 120,
      "chip": "ym2612"
    },
    {
      "channel": 2,
      "note": 52,
      "start": 80.8261,
      "duration": 0.016,
      "velocity": 100,
      "chip": "ym2612"
    },
    {
      "channel": 0,
      "note": 80,
      "start": 80.8387,
      "duration": 0.0161,
      "velocity": 124,
      "chip": "ym2612"
    },
    {
      "channel": 4,
      "note": 57,
      "start": 80.8399,
      "duration": 0.0161,
      "velocity": 120,
      "chip": "ym2612"
    },
    {
      "channel": 3,
      "note": 64,
      "start": 80.841,
      "duration": 0.0161,
      "velocity": 120,
      "chip": "ym2612"
    },
    {
      "channel": 2,
      "note": 52,
      "start": 80.8421,
      "duration": 0.0162,
      "velocity": 100,
      "chip": "ym2612"
    },
    {
      "channel": 0,
      "note": 77,
      "start": 80.8548,
      "duration": 0.0161,
      "velocity": 124,
      "chip": "ym2612"
    },
    {
      "channel": 4,
      "note": 57,
      "start": 80.856,
      "duration": 0.0161,
      "velocity": 120,
      "chip": "ym2612"
    },
    {
      "channel": 3,
      "note": 64,
      "start": 80.8571,
      "duration": 0.0161,
      "velocity": 120,
      "chip": "ym2612"
    },
    {
      "channel": 2,
      "note": 52,
      "start": 80.8583,
      "duration": 0.0161,
      "velocity": 100,
      "chip": "ym2612"
    },
    {
      "channel": 0,
      "note": 75,
      "start": 80.8709,
      "duration": 0.0161,
      "velocity": 124,
      "chip": "ym2612"
    },
    {
      "channel": 4,
      "note": 57,
      "start": 80.8721,
      "duration": 0.0161,
      "velocity": 120,
      "chip": "ym2612"
    },
    {
      "channel": 3,
      "note": 64,
      "start": 80.8732,
      "duration": 0.0161,
      "velocity": 120,
      "chip": "ym2612"
    },
    {
      "channel": 2,
      "note": 52,
      "start": 80.8744,
      "duration": 0.0161,
      "velocity": 100,
      "chip": "ym2612"
    },
    {
      "channel": 0,
      "note": 72,
      "start": 80.887,
      "duration": 0.0161,
      "velocity": 124,
      "chip": "ym2612"
    },
    {
      "channel": 4,
      "note": 57,
      "start": 80.8882,
      "duration": 0.0161,
      "velocity": 120,
      "chip": "ym2612"
    },
    {
      "channel": 3,
      "note": 64,
      "start": 80.8893,
      "duration": 0.0161,
      "velocity": 120,
      "chip": "ym2612"
    },
    {
      "channel": 2,
      "note": 52,
      "start": 80.8905,
      "duration": 0.0161,
      "velocity": 100,
      "chip": "ym2612"
    },
    {
      "channel": 0,
      "note": 70,
      "start": 80.9031,
      "duration": 0.0161,
      "velocity": 124,
      "chip": "ym2612"
    },
    {
      "channel": 4,
      "note": 57,
      "start": 80.9043,
      "duration": 0.0161,
      "velocity": 120,
      "chip": "ym2612"
    },
    {
      "channel": 3,
      "note": 64,
      "start": 80.9054,
      "duration": 0.0161,
      "velocity": 120,
      "chip": "ym2612"
    },
    {
      "channel": 2,
      "note": 52,
      "start": 80.9066,
      "duration": 0.0161,
      "velocity": 100,
      "chip": "ym2612"
    },
    {
      "channel": 0,
      "note": 68,
      "start": 80.9192,
      "duration": 0.0162,
      "velocity": 124,
      "chip": "ym2612"
    },
    {
      "channel": 4,
      "note": 57,
      "start": 80.9204,
      "duration": 0.0161,
      "velocity": 120,
      "chip": "ym2612"
    },
    {
      "channel": 3,
      "note": 64,
      "start": 80.9215,
      "duration": 0.0162,
      "velocity": 120,
      "chip": "ym2612"
    },
    {
      "channel": 2,
      "note": 52,
      "start": 80.9227,
      "duration": 0.0161,
      "velocity": 100,
      "chip": "ym2612"
    },
    {
      "channel": 0,
      "note": 65,
      "start": 80.9354,
      "duration": 0.0161,
      "velocity": 124,
      "chip": "ym2612"
    },
    {
      "channel": 4,
      "note": 57,
      "start": 80.9365,
      "duration": 0.0161,
      "velocity": 120,
      "chip": "ym2612"
    },
    {
      "channel": 3,
      "note": 64,
      "start": 80.9377,
      "duration": 0.0161,
      "velocity": 120,
      "chip": "ym2612"
    },
    {
      "channel": 2,
      "note": 52,
      "start": 80.9387,
      "duration": 0.0161,
      "velocity": 100,
      "chip": "ym2612"
    },
    {
      "channel": 0,
      "note": 63,
      "start": 80.9515,
      "duration": 0.0153,
      "velocity": 1,
      "chip": "ym2612"
    },
    {
      "channel": 4,
      "note": 57,
      "start": 80.9526,
      "duration": 0.0153,
      "velocity": 120,
      "chip": "ym2612"
    },
    {
      "channel": 3,
      "note": 64,
      "start": 80.9537,
      "duration": 0.0153,
      "velocity": 120,
      "chip": "ym2612"
    },
    {
      "channel": 2,
      "note": 52,
      "start": 80.9548,
      "duration": 0.0153,
      "velocity": 100,
      "chip": "ym2612"
    },
    {
      "channel": 4,
      "note": 57,
      "start": 80.9679,
      "duration": 0.0153,
      "velocity": 120,
      "chip": "ym2612"
    },
    {
      "channel": 3,
      "note": 64,
      "start": 80.969,
      "duration": 0.0153,
      "velocity": 120,
      "chip": "ym2612"
    },
    {
      "channel": 2,
      "note": 52,
      "start": 80.9701,
      "duration": 0.0153,
      "velocity": 100,
      "chip": "ym2612"
    },
    {
      "channel": 4,
      "note": 57,
      "start": 80.9832,
      "duration": 0.0195,
      "velocity": 120,
      "chip": "ym2612"
    },
    {
      "channel": 3,
      "note": 64,
      "start": 80.9843,
      "duration": 0.0195,
      "velocity": 120,
      "chip": "ym2612"
    },
    {
      "channel": 2,
      "note": 52,
      "start": 80.9854,
      "duration": 0.0198,
      "velocity": 100,
      "chip": "ym2612"
    },
    {
      "channel": 0,
      "note": 36,
      "start": 81.0015,
      "duration": 0.0144,
      "velocity": 115,
      "chip": "ym2612"
    },
    {
      "channel": 4,
      "note": 57,
      "start": 81.0027,
      "duration": 0.0144,
      "velocity": 120,
      "chip": "ym2612"
    },
    {
      "channel": 3,
      "note": 64,
      "start": 81.0038,
      "duration": 0.0144,
      "velocity": 120,
      "chip": "ym2612"
    },
    {
      "channel": 2,
      "note": 52,
      "start": 81.0053,
      "duration": 0.0141,
      "velocity": 100,
      "chip": "ym2612"
    },
    {
      "channel": 0,
      "note": 36,
      "start": 81.0159,
      "duration": 0.0162,
      "velocity": 115,
      "chip": "ym2612"
    },
    {
      "channel": 4,
      "note": 57,
      "start": 81.0171,
      "duration": 0.0161,
      "velocity": 120,
      "chip": "ym2612"
    },
    {
      "channel": 3,
      "note": 64,
      "start": 81.0182,
      "duration": 0.0162,
      "velocity": 120,
      "chip": "ym2612"
    },
    {
      "channel": 2,
      "note": 52,
      "start": 81.0194,
      "duration": 0.016,
      "velocity": 100,
      "chip": "ym2612"
    },
    {
      "channel": 0,
      "note": 37,
      "start": 81.0321,
      "duration": 0.0167,
      "velocity": 115,
      "chip": "ym2612"
    },
    {
      "channel": 4,
      "note": 57,
      "start": 81.0332,
      "duration": 0.0167,
      "velocity": 120,
      "chip": "ym2612"
    },
    {
      "channel": 3,
      "note": 64,
      "start": 81.0344,
      "duration": 0.0167,
      "velocity": 120,
      "chip": "ym2612"
    },
    {
      "channel": 2,
      "note": 52,
      "start": 81.0354,
      "duration": 0.0167,
      "velocity": 100,
      "chip": "ym2612"
    },
    {
      "channel": 0,
      "note": 37,
      "start": 81.0487,
      "duration": 0.0163,
      "velocity": 115,
      "chip": "ym2612"
    },
    {
      "channel": 4,
      "note": 57,
      "start": 81.0499,
      "duration": 0.0163,
      "velocity": 120,
      "chip": "ym2612"
    },
    {
      "channel": 3,
      "note": 64,
      "start": 81.051,
      "duration": 0.0163,
      "velocity": 120,
      "chip": "ym2612"
    },
    {
      "channel": 2,
      "note": 52,
      "start": 81.0521,
      "duration": 0.0163,
      "velocity": 100,
      "chip": "ym2612"
    },
    {
      "channel": 0,
      "note": 38,
      "start": 81.065,
      "duration": 0.0152,
      "velocity": 115,
      "chip": "ym2612"
    },
    {
      "channel": 4,
      "note": 57,
      "start": 81.0661,
      "duration": 0.0152,
      "velocity": 120,
      "chip": "ym2612"
    },
    {
      "channel": 3,
      "note": 64,
      "start": 81.0673,
      "duration": 0.0152,
      "velocity": 120,
      "chip": "ym2612"
    },
    {
      "channel": 2,
      "note": 52,
      "start": 81.0684,
      "duration": 0.0152,
      "velocity": 100,
      "chip": "ym2612"
    },
    {
      "channel": 0,
      "note": 38,
      "start": 81.0802,
      "duration": 0.0185,
      "velocity": 115,
      "chip": "ym2612"
    },
    {
      "channel": 4,
      "note": 57,
      "start": 81.0814,
      "duration": 0.0185,
      "velocity": 120,
      "chip": "ym2612"
    },
    {
      "channel": 3,
      "note": 64,
      "start": 81.0825,
      "duration": 0.0185,
      "velocity": 120,
      "chip": "ym2612"
    },
    {
      "channel": 2,
      "note": 52,
      "start": 81.0837,
      "duration": 0.0185,
      "velocity": 100,
      "chip": "ym2612"
    },
    {
      "channel": 0,
      "note": 39,
      "start": 81.0987,
      "duration": 0.0165,
      "velocity": 115,
      "chip": "ym2612"
    },
    {
      "channel": 4,
      "note": 57,
      "start": 81.0999,
      "duration": 0.0165,
      "velocity": 120,
      "chip": "ym2612"
    },
    {
      "channel": 3,
      "note": 64,
      "start": 81.101,
      "duration": 0.0165,
      "velocity": 120,
      "chip": "ym2612"
    },
    {
      "channel": 2,
      "note": 52,
      "start": 81.1021,
      "duration": 0.0165,
      "velocity": 100,
      "chip": "ym2612"
    },
    {
      "channel": 0,
      "note": 39,
      "start": 81.1152,
      "duration": 0.0157,
      "velocity": 115,
      "chip": "ym2612"
    },
    {
      "channel": 4,
      "note": 57,
      "start": 81.1163,
      "duration": 0.0157,
      "velocity": 120,
      "chip": "ym2612"
    },
    {
      "channel": 3,
      "note": 64,
      "start": 81.1175,
      "duration": 0.0157,
      "velocity": 120,
      "chip": "ym2612"
    },
    {
      "channel": 2,
      "note": 52,
      "start": 81.1186,
      "duration": 0.0157,
      "velocity": 100,
      "chip": "ym2612"
    },
    {
      "channel": 0,
      "note": 40,
      "start": 81.1309,
      "duration": 0.0141,
      "velocity": 115,
      "chip": "ym2612"
    },
    {
      "channel": 4,
      "note": 57,
      "start": 81.1321,
      "duration": 0.0141,
      "velocity": 120,
      "chip": "ym2612"
    },
    {
      "channel": 3,
      "note": 64,
      "start": 81.1332,
      "duration": 0.0141,
      "velocity": 120,
      "chip": "ym2612"
    },
    {
      "channel": 2,
      "note": 52,
      "start": 81.1344,
      "duration": 0.0141,
      "velocity": 100,
      "chip": "ym2612"
    },
    {
      "channel": 0,
      "note": 40,
      "start": 81.145,
      "duration": 0.0185,
      "velocity": 115,
      "chip": "ym2612"
    },
    {
      "channel": 4,
      "note": 57,
      "start": 81.1461,
      "duration": 0.0185,
      "velocity": 120,
      "chip": "ym2612"
    },
    {
      "channel": 3,
      "note": 64,
      "start": 81.1473,
      "duration": 0.0185,
      "velocity": 120,
      "chip": "ym2612"
    },
    {
      "channel": 2,
      "note": 52,
      "start": 81.1484,
      "duration": 0.0185,
      "velocity": 100,
      "chip": "ym2612"
    },
    {
      "channel": 0,
      "note": 40,
      "start": 81.1635,
      "duration": 0.0134,
      "velocity": 115,
      "chip": "ym2612"
    },
    {
      "channel": 4,
      "note": 57,
      "start": 81.1646,
      "duration": 0.0161,
      "velocity": 120,
      "chip": "ym2612"
    },
    {
      "channel": 3,
      "note": 64,
      "start": 81.1658,
      "duration": 0.0161,
      "velocity": 120,
      "chip": "ym2612"
    },
    {
      "channel": 2,
      "note": 52,
      "start": 81.1669,
      "duration": 0.0161,
      "velocity": 100,
      "chip": "ym2612"
    },
    {
      "channel": 0,
      "note": 41,
      "start": 81.1768,
      "duration": 0.0202,
      "velocity": 115,
      "chip": "ym2612"
    },
    {
      "channel": 4,
      "note": 57,
      "start": 81.1807,
      "duration": 0.0176,
      "velocity": 120,
      "chip": "ym2612"
    },
    {
      "channel": 3,
      "note": 64,
      "start": 81.1819,
      "duration": 0.0176,
      "velocity": 120,
      "chip": "ym2612"
    },
    {
      "channel": 2,
      "note": 52,
      "start": 81.183,
      "duration": 0.0178,
      "velocity": 100,
      "chip": "ym2612"
    },
    {
      "channel": 0,
      "note": 36,
      "start": 81.1971,
      "duration": 0.012,
      "velocity": 115,
      "chip": "ym2612"
    },
    {
      "channel": 4,
      "note": 57,
      "start": 81.1983,
      "duration": 0.012,
      "velocity": 120,
      "chip": "ym2612"
    },
    {
      "channel": 3,
      "note": 64,
      "start": 81.1994,
      "duration": 0.0123,
      "velocity": 120,
      "chip": "ym2612"
    },
    {
      "channel": 2,
      "note": 52,
      "start": 81.2009,
      "duration": 0.012,
      "velocity": 100,
      "chip": "ym2612"
    },
    {
      "channel": 0,
      "note": 36,
      "start": 81.2091,
      "duration": 0.016,
      "velocity": 115,
      "chip": "ym2612"
    },
    {
      "channel": 4,
      "note": 57,
      "start": 81.2102,
      "duration": 0.016,
      "velocity": 120,
      "chip": "ym2612"
    },
    {
      "channel": 3,
      "note": 64,
      "start": 81.2117,
      "duration": 0.0185,
      "velocity": 120,
      "chip": "ym2612"
    },
    {
      "channel": 2,
      "note": 52,
      "start": 81.2129,
      "duration": 0.0184,
      "velocity": 100,
      "chip": "ym2612"
    },
    {
      "channel": 0,
      "note": 37,
      "start": 81.2251,
      "duration": 0.0162,
      "velocity": 115,
      "chip": "ym2612"
    },
    {
      "channel": 4,
      "note": 57,
      "start": 81.2263,
      "duration": 0.0161,
      "velocity": 120,
      "chip": "ym2612"
    },
    {
      "channel": 3,
      "note": 64,
      "start": 81.2302,
      "duration": 0.0134,
      "velocity": 120,
      "chip": "ym2612"
    },
    {
      "channel": 2,
      "note": 52,
      "start": 81.2313,
      "duration": 0.0162,
      "velocity": 100,
      "chip": "ym2612"
    },
    {
      "channel": 0,
      "note": 37,
      "start": 81.2413,
      "duration": 0.0161,
      "velocity": 115,
      "chip": "ym2612"
    },
    {
      "channel": 4,
      "note": 57,
      "start": 81.2424,
      "duration": 0.0161,
      "velocity": 120,
      "chip": "ym2612"
    },
    {
      "channel": 3,
      "note": 64,
      "start": 81.2436,
      "duration": 0.0161,
      "velocity": 120,
      "chip": "ym2612"
    },
    {
      "channel": 2,
      "note": 52,
      "start": 81.2475,
      "duration": 0.0157,
      "velocity": 100,
      "chip": "ym2612"
    },
    {
      "channel": 0,
      "note": 38,
      "start": 81.2574,
      "duration": 0.0161,
      "velocity": 115,
      "chip": "ym2612"
    },
    {
      "channel": 4,
      "note": 57,
      "start": 81.2585,
      "duration": 0.0161,
      "velocity": 120,
      "chip": "ym2612"
    },
    {
      "channel": 3,
      "note": 64,
      "start": 81.2597,
      "duration": 0.0161,
      "velocity": 120,
      "chip": "ym2612"
    },
    {
      "channel": 2,
      "note": 52,
      "start": 81.2632,
      "duration": 0.0137,
      "velocity": 100,
      "chip": "ym2612"
    },
    {
      "channel": 0,
      "note": 38,
      "start": 81.2735,
      "duration": 0.0161,
      "velocity": 115,
      "chip": "ym2612"
    },
    {
      "channel": 4,
      "note": 57,
      "start": 81.2746,
      "duration": 0.0161,
      "velocity": 120,
      "chip": "ym2612"
    },
    {
      "channel": 3,
      "note": 64,
      "start": 81.2758,
      "duration": 0.0161,
      "velocity": 120,
      "chip": "ym2612"
    },
    {
      "channel": 2,
      "note": 52,
      "start": 81.2768,
      "duration": 0.0161,
      "velocity": 100,
      "chip": "ym2612"
    },
    {
      "channel": 0,
      "note": 39,
      "start": 81.2896,
      "duration": 0.0161,
      "velocity": 115,
      "chip": "ym2612"
    },
    {
      "channel": 4,
      "note": 57,
      "start": 81.2907,
      "duration": 0.0161,
      "velocity": 120,
      "chip": "ym2612"
    },
    {
      "channel": 3,
      "note": 64,
      "start": 81.2919,
      "duration": 0.0161,
      "velocity": 120,
      "chip": "ym2612"
    },
    {
      "channel": 2,
      "note": 52,
      "start": 81.293,
      "duration": 0.0161,
      "velocity": 100,
      "chip": "ym2612"
    },
    {
      "channel": 0,
      "note": 39,
      "start": 81.3057,
      "duration": 0.0161,
      "velocity": 115,
      "chip": "ym2612"
    },
    {
      "channel": 4,
      "note": 57,
      "start": 81.3068,
      "duration": 0.0161,
      "velocity": 120,
      "chip": "ym2612"
    },
    {
      "channel": 3,
      "note": 64,
      "start": 81.308,
      "duration": 0.0161,
      "velocity": 120,
      "chip": "ym2612"
    },
    {
      "channel": 2,
      "note": 52,
      "start": 81.3091,
      "duration": 0.0161,
      "velocity": 100,
      "chip": "ym2612"
    },
    {
      "channel": 0,
      "note": 40,
      "start": 81.3217,
      "duration": 0.0161,
      "velocity": 115,
      "chip": "ym2612"
    },
    {
      "channel": 4,
      "note": 57,
      "start": 81.3229,
      "duration": 0.0161,
      "velocity": 120,
      "chip": "ym2612"
    },
    {
      "channel": 3,
      "note": 64,
      "start": 81.324,
      "duration": 0.0161,
      "velocity": 120,
      "chip": "ym2612"
    },
    {
      "channel": 2,
      "note": 52,
      "start": 81.3252,
      "duration": 0.0161,
      "velocity": 100,
      "chip": "ym2612"
    },
    {
      "channel": 0,
      "note": 40,
      "start": 81.3378,
      "duration": 0.0161,
      "velocity": 115,
      "chip": "ym2612"
    },
    {
      "channel": 4,
      "note": 57,
      "start": 81.339,
      "duration": 0.0161,
      "velocity": 120,
      "chip": "ym2612"
    },
    {
      "channel": 3,
      "note": 64,
      "start": 81.3401,
      "duration": 0.0161,
      "velocity": 120,
      "chip": "ym2612"
    },
    {
      "channel": 2,
      "note": 52,
      "start": 81.3413,
      "duration": 0.0161,
      "velocity": 100,
      "chip": "ym2612"
    },
    {
      "channel": 0,
      "note": 40,
      "start": 81.3539,
      "duration": 0.0161,
      "velocity": 115,
      "chip": "ym2612"
    },
    {
      "channel": 4,
      "note": 57,
      "start": 81.3551,
      "duration": 0.0161,
      "velocity": 120,
      "chip": "ym2612"
    },
    {
      "channel": 3,
      "note": 64,
      "start": 81.3562,
      "duration": 0.0161,
      "velocity": 120,
      "chip": "ym2612"
    },
    {
      "channel": 2,
      "note": 52,
      "start": 81.3574,
      "duration": 0.0161,
      "velocity": 100,
      "chip": "ym2612"
    },
    {
      "channel": 0,
      "note": 41,
      "start": 81.37,
      "duration": 0.0161,
      "velocity": 115,
      "chip": "ym2612"
    },
    {
      "channel": 4,
      "note": 57,
      "start": 81.3712,
      "duration": 0.0162,
      "velocity": 120,
      "chip": "ym2612"
    },
    {
      "channel": 3,
      "note": 64,
      "start": 81.3723,
      "duration": 0.0161,
      "velocity": 120,
      "chip": "ym2612"
    },
    {
      "channel": 2,
      "note": 52,
      "start": 81.3735,
      "duration": 0.0164,
      "velocity": 100,
      "chip": "ym2612"
    },
    {
      "channel": 0,
      "note": 41,
      "start": 81.3862,
      "duration": 0.0161,
      "velocity": 115,
      "chip": "ym2612"
    },
    {
      "channel": 4,
      "note": 57,
      "start": 81.3873,
      "duration": 0.0161,
      "velocity": 120,
      "chip": "ym2612"
    },
    {
      "channel": 3,
      "note": 64,
      "start": 81.3885,
      "duration": 0.0161,
      "velocity": 120,
      "chip": "ym2612"
    },
    {
      "channel": 2,
      "note": 52,
      "start": 81.3899,
      "duration": 0.0158,
      "velocity": 100,
      "chip": "ym2612"
    },
    {
      "channel": 0,
      "note": 42,
      "start": 81.4023,
      "duration": 0.0161,
      "velocity": 115,
      "chip": "ym2612"
    },
    {
      "channel": 4,
      "note": 57,
      "start": 81.4034,
      "duration": 0.0161,
      "velocity": 120,
      "chip": "ym2612"
    },
    {
      "channel": 3,
      "note": 64,
      "start": 81.4046,
      "duration": 0.0161,
      "velocity": 120,
      "chip": "ym2612"
    },
    {
      "channel": 2,
      "note": 52,
      "start": 81.4057,
      "duration": 0.016,
      "velocity": 100,
      "chip": "ym2612"
    },
    {
      "channel": 0,
      "note": 42,
      "start": 81.4184,
      "duration": 0.0161,
      "velocity": 115,
      "chip": "ym2612"
    },
    {
      "channel": 4,
      "note": 57,
      "start": 81.4195,
      "duration": 0.0161,
      "velocity": 120,
      "chip": "ym2612"
    },
    {
      "channel": 3,
      "note": 64,
      "start": 81.4207,
      "duration": 0.0161,
      "velocity": 120,
      "chip": "ym2612"
    },
    {
      "channel": 2,
      "note": 52,
      "start": 81.4217,
      "duration": 0.0161,
      "velocity": 100,
      "chip": "ym2612"
    },
    {
      "channel": 0,
      "note": 43,
      "start": 81.4345,
      "duration": 0.0161,
      "velocity": 115,
      "chip": "ym2612"
    },
    {
      "channel": 4,
      "note": 57,
      "start": 81.4356,
      "duration": 0.0161,
      "velocity": 120,
      "chip": "ym2612"
    },
    {
      "channel": 3,
      "note": 64,
      "start": 81.4368,
      "duration": 0.0161,
      "velocity": 120,
      "chip": "ym2612"
    },
    {
      "channel": 2,
      "note": 52,
      "start": 81.4378,
      "duration": 0.0162,
      "velocity": 100,
      "chip": "ym2612"
    },
    {
      "channel": 0,
      "note": 43,
      "start": 81.4506,
      "duration": 0.0161,
      "velocity": 115,
      "chip": "ym2612"
    },
    {
      "channel": 4,
      "note": 57,
      "start": 81.4517,
      "duration": 0.0161,
      "velocity": 120,
      "chip": "ym2612"
    },
    {
      "channel": 3,
      "note": 64,
      "start": 81.4529,
      "duration": 0.0161,
      "velocity": 120,
      "chip": "ym2612"
    },
    {
      "channel": 2,
      "note": 52,
      "start": 81.454,
      "duration": 0.0161,
      "velocity": 100,
      "chip": "ym2612"
    },
    {
      "channel": 0,
      "note": 44,
      "start": 81.4667,
      "duration": 0.0161,
      "velocity": 115,
      "chip": "ym2612"
    },
    {
      "channel": 4,
      "note": 57,
      "start": 81.4678,
      "duration": 0.0161,
      "velocity": 120,
      "chip": "ym2612"
    },
    {
      "channel": 3,
      "note": 64,
      "start": 81.469,
      "duration": 0.0161,
      "velocity": 120,
      "chip": "ym2612"
    },
    {
      "channel": 2,
      "note": 52,
      "start": 81.4701,
      "duration": 0.0161,
      "velocity": 100,
      "chip": "ym2612"
    },
    {
      "channel": 0,
      "note": 44,
      "start": 81.4828,
      "duration": 0.0161,
      "velocity": 115,
      "chip": "ym2612"
    },
    {
      "channel": 4,
      "note": 57,
      "start": 81.4839,
      "duration": 0.0161,
      "velocity": 120,
      "chip": "ym2612"
    },
    {
      "channel": 3,
      "note": 64,
      "start": 81.4851,
      "duration": 0.0161,
      "velocity": 120,
      "chip": "ym2612"
    },
    {
      "channel": 2,
      "note": 52,
      "start": 81.4862,
      "duration": 0.0161,
      "velocity": 100,
      "chip": "ym2612"
    },
    {
      "channel": 0,
      "note": 44,
      "start": 81.4988,
      "duration": 0.0166,
      "velocity": 115,
      "chip": "ym2612"
    },
    {
      "channel": 4,
      "note": 57,
      "start": 81.5,
      "duration": 0.0165,
      "velocity": 120,
      "chip": "ym2612"
    },
    {
      "channel": 3,
      "note": 64,
      "start": 81.5011,
      "duration": 0.0166,
      "velocity": 120,
      "chip": "ym2612"
    },
    {
      "channel": 2,
      "note": 52,
      "start": 81.5023,
      "duration": 0.0165,
      "velocity": 100,
      "chip": "ym2612"
    },
    {
      "channel": 0,
      "note": 45,
      "start": 81.5154,
      "duration": 0.0163,
      "velocity": 115,
      "chip": "ym2612"
    },
    {
      "channel": 4,
      "note": 57,
      "start": 81.5165,
      "duration": 0.0163,
      "velocity": 120,
      "chip": "ym2612"
    },
    {
      "channel": 3,
      "note": 64,
      "start": 81.5177,
      "duration": 0.0163,
      "velocity": 120,
      "chip": "ym2612"
    },
    {
      "channel": 2,
      "note": 52,
      "start": 81.5188,
      "duration": 0.0163,
      "velocity": 100,
      "chip": "ym2612"
    },
    {
      "channel": 0,
      "note": 45,
      "start": 81.5317,
      "duration": 0.0155,
      "velocity": 115,
      "chip": "ym2612"
    },
    {
      "channel": 4,
      "note": 57,
      "start": 81.5328,
      "duration": 0.0155,
      "velocity": 120,
      "chip": "ym2612"
    },
    {
      "channel": 3,
      "note": 64,
      "start": 81.534,
      "duration": 0.0155,
      "velocity": 120,
      "chip": "ym2612"
    },
    {
      "channel": 2,
      "note": 52,
      "start": 81.5351,
      "duration": 0.0155,
      "velocity": 100,
      "chip": "ym2612"
    },
    {
      "channel": 0,
      "note": 46,
      "start": 81.5472,
      "duration": 0.0181,
      "velocity": 115,
      "chip": "ym2612"
    },
    {
      "channel": 4,
      "note": 57,
      "start": 81.5483,
      "duration": 0.0182,
      "velocity": 120,
      "chip": "ym2612"
    },
    {
      "channel": 3,
      "note": 64,
      "start": 81.5495,
      "duration": 0.0181,
      "velocity": 120,
      "chip": "ym2612"
    },
    {
      "channel": 2,
      "note": 52,
      "start": 81.5506,
      "duration": 0.0182,
      "velocity": 100,
      "chip": "ym2612"
    },
    {
      "channel": 0,
      "note": 46,
      "start": 81.5653,
      "duration": 0.0185,
      "velocity": 124,
      "chip": "ym2612"
    },
    {
      "channel": 4,
      "note": 57,
      "start": 81.5665,
      "duration": 0.0185,
      "velocity": 120,
      "chip": "ym2612"
    },
    {
      "channel": 3,
      "note": 64,
      "start": 81.5676,
      "duration": 0.0185,
      "velocity": 120,
      "chip": "ym2612"
    },
    {
      "channel": 2,
      "note": 52,
      "start": 81.5688,
      "duration": 0.0188,
      "velocity": 100,
      "chip": "ym2612"
    },
    {
      "channel": 0,
      "note": 84,
      "start": 81.5838,
      "duration": 0.0141,
      "velocity": 124,
      "chip": "ym2612"
    },
    {
      "channel": 4,
      "note": 57,
      "start": 81.585,
      "duration": 0.0141,
      "velocity": 120,
      "chip": "ym2612"
    },
    {
      "channel": 3,
      "note": 64,
      "start": 81.5861,
      "duration": 0.0141,
      "velocity": 120,
      "chip": "ym2612"
    },
    {
      "channel": 2,
      "note": 52,
      "start": 81.5875,
      "duration": 0.0139,
      "velocity": 100,
      "chip": "ym2612"
    },
    {
      "channel": 0,
      "note": 82,
      "start": 81.5979,
      "duration": 0.014,
      "velocity": 124,
      "chip": "ym2612"
    },
    {
      "channel": 4,
      "note": 57,
      "start": 81.599,
      "duration": 0.014,
      "velocity": 120,
      "chip": "ym2612"
    },
    {
      "channel": 3,
      "note": 64,
      "start": 81.6002,
      "duration": 0.014,
      "velocity": 120,
      "chip": "ym2612"
    },
    {
      "channel": 2,
      "note": 52,
      "start": 81.6014,
      "duration": 0.0139,
      "velocity": 100,
      "chip": "ym2612"
    },
    {
      "channel": 0,
      "note": 80,
      "start": 81.6119,
      "duration": 0.0185,
      "velocity": 124,
      "chip": "ym2612"
    },
    {
      "channel": 4,
      "note": 57,
      "start": 81.613,
      "duration": 0.0185,
      "velocity": 120,
      "chip": "ym2612"
    },
    {
      "channel": 3,
      "note": 64,
      "start": 81.6142,
      "duration": 0.0185,
      "velocity": 120,
      "chip": "ym2612"
    },
    {
      "channel": 2,
      "note": 52,
      "start": 81.6153,
      "duration": 0.0185,
      "velocity": 100,
      "chip": "ym2612"
    },
    {
      "channel": 0,
      "note": 77,
      "start": 81.6304,
      "duration": 0.0134,
      "velocity": 124,
      "chip": "ym2612"
    },
    {
      "channel": 4,
      "note": 57,
      "start": 81.6315,
      "duration": 0.0162,
      "velocity": 120,
      "chip": "ym2612"
    },
    {
      "channel": 3,
      "note": 64,
      "start": 81.6327,
      "duration": 0.0161,
      "velocity": 120,
      "chip": "ym2612"
    },
    {
      "channel": 2,
      "note": 52,
      "start": 81.6338,
      "duration": 0.0161,
      "velocity": 100,
      "chip": "ym2612"
    },
    {
      "channel": 0,
      "note": 75,
      "start": 81.6438,
      "duration": 0.0161,
      "velocity": 124,
      "chip": "ym2612"
    },
    {
      "channel": 4,
      "note": 57,
      "start": 81.6477,
      "duration": 0.0157,
      "velocity": 120,
      "chip": "ym2612"
    },
    {
      "channel": 3,
      "note": 64,
      "start": 81.6488,
      "duration": 0.0158,
      "velocity": 120,
      "chip": "ym2612"
    },
    {
      "channel": 2,
      "note": 52,
      "start": 81.6499,
      "duration": 0.0158,
      "velocity": 100,
      "chip": "ym2612"
    },
    {
      "channel": 0,
      "note": 72,
      "start": 81.6599,
      "duration": 0.0161,
      "velocity": 124,
      "chip": "ym2612"
    },
    {
      "channel": 4,
      "note": 57,
      "start": 81.6634,
      "duration": 0.0137,
      "velocity": 120,
      "chip": "ym2612"
    },
    {
      "channel": 3,
      "note": 64,
      "start": 81.6646,
      "duration": 0.0141,
      "velocity": 120,
      "chip": "ym2612"
    },
    {
      "channel": 2,
      "note": 52,
      "start": 81.6657,
      "duration": 0.0141,
      "velocity": 100,
      "chip": "ym2612"
    },
    {
      "channel": 0,
      "note": 70,
      "start": 81.676,
      "duration": 0.0161,
      "velocity": 124,
      "chip": "ym2612"
    },
    {
      "channel": 4,
      "note": 57,
      "start": 81.6772,
      "duration": 0.0161,
      "velocity": 120,
      "chip": "ym2612"
    },
    {
      "channel": 3,
      "note": 64,
      "start": 81.6786,
      "duration": 0.0185,
      "velocity": 120,
      "chip": "ym2612"
    },
    {
      "channel": 2,
      "note": 52,
      "start": 81.6798,
      "duration": 0.0185,
      "velocity": 100,
      "chip": "ym2612"
    },
    {
      "channel": 0,
      "note": 68,
      "start": 81.6921,
      "duration": 0.0161,
      "velocity": 124,
      "chip": "ym2612"
    },
    {
      "channel": 4,
      "note": 57,
      "start": 81.6933,
      "duration": 0.0161,
      "velocity": 120,
      "chip": "ym2612"
    },
    {
      "channel": 3,
      "note": 64,
      "start": 81.6971,
      "duration": 0.0134,
      "velocity": 120,
      "chip": "ym2612"
    },
    {
      "channel": 2,
      "note": 52,
      "start": 81.6983,
      "duration": 0.0161,
      "velocity": 100,
      "chip": "ym2612"
    },
    {
      "channel": 0,
      "note": 65,
      "start": 81.7082,
      "duration": 0.0161,
      "velocity": 124,
      "chip": "ym2612"
    },
    {
      "channel": 4,
      "note": 57,
      "start": 81.7093,
      "duration": 0.0161,
      "velocity": 120,
      "chip": "ym2612"
    },
    {
      "channel": 3,
      "note": 64,
      "start": 81.7105,
      "duration": 0.0161,
      "velocity": 120,
      "chip": "ym2612"
    },
    {
      "channel": 2,
      "note": 52,
      "start": 81.7144,
      "duration": 0.0157,
      "velocity": 100,
      "chip": "ym2612"
    },
    {
      "channel": 0,
      "note": 63,
      "start": 81.7243,
      "duration": 0.0153,
      "velocity": 1,
      "chip": "ym2612"
    },
    {
      "channel": 4,
      "note": 57,
      "start": 81.7254,
      "duration": 0.0153,
      "velocity": 120,
      "chip": "ym2612"
    },
    {
      "channel": 3,
      "note": 64,
      "start": 81.7266,
      "duration": 0.0153,
      "velocity": 120,
      "chip": "ym2612"
    },
    {
      "channel": 2,
      "note": 52,
      "start": 81.7301,
      "duration": 0.0129,
      "velocity": 100,
      "chip": "ym2612"
    },
    {
      "channel": 4,
      "note": 57,
      "start": 81.7408,
      "duration": 0.0152,
      "velocity": 120,
      "chip": "ym2612"
    },
    {
      "channel": 3,
      "note": 64,
      "start": 81.7419,
      "duration": 0.0153,
      "velocity": 120,
      "chip": "ym2612"
    },
    {
      "channel": 2,
      "note": 52,
      "start": 81.743,
      "duration": 0.0153,
      "velocity": 100,
      "chip": "ym2612"
    },
    {
      "channel": 4,
      "note": 57,
      "start": 81.756,
      "duration": 0.0161,
      "velocity": 120,
      "chip": "ym2612"
    },
    {
      "channel": 3,
      "note": 64,
      "start": 81.7571,
      "duration": 0.0161,
      "velocity": 120,
      "chip": "ym2612"
    },
    {
      "channel": 2,
      "note": 52,
      "start": 81.7583,
      "duration": 0.0163,
      "velocity": 100,
      "chip": "ym2612"
    },
    {
      "channel": 4,
      "note": 57,
      "start": 81.7721,
      "duration": 0.0161,
      "velocity": 120,
      "chip": "ym2612"
    },
    {
      "channel": 3,
      "note": 64,
      "start": 81.7732,
      "duration": 0.0161,
      "velocity": 120,
      "chip": "ym2612"
    },
    {
      "channel": 2,
      "note": 52,
      "start": 81.7747,
      "duration": 0.0159,
      "velocity": 100,
      "chip": "ym2612"
    },
    {
      "channel": 4,
      "note": 57,
      "start": 81.7882,
      "duration": 0.0162,
      "velocity": 120,
      "chip": "ym2612"
    },
    {
      "channel": 3,
      "note": 64,
      "start": 81.7893,
      "duration": 0.0161,
      "velocity": 120,
      "chip": "ym2612"
    },
    {
      "channel": 2,
      "note": 52,
      "start": 81.7905,
      "duration": 0.016,
      "velocity": 100,
      "chip": "ym2612"
    },
    {
      "channel": 4,
      "note": 57,
      "start": 81.8043,
      "duration": 0.0161,
      "velocity": 120,
      "chip": "ym2612"
    },
    {
      "channel": 3,
      "note": 64,
      "start": 81.8054,
      "duration": 0.0162,
      "velocity": 120,
      "chip": "ym2612"
    },
    {
      "channel": 2,
      "note": 52,
      "start": 81.8066,
      "duration": 0.0161,
      "velocity": 100,
      "chip": "ym2612"
    },
    {
      "channel": 4,
      "note": 57,
      "start": 81.8204,
      "duration": 0.0161,
      "velocity": 120,
      "chip": "ym2612"
    },
    {
      "channel": 3,
      "note": 64,
      "start": 81.8216,
      "duration": 0.0161,
      "velocity": 120,
      "chip": "ym2612"
    },
    {
      "channel": 2,
      "note": 52,
      "start": 81.8227,
      "duration": 0.0161,
      "velocity": 100,
      "chip": "ym2612"
    },
    {
      "channel": 4,
      "note": 57,
      "start": 81.8365,
      "duration": 0.0161,
      "velocity": 120,
      "chip": "ym2612"
    },
    {
      "channel": 3,
      "note": 64,
      "start": 81.8377,
      "duration": 0.0161,
      "velocity": 120,
      "chip": "ym2612"
    },
    {
      "channel": 2,
      "note": 52,
      "start": 81.8387,
      "duration": 0.0161,
      "velocity": 100,
      "chip": "ym2612"
    },
    {
      "channel": 4,
      "note": 57,
      "start": 81.8526,
      "duration": 0.0161,
      "velocity": 120,
      "chip": "ym2612"
    },
    {
      "channel": 3,
      "note": 64,
      "start": 81.8537,
      "duration": 0.0161,
      "velocity": 120,
      "chip": "ym2612"
    },
    {
      "channel": 2,
      "note": 52,
      "start": 81.8548,
      "duration": 0.0161,
      "velocity": 100,
      "chip": "ym2612"
    },
    {
      "channel": 4,
      "note": 57,
      "start": 81.8687,
      "duration": 0.0161,
      "velocity": 120,
      "chip": "ym2612"
    },
    {
      "channel": 3,
      "note": 64,
      "start": 81.8698,
      "duration": 0.0161,
      "velocity": 120,
      "chip": "ym2612"
    },
    {
      "channel": 2,
      "note": 52,
      "start": 81.8709,
      "duration": 0.0161,
      "velocity": 100,
      "chip": "ym2612"
    },
    {
      "channel": 4,
      "note": 57,
      "start": 81.8848,
      "duration": 0.0161,
      "velocity": 120,
      "chip": "ym2612"
    },
    {
      "channel": 3,
      "note": 64,
      "start": 81.8859,
      "duration": 0.0161,
      "velocity": 120,
      "chip": "ym2612"
    },
    {
      "channel": 2,
      "note": 52,
      "start": 81.8871,
      "duration": 0.0161,
      "velocity": 100,
      "chip": "ym2612"
    },
    {
      "channel": 4,
      "note": 57,
      "start": 81.9009,
      "duration": 0.0161,
      "velocity": 120,
      "chip": "ym2612"
    },
    {
      "channel": 3,
      "note": 64,
      "start": 81.902,
      "duration": 0.0161,
      "velocity": 120,
      "chip": "ym2612"
    },
    {
      "channel": 2,
      "note": 52,
      "start": 81.9032,
      "duration": 0.0161,
      "velocity": 100,
      "chip": "ym2612"
    },
    {
      "channel": 4,
      "note": 57,
      "start": 81.917,
      "duration": 0.0161,
      "velocity": 120,
      "chip": "ym2612"
    },
    {
      "channel": 3,
      "note": 64,
      "start": 81.9181,
      "duration": 0.0161,
      "velocity": 120,
      "chip": "ym2612"
    },
    {
      "channel": 2,
      "note": 52,
      "start": 81.9193,
      "duration": 0.0161,
      "velocity": 100,
      "chip": "ym2612"
    },
    {
      "channel": 4,
      "note": 57,
      "start": 81.9331,
      "duration": 0.0161,
      "velocity": 120,
      "chip": "ym2612"
    },
    {
      "channel": 3,
      "note": 64,
      "start": 81.9342,
      "duration": 0.0161,
      "velocity": 120,
      "chip": "ym2612"
    },
    {
      "channel": 2,
      "note": 52,
      "start": 81.9354,
      "duration": 0.0161,
      "velocity": 100,
      "chip": "ym2612"
    },
    {
      "channel": 4,
      "note": 57,
      "start": 81.9492,
      "duration": 0.0195,
      "velocity": 120,
      "chip": "ym2612"
    },
    {
      "channel": 3,
      "note": 64,
      "start": 81.9503,
      "duration": 0.0195,
      "velocity": 120,
      "chip": "ym2612"
    },
    {
      "channel": 2,
      "note": 52,
      "start": 81.9515,
      "duration": 0.0199,
      "velocity": 100,
      "chip": "ym2612"
    },
    {
      "channel": 0,
      "note": 36,
      "start": 81.9676,
      "duration": 0.0146,
      "velocity": 115,
      "chip": "ym2612"
    },
    {
      "channel": 4,
      "note": 57,
      "start": 81.9688,
      "duration": 0.0145,
      "velocity": 120,
      "chip": "ym2612"
    },
    {
      "channel": 3,
      "note": 64,
      "start": 81.9698,
      "duration": 0.0146,
      "velocity": 120,
      "chip": "ym2612"
    },
    {
      "channel": 2,
      "note": 52,
      "start": 81.9713,
      "duration": 0.0142,
      "velocity": 100,
      "chip": "ym2612"
    },
    {
      "channel": 0,
      "note": 36,
      "start": 81.9821,
      "duration": 0.0162,
      "velocity": 115,
      "chip": "ym2612"
    },
    {
      "channel": 4,
      "note": 57,
      "start": 81.9833,
      "duration": 0.0162,
      "velocity": 120,
      "chip": "ym2612"
    },
    {
      "channel": 3,
      "note": 64,
      "start": 81.9844,
      "duration": 0.0162,
      "velocity": 120,
      "chip": "ym2612"
    },
    {
      "channel": 2,
      "note": 52,
      "start": 81.9856,
      "duration": 0.0162,
      "velocity": 100,
      "chip": "ym2612"
    },
    {
      "channel": 0,
      "note": 37,
      "start": 81.9983,
      "duration": 0.0158,
      "velocity": 115,
      "chip": "ym2612"
    },
    {
      "channel": 4,
      "note": 57,
      "start": 81.9995,
      "duration": 0.0158,
      "velocity": 120,
      "chip": "ym2612"
    },
    {
      "channel": 3,
      "note": 64,
      "start": 82.0006,
      "duration": 0.0158,
      "velocity": 120,
      "chip": "ym2612"
    },
    {
      "channel": 2,
      "note": 52,
      "start": 82.0018,
      "duration": 0.0157,
      "velocity": 100,
      "chip": "ym2612"
    },
    {
      "channel": 0,
      "note": 37,
      "start": 82.0141,
      "duration": 0.0179,
      "velocity": 115,
      "chip": "ym2612"
    },
    {
      "channel": 4,
      "note": 57,
      "start": 82.0153,
      "duration": 0.0179,
      "velocity": 120,
      "chip": "ym2612"
    },
    {
      "channel": 3,
      "note": 64,
      "start": 82.0164,
      "duration": 0.0179,
      "velocity": 120,
      "chip": "ym2612"
    },
    {
      "channel": 2,
      "note": 52,
      "start": 82.0175,
      "duration": 0.018,
      "velocity": 100,
      "chip": "ym2612"
    },
    {
      "channel": 0,
      "note": 38,
      "start": 82.0321,
      "duration": 0.0167,
      "velocity": 115,
      "chip": "ym2612"
    },
    {
      "channel": 4,
      "note": 57,
      "start": 82.0332,
      "duration": 0.0167,
      "velocity": 120,
      "chip": "ym2612"
    },
    {
      "channel": 3,
      "note": 64,
      "start": 82.0344,
      "duration": 0.0167,
      "velocity": 120,
      "chip": "ym2612"
    },
    {
      "channel": 2,
      "note": 52,
      "start": 82.0354,
      "duration": 0.0167,
      "velocity": 100,
      "chip": "ym2612"
    },
    {
      "channel": 0,
      "note": 38,
      "start": 82.0487,
      "duration": 0.0161,
      "velocity": 115,
      "chip": "ym2612"
    },
    {
      "channel": 4,
      "note": 57,
      "start": 82.0499,
      "duration": 0.0161,
      "velocity": 120,
      "chip": "ym2612"
    },
    {
      "channel": 3,
      "note": 64,
      "start": 82.051,
      "duration": 0.0161,
      "velocity": 120,
      "chip": "ym2612"
    },
    {
      "channel": 2,
      "note": 52,
      "start": 82.0521,
      "duration": 0.0161,
      "velocity": 100,
      "chip": "ym2612"
    },
    {
      "channel": 0,
      "note": 39,
      "start": 82.0648,
      "duration": 0.014,
      "velocity": 115,
      "chip": "ym2612"
    },
    {
      "channel": 4,
      "note": 57,
      "start": 82.066,
      "duration": 0.014,
      "velocity": 120,
      "chip": "ym2612"
    },
    {
      "channel": 3,
      "note": 64,
      "start": 82.0671,
      "duration": 0.014,
      "velocity": 120,
      "chip": "ym2612"
    },
    {
      "channel": 2,
      "note": 52,
      "start": 82.0682,
      "duration": 0.0141,
      "velocity": 100,
      "chip": "ym2612"
    },
    {
      "channel": 0,
      "note": 39,
      "start": 82.0788,
      "duration": 0.0185,
      "velocity": 115,
      "chip": "ym2612"
    },
    {
      "channel": 4,
      "note": 57,
      "start": 82.08,
      "duration": 0.0186,
      "velocity": 120,
      "chip": "ym2612"
    },
    {
      "channel": 3,
      "note": 64,
      "start": 82.0811,
      "duration": 0.0185,
      "velocity": 120,
      "chip": "ym2612"
    },
    {
      "channel": 2,
      "note": 52,
      "start": 82.0822,
      "duration": 0.0185,
      "velocity": 100,
      "chip": "ym2612"
    },
    {
      "channel": 0,
      "note": 40,
      "start": 82.0973,
      "duration": 0.0161,
      "velocity": 115,
      "chip": "ym2612"
    },
    {
      "channel": 4,
      "note": 57,
      "start": 82.0985,
      "duration": 0.0161,
      "velocity": 120,
      "chip": "ym2612"
    },
    {
      "channel": 3,
      "note": 64,
      "start": 82.0996,
      "duration": 0.0161,
      "velocity": 120,
      "chip": "ym2612"
    },
    {
      "channel": 2,
      "note": 52,
      "start": 82.1008,
      "duration": 0.0161,
      "velocity": 100,
      "chip": "ym2612"
    },
    {
      "channel": 0,
      "note": 40,
      "start": 82.1134,
      "duration": 0.0134,
      "velocity": 115,
      "chip": "ym2612"
    },
    {
      "channel": 4,
      "note": 57,
      "start": 82.1146,
      "duration": 0.0157,
      "velocity": 120,
      "chip": "ym2612"
    },
    {
      "channel": 3,
      "note": 64,
      "start": 82.1157,
      "duration": 0.0158,
      "velocity": 120,
      "chip": "ym2612"
    },
    {
      "channel": 2,
      "note": 52,
      "start": 82.1168,
      "duration": 0.0158,
      "velocity": 100,
      "chip": "ym2612"
    },
    {
      "channel": 0,
      "note": 40,
      "start": 82.1268,
      "duration": 0.0161,
      "velocity": 115,
      "chip": "ym2612"
    },
    {
      "channel": 4,
      "note": 57,
      "start": 82.1303,
      "duration": 0.0141,
      "velocity": 120,
      "chip": "ym2612"
    },
    {
      "channel": 3,
      "note": 64,
      "start": 82.1315,
      "duration": 0.0141,
      "velocity": 120,
      "chip": "ym2612"
    },
    {
      "channel": 2,
      "note": 52,
      "start": 82.1326,
      "duration": 0.0141,
      "velocity": 100,
      "chip": "ym2612"
    },
    {
      "channel": 0,
      "note": 41,
      "start": 82.1429,
      "duration": 0.0161,
      "velocity": 115,
      "chip": "ym2612"
    },
    {
      "channel": 4,
      "note": 57,
      "start": 82.1444,
      "duration": 0.0158,
      "velocity": 120,
      "chip": "ym2612"
    },
    {
      "channel": 3,
      "note": 64,
      "start": 82.1456,
      "duration": 0.0185,
      "velocity": 120,
      "chip": "ym2612"
    },
    {
      "channel": 2,
      "note": 52,
      "start": 82.1467,
      "duration": 0.0188,
      "velocity": 100,
      "chip": "ym2612"
    },
    {
      "channel": 0,
      "note": 41,
      "start": 82.159,
      "duration": 0.0161,
      "velocity": 115,
      "chip": "ym2612"
    },
    {
      "channel": 4,
      "note": 57,
      "start": 82.1602,
      "duration": 0.0161,
      "velocity": 120,
      "chip": "ym2612"
    },
    {
      "channel": 3,
      "note": 64,
      "start": 82.1641,
      "duration": 0.0161,
      "velocity": 120,
      "chip": "ym2612"
    },
    {
      "channel": 2,
      "note": 52,
      "start": 82.1655,
      "duration": 0.0159,
      "velocity": 100,
      "chip": "ym2612"
    },
    {
      "channel": 0,
      "note": 42,
      "start": 82.1751,
      "duration": 0.0161,
      "velocity": 115,
      "chip": "ym2612"
    },
    {
      "channel": 4,
      "note": 57,
      "start": 82.1763,
      "duration": 0.0161,
      "velocity": 120,
      "chip": "ym2612"
    },
    {
      "channel": 3,
      "note": 64,
      "start": 82.1802,
      "duration": 0.0134,
      "velocity": 120,
      "chip": "ym2612"
    },
    {
      "channel": 2,
      "note": 52,
      "start": 82.1814,
      "duration": 0.0156,
      "velocity": 100,
      "chip": "ym2612"
    },
    {
      "channel": 0,
      "note": 42,
      "start": 82.1912,
      "duration": 0.0161,
      "velocity": 115,
      "chip": "ym2612"
    },
    {
      "channel": 4,
      "note": 57,
      "start": 82.1924,
      "duration": 0.0161,
      "velocity": 120,
      "chip": "ym2612"
    },
    {
      "channel": 3,
      "note": 64,
      "start": 82.1935,
      "duration": 0.0161,
      "velocity": 120,
      "chip": "ym2612"
    },
    {
      "channel": 2,
      "note": 52,
      "start": 82.197,
      "duration": 0.0141,
      "velocity": 100,
      "chip": "ym2612"
    },
    {
      "channel": 0,
      "note": 43,
      "start": 82.2073,
      "duration": 0.0161,
      "velocity": 115,
      "chip": "ym2612"
    },
    {
      "channel": 4,
      "note": 57,
      "start": 82.2085,
      "duration": 0.0161,
      "velocity": 120,
      "chip": "ym2612"
    },
    {
      "channel": 3,
      "note": 64,
      "start": 82.2096,
      "duration": 0.0161,
      "velocity": 120,
      "chip": "ym2612"
    },
    {
      "channel": 2,
      "note": 52,
      "start": 82.2111,
      "duration": 0.0158,
      "velocity": 100,
      "chip": "ym2612"
    },
    {
      "channel": 0,
      "note": 43,
      "start": 82.2234,
      "duration": 0.0161,
      "velocity": 115,
      "chip": "ym2612"
    },
    {
      "channel": 4,
      "note": 57,
      "start": 82.2246,
      "duration": 0.0161,
      "velocity": 120,
      "chip": "ym2612"
    },
    {
      "channel": 3,
      "note": 64,
      "start": 82.2257,
      "duration": 0.0161,
      "velocity": 120,
      "chip": "ym2612"
    },
    {
      "channel": 2,
      "note": 52,
      "start": 82.2268,
      "duration": 0.0161,
      "velocity": 100,
      "chip": "ym2612"
    },
    {
      "channel": 0,
      "note": 44,
      "start": 82.2395,
      "duration": 0.0161,
      "velocity": 115,
      "chip": "ym2612"
    },
    {
      "channel": 4,
      "note": 57,
      "start": 82.2407,
      "duration": 0.0161,
      "velocity": 120,
      "chip": "ym2612"
    },
    {
      "channel": 3,
      "note": 64,
      "start": 82.2418,
      "duration": 0.0161,
      "velocity": 120,
      "chip": "ym2612"
    },
    {
      "channel": 2,
      "note": 52,
      "start": 82.2429,
      "duration": 0.0161,
      "velocity": 100,
      "chip": "ym2612"
    },
    {
      "channel": 0,
      "note": 44,
      "start": 82.2556,
      "duration": 0.0161,
      "velocity": 115,
      "chip": "ym2612"
    },
    {
      "channel": 4,
      "note": 57,
      "start": 82.2567,
      "duration": 0.0162,
      "velocity": 120,
      "chip": "ym2612"
    },
    {
      "channel": 3,
      "note": 64,
      "start": 82.2579,
      "duration": 0.0161,
      "velocity": 120,
      "chip": "ym2612"
    },
    {
      "channel": 2,
      "note": 52,
      "start": 82.259,
      "duration": 0.0161,
      "velocity": 100,
      "chip": "ym2612"
    },
    {
      "channel": 0,
      "note": 44,
      "start": 82.2717,
      "duration": 0.0161,
      "velocity": 115,
      "chip": "ym2612"
    },
    {
      "channel": 4,
      "note": 57,
      "start": 82.2729,
      "duration": 0.0161,
      "velocity": 120,
      "chip": "ym2612"
    },
    {
      "channel": 3,
      "note": 64,
      "start": 82.274,
      "duration": 0.0161,
      "velocity": 120,
      "chip": "ym2612"
    },
    {
      "channel": 2,
      "note": 52,
      "start": 82.2751,
      "duration": 0.0161,
      "velocity": 100,
      "chip": "ym2612"
    },
    {
      "channel": 0,
      "note": 45,
      "start": 82.2878,
      "duration": 0.0161,
      "velocity": 115,
      "chip": "ym2612"
    },
    {
      "channel": 4,
      "note": 57,
      "start": 82.289,
      "duration": 0.0161,
      "velocity": 120,
      "chip": "ym2612"
    },
    {
      "channel": 3,
      "note": 64,
      "start": 82.2901,
      "duration": 0.0161,
      "velocity": 120,
      "chip": "ym2612"
    },
    {
      "channel": 2,
      "note": 52,
      "start": 82.2912,
      "duration": 0.0161,
      "velocity": 100,
      "chip": "ym2612"
    },
    {
      "channel": 0,
      "note": 45,
      "start": 82.3039,
      "duration": 0.0161,
      "velocity": 115,
      "chip": "ym2612"
    },
    {
      "channel": 4,
      "note": 57,
      "start": 82.3051,
      "duration": 0.0161,
      "velocity": 120,
      "chip": "ym2612"
    },
    {
      "channel": 3,
      "note": 64,
      "start": 82.3062,
      "duration": 0.0161,
      "velocity": 120,
      "chip": "ym2612"
    },
    {
      "channel": 2,
      "note": 52,
      "start": 82.3073,
      "duration": 0.0161,
      "velocity": 100,
      "chip": "ym2612"
    },
    {
      "channel": 0,
      "note": 46,
      "start": 82.32,
      "duration": 0.0161,
      "velocity": 115,
      "chip": "ym2612"
    },
    {
      "channel": 4,
      "note": 57,
      "start": 82.3212,
      "duration": 0.0161,
      "velocity": 120,
      "chip": "ym2612"
    },
    {
      "channel": 3,
      "note": 64,
      "start": 82.3223,
      "duration": 0.0161,
      "velocity": 120,
      "chip": "ym2612"
    },
    {
      "channel": 2,
      "note": 52,
      "start": 82.3234,
      "duration": 0.0162,
      "velocity": 100,
      "chip": "ym2612"
    },
    {
      "channel": 0,
      "note": 46,
      "start": 82.3361,
      "duration": 0.0179,
      "velocity": 124,
      "chip": "ym2612"
    },
    {
      "channel": 4,
      "note": 57,
      "start": 82.3373,
      "duration": 0.0179,
      "velocity": 120,
      "chip": "ym2612"
    },
    {
      "channel": 3,
      "note": 64,
      "start": 82.3384,
      "duration": 0.0179,
      "velocity": 120,
      "chip": "ym2612"
    },
    {
      "channel": 2,
      "note": 52,
      "start": 82.3396,
      "duration": 0.0181,
      "velocity": 100,
      "chip": "ym2612"
    },
    {
      "channel": 0,
      "note": 84,
      "start": 82.354,
      "duration": 0.0144,
      "velocity": 124,
      "chip": "ym2612"
    },
    {
      "channel": 4,
      "note": 57,
      "start": 82.3551,
      "duration": 0.0144,
      "velocity": 120,
      "chip": "ym2612"
    },
    {
      "channel": 3,
      "note": 64,
      "start": 82.3563,
      "duration": 0.0144,
      "velocity": 120,
      "chip": "ym2612"
    },
    {
      "channel": 2,
      "note": 52,
      "start": 82.3578,
      "duration": 0.0141,
      "velocity": 100,
      "chip": "ym2612"
    },
    {
      "channel": 0,
      "note": 82,
      "start": 82.3684,
      "duration": 0.016,
      "velocity": 124,
      "chip": "ym2612"
    },
    {
      "channel": 4,
      "note": 57,
      "start": 82.3695,
      "duration": 0.016,
      "velocity": 120,
      "chip": "ym2612"
    },
    {
      "channel": 3,
      "note": 64,
      "start": 82.3707,
      "duration": 0.016,
      "velocity": 120,
      "chip": "ym2612"
    },
    {
      "channel": 2,
      "note": 52,
      "start": 82.3719,
      "duration": 0.016,
      "velocity": 100,
      "chip": "ym2612"
    },
    {
      "channel": 0,
      "note": 80,
      "start": 82.3844,
      "duration": 0.0161,
      "velocity": 124,
      "chip": "ym2612"
    },
    {
      "channel": 4,
      "note": 57,
      "start": 82.3856,
      "duration": 0.0162,
      "velocity": 120,
      "chip": "ym2612"
    },
    {
      "channel": 3,
      "note": 64,
      "start": 82.3867,
      "duration": 0.0161,
      "velocity": 120,
      "chip": "ym2612"
    },
    {
      "channel": 2,
      "note": 52,
      "start": 82.3878,
      "duration": 0.0161,
      "velocity": 100,
      "chip": "ym2612"
    },
    {
      "channel": 0,
      "note": 77,
      "start": 82.4005,
      "duration": 0.0161,
      "velocity": 124,
      "chip": "ym2612"
    },
    {
      "channel": 4,
      "note": 57,
      "start": 82.4017,
      "duration": 0.0161,
      "velocity": 120,
      "chip": "ym2612"
    },
    {
      "channel": 3,
      "note": 64,
      "start": 82.4028,
      "duration": 0.0161,
      "velocity": 120,
      "chip": "ym2612"
    },
    {
      "channel": 2,
      "note": 52,
      "start": 82.4039,
      "duration": 0.0161,
      "velocity": 100,
      "chip": "ym2612"
    },
    {
      "channel": 0,
      "note": 75,
      "start": 82.4166,
      "duration": 0.0162,
      "velocity": 124,
      "chip": "ym2612"
    },
    {
      "channel": 4,
      "note": 57,
      "start": 82.4178,
      "duration": 0.0161,
      "velocity": 120,
      "chip": "ym2612"
    },
    {
      "channel": 3,
      "note": 64,
      "start": 82.4189,
      "duration": 0.0162,
      "velocity": 120,
      "chip": "ym2612"
    },
    {
      "channel": 2,
      "note": 52,
      "start": 82.42,
      "duration": 0.0161,
      "velocity": 100,
      "chip": "ym2612"
    },
    {
      "channel": 0,
      "note": 72,
      "start": 82.4328,
      "duration": 0.0161,
      "velocity": 124,
      "chip": "ym2612"
    },
    {
      "channel": 4,
      "note": 57,
      "start": 82.4339,
      "duration": 0.0161,
      "velocity": 120,
      "chip": "ym2612"
    },
    {
      "channel": 3,
      "note": 64,
      "start": 82.4351,
      "duration": 0.0161,
      "velocity": 120,
      "chip": "ym2612"
    },
    {
      "channel": 2,
      "note": 52,
      "start": 82.4361,
      "duration": 0.0161,
      "velocity": 100,
      "chip": "ym2612"
    },
    {
      "channel": 0,
      "note": 70,
      "start": 82.4488,
      "duration": 0.0162,
      "velocity": 124,
      "chip": "ym2612"
    },
    {
      "channel": 4,
      "note": 57,
      "start": 82.45,
      "duration": 0.0161,
      "velocity": 120,
      "chip": "ym2612"
    },
    {
      "channel": 3,
      "note": 64,
      "start": 82.4511,
      "duration": 0.0162,
      "velocity": 120,
      "chip": "ym2612"
    },
    {
      "channel": 2,
      "note": 52,
      "start": 82.4522,
      "duration": 0.0162,
      "velocity": 100,
      "chip": "ym2612"
    },
    {
      "channel": 0,
      "note": 68,
      "start": 82.465,
      "duration": 0.016,
      "velocity": 124,
      "chip": "ym2612"
    },
    {
      "channel": 4,
      "note": 57,
      "start": 82.4661,
      "duration": 0.016,
      "velocity": 120,
      "chip": "ym2612"
    },
    {
      "channel": 3,
      "note": 64,
      "start": 82.4673,
      "duration": 0.016,
      "velocity": 120,
      "chip": "ym2612"
    },
    {
      "channel": 2,
      "note": 52,
      "start": 82.4684,
      "duration": 0.0161,
      "velocity": 100,
      "chip": "ym2612"
    },
    {
      "channel": 0,
      "note": 65,
      "start": 82.481,
      "duration": 0.0177,
      "velocity": 124,
      "chip": "ym2612"
    },
    {
      "channel": 4,
      "note": 57,
      "start": 82.4822,
      "duration": 0.0177,
      "velocity": 120,
      "chip": "ym2612"
    },
    {
      "channel": 3,
      "note": 64,
      "start": 82.4833,
      "duration": 0.0177,
      "velocity": 120,
      "chip": "ym2612"
    },
    {
      "channel": 2,
      "note": 52,
      "start": 82.4845,
      "duration": 0.0176,
      "velocity": 100,
      "chip": "ym2612"
    },
    {
      "channel": 0,
      "note": 63,
      "start": 82.4987,
      "duration": 0.0158,
      "velocity": 1,
      "chip": "ym2612"
    },
    {
      "channel": 4,
      "note": 57,
      "start": 82.4999,
      "duration": 0.0159,
      "velocity": 120,
      "chip": "ym2612"
    },
    {
      "channel": 3,
      "note": 64,
      "start": 82.501,
      "duration": 0.0158,
      "velocity": 120,
      "chip": "ym2612"
    },
    {
      "channel": 2,
      "note": 52,
      "start": 82.5021,
      "duration": 0.0158,
      "velocity": 100,
      "chip": "ym2612"
    },
    {
      "channel": 4,
      "note": 57,
      "start": 82.5157,
      "duration": 0.0155,
      "velocity": 120,
      "chip": "ym2612"
    },
    {
      "channel": 3,
      "note": 64,
      "start": 82.5168,
      "duration": 0.0155,
      "velocity": 120,
      "chip": "ym2612"
    },
    {
      "channel": 2,
      "note": 52,
      "start": 82.5179,
      "duration": 0.0155,
      "velocity": 100,
      "chip": "ym2612"
    },
    {
      "channel": 4,
      "note": 57,
      "start": 82.5312,
      "duration": 0.0176,
      "velocity": 120,
      "chip": "ym2612"
    },
    {
      "channel": 3,
      "note": 64,
      "start": 82.5323,
      "duration": 0.0176,
      "velocity": 120,
      "chip": "ym2612"
    },
    {
      "channel": 2,
      "note": 52,
      "start": 82.5335,
      "duration": 0.0178,
      "velocity": 100,
      "chip": "ym2612"
    },
    {
      "channel": 0,
      "note": 36,
      "start": 82.5476,
      "duration": 0.0168,
      "velocity": 115,
      "chip": "ym2612"
    },
    {
      "channel": 4,
      "note": 57,
      "start": 82.5487,
      "duration": 0.0168,
      "velocity": 120,
      "chip": "ym2612"
    },
    {
      "channel": 3,
      "note": 64,
      "start": 82.5499,
      "duration": 0.0168,
      "velocity": 120,
      "chip": "ym2612"
    },
    {
      "channel": 2,
      "note": 52,
      "start": 82.5513,
      "duration": 0.0165,
      "velocity": 100,
      "chip": "ym2612"
    },
    {
      "channel": 0,
      "note": 36,
      "start": 82.5644,
      "duration": 0.016,
      "velocity": 115,
      "chip": "ym2612"
    },
    {
      "channel": 4,
      "note": 57,
      "start": 82.5655,
      "duration": 0.016,
      "velocity": 120,
      "chip": "ym2612"
    },
    {
      "channel": 3,
      "note": 64,
      "start": 82.5667,
      "duration": 0.016,
      "velocity": 120,
      "chip": "ym2612"
    },
    {
      "channel": 2,
      "note": 52,
      "start": 82.5678,
      "duration": 0.016,
      "velocity": 100,
      "chip": "ym2612"
    },
    {
      "channel": 0,
      "note": 37,
      "start": 82.5804,
      "duration": 0.0134,
      "velocity": 115,
      "chip": "ym2612"
    },
    {
      "channel": 4,
      "note": 57,
      "start": 82.5815,
      "duration": 0.0157,
      "velocity": 120,
      "chip": "ym2612"
    },
    {
      "channel": 3,
      "note": 64,
      "start": 82.5827,
      "duration": 0.0157,
      "velocity": 120,
      "chip": "ym2612"
    },
    {
      "channel": 2,
      "note": 52,
      "start": 82.5838,
      "duration": 0.0158,
      "velocity": 100,
      "chip": "ym2612"
    },
    {
      "channel": 0,
      "note": 37,
      "start": 82.5938,
      "duration": 0.0161,
      "velocity": 115,
      "chip": "ym2612"
    },
    {
      "channel": 4,
      "note": 57,
      "start": 82.5973,
      "duration": 0.0141,
      "velocity": 120,
      "chip": "ym2612"
    },
    {
      "channel": 3,
      "note": 64,
      "start": 82.5984,
      "duration": 0.0141,
      "velocity": 120,
      "chip": "ym2612"
    },
    {
      "channel": 2,
      "note": 52,
      "start": 82.5995,
      "duration": 0.0141,
      "velocity": 100,
      "chip": "ym2612"
    },
    {
      "channel": 0,
      "note": 38,
      "start": 82.6099,
      "duration": 0.0161,
      "velocity": 115,
      "chip": "ym2612"
    },
    {
      "channel": 4,
      "note": 57,
      "start": 82.6113,
      "duration": 0.0158,
      "velocity": 120,
      "chip": "ym2612"
    },
    {
      "channel": 3,
      "note": 64,
      "start": 82.6125,
      "duration": 0.0185,
      "velocity": 120,
      "chip": "ym2612"
    },
    {
      "channel": 2,
      "note": 52,
      "start": 82.6136,
      "duration": 0.0185,
      "velocity": 100,
      "chip": "ym2612"
    },
    {
      "channel": 0,
      "note": 38,
      "start": 82.626,
      "duration": 0.0161,
      "velocity": 115,
      "chip": "ym2612"
    },
    {
      "channel": 4,
      "note": 57,
      "start": 82.6271,
      "duration": 0.0161,
      "velocity": 120,
      "chip": "ym2612"
    },
    {
      "channel": 3,
      "note": 64,
      "start": 82.631,
      "duration": 0.0161,
      "velocity": 120,
      "chip": "ym2612"
    },
    {
      "channel": 2,
      "note": 52,
      "start": 82.6321,
      "duration": 0.0161,
      "velocity": 100,
      "chip": "ym2612"
    },
    {
      "channel": 0,
      "note": 39,
      "start": 82.642,
      "duration": 0.0161,
      "velocity": 115,
      "chip": "ym2612"
    },
    {
      "channel": 4,
      "note": 57,
      "start": 82.6432,
      "duration": 0.0161,
      "velocity": 120,
      "chip": "ym2612"
    },
    {
      "channel": 3,
      "note": 64,
      "start": 82.6471,
      "duration": 0.0134,
      "velocity": 120,
      "chip": "ym2612"
    },
    {
      "channel": 2,
      "note": 52,
      "start": 82.6482,
      "duration": 0.0157,
      "velocity": 100,
      "chip": "ym2612"
    },
    {
      "channel": 0,
      "note": 39,
      "start": 82.6581,
      "duration": 0.0161,
      "velocity": 115,
      "chip": "ym2612"
    },
    {
      "channel": 4,
      "note": 57,
      "start": 82.6593,
      "duration": 0.0161,
      "velocity": 120,
      "chip": "ym2612"
    },
    {
      "channel": 3,
      "note": 64,
      "start": 82.6604,
      "duration": 0.0161,
      "velocity": 120,
      "chip": "ym2612"
    },
    {
      "channel": 2,
      "note": 52,
      "start": 82.6639,
      "duration": 0.0141,
      "velocity": 100,
      "chip": "ym2612"
    },
    {
      "channel": 0,
      "note": 40,
      "start": 82.6742,
      "duration": 0.0161,
      "velocity": 115,
      "chip": "ym2612"
    },
    {
      "channel": 4,
      "note": 57,
      "start": 82.6754,
      "duration": 0.0161,
      "velocity": 120,
      "chip": "ym2612"
    },
    {
      "channel": 3,
      "note": 64,
      "start": 82.6765,
      "duration": 0.0161,
      "velocity": 120,
      "chip": "ym2612"
    },
    {
      "channel": 2,
      "note": 52,
      "start": 82.678,
      "duration": 0.0158,
      "velocity": 100,
      "chip": "ym2612"
    },
    {
      "channel": 0,
      "note": 40,
      "start": 82.6903,
      "duration": 0.0161,
      "velocity": 115,
      "chip": "ym2612"
    },
    {
      "channel": 4,
      "note": 57,
      "start": 82.6915,
      "duration": 0.0162,
      "velocity": 120,
      "chip": "ym2612"
    },
    {
      "channel": 3,
      "note": 64,
      "start": 82.6926,
      "duration": 0.0161,
      "velocity": 120,
      "chip": "ym2612"
    },
    {
      "channel": 2,
      "note": 52,
      "start": 82.6938,
      "duration": 0.0161,
      "velocity": 100,
      "chip": "ym2612"
    },
    {
      "channel": 0,
      "note": 40,
      "start": 82.7065,
      "duration": 0.016,
      "velocity": 115,
      "chip": "ym2612"
    },
    {
      "channel": 4,
      "note": 57,
      "start": 82.7076,
      "duration": 0.0161,
      "velocity": 120,
      "chip": "ym2612"
    },
    {
      "channel": 3,
      "note": 64,
      "start": 82.7088,
      "duration": 0.016,
      "velocity": 120,
      "chip": "ym2612"
    },
    {
      "channel": 2,
      "note": 52,
      "start": 82.7099,
      "duration": 0.0161,
      "velocity": 100,
      "chip": "ym2612"
    },
    {
      "channel": 0,
      "note": 41,
      "start": 82.7225,
      "duration": 0.0179,
      "velocity": 115,
      "chip": "ym2612"
    },
    {
      "channel": 4,
      "note": 57,
      "start": 82.7237,
      "duration": 0.0179,
      "velocity": 120,
      "chip": "ym2612"
    },
    {
      "channel": 3,
      "note": 64,
      "start": 82.7248,
      "duration": 0.0179,
      "velocity": 120,
      "chip": "ym2612"
    },
    {
      "channel": 2,
      "note": 52,
      "start": 82.726,
      "duration": 0.0185,
      "velocity": 100,
      "chip": "ym2612"
    },
    {
      "channel": 0,
      "note": 36,
      "start": 82.7405,
      "duration": 0.0144,
      "velocity": 115,
      "chip": "ym2612"
    },
    {
      "channel": 4,
      "note": 57,
      "start": 82.7416,
      "duration": 0.0144,
      "velocity": 120,
      "chip": "ym2612"
    },
    {
      "channel": 3,
      "note": 64,
      "start": 82.7427,
      "duration": 0.0144,
      "velocity": 120,
      "chip": "ym2612"
    },
    {
      "channel": 2,
      "note": 52,
      "start": 82.7445,
      "duration": 0.0137,
      "velocity": 100,
      "chip": "ym2612"
    },
    {
      "channel": 0,
      "note": 36,
      "start": 82.7548,
      "duration": 0.016,
      "velocity": 115,
      "chip": "ym2612"
    },
    {
      "channel": 4,
      "note": 57,
      "start": 82.756,
      "duration": 0.016,
      "velocity": 120,
      "chip": "ym2612"
    },
    {
      "channel": 3,
      "note": 64,
      "start": 82.7571,
      "duration": 0.016,
      "velocity": 120,
      "chip": "ym2612"
    },
    {
      "channel": 2,
      "note": 52,
      "start": 82.7583,
      "duration": 0.016,
      "velocity": 100,
      "chip": "ym2612"
    },
    {
      "channel": 0,
      "note": 37,
      "start": 82.7709,
      "duration": 0.0161,
      "velocity": 115,
      "chip": "ym2612"
    },
    {
      "channel": 4,
      "note": 57,
      "start": 82.772,
      "duration": 0.0161,
      "velocity": 120,
      "chip": "ym2612"
    },
    {
      "channel": 3,
      "note": 64,
      "start": 82.7732,
      "duration": 0.0161,
      "velocity": 120,
      "chip": "ym2612"
    },
    {
      "channel": 2,
      "note": 52,
      "start": 82.7743,
      "duration": 0.0161,
      "velocity": 100,
      "chip": "ym2612"
    },
    {
      "channel": 0,
      "note": 37,
      "start": 82.787,
      "duration": 0.0161,
      "velocity": 115,
      "chip": "ym2612"
    },
    {
      "channel": 4,
      "note": 57,
      "start": 82.7881,
      "duration": 0.0161,
      "velocity": 120,
      "chip": "ym2612"
    },
    {
      "channel": 3,
      "note": 64,
      "start": 82.7893,
      "duration": 0.0161,
      "velocity": 120,
      "chip": "ym2612"
    },
    {
      "channel": 2,
      "note": 52,
      "start": 82.7904,
      "duration": 0.0161,
      "velocity": 100,
      "chip": "ym2612"
    },
    {
      "channel": 0,
      "note": 38,
      "start": 82.8031,
      "duration": 0.0161,
      "velocity": 115,
      "chip": "ym2612"
    },
    {
      "channel": 4,
      "note": 57,
      "start": 82.8042,
      "duration": 0.0161,
      "velocity": 120,
      "chip": "ym2612"
    },
    {
      "channel": 3,
      "note": 64,
      "start": 82.8054,
      "duration": 0.0161,
      "velocity": 120,
      "chip": "ym2612"
    },
    {
      "channel": 2,
      "note": 52,
      "start": 82.8065,
      "duration": 0.0161,
      "velocity": 100,
      "chip": "ym2612"
    },
    {
      "channel": 0,
      "note": 38,
      "start": 82.8191,
      "duration": 0.0161,
      "velocity": 115,
      "chip": "ym2612"
    },
    {
      "channel": 4,
      "note": 57,
      "start": 82.8203,
      "duration": 0.0161,
      "velocity": 120,
      "chip": "ym2612"
    },
    {
      "channel": 3,
      "note": 64,
      "start": 82.8214,
      "duration": 0.0161,
      "velocity": 120,
      "chip": "ym2612"
    },
    {
      "channel": 2,
      "note": 52,
      "start": 82.8226,
      "duration": 0.0161,
      "velocity": 100,
      "chip": "ym2612"
    },
    {
      "channel": 0,
      "note": 39,
      "start": 82.8352,
      "duration": 0.0161,
      "velocity": 115,
      "chip": "ym2612"
    },
    {
      "channel": 4,
      "note": 57,
      "start": 82.8364,
      "duration": 0.0161,
      "velocity": 120,
      "chip": "ym2612"
    },
    {
      "channel": 3,
      "note": 64,
      "start": 82.8375,
      "duration": 0.0161,
      "velocity": 120,
      "chip": "ym2612"
    },
    {
      "channel": 2,
      "note": 52,
      "start": 82.8387,
      "duration": 0.0161,
      "velocity": 100,
      "chip": "ym2612"
    },
    {
      "channel": 0,
      "note": 39,
      "start": 82.8513,
      "duration": 0.0161,
      "velocity": 115,
      "chip": "ym2612"
    },
    {
      "channel": 4,
      "note": 57,
      "start": 82.8525,
      "duration": 0.0161,
      "velocity": 120,
      "chip": "ym2612"
    },
    {
      "channel": 3,
      "note": 64,
      "start": 82.8536,
      "duration": 0.0161,
      "velocity": 120,
      "chip": "ym2612"
    },
    {
      "channel": 2,
      "note": 52,
      "start": 82.8548,
      "duration": 0.0161,
      "velocity": 100,
      "chip": "ym2612"
    },
    {
      "channel": 0,
      "note": 40,
      "start": 82.8675,
      "duration": 0.0161,
      "velocity": 115,
      "chip": "ym2612"
    },
    {
      "channel": 4,
      "note": 57,
      "start": 82.8686,
      "duration": 0.0161,
      "velocity": 120,
      "chip": "ym2612"
    },
    {
      "channel": 3,
      "note": 64,
      "start": 82.8698,
      "duration": 0.0161,
      "velocity": 120,
      "chip": "ym2612"
    },
    {
      "channel": 2,
      "note": 52,
      "start": 82.8709,
      "duration": 0.0161,
      "velocity": 100,
      "chip": "ym2612"
    },
    {
      "channel": 0,
      "note": 40,
      "start": 82.8836,
      "duration": 0.0161,
      "velocity": 115,
      "chip": "ym2612"
    },
    {
      "channel": 4,
      "note": 57,
      "start": 82.8847,
      "duration": 0.0161,
      "velocity": 120,
      "chip": "ym2612"
    },
    {
      "channel": 3,
      "note": 64,
      "start": 82.8859,
      "duration": 0.0161,
      "velocity": 120,
      "chip": "ym2612"
    },
    {
      "channel": 2,
      "note": 52,
      "start": 82.887,
      "duration": 0.0161,
      "velocity": 100,
      "chip": "ym2612"
    },
    {
      "channel": 0,
      "note": 40,
      "start": 82.8997,
      "duration": 0.0161,
      "velocity": 115,
      "chip": "ym2612"
    },
    {
      "channel": 4,
      "note": 57,
      "start": 82.9008,
      "duration": 0.0161,
      "velocity": 120,
      "chip": "ym2612"
    },
    {
      "channel": 3,
      "note": 64,
      "start": 82.902,
      "duration": 0.0161,
      "velocity": 120,
      "chip": "ym2612"
    },
    {
      "channel": 2,
      "note": 52,
      "start": 82.9031,
      "duration": 0.0161,
      "velocity": 100,
      "chip": "ym2612"
    },
    {
      "channel": 0,
      "note": 41,
      "start": 82.9158,
      "duration": 0.0179,
      "velocity": 115,
      "chip": "ym2612"
    },
    {
      "channel": 4,
      "note": 57,
      "start": 82.9169,
      "duration": 0.0179,
      "velocity": 120,
      "chip": "ym2612"
    },
    {
      "channel": 3,
      "note": 64,
      "start": 82.9181,
      "duration": 0.0179,
      "velocity": 120,
      "chip": "ym2612"
    },
    {
      "channel": 2,
      "note": 52,
      "start": 82.9192,
      "duration": 0.0182,
      "velocity": 100,
      "chip": "ym2612"
    },
    {
      "channel": 0,
      "note": 36,
      "start": 82.9337,
      "duration": 0.0144,
      "velocity": 115,
      "chip": "ym2612"
    },
    {
      "channel": 4,
      "note": 57,
      "start": 82.9349,
      "duration": 0.0143,
      "velocity": 120,
      "chip": "ym2612"
    },
    {
      "channel": 3,
      "note": 64,
      "start": 82.9359,
      "duration": 0.0144,
      "velocity": 120,
      "chip": "ym2612"
    },
    {
      "channel": 2,
      "note": 52,
      "start": 82.9374,
      "duration": 0.0141,
      "velocity": 100,
      "chip": "ym2612"
    },
    {
      "channel": 0,
      "note": 36,
      "start": 82.948,
      "duration": 0.0174,
      "velocity": 115,
      "chip": "ym2612"
    },
    {
      "channel": 4,
      "note": 57,
      "start": 82.9492,
      "duration": 0.0174,
      "velocity": 120,
      "chip": "ym2612"
    },
    {
      "channel": 3,
      "note": 64,
      "start": 82.9503,
      "duration": 0.0174,
      "velocity": 120,
      "chip": "ym2612"
    },
    {
      "channel": 2,
      "note": 52,
      "start": 82.9515,
      "duration": 0.0173,
      "velocity": 100,
      "chip": "ym2612"
    },
    {
      "channel": 0,
      "note": 37,
      "start": 82.9654,
      "duration": 0.0167,
      "velocity": 115,
      "chip": "ym2612"
    },
    {
      "channel": 4,
      "note": 57,
      "start": 82.9665,
      "duration": 0.0167,
      "velocity": 120,
      "chip": "ym2612"
    },
    {
      "channel": 3,
      "note": 64,
      "start": 82.9677,
      "duration": 0.0167,
      "velocity": 120,
      "chip": "ym2612"
    },
    {
      "channel": 2,
      "note": 52,
      "start": 82.9688,
      "duration": 0.0167,
      "velocity": 100,
      "chip": "ym2612"
    },
    {
      "channel": 0,
      "note": 37,
      "start": 82.9821,
      "duration": 0.0163,
      "velocity": 115,
      "chip": "ym2612"
    },
    {
      "channel": 4,
      "note": 57,
      "start": 82.9832,
      "duration": 0.0163,
      "velocity": 120,
      "chip": "ym2612"
    },
    {
      "channel": 3,
      "note": 64,
      "start": 82.9844,
      "duration": 0.0163,
      "velocity": 120,
      "chip": "ym2612"
    },
    {
      "channel": 2,
      "note": 52,
      "start": 82.9854,
      "duration": 0.0163,
      "velocity": 100,
      "chip": "ym2612"
    },
    {
      "channel": 0,
      "note": 38,
      "start": 82.9983,
      "duration": 0.0144,
      "velocity": 115,
      "chip": "ym2612"
    },
    {
      "channel": 4,
      "note": 57,
      "start": 82.9995,
      "duration": 0.0144,
      "velocity": 120,
      "chip": "ym2612"
    },
    {
      "channel": 3,
      "note": 64,
      "start": 83.0006,
      "duration": 0.0144,
      "velocity": 120,
      "chip": "ym2612"
    },
    {
      "channel": 2,
      "note": 52,
      "start": 83.0018,
      "duration": 0.0143,
      "velocity": 100,
      "chip": "ym2612"
    },
    {
      "channel": 0,
      "note": 38,
      "start": 83.0127,
      "duration": 0.0185,
      "velocity": 115,
      "chip": "ym2612"
    },
    {
      "channel": 4,
      "note": 57,
      "start": 83.0139,
      "duration": 0.0185,
      "velocity": 120,
      "chip": "ym2612"
    },
    {
      "channel": 3,
      "note": 64,
      "start": 83.015,
      "duration": 0.0185,
      "velocity": 120,
      "chip": "ym2612"
    },
    {
      "channel": 2,
      "note": 52,
      "start": 83.0161,
      "duration": 0.0186,
      "velocity": 100,
      "chip": "ym2612"
    },
    {
      "channel": 0,
      "note": 39,
      "start": 83.0312,
      "duration": 0.0161,
      "velocity": 115,
      "chip": "ym2612"
    },
    {
      "channel": 4,
      "note": 57,
      "start": 83.0324,
      "duration": 0.0161,
      "velocity": 120,
      "chip": "ym2612"
    },
    {
      "channel": 3,
      "note": 64,
      "start": 83.0335,
      "duration": 0.0161,
      "velocity": 120,
      "chip": "ym2612"
    },
    {
      "channel": 2,
      "note": 52,
      "start": 83.0347,
      "duration": 0.0161,
      "velocity": 100,
      "chip": "ym2612"
    },
    {
      "channel": 0,
      "note": 39,
      "start": 83.0473,
      "duration": 0.0157,
      "velocity": 115,
      "chip": "ym2612"
    },
    {
      "channel": 4,
      "note": 57,
      "start": 83.0485,
      "duration": 0.0158,
      "velocity": 120,
      "chip": "ym2612"
    },
    {
      "channel": 3,
      "note": 64,
      "start": 83.0496,
      "duration": 0.0157,
      "velocity": 120,
      "chip": "ym2612"
    },
    {
      "channel": 2,
      "note": 52,
      "start": 83.0508,
      "duration": 0.0157,
      "velocity": 100,
      "chip": "ym2612"
    },
    {
      "channel": 0,
      "note": 40,
      "start": 83.063,
      "duration": 0.0137,
      "velocity": 115,
      "chip": "ym2612"
    },
    {
      "channel": 4,
      "note": 57,
      "start": 83.0642,
      "duration": 0.014,
      "velocity": 120,
      "chip": "ym2612"
    },
    {
      "channel": 3,
      "note": 64,
      "start": 83.0653,
      "duration": 0.0141,
      "velocity": 120,
      "chip": "ym2612"
    },
    {
      "channel": 2,
      "note": 52,
      "start": 83.0665,
      "duration": 0.014,
      "velocity": 100,
      "chip": "ym2612"
    },
    {
      "channel": 0,
      "note": 40,
      "start": 83.0768,
      "duration": 0.0161,
      "velocity": 115,
      "chip": "ym2612"
    },
    {
      "channel": 4,
      "note": 57,
      "start": 83.0783,
      "duration": 0.0185,
      "velocity": 120,
      "chip": "ym2612"
    },
    {
      "channel": 3,
      "note": 64,
      "start": 83.0794,
      "duration": 0.0185,
      "velocity": 120,
      "chip": "ym2612"
    },
    {
      "channel": 2,
      "note": 52,
      "start": 83.0805,
      "duration": 0.0185,
      "velocity": 100,
      "chip": "ym2612"
    },
    {
      "channel": 0,
      "note": 40,
      "start": 83.0929,
      "duration": 0.0161,
      "velocity": 115,
      "chip": "ym2612"
    },
    {
      "channel": 4,
      "note": 57,
      "start": 83.0968,
      "duration": 0.0134,
      "velocity": 120,
      "chip": "ym2612"
    },
    {
      "channel": 3,
      "note": 64,
      "start": 83.0979,
      "duration": 0.0161,
      "velocity": 120,
      "chip": "ym2612"
    },
    {
      "channel": 2,
      "note": 52,
      "start": 83.099,
      "duration": 0.0161,
      "velocity": 100,
      "chip": "ym2612"
    },
    {
      "channel": 0,
      "note": 41,
      "start": 83.109,
      "duration": 0.0179,
      "velocity": 124,
      "chip": "ym2612"
    },
    {
      "channel": 4,
      "note": 57,
      "start": 83.1101,
      "duration": 0.0203,
      "velocity": 120,
      "chip": "ym2612"
    },
    {
      "channel": 3,
      "note": 64,
      "start": 83.114,
      "duration": 0.0176,
      "velocity": 120,
      "chip": "ym2612"
    },
    {
      "channel": 2,
      "note": 52,
      "start": 83.1151,
      "duration": 0.0178,
      "velocity": 100,
      "chip": "ym2612"
    },
    {
      "channel": 0,
      "note": 84,
      "start": 83.1268,
      "duration": 0.0144,
      "velocity": 124,
      "chip": "ym2612"
    },
    {
      "channel": 4,
      "note": 57,
      "start": 83.1304,
      "duration": 0.012,
      "velocity": 120,
      "chip": "ym2612"
    },
    {
      "channel": 3,
      "note": 64,
      "start": 83.1315,
      "duration": 0.012,
      "velocity": 120,
      "chip": "ym2612"
    },
    {
      "channel": 2,
      "note": 52,
      "start": 83.133,
      "duration": 0.012,
      "velocity": 100,
      "chip": "ym2612"
    },
    {
      "channel": 0,
      "note": 82,
      "start": 83.1412,
      "duration": 0.0161,
      "velocity": 124,
      "chip": "ym2612"
    },
    {
      "channel": 4,
      "note": 57,
      "start": 83.1424,
      "duration": 0.0161,
      "velocity": 120,
      "chip": "ym2612"
    },
    {
      "channel": 3,
      "note": 64,
      "start": 83.1435,
      "duration": 0.0161,
      "velocity": 120,
      "chip": "ym2612"
    },
    {
      "channel": 2,
      "note": 52,
      "start": 83.145,
      "duration": 0.0185,
      "velocity": 100,
      "chip": "ym2612"
    },
    {
      "channel": 0,
      "note": 80,
      "start": 83.1573,
      "duration": 0.0161,
      "velocity": 124,
      "chip": "ym2612"
    },
    {
      "channel": 4,
      "note": 57,
      "start": 83.1585,
      "duration": 0.0161,
      "velocity": 120,
      "chip": "ym2612"
    },
    {
      "channel": 3,
      "note": 64,
      "start": 83.1596,
      "duration": 0.0161,
      "velocity": 120,
      "chip": "ym2612"
    },
    {
      "channel": 2,
      "note": 52,
      "start": 83.1635,
      "duration": 0.0133,
      "velocity": 100,
      "chip": "ym2612"
    },
    {
      "channel": 0,
      "note": 77,
      "start": 83.1734,
      "duration": 0.0161,
      "velocity": 124,
      "chip": "ym2612"
    },
    {
      "channel": 4,
      "note": 57,
      "start": 83.1746,
      "duration": 0.0161,
      "velocity": 120,
      "chip": "ym2612"
    },
    {
      "channel": 3,
      "note": 64,
      "start": 83.1757,
      "duration": 0.0161,
      "velocity": 120,
      "chip": "ym2612"
    },
    {
      "channel": 2,
      "note": 52,
      "start": 83.1768,
      "duration": 0.0161,
      "velocity": 100,
      "chip": "ym2612"
    },
    {
      "channel": 0,
      "note": 75,
      "start": 83.1895,
      "duration": 0.0161,
      "velocity": 124,
      "chip": "ym2612"
    },
    {
      "channel": 4,
      "note": 57,
      "start": 83.1907,
      "duration": 0.0161,
      "velocity": 120,
      "chip": "ym2612"
    },
    {
      "channel": 3,
      "note": 64,
      "start": 83.1918,
      "duration": 0.0161,
      "velocity": 120,
      "chip": "ym2612"
    },
    {
      "channel": 2,
      "note": 52,
      "start": 83.1929,
      "duration": 0.0161,
      "velocity": 100,
      "chip": "ym2612"
    },
    {
      "channel": 0,
      "note": 72,
      "start": 83.2056,
      "duration": 0.0161,
      "velocity": 124,
      "chip": "ym2612"
    },
    {
      "channel": 4,
      "note": 57,
      "start": 83.2067,
      "duration": 0.0161,
      "velocity": 120,
      "chip": "ym2612"
    },
    {
      "channel": 3,
      "note": 64,
      "start": 83.2079,
      "duration": 0.0161,
      "velocity": 120,
      "chip": "ym2612"
    },
    {
      "channel": 2,
      "note": 52,
      "start": 83.209,
      "duration": 0.016,
      "velocity": 100,
      "chip": "ym2612"
    },
    {
      "channel": 0,
      "note": 70,
      "start": 83.2217,
      "duration": 0.0161,
      "velocity": 124,
      "chip": "ym2612"
    },
    {
      "channel": 4,
      "note": 57,
      "start": 83.2228,
      "duration": 0.0161,
      "velocity": 120,
      "chip": "ym2612"
    },
    {
      "channel": 3,
      "note": 64,
      "start": 83.224,
      "duration": 0.0161,
      "velocity": 120,
      "chip": "ym2612"
    },
    {
      "channel": 2,
      "note": 52,
      "start": 83.2251,
      "duration": 0.0162,
      "velocity": 100,
      "chip": "ym2612"
    },
    {
      "channel": 0,
      "note": 68,
      "start": 83.2378,
      "duration": 0.0161,
      "velocity": 124,
      "chip": "ym2612"
    },
    {
      "channel": 4,
      "note": 57,
      "start": 83.2389,
      "duration": 0.0161,
      "velocity": 120,
      "chip": "ym2612"
    },
    {
      "channel": 3,
      "note": 64,
      "start": 83.2401,
      "duration": 0.0161,
      "velocity": 120,
      "chip": "ym2612"
    },
    {
      "channel": 2,
      "note": 52,
      "start": 83.2412,
      "duration": 0.0161,
      "velocity": 100,
      "chip": "ym2612"
    },
    {
      "channel": 0,
      "note": 65,
      "start": 83.2539,
      "duration": 0.0161,
      "velocity": 124,
      "chip": "ym2612"
    },
    {
      "channel": 4,
      "note": 57,
      "start": 83.255,
      "duration": 0.0161,
      "velocity": 120,
      "chip": "ym2612"
    },
    {
      "channel": 3,
      "note": 64,
      "start": 83.2562,
      "duration": 0.0161,
      "velocity": 120,
      "chip": "ym2612"
    },
    {
      "channel": 2,
      "note": 52,
      "start": 83.2573,
      "duration": 0.0161,
      "velocity": 100,
      "chip": "ym2612"
    },
    {
      "channel": 0,
      "note": 63,
      "start": 83.27,
      "duration": 0.0153,
      "velocity": 1,
      "chip": "ym2612"
    },
    {
      "channel": 4,
      "note": 57,
      "start": 83.2711,
      "duration": 0.0153,
      "velocity": 120,
      "chip": "ym2612"
    },
    {
      "channel": 3,
      "note": 64,
      "start": 83.2723,
      "duration": 0.0153,
      "velocity": 120,
      "chip": "ym2612"
    },
    {
      "channel": 2,
      "note": 52,
      "start": 83.2734,
      "duration": 0.0153,
      "velocity": 100,
      "chip": "ym2612"
    },
    {
      "channel": 4,
      "note": 57,
      "start": 83.2864,
      "duration": 0.0153,
      "velocity": 120,
      "chip": "ym2612"
    },
    {
      "channel": 3,
      "note": 64,
      "start": 83.2876,
      "duration": 0.0152,
      "velocity": 120,
      "chip": "ym2612"
    },
    {
      "channel": 2,
      "note": 52,
      "start": 83.2887,
      "duration": 0.0153,
      "velocity": 100,
      "chip": "ym2612"
    },
    {
      "channel": 4,
      "note": 57,
      "start": 83.3017,
      "duration": 0.0161,
      "velocity": 120,
      "chip": "ym2612"
    },
    {
      "channel": 3,
      "note": 64,
      "start": 83.3028,
      "duration": 0.0162,
      "velocity": 120,
      "chip": "ym2612"
    },
    {
      "channel": 2,
      "note": 52,
      "start": 83.3039,
      "duration": 0.0164,
      "velocity": 100,
      "chip": "ym2612"
    },
    {
      "channel": 4,
      "note": 57,
      "start": 83.3178,
      "duration": 0.0161,
      "velocity": 120,
      "chip": "ym2612"
    },
    {
      "channel": 3,
      "note": 64,
      "start": 83.319,
      "duration": 0.0161,
      "velocity": 120,
      "chip": "ym2612"
    },
    {
      "channel": 2,
      "note": 52,
      "start": 83.3204,
      "duration": 0.0158,
      "velocity": 100,
      "chip": "ym2612"
    },
    {
      "channel": 4,
      "note": 57,
      "start": 83.3339,
      "duration": 0.0161,
      "velocity": 120,
      "chip": "ym2612"
    },
    {
      "channel": 3,
      "note": 64,
      "start": 83.3351,
      "duration": 0.0161,
      "velocity": 120,
      "chip": "ym2612"
    },
    {
      "channel": 2,
      "note": 52,
      "start": 83.3362,
      "duration": 0.016,
      "velocity": 100,
      "chip": "ym2612"
    },
    {
      "channel": 4,
      "note": 57,
      "start": 83.35,
      "duration": 0.0161,
      "velocity": 120,
      "chip": "ym2612"
    },
    {
      "channel": 3,
      "note": 64,
      "start": 83.3511,
      "duration": 0.0161,
      "velocity": 120,
      "chip": "ym2612"
    },
    {
      "channel": 2,
      "note": 52,
      "start": 83.3522,
      "duration": 0.0162,
      "velocity": 100,
      "chip": "ym2612"
    },
    {
      "channel": 4,
      "note": 57,
      "start": 83.3661,
      "duration": 0.0161,
      "velocity": 120,
      "chip": "ym2612"
    },
    {
      "channel": 3,
      "note": 64,
      "start": 83.3672,
      "duration": 0.0161,
      "velocity": 120,
      "chip": "ym2612"
    },
    {
      "channel": 2,
      "note": 52,
      "start": 83.3684,
      "duration": 0.0161,
      "velocity": 100,
      "chip": "ym2612"
    },
    {
      "channel": 4,
      "note": 57,
      "start": 83.3822,
      "duration": 0.0161,
      "velocity": 120,
      "chip": "ym2612"
    },
    {
      "channel": 3,
      "note": 64,
      "start": 83.3833,
      "duration": 0.0161,
      "velocity": 120,
      "chip": "ym2612"
    },
    {
      "channel": 2,
      "note": 52,
      "start": 83.3845,
      "duration": 0.0161,
      "velocity": 100,
      "chip": "ym2612"
    },
    {
      "channel": 4,
      "note": 57,
      "start": 83.3983,
      "duration": 0.0162,
      "velocity": 120,
      "chip": "ym2612"
    },
    {
      "channel": 3,
      "note": 64,
      "start": 83.3994,
      "duration": 0.0161,
      "velocity": 120,
      "chip": "ym2612"
    },
    {
      "channel": 2,
      "note": 52,
      "start": 83.4006,
      "duration": 0.0161,
      "velocity": 100,
      "chip": "ym2612"
    },
    {
      "channel": 4,
      "note": 57,
      "start": 83.4144,
      "duration": 0.0171,
      "velocity": 120,
      "chip": "ym2612"
    },
    {
      "channel": 3,
      "note": 64,
      "start": 83.4155,
      "duration": 0.0172,
      "velocity": 120,
      "chip": "ym2612"
    },
    {
      "channel": 2,
      "note": 52,
      "start": 83.4167,
      "duration": 0.0171,
      "velocity": 100,
      "chip": "ym2612"
    },
    {
      "channel": 4,
      "note": 57,
      "start": 83.4315,
      "duration": 0.0167,
      "velocity": 120,
      "chip": "ym2612"
    },
    {
      "channel": 3,
      "note": 64,
      "start": 83.4327,
      "duration": 0.0167,
      "velocity": 120,
      "chip": "ym2612"
    },
    {
      "channel": 2,
      "note": 52,
      "start": 83.4338,
      "duration": 0.0167,
      "velocity": 100,
      "chip": "ym2612"
    },
    {
      "channel": 4,
      "note": 57,
      "start": 83.4482,
      "duration": 0.0163,
      "velocity": 120,
      "chip": "ym2612"
    },
    {
      "channel": 3,
      "note": 64,
      "start": 83.4494,
      "duration": 0.0163,
      "velocity": 120,
      "chip": "ym2612"
    },
    {
      "channel": 2,
      "note": 52,
      "start": 83.4505,
      "duration": 0.0163,
      "velocity": 100,
      "chip": "ym2612"
    },
    {
      "channel": 4,
      "note": 57,
      "start": 83.4645,
      "duration": 0.0146,
      "velocity": 120,
      "chip": "ym2612"
    },
    {
      "channel": 3,
      "note": 64,
      "start": 83.4656,
      "duration": 0.0146,
      "velocity": 120,
      "chip": "ym2612"
    },
    {
      "channel": 2,
      "note": 52,
      "start": 83.4668,
      "duration": 0.0146,
      "velocity": 100,
      "chip": "ym2612"
    },
    {
      "channel": 4,
      "note": 57,
      "start": 83.4791,
      "duration": 0.0185,
      "velocity": 120,
      "chip": "ym2612"
    },
    {
      "channel": 3,
      "note": 64,
      "start": 83.4803,
      "duration": 0.0185,
      "velocity": 120,
      "chip": "ym2612"
    },
    {
      "channel": 2,
      "note": 52,
      "start": 83.4814,
      "duration": 0.0186,
      "velocity": 100,
      "chip": "ym2612"
    },
    {
      "channel": 4,
      "note": 57,
      "start": 83.4976,
      "duration": 0.0198,
      "velocity": 120,
      "chip": "ym2612"
    },
    {
      "channel": 3,
      "note": 64,
      "start": 83.4988,
      "duration": 0.02,
      "velocity": 120,
      "chip": "ym2612"
    },
    {
      "channel": 2,
      "note": 52,
      "start": 83.4999,
      "duration": 0.0204,
      "velocity": 100,
      "chip": "ym2612"
    },
    {
      "channel": 0,
      "note": 36,
      "start": 83.516,
      "duration": 0.0141,
      "velocity": 115,
      "chip": "ym2612"
    },
    {
      "channel": 4,
      "note": 57,
      "start": 83.5175,
      "duration": 0.0138,
      "velocity": 120,
      "chip": "ym2612"
    },
    {
      "channel": 3,
      "note": 64,
      "start": 83.5189,
      "duration": 0.0136,
      "velocity": 120,
      "chip": "ym2612"
    },
    {
      "channel": 2,
      "note": 52,
      "start": 83.5204,
      "duration": 0.0133,
      "velocity": 100,
      "chip": "ym2612"
    },
    {
      "channel": 0,
      "note": 36,
      "start": 83.5301,
      "duration": 0.0136,
      "velocity": 115,
      "chip": "ym2612"
    },
    {
      "channel": 4,
      "note": 57,
      "start": 83.5313,
      "duration": 0.0139,
      "velocity": 120,
      "chip": "ym2612"
    },
    {
      "channel": 3,
      "note": 64,
      "start": 83.5324,
      "duration": 0.0139,
      "velocity": 120,
      "chip": "ym2612"
    },
    {
      "channel": 2,
      "note": 52,
      "start": 83.5337,
      "duration": 0.0138,
      "velocity": 100,
      "chip": "ym2612"
    },
    {
      "channel": 0,
      "note": 37,
      "start": 83.5437,
      "duration": 0.0161,
      "velocity": 115,
      "chip": "ym2612"
    },
    {
      "channel": 4,
      "note": 57,
      "start": 83.5452,
      "duration": 0.0186,
      "velocity": 120,
      "chip": "ym2612"
    },
    {
      "channel": 3,
      "note": 64,
      "start": 83.5463,
      "duration": 0.0185,
      "velocity": 120,
      "chip": "ym2612"
    },
    {
      "channel": 2,
      "note": 52,
      "start": 83.5475,
      "duration": 0.0185,
      "velocity": 100,
      "chip": "ym2612"
    },
    {
      "channel": 0,
      "note": 37,
      "start": 83.5598,
      "duration": 0.0161,
      "velocity": 115,
      "chip": "ym2612"
    },
    {
      "channel": 4,
      "note": 57,
      "start": 83.5637,
      "duration": 0.0133,
      "velocity": 120,
      "chip": "ym2612"
    },
    {
      "channel": 3,
      "note": 64,
      "start": 83.5648,
      "duration": 0.0161,
      "velocity": 120,
      "chip": "ym2612"
    },
    {
      "channel": 2,
      "note": 52,
      "start": 83.566,
      "duration": 0.0161,
      "velocity": 100,
      "chip": "ym2612"
    },
    {
      "channel": 0,
      "note": 38,
      "start": 83.5759,
      "duration": 0.0161,
      "velocity": 115,
      "chip": "ym2612"
    },
    {
      "channel": 4,
      "note": 57,
      "start": 83.577,
      "duration": 0.0161,
      "velocity": 120,
      "chip": "ym2612"
    },
    {
      "channel": 3,
      "note": 64,
      "start": 83.5809,
      "duration": 0.0158,
      "velocity": 120,
      "chip": "ym2612"
    },
    {
      "channel": 2,
      "note": 52,
      "start": 83.5821,
      "duration": 0.0157,
      "velocity": 100,
      "chip": "ym2612"
    },
    {
      "channel": 0,
      "note": 38,
      "start": 83.592,
      "duration": 0.0162,
      "velocity": 115,
      "chip": "ym2612"
    },
    {
      "channel": 4,
      "note": 57,
      "start": 83.5931,
      "duration": 0.0162,
      "velocity": 120,
      "chip": "ym2612"
    },
    {
      "channel": 3,
      "note": 64,
      "start": 83.5967,
      "duration": 0.0137,
      "velocity": 120,
      "chip": "ym2612"
    },
    {
      "channel": 2,
      "note": 52,
      "start": 83.5978,
      "duration": 0.0141,
      "velocity": 100,
      "chip": "ym2612"
    },
    {
      "channel": 0,
      "note": 39,
      "start": 83.6081,
      "duration": 0.0161,
      "velocity": 115,
      "chip": "ym2612"
    },
    {
      "channel": 4,
      "note": 57,
      "start": 83.6093,
      "duration": 0.0161,
      "velocity": 120,
      "chip": "ym2612"
    },
    {
      "channel": 3,
      "note": 64,
      "start": 83.6104,
      "duration": 0.0161,
      "velocity": 120,
      "chip": "ym2612"
    },
    {
      "channel": 2,
      "note": 52,
      "start": 83.6119,
      "duration": 0.0185,
      "velocity": 100,
      "chip": "ym2612"
    },
    {
      "channel": 0,
      "note": 39,
      "start": 83.6242,
      "duration": 0.0161,
      "velocity": 115,
      "chip": "ym2612"
    },
    {
      "channel": 4,
      "note": 57,
      "start": 83.6254,
      "duration": 0.0161,
      "velocity": 120,
      "chip": "ym2612"
    },
    {
      "channel": 3,
      "note": 64,
      "start": 83.6265,
      "duration": 0.0161,
      "velocity": 120,
      "chip": "ym2612"
    },
    {
      "channel": 2,
      "note": 52,
      "start": 83.6304,
      "duration": 0.0133,
      "velocity": 100,
      "chip": "ym2612"
    },
    {
      "channel": 0,
      "note": 40,
      "start": 83.6403,
      "duration": 0.0161,
      "velocity": 115,
      "chip": "ym2612"
    },
    {
      "channel": 4,
      "note": 57,
      "start": 83.6415,
      "duration": 0.0161,
      "velocity": 120,
      "chip": "ym2612"
    },
    {
      "channel": 3,
      "note": 64,
      "start": 83.6426,
      "duration": 0.0161,
      "velocity": 120,
      "chip": "ym2612"
    },
    {
      "channel": 2,
      "note": 52,
      "start": 83.6437,
      "duration": 0.0162,
      "velocity": 100,
      "chip": "ym2612"
    },
    {
      "channel": 0,
      "note": 40,
      "start": 83.6564,
      "duration": 0.0161,
      "velocity": 115,
      "chip": "ym2612"
    },
    {
      "channel": 4,
      "note": 57,
      "start": 83.6576,
      "duration": 0.0161,
      "velocity": 120,
      "chip": "ym2612"
    },
    {
      "channel": 3,
      "note": 64,
      "start": 83.6587,
      "duration": 0.0161,
      "velocity": 120,
      "chip": "ym2612"
    },
    {
      "channel": 2,
      "note": 52,
      "start": 83.6599,
      "duration": 0.0161,
      "velocity": 100,
      "chip": "ym2612"
    },
    {
      "channel": 0,
      "note": 40,
      "start": 83.6725,
      "duration": 0.0161,
      "velocity": 115,
      "chip": "ym2612"
    },
    {
      "channel": 4,
      "note": 57,
      "start": 83.6737,
      "duration": 0.0161,
      "velocity": 120,
      "chip": "ym2612"
    },
    {
      "channel": 3,
      "note": 64,
      "start": 83.6748,
      "duration": 0.0161,
      "velocity": 120,
      "chip": "ym2612"
    },
    {
      "channel": 2,
      "note": 52,
      "start": 83.676,
      "duration": 0.0161,
      "velocity": 100,
      "chip": "ym2612"
    },
    {
      "channel": 0,
      "note": 41,
      "start": 83.6886,
      "duration": 0.0161,
      "velocity": 115,
      "chip": "ym2612"
    },
    {
      "channel": 4,
      "note": 57,
      "start": 83.6898,
      "duration": 0.0161,
      "velocity": 120,
      "chip": "ym2612"
    },
    {
      "channel": 3,
      "note": 64,
      "start": 83.6909,
      "duration": 0.0161,
      "velocity": 120,
      "chip": "ym2612"
    },
    {
      "channel": 2,
      "note": 52,
      "start": 83.692,
      "duration": 0.0163,
      "velocity": 100,
      "chip": "ym2612"
    },
    {
      "channel": 0,
      "note": 41,
      "start": 83.7047,
      "duration": 0.0161,
      "velocity": 115,
      "chip": "ym2612"
    },
    {
      "channel": 4,
      "note": 57,
      "start": 83.7059,
      "duration": 0.0161,
      "velocity": 120,
      "chip": "ym2612"
    },
    {
      "channel": 3,
      "note": 64,
      "start": 83.707,
      "duration": 0.0161,
      "velocity": 120,
      "chip": "ym2612"
    },
    {
      "channel": 2,
      "note": 52,
      "start": 83.7085,
      "duration": 0.0159,
      "velocity": 100,
      "chip": "ym2612"
    },
    {
      "channel": 0,
      "note": 42,
      "start": 83.7208,
      "duration": 0.0161,
      "velocity": 115,
      "chip": "ym2612"
    },
    {
      "channel": 4,
      "note": 57,
      "start": 83.722,
      "duration": 0.0161,
      "velocity": 120,
      "chip": "ym2612"
    },
    {
      "channel": 3,
      "note": 64,
      "start": 83.7231,
      "duration": 0.0161,
      "velocity": 120,
      "chip": "ym2612"
    },
    {
      "channel": 2,
      "note": 52,
      "start": 83.7243,
      "duration": 0.016,
      "velocity": 100,
      "chip": "ym2612"
    },
    {
      "channel": 0,
      "note": 42,
      "start": 83.7369,
      "duration": 0.0162,
      "velocity": 115,
      "chip": "ym2612"
    },
    {
      "channel": 4,
      "note": 57,
      "start": 83.738,
      "duration": 0.0161,
      "velocity": 120,
      "chip": "ym2612"
    },
    {
      "channel": 3,
      "note": 64,
      "start": 83.7392,
      "duration": 0.0162,
      "velocity": 120,
      "chip": "ym2612"
    },
    {
      "channel": 2,
      "note": 52,
      "start": 83.7403,
      "duration": 0.0161,
      "velocity": 100,
      "chip": "ym2612"
    },
    {
      "channel": 0,
      "note": 43,
      "start": 83.7531,
      "duration": 0.0161,
      "velocity": 115,
      "chip": "ym2612"
    },
    {
      "channel": 4,
      "note": 57,
      "start": 83.7542,
      "duration": 0.0161,
      "velocity": 120,
      "chip": "ym2612"
    },
    {
      "channel": 3,
      "note": 64,
      "start": 83.7554,
      "duration": 0.0161,
      "velocity": 120,
      "chip": "ym2612"
    },
    {
      "channel": 2,
      "note": 52,
      "start": 83.7564,
      "duration": 0.0161,
      "velocity": 100,
      "chip": "ym2612"
    },
    {
      "channel": 0,
      "note": 43,
      "start": 83.7691,
      "duration": 0.0161,
      "velocity": 115,
      "chip": "ym2612"
    },
    {
      "channel": 4,
      "note": 57,
      "start": 83.7703,
      "duration": 0.0161,
      "velocity": 120,
      "chip": "ym2612"
    },
    {
      "channel": 3,
      "note": 64,
      "start": 83.7714,
      "duration": 0.0161,
      "velocity": 120,
      "chip": "ym2612"
    },
    {
      "channel": 2,
      "note": 52,
      "start": 83.7725,
      "duration": 0.0161,
      "velocity": 100,
      "chip": "ym2612"
    },
    {
      "channel": 0,
      "note": 44,
      "start": 83.7852,
      "duration": 0.0161,
      "velocity": 115,
      "chip": "ym2612"
    },
    {
      "channel": 4,
      "note": 57,
      "start": 83.7864,
      "duration": 0.0161,
      "velocity": 120,
      "chip": "ym2612"
    },
    {
      "channel": 3,
      "note": 64,
      "start": 83.7875,
      "duration": 0.0161,
      "velocity": 120,
      "chip": "ym2612"
    },
    {
      "channel": 2,
      "note": 52,
      "start": 83.7886,
      "duration": 0.0161,
      "velocity": 100,
      "chip": "ym2612"
    },
    {
      "channel": 0,
      "note": 44,
      "start": 83.8013,
      "duration": 0.0161,
      "velocity": 115,
      "chip": "ym2612"
    },
    {
      "channel": 4,
      "note": 57,
      "start": 83.8025,
      "duration": 0.0161,
      "velocity": 120,
      "chip": "ym2612"
    },
    {
      "channel": 3,
      "note": 64,
      "start": 83.8036,
      "duration": 0.0161,
      "velocity": 120,
      "chip": "ym2612"
    },
    {
      "channel": 2,
      "note": 52,
      "start": 83.8047,
      "duration": 0.0161,
      "velocity": 100,
      "chip": "ym2612"
    },
    {
      "channel": 0,
      "note": 44,
      "start": 83.8174,
      "duration": 0.0161,
      "velocity": 115,
      "chip": "ym2612"
    },
    {
      "channel": 4,
      "note": 57,
      "start": 83.8186,
      "duration": 0.0161,
      "velocity": 120,
      "chip": "ym2612"
    },
    {
      "channel": 3,
      "note": 64,
      "start": 83.8197,
      "duration": 0.0161,
      "velocity": 120,
      "chip": "ym2612"
    },
    {
      "channel": 2,
      "note": 52,
      "start": 83.8209,
      "duration": 0.0161,
      "velocity": 100,
      "chip": "ym2612"
    },
    {
      "channel": 0,
      "note": 45,
      "start": 83.8335,
      "duration": 0.0161,
      "velocity": 115,
      "chip": "ym2612"
    },
    {
      "channel": 4,
      "note": 57,
      "start": 83.8347,
      "duration": 0.0161,
      "velocity": 120,
      "chip": "ym2612"
    },
    {
      "channel": 3,
      "note": 64,
      "start": 83.8358,
      "duration": 0.0161,
      "velocity": 120,
      "chip": "ym2612"
    },
    {
      "channel": 2,
      "note": 52,
      "start": 83.837,
      "duration": 0.0161,
      "velocity": 100,
      "chip": "ym2612"
    },
    {
      "channel": 0,
      "note": 45,
      "start": 83.8496,
      "duration": 0.0161,
      "velocity": 115,
      "chip": "ym2612"
    },
    {
      "channel": 4,
      "note": 57,
      "start": 83.8508,
      "duration": 0.0161,
      "velocity": 120,
      "chip": "ym2612"
    },
    {
      "channel": 3,
      "note": 64,
      "start": 83.8519,
      "duration": 0.0161,
      "velocity": 120,
      "chip": "ym2612"
    },
    {
      "channel": 2,
      "note": 52,
      "start": 83.8531,
      "duration": 0.0161,
      "velocity": 100,
      "chip": "ym2612"
    },
    {
      "channel": 0,
      "note": 46,
      "start": 83.8657,
      "duration": 0.0161,
      "velocity": 115,
      "chip": "ym2612"
    },
    {
      "channel": 4,
      "note": 57,
      "start": 83.8668,
      "duration": 0.0161,
      "velocity": 120,
      "chip": "ym2612"
    },
    {
      "channel": 3,
      "note": 64,
      "start": 83.868,
      "duration": 0.0161,
      "velocity": 120,
      "chip": "ym2612"
    },
    {
      "channel": 2,
      "note": 52,
      "start": 83.8691,
      "duration": 0.0161,
      "velocity": 100,
      "chip": "ym2612"
    },
    {
      "channel": 0,
      "note": 46,
      "start": 83.8818,
      "duration": 0.0186,
      "velocity": 124,
      "chip": "ym2612"
    },
    {
      "channel": 4,
      "note": 57,
      "start": 83.8829,
      "duration": 0.0187,
      "velocity": 120,
      "chip": "ym2612"
    },
    {
      "channel": 3,
      "note": 64,
      "start": 83.8841,
      "duration": 0.0187,
      "velocity": 120,
      "chip": "ym2612"
    },
    {
      "channel": 2,
      "note": 52,
      "start": 83.8852,
      "duration": 0.019,
      "velocity": 100,
      "chip": "ym2612"
    },
    {
      "channel": 0,
      "note": 84,
      "start": 83.9005,
      "duration": 0.015,
      "velocity": 124,
      "chip": "ym2612"
    },
    {
      "channel": 4,
      "note": 57,
      "start": 83.9017,
      "duration": 0.0149,
      "velocity": 120,
      "chip": "ym2612"
    },
    {
      "channel": 3,
      "note": 64,
      "start": 83.9028,
      "duration": 0.015,
      "velocity": 120,
      "chip": "ym2612"
    },
    {
      "channel": 2,
      "note": 52,
      "start": 83.9042,
      "duration": 0.0147,
      "velocity": 100,
      "chip": "ym2612"
    },
    {
      "channel": 0,
      "note": 82,
      "start": 83.9155,
      "duration": 0.0162,
      "velocity": 124,
      "chip": "ym2612"
    },
    {
      "channel": 4,
      "note": 57,
      "start": 83.9166,
      "duration": 0.0162,
      "velocity": 120,
      "chip": "ym2612"
    },
    {
      "channel": 3,
      "note": 64,
      "start": 83.9178,
      "duration": 0.0162,
      "velocity": 120,
      "chip": "ym2612"
    },
    {
      "channel": 2,
      "note": 52,
      "start": 83.9189,
      "duration": 0.0162,
      "velocity": 100,
      "chip": "ym2612"
    },
    {
      "channel": 0,
      "note": 80,
      "start": 83.9317,
      "duration": 0.0147,
      "velocity": 124,
      "chip": "ym2612"
    },
    {
      "channel": 4,
      "note": 57,
      "start": 83.9328,
      "duration": 0.0147,
      "velocity": 120,
      "chip": "ym2612"
    },
    {
      "channel": 3,
      "note": 64,
      "start": 83.934,
      "duration": 0.0147,
      "velocity": 120,
      "chip": "ym2612"
    },
    {
      "channel": 2,
      "note": 52,
      "start": 83.9351,
      "duration": 0.0147,
      "velocity": 100,
      "chip": "ym2612"
    },
    {
      "channel": 0,
      "note": 77,
      "start": 83.9464,
      "duration": 0.0187,
      "velocity": 124,
      "chip": "ym2612"
    },
    {
      "channel": 4,
      "note": 57,
      "start": 83.9475,
      "duration": 0.0187,
      "velocity": 120,
      "chip": "ym2612"
    },
    {
      "channel": 3,
      "note": 64,
      "start": 83.9487,
      "duration": 0.0187,
      "velocity": 120,
      "chip": "ym2612"
    },
    {
      "channel": 2,
      "note": 52,
      "start": 83.9498,
      "duration": 0.0187,
      "velocity": 100,
      "chip": "ym2612"
    },
    {
      "channel": 0,
      "note": 75,
      "start": 83.9651,
      "duration": 0.0161,
      "velocity": 124,
      "chip": "ym2612"
    },
    {
      "channel": 4,
      "note": 57,
      "start": 83.9662,
      "duration": 0.0161,
      "velocity": 120,
      "chip": "ym2612"
    },
    {
      "channel": 3,
      "note": 64,
      "start": 83.9674,
      "duration": 0.0161,
      "velocity": 120,
      "chip": "ym2612"
    },
    {
      "channel": 2,
      "note": 52,
      "start": 83.9685,
      "duration": 0.0161,
      "velocity": 100,
      "chip": "ym2612"
    },
    {
      "channel": 0,
      "note": 72,
      "start": 83.9812,
      "duration": 0.0158,
      "velocity": 124,
      "chip": "ym2612"
    },
    {
      "channel": 4,
      "note": 57,
      "start": 83.9823,
      "duration": 0.0158,
      "velocity": 120,
      "chip": "ym2612"
    },
    {
      "channel": 3,
      "note": 64,
      "start": 83.9835,
      "duration": 0.0158,
      "velocity": 120,
      "chip": "ym2612"
    },
    {
      "channel": 2,
      "note": 52,
      "start": 83.9846,
      "duration": 0.0157,
      "velocity": 100,
      "chip": "ym2612"
    },
    {
      "channel": 0,
      "note": 70,
      "start": 83.9969,
      "duration": 0.0137,
      "velocity": 124,
      "chip": "ym2612"
    },
    {
      "channel": 4,
      "note": 57,
      "start": 83.9981,
      "duration": 0.014,
      "velocity": 120,
      "chip": "ym2612"
    },
    {
      "channel": 3,
      "note": 64,
      "start": 83.9992,
      "duration": 0.014,
      "velocity": 120,
      "chip": "ym2612"
    },
    {
      "channel": 2,
      "note": 52,
      "start": 84.0003,
      "duration": 0.0141,
      "velocity": 100,
      "chip": "ym2612"
    },
    {
      "channel": 0,
      "note": 68,
      "start": 84.0106,
      "duration": 0.0161,
      "velocity": 124,
      "chip": "ym2612"
    },
    {
      "channel": 4,
      "note": 57,
      "start": 84.0121,
      "duration": 0.0186,
      "velocity": 120,
      "chip": "ym2612"
    },
    {
      "channel": 3,
      "note": 64,
      "start": 84.0132,
      "duration": 0.0185,
      "velocity": 120,
      "chip": "ym2612"
    },
    {
      "channel": 2,
      "note": 52,
      "start": 84.0144,
      "duration": 0.0185,
      "velocity": 100,
      "chip": "ym2612"
    },
    {
      "channel": 0,
      "note": 65,
      "start": 84.0267,
      "duration": 0.0162,
      "velocity": 124,
      "chip": "ym2612"
    },
    {
      "channel": 4,
      "note": 57,
      "start": 84.0307,
      "duration": 0.0161,
      "velocity": 120,
      "chip": "ym2612"
    },
    {
      "channel": 3,
      "note": 64,
      "start": 84.0317,
      "duration": 0.0161,
      "velocity": 120,
      "chip": "ym2612"
    },
    {
      "channel": 2,
      "note": 52,
      "start": 84.0329,
      "duration": 0.0162,
      "velocity": 100,
      "chip": "ym2612"
    },
    {
      "channel": 0,
      "note": 63,
      "start": 84.0429,
      "duration": 0.0153,
      "velocity": 1,
      "chip": "ym2612"
    },
    {
      "channel": 4,
      "note": 57,
      "start": 84.0468,
      "duration": 0.0125,
      "velocity": 120,
      "chip": "ym2612"
    },
    {
      "channel": 3,
      "note": 64,
      "start": 84.0479,
      "duration": 0.0125,
      "velocity": 120,
      "chip": "ym2612"
    },
    {
      "channel": 2,
      "note": 52,
      "start": 84.049,
      "duration": 0.0149,
      "velocity": 100,
      "chip": "ym2612"
    },
    {
      "channel": 4,
      "note": 57,
      "start": 84.0593,
      "duration": 0.0153,
      "velocity": 120,
      "chip": "ym2612"
    },
    {
      "channel": 3,
      "note": 64,
      "start": 84.0604,
      "duration": 0.0153,
      "velocity": 120,
      "chip": "ym2612"
    },
    {
      "channel": 2,
      "note": 52,
      "start": 84.0639,
      "duration": 0.0129,
      "velocity": 100,
      "chip": "ym2612"
    },
    {
      "channel": 4,
      "note": 57,
      "start": 84.0746,
      "duration": 0.0223,
      "velocity": 120,
      "chip": "ym2612"
    },
    {
      "channel": 3,
      "note": 64,
      "start": 84.0757,
      "duration": 0.0223,
      "velocity": 120,
      "chip": "ym2612"
    },
    {
      "channel": 2,
      "note": 52,
      "start": 84.0768,
      "duration": 0.0227,
      "velocity": 100,
      "chip": "ym2612"
    },
    {
      "channel": 0,
      "note": 36,
      "start": 84.0929,
      "duration": 0.0144,
      "velocity": 115,
      "chip": "ym2612"
    },
    {
      "channel": 4,
      "note": 57,
      "start": 84.0969,
      "duration": 0.0116,
      "velocity": 120,
      "chip": "ym2612"
    },
    {
      "channel": 3,
      "note": 64,
      "start": 84.098,
      "duration": 0.0117,
      "velocity": 120,
      "chip": "ym2612"
    },
    {
      "channel": 2,
      "note": 52,
      "start": 84.0994,
      "duration": 0.0141,
      "velocity": 100,
      "chip": "ym2612"
    },
    {
      "channel": 0,
      "note": 36,
      "start": 84.1073,
      "duration": 0.016,
      "velocity": 115,
      "chip": "ym2612"
    },
    {
      "channel": 4,
      "note": 57,
      "start": 84.1085,
      "duration": 0.016,
      "velocity": 120,
      "chip": "ym2612"
    },
    {
      "channel": 3,
      "note": 64,
      "start": 84.1096,
      "duration": 0.016,
      "velocity": 120,
      "chip": "ym2612"
    },
    {
      "channel": 2,
      "note": 52,
      "start": 84.1135,
      "duration": 0.0132,
      "velocity": 100,
      "chip": "ym2612"
    },
    {
      "channel": 0,
      "note": 37,
      "start": 84.1233,
      "duration": 0.0161,
      "velocity": 115,
      "chip": "ym2612"
    },
    {
      "channel": 4,
      "note": 57,
      "start": 84.1245,
      "duration": 0.0161,
      "velocity": 120,
      "chip": "ym2612"
    },
    {
      "channel": 3,
      "note": 64,
      "start": 84.1256,
      "duration": 0.0161,
      "velocity": 120,
      "chip": "ym2612"
    },
    {
      "channel": 2,
      "note": 52,
      "start": 84.1268,
      "duration": 0.0161,
      "velocity": 100,
      "chip": "ym2612"
    },
    {
      "channel": 0,
      "note": 37,
      "start": 84.1394,
      "duration": 0.0161,
      "velocity": 115,
      "chip": "ym2612"
    },
    {
      "channel": 4,
      "note": 57,
      "start": 84.1406,
      "duration": 0.0161,
      "velocity": 120,
      "chip": "ym2612"
    },
    {
      "channel": 3,
      "note": 64,
      "start": 84.1417,
      "duration": 0.0161,
      "velocity": 120,
      "chip": "ym2612"
    },
    {
      "channel": 2,
      "note": 52,
      "start": 84.1429,
      "duration": 0.0161,
      "velocity": 100,
      "chip": "ym2612"
    },
    {
      "channel": 0,
      "note": 38,
      "start": 84.1555,
      "duration": 0.0161,
      "velocity": 115,
      "chip": "ym2612"
    },
    {
      "channel": 4,
      "note": 57,
      "start": 84.1567,
      "duration": 0.0161,
      "velocity": 120,
      "chip": "ym2612"
    },
    {
      "channel": 3,
      "note": 64,
      "start": 84.1578,
      "duration": 0.0161,
      "velocity": 120,
      "chip": "ym2612"
    },
    {
      "channel": 2,
      "note": 52,
      "start": 84.159,
      "duration": 0.0161,
      "velocity": 100,
      "chip": "ym2612"
    },
    {
      "channel": 0,
      "note": 38,
      "start": 84.1716,
      "duration": 0.0161,
      "velocity": 115,
      "chip": "ym2612"
    },
    {
      "channel": 4,
      "note": 57,
      "start": 84.1728,
      "duration": 0.0162,
      "velocity": 120,
      "chip": "ym2612"
    },
    {
      "channel": 3,
      "note": 64,
      "start": 84.1739,
      "duration": 0.0161,
      "velocity": 120,
      "chip": "ym2612"
    },
    {
      "channel": 2,
      "note": 52,
      "start": 84.1751,
      "duration": 0.0161,
      "velocity": 100,
      "chip": "ym2612"
    },
    {
      "channel": 0,
      "note": 39,
      "start": 84.1878,
      "duration": 0.0161,
      "velocity": 115,
      "chip": "ym2612"
    },
    {
      "channel": 4,
      "note": 57,
      "start": 84.1889,
      "duration": 0.0161,
      "velocity": 120,
      "chip": "ym2612"
    },
    {
      "channel": 3,
      "note": 64,
      "start": 84.1901,
      "duration": 0.0161,
      "velocity": 120,
      "chip": "ym2612"
    },
    {
      "channel": 2,
      "note": 52,
      "start": 84.1912,
      "duration": 0.0161,
      "velocity": 100,
      "chip": "ym2612"
    },
    {
      "channel": 0,
      "note": 39,
      "start": 84.2039,
      "duration": 0.0161,
      "velocity": 115,
      "chip": "ym2612"
    },
    {
      "channel": 4,
      "note": 57,
      "start": 84.205,
      "duration": 0.0161,
      "velocity": 120,
      "chip": "ym2612"
    },
    {
      "channel": 3,
      "note": 64,
      "start": 84.2062,
      "duration": 0.0161,
      "velocity": 120,
      "chip": "ym2612"
    },
    {
      "channel": 2,
      "note": 52,
      "start": 84.2073,
      "duration": 0.0161,
      "velocity": 100,
      "chip": "ym2612"
    },
    {
      "channel": 0,
      "note": 40,
      "start": 84.22,
      "duration": 0.0161,
      "velocity": 115,
      "chip": "ym2612"
    },
    {
      "channel": 4,
      "note": 57,
      "start": 84.2211,
      "duration": 0.0161,
      "velocity": 120,
      "chip": "ym2612"
    },
    {
      "channel": 3,
      "note": 64,
      "start": 84.2223,
      "duration": 0.0161,
      "velocity": 120,
      "chip": "ym2612"
    },
    {
      "channel": 2,
      "note": 52,
      "start": 84.2233,
      "duration": 0.0161,
      "velocity": 100,
      "chip": "ym2612"
    },
    {
      "channel": 0,
      "note": 40,
      "start": 84.2361,
      "duration": 0.0161,
      "velocity": 115,
      "chip": "ym2612"
    },
    {
      "channel": 4,
      "note": 57,
      "start": 84.2372,
      "duration": 0.0161,
      "velocity": 120,
      "chip": "ym2612"
    },
    {
      "channel": 3,
      "note": 64,
      "start": 84.2384,
      "duration": 0.0161,
      "velocity": 120,
      "chip": "ym2612"
    },
    {
      "channel": 2,
      "note": 52,
      "start": 84.2394,
      "duration": 0.0162,
      "velocity": 100,
      "chip": "ym2612"
    },
    {
      "channel": 0,
      "note": 40,
      "start": 84.2522,
      "duration": 0.0161,
      "velocity": 115,
      "chip": "ym2612"
    },
    {
      "channel": 4,
      "note": 57,
      "start": 84.2533,
      "duration": 0.0161,
      "velocity": 120,
      "chip": "ym2612"
    },
    {
      "channel": 3,
      "note": 64,
      "start": 84.2544,
      "duration": 0.0161,
      "velocity": 120,
      "chip": "ym2612"
    },
    {
      "channel": 2,
      "note": 52,
      "start": 84.2556,
      "duration": 0.0161,
      "velocity": 100,
      "chip": "ym2612"
    },
    {
      "channel": 0,
      "note": 41,
      "start": 84.2683,
      "duration": 0.0179,
      "velocity": 115,
      "chip": "ym2612"
    },
    {
      "channel": 4,
      "note": 57,
      "start": 84.2694,
      "duration": 0.0179,
      "velocity": 120,
      "chip": "ym2612"
    },
    {
      "channel": 3,
      "note": 64,
      "start": 84.2705,
      "duration": 0.0179,
      "velocity": 120,
      "chip": "ym2612"
    },
    {
      "channel": 2,
      "note": 52,
      "start": 84.2717,
      "duration": 0.0181,
      "velocity": 100,
      "chip": "ym2612"
    },
    {
      "channel": 0,
      "note": 36,
      "start": 84.2861,
      "duration": 0.0144,
      "velocity": 115,
      "chip": "ym2612"
    },
    {
      "channel": 4,
      "note": 57,
      "start": 84.2873,
      "duration": 0.0144,
      "velocity": 120,
      "chip": "ym2612"
    },
    {
      "channel": 3,
      "note": 64,
      "start": 84.2884,
      "duration": 0.0144,
      "velocity": 120,
      "chip": "ym2612"
    },
    {
      "channel": 2,
      "note": 52,
      "start": 84.2899,
      "duration": 0.0141,
      "velocity": 100,
      "chip": "ym2612"
    },
    {
      "channel": 0,
      "note": 36,
      "start": 84.3005,
      "duration": 0.016,
      "velocity": 115,
      "chip": "ym2612"
    },
    {
      "channel": 4,
      "note": 57,
      "start": 84.3017,
      "duration": 0.016,
      "velocity": 120,
      "chip": "ym2612"
    },
    {
      "channel": 3,
      "note": 64,
      "start": 84.3028,
      "duration": 0.016,
      "velocity": 120,
      "chip": "ym2612"
    },
    {
      "channel": 2,
      "note": 52,
      "start": 84.304,
      "duration": 0.016,
      "velocity": 100,
      "chip": "ym2612"
    },
    {
      "channel": 0,
      "note": 37,
      "start": 84.3165,
      "duration": 0.0161,
      "velocity": 115,
      "chip": "ym2612"
    },
    {
      "channel": 4,
      "note": 57,
      "start": 84.3177,
      "duration": 0.0161,
      "velocity": 120,
      "chip": "ym2612"
    },
    {
      "channel": 3,
      "note": 64,
      "start": 84.3188,
      "duration": 0.0161,
      "velocity": 120,
      "chip": "ym2612"
    },
    {
      "channel": 2,
      "note": 52,
      "start": 84.32,
      "duration": 0.0161,
      "velocity": 100,
      "chip": "ym2612"
    },
    {
      "channel": 0,
      "note": 37,
      "start": 84.3326,
      "duration": 0.0162,
      "velocity": 115,
      "chip": "ym2612"
    },
    {
      "channel": 4,
      "note": 57,
      "start": 84.3338,
      "duration": 0.0161,
      "velocity": 120,
      "chip": "ym2612"
    },
    {
      "channel": 3,
      "note": 64,
      "start": 84.3349,
      "duration": 0.0162,
      "velocity": 120,
      "chip": "ym2612"
    },
    {
      "channel": 2,
      "note": 52,
      "start": 84.3361,
      "duration": 0.0161,
      "velocity": 100,
      "chip": "ym2612"
    },
    {
      "channel": 0,
      "note": 38,
      "start": 84.3488,
      "duration": 0.0166,
      "velocity": 115,
      "chip": "ym2612"
    },
    {
      "channel": 4,
      "note": 57,
      "start": 84.3499,
      "duration": 0.0166,
      "velocity": 120,
      "chip": "ym2612"
    },
    {
      "channel": 3,
      "note": 64,
      "start": 84.3511,
      "duration": 0.0166,
      "velocity": 120,
      "chip": "ym2612"
    },
    {
      "channel": 2,
      "note": 52,
      "start": 84.3522,
      "duration": 0.0166,
      "velocity": 100,
      "chip": "ym2612"
    },
    {
      "channel": 0,
      "note": 38,
      "start": 84.3654,
      "duration": 0.0167,
      "velocity": 115,
      "chip": "ym2612"
    },
    {
      "channel": 4,
      "note": 57,
      "start": 84.3665,
      "duration": 0.0167,
      "velocity": 120,
      "chip": "ym2612"
    },
    {
      "channel": 3,
      "note": 64,
      "start": 84.3677,
      "duration": 0.0167,
      "velocity": 120,
      "chip": "ym2612"
    },
    {
      "channel": 2,
      "note": 52,
      "start": 84.3688,
      "duration": 0.0167,
      "velocity": 100,
      "chip": "ym2612"
    },
    {
      "channel": 0,
      "note": 39,
      "start": 84.3821,
      "duration": 0.0163,
      "velocity": 115,
      "chip": "ym2612"
    },
    {
      "channel": 4,
      "note": 57,
      "start": 84.3832,
      "duration": 0.0163,
      "velocity": 120,
      "chip": "ym2612"
    },
    {
      "channel": 3,
      "note": 64,
      "start": 84.3844,
      "duration": 0.0163,
      "velocity": 120,
      "chip": "ym2612"
    },
    {
      "channel": 2,
      "note": 52,
      "start": 84.3854,
      "duration": 0.0163,
      "velocity": 100,
      "chip": "ym2612"
    },
    {
      "channel": 0,
      "note": 39,
      "start": 84.3983,
      "duration": 0.0148,
      "velocity": 115,
      "chip": "ym2612"
    },
    {
      "channel": 4,
      "note": 57,
      "start": 84.3995,
      "duration": 0.0148,
      "velocity": 120,
      "chip": "ym2612"
    },
    {
      "channel": 3,
      "note": 64,
      "start": 84.4006,
      "duration": 0.0148,
      "velocity": 120,
      "chip": "ym2612"
    },
    {
      "channel": 2,
      "note": 52,
      "start": 84.4018,
      "duration": 0.0148,
      "velocity": 100,
      "chip": "ym2612"
    },
    {
      "channel": 0,
      "note": 40,
      "start": 84.4132,
      "duration": 0.0188,
      "velocity": 115,
      "chip": "ym2612"
    },
    {
      "channel": 4,
      "note": 57,
      "start": 84.4143,
      "duration": 0.0188,
      "velocity": 120,
      "chip": "ym2612"
    },
    {
      "channel": 3,
      "note": 64,
      "start": 84.4155,
      "duration": 0.0188,
      "velocity": 120,
      "chip": "ym2612"
    },
    {
      "channel": 2,
      "note": 52,
      "start": 84.4166,
      "duration": 0.0188,
      "velocity": 100,
      "chip": "ym2612"
    },
    {
      "channel": 0,
      "note": 40,
      "start": 84.432,
      "duration": 0.0161,
      "velocity": 115,
      "chip": "ym2612"
    },
    {
      "channel": 4,
      "note": 57,
      "start": 84.4332,
      "duration": 0.0161,
      "velocity": 120,
      "chip": "ym2612"
    },
    {
      "channel": 3,
      "note": 64,
      "start": 84.4343,
      "duration": 0.0161,
      "velocity": 120,
      "chip": "ym2612"
    },
    {
      "channel": 2,
      "note": 52,
      "start": 84.4354,
      "duration": 0.0161,
      "velocity": 100,
      "chip": "ym2612"
    },
    {
      "channel": 0,
      "note": 40,
      "start": 84.4481,
      "duration": 0.0158,
      "velocity": 115,
      "chip": "ym2612"
    },
    {
      "channel": 4,
      "note": 57,
      "start": 84.4492,
      "duration": 0.0158,
      "velocity": 120,
      "chip": "ym2612"
    },
    {
      "channel": 3,
      "note": 64,
      "start": 84.4504,
      "duration": 0.0158,
      "velocity": 120,
      "chip": "ym2612"
    },
    {
      "channel": 2,
      "note": 52,
      "start": 84.4515,
      "duration": 0.0157,
      "velocity": 100,
      "chip": "ym2612"
    },
    {
      "channel": 0,
      "note": 41,
      "start": 84.4639,
      "duration": 0.014,
      "velocity": 115,
      "chip": "ym2612"
    },
    {
      "channel": 4,
      "note": 57,
      "start": 84.465,
      "duration": 0.014,
      "velocity": 120,
      "chip": "ym2612"
    },
    {
      "channel": 3,
      "note": 64,
      "start": 84.4661,
      "duration": 0.014,
      "velocity": 120,
      "chip": "ym2612"
    },
    {
      "channel": 2,
      "note": 52,
      "start": 84.4672,
      "duration": 0.0143,
      "velocity": 100,
      "chip": "ym2612"
    },
    {
      "channel": 0,
      "note": 41,
      "start": 84.4779,
      "duration": 0.0158,
      "velocity": 115,
      "chip": "ym2612"
    },
    {
      "channel": 4,
      "note": 57,
      "start": 84.479,
      "duration": 0.0186,
      "velocity": 120,
      "chip": "ym2612"
    },
    {
      "channel": 3,
      "note": 64,
      "start": 84.4802,
      "duration": 0.0186,
      "velocity": 120,
      "chip": "ym2612"
    },
    {
      "channel": 2,
      "note": 52,
      "start": 84.4816,
      "duration": 0.0183,
      "velocity": 100,
      "chip": "ym2612"
    },
    {
      "channel": 0,
      "note": 42,
      "start": 84.4937,
      "duration": 0.0161,
      "velocity": 115,
      "chip": "ym2612"
    },
    {
      "channel": 4,
      "note": 57,
      "start": 84.4976,
      "duration": 0.0161,
      "velocity": 120,
      "chip": "ym2612"
    },
    {
      "channel": 3,
      "note": 64,
      "start": 84.4987,
      "duration": 0.0161,
      "velocity": 120,
      "chip": "ym2612"
    },
    {
      "channel": 2,
      "note": 52,
      "start": 84.4999,
      "duration": 0.016,
      "velocity": 100,
      "chip": "ym2612"
    },
    {
      "channel": 0,
      "note": 42,
      "start": 84.5098,
      "duration": 0.0161,
      "velocity": 115,
      "chip": "ym2612"
    },
    {
      "channel": 4,
      "note": 57,
      "start": 84.5137,
      "duration": 0.0134,
      "velocity": 120,
      "chip": "ym2612"
    },
    {
      "channel": 3,
      "note": 64,
      "start": 84.5148,
      "duration": 0.0157,
      "velocity": 120,
      "chip": "ym2612"
    },
    {
      "channel": 2,
      "note": 52,
      "start": 84.516,
      "duration": 0.0157,
      "velocity": 100,
      "chip": "ym2612"
    },
    {
      "channel": 0,
      "note": 43,
      "start": 84.5259,
      "duration": 0.0161,
      "velocity": 115,
      "chip": "ym2612"
    },
    {
      "channel": 4,
      "note": 57,
      "start": 84.527,
      "duration": 0.0161,
      "velocity": 120,
      "chip": "ym2612"
    },
    {
      "channel": 3,
      "note": 64,
      "start": 84.5305,
      "duration": 0.0141,
      "velocity": 120,
      "chip": "ym2612"
    },
    {
      "channel": 2,
      "note": 52,
      "start": 84.5317,
      "duration": 0.0141,
      "velocity": 100,
      "chip": "ym2612"
    },
    {
      "channel": 0,
      "note": 43,
      "start": 84.542,
      "duration": 0.0161,
      "velocity": 115,
      "chip": "ym2612"
    },
    {
      "channel": 4,
      "note": 57,
      "start": 84.5431,
      "duration": 0.0161,
      "velocity": 120,
      "chip": "ym2612"
    },
    {
      "channel": 3,
      "note": 64,
      "start": 84.5446,
      "duration": 0.0158,
      "velocity": 120,
      "chip": "ym2612"
    },
    {
      "channel": 2,
      "note": 52,
      "start": 84.5457,
      "duration": 0.0185,
      "velocity": 100,
      "chip": "ym2612"
    },
    {
      "channel": 0,
      "note": 44,
      "start": 84.5581,
      "duration": 0.0161,
      "velocity": 115,
      "chip": "ym2612"
    },
    {
      "channel": 4,
      "note": 57,
      "start": 84.5592,
      "duration": 0.0161,
      "velocity": 120,
      "chip": "ym2612"
    },
    {
      "channel": 3,
      "note": 64,
      "start": 84.5604,
      "duration": 0.0161,
      "velocity": 120,
      "chip": "ym2612"
    },
    {
      "channel": 2,
      "note": 52,
      "start": 84.5642,
      "duration": 0.0161,
      "velocity": 100,
      "chip": "ym2612"
    },
    {
      "channel": 0,
      "note": 44,
      "start": 84.5742,
      "duration": 0.0161,
      "velocity": 115,
      "chip": "ym2612"
    },
    {
      "channel": 4,
      "note": 57,
      "start": 84.5753,
      "duration": 0.0161,
      "velocity": 120,
      "chip": "ym2612"
    },
    {
      "channel": 3,
      "note": 64,
      "start": 84.5765,
      "duration": 0.0161,
      "velocity": 120,
      "chip": "ym2612"
    },
    {
      "channel": 2,
      "note": 52,
      "start": 84.5803,
      "duration": 0.0134,
      "velocity": 100,
      "chip": "ym2612"
    },
    {
      "channel": 0,
      "note": 44,
      "start": 84.5903,
      "duration": 0.0161,
      "velocity": 115,
      "chip": "ym2612"
    },
    {
      "channel": 4,
      "note": 57,
      "start": 84.5914,
      "duration": 0.0161,
      "velocity": 120,
      "chip": "ym2612"
    },
    {
      "channel": 3,
      "note": 64,
      "start": 84.5926,
      "duration": 0.0161,
      "velocity": 120,
      "chip": "ym2612"
    },
    {
      "channel": 2,
      "note": 52,
      "start": 84.5937,
      "duration": 0.0161,
      "velocity": 100,
      "chip": "ym2612"
    },
    {
      "channel": 0,
      "note": 45,
      "start": 84.6063,
      "duration": 0.0161,
      "velocity": 115,
      "chip": "ym2612"
    },
    {
      "channel": 4,
      "note": 57,
      "start": 84.6075,
      "duration": 0.0161,
      "velocity": 120,
      "chip": "ym2612"
    },
    {
      "channel": 3,
      "note": 64,
      "start": 84.6086,
      "duration": 0.0161,
      "velocity": 120,
      "chip": "ym2612"
    },
    {
      "channel": 2,
      "note": 52,
      "start": 84.6098,
      "duration": 0.0161,
      "velocity": 100,
      "chip": "ym2612"
    },
    {
      "channel": 0,
      "note": 45,
      "start": 84.6224,
      "duration": 0.0162,
      "velocity": 115,
      "chip": "ym2612"
    },
    {
      "channel": 4,
      "note": 57,
      "start": 84.6236,
      "duration": 0.0161,
      "velocity": 120,
      "chip": "ym2612"
    },
    {
      "channel": 3,
      "note": 64,
      "start": 84.6247,
      "duration": 0.0162,
      "velocity": 120,
      "chip": "ym2612"
    },
    {
      "channel": 2,
      "note": 52,
      "start": 84.6259,
      "duration": 0.0161,
      "velocity": 100,
      "chip": "ym2612"
    },
    {
      "channel": 0,
      "note": 46,
      "start": 84.6386,
      "duration": 0.0161,
      "velocity": 115,
      "chip": "ym2612"
    },
    {
      "channel": 4,
      "note": 57,
      "start": 84.6398,
      "duration": 0.0161,
      "velocity": 120,
      "chip": "ym2612"
    },
    {
      "channel": 3,
      "note": 64,
      "start": 84.6409,
      "duration": 0.0161,
      "velocity": 120,
      "chip": "ym2612"
    },
    {
      "channel": 2,
      "note": 52,
      "start": 84.642,
      "duration": 0.0161,
      "velocity": 100,
      "chip": "ym2612"
    },
    {
      "channel": 0,
      "note": 46,
      "start": 84.6547,
      "duration": 0.0178,
      "velocity": 124,
      "chip": "ym2612"
    },
    {
      "channel": 4,
      "note": 57,
      "start": 84.6559,
      "duration": 0.0179,
      "velocity": 120,
      "chip": "ym2612"
    },
    {
      "channel": 3,
      "note": 64,
      "start": 84.657,
      "duration": 0.0179,
      "velocity": 120,
      "chip": "ym2612"
    },
    {
      "channel": 2,
      "note": 52,
      "start": 84.6581,
      "duration": 0.0182,
      "velocity": 100,
      "chip": "ym2612"
    },
    {
      "channel": 0,
      "note": 84,
      "start": 84.6726,
      "duration": 0.0144,
      "velocity": 124,
      "chip": "ym2612"
    },
    {
      "channel": 4,
      "note": 57,
      "start": 84.6737,
      "duration": 0.0144,
      "velocity": 120,
      "chip": "ym2612"
    },
    {
      "channel": 3,
      "note": 64,
      "start": 84.6749,
      "duration": 0.0144,
      "velocity": 120,
      "chip": "ym2612"
    },
    {
      "channel": 2,
      "note": 52,
      "start": 84.6763,
      "duration": 0.0141,
      "velocity": 100,
      "chip": "ym2612"
    },
    {
      "channel": 0,
      "note": 82,
      "start": 84.687,
      "duration": 0.016,
      "velocity": 124,
      "chip": "ym2612"
    },
    {
      "channel": 4,
      "note": 57,
      "start": 84.6881,
      "duration": 0.016,
      "velocity": 120,
      "chip": "ym2612"
    },
    {
      "channel": 3,
      "note": 64,
      "start": 84.6893,
      "duration": 0.016,
      "velocity": 120,
      "chip": "ym2612"
    },
    {
      "channel": 2,
      "note": 52,
      "start": 84.6904,
      "duration": 0.016,
      "velocity": 100,
      "chip": "ym2612"
    },
    {
      "channel": 0,
      "note": 80,
      "start": 84.703,
      "duration": 0.0161,
      "velocity": 124,
      "chip": "ym2612"
    },
    {
      "channel": 4,
      "note": 57,
      "start": 84.7041,
      "duration": 0.0161,
      "velocity": 120,
      "chip": "ym2612"
    },
    {
      "channel": 3,
      "note": 64,
      "start": 84.7053,
      "duration": 0.0161,
      "velocity": 120,
      "chip": "ym2612"
    },
    {
      "channel": 2,
      "note": 52,
      "start": 84.7064,
      "duration": 0.0161,
      "velocity": 100,
      "chip": "ym2612"
    },
    {
      "channel": 0,
      "note": 77,
      "start": 84.7191,
      "duration": 0.0161,
      "velocity": 124,
      "chip": "ym2612"
    },
    {
      "channel": 4,
      "note": 57,
      "start": 84.7202,
      "duration": 0.0161,
      "velocity": 120,
      "chip": "ym2612"
    },
    {
      "channel": 3,
      "note": 64,
      "start": 84.7214,
      "duration": 0.0161,
      "velocity": 120,
      "chip": "ym2612"
    },
    {
      "channel": 2,
      "note": 52,
      "start": 84.7225,
      "duration": 0.0161,
      "velocity": 100,
      "chip": "ym2612"
    },
    {
      "channel": 0,
      "note": 75,
      "start": 84.7352,
      "duration": 0.0161,
      "velocity": 124,
      "chip": "ym2612"
    },
    {
      "channel": 4,
      "note": 57,
      "start": 84.7363,
      "duration": 0.0161,
      "velocity": 120,
      "chip": "ym2612"
    },
    {
      "channel": 3,
      "note": 64,
      "start": 84.7375,
      "duration": 0.0161,
      "velocity": 120,
      "chip": "ym2612"
    },
    {
      "channel": 2,
      "note": 52,
      "start": 84.7386,
      "duration": 0.0161,
      "velocity": 100,
      "chip": "ym2612"
    },
    {
      "channel": 0,
      "note": 72,
      "start": 84.7513,
      "duration": 0.0161,
      "velocity": 124,
      "chip": "ym2612"
    },
    {
      "channel": 4,
      "note": 57,
      "start": 84.7524,
      "duration": 0.0161,
      "velocity": 120,
      "chip": "ym2612"
    },
    {
      "channel": 3,
      "note": 64,
      "start": 84.7536,
      "duration": 0.0161,
      "velocity": 120,
      "chip": "ym2612"
    },
    {
      "channel": 2,
      "note": 52,
      "start": 84.7547,
      "duration": 0.0161,
      "velocity": 100,
      "chip": "ym2612"
    },
    {
      "channel": 0,
      "note": 70,
      "start": 84.7674,
      "duration": 0.0161,
      "velocity": 124,
      "chip": "ym2612"
    },
    {
      "channel": 4,
      "note": 57,
      "start": 84.7685,
      "duration": 0.0162,
      "velocity": 120,
      "chip": "ym2612"
    },
    {
      "channel": 3,
      "note": 64,
      "start": 84.7697,
      "duration": 0.0161,
      "velocity": 120,
      "chip": "ym2612"
    },
    {
      "channel": 2,
      "note": 52,
      "start": 84.7708,
      "duration": 0.0161,
      "velocity": 100,
      "chip": "ym2612"
    },
    {
      "channel": 0,
      "note": 68,
      "start": 84.7835,
      "duration": 0.0161,
      "velocity": 124,
      "chip": "ym2612"
    },
    {
      "channel": 4,
      "note": 57,
      "start": 84.7847,
      "duration": 0.0161,
      "velocity": 120,
      "chip": "ym2612"
    },
    {
      "channel": 3,
      "note": 64,
      "start": 84.7858,
      "duration": 0.0161,
      "velocity": 120,
      "chip": "ym2612"
    },
    {
      "channel": 2,
      "note": 52,
      "start": 84.7869,
      "duration": 0.0161,
      "velocity": 100,
      "chip": "ym2612"
    },
    {
      "channel": 0,
      "note": 65,
      "start": 84.7996,
      "duration": 0.0161,
      "velocity": 124,
      "chip": "ym2612"
    },
    {
      "channel": 4,
      "note": 57,
      "start": 84.8008,
      "duration": 0.0161,
      "velocity": 120,
      "chip": "ym2612"
    },
    {
      "channel": 3,
      "note": 64,
      "start": 84.8019,
      "duration": 0.0161,
      "velocity": 120,
      "chip": "ym2612"
    },
    {
      "channel": 2,
      "note": 52,
      "start": 84.803,
      "duration": 0.0161,
      "velocity": 100,
      "chip": "ym2612"
    },
    {
      "channel": 0,
      "note": 63,
      "start": 84.8157,
      "duration": 0.0155,
      "velocity": 1,
      "chip": "ym2612"
    },
    {
      "channel": 4,
      "note": 57,
      "start": 84.8168,
      "duration": 0.0155,
      "velocity": 120,
      "chip": "ym2612"
    },
    {
      "channel": 3,
      "note": 64,
      "start": 84.818,
      "duration": 0.0155,
      "velocity": 120,
      "chip": "ym2612"
    },
    {
      "channel": 2,
      "note": 52,
      "start": 84.8191,
      "duration": 0.0155,
      "velocity": 100,
      "chip": "ym2612"
    },
    {
      "channel": 4,
      "note": 57,
      "start": 84.8324,
      "duration": 0.0158,
      "velocity": 120,
      "chip": "ym2612"
    },
    {
      "channel": 3,
      "note": 64,
      "start": 84.8335,
      "duration": 0.0159,
      "velocity": 120,
      "chip": "ym2612"
    },
    {
      "channel": 2,
      "note": 52,
      "start": 84.8346,
      "duration": 0.0159,
      "velocity": 100,
      "chip": "ym2612"
    },
    {
      "channel": 4,
      "note": 57,
      "start": 84.8482,
      "duration": 0.0163,
      "velocity": 120,
      "chip": "ym2612"
    },
    {
      "channel": 3,
      "note": 64,
      "start": 84.8494,
      "duration": 0.0163,
      "velocity": 120,
      "chip": "ym2612"
    },
    {
      "channel": 2,
      "note": 52,
      "start": 84.8505,
      "duration": 0.0166,
      "velocity": 100,
      "chip": "ym2612"
    },
    {
      "channel": 4,
      "note": 57,
      "start": 84.8645,
      "duration": 0.0151,
      "velocity": 120,
      "chip": "ym2612"
    },
    {
      "channel": 3,
      "note": 64,
      "start": 84.8656,
      "duration": 0.0151,
      "velocity": 120,
      "chip": "ym2612"
    },
    {
      "channel": 2,
      "note": 52,
      "start": 84.8671,
      "duration": 0.0148,
      "velocity": 100,
      "chip": "ym2612"
    },
    {
      "channel": 4,
      "note": 57,
      "start": 84.8796,
      "duration": 0.0186,
      "velocity": 120,
      "chip": "ym2612"
    },
    {
      "channel": 3,
      "note": 64,
      "start": 84.8807,
      "duration": 0.0186,
      "velocity": 120,
      "chip": "ym2612"
    },
    {
      "channel": 2,
      "note": 52,
      "start": 84.8819,
      "duration": 0.0185,
      "velocity": 100,
      "chip": "ym2612"
    },
    {
      "channel": 4,
      "note": 57,
      "start": 84.8982,
      "duration": 0.0163,
      "velocity": 120,
      "chip": "ym2612"
    },
    {
      "channel": 3,
      "note": 64,
      "start": 84.8994,
      "duration": 0.0163,
      "velocity": 120,
      "chip": "ym2612"
    },
    {
      "channel": 2,
      "note": 52,
      "start": 84.9005,
      "duration": 0.0163,
      "velocity": 100,
      "chip": "ym2612"
    },
    {
      "channel": 4,
      "note": 57,
      "start": 84.9146,
      "duration": 0.0157,
      "velocity": 120,
      "chip": "ym2612"
    },
    {
      "channel": 3,
      "note": 64,
      "start": 84.9157,
      "duration": 0.0157,
      "velocity": 120,
      "chip": "ym2612"
    },
    {
      "channel": 2,
      "note": 52,
      "start": 84.9168,
      "duration": 0.0158,
      "velocity": 100,
      "chip": "ym2612"
    },
    {
      "channel": 4,
      "note": 57,
      "start": 84.9303,
      "duration": 0.0139,
      "velocity": 120,
      "chip": "ym2612"
    },
    {
      "channel": 3,
      "note": 64,
      "start": 84.9314,
      "duration": 0.0141,
      "velocity": 120,
      "chip": "ym2612"
    },
    {
      "channel": 2,
      "note": 52,
      "start": 84.9326,
      "duration": 0.0141,
      "velocity": 100,
      "chip": "ym2612"
    },
    {
      "channel": 4,
      "note": 57,
      "start": 84.9441,
      "duration": 0.016,
      "velocity": 120,
      "chip": "ym2612"
    },
    {
      "channel": 3,
      "note": 64,
      "start": 84.9455,
      "duration": 0.0185,
      "velocity": 120,
      "chip": "ym2612"
    },
    {
      "channel": 2,
      "note": 52,
      "start": 84.9466,
      "duration": 0.0185,
      "velocity": 100,
      "chip": "ym2612"
    },
    {
      "channel": 4,
      "note": 57,
      "start": 84.9601,
      "duration": 0.0161,
      "velocity": 120,
      "chip": "ym2612"
    },
    {
      "channel": 3,
      "note": 64,
      "start": 84.964,
      "duration": 0.0161,
      "velocity": 120,
      "chip": "ym2612"
    },
    {
      "channel": 2,
      "note": 52,
      "start": 84.9651,
      "duration": 0.0161,
      "velocity": 100,
      "chip": "ym2612"
    },
    {
      "channel": 4,
      "note": 57,
      "start": 84.9762,
      "duration": 0.0161,
      "velocity": 120,
      "chip": "ym2612"
    },
    {
      "channel": 3,
      "note": 64,
      "start": 84.9801,
      "duration": 0.0134,
      "velocity": 120,
      "chip": "ym2612"
    },
    {
      "channel": 2,
      "note": 52,
      "start": 84.9812,
      "duration": 0.0157,
      "velocity": 100,
      "chip": "ym2612"
    },
    {
      "channel": 4,
      "note": 57,
      "start": 84.9923,
      "duration": 0.0161,
      "velocity": 120,
      "chip": "ym2612"
    },
    {
      "channel": 3,
      "note": 64,
      "start": 84.9934,
      "duration": 0.0161,
      "velocity": 120,
      "chip": "ym2612"
    },
    {
      "channel": 2,
      "note": 52,
      "start": 84.9969,
      "duration": 0.0139,
      "velocity": 100,
      "chip": "ym2612"
    },
    {
      "channel": 4,
      "note": 57,
      "start": 85.0084,
      "duration": 0.0161,
      "velocity": 120,
      "chip": "ym2612"
    },
    {
      "channel": 3,
      "note": 64,
      "start": 85.0095,
      "duration": 0.0161,
      "velocity": 120,
      "chip": "ym2612"
    },
    {
      "channel": 2,
      "note": 52,
      "start": 85.0108,
      "duration": 0.016,
      "velocity": 100,
      "chip": "ym2612"
    },
    {
      "channel": 4,
      "note": 57,
      "start": 85.0245,
      "duration": 0.0162,
      "velocity": 120,
      "chip": "ym2612"
    },
    {
      "channel": 3,
      "note": 64,
      "start": 85.0256,
      "duration": 0.0161,
      "velocity": 120,
      "chip": "ym2612"
    },
    {
      "channel": 2,
      "note": 52,
      "start": 85.0268,
      "duration": 0.0161,
      "velocity": 100,
      "chip": "ym2612"
    },
    {
      "channel": 4,
      "note": 57,
      "start": 85.0407,
      "duration": 0.0198,
      "velocity": 120,
      "chip": "ym2612"
    },
    {
      "channel": 3,
      "note": 64,
      "start": 85.0417,
      "duration": 0.0225,
      "velocity": 120,
      "chip": "ym2612"
    },
    {
      "channel": 2,
      "note": 52,
      "start": 85.0429,
      "duration": 0.0228,
      "velocity": 100,
      "chip": "ym2612"
    },
    {
      "channel": 0,
      "note": 36,
      "start": 85.059,
      "duration": 0.0144,
      "velocity": 115,
      "chip": "ym2612"
    },
    {
      "channel": 4,
      "note": 57,
      "start": 85.0604,
      "duration": 0.0141,
      "velocity": 120,
      "chip": "ym2612"
    },
    {
      "channel": 3,
      "note": 64,
      "start": 85.0642,
      "duration": 0.0115,
      "velocity": 120,
      "chip": "ym2612"
    },
    {
      "channel": 2,
      "note": 52,
      "start": 85.0657,
      "duration": 0.0112,
      "velocity": 100,
      "chip": "ym2612"
    },
    {
      "channel": 0,
      "note": 36,
      "start": 85.0733,
      "duration": 0.0161,
      "velocity": 115,
      "chip": "ym2612"
    },
    {
      "channel": 4,
      "note": 57,
      "start": 85.0746,
      "duration": 0.016,
      "velocity": 120,
      "chip": "ym2612"
    },
    {
      "channel": 3,
      "note": 64,
      "start": 85.0758,
      "duration": 0.016,
      "velocity": 120,
      "chip": "ym2612"
    },
    {
      "channel": 2,
      "note": 52,
      "start": 85.077,
      "duration": 0.0159,
      "velocity": 100,
      "chip": "ym2612"
    },
    {
      "channel": 0,
      "note": 37,
      "start": 85.0894,
      "duration": 0.0161,
      "velocity": 115,
      "chip": "ym2612"
    },
    {
      "channel": 4,
      "note": 57,
      "start": 85.0906,
      "duration": 0.0161,
      "velocity": 120,
      "chip": "ym2612"
    },
    {
      "channel": 3,
      "note": 64,
      "start": 85.0917,
      "duration": 0.0161,
      "velocity": 120,
      "chip": "ym2612"
    },
    {
      "channel": 2,
      "note": 52,
      "start": 85.0928,
      "duration": 0.0161,
      "velocity": 100,
      "chip": "ym2612"
    },
    {
      "channel": 0,
      "note": 37,
      "start": 85.1055,
      "duration": 0.0161,
      "velocity": 115,
      "chip": "ym2612"
    },
    {
      "channel": 4,
      "note": 57,
      "start": 85.1067,
      "duration": 0.0161,
      "velocity": 120,
      "chip": "ym2612"
    },
    {
      "channel": 3,
      "note": 64,
      "start": 85.1078,
      "duration": 0.0161,
      "velocity": 120,
      "chip": "ym2612"
    },
    {
      "channel": 2,
      "note": 52,
      "start": 85.1089,
      "duration": 0.0161,
      "velocity": 100,
      "chip": "ym2612"
    },
    {
      "channel": 0,
      "note": 38,
      "start": 85.1216,
      "duration": 0.0161,
      "velocity": 115,
      "chip": "ym2612"
    },
    {
      "channel": 4,
      "note": 57,
      "start": 85.1228,
      "duration": 0.0161,
      "velocity": 120,
      "chip": "ym2612"
    },
    {
      "channel": 3,
      "note": 64,
      "start": 85.1239,
      "duration": 0.0161,
      "velocity": 120,
      "chip": "ym2612"
    },
    {
      "channel": 2,
      "note": 52,
      "start": 85.125,
      "duration": 0.0162,
      "velocity": 100,
      "chip": "ym2612"
    },
    {
      "channel": 0,
      "note": 38,
      "start": 85.1377,
      "duration": 0.0161,
      "velocity": 115,
      "chip": "ym2612"
    },
    {
      "channel": 4,
      "note": 57,
      "start": 85.1389,
      "duration": 0.0163,
      "velocity": 120,
      "chip": "ym2612"
    },
    {
      "channel": 3,
      "note": 64,
      "start": 85.14,
      "duration": 0.0166,
      "velocity": 120,
      "chip": "ym2612"
    },
    {
      "channel": 2,
      "note": 52,
      "start": 85.1412,
      "duration": 0.0166,
      "velocity": 100,
      "chip": "ym2612"
    },
    {
      "channel": 0,
      "note": 39,
      "start": 85.1538,
      "duration": 0.0161,
      "velocity": 115,
      "chip": "ym2612"
    },
    {
      "channel": 4,
      "note": 56,
      "start": 85.1552,
      "duration": 0.0159,
      "velocity": 120,
      "chip": "ym2612"
    },
    {
      "channel": 3,
      "note": 63,
      "start": 85.1566,
      "duration": 0.0157,
      "velocity": 120,
      "chip": "ym2612"
    },
    {
      "channel": 2,
      "note": 52,
      "start": 85.1578,
      "duration": 0.0157,
      "velocity": 100,
      "chip": "ym2612"
    },
    {
      "channel": 0,
      "note": 39,
      "start": 85.1699,
      "duration": 0.0161,
      "velocity": 115,
      "chip": "ym2612"
    },
    {
      "channel": 4,
      "note": 56,
      "start": 85.1711,
      "duration": 0.016,
      "velocity": 120,
      "chip": "ym2612"
    },
    {
      "channel": 3,
      "note": 63,
      "start": 85.1723,
      "duration": 0.016,
      "velocity": 120,
      "chip": "ym2612"
    },
    {
      "channel": 2,
      "note": 52,
      "start": 85.1735,
      "duration": 0.016,
      "velocity": 100,
      "chip": "ym2612"
    },
    {
      "channel": 0,
      "note": 40,
      "start": 85.186,
      "duration": 0.0161,
      "velocity": 115,
      "chip": "ym2612"
    },
    {
      "channel": 4,
      "note": 56,
      "start": 85.1871,
      "duration": 0.0162,
      "velocity": 120,
      "chip": "ym2612"
    },
    {
      "channel": 3,
      "note": 63,
      "start": 85.1883,
      "duration": 0.0161,
      "velocity": 120,
      "chip": "ym2612"
    },
    {
      "channel": 2,
      "note": 52,
      "start": 85.1894,
      "duration": 0.0161,
      "velocity": 100,
      "chip": "ym2612"
    },
    {
      "channel": 0,
      "note": 40,
      "start": 85.2021,
      "duration": 0.0161,
      "velocity": 115,
      "chip": "ym2612"
    },
    {
      "channel": 4,
      "note": 56,
      "start": 85.2033,
      "duration": 0.0161,
      "velocity": 120,
      "chip": "ym2612"
    },
    {
      "channel": 3,
      "note": 63,
      "start": 85.2044,
      "duration": 0.0161,
      "velocity": 120,
      "chip": "ym2612"
    },
    {
      "channel": 2,
      "note": 52,
      "start": 85.2055,
      "duration": 0.0161,
      "velocity": 100,
      "chip": "ym2612"
    },
    {
      "channel": 0,
      "note": 40,
      "start": 85.2182,
      "duration": 0.0161,
      "velocity": 115,
      "chip": "ym2612"
    },
    {
      "channel": 4,
      "note": 56,
      "start": 85.2194,
      "duration": 0.0161,
      "velocity": 120,
      "chip": "ym2612"
    },
    {
      "channel": 3,
      "note": 63,
      "start": 85.2205,
      "duration": 0.0161,
      "velocity": 120,
      "chip": "ym2612"
    },
    {
      "channel": 2,
      "note": 52,
      "start": 85.2216,
      "duration": 0.0161,
      "velocity": 100,
      "chip": "ym2612"
    },
    {
      "channel": 0,
      "note": 41,
      "start": 85.2343,
      "duration": 0.0162,
      "velocity": 115,
      "chip": "ym2612"
    },
    {
      "channel": 4,
      "note": 56,
      "start": 85.2355,
      "duration": 0.0163,
      "velocity": 120,
      "chip": "ym2612"
    },
    {
      "channel": 3,
      "note": 63,
      "start": 85.2366,
      "duration": 0.0166,
      "velocity": 120,
      "chip": "ym2612"
    },
    {
      "channel": 2,
      "note": 52,
      "start": 85.2377,
      "duration": 0.0169,
      "velocity": 100,
      "chip": "ym2612"
    },
    {
      "channel": 0,
      "note": 41,
      "start": 85.2505,
      "duration": 0.0161,
      "velocity": 115,
      "chip": "ym2612"
    },
    {
      "channel": 4,
      "note": 55,
      "start": 85.2518,
      "duration": 0.0159,
      "velocity": 120,
      "chip": "ym2612"
    },
    {
      "channel": 3,
      "note": 62,
      "start": 85.2532,
      "duration": 0.0157,
      "velocity": 120,
      "chip": "ym2612"
    },
    {
      "channel": 2,
      "note": 52,
      "start": 85.2547,
      "duration": 0.0154,
      "velocity": 100,
      "chip": "ym2612"
    },
    {
      "channel": 0,
      "note": 42,
      "start": 85.2665,
      "duration": 0.0161,
      "velocity": 115,
      "chip": "ym2612"
    },
    {
      "channel": 4,
      "note": 55,
      "start": 85.2678,
      "duration": 0.016,
      "velocity": 120,
      "chip": "ym2612"
    },
    {
      "channel": 3,
      "note": 62,
      "start": 85.269,
      "duration": 0.016,
      "velocity": 120,
      "chip": "ym2612"
    },
    {
      "channel": 2,
      "note": 52,
      "start": 85.2701,
      "duration": 0.016,
      "velocity": 100,
      "chip": "ym2612"
    },
    {
      "channel": 0,
      "note": 42,
      "start": 85.2826,
      "duration": 0.0161,
      "velocity": 115,
      "chip": "ym2612"
    },
    {
      "channel": 4,
      "note": 55,
      "start": 85.2838,
      "duration": 0.0161,
      "velocity": 120,
      "chip": "ym2612"
    },
    {
      "channel": 3,
      "note": 62,
      "start": 85.2849,
      "duration": 0.0161,
      "velocity": 120,
      "chip": "ym2612"
    },
    {
      "channel": 2,
      "note": 52,
      "start": 85.2861,
      "duration": 0.0161,
      "velocity": 100,
      "chip": "ym2612"
    },
    {
      "channel": 0,
      "note": 43,
      "start": 85.2987,
      "duration": 0.0167,
      "velocity": 115,
      "chip": "ym2612"
    },
    {
      "channel": 4,
      "note": 55,
      "start": 85.2999,
      "duration": 0.0167,
      "velocity": 120,
      "chip": "ym2612"
    },
    {
      "channel": 3,
      "note": 62,
      "start": 85.301,
      "duration": 0.0167,
      "velocity": 120,
      "chip": "ym2612"
    },
    {
      "channel": 2,
      "note": 52,
      "start": 85.3022,
      "duration": 0.0166,
      "velocity": 100,
      "chip": "ym2612"
    },
    {
      "channel": 0,
      "note": 43,
      "start": 85.3154,
      "duration": 0.0163,
      "velocity": 115,
      "chip": "ym2612"
    },
    {
      "channel": 4,
      "note": 55,
      "start": 85.3165,
      "duration": 0.0163,
      "velocity": 120,
      "chip": "ym2612"
    },
    {
      "channel": 3,
      "note": 62,
      "start": 85.3177,
      "duration": 0.0163,
      "velocity": 120,
      "chip": "ym2612"
    },
    {
      "channel": 2,
      "note": 52,
      "start": 85.3188,
      "duration": 0.0163,
      "velocity": 100,
      "chip": "ym2612"
    },
    {
      "channel": 0,
      "note": 44,
      "start": 85.3317,
      "duration": 0.0153,
      "velocity": 115,
      "chip": "ym2612"
    },
    {
      "channel": 4,
      "note": 55,
      "start": 85.3328,
      "duration": 0.0156,
      "velocity": 120,
      "chip": "ym2612"
    },
    {
      "channel": 3,
      "note": 62,
      "start": 85.334,
      "duration": 0.0159,
      "velocity": 120,
      "chip": "ym2612"
    },
    {
      "channel": 2,
      "note": 52,
      "start": 85.3351,
      "duration": 0.0159,
      "velocity": 100,
      "chip": "ym2612"
    },
    {
      "channel": 0,
      "note": 44,
      "start": 85.347,
      "duration": 0.0183,
      "velocity": 115,
      "chip": "ym2612"
    },
    {
      "channel": 4,
      "note": 54,
      "start": 85.3485,
      "duration": 0.0181,
      "velocity": 120,
      "chip": "ym2612"
    },
    {
      "channel": 3,
      "note": 61,
      "start": 85.3498,
      "duration": 0.0179,
      "velocity": 120,
      "chip": "ym2612"
    },
    {
      "channel": 2,
      "note": 52,
      "start": 85.351,
      "duration": 0.0179,
      "velocity": 100,
      "chip": "ym2612"
    },
    {
      "channel": 0,
      "note": 44,
      "start": 85.3653,
      "duration": 0.0167,
      "velocity": 115,
      "chip": "ym2612"
    },
    {
      "channel": 4,
      "note": 54,
      "start": 85.3666,
      "duration": 0.0166,
      "velocity": 120,
      "chip": "ym2612"
    },
    {
      "channel": 3,
      "note": 61,
      "start": 85.3678,
      "duration": 0.0165,
      "velocity": 120,
      "chip": "ym2612"
    },
    {
      "channel": 2,
      "note": 52,
      "start": 85.3689,
      "duration": 0.0166,
      "velocity": 100,
      "chip": "ym2612"
    },
    {
      "channel": 0,
      "note": 45,
      "start": 85.382,
      "duration": 0.0157,
      "velocity": 115,
      "chip": "ym2612"
    },
    {
      "channel": 4,
      "note": 54,
      "start": 85.3832,
      "duration": 0.0157,
      "velocity": 120,
      "chip": "ym2612"
    },
    {
      "channel": 3,
      "note": 61,
      "start": 85.3843,
      "duration": 0.0157,
      "velocity": 120,
      "chip": "ym2612"
    },
    {
      "channel": 2,
      "note": 52,
      "start": 85.3854,
      "duration": 0.0157,
      "velocity": 100,
      "chip": "ym2612"
    },
    {
      "channel": 0,
      "note": 45,
      "start": 85.3977,
      "duration": 0.0141,
      "velocity": 115,
      "chip": "ym2612"
    },
    {
      "channel": 4,
      "note": 54,
      "start": 85.3988,
      "duration": 0.0141,
      "velocity": 120,
      "chip": "ym2612"
    },
    {
      "channel": 3,
      "note": 61,
      "start": 85.4,
      "duration": 0.0141,
      "velocity": 120,
      "chip": "ym2612"
    },
    {
      "channel": 2,
      "note": 52,
      "start": 85.4011,
      "duration": 0.0141,
      "velocity": 100,
      "chip": "ym2612"
    },
    {
      "channel": 0,
      "note": 46,
      "start": 85.4118,
      "duration": 0.0185,
      "velocity": 115,
      "chip": "ym2612"
    },
    {
      "channel": 4,
      "note": 54,
      "start": 85.4129,
      "duration": 0.0186,
      "velocity": 120,
      "chip": "ym2612"
    },
    {
      "channel": 3,
      "note": 61,
      "start": 85.4141,
      "duration": 0.0185,
      "velocity": 120,
      "chip": "ym2612"
    },
    {
      "channel": 2,
      "note": 52,
      "start": 85.4152,
      "duration": 0.0185,
      "velocity": 100,
      "chip": "ym2612"
    },
    {
      "channel": 0,
      "note": 46,
      "start": 85.4303,
      "duration": 0.0179,
      "velocity": 124,
      "chip": "ym2612"
    },
    {
      "channel": 4,
      "note": 54,
      "start": 85.4315,
      "duration": 0.018,
      "velocity": 120,
      "chip": "ym2612"
    },
    {
      "channel": 3,
      "note": 61,
      "start": 85.4326,
      "duration": 0.0184,
      "velocity": 120,
      "chip": "ym2612"
    },
    {
      "channel": 2,
      "note": 52,
      "start": 85.4337,
      "duration": 0.0187,
      "velocity": 100,
      "chip": "ym2612"
    },
    {
      "channel": 0,
      "note": 84,
      "start": 85.4482,
      "duration": 0.0116,
      "velocity": 124,
      "chip": "ym2612"
    },
    {
      "channel": 4,
      "note": 53,
      "start": 85.4496,
      "duration": 0.0138,
      "velocity": 120,
      "chip": "ym2612"
    },
    {
      "channel": 3,
      "note": 60,
      "start": 85.451,
      "duration": 0.0135,
      "velocity": 120,
      "chip": "ym2612"
    },
    {
      "channel": 2,
      "note": 52,
      "start": 85.4525,
      "duration": 0.0133,
      "velocity": 100,
      "chip": "ym2612"
    },
    {
      "channel": 0,
      "note": 82,
      "start": 85.4598,
      "duration": 0.016,
      "velocity": 124,
      "chip": "ym2612"
    },
    {
      "channel": 4,
      "note": 53,
      "start": 85.4634,
      "duration": 0.0136,
      "velocity": 120,
      "chip": "ym2612"
    },
    {
      "channel": 3,
      "note": 60,
      "start": 85.4646,
      "duration": 0.0139,
      "velocity": 120,
      "chip": "ym2612"
    },
    {
      "channel": 2,
      "note": 52,
      "start": 85.4658,
      "duration": 0.0138,
      "velocity": 100,
      "chip": "ym2612"
    },
    {
      "channel": 0,
      "note": 80,
      "start": 85.4758,
      "duration": 0.0161,
      "velocity": 124,
      "chip": "ym2612"
    },
    {
      "channel": 4,
      "note": 53,
      "start": 85.477,
      "duration": 0.0161,
      "velocity": 120,
      "chip": "ym2612"
    },
    {
      "channel": 3,
      "note": 60,
      "start": 85.4784,
      "duration": 0.0186,
      "velocity": 120,
      "chip": "ym2612"
    },
    {
      "channel": 2,
      "note": 52,
      "start": 85.4796,
      "duration": 0.0185,
      "velocity": 100,
      "chip": "ym2612"
    },
    {
      "channel": 0,
      "note": 77,
      "start": 85.4919,
      "duration": 0.0161,
      "velocity": 124,
      "chip": "ym2612"
    },
    {
      "channel": 4,
      "note": 53,
      "start": 85.4931,
      "duration": 0.0161,
      "velocity": 120,
      "chip": "ym2612"
    },
    {
      "channel": 3,
      "note": 60,
      "start": 85.497,
      "duration": 0.0133,
      "velocity": 120,
      "chip": "ym2612"
    },
    {
      "channel": 2,
      "note": 52,
      "start": 85.4981,
      "duration": 0.0161,
      "velocity": 100,
      "chip": "ym2612"
    },
    {
      "channel": 0,
      "note": 75,
      "start": 85.508,
      "duration": 0.0162,
      "velocity": 124,
      "chip": "ym2612"
    },
    {
      "channel": 4,
      "note": 53,
      "start": 85.5092,
      "duration": 0.0161,
      "velocity": 120,
      "chip": "ym2612"
    },
    {
      "channel": 3,
      "note": 60,
      "start": 85.5103,
      "duration": 0.0162,
      "velocity": 120,
      "chip": "ym2612"
    },
    {
      "channel": 2,
      "note": 52,
      "start": 85.5142,
      "duration": 0.0158,
      "velocity": 100,
      "chip": "ym2612"
    },
    {
      "channel": 0,
      "note": 72,
      "start": 85.5242,
      "duration": 0.0161,
      "velocity": 124,
      "chip": "ym2612"
    },
    {
      "channel": 4,
      "note": 53,
      "start": 85.5253,
      "duration": 0.0163,
      "velocity": 120,
      "chip": "ym2612"
    },
    {
      "channel": 3,
      "note": 60,
      "start": 85.5265,
      "duration": 0.0165,
      "velocity": 120,
      "chip": "ym2612"
    },
    {
      "channel": 2,
      "note": 52,
      "start": 85.53,
      "duration": 0.0146,
      "velocity": 100,
      "chip": "ym2612"
    },
    {
      "channel": 0,
      "note": 70,
      "start": 85.5403,
      "duration": 0.0161,
      "velocity": 124,
      "chip": "ym2612"
    },
    {
      "channel": 4,
      "note": 52,
      "start": 85.5417,
      "duration": 0.0159,
      "velocity": 120,
      "chip": "ym2612"
    },
    {
      "channel": 3,
      "note": 59,
      "start": 85.5431,
      "duration": 0.0156,
      "velocity": 120,
      "chip": "ym2612"
    },
    {
      "channel": 2,
      "note": 52,
      "start": 85.5445,
      "duration": 0.0153,
      "velocity": 100,
      "chip": "ym2612"
    },
    {
      "channel": 0,
      "note": 68,
      "start": 85.5563,
      "duration": 0.0161,
      "velocity": 124,
      "chip": "ym2612"
    },
    {
      "channel": 4,
      "note": 52,
      "start": 85.5576,
      "duration": 0.016,
      "velocity": 120,
      "chip": "ym2612"
    },
    {
      "channel": 3,
      "note": 59,
      "start": 85.5587,
      "duration": 0.016,
      "velocity": 120,
      "chip": "ym2612"
    },
    {
      "channel": 2,
      "note": 52,
      "start": 85.5599,
      "duration": 0.016,
      "velocity": 100,
      "chip": "ym2612"
    },
    {
      "channel": 0,
      "note": 65,
      "start": 85.5724,
      "duration": 0.0161,
      "velocity": 124,
      "chip": "ym2612"
    },
    {
      "channel": 4,
      "note": 52,
      "start": 85.5736,
      "duration": 0.0161,
      "velocity": 120,
      "chip": "ym2612"
    },
    {
      "channel": 3,
      "note": 59,
      "start": 85.5747,
      "duration": 0.0161,
      "velocity": 120,
      "chip": "ym2612"
    },
    {
      "channel": 2,
      "note": 52,
      "start": 85.5758,
      "duration": 0.0161,
      "velocity": 100,
      "chip": "ym2612"
    },
    {
      "channel": 0,
      "note": 63,
      "start": 85.5885,
      "duration": 0.0153,
      "velocity": 1,
      "chip": "ym2612"
    },
    {
      "channel": 4,
      "note": 52,
      "start": 85.5897,
      "duration": 0.0154,
      "velocity": 120,
      "chip": "ym2612"
    },
    {
      "channel": 3,
      "note": 59,
      "start": 85.5908,
      "duration": 0.0153,
      "velocity": 120,
      "chip": "ym2612"
    },
    {
      "channel": 2,
      "note": 52,
      "start": 85.592,
      "duration": 0.0153,
      "velocity": 100,
      "chip": "ym2612"
    },
    {
      "channel": 4,
      "note": 52,
      "start": 85.605,
      "duration": 0.0152,
      "velocity": 120,
      "chip": "ym2612"
    },
    {
      "channel": 3,
      "note": 59,
      "start": 85.6061,
      "duration": 0.0153,
      "velocity": 120,
      "chip": "ym2612"
    },
    {
      "channel": 2,
      "note": 52,
      "start": 85.6073,
      "duration": 0.0153,
      "velocity": 100,
      "chip": "ym2612"
    },
    {
      "channel": 4,
      "note": 52,
      "start": 85.6202,
      "duration": 0.0198,
      "velocity": 120,
      "chip": "ym2612"
    },
    {
      "channel": 3,
      "note": 59,
      "start": 85.6214,
      "duration": 0.02,
      "velocity": 120,
      "chip": "ym2612"
    },
    {
      "channel": 2,
      "note": 52,
      "start": 85.6225,
      "duration": 0.0204,
      "velocity": 100,
      "chip": "ym2612"
    },
    {
      "channel": 0,
      "note": 36,
      "start": 85.6386,
      "duration": 0.0144,
      "velocity": 115,
      "chip": "ym2612"
    },
    {
      "channel": 4,
      "note": 51,
      "start": 85.6401,
      "duration": 0.0141,
      "velocity": 120,
      "chip": "ym2612"
    },
    {
      "channel": 3,
      "note": 58,
      "start": 85.6415,
      "duration": 0.0139,
      "velocity": 120,
      "chip": "ym2612"
    },
    {
      "channel": 2,
      "note": 52,
      "start": 85.6429,
      "duration": 0.0137,
      "velocity": 100,
      "chip": "ym2612"
    },
    {
      "channel": 0,
      "note": 36,
      "start": 85.653,
      "duration": 0.0161,
      "velocity": 115,
      "chip": "ym2612"
    },
    {
      "channel": 4,
      "note": 51,
      "start": 85.6542,
      "duration": 0.016,
      "velocity": 120,
      "chip": "ym2612"
    },
    {
      "channel": 3,
      "note": 58,
      "start": 85.6554,
      "duration": 0.016,
      "velocity": 120,
      "chip": "ym2612"
    },
    {
      "channel": 2,
      "note": 52,
      "start": 85.6566,
      "duration": 0.0158,
      "velocity": 100,
      "chip": "ym2612"
    },
    {
      "channel": 0,
      "note": 37,
      "start": 85.6691,
      "duration": 0.0161,
      "velocity": 115,
      "chip": "ym2612"
    },
    {
      "channel": 4,
      "note": 51,
      "start": 85.6702,
      "duration": 0.0161,
      "velocity": 120,
      "chip": "ym2612"
    },
    {
      "channel": 3,
      "note": 58,
      "start": 85.6714,
      "duration": 0.0161,
      "velocity": 120,
      "chip": "ym2612"
    },
    {
      "channel": 2,
      "note": 52,
      "start": 85.6724,
      "duration": 0.0161,
      "velocity": 100,
      "chip": "ym2612"
    },
    {
      "channel": 0,
      "note": 37,
      "start": 85.6852,
      "duration": 0.0161,
      "velocity": 115,
      "chip": "ym2612"
    },
    {
      "channel": 4,
      "note": 51,
      "start": 85.6863,
      "duration": 0.0161,
      "velocity": 120,
      "chip": "ym2612"
    },
    {
      "channel": 3,
      "note": 58,
      "start": 85.6875,
      "duration": 0.0161,
      "velocity": 120,
      "chip": "ym2612"
    },
    {
      "channel": 2,
      "note": 52,
      "start": 85.6885,
      "duration": 0.0162,
      "velocity": 100,
      "chip": "ym2612"
    },
    {
      "channel": 0,
      "note": 38,
      "start": 85.7013,
      "duration": 0.0161,
      "velocity": 115,
      "chip": "ym2612"
    },
    {
      "channel": 4,
      "note": 51,
      "start": 85.7024,
      "duration": 0.0161,
      "velocity": 120,
      "chip": "ym2612"
    },
    {
      "channel": 3,
      "note": 58,
      "start": 85.7036,
      "duration": 0.0161,
      "velocity": 120,
      "chip": "ym2612"
    },
    {
      "channel": 2,
      "note": 52,
      "start": 85.7047,
      "duration": 0.0161,
      "velocity": 100,
      "chip": "ym2612"
    },
    {
      "channel": 0,
      "note": 38,
      "start": 85.7174,
      "duration": 0.0161,
      "velocity": 115,
      "chip": "ym2612"
    },
    {
      "channel": 4,
      "note": 51,
      "start": 85.7185,
      "duration": 0.0163,
      "velocity": 120,
      "chip": "ym2612"
    },
    {
      "channel": 3,
      "note": 58,
      "start": 85.7197,
      "duration": 0.0165,
      "velocity": 120,
      "chip": "ym2612"
    },
    {
      "channel": 2,
      "note": 52,
      "start": 85.7208,
      "duration": 0.0166,
      "velocity": 100,
      "chip": "ym2612"
    },
    {
      "channel": 0,
      "note": 39,
      "start": 85.7335,
      "duration": 0.0161,
      "velocity": 115,
      "chip": "ym2612"
    },
    {
      "channel": 4,
      "note": 50,
      "start": 85.7349,
      "duration": 0.0159,
      "velocity": 120,
      "chip": "ym2612"
    },
    {
      "channel": 3,
      "note": 57,
      "start": 85.7363,
      "duration": 0.0157,
      "velocity": 120,
      "chip": "ym2612"
    },
    {
      "channel": 2,
      "note": 52,
      "start": 85.7374,
      "duration": 0.0157,
      "velocity": 100,
      "chip": "ym2612"
    },
    {
      "channel": 0,
      "note": 39,
      "start": 85.7495,
      "duration": 0.0161,
      "velocity": 115,
      "chip": "ym2612"
    },
    {
      "channel": 4,
      "note": 50,
      "start": 85.7508,
      "duration": 0.016,
      "velocity": 120,
      "chip": "ym2612"
    },
    {
      "channel": 3,
      "note": 57,
      "start": 85.752,
      "duration": 0.016,
      "velocity": 120,
      "chip": "ym2612"
    },
    {
      "channel": 2,
      "note": 52,
      "start": 85.7531,
      "duration": 0.016,
      "velocity": 100,
      "chip": "ym2612"
    },
    {
      "channel": 0,
      "note": 40,
      "start": 85.7656,
      "duration": 0.0164,
      "velocity": 115,
      "chip": "ym2612"
    },
    {
      "channel": 4,
      "note": 50,
      "start": 85.7668,
      "duration": 0.0164,
      "velocity": 120,
      "chip": "ym2612"
    },
    {
      "channel": 3,
      "note": 57,
      "start": 85.7679,
      "duration": 0.0164,
      "velocity": 120,
      "chip": "ym2612"
    },
    {
      "channel": 2,
      "note": 52,
      "start": 85.7691,
      "duration": 0.0163,
      "velocity": 100,
      "chip": "ym2612"
    },
    {
      "channel": 0,
      "note": 40,
      "start": 85.7821,
      "duration": 0.0163,
      "velocity": 115,
      "chip": "ym2612"
    },
    {
      "channel": 4,
      "note": 50,
      "start": 85.7832,
      "duration": 0.0163,
      "velocity": 120,
      "chip": "ym2612"
    },
    {
      "channel": 3,
      "note": 57,
      "start": 85.7844,
      "duration": 0.0163,
      "velocity": 120,
      "chip": "ym2612"
    },
    {
      "channel": 2,
      "note": 52,
      "start": 85.7854,
      "duration": 0.0163,
      "velocity": 100,
      "chip": "ym2612"
    },
    {
      "channel": 0,
      "note": 40,
      "start": 85.7983,
      "duration": 0.0156,
      "velocity": 115,
      "chip": "ym2612"
    },
    {
      "channel": 4,
      "note": 50,
      "start": 85.7995,
      "duration": 0.0157,
      "velocity": 120,
      "chip": "ym2612"
    },
    {
      "channel": 3,
      "note": 57,
      "start": 85.8006,
      "duration": 0.0156,
      "velocity": 120,
      "chip": "ym2612"
    },
    {
      "channel": 2,
      "note": 52,
      "start": 85.8018,
      "duration": 0.0156,
      "velocity": 100,
      "chip": "ym2612"
    },
    {
      "channel": 0,
      "note": 41,
      "start": 85.8139,
      "duration": 0.0199,
      "velocity": 115,
      "chip": "ym2612"
    },
    {
      "channel": 4,
      "note": 50,
      "start": 85.8151,
      "duration": 0.02,
      "velocity": 120,
      "chip": "ym2612"
    },
    {
      "channel": 3,
      "note": 57,
      "start": 85.8162,
      "duration": 0.0204,
      "velocity": 120,
      "chip": "ym2612"
    },
    {
      "channel": 2,
      "note": 52,
      "start": 85.8174,
      "duration": 0.0207,
      "velocity": 100,
      "chip": "ym2612"
    },
    {
      "channel": 0,
      "note": 36,
      "start": 85.8338,
      "duration": 0.015,
      "velocity": 115,
      "chip": "ym2612"
    },
    {
      "channel": 4,
      "note": 49,
      "start": 85.8352,
      "duration": 0.0148,
      "velocity": 120,
      "chip": "ym2612"
    },
    {
      "channel": 3,
      "note": 56,
      "start": 85.8366,
      "duration": 0.0146,
      "velocity": 120,
      "chip": "ym2612"
    },
    {
      "channel": 2,
      "note": 52,
      "start": 85.8381,
      "duration": 0.0143,
      "velocity": 100,
      "chip": "ym2612"
    },
    {
      "channel": 0,
      "note": 36,
      "start": 85.8488,
      "duration": 0.0158,
      "velocity": 115,
      "chip": "ym2612"
    },
    {
      "channel": 4,
      "note": 49,
      "start": 85.85,
      "duration": 0.0158,
      "velocity": 120,
      "chip": "ym2612"
    },
    {
      "channel": 3,
      "note": 56,
      "start": 85.8512,
      "duration": 0.0157,
      "velocity": 120,
      "chip": "ym2612"
    },
    {
      "channel": 2,
      "note": 52,
      "start": 85.8524,
      "duration": 0.0157,
      "velocity": 100,
      "chip": "ym2612"
    },
    {
      "channel": 0,
      "note": 37,
      "start": 85.8646,
      "duration": 0.0141,
      "velocity": 115,
      "chip": "ym2612"
    },
    {
      "channel": 4,
      "note": 49,
      "start": 85.8658,
      "duration": 0.014,
      "velocity": 120,
      "chip": "ym2612"
    },
    {
      "channel": 3,
      "note": 56,
      "start": 85.8669,
      "duration": 0.0141,
      "velocity": 120,
      "chip": "ym2612"
    },
    {
      "channel": 2,
      "note": 52,
      "start": 85.8681,
      "duration": 0.0141,
      "velocity": 100,
      "chip": "ym2612"
    },
    {
      "channel": 0,
      "note": 37,
      "start": 85.8787,
      "duration": 0.0185,
      "velocity": 115,
      "chip": "ym2612"
    },
    {
      "channel": 4,
      "note": 49,
      "start": 85.8798,
      "duration": 0.0186,
      "velocity": 120,
      "chip": "ym2612"
    },
    {
      "channel": 3,
      "note": 56,
      "start": 85.881,
      "duration": 0.0185,
      "velocity": 120,
      "chip": "ym2612"
    },
    {
      "channel": 2,
      "note": 52,
      "start": 85.8821,
      "duration": 0.0185,
      "velocity": 100,
      "chip": "ym2612"
    },
    {
      "channel": 0,
      "note": 38,
      "start": 85.8972,
      "duration": 0.0134,
      "velocity": 115,
      "chip": "ym2612"
    },
    {
      "channel": 4,
      "note": 49,
      "start": 85.8984,
      "duration": 0.016,
      "velocity": 120,
      "chip": "ym2612"
    },
    {
      "channel": 3,
      "note": 56,
      "start": 85.8995,
      "duration": 0.0161,
      "velocity": 120,
      "chip": "ym2612"
    },
    {
      "channel": 2,
      "note": 52,
      "start": 85.9006,
      "duration": 0.0161,
      "velocity": 100,
      "chip": "ym2612"
    },
    {
      "channel": 0,
      "note": 38,
      "start": 85.9106,
      "duration": 0.0161,
      "velocity": 115,
      "chip": "ym2612"
    },
    {
      "channel": 4,
      "note": 49,
      "start": 85.9144,
      "duration": 0.016,
      "velocity": 120,
      "chip": "ym2612"
    },
    {
      "channel": 3,
      "note": 56,
      "start": 85.9156,
      "duration": 0.0162,
      "velocity": 120,
      "chip": "ym2612"
    },
    {
      "channel": 2,
      "note": 52,
      "start": 85.9167,
      "duration": 0.0163,
      "velocity": 100,
      "chip": "ym2612"
    },
    {
      "channel": 0,
      "note": 39,
      "start": 85.9266,
      "duration": 0.0161,
      "velocity": 115,
      "chip": "ym2612"
    },
    {
      "channel": 4,
      "note": 48,
      "start": 85.9305,
      "duration": 0.0136,
      "velocity": 120,
      "chip": "ym2612"
    },
    {
      "channel": 3,
      "note": 55,
      "start": 85.9319,
      "duration": 0.0136,
      "velocity": 120,
      "chip": "ym2612"
    },
    {
      "channel": 2,
      "note": 52,
      "start": 85.933,
      "duration": 0.0136,
      "velocity": 100,
      "chip": "ym2612"
    },
    {
      "channel": 0,
      "note": 39,
      "start": 85.9427,
      "duration": 0.0161,
      "velocity": 115,
      "chip": "ym2612"
    },
    {
      "channel": 4,
      "note": 48,
      "start": 85.9441,
      "duration": 0.016,
      "velocity": 120,
      "chip": "ym2612"
    },
    {
      "channel": 3,
      "note": 55,
      "start": 85.9455,
      "duration": 0.0184,
      "velocity": 120,
      "chip": "ym2612"
    },
    {
      "channel": 2,
      "note": 52,
      "start": 85.9466,
      "duration": 0.0184,
      "velocity": 100,
      "chip": "ym2612"
    },
    {
      "channel": 0,
      "note": 40,
      "start": 85.9588,
      "duration": 0.0161,
      "velocity": 115,
      "chip": "ym2612"
    },
    {
      "channel": 4,
      "note": 48,
      "start": 85.96,
      "duration": 0.0161,
      "velocity": 120,
      "chip": "ym2612"
    },
    {
      "channel": 3,
      "note": 55,
      "start": 85.9639,
      "duration": 0.0134,
      "velocity": 120,
      "chip": "ym2612"
    },
    {
      "channel": 2,
      "note": 52,
      "start": 85.965,
      "duration": 0.0162,
      "velocity": 100,
      "chip": "ym2612"
    },
    {
      "channel": 0,
      "note": 40,
      "start": 85.9749,
      "duration": 0.0161,
      "velocity": 115,
      "chip": "ym2612"
    },
    {
      "channel": 4,
      "note": 48,
      "start": 85.9761,
      "duration": 0.0161,
      "velocity": 120,
      "chip": "ym2612"
    },
    {
      "channel": 3,
      "note": 55,
      "start": 85.9773,
      "duration": 0.0161,
      "velocity": 120,
      "chip": "ym2612"
    },
    {
      "channel": 2,
      "note": 52,
      "start": 85.9812,
      "duration": 0.0157,
      "velocity": 100,
      "chip": "ym2612"
    },
    {
      "channel": 0,
      "note": 40,
      "start": 85.9911,
      "duration": 0.0161,
      "velocity": 115,
      "chip": "ym2612"
    },
    {
      "channel": 4,
      "note": 48,
      "start": 85.9922,
      "duration": 0.0161,
      "velocity": 120,
      "chip": "ym2612"
    },
    {
      "channel": 3,
      "note": 55,
      "start": 85.9934,
      "duration": 0.0161,
      "velocity": 120,
      "chip": "ym2612"
    },
    {
      "channel": 2,
      "note": 52,
      "start": 85.9969,
      "duration": 0.0137,
      "velocity": 100,
      "chip": "ym2612"
    },
    {
      "channel": 0,
      "note": 41,
      "start": 86.0072,
      "duration": 0.0179,
      "velocity": 115,
      "chip": "ym2612"
    },
    {
      "channel": 4,
      "note": 48,
      "start": 86.0083,
      "duration": 0.0181,
      "velocity": 120,
      "chip": "ym2612"
    },
    {
      "channel": 3,
      "note": 55,
      "start": 86.0095,
      "duration": 0.0211,
      "velocity": 120,
      "chip": "ym2612"
    },
    {
      "channel": 2,
      "note": 52,
      "start": 86.0106,
      "duration": 0.0215,
      "velocity": 100,
      "chip": "ym2612"
    },
    {
      "channel": 0,
      "note": 36,
      "start": 86.0251,
      "duration": 0.0144,
      "velocity": 115,
      "chip": "ym2612"
    },
    {
      "channel": 4,
      "note": 47,
      "start": 86.0265,
      "duration": 0.0141,
      "velocity": 120,
      "chip": "ym2612"
    },
    {
      "channel": 3,
      "note": 54,
      "start": 86.0307,
      "duration": 0.0112,
      "velocity": 120,
      "chip": "ym2612"
    },
    {
      "channel": 2,
      "note": 52,
      "start": 86.0321,
      "duration": 0.011,
      "velocity": 100,
      "chip": "ym2612"
    },
    {
      "channel": 0,
      "note": 36,
      "start": 86.0394,
      "duration": 0.016,
      "velocity": 115,
      "chip": "ym2612"
    },
    {
      "channel": 4,
      "note": 47,
      "start": 86.0407,
      "duration": 0.016,
      "velocity": 120,
      "chip": "ym2612"
    },
    {
      "channel": 3,
      "note": 54,
      "start": 86.0419,
      "duration": 0.0159,
      "velocity": 120,
      "chip": "ym2612"
    },
    {
      "channel": 2,
      "note": 52,
      "start": 86.0431,
      "duration": 0.0159,
      "velocity": 100,
      "chip": "ym2612"
    },
    {
      "channel": 0,
      "note": 37,
      "start": 86.0555,
      "duration": 0.0161,
      "velocity": 115,
      "chip": "ym2612"
    },
    {
      "channel": 4,
      "note": 47,
      "start": 86.0566,
      "duration": 0.0161,
      "velocity": 120,
      "chip": "ym2612"
    },
    {
      "channel": 3,
      "note": 54,
      "start": 86.0578,
      "duration": 0.0161,
      "velocity": 120,
      "chip": "ym2612"
    },
    {
      "channel": 2,
      "note": 52,
      "start": 86.0589,
      "duration": 0.0161,
      "velocity": 100,
      "chip": "ym2612"
    },
    {
      "channel": 0,
      "note": 37,
      "start": 86.0716,
      "duration": 0.0161,
      "velocity": 115,
      "chip": "ym2612"
    },
    {
      "channel": 4,
      "note": 47,
      "start": 86.0727,
      "duration": 0.0162,
      "velocity": 120,
      "chip": "ym2612"
    },
    {
      "channel": 3,
      "note": 54,
      "start": 86.0739,
      "duration": 0.0161,
      "velocity": 120,
      "chip": "ym2612"
    },
    {
      "channel": 2,
      "note": 52,
      "start": 86.075,
      "duration": 0.0161,
      "velocity": 100,
      "chip": "ym2612"
    },
    {
      "channel": 0,
      "note": 38,
      "start": 86.0877,
      "duration": 0.0161,
      "velocity": 115,
      "chip": "ym2612"
    },
    {
      "channel": 4,
      "note": 47,
      "start": 86.0889,
      "duration": 0.0161,
      "velocity": 120,
      "chip": "ym2612"
    },
    {
      "channel": 3,
      "note": 54,
      "start": 86.09,
      "duration": 0.0161,
      "velocity": 120,
      "chip": "ym2612"
    },
    {
      "channel": 2,
      "note": 52,
      "start": 86.0911,
      "duration": 0.0161,
      "velocity": 100,
      "chip": "ym2612"
    },
    {
      "channel": 0,
      "note": 38,
      "start": 86.1037,
      "duration": 0.0162,
      "velocity": 115,
      "chip": "ym2612"
    },
    {
      "channel": 4,
      "note": 47,
      "start": 86.105,
      "duration": 0.0163,
      "velocity": 120,
      "chip": "ym2612"
    },
    {
      "channel": 3,
      "note": 54,
      "start": 86.106,
      "duration": 0.0166,
      "velocity": 120,
      "chip": "ym2612"
    },
    {
      "channel": 2,
      "note": 52,
      "start": 86.1072,
      "duration": 0.0167,
      "velocity": 100,
      "chip": "ym2612"
    },
    {
      "channel": 0,
      "note": 39,
      "start": 86.1199,
      "duration": 0.0161,
      "velocity": 115,
      "chip": "ym2612"
    },
    {
      "channel": 4,
      "note": 46,
      "start": 86.1213,
      "duration": 0.0159,
      "velocity": 120,
      "chip": "ym2612"
    },
    {
      "channel": 3,
      "note": 53,
      "start": 86.1227,
      "duration": 0.0157,
      "velocity": 120,
      "chip": "ym2612"
    },
    {
      "channel": 2,
      "note": 52,
      "start": 86.1239,
      "duration": 0.0156,
      "velocity": 100,
      "chip": "ym2612"
    },
    {
      "channel": 0,
      "note": 39,
      "start": 86.136,
      "duration": 0.0161,
      "velocity": 115,
      "chip": "ym2612"
    },
    {
      "channel": 4,
      "note": 46,
      "start": 86.1372,
      "duration": 0.016,
      "velocity": 120,
      "chip": "ym2612"
    },
    {
      "channel": 3,
      "note": 53,
      "start": 86.1384,
      "duration": 0.016,
      "velocity": 120,
      "chip": "ym2612"
    },
    {
      "channel": 2,
      "note": 52,
      "start": 86.1395,
      "duration": 0.016,
      "velocity": 100,
      "chip": "ym2612"
    },
    {
      "channel": 0,
      "note": 40,
      "start": 86.1521,
      "duration": 0.0161,
      "velocity": 115,
      "chip": "ym2612"
    },
    {
      "channel": 4,
      "note": 46,
      "start": 86.1532,
      "duration": 0.0161,
      "velocity": 120,
      "chip": "ym2612"
    },
    {
      "channel": 3,
      "note": 53,
      "start": 86.1544,
      "duration": 0.0161,
      "velocity": 120,
      "chip": "ym2612"
    },
    {
      "channel": 2,
      "note": 52,
      "start": 86.1555,
      "duration": 0.0161,
      "velocity": 100,
      "chip": "ym2612"
    },
    {
      "channel": 0,
      "note": 40,
      "start": 86.1682,
      "duration": 0.0161,
      "velocity": 115,
      "chip": "ym2612"
    },
    {
      "channel": 4,
      "note": 46,
      "start": 86.1693,
      "duration": 0.0161,
      "velocity": 120,
      "chip": "ym2612"
    },
    {
      "channel": 3,
      "note": 53,
      "start": 86.1705,
      "duration": 0.0161,
      "velocity": 120,
      "chip": "ym2612"
    },
    {
      "channel": 2,
      "note": 52,
      "start": 86.1716,
      "duration": 0.0161,
      "velocity": 100,
      "chip": "ym2612"
    },
    {
      "channel": 0,
      "note": 40,
      "start": 86.1843,
      "duration": 0.0161,
      "velocity": 115,
      "chip": "ym2612"
    },
    {
      "channel": 4,
      "note": 46,
      "start": 86.1854,
      "duration": 0.0161,
      "velocity": 120,
      "chip": "ym2612"
    },
    {
      "channel": 3,
      "note": 53,
      "start": 86.1866,
      "duration": 0.0161,
      "velocity": 120,
      "chip": "ym2612"
    },
    {
      "channel": 2,
      "note": 52,
      "start": 86.1877,
      "duration": 0.0161,
      "velocity": 100,
      "chip": "ym2612"
    },
    {
      "channel": 0,
      "note": 41,
      "start": 86.2004,
      "duration": 0.0179,
      "velocity": 124,
      "chip": "ym2612"
    },
    {
      "channel": 4,
      "note": 46,
      "start": 86.2015,
      "duration": 0.0181,
      "velocity": 120,
      "chip": "ym2612"
    },
    {
      "channel": 3,
      "note": 53,
      "start": 86.2027,
      "duration": 0.0184,
      "velocity": 120,
      "chip": "ym2612"
    },
    {
      "channel": 2,
      "note": 52,
      "start": 86.2038,
      "duration": 0.0187,
      "velocity": 100,
      "chip": "ym2612"
    },
    {
      "channel": 0,
      "note": 84,
      "start": 86.2183,
      "duration": 0.0144,
      "velocity": 124,
      "chip": "ym2612"
    },
    {
      "channel": 4,
      "note": 45,
      "start": 86.2197,
      "duration": 0.0141,
      "velocity": 120,
      "chip": "ym2612"
    },
    {
      "channel": 3,
      "note": 52,
      "start": 86.2211,
      "duration": 0.0139,
      "velocity": 120,
      "chip": "ym2612"
    },
    {
      "channel": 2,
      "note": 52,
      "start": 86.2225,
      "duration": 0.0137,
      "velocity": 100,
      "chip": "ym2612"
    },
    {
      "channel": 0,
      "note": 82,
      "start": 86.2326,
      "duration": 0.0161,
      "velocity": 124,
      "chip": "ym2612"
    },
    {
      "channel": 4,
      "note": 45,
      "start": 86.2338,
      "duration": 0.016,
      "velocity": 120,
      "chip": "ym2612"
    },
    {
      "channel": 3,
      "note": 52,
      "start": 86.2351,
      "duration": 0.016,
      "velocity": 120,
      "chip": "ym2612"
    },
    {
      "channel": 2,
      "note": 52,
      "start": 86.2363,
      "duration": 0.0159,
      "velocity": 100,
      "chip": "ym2612"
    },
    {
      "channel": 0,
      "note": 80,
      "start": 86.2487,
      "duration": 0.0163,
      "velocity": 124,
      "chip": "ym2612"
    },
    {
      "channel": 4,
      "note": 45,
      "start": 86.2499,
      "duration": 0.0163,
      "velocity": 120,
      "chip": "ym2612"
    },
    {
      "channel": 3,
      "note": 52,
      "start": 86.251,
      "duration": 0.0163,
      "velocity": 120,
      "chip": "ym2612"
    },
    {
      "channel": 2,
      "note": 52,
      "start": 86.2522,
      "duration": 0.0163,
      "velocity": 100,
      "chip": "ym2612"
    },
    {
      "channel": 0,
      "note": 77,
      "start": 86.265,
      "duration": 0.0159,
      "velocity": 124,
      "chip": "ym2612"
    },
    {
      "channel": 4,
      "note": 45,
      "start": 86.2661,
      "duration": 0.0159,
      "velocity": 120,
      "chip": "ym2612"
    },
    {
      "channel": 3,
      "note": 52,
      "start": 86.2673,
      "duration": 0.0159,
      "velocity": 120,
      "chip": "ym2612"
    },
    {
      "channel": 2,
      "note": 52,
      "start": 86.2684,
      "duration": 0.0159,
      "velocity": 100,
      "chip": "ym2612"
    },
    {
      "channel": 0,
      "note": 75,
      "start": 86.2809,
      "duration": 0.0178,
      "velocity": 124,
      "chip": "ym2612"
    },
    {
      "channel": 4,
      "note": 45,
      "start": 86.2821,
      "duration": 0.0178,
      "velocity": 120,
      "chip": "ym2612"
    },
    {
      "channel": 3,
      "note": 52,
      "start": 86.2832,
      "duration": 0.0178,
      "velocity": 120,
      "chip": "ym2612"
    },
    {
      "channel": 2,
      "note": 52,
      "start": 86.2844,
      "duration": 0.0178,
      "velocity": 100,
      "chip": "ym2612"
    },
    {
      "channel": 0,
      "note": 72,
      "start": 86.2987,
      "duration": 0.0167,
      "velocity": 124,
      "chip": "ym2612"
    },
    {
      "channel": 4,
      "note": 45,
      "start": 86.2999,
      "duration": 0.0169,
      "velocity": 120,
      "chip": "ym2612"
    },
    {
      "channel": 3,
      "note": 52,
      "start": 86.301,
      "duration": 0.0171,
      "velocity": 120,
      "chip": "ym2612"
    },
    {
      "channel": 2,
      "note": 52,
      "start": 86.3022,
      "duration": 0.0172,
      "velocity": 100,
      "chip": "ym2612"
    },
    {
      "channel": 0,
      "note": 70,
      "start": 86.3154,
      "duration": 0.0161,
      "velocity": 124,
      "chip": "ym2612"
    },
    {
      "channel": 4,
      "note": 44,
      "start": 86.3168,
      "duration": 0.016,
      "velocity": 120,
      "chip": "ym2612"
    },
    {
      "channel": 3,
      "note": 51,
      "start": 86.3182,
      "duration": 0.0158,
      "velocity": 120,
      "chip": "ym2612"
    },
    {
      "channel": 2,
      "note": 52,
      "start": 86.3193,
      "duration": 0.0158,
      "velocity": 100,
      "chip": "ym2612"
    },
    {
      "channel": 0,
      "note": 68,
      "start": 86.3315,
      "duration": 0.0141,
      "velocity": 124,
      "chip": "ym2612"
    },
    {
      "channel": 4,
      "note": 44,
      "start": 86.3328,
      "duration": 0.014,
      "velocity": 120,
      "chip": "ym2612"
    },
    {
      "channel": 3,
      "note": 51,
      "start": 86.334,
      "duration": 0.0139,
      "velocity": 120,
      "chip": "ym2612"
    },
    {
      "channel": 2,
      "note": 52,
      "start": 86.3351,
      "duration": 0.0139,
      "velocity": 100,
      "chip": "ym2612"
    },
    {
      "channel": 0,
      "note": 65,
      "start": 86.3456,
      "duration": 0.0185,
      "velocity": 124,
      "chip": "ym2612"
    },
    {
      "channel": 4,
      "note": 44,
      "start": 86.3468,
      "duration": 0.0185,
      "velocity": 120,
      "chip": "ym2612"
    },
    {
      "channel": 3,
      "note": 51,
      "start": 86.3479,
      "duration": 0.0185,
      "velocity": 120,
      "chip": "ym2612"
    },
    {
      "channel": 2,
      "note": 52,
      "start": 86.349,
      "duration": 0.0185,
      "velocity": 100,
      "chip": "ym2612"
    },
    {
      "channel": 0,
      "note": 63,
      "start": 86.3641,
      "duration": 0.0126,
      "velocity": 1,
      "chip": "ym2612"
    },
    {
      "channel": 4,
      "note": 44,
      "start": 86.3653,
      "duration": 0.0153,
      "velocity": 120,
      "chip": "ym2612"
    },
    {
      "channel": 3,
      "note": 51,
      "start": 86.3664,
      "duration": 0.0153,
      "velocity": 120,
      "chip": "ym2612"
    },
    {
      "channel": 2,
      "note": 52,
      "start": 86.3676,
      "duration": 0.0153,
      "velocity": 100,
      "chip": "ym2612"
    },
    {
      "channel": 4,
      "note": 44,
      "start": 86.3806,
      "duration": 0.0125,
      "velocity": 120,
      "chip": "ym2612"
    },
    {
      "channel": 3,
      "note": 51,
      "start": 86.3817,
      "duration": 0.0149,
      "velocity": 120,
      "chip": "ym2612"
    },
    {
      "channel": 2,
      "note": 52,
      "start": 86.3829,
      "duration": 0.0149,
      "velocity": 100,
      "chip": "ym2612"
    },
    {
      "channel": 4,
      "note": 44,
      "start": 86.3931,
      "duration": 0.0163,
      "velocity": 120,
      "chip": "ym2612"
    },
    {
      "channel": 3,
      "note": 51,
      "start": 86.3966,
      "duration": 0.0145,
      "velocity": 120,
      "chip": "ym2612"
    },
    {
      "channel": 2,
      "note": 52,
      "start": 86.3978,
      "duration": 0.0148,
      "velocity": 100,
      "chip": "ym2612"
    },
    {
      "channel": 4,
      "note": 43,
      "start": 86.4095,
      "duration": 0.0159,
      "velocity": 120,
      "chip": "ym2612"
    },
    {
      "channel": 3,
      "note": 50,
      "start": 86.4112,
      "duration": 0.0154,
      "velocity": 120,
      "chip": "ym2612"
    },
    {
      "channel": 2,
      "note": 52,
      "start": 86.4127,
      "duration": 0.0178,
      "velocity": 100,
      "chip": "ym2612"
    },
    {
      "channel": 4,
      "note": 43,
      "start": 86.4254,
      "duration": 0.016,
      "velocity": 120,
      "chip": "ym2612"
    },
    {
      "channel": 3,
      "note": 50,
      "start": 86.4266,
      "duration": 0.016,
      "velocity": 120,
      "chip": "ym2612"
    },
    {
      "channel": 2,
      "note": 52,
      "start": 86.4305,
      "duration": 0.0132,
      "velocity": 100,
      "chip": "ym2612"
    },
    {
      "channel": 4,
      "note": 43,
      "start": 86.4414,
      "duration": 0.0161,
      "velocity": 120,
      "chip": "ym2612"
    },
    {
      "channel": 3,
      "note": 50,
      "start": 86.4426,
      "duration": 0.0161,
      "velocity": 120,
      "chip": "ym2612"
    },
    {
      "channel": 2,
      "note": 52,
      "start": 86.4437,
      "duration": 0.0161,
      "velocity": 100,
      "chip": "ym2612"
    },
    {
      "channel": 4,
      "note": 43,
      "start": 86.4575,
      "duration": 0.0161,
      "velocity": 120,
      "chip": "ym2612"
    },
    {
      "channel": 3,
      "note": 50,
      "start": 86.4586,
      "duration": 0.0161,
      "velocity": 120,
      "chip": "ym2612"
    },
    {
      "channel": 2,
      "note": 52,
      "start": 86.4598,
      "duration": 0.0161,
      "velocity": 100,
      "chip": "ym2612"
    },
    {
      "channel": 4,
      "note": 43,
      "start": 86.4736,
      "duration": 0.0161,
      "velocity": 120,
      "chip": "ym2612"
    },
    {
      "channel": 3,
      "note": 50,
      "start": 86.4747,
      "duration": 0.0161,
      "velocity": 120,
      "chip": "ym2612"
    },
    {
      "channel": 2,
      "note": 52,
      "start": 86.4759,
      "duration": 0.0161,
      "velocity": 100,
      "chip": "ym2612"
    },
    {
      "channel": 4,
      "note": 43,
      "start": 86.4897,
      "duration": 0.0163,
      "velocity": 120,
      "chip": "ym2612"
    },
    {
      "channel": 3,
      "note": 50,
      "start": 86.4908,
      "duration": 0.0166,
      "velocity": 120,
      "chip": "ym2612"
    },
    {
      "channel": 2,
      "note": 52,
      "start": 86.492,
      "duration": 0.0166,
      "velocity": 100,
      "chip": "ym2612"
    },
    {
      "channel": 4,
      "note": 42,
      "start": 86.5061,
      "duration": 0.0159,
      "velocity": 120,
      "chip": "ym2612"
    },
    {
      "channel": 3,
      "note": 49,
      "start": 86.5075,
      "duration": 0.0156,
      "velocity": 120,
      "chip": "ym2612"
    },
    {
      "channel": 2,
      "note": 52,
      "start": 86.5086,
      "duration": 0.0157,
      "velocity": 100,
      "chip": "ym2612"
    },
    {
      "channel": 4,
      "note": 42,
      "start": 86.522,
      "duration": 0.0161,
      "velocity": 120,
      "chip": "ym2612"
    },
    {
      "channel": 3,
      "note": 49,
      "start": 86.5232,
      "duration": 0.016,
      "velocity": 120,
      "chip": "ym2612"
    },
    {
      "channel": 2,
      "note": 52,
      "start": 86.5243,
      "duration": 0.016,
      "velocity": 100,
      "chip": "ym2612"
    },
    {
      "channel": 4,
      "note": 42,
      "start": 86.538,
      "duration": 0.0161,
      "velocity": 120,
      "chip": "ym2612"
    },
    {
      "channel": 3,
      "note": 49,
      "start": 86.5392,
      "duration": 0.0161,
      "velocity": 120,
      "chip": "ym2612"
    },
    {
      "channel": 2,
      "note": 52,
      "start": 86.5403,
      "duration": 0.0161,
      "velocity": 100,
      "chip": "ym2612"
    },
    {
      "channel": 4,
      "note": 42,
      "start": 86.5541,
      "duration": 0.0161,
      "velocity": 120,
      "chip": "ym2612"
    },
    {
      "channel": 3,
      "note": 49,
      "start": 86.5553,
      "duration": 0.0161,
      "velocity": 120,
      "chip": "ym2612"
    },
    {
      "channel": 2,
      "note": 52,
      "start": 86.5564,
      "duration": 0.0161,
      "velocity": 100,
      "chip": "ym2612"
    },
    {
      "channel": 4,
      "note": 42,
      "start": 86.5702,
      "duration": 0.0161,
      "velocity": 120,
      "chip": "ym2612"
    },
    {
      "channel": 3,
      "note": 49,
      "start": 86.5714,
      "duration": 0.0161,
      "velocity": 120,
      "chip": "ym2612"
    },
    {
      "channel": 2,
      "note": 52,
      "start": 86.5725,
      "duration": 0.0161,
      "velocity": 100,
      "chip": "ym2612"
    },
    {
      "channel": 4,
      "note": 42,
      "start": 86.5863,
      "duration": 0.0212,
      "velocity": 120,
      "chip": "ym2612"
    },
    {
      "channel": 3,
      "note": 49,
      "start": 86.5875,
      "duration": 0.0228,
      "velocity": 120,
      "chip": "ym2612"
    },
    {
      "channel": 2,
      "note": 52,
      "start": 86.5886,
      "duration": 0.0236,
      "velocity": 100,
      "chip": "ym2612"
    },
    {
      "channel": 0,
      "note": 36,
      "start": 86.6047,
      "duration": 0.0144,
      "velocity": 115,
      "chip": "ym2612"
    },
    {
      "channel": 4,
      "note": 57,
      "start": 86.6076,
      "duration": 0.0127,
      "velocity": 120,
      "chip": "ym2612"
    },
    {
      "channel": 3,
      "note": 64,
      "start": 86.6103,
      "duration": 0.0112,
      "velocity": 120,
      "chip": "ym2612"
    },
    {
      "channel": 2,
      "note": 45,
      "start": 86.6122,
      "duration": 0.0104,
      "velocity": 100,
      "chip": "ym2612"
    },
    {
      "channel": 0,
      "note": 36,
      "start": 86.6191,
      "duration": 0.016,
      "velocity": 115,
      "chip": "ym2612"
    },
    {
      "channel": 4,
      "note": 57,
      "start": 86.6203,
      "duration": 0.016,
      "velocity": 120,
      "chip": "ym2612"
    },
    {
      "channel": 3,
      "note": 64,
      "start": 86.6215,
      "duration": 0.0159,
      "velocity": 120,
      "chip": "ym2612"
    },
    {
      "channel": 2,
      "note": 45,
      "start": 86.6227,
      "duration": 0.0159,
      "velocity": 100,
      "chip": "ym2612"
    },
    {
      "channel": 0,
      "note": 37,
      "start": 86.6351,
      "duration": 0.0161,
      "velocity": 115,
      "chip": "ym2612"
    },
    {
      "channel": 4,
      "note": 57,
      "start": 86.6363,
      "duration": 0.0161,
      "velocity": 120,
      "chip": "ym2612"
    },
    {
      "channel": 3,
      "note": 64,
      "start": 86.6374,
      "duration": 0.0161,
      "velocity": 120,
      "chip": "ym2612"
    },
    {
      "channel": 2,
      "note": 45,
      "start": 86.6385,
      "duration": 0.0161,
      "velocity": 100,
      "chip": "ym2612"
    },
    {
      "channel": 0,
      "note": 37,
      "start": 86.6512,
      "duration": 0.0161,
      "velocity": 115,
      "chip": "ym2612"
    },
    {
      "channel": 4,
      "note": 57,
      "start": 86.6524,
      "duration": 0.0161,
      "velocity": 120,
      "chip": "ym2612"
    },
    {
      "channel": 3,
      "note": 64,
      "start": 86.6535,
      "duration": 0.0161,
      "velocity": 120,
      "chip": "ym2612"
    },
    {
      "channel": 2,
      "note": 45,
      "start": 86.6546,
      "duration": 0.0161,
      "velocity": 100,
      "chip": "ym2612"
    },
    {
      "channel": 0,
      "note": 38,
      "start": 86.6673,
      "duration": 0.0161,
      "velocity": 115,
      "chip": "ym2612"
    },
    {
      "channel": 4,
      "note": 57,
      "start": 86.6684,
      "duration": 0.0161,
      "velocity": 120,
      "chip": "ym2612"
    },
    {
      "channel": 3,
      "note": 64,
      "start": 86.6696,
      "duration": 0.0161,
      "velocity": 120,
      "chip": "ym2612"
    },
    {
      "channel": 2,
      "note": 45,
      "start": 86.6707,
      "duration": 0.0161,
      "velocity": 100,
      "chip": "ym2612"
    },
    {
      "channel": 0,
      "note": 38,
      "start": 86.6834,
      "duration": 0.0161,
      "velocity": 115,
      "chip": "ym2612"
    },
    {
      "channel": 4,
      "note": 57,
      "start": 86.6845,
      "duration": 0.0161,
      "velocity": 120,
      "chip": "ym2612"
    },
    {
      "channel": 3,
      "note": 64,
      "start": 86.6857,
      "duration": 0.0161,
      "velocity": 120,
      "chip": "ym2612"
    },
    {
      "channel": 2,
      "note": 45,
      "start": 86.6868,
      "duration": 0.0161,
      "velocity": 100,
      "chip": "ym2612"
    },
    {
      "channel": 0,
      "note": 39,
      "start": 86.6995,
      "duration": 0.0161,
      "velocity": 115,
      "chip": "ym2612"
    },
    {
      "channel": 4,
      "note": 57,
      "start": 86.7006,
      "duration": 0.0162,
      "velocity": 120,
      "chip": "ym2612"
    },
    {
      "channel": 3,
      "note": 64,
      "start": 86.7018,
      "duration": 0.0161,
      "velocity": 120,
      "chip": "ym2612"
    },
    {
      "channel": 2,
      "note": 45,
      "start": 86.7029,
      "duration": 0.0161,
      "velocity": 100,
      "chip": "ym2612"
    },
    {
      "channel": 0,
      "note": 39,
      "start": 86.7156,
      "duration": 0.0162,
      "velocity": 115,
      "chip": "ym2612"
    },
    {
      "channel": 4,
      "note": 57,
      "start": 86.7168,
      "duration": 0.0161,
      "velocity": 120,
      "chip": "ym2612"
    },
    {
      "channel": 3,
      "note": 64,
      "start": 86.7179,
      "duration": 0.0162,
      "velocity": 120,
      "chip": "ym2612"
    },
    {
      "channel": 2,
      "note": 45,
      "start": 86.719,
      "duration": 0.0161,
      "velocity": 100,
      "chip": "ym2612"
    },
    {
      "channel": 0,
      "note": 40,
      "start": 86.7317,
      "duration": 0.0161,
      "velocity": 115,
      "chip": "ym2612"
    },
    {
      "channel": 4,
      "note": 57,
      "start": 86.7329,
      "duration": 0.0161,
      "velocity": 120,
      "chip": "ym2612"
    },
    {
      "channel": 3,
      "note": 64,
      "start": 86.734,
      "duration": 0.0161,
      "velocity": 120,
      "chip": "ym2612"
    },
    {
      "channel": 2,
      "note": 45,
      "start": 86.7352,
      "duration": 0.016,
      "velocity": 100,
      "chip": "ym2612"
    },
    {
      "channel": 0,
      "note": 40,
      "start": 86.7478,
      "duration": 0.0176,
      "velocity": 115,
      "chip": "ym2612"
    },
    {
      "channel": 4,
      "note": 57,
      "start": 86.749,
      "duration": 0.0176,
      "velocity": 120,
      "chip": "ym2612"
    },
    {
      "channel": 3,
      "note": 64,
      "start": 86.7501,
      "duration": 0.0176,
      "velocity": 120,
      "chip": "ym2612"
    },
    {
      "channel": 2,
      "note": 45,
      "start": 86.7512,
      "duration": 0.0176,
      "velocity": 100,
      "chip": "ym2612"
    },
    {
      "channel": 0,
      "note": 40,
      "start": 86.7654,
      "duration": 0.0167,
      "velocity": 115,
      "chip": "ym2612"
    },
    {
      "channel": 4,
      "note": 57,
      "start": 86.7665,
      "duration": 0.0167,
      "velocity": 120,
      "chip": "ym2612"
    },
    {
      "channel": 3,
      "note": 64,
      "start": 86.7677,
      "duration": 0.0167,
      "velocity": 120,
      "chip": "ym2612"
    },
    {
      "channel": 2,
      "note": 45,
      "start": 86.7688,
      "duration": 0.0167,
      "velocity": 100,
      "chip": "ym2612"
    },
    {
      "channel": 0,
      "note": 41,
      "start": 86.7821,
      "duration": 0.0163,
      "velocity": 115,
      "chip": "ym2612"
    },
    {
      "channel": 4,
      "note": 57,
      "start": 86.7832,
      "duration": 0.0163,
      "velocity": 120,
      "chip": "ym2612"
    },
    {
      "channel": 3,
      "note": 64,
      "start": 86.7844,
      "duration": 0.0163,
      "velocity": 120,
      "chip": "ym2612"
    },
    {
      "channel": 2,
      "note": 45,
      "start": 86.7854,
      "duration": 0.0166,
      "velocity": 100,
      "chip": "ym2612"
    },
    {
      "channel": 0,
      "note": 41,
      "start": 86.7983,
      "duration": 0.0142,
      "velocity": 115,
      "chip": "ym2612"
    },
    {
      "channel": 4,
      "note": 57,
      "start": 86.7995,
      "duration": 0.0142,
      "velocity": 120,
      "chip": "ym2612"
    },
    {
      "channel": 3,
      "note": 64,
      "start": 86.8006,
      "duration": 0.0142,
      "velocity": 120,
      "chip": "ym2612"
    },
    {
      "channel": 2,
      "note": 52,
      "start": 86.8021,
      "duration": 0.0139,
      "velocity": 100,
      "chip": "ym2612"
    },
    {
      "channel": 0,
      "note": 42,
      "start": 86.8125,
      "duration": 0.0185,
      "velocity": 115,
      "chip": "ym2612"
    },
    {
      "channel": 4,
      "note": 57,
      "start": 86.8137,
      "duration": 0.0186,
      "velocity": 120,
      "chip": "ym2612"
    },
    {
      "channel": 3,
      "note": 64,
      "start": 86.8148,
      "duration": 0.0185,
      "velocity": 120,
      "chip": "ym2612"
    },
    {
      "channel": 2,
      "note": 52,
      "start": 86.816,
      "duration": 0.0184,
      "velocity": 100,
      "chip": "ym2612"
    },
    {
      "channel": 0,
      "note": 42,
      "start": 86.831,
      "duration": 0.0161,
      "velocity": 115,
      "chip": "ym2612"
    },
    {
      "channel": 4,
      "note": 57,
      "start": 86.8322,
      "duration": 0.0161,
      "velocity": 120,
      "chip": "ym2612"
    },
    {
      "channel": 3,
      "note": 64,
      "start": 86.8333,
      "duration": 0.0161,
      "velocity": 120,
      "chip": "ym2612"
    },
    {
      "channel": 2,
      "note": 52,
      "start": 86.8345,
      "duration": 0.0161,
      "velocity": 100,
      "chip": "ym2612"
    },
    {
      "channel": 0,
      "note": 43,
      "start": 86.8472,
      "duration": 0.0134,
      "velocity": 115,
      "chip": "ym2612"
    },
    {
      "channel": 4,
      "note": 57,
      "start": 86.8483,
      "duration": 0.0157,
      "velocity": 120,
      "chip": "ym2612"
    },
    {
      "channel": 3,
      "note": 64,
      "start": 86.8495,
      "duration": 0.0157,
      "velocity": 120,
      "chip": "ym2612"
    },
    {
      "channel": 2,
      "note": 52,
      "start": 86.8506,
      "duration": 0.0158,
      "velocity": 100,
      "chip": "ym2612"
    },
    {
      "channel": 0,
      "note": 43,
      "start": 86.8606,
      "duration": 0.0161,
      "velocity": 115,
      "chip": "ym2612"
    },
    {
      "channel": 4,
      "note": 57,
      "start": 86.8641,
      "duration": 0.0141,
      "velocity": 120,
      "chip": "ym2612"
    },
    {
      "channel": 3,
      "note": 64,
      "start": 86.8652,
      "duration": 0.0141,
      "velocity": 120,
      "chip": "ym2612"
    },
    {
      "channel": 2,
      "note": 52,
      "start": 86.8663,
      "duration": 0.014,
      "velocity": 100,
      "chip": "ym2612"
    },
    {
      "channel": 0,
      "note": 44,
      "start": 86.8766,
      "duration": 0.0161,
      "velocity": 115,
      "chip": "ym2612"
    },
    {
      "channel": 4,
      "note": 57,
      "start": 86.8781,
      "duration": 0.0158,
      "velocity": 120,
      "chip": "ym2612"
    },
    {
      "channel": 3,
      "note": 64,
      "start": 86.8793,
      "duration": 0.0185,
      "velocity": 120,
      "chip": "ym2612"
    },
    {
      "channel": 2,
      "note": 52,
      "start": 86.8803,
      "duration": 0.0186,
      "velocity": 100,
      "chip": "ym2612"
    },
    {
      "channel": 0,
      "note": 44,
      "start": 86.8927,
      "duration": 0.0161,
      "velocity": 115,
      "chip": "ym2612"
    },
    {
      "channel": 4,
      "note": 57,
      "start": 86.8939,
      "duration": 0.0161,
      "velocity": 120,
      "chip": "ym2612"
    },
    {
      "channel": 3,
      "note": 64,
      "start": 86.8978,
      "duration": 0.0161,
      "velocity": 120,
      "chip": "ym2612"
    },
    {
      "channel": 2,
      "note": 52,
      "start": 86.8989,
      "duration": 0.0161,
      "velocity": 100,
      "chip": "ym2612"
    },
    {
      "channel": 0,
      "note": 44,
      "start": 86.9088,
      "duration": 0.0161,
      "velocity": 115,
      "chip": "ym2612"
    },
    {
      "channel": 4,
      "note": 57,
      "start": 86.91,
      "duration": 0.0161,
      "velocity": 120,
      "chip": "ym2612"
    },
    {
      "channel": 3,
      "note": 64,
      "start": 86.9139,
      "duration": 0.0134,
      "velocity": 120,
      "chip": "ym2612"
    },
    {
      "channel": 2,
      "note": 52,
      "start": 86.915,
      "duration": 0.0157,
      "velocity": 100,
      "chip": "ym2612"
    },
    {
      "channel": 0,
      "note": 45,
      "start": 86.9249,
      "duration": 0.0161,
      "velocity": 115,
      "chip": "ym2612"
    },
    {
      "channel": 4,
      "note": 57,
      "start": 86.9261,
      "duration": 0.0161,
      "velocity": 120,
      "chip": "ym2612"
    },
    {
      "channel": 3,
      "note": 64,
      "start": 86.9272,
      "duration": 0.0161,
      "velocity": 120,
      "chip": "ym2612"
    },
    {
      "channel": 2,
      "note": 52,
      "start": 86.9307,
      "duration": 0.0141,
      "velocity": 100,
      "chip": "ym2612"
    },
    {
      "channel": 0,
      "note": 45,
      "start": 86.941,
      "duration": 0.0161,
      "velocity": 115,
      "chip": "ym2612"
    },
    {
      "channel": 4,
      "note": 57,
      "start": 86.9422,
      "duration": 0.0161,
      "velocity": 120,
      "chip": "ym2612"
    },
    {
      "channel": 3,
      "note": 64,
      "start": 86.9433,
      "duration": 0.0161,
      "velocity": 120,
      "chip": "ym2612"
    },
    {
      "channel": 2,
      "note": 52,
      "start": 86.9448,
      "duration": 0.0158,
      "velocity": 100,
      "chip": "ym2612"
    },
    {
      "channel": 0,
      "note": 46,
      "start": 86.9571,
      "duration": 0.0161,
      "velocity": 115,
      "chip": "ym2612"
    },
    {
      "channel": 4,
      "note": 57,
      "start": 86.9583,
      "duration": 0.0161,
      "velocity": 120,
      "chip": "ym2612"
    },
    {
      "channel": 3,
      "note": 64,
      "start": 86.9594,
      "duration": 0.0161,
      "velocity": 120,
      "chip": "ym2612"
    },
    {
      "channel": 2,
      "note": 52,
      "start": 86.9606,
      "duration": 0.0161,
      "velocity": 100,
      "chip": "ym2612"
    },
    {
      "channel": 0,
      "note": 46,
      "start": 86.9732,
      "duration": 0.0179,
      "velocity": 124,
      "chip": "ym2612"
    },
    {
      "channel": 4,
      "note": 57,
      "start": 86.9744,
      "duration": 0.0179,
      "velocity": 120,
      "chip": "ym2612"
    },
    {
      "channel": 3,
      "note": 64,
      "start": 86.9755,
      "duration": 0.0179,
      "velocity": 120,
      "chip": "ym2612"
    },
    {
      "channel": 2,
      "note": 52,
      "start": 86.9766,
      "duration": 0.0205,
      "velocity": 100,
      "chip": "ym2612"
    },
    {
      "channel": 0,
      "note": 84,
      "start": 86.9912,
      "duration": 0.0143,
      "velocity": 124,
      "chip": "ym2612"
    },
    {
      "channel": 4,
      "note": 57,
      "start": 86.9923,
      "duration": 0.0144,
      "velocity": 120,
      "chip": "ym2612"
    },
    {
      "channel": 3,
      "note": 64,
      "start": 86.9934,
      "duration": 0.0143,
      "velocity": 120,
      "chip": "ym2612"
    },
    {
      "channel": 2,
      "note": 52,
      "start": 86.9973,
      "duration": 0.0117,
      "velocity": 100,
      "chip": "ym2612"
    },
    {
      "channel": 0,
      "note": 82,
      "start": 87.0055,
      "duration": 0.0161,
      "velocity": 124,
      "chip": "ym2612"
    },
    {
      "channel": 4,
      "note": 57,
      "start": 87.0067,
      "duration": 0.016,
      "velocity": 120,
      "chip": "ym2612"
    },
    {
      "channel": 3,
      "note": 64,
      "start": 87.0078,
      "duration": 0.0161,
      "velocity": 120,
      "chip": "ym2612"
    },
    {
      "channel": 2,
      "note": 52,
      "start": 87.009,
      "duration": 0.016,
      "velocity": 100,
      "chip": "ym2612"
    },
    {
      "channel": 0,
      "note": 80,
      "start": 87.0216,
      "duration": 0.0161,
      "velocity": 124,
      "chip": "ym2612"
    },
    {
      "channel": 4,
      "note": 57,
      "start": 87.0227,
      "duration": 0.0161,
      "velocity": 120,
      "chip": "ym2612"
    },
    {
      "channel": 3,
      "note": 64,
      "start": 87.0239,
      "duration": 0.0161,
      "velocity": 120,
      "chip": "ym2612"
    },
    {
      "channel": 2,
      "note": 52,
      "start": 87.0249,
      "duration": 0.0161,
      "velocity": 100,
      "chip": "ym2612"
    },
    {
      "channel": 0,
      "note": 77,
      "start": 87.0377,
      "duration": 0.0161,
      "velocity": 124,
      "chip": "ym2612"
    },
    {
      "channel": 4,
      "note": 57,
      "start": 87.0388,
      "duration": 0.0161,
      "velocity": 120,
      "chip": "ym2612"
    },
    {
      "channel": 3,
      "note": 64,
      "start": 87.04,
      "duration": 0.0161,
      "velocity": 120,
      "chip": "ym2612"
    },
    {
      "channel": 2,
      "note": 52,
      "start": 87.041,
      "duration": 0.0162,
      "velocity": 100,
      "chip": "ym2612"
    },
    {
      "channel": 0,
      "note": 75,
      "start": 87.0537,
      "duration": 0.0161,
      "velocity": 124,
      "chip": "ym2612"
    },
    {
      "channel": 4,
      "note": 57,
      "start": 87.0549,
      "duration": 0.0161,
      "velocity": 120,
      "chip": "ym2612"
    },
    {
      "channel": 3,
      "note": 64,
      "start": 87.056,
      "duration": 0.0161,
      "velocity": 120,
      "chip": "ym2612"
    },
    {
      "channel": 2,
      "note": 52,
      "start": 87.0572,
      "duration": 0.0161,
      "velocity": 100,
      "chip": "ym2612"
    },
    {
      "channel": 0,
      "note": 72,
      "start": 87.0698,
      "duration": 0.0161,
      "velocity": 124,
      "chip": "ym2612"
    },
    {
      "channel": 4,
      "note": 57,
      "start": 87.071,
      "duration": 0.0161,
      "velocity": 120,
      "chip": "ym2612"
    },
    {
      "channel": 3,
      "note": 64,
      "start": 87.0721,
      "duration": 0.0161,
      "velocity": 120,
      "chip": "ym2612"
    },
    {
      "channel": 2,
      "note": 52,
      "start": 87.0733,
      "duration": 0.0161,
      "velocity": 100,
      "chip": "ym2612"
    },
    {
      "channel": 0,
      "note": 70,
      "start": 87.0859,
      "duration": 0.0161,
      "velocity": 124,
      "chip": "ym2612"
    },
    {
      "channel": 4,
      "note": 57,
      "start": 87.0871,
      "duration": 0.0161,
      "velocity": 120,
      "chip": "ym2612"
    },
    {
      "channel": 3,
      "note": 64,
      "start": 87.0882,
      "duration": 0.0161,
      "velocity": 120,
      "chip": "ym2612"
    },
    {
      "channel": 2,
      "note": 52,
      "start": 87.0894,
      "duration": 0.0161,
      "velocity": 100,
      "chip": "ym2612"
    },
    {
      "channel": 0,
      "note": 68,
      "start": 87.102,
      "duration": 0.0161,
      "velocity": 124,
      "chip": "ym2612"
    },
    {
      "channel": 4,
      "note": 57,
      "start": 87.1032,
      "duration": 0.0161,
      "velocity": 120,
      "chip": "ym2612"
    },
    {
      "channel": 3,
      "note": 64,
      "start": 87.1043,
      "duration": 0.0161,
      "velocity": 120,
      "chip": "ym2612"
    },
    {
      "channel": 2,
      "note": 52,
      "start": 87.1055,
      "duration": 0.0161,
      "velocity": 100,
      "chip": "ym2612"
    },
    {
      "channel": 0,
      "note": 65,
      "start": 87.1181,
      "duration": 0.0161,
      "velocity": 124,
      "chip": "ym2612"
    },
    {
      "channel": 4,
      "note": 57,
      "start": 87.1193,
      "duration": 0.0161,
      "velocity": 120,
      "chip": "ym2612"
    },
    {
      "channel": 3,
      "note": 64,
      "start": 87.1204,
      "duration": 0.0161,
      "velocity": 120,
      "chip": "ym2612"
    },
    {
      "channel": 2,
      "note": 52,
      "start": 87.1216,
      "duration": 0.0161,
      "velocity": 100,
      "chip": "ym2612"
    },
    {
      "channel": 0,
      "note": 63,
      "start": 87.1342,
      "duration": 0.0153,
      "velocity": 1,
      "chip": "ym2612"
    },
    {
      "channel": 4,
      "note": 57,
      "start": 87.1354,
      "duration": 0.0153,
      "velocity": 120,
      "chip": "ym2612"
    },
    {
      "channel": 3,
      "note": 64,
      "start": 87.1365,
      "duration": 0.0153,
      "velocity": 120,
      "chip": "ym2612"
    },
    {
      "channel": 2,
      "note": 52,
      "start": 87.1377,
      "duration": 0.0153,
      "velocity": 100,
      "chip": "ym2612"
    },
    {
      "channel": 4,
      "note": 57,
      "start": 87.1507,
      "duration": 0.0153,
      "velocity": 120,
      "chip": "ym2612"
    },
    {
      "channel": 3,
      "note": 64,
      "start": 87.1518,
      "duration": 0.0153,
      "velocity": 120,
      "chip": "ym2612"
    },
    {
      "channel": 2,
      "note": 52,
      "start": 87.1529,
      "duration": 0.0153,
      "velocity": 100,
      "chip": "ym2612"
    },
    {
      "channel": 4,
      "note": 57,
      "start": 87.166,
      "duration": 0.0195,
      "velocity": 120,
      "chip": "ym2612"
    },
    {
      "channel": 3,
      "note": 64,
      "start": 87.1671,
      "duration": 0.0195,
      "velocity": 120,
      "chip": "ym2612"
    },
    {
      "channel": 2,
      "note": 52,
      "start": 87.1682,
      "duration": 0.0199,
      "velocity": 100,
      "chip": "ym2612"
    },
    {
      "channel": 0,
      "note": 36,
      "start": 87.1844,
      "duration": 0.0144,
      "velocity": 115,
      "chip": "ym2612"
    },
    {
      "channel": 4,
      "note": 57,
      "start": 87.1855,
      "duration": 0.0144,
      "velocity": 120,
      "chip": "ym2612"
    },
    {
      "channel": 3,
      "note": 64,
      "start": 87.1866,
      "duration": 0.0144,
      "velocity": 120,
      "chip": "ym2612"
    },
    {
      "channel": 2,
      "note": 52,
      "start": 87.188,
      "duration": 0.0141,
      "velocity": 100,
      "chip": "ym2612"
    },
    {
      "channel": 0,
      "note": 36,
      "start": 87.1987,
      "duration": 0.016,
      "velocity": 115,
      "chip": "ym2612"
    },
    {
      "channel": 4,
      "note": 57,
      "start": 87.1999,
      "duration": 0.016,
      "velocity": 120,
      "chip": "ym2612"
    },
    {
      "channel": 3,
      "note": 64,
      "start": 87.201,
      "duration": 0.016,
      "velocity": 120,
      "chip": "ym2612"
    },
    {
      "channel": 2,
      "note": 52,
      "start": 87.2022,
      "duration": 0.016,
      "velocity": 100,
      "chip": "ym2612"
    },
    {
      "channel": 0,
      "note": 37,
      "start": 87.2148,
      "duration": 0.0172,
      "velocity": 115,
      "chip": "ym2612"
    },
    {
      "channel": 4,
      "note": 57,
      "start": 87.2159,
      "duration": 0.0173,
      "velocity": 120,
      "chip": "ym2612"
    },
    {
      "channel": 3,
      "note": 64,
      "start": 87.2171,
      "duration": 0.0172,
      "velocity": 120,
      "chip": "ym2612"
    },
    {
      "channel": 2,
      "note": 52,
      "start": 87.2182,
      "duration": 0.0173,
      "velocity": 100,
      "chip": "ym2612"
    },
    {
      "channel": 0,
      "note": 37,
      "start": 87.232,
      "duration": 0.0167,
      "velocity": 115,
      "chip": "ym2612"
    },
    {
      "channel": 4,
      "note": 57,
      "start": 87.2332,
      "duration": 0.0167,
      "velocity": 120,
      "chip": "ym2612"
    },
    {
      "channel": 3,
      "note": 64,
      "start": 87.2343,
      "duration": 0.0167,
      "velocity": 120,
      "chip": "ym2612"
    },
    {
      "channel": 2,
      "note": 52,
      "start": 87.2354,
      "duration": 0.0167,
      "velocity": 100,
      "chip": "ym2612"
    },
    {
      "channel": 0,
      "note": 38,
      "start": 87.2487,
      "duration": 0.0163,
      "velocity": 115,
      "chip": "ym2612"
    },
    {
      "channel": 4,
      "note": 57,
      "start": 87.2499,
      "duration": 0.0163,
      "velocity": 120,
      "chip": "ym2612"
    },
    {
      "channel": 3,
      "note": 64,
      "start": 87.251,
      "duration": 0.0163,
      "velocity": 120,
      "chip": "ym2612"
    },
    {
      "channel": 2,
      "note": 52,
      "start": 87.2521,
      "duration": 0.0163,
      "velocity": 100,
      "chip": "ym2612"
    },
    {
      "channel": 0,
      "note": 38,
      "start": 87.265,
      "duration": 0.0144,
      "velocity": 115,
      "chip": "ym2612"
    },
    {
      "channel": 4,
      "note": 57,
      "start": 87.2661,
      "duration": 0.0144,
      "velocity": 120,
      "chip": "ym2612"
    },
    {
      "channel": 3,
      "note": 64,
      "start": 87.2673,
      "duration": 0.0144,
      "velocity": 120,
      "chip": "ym2612"
    },
    {
      "channel": 2,
      "note": 52,
      "start": 87.2684,
      "duration": 0.0144,
      "velocity": 100,
      "chip": "ym2612"
    },
    {
      "channel": 0,
      "note": 39,
      "start": 87.2795,
      "duration": 0.0186,
      "velocity": 115,
      "chip": "ym2612"
    },
    {
      "channel": 4,
      "note": 57,
      "start": 87.2806,
      "duration": 0.0186,
      "velocity": 120,
      "chip": "ym2612"
    },
    {
      "channel": 3,
      "note": 64,
      "start": 87.2817,
      "duration": 0.0186,
      "velocity": 120,
      "chip": "ym2612"
    },
    {
      "channel": 2,
      "note": 52,
      "start": 87.2829,
      "duration": 0.0185,
      "velocity": 100,
      "chip": "ym2612"
    },
    {
      "channel": 0,
      "note": 39,
      "start": 87.298,
      "duration": 0.0161,
      "velocity": 115,
      "chip": "ym2612"
    },
    {
      "channel": 4,
      "note": 57,
      "start": 87.2992,
      "duration": 0.0161,
      "velocity": 120,
      "chip": "ym2612"
    },
    {
      "channel": 3,
      "note": 64,
      "start": 87.3003,
      "duration": 0.0161,
      "velocity": 120,
      "chip": "ym2612"
    },
    {
      "channel": 2,
      "note": 52,
      "start": 87.3014,
      "duration": 0.0161,
      "velocity": 100,
      "chip": "ym2612"
    },
    {
      "channel": 0,
      "note": 40,
      "start": 87.3141,
      "duration": 0.0157,
      "velocity": 115,
      "chip": "ym2612"
    },
    {
      "channel": 4,
      "note": 57,
      "start": 87.3153,
      "duration": 0.0157,
      "velocity": 120,
      "chip": "ym2612"
    },
    {
      "channel": 3,
      "note": 64,
      "start": 87.3164,
      "duration": 0.0157,
      "velocity": 120,
      "chip": "ym2612"
    },
    {
      "channel": 2,
      "note": 52,
      "start": 87.3175,
      "duration": 0.0158,
      "velocity": 100,
      "chip": "ym2612"
    },
    {
      "channel": 0,
      "note": 40,
      "start": 87.3298,
      "duration": 0.0137,
      "velocity": 115,
      "chip": "ym2612"
    },
    {
      "channel": 4,
      "note": 57,
      "start": 87.331,
      "duration": 0.0141,
      "velocity": 120,
      "chip": "ym2612"
    },
    {
      "channel": 3,
      "note": 64,
      "start": 87.3321,
      "duration": 0.0141,
      "velocity": 120,
      "chip": "ym2612"
    },
    {
      "channel": 2,
      "note": 52,
      "start": 87.3333,
      "duration": 0.0141,
      "velocity": 100,
      "chip": "ym2612"
    },
    {
      "channel": 0,
      "note": 40,
      "start": 87.3436,
      "duration": 0.0161,
      "velocity": 115,
      "chip": "ym2612"
    },
    {
      "channel": 4,
      "note": 57,
      "start": 87.345,
      "duration": 0.0185,
      "velocity": 120,
      "chip": "ym2612"
    },
    {
      "channel": 3,
      "note": 64,
      "start": 87.3462,
      "duration": 0.0185,
      "velocity": 120,
      "chip": "ym2612"
    },
    {
      "channel": 2,
      "note": 52,
      "start": 87.3473,
      "duration": 0.0185,
      "velocity": 100,
      "chip": "ym2612"
    },
    {
      "channel": 0,
      "note": 41,
      "start": 87.3597,
      "duration": 0.0206,
      "velocity": 115,
      "chip": "ym2612"
    },
    {
      "channel": 4,
      "note": 57,
      "start": 87.3635,
      "duration": 0.018,
      "velocity": 120,
      "chip": "ym2612"
    },
    {
      "channel": 3,
      "note": 64,
      "start": 87.3647,
      "duration": 0.0179,
      "velocity": 120,
      "chip": "ym2612"
    },
    {
      "channel": 2,
      "note": 52,
      "start": 87.3658,
      "duration": 0.0182,
      "velocity": 100,
      "chip": "ym2612"
    },
    {
      "channel": 0,
      "note": 36,
      "start": 87.3803,
      "duration": 0.0117,
      "velocity": 115,
      "chip": "ym2612"
    },
    {
      "channel": 4,
      "note": 57,
      "start": 87.3815,
      "duration": 0.0116,
      "velocity": 120,
      "chip": "ym2612"
    },
    {
      "channel": 3,
      "note": 64,
      "start": 87.3826,
      "duration": 0.014,
      "velocity": 120,
      "chip": "ym2612"
    },
    {
      "channel": 2,
      "note": 52,
      "start": 87.384,
      "duration": 0.0137,
      "velocity": 100,
      "chip": "ym2612"
    },
    {
      "channel": 0,
      "note": 36,
      "start": 87.3919,
      "duration": 0.016,
      "velocity": 115,
      "chip": "ym2612"
    },
    {
      "channel": 4,
      "note": 57,
      "start": 87.3931,
      "duration": 0.016,
      "velocity": 120,
      "chip": "ym2612"
    },
    {
      "channel": 3,
      "note": 64,
      "start": 87.3966,
      "duration": 0.0137,
      "velocity": 120,
      "chip": "ym2612"
    },
    {
      "channel": 2,
      "note": 52,
      "start": 87.3978,
      "duration": 0.0139,
      "velocity": 100,
      "chip": "ym2612"
    },
    {
      "channel": 0,
      "note": 37,
      "start": 87.408,
      "duration": 0.0161,
      "velocity": 115,
      "chip": "ym2612"
    },
    {
      "channel": 4,
      "note": 57,
      "start": 87.4091,
      "duration": 0.0161,
      "velocity": 120,
      "chip": "ym2612"
    },
    {
      "channel": 3,
      "note": 64,
      "start": 87.4102,
      "duration": 0.0161,
      "velocity": 120,
      "chip": "ym2612"
    },
    {
      "channel": 2,
      "note": 52,
      "start": 87.4117,
      "duration": 0.0185,
      "velocity": 100,
      "chip": "ym2612"
    },
    {
      "channel": 0,
      "note": 37,
      "start": 87.424,
      "duration": 0.0161,
      "velocity": 115,
      "chip": "ym2612"
    },
    {
      "channel": 4,
      "note": 57,
      "start": 87.4252,
      "duration": 0.0161,
      "velocity": 120,
      "chip": "ym2612"
    },
    {
      "channel": 3,
      "note": 64,
      "start": 87.4263,
      "duration": 0.0161,
      "velocity": 120,
      "chip": "ym2612"
    },
    {
      "channel": 2,
      "note": 52,
      "start": 87.4302,
      "duration": 0.0134,
      "velocity": 100,
      "chip": "ym2612"
    },
    {
      "channel": 0,
      "note": 38,
      "start": 87.4401,
      "duration": 0.0162,
      "velocity": 115,
      "chip": "ym2612"
    },
    {
      "channel": 4,
      "note": 57,
      "start": 87.4413,
      "duration": 0.0161,
      "velocity": 120,
      "chip": "ym2612"
    },
    {
      "channel": 3,
      "note": 64,
      "start": 87.4424,
      "duration": 0.0162,
      "velocity": 120,
      "chip": "ym2612"
    },
    {
      "channel": 2,
      "note": 52,
      "start": 87.4436,
      "duration": 0.0161,
      "velocity": 100,
      "chip": "ym2612"
    },
    {
      "channel": 0,
      "note": 38,
      "start": 87.4563,
      "duration": 0.0161,
      "velocity": 115,
      "chip": "ym2612"
    },
    {
      "channel": 4,
      "note": 57,
      "start": 87.4574,
      "duration": 0.0161,
      "velocity": 120,
      "chip": "ym2612"
    },
    {
      "channel": 3,
      "note": 64,
      "start": 87.4586,
      "duration": 0.0161,
      "velocity": 120,
      "chip": "ym2612"
    },
    {
      "channel": 2,
      "note": 52,
      "start": 87.4597,
      "duration": 0.0161,
      "velocity": 100,
      "chip": "ym2612"
    },
    {
      "channel": 0,
      "note": 39,
      "start": 87.4724,
      "duration": 0.0161,
      "velocity": 115,
      "chip": "ym2612"
    },
    {
      "channel": 4,
      "note": 57,
      "start": 87.4735,
      "duration": 0.0161,
      "velocity": 120,
      "chip": "ym2612"
    },
    {
      "channel": 3,
      "note": 64,
      "start": 87.4747,
      "duration": 0.0161,
      "velocity": 120,
      "chip": "ym2612"
    },
    {
      "channel": 2,
      "note": 52,
      "start": 87.4758,
      "duration": 0.0161,
      "velocity": 100,
      "chip": "ym2612"
    },
    {
      "channel": 0,
      "note": 39,
      "start": 87.4885,
      "duration": 0.0161,
      "velocity": 115,
      "chip": "ym2612"
    },
    {
      "channel": 4,
      "note": 57,
      "start": 87.4896,
      "duration": 0.0161,
      "velocity": 120,
      "chip": "ym2612"
    },
    {
      "channel": 3,
      "note": 64,
      "start": 87.4908,
      "duration": 0.0161,
      "velocity": 120,
      "chip": "ym2612"
    },
    {
      "channel": 2,
      "note": 52,
      "start": 87.4919,
      "duration": 0.0161,
      "velocity": 100,
      "chip": "ym2612"
    },
    {
      "channel": 0,
      "note": 40,
      "start": 87.5046,
      "duration": 0.0161,
      "velocity": 115,
      "chip": "ym2612"
    },
    {
      "channel": 4,
      "note": 57,
      "start": 87.5057,
      "duration": 0.0161,
      "velocity": 120,
      "chip": "ym2612"
    },
    {
      "channel": 3,
      "note": 64,
      "start": 87.5069,
      "duration": 0.0161,
      "velocity": 120,
      "chip": "ym2612"
    },
    {
      "channel": 2,
      "note": 52,
      "start": 87.508,
      "duration": 0.0161,
      "velocity": 100,
      "chip": "ym2612"
    },
    {
      "channel": 0,
      "note": 40,
      "start": 87.5207,
      "duration": 0.0161,
      "velocity": 115,
      "chip": "ym2612"
    },
    {
      "channel": 4,
      "note": 57,
      "start": 87.5218,
      "duration": 0.0161,
      "velocity": 120,
      "chip": "ym2612"
    },
    {
      "channel": 3,
      "note": 64,
      "start": 87.523,
      "duration": 0.0161,
      "velocity": 120,
      "chip": "ym2612"
    },
    {
      "channel": 2,
      "note": 52,
      "start": 87.5241,
      "duration": 0.0161,
      "velocity": 100,
      "chip": "ym2612"
    },
    {
      "channel": 0,
      "note": 40,
      "start": 87.5368,
      "duration": 0.0161,
      "velocity": 115,
      "chip": "ym2612"
    },
    {
      "channel": 4,
      "note": 57,
      "start": 87.5379,
      "duration": 0.0161,
      "velocity": 120,
      "chip": "ym2612"
    },
    {
      "channel": 3,
      "note": 64,
      "start": 87.539,
      "duration": 0.0161,
      "velocity": 120,
      "chip": "ym2612"
    },
    {
      "channel": 2,
      "note": 52,
      "start": 87.5402,
      "duration": 0.0161,
      "velocity": 100,
      "chip": "ym2612"
    },
    {
      "channel": 0,
      "note": 41,
      "start": 87.5529,
      "duration": 0.0161,
      "velocity": 115,
      "chip": "ym2612"
    },
    {
      "channel": 4,
      "note": 57,
      "start": 87.554,
      "duration": 0.0161,
      "velocity": 120,
      "chip": "ym2612"
    },
    {
      "channel": 3,
      "note": 64,
      "start": 87.5551,
      "duration": 0.0161,
      "velocity": 120,
      "chip": "ym2612"
    },
    {
      "channel": 2,
      "note": 52,
      "start": 87.5563,
      "duration": 0.0163,
      "velocity": 100,
      "chip": "ym2612"
    },
    {
      "channel": 0,
      "note": 41,
      "start": 87.569,
      "duration": 0.0161,
      "velocity": 115,
      "chip": "ym2612"
    },
    {
      "channel": 4,
      "note": 57,
      "start": 87.5701,
      "duration": 0.0162,
      "velocity": 120,
      "chip": "ym2612"
    },
    {
      "channel": 3,
      "note": 64,
      "start": 87.5712,
      "duration": 0.0161,
      "velocity": 120,
      "chip": "ym2612"
    },
    {
      "channel": 2,
      "note": 52,
      "start": 87.5727,
      "duration": 0.0159,
      "velocity": 100,
      "chip": "ym2612"
    },
    {
      "channel": 0,
      "note": 42,
      "start": 87.5851,
      "duration": 0.0161,
      "velocity": 115,
      "chip": "ym2612"
    },
    {
      "channel": 4,
      "note": 57,
      "start": 87.5863,
      "duration": 0.0161,
      "velocity": 120,
      "chip": "ym2612"
    },
    {
      "channel": 3,
      "note": 64,
      "start": 87.5873,
      "duration": 0.0161,
      "velocity": 120,
      "chip": "ym2612"
    },
    {
      "channel": 2,
      "note": 52,
      "start": 87.5885,
      "duration": 0.016,
      "velocity": 100,
      "chip": "ym2612"
    },
    {
      "channel": 0,
      "note": 42,
      "start": 87.6012,
      "duration": 0.0161,
      "velocity": 115,
      "chip": "ym2612"
    },
    {
      "channel": 4,
      "note": 57,
      "start": 87.6024,
      "duration": 0.0161,
      "velocity": 120,
      "chip": "ym2612"
    },
    {
      "channel": 3,
      "note": 64,
      "start": 87.6035,
      "duration": 0.0161,
      "velocity": 120,
      "chip": "ym2612"
    },
    {
      "channel": 2,
      "note": 52,
      "start": 87.6046,
      "duration": 0.0161,
      "velocity": 100,
      "chip": "ym2612"
    },
    {
      "channel": 0,
      "note": 43,
      "start": 87.6173,
      "duration": 0.0161,
      "velocity": 115,
      "chip": "ym2612"
    },
    {
      "channel": 4,
      "note": 57,
      "start": 87.6184,
      "duration": 0.0161,
      "velocity": 120,
      "chip": "ym2612"
    },
    {
      "channel": 3,
      "note": 64,
      "start": 87.6196,
      "duration": 0.0161,
      "velocity": 120,
      "chip": "ym2612"
    },
    {
      "channel": 2,
      "note": 52,
      "start": 87.6207,
      "duration": 0.0161,
      "velocity": 100,
      "chip": "ym2612"
    },
    {
      "channel": 0,
      "note": 43,
      "start": 87.6334,
      "duration": 0.0161,
      "velocity": 115,
      "chip": "ym2612"
    },
    {
      "channel": 4,
      "note": 57,
      "start": 87.6345,
      "duration": 0.0161,
      "velocity": 120,
      "chip": "ym2612"
    },
    {
      "channel": 3,
      "note": 64,
      "start": 87.6357,
      "duration": 0.0161,
      "velocity": 120,
      "chip": "ym2612"
    },
    {
      "channel": 2,
      "note": 52,
      "start": 87.6368,
      "duration": 0.0162,
      "velocity": 100,
      "chip": "ym2612"
    },
    {
      "channel": 0,
      "note": 44,
      "start": 87.6495,
      "duration": 0.0161,
      "velocity": 115,
      "chip": "ym2612"
    },
    {
      "channel": 4,
      "note": 57,
      "start": 87.6506,
      "duration": 0.0161,
      "velocity": 120,
      "chip": "ym2612"
    },
    {
      "channel": 3,
      "note": 64,
      "start": 87.6518,
      "duration": 0.0161,
      "velocity": 120,
      "chip": "ym2612"
    },
    {
      "channel": 2,
      "note": 52,
      "start": 87.6529,
      "duration": 0.0161,
      "velocity": 100,
      "chip": "ym2612"
    },
    {
      "channel": 0,
      "note": 44,
      "start": 87.6656,
      "duration": 0.0161,
      "velocity": 115,
      "chip": "ym2612"
    },
    {
      "channel": 4,
      "note": 57,
      "start": 87.6667,
      "duration": 0.0161,
      "velocity": 120,
      "chip": "ym2612"
    },
    {
      "channel": 3,
      "note": 64,
      "start": 87.6679,
      "duration": 0.0161,
      "velocity": 120,
      "chip": "ym2612"
    },
    {
      "channel": 2,
      "note": 52,
      "start": 87.669,
      "duration": 0.0161,
      "velocity": 100,
      "chip": "ym2612"
    },
    {
      "channel": 0,
      "note": 44,
      "start": 87.6817,
      "duration": 0.0171,
      "velocity": 115,
      "chip": "ym2612"
    },
    {
      "channel": 4,
      "note": 57,
      "start": 87.6828,
      "duration": 0.0171,
      "velocity": 120,
      "chip": "ym2612"
    },
    {
      "channel": 3,
      "note": 64,
      "start": 87.684,
      "duration": 0.0171,
      "velocity": 120,
      "chip": "ym2612"
    },
    {
      "channel": 2,
      "note": 52,
      "start": 87.6851,
      "duration": 0.017,
      "velocity": 100,
      "chip": "ym2612"
    },
    {
      "channel": 0,
      "note": 45,
      "start": 87.6987,
      "duration": 0.0167,
      "velocity": 115,
      "chip": "ym2612"
    },
    {
      "channel": 4,
      "note": 57,
      "start": 87.6999,
      "duration": 0.0167,
      "velocity": 120,
      "chip": "ym2612"
    },
    {
      "channel": 3,
      "note": 64,
      "start": 87.701,
      "duration": 0.0167,
      "velocity": 120,
      "chip": "ym2612"
    },
    {
      "channel": 2,
      "note": 52,
      "start": 87.7021,
      "duration": 0.0167,
      "velocity": 100,
      "chip": "ym2612"
    },
    {
      "channel": 0,
      "note": 45,
      "start": 87.7154,
      "duration": 0.0163,
      "velocity": 115,
      "chip": "ym2612"
    },
    {
      "channel": 4,
      "note": 57,
      "start": 87.7165,
      "duration": 0.0163,
      "velocity": 120,
      "chip": "ym2612"
    },
    {
      "channel": 3,
      "note": 64,
      "start": 87.7177,
      "duration": 0.0163,
      "velocity": 120,
      "chip": "ym2612"
    },
    {
      "channel": 2,
      "note": 52,
      "start": 87.7188,
      "duration": 0.0163,
      "velocity": 100,
      "chip": "ym2612"
    },
    {
      "channel": 0,
      "note": 46,
      "start": 87.7317,
      "duration": 0.0146,
      "velocity": 115,
      "chip": "ym2612"
    },
    {
      "channel": 4,
      "note": 57,
      "start": 87.7328,
      "duration": 0.0146,
      "velocity": 120,
      "chip": "ym2612"
    },
    {
      "channel": 3,
      "note": 64,
      "start": 87.734,
      "duration": 0.0146,
      "velocity": 120,
      "chip": "ym2612"
    },
    {
      "channel": 2,
      "note": 52,
      "start": 87.7351,
      "duration": 0.0146,
      "velocity": 100,
      "chip": "ym2612"
    },
    {
      "channel": 0,
      "note": 46,
      "start": 87.7463,
      "duration": 0.0204,
      "velocity": 124,
      "chip": "ym2612"
    },
    {
      "channel": 4,
      "note": 57,
      "start": 87.7475,
      "duration": 0.0204,
      "velocity": 120,
      "chip": "ym2612"
    },
    {
      "channel": 3,
      "note": 64,
      "start": 87.7486,
      "duration": 0.0204,
      "velocity": 120,
      "chip": "ym2612"
    },
    {
      "channel": 2,
      "note": 52,
      "start": 87.7498,
      "duration": 0.0207,
      "velocity": 100,
      "chip": "ym2612"
    },
    {
      "channel": 0,
      "note": 84,
      "start": 87.7667,
      "duration": 0.0144,
      "velocity": 124,
      "chip": "ym2612"
    },
    {
      "channel": 4,
      "note": 57,
      "start": 87.7679,
      "duration": 0.0144,
      "velocity": 120,
      "chip": "ym2612"
    },
    {
      "channel": 3,
      "note": 64,
      "start": 87.769,
      "duration": 0.0144,
      "velocity": 120,
      "chip": "ym2612"
    },
    {
      "channel": 2,
      "note": 52,
      "start": 87.7705,
      "duration": 0.0141,
      "velocity": 100,
      "chip": "ym2612"
    },
    {
      "channel": 0,
      "note": 82,
      "start": 87.7811,
      "duration": 0.0156,
      "velocity": 124,
      "chip": "ym2612"
    },
    {
      "channel": 4,
      "note": 57,
      "start": 87.7822,
      "duration": 0.0156,
      "velocity": 120,
      "chip": "ym2612"
    },
    {
      "channel": 3,
      "note": 64,
      "start": 87.7834,
      "duration": 0.0156,
      "velocity": 120,
      "chip": "ym2612"
    },
    {
      "channel": 2,
      "note": 52,
      "start": 87.7846,
      "duration": 0.0156,
      "velocity": 100,
      "chip": "ym2612"
    },
    {
      "channel": 0,
      "note": 80,
      "start": 87.7968,
      "duration": 0.0137,
      "velocity": 124,
      "chip": "ym2612"
    },
    {
      "channel": 4,
      "note": 57,
      "start": 87.7979,
      "duration": 0.0141,
      "velocity": 120,
      "chip": "ym2612"
    },
    {
      "channel": 3,
      "note": 64,
      "start": 87.799,
      "duration": 0.0141,
      "velocity": 120,
      "chip": "ym2612"
    },
    {
      "channel": 2,
      "note": 52,
      "start": 87.8002,
      "duration": 0.0141,
      "velocity": 100,
      "chip": "ym2612"
    },
    {
      "channel": 0,
      "note": 77,
      "start": 87.8105,
      "duration": 0.0161,
      "velocity": 124,
      "chip": "ym2612"
    },
    {
      "channel": 4,
      "note": 57,
      "start": 87.812,
      "duration": 0.0185,
      "velocity": 120,
      "chip": "ym2612"
    },
    {
      "channel": 3,
      "note": 64,
      "start": 87.8131,
      "duration": 0.0185,
      "velocity": 120,
      "chip": "ym2612"
    },
    {
      "channel": 2,
      "note": 52,
      "start": 87.8142,
      "duration": 0.0185,
      "velocity": 100,
      "chip": "ym2612"
    },
    {
      "channel": 0,
      "note": 75,
      "start": 87.8266,
      "duration": 0.0161,
      "velocity": 124,
      "chip": "ym2612"
    },
    {
      "channel": 4,
      "note": 57,
      "start": 87.8305,
      "duration": 0.0134,
      "velocity": 120,
      "chip": "ym2612"
    },
    {
      "channel": 3,
      "note": 64,
      "start": 87.8316,
      "duration": 0.0161,
      "velocity": 120,
      "chip": "ym2612"
    },
    {
      "channel": 2,
      "note": 52,
      "start": 87.8328,
      "duration": 0.0161,
      "velocity": 100,
      "chip": "ym2612"
    },
    {
      "channel": 0,
      "note": 72,
      "start": 87.8427,
      "duration": 0.0161,
      "velocity": 124,
      "chip": "ym2612"
    },
    {
      "channel": 4,
      "note": 57,
      "start": 87.8438,
      "duration": 0.0161,
      "velocity": 120,
      "chip": "ym2612"
    },
    {
      "channel": 3,
      "note": 64,
      "start": 87.8477,
      "duration": 0.0158,
      "velocity": 120,
      "chip": "ym2612"
    },
    {
      "channel": 2,
      "note": 52,
      "start": 87.8488,
      "duration": 0.0158,
      "velocity": 100,
      "chip": "ym2612"
    },
    {
      "channel": 0,
      "note": 70,
      "start": 87.8588,
      "duration": 0.0161,
      "velocity": 124,
      "chip": "ym2612"
    },
    {
      "channel": 4,
      "note": 57,
      "start": 87.8599,
      "duration": 0.0161,
      "velocity": 120,
      "chip": "ym2612"
    },
    {
      "channel": 3,
      "note": 64,
      "start": 87.8635,
      "duration": 0.0137,
      "velocity": 120,
      "chip": "ym2612"
    },
    {
      "channel": 2,
      "note": 52,
      "start": 87.8646,
      "duration": 0.014,
      "velocity": 100,
      "chip": "ym2612"
    },
    {
      "channel": 0,
      "note": 68,
      "start": 87.8749,
      "duration": 0.0161,
      "velocity": 124,
      "chip": "ym2612"
    },
    {
      "channel": 4,
      "note": 57,
      "start": 87.876,
      "duration": 0.0161,
      "velocity": 120,
      "chip": "ym2612"
    },
    {
      "channel": 3,
      "note": 64,
      "start": 87.8772,
      "duration": 0.0161,
      "velocity": 120,
      "chip": "ym2612"
    },
    {
      "channel": 2,
      "note": 52,
      "start": 87.8786,
      "duration": 0.0185,
      "velocity": 100,
      "chip": "ym2612"
    },
    {
      "channel": 0,
      "note": 65,
      "start": 87.891,
      "duration": 0.0161,
      "velocity": 124,
      "chip": "ym2612"
    },
    {
      "channel": 4,
      "note": 57,
      "start": 87.8921,
      "duration": 0.0162,
      "velocity": 120,
      "chip": "ym2612"
    },
    {
      "channel": 3,
      "note": 64,
      "start": 87.8933,
      "duration": 0.0161,
      "velocity": 120,
      "chip": "ym2612"
    },
    {
      "channel": 2,
      "note": 52,
      "start": 87.8971,
      "duration": 0.0134,
      "velocity": 100,
      "chip": "ym2612"
    },
    {
      "channel": 0,
      "note": 63,
      "start": 87.9071,
      "duration": 0.0153,
      "velocity": 1,
      "chip": "ym2612"
    },
    {
      "channel": 4,
      "note": 57,
      "start": 87.9083,
      "duration": 0.0153,
      "velocity": 120,
      "chip": "ym2612"
    },
    {
      "channel": 3,
      "note": 64,
      "start": 87.9094,
      "duration": 0.0153,
      "velocity": 120,
      "chip": "ym2612"
    },
    {
      "channel": 2,
      "note": 52,
      "start": 87.9105,
      "duration": 0.0153,
      "velocity": 100,
      "chip": "ym2612"
    },
    {
      "channel": 4,
      "note": 57,
      "start": 87.9235,
      "duration": 0.0153,
      "velocity": 120,
      "chip": "ym2612"
    },
    {
      "channel": 3,
      "note": 64,
      "start": 87.9247,
      "duration": 0.0153,
      "velocity": 120,
      "chip": "ym2612"
    },
    {
      "channel": 2,
      "note": 52,
      "start": 87.9258,
      "duration": 0.0152,
      "velocity": 100,
      "chip": "ym2612"
    },
    {
      "channel": 4,
      "note": 57,
      "start": 87.9388,
      "duration": 0.0161,
      "velocity": 120,
      "chip": "ym2612"
    },
    {
      "channel": 3,
      "note": 64,
      "start": 87.94,
      "duration": 0.0161,
      "velocity": 120,
      "chip": "ym2612"
    },
    {
      "channel": 2,
      "note": 52,
      "start": 87.941,
      "duration": 0.0164,
      "velocity": 100,
      "chip": "ym2612"
    },
    {
      "channel": 4,
      "note": 57,
      "start": 87.9549,
      "duration": 0.0161,
      "velocity": 120,
      "chip": "ym2612"
    },
    {
      "channel": 3,
      "note": 64,
      "start": 87.956,
      "duration": 0.0161,
      "velocity": 120,
      "chip": "ym2612"
    },
    {
      "channel": 2,
      "note": 52,
      "start": 87.9574,
      "duration": 0.0159,
      "velocity": 100,
      "chip": "ym2612"
    },
    {
      "channel": 4,
      "note": 57,
      "start": 87.971,
      "duration": 0.0161,
      "velocity": 120,
      "chip": "ym2612"
    },
    {
      "channel": 3,
      "note": 64,
      "start": 87.9721,
      "duration": 0.0161,
      "velocity": 120,
      "chip": "ym2612"
    },
    {
      "channel": 2,
      "note": 52,
      "start": 87.9733,
      "duration": 0.016,
      "velocity": 100,
      "chip": "ym2612"
    },
    {
      "channel": 4,
      "note": 57,
      "start": 87.9871,
      "duration": 0.0162,
      "velocity": 120,
      "chip": "ym2612"
    },
    {
      "channel": 3,
      "note": 64,
      "start": 87.9882,
      "duration": 0.0161,
      "velocity": 120,
      "chip": "ym2612"
    },
    {
      "channel": 2,
      "note": 52,
      "start": 87.9894,
      "duration": 0.0161,
      "velocity": 100,
      "chip": "ym2612"
    },
    {
      "channel": 4,
      "note": 57,
      "start": 88.0032,
      "duration": 0.0161,
      "velocity": 120,
      "chip": "ym2612"
    },
    {
      "channel": 3,
      "note": 64,
      "start": 88.0043,
      "duration": 0.0161,
      "velocity": 120,
      "chip": "ym2612"
    },
    {
      "channel": 2,
      "note": 52,
      "start": 88.0055,
      "duration": 0.0161,
      "velocity": 100,
      "chip": "ym2612"
    },
    {
      "channel": 4,
      "note": 57,
      "start": 88.0193,
      "duration": 0.0161,
      "velocity": 120,
      "chip": "ym2612"
    },
    {
      "channel": 3,
      "note": 64,
      "start": 88.0204,
      "duration": 0.0161,
      "velocity": 120,
      "chip": "ym2612"
    },
    {
      "channel": 2,
      "note": 52,
      "start": 88.0216,
      "duration": 0.0161,
      "velocity": 100,
      "chip": "ym2612"
    },
    {
      "channel": 4,
      "note": 57,
      "start": 88.0354,
      "duration": 0.0161,
      "velocity": 120,
      "chip": "ym2612"
    },
    {
      "channel": 3,
      "note": 64,
      "start": 88.0365,
      "duration": 0.0162,
      "velocity": 120,
      "chip": "ym2612"
    },
    {
      "channel": 2,
      "note": 52,
      "start": 88.0377,
      "duration": 0.0161,
      "velocity": 100,
      "chip": "ym2612"
    },
    {
      "channel": 4,
      "note": 57,
      "start": 88.0515,
      "duration": 0.0161,
      "velocity": 120,
      "chip": "ym2612"
    },
    {
      "channel": 3,
      "note": 64,
      "start": 88.0527,
      "duration": 0.0161,
      "velocity": 120,
      "chip": "ym2612"
    },
    {
      "channel": 2,
      "note": 52,
      "start": 88.0537,
      "duration": 0.0161,
      "velocity": 100,
      "chip": "ym2612"
    },
    {
      "channel": 4,
      "note": 57,
      "start": 88.0676,
      "duration": 0.0161,
      "velocity": 120,
      "chip": "ym2612"
    },
    {
      "channel": 3,
      "note": 64,
      "start": 88.0688,
      "duration": 0.0161,
      "velocity": 120,
      "chip": "ym2612"
    },
    {
      "channel": 2,
      "note": 52,
      "start": 88.0698,
      "duration": 0.0161,
      "velocity": 100,
      "chip": "ym2612"
    },
    {
      "channel": 4,
      "note": 57,
      "start": 88.0837,
      "duration": 0.0161,
      "velocity": 120,
      "chip": "ym2612"
    },
    {
      "channel": 3,
      "note": 64,
      "start": 88.0849,
      "duration": 0.0161,
      "velocity": 120,
      "chip": "ym2612"
    },
    {
      "channel": 2,
      "note": 52,
      "start": 88.0859,
      "duration": 0.0162,
      "velocity": 100,
      "chip": "ym2612"
    },
    {
      "channel": 4,
      "note": 57,
      "start": 88.0998,
      "duration": 0.0161,
      "velocity": 120,
      "chip": "ym2612"
    },
    {
      "channel": 3,
      "note": 64,
      "start": 88.101,
      "duration": 0.0161,
      "velocity": 120,
      "chip": "ym2612"
    },
    {
      "channel": 2,
      "note": 52,
      "start": 88.1021,
      "duration": 0.0161,
      "velocity": 100,
      "chip": "ym2612"
    },
    {
      "channel": 4,
      "note": 57,
      "start": 88.1159,
      "duration": 0.0161,
      "velocity": 120,
      "chip": "ym2612"
    },
    {
      "channel": 3,
      "note": 64,
      "start": 88.1171,
      "duration": 0.0161,
      "velocity": 120,
      "chip": "ym2612"
    },
    {
      "channel": 2,
      "note": 52,
      "start": 88.1182,
      "duration": 0.0161,
      "velocity": 100,
      "chip": "ym2612"
    },
    {
      "channel": 4,
      "note": 57,
      "start": 88.132,
      "duration": 0.0196,
      "velocity": 120,
      "chip": "ym2612"
    },
    {
      "channel": 3,
      "note": 64,
      "start": 88.1332,
      "duration": 0.0195,
      "velocity": 120,
      "chip": "ym2612"
    },
    {
      "channel": 2,
      "note": 52,
      "start": 88.1343,
      "duration": 0.0198,
      "velocity": 100,
      "chip": "ym2612"
    },
    {
      "channel": 0,
      "note": 36,
      "start": 88.1504,
      "duration": 0.0151,
      "velocity": 115,
      "chip": "ym2612"
    },
    {
      "channel": 4,
      "note": 57,
      "start": 88.1516,
      "duration": 0.015,
      "velocity": 120,
      "chip": "ym2612"
    },
    {
      "channel": 3,
      "note": 64,
      "start": 88.1527,
      "duration": 0.0151,
      "velocity": 120,
      "chip": "ym2612"
    },
    {
      "channel": 2,
      "note": 52,
      "start": 88.1541,
      "duration": 0.0148,
      "velocity": 100,
      "chip": "ym2612"
    },
    {
      "channel": 0,
      "note": 36,
      "start": 88.1655,
      "duration": 0.0166,
      "velocity": 115,
      "chip": "ym2612"
    },
    {
      "channel": 4,
      "note": 57,
      "start": 88.1666,
      "duration": 0.0166,
      "velocity": 120,
      "chip": "ym2612"
    },
    {
      "channel": 3,
      "note": 64,
      "start": 88.1678,
      "duration": 0.0166,
      "velocity": 120,
      "chip": "ym2612"
    },
    {
      "channel": 2,
      "note": 52,
      "start": 88.1689,
      "duration": 0.0166,
      "velocity": 100,
      "chip": "ym2612"
    },
    {
      "channel": 0,
      "note": 37,
      "start": 88.1821,
      "duration": 0.0163,
      "velocity": 115,
      "chip": "ym2612"
    },
    {
      "channel": 4,
      "note": 57,
      "start": 88.1832,
      "duration": 0.0163,
      "velocity": 120,
      "chip": "ym2612"
    },
    {
      "channel": 3,
      "note": 64,
      "start": 88.1844,
      "duration": 0.0163,
      "velocity": 120,
      "chip": "ym2612"
    },
    {
      "channel": 2,
      "note": 52,
      "start": 88.1854,
      "duration": 0.0163,
      "velocity": 100,
      "chip": "ym2612"
    },
    {
      "channel": 0,
      "note": 37,
      "start": 88.1983,
      "duration": 0.0147,
      "velocity": 115,
      "chip": "ym2612"
    },
    {
      "channel": 4,
      "note": 57,
      "start": 88.1995,
      "duration": 0.0147,
      "velocity": 120,
      "chip": "ym2612"
    },
    {
      "channel": 3,
      "note": 64,
      "start": 88.2006,
      "duration": 0.0147,
      "velocity": 120,
      "chip": "ym2612"
    },
    {
      "channel": 2,
      "note": 52,
      "start": 88.2018,
      "duration": 0.0147,
      "velocity": 100,
      "chip": "ym2612"
    },
    {
      "channel": 0,
      "note": 38,
      "start": 88.213,
      "duration": 0.0188,
      "velocity": 115,
      "chip": "ym2612"
    },
    {
      "channel": 4,
      "note": 57,
      "start": 88.2142,
      "duration": 0.0188,
      "velocity": 120,
      "chip": "ym2612"
    },
    {
      "channel": 3,
      "note": 64,
      "start": 88.2153,
      "duration": 0.0188,
      "velocity": 120,
      "chip": "ym2612"
    },
    {
      "channel": 2,
      "note": 52,
      "start": 88.2165,
      "duration": 0.0188,
      "velocity": 100,
      "chip": "ym2612"
    },
    {
      "channel": 0,
      "note": 38,
      "start": 88.2319,
      "duration": 0.0161,
      "velocity": 115,
      "chip": "ym2612"
    },
    {
      "channel": 4,
      "note": 57,
      "start": 88.233,
      "duration": 0.0161,
      "velocity": 120,
      "chip": "ym2612"
    },
    {
      "channel": 3,
      "note": 64,
      "start": 88.2341,
      "duration": 0.0161,
      "velocity": 120,
      "chip": "ym2612"
    },
    {
      "channel": 2,
      "note": 52,
      "start": 88.2353,
      "duration": 0.0161,
      "velocity": 100,
      "chip": "ym2612"
    },
    {
      "channel": 0,
      "note": 39,
      "start": 88.248,
      "duration": 0.0158,
      "velocity": 115,
      "chip": "ym2612"
    },
    {
      "channel": 4,
      "note": 57,
      "start": 88.2491,
      "duration": 0.0158,
      "velocity": 120,
      "chip": "ym2612"
    },
    {
      "channel": 3,
      "note": 64,
      "start": 88.2502,
      "duration": 0.0158,
      "velocity": 120,
      "chip": "ym2612"
    },
    {
      "channel": 2,
      "note": 52,
      "start": 88.2514,
      "duration": 0.0157,
      "velocity": 100,
      "chip": "ym2612"
    },
    {
      "channel": 0,
      "note": 39,
      "start": 88.2637,
      "duration": 0.014,
      "velocity": 115,
      "chip": "ym2612"
    },
    {
      "channel": 4,
      "note": 57,
      "start": 88.2649,
      "duration": 0.014,
      "velocity": 120,
      "chip": "ym2612"
    },
    {
      "channel": 3,
      "note": 64,
      "start": 88.266,
      "duration": 0.014,
      "velocity": 120,
      "chip": "ym2612"
    },
    {
      "channel": 2,
      "note": 52,
      "start": 88.2671,
      "duration": 0.0141,
      "velocity": 100,
      "chip": "ym2612"
    },
    {
      "channel": 0,
      "note": 40,
      "start": 88.2777,
      "duration": 0.0158,
      "velocity": 115,
      "chip": "ym2612"
    },
    {
      "channel": 4,
      "note": 57,
      "start": 88.2789,
      "duration": 0.0185,
      "velocity": 120,
      "chip": "ym2612"
    },
    {
      "channel": 3,
      "note": 64,
      "start": 88.28,
      "duration": 0.0185,
      "velocity": 120,
      "chip": "ym2612"
    },
    {
      "channel": 2,
      "note": 52,
      "start": 88.2812,
      "duration": 0.0185,
      "velocity": 100,
      "chip": "ym2612"
    },
    {
      "channel": 0,
      "note": 40,
      "start": 88.2935,
      "duration": 0.0161,
      "velocity": 115,
      "chip": "ym2612"
    },
    {
      "channel": 4,
      "note": 57,
      "start": 88.2974,
      "duration": 0.0161,
      "velocity": 120,
      "chip": "ym2612"
    },
    {
      "channel": 3,
      "note": 64,
      "start": 88.2985,
      "duration": 0.0161,
      "velocity": 120,
      "chip": "ym2612"
    },
    {
      "channel": 2,
      "note": 52,
      "start": 88.2997,
      "duration": 0.0161,
      "velocity": 100,
      "chip": "ym2612"
    },
    {
      "channel": 0,
      "note": 40,
      "start": 88.3096,
      "duration": 0.0161,
      "velocity": 115,
      "chip": "ym2612"
    },
    {
      "channel": 4,
      "note": 57,
      "start": 88.3135,
      "duration": 0.0133,
      "velocity": 120,
      "chip": "ym2612"
    },
    {
      "channel": 3,
      "note": 64,
      "start": 88.3146,
      "duration": 0.0158,
      "velocity": 120,
      "chip": "ym2612"
    },
    {
      "channel": 2,
      "note": 52,
      "start": 88.3158,
      "duration": 0.0157,
      "velocity": 100,
      "chip": "ym2612"
    },
    {
      "channel": 0,
      "note": 41,
      "start": 88.3257,
      "duration": 0.0162,
      "velocity": 115,
      "chip": "ym2612"
    },
    {
      "channel": 4,
      "note": 57,
      "start": 88.3268,
      "duration": 0.0161,
      "velocity": 120,
      "chip": "ym2612"
    },
    {
      "channel": 3,
      "note": 64,
      "start": 88.3304,
      "duration": 0.0141,
      "velocity": 120,
      "chip": "ym2612"
    },
    {
      "channel": 2,
      "note": 52,
      "start": 88.3315,
      "duration": 0.0144,
      "velocity": 100,
      "chip": "ym2612"
    },
    {
      "channel": 0,
      "note": 41,
      "start": 88.3419,
      "duration": 0.0161,
      "velocity": 115,
      "chip": "ym2612"
    },
    {
      "channel": 4,
      "note": 57,
      "start": 88.343,
      "duration": 0.0161,
      "velocity": 120,
      "chip": "ym2612"
    },
    {
      "channel": 3,
      "note": 64,
      "start": 88.3445,
      "duration": 0.0158,
      "velocity": 120,
      "chip": "ym2612"
    },
    {
      "channel": 2,
      "note": 52,
      "start": 88.3459,
      "duration": 0.0183,
      "velocity": 100,
      "chip": "ym2612"
    },
    {
      "channel": 0,
      "note": 42,
      "start": 88.358,
      "duration": 0.0161,
      "velocity": 115,
      "chip": "ym2612"
    },
    {
      "channel": 4,
      "note": 57,
      "start": 88.3591,
      "duration": 0.0161,
      "velocity": 120,
      "chip": "ym2612"
    },
    {
      "channel": 3,
      "note": 64,
      "start": 88.3602,
      "duration": 0.0161,
      "velocity": 120,
      "chip": "ym2612"
    },
    {
      "channel": 2,
      "note": 52,
      "start": 88.3642,
      "duration": 0.016,
      "velocity": 100,
      "chip": "ym2612"
    },
    {
      "channel": 0,
      "note": 42,
      "start": 88.374,
      "duration": 0.0161,
      "velocity": 115,
      "chip": "ym2612"
    },
    {
      "channel": 4,
      "note": 57,
      "start": 88.3752,
      "duration": 0.0161,
      "velocity": 120,
      "chip": "ym2612"
    },
    {
      "channel": 3,
      "note": 64,
      "start": 88.3763,
      "duration": 0.0161,
      "velocity": 120,
      "chip": "ym2612"
    },
    {
      "channel": 2,
      "note": 52,
      "start": 88.3802,
      "duration": 0.0134,
      "velocity": 100,
      "chip": "ym2612"
    },
    {
      "channel": 0,
      "note": 43,
      "start": 88.3901,
      "duration": 0.0161,
      "velocity": 115,
      "chip": "ym2612"
    },
    {
      "channel": 4,
      "note": 57,
      "start": 88.3913,
      "duration": 0.0161,
      "velocity": 120,
      "chip": "ym2612"
    },
    {
      "channel": 3,
      "note": 64,
      "start": 88.3924,
      "duration": 0.0161,
      "velocity": 120,
      "chip": "ym2612"
    },
    {
      "channel": 2,
      "note": 52,
      "start": 88.3936,
      "duration": 0.0161,
      "velocity": 100,
      "chip": "ym2612"
    },
    {
      "channel": 0,
      "note": 43,
      "start": 88.4062,
      "duration": 0.0161,
      "velocity": 115,
      "chip": "ym2612"
    },
    {
      "channel": 4,
      "note": 57,
      "start": 88.4074,
      "duration": 0.0161,
      "velocity": 120,
      "chip": "ym2612"
    },
    {
      "channel": 3,
      "note": 64,
      "start": 88.4085,
      "duration": 0.0161,
      "velocity": 120,
      "chip": "ym2612"
    },
    {
      "channel": 2,
      "note": 52,
      "start": 88.4097,
      "duration": 0.0161,
      "velocity": 100,
      "chip": "ym2612"
    },
    {
      "channel": 0,
      "note": 44,
      "start": 88.4223,
      "duration": 0.0161,
      "velocity": 115,
      "chip": "ym2612"
    },
    {
      "channel": 4,
      "note": 57,
      "start": 88.4235,
      "duration": 0.0161,
      "velocity": 120,
      "chip": "ym2612"
    },
    {
      "channel": 3,
      "note": 64,
      "start": 88.4246,
      "duration": 0.0161,
      "velocity": 120,
      "chip": "ym2612"
    },
    {
      "channel": 2,
      "note": 52,
      "start": 88.4258,
      "duration": 0.0161,
      "velocity": 100,
      "chip": "ym2612"
    },
    {
      "channel": 0,
      "note": 44,
      "start": 88.4384,
      "duration": 0.0161,
      "velocity": 115,
      "chip": "ym2612"
    },
    {
      "channel": 4,
      "note": 57,
      "start": 88.4396,
      "duration": 0.0161,
      "velocity": 120,
      "chip": "ym2612"
    },
    {
      "channel": 3,
      "note": 64,
      "start": 88.4407,
      "duration": 0.0161,
      "velocity": 120,
      "chip": "ym2612"
    },
    {
      "channel": 2,
      "note": 52,
      "start": 88.4419,
      "duration": 0.0161,
      "velocity": 100,
      "chip": "ym2612"
    },
    {
      "channel": 0,
      "note": 44,
      "start": 88.4545,
      "duration": 0.0161,
      "velocity": 115,
      "chip": "ym2612"
    },
    {
      "channel": 4,
      "note": 57,
      "start": 88.4557,
      "duration": 0.0161,
      "velocity": 120,
      "chip": "ym2612"
    },
    {
      "channel": 3,
      "note": 64,
      "start": 88.4568,
      "duration": 0.0161,
      "velocity": 120,
      "chip": "ym2612"
    },
    {
      "channel": 2,
      "note": 52,
      "start": 88.458,
      "duration": 0.0161,
      "velocity": 100,
      "chip": "ym2612"
    },
    {
      "channel": 0,
      "note": 45,
      "start": 88.4706,
      "duration": 0.0161,
      "velocity": 115,
      "chip": "ym2612"
    },
    {
      "channel": 4,
      "note": 57,
      "start": 88.4717,
      "duration": 0.0162,
      "velocity": 120,
      "chip": "ym2612"
    },
    {
      "channel": 3,
      "note": 64,
      "start": 88.4729,
      "duration": 0.0161,
      "velocity": 120,
      "chip": "ym2612"
    },
    {
      "channel": 2,
      "note": 52,
      "start": 88.474,
      "duration": 0.0161,
      "velocity": 100,
      "chip": "ym2612"
    },
    {
      "channel": 0,
      "note": 45,
      "start": 88.4868,
      "duration": 0.0161,
      "velocity": 115,
      "chip": "ym2612"
    },
    {
      "channel": 4,
      "note": 57,
      "start": 88.4879,
      "duration": 0.0161,
      "velocity": 120,
      "chip": "ym2612"
    },
    {
      "channel": 3,
      "note": 64,
      "start": 88.489,
      "duration": 0.0161,
      "velocity": 120,
      "chip": "ym2612"
    },
    {
      "channel": 2,
      "note": 52,
      "start": 88.4901,
      "duration": 0.0161,
      "velocity": 100,
      "chip": "ym2612"
    },
    {
      "channel": 0,
      "note": 46,
      "start": 88.5029,
      "duration": 0.0161,
      "velocity": 115,
      "chip": "ym2612"
    },
    {
      "channel": 4,
      "note": 57,
      "start": 88.504,
      "duration": 0.0161,
      "velocity": 120,
      "chip": "ym2612"
    },
    {
      "channel": 3,
      "note": 64,
      "start": 88.5051,
      "duration": 0.0161,
      "velocity": 120,
      "chip": "ym2612"
    },
    {
      "channel": 2,
      "note": 52,
      "start": 88.5062,
      "duration": 0.0161,
      "velocity": 100,
      "chip": "ym2612"
    },
    {
      "channel": 0,
      "note": 46,
      "start": 88.519,
      "duration": 0.0178,
      "velocity": 124,
      "chip": "ym2612"
    },
    {
      "channel": 4,
      "note": 57,
      "start": 88.5201,
      "duration": 0.0179,
      "velocity": 120,
      "chip": "ym2612"
    },
    {
      "channel": 3,
      "note": 64,
      "start": 88.5212,
      "duration": 0.0179,
      "velocity": 120,
      "chip": "ym2612"
    },
    {
      "channel": 2,
      "note": 52,
      "start": 88.5223,
      "duration": 0.0182,
      "velocity": 100,
      "chip": "ym2612"
    },
    {
      "channel": 0,
      "note": 84,
      "start": 88.5368,
      "duration": 0.0144,
      "velocity": 124,
      "chip": "ym2612"
    },
    {
      "channel": 4,
      "note": 57,
      "start": 88.538,
      "duration": 0.0144,
      "velocity": 120,
      "chip": "ym2612"
    },
    {
      "channel": 3,
      "note": 64,
      "start": 88.5391,
      "duration": 0.0144,
      "velocity": 120,
      "chip": "ym2612"
    },
    {
      "channel": 2,
      "note": 52,
      "start": 88.5406,
      "duration": 0.0141,
      "velocity": 100,
      "chip": "ym2612"
    },
    {
      "channel": 0,
      "note": 82,
      "start": 88.5512,
      "duration": 0.016,
      "velocity": 124,
      "chip": "ym2612"
    },
    {
      "channel": 4,
      "note": 57,
      "start": 88.5524,
      "duration": 0.016,
      "velocity": 120,
      "chip": "ym2612"
    },
    {
      "channel": 3,
      "note": 64,
      "start": 88.5535,
      "duration": 0.016,
      "velocity": 120,
      "chip": "ym2612"
    },
    {
      "channel": 2,
      "note": 52,
      "start": 88.5546,
      "duration": 0.016,
      "velocity": 100,
      "chip": "ym2612"
    },
    {
      "channel": 0,
      "note": 80,
      "start": 88.5672,
      "duration": 0.0161,
      "velocity": 124,
      "chip": "ym2612"
    },
    {
      "channel": 4,
      "note": 57,
      "start": 88.5684,
      "duration": 0.0161,
      "velocity": 120,
      "chip": "ym2612"
    },
    {
      "channel": 3,
      "note": 64,
      "start": 88.5695,
      "duration": 0.0161,
      "velocity": 120,
      "chip": "ym2612"
    },
    {
      "channel": 2,
      "note": 52,
      "start": 88.5707,
      "duration": 0.0161,
      "velocity": 100,
      "chip": "ym2612"
    },
    {
      "channel": 0,
      "note": 77,
      "start": 88.5833,
      "duration": 0.0161,
      "velocity": 124,
      "chip": "ym2612"
    },
    {
      "channel": 4,
      "note": 57,
      "start": 88.5845,
      "duration": 0.0161,
      "velocity": 120,
      "chip": "ym2612"
    },
    {
      "channel": 3,
      "note": 64,
      "start": 88.5856,
      "duration": 0.0161,
      "velocity": 120,
      "chip": "ym2612"
    },
    {
      "channel": 2,
      "note": 52,
      "start": 88.5868,
      "duration": 0.0161,
      "velocity": 100,
      "chip": "ym2612"
    },
    {
      "channel": 0,
      "note": 75,
      "start": 88.5994,
      "duration": 0.0161,
      "velocity": 124,
      "chip": "ym2612"
    },
    {
      "channel": 4,
      "note": 57,
      "start": 88.6006,
      "duration": 0.0161,
      "velocity": 120,
      "chip": "ym2612"
    },
    {
      "channel": 3,
      "note": 64,
      "start": 88.6017,
      "duration": 0.0161,
      "velocity": 120,
      "chip": "ym2612"
    },
    {
      "channel": 2,
      "note": 52,
      "start": 88.6029,
      "duration": 0.0161,
      "velocity": 100,
      "chip": "ym2612"
    },
    {
      "channel": 0,
      "note": 72,
      "start": 88.6155,
      "duration": 0.0166,
      "velocity": 124,
      "chip": "ym2612"
    },
    {
      "channel": 4,
      "note": 57,
      "start": 88.6167,
      "duration": 0.0165,
      "velocity": 120,
      "chip": "ym2612"
    },
    {
      "channel": 3,
      "note": 64,
      "start": 88.6178,
      "duration": 0.0166,
      "velocity": 120,
      "chip": "ym2612"
    },
    {
      "channel": 2,
      "note": 52,
      "start": 88.619,
      "duration": 0.0165,
      "velocity": 100,
      "chip": "ym2612"
    },
    {
      "channel": 0,
      "note": 70,
      "start": 88.6321,
      "duration": 0.0167,
      "velocity": 124,
      "chip": "ym2612"
    },
    {
      "channel": 4,
      "note": 57,
      "start": 88.6332,
      "duration": 0.0167,
      "velocity": 120,
      "chip": "ym2612"
    },
    {
      "channel": 3,
      "note": 64,
      "start": 88.6344,
      "duration": 0.0167,
      "velocity": 120,
      "chip": "ym2612"
    },
    {
      "channel": 2,
      "note": 52,
      "start": 88.6354,
      "duration": 0.0167,
      "velocity": 100,
      "chip": "ym2612"
    },
    {
      "channel": 0,
      "note": 68,
      "start": 88.6487,
      "duration": 0.0163,
      "velocity": 124,
      "chip": "ym2612"
    },
    {
      "channel": 4,
      "note": 57,
      "start": 88.6499,
      "duration": 0.0163,
      "velocity": 120,
      "chip": "ym2612"
    },
    {
      "channel": 3,
      "note": 64,
      "start": 88.651,
      "duration": 0.0163,
      "velocity": 120,
      "chip": "ym2612"
    },
    {
      "channel": 2,
      "note": 52,
      "start": 88.6521,
      "duration": 0.0163,
      "velocity": 100,
      "chip": "ym2612"
    },
    {
      "channel": 0,
      "note": 65,
      "start": 88.665,
      "duration": 0.0149,
      "velocity": 124,
      "chip": "ym2612"
    },
    {
      "channel": 4,
      "note": 57,
      "start": 88.6661,
      "duration": 0.015,
      "velocity": 120,
      "chip": "ym2612"
    },
    {
      "channel": 3,
      "note": 64,
      "start": 88.6673,
      "duration": 0.0149,
      "velocity": 120,
      "chip": "ym2612"
    },
    {
      "channel": 2,
      "note": 52,
      "start": 88.6684,
      "duration": 0.0149,
      "velocity": 100,
      "chip": "ym2612"
    },
    {
      "channel": 0,
      "note": 63,
      "start": 88.68,
      "duration": 0.0179,
      "velocity": 1,
      "chip": "ym2612"
    },
    {
      "channel": 4,
      "note": 57,
      "start": 88.6811,
      "duration": 0.0179,
      "velocity": 120,
      "chip": "ym2612"
    },
    {
      "channel": 3,
      "note": 64,
      "start": 88.6822,
      "duration": 0.0179,
      "velocity": 120,
      "chip": "ym2612"
    },
    {
      "channel": 2,
      "note": 52,
      "start": 88.6833,
      "duration": 0.0179,
      "velocity": 100,
      "chip": "ym2612"
    },
    {
      "channel": 4,
      "note": 57,
      "start": 88.699,
      "duration": 0.0153,
      "velocity": 120,
      "chip": "ym2612"
    },
    {
      "channel": 3,
      "note": 64,
      "start": 88.7002,
      "duration": 0.0153,
      "velocity": 120,
      "chip": "ym2612"
    },
    {
      "channel": 2,
      "note": 52,
      "start": 88.7013,
      "duration": 0.0154,
      "velocity": 100,
      "chip": "ym2612"
    },
    {
      "channel": 4,
      "note": 57,
      "start": 88.7144,
      "duration": 0.0192,
      "velocity": 120,
      "chip": "ym2612"
    },
    {
      "channel": 3,
      "note": 64,
      "start": 88.7155,
      "duration": 0.0192,
      "velocity": 120,
      "chip": "ym2612"
    },
    {
      "channel": 2,
      "note": 52,
      "start": 88.7167,
      "duration": 0.0195,
      "velocity": 100,
      "chip": "ym2612"
    },
    {
      "channel": 0,
      "note": 36,
      "start": 88.7324,
      "duration": 0.0123,
      "velocity": 115,
      "chip": "ym2612"
    },
    {
      "channel": 4,
      "note": 57,
      "start": 88.7336,
      "duration": 0.0123,
      "velocity": 120,
      "chip": "ym2612"
    },
    {
      "channel": 3,
      "note": 64,
      "start": 88.7347,
      "duration": 0.0123,
      "velocity": 120,
      "chip": "ym2612"
    },
    {
      "channel": 2,
      "note": 52,
      "start": 88.7361,
      "duration": 0.0121,
      "velocity": 100,
      "chip": "ym2612"
    },
    {
      "channel": 0,
      "note": 36,
      "start": 88.7447,
      "duration": 0.0157,
      "velocity": 115,
      "chip": "ym2612"
    },
    {
      "channel": 4,
      "note": 57,
      "start": 88.7459,
      "duration": 0.0185,
      "velocity": 120,
      "chip": "ym2612"
    },
    {
      "channel": 3,
      "note": 64,
      "start": 88.747,
      "duration": 0.0185,
      "velocity": 120,
      "chip": "ym2612"
    },
    {
      "channel": 2,
      "note": 52,
      "start": 88.7482,
      "duration": 0.0184,
      "velocity": 100,
      "chip": "ym2612"
    },
    {
      "channel": 0,
      "note": 37,
      "start": 88.7604,
      "duration": 0.0161,
      "velocity": 115,
      "chip": "ym2612"
    },
    {
      "channel": 4,
      "note": 57,
      "start": 88.7644,
      "duration": 0.0161,
      "velocity": 120,
      "chip": "ym2612"
    },
    {
      "channel": 3,
      "note": 64,
      "start": 88.7655,
      "duration": 0.0161,
      "velocity": 120,
      "chip": "ym2612"
    },
    {
      "channel": 2,
      "note": 52,
      "start": 88.7666,
      "duration": 0.0161,
      "velocity": 100,
      "chip": "ym2612"
    },
    {
      "channel": 0,
      "note": 37,
      "start": 88.7765,
      "duration": 0.0161,
      "velocity": 115,
      "chip": "ym2612"
    },
    {
      "channel": 4,
      "note": 57,
      "start": 88.7805,
      "duration": 0.0134,
      "velocity": 120,
      "chip": "ym2612"
    },
    {
      "channel": 3,
      "note": 64,
      "start": 88.7815,
      "duration": 0.0158,
      "velocity": 120,
      "chip": "ym2612"
    },
    {
      "channel": 2,
      "note": 52,
      "start": 88.7827,
      "duration": 0.0158,
      "velocity": 100,
      "chip": "ym2612"
    },
    {
      "channel": 0,
      "note": 38,
      "start": 88.7927,
      "duration": 0.0161,
      "velocity": 115,
      "chip": "ym2612"
    },
    {
      "channel": 4,
      "note": 57,
      "start": 88.7938,
      "duration": 0.0161,
      "velocity": 120,
      "chip": "ym2612"
    },
    {
      "channel": 3,
      "note": 64,
      "start": 88.7973,
      "duration": 0.0141,
      "velocity": 120,
      "chip": "ym2612"
    },
    {
      "channel": 2,
      "note": 52,
      "start": 88.7985,
      "duration": 0.0141,
      "velocity": 100,
      "chip": "ym2612"
    },
    {
      "channel": 0,
      "note": 38,
      "start": 88.8088,
      "duration": 0.0161,
      "velocity": 115,
      "chip": "ym2612"
    },
    {
      "channel": 4,
      "note": 57,
      "start": 88.8099,
      "duration": 0.0161,
      "velocity": 120,
      "chip": "ym2612"
    },
    {
      "channel": 3,
      "note": 64,
      "start": 88.8114,
      "duration": 0.0158,
      "velocity": 120,
      "chip": "ym2612"
    },
    {
      "channel": 2,
      "note": 52,
      "start": 88.8125,
      "duration": 0.0185,
      "velocity": 100,
      "chip": "ym2612"
    },
    {
      "channel": 0,
      "note": 39,
      "start": 88.8249,
      "duration": 0.0161,
      "velocity": 115,
      "chip": "ym2612"
    },
    {
      "channel": 4,
      "note": 57,
      "start": 88.826,
      "duration": 0.0161,
      "velocity": 120,
      "chip": "ym2612"
    },
    {
      "channel": 3,
      "note": 64,
      "start": 88.8272,
      "duration": 0.0161,
      "velocity": 120,
      "chip": "ym2612"
    },
    {
      "channel": 2,
      "note": 52,
      "start": 88.831,
      "duration": 0.0161,
      "velocity": 100,
      "chip": "ym2612"
    },
    {
      "channel": 0,
      "note": 39,
      "start": 88.841,
      "duration": 0.0161,
      "velocity": 115,
      "chip": "ym2612"
    },
    {
      "channel": 4,
      "note": 57,
      "start": 88.8421,
      "duration": 0.0161,
      "velocity": 120,
      "chip": "ym2612"
    },
    {
      "channel": 3,
      "note": 64,
      "start": 88.8433,
      "duration": 0.0161,
      "velocity": 120,
      "chip": "ym2612"
    },
    {
      "channel": 2,
      "note": 52,
      "start": 88.8471,
      "duration": 0.0134,
      "velocity": 100,
      "chip": "ym2612"
    },
    {
      "channel": 0,
      "note": 40,
      "start": 88.8571,
      "duration": 0.0161,
      "velocity": 115,
      "chip": "ym2612"
    },
    {
      "channel": 4,
      "note": 57,
      "start": 88.8582,
      "duration": 0.0161,
      "velocity": 120,
      "chip": "ym2612"
    },
    {
      "channel": 3,
      "note": 64,
      "start": 88.8593,
      "duration": 0.0161,
      "velocity": 120,
      "chip": "ym2612"
    },
    {
      "channel": 2,
      "note": 52,
      "start": 88.8605,
      "duration": 0.0161,
      "velocity": 100,
      "chip": "ym2612"
    },
    {
      "channel": 0,
      "note": 40,
      "start": 88.8732,
      "duration": 0.0161,
      "velocity": 115,
      "chip": "ym2612"
    },
    {
      "channel": 4,
      "note": 57,
      "start": 88.8743,
      "duration": 0.0161,
      "velocity": 120,
      "chip": "ym2612"
    },
    {
      "channel": 3,
      "note": 64,
      "start": 88.8754,
      "duration": 0.0161,
      "velocity": 120,
      "chip": "ym2612"
    },
    {
      "channel": 2,
      "note": 52,
      "start": 88.8766,
      "duration": 0.0161,
      "velocity": 100,
      "chip": "ym2612"
    },
    {
      "channel": 0,
      "note": 40,
      "start": 88.8893,
      "duration": 0.0161,
      "velocity": 115,
      "chip": "ym2612"
    },
    {
      "channel": 4,
      "note": 57,
      "start": 88.8904,
      "duration": 0.0161,
      "velocity": 120,
      "chip": "ym2612"
    },
    {
      "channel": 3,
      "note": 64,
      "start": 88.8915,
      "duration": 0.0161,
      "velocity": 120,
      "chip": "ym2612"
    },
    {
      "channel": 2,
      "note": 52,
      "start": 88.8927,
      "duration": 0.0161,
      "velocity": 100,
      "chip": "ym2612"
    },
    {
      "channel": 0,
      "note": 41,
      "start": 88.9054,
      "duration": 0.0179,
      "velocity": 115,
      "chip": "ym2612"
    },
    {
      "channel": 4,
      "note": 57,
      "start": 88.9065,
      "duration": 0.0179,
      "velocity": 120,
      "chip": "ym2612"
    },
    {
      "channel": 3,
      "note": 64,
      "start": 88.9076,
      "duration": 0.0179,
      "velocity": 120,
      "chip": "ym2612"
    },
    {
      "channel": 2,
      "note": 52,
      "start": 88.9088,
      "duration": 0.0182,
      "velocity": 100,
      "chip": "ym2612"
    },
    {
      "channel": 0,
      "note": 36,
      "start": 88.9233,
      "duration": 0.0144,
      "velocity": 115,
      "chip": "ym2612"
    },
    {
      "channel": 4,
      "note": 57,
      "start": 88.9244,
      "duration": 0.0144,
      "velocity": 120,
      "chip": "ym2612"
    },
    {
      "channel": 3,
      "note": 64,
      "start": 88.9256,
      "duration": 0.0144,
      "velocity": 120,
      "chip": "ym2612"
    },
    {
      "channel": 2,
      "note": 52,
      "start": 88.927,
      "duration": 0.0141,
      "velocity": 100,
      "chip": "ym2612"
    },
    {
      "channel": 0,
      "note": 36,
      "start": 88.9377,
      "duration": 0.016,
      "velocity": 115,
      "chip": "ym2612"
    },
    {
      "channel": 4,
      "note": 57,
      "start": 88.9388,
      "duration": 0.016,
      "velocity": 120,
      "chip": "ym2612"
    },
    {
      "channel": 3,
      "note": 64,
      "start": 88.94,
      "duration": 0.016,
      "velocity": 120,
      "chip": "ym2612"
    },
    {
      "channel": 2,
      "note": 52,
      "start": 88.9411,
      "duration": 0.016,
      "velocity": 100,
      "chip": "ym2612"
    },
    {
      "channel": 0,
      "note": 37,
      "start": 88.9537,
      "duration": 0.0161,
      "velocity": 115,
      "chip": "ym2612"
    },
    {
      "channel": 4,
      "note": 57,
      "start": 88.9548,
      "duration": 0.0161,
      "velocity": 120,
      "chip": "ym2612"
    },
    {
      "channel": 3,
      "note": 64,
      "start": 88.956,
      "duration": 0.0161,
      "velocity": 120,
      "chip": "ym2612"
    },
    {
      "channel": 2,
      "note": 52,
      "start": 88.9571,
      "duration": 0.0161,
      "velocity": 100,
      "chip": "ym2612"
    },
    {
      "channel": 0,
      "note": 37,
      "start": 88.9698,
      "duration": 0.0161,
      "velocity": 115,
      "chip": "ym2612"
    },
    {
      "channel": 4,
      "note": 57,
      "start": 88.9709,
      "duration": 0.0161,
      "velocity": 120,
      "chip": "ym2612"
    },
    {
      "channel": 3,
      "note": 64,
      "start": 88.9721,
      "duration": 0.0161,
      "velocity": 120,
      "chip": "ym2612"
    },
    {
      "channel": 2,
      "note": 52,
      "start": 88.9732,
      "duration": 0.0162,
      "velocity": 100,
      "chip": "ym2612"
    },
    {
      "channel": 0,
      "note": 38,
      "start": 88.9859,
      "duration": 0.0161,
      "velocity": 115,
      "chip": "ym2612"
    },
    {
      "channel": 4,
      "note": 57,
      "start": 88.987,
      "duration": 0.0161,
      "velocity": 120,
      "chip": "ym2612"
    },
    {
      "channel": 3,
      "note": 64,
      "start": 88.9882,
      "duration": 0.0161,
      "velocity": 120,
      "chip": "ym2612"
    },
    {
      "channel": 2,
      "note": 52,
      "start": 88.9893,
      "duration": 0.0161,
      "velocity": 100,
      "chip": "ym2612"
    },
    {
      "channel": 0,
      "note": 38,
      "start": 89.002,
      "duration": 0.0161,
      "velocity": 115,
      "chip": "ym2612"
    },
    {
      "channel": 4,
      "note": 57,
      "start": 89.0031,
      "duration": 0.0161,
      "velocity": 120,
      "chip": "ym2612"
    },
    {
      "channel": 3,
      "note": 64,
      "start": 89.0043,
      "duration": 0.0161,
      "velocity": 120,
      "chip": "ym2612"
    },
    {
      "channel": 2,
      "note": 52,
      "start": 89.0054,
      "duration": 0.0161,
      "velocity": 100,
      "chip": "ym2612"
    },
    {
      "channel": 0,
      "note": 39,
      "start": 89.0181,
      "duration": 0.0161,
      "velocity": 115,
      "chip": "ym2612"
    },
    {
      "channel": 4,
      "note": 57,
      "start": 89.0192,
      "duration": 0.0161,
      "velocity": 120,
      "chip": "ym2612"
    },
    {
      "channel": 3,
      "note": 64,
      "start": 89.0204,
      "duration": 0.0161,
      "velocity": 120,
      "chip": "ym2612"
    },
    {
      "channel": 2,
      "note": 52,
      "start": 89.0215,
      "duration": 0.0161,
      "velocity": 100,
      "chip": "ym2612"
    },
    {
      "channel": 0,
      "note": 39,
      "start": 89.0341,
      "duration": 0.0161,
      "velocity": 115,
      "chip": "ym2612"
    },
    {
      "channel": 4,
      "note": 57,
      "start": 89.0353,
      "duration": 0.0161,
      "velocity": 120,
      "chip": "ym2612"
    },
    {
      "channel": 3,
      "note": 64,
      "start": 89.0364,
      "duration": 0.0161,
      "velocity": 120,
      "chip": "ym2612"
    },
    {
      "channel": 2,
      "note": 52,
      "start": 89.0376,
      "duration": 0.0161,
      "velocity": 100,
      "chip": "ym2612"
    },
    {
      "channel": 0,
      "note": 40,
      "start": 89.0502,
      "duration": 0.0161,
      "velocity": 115,
      "chip": "ym2612"
    },
    {
      "channel": 4,
      "note": 57,
      "start": 89.0514,
      "duration": 0.0161,
      "velocity": 120,
      "chip": "ym2612"
    },
    {
      "channel": 3,
      "note": 64,
      "start": 89.0525,
      "duration": 0.0161,
      "velocity": 120,
      "chip": "ym2612"
    },
    {
      "channel": 2,
      "note": 52,
      "start": 89.0537,
      "duration": 0.0161,
      "velocity": 100,
      "chip": "ym2612"
    },
    {
      "channel": 0,
      "note": 40,
      "start": 89.0663,
      "duration": 0.0161,
      "velocity": 115,
      "chip": "ym2612"
    },
    {
      "channel": 4,
      "note": 57,
      "start": 89.0676,
      "duration": 0.0161,
      "velocity": 120,
      "chip": "ym2612"
    },
    {
      "channel": 3,
      "note": 64,
      "start": 89.0686,
      "duration": 0.0161,
      "velocity": 120,
      "chip": "ym2612"
    },
    {
      "channel": 2,
      "note": 52,
      "start": 89.0698,
      "duration": 0.0161,
      "velocity": 100,
      "chip": "ym2612"
    },
    {
      "channel": 0,
      "note": 40,
      "start": 89.0825,
      "duration": 0.0162,
      "velocity": 115,
      "chip": "ym2612"
    },
    {
      "channel": 4,
      "note": 57,
      "start": 89.0837,
      "duration": 0.0162,
      "velocity": 120,
      "chip": "ym2612"
    },
    {
      "channel": 3,
      "note": 64,
      "start": 89.0848,
      "duration": 0.0162,
      "velocity": 120,
      "chip": "ym2612"
    },
    {
      "channel": 2,
      "note": 52,
      "start": 89.0859,
      "duration": 0.0162,
      "velocity": 100,
      "chip": "ym2612"
    },
    {
      "channel": 0,
      "note": 41,
      "start": 89.0987,
      "duration": 0.0184,
      "velocity": 115,
      "chip": "ym2612"
    },
    {
      "channel": 4,
      "note": 57,
      "start": 89.0999,
      "duration": 0.0185,
      "velocity": 120,
      "chip": "ym2612"
    },
    {
      "channel": 3,
      "note": 64,
      "start": 89.101,
      "duration": 0.0184,
      "velocity": 120,
      "chip": "ym2612"
    },
    {
      "channel": 2,
      "note": 52,
      "start": 89.1021,
      "duration": 0.0188,
      "velocity": 100,
      "chip": "ym2612"
    },
    {
      "channel": 0,
      "note": 36,
      "start": 89.1172,
      "duration": 0.0146,
      "velocity": 115,
      "chip": "ym2612"
    },
    {
      "channel": 4,
      "note": 57,
      "start": 89.1183,
      "duration": 0.0146,
      "velocity": 120,
      "chip": "ym2612"
    },
    {
      "channel": 3,
      "note": 64,
      "start": 89.1195,
      "duration": 0.0146,
      "velocity": 120,
      "chip": "ym2612"
    },
    {
      "channel": 2,
      "note": 52,
      "start": 89.1209,
      "duration": 0.0142,
      "velocity": 100,
      "chip": "ym2612"
    },
    {
      "channel": 0,
      "note": 36,
      "start": 89.1317,
      "duration": 0.0151,
      "velocity": 115,
      "chip": "ym2612"
    },
    {
      "channel": 4,
      "note": 57,
      "start": 89.1329,
      "duration": 0.0151,
      "velocity": 120,
      "chip": "ym2612"
    },
    {
      "channel": 3,
      "note": 64,
      "start": 89.134,
      "duration": 0.0151,
      "velocity": 120,
      "chip": "ym2612"
    },
    {
      "channel": 2,
      "note": 52,
      "start": 89.1352,
      "duration": 0.0151,
      "velocity": 100,
      "chip": "ym2612"
    },
    {
      "channel": 0,
      "note": 37,
      "start": 89.1469,
      "duration": 0.0185,
      "velocity": 115,
      "chip": "ym2612"
    },
    {
      "channel": 4,
      "note": 57,
      "start": 89.148,
      "duration": 0.0185,
      "velocity": 120,
      "chip": "ym2612"
    },
    {
      "channel": 3,
      "note": 64,
      "start": 89.1492,
      "duration": 0.0185,
      "velocity": 120,
      "chip": "ym2612"
    },
    {
      "channel": 2,
      "note": 52,
      "start": 89.1503,
      "duration": 0.0185,
      "velocity": 100,
      "chip": "ym2612"
    },
    {
      "channel": 0,
      "note": 37,
      "start": 89.1654,
      "duration": 0.0164,
      "velocity": 115,
      "chip": "ym2612"
    },
    {
      "channel": 4,
      "note": 57,
      "start": 89.1665,
      "duration": 0.0164,
      "velocity": 120,
      "chip": "ym2612"
    },
    {
      "channel": 3,
      "note": 64,
      "start": 89.1677,
      "duration": 0.0164,
      "velocity": 120,
      "chip": "ym2612"
    },
    {
      "channel": 2,
      "note": 52,
      "start": 89.1688,
      "duration": 0.0165,
      "velocity": 100,
      "chip": "ym2612"
    },
    {
      "channel": 0,
      "note": 38,
      "start": 89.1818,
      "duration": 0.0158,
      "velocity": 115,
      "chip": "ym2612"
    },
    {
      "channel": 4,
      "note": 57,
      "start": 89.1829,
      "duration": 0.0158,
      "velocity": 120,
      "chip": "ym2612"
    },
    {
      "channel": 3,
      "note": 64,
      "start": 89.1841,
      "duration": 0.0158,
      "velocity": 120,
      "chip": "ym2612"
    },
    {
      "channel": 2,
      "note": 52,
      "start": 89.1852,
      "duration": 0.0157,
      "velocity": 100,
      "chip": "ym2612"
    },
    {
      "channel": 0,
      "note": 38,
      "start": 89.1976,
      "duration": 0.014,
      "velocity": 115,
      "chip": "ym2612"
    },
    {
      "channel": 4,
      "note": 57,
      "start": 89.1987,
      "duration": 0.0141,
      "velocity": 120,
      "chip": "ym2612"
    },
    {
      "channel": 3,
      "note": 64,
      "start": 89.1999,
      "duration": 0.014,
      "velocity": 120,
      "chip": "ym2612"
    },
    {
      "channel": 2,
      "note": 52,
      "start": 89.201,
      "duration": 0.0141,
      "velocity": 100,
      "chip": "ym2612"
    },
    {
      "channel": 0,
      "note": 39,
      "start": 89.2116,
      "duration": 0.0186,
      "velocity": 115,
      "chip": "ym2612"
    },
    {
      "channel": 4,
      "note": 57,
      "start": 89.2128,
      "duration": 0.0185,
      "velocity": 120,
      "chip": "ym2612"
    },
    {
      "channel": 3,
      "note": 64,
      "start": 89.2139,
      "duration": 0.0186,
      "velocity": 120,
      "chip": "ym2612"
    },
    {
      "channel": 2,
      "note": 52,
      "start": 89.215,
      "duration": 0.0185,
      "velocity": 100,
      "chip": "ym2612"
    },
    {
      "channel": 0,
      "note": 39,
      "start": 89.2302,
      "duration": 0.0134,
      "velocity": 115,
      "chip": "ym2612"
    },
    {
      "channel": 4,
      "note": 57,
      "start": 89.2313,
      "duration": 0.0161,
      "velocity": 120,
      "chip": "ym2612"
    },
    {
      "channel": 3,
      "note": 64,
      "start": 89.2324,
      "duration": 0.0161,
      "velocity": 120,
      "chip": "ym2612"
    },
    {
      "channel": 2,
      "note": 52,
      "start": 89.2335,
      "duration": 0.0162,
      "velocity": 100,
      "chip": "ym2612"
    },
    {
      "channel": 0,
      "note": 40,
      "start": 89.2435,
      "duration": 0.0161,
      "velocity": 115,
      "chip": "ym2612"
    },
    {
      "channel": 4,
      "note": 57,
      "start": 89.2474,
      "duration": 0.0157,
      "velocity": 120,
      "chip": "ym2612"
    },
    {
      "channel": 3,
      "note": 64,
      "start": 89.2485,
      "duration": 0.0157,
      "velocity": 120,
      "chip": "ym2612"
    },
    {
      "channel": 2,
      "note": 52,
      "start": 89.2497,
      "duration": 0.0157,
      "velocity": 100,
      "chip": "ym2612"
    },
    {
      "channel": 0,
      "note": 40,
      "start": 89.2596,
      "duration": 0.0161,
      "velocity": 115,
      "chip": "ym2612"
    },
    {
      "channel": 4,
      "note": 57,
      "start": 89.2631,
      "duration": 0.0137,
      "velocity": 120,
      "chip": "ym2612"
    },
    {
      "channel": 3,
      "note": 64,
      "start": 89.2642,
      "duration": 0.0141,
      "velocity": 120,
      "chip": "ym2612"
    },
    {
      "channel": 2,
      "note": 52,
      "start": 89.2654,
      "duration": 0.0141,
      "velocity": 100,
      "chip": "ym2612"
    },
    {
      "channel": 0,
      "note": 40,
      "start": 89.2757,
      "duration": 0.0161,
      "velocity": 115,
      "chip": "ym2612"
    },
    {
      "channel": 4,
      "note": 57,
      "start": 89.2768,
      "duration": 0.0161,
      "velocity": 120,
      "chip": "ym2612"
    },
    {
      "channel": 3,
      "note": 64,
      "start": 89.2783,
      "duration": 0.0185,
      "velocity": 120,
      "chip": "ym2612"
    },
    {
      "channel": 2,
      "note": 52,
      "start": 89.2795,
      "duration": 0.0185,
      "velocity": 100,
      "chip": "ym2612"
    },
    {
      "channel": 0,
      "note": 41,
      "start": 89.2918,
      "duration": 0.0179,
      "velocity": 124,
      "chip": "ym2612"
    },
    {
      "channel": 4,
      "note": 57,
      "start": 89.2929,
      "duration": 0.0207,
      "velocity": 120,
      "chip": "ym2612"
    },
    {
      "channel": 3,
      "note": 64,
      "start": 89.2968,
      "duration": 0.0179,
      "velocity": 120,
      "chip": "ym2612"
    },
    {
      "channel": 2,
      "note": 52,
      "start": 89.298,
      "duration": 0.0182,
      "velocity": 100,
      "chip": "ym2612"
    },
    {
      "channel": 0,
      "note": 84,
      "start": 89.3097,
      "duration": 0.0144,
      "velocity": 124,
      "chip": "ym2612"
    },
    {
      "channel": 4,
      "note": 57,
      "start": 89.3136,
      "duration": 0.0116,
      "velocity": 120,
      "chip": "ym2612"
    },
    {
      "channel": 3,
      "note": 64,
      "start": 89.3147,
      "duration": 0.0116,
      "velocity": 120,
      "chip": "ym2612"
    },
    {
      "channel": 2,
      "note": 52,
      "start": 89.3161,
      "duration": 0.0137,
      "velocity": 100,
      "chip": "ym2612"
    },
    {
      "channel": 0,
      "note": 82,
      "start": 89.324,
      "duration": 0.016,
      "velocity": 124,
      "chip": "ym2612"
    },
    {
      "channel": 4,
      "note": 57,
      "start": 89.3252,
      "duration": 0.016,
      "velocity": 120,
      "chip": "ym2612"
    },
    {
      "channel": 3,
      "note": 64,
      "start": 89.3263,
      "duration": 0.016,
      "velocity": 120,
      "chip": "ym2612"
    },
    {
      "channel": 2,
      "note": 52,
      "start": 89.3299,
      "duration": 0.0136,
      "velocity": 100,
      "chip": "ym2612"
    },
    {
      "channel": 0,
      "note": 80,
      "start": 89.3401,
      "duration": 0.0161,
      "velocity": 124,
      "chip": "ym2612"
    },
    {
      "channel": 4,
      "note": 57,
      "start": 89.3412,
      "duration": 0.0161,
      "velocity": 120,
      "chip": "ym2612"
    },
    {
      "channel": 3,
      "note": 64,
      "start": 89.3424,
      "duration": 0.0161,
      "velocity": 120,
      "chip": "ym2612"
    },
    {
      "channel": 2,
      "note": 52,
      "start": 89.3435,
      "duration": 0.0161,
      "velocity": 100,
      "chip": "ym2612"
    },
    {
      "channel": 0,
      "note": 77,
      "start": 89.3562,
      "duration": 0.0162,
      "velocity": 124,
      "chip": "ym2612"
    },
    {
      "channel": 4,
      "note": 57,
      "start": 89.3574,
      "duration": 0.0161,
      "velocity": 120,
      "chip": "ym2612"
    },
    {
      "channel": 3,
      "note": 64,
      "start": 89.3585,
      "duration": 0.0162,
      "velocity": 120,
      "chip": "ym2612"
    },
    {
      "channel": 2,
      "note": 52,
      "start": 89.3596,
      "duration": 0.0161,
      "velocity": 100,
      "chip": "ym2612"
    },
    {
      "channel": 0,
      "note": 75,
      "start": 89.3723,
      "duration": 0.0161,
      "velocity": 124,
      "chip": "ym2612"
    },
    {
      "channel": 4,
      "note": 57,
      "start": 89.3735,
      "duration": 0.0161,
      "velocity": 120,
      "chip": "ym2612"
    },
    {
      "channel": 3,
      "note": 64,
      "start": 89.3746,
      "duration": 0.0161,
      "velocity": 120,
      "chip": "ym2612"
    },
    {
      "channel": 2,
      "note": 52,
      "start": 89.3757,
      "duration": 0.0161,
      "velocity": 100,
      "chip": "ym2612"
    },
    {
      "channel": 0,
      "note": 72,
      "start": 89.3884,
      "duration": 0.0161,
      "velocity": 124,
      "chip": "ym2612"
    },
    {
      "channel": 4,
      "note": 57,
      "start": 89.3896,
      "duration": 0.0161,
      "velocity": 120,
      "chip": "ym2612"
    },
    {
      "channel": 3,
      "note": 64,
      "start": 89.3907,
      "duration": 0.0161,
      "velocity": 120,
      "chip": "ym2612"
    },
    {
      "channel": 2,
      "note": 52,
      "start": 89.3918,
      "duration": 0.0161,
      "velocity": 100,
      "chip": "ym2612"
    },
    {
      "channel": 0,
      "note": 70,
      "start": 89.4045,
      "duration": 0.0161,
      "velocity": 124,
      "chip": "ym2612"
    },
    {
      "channel": 4,
      "note": 57,
      "start": 89.4057,
      "duration": 0.0161,
      "velocity": 120,
      "chip": "ym2612"
    },
    {
      "channel": 3,
      "note": 64,
      "start": 89.4068,
      "duration": 0.0161,
      "velocity": 120,
      "chip": "ym2612"
    },
    {
      "channel": 2,
      "note": 52,
      "start": 89.4079,
      "duration": 0.0161,
      "velocity": 100,
      "chip": "ym2612"
    },
    {
      "channel": 0,
      "note": 68,
      "start": 89.4206,
      "duration": 0.0161,
      "velocity": 124,
      "chip": "ym2612"
    },
    {
      "channel": 4,
      "note": 57,
      "start": 89.4217,
      "duration": 0.0161,
      "velocity": 120,
      "chip": "ym2612"
    },
    {
      "channel": 3,
      "note": 64,
      "start": 89.4229,
      "duration": 0.0161,
      "velocity": 120,
      "chip": "ym2612"
    },
    {
      "channel": 2,
      "note": 52,
      "start": 89.424,
      "duration": 0.0161,
      "velocity": 100,
      "chip": "ym2612"
    },
    {
      "channel": 0,
      "note": 65,
      "start": 89.4367,
      "duration": 0.0161,
      "velocity": 124,
      "chip": "ym2612"
    },
    {
      "channel": 4,
      "note": 57,
      "start": 89.4378,
      "duration": 0.0161,
      "velocity": 120,
      "chip": "ym2612"
    },
    {
      "channel": 3,
      "note": 64,
      "start": 89.439,
      "duration": 0.0161,
      "velocity": 120,
      "chip": "ym2612"
    },
    {
      "channel": 2,
      "note": 52,
      "start": 89.4401,
      "duration": 0.0162,
      "velocity": 100,
      "chip": "ym2612"
    },
    {
      "channel": 0,
      "note": 63,
      "start": 89.4528,
      "duration": 0.0153,
      "velocity": 1,
      "chip": "ym2612"
    },
    {
      "channel": 4,
      "note": 57,
      "start": 89.4539,
      "duration": 0.0153,
      "velocity": 120,
      "chip": "ym2612"
    },
    {
      "channel": 3,
      "note": 64,
      "start": 89.4551,
      "duration": 0.0153,
      "velocity": 120,
      "chip": "ym2612"
    },
    {
      "channel": 2,
      "note": 52,
      "start": 89.4562,
      "duration": 0.0153,
      "velocity": 100,
      "chip": "ym2612"
    },
    {
      "channel": 4,
      "note": 57,
      "start": 89.4693,
      "duration": 0.0153,
      "velocity": 120,
      "chip": "ym2612"
    },
    {
      "channel": 3,
      "note": 64,
      "start": 89.4704,
      "duration": 0.0153,
      "velocity": 120,
      "chip": "ym2612"
    },
    {
      "channel": 2,
      "note": 52,
      "start": 89.4715,
      "duration": 0.0153,
      "velocity": 100,
      "chip": "ym2612"
    },
    {
      "channel": 4,
      "note": 57,
      "start": 89.4845,
      "duration": 0.0161,
      "velocity": 120,
      "chip": "ym2612"
    },
    {
      "channel": 3,
      "note": 64,
      "start": 89.4856,
      "duration": 0.0161,
      "velocity": 120,
      "chip": "ym2612"
    },
    {
      "channel": 2,
      "note": 52,
      "start": 89.4868,
      "duration": 0.0164,
      "velocity": 100,
      "chip": "ym2612"
    },
    {
      "channel": 4,
      "note": 57,
      "start": 89.5006,
      "duration": 0.0161,
      "velocity": 120,
      "chip": "ym2612"
    },
    {
      "channel": 3,
      "note": 64,
      "start": 89.5017,
      "duration": 0.0161,
      "velocity": 120,
      "chip": "ym2612"
    },
    {
      "channel": 2,
      "note": 52,
      "start": 89.5032,
      "duration": 0.0159,
      "velocity": 100,
      "chip": "ym2612"
    },
    {
      "channel": 4,
      "note": 57,
      "start": 89.5167,
      "duration": 0.0161,
      "velocity": 120,
      "chip": "ym2612"
    },
    {
      "channel": 3,
      "note": 64,
      "start": 89.5179,
      "duration": 0.0161,
      "velocity": 120,
      "chip": "ym2612"
    },
    {
      "channel": 2,
      "note": 52,
      "start": 89.519,
      "duration": 0.016,
      "velocity": 100,
      "chip": "ym2612"
    },
    {
      "channel": 4,
      "note": 57,
      "start": 89.5328,
      "duration": 0.0161,
      "velocity": 120,
      "chip": "ym2612"
    },
    {
      "channel": 3,
      "note": 64,
      "start": 89.534,
      "duration": 0.0161,
      "velocity": 120,
      "chip": "ym2612"
    },
    {
      "channel": 2,
      "note": 52,
      "start": 89.5351,
      "duration": 0.0161,
      "velocity": 100,
      "chip": "ym2612"
    },
    {
      "channel": 4,
      "note": 57,
      "start": 89.5489,
      "duration": 0.0161,
      "velocity": 120,
      "chip": "ym2612"
    },
    {
      "channel": 3,
      "note": 64,
      "start": 89.5501,
      "duration": 0.0161,
      "velocity": 120,
      "chip": "ym2612"
    },
    {
      "channel": 2,
      "note": 52,
      "start": 89.5511,
      "duration": 0.0161,
      "velocity": 100,
      "chip": "ym2612"
    },
    {
      "channel": 4,
      "note": 57,
      "start": 89.565,
      "duration": 0.0165,
      "velocity": 120,
      "chip": "ym2612"
    },
    {
      "channel": 3,
      "note": 64,
      "start": 89.5661,
      "duration": 0.0166,
      "velocity": 120,
      "chip": "ym2612"
    },
    {
      "channel": 2,
      "note": 52,
      "start": 89.5672,
      "duration": 0.0166,
      "velocity": 100,
      "chip": "ym2612"
    },
    {
      "channel": 4,
      "note": 57,
      "start": 89.5815,
      "duration": 0.0163,
      "velocity": 120,
      "chip": "ym2612"
    },
    {
      "channel": 3,
      "note": 64,
      "start": 89.5827,
      "duration": 0.0163,
      "velocity": 120,
      "chip": "ym2612"
    },
    {
      "channel": 2,
      "note": 52,
      "start": 89.5838,
      "duration": 0.0163,
      "velocity": 100,
      "chip": "ym2612"
    },
    {
      "channel": 4,
      "note": 57,
      "start": 89.5978,
      "duration": 0.0154,
      "velocity": 120,
      "chip": "ym2612"
    },
    {
      "channel": 3,
      "note": 64,
      "start": 89.599,
      "duration": 0.0155,
      "velocity": 120,
      "chip": "ym2612"
    },
    {
      "channel": 2,
      "note": 52,
      "start": 89.6001,
      "duration": 0.0154,
      "velocity": 100,
      "chip": "ym2612"
    },
    {
      "channel": 4,
      "note": 57,
      "start": 89.6133,
      "duration": 0.0183,
      "velocity": 120,
      "chip": "ym2612"
    },
    {
      "channel": 3,
      "note": 64,
      "start": 89.6144,
      "duration": 0.0183,
      "velocity": 120,
      "chip": "ym2612"
    },
    {
      "channel": 2,
      "note": 52,
      "start": 89.6156,
      "duration": 0.0182,
      "velocity": 100,
      "chip": "ym2612"
    },
    {
      "channel": 4,
      "note": 57,
      "start": 89.6315,
      "duration": 0.0167,
      "velocity": 120,
      "chip": "ym2612"
    },
    {
      "channel": 3,
      "note": 64,
      "start": 89.6327,
      "duration": 0.0167,
      "velocity": 120,
      "chip": "ym2612"
    },
    {
      "channel": 2,
      "note": 52,
      "start": 89.6338,
      "duration": 0.0167,
      "velocity": 100,
      "chip": "ym2612"
    },
    {
      "channel": 4,
      "note": 57,
      "start": 89.6482,
      "duration": 0.0158,
      "velocity": 120,
      "chip": "ym2612"
    },
    {
      "channel": 3,
      "note": 64,
      "start": 89.6494,
      "duration": 0.0158,
      "velocity": 120,
      "chip": "ym2612"
    },
    {
      "channel": 2,
      "note": 52,
      "start": 89.6505,
      "duration": 0.0158,
      "velocity": 100,
      "chip": "ym2612"
    },
    {
      "channel": 4,
      "note": 57,
      "start": 89.664,
      "duration": 0.0141,
      "velocity": 120,
      "chip": "ym2612"
    },
    {
      "channel": 3,
      "note": 64,
      "start": 89.6651,
      "duration": 0.0141,
      "velocity": 120,
      "chip": "ym2612"
    },
    {
      "channel": 2,
      "note": 52,
      "start": 89.6663,
      "duration": 0.014,
      "velocity": 100,
      "chip": "ym2612"
    },
    {
      "channel": 4,
      "note": 57,
      "start": 89.678,
      "duration": 0.019,
      "velocity": 120,
      "chip": "ym2612"
    },
    {
      "channel": 3,
      "note": 64,
      "start": 89.6792,
      "duration": 0.0178,
      "velocity": 120,
      "chip": "ym2612"
    },
    {
      "channel": 2,
      "note": 52,
      "start": 89.6803,
      "duration": 0.0167,
      "velocity": 100,
      "chip": "ym2612"
    }
  ]
}