{
  "track_name": "20 - Retry Screen",
  "duration_sec": 35.344,
  "sample_rate": 44100,
  "note_count": 1082,
  "unique_pitches": 36,
  "pitch_range": 48,
  "avg_note_duration": 0.1905,
  "reconstruction_stats": {
    "notes_reconstructed": 1082,
    "keyon_events": 1082,
    "keyoff_events": 1076,
    "orphan_keyons": 6,
    "unique_pitches": 36,
    "pitch_range": 48,
    "avg_duration_sec": 0.1905
  },
  "metadata": {
    "source": "S\\Splatterhouse 3\\20 - Retry Screen.vgz"
  },
  "notes": [
    {
      "channel": 1,
      "note": 65,
      "start": 0.0068,
      "duration": 0.0412,
      "velocity": 87,
      "chip": "ym2612"
    },
    {
      "channel": 5,
      "note": 68,
      "start": 0.0205,
      "duration": 0.1486,
      "velocity": 86,
      "chip": "ym2612"
    },
    {
      "channel": 1,
      "note": 59,
      "start": 0.048,
      "duration": 0.0667,
      "velocity": 87,
      "chip": "ym2612"
    },
    {
      "channel": 1,
      "note": 60,
      "start": 0.1149,
      "duration": 0.0501,
      "velocity": 87,
      "chip": "ym2612"
    },
    {
      "channel": 1,
      "note": 61,
      "start": 0.1652,
      "duration": 0.0666,
      "velocity": 87,
      "chip": "ym2612"
    },
    {
      "channel": 5,
      "note": 68,
      "start": 0.1691,
      "duration": 0.1834,
      "velocity": 127,
      "chip": "ym2612"
    },
    {
      "channel": 1,
      "note": 60,
      "start": 0.2319,
      "duration": 0.0495,
      "velocity": 87,
      "chip": "ym2612"
    },
    {
      "channel": 1,
      "note": 59,
      "start": 0.2815,
      "duration": 0.067,
      "velocity": 87,
      "chip": "ym2612"
    },
    {
      "channel": 1,
      "note": 65,
      "start": 0.3486,
      "duration": 0.0494,
      "velocity": 87,
      "chip": "ym2612"
    },
    {
      "channel": 5,
      "note": 80,
      "start": 0.3526,
      "duration": 0.3499,
      "velocity": 86,
      "chip": "ym2612"
    },
    {
      "channel": 1,
      "note": 59,
      "start": 0.3981,
      "duration": 0.0667,
      "velocity": 87,
      "chip": "ym2612"
    },
    {
      "channel": 1,
      "note": 60,
      "start": 0.4649,
      "duration": 0.0499,
      "velocity": 87,
      "chip": "ym2612"
    },
    {
      "channel": 1,
      "note": 61,
      "start": 0.5148,
      "duration": 0.0666,
      "velocity": 87,
      "chip": "ym2612"
    },
    {
      "channel": 1,
      "note": 60,
      "start": 0.5815,
      "duration": 0.0499,
      "velocity": 87,
      "chip": "ym2612"
    },
    {
      "channel": 1,
      "note": 59,
      "start": 0.6315,
      "duration": 0.067,
      "velocity": 87,
      "chip": "ym2612"
    },
    {
      "channel": 1,
      "note": 65,
      "start": 0.6986,
      "duration": 0.0494,
      "velocity": 87,
      "chip": "ym2612"
    },
    {
      "channel": 5,
      "note": 68,
      "start": 0.7026,
      "duration": 0.1666,
      "velocity": 86,
      "chip": "ym2612"
    },
    {
      "channel": 1,
      "note": 59,
      "start": 0.7481,
      "duration": 0.0666,
      "velocity": 87,
      "chip": "ym2612"
    },
    {
      "channel": 1,
      "note": 60,
      "start": 0.8149,
      "duration": 0.0502,
      "velocity": 87,
      "chip": "ym2612"
    },
    {
      "channel": 1,
      "note": 61,
      "start": 0.8652,
      "duration": 0.0662,
      "velocity": 87,
      "chip": "ym2612"
    },
    {
      "channel": 5,
      "note": 68,
      "start": 0.8692,
      "duration": 0.1833,
      "velocity": 127,
      "chip": "ym2612"
    },
    {
      "channel": 1,
      "note": 60,
      "start": 0.9315,
      "duration": 0.0499,
      "velocity": 87,
      "chip": "ym2612"
    },
    {
      "channel": 1,
      "note": 59,
      "start": 0.9815,
      "duration": 0.067,
      "velocity": 87,
      "chip": "ym2612"
    },
    {
      "channel": 1,
      "note": 65,
      "start": 1.0486,
      "duration": 0.0495,
      "velocity": 87,
      "chip": "ym2612"
    },
    {
      "channel": 5,
      "note": 80,
      "start": 1.0525,
      "duration": 0.3534,
      "velocity": 86,
      "chip": "ym2612"
    },
    {
      "channel": 1,
      "note": 59,
      "start": 1.0981,
      "duration": 0.0667,
      "velocity": 87,
      "chip": "ym2612"
    },
    {
      "channel": 1,
      "note": 60,
      "start": 1.1649,
      "duration": 0.0499,
      "velocity": 87,
      "chip": "ym2612"
    },
    {
      "channel": 1,
      "note": 61,
      "start": 1.2148,
      "duration": 0.0666,
      "velocity": 87,
      "chip": "ym2612"
    },
    {
      "channel": 1,
      "note": 60,
      "start": 1.2815,
      "duration": 0.0499,
      "velocity": 87,
      "chip": "ym2612"
    },
    {
      "channel": 1,
      "note": 59,
      "start": 1.3315,
      "duration": 0.0687,
      "velocity": 87,
      "chip": "ym2612"
    },
    {
      "channel": 0,
      "note": 72,
      "start": 1.3994,
      "duration": 1.3997,
      "velocity": 67,
      "chip": "ym2612"
    },
    {
      "channel": 1,
      "note": 65,
      "start": 1.4003,
      "duration": 0.048,
      "velocity": 87,
      "chip": "ym2612"
    },
    {
      "channel": 2,
      "note": 65,
      "start": 1.4013,
      "duration": 1.3997,
      "velocity": 67,
      "chip": "ym2612"
    },
    {
      "channel": 3,
      "note": 78,
      "start": 1.4022,
      "duration": 0.1646,
      "velocity": 87,
      "chip": "ym2612"
    },
    {
      "channel": 5,
      "note": 68,
      "start": 1.406,
      "duration": 0.1646,
      "velocity": 86,
      "chip": "ym2612"
    },
    {
      "channel": 1,
      "note": 59,
      "start": 1.4485,
      "duration": 0.0667,
      "velocity": 87,
      "chip": "ym2612"
    },
    {
      "channel": 1,
      "note": 60,
      "start": 1.5153,
      "duration": 0.0503,
      "velocity": 87,
      "chip": "ym2612"
    },
    {
      "channel": 1,
      "note": 61,
      "start": 1.5657,
      "duration": 0.0663,
      "velocity": 87,
      "chip": "ym2612"
    },
    {
      "channel": 3,
      "note": 77,
      "start": 1.5669,
      "duration": 0.1834,
      "velocity": 87,
      "chip": "ym2612"
    },
    {
      "channel": 5,
      "note": 68,
      "start": 1.5707,
      "duration": 0.1836,
      "velocity": 127,
      "chip": "ym2612"
    },
    {
      "channel": 1,
      "note": 60,
      "start": 1.6321,
      "duration": 0.0497,
      "velocity": 87,
      "chip": "ym2612"
    },
    {
      "channel": 4,
      "note": 72,
      "start": 1.6337,
      "duration": 1.3999,
      "velocity": 67,
      "chip": "ym2612"
    },
    {
      "channel": 1,
      "note": 59,
      "start": 1.6819,
      "duration": 0.0672,
      "velocity": 87,
      "chip": "ym2612"
    },
    {
      "channel": 1,
      "note": 65,
      "start": 1.7491,
      "duration": 0.0493,
      "velocity": 87,
      "chip": "ym2612"
    },
    {
      "channel": 3,
      "note": 74,
      "start": 1.7505,
      "duration": 0.1661,
      "velocity": 87,
      "chip": "ym2612"
    },
    {
      "channel": 5,
      "note": 80,
      "start": 1.7544,
      "duration": 0.3497,
      "velocity": 86,
      "chip": "ym2612"
    },
    {
      "channel": 1,
      "note": 59,
      "start": 1.7985,
      "duration": 0.0667,
      "velocity": 87,
      "chip": "ym2612"
    },
    {
      "channel": 1,
      "note": 60,
      "start": 1.8652,
      "duration": 0.05,
      "velocity": 87,
      "chip": "ym2612"
    },
    {
      "channel": 1,
      "note": 61,
      "start": 1.9154,
      "duration": 0.0664,
      "velocity": 87,
      "chip": "ym2612"
    },
    {
      "channel": 3,
      "note": 73,
      "start": 1.9166,
      "duration": 0.1835,
      "velocity": 87,
      "chip": "ym2612"
    },
    {
      "channel": 1,
      "note": 60,
      "start": 1.9819,
      "duration": 0.0497,
      "velocity": 87,
      "chip": "ym2612"
    },
    {
      "channel": 1,
      "note": 59,
      "start": 2.0318,
      "duration": 0.0672,
      "velocity": 87,
      "chip": "ym2612"
    },
    {
      "channel": 1,
      "note": 65,
      "start": 2.0991,
      "duration": 0.0492,
      "velocity": 87,
      "chip": "ym2612"
    },
    {
      "channel": 3,
      "note": 78,
      "start": 2.1002,
      "duration": 0.1664,
      "velocity": 87,
      "chip": "ym2612"
    },
    {
      "channel": 5,
      "note": 68,
      "start": 2.1042,
      "duration": 0.1663,
      "velocity": 86,
      "chip": "ym2612"
    },
    {
      "channel": 1,
      "note": 59,
      "start": 2.1484,
      "duration": 0.0666,
      "velocity": 87,
      "chip": "ym2612"
    },
    {
      "channel": 1,
      "note": 60,
      "start": 2.2152,
      "duration": 0.0503,
      "velocity": 87,
      "chip": "ym2612"
    },
    {
      "channel": 1,
      "note": 61,
      "start": 2.2656,
      "duration": 0.066,
      "velocity": 87,
      "chip": "ym2612"
    },
    {
      "channel": 3,
      "note": 77,
      "start": 2.2668,
      "duration": 0.1833,
      "velocity": 87,
      "chip": "ym2612"
    },
    {
      "channel": 5,
      "note": 68,
      "start": 2.2706,
      "duration": 0.1833,
      "velocity": 127,
      "chip": "ym2612"
    },
    {
      "channel": 1,
      "note": 60,
      "start": 2.3318,
      "duration": 0.0499,
      "velocity": 87,
      "chip": "ym2612"
    },
    {
      "channel": 1,
      "note": 59,
      "start": 2.3818,
      "duration": 0.0671,
      "velocity": 87,
      "chip": "ym2612"
    },
    {
      "channel": 1,
      "note": 65,
      "start": 2.449,
      "duration": 0.0492,
      "velocity": 87,
      "chip": "ym2612"
    },
    {
      "channel": 3,
      "note": 74,
      "start": 2.4502,
      "duration": 0.1661,
      "velocity": 87,
      "chip": "ym2612"
    },
    {
      "channel": 5,
      "note": 80,
      "start": 2.454,
      "duration": 0.3518,
      "velocity": 86,
      "chip": "ym2612"
    },
    {
      "channel": 1,
      "note": 59,
      "start": 2.4984,
      "duration": 0.0667,
      "velocity": 87,
      "chip": "ym2612"
    },
    {
      "channel": 1,
      "note": 60,
      "start": 2.5652,
      "duration": 0.0499,
      "velocity": 87,
      "chip": "ym2612"
    },
    {
      "channel": 1,
      "note": 61,
      "start": 2.6152,
      "duration": 0.0665,
      "velocity": 87,
      "chip": "ym2612"
    },
    {
      "channel": 3,
      "note": 73,
      "start": 2.6164,
      "duration": 0.1856,
      "velocity": 87,
      "chip": "ym2612"
    },
    {
      "channel": 1,
      "note": 60,
      "start": 2.6818,
      "duration": 0.0498,
      "velocity": 87,
      "chip": "ym2612"
    },
    {
      "channel": 1,
      "note": 59,
      "start": 2.7318,
      "duration": 0.0683,
      "velocity": 87,
      "chip": "ym2612"
    },
    {
      "channel": 0,
      "note": 73,
      "start": 2.7992,
      "duration": 1.3999,
      "velocity": 67,
      "chip": "ym2612"
    },
    {
      "channel": 1,
      "note": 65,
      "start": 2.8002,
      "duration": 0.0483,
      "velocity": 87,
      "chip": "ym2612"
    },
    {
      "channel": 2,
      "note": 66,
      "start": 2.8011,
      "duration": 1.3999,
      "velocity": 67,
      "chip": "ym2612"
    },
    {
      "channel": 3,
      "note": 78,
      "start": 2.8021,
      "duration": 0.1648,
      "velocity": 87,
      "chip": "ym2612"
    },
    {
      "channel": 5,
      "note": 68,
      "start": 2.8059,
      "duration": 0.1648,
      "velocity": 86,
      "chip": "ym2612"
    },
    {
      "channel": 1,
      "note": 59,
      "start": 2.8486,
      "duration": 0.0666,
      "velocity": 87,
      "chip": "ym2612"
    },
    {
      "channel": 1,
      "note": 60,
      "start": 2.9153,
      "duration": 0.0503,
      "velocity": 87,
      "chip": "ym2612"
    },
    {
      "channel": 1,
      "note": 61,
      "start": 2.9657,
      "duration": 0.0662,
      "velocity": 87,
      "chip": "ym2612"
    },
    {
      "channel": 3,
      "note": 77,
      "start": 2.967,
      "duration": 0.1833,
      "velocity": 87,
      "chip": "ym2612"
    },
    {
      "channel": 5,
      "note": 68,
      "start": 2.9709,
      "duration": 0.1835,
      "velocity": 127,
      "chip": "ym2612"
    },
    {
      "channel": 1,
      "note": 60,
      "start": 3.032,
      "duration": 0.0498,
      "velocity": 87,
      "chip": "ym2612"
    },
    {
      "channel": 4,
      "note": 73,
      "start": 3.0337,
      "duration": 1.3999,
      "velocity": 67,
      "chip": "ym2612"
    },
    {
      "channel": 1,
      "note": 59,
      "start": 3.0819,
      "duration": 0.0672,
      "velocity": 87,
      "chip": "ym2612"
    },
    {
      "channel": 1,
      "note": 65,
      "start": 3.1492,
      "duration": 0.0492,
      "velocity": 87,
      "chip": "ym2612"
    },
    {
      "channel": 3,
      "note": 74,
      "start": 3.1505,
      "duration": 0.1661,
      "velocity": 87,
      "chip": "ym2612"
    },
    {
      "channel": 5,
      "note": 80,
      "start": 3.1545,
      "duration": 0.3497,
      "velocity": 86,
      "chip": "ym2612"
    },
    {
      "channel": 1,
      "note": 59,
      "start": 3.1986,
      "duration": 0.0666,
      "velocity": 87,
      "chip": "ym2612"
    },
    {
      "channel": 1,
      "note": 60,
      "start": 3.2653,
      "duration": 0.05,
      "velocity": 87,
      "chip": "ym2612"
    },
    {
      "channel": 1,
      "note": 61,
      "start": 3.3154,
      "duration": 0.0665,
      "velocity": 87,
      "chip": "ym2612"
    },
    {
      "channel": 3,
      "note": 73,
      "start": 3.3167,
      "duration": 0.1835,
      "velocity": 87,
      "chip": "ym2612"
    },
    {
      "channel": 1,
      "note": 60,
      "start": 3.3819,
      "duration": 0.0497,
      "velocity": 87,
      "chip": "ym2612"
    },
    {
      "channel": 1,
      "note": 59,
      "start": 3.4317,
      "duration": 0.0673,
      "velocity": 87,
      "chip": "ym2612"
    },
    {
      "channel": 1,
      "note": 65,
      "start": 3.4991,
      "duration": 0.0492,
      "velocity": 87,
      "chip": "ym2612"
    },
    {
      "channel": 3,
      "note": 78,
      "start": 3.5003,
      "duration": 0.1663,
      "velocity": 87,
      "chip": "ym2612"
    },
    {
      "channel": 5,
      "note": 68,
      "start": 3.5042,
      "duration": 0.1663,
      "velocity": 86,
      "chip": "ym2612"
    },
    {
      "channel": 1,
      "note": 59,
      "start": 3.5484,
      "duration": 0.0666,
      "velocity": 87,
      "chip": "ym2612"
    },
    {
      "channel": 1,
      "note": 60,
      "start": 3.6151,
      "duration": 0.0503,
      "velocity": 87,
      "chip": "ym2612"
    },
    {
      "channel": 1,
      "note": 61,
      "start": 3.6656,
      "duration": 0.0661,
      "velocity": 87,
      "chip": "ym2612"
    },
    {
      "channel": 3,
      "note": 77,
      "start": 3.6668,
      "duration": 0.1833,
      "velocity": 87,
      "chip": "ym2612"
    },
    {
      "channel": 5,
      "note": 68,
      "start": 3.6706,
      "duration": 0.1834,
      "velocity": 127,
      "chip": "ym2612"
    },
    {
      "channel": 1,
      "note": 60,
      "start": 3.7318,
      "duration": 0.0499,
      "velocity": 87,
      "chip": "ym2612"
    },
    {
      "channel": 1,
      "note": 59,
      "start": 3.7817,
      "duration": 0.0672,
      "velocity": 87,
      "chip": "ym2612"
    },
    {
      "channel": 1,
      "note": 65,
      "start": 3.8491,
      "duration": 0.0492,
      "velocity": 87,
      "chip": "ym2612"
    },
    {
      "channel": 3,
      "note": 74,
      "start": 3.8502,
      "duration": 0.166,
      "velocity": 87,
      "chip": "ym2612"
    },
    {
      "channel": 5,
      "note": 80,
      "start": 3.8541,
      "duration": 0.3518,
      "velocity": 86,
      "chip": "ym2612"
    },
    {
      "channel": 1,
      "note": 59,
      "start": 3.8984,
      "duration": 0.0666,
      "velocity": 87,
      "chip": "ym2612"
    },
    {
      "channel": 1,
      "note": 60,
      "start": 3.9652,
      "duration": 0.0499,
      "velocity": 87,
      "chip": "ym2612"
    },
    {
      "channel": 1,
      "note": 61,
      "start": 4.0152,
      "duration": 0.0665,
      "velocity": 87,
      "chip": "ym2612"
    },
    {
      "channel": 3,
      "note": 73,
      "start": 4.0164,
      "duration": 0.1856,
      "velocity": 87,
      "chip": "ym2612"
    },
    {
      "channel": 1,
      "note": 60,
      "start": 4.0818,
      "duration": 0.0499,
      "velocity": 87,
      "chip": "ym2612"
    },
    {
      "channel": 1,
      "note": 59,
      "start": 4.1317,
      "duration": 0.0684,
      "velocity": 87,
      "chip": "ym2612"
    },
    {
      "channel": 0,
      "note": 74,
      "start": 4.1992,
      "duration": 1.3999,
      "velocity": 67,
      "chip": "ym2612"
    },
    {
      "channel": 1,
      "note": 65,
      "start": 4.2002,
      "duration": 0.0483,
      "velocity": 87,
      "chip": "ym2612"
    },
    {
      "channel": 2,
      "note": 67,
      "start": 4.2011,
      "duration": 1.3999,
      "velocity": 67,
      "chip": "ym2612"
    },
    {
      "channel": 3,
      "note": 78,
      "start": 4.2021,
      "duration": 0.1648,
      "velocity": 87,
      "chip": "ym2612"
    },
    {
      "channel": 5,
      "note": 68,
      "start": 4.2059,
      "duration": 0.1648,
      "velocity": 86,
      "chip": "ym2612"
    },
    {
      "channel": 1,
      "note": 59,
      "start": 4.2485,
      "duration": 0.0667,
      "velocity": 87,
      "chip": "ym2612"
    },
    {
      "channel": 1,
      "note": 60,
      "start": 4.3153,
      "duration": 0.0503,
      "velocity": 87,
      "chip": "ym2612"
    },
    {
      "channel": 1,
      "note": 61,
      "start": 4.3657,
      "duration": 0.0663,
      "velocity": 87,
      "chip": "ym2612"
    },
    {
      "channel": 3,
      "note": 77,
      "start": 4.3669,
      "duration": 0.1834,
      "velocity": 87,
      "chip": "ym2612"
    },
    {
      "channel": 5,
      "note": 68,
      "start": 4.3708,
      "duration": 0.1835,
      "velocity": 127,
      "chip": "ym2612"
    },
    {
      "channel": 1,
      "note": 60,
      "start": 4.4321,
      "duration": 0.0497,
      "velocity": 87,
      "chip": "ym2612"
    },
    {
      "channel": 4,
      "note": 74,
      "start": 4.4337,
      "duration": 1.3999,
      "velocity": 67,
      "chip": "ym2612"
    },
    {
      "channel": 1,
      "note": 59,
      "start": 4.4818,
      "duration": 0.0672,
      "velocity": 87,
      "chip": "ym2612"
    },
    {
      "channel": 1,
      "note": 65,
      "start": 4.5492,
      "duration": 0.0492,
      "velocity": 87,
      "chip": "ym2612"
    },
    {
      "channel": 3,
      "note": 75,
      "start": 4.5505,
      "duration": 0.1661,
      "velocity": 87,
      "chip": "ym2612"
    },
    {
      "channel": 5,
      "note": 80,
      "start": 4.5545,
      "duration": 0.3497,
      "velocity": 86,
      "chip": "ym2612"
    },
    {
      "channel": 1,
      "note": 59,
      "start": 4.5986,
      "duration": 0.0666,
      "velocity": 87,
      "chip": "ym2612"
    },
    {
      "channel": 1,
      "note": 60,
      "start": 4.6653,
      "duration": 0.05,
      "velocity": 87,
      "chip": "ym2612"
    },
    {
      "channel": 1,
      "note": 61,
      "start": 4.7154,
      "duration": 0.0665,
      "velocity": 87,
      "chip": "ym2612"
    },
    {
      "channel": 3,
      "note": 74,
      "start": 4.7167,
      "duration": 0.1835,
      "velocity": 87,
      "chip": "ym2612"
    },
    {
      "channel": 1,
      "note": 60,
      "start": 4.7819,
      "duration": 0.0497,
      "velocity": 87,
      "chip": "ym2612"
    },
    {
      "channel": 1,
      "note": 59,
      "start": 4.8317,
      "duration": 0.0673,
      "velocity": 87,
      "chip": "ym2612"
    },
    {
      "channel": 1,
      "note": 65,
      "start": 4.8991,
      "duration": 0.0492,
      "velocity": 87,
      "chip": "ym2612"
    },
    {
      "channel": 3,
      "note": 78,
      "start": 4.9003,
      "duration": 0.1663,
      "velocity": 87,
      "chip": "ym2612"
    },
    {
      "channel": 5,
      "note": 68,
      "start": 4.9042,
      "duration": 0.1663,
      "velocity": 86,
      "chip": "ym2612"
    },
    {
      "channel": 1,
      "note": 59,
      "start": 4.9484,
      "duration": 0.0666,
      "velocity": 87,
      "chip": "ym2612"
    },
    {
      "channel": 1,
      "note": 60,
      "start": 5.0151,
      "duration": 0.0503,
      "velocity": 87,
      "chip": "ym2612"
    },
    {
      "channel": 1,
      "note": 61,
      "start": 5.0656,
      "duration": 0.0661,
      "velocity": 87,
      "chip": "ym2612"
    },
    {
      "channel": 3,
      "note": 77,
      "start": 5.0668,
      "duration": 0.1833,
      "velocity": 87,
      "chip": "ym2612"
    },
    {
      "channel": 5,
      "note": 68,
      "start": 5.0706,
      "duration": 0.1834,
      "velocity": 86,
      "chip": "ym2612"
    },
    {
      "channel": 1,
      "note": 60,
      "start": 5.1318,
      "duration": 0.0499,
      "velocity": 87,
      "chip": "ym2612"
    },
    {
      "channel": 1,
      "note": 59,
      "start": 5.1817,
      "duration": 0.0672,
      "velocity": 87,
      "chip": "ym2612"
    },
    {
      "channel": 1,
      "note": 65,
      "start": 5.249,
      "duration": 0.0493,
      "velocity": 87,
      "chip": "ym2612"
    },
    {
      "channel": 3,
      "note": 75,
      "start": 5.2502,
      "duration": 0.1664,
      "velocity": 87,
      "chip": "ym2612"
    },
    {
      "channel": 5,
      "note": 68,
      "start": 5.2541,
      "duration": 0.1664,
      "velocity": 86,
      "chip": "ym2612"
    },
    {
      "channel": 1,
      "note": 59,
      "start": 5.2984,
      "duration": 0.0666,
      "velocity": 87,
      "chip": "ym2612"
    },
    {
      "channel": 1,
      "note": 60,
      "start": 5.3651,
      "duration": 0.0504,
      "velocity": 87,
      "chip": "ym2612"
    },
    {
      "channel": 1,
      "note": 61,
      "start": 5.4156,
      "duration": 0.066,
      "velocity": 87,
      "chip": "ym2612"
    },
    {
      "channel": 3,
      "note": 74,
      "start": 5.4168,
      "duration": 0.1852,
      "velocity": 87,
      "chip": "ym2612"
    },
    {
      "channel": 5,
      "note": 68,
      "start": 5.4206,
      "duration": 0.1852,
      "velocity": 86,
      "chip": "ym2612"
    },
    {
      "channel": 1,
      "note": 60,
      "start": 5.4818,
      "duration": 0.0499,
      "velocity": 87,
      "chip": "ym2612"
    },
    {
      "channel": 1,
      "note": 59,
      "start": 5.5318,
      "duration": 0.0683,
      "velocity": 87,
      "chip": "ym2612"
    },
    {
      "channel": 0,
      "note": 75,
      "start": 5.5992,
      "duration": 1.3999,
      "velocity": 67,
      "chip": "ym2612"
    },
    {
      "channel": 1,
      "note": 64,
      "start": 5.6002,
      "duration": 0.0483,
      "velocity": 87,
      "chip": "ym2612"
    },
    {
      "channel": 2,
      "note": 68,
      "start": 5.6011,
      "duration": 1.3999,
      "velocity": 67,
      "chip": "ym2612"
    },
    {
      "channel": 3,
      "note": 78,
      "start": 5.6021,
      "duration": 0.1647,
      "velocity": 87,
      "chip": "ym2612"
    },
    {
      "channel": 5,
      "note": 68,
      "start": 5.6059,
      "duration": 0.1648,
      "velocity": 86,
      "chip": "ym2612"
    },
    {
      "channel": 1,
      "note": 58,
      "start": 5.6485,
      "duration": 0.0667,
      "velocity": 87,
      "chip": "ym2612"
    },
    {
      "channel": 1,
      "note": 59,
      "start": 5.7153,
      "duration": 0.0503,
      "velocity": 87,
      "chip": "ym2612"
    },
    {
      "channel": 1,
      "note": 60,
      "start": 5.7657,
      "duration": 0.0662,
      "velocity": 87,
      "chip": "ym2612"
    },
    {
      "channel": 3,
      "note": 77,
      "start": 5.767,
      "duration": 0.1833,
      "velocity": 87,
      "chip": "ym2612"
    },
    {
      "channel": 5,
      "note": 68,
      "start": 5.7709,
      "duration": 0.1834,
      "velocity": 127,
      "chip": "ym2612"
    },
    {
      "channel": 1,
      "note": 59,
      "start": 5.8321,
      "duration": 0.0497,
      "velocity": 87,
      "chip": "ym2612"
    },
    {
      "channel": 4,
      "note": 75,
      "start": 5.8337,
      "duration": 1.3999,
      "velocity": 67,
      "chip": "ym2612"
    },
    {
      "channel": 1,
      "note": 58,
      "start": 5.8819,
      "duration": 0.0671,
      "velocity": 87,
      "chip": "ym2612"
    },
    {
      "channel": 1,
      "note": 64,
      "start": 5.9491,
      "duration": 0.0493,
      "velocity": 87,
      "chip": "ym2612"
    },
    {
      "channel": 3,
      "note": 75,
      "start": 5.9504,
      "duration": 0.1661,
      "velocity": 87,
      "chip": "ym2612"
    },
    {
      "channel": 5,
      "note": 80,
      "start": 5.9544,
      "duration": 0.3497,
      "velocity": 86,
      "chip": "ym2612"
    },
    {
      "channel": 1,
      "note": 58,
      "start": 5.9986,
      "duration": 0.0666,
      "velocity": 87,
      "chip": "ym2612"
    },
    {
      "channel": 1,
      "note": 59,
      "start": 6.0652,
      "duration": 0.05,
      "velocity": 87,
      "chip": "ym2612"
    },
    {
      "channel": 1,
      "note": 60,
      "start": 6.1154,
      "duration": 0.0664,
      "velocity": 87,
      "chip": "ym2612"
    },
    {
      "channel": 3,
      "note": 74,
      "start": 6.1166,
      "duration": 0.1835,
      "velocity": 87,
      "chip": "ym2612"
    },
    {
      "channel": 1,
      "note": 59,
      "start": 6.1819,
      "duration": 0.0497,
      "velocity": 87,
      "chip": "ym2612"
    },
    {
      "channel": 1,
      "note": 58,
      "start": 6.2318,
      "duration": 0.0672,
      "velocity": 87,
      "chip": "ym2612"
    },
    {
      "channel": 1,
      "note": 64,
      "start": 6.2991,
      "duration": 0.0492,
      "velocity": 87,
      "chip": "ym2612"
    },
    {
      "channel": 3,
      "note": 78,
      "start": 6.3003,
      "duration": 0.1663,
      "velocity": 87,
      "chip": "ym2612"
    },
    {
      "channel": 5,
      "note": 68,
      "start": 6.3042,
      "duration": 0.1663,
      "velocity": 86,
      "chip": "ym2612"
    },
    {
      "channel": 1,
      "note": 58,
      "start": 6.3484,
      "duration": 0.0666,
      "velocity": 87,
      "chip": "ym2612"
    },
    {
      "channel": 1,
      "note": 59,
      "start": 6.4151,
      "duration": 0.0504,
      "velocity": 87,
      "chip": "ym2612"
    },
    {
      "channel": 1,
      "note": 60,
      "start": 6.4656,
      "duration": 0.0661,
      "velocity": 87,
      "chip": "ym2612"
    },
    {
      "channel": 3,
      "note": 77,
      "start": 6.4668,
      "duration": 0.1833,
      "velocity": 87,
      "chip": "ym2612"
    },
    {
      "channel": 5,
      "note": 68,
      "start": 6.4706,
      "duration": 0.1833,
      "velocity": 127,
      "chip": "ym2612"
    },
    {
      "channel": 1,
      "note": 59,
      "start": 6.5318,
      "duration": 0.0498,
      "velocity": 87,
      "chip": "ym2612"
    },
    {
      "channel": 1,
      "note": 58,
      "start": 6.5818,
      "duration": 0.0671,
      "velocity": 87,
      "chip": "ym2612"
    },
    {
      "channel": 1,
      "note": 64,
      "start": 6.649,
      "duration": 0.0492,
      "velocity": 87,
      "chip": "ym2612"
    },
    {
      "channel": 3,
      "note": 76,
      "start": 6.6502,
      "duration": 0.1661,
      "velocity": 87,
      "chip": "ym2612"
    },
    {
      "channel": 5,
      "note": 80,
      "start": 6.654,
      "duration": 0.3518,
      "velocity": 86,
      "chip": "ym2612"
    },
    {
      "channel": 1,
      "note": 58,
      "start": 6.6984,
      "duration": 0.0667,
      "velocity": 87,
      "chip": "ym2612"
    },
    {
      "channel": 1,
      "note": 59,
      "start": 6.7652,
      "duration": 0.0499,
      "velocity": 87,
      "chip": "ym2612"
    },
    {
      "channel": 1,
      "note": 60,
      "start": 6.8152,
      "duration": 0.0665,
      "velocity": 87,
      "chip": "ym2612"
    },
    {
      "channel": 3,
      "note": 75,
      "start": 6.8164,
      "duration": 0.1856,
      "velocity": 87,
      "chip": "ym2612"
    },
    {
      "channel": 1,
      "note": 59,
      "start": 6.8818,
      "duration": 0.0498,
      "velocity": 87,
      "chip": "ym2612"
    },
    {
      "channel": 1,
      "note": 58,
      "start": 6.9318,
      "duration": 0.0683,
      "velocity": 87,
      "chip": "ym2612"
    },
    {
      "channel": 0,
      "note": 78,
      "start": 6.9993,
      "duration": 1.3999,
      "velocity": 67,
      "chip": "ym2612"
    },
    {
      "channel": 1,
      "note": 66,
      "start": 7.0002,
      "duration": 0.0482,
      "velocity": 87,
      "chip": "ym2612"
    },
    {
      "channel": 2,
      "note": 69,
      "start": 7.0012,
      "duration": 1.3999,
      "velocity": 67,
      "chip": "ym2612"
    },
    {
      "channel": 3,
      "note": 72,
      "start": 7.0021,
      "duration": 0.1647,
      "velocity": 87,
      "chip": "ym2612"
    },
    {
      "channel": 5,
      "note": 68,
      "start": 7.006,
      "duration": 0.1648,
      "velocity": 86,
      "chip": "ym2612"
    },
    {
      "channel": 1,
      "note": 59,
      "start": 7.0486,
      "duration": 0.0666,
      "velocity": 87,
      "chip": "ym2612"
    },
    {
      "channel": 1,
      "note": 60,
      "start": 7.1153,
      "duration": 0.0503,
      "velocity": 87,
      "chip": "ym2612"
    },
    {
      "channel": 1,
      "note": 61,
      "start": 7.1657,
      "duration": 0.0662,
      "velocity": 87,
      "chip": "ym2612"
    },
    {
      "channel": 3,
      "note": 71,
      "start": 7.167,
      "duration": 0.1833,
      "velocity": 87,
      "chip": "ym2612"
    },
    {
      "channel": 5,
      "note": 68,
      "start": 7.1709,
      "duration": 0.1834,
      "velocity": 127,
      "chip": "ym2612"
    },
    {
      "channel": 1,
      "note": 60,
      "start": 7.2321,
      "duration": 0.0497,
      "velocity": 87,
      "chip": "ym2612"
    },
    {
      "channel": 4,
      "note": 78,
      "start": 7.2337,
      "duration": 1.3999,
      "velocity": 67,
      "chip": "ym2612"
    },
    {
      "channel": 1,
      "note": 59,
      "start": 7.2819,
      "duration": 0.0671,
      "velocity": 87,
      "chip": "ym2612"
    },
    {
      "channel": 1,
      "note": 66,
      "start": 7.3491,
      "duration": 0.0493,
      "velocity": 87,
      "chip": "ym2612"
    },
    {
      "channel": 3,
      "note": 70,
      "start": 7.3504,
      "duration": 0.1661,
      "velocity": 87,
      "chip": "ym2612"
    },
    {
      "channel": 5,
      "note": 80,
      "start": 7.3544,
      "duration": 0.3497,
      "velocity": 86,
      "chip": "ym2612"
    },
    {
      "channel": 1,
      "note": 59,
      "start": 7.3986,
      "duration": 0.0666,
      "velocity": 87,
      "chip": "ym2612"
    },
    {
      "channel": 1,
      "note": 60,
      "start": 7.4652,
      "duration": 0.05,
      "velocity": 87,
      "chip": "ym2612"
    },
    {
      "channel": 1,
      "note": 61,
      "start": 7.5154,
      "duration": 0.0664,
      "velocity": 87,
      "chip": "ym2612"
    },
    {
      "channel": 3,
      "note": 69,
      "start": 7.5166,
      "duration": 0.1835,
      "velocity": 87,
      "chip": "ym2612"
    },
    {
      "channel": 1,
      "note": 60,
      "start": 7.5819,
      "duration": 0.0497,
      "velocity": 87,
      "chip": "ym2612"
    },
    {
      "channel": 1,
      "note": 59,
      "start": 7.6318,
      "duration": 0.0672,
      "velocity": 87,
      "chip": "ym2612"
    },
    {
      "channel": 1,
      "note": 66,
      "start": 7.6991,
      "duration": 0.0492,
      "velocity": 87,
      "chip": "ym2612"
    },
    {
      "channel": 3,
      "note": 72,
      "start": 7.7003,
      "duration": 0.1663,
      "velocity": 87,
      "chip": "ym2612"
    },
    {
      "channel": 5,
      "note": 68,
      "start": 7.7042,
      "duration": 0.1663,
      "velocity": 86,
      "chip": "ym2612"
    },
    {
      "channel": 1,
      "note": 59,
      "start": 7.7484,
      "duration": 0.0666,
      "velocity": 87,
      "chip": "ym2612"
    },
    {
      "channel": 1,
      "note": 60,
      "start": 7.8151,
      "duration": 0.0504,
      "velocity": 87,
      "chip": "ym2612"
    },
    {
      "channel": 1,
      "note": 61,
      "start": 7.8656,
      "duration": 0.0661,
      "velocity": 87,
      "chip": "ym2612"
    },
    {
      "channel": 3,
      "note": 71,
      "start": 7.8668,
      "duration": 0.1833,
      "velocity": 87,
      "chip": "ym2612"
    },
    {
      "channel": 5,
      "note": 68,
      "start": 7.8706,
      "duration": 0.1833,
      "velocity": 127,
      "chip": "ym2612"
    },
    {
      "channel": 1,
      "note": 60,
      "start": 7.9318,
      "duration": 0.0498,
      "velocity": 87,
      "chip": "ym2612"
    },
    {
      "channel": 1,
      "note": 59,
      "start": 7.9818,
      "duration": 0.0671,
      "velocity": 87,
      "chip": "ym2612"
    },
    {
      "channel": 1,
      "note": 66,
      "start": 8.049,
      "duration": 0.0492,
      "velocity": 87,
      "chip": "ym2612"
    },
    {
      "channel": 3,
      "note": 70,
      "start": 8.0502,
      "duration": 0.1661,
      "velocity": 87,
      "chip": "ym2612"
    },
    {
      "channel": 5,
      "note": 80,
      "start": 8.054,
      "duration": 0.3518,
      "velocity": 86,
      "chip": "ym2612"
    },
    {
      "channel": 1,
      "note": 59,
      "start": 8.0984,
      "duration": 0.0667,
      "velocity": 87,
      "chip": "ym2612"
    },
    {
      "channel": 1,
      "note": 60,
      "start": 8.1652,
      "duration": 0.0499,
      "velocity": 87,
      "chip": "ym2612"
    },
    {
      "channel": 1,
      "note": 61,
      "start": 8.2152,
      "duration": 0.0665,
      "velocity": 87,
      "chip": "ym2612"
    },
    {
      "channel": 3,
      "note": 69,
      "start": 8.2164,
      "duration": 0.1856,
      "velocity": 87,
      "chip": "ym2612"
    },
    {
      "channel": 1,
      "note": 60,
      "start": 8.2818,
      "duration": 0.0498,
      "velocity": 87,
      "chip": "ym2612"
    },
    {
      "channel": 1,
      "note": 59,
      "start": 8.3318,
      "duration": 0.0683,
      "velocity": 87,
      "chip": "ym2612"
    },
    {
      "channel": 0,
      "note": 76,
      "start": 8.3993,
      "duration": 1.3999,
      "velocity": 67,
      "chip": "ym2612"
    },
    {
      "channel": 1,
      "note": 62,
      "start": 8.4002,
      "duration": 0.0482,
      "velocity": 87,
      "chip": "ym2612"
    },
    {
      "channel": 2,
      "note": 68,
      "start": 8.4012,
      "duration": 1.3999,
      "velocity": 67,
      "chip": "ym2612"
    },
    {
      "channel": 3,
      "note": 70,
      "start": 8.4021,
      "duration": 0.1647,
      "velocity": 87,
      "chip": "ym2612"
    },
    {
      "channel": 5,
      "note": 68,
      "start": 8.406,
      "duration": 0.1648,
      "velocity": 86,
      "chip": "ym2612"
    },
    {
      "channel": 1,
      "note": 58,
      "start": 8.4486,
      "duration": 0.0666,
      "velocity": 87,
      "chip": "ym2612"
    },
    {
      "channel": 1,
      "note": 59,
      "start": 8.5153,
      "duration": 0.0503,
      "velocity": 87,
      "chip": "ym2612"
    },
    {
      "channel": 1,
      "note": 60,
      "start": 8.5657,
      "duration": 0.0662,
      "velocity": 87,
      "chip": "ym2612"
    },
    {
      "channel": 3,
      "note": 69,
      "start": 8.567,
      "duration": 0.1833,
      "velocity": 87,
      "chip": "ym2612"
    },
    {
      "channel": 5,
      "note": 68,
      "start": 8.5709,
      "duration": 0.1835,
      "velocity": 127,
      "chip": "ym2612"
    },
    {
      "channel": 1,
      "note": 59,
      "start": 8.632,
      "duration": 0.0498,
      "velocity": 87,
      "chip": "ym2612"
    },
    {
      "channel": 4,
      "note": 76,
      "start": 8.6337,
      "duration": 1.3999,
      "velocity": 67,
      "chip": "ym2612"
    },
    {
      "channel": 1,
      "note": 58,
      "start": 8.6819,
      "duration": 0.0672,
      "velocity": 87,
      "chip": "ym2612"
    },
    {
      "channel": 1,
      "note": 62,
      "start": 8.7492,
      "duration": 0.0492,
      "velocity": 87,
      "chip": "ym2612"
    },
    {
      "channel": 3,
      "note": 71,
      "start": 8.7505,
      "duration": 0.1661,
      "velocity": 87,
      "chip": "ym2612"
    },
    {
      "channel": 5,
      "note": 80,
      "start": 8.7545,
      "duration": 0.3497,
      "velocity": 86,
      "chip": "ym2612"
    },
    {
      "channel": 1,
      "note": 58,
      "start": 8.7986,
      "duration": 0.0666,
      "velocity": 87,
      "chip": "ym2612"
    },
    {
      "channel": 1,
      "note": 59,
      "start": 8.8653,
      "duration": 0.05,
      "velocity": 87,
      "chip": "ym2612"
    },
    {
      "channel": 1,
      "note": 60,
      "start": 8.9154,
      "duration": 0.0665,
      "velocity": 87,
      "chip": "ym2612"
    },
    {
      "channel": 3,
      "note": 72,
      "start": 8.9167,
      "duration": 0.1835,
      "velocity": 87,
      "chip": "ym2612"
    },
    {
      "channel": 1,
      "note": 59,
      "start": 8.9819,
      "duration": 0.0497,
      "velocity": 87,
      "chip": "ym2612"
    },
    {
      "channel": 1,
      "note": 58,
      "start": 9.0317,
      "duration": 0.0673,
      "velocity": 87,
      "chip": "ym2612"
    },
    {
      "channel": 1,
      "note": 62,
      "start": 9.0991,
      "duration": 0.0492,
      "velocity": 87,
      "chip": "ym2612"
    },
    {
      "channel": 3,
      "note": 70,
      "start": 9.1003,
      "duration": 0.1663,
      "velocity": 87,
      "chip": "ym2612"
    },
    {
      "channel": 5,
      "note": 68,
      "start": 9.1042,
      "duration": 0.1663,
      "velocity": 86,
      "chip": "ym2612"
    },
    {
      "channel": 1,
      "note": 58,
      "start": 9.1484,
      "duration": 0.0666,
      "velocity": 87,
      "chip": "ym2612"
    },
    {
      "channel": 1,
      "note": 59,
      "start": 9.2151,
      "duration": 0.0503,
      "velocity": 87,
      "chip": "ym2612"
    },
    {
      "channel": 1,
      "note": 60,
      "start": 9.2656,
      "duration": 0.0661,
      "velocity": 87,
      "chip": "ym2612"
    },
    {
      "channel": 3,
      "note": 69,
      "start": 9.2668,
      "duration": 0.1833,
      "velocity": 87,
      "chip": "ym2612"
    },
    {
      "channel": 5,
      "note": 68,
      "start": 9.2706,
      "duration": 0.1834,
      "velocity": 127,
      "chip": "ym2612"
    },
    {
      "channel": 1,
      "note": 59,
      "start": 9.3318,
      "duration": 0.0499,
      "velocity": 87,
      "chip": "ym2612"
    },
    {
      "channel": 1,
      "note": 58,
      "start": 9.3817,
      "duration": 0.0672,
      "velocity": 87,
      "chip": "ym2612"
    },
    {
      "channel": 1,
      "note": 62,
      "start": 9.4491,
      "duration": 0.0492,
      "velocity": 87,
      "chip": "ym2612"
    },
    {
      "channel": 3,
      "note": 71,
      "start": 9.4502,
      "duration": 0.166,
      "velocity": 87,
      "chip": "ym2612"
    },
    {
      "channel": 5,
      "note": 80,
      "start": 9.4541,
      "duration": 0.3518,
      "velocity": 86,
      "chip": "ym2612"
    },
    {
      "channel": 1,
      "note": 58,
      "start": 9.4984,
      "duration": 0.0666,
      "velocity": 87,
      "chip": "ym2612"
    },
    {
      "channel": 1,
      "note": 59,
      "start": 9.5652,
      "duration": 0.0499,
      "velocity": 87,
      "chip": "ym2612"
    },
    {
      "channel": 1,
      "note": 60,
      "start": 9.6152,
      "duration": 0.0665,
      "velocity": 87,
      "chip": "ym2612"
    },
    {
      "channel": 3,
      "note": 72,
      "start": 9.6164,
      "duration": 0.1856,
      "velocity": 87,
      "chip": "ym2612"
    },
    {
      "channel": 1,
      "note": 59,
      "start": 9.6818,
      "duration": 0.0499,
      "velocity": 87,
      "chip": "ym2612"
    },
    {
      "channel": 1,
      "note": 58,
      "start": 9.7317,
      "duration": 0.0684,
      "velocity": 87,
      "chip": "ym2612"
    },
    {
      "channel": 0,
      "note": 77,
      "start": 9.7992,
      "duration": 2.8002,
      "velocity": 67,
      "chip": "ym2612"
    },
    {
      "channel": 1,
      "note": 65,
      "start": 9.8002,
      "duration": 0.0483,
      "velocity": 87,
      "chip": "ym2612"
    },
    {
      "channel": 2,
      "note": 71,
      "start": 9.8011,
      "duration": 2.8029,
      "velocity": 87,
      "chip": "ym2612"
    },
    {
      "channel": 3,
      "note": 73,
      "start": 9.8021,
      "duration": 0.1648,
      "velocity": 87,
      "chip": "ym2612"
    },
    {
      "channel": 5,
      "note": 68,
      "start": 9.8059,
      "duration": 0.1648,
      "velocity": 86,
      "chip": "ym2612"
    },
    {
      "channel": 1,
      "note": 58,
      "start": 9.8485,
      "duration": 0.0667,
      "velocity": 87,
      "chip": "ym2612"
    },
    {
      "channel": 1,
      "note": 59,
      "start": 9.9153,
      "duration": 0.0503,
      "velocity": 87,
      "chip": "ym2612"
    },
    {
      "channel": 1,
      "note": 60,
      "start": 9.9657,
      "duration": 0.0662,
      "velocity": 87,
      "chip": "ym2612"
    },
    {
      "channel": 3,
      "note": 72,
      "start": 9.9669,
      "duration": 0.1834,
      "velocity": 87,
      "chip": "ym2612"
    },
    {
      "channel": 5,
      "note": 68,
      "start": 9.9708,
      "duration": 0.1835,
      "velocity": 127,
      "chip": "ym2612"
    },
    {
      "channel": 1,
      "note": 59,
      "start": 10.032,
      "duration": 0.0498,
      "velocity": 87,
      "chip": "ym2612"
    },
    {
      "channel": 4,
      "note": 77,
      "start": 10.0336,
      "duration": 2.8008,
      "velocity": 67,
      "chip": "ym2612"
    },
    {
      "channel": 1,
      "note": 58,
      "start": 10.0818,
      "duration": 0.0672,
      "velocity": 87,
      "chip": "ym2612"
    },
    {
      "channel": 1,
      "note": 65,
      "start": 10.1492,
      "duration": 0.0492,
      "velocity": 87,
      "chip": "ym2612"
    },
    {
      "channel": 3,
      "note": 71,
      "start": 10.1505,
      "duration": 0.1661,
      "velocity": 87,
      "chip": "ym2612"
    },
    {
      "channel": 5,
      "note": 80,
      "start": 10.1545,
      "duration": 0.3497,
      "velocity": 86,
      "chip": "ym2612"
    },
    {
      "channel": 1,
      "note": 58,
      "start": 10.1986,
      "duration": 0.0666,
      "velocity": 87,
      "chip": "ym2612"
    },
    {
      "channel": 1,
      "note": 59,
      "start": 10.2653,
      "duration": 0.05,
      "velocity": 87,
      "chip": "ym2612"
    },
    {
      "channel": 1,
      "note": 60,
      "start": 10.3154,
      "duration": 0.0665,
      "velocity": 87,
      "chip": "ym2612"
    },
    {
      "channel": 3,
      "note": 70,
      "start": 10.3167,
      "duration": 0.1835,
      "velocity": 87,
      "chip": "ym2612"
    },
    {
      "channel": 1,
      "note": 59,
      "start": 10.3819,
      "duration": 0.0497,
      "velocity": 87,
      "chip": "ym2612"
    },
    {
      "channel": 1,
      "note": 58,
      "start": 10.4317,
      "duration": 0.0673,
      "velocity": 87,
      "chip": "ym2612"
    },
    {
      "channel": 1,
      "note": 65,
      "start": 10.4991,
      "duration": 0.0492,
      "velocity": 87,
      "chip": "ym2612"
    },
    {
      "channel": 3,
      "note": 69,
      "start": 10.5003,
      "duration": 0.1664,
      "velocity": 87,
      "chip": "ym2612"
    },
    {
      "channel": 5,
      "note": 68,
      "start": 10.5042,
      "duration": 0.1663,
      "velocity": 86,
      "chip": "ym2612"
    },
    {
      "channel": 1,
      "note": 58,
      "start": 10.5484,
      "duration": 0.0667,
      "velocity": 87,
      "chip": "ym2612"
    },
    {
      "channel": 1,
      "note": 59,
      "start": 10.6152,
      "duration": 0.0503,
      "velocity": 87,
      "chip": "ym2612"
    },
    {
      "channel": 1,
      "note": 60,
      "start": 10.6656,
      "duration": 0.0661,
      "velocity": 87,
      "chip": "ym2612"
    },
    {
      "channel": 3,
      "note": 66,
      "start": 10.6668,
      "duration": 0.1833,
      "velocity": 87,
      "chip": "ym2612"
    },
    {
      "channel": 5,
      "note": 68,
      "start": 10.6706,
      "duration": 0.1833,
      "velocity": 86,
      "chip": "ym2612"
    },
    {
      "channel": 1,
      "note": 59,
      "start": 10.7318,
      "duration": 0.0499,
      "velocity": 87,
      "chip": "ym2612"
    },
    {
      "channel": 1,
      "note": 58,
      "start": 10.7817,
      "duration": 0.0672,
      "velocity": 87,
      "chip": "ym2612"
    },
    {
      "channel": 1,
      "note": 65,
      "start": 10.849,
      "duration": 0.0493,
      "velocity": 87,
      "chip": "ym2612"
    },
    {
      "channel": 3,
      "note": 65,
      "start": 10.8502,
      "duration": 0.1664,
      "velocity": 87,
      "chip": "ym2612"
    },
    {
      "channel": 5,
      "note": 68,
      "start": 10.8541,
      "duration": 0.1664,
      "velocity": 86,
      "chip": "ym2612"
    },
    {
      "channel": 1,
      "note": 58,
      "start": 10.8984,
      "duration": 0.0666,
      "velocity": 87,
      "chip": "ym2612"
    },
    {
      "channel": 1,
      "note": 59,
      "start": 10.9651,
      "duration": 0.0504,
      "velocity": 87,
      "chip": "ym2612"
    },
    {
      "channel": 1,
      "note": 60,
      "start": 11.0156,
      "duration": 0.066,
      "velocity": 87,
      "chip": "ym2612"
    },
    {
      "channel": 3,
      "note": 64,
      "start": 11.0168,
      "duration": 0.1836,
      "velocity": 87,
      "chip": "ym2612"
    },
    {
      "channel": 5,
      "note": 68,
      "start": 11.0206,
      "duration": 0.1836,
      "velocity": 122,
      "chip": "ym2612"
    },
    {
      "channel": 1,
      "note": 59,
      "start": 11.0818,
      "duration": 0.0499,
      "velocity": 87,
      "chip": "ym2612"
    },
    {
      "channel": 1,
      "note": 58,
      "start": 11.1318,
      "duration": 0.0674,
      "velocity": 87,
      "chip": "ym2612"
    },
    {
      "channel": 1,
      "note": 65,
      "start": 11.1993,
      "duration": 0.049,
      "velocity": 87,
      "chip": "ym2612"
    },
    {
      "channel": 3,
      "note": 59,
      "start": 11.2005,
      "duration": 0.1662,
      "velocity": 87,
      "chip": "ym2612"
    },
    {
      "channel": 5,
      "note": 69,
      "start": 11.2044,
      "duration": 0.1662,
      "velocity": 122,
      "chip": "ym2612"
    },
    {
      "channel": 1,
      "note": 58,
      "start": 11.2484,
      "duration": 0.0667,
      "velocity": 87,
      "chip": "ym2612"
    },
    {
      "channel": 1,
      "note": 59,
      "start": 11.3151,
      "duration": 0.0505,
      "velocity": 87,
      "chip": "ym2612"
    },
    {
      "channel": 1,
      "note": 60,
      "start": 11.3657,
      "duration": 0.0661,
      "velocity": 87,
      "chip": "ym2612"
    },
    {
      "channel": 3,
      "note": 60,
      "start": 11.3668,
      "duration": 0.1833,
      "velocity": 87,
      "chip": "ym2612"
    },
    {
      "channel": 5,
      "note": 69,
      "start": 11.3707,
      "duration": 0.1833,
      "velocity": 127,
      "chip": "ym2612"
    },
    {
      "channel": 1,
      "note": 59,
      "start": 11.4318,
      "duration": 0.0498,
      "velocity": 87,
      "chip": "ym2612"
    },
    {
      "channel": 1,
      "note": 58,
      "start": 11.4818,
      "duration": 0.0672,
      "velocity": 87,
      "chip": "ym2612"
    },
    {
      "channel": 1,
      "note": 65,
      "start": 11.5491,
      "duration": 0.0492,
      "velocity": 87,
      "chip": "ym2612"
    },
    {
      "channel": 3,
      "note": 61,
      "start": 11.5502,
      "duration": 0.1661,
      "velocity": 87,
      "chip": "ym2612"
    },
    {
      "channel": 5,
      "note": 80,
      "start": 11.5541,
      "duration": 0.3499,
      "velocity": 122,
      "chip": "ym2612"
    },
    {
      "channel": 1,
      "note": 58,
      "start": 11.5984,
      "duration": 0.0667,
      "velocity": 87,
      "chip": "ym2612"
    },
    {
      "channel": 1,
      "note": 59,
      "start": 11.6652,
      "duration": 0.0499,
      "velocity": 87,
      "chip": "ym2612"
    },
    {
      "channel": 1,
      "note": 60,
      "start": 11.7152,
      "duration": 0.0665,
      "velocity": 87,
      "chip": "ym2612"
    },
    {
      "channel": 3,
      "note": 62,
      "start": 11.7164,
      "duration": 0.1837,
      "velocity": 87,
      "chip": "ym2612"
    },
    {
      "channel": 1,
      "note": 59,
      "start": 11.7818,
      "duration": 0.0498,
      "velocity": 87,
      "chip": "ym2612"
    },
    {
      "channel": 1,
      "note": 58,
      "start": 11.8318,
      "duration": 0.0672,
      "velocity": 87,
      "chip": "ym2612"
    },
    {
      "channel": 1,
      "note": 65,
      "start": 11.899,
      "duration": 0.0493,
      "velocity": 87,
      "chip": "ym2612"
    },
    {
      "channel": 3,
      "note": 63,
      "start": 11.9002,
      "duration": 0.1665,
      "velocity": 87,
      "chip": "ym2612"
    },
    {
      "channel": 5,
      "note": 69,
      "start": 11.9041,
      "duration": 0.1664,
      "velocity": 122,
      "chip": "ym2612"
    },
    {
      "channel": 1,
      "note": 58,
      "start": 11.9484,
      "duration": 0.0666,
      "velocity": 87,
      "chip": "ym2612"
    },
    {
      "channel": 1,
      "note": 59,
      "start": 12.0152,
      "duration": 0.0503,
      "velocity": 87,
      "chip": "ym2612"
    },
    {
      "channel": 1,
      "note": 60,
      "start": 12.0656,
      "duration": 0.066,
      "velocity": 87,
      "chip": "ym2612"
    },
    {
      "channel": 3,
      "note": 64,
      "start": 12.0668,
      "duration": 0.1834,
      "velocity": 87,
      "chip": "ym2612"
    },
    {
      "channel": 5,
      "note": 69,
      "start": 12.0706,
      "duration": 0.1833,
      "velocity": 127,
      "chip": "ym2612"
    },
    {
      "channel": 1,
      "note": 59,
      "start": 12.1318,
      "duration": 0.0499,
      "velocity": 87,
      "chip": "ym2612"
    },
    {
      "channel": 1,
      "note": 58,
      "start": 12.1818,
      "duration": 0.0672,
      "velocity": 87,
      "chip": "ym2612"
    },
    {
      "channel": 1,
      "note": 65,
      "start": 12.2491,
      "duration": 0.0492,
      "velocity": 87,
      "chip": "ym2612"
    },
    {
      "channel": 3,
      "note": 68,
      "start": 12.2502,
      "duration": 0.1661,
      "velocity": 87,
      "chip": "ym2612"
    },
    {
      "channel": 5,
      "note": 80,
      "start": 12.2541,
      "duration": 0.3547,
      "velocity": 122,
      "chip": "ym2612"
    },
    {
      "channel": 1,
      "note": 58,
      "start": 12.2984,
      "duration": 0.0667,
      "velocity": 87,
      "chip": "ym2612"
    },
    {
      "channel": 1,
      "note": 59,
      "start": 12.3652,
      "duration": 0.0499,
      "velocity": 87,
      "chip": "ym2612"
    },
    {
      "channel": 1,
      "note": 60,
      "start": 12.4152,
      "duration": 0.0665,
      "velocity": 87,
      "chip": "ym2612"
    },
    {
      "channel": 3,
      "note": 67,
      "start": 12.4164,
      "duration": 0.1885,
      "velocity": 87,
      "chip": "ym2612"
    },
    {
      "channel": 1,
      "note": 59,
      "start": 12.4818,
      "duration": 0.0498,
      "velocity": 87,
      "chip": "ym2612"
    },
    {
      "channel": 1,
      "note": 58,
      "start": 12.5318,
      "duration": 0.0686,
      "velocity": 87,
      "chip": "ym2612"
    },
    {
      "channel": 0,
      "note": 68,
      "start": 12.5995,
      "duration": 1.3995,
      "velocity": 67,
      "chip": "ym2612"
    },
    {
      "channel": 1,
      "note": 53,
      "start": 12.6005,
      "duration": 0.1149,
      "velocity": 87,
      "chip": "ym2612"
    },
    {
      "channel": 2,
      "note": 65,
      "start": 12.6041,
      "duration": 1.3969,
      "velocity": 87,
      "chip": "ym2612"
    },
    {
      "channel": 3,
      "note": 65,
      "start": 12.6051,
      "duration": 0.0439,
      "velocity": 87,
      "chip": "ym2612"
    },
    {
      "channel": 5,
      "note": 69,
      "start": 12.6089,
      "duration": 0.1609,
      "velocity": 122,
      "chip": "ym2612"
    },
    {
      "channel": 3,
      "note": 60,
      "start": 12.6491,
      "duration": 0.0676,
      "velocity": 87,
      "chip": "ym2612"
    },
    {
      "channel": 1,
      "note": 61,
      "start": 12.7155,
      "duration": 0.1166,
      "velocity": 87,
      "chip": "ym2612"
    },
    {
      "channel": 3,
      "note": 56,
      "start": 12.7168,
      "duration": 0.0492,
      "velocity": 87,
      "chip": "ym2612"
    },
    {
      "channel": 3,
      "note": 60,
      "start": 12.7661,
      "duration": 0.0672,
      "velocity": 87,
      "chip": "ym2612"
    },
    {
      "channel": 5,
      "note": 69,
      "start": 12.77,
      "duration": 0.1842,
      "velocity": 127,
      "chip": "ym2612"
    },
    {
      "channel": 1,
      "note": 60,
      "start": 12.8322,
      "duration": 0.1168,
      "velocity": 87,
      "chip": "ym2612"
    },
    {
      "channel": 3,
      "note": 65,
      "start": 12.8335,
      "duration": 0.0487,
      "velocity": 87,
      "chip": "ym2612"
    },
    {
      "channel": 4,
      "note": 68,
      "start": 12.8344,
      "duration": 1.3999,
      "velocity": 67,
      "chip": "ym2612"
    },
    {
      "channel": 3,
      "note": 68,
      "start": 12.8823,
      "duration": 0.0679,
      "velocity": 87,
      "chip": "ym2612"
    },
    {
      "channel": 1,
      "note": 59,
      "start": 12.9491,
      "duration": 0.1162,
      "velocity": 87,
      "chip": "ym2612"
    },
    {
      "channel": 3,
      "note": 65,
      "start": 12.9504,
      "duration": 0.0485,
      "velocity": 87,
      "chip": "ym2612"
    },
    {
      "channel": 5,
      "note": 80,
      "start": 12.9544,
      "duration": 0.3498,
      "velocity": 122,
      "chip": "ym2612"
    },
    {
      "channel": 3,
      "note": 60,
      "start": 12.9991,
      "duration": 0.0675,
      "velocity": 87,
      "chip": "ym2612"
    },
    {
      "channel": 1,
      "note": 60,
      "start": 13.0654,
      "duration": 0.1165,
      "velocity": 87,
      "chip": "ym2612"
    },
    {
      "channel": 3,
      "note": 56,
      "start": 13.0667,
      "duration": 0.0489,
      "velocity": 87,
      "chip": "ym2612"
    },
    {
      "channel": 3,
      "note": 60,
      "start": 13.1157,
      "duration": 0.0675,
      "velocity": 87,
      "chip": "ym2612"
    },
    {
      "channel": 1,
      "note": 56,
      "start": 13.182,
      "duration": 0.117,
      "velocity": 87,
      "chip": "ym2612"
    },
    {
      "channel": 3,
      "note": 65,
      "start": 13.1834,
      "duration": 0.0487,
      "velocity": 87,
      "chip": "ym2612"
    },
    {
      "channel": 3,
      "note": 68,
      "start": 13.2321,
      "duration": 0.0681,
      "velocity": 87,
      "chip": "ym2612"
    },
    {
      "channel": 1,
      "note": 53,
      "start": 13.2991,
      "duration": 0.116,
      "velocity": 87,
      "chip": "ym2612"
    },
    {
      "channel": 3,
      "note": 65,
      "start": 13.3003,
      "duration": 0.0484,
      "velocity": 87,
      "chip": "ym2612"
    },
    {
      "channel": 5,
      "note": 69,
      "start": 13.3043,
      "duration": 0.1653,
      "velocity": 122,
      "chip": "ym2612"
    },
    {
      "channel": 3,
      "note": 60,
      "start": 13.3488,
      "duration": 0.0676,
      "velocity": 87,
      "chip": "ym2612"
    },
    {
      "channel": 1,
      "note": 61,
      "start": 13.4153,
      "duration": 0.1165,
      "velocity": 87,
      "chip": "ym2612"
    },
    {
      "channel": 3,
      "note": 56,
      "start": 13.4164,
      "duration": 0.0493,
      "velocity": 87,
      "chip": "ym2612"
    },
    {
      "channel": 3,
      "note": 60,
      "start": 13.4659,
      "duration": 0.0671,
      "velocity": 87,
      "chip": "ym2612"
    },
    {
      "channel": 5,
      "note": 69,
      "start": 13.4698,
      "duration": 0.1841,
      "velocity": 127,
      "chip": "ym2612"
    },
    {
      "channel": 1,
      "note": 60,
      "start": 13.5319,
      "duration": 0.117,
      "velocity": 87,
      "chip": "ym2612"
    },
    {
      "channel": 3,
      "note": 65,
      "start": 13.5331,
      "duration": 0.0489,
      "velocity": 87,
      "chip": "ym2612"
    },
    {
      "channel": 3,
      "note": 68,
      "start": 13.5821,
      "duration": 0.068,
      "velocity": 87,
      "chip": "ym2612"
    },
    {
      "channel": 1,
      "note": 59,
      "start": 13.649,
      "duration": 0.1161,
      "velocity": 87,
      "chip": "ym2612"
    },
    {
      "channel": 3,
      "note": 65,
      "start": 13.6502,
      "duration": 0.0485,
      "velocity": 87,
      "chip": "ym2612"
    },
    {
      "channel": 5,
      "note": 80,
      "start": 13.654,
      "duration": 0.3518,
      "velocity": 122,
      "chip": "ym2612"
    },
    {
      "channel": 3,
      "note": 60,
      "start": 13.6988,
      "duration": 0.0675,
      "velocity": 87,
      "chip": "ym2612"
    },
    {
      "channel": 1,
      "note": 60,
      "start": 13.7652,
      "duration": 0.1166,
      "velocity": 87,
      "chip": "ym2612"
    },
    {
      "channel": 3,
      "note": 56,
      "start": 13.7664,
      "duration": 0.0489,
      "velocity": 87,
      "chip": "ym2612"
    },
    {
      "channel": 3,
      "note": 60,
      "start": 13.8155,
      "duration": 0.0675,
      "velocity": 87,
      "chip": "ym2612"
    },
    {
      "channel": 1,
      "note": 56,
      "start": 13.8819,
      "duration": 0.1181,
      "velocity": 87,
      "chip": "ym2612"
    },
    {
      "channel": 3,
      "note": 65,
      "start": 13.8831,
      "duration": 0.0489,
      "velocity": 87,
      "chip": "ym2612"
    },
    {
      "channel": 3,
      "note": 68,
      "start": 13.9322,
      "duration": 0.0698,
      "velocity": 87,
      "chip": "ym2612"
    },
    {
      "channel": 0,
      "note": 67,
      "start": 13.9991,
      "duration": 1.4001,
      "velocity": 67,
      "chip": "ym2612"
    },
    {
      "channel": 1,
      "note": 53,
      "start": 14.0001,
      "duration": 0.1152,
      "velocity": 87,
      "chip": "ym2612"
    },
    {
      "channel": 2,
      "note": 64,
      "start": 14.001,
      "duration": 1.4001,
      "velocity": 87,
      "chip": "ym2612"
    },
    {
      "channel": 3,
      "note": 65,
      "start": 14.0021,
      "duration": 0.0469,
      "velocity": 87,
      "chip": "ym2612"
    },
    {
      "channel": 5,
      "note": 69,
      "start": 14.0059,
      "duration": 0.164,
      "velocity": 122,
      "chip": "ym2612"
    },
    {
      "channel": 3,
      "note": 60,
      "start": 14.0491,
      "duration": 0.0675,
      "velocity": 87,
      "chip": "ym2612"
    },
    {
      "channel": 1,
      "note": 61,
      "start": 14.1154,
      "duration": 0.1167,
      "velocity": 87,
      "chip": "ym2612"
    },
    {
      "channel": 3,
      "note": 56,
      "start": 14.1167,
      "duration": 0.0493,
      "velocity": 87,
      "chip": "ym2612"
    },
    {
      "channel": 3,
      "note": 60,
      "start": 14.1661,
      "duration": 0.0673,
      "velocity": 87,
      "chip": "ym2612"
    },
    {
      "channel": 5,
      "note": 69,
      "start": 14.17,
      "duration": 0.1843,
      "velocity": 127,
      "chip": "ym2612"
    },
    {
      "channel": 1,
      "note": 60,
      "start": 14.2322,
      "duration": 0.1168,
      "velocity": 87,
      "chip": "ym2612"
    },
    {
      "channel": 3,
      "note": 65,
      "start": 14.2335,
      "duration": 0.0488,
      "velocity": 87,
      "chip": "ym2612"
    },
    {
      "channel": 4,
      "note": 67,
      "start": 14.2345,
      "duration": 1.3999,
      "velocity": 67,
      "chip": "ym2612"
    },
    {
      "channel": 3,
      "note": 68,
      "start": 14.2823,
      "duration": 0.0679,
      "velocity": 87,
      "chip": "ym2612"
    },
    {
      "channel": 1,
      "note": 59,
      "start": 14.3491,
      "duration": 0.1161,
      "velocity": 87,
      "chip": "ym2612"
    },
    {
      "channel": 3,
      "note": 65,
      "start": 14.3504,
      "duration": 0.0485,
      "velocity": 87,
      "chip": "ym2612"
    },
    {
      "channel": 5,
      "note": 80,
      "start": 14.3544,
      "duration": 0.3498,
      "velocity": 122,
      "chip": "ym2612"
    },
    {
      "channel": 3,
      "note": 60,
      "start": 14.3991,
      "duration": 0.0675,
      "velocity": 87,
      "chip": "ym2612"
    },
    {
      "channel": 1,
      "note": 60,
      "start": 14.4654,
      "duration": 0.1165,
      "velocity": 87,
      "chip": "ym2612"
    },
    {
      "channel": 3,
      "note": 56,
      "start": 14.4667,
      "duration": 0.0489,
      "velocity": 87,
      "chip": "ym2612"
    },
    {
      "channel": 3,
      "note": 60,
      "start": 14.5157,
      "duration": 0.0675,
      "velocity": 87,
      "chip": "ym2612"
    },
    {
      "channel": 1,
      "note": 56,
      "start": 14.582,
      "duration": 0.117,
      "velocity": 87,
      "chip": "ym2612"
    },
    {
      "channel": 3,
      "note": 65,
      "start": 14.5834,
      "duration": 0.0487,
      "velocity": 87,
      "chip": "ym2612"
    },
    {
      "channel": 3,
      "note": 68,
      "start": 14.6321,
      "duration": 0.0681,
      "velocity": 87,
      "chip": "ym2612"
    },
    {
      "channel": 1,
      "note": 53,
      "start": 14.6991,
      "duration": 0.116,
      "velocity": 87,
      "chip": "ym2612"
    },
    {
      "channel": 3,
      "note": 65,
      "start": 14.7003,
      "duration": 0.0484,
      "velocity": 87,
      "chip": "ym2612"
    },
    {
      "channel": 5,
      "note": 69,
      "start": 14.7043,
      "duration": 0.1653,
      "velocity": 122,
      "chip": "ym2612"
    },
    {
      "channel": 3,
      "note": 60,
      "start": 14.7488,
      "duration": 0.0676,
      "velocity": 87,
      "chip": "ym2612"
    },
    {
      "channel": 1,
      "note": 61,
      "start": 14.8153,
      "duration": 0.1165,
      "velocity": 87,
      "chip": "ym2612"
    },
    {
      "channel": 3,
      "note": 56,
      "start": 14.8164,
      "duration": 0.0493,
      "velocity": 87,
      "chip": "ym2612"
    },
    {
      "channel": 3,
      "note": 60,
      "start": 14.8659,
      "duration": 0.0671,
      "velocity": 87,
      "chip": "ym2612"
    },
    {
      "channel": 5,
      "note": 69,
      "start": 14.8698,
      "duration": 0.1841,
      "velocity": 127,
      "chip": "ym2612"
    },
    {
      "channel": 1,
      "note": 60,
      "start": 14.9319,
      "duration": 0.117,
      "velocity": 87,
      "chip": "ym2612"
    },
    {
      "channel": 3,
      "note": 65,
      "start": 14.9331,
      "duration": 0.0489,
      "velocity": 87,
      "chip": "ym2612"
    },
    {
      "channel": 3,
      "note": 68,
      "start": 14.9821,
      "duration": 0.068,
      "velocity": 87,
      "chip": "ym2612"
    },
    {
      "channel": 1,
      "note": 59,
      "start": 15.049,
      "duration": 0.1161,
      "velocity": 87,
      "chip": "ym2612"
    },
    {
      "channel": 3,
      "note": 65,
      "start": 15.0502,
      "duration": 0.0485,
      "velocity": 87,
      "chip": "ym2612"
    },
    {
      "channel": 5,
      "note": 80,
      "start": 15.054,
      "duration": 0.3519,
      "velocity": 122,
      "chip": "ym2612"
    },
    {
      "channel": 3,
      "note": 60,
      "start": 15.0988,
      "duration": 0.0675,
      "velocity": 87,
      "chip": "ym2612"
    },
    {
      "channel": 1,
      "note": 60,
      "start": 15.1652,
      "duration": 0.1166,
      "velocity": 87,
      "chip": "ym2612"
    },
    {
      "channel": 3,
      "note": 56,
      "start": 15.1664,
      "duration": 0.0489,
      "velocity": 87,
      "chip": "ym2612"
    },
    {
      "channel": 3,
      "note": 60,
      "start": 15.2155,
      "duration": 0.0675,
      "velocity": 87,
      "chip": "ym2612"
    },
    {
      "channel": 1,
      "note": 56,
      "start": 15.2819,
      "duration": 0.1183,
      "velocity": 87,
      "chip": "ym2612"
    },
    {
      "channel": 3,
      "note": 65,
      "start": 15.2831,
      "duration": 0.0489,
      "velocity": 87,
      "chip": "ym2612"
    },
    {
      "channel": 3,
      "note": 68,
      "start": 15.3322,
      "duration": 0.0699,
      "velocity": 87,
      "chip": "ym2612"
    },
    {
      "channel": 0,
      "note": 72,
      "start": 15.3993,
      "duration": 1.4,
      "velocity": 67,
      "chip": "ym2612"
    },
    {
      "channel": 1,
      "note": 53,
      "start": 15.4002,
      "duration": 0.1151,
      "velocity": 87,
      "chip": "ym2612"
    },
    {
      "channel": 2,
      "note": 68,
      "start": 15.4012,
      "duration": 1.3999,
      "velocity": 87,
      "chip": "ym2612"
    },
    {
      "channel": 3,
      "note": 67,
      "start": 15.4022,
      "duration": 0.0468,
      "velocity": 87,
      "chip": "ym2612"
    },
    {
      "channel": 5,
      "note": 69,
      "start": 15.406,
      "duration": 0.1639,
      "velocity": 122,
      "chip": "ym2612"
    },
    {
      "channel": 3,
      "note": 61,
      "start": 15.4491,
      "duration": 0.0675,
      "velocity": 87,
      "chip": "ym2612"
    },
    {
      "channel": 1,
      "note": 63,
      "start": 15.5154,
      "duration": 0.1167,
      "velocity": 87,
      "chip": "ym2612"
    },
    {
      "channel": 3,
      "note": 58,
      "start": 15.5167,
      "duration": 0.0494,
      "velocity": 87,
      "chip": "ym2612"
    },
    {
      "channel": 3,
      "note": 55,
      "start": 15.5661,
      "duration": 0.0673,
      "velocity": 87,
      "chip": "ym2612"
    },
    {
      "channel": 5,
      "note": 69,
      "start": 15.57,
      "duration": 0.1843,
      "velocity": 127,
      "chip": "ym2612"
    },
    {
      "channel": 1,
      "note": 61,
      "start": 15.6322,
      "duration": 0.1168,
      "velocity": 87,
      "chip": "ym2612"
    },
    {
      "channel": 3,
      "note": 58,
      "start": 15.6335,
      "duration": 0.0487,
      "velocity": 87,
      "chip": "ym2612"
    },
    {
      "channel": 4,
      "note": 72,
      "start": 15.6345,
      "duration": 1.3999,
      "velocity": 67,
      "chip": "ym2612"
    },
    {
      "channel": 3,
      "note": 61,
      "start": 15.6824,
      "duration": 0.0679,
      "velocity": 87,
      "chip": "ym2612"
    },
    {
      "channel": 1,
      "note": 53,
      "start": 15.7491,
      "duration": 0.1162,
      "velocity": 87,
      "chip": "ym2612"
    },
    {
      "channel": 3,
      "note": 67,
      "start": 15.7504,
      "duration": 0.0485,
      "velocity": 87,
      "chip": "ym2612"
    },
    {
      "channel": 5,
      "note": 80,
      "start": 15.7544,
      "duration": 0.3497,
      "velocity": 122,
      "chip": "ym2612"
    },
    {
      "channel": 3,
      "note": 61,
      "start": 15.7991,
      "duration": 0.0676,
      "velocity": 87,
      "chip": "ym2612"
    },
    {
      "channel": 1,
      "note": 61,
      "start": 15.8654,
      "duration": 0.1165,
      "velocity": 87,
      "chip": "ym2612"
    },
    {
      "channel": 3,
      "note": 58,
      "start": 15.8667,
      "duration": 0.0489,
      "velocity": 87,
      "chip": "ym2612"
    },
    {
      "channel": 3,
      "note": 55,
      "start": 15.9157,
      "duration": 0.0675,
      "velocity": 87,
      "chip": "ym2612"
    },
    {
      "channel": 1,
      "note": 58,
      "start": 15.9821,
      "duration": 0.1169,
      "velocity": 87,
      "chip": "ym2612"
    },
    {
      "channel": 3,
      "note": 58,
      "start": 15.9834,
      "duration": 0.0487,
      "velocity": 87,
      "chip": "ym2612"
    },
    {
      "channel": 3,
      "note": 61,
      "start": 16.0322,
      "duration": 0.068,
      "velocity": 87,
      "chip": "ym2612"
    },
    {
      "channel": 1,
      "note": 53,
      "start": 16.0991,
      "duration": 0.116,
      "velocity": 87,
      "chip": "ym2612"
    },
    {
      "channel": 3,
      "note": 67,
      "start": 16.1003,
      "duration": 0.0484,
      "velocity": 87,
      "chip": "ym2612"
    },
    {
      "channel": 5,
      "note": 69,
      "start": 16.1043,
      "duration": 0.1653,
      "velocity": 122,
      "chip": "ym2612"
    },
    {
      "channel": 3,
      "note": 61,
      "start": 16.1488,
      "duration": 0.0676,
      "velocity": 87,
      "chip": "ym2612"
    },
    {
      "channel": 1,
      "note": 63,
      "start": 16.2153,
      "duration": 0.1165,
      "velocity": 87,
      "chip": "ym2612"
    },
    {
      "channel": 3,
      "note": 58,
      "start": 16.2164,
      "duration": 0.0493,
      "velocity": 87,
      "chip": "ym2612"
    },
    {
      "channel": 3,
      "note": 55,
      "start": 16.2659,
      "duration": 0.0671,
      "velocity": 87,
      "chip": "ym2612"
    },
    {
      "channel": 5,
      "note": 69,
      "start": 16.2698,
      "duration": 0.1841,
      "velocity": 122,
      "chip": "ym2612"
    },
    {
      "channel": 1,
      "note": 61,
      "start": 16.3319,
      "duration": 0.117,
      "velocity": 87,
      "chip": "ym2612"
    },
    {
      "channel": 3,
      "note": 58,
      "start": 16.3331,
      "duration": 0.0489,
      "velocity": 87,
      "chip": "ym2612"
    },
    {
      "channel": 3,
      "note": 61,
      "start": 16.3821,
      "duration": 0.0679,
      "velocity": 87,
      "chip": "ym2612"
    },
    {
      "channel": 1,
      "note": 53,
      "start": 16.449,
      "duration": 0.1162,
      "velocity": 87,
      "chip": "ym2612"
    },
    {
      "channel": 3,
      "note": 67,
      "start": 16.4502,
      "duration": 0.0485,
      "velocity": 87,
      "chip": "ym2612"
    },
    {
      "channel": 5,
      "note": 69,
      "start": 16.454,
      "duration": 0.1656,
      "velocity": 122,
      "chip": "ym2612"
    },
    {
      "channel": 3,
      "note": 61,
      "start": 16.4988,
      "duration": 0.0676,
      "velocity": 87,
      "chip": "ym2612"
    },
    {
      "channel": 1,
      "note": 61,
      "start": 16.5653,
      "duration": 0.1166,
      "velocity": 87,
      "chip": "ym2612"
    },
    {
      "channel": 3,
      "note": 58,
      "start": 16.5665,
      "duration": 0.0493,
      "velocity": 87,
      "chip": "ym2612"
    },
    {
      "channel": 3,
      "note": 55,
      "start": 16.6159,
      "duration": 0.0671,
      "velocity": 87,
      "chip": "ym2612"
    },
    {
      "channel": 5,
      "note": 69,
      "start": 16.6198,
      "duration": 0.1861,
      "velocity": 122,
      "chip": "ym2612"
    },
    {
      "channel": 1,
      "note": 58,
      "start": 16.6819,
      "duration": 0.1183,
      "velocity": 87,
      "chip": "ym2612"
    },
    {
      "channel": 3,
      "note": 58,
      "start": 16.6831,
      "duration": 0.0489,
      "velocity": 87,
      "chip": "ym2612"
    },
    {
      "channel": 3,
      "note": 61,
      "start": 16.7322,
      "duration": 0.0699,
      "velocity": 87,
      "chip": "ym2612"
    },
    {
      "channel": 0,
      "note": 70,
      "start": 16.7993,
      "duration": 1.3999,
      "velocity": 67,
      "chip": "ym2612"
    },
    {
      "channel": 1,
      "note": 53,
      "start": 16.8002,
      "duration": 0.1151,
      "velocity": 87,
      "chip": "ym2612"
    },
    {
      "channel": 2,
      "note": 67,
      "start": 16.8012,
      "duration": 1.3999,
      "velocity": 87,
      "chip": "ym2612"
    },
    {
      "channel": 3,
      "note": 67,
      "start": 16.8021,
      "duration": 0.0468,
      "velocity": 87,
      "chip": "ym2612"
    },
    {
      "channel": 5,
      "note": 69,
      "start": 16.806,
      "duration": 0.1639,
      "velocity": 122,
      "chip": "ym2612"
    },
    {
      "channel": 3,
      "note": 61,
      "start": 16.849,
      "duration": 0.0676,
      "velocity": 87,
      "chip": "ym2612"
    },
    {
      "channel": 1,
      "note": 63,
      "start": 16.9154,
      "duration": 0.1167,
      "velocity": 87,
      "chip": "ym2612"
    },
    {
      "channel": 3,
      "note": 58,
      "start": 16.9167,
      "duration": 0.0493,
      "velocity": 87,
      "chip": "ym2612"
    },
    {
      "channel": 3,
      "note": 55,
      "start": 16.9661,
      "duration": 0.0673,
      "velocity": 87,
      "chip": "ym2612"
    },
    {
      "channel": 5,
      "note": 69,
      "start": 16.97,
      "duration": 0.1843,
      "velocity": 127,
      "chip": "ym2612"
    },
    {
      "channel": 1,
      "note": 61,
      "start": 17.0322,
      "duration": 0.1168,
      "velocity": 87,
      "chip": "ym2612"
    },
    {
      "channel": 3,
      "note": 58,
      "start": 17.0335,
      "duration": 0.0488,
      "velocity": 87,
      "chip": "ym2612"
    },
    {
      "channel": 4,
      "note": 70,
      "start": 17.0345,
      "duration": 1.3998,
      "velocity": 67,
      "chip": "ym2612"
    },
    {
      "channel": 3,
      "note": 61,
      "start": 17.0824,
      "duration": 0.0679,
      "velocity": 87,
      "chip": "ym2612"
    },
    {
      "channel": 1,
      "note": 53,
      "start": 17.1491,
      "duration": 0.1161,
      "velocity": 87,
      "chip": "ym2612"
    },
    {
      "channel": 3,
      "note": 67,
      "start": 17.1504,
      "duration": 0.0485,
      "velocity": 87,
      "chip": "ym2612"
    },
    {
      "channel": 5,
      "note": 80,
      "start": 17.1544,
      "duration": 0.3497,
      "velocity": 122,
      "chip": "ym2612"
    },
    {
      "channel": 3,
      "note": 61,
      "start": 17.1991,
      "duration": 0.0676,
      "velocity": 87,
      "chip": "ym2612"
    },
    {
      "channel": 1,
      "note": 61,
      "start": 17.2654,
      "duration": 0.1165,
      "velocity": 87,
      "chip": "ym2612"
    },
    {
      "channel": 3,
      "note": 58,
      "start": 17.2667,
      "duration": 0.0489,
      "velocity": 87,
      "chip": "ym2612"
    },
    {
      "channel": 3,
      "note": 55,
      "start": 17.3157,
      "duration": 0.0675,
      "velocity": 87,
      "chip": "ym2612"
    },
    {
      "channel": 1,
      "note": 58,
      "start": 17.3821,
      "duration": 0.1168,
      "velocity": 87,
      "chip": "ym2612"
    },
    {
      "channel": 3,
      "note": 58,
      "start": 17.3834,
      "duration": 0.0487,
      "velocity": 87,
      "chip": "ym2612"
    },
    {
      "channel": 3,
      "note": 61,
      "start": 17.4322,
      "duration": 0.068,
      "velocity": 87,
      "chip": "ym2612"
    },
    {
      "channel": 1,
      "note": 53,
      "start": 17.4991,
      "duration": 0.1162,
      "velocity": 87,
      "chip": "ym2612"
    },
    {
      "channel": 3,
      "note": 67,
      "start": 17.5003,
      "duration": 0.0484,
      "velocity": 87,
      "chip": "ym2612"
    },
    {
      "channel": 5,
      "note": 69,
      "start": 17.5042,
      "duration": 0.1654,
      "velocity": 122,
      "chip": "ym2612"
    },
    {
      "channel": 3,
      "note": 61,
      "start": 17.5488,
      "duration": 0.0676,
      "velocity": 87,
      "chip": "ym2612"
    },
    {
      "channel": 1,
      "note": 63,
      "start": 17.6153,
      "duration": 0.1166,
      "velocity": 87,
      "chip": "ym2612"
    },
    {
      "channel": 3,
      "note": 58,
      "start": 17.6165,
      "duration": 0.0492,
      "velocity": 87,
      "chip": "ym2612"
    },
    {
      "channel": 3,
      "note": 55,
      "start": 17.6659,
      "duration": 0.0671,
      "velocity": 87,
      "chip": "ym2612"
    },
    {
      "channel": 5,
      "note": 69,
      "start": 17.6698,
      "duration": 0.1842,
      "velocity": 127,
      "chip": "ym2612"
    },
    {
      "channel": 1,
      "note": 61,
      "start": 17.7319,
      "duration": 0.117,
      "velocity": 87,
      "chip": "ym2612"
    },
    {
      "channel": 3,
      "note": 58,
      "start": 17.7331,
      "duration": 0.0489,
      "velocity": 87,
      "chip": "ym2612"
    },
    {
      "channel": 3,
      "note": 61,
      "start": 17.7822,
      "duration": 0.0679,
      "velocity": 87,
      "chip": "ym2612"
    },
    {
      "channel": 1,
      "note": 53,
      "start": 17.849,
      "duration": 0.1162,
      "velocity": 87,
      "chip": "ym2612"
    },
    {
      "channel": 3,
      "note": 67,
      "start": 17.8502,
      "duration": 0.0484,
      "velocity": 87,
      "chip": "ym2612"
    },
    {
      "channel": 5,
      "note": 80,
      "start": 17.8541,
      "duration": 0.3518,
      "velocity": 122,
      "chip": "ym2612"
    },
    {
      "channel": 3,
      "note": 61,
      "start": 17.8988,
      "duration": 0.0676,
      "velocity": 87,
      "chip": "ym2612"
    },
    {
      "channel": 1,
      "note": 61,
      "start": 17.9653,
      "duration": 0.1166,
      "velocity": 87,
      "chip": "ym2612"
    },
    {
      "channel": 3,
      "note": 58,
      "start": 17.9664,
      "duration": 0.0489,
      "velocity": 87,
      "chip": "ym2612"
    },
    {
      "channel": 3,
      "note": 55,
      "start": 18.0155,
      "duration": 0.0675,
      "velocity": 87,
      "chip": "ym2612"
    },
    {
      "channel": 1,
      "note": 58,
      "start": 18.0819,
      "duration": 0.1182,
      "velocity": 87,
      "chip": "ym2612"
    },
    {
      "channel": 3,
      "note": 58,
      "start": 18.0831,
      "duration": 0.0489,
      "velocity": 87,
      "chip": "ym2612"
    },
    {
      "channel": 3,
      "note": 61,
      "start": 18.1321,
      "duration": 0.0699,
      "velocity": 87,
      "chip": "ym2612"
    },
    {
      "channel": 0,
      "note": 75,
      "start": 18.1993,
      "duration": 1.3998,
      "velocity": 67,
      "chip": "ym2612"
    },
    {
      "channel": 1,
      "note": 53,
      "start": 18.2002,
      "duration": 0.1151,
      "velocity": 87,
      "chip": "ym2612"
    },
    {
      "channel": 2,
      "note": 72,
      "start": 18.2012,
      "duration": 1.3998,
      "velocity": 87,
      "chip": "ym2612"
    },
    {
      "channel": 3,
      "note": 73,
      "start": 18.2021,
      "duration": 0.0468,
      "velocity": 87,
      "chip": "ym2612"
    },
    {
      "channel": 5,
      "note": 69,
      "start": 18.206,
      "duration": 0.1639,
      "velocity": 122,
      "chip": "ym2612"
    },
    {
      "channel": 3,
      "note": 72,
      "start": 18.249,
      "duration": 0.0676,
      "velocity": 87,
      "chip": "ym2612"
    },
    {
      "channel": 1,
      "note": 63,
      "start": 18.3154,
      "duration": 0.1167,
      "velocity": 87,
      "chip": "ym2612"
    },
    {
      "channel": 3,
      "note": 68,
      "start": 18.3167,
      "duration": 0.0493,
      "velocity": 87,
      "chip": "ym2612"
    },
    {
      "channel": 3,
      "note": 64,
      "start": 18.3661,
      "duration": 0.0673,
      "velocity": 87,
      "chip": "ym2612"
    },
    {
      "channel": 5,
      "note": 69,
      "start": 18.3699,
      "duration": 0.1844,
      "velocity": 127,
      "chip": "ym2612"
    },
    {
      "channel": 1,
      "note": 61,
      "start": 18.4322,
      "duration": 0.1169,
      "velocity": 87,
      "chip": "ym2612"
    },
    {
      "channel": 3,
      "note": 65,
      "start": 18.4335,
      "duration": 0.0488,
      "velocity": 87,
      "chip": "ym2612"
    },
    {
      "channel": 4,
      "note": 75,
      "start": 18.4344,
      "duration": 1.3999,
      "velocity": 67,
      "chip": "ym2612"
    },
    {
      "channel": 3,
      "note": 68,
      "start": 18.4823,
      "duration": 0.068,
      "velocity": 87,
      "chip": "ym2612"
    },
    {
      "channel": 1,
      "note": 53,
      "start": 18.5492,
      "duration": 0.1161,
      "velocity": 87,
      "chip": "ym2612"
    },
    {
      "channel": 3,
      "note": 73,
      "start": 18.5505,
      "duration": 0.0485,
      "velocity": 87,
      "chip": "ym2612"
    },
    {
      "channel": 5,
      "note": 80,
      "start": 18.5544,
      "duration": 0.3497,
      "velocity": 122,
      "chip": "ym2612"
    },
    {
      "channel": 3,
      "note": 72,
      "start": 18.5991,
      "duration": 0.0675,
      "velocity": 87,
      "chip": "ym2612"
    },
    {
      "channel": 1,
      "note": 61,
      "start": 18.6654,
      "duration": 0.1165,
      "velocity": 87,
      "chip": "ym2612"
    },
    {
      "channel": 3,
      "note": 68,
      "start": 18.6667,
      "duration": 0.0489,
      "velocity": 87,
      "chip": "ym2612"
    },
    {
      "channel": 3,
      "note": 64,
      "start": 18.7157,
      "duration": 0.0674,
      "velocity": 87,
      "chip": "ym2612"
    },
    {
      "channel": 1,
      "note": 58,
      "start": 18.782,
      "duration": 0.117,
      "velocity": 87,
      "chip": "ym2612"
    },
    {
      "channel": 3,
      "note": 65,
      "start": 18.7833,
      "duration": 0.0487,
      "velocity": 87,
      "chip": "ym2612"
    },
    {
      "channel": 3,
      "note": 68,
      "start": 18.8322,
      "duration": 0.068,
      "velocity": 87,
      "chip": "ym2612"
    },
    {
      "channel": 1,
      "note": 53,
      "start": 18.8991,
      "duration": 0.1162,
      "velocity": 87,
      "chip": "ym2612"
    },
    {
      "channel": 3,
      "note": 73,
      "start": 18.9003,
      "duration": 0.0484,
      "velocity": 87,
      "chip": "ym2612"
    },
    {
      "channel": 5,
      "note": 69,
      "start": 18.9042,
      "duration": 0.1654,
      "velocity": 122,
      "chip": "ym2612"
    },
    {
      "channel": 3,
      "note": 72,
      "start": 18.9488,
      "duration": 0.0676,
      "velocity": 87,
      "chip": "ym2612"
    },
    {
      "channel": 1,
      "note": 63,
      "start": 19.0154,
      "duration": 0.1164,
      "velocity": 87,
      "chip": "ym2612"
    },
    {
      "channel": 3,
      "note": 68,
      "start": 19.0165,
      "duration": 0.0492,
      "velocity": 87,
      "chip": "ym2612"
    },
    {
      "channel": 3,
      "note": 64,
      "start": 19.0659,
      "duration": 0.0671,
      "velocity": 87,
      "chip": "ym2612"
    },
    {
      "channel": 5,
      "note": 69,
      "start": 19.0698,
      "duration": 0.1841,
      "velocity": 127,
      "chip": "ym2612"
    },
    {
      "channel": 1,
      "note": 61,
      "start": 19.1319,
      "duration": 0.117,
      "velocity": 87,
      "chip": "ym2612"
    },
    {
      "channel": 3,
      "note": 65,
      "start": 19.133,
      "duration": 0.049,
      "velocity": 87,
      "chip": "ym2612"
    },
    {
      "channel": 3,
      "note": 68,
      "start": 19.1821,
      "duration": 0.068,
      "velocity": 87,
      "chip": "ym2612"
    },
    {
      "channel": 1,
      "note": 53,
      "start": 19.249,
      "duration": 0.1162,
      "velocity": 87,
      "chip": "ym2612"
    },
    {
      "channel": 3,
      "note": 73,
      "start": 19.2502,
      "duration": 0.0485,
      "velocity": 87,
      "chip": "ym2612"
    },
    {
      "channel": 5,
      "note": 80,
      "start": 19.254,
      "duration": 0.3518,
      "velocity": 122,
      "chip": "ym2612"
    },
    {
      "channel": 3,
      "note": 72,
      "start": 19.2988,
      "duration": 0.0676,
      "velocity": 87,
      "chip": "ym2612"
    },
    {
      "channel": 1,
      "note": 61,
      "start": 19.3653,
      "duration": 0.1165,
      "velocity": 87,
      "chip": "ym2612"
    },
    {
      "channel": 3,
      "note": 68,
      "start": 19.3665,
      "duration": 0.0488,
      "velocity": 87,
      "chip": "ym2612"
    },
    {
      "channel": 3,
      "note": 64,
      "start": 19.4154,
      "duration": 0.0676,
      "velocity": 87,
      "chip": "ym2612"
    },
    {
      "channel": 1,
      "note": 58,
      "start": 19.4819,
      "duration": 0.1181,
      "velocity": 87,
      "chip": "ym2612"
    },
    {
      "channel": 3,
      "note": 65,
      "start": 19.483,
      "duration": 0.049,
      "velocity": 87,
      "chip": "ym2612"
    },
    {
      "channel": 3,
      "note": 68,
      "start": 19.5321,
      "duration": 0.0698,
      "velocity": 87,
      "chip": "ym2612"
    },
    {
      "channel": 0,
      "note": 73,
      "start": 19.5992,
      "duration": 1.4,
      "velocity": 67,
      "chip": "ym2612"
    },
    {
      "channel": 1,
      "note": 53,
      "start": 19.6002,
      "duration": 0.1152,
      "velocity": 87,
      "chip": "ym2612"
    },
    {
      "channel": 2,
      "note": 70,
      "start": 19.6011,
      "duration": 1.4001,
      "velocity": 87,
      "chip": "ym2612"
    },
    {
      "channel": 3,
      "note": 73,
      "start": 19.6021,
      "duration": 0.0468,
      "velocity": 87,
      "chip": "ym2612"
    },
    {
      "channel": 5,
      "note": 69,
      "start": 19.6059,
      "duration": 0.1639,
      "velocity": 122,
      "chip": "ym2612"
    },
    {
      "channel": 3,
      "note": 72,
      "start": 19.649,
      "duration": 0.0676,
      "velocity": 87,
      "chip": "ym2612"
    },
    {
      "channel": 1,
      "note": 63,
      "start": 19.7154,
      "duration": 0.1167,
      "velocity": 87,
      "chip": "ym2612"
    },
    {
      "channel": 3,
      "note": 68,
      "start": 19.7167,
      "duration": 0.0493,
      "velocity": 87,
      "chip": "ym2612"
    },
    {
      "channel": 3,
      "note": 64,
      "start": 19.7661,
      "duration": 0.0672,
      "velocity": 87,
      "chip": "ym2612"
    },
    {
      "channel": 5,
      "note": 69,
      "start": 19.77,
      "duration": 0.1843,
      "velocity": 127,
      "chip": "ym2612"
    },
    {
      "channel": 1,
      "note": 61,
      "start": 19.8322,
      "duration": 0.1168,
      "velocity": 87,
      "chip": "ym2612"
    },
    {
      "channel": 3,
      "note": 65,
      "start": 19.8335,
      "duration": 0.0488,
      "velocity": 87,
      "chip": "ym2612"
    },
    {
      "channel": 4,
      "note": 73,
      "start": 19.8344,
      "duration": 1.3999,
      "velocity": 67,
      "chip": "ym2612"
    },
    {
      "channel": 3,
      "note": 68,
      "start": 19.8824,
      "duration": 0.0679,
      "velocity": 87,
      "chip": "ym2612"
    },
    {
      "channel": 1,
      "note": 53,
      "start": 19.9491,
      "duration": 0.1162,
      "velocity": 87,
      "chip": "ym2612"
    },
    {
      "channel": 3,
      "note": 73,
      "start": 19.9504,
      "duration": 0.0485,
      "velocity": 87,
      "chip": "ym2612"
    },
    {
      "channel": 5,
      "note": 80,
      "start": 19.9544,
      "duration": 0.3497,
      "velocity": 122,
      "chip": "ym2612"
    },
    {
      "channel": 3,
      "note": 72,
      "start": 19.999,
      "duration": 0.0676,
      "velocity": 87,
      "chip": "ym2612"
    },
    {
      "channel": 1,
      "note": 61,
      "start": 20.0654,
      "duration": 0.1165,
      "velocity": 87,
      "chip": "ym2612"
    },
    {
      "channel": 3,
      "note": 68,
      "start": 20.0668,
      "duration": 0.0488,
      "velocity": 87,
      "chip": "ym2612"
    },
    {
      "channel": 3,
      "note": 64,
      "start": 20.1157,
      "duration": 0.0675,
      "velocity": 87,
      "chip": "ym2612"
    },
    {
      "channel": 1,
      "note": 58,
      "start": 20.182,
      "duration": 0.117,
      "velocity": 87,
      "chip": "ym2612"
    },
    {
      "channel": 3,
      "note": 65,
      "start": 20.1833,
      "duration": 0.0488,
      "velocity": 87,
      "chip": "ym2612"
    },
    {
      "channel": 3,
      "note": 68,
      "start": 20.2322,
      "duration": 0.068,
      "velocity": 87,
      "chip": "ym2612"
    },
    {
      "channel": 1,
      "note": 53,
      "start": 20.2991,
      "duration": 0.116,
      "velocity": 87,
      "chip": "ym2612"
    },
    {
      "channel": 3,
      "note": 73,
      "start": 20.3003,
      "duration": 0.0484,
      "velocity": 87,
      "chip": "ym2612"
    },
    {
      "channel": 5,
      "note": 69,
      "start": 20.3043,
      "duration": 0.1653,
      "velocity": 122,
      "chip": "ym2612"
    },
    {
      "channel": 3,
      "note": 72,
      "start": 20.3488,
      "duration": 0.0676,
      "velocity": 87,
      "chip": "ym2612"
    },
    {
      "channel": 1,
      "note": 63,
      "start": 20.4153,
      "duration": 0.1166,
      "velocity": 87,
      "chip": "ym2612"
    },
    {
      "channel": 3,
      "note": 68,
      "start": 20.4164,
      "duration": 0.0493,
      "velocity": 87,
      "chip": "ym2612"
    },
    {
      "channel": 3,
      "note": 64,
      "start": 20.4659,
      "duration": 0.0671,
      "velocity": 87,
      "chip": "ym2612"
    },
    {
      "channel": 5,
      "note": 69,
      "start": 20.4698,
      "duration": 0.1842,
      "velocity": 127,
      "chip": "ym2612"
    },
    {
      "channel": 1,
      "note": 61,
      "start": 20.5319,
      "duration": 0.117,
      "velocity": 87,
      "chip": "ym2612"
    },
    {
      "channel": 3,
      "note": 65,
      "start": 20.5331,
      "duration": 0.0489,
      "velocity": 87,
      "chip": "ym2612"
    },
    {
      "channel": 3,
      "note": 68,
      "start": 20.5821,
      "duration": 0.068,
      "velocity": 87,
      "chip": "ym2612"
    },
    {
      "channel": 1,
      "note": 53,
      "start": 20.649,
      "duration": 0.1162,
      "velocity": 87,
      "chip": "ym2612"
    },
    {
      "channel": 3,
      "note": 73,
      "start": 20.6502,
      "duration": 0.0485,
      "velocity": 87,
      "chip": "ym2612"
    },
    {
      "channel": 5,
      "note": 80,
      "start": 20.654,
      "duration": 0.3519,
      "velocity": 122,
      "chip": "ym2612"
    },
    {
      "channel": 3,
      "note": 72,
      "start": 20.6988,
      "duration": 0.0675,
      "velocity": 87,
      "chip": "ym2612"
    },
    {
      "channel": 1,
      "note": 61,
      "start": 20.7653,
      "duration": 0.1165,
      "velocity": 87,
      "chip": "ym2612"
    },
    {
      "channel": 3,
      "note": 68,
      "start": 20.7664,
      "duration": 0.0489,
      "velocity": 87,
      "chip": "ym2612"
    },
    {
      "channel": 3,
      "note": 64,
      "start": 20.8155,
      "duration": 0.0674,
      "velocity": 87,
      "chip": "ym2612"
    },
    {
      "channel": 1,
      "note": 58,
      "start": 20.8818,
      "duration": 0.1184,
      "velocity": 87,
      "chip": "ym2612"
    },
    {
      "channel": 3,
      "note": 65,
      "start": 20.883,
      "duration": 0.049,
      "velocity": 87,
      "chip": "ym2612"
    },
    {
      "channel": 3,
      "note": 68,
      "start": 20.9322,
      "duration": 0.07,
      "velocity": 87,
      "chip": "ym2612"
    },
    {
      "channel": 0,
      "note": 72,
      "start": 20.9993,
      "duration": 1.3998,
      "velocity": 67,
      "chip": "ym2612"
    },
    {
      "channel": 1,
      "note": 52,
      "start": 21.0003,
      "duration": 0.1151,
      "velocity": 87,
      "chip": "ym2612"
    },
    {
      "channel": 2,
      "note": 68,
      "start": 21.0012,
      "duration": 1.3998,
      "velocity": 87,
      "chip": "ym2612"
    },
    {
      "channel": 3,
      "note": 70,
      "start": 21.0022,
      "duration": 0.0468,
      "velocity": 87,
      "chip": "ym2612"
    },
    {
      "channel": 5,
      "note": 69,
      "start": 21.0061,
      "duration": 0.1638,
      "velocity": 122,
      "chip": "ym2612"
    },
    {
      "channel": 3,
      "note": 68,
      "start": 21.049,
      "duration": 0.0676,
      "velocity": 87,
      "chip": "ym2612"
    },
    {
      "channel": 1,
      "note": 61,
      "start": 21.1155,
      "duration": 0.1167,
      "velocity": 87,
      "chip": "ym2612"
    },
    {
      "channel": 3,
      "note": 70,
      "start": 21.1168,
      "duration": 0.0492,
      "velocity": 87,
      "chip": "ym2612"
    },
    {
      "channel": 3,
      "note": 67,
      "start": 21.1661,
      "duration": 0.0673,
      "velocity": 87,
      "chip": "ym2612"
    },
    {
      "channel": 5,
      "note": 69,
      "start": 21.17,
      "duration": 0.1843,
      "velocity": 127,
      "chip": "ym2612"
    },
    {
      "channel": 1,
      "note": 60,
      "start": 21.2322,
      "duration": 0.1168,
      "velocity": 87,
      "chip": "ym2612"
    },
    {
      "channel": 3,
      "note": 64,
      "start": 21.2335,
      "duration": 0.0488,
      "velocity": 87,
      "chip": "ym2612"
    },
    {
      "channel": 4,
      "note": 72,
      "start": 21.2345,
      "duration": 1.4006,
      "velocity": 67,
      "chip": "ym2612"
    },
    {
      "channel": 3,
      "note": 67,
      "start": 21.2823,
      "duration": 0.0679,
      "velocity": 87,
      "chip": "ym2612"
    },
    {
      "channel": 1,
      "note": 58,
      "start": 21.3491,
      "duration": 0.1161,
      "velocity": 87,
      "chip": "ym2612"
    },
    {
      "channel": 3,
      "note": 70,
      "start": 21.3504,
      "duration": 0.0485,
      "velocity": 87,
      "chip": "ym2612"
    },
    {
      "channel": 5,
      "note": 80,
      "start": 21.3544,
      "duration": 0.3498,
      "velocity": 122,
      "chip": "ym2612"
    },
    {
      "channel": 3,
      "note": 68,
      "start": 21.3991,
      "duration": 0.0675,
      "velocity": 87,
      "chip": "ym2612"
    },
    {
      "channel": 1,
      "note": 60,
      "start": 21.4654,
      "duration": 0.1165,
      "velocity": 87,
      "chip": "ym2612"
    },
    {
      "channel": 3,
      "note": 70,
      "start": 21.4667,
      "duration": 0.0489,
      "velocity": 87,
      "chip": "ym2612"
    },
    {
      "channel": 3,
      "note": 67,
      "start": 21.5157,
      "duration": 0.0675,
      "velocity": 87,
      "chip": "ym2612"
    },
    {
      "channel": 1,
      "note": 55,
      "start": 21.582,
      "duration": 0.117,
      "velocity": 87,
      "chip": "ym2612"
    },
    {
      "channel": 3,
      "note": 64,
      "start": 21.5834,
      "duration": 0.0487,
      "velocity": 87,
      "chip": "ym2612"
    },
    {
      "channel": 3,
      "note": 67,
      "start": 21.6321,
      "duration": 0.0681,
      "velocity": 87,
      "chip": "ym2612"
    },
    {
      "channel": 1,
      "note": 52,
      "start": 21.6991,
      "duration": 0.116,
      "velocity": 87,
      "chip": "ym2612"
    },
    {
      "channel": 3,
      "note": 70,
      "start": 21.7003,
      "duration": 0.0485,
      "velocity": 87,
      "chip": "ym2612"
    },
    {
      "channel": 5,
      "note": 69,
      "start": 21.7043,
      "duration": 0.1653,
      "velocity": 122,
      "chip": "ym2612"
    },
    {
      "channel": 3,
      "note": 68,
      "start": 21.7489,
      "duration": 0.0675,
      "velocity": 87,
      "chip": "ym2612"
    },
    {
      "channel": 1,
      "note": 61,
      "start": 21.8153,
      "duration": 0.1165,
      "velocity": 87,
      "chip": "ym2612"
    },
    {
      "channel": 3,
      "note": 70,
      "start": 21.8164,
      "duration": 0.0493,
      "velocity": 87,
      "chip": "ym2612"
    },
    {
      "channel": 3,
      "note": 67,
      "start": 21.8659,
      "duration": 0.0671,
      "velocity": 87,
      "chip": "ym2612"
    },
    {
      "channel": 5,
      "note": 69,
      "start": 21.8698,
      "duration": 0.1841,
      "velocity": 122,
      "chip": "ym2612"
    },
    {
      "channel": 1,
      "note": 60,
      "start": 21.9319,
      "duration": 0.117,
      "velocity": 87,
      "chip": "ym2612"
    },
    {
      "channel": 3,
      "note": 64,
      "start": 21.9331,
      "duration": 0.0489,
      "velocity": 87,
      "chip": "ym2612"
    },
    {
      "channel": 3,
      "note": 67,
      "start": 21.9821,
      "duration": 0.0679,
      "velocity": 87,
      "chip": "ym2612"
    },
    {
      "channel": 1,
      "note": 58,
      "start": 22.049,
      "duration": 0.1161,
      "velocity": 87,
      "chip": "ym2612"
    },
    {
      "channel": 3,
      "note": 70,
      "start": 22.0502,
      "duration": 0.0485,
      "velocity": 87,
      "chip": "ym2612"
    },
    {
      "channel": 5,
      "note": 69,
      "start": 22.054,
      "duration": 0.1656,
      "velocity": 122,
      "chip": "ym2612"
    },
    {
      "channel": 3,
      "note": 68,
      "start": 22.0988,
      "duration": 0.0675,
      "velocity": 87,
      "chip": "ym2612"
    },
    {
      "channel": 1,
      "note": 60,
      "start": 22.1652,
      "duration": 0.1166,
      "velocity": 87,
      "chip": "ym2612"
    },
    {
      "channel": 3,
      "note": 70,
      "start": 22.1664,
      "duration": 0.0493,
      "velocity": 87,
      "chip": "ym2612"
    },
    {
      "channel": 3,
      "note": 67,
      "start": 22.2159,
      "duration": 0.0671,
      "velocity": 87,
      "chip": "ym2612"
    },
    {
      "channel": 5,
      "note": 69,
      "start": 22.2198,
      "duration": 0.1861,
      "velocity": 86,
      "chip": "ym2612"
    },
    {
      "channel": 1,
      "note": 55,
      "start": 22.2819,
      "duration": 0.1182,
      "velocity": 87,
      "chip": "ym2612"
    },
    {
      "channel": 3,
      "note": 64,
      "start": 22.2831,
      "duration": 0.0489,
      "velocity": 87,
      "chip": "ym2612"
    },
    {
      "channel": 3,
      "note": 67,
      "start": 22.3321,
      "duration": 0.0699,
      "velocity": 87,
      "chip": "ym2612"
    },
    {
      "channel": 0,
      "note": 70,
      "start": 22.3993,
      "duration": 0.1159,
      "velocity": 67,
      "chip": "ym2612"
    },
    {
      "channel": 1,
      "note": 52,
      "start": 22.4002,
      "duration": 0.1159,
      "velocity": 87,
      "chip": "ym2612"
    },
    {
      "channel": 2,
      "note": 67,
      "start": 22.4012,
      "duration": 1.4004,
      "velocity": 87,
      "chip": "ym2612"
    },
    {
      "channel": 3,
      "note": 70,
      "start": 22.4021,
      "duration": 0.0468,
      "velocity": 87,
      "chip": "ym2612"
    },
    {
      "channel": 5,
      "note": 68,
      "start": 22.406,
      "duration": 0.1639,
      "velocity": 86,
      "chip": "ym2612"
    },
    {
      "channel": 3,
      "note": 68,
      "start": 22.449,
      "duration": 0.0683,
      "velocity": 87,
      "chip": "ym2612"
    },
    {
      "channel": 0,
      "note": 72,
      "start": 22.5152,
      "duration": 0.1166,
      "velocity": 67,
      "chip": "ym2612"
    },
    {
      "channel": 1,
      "note": 61,
      "start": 22.5162,
      "duration": 0.1166,
      "velocity": 87,
      "chip": "ym2612"
    },
    {
      "channel": 3,
      "note": 70,
      "start": 22.5175,
      "duration": 0.0485,
      "velocity": 87,
      "chip": "ym2612"
    },
    {
      "channel": 3,
      "note": 67,
      "start": 22.5661,
      "duration": 0.0679,
      "velocity": 87,
      "chip": "ym2612"
    },
    {
      "channel": 5,
      "note": 68,
      "start": 22.57,
      "duration": 0.1858,
      "velocity": 127,
      "chip": "ym2612"
    },
    {
      "channel": 0,
      "note": 73,
      "start": 22.632,
      "duration": 0.1169,
      "velocity": 67,
      "chip": "ym2612"
    },
    {
      "channel": 1,
      "note": 60,
      "start": 22.6329,
      "duration": 0.1169,
      "velocity": 87,
      "chip": "ym2612"
    },
    {
      "channel": 3,
      "note": 64,
      "start": 22.6342,
      "duration": 0.0481,
      "velocity": 87,
      "chip": "ym2612"
    },
    {
      "channel": 4,
      "note": 70,
      "start": 22.6351,
      "duration": 0.1169,
      "velocity": 67,
      "chip": "ym2612"
    },
    {
      "channel": 3,
      "note": 67,
      "start": 22.6824,
      "duration": 0.0687,
      "velocity": 87,
      "chip": "ym2612"
    },
    {
      "channel": 0,
      "note": 76,
      "start": 22.749,
      "duration": 0.1162,
      "velocity": 67,
      "chip": "ym2612"
    },
    {
      "channel": 1,
      "note": 58,
      "start": 22.75,
      "duration": 0.1162,
      "velocity": 87,
      "chip": "ym2612"
    },
    {
      "channel": 3,
      "note": 70,
      "start": 22.7512,
      "duration": 0.0477,
      "velocity": 87,
      "chip": "ym2612"
    },
    {
      "channel": 4,
      "note": 72,
      "start": 22.7522,
      "duration": 0.1163,
      "velocity": 67,
      "chip": "ym2612"
    },
    {
      "channel": 5,
      "note": 80,
      "start": 22.7559,
      "duration": 0.3498,
      "velocity": 86,
      "chip": "ym2612"
    },
    {
      "channel": 3,
      "note": 68,
      "start": 22.7991,
      "duration": 0.0684,
      "velocity": 87,
      "chip": "ym2612"
    },
    {
      "channel": 0,
      "note": 77,
      "start": 22.8654,
      "duration": 0.1166,
      "velocity": 67,
      "chip": "ym2612"
    },
    {
      "channel": 1,
      "note": 56,
      "start": 22.8663,
      "duration": 0.1166,
      "velocity": 87,
      "chip": "ym2612"
    },
    {
      "channel": 3,
      "note": 70,
      "start": 22.8676,
      "duration": 0.048,
      "velocity": 87,
      "chip": "ym2612"
    },
    {
      "channel": 4,
      "note": 73,
      "start": 22.8685,
      "duration": 0.1166,
      "velocity": 67,
      "chip": "ym2612"
    },
    {
      "channel": 3,
      "note": 67,
      "start": 22.9157,
      "duration": 0.0685,
      "velocity": 87,
      "chip": "ym2612"
    },
    {
      "channel": 0,
      "note": 79,
      "start": 22.982,
      "duration": 0.1169,
      "velocity": 67,
      "chip": "ym2612"
    },
    {
      "channel": 1,
      "note": 55,
      "start": 22.983,
      "duration": 0.1169,
      "velocity": 87,
      "chip": "ym2612"
    },
    {
      "channel": 3,
      "note": 64,
      "start": 22.9842,
      "duration": 0.0479,
      "velocity": 87,
      "chip": "ym2612"
    },
    {
      "channel": 4,
      "note": 76,
      "start": 22.9852,
      "duration": 0.1168,
      "velocity": 67,
      "chip": "ym2612"
    },
    {
      "channel": 3,
      "note": 67,
      "start": 23.0323,
      "duration": 0.0688,
      "velocity": 87,
      "chip": "ym2612"
    },
    {
      "channel": 0,
      "note": 80,
      "start": 23.099,
      "duration": 0.1162,
      "velocity": 67,
      "chip": "ym2612"
    },
    {
      "channel": 1,
      "note": 53,
      "start": 23.1,
      "duration": 0.1162,
      "velocity": 87,
      "chip": "ym2612"
    },
    {
      "channel": 3,
      "note": 70,
      "start": 23.1012,
      "duration": 0.0476,
      "velocity": 87,
      "chip": "ym2612"
    },
    {
      "channel": 4,
      "note": 77,
      "start": 23.1021,
      "duration": 0.1161,
      "velocity": 67,
      "chip": "ym2612"
    },
    {
      "channel": 5,
      "note": 68,
      "start": 23.1058,
      "duration": 0.1641,
      "velocity": 86,
      "chip": "ym2612"
    },
    {
      "channel": 3,
      "note": 68,
      "start": 23.1489,
      "duration": 0.0683,
      "velocity": 87,
      "chip": "ym2612"
    },
    {
      "channel": 0,
      "note": 82,
      "start": 23.2153,
      "duration": 0.1166,
      "velocity": 67,
      "chip": "ym2612"
    },
    {
      "channel": 1,
      "note": 52,
      "start": 23.2162,
      "duration": 0.1166,
      "velocity": 87,
      "chip": "ym2612"
    },
    {
      "channel": 3,
      "note": 70,
      "start": 23.2174,
      "duration": 0.0485,
      "velocity": 87,
      "chip": "ym2612"
    },
    {
      "channel": 4,
      "note": 79,
      "start": 23.2183,
      "duration": 0.1166,
      "velocity": 67,
      "chip": "ym2612"
    },
    {
      "channel": 3,
      "note": 67,
      "start": 23.266,
      "duration": 0.068,
      "velocity": 87,
      "chip": "ym2612"
    },
    {
      "channel": 5,
      "note": 68,
      "start": 23.2699,
      "duration": 0.1858,
      "velocity": 127,
      "chip": "ym2612"
    },
    {
      "channel": 0,
      "note": 84,
      "start": 23.332,
      "duration": 0.117,
      "velocity": 67,
      "chip": "ym2612"
    },
    {
      "channel": 1,
      "note": 49,
      "start": 23.3329,
      "duration": 0.117,
      "velocity": 87,
      "chip": "ym2612"
    },
    {
      "channel": 3,
      "note": 64,
      "start": 23.3341,
      "duration": 0.048,
      "velocity": 87,
      "chip": "ym2612"
    },
    {
      "channel": 4,
      "note": 80,
      "start": 23.3351,
      "duration": 0.1169,
      "velocity": 67,
      "chip": "ym2612"
    },
    {
      "channel": 3,
      "note": 67,
      "start": 23.3822,
      "duration": 0.0688,
      "velocity": 87,
      "chip": "ym2612"
    },
    {
      "channel": 0,
      "note": 85,
      "start": 23.449,
      "duration": 0.1162,
      "velocity": 67,
      "chip": "ym2612"
    },
    {
      "channel": 1,
      "note": 48,
      "start": 23.45,
      "duration": 0.1162,
      "velocity": 87,
      "chip": "ym2612"
    },
    {
      "channel": 3,
      "note": 70,
      "start": 23.4512,
      "duration": 0.0476,
      "velocity": 87,
      "chip": "ym2612"
    },
    {
      "channel": 4,
      "note": 82,
      "start": 23.4521,
      "duration": 0.1161,
      "velocity": 67,
      "chip": "ym2612"
    },
    {
      "channel": 5,
      "note": 80,
      "start": 23.4558,
      "duration": 0.3514,
      "velocity": 86,
      "chip": "ym2612"
    },
    {
      "channel": 3,
      "note": 68,
      "start": 23.4989,
      "duration": 0.0683,
      "velocity": 87,
      "chip": "ym2612"
    },
    {
      "channel": 0,
      "note": 88,
      "start": 23.5653,
      "duration": 0.1166,
      "velocity": 67,
      "chip": "ym2612"
    },
    {
      "channel": 1,
      "note": 46,
      "start": 23.5662,
      "duration": 0.1166,
      "velocity": 87,
      "chip": "ym2612"
    },
    {
      "channel": 3,
      "note": 70,
      "start": 23.5674,
      "duration": 0.0481,
      "velocity": 87,
      "chip": "ym2612"
    },
    {
      "channel": 4,
      "note": 84,
      "start": 23.5683,
      "duration": 0.1166,
      "velocity": 67,
      "chip": "ym2612"
    },
    {
      "channel": 3,
      "note": 67,
      "start": 23.6156,
      "duration": 0.0683,
      "velocity": 87,
      "chip": "ym2612"
    },
    {
      "channel": 0,
      "note": 91,
      "start": 23.682,
      "duration": 0.1177,
      "velocity": 67,
      "chip": "ym2612"
    },
    {
      "channel": 1,
      "note": 43,
      "start": 23.6829,
      "duration": 0.1177,
      "velocity": 87,
      "chip": "ym2612"
    },
    {
      "channel": 3,
      "note": 64,
      "start": 23.6841,
      "duration": 0.0481,
      "velocity": 87,
      "chip": "ym2612"
    },
    {
      "channel": 4,
      "note": 85,
      "start": 23.685,
      "duration": 0.1185,
      "velocity": 67,
      "chip": "ym2612"
    },
    {
      "channel": 3,
      "note": 67,
      "start": 23.7323,
      "duration": 0.0702,
      "velocity": 87,
      "chip": "ym2612"
    },
    {
      "channel": 0,
      "note": 72,
      "start": 23.7998,
      "duration": 1.3993,
      "velocity": 67,
      "chip": "ym2612"
    },
    {
      "channel": 1,
      "note": 65,
      "start": 23.8007,
      "duration": 0.0476,
      "velocity": 87,
      "chip": "ym2612"
    },
    {
      "channel": 2,
      "note": 65,
      "start": 23.8017,
      "duration": 1.3993,
      "velocity": 87,
      "chip": "ym2612"
    },
    {
      "channel": 3,
      "note": 78,
      "start": 23.8026,
      "duration": 0.1642,
      "velocity": 87,
      "chip": "ym2612"
    },
    {
      "channel": 4,
      "note": 88,
      "start": 23.8036,
      "duration": 0.1134,
      "velocity": 67,
      "chip": "ym2612"
    },
    {
      "channel": 5,
      "note": 68,
      "start": 23.8072,
      "duration": 0.1637,
      "velocity": 86,
      "chip": "ym2612"
    },
    {
      "channel": 1,
      "note": 59,
      "start": 23.8484,
      "duration": 0.067,
      "velocity": 87,
      "chip": "ym2612"
    },
    {
      "channel": 1,
      "note": 60,
      "start": 23.9155,
      "duration": 0.0501,
      "velocity": 87,
      "chip": "ym2612"
    },
    {
      "channel": 4,
      "note": 91,
      "start": 23.9171,
      "duration": 0.1165,
      "velocity": 67,
      "chip": "ym2612"
    },
    {
      "channel": 1,
      "note": 61,
      "start": 23.9657,
      "duration": 0.0662,
      "velocity": 87,
      "chip": "ym2612"
    },
    {
      "channel": 3,
      "note": 77,
      "start": 23.967,
      "duration": 0.1833,
      "velocity": 87,
      "chip": "ym2612"
    },
    {
      "channel": 5,
      "note": 68,
      "start": 23.971,
      "duration": 0.1833,
      "velocity": 127,
      "chip": "ym2612"
    },
    {
      "channel": 1,
      "note": 60,
      "start": 24.0321,
      "duration": 0.0497,
      "velocity": 87,
      "chip": "ym2612"
    },
    {
      "channel": 4,
      "note": 72,
      "start": 24.0337,
      "duration": 1.3999,
      "velocity": 67,
      "chip": "ym2612"
    },
    {
      "channel": 1,
      "note": 59,
      "start": 24.0818,
      "duration": 0.0672,
      "velocity": 87,
      "chip": "ym2612"
    },
    {
      "channel": 1,
      "note": 65,
      "start": 24.1492,
      "duration": 0.0492,
      "velocity": 87,
      "chip": "ym2612"
    },
    {
      "channel": 3,
      "note": 74,
      "start": 24.1505,
      "duration": 0.1661,
      "velocity": 87,
      "chip": "ym2612"
    },
    {
      "channel": 5,
      "note": 80,
      "start": 24.1545,
      "duration": 0.3497,
      "velocity": 86,
      "chip": "ym2612"
    },
    {
      "channel": 1,
      "note": 59,
      "start": 24.1986,
      "duration": 0.0666,
      "velocity": 87,
      "chip": "ym2612"
    },
    {
      "channel": 1,
      "note": 60,
      "start": 24.2653,
      "duration": 0.05,
      "velocity": 87,
      "chip": "ym2612"
    },
    {
      "channel": 1,
      "note": 61,
      "start": 24.3154,
      "duration": 0.0665,
      "velocity": 87,
      "chip": "ym2612"
    },
    {
      "channel": 3,
      "note": 73,
      "start": 24.3167,
      "duration": 0.1835,
      "velocity": 87,
      "chip": "ym2612"
    },
    {
      "channel": 1,
      "note": 60,
      "start": 24.3819,
      "duration": 0.0497,
      "velocity": 87,
      "chip": "ym2612"
    },
    {
      "channel": 1,
      "note": 59,
      "start": 24.4317,
      "duration": 0.0673,
      "velocity": 87,
      "chip": "ym2612"
    },
    {
      "channel": 1,
      "note": 65,
      "start": 24.4991,
      "duration": 0.0492,
      "velocity": 87,
      "chip": "ym2612"
    },
    {
      "channel": 3,
      "note": 78,
      "start": 24.5003,
      "duration": 0.1663,
      "velocity": 87,
      "chip": "ym2612"
    },
    {
      "channel": 5,
      "note": 68,
      "start": 24.5042,
      "duration": 0.1663,
      "velocity": 86,
      "chip": "ym2612"
    },
    {
      "channel": 1,
      "note": 59,
      "start": 24.5484,
      "duration": 0.0666,
      "velocity": 87,
      "chip": "ym2612"
    },
    {
      "channel": 1,
      "note": 60,
      "start": 24.6151,
      "duration": 0.0503,
      "velocity": 87,
      "chip": "ym2612"
    },
    {
      "channel": 1,
      "note": 61,
      "start": 24.6656,
      "duration": 0.0661,
      "velocity": 87,
      "chip": "ym2612"
    },
    {
      "channel": 3,
      "note": 77,
      "start": 24.6668,
      "duration": 0.1833,
      "velocity": 87,
      "chip": "ym2612"
    },
    {
      "channel": 5,
      "note": 68,
      "start": 24.6706,
      "duration": 0.1834,
      "velocity": 127,
      "chip": "ym2612"
    },
    {
      "channel": 1,
      "note": 60,
      "start": 24.7318,
      "duration": 0.0499,
      "velocity": 87,
      "chip": "ym2612"
    },
    {
      "channel": 1,
      "note": 59,
      "start": 24.7817,
      "duration": 0.0672,
      "velocity": 87,
      "chip": "ym2612"
    },
    {
      "channel": 1,
      "note": 65,
      "start": 24.8491,
      "duration": 0.0492,
      "velocity": 87,
      "chip": "ym2612"
    },
    {
      "channel": 3,
      "note": 74,
      "start": 24.8502,
      "duration": 0.166,
      "velocity": 87,
      "chip": "ym2612"
    },
    {
      "channel": 5,
      "note": 80,
      "start": 24.8541,
      "duration": 0.3517,
      "velocity": 86,
      "chip": "ym2612"
    },
    {
      "channel": 1,
      "note": 59,
      "start": 24.8984,
      "duration": 0.0666,
      "velocity": 87,
      "chip": "ym2612"
    },
    {
      "channel": 1,
      "note": 60,
      "start": 24.9652,
      "duration": 0.0499,
      "velocity": 87,
      "chip": "ym2612"
    },
    {
      "channel": 1,
      "note": 61,
      "start": 25.0152,
      "duration": 0.0665,
      "velocity": 87,
      "chip": "ym2612"
    },
    {
      "channel": 3,
      "note": 73,
      "start": 25.0164,
      "duration": 0.1856,
      "velocity": 87,
      "chip": "ym2612"
    },
    {
      "channel": 1,
      "note": 60,
      "start": 25.0818,
      "duration": 0.0499,
      "velocity": 87,
      "chip": "ym2612"
    },
    {
      "channel": 1,
      "note": 59,
      "start": 25.1317,
      "duration": 0.0683,
      "velocity": 87,
      "chip": "ym2612"
    },
    {
      "channel": 0,
      "note": 73,
      "start": 25.1992,
      "duration": 1.3999,
      "velocity": 67,
      "chip": "ym2612"
    },
    {
      "channel": 1,
      "note": 65,
      "start": 25.2002,
      "duration": 0.0483,
      "velocity": 87,
      "chip": "ym2612"
    },
    {
      "channel": 2,
      "note": 66,
      "start": 25.2011,
      "duration": 1.3999,
      "velocity": 87,
      "chip": "ym2612"
    },
    {
      "channel": 3,
      "note": 78,
      "start": 25.2021,
      "duration": 0.1648,
      "velocity": 87,
      "chip": "ym2612"
    },
    {
      "channel": 5,
      "note": 68,
      "start": 25.2059,
      "duration": 0.1648,
      "velocity": 86,
      "chip": "ym2612"
    },
    {
      "channel": 1,
      "note": 59,
      "start": 25.2486,
      "duration": 0.0666,
      "velocity": 87,
      "chip": "ym2612"
    },
    {
      "channel": 1,
      "note": 60,
      "start": 25.3153,
      "duration": 0.0503,
      "velocity": 87,
      "chip": "ym2612"
    },
    {
      "channel": 1,
      "note": 61,
      "start": 25.3657,
      "duration": 0.0662,
      "velocity": 87,
      "chip": "ym2612"
    },
    {
      "channel": 3,
      "note": 77,
      "start": 25.367,
      "duration": 0.1833,
      "velocity": 87,
      "chip": "ym2612"
    },
    {
      "channel": 5,
      "note": 68,
      "start": 25.3709,
      "duration": 0.1835,
      "velocity": 127,
      "chip": "ym2612"
    },
    {
      "channel": 1,
      "note": 60,
      "start": 25.432,
      "duration": 0.0498,
      "velocity": 87,
      "chip": "ym2612"
    },
    {
      "channel": 4,
      "note": 73,
      "start": 25.4337,
      "duration": 1.3999,
      "velocity": 67,
      "chip": "ym2612"
    },
    {
      "channel": 1,
      "note": 59,
      "start": 25.4819,
      "duration": 0.0672,
      "velocity": 87,
      "chip": "ym2612"
    },
    {
      "channel": 1,
      "note": 65,
      "start": 25.5492,
      "duration": 0.0492,
      "velocity": 87,
      "chip": "ym2612"
    },
    {
      "channel": 3,
      "note": 74,
      "start": 25.5505,
      "duration": 0.1661,
      "velocity": 87,
      "chip": "ym2612"
    },
    {
      "channel": 5,
      "note": 80,
      "start": 25.5545,
      "duration": 0.3497,
      "velocity": 86,
      "chip": "ym2612"
    },
    {
      "channel": 1,
      "note": 59,
      "start": 25.5986,
      "duration": 0.0666,
      "velocity": 87,
      "chip": "ym2612"
    },
    {
      "channel": 1,
      "note": 60,
      "start": 25.6653,
      "duration": 0.05,
      "velocity": 87,
      "chip": "ym2612"
    },
    {
      "channel": 1,
      "note": 61,
      "start": 25.7154,
      "duration": 0.0665,
      "velocity": 87,
      "chip": "ym2612"
    },
    {
      "channel": 3,
      "note": 73,
      "start": 25.7167,
      "duration": 0.1835,
      "velocity": 87,
      "chip": "ym2612"
    },
    {
      "channel": 1,
      "note": 60,
      "start": 25.7819,
      "duration": 0.0497,
      "velocity": 87,
      "chip": "ym2612"
    },
    {
      "channel": 1,
      "note": 59,
      "start": 25.8317,
      "duration": 0.0673,
      "velocity": 87,
      "chip": "ym2612"
    },
    {
      "channel": 1,
      "note": 65,
      "start": 25.8991,
      "duration": 0.0492,
      "velocity": 87,
      "chip": "ym2612"
    },
    {
      "channel": 3,
      "note": 78,
      "start": 25.9003,
      "duration": 0.1663,
      "velocity": 87,
      "chip": "ym2612"
    },
    {
      "channel": 5,
      "note": 68,
      "start": 25.9042,
      "duration": 0.1663,
      "velocity": 86,
      "chip": "ym2612"
    },
    {
      "channel": 1,
      "note": 59,
      "start": 25.9484,
      "duration": 0.0666,
      "velocity": 87,
      "chip": "ym2612"
    },
    {
      "channel": 1,
      "note": 60,
      "start": 26.0151,
      "duration": 0.0503,
      "velocity": 87,
      "chip": "ym2612"
    },
    {
      "channel": 1,
      "note": 61,
      "start": 26.0656,
      "duration": 0.0661,
      "velocity": 87,
      "chip": "ym2612"
    },
    {
      "channel": 3,
      "note": 77,
      "start": 26.0668,
      "duration": 0.1833,
      "velocity": 87,
      "chip": "ym2612"
    },
    {
      "channel": 5,
      "note": 68,
      "start": 26.0706,
      "duration": 0.1834,
      "velocity": 127,
      "chip": "ym2612"
    },
    {
      "channel": 1,
      "note": 60,
      "start": 26.1318,
      "duration": 0.0499,
      "velocity": 87,
      "chip": "ym2612"
    },
    {
      "channel": 1,
      "note": 59,
      "start": 26.1817,
      "duration": 0.0672,
      "velocity": 87,
      "chip": "ym2612"
    },
    {
      "channel": 1,
      "note": 65,
      "start": 26.2491,
      "duration": 0.0492,
      "velocity": 87,
      "chip": "ym2612"
    },
    {
      "channel": 3,
      "note": 74,
      "start": 26.2502,
      "duration": 0.166,
      "velocity": 87,
      "chip": "ym2612"
    },
    {
      "channel": 5,
      "note": 80,
      "start": 26.2541,
      "duration": 0.3518,
      "velocity": 86,
      "chip": "ym2612"
    },
    {
      "channel": 1,
      "note": 59,
      "start": 26.2984,
      "duration": 0.0666,
      "velocity": 87,
      "chip": "ym2612"
    },
    {
      "channel": 1,
      "note": 60,
      "start": 26.3652,
      "duration": 0.0499,
      "velocity": 87,
      "chip": "ym2612"
    },
    {
      "channel": 1,
      "note": 61,
      "start": 26.4152,
      "duration": 0.0665,
      "velocity": 87,
      "chip": "ym2612"
    },
    {
      "channel": 3,
      "note": 73,
      "start": 26.4164,
      "duration": 0.1856,
      "velocity": 87,
      "chip": "ym2612"
    },
    {
      "channel": 1,
      "note": 60,
      "start": 26.4818,
      "duration": 0.0499,
      "velocity": 87,
      "chip": "ym2612"
    },
    {
      "channel": 1,
      "note": 59,
      "start": 26.5317,
      "duration": 0.0684,
      "velocity": 87,
      "chip": "ym2612"
    },
    {
      "channel": 0,
      "note": 74,
      "start": 26.5992,
      "duration": 1.3999,
      "velocity": 67,
      "chip": "ym2612"
    },
    {
      "channel": 1,
      "note": 65,
      "start": 26.6002,
      "duration": 0.0483,
      "velocity": 87,
      "chip": "ym2612"
    },
    {
      "channel": 2,
      "note": 67,
      "start": 26.6011,
      "duration": 1.3999,
      "velocity": 87,
      "chip": "ym2612"
    },
    {
      "channel": 3,
      "note": 78,
      "start": 26.6021,
      "duration": 0.1647,
      "velocity": 87,
      "chip": "ym2612"
    },
    {
      "channel": 5,
      "note": 68,
      "start": 26.6059,
      "duration": 0.1648,
      "velocity": 86,
      "chip": "ym2612"
    },
    {
      "channel": 1,
      "note": 59,
      "start": 26.6485,
      "duration": 0.0667,
      "velocity": 87,
      "chip": "ym2612"
    },
    {
      "channel": 1,
      "note": 60,
      "start": 26.7153,
      "duration": 0.0503,
      "velocity": 87,
      "chip": "ym2612"
    },
    {
      "channel": 1,
      "note": 61,
      "start": 26.7657,
      "duration": 0.0662,
      "velocity": 87,
      "chip": "ym2612"
    },
    {
      "channel": 3,
      "note": 77,
      "start": 26.767,
      "duration": 0.1833,
      "velocity": 87,
      "chip": "ym2612"
    },
    {
      "channel": 5,
      "note": 68,
      "start": 26.7709,
      "duration": 0.1835,
      "velocity": 127,
      "chip": "ym2612"
    },
    {
      "channel": 1,
      "note": 60,
      "start": 26.832,
      "duration": 0.0498,
      "velocity": 87,
      "chip": "ym2612"
    },
    {
      "channel": 4,
      "note": 74,
      "start": 26.8337,
      "duration": 1.3999,
      "velocity": 67,
      "chip": "ym2612"
    },
    {
      "channel": 1,
      "note": 59,
      "start": 26.8819,
      "duration": 0.0672,
      "velocity": 87,
      "chip": "ym2612"
    },
    {
      "channel": 1,
      "note": 65,
      "start": 26.9492,
      "duration": 0.0492,
      "velocity": 87,
      "chip": "ym2612"
    },
    {
      "channel": 3,
      "note": 75,
      "start": 26.9505,
      "duration": 0.1661,
      "velocity": 87,
      "chip": "ym2612"
    },
    {
      "channel": 5,
      "note": 80,
      "start": 26.9545,
      "duration": 0.3497,
      "velocity": 86,
      "chip": "ym2612"
    },
    {
      "channel": 1,
      "note": 59,
      "start": 26.9986,
      "duration": 0.0666,
      "velocity": 87,
      "chip": "ym2612"
    },
    {
      "channel": 1,
      "note": 60,
      "start": 27.0653,
      "duration": 0.05,
      "velocity": 87,
      "chip": "ym2612"
    },
    {
      "channel": 1,
      "note": 61,
      "start": 27.1154,
      "duration": 0.0665,
      "velocity": 87,
      "chip": "ym2612"
    },
    {
      "channel": 3,
      "note": 74,
      "start": 27.1167,
      "duration": 0.1835,
      "velocity": 87,
      "chip": "ym2612"
    },
    {
      "channel": 1,
      "note": 60,
      "start": 27.1819,
      "duration": 0.0497,
      "velocity": 87,
      "chip": "ym2612"
    },
    {
      "channel": 1,
      "note": 59,
      "start": 27.2317,
      "duration": 0.0673,
      "velocity": 87,
      "chip": "ym2612"
    },
    {
      "channel": 1,
      "note": 65,
      "start": 27.2991,
      "duration": 0.0492,
      "velocity": 87,
      "chip": "ym2612"
    },
    {
      "channel": 3,
      "note": 78,
      "start": 27.3003,
      "duration": 0.1663,
      "velocity": 87,
      "chip": "ym2612"
    },
    {
      "channel": 5,
      "note": 68,
      "start": 27.3042,
      "duration": 0.1663,
      "velocity": 86,
      "chip": "ym2612"
    },
    {
      "channel": 1,
      "note": 59,
      "start": 27.3484,
      "duration": 0.0666,
      "velocity": 87,
      "chip": "ym2612"
    },
    {
      "channel": 1,
      "note": 60,
      "start": 27.4151,
      "duration": 0.0503,
      "velocity": 87,
      "chip": "ym2612"
    },
    {
      "channel": 1,
      "note": 61,
      "start": 27.4656,
      "duration": 0.0661,
      "velocity": 87,
      "chip": "ym2612"
    },
    {
      "channel": 3,
      "note": 77,
      "start": 27.4668,
      "duration": 0.1833,
      "velocity": 87,
      "chip": "ym2612"
    },
    {
      "channel": 5,
      "note": 68,
      "start": 27.4706,
      "duration": 0.1834,
      "velocity": 86,
      "chip": "ym2612"
    },
    {
      "channel": 1,
      "note": 60,
      "start": 27.5318,
      "duration": 0.0499,
      "velocity": 87,
      "chip": "ym2612"
    },
    {
      "channel": 1,
      "note": 59,
      "start": 27.5817,
      "duration": 0.0672,
      "velocity": 87,
      "chip": "ym2612"
    },
    {
      "channel": 1,
      "note": 65,
      "start": 27.649,
      "duration": 0.0493,
      "velocity": 87,
      "chip": "ym2612"
    },
    {
      "channel": 3,
      "note": 75,
      "start": 27.6502,
      "duration": 0.1664,
      "velocity": 87,
      "chip": "ym2612"
    },
    {
      "channel": 5,
      "note": 68,
      "start": 27.6541,
      "duration": 0.1664,
      "velocity": 86,
      "chip": "ym2612"
    },
    {
      "channel": 1,
      "note": 59,
      "start": 27.6984,
      "duration": 0.0666,
      "velocity": 87,
      "chip": "ym2612"
    },
    {
      "channel": 1,
      "note": 60,
      "start": 27.7651,
      "duration": 0.0504,
      "velocity": 87,
      "chip": "ym2612"
    },
    {
      "channel": 1,
      "note": 61,
      "start": 27.8156,
      "duration": 0.066,
      "velocity": 87,
      "chip": "ym2612"
    },
    {
      "channel": 3,
      "note": 74,
      "start": 27.8168,
      "duration": 0.1852,
      "velocity": 87,
      "chip": "ym2612"
    },
    {
      "channel": 5,
      "note": 68,
      "start": 27.8206,
      "duration": 0.1852,
      "velocity": 86,
      "chip": "ym2612"
    },
    {
      "channel": 1,
      "note": 60,
      "start": 27.8818,
      "duration": 0.0499,
      "velocity": 87,
      "chip": "ym2612"
    },
    {
      "channel": 1,
      "note": 59,
      "start": 27.9318,
      "duration": 0.0683,
      "velocity": 87,
      "chip": "ym2612"
    },
    {
      "channel": 0,
      "note": 75,
      "start": 27.9993,
      "duration": 1.3999,
      "velocity": 67,
      "chip": "ym2612"
    },
    {
      "channel": 1,
      "note": 64,
      "start": 28.0002,
      "duration": 0.0482,
      "velocity": 87,
      "chip": "ym2612"
    },
    {
      "channel": 2,
      "note": 68,
      "start": 28.0012,
      "duration": 1.3999,
      "velocity": 87,
      "chip": "ym2612"
    },
    {
      "channel": 3,
      "note": 78,
      "start": 28.0021,
      "duration": 0.1647,
      "velocity": 87,
      "chip": "ym2612"
    },
    {
      "channel": 5,
      "note": 68,
      "start": 28.006,
      "duration": 0.1648,
      "velocity": 86,
      "chip": "ym2612"
    },
    {
      "channel": 1,
      "note": 58,
      "start": 28.0486,
      "duration": 0.0666,
      "velocity": 87,
      "chip": "ym2612"
    },
    {
      "channel": 1,
      "note": 59,
      "start": 28.1153,
      "duration": 0.0503,
      "velocity": 87,
      "chip": "ym2612"
    },
    {
      "channel": 1,
      "note": 60,
      "start": 28.1657,
      "duration": 0.0662,
      "velocity": 87,
      "chip": "ym2612"
    },
    {
      "channel": 3,
      "note": 77,
      "start": 28.167,
      "duration": 0.1833,
      "velocity": 87,
      "chip": "ym2612"
    },
    {
      "channel": 5,
      "note": 68,
      "start": 28.1709,
      "duration": 0.1835,
      "velocity": 127,
      "chip": "ym2612"
    },
    {
      "channel": 1,
      "note": 59,
      "start": 28.232,
      "duration": 0.0498,
      "velocity": 87,
      "chip": "ym2612"
    },
    {
      "channel": 4,
      "note": 75,
      "start": 28.2337,
      "duration": 1.3999,
      "velocity": 67,
      "chip": "ym2612"
    },
    {
      "channel": 1,
      "note": 58,
      "start": 28.2819,
      "duration": 0.0672,
      "velocity": 87,
      "chip": "ym2612"
    },
    {
      "channel": 1,
      "note": 64,
      "start": 28.3492,
      "duration": 0.0492,
      "velocity": 87,
      "chip": "ym2612"
    },
    {
      "channel": 3,
      "note": 75,
      "start": 28.3505,
      "duration": 0.1661,
      "velocity": 87,
      "chip": "ym2612"
    },
    {
      "channel": 5,
      "note": 80,
      "start": 28.3545,
      "duration": 0.3497,
      "velocity": 86,
      "chip": "ym2612"
    },
    {
      "channel": 1,
      "note": 58,
      "start": 28.3986,
      "duration": 0.0666,
      "velocity": 87,
      "chip": "ym2612"
    },
    {
      "channel": 1,
      "note": 59,
      "start": 28.4653,
      "duration": 0.05,
      "velocity": 87,
      "chip": "ym2612"
    },
    {
      "channel": 1,
      "note": 60,
      "start": 28.5154,
      "duration": 0.0665,
      "velocity": 87,
      "chip": "ym2612"
    },
    {
      "channel": 3,
      "note": 74,
      "start": 28.5167,
      "duration": 0.1835,
      "velocity": 87,
      "chip": "ym2612"
    },
    {
      "channel": 1,
      "note": 59,
      "start": 28.5819,
      "duration": 0.0497,
      "velocity": 87,
      "chip": "ym2612"
    },
    {
      "channel": 1,
      "note": 58,
      "start": 28.6317,
      "duration": 0.0673,
      "velocity": 87,
      "chip": "ym2612"
    },
    {
      "channel": 1,
      "note": 64,
      "start": 28.6991,
      "duration": 0.0492,
      "velocity": 87,
      "chip": "ym2612"
    },
    {
      "channel": 3,
      "note": 78,
      "start": 28.7003,
      "duration": 0.1663,
      "velocity": 87,
      "chip": "ym2612"
    },
    {
      "channel": 5,
      "note": 68,
      "start": 28.7042,
      "duration": 0.1663,
      "velocity": 86,
      "chip": "ym2612"
    },
    {
      "channel": 1,
      "note": 58,
      "start": 28.7484,
      "duration": 0.0666,
      "velocity": 87,
      "chip": "ym2612"
    },
    {
      "channel": 1,
      "note": 59,
      "start": 28.8151,
      "duration": 0.0503,
      "velocity": 87,
      "chip": "ym2612"
    },
    {
      "channel": 1,
      "note": 60,
      "start": 28.8656,
      "duration": 0.0661,
      "velocity": 87,
      "chip": "ym2612"
    },
    {
      "channel": 3,
      "note": 77,
      "start": 28.8668,
      "duration": 0.1833,
      "velocity": 87,
      "chip": "ym2612"
    },
    {
      "channel": 5,
      "note": 68,
      "start": 28.8706,
      "duration": 0.1834,
      "velocity": 127,
      "chip": "ym2612"
    },
    {
      "channel": 1,
      "note": 59,
      "start": 28.9318,
      "duration": 0.0499,
      "velocity": 87,
      "chip": "ym2612"
    },
    {
      "channel": 1,
      "note": 58,
      "start": 28.9817,
      "duration": 0.0672,
      "velocity": 87,
      "chip": "ym2612"
    },
    {
      "channel": 1,
      "note": 64,
      "start": 29.0491,
      "duration": 0.0492,
      "velocity": 87,
      "chip": "ym2612"
    },
    {
      "channel": 3,
      "note": 76,
      "start": 29.0502,
      "duration": 0.166,
      "velocity": 87,
      "chip": "ym2612"
    },
    {
      "channel": 5,
      "note": 80,
      "start": 29.0541,
      "duration": 0.3518,
      "velocity": 86,
      "chip": "ym2612"
    },
    {
      "channel": 1,
      "note": 58,
      "start": 29.0984,
      "duration": 0.0666,
      "velocity": 87,
      "chip": "ym2612"
    },
    {
      "channel": 1,
      "note": 59,
      "start": 29.1652,
      "duration": 0.0499,
      "velocity": 87,
      "chip": "ym2612"
    },
    {
      "channel": 1,
      "note": 60,
      "start": 29.2152,
      "duration": 0.0665,
      "velocity": 87,
      "chip": "ym2612"
    },
    {
      "channel": 3,
      "note": 75,
      "start": 29.2164,
      "duration": 0.1856,
      "velocity": 87,
      "chip": "ym2612"
    },
    {
      "channel": 1,
      "note": 59,
      "start": 29.2818,
      "duration": 0.0499,
      "velocity": 87,
      "chip": "ym2612"
    },
    {
      "channel": 1,
      "note": 58,
      "start": 29.3317,
      "duration": 0.0684,
      "velocity": 87,
      "chip": "ym2612"
    },
    {
      "channel": 0,
      "note": 78,
      "start": 29.3992,
      "duration": 1.4,
      "velocity": 67,
      "chip": "ym2612"
    },
    {
      "channel": 1,
      "note": 66,
      "start": 29.4002,
      "duration": 0.0483,
      "velocity": 87,
      "chip": "ym2612"
    },
    {
      "channel": 2,
      "note": 69,
      "start": 29.4011,
      "duration": 1.4,
      "velocity": 87,
      "chip": "ym2612"
    },
    {
      "channel": 3,
      "note": 72,
      "start": 29.4021,
      "duration": 0.1647,
      "velocity": 87,
      "chip": "ym2612"
    },
    {
      "channel": 5,
      "note": 68,
      "start": 29.4059,
      "duration": 0.1648,
      "velocity": 86,
      "chip": "ym2612"
    },
    {
      "channel": 1,
      "note": 59,
      "start": 29.4485,
      "duration": 0.0667,
      "velocity": 87,
      "chip": "ym2612"
    },
    {
      "channel": 1,
      "note": 60,
      "start": 29.5153,
      "duration": 0.0503,
      "velocity": 87,
      "chip": "ym2612"
    },
    {
      "channel": 1,
      "note": 61,
      "start": 29.5657,
      "duration": 0.0663,
      "velocity": 87,
      "chip": "ym2612"
    },
    {
      "channel": 3,
      "note": 71,
      "start": 29.5669,
      "duration": 0.1834,
      "velocity": 87,
      "chip": "ym2612"
    },
    {
      "channel": 5,
      "note": 68,
      "start": 29.5708,
      "duration": 0.1835,
      "velocity": 127,
      "chip": "ym2612"
    },
    {
      "channel": 1,
      "note": 60,
      "start": 29.6321,
      "duration": 0.0497,
      "velocity": 87,
      "chip": "ym2612"
    },
    {
      "channel": 4,
      "note": 78,
      "start": 29.6337,
      "duration": 1.3999,
      "velocity": 67,
      "chip": "ym2612"
    },
    {
      "channel": 1,
      "note": 59,
      "start": 29.6818,
      "duration": 0.0672,
      "velocity": 87,
      "chip": "ym2612"
    },
    {
      "channel": 1,
      "note": 66,
      "start": 29.7492,
      "duration": 0.0492,
      "velocity": 87,
      "chip": "ym2612"
    },
    {
      "channel": 3,
      "note": 70,
      "start": 29.7505,
      "duration": 0.1661,
      "velocity": 87,
      "chip": "ym2612"
    },
    {
      "channel": 5,
      "note": 80,
      "start": 29.7545,
      "duration": 0.3497,
      "velocity": 86,
      "chip": "ym2612"
    },
    {
      "channel": 1,
      "note": 59,
      "start": 29.7986,
      "duration": 0.0666,
      "velocity": 87,
      "chip": "ym2612"
    },
    {
      "channel": 1,
      "note": 60,
      "start": 29.8653,
      "duration": 0.05,
      "velocity": 87,
      "chip": "ym2612"
    },
    {
      "channel": 1,
      "note": 61,
      "start": 29.9154,
      "duration": 0.0665,
      "velocity": 87,
      "chip": "ym2612"
    },
    {
      "channel": 3,
      "note": 69,
      "start": 29.9167,
      "duration": 0.1835,
      "velocity": 87,
      "chip": "ym2612"
    },
    {
      "channel": 1,
      "note": 60,
      "start": 29.9819,
      "duration": 0.0497,
      "velocity": 87,
      "chip": "ym2612"
    },
    {
      "channel": 1,
      "note": 59,
      "start": 30.0317,
      "duration": 0.0673,
      "velocity": 87,
      "chip": "ym2612"
    },
    {
      "channel": 1,
      "note": 66,
      "start": 30.0991,
      "duration": 0.0492,
      "velocity": 87,
      "chip": "ym2612"
    },
    {
      "channel": 3,
      "note": 72,
      "start": 30.1003,
      "duration": 0.1663,
      "velocity": 87,
      "chip": "ym2612"
    },
    {
      "channel": 5,
      "note": 68,
      "start": 30.1042,
      "duration": 0.1663,
      "velocity": 86,
      "chip": "ym2612"
    },
    {
      "channel": 1,
      "note": 59,
      "start": 30.1484,
      "duration": 0.0666,
      "velocity": 87,
      "chip": "ym2612"
    },
    {
      "channel": 1,
      "note": 60,
      "start": 30.2151,
      "duration": 0.0503,
      "velocity": 87,
      "chip": "ym2612"
    },
    {
      "channel": 1,
      "note": 61,
      "start": 30.2656,
      "duration": 0.0661,
      "velocity": 87,
      "chip": "ym2612"
    },
    {
      "channel": 3,
      "note": 71,
      "start": 30.2668,
      "duration": 0.1833,
      "velocity": 87,
      "chip": "ym2612"
    },
    {
      "channel": 5,
      "note": 68,
      "start": 30.2706,
      "duration": 0.1834,
      "velocity": 127,
      "chip": "ym2612"
    },
    {
      "channel": 1,
      "note": 60,
      "start": 30.3318,
      "duration": 0.0499,
      "velocity": 87,
      "chip": "ym2612"
    },
    {
      "channel": 1,
      "note": 59,
      "start": 30.3817,
      "duration": 0.0672,
      "velocity": 87,
      "chip": "ym2612"
    },
    {
      "channel": 1,
      "note": 66,
      "start": 30.4491,
      "duration": 0.0492,
      "velocity": 87,
      "chip": "ym2612"
    },
    {
      "channel": 3,
      "note": 70,
      "start": 30.4502,
      "duration": 0.166,
      "velocity": 87,
      "chip": "ym2612"
    },
    {
      "channel": 5,
      "note": 80,
      "start": 30.4541,
      "duration": 0.3518,
      "velocity": 86,
      "chip": "ym2612"
    },
    {
      "channel": 1,
      "note": 59,
      "start": 30.4984,
      "duration": 0.0666,
      "velocity": 87,
      "chip": "ym2612"
    },
    {
      "channel": 1,
      "note": 60,
      "start": 30.5652,
      "duration": 0.0499,
      "velocity": 87,
      "chip": "ym2612"
    },
    {
      "channel": 1,
      "note": 61,
      "start": 30.6152,
      "duration": 0.0665,
      "velocity": 87,
      "chip": "ym2612"
    },
    {
      "channel": 3,
      "note": 69,
      "start": 30.6164,
      "duration": 0.1857,
      "velocity": 87,
      "chip": "ym2612"
    },
    {
      "channel": 1,
      "note": 60,
      "start": 30.6818,
      "duration": 0.0499,
      "velocity": 87,
      "chip": "ym2612"
    },
    {
      "channel": 1,
      "note": 59,
      "start": 30.7317,
      "duration": 0.0685,
      "velocity": 87,
      "chip": "ym2612"
    },
    {
      "channel": 0,
      "note": 76,
      "start": 30.7993,
      "duration": 1.3999,
      "velocity": 67,
      "chip": "ym2612"
    },
    {
      "channel": 1,
      "note": 62,
      "start": 30.8002,
      "duration": 0.0482,
      "velocity": 87,
      "chip": "ym2612"
    },
    {
      "channel": 2,
      "note": 68,
      "start": 30.8012,
      "duration": 1.3999,
      "velocity": 87,
      "chip": "ym2612"
    },
    {
      "channel": 3,
      "note": 70,
      "start": 30.8022,
      "duration": 0.1647,
      "velocity": 87,
      "chip": "ym2612"
    },
    {
      "channel": 5,
      "note": 68,
      "start": 30.806,
      "duration": 0.1648,
      "velocity": 86,
      "chip": "ym2612"
    },
    {
      "channel": 1,
      "note": 58,
      "start": 30.8485,
      "duration": 0.0667,
      "velocity": 87,
      "chip": "ym2612"
    },
    {
      "channel": 1,
      "note": 59,
      "start": 30.9153,
      "duration": 0.0503,
      "velocity": 87,
      "chip": "ym2612"
    },
    {
      "channel": 1,
      "note": 60,
      "start": 30.9657,
      "duration": 0.0662,
      "velocity": 87,
      "chip": "ym2612"
    },
    {
      "channel": 3,
      "note": 69,
      "start": 30.967,
      "duration": 0.1833,
      "velocity": 87,
      "chip": "ym2612"
    },
    {
      "channel": 5,
      "note": 68,
      "start": 30.9709,
      "duration": 0.1834,
      "velocity": 127,
      "chip": "ym2612"
    },
    {
      "channel": 1,
      "note": 59,
      "start": 31.0321,
      "duration": 0.0497,
      "velocity": 87,
      "chip": "ym2612"
    },
    {
      "channel": 4,
      "note": 76,
      "start": 31.0337,
      "duration": 1.3999,
      "velocity": 67,
      "chip": "ym2612"
    },
    {
      "channel": 1,
      "note": 58,
      "start": 31.0819,
      "duration": 0.0671,
      "velocity": 87,
      "chip": "ym2612"
    },
    {
      "channel": 1,
      "note": 62,
      "start": 31.1491,
      "duration": 0.0493,
      "velocity": 87,
      "chip": "ym2612"
    },
    {
      "channel": 3,
      "note": 71,
      "start": 31.1504,
      "duration": 0.1661,
      "velocity": 87,
      "chip": "ym2612"
    },
    {
      "channel": 5,
      "note": 80,
      "start": 31.1544,
      "duration": 0.3497,
      "velocity": 86,
      "chip": "ym2612"
    },
    {
      "channel": 1,
      "note": 58,
      "start": 31.1986,
      "duration": 0.0666,
      "velocity": 87,
      "chip": "ym2612"
    },
    {
      "channel": 1,
      "note": 59,
      "start": 31.2652,
      "duration": 0.05,
      "velocity": 87,
      "chip": "ym2612"
    },
    {
      "channel": 1,
      "note": 60,
      "start": 31.3154,
      "duration": 0.0664,
      "velocity": 87,
      "chip": "ym2612"
    },
    {
      "channel": 3,
      "note": 72,
      "start": 31.3166,
      "duration": 0.1835,
      "velocity": 87,
      "chip": "ym2612"
    },
    {
      "channel": 1,
      "note": 59,
      "start": 31.3819,
      "duration": 0.0497,
      "velocity": 87,
      "chip": "ym2612"
    },
    {
      "channel": 1,
      "note": 58,
      "start": 31.4318,
      "duration": 0.0672,
      "velocity": 87,
      "chip": "ym2612"
    },
    {
      "channel": 1,
      "note": 62,
      "start": 31.4991,
      "duration": 0.0492,
      "velocity": 87,
      "chip": "ym2612"
    },
    {
      "channel": 3,
      "note": 70,
      "start": 31.5003,
      "duration": 0.1663,
      "velocity": 87,
      "chip": "ym2612"
    },
    {
      "channel": 5,
      "note": 68,
      "start": 31.5042,
      "duration": 0.1663,
      "velocity": 86,
      "chip": "ym2612"
    },
    {
      "channel": 1,
      "note": 58,
      "start": 31.5484,
      "duration": 0.0666,
      "velocity": 87,
      "chip": "ym2612"
    },
    {
      "channel": 1,
      "note": 59,
      "start": 31.6151,
      "duration": 0.0504,
      "velocity": 87,
      "chip": "ym2612"
    },
    {
      "channel": 1,
      "note": 60,
      "start": 31.6656,
      "duration": 0.0661,
      "velocity": 87,
      "chip": "ym2612"
    },
    {
      "channel": 3,
      "note": 69,
      "start": 31.6668,
      "duration": 0.1833,
      "velocity": 87,
      "chip": "ym2612"
    },
    {
      "channel": 5,
      "note": 68,
      "start": 31.6706,
      "duration": 0.1833,
      "velocity": 127,
      "chip": "ym2612"
    },
    {
      "channel": 1,
      "note": 59,
      "start": 31.7318,
      "duration": 0.0498,
      "velocity": 87,
      "chip": "ym2612"
    },
    {
      "channel": 1,
      "note": 58,
      "start": 31.7818,
      "duration": 0.0671,
      "velocity": 87,
      "chip": "ym2612"
    },
    {
      "channel": 1,
      "note": 62,
      "start": 31.849,
      "duration": 0.0492,
      "velocity": 87,
      "chip": "ym2612"
    },
    {
      "channel": 3,
      "note": 71,
      "start": 31.8502,
      "duration": 0.1661,
      "velocity": 87,
      "chip": "ym2612"
    },
    {
      "channel": 5,
      "note": 80,
      "start": 31.854,
      "duration": 0.3518,
      "velocity": 86,
      "chip": "ym2612"
    },
    {
      "channel": 1,
      "note": 58,
      "start": 31.8984,
      "duration": 0.0667,
      "velocity": 87,
      "chip": "ym2612"
    },
    {
      "channel": 1,
      "note": 59,
      "start": 31.9652,
      "duration": 0.0499,
      "velocity": 87,
      "chip": "ym2612"
    },
    {
      "channel": 1,
      "note": 60,
      "start": 32.0152,
      "duration": 0.0665,
      "velocity": 87,
      "chip": "ym2612"
    },
    {
      "channel": 3,
      "note": 72,
      "start": 32.0164,
      "duration": 0.1856,
      "velocity": 87,
      "chip": "ym2612"
    },
    {
      "channel": 1,
      "note": 59,
      "start": 32.0818,
      "duration": 0.0498,
      "velocity": 87,
      "chip": "ym2612"
    },
    {
      "channel": 1,
      "note": 58,
      "start": 32.1318,
      "duration": 0.0683,
      "velocity": 87,
      "chip": "ym2612"
    },
    {
      "channel": 0,
      "note": 77,
      "start": 32.1993,
      "duration": 2.8002,
      "velocity": 67,
      "chip": "ym2612"
    },
    {
      "channel": 1,
      "note": 65,
      "start": 32.2002,
      "duration": 0.0482,
      "velocity": 87,
      "chip": "ym2612"
    },
    {
      "channel": 2,
      "note": 71,
      "start": 32.2012,
      "duration": 2.8028,
      "velocity": 87,
      "chip": "ym2612"
    },
    {
      "channel": 3,
      "note": 73,
      "start": 32.2021,
      "duration": 0.1647,
      "velocity": 87,
      "chip": "ym2612"
    },
    {
      "channel": 5,
      "note": 68,
      "start": 32.206,
      "duration": 0.1648,
      "velocity": 86,
      "chip": "ym2612"
    },
    {
      "channel": 1,
      "note": 58,
      "start": 32.2486,
      "duration": 0.0666,
      "velocity": 87,
      "chip": "ym2612"
    },
    {
      "channel": 1,
      "note": 59,
      "start": 32.3153,
      "duration": 0.0503,
      "velocity": 87,
      "chip": "ym2612"
    },
    {
      "channel": 1,
      "note": 60,
      "start": 32.3657,
      "duration": 0.0662,
      "velocity": 87,
      "chip": "ym2612"
    },
    {
      "channel": 3,
      "note": 72,
      "start": 32.367,
      "duration": 0.1833,
      "velocity": 87,
      "chip": "ym2612"
    },
    {
      "channel": 5,
      "note": 68,
      "start": 32.3709,
      "duration": 0.1834,
      "velocity": 127,
      "chip": "ym2612"
    },
    {
      "channel": 1,
      "note": 59,
      "start": 32.432,
      "duration": 0.0498,
      "velocity": 87,
      "chip": "ym2612"
    },
    {
      "channel": 4,
      "note": 77,
      "start": 32.4337,
      "duration": 2.8007,
      "velocity": 67,
      "chip": "ym2612"
    },
    {
      "channel": 1,
      "note": 58,
      "start": 32.4819,
      "duration": 0.0671,
      "velocity": 87,
      "chip": "ym2612"
    },
    {
      "channel": 1,
      "note": 65,
      "start": 32.5491,
      "duration": 0.0493,
      "velocity": 87,
      "chip": "ym2612"
    },
    {
      "channel": 3,
      "note": 71,
      "start": 32.5504,
      "duration": 0.1661,
      "velocity": 87,
      "chip": "ym2612"
    },
    {
      "channel": 5,
      "note": 80,
      "start": 32.5544,
      "duration": 0.3497,
      "velocity": 86,
      "chip": "ym2612"
    },
    {
      "channel": 1,
      "note": 58,
      "start": 32.5986,
      "duration": 0.0666,
      "velocity": 87,
      "chip": "ym2612"
    },
    {
      "channel": 1,
      "note": 59,
      "start": 32.6652,
      "duration": 0.05,
      "velocity": 87,
      "chip": "ym2612"
    },
    {
      "channel": 1,
      "note": 60,
      "start": 32.7154,
      "duration": 0.0664,
      "velocity": 87,
      "chip": "ym2612"
    },
    {
      "channel": 3,
      "note": 70,
      "start": 32.7166,
      "duration": 0.1835,
      "velocity": 87,
      "chip": "ym2612"
    },
    {
      "channel": 1,
      "note": 59,
      "start": 32.7819,
      "duration": 0.0497,
      "velocity": 87,
      "chip": "ym2612"
    },
    {
      "channel": 1,
      "note": 58,
      "start": 32.8318,
      "duration": 0.0672,
      "velocity": 87,
      "chip": "ym2612"
    },
    {
      "channel": 1,
      "note": 65,
      "start": 32.899,
      "duration": 0.0493,
      "velocity": 87,
      "chip": "ym2612"
    },
    {
      "channel": 3,
      "note": 69,
      "start": 32.9002,
      "duration": 0.1664,
      "velocity": 87,
      "chip": "ym2612"
    },
    {
      "channel": 5,
      "note": 68,
      "start": 32.9042,
      "duration": 0.1663,
      "velocity": 86,
      "chip": "ym2612"
    },
    {
      "channel": 1,
      "note": 58,
      "start": 32.9484,
      "duration": 0.0666,
      "velocity": 87,
      "chip": "ym2612"
    },
    {
      "channel": 1,
      "note": 59,
      "start": 33.0152,
      "duration": 0.0503,
      "velocity": 87,
      "chip": "ym2612"
    },
    {
      "channel": 1,
      "note": 60,
      "start": 33.0656,
      "duration": 0.066,
      "velocity": 87,
      "chip": "ym2612"
    },
    {
      "channel": 3,
      "note": 66,
      "start": 33.0668,
      "duration": 0.1833,
      "velocity": 87,
      "chip": "ym2612"
    },
    {
      "channel": 5,
      "note": 68,
      "start": 33.0706,
      "duration": 0.1833,
      "velocity": 86,
      "chip": "ym2612"
    },
    {
      "channel": 1,
      "note": 59,
      "start": 33.1318,
      "duration": 0.0499,
      "velocity": 87,
      "chip": "ym2612"
    },
    {
      "channel": 1,
      "note": 58,
      "start": 33.1818,
      "duration": 0.0671,
      "velocity": 87,
      "chip": "ym2612"
    },
    {
      "channel": 1,
      "note": 65,
      "start": 33.249,
      "duration": 0.0492,
      "velocity": 87,
      "chip": "ym2612"
    },
    {
      "channel": 3,
      "note": 65,
      "start": 33.2502,
      "duration": 0.1665,
      "velocity": 87,
      "chip": "ym2612"
    },
    {
      "channel": 5,
      "note": 68,
      "start": 33.254,
      "duration": 0.1665,
      "velocity": 86,
      "chip": "ym2612"
    },
    {
      "channel": 1,
      "note": 58,
      "start": 33.2984,
      "duration": 0.0667,
      "velocity": 87,
      "chip": "ym2612"
    },
    {
      "channel": 1,
      "note": 59,
      "start": 33.3652,
      "duration": 0.0503,
      "velocity": 87,
      "chip": "ym2612"
    },
    {
      "channel": 1,
      "note": 60,
      "start": 33.4156,
      "duration": 0.066,
      "velocity": 87,
      "chip": "ym2612"
    },
    {
      "channel": 3,
      "note": 64,
      "start": 33.4168,
      "duration": 0.1836,
      "velocity": 87,
      "chip": "ym2612"
    },
    {
      "channel": 5,
      "note": 68,
      "start": 33.4206,
      "duration": 0.1836,
      "velocity": 122,
      "chip": "ym2612"
    },
    {
      "channel": 1,
      "note": 59,
      "start": 33.4818,
      "duration": 0.0499,
      "velocity": 87,
      "chip": "ym2612"
    },
    {
      "channel": 1,
      "note": 58,
      "start": 33.5318,
      "duration": 0.0674,
      "velocity": 87,
      "chip": "ym2612"
    },
    {
      "channel": 1,
      "note": 65,
      "start": 33.5993,
      "duration": 0.049,
      "velocity": 87,
      "chip": "ym2612"
    },
    {
      "channel": 3,
      "note": 59,
      "start": 33.6005,
      "duration": 0.1662,
      "velocity": 87,
      "chip": "ym2612"
    },
    {
      "channel": 5,
      "note": 69,
      "start": 33.6044,
      "duration": 0.1662,
      "velocity": 122,
      "chip": "ym2612"
    },
    {
      "channel": 1,
      "note": 58,
      "start": 33.6484,
      "duration": 0.0667,
      "velocity": 87,
      "chip": "ym2612"
    },
    {
      "channel": 1,
      "note": 59,
      "start": 33.7151,
      "duration": 0.0505,
      "velocity": 87,
      "chip": "ym2612"
    },
    {
      "channel": 1,
      "note": 60,
      "start": 33.7657,
      "duration": 0.0661,
      "velocity": 87,
      "chip": "ym2612"
    },
    {
      "channel": 3,
      "note": 60,
      "start": 33.7668,
      "duration": 0.1833,
      "velocity": 87,
      "chip": "ym2612"
    },
    {
      "channel": 5,
      "note": 69,
      "start": 33.7707,
      "duration": 0.1833,
      "velocity": 127,
      "chip": "ym2612"
    },
    {
      "channel": 1,
      "note": 59,
      "start": 33.8318,
      "duration": 0.0498,
      "velocity": 87,
      "chip": "ym2612"
    },
    {
      "channel": 1,
      "note": 58,
      "start": 33.8818,
      "duration": 0.0672,
      "velocity": 87,
      "chip": "ym2612"
    },
    {
      "channel": 1,
      "note": 65,
      "start": 33.9491,
      "duration": 0.0492,
      "velocity": 87,
      "chip": "ym2612"
    },
    {
      "channel": 3,
      "note": 61,
      "start": 33.9502,
      "duration": 0.1661,
      "velocity": 87,
      "chip": "ym2612"
    },
    {
      "channel": 5,
      "note": 80,
      "start": 33.9541,
      "duration": 0.3499,
      "velocity": 122,
      "chip": "ym2612"
    },
    {
      "channel": 1,
      "note": 58,
      "start": 33.9984,
      "duration": 0.0667,
      "velocity": 87,
      "chip": "ym2612"
    },
    {
      "channel": 1,
      "note": 59,
      "start": 34.0652,
      "duration": 0.0499,
      "velocity": 87,
      "chip": "ym2612"
    },
    {
      "channel": 1,
      "note": 60,
      "start": 34.1152,
      "duration": 0.0665,
      "velocity": 87,
      "chip": "ym2612"
    },
    {
      "channel": 3,
      "note": 62,
      "start": 34.1164,
      "duration": 0.1837,
      "velocity": 87,
      "chip": "ym2612"
    },
    {
      "channel": 1,
      "note": 59,
      "start": 34.1818,
      "duration": 0.0498,
      "velocity": 87,
      "chip": "ym2612"
    },
    {
      "channel": 1,
      "note": 58,
      "start": 34.2318,
      "duration": 0.0672,
      "velocity": 87,
      "chip": "ym2612"
    },
    {
      "channel": 1,
      "note": 65,
      "start": 34.299,
      "duration": 0.0493,
      "velocity": 87,
      "chip": "ym2612"
    },
    {
      "channel": 3,
      "note": 63,
      "start": 34.3002,
      "duration": 0.1665,
      "velocity": 87,
      "chip": "ym2612"
    },
    {
      "channel": 5,
      "note": 69,
      "start": 34.3041,
      "duration": 0.1664,
      "velocity": 122,
      "chip": "ym2612"
    },
    {
      "channel": 1,
      "note": 58,
      "start": 34.3484,
      "duration": 0.0666,
      "velocity": 87,
      "chip": "ym2612"
    },
    {
      "channel": 1,
      "note": 59,
      "start": 34.4152,
      "duration": 0.0503,
      "velocity": 87,
      "chip": "ym2612"
    },
    {
      "channel": 1,
      "note": 60,
      "start": 34.4656,
      "duration": 0.066,
      "velocity": 87,
      "chip": "ym2612"
    },
    {
      "channel": 3,
      "note": 64,
      "start": 34.4668,
      "duration": 0.1834,
      "velocity": 87,
      "chip": "ym2612"
    },
    {
      "channel": 5,
      "note": 69,
      "start": 34.4706,
      "duration": 0.1833,
      "velocity": 127,
      "chip": "ym2612"
    },
    {
      "channel": 1,
      "note": 59,
      "start": 34.5318,
      "duration": 0.0499,
      "velocity": 87,
      "chip": "ym2612"
    },
    {
      "channel": 1,
      "note": 58,
      "start": 34.5818,
      "duration": 0.0672,
      "velocity": 87,
      "chip": "ym2612"
    },
    {
      "channel": 1,
      "note": 65,
      "start": 34.6491,
      "duration": 0.0492,
      "velocity": 87,
      "chip": "ym2612"
    },
    {
      "channel": 3,
      "note": 68,
      "start": 34.6502,
      "duration": 0.1661,
      "velocity": 87,
      "chip": "ym2612"
    },
    {
      "channel": 5,
      "note": 80,
      "start": 34.6541,
      "duration": 0.3547,
      "velocity": 122,
      "chip": "ym2612"
    },
    {
      "channel": 1,
      "note": 58,
      "start": 34.6984,
      "duration": 0.0667,
      "velocity": 87,
      "chip": "ym2612"
    },
    {
      "channel": 1,
      "note": 59,
      "start": 34.7652,
      "duration": 0.0499,
      "velocity": 87,
      "chip": "ym2612"
    },
    {
      "channel": 1,
      "note": 60,
      "start": 34.8152,
      "duration": 0.0665,
      "velocity": 87,
      "chip": "ym2612"
    },
    {
      "channel": 3,
      "note": 67,
      "start": 34.8164,
      "duration": 0.1885,
      "velocity": 87,
      "chip": "ym2612"
    },
    {
      "channel": 1,
      "note": 59,
      "start": 34.8818,
      "duration": 0.0498,
      "velocity": 87,
      "chip": "ym2612"
    },
    {
      "channel": 1,
      "note": 58,
      "start": 34.9318,
      "duration": 0.0686,
      "velocity": 87,
      "chip": "ym2612"
    },
    {
      "channel": 0,
      "note": 68,
      "start": 34.9995,
      "duration": 0.3444,
      "velocity": 67,
      "chip": "ym2612"
    },
    {
      "channel": 1,
      "note": 53,
      "start": 35.0005,
      "duration": 0.1149,
      "velocity": 87,
      "chip": "ym2612"
    },
    {
      "channel": 2,
      "note": 65,
      "start": 35.0041,
      "duration": 0.3399,
      "velocity": 87,
      "chip": "ym2612"
    },
    {
      "channel": 3,
      "note": 65,
      "start": 35.0051,
      "duration": 0.0439,
      "velocity": 87,
      "chip": "ym2612"
    },
    {
      "channel": 5,
      "note": 69,
      "start": 35.0089,
      "duration": 0.1609,
      "velocity": 122,
      "chip": "ym2612"
    },
    {
      "channel": 3,
      "note": 60,
      "start": 35.0491,
      "duration": 0.0676,
      "velocity": 87,
      "chip": "ym2612"
    },
    {
      "channel": 1,
      "note": 61,
      "start": 35.1155,
      "duration": 0.1166,
      "velocity": 87,
      "chip": "ym2612"
    },
    {
      "channel": 3,
      "note": 56,
      "start": 35.1168,
      "duration": 0.0492,
      "velocity": 87,
      "chip": "ym2612"
    },
    {
      "channel": 3,
      "note": 60,
      "start": 35.1661,
      "duration": 0.0672,
      "velocity": 87,
      "chip": "ym2612"
    },
    {
      "channel": 5,
      "note": 69,
      "start": 35.17,
      "duration": 0.174,
      "velocity": 122,
      "chip": "ym2612"
    },
    {
      "channel": 1,
      "note": 60,
      "start": 35.2322,
      "duration": 0.1117,
      "velocity": 87,
      "chip": "ym2612"
    },
    {
      "channel": 3,
      "note": 65,
      "start": 35.2335,
      "duration": 0.0487,
      "velocity": 87,
      "chip": "ym2612"
    },
    {
      "channel": 4,
      "note": 68,
      "start": 35.2344,
      "duration": 0.1095,
      "velocity": 67,
      "chip": "ym2612"
    },
    {
      "channel": 3,
      "note": 68,
      "start": 35.2823,
      "duration": 0.0616,
      "velocity": 87,
      "chip": "ym2612"
    }
  ]
}