{
  "track_name": "21 - Name Entry",
  "duration_sec": 136.697,
  "sample_rate": 44100,
  "note_count": 2875,
  "unique_pitches": 68,
  "pitch_range": 67,
  "avg_note_duration": 0.2844,
  "reconstruction_stats": {
    "notes_reconstructed": 2875,
    "keyon_events": 2875,
    "keyoff_events": 2565,
    "orphan_keyons": 6,
    "unique_pitches": 68,
    "pitch_range": 67,
    "avg_duration_sec": 0.2844
  },
  "metadata": {
    "source": "W\\Wiz 'n' Liz\\21 - Name Entry.vgz"
  },
  "notes": [
    {
      "channel": 0,
      "note": 79,
      "start": 0.0514,
      "duration": 1.2814,
      "velocity": 99,
      "chip": "ym2612"
    },
    {
      "channel": 3,
      "note": 67,
      "start": 0.0537,
      "duration": 2.5637,
      "velocity": 107,
      "chip": "ym2612"
    },
    {
      "channel": 4,
      "note": 71,
      "start": 0.2182,
      "duration": 2.5649,
      "velocity": 107,
      "chip": "ym2612"
    },
    {
      "channel": 2,
      "note": 79,
      "start": 0.3847,
      "duration": 0.9487,
      "velocity": 100,
      "chip": "ym2612"
    },
    {
      "channel": 5,
      "note": 74,
      "start": 0.3869,
      "duration": 2.5467,
      "velocity": 107,
      "chip": "ym2612"
    },
    {
      "channel": 1,
      "note": 86,
      "start": 1.0179,
      "duration": 0.6316,
      "velocity": 99,
      "chip": "ym2612"
    },
    {
      "channel": 0,
      "note": 84,
      "start": 1.3329,
      "duration": 0.6499,
      "velocity": 99,
      "chip": "ym2612"
    },
    {
      "channel": 2,
      "note": 86,
      "start": 1.3336,
      "duration": 0.3165,
      "velocity": 100,
      "chip": "ym2612"
    },
    {
      "channel": 1,
      "note": 83,
      "start": 1.6496,
      "duration": 0.6499,
      "velocity": 99,
      "chip": "ym2612"
    },
    {
      "channel": 2,
      "note": 84,
      "start": 1.6502,
      "duration": 0.3331,
      "velocity": 100,
      "chip": "ym2612"
    },
    {
      "channel": 0,
      "note": 81,
      "start": 1.9829,
      "duration": 0.6332,
      "velocity": 99,
      "chip": "ym2612"
    },
    {
      "channel": 2,
      "note": 83,
      "start": 1.9836,
      "duration": 0.3165,
      "velocity": 100,
      "chip": "ym2612"
    },
    {
      "channel": 1,
      "note": 83,
      "start": 2.2996,
      "duration": 1.2832,
      "velocity": 99,
      "chip": "ym2612"
    },
    {
      "channel": 2,
      "note": 81,
      "start": 2.3002,
      "duration": 0.3165,
      "velocity": 100,
      "chip": "ym2612"
    },
    {
      "channel": 0,
      "note": 78,
      "start": 2.6163,
      "duration": 1.2832,
      "velocity": 99,
      "chip": "ym2612"
    },
    {
      "channel": 2,
      "note": 83,
      "start": 2.6169,
      "duration": 0.316,
      "velocity": 100,
      "chip": "ym2612"
    },
    {
      "channel": 3,
      "note": 66,
      "start": 2.6175,
      "duration": 2.5665,
      "velocity": 107,
      "chip": "ym2612"
    },
    {
      "channel": 4,
      "note": 71,
      "start": 2.7832,
      "duration": 2.5499,
      "velocity": 107,
      "chip": "ym2612"
    },
    {
      "channel": 2,
      "note": 78,
      "start": 2.9331,
      "duration": 0.9669,
      "velocity": 100,
      "chip": "ym2612"
    },
    {
      "channel": 5,
      "note": 74,
      "start": 2.9338,
      "duration": 2.5665,
      "velocity": 107,
      "chip": "ym2612"
    },
    {
      "channel": 1,
      "note": 86,
      "start": 3.583,
      "duration": 0.6332,
      "velocity": 99,
      "chip": "ym2612"
    },
    {
      "channel": 0,
      "note": 84,
      "start": 3.8996,
      "duration": 0.6332,
      "velocity": 99,
      "chip": "ym2612"
    },
    {
      "channel": 2,
      "note": 86,
      "start": 3.9002,
      "duration": 0.3165,
      "velocity": 100,
      "chip": "ym2612"
    },
    {
      "channel": 1,
      "note": 83,
      "start": 4.2163,
      "duration": 0.6332,
      "velocity": 99,
      "chip": "ym2612"
    },
    {
      "channel": 2,
      "note": 84,
      "start": 4.2169,
      "duration": 0.3165,
      "velocity": 100,
      "chip": "ym2612"
    },
    {
      "channel": 0,
      "note": 81,
      "start": 4.5329,
      "duration": 0.6499,
      "velocity": 99,
      "chip": "ym2612"
    },
    {
      "channel": 2,
      "note": 83,
      "start": 4.5336,
      "duration": 0.3165,
      "velocity": 100,
      "chip": "ym2612"
    },
    {
      "channel": 1,
      "note": 79,
      "start": 4.8496,
      "duration": 1.2832,
      "velocity": 99,
      "chip": "ym2612"
    },
    {
      "channel": 2,
      "note": 81,
      "start": 4.8502,
      "duration": 0.3332,
      "velocity": 100,
      "chip": "ym2612"
    },
    {
      "channel": 0,
      "note": 77,
      "start": 5.183,
      "duration": 1.2665,
      "velocity": 99,
      "chip": "ym2612"
    },
    {
      "channel": 2,
      "note": 79,
      "start": 5.1836,
      "duration": 0.316,
      "velocity": 100,
      "chip": "ym2612"
    },
    {
      "channel": 3,
      "note": 65,
      "start": 5.1841,
      "duration": 2.5499,
      "velocity": 107,
      "chip": "ym2612"
    },
    {
      "channel": 4,
      "note": 69,
      "start": 5.3332,
      "duration": 2.5665,
      "velocity": 107,
      "chip": "ym2612"
    },
    {
      "channel": 2,
      "note": 77,
      "start": 5.4998,
      "duration": 0.9502,
      "velocity": 100,
      "chip": "ym2612"
    },
    {
      "channel": 5,
      "note": 74,
      "start": 5.5005,
      "duration": 2.5498,
      "velocity": 107,
      "chip": "ym2612"
    },
    {
      "channel": 1,
      "note": 86,
      "start": 6.133,
      "duration": 0.6499,
      "velocity": 99,
      "chip": "ym2612"
    },
    {
      "channel": 0,
      "note": 84,
      "start": 6.4496,
      "duration": 0.6499,
      "velocity": 99,
      "chip": "ym2612"
    },
    {
      "channel": 2,
      "note": 86,
      "start": 6.4502,
      "duration": 0.3331,
      "velocity": 100,
      "chip": "ym2612"
    },
    {
      "channel": 1,
      "note": 83,
      "start": 6.783,
      "duration": 0.6332,
      "velocity": 99,
      "chip": "ym2612"
    },
    {
      "channel": 2,
      "note": 84,
      "start": 6.7836,
      "duration": 0.3165,
      "velocity": 100,
      "chip": "ym2612"
    },
    {
      "channel": 0,
      "note": 81,
      "start": 7.0996,
      "duration": 0.6332,
      "velocity": 99,
      "chip": "ym2612"
    },
    {
      "channel": 2,
      "note": 83,
      "start": 7.1002,
      "duration": 0.3165,
      "velocity": 100,
      "chip": "ym2612"
    },
    {
      "channel": 1,
      "note": 83,
      "start": 7.4163,
      "duration": 0.9665,
      "velocity": 99,
      "chip": "ym2612"
    },
    {
      "channel": 2,
      "note": 81,
      "start": 7.4169,
      "duration": 0.3165,
      "velocity": 100,
      "chip": "ym2612"
    },
    {
      "channel": 0,
      "note": 84,
      "start": 7.733,
      "duration": 1.9164,
      "velocity": 99,
      "chip": "ym2612"
    },
    {
      "channel": 2,
      "note": 83,
      "start": 7.7336,
      "duration": 0.316,
      "velocity": 100,
      "chip": "ym2612"
    },
    {
      "channel": 3,
      "note": 64,
      "start": 7.7342,
      "duration": 2.5663,
      "velocity": 107,
      "chip": "ym2612"
    },
    {
      "channel": 4,
      "note": 67,
      "start": 7.8999,
      "duration": 2.5499,
      "velocity": 107,
      "chip": "ym2612"
    },
    {
      "channel": 2,
      "note": 84,
      "start": 8.0498,
      "duration": 0.6498,
      "velocity": 100,
      "chip": "ym2612"
    },
    {
      "channel": 5,
      "note": 72,
      "start": 8.0505,
      "duration": 2.5666,
      "velocity": 107,
      "chip": "ym2612"
    },
    {
      "channel": 1,
      "note": 79,
      "start": 8.383,
      "duration": 2.8666,
      "velocity": 99,
      "chip": "ym2612"
    },
    {
      "channel": 2,
      "note": 79,
      "start": 8.6997,
      "duration": 1.2832,
      "velocity": 100,
      "chip": "ym2612"
    },
    {
      "channel": 0,
      "note": 76,
      "start": 9.6496,
      "duration": 0.6501,
      "velocity": 99,
      "chip": "ym2612"
    },
    {
      "channel": 2,
      "note": 76,
      "start": 9.983,
      "duration": 0.6333,
      "velocity": 100,
      "chip": "ym2612"
    },
    {
      "channel": 0,
      "note": 75,
      "start": 10.2998,
      "duration": 1.2829,
      "velocity": 99,
      "chip": "ym2612"
    },
    {
      "channel": 3,
      "note": 63,
      "start": 10.3006,
      "duration": 2.55,
      "velocity": 107,
      "chip": "ym2612"
    },
    {
      "channel": 4,
      "note": 67,
      "start": 10.45,
      "duration": 2.5665,
      "velocity": 107,
      "chip": "ym2612"
    },
    {
      "channel": 2,
      "note": 75,
      "start": 10.6165,
      "duration": 0.9668,
      "velocity": 100,
      "chip": "ym2612"
    },
    {
      "channel": 5,
      "note": 70,
      "start": 10.6173,
      "duration": 2.5663,
      "velocity": 107,
      "chip": "ym2612"
    },
    {
      "channel": 1,
      "note": 82,
      "start": 11.2497,
      "duration": 0.6498,
      "velocity": 99,
      "chip": "ym2612"
    },
    {
      "channel": 0,
      "note": 81,
      "start": 11.5829,
      "duration": 0.6332,
      "velocity": 99,
      "chip": "ym2612"
    },
    {
      "channel": 2,
      "note": 82,
      "start": 11.5836,
      "duration": 0.3165,
      "velocity": 100,
      "chip": "ym2612"
    },
    {
      "channel": 1,
      "note": 79,
      "start": 11.8996,
      "duration": 0.6332,
      "velocity": 99,
      "chip": "ym2612"
    },
    {
      "channel": 2,
      "note": 81,
      "start": 11.9002,
      "duration": 0.3165,
      "velocity": 100,
      "chip": "ym2612"
    },
    {
      "channel": 0,
      "note": 77,
      "start": 12.2163,
      "duration": 0.6332,
      "velocity": 99,
      "chip": "ym2612"
    },
    {
      "channel": 2,
      "note": 79,
      "start": 12.2169,
      "duration": 0.3165,
      "velocity": 100,
      "chip": "ym2612"
    },
    {
      "channel": 1,
      "note": 79,
      "start": 12.533,
      "duration": 1.2832,
      "velocity": 99,
      "chip": "ym2612"
    },
    {
      "channel": 2,
      "note": 77,
      "start": 12.5336,
      "duration": 0.3165,
      "velocity": 100,
      "chip": "ym2612"
    },
    {
      "channel": 0,
      "note": 74,
      "start": 12.8496,
      "duration": 1.2832,
      "velocity": 99,
      "chip": "ym2612"
    },
    {
      "channel": 2,
      "note": 79,
      "start": 12.8502,
      "duration": 0.3327,
      "velocity": 100,
      "chip": "ym2612"
    },
    {
      "channel": 3,
      "note": 62,
      "start": 12.8508,
      "duration": 2.5665,
      "velocity": 107,
      "chip": "ym2612"
    },
    {
      "channel": 4,
      "note": 67,
      "start": 13.0166,
      "duration": 2.5665,
      "velocity": 107,
      "chip": "ym2612"
    },
    {
      "channel": 2,
      "note": 74,
      "start": 13.1831,
      "duration": 0.9502,
      "velocity": 100,
      "chip": "ym2612"
    },
    {
      "channel": 5,
      "note": 71,
      "start": 13.1838,
      "duration": 2.5498,
      "velocity": 107,
      "chip": "ym2612"
    },
    {
      "channel": 1,
      "note": 83,
      "start": 13.8163,
      "duration": 0.6332,
      "velocity": 99,
      "chip": "ym2612"
    },
    {
      "channel": 0,
      "note": 81,
      "start": 14.1329,
      "duration": 0.6499,
      "velocity": 99,
      "chip": "ym2612"
    },
    {
      "channel": 2,
      "note": 83,
      "start": 14.1336,
      "duration": 0.3165,
      "velocity": 100,
      "chip": "ym2612"
    },
    {
      "channel": 1,
      "note": 79,
      "start": 14.4496,
      "duration": 0.6499,
      "velocity": 99,
      "chip": "ym2612"
    },
    {
      "channel": 2,
      "note": 81,
      "start": 14.4502,
      "duration": 0.3331,
      "velocity": 100,
      "chip": "ym2612"
    },
    {
      "channel": 0,
      "note": 78,
      "start": 14.7829,
      "duration": 0.6332,
      "velocity": 99,
      "chip": "ym2612"
    },
    {
      "channel": 2,
      "note": 79,
      "start": 14.7836,
      "duration": 0.3165,
      "velocity": 100,
      "chip": "ym2612"
    },
    {
      "channel": 1,
      "note": 79,
      "start": 15.0996,
      "duration": 1.2832,
      "velocity": 99,
      "chip": "ym2612"
    },
    {
      "channel": 2,
      "note": 78,
      "start": 15.1002,
      "duration": 0.3165,
      "velocity": 100,
      "chip": "ym2612"
    },
    {
      "channel": 0,
      "note": 81,
      "start": 15.4163,
      "duration": 1.2832,
      "velocity": 99,
      "chip": "ym2612"
    },
    {
      "channel": 2,
      "note": 79,
      "start": 15.4169,
      "duration": 0.316,
      "velocity": 100,
      "chip": "ym2612"
    },
    {
      "channel": 3,
      "note": 64,
      "start": 15.4175,
      "duration": 2.5665,
      "velocity": 107,
      "chip": "ym2612"
    },
    {
      "channel": 4,
      "note": 69,
      "start": 15.5832,
      "duration": 2.5499,
      "velocity": 107,
      "chip": "ym2612"
    },
    {
      "channel": 2,
      "note": 81,
      "start": 15.7331,
      "duration": 0.9669,
      "velocity": 100,
      "chip": "ym2612"
    },
    {
      "channel": 5,
      "note": 72,
      "start": 15.7338,
      "duration": 2.5665,
      "velocity": 107,
      "chip": "ym2612"
    },
    {
      "channel": 1,
      "note": 88,
      "start": 16.383,
      "duration": 0.6332,
      "velocity": 99,
      "chip": "ym2612"
    },
    {
      "channel": 0,
      "note": 86,
      "start": 16.6996,
      "duration": 0.6332,
      "velocity": 99,
      "chip": "ym2612"
    },
    {
      "channel": 2,
      "note": 88,
      "start": 16.7002,
      "duration": 0.3165,
      "velocity": 100,
      "chip": "ym2612"
    },
    {
      "channel": 1,
      "note": 84,
      "start": 17.0163,
      "duration": 0.6332,
      "velocity": 99,
      "chip": "ym2612"
    },
    {
      "channel": 2,
      "note": 86,
      "start": 17.0169,
      "duration": 0.3165,
      "velocity": 100,
      "chip": "ym2612"
    },
    {
      "channel": 0,
      "note": 83,
      "start": 17.3329,
      "duration": 0.6499,
      "velocity": 99,
      "chip": "ym2612"
    },
    {
      "channel": 2,
      "note": 84,
      "start": 17.3336,
      "duration": 0.3165,
      "velocity": 100,
      "chip": "ym2612"
    },
    {
      "channel": 1,
      "note": 81,
      "start": 17.6496,
      "duration": 0.9665,
      "velocity": 99,
      "chip": "ym2612"
    },
    {
      "channel": 2,
      "note": 83,
      "start": 17.6502,
      "duration": 0.3332,
      "velocity": 100,
      "chip": "ym2612"
    },
    {
      "channel": 0,
      "note": 78,
      "start": 17.983,
      "duration": 1.2664,
      "velocity": 99,
      "chip": "ym2612"
    },
    {
      "channel": 2,
      "note": 81,
      "start": 17.9836,
      "duration": 0.316,
      "velocity": 100,
      "chip": "ym2612"
    },
    {
      "channel": 3,
      "note": 66,
      "start": 17.9841,
      "duration": 5.6176,
      "velocity": 106,
      "chip": "ym2612"
    },
    {
      "channel": 4,
      "note": 69,
      "start": 18.1332,
      "duration": 6.9764,
      "velocity": 117,
      "chip": "ym2612"
    },
    {
      "channel": 2,
      "note": 78,
      "start": 18.2998,
      "duration": 0.6331,
      "velocity": 100,
      "chip": "ym2612"
    },
    {
      "channel": 5,
      "note": 74,
      "start": 18.3005,
      "duration": 9.9768,
      "velocity": 127,
      "chip": "ym2612"
    },
    {
      "channel": 1,
      "note": 86,
      "start": 18.6163,
      "duration": 1.2832,
      "velocity": 99,
      "chip": "ym2612"
    },
    {
      "channel": 2,
      "note": 86,
      "start": 18.933,
      "duration": 0.6498,
      "velocity": 100,
      "chip": "ym2612"
    },
    {
      "channel": 0,
      "note": 84,
      "start": 19.2496,
      "duration": 1.2834,
      "velocity": 99,
      "chip": "ym2612"
    },
    {
      "channel": 2,
      "note": 84,
      "start": 19.583,
      "duration": 0.6332,
      "velocity": 100,
      "chip": "ym2612"
    },
    {
      "channel": 1,
      "note": 81,
      "start": 19.8996,
      "duration": 1.2833,
      "velocity": 99,
      "chip": "ym2612"
    },
    {
      "channel": 2,
      "note": 81,
      "start": 20.2164,
      "duration": 0.6332,
      "velocity": 100,
      "chip": "ym2612"
    },
    {
      "channel": 0,
      "note": 78,
      "start": 20.5332,
      "duration": 1.3663,
      "velocity": 99,
      "chip": "ym2612"
    },
    {
      "channel": 2,
      "note": 78,
      "start": 20.8498,
      "duration": 0.6831,
      "velocity": 100,
      "chip": "ym2612"
    },
    {
      "channel": 1,
      "note": 74,
      "start": 21.1831,
      "duration": 1.5163,
      "velocity": 99,
      "chip": "ym2612"
    },
    {
      "channel": 2,
      "note": 74,
      "start": 21.533,
      "duration": 0.7665,
      "velocity": 100,
      "chip": "ym2612"
    },
    {
      "channel": 0,
      "note": 72,
      "start": 21.8996,
      "duration": 1.6014,
      "velocity": 106,
      "chip": "ym2612"
    },
    {
      "channel": 2,
      "note": 72,
      "start": 22.2997,
      "duration": 0.7998,
      "velocity": 100,
      "chip": "ym2612"
    },
    {
      "channel": 1,
      "note": 69,
      "start": 22.6996,
      "duration": 2.4036,
      "velocity": 107,
      "chip": "ym2612"
    },
    {
      "channel": 2,
      "note": 69,
      "start": 23.0997,
      "duration": 2.0057,
      "velocity": 107,
      "chip": "ym2612"
    },
    {
      "channel": 0,
      "note": 43,
      "start": 23.5012,
      "duration": 0.0982,
      "velocity": 106,
      "chip": "ym2612"
    },
    {
      "channel": 0,
      "note": 44,
      "start": 23.5996,
      "duration": 0.0998,
      "velocity": 106,
      "chip": "ym2612"
    },
    {
      "channel": 3,
      "note": 43,
      "start": 23.6019,
      "duration": 0.0982,
      "velocity": 106,
      "chip": "ym2612"
    },
    {
      "channel": 0,
      "note": 45,
      "start": 23.6996,
      "duration": 0.0999,
      "velocity": 106,
      "chip": "ym2612"
    },
    {
      "channel": 3,
      "note": 44,
      "start": 23.7003,
      "duration": 0.0998,
      "velocity": 106,
      "chip": "ym2612"
    },
    {
      "channel": 0,
      "note": 46,
      "start": 23.7996,
      "duration": 0.0999,
      "velocity": 106,
      "chip": "ym2612"
    },
    {
      "channel": 3,
      "note": 45,
      "start": 23.8003,
      "duration": 0.0998,
      "velocity": 106,
      "chip": "ym2612"
    },
    {
      "channel": 0,
      "note": 47,
      "start": 23.8996,
      "duration": 0.0999,
      "velocity": 106,
      "chip": "ym2612"
    },
    {
      "channel": 3,
      "note": 46,
      "start": 23.9003,
      "duration": 0.0998,
      "velocity": 106,
      "chip": "ym2612"
    },
    {
      "channel": 0,
      "note": 48,
      "start": 23.9996,
      "duration": 0.0999,
      "velocity": 106,
      "chip": "ym2612"
    },
    {
      "channel": 3,
      "note": 47,
      "start": 24.0003,
      "duration": 0.0998,
      "velocity": 106,
      "chip": "ym2612"
    },
    {
      "channel": 0,
      "note": 49,
      "start": 24.0996,
      "duration": 0.0999,
      "velocity": 106,
      "chip": "ym2612"
    },
    {
      "channel": 3,
      "note": 48,
      "start": 24.1003,
      "duration": 0.0998,
      "velocity": 106,
      "chip": "ym2612"
    },
    {
      "channel": 0,
      "note": 50,
      "start": 24.1996,
      "duration": 0.0999,
      "velocity": 106,
      "chip": "ym2612"
    },
    {
      "channel": 3,
      "note": 49,
      "start": 24.2003,
      "duration": 0.0998,
      "velocity": 106,
      "chip": "ym2612"
    },
    {
      "channel": 0,
      "note": 51,
      "start": 24.2996,
      "duration": 0.0999,
      "velocity": 106,
      "chip": "ym2612"
    },
    {
      "channel": 3,
      "note": 50,
      "start": 24.3003,
      "duration": 0.0998,
      "velocity": 106,
      "chip": "ym2612"
    },
    {
      "channel": 0,
      "note": 52,
      "start": 24.3996,
      "duration": 0.0999,
      "velocity": 106,
      "chip": "ym2612"
    },
    {
      "channel": 3,
      "note": 51,
      "start": 24.4003,
      "duration": 0.0998,
      "velocity": 106,
      "chip": "ym2612"
    },
    {
      "channel": 0,
      "note": 53,
      "start": 24.4996,
      "duration": 0.0999,
      "velocity": 106,
      "chip": "ym2612"
    },
    {
      "channel": 3,
      "note": 52,
      "start": 24.5003,
      "duration": 0.0998,
      "velocity": 106,
      "chip": "ym2612"
    },
    {
      "channel": 0,
      "note": 54,
      "start": 24.5996,
      "duration": 0.0999,
      "velocity": 106,
      "chip": "ym2612"
    },
    {
      "channel": 3,
      "note": 53,
      "start": 24.6003,
      "duration": 0.0998,
      "velocity": 106,
      "chip": "ym2612"
    },
    {
      "channel": 0,
      "note": 55,
      "start": 24.6996,
      "duration": 0.0999,
      "velocity": 106,
      "chip": "ym2612"
    },
    {
      "channel": 3,
      "note": 54,
      "start": 24.7003,
      "duration": 0.0998,
      "velocity": 106,
      "chip": "ym2612"
    },
    {
      "channel": 0,
      "note": 56,
      "start": 24.7996,
      "duration": 0.0999,
      "velocity": 106,
      "chip": "ym2612"
    },
    {
      "channel": 3,
      "note": 55,
      "start": 24.8003,
      "duration": 0.0998,
      "velocity": 106,
      "chip": "ym2612"
    },
    {
      "channel": 0,
      "note": 57,
      "start": 24.8996,
      "duration": 0.0999,
      "velocity": 106,
      "chip": "ym2612"
    },
    {
      "channel": 3,
      "note": 56,
      "start": 24.9003,
      "duration": 0.0998,
      "velocity": 106,
      "chip": "ym2612"
    },
    {
      "channel": 0,
      "note": 58,
      "start": 24.9996,
      "duration": 0.1016,
      "velocity": 99,
      "chip": "ym2612"
    },
    {
      "channel": 3,
      "note": 57,
      "start": 25.0003,
      "duration": 0.1073,
      "velocity": 107,
      "chip": "ym2612"
    },
    {
      "channel": 0,
      "note": 83,
      "start": 25.1013,
      "duration": 2.9836,
      "velocity": 117,
      "chip": "ym2612"
    },
    {
      "channel": 1,
      "note": 71,
      "start": 25.1035,
      "duration": 1.543,
      "velocity": 107,
      "chip": "ym2612"
    },
    {
      "channel": 2,
      "note": 67,
      "start": 25.1056,
      "duration": 1.5415,
      "velocity": 107,
      "chip": "ym2612"
    },
    {
      "channel": 3,
      "note": 62,
      "start": 25.1077,
      "duration": 1.5399,
      "velocity": 107,
      "chip": "ym2612"
    },
    {
      "channel": 4,
      "note": 55,
      "start": 25.1098,
      "duration": 0.176,
      "velocity": 117,
      "chip": "ym2612"
    },
    {
      "channel": 4,
      "note": 55,
      "start": 25.2861,
      "duration": 0.0998,
      "velocity": 117,
      "chip": "ym2612"
    },
    {
      "channel": 4,
      "note": 55,
      "start": 25.3861,
      "duration": 0.0999,
      "velocity": 117,
      "chip": "ym2612"
    },
    {
      "channel": 4,
      "note": 67,
      "start": 25.4861,
      "duration": 0.1866,
      "velocity": 117,
      "chip": "ym2612"
    },
    {
      "channel": 4,
      "note": 55,
      "start": 25.6729,
      "duration": 0.0998,
      "velocity": 117,
      "chip": "ym2612"
    },
    {
      "channel": 4,
      "note": 55,
      "start": 25.7729,
      "duration": 0.0998,
      "velocity": 117,
      "chip": "ym2612"
    },
    {
      "channel": 4,
      "note": 55,
      "start": 25.8729,
      "duration": 0.1867,
      "velocity": 117,
      "chip": "ym2612"
    },
    {
      "channel": 4,
      "note": 55,
      "start": 26.0598,
      "duration": 0.0998,
      "velocity": 117,
      "chip": "ym2612"
    },
    {
      "channel": 4,
      "note": 55,
      "start": 26.1598,
      "duration": 0.0998,
      "velocity": 117,
      "chip": "ym2612"
    },
    {
      "channel": 4,
      "note": 67,
      "start": 26.2598,
      "duration": 0.1867,
      "velocity": 117,
      "chip": "ym2612"
    },
    {
      "channel": 4,
      "note": 55,
      "start": 26.4467,
      "duration": 0.0998,
      "velocity": 117,
      "chip": "ym2612"
    },
    {
      "channel": 4,
      "note": 55,
      "start": 26.5467,
      "duration": 0.1014,
      "velocity": 117,
      "chip": "ym2612"
    },
    {
      "channel": 1,
      "note": 74,
      "start": 26.6467,
      "duration": 1.4388,
      "velocity": 107,
      "chip": "ym2612"
    },
    {
      "channel": 2,
      "note": 69,
      "start": 26.6472,
      "duration": 1.4388,
      "velocity": 107,
      "chip": "ym2612"
    },
    {
      "channel": 3,
      "note": 78,
      "start": 26.6478,
      "duration": 1.4389,
      "velocity": 107,
      "chip": "ym2612"
    },
    {
      "channel": 4,
      "note": 55,
      "start": 26.6483,
      "duration": 0.19,
      "velocity": 117,
      "chip": "ym2612"
    },
    {
      "channel": 4,
      "note": 55,
      "start": 26.8386,
      "duration": 0.0998,
      "velocity": 117,
      "chip": "ym2612"
    },
    {
      "channel": 4,
      "note": 55,
      "start": 26.9386,
      "duration": 0.0998,
      "velocity": 117,
      "chip": "ym2612"
    },
    {
      "channel": 4,
      "note": 67,
      "start": 27.0386,
      "duration": 0.185,
      "velocity": 117,
      "chip": "ym2612"
    },
    {
      "channel": 4,
      "note": 55,
      "start": 27.2238,
      "duration": 0.0998,
      "velocity": 117,
      "chip": "ym2612"
    },
    {
      "channel": 4,
      "note": 55,
      "start": 27.3238,
      "duration": 0.0999,
      "velocity": 117,
      "chip": "ym2612"
    },
    {
      "channel": 4,
      "note": 55,
      "start": 27.4238,
      "duration": 0.1867,
      "velocity": 117,
      "chip": "ym2612"
    },
    {
      "channel": 4,
      "note": 55,
      "start": 27.6106,
      "duration": 0.08,
      "velocity": 117,
      "chip": "ym2612"
    },
    {
      "channel": 4,
      "note": 55,
      "start": 27.6908,
      "duration": 0.0801,
      "velocity": 117,
      "chip": "ym2612"
    },
    {
      "channel": 4,
      "note": 67,
      "start": 27.7711,
      "duration": 0.1627,
      "velocity": 117,
      "chip": "ym2612"
    },
    {
      "channel": 4,
      "note": 55,
      "start": 27.934,
      "duration": 0.0772,
      "velocity": 117,
      "chip": "ym2612"
    },
    {
      "channel": 4,
      "note": 55,
      "start": 28.0114,
      "duration": 0.0774,
      "velocity": 107,
      "chip": "ym2612"
    },
    {
      "channel": 0,
      "note": 55,
      "start": 28.085,
      "duration": 0.19,
      "velocity": 117,
      "chip": "ym2612"
    },
    {
      "channel": 1,
      "note": 83,
      "start": 28.0856,
      "duration": 3.0294,
      "velocity": 107,
      "chip": "ym2612"
    },
    {
      "channel": 2,
      "note": 79,
      "start": 28.0862,
      "duration": 3.0293,
      "velocity": 107,
      "chip": "ym2612"
    },
    {
      "channel": 3,
      "note": 74,
      "start": 28.0868,
      "duration": 3.0293,
      "velocity": 107,
      "chip": "ym2612"
    },
    {
      "channel": 4,
      "note": 71,
      "start": 28.089,
      "duration": 2.8261,
      "velocity": 107,
      "chip": "ym2612"
    },
    {
      "channel": 0,
      "note": 55,
      "start": 28.2751,
      "duration": 0.0998,
      "velocity": 117,
      "chip": "ym2612"
    },
    {
      "channel": 5,
      "note": 91,
      "start": 28.2775,
      "duration": 0.0983,
      "velocity": 127,
      "chip": "ym2612"
    },
    {
      "channel": 0,
      "note": 55,
      "start": 28.3751,
      "duration": 0.0999,
      "velocity": 117,
      "chip": "ym2612"
    },
    {
      "channel": 5,
      "note": 91,
      "start": 28.3759,
      "duration": 0.2739,
      "velocity": 127,
      "chip": "ym2612"
    },
    {
      "channel": 0,
      "note": 67,
      "start": 28.4751,
      "duration": 0.1739,
      "velocity": 117,
      "chip": "ym2612"
    },
    {
      "channel": 0,
      "note": 55,
      "start": 28.6492,
      "duration": 0.0999,
      "velocity": 117,
      "chip": "ym2612"
    },
    {
      "channel": 5,
      "note": 91,
      "start": 28.65,
      "duration": 0.0999,
      "velocity": 127,
      "chip": "ym2612"
    },
    {
      "channel": 0,
      "note": 67,
      "start": 28.7492,
      "duration": 0.0998,
      "velocity": 117,
      "chip": "ym2612"
    },
    {
      "channel": 5,
      "note": 91,
      "start": 28.75,
      "duration": 0.2851,
      "velocity": 127,
      "chip": "ym2612"
    },
    {
      "channel": 0,
      "note": 55,
      "start": 28.8492,
      "duration": 0.1851,
      "velocity": 117,
      "chip": "ym2612"
    },
    {
      "channel": 0,
      "note": 55,
      "start": 29.0344,
      "duration": 0.0998,
      "velocity": 117,
      "chip": "ym2612"
    },
    {
      "channel": 5,
      "note": 91,
      "start": 29.0352,
      "duration": 0.0999,
      "velocity": 127,
      "chip": "ym2612"
    },
    {
      "channel": 0,
      "note": 55,
      "start": 29.1344,
      "duration": 0.0999,
      "velocity": 117,
      "chip": "ym2612"
    },
    {
      "channel": 5,
      "note": 91,
      "start": 29.1352,
      "duration": 0.2738,
      "velocity": 127,
      "chip": "ym2612"
    },
    {
      "channel": 0,
      "note": 67,
      "start": 29.2344,
      "duration": 0.1737,
      "velocity": 117,
      "chip": "ym2612"
    },
    {
      "channel": 0,
      "note": 55,
      "start": 29.4083,
      "duration": 0.0999,
      "velocity": 117,
      "chip": "ym2612"
    },
    {
      "channel": 5,
      "note": 91,
      "start": 29.4091,
      "duration": 0.0999,
      "velocity": 127,
      "chip": "ym2612"
    },
    {
      "channel": 0,
      "note": 67,
      "start": 29.5083,
      "duration": 0.0999,
      "velocity": 117,
      "chip": "ym2612"
    },
    {
      "channel": 5,
      "note": 91,
      "start": 29.5091,
      "duration": 0.2866,
      "velocity": 127,
      "chip": "ym2612"
    },
    {
      "channel": 0,
      "note": 55,
      "start": 29.6083,
      "duration": 0.1866,
      "velocity": 117,
      "chip": "ym2612"
    },
    {
      "channel": 0,
      "note": 55,
      "start": 29.7951,
      "duration": 0.0999,
      "velocity": 117,
      "chip": "ym2612"
    },
    {
      "channel": 5,
      "note": 91,
      "start": 29.7959,
      "duration": 0.0998,
      "velocity": 127,
      "chip": "ym2612"
    },
    {
      "channel": 0,
      "note": 55,
      "start": 29.8951,
      "duration": 0.0999,
      "velocity": 117,
      "chip": "ym2612"
    },
    {
      "channel": 5,
      "note": 91,
      "start": 29.8959,
      "duration": 0.2671,
      "velocity": 127,
      "chip": "ym2612"
    },
    {
      "channel": 0,
      "note": 67,
      "start": 29.9951,
      "duration": 0.1671,
      "velocity": 117,
      "chip": "ym2612"
    },
    {
      "channel": 0,
      "note": 55,
      "start": 30.1624,
      "duration": 0.0998,
      "velocity": 117,
      "chip": "ym2612"
    },
    {
      "channel": 5,
      "note": 91,
      "start": 30.1632,
      "duration": 0.0998,
      "velocity": 127,
      "chip": "ym2612"
    },
    {
      "channel": 0,
      "note": 67,
      "start": 30.2624,
      "duration": 0.0999,
      "velocity": 117,
      "chip": "ym2612"
    },
    {
      "channel": 5,
      "note": 91,
      "start": 30.2632,
      "duration": 0.2848,
      "velocity": 127,
      "chip": "ym2612"
    },
    {
      "channel": 0,
      "note": 55,
      "start": 30.3624,
      "duration": 0.1848,
      "velocity": 117,
      "chip": "ym2612"
    },
    {
      "channel": 0,
      "note": 55,
      "start": 30.5473,
      "duration": 0.0998,
      "velocity": 117,
      "chip": "ym2612"
    },
    {
      "channel": 5,
      "note": 91,
      "start": 30.5481,
      "duration": 0.0999,
      "velocity": 127,
      "chip": "ym2612"
    },
    {
      "channel": 0,
      "note": 55,
      "start": 30.6473,
      "duration": 0.0998,
      "velocity": 117,
      "chip": "ym2612"
    },
    {
      "channel": 5,
      "note": 91,
      "start": 30.6481,
      "duration": 0.2676,
      "velocity": 127,
      "chip": "ym2612"
    },
    {
      "channel": 0,
      "note": 67,
      "start": 30.7473,
      "duration": 0.1671,
      "velocity": 117,
      "chip": "ym2612"
    },
    {
      "channel": 0,
      "note": 55,
      "start": 30.9145,
      "duration": 0.0998,
      "velocity": 117,
      "chip": "ym2612"
    },
    {
      "channel": 4,
      "note": 81,
      "start": 30.9153,
      "duration": 0.0998,
      "velocity": 107,
      "chip": "ym2612"
    },
    {
      "channel": 5,
      "note": 91,
      "start": 30.9159,
      "duration": 0.0998,
      "velocity": 127,
      "chip": "ym2612"
    },
    {
      "channel": 0,
      "note": 67,
      "start": 31.0145,
      "duration": 0.1,
      "velocity": 117,
      "chip": "ym2612"
    },
    {
      "channel": 4,
      "note": 83,
      "start": 31.0153,
      "duration": 0.1014,
      "velocity": 107,
      "chip": "ym2612"
    },
    {
      "channel": 5,
      "note": 91,
      "start": 31.0159,
      "duration": 0.2909,
      "velocity": 127,
      "chip": "ym2612"
    },
    {
      "channel": 0,
      "note": 57,
      "start": 31.1146,
      "duration": 0.1913,
      "velocity": 117,
      "chip": "ym2612"
    },
    {
      "channel": 1,
      "note": 81,
      "start": 31.1152,
      "duration": 2.9765,
      "velocity": 107,
      "chip": "ym2612"
    },
    {
      "channel": 2,
      "note": 78,
      "start": 31.1158,
      "duration": 2.9765,
      "velocity": 107,
      "chip": "ym2612"
    },
    {
      "channel": 3,
      "note": 74,
      "start": 31.1163,
      "duration": 2.9765,
      "velocity": 107,
      "chip": "ym2612"
    },
    {
      "channel": 4,
      "note": 84,
      "start": 31.1168,
      "duration": 2.9767,
      "velocity": 107,
      "chip": "ym2612"
    },
    {
      "channel": 0,
      "note": 57,
      "start": 31.3061,
      "duration": 0.0998,
      "velocity": 117,
      "chip": "ym2612"
    },
    {
      "channel": 5,
      "note": 91,
      "start": 31.3069,
      "duration": 0.0999,
      "velocity": 127,
      "chip": "ym2612"
    },
    {
      "channel": 0,
      "note": 57,
      "start": 31.4061,
      "duration": 0.0998,
      "velocity": 117,
      "chip": "ym2612"
    },
    {
      "channel": 5,
      "note": 91,
      "start": 31.4069,
      "duration": 0.2671,
      "velocity": 127,
      "chip": "ym2612"
    },
    {
      "channel": 0,
      "note": 69,
      "start": 31.5061,
      "duration": 0.1671,
      "velocity": 117,
      "chip": "ym2612"
    },
    {
      "channel": 0,
      "note": 57,
      "start": 31.6734,
      "duration": 0.0998,
      "velocity": 117,
      "chip": "ym2612"
    },
    {
      "channel": 5,
      "note": 91,
      "start": 31.6741,
      "duration": 0.0998,
      "velocity": 127,
      "chip": "ym2612"
    },
    {
      "channel": 0,
      "note": 69,
      "start": 31.7733,
      "duration": 0.0999,
      "velocity": 117,
      "chip": "ym2612"
    },
    {
      "channel": 5,
      "note": 91,
      "start": 31.7741,
      "duration": 0.2848,
      "velocity": 127,
      "chip": "ym2612"
    },
    {
      "channel": 0,
      "note": 57,
      "start": 31.8733,
      "duration": 0.1848,
      "velocity": 117,
      "chip": "ym2612"
    },
    {
      "channel": 0,
      "note": 57,
      "start": 32.0583,
      "duration": 0.0998,
      "velocity": 117,
      "chip": "ym2612"
    },
    {
      "channel": 5,
      "note": 91,
      "start": 32.059,
      "duration": 0.0998,
      "velocity": 127,
      "chip": "ym2612"
    },
    {
      "channel": 0,
      "note": 57,
      "start": 32.1582,
      "duration": 0.0999,
      "velocity": 117,
      "chip": "ym2612"
    },
    {
      "channel": 5,
      "note": 91,
      "start": 32.159,
      "duration": 0.2671,
      "velocity": 127,
      "chip": "ym2612"
    },
    {
      "channel": 0,
      "note": 69,
      "start": 32.2582,
      "duration": 0.1671,
      "velocity": 117,
      "chip": "ym2612"
    },
    {
      "channel": 0,
      "note": 57,
      "start": 32.4254,
      "duration": 0.0999,
      "velocity": 117,
      "chip": "ym2612"
    },
    {
      "channel": 5,
      "note": 91,
      "start": 32.4263,
      "duration": 0.0999,
      "velocity": 127,
      "chip": "ym2612"
    },
    {
      "channel": 0,
      "note": 69,
      "start": 32.5254,
      "duration": 0.0999,
      "velocity": 117,
      "chip": "ym2612"
    },
    {
      "channel": 5,
      "note": 91,
      "start": 32.5263,
      "duration": 0.2867,
      "velocity": 127,
      "chip": "ym2612"
    },
    {
      "channel": 0,
      "note": 50,
      "start": 32.6255,
      "duration": 0.1866,
      "velocity": 117,
      "chip": "ym2612"
    },
    {
      "channel": 0,
      "note": 50,
      "start": 32.8122,
      "duration": 0.0999,
      "velocity": 117,
      "chip": "ym2612"
    },
    {
      "channel": 5,
      "note": 91,
      "start": 32.8131,
      "duration": 0.0999,
      "velocity": 127,
      "chip": "ym2612"
    },
    {
      "channel": 0,
      "note": 50,
      "start": 32.9122,
      "duration": 0.0999,
      "velocity": 117,
      "chip": "ym2612"
    },
    {
      "channel": 5,
      "note": 91,
      "start": 32.9131,
      "duration": 0.2739,
      "velocity": 127,
      "chip": "ym2612"
    },
    {
      "channel": 0,
      "note": 62,
      "start": 33.0123,
      "duration": 0.1739,
      "velocity": 117,
      "chip": "ym2612"
    },
    {
      "channel": 0,
      "note": 50,
      "start": 33.1863,
      "duration": 0.0998,
      "velocity": 117,
      "chip": "ym2612"
    },
    {
      "channel": 5,
      "note": 91,
      "start": 33.1871,
      "duration": 0.0998,
      "velocity": 127,
      "chip": "ym2612"
    },
    {
      "channel": 0,
      "note": 62,
      "start": 33.2863,
      "duration": 0.0999,
      "velocity": 117,
      "chip": "ym2612"
    },
    {
      "channel": 5,
      "note": 91,
      "start": 33.2871,
      "duration": 0.2851,
      "velocity": 127,
      "chip": "ym2612"
    },
    {
      "channel": 0,
      "note": 50,
      "start": 33.3863,
      "duration": 0.1851,
      "velocity": 117,
      "chip": "ym2612"
    },
    {
      "channel": 0,
      "note": 50,
      "start": 33.5715,
      "duration": 0.0998,
      "velocity": 117,
      "chip": "ym2612"
    },
    {
      "channel": 5,
      "note": 91,
      "start": 33.5723,
      "duration": 0.0998,
      "velocity": 127,
      "chip": "ym2612"
    },
    {
      "channel": 0,
      "note": 50,
      "start": 33.6715,
      "duration": 0.0999,
      "velocity": 117,
      "chip": "ym2612"
    },
    {
      "channel": 5,
      "note": 91,
      "start": 33.6723,
      "duration": 0.606,
      "velocity": 127,
      "chip": "ym2612"
    },
    {
      "channel": 0,
      "note": 62,
      "start": 33.7715,
      "duration": 0.1668,
      "velocity": 117,
      "chip": "ym2612"
    },
    {
      "channel": 0,
      "note": 50,
      "start": 33.9384,
      "duration": 0.0802,
      "velocity": 117,
      "chip": "ym2612"
    },
    {
      "channel": 0,
      "note": 62,
      "start": 34.0188,
      "duration": 0.0722,
      "velocity": 117,
      "chip": "ym2612"
    },
    {
      "channel": 0,
      "note": 48,
      "start": 34.0912,
      "duration": 0.1863,
      "velocity": 117,
      "chip": "ym2612"
    },
    {
      "channel": 1,
      "note": 88,
      "start": 34.0918,
      "duration": 3.0356,
      "velocity": 107,
      "chip": "ym2612"
    },
    {
      "channel": 2,
      "note": 84,
      "start": 34.0924,
      "duration": 2.6606,
      "velocity": 107,
      "chip": "ym2612"
    },
    {
      "channel": 3,
      "note": 79,
      "start": 34.093,
      "duration": 2.2725,
      "velocity": 107,
      "chip": "ym2612"
    },
    {
      "channel": 4,
      "note": 76,
      "start": 34.0936,
      "duration": 1.8961,
      "velocity": 107,
      "chip": "ym2612"
    },
    {
      "channel": 0,
      "note": 48,
      "start": 34.2776,
      "duration": 0.0998,
      "velocity": 117,
      "chip": "ym2612"
    },
    {
      "channel": 5,
      "note": 91,
      "start": 34.2785,
      "duration": 0.0997,
      "velocity": 127,
      "chip": "ym2612"
    },
    {
      "channel": 0,
      "note": 48,
      "start": 34.3776,
      "duration": 0.0998,
      "velocity": 117,
      "chip": "ym2612"
    },
    {
      "channel": 5,
      "note": 91,
      "start": 34.3784,
      "duration": 0.2671,
      "velocity": 127,
      "chip": "ym2612"
    },
    {
      "channel": 0,
      "note": 60,
      "start": 34.4776,
      "duration": 0.1671,
      "velocity": 117,
      "chip": "ym2612"
    },
    {
      "channel": 0,
      "note": 48,
      "start": 34.6449,
      "duration": 0.0998,
      "velocity": 117,
      "chip": "ym2612"
    },
    {
      "channel": 5,
      "note": 91,
      "start": 34.6456,
      "duration": 0.0998,
      "velocity": 127,
      "chip": "ym2612"
    },
    {
      "channel": 0,
      "note": 60,
      "start": 34.7448,
      "duration": 0.0999,
      "velocity": 117,
      "chip": "ym2612"
    },
    {
      "channel": 5,
      "note": 91,
      "start": 34.7456,
      "duration": 0.2851,
      "velocity": 127,
      "chip": "ym2612"
    },
    {
      "channel": 0,
      "note": 48,
      "start": 34.8448,
      "duration": 0.1851,
      "velocity": 117,
      "chip": "ym2612"
    },
    {
      "channel": 0,
      "note": 48,
      "start": 35.0301,
      "duration": 0.0998,
      "velocity": 117,
      "chip": "ym2612"
    },
    {
      "channel": 5,
      "note": 91,
      "start": 35.0309,
      "duration": 0.0998,
      "velocity": 127,
      "chip": "ym2612"
    },
    {
      "channel": 0,
      "note": 48,
      "start": 35.13,
      "duration": 0.0999,
      "velocity": 117,
      "chip": "ym2612"
    },
    {
      "channel": 5,
      "note": 91,
      "start": 35.1309,
      "duration": 0.2739,
      "velocity": 127,
      "chip": "ym2612"
    },
    {
      "channel": 0,
      "note": 60,
      "start": 35.2301,
      "duration": 0.1739,
      "velocity": 117,
      "chip": "ym2612"
    },
    {
      "channel": 0,
      "note": 48,
      "start": 35.4041,
      "duration": 0.0999,
      "velocity": 117,
      "chip": "ym2612"
    },
    {
      "channel": 5,
      "note": 91,
      "start": 35.4049,
      "duration": 0.0999,
      "velocity": 127,
      "chip": "ym2612"
    },
    {
      "channel": 0,
      "note": 60,
      "start": 35.5042,
      "duration": 0.0998,
      "velocity": 117,
      "chip": "ym2612"
    },
    {
      "channel": 5,
      "note": 91,
      "start": 35.5049,
      "duration": 0.2848,
      "velocity": 127,
      "chip": "ym2612"
    },
    {
      "channel": 0,
      "note": 48,
      "start": 35.6041,
      "duration": 0.1848,
      "velocity": 117,
      "chip": "ym2612"
    },
    {
      "channel": 0,
      "note": 48,
      "start": 35.789,
      "duration": 0.0999,
      "velocity": 117,
      "chip": "ym2612"
    },
    {
      "channel": 5,
      "note": 91,
      "start": 35.7898,
      "duration": 0.0999,
      "velocity": 127,
      "chip": "ym2612"
    },
    {
      "channel": 0,
      "note": 48,
      "start": 35.889,
      "duration": 0.0999,
      "velocity": 117,
      "chip": "ym2612"
    },
    {
      "channel": 5,
      "note": 91,
      "start": 35.8898,
      "duration": 0.2758,
      "velocity": 127,
      "chip": "ym2612"
    },
    {
      "channel": 0,
      "note": 60,
      "start": 35.9891,
      "duration": 0.1758,
      "velocity": 117,
      "chip": "ym2612"
    },
    {
      "channel": 4,
      "note": 84,
      "start": 35.9898,
      "duration": 1.1392,
      "velocity": 107,
      "chip": "ym2612"
    },
    {
      "channel": 0,
      "note": 48,
      "start": 36.165,
      "duration": 0.0998,
      "velocity": 117,
      "chip": "ym2612"
    },
    {
      "channel": 5,
      "note": 91,
      "start": 36.1658,
      "duration": 0.0999,
      "velocity": 127,
      "chip": "ym2612"
    },
    {
      "channel": 0,
      "note": 60,
      "start": 36.265,
      "duration": 0.0999,
      "velocity": 117,
      "chip": "ym2612"
    },
    {
      "channel": 5,
      "note": 91,
      "start": 36.2658,
      "duration": 0.2874,
      "velocity": 127,
      "chip": "ym2612"
    },
    {
      "channel": 0,
      "note": 48,
      "start": 36.365,
      "duration": 0.1873,
      "velocity": 117,
      "chip": "ym2612"
    },
    {
      "channel": 3,
      "note": 79,
      "start": 36.3657,
      "duration": 0.7628,
      "velocity": 107,
      "chip": "ym2612"
    },
    {
      "channel": 0,
      "note": 48,
      "start": 36.5526,
      "duration": 0.0998,
      "velocity": 117,
      "chip": "ym2612"
    },
    {
      "channel": 5,
      "note": 91,
      "start": 36.5533,
      "duration": 0.0999,
      "velocity": 127,
      "chip": "ym2612"
    },
    {
      "channel": 0,
      "note": 48,
      "start": 36.6526,
      "duration": 0.0998,
      "velocity": 117,
      "chip": "ym2612"
    },
    {
      "channel": 5,
      "note": 91,
      "start": 36.6533,
      "duration": 0.2742,
      "velocity": 127,
      "chip": "ym2612"
    },
    {
      "channel": 0,
      "note": 60,
      "start": 36.7526,
      "duration": 0.1741,
      "velocity": 117,
      "chip": "ym2612"
    },
    {
      "channel": 2,
      "note": 76,
      "start": 36.7532,
      "duration": 0.3747,
      "velocity": 107,
      "chip": "ym2612"
    },
    {
      "channel": 0,
      "note": 48,
      "start": 36.9269,
      "duration": 0.0998,
      "velocity": 117,
      "chip": "ym2612"
    },
    {
      "channel": 5,
      "note": 91,
      "start": 36.9277,
      "duration": 0.0998,
      "velocity": 127,
      "chip": "ym2612"
    },
    {
      "channel": 0,
      "note": 60,
      "start": 37.0268,
      "duration": 0.1,
      "velocity": 117,
      "chip": "ym2612"
    },
    {
      "channel": 5,
      "note": 91,
      "start": 37.0277,
      "duration": 0.2915,
      "velocity": 127,
      "chip": "ym2612"
    },
    {
      "channel": 0,
      "note": 51,
      "start": 37.127,
      "duration": 0.1913,
      "velocity": 117,
      "chip": "ym2612"
    },
    {
      "channel": 1,
      "note": 82,
      "start": 37.1275,
      "duration": 2.9783,
      "velocity": 107,
      "chip": "ym2612"
    },
    {
      "channel": 2,
      "note": 79,
      "start": 37.1281,
      "duration": 2.9783,
      "velocity": 107,
      "chip": "ym2612"
    },
    {
      "channel": 3,
      "note": 75,
      "start": 37.1287,
      "duration": 2.9784,
      "velocity": 107,
      "chip": "ym2612"
    },
    {
      "channel": 4,
      "note": 70,
      "start": 37.1292,
      "duration": 2.98,
      "velocity": 99,
      "chip": "ym2612"
    },
    {
      "channel": 0,
      "note": 51,
      "start": 37.3185,
      "duration": 0.0998,
      "velocity": 117,
      "chip": "ym2612"
    },
    {
      "channel": 5,
      "note": 91,
      "start": 37.3193,
      "duration": 0.0998,
      "velocity": 127,
      "chip": "ym2612"
    },
    {
      "channel": 0,
      "note": 51,
      "start": 37.4184,
      "duration": 0.0999,
      "velocity": 117,
      "chip": "ym2612"
    },
    {
      "channel": 5,
      "note": 91,
      "start": 37.4193,
      "duration": 0.2668,
      "velocity": 127,
      "chip": "ym2612"
    },
    {
      "channel": 0,
      "note": 63,
      "start": 37.5184,
      "duration": 0.1668,
      "velocity": 117,
      "chip": "ym2612"
    },
    {
      "channel": 0,
      "note": 51,
      "start": 37.6854,
      "duration": 0.0998,
      "velocity": 117,
      "chip": "ym2612"
    },
    {
      "channel": 5,
      "note": 91,
      "start": 37.6862,
      "duration": 0.0998,
      "velocity": 127,
      "chip": "ym2612"
    },
    {
      "channel": 0,
      "note": 63,
      "start": 37.7854,
      "duration": 0.0999,
      "velocity": 117,
      "chip": "ym2612"
    },
    {
      "channel": 5,
      "note": 91,
      "start": 37.7862,
      "duration": 0.2866,
      "velocity": 127,
      "chip": "ym2612"
    },
    {
      "channel": 0,
      "note": 51,
      "start": 37.8854,
      "duration": 0.1866,
      "velocity": 117,
      "chip": "ym2612"
    },
    {
      "channel": 0,
      "note": 51,
      "start": 38.0722,
      "duration": 0.0999,
      "velocity": 117,
      "chip": "ym2612"
    },
    {
      "channel": 5,
      "note": 91,
      "start": 38.073,
      "duration": 0.0999,
      "velocity": 127,
      "chip": "ym2612"
    },
    {
      "channel": 0,
      "note": 51,
      "start": 38.1722,
      "duration": 0.0998,
      "velocity": 117,
      "chip": "ym2612"
    },
    {
      "channel": 5,
      "note": 91,
      "start": 38.173,
      "duration": 0.2668,
      "velocity": 127,
      "chip": "ym2612"
    },
    {
      "channel": 0,
      "note": 63,
      "start": 38.2722,
      "duration": 0.1668,
      "velocity": 117,
      "chip": "ym2612"
    },
    {
      "channel": 0,
      "note": 51,
      "start": 38.4391,
      "duration": 0.0998,
      "velocity": 117,
      "chip": "ym2612"
    },
    {
      "channel": 5,
      "note": 91,
      "start": 38.4399,
      "duration": 0.0998,
      "velocity": 127,
      "chip": "ym2612"
    },
    {
      "channel": 0,
      "note": 63,
      "start": 38.5391,
      "duration": 0.0999,
      "velocity": 117,
      "chip": "ym2612"
    },
    {
      "channel": 5,
      "note": 91,
      "start": 38.5399,
      "duration": 0.2851,
      "velocity": 127,
      "chip": "ym2612"
    },
    {
      "channel": 0,
      "note": 53,
      "start": 38.6391,
      "duration": 0.1851,
      "velocity": 117,
      "chip": "ym2612"
    },
    {
      "channel": 0,
      "note": 53,
      "start": 38.8243,
      "duration": 0.0998,
      "velocity": 117,
      "chip": "ym2612"
    },
    {
      "channel": 5,
      "note": 91,
      "start": 38.8251,
      "duration": 0.0998,
      "velocity": 127,
      "chip": "ym2612"
    },
    {
      "channel": 0,
      "note": 53,
      "start": 38.9243,
      "duration": 0.0999,
      "velocity": 117,
      "chip": "ym2612"
    },
    {
      "channel": 5,
      "note": 91,
      "start": 38.9251,
      "duration": 0.2671,
      "velocity": 127,
      "chip": "ym2612"
    },
    {
      "channel": 0,
      "note": 65,
      "start": 39.0243,
      "duration": 0.1671,
      "velocity": 117,
      "chip": "ym2612"
    },
    {
      "channel": 0,
      "note": 53,
      "start": 39.1915,
      "duration": 0.0999,
      "velocity": 117,
      "chip": "ym2612"
    },
    {
      "channel": 5,
      "note": 91,
      "start": 39.1923,
      "duration": 0.0999,
      "velocity": 127,
      "chip": "ym2612"
    },
    {
      "channel": 0,
      "note": 65,
      "start": 39.2916,
      "duration": 0.0998,
      "velocity": 117,
      "chip": "ym2612"
    },
    {
      "channel": 5,
      "note": 91,
      "start": 39.2923,
      "duration": 0.2847,
      "velocity": 127,
      "chip": "ym2612"
    },
    {
      "channel": 0,
      "note": 53,
      "start": 39.3915,
      "duration": 0.1848,
      "velocity": 117,
      "chip": "ym2612"
    },
    {
      "channel": 0,
      "note": 53,
      "start": 39.5764,
      "duration": 0.0999,
      "velocity": 117,
      "chip": "ym2612"
    },
    {
      "channel": 5,
      "note": 91,
      "start": 39.5772,
      "duration": 0.0999,
      "velocity": 127,
      "chip": "ym2612"
    },
    {
      "channel": 0,
      "note": 53,
      "start": 39.6764,
      "duration": 0.0999,
      "velocity": 117,
      "chip": "ym2612"
    },
    {
      "channel": 5,
      "note": 91,
      "start": 39.6772,
      "duration": 0.6192,
      "velocity": 127,
      "chip": "ym2612"
    },
    {
      "channel": 0,
      "note": 65,
      "start": 39.7764,
      "duration": 0.174,
      "velocity": 117,
      "chip": "ym2612"
    },
    {
      "channel": 0,
      "note": 53,
      "start": 39.9506,
      "duration": 0.0801,
      "velocity": 117,
      "chip": "ym2612"
    },
    {
      "channel": 0,
      "note": 65,
      "start": 40.0308,
      "duration": 0.0744,
      "velocity": 117,
      "chip": "ym2612"
    },
    {
      "channel": 0,
      "note": 55,
      "start": 40.1054,
      "duration": 0.1901,
      "velocity": 117,
      "chip": "ym2612"
    },
    {
      "channel": 1,
      "note": 83,
      "start": 40.106,
      "duration": 3.0414,
      "velocity": 107,
      "chip": "ym2612"
    },
    {
      "channel": 2,
      "note": 79,
      "start": 40.1066,
      "duration": 3.0413,
      "velocity": 107,
      "chip": "ym2612"
    },
    {
      "channel": 3,
      "note": 74,
      "start": 40.1072,
      "duration": 3.0412,
      "velocity": 107,
      "chip": "ym2612"
    },
    {
      "channel": 4,
      "note": 86,
      "start": 40.1093,
      "duration": 1.898,
      "velocity": 99,
      "chip": "ym2612"
    },
    {
      "channel": 0,
      "note": 55,
      "start": 40.2957,
      "duration": 0.0998,
      "velocity": 117,
      "chip": "ym2612"
    },
    {
      "channel": 5,
      "note": 91,
      "start": 40.2965,
      "duration": 0.0998,
      "velocity": 127,
      "chip": "ym2612"
    },
    {
      "channel": 0,
      "note": 55,
      "start": 40.3957,
      "duration": 0.0998,
      "velocity": 117,
      "chip": "ym2612"
    },
    {
      "channel": 5,
      "note": 91,
      "start": 40.3965,
      "duration": 0.2739,
      "velocity": 127,
      "chip": "ym2612"
    },
    {
      "channel": 0,
      "note": 67,
      "start": 40.4957,
      "duration": 0.1739,
      "velocity": 117,
      "chip": "ym2612"
    },
    {
      "channel": 0,
      "note": 55,
      "start": 40.6698,
      "duration": 0.0998,
      "velocity": 117,
      "chip": "ym2612"
    },
    {
      "channel": 5,
      "note": 91,
      "start": 40.6705,
      "duration": 0.0998,
      "velocity": 127,
      "chip": "ym2612"
    },
    {
      "channel": 0,
      "note": 67,
      "start": 40.7697,
      "duration": 0.0999,
      "velocity": 117,
      "chip": "ym2612"
    },
    {
      "channel": 5,
      "note": 91,
      "start": 40.7705,
      "duration": 0.2848,
      "velocity": 127,
      "chip": "ym2612"
    },
    {
      "channel": 0,
      "note": 55,
      "start": 40.8697,
      "duration": 0.1848,
      "velocity": 117,
      "chip": "ym2612"
    },
    {
      "channel": 0,
      "note": 55,
      "start": 41.0546,
      "duration": 0.0998,
      "velocity": 117,
      "chip": "ym2612"
    },
    {
      "channel": 5,
      "note": 91,
      "start": 41.0554,
      "duration": 0.0998,
      "velocity": 127,
      "chip": "ym2612"
    },
    {
      "channel": 0,
      "note": 55,
      "start": 41.1546,
      "duration": 0.0999,
      "velocity": 117,
      "chip": "ym2612"
    },
    {
      "channel": 5,
      "note": 91,
      "start": 41.1554,
      "duration": 0.2668,
      "velocity": 127,
      "chip": "ym2612"
    },
    {
      "channel": 0,
      "note": 67,
      "start": 41.2546,
      "duration": 0.1668,
      "velocity": 117,
      "chip": "ym2612"
    },
    {
      "channel": 0,
      "note": 55,
      "start": 41.4216,
      "duration": 0.0998,
      "velocity": 117,
      "chip": "ym2612"
    },
    {
      "channel": 5,
      "note": 91,
      "start": 41.4223,
      "duration": 0.0998,
      "velocity": 127,
      "chip": "ym2612"
    },
    {
      "channel": 0,
      "note": 67,
      "start": 41.5215,
      "duration": 0.0999,
      "velocity": 117,
      "chip": "ym2612"
    },
    {
      "channel": 5,
      "note": 91,
      "start": 41.5223,
      "duration": 0.2851,
      "velocity": 127,
      "chip": "ym2612"
    },
    {
      "channel": 0,
      "note": 55,
      "start": 41.6215,
      "duration": 0.1851,
      "velocity": 117,
      "chip": "ym2612"
    },
    {
      "channel": 0,
      "note": 55,
      "start": 41.8068,
      "duration": 0.0998,
      "velocity": 117,
      "chip": "ym2612"
    },
    {
      "channel": 5,
      "note": 91,
      "start": 41.8076,
      "duration": 0.0998,
      "velocity": 127,
      "chip": "ym2612"
    },
    {
      "channel": 0,
      "note": 55,
      "start": 41.9067,
      "duration": 0.0999,
      "velocity": 117,
      "chip": "ym2612"
    },
    {
      "channel": 5,
      "note": 91,
      "start": 41.9076,
      "duration": 0.2763,
      "velocity": 127,
      "chip": "ym2612"
    },
    {
      "channel": 0,
      "note": 67,
      "start": 42.0068,
      "duration": 0.1763,
      "velocity": 117,
      "chip": "ym2612"
    },
    {
      "channel": 4,
      "note": 83,
      "start": 42.0076,
      "duration": 0.3763,
      "velocity": 99,
      "chip": "ym2612"
    },
    {
      "channel": 0,
      "note": 55,
      "start": 42.1832,
      "duration": 0.0999,
      "velocity": 117,
      "chip": "ym2612"
    },
    {
      "channel": 5,
      "note": 91,
      "start": 42.184,
      "duration": 0.0999,
      "velocity": 127,
      "chip": "ym2612"
    },
    {
      "channel": 0,
      "note": 67,
      "start": 42.2832,
      "duration": 0.0998,
      "velocity": 117,
      "chip": "ym2612"
    },
    {
      "channel": 5,
      "note": 91,
      "start": 42.284,
      "duration": 0.2892,
      "velocity": 127,
      "chip": "ym2612"
    },
    {
      "channel": 0,
      "note": 55,
      "start": 42.3832,
      "duration": 0.1891,
      "velocity": 117,
      "chip": "ym2612"
    },
    {
      "channel": 4,
      "note": 86,
      "start": 42.384,
      "duration": 0.3891,
      "velocity": 99,
      "chip": "ym2612"
    },
    {
      "channel": 0,
      "note": 55,
      "start": 42.5725,
      "duration": 0.0999,
      "velocity": 117,
      "chip": "ym2612"
    },
    {
      "channel": 5,
      "note": 91,
      "start": 42.5733,
      "duration": 0.0998,
      "velocity": 127,
      "chip": "ym2612"
    },
    {
      "channel": 0,
      "note": 55,
      "start": 42.6725,
      "duration": 0.0999,
      "velocity": 117,
      "chip": "ym2612"
    },
    {
      "channel": 5,
      "note": 91,
      "start": 42.6733,
      "duration": 0.2742,
      "velocity": 127,
      "chip": "ym2612"
    },
    {
      "channel": 0,
      "note": 67,
      "start": 42.7725,
      "duration": 0.1741,
      "velocity": 117,
      "chip": "ym2612"
    },
    {
      "channel": 4,
      "note": 91,
      "start": 42.7732,
      "duration": 0.3758,
      "velocity": 99,
      "chip": "ym2612"
    },
    {
      "channel": 0,
      "note": 55,
      "start": 42.9468,
      "duration": 0.0998,
      "velocity": 117,
      "chip": "ym2612"
    },
    {
      "channel": 5,
      "note": 91,
      "start": 42.9476,
      "duration": 0.0998,
      "velocity": 127,
      "chip": "ym2612"
    },
    {
      "channel": 0,
      "note": 67,
      "start": 43.0468,
      "duration": 0.1,
      "velocity": 117,
      "chip": "ym2612"
    },
    {
      "channel": 5,
      "note": 91,
      "start": 43.0476,
      "duration": 0.2885,
      "velocity": 127,
      "chip": "ym2612"
    },
    {
      "channel": 0,
      "note": 57,
      "start": 43.147,
      "duration": 0.1884,
      "velocity": 117,
      "chip": "ym2612"
    },
    {
      "channel": 1,
      "note": 81,
      "start": 43.1475,
      "duration": 2.9889,
      "velocity": 107,
      "chip": "ym2612"
    },
    {
      "channel": 2,
      "note": 78,
      "start": 43.1481,
      "duration": 2.989,
      "velocity": 107,
      "chip": "ym2612"
    },
    {
      "channel": 3,
      "note": 74,
      "start": 43.1486,
      "duration": 2.9891,
      "velocity": 107,
      "chip": "ym2612"
    },
    {
      "channel": 4,
      "note": 90,
      "start": 43.1492,
      "duration": 1.3063,
      "velocity": 99,
      "chip": "ym2612"
    },
    {
      "channel": 0,
      "note": 57,
      "start": 43.3355,
      "duration": 0.0999,
      "velocity": 117,
      "chip": "ym2612"
    },
    {
      "channel": 5,
      "note": 91,
      "start": 43.3363,
      "duration": 0.0999,
      "velocity": 127,
      "chip": "ym2612"
    },
    {
      "channel": 0,
      "note": 57,
      "start": 43.4356,
      "duration": 0.0998,
      "velocity": 117,
      "chip": "ym2612"
    },
    {
      "channel": 5,
      "note": 91,
      "start": 43.4363,
      "duration": 0.2668,
      "velocity": 127,
      "chip": "ym2612"
    },
    {
      "channel": 0,
      "note": 69,
      "start": 43.5355,
      "duration": 0.1668,
      "velocity": 117,
      "chip": "ym2612"
    },
    {
      "channel": 0,
      "note": 57,
      "start": 43.7025,
      "duration": 0.0998,
      "velocity": 117,
      "chip": "ym2612"
    },
    {
      "channel": 5,
      "note": 91,
      "start": 43.7032,
      "duration": 0.0999,
      "velocity": 127,
      "chip": "ym2612"
    },
    {
      "channel": 0,
      "note": 69,
      "start": 43.8025,
      "duration": 0.0998,
      "velocity": 117,
      "chip": "ym2612"
    },
    {
      "channel": 5,
      "note": 91,
      "start": 43.8032,
      "duration": 0.2851,
      "velocity": 127,
      "chip": "ym2612"
    },
    {
      "channel": 0,
      "note": 57,
      "start": 43.9024,
      "duration": 0.1851,
      "velocity": 117,
      "chip": "ym2612"
    },
    {
      "channel": 0,
      "note": 57,
      "start": 44.0877,
      "duration": 0.0998,
      "velocity": 117,
      "chip": "ym2612"
    },
    {
      "channel": 5,
      "note": 91,
      "start": 44.0885,
      "duration": 0.0998,
      "velocity": 127,
      "chip": "ym2612"
    },
    {
      "channel": 0,
      "note": 57,
      "start": 44.1876,
      "duration": 0.0999,
      "velocity": 117,
      "chip": "ym2612"
    },
    {
      "channel": 5,
      "note": 91,
      "start": 44.1885,
      "duration": 0.2676,
      "velocity": 127,
      "chip": "ym2612"
    },
    {
      "channel": 0,
      "note": 69,
      "start": 44.2876,
      "duration": 0.1671,
      "velocity": 117,
      "chip": "ym2612"
    },
    {
      "channel": 0,
      "note": 57,
      "start": 44.4549,
      "duration": 0.0998,
      "velocity": 117,
      "chip": "ym2612"
    },
    {
      "channel": 4,
      "note": 91,
      "start": 44.4556,
      "duration": 0.0998,
      "velocity": 99,
      "chip": "ym2612"
    },
    {
      "channel": 5,
      "note": 91,
      "start": 44.4562,
      "duration": 0.0998,
      "velocity": 127,
      "chip": "ym2612"
    },
    {
      "channel": 0,
      "note": 69,
      "start": 44.5549,
      "duration": 0.0998,
      "velocity": 117,
      "chip": "ym2612"
    },
    {
      "channel": 4,
      "note": 93,
      "start": 44.5556,
      "duration": 0.0998,
      "velocity": 99,
      "chip": "ym2612"
    },
    {
      "channel": 5,
      "note": 91,
      "start": 44.5562,
      "duration": 0.2885,
      "velocity": 127,
      "chip": "ym2612"
    },
    {
      "channel": 0,
      "note": 50,
      "start": 44.6549,
      "duration": 0.1891,
      "velocity": 117,
      "chip": "ym2612"
    },
    {
      "channel": 4,
      "note": 86,
      "start": 44.6556,
      "duration": 1.1484,
      "velocity": 99,
      "chip": "ym2612"
    },
    {
      "channel": 0,
      "note": 50,
      "start": 44.8441,
      "duration": 0.0999,
      "velocity": 117,
      "chip": "ym2612"
    },
    {
      "channel": 5,
      "note": 91,
      "start": 44.8449,
      "duration": 0.0999,
      "velocity": 127,
      "chip": "ym2612"
    },
    {
      "channel": 0,
      "note": 50,
      "start": 44.9441,
      "duration": 0.0999,
      "velocity": 117,
      "chip": "ym2612"
    },
    {
      "channel": 5,
      "note": 91,
      "start": 44.9449,
      "duration": 0.2739,
      "velocity": 127,
      "chip": "ym2612"
    },
    {
      "channel": 0,
      "note": 62,
      "start": 45.0442,
      "duration": 0.1739,
      "velocity": 117,
      "chip": "ym2612"
    },
    {
      "channel": 0,
      "note": 50,
      "start": 45.2182,
      "duration": 0.0999,
      "velocity": 117,
      "chip": "ym2612"
    },
    {
      "channel": 5,
      "note": 91,
      "start": 45.219,
      "duration": 0.0999,
      "velocity": 127,
      "chip": "ym2612"
    },
    {
      "channel": 0,
      "note": 62,
      "start": 45.3183,
      "duration": 0.0998,
      "velocity": 117,
      "chip": "ym2612"
    },
    {
      "channel": 5,
      "note": 91,
      "start": 45.319,
      "duration": 0.285,
      "velocity": 127,
      "chip": "ym2612"
    },
    {
      "channel": 0,
      "note": 50,
      "start": 45.4182,
      "duration": 0.1851,
      "velocity": 117,
      "chip": "ym2612"
    },
    {
      "channel": 0,
      "note": 50,
      "start": 45.6034,
      "duration": 0.0999,
      "velocity": 117,
      "chip": "ym2612"
    },
    {
      "channel": 5,
      "note": 91,
      "start": 45.6042,
      "duration": 0.0999,
      "velocity": 127,
      "chip": "ym2612"
    },
    {
      "channel": 0,
      "note": 50,
      "start": 45.7034,
      "duration": 0.0999,
      "velocity": 117,
      "chip": "ym2612"
    },
    {
      "channel": 5,
      "note": 91,
      "start": 45.7042,
      "duration": 0.6177,
      "velocity": 127,
      "chip": "ym2612"
    },
    {
      "channel": 0,
      "note": 62,
      "start": 45.8035,
      "duration": 0.1741,
      "velocity": 117,
      "chip": "ym2612"
    },
    {
      "channel": 4,
      "note": 81,
      "start": 45.8042,
      "duration": 0.1742,
      "velocity": 99,
      "chip": "ym2612"
    },
    {
      "channel": 0,
      "note": 50,
      "start": 45.9778,
      "duration": 0.0791,
      "velocity": 117,
      "chip": "ym2612"
    },
    {
      "channel": 4,
      "note": 83,
      "start": 45.9786,
      "duration": 0.1597,
      "velocity": 99,
      "chip": "ym2612"
    },
    {
      "channel": 0,
      "note": 62,
      "start": 46.0571,
      "duration": 0.0788,
      "velocity": 117,
      "chip": "ym2612"
    },
    {
      "channel": 0,
      "note": 48,
      "start": 46.136,
      "duration": 0.185,
      "velocity": 117,
      "chip": "ym2612"
    },
    {
      "channel": 1,
      "note": 88,
      "start": 46.1366,
      "duration": 3.0335,
      "velocity": 107,
      "chip": "ym2612"
    },
    {
      "channel": 2,
      "note": 84,
      "start": 46.1373,
      "duration": 2.6593,
      "velocity": 107,
      "chip": "ym2612"
    },
    {
      "channel": 3,
      "note": 79,
      "start": 46.1378,
      "duration": 2.2693,
      "velocity": 107,
      "chip": "ym2612"
    },
    {
      "channel": 4,
      "note": 88,
      "start": 46.1385,
      "duration": 0.3833,
      "velocity": 99,
      "chip": "ym2612"
    },
    {
      "channel": 0,
      "note": 48,
      "start": 46.3212,
      "duration": 0.0998,
      "velocity": 117,
      "chip": "ym2612"
    },
    {
      "channel": 5,
      "note": 91,
      "start": 46.3221,
      "duration": 0.0997,
      "velocity": 127,
      "chip": "ym2612"
    },
    {
      "channel": 0,
      "note": 48,
      "start": 46.4212,
      "duration": 0.0999,
      "velocity": 117,
      "chip": "ym2612"
    },
    {
      "channel": 5,
      "note": 91,
      "start": 46.422,
      "duration": 0.2763,
      "velocity": 127,
      "chip": "ym2612"
    },
    {
      "channel": 0,
      "note": 60,
      "start": 46.5212,
      "duration": 0.1763,
      "velocity": 117,
      "chip": "ym2612"
    },
    {
      "channel": 4,
      "note": 84,
      "start": 46.522,
      "duration": 0.3763,
      "velocity": 99,
      "chip": "ym2612"
    },
    {
      "channel": 0,
      "note": 48,
      "start": 46.6976,
      "duration": 0.0999,
      "velocity": 117,
      "chip": "ym2612"
    },
    {
      "channel": 5,
      "note": 91,
      "start": 46.6984,
      "duration": 0.0999,
      "velocity": 127,
      "chip": "ym2612"
    },
    {
      "channel": 0,
      "note": 60,
      "start": 46.7976,
      "duration": 0.0998,
      "velocity": 117,
      "chip": "ym2612"
    },
    {
      "channel": 5,
      "note": 91,
      "start": 46.7984,
      "duration": 0.2892,
      "velocity": 127,
      "chip": "ym2612"
    },
    {
      "channel": 0,
      "note": 48,
      "start": 46.8976,
      "duration": 0.1891,
      "velocity": 117,
      "chip": "ym2612"
    },
    {
      "channel": 4,
      "note": 79,
      "start": 46.8984,
      "duration": 1.6982,
      "velocity": 99,
      "chip": "ym2612"
    },
    {
      "channel": 0,
      "note": 48,
      "start": 47.0869,
      "duration": 0.0998,
      "velocity": 117,
      "chip": "ym2612"
    },
    {
      "channel": 5,
      "note": 91,
      "start": 47.0877,
      "duration": 0.0999,
      "velocity": 127,
      "chip": "ym2612"
    },
    {
      "channel": 0,
      "note": 48,
      "start": 47.1869,
      "duration": 0.0998,
      "velocity": 117,
      "chip": "ym2612"
    },
    {
      "channel": 5,
      "note": 91,
      "start": 47.1877,
      "duration": 0.2671,
      "velocity": 127,
      "chip": "ym2612"
    },
    {
      "channel": 0,
      "note": 60,
      "start": 47.2869,
      "duration": 0.1671,
      "velocity": 117,
      "chip": "ym2612"
    },
    {
      "channel": 0,
      "note": 48,
      "start": 47.4542,
      "duration": 0.0998,
      "velocity": 117,
      "chip": "ym2612"
    },
    {
      "channel": 5,
      "note": 91,
      "start": 47.4549,
      "duration": 0.0999,
      "velocity": 127,
      "chip": "ym2612"
    },
    {
      "channel": 0,
      "note": 60,
      "start": 47.5542,
      "duration": 0.0998,
      "velocity": 117,
      "chip": "ym2612"
    },
    {
      "channel": 5,
      "note": 91,
      "start": 47.5549,
      "duration": 0.2851,
      "velocity": 127,
      "chip": "ym2612"
    },
    {
      "channel": 0,
      "note": 48,
      "start": 47.6541,
      "duration": 0.1851,
      "velocity": 117,
      "chip": "ym2612"
    },
    {
      "channel": 0,
      "note": 48,
      "start": 47.8394,
      "duration": 0.0998,
      "velocity": 117,
      "chip": "ym2612"
    },
    {
      "channel": 5,
      "note": 91,
      "start": 47.8402,
      "duration": 0.0998,
      "velocity": 127,
      "chip": "ym2612"
    },
    {
      "channel": 0,
      "note": 48,
      "start": 47.9393,
      "duration": 0.0999,
      "velocity": 117,
      "chip": "ym2612"
    },
    {
      "channel": 5,
      "note": 91,
      "start": 47.9402,
      "duration": 0.2671,
      "velocity": 127,
      "chip": "ym2612"
    },
    {
      "channel": 0,
      "note": 60,
      "start": 48.0393,
      "duration": 0.1671,
      "velocity": 117,
      "chip": "ym2612"
    },
    {
      "channel": 0,
      "note": 48,
      "start": 48.2065,
      "duration": 0.0999,
      "velocity": 117,
      "chip": "ym2612"
    },
    {
      "channel": 5,
      "note": 91,
      "start": 48.2073,
      "duration": 0.0999,
      "velocity": 127,
      "chip": "ym2612"
    },
    {
      "channel": 0,
      "note": 60,
      "start": 48.3066,
      "duration": 0.0998,
      "velocity": 117,
      "chip": "ym2612"
    },
    {
      "channel": 5,
      "note": 91,
      "start": 48.3073,
      "duration": 0.2898,
      "velocity": 127,
      "chip": "ym2612"
    },
    {
      "channel": 0,
      "note": 48,
      "start": 48.4066,
      "duration": 0.1893,
      "velocity": 117,
      "chip": "ym2612"
    },
    {
      "channel": 3,
      "note": 79,
      "start": 48.4073,
      "duration": 0.764,
      "velocity": 107,
      "chip": "ym2612"
    },
    {
      "channel": 0,
      "note": 48,
      "start": 48.596,
      "duration": 0.0998,
      "velocity": 117,
      "chip": "ym2612"
    },
    {
      "channel": 4,
      "note": 76,
      "start": 48.5968,
      "duration": 0.2003,
      "velocity": 99,
      "chip": "ym2612"
    },
    {
      "channel": 5,
      "note": 91,
      "start": 48.5974,
      "duration": 0.0993,
      "velocity": 127,
      "chip": "ym2612"
    },
    {
      "channel": 0,
      "note": 48,
      "start": 48.696,
      "duration": 0.0999,
      "velocity": 117,
      "chip": "ym2612"
    },
    {
      "channel": 5,
      "note": 91,
      "start": 48.6969,
      "duration": 0.2739,
      "velocity": 127,
      "chip": "ym2612"
    },
    {
      "channel": 0,
      "note": 60,
      "start": 48.7961,
      "duration": 0.1734,
      "velocity": 117,
      "chip": "ym2612"
    },
    {
      "channel": 2,
      "note": 76,
      "start": 48.7967,
      "duration": 0.374,
      "velocity": 107,
      "chip": "ym2612"
    },
    {
      "channel": 4,
      "note": 79,
      "start": 48.7973,
      "duration": 0.1729,
      "velocity": 99,
      "chip": "ym2612"
    },
    {
      "channel": 0,
      "note": 48,
      "start": 48.9696,
      "duration": 0.0998,
      "velocity": 117,
      "chip": "ym2612"
    },
    {
      "channel": 4,
      "note": 84,
      "start": 48.9703,
      "duration": 0.2015,
      "velocity": 99,
      "chip": "ym2612"
    },
    {
      "channel": 5,
      "note": 91,
      "start": 48.9709,
      "duration": 0.0993,
      "velocity": 127,
      "chip": "ym2612"
    },
    {
      "channel": 0,
      "note": 60,
      "start": 49.0696,
      "duration": 0.1,
      "velocity": 117,
      "chip": "ym2612"
    },
    {
      "channel": 5,
      "note": 91,
      "start": 49.0704,
      "duration": 0.2886,
      "velocity": 127,
      "chip": "ym2612"
    },
    {
      "channel": 0,
      "note": 51,
      "start": 49.1698,
      "duration": 0.1884,
      "velocity": 117,
      "chip": "ym2612"
    },
    {
      "channel": 1,
      "note": 82,
      "start": 49.1703,
      "duration": 2.9979,
      "velocity": 107,
      "chip": "ym2612"
    },
    {
      "channel": 2,
      "note": 79,
      "start": 49.1709,
      "duration": 2.9979,
      "velocity": 107,
      "chip": "ym2612"
    },
    {
      "channel": 3,
      "note": 75,
      "start": 49.1714,
      "duration": 2.9995,
      "velocity": 1,
      "chip": "ym2612"
    },
    {
      "channel": 4,
      "note": 82,
      "start": 49.172,
      "duration": 2.6589,
      "velocity": 1,
      "chip": "ym2612"
    },
    {
      "channel": 0,
      "note": 51,
      "start": 49.3583,
      "duration": 0.0999,
      "velocity": 117,
      "chip": "ym2612"
    },
    {
      "channel": 5,
      "note": 91,
      "start": 49.3591,
      "duration": 0.0999,
      "velocity": 127,
      "chip": "ym2612"
    },
    {
      "channel": 0,
      "note": 51,
      "start": 49.4583,
      "duration": 0.0999,
      "velocity": 117,
      "chip": "ym2612"
    },
    {
      "channel": 5,
      "note": 91,
      "start": 49.4591,
      "duration": 0.2739,
      "velocity": 127,
      "chip": "ym2612"
    },
    {
      "channel": 0,
      "note": 63,
      "start": 49.5583,
      "duration": 0.1739,
      "velocity": 117,
      "chip": "ym2612"
    },
    {
      "channel": 0,
      "note": 51,
      "start": 49.7324,
      "duration": 0.0999,
      "velocity": 117,
      "chip": "ym2612"
    },
    {
      "channel": 5,
      "note": 91,
      "start": 49.7332,
      "duration": 0.0999,
      "velocity": 127,
      "chip": "ym2612"
    },
    {
      "channel": 0,
      "note": 63,
      "start": 49.8324,
      "duration": 0.0998,
      "velocity": 117,
      "chip": "ym2612"
    },
    {
      "channel": 5,
      "note": 91,
      "start": 49.8332,
      "duration": 0.2851,
      "velocity": 127,
      "chip": "ym2612"
    },
    {
      "channel": 0,
      "note": 51,
      "start": 49.9324,
      "duration": 0.1851,
      "velocity": 117,
      "chip": "ym2612"
    },
    {
      "channel": 0,
      "note": 51,
      "start": 50.1176,
      "duration": 0.0998,
      "velocity": 117,
      "chip": "ym2612"
    },
    {
      "channel": 5,
      "note": 91,
      "start": 50.1184,
      "duration": 0.0998,
      "velocity": 127,
      "chip": "ym2612"
    },
    {
      "channel": 0,
      "note": 51,
      "start": 50.2176,
      "duration": 0.0999,
      "velocity": 117,
      "chip": "ym2612"
    },
    {
      "channel": 5,
      "note": 91,
      "start": 50.2184,
      "duration": 0.2671,
      "velocity": 127,
      "chip": "ym2612"
    },
    {
      "channel": 0,
      "note": 63,
      "start": 50.3176,
      "duration": 0.1671,
      "velocity": 117,
      "chip": "ym2612"
    },
    {
      "channel": 0,
      "note": 51,
      "start": 50.4849,
      "duration": 0.0998,
      "velocity": 117,
      "chip": "ym2612"
    },
    {
      "channel": 5,
      "note": 91,
      "start": 50.4856,
      "duration": 0.0998,
      "velocity": 127,
      "chip": "ym2612"
    },
    {
      "channel": 0,
      "note": 63,
      "start": 50.5848,
      "duration": 0.0999,
      "velocity": 117,
      "chip": "ym2612"
    },
    {
      "channel": 5,
      "note": 91,
      "start": 50.5856,
      "duration": 0.2848,
      "velocity": 127,
      "chip": "ym2612"
    },
    {
      "channel": 0,
      "note": 53,
      "start": 50.6848,
      "duration": 0.1848,
      "velocity": 117,
      "chip": "ym2612"
    },
    {
      "channel": 0,
      "note": 53,
      "start": 50.8698,
      "duration": 0.0998,
      "velocity": 117,
      "chip": "ym2612"
    },
    {
      "channel": 5,
      "note": 91,
      "start": 50.8705,
      "duration": 0.0998,
      "velocity": 127,
      "chip": "ym2612"
    },
    {
      "channel": 0,
      "note": 53,
      "start": 50.9697,
      "duration": 0.0999,
      "velocity": 117,
      "chip": "ym2612"
    },
    {
      "channel": 5,
      "note": 91,
      "start": 50.9705,
      "duration": 0.2739,
      "velocity": 127,
      "chip": "ym2612"
    },
    {
      "channel": 0,
      "note": 65,
      "start": 51.0698,
      "duration": 0.1739,
      "velocity": 117,
      "chip": "ym2612"
    },
    {
      "channel": 0,
      "note": 53,
      "start": 51.2438,
      "duration": 0.0999,
      "velocity": 117,
      "chip": "ym2612"
    },
    {
      "channel": 5,
      "note": 91,
      "start": 51.2446,
      "duration": 0.0999,
      "velocity": 127,
      "chip": "ym2612"
    },
    {
      "channel": 0,
      "note": 65,
      "start": 51.3439,
      "duration": 0.0998,
      "velocity": 117,
      "chip": "ym2612"
    },
    {
      "channel": 5,
      "note": 91,
      "start": 51.3446,
      "duration": 0.2848,
      "velocity": 127,
      "chip": "ym2612"
    },
    {
      "channel": 0,
      "note": 53,
      "start": 51.4438,
      "duration": 0.1848,
      "velocity": 117,
      "chip": "ym2612"
    },
    {
      "channel": 0,
      "note": 53,
      "start": 51.6288,
      "duration": 0.0998,
      "velocity": 117,
      "chip": "ym2612"
    },
    {
      "channel": 5,
      "note": 91,
      "start": 51.6295,
      "duration": 0.0998,
      "velocity": 127,
      "chip": "ym2612"
    },
    {
      "channel": 0,
      "note": 53,
      "start": 51.7287,
      "duration": 0.0999,
      "velocity": 117,
      "chip": "ym2612"
    },
    {
      "channel": 5,
      "note": 91,
      "start": 51.7295,
      "duration": 0.6274,
      "velocity": 1,
      "chip": "ym2612"
    },
    {
      "channel": 0,
      "note": 65,
      "start": 51.8288,
      "duration": 0.175,
      "velocity": 117,
      "chip": "ym2612"
    },
    {
      "channel": 4,
      "note": 44,
      "start": 51.831,
      "duration": 0.0783,
      "velocity": 1,
      "chip": "ym2612"
    },
    {
      "channel": 4,
      "note": 45,
      "start": 51.9096,
      "duration": 0.0949,
      "velocity": 1,
      "chip": "ym2612"
    },
    {
      "channel": 0,
      "note": 53,
      "start": 52.0039,
      "duration": 0.0805,
      "velocity": 117,
      "chip": "ym2612"
    },
    {
      "channel": 4,
      "note": 46,
      "start": 52.0046,
      "duration": 0.0805,
      "velocity": 1,
      "chip": "ym2612"
    },
    {
      "channel": 0,
      "note": 65,
      "start": 52.0846,
      "duration": 0.083,
      "velocity": 112,
      "chip": "ym2612"
    },
    {
      "channel": 4,
      "note": 47,
      "start": 52.0853,
      "duration": 0.0878,
      "velocity": 106,
      "chip": "ym2612"
    },
    {
      "channel": 0,
      "note": 55,
      "start": 52.1677,
      "duration": 0.3837,
      "velocity": 112,
      "chip": "ym2612"
    },
    {
      "channel": 1,
      "note": 83,
      "start": 52.1683,
      "duration": 0.1832,
      "velocity": 107,
      "chip": "ym2612"
    },
    {
      "channel": 2,
      "note": 79,
      "start": 52.1689,
      "duration": 0.1832,
      "velocity": 107,
      "chip": "ym2612"
    },
    {
      "channel": 3,
      "note": 48,
      "start": 52.1711,
      "duration": 0.1816,
      "velocity": 1,
      "chip": "ym2612"
    },
    {
      "channel": 4,
      "note": 83,
      "start": 52.1732,
      "duration": 0.0801,
      "velocity": 106,
      "chip": "ym2612"
    },
    {
      "channel": 4,
      "note": 83,
      "start": 52.2535,
      "duration": 0.1013,
      "velocity": 106,
      "chip": "ym2612"
    },
    {
      "channel": 1,
      "note": 83,
      "start": 52.3517,
      "duration": 0.4019,
      "velocity": 107,
      "chip": "ym2612"
    },
    {
      "channel": 2,
      "note": 79,
      "start": 52.3523,
      "duration": 0.4034,
      "velocity": 107,
      "chip": "ym2612"
    },
    {
      "channel": 3,
      "note": 48,
      "start": 52.3528,
      "duration": 0.4035,
      "velocity": 1,
      "chip": "ym2612"
    },
    {
      "channel": 4,
      "note": 83,
      "start": 52.355,
      "duration": 0.0983,
      "velocity": 106,
      "chip": "ym2612"
    },
    {
      "channel": 5,
      "note": 48,
      "start": 52.3571,
      "duration": 0.199,
      "velocity": 1,
      "chip": "ym2612"
    },
    {
      "channel": 4,
      "note": 83,
      "start": 52.4535,
      "duration": 0.102,
      "velocity": 106,
      "chip": "ym2612"
    },
    {
      "channel": 0,
      "note": 55,
      "start": 52.5517,
      "duration": 0.1998,
      "velocity": 112,
      "chip": "ym2612"
    },
    {
      "channel": 4,
      "note": 83,
      "start": 52.5557,
      "duration": 0.0961,
      "velocity": 106,
      "chip": "ym2612"
    },
    {
      "channel": 5,
      "note": 48,
      "start": 52.5562,
      "duration": 0.3993,
      "velocity": 1,
      "chip": "ym2612"
    },
    {
      "channel": 4,
      "note": 83,
      "start": 52.6519,
      "duration": 0.1066,
      "velocity": 106,
      "chip": "ym2612"
    },
    {
      "channel": 0,
      "note": 52,
      "start": 52.7517,
      "duration": 0.3998,
      "velocity": 112,
      "chip": "ym2612"
    },
    {
      "channel": 1,
      "note": 84,
      "start": 52.7538,
      "duration": 0.3998,
      "velocity": 107,
      "chip": "ym2612"
    },
    {
      "channel": 2,
      "note": 81,
      "start": 52.7559,
      "duration": 0.3998,
      "velocity": 107,
      "chip": "ym2612"
    },
    {
      "channel": 3,
      "note": 49,
      "start": 52.7565,
      "duration": 0.3998,
      "velocity": 1,
      "chip": "ym2612"
    },
    {
      "channel": 4,
      "note": 84,
      "start": 52.7587,
      "duration": 0.0946,
      "velocity": 106,
      "chip": "ym2612"
    },
    {
      "channel": 4,
      "note": 84,
      "start": 52.8535,
      "duration": 0.1015,
      "velocity": 106,
      "chip": "ym2612"
    },
    {
      "channel": 4,
      "note": 84,
      "start": 52.9552,
      "duration": 0.0966,
      "velocity": 106,
      "chip": "ym2612"
    },
    {
      "channel": 5,
      "note": 49,
      "start": 52.9557,
      "duration": 0.4004,
      "velocity": 1,
      "chip": "ym2612"
    },
    {
      "channel": 4,
      "note": 84,
      "start": 53.0519,
      "duration": 0.1065,
      "velocity": 106,
      "chip": "ym2612"
    },
    {
      "channel": 0,
      "note": 50,
      "start": 53.1517,
      "duration": 0.1998,
      "velocity": 112,
      "chip": "ym2612"
    },
    {
      "channel": 1,
      "note": 86,
      "start": 53.1538,
      "duration": 0.3999,
      "velocity": 107,
      "chip": "ym2612"
    },
    {
      "channel": 2,
      "note": 83,
      "start": 53.1559,
      "duration": 0.3998,
      "velocity": 107,
      "chip": "ym2612"
    },
    {
      "channel": 3,
      "note": 51,
      "start": 53.1565,
      "duration": 0.3998,
      "velocity": 1,
      "chip": "ym2612"
    },
    {
      "channel": 4,
      "note": 86,
      "start": 53.1586,
      "duration": 0.0947,
      "velocity": 106,
      "chip": "ym2612"
    },
    {
      "channel": 4,
      "note": 86,
      "start": 53.2535,
      "duration": 0.102,
      "velocity": 106,
      "chip": "ym2612"
    },
    {
      "channel": 0,
      "note": 52,
      "start": 53.3517,
      "duration": 0.1998,
      "velocity": 112,
      "chip": "ym2612"
    },
    {
      "channel": 4,
      "note": 86,
      "start": 53.3557,
      "duration": 0.0961,
      "velocity": 106,
      "chip": "ym2612"
    },
    {
      "channel": 5,
      "note": 51,
      "start": 53.3562,
      "duration": 0.396,
      "velocity": 1,
      "chip": "ym2612"
    },
    {
      "channel": 4,
      "note": 86,
      "start": 53.4519,
      "duration": 0.1065,
      "velocity": 106,
      "chip": "ym2612"
    },
    {
      "channel": 0,
      "note": 55,
      "start": 53.5517,
      "duration": 0.3998,
      "velocity": 112,
      "chip": "ym2612"
    },
    {
      "channel": 1,
      "note": 91,
      "start": 53.5538,
      "duration": 0.3983,
      "velocity": 107,
      "chip": "ym2612"
    },
    {
      "channel": 2,
      "note": 86,
      "start": 53.5559,
      "duration": 0.3967,
      "velocity": 107,
      "chip": "ym2612"
    },
    {
      "channel": 3,
      "note": 56,
      "start": 53.5565,
      "duration": 0.3966,
      "velocity": 1,
      "chip": "ym2612"
    },
    {
      "channel": 4,
      "note": 91,
      "start": 53.5586,
      "duration": 0.0947,
      "velocity": 106,
      "chip": "ym2612"
    },
    {
      "channel": 4,
      "note": 91,
      "start": 53.6535,
      "duration": 0.0981,
      "velocity": 106,
      "chip": "ym2612"
    },
    {
      "channel": 4,
      "note": 91,
      "start": 53.7518,
      "duration": 0.0999,
      "velocity": 106,
      "chip": "ym2612"
    },
    {
      "channel": 5,
      "note": 56,
      "start": 53.7524,
      "duration": 0.4038,
      "velocity": 1,
      "chip": "ym2612"
    },
    {
      "channel": 4,
      "note": 91,
      "start": 53.8518,
      "duration": 0.1035,
      "velocity": 106,
      "chip": "ym2612"
    },
    {
      "channel": 0,
      "note": 59,
      "start": 53.9517,
      "duration": 0.1998,
      "velocity": 112,
      "chip": "ym2612"
    },
    {
      "channel": 1,
      "note": 86,
      "start": 53.9522,
      "duration": 0.4014,
      "velocity": 107,
      "chip": "ym2612"
    },
    {
      "channel": 2,
      "note": 83,
      "start": 53.9527,
      "duration": 0.403,
      "velocity": 107,
      "chip": "ym2612"
    },
    {
      "channel": 3,
      "note": 51,
      "start": 53.9533,
      "duration": 0.403,
      "velocity": 1,
      "chip": "ym2612"
    },
    {
      "channel": 4,
      "note": 86,
      "start": 53.9555,
      "duration": 0.0978,
      "velocity": 106,
      "chip": "ym2612"
    },
    {
      "channel": 4,
      "note": 86,
      "start": 54.0535,
      "duration": 0.102,
      "velocity": 106,
      "chip": "ym2612"
    },
    {
      "channel": 0,
      "note": 55,
      "start": 54.1517,
      "duration": 0.1998,
      "velocity": 112,
      "chip": "ym2612"
    },
    {
      "channel": 4,
      "note": 86,
      "start": 54.1557,
      "duration": 0.0961,
      "velocity": 106,
      "chip": "ym2612"
    },
    {
      "channel": 5,
      "note": 51,
      "start": 54.1562,
      "duration": 0.3997,
      "velocity": 1,
      "chip": "ym2612"
    },
    {
      "channel": 4,
      "note": 86,
      "start": 54.2519,
      "duration": 0.1065,
      "velocity": 106,
      "chip": "ym2612"
    },
    {
      "channel": 0,
      "note": 60,
      "start": 54.3517,
      "duration": 0.1999,
      "velocity": 112,
      "chip": "ym2612"
    },
    {
      "channel": 1,
      "note": 84,
      "start": 54.3538,
      "duration": 0.1983,
      "velocity": 107,
      "chip": "ym2612"
    },
    {
      "channel": 2,
      "note": 81,
      "start": 54.3559,
      "duration": 0.1967,
      "velocity": 107,
      "chip": "ym2612"
    },
    {
      "channel": 3,
      "note": 49,
      "start": 54.3565,
      "duration": 0.1967,
      "velocity": 1,
      "chip": "ym2612"
    },
    {
      "channel": 4,
      "note": 84,
      "start": 54.3586,
      "duration": 0.0947,
      "velocity": 106,
      "chip": "ym2612"
    },
    {
      "channel": 4,
      "note": 84,
      "start": 54.4535,
      "duration": 0.1018,
      "velocity": 106,
      "chip": "ym2612"
    },
    {
      "channel": 0,
      "note": 57,
      "start": 54.5517,
      "duration": 0.1999,
      "velocity": 112,
      "chip": "ym2612"
    },
    {
      "channel": 1,
      "note": 83,
      "start": 54.5522,
      "duration": 0.0994,
      "velocity": 107,
      "chip": "ym2612"
    },
    {
      "channel": 2,
      "note": 79,
      "start": 54.5528,
      "duration": 0.0994,
      "velocity": 107,
      "chip": "ym2612"
    },
    {
      "channel": 3,
      "note": 48,
      "start": 54.5534,
      "duration": 0.0993,
      "velocity": 1,
      "chip": "ym2612"
    },
    {
      "channel": 4,
      "note": 83,
      "start": 54.5555,
      "duration": 0.0978,
      "velocity": 106,
      "chip": "ym2612"
    },
    {
      "channel": 5,
      "note": 49,
      "start": 54.5561,
      "duration": 0.1983,
      "velocity": 1,
      "chip": "ym2612"
    },
    {
      "channel": 1,
      "note": 84,
      "start": 54.6518,
      "duration": 0.1002,
      "velocity": 107,
      "chip": "ym2612"
    },
    {
      "channel": 2,
      "note": 81,
      "start": 54.6523,
      "duration": 0.1003,
      "velocity": 107,
      "chip": "ym2612"
    },
    {
      "channel": 3,
      "note": 49,
      "start": 54.6529,
      "duration": 0.1003,
      "velocity": 1,
      "chip": "ym2612"
    },
    {
      "channel": 4,
      "note": 84,
      "start": 54.6534,
      "duration": 0.1003,
      "velocity": 106,
      "chip": "ym2612"
    },
    {
      "channel": 0,
      "note": 61,
      "start": 54.7517,
      "duration": 0.1999,
      "velocity": 112,
      "chip": "ym2612"
    },
    {
      "channel": 1,
      "note": 86,
      "start": 54.7522,
      "duration": 0.1999,
      "velocity": 107,
      "chip": "ym2612"
    },
    {
      "channel": 2,
      "note": 83,
      "start": 54.7528,
      "duration": 0.1998,
      "velocity": 107,
      "chip": "ym2612"
    },
    {
      "channel": 3,
      "note": 51,
      "start": 54.7534,
      "duration": 0.1998,
      "velocity": 1,
      "chip": "ym2612"
    },
    {
      "channel": 4,
      "note": 86,
      "start": 54.7539,
      "duration": 0.0994,
      "velocity": 106,
      "chip": "ym2612"
    },
    {
      "channel": 5,
      "note": 48,
      "start": 54.7545,
      "duration": 0.0995,
      "velocity": 1,
      "chip": "ym2612"
    },
    {
      "channel": 4,
      "note": 86,
      "start": 54.8535,
      "duration": 0.1018,
      "velocity": 106,
      "chip": "ym2612"
    },
    {
      "channel": 5,
      "note": 49,
      "start": 54.8541,
      "duration": 0.1018,
      "velocity": 1,
      "chip": "ym2612"
    },
    {
      "channel": 0,
      "note": 58,
      "start": 54.9517,
      "duration": 0.1998,
      "velocity": 112,
      "chip": "ym2612"
    },
    {
      "channel": 1,
      "note": 79,
      "start": 54.9522,
      "duration": 0.1998,
      "velocity": 107,
      "chip": "ym2612"
    },
    {
      "channel": 2,
      "note": 74,
      "start": 54.9528,
      "duration": 0.1998,
      "velocity": 107,
      "chip": "ym2612"
    },
    {
      "channel": 3,
      "note": 44,
      "start": 54.9534,
      "duration": 0.1998,
      "velocity": 1,
      "chip": "ym2612"
    },
    {
      "channel": 4,
      "note": 83,
      "start": 54.9555,
      "duration": 0.0978,
      "velocity": 106,
      "chip": "ym2612"
    },
    {
      "channel": 5,
      "note": 51,
      "start": 54.9561,
      "duration": 0.1998,
      "velocity": 1,
      "chip": "ym2612"
    },
    {
      "channel": 4,
      "note": 83,
      "start": 55.0535,
      "duration": 0.1018,
      "velocity": 106,
      "chip": "ym2612"
    },
    {
      "channel": 0,
      "note": 62,
      "start": 55.1517,
      "duration": 0.1999,
      "velocity": 112,
      "chip": "ym2612"
    },
    {
      "channel": 1,
      "note": 74,
      "start": 55.1522,
      "duration": 0.2,
      "velocity": 107,
      "chip": "ym2612"
    },
    {
      "channel": 2,
      "note": 71,
      "start": 55.1528,
      "duration": 0.2,
      "velocity": 107,
      "chip": "ym2612"
    },
    {
      "channel": 3,
      "note": 39,
      "start": 55.1534,
      "duration": 0.2016,
      "velocity": 106,
      "chip": "ym2612"
    },
    {
      "channel": 4,
      "note": 79,
      "start": 55.1555,
      "duration": 0.098,
      "velocity": 106,
      "chip": "ym2612"
    },
    {
      "channel": 5,
      "note": 44,
      "start": 55.1561,
      "duration": 0.3948,
      "velocity": 127,
      "chip": "ym2612"
    },
    {
      "channel": 4,
      "note": 79,
      "start": 55.2536,
      "duration": 0.1034,
      "velocity": 106,
      "chip": "ym2612"
    },
    {
      "channel": 0,
      "note": 43,
      "start": 55.3518,
      "duration": 0.1916,
      "velocity": 112,
      "chip": "ym2612"
    },
    {
      "channel": 1,
      "note": 55,
      "start": 55.3524,
      "duration": 0.1916,
      "velocity": 107,
      "chip": "ym2612"
    },
    {
      "channel": 2,
      "note": 59,
      "start": 55.353,
      "duration": 0.1915,
      "velocity": 107,
      "chip": "ym2612"
    },
    {
      "channel": 3,
      "note": 83,
      "start": 55.3552,
      "duration": 0.09,
      "velocity": 106,
      "chip": "ym2612"
    },
    {
      "channel": 4,
      "note": 79,
      "start": 55.3573,
      "duration": 0.09,
      "velocity": 106,
      "chip": "ym2612"
    },
    {
      "channel": 3,
      "note": 83,
      "start": 55.4453,
      "duration": 0.1013,
      "velocity": 106,
      "chip": "ym2612"
    },
    {
      "channel": 4,
      "note": 79,
      "start": 55.4474,
      "duration": 0.1013,
      "velocity": 106,
      "chip": "ym2612"
    },
    {
      "channel": 0,
      "note": 55,
      "start": 55.5436,
      "duration": 0.1998,
      "velocity": 112,
      "chip": "ym2612"
    },
    {
      "channel": 1,
      "note": 59,
      "start": 55.5441,
      "duration": 0.1998,
      "velocity": 107,
      "chip": "ym2612"
    },
    {
      "channel": 2,
      "note": 62,
      "start": 55.5446,
      "duration": 0.1998,
      "velocity": 107,
      "chip": "ym2612"
    },
    {
      "channel": 3,
      "note": 83,
      "start": 55.5468,
      "duration": 0.0983,
      "velocity": 106,
      "chip": "ym2612"
    },
    {
      "channel": 4,
      "note": 79,
      "start": 55.5489,
      "duration": 0.0983,
      "velocity": 106,
      "chip": "ym2612"
    },
    {
      "channel": 5,
      "note": 91,
      "start": 55.5511,
      "duration": 0.0968,
      "velocity": 127,
      "chip": "ym2612"
    },
    {
      "channel": 3,
      "note": 83,
      "start": 55.6453,
      "duration": 0.0998,
      "velocity": 106,
      "chip": "ym2612"
    },
    {
      "channel": 4,
      "note": 79,
      "start": 55.6474,
      "duration": 0.0982,
      "velocity": 106,
      "chip": "ym2612"
    },
    {
      "channel": 5,
      "note": 91,
      "start": 55.648,
      "duration": 0.2837,
      "velocity": 127,
      "chip": "ym2612"
    },
    {
      "channel": 0,
      "note": 43,
      "start": 55.7435,
      "duration": 0.1823,
      "velocity": 112,
      "chip": "ym2612"
    },
    {
      "channel": 1,
      "note": 62,
      "start": 55.7441,
      "duration": 0.1823,
      "velocity": 107,
      "chip": "ym2612"
    },
    {
      "channel": 2,
      "note": 67,
      "start": 55.7446,
      "duration": 0.1822,
      "velocity": 107,
      "chip": "ym2612"
    },
    {
      "channel": 3,
      "note": 83,
      "start": 55.7452,
      "duration": 0.0846,
      "velocity": 106,
      "chip": "ym2612"
    },
    {
      "channel": 4,
      "note": 79,
      "start": 55.7457,
      "duration": 0.0847,
      "velocity": 106,
      "chip": "ym2612"
    },
    {
      "channel": 3,
      "note": 83,
      "start": 55.83,
      "duration": 0.099,
      "velocity": 106,
      "chip": "ym2612"
    },
    {
      "channel": 4,
      "note": 79,
      "start": 55.8306,
      "duration": 0.1005,
      "velocity": 106,
      "chip": "ym2612"
    },
    {
      "channel": 0,
      "note": 55,
      "start": 55.926,
      "duration": 0.1998,
      "velocity": 112,
      "chip": "ym2612"
    },
    {
      "channel": 1,
      "note": 67,
      "start": 55.9265,
      "duration": 0.1998,
      "velocity": 107,
      "chip": "ym2612"
    },
    {
      "channel": 2,
      "note": 71,
      "start": 55.9271,
      "duration": 0.1998,
      "velocity": 107,
      "chip": "ym2612"
    },
    {
      "channel": 3,
      "note": 84,
      "start": 55.9292,
      "duration": 0.0983,
      "velocity": 106,
      "chip": "ym2612"
    },
    {
      "channel": 4,
      "note": 81,
      "start": 55.9313,
      "duration": 0.0983,
      "velocity": 106,
      "chip": "ym2612"
    },
    {
      "channel": 5,
      "note": 91,
      "start": 55.9319,
      "duration": 0.0983,
      "velocity": 127,
      "chip": "ym2612"
    },
    {
      "channel": 3,
      "note": 84,
      "start": 56.0277,
      "duration": 0.0998,
      "velocity": 106,
      "chip": "ym2612"
    },
    {
      "channel": 4,
      "note": 81,
      "start": 56.0298,
      "duration": 0.0982,
      "velocity": 106,
      "chip": "ym2612"
    },
    {
      "channel": 5,
      "note": 91,
      "start": 56.0304,
      "duration": 0.2929,
      "velocity": 127,
      "chip": "ym2612"
    },
    {
      "channel": 0,
      "note": 43,
      "start": 56.1259,
      "duration": 0.1915,
      "velocity": 112,
      "chip": "ym2612"
    },
    {
      "channel": 1,
      "note": 71,
      "start": 56.1265,
      "duration": 0.1915,
      "velocity": 107,
      "chip": "ym2612"
    },
    {
      "channel": 2,
      "note": 74,
      "start": 56.1271,
      "duration": 0.1914,
      "velocity": 107,
      "chip": "ym2612"
    },
    {
      "channel": 3,
      "note": 84,
      "start": 56.1276,
      "duration": 0.0899,
      "velocity": 106,
      "chip": "ym2612"
    },
    {
      "channel": 4,
      "note": 81,
      "start": 56.1281,
      "duration": 0.09,
      "velocity": 106,
      "chip": "ym2612"
    },
    {
      "channel": 3,
      "note": 84,
      "start": 56.2177,
      "duration": 0.1029,
      "velocity": 106,
      "chip": "ym2612"
    },
    {
      "channel": 4,
      "note": 81,
      "start": 56.2183,
      "duration": 0.1044,
      "velocity": 106,
      "chip": "ym2612"
    },
    {
      "channel": 0,
      "note": 55,
      "start": 56.3176,
      "duration": 0.1998,
      "velocity": 112,
      "chip": "ym2612"
    },
    {
      "channel": 1,
      "note": 67,
      "start": 56.318,
      "duration": 0.1998,
      "velocity": 107,
      "chip": "ym2612"
    },
    {
      "channel": 2,
      "note": 71,
      "start": 56.3186,
      "duration": 0.1998,
      "velocity": 107,
      "chip": "ym2612"
    },
    {
      "channel": 3,
      "note": 86,
      "start": 56.3208,
      "duration": 0.0983,
      "velocity": 106,
      "chip": "ym2612"
    },
    {
      "channel": 4,
      "note": 83,
      "start": 56.3229,
      "duration": 0.0983,
      "velocity": 106,
      "chip": "ym2612"
    },
    {
      "channel": 5,
      "note": 91,
      "start": 56.3235,
      "duration": 0.0983,
      "velocity": 127,
      "chip": "ym2612"
    },
    {
      "channel": 3,
      "note": 86,
      "start": 56.4193,
      "duration": 0.0998,
      "velocity": 106,
      "chip": "ym2612"
    },
    {
      "channel": 4,
      "note": 83,
      "start": 56.4214,
      "duration": 0.0982,
      "velocity": 106,
      "chip": "ym2612"
    },
    {
      "channel": 5,
      "note": 91,
      "start": 56.422,
      "duration": 0.2838,
      "velocity": 127,
      "chip": "ym2612"
    },
    {
      "channel": 0,
      "note": 43,
      "start": 56.5175,
      "duration": 0.1823,
      "velocity": 112,
      "chip": "ym2612"
    },
    {
      "channel": 1,
      "note": 62,
      "start": 56.518,
      "duration": 0.1823,
      "velocity": 107,
      "chip": "ym2612"
    },
    {
      "channel": 2,
      "note": 67,
      "start": 56.5186,
      "duration": 0.1822,
      "velocity": 107,
      "chip": "ym2612"
    },
    {
      "channel": 3,
      "note": 86,
      "start": 56.5192,
      "duration": 0.0846,
      "velocity": 106,
      "chip": "ym2612"
    },
    {
      "channel": 4,
      "note": 83,
      "start": 56.5197,
      "duration": 0.0847,
      "velocity": 106,
      "chip": "ym2612"
    },
    {
      "channel": 3,
      "note": 86,
      "start": 56.604,
      "duration": 0.099,
      "velocity": 106,
      "chip": "ym2612"
    },
    {
      "channel": 4,
      "note": 83,
      "start": 56.6046,
      "duration": 0.1006,
      "velocity": 106,
      "chip": "ym2612"
    },
    {
      "channel": 0,
      "note": 55,
      "start": 56.7,
      "duration": 0.1998,
      "velocity": 112,
      "chip": "ym2612"
    },
    {
      "channel": 1,
      "note": 59,
      "start": 56.7005,
      "duration": 0.1999,
      "velocity": 107,
      "chip": "ym2612"
    },
    {
      "channel": 2,
      "note": 62,
      "start": 56.7011,
      "duration": 0.1998,
      "velocity": 107,
      "chip": "ym2612"
    },
    {
      "channel": 3,
      "note": 84,
      "start": 56.7032,
      "duration": 0.0983,
      "velocity": 106,
      "chip": "ym2612"
    },
    {
      "channel": 4,
      "note": 81,
      "start": 56.7054,
      "duration": 0.0983,
      "velocity": 106,
      "chip": "ym2612"
    },
    {
      "channel": 5,
      "note": 91,
      "start": 56.7059,
      "duration": 0.0983,
      "velocity": 127,
      "chip": "ym2612"
    },
    {
      "channel": 3,
      "note": 84,
      "start": 56.8017,
      "duration": 0.1013,
      "velocity": 106,
      "chip": "ym2612"
    },
    {
      "channel": 4,
      "note": 81,
      "start": 56.8039,
      "duration": 0.1013,
      "velocity": 106,
      "chip": "ym2612"
    },
    {
      "channel": 5,
      "note": 91,
      "start": 56.8044,
      "duration": 0.2845,
      "velocity": 127,
      "chip": "ym2612"
    },
    {
      "channel": 0,
      "note": 50,
      "start": 56.9,
      "duration": 0.1861,
      "velocity": 112,
      "chip": "ym2612"
    },
    {
      "channel": 1,
      "note": 54,
      "start": 56.9005,
      "duration": 0.1861,
      "velocity": 107,
      "chip": "ym2612"
    },
    {
      "channel": 2,
      "note": 57,
      "start": 56.9011,
      "duration": 0.1861,
      "velocity": 107,
      "chip": "ym2612"
    },
    {
      "channel": 3,
      "note": 86,
      "start": 56.9032,
      "duration": 0.0847,
      "velocity": 106,
      "chip": "ym2612"
    },
    {
      "channel": 4,
      "note": 83,
      "start": 56.9054,
      "duration": 0.0847,
      "velocity": 106,
      "chip": "ym2612"
    },
    {
      "channel": 3,
      "note": 86,
      "start": 56.988,
      "duration": 0.0998,
      "velocity": 106,
      "chip": "ym2612"
    },
    {
      "channel": 4,
      "note": 83,
      "start": 56.9902,
      "duration": 0.0982,
      "velocity": 106,
      "chip": "ym2612"
    },
    {
      "channel": 0,
      "note": 62,
      "start": 57.0863,
      "duration": 0.1999,
      "velocity": 112,
      "chip": "ym2612"
    },
    {
      "channel": 1,
      "note": 57,
      "start": 57.0868,
      "duration": 0.1998,
      "velocity": 107,
      "chip": "ym2612"
    },
    {
      "channel": 2,
      "note": 62,
      "start": 57.0874,
      "duration": 0.1998,
      "velocity": 107,
      "chip": "ym2612"
    },
    {
      "channel": 3,
      "note": 86,
      "start": 57.088,
      "duration": 0.0983,
      "velocity": 106,
      "chip": "ym2612"
    },
    {
      "channel": 4,
      "note": 83,
      "start": 57.0885,
      "duration": 0.0984,
      "velocity": 106,
      "chip": "ym2612"
    },
    {
      "channel": 5,
      "note": 91,
      "start": 57.0891,
      "duration": 0.0984,
      "velocity": 127,
      "chip": "ym2612"
    },
    {
      "channel": 3,
      "note": 86,
      "start": 57.1865,
      "duration": 0.1029,
      "velocity": 106,
      "chip": "ym2612"
    },
    {
      "channel": 4,
      "note": 83,
      "start": 57.187,
      "duration": 0.1044,
      "velocity": 106,
      "chip": "ym2612"
    },
    {
      "channel": 5,
      "note": 91,
      "start": 57.1876,
      "duration": 0.2756,
      "velocity": 127,
      "chip": "ym2612"
    },
    {
      "channel": 0,
      "note": 50,
      "start": 57.2863,
      "duration": 0.1742,
      "velocity": 112,
      "chip": "ym2612"
    },
    {
      "channel": 1,
      "note": 62,
      "start": 57.2868,
      "duration": 0.1742,
      "velocity": 107,
      "chip": "ym2612"
    },
    {
      "channel": 2,
      "note": 66,
      "start": 57.2874,
      "duration": 0.1741,
      "velocity": 107,
      "chip": "ym2612"
    },
    {
      "channel": 3,
      "note": 81,
      "start": 57.2895,
      "duration": 0.0798,
      "velocity": 106,
      "chip": "ym2612"
    },
    {
      "channel": 4,
      "note": 78,
      "start": 57.2917,
      "duration": 0.0798,
      "velocity": 106,
      "chip": "ym2612"
    },
    {
      "channel": 3,
      "note": 81,
      "start": 57.3695,
      "duration": 0.0926,
      "velocity": 106,
      "chip": "ym2612"
    },
    {
      "channel": 4,
      "note": 78,
      "start": 57.3717,
      "duration": 0.091,
      "velocity": 106,
      "chip": "ym2612"
    },
    {
      "channel": 0,
      "note": 62,
      "start": 57.4606,
      "duration": 0.1998,
      "velocity": 112,
      "chip": "ym2612"
    },
    {
      "channel": 1,
      "note": 66,
      "start": 57.4611,
      "duration": 0.1999,
      "velocity": 107,
      "chip": "ym2612"
    },
    {
      "channel": 2,
      "note": 69,
      "start": 57.4617,
      "duration": 0.1998,
      "velocity": 107,
      "chip": "ym2612"
    },
    {
      "channel": 3,
      "note": 81,
      "start": 57.4623,
      "duration": 0.0983,
      "velocity": 106,
      "chip": "ym2612"
    },
    {
      "channel": 4,
      "note": 78,
      "start": 57.4629,
      "duration": 0.0983,
      "velocity": 106,
      "chip": "ym2612"
    },
    {
      "channel": 5,
      "note": 91,
      "start": 57.4634,
      "duration": 0.0983,
      "velocity": 127,
      "chip": "ym2612"
    },
    {
      "channel": 3,
      "note": 81,
      "start": 57.5608,
      "duration": 0.1029,
      "velocity": 106,
      "chip": "ym2612"
    },
    {
      "channel": 4,
      "note": 78,
      "start": 57.5613,
      "duration": 0.1044,
      "velocity": 106,
      "chip": "ym2612"
    },
    {
      "channel": 5,
      "note": 91,
      "start": 57.5619,
      "duration": 0.2908,
      "velocity": 127,
      "chip": "ym2612"
    },
    {
      "channel": 0,
      "note": 50,
      "start": 57.6606,
      "duration": 0.1861,
      "velocity": 112,
      "chip": "ym2612"
    },
    {
      "channel": 1,
      "note": 69,
      "start": 57.6611,
      "duration": 0.1862,
      "velocity": 107,
      "chip": "ym2612"
    },
    {
      "channel": 2,
      "note": 74,
      "start": 57.6617,
      "duration": 0.1861,
      "velocity": 107,
      "chip": "ym2612"
    },
    {
      "channel": 3,
      "note": 78,
      "start": 57.6639,
      "duration": 0.0847,
      "velocity": 106,
      "chip": "ym2612"
    },
    {
      "channel": 4,
      "note": 74,
      "start": 57.666,
      "duration": 0.0847,
      "velocity": 106,
      "chip": "ym2612"
    },
    {
      "channel": 3,
      "note": 78,
      "start": 57.7487,
      "duration": 0.1013,
      "velocity": 106,
      "chip": "ym2612"
    },
    {
      "channel": 4,
      "note": 74,
      "start": 57.7508,
      "duration": 0.1013,
      "velocity": 106,
      "chip": "ym2612"
    },
    {
      "channel": 0,
      "note": 62,
      "start": 57.847,
      "duration": 0.1998,
      "velocity": 112,
      "chip": "ym2612"
    },
    {
      "channel": 1,
      "note": 66,
      "start": 57.8475,
      "duration": 0.1999,
      "velocity": 107,
      "chip": "ym2612"
    },
    {
      "channel": 2,
      "note": 69,
      "start": 57.848,
      "duration": 0.1998,
      "velocity": 107,
      "chip": "ym2612"
    },
    {
      "channel": 3,
      "note": 81,
      "start": 57.8502,
      "duration": 0.0983,
      "velocity": 106,
      "chip": "ym2612"
    },
    {
      "channel": 4,
      "note": 78,
      "start": 57.8523,
      "duration": 0.0983,
      "velocity": 106,
      "chip": "ym2612"
    },
    {
      "channel": 5,
      "note": 91,
      "start": 57.8529,
      "duration": 0.0983,
      "velocity": 127,
      "chip": "ym2612"
    },
    {
      "channel": 3,
      "note": 81,
      "start": 57.9487,
      "duration": 0.1013,
      "velocity": 106,
      "chip": "ym2612"
    },
    {
      "channel": 4,
      "note": 78,
      "start": 57.9508,
      "duration": 0.1013,
      "velocity": 106,
      "chip": "ym2612"
    },
    {
      "channel": 5,
      "note": 91,
      "start": 57.9514,
      "duration": 0.2757,
      "velocity": 127,
      "chip": "ym2612"
    },
    {
      "channel": 0,
      "note": 50,
      "start": 58.047,
      "duration": 0.1741,
      "velocity": 112,
      "chip": "ym2612"
    },
    {
      "channel": 1,
      "note": 62,
      "start": 58.0475,
      "duration": 0.1742,
      "velocity": 107,
      "chip": "ym2612"
    },
    {
      "channel": 2,
      "note": 66,
      "start": 58.048,
      "duration": 0.1741,
      "velocity": 107,
      "chip": "ym2612"
    },
    {
      "channel": 3,
      "note": 86,
      "start": 58.0502,
      "duration": 0.0798,
      "velocity": 106,
      "chip": "ym2612"
    },
    {
      "channel": 4,
      "note": 81,
      "start": 58.0523,
      "duration": 0.0799,
      "velocity": 106,
      "chip": "ym2612"
    },
    {
      "channel": 3,
      "note": 86,
      "start": 58.1302,
      "duration": 0.0941,
      "velocity": 106,
      "chip": "ym2612"
    },
    {
      "channel": 4,
      "note": 81,
      "start": 58.1324,
      "duration": 0.0941,
      "velocity": 106,
      "chip": "ym2612"
    },
    {
      "channel": 0,
      "note": 62,
      "start": 58.2213,
      "duration": 0.1998,
      "velocity": 112,
      "chip": "ym2612"
    },
    {
      "channel": 1,
      "note": 57,
      "start": 58.2218,
      "duration": 0.1999,
      "velocity": 107,
      "chip": "ym2612"
    },
    {
      "channel": 2,
      "note": 62,
      "start": 58.2224,
      "duration": 0.1998,
      "velocity": 107,
      "chip": "ym2612"
    },
    {
      "channel": 3,
      "note": 90,
      "start": 58.2245,
      "duration": 0.0983,
      "velocity": 106,
      "chip": "ym2612"
    },
    {
      "channel": 4,
      "note": 86,
      "start": 58.2266,
      "duration": 0.0983,
      "velocity": 106,
      "chip": "ym2612"
    },
    {
      "channel": 5,
      "note": 91,
      "start": 58.2272,
      "duration": 0.0983,
      "velocity": 127,
      "chip": "ym2612"
    },
    {
      "channel": 3,
      "note": 90,
      "start": 58.323,
      "duration": 0.1013,
      "velocity": 106,
      "chip": "ym2612"
    },
    {
      "channel": 4,
      "note": 86,
      "start": 58.3252,
      "duration": 0.1013,
      "velocity": 106,
      "chip": "ym2612"
    },
    {
      "channel": 5,
      "note": 91,
      "start": 58.3257,
      "duration": 0.2877,
      "velocity": 127,
      "chip": "ym2612"
    },
    {
      "channel": 0,
      "note": 52,
      "start": 58.4213,
      "duration": 0.1861,
      "velocity": 112,
      "chip": "ym2612"
    },
    {
      "channel": 1,
      "note": 59,
      "start": 58.4218,
      "duration": 0.1862,
      "velocity": 107,
      "chip": "ym2612"
    },
    {
      "channel": 2,
      "note": 64,
      "start": 58.4224,
      "duration": 0.1861,
      "velocity": 107,
      "chip": "ym2612"
    },
    {
      "channel": 3,
      "note": 91,
      "start": 58.4245,
      "duration": 0.0847,
      "velocity": 106,
      "chip": "ym2612"
    },
    {
      "channel": 4,
      "note": 88,
      "start": 58.4266,
      "duration": 0.0847,
      "velocity": 106,
      "chip": "ym2612"
    },
    {
      "channel": 3,
      "note": 91,
      "start": 58.5093,
      "duration": 0.1013,
      "velocity": 106,
      "chip": "ym2612"
    },
    {
      "channel": 4,
      "note": 88,
      "start": 58.5115,
      "duration": 0.1013,
      "velocity": 106,
      "chip": "ym2612"
    },
    {
      "channel": 0,
      "note": 64,
      "start": 58.6076,
      "duration": 0.1998,
      "velocity": 112,
      "chip": "ym2612"
    },
    {
      "channel": 1,
      "note": 64,
      "start": 58.6081,
      "duration": 0.1998,
      "velocity": 107,
      "chip": "ym2612"
    },
    {
      "channel": 2,
      "note": 67,
      "start": 58.6087,
      "duration": 0.1998,
      "velocity": 107,
      "chip": "ym2612"
    },
    {
      "channel": 3,
      "note": 91,
      "start": 58.6109,
      "duration": 0.0983,
      "velocity": 106,
      "chip": "ym2612"
    },
    {
      "channel": 4,
      "note": 88,
      "start": 58.613,
      "duration": 0.0983,
      "velocity": 106,
      "chip": "ym2612"
    },
    {
      "channel": 5,
      "note": 91,
      "start": 58.6135,
      "duration": 0.0983,
      "velocity": 127,
      "chip": "ym2612"
    },
    {
      "channel": 3,
      "note": 91,
      "start": 58.7093,
      "duration": 0.0998,
      "velocity": 106,
      "chip": "ym2612"
    },
    {
      "channel": 4,
      "note": 88,
      "start": 58.7115,
      "duration": 0.0982,
      "velocity": 106,
      "chip": "ym2612"
    },
    {
      "channel": 5,
      "note": 91,
      "start": 58.7121,
      "duration": 0.2837,
      "velocity": 127,
      "chip": "ym2612"
    },
    {
      "channel": 0,
      "note": 52,
      "start": 58.8076,
      "duration": 0.1823,
      "velocity": 112,
      "chip": "ym2612"
    },
    {
      "channel": 1,
      "note": 67,
      "start": 58.8081,
      "duration": 0.1823,
      "velocity": 107,
      "chip": "ym2612"
    },
    {
      "channel": 2,
      "note": 71,
      "start": 58.8087,
      "duration": 0.1822,
      "velocity": 107,
      "chip": "ym2612"
    },
    {
      "channel": 3,
      "note": 91,
      "start": 58.8093,
      "duration": 0.0846,
      "velocity": 106,
      "chip": "ym2612"
    },
    {
      "channel": 4,
      "note": 88,
      "start": 58.8098,
      "duration": 0.0847,
      "velocity": 106,
      "chip": "ym2612"
    },
    {
      "channel": 3,
      "note": 91,
      "start": 58.8941,
      "duration": 0.099,
      "velocity": 106,
      "chip": "ym2612"
    },
    {
      "channel": 4,
      "note": 88,
      "start": 58.8946,
      "duration": 0.1005,
      "velocity": 106,
      "chip": "ym2612"
    },
    {
      "channel": 0,
      "note": 64,
      "start": 58.99,
      "duration": 0.1998,
      "velocity": 112,
      "chip": "ym2612"
    },
    {
      "channel": 1,
      "note": 71,
      "start": 58.9905,
      "duration": 0.1998,
      "velocity": 107,
      "chip": "ym2612"
    },
    {
      "channel": 2,
      "note": 76,
      "start": 58.9911,
      "duration": 0.1998,
      "velocity": 107,
      "chip": "ym2612"
    },
    {
      "channel": 3,
      "note": 90,
      "start": 58.9933,
      "duration": 0.0983,
      "velocity": 106,
      "chip": "ym2612"
    },
    {
      "channel": 4,
      "note": 86,
      "start": 58.9954,
      "duration": 0.0983,
      "velocity": 106,
      "chip": "ym2612"
    },
    {
      "channel": 5,
      "note": 91,
      "start": 58.9959,
      "duration": 0.0983,
      "velocity": 127,
      "chip": "ym2612"
    },
    {
      "channel": 3,
      "note": 90,
      "start": 59.0917,
      "duration": 0.0998,
      "velocity": 106,
      "chip": "ym2612"
    },
    {
      "channel": 4,
      "note": 86,
      "start": 59.0939,
      "duration": 0.0982,
      "velocity": 106,
      "chip": "ym2612"
    },
    {
      "channel": 5,
      "note": 91,
      "start": 59.0945,
      "duration": 0.2929,
      "velocity": 127,
      "chip": "ym2612"
    },
    {
      "channel": 0,
      "note": 52,
      "start": 59.19,
      "duration": 0.1915,
      "velocity": 112,
      "chip": "ym2612"
    },
    {
      "channel": 1,
      "note": 76,
      "start": 59.1905,
      "duration": 0.1914,
      "velocity": 107,
      "chip": "ym2612"
    },
    {
      "channel": 2,
      "note": 79,
      "start": 59.1911,
      "duration": 0.1914,
      "velocity": 107,
      "chip": "ym2612"
    },
    {
      "channel": 3,
      "note": 90,
      "start": 59.1917,
      "duration": 0.0899,
      "velocity": 106,
      "chip": "ym2612"
    },
    {
      "channel": 4,
      "note": 86,
      "start": 59.1922,
      "duration": 0.09,
      "velocity": 106,
      "chip": "ym2612"
    },
    {
      "channel": 3,
      "note": 90,
      "start": 59.2818,
      "duration": 0.1029,
      "velocity": 106,
      "chip": "ym2612"
    },
    {
      "channel": 4,
      "note": 86,
      "start": 59.2823,
      "duration": 0.1044,
      "velocity": 106,
      "chip": "ym2612"
    },
    {
      "channel": 0,
      "note": 64,
      "start": 59.3815,
      "duration": 0.1999,
      "velocity": 112,
      "chip": "ym2612"
    },
    {
      "channel": 1,
      "note": 71,
      "start": 59.3821,
      "duration": 0.1998,
      "velocity": 107,
      "chip": "ym2612"
    },
    {
      "channel": 2,
      "note": 76,
      "start": 59.3827,
      "duration": 0.1998,
      "velocity": 107,
      "chip": "ym2612"
    },
    {
      "channel": 3,
      "note": 88,
      "start": 59.3848,
      "duration": 0.0983,
      "velocity": 106,
      "chip": "ym2612"
    },
    {
      "channel": 4,
      "note": 83,
      "start": 59.387,
      "duration": 0.0983,
      "velocity": 106,
      "chip": "ym2612"
    },
    {
      "channel": 5,
      "note": 91,
      "start": 59.3875,
      "duration": 0.0983,
      "velocity": 127,
      "chip": "ym2612"
    },
    {
      "channel": 3,
      "note": 88,
      "start": 59.4833,
      "duration": 0.0998,
      "velocity": 106,
      "chip": "ym2612"
    },
    {
      "channel": 4,
      "note": 83,
      "start": 59.4855,
      "duration": 0.0982,
      "velocity": 106,
      "chip": "ym2612"
    },
    {
      "channel": 5,
      "note": 91,
      "start": 59.4861,
      "duration": 0.2838,
      "velocity": 127,
      "chip": "ym2612"
    },
    {
      "channel": 0,
      "note": 52,
      "start": 59.5815,
      "duration": 0.1823,
      "velocity": 112,
      "chip": "ym2612"
    },
    {
      "channel": 1,
      "note": 67,
      "start": 59.5821,
      "duration": 0.1823,
      "velocity": 107,
      "chip": "ym2612"
    },
    {
      "channel": 2,
      "note": 71,
      "start": 59.5827,
      "duration": 0.1822,
      "velocity": 107,
      "chip": "ym2612"
    },
    {
      "channel": 3,
      "note": 88,
      "start": 59.5833,
      "duration": 0.0846,
      "velocity": 106,
      "chip": "ym2612"
    },
    {
      "channel": 4,
      "note": 83,
      "start": 59.5838,
      "duration": 0.0847,
      "velocity": 106,
      "chip": "ym2612"
    },
    {
      "channel": 3,
      "note": 88,
      "start": 59.6681,
      "duration": 0.099,
      "velocity": 106,
      "chip": "ym2612"
    },
    {
      "channel": 4,
      "note": 83,
      "start": 59.6686,
      "duration": 0.1006,
      "velocity": 106,
      "chip": "ym2612"
    },
    {
      "channel": 0,
      "note": 64,
      "start": 59.764,
      "duration": 0.1999,
      "velocity": 112,
      "chip": "ym2612"
    },
    {
      "channel": 1,
      "note": 64,
      "start": 59.7646,
      "duration": 0.1999,
      "velocity": 107,
      "chip": "ym2612"
    },
    {
      "channel": 2,
      "note": 67,
      "start": 59.7651,
      "duration": 0.1998,
      "velocity": 107,
      "chip": "ym2612"
    },
    {
      "channel": 3,
      "note": 83,
      "start": 59.7672,
      "duration": 0.0984,
      "velocity": 106,
      "chip": "ym2612"
    },
    {
      "channel": 4,
      "note": 79,
      "start": 59.7694,
      "duration": 0.0983,
      "velocity": 106,
      "chip": "ym2612"
    },
    {
      "channel": 5,
      "note": 91,
      "start": 59.77,
      "duration": 0.0983,
      "velocity": 127,
      "chip": "ym2612"
    },
    {
      "channel": 3,
      "note": 83,
      "start": 59.8658,
      "duration": 0.1013,
      "velocity": 106,
      "chip": "ym2612"
    },
    {
      "channel": 4,
      "note": 79,
      "start": 59.8679,
      "duration": 0.1013,
      "velocity": 106,
      "chip": "ym2612"
    },
    {
      "channel": 5,
      "note": 91,
      "start": 59.8685,
      "duration": 0.2845,
      "velocity": 127,
      "chip": "ym2612"
    },
    {
      "channel": 0,
      "note": 48,
      "start": 59.9641,
      "duration": 0.1861,
      "velocity": 112,
      "chip": "ym2612"
    },
    {
      "channel": 1,
      "note": 60,
      "start": 59.9646,
      "duration": 0.1861,
      "velocity": 107,
      "chip": "ym2612"
    },
    {
      "channel": 2,
      "note": 55,
      "start": 59.9651,
      "duration": 0.1861,
      "velocity": 107,
      "chip": "ym2612"
    },
    {
      "channel": 3,
      "note": 84,
      "start": 59.9673,
      "duration": 0.0847,
      "velocity": 106,
      "chip": "ym2612"
    },
    {
      "channel": 4,
      "note": 81,
      "start": 59.9694,
      "duration": 0.0847,
      "velocity": 106,
      "chip": "ym2612"
    },
    {
      "channel": 3,
      "note": 84,
      "start": 60.0521,
      "duration": 0.0998,
      "velocity": 106,
      "chip": "ym2612"
    },
    {
      "channel": 4,
      "note": 81,
      "start": 60.0543,
      "duration": 0.0982,
      "velocity": 106,
      "chip": "ym2612"
    },
    {
      "channel": 0,
      "note": 60,
      "start": 60.1503,
      "duration": 0.1999,
      "velocity": 112,
      "chip": "ym2612"
    },
    {
      "channel": 1,
      "note": 64,
      "start": 60.1509,
      "duration": 0.1998,
      "velocity": 107,
      "chip": "ym2612"
    },
    {
      "channel": 2,
      "note": 60,
      "start": 60.1515,
      "duration": 0.1998,
      "velocity": 107,
      "chip": "ym2612"
    },
    {
      "channel": 3,
      "note": 84,
      "start": 60.152,
      "duration": 0.0983,
      "velocity": 106,
      "chip": "ym2612"
    },
    {
      "channel": 4,
      "note": 81,
      "start": 60.1525,
      "duration": 0.0984,
      "velocity": 106,
      "chip": "ym2612"
    },
    {
      "channel": 5,
      "note": 91,
      "start": 60.1531,
      "duration": 0.0984,
      "velocity": 127,
      "chip": "ym2612"
    },
    {
      "channel": 3,
      "note": 84,
      "start": 60.2506,
      "duration": 0.1029,
      "velocity": 106,
      "chip": "ym2612"
    },
    {
      "channel": 4,
      "note": 81,
      "start": 60.2511,
      "duration": 0.1044,
      "velocity": 106,
      "chip": "ym2612"
    },
    {
      "channel": 5,
      "note": 91,
      "start": 60.2517,
      "duration": 0.2757,
      "velocity": 127,
      "chip": "ym2612"
    },
    {
      "channel": 0,
      "note": 48,
      "start": 60.3503,
      "duration": 0.1742,
      "velocity": 112,
      "chip": "ym2612"
    },
    {
      "channel": 1,
      "note": 67,
      "start": 60.3509,
      "duration": 0.1742,
      "velocity": 107,
      "chip": "ym2612"
    },
    {
      "channel": 2,
      "note": 64,
      "start": 60.3515,
      "duration": 0.1741,
      "velocity": 107,
      "chip": "ym2612"
    },
    {
      "channel": 3,
      "note": 88,
      "start": 60.3536,
      "duration": 0.0799,
      "velocity": 106,
      "chip": "ym2612"
    },
    {
      "channel": 4,
      "note": 84,
      "start": 60.3557,
      "duration": 0.0799,
      "velocity": 106,
      "chip": "ym2612"
    },
    {
      "channel": 3,
      "note": 88,
      "start": 60.4336,
      "duration": 0.0926,
      "velocity": 106,
      "chip": "ym2612"
    },
    {
      "channel": 4,
      "note": 84,
      "start": 60.4358,
      "duration": 0.091,
      "velocity": 106,
      "chip": "ym2612"
    },
    {
      "channel": 0,
      "note": 60,
      "start": 60.5247,
      "duration": 0.1998,
      "velocity": 112,
      "chip": "ym2612"
    },
    {
      "channel": 1,
      "note": 72,
      "start": 60.5252,
      "duration": 0.1999,
      "velocity": 107,
      "chip": "ym2612"
    },
    {
      "channel": 2,
      "note": 67,
      "start": 60.5258,
      "duration": 0.1998,
      "velocity": 107,
      "chip": "ym2612"
    },
    {
      "channel": 3,
      "note": 88,
      "start": 60.5264,
      "duration": 0.0983,
      "velocity": 106,
      "chip": "ym2612"
    },
    {
      "channel": 4,
      "note": 84,
      "start": 60.5269,
      "duration": 0.0983,
      "velocity": 106,
      "chip": "ym2612"
    },
    {
      "channel": 5,
      "note": 91,
      "start": 60.5275,
      "duration": 0.0983,
      "velocity": 127,
      "chip": "ym2612"
    },
    {
      "channel": 3,
      "note": 88,
      "start": 60.6249,
      "duration": 0.1029,
      "velocity": 106,
      "chip": "ym2612"
    },
    {
      "channel": 4,
      "note": 84,
      "start": 60.6254,
      "duration": 0.1044,
      "velocity": 106,
      "chip": "ym2612"
    },
    {
      "channel": 5,
      "note": 91,
      "start": 60.626,
      "duration": 0.2877,
      "velocity": 127,
      "chip": "ym2612"
    },
    {
      "channel": 0,
      "note": 48,
      "start": 60.7247,
      "duration": 0.1861,
      "velocity": 112,
      "chip": "ym2612"
    },
    {
      "channel": 1,
      "note": 76,
      "start": 60.7252,
      "duration": 0.1861,
      "velocity": 107,
      "chip": "ym2612"
    },
    {
      "channel": 2,
      "note": 72,
      "start": 60.7258,
      "duration": 0.1861,
      "velocity": 107,
      "chip": "ym2612"
    },
    {
      "channel": 3,
      "note": 91,
      "start": 60.728,
      "duration": 0.0847,
      "velocity": 106,
      "chip": "ym2612"
    },
    {
      "channel": 4,
      "note": 88,
      "start": 60.7301,
      "duration": 0.0847,
      "velocity": 106,
      "chip": "ym2612"
    },
    {
      "channel": 3,
      "note": 91,
      "start": 60.8128,
      "duration": 0.0998,
      "velocity": 106,
      "chip": "ym2612"
    },
    {
      "channel": 4,
      "note": 88,
      "start": 60.8149,
      "duration": 0.0982,
      "velocity": 106,
      "chip": "ym2612"
    },
    {
      "channel": 0,
      "note": 60,
      "start": 60.911,
      "duration": 0.1999,
      "velocity": 112,
      "chip": "ym2612"
    },
    {
      "channel": 1,
      "note": 72,
      "start": 60.9115,
      "duration": 0.1998,
      "velocity": 107,
      "chip": "ym2612"
    },
    {
      "channel": 2,
      "note": 67,
      "start": 60.9121,
      "duration": 0.1998,
      "velocity": 107,
      "chip": "ym2612"
    },
    {
      "channel": 3,
      "note": 91,
      "start": 60.9127,
      "duration": 0.0983,
      "velocity": 106,
      "chip": "ym2612"
    },
    {
      "channel": 4,
      "note": 88,
      "start": 60.9132,
      "duration": 0.0984,
      "velocity": 106,
      "chip": "ym2612"
    },
    {
      "channel": 5,
      "note": 91,
      "start": 60.9138,
      "duration": 0.0984,
      "velocity": 127,
      "chip": "ym2612"
    },
    {
      "channel": 3,
      "note": 91,
      "start": 61.0112,
      "duration": 0.1029,
      "velocity": 106,
      "chip": "ym2612"
    },
    {
      "channel": 4,
      "note": 88,
      "start": 61.0117,
      "duration": 0.1044,
      "velocity": 74,
      "chip": "ym2612"
    },
    {
      "channel": 5,
      "note": 91,
      "start": 61.0123,
      "duration": 0.6344,
      "velocity": 127,
      "chip": "ym2612"
    },
    {
      "channel": 0,
      "note": 48,
      "start": 61.111,
      "duration": 0.174,
      "velocity": 112,
      "chip": "ym2612"
    },
    {
      "channel": 1,
      "note": 67,
      "start": 61.1115,
      "duration": 0.174,
      "velocity": 107,
      "chip": "ym2612"
    },
    {
      "channel": 2,
      "note": 64,
      "start": 61.1121,
      "duration": 0.1739,
      "velocity": 107,
      "chip": "ym2612"
    },
    {
      "channel": 3,
      "note": 88,
      "start": 61.1142,
      "duration": 0.0799,
      "velocity": 106,
      "chip": "ym2612"
    },
    {
      "channel": 4,
      "note": 83,
      "start": 61.1164,
      "duration": 0.0783,
      "velocity": 74,
      "chip": "ym2612"
    },
    {
      "channel": 3,
      "note": 88,
      "start": 61.1943,
      "duration": 0.0924,
      "velocity": 106,
      "chip": "ym2612"
    },
    {
      "channel": 4,
      "note": 79,
      "start": 61.1949,
      "duration": 0.0924,
      "velocity": 74,
      "chip": "ym2612"
    },
    {
      "channel": 0,
      "note": 60,
      "start": 61.2851,
      "duration": 0.1702,
      "velocity": 112,
      "chip": "ym2612"
    },
    {
      "channel": 1,
      "note": 64,
      "start": 61.2857,
      "duration": 0.1702,
      "velocity": 107,
      "chip": "ym2612"
    },
    {
      "channel": 2,
      "note": 60,
      "start": 61.2863,
      "duration": 0.1702,
      "velocity": 107,
      "chip": "ym2612"
    },
    {
      "channel": 3,
      "note": 88,
      "start": 61.2868,
      "duration": 0.0849,
      "velocity": 106,
      "chip": "ym2612"
    },
    {
      "channel": 4,
      "note": 74,
      "start": 61.2873,
      "duration": 0.085,
      "velocity": 74,
      "chip": "ym2612"
    },
    {
      "channel": 3,
      "note": 88,
      "start": 61.372,
      "duration": 0.0866,
      "velocity": 106,
      "chip": "ym2612"
    },
    {
      "channel": 4,
      "note": 71,
      "start": 61.3725,
      "duration": 0.0867,
      "velocity": 74,
      "chip": "ym2612"
    },
    {
      "channel": 0,
      "note": 43,
      "start": 61.4554,
      "duration": 0.1854,
      "velocity": 112,
      "chip": "ym2612"
    },
    {
      "channel": 1,
      "note": 55,
      "start": 61.4561,
      "duration": 0.1853,
      "velocity": 107,
      "chip": "ym2612"
    },
    {
      "channel": 2,
      "note": 59,
      "start": 61.4567,
      "duration": 0.1851,
      "velocity": 107,
      "chip": "ym2612"
    },
    {
      "channel": 3,
      "note": 83,
      "start": 61.4588,
      "duration": 0.0837,
      "velocity": 106,
      "chip": "ym2612"
    },
    {
      "channel": 4,
      "note": 67,
      "start": 61.4594,
      "duration": 0.1867,
      "velocity": 74,
      "chip": "ym2612"
    },
    {
      "channel": 3,
      "note": 83,
      "start": 61.5427,
      "duration": 0.1013,
      "velocity": 106,
      "chip": "ym2612"
    },
    {
      "channel": 0,
      "note": 55,
      "start": 61.641,
      "duration": 0.1998,
      "velocity": 112,
      "chip": "ym2612"
    },
    {
      "channel": 1,
      "note": 59,
      "start": 61.6415,
      "duration": 0.1999,
      "velocity": 107,
      "chip": "ym2612"
    },
    {
      "channel": 2,
      "note": 62,
      "start": 61.642,
      "duration": 0.1998,
      "velocity": 107,
      "chip": "ym2612"
    },
    {
      "channel": 3,
      "note": 83,
      "start": 61.6442,
      "duration": 0.0983,
      "velocity": 106,
      "chip": "ym2612"
    },
    {
      "channel": 4,
      "note": 67,
      "start": 61.6463,
      "duration": 0.1983,
      "velocity": 74,
      "chip": "ym2612"
    },
    {
      "channel": 5,
      "note": 91,
      "start": 61.6469,
      "duration": 0.0962,
      "velocity": 127,
      "chip": "ym2612"
    },
    {
      "channel": 3,
      "note": 83,
      "start": 61.7427,
      "duration": 0.0998,
      "velocity": 106,
      "chip": "ym2612"
    },
    {
      "channel": 5,
      "note": 91,
      "start": 61.7433,
      "duration": 0.2743,
      "velocity": 127,
      "chip": "ym2612"
    },
    {
      "channel": 0,
      "note": 43,
      "start": 61.841,
      "duration": 0.1707,
      "velocity": 112,
      "chip": "ym2612"
    },
    {
      "channel": 1,
      "note": 62,
      "start": 61.8415,
      "duration": 0.1707,
      "velocity": 107,
      "chip": "ym2612"
    },
    {
      "channel": 2,
      "note": 67,
      "start": 61.842,
      "duration": 0.1707,
      "velocity": 107,
      "chip": "ym2612"
    },
    {
      "channel": 3,
      "note": 83,
      "start": 61.8426,
      "duration": 0.0757,
      "velocity": 106,
      "chip": "ym2612"
    },
    {
      "channel": 4,
      "note": 79,
      "start": 61.8448,
      "duration": 0.1722,
      "velocity": 74,
      "chip": "ym2612"
    },
    {
      "channel": 3,
      "note": 83,
      "start": 61.9185,
      "duration": 0.0964,
      "velocity": 106,
      "chip": "ym2612"
    },
    {
      "channel": 0,
      "note": 55,
      "start": 62.0118,
      "duration": 0.1999,
      "velocity": 112,
      "chip": "ym2612"
    },
    {
      "channel": 1,
      "note": 67,
      "start": 62.0124,
      "duration": 0.1999,
      "velocity": 107,
      "chip": "ym2612"
    },
    {
      "channel": 2,
      "note": 71,
      "start": 62.0129,
      "duration": 0.1998,
      "velocity": 107,
      "chip": "ym2612"
    },
    {
      "channel": 3,
      "note": 81,
      "start": 62.015,
      "duration": 0.0984,
      "velocity": 106,
      "chip": "ym2612"
    },
    {
      "channel": 4,
      "note": 79,
      "start": 62.0172,
      "duration": 0.0983,
      "velocity": 74,
      "chip": "ym2612"
    },
    {
      "channel": 5,
      "note": 91,
      "start": 62.0178,
      "duration": 0.0983,
      "velocity": 127,
      "chip": "ym2612"
    },
    {
      "channel": 3,
      "note": 81,
      "start": 62.1136,
      "duration": 0.0998,
      "velocity": 106,
      "chip": "ym2612"
    },
    {
      "channel": 4,
      "note": 74,
      "start": 62.1157,
      "duration": 0.0982,
      "velocity": 74,
      "chip": "ym2612"
    },
    {
      "channel": 5,
      "note": 91,
      "start": 62.1163,
      "duration": 0.2863,
      "velocity": 127,
      "chip": "ym2612"
    },
    {
      "channel": 0,
      "note": 43,
      "start": 62.2119,
      "duration": 0.1848,
      "velocity": 112,
      "chip": "ym2612"
    },
    {
      "channel": 1,
      "note": 71,
      "start": 62.2124,
      "duration": 0.1848,
      "velocity": 107,
      "chip": "ym2612"
    },
    {
      "channel": 2,
      "note": 74,
      "start": 62.2129,
      "duration": 0.1847,
      "velocity": 107,
      "chip": "ym2612"
    },
    {
      "channel": 3,
      "note": 81,
      "start": 62.2135,
      "duration": 0.0833,
      "velocity": 106,
      "chip": "ym2612"
    },
    {
      "channel": 4,
      "note": 76,
      "start": 62.2141,
      "duration": 0.0848,
      "velocity": 74,
      "chip": "ym2612"
    },
    {
      "channel": 3,
      "note": 81,
      "start": 62.297,
      "duration": 0.1029,
      "velocity": 106,
      "chip": "ym2612"
    },
    {
      "channel": 4,
      "note": 74,
      "start": 62.2991,
      "duration": 0.1029,
      "velocity": 74,
      "chip": "ym2612"
    },
    {
      "channel": 0,
      "note": 55,
      "start": 62.3968,
      "duration": 0.1998,
      "velocity": 112,
      "chip": "ym2612"
    },
    {
      "channel": 1,
      "note": 67,
      "start": 62.3973,
      "duration": 0.1999,
      "velocity": 107,
      "chip": "ym2612"
    },
    {
      "channel": 2,
      "note": 71,
      "start": 62.3979,
      "duration": 0.1998,
      "velocity": 107,
      "chip": "ym2612"
    },
    {
      "channel": 3,
      "note": 79,
      "start": 62.4,
      "duration": 0.0983,
      "velocity": 106,
      "chip": "ym2612"
    },
    {
      "channel": 4,
      "note": 74,
      "start": 62.4022,
      "duration": 0.1968,
      "velocity": 74,
      "chip": "ym2612"
    },
    {
      "channel": 5,
      "note": 91,
      "start": 62.4027,
      "duration": 0.0962,
      "velocity": 127,
      "chip": "ym2612"
    },
    {
      "channel": 3,
      "note": 79,
      "start": 62.4985,
      "duration": 0.0998,
      "velocity": 106,
      "chip": "ym2612"
    },
    {
      "channel": 5,
      "note": 91,
      "start": 62.4992,
      "duration": 0.2785,
      "velocity": 127,
      "chip": "ym2612"
    },
    {
      "channel": 0,
      "note": 43,
      "start": 62.5968,
      "duration": 0.1764,
      "velocity": 112,
      "chip": "ym2612"
    },
    {
      "channel": 1,
      "note": 62,
      "start": 62.5973,
      "duration": 0.1765,
      "velocity": 107,
      "chip": "ym2612"
    },
    {
      "channel": 2,
      "note": 67,
      "start": 62.5979,
      "duration": 0.1764,
      "velocity": 107,
      "chip": "ym2612"
    },
    {
      "channel": 3,
      "note": 79,
      "start": 62.5985,
      "duration": 0.0788,
      "velocity": 106,
      "chip": "ym2612"
    },
    {
      "channel": 4,
      "note": 70,
      "start": 62.599,
      "duration": 0.0789,
      "velocity": 74,
      "chip": "ym2612"
    },
    {
      "channel": 3,
      "note": 79,
      "start": 62.6775,
      "duration": 0.099,
      "velocity": 106,
      "chip": "ym2612"
    },
    {
      "channel": 4,
      "note": 71,
      "start": 62.6781,
      "duration": 0.099,
      "velocity": 74,
      "chip": "ym2612"
    },
    {
      "channel": 0,
      "note": 55,
      "start": 62.7734,
      "duration": 0.1998,
      "velocity": 112,
      "chip": "ym2612"
    },
    {
      "channel": 1,
      "note": 59,
      "start": 62.7739,
      "duration": 0.1999,
      "velocity": 107,
      "chip": "ym2612"
    },
    {
      "channel": 2,
      "note": 62,
      "start": 62.7745,
      "duration": 0.1998,
      "velocity": 107,
      "chip": "ym2612"
    },
    {
      "channel": 3,
      "note": 81,
      "start": 62.7767,
      "duration": 0.0983,
      "velocity": 106,
      "chip": "ym2612"
    },
    {
      "channel": 4,
      "note": 74,
      "start": 62.7772,
      "duration": 0.0999,
      "velocity": 74,
      "chip": "ym2612"
    },
    {
      "channel": 5,
      "note": 91,
      "start": 62.7778,
      "duration": 0.0999,
      "velocity": 127,
      "chip": "ym2612"
    },
    {
      "channel": 3,
      "note": 81,
      "start": 62.8751,
      "duration": 0.1013,
      "velocity": 106,
      "chip": "ym2612"
    },
    {
      "channel": 4,
      "note": 71,
      "start": 62.8773,
      "duration": 0.1013,
      "velocity": 74,
      "chip": "ym2612"
    },
    {
      "channel": 5,
      "note": 91,
      "start": 62.8779,
      "duration": 0.2861,
      "velocity": 127,
      "chip": "ym2612"
    },
    {
      "channel": 0,
      "note": 50,
      "start": 62.9734,
      "duration": 0.1861,
      "velocity": 112,
      "chip": "ym2612"
    },
    {
      "channel": 1,
      "note": 54,
      "start": 62.9739,
      "duration": 0.1862,
      "velocity": 107,
      "chip": "ym2612"
    },
    {
      "channel": 2,
      "note": 57,
      "start": 62.9745,
      "duration": 0.1861,
      "velocity": 107,
      "chip": "ym2612"
    },
    {
      "channel": 3,
      "note": 86,
      "start": 62.9767,
      "duration": 0.0846,
      "velocity": 106,
      "chip": "ym2612"
    },
    {
      "channel": 4,
      "note": 62,
      "start": 62.9788,
      "duration": 0.1846,
      "velocity": 74,
      "chip": "ym2612"
    },
    {
      "channel": 3,
      "note": 86,
      "start": 63.0615,
      "duration": 0.0998,
      "velocity": 106,
      "chip": "ym2612"
    },
    {
      "channel": 0,
      "note": 62,
      "start": 63.1598,
      "duration": 0.1998,
      "velocity": 112,
      "chip": "ym2612"
    },
    {
      "channel": 1,
      "note": 57,
      "start": 63.1602,
      "duration": 0.1999,
      "velocity": 107,
      "chip": "ym2612"
    },
    {
      "channel": 2,
      "note": 62,
      "start": 63.1608,
      "duration": 0.1998,
      "velocity": 107,
      "chip": "ym2612"
    },
    {
      "channel": 3,
      "note": 86,
      "start": 63.1614,
      "duration": 0.0983,
      "velocity": 106,
      "chip": "ym2612"
    },
    {
      "channel": 4,
      "note": 62,
      "start": 63.1635,
      "duration": 0.2014,
      "velocity": 74,
      "chip": "ym2612"
    },
    {
      "channel": 5,
      "note": 91,
      "start": 63.1641,
      "duration": 0.0963,
      "velocity": 127,
      "chip": "ym2612"
    },
    {
      "channel": 3,
      "note": 86,
      "start": 63.2599,
      "duration": 0.1029,
      "velocity": 106,
      "chip": "ym2612"
    },
    {
      "channel": 5,
      "note": 91,
      "start": 63.2605,
      "duration": 0.2813,
      "velocity": 127,
      "chip": "ym2612"
    },
    {
      "channel": 0,
      "note": 50,
      "start": 63.3598,
      "duration": 0.1777,
      "velocity": 112,
      "chip": "ym2612"
    },
    {
      "channel": 1,
      "note": 62,
      "start": 63.3602,
      "duration": 0.1777,
      "velocity": 107,
      "chip": "ym2612"
    },
    {
      "channel": 2,
      "note": 66,
      "start": 63.3608,
      "duration": 0.1777,
      "velocity": 107,
      "chip": "ym2612"
    },
    {
      "channel": 3,
      "note": 84,
      "start": 63.363,
      "duration": 0.0798,
      "velocity": 106,
      "chip": "ym2612"
    },
    {
      "channel": 4,
      "note": 69,
      "start": 63.3651,
      "duration": 0.1761,
      "velocity": 74,
      "chip": "ym2612"
    },
    {
      "channel": 3,
      "note": 84,
      "start": 63.443,
      "duration": 0.0961,
      "velocity": 106,
      "chip": "ym2612"
    },
    {
      "channel": 0,
      "note": 62,
      "start": 63.5376,
      "duration": 0.1999,
      "velocity": 112,
      "chip": "ym2612"
    },
    {
      "channel": 1,
      "note": 66,
      "start": 63.5381,
      "duration": 0.1998,
      "velocity": 107,
      "chip": "ym2612"
    },
    {
      "channel": 2,
      "note": 69,
      "start": 63.5387,
      "duration": 0.1998,
      "velocity": 107,
      "chip": "ym2612"
    },
    {
      "channel": 3,
      "note": 84,
      "start": 63.5393,
      "duration": 0.0983,
      "velocity": 106,
      "chip": "ym2612"
    },
    {
      "channel": 4,
      "note": 69,
      "start": 63.5414,
      "duration": 0.0983,
      "velocity": 74,
      "chip": "ym2612"
    },
    {
      "channel": 5,
      "note": 91,
      "start": 63.542,
      "duration": 0.0983,
      "velocity": 127,
      "chip": "ym2612"
    },
    {
      "channel": 3,
      "note": 84,
      "start": 63.6378,
      "duration": 0.1029,
      "velocity": 106,
      "chip": "ym2612"
    },
    {
      "channel": 4,
      "note": 66,
      "start": 63.6399,
      "duration": 0.1013,
      "velocity": 74,
      "chip": "ym2612"
    },
    {
      "channel": 5,
      "note": 91,
      "start": 63.6405,
      "duration": 0.2879,
      "velocity": 127,
      "chip": "ym2612"
    },
    {
      "channel": 0,
      "note": 50,
      "start": 63.7376,
      "duration": 0.1849,
      "velocity": 112,
      "chip": "ym2612"
    },
    {
      "channel": 1,
      "note": 69,
      "start": 63.7381,
      "duration": 0.1849,
      "velocity": 107,
      "chip": "ym2612"
    },
    {
      "channel": 2,
      "note": 74,
      "start": 63.7387,
      "duration": 0.1848,
      "velocity": 107,
      "chip": "ym2612"
    },
    {
      "channel": 3,
      "note": 83,
      "start": 63.7408,
      "duration": 0.0833,
      "velocity": 106,
      "chip": "ym2612"
    },
    {
      "channel": 4,
      "note": 69,
      "start": 63.7414,
      "duration": 0.0849,
      "velocity": 74,
      "chip": "ym2612"
    },
    {
      "channel": 3,
      "note": 83,
      "start": 63.8243,
      "duration": 0.1013,
      "velocity": 106,
      "chip": "ym2612"
    },
    {
      "channel": 4,
      "note": 66,
      "start": 63.8265,
      "duration": 0.1013,
      "velocity": 74,
      "chip": "ym2612"
    },
    {
      "channel": 0,
      "note": 62,
      "start": 63.9226,
      "duration": 0.1998,
      "velocity": 112,
      "chip": "ym2612"
    },
    {
      "channel": 1,
      "note": 66,
      "start": 63.9231,
      "duration": 0.1999,
      "velocity": 107,
      "chip": "ym2612"
    },
    {
      "channel": 2,
      "note": 69,
      "start": 63.9237,
      "duration": 0.1998,
      "velocity": 107,
      "chip": "ym2612"
    },
    {
      "channel": 3,
      "note": 83,
      "start": 63.9258,
      "duration": 0.0983,
      "velocity": 106,
      "chip": "ym2612"
    },
    {
      "channel": 4,
      "note": 66,
      "start": 63.9279,
      "duration": 0.1983,
      "velocity": 74,
      "chip": "ym2612"
    },
    {
      "channel": 5,
      "note": 91,
      "start": 63.9285,
      "duration": 0.0962,
      "velocity": 127,
      "chip": "ym2612"
    },
    {
      "channel": 3,
      "note": 83,
      "start": 64.0243,
      "duration": 0.1013,
      "velocity": 106,
      "chip": "ym2612"
    },
    {
      "channel": 5,
      "note": 91,
      "start": 64.0249,
      "duration": 0.2779,
      "velocity": 127,
      "chip": "ym2612"
    },
    {
      "channel": 0,
      "note": 50,
      "start": 64.1226,
      "duration": 0.1759,
      "velocity": 112,
      "chip": "ym2612"
    },
    {
      "channel": 1,
      "note": 62,
      "start": 64.1231,
      "duration": 0.1759,
      "velocity": 107,
      "chip": "ym2612"
    },
    {
      "channel": 2,
      "note": 66,
      "start": 64.1237,
      "duration": 0.1758,
      "velocity": 107,
      "chip": "ym2612"
    },
    {
      "channel": 3,
      "note": 81,
      "start": 64.1258,
      "duration": 0.0777,
      "velocity": 106,
      "chip": "ym2612"
    },
    {
      "channel": 4,
      "note": 74,
      "start": 64.1264,
      "duration": 0.1759,
      "velocity": 74,
      "chip": "ym2612"
    },
    {
      "channel": 3,
      "note": 81,
      "start": 64.2037,
      "duration": 0.098,
      "velocity": 106,
      "chip": "ym2612"
    },
    {
      "channel": 0,
      "note": 62,
      "start": 64.2986,
      "duration": 0.1999,
      "velocity": 112,
      "chip": "ym2612"
    },
    {
      "channel": 1,
      "note": 57,
      "start": 64.2991,
      "duration": 0.2,
      "velocity": 107,
      "chip": "ym2612"
    },
    {
      "channel": 2,
      "note": 62,
      "start": 64.2997,
      "duration": 0.2,
      "velocity": 107,
      "chip": "ym2612"
    },
    {
      "channel": 3,
      "note": 81,
      "start": 64.3019,
      "duration": 0.0983,
      "velocity": 106,
      "chip": "ym2612"
    },
    {
      "channel": 4,
      "note": 69,
      "start": 64.3024,
      "duration": 0.2015,
      "velocity": 100,
      "chip": "ym2612"
    },
    {
      "channel": 5,
      "note": 91,
      "start": 64.303,
      "duration": 0.0979,
      "velocity": 127,
      "chip": "ym2612"
    },
    {
      "channel": 3,
      "note": 81,
      "start": 64.4004,
      "duration": 0.1015,
      "velocity": 99,
      "chip": "ym2612"
    },
    {
      "channel": 5,
      "note": 91,
      "start": 64.401,
      "duration": 0.291,
      "velocity": 127,
      "chip": "ym2612"
    },
    {
      "channel": 0,
      "note": 43,
      "start": 64.4987,
      "duration": 0.1915,
      "velocity": 112,
      "chip": "ym2612"
    },
    {
      "channel": 1,
      "note": 55,
      "start": 64.4993,
      "duration": 0.1915,
      "velocity": 107,
      "chip": "ym2612"
    },
    {
      "channel": 2,
      "note": 59,
      "start": 64.4999,
      "duration": 0.1914,
      "velocity": 107,
      "chip": "ym2612"
    },
    {
      "channel": 3,
      "note": 83,
      "start": 64.5021,
      "duration": 0.9514,
      "velocity": 99,
      "chip": "ym2612"
    },
    {
      "channel": 4,
      "note": 86,
      "start": 64.5041,
      "duration": 0.9498,
      "velocity": 100,
      "chip": "ym2612"
    },
    {
      "channel": 0,
      "note": 55,
      "start": 64.6903,
      "duration": 0.1999,
      "velocity": 112,
      "chip": "ym2612"
    },
    {
      "channel": 1,
      "note": 59,
      "start": 64.6909,
      "duration": 0.1999,
      "velocity": 107,
      "chip": "ym2612"
    },
    {
      "channel": 2,
      "note": 62,
      "start": 64.6915,
      "duration": 0.1998,
      "velocity": 107,
      "chip": "ym2612"
    },
    {
      "channel": 5,
      "note": 91,
      "start": 64.6922,
      "duration": 0.0983,
      "velocity": 127,
      "chip": "ym2612"
    },
    {
      "channel": 5,
      "note": 91,
      "start": 64.7907,
      "duration": 0.2749,
      "velocity": 127,
      "chip": "ym2612"
    },
    {
      "channel": 0,
      "note": 43,
      "start": 64.8904,
      "duration": 0.1735,
      "velocity": 112,
      "chip": "ym2612"
    },
    {
      "channel": 1,
      "note": 62,
      "start": 64.8909,
      "duration": 0.1735,
      "velocity": 107,
      "chip": "ym2612"
    },
    {
      "channel": 2,
      "note": 67,
      "start": 64.8915,
      "duration": 0.1735,
      "velocity": 107,
      "chip": "ym2612"
    },
    {
      "channel": 0,
      "note": 55,
      "start": 65.0641,
      "duration": 0.1998,
      "velocity": 112,
      "chip": "ym2612"
    },
    {
      "channel": 1,
      "note": 67,
      "start": 65.0646,
      "duration": 0.1999,
      "velocity": 107,
      "chip": "ym2612"
    },
    {
      "channel": 2,
      "note": 71,
      "start": 65.0651,
      "duration": 0.1998,
      "velocity": 107,
      "chip": "ym2612"
    },
    {
      "channel": 5,
      "note": 91,
      "start": 65.0659,
      "duration": 0.0983,
      "velocity": 127,
      "chip": "ym2612"
    },
    {
      "channel": 5,
      "note": 91,
      "start": 65.1644,
      "duration": 0.2902,
      "velocity": 127,
      "chip": "ym2612"
    },
    {
      "channel": 0,
      "note": 43,
      "start": 65.2641,
      "duration": 0.1877,
      "velocity": 112,
      "chip": "ym2612"
    },
    {
      "channel": 1,
      "note": 71,
      "start": 65.2646,
      "duration": 0.1877,
      "velocity": 107,
      "chip": "ym2612"
    },
    {
      "channel": 2,
      "note": 74,
      "start": 65.2651,
      "duration": 0.1877,
      "velocity": 107,
      "chip": "ym2612"
    },
    {
      "channel": 0,
      "note": 55,
      "start": 65.4519,
      "duration": 0.1999,
      "velocity": 112,
      "chip": "ym2612"
    },
    {
      "channel": 1,
      "note": 67,
      "start": 65.4524,
      "duration": 0.1999,
      "velocity": 107,
      "chip": "ym2612"
    },
    {
      "channel": 2,
      "note": 71,
      "start": 65.453,
      "duration": 0.1998,
      "velocity": 107,
      "chip": "ym2612"
    },
    {
      "channel": 3,
      "note": 81,
      "start": 65.4536,
      "duration": 0.1998,
      "velocity": 99,
      "chip": "ym2612"
    },
    {
      "channel": 4,
      "note": 84,
      "start": 65.4541,
      "duration": 0.1999,
      "velocity": 100,
      "chip": "ym2612"
    },
    {
      "channel": 5,
      "note": 91,
      "start": 65.4547,
      "duration": 0.0974,
      "velocity": 127,
      "chip": "ym2612"
    },
    {
      "channel": 5,
      "note": 91,
      "start": 65.5522,
      "duration": 0.2819,
      "velocity": 127,
      "chip": "ym2612"
    },
    {
      "channel": 0,
      "note": 43,
      "start": 65.652,
      "duration": 0.1794,
      "velocity": 112,
      "chip": "ym2612"
    },
    {
      "channel": 1,
      "note": 62,
      "start": 65.6524,
      "duration": 0.1794,
      "velocity": 107,
      "chip": "ym2612"
    },
    {
      "channel": 2,
      "note": 67,
      "start": 65.653,
      "duration": 0.1794,
      "velocity": 107,
      "chip": "ym2612"
    },
    {
      "channel": 3,
      "note": 79,
      "start": 65.6536,
      "duration": 0.0818,
      "velocity": 99,
      "chip": "ym2612"
    },
    {
      "channel": 4,
      "note": 83,
      "start": 65.6542,
      "duration": 0.0818,
      "velocity": 100,
      "chip": "ym2612"
    },
    {
      "channel": 3,
      "note": 81,
      "start": 65.7356,
      "duration": 0.0974,
      "velocity": 99,
      "chip": "ym2612"
    },
    {
      "channel": 4,
      "note": 84,
      "start": 65.7361,
      "duration": 0.0975,
      "velocity": 100,
      "chip": "ym2612"
    },
    {
      "channel": 0,
      "note": 55,
      "start": 65.8315,
      "duration": 0.1999,
      "velocity": 112,
      "chip": "ym2612"
    },
    {
      "channel": 1,
      "note": 59,
      "start": 65.832,
      "duration": 0.1998,
      "velocity": 107,
      "chip": "ym2612"
    },
    {
      "channel": 2,
      "note": 62,
      "start": 65.8326,
      "duration": 0.1998,
      "velocity": 107,
      "chip": "ym2612"
    },
    {
      "channel": 3,
      "note": 83,
      "start": 65.8332,
      "duration": 0.1998,
      "velocity": 99,
      "chip": "ym2612"
    },
    {
      "channel": 4,
      "note": 86,
      "start": 65.8337,
      "duration": 0.1999,
      "velocity": 100,
      "chip": "ym2612"
    },
    {
      "channel": 5,
      "note": 91,
      "start": 65.8343,
      "duration": 0.0974,
      "velocity": 127,
      "chip": "ym2612"
    },
    {
      "channel": 5,
      "note": 91,
      "start": 65.9318,
      "duration": 0.2928,
      "velocity": 127,
      "chip": "ym2612"
    },
    {
      "channel": 0,
      "note": 50,
      "start": 66.0315,
      "duration": 0.1914,
      "velocity": 112,
      "chip": "ym2612"
    },
    {
      "channel": 1,
      "note": 54,
      "start": 66.032,
      "duration": 0.1913,
      "velocity": 107,
      "chip": "ym2612"
    },
    {
      "channel": 2,
      "note": 57,
      "start": 66.0326,
      "duration": 0.1913,
      "velocity": 107,
      "chip": "ym2612"
    },
    {
      "channel": 3,
      "note": 81,
      "start": 66.0332,
      "duration": 0.7662,
      "velocity": 99,
      "chip": "ym2612"
    },
    {
      "channel": 4,
      "note": 86,
      "start": 66.0337,
      "duration": 0.7663,
      "velocity": 100,
      "chip": "ym2612"
    },
    {
      "channel": 0,
      "note": 62,
      "start": 66.223,
      "duration": 0.1999,
      "velocity": 112,
      "chip": "ym2612"
    },
    {
      "channel": 1,
      "note": 57,
      "start": 66.2236,
      "duration": 0.1998,
      "velocity": 107,
      "chip": "ym2612"
    },
    {
      "channel": 2,
      "note": 62,
      "start": 66.2241,
      "duration": 0.1998,
      "velocity": 107,
      "chip": "ym2612"
    },
    {
      "channel": 5,
      "note": 91,
      "start": 66.2248,
      "duration": 0.0983,
      "velocity": 127,
      "chip": "ym2612"
    },
    {
      "channel": 5,
      "note": 91,
      "start": 66.3234,
      "duration": 0.2761,
      "velocity": 127,
      "chip": "ym2612"
    },
    {
      "channel": 0,
      "note": 50,
      "start": 66.423,
      "duration": 0.1747,
      "velocity": 112,
      "chip": "ym2612"
    },
    {
      "channel": 1,
      "note": 62,
      "start": 66.4236,
      "duration": 0.1746,
      "velocity": 107,
      "chip": "ym2612"
    },
    {
      "channel": 2,
      "note": 66,
      "start": 66.4241,
      "duration": 0.1746,
      "velocity": 107,
      "chip": "ym2612"
    },
    {
      "channel": 0,
      "note": 62,
      "start": 66.5978,
      "duration": 0.2,
      "velocity": 112,
      "chip": "ym2612"
    },
    {
      "channel": 1,
      "note": 66,
      "start": 66.5984,
      "duration": 0.1999,
      "velocity": 107,
      "chip": "ym2612"
    },
    {
      "channel": 2,
      "note": 69,
      "start": 66.599,
      "duration": 0.1999,
      "velocity": 107,
      "chip": "ym2612"
    },
    {
      "channel": 5,
      "note": 91,
      "start": 66.5997,
      "duration": 0.0983,
      "velocity": 127,
      "chip": "ym2612"
    },
    {
      "channel": 5,
      "note": 91,
      "start": 66.6981,
      "duration": 0.2929,
      "velocity": 127,
      "chip": "ym2612"
    },
    {
      "channel": 0,
      "note": 50,
      "start": 66.7979,
      "duration": 0.1914,
      "velocity": 112,
      "chip": "ym2612"
    },
    {
      "channel": 1,
      "note": 69,
      "start": 66.7984,
      "duration": 0.1914,
      "velocity": 107,
      "chip": "ym2612"
    },
    {
      "channel": 2,
      "note": 74,
      "start": 66.799,
      "duration": 0.1913,
      "velocity": 107,
      "chip": "ym2612"
    },
    {
      "channel": 3,
      "note": 74,
      "start": 66.7996,
      "duration": 0.7668,
      "velocity": 97,
      "chip": "ym2612"
    },
    {
      "channel": 4,
      "note": 81,
      "start": 66.8001,
      "duration": 0.7684,
      "velocity": 106,
      "chip": "ym2612"
    },
    {
      "channel": 0,
      "note": 62,
      "start": 66.9895,
      "duration": 0.1998,
      "velocity": 112,
      "chip": "ym2612"
    },
    {
      "channel": 1,
      "note": 66,
      "start": 66.99,
      "duration": 0.1999,
      "velocity": 107,
      "chip": "ym2612"
    },
    {
      "channel": 2,
      "note": 69,
      "start": 66.9905,
      "duration": 0.1998,
      "velocity": 107,
      "chip": "ym2612"
    },
    {
      "channel": 5,
      "note": 91,
      "start": 66.9912,
      "duration": 0.0983,
      "velocity": 127,
      "chip": "ym2612"
    },
    {
      "channel": 5,
      "note": 91,
      "start": 67.0898,
      "duration": 0.2749,
      "velocity": 127,
      "chip": "ym2612"
    },
    {
      "channel": 0,
      "note": 50,
      "start": 67.1895,
      "duration": 0.1734,
      "velocity": 112,
      "chip": "ym2612"
    },
    {
      "channel": 1,
      "note": 62,
      "start": 67.19,
      "duration": 0.1734,
      "velocity": 107,
      "chip": "ym2612"
    },
    {
      "channel": 2,
      "note": 66,
      "start": 67.1905,
      "duration": 0.1734,
      "velocity": 107,
      "chip": "ym2612"
    },
    {
      "channel": 0,
      "note": 62,
      "start": 67.363,
      "duration": 0.2,
      "velocity": 112,
      "chip": "ym2612"
    },
    {
      "channel": 1,
      "note": 57,
      "start": 67.3636,
      "duration": 0.2,
      "velocity": 107,
      "chip": "ym2612"
    },
    {
      "channel": 2,
      "note": 62,
      "start": 67.3641,
      "duration": 0.2001,
      "velocity": 107,
      "chip": "ym2612"
    },
    {
      "channel": 5,
      "note": 91,
      "start": 67.3649,
      "duration": 0.0984,
      "velocity": 127,
      "chip": "ym2612"
    },
    {
      "channel": 5,
      "note": 91,
      "start": 67.4634,
      "duration": 0.2953,
      "velocity": 127,
      "chip": "ym2612"
    },
    {
      "channel": 0,
      "note": 43,
      "start": 67.5632,
      "duration": 0.1916,
      "velocity": 112,
      "chip": "ym2612"
    },
    {
      "channel": 1,
      "note": 55,
      "start": 67.5638,
      "duration": 0.1916,
      "velocity": 107,
      "chip": "ym2612"
    },
    {
      "channel": 2,
      "note": 59,
      "start": 67.5644,
      "duration": 0.1915,
      "velocity": 107,
      "chip": "ym2612"
    },
    {
      "channel": 3,
      "note": 83,
      "start": 67.5666,
      "duration": 1.1395,
      "velocity": 97,
      "chip": "ym2612"
    },
    {
      "channel": 4,
      "note": 79,
      "start": 67.5687,
      "duration": 0.088,
      "velocity": 106,
      "chip": "ym2612"
    },
    {
      "channel": 4,
      "note": 79,
      "start": 67.6568,
      "duration": 0.1013,
      "velocity": 106,
      "chip": "ym2612"
    },
    {
      "channel": 0,
      "note": 55,
      "start": 67.755,
      "duration": 0.1998,
      "velocity": 112,
      "chip": "ym2612"
    },
    {
      "channel": 1,
      "note": 59,
      "start": 67.7555,
      "duration": 0.1998,
      "velocity": 107,
      "chip": "ym2612"
    },
    {
      "channel": 2,
      "note": 62,
      "start": 67.7561,
      "duration": 0.1998,
      "velocity": 107,
      "chip": "ym2612"
    },
    {
      "channel": 4,
      "note": 79,
      "start": 67.7583,
      "duration": 0.0983,
      "velocity": 106,
      "chip": "ym2612"
    },
    {
      "channel": 5,
      "note": 91,
      "start": 67.7589,
      "duration": 0.0982,
      "velocity": 127,
      "chip": "ym2612"
    },
    {
      "channel": 4,
      "note": 79,
      "start": 67.8568,
      "duration": 0.1014,
      "velocity": 106,
      "chip": "ym2612"
    },
    {
      "channel": 5,
      "note": 91,
      "start": 67.8573,
      "duration": 0.2681,
      "velocity": 127,
      "chip": "ym2612"
    },
    {
      "channel": 0,
      "note": 43,
      "start": 67.9549,
      "duration": 0.1666,
      "velocity": 112,
      "chip": "ym2612"
    },
    {
      "channel": 1,
      "note": 62,
      "start": 67.9555,
      "duration": 0.1666,
      "velocity": 107,
      "chip": "ym2612"
    },
    {
      "channel": 2,
      "note": 67,
      "start": 67.9561,
      "duration": 0.1666,
      "velocity": 107,
      "chip": "ym2612"
    },
    {
      "channel": 4,
      "note": 79,
      "start": 67.9583,
      "duration": 0.0687,
      "velocity": 106,
      "chip": "ym2612"
    },
    {
      "channel": 4,
      "note": 79,
      "start": 68.0271,
      "duration": 0.0977,
      "velocity": 106,
      "chip": "ym2612"
    },
    {
      "channel": 0,
      "note": 55,
      "start": 68.1217,
      "duration": 0.1998,
      "velocity": 112,
      "chip": "ym2612"
    },
    {
      "channel": 1,
      "note": 67,
      "start": 68.1223,
      "duration": 0.1998,
      "velocity": 107,
      "chip": "ym2612"
    },
    {
      "channel": 2,
      "note": 71,
      "start": 68.1228,
      "duration": 0.1999,
      "velocity": 107,
      "chip": "ym2612"
    },
    {
      "channel": 4,
      "note": 81,
      "start": 68.125,
      "duration": 0.0983,
      "velocity": 106,
      "chip": "ym2612"
    },
    {
      "channel": 5,
      "note": 91,
      "start": 68.1256,
      "duration": 0.0983,
      "velocity": 127,
      "chip": "ym2612"
    },
    {
      "channel": 4,
      "note": 81,
      "start": 68.2236,
      "duration": 0.0997,
      "velocity": 106,
      "chip": "ym2612"
    },
    {
      "channel": 5,
      "note": 91,
      "start": 68.2241,
      "duration": 0.2826,
      "velocity": 127,
      "chip": "ym2612"
    },
    {
      "channel": 0,
      "note": 43,
      "start": 68.3217,
      "duration": 0.1811,
      "velocity": 112,
      "chip": "ym2612"
    },
    {
      "channel": 1,
      "note": 71,
      "start": 68.3223,
      "duration": 0.1811,
      "velocity": 107,
      "chip": "ym2612"
    },
    {
      "channel": 2,
      "note": 74,
      "start": 68.3228,
      "duration": 0.1812,
      "velocity": 107,
      "chip": "ym2612"
    },
    {
      "channel": 4,
      "note": 81,
      "start": 68.3234,
      "duration": 0.0796,
      "velocity": 106,
      "chip": "ym2612"
    },
    {
      "channel": 4,
      "note": 81,
      "start": 68.4032,
      "duration": 0.1029,
      "velocity": 106,
      "chip": "ym2612"
    },
    {
      "channel": 0,
      "note": 55,
      "start": 68.503,
      "duration": 0.1999,
      "velocity": 112,
      "chip": "ym2612"
    },
    {
      "channel": 1,
      "note": 67,
      "start": 68.5036,
      "duration": 0.1998,
      "velocity": 107,
      "chip": "ym2612"
    },
    {
      "channel": 2,
      "note": 71,
      "start": 68.5041,
      "duration": 0.1999,
      "velocity": 107,
      "chip": "ym2612"
    },
    {
      "channel": 4,
      "note": 83,
      "start": 68.5063,
      "duration": 0.0983,
      "velocity": 106,
      "chip": "ym2612"
    },
    {
      "channel": 5,
      "note": 91,
      "start": 68.5069,
      "duration": 0.0983,
      "velocity": 127,
      "chip": "ym2612"
    },
    {
      "channel": 4,
      "note": 83,
      "start": 68.6049,
      "duration": 0.1018,
      "velocity": 106,
      "chip": "ym2612"
    },
    {
      "channel": 5,
      "note": 91,
      "start": 68.6054,
      "duration": 0.2729,
      "velocity": 127,
      "chip": "ym2612"
    },
    {
      "channel": 0,
      "note": 43,
      "start": 68.703,
      "duration": 0.1709,
      "velocity": 112,
      "chip": "ym2612"
    },
    {
      "channel": 1,
      "note": 62,
      "start": 68.7036,
      "duration": 0.1708,
      "velocity": 107,
      "chip": "ym2612"
    },
    {
      "channel": 2,
      "note": 67,
      "start": 68.7041,
      "duration": 0.1708,
      "velocity": 107,
      "chip": "ym2612"
    },
    {
      "channel": 3,
      "note": 83,
      "start": 68.7062,
      "duration": 0.0014,
      "velocity": 97,
      "chip": "ym2612"
    },
    {
      "channel": 4,
      "note": 83,
      "start": 68.7068,
      "duration": 0.0724,
      "velocity": 106,
      "chip": "ym2612"
    },
    {
      "channel": 3,
      "note": 82,
      "start": 68.7076,
      "duration": 0.0084,
      "velocity": 97,
      "chip": "ym2612"
    },
    {
      "channel": 3,
      "note": 81,
      "start": 68.716,
      "duration": 0.0113,
      "velocity": 97,
      "chip": "ym2612"
    },
    {
      "channel": 3,
      "note": 80,
      "start": 68.7273,
      "duration": 0.0107,
      "velocity": 97,
      "chip": "ym2612"
    },
    {
      "channel": 3,
      "note": 80,
      "start": 68.738,
      "duration": 0.0266,
      "velocity": 97,
      "chip": "ym2612"
    },
    {
      "channel": 3,
      "note": 79,
      "start": 68.7646,
      "duration": 0.0154,
      "velocity": 97,
      "chip": "ym2612"
    },
    {
      "channel": 4,
      "note": 83,
      "start": 68.7794,
      "duration": 0.0982,
      "velocity": 106,
      "chip": "ym2612"
    },
    {
      "channel": 3,
      "note": 79,
      "start": 68.78,
      "duration": 0.0955,
      "velocity": 97,
      "chip": "ym2612"
    },
    {
      "channel": 0,
      "note": 55,
      "start": 68.874,
      "duration": 0.1999,
      "velocity": 112,
      "chip": "ym2612"
    },
    {
      "channel": 1,
      "note": 59,
      "start": 68.8746,
      "duration": 0.1999,
      "velocity": 107,
      "chip": "ym2612"
    },
    {
      "channel": 2,
      "note": 62,
      "start": 68.8752,
      "duration": 0.1998,
      "velocity": 107,
      "chip": "ym2612"
    },
    {
      "channel": 3,
      "note": 79,
      "start": 68.8757,
      "duration": 0.0032,
      "velocity": 97,
      "chip": "ym2612"
    },
    {
      "channel": 4,
      "note": 81,
      "start": 68.8778,
      "duration": 0.0978,
      "velocity": 106,
      "chip": "ym2612"
    },
    {
      "channel": 5,
      "note": 91,
      "start": 68.8784,
      "duration": 0.0979,
      "velocity": 127,
      "chip": "ym2612"
    },
    {
      "channel": 3,
      "note": 80,
      "start": 68.8789,
      "duration": 0.0113,
      "velocity": 97,
      "chip": "ym2612"
    },
    {
      "channel": 3,
      "note": 80,
      "start": 68.8902,
      "duration": 0.0167,
      "velocity": 97,
      "chip": "ym2612"
    },
    {
      "channel": 3,
      "note": 81,
      "start": 68.9069,
      "duration": 0.1686,
      "velocity": 97,
      "chip": "ym2612"
    },
    {
      "channel": 4,
      "note": 81,
      "start": 68.9759,
      "duration": 0.1018,
      "velocity": 106,
      "chip": "ym2612"
    },
    {
      "channel": 5,
      "note": 91,
      "start": 68.9764,
      "duration": 0.28,
      "velocity": 127,
      "chip": "ym2612"
    },
    {
      "channel": 0,
      "note": 50,
      "start": 69.0741,
      "duration": 0.1801,
      "velocity": 112,
      "chip": "ym2612"
    },
    {
      "channel": 1,
      "note": 54,
      "start": 69.0746,
      "duration": 0.1802,
      "velocity": 107,
      "chip": "ym2612"
    },
    {
      "channel": 2,
      "note": 57,
      "start": 69.0752,
      "duration": 0.1801,
      "velocity": 107,
      "chip": "ym2612"
    },
    {
      "channel": 3,
      "note": 81,
      "start": 69.0757,
      "duration": 0.0029,
      "velocity": 97,
      "chip": "ym2612"
    },
    {
      "channel": 4,
      "note": 83,
      "start": 69.0778,
      "duration": 0.0782,
      "velocity": 106,
      "chip": "ym2612"
    },
    {
      "channel": 3,
      "note": 82,
      "start": 69.0787,
      "duration": 0.0078,
      "velocity": 97,
      "chip": "ym2612"
    },
    {
      "channel": 3,
      "note": 83,
      "start": 69.0865,
      "duration": 0.0116,
      "velocity": 97,
      "chip": "ym2612"
    },
    {
      "channel": 3,
      "note": 83,
      "start": 69.0981,
      "duration": 0.3578,
      "velocity": 97,
      "chip": "ym2612"
    },
    {
      "channel": 4,
      "note": 83,
      "start": 69.1562,
      "duration": 0.0997,
      "velocity": 106,
      "chip": "ym2612"
    },
    {
      "channel": 0,
      "note": 62,
      "start": 69.2544,
      "duration": 0.1999,
      "velocity": 112,
      "chip": "ym2612"
    },
    {
      "channel": 1,
      "note": 57,
      "start": 69.2549,
      "duration": 0.1999,
      "velocity": 107,
      "chip": "ym2612"
    },
    {
      "channel": 2,
      "note": 62,
      "start": 69.2554,
      "duration": 0.1999,
      "velocity": 107,
      "chip": "ym2612"
    },
    {
      "channel": 4,
      "note": 83,
      "start": 69.2561,
      "duration": 0.0983,
      "velocity": 106,
      "chip": "ym2612"
    },
    {
      "channel": 5,
      "note": 91,
      "start": 69.2566,
      "duration": 0.0983,
      "velocity": 127,
      "chip": "ym2612"
    },
    {
      "channel": 4,
      "note": 83,
      "start": 69.3546,
      "duration": 0.1034,
      "velocity": 106,
      "chip": "ym2612"
    },
    {
      "channel": 5,
      "note": 91,
      "start": 69.3552,
      "duration": 0.2701,
      "velocity": 127,
      "chip": "ym2612"
    },
    {
      "channel": 0,
      "note": 50,
      "start": 69.4544,
      "duration": 0.1686,
      "velocity": 112,
      "chip": "ym2612"
    },
    {
      "channel": 1,
      "note": 62,
      "start": 69.4549,
      "duration": 0.1686,
      "velocity": 107,
      "chip": "ym2612"
    },
    {
      "channel": 2,
      "note": 66,
      "start": 69.4555,
      "duration": 0.1686,
      "velocity": 107,
      "chip": "ym2612"
    },
    {
      "channel": 3,
      "note": 83,
      "start": 69.4561,
      "duration": 0.0029,
      "velocity": 97,
      "chip": "ym2612"
    },
    {
      "channel": 4,
      "note": 78,
      "start": 69.4582,
      "duration": 0.072,
      "velocity": 106,
      "chip": "ym2612"
    },
    {
      "channel": 3,
      "note": 84,
      "start": 69.459,
      "duration": 0.0078,
      "velocity": 97,
      "chip": "ym2612"
    },
    {
      "channel": 3,
      "note": 85,
      "start": 69.4668,
      "duration": 0.0116,
      "velocity": 97,
      "chip": "ym2612"
    },
    {
      "channel": 3,
      "note": 85,
      "start": 69.4784,
      "duration": 0.0116,
      "velocity": 97,
      "chip": "ym2612"
    },
    {
      "channel": 3,
      "note": 86,
      "start": 69.49,
      "duration": 0.3347,
      "velocity": 97,
      "chip": "ym2612"
    },
    {
      "channel": 4,
      "note": 78,
      "start": 69.5304,
      "duration": 0.0944,
      "velocity": 106,
      "chip": "ym2612"
    },
    {
      "channel": 0,
      "note": 62,
      "start": 69.6232,
      "duration": 0.1999,
      "velocity": 112,
      "chip": "ym2612"
    },
    {
      "channel": 1,
      "note": 66,
      "start": 69.6237,
      "duration": 0.1998,
      "velocity": 107,
      "chip": "ym2612"
    },
    {
      "channel": 2,
      "note": 69,
      "start": 69.6243,
      "duration": 0.1999,
      "velocity": 107,
      "chip": "ym2612"
    },
    {
      "channel": 4,
      "note": 78,
      "start": 69.6249,
      "duration": 0.0983,
      "velocity": 106,
      "chip": "ym2612"
    },
    {
      "channel": 5,
      "note": 91,
      "start": 69.6255,
      "duration": 0.0983,
      "velocity": 127,
      "chip": "ym2612"
    },
    {
      "channel": 4,
      "note": 78,
      "start": 69.7234,
      "duration": 0.1034,
      "velocity": 106,
      "chip": "ym2612"
    },
    {
      "channel": 5,
      "note": 91,
      "start": 69.724,
      "duration": 0.2845,
      "velocity": 127,
      "chip": "ym2612"
    },
    {
      "channel": 0,
      "note": 50,
      "start": 69.8232,
      "duration": 0.1815,
      "velocity": 112,
      "chip": "ym2612"
    },
    {
      "channel": 1,
      "note": 69,
      "start": 69.8237,
      "duration": 0.1815,
      "velocity": 107,
      "chip": "ym2612"
    },
    {
      "channel": 2,
      "note": 74,
      "start": 69.8243,
      "duration": 0.1815,
      "velocity": 107,
      "chip": "ym2612"
    },
    {
      "channel": 3,
      "note": 86,
      "start": 69.8248,
      "duration": 0.003,
      "velocity": 97,
      "chip": "ym2612"
    },
    {
      "channel": 4,
      "note": 74,
      "start": 69.827,
      "duration": 0.0795,
      "velocity": 106,
      "chip": "ym2612"
    },
    {
      "channel": 3,
      "note": 87,
      "start": 69.8278,
      "duration": 0.0083,
      "velocity": 97,
      "chip": "ym2612"
    },
    {
      "channel": 3,
      "note": 87,
      "start": 69.8361,
      "duration": 0.0116,
      "velocity": 97,
      "chip": "ym2612"
    },
    {
      "channel": 3,
      "note": 88,
      "start": 69.8478,
      "duration": 0.3586,
      "velocity": 97,
      "chip": "ym2612"
    },
    {
      "channel": 4,
      "note": 74,
      "start": 69.9067,
      "duration": 0.1013,
      "velocity": 106,
      "chip": "ym2612"
    },
    {
      "channel": 0,
      "note": 62,
      "start": 70.0049,
      "duration": 0.1999,
      "velocity": 112,
      "chip": "ym2612"
    },
    {
      "channel": 1,
      "note": 66,
      "start": 70.0054,
      "duration": 0.1998,
      "velocity": 107,
      "chip": "ym2612"
    },
    {
      "channel": 2,
      "note": 69,
      "start": 70.0059,
      "duration": 0.1999,
      "velocity": 107,
      "chip": "ym2612"
    },
    {
      "channel": 4,
      "note": 78,
      "start": 70.0082,
      "duration": 0.0983,
      "velocity": 106,
      "chip": "ym2612"
    },
    {
      "channel": 5,
      "note": 91,
      "start": 70.0087,
      "duration": 0.0983,
      "velocity": 127,
      "chip": "ym2612"
    },
    {
      "channel": 4,
      "note": 78,
      "start": 70.1067,
      "duration": 0.1018,
      "velocity": 106,
      "chip": "ym2612"
    },
    {
      "channel": 5,
      "note": 91,
      "start": 70.1073,
      "duration": 0.262,
      "velocity": 127,
      "chip": "ym2612"
    },
    {
      "channel": 0,
      "note": 50,
      "start": 70.2049,
      "duration": 0.1606,
      "velocity": 112,
      "chip": "ym2612"
    },
    {
      "channel": 1,
      "note": 62,
      "start": 70.2054,
      "duration": 0.1606,
      "velocity": 107,
      "chip": "ym2612"
    },
    {
      "channel": 2,
      "note": 66,
      "start": 70.206,
      "duration": 0.1606,
      "velocity": 107,
      "chip": "ym2612"
    },
    {
      "channel": 3,
      "note": 88,
      "start": 70.2065,
      "duration": 0.003,
      "velocity": 97,
      "chip": "ym2612"
    },
    {
      "channel": 4,
      "note": 81,
      "start": 70.2087,
      "duration": 0.066,
      "velocity": 106,
      "chip": "ym2612"
    },
    {
      "channel": 3,
      "note": 87,
      "start": 70.2095,
      "duration": 0.0081,
      "velocity": 97,
      "chip": "ym2612"
    },
    {
      "channel": 3,
      "note": 87,
      "start": 70.2176,
      "duration": 0.011,
      "velocity": 97,
      "chip": "ym2612"
    },
    {
      "channel": 3,
      "note": 86,
      "start": 70.2286,
      "duration": 0.3386,
      "velocity": 97,
      "chip": "ym2612"
    },
    {
      "channel": 4,
      "note": 81,
      "start": 70.2749,
      "duration": 0.0939,
      "velocity": 106,
      "chip": "ym2612"
    },
    {
      "channel": 0,
      "note": 62,
      "start": 70.3656,
      "duration": 0.1999,
      "velocity": 112,
      "chip": "ym2612"
    },
    {
      "channel": 1,
      "note": 57,
      "start": 70.3662,
      "duration": 0.1999,
      "velocity": 107,
      "chip": "ym2612"
    },
    {
      "channel": 2,
      "note": 62,
      "start": 70.3667,
      "duration": 0.1999,
      "velocity": 107,
      "chip": "ym2612"
    },
    {
      "channel": 4,
      "note": 86,
      "start": 70.3689,
      "duration": 0.0984,
      "velocity": 106,
      "chip": "ym2612"
    },
    {
      "channel": 5,
      "note": 91,
      "start": 70.3695,
      "duration": 0.0984,
      "velocity": 127,
      "chip": "ym2612"
    },
    {
      "channel": 4,
      "note": 86,
      "start": 70.4675,
      "duration": 0.1018,
      "velocity": 106,
      "chip": "ym2612"
    },
    {
      "channel": 5,
      "note": 91,
      "start": 70.4681,
      "duration": 0.2804,
      "velocity": 127,
      "chip": "ym2612"
    },
    {
      "channel": 0,
      "note": 52,
      "start": 70.5657,
      "duration": 0.1789,
      "velocity": 112,
      "chip": "ym2612"
    },
    {
      "channel": 1,
      "note": 59,
      "start": 70.5662,
      "duration": 0.179,
      "velocity": 107,
      "chip": "ym2612"
    },
    {
      "channel": 2,
      "note": 64,
      "start": 70.5668,
      "duration": 0.179,
      "velocity": 107,
      "chip": "ym2612"
    },
    {
      "channel": 3,
      "note": 86,
      "start": 70.5673,
      "duration": 0.0029,
      "velocity": 97,
      "chip": "ym2612"
    },
    {
      "channel": 4,
      "note": 88,
      "start": 70.5695,
      "duration": 0.077,
      "velocity": 106,
      "chip": "ym2612"
    },
    {
      "channel": 3,
      "note": 87,
      "start": 70.5703,
      "duration": 0.0079,
      "velocity": 97,
      "chip": "ym2612"
    },
    {
      "channel": 3,
      "note": 88,
      "start": 70.5781,
      "duration": 0.0107,
      "velocity": 97,
      "chip": "ym2612"
    },
    {
      "channel": 3,
      "note": 89,
      "start": 70.5888,
      "duration": 0.0107,
      "velocity": 97,
      "chip": "ym2612"
    },
    {
      "channel": 3,
      "note": 90,
      "start": 70.5995,
      "duration": 0.0282,
      "velocity": 97,
      "chip": "ym2612"
    },
    {
      "channel": 3,
      "note": 91,
      "start": 70.6277,
      "duration": 0.0195,
      "velocity": 97,
      "chip": "ym2612"
    },
    {
      "channel": 4,
      "note": 88,
      "start": 70.6466,
      "duration": 0.1013,
      "velocity": 106,
      "chip": "ym2612"
    },
    {
      "channel": 3,
      "note": 91,
      "start": 70.6472,
      "duration": 1.0488,
      "velocity": 97,
      "chip": "ym2612"
    },
    {
      "channel": 0,
      "note": 64,
      "start": 70.7448,
      "duration": 0.1999,
      "velocity": 112,
      "chip": "ym2612"
    },
    {
      "channel": 1,
      "note": 64,
      "start": 70.7454,
      "duration": 0.1998,
      "velocity": 107,
      "chip": "ym2612"
    },
    {
      "channel": 2,
      "note": 67,
      "start": 70.7459,
      "duration": 0.1999,
      "velocity": 107,
      "chip": "ym2612"
    },
    {
      "channel": 4,
      "note": 88,
      "start": 70.7481,
      "duration": 0.0983,
      "velocity": 106,
      "chip": "ym2612"
    },
    {
      "channel": 5,
      "note": 91,
      "start": 70.7487,
      "duration": 0.0983,
      "velocity": 127,
      "chip": "ym2612"
    },
    {
      "channel": 4,
      "note": 88,
      "start": 70.8466,
      "duration": 0.1014,
      "velocity": 106,
      "chip": "ym2612"
    },
    {
      "channel": 5,
      "note": 91,
      "start": 70.8472,
      "duration": 0.2681,
      "velocity": 127,
      "chip": "ym2612"
    },
    {
      "channel": 0,
      "note": 52,
      "start": 70.9448,
      "duration": 0.1667,
      "velocity": 112,
      "chip": "ym2612"
    },
    {
      "channel": 1,
      "note": 67,
      "start": 70.9454,
      "duration": 0.1667,
      "velocity": 107,
      "chip": "ym2612"
    },
    {
      "channel": 2,
      "note": 71,
      "start": 70.9459,
      "duration": 0.1666,
      "velocity": 107,
      "chip": "ym2612"
    },
    {
      "channel": 4,
      "note": 88,
      "start": 70.9482,
      "duration": 0.0687,
      "velocity": 106,
      "chip": "ym2612"
    },
    {
      "channel": 4,
      "note": 88,
      "start": 71.0171,
      "duration": 0.0977,
      "velocity": 106,
      "chip": "ym2612"
    },
    {
      "channel": 0,
      "note": 64,
      "start": 71.1116,
      "duration": 0.1998,
      "velocity": 112,
      "chip": "ym2612"
    },
    {
      "channel": 1,
      "note": 71,
      "start": 71.1122,
      "duration": 0.1998,
      "velocity": 107,
      "chip": "ym2612"
    },
    {
      "channel": 2,
      "note": 76,
      "start": 71.1127,
      "duration": 0.1999,
      "velocity": 107,
      "chip": "ym2612"
    },
    {
      "channel": 4,
      "note": 86,
      "start": 71.1149,
      "duration": 0.0983,
      "velocity": 106,
      "chip": "ym2612"
    },
    {
      "channel": 5,
      "note": 91,
      "start": 71.1155,
      "duration": 0.0983,
      "velocity": 127,
      "chip": "ym2612"
    },
    {
      "channel": 4,
      "note": 86,
      "start": 71.2135,
      "duration": 0.0997,
      "velocity": 106,
      "chip": "ym2612"
    },
    {
      "channel": 5,
      "note": 91,
      "start": 71.2141,
      "duration": 0.2826,
      "velocity": 127,
      "chip": "ym2612"
    },
    {
      "channel": 0,
      "note": 52,
      "start": 71.3116,
      "duration": 0.1811,
      "velocity": 112,
      "chip": "ym2612"
    },
    {
      "channel": 1,
      "note": 76,
      "start": 71.3122,
      "duration": 0.1811,
      "velocity": 107,
      "chip": "ym2612"
    },
    {
      "channel": 2,
      "note": 79,
      "start": 71.3127,
      "duration": 0.1812,
      "velocity": 107,
      "chip": "ym2612"
    },
    {
      "channel": 4,
      "note": 86,
      "start": 71.3134,
      "duration": 0.0796,
      "velocity": 106,
      "chip": "ym2612"
    },
    {
      "channel": 4,
      "note": 86,
      "start": 71.3932,
      "duration": 0.1029,
      "velocity": 106,
      "chip": "ym2612"
    },
    {
      "channel": 0,
      "note": 64,
      "start": 71.4929,
      "duration": 0.1999,
      "velocity": 112,
      "chip": "ym2612"
    },
    {
      "channel": 1,
      "note": 71,
      "start": 71.4935,
      "duration": 0.1999,
      "velocity": 107,
      "chip": "ym2612"
    },
    {
      "channel": 2,
      "note": 76,
      "start": 71.494,
      "duration": 0.1999,
      "velocity": 107,
      "chip": "ym2612"
    },
    {
      "channel": 4,
      "note": 83,
      "start": 71.4962,
      "duration": 0.0983,
      "velocity": 106,
      "chip": "ym2612"
    },
    {
      "channel": 5,
      "note": 91,
      "start": 71.4968,
      "duration": 0.0983,
      "velocity": 127,
      "chip": "ym2612"
    },
    {
      "channel": 4,
      "note": 83,
      "start": 71.5948,
      "duration": 0.1018,
      "velocity": 106,
      "chip": "ym2612"
    },
    {
      "channel": 5,
      "note": 91,
      "start": 71.5954,
      "duration": 0.2729,
      "velocity": 127,
      "chip": "ym2612"
    },
    {
      "channel": 0,
      "note": 52,
      "start": 71.693,
      "duration": 0.1708,
      "velocity": 112,
      "chip": "ym2612"
    },
    {
      "channel": 1,
      "note": 67,
      "start": 71.6935,
      "duration": 0.1709,
      "velocity": 107,
      "chip": "ym2612"
    },
    {
      "channel": 2,
      "note": 71,
      "start": 71.6941,
      "duration": 0.1708,
      "velocity": 107,
      "chip": "ym2612"
    },
    {
      "channel": 3,
      "note": 91,
      "start": 71.6962,
      "duration": 0.0014,
      "velocity": 97,
      "chip": "ym2612"
    },
    {
      "channel": 4,
      "note": 83,
      "start": 71.6968,
      "duration": 0.072,
      "velocity": 106,
      "chip": "ym2612"
    },
    {
      "channel": 3,
      "note": 92,
      "start": 71.6976,
      "duration": 0.0086,
      "velocity": 97,
      "chip": "ym2612"
    },
    {
      "channel": 3,
      "note": 93,
      "start": 71.7062,
      "duration": 0.1593,
      "velocity": 97,
      "chip": "ym2612"
    },
    {
      "channel": 4,
      "note": 83,
      "start": 71.769,
      "duration": 0.0987,
      "velocity": 106,
      "chip": "ym2612"
    },
    {
      "channel": 0,
      "note": 64,
      "start": 71.864,
      "duration": 0.1998,
      "velocity": 112,
      "chip": "ym2612"
    },
    {
      "channel": 1,
      "note": 64,
      "start": 71.8645,
      "duration": 0.1999,
      "velocity": 107,
      "chip": "ym2612"
    },
    {
      "channel": 2,
      "note": 67,
      "start": 71.8651,
      "duration": 0.1998,
      "velocity": 107,
      "chip": "ym2612"
    },
    {
      "channel": 3,
      "note": 93,
      "start": 71.8657,
      "duration": 0.0032,
      "velocity": 97,
      "chip": "ym2612"
    },
    {
      "channel": 4,
      "note": 79,
      "start": 71.8678,
      "duration": 0.0979,
      "velocity": 106,
      "chip": "ym2612"
    },
    {
      "channel": 5,
      "note": 91,
      "start": 71.8683,
      "duration": 0.0979,
      "velocity": 127,
      "chip": "ym2612"
    },
    {
      "channel": 3,
      "note": 92,
      "start": 71.8688,
      "duration": 0.0113,
      "velocity": 97,
      "chip": "ym2612"
    },
    {
      "channel": 3,
      "note": 91,
      "start": 71.8802,
      "duration": 0.1853,
      "velocity": 97,
      "chip": "ym2612"
    },
    {
      "channel": 4,
      "note": 79,
      "start": 71.9658,
      "duration": 0.1018,
      "velocity": 106,
      "chip": "ym2612"
    },
    {
      "channel": 5,
      "note": 91,
      "start": 71.9664,
      "duration": 0.2827,
      "velocity": 127,
      "chip": "ym2612"
    },
    {
      "channel": 0,
      "note": 48,
      "start": 72.064,
      "duration": 0.1827,
      "velocity": 112,
      "chip": "ym2612"
    },
    {
      "channel": 1,
      "note": 60,
      "start": 72.0645,
      "duration": 0.1828,
      "velocity": 107,
      "chip": "ym2612"
    },
    {
      "channel": 2,
      "note": 55,
      "start": 72.0651,
      "duration": 0.1828,
      "velocity": 107,
      "chip": "ym2612"
    },
    {
      "channel": 3,
      "note": 91,
      "start": 72.0657,
      "duration": 0.003,
      "velocity": 97,
      "chip": "ym2612"
    },
    {
      "channel": 4,
      "note": 81,
      "start": 72.0678,
      "duration": 0.0808,
      "velocity": 106,
      "chip": "ym2612"
    },
    {
      "channel": 3,
      "note": 90,
      "start": 72.0687,
      "duration": 0.0075,
      "velocity": 97,
      "chip": "ym2612"
    },
    {
      "channel": 3,
      "note": 89,
      "start": 72.0761,
      "duration": 0.0127,
      "velocity": 97,
      "chip": "ym2612"
    },
    {
      "channel": 3,
      "note": 88,
      "start": 72.0888,
      "duration": 0.0126,
      "velocity": 97,
      "chip": "ym2612"
    },
    {
      "channel": 3,
      "note": 87,
      "start": 72.1013,
      "duration": 0.0285,
      "velocity": 97,
      "chip": "ym2612"
    },
    {
      "channel": 3,
      "note": 86,
      "start": 72.1298,
      "duration": 0.0195,
      "velocity": 97,
      "chip": "ym2612"
    },
    {
      "channel": 4,
      "note": 81,
      "start": 72.1488,
      "duration": 0.0997,
      "velocity": 106,
      "chip": "ym2612"
    },
    {
      "channel": 3,
      "note": 86,
      "start": 72.1494,
      "duration": 0.8583,
      "velocity": 97,
      "chip": "ym2612"
    },
    {
      "channel": 0,
      "note": 60,
      "start": 72.2469,
      "duration": 0.1999,
      "velocity": 112,
      "chip": "ym2612"
    },
    {
      "channel": 1,
      "note": 64,
      "start": 72.2475,
      "duration": 0.1998,
      "velocity": 107,
      "chip": "ym2612"
    },
    {
      "channel": 2,
      "note": 60,
      "start": 72.248,
      "duration": 0.1999,
      "velocity": 107,
      "chip": "ym2612"
    },
    {
      "channel": 4,
      "note": 81,
      "start": 72.2487,
      "duration": 0.0983,
      "velocity": 106,
      "chip": "ym2612"
    },
    {
      "channel": 5,
      "note": 91,
      "start": 72.2492,
      "duration": 0.0983,
      "velocity": 127,
      "chip": "ym2612"
    },
    {
      "channel": 4,
      "note": 81,
      "start": 72.3472,
      "duration": 0.1046,
      "velocity": 106,
      "chip": "ym2612"
    },
    {
      "channel": 5,
      "note": 91,
      "start": 72.3478,
      "duration": 0.2739,
      "velocity": 127,
      "chip": "ym2612"
    },
    {
      "channel": 0,
      "note": 48,
      "start": 72.4469,
      "duration": 0.1725,
      "velocity": 112,
      "chip": "ym2612"
    },
    {
      "channel": 1,
      "note": 67,
      "start": 72.4475,
      "duration": 0.1725,
      "velocity": 107,
      "chip": "ym2612"
    },
    {
      "channel": 2,
      "note": 64,
      "start": 72.4481,
      "duration": 0.1725,
      "velocity": 107,
      "chip": "ym2612"
    },
    {
      "channel": 4,
      "note": 84,
      "start": 72.4519,
      "duration": 0.0742,
      "velocity": 106,
      "chip": "ym2612"
    },
    {
      "channel": 4,
      "note": 84,
      "start": 72.5263,
      "duration": 0.0949,
      "velocity": 106,
      "chip": "ym2612"
    },
    {
      "channel": 0,
      "note": 60,
      "start": 72.6196,
      "duration": 0.1998,
      "velocity": 112,
      "chip": "ym2612"
    },
    {
      "channel": 1,
      "note": 72,
      "start": 72.6202,
      "duration": 0.1998,
      "velocity": 107,
      "chip": "ym2612"
    },
    {
      "channel": 2,
      "note": 67,
      "start": 72.6207,
      "duration": 0.1999,
      "velocity": 107,
      "chip": "ym2612"
    },
    {
      "channel": 4,
      "note": 84,
      "start": 72.6213,
      "duration": 0.0983,
      "velocity": 106,
      "chip": "ym2612"
    },
    {
      "channel": 5,
      "note": 91,
      "start": 72.6219,
      "duration": 0.0983,
      "velocity": 127,
      "chip": "ym2612"
    },
    {
      "channel": 4,
      "note": 84,
      "start": 72.7199,
      "duration": 0.1029,
      "velocity": 106,
      "chip": "ym2612"
    },
    {
      "channel": 5,
      "note": 91,
      "start": 72.7205,
      "duration": 0.2883,
      "velocity": 127,
      "chip": "ym2612"
    },
    {
      "channel": 0,
      "note": 48,
      "start": 72.8196,
      "duration": 0.1848,
      "velocity": 112,
      "chip": "ym2612"
    },
    {
      "channel": 1,
      "note": 76,
      "start": 72.8202,
      "duration": 0.1848,
      "velocity": 107,
      "chip": "ym2612"
    },
    {
      "channel": 2,
      "note": 72,
      "start": 72.8207,
      "duration": 0.1848,
      "velocity": 107,
      "chip": "ym2612"
    },
    {
      "channel": 4,
      "note": 88,
      "start": 72.8229,
      "duration": 0.0833,
      "velocity": 106,
      "chip": "ym2612"
    },
    {
      "channel": 4,
      "note": 88,
      "start": 72.9064,
      "duration": 0.1018,
      "velocity": 106,
      "chip": "ym2612"
    },
    {
      "channel": 0,
      "note": 60,
      "start": 73.0046,
      "duration": 0.1998,
      "velocity": 112,
      "chip": "ym2612"
    },
    {
      "channel": 1,
      "note": 72,
      "start": 73.0051,
      "duration": 0.1998,
      "velocity": 107,
      "chip": "ym2612"
    },
    {
      "channel": 2,
      "note": 67,
      "start": 73.0057,
      "duration": 0.1998,
      "velocity": 107,
      "chip": "ym2612"
    },
    {
      "channel": 3,
      "note": 86,
      "start": 73.0078,
      "duration": 0.0017,
      "velocity": 97,
      "chip": "ym2612"
    },
    {
      "channel": 4,
      "note": 88,
      "start": 73.0083,
      "duration": 0.0963,
      "velocity": 106,
      "chip": "ym2612"
    },
    {
      "channel": 5,
      "note": 91,
      "start": 73.0089,
      "duration": 0.0963,
      "velocity": 127,
      "chip": "ym2612"
    },
    {
      "channel": 3,
      "note": 85,
      "start": 73.0094,
      "duration": 0.0113,
      "velocity": 97,
      "chip": "ym2612"
    },
    {
      "channel": 3,
      "note": 84,
      "start": 73.0207,
      "duration": 0.1853,
      "velocity": 97,
      "chip": "ym2612"
    },
    {
      "channel": 4,
      "note": 88,
      "start": 73.1048,
      "duration": 0.1033,
      "velocity": 74,
      "chip": "ym2612"
    },
    {
      "channel": 5,
      "note": 91,
      "start": 73.1054,
      "duration": 0.6054,
      "velocity": 127,
      "chip": "ym2612"
    },
    {
      "channel": 0,
      "note": 48,
      "start": 73.2045,
      "duration": 0.1729,
      "velocity": 112,
      "chip": "ym2612"
    },
    {
      "channel": 1,
      "note": 67,
      "start": 73.2051,
      "duration": 0.1729,
      "velocity": 107,
      "chip": "ym2612"
    },
    {
      "channel": 2,
      "note": 64,
      "start": 73.2057,
      "duration": 0.1729,
      "velocity": 107,
      "chip": "ym2612"
    },
    {
      "channel": 3,
      "note": 84,
      "start": 73.2062,
      "duration": 0.0031,
      "velocity": 97,
      "chip": "ym2612"
    },
    {
      "channel": 4,
      "note": 83,
      "start": 73.2083,
      "duration": 0.0738,
      "velocity": 74,
      "chip": "ym2612"
    },
    {
      "channel": 3,
      "note": 83,
      "start": 73.2092,
      "duration": 0.1699,
      "velocity": 97,
      "chip": "ym2612"
    },
    {
      "channel": 4,
      "note": 79,
      "start": 73.2823,
      "duration": 0.0973,
      "velocity": 74,
      "chip": "ym2612"
    },
    {
      "channel": 0,
      "note": 60,
      "start": 73.3776,
      "duration": 0.1457,
      "velocity": 112,
      "chip": "ym2612"
    },
    {
      "channel": 1,
      "note": 64,
      "start": 73.3781,
      "duration": 0.1457,
      "velocity": 107,
      "chip": "ym2612"
    },
    {
      "channel": 2,
      "note": 60,
      "start": 73.3787,
      "duration": 0.1457,
      "velocity": 107,
      "chip": "ym2612"
    },
    {
      "channel": 3,
      "note": 83,
      "start": 73.3792,
      "duration": 0.0015,
      "velocity": 97,
      "chip": "ym2612"
    },
    {
      "channel": 4,
      "note": 74,
      "start": 73.3798,
      "duration": 0.0735,
      "velocity": 74,
      "chip": "ym2612"
    },
    {
      "channel": 3,
      "note": 84,
      "start": 73.3807,
      "duration": 0.1457,
      "velocity": 97,
      "chip": "ym2612"
    },
    {
      "channel": 4,
      "note": 71,
      "start": 73.4535,
      "duration": 0.0719,
      "velocity": 74,
      "chip": "ym2612"
    },
    {
      "channel": 0,
      "note": 43,
      "start": 73.5234,
      "duration": 0.1834,
      "velocity": 112,
      "chip": "ym2612"
    },
    {
      "channel": 1,
      "note": 55,
      "start": 73.524,
      "duration": 0.1834,
      "velocity": 107,
      "chip": "ym2612"
    },
    {
      "channel": 2,
      "note": 59,
      "start": 73.5246,
      "duration": 0.1833,
      "velocity": 107,
      "chip": "ym2612"
    },
    {
      "channel": 4,
      "note": 67,
      "start": 73.5255,
      "duration": 0.1846,
      "velocity": 74,
      "chip": "ym2612"
    },
    {
      "channel": 3,
      "note": 85,
      "start": 73.5264,
      "duration": 0.0115,
      "velocity": 97,
      "chip": "ym2612"
    },
    {
      "channel": 3,
      "note": 86,
      "start": 73.5378,
      "duration": 1.8812,
      "velocity": 97,
      "chip": "ym2612"
    },
    {
      "channel": 0,
      "note": 55,
      "start": 73.707,
      "duration": 0.1999,
      "velocity": 112,
      "chip": "ym2612"
    },
    {
      "channel": 1,
      "note": 59,
      "start": 73.7076,
      "duration": 0.1999,
      "velocity": 107,
      "chip": "ym2612"
    },
    {
      "channel": 2,
      "note": 62,
      "start": 73.7081,
      "duration": 0.1999,
      "velocity": 107,
      "chip": "ym2612"
    },
    {
      "channel": 4,
      "note": 67,
      "start": 73.7103,
      "duration": 0.2015,
      "velocity": 74,
      "chip": "ym2612"
    },
    {
      "channel": 5,
      "note": 91,
      "start": 73.711,
      "duration": 0.0962,
      "velocity": 127,
      "chip": "ym2612"
    },
    {
      "channel": 5,
      "note": 91,
      "start": 73.8073,
      "duration": 0.276,
      "velocity": 127,
      "chip": "ym2612"
    },
    {
      "channel": 0,
      "note": 43,
      "start": 73.9071,
      "duration": 0.1723,
      "velocity": 112,
      "chip": "ym2612"
    },
    {
      "channel": 1,
      "note": 62,
      "start": 73.9076,
      "duration": 0.1724,
      "velocity": 107,
      "chip": "ym2612"
    },
    {
      "channel": 2,
      "note": 67,
      "start": 73.9082,
      "duration": 0.1724,
      "velocity": 107,
      "chip": "ym2612"
    },
    {
      "channel": 4,
      "note": 79,
      "start": 73.912,
      "duration": 0.1707,
      "velocity": 74,
      "chip": "ym2612"
    },
    {
      "channel": 0,
      "note": 55,
      "start": 74.0796,
      "duration": 0.1998,
      "velocity": 112,
      "chip": "ym2612"
    },
    {
      "channel": 1,
      "note": 67,
      "start": 74.0802,
      "duration": 0.1998,
      "velocity": 107,
      "chip": "ym2612"
    },
    {
      "channel": 2,
      "note": 71,
      "start": 74.0807,
      "duration": 0.1999,
      "velocity": 107,
      "chip": "ym2612"
    },
    {
      "channel": 4,
      "note": 79,
      "start": 74.0829,
      "duration": 0.0983,
      "velocity": 74,
      "chip": "ym2612"
    },
    {
      "channel": 5,
      "note": 91,
      "start": 74.0835,
      "duration": 0.0983,
      "velocity": 127,
      "chip": "ym2612"
    },
    {
      "channel": 4,
      "note": 74,
      "start": 74.1815,
      "duration": 0.0997,
      "velocity": 74,
      "chip": "ym2612"
    },
    {
      "channel": 5,
      "note": 91,
      "start": 74.182,
      "duration": 0.2824,
      "velocity": 127,
      "chip": "ym2612"
    },
    {
      "channel": 0,
      "note": 43,
      "start": 74.2796,
      "duration": 0.181,
      "velocity": 112,
      "chip": "ym2612"
    },
    {
      "channel": 1,
      "note": 71,
      "start": 74.2802,
      "duration": 0.181,
      "velocity": 107,
      "chip": "ym2612"
    },
    {
      "channel": 2,
      "note": 74,
      "start": 74.2807,
      "duration": 0.181,
      "velocity": 107,
      "chip": "ym2612"
    },
    {
      "channel": 4,
      "note": 76,
      "start": 74.2814,
      "duration": 0.081,
      "velocity": 74,
      "chip": "ym2612"
    },
    {
      "channel": 4,
      "note": 74,
      "start": 74.3626,
      "duration": 0.1013,
      "velocity": 74,
      "chip": "ym2612"
    },
    {
      "channel": 0,
      "note": 55,
      "start": 74.4607,
      "duration": 0.1998,
      "velocity": 112,
      "chip": "ym2612"
    },
    {
      "channel": 1,
      "note": 67,
      "start": 74.4613,
      "duration": 0.1998,
      "velocity": 107,
      "chip": "ym2612"
    },
    {
      "channel": 2,
      "note": 71,
      "start": 74.4618,
      "duration": 0.1999,
      "velocity": 107,
      "chip": "ym2612"
    },
    {
      "channel": 4,
      "note": 74,
      "start": 74.4641,
      "duration": 0.1983,
      "velocity": 74,
      "chip": "ym2612"
    },
    {
      "channel": 5,
      "note": 91,
      "start": 74.4646,
      "duration": 0.0963,
      "velocity": 127,
      "chip": "ym2612"
    },
    {
      "channel": 5,
      "note": 91,
      "start": 74.5611,
      "duration": 0.2722,
      "velocity": 127,
      "chip": "ym2612"
    },
    {
      "channel": 0,
      "note": 43,
      "start": 74.6607,
      "duration": 0.1702,
      "velocity": 112,
      "chip": "ym2612"
    },
    {
      "channel": 1,
      "note": 62,
      "start": 74.6613,
      "duration": 0.1702,
      "velocity": 107,
      "chip": "ym2612"
    },
    {
      "channel": 2,
      "note": 67,
      "start": 74.6618,
      "duration": 0.1702,
      "velocity": 107,
      "chip": "ym2612"
    },
    {
      "channel": 4,
      "note": 70,
      "start": 74.6625,
      "duration": 0.0732,
      "velocity": 74,
      "chip": "ym2612"
    },
    {
      "channel": 4,
      "note": 71,
      "start": 74.7359,
      "duration": 0.0968,
      "velocity": 74,
      "chip": "ym2612"
    },
    {
      "channel": 0,
      "note": 55,
      "start": 74.8311,
      "duration": 0.1998,
      "velocity": 112,
      "chip": "ym2612"
    },
    {
      "channel": 1,
      "note": 59,
      "start": 74.8317,
      "duration": 0.1998,
      "velocity": 107,
      "chip": "ym2612"
    },
    {
      "channel": 2,
      "note": 62,
      "start": 74.8322,
      "duration": 0.1999,
      "velocity": 107,
      "chip": "ym2612"
    },
    {
      "channel": 4,
      "note": 74,
      "start": 74.8329,
      "duration": 0.0999,
      "velocity": 74,
      "chip": "ym2612"
    },
    {
      "channel": 5,
      "note": 91,
      "start": 74.8334,
      "duration": 0.0999,
      "velocity": 127,
      "chip": "ym2612"
    },
    {
      "channel": 4,
      "note": 71,
      "start": 74.9329,
      "duration": 0.1013,
      "velocity": 74,
      "chip": "ym2612"
    },
    {
      "channel": 5,
      "note": 91,
      "start": 74.9335,
      "duration": 0.286,
      "velocity": 127,
      "chip": "ym2612"
    },
    {
      "channel": 0,
      "note": 50,
      "start": 75.0311,
      "duration": 0.1846,
      "velocity": 112,
      "chip": "ym2612"
    },
    {
      "channel": 1,
      "note": 54,
      "start": 75.0317,
      "duration": 0.1846,
      "velocity": 107,
      "chip": "ym2612"
    },
    {
      "channel": 2,
      "note": 57,
      "start": 75.0322,
      "duration": 0.1846,
      "velocity": 107,
      "chip": "ym2612"
    },
    {
      "channel": 4,
      "note": 62,
      "start": 75.0344,
      "duration": 0.1846,
      "velocity": 74,
      "chip": "ym2612"
    },
    {
      "channel": 0,
      "note": 62,
      "start": 75.2159,
      "duration": 0.1999,
      "velocity": 112,
      "chip": "ym2612"
    },
    {
      "channel": 1,
      "note": 57,
      "start": 75.2164,
      "duration": 0.1999,
      "velocity": 107,
      "chip": "ym2612"
    },
    {
      "channel": 2,
      "note": 62,
      "start": 75.2169,
      "duration": 0.1999,
      "velocity": 107,
      "chip": "ym2612"
    },
    {
      "channel": 4,
      "note": 62,
      "start": 75.2192,
      "duration": 0.2019,
      "velocity": 74,
      "chip": "ym2612"
    },
    {
      "channel": 5,
      "note": 91,
      "start": 75.2197,
      "duration": 0.0963,
      "velocity": 127,
      "chip": "ym2612"
    },
    {
      "channel": 5,
      "note": 91,
      "start": 75.3162,
      "duration": 0.2751,
      "velocity": 127,
      "chip": "ym2612"
    },
    {
      "channel": 0,
      "note": 50,
      "start": 75.4159,
      "duration": 0.1715,
      "velocity": 112,
      "chip": "ym2612"
    },
    {
      "channel": 1,
      "note": 62,
      "start": 75.4164,
      "duration": 0.1716,
      "velocity": 107,
      "chip": "ym2612"
    },
    {
      "channel": 2,
      "note": 66,
      "start": 75.417,
      "duration": 0.1715,
      "velocity": 107,
      "chip": "ym2612"
    },
    {
      "channel": 3,
      "note": 86,
      "start": 75.4191,
      "duration": 0.003,
      "velocity": 97,
      "chip": "ym2612"
    },
    {
      "channel": 4,
      "note": 69,
      "start": 75.4213,
      "duration": 0.1695,
      "velocity": 74,
      "chip": "ym2612"
    },
    {
      "channel": 3,
      "note": 85,
      "start": 75.4221,
      "duration": 0.0073,
      "velocity": 97,
      "chip": "ym2612"
    },
    {
      "channel": 3,
      "note": 85,
      "start": 75.4294,
      "duration": 0.011,
      "velocity": 97,
      "chip": "ym2612"
    },
    {
      "channel": 3,
      "note": 84,
      "start": 75.4405,
      "duration": 0.3487,
      "velocity": 97,
      "chip": "ym2612"
    },
    {
      "channel": 0,
      "note": 62,
      "start": 75.5876,
      "duration": 0.1999,
      "velocity": 112,
      "chip": "ym2612"
    },
    {
      "channel": 1,
      "note": 66,
      "start": 75.5882,
      "duration": 0.1998,
      "velocity": 107,
      "chip": "ym2612"
    },
    {
      "channel": 2,
      "note": 69,
      "start": 75.5887,
      "duration": 0.1999,
      "velocity": 107,
      "chip": "ym2612"
    },
    {
      "channel": 4,
      "note": 69,
      "start": 75.5909,
      "duration": 0.0983,
      "velocity": 74,
      "chip": "ym2612"
    },
    {
      "channel": 5,
      "note": 91,
      "start": 75.5915,
      "duration": 0.0983,
      "velocity": 127,
      "chip": "ym2612"
    },
    {
      "channel": 4,
      "note": 66,
      "start": 75.6895,
      "duration": 0.1002,
      "velocity": 74,
      "chip": "ym2612"
    },
    {
      "channel": 5,
      "note": 91,
      "start": 75.69,
      "duration": 0.2888,
      "velocity": 127,
      "chip": "ym2612"
    },
    {
      "channel": 0,
      "note": 50,
      "start": 75.7876,
      "duration": 0.1868,
      "velocity": 112,
      "chip": "ym2612"
    },
    {
      "channel": 1,
      "note": 69,
      "start": 75.7882,
      "duration": 0.1868,
      "velocity": 107,
      "chip": "ym2612"
    },
    {
      "channel": 2,
      "note": 74,
      "start": 75.7888,
      "duration": 0.1867,
      "velocity": 107,
      "chip": "ym2612"
    },
    {
      "channel": 3,
      "note": 84,
      "start": 75.7893,
      "duration": 0.0015,
      "velocity": 97,
      "chip": "ym2612"
    },
    {
      "channel": 4,
      "note": 69,
      "start": 75.7899,
      "duration": 0.0863,
      "velocity": 74,
      "chip": "ym2612"
    },
    {
      "channel": 3,
      "note": 83,
      "start": 75.7907,
      "duration": 0.0097,
      "velocity": 97,
      "chip": "ym2612"
    },
    {
      "channel": 3,
      "note": 83,
      "start": 75.8004,
      "duration": 0.1756,
      "velocity": 97,
      "chip": "ym2612"
    },
    {
      "channel": 4,
      "note": 66,
      "start": 75.8764,
      "duration": 0.1018,
      "velocity": 74,
      "chip": "ym2612"
    },
    {
      "channel": 0,
      "note": 62,
      "start": 75.9746,
      "duration": 0.1998,
      "velocity": 112,
      "chip": "ym2612"
    },
    {
      "channel": 1,
      "note": 66,
      "start": 75.9751,
      "duration": 0.1999,
      "velocity": 107,
      "chip": "ym2612"
    },
    {
      "channel": 2,
      "note": 69,
      "start": 75.9757,
      "duration": 0.1998,
      "velocity": 107,
      "chip": "ym2612"
    },
    {
      "channel": 3,
      "note": 83,
      "start": 75.9762,
      "duration": 0.0032,
      "velocity": 97,
      "chip": "ym2612"
    },
    {
      "channel": 4,
      "note": 66,
      "start": 75.9783,
      "duration": 0.1983,
      "velocity": 74,
      "chip": "ym2612"
    },
    {
      "channel": 5,
      "note": 91,
      "start": 75.9789,
      "duration": 0.0958,
      "velocity": 127,
      "chip": "ym2612"
    },
    {
      "channel": 3,
      "note": 82,
      "start": 75.9794,
      "duration": 0.0113,
      "velocity": 97,
      "chip": "ym2612"
    },
    {
      "channel": 3,
      "note": 81,
      "start": 75.9907,
      "duration": 0.0167,
      "velocity": 97,
      "chip": "ym2612"
    },
    {
      "channel": 3,
      "note": 81,
      "start": 76.0074,
      "duration": 0.1686,
      "velocity": 97,
      "chip": "ym2612"
    },
    {
      "channel": 5,
      "note": 91,
      "start": 76.0748,
      "duration": 0.2732,
      "velocity": 127,
      "chip": "ym2612"
    },
    {
      "channel": 0,
      "note": 50,
      "start": 76.1746,
      "duration": 0.1706,
      "velocity": 112,
      "chip": "ym2612"
    },
    {
      "channel": 1,
      "note": 62,
      "start": 76.1751,
      "duration": 0.1706,
      "velocity": 107,
      "chip": "ym2612"
    },
    {
      "channel": 2,
      "note": 66,
      "start": 76.1757,
      "duration": 0.1706,
      "velocity": 107,
      "chip": "ym2612"
    },
    {
      "channel": 3,
      "note": 81,
      "start": 76.1762,
      "duration": 0.0015,
      "velocity": 97,
      "chip": "ym2612"
    },
    {
      "channel": 4,
      "note": 74,
      "start": 76.1768,
      "duration": 0.1706,
      "velocity": 74,
      "chip": "ym2612"
    },
    {
      "channel": 3,
      "note": 80,
      "start": 76.1777,
      "duration": 0.0087,
      "velocity": 97,
      "chip": "ym2612"
    },
    {
      "channel": 3,
      "note": 80,
      "start": 76.1864,
      "duration": 0.0123,
      "velocity": 97,
      "chip": "ym2612"
    },
    {
      "channel": 3,
      "note": 79,
      "start": 76.1986,
      "duration": 0.0141,
      "velocity": 97,
      "chip": "ym2612"
    },
    {
      "channel": 3,
      "note": 79,
      "start": 76.2128,
      "duration": 0.1341,
      "velocity": 97,
      "chip": "ym2612"
    },
    {
      "channel": 0,
      "note": 62,
      "start": 76.3453,
      "duration": 0.1999,
      "velocity": 112,
      "chip": "ym2612"
    },
    {
      "channel": 1,
      "note": 57,
      "start": 76.3459,
      "duration": 0.2,
      "velocity": 107,
      "chip": "ym2612"
    },
    {
      "channel": 2,
      "note": 62,
      "start": 76.3465,
      "duration": 0.2,
      "velocity": 107,
      "chip": "ym2612"
    },
    {
      "channel": 3,
      "note": 79,
      "start": 76.347,
      "duration": 0.0017,
      "velocity": 97,
      "chip": "ym2612"
    },
    {
      "channel": 4,
      "note": 69,
      "start": 76.3476,
      "duration": 0.2013,
      "velocity": 99,
      "chip": "ym2612"
    },
    {
      "channel": 5,
      "note": 91,
      "start": 76.3482,
      "duration": 0.0974,
      "velocity": 127,
      "chip": "ym2612"
    },
    {
      "channel": 3,
      "note": 79,
      "start": 76.3486,
      "duration": 0.0129,
      "velocity": 97,
      "chip": "ym2612"
    },
    {
      "channel": 3,
      "note": 80,
      "start": 76.3615,
      "duration": 0.0167,
      "velocity": 97,
      "chip": "ym2612"
    },
    {
      "channel": 3,
      "note": 81,
      "start": 76.3782,
      "duration": 0.0167,
      "velocity": 97,
      "chip": "ym2612"
    },
    {
      "channel": 3,
      "note": 81,
      "start": 76.3949,
      "duration": 0.155,
      "velocity": 97,
      "chip": "ym2612"
    },
    {
      "channel": 5,
      "note": 91,
      "start": 76.4458,
      "duration": 0.2875,
      "velocity": 127,
      "chip": "ym2612"
    },
    {
      "channel": 0,
      "note": 43,
      "start": 76.5454,
      "duration": 0.1859,
      "velocity": 112,
      "chip": "ym2612"
    },
    {
      "channel": 1,
      "note": 55,
      "start": 76.546,
      "duration": 0.1859,
      "velocity": 107,
      "chip": "ym2612"
    },
    {
      "channel": 2,
      "note": 59,
      "start": 76.5466,
      "duration": 0.1859,
      "velocity": 107,
      "chip": "ym2612"
    },
    {
      "channel": 4,
      "note": 83,
      "start": 76.5491,
      "duration": 0.9354,
      "velocity": 99,
      "chip": "ym2612"
    },
    {
      "channel": 3,
      "note": 82,
      "start": 76.5499,
      "duration": 0.009,
      "velocity": 97,
      "chip": "ym2612"
    },
    {
      "channel": 3,
      "note": 83,
      "start": 76.5589,
      "duration": 0.0143,
      "velocity": 97,
      "chip": "ym2612"
    },
    {
      "channel": 3,
      "note": 83,
      "start": 76.5732,
      "duration": 1.481,
      "velocity": 97,
      "chip": "ym2612"
    },
    {
      "channel": 0,
      "note": 55,
      "start": 76.7315,
      "duration": 0.1998,
      "velocity": 112,
      "chip": "ym2612"
    },
    {
      "channel": 1,
      "note": 59,
      "start": 76.7321,
      "duration": 0.1998,
      "velocity": 107,
      "chip": "ym2612"
    },
    {
      "channel": 2,
      "note": 62,
      "start": 76.7326,
      "duration": 0.1999,
      "velocity": 107,
      "chip": "ym2612"
    },
    {
      "channel": 5,
      "note": 91,
      "start": 76.7334,
      "duration": 0.0983,
      "velocity": 127,
      "chip": "ym2612"
    },
    {
      "channel": 5,
      "note": 91,
      "start": 76.8318,
      "duration": 0.2665,
      "velocity": 127,
      "chip": "ym2612"
    },
    {
      "channel": 0,
      "note": 43,
      "start": 76.9315,
      "duration": 0.165,
      "velocity": 112,
      "chip": "ym2612"
    },
    {
      "channel": 1,
      "note": 62,
      "start": 76.9321,
      "duration": 0.1649,
      "velocity": 107,
      "chip": "ym2612"
    },
    {
      "channel": 2,
      "note": 67,
      "start": 76.9326,
      "duration": 0.165,
      "velocity": 107,
      "chip": "ym2612"
    },
    {
      "channel": 0,
      "note": 55,
      "start": 77.0967,
      "duration": 0.1999,
      "velocity": 112,
      "chip": "ym2612"
    },
    {
      "channel": 1,
      "note": 67,
      "start": 77.0973,
      "duration": 0.1998,
      "velocity": 107,
      "chip": "ym2612"
    },
    {
      "channel": 2,
      "note": 71,
      "start": 77.0978,
      "duration": 0.1998,
      "velocity": 107,
      "chip": "ym2612"
    },
    {
      "channel": 5,
      "note": 91,
      "start": 77.0985,
      "duration": 0.0983,
      "velocity": 127,
      "chip": "ym2612"
    },
    {
      "channel": 5,
      "note": 91,
      "start": 77.197,
      "duration": 0.2881,
      "velocity": 127,
      "chip": "ym2612"
    },
    {
      "channel": 0,
      "note": 43,
      "start": 77.2967,
      "duration": 0.1861,
      "velocity": 112,
      "chip": "ym2612"
    },
    {
      "channel": 1,
      "note": 71,
      "start": 77.2973,
      "duration": 0.1861,
      "velocity": 107,
      "chip": "ym2612"
    },
    {
      "channel": 2,
      "note": 74,
      "start": 77.2978,
      "duration": 0.1861,
      "velocity": 107,
      "chip": "ym2612"
    },
    {
      "channel": 0,
      "note": 55,
      "start": 77.483,
      "duration": 0.1998,
      "velocity": 112,
      "chip": "ym2612"
    },
    {
      "channel": 1,
      "note": 67,
      "start": 77.4835,
      "duration": 0.1998,
      "velocity": 107,
      "chip": "ym2612"
    },
    {
      "channel": 2,
      "note": 71,
      "start": 77.4841,
      "duration": 0.1999,
      "velocity": 107,
      "chip": "ym2612"
    },
    {
      "channel": 4,
      "note": 81,
      "start": 77.4847,
      "duration": 0.1998,
      "velocity": 99,
      "chip": "ym2612"
    },
    {
      "channel": 5,
      "note": 91,
      "start": 77.4853,
      "duration": 0.0978,
      "velocity": 127,
      "chip": "ym2612"
    },
    {
      "channel": 5,
      "note": 91,
      "start": 77.5833,
      "duration": 0.2703,
      "velocity": 127,
      "chip": "ym2612"
    },
    {
      "channel": 0,
      "note": 43,
      "start": 77.683,
      "duration": 0.1683,
      "velocity": 112,
      "chip": "ym2612"
    },
    {
      "channel": 1,
      "note": 62,
      "start": 77.6835,
      "duration": 0.1683,
      "velocity": 107,
      "chip": "ym2612"
    },
    {
      "channel": 2,
      "note": 67,
      "start": 77.6841,
      "duration": 0.1683,
      "velocity": 107,
      "chip": "ym2612"
    },
    {
      "channel": 4,
      "note": 79,
      "start": 77.6847,
      "duration": 0.0707,
      "velocity": 99,
      "chip": "ym2612"
    },
    {
      "channel": 4,
      "note": 81,
      "start": 77.7555,
      "duration": 0.0975,
      "velocity": 99,
      "chip": "ym2612"
    },
    {
      "channel": 0,
      "note": 55,
      "start": 77.8515,
      "duration": 0.1999,
      "velocity": 112,
      "chip": "ym2612"
    },
    {
      "channel": 1,
      "note": 59,
      "start": 77.852,
      "duration": 0.1999,
      "velocity": 107,
      "chip": "ym2612"
    },
    {
      "channel": 2,
      "note": 62,
      "start": 77.8525,
      "duration": 0.1999,
      "velocity": 107,
      "chip": "ym2612"
    },
    {
      "channel": 4,
      "note": 83,
      "start": 77.8532,
      "duration": 0.2001,
      "velocity": 99,
      "chip": "ym2612"
    },
    {
      "channel": 5,
      "note": 91,
      "start": 77.8537,
      "duration": 0.0978,
      "velocity": 127,
      "chip": "ym2612"
    },
    {
      "channel": 5,
      "note": 91,
      "start": 77.9518,
      "duration": 0.2824,
      "velocity": 127,
      "chip": "ym2612"
    },
    {
      "channel": 0,
      "note": 50,
      "start": 78.0515,
      "duration": 0.1808,
      "velocity": 112,
      "chip": "ym2612"
    },
    {
      "channel": 1,
      "note": 54,
      "start": 78.052,
      "duration": 0.1808,
      "velocity": 107,
      "chip": "ym2612"
    },
    {
      "channel": 2,
      "note": 57,
      "start": 78.0526,
      "duration": 0.1808,
      "velocity": 107,
      "chip": "ym2612"
    },
    {
      "channel": 4,
      "note": 81,
      "start": 78.0534,
      "duration": 0.7551,
      "velocity": 99,
      "chip": "ym2612"
    },
    {
      "channel": 3,
      "note": 81,
      "start": 78.0543,
      "duration": 1.5134,
      "velocity": 97,
      "chip": "ym2612"
    },
    {
      "channel": 0,
      "note": 62,
      "start": 78.2325,
      "duration": 0.1998,
      "velocity": 112,
      "chip": "ym2612"
    },
    {
      "channel": 1,
      "note": 57,
      "start": 78.233,
      "duration": 0.1998,
      "velocity": 107,
      "chip": "ym2612"
    },
    {
      "channel": 2,
      "note": 62,
      "start": 78.2336,
      "duration": 0.1998,
      "velocity": 107,
      "chip": "ym2612"
    },
    {
      "channel": 5,
      "note": 91,
      "start": 78.2343,
      "duration": 0.0983,
      "velocity": 127,
      "chip": "ym2612"
    },
    {
      "channel": 5,
      "note": 91,
      "start": 78.3328,
      "duration": 0.2757,
      "velocity": 127,
      "chip": "ym2612"
    },
    {
      "channel": 0,
      "note": 50,
      "start": 78.4324,
      "duration": 0.1744,
      "velocity": 112,
      "chip": "ym2612"
    },
    {
      "channel": 1,
      "note": 62,
      "start": 78.433,
      "duration": 0.1743,
      "velocity": 107,
      "chip": "ym2612"
    },
    {
      "channel": 2,
      "note": 66,
      "start": 78.4336,
      "duration": 0.1743,
      "velocity": 107,
      "chip": "ym2612"
    },
    {
      "channel": 0,
      "note": 62,
      "start": 78.6069,
      "duration": 0.1998,
      "velocity": 112,
      "chip": "ym2612"
    },
    {
      "channel": 1,
      "note": 66,
      "start": 78.6075,
      "duration": 0.1999,
      "velocity": 107,
      "chip": "ym2612"
    },
    {
      "channel": 2,
      "note": 69,
      "start": 78.608,
      "duration": 0.1999,
      "velocity": 107,
      "chip": "ym2612"
    },
    {
      "channel": 5,
      "note": 91,
      "start": 78.6087,
      "duration": 0.0983,
      "velocity": 127,
      "chip": "ym2612"
    },
    {
      "channel": 5,
      "note": 91,
      "start": 78.7072,
      "duration": 0.2851,
      "velocity": 127,
      "chip": "ym2612"
    },
    {
      "channel": 0,
      "note": 50,
      "start": 78.8069,
      "duration": 0.1836,
      "velocity": 112,
      "chip": "ym2612"
    },
    {
      "channel": 1,
      "note": 69,
      "start": 78.8075,
      "duration": 0.1836,
      "velocity": 107,
      "chip": "ym2612"
    },
    {
      "channel": 2,
      "note": 74,
      "start": 78.808,
      "duration": 0.1836,
      "velocity": 107,
      "chip": "ym2612"
    },
    {
      "channel": 4,
      "note": 74,
      "start": 78.8087,
      "duration": 0.7611,
      "velocity": 1,
      "chip": "ym2612"
    },
    {
      "channel": 0,
      "note": 62,
      "start": 78.9907,
      "duration": 0.1998,
      "velocity": 112,
      "chip": "ym2612"
    },
    {
      "channel": 1,
      "note": 66,
      "start": 78.9912,
      "duration": 0.1999,
      "velocity": 107,
      "chip": "ym2612"
    },
    {
      "channel": 2,
      "note": 69,
      "start": 78.9918,
      "duration": 0.1998,
      "velocity": 107,
      "chip": "ym2612"
    },
    {
      "channel": 5,
      "note": 91,
      "start": 78.9925,
      "duration": 0.0983,
      "velocity": 127,
      "chip": "ym2612"
    },
    {
      "channel": 5,
      "note": 91,
      "start": 79.0909,
      "duration": 0.275,
      "velocity": 127,
      "chip": "ym2612"
    },
    {
      "channel": 0,
      "note": 50,
      "start": 79.1907,
      "duration": 0.1735,
      "velocity": 112,
      "chip": "ym2612"
    },
    {
      "channel": 1,
      "note": 62,
      "start": 79.1912,
      "duration": 0.1735,
      "velocity": 107,
      "chip": "ym2612"
    },
    {
      "channel": 2,
      "note": 66,
      "start": 79.1918,
      "duration": 0.1735,
      "velocity": 107,
      "chip": "ym2612"
    },
    {
      "channel": 0,
      "note": 62,
      "start": 79.3644,
      "duration": 0.1999,
      "velocity": 112,
      "chip": "ym2612"
    },
    {
      "channel": 1,
      "note": 57,
      "start": 79.3649,
      "duration": 0.2,
      "velocity": 107,
      "chip": "ym2612"
    },
    {
      "channel": 2,
      "note": 62,
      "start": 79.3654,
      "duration": 0.2001,
      "velocity": 107,
      "chip": "ym2612"
    },
    {
      "channel": 5,
      "note": 91,
      "start": 79.3661,
      "duration": 0.0984,
      "velocity": 127,
      "chip": "ym2612"
    },
    {
      "channel": 5,
      "note": 91,
      "start": 79.4647,
      "duration": 0.2921,
      "velocity": 127,
      "chip": "ym2612"
    },
    {
      "channel": 0,
      "note": 52,
      "start": 79.5645,
      "duration": 0.1915,
      "velocity": 112,
      "chip": "ym2612"
    },
    {
      "channel": 1,
      "note": 79,
      "start": 79.5651,
      "duration": 3.0537,
      "velocity": 107,
      "chip": "ym2612"
    },
    {
      "channel": 2,
      "note": 83,
      "start": 79.5657,
      "duration": 3.0536,
      "velocity": 107,
      "chip": "ym2612"
    },
    {
      "channel": 3,
      "note": 76,
      "start": 79.5679,
      "duration": 1.7105,
      "velocity": 97,
      "chip": "ym2612"
    },
    {
      "channel": 4,
      "note": 79,
      "start": 79.57,
      "duration": 0.2878,
      "velocity": 97,
      "chip": "ym2612"
    },
    {
      "channel": 0,
      "note": 64,
      "start": 79.7561,
      "duration": 0.1999,
      "velocity": 112,
      "chip": "ym2612"
    },
    {
      "channel": 5,
      "note": 91,
      "start": 79.757,
      "duration": 0.1014,
      "velocity": 127,
      "chip": "ym2612"
    },
    {
      "channel": 4,
      "note": 76,
      "start": 79.858,
      "duration": 1.6991,
      "velocity": 97,
      "chip": "ym2612"
    },
    {
      "channel": 5,
      "note": 91,
      "start": 79.8585,
      "duration": 0.2726,
      "velocity": 127,
      "chip": "ym2612"
    },
    {
      "channel": 0,
      "note": 52,
      "start": 79.9562,
      "duration": 0.1741,
      "velocity": 112,
      "chip": "ym2612"
    },
    {
      "channel": 0,
      "note": 64,
      "start": 80.1305,
      "duration": 0.1998,
      "velocity": 112,
      "chip": "ym2612"
    },
    {
      "channel": 5,
      "note": 91,
      "start": 80.1312,
      "duration": 0.0994,
      "velocity": 127,
      "chip": "ym2612"
    },
    {
      "channel": 5,
      "note": 91,
      "start": 80.2307,
      "duration": 0.2872,
      "velocity": 127,
      "chip": "ym2612"
    },
    {
      "channel": 0,
      "note": 52,
      "start": 80.3305,
      "duration": 0.1866,
      "velocity": 112,
      "chip": "ym2612"
    },
    {
      "channel": 0,
      "note": 64,
      "start": 80.5173,
      "duration": 0.1998,
      "velocity": 112,
      "chip": "ym2612"
    },
    {
      "channel": 5,
      "note": 91,
      "start": 80.518,
      "duration": 0.0994,
      "velocity": 127,
      "chip": "ym2612"
    },
    {
      "channel": 5,
      "note": 91,
      "start": 80.6176,
      "duration": 0.2744,
      "velocity": 127,
      "chip": "ym2612"
    },
    {
      "channel": 0,
      "note": 52,
      "start": 80.7173,
      "duration": 0.1739,
      "velocity": 112,
      "chip": "ym2612"
    },
    {
      "channel": 0,
      "note": 64,
      "start": 80.8913,
      "duration": 0.1999,
      "velocity": 112,
      "chip": "ym2612"
    },
    {
      "channel": 5,
      "note": 91,
      "start": 80.8921,
      "duration": 0.0994,
      "velocity": 127,
      "chip": "ym2612"
    },
    {
      "channel": 5,
      "note": 91,
      "start": 80.9917,
      "duration": 0.2873,
      "velocity": 127,
      "chip": "ym2612"
    },
    {
      "channel": 0,
      "note": 52,
      "start": 81.0913,
      "duration": 0.1848,
      "velocity": 112,
      "chip": "ym2612"
    },
    {
      "channel": 0,
      "note": 64,
      "start": 81.2763,
      "duration": 0.1998,
      "velocity": 112,
      "chip": "ym2612"
    },
    {
      "channel": 3,
      "note": 71,
      "start": 81.2785,
      "duration": 0.1983,
      "velocity": 97,
      "chip": "ym2612"
    },
    {
      "channel": 5,
      "note": 91,
      "start": 81.2791,
      "duration": 0.0973,
      "velocity": 127,
      "chip": "ym2612"
    },
    {
      "channel": 5,
      "note": 91,
      "start": 81.3766,
      "duration": 0.2764,
      "velocity": 127,
      "chip": "ym2612"
    },
    {
      "channel": 0,
      "note": 52,
      "start": 81.4763,
      "duration": 0.1755,
      "velocity": 112,
      "chip": "ym2612"
    },
    {
      "channel": 3,
      "note": 76,
      "start": 81.4769,
      "duration": 0.1755,
      "velocity": 97,
      "chip": "ym2612"
    },
    {
      "channel": 4,
      "note": 71,
      "start": 81.5572,
      "duration": 0.1948,
      "velocity": 97,
      "chip": "ym2612"
    },
    {
      "channel": 0,
      "note": 64,
      "start": 81.6519,
      "duration": 0.1999,
      "velocity": 112,
      "chip": "ym2612"
    },
    {
      "channel": 3,
      "note": 71,
      "start": 81.6526,
      "duration": 0.1999,
      "velocity": 97,
      "chip": "ym2612"
    },
    {
      "channel": 5,
      "note": 91,
      "start": 81.6532,
      "duration": 0.0994,
      "velocity": 127,
      "chip": "ym2612"
    },
    {
      "channel": 4,
      "note": 76,
      "start": 81.7521,
      "duration": 0.1917,
      "velocity": 97,
      "chip": "ym2612"
    },
    {
      "channel": 5,
      "note": 91,
      "start": 81.7527,
      "duration": 0.2923,
      "velocity": 127,
      "chip": "ym2612"
    },
    {
      "channel": 0,
      "note": 52,
      "start": 81.8519,
      "duration": 0.1918,
      "velocity": 112,
      "chip": "ym2612"
    },
    {
      "channel": 3,
      "note": 78,
      "start": 81.8526,
      "duration": 0.1918,
      "velocity": 97,
      "chip": "ym2612"
    },
    {
      "channel": 4,
      "note": 71,
      "start": 81.9441,
      "duration": 0.1998,
      "velocity": 97,
      "chip": "ym2612"
    },
    {
      "channel": 0,
      "note": 64,
      "start": 82.0439,
      "duration": 0.1998,
      "velocity": 112,
      "chip": "ym2612"
    },
    {
      "channel": 3,
      "note": 71,
      "start": 82.0445,
      "duration": 0.1999,
      "velocity": 97,
      "chip": "ym2612"
    },
    {
      "channel": 5,
      "note": 91,
      "start": 82.0451,
      "duration": 0.0994,
      "velocity": 127,
      "chip": "ym2612"
    },
    {
      "channel": 4,
      "note": 78,
      "start": 82.1441,
      "duration": 0.1813,
      "velocity": 97,
      "chip": "ym2612"
    },
    {
      "channel": 5,
      "note": 91,
      "start": 82.1446,
      "duration": 0.2742,
      "velocity": 127,
      "chip": "ym2612"
    },
    {
      "channel": 0,
      "note": 52,
      "start": 82.2439,
      "duration": 0.1742,
      "velocity": 112,
      "chip": "ym2612"
    },
    {
      "channel": 3,
      "note": 79,
      "start": 82.2445,
      "duration": 0.3754,
      "velocity": 97,
      "chip": "ym2612"
    },
    {
      "channel": 4,
      "note": 71,
      "start": 82.3255,
      "duration": 0.1928,
      "velocity": 97,
      "chip": "ym2612"
    },
    {
      "channel": 0,
      "note": 64,
      "start": 82.4183,
      "duration": 0.2,
      "velocity": 112,
      "chip": "ym2612"
    },
    {
      "channel": 5,
      "note": 91,
      "start": 82.4191,
      "duration": 0.0998,
      "velocity": 127,
      "chip": "ym2612"
    },
    {
      "channel": 4,
      "note": 79,
      "start": 82.5185,
      "duration": 0.3887,
      "velocity": 97,
      "chip": "ym2612"
    },
    {
      "channel": 5,
      "note": 91,
      "start": 82.5191,
      "duration": 0.2887,
      "velocity": 127,
      "chip": "ym2612"
    },
    {
      "channel": 0,
      "note": 48,
      "start": 82.6184,
      "duration": 0.1886,
      "velocity": 112,
      "chip": "ym2612"
    },
    {
      "channel": 1,
      "note": 76,
      "start": 82.6189,
      "duration": 2.9964,
      "velocity": 107,
      "chip": "ym2612"
    },
    {
      "channel": 2,
      "note": 79,
      "start": 82.6195,
      "duration": 2.9964,
      "velocity": 107,
      "chip": "ym2612"
    },
    {
      "channel": 3,
      "note": 72,
      "start": 82.62,
      "duration": 2.4644,
      "velocity": 97,
      "chip": "ym2612"
    },
    {
      "channel": 0,
      "note": 60,
      "start": 82.8072,
      "duration": 0.1999,
      "velocity": 112,
      "chip": "ym2612"
    },
    {
      "channel": 5,
      "note": 91,
      "start": 82.8079,
      "duration": 0.0999,
      "velocity": 127,
      "chip": "ym2612"
    },
    {
      "channel": 4,
      "note": 72,
      "start": 82.9074,
      "duration": 2.4541,
      "velocity": 97,
      "chip": "ym2612"
    },
    {
      "channel": 5,
      "note": 91,
      "start": 82.908,
      "duration": 0.2804,
      "velocity": 127,
      "chip": "ym2612"
    },
    {
      "channel": 0,
      "note": 48,
      "start": 83.0072,
      "duration": 0.1803,
      "velocity": 112,
      "chip": "ym2612"
    },
    {
      "channel": 0,
      "note": 60,
      "start": 83.1878,
      "duration": 0.1998,
      "velocity": 112,
      "chip": "ym2612"
    },
    {
      "channel": 5,
      "note": 91,
      "start": 83.1885,
      "duration": 0.0994,
      "velocity": 127,
      "chip": "ym2612"
    },
    {
      "channel": 5,
      "note": 91,
      "start": 83.288,
      "duration": 0.2871,
      "velocity": 127,
      "chip": "ym2612"
    },
    {
      "channel": 0,
      "note": 48,
      "start": 83.3878,
      "duration": 0.1866,
      "velocity": 112,
      "chip": "ym2612"
    },
    {
      "channel": 0,
      "note": 60,
      "start": 83.5745,
      "duration": 0.1999,
      "velocity": 112,
      "chip": "ym2612"
    },
    {
      "channel": 5,
      "note": 91,
      "start": 83.5753,
      "duration": 0.0994,
      "velocity": 127,
      "chip": "ym2612"
    },
    {
      "channel": 5,
      "note": 91,
      "start": 83.6749,
      "duration": 0.2676,
      "velocity": 127,
      "chip": "ym2612"
    },
    {
      "channel": 0,
      "note": 48,
      "start": 83.7745,
      "duration": 0.1671,
      "velocity": 112,
      "chip": "ym2612"
    },
    {
      "channel": 0,
      "note": 60,
      "start": 83.9418,
      "duration": 0.1998,
      "velocity": 112,
      "chip": "ym2612"
    },
    {
      "channel": 5,
      "note": 91,
      "start": 83.9426,
      "duration": 0.0994,
      "velocity": 127,
      "chip": "ym2612"
    },
    {
      "channel": 5,
      "note": 91,
      "start": 84.0421,
      "duration": 0.2872,
      "velocity": 127,
      "chip": "ym2612"
    },
    {
      "channel": 0,
      "note": 48,
      "start": 84.1418,
      "duration": 0.1866,
      "velocity": 112,
      "chip": "ym2612"
    },
    {
      "channel": 0,
      "note": 60,
      "start": 84.3285,
      "duration": 0.1999,
      "velocity": 112,
      "chip": "ym2612"
    },
    {
      "channel": 5,
      "note": 91,
      "start": 84.3294,
      "duration": 0.0994,
      "velocity": 127,
      "chip": "ym2612"
    },
    {
      "channel": 5,
      "note": 91,
      "start": 84.4289,
      "duration": 0.2672,
      "velocity": 127,
      "chip": "ym2612"
    },
    {
      "channel": 0,
      "note": 48,
      "start": 84.5285,
      "duration": 0.1668,
      "velocity": 112,
      "chip": "ym2612"
    },
    {
      "channel": 0,
      "note": 60,
      "start": 84.6955,
      "duration": 0.1998,
      "velocity": 112,
      "chip": "ym2612"
    },
    {
      "channel": 5,
      "note": 91,
      "start": 84.6963,
      "duration": 0.0994,
      "velocity": 127,
      "chip": "ym2612"
    },
    {
      "channel": 5,
      "note": 91,
      "start": 84.7958,
      "duration": 0.2893,
      "velocity": 127,
      "chip": "ym2612"
    },
    {
      "channel": 0,
      "note": 48,
      "start": 84.8955,
      "duration": 0.1866,
      "velocity": 112,
      "chip": "ym2612"
    },
    {
      "channel": 0,
      "note": 60,
      "start": 85.0823,
      "duration": 0.1998,
      "velocity": 112,
      "chip": "ym2612"
    },
    {
      "channel": 3,
      "note": 67,
      "start": 85.0846,
      "duration": 0.1983,
      "velocity": 97,
      "chip": "ym2612"
    },
    {
      "channel": 5,
      "note": 91,
      "start": 85.0852,
      "duration": 0.0973,
      "velocity": 127,
      "chip": "ym2612"
    },
    {
      "channel": 5,
      "note": 91,
      "start": 85.1826,
      "duration": 0.6177,
      "velocity": 127,
      "chip": "ym2612"
    },
    {
      "channel": 0,
      "note": 48,
      "start": 85.2823,
      "duration": 0.1721,
      "velocity": 112,
      "chip": "ym2612"
    },
    {
      "channel": 3,
      "note": 71,
      "start": 85.283,
      "duration": 0.1721,
      "velocity": 97,
      "chip": "ym2612"
    },
    {
      "channel": 4,
      "note": 67,
      "start": 85.3617,
      "duration": 0.1744,
      "velocity": 97,
      "chip": "ym2612"
    },
    {
      "channel": 0,
      "note": 60,
      "start": 85.4546,
      "duration": 0.1601,
      "velocity": 112,
      "chip": "ym2612"
    },
    {
      "channel": 3,
      "note": 72,
      "start": 85.4552,
      "duration": 0.1613,
      "velocity": 97,
      "chip": "ym2612"
    },
    {
      "channel": 4,
      "note": 71,
      "start": 85.5363,
      "duration": 0.1636,
      "velocity": 97,
      "chip": "ym2612"
    },
    {
      "channel": 0,
      "note": 55,
      "start": 85.6149,
      "duration": 0.1846,
      "velocity": 112,
      "chip": "ym2612"
    },
    {
      "channel": 1,
      "note": 86,
      "start": 85.6155,
      "duration": 3.0463,
      "velocity": 107,
      "chip": "ym2612"
    },
    {
      "channel": 2,
      "note": 83,
      "start": 85.6161,
      "duration": 3.0462,
      "velocity": 107,
      "chip": "ym2612"
    },
    {
      "channel": 3,
      "note": 74,
      "start": 85.6167,
      "duration": 1.9101,
      "velocity": 97,
      "chip": "ym2612"
    },
    {
      "channel": 4,
      "note": 72,
      "start": 85.7001,
      "duration": 0.1996,
      "velocity": 97,
      "chip": "ym2612"
    },
    {
      "channel": 0,
      "note": 67,
      "start": 85.7997,
      "duration": 0.1999,
      "velocity": 112,
      "chip": "ym2612"
    },
    {
      "channel": 5,
      "note": 91,
      "start": 85.8006,
      "duration": 0.0997,
      "velocity": 127,
      "chip": "ym2612"
    },
    {
      "channel": 4,
      "note": 74,
      "start": 85.8999,
      "duration": 1.9063,
      "velocity": 97,
      "chip": "ym2612"
    },
    {
      "channel": 5,
      "note": 91,
      "start": 85.9005,
      "duration": 0.2804,
      "velocity": 127,
      "chip": "ym2612"
    },
    {
      "channel": 0,
      "note": 55,
      "start": 85.9997,
      "duration": 0.1803,
      "velocity": 112,
      "chip": "ym2612"
    },
    {
      "channel": 0,
      "note": 67,
      "start": 86.1802,
      "duration": 0.1999,
      "velocity": 112,
      "chip": "ym2612"
    },
    {
      "channel": 5,
      "note": 91,
      "start": 86.181,
      "duration": 0.0994,
      "velocity": 127,
      "chip": "ym2612"
    },
    {
      "channel": 5,
      "note": 91,
      "start": 86.2806,
      "duration": 0.2855,
      "velocity": 127,
      "chip": "ym2612"
    },
    {
      "channel": 0,
      "note": 55,
      "start": 86.3802,
      "duration": 0.1851,
      "velocity": 112,
      "chip": "ym2612"
    },
    {
      "channel": 0,
      "note": 67,
      "start": 86.5655,
      "duration": 0.1998,
      "velocity": 112,
      "chip": "ym2612"
    },
    {
      "channel": 5,
      "note": 91,
      "start": 86.5662,
      "duration": 0.0994,
      "velocity": 127,
      "chip": "ym2612"
    },
    {
      "channel": 5,
      "note": 91,
      "start": 86.6657,
      "duration": 0.2744,
      "velocity": 127,
      "chip": "ym2612"
    },
    {
      "channel": 0,
      "note": 55,
      "start": 86.7655,
      "duration": 0.1739,
      "velocity": 112,
      "chip": "ym2612"
    },
    {
      "channel": 0,
      "note": 67,
      "start": 86.9395,
      "duration": 0.1999,
      "velocity": 112,
      "chip": "ym2612"
    },
    {
      "channel": 5,
      "note": 91,
      "start": 86.9403,
      "duration": 0.0994,
      "velocity": 127,
      "chip": "ym2612"
    },
    {
      "channel": 5,
      "note": 91,
      "start": 87.0399,
      "duration": 0.2855,
      "velocity": 127,
      "chip": "ym2612"
    },
    {
      "channel": 0,
      "note": 55,
      "start": 87.1395,
      "duration": 0.1851,
      "velocity": 112,
      "chip": "ym2612"
    },
    {
      "channel": 0,
      "note": 67,
      "start": 87.3248,
      "duration": 0.1998,
      "velocity": 112,
      "chip": "ym2612"
    },
    {
      "channel": 5,
      "note": 91,
      "start": 87.3255,
      "duration": 0.0994,
      "velocity": 127,
      "chip": "ym2612"
    },
    {
      "channel": 5,
      "note": 91,
      "start": 87.425,
      "duration": 0.2817,
      "velocity": 127,
      "chip": "ym2612"
    },
    {
      "channel": 0,
      "note": 55,
      "start": 87.5248,
      "duration": 0.1812,
      "velocity": 112,
      "chip": "ym2612"
    },
    {
      "channel": 3,
      "note": 79,
      "start": 87.527,
      "duration": 0.3796,
      "velocity": 97,
      "chip": "ym2612"
    },
    {
      "channel": 0,
      "note": 67,
      "start": 87.7061,
      "duration": 0.1999,
      "velocity": 112,
      "chip": "ym2612"
    },
    {
      "channel": 5,
      "note": 91,
      "start": 87.7069,
      "duration": 0.0999,
      "velocity": 127,
      "chip": "ym2612"
    },
    {
      "channel": 4,
      "note": 79,
      "start": 87.8064,
      "duration": 0.386,
      "velocity": 97,
      "chip": "ym2612"
    },
    {
      "channel": 5,
      "note": 91,
      "start": 87.807,
      "duration": 0.2864,
      "velocity": 127,
      "chip": "ym2612"
    },
    {
      "channel": 0,
      "note": 55,
      "start": 87.9061,
      "duration": 0.1859,
      "velocity": 112,
      "chip": "ym2612"
    },
    {
      "channel": 3,
      "note": 78,
      "start": 87.9068,
      "duration": 0.1859,
      "velocity": 97,
      "chip": "ym2612"
    },
    {
      "channel": 0,
      "note": 67,
      "start": 88.0922,
      "duration": 0.1999,
      "velocity": 112,
      "chip": "ym2612"
    },
    {
      "channel": 3,
      "note": 76,
      "start": 88.0929,
      "duration": 0.1999,
      "velocity": 97,
      "chip": "ym2612"
    },
    {
      "channel": 5,
      "note": 91,
      "start": 88.0935,
      "duration": 0.0994,
      "velocity": 127,
      "chip": "ym2612"
    },
    {
      "channel": 4,
      "note": 78,
      "start": 88.1925,
      "duration": 0.1758,
      "velocity": 97,
      "chip": "ym2612"
    },
    {
      "channel": 5,
      "note": 91,
      "start": 88.1931,
      "duration": 0.2688,
      "velocity": 127,
      "chip": "ym2612"
    },
    {
      "channel": 0,
      "note": 55,
      "start": 88.2922,
      "duration": 0.1689,
      "velocity": 112,
      "chip": "ym2612"
    },
    {
      "channel": 3,
      "note": 74,
      "start": 88.2929,
      "duration": 0.37,
      "velocity": 97,
      "chip": "ym2612"
    },
    {
      "channel": 4,
      "note": 76,
      "start": 88.3685,
      "duration": 0.1929,
      "velocity": 97,
      "chip": "ym2612"
    },
    {
      "channel": 0,
      "note": 67,
      "start": 88.4613,
      "duration": 0.2,
      "velocity": 112,
      "chip": "ym2612"
    },
    {
      "channel": 5,
      "note": 91,
      "start": 88.4621,
      "duration": 0.0998,
      "velocity": 127,
      "chip": "ym2612"
    },
    {
      "channel": 4,
      "note": 74,
      "start": 88.5616,
      "duration": 0.3889,
      "velocity": 97,
      "chip": "ym2612"
    },
    {
      "channel": 5,
      "note": 91,
      "start": 88.5621,
      "duration": 0.2889,
      "velocity": 127,
      "chip": "ym2612"
    },
    {
      "channel": 0,
      "note": 50,
      "start": 88.6614,
      "duration": 0.1888,
      "velocity": 112,
      "chip": "ym2612"
    },
    {
      "channel": 1,
      "note": 78,
      "start": 88.6619,
      "duration": 2.9882,
      "velocity": 107,
      "chip": "ym2612"
    },
    {
      "channel": 2,
      "note": 81,
      "start": 88.6625,
      "duration": 2.9882,
      "velocity": 107,
      "chip": "ym2612"
    },
    {
      "channel": 3,
      "note": 78,
      "start": 88.6631,
      "duration": 2.9898,
      "velocity": 97,
      "chip": "ym2612"
    },
    {
      "channel": 0,
      "note": 62,
      "start": 88.8504,
      "duration": 0.1999,
      "velocity": 112,
      "chip": "ym2612"
    },
    {
      "channel": 5,
      "note": 91,
      "start": 88.8511,
      "duration": 0.0999,
      "velocity": 127,
      "chip": "ym2612"
    },
    {
      "channel": 4,
      "note": 78,
      "start": 88.9506,
      "duration": 2.7044,
      "velocity": 1,
      "chip": "ym2612"
    },
    {
      "channel": 5,
      "note": 91,
      "start": 88.9512,
      "duration": 0.2741,
      "velocity": 127,
      "chip": "ym2612"
    },
    {
      "channel": 0,
      "note": 50,
      "start": 89.0504,
      "duration": 0.1741,
      "velocity": 112,
      "chip": "ym2612"
    },
    {
      "channel": 0,
      "note": 62,
      "start": 89.2247,
      "duration": 0.1998,
      "velocity": 112,
      "chip": "ym2612"
    },
    {
      "channel": 5,
      "note": 91,
      "start": 89.2255,
      "duration": 0.0994,
      "velocity": 127,
      "chip": "ym2612"
    },
    {
      "channel": 5,
      "note": 91,
      "start": 89.325,
      "duration": 0.2855,
      "velocity": 127,
      "chip": "ym2612"
    },
    {
      "channel": 0,
      "note": 50,
      "start": 89.4247,
      "duration": 0.1851,
      "velocity": 112,
      "chip": "ym2612"
    },
    {
      "channel": 0,
      "note": 62,
      "start": 89.6099,
      "duration": 0.1998,
      "velocity": 112,
      "chip": "ym2612"
    },
    {
      "channel": 5,
      "note": 91,
      "start": 89.6107,
      "duration": 0.0994,
      "velocity": 127,
      "chip": "ym2612"
    },
    {
      "channel": 5,
      "note": 91,
      "start": 89.7102,
      "duration": 0.2675,
      "velocity": 127,
      "chip": "ym2612"
    },
    {
      "channel": 0,
      "note": 50,
      "start": 89.8099,
      "duration": 0.1671,
      "velocity": 112,
      "chip": "ym2612"
    },
    {
      "channel": 0,
      "note": 62,
      "start": 89.9771,
      "duration": 0.1999,
      "velocity": 112,
      "chip": "ym2612"
    },
    {
      "channel": 5,
      "note": 91,
      "start": 89.9779,
      "duration": 0.0994,
      "velocity": 127,
      "chip": "ym2612"
    },
    {
      "channel": 5,
      "note": 91,
      "start": 90.0774,
      "duration": 0.2855,
      "velocity": 127,
      "chip": "ym2612"
    },
    {
      "channel": 0,
      "note": 50,
      "start": 90.1771,
      "duration": 0.1851,
      "velocity": 112,
      "chip": "ym2612"
    },
    {
      "channel": 0,
      "note": 62,
      "start": 90.3623,
      "duration": 0.1998,
      "velocity": 112,
      "chip": "ym2612"
    },
    {
      "channel": 5,
      "note": 91,
      "start": 90.3631,
      "duration": 0.0994,
      "velocity": 127,
      "chip": "ym2612"
    },
    {
      "channel": 5,
      "note": 91,
      "start": 90.4626,
      "duration": 0.2744,
      "velocity": 127,
      "chip": "ym2612"
    },
    {
      "channel": 0,
      "note": 50,
      "start": 90.5623,
      "duration": 0.1739,
      "velocity": 112,
      "chip": "ym2612"
    },
    {
      "channel": 0,
      "note": 62,
      "start": 90.7364,
      "duration": 0.1999,
      "velocity": 112,
      "chip": "ym2612"
    },
    {
      "channel": 5,
      "note": 91,
      "start": 90.7372,
      "duration": 0.0994,
      "velocity": 127,
      "chip": "ym2612"
    },
    {
      "channel": 5,
      "note": 91,
      "start": 90.8367,
      "duration": 0.2871,
      "velocity": 127,
      "chip": "ym2612"
    },
    {
      "channel": 0,
      "note": 50,
      "start": 90.9364,
      "duration": 0.1866,
      "velocity": 112,
      "chip": "ym2612"
    },
    {
      "channel": 0,
      "note": 62,
      "start": 91.1232,
      "duration": 0.1999,
      "velocity": 112,
      "chip": "ym2612"
    },
    {
      "channel": 5,
      "note": 91,
      "start": 91.124,
      "duration": 0.0994,
      "velocity": 127,
      "chip": "ym2612"
    },
    {
      "channel": 5,
      "note": 91,
      "start": 91.2235,
      "duration": 0.6182,
      "velocity": 127,
      "chip": "ym2612"
    },
    {
      "channel": 0,
      "note": 51,
      "start": 91.3232,
      "duration": 0.1668,
      "velocity": 112,
      "chip": "ym2612"
    },
    {
      "channel": 0,
      "note": 63,
      "start": 91.4901,
      "duration": 0.1594,
      "velocity": 112,
      "chip": "ym2612"
    },
    {
      "channel": 0,
      "note": 52,
      "start": 91.6497,
      "duration": 0.1913,
      "velocity": 112,
      "chip": "ym2612"
    },
    {
      "channel": 1,
      "note": 83,
      "start": 91.6503,
      "duration": 1.3308,
      "velocity": 107,
      "chip": "ym2612"
    },
    {
      "channel": 2,
      "note": 79,
      "start": 91.6509,
      "duration": 3.0508,
      "velocity": 107,
      "chip": "ym2612"
    },
    {
      "channel": 3,
      "note": 76,
      "start": 91.653,
      "duration": 1.7171,
      "velocity": 97,
      "chip": "ym2612"
    },
    {
      "channel": 4,
      "note": 79,
      "start": 91.6551,
      "duration": 0.2876,
      "velocity": 97,
      "chip": "ym2612"
    },
    {
      "channel": 0,
      "note": 64,
      "start": 91.8411,
      "duration": 0.1999,
      "velocity": 112,
      "chip": "ym2612"
    },
    {
      "channel": 5,
      "note": 91,
      "start": 91.842,
      "duration": 0.1014,
      "velocity": 127,
      "chip": "ym2612"
    },
    {
      "channel": 4,
      "note": 76,
      "start": 91.943,
      "duration": 1.7019,
      "velocity": 97,
      "chip": "ym2612"
    },
    {
      "channel": 5,
      "note": 91,
      "start": 91.9435,
      "duration": 0.2788,
      "velocity": 127,
      "chip": "ym2612"
    },
    {
      "channel": 0,
      "note": 52,
      "start": 92.0412,
      "duration": 0.1803,
      "velocity": 112,
      "chip": "ym2612"
    },
    {
      "channel": 0,
      "note": 64,
      "start": 92.2217,
      "duration": 0.1999,
      "velocity": 112,
      "chip": "ym2612"
    },
    {
      "channel": 5,
      "note": 91,
      "start": 92.2225,
      "duration": 0.0994,
      "velocity": 127,
      "chip": "ym2612"
    },
    {
      "channel": 5,
      "note": 91,
      "start": 92.322,
      "duration": 0.2852,
      "velocity": 127,
      "chip": "ym2612"
    },
    {
      "channel": 0,
      "note": 52,
      "start": 92.4217,
      "duration": 0.1848,
      "velocity": 112,
      "chip": "ym2612"
    },
    {
      "channel": 0,
      "note": 64,
      "start": 92.6066,
      "duration": 0.1998,
      "velocity": 112,
      "chip": "ym2612"
    },
    {
      "channel": 5,
      "note": 91,
      "start": 92.6074,
      "duration": 0.0994,
      "velocity": 127,
      "chip": "ym2612"
    },
    {
      "channel": 5,
      "note": 91,
      "start": 92.7069,
      "duration": 0.275,
      "velocity": 127,
      "chip": "ym2612"
    },
    {
      "channel": 0,
      "note": 52,
      "start": 92.8066,
      "duration": 0.1739,
      "velocity": 112,
      "chip": "ym2612"
    },
    {
      "channel": 0,
      "note": 64,
      "start": 92.9807,
      "duration": 0.1998,
      "velocity": 112,
      "chip": "ym2612"
    },
    {
      "channel": 1,
      "note": 81,
      "start": 92.9813,
      "duration": 0.0993,
      "velocity": 107,
      "chip": "ym2612"
    },
    {
      "channel": 5,
      "note": 91,
      "start": 92.982,
      "duration": 0.0993,
      "velocity": 127,
      "chip": "ym2612"
    },
    {
      "channel": 1,
      "note": 79,
      "start": 93.0807,
      "duration": 0.1003,
      "velocity": 107,
      "chip": "ym2612"
    },
    {
      "channel": 5,
      "note": 91,
      "start": 93.0815,
      "duration": 0.2893,
      "velocity": 127,
      "chip": "ym2612"
    },
    {
      "channel": 0,
      "note": 52,
      "start": 93.1807,
      "duration": 0.1872,
      "velocity": 112,
      "chip": "ym2612"
    },
    {
      "channel": 1,
      "note": 83,
      "start": 93.1813,
      "duration": 0.3873,
      "velocity": 107,
      "chip": "ym2612"
    },
    {
      "channel": 0,
      "note": 64,
      "start": 93.3681,
      "duration": 0.1999,
      "velocity": 112,
      "chip": "ym2612"
    },
    {
      "channel": 3,
      "note": 71,
      "start": 93.3703,
      "duration": 0.1988,
      "velocity": 97,
      "chip": "ym2612"
    },
    {
      "channel": 5,
      "note": 91,
      "start": 93.371,
      "duration": 0.0973,
      "velocity": 127,
      "chip": "ym2612"
    },
    {
      "channel": 5,
      "note": 91,
      "start": 93.4684,
      "duration": 0.27,
      "velocity": 127,
      "chip": "ym2612"
    },
    {
      "channel": 0,
      "note": 52,
      "start": 93.5681,
      "duration": 0.1689,
      "velocity": 112,
      "chip": "ym2612"
    },
    {
      "channel": 1,
      "note": 76,
      "start": 93.5687,
      "duration": 0.369,
      "velocity": 107,
      "chip": "ym2612"
    },
    {
      "channel": 3,
      "note": 76,
      "start": 93.5693,
      "duration": 0.1685,
      "velocity": 97,
      "chip": "ym2612"
    },
    {
      "channel": 4,
      "note": 71,
      "start": 93.645,
      "duration": 0.1923,
      "velocity": 97,
      "chip": "ym2612"
    },
    {
      "channel": 0,
      "note": 64,
      "start": 93.7372,
      "duration": 0.1998,
      "velocity": 112,
      "chip": "ym2612"
    },
    {
      "channel": 3,
      "note": 71,
      "start": 93.7379,
      "duration": 0.2004,
      "velocity": 97,
      "chip": "ym2612"
    },
    {
      "channel": 5,
      "note": 91,
      "start": 93.7385,
      "duration": 0.0994,
      "velocity": 127,
      "chip": "ym2612"
    },
    {
      "channel": 4,
      "note": 76,
      "start": 93.8374,
      "duration": 0.1915,
      "velocity": 97,
      "chip": "ym2612"
    },
    {
      "channel": 5,
      "note": 91,
      "start": 93.838,
      "duration": 0.292,
      "velocity": 127,
      "chip": "ym2612"
    },
    {
      "channel": 0,
      "note": 52,
      "start": 93.9372,
      "duration": 0.1915,
      "velocity": 112,
      "chip": "ym2612"
    },
    {
      "channel": 1,
      "note": 78,
      "start": 93.9378,
      "duration": 0.291,
      "velocity": 107,
      "chip": "ym2612"
    },
    {
      "channel": 3,
      "note": 78,
      "start": 93.9384,
      "duration": 0.191,
      "velocity": 97,
      "chip": "ym2612"
    },
    {
      "channel": 4,
      "note": 71,
      "start": 94.0291,
      "duration": 0.2003,
      "velocity": 97,
      "chip": "ym2612"
    },
    {
      "channel": 0,
      "note": 64,
      "start": 94.1288,
      "duration": 0.1999,
      "velocity": 112,
      "chip": "ym2612"
    },
    {
      "channel": 3,
      "note": 71,
      "start": 94.1295,
      "duration": 0.1999,
      "velocity": 97,
      "chip": "ym2612"
    },
    {
      "channel": 5,
      "note": 91,
      "start": 94.1302,
      "duration": 0.0999,
      "velocity": 127,
      "chip": "ym2612"
    },
    {
      "channel": 1,
      "note": 79,
      "start": 94.229,
      "duration": 0.2721,
      "velocity": 107,
      "chip": "ym2612"
    },
    {
      "channel": 4,
      "note": 78,
      "start": 94.2296,
      "duration": 0.1781,
      "velocity": 97,
      "chip": "ym2612"
    },
    {
      "channel": 5,
      "note": 91,
      "start": 94.2302,
      "duration": 0.2716,
      "velocity": 127,
      "chip": "ym2612"
    },
    {
      "channel": 0,
      "note": 52,
      "start": 94.3289,
      "duration": 0.1716,
      "velocity": 112,
      "chip": "ym2612"
    },
    {
      "channel": 3,
      "note": 79,
      "start": 94.3296,
      "duration": 0.3727,
      "velocity": 97,
      "chip": "ym2612"
    },
    {
      "channel": 4,
      "note": 71,
      "start": 94.4079,
      "duration": 0.1929,
      "velocity": 97,
      "chip": "ym2612"
    },
    {
      "channel": 0,
      "note": 64,
      "start": 94.5007,
      "duration": 0.1999,
      "velocity": 112,
      "chip": "ym2612"
    },
    {
      "channel": 1,
      "note": 81,
      "start": 94.5012,
      "duration": 0.1999,
      "velocity": 107,
      "chip": "ym2612"
    },
    {
      "channel": 5,
      "note": 91,
      "start": 94.502,
      "duration": 0.0994,
      "velocity": 127,
      "chip": "ym2612"
    },
    {
      "channel": 4,
      "note": 79,
      "start": 94.6009,
      "duration": 0.3887,
      "velocity": 97,
      "chip": "ym2612"
    },
    {
      "channel": 5,
      "note": 91,
      "start": 94.6015,
      "duration": 0.2887,
      "velocity": 127,
      "chip": "ym2612"
    },
    {
      "channel": 0,
      "note": 48,
      "start": 94.7008,
      "duration": 0.1886,
      "velocity": 112,
      "chip": "ym2612"
    },
    {
      "channel": 1,
      "note": 83,
      "start": 94.7013,
      "duration": 1.3236,
      "velocity": 107,
      "chip": "ym2612"
    },
    {
      "channel": 2,
      "note": 76,
      "start": 94.7019,
      "duration": 3.0105,
      "velocity": 107,
      "chip": "ym2612"
    },
    {
      "channel": 3,
      "note": 72,
      "start": 94.7024,
      "duration": 2.4758,
      "velocity": 97,
      "chip": "ym2612"
    },
    {
      "channel": 0,
      "note": 60,
      "start": 94.8895,
      "duration": 0.1999,
      "velocity": 112,
      "chip": "ym2612"
    },
    {
      "channel": 5,
      "note": 91,
      "start": 94.8903,
      "duration": 0.0999,
      "velocity": 127,
      "chip": "ym2612"
    },
    {
      "channel": 4,
      "note": 72,
      "start": 94.9898,
      "duration": 2.4678,
      "velocity": 97,
      "chip": "ym2612"
    },
    {
      "channel": 5,
      "note": 91,
      "start": 94.9904,
      "duration": 0.2737,
      "velocity": 127,
      "chip": "ym2612"
    },
    {
      "channel": 0,
      "note": 48,
      "start": 95.0895,
      "duration": 0.1738,
      "velocity": 112,
      "chip": "ym2612"
    },
    {
      "channel": 0,
      "note": 60,
      "start": 95.2634,
      "duration": 0.1999,
      "velocity": 112,
      "chip": "ym2612"
    },
    {
      "channel": 5,
      "note": 91,
      "start": 95.2643,
      "duration": 0.0994,
      "velocity": 127,
      "chip": "ym2612"
    },
    {
      "channel": 5,
      "note": 91,
      "start": 95.3638,
      "duration": 0.2873,
      "velocity": 127,
      "chip": "ym2612"
    },
    {
      "channel": 0,
      "note": 48,
      "start": 95.4634,
      "duration": 0.1868,
      "velocity": 112,
      "chip": "ym2612"
    },
    {
      "channel": 0,
      "note": 60,
      "start": 95.6504,
      "duration": 0.1999,
      "velocity": 112,
      "chip": "ym2612"
    },
    {
      "channel": 5,
      "note": 91,
      "start": 95.6512,
      "duration": 0.0994,
      "velocity": 127,
      "chip": "ym2612"
    },
    {
      "channel": 5,
      "note": 91,
      "start": 95.7507,
      "duration": 0.275,
      "velocity": 127,
      "chip": "ym2612"
    },
    {
      "channel": 0,
      "note": 48,
      "start": 95.8504,
      "duration": 0.1739,
      "velocity": 112,
      "chip": "ym2612"
    },
    {
      "channel": 0,
      "note": 60,
      "start": 96.0245,
      "duration": 0.1998,
      "velocity": 112,
      "chip": "ym2612"
    },
    {
      "channel": 1,
      "note": 81,
      "start": 96.0251,
      "duration": 0.0993,
      "velocity": 107,
      "chip": "ym2612"
    },
    {
      "channel": 5,
      "note": 91,
      "start": 96.0258,
      "duration": 0.0993,
      "velocity": 127,
      "chip": "ym2612"
    },
    {
      "channel": 1,
      "note": 79,
      "start": 96.1246,
      "duration": 0.1003,
      "velocity": 107,
      "chip": "ym2612"
    },
    {
      "channel": 5,
      "note": 91,
      "start": 96.1253,
      "duration": 0.2897,
      "velocity": 127,
      "chip": "ym2612"
    },
    {
      "channel": 0,
      "note": 48,
      "start": 96.2245,
      "duration": 0.1897,
      "velocity": 112,
      "chip": "ym2612"
    },
    {
      "channel": 1,
      "note": 83,
      "start": 96.2251,
      "duration": 0.3896,
      "velocity": 107,
      "chip": "ym2612"
    },
    {
      "channel": 0,
      "note": 60,
      "start": 96.4143,
      "duration": 0.1999,
      "velocity": 112,
      "chip": "ym2612"
    },
    {
      "channel": 5,
      "note": 91,
      "start": 96.4151,
      "duration": 0.0994,
      "velocity": 127,
      "chip": "ym2612"
    },
    {
      "channel": 5,
      "note": 91,
      "start": 96.5146,
      "duration": 0.2747,
      "velocity": 127,
      "chip": "ym2612"
    },
    {
      "channel": 0,
      "note": 48,
      "start": 96.6144,
      "duration": 0.1741,
      "velocity": 112,
      "chip": "ym2612"
    },
    {
      "channel": 1,
      "note": 76,
      "start": 96.6149,
      "duration": 0.3741,
      "velocity": 107,
      "chip": "ym2612"
    },
    {
      "channel": 0,
      "note": 60,
      "start": 96.7887,
      "duration": 0.1998,
      "velocity": 112,
      "chip": "ym2612"
    },
    {
      "channel": 5,
      "note": 91,
      "start": 96.7895,
      "duration": 0.0994,
      "velocity": 127,
      "chip": "ym2612"
    },
    {
      "channel": 5,
      "note": 91,
      "start": 96.889,
      "duration": 0.2898,
      "velocity": 127,
      "chip": "ym2612"
    },
    {
      "channel": 0,
      "note": 48,
      "start": 96.9887,
      "duration": 0.1872,
      "velocity": 112,
      "chip": "ym2612"
    },
    {
      "channel": 1,
      "note": 78,
      "start": 96.9893,
      "duration": 0.2868,
      "velocity": 107,
      "chip": "ym2612"
    },
    {
      "channel": 0,
      "note": 60,
      "start": 97.1761,
      "duration": 0.1999,
      "velocity": 112,
      "chip": "ym2612"
    },
    {
      "channel": 3,
      "note": 67,
      "start": 97.1783,
      "duration": 0.1983,
      "velocity": 97,
      "chip": "ym2612"
    },
    {
      "channel": 5,
      "note": 91,
      "start": 97.179,
      "duration": 0.0978,
      "velocity": 127,
      "chip": "ym2612"
    },
    {
      "channel": 1,
      "note": 79,
      "start": 97.2761,
      "duration": 0.2748,
      "velocity": 107,
      "chip": "ym2612"
    },
    {
      "channel": 5,
      "note": 91,
      "start": 97.2769,
      "duration": 0.6198,
      "velocity": 127,
      "chip": "ym2612"
    },
    {
      "channel": 0,
      "note": 48,
      "start": 97.3761,
      "duration": 0.1743,
      "velocity": 112,
      "chip": "ym2612"
    },
    {
      "channel": 3,
      "note": 71,
      "start": 97.3768,
      "duration": 0.1748,
      "velocity": 97,
      "chip": "ym2612"
    },
    {
      "channel": 4,
      "note": 67,
      "start": 97.4578,
      "duration": 0.1767,
      "velocity": 97,
      "chip": "ym2612"
    },
    {
      "channel": 0,
      "note": 60,
      "start": 97.5506,
      "duration": 0.1605,
      "velocity": 112,
      "chip": "ym2612"
    },
    {
      "channel": 1,
      "note": 81,
      "start": 97.5512,
      "duration": 0.1606,
      "velocity": 107,
      "chip": "ym2612"
    },
    {
      "channel": 3,
      "note": 72,
      "start": 97.5517,
      "duration": 0.1612,
      "velocity": 97,
      "chip": "ym2612"
    },
    {
      "channel": 4,
      "note": 71,
      "start": 97.6347,
      "duration": 0.1616,
      "velocity": 97,
      "chip": "ym2612"
    },
    {
      "channel": 0,
      "note": 55,
      "start": 97.7113,
      "duration": 0.1845,
      "velocity": 112,
      "chip": "ym2612"
    },
    {
      "channel": 1,
      "note": 86,
      "start": 97.7119,
      "duration": 3.0535,
      "velocity": 107,
      "chip": "ym2612"
    },
    {
      "channel": 2,
      "note": 83,
      "start": 97.7125,
      "duration": 3.0534,
      "velocity": 107,
      "chip": "ym2612"
    },
    {
      "channel": 3,
      "note": 74,
      "start": 97.7132,
      "duration": 1.9134,
      "velocity": 97,
      "chip": "ym2612"
    },
    {
      "channel": 4,
      "note": 72,
      "start": 97.7964,
      "duration": 0.1996,
      "velocity": 97,
      "chip": "ym2612"
    },
    {
      "channel": 0,
      "note": 67,
      "start": 97.896,
      "duration": 0.1999,
      "velocity": 112,
      "chip": "ym2612"
    },
    {
      "channel": 5,
      "note": 91,
      "start": 97.8969,
      "duration": 0.0997,
      "velocity": 127,
      "chip": "ym2612"
    },
    {
      "channel": 4,
      "note": 74,
      "start": 97.9962,
      "duration": 1.9031,
      "velocity": 97,
      "chip": "ym2612"
    },
    {
      "channel": 5,
      "note": 91,
      "start": 97.9968,
      "duration": 0.2804,
      "velocity": 127,
      "chip": "ym2612"
    },
    {
      "channel": 0,
      "note": 55,
      "start": 98.096,
      "duration": 0.1803,
      "velocity": 112,
      "chip": "ym2612"
    },
    {
      "channel": 0,
      "note": 67,
      "start": 98.2766,
      "duration": 0.1998,
      "velocity": 112,
      "chip": "ym2612"
    },
    {
      "channel": 5,
      "note": 91,
      "start": 98.2773,
      "duration": 0.0994,
      "velocity": 127,
      "chip": "ym2612"
    },
    {
      "channel": 5,
      "note": 91,
      "start": 98.3768,
      "duration": 0.2872,
      "velocity": 127,
      "chip": "ym2612"
    },
    {
      "channel": 0,
      "note": 55,
      "start": 98.4766,
      "duration": 0.1866,
      "velocity": 112,
      "chip": "ym2612"
    },
    {
      "channel": 0,
      "note": 67,
      "start": 98.6633,
      "duration": 0.1999,
      "velocity": 112,
      "chip": "ym2612"
    },
    {
      "channel": 5,
      "note": 91,
      "start": 98.6641,
      "duration": 0.0994,
      "velocity": 127,
      "chip": "ym2612"
    },
    {
      "channel": 5,
      "note": 91,
      "start": 98.7637,
      "duration": 0.2744,
      "velocity": 127,
      "chip": "ym2612"
    },
    {
      "channel": 0,
      "note": 55,
      "start": 98.8633,
      "duration": 0.174,
      "velocity": 112,
      "chip": "ym2612"
    },
    {
      "channel": 0,
      "note": 67,
      "start": 99.0375,
      "duration": 0.1999,
      "velocity": 112,
      "chip": "ym2612"
    },
    {
      "channel": 5,
      "note": 91,
      "start": 99.0383,
      "duration": 0.0994,
      "velocity": 127,
      "chip": "ym2612"
    },
    {
      "channel": 5,
      "note": 91,
      "start": 99.1378,
      "duration": 0.2873,
      "velocity": 127,
      "chip": "ym2612"
    },
    {
      "channel": 0,
      "note": 55,
      "start": 99.2375,
      "duration": 0.1868,
      "velocity": 112,
      "chip": "ym2612"
    },
    {
      "channel": 0,
      "note": 67,
      "start": 99.4244,
      "duration": 0.1999,
      "velocity": 112,
      "chip": "ym2612"
    },
    {
      "channel": 5,
      "note": 91,
      "start": 99.4252,
      "duration": 0.0994,
      "velocity": 127,
      "chip": "ym2612"
    },
    {
      "channel": 5,
      "note": 91,
      "start": 99.5247,
      "duration": 0.2751,
      "velocity": 127,
      "chip": "ym2612"
    },
    {
      "channel": 0,
      "note": 55,
      "start": 99.6244,
      "duration": 0.1746,
      "velocity": 112,
      "chip": "ym2612"
    },
    {
      "channel": 3,
      "note": 79,
      "start": 99.6267,
      "duration": 0.3731,
      "velocity": 97,
      "chip": "ym2612"
    },
    {
      "channel": 0,
      "note": 67,
      "start": 99.7992,
      "duration": 0.1999,
      "velocity": 112,
      "chip": "ym2612"
    },
    {
      "channel": 5,
      "note": 91,
      "start": 99.8,
      "duration": 0.0999,
      "velocity": 127,
      "chip": "ym2612"
    },
    {
      "channel": 4,
      "note": 79,
      "start": 99.8995,
      "duration": 0.3911,
      "velocity": 97,
      "chip": "ym2612"
    },
    {
      "channel": 5,
      "note": 91,
      "start": 99.9001,
      "duration": 0.2915,
      "velocity": 127,
      "chip": "ym2612"
    },
    {
      "channel": 0,
      "note": 55,
      "start": 99.9993,
      "duration": 0.191,
      "velocity": 112,
      "chip": "ym2612"
    },
    {
      "channel": 3,
      "note": 78,
      "start": 99.9999,
      "duration": 0.191,
      "velocity": 97,
      "chip": "ym2612"
    },
    {
      "channel": 0,
      "note": 67,
      "start": 100.1905,
      "duration": 0.1999,
      "velocity": 112,
      "chip": "ym2612"
    },
    {
      "channel": 3,
      "note": 76,
      "start": 100.1912,
      "duration": 0.1999,
      "velocity": 97,
      "chip": "ym2612"
    },
    {
      "channel": 5,
      "note": 91,
      "start": 100.1918,
      "duration": 0.0994,
      "velocity": 127,
      "chip": "ym2612"
    },
    {
      "channel": 4,
      "note": 78,
      "start": 100.2907,
      "duration": 0.1813,
      "velocity": 97,
      "chip": "ym2612"
    },
    {
      "channel": 5,
      "note": 91,
      "start": 100.2913,
      "duration": 0.2742,
      "velocity": 127,
      "chip": "ym2612"
    },
    {
      "channel": 0,
      "note": 55,
      "start": 100.3905,
      "duration": 0.1742,
      "velocity": 112,
      "chip": "ym2612"
    },
    {
      "channel": 3,
      "note": 74,
      "start": 100.3912,
      "duration": 0.3754,
      "velocity": 97,
      "chip": "ym2612"
    },
    {
      "channel": 4,
      "note": 76,
      "start": 100.4722,
      "duration": 0.1928,
      "velocity": 97,
      "chip": "ym2612"
    },
    {
      "channel": 0,
      "note": 67,
      "start": 100.5649,
      "duration": 0.2,
      "velocity": 112,
      "chip": "ym2612"
    },
    {
      "channel": 5,
      "note": 91,
      "start": 100.5657,
      "duration": 0.0998,
      "velocity": 127,
      "chip": "ym2612"
    },
    {
      "channel": 4,
      "note": 74,
      "start": 100.6652,
      "duration": 0.3887,
      "velocity": 97,
      "chip": "ym2612"
    },
    {
      "channel": 5,
      "note": 91,
      "start": 100.6657,
      "duration": 0.2887,
      "velocity": 127,
      "chip": "ym2612"
    },
    {
      "channel": 0,
      "note": 50,
      "start": 100.765,
      "duration": 0.1886,
      "velocity": 112,
      "chip": "ym2612"
    },
    {
      "channel": 1,
      "note": 78,
      "start": 100.7655,
      "duration": 2.1977,
      "velocity": 120,
      "chip": "ym2612"
    },
    {
      "channel": 2,
      "note": 81,
      "start": 100.7661,
      "duration": 2.9162,
      "velocity": 107,
      "chip": "ym2612"
    },
    {
      "channel": 3,
      "note": 78,
      "start": 100.7667,
      "duration": 2.9178,
      "velocity": 97,
      "chip": "ym2612"
    },
    {
      "channel": 0,
      "note": 62,
      "start": 100.9538,
      "duration": 0.1999,
      "velocity": 112,
      "chip": "ym2612"
    },
    {
      "channel": 5,
      "note": 91,
      "start": 100.9546,
      "duration": 0.0999,
      "velocity": 127,
      "chip": "ym2612"
    },
    {
      "channel": 4,
      "note": 78,
      "start": 101.0541,
      "duration": 2.6325,
      "velocity": 106,
      "chip": "ym2612"
    },
    {
      "channel": 5,
      "note": 91,
      "start": 101.0546,
      "duration": 0.2741,
      "velocity": 127,
      "chip": "ym2612"
    },
    {
      "channel": 0,
      "note": 50,
      "start": 101.1539,
      "duration": 0.1741,
      "velocity": 112,
      "chip": "ym2612"
    },
    {
      "channel": 0,
      "note": 62,
      "start": 101.3282,
      "duration": 0.1998,
      "velocity": 112,
      "chip": "ym2612"
    },
    {
      "channel": 5,
      "note": 91,
      "start": 101.3289,
      "duration": 0.0994,
      "velocity": 127,
      "chip": "ym2612"
    },
    {
      "channel": 5,
      "note": 91,
      "start": 101.4284,
      "duration": 0.2873,
      "velocity": 127,
      "chip": "ym2612"
    },
    {
      "channel": 0,
      "note": 50,
      "start": 101.5281,
      "duration": 0.1868,
      "velocity": 112,
      "chip": "ym2612"
    },
    {
      "channel": 0,
      "note": 62,
      "start": 101.7151,
      "duration": 0.1999,
      "velocity": 112,
      "chip": "ym2612"
    },
    {
      "channel": 5,
      "note": 91,
      "start": 101.7159,
      "duration": 0.0994,
      "velocity": 127,
      "chip": "ym2612"
    },
    {
      "channel": 5,
      "note": 91,
      "start": 101.8154,
      "duration": 0.2672,
      "velocity": 127,
      "chip": "ym2612"
    },
    {
      "channel": 0,
      "note": 50,
      "start": 101.9151,
      "duration": 0.1667,
      "velocity": 112,
      "chip": "ym2612"
    },
    {
      "channel": 0,
      "note": 62,
      "start": 102.082,
      "duration": 0.1998,
      "velocity": 112,
      "chip": "ym2612"
    },
    {
      "channel": 5,
      "note": 91,
      "start": 102.0827,
      "duration": 0.0994,
      "velocity": 127,
      "chip": "ym2612"
    },
    {
      "channel": 5,
      "note": 91,
      "start": 102.1822,
      "duration": 0.4322,
      "velocity": 93,
      "chip": "ym2612"
    },
    {
      "channel": 0,
      "note": 50,
      "start": 102.282,
      "duration": 0.1455,
      "velocity": 112,
      "chip": "ym2612"
    },
    {
      "channel": 0,
      "note": 62,
      "start": 102.4277,
      "duration": 0.1844,
      "velocity": 112,
      "chip": "ym2612"
    },
    {
      "channel": 0,
      "note": 50,
      "start": 102.6122,
      "duration": 0.1998,
      "velocity": 112,
      "chip": "ym2612"
    },
    {
      "channel": 5,
      "note": 26,
      "start": 102.6146,
      "duration": 0.0005,
      "velocity": 93,
      "chip": "ym2612"
    },
    {
      "channel": 5,
      "note": 27,
      "start": 102.6151,
      "duration": 0.0134,
      "velocity": 93,
      "chip": "ym2612"
    },
    {
      "channel": 5,
      "note": 27,
      "start": 102.6285,
      "duration": 0.0167,
      "velocity": 93,
      "chip": "ym2612"
    },
    {
      "channel": 5,
      "note": 28,
      "start": 102.6452,
      "duration": 0.0167,
      "velocity": 93,
      "chip": "ym2612"
    },
    {
      "channel": 5,
      "note": 28,
      "start": 102.6618,
      "duration": 0.0333,
      "velocity": 93,
      "chip": "ym2612"
    },
    {
      "channel": 5,
      "note": 29,
      "start": 102.6952,
      "duration": 0.0173,
      "velocity": 93,
      "chip": "ym2612"
    },
    {
      "channel": 5,
      "note": 29,
      "start": 102.7125,
      "duration": 0.0161,
      "velocity": 93,
      "chip": "ym2612"
    },
    {
      "channel": 5,
      "note": 30,
      "start": 102.7285,
      "duration": 0.0166,
      "velocity": 93,
      "chip": "ym2612"
    },
    {
      "channel": 5,
      "note": 30,
      "start": 102.7452,
      "duration": 0.0167,
      "velocity": 93,
      "chip": "ym2612"
    },
    {
      "channel": 5,
      "note": 31,
      "start": 102.7618,
      "duration": 0.0333,
      "velocity": 93,
      "chip": "ym2612"
    },
    {
      "channel": 5,
      "note": 31,
      "start": 102.7952,
      "duration": 0.0181,
      "velocity": 93,
      "chip": "ym2612"
    },
    {
      "channel": 0,
      "note": 62,
      "start": 102.8122,
      "duration": 0.149,
      "velocity": 112,
      "chip": "ym2612"
    },
    {
      "channel": 5,
      "note": 32,
      "start": 102.8133,
      "duration": 0.0114,
      "velocity": 93,
      "chip": "ym2612"
    },
    {
      "channel": 5,
      "note": 33,
      "start": 102.8246,
      "duration": 0.0125,
      "velocity": 93,
      "chip": "ym2612"
    },
    {
      "channel": 5,
      "note": 33,
      "start": 102.8372,
      "duration": 0.0122,
      "velocity": 93,
      "chip": "ym2612"
    },
    {
      "channel": 5,
      "note": 34,
      "start": 102.8494,
      "duration": 0.025,
      "velocity": 93,
      "chip": "ym2612"
    },
    {
      "channel": 5,
      "note": 35,
      "start": 102.8744,
      "duration": 0.0131,
      "velocity": 93,
      "chip": "ym2612"
    },
    {
      "channel": 5,
      "note": 36,
      "start": 102.8875,
      "duration": 0.0117,
      "velocity": 93,
      "chip": "ym2612"
    },
    {
      "channel": 5,
      "note": 36,
      "start": 102.8992,
      "duration": 0.0128,
      "velocity": 93,
      "chip": "ym2612"
    },
    {
      "channel": 5,
      "note": 37,
      "start": 102.9121,
      "duration": 0.0119,
      "velocity": 93,
      "chip": "ym2612"
    },
    {
      "channel": 5,
      "note": 38,
      "start": 102.9239,
      "duration": 0.0246,
      "velocity": 93,
      "chip": "ym2612"
    },
    {
      "channel": 5,
      "note": 38,
      "start": 102.9485,
      "duration": 0.016,
      "velocity": 93,
      "chip": "ym2612"
    },
    {
      "channel": 0,
      "note": 50,
      "start": 102.9613,
      "duration": 0.1853,
      "velocity": 112,
      "chip": "ym2612"
    },
    {
      "channel": 1,
      "note": 55,
      "start": 102.9634,
      "duration": 0.0832,
      "velocity": 120,
      "chip": "ym2612"
    },
    {
      "channel": 5,
      "note": 39,
      "start": 102.9645,
      "duration": 0.0099,
      "velocity": 93,
      "chip": "ym2612"
    },
    {
      "channel": 5,
      "note": 40,
      "start": 102.9745,
      "duration": 0.0122,
      "velocity": 93,
      "chip": "ym2612"
    },
    {
      "channel": 5,
      "note": 40,
      "start": 102.9867,
      "duration": 0.0127,
      "velocity": 93,
      "chip": "ym2612"
    },
    {
      "channel": 5,
      "note": 41,
      "start": 102.9994,
      "duration": 0.0304,
      "velocity": 93,
      "chip": "ym2612"
    },
    {
      "channel": 5,
      "note": 41,
      "start": 103.0298,
      "duration": 0.0178,
      "velocity": 93,
      "chip": "ym2612"
    },
    {
      "channel": 1,
      "note": 55,
      "start": 103.0469,
      "duration": 0.1003,
      "velocity": 120,
      "chip": "ym2612"
    },
    {
      "channel": 5,
      "note": 42,
      "start": 103.0476,
      "duration": 0.0155,
      "velocity": 93,
      "chip": "ym2612"
    },
    {
      "channel": 5,
      "note": 42,
      "start": 103.0631,
      "duration": 0.0167,
      "velocity": 93,
      "chip": "ym2612"
    },
    {
      "channel": 5,
      "note": 43,
      "start": 103.0798,
      "duration": 0.0167,
      "velocity": 93,
      "chip": "ym2612"
    },
    {
      "channel": 5,
      "note": 43,
      "start": 103.0964,
      "duration": 0.0333,
      "velocity": 93,
      "chip": "ym2612"
    },
    {
      "channel": 5,
      "note": 44,
      "start": 103.1298,
      "duration": 0.0182,
      "velocity": 93,
      "chip": "ym2612"
    },
    {
      "channel": 0,
      "note": 62,
      "start": 103.1468,
      "duration": 0.1998,
      "velocity": 112,
      "chip": "ym2612"
    },
    {
      "channel": 1,
      "note": 55,
      "start": 103.1473,
      "duration": 0.0994,
      "velocity": 120,
      "chip": "ym2612"
    },
    {
      "channel": 5,
      "note": 31,
      "start": 103.1481,
      "duration": 0.0005,
      "velocity": 93,
      "chip": "ym2612"
    },
    {
      "channel": 5,
      "note": 31,
      "start": 103.1487,
      "duration": 0.0144,
      "velocity": 93,
      "chip": "ym2612"
    },
    {
      "channel": 5,
      "note": 32,
      "start": 103.1631,
      "duration": 0.0167,
      "velocity": 93,
      "chip": "ym2612"
    },
    {
      "channel": 5,
      "note": 33,
      "start": 103.1798,
      "duration": 0.0167,
      "velocity": 93,
      "chip": "ym2612"
    },
    {
      "channel": 5,
      "note": 34,
      "start": 103.1965,
      "duration": 0.0333,
      "velocity": 93,
      "chip": "ym2612"
    },
    {
      "channel": 5,
      "note": 34,
      "start": 103.2298,
      "duration": 0.0179,
      "velocity": 93,
      "chip": "ym2612"
    },
    {
      "channel": 1,
      "note": 55,
      "start": 103.2469,
      "duration": 0.1003,
      "velocity": 120,
      "chip": "ym2612"
    },
    {
      "channel": 5,
      "note": 35,
      "start": 103.2476,
      "duration": 0.0155,
      "velocity": 93,
      "chip": "ym2612"
    },
    {
      "channel": 5,
      "note": 36,
      "start": 103.2631,
      "duration": 0.0167,
      "velocity": 93,
      "chip": "ym2612"
    },
    {
      "channel": 5,
      "note": 37,
      "start": 103.2798,
      "duration": 0.0167,
      "velocity": 93,
      "chip": "ym2612"
    },
    {
      "channel": 5,
      "note": 37,
      "start": 103.2964,
      "duration": 0.0333,
      "velocity": 93,
      "chip": "ym2612"
    },
    {
      "channel": 5,
      "note": 38,
      "start": 103.3298,
      "duration": 0.0186,
      "velocity": 93,
      "chip": "ym2612"
    },
    {
      "channel": 0,
      "note": 51,
      "start": 103.3468,
      "duration": 0.148,
      "velocity": 112,
      "chip": "ym2612"
    },
    {
      "channel": 1,
      "note": 48,
      "start": 103.3473,
      "duration": 0.0742,
      "velocity": 120,
      "chip": "ym2612"
    },
    {
      "channel": 5,
      "note": 39,
      "start": 103.3484,
      "duration": 0.0101,
      "velocity": 93,
      "chip": "ym2612"
    },
    {
      "channel": 5,
      "note": 39,
      "start": 103.3585,
      "duration": 0.0129,
      "velocity": 93,
      "chip": "ym2612"
    },
    {
      "channel": 5,
      "note": 40,
      "start": 103.3715,
      "duration": 0.0124,
      "velocity": 93,
      "chip": "ym2612"
    },
    {
      "channel": 5,
      "note": 40,
      "start": 103.3838,
      "duration": 0.0248,
      "velocity": 93,
      "chip": "ym2612"
    },
    {
      "channel": 5,
      "note": 41,
      "start": 103.4086,
      "duration": 0.0142,
      "velocity": 93,
      "chip": "ym2612"
    },
    {
      "channel": 1,
      "note": 48,
      "start": 103.4217,
      "duration": 0.0737,
      "velocity": 120,
      "chip": "ym2612"
    },
    {
      "channel": 5,
      "note": 41,
      "start": 103.4228,
      "duration": 0.0111,
      "velocity": 93,
      "chip": "ym2612"
    },
    {
      "channel": 5,
      "note": 42,
      "start": 103.4339,
      "duration": 0.0119,
      "velocity": 93,
      "chip": "ym2612"
    },
    {
      "channel": 5,
      "note": 42,
      "start": 103.4458,
      "duration": 0.0127,
      "velocity": 93,
      "chip": "ym2612"
    },
    {
      "channel": 5,
      "note": 43,
      "start": 103.4584,
      "duration": 0.0239,
      "velocity": 93,
      "chip": "ym2612"
    },
    {
      "channel": 5,
      "note": 43,
      "start": 103.4823,
      "duration": 0.0143,
      "velocity": 93,
      "chip": "ym2612"
    },
    {
      "channel": 0,
      "note": 63,
      "start": 103.495,
      "duration": 0.1846,
      "velocity": 112,
      "chip": "ym2612"
    },
    {
      "channel": 1,
      "note": 48,
      "start": 103.4956,
      "duration": 0.084,
      "velocity": 120,
      "chip": "ym2612"
    },
    {
      "channel": 5,
      "note": 44,
      "start": 103.4966,
      "duration": 0.011,
      "velocity": 93,
      "chip": "ym2612"
    },
    {
      "channel": 5,
      "note": 44,
      "start": 103.5076,
      "duration": 0.0124,
      "velocity": 93,
      "chip": "ym2612"
    },
    {
      "channel": 5,
      "note": 45,
      "start": 103.52,
      "duration": 0.0117,
      "velocity": 93,
      "chip": "ym2612"
    },
    {
      "channel": 5,
      "note": 46,
      "start": 103.5317,
      "duration": 0.0309,
      "velocity": 93,
      "chip": "ym2612"
    },
    {
      "channel": 5,
      "note": 47,
      "start": 103.5626,
      "duration": 0.0179,
      "velocity": 93,
      "chip": "ym2612"
    },
    {
      "channel": 1,
      "note": 48,
      "start": 103.5798,
      "duration": 0.102,
      "velocity": 107,
      "chip": "ym2612"
    },
    {
      "channel": 5,
      "note": 48,
      "start": 103.5805,
      "duration": 0.0155,
      "velocity": 93,
      "chip": "ym2612"
    },
    {
      "channel": 5,
      "note": 48,
      "start": 103.5959,
      "duration": 0.0167,
      "velocity": 93,
      "chip": "ym2612"
    },
    {
      "channel": 5,
      "note": 49,
      "start": 103.6126,
      "duration": 0.0166,
      "velocity": 93,
      "chip": "ym2612"
    },
    {
      "channel": 5,
      "note": 50,
      "start": 103.6293,
      "duration": 0.0333,
      "velocity": 93,
      "chip": "ym2612"
    },
    {
      "channel": 5,
      "note": 50,
      "start": 103.6626,
      "duration": 0.0251,
      "velocity": 93,
      "chip": "ym2612"
    },
    {
      "channel": 0,
      "note": 43,
      "start": 103.6798,
      "duration": 0.1847,
      "velocity": 112,
      "chip": "ym2612"
    },
    {
      "channel": 1,
      "note": 55,
      "start": 103.6819,
      "duration": 0.1832,
      "velocity": 107,
      "chip": "ym2612"
    },
    {
      "channel": 2,
      "note": 59,
      "start": 103.6825,
      "duration": 0.183,
      "velocity": 107,
      "chip": "ym2612"
    },
    {
      "channel": 3,
      "note": 83,
      "start": 103.6846,
      "duration": 1.1315,
      "velocity": 97,
      "chip": "ym2612"
    },
    {
      "channel": 4,
      "note": 79,
      "start": 103.6868,
      "duration": 0.0795,
      "velocity": 106,
      "chip": "ym2612"
    },
    {
      "channel": 5,
      "note": 51,
      "start": 103.6877,
      "duration": 0.0051,
      "velocity": 93,
      "chip": "ym2612"
    },
    {
      "channel": 5,
      "note": 52,
      "start": 103.6928,
      "duration": 0.0145,
      "velocity": 93,
      "chip": "ym2612"
    },
    {
      "channel": 5,
      "note": 52,
      "start": 103.7073,
      "duration": 0.0112,
      "velocity": 93,
      "chip": "ym2612"
    },
    {
      "channel": 5,
      "note": 53,
      "start": 103.7185,
      "duration": 0.029,
      "velocity": 93,
      "chip": "ym2612"
    },
    {
      "channel": 5,
      "note": 53,
      "start": 103.7475,
      "duration": 0.0196,
      "velocity": 93,
      "chip": "ym2612"
    },
    {
      "channel": 4,
      "note": 79,
      "start": 103.7665,
      "duration": 0.1013,
      "velocity": 106,
      "chip": "ym2612"
    },
    {
      "channel": 5,
      "note": 54,
      "start": 103.7671,
      "duration": 0.0138,
      "velocity": 93,
      "chip": "ym2612"
    },
    {
      "channel": 5,
      "note": 54,
      "start": 103.7809,
      "duration": 0.0167,
      "velocity": 93,
      "chip": "ym2612"
    },
    {
      "channel": 5,
      "note": 55,
      "start": 103.7976,
      "duration": 0.0167,
      "velocity": 93,
      "chip": "ym2612"
    },
    {
      "channel": 5,
      "note": 55,
      "start": 103.8142,
      "duration": 0.0333,
      "velocity": 93,
      "chip": "ym2612"
    },
    {
      "channel": 5,
      "note": 56,
      "start": 103.8476,
      "duration": 0.0224,
      "velocity": 127,
      "chip": "ym2612"
    },
    {
      "channel": 0,
      "note": 55,
      "start": 103.8647,
      "duration": 0.1998,
      "velocity": 112,
      "chip": "ym2612"
    },
    {
      "channel": 1,
      "note": 59,
      "start": 103.8652,
      "duration": 0.1998,
      "velocity": 107,
      "chip": "ym2612"
    },
    {
      "channel": 2,
      "note": 62,
      "start": 103.8658,
      "duration": 0.1998,
      "velocity": 107,
      "chip": "ym2612"
    },
    {
      "channel": 4,
      "note": 79,
      "start": 103.868,
      "duration": 0.0983,
      "velocity": 106,
      "chip": "ym2612"
    },
    {
      "channel": 5,
      "note": 91,
      "start": 103.8701,
      "duration": 0.0967,
      "velocity": 127,
      "chip": "ym2612"
    },
    {
      "channel": 4,
      "note": 79,
      "start": 103.9665,
      "duration": 0.1014,
      "velocity": 106,
      "chip": "ym2612"
    },
    {
      "channel": 5,
      "note": 91,
      "start": 103.9671,
      "duration": 0.2681,
      "velocity": 127,
      "chip": "ym2612"
    },
    {
      "channel": 0,
      "note": 43,
      "start": 104.0646,
      "duration": 0.1666,
      "velocity": 112,
      "chip": "ym2612"
    },
    {
      "channel": 1,
      "note": 62,
      "start": 104.0652,
      "duration": 0.1666,
      "velocity": 107,
      "chip": "ym2612"
    },
    {
      "channel": 2,
      "note": 67,
      "start": 104.0658,
      "duration": 0.1666,
      "velocity": 107,
      "chip": "ym2612"
    },
    {
      "channel": 4,
      "note": 79,
      "start": 104.068,
      "duration": 0.0687,
      "velocity": 106,
      "chip": "ym2612"
    },
    {
      "channel": 4,
      "note": 79,
      "start": 104.1369,
      "duration": 0.0977,
      "velocity": 106,
      "chip": "ym2612"
    },
    {
      "channel": 0,
      "note": 55,
      "start": 104.2315,
      "duration": 0.1998,
      "velocity": 112,
      "chip": "ym2612"
    },
    {
      "channel": 1,
      "note": 67,
      "start": 104.232,
      "duration": 0.1998,
      "velocity": 107,
      "chip": "ym2612"
    },
    {
      "channel": 2,
      "note": 71,
      "start": 104.2325,
      "duration": 0.1999,
      "velocity": 107,
      "chip": "ym2612"
    },
    {
      "channel": 4,
      "note": 81,
      "start": 104.2348,
      "duration": 0.0983,
      "velocity": 106,
      "chip": "ym2612"
    },
    {
      "channel": 5,
      "note": 91,
      "start": 104.2353,
      "duration": 0.0983,
      "velocity": 127,
      "chip": "ym2612"
    },
    {
      "channel": 4,
      "note": 81,
      "start": 104.3333,
      "duration": 0.0997,
      "velocity": 106,
      "chip": "ym2612"
    },
    {
      "channel": 5,
      "note": 91,
      "start": 104.3339,
      "duration": 0.2828,
      "velocity": 127,
      "chip": "ym2612"
    },
    {
      "channel": 0,
      "note": 43,
      "start": 104.4315,
      "duration": 0.1814,
      "velocity": 112,
      "chip": "ym2612"
    },
    {
      "channel": 1,
      "note": 71,
      "start": 104.432,
      "duration": 0.1814,
      "velocity": 107,
      "chip": "ym2612"
    },
    {
      "channel": 2,
      "note": 74,
      "start": 104.4325,
      "duration": 0.1814,
      "velocity": 107,
      "chip": "ym2612"
    },
    {
      "channel": 4,
      "note": 81,
      "start": 104.4332,
      "duration": 0.0799,
      "velocity": 106,
      "chip": "ym2612"
    },
    {
      "channel": 4,
      "note": 81,
      "start": 104.5132,
      "duration": 0.1029,
      "velocity": 106,
      "chip": "ym2612"
    },
    {
      "channel": 0,
      "note": 55,
      "start": 104.613,
      "duration": 0.1999,
      "velocity": 112,
      "chip": "ym2612"
    },
    {
      "channel": 1,
      "note": 67,
      "start": 104.6136,
      "duration": 0.1998,
      "velocity": 107,
      "chip": "ym2612"
    },
    {
      "channel": 2,
      "note": 71,
      "start": 104.6141,
      "duration": 0.1999,
      "velocity": 107,
      "chip": "ym2612"
    },
    {
      "channel": 4,
      "note": 83,
      "start": 104.6163,
      "duration": 0.0983,
      "velocity": 106,
      "chip": "ym2612"
    },
    {
      "channel": 5,
      "note": 91,
      "start": 104.6169,
      "duration": 0.0983,
      "velocity": 127,
      "chip": "ym2612"
    },
    {
      "channel": 4,
      "note": 83,
      "start": 104.7149,
      "duration": 0.1018,
      "velocity": 106,
      "chip": "ym2612"
    },
    {
      "channel": 5,
      "note": 91,
      "start": 104.7154,
      "duration": 0.264,
      "velocity": 127,
      "chip": "ym2612"
    },
    {
      "channel": 0,
      "note": 43,
      "start": 104.813,
      "duration": 0.162,
      "velocity": 112,
      "chip": "ym2612"
    },
    {
      "channel": 1,
      "note": 62,
      "start": 104.8136,
      "duration": 0.162,
      "velocity": 107,
      "chip": "ym2612"
    },
    {
      "channel": 2,
      "note": 67,
      "start": 104.8141,
      "duration": 0.162,
      "velocity": 107,
      "chip": "ym2612"
    },
    {
      "channel": 3,
      "note": 83,
      "start": 104.8162,
      "duration": 0.0014,
      "velocity": 97,
      "chip": "ym2612"
    },
    {
      "channel": 4,
      "note": 83,
      "start": 104.8168,
      "duration": 0.0661,
      "velocity": 106,
      "chip": "ym2612"
    },
    {
      "channel": 3,
      "note": 82,
      "start": 104.8176,
      "duration": 0.0084,
      "velocity": 97,
      "chip": "ym2612"
    },
    {
      "channel": 3,
      "note": 81,
      "start": 104.826,
      "duration": 0.011,
      "velocity": 97,
      "chip": "ym2612"
    },
    {
      "channel": 3,
      "note": 80,
      "start": 104.837,
      "duration": 0.011,
      "velocity": 97,
      "chip": "ym2612"
    },
    {
      "channel": 3,
      "note": 80,
      "start": 104.848,
      "duration": 0.0233,
      "velocity": 97,
      "chip": "ym2612"
    },
    {
      "channel": 3,
      "note": 79,
      "start": 104.8713,
      "duration": 0.0123,
      "velocity": 97,
      "chip": "ym2612"
    },
    {
      "channel": 4,
      "note": 83,
      "start": 104.8831,
      "duration": 0.0958,
      "velocity": 106,
      "chip": "ym2612"
    },
    {
      "channel": 3,
      "note": 79,
      "start": 104.8836,
      "duration": 0.0931,
      "velocity": 97,
      "chip": "ym2612"
    },
    {
      "channel": 0,
      "note": 55,
      "start": 104.9752,
      "duration": 0.1998,
      "velocity": 112,
      "chip": "ym2612"
    },
    {
      "channel": 1,
      "note": 59,
      "start": 104.9757,
      "duration": 0.1998,
      "velocity": 107,
      "chip": "ym2612"
    },
    {
      "channel": 2,
      "note": 62,
      "start": 104.9763,
      "duration": 0.1998,
      "velocity": 107,
      "chip": "ym2612"
    },
    {
      "channel": 3,
      "note": 79,
      "start": 104.9769,
      "duration": 0.0032,
      "velocity": 97,
      "chip": "ym2612"
    },
    {
      "channel": 4,
      "note": 81,
      "start": 104.979,
      "duration": 0.0978,
      "velocity": 106,
      "chip": "ym2612"
    },
    {
      "channel": 5,
      "note": 91,
      "start": 104.9795,
      "duration": 0.0979,
      "velocity": 127,
      "chip": "ym2612"
    },
    {
      "channel": 3,
      "note": 80,
      "start": 104.98,
      "duration": 0.0113,
      "velocity": 97,
      "chip": "ym2612"
    },
    {
      "channel": 3,
      "note": 80,
      "start": 104.9914,
      "duration": 0.0167,
      "velocity": 97,
      "chip": "ym2612"
    },
    {
      "channel": 3,
      "note": 81,
      "start": 105.008,
      "duration": 0.1686,
      "velocity": 97,
      "chip": "ym2612"
    },
    {
      "channel": 4,
      "note": 81,
      "start": 105.077,
      "duration": 0.1018,
      "velocity": 106,
      "chip": "ym2612"
    },
    {
      "channel": 5,
      "note": 91,
      "start": 105.0776,
      "duration": 0.2805,
      "velocity": 127,
      "chip": "ym2612"
    },
    {
      "channel": 0,
      "note": 50,
      "start": 105.1751,
      "duration": 0.1807,
      "velocity": 112,
      "chip": "ym2612"
    },
    {
      "channel": 1,
      "note": 54,
      "start": 105.1757,
      "duration": 0.1807,
      "velocity": 107,
      "chip": "ym2612"
    },
    {
      "channel": 2,
      "note": 57,
      "start": 105.1763,
      "duration": 0.1806,
      "velocity": 107,
      "chip": "ym2612"
    },
    {
      "channel": 3,
      "note": 81,
      "start": 105.1768,
      "duration": 0.003,
      "velocity": 97,
      "chip": "ym2612"
    },
    {
      "channel": 4,
      "note": 83,
      "start": 105.179,
      "duration": 0.0787,
      "velocity": 106,
      "chip": "ym2612"
    },
    {
      "channel": 3,
      "note": 82,
      "start": 105.1798,
      "duration": 0.0083,
      "velocity": 97,
      "chip": "ym2612"
    },
    {
      "channel": 3,
      "note": 83,
      "start": 105.1881,
      "duration": 0.0116,
      "velocity": 97,
      "chip": "ym2612"
    },
    {
      "channel": 3,
      "note": 83,
      "start": 105.1998,
      "duration": 0.3578,
      "velocity": 97,
      "chip": "ym2612"
    },
    {
      "channel": 4,
      "note": 83,
      "start": 105.2578,
      "duration": 0.0997,
      "velocity": 106,
      "chip": "ym2612"
    },
    {
      "channel": 0,
      "note": 62,
      "start": 105.356,
      "duration": 0.1999,
      "velocity": 112,
      "chip": "ym2612"
    },
    {
      "channel": 1,
      "note": 57,
      "start": 105.3566,
      "duration": 0.1999,
      "velocity": 107,
      "chip": "ym2612"
    },
    {
      "channel": 2,
      "note": 62,
      "start": 105.3571,
      "duration": 0.1999,
      "velocity": 107,
      "chip": "ym2612"
    },
    {
      "channel": 4,
      "note": 83,
      "start": 105.3577,
      "duration": 0.0983,
      "velocity": 106,
      "chip": "ym2612"
    },
    {
      "channel": 5,
      "note": 91,
      "start": 105.3583,
      "duration": 0.0983,
      "velocity": 127,
      "chip": "ym2612"
    },
    {
      "channel": 4,
      "note": 83,
      "start": 105.4562,
      "duration": 0.1034,
      "velocity": 106,
      "chip": "ym2612"
    },
    {
      "channel": 5,
      "note": 91,
      "start": 105.4568,
      "duration": 0.2698,
      "velocity": 127,
      "chip": "ym2612"
    },
    {
      "channel": 0,
      "note": 50,
      "start": 105.5561,
      "duration": 0.1683,
      "velocity": 112,
      "chip": "ym2612"
    },
    {
      "channel": 1,
      "note": 62,
      "start": 105.5566,
      "duration": 0.1683,
      "velocity": 107,
      "chip": "ym2612"
    },
    {
      "channel": 2,
      "note": 66,
      "start": 105.5571,
      "duration": 0.1683,
      "velocity": 107,
      "chip": "ym2612"
    },
    {
      "channel": 3,
      "note": 83,
      "start": 105.5577,
      "duration": 0.0029,
      "velocity": 97,
      "chip": "ym2612"
    },
    {
      "channel": 4,
      "note": 78,
      "start": 105.5598,
      "duration": 0.0707,
      "velocity": 106,
      "chip": "ym2612"
    },
    {
      "channel": 3,
      "note": 84,
      "start": 105.5606,
      "duration": 0.0078,
      "velocity": 97,
      "chip": "ym2612"
    },
    {
      "channel": 3,
      "note": 85,
      "start": 105.5685,
      "duration": 0.0116,
      "velocity": 97,
      "chip": "ym2612"
    },
    {
      "channel": 3,
      "note": 85,
      "start": 105.5801,
      "duration": 0.0116,
      "velocity": 97,
      "chip": "ym2612"
    },
    {
      "channel": 3,
      "note": 86,
      "start": 105.5917,
      "duration": 0.3343,
      "velocity": 97,
      "chip": "ym2612"
    },
    {
      "channel": 4,
      "note": 78,
      "start": 105.6307,
      "duration": 0.0953,
      "velocity": 106,
      "chip": "ym2612"
    },
    {
      "channel": 0,
      "note": 62,
      "start": 105.7245,
      "duration": 0.1999,
      "velocity": 112,
      "chip": "ym2612"
    },
    {
      "channel": 1,
      "note": 66,
      "start": 105.7251,
      "duration": 0.1999,
      "velocity": 107,
      "chip": "ym2612"
    },
    {
      "channel": 2,
      "note": 69,
      "start": 105.7256,
      "duration": 0.1999,
      "velocity": 107,
      "chip": "ym2612"
    },
    {
      "channel": 4,
      "note": 78,
      "start": 105.7262,
      "duration": 0.0983,
      "velocity": 106,
      "chip": "ym2612"
    },
    {
      "channel": 5,
      "note": 91,
      "start": 105.7268,
      "duration": 0.0983,
      "velocity": 127,
      "chip": "ym2612"
    },
    {
      "channel": 4,
      "note": 78,
      "start": 105.8247,
      "duration": 0.1034,
      "velocity": 106,
      "chip": "ym2612"
    },
    {
      "channel": 5,
      "note": 91,
      "start": 105.8253,
      "duration": 0.2873,
      "velocity": 127,
      "chip": "ym2612"
    },
    {
      "channel": 0,
      "note": 50,
      "start": 105.9246,
      "duration": 0.1842,
      "velocity": 112,
      "chip": "ym2612"
    },
    {
      "channel": 1,
      "note": 69,
      "start": 105.9251,
      "duration": 0.1843,
      "velocity": 107,
      "chip": "ym2612"
    },
    {
      "channel": 2,
      "note": 74,
      "start": 105.9256,
      "duration": 0.1842,
      "velocity": 107,
      "chip": "ym2612"
    },
    {
      "channel": 3,
      "note": 86,
      "start": 105.9262,
      "duration": 0.0029,
      "velocity": 97,
      "chip": "ym2612"
    },
    {
      "channel": 4,
      "note": 74,
      "start": 105.9283,
      "duration": 0.0823,
      "velocity": 106,
      "chip": "ym2612"
    },
    {
      "channel": 3,
      "note": 87,
      "start": 105.9291,
      "duration": 0.0079,
      "velocity": 97,
      "chip": "ym2612"
    },
    {
      "channel": 3,
      "note": 87,
      "start": 105.937,
      "duration": 0.0107,
      "velocity": 97,
      "chip": "ym2612"
    },
    {
      "channel": 3,
      "note": 88,
      "start": 105.9477,
      "duration": 0.3628,
      "velocity": 97,
      "chip": "ym2612"
    },
    {
      "channel": 4,
      "note": 74,
      "start": 106.0108,
      "duration": 0.1013,
      "velocity": 106,
      "chip": "ym2612"
    },
    {
      "channel": 0,
      "note": 62,
      "start": 106.1089,
      "duration": 0.1999,
      "velocity": 112,
      "chip": "ym2612"
    },
    {
      "channel": 1,
      "note": 66,
      "start": 106.1095,
      "duration": 0.1998,
      "velocity": 107,
      "chip": "ym2612"
    },
    {
      "channel": 2,
      "note": 69,
      "start": 106.11,
      "duration": 0.1999,
      "velocity": 107,
      "chip": "ym2612"
    },
    {
      "channel": 4,
      "note": 78,
      "start": 106.1122,
      "duration": 0.0983,
      "velocity": 106,
      "chip": "ym2612"
    },
    {
      "channel": 5,
      "note": 91,
      "start": 106.1128,
      "duration": 0.0983,
      "velocity": 127,
      "chip": "ym2612"
    },
    {
      "channel": 4,
      "note": 78,
      "start": 106.2108,
      "duration": 0.1018,
      "velocity": 106,
      "chip": "ym2612"
    },
    {
      "channel": 5,
      "note": 91,
      "start": 106.2114,
      "duration": 0.2708,
      "velocity": 127,
      "chip": "ym2612"
    },
    {
      "channel": 0,
      "note": 50,
      "start": 106.3089,
      "duration": 0.1694,
      "velocity": 112,
      "chip": "ym2612"
    },
    {
      "channel": 1,
      "note": 62,
      "start": 106.3095,
      "duration": 0.1694,
      "velocity": 107,
      "chip": "ym2612"
    },
    {
      "channel": 2,
      "note": 66,
      "start": 106.3101,
      "duration": 0.1693,
      "velocity": 107,
      "chip": "ym2612"
    },
    {
      "channel": 3,
      "note": 88,
      "start": 106.3106,
      "duration": 0.003,
      "velocity": 97,
      "chip": "ym2612"
    },
    {
      "channel": 4,
      "note": 81,
      "start": 106.3128,
      "duration": 0.0753,
      "velocity": 106,
      "chip": "ym2612"
    },
    {
      "channel": 3,
      "note": 87,
      "start": 106.3136,
      "duration": 0.008,
      "velocity": 97,
      "chip": "ym2612"
    },
    {
      "channel": 3,
      "note": 87,
      "start": 106.3216,
      "duration": 0.0107,
      "velocity": 97,
      "chip": "ym2612"
    },
    {
      "channel": 3,
      "note": 86,
      "start": 106.3323,
      "duration": 0.3477,
      "velocity": 97,
      "chip": "ym2612"
    },
    {
      "channel": 4,
      "note": 81,
      "start": 106.3883,
      "duration": 0.0934,
      "velocity": 106,
      "chip": "ym2612"
    },
    {
      "channel": 0,
      "note": 62,
      "start": 106.4785,
      "duration": 0.1999,
      "velocity": 112,
      "chip": "ym2612"
    },
    {
      "channel": 1,
      "note": 57,
      "start": 106.479,
      "duration": 0.1999,
      "velocity": 107,
      "chip": "ym2612"
    },
    {
      "channel": 2,
      "note": 62,
      "start": 106.4796,
      "duration": 0.1999,
      "velocity": 107,
      "chip": "ym2612"
    },
    {
      "channel": 4,
      "note": 86,
      "start": 106.4818,
      "duration": 0.0984,
      "velocity": 106,
      "chip": "ym2612"
    },
    {
      "channel": 5,
      "note": 91,
      "start": 106.4824,
      "duration": 0.0984,
      "velocity": 127,
      "chip": "ym2612"
    },
    {
      "channel": 4,
      "note": 86,
      "start": 106.5804,
      "duration": 0.1018,
      "velocity": 106,
      "chip": "ym2612"
    },
    {
      "channel": 5,
      "note": 91,
      "start": 106.581,
      "duration": 0.2804,
      "velocity": 127,
      "chip": "ym2612"
    },
    {
      "channel": 0,
      "note": 52,
      "start": 106.6785,
      "duration": 0.1789,
      "velocity": 112,
      "chip": "ym2612"
    },
    {
      "channel": 1,
      "note": 59,
      "start": 106.679,
      "duration": 0.179,
      "velocity": 107,
      "chip": "ym2612"
    },
    {
      "channel": 2,
      "note": 64,
      "start": 106.6796,
      "duration": 0.179,
      "velocity": 107,
      "chip": "ym2612"
    },
    {
      "channel": 3,
      "note": 86,
      "start": 106.6802,
      "duration": 0.0029,
      "velocity": 97,
      "chip": "ym2612"
    },
    {
      "channel": 4,
      "note": 88,
      "start": 106.6823,
      "duration": 0.077,
      "velocity": 106,
      "chip": "ym2612"
    },
    {
      "channel": 3,
      "note": 87,
      "start": 106.6831,
      "duration": 0.0079,
      "velocity": 97,
      "chip": "ym2612"
    },
    {
      "channel": 3,
      "note": 88,
      "start": 106.691,
      "duration": 0.0107,
      "velocity": 97,
      "chip": "ym2612"
    },
    {
      "channel": 3,
      "note": 89,
      "start": 106.7017,
      "duration": 0.0107,
      "velocity": 97,
      "chip": "ym2612"
    },
    {
      "channel": 3,
      "note": 90,
      "start": 106.7123,
      "duration": 0.0282,
      "velocity": 97,
      "chip": "ym2612"
    },
    {
      "channel": 3,
      "note": 91,
      "start": 106.7405,
      "duration": 0.0195,
      "velocity": 97,
      "chip": "ym2612"
    },
    {
      "channel": 4,
      "note": 88,
      "start": 106.7595,
      "duration": 0.1013,
      "velocity": 106,
      "chip": "ym2612"
    },
    {
      "channel": 3,
      "note": 91,
      "start": 106.7601,
      "duration": 1.0483,
      "velocity": 97,
      "chip": "ym2612"
    },
    {
      "channel": 0,
      "note": 64,
      "start": 106.8576,
      "duration": 0.1999,
      "velocity": 112,
      "chip": "ym2612"
    },
    {
      "channel": 1,
      "note": 64,
      "start": 106.8582,
      "duration": 0.1998,
      "velocity": 107,
      "chip": "ym2612"
    },
    {
      "channel": 2,
      "note": 67,
      "start": 106.8587,
      "duration": 0.1999,
      "velocity": 107,
      "chip": "ym2612"
    },
    {
      "channel": 4,
      "note": 88,
      "start": 106.861,
      "duration": 0.0983,
      "velocity": 106,
      "chip": "ym2612"
    },
    {
      "channel": 5,
      "note": 91,
      "start": 106.8615,
      "duration": 0.0983,
      "velocity": 127,
      "chip": "ym2612"
    },
    {
      "channel": 4,
      "note": 88,
      "start": 106.9595,
      "duration": 0.1014,
      "velocity": 106,
      "chip": "ym2612"
    },
    {
      "channel": 5,
      "note": 91,
      "start": 106.9601,
      "duration": 0.2681,
      "velocity": 127,
      "chip": "ym2612"
    },
    {
      "channel": 0,
      "note": 52,
      "start": 107.0576,
      "duration": 0.1666,
      "velocity": 112,
      "chip": "ym2612"
    },
    {
      "channel": 1,
      "note": 67,
      "start": 107.0582,
      "duration": 0.1666,
      "velocity": 107,
      "chip": "ym2612"
    },
    {
      "channel": 2,
      "note": 71,
      "start": 107.0588,
      "duration": 0.1666,
      "velocity": 107,
      "chip": "ym2612"
    },
    {
      "channel": 4,
      "note": 88,
      "start": 107.061,
      "duration": 0.0687,
      "velocity": 106,
      "chip": "ym2612"
    },
    {
      "channel": 4,
      "note": 88,
      "start": 107.1299,
      "duration": 0.0977,
      "velocity": 106,
      "chip": "ym2612"
    },
    {
      "channel": 0,
      "note": 64,
      "start": 107.2244,
      "duration": 0.1998,
      "velocity": 112,
      "chip": "ym2612"
    },
    {
      "channel": 1,
      "note": 71,
      "start": 107.225,
      "duration": 0.1998,
      "velocity": 107,
      "chip": "ym2612"
    },
    {
      "channel": 2,
      "note": 76,
      "start": 107.2255,
      "duration": 0.1999,
      "velocity": 107,
      "chip": "ym2612"
    },
    {
      "channel": 4,
      "note": 86,
      "start": 107.2278,
      "duration": 0.0983,
      "velocity": 106,
      "chip": "ym2612"
    },
    {
      "channel": 5,
      "note": 91,
      "start": 107.2283,
      "duration": 0.0983,
      "velocity": 127,
      "chip": "ym2612"
    },
    {
      "channel": 4,
      "note": 86,
      "start": 107.3263,
      "duration": 0.0997,
      "velocity": 106,
      "chip": "ym2612"
    },
    {
      "channel": 5,
      "note": 91,
      "start": 107.3269,
      "duration": 0.282,
      "velocity": 127,
      "chip": "ym2612"
    },
    {
      "channel": 0,
      "note": 52,
      "start": 107.4244,
      "duration": 0.1806,
      "velocity": 112,
      "chip": "ym2612"
    },
    {
      "channel": 1,
      "note": 76,
      "start": 107.425,
      "duration": 0.1806,
      "velocity": 107,
      "chip": "ym2612"
    },
    {
      "channel": 2,
      "note": 79,
      "start": 107.4255,
      "duration": 0.1806,
      "velocity": 107,
      "chip": "ym2612"
    },
    {
      "channel": 4,
      "note": 86,
      "start": 107.4262,
      "duration": 0.0791,
      "velocity": 106,
      "chip": "ym2612"
    },
    {
      "channel": 4,
      "note": 86,
      "start": 107.5054,
      "duration": 0.1029,
      "velocity": 106,
      "chip": "ym2612"
    },
    {
      "channel": 0,
      "note": 64,
      "start": 107.6052,
      "duration": 0.1999,
      "velocity": 112,
      "chip": "ym2612"
    },
    {
      "channel": 1,
      "note": 71,
      "start": 107.6058,
      "duration": 0.1998,
      "velocity": 107,
      "chip": "ym2612"
    },
    {
      "channel": 2,
      "note": 76,
      "start": 107.6063,
      "duration": 0.1999,
      "velocity": 107,
      "chip": "ym2612"
    },
    {
      "channel": 4,
      "note": 83,
      "start": 107.6085,
      "duration": 0.0983,
      "velocity": 106,
      "chip": "ym2612"
    },
    {
      "channel": 5,
      "note": 91,
      "start": 107.6091,
      "duration": 0.0983,
      "velocity": 127,
      "chip": "ym2612"
    },
    {
      "channel": 4,
      "note": 83,
      "start": 107.7071,
      "duration": 0.1018,
      "velocity": 106,
      "chip": "ym2612"
    },
    {
      "channel": 5,
      "note": 91,
      "start": 107.7076,
      "duration": 0.2754,
      "velocity": 127,
      "chip": "ym2612"
    },
    {
      "channel": 0,
      "note": 52,
      "start": 107.8052,
      "duration": 0.1736,
      "velocity": 112,
      "chip": "ym2612"
    },
    {
      "channel": 1,
      "note": 67,
      "start": 107.8058,
      "duration": 0.1735,
      "velocity": 107,
      "chip": "ym2612"
    },
    {
      "channel": 2,
      "note": 71,
      "start": 107.8063,
      "duration": 0.1735,
      "velocity": 107,
      "chip": "ym2612"
    },
    {
      "channel": 3,
      "note": 91,
      "start": 107.8084,
      "duration": 0.0014,
      "velocity": 97,
      "chip": "ym2612"
    },
    {
      "channel": 4,
      "note": 83,
      "start": 107.809,
      "duration": 0.0751,
      "velocity": 106,
      "chip": "ym2612"
    },
    {
      "channel": 3,
      "note": 92,
      "start": 107.8098,
      "duration": 0.0086,
      "velocity": 97,
      "chip": "ym2612"
    },
    {
      "channel": 3,
      "note": 93,
      "start": 107.8185,
      "duration": 0.162,
      "velocity": 97,
      "chip": "ym2612"
    },
    {
      "channel": 4,
      "note": 83,
      "start": 107.8842,
      "duration": 0.0983,
      "velocity": 106,
      "chip": "ym2612"
    },
    {
      "channel": 0,
      "note": 64,
      "start": 107.9789,
      "duration": 0.1999,
      "velocity": 112,
      "chip": "ym2612"
    },
    {
      "channel": 1,
      "note": 64,
      "start": 107.9794,
      "duration": 0.1999,
      "velocity": 107,
      "chip": "ym2612"
    },
    {
      "channel": 2,
      "note": 67,
      "start": 107.98,
      "duration": 0.1998,
      "velocity": 107,
      "chip": "ym2612"
    },
    {
      "channel": 3,
      "note": 93,
      "start": 107.9805,
      "duration": 0.0032,
      "velocity": 97,
      "chip": "ym2612"
    },
    {
      "channel": 4,
      "note": 79,
      "start": 107.9827,
      "duration": 0.0978,
      "velocity": 106,
      "chip": "ym2612"
    },
    {
      "channel": 5,
      "note": 91,
      "start": 107.9833,
      "duration": 0.0979,
      "velocity": 127,
      "chip": "ym2612"
    },
    {
      "channel": 3,
      "note": 92,
      "start": 107.9838,
      "duration": 0.0113,
      "velocity": 97,
      "chip": "ym2612"
    },
    {
      "channel": 3,
      "note": 91,
      "start": 107.9951,
      "duration": 0.1853,
      "velocity": 97,
      "chip": "ym2612"
    },
    {
      "channel": 4,
      "note": 79,
      "start": 108.0807,
      "duration": 0.1018,
      "velocity": 106,
      "chip": "ym2612"
    },
    {
      "channel": 5,
      "note": 91,
      "start": 108.0813,
      "duration": 0.2856,
      "velocity": 127,
      "chip": "ym2612"
    },
    {
      "channel": 0,
      "note": 48,
      "start": 108.1789,
      "duration": 0.1856,
      "velocity": 112,
      "chip": "ym2612"
    },
    {
      "channel": 1,
      "note": 60,
      "start": 108.1794,
      "duration": 0.1857,
      "velocity": 107,
      "chip": "ym2612"
    },
    {
      "channel": 2,
      "note": 55,
      "start": 108.18,
      "duration": 0.1857,
      "velocity": 107,
      "chip": "ym2612"
    },
    {
      "channel": 3,
      "note": 91,
      "start": 108.1806,
      "duration": 0.003,
      "velocity": 97,
      "chip": "ym2612"
    },
    {
      "channel": 4,
      "note": 81,
      "start": 108.1827,
      "duration": 0.0837,
      "velocity": 106,
      "chip": "ym2612"
    },
    {
      "channel": 3,
      "note": 90,
      "start": 108.1836,
      "duration": 0.0075,
      "velocity": 97,
      "chip": "ym2612"
    },
    {
      "channel": 3,
      "note": 89,
      "start": 108.191,
      "duration": 0.0128,
      "velocity": 97,
      "chip": "ym2612"
    },
    {
      "channel": 3,
      "note": 88,
      "start": 108.2038,
      "duration": 0.0142,
      "velocity": 97,
      "chip": "ym2612"
    },
    {
      "channel": 3,
      "note": 87,
      "start": 108.218,
      "duration": 0.0297,
      "velocity": 97,
      "chip": "ym2612"
    },
    {
      "channel": 3,
      "note": 86,
      "start": 108.2476,
      "duration": 0.0195,
      "velocity": 97,
      "chip": "ym2612"
    },
    {
      "channel": 4,
      "note": 81,
      "start": 108.2666,
      "duration": 0.0997,
      "velocity": 106,
      "chip": "ym2612"
    },
    {
      "channel": 3,
      "note": 86,
      "start": 108.2672,
      "duration": 0.8577,
      "velocity": 97,
      "chip": "ym2612"
    },
    {
      "channel": 0,
      "note": 60,
      "start": 108.3647,
      "duration": 0.1999,
      "velocity": 112,
      "chip": "ym2612"
    },
    {
      "channel": 1,
      "note": 64,
      "start": 108.3653,
      "duration": 0.1999,
      "velocity": 107,
      "chip": "ym2612"
    },
    {
      "channel": 2,
      "note": 60,
      "start": 108.3658,
      "duration": 0.1999,
      "velocity": 107,
      "chip": "ym2612"
    },
    {
      "channel": 4,
      "note": 81,
      "start": 108.3665,
      "duration": 0.0983,
      "velocity": 106,
      "chip": "ym2612"
    },
    {
      "channel": 5,
      "note": 91,
      "start": 108.367,
      "duration": 0.0983,
      "velocity": 127,
      "chip": "ym2612"
    },
    {
      "channel": 4,
      "note": 81,
      "start": 108.465,
      "duration": 0.1046,
      "velocity": 106,
      "chip": "ym2612"
    },
    {
      "channel": 5,
      "note": 91,
      "start": 108.4656,
      "duration": 0.2735,
      "velocity": 127,
      "chip": "ym2612"
    },
    {
      "channel": 0,
      "note": 48,
      "start": 108.5648,
      "duration": 0.172,
      "velocity": 112,
      "chip": "ym2612"
    },
    {
      "channel": 1,
      "note": 67,
      "start": 108.5653,
      "duration": 0.172,
      "velocity": 107,
      "chip": "ym2612"
    },
    {
      "channel": 2,
      "note": 64,
      "start": 108.5659,
      "duration": 0.172,
      "velocity": 107,
      "chip": "ym2612"
    },
    {
      "channel": 4,
      "note": 84,
      "start": 108.5697,
      "duration": 0.0742,
      "velocity": 106,
      "chip": "ym2612"
    },
    {
      "channel": 4,
      "note": 84,
      "start": 108.6441,
      "duration": 0.0944,
      "velocity": 106,
      "chip": "ym2612"
    },
    {
      "channel": 0,
      "note": 60,
      "start": 108.737,
      "duration": 0.1998,
      "velocity": 112,
      "chip": "ym2612"
    },
    {
      "channel": 1,
      "note": 72,
      "start": 108.7375,
      "duration": 0.1998,
      "velocity": 107,
      "chip": "ym2612"
    },
    {
      "channel": 2,
      "note": 67,
      "start": 108.738,
      "duration": 0.1999,
      "velocity": 107,
      "chip": "ym2612"
    },
    {
      "channel": 4,
      "note": 84,
      "start": 108.7387,
      "duration": 0.0983,
      "velocity": 106,
      "chip": "ym2612"
    },
    {
      "channel": 5,
      "note": 91,
      "start": 108.7393,
      "duration": 0.0983,
      "velocity": 127,
      "chip": "ym2612"
    },
    {
      "channel": 4,
      "note": 84,
      "start": 108.8372,
      "duration": 0.1029,
      "velocity": 106,
      "chip": "ym2612"
    },
    {
      "channel": 5,
      "note": 91,
      "start": 108.8378,
      "duration": 0.2881,
      "velocity": 127,
      "chip": "ym2612"
    },
    {
      "channel": 0,
      "note": 48,
      "start": 108.937,
      "duration": 0.1846,
      "velocity": 112,
      "chip": "ym2612"
    },
    {
      "channel": 1,
      "note": 76,
      "start": 108.9375,
      "duration": 0.1846,
      "velocity": 107,
      "chip": "ym2612"
    },
    {
      "channel": 2,
      "note": 72,
      "start": 108.938,
      "duration": 0.1846,
      "velocity": 107,
      "chip": "ym2612"
    },
    {
      "channel": 4,
      "note": 88,
      "start": 108.9403,
      "duration": 0.0832,
      "velocity": 106,
      "chip": "ym2612"
    },
    {
      "channel": 4,
      "note": 88,
      "start": 109.0236,
      "duration": 0.1018,
      "velocity": 106,
      "chip": "ym2612"
    },
    {
      "channel": 0,
      "note": 60,
      "start": 109.1217,
      "duration": 0.1999,
      "velocity": 112,
      "chip": "ym2612"
    },
    {
      "channel": 1,
      "note": 72,
      "start": 109.1223,
      "duration": 0.1998,
      "velocity": 107,
      "chip": "ym2612"
    },
    {
      "channel": 2,
      "note": 67,
      "start": 109.1229,
      "duration": 0.1998,
      "velocity": 107,
      "chip": "ym2612"
    },
    {
      "channel": 3,
      "note": 86,
      "start": 109.125,
      "duration": 0.0017,
      "velocity": 97,
      "chip": "ym2612"
    },
    {
      "channel": 4,
      "note": 88,
      "start": 109.1256,
      "duration": 0.0963,
      "velocity": 106,
      "chip": "ym2612"
    },
    {
      "channel": 5,
      "note": 91,
      "start": 109.1261,
      "duration": 0.0963,
      "velocity": 127,
      "chip": "ym2612"
    },
    {
      "channel": 3,
      "note": 85,
      "start": 109.1266,
      "duration": 0.0113,
      "velocity": 97,
      "chip": "ym2612"
    },
    {
      "channel": 3,
      "note": 84,
      "start": 109.138,
      "duration": 0.1853,
      "velocity": 97,
      "chip": "ym2612"
    },
    {
      "channel": 4,
      "note": 88,
      "start": 109.222,
      "duration": 0.1033,
      "velocity": 74,
      "chip": "ym2612"
    },
    {
      "channel": 5,
      "note": 91,
      "start": 109.2226,
      "duration": 0.6054,
      "velocity": 127,
      "chip": "ym2612"
    },
    {
      "channel": 0,
      "note": 48,
      "start": 109.3217,
      "duration": 0.1729,
      "velocity": 112,
      "chip": "ym2612"
    },
    {
      "channel": 1,
      "note": 67,
      "start": 109.3223,
      "duration": 0.1729,
      "velocity": 107,
      "chip": "ym2612"
    },
    {
      "channel": 2,
      "note": 64,
      "start": 109.3229,
      "duration": 0.1729,
      "velocity": 107,
      "chip": "ym2612"
    },
    {
      "channel": 3,
      "note": 84,
      "start": 109.3234,
      "duration": 0.0031,
      "velocity": 97,
      "chip": "ym2612"
    },
    {
      "channel": 4,
      "note": 83,
      "start": 109.3256,
      "duration": 0.0738,
      "velocity": 74,
      "chip": "ym2612"
    },
    {
      "channel": 3,
      "note": 83,
      "start": 109.3264,
      "duration": 0.1699,
      "velocity": 97,
      "chip": "ym2612"
    },
    {
      "channel": 4,
      "note": 79,
      "start": 109.3995,
      "duration": 0.0973,
      "velocity": 74,
      "chip": "ym2612"
    },
    {
      "channel": 0,
      "note": 60,
      "start": 109.4948,
      "duration": 0.1457,
      "velocity": 112,
      "chip": "ym2612"
    },
    {
      "channel": 1,
      "note": 64,
      "start": 109.4954,
      "duration": 0.1457,
      "velocity": 107,
      "chip": "ym2612"
    },
    {
      "channel": 2,
      "note": 60,
      "start": 109.4959,
      "duration": 0.1457,
      "velocity": 107,
      "chip": "ym2612"
    },
    {
      "channel": 3,
      "note": 83,
      "start": 109.4964,
      "duration": 0.0015,
      "velocity": 97,
      "chip": "ym2612"
    },
    {
      "channel": 4,
      "note": 74,
      "start": 109.497,
      "duration": 0.0735,
      "velocity": 74,
      "chip": "ym2612"
    },
    {
      "channel": 3,
      "note": 84,
      "start": 109.4979,
      "duration": 0.1457,
      "velocity": 97,
      "chip": "ym2612"
    },
    {
      "channel": 4,
      "note": 71,
      "start": 109.5707,
      "duration": 0.0719,
      "velocity": 74,
      "chip": "ym2612"
    },
    {
      "channel": 0,
      "note": 43,
      "start": 109.6407,
      "duration": 0.1834,
      "velocity": 112,
      "chip": "ym2612"
    },
    {
      "channel": 1,
      "note": 55,
      "start": 109.6412,
      "duration": 0.1834,
      "velocity": 107,
      "chip": "ym2612"
    },
    {
      "channel": 2,
      "note": 59,
      "start": 109.6419,
      "duration": 0.1833,
      "velocity": 107,
      "chip": "ym2612"
    },
    {
      "channel": 4,
      "note": 67,
      "start": 109.6427,
      "duration": 0.1846,
      "velocity": 74,
      "chip": "ym2612"
    },
    {
      "channel": 3,
      "note": 85,
      "start": 109.6436,
      "duration": 0.0115,
      "velocity": 97,
      "chip": "ym2612"
    },
    {
      "channel": 3,
      "note": 86,
      "start": 109.655,
      "duration": 1.8788,
      "velocity": 97,
      "chip": "ym2612"
    },
    {
      "channel": 0,
      "note": 55,
      "start": 109.8242,
      "duration": 0.1999,
      "velocity": 112,
      "chip": "ym2612"
    },
    {
      "channel": 1,
      "note": 59,
      "start": 109.8248,
      "duration": 0.1999,
      "velocity": 107,
      "chip": "ym2612"
    },
    {
      "channel": 2,
      "note": 62,
      "start": 109.8253,
      "duration": 0.1999,
      "velocity": 107,
      "chip": "ym2612"
    },
    {
      "channel": 4,
      "note": 67,
      "start": 109.8275,
      "duration": 0.2015,
      "velocity": 74,
      "chip": "ym2612"
    },
    {
      "channel": 5,
      "note": 91,
      "start": 109.8282,
      "duration": 0.0962,
      "velocity": 127,
      "chip": "ym2612"
    },
    {
      "channel": 5,
      "note": 91,
      "start": 109.9245,
      "duration": 0.276,
      "velocity": 127,
      "chip": "ym2612"
    },
    {
      "channel": 0,
      "note": 43,
      "start": 110.0243,
      "duration": 0.1723,
      "velocity": 112,
      "chip": "ym2612"
    },
    {
      "channel": 1,
      "note": 62,
      "start": 110.0248,
      "duration": 0.1724,
      "velocity": 107,
      "chip": "ym2612"
    },
    {
      "channel": 2,
      "note": 67,
      "start": 110.0254,
      "duration": 0.1724,
      "velocity": 107,
      "chip": "ym2612"
    },
    {
      "channel": 4,
      "note": 79,
      "start": 110.0292,
      "duration": 0.1707,
      "velocity": 74,
      "chip": "ym2612"
    },
    {
      "channel": 0,
      "note": 55,
      "start": 110.1968,
      "duration": 0.1998,
      "velocity": 112,
      "chip": "ym2612"
    },
    {
      "channel": 1,
      "note": 67,
      "start": 110.1974,
      "duration": 0.1998,
      "velocity": 107,
      "chip": "ym2612"
    },
    {
      "channel": 2,
      "note": 71,
      "start": 110.1979,
      "duration": 0.1999,
      "velocity": 107,
      "chip": "ym2612"
    },
    {
      "channel": 4,
      "note": 79,
      "start": 110.2001,
      "duration": 0.0983,
      "velocity": 74,
      "chip": "ym2612"
    },
    {
      "channel": 5,
      "note": 91,
      "start": 110.2007,
      "duration": 0.0983,
      "velocity": 127,
      "chip": "ym2612"
    },
    {
      "channel": 4,
      "note": 74,
      "start": 110.2987,
      "duration": 0.0997,
      "velocity": 74,
      "chip": "ym2612"
    },
    {
      "channel": 5,
      "note": 91,
      "start": 110.2992,
      "duration": 0.2825,
      "velocity": 127,
      "chip": "ym2612"
    },
    {
      "channel": 0,
      "note": 43,
      "start": 110.3968,
      "duration": 0.181,
      "velocity": 112,
      "chip": "ym2612"
    },
    {
      "channel": 1,
      "note": 71,
      "start": 110.3974,
      "duration": 0.181,
      "velocity": 107,
      "chip": "ym2612"
    },
    {
      "channel": 2,
      "note": 74,
      "start": 110.3979,
      "duration": 0.181,
      "velocity": 107,
      "chip": "ym2612"
    },
    {
      "channel": 4,
      "note": 76,
      "start": 110.3986,
      "duration": 0.081,
      "velocity": 74,
      "chip": "ym2612"
    },
    {
      "channel": 4,
      "note": 74,
      "start": 110.4798,
      "duration": 0.1013,
      "velocity": 74,
      "chip": "ym2612"
    },
    {
      "channel": 0,
      "note": 55,
      "start": 110.578,
      "duration": 0.1998,
      "velocity": 112,
      "chip": "ym2612"
    },
    {
      "channel": 1,
      "note": 67,
      "start": 110.5785,
      "duration": 0.1998,
      "velocity": 107,
      "chip": "ym2612"
    },
    {
      "channel": 2,
      "note": 71,
      "start": 110.579,
      "duration": 0.1999,
      "velocity": 107,
      "chip": "ym2612"
    },
    {
      "channel": 4,
      "note": 74,
      "start": 110.5813,
      "duration": 0.1983,
      "velocity": 74,
      "chip": "ym2612"
    },
    {
      "channel": 5,
      "note": 91,
      "start": 110.5818,
      "duration": 0.0963,
      "velocity": 127,
      "chip": "ym2612"
    },
    {
      "channel": 5,
      "note": 91,
      "start": 110.6783,
      "duration": 0.2722,
      "velocity": 127,
      "chip": "ym2612"
    },
    {
      "channel": 0,
      "note": 43,
      "start": 110.778,
      "duration": 0.1702,
      "velocity": 112,
      "chip": "ym2612"
    },
    {
      "channel": 1,
      "note": 62,
      "start": 110.7785,
      "duration": 0.1702,
      "velocity": 107,
      "chip": "ym2612"
    },
    {
      "channel": 2,
      "note": 67,
      "start": 110.779,
      "duration": 0.1702,
      "velocity": 107,
      "chip": "ym2612"
    },
    {
      "channel": 4,
      "note": 70,
      "start": 110.7798,
      "duration": 0.0732,
      "velocity": 74,
      "chip": "ym2612"
    },
    {
      "channel": 4,
      "note": 71,
      "start": 110.8531,
      "duration": 0.0968,
      "velocity": 74,
      "chip": "ym2612"
    },
    {
      "channel": 0,
      "note": 55,
      "start": 110.9483,
      "duration": 0.1998,
      "velocity": 112,
      "chip": "ym2612"
    },
    {
      "channel": 1,
      "note": 59,
      "start": 110.9489,
      "duration": 0.1998,
      "velocity": 107,
      "chip": "ym2612"
    },
    {
      "channel": 2,
      "note": 62,
      "start": 110.9494,
      "duration": 0.1999,
      "velocity": 107,
      "chip": "ym2612"
    },
    {
      "channel": 4,
      "note": 74,
      "start": 110.9501,
      "duration": 0.0999,
      "velocity": 74,
      "chip": "ym2612"
    },
    {
      "channel": 5,
      "note": 91,
      "start": 110.9507,
      "duration": 0.0999,
      "velocity": 127,
      "chip": "ym2612"
    },
    {
      "channel": 4,
      "note": 71,
      "start": 111.0502,
      "duration": 0.1013,
      "velocity": 74,
      "chip": "ym2612"
    },
    {
      "channel": 5,
      "note": 91,
      "start": 111.0507,
      "duration": 0.2836,
      "velocity": 127,
      "chip": "ym2612"
    },
    {
      "channel": 0,
      "note": 50,
      "start": 111.1483,
      "duration": 0.1822,
      "velocity": 112,
      "chip": "ym2612"
    },
    {
      "channel": 1,
      "note": 54,
      "start": 111.1489,
      "duration": 0.1822,
      "velocity": 107,
      "chip": "ym2612"
    },
    {
      "channel": 2,
      "note": 57,
      "start": 111.1494,
      "duration": 0.1822,
      "velocity": 107,
      "chip": "ym2612"
    },
    {
      "channel": 4,
      "note": 62,
      "start": 111.1516,
      "duration": 0.1822,
      "velocity": 74,
      "chip": "ym2612"
    },
    {
      "channel": 0,
      "note": 62,
      "start": 111.3307,
      "duration": 0.1999,
      "velocity": 112,
      "chip": "ym2612"
    },
    {
      "channel": 1,
      "note": 57,
      "start": 111.3312,
      "duration": 0.1999,
      "velocity": 107,
      "chip": "ym2612"
    },
    {
      "channel": 2,
      "note": 62,
      "start": 111.3318,
      "duration": 0.1999,
      "velocity": 107,
      "chip": "ym2612"
    },
    {
      "channel": 4,
      "note": 62,
      "start": 111.334,
      "duration": 0.2019,
      "velocity": 74,
      "chip": "ym2612"
    },
    {
      "channel": 5,
      "note": 91,
      "start": 111.3346,
      "duration": 0.0963,
      "velocity": 127,
      "chip": "ym2612"
    },
    {
      "channel": 5,
      "note": 91,
      "start": 111.4311,
      "duration": 0.2751,
      "velocity": 127,
      "chip": "ym2612"
    },
    {
      "channel": 0,
      "note": 50,
      "start": 111.5307,
      "duration": 0.1715,
      "velocity": 112,
      "chip": "ym2612"
    },
    {
      "channel": 1,
      "note": 62,
      "start": 111.5312,
      "duration": 0.1716,
      "velocity": 107,
      "chip": "ym2612"
    },
    {
      "channel": 2,
      "note": 66,
      "start": 111.5318,
      "duration": 0.1715,
      "velocity": 107,
      "chip": "ym2612"
    },
    {
      "channel": 3,
      "note": 86,
      "start": 111.5339,
      "duration": 0.003,
      "velocity": 97,
      "chip": "ym2612"
    },
    {
      "channel": 4,
      "note": 69,
      "start": 111.5361,
      "duration": 0.1695,
      "velocity": 74,
      "chip": "ym2612"
    },
    {
      "channel": 3,
      "note": 85,
      "start": 111.5369,
      "duration": 0.0073,
      "velocity": 97,
      "chip": "ym2612"
    },
    {
      "channel": 3,
      "note": 85,
      "start": 111.5442,
      "duration": 0.011,
      "velocity": 97,
      "chip": "ym2612"
    },
    {
      "channel": 3,
      "note": 84,
      "start": 111.5553,
      "duration": 0.3487,
      "velocity": 97,
      "chip": "ym2612"
    },
    {
      "channel": 0,
      "note": 62,
      "start": 111.7024,
      "duration": 0.1999,
      "velocity": 112,
      "chip": "ym2612"
    },
    {
      "channel": 1,
      "note": 66,
      "start": 111.703,
      "duration": 0.1999,
      "velocity": 107,
      "chip": "ym2612"
    },
    {
      "channel": 2,
      "note": 69,
      "start": 111.7035,
      "duration": 0.1999,
      "velocity": 107,
      "chip": "ym2612"
    },
    {
      "channel": 4,
      "note": 69,
      "start": 111.7057,
      "duration": 0.0983,
      "velocity": 74,
      "chip": "ym2612"
    },
    {
      "channel": 5,
      "note": 91,
      "start": 111.7063,
      "duration": 0.0983,
      "velocity": 127,
      "chip": "ym2612"
    },
    {
      "channel": 4,
      "note": 66,
      "start": 111.8043,
      "duration": 0.1003,
      "velocity": 74,
      "chip": "ym2612"
    },
    {
      "channel": 5,
      "note": 91,
      "start": 111.8049,
      "duration": 0.2876,
      "velocity": 127,
      "chip": "ym2612"
    },
    {
      "channel": 0,
      "note": 50,
      "start": 111.9025,
      "duration": 0.1856,
      "velocity": 112,
      "chip": "ym2612"
    },
    {
      "channel": 1,
      "note": 69,
      "start": 111.903,
      "duration": 0.1857,
      "velocity": 107,
      "chip": "ym2612"
    },
    {
      "channel": 2,
      "note": 74,
      "start": 111.9036,
      "duration": 0.1856,
      "velocity": 107,
      "chip": "ym2612"
    },
    {
      "channel": 3,
      "note": 84,
      "start": 111.9041,
      "duration": 0.0015,
      "velocity": 97,
      "chip": "ym2612"
    },
    {
      "channel": 4,
      "note": 69,
      "start": 111.9047,
      "duration": 0.0852,
      "velocity": 74,
      "chip": "ym2612"
    },
    {
      "channel": 3,
      "note": 83,
      "start": 111.9056,
      "duration": 0.0089,
      "velocity": 97,
      "chip": "ym2612"
    },
    {
      "channel": 3,
      "note": 83,
      "start": 111.9146,
      "duration": 0.1752,
      "velocity": 97,
      "chip": "ym2612"
    },
    {
      "channel": 4,
      "note": 66,
      "start": 111.9901,
      "duration": 0.1018,
      "velocity": 74,
      "chip": "ym2612"
    },
    {
      "channel": 0,
      "note": 62,
      "start": 112.0883,
      "duration": 0.1998,
      "velocity": 112,
      "chip": "ym2612"
    },
    {
      "channel": 1,
      "note": 66,
      "start": 112.0888,
      "duration": 0.1999,
      "velocity": 107,
      "chip": "ym2612"
    },
    {
      "channel": 2,
      "note": 69,
      "start": 112.0894,
      "duration": 0.1998,
      "velocity": 107,
      "chip": "ym2612"
    },
    {
      "channel": 3,
      "note": 83,
      "start": 112.09,
      "duration": 0.0032,
      "velocity": 97,
      "chip": "ym2612"
    },
    {
      "channel": 4,
      "note": 66,
      "start": 112.0921,
      "duration": 0.1983,
      "velocity": 74,
      "chip": "ym2612"
    },
    {
      "channel": 5,
      "note": 91,
      "start": 112.0926,
      "duration": 0.0958,
      "velocity": 127,
      "chip": "ym2612"
    },
    {
      "channel": 3,
      "note": 82,
      "start": 112.0931,
      "duration": 0.0113,
      "velocity": 97,
      "chip": "ym2612"
    },
    {
      "channel": 3,
      "note": 81,
      "start": 112.1045,
      "duration": 0.0167,
      "velocity": 97,
      "chip": "ym2612"
    },
    {
      "channel": 3,
      "note": 81,
      "start": 112.1211,
      "duration": 0.1686,
      "velocity": 97,
      "chip": "ym2612"
    },
    {
      "channel": 5,
      "note": 91,
      "start": 112.1886,
      "duration": 0.2731,
      "velocity": 127,
      "chip": "ym2612"
    },
    {
      "channel": 0,
      "note": 50,
      "start": 112.2883,
      "duration": 0.1706,
      "velocity": 112,
      "chip": "ym2612"
    },
    {
      "channel": 1,
      "note": 62,
      "start": 112.2888,
      "duration": 0.1707,
      "velocity": 107,
      "chip": "ym2612"
    },
    {
      "channel": 2,
      "note": 66,
      "start": 112.2894,
      "duration": 0.1706,
      "velocity": 107,
      "chip": "ym2612"
    },
    {
      "channel": 3,
      "note": 81,
      "start": 112.29,
      "duration": 0.0015,
      "velocity": 97,
      "chip": "ym2612"
    },
    {
      "channel": 4,
      "note": 74,
      "start": 112.2905,
      "duration": 0.1707,
      "velocity": 74,
      "chip": "ym2612"
    },
    {
      "channel": 3,
      "note": 80,
      "start": 112.2914,
      "duration": 0.0087,
      "velocity": 97,
      "chip": "ym2612"
    },
    {
      "channel": 3,
      "note": 80,
      "start": 112.3001,
      "duration": 0.0123,
      "velocity": 97,
      "chip": "ym2612"
    },
    {
      "channel": 3,
      "note": 79,
      "start": 112.3124,
      "duration": 0.0141,
      "velocity": 97,
      "chip": "ym2612"
    },
    {
      "channel": 3,
      "note": 79,
      "start": 112.3264,
      "duration": 0.1341,
      "velocity": 97,
      "chip": "ym2612"
    },
    {
      "channel": 0,
      "note": 62,
      "start": 112.4591,
      "duration": 0.1999,
      "velocity": 112,
      "chip": "ym2612"
    },
    {
      "channel": 1,
      "note": 57,
      "start": 112.4596,
      "duration": 0.2,
      "velocity": 107,
      "chip": "ym2612"
    },
    {
      "channel": 2,
      "note": 62,
      "start": 112.4602,
      "duration": 0.2,
      "velocity": 107,
      "chip": "ym2612"
    },
    {
      "channel": 3,
      "note": 79,
      "start": 112.4607,
      "duration": 0.0017,
      "velocity": 97,
      "chip": "ym2612"
    },
    {
      "channel": 4,
      "note": 69,
      "start": 112.4613,
      "duration": 0.2013,
      "velocity": 99,
      "chip": "ym2612"
    },
    {
      "channel": 5,
      "note": 91,
      "start": 112.4619,
      "duration": 0.0974,
      "velocity": 127,
      "chip": "ym2612"
    },
    {
      "channel": 3,
      "note": 79,
      "start": 112.4624,
      "duration": 0.0129,
      "velocity": 97,
      "chip": "ym2612"
    },
    {
      "channel": 3,
      "note": 80,
      "start": 112.4752,
      "duration": 0.0167,
      "velocity": 97,
      "chip": "ym2612"
    },
    {
      "channel": 3,
      "note": 81,
      "start": 112.4919,
      "duration": 0.0167,
      "velocity": 97,
      "chip": "ym2612"
    },
    {
      "channel": 3,
      "note": 81,
      "start": 112.5086,
      "duration": 0.155,
      "velocity": 97,
      "chip": "ym2612"
    },
    {
      "channel": 5,
      "note": 91,
      "start": 112.5595,
      "duration": 0.2875,
      "velocity": 127,
      "chip": "ym2612"
    },
    {
      "channel": 0,
      "note": 43,
      "start": 112.6591,
      "duration": 0.1859,
      "velocity": 112,
      "chip": "ym2612"
    },
    {
      "channel": 1,
      "note": 55,
      "start": 112.6597,
      "duration": 0.1859,
      "velocity": 107,
      "chip": "ym2612"
    },
    {
      "channel": 2,
      "note": 59,
      "start": 112.6603,
      "duration": 0.1859,
      "velocity": 107,
      "chip": "ym2612"
    },
    {
      "channel": 4,
      "note": 83,
      "start": 112.6628,
      "duration": 0.941,
      "velocity": 99,
      "chip": "ym2612"
    },
    {
      "channel": 3,
      "note": 82,
      "start": 112.6636,
      "duration": 0.009,
      "velocity": 97,
      "chip": "ym2612"
    },
    {
      "channel": 3,
      "note": 83,
      "start": 112.6726,
      "duration": 0.0143,
      "velocity": 97,
      "chip": "ym2612"
    },
    {
      "channel": 3,
      "note": 83,
      "start": 112.6869,
      "duration": 1.4864,
      "velocity": 97,
      "chip": "ym2612"
    },
    {
      "channel": 0,
      "note": 55,
      "start": 112.8452,
      "duration": 0.1998,
      "velocity": 112,
      "chip": "ym2612"
    },
    {
      "channel": 1,
      "note": 59,
      "start": 112.8458,
      "duration": 0.1998,
      "velocity": 107,
      "chip": "ym2612"
    },
    {
      "channel": 2,
      "note": 62,
      "start": 112.8463,
      "duration": 0.1999,
      "velocity": 107,
      "chip": "ym2612"
    },
    {
      "channel": 5,
      "note": 91,
      "start": 112.8471,
      "duration": 0.0983,
      "velocity": 127,
      "chip": "ym2612"
    },
    {
      "channel": 5,
      "note": 91,
      "start": 112.9455,
      "duration": 0.2733,
      "velocity": 127,
      "chip": "ym2612"
    },
    {
      "channel": 0,
      "note": 43,
      "start": 113.0452,
      "duration": 0.1717,
      "velocity": 112,
      "chip": "ym2612"
    },
    {
      "channel": 1,
      "note": 62,
      "start": 113.0458,
      "duration": 0.1717,
      "velocity": 107,
      "chip": "ym2612"
    },
    {
      "channel": 2,
      "note": 67,
      "start": 113.0463,
      "duration": 0.1717,
      "velocity": 107,
      "chip": "ym2612"
    },
    {
      "channel": 0,
      "note": 55,
      "start": 113.2171,
      "duration": 0.1999,
      "velocity": 112,
      "chip": "ym2612"
    },
    {
      "channel": 1,
      "note": 67,
      "start": 113.2177,
      "duration": 0.1998,
      "velocity": 107,
      "chip": "ym2612"
    },
    {
      "channel": 2,
      "note": 71,
      "start": 113.2183,
      "duration": 0.1998,
      "velocity": 107,
      "chip": "ym2612"
    },
    {
      "channel": 5,
      "note": 91,
      "start": 113.219,
      "duration": 0.0983,
      "velocity": 127,
      "chip": "ym2612"
    },
    {
      "channel": 5,
      "note": 91,
      "start": 113.3174,
      "duration": 0.2869,
      "velocity": 127,
      "chip": "ym2612"
    },
    {
      "channel": 0,
      "note": 43,
      "start": 113.4171,
      "duration": 0.185,
      "velocity": 112,
      "chip": "ym2612"
    },
    {
      "channel": 1,
      "note": 71,
      "start": 113.4177,
      "duration": 0.1849,
      "velocity": 107,
      "chip": "ym2612"
    },
    {
      "channel": 2,
      "note": 74,
      "start": 113.4183,
      "duration": 0.1849,
      "velocity": 107,
      "chip": "ym2612"
    },
    {
      "channel": 0,
      "note": 55,
      "start": 113.6022,
      "duration": 0.1998,
      "velocity": 112,
      "chip": "ym2612"
    },
    {
      "channel": 1,
      "note": 67,
      "start": 113.6028,
      "duration": 0.1998,
      "velocity": 107,
      "chip": "ym2612"
    },
    {
      "channel": 2,
      "note": 71,
      "start": 113.6033,
      "duration": 0.1999,
      "velocity": 107,
      "chip": "ym2612"
    },
    {
      "channel": 4,
      "note": 81,
      "start": 113.604,
      "duration": 0.1998,
      "velocity": 99,
      "chip": "ym2612"
    },
    {
      "channel": 5,
      "note": 91,
      "start": 113.6045,
      "duration": 0.0978,
      "velocity": 127,
      "chip": "ym2612"
    },
    {
      "channel": 5,
      "note": 91,
      "start": 113.7026,
      "duration": 0.27,
      "velocity": 127,
      "chip": "ym2612"
    },
    {
      "channel": 0,
      "note": 43,
      "start": 113.8022,
      "duration": 0.168,
      "velocity": 112,
      "chip": "ym2612"
    },
    {
      "channel": 1,
      "note": 62,
      "start": 113.8028,
      "duration": 0.168,
      "velocity": 107,
      "chip": "ym2612"
    },
    {
      "channel": 2,
      "note": 67,
      "start": 113.8033,
      "duration": 0.1681,
      "velocity": 107,
      "chip": "ym2612"
    },
    {
      "channel": 4,
      "note": 79,
      "start": 113.804,
      "duration": 0.0704,
      "velocity": 99,
      "chip": "ym2612"
    },
    {
      "channel": 4,
      "note": 81,
      "start": 113.8745,
      "duration": 0.0975,
      "velocity": 99,
      "chip": "ym2612"
    },
    {
      "channel": 0,
      "note": 55,
      "start": 113.9705,
      "duration": 0.1999,
      "velocity": 112,
      "chip": "ym2612"
    },
    {
      "channel": 1,
      "note": 59,
      "start": 113.971,
      "duration": 0.1999,
      "velocity": 107,
      "chip": "ym2612"
    },
    {
      "channel": 2,
      "note": 62,
      "start": 113.9716,
      "duration": 0.1999,
      "velocity": 107,
      "chip": "ym2612"
    },
    {
      "channel": 4,
      "note": 83,
      "start": 113.9722,
      "duration": 0.2001,
      "velocity": 99,
      "chip": "ym2612"
    },
    {
      "channel": 5,
      "note": 91,
      "start": 113.9728,
      "duration": 0.0978,
      "velocity": 127,
      "chip": "ym2612"
    },
    {
      "channel": 5,
      "note": 91,
      "start": 114.0708,
      "duration": 0.2824,
      "velocity": 127,
      "chip": "ym2612"
    },
    {
      "channel": 0,
      "note": 50,
      "start": 114.1705,
      "duration": 0.1808,
      "velocity": 112,
      "chip": "ym2612"
    },
    {
      "channel": 1,
      "note": 54,
      "start": 114.171,
      "duration": 0.1809,
      "velocity": 107,
      "chip": "ym2612"
    },
    {
      "channel": 2,
      "note": 57,
      "start": 114.1716,
      "duration": 0.1808,
      "velocity": 107,
      "chip": "ym2612"
    },
    {
      "channel": 4,
      "note": 81,
      "start": 114.1724,
      "duration": 0.7551,
      "velocity": 99,
      "chip": "ym2612"
    },
    {
      "channel": 3,
      "note": 81,
      "start": 114.1733,
      "duration": 1.5152,
      "velocity": 97,
      "chip": "ym2612"
    },
    {
      "channel": 0,
      "note": 62,
      "start": 114.3515,
      "duration": 0.1998,
      "velocity": 112,
      "chip": "ym2612"
    },
    {
      "channel": 1,
      "note": 57,
      "start": 114.3521,
      "duration": 0.1998,
      "velocity": 107,
      "chip": "ym2612"
    },
    {
      "channel": 2,
      "note": 62,
      "start": 114.3526,
      "duration": 0.1998,
      "velocity": 107,
      "chip": "ym2612"
    },
    {
      "channel": 5,
      "note": 91,
      "start": 114.3533,
      "duration": 0.0984,
      "velocity": 127,
      "chip": "ym2612"
    },
    {
      "channel": 5,
      "note": 91,
      "start": 114.4518,
      "duration": 0.2758,
      "velocity": 127,
      "chip": "ym2612"
    },
    {
      "channel": 0,
      "note": 50,
      "start": 114.5515,
      "duration": 0.1744,
      "velocity": 112,
      "chip": "ym2612"
    },
    {
      "channel": 1,
      "note": 62,
      "start": 114.552,
      "duration": 0.1743,
      "velocity": 107,
      "chip": "ym2612"
    },
    {
      "channel": 2,
      "note": 66,
      "start": 114.5526,
      "duration": 0.1743,
      "velocity": 107,
      "chip": "ym2612"
    },
    {
      "channel": 0,
      "note": 62,
      "start": 114.726,
      "duration": 0.1999,
      "velocity": 112,
      "chip": "ym2612"
    },
    {
      "channel": 1,
      "note": 66,
      "start": 114.7266,
      "duration": 0.1999,
      "velocity": 107,
      "chip": "ym2612"
    },
    {
      "channel": 2,
      "note": 69,
      "start": 114.7271,
      "duration": 0.1999,
      "velocity": 107,
      "chip": "ym2612"
    },
    {
      "channel": 5,
      "note": 91,
      "start": 114.7278,
      "duration": 0.0983,
      "velocity": 127,
      "chip": "ym2612"
    },
    {
      "channel": 5,
      "note": 91,
      "start": 114.8263,
      "duration": 0.2868,
      "velocity": 127,
      "chip": "ym2612"
    },
    {
      "channel": 0,
      "note": 50,
      "start": 114.926,
      "duration": 0.1853,
      "velocity": 112,
      "chip": "ym2612"
    },
    {
      "channel": 1,
      "note": 69,
      "start": 114.9266,
      "duration": 0.1853,
      "velocity": 107,
      "chip": "ym2612"
    },
    {
      "channel": 2,
      "note": 74,
      "start": 114.9271,
      "duration": 0.1853,
      "velocity": 107,
      "chip": "ym2612"
    },
    {
      "channel": 4,
      "note": 74,
      "start": 114.9278,
      "duration": 0.7629,
      "velocity": 74,
      "chip": "ym2612"
    },
    {
      "channel": 0,
      "note": 62,
      "start": 115.1115,
      "duration": 0.1998,
      "velocity": 112,
      "chip": "ym2612"
    },
    {
      "channel": 1,
      "note": 66,
      "start": 115.1121,
      "duration": 0.1999,
      "velocity": 107,
      "chip": "ym2612"
    },
    {
      "channel": 2,
      "note": 69,
      "start": 115.1126,
      "duration": 0.1998,
      "velocity": 107,
      "chip": "ym2612"
    },
    {
      "channel": 5,
      "note": 91,
      "start": 115.1133,
      "duration": 0.0983,
      "velocity": 127,
      "chip": "ym2612"
    },
    {
      "channel": 5,
      "note": 91,
      "start": 115.2118,
      "duration": 0.275,
      "velocity": 127,
      "chip": "ym2612"
    },
    {
      "channel": 0,
      "note": 50,
      "start": 115.3115,
      "duration": 0.1735,
      "velocity": 112,
      "chip": "ym2612"
    },
    {
      "channel": 1,
      "note": 62,
      "start": 115.3121,
      "duration": 0.1735,
      "velocity": 107,
      "chip": "ym2612"
    },
    {
      "channel": 2,
      "note": 66,
      "start": 115.3126,
      "duration": 0.1735,
      "velocity": 107,
      "chip": "ym2612"
    },
    {
      "channel": 0,
      "note": 62,
      "start": 115.4852,
      "duration": 0.1999,
      "velocity": 112,
      "chip": "ym2612"
    },
    {
      "channel": 1,
      "note": 57,
      "start": 115.4857,
      "duration": 0.2,
      "velocity": 107,
      "chip": "ym2612"
    },
    {
      "channel": 2,
      "note": 62,
      "start": 115.4863,
      "duration": 0.2001,
      "velocity": 107,
      "chip": "ym2612"
    },
    {
      "channel": 5,
      "note": 91,
      "start": 115.487,
      "duration": 0.0984,
      "velocity": 127,
      "chip": "ym2612"
    },
    {
      "channel": 5,
      "note": 91,
      "start": 115.5856,
      "duration": 0.2953,
      "velocity": 127,
      "chip": "ym2612"
    },
    {
      "channel": 0,
      "note": 43,
      "start": 115.6853,
      "duration": 0.1916,
      "velocity": 112,
      "chip": "ym2612"
    },
    {
      "channel": 1,
      "note": 55,
      "start": 115.6859,
      "duration": 0.1915,
      "velocity": 107,
      "chip": "ym2612"
    },
    {
      "channel": 2,
      "note": 59,
      "start": 115.6865,
      "duration": 0.1915,
      "velocity": 107,
      "chip": "ym2612"
    },
    {
      "channel": 3,
      "note": 83,
      "start": 115.6887,
      "duration": 1.1487,
      "velocity": 97,
      "chip": "ym2612"
    },
    {
      "channel": 4,
      "note": 67,
      "start": 115.6908,
      "duration": 0.1894,
      "velocity": 74,
      "chip": "ym2612"
    },
    {
      "channel": 0,
      "note": 55,
      "start": 115.877,
      "duration": 0.1999,
      "velocity": 112,
      "chip": "ym2612"
    },
    {
      "channel": 1,
      "note": 59,
      "start": 115.8776,
      "duration": 0.1998,
      "velocity": 107,
      "chip": "ym2612"
    },
    {
      "channel": 2,
      "note": 62,
      "start": 115.8782,
      "duration": 0.1998,
      "velocity": 107,
      "chip": "ym2612"
    },
    {
      "channel": 4,
      "note": 67,
      "start": 115.8803,
      "duration": 0.0983,
      "velocity": 74,
      "chip": "ym2612"
    },
    {
      "channel": 5,
      "note": 91,
      "start": 115.881,
      "duration": 0.0983,
      "velocity": 127,
      "chip": "ym2612"
    },
    {
      "channel": 4,
      "note": 71,
      "start": 115.9789,
      "duration": 0.1772,
      "velocity": 74,
      "chip": "ym2612"
    },
    {
      "channel": 5,
      "note": 91,
      "start": 115.9795,
      "duration": 0.2738,
      "velocity": 127,
      "chip": "ym2612"
    },
    {
      "channel": 0,
      "note": 43,
      "start": 116.077,
      "duration": 0.1723,
      "velocity": 112,
      "chip": "ym2612"
    },
    {
      "channel": 1,
      "note": 62,
      "start": 116.0776,
      "duration": 0.1723,
      "velocity": 107,
      "chip": "ym2612"
    },
    {
      "channel": 2,
      "note": 67,
      "start": 116.0782,
      "duration": 0.1723,
      "velocity": 107,
      "chip": "ym2612"
    },
    {
      "channel": 4,
      "note": 71,
      "start": 116.1563,
      "duration": 0.0963,
      "velocity": 74,
      "chip": "ym2612"
    },
    {
      "channel": 0,
      "note": 55,
      "start": 116.2495,
      "duration": 0.1998,
      "velocity": 112,
      "chip": "ym2612"
    },
    {
      "channel": 1,
      "note": 67,
      "start": 116.2501,
      "duration": 0.1998,
      "velocity": 107,
      "chip": "ym2612"
    },
    {
      "channel": 2,
      "note": 71,
      "start": 116.2506,
      "duration": 0.1999,
      "velocity": 107,
      "chip": "ym2612"
    },
    {
      "channel": 4,
      "note": 74,
      "start": 116.2528,
      "duration": 0.1998,
      "velocity": 74,
      "chip": "ym2612"
    },
    {
      "channel": 5,
      "note": 91,
      "start": 116.2534,
      "duration": 0.0963,
      "velocity": 127,
      "chip": "ym2612"
    },
    {
      "channel": 5,
      "note": 91,
      "start": 116.3498,
      "duration": 0.2861,
      "velocity": 127,
      "chip": "ym2612"
    },
    {
      "channel": 0,
      "note": 43,
      "start": 116.4495,
      "duration": 0.1846,
      "velocity": 112,
      "chip": "ym2612"
    },
    {
      "channel": 1,
      "note": 71,
      "start": 116.4501,
      "duration": 0.1846,
      "velocity": 107,
      "chip": "ym2612"
    },
    {
      "channel": 2,
      "note": 74,
      "start": 116.4506,
      "duration": 0.1846,
      "velocity": 107,
      "chip": "ym2612"
    },
    {
      "channel": 4,
      "note": 74,
      "start": 116.4528,
      "duration": 0.0831,
      "velocity": 74,
      "chip": "ym2612"
    },
    {
      "channel": 4,
      "note": 79,
      "start": 116.5361,
      "duration": 0.1998,
      "velocity": 74,
      "chip": "ym2612"
    },
    {
      "channel": 0,
      "note": 55,
      "start": 116.6343,
      "duration": 0.1999,
      "velocity": 112,
      "chip": "ym2612"
    },
    {
      "channel": 1,
      "note": 67,
      "start": 116.6349,
      "duration": 0.1998,
      "velocity": 107,
      "chip": "ym2612"
    },
    {
      "channel": 2,
      "note": 71,
      "start": 116.6354,
      "duration": 0.1999,
      "velocity": 107,
      "chip": "ym2612"
    },
    {
      "channel": 5,
      "note": 91,
      "start": 116.6361,
      "duration": 0.1004,
      "velocity": 127,
      "chip": "ym2612"
    },
    {
      "channel": 4,
      "note": 79,
      "start": 116.7361,
      "duration": 0.1034,
      "velocity": 74,
      "chip": "ym2612"
    },
    {
      "channel": 5,
      "note": 91,
      "start": 116.7367,
      "duration": 0.2651,
      "velocity": 127,
      "chip": "ym2612"
    },
    {
      "channel": 0,
      "note": 43,
      "start": 116.8343,
      "duration": 0.1632,
      "velocity": 112,
      "chip": "ym2612"
    },
    {
      "channel": 1,
      "note": 62,
      "start": 116.8349,
      "duration": 0.1631,
      "velocity": 107,
      "chip": "ym2612"
    },
    {
      "channel": 2,
      "note": 67,
      "start": 116.8354,
      "duration": 0.1631,
      "velocity": 107,
      "chip": "ym2612"
    },
    {
      "channel": 3,
      "note": 83,
      "start": 116.8375,
      "duration": 0.003,
      "velocity": 97,
      "chip": "ym2612"
    },
    {
      "channel": 4,
      "note": 83,
      "start": 116.8397,
      "duration": 0.1615,
      "velocity": 74,
      "chip": "ym2612"
    },
    {
      "channel": 3,
      "note": 82,
      "start": 116.8405,
      "duration": 0.0073,
      "velocity": 97,
      "chip": "ym2612"
    },
    {
      "channel": 3,
      "note": 81,
      "start": 116.8478,
      "duration": 0.0111,
      "velocity": 97,
      "chip": "ym2612"
    },
    {
      "channel": 3,
      "note": 80,
      "start": 116.8589,
      "duration": 0.011,
      "velocity": 97,
      "chip": "ym2612"
    },
    {
      "channel": 3,
      "note": 80,
      "start": 116.87,
      "duration": 0.023,
      "velocity": 97,
      "chip": "ym2612"
    },
    {
      "channel": 3,
      "note": 79,
      "start": 116.8929,
      "duration": 0.0117,
      "velocity": 97,
      "chip": "ym2612"
    },
    {
      "channel": 3,
      "note": 79,
      "start": 116.9047,
      "duration": 0.0944,
      "velocity": 97,
      "chip": "ym2612"
    },
    {
      "channel": 0,
      "note": 55,
      "start": 116.9976,
      "duration": 0.1999,
      "velocity": 112,
      "chip": "ym2612"
    },
    {
      "channel": 1,
      "note": 59,
      "start": 116.9981,
      "duration": 0.1999,
      "velocity": 107,
      "chip": "ym2612"
    },
    {
      "channel": 2,
      "note": 62,
      "start": 116.9987,
      "duration": 0.1998,
      "velocity": 107,
      "chip": "ym2612"
    },
    {
      "channel": 3,
      "note": 79,
      "start": 116.9992,
      "duration": 0.0032,
      "velocity": 97,
      "chip": "ym2612"
    },
    {
      "channel": 4,
      "note": 83,
      "start": 117.0014,
      "duration": 0.1999,
      "velocity": 74,
      "chip": "ym2612"
    },
    {
      "channel": 5,
      "note": 91,
      "start": 117.002,
      "duration": 0.0958,
      "velocity": 127,
      "chip": "ym2612"
    },
    {
      "channel": 3,
      "note": 80,
      "start": 117.0024,
      "duration": 0.0113,
      "velocity": 97,
      "chip": "ym2612"
    },
    {
      "channel": 3,
      "note": 80,
      "start": 117.0138,
      "duration": 0.0167,
      "velocity": 97,
      "chip": "ym2612"
    },
    {
      "channel": 3,
      "note": 81,
      "start": 117.0305,
      "duration": 0.1686,
      "velocity": 97,
      "chip": "ym2612"
    },
    {
      "channel": 5,
      "note": 91,
      "start": 117.0979,
      "duration": 0.2837,
      "velocity": 127,
      "chip": "ym2612"
    },
    {
      "channel": 0,
      "note": 50,
      "start": 117.1976,
      "duration": 0.1801,
      "velocity": 112,
      "chip": "ym2612"
    },
    {
      "channel": 1,
      "note": 54,
      "start": 117.1981,
      "duration": 0.1802,
      "velocity": 107,
      "chip": "ym2612"
    },
    {
      "channel": 2,
      "note": 57,
      "start": 117.1987,
      "duration": 0.1801,
      "velocity": 107,
      "chip": "ym2612"
    },
    {
      "channel": 3,
      "note": 81,
      "start": 117.1993,
      "duration": 0.0029,
      "velocity": 97,
      "chip": "ym2612"
    },
    {
      "channel": 4,
      "note": 66,
      "start": 117.2014,
      "duration": 0.1796,
      "velocity": 74,
      "chip": "ym2612"
    },
    {
      "channel": 3,
      "note": 82,
      "start": 117.2022,
      "duration": 0.0078,
      "velocity": 97,
      "chip": "ym2612"
    },
    {
      "channel": 3,
      "note": 83,
      "start": 117.21,
      "duration": 0.0116,
      "velocity": 97,
      "chip": "ym2612"
    },
    {
      "channel": 3,
      "note": 83,
      "start": 117.2217,
      "duration": 0.3578,
      "velocity": 97,
      "chip": "ym2612"
    },
    {
      "channel": 0,
      "note": 62,
      "start": 117.3779,
      "duration": 0.1999,
      "velocity": 112,
      "chip": "ym2612"
    },
    {
      "channel": 1,
      "note": 57,
      "start": 117.3785,
      "duration": 0.1999,
      "velocity": 107,
      "chip": "ym2612"
    },
    {
      "channel": 2,
      "note": 62,
      "start": 117.379,
      "duration": 0.1999,
      "velocity": 107,
      "chip": "ym2612"
    },
    {
      "channel": 4,
      "note": 66,
      "start": 117.3812,
      "duration": 0.0983,
      "velocity": 74,
      "chip": "ym2612"
    },
    {
      "channel": 5,
      "note": 91,
      "start": 117.3818,
      "duration": 0.0983,
      "velocity": 127,
      "chip": "ym2612"
    },
    {
      "channel": 4,
      "note": 69,
      "start": 117.4798,
      "duration": 0.1775,
      "velocity": 74,
      "chip": "ym2612"
    },
    {
      "channel": 5,
      "note": 91,
      "start": 117.4803,
      "duration": 0.2749,
      "velocity": 127,
      "chip": "ym2612"
    },
    {
      "channel": 0,
      "note": 50,
      "start": 117.578,
      "duration": 0.1734,
      "velocity": 112,
      "chip": "ym2612"
    },
    {
      "channel": 1,
      "note": 62,
      "start": 117.5785,
      "duration": 0.1734,
      "velocity": 107,
      "chip": "ym2612"
    },
    {
      "channel": 2,
      "note": 66,
      "start": 117.579,
      "duration": 0.1734,
      "velocity": 107,
      "chip": "ym2612"
    },
    {
      "channel": 3,
      "note": 83,
      "start": 117.5796,
      "duration": 0.0009,
      "velocity": 97,
      "chip": "ym2612"
    },
    {
      "channel": 3,
      "note": 84,
      "start": 117.5805,
      "duration": 0.0105,
      "velocity": 97,
      "chip": "ym2612"
    },
    {
      "channel": 3,
      "note": 85,
      "start": 117.591,
      "duration": 0.0142,
      "velocity": 97,
      "chip": "ym2612"
    },
    {
      "channel": 3,
      "note": 85,
      "start": 117.6052,
      "duration": 0.0127,
      "velocity": 97,
      "chip": "ym2612"
    },
    {
      "channel": 3,
      "note": 86,
      "start": 117.6179,
      "duration": 0.3352,
      "velocity": 97,
      "chip": "ym2612"
    },
    {
      "channel": 4,
      "note": 69,
      "start": 117.6574,
      "duration": 0.0972,
      "velocity": 74,
      "chip": "ym2612"
    },
    {
      "channel": 0,
      "note": 62,
      "start": 117.7515,
      "duration": 0.1999,
      "velocity": 112,
      "chip": "ym2612"
    },
    {
      "channel": 1,
      "note": 66,
      "start": 117.7521,
      "duration": 0.1999,
      "velocity": 107,
      "chip": "ym2612"
    },
    {
      "channel": 2,
      "note": 69,
      "start": 117.7526,
      "duration": 0.1999,
      "velocity": 107,
      "chip": "ym2612"
    },
    {
      "channel": 4,
      "note": 74,
      "start": 117.7548,
      "duration": 0.2004,
      "velocity": 74,
      "chip": "ym2612"
    },
    {
      "channel": 5,
      "note": 91,
      "start": 117.7554,
      "duration": 0.0963,
      "velocity": 127,
      "chip": "ym2612"
    },
    {
      "channel": 5,
      "note": 91,
      "start": 117.8518,
      "duration": 0.2857,
      "velocity": 127,
      "chip": "ym2612"
    },
    {
      "channel": 0,
      "note": 50,
      "start": 117.9516,
      "duration": 0.1842,
      "velocity": 112,
      "chip": "ym2612"
    },
    {
      "channel": 1,
      "note": 69,
      "start": 117.9521,
      "duration": 0.1843,
      "velocity": 107,
      "chip": "ym2612"
    },
    {
      "channel": 2,
      "note": 74,
      "start": 117.9527,
      "duration": 0.1842,
      "velocity": 107,
      "chip": "ym2612"
    },
    {
      "channel": 3,
      "note": 86,
      "start": 117.9532,
      "duration": 0.0029,
      "velocity": 97,
      "chip": "ym2612"
    },
    {
      "channel": 4,
      "note": 74,
      "start": 117.9554,
      "duration": 0.0823,
      "velocity": 74,
      "chip": "ym2612"
    },
    {
      "channel": 3,
      "note": 87,
      "start": 117.9562,
      "duration": 0.0079,
      "velocity": 97,
      "chip": "ym2612"
    },
    {
      "channel": 3,
      "note": 87,
      "start": 117.964,
      "duration": 0.0107,
      "velocity": 97,
      "chip": "ym2612"
    },
    {
      "channel": 3,
      "note": 88,
      "start": 117.9747,
      "duration": 0.3628,
      "velocity": 97,
      "chip": "ym2612"
    },
    {
      "channel": 4,
      "note": 78,
      "start": 118.0378,
      "duration": 0.1998,
      "velocity": 74,
      "chip": "ym2612"
    },
    {
      "channel": 0,
      "note": 62,
      "start": 118.136,
      "duration": 0.1999,
      "velocity": 112,
      "chip": "ym2612"
    },
    {
      "channel": 1,
      "note": 66,
      "start": 118.1365,
      "duration": 0.1998,
      "velocity": 107,
      "chip": "ym2612"
    },
    {
      "channel": 2,
      "note": 69,
      "start": 118.1371,
      "duration": 0.1999,
      "velocity": 107,
      "chip": "ym2612"
    },
    {
      "channel": 5,
      "note": 91,
      "start": 118.1378,
      "duration": 0.1004,
      "velocity": 127,
      "chip": "ym2612"
    },
    {
      "channel": 4,
      "note": 78,
      "start": 118.2378,
      "duration": 0.1018,
      "velocity": 74,
      "chip": "ym2612"
    },
    {
      "channel": 5,
      "note": 91,
      "start": 118.2384,
      "duration": 0.2744,
      "velocity": 127,
      "chip": "ym2612"
    },
    {
      "channel": 0,
      "note": 50,
      "start": 118.336,
      "duration": 0.1728,
      "velocity": 112,
      "chip": "ym2612"
    },
    {
      "channel": 1,
      "note": 62,
      "start": 118.3365,
      "duration": 0.1728,
      "velocity": 107,
      "chip": "ym2612"
    },
    {
      "channel": 2,
      "note": 66,
      "start": 118.3371,
      "duration": 0.1728,
      "velocity": 107,
      "chip": "ym2612"
    },
    {
      "channel": 3,
      "note": 88,
      "start": 118.3376,
      "duration": 0.003,
      "velocity": 97,
      "chip": "ym2612"
    },
    {
      "channel": 4,
      "note": 81,
      "start": 118.3398,
      "duration": 0.1723,
      "velocity": 74,
      "chip": "ym2612"
    },
    {
      "channel": 3,
      "note": 87,
      "start": 118.3406,
      "duration": 0.008,
      "velocity": 97,
      "chip": "ym2612"
    },
    {
      "channel": 3,
      "note": 87,
      "start": 118.3487,
      "duration": 0.0107,
      "velocity": 97,
      "chip": "ym2612"
    },
    {
      "channel": 3,
      "note": 86,
      "start": 118.3593,
      "duration": 0.3512,
      "velocity": 97,
      "chip": "ym2612"
    },
    {
      "channel": 0,
      "note": 62,
      "start": 118.509,
      "duration": 0.1999,
      "velocity": 112,
      "chip": "ym2612"
    },
    {
      "channel": 1,
      "note": 57,
      "start": 118.5095,
      "duration": 0.1999,
      "velocity": 107,
      "chip": "ym2612"
    },
    {
      "channel": 2,
      "note": 62,
      "start": 118.5101,
      "duration": 0.1999,
      "velocity": 107,
      "chip": "ym2612"
    },
    {
      "channel": 4,
      "note": 81,
      "start": 118.5123,
      "duration": 0.2004,
      "velocity": 74,
      "chip": "ym2612"
    },
    {
      "channel": 5,
      "note": 91,
      "start": 118.5129,
      "duration": 0.0963,
      "velocity": 127,
      "chip": "ym2612"
    },
    {
      "channel": 5,
      "note": 91,
      "start": 118.6094,
      "duration": 0.2852,
      "velocity": 127,
      "chip": "ym2612"
    },
    {
      "channel": 0,
      "note": 52,
      "start": 118.709,
      "duration": 0.1816,
      "velocity": 112,
      "chip": "ym2612"
    },
    {
      "channel": 1,
      "note": 59,
      "start": 118.7095,
      "duration": 0.1817,
      "velocity": 107,
      "chip": "ym2612"
    },
    {
      "channel": 2,
      "note": 64,
      "start": 118.7101,
      "duration": 0.1817,
      "velocity": 107,
      "chip": "ym2612"
    },
    {
      "channel": 3,
      "note": 86,
      "start": 118.7107,
      "duration": 0.0029,
      "velocity": 97,
      "chip": "ym2612"
    },
    {
      "channel": 4,
      "note": 64,
      "start": 118.7128,
      "duration": 0.1812,
      "velocity": 74,
      "chip": "ym2612"
    },
    {
      "channel": 3,
      "note": 87,
      "start": 118.7136,
      "duration": 0.0078,
      "velocity": 97,
      "chip": "ym2612"
    },
    {
      "channel": 3,
      "note": 88,
      "start": 118.7215,
      "duration": 0.0116,
      "velocity": 97,
      "chip": "ym2612"
    },
    {
      "channel": 3,
      "note": 89,
      "start": 118.7331,
      "duration": 0.0116,
      "velocity": 97,
      "chip": "ym2612"
    },
    {
      "channel": 3,
      "note": 90,
      "start": 118.7446,
      "duration": 0.029,
      "velocity": 97,
      "chip": "ym2612"
    },
    {
      "channel": 3,
      "note": 91,
      "start": 118.7737,
      "duration": 0.0175,
      "velocity": 97,
      "chip": "ym2612"
    },
    {
      "channel": 3,
      "note": 91,
      "start": 118.7912,
      "duration": 1.0604,
      "velocity": 97,
      "chip": "ym2612"
    },
    {
      "channel": 0,
      "note": 64,
      "start": 118.8909,
      "duration": 0.1999,
      "velocity": 112,
      "chip": "ym2612"
    },
    {
      "channel": 1,
      "note": 64,
      "start": 118.8914,
      "duration": 0.1998,
      "velocity": 107,
      "chip": "ym2612"
    },
    {
      "channel": 2,
      "note": 67,
      "start": 118.892,
      "duration": 0.1999,
      "velocity": 107,
      "chip": "ym2612"
    },
    {
      "channel": 4,
      "note": 64,
      "start": 118.8942,
      "duration": 0.0983,
      "velocity": 74,
      "chip": "ym2612"
    },
    {
      "channel": 5,
      "note": 91,
      "start": 118.8947,
      "duration": 0.0983,
      "velocity": 127,
      "chip": "ym2612"
    },
    {
      "channel": 4,
      "note": 67,
      "start": 118.9927,
      "duration": 0.177,
      "velocity": 74,
      "chip": "ym2612"
    },
    {
      "channel": 5,
      "note": 91,
      "start": 118.9933,
      "duration": 0.2741,
      "velocity": 127,
      "chip": "ym2612"
    },
    {
      "channel": 0,
      "note": 52,
      "start": 119.0909,
      "duration": 0.1726,
      "velocity": 112,
      "chip": "ym2612"
    },
    {
      "channel": 1,
      "note": 67,
      "start": 119.0914,
      "duration": 0.1726,
      "velocity": 107,
      "chip": "ym2612"
    },
    {
      "channel": 2,
      "note": 71,
      "start": 119.092,
      "duration": 0.1726,
      "velocity": 107,
      "chip": "ym2612"
    },
    {
      "channel": 4,
      "note": 67,
      "start": 119.17,
      "duration": 0.0968,
      "velocity": 74,
      "chip": "ym2612"
    },
    {
      "channel": 0,
      "note": 64,
      "start": 119.2637,
      "duration": 0.1998,
      "velocity": 112,
      "chip": "ym2612"
    },
    {
      "channel": 1,
      "note": 71,
      "start": 119.2642,
      "duration": 0.1998,
      "velocity": 107,
      "chip": "ym2612"
    },
    {
      "channel": 2,
      "note": 76,
      "start": 119.2648,
      "duration": 0.1999,
      "velocity": 107,
      "chip": "ym2612"
    },
    {
      "channel": 4,
      "note": 71,
      "start": 119.267,
      "duration": 0.1998,
      "velocity": 74,
      "chip": "ym2612"
    },
    {
      "channel": 5,
      "note": 91,
      "start": 119.2676,
      "duration": 0.0963,
      "velocity": 127,
      "chip": "ym2612"
    },
    {
      "channel": 5,
      "note": 91,
      "start": 119.364,
      "duration": 0.2861,
      "velocity": 127,
      "chip": "ym2612"
    },
    {
      "channel": 0,
      "note": 52,
      "start": 119.4637,
      "duration": 0.1846,
      "velocity": 112,
      "chip": "ym2612"
    },
    {
      "channel": 1,
      "note": 76,
      "start": 119.4642,
      "duration": 0.1846,
      "velocity": 107,
      "chip": "ym2612"
    },
    {
      "channel": 2,
      "note": 79,
      "start": 119.4648,
      "duration": 0.1846,
      "velocity": 107,
      "chip": "ym2612"
    },
    {
      "channel": 4,
      "note": 71,
      "start": 119.467,
      "duration": 0.0831,
      "velocity": 74,
      "chip": "ym2612"
    },
    {
      "channel": 4,
      "note": 76,
      "start": 119.5503,
      "duration": 0.1998,
      "velocity": 74,
      "chip": "ym2612"
    },
    {
      "channel": 0,
      "note": 64,
      "start": 119.6484,
      "duration": 0.1999,
      "velocity": 112,
      "chip": "ym2612"
    },
    {
      "channel": 1,
      "note": 71,
      "start": 119.649,
      "duration": 0.1998,
      "velocity": 107,
      "chip": "ym2612"
    },
    {
      "channel": 2,
      "note": 76,
      "start": 119.6495,
      "duration": 0.1999,
      "velocity": 107,
      "chip": "ym2612"
    },
    {
      "channel": 5,
      "note": 91,
      "start": 119.6502,
      "duration": 0.1004,
      "velocity": 127,
      "chip": "ym2612"
    },
    {
      "channel": 4,
      "note": 76,
      "start": 119.7503,
      "duration": 0.1034,
      "velocity": 74,
      "chip": "ym2612"
    },
    {
      "channel": 5,
      "note": 91,
      "start": 119.7509,
      "duration": 0.2746,
      "velocity": 127,
      "chip": "ym2612"
    },
    {
      "channel": 0,
      "note": 52,
      "start": 119.8484,
      "duration": 0.1726,
      "velocity": 112,
      "chip": "ym2612"
    },
    {
      "channel": 1,
      "note": 67,
      "start": 119.849,
      "duration": 0.1726,
      "velocity": 107,
      "chip": "ym2612"
    },
    {
      "channel": 2,
      "note": 71,
      "start": 119.8496,
      "duration": 0.1725,
      "velocity": 107,
      "chip": "ym2612"
    },
    {
      "channel": 3,
      "note": 91,
      "start": 119.8517,
      "duration": 0.003,
      "velocity": 97,
      "chip": "ym2612"
    },
    {
      "channel": 4,
      "note": 79,
      "start": 119.8539,
      "duration": 0.171,
      "velocity": 74,
      "chip": "ym2612"
    },
    {
      "channel": 3,
      "note": 92,
      "start": 119.8547,
      "duration": 0.0076,
      "velocity": 97,
      "chip": "ym2612"
    },
    {
      "channel": 3,
      "note": 93,
      "start": 119.8622,
      "duration": 0.1605,
      "velocity": 97,
      "chip": "ym2612"
    },
    {
      "channel": 0,
      "note": 64,
      "start": 120.0212,
      "duration": 0.1998,
      "velocity": 112,
      "chip": "ym2612"
    },
    {
      "channel": 1,
      "note": 64,
      "start": 120.0217,
      "duration": 0.1999,
      "velocity": 107,
      "chip": "ym2612"
    },
    {
      "channel": 2,
      "note": 67,
      "start": 120.0223,
      "duration": 0.1998,
      "velocity": 107,
      "chip": "ym2612"
    },
    {
      "channel": 3,
      "note": 93,
      "start": 120.0229,
      "duration": 0.0032,
      "velocity": 97,
      "chip": "ym2612"
    },
    {
      "channel": 4,
      "note": 79,
      "start": 120.025,
      "duration": 0.1999,
      "velocity": 74,
      "chip": "ym2612"
    },
    {
      "channel": 5,
      "note": 91,
      "start": 120.0256,
      "duration": 0.0958,
      "velocity": 127,
      "chip": "ym2612"
    },
    {
      "channel": 3,
      "note": 92,
      "start": 120.0261,
      "duration": 0.0113,
      "velocity": 97,
      "chip": "ym2612"
    },
    {
      "channel": 3,
      "note": 91,
      "start": 120.0374,
      "duration": 0.1853,
      "velocity": 97,
      "chip": "ym2612"
    },
    {
      "channel": 5,
      "note": 91,
      "start": 120.1216,
      "duration": 0.2863,
      "velocity": 127,
      "chip": "ym2612"
    },
    {
      "channel": 0,
      "note": 48,
      "start": 120.2212,
      "duration": 0.1827,
      "velocity": 112,
      "chip": "ym2612"
    },
    {
      "channel": 1,
      "note": 60,
      "start": 120.2217,
      "duration": 0.1828,
      "velocity": 107,
      "chip": "ym2612"
    },
    {
      "channel": 2,
      "note": 55,
      "start": 120.2223,
      "duration": 0.1828,
      "velocity": 107,
      "chip": "ym2612"
    },
    {
      "channel": 3,
      "note": 91,
      "start": 120.2229,
      "duration": 0.003,
      "velocity": 97,
      "chip": "ym2612"
    },
    {
      "channel": 4,
      "note": 60,
      "start": 120.225,
      "duration": 0.1823,
      "velocity": 74,
      "chip": "ym2612"
    },
    {
      "channel": 3,
      "note": 90,
      "start": 120.2259,
      "duration": 0.0075,
      "velocity": 97,
      "chip": "ym2612"
    },
    {
      "channel": 3,
      "note": 89,
      "start": 120.2334,
      "duration": 0.0127,
      "velocity": 97,
      "chip": "ym2612"
    },
    {
      "channel": 3,
      "note": 88,
      "start": 120.246,
      "duration": 0.0126,
      "velocity": 97,
      "chip": "ym2612"
    },
    {
      "channel": 3,
      "note": 87,
      "start": 120.2586,
      "duration": 0.0285,
      "velocity": 97,
      "chip": "ym2612"
    },
    {
      "channel": 3,
      "note": 86,
      "start": 120.2871,
      "duration": 0.0174,
      "velocity": 97,
      "chip": "ym2612"
    },
    {
      "channel": 3,
      "note": 86,
      "start": 120.3045,
      "duration": 0.8546,
      "velocity": 97,
      "chip": "ym2612"
    },
    {
      "channel": 0,
      "note": 60,
      "start": 120.4042,
      "duration": 0.1999,
      "velocity": 112,
      "chip": "ym2612"
    },
    {
      "channel": 1,
      "note": 64,
      "start": 120.4047,
      "duration": 0.1998,
      "velocity": 107,
      "chip": "ym2612"
    },
    {
      "channel": 2,
      "note": 60,
      "start": 120.4053,
      "duration": 0.1999,
      "velocity": 107,
      "chip": "ym2612"
    },
    {
      "channel": 4,
      "note": 60,
      "start": 120.4075,
      "duration": 0.0983,
      "velocity": 74,
      "chip": "ym2612"
    },
    {
      "channel": 5,
      "note": 91,
      "start": 120.408,
      "duration": 0.0983,
      "velocity": 127,
      "chip": "ym2612"
    },
    {
      "channel": 4,
      "note": 64,
      "start": 120.506,
      "duration": 0.175,
      "velocity": 74,
      "chip": "ym2612"
    },
    {
      "channel": 5,
      "note": 91,
      "start": 120.5066,
      "duration": 0.2715,
      "velocity": 127,
      "chip": "ym2612"
    },
    {
      "channel": 0,
      "note": 48,
      "start": 120.6042,
      "duration": 0.1701,
      "velocity": 112,
      "chip": "ym2612"
    },
    {
      "channel": 1,
      "note": 67,
      "start": 120.6047,
      "duration": 0.1701,
      "velocity": 107,
      "chip": "ym2612"
    },
    {
      "channel": 2,
      "note": 64,
      "start": 120.6053,
      "duration": 0.17,
      "velocity": 107,
      "chip": "ym2612"
    },
    {
      "channel": 4,
      "note": 64,
      "start": 120.6812,
      "duration": 0.0963,
      "velocity": 74,
      "chip": "ym2612"
    },
    {
      "channel": 0,
      "note": 60,
      "start": 120.7744,
      "duration": 0.1998,
      "velocity": 112,
      "chip": "ym2612"
    },
    {
      "channel": 1,
      "note": 72,
      "start": 120.775,
      "duration": 0.1998,
      "velocity": 107,
      "chip": "ym2612"
    },
    {
      "channel": 2,
      "note": 67,
      "start": 120.7755,
      "duration": 0.1999,
      "velocity": 107,
      "chip": "ym2612"
    },
    {
      "channel": 4,
      "note": 67,
      "start": 120.7777,
      "duration": 0.1998,
      "velocity": 74,
      "chip": "ym2612"
    },
    {
      "channel": 5,
      "note": 91,
      "start": 120.7783,
      "duration": 0.0963,
      "velocity": 127,
      "chip": "ym2612"
    },
    {
      "channel": 5,
      "note": 91,
      "start": 120.8747,
      "duration": 0.285,
      "velocity": 127,
      "chip": "ym2612"
    },
    {
      "channel": 0,
      "note": 48,
      "start": 120.9744,
      "duration": 0.1814,
      "velocity": 112,
      "chip": "ym2612"
    },
    {
      "channel": 1,
      "note": 76,
      "start": 120.975,
      "duration": 0.1814,
      "velocity": 107,
      "chip": "ym2612"
    },
    {
      "channel": 2,
      "note": 72,
      "start": 120.9755,
      "duration": 0.1814,
      "velocity": 107,
      "chip": "ym2612"
    },
    {
      "channel": 4,
      "note": 67,
      "start": 120.9777,
      "duration": 0.0799,
      "velocity": 74,
      "chip": "ym2612"
    },
    {
      "channel": 4,
      "note": 72,
      "start": 121.0578,
      "duration": 0.1998,
      "velocity": 74,
      "chip": "ym2612"
    },
    {
      "channel": 0,
      "note": 60,
      "start": 121.156,
      "duration": 0.1998,
      "velocity": 112,
      "chip": "ym2612"
    },
    {
      "channel": 1,
      "note": 72,
      "start": 121.1565,
      "duration": 0.1998,
      "velocity": 107,
      "chip": "ym2612"
    },
    {
      "channel": 2,
      "note": 67,
      "start": 121.1571,
      "duration": 0.1998,
      "velocity": 107,
      "chip": "ym2612"
    },
    {
      "channel": 3,
      "note": 86,
      "start": 121.1592,
      "duration": 0.0012,
      "velocity": 97,
      "chip": "ym2612"
    },
    {
      "channel": 5,
      "note": 91,
      "start": 121.1598,
      "duration": 0.0984,
      "velocity": 127,
      "chip": "ym2612"
    },
    {
      "channel": 3,
      "note": 85,
      "start": 121.1603,
      "duration": 0.0118,
      "velocity": 97,
      "chip": "ym2612"
    },
    {
      "channel": 3,
      "note": 84,
      "start": 121.1722,
      "duration": 0.1853,
      "velocity": 97,
      "chip": "ym2612"
    },
    {
      "channel": 4,
      "note": 72,
      "start": 121.2578,
      "duration": 0.1018,
      "velocity": 74,
      "chip": "ym2612"
    },
    {
      "channel": 5,
      "note": 91,
      "start": 121.2584,
      "duration": 0.6078,
      "velocity": 127,
      "chip": "ym2612"
    },
    {
      "channel": 0,
      "note": 48,
      "start": 121.3559,
      "duration": 0.1714,
      "velocity": 112,
      "chip": "ym2612"
    },
    {
      "channel": 1,
      "note": 67,
      "start": 121.3565,
      "duration": 0.1714,
      "velocity": 107,
      "chip": "ym2612"
    },
    {
      "channel": 2,
      "note": 64,
      "start": 121.3571,
      "duration": 0.1713,
      "velocity": 107,
      "chip": "ym2612"
    },
    {
      "channel": 3,
      "note": 84,
      "start": 121.3576,
      "duration": 0.0031,
      "velocity": 97,
      "chip": "ym2612"
    },
    {
      "channel": 4,
      "note": 76,
      "start": 121.3598,
      "duration": 0.1713,
      "velocity": 74,
      "chip": "ym2612"
    },
    {
      "channel": 3,
      "note": 83,
      "start": 121.3607,
      "duration": 0.1683,
      "velocity": 97,
      "chip": "ym2612"
    },
    {
      "channel": 0,
      "note": 60,
      "start": 121.5275,
      "duration": 0.1543,
      "velocity": 112,
      "chip": "ym2612"
    },
    {
      "channel": 1,
      "note": 64,
      "start": 121.528,
      "duration": 0.1544,
      "velocity": 107,
      "chip": "ym2612"
    },
    {
      "channel": 2,
      "note": 60,
      "start": 121.5286,
      "duration": 0.1545,
      "velocity": 107,
      "chip": "ym2612"
    },
    {
      "channel": 3,
      "note": 83,
      "start": 121.5291,
      "duration": 0.003,
      "velocity": 97,
      "chip": "ym2612"
    },
    {
      "channel": 4,
      "note": 76,
      "start": 121.5312,
      "duration": 0.1542,
      "velocity": 74,
      "chip": "ym2612"
    },
    {
      "channel": 3,
      "note": 84,
      "start": 121.5321,
      "duration": 0.1543,
      "velocity": 97,
      "chip": "ym2612"
    },
    {
      "channel": 0,
      "note": 43,
      "start": 121.682,
      "duration": 0.1802,
      "velocity": 112,
      "chip": "ym2612"
    },
    {
      "channel": 1,
      "note": 55,
      "start": 121.6826,
      "duration": 0.1802,
      "velocity": 107,
      "chip": "ym2612"
    },
    {
      "channel": 2,
      "note": 59,
      "start": 121.6832,
      "duration": 0.1801,
      "velocity": 107,
      "chip": "ym2612"
    },
    {
      "channel": 4,
      "note": 67,
      "start": 121.6856,
      "duration": 0.1799,
      "velocity": 74,
      "chip": "ym2612"
    },
    {
      "channel": 3,
      "note": 85,
      "start": 121.6864,
      "duration": 0.0083,
      "velocity": 97,
      "chip": "ym2612"
    },
    {
      "channel": 3,
      "note": 86,
      "start": 121.6946,
      "duration": 1.8761,
      "velocity": 97,
      "chip": "ym2612"
    },
    {
      "channel": 0,
      "note": 55,
      "start": 121.8624,
      "duration": 0.1999,
      "velocity": 112,
      "chip": "ym2612"
    },
    {
      "channel": 1,
      "note": 59,
      "start": 121.8629,
      "duration": 0.1999,
      "velocity": 107,
      "chip": "ym2612"
    },
    {
      "channel": 2,
      "note": 62,
      "start": 121.8635,
      "duration": 0.1999,
      "velocity": 107,
      "chip": "ym2612"
    },
    {
      "channel": 4,
      "note": 67,
      "start": 121.8657,
      "duration": 0.2015,
      "velocity": 74,
      "chip": "ym2612"
    },
    {
      "channel": 5,
      "note": 91,
      "start": 121.8663,
      "duration": 0.0962,
      "velocity": 127,
      "chip": "ym2612"
    },
    {
      "channel": 5,
      "note": 91,
      "start": 121.9627,
      "duration": 0.276,
      "velocity": 127,
      "chip": "ym2612"
    },
    {
      "channel": 0,
      "note": 43,
      "start": 122.0624,
      "duration": 0.1723,
      "velocity": 112,
      "chip": "ym2612"
    },
    {
      "channel": 1,
      "note": 62,
      "start": 122.0629,
      "duration": 0.1724,
      "velocity": 107,
      "chip": "ym2612"
    },
    {
      "channel": 2,
      "note": 67,
      "start": 122.0635,
      "duration": 0.1724,
      "velocity": 107,
      "chip": "ym2612"
    },
    {
      "channel": 4,
      "note": 79,
      "start": 122.0673,
      "duration": 0.1707,
      "velocity": 74,
      "chip": "ym2612"
    },
    {
      "channel": 0,
      "note": 55,
      "start": 122.235,
      "duration": 0.1998,
      "velocity": 112,
      "chip": "ym2612"
    },
    {
      "channel": 1,
      "note": 67,
      "start": 122.2355,
      "duration": 0.1998,
      "velocity": 107,
      "chip": "ym2612"
    },
    {
      "channel": 2,
      "note": 71,
      "start": 122.2361,
      "duration": 0.1999,
      "velocity": 107,
      "chip": "ym2612"
    },
    {
      "channel": 4,
      "note": 79,
      "start": 122.2383,
      "duration": 0.0983,
      "velocity": 74,
      "chip": "ym2612"
    },
    {
      "channel": 5,
      "note": 91,
      "start": 122.2388,
      "duration": 0.0983,
      "velocity": 127,
      "chip": "ym2612"
    },
    {
      "channel": 4,
      "note": 74,
      "start": 122.3368,
      "duration": 0.0997,
      "velocity": 74,
      "chip": "ym2612"
    },
    {
      "channel": 5,
      "note": 91,
      "start": 122.3374,
      "duration": 0.2822,
      "velocity": 127,
      "chip": "ym2612"
    },
    {
      "channel": 0,
      "note": 43,
      "start": 122.435,
      "duration": 0.1808,
      "velocity": 112,
      "chip": "ym2612"
    },
    {
      "channel": 1,
      "note": 71,
      "start": 122.4355,
      "duration": 0.1808,
      "velocity": 107,
      "chip": "ym2612"
    },
    {
      "channel": 2,
      "note": 74,
      "start": 122.4361,
      "duration": 0.1808,
      "velocity": 107,
      "chip": "ym2612"
    },
    {
      "channel": 4,
      "note": 76,
      "start": 122.4368,
      "duration": 0.0808,
      "velocity": 74,
      "chip": "ym2612"
    },
    {
      "channel": 4,
      "note": 74,
      "start": 122.5178,
      "duration": 0.1013,
      "velocity": 74,
      "chip": "ym2612"
    },
    {
      "channel": 0,
      "note": 55,
      "start": 122.6159,
      "duration": 0.1998,
      "velocity": 112,
      "chip": "ym2612"
    },
    {
      "channel": 1,
      "note": 67,
      "start": 122.6165,
      "duration": 0.1998,
      "velocity": 107,
      "chip": "ym2612"
    },
    {
      "channel": 2,
      "note": 71,
      "start": 122.617,
      "duration": 0.1999,
      "velocity": 107,
      "chip": "ym2612"
    },
    {
      "channel": 4,
      "note": 74,
      "start": 122.6193,
      "duration": 0.1983,
      "velocity": 74,
      "chip": "ym2612"
    },
    {
      "channel": 5,
      "note": 91,
      "start": 122.6198,
      "duration": 0.0963,
      "velocity": 127,
      "chip": "ym2612"
    },
    {
      "channel": 5,
      "note": 91,
      "start": 122.7163,
      "duration": 0.272,
      "velocity": 127,
      "chip": "ym2612"
    },
    {
      "channel": 0,
      "note": 43,
      "start": 122.8159,
      "duration": 0.17,
      "velocity": 112,
      "chip": "ym2612"
    },
    {
      "channel": 1,
      "note": 62,
      "start": 122.8165,
      "duration": 0.17,
      "velocity": 107,
      "chip": "ym2612"
    },
    {
      "channel": 2,
      "note": 67,
      "start": 122.817,
      "duration": 0.17,
      "velocity": 107,
      "chip": "ym2612"
    },
    {
      "channel": 4,
      "note": 70,
      "start": 122.8177,
      "duration": 0.073,
      "velocity": 74,
      "chip": "ym2612"
    },
    {
      "channel": 4,
      "note": 71,
      "start": 122.8909,
      "duration": 0.0968,
      "velocity": 74,
      "chip": "ym2612"
    },
    {
      "channel": 0,
      "note": 55,
      "start": 122.9861,
      "duration": 0.1998,
      "velocity": 112,
      "chip": "ym2612"
    },
    {
      "channel": 1,
      "note": 59,
      "start": 122.9866,
      "duration": 0.1998,
      "velocity": 107,
      "chip": "ym2612"
    },
    {
      "channel": 2,
      "note": 62,
      "start": 122.9872,
      "duration": 0.1999,
      "velocity": 107,
      "chip": "ym2612"
    },
    {
      "channel": 4,
      "note": 74,
      "start": 122.9879,
      "duration": 0.0999,
      "velocity": 74,
      "chip": "ym2612"
    },
    {
      "channel": 5,
      "note": 91,
      "start": 122.9884,
      "duration": 0.0999,
      "velocity": 127,
      "chip": "ym2612"
    },
    {
      "channel": 4,
      "note": 71,
      "start": 123.0879,
      "duration": 0.1013,
      "velocity": 74,
      "chip": "ym2612"
    },
    {
      "channel": 5,
      "note": 91,
      "start": 123.0885,
      "duration": 0.2828,
      "velocity": 127,
      "chip": "ym2612"
    },
    {
      "channel": 0,
      "note": 50,
      "start": 123.1861,
      "duration": 0.1813,
      "velocity": 112,
      "chip": "ym2612"
    },
    {
      "channel": 1,
      "note": 54,
      "start": 123.1866,
      "duration": 0.1813,
      "velocity": 107,
      "chip": "ym2612"
    },
    {
      "channel": 2,
      "note": 57,
      "start": 123.1872,
      "duration": 0.1814,
      "velocity": 107,
      "chip": "ym2612"
    },
    {
      "channel": 4,
      "note": 62,
      "start": 123.1894,
      "duration": 0.1813,
      "velocity": 74,
      "chip": "ym2612"
    },
    {
      "channel": 0,
      "note": 62,
      "start": 123.3676,
      "duration": 0.1999,
      "velocity": 112,
      "chip": "ym2612"
    },
    {
      "channel": 1,
      "note": 57,
      "start": 123.3682,
      "duration": 0.1998,
      "velocity": 107,
      "chip": "ym2612"
    },
    {
      "channel": 2,
      "note": 62,
      "start": 123.3687,
      "duration": 0.1999,
      "velocity": 107,
      "chip": "ym2612"
    },
    {
      "channel": 4,
      "note": 62,
      "start": 123.3709,
      "duration": 0.2019,
      "velocity": 74,
      "chip": "ym2612"
    },
    {
      "channel": 5,
      "note": 91,
      "start": 123.3715,
      "duration": 0.0963,
      "velocity": 127,
      "chip": "ym2612"
    },
    {
      "channel": 5,
      "note": 91,
      "start": 123.468,
      "duration": 0.2751,
      "velocity": 127,
      "chip": "ym2612"
    },
    {
      "channel": 0,
      "note": 50,
      "start": 123.5676,
      "duration": 0.1716,
      "velocity": 112,
      "chip": "ym2612"
    },
    {
      "channel": 1,
      "note": 62,
      "start": 123.5682,
      "duration": 0.1716,
      "velocity": 107,
      "chip": "ym2612"
    },
    {
      "channel": 2,
      "note": 66,
      "start": 123.5688,
      "duration": 0.1715,
      "velocity": 107,
      "chip": "ym2612"
    },
    {
      "channel": 3,
      "note": 86,
      "start": 123.5708,
      "duration": 0.003,
      "velocity": 97,
      "chip": "ym2612"
    },
    {
      "channel": 4,
      "note": 69,
      "start": 123.573,
      "duration": 0.1695,
      "velocity": 74,
      "chip": "ym2612"
    },
    {
      "channel": 3,
      "note": 85,
      "start": 123.5738,
      "duration": 0.0073,
      "velocity": 97,
      "chip": "ym2612"
    },
    {
      "channel": 3,
      "note": 85,
      "start": 123.5812,
      "duration": 0.011,
      "velocity": 97,
      "chip": "ym2612"
    },
    {
      "channel": 3,
      "note": 84,
      "start": 123.5922,
      "duration": 0.3487,
      "velocity": 97,
      "chip": "ym2612"
    },
    {
      "channel": 0,
      "note": 62,
      "start": 123.7393,
      "duration": 0.1999,
      "velocity": 112,
      "chip": "ym2612"
    },
    {
      "channel": 1,
      "note": 66,
      "start": 123.7399,
      "duration": 0.1998,
      "velocity": 107,
      "chip": "ym2612"
    },
    {
      "channel": 2,
      "note": 69,
      "start": 123.7404,
      "duration": 0.1999,
      "velocity": 107,
      "chip": "ym2612"
    },
    {
      "channel": 4,
      "note": 69,
      "start": 123.7427,
      "duration": 0.0983,
      "velocity": 74,
      "chip": "ym2612"
    },
    {
      "channel": 5,
      "note": 91,
      "start": 123.7432,
      "duration": 0.0983,
      "velocity": 127,
      "chip": "ym2612"
    },
    {
      "channel": 4,
      "note": 66,
      "start": 123.8412,
      "duration": 0.1002,
      "velocity": 74,
      "chip": "ym2612"
    },
    {
      "channel": 5,
      "note": 91,
      "start": 123.8418,
      "duration": 0.2887,
      "velocity": 127,
      "chip": "ym2612"
    },
    {
      "channel": 0,
      "note": 50,
      "start": 123.9393,
      "duration": 0.1868,
      "velocity": 112,
      "chip": "ym2612"
    },
    {
      "channel": 1,
      "note": 69,
      "start": 123.9399,
      "duration": 0.1867,
      "velocity": 107,
      "chip": "ym2612"
    },
    {
      "channel": 2,
      "note": 74,
      "start": 123.9405,
      "duration": 0.1867,
      "velocity": 107,
      "chip": "ym2612"
    },
    {
      "channel": 3,
      "note": 84,
      "start": 123.941,
      "duration": 0.0015,
      "velocity": 97,
      "chip": "ym2612"
    },
    {
      "channel": 4,
      "note": 69,
      "start": 123.9416,
      "duration": 0.0863,
      "velocity": 74,
      "chip": "ym2612"
    },
    {
      "channel": 3,
      "note": 83,
      "start": 123.9425,
      "duration": 0.0097,
      "velocity": 97,
      "chip": "ym2612"
    },
    {
      "channel": 3,
      "note": 83,
      "start": 123.9522,
      "duration": 0.1756,
      "velocity": 97,
      "chip": "ym2612"
    },
    {
      "channel": 4,
      "note": 66,
      "start": 124.0281,
      "duration": 0.1018,
      "velocity": 74,
      "chip": "ym2612"
    },
    {
      "channel": 0,
      "note": 62,
      "start": 124.1263,
      "duration": 0.1999,
      "velocity": 112,
      "chip": "ym2612"
    },
    {
      "channel": 1,
      "note": 66,
      "start": 124.1268,
      "duration": 0.1998,
      "velocity": 107,
      "chip": "ym2612"
    },
    {
      "channel": 2,
      "note": 69,
      "start": 124.1274,
      "duration": 0.1998,
      "velocity": 107,
      "chip": "ym2612"
    },
    {
      "channel": 3,
      "note": 83,
      "start": 124.1279,
      "duration": 0.0032,
      "velocity": 97,
      "chip": "ym2612"
    },
    {
      "channel": 4,
      "note": 66,
      "start": 124.1301,
      "duration": 0.1983,
      "velocity": 74,
      "chip": "ym2612"
    },
    {
      "channel": 5,
      "note": 91,
      "start": 124.1307,
      "duration": 0.0958,
      "velocity": 127,
      "chip": "ym2612"
    },
    {
      "channel": 3,
      "note": 82,
      "start": 124.1312,
      "duration": 0.0113,
      "velocity": 97,
      "chip": "ym2612"
    },
    {
      "channel": 3,
      "note": 81,
      "start": 124.1425,
      "duration": 0.0167,
      "velocity": 97,
      "chip": "ym2612"
    },
    {
      "channel": 3,
      "note": 81,
      "start": 124.1592,
      "duration": 0.1686,
      "velocity": 97,
      "chip": "ym2612"
    },
    {
      "channel": 5,
      "note": 91,
      "start": 124.2266,
      "duration": 0.2732,
      "velocity": 127,
      "chip": "ym2612"
    },
    {
      "channel": 0,
      "note": 50,
      "start": 124.3263,
      "duration": 0.1707,
      "velocity": 112,
      "chip": "ym2612"
    },
    {
      "channel": 1,
      "note": 62,
      "start": 124.3268,
      "duration": 0.1707,
      "velocity": 107,
      "chip": "ym2612"
    },
    {
      "channel": 2,
      "note": 66,
      "start": 124.3274,
      "duration": 0.1706,
      "velocity": 107,
      "chip": "ym2612"
    },
    {
      "channel": 3,
      "note": 81,
      "start": 124.3279,
      "duration": 0.0015,
      "velocity": 97,
      "chip": "ym2612"
    },
    {
      "channel": 4,
      "note": 74,
      "start": 124.3285,
      "duration": 0.1707,
      "velocity": 74,
      "chip": "ym2612"
    },
    {
      "channel": 3,
      "note": 80,
      "start": 124.3294,
      "duration": 0.0094,
      "velocity": 97,
      "chip": "ym2612"
    },
    {
      "channel": 3,
      "note": 80,
      "start": 124.3388,
      "duration": 0.0109,
      "velocity": 97,
      "chip": "ym2612"
    },
    {
      "channel": 3,
      "note": 79,
      "start": 124.3497,
      "duration": 0.0118,
      "velocity": 97,
      "chip": "ym2612"
    },
    {
      "channel": 3,
      "note": 79,
      "start": 124.3616,
      "duration": 0.137,
      "velocity": 97,
      "chip": "ym2612"
    },
    {
      "channel": 0,
      "note": 62,
      "start": 124.4971,
      "duration": 0.1999,
      "velocity": 112,
      "chip": "ym2612"
    },
    {
      "channel": 1,
      "note": 57,
      "start": 124.4976,
      "duration": 0.2,
      "velocity": 107,
      "chip": "ym2612"
    },
    {
      "channel": 2,
      "note": 62,
      "start": 124.4982,
      "duration": 0.2,
      "velocity": 107,
      "chip": "ym2612"
    },
    {
      "channel": 3,
      "note": 79,
      "start": 124.4988,
      "duration": 0.0017,
      "velocity": 97,
      "chip": "ym2612"
    },
    {
      "channel": 4,
      "note": 69,
      "start": 124.4993,
      "duration": 0.1998,
      "velocity": 74,
      "chip": "ym2612"
    },
    {
      "channel": 5,
      "note": 91,
      "start": 124.4999,
      "duration": 0.0974,
      "velocity": 127,
      "chip": "ym2612"
    },
    {
      "channel": 3,
      "note": 79,
      "start": 124.5004,
      "duration": 0.0129,
      "velocity": 97,
      "chip": "ym2612"
    },
    {
      "channel": 3,
      "note": 80,
      "start": 124.5133,
      "duration": 0.0167,
      "velocity": 97,
      "chip": "ym2612"
    },
    {
      "channel": 3,
      "note": 81,
      "start": 124.53,
      "duration": 0.0167,
      "velocity": 97,
      "chip": "ym2612"
    },
    {
      "channel": 3,
      "note": 81,
      "start": 124.5466,
      "duration": 0.1535,
      "velocity": 97,
      "chip": "ym2612"
    },
    {
      "channel": 5,
      "note": 91,
      "start": 124.5975,
      "duration": 0.2888,
      "velocity": 127,
      "chip": "ym2612"
    },
    {
      "channel": 0,
      "note": 43,
      "start": 124.6972,
      "duration": 0.1851,
      "velocity": 112,
      "chip": "ym2612"
    },
    {
      "channel": 1,
      "note": 55,
      "start": 124.6978,
      "duration": 0.1851,
      "velocity": 107,
      "chip": "ym2612"
    },
    {
      "channel": 2,
      "note": 59,
      "start": 124.6984,
      "duration": 0.1851,
      "velocity": 107,
      "chip": "ym2612"
    },
    {
      "channel": 4,
      "note": 67,
      "start": 124.6993,
      "duration": 0.1863,
      "velocity": 74,
      "chip": "ym2612"
    },
    {
      "channel": 3,
      "note": 80,
      "start": 124.7001,
      "duration": 0.0115,
      "velocity": 97,
      "chip": "ym2612"
    },
    {
      "channel": 3,
      "note": 80,
      "start": 124.7116,
      "duration": 0.0119,
      "velocity": 97,
      "chip": "ym2612"
    },
    {
      "channel": 3,
      "note": 79,
      "start": 124.7234,
      "duration": 0.0113,
      "velocity": 97,
      "chip": "ym2612"
    },
    {
      "channel": 3,
      "note": 79,
      "start": 124.7348,
      "duration": 1.476,
      "velocity": 97,
      "chip": "ym2612"
    },
    {
      "channel": 0,
      "note": 55,
      "start": 124.8825,
      "duration": 0.1999,
      "velocity": 112,
      "chip": "ym2612"
    },
    {
      "channel": 1,
      "note": 59,
      "start": 124.8831,
      "duration": 0.1999,
      "velocity": 107,
      "chip": "ym2612"
    },
    {
      "channel": 2,
      "note": 62,
      "start": 124.8836,
      "duration": 0.1999,
      "velocity": 107,
      "chip": "ym2612"
    },
    {
      "channel": 4,
      "note": 67,
      "start": 124.8858,
      "duration": 0.2015,
      "velocity": 74,
      "chip": "ym2612"
    },
    {
      "channel": 5,
      "note": 91,
      "start": 124.8864,
      "duration": 0.0962,
      "velocity": 127,
      "chip": "ym2612"
    },
    {
      "channel": 5,
      "note": 91,
      "start": 124.9828,
      "duration": 0.276,
      "velocity": 127,
      "chip": "ym2612"
    },
    {
      "channel": 0,
      "note": 43,
      "start": 125.0826,
      "duration": 0.1723,
      "velocity": 112,
      "chip": "ym2612"
    },
    {
      "channel": 1,
      "note": 62,
      "start": 125.0831,
      "duration": 0.1724,
      "velocity": 107,
      "chip": "ym2612"
    },
    {
      "channel": 2,
      "note": 67,
      "start": 125.0837,
      "duration": 0.1724,
      "velocity": 107,
      "chip": "ym2612"
    },
    {
      "channel": 4,
      "note": 79,
      "start": 125.0875,
      "duration": 0.1707,
      "velocity": 74,
      "chip": "ym2612"
    },
    {
      "channel": 0,
      "note": 55,
      "start": 125.2551,
      "duration": 0.1998,
      "velocity": 112,
      "chip": "ym2612"
    },
    {
      "channel": 1,
      "note": 67,
      "start": 125.2556,
      "duration": 0.1998,
      "velocity": 107,
      "chip": "ym2612"
    },
    {
      "channel": 2,
      "note": 71,
      "start": 125.2562,
      "duration": 0.1999,
      "velocity": 107,
      "chip": "ym2612"
    },
    {
      "channel": 4,
      "note": 79,
      "start": 125.2584,
      "duration": 0.0983,
      "velocity": 74,
      "chip": "ym2612"
    },
    {
      "channel": 5,
      "note": 91,
      "start": 125.259,
      "duration": 0.0983,
      "velocity": 127,
      "chip": "ym2612"
    },
    {
      "channel": 4,
      "note": 74,
      "start": 125.3569,
      "duration": 0.0997,
      "velocity": 74,
      "chip": "ym2612"
    },
    {
      "channel": 5,
      "note": 91,
      "start": 125.3575,
      "duration": 0.2822,
      "velocity": 127,
      "chip": "ym2612"
    },
    {
      "channel": 0,
      "note": 43,
      "start": 125.4551,
      "duration": 0.1808,
      "velocity": 112,
      "chip": "ym2612"
    },
    {
      "channel": 1,
      "note": 71,
      "start": 125.4556,
      "duration": 0.1808,
      "velocity": 107,
      "chip": "ym2612"
    },
    {
      "channel": 2,
      "note": 74,
      "start": 125.4562,
      "duration": 0.1808,
      "velocity": 107,
      "chip": "ym2612"
    },
    {
      "channel": 4,
      "note": 76,
      "start": 125.4569,
      "duration": 0.0808,
      "velocity": 74,
      "chip": "ym2612"
    },
    {
      "channel": 4,
      "note": 74,
      "start": 125.5379,
      "duration": 0.1013,
      "velocity": 74,
      "chip": "ym2612"
    },
    {
      "channel": 0,
      "note": 55,
      "start": 125.6361,
      "duration": 0.1998,
      "velocity": 112,
      "chip": "ym2612"
    },
    {
      "channel": 1,
      "note": 67,
      "start": 125.6366,
      "duration": 0.1998,
      "velocity": 107,
      "chip": "ym2612"
    },
    {
      "channel": 2,
      "note": 71,
      "start": 125.6371,
      "duration": 0.1999,
      "velocity": 107,
      "chip": "ym2612"
    },
    {
      "channel": 4,
      "note": 74,
      "start": 125.6394,
      "duration": 0.1983,
      "velocity": 74,
      "chip": "ym2612"
    },
    {
      "channel": 5,
      "note": 91,
      "start": 125.6399,
      "duration": 0.0963,
      "velocity": 127,
      "chip": "ym2612"
    },
    {
      "channel": 5,
      "note": 91,
      "start": 125.7364,
      "duration": 0.2722,
      "velocity": 127,
      "chip": "ym2612"
    },
    {
      "channel": 0,
      "note": 43,
      "start": 125.8361,
      "duration": 0.1702,
      "velocity": 112,
      "chip": "ym2612"
    },
    {
      "channel": 1,
      "note": 62,
      "start": 125.8366,
      "duration": 0.1702,
      "velocity": 107,
      "chip": "ym2612"
    },
    {
      "channel": 2,
      "note": 67,
      "start": 125.8371,
      "duration": 0.1702,
      "velocity": 107,
      "chip": "ym2612"
    },
    {
      "channel": 4,
      "note": 70,
      "start": 125.8378,
      "duration": 0.0732,
      "velocity": 74,
      "chip": "ym2612"
    },
    {
      "channel": 4,
      "note": 71,
      "start": 125.9112,
      "duration": 0.0968,
      "velocity": 74,
      "chip": "ym2612"
    },
    {
      "channel": 0,
      "note": 55,
      "start": 126.0064,
      "duration": 0.1999,
      "velocity": 112,
      "chip": "ym2612"
    },
    {
      "channel": 1,
      "note": 59,
      "start": 126.007,
      "duration": 0.1998,
      "velocity": 107,
      "chip": "ym2612"
    },
    {
      "channel": 2,
      "note": 62,
      "start": 126.0075,
      "duration": 0.1999,
      "velocity": 107,
      "chip": "ym2612"
    },
    {
      "channel": 4,
      "note": 74,
      "start": 126.0082,
      "duration": 0.0999,
      "velocity": 74,
      "chip": "ym2612"
    },
    {
      "channel": 5,
      "note": 91,
      "start": 126.0088,
      "duration": 0.0999,
      "velocity": 127,
      "chip": "ym2612"
    },
    {
      "channel": 4,
      "note": 71,
      "start": 126.1083,
      "duration": 0.1015,
      "velocity": 74,
      "chip": "ym2612"
    },
    {
      "channel": 5,
      "note": 91,
      "start": 126.1088,
      "duration": 0.2853,
      "velocity": 127,
      "chip": "ym2612"
    },
    {
      "channel": 0,
      "note": 50,
      "start": 126.2064,
      "duration": 0.1838,
      "velocity": 112,
      "chip": "ym2612"
    },
    {
      "channel": 1,
      "note": 54,
      "start": 126.207,
      "duration": 0.1838,
      "velocity": 107,
      "chip": "ym2612"
    },
    {
      "channel": 2,
      "note": 57,
      "start": 126.2076,
      "duration": 0.1838,
      "velocity": 107,
      "chip": "ym2612"
    },
    {
      "channel": 4,
      "note": 62,
      "start": 126.21,
      "duration": 0.1835,
      "velocity": 120,
      "chip": "ym2612"
    },
    {
      "channel": 3,
      "note": 75,
      "start": 126.2108,
      "duration": 0.0089,
      "velocity": 97,
      "chip": "ym2612"
    },
    {
      "channel": 3,
      "note": 74,
      "start": 126.2197,
      "duration": 0.7502,
      "velocity": 117,
      "chip": "ym2612"
    },
    {
      "channel": 0,
      "note": 62,
      "start": 126.3904,
      "duration": 0.1999,
      "velocity": 112,
      "chip": "ym2612"
    },
    {
      "channel": 1,
      "note": 57,
      "start": 126.391,
      "duration": 0.1999,
      "velocity": 107,
      "chip": "ym2612"
    },
    {
      "channel": 2,
      "note": 62,
      "start": 126.3915,
      "duration": 0.1999,
      "velocity": 107,
      "chip": "ym2612"
    },
    {
      "channel": 4,
      "note": 43,
      "start": 126.3937,
      "duration": 0.0968,
      "velocity": 120,
      "chip": "ym2612"
    },
    {
      "channel": 5,
      "note": 91,
      "start": 126.3943,
      "duration": 0.0968,
      "velocity": 127,
      "chip": "ym2612"
    },
    {
      "channel": 4,
      "note": 55,
      "start": 126.4906,
      "duration": 0.1013,
      "velocity": 120,
      "chip": "ym2612"
    },
    {
      "channel": 5,
      "note": 91,
      "start": 126.4912,
      "duration": 0.2771,
      "velocity": 127,
      "chip": "ym2612"
    },
    {
      "channel": 0,
      "note": 50,
      "start": 126.5905,
      "duration": 0.1761,
      "velocity": 112,
      "chip": "ym2612"
    },
    {
      "channel": 1,
      "note": 62,
      "start": 126.591,
      "duration": 0.1762,
      "velocity": 107,
      "chip": "ym2612"
    },
    {
      "channel": 2,
      "note": 66,
      "start": 126.5915,
      "duration": 0.1761,
      "velocity": 107,
      "chip": "ym2612"
    },
    {
      "channel": 4,
      "note": 43,
      "start": 126.5922,
      "duration": 0.3783,
      "velocity": 120,
      "chip": "ym2612"
    },
    {
      "channel": 0,
      "note": 62,
      "start": 126.7668,
      "duration": 0.1999,
      "velocity": 112,
      "chip": "ym2612"
    },
    {
      "channel": 1,
      "note": 66,
      "start": 126.7673,
      "duration": 0.1999,
      "velocity": 107,
      "chip": "ym2612"
    },
    {
      "channel": 2,
      "note": 69,
      "start": 126.7678,
      "duration": 0.1999,
      "velocity": 107,
      "chip": "ym2612"
    },
    {
      "channel": 5,
      "note": 91,
      "start": 126.7685,
      "duration": 0.0983,
      "velocity": 127,
      "chip": "ym2612"
    },
    {
      "channel": 5,
      "note": 91,
      "start": 126.867,
      "duration": 0.2885,
      "velocity": 127,
      "chip": "ym2612"
    },
    {
      "channel": 0,
      "note": 50,
      "start": 126.9668,
      "duration": 0.1859,
      "velocity": 112,
      "chip": "ym2612"
    },
    {
      "channel": 1,
      "note": 69,
      "start": 126.9673,
      "duration": 0.186,
      "velocity": 107,
      "chip": "ym2612"
    },
    {
      "channel": 2,
      "note": 74,
      "start": 126.9679,
      "duration": 0.1859,
      "velocity": 107,
      "chip": "ym2612"
    },
    {
      "channel": 3,
      "note": 79,
      "start": 126.9701,
      "duration": 0.0013,
      "velocity": 117,
      "chip": "ym2612"
    },
    {
      "channel": 4,
      "note": 43,
      "start": 126.9706,
      "duration": 0.0824,
      "velocity": 120,
      "chip": "ym2612"
    },
    {
      "channel": 3,
      "note": 78,
      "start": 126.9714,
      "duration": 0.0081,
      "velocity": 117,
      "chip": "ym2612"
    },
    {
      "channel": 3,
      "note": 77,
      "start": 126.9795,
      "duration": 0.0145,
      "velocity": 117,
      "chip": "ym2612"
    },
    {
      "channel": 3,
      "note": 76,
      "start": 126.994,
      "duration": 0.0131,
      "velocity": 117,
      "chip": "ym2612"
    },
    {
      "channel": 3,
      "note": 75,
      "start": 127.0071,
      "duration": 0.0285,
      "velocity": 117,
      "chip": "ym2612"
    },
    {
      "channel": 3,
      "note": 74,
      "start": 127.0357,
      "duration": 0.0179,
      "velocity": 117,
      "chip": "ym2612"
    },
    {
      "channel": 4,
      "note": 55,
      "start": 127.0531,
      "duration": 0.1019,
      "velocity": 120,
      "chip": "ym2612"
    },
    {
      "channel": 3,
      "note": 73,
      "start": 127.0536,
      "duration": 0.0154,
      "velocity": 117,
      "chip": "ym2612"
    },
    {
      "channel": 3,
      "note": 72,
      "start": 127.069,
      "duration": 0.0167,
      "velocity": 117,
      "chip": "ym2612"
    },
    {
      "channel": 3,
      "note": 71,
      "start": 127.0857,
      "duration": 0.0167,
      "velocity": 117,
      "chip": "ym2612"
    },
    {
      "channel": 3,
      "note": 69,
      "start": 127.1024,
      "duration": 0.0333,
      "velocity": 117,
      "chip": "ym2612"
    },
    {
      "channel": 3,
      "note": 68,
      "start": 127.1357,
      "duration": 0.0188,
      "velocity": 117,
      "chip": "ym2612"
    },
    {
      "channel": 0,
      "note": 62,
      "start": 127.1529,
      "duration": 0.1998,
      "velocity": 112,
      "chip": "ym2612"
    },
    {
      "channel": 1,
      "note": 66,
      "start": 127.1534,
      "duration": 0.1998,
      "velocity": 107,
      "chip": "ym2612"
    },
    {
      "channel": 2,
      "note": 69,
      "start": 127.154,
      "duration": 0.1998,
      "velocity": 107,
      "chip": "ym2612"
    },
    {
      "channel": 3,
      "note": 79,
      "start": 127.1546,
      "duration": 0.0016,
      "velocity": 117,
      "chip": "ym2612"
    },
    {
      "channel": 4,
      "note": 43,
      "start": 127.1551,
      "duration": 0.1993,
      "velocity": 120,
      "chip": "ym2612"
    },
    {
      "channel": 5,
      "note": 91,
      "start": 127.1557,
      "duration": 0.0973,
      "velocity": 127,
      "chip": "ym2612"
    },
    {
      "channel": 3,
      "note": 78,
      "start": 127.1562,
      "duration": 0.0129,
      "velocity": 117,
      "chip": "ym2612"
    },
    {
      "channel": 3,
      "note": 77,
      "start": 127.169,
      "duration": 0.0167,
      "velocity": 117,
      "chip": "ym2612"
    },
    {
      "channel": 3,
      "note": 76,
      "start": 127.1857,
      "duration": 0.0167,
      "velocity": 117,
      "chip": "ym2612"
    },
    {
      "channel": 3,
      "note": 75,
      "start": 127.2024,
      "duration": 0.0333,
      "velocity": 117,
      "chip": "ym2612"
    },
    {
      "channel": 3,
      "note": 74,
      "start": 127.2357,
      "duration": 0.0179,
      "velocity": 117,
      "chip": "ym2612"
    },
    {
      "channel": 5,
      "note": 91,
      "start": 127.2532,
      "duration": 0.2719,
      "velocity": 127,
      "chip": "ym2612"
    },
    {
      "channel": 3,
      "note": 73,
      "start": 127.2536,
      "duration": 0.0154,
      "velocity": 117,
      "chip": "ym2612"
    },
    {
      "channel": 3,
      "note": 72,
      "start": 127.269,
      "duration": 0.0167,
      "velocity": 117,
      "chip": "ym2612"
    },
    {
      "channel": 3,
      "note": 71,
      "start": 127.2857,
      "duration": 0.0167,
      "velocity": 117,
      "chip": "ym2612"
    },
    {
      "channel": 3,
      "note": 69,
      "start": 127.3024,
      "duration": 0.0333,
      "velocity": 117,
      "chip": "ym2612"
    },
    {
      "channel": 3,
      "note": 68,
      "start": 127.3357,
      "duration": 0.0197,
      "velocity": 117,
      "chip": "ym2612"
    },
    {
      "channel": 0,
      "note": 50,
      "start": 127.3529,
      "duration": 0.1705,
      "velocity": 112,
      "chip": "ym2612"
    },
    {
      "channel": 1,
      "note": 62,
      "start": 127.3534,
      "duration": 0.1704,
      "velocity": 107,
      "chip": "ym2612"
    },
    {
      "channel": 2,
      "note": 66,
      "start": 127.3539,
      "duration": 0.1704,
      "velocity": 107,
      "chip": "ym2612"
    },
    {
      "channel": 4,
      "note": 55,
      "start": 127.3546,
      "duration": 0.3758,
      "velocity": 107,
      "chip": "ym2612"
    },
    {
      "channel": 3,
      "note": 67,
      "start": 127.3554,
      "duration": 0.0087,
      "velocity": 117,
      "chip": "ym2612"
    },
    {
      "channel": 3,
      "note": 66,
      "start": 127.3641,
      "duration": 0.0143,
      "velocity": 117,
      "chip": "ym2612"
    },
    {
      "channel": 3,
      "note": 65,
      "start": 127.3784,
      "duration": 0.0114,
      "velocity": 117,
      "chip": "ym2612"
    },
    {
      "channel": 3,
      "note": 64,
      "start": 127.3898,
      "duration": 0.0257,
      "velocity": 117,
      "chip": "ym2612"
    },
    {
      "channel": 3,
      "note": 63,
      "start": 127.4155,
      "duration": 0.0128,
      "velocity": 117,
      "chip": "ym2612"
    },
    {
      "channel": 3,
      "note": 79,
      "start": 127.4284,
      "duration": 0.0006,
      "velocity": 117,
      "chip": "ym2612"
    },
    {
      "channel": 3,
      "note": 78,
      "start": 127.429,
      "duration": 0.0116,
      "velocity": 117,
      "chip": "ym2612"
    },
    {
      "channel": 3,
      "note": 77,
      "start": 127.4405,
      "duration": 0.0157,
      "velocity": 117,
      "chip": "ym2612"
    },
    {
      "channel": 3,
      "note": 76,
      "start": 127.4563,
      "duration": 0.0167,
      "velocity": 117,
      "chip": "ym2612"
    },
    {
      "channel": 3,
      "note": 75,
      "start": 127.4729,
      "duration": 0.0333,
      "velocity": 117,
      "chip": "ym2612"
    },
    {
      "channel": 3,
      "note": 74,
      "start": 127.5063,
      "duration": 0.0194,
      "velocity": 117,
      "chip": "ym2612"
    },
    {
      "channel": 0,
      "note": 62,
      "start": 127.5234,
      "duration": 0.2015,
      "velocity": 117,
      "chip": "ym2612"
    },
    {
      "channel": 1,
      "note": 57,
      "start": 127.524,
      "duration": 0.2015,
      "velocity": 107,
      "chip": "ym2612"
    },
    {
      "channel": 2,
      "note": 62,
      "start": 127.5245,
      "duration": 0.2016,
      "velocity": 107,
      "chip": "ym2612"
    },
    {
      "channel": 5,
      "note": 91,
      "start": 127.5252,
      "duration": 0.0985,
      "velocity": 127,
      "chip": "ym2612"
    },
    {
      "channel": 3,
      "note": 73,
      "start": 127.5256,
      "duration": 0.0139,
      "velocity": 117,
      "chip": "ym2612"
    },
    {
      "channel": 3,
      "note": 72,
      "start": 127.5396,
      "duration": 0.0167,
      "velocity": 117,
      "chip": "ym2612"
    },
    {
      "channel": 3,
      "note": 71,
      "start": 127.5563,
      "duration": 0.0167,
      "velocity": 117,
      "chip": "ym2612"
    },
    {
      "channel": 3,
      "note": 69,
      "start": 127.5729,
      "duration": 0.0333,
      "velocity": 117,
      "chip": "ym2612"
    },
    {
      "channel": 3,
      "note": 68,
      "start": 127.6063,
      "duration": 0.018,
      "velocity": 117,
      "chip": "ym2612"
    },
    {
      "channel": 5,
      "note": 91,
      "start": 127.6238,
      "duration": 0.2876,
      "velocity": 127,
      "chip": "ym2612"
    },
    {
      "channel": 3,
      "note": 67,
      "start": 127.6243,
      "duration": 0.0153,
      "velocity": 117,
      "chip": "ym2612"
    },
    {
      "channel": 3,
      "note": 66,
      "start": 127.6396,
      "duration": 0.0167,
      "velocity": 117,
      "chip": "ym2612"
    },
    {
      "channel": 3,
      "note": 65,
      "start": 127.6563,
      "duration": 0.0167,
      "velocity": 117,
      "chip": "ym2612"
    },
    {
      "channel": 3,
      "note": 64,
      "start": 127.6729,
      "duration": 0.0333,
      "velocity": 117,
      "chip": "ym2612"
    },
    {
      "channel": 3,
      "note": 63,
      "start": 127.7063,
      "duration": 0.022,
      "velocity": 107,
      "chip": "ym2612"
    },
    {
      "channel": 0,
      "note": 55,
      "start": 127.725,
      "duration": 0.1855,
      "velocity": 117,
      "chip": "ym2612"
    },
    {
      "channel": 1,
      "note": 83,
      "start": 127.7256,
      "duration": 8.9709,
      "velocity": 107,
      "chip": "ym2612"
    },
    {
      "channel": 2,
      "note": 79,
      "start": 127.7263,
      "duration": 8.9702,
      "velocity": 107,
      "chip": "ym2612"
    },
    {
      "channel": 3,
      "note": 74,
      "start": 127.7284,
      "duration": 8.9681,
      "velocity": 107,
      "chip": "ym2612"
    },
    {
      "channel": 4,
      "note": 71,
      "start": 127.7305,
      "duration": 8.966,
      "velocity": 107,
      "chip": "ym2612"
    },
    {
      "channel": 0,
      "note": 55,
      "start": 127.9107,
      "duration": 0.0999,
      "velocity": 117,
      "chip": "ym2612"
    },
    {
      "channel": 5,
      "note": 91,
      "start": 127.9116,
      "duration": 0.0998,
      "velocity": 127,
      "chip": "ym2612"
    },
    {
      "channel": 0,
      "note": 55,
      "start": 128.0107,
      "duration": 0.0999,
      "velocity": 117,
      "chip": "ym2612"
    },
    {
      "channel": 5,
      "note": 91,
      "start": 128.0115,
      "duration": 0.274,
      "velocity": 127,
      "chip": "ym2612"
    },
    {
      "channel": 0,
      "note": 67,
      "start": 128.1107,
      "duration": 0.174,
      "velocity": 117,
      "chip": "ym2612"
    },
    {
      "channel": 0,
      "note": 55,
      "start": 128.2848,
      "duration": 0.0999,
      "velocity": 117,
      "chip": "ym2612"
    },
    {
      "channel": 5,
      "note": 91,
      "start": 128.2856,
      "duration": 0.0999,
      "velocity": 127,
      "chip": "ym2612"
    },
    {
      "channel": 0,
      "note": 67,
      "start": 128.3849,
      "duration": 0.0998,
      "velocity": 117,
      "chip": "ym2612"
    },
    {
      "channel": 5,
      "note": 91,
      "start": 128.3856,
      "duration": 0.2851,
      "velocity": 127,
      "chip": "ym2612"
    },
    {
      "channel": 0,
      "note": 55,
      "start": 128.4848,
      "duration": 0.1851,
      "velocity": 117,
      "chip": "ym2612"
    },
    {
      "channel": 0,
      "note": 55,
      "start": 128.6701,
      "duration": 0.0998,
      "velocity": 117,
      "chip": "ym2612"
    },
    {
      "channel": 5,
      "note": 91,
      "start": 128.6709,
      "duration": 0.0999,
      "velocity": 127,
      "chip": "ym2612"
    },
    {
      "channel": 0,
      "note": 55,
      "start": 128.7701,
      "duration": 0.0998,
      "velocity": 117,
      "chip": "ym2612"
    },
    {
      "channel": 5,
      "note": 91,
      "start": 128.7709,
      "duration": 0.2671,
      "velocity": 127,
      "chip": "ym2612"
    },
    {
      "channel": 0,
      "note": 67,
      "start": 128.87,
      "duration": 0.1671,
      "velocity": 117,
      "chip": "ym2612"
    },
    {
      "channel": 0,
      "note": 55,
      "start": 129.0373,
      "duration": 0.0999,
      "velocity": 117,
      "chip": "ym2612"
    },
    {
      "channel": 5,
      "note": 91,
      "start": 129.0381,
      "duration": 0.0999,
      "velocity": 127,
      "chip": "ym2612"
    },
    {
      "channel": 0,
      "note": 67,
      "start": 129.1373,
      "duration": 0.0998,
      "velocity": 117,
      "chip": "ym2612"
    },
    {
      "channel": 5,
      "note": 91,
      "start": 129.1381,
      "duration": 0.2851,
      "velocity": 127,
      "chip": "ym2612"
    },
    {
      "channel": 0,
      "note": 55,
      "start": 129.2373,
      "duration": 0.1851,
      "velocity": 117,
      "chip": "ym2612"
    },
    {
      "channel": 0,
      "note": 55,
      "start": 129.4225,
      "duration": 0.0998,
      "velocity": 117,
      "chip": "ym2612"
    },
    {
      "channel": 5,
      "note": 91,
      "start": 129.4233,
      "duration": 0.0998,
      "velocity": 127,
      "chip": "ym2612"
    },
    {
      "channel": 0,
      "note": 55,
      "start": 129.5225,
      "duration": 0.0999,
      "velocity": 117,
      "chip": "ym2612"
    },
    {
      "channel": 5,
      "note": 91,
      "start": 129.5233,
      "duration": 0.2671,
      "velocity": 127,
      "chip": "ym2612"
    },
    {
      "channel": 0,
      "note": 67,
      "start": 129.6225,
      "duration": 0.1671,
      "velocity": 117,
      "chip": "ym2612"
    },
    {
      "channel": 0,
      "note": 55,
      "start": 129.7898,
      "duration": 0.0998,
      "velocity": 117,
      "chip": "ym2612"
    },
    {
      "channel": 5,
      "note": 91,
      "start": 129.7905,
      "duration": 0.0998,
      "velocity": 127,
      "chip": "ym2612"
    },
    {
      "channel": 0,
      "note": 67,
      "start": 129.8897,
      "duration": 0.0999,
      "velocity": 117,
      "chip": "ym2612"
    },
    {
      "channel": 5,
      "note": 91,
      "start": 129.8905,
      "duration": 0.2848,
      "velocity": 127,
      "chip": "ym2612"
    },
    {
      "channel": 0,
      "note": 55,
      "start": 129.9897,
      "duration": 0.1848,
      "velocity": 117,
      "chip": "ym2612"
    },
    {
      "channel": 0,
      "note": 55,
      "start": 130.1747,
      "duration": 0.0998,
      "velocity": 117,
      "chip": "ym2612"
    },
    {
      "channel": 5,
      "note": 91,
      "start": 130.1754,
      "duration": 0.0998,
      "velocity": 127,
      "chip": "ym2612"
    },
    {
      "channel": 0,
      "note": 55,
      "start": 130.2746,
      "duration": 6.4219,
      "velocity": 117,
      "chip": "ym2612"
    },
    {
      "channel": 5,
      "note": 91,
      "start": 130.2754,
      "duration": 6.4211,
      "velocity": 127,
      "chip": "ym2612"
    }
  ]
}