{
  "track_name": "21 - Shop Theme 1 (unused)",
  "duration_sec": 56.196,
  "sample_rate": 44100,
  "note_count": 634,
  "unique_pitches": 22,
  "pitch_range": 30,
  "avg_note_duration": 0.3302,
  "reconstruction_stats": {
    "notes_reconstructed": 634,
    "keyon_events": 634,
    "keyoff_events": 634,
    "orphan_keyons": 0,
    "unique_pitches": 22,
    "pitch_range": 30,
    "avg_duration_sec": 0.3302
  },
  "metadata": {
    "source": "D\\Dungeons & Dragons - Warriors of the Eternal Sun\\21 - Shop Theme 1 (unused).vgz"
  },
  "notes": [
    {
      "channel": 0,
      "note": 71,
      "start": 0.1316,
      "duration": 1.127,
      "velocity": 116,
      "chip": "ym2612"
    },
    {
      "channel": 4,
      "note": 71,
      "start": 0.1427,
      "duration": 0.7495,
      "velocity": 108,
      "chip": "ym2612"
    },
    {
      "channel": 3,
      "note": 78,
      "start": 0.3115,
      "duration": 0.3972,
      "velocity": 116,
      "chip": "ym2612"
    },
    {
      "channel": 1,
      "note": 83,
      "start": 0.5117,
      "duration": 0.3804,
      "velocity": 116,
      "chip": "ym2612"
    },
    {
      "channel": 3,
      "note": 86,
      "start": 0.7113,
      "duration": 0.3807,
      "velocity": 116,
      "chip": "ym2612"
    },
    {
      "channel": 1,
      "note": 83,
      "start": 0.895,
      "duration": 0.3972,
      "velocity": 116,
      "chip": "ym2612"
    },
    {
      "channel": 4,
      "note": 73,
      "start": 0.8975,
      "duration": 0.1946,
      "velocity": 108,
      "chip": "ym2612"
    },
    {
      "channel": 3,
      "note": 78,
      "start": 1.0947,
      "duration": 0.3807,
      "velocity": 116,
      "chip": "ym2612"
    },
    {
      "channel": 4,
      "note": 74,
      "start": 1.097,
      "duration": 0.1953,
      "velocity": 108,
      "chip": "ym2612"
    },
    {
      "channel": 0,
      "note": 69,
      "start": 1.2615,
      "duration": 0.0305,
      "velocity": 116,
      "chip": "ym2612"
    },
    {
      "channel": 0,
      "note": 71,
      "start": 1.2953,
      "duration": 1.13,
      "velocity": 116,
      "chip": "ym2612"
    },
    {
      "channel": 4,
      "note": 76,
      "start": 1.298,
      "duration": 0.3774,
      "velocity": 108,
      "chip": "ym2612"
    },
    {
      "channel": 3,
      "note": 78,
      "start": 1.478,
      "duration": 0.3973,
      "velocity": 116,
      "chip": "ym2612"
    },
    {
      "channel": 1,
      "note": 83,
      "start": 1.6783,
      "duration": 0.3805,
      "velocity": 116,
      "chip": "ym2612"
    },
    {
      "channel": 4,
      "note": 74,
      "start": 1.6805,
      "duration": 0.3784,
      "velocity": 108,
      "chip": "ym2612"
    },
    {
      "channel": 3,
      "note": 86,
      "start": 1.878,
      "duration": 0.3807,
      "velocity": 116,
      "chip": "ym2612"
    },
    {
      "channel": 1,
      "note": 83,
      "start": 2.0617,
      "duration": 0.397,
      "velocity": 116,
      "chip": "ym2612"
    },
    {
      "channel": 4,
      "note": 73,
      "start": 2.0639,
      "duration": 0.395,
      "velocity": 108,
      "chip": "ym2612"
    },
    {
      "channel": 3,
      "note": 78,
      "start": 2.2615,
      "duration": 0.1974,
      "velocity": 116,
      "chip": "ym2612"
    },
    {
      "channel": 0,
      "note": 68,
      "start": 2.4281,
      "duration": 0.0305,
      "velocity": 116,
      "chip": "ym2612"
    },
    {
      "channel": 0,
      "note": 69,
      "start": 2.4625,
      "duration": 1.1628,
      "velocity": 116,
      "chip": "ym2612"
    },
    {
      "channel": 4,
      "note": 69,
      "start": 2.4649,
      "duration": 0.3772,
      "velocity": 108,
      "chip": "ym2612"
    },
    {
      "channel": 3,
      "note": 76,
      "start": 2.6448,
      "duration": 0.3973,
      "velocity": 116,
      "chip": "ym2612"
    },
    {
      "channel": 1,
      "note": 81,
      "start": 2.8449,
      "duration": 0.3824,
      "velocity": 116,
      "chip": "ym2612"
    },
    {
      "channel": 4,
      "note": 69,
      "start": 2.8475,
      "duration": 0.128,
      "velocity": 108,
      "chip": "ym2612"
    },
    {
      "channel": 4,
      "note": 71,
      "start": 2.9783,
      "duration": 0.1305,
      "velocity": 108,
      "chip": "ym2612"
    },
    {
      "channel": 3,
      "note": 85,
      "start": 3.0447,
      "duration": 0.3807,
      "velocity": 116,
      "chip": "ym2612"
    },
    {
      "channel": 4,
      "note": 73,
      "start": 3.1117,
      "duration": 0.1159,
      "velocity": 108,
      "chip": "ym2612"
    },
    {
      "channel": 1,
      "note": 81,
      "start": 3.2303,
      "duration": 0.3951,
      "velocity": 116,
      "chip": "ym2612"
    },
    {
      "channel": 4,
      "note": 78,
      "start": 3.2328,
      "duration": 0.3927,
      "velocity": 108,
      "chip": "ym2612"
    },
    {
      "channel": 3,
      "note": 76,
      "start": 3.428,
      "duration": 0.3974,
      "velocity": 116,
      "chip": "ym2612"
    },
    {
      "channel": 0,
      "note": 68,
      "start": 3.6283,
      "duration": 0.0304,
      "velocity": 116,
      "chip": "ym2612"
    },
    {
      "channel": 4,
      "note": 76,
      "start": 3.6317,
      "duration": 1.1606,
      "velocity": 108,
      "chip": "ym2612"
    },
    {
      "channel": 0,
      "note": 69,
      "start": 3.6617,
      "duration": 1.1302,
      "velocity": 116,
      "chip": "ym2612"
    },
    {
      "channel": 3,
      "note": 76,
      "start": 3.828,
      "duration": 0.3807,
      "velocity": 116,
      "chip": "ym2612"
    },
    {
      "channel": 1,
      "note": 81,
      "start": 4.0115,
      "duration": 0.3972,
      "velocity": 116,
      "chip": "ym2612"
    },
    {
      "channel": 3,
      "note": 85,
      "start": 4.2113,
      "duration": 0.3807,
      "velocity": 116,
      "chip": "ym2612"
    },
    {
      "channel": 1,
      "note": 81,
      "start": 4.4115,
      "duration": 0.3805,
      "velocity": 116,
      "chip": "ym2612"
    },
    {
      "channel": 3,
      "note": 76,
      "start": 4.5948,
      "duration": 0.1974,
      "velocity": 116,
      "chip": "ym2612"
    },
    {
      "channel": 0,
      "note": 71,
      "start": 4.7947,
      "duration": 1.1306,
      "velocity": 116,
      "chip": "ym2612"
    },
    {
      "channel": 4,
      "note": 78,
      "start": 4.7974,
      "duration": 0.5781,
      "velocity": 108,
      "chip": "ym2612"
    },
    {
      "channel": 3,
      "note": 78,
      "start": 4.9947,
      "duration": 0.3807,
      "velocity": 116,
      "chip": "ym2612"
    },
    {
      "channel": 1,
      "note": 83,
      "start": 5.1782,
      "duration": 0.3971,
      "velocity": 116,
      "chip": "ym2612"
    },
    {
      "channel": 3,
      "note": 86,
      "start": 5.3781,
      "duration": 0.3806,
      "velocity": 116,
      "chip": "ym2612"
    },
    {
      "channel": 4,
      "note": 79,
      "start": 5.3807,
      "duration": 0.1948,
      "velocity": 108,
      "chip": "ym2612"
    },
    {
      "channel": 1,
      "note": 83,
      "start": 5.5783,
      "duration": 0.3805,
      "velocity": 116,
      "chip": "ym2612"
    },
    {
      "channel": 4,
      "note": 78,
      "start": 5.5805,
      "duration": 0.1784,
      "velocity": 108,
      "chip": "ym2612"
    },
    {
      "channel": 3,
      "note": 78,
      "start": 5.7615,
      "duration": 0.3973,
      "velocity": 116,
      "chip": "ym2612"
    },
    {
      "channel": 4,
      "note": 79,
      "start": 5.7637,
      "duration": 0.1952,
      "velocity": 108,
      "chip": "ym2612"
    },
    {
      "channel": 0,
      "note": 69,
      "start": 5.9281,
      "duration": 0.0305,
      "velocity": 116,
      "chip": "ym2612"
    },
    {
      "channel": 0,
      "note": 71,
      "start": 5.9618,
      "duration": 1.1302,
      "velocity": 116,
      "chip": "ym2612"
    },
    {
      "channel": 4,
      "note": 78,
      "start": 5.9646,
      "duration": 0.3775,
      "velocity": 108,
      "chip": "ym2612"
    },
    {
      "channel": 3,
      "note": 78,
      "start": 6.1618,
      "duration": 0.3802,
      "velocity": 116,
      "chip": "ym2612"
    },
    {
      "channel": 1,
      "note": 83,
      "start": 6.3454,
      "duration": 0.3966,
      "velocity": 116,
      "chip": "ym2612"
    },
    {
      "channel": 4,
      "note": 76,
      "start": 6.3476,
      "duration": 0.3946,
      "velocity": 108,
      "chip": "ym2612"
    },
    {
      "channel": 3,
      "note": 86,
      "start": 6.5447,
      "duration": 0.3808,
      "velocity": 116,
      "chip": "ym2612"
    },
    {
      "channel": 1,
      "note": 83,
      "start": 6.745,
      "duration": 0.3805,
      "velocity": 116,
      "chip": "ym2612"
    },
    {
      "channel": 4,
      "note": 74,
      "start": 6.7472,
      "duration": 0.3785,
      "velocity": 108,
      "chip": "ym2612"
    },
    {
      "channel": 3,
      "note": 78,
      "start": 6.9282,
      "duration": 0.1974,
      "velocity": 116,
      "chip": "ym2612"
    },
    {
      "channel": 0,
      "note": 68,
      "start": 7.0949,
      "duration": 0.0305,
      "velocity": 116,
      "chip": "ym2612"
    },
    {
      "channel": 0,
      "note": 69,
      "start": 7.1286,
      "duration": 1.1634,
      "velocity": 116,
      "chip": "ym2612"
    },
    {
      "channel": 4,
      "note": 76,
      "start": 7.1311,
      "duration": 0.3777,
      "velocity": 108,
      "chip": "ym2612"
    },
    {
      "channel": 3,
      "note": 76,
      "start": 7.328,
      "duration": 0.3806,
      "velocity": 116,
      "chip": "ym2612"
    },
    {
      "channel": 1,
      "note": 81,
      "start": 7.5115,
      "duration": 0.3971,
      "velocity": 116,
      "chip": "ym2612"
    },
    {
      "channel": 4,
      "note": 74,
      "start": 7.5141,
      "duration": 0.128,
      "velocity": 108,
      "chip": "ym2612"
    },
    {
      "channel": 4,
      "note": 76,
      "start": 7.6449,
      "duration": 0.1305,
      "velocity": 108,
      "chip": "ym2612"
    },
    {
      "channel": 3,
      "note": 85,
      "start": 7.7113,
      "duration": 0.3973,
      "velocity": 116,
      "chip": "ym2612"
    },
    {
      "channel": 4,
      "note": 74,
      "start": 7.7783,
      "duration": 0.1306,
      "velocity": 108,
      "chip": "ym2612"
    },
    {
      "channel": 1,
      "note": 81,
      "start": 7.9117,
      "duration": 0.3805,
      "velocity": 116,
      "chip": "ym2612"
    },
    {
      "channel": 4,
      "note": 73,
      "start": 7.9142,
      "duration": 0.378,
      "velocity": 108,
      "chip": "ym2612"
    },
    {
      "channel": 3,
      "note": 76,
      "start": 8.1113,
      "duration": 0.3808,
      "velocity": 116,
      "chip": "ym2612"
    },
    {
      "channel": 0,
      "note": 68,
      "start": 8.295,
      "duration": 0.0302,
      "velocity": 116,
      "chip": "ym2612"
    },
    {
      "channel": 4,
      "note": 74,
      "start": 8.2974,
      "duration": 0.3948,
      "velocity": 108,
      "chip": "ym2612"
    },
    {
      "channel": 0,
      "note": 69,
      "start": 8.3288,
      "duration": 1.1298,
      "velocity": 116,
      "chip": "ym2612"
    },
    {
      "channel": 3,
      "note": 76,
      "start": 8.4947,
      "duration": 0.3807,
      "velocity": 116,
      "chip": "ym2612"
    },
    {
      "channel": 1,
      "note": 81,
      "start": 8.6949,
      "duration": 0.3803,
      "velocity": 116,
      "chip": "ym2612"
    },
    {
      "channel": 4,
      "note": 73,
      "start": 8.6971,
      "duration": 0.3783,
      "velocity": 108,
      "chip": "ym2612"
    },
    {
      "channel": 3,
      "note": 85,
      "start": 8.878,
      "duration": 0.3974,
      "velocity": 116,
      "chip": "ym2612"
    },
    {
      "channel": 1,
      "note": 81,
      "start": 9.0783,
      "duration": 0.3806,
      "velocity": 116,
      "chip": "ym2612"
    },
    {
      "channel": 4,
      "note": 71,
      "start": 9.0805,
      "duration": 0.3786,
      "velocity": 108,
      "chip": "ym2612"
    },
    {
      "channel": 3,
      "note": 76,
      "start": 9.2781,
      "duration": 0.1809,
      "velocity": 116,
      "chip": "ym2612"
    },
    {
      "channel": 0,
      "note": 71,
      "start": 9.4615,
      "duration": 1.1305,
      "velocity": 116,
      "chip": "ym2612"
    },
    {
      "channel": 4,
      "note": 71,
      "start": 9.4642,
      "duration": 0.778,
      "velocity": 108,
      "chip": "ym2612"
    },
    {
      "channel": 3,
      "note": 78,
      "start": 9.6615,
      "duration": 0.3806,
      "velocity": 116,
      "chip": "ym2612"
    },
    {
      "channel": 1,
      "note": 83,
      "start": 9.8615,
      "duration": 0.3805,
      "velocity": 116,
      "chip": "ym2612"
    },
    {
      "channel": 3,
      "note": 86,
      "start": 10.0447,
      "duration": 0.3974,
      "velocity": 116,
      "chip": "ym2612"
    },
    {
      "channel": 1,
      "note": 83,
      "start": 10.2449,
      "duration": 0.3805,
      "velocity": 116,
      "chip": "ym2612"
    },
    {
      "channel": 4,
      "note": 71,
      "start": 10.248,
      "duration": 0.1942,
      "velocity": 108,
      "chip": "ym2612"
    },
    {
      "channel": 3,
      "note": 78,
      "start": 10.4447,
      "duration": 0.3807,
      "velocity": 116,
      "chip": "ym2612"
    },
    {
      "channel": 4,
      "note": 73,
      "start": 10.4471,
      "duration": 0.1786,
      "velocity": 108,
      "chip": "ym2612"
    },
    {
      "channel": 0,
      "note": 69,
      "start": 10.5949,
      "duration": 0.0305,
      "velocity": 116,
      "chip": "ym2612"
    },
    {
      "channel": 0,
      "note": 71,
      "start": 10.6286,
      "duration": 1.132,
      "velocity": 116,
      "chip": "ym2612"
    },
    {
      "channel": 4,
      "note": 74,
      "start": 10.6313,
      "duration": 0.3941,
      "velocity": 108,
      "chip": "ym2612"
    },
    {
      "channel": 3,
      "note": 78,
      "start": 10.828,
      "duration": 0.3807,
      "velocity": 116,
      "chip": "ym2612"
    },
    {
      "channel": 1,
      "note": 83,
      "start": 11.0282,
      "duration": 0.3805,
      "velocity": 116,
      "chip": "ym2612"
    },
    {
      "channel": 4,
      "note": 76,
      "start": 11.0304,
      "duration": 0.3784,
      "velocity": 108,
      "chip": "ym2612"
    },
    {
      "channel": 3,
      "note": 86,
      "start": 11.2113,
      "duration": 0.3974,
      "velocity": 116,
      "chip": "ym2612"
    },
    {
      "channel": 1,
      "note": 83,
      "start": 11.4116,
      "duration": 0.3805,
      "velocity": 116,
      "chip": "ym2612"
    },
    {
      "channel": 4,
      "note": 78,
      "start": 11.4138,
      "duration": 0.3785,
      "velocity": 108,
      "chip": "ym2612"
    },
    {
      "channel": 3,
      "note": 78,
      "start": 11.6115,
      "duration": 0.1807,
      "velocity": 116,
      "chip": "ym2612"
    },
    {
      "channel": 0,
      "note": 68,
      "start": 11.7634,
      "duration": 0.0286,
      "velocity": 116,
      "chip": "ym2612"
    },
    {
      "channel": 0,
      "note": 69,
      "start": 11.7952,
      "duration": 1.18,
      "velocity": 116,
      "chip": "ym2612"
    },
    {
      "channel": 4,
      "note": 81,
      "start": 11.798,
      "duration": 0.194,
      "velocity": 108,
      "chip": "ym2612"
    },
    {
      "channel": 3,
      "note": 76,
      "start": 11.9947,
      "duration": 0.3827,
      "velocity": 116,
      "chip": "ym2612"
    },
    {
      "channel": 4,
      "note": 83,
      "start": 11.9971,
      "duration": 0.195,
      "velocity": 108,
      "chip": "ym2612"
    },
    {
      "channel": 1,
      "note": 81,
      "start": 12.1949,
      "duration": 0.3805,
      "velocity": 116,
      "chip": "ym2612"
    },
    {
      "channel": 4,
      "note": 81,
      "start": 12.1971,
      "duration": 0.1804,
      "velocity": 108,
      "chip": "ym2612"
    },
    {
      "channel": 3,
      "note": 85,
      "start": 12.38,
      "duration": 0.3954,
      "velocity": 116,
      "chip": "ym2612"
    },
    {
      "channel": 4,
      "note": 78,
      "start": 12.3824,
      "duration": 0.1931,
      "velocity": 108,
      "chip": "ym2612"
    },
    {
      "channel": 1,
      "note": 81,
      "start": 12.5783,
      "duration": 0.3971,
      "velocity": 116,
      "chip": "ym2612"
    },
    {
      "channel": 4,
      "note": 74,
      "start": 12.5805,
      "duration": 0.1951,
      "velocity": 108,
      "chip": "ym2612"
    },
    {
      "channel": 3,
      "note": 76,
      "start": 12.7781,
      "duration": 0.3806,
      "velocity": 116,
      "chip": "ym2612"
    },
    {
      "channel": 4,
      "note": 76,
      "start": 12.7805,
      "duration": 0.1951,
      "velocity": 108,
      "chip": "ym2612"
    },
    {
      "channel": 0,
      "note": 68,
      "start": 12.9783,
      "duration": 0.0137,
      "velocity": 116,
      "chip": "ym2612"
    },
    {
      "channel": 4,
      "note": 73,
      "start": 12.981,
      "duration": 0.9613,
      "velocity": 108,
      "chip": "ym2612"
    },
    {
      "channel": 0,
      "note": 69,
      "start": 12.9951,
      "duration": 1.1136,
      "velocity": 116,
      "chip": "ym2612"
    },
    {
      "channel": 3,
      "note": 76,
      "start": 13.1613,
      "duration": 0.3974,
      "velocity": 116,
      "chip": "ym2612"
    },
    {
      "channel": 1,
      "note": 81,
      "start": 13.3615,
      "duration": 0.3805,
      "velocity": 116,
      "chip": "ym2612"
    },
    {
      "channel": 3,
      "note": 85,
      "start": 13.5614,
      "duration": 0.3807,
      "velocity": 116,
      "chip": "ym2612"
    },
    {
      "channel": 1,
      "note": 81,
      "start": 13.7449,
      "duration": 0.3973,
      "velocity": 116,
      "chip": "ym2612"
    },
    {
      "channel": 3,
      "note": 76,
      "start": 13.9449,
      "duration": 0.1973,
      "velocity": 116,
      "chip": "ym2612"
    },
    {
      "channel": 4,
      "note": 74,
      "start": 13.9476,
      "duration": 0.1948,
      "velocity": 108,
      "chip": "ym2612"
    },
    {
      "channel": 0,
      "note": 64,
      "start": 14.1115,
      "duration": 0.0305,
      "velocity": 116,
      "chip": "ym2612"
    },
    {
      "channel": 0,
      "note": 67,
      "start": 14.1459,
      "duration": 1.1295,
      "velocity": 116,
      "chip": "ym2612"
    },
    {
      "channel": 4,
      "note": 79,
      "start": 14.1486,
      "duration": 0.1102,
      "velocity": 108,
      "chip": "ym2612"
    },
    {
      "channel": 4,
      "note": 78,
      "start": 14.2617,
      "duration": 0.1305,
      "velocity": 108,
      "chip": "ym2612"
    },
    {
      "channel": 3,
      "note": 74,
      "start": 14.3281,
      "duration": 0.3973,
      "velocity": 116,
      "chip": "ym2612"
    },
    {
      "channel": 4,
      "note": 76,
      "start": 14.3949,
      "duration": 0.1306,
      "velocity": 108,
      "chip": "ym2612"
    },
    {
      "channel": 1,
      "note": 79,
      "start": 14.5283,
      "duration": 0.3805,
      "velocity": 116,
      "chip": "ym2612"
    },
    {
      "channel": 4,
      "note": 74,
      "start": 14.5305,
      "duration": 0.1284,
      "velocity": 108,
      "chip": "ym2612"
    },
    {
      "channel": 4,
      "note": 78,
      "start": 14.6617,
      "duration": 0.1305,
      "velocity": 108,
      "chip": "ym2612"
    },
    {
      "channel": 3,
      "note": 83,
      "start": 14.728,
      "duration": 0.3807,
      "velocity": 116,
      "chip": "ym2612"
    },
    {
      "channel": 4,
      "note": 76,
      "start": 14.795,
      "duration": 0.1139,
      "velocity": 108,
      "chip": "ym2612"
    },
    {
      "channel": 1,
      "note": 79,
      "start": 14.9117,
      "duration": 0.3971,
      "velocity": 116,
      "chip": "ym2612"
    },
    {
      "channel": 4,
      "note": 74,
      "start": 14.9139,
      "duration": 0.1282,
      "velocity": 108,
      "chip": "ym2612"
    },
    {
      "channel": 4,
      "note": 73,
      "start": 15.0454,
      "duration": 0.13,
      "velocity": 108,
      "chip": "ym2612"
    },
    {
      "channel": 3,
      "note": 74,
      "start": 15.112,
      "duration": 0.1969,
      "velocity": 116,
      "chip": "ym2612"
    },
    {
      "channel": 4,
      "note": 74,
      "start": 15.1783,
      "duration": 0.1308,
      "velocity": 108,
      "chip": "ym2612"
    },
    {
      "channel": 0,
      "note": 64,
      "start": 15.2782,
      "duration": 0.0305,
      "velocity": 116,
      "chip": "ym2612"
    },
    {
      "channel": 0,
      "note": 66,
      "start": 15.312,
      "duration": 1.1633,
      "velocity": 116,
      "chip": "ym2612"
    },
    {
      "channel": 4,
      "note": 73,
      "start": 15.3148,
      "duration": 0.094,
      "velocity": 108,
      "chip": "ym2612"
    },
    {
      "channel": 4,
      "note": 74,
      "start": 15.4115,
      "duration": 0.0806,
      "velocity": 108,
      "chip": "ym2612"
    },
    {
      "channel": 3,
      "note": 73,
      "start": 15.4949,
      "duration": 0.3971,
      "velocity": 116,
      "chip": "ym2612"
    },
    {
      "channel": 4,
      "note": 73,
      "start": 15.4972,
      "duration": 0.095,
      "velocity": 108,
      "chip": "ym2612"
    },
    {
      "channel": 4,
      "note": 74,
      "start": 15.595,
      "duration": 0.0971,
      "velocity": 108,
      "chip": "ym2612"
    },
    {
      "channel": 1,
      "note": 78,
      "start": 15.6954,
      "duration": 0.3799,
      "velocity": 116,
      "chip": "ym2612"
    },
    {
      "channel": 4,
      "note": 76,
      "start": 15.6976,
      "duration": 0.0945,
      "velocity": 108,
      "chip": "ym2612"
    },
    {
      "channel": 4,
      "note": 78,
      "start": 15.795,
      "duration": 0.0971,
      "velocity": 108,
      "chip": "ym2612"
    },
    {
      "channel": 3,
      "note": 82,
      "start": 15.8949,
      "duration": 0.3806,
      "velocity": 116,
      "chip": "ym2612"
    },
    {
      "channel": 4,
      "note": 76,
      "start": 15.8971,
      "duration": 0.0949,
      "velocity": 108,
      "chip": "ym2612"
    },
    {
      "channel": 4,
      "note": 74,
      "start": 15.9949,
      "duration": 0.0807,
      "velocity": 108,
      "chip": "ym2612"
    },
    {
      "channel": 1,
      "note": 78,
      "start": 16.0781,
      "duration": 0.3973,
      "velocity": 116,
      "chip": "ym2612"
    },
    {
      "channel": 4,
      "note": 73,
      "start": 16.0807,
      "duration": 0.1949,
      "velocity": 108,
      "chip": "ym2612"
    },
    {
      "channel": 4,
      "note": 74,
      "start": 16.2784,
      "duration": 0.1973,
      "velocity": 108,
      "chip": "ym2612"
    },
    {
      "channel": 3,
      "note": 73,
      "start": 16.3115,
      "duration": 0.1641,
      "velocity": 116,
      "chip": "ym2612"
    },
    {
      "channel": 0,
      "note": 71,
      "start": 16.4786,
      "duration": 1.13,
      "velocity": 116,
      "chip": "ym2612"
    },
    {
      "channel": 1,
      "note": 74,
      "start": 16.4823,
      "duration": 0.7617,
      "velocity": 107,
      "chip": "ym2612"
    },
    {
      "channel": 4,
      "note": 71,
      "start": 16.4859,
      "duration": 0.7583,
      "velocity": 107,
      "chip": "ym2612"
    },
    {
      "channel": 3,
      "note": 78,
      "start": 16.6615,
      "duration": 0.1972,
      "velocity": 116,
      "chip": "ym2612"
    },
    {
      "channel": 3,
      "note": 83,
      "start": 16.8613,
      "duration": 0.1974,
      "velocity": 116,
      "chip": "ym2612"
    },
    {
      "channel": 3,
      "note": 86,
      "start": 17.0613,
      "duration": 0.1827,
      "velocity": 116,
      "chip": "ym2612"
    },
    {
      "channel": 3,
      "note": 83,
      "start": 17.2468,
      "duration": 0.1954,
      "velocity": 116,
      "chip": "ym2612"
    },
    {
      "channel": 1,
      "note": 76,
      "start": 17.2493,
      "duration": 0.1928,
      "velocity": 107,
      "chip": "ym2612"
    },
    {
      "channel": 4,
      "note": 73,
      "start": 17.2518,
      "duration": 0.1905,
      "velocity": 107,
      "chip": "ym2612"
    },
    {
      "channel": 3,
      "note": 78,
      "start": 17.4452,
      "duration": 0.3969,
      "velocity": 116,
      "chip": "ym2612"
    },
    {
      "channel": 1,
      "note": 78,
      "start": 17.4473,
      "duration": 0.1949,
      "velocity": 107,
      "chip": "ym2612"
    },
    {
      "channel": 4,
      "note": 74,
      "start": 17.4496,
      "duration": 0.1927,
      "velocity": 107,
      "chip": "ym2612"
    },
    {
      "channel": 0,
      "note": 69,
      "start": 17.6115,
      "duration": 0.0305,
      "velocity": 116,
      "chip": "ym2612"
    },
    {
      "channel": 0,
      "note": 71,
      "start": 17.6453,
      "duration": 1.13,
      "velocity": 116,
      "chip": "ym2612"
    },
    {
      "channel": 1,
      "note": 79,
      "start": 17.6478,
      "duration": 0.3775,
      "velocity": 107,
      "chip": "ym2612"
    },
    {
      "channel": 4,
      "note": 76,
      "start": 17.6504,
      "duration": 0.3752,
      "velocity": 107,
      "chip": "ym2612"
    },
    {
      "channel": 3,
      "note": 78,
      "start": 17.845,
      "duration": 0.1804,
      "velocity": 116,
      "chip": "ym2612"
    },
    {
      "channel": 3,
      "note": 83,
      "start": 18.0282,
      "duration": 0.1972,
      "velocity": 116,
      "chip": "ym2612"
    },
    {
      "channel": 1,
      "note": 78,
      "start": 18.0303,
      "duration": 0.3951,
      "velocity": 107,
      "chip": "ym2612"
    },
    {
      "channel": 4,
      "note": 74,
      "start": 18.0325,
      "duration": 0.3931,
      "velocity": 107,
      "chip": "ym2612"
    },
    {
      "channel": 3,
      "note": 86,
      "start": 18.228,
      "duration": 0.1975,
      "velocity": 116,
      "chip": "ym2612"
    },
    {
      "channel": 3,
      "note": 83,
      "start": 18.4283,
      "duration": 0.1805,
      "velocity": 116,
      "chip": "ym2612"
    },
    {
      "channel": 1,
      "note": 76,
      "start": 18.4304,
      "duration": 0.3783,
      "velocity": 107,
      "chip": "ym2612"
    },
    {
      "channel": 4,
      "note": 73,
      "start": 18.4326,
      "duration": 0.3763,
      "velocity": 107,
      "chip": "ym2612"
    },
    {
      "channel": 3,
      "note": 78,
      "start": 18.6115,
      "duration": 0.1974,
      "velocity": 116,
      "chip": "ym2612"
    },
    {
      "channel": 0,
      "note": 68,
      "start": 18.7781,
      "duration": 0.0305,
      "velocity": 116,
      "chip": "ym2612"
    },
    {
      "channel": 0,
      "note": 69,
      "start": 18.8125,
      "duration": 1.1629,
      "velocity": 116,
      "chip": "ym2612"
    },
    {
      "channel": 1,
      "note": 73,
      "start": 18.8147,
      "duration": 0.3773,
      "velocity": 107,
      "chip": "ym2612"
    },
    {
      "channel": 4,
      "note": 69,
      "start": 18.8169,
      "duration": 0.3753,
      "velocity": 107,
      "chip": "ym2612"
    },
    {
      "channel": 3,
      "note": 76,
      "start": 19.0114,
      "duration": 0.1807,
      "velocity": 116,
      "chip": "ym2612"
    },
    {
      "channel": 3,
      "note": 81,
      "start": 19.1948,
      "duration": 0.1973,
      "velocity": 116,
      "chip": "ym2612"
    },
    {
      "channel": 1,
      "note": 73,
      "start": 19.1972,
      "duration": 0.1281,
      "velocity": 107,
      "chip": "ym2612"
    },
    {
      "channel": 4,
      "note": 69,
      "start": 19.2002,
      "duration": 0.1253,
      "velocity": 107,
      "chip": "ym2612"
    },
    {
      "channel": 1,
      "note": 74,
      "start": 19.3281,
      "duration": 0.1305,
      "velocity": 107,
      "chip": "ym2612"
    },
    {
      "channel": 4,
      "note": 71,
      "start": 19.3303,
      "duration": 0.1285,
      "velocity": 107,
      "chip": "ym2612"
    },
    {
      "channel": 3,
      "note": 85,
      "start": 19.3947,
      "duration": 0.1974,
      "velocity": 116,
      "chip": "ym2612"
    },
    {
      "channel": 1,
      "note": 76,
      "start": 19.4615,
      "duration": 0.1305,
      "velocity": 107,
      "chip": "ym2612"
    },
    {
      "channel": 4,
      "note": 73,
      "start": 19.4637,
      "duration": 0.1286,
      "velocity": 107,
      "chip": "ym2612"
    },
    {
      "channel": 3,
      "note": 81,
      "start": 19.5948,
      "duration": 0.1806,
      "velocity": 116,
      "chip": "ym2612"
    },
    {
      "channel": 1,
      "note": 83,
      "start": 19.5973,
      "duration": 0.3782,
      "velocity": 107,
      "chip": "ym2612"
    },
    {
      "channel": 4,
      "note": 78,
      "start": 19.5998,
      "duration": 0.3759,
      "velocity": 107,
      "chip": "ym2612"
    },
    {
      "channel": 3,
      "note": 76,
      "start": 19.7788,
      "duration": 0.3966,
      "velocity": 116,
      "chip": "ym2612"
    },
    {
      "channel": 0,
      "note": 68,
      "start": 19.9784,
      "duration": 0.0302,
      "velocity": 116,
      "chip": "ym2612"
    },
    {
      "channel": 1,
      "note": 81,
      "start": 19.9812,
      "duration": 1.1609,
      "velocity": 107,
      "chip": "ym2612"
    },
    {
      "channel": 4,
      "note": 76,
      "start": 19.984,
      "duration": 1.1583,
      "velocity": 107,
      "chip": "ym2612"
    },
    {
      "channel": 0,
      "note": 69,
      "start": 20.0117,
      "duration": 1.1302,
      "velocity": 116,
      "chip": "ym2612"
    },
    {
      "channel": 3,
      "note": 76,
      "start": 20.1784,
      "duration": 0.1804,
      "velocity": 116,
      "chip": "ym2612"
    },
    {
      "channel": 3,
      "note": 81,
      "start": 20.3613,
      "duration": 0.1973,
      "velocity": 116,
      "chip": "ym2612"
    },
    {
      "channel": 3,
      "note": 85,
      "start": 20.5613,
      "duration": 0.1974,
      "velocity": 116,
      "chip": "ym2612"
    },
    {
      "channel": 3,
      "note": 81,
      "start": 20.7614,
      "duration": 0.1807,
      "velocity": 116,
      "chip": "ym2612"
    },
    {
      "channel": 3,
      "note": 76,
      "start": 20.9448,
      "duration": 0.1974,
      "velocity": 116,
      "chip": "ym2612"
    },
    {
      "channel": 0,
      "note": 71,
      "start": 21.1447,
      "duration": 1.1307,
      "velocity": 116,
      "chip": "ym2612"
    },
    {
      "channel": 1,
      "note": 74,
      "start": 21.1477,
      "duration": 0.5777,
      "velocity": 107,
      "chip": "ym2612"
    },
    {
      "channel": 4,
      "note": 78,
      "start": 21.1502,
      "duration": 0.5754,
      "velocity": 107,
      "chip": "ym2612"
    },
    {
      "channel": 3,
      "note": 78,
      "start": 21.3447,
      "duration": 0.1808,
      "velocity": 116,
      "chip": "ym2612"
    },
    {
      "channel": 3,
      "note": 83,
      "start": 21.528,
      "duration": 0.1975,
      "velocity": 116,
      "chip": "ym2612"
    },
    {
      "channel": 3,
      "note": 86,
      "start": 21.7283,
      "duration": 0.1973,
      "velocity": 116,
      "chip": "ym2612"
    },
    {
      "channel": 1,
      "note": 76,
      "start": 21.7307,
      "duration": 0.1947,
      "velocity": 107,
      "chip": "ym2612"
    },
    {
      "channel": 4,
      "note": 79,
      "start": 21.7332,
      "duration": 0.1924,
      "velocity": 107,
      "chip": "ym2612"
    },
    {
      "channel": 3,
      "note": 83,
      "start": 21.9283,
      "duration": 0.1973,
      "velocity": 116,
      "chip": "ym2612"
    },
    {
      "channel": 1,
      "note": 74,
      "start": 21.9304,
      "duration": 0.195,
      "velocity": 107,
      "chip": "ym2612"
    },
    {
      "channel": 4,
      "note": 78,
      "start": 21.9326,
      "duration": 0.193,
      "velocity": 107,
      "chip": "ym2612"
    },
    {
      "channel": 3,
      "note": 78,
      "start": 22.1285,
      "duration": 0.3802,
      "velocity": 116,
      "chip": "ym2612"
    },
    {
      "channel": 1,
      "note": 76,
      "start": 22.1307,
      "duration": 0.1781,
      "velocity": 107,
      "chip": "ym2612"
    },
    {
      "channel": 4,
      "note": 79,
      "start": 22.1329,
      "duration": 0.1761,
      "velocity": 107,
      "chip": "ym2612"
    },
    {
      "channel": 0,
      "note": 69,
      "start": 22.2781,
      "duration": 0.0305,
      "velocity": 116,
      "chip": "ym2612"
    },
    {
      "channel": 0,
      "note": 71,
      "start": 22.3119,
      "duration": 1.1301,
      "velocity": 116,
      "chip": "ym2612"
    },
    {
      "channel": 1,
      "note": 74,
      "start": 22.3144,
      "duration": 0.3942,
      "velocity": 107,
      "chip": "ym2612"
    },
    {
      "channel": 4,
      "note": 78,
      "start": 22.317,
      "duration": 0.3919,
      "velocity": 107,
      "chip": "ym2612"
    },
    {
      "channel": 3,
      "note": 78,
      "start": 22.5117,
      "duration": 0.1971,
      "velocity": 116,
      "chip": "ym2612"
    },
    {
      "channel": 3,
      "note": 83,
      "start": 22.7115,
      "duration": 0.1806,
      "velocity": 116,
      "chip": "ym2612"
    },
    {
      "channel": 1,
      "note": 73,
      "start": 22.7136,
      "duration": 0.3784,
      "velocity": 107,
      "chip": "ym2612"
    },
    {
      "channel": 4,
      "note": 76,
      "start": 22.7159,
      "duration": 0.3765,
      "velocity": 107,
      "chip": "ym2612"
    },
    {
      "channel": 3,
      "note": 86,
      "start": 22.8947,
      "duration": 0.1975,
      "velocity": 116,
      "chip": "ym2612"
    },
    {
      "channel": 3,
      "note": 83,
      "start": 23.0949,
      "duration": 0.1972,
      "velocity": 116,
      "chip": "ym2612"
    },
    {
      "channel": 1,
      "note": 71,
      "start": 23.097,
      "duration": 0.3784,
      "velocity": 107,
      "chip": "ym2612"
    },
    {
      "channel": 4,
      "note": 74,
      "start": 23.0993,
      "duration": 0.3765,
      "velocity": 107,
      "chip": "ym2612"
    },
    {
      "channel": 3,
      "note": 78,
      "start": 23.2948,
      "duration": 0.1808,
      "velocity": 116,
      "chip": "ym2612"
    },
    {
      "channel": 0,
      "note": 68,
      "start": 23.4449,
      "duration": 0.0305,
      "velocity": 116,
      "chip": "ym2612"
    },
    {
      "channel": 0,
      "note": 69,
      "start": 23.4787,
      "duration": 1.1633,
      "velocity": 116,
      "chip": "ym2612"
    },
    {
      "channel": 1,
      "note": 73,
      "start": 23.4809,
      "duration": 0.3943,
      "velocity": 107,
      "chip": "ym2612"
    },
    {
      "channel": 4,
      "note": 76,
      "start": 23.4832,
      "duration": 0.3924,
      "velocity": 107,
      "chip": "ym2612"
    },
    {
      "channel": 3,
      "note": 76,
      "start": 23.6781,
      "duration": 0.1973,
      "velocity": 116,
      "chip": "ym2612"
    },
    {
      "channel": 3,
      "note": 81,
      "start": 23.8781,
      "duration": 0.1806,
      "velocity": 116,
      "chip": "ym2612"
    },
    {
      "channel": 1,
      "note": 78,
      "start": 23.8805,
      "duration": 0.1115,
      "velocity": 107,
      "chip": "ym2612"
    },
    {
      "channel": 4,
      "note": 74,
      "start": 23.8831,
      "duration": 0.1091,
      "velocity": 107,
      "chip": "ym2612"
    },
    {
      "channel": 1,
      "note": 79,
      "start": 23.9948,
      "duration": 0.1305,
      "velocity": 107,
      "chip": "ym2612"
    },
    {
      "channel": 4,
      "note": 76,
      "start": 23.997,
      "duration": 0.1285,
      "velocity": 107,
      "chip": "ym2612"
    },
    {
      "channel": 3,
      "note": 85,
      "start": 24.0613,
      "duration": 0.1974,
      "velocity": 116,
      "chip": "ym2612"
    },
    {
      "channel": 1,
      "note": 78,
      "start": 24.1281,
      "duration": 0.1305,
      "velocity": 107,
      "chip": "ym2612"
    },
    {
      "channel": 4,
      "note": 74,
      "start": 24.1303,
      "duration": 0.1286,
      "velocity": 107,
      "chip": "ym2612"
    },
    {
      "channel": 3,
      "note": 81,
      "start": 24.2615,
      "duration": 0.1973,
      "velocity": 116,
      "chip": "ym2612"
    },
    {
      "channel": 1,
      "note": 69,
      "start": 24.2639,
      "duration": 0.3782,
      "velocity": 107,
      "chip": "ym2612"
    },
    {
      "channel": 4,
      "note": 73,
      "start": 24.2669,
      "duration": 0.3754,
      "velocity": 107,
      "chip": "ym2612"
    },
    {
      "channel": 3,
      "note": 76,
      "start": 24.4622,
      "duration": 0.38,
      "velocity": 116,
      "chip": "ym2612"
    },
    {
      "channel": 0,
      "note": 68,
      "start": 24.645,
      "duration": 0.0303,
      "velocity": 116,
      "chip": "ym2612"
    },
    {
      "channel": 1,
      "note": 78,
      "start": 24.6472,
      "duration": 0.3949,
      "velocity": 107,
      "chip": "ym2612"
    },
    {
      "channel": 4,
      "note": 74,
      "start": 24.6494,
      "duration": 0.3929,
      "velocity": 107,
      "chip": "ym2612"
    },
    {
      "channel": 0,
      "note": 69,
      "start": 24.679,
      "duration": 1.1296,
      "velocity": 116,
      "chip": "ym2612"
    },
    {
      "channel": 3,
      "note": 76,
      "start": 24.845,
      "duration": 0.1971,
      "velocity": 116,
      "chip": "ym2612"
    },
    {
      "channel": 3,
      "note": 81,
      "start": 25.0449,
      "duration": 0.1805,
      "velocity": 116,
      "chip": "ym2612"
    },
    {
      "channel": 1,
      "note": 76,
      "start": 25.047,
      "duration": 0.3783,
      "velocity": 107,
      "chip": "ym2612"
    },
    {
      "channel": 4,
      "note": 73,
      "start": 25.0493,
      "duration": 0.3763,
      "velocity": 107,
      "chip": "ym2612"
    },
    {
      "channel": 3,
      "note": 85,
      "start": 25.228,
      "duration": 0.1974,
      "velocity": 116,
      "chip": "ym2612"
    },
    {
      "channel": 3,
      "note": 81,
      "start": 25.4282,
      "duration": 0.1972,
      "velocity": 116,
      "chip": "ym2612"
    },
    {
      "channel": 1,
      "note": 74,
      "start": 25.4309,
      "duration": 1.1612,
      "velocity": 107,
      "chip": "ym2612"
    },
    {
      "channel": 4,
      "note": 71,
      "start": 25.4331,
      "duration": 0.3758,
      "velocity": 107,
      "chip": "ym2612"
    },
    {
      "channel": 3,
      "note": 76,
      "start": 25.6282,
      "duration": 0.1805,
      "velocity": 116,
      "chip": "ym2612"
    },
    {
      "channel": 0,
      "note": 71,
      "start": 25.8113,
      "duration": 1.1473,
      "velocity": 116,
      "chip": "ym2612"
    },
    {
      "channel": 4,
      "note": 71,
      "start": 25.814,
      "duration": 0.7783,
      "velocity": 107,
      "chip": "ym2612"
    },
    {
      "channel": 3,
      "note": 78,
      "start": 26.0114,
      "duration": 0.1974,
      "velocity": 116,
      "chip": "ym2612"
    },
    {
      "channel": 3,
      "note": 83,
      "start": 26.2114,
      "duration": 0.1827,
      "velocity": 116,
      "chip": "ym2612"
    },
    {
      "channel": 3,
      "note": 86,
      "start": 26.3967,
      "duration": 0.1955,
      "velocity": 116,
      "chip": "ym2612"
    },
    {
      "channel": 3,
      "note": 83,
      "start": 26.5949,
      "duration": 0.1972,
      "velocity": 116,
      "chip": "ym2612"
    },
    {
      "channel": 1,
      "note": 74,
      "start": 26.5973,
      "duration": 0.1947,
      "velocity": 107,
      "chip": "ym2612"
    },
    {
      "channel": 4,
      "note": 71,
      "start": 26.5999,
      "duration": 0.1924,
      "velocity": 107,
      "chip": "ym2612"
    },
    {
      "channel": 3,
      "note": 78,
      "start": 26.7951,
      "duration": 0.3803,
      "velocity": 116,
      "chip": "ym2612"
    },
    {
      "channel": 1,
      "note": 76,
      "start": 26.7972,
      "duration": 0.1949,
      "velocity": 107,
      "chip": "ym2612"
    },
    {
      "channel": 4,
      "note": 73,
      "start": 26.7994,
      "duration": 0.1928,
      "velocity": 107,
      "chip": "ym2612"
    },
    {
      "channel": 0,
      "note": 69,
      "start": 26.9615,
      "duration": 0.0305,
      "velocity": 116,
      "chip": "ym2612"
    },
    {
      "channel": 0,
      "note": 71,
      "start": 26.9952,
      "duration": 1.1301,
      "velocity": 116,
      "chip": "ym2612"
    },
    {
      "channel": 1,
      "note": 78,
      "start": 26.9982,
      "duration": 0.3771,
      "velocity": 107,
      "chip": "ym2612"
    },
    {
      "channel": 4,
      "note": 74,
      "start": 27.0008,
      "duration": 0.3748,
      "velocity": 107,
      "chip": "ym2612"
    },
    {
      "channel": 3,
      "note": 78,
      "start": 27.1783,
      "duration": 0.1971,
      "velocity": 116,
      "chip": "ym2612"
    },
    {
      "channel": 3,
      "note": 83,
      "start": 27.3782,
      "duration": 0.1972,
      "velocity": 116,
      "chip": "ym2612"
    },
    {
      "channel": 1,
      "note": 79,
      "start": 27.3803,
      "duration": 0.3784,
      "velocity": 107,
      "chip": "ym2612"
    },
    {
      "channel": 4,
      "note": 76,
      "start": 27.3825,
      "duration": 0.3765,
      "velocity": 107,
      "chip": "ym2612"
    },
    {
      "channel": 3,
      "note": 86,
      "start": 27.578,
      "duration": 0.1808,
      "velocity": 116,
      "chip": "ym2612"
    },
    {
      "channel": 3,
      "note": 83,
      "start": 27.7615,
      "duration": 0.1972,
      "velocity": 116,
      "chip": "ym2612"
    },
    {
      "channel": 1,
      "note": 81,
      "start": 27.7637,
      "duration": 0.3951,
      "velocity": 107,
      "chip": "ym2612"
    },
    {
      "channel": 4,
      "note": 78,
      "start": 27.7659,
      "duration": 0.3931,
      "velocity": 107,
      "chip": "ym2612"
    },
    {
      "channel": 3,
      "note": 78,
      "start": 27.9615,
      "duration": 0.1974,
      "velocity": 116,
      "chip": "ym2612"
    },
    {
      "channel": 0,
      "note": 68,
      "start": 28.1281,
      "duration": 0.0305,
      "velocity": 116,
      "chip": "ym2612"
    },
    {
      "channel": 0,
      "note": 69,
      "start": 28.1619,
      "duration": 1.1634,
      "velocity": 116,
      "chip": "ym2612"
    },
    {
      "channel": 1,
      "note": 85,
      "start": 28.1644,
      "duration": 0.1776,
      "velocity": 107,
      "chip": "ym2612"
    },
    {
      "channel": 4,
      "note": 81,
      "start": 28.167,
      "duration": 0.1752,
      "velocity": 107,
      "chip": "ym2612"
    },
    {
      "channel": 3,
      "note": 76,
      "start": 28.3449,
      "duration": 0.1973,
      "velocity": 116,
      "chip": "ym2612"
    },
    {
      "channel": 1,
      "note": 86,
      "start": 28.347,
      "duration": 0.1951,
      "velocity": 107,
      "chip": "ym2612"
    },
    {
      "channel": 4,
      "note": 83,
      "start": 28.3493,
      "duration": 0.1931,
      "velocity": 107,
      "chip": "ym2612"
    },
    {
      "channel": 3,
      "note": 81,
      "start": 28.5449,
      "duration": 0.1973,
      "velocity": 116,
      "chip": "ym2612"
    },
    {
      "channel": 1,
      "note": 85,
      "start": 28.547,
      "duration": 0.195,
      "velocity": 107,
      "chip": "ym2612"
    },
    {
      "channel": 4,
      "note": 81,
      "start": 28.5493,
      "duration": 0.1931,
      "velocity": 107,
      "chip": "ym2612"
    },
    {
      "channel": 3,
      "note": 85,
      "start": 28.7449,
      "duration": 0.1806,
      "velocity": 116,
      "chip": "ym2612"
    },
    {
      "channel": 1,
      "note": 81,
      "start": 28.747,
      "duration": 0.1783,
      "velocity": 107,
      "chip": "ym2612"
    },
    {
      "channel": 4,
      "note": 78,
      "start": 28.7493,
      "duration": 0.1763,
      "velocity": 107,
      "chip": "ym2612"
    },
    {
      "channel": 3,
      "note": 81,
      "start": 28.9281,
      "duration": 0.1974,
      "velocity": 116,
      "chip": "ym2612"
    },
    {
      "channel": 1,
      "note": 78,
      "start": 28.9303,
      "duration": 0.1951,
      "velocity": 107,
      "chip": "ym2612"
    },
    {
      "channel": 4,
      "note": 74,
      "start": 28.9325,
      "duration": 0.1931,
      "velocity": 107,
      "chip": "ym2612"
    },
    {
      "channel": 3,
      "note": 76,
      "start": 29.1291,
      "duration": 0.3797,
      "velocity": 116,
      "chip": "ym2612"
    },
    {
      "channel": 1,
      "note": 79,
      "start": 29.1312,
      "duration": 0.1943,
      "velocity": 107,
      "chip": "ym2612"
    },
    {
      "channel": 4,
      "note": 76,
      "start": 29.1334,
      "duration": 0.1922,
      "velocity": 107,
      "chip": "ym2612"
    },
    {
      "channel": 0,
      "note": 68,
      "start": 29.3283,
      "duration": 0.0303,
      "velocity": 116,
      "chip": "ym2612"
    },
    {
      "channel": 1,
      "note": 76,
      "start": 29.3309,
      "duration": 0.9611,
      "velocity": 107,
      "chip": "ym2612"
    },
    {
      "channel": 4,
      "note": 73,
      "start": 29.3333,
      "duration": 0.959,
      "velocity": 107,
      "chip": "ym2612"
    },
    {
      "channel": 0,
      "note": 69,
      "start": 29.3618,
      "duration": 1.0969,
      "velocity": 116,
      "chip": "ym2612"
    },
    {
      "channel": 3,
      "note": 76,
      "start": 29.5117,
      "duration": 0.1971,
      "velocity": 116,
      "chip": "ym2612"
    },
    {
      "channel": 3,
      "note": 81,
      "start": 29.7114,
      "duration": 0.1973,
      "velocity": 116,
      "chip": "ym2612"
    },
    {
      "channel": 3,
      "note": 85,
      "start": 29.9114,
      "duration": 0.1807,
      "velocity": 116,
      "chip": "ym2612"
    },
    {
      "channel": 3,
      "note": 81,
      "start": 30.0947,
      "duration": 0.1975,
      "velocity": 116,
      "chip": "ym2612"
    },
    {
      "channel": 3,
      "note": 76,
      "start": 30.295,
      "duration": 0.1973,
      "velocity": 116,
      "chip": "ym2612"
    },
    {
      "channel": 1,
      "note": 78,
      "start": 30.2975,
      "duration": 0.1947,
      "velocity": 107,
      "chip": "ym2612"
    },
    {
      "channel": 4,
      "note": 74,
      "start": 30.2999,
      "duration": 0.1925,
      "velocity": 107,
      "chip": "ym2612"
    },
    {
      "channel": 0,
      "note": 64,
      "start": 30.4615,
      "duration": 0.0305,
      "velocity": 116,
      "chip": "ym2612"
    },
    {
      "channel": 0,
      "note": 67,
      "start": 30.4959,
      "duration": 1.1295,
      "velocity": 116,
      "chip": "ym2612"
    },
    {
      "channel": 1,
      "note": 83,
      "start": 30.4984,
      "duration": 0.1269,
      "velocity": 107,
      "chip": "ym2612"
    },
    {
      "channel": 4,
      "note": 79,
      "start": 30.5015,
      "duration": 0.124,
      "velocity": 107,
      "chip": "ym2612"
    },
    {
      "channel": 1,
      "note": 81,
      "start": 30.6281,
      "duration": 0.1139,
      "velocity": 107,
      "chip": "ym2612"
    },
    {
      "channel": 4,
      "note": 78,
      "start": 30.6303,
      "duration": 0.1118,
      "velocity": 107,
      "chip": "ym2612"
    },
    {
      "channel": 3,
      "note": 74,
      "start": 30.678,
      "duration": 0.1975,
      "velocity": 116,
      "chip": "ym2612"
    },
    {
      "channel": 1,
      "note": 79,
      "start": 30.7448,
      "duration": 0.1306,
      "velocity": 107,
      "chip": "ym2612"
    },
    {
      "channel": 4,
      "note": 76,
      "start": 30.747,
      "duration": 0.1286,
      "velocity": 107,
      "chip": "ym2612"
    },
    {
      "channel": 3,
      "note": 79,
      "start": 30.8783,
      "duration": 0.1972,
      "velocity": 116,
      "chip": "ym2612"
    },
    {
      "channel": 1,
      "note": 78,
      "start": 30.8804,
      "duration": 0.1282,
      "velocity": 107,
      "chip": "ym2612"
    },
    {
      "channel": 4,
      "note": 74,
      "start": 30.8826,
      "duration": 0.1261,
      "velocity": 107,
      "chip": "ym2612"
    },
    {
      "channel": 1,
      "note": 81,
      "start": 31.0115,
      "duration": 0.1305,
      "velocity": 107,
      "chip": "ym2612"
    },
    {
      "channel": 4,
      "note": 78,
      "start": 31.0137,
      "duration": 0.1285,
      "velocity": 107,
      "chip": "ym2612"
    },
    {
      "channel": 3,
      "note": 83,
      "start": 31.078,
      "duration": 0.1827,
      "velocity": 116,
      "chip": "ym2612"
    },
    {
      "channel": 1,
      "note": 79,
      "start": 31.1448,
      "duration": 0.1159,
      "velocity": 107,
      "chip": "ym2612"
    },
    {
      "channel": 4,
      "note": 76,
      "start": 31.147,
      "duration": 0.1139,
      "velocity": 107,
      "chip": "ym2612"
    },
    {
      "channel": 3,
      "note": 79,
      "start": 31.2635,
      "duration": 0.1953,
      "velocity": 116,
      "chip": "ym2612"
    },
    {
      "channel": 1,
      "note": 78,
      "start": 31.2656,
      "duration": 0.1264,
      "velocity": 107,
      "chip": "ym2612"
    },
    {
      "channel": 4,
      "note": 74,
      "start": 31.2679,
      "duration": 0.1244,
      "velocity": 107,
      "chip": "ym2612"
    },
    {
      "channel": 1,
      "note": 76,
      "start": 31.3949,
      "duration": 0.1305,
      "velocity": 107,
      "chip": "ym2612"
    },
    {
      "channel": 4,
      "note": 73,
      "start": 31.3971,
      "duration": 0.1284,
      "velocity": 107,
      "chip": "ym2612"
    },
    {
      "channel": 3,
      "note": 74,
      "start": 31.4615,
      "duration": 0.1974,
      "velocity": 116,
      "chip": "ym2612"
    },
    {
      "channel": 1,
      "note": 78,
      "start": 31.5282,
      "duration": 0.1306,
      "velocity": 107,
      "chip": "ym2612"
    },
    {
      "channel": 4,
      "note": 74,
      "start": 31.5304,
      "duration": 0.1286,
      "velocity": 107,
      "chip": "ym2612"
    },
    {
      "channel": 0,
      "note": 64,
      "start": 31.6281,
      "duration": 0.0305,
      "velocity": 116,
      "chip": "ym2612"
    },
    {
      "channel": 0,
      "note": 66,
      "start": 31.662,
      "duration": 1.13,
      "velocity": 116,
      "chip": "ym2612"
    },
    {
      "channel": 1,
      "note": 76,
      "start": 31.6651,
      "duration": 0.0936,
      "velocity": 107,
      "chip": "ym2612"
    },
    {
      "channel": 4,
      "note": 73,
      "start": 31.6676,
      "duration": 0.0913,
      "velocity": 107,
      "chip": "ym2612"
    },
    {
      "channel": 1,
      "note": 78,
      "start": 31.7615,
      "duration": 0.0973,
      "velocity": 107,
      "chip": "ym2612"
    },
    {
      "channel": 4,
      "note": 74,
      "start": 31.7637,
      "duration": 0.0952,
      "velocity": 107,
      "chip": "ym2612"
    },
    {
      "channel": 3,
      "note": 73,
      "start": 31.8616,
      "duration": 0.1805,
      "velocity": 116,
      "chip": "ym2612"
    },
    {
      "channel": 1,
      "note": 76,
      "start": 31.8637,
      "duration": 0.0783,
      "velocity": 107,
      "chip": "ym2612"
    },
    {
      "channel": 4,
      "note": 73,
      "start": 31.866,
      "duration": 0.0762,
      "velocity": 107,
      "chip": "ym2612"
    },
    {
      "channel": 1,
      "note": 78,
      "start": 31.9448,
      "duration": 0.0971,
      "velocity": 107,
      "chip": "ym2612"
    },
    {
      "channel": 4,
      "note": 74,
      "start": 31.947,
      "duration": 0.0952,
      "velocity": 107,
      "chip": "ym2612"
    },
    {
      "channel": 3,
      "note": 78,
      "start": 32.0448,
      "duration": 0.1973,
      "velocity": 116,
      "chip": "ym2612"
    },
    {
      "channel": 1,
      "note": 79,
      "start": 32.047,
      "duration": 0.095,
      "velocity": 107,
      "chip": "ym2612"
    },
    {
      "channel": 4,
      "note": 76,
      "start": 32.0492,
      "duration": 0.093,
      "velocity": 107,
      "chip": "ym2612"
    },
    {
      "channel": 1,
      "note": 81,
      "start": 32.1448,
      "duration": 0.0972,
      "velocity": 107,
      "chip": "ym2612"
    },
    {
      "channel": 4,
      "note": 78,
      "start": 32.147,
      "duration": 0.0952,
      "velocity": 107,
      "chip": "ym2612"
    },
    {
      "channel": 3,
      "note": 82,
      "start": 32.2448,
      "duration": 0.1973,
      "velocity": 116,
      "chip": "ym2612"
    },
    {
      "channel": 1,
      "note": 79,
      "start": 32.247,
      "duration": 0.095,
      "velocity": 107,
      "chip": "ym2612"
    },
    {
      "channel": 4,
      "note": 76,
      "start": 32.2492,
      "duration": 0.093,
      "velocity": 107,
      "chip": "ym2612"
    },
    {
      "channel": 1,
      "note": 78,
      "start": 32.3448,
      "duration": 0.0971,
      "velocity": 107,
      "chip": "ym2612"
    },
    {
      "channel": 4,
      "note": 74,
      "start": 32.347,
      "duration": 0.0952,
      "velocity": 107,
      "chip": "ym2612"
    },
    {
      "channel": 3,
      "note": 78,
      "start": 32.4448,
      "duration": 0.1807,
      "velocity": 116,
      "chip": "ym2612"
    },
    {
      "channel": 1,
      "note": 76,
      "start": 32.4472,
      "duration": 0.1782,
      "velocity": 107,
      "chip": "ym2612"
    },
    {
      "channel": 4,
      "note": 73,
      "start": 32.4498,
      "duration": 0.1759,
      "velocity": 107,
      "chip": "ym2612"
    },
    {
      "channel": 3,
      "note": 73,
      "start": 32.6284,
      "duration": 0.1972,
      "velocity": 116,
      "chip": "ym2612"
    },
    {
      "channel": 1,
      "note": 78,
      "start": 32.6305,
      "duration": 0.195,
      "velocity": 107,
      "chip": "ym2612"
    },
    {
      "channel": 4,
      "note": 74,
      "start": 32.6327,
      "duration": 0.193,
      "velocity": 107,
      "chip": "ym2612"
    },
    {
      "channel": 0,
      "note": 61,
      "start": 32.7949,
      "duration": 0.0305,
      "velocity": 116,
      "chip": "ym2612"
    },
    {
      "channel": 0,
      "note": 62,
      "start": 32.8287,
      "duration": 1.1632,
      "velocity": 116,
      "chip": "ym2612"
    },
    {
      "channel": 1,
      "note": 78,
      "start": 32.8315,
      "duration": 1.1606,
      "velocity": 107,
      "chip": "ym2612"
    },
    {
      "channel": 4,
      "note": 74,
      "start": 32.8343,
      "duration": 1.158,
      "velocity": 107,
      "chip": "ym2612"
    },
    {
      "channel": 3,
      "note": 78,
      "start": 33.028,
      "duration": 0.1806,
      "velocity": 116,
      "chip": "ym2612"
    },
    {
      "channel": 3,
      "note": 81,
      "start": 33.2113,
      "duration": 0.1974,
      "velocity": 116,
      "chip": "ym2612"
    },
    {
      "channel": 3,
      "note": 86,
      "start": 33.4114,
      "duration": 0.1974,
      "velocity": 116,
      "chip": "ym2612"
    },
    {
      "channel": 3,
      "note": 81,
      "start": 33.6114,
      "duration": 0.1807,
      "velocity": 116,
      "chip": "ym2612"
    },
    {
      "channel": 3,
      "note": 78,
      "start": 33.7948,
      "duration": 0.1974,
      "velocity": 116,
      "chip": "ym2612"
    },
    {
      "channel": 0,
      "note": 62,
      "start": 33.995,
      "duration": 0.3803,
      "velocity": 116,
      "chip": "ym2612"
    },
    {
      "channel": 1,
      "note": 78,
      "start": 33.9975,
      "duration": 0.3779,
      "velocity": 107,
      "chip": "ym2612"
    },
    {
      "channel": 4,
      "note": 74,
      "start": 34.0006,
      "duration": 0.3751,
      "velocity": 107,
      "chip": "ym2612"
    },
    {
      "channel": 3,
      "note": 78,
      "start": 34.1947,
      "duration": 0.1808,
      "velocity": 116,
      "chip": "ym2612"
    },
    {
      "channel": 0,
      "note": 66,
      "start": 34.378,
      "duration": 0.3973,
      "velocity": 116,
      "chip": "ym2612"
    },
    {
      "channel": 3,
      "note": 81,
      "start": 34.3807,
      "duration": 0.1947,
      "velocity": 116,
      "chip": "ym2612"
    },
    {
      "channel": 1,
      "note": 76,
      "start": 34.3829,
      "duration": 0.3925,
      "velocity": 107,
      "chip": "ym2612"
    },
    {
      "channel": 4,
      "note": 73,
      "start": 34.3851,
      "duration": 0.3905,
      "velocity": 107,
      "chip": "ym2612"
    },
    {
      "channel": 3,
      "note": 86,
      "start": 34.578,
      "duration": 0.1975,
      "velocity": 116,
      "chip": "ym2612"
    },
    {
      "channel": 0,
      "note": 71,
      "start": 34.778,
      "duration": 0.3807,
      "velocity": 116,
      "chip": "ym2612"
    },
    {
      "channel": 3,
      "note": 90,
      "start": 34.7805,
      "duration": 0.3784,
      "velocity": 116,
      "chip": "ym2612"
    },
    {
      "channel": 1,
      "note": 74,
      "start": 34.7826,
      "duration": 0.3762,
      "velocity": 107,
      "chip": "ym2612"
    },
    {
      "channel": 4,
      "note": 71,
      "start": 34.7849,
      "duration": 0.3742,
      "velocity": 107,
      "chip": "ym2612"
    },
    {
      "channel": 0,
      "note": 69,
      "start": 35.162,
      "duration": 1.1299,
      "velocity": 116,
      "chip": "ym2612"
    },
    {
      "channel": 3,
      "note": 88,
      "start": 35.1645,
      "duration": 0.1942,
      "velocity": 116,
      "chip": "ym2612"
    },
    {
      "channel": 1,
      "note": 73,
      "start": 35.167,
      "duration": 0.775,
      "velocity": 107,
      "chip": "ym2612"
    },
    {
      "channel": 4,
      "note": 69,
      "start": 35.1695,
      "duration": 0.7728,
      "velocity": 107,
      "chip": "ym2612"
    },
    {
      "channel": 3,
      "note": 86,
      "start": 35.3613,
      "duration": 0.1808,
      "velocity": 116,
      "chip": "ym2612"
    },
    {
      "channel": 3,
      "note": 85,
      "start": 35.5447,
      "duration": 0.1974,
      "velocity": 116,
      "chip": "ym2612"
    },
    {
      "channel": 3,
      "note": 81,
      "start": 35.7447,
      "duration": 0.1974,
      "velocity": 116,
      "chip": "ym2612"
    },
    {
      "channel": 3,
      "note": 85,
      "start": 35.9449,
      "duration": 0.1973,
      "velocity": 116,
      "chip": "ym2612"
    },
    {
      "channel": 1,
      "note": 74,
      "start": 35.9473,
      "duration": 0.3782,
      "velocity": 107,
      "chip": "ym2612"
    },
    {
      "channel": 4,
      "note": 71,
      "start": 35.9498,
      "duration": 0.3759,
      "velocity": 107,
      "chip": "ym2612"
    },
    {
      "channel": 3,
      "note": 88,
      "start": 36.1447,
      "duration": 0.1809,
      "velocity": 116,
      "chip": "ym2612"
    },
    {
      "channel": 0,
      "note": 68,
      "start": 36.2953,
      "duration": 0.03,
      "velocity": 116,
      "chip": "ym2612"
    },
    {
      "channel": 0,
      "note": 69,
      "start": 36.3284,
      "duration": 0.3969,
      "velocity": 116,
      "chip": "ym2612"
    },
    {
      "channel": 3,
      "note": 81,
      "start": 36.3306,
      "duration": 0.1948,
      "velocity": 116,
      "chip": "ym2612"
    },
    {
      "channel": 1,
      "note": 76,
      "start": 36.3328,
      "duration": 0.3926,
      "velocity": 107,
      "chip": "ym2612"
    },
    {
      "channel": 4,
      "note": 73,
      "start": 36.335,
      "duration": 0.3907,
      "velocity": 107,
      "chip": "ym2612"
    },
    {
      "channel": 3,
      "note": 85,
      "start": 36.528,
      "duration": 0.1975,
      "velocity": 116,
      "chip": "ym2612"
    },
    {
      "channel": 0,
      "note": 71,
      "start": 36.728,
      "duration": 0.3806,
      "velocity": 116,
      "chip": "ym2612"
    },
    {
      "channel": 3,
      "note": 86,
      "start": 36.7305,
      "duration": 0.3784,
      "velocity": 116,
      "chip": "ym2612"
    },
    {
      "channel": 1,
      "note": 74,
      "start": 36.7326,
      "duration": 0.3762,
      "velocity": 107,
      "chip": "ym2612"
    },
    {
      "channel": 4,
      "note": 71,
      "start": 36.7349,
      "duration": 0.3742,
      "velocity": 107,
      "chip": "ym2612"
    },
    {
      "channel": 0,
      "note": 69,
      "start": 37.1117,
      "duration": 0.347,
      "velocity": 116,
      "chip": "ym2612"
    },
    {
      "channel": 3,
      "note": 85,
      "start": 37.1139,
      "duration": 0.3783,
      "velocity": 116,
      "chip": "ym2612"
    },
    {
      "channel": 1,
      "note": 73,
      "start": 37.1161,
      "duration": 0.376,
      "velocity": 107,
      "chip": "ym2612"
    },
    {
      "channel": 4,
      "note": 69,
      "start": 37.1183,
      "duration": 0.3741,
      "velocity": 107,
      "chip": "ym2612"
    },
    {
      "channel": 0,
      "note": 69,
      "start": 37.4615,
      "duration": 0.0305,
      "velocity": 116,
      "chip": "ym2612"
    },
    {
      "channel": 0,
      "note": 71,
      "start": 37.4953,
      "duration": 1.1634,
      "velocity": 116,
      "chip": "ym2612"
    },
    {
      "channel": 3,
      "note": 86,
      "start": 37.4975,
      "duration": 0.3946,
      "velocity": 116,
      "chip": "ym2612"
    },
    {
      "channel": 1,
      "note": 71,
      "start": 37.4996,
      "duration": 0.3924,
      "velocity": 107,
      "chip": "ym2612"
    },
    {
      "channel": 4,
      "note": 66,
      "start": 37.5019,
      "duration": 0.3904,
      "velocity": 107,
      "chip": "ym2612"
    },
    {
      "channel": 3,
      "note": 83,
      "start": 37.8952,
      "duration": 0.1802,
      "velocity": 116,
      "chip": "ym2612"
    },
    {
      "channel": 1,
      "note": 71,
      "start": 37.8978,
      "duration": 0.3776,
      "velocity": 107,
      "chip": "ym2612"
    },
    {
      "channel": 4,
      "note": 66,
      "start": 37.9001,
      "duration": 0.3756,
      "velocity": 107,
      "chip": "ym2612"
    },
    {
      "channel": 3,
      "note": 86,
      "start": 38.078,
      "duration": 0.1975,
      "velocity": 116,
      "chip": "ym2612"
    },
    {
      "channel": 3,
      "note": 90,
      "start": 38.2783,
      "duration": 0.1972,
      "velocity": 116,
      "chip": "ym2612"
    },
    {
      "channel": 1,
      "note": 71,
      "start": 38.2807,
      "duration": 0.1947,
      "velocity": 107,
      "chip": "ym2612"
    },
    {
      "channel": 4,
      "note": 74,
      "start": 38.2832,
      "duration": 0.1924,
      "velocity": 107,
      "chip": "ym2612"
    },
    {
      "channel": 3,
      "note": 86,
      "start": 38.4781,
      "duration": 0.1808,
      "velocity": 116,
      "chip": "ym2612"
    },
    {
      "channel": 1,
      "note": 69,
      "start": 38.4803,
      "duration": 0.1785,
      "velocity": 107,
      "chip": "ym2612"
    },
    {
      "channel": 4,
      "note": 73,
      "start": 38.4825,
      "duration": 0.1765,
      "velocity": 107,
      "chip": "ym2612"
    },
    {
      "channel": 0,
      "note": 70,
      "start": 38.6617,
      "duration": 0.0302,
      "velocity": 116,
      "chip": "ym2612"
    },
    {
      "channel": 3,
      "note": 90,
      "start": 38.6642,
      "duration": 0.3946,
      "velocity": 116,
      "chip": "ym2612"
    },
    {
      "channel": 1,
      "note": 71,
      "start": 38.6669,
      "duration": 1.1586,
      "velocity": 107,
      "chip": "ym2612"
    },
    {
      "channel": 4,
      "note": 74,
      "start": 38.6698,
      "duration": 1.156,
      "velocity": 107,
      "chip": "ym2612"
    },
    {
      "channel": 0,
      "note": 71,
      "start": 38.6947,
      "duration": 0.3639,
      "velocity": 116,
      "chip": "ym2612"
    },
    {
      "channel": 0,
      "note": 74,
      "start": 39.0616,
      "duration": 0.3803,
      "velocity": 116,
      "chip": "ym2612"
    },
    {
      "channel": 3,
      "note": 90,
      "start": 39.0637,
      "duration": 0.3784,
      "velocity": 116,
      "chip": "ym2612"
    },
    {
      "channel": 0,
      "note": 71,
      "start": 39.4449,
      "duration": 0.3491,
      "velocity": 116,
      "chip": "ym2612"
    },
    {
      "channel": 3,
      "note": 86,
      "start": 39.447,
      "duration": 0.3786,
      "velocity": 116,
      "chip": "ym2612"
    },
    {
      "channel": 0,
      "note": 66,
      "start": 39.7968,
      "duration": 0.0285,
      "velocity": 116,
      "chip": "ym2612"
    },
    {
      "channel": 0,
      "note": 69,
      "start": 39.8292,
      "duration": 1.1795,
      "velocity": 116,
      "chip": "ym2612"
    },
    {
      "channel": 3,
      "note": 85,
      "start": 39.8314,
      "duration": 0.394,
      "velocity": 116,
      "chip": "ym2612"
    },
    {
      "channel": 1,
      "note": 73,
      "start": 39.8339,
      "duration": 0.7748,
      "velocity": 107,
      "chip": "ym2612"
    },
    {
      "channel": 4,
      "note": 69,
      "start": 39.8364,
      "duration": 0.7725,
      "velocity": 107,
      "chip": "ym2612"
    },
    {
      "channel": 3,
      "note": 85,
      "start": 40.2285,
      "duration": 0.3803,
      "velocity": 116,
      "chip": "ym2612"
    },
    {
      "channel": 3,
      "note": 86,
      "start": 40.6115,
      "duration": 0.3974,
      "velocity": 116,
      "chip": "ym2612"
    },
    {
      "channel": 1,
      "note": 71,
      "start": 40.6139,
      "duration": 0.1947,
      "velocity": 107,
      "chip": "ym2612"
    },
    {
      "channel": 4,
      "note": 74,
      "start": 40.6165,
      "duration": 0.1924,
      "velocity": 107,
      "chip": "ym2612"
    },
    {
      "channel": 1,
      "note": 68,
      "start": 40.8115,
      "duration": 0.1973,
      "velocity": 107,
      "chip": "ym2612"
    },
    {
      "channel": 4,
      "note": 71,
      "start": 40.8137,
      "duration": 0.1953,
      "velocity": 107,
      "chip": "ym2612"
    },
    {
      "channel": 0,
      "note": 69,
      "start": 41.0117,
      "duration": 0.3803,
      "velocity": 116,
      "chip": "ym2612"
    },
    {
      "channel": 3,
      "note": 88,
      "start": 41.0139,
      "duration": 0.3783,
      "velocity": 116,
      "chip": "ym2612"
    },
    {
      "channel": 1,
      "note": 69,
      "start": 41.0163,
      "duration": 0.3758,
      "velocity": 107,
      "chip": "ym2612"
    },
    {
      "channel": 4,
      "note": 73,
      "start": 41.0194,
      "duration": 0.373,
      "velocity": 107,
      "chip": "ym2612"
    },
    {
      "channel": 0,
      "note": 69,
      "start": 41.3947,
      "duration": 0.3805,
      "velocity": 116,
      "chip": "ym2612"
    },
    {
      "channel": 3,
      "note": 86,
      "start": 41.397,
      "duration": 0.3785,
      "velocity": 116,
      "chip": "ym2612"
    },
    {
      "channel": 1,
      "note": 69,
      "start": 41.399,
      "duration": 0.3763,
      "velocity": 107,
      "chip": "ym2612"
    },
    {
      "channel": 4,
      "note": 73,
      "start": 41.4013,
      "duration": 0.3744,
      "velocity": 107,
      "chip": "ym2612"
    },
    {
      "channel": 0,
      "note": 66,
      "start": 41.7784,
      "duration": 0.3636,
      "velocity": 116,
      "chip": "ym2612"
    },
    {
      "channel": 3,
      "note": 85,
      "start": 41.7807,
      "duration": 0.3949,
      "velocity": 116,
      "chip": "ym2612"
    },
    {
      "channel": 1,
      "note": 71,
      "start": 41.7828,
      "duration": 0.3927,
      "velocity": 107,
      "chip": "ym2612"
    },
    {
      "channel": 4,
      "note": 74,
      "start": 41.7851,
      "duration": 0.3907,
      "velocity": 107,
      "chip": "ym2612"
    },
    {
      "channel": 0,
      "note": 64,
      "start": 42.1449,
      "duration": 0.0305,
      "velocity": 116,
      "chip": "ym2612"
    },
    {
      "channel": 0,
      "note": 67,
      "start": 42.1787,
      "duration": 1.13,
      "velocity": 116,
      "chip": "ym2612"
    },
    {
      "channel": 1,
      "note": 67,
      "start": 42.1812,
      "duration": 0.1774,
      "velocity": 107,
      "chip": "ym2612"
    },
    {
      "channel": 4,
      "note": 71,
      "start": 42.1838,
      "duration": 0.1751,
      "velocity": 107,
      "chip": "ym2612"
    },
    {
      "channel": 3,
      "note": 83,
      "start": 42.3617,
      "duration": 0.1971,
      "velocity": 116,
      "chip": "ym2612"
    },
    {
      "channel": 1,
      "note": 71,
      "start": 42.3638,
      "duration": 0.1949,
      "velocity": 107,
      "chip": "ym2612"
    },
    {
      "channel": 4,
      "note": 74,
      "start": 42.366,
      "duration": 0.1929,
      "velocity": 107,
      "chip": "ym2612"
    },
    {
      "channel": 3,
      "note": 86,
      "start": 42.5615,
      "duration": 0.1973,
      "velocity": 116,
      "chip": "ym2612"
    },
    {
      "channel": 1,
      "note": 74,
      "start": 42.5637,
      "duration": 0.195,
      "velocity": 107,
      "chip": "ym2612"
    },
    {
      "channel": 4,
      "note": 79,
      "start": 42.5659,
      "duration": 0.193,
      "velocity": 107,
      "chip": "ym2612"
    },
    {
      "channel": 3,
      "note": 91,
      "start": 42.7615,
      "duration": 0.1805,
      "velocity": 116,
      "chip": "ym2612"
    },
    {
      "channel": 1,
      "note": 71,
      "start": 42.7637,
      "duration": 0.1783,
      "velocity": 107,
      "chip": "ym2612"
    },
    {
      "channel": 4,
      "note": 74,
      "start": 42.7659,
      "duration": 0.1763,
      "velocity": 107,
      "chip": "ym2612"
    },
    {
      "channel": 3,
      "note": 86,
      "start": 42.9448,
      "duration": 0.1974,
      "velocity": 116,
      "chip": "ym2612"
    },
    {
      "channel": 1,
      "note": 67,
      "start": 42.947,
      "duration": 0.1951,
      "velocity": 107,
      "chip": "ym2612"
    },
    {
      "channel": 4,
      "note": 71,
      "start": 42.9492,
      "duration": 0.1931,
      "velocity": 107,
      "chip": "ym2612"
    },
    {
      "channel": 3,
      "note": 83,
      "start": 43.1449,
      "duration": 0.1973,
      "velocity": 116,
      "chip": "ym2612"
    },
    {
      "channel": 1,
      "note": 71,
      "start": 43.1471,
      "duration": 0.195,
      "velocity": 107,
      "chip": "ym2612"
    },
    {
      "channel": 4,
      "note": 74,
      "start": 43.1493,
      "duration": 0.1931,
      "velocity": 107,
      "chip": "ym2612"
    },
    {
      "channel": 0,
      "note": 62,
      "start": 43.3115,
      "duration": 0.0305,
      "velocity": 116,
      "chip": "ym2612"
    },
    {
      "channel": 0,
      "note": 66,
      "start": 43.3454,
      "duration": 1.1632,
      "velocity": 116,
      "chip": "ym2612"
    },
    {
      "channel": 3,
      "note": 78,
      "start": 43.3475,
      "duration": 0.178,
      "velocity": 116,
      "chip": "ym2612"
    },
    {
      "channel": 1,
      "note": 70,
      "start": 43.3505,
      "duration": 0.0915,
      "velocity": 107,
      "chip": "ym2612"
    },
    {
      "channel": 4,
      "note": 73,
      "start": 43.353,
      "duration": 0.0892,
      "velocity": 107,
      "chip": "ym2612"
    },
    {
      "channel": 1,
      "note": 71,
      "start": 43.4448,
      "duration": 0.0806,
      "velocity": 107,
      "chip": "ym2612"
    },
    {
      "channel": 4,
      "note": 74,
      "start": 43.447,
      "duration": 0.0786,
      "velocity": 107,
      "chip": "ym2612"
    },
    {
      "channel": 3,
      "note": 82,
      "start": 43.5283,
      "duration": 0.1973,
      "velocity": 116,
      "chip": "ym2612"
    },
    {
      "channel": 1,
      "note": 70,
      "start": 43.5303,
      "duration": 0.0949,
      "velocity": 107,
      "chip": "ym2612"
    },
    {
      "channel": 4,
      "note": 73,
      "start": 43.5326,
      "duration": 0.0929,
      "velocity": 107,
      "chip": "ym2612"
    },
    {
      "channel": 1,
      "note": 71,
      "start": 43.628,
      "duration": 0.0973,
      "velocity": 107,
      "chip": "ym2612"
    },
    {
      "channel": 4,
      "note": 74,
      "start": 43.6303,
      "duration": 0.0954,
      "velocity": 107,
      "chip": "ym2612"
    },
    {
      "channel": 3,
      "note": 85,
      "start": 43.7283,
      "duration": 0.1973,
      "velocity": 116,
      "chip": "ym2612"
    },
    {
      "channel": 1,
      "note": 70,
      "start": 43.7303,
      "duration": 0.095,
      "velocity": 107,
      "chip": "ym2612"
    },
    {
      "channel": 4,
      "note": 76,
      "start": 43.7326,
      "duration": 0.0929,
      "velocity": 107,
      "chip": "ym2612"
    },
    {
      "channel": 1,
      "note": 71,
      "start": 43.8281,
      "duration": 0.0973,
      "velocity": 107,
      "chip": "ym2612"
    },
    {
      "channel": 4,
      "note": 74,
      "start": 43.8303,
      "duration": 0.0953,
      "velocity": 107,
      "chip": "ym2612"
    },
    {
      "channel": 3,
      "note": 90,
      "start": 43.9283,
      "duration": 0.1806,
      "velocity": 116,
      "chip": "ym2612"
    },
    {
      "channel": 1,
      "note": 70,
      "start": 43.9304,
      "duration": 0.0949,
      "velocity": 107,
      "chip": "ym2612"
    },
    {
      "channel": 4,
      "note": 73,
      "start": 43.9326,
      "duration": 0.0929,
      "velocity": 107,
      "chip": "ym2612"
    },
    {
      "channel": 1,
      "note": 71,
      "start": 44.0281,
      "duration": 0.0806,
      "velocity": 107,
      "chip": "ym2612"
    },
    {
      "channel": 4,
      "note": 74,
      "start": 44.0303,
      "duration": 0.0786,
      "velocity": 107,
      "chip": "ym2612"
    },
    {
      "channel": 3,
      "note": 85,
      "start": 44.1116,
      "duration": 0.1973,
      "velocity": 116,
      "chip": "ym2612"
    },
    {
      "channel": 1,
      "note": 73,
      "start": 44.114,
      "duration": 0.1947,
      "velocity": 107,
      "chip": "ym2612"
    },
    {
      "channel": 4,
      "note": 70,
      "start": 44.1166,
      "duration": 0.1924,
      "velocity": 107,
      "chip": "ym2612"
    },
    {
      "channel": 3,
      "note": 82,
      "start": 44.3117,
      "duration": 0.1971,
      "velocity": 116,
      "chip": "ym2612"
    },
    {
      "channel": 1,
      "note": 74,
      "start": 44.3139,
      "duration": 0.1949,
      "velocity": 107,
      "chip": "ym2612"
    },
    {
      "channel": 4,
      "note": 71,
      "start": 44.3161,
      "duration": 0.1929,
      "velocity": 107,
      "chip": "ym2612"
    },
    {
      "channel": 0,
      "note": 62,
      "start": 44.5113,
      "duration": 1.1639,
      "velocity": 116,
      "chip": "ym2612"
    },
    {
      "channel": 1,
      "note": 78,
      "start": 44.5142,
      "duration": 1.1612,
      "velocity": 107,
      "chip": "ym2612"
    },
    {
      "channel": 4,
      "note": 74,
      "start": 44.517,
      "duration": 1.1587,
      "velocity": 107,
      "chip": "ym2612"
    },
    {
      "channel": 3,
      "note": 78,
      "start": 44.6947,
      "duration": 0.1974,
      "velocity": 116,
      "chip": "ym2612"
    },
    {
      "channel": 3,
      "note": 81,
      "start": 44.8947,
      "duration": 0.1973,
      "velocity": 116,
      "chip": "ym2612"
    },
    {
      "channel": 3,
      "note": 86,
      "start": 45.0947,
      "duration": 0.1974,
      "velocity": 116,
      "chip": "ym2612"
    },
    {
      "channel": 3,
      "note": 81,
      "start": 45.2947,
      "duration": 0.1807,
      "velocity": 116,
      "chip": "ym2612"
    },
    {
      "channel": 3,
      "note": 78,
      "start": 45.4781,
      "duration": 0.1974,
      "velocity": 116,
      "chip": "ym2612"
    },
    {
      "channel": 0,
      "note": 62,
      "start": 45.6783,
      "duration": 0.3803,
      "velocity": 116,
      "chip": "ym2612"
    },
    {
      "channel": 1,
      "note": 78,
      "start": 45.6809,
      "duration": 0.378,
      "velocity": 107,
      "chip": "ym2612"
    },
    {
      "channel": 4,
      "note": 74,
      "start": 45.6839,
      "duration": 0.3752,
      "velocity": 107,
      "chip": "ym2612"
    },
    {
      "channel": 3,
      "note": 78,
      "start": 45.878,
      "duration": 0.181,
      "velocity": 116,
      "chip": "ym2612"
    },
    {
      "channel": 0,
      "note": 66,
      "start": 46.0615,
      "duration": 0.3971,
      "velocity": 116,
      "chip": "ym2612"
    },
    {
      "channel": 3,
      "note": 81,
      "start": 46.0636,
      "duration": 0.1951,
      "velocity": 116,
      "chip": "ym2612"
    },
    {
      "channel": 1,
      "note": 76,
      "start": 46.0658,
      "duration": 0.3929,
      "velocity": 107,
      "chip": "ym2612"
    },
    {
      "channel": 4,
      "note": 73,
      "start": 46.068,
      "duration": 0.391,
      "velocity": 107,
      "chip": "ym2612"
    },
    {
      "channel": 3,
      "note": 86,
      "start": 46.2614,
      "duration": 0.1975,
      "velocity": 116,
      "chip": "ym2612"
    },
    {
      "channel": 0,
      "note": 71,
      "start": 46.4619,
      "duration": 0.3801,
      "velocity": 116,
      "chip": "ym2612"
    },
    {
      "channel": 3,
      "note": 90,
      "start": 46.465,
      "duration": 0.3773,
      "velocity": 116,
      "chip": "ym2612"
    },
    {
      "channel": 1,
      "note": 74,
      "start": 46.4671,
      "duration": 0.3751,
      "velocity": 107,
      "chip": "ym2612"
    },
    {
      "channel": 4,
      "note": 71,
      "start": 46.4693,
      "duration": 0.3731,
      "velocity": 107,
      "chip": "ym2612"
    },
    {
      "channel": 0,
      "note": 69,
      "start": 46.8453,
      "duration": 1.13,
      "velocity": 116,
      "chip": "ym2612"
    },
    {
      "channel": 3,
      "note": 88,
      "start": 46.8478,
      "duration": 0.1942,
      "velocity": 116,
      "chip": "ym2612"
    },
    {
      "channel": 1,
      "note": 73,
      "start": 46.8502,
      "duration": 0.775,
      "velocity": 107,
      "chip": "ym2612"
    },
    {
      "channel": 4,
      "note": 69,
      "start": 46.8528,
      "duration": 0.7728,
      "velocity": 107,
      "chip": "ym2612"
    },
    {
      "channel": 3,
      "note": 86,
      "start": 47.0447,
      "duration": 0.1808,
      "velocity": 116,
      "chip": "ym2612"
    },
    {
      "channel": 3,
      "note": 85,
      "start": 47.228,
      "duration": 0.1973,
      "velocity": 116,
      "chip": "ym2612"
    },
    {
      "channel": 3,
      "note": 81,
      "start": 47.428,
      "duration": 0.1974,
      "velocity": 116,
      "chip": "ym2612"
    },
    {
      "channel": 3,
      "note": 85,
      "start": 47.6281,
      "duration": 0.1806,
      "velocity": 116,
      "chip": "ym2612"
    },
    {
      "channel": 1,
      "note": 74,
      "start": 47.6305,
      "duration": 0.3782,
      "velocity": 107,
      "chip": "ym2612"
    },
    {
      "channel": 4,
      "note": 71,
      "start": 47.6331,
      "duration": 0.3759,
      "velocity": 107,
      "chip": "ym2612"
    },
    {
      "channel": 3,
      "note": 88,
      "start": 47.8113,
      "duration": 0.1975,
      "velocity": 116,
      "chip": "ym2612"
    },
    {
      "channel": 0,
      "note": 68,
      "start": 47.978,
      "duration": 0.0305,
      "velocity": 116,
      "chip": "ym2612"
    },
    {
      "channel": 0,
      "note": 69,
      "start": 48.0116,
      "duration": 0.3803,
      "velocity": 116,
      "chip": "ym2612"
    },
    {
      "channel": 3,
      "note": 81,
      "start": 48.0138,
      "duration": 0.195,
      "velocity": 116,
      "chip": "ym2612"
    },
    {
      "channel": 1,
      "note": 76,
      "start": 48.016,
      "duration": 0.3761,
      "velocity": 107,
      "chip": "ym2612"
    },
    {
      "channel": 4,
      "note": 73,
      "start": 48.0182,
      "duration": 0.3741,
      "velocity": 107,
      "chip": "ym2612"
    },
    {
      "channel": 3,
      "note": 85,
      "start": 48.2114,
      "duration": 0.1808,
      "velocity": 116,
      "chip": "ym2612"
    },
    {
      "channel": 0,
      "note": 71,
      "start": 48.3947,
      "duration": 0.3973,
      "velocity": 116,
      "chip": "ym2612"
    },
    {
      "channel": 3,
      "note": 86,
      "start": 48.3972,
      "duration": 0.395,
      "velocity": 116,
      "chip": "ym2612"
    },
    {
      "channel": 1,
      "note": 74,
      "start": 48.3993,
      "duration": 0.3928,
      "velocity": 107,
      "chip": "ym2612"
    },
    {
      "channel": 4,
      "note": 71,
      "start": 48.4015,
      "duration": 0.3908,
      "velocity": 107,
      "chip": "ym2612"
    },
    {
      "channel": 0,
      "note": 69,
      "start": 48.795,
      "duration": 0.3469,
      "velocity": 116,
      "chip": "ym2612"
    },
    {
      "channel": 3,
      "note": 85,
      "start": 48.7972,
      "duration": 0.3783,
      "velocity": 116,
      "chip": "ym2612"
    },
    {
      "channel": 1,
      "note": 73,
      "start": 48.7994,
      "duration": 0.376,
      "velocity": 107,
      "chip": "ym2612"
    },
    {
      "channel": 4,
      "note": 69,
      "start": 48.8016,
      "duration": 0.3741,
      "velocity": 107,
      "chip": "ym2612"
    },
    {
      "channel": 0,
      "note": 69,
      "start": 49.1448,
      "duration": 0.0305,
      "velocity": 116,
      "chip": "ym2612"
    },
    {
      "channel": 0,
      "note": 71,
      "start": 49.1786,
      "duration": 1.1634,
      "velocity": 116,
      "chip": "ym2612"
    },
    {
      "channel": 3,
      "note": 86,
      "start": 49.1808,
      "duration": 0.38,
      "velocity": 116,
      "chip": "ym2612"
    },
    {
      "channel": 1,
      "note": 71,
      "start": 49.1829,
      "duration": 0.3778,
      "velocity": 107,
      "chip": "ym2612"
    },
    {
      "channel": 4,
      "note": 66,
      "start": 49.1852,
      "duration": 0.3758,
      "velocity": 107,
      "chip": "ym2612"
    },
    {
      "channel": 3,
      "note": 83,
      "start": 49.5638,
      "duration": 0.195,
      "velocity": 116,
      "chip": "ym2612"
    },
    {
      "channel": 1,
      "note": 71,
      "start": 49.5665,
      "duration": 0.3922,
      "velocity": 107,
      "chip": "ym2612"
    },
    {
      "channel": 4,
      "note": 66,
      "start": 49.5687,
      "duration": 0.3903,
      "velocity": 107,
      "chip": "ym2612"
    },
    {
      "channel": 3,
      "note": 86,
      "start": 49.7614,
      "duration": 0.1975,
      "velocity": 116,
      "chip": "ym2612"
    },
    {
      "channel": 3,
      "note": 90,
      "start": 49.9616,
      "duration": 0.1972,
      "velocity": 116,
      "chip": "ym2612"
    },
    {
      "channel": 1,
      "note": 71,
      "start": 49.964,
      "duration": 0.1947,
      "velocity": 107,
      "chip": "ym2612"
    },
    {
      "channel": 4,
      "note": 74,
      "start": 49.9666,
      "duration": 0.1924,
      "velocity": 107,
      "chip": "ym2612"
    },
    {
      "channel": 3,
      "note": 86,
      "start": 50.1615,
      "duration": 0.1808,
      "velocity": 116,
      "chip": "ym2612"
    },
    {
      "channel": 1,
      "note": 69,
      "start": 50.1636,
      "duration": 0.1785,
      "velocity": 107,
      "chip": "ym2612"
    },
    {
      "channel": 4,
      "note": 73,
      "start": 50.1659,
      "duration": 0.1765,
      "velocity": 107,
      "chip": "ym2612"
    },
    {
      "channel": 0,
      "note": 70,
      "start": 50.345,
      "duration": 0.0302,
      "velocity": 116,
      "chip": "ym2612"
    },
    {
      "channel": 3,
      "note": 90,
      "start": 50.3475,
      "duration": 0.3946,
      "velocity": 116,
      "chip": "ym2612"
    },
    {
      "channel": 1,
      "note": 71,
      "start": 50.3502,
      "duration": 1.1585,
      "velocity": 107,
      "chip": "ym2612"
    },
    {
      "channel": 4,
      "note": 74,
      "start": 50.3531,
      "duration": 1.1559,
      "velocity": 107,
      "chip": "ym2612"
    },
    {
      "channel": 0,
      "note": 71,
      "start": 50.378,
      "duration": 0.3639,
      "velocity": 116,
      "chip": "ym2612"
    },
    {
      "channel": 0,
      "note": 74,
      "start": 50.7454,
      "duration": 0.38,
      "velocity": 116,
      "chip": "ym2612"
    },
    {
      "channel": 3,
      "note": 90,
      "start": 50.7476,
      "duration": 0.3779,
      "velocity": 116,
      "chip": "ym2612"
    },
    {
      "channel": 0,
      "note": 71,
      "start": 51.1283,
      "duration": 0.3471,
      "velocity": 116,
      "chip": "ym2612"
    },
    {
      "channel": 3,
      "note": 86,
      "start": 51.1305,
      "duration": 0.3784,
      "velocity": 116,
      "chip": "ym2612"
    },
    {
      "channel": 0,
      "note": 66,
      "start": 51.4782,
      "duration": 0.0305,
      "velocity": 116,
      "chip": "ym2612"
    },
    {
      "channel": 0,
      "note": 69,
      "start": 51.512,
      "duration": 1.1633,
      "velocity": 116,
      "chip": "ym2612"
    },
    {
      "channel": 3,
      "note": 85,
      "start": 51.5142,
      "duration": 0.3945,
      "velocity": 116,
      "chip": "ym2612"
    },
    {
      "channel": 1,
      "note": 73,
      "start": 51.5166,
      "duration": 0.7755,
      "velocity": 107,
      "chip": "ym2612"
    },
    {
      "channel": 4,
      "note": 69,
      "start": 51.5192,
      "duration": 0.7732,
      "velocity": 107,
      "chip": "ym2612"
    },
    {
      "channel": 3,
      "note": 85,
      "start": 51.9113,
      "duration": 0.3808,
      "velocity": 116,
      "chip": "ym2612"
    },
    {
      "channel": 3,
      "note": 86,
      "start": 52.2949,
      "duration": 0.3806,
      "velocity": 116,
      "chip": "ym2612"
    },
    {
      "channel": 1,
      "note": 71,
      "start": 52.2973,
      "duration": 0.1947,
      "velocity": 107,
      "chip": "ym2612"
    },
    {
      "channel": 4,
      "note": 74,
      "start": 52.2999,
      "duration": 0.1922,
      "velocity": 107,
      "chip": "ym2612"
    },
    {
      "channel": 1,
      "note": 68,
      "start": 52.4948,
      "duration": 0.1806,
      "velocity": 107,
      "chip": "ym2612"
    },
    {
      "channel": 4,
      "note": 71,
      "start": 52.497,
      "duration": 0.1786,
      "velocity": 107,
      "chip": "ym2612"
    },
    {
      "channel": 0,
      "note": 69,
      "start": 52.6783,
      "duration": 0.397,
      "velocity": 116,
      "chip": "ym2612"
    },
    {
      "channel": 3,
      "note": 88,
      "start": 52.6805,
      "duration": 0.395,
      "velocity": 116,
      "chip": "ym2612"
    },
    {
      "channel": 1,
      "note": 69,
      "start": 52.6829,
      "duration": 0.3925,
      "velocity": 107,
      "chip": "ym2612"
    },
    {
      "channel": 4,
      "note": 73,
      "start": 52.686,
      "duration": 0.3897,
      "velocity": 107,
      "chip": "ym2612"
    },
    {
      "channel": 0,
      "note": 69,
      "start": 53.078,
      "duration": 0.3805,
      "velocity": 116,
      "chip": "ym2612"
    },
    {
      "channel": 3,
      "note": 86,
      "start": 53.0808,
      "duration": 0.378,
      "velocity": 116,
      "chip": "ym2612"
    },
    {
      "channel": 1,
      "note": 69,
      "start": 53.0829,
      "duration": 0.3758,
      "velocity": 107,
      "chip": "ym2612"
    },
    {
      "channel": 4,
      "note": 73,
      "start": 53.0852,
      "duration": 0.3738,
      "velocity": 107,
      "chip": "ym2612"
    },
    {
      "channel": 0,
      "note": 66,
      "start": 53.4617,
      "duration": 0.3637,
      "velocity": 116,
      "chip": "ym2612"
    },
    {
      "channel": 3,
      "note": 85,
      "start": 53.464,
      "duration": 0.3782,
      "velocity": 116,
      "chip": "ym2612"
    },
    {
      "channel": 1,
      "note": 71,
      "start": 53.4664,
      "duration": 0.3756,
      "velocity": 107,
      "chip": "ym2612"
    },
    {
      "channel": 4,
      "note": 74,
      "start": 53.4686,
      "duration": 0.3737,
      "velocity": 107,
      "chip": "ym2612"
    },
    {
      "channel": 0,
      "note": 64,
      "start": 53.8281,
      "duration": 0.0138,
      "velocity": 116,
      "chip": "ym2612"
    },
    {
      "channel": 0,
      "note": 67,
      "start": 53.8453,
      "duration": 1.1466,
      "velocity": 116,
      "chip": "ym2612"
    },
    {
      "channel": 4,
      "note": 71,
      "start": 53.848,
      "duration": 0.194,
      "velocity": 107,
      "chip": "ym2612"
    },
    {
      "channel": 3,
      "note": 83,
      "start": 54.045,
      "duration": 0.1971,
      "velocity": 116,
      "chip": "ym2612"
    },
    {
      "channel": 4,
      "note": 74,
      "start": 54.0473,
      "duration": 0.1949,
      "velocity": 107,
      "chip": "ym2612"
    },
    {
      "channel": 3,
      "note": 86,
      "start": 54.2448,
      "duration": 0.1825,
      "velocity": 116,
      "chip": "ym2612"
    },
    {
      "channel": 4,
      "note": 79,
      "start": 54.2471,
      "duration": 0.1803,
      "velocity": 107,
      "chip": "ym2612"
    },
    {
      "channel": 3,
      "note": 91,
      "start": 54.43,
      "duration": 0.1954,
      "velocity": 116,
      "chip": "ym2612"
    },
    {
      "channel": 4,
      "note": 74,
      "start": 54.4324,
      "duration": 0.1931,
      "velocity": 107,
      "chip": "ym2612"
    },
    {
      "channel": 3,
      "note": 86,
      "start": 54.628,
      "duration": 0.1974,
      "velocity": 116,
      "chip": "ym2612"
    },
    {
      "channel": 4,
      "note": 71,
      "start": 54.6304,
      "duration": 0.1952,
      "velocity": 107,
      "chip": "ym2612"
    },
    {
      "channel": 3,
      "note": 83,
      "start": 54.8282,
      "duration": 0.1973,
      "velocity": 116,
      "chip": "ym2612"
    },
    {
      "channel": 4,
      "note": 74,
      "start": 54.8305,
      "duration": 0.1952,
      "velocity": 107,
      "chip": "ym2612"
    },
    {
      "channel": 0,
      "note": 62,
      "start": 54.9947,
      "duration": 0.0306,
      "velocity": 116,
      "chip": "ym2612"
    },
    {
      "channel": 0,
      "note": 66,
      "start": 55.0291,
      "duration": 1.1628,
      "velocity": 116,
      "chip": "ym2612"
    },
    {
      "channel": 3,
      "note": 78,
      "start": 55.0313,
      "duration": 0.1774,
      "velocity": 116,
      "chip": "ym2612"
    },
    {
      "channel": 4,
      "note": 73,
      "start": 55.034,
      "duration": 0.0748,
      "velocity": 107,
      "chip": "ym2612"
    },
    {
      "channel": 4,
      "note": 74,
      "start": 55.1116,
      "duration": 0.0973,
      "velocity": 107,
      "chip": "ym2612"
    },
    {
      "channel": 3,
      "note": 82,
      "start": 55.2114,
      "duration": 0.1974,
      "velocity": 116,
      "chip": "ym2612"
    },
    {
      "channel": 4,
      "note": 73,
      "start": 55.2137,
      "duration": 0.095,
      "velocity": 107,
      "chip": "ym2612"
    },
    {
      "channel": 4,
      "note": 74,
      "start": 55.3115,
      "duration": 0.0974,
      "velocity": 107,
      "chip": "ym2612"
    },
    {
      "channel": 3,
      "note": 85,
      "start": 55.4115,
      "duration": 0.1972,
      "velocity": 116,
      "chip": "ym2612"
    },
    {
      "channel": 4,
      "note": 76,
      "start": 55.4138,
      "duration": 0.095,
      "velocity": 107,
      "chip": "ym2612"
    },
    {
      "channel": 4,
      "note": 74,
      "start": 55.5117,
      "duration": 0.0973,
      "velocity": 107,
      "chip": "ym2612"
    },
    {
      "channel": 3,
      "note": 90,
      "start": 55.6115,
      "duration": 0.1806,
      "velocity": 116,
      "chip": "ym2612"
    },
    {
      "channel": 4,
      "note": 73,
      "start": 55.6138,
      "duration": 0.0783,
      "velocity": 107,
      "chip": "ym2612"
    },
    {
      "channel": 4,
      "note": 74,
      "start": 55.6949,
      "duration": 0.0973,
      "velocity": 107,
      "chip": "ym2612"
    },
    {
      "channel": 3,
      "note": 85,
      "start": 55.7947,
      "duration": 0.1973,
      "velocity": 116,
      "chip": "ym2612"
    },
    {
      "channel": 4,
      "note": 70,
      "start": 55.7974,
      "duration": 0.1948,
      "velocity": 107,
      "chip": "ym2612"
    },
    {
      "channel": 3,
      "note": 82,
      "start": 55.9947,
      "duration": 0.1974,
      "velocity": 116,
      "chip": "ym2612"
    },
    {
      "channel": 4,
      "note": 71,
      "start": 55.9971,
      "duration": 0.1952,
      "velocity": 107,
      "chip": "ym2612"
    }
  ]
}