{
  "track_name": "21 - Metal Squad",
  "duration_sec": 138.309,
  "sample_rate": 44100,
  "note_count": 3297,
  "unique_pitches": 36,
  "pitch_range": 60,
  "avg_note_duration": 0.1516,
  "reconstruction_stats": {
    "notes_reconstructed": 3297,
    "keyon_events": 3297,
    "keyoff_events": 3295,
    "orphan_keyons": 2,
    "unique_pitches": 36,
    "pitch_range": 60,
    "avg_duration_sec": 0.1516
  },
  "metadata": {
    "source": "T\\Thunder Force IV\\21 - Metal Squad.vgz"
  },
  "notes": [
    {
      "channel": 0,
      "note": 53,
      "start": 0.0,
      "duration": 0.0,
      "velocity": 110,
      "chip": "ym2612"
    },
    {
      "channel": 1,
      "note": 53,
      "start": 0.0,
      "duration": 0.0,
      "velocity": 108,
      "chip": "ym2612"
    },
    {
      "channel": 3,
      "note": 61,
      "start": 0.0,
      "duration": 0.0,
      "velocity": 127,
      "chip": "ym2612"
    },
    {
      "channel": 5,
      "note": 53,
      "start": 0.0,
      "duration": 0.0,
      "velocity": 111,
      "chip": "ym2612"
    },
    {
      "channel": 0,
      "note": 48,
      "start": 0.0002,
      "duration": 0.1384,
      "velocity": 109,
      "chip": "ym2612"
    },
    {
      "channel": 1,
      "note": 48,
      "start": 0.0058,
      "duration": 0.133,
      "velocity": 108,
      "chip": "ym2612"
    },
    {
      "channel": 2,
      "note": 87,
      "start": 0.0077,
      "duration": 0.0173,
      "velocity": 108,
      "chip": "ym2612"
    },
    {
      "channel": 3,
      "note": 61,
      "start": 0.0126,
      "duration": 0.0513,
      "velocity": 127,
      "chip": "ym2612"
    },
    {
      "channel": 5,
      "note": 48,
      "start": 0.0305,
      "duration": 0.1227,
      "velocity": 109,
      "chip": "ym2612"
    },
    {
      "channel": 0,
      "note": 50,
      "start": 0.1657,
      "duration": 0.2763,
      "velocity": 109,
      "chip": "ym2612"
    },
    {
      "channel": 1,
      "note": 50,
      "start": 0.1673,
      "duration": 4.6735,
      "velocity": 108,
      "chip": "ym2612"
    },
    {
      "channel": 3,
      "note": 61,
      "start": 0.1704,
      "duration": 0.0445,
      "velocity": 127,
      "chip": "ym2612"
    },
    {
      "channel": 5,
      "note": 50,
      "start": 0.1794,
      "duration": 0.2763,
      "velocity": 109,
      "chip": "ym2612"
    },
    {
      "channel": 4,
      "note": 87,
      "start": 0.2424,
      "duration": 0.0115,
      "velocity": 108,
      "chip": "ym2612"
    },
    {
      "channel": 0,
      "note": 50,
      "start": 0.4699,
      "duration": 0.0107,
      "velocity": 109,
      "chip": "ym2612"
    },
    {
      "channel": 5,
      "note": 50,
      "start": 0.4832,
      "duration": 0.0103,
      "velocity": 109,
      "chip": "ym2612"
    },
    {
      "channel": 0,
      "note": 65,
      "start": 0.6212,
      "duration": 0.1242,
      "velocity": 109,
      "chip": "ym2612"
    },
    {
      "channel": 5,
      "note": 65,
      "start": 0.634,
      "duration": 0.1246,
      "velocity": 109,
      "chip": "ym2612"
    },
    {
      "channel": 0,
      "note": 50,
      "start": 0.772,
      "duration": 0.0112,
      "velocity": 109,
      "chip": "ym2612"
    },
    {
      "channel": 5,
      "note": 50,
      "start": 0.7862,
      "duration": 0.0102,
      "velocity": 109,
      "chip": "ym2612"
    },
    {
      "channel": 0,
      "note": 64,
      "start": 0.9238,
      "duration": 0.1249,
      "velocity": 109,
      "chip": "ym2612"
    },
    {
      "channel": 5,
      "note": 64,
      "start": 0.9378,
      "duration": 0.124,
      "velocity": 109,
      "chip": "ym2612"
    },
    {
      "channel": 0,
      "note": 50,
      "start": 1.0754,
      "duration": 0.0112,
      "velocity": 109,
      "chip": "ym2612"
    },
    {
      "channel": 5,
      "note": 50,
      "start": 1.0887,
      "duration": 0.0111,
      "velocity": 109,
      "chip": "ym2612"
    },
    {
      "channel": 0,
      "note": 65,
      "start": 1.2271,
      "duration": 0.1258,
      "velocity": 109,
      "chip": "ym2612"
    },
    {
      "channel": 2,
      "note": 87,
      "start": 1.229,
      "duration": 0.0095,
      "velocity": 108,
      "chip": "ym2612"
    },
    {
      "channel": 3,
      "note": 61,
      "start": 1.2307,
      "duration": 0.0081,
      "velocity": 127,
      "chip": "ym2612"
    },
    {
      "channel": 5,
      "note": 65,
      "start": 1.2405,
      "duration": 0.1251,
      "velocity": 109,
      "chip": "ym2612"
    },
    {
      "channel": 0,
      "note": 50,
      "start": 1.379,
      "duration": 0.2763,
      "velocity": 109,
      "chip": "ym2612"
    },
    {
      "channel": 5,
      "note": 50,
      "start": 1.3927,
      "duration": 0.2771,
      "velocity": 109,
      "chip": "ym2612"
    },
    {
      "channel": 4,
      "note": 87,
      "start": 1.4556,
      "duration": 0.0111,
      "velocity": 108,
      "chip": "ym2612"
    },
    {
      "channel": 0,
      "note": 50,
      "start": 1.6822,
      "duration": 0.0111,
      "velocity": 109,
      "chip": "ym2612"
    },
    {
      "channel": 5,
      "note": 50,
      "start": 1.6958,
      "duration": 0.0111,
      "velocity": 109,
      "chip": "ym2612"
    },
    {
      "channel": 0,
      "note": 65,
      "start": 1.8338,
      "duration": 0.1249,
      "velocity": 109,
      "chip": "ym2612"
    },
    {
      "channel": 5,
      "note": 65,
      "start": 1.847,
      "duration": 0.1249,
      "velocity": 109,
      "chip": "ym2612"
    },
    {
      "channel": 0,
      "note": 50,
      "start": 1.9863,
      "duration": 0.0104,
      "velocity": 109,
      "chip": "ym2612"
    },
    {
      "channel": 5,
      "note": 50,
      "start": 1.9988,
      "duration": 0.0111,
      "velocity": 109,
      "chip": "ym2612"
    },
    {
      "channel": 0,
      "note": 64,
      "start": 2.1385,
      "duration": 0.1236,
      "velocity": 109,
      "chip": "ym2612"
    },
    {
      "channel": 5,
      "note": 64,
      "start": 2.1512,
      "duration": 0.1242,
      "velocity": 109,
      "chip": "ym2612"
    },
    {
      "channel": 0,
      "note": 50,
      "start": 2.2888,
      "duration": 0.0112,
      "velocity": 109,
      "chip": "ym2612"
    },
    {
      "channel": 5,
      "note": 50,
      "start": 2.303,
      "duration": 0.0102,
      "velocity": 109,
      "chip": "ym2612"
    },
    {
      "channel": 0,
      "note": 65,
      "start": 2.4405,
      "duration": 0.1257,
      "velocity": 109,
      "chip": "ym2612"
    },
    {
      "channel": 2,
      "note": 87,
      "start": 2.4425,
      "duration": 0.0095,
      "velocity": 108,
      "chip": "ym2612"
    },
    {
      "channel": 3,
      "note": 61,
      "start": 2.4441,
      "duration": 0.009,
      "velocity": 127,
      "chip": "ym2612"
    },
    {
      "channel": 5,
      "note": 65,
      "start": 2.4549,
      "duration": 0.1242,
      "velocity": 109,
      "chip": "ym2612"
    },
    {
      "channel": 0,
      "note": 50,
      "start": 2.5925,
      "duration": 0.2773,
      "velocity": 109,
      "chip": "ym2612"
    },
    {
      "channel": 5,
      "note": 50,
      "start": 2.6061,
      "duration": 0.2763,
      "velocity": 109,
      "chip": "ym2612"
    },
    {
      "channel": 4,
      "note": 87,
      "start": 2.6699,
      "duration": 0.0102,
      "velocity": 108,
      "chip": "ym2612"
    },
    {
      "channel": 0,
      "note": 50,
      "start": 2.8956,
      "duration": 0.0112,
      "velocity": 109,
      "chip": "ym2612"
    },
    {
      "channel": 5,
      "note": 50,
      "start": 2.9093,
      "duration": 0.0114,
      "velocity": 109,
      "chip": "ym2612"
    },
    {
      "channel": 0,
      "note": 65,
      "start": 3.0472,
      "duration": 0.125,
      "velocity": 109,
      "chip": "ym2612"
    },
    {
      "channel": 5,
      "note": 65,
      "start": 3.0605,
      "duration": 0.1259,
      "velocity": 109,
      "chip": "ym2612"
    },
    {
      "channel": 0,
      "note": 50,
      "start": 3.199,
      "duration": 0.0112,
      "velocity": 109,
      "chip": "ym2612"
    },
    {
      "channel": 5,
      "note": 50,
      "start": 3.2122,
      "duration": 0.0111,
      "velocity": 109,
      "chip": "ym2612"
    },
    {
      "channel": 0,
      "note": 64,
      "start": 3.3506,
      "duration": 0.1249,
      "velocity": 109,
      "chip": "ym2612"
    },
    {
      "channel": 5,
      "note": 64,
      "start": 3.3638,
      "duration": 0.1249,
      "velocity": 109,
      "chip": "ym2612"
    },
    {
      "channel": 0,
      "note": 50,
      "start": 3.5032,
      "duration": 0.0104,
      "velocity": 109,
      "chip": "ym2612"
    },
    {
      "channel": 5,
      "note": 50,
      "start": 3.5156,
      "duration": 0.0111,
      "velocity": 109,
      "chip": "ym2612"
    },
    {
      "channel": 0,
      "note": 65,
      "start": 3.6545,
      "duration": 0.1244,
      "velocity": 109,
      "chip": "ym2612"
    },
    {
      "channel": 2,
      "note": 87,
      "start": 3.6564,
      "duration": 0.009,
      "velocity": 108,
      "chip": "ym2612"
    },
    {
      "channel": 3,
      "note": 61,
      "start": 3.658,
      "duration": 0.0076,
      "velocity": 127,
      "chip": "ym2612"
    },
    {
      "channel": 5,
      "note": 65,
      "start": 3.6675,
      "duration": 0.1251,
      "velocity": 109,
      "chip": "ym2612"
    },
    {
      "channel": 0,
      "note": 50,
      "start": 3.8063,
      "duration": 0.276,
      "velocity": 109,
      "chip": "ym2612"
    },
    {
      "channel": 5,
      "note": 50,
      "start": 3.8212,
      "duration": 0.2747,
      "velocity": 109,
      "chip": "ym2612"
    },
    {
      "channel": 4,
      "note": 87,
      "start": 3.8825,
      "duration": 0.0111,
      "velocity": 108,
      "chip": "ym2612"
    },
    {
      "channel": 0,
      "note": 50,
      "start": 4.1091,
      "duration": 0.0112,
      "velocity": 109,
      "chip": "ym2612"
    },
    {
      "channel": 5,
      "note": 50,
      "start": 4.1227,
      "duration": 0.0111,
      "velocity": 109,
      "chip": "ym2612"
    },
    {
      "channel": 0,
      "note": 65,
      "start": 4.2607,
      "duration": 0.1257,
      "velocity": 109,
      "chip": "ym2612"
    },
    {
      "channel": 5,
      "note": 65,
      "start": 4.2739,
      "duration": 0.1249,
      "velocity": 109,
      "chip": "ym2612"
    },
    {
      "channel": 0,
      "note": 50,
      "start": 4.4124,
      "duration": 0.0111,
      "velocity": 109,
      "chip": "ym2612"
    },
    {
      "channel": 5,
      "note": 50,
      "start": 4.4257,
      "duration": 0.0112,
      "velocity": 109,
      "chip": "ym2612"
    },
    {
      "channel": 0,
      "note": 64,
      "start": 4.5641,
      "duration": 0.1249,
      "velocity": 109,
      "chip": "ym2612"
    },
    {
      "channel": 5,
      "note": 64,
      "start": 4.5773,
      "duration": 0.1258,
      "velocity": 109,
      "chip": "ym2612"
    },
    {
      "channel": 0,
      "note": 62,
      "start": 4.7157,
      "duration": 0.0112,
      "velocity": 109,
      "chip": "ym2612"
    },
    {
      "channel": 5,
      "note": 62,
      "start": 4.7291,
      "duration": 0.0111,
      "velocity": 109,
      "chip": "ym2612"
    },
    {
      "channel": 0,
      "note": 56,
      "start": 4.8674,
      "duration": 0.0112,
      "velocity": 109,
      "chip": "ym2612"
    },
    {
      "channel": 1,
      "note": 44,
      "start": 4.8699,
      "duration": 0.1226,
      "velocity": 108,
      "chip": "ym2612"
    },
    {
      "channel": 2,
      "note": 87,
      "start": 4.8717,
      "duration": 0.0072,
      "velocity": 108,
      "chip": "ym2612"
    },
    {
      "channel": 3,
      "note": 61,
      "start": 4.8734,
      "duration": 0.0435,
      "velocity": 127,
      "chip": "ym2612"
    },
    {
      "channel": 5,
      "note": 56,
      "start": 4.8808,
      "duration": 0.011,
      "velocity": 109,
      "chip": "ym2612"
    },
    {
      "channel": 0,
      "note": 46,
      "start": 5.0202,
      "duration": 0.2756,
      "velocity": 109,
      "chip": "ym2612"
    },
    {
      "channel": 1,
      "note": 46,
      "start": 5.0219,
      "duration": 2.2458,
      "velocity": 108,
      "chip": "ym2612"
    },
    {
      "channel": 3,
      "note": 61,
      "start": 5.0241,
      "duration": 0.0462,
      "velocity": 127,
      "chip": "ym2612"
    },
    {
      "channel": 5,
      "note": 46,
      "start": 5.033,
      "duration": 0.2763,
      "velocity": 109,
      "chip": "ym2612"
    },
    {
      "channel": 4,
      "note": 87,
      "start": 5.096,
      "duration": 0.011,
      "velocity": 108,
      "chip": "ym2612"
    },
    {
      "channel": 0,
      "note": 46,
      "start": 5.3225,
      "duration": 0.0112,
      "velocity": 109,
      "chip": "ym2612"
    },
    {
      "channel": 5,
      "note": 46,
      "start": 5.3371,
      "duration": 0.0102,
      "velocity": 109,
      "chip": "ym2612"
    },
    {
      "channel": 0,
      "note": 62,
      "start": 5.4746,
      "duration": 0.1244,
      "velocity": 109,
      "chip": "ym2612"
    },
    {
      "channel": 5,
      "note": 62,
      "start": 5.4895,
      "duration": 0.1228,
      "velocity": 109,
      "chip": "ym2612"
    },
    {
      "channel": 0,
      "note": 46,
      "start": 5.6259,
      "duration": 0.0112,
      "velocity": 109,
      "chip": "ym2612"
    },
    {
      "channel": 5,
      "note": 46,
      "start": 5.6392,
      "duration": 0.0111,
      "velocity": 109,
      "chip": "ym2612"
    },
    {
      "channel": 0,
      "note": 60,
      "start": 5.7775,
      "duration": 0.1263,
      "velocity": 109,
      "chip": "ym2612"
    },
    {
      "channel": 5,
      "note": 60,
      "start": 5.7907,
      "duration": 0.1249,
      "velocity": 109,
      "chip": "ym2612"
    },
    {
      "channel": 0,
      "note": 46,
      "start": 5.9292,
      "duration": 0.0112,
      "velocity": 109,
      "chip": "ym2612"
    },
    {
      "channel": 5,
      "note": 46,
      "start": 5.9425,
      "duration": 0.0111,
      "velocity": 109,
      "chip": "ym2612"
    },
    {
      "channel": 0,
      "note": 62,
      "start": 6.0809,
      "duration": 0.1249,
      "velocity": 109,
      "chip": "ym2612"
    },
    {
      "channel": 2,
      "note": 87,
      "start": 6.0828,
      "duration": 0.0095,
      "velocity": 108,
      "chip": "ym2612"
    },
    {
      "channel": 3,
      "note": 61,
      "start": 6.0845,
      "duration": 0.0081,
      "velocity": 127,
      "chip": "ym2612"
    },
    {
      "channel": 5,
      "note": 62,
      "start": 6.0944,
      "duration": 0.126,
      "velocity": 109,
      "chip": "ym2612"
    },
    {
      "channel": 0,
      "note": 46,
      "start": 6.2329,
      "duration": 0.2763,
      "velocity": 109,
      "chip": "ym2612"
    },
    {
      "channel": 5,
      "note": 46,
      "start": 6.2465,
      "duration": 0.2763,
      "velocity": 109,
      "chip": "ym2612"
    },
    {
      "channel": 4,
      "note": 87,
      "start": 6.3098,
      "duration": 0.0117,
      "velocity": 108,
      "chip": "ym2612"
    },
    {
      "channel": 0,
      "note": 46,
      "start": 6.5367,
      "duration": 0.0104,
      "velocity": 109,
      "chip": "ym2612"
    },
    {
      "channel": 5,
      "note": 46,
      "start": 6.5497,
      "duration": 0.0111,
      "velocity": 109,
      "chip": "ym2612"
    },
    {
      "channel": 0,
      "note": 62,
      "start": 6.6878,
      "duration": 0.1247,
      "velocity": 109,
      "chip": "ym2612"
    },
    {
      "channel": 5,
      "note": 62,
      "start": 6.7009,
      "duration": 0.1249,
      "velocity": 109,
      "chip": "ym2612"
    },
    {
      "channel": 0,
      "note": 46,
      "start": 6.8393,
      "duration": 0.0112,
      "velocity": 109,
      "chip": "ym2612"
    },
    {
      "channel": 5,
      "note": 46,
      "start": 6.8535,
      "duration": 0.0102,
      "velocity": 109,
      "chip": "ym2612"
    },
    {
      "channel": 0,
      "note": 60,
      "start": 6.991,
      "duration": 0.1249,
      "velocity": 109,
      "chip": "ym2612"
    },
    {
      "channel": 5,
      "note": 60,
      "start": 7.0051,
      "duration": 0.1241,
      "velocity": 109,
      "chip": "ym2612"
    },
    {
      "channel": 0,
      "note": 46,
      "start": 7.143,
      "duration": 0.0116,
      "velocity": 109,
      "chip": "ym2612"
    },
    {
      "channel": 5,
      "note": 46,
      "start": 7.1568,
      "duration": 0.0102,
      "velocity": 109,
      "chip": "ym2612"
    },
    {
      "channel": 0,
      "note": 46,
      "start": 7.2943,
      "duration": 0.0112,
      "velocity": 109,
      "chip": "ym2612"
    },
    {
      "channel": 1,
      "note": 46,
      "start": 7.296,
      "duration": 0.1239,
      "velocity": 108,
      "chip": "ym2612"
    },
    {
      "channel": 2,
      "note": 87,
      "start": 7.2978,
      "duration": 0.008,
      "velocity": 108,
      "chip": "ym2612"
    },
    {
      "channel": 3,
      "note": 61,
      "start": 7.2995,
      "duration": 0.0443,
      "velocity": 127,
      "chip": "ym2612"
    },
    {
      "channel": 5,
      "note": 46,
      "start": 7.3077,
      "duration": 0.012,
      "velocity": 109,
      "chip": "ym2612"
    },
    {
      "channel": 0,
      "note": 48,
      "start": 7.4463,
      "duration": 0.2764,
      "velocity": 109,
      "chip": "ym2612"
    },
    {
      "channel": 1,
      "note": 48,
      "start": 7.4479,
      "duration": 2.2467,
      "velocity": 108,
      "chip": "ym2612"
    },
    {
      "channel": 3,
      "note": 61,
      "start": 7.4502,
      "duration": 0.0454,
      "velocity": 127,
      "chip": "ym2612"
    },
    {
      "channel": 5,
      "note": 48,
      "start": 7.46,
      "duration": 0.2772,
      "velocity": 109,
      "chip": "ym2612"
    },
    {
      "channel": 4,
      "note": 87,
      "start": 7.523,
      "duration": 0.011,
      "velocity": 108,
      "chip": "ym2612"
    },
    {
      "channel": 3,
      "note": 61,
      "start": 7.5984,
      "duration": 0.0113,
      "velocity": 127,
      "chip": "ym2612"
    },
    {
      "channel": 0,
      "note": 48,
      "start": 7.7494,
      "duration": 0.0112,
      "velocity": 109,
      "chip": "ym2612"
    },
    {
      "channel": 5,
      "note": 48,
      "start": 7.7631,
      "duration": 0.0111,
      "velocity": 109,
      "chip": "ym2612"
    },
    {
      "channel": 0,
      "note": 64,
      "start": 7.901,
      "duration": 0.125,
      "velocity": 109,
      "chip": "ym2612"
    },
    {
      "channel": 5,
      "note": 64,
      "start": 7.9147,
      "duration": 0.1249,
      "velocity": 109,
      "chip": "ym2612"
    },
    {
      "channel": 0,
      "note": 48,
      "start": 8.0535,
      "duration": 0.0104,
      "velocity": 109,
      "chip": "ym2612"
    },
    {
      "channel": 5,
      "note": 48,
      "start": 8.0664,
      "duration": 0.0111,
      "velocity": 109,
      "chip": "ym2612"
    },
    {
      "channel": 0,
      "note": 62,
      "start": 8.2045,
      "duration": 0.1249,
      "velocity": 109,
      "chip": "ym2612"
    },
    {
      "channel": 5,
      "note": 62,
      "start": 8.2176,
      "duration": 0.1249,
      "velocity": 109,
      "chip": "ym2612"
    },
    {
      "channel": 0,
      "note": 48,
      "start": 8.3561,
      "duration": 0.0111,
      "velocity": 109,
      "chip": "ym2612"
    },
    {
      "channel": 5,
      "note": 48,
      "start": 8.3702,
      "duration": 0.0102,
      "velocity": 109,
      "chip": "ym2612"
    },
    {
      "channel": 0,
      "note": 64,
      "start": 8.5078,
      "duration": 0.1249,
      "velocity": 109,
      "chip": "ym2612"
    },
    {
      "channel": 2,
      "note": 87,
      "start": 8.5097,
      "duration": 0.0102,
      "velocity": 108,
      "chip": "ym2612"
    },
    {
      "channel": 5,
      "note": 64,
      "start": 8.5219,
      "duration": 0.124,
      "velocity": 109,
      "chip": "ym2612"
    },
    {
      "channel": 0,
      "note": 48,
      "start": 8.6598,
      "duration": 0.2766,
      "velocity": 109,
      "chip": "ym2612"
    },
    {
      "channel": 5,
      "note": 48,
      "start": 8.673,
      "duration": 0.2767,
      "velocity": 109,
      "chip": "ym2612"
    },
    {
      "channel": 4,
      "note": 87,
      "start": 8.7367,
      "duration": 0.0102,
      "velocity": 108,
      "chip": "ym2612"
    },
    {
      "channel": 3,
      "note": 71,
      "start": 8.8152,
      "duration": 0.0088,
      "velocity": 112,
      "chip": "ym2612"
    },
    {
      "channel": 3,
      "note": 66,
      "start": 8.8888,
      "duration": 0.0102,
      "velocity": 112,
      "chip": "ym2612"
    },
    {
      "channel": 0,
      "note": 48,
      "start": 8.9628,
      "duration": 0.0112,
      "velocity": 109,
      "chip": "ym2612"
    },
    {
      "channel": 3,
      "note": 61,
      "start": 8.9686,
      "duration": 0.0438,
      "velocity": 127,
      "chip": "ym2612"
    },
    {
      "channel": 5,
      "note": 48,
      "start": 8.9766,
      "duration": 0.0106,
      "velocity": 109,
      "chip": "ym2612"
    },
    {
      "channel": 3,
      "note": 61,
      "start": 9.0394,
      "duration": 0.0488,
      "velocity": 127,
      "chip": "ym2612"
    },
    {
      "channel": 0,
      "note": 64,
      "start": 9.1145,
      "duration": 0.1258,
      "velocity": 109,
      "chip": "ym2612"
    },
    {
      "channel": 3,
      "note": 71,
      "start": 9.121,
      "duration": 0.0055,
      "velocity": 112,
      "chip": "ym2612"
    },
    {
      "channel": 5,
      "note": 64,
      "start": 9.1283,
      "duration": 0.1256,
      "velocity": 109,
      "chip": "ym2612"
    },
    {
      "channel": 3,
      "note": 66,
      "start": 9.1913,
      "duration": 0.012,
      "velocity": 112,
      "chip": "ym2612"
    },
    {
      "channel": 0,
      "note": 48,
      "start": 9.2662,
      "duration": 0.0112,
      "velocity": 109,
      "chip": "ym2612"
    },
    {
      "channel": 3,
      "note": 61,
      "start": 9.2728,
      "duration": 0.0429,
      "velocity": 127,
      "chip": "ym2612"
    },
    {
      "channel": 5,
      "note": 48,
      "start": 9.2799,
      "duration": 0.0106,
      "velocity": 109,
      "chip": "ym2612"
    },
    {
      "channel": 3,
      "note": 61,
      "start": 9.3428,
      "duration": 0.0488,
      "velocity": 127,
      "chip": "ym2612"
    },
    {
      "channel": 0,
      "note": 62,
      "start": 9.4179,
      "duration": 0.1249,
      "velocity": 109,
      "chip": "ym2612"
    },
    {
      "channel": 3,
      "note": 71,
      "start": 9.4244,
      "duration": 0.0055,
      "velocity": 112,
      "chip": "ym2612"
    },
    {
      "channel": 5,
      "note": 62,
      "start": 9.4317,
      "duration": 0.1248,
      "velocity": 109,
      "chip": "ym2612"
    },
    {
      "channel": 3,
      "note": 66,
      "start": 9.4947,
      "duration": 0.0111,
      "velocity": 112,
      "chip": "ym2612"
    },
    {
      "channel": 0,
      "note": 48,
      "start": 9.5704,
      "duration": 0.0104,
      "velocity": 109,
      "chip": "ym2612"
    },
    {
      "channel": 3,
      "note": 61,
      "start": 9.5761,
      "duration": 0.0439,
      "velocity": 127,
      "chip": "ym2612"
    },
    {
      "channel": 5,
      "note": 48,
      "start": 9.5833,
      "duration": 0.0106,
      "velocity": 109,
      "chip": "ym2612"
    },
    {
      "channel": 3,
      "note": 61,
      "start": 9.6465,
      "duration": 0.0485,
      "velocity": 127,
      "chip": "ym2612"
    },
    {
      "channel": 0,
      "note": 48,
      "start": 9.7212,
      "duration": 0.0117,
      "velocity": 109,
      "chip": "ym2612"
    },
    {
      "channel": 1,
      "note": 48,
      "start": 9.7229,
      "duration": 0.1234,
      "velocity": 108,
      "chip": "ym2612"
    },
    {
      "channel": 2,
      "note": 87,
      "start": 9.7246,
      "duration": 0.0086,
      "velocity": 108,
      "chip": "ym2612"
    },
    {
      "channel": 3,
      "note": 71,
      "start": 9.7301,
      "duration": 0.0039,
      "velocity": 112,
      "chip": "ym2612"
    },
    {
      "channel": 5,
      "note": 48,
      "start": 9.7366,
      "duration": 0.0094,
      "velocity": 109,
      "chip": "ym2612"
    },
    {
      "channel": 3,
      "note": 71,
      "start": 9.7979,
      "duration": 0.0113,
      "velocity": 112,
      "chip": "ym2612"
    },
    {
      "channel": 0,
      "note": 50,
      "start": 9.8732,
      "duration": 0.289,
      "velocity": 109,
      "chip": "ym2612"
    },
    {
      "channel": 1,
      "note": 50,
      "start": 9.8751,
      "duration": 0.2872,
      "velocity": 108,
      "chip": "ym2612"
    },
    {
      "channel": 2,
      "note": 38,
      "start": 9.8803,
      "duration": 4.8578,
      "velocity": 102,
      "chip": "ym2612"
    },
    {
      "channel": 3,
      "note": 61,
      "start": 9.8867,
      "duration": 0.0497,
      "velocity": 127,
      "chip": "ym2612"
    },
    {
      "channel": 5,
      "note": 50,
      "start": 9.901,
      "duration": 0.2756,
      "velocity": 109,
      "chip": "ym2612"
    },
    {
      "channel": 4,
      "note": 87,
      "start": 9.9628,
      "duration": 0.0111,
      "velocity": 108,
      "chip": "ym2612"
    },
    {
      "channel": 4,
      "note": 38,
      "start": 10.1179,
      "duration": 4.8484,
      "velocity": 102,
      "chip": "ym2612"
    },
    {
      "channel": 0,
      "note": 50,
      "start": 10.1889,
      "duration": 0.0112,
      "velocity": 109,
      "chip": "ym2612"
    },
    {
      "channel": 1,
      "note": 50,
      "start": 10.1907,
      "duration": 0.1232,
      "velocity": 108,
      "chip": "ym2612"
    },
    {
      "channel": 5,
      "note": 50,
      "start": 10.2043,
      "duration": 0.0102,
      "velocity": 109,
      "chip": "ym2612"
    },
    {
      "channel": 0,
      "note": 65,
      "start": 10.3406,
      "duration": 0.1249,
      "velocity": 109,
      "chip": "ym2612"
    },
    {
      "channel": 1,
      "note": 50,
      "start": 10.3424,
      "duration": 0.1233,
      "velocity": 108,
      "chip": "ym2612"
    },
    {
      "channel": 3,
      "note": 61,
      "start": 10.3483,
      "duration": 0.0423,
      "velocity": 127,
      "chip": "ym2612"
    },
    {
      "channel": 5,
      "note": 65,
      "start": 10.3559,
      "duration": 0.1245,
      "velocity": 109,
      "chip": "ym2612"
    },
    {
      "channel": 0,
      "note": 50,
      "start": 10.493,
      "duration": 0.0104,
      "velocity": 109,
      "chip": "ym2612"
    },
    {
      "channel": 1,
      "note": 50,
      "start": 10.4949,
      "duration": 0.1224,
      "velocity": 108,
      "chip": "ym2612"
    },
    {
      "channel": 5,
      "note": 50,
      "start": 10.5068,
      "duration": 0.0111,
      "velocity": 109,
      "chip": "ym2612"
    },
    {
      "channel": 0,
      "note": 64,
      "start": 10.6439,
      "duration": 0.1258,
      "velocity": 109,
      "chip": "ym2612"
    },
    {
      "channel": 1,
      "note": 50,
      "start": 10.6458,
      "duration": 0.1242,
      "velocity": 108,
      "chip": "ym2612"
    },
    {
      "channel": 3,
      "note": 61,
      "start": 10.6528,
      "duration": 0.0412,
      "velocity": 127,
      "chip": "ym2612"
    },
    {
      "channel": 5,
      "note": 64,
      "start": 10.6584,
      "duration": 0.1249,
      "velocity": 109,
      "chip": "ym2612"
    },
    {
      "channel": 0,
      "note": 50,
      "start": 10.7956,
      "duration": 0.0112,
      "velocity": 109,
      "chip": "ym2612"
    },
    {
      "channel": 1,
      "note": 50,
      "start": 10.7974,
      "duration": 0.1233,
      "velocity": 108,
      "chip": "ym2612"
    },
    {
      "channel": 5,
      "note": 50,
      "start": 10.8102,
      "duration": 0.0113,
      "velocity": 109,
      "chip": "ym2612"
    },
    {
      "channel": 0,
      "note": 65,
      "start": 10.9473,
      "duration": 0.1249,
      "velocity": 109,
      "chip": "ym2612"
    },
    {
      "channel": 1,
      "note": 50,
      "start": 10.9491,
      "duration": 0.1234,
      "velocity": 108,
      "chip": "ym2612"
    },
    {
      "channel": 3,
      "note": 61,
      "start": 10.9558,
      "duration": 0.0415,
      "velocity": 127,
      "chip": "ym2612"
    },
    {
      "channel": 5,
      "note": 65,
      "start": 10.9624,
      "duration": 0.1252,
      "velocity": 109,
      "chip": "ym2612"
    },
    {
      "channel": 0,
      "note": 50,
      "start": 11.0993,
      "duration": 0.2764,
      "velocity": 109,
      "chip": "ym2612"
    },
    {
      "channel": 1,
      "note": 50,
      "start": 11.1014,
      "duration": 0.2745,
      "velocity": 108,
      "chip": "ym2612"
    },
    {
      "channel": 5,
      "note": 50,
      "start": 11.1152,
      "duration": 0.2749,
      "velocity": 109,
      "chip": "ym2612"
    },
    {
      "channel": 3,
      "note": 61,
      "start": 11.2561,
      "duration": 0.0446,
      "velocity": 127,
      "chip": "ym2612"
    },
    {
      "channel": 0,
      "note": 50,
      "start": 11.4032,
      "duration": 0.0104,
      "velocity": 109,
      "chip": "ym2612"
    },
    {
      "channel": 1,
      "note": 50,
      "start": 11.405,
      "duration": 0.1224,
      "velocity": 108,
      "chip": "ym2612"
    },
    {
      "channel": 5,
      "note": 50,
      "start": 11.417,
      "duration": 0.0111,
      "velocity": 109,
      "chip": "ym2612"
    },
    {
      "channel": 0,
      "note": 65,
      "start": 11.5545,
      "duration": 0.1245,
      "velocity": 109,
      "chip": "ym2612"
    },
    {
      "channel": 1,
      "note": 50,
      "start": 11.5563,
      "duration": 0.1228,
      "velocity": 108,
      "chip": "ym2612"
    },
    {
      "channel": 3,
      "note": 61,
      "start": 11.5621,
      "duration": 0.0419,
      "velocity": 127,
      "chip": "ym2612"
    },
    {
      "channel": 5,
      "note": 65,
      "start": 11.5686,
      "duration": 0.1249,
      "velocity": 109,
      "chip": "ym2612"
    },
    {
      "channel": 0,
      "note": 50,
      "start": 11.7058,
      "duration": 0.0112,
      "velocity": 109,
      "chip": "ym2612"
    },
    {
      "channel": 1,
      "note": 50,
      "start": 11.7075,
      "duration": 0.1232,
      "velocity": 108,
      "chip": "ym2612"
    },
    {
      "channel": 5,
      "note": 50,
      "start": 11.7212,
      "duration": 0.0107,
      "velocity": 109,
      "chip": "ym2612"
    },
    {
      "channel": 0,
      "note": 64,
      "start": 11.8574,
      "duration": 0.1249,
      "velocity": 109,
      "chip": "ym2612"
    },
    {
      "channel": 1,
      "note": 50,
      "start": 11.8592,
      "duration": 0.1234,
      "velocity": 108,
      "chip": "ym2612"
    },
    {
      "channel": 3,
      "note": 61,
      "start": 11.8656,
      "duration": 0.0417,
      "velocity": 127,
      "chip": "ym2612"
    },
    {
      "channel": 5,
      "note": 64,
      "start": 11.8729,
      "duration": 0.124,
      "velocity": 109,
      "chip": "ym2612"
    },
    {
      "channel": 0,
      "note": 50,
      "start": 12.0091,
      "duration": 0.0111,
      "velocity": 109,
      "chip": "ym2612"
    },
    {
      "channel": 1,
      "note": 50,
      "start": 12.0109,
      "duration": 0.1233,
      "velocity": 108,
      "chip": "ym2612"
    },
    {
      "channel": 5,
      "note": 50,
      "start": 12.0237,
      "duration": 0.0111,
      "velocity": 109,
      "chip": "ym2612"
    },
    {
      "channel": 0,
      "note": 65,
      "start": 12.1615,
      "duration": 0.1368,
      "velocity": 109,
      "chip": "ym2612"
    },
    {
      "channel": 1,
      "note": 50,
      "start": 12.1634,
      "duration": 0.1352,
      "velocity": 108,
      "chip": "ym2612"
    },
    {
      "channel": 3,
      "note": 61,
      "start": 12.17,
      "duration": 0.0534,
      "velocity": 127,
      "chip": "ym2612"
    },
    {
      "channel": 5,
      "note": 65,
      "start": 12.1888,
      "duration": 0.1241,
      "velocity": 109,
      "chip": "ym2612"
    },
    {
      "channel": 0,
      "note": 50,
      "start": 12.3254,
      "duration": 0.2764,
      "velocity": 109,
      "chip": "ym2612"
    },
    {
      "channel": 1,
      "note": 50,
      "start": 12.3274,
      "duration": 0.2745,
      "velocity": 108,
      "chip": "ym2612"
    },
    {
      "channel": 5,
      "note": 50,
      "start": 12.3415,
      "duration": 0.2739,
      "velocity": 109,
      "chip": "ym2612"
    },
    {
      "channel": 3,
      "note": 61,
      "start": 12.4809,
      "duration": 0.0454,
      "velocity": 127,
      "chip": "ym2612"
    },
    {
      "channel": 0,
      "note": 50,
      "start": 12.6285,
      "duration": 0.0112,
      "velocity": 109,
      "chip": "ym2612"
    },
    {
      "channel": 1,
      "note": 50,
      "start": 12.6303,
      "duration": 0.1232,
      "velocity": 108,
      "chip": "ym2612"
    },
    {
      "channel": 5,
      "note": 50,
      "start": 12.6422,
      "duration": 0.0118,
      "velocity": 109,
      "chip": "ym2612"
    },
    {
      "channel": 0,
      "note": 65,
      "start": 12.7801,
      "duration": 0.125,
      "velocity": 109,
      "chip": "ym2612"
    },
    {
      "channel": 1,
      "note": 50,
      "start": 12.782,
      "duration": 0.1233,
      "velocity": 108,
      "chip": "ym2612"
    },
    {
      "channel": 3,
      "note": 61,
      "start": 12.7882,
      "duration": 0.0415,
      "velocity": 127,
      "chip": "ym2612"
    },
    {
      "channel": 5,
      "note": 65,
      "start": 12.7938,
      "duration": 0.1258,
      "velocity": 109,
      "chip": "ym2612"
    },
    {
      "channel": 0,
      "note": 50,
      "start": 12.9318,
      "duration": 0.0111,
      "velocity": 109,
      "chip": "ym2612"
    },
    {
      "channel": 1,
      "note": 50,
      "start": 12.9336,
      "duration": 0.1233,
      "velocity": 108,
      "chip": "ym2612"
    },
    {
      "channel": 5,
      "note": 50,
      "start": 12.9455,
      "duration": 0.0111,
      "velocity": 109,
      "chip": "ym2612"
    },
    {
      "channel": 0,
      "note": 64,
      "start": 13.0835,
      "duration": 0.1249,
      "velocity": 109,
      "chip": "ym2612"
    },
    {
      "channel": 1,
      "note": 50,
      "start": 13.0853,
      "duration": 0.1233,
      "velocity": 108,
      "chip": "ym2612"
    },
    {
      "channel": 3,
      "note": 61,
      "start": 13.0921,
      "duration": 0.0409,
      "velocity": 127,
      "chip": "ym2612"
    },
    {
      "channel": 5,
      "note": 64,
      "start": 13.0972,
      "duration": 0.1249,
      "velocity": 109,
      "chip": "ym2612"
    },
    {
      "channel": 0,
      "note": 50,
      "start": 13.2351,
      "duration": 0.0112,
      "velocity": 109,
      "chip": "ym2612"
    },
    {
      "channel": 1,
      "note": 50,
      "start": 13.2378,
      "duration": 0.1224,
      "velocity": 108,
      "chip": "ym2612"
    },
    {
      "channel": 5,
      "note": 50,
      "start": 13.249,
      "duration": 0.0111,
      "velocity": 109,
      "chip": "ym2612"
    },
    {
      "channel": 0,
      "note": 65,
      "start": 13.3878,
      "duration": 0.124,
      "velocity": 109,
      "chip": "ym2612"
    },
    {
      "channel": 1,
      "note": 50,
      "start": 13.3896,
      "duration": 0.1224,
      "velocity": 108,
      "chip": "ym2612"
    },
    {
      "channel": 3,
      "note": 61,
      "start": 13.3949,
      "duration": 0.0419,
      "velocity": 127,
      "chip": "ym2612"
    },
    {
      "channel": 5,
      "note": 65,
      "start": 13.4011,
      "duration": 0.1243,
      "velocity": 109,
      "chip": "ym2612"
    },
    {
      "channel": 0,
      "note": 50,
      "start": 13.5388,
      "duration": 0.2767,
      "velocity": 109,
      "chip": "ym2612"
    },
    {
      "channel": 1,
      "note": 50,
      "start": 13.5409,
      "duration": 0.2749,
      "velocity": 108,
      "chip": "ym2612"
    },
    {
      "channel": 5,
      "note": 50,
      "start": 13.5549,
      "duration": 0.2747,
      "velocity": 109,
      "chip": "ym2612"
    },
    {
      "channel": 3,
      "note": 61,
      "start": 13.6943,
      "duration": 0.0454,
      "velocity": 127,
      "chip": "ym2612"
    },
    {
      "channel": 0,
      "note": 50,
      "start": 13.8419,
      "duration": 0.0112,
      "velocity": 109,
      "chip": "ym2612"
    },
    {
      "channel": 1,
      "note": 50,
      "start": 13.8437,
      "duration": 0.1232,
      "velocity": 108,
      "chip": "ym2612"
    },
    {
      "channel": 5,
      "note": 50,
      "start": 13.8556,
      "duration": 0.0111,
      "velocity": 109,
      "chip": "ym2612"
    },
    {
      "channel": 0,
      "note": 65,
      "start": 13.9936,
      "duration": 0.1249,
      "velocity": 109,
      "chip": "ym2612"
    },
    {
      "channel": 1,
      "note": 50,
      "start": 13.9954,
      "duration": 0.1242,
      "velocity": 108,
      "chip": "ym2612"
    },
    {
      "channel": 3,
      "note": 61,
      "start": 14.0008,
      "duration": 0.0423,
      "velocity": 127,
      "chip": "ym2612"
    },
    {
      "channel": 5,
      "note": 65,
      "start": 14.0073,
      "duration": 0.1249,
      "velocity": 109,
      "chip": "ym2612"
    },
    {
      "channel": 0,
      "note": 50,
      "start": 14.1453,
      "duration": 0.0112,
      "velocity": 109,
      "chip": "ym2612"
    },
    {
      "channel": 1,
      "note": 50,
      "start": 14.147,
      "duration": 0.1233,
      "velocity": 108,
      "chip": "ym2612"
    },
    {
      "channel": 5,
      "note": 50,
      "start": 14.159,
      "duration": 0.0117,
      "velocity": 109,
      "chip": "ym2612"
    },
    {
      "channel": 0,
      "note": 64,
      "start": 14.297,
      "duration": 0.1249,
      "velocity": 109,
      "chip": "ym2612"
    },
    {
      "channel": 1,
      "note": 50,
      "start": 14.2988,
      "duration": 0.1234,
      "velocity": 108,
      "chip": "ym2612"
    },
    {
      "channel": 3,
      "note": 61,
      "start": 14.3054,
      "duration": 0.041,
      "velocity": 127,
      "chip": "ym2612"
    },
    {
      "channel": 5,
      "note": 64,
      "start": 14.3107,
      "duration": 0.1258,
      "velocity": 109,
      "chip": "ym2612"
    },
    {
      "channel": 0,
      "note": 62,
      "start": 14.4486,
      "duration": 0.0112,
      "velocity": 109,
      "chip": "ym2612"
    },
    {
      "channel": 1,
      "note": 50,
      "start": 14.4505,
      "duration": 0.1232,
      "velocity": 108,
      "chip": "ym2612"
    },
    {
      "channel": 5,
      "note": 62,
      "start": 14.4624,
      "duration": 0.0111,
      "velocity": 109,
      "chip": "ym2612"
    },
    {
      "channel": 0,
      "note": 56,
      "start": 14.6003,
      "duration": 0.0112,
      "velocity": 109,
      "chip": "ym2612"
    },
    {
      "channel": 1,
      "note": 44,
      "start": 14.6029,
      "duration": 0.1224,
      "velocity": 108,
      "chip": "ym2612"
    },
    {
      "channel": 3,
      "note": 61,
      "start": 14.6083,
      "duration": 0.042,
      "velocity": 127,
      "chip": "ym2612"
    },
    {
      "channel": 5,
      "note": 56,
      "start": 14.614,
      "duration": 0.0107,
      "velocity": 109,
      "chip": "ym2612"
    },
    {
      "channel": 0,
      "note": 46,
      "start": 14.7531,
      "duration": 0.2756,
      "velocity": 109,
      "chip": "ym2612"
    },
    {
      "channel": 1,
      "note": 46,
      "start": 14.7551,
      "duration": 0.2738,
      "velocity": 108,
      "chip": "ym2612"
    },
    {
      "channel": 2,
      "note": 74,
      "start": 14.7571,
      "duration": 0.4235,
      "velocity": 102,
      "chip": "ym2612"
    },
    {
      "channel": 3,
      "note": 61,
      "start": 14.7592,
      "duration": 0.0424,
      "velocity": 127,
      "chip": "ym2612"
    },
    {
      "channel": 5,
      "note": 46,
      "start": 14.7659,
      "duration": 0.2763,
      "velocity": 109,
      "chip": "ym2612"
    },
    {
      "channel": 4,
      "note": 74,
      "start": 14.9807,
      "duration": 0.428,
      "velocity": 102,
      "chip": "ym2612"
    },
    {
      "channel": 0,
      "note": 46,
      "start": 15.0555,
      "duration": 0.0115,
      "velocity": 109,
      "chip": "ym2612"
    },
    {
      "channel": 1,
      "note": 46,
      "start": 15.0573,
      "duration": 0.1231,
      "velocity": 108,
      "chip": "ym2612"
    },
    {
      "channel": 3,
      "note": 61,
      "start": 15.0627,
      "duration": 0.0422,
      "velocity": 127,
      "chip": "ym2612"
    },
    {
      "channel": 5,
      "note": 46,
      "start": 15.0705,
      "duration": 0.0102,
      "velocity": 109,
      "chip": "ym2612"
    },
    {
      "channel": 0,
      "note": 62,
      "start": 15.207,
      "duration": 0.1249,
      "velocity": 109,
      "chip": "ym2612"
    },
    {
      "channel": 1,
      "note": 46,
      "start": 15.2089,
      "duration": 0.1233,
      "velocity": 108,
      "chip": "ym2612"
    },
    {
      "channel": 2,
      "note": 77,
      "start": 15.2107,
      "duration": 0.1217,
      "velocity": 102,
      "chip": "ym2612"
    },
    {
      "channel": 3,
      "note": 61,
      "start": 15.216,
      "duration": 0.0406,
      "velocity": 127,
      "chip": "ym2612"
    },
    {
      "channel": 5,
      "note": 62,
      "start": 15.2215,
      "duration": 0.1241,
      "velocity": 109,
      "chip": "ym2612"
    },
    {
      "channel": 0,
      "note": 46,
      "start": 15.3588,
      "duration": 0.0112,
      "velocity": 109,
      "chip": "ym2612"
    },
    {
      "channel": 1,
      "note": 46,
      "start": 15.3605,
      "duration": 0.1237,
      "velocity": 108,
      "chip": "ym2612"
    },
    {
      "channel": 2,
      "note": 74,
      "start": 15.3624,
      "duration": 0.2742,
      "velocity": 102,
      "chip": "ym2612"
    },
    {
      "channel": 5,
      "note": 46,
      "start": 15.3725,
      "duration": 0.0111,
      "velocity": 109,
      "chip": "ym2612"
    },
    {
      "channel": 4,
      "note": 77,
      "start": 15.4363,
      "duration": 0.1238,
      "velocity": 102,
      "chip": "ym2612"
    },
    {
      "channel": 0,
      "note": 60,
      "start": 15.5104,
      "duration": 0.1258,
      "velocity": 109,
      "chip": "ym2612"
    },
    {
      "channel": 1,
      "note": 46,
      "start": 15.5122,
      "duration": 0.1242,
      "velocity": 108,
      "chip": "ym2612"
    },
    {
      "channel": 3,
      "note": 61,
      "start": 15.5181,
      "duration": 0.0419,
      "velocity": 127,
      "chip": "ym2612"
    },
    {
      "channel": 5,
      "note": 60,
      "start": 15.5241,
      "duration": 0.1249,
      "velocity": 109,
      "chip": "ym2612"
    },
    {
      "channel": 4,
      "note": 74,
      "start": 15.588,
      "duration": 0.2755,
      "velocity": 102,
      "chip": "ym2612"
    },
    {
      "channel": 0,
      "note": 46,
      "start": 15.6621,
      "duration": 0.0111,
      "velocity": 109,
      "chip": "ym2612"
    },
    {
      "channel": 1,
      "note": 46,
      "start": 15.6639,
      "duration": 0.1232,
      "velocity": 108,
      "chip": "ym2612"
    },
    {
      "channel": 2,
      "note": 77,
      "start": 15.6657,
      "duration": 0.2735,
      "velocity": 102,
      "chip": "ym2612"
    },
    {
      "channel": 5,
      "note": 46,
      "start": 15.6759,
      "duration": 0.0115,
      "velocity": 109,
      "chip": "ym2612"
    },
    {
      "channel": 0,
      "note": 62,
      "start": 15.8138,
      "duration": 0.1249,
      "velocity": 109,
      "chip": "ym2612"
    },
    {
      "channel": 1,
      "note": 46,
      "start": 15.8156,
      "duration": 0.1233,
      "velocity": 108,
      "chip": "ym2612"
    },
    {
      "channel": 3,
      "note": 61,
      "start": 15.8218,
      "duration": 0.0415,
      "velocity": 127,
      "chip": "ym2612"
    },
    {
      "channel": 5,
      "note": 62,
      "start": 15.8274,
      "duration": 0.1258,
      "velocity": 109,
      "chip": "ym2612"
    },
    {
      "channel": 4,
      "note": 77,
      "start": 15.8907,
      "duration": 0.2762,
      "velocity": 102,
      "chip": "ym2612"
    },
    {
      "channel": 0,
      "note": 46,
      "start": 15.9657,
      "duration": 0.2763,
      "velocity": 109,
      "chip": "ym2612"
    },
    {
      "channel": 1,
      "note": 46,
      "start": 15.9678,
      "duration": 0.2745,
      "velocity": 108,
      "chip": "ym2612"
    },
    {
      "channel": 2,
      "note": 74,
      "start": 15.9705,
      "duration": 1.1834,
      "velocity": 102,
      "chip": "ym2612"
    },
    {
      "channel": 5,
      "note": 46,
      "start": 15.9794,
      "duration": 0.2763,
      "velocity": 109,
      "chip": "ym2612"
    },
    {
      "channel": 3,
      "note": 61,
      "start": 16.122,
      "duration": 0.0446,
      "velocity": 127,
      "chip": "ym2612"
    },
    {
      "channel": 4,
      "note": 74,
      "start": 16.1939,
      "duration": 1.1866,
      "velocity": 102,
      "chip": "ym2612"
    },
    {
      "channel": 0,
      "note": 46,
      "start": 16.2696,
      "duration": 0.0104,
      "velocity": 109,
      "chip": "ym2612"
    },
    {
      "channel": 1,
      "note": 46,
      "start": 16.2715,
      "duration": 0.1224,
      "velocity": 108,
      "chip": "ym2612"
    },
    {
      "channel": 5,
      "note": 46,
      "start": 16.2825,
      "duration": 0.0111,
      "velocity": 109,
      "chip": "ym2612"
    },
    {
      "channel": 0,
      "note": 62,
      "start": 16.4212,
      "duration": 0.1243,
      "velocity": 109,
      "chip": "ym2612"
    },
    {
      "channel": 1,
      "note": 46,
      "start": 16.4229,
      "duration": 0.1227,
      "velocity": 108,
      "chip": "ym2612"
    },
    {
      "channel": 3,
      "note": 61,
      "start": 16.4283,
      "duration": 0.0419,
      "velocity": 127,
      "chip": "ym2612"
    },
    {
      "channel": 5,
      "note": 62,
      "start": 16.4343,
      "duration": 0.1248,
      "velocity": 109,
      "chip": "ym2612"
    },
    {
      "channel": 0,
      "note": 46,
      "start": 16.5722,
      "duration": 0.0112,
      "velocity": 109,
      "chip": "ym2612"
    },
    {
      "channel": 1,
      "note": 46,
      "start": 16.5739,
      "duration": 0.1233,
      "velocity": 108,
      "chip": "ym2612"
    },
    {
      "channel": 5,
      "note": 46,
      "start": 16.5867,
      "duration": 0.0102,
      "velocity": 109,
      "chip": "ym2612"
    },
    {
      "channel": 0,
      "note": 60,
      "start": 16.7239,
      "duration": 0.1249,
      "velocity": 109,
      "chip": "ym2612"
    },
    {
      "channel": 1,
      "note": 46,
      "start": 16.7257,
      "duration": 0.1233,
      "velocity": 108,
      "chip": "ym2612"
    },
    {
      "channel": 3,
      "note": 61,
      "start": 16.7316,
      "duration": 0.0418,
      "velocity": 127,
      "chip": "ym2612"
    },
    {
      "channel": 5,
      "note": 60,
      "start": 16.739,
      "duration": 0.1235,
      "velocity": 109,
      "chip": "ym2612"
    },
    {
      "channel": 0,
      "note": 46,
      "start": 16.8755,
      "duration": 0.0112,
      "velocity": 109,
      "chip": "ym2612"
    },
    {
      "channel": 1,
      "note": 46,
      "start": 16.8773,
      "duration": 0.1232,
      "velocity": 108,
      "chip": "ym2612"
    },
    {
      "channel": 5,
      "note": 46,
      "start": 16.8893,
      "duration": 0.0111,
      "velocity": 109,
      "chip": "ym2612"
    },
    {
      "channel": 0,
      "note": 46,
      "start": 17.0272,
      "duration": 0.0112,
      "velocity": 109,
      "chip": "ym2612"
    },
    {
      "channel": 1,
      "note": 46,
      "start": 17.029,
      "duration": 0.1247,
      "velocity": 108,
      "chip": "ym2612"
    },
    {
      "channel": 3,
      "note": 61,
      "start": 17.0344,
      "duration": 0.0424,
      "velocity": 127,
      "chip": "ym2612"
    },
    {
      "channel": 5,
      "note": 46,
      "start": 17.0409,
      "duration": 0.0107,
      "velocity": 109,
      "chip": "ym2612"
    },
    {
      "channel": 0,
      "note": 48,
      "start": 17.1792,
      "duration": 0.2763,
      "velocity": 109,
      "chip": "ym2612"
    },
    {
      "channel": 1,
      "note": 48,
      "start": 17.1813,
      "duration": 0.2744,
      "velocity": 108,
      "chip": "ym2612"
    },
    {
      "channel": 2,
      "note": 72,
      "start": 17.1831,
      "duration": 0.7277,
      "velocity": 102,
      "chip": "ym2612"
    },
    {
      "channel": 3,
      "note": 61,
      "start": 17.1852,
      "duration": 0.0432,
      "velocity": 127,
      "chip": "ym2612"
    },
    {
      "channel": 5,
      "note": 48,
      "start": 17.1928,
      "duration": 0.2772,
      "velocity": 109,
      "chip": "ym2612"
    },
    {
      "channel": 4,
      "note": 72,
      "start": 17.4074,
      "duration": 0.7317,
      "velocity": 102,
      "chip": "ym2612"
    },
    {
      "channel": 0,
      "note": 48,
      "start": 17.4822,
      "duration": 0.0112,
      "velocity": 109,
      "chip": "ym2612"
    },
    {
      "channel": 1,
      "note": 48,
      "start": 17.4841,
      "duration": 0.1232,
      "velocity": 108,
      "chip": "ym2612"
    },
    {
      "channel": 3,
      "note": 61,
      "start": 17.4903,
      "duration": 0.0415,
      "velocity": 127,
      "chip": "ym2612"
    },
    {
      "channel": 5,
      "note": 48,
      "start": 17.496,
      "duration": 0.0106,
      "velocity": 109,
      "chip": "ym2612"
    },
    {
      "channel": 0,
      "note": 64,
      "start": 17.6339,
      "duration": 0.1249,
      "velocity": 109,
      "chip": "ym2612"
    },
    {
      "channel": 1,
      "note": 48,
      "start": 17.6366,
      "duration": 0.1225,
      "velocity": 108,
      "chip": "ym2612"
    },
    {
      "channel": 3,
      "note": 61,
      "start": 17.642,
      "duration": 0.0415,
      "velocity": 127,
      "chip": "ym2612"
    },
    {
      "channel": 5,
      "note": 64,
      "start": 17.6477,
      "duration": 0.1249,
      "velocity": 109,
      "chip": "ym2612"
    },
    {
      "channel": 0,
      "note": 48,
      "start": 17.7864,
      "duration": 0.0104,
      "velocity": 109,
      "chip": "ym2612"
    },
    {
      "channel": 1,
      "note": 48,
      "start": 17.7883,
      "duration": 0.1224,
      "velocity": 108,
      "chip": "ym2612"
    },
    {
      "channel": 5,
      "note": 48,
      "start": 17.7993,
      "duration": 0.0111,
      "velocity": 109,
      "chip": "ym2612"
    },
    {
      "channel": 0,
      "note": 62,
      "start": 17.9378,
      "duration": 0.1244,
      "velocity": 109,
      "chip": "ym2612"
    },
    {
      "channel": 1,
      "note": 48,
      "start": 17.9397,
      "duration": 0.1228,
      "velocity": 108,
      "chip": "ym2612"
    },
    {
      "channel": 2,
      "note": 74,
      "start": 17.9415,
      "duration": 0.0461,
      "velocity": 102,
      "chip": "ym2612"
    },
    {
      "channel": 3,
      "note": 61,
      "start": 17.9472,
      "duration": 0.0407,
      "velocity": 127,
      "chip": "ym2612"
    },
    {
      "channel": 5,
      "note": 62,
      "start": 17.9519,
      "duration": 0.124,
      "velocity": 109,
      "chip": "ym2612"
    },
    {
      "channel": 2,
      "note": 76,
      "start": 18.0135,
      "duration": 0.0492,
      "velocity": 102,
      "chip": "ym2612"
    },
    {
      "channel": 0,
      "note": 48,
      "start": 18.089,
      "duration": 0.0112,
      "velocity": 109,
      "chip": "ym2612"
    },
    {
      "channel": 1,
      "note": 48,
      "start": 18.0908,
      "duration": 0.1232,
      "velocity": 108,
      "chip": "ym2612"
    },
    {
      "channel": 2,
      "note": 77,
      "start": 18.0926,
      "duration": 0.0457,
      "velocity": 102,
      "chip": "ym2612"
    },
    {
      "channel": 5,
      "note": 48,
      "start": 18.1036,
      "duration": 0.0102,
      "velocity": 109,
      "chip": "ym2612"
    },
    {
      "channel": 2,
      "note": 76,
      "start": 18.1652,
      "duration": 0.0491,
      "velocity": 102,
      "chip": "ym2612"
    },
    {
      "channel": 4,
      "note": 74,
      "start": 18.1675,
      "duration": 0.0475,
      "velocity": 102,
      "chip": "ym2612"
    },
    {
      "channel": 0,
      "note": 64,
      "start": 18.2407,
      "duration": 0.1376,
      "velocity": 109,
      "chip": "ym2612"
    },
    {
      "channel": 1,
      "note": 48,
      "start": 18.2425,
      "duration": 0.136,
      "velocity": 108,
      "chip": "ym2612"
    },
    {
      "channel": 2,
      "note": 77,
      "start": 18.2443,
      "duration": 0.059,
      "velocity": 102,
      "chip": "ym2612"
    },
    {
      "channel": 3,
      "note": 61,
      "start": 18.2496,
      "duration": 0.054,
      "velocity": 127,
      "chip": "ym2612"
    },
    {
      "channel": 4,
      "note": 76,
      "start": 18.2513,
      "duration": 0.0525,
      "velocity": 102,
      "chip": "ym2612"
    },
    {
      "channel": 5,
      "note": 64,
      "start": 18.267,
      "duration": 0.1251,
      "velocity": 109,
      "chip": "ym2612"
    },
    {
      "channel": 2,
      "note": 79,
      "start": 18.3295,
      "duration": 0.0493,
      "velocity": 102,
      "chip": "ym2612"
    },
    {
      "channel": 4,
      "note": 77,
      "start": 18.3318,
      "duration": 0.0476,
      "velocity": 102,
      "chip": "ym2612"
    },
    {
      "channel": 0,
      "note": 48,
      "start": 18.4058,
      "duration": 0.2758,
      "velocity": 109,
      "chip": "ym2612"
    },
    {
      "channel": 1,
      "note": 48,
      "start": 18.4078,
      "duration": 0.274,
      "velocity": 108,
      "chip": "ym2612"
    },
    {
      "channel": 2,
      "note": 77,
      "start": 18.4096,
      "duration": 0.0446,
      "velocity": 102,
      "chip": "ym2612"
    },
    {
      "channel": 4,
      "note": 76,
      "start": 18.4119,
      "duration": 0.0432,
      "velocity": 102,
      "chip": "ym2612"
    },
    {
      "channel": 5,
      "note": 48,
      "start": 18.4208,
      "duration": 0.2744,
      "velocity": 109,
      "chip": "ym2612"
    },
    {
      "channel": 2,
      "note": 79,
      "start": 18.4812,
      "duration": 0.049,
      "velocity": 102,
      "chip": "ym2612"
    },
    {
      "channel": 4,
      "note": 77,
      "start": 18.4834,
      "duration": 0.0475,
      "velocity": 102,
      "chip": "ym2612"
    },
    {
      "channel": 2,
      "note": 81,
      "start": 18.557,
      "duration": 0.125,
      "velocity": 102,
      "chip": "ym2612"
    },
    {
      "channel": 3,
      "note": 61,
      "start": 18.5625,
      "duration": 0.0437,
      "velocity": 127,
      "chip": "ym2612"
    },
    {
      "channel": 4,
      "note": 79,
      "start": 18.5642,
      "duration": 0.0422,
      "velocity": 102,
      "chip": "ym2612"
    },
    {
      "channel": 4,
      "note": 77,
      "start": 18.6334,
      "duration": 0.0494,
      "velocity": 102,
      "chip": "ym2612"
    },
    {
      "channel": 0,
      "note": 48,
      "start": 18.7083,
      "duration": 0.0114,
      "velocity": 109,
      "chip": "ym2612"
    },
    {
      "channel": 1,
      "note": 48,
      "start": 18.7101,
      "duration": 0.1242,
      "velocity": 108,
      "chip": "ym2612"
    },
    {
      "channel": 2,
      "note": 79,
      "start": 18.712,
      "duration": 0.0457,
      "velocity": 102,
      "chip": "ym2612"
    },
    {
      "channel": 4,
      "note": 79,
      "start": 18.7142,
      "duration": 0.0442,
      "velocity": 102,
      "chip": "ym2612"
    },
    {
      "channel": 5,
      "note": 48,
      "start": 18.7223,
      "duration": 0.0109,
      "velocity": 109,
      "chip": "ym2612"
    },
    {
      "channel": 2,
      "note": 81,
      "start": 18.7846,
      "duration": 0.0499,
      "velocity": 102,
      "chip": "ym2612"
    },
    {
      "channel": 4,
      "note": 81,
      "start": 18.7877,
      "duration": 0.1221,
      "velocity": 102,
      "chip": "ym2612"
    },
    {
      "channel": 0,
      "note": 64,
      "start": 18.86,
      "duration": 0.1249,
      "velocity": 109,
      "chip": "ym2612"
    },
    {
      "channel": 1,
      "note": 48,
      "start": 18.8619,
      "duration": 0.1233,
      "velocity": 108,
      "chip": "ym2612"
    },
    {
      "channel": 2,
      "note": 82,
      "start": 18.8637,
      "duration": 0.1225,
      "velocity": 102,
      "chip": "ym2612"
    },
    {
      "channel": 3,
      "note": 61,
      "start": 18.8698,
      "duration": 0.0398,
      "velocity": 127,
      "chip": "ym2612"
    },
    {
      "channel": 5,
      "note": 64,
      "start": 18.8743,
      "duration": 0.1244,
      "velocity": 109,
      "chip": "ym2612"
    },
    {
      "channel": 4,
      "note": 79,
      "start": 18.9377,
      "duration": 0.0493,
      "velocity": 102,
      "chip": "ym2612"
    },
    {
      "channel": 0,
      "note": 48,
      "start": 19.0117,
      "duration": 0.0112,
      "velocity": 109,
      "chip": "ym2612"
    },
    {
      "channel": 1,
      "note": 48,
      "start": 19.0135,
      "duration": 0.1232,
      "velocity": 108,
      "chip": "ym2612"
    },
    {
      "channel": 2,
      "note": 81,
      "start": 19.0154,
      "duration": 0.0457,
      "velocity": 102,
      "chip": "ym2612"
    },
    {
      "channel": 4,
      "note": 81,
      "start": 19.0176,
      "duration": 0.0442,
      "velocity": 102,
      "chip": "ym2612"
    },
    {
      "channel": 5,
      "note": 48,
      "start": 19.0255,
      "duration": 0.0119,
      "velocity": 109,
      "chip": "ym2612"
    },
    {
      "channel": 2,
      "note": 82,
      "start": 19.0882,
      "duration": 0.5039,
      "velocity": 102,
      "chip": "ym2612"
    },
    {
      "channel": 4,
      "note": 82,
      "start": 19.0905,
      "duration": 0.1233,
      "velocity": 102,
      "chip": "ym2612"
    },
    {
      "channel": 0,
      "note": 62,
      "start": 19.1634,
      "duration": 0.1249,
      "velocity": 109,
      "chip": "ym2612"
    },
    {
      "channel": 1,
      "note": 48,
      "start": 19.1652,
      "duration": 0.1234,
      "velocity": 108,
      "chip": "ym2612"
    },
    {
      "channel": 3,
      "note": 76,
      "start": 19.1736,
      "duration": 0.0031,
      "velocity": 112,
      "chip": "ym2612"
    },
    {
      "channel": 5,
      "note": 62,
      "start": 19.1785,
      "duration": 0.1242,
      "velocity": 109,
      "chip": "ym2612"
    },
    {
      "channel": 3,
      "note": 76,
      "start": 19.241,
      "duration": 0.0126,
      "velocity": 112,
      "chip": "ym2612"
    },
    {
      "channel": 4,
      "note": 81,
      "start": 19.2427,
      "duration": 0.0467,
      "velocity": 102,
      "chip": "ym2612"
    },
    {
      "channel": 0,
      "note": 48,
      "start": 19.315,
      "duration": 0.0112,
      "velocity": 109,
      "chip": "ym2612"
    },
    {
      "channel": 1,
      "note": 48,
      "start": 19.3169,
      "duration": 0.1232,
      "velocity": 108,
      "chip": "ym2612"
    },
    {
      "channel": 3,
      "note": 71,
      "start": 19.3202,
      "duration": 0.0071,
      "velocity": 112,
      "chip": "ym2612"
    },
    {
      "channel": 4,
      "note": 82,
      "start": 19.3219,
      "duration": 0.5108,
      "velocity": 102,
      "chip": "ym2612"
    },
    {
      "channel": 5,
      "note": 48,
      "start": 19.329,
      "duration": 0.0109,
      "velocity": 109,
      "chip": "ym2612"
    },
    {
      "channel": 3,
      "note": 71,
      "start": 19.3917,
      "duration": 0.0122,
      "velocity": 112,
      "chip": "ym2612"
    },
    {
      "channel": 0,
      "note": 48,
      "start": 19.4667,
      "duration": 0.0113,
      "velocity": 109,
      "chip": "ym2612"
    },
    {
      "channel": 1,
      "note": 48,
      "start": 19.4685,
      "duration": 0.1233,
      "velocity": 108,
      "chip": "ym2612"
    },
    {
      "channel": 3,
      "note": 66,
      "start": 19.4718,
      "duration": 0.0071,
      "velocity": 112,
      "chip": "ym2612"
    },
    {
      "channel": 5,
      "note": 48,
      "start": 19.4811,
      "duration": 0.011,
      "velocity": 109,
      "chip": "ym2612"
    },
    {
      "channel": 3,
      "note": 66,
      "start": 19.5434,
      "duration": 0.0114,
      "velocity": 112,
      "chip": "ym2612"
    },
    {
      "channel": 0,
      "note": 62,
      "start": 19.6196,
      "duration": 0.2881,
      "velocity": 109,
      "chip": "ym2612"
    },
    {
      "channel": 1,
      "note": 50,
      "start": 19.6217,
      "duration": 0.2863,
      "velocity": 108,
      "chip": "ym2612"
    },
    {
      "channel": 2,
      "note": 81,
      "start": 19.6269,
      "duration": 1.0395,
      "velocity": 102,
      "chip": "ym2612"
    },
    {
      "channel": 3,
      "note": 61,
      "start": 19.6328,
      "duration": 0.0478,
      "velocity": 127,
      "chip": "ym2612"
    },
    {
      "channel": 5,
      "note": 62,
      "start": 19.6451,
      "duration": 0.2762,
      "velocity": 109,
      "chip": "ym2612"
    },
    {
      "channel": 4,
      "note": 81,
      "start": 19.8629,
      "duration": 1.0447,
      "velocity": 102,
      "chip": "ym2612"
    },
    {
      "channel": 0,
      "note": 50,
      "start": 19.9346,
      "duration": 0.0111,
      "velocity": 109,
      "chip": "ym2612"
    },
    {
      "channel": 1,
      "note": 50,
      "start": 19.9372,
      "duration": 0.1223,
      "velocity": 108,
      "chip": "ym2612"
    },
    {
      "channel": 5,
      "note": 50,
      "start": 19.9483,
      "duration": 0.0109,
      "velocity": 109,
      "chip": "ym2612"
    },
    {
      "channel": 0,
      "note": 50,
      "start": 20.0881,
      "duration": 0.0092,
      "velocity": 109,
      "chip": "ym2612"
    },
    {
      "channel": 1,
      "note": 50,
      "start": 20.0898,
      "duration": 0.1213,
      "velocity": 108,
      "chip": "ym2612"
    },
    {
      "channel": 3,
      "note": 61,
      "start": 20.0953,
      "duration": 0.0413,
      "velocity": 127,
      "chip": "ym2612"
    },
    {
      "channel": 5,
      "note": 50,
      "start": 20.1001,
      "duration": 0.0105,
      "velocity": 109,
      "chip": "ym2612"
    },
    {
      "channel": 0,
      "note": 50,
      "start": 20.238,
      "duration": 0.011,
      "velocity": 109,
      "chip": "ym2612"
    },
    {
      "channel": 1,
      "note": 50,
      "start": 20.2398,
      "duration": 0.123,
      "velocity": 108,
      "chip": "ym2612"
    },
    {
      "channel": 5,
      "note": 50,
      "start": 20.2517,
      "duration": 0.011,
      "velocity": 109,
      "chip": "ym2612"
    },
    {
      "channel": 0,
      "note": 50,
      "start": 20.3896,
      "duration": 0.0111,
      "velocity": 109,
      "chip": "ym2612"
    },
    {
      "channel": 1,
      "note": 50,
      "start": 20.3914,
      "duration": 0.1232,
      "velocity": 108,
      "chip": "ym2612"
    },
    {
      "channel": 3,
      "note": 61,
      "start": 20.3972,
      "duration": 0.0418,
      "velocity": 127,
      "chip": "ym2612"
    },
    {
      "channel": 5,
      "note": 50,
      "start": 20.4042,
      "duration": 0.0097,
      "velocity": 109,
      "chip": "ym2612"
    },
    {
      "channel": 0,
      "note": 50,
      "start": 20.5412,
      "duration": 0.0118,
      "velocity": 109,
      "chip": "ym2612"
    },
    {
      "channel": 1,
      "note": 50,
      "start": 20.5431,
      "duration": 0.1231,
      "velocity": 108,
      "chip": "ym2612"
    },
    {
      "channel": 5,
      "note": 50,
      "start": 20.5558,
      "duration": 0.0102,
      "velocity": 109,
      "chip": "ym2612"
    },
    {
      "channel": 0,
      "note": 50,
      "start": 20.693,
      "duration": 0.0237,
      "velocity": 109,
      "chip": "ym2612"
    },
    {
      "channel": 1,
      "note": 50,
      "start": 20.6947,
      "duration": 0.1358,
      "velocity": 108,
      "chip": "ym2612"
    },
    {
      "channel": 2,
      "note": 79,
      "start": 20.6966,
      "duration": 0.1341,
      "velocity": 102,
      "chip": "ym2612"
    },
    {
      "channel": 3,
      "note": 61,
      "start": 20.7019,
      "duration": 0.0531,
      "velocity": 127,
      "chip": "ym2612"
    },
    {
      "channel": 5,
      "note": 50,
      "start": 20.7202,
      "duration": 0.0097,
      "velocity": 109,
      "chip": "ym2612"
    },
    {
      "channel": 0,
      "note": 62,
      "start": 20.8576,
      "duration": 0.2762,
      "velocity": 109,
      "chip": "ym2612"
    },
    {
      "channel": 1,
      "note": 50,
      "start": 20.8596,
      "duration": 0.2744,
      "velocity": 108,
      "chip": "ym2612"
    },
    {
      "channel": 2,
      "note": 77,
      "start": 20.8615,
      "duration": 0.1209,
      "velocity": 102,
      "chip": "ym2612"
    },
    {
      "channel": 5,
      "note": 62,
      "start": 20.8721,
      "duration": 0.2753,
      "velocity": 109,
      "chip": "ym2612"
    },
    {
      "channel": 4,
      "note": 79,
      "start": 20.934,
      "duration": 0.1246,
      "velocity": 102,
      "chip": "ym2612"
    },
    {
      "channel": 2,
      "note": 81,
      "start": 21.0092,
      "duration": 0.1251,
      "velocity": 102,
      "chip": "ym2612"
    },
    {
      "channel": 3,
      "note": 61,
      "start": 21.0146,
      "duration": 0.0438,
      "velocity": 127,
      "chip": "ym2612"
    },
    {
      "channel": 4,
      "note": 77,
      "start": 21.0865,
      "duration": 0.124,
      "velocity": 102,
      "chip": "ym2612"
    },
    {
      "channel": 0,
      "note": 50,
      "start": 21.1607,
      "duration": 0.0111,
      "velocity": 109,
      "chip": "ym2612"
    },
    {
      "channel": 1,
      "note": 50,
      "start": 21.1625,
      "duration": 0.124,
      "velocity": 108,
      "chip": "ym2612"
    },
    {
      "channel": 2,
      "note": 79,
      "start": 21.1643,
      "duration": 0.1224,
      "velocity": 102,
      "chip": "ym2612"
    },
    {
      "channel": 5,
      "note": 50,
      "start": 21.1744,
      "duration": 0.0118,
      "velocity": 109,
      "chip": "ym2612"
    },
    {
      "channel": 4,
      "note": 81,
      "start": 21.2381,
      "duration": 0.1239,
      "velocity": 102,
      "chip": "ym2612"
    },
    {
      "channel": 0,
      "note": 50,
      "start": 21.3125,
      "duration": 0.0117,
      "velocity": 109,
      "chip": "ym2612"
    },
    {
      "channel": 1,
      "note": 50,
      "start": 21.3144,
      "duration": 0.1229,
      "velocity": 108,
      "chip": "ym2612"
    },
    {
      "channel": 2,
      "note": 77,
      "start": 21.3161,
      "duration": 0.1214,
      "velocity": 102,
      "chip": "ym2612"
    },
    {
      "channel": 3,
      "note": 61,
      "start": 21.3222,
      "duration": 0.0395,
      "velocity": 127,
      "chip": "ym2612"
    },
    {
      "channel": 5,
      "note": 50,
      "start": 21.3269,
      "duration": 0.011,
      "velocity": 109,
      "chip": "ym2612"
    },
    {
      "channel": 4,
      "note": 79,
      "start": 21.389,
      "duration": 0.1249,
      "velocity": 102,
      "chip": "ym2612"
    },
    {
      "channel": 0,
      "note": 50,
      "start": 21.464,
      "duration": 0.011,
      "velocity": 109,
      "chip": "ym2612"
    },
    {
      "channel": 1,
      "note": 50,
      "start": 21.4658,
      "duration": 0.1231,
      "velocity": 108,
      "chip": "ym2612"
    },
    {
      "channel": 2,
      "note": 74,
      "start": 21.4676,
      "duration": 0.7281,
      "velocity": 102,
      "chip": "ym2612"
    },
    {
      "channel": 5,
      "note": 50,
      "start": 21.4778,
      "duration": 0.011,
      "velocity": 109,
      "chip": "ym2612"
    },
    {
      "channel": 4,
      "note": 77,
      "start": 21.5407,
      "duration": 0.1246,
      "velocity": 102,
      "chip": "ym2612"
    },
    {
      "channel": 0,
      "note": 50,
      "start": 21.6157,
      "duration": 0.0111,
      "velocity": 109,
      "chip": "ym2612"
    },
    {
      "channel": 1,
      "note": 50,
      "start": 21.6175,
      "duration": 0.1236,
      "velocity": 108,
      "chip": "ym2612"
    },
    {
      "channel": 3,
      "note": 61,
      "start": 21.6243,
      "duration": 0.0408,
      "velocity": 127,
      "chip": "ym2612"
    },
    {
      "channel": 5,
      "note": 50,
      "start": 21.6295,
      "duration": 0.0105,
      "velocity": 109,
      "chip": "ym2612"
    },
    {
      "channel": 4,
      "note": 74,
      "start": 21.6924,
      "duration": 0.7315,
      "velocity": 102,
      "chip": "ym2612"
    },
    {
      "channel": 0,
      "note": 50,
      "start": 21.7674,
      "duration": 0.0111,
      "velocity": 109,
      "chip": "ym2612"
    },
    {
      "channel": 1,
      "note": 50,
      "start": 21.77,
      "duration": 0.1223,
      "velocity": 108,
      "chip": "ym2612"
    },
    {
      "channel": 5,
      "note": 50,
      "start": 21.7811,
      "duration": 0.011,
      "velocity": 109,
      "chip": "ym2612"
    },
    {
      "channel": 0,
      "note": 50,
      "start": 21.9199,
      "duration": 0.0102,
      "velocity": 109,
      "chip": "ym2612"
    },
    {
      "channel": 1,
      "note": 50,
      "start": 21.9217,
      "duration": 0.1223,
      "velocity": 108,
      "chip": "ym2612"
    },
    {
      "channel": 3,
      "note": 61,
      "start": 21.9271,
      "duration": 0.0414,
      "velocity": 127,
      "chip": "ym2612"
    },
    {
      "channel": 5,
      "note": 50,
      "start": 21.9329,
      "duration": 0.0106,
      "velocity": 109,
      "chip": "ym2612"
    },
    {
      "channel": 0,
      "note": 62,
      "start": 22.0716,
      "duration": 0.2756,
      "velocity": 109,
      "chip": "ym2612"
    },
    {
      "channel": 1,
      "note": 50,
      "start": 22.0737,
      "duration": 0.2737,
      "velocity": 108,
      "chip": "ym2612"
    },
    {
      "channel": 5,
      "note": 62,
      "start": 22.0847,
      "duration": 0.2761,
      "velocity": 109,
      "chip": "ym2612"
    },
    {
      "channel": 2,
      "note": 81,
      "start": 22.2226,
      "duration": 0.7317,
      "velocity": 102,
      "chip": "ym2612"
    },
    {
      "channel": 3,
      "note": 61,
      "start": 22.2281,
      "duration": 0.0438,
      "velocity": 127,
      "chip": "ym2612"
    },
    {
      "channel": 0,
      "note": 50,
      "start": 22.3741,
      "duration": 0.011,
      "velocity": 109,
      "chip": "ym2612"
    },
    {
      "channel": 1,
      "note": 50,
      "start": 22.3759,
      "duration": 0.1231,
      "velocity": 108,
      "chip": "ym2612"
    },
    {
      "channel": 5,
      "note": 50,
      "start": 22.3888,
      "duration": 0.01,
      "velocity": 109,
      "chip": "ym2612"
    },
    {
      "channel": 4,
      "note": 81,
      "start": 22.4507,
      "duration": 0.7314,
      "velocity": 102,
      "chip": "ym2612"
    },
    {
      "channel": 0,
      "note": 50,
      "start": 22.5258,
      "duration": 0.0112,
      "velocity": 109,
      "chip": "ym2612"
    },
    {
      "channel": 1,
      "note": 50,
      "start": 22.5276,
      "duration": 0.1231,
      "velocity": 108,
      "chip": "ym2612"
    },
    {
      "channel": 3,
      "note": 61,
      "start": 22.533,
      "duration": 0.0427,
      "velocity": 127,
      "chip": "ym2612"
    },
    {
      "channel": 5,
      "note": 50,
      "start": 22.5398,
      "duration": 0.0102,
      "velocity": 109,
      "chip": "ym2612"
    },
    {
      "channel": 0,
      "note": 50,
      "start": 22.6774,
      "duration": 0.0111,
      "velocity": 109,
      "chip": "ym2612"
    },
    {
      "channel": 1,
      "note": 50,
      "start": 22.6793,
      "duration": 0.1239,
      "velocity": 108,
      "chip": "ym2612"
    },
    {
      "channel": 5,
      "note": 50,
      "start": 22.6912,
      "duration": 0.0119,
      "velocity": 109,
      "chip": "ym2612"
    },
    {
      "channel": 0,
      "note": 50,
      "start": 22.8292,
      "duration": 0.0111,
      "velocity": 109,
      "chip": "ym2612"
    },
    {
      "channel": 1,
      "note": 50,
      "start": 22.831,
      "duration": 0.1232,
      "velocity": 108,
      "chip": "ym2612"
    },
    {
      "channel": 3,
      "note": 61,
      "start": 22.8378,
      "duration": 0.0408,
      "velocity": 127,
      "chip": "ym2612"
    },
    {
      "channel": 5,
      "note": 50,
      "start": 22.8429,
      "duration": 0.0107,
      "velocity": 109,
      "chip": "ym2612"
    },
    {
      "channel": 0,
      "note": 50,
      "start": 22.981,
      "duration": 0.0119,
      "velocity": 109,
      "chip": "ym2612"
    },
    {
      "channel": 1,
      "note": 50,
      "start": 22.9827,
      "duration": 0.123,
      "velocity": 108,
      "chip": "ym2612"
    },
    {
      "channel": 2,
      "note": 84,
      "start": 22.9846,
      "duration": 0.1214,
      "velocity": 102,
      "chip": "ym2612"
    },
    {
      "channel": 5,
      "note": 50,
      "start": 22.9955,
      "duration": 0.0109,
      "velocity": 109,
      "chip": "ym2612"
    },
    {
      "channel": 0,
      "note": 50,
      "start": 23.1325,
      "duration": 0.011,
      "velocity": 109,
      "chip": "ym2612"
    },
    {
      "channel": 1,
      "note": 50,
      "start": 23.1343,
      "duration": 0.1231,
      "velocity": 108,
      "chip": "ym2612"
    },
    {
      "channel": 3,
      "note": 61,
      "start": 23.1405,
      "duration": 0.0414,
      "velocity": 127,
      "chip": "ym2612"
    },
    {
      "channel": 5,
      "note": 50,
      "start": 23.1463,
      "duration": 0.0105,
      "velocity": 109,
      "chip": "ym2612"
    },
    {
      "channel": 4,
      "note": 84,
      "start": 23.2092,
      "duration": 0.1249,
      "velocity": 102,
      "chip": "ym2612"
    },
    {
      "channel": 0,
      "note": 62,
      "start": 23.2844,
      "duration": 0.2762,
      "velocity": 109,
      "chip": "ym2612"
    },
    {
      "channel": 1,
      "note": 50,
      "start": 23.2874,
      "duration": 0.2735,
      "velocity": 108,
      "chip": "ym2612"
    },
    {
      "channel": 2,
      "note": 81,
      "start": 23.2892,
      "duration": 0.7268,
      "velocity": 102,
      "chip": "ym2612"
    },
    {
      "channel": 5,
      "note": 62,
      "start": 23.2981,
      "duration": 0.2762,
      "velocity": 109,
      "chip": "ym2612"
    },
    {
      "channel": 3,
      "note": 61,
      "start": 23.4407,
      "duration": 0.0446,
      "velocity": 127,
      "chip": "ym2612"
    },
    {
      "channel": 4,
      "note": 81,
      "start": 23.5126,
      "duration": 0.7319,
      "velocity": 102,
      "chip": "ym2612"
    },
    {
      "channel": 0,
      "note": 50,
      "start": 23.588,
      "duration": 0.0106,
      "velocity": 109,
      "chip": "ym2612"
    },
    {
      "channel": 1,
      "note": 50,
      "start": 23.5898,
      "duration": 0.1227,
      "velocity": 108,
      "chip": "ym2612"
    },
    {
      "channel": 5,
      "note": 50,
      "start": 23.6013,
      "duration": 0.011,
      "velocity": 109,
      "chip": "ym2612"
    },
    {
      "channel": 0,
      "note": 50,
      "start": 23.7392,
      "duration": 0.0111,
      "velocity": 109,
      "chip": "ym2612"
    },
    {
      "channel": 1,
      "note": 50,
      "start": 23.741,
      "duration": 0.1232,
      "velocity": 108,
      "chip": "ym2612"
    },
    {
      "channel": 3,
      "note": 61,
      "start": 23.7464,
      "duration": 0.0423,
      "velocity": 127,
      "chip": "ym2612"
    },
    {
      "channel": 5,
      "note": 50,
      "start": 23.7539,
      "duration": 0.0097,
      "velocity": 109,
      "chip": "ym2612"
    },
    {
      "channel": 0,
      "note": 50,
      "start": 23.8909,
      "duration": 0.011,
      "velocity": 109,
      "chip": "ym2612"
    },
    {
      "channel": 1,
      "note": 50,
      "start": 23.8927,
      "duration": 0.1231,
      "velocity": 108,
      "chip": "ym2612"
    },
    {
      "channel": 5,
      "note": 50,
      "start": 23.9054,
      "duration": 0.0102,
      "velocity": 109,
      "chip": "ym2612"
    },
    {
      "channel": 0,
      "note": 62,
      "start": 24.0426,
      "duration": 0.4282,
      "velocity": 109,
      "chip": "ym2612"
    },
    {
      "channel": 1,
      "note": 50,
      "start": 24.0444,
      "duration": 0.1231,
      "velocity": 108,
      "chip": "ym2612"
    },
    {
      "channel": 2,
      "note": 81,
      "start": 24.0462,
      "duration": 0.425,
      "velocity": 102,
      "chip": "ym2612"
    },
    {
      "channel": 3,
      "note": 61,
      "start": 24.052,
      "duration": 0.0401,
      "velocity": 127,
      "chip": "ym2612"
    },
    {
      "channel": 5,
      "note": 62,
      "start": 24.0577,
      "duration": 0.4267,
      "velocity": 109,
      "chip": "ym2612"
    },
    {
      "channel": 1,
      "note": 50,
      "start": 24.1944,
      "duration": 0.1254,
      "velocity": 108,
      "chip": "ym2612"
    },
    {
      "channel": 3,
      "note": 61,
      "start": 24.1998,
      "duration": 0.0445,
      "velocity": 127,
      "chip": "ym2612"
    },
    {
      "channel": 4,
      "note": 81,
      "start": 24.2718,
      "duration": 0.4274,
      "velocity": 102,
      "chip": "ym2612"
    },
    {
      "channel": 1,
      "note": 44,
      "start": 24.346,
      "duration": 0.1249,
      "velocity": 108,
      "chip": "ym2612"
    },
    {
      "channel": 3,
      "note": 61,
      "start": 24.3483,
      "duration": 0.0471,
      "velocity": 127,
      "chip": "ym2612"
    },
    {
      "channel": 0,
      "note": 58,
      "start": 24.4978,
      "duration": 0.2763,
      "velocity": 109,
      "chip": "ym2612"
    },
    {
      "channel": 1,
      "note": 46,
      "start": 24.4997,
      "duration": 0.2746,
      "velocity": 108,
      "chip": "ym2612"
    },
    {
      "channel": 2,
      "note": 77,
      "start": 24.5016,
      "duration": 0.8796,
      "velocity": 102,
      "chip": "ym2612"
    },
    {
      "channel": 3,
      "note": 61,
      "start": 24.5077,
      "duration": 0.0393,
      "velocity": 127,
      "chip": "ym2612"
    },
    {
      "channel": 5,
      "note": 58,
      "start": 24.5124,
      "duration": 0.2754,
      "velocity": 109,
      "chip": "ym2612"
    },
    {
      "channel": 4,
      "note": 77,
      "start": 24.726,
      "duration": 0.8957,
      "velocity": 102,
      "chip": "ym2612"
    },
    {
      "channel": 0,
      "note": 46,
      "start": 24.801,
      "duration": 0.011,
      "velocity": 109,
      "chip": "ym2612"
    },
    {
      "channel": 1,
      "note": 46,
      "start": 24.8037,
      "duration": 0.1223,
      "velocity": 108,
      "chip": "ym2612"
    },
    {
      "channel": 3,
      "note": 61,
      "start": 24.8059,
      "duration": 0.0445,
      "velocity": 127,
      "chip": "ym2612"
    },
    {
      "channel": 5,
      "note": 46,
      "start": 24.8148,
      "duration": 0.0105,
      "velocity": 109,
      "chip": "ym2612"
    },
    {
      "channel": 0,
      "note": 46,
      "start": 24.9535,
      "duration": 0.0102,
      "velocity": 109,
      "chip": "ym2612"
    },
    {
      "channel": 1,
      "note": 46,
      "start": 24.9553,
      "duration": 0.1228,
      "velocity": 108,
      "chip": "ym2612"
    },
    {
      "channel": 3,
      "note": 61,
      "start": 24.9608,
      "duration": 0.0422,
      "velocity": 127,
      "chip": "ym2612"
    },
    {
      "channel": 5,
      "note": 46,
      "start": 24.9665,
      "duration": 0.0105,
      "velocity": 109,
      "chip": "ym2612"
    },
    {
      "channel": 0,
      "note": 46,
      "start": 25.1046,
      "duration": 0.0108,
      "velocity": 109,
      "chip": "ym2612"
    },
    {
      "channel": 1,
      "note": 46,
      "start": 25.1065,
      "duration": 0.1228,
      "velocity": 108,
      "chip": "ym2612"
    },
    {
      "channel": 5,
      "note": 46,
      "start": 25.1181,
      "duration": 0.011,
      "velocity": 109,
      "chip": "ym2612"
    },
    {
      "channel": 0,
      "note": 46,
      "start": 25.2561,
      "duration": 0.011,
      "velocity": 109,
      "chip": "ym2612"
    },
    {
      "channel": 1,
      "note": 46,
      "start": 25.2578,
      "duration": 0.1231,
      "velocity": 108,
      "chip": "ym2612"
    },
    {
      "channel": 3,
      "note": 61,
      "start": 25.2637,
      "duration": 0.0417,
      "velocity": 127,
      "chip": "ym2612"
    },
    {
      "channel": 5,
      "note": 46,
      "start": 25.2706,
      "duration": 0.0097,
      "velocity": 109,
      "chip": "ym2612"
    },
    {
      "channel": 0,
      "note": 46,
      "start": 25.4077,
      "duration": 0.012,
      "velocity": 109,
      "chip": "ym2612"
    },
    {
      "channel": 1,
      "note": 46,
      "start": 25.4095,
      "duration": 0.1231,
      "velocity": 108,
      "chip": "ym2612"
    },
    {
      "channel": 2,
      "note": 76,
      "start": 25.4114,
      "duration": 0.1215,
      "velocity": 102,
      "chip": "ym2612"
    },
    {
      "channel": 5,
      "note": 46,
      "start": 25.4224,
      "duration": 0.01,
      "velocity": 109,
      "chip": "ym2612"
    },
    {
      "channel": 0,
      "note": 46,
      "start": 25.5594,
      "duration": 0.0237,
      "velocity": 109,
      "chip": "ym2612"
    },
    {
      "channel": 1,
      "note": 46,
      "start": 25.5612,
      "duration": 0.1358,
      "velocity": 108,
      "chip": "ym2612"
    },
    {
      "channel": 2,
      "note": 74,
      "start": 25.563,
      "duration": 0.1342,
      "velocity": 102,
      "chip": "ym2612"
    },
    {
      "channel": 3,
      "note": 61,
      "start": 25.5683,
      "duration": 0.0532,
      "velocity": 127,
      "chip": "ym2612"
    },
    {
      "channel": 5,
      "note": 46,
      "start": 25.5866,
      "duration": 0.0098,
      "velocity": 109,
      "chip": "ym2612"
    },
    {
      "channel": 4,
      "note": 76,
      "start": 25.6487,
      "duration": 0.1249,
      "velocity": 102,
      "chip": "ym2612"
    },
    {
      "channel": 0,
      "note": 58,
      "start": 25.724,
      "duration": 0.2762,
      "velocity": 109,
      "chip": "ym2612"
    },
    {
      "channel": 1,
      "note": 46,
      "start": 25.7261,
      "duration": 0.2744,
      "velocity": 108,
      "chip": "ym2612"
    },
    {
      "channel": 2,
      "note": 77,
      "start": 25.7279,
      "duration": 0.2728,
      "velocity": 102,
      "chip": "ym2612"
    },
    {
      "channel": 5,
      "note": 58,
      "start": 25.7385,
      "duration": 0.2753,
      "velocity": 109,
      "chip": "ym2612"
    },
    {
      "channel": 4,
      "note": 74,
      "start": 25.8004,
      "duration": 0.1255,
      "velocity": 102,
      "chip": "ym2612"
    },
    {
      "channel": 3,
      "note": 61,
      "start": 25.8794,
      "duration": 0.0463,
      "velocity": 127,
      "chip": "ym2612"
    },
    {
      "channel": 4,
      "note": 77,
      "start": 25.9529,
      "duration": 0.2755,
      "velocity": 102,
      "chip": "ym2612"
    },
    {
      "channel": 0,
      "note": 46,
      "start": 26.0271,
      "duration": 0.011,
      "velocity": 109,
      "chip": "ym2612"
    },
    {
      "channel": 1,
      "note": 46,
      "start": 26.0289,
      "duration": 0.1239,
      "velocity": 108,
      "chip": "ym2612"
    },
    {
      "channel": 2,
      "note": 76,
      "start": 26.0309,
      "duration": 0.1222,
      "velocity": 102,
      "chip": "ym2612"
    },
    {
      "channel": 5,
      "note": 46,
      "start": 26.0409,
      "duration": 0.011,
      "velocity": 109,
      "chip": "ym2612"
    },
    {
      "channel": 0,
      "note": 46,
      "start": 26.1788,
      "duration": 0.0117,
      "velocity": 109,
      "chip": "ym2612"
    },
    {
      "channel": 1,
      "note": 46,
      "start": 26.1806,
      "duration": 0.1235,
      "velocity": 108,
      "chip": "ym2612"
    },
    {
      "channel": 2,
      "note": 74,
      "start": 26.1823,
      "duration": 0.122,
      "velocity": 102,
      "chip": "ym2612"
    },
    {
      "channel": 3,
      "note": 61,
      "start": 26.1885,
      "duration": 0.0397,
      "velocity": 127,
      "chip": "ym2612"
    },
    {
      "channel": 5,
      "note": 46,
      "start": 26.1931,
      "duration": 0.0105,
      "velocity": 109,
      "chip": "ym2612"
    },
    {
      "channel": 4,
      "note": 76,
      "start": 26.2556,
      "duration": 0.1247,
      "velocity": 102,
      "chip": "ym2612"
    },
    {
      "channel": 0,
      "note": 46,
      "start": 26.331,
      "duration": 0.0116,
      "velocity": 109,
      "chip": "ym2612"
    },
    {
      "channel": 1,
      "note": 46,
      "start": 26.3327,
      "duration": 0.1227,
      "velocity": 108,
      "chip": "ym2612"
    },
    {
      "channel": 2,
      "note": 77,
      "start": 26.3346,
      "duration": 0.121,
      "velocity": 102,
      "chip": "ym2612"
    },
    {
      "channel": 5,
      "note": 46,
      "start": 26.3453,
      "duration": 0.0099,
      "velocity": 109,
      "chip": "ym2612"
    },
    {
      "channel": 4,
      "note": 74,
      "start": 26.4071,
      "duration": 0.1373,
      "velocity": 102,
      "chip": "ym2612"
    },
    {
      "channel": 0,
      "note": 46,
      "start": 26.4821,
      "duration": 0.0237,
      "velocity": 109,
      "chip": "ym2612"
    },
    {
      "channel": 1,
      "note": 46,
      "start": 26.4839,
      "duration": 0.1359,
      "velocity": 108,
      "chip": "ym2612"
    },
    {
      "channel": 2,
      "note": 76,
      "start": 26.4867,
      "duration": 0.1333,
      "velocity": 102,
      "chip": "ym2612"
    },
    {
      "channel": 3,
      "note": 61,
      "start": 26.4925,
      "duration": 0.0517,
      "velocity": 127,
      "chip": "ym2612"
    },
    {
      "channel": 5,
      "note": 46,
      "start": 26.5085,
      "duration": 0.0114,
      "velocity": 109,
      "chip": "ym2612"
    },
    {
      "channel": 4,
      "note": 77,
      "start": 26.5721,
      "duration": 0.1242,
      "velocity": 102,
      "chip": "ym2612"
    },
    {
      "channel": 0,
      "note": 46,
      "start": 26.6465,
      "duration": 0.011,
      "velocity": 109,
      "chip": "ym2612"
    },
    {
      "channel": 1,
      "note": 46,
      "start": 26.6483,
      "duration": 0.1231,
      "velocity": 108,
      "chip": "ym2612"
    },
    {
      "channel": 2,
      "note": 74,
      "start": 26.65,
      "duration": 0.1216,
      "velocity": 102,
      "chip": "ym2612"
    },
    {
      "channel": 5,
      "note": 46,
      "start": 26.6602,
      "duration": 0.011,
      "velocity": 109,
      "chip": "ym2612"
    },
    {
      "channel": 4,
      "note": 76,
      "start": 26.7232,
      "duration": 0.1372,
      "velocity": 102,
      "chip": "ym2612"
    },
    {
      "channel": 0,
      "note": 46,
      "start": 26.7981,
      "duration": 0.0237,
      "velocity": 109,
      "chip": "ym2612"
    },
    {
      "channel": 1,
      "note": 46,
      "start": 26.7999,
      "duration": 0.1366,
      "velocity": 108,
      "chip": "ym2612"
    },
    {
      "channel": 2,
      "note": 77,
      "start": 26.8017,
      "duration": 0.135,
      "velocity": 102,
      "chip": "ym2612"
    },
    {
      "channel": 3,
      "note": 61,
      "start": 26.8078,
      "duration": 0.0524,
      "velocity": 127,
      "chip": "ym2612"
    },
    {
      "channel": 5,
      "note": 46,
      "start": 26.8245,
      "duration": 0.0106,
      "velocity": 109,
      "chip": "ym2612"
    },
    {
      "channel": 4,
      "note": 74,
      "start": 26.8883,
      "duration": 0.1238,
      "velocity": 102,
      "chip": "ym2612"
    },
    {
      "channel": 0,
      "note": 60,
      "start": 26.9627,
      "duration": 0.2762,
      "velocity": 109,
      "chip": "ym2612"
    },
    {
      "channel": 1,
      "note": 48,
      "start": 26.9648,
      "duration": 0.2744,
      "velocity": 108,
      "chip": "ym2612"
    },
    {
      "channel": 2,
      "note": 79,
      "start": 26.9668,
      "duration": 0.8793,
      "velocity": 102,
      "chip": "ym2612"
    },
    {
      "channel": 3,
      "note": 61,
      "start": 26.9697,
      "duration": 0.0422,
      "velocity": 127,
      "chip": "ym2612"
    },
    {
      "channel": 5,
      "note": 60,
      "start": 26.9764,
      "duration": 0.277,
      "velocity": 109,
      "chip": "ym2612"
    },
    {
      "channel": 4,
      "note": 77,
      "start": 27.0391,
      "duration": 0.1254,
      "velocity": 102,
      "chip": "ym2612"
    },
    {
      "channel": 4,
      "note": 79,
      "start": 27.1909,
      "duration": 0.8829,
      "velocity": 102,
      "chip": "ym2612"
    },
    {
      "channel": 0,
      "note": 48,
      "start": 27.2658,
      "duration": 0.0111,
      "velocity": 109,
      "chip": "ym2612"
    },
    {
      "channel": 1,
      "note": 48,
      "start": 27.2676,
      "duration": 0.1231,
      "velocity": 108,
      "chip": "ym2612"
    },
    {
      "channel": 3,
      "note": 61,
      "start": 27.2739,
      "duration": 0.0414,
      "velocity": 127,
      "chip": "ym2612"
    },
    {
      "channel": 5,
      "note": 48,
      "start": 27.2796,
      "duration": 0.0105,
      "velocity": 109,
      "chip": "ym2612"
    },
    {
      "channel": 0,
      "note": 48,
      "start": 27.4175,
      "duration": 0.0111,
      "velocity": 109,
      "chip": "ym2612"
    },
    {
      "channel": 1,
      "note": 48,
      "start": 27.4201,
      "duration": 0.1223,
      "velocity": 108,
      "chip": "ym2612"
    },
    {
      "channel": 3,
      "note": 61,
      "start": 27.4255,
      "duration": 0.0414,
      "velocity": 127,
      "chip": "ym2612"
    },
    {
      "channel": 5,
      "note": 48,
      "start": 27.4313,
      "duration": 0.0105,
      "velocity": 109,
      "chip": "ym2612"
    },
    {
      "channel": 0,
      "note": 48,
      "start": 27.5701,
      "duration": 0.0106,
      "velocity": 109,
      "chip": "ym2612"
    },
    {
      "channel": 1,
      "note": 48,
      "start": 27.5719,
      "duration": 0.1222,
      "velocity": 108,
      "chip": "ym2612"
    },
    {
      "channel": 5,
      "note": 48,
      "start": 27.5834,
      "duration": 0.0113,
      "velocity": 109,
      "chip": "ym2612"
    },
    {
      "channel": 0,
      "note": 48,
      "start": 27.7213,
      "duration": 0.0106,
      "velocity": 109,
      "chip": "ym2612"
    },
    {
      "channel": 1,
      "note": 48,
      "start": 27.7231,
      "duration": 0.1226,
      "velocity": 108,
      "chip": "ym2612"
    },
    {
      "channel": 3,
      "note": 61,
      "start": 27.729,
      "duration": 0.0413,
      "velocity": 127,
      "chip": "ym2612"
    },
    {
      "channel": 5,
      "note": 48,
      "start": 27.7346,
      "duration": 0.0105,
      "velocity": 109,
      "chip": "ym2612"
    },
    {
      "channel": 0,
      "note": 48,
      "start": 27.8725,
      "duration": 0.011,
      "velocity": 109,
      "chip": "ym2612"
    },
    {
      "channel": 1,
      "note": 48,
      "start": 27.8743,
      "duration": 0.1237,
      "velocity": 108,
      "chip": "ym2612"
    },
    {
      "channel": 2,
      "note": 77,
      "start": 27.8762,
      "duration": 0.1221,
      "velocity": 102,
      "chip": "ym2612"
    },
    {
      "channel": 5,
      "note": 48,
      "start": 27.8871,
      "duration": 0.0101,
      "velocity": 109,
      "chip": "ym2612"
    },
    {
      "channel": 0,
      "note": 48,
      "start": 28.0242,
      "duration": 0.0129,
      "velocity": 109,
      "chip": "ym2612"
    },
    {
      "channel": 1,
      "note": 48,
      "start": 28.026,
      "duration": 0.1232,
      "velocity": 108,
      "chip": "ym2612"
    },
    {
      "channel": 2,
      "note": 76,
      "start": 28.0278,
      "duration": 0.1216,
      "velocity": 102,
      "chip": "ym2612"
    },
    {
      "channel": 3,
      "note": 61,
      "start": 28.0331,
      "duration": 0.0405,
      "velocity": 127,
      "chip": "ym2612"
    },
    {
      "channel": 5,
      "note": 48,
      "start": 28.0398,
      "duration": 0.0087,
      "velocity": 109,
      "chip": "ym2612"
    },
    {
      "channel": 4,
      "note": 77,
      "start": 28.1009,
      "duration": 0.1249,
      "velocity": 102,
      "chip": "ym2612"
    },
    {
      "channel": 0,
      "note": 64,
      "start": 28.1762,
      "duration": 0.2768,
      "velocity": 109,
      "chip": "ym2612"
    },
    {
      "channel": 1,
      "note": 48,
      "start": 28.1783,
      "duration": 0.2749,
      "velocity": 108,
      "chip": "ym2612"
    },
    {
      "channel": 2,
      "note": 79,
      "start": 28.18,
      "duration": 0.2734,
      "velocity": 102,
      "chip": "ym2612"
    },
    {
      "channel": 5,
      "note": 64,
      "start": 28.1898,
      "duration": 0.2762,
      "velocity": 109,
      "chip": "ym2612"
    },
    {
      "channel": 4,
      "note": 76,
      "start": 28.2534,
      "duration": 0.1238,
      "velocity": 102,
      "chip": "ym2612"
    },
    {
      "channel": 3,
      "note": 61,
      "start": 28.3316,
      "duration": 0.0454,
      "velocity": 127,
      "chip": "ym2612"
    },
    {
      "channel": 4,
      "note": 79,
      "start": 28.4053,
      "duration": 0.2753,
      "velocity": 102,
      "chip": "ym2612"
    },
    {
      "channel": 0,
      "note": 62,
      "start": 28.4791,
      "duration": 0.125,
      "velocity": 109,
      "chip": "ym2612"
    },
    {
      "channel": 1,
      "note": 48,
      "start": 28.481,
      "duration": 0.1233,
      "velocity": 108,
      "chip": "ym2612"
    },
    {
      "channel": 2,
      "note": 77,
      "start": 28.4828,
      "duration": 0.1218,
      "velocity": 102,
      "chip": "ym2612"
    },
    {
      "channel": 5,
      "note": 62,
      "start": 28.4928,
      "duration": 0.1249,
      "velocity": 109,
      "chip": "ym2612"
    },
    {
      "channel": 0,
      "note": 60,
      "start": 28.6308,
      "duration": 0.1249,
      "velocity": 109,
      "chip": "ym2612"
    },
    {
      "channel": 1,
      "note": 48,
      "start": 28.6326,
      "duration": 0.1233,
      "velocity": 108,
      "chip": "ym2612"
    },
    {
      "channel": 2,
      "note": 76,
      "start": 28.6344,
      "duration": 0.1218,
      "velocity": 102,
      "chip": "ym2612"
    },
    {
      "channel": 3,
      "note": 61,
      "start": 28.6405,
      "duration": 0.0399,
      "velocity": 127,
      "chip": "ym2612"
    },
    {
      "channel": 5,
      "note": 60,
      "start": 28.6449,
      "duration": 0.1254,
      "velocity": 109,
      "chip": "ym2612"
    },
    {
      "channel": 4,
      "note": 77,
      "start": 28.7077,
      "duration": 0.1254,
      "velocity": 102,
      "chip": "ym2612"
    },
    {
      "channel": 0,
      "note": 58,
      "start": 28.7825,
      "duration": 0.125,
      "velocity": 109,
      "chip": "ym2612"
    },
    {
      "channel": 1,
      "note": 48,
      "start": 28.7843,
      "duration": 0.1234,
      "velocity": 108,
      "chip": "ym2612"
    },
    {
      "channel": 2,
      "note": 74,
      "start": 28.7869,
      "duration": 0.1209,
      "velocity": 102,
      "chip": "ym2612"
    },
    {
      "channel": 5,
      "note": 58,
      "start": 28.7961,
      "duration": 0.1249,
      "velocity": 109,
      "chip": "ym2612"
    },
    {
      "channel": 4,
      "note": 76,
      "start": 28.8593,
      "duration": 0.1246,
      "velocity": 102,
      "chip": "ym2612"
    },
    {
      "channel": 0,
      "note": 60,
      "start": 28.9341,
      "duration": 0.125,
      "velocity": 109,
      "chip": "ym2612"
    },
    {
      "channel": 1,
      "note": 48,
      "start": 28.9368,
      "duration": 0.1225,
      "velocity": 108,
      "chip": "ym2612"
    },
    {
      "channel": 2,
      "note": 72,
      "start": 28.9386,
      "duration": 0.121,
      "velocity": 102,
      "chip": "ym2612"
    },
    {
      "channel": 3,
      "note": 61,
      "start": 28.9411,
      "duration": 0.0426,
      "velocity": 127,
      "chip": "ym2612"
    },
    {
      "channel": 5,
      "note": 60,
      "start": 28.9479,
      "duration": 0.1249,
      "velocity": 109,
      "chip": "ym2612"
    },
    {
      "channel": 4,
      "note": 74,
      "start": 29.011,
      "duration": 0.1255,
      "velocity": 102,
      "chip": "ym2612"
    },
    {
      "channel": 0,
      "note": 64,
      "start": 29.0867,
      "duration": 0.2758,
      "velocity": 109,
      "chip": "ym2612"
    },
    {
      "channel": 1,
      "note": 48,
      "start": 29.0885,
      "duration": 0.1224,
      "velocity": 108,
      "chip": "ym2612"
    },
    {
      "channel": 2,
      "note": 79,
      "start": 29.0904,
      "duration": 0.2726,
      "velocity": 102,
      "chip": "ym2612"
    },
    {
      "channel": 3,
      "note": 61,
      "start": 29.0925,
      "duration": 0.0438,
      "velocity": 127,
      "chip": "ym2612"
    },
    {
      "channel": 5,
      "note": 64,
      "start": 29.0995,
      "duration": 0.2766,
      "velocity": 109,
      "chip": "ym2612"
    },
    {
      "channel": 4,
      "note": 72,
      "start": 29.1626,
      "duration": 0.1247,
      "velocity": 102,
      "chip": "ym2612"
    },
    {
      "channel": 1,
      "note": 48,
      "start": 29.2388,
      "duration": 0.1239,
      "velocity": 108,
      "chip": "ym2612"
    },
    {
      "channel": 3,
      "note": 61,
      "start": 29.241,
      "duration": 0.0461,
      "velocity": 127,
      "chip": "ym2612"
    },
    {
      "channel": 4,
      "note": 79,
      "start": 29.3144,
      "duration": 0.277,
      "velocity": 102,
      "chip": "ym2612"
    },
    {
      "channel": 0,
      "note": 62,
      "start": 29.3895,
      "duration": 0.2768,
      "velocity": 109,
      "chip": "ym2612"
    },
    {
      "channel": 1,
      "note": 50,
      "start": 29.3916,
      "duration": 0.275,
      "velocity": 108,
      "chip": "ym2612"
    },
    {
      "channel": 2,
      "note": 84,
      "start": 29.3937,
      "duration": 0.2475,
      "velocity": 102,
      "chip": "ym2612"
    },
    {
      "channel": 3,
      "note": 61,
      "start": 29.3993,
      "duration": 0.0395,
      "velocity": 127,
      "chip": "ym2612"
    },
    {
      "channel": 5,
      "note": 62,
      "start": 29.4049,
      "duration": 0.2754,
      "velocity": 109,
      "chip": "ym2612"
    },
    {
      "channel": 4,
      "note": 84,
      "start": 29.6185,
      "duration": 0.2632,
      "velocity": 102,
      "chip": "ym2612"
    },
    {
      "channel": 0,
      "note": 50,
      "start": 29.6927,
      "duration": 0.0111,
      "velocity": 109,
      "chip": "ym2612"
    },
    {
      "channel": 1,
      "note": 50,
      "start": 29.6946,
      "duration": 0.1231,
      "velocity": 108,
      "chip": "ym2612"
    },
    {
      "channel": 2,
      "note": 86,
      "start": 29.6965,
      "duration": 0.0959,
      "velocity": 102,
      "chip": "ym2612"
    },
    {
      "channel": 5,
      "note": 50,
      "start": 29.7065,
      "duration": 0.0109,
      "velocity": 109,
      "chip": "ym2612"
    },
    {
      "channel": 0,
      "note": 50,
      "start": 29.8444,
      "duration": 0.0237,
      "velocity": 109,
      "chip": "ym2612"
    },
    {
      "channel": 1,
      "note": 50,
      "start": 29.8462,
      "duration": 0.1358,
      "velocity": 108,
      "chip": "ym2612"
    },
    {
      "channel": 2,
      "note": 86,
      "start": 29.8482,
      "duration": 0.1086,
      "velocity": 102,
      "chip": "ym2612"
    },
    {
      "channel": 3,
      "note": 61,
      "start": 29.8543,
      "duration": 0.0522,
      "velocity": 127,
      "chip": "ym2612"
    },
    {
      "channel": 5,
      "note": 50,
      "start": 29.8721,
      "duration": 0.0098,
      "velocity": 109,
      "chip": "ym2612"
    },
    {
      "channel": 4,
      "note": 86,
      "start": 29.9339,
      "duration": 0.0994,
      "velocity": 102,
      "chip": "ym2612"
    },
    {
      "channel": 0,
      "note": 50,
      "start": 30.0088,
      "duration": 0.011,
      "velocity": 109,
      "chip": "ym2612"
    },
    {
      "channel": 1,
      "note": 50,
      "start": 30.0105,
      "duration": 0.1231,
      "velocity": 108,
      "chip": "ym2612"
    },
    {
      "channel": 2,
      "note": 86,
      "start": 30.0125,
      "duration": 0.096,
      "velocity": 102,
      "chip": "ym2612"
    },
    {
      "channel": 5,
      "note": 50,
      "start": 30.0225,
      "duration": 0.011,
      "velocity": 109,
      "chip": "ym2612"
    },
    {
      "channel": 4,
      "note": 86,
      "start": 30.0869,
      "duration": 0.1104,
      "velocity": 102,
      "chip": "ym2612"
    },
    {
      "channel": 0,
      "note": 50,
      "start": 30.1604,
      "duration": 0.0237,
      "velocity": 109,
      "chip": "ym2612"
    },
    {
      "channel": 1,
      "note": 50,
      "start": 30.1622,
      "duration": 0.1358,
      "velocity": 108,
      "chip": "ym2612"
    },
    {
      "channel": 2,
      "note": 86,
      "start": 30.1641,
      "duration": 0.1087,
      "velocity": 102,
      "chip": "ym2612"
    },
    {
      "channel": 3,
      "note": 61,
      "start": 30.1707,
      "duration": 0.0517,
      "velocity": 127,
      "chip": "ym2612"
    },
    {
      "channel": 5,
      "note": 50,
      "start": 30.1877,
      "duration": 0.0097,
      "velocity": 109,
      "chip": "ym2612"
    },
    {
      "channel": 4,
      "note": 86,
      "start": 30.2498,
      "duration": 0.0995,
      "velocity": 102,
      "chip": "ym2612"
    },
    {
      "channel": 0,
      "note": 50,
      "start": 30.3247,
      "duration": 0.0116,
      "velocity": 109,
      "chip": "ym2612"
    },
    {
      "channel": 1,
      "note": 50,
      "start": 30.3265,
      "duration": 0.1232,
      "velocity": 108,
      "chip": "ym2612"
    },
    {
      "channel": 2,
      "note": 86,
      "start": 30.3285,
      "duration": 0.0961,
      "velocity": 102,
      "chip": "ym2612"
    },
    {
      "channel": 5,
      "note": 50,
      "start": 30.3391,
      "duration": 0.0104,
      "velocity": 109,
      "chip": "ym2612"
    },
    {
      "channel": 4,
      "note": 86,
      "start": 30.4015,
      "duration": 0.1127,
      "velocity": 102,
      "chip": "ym2612"
    },
    {
      "channel": 0,
      "note": 50,
      "start": 30.4764,
      "duration": 0.0242,
      "velocity": 109,
      "chip": "ym2612"
    },
    {
      "channel": 1,
      "note": 50,
      "start": 30.4782,
      "duration": 0.1358,
      "velocity": 108,
      "chip": "ym2612"
    },
    {
      "channel": 2,
      "note": 86,
      "start": 30.4802,
      "duration": 0.1087,
      "velocity": 102,
      "chip": "ym2612"
    },
    {
      "channel": 3,
      "note": 61,
      "start": 30.4863,
      "duration": 0.0522,
      "velocity": 127,
      "chip": "ym2612"
    },
    {
      "channel": 5,
      "note": 50,
      "start": 30.5042,
      "duration": 0.0102,
      "velocity": 109,
      "chip": "ym2612"
    },
    {
      "channel": 4,
      "note": 86,
      "start": 30.5659,
      "duration": 0.0994,
      "velocity": 102,
      "chip": "ym2612"
    },
    {
      "channel": 0,
      "note": 62,
      "start": 30.641,
      "duration": 0.2767,
      "velocity": 109,
      "chip": "ym2612"
    },
    {
      "channel": 1,
      "note": 50,
      "start": 30.6431,
      "duration": 0.2749,
      "velocity": 108,
      "chip": "ym2612"
    },
    {
      "channel": 2,
      "note": 84,
      "start": 30.6451,
      "duration": 0.1207,
      "velocity": 102,
      "chip": "ym2612"
    },
    {
      "channel": 5,
      "note": 62,
      "start": 30.6556,
      "duration": 0.2762,
      "velocity": 109,
      "chip": "ym2612"
    },
    {
      "channel": 4,
      "note": 86,
      "start": 30.7175,
      "duration": 0.099,
      "velocity": 102,
      "chip": "ym2612"
    },
    {
      "channel": 3,
      "note": 61,
      "start": 30.7964,
      "duration": 0.0454,
      "velocity": 127,
      "chip": "ym2612"
    },
    {
      "channel": 4,
      "note": 84,
      "start": 30.8701,
      "duration": 0.1239,
      "velocity": 102,
      "chip": "ym2612"
    },
    {
      "channel": 0,
      "note": 50,
      "start": 30.9441,
      "duration": 0.011,
      "velocity": 109,
      "chip": "ym2612"
    },
    {
      "channel": 1,
      "note": 50,
      "start": 30.9459,
      "duration": 0.1239,
      "velocity": 108,
      "chip": "ym2612"
    },
    {
      "channel": 2,
      "note": 86,
      "start": 30.9477,
      "duration": 1.79,
      "velocity": 102,
      "chip": "ym2612"
    },
    {
      "channel": 5,
      "note": 50,
      "start": 30.9578,
      "duration": 0.0118,
      "velocity": 109,
      "chip": "ym2612"
    },
    {
      "channel": 0,
      "note": 50,
      "start": 31.0958,
      "duration": 0.0111,
      "velocity": 109,
      "chip": "ym2612"
    },
    {
      "channel": 1,
      "note": 50,
      "start": 31.0976,
      "duration": 0.1232,
      "velocity": 108,
      "chip": "ym2612"
    },
    {
      "channel": 3,
      "note": 61,
      "start": 31.1038,
      "duration": 0.0414,
      "velocity": 127,
      "chip": "ym2612"
    },
    {
      "channel": 5,
      "note": 50,
      "start": 31.1096,
      "duration": 0.0107,
      "velocity": 109,
      "chip": "ym2612"
    },
    {
      "channel": 4,
      "note": 86,
      "start": 31.1725,
      "duration": 1.7931,
      "velocity": 102,
      "chip": "ym2612"
    },
    {
      "channel": 0,
      "note": 50,
      "start": 31.2474,
      "duration": 0.0111,
      "velocity": 109,
      "chip": "ym2612"
    },
    {
      "channel": 1,
      "note": 50,
      "start": 31.2493,
      "duration": 0.1231,
      "velocity": 108,
      "chip": "ym2612"
    },
    {
      "channel": 5,
      "note": 50,
      "start": 31.2612,
      "duration": 0.011,
      "velocity": 109,
      "chip": "ym2612"
    },
    {
      "channel": 0,
      "note": 50,
      "start": 31.3991,
      "duration": 0.011,
      "velocity": 109,
      "chip": "ym2612"
    },
    {
      "channel": 1,
      "note": 50,
      "start": 31.4009,
      "duration": 0.1232,
      "velocity": 108,
      "chip": "ym2612"
    },
    {
      "channel": 3,
      "note": 61,
      "start": 31.4078,
      "duration": 0.0408,
      "velocity": 127,
      "chip": "ym2612"
    },
    {
      "channel": 5,
      "note": 50,
      "start": 31.4129,
      "duration": 0.0105,
      "velocity": 109,
      "chip": "ym2612"
    },
    {
      "channel": 0,
      "note": 50,
      "start": 31.5508,
      "duration": 0.0111,
      "velocity": 109,
      "chip": "ym2612"
    },
    {
      "channel": 1,
      "note": 50,
      "start": 31.5535,
      "duration": 0.1223,
      "velocity": 108,
      "chip": "ym2612"
    },
    {
      "channel": 5,
      "note": 50,
      "start": 31.5645,
      "duration": 0.0109,
      "velocity": 109,
      "chip": "ym2612"
    },
    {
      "channel": 0,
      "note": 50,
      "start": 31.7033,
      "duration": 0.0102,
      "velocity": 109,
      "chip": "ym2612"
    },
    {
      "channel": 1,
      "note": 50,
      "start": 31.7051,
      "duration": 0.1223,
      "velocity": 108,
      "chip": "ym2612"
    },
    {
      "channel": 3,
      "note": 61,
      "start": 31.7105,
      "duration": 0.0428,
      "velocity": 127,
      "chip": "ym2612"
    },
    {
      "channel": 5,
      "note": 50,
      "start": 31.7163,
      "duration": 0.0105,
      "velocity": 109,
      "chip": "ym2612"
    },
    {
      "channel": 0,
      "note": 62,
      "start": 31.8549,
      "duration": 0.2757,
      "velocity": 109,
      "chip": "ym2612"
    },
    {
      "channel": 1,
      "note": 50,
      "start": 31.857,
      "duration": 0.2739,
      "velocity": 108,
      "chip": "ym2612"
    },
    {
      "channel": 5,
      "note": 62,
      "start": 31.8681,
      "duration": 0.2766,
      "velocity": 109,
      "chip": "ym2612"
    },
    {
      "channel": 3,
      "note": 61,
      "start": 32.0114,
      "duration": 0.0443,
      "velocity": 127,
      "chip": "ym2612"
    },
    {
      "channel": 0,
      "note": 50,
      "start": 32.1577,
      "duration": 0.0122,
      "velocity": 109,
      "chip": "ym2612"
    },
    {
      "channel": 1,
      "note": 50,
      "start": 32.1595,
      "duration": 0.1229,
      "velocity": 108,
      "chip": "ym2612"
    },
    {
      "channel": 5,
      "note": 50,
      "start": 32.1731,
      "duration": 0.0105,
      "velocity": 109,
      "chip": "ym2612"
    },
    {
      "channel": 0,
      "note": 50,
      "start": 32.3092,
      "duration": 0.0111,
      "velocity": 109,
      "chip": "ym2612"
    },
    {
      "channel": 1,
      "note": 50,
      "start": 32.311,
      "duration": 0.1231,
      "velocity": 108,
      "chip": "ym2612"
    },
    {
      "channel": 3,
      "note": 61,
      "start": 32.3164,
      "duration": 0.0422,
      "velocity": 127,
      "chip": "ym2612"
    },
    {
      "channel": 5,
      "note": 50,
      "start": 32.3234,
      "duration": 0.0105,
      "velocity": 109,
      "chip": "ym2612"
    },
    {
      "channel": 0,
      "note": 50,
      "start": 32.4609,
      "duration": 0.0111,
      "velocity": 109,
      "chip": "ym2612"
    },
    {
      "channel": 1,
      "note": 50,
      "start": 32.4627,
      "duration": 0.1245,
      "velocity": 108,
      "chip": "ym2612"
    },
    {
      "channel": 5,
      "note": 50,
      "start": 32.4751,
      "duration": 0.0118,
      "velocity": 109,
      "chip": "ym2612"
    },
    {
      "channel": 0,
      "note": 50,
      "start": 32.6126,
      "duration": 0.0111,
      "velocity": 109,
      "chip": "ym2612"
    },
    {
      "channel": 1,
      "note": 50,
      "start": 32.6144,
      "duration": 0.1231,
      "velocity": 108,
      "chip": "ym2612"
    },
    {
      "channel": 3,
      "note": 61,
      "start": 32.6212,
      "duration": 0.0408,
      "velocity": 127,
      "chip": "ym2612"
    },
    {
      "channel": 5,
      "note": 50,
      "start": 32.6264,
      "duration": 0.0105,
      "velocity": 109,
      "chip": "ym2612"
    },
    {
      "channel": 0,
      "note": 50,
      "start": 32.7643,
      "duration": 0.011,
      "velocity": 109,
      "chip": "ym2612"
    },
    {
      "channel": 1,
      "note": 50,
      "start": 32.7661,
      "duration": 0.1231,
      "velocity": 108,
      "chip": "ym2612"
    },
    {
      "channel": 2,
      "note": 84,
      "start": 32.7679,
      "duration": 0.1215,
      "velocity": 102,
      "chip": "ym2612"
    },
    {
      "channel": 5,
      "note": 50,
      "start": 32.778,
      "duration": 0.0109,
      "velocity": 109,
      "chip": "ym2612"
    },
    {
      "channel": 0,
      "note": 50,
      "start": 32.9159,
      "duration": 0.0111,
      "velocity": 109,
      "chip": "ym2612"
    },
    {
      "channel": 1,
      "note": 50,
      "start": 32.9177,
      "duration": 0.1232,
      "velocity": 108,
      "chip": "ym2612"
    },
    {
      "channel": 3,
      "note": 61,
      "start": 32.9239,
      "duration": 0.0414,
      "velocity": 127,
      "chip": "ym2612"
    },
    {
      "channel": 5,
      "note": 50,
      "start": 32.9297,
      "duration": 0.0105,
      "velocity": 109,
      "chip": "ym2612"
    },
    {
      "channel": 4,
      "note": 84,
      "start": 32.9927,
      "duration": 0.1247,
      "velocity": 102,
      "chip": "ym2612"
    },
    {
      "channel": 0,
      "note": 62,
      "start": 33.0679,
      "duration": 0.2762,
      "velocity": 109,
      "chip": "ym2612"
    },
    {
      "channel": 1,
      "note": 50,
      "start": 33.0708,
      "duration": 0.2735,
      "velocity": 108,
      "chip": "ym2612"
    },
    {
      "channel": 2,
      "note": 81,
      "start": 33.0727,
      "duration": 0.7268,
      "velocity": 102,
      "chip": "ym2612"
    },
    {
      "channel": 5,
      "note": 62,
      "start": 33.0816,
      "duration": 0.2761,
      "velocity": 109,
      "chip": "ym2612"
    },
    {
      "channel": 3,
      "note": 61,
      "start": 33.2241,
      "duration": 0.0454,
      "velocity": 127,
      "chip": "ym2612"
    },
    {
      "channel": 4,
      "note": 81,
      "start": 33.296,
      "duration": 0.7442,
      "velocity": 102,
      "chip": "ym2612"
    },
    {
      "channel": 0,
      "note": 50,
      "start": 33.3713,
      "duration": 0.0107,
      "velocity": 109,
      "chip": "ym2612"
    },
    {
      "channel": 1,
      "note": 50,
      "start": 33.3731,
      "duration": 0.1228,
      "velocity": 108,
      "chip": "ym2612"
    },
    {
      "channel": 5,
      "note": 50,
      "start": 33.3848,
      "duration": 0.011,
      "velocity": 109,
      "chip": "ym2612"
    },
    {
      "channel": 0,
      "note": 50,
      "start": 33.5227,
      "duration": 0.011,
      "velocity": 109,
      "chip": "ym2612"
    },
    {
      "channel": 1,
      "note": 50,
      "start": 33.5245,
      "duration": 0.1231,
      "velocity": 108,
      "chip": "ym2612"
    },
    {
      "channel": 3,
      "note": 61,
      "start": 33.5299,
      "duration": 0.0423,
      "velocity": 127,
      "chip": "ym2612"
    },
    {
      "channel": 5,
      "note": 50,
      "start": 33.5373,
      "duration": 0.0097,
      "velocity": 109,
      "chip": "ym2612"
    },
    {
      "channel": 0,
      "note": 50,
      "start": 33.6743,
      "duration": 0.0119,
      "velocity": 109,
      "chip": "ym2612"
    },
    {
      "channel": 1,
      "note": 50,
      "start": 33.6762,
      "duration": 0.1231,
      "velocity": 108,
      "chip": "ym2612"
    },
    {
      "channel": 5,
      "note": 50,
      "start": 33.6889,
      "duration": 0.0101,
      "velocity": 109,
      "chip": "ym2612"
    },
    {
      "channel": 0,
      "note": 62,
      "start": 33.8261,
      "duration": 0.4416,
      "velocity": 109,
      "chip": "ym2612"
    },
    {
      "channel": 1,
      "note": 50,
      "start": 33.828,
      "duration": 0.1356,
      "velocity": 108,
      "chip": "ym2612"
    },
    {
      "channel": 2,
      "note": 81,
      "start": 33.8297,
      "duration": 0.1341,
      "velocity": 102,
      "chip": "ym2612"
    },
    {
      "channel": 3,
      "note": 76,
      "start": 33.8366,
      "duration": 0.015,
      "velocity": 112,
      "chip": "ym2612"
    },
    {
      "channel": 5,
      "note": 62,
      "start": 33.8543,
      "duration": 0.4262,
      "velocity": 109,
      "chip": "ym2612"
    },
    {
      "channel": 1,
      "note": 50,
      "start": 33.9904,
      "duration": 0.1248,
      "velocity": 108,
      "chip": "ym2612"
    },
    {
      "channel": 2,
      "note": 79,
      "start": 33.9923,
      "duration": 0.1232,
      "velocity": 102,
      "chip": "ym2612"
    },
    {
      "channel": 3,
      "note": 71,
      "start": 33.9946,
      "duration": 0.0086,
      "velocity": 112,
      "chip": "ym2612"
    },
    {
      "channel": 4,
      "note": 81,
      "start": 34.067,
      "duration": 0.1249,
      "velocity": 102,
      "chip": "ym2612"
    },
    {
      "channel": 1,
      "note": 44,
      "start": 34.1421,
      "duration": 0.1259,
      "velocity": 108,
      "chip": "ym2612"
    },
    {
      "channel": 2,
      "note": 77,
      "start": 34.1439,
      "duration": 0.1242,
      "velocity": 102,
      "chip": "ym2612"
    },
    {
      "channel": 3,
      "note": 66,
      "start": 34.1462,
      "duration": 0.0078,
      "velocity": 112,
      "chip": "ym2612"
    },
    {
      "channel": 4,
      "note": 79,
      "start": 34.2194,
      "duration": 0.1365,
      "velocity": 102,
      "chip": "ym2612"
    },
    {
      "channel": 0,
      "note": 58,
      "start": 34.2939,
      "duration": 0.289,
      "velocity": 109,
      "chip": "ym2612"
    },
    {
      "channel": 1,
      "note": 46,
      "start": 34.2958,
      "duration": 0.2872,
      "velocity": 108,
      "chip": "ym2612"
    },
    {
      "channel": 2,
      "note": 74,
      "start": 34.2976,
      "duration": 0.8923,
      "velocity": 102,
      "chip": "ym2612"
    },
    {
      "channel": 3,
      "note": 61,
      "start": 34.304,
      "duration": 0.0518,
      "velocity": 127,
      "chip": "ym2612"
    },
    {
      "channel": 5,
      "note": 58,
      "start": 34.321,
      "duration": 0.2754,
      "velocity": 109,
      "chip": "ym2612"
    },
    {
      "channel": 4,
      "note": 77,
      "start": 34.383,
      "duration": 0.1249,
      "velocity": 102,
      "chip": "ym2612"
    },
    {
      "channel": 4,
      "note": 74,
      "start": 34.5347,
      "duration": 0.8957,
      "velocity": 102,
      "chip": "ym2612"
    },
    {
      "channel": 0,
      "note": 46,
      "start": 34.6097,
      "duration": 0.0111,
      "velocity": 109,
      "chip": "ym2612"
    },
    {
      "channel": 1,
      "note": 46,
      "start": 34.6115,
      "duration": 0.1231,
      "velocity": 108,
      "chip": "ym2612"
    },
    {
      "channel": 3,
      "note": 61,
      "start": 34.617,
      "duration": 0.0423,
      "velocity": 127,
      "chip": "ym2612"
    },
    {
      "channel": 5,
      "note": 46,
      "start": 34.6235,
      "duration": 0.0105,
      "velocity": 109,
      "chip": "ym2612"
    },
    {
      "channel": 0,
      "note": 46,
      "start": 34.7614,
      "duration": 0.011,
      "velocity": 109,
      "chip": "ym2612"
    },
    {
      "channel": 1,
      "note": 46,
      "start": 34.7632,
      "duration": 0.1233,
      "velocity": 108,
      "chip": "ym2612"
    },
    {
      "channel": 3,
      "note": 61,
      "start": 34.7687,
      "duration": 0.0422,
      "velocity": 127,
      "chip": "ym2612"
    },
    {
      "channel": 5,
      "note": 46,
      "start": 34.7752,
      "duration": 0.0113,
      "velocity": 109,
      "chip": "ym2612"
    },
    {
      "channel": 0,
      "note": 46,
      "start": 34.9131,
      "duration": 0.0111,
      "velocity": 109,
      "chip": "ym2612"
    },
    {
      "channel": 1,
      "note": 46,
      "start": 34.9149,
      "duration": 0.1232,
      "velocity": 108,
      "chip": "ym2612"
    },
    {
      "channel": 5,
      "note": 46,
      "start": 34.9268,
      "duration": 0.011,
      "velocity": 109,
      "chip": "ym2612"
    },
    {
      "channel": 0,
      "note": 46,
      "start": 35.0648,
      "duration": 0.0111,
      "velocity": 109,
      "chip": "ym2612"
    },
    {
      "channel": 1,
      "note": 46,
      "start": 35.0666,
      "duration": 0.1231,
      "velocity": 108,
      "chip": "ym2612"
    },
    {
      "channel": 3,
      "note": 61,
      "start": 35.0732,
      "duration": 0.0409,
      "velocity": 127,
      "chip": "ym2612"
    },
    {
      "channel": 5,
      "note": 46,
      "start": 35.0787,
      "duration": 0.0109,
      "velocity": 109,
      "chip": "ym2612"
    },
    {
      "channel": 0,
      "note": 46,
      "start": 35.2164,
      "duration": 0.011,
      "velocity": 109,
      "chip": "ym2612"
    },
    {
      "channel": 1,
      "note": 46,
      "start": 35.2182,
      "duration": 0.1231,
      "velocity": 108,
      "chip": "ym2612"
    },
    {
      "channel": 2,
      "note": 70,
      "start": 35.2209,
      "duration": 0.1207,
      "velocity": 102,
      "chip": "ym2612"
    },
    {
      "channel": 5,
      "note": 46,
      "start": 35.2302,
      "duration": 0.011,
      "velocity": 109,
      "chip": "ym2612"
    },
    {
      "channel": 0,
      "note": 46,
      "start": 35.3681,
      "duration": 0.0237,
      "velocity": 109,
      "chip": "ym2612"
    },
    {
      "channel": 1,
      "note": 46,
      "start": 35.3708,
      "duration": 0.1354,
      "velocity": 108,
      "chip": "ym2612"
    },
    {
      "channel": 2,
      "note": 72,
      "start": 35.3725,
      "duration": 0.1339,
      "velocity": 102,
      "chip": "ym2612"
    },
    {
      "channel": 3,
      "note": 61,
      "start": 35.3778,
      "duration": 0.0524,
      "velocity": 127,
      "chip": "ym2612"
    },
    {
      "channel": 5,
      "note": 46,
      "start": 35.3946,
      "duration": 0.0105,
      "velocity": 109,
      "chip": "ym2612"
    },
    {
      "channel": 4,
      "note": 70,
      "start": 35.4575,
      "duration": 0.1248,
      "velocity": 102,
      "chip": "ym2612"
    },
    {
      "channel": 0,
      "note": 60,
      "start": 35.5327,
      "duration": 0.2762,
      "velocity": 109,
      "chip": "ym2612"
    },
    {
      "channel": 1,
      "note": 48,
      "start": 35.5348,
      "duration": 0.2743,
      "velocity": 108,
      "chip": "ym2612"
    },
    {
      "channel": 2,
      "note": 76,
      "start": 35.5375,
      "duration": 0.7268,
      "velocity": 102,
      "chip": "ym2612"
    },
    {
      "channel": 5,
      "note": 60,
      "start": 35.5464,
      "duration": 0.2761,
      "velocity": 109,
      "chip": "ym2612"
    },
    {
      "channel": 4,
      "note": 72,
      "start": 35.6091,
      "duration": 0.1246,
      "velocity": 102,
      "chip": "ym2612"
    },
    {
      "channel": 3,
      "note": 61,
      "start": 35.689,
      "duration": 0.0446,
      "velocity": 127,
      "chip": "ym2612"
    },
    {
      "channel": 4,
      "note": 76,
      "start": 35.7608,
      "duration": 0.7316,
      "velocity": 102,
      "chip": "ym2612"
    },
    {
      "channel": 0,
      "note": 48,
      "start": 35.8367,
      "duration": 0.0102,
      "velocity": 109,
      "chip": "ym2612"
    },
    {
      "channel": 1,
      "note": 48,
      "start": 35.8385,
      "duration": 0.1223,
      "velocity": 108,
      "chip": "ym2612"
    },
    {
      "channel": 5,
      "note": 48,
      "start": 35.8496,
      "duration": 0.0109,
      "velocity": 109,
      "chip": "ym2612"
    },
    {
      "channel": 0,
      "note": 48,
      "start": 35.9879,
      "duration": 0.0106,
      "velocity": 109,
      "chip": "ym2612"
    },
    {
      "channel": 1,
      "note": 48,
      "start": 35.9898,
      "duration": 0.1226,
      "velocity": 108,
      "chip": "ym2612"
    },
    {
      "channel": 3,
      "note": 61,
      "start": 35.9952,
      "duration": 0.0418,
      "velocity": 127,
      "chip": "ym2612"
    },
    {
      "channel": 5,
      "note": 48,
      "start": 36.0013,
      "duration": 0.0105,
      "velocity": 109,
      "chip": "ym2612"
    },
    {
      "channel": 0,
      "note": 48,
      "start": 36.1392,
      "duration": 0.0111,
      "velocity": 109,
      "chip": "ym2612"
    },
    {
      "channel": 1,
      "note": 48,
      "start": 36.1409,
      "duration": 0.1232,
      "velocity": 108,
      "chip": "ym2612"
    },
    {
      "channel": 5,
      "note": 48,
      "start": 36.1537,
      "duration": 0.0101,
      "velocity": 109,
      "chip": "ym2612"
    },
    {
      "channel": 0,
      "note": 48,
      "start": 36.2909,
      "duration": 0.0124,
      "velocity": 109,
      "chip": "ym2612"
    },
    {
      "channel": 1,
      "note": 48,
      "start": 36.2927,
      "duration": 0.1231,
      "velocity": 108,
      "chip": "ym2612"
    },
    {
      "channel": 2,
      "note": 72,
      "start": 36.2945,
      "duration": 0.1215,
      "velocity": 102,
      "chip": "ym2612"
    },
    {
      "channel": 3,
      "note": 61,
      "start": 36.3002,
      "duration": 0.0405,
      "velocity": 127,
      "chip": "ym2612"
    },
    {
      "channel": 5,
      "note": 48,
      "start": 36.3059,
      "duration": 0.0092,
      "velocity": 109,
      "chip": "ym2612"
    },
    {
      "channel": 0,
      "note": 48,
      "start": 36.4425,
      "duration": 0.0111,
      "velocity": 109,
      "chip": "ym2612"
    },
    {
      "channel": 1,
      "note": 48,
      "start": 36.4443,
      "duration": 0.1232,
      "velocity": 108,
      "chip": "ym2612"
    },
    {
      "channel": 2,
      "note": 74,
      "start": 36.4461,
      "duration": 2.5739,
      "velocity": 102,
      "chip": "ym2612"
    },
    {
      "channel": 5,
      "note": 48,
      "start": 36.4563,
      "duration": 0.011,
      "velocity": 109,
      "chip": "ym2612"
    },
    {
      "channel": 4,
      "note": 72,
      "start": 36.52,
      "duration": 0.1369,
      "velocity": 102,
      "chip": "ym2612"
    },
    {
      "channel": 0,
      "note": 48,
      "start": 36.5942,
      "duration": 0.0237,
      "velocity": 109,
      "chip": "ym2612"
    },
    {
      "channel": 1,
      "note": 48,
      "start": 36.596,
      "duration": 0.1357,
      "velocity": 108,
      "chip": "ym2612"
    },
    {
      "channel": 3,
      "note": 61,
      "start": 36.6038,
      "duration": 0.0529,
      "velocity": 127,
      "chip": "ym2612"
    },
    {
      "channel": 5,
      "note": 48,
      "start": 36.622,
      "duration": 0.0096,
      "velocity": 109,
      "chip": "ym2612"
    },
    {
      "channel": 4,
      "note": 74,
      "start": 36.684,
      "duration": 2.5768,
      "velocity": 102,
      "chip": "ym2612"
    },
    {
      "channel": 0,
      "note": 62,
      "start": 36.7593,
      "duration": 0.2757,
      "velocity": 109,
      "chip": "ym2612"
    },
    {
      "channel": 1,
      "note": 50,
      "start": 36.7614,
      "duration": 0.2739,
      "velocity": 108,
      "chip": "ym2612"
    },
    {
      "channel": 3,
      "note": 61,
      "start": 36.7656,
      "duration": 0.0427,
      "velocity": 127,
      "chip": "ym2612"
    },
    {
      "channel": 5,
      "note": 62,
      "start": 36.7739,
      "duration": 0.2751,
      "velocity": 109,
      "chip": "ym2612"
    },
    {
      "channel": 0,
      "note": 50,
      "start": 37.0619,
      "duration": 0.011,
      "velocity": 109,
      "chip": "ym2612"
    },
    {
      "channel": 1,
      "note": 50,
      "start": 37.0637,
      "duration": 0.124,
      "velocity": 108,
      "chip": "ym2612"
    },
    {
      "channel": 3,
      "note": 61,
      "start": 37.0699,
      "duration": 0.0414,
      "velocity": 127,
      "chip": "ym2612"
    },
    {
      "channel": 5,
      "note": 50,
      "start": 37.0761,
      "duration": 0.0113,
      "velocity": 109,
      "chip": "ym2612"
    },
    {
      "channel": 0,
      "note": 50,
      "start": 37.2136,
      "duration": 0.011,
      "velocity": 109,
      "chip": "ym2612"
    },
    {
      "channel": 1,
      "note": 50,
      "start": 37.2154,
      "duration": 0.1232,
      "velocity": 108,
      "chip": "ym2612"
    },
    {
      "channel": 3,
      "note": 61,
      "start": 37.2217,
      "duration": 0.0414,
      "velocity": 127,
      "chip": "ym2612"
    },
    {
      "channel": 5,
      "note": 50,
      "start": 37.2273,
      "duration": 0.0105,
      "velocity": 109,
      "chip": "ym2612"
    },
    {
      "channel": 0,
      "note": 50,
      "start": 37.3652,
      "duration": 0.0111,
      "velocity": 109,
      "chip": "ym2612"
    },
    {
      "channel": 1,
      "note": 50,
      "start": 37.3671,
      "duration": 0.1231,
      "velocity": 108,
      "chip": "ym2612"
    },
    {
      "channel": 5,
      "note": 50,
      "start": 37.379,
      "duration": 0.0109,
      "velocity": 109,
      "chip": "ym2612"
    },
    {
      "channel": 0,
      "note": 50,
      "start": 37.517,
      "duration": 0.011,
      "velocity": 109,
      "chip": "ym2612"
    },
    {
      "channel": 1,
      "note": 50,
      "start": 37.5196,
      "duration": 0.1222,
      "velocity": 108,
      "chip": "ym2612"
    },
    {
      "channel": 3,
      "note": 61,
      "start": 37.5253,
      "duration": 0.041,
      "velocity": 127,
      "chip": "ym2612"
    },
    {
      "channel": 5,
      "note": 50,
      "start": 37.5307,
      "duration": 0.0105,
      "velocity": 109,
      "chip": "ym2612"
    },
    {
      "channel": 0,
      "note": 50,
      "start": 37.6686,
      "duration": 0.0111,
      "velocity": 109,
      "chip": "ym2612"
    },
    {
      "channel": 1,
      "note": 50,
      "start": 37.6712,
      "duration": 0.1223,
      "velocity": 108,
      "chip": "ym2612"
    },
    {
      "channel": 5,
      "note": 50,
      "start": 37.6823,
      "duration": 0.011,
      "velocity": 109,
      "chip": "ym2612"
    },
    {
      "channel": 0,
      "note": 50,
      "start": 37.8212,
      "duration": 0.0228,
      "velocity": 109,
      "chip": "ym2612"
    },
    {
      "channel": 1,
      "note": 50,
      "start": 37.8229,
      "duration": 0.1349,
      "velocity": 108,
      "chip": "ym2612"
    },
    {
      "channel": 3,
      "note": 61,
      "start": 37.8299,
      "duration": 0.0525,
      "velocity": 127,
      "chip": "ym2612"
    },
    {
      "channel": 5,
      "note": 50,
      "start": 37.8472,
      "duration": 0.01,
      "velocity": 109,
      "chip": "ym2612"
    },
    {
      "channel": 0,
      "note": 58,
      "start": 37.9849,
      "duration": 0.2762,
      "velocity": 109,
      "chip": "ym2612"
    },
    {
      "channel": 1,
      "note": 46,
      "start": 37.9878,
      "duration": 0.2735,
      "velocity": 108,
      "chip": "ym2612"
    },
    {
      "channel": 5,
      "note": 58,
      "start": 37.9986,
      "duration": 0.2761,
      "velocity": 109,
      "chip": "ym2612"
    },
    {
      "channel": 3,
      "note": 61,
      "start": 38.1378,
      "duration": 0.0488,
      "velocity": 127,
      "chip": "ym2612"
    },
    {
      "channel": 0,
      "note": 46,
      "start": 38.2879,
      "duration": 0.0111,
      "velocity": 109,
      "chip": "ym2612"
    },
    {
      "channel": 1,
      "note": 46,
      "start": 38.2895,
      "duration": 0.1235,
      "velocity": 108,
      "chip": "ym2612"
    },
    {
      "channel": 5,
      "note": 46,
      "start": 38.3016,
      "duration": 0.0111,
      "velocity": 109,
      "chip": "ym2612"
    },
    {
      "channel": 3,
      "note": 61,
      "start": 38.3392,
      "duration": 0.0488,
      "velocity": 127,
      "chip": "ym2612"
    },
    {
      "channel": 0,
      "note": 46,
      "start": 38.4404,
      "duration": 0.0103,
      "velocity": 109,
      "chip": "ym2612"
    },
    {
      "channel": 1,
      "note": 46,
      "start": 38.4421,
      "duration": 0.1225,
      "velocity": 108,
      "chip": "ym2612"
    },
    {
      "channel": 5,
      "note": 46,
      "start": 38.454,
      "duration": 0.0103,
      "velocity": 109,
      "chip": "ym2612"
    },
    {
      "channel": 3,
      "note": 61,
      "start": 38.5416,
      "duration": 0.0517,
      "velocity": 127,
      "chip": "ym2612"
    },
    {
      "channel": 0,
      "note": 60,
      "start": 38.5912,
      "duration": 0.2767,
      "velocity": 109,
      "chip": "ym2612"
    },
    {
      "channel": 1,
      "note": 48,
      "start": 38.5928,
      "duration": 0.2752,
      "velocity": 108,
      "chip": "ym2612"
    },
    {
      "channel": 5,
      "note": 60,
      "start": 38.6056,
      "duration": 0.2759,
      "velocity": 109,
      "chip": "ym2612"
    },
    {
      "channel": 3,
      "note": 61,
      "start": 38.63,
      "duration": 0.0486,
      "velocity": 127,
      "chip": "ym2612"
    },
    {
      "channel": 3,
      "note": 61,
      "start": 38.7185,
      "duration": 0.0486,
      "velocity": 127,
      "chip": "ym2612"
    },
    {
      "channel": 3,
      "note": 61,
      "start": 38.807,
      "duration": 0.0495,
      "velocity": 127,
      "chip": "ym2612"
    },
    {
      "channel": 0,
      "note": 48,
      "start": 38.8946,
      "duration": 0.0112,
      "velocity": 109,
      "chip": "ym2612"
    },
    {
      "channel": 1,
      "note": 48,
      "start": 38.8962,
      "duration": 0.1236,
      "velocity": 108,
      "chip": "ym2612"
    },
    {
      "channel": 3,
      "note": 61,
      "start": 38.8986,
      "duration": 0.0455,
      "velocity": 127,
      "chip": "ym2612"
    },
    {
      "channel": 5,
      "note": 48,
      "start": 38.9083,
      "duration": 0.0115,
      "velocity": 109,
      "chip": "ym2612"
    },
    {
      "channel": 3,
      "note": 61,
      "start": 38.9719,
      "duration": 0.0484,
      "velocity": 127,
      "chip": "ym2612"
    },
    {
      "channel": 0,
      "note": 48,
      "start": 39.0462,
      "duration": 0.0239,
      "velocity": 109,
      "chip": "ym2612"
    },
    {
      "channel": 1,
      "note": 48,
      "start": 39.0479,
      "duration": 0.1361,
      "velocity": 108,
      "chip": "ym2612"
    },
    {
      "channel": 2,
      "note": 69,
      "start": 39.0539,
      "duration": 0.1303,
      "velocity": 111,
      "chip": "ym2612"
    },
    {
      "channel": 3,
      "note": 61,
      "start": 39.0561,
      "duration": 0.0524,
      "velocity": 127,
      "chip": "ym2612"
    },
    {
      "channel": 5,
      "note": 48,
      "start": 39.0727,
      "duration": 0.0106,
      "velocity": 109,
      "chip": "ym2612"
    },
    {
      "channel": 0,
      "note": 48,
      "start": 39.2105,
      "duration": 0.0112,
      "velocity": 109,
      "chip": "ym2612"
    },
    {
      "channel": 1,
      "note": 48,
      "start": 39.2122,
      "duration": 0.1243,
      "velocity": 108,
      "chip": "ym2612"
    },
    {
      "channel": 2,
      "note": 72,
      "start": 39.214,
      "duration": 0.1228,
      "velocity": 111,
      "chip": "ym2612"
    },
    {
      "channel": 3,
      "note": 61,
      "start": 39.2161,
      "duration": 0.0445,
      "velocity": 127,
      "chip": "ym2612"
    },
    {
      "channel": 5,
      "note": 48,
      "start": 39.2243,
      "duration": 0.0106,
      "velocity": 109,
      "chip": "ym2612"
    },
    {
      "channel": 4,
      "note": 69,
      "start": 39.2916,
      "duration": 0.133,
      "velocity": 111,
      "chip": "ym2612"
    },
    {
      "channel": 0,
      "note": 64,
      "start": 39.3626,
      "duration": 2.4134,
      "velocity": 109,
      "chip": "ym2612"
    },
    {
      "channel": 1,
      "note": 45,
      "start": 39.3647,
      "duration": 0.4387,
      "velocity": 108,
      "chip": "ym2612"
    },
    {
      "channel": 2,
      "note": 76,
      "start": 39.3664,
      "duration": 2.1056,
      "velocity": 111,
      "chip": "ym2612"
    },
    {
      "channel": 3,
      "note": 61,
      "start": 39.3732,
      "duration": 0.0513,
      "velocity": 127,
      "chip": "ym2612"
    },
    {
      "channel": 5,
      "note": 64,
      "start": 39.3892,
      "duration": 2.3995,
      "velocity": 109,
      "chip": "ym2612"
    },
    {
      "channel": 4,
      "note": 72,
      "start": 39.4517,
      "duration": 0.1246,
      "velocity": 111,
      "chip": "ym2612"
    },
    {
      "channel": 3,
      "note": 61,
      "start": 39.5306,
      "duration": 0.0456,
      "velocity": 127,
      "chip": "ym2612"
    },
    {
      "channel": 4,
      "note": 76,
      "start": 39.6042,
      "duration": 2.0956,
      "velocity": 111,
      "chip": "ym2612"
    },
    {
      "channel": 3,
      "note": 61,
      "start": 39.6795,
      "duration": 0.0483,
      "velocity": 127,
      "chip": "ym2612"
    },
    {
      "channel": 1,
      "note": 45,
      "start": 39.83,
      "duration": 0.4284,
      "velocity": 108,
      "chip": "ym2612"
    },
    {
      "channel": 3,
      "note": 61,
      "start": 39.8364,
      "duration": 0.0431,
      "velocity": 127,
      "chip": "ym2612"
    },
    {
      "channel": 3,
      "note": 61,
      "start": 39.9864,
      "duration": 0.0447,
      "velocity": 127,
      "chip": "ym2612"
    },
    {
      "channel": 3,
      "note": 61,
      "start": 40.1341,
      "duration": 0.0488,
      "velocity": 127,
      "chip": "ym2612"
    },
    {
      "channel": 1,
      "note": 45,
      "start": 40.2851,
      "duration": 0.1249,
      "velocity": 108,
      "chip": "ym2612"
    },
    {
      "channel": 3,
      "note": 61,
      "start": 40.293,
      "duration": 0.0415,
      "velocity": 127,
      "chip": "ym2612"
    },
    {
      "channel": 1,
      "note": 45,
      "start": 40.4376,
      "duration": 0.1242,
      "velocity": 108,
      "chip": "ym2612"
    },
    {
      "channel": 3,
      "note": 61,
      "start": 40.4398,
      "duration": 0.047,
      "velocity": 127,
      "chip": "ym2612"
    },
    {
      "channel": 1,
      "note": 45,
      "start": 40.59,
      "duration": 0.4267,
      "velocity": 108,
      "chip": "ym2612"
    },
    {
      "channel": 3,
      "note": 61,
      "start": 40.5958,
      "duration": 0.0421,
      "velocity": 127,
      "chip": "ym2612"
    },
    {
      "channel": 3,
      "note": 61,
      "start": 40.744,
      "duration": 0.0455,
      "velocity": 127,
      "chip": "ym2612"
    },
    {
      "channel": 3,
      "note": 61,
      "start": 40.8925,
      "duration": 0.0497,
      "velocity": 127,
      "chip": "ym2612"
    },
    {
      "channel": 1,
      "note": 45,
      "start": 41.0435,
      "duration": 0.4283,
      "velocity": 108,
      "chip": "ym2612"
    },
    {
      "channel": 3,
      "note": 61,
      "start": 41.0491,
      "duration": 0.0438,
      "velocity": 127,
      "chip": "ym2612"
    },
    {
      "channel": 3,
      "note": 61,
      "start": 41.199,
      "duration": 0.0456,
      "velocity": 127,
      "chip": "ym2612"
    },
    {
      "channel": 3,
      "note": 61,
      "start": 41.348,
      "duration": 0.0483,
      "velocity": 127,
      "chip": "ym2612"
    },
    {
      "channel": 1,
      "note": 45,
      "start": 41.4986,
      "duration": 0.1249,
      "velocity": 108,
      "chip": "ym2612"
    },
    {
      "channel": 2,
      "note": 70,
      "start": 41.5003,
      "duration": 0.1234,
      "velocity": 111,
      "chip": "ym2612"
    },
    {
      "channel": 3,
      "note": 61,
      "start": 41.5066,
      "duration": 0.0414,
      "velocity": 127,
      "chip": "ym2612"
    },
    {
      "channel": 1,
      "note": 45,
      "start": 41.6502,
      "duration": 0.126,
      "velocity": 108,
      "chip": "ym2612"
    },
    {
      "channel": 2,
      "note": 74,
      "start": 41.652,
      "duration": 0.1244,
      "velocity": 111,
      "chip": "ym2612"
    },
    {
      "channel": 3,
      "note": 61,
      "start": 41.6549,
      "duration": 0.0447,
      "velocity": 127,
      "chip": "ym2612"
    },
    {
      "channel": 4,
      "note": 70,
      "start": 41.7269,
      "duration": 0.1372,
      "velocity": 111,
      "chip": "ym2612"
    },
    {
      "channel": 0,
      "note": 65,
      "start": 41.8018,
      "duration": 2.4254,
      "velocity": 109,
      "chip": "ym2612"
    },
    {
      "channel": 1,
      "note": 46,
      "start": 41.8049,
      "duration": 0.438,
      "velocity": 108,
      "chip": "ym2612"
    },
    {
      "channel": 2,
      "note": 77,
      "start": 41.8067,
      "duration": 2.1175,
      "velocity": 111,
      "chip": "ym2612"
    },
    {
      "channel": 3,
      "note": 61,
      "start": 41.8123,
      "duration": 0.0517,
      "velocity": 127,
      "chip": "ym2612"
    },
    {
      "channel": 5,
      "note": 65,
      "start": 41.8281,
      "duration": 2.4127,
      "velocity": 109,
      "chip": "ym2612"
    },
    {
      "channel": 4,
      "note": 74,
      "start": 41.8912,
      "duration": 0.1246,
      "velocity": 111,
      "chip": "ym2612"
    },
    {
      "channel": 3,
      "note": 61,
      "start": 41.9709,
      "duration": 0.0448,
      "velocity": 127,
      "chip": "ym2612"
    },
    {
      "channel": 4,
      "note": 77,
      "start": 42.043,
      "duration": 2.1099,
      "velocity": 111,
      "chip": "ym2612"
    },
    {
      "channel": 3,
      "note": 61,
      "start": 42.1185,
      "duration": 0.0489,
      "velocity": 127,
      "chip": "ym2612"
    },
    {
      "channel": 1,
      "note": 46,
      "start": 42.2704,
      "duration": 0.4275,
      "velocity": 108,
      "chip": "ym2612"
    },
    {
      "channel": 3,
      "note": 61,
      "start": 42.276,
      "duration": 0.044,
      "velocity": 127,
      "chip": "ym2612"
    },
    {
      "channel": 3,
      "note": 61,
      "start": 42.4251,
      "duration": 0.0456,
      "velocity": 127,
      "chip": "ym2612"
    },
    {
      "channel": 3,
      "note": 61,
      "start": 42.5736,
      "duration": 0.0488,
      "velocity": 127,
      "chip": "ym2612"
    },
    {
      "channel": 1,
      "note": 46,
      "start": 42.7246,
      "duration": 0.1249,
      "velocity": 108,
      "chip": "ym2612"
    },
    {
      "channel": 3,
      "note": 61,
      "start": 42.7302,
      "duration": 0.0439,
      "velocity": 127,
      "chip": "ym2612"
    },
    {
      "channel": 1,
      "note": 46,
      "start": 42.8762,
      "duration": 0.1251,
      "velocity": 108,
      "chip": "ym2612"
    },
    {
      "channel": 3,
      "note": 61,
      "start": 42.8785,
      "duration": 0.0473,
      "velocity": 127,
      "chip": "ym2612"
    },
    {
      "channel": 1,
      "note": 46,
      "start": 43.0305,
      "duration": 0.4402,
      "velocity": 108,
      "chip": "ym2612"
    },
    {
      "channel": 3,
      "note": 61,
      "start": 43.0388,
      "duration": 0.0517,
      "velocity": 127,
      "chip": "ym2612"
    },
    {
      "channel": 3,
      "note": 61,
      "start": 43.1966,
      "duration": 0.0456,
      "velocity": 127,
      "chip": "ym2612"
    },
    {
      "channel": 3,
      "note": 61,
      "start": 43.3478,
      "duration": 0.0456,
      "velocity": 127,
      "chip": "ym2612"
    },
    {
      "channel": 1,
      "note": 46,
      "start": 43.4956,
      "duration": 0.4284,
      "velocity": 108,
      "chip": "ym2612"
    },
    {
      "channel": 3,
      "note": 61,
      "start": 43.5012,
      "duration": 0.0439,
      "velocity": 127,
      "chip": "ym2612"
    },
    {
      "channel": 3,
      "note": 61,
      "start": 43.6512,
      "duration": 0.0456,
      "velocity": 127,
      "chip": "ym2612"
    },
    {
      "channel": 3,
      "note": 61,
      "start": 43.8037,
      "duration": 0.0452,
      "velocity": 127,
      "chip": "ym2612"
    },
    {
      "channel": 1,
      "note": 46,
      "start": 43.9507,
      "duration": 0.1249,
      "velocity": 108,
      "chip": "ym2612"
    },
    {
      "channel": 2,
      "note": 72,
      "start": 43.9533,
      "duration": 0.1226,
      "velocity": 111,
      "chip": "ym2612"
    },
    {
      "channel": 3,
      "note": 61,
      "start": 43.9556,
      "duration": 0.0446,
      "velocity": 127,
      "chip": "ym2612"
    },
    {
      "channel": 1,
      "note": 46,
      "start": 44.1032,
      "duration": 0.1242,
      "velocity": 108,
      "chip": "ym2612"
    },
    {
      "channel": 2,
      "note": 76,
      "start": 44.105,
      "duration": 0.1227,
      "velocity": 111,
      "chip": "ym2612"
    },
    {
      "channel": 3,
      "note": 61,
      "start": 44.1071,
      "duration": 0.0447,
      "velocity": 127,
      "chip": "ym2612"
    },
    {
      "channel": 4,
      "note": 72,
      "start": 44.1791,
      "duration": 0.1373,
      "velocity": 111,
      "chip": "ym2612"
    },
    {
      "channel": 0,
      "note": 64,
      "start": 44.255,
      "duration": 2.4118,
      "velocity": 109,
      "chip": "ym2612"
    },
    {
      "channel": 1,
      "note": 45,
      "start": 44.2572,
      "duration": 0.4387,
      "velocity": 108,
      "chip": "ym2612"
    },
    {
      "channel": 2,
      "note": 81,
      "start": 44.2591,
      "duration": 2.1056,
      "velocity": 111,
      "chip": "ym2612"
    },
    {
      "channel": 3,
      "note": 61,
      "start": 44.2649,
      "duration": 0.0513,
      "velocity": 127,
      "chip": "ym2612"
    },
    {
      "channel": 5,
      "note": 64,
      "start": 44.2813,
      "duration": 2.3992,
      "velocity": 109,
      "chip": "ym2612"
    },
    {
      "channel": 4,
      "note": 76,
      "start": 44.3434,
      "duration": 0.1246,
      "velocity": 111,
      "chip": "ym2612"
    },
    {
      "channel": 3,
      "note": 61,
      "start": 44.4231,
      "duration": 0.0448,
      "velocity": 127,
      "chip": "ym2612"
    },
    {
      "channel": 4,
      "note": 81,
      "start": 44.4951,
      "duration": 2.0964,
      "velocity": 111,
      "chip": "ym2612"
    },
    {
      "channel": 3,
      "note": 61,
      "start": 44.5716,
      "duration": 0.0485,
      "velocity": 127,
      "chip": "ym2612"
    },
    {
      "channel": 1,
      "note": 45,
      "start": 44.7217,
      "duration": 0.4283,
      "velocity": 108,
      "chip": "ym2612"
    },
    {
      "channel": 3,
      "note": 61,
      "start": 44.7273,
      "duration": 0.0439,
      "velocity": 127,
      "chip": "ym2612"
    },
    {
      "channel": 3,
      "note": 61,
      "start": 44.8773,
      "duration": 0.0456,
      "velocity": 127,
      "chip": "ym2612"
    },
    {
      "channel": 3,
      "note": 61,
      "start": 45.0258,
      "duration": 0.0488,
      "velocity": 127,
      "chip": "ym2612"
    },
    {
      "channel": 1,
      "note": 45,
      "start": 45.1768,
      "duration": 0.1249,
      "velocity": 108,
      "chip": "ym2612"
    },
    {
      "channel": 3,
      "note": 61,
      "start": 45.1839,
      "duration": 0.0424,
      "velocity": 127,
      "chip": "ym2612"
    },
    {
      "channel": 1,
      "note": 45,
      "start": 45.3285,
      "duration": 0.1249,
      "velocity": 108,
      "chip": "ym2612"
    },
    {
      "channel": 3,
      "note": 61,
      "start": 45.3307,
      "duration": 0.0472,
      "velocity": 127,
      "chip": "ym2612"
    },
    {
      "channel": 1,
      "note": 45,
      "start": 45.4818,
      "duration": 0.4267,
      "velocity": 108,
      "chip": "ym2612"
    },
    {
      "channel": 3,
      "note": 61,
      "start": 45.4883,
      "duration": 0.0422,
      "velocity": 127,
      "chip": "ym2612"
    },
    {
      "channel": 3,
      "note": 61,
      "start": 45.6365,
      "duration": 0.0448,
      "velocity": 127,
      "chip": "ym2612"
    },
    {
      "channel": 3,
      "note": 61,
      "start": 45.7842,
      "duration": 0.0488,
      "velocity": 127,
      "chip": "ym2612"
    },
    {
      "channel": 1,
      "note": 45,
      "start": 45.9365,
      "duration": 0.428,
      "velocity": 108,
      "chip": "ym2612"
    },
    {
      "channel": 3,
      "note": 61,
      "start": 45.9421,
      "duration": 0.0425,
      "velocity": 127,
      "chip": "ym2612"
    },
    {
      "channel": 3,
      "note": 61,
      "start": 46.0916,
      "duration": 0.0452,
      "velocity": 127,
      "chip": "ym2612"
    },
    {
      "channel": 3,
      "note": 61,
      "start": 46.2392,
      "duration": 0.0488,
      "velocity": 127,
      "chip": "ym2612"
    },
    {
      "channel": 1,
      "note": 45,
      "start": 46.3902,
      "duration": 0.1249,
      "velocity": 108,
      "chip": "ym2612"
    },
    {
      "channel": 2,
      "note": 74,
      "start": 46.3921,
      "duration": 0.1233,
      "velocity": 111,
      "chip": "ym2612"
    },
    {
      "channel": 3,
      "note": 61,
      "start": 46.3975,
      "duration": 0.0422,
      "velocity": 127,
      "chip": "ym2612"
    },
    {
      "channel": 1,
      "note": 45,
      "start": 46.5419,
      "duration": 0.1251,
      "velocity": 108,
      "chip": "ym2612"
    },
    {
      "channel": 2,
      "note": 77,
      "start": 46.5437,
      "duration": 0.1235,
      "velocity": 111,
      "chip": "ym2612"
    },
    {
      "channel": 3,
      "note": 61,
      "start": 46.5458,
      "duration": 0.0456,
      "velocity": 127,
      "chip": "ym2612"
    },
    {
      "channel": 4,
      "note": 74,
      "start": 46.6186,
      "duration": 0.1246,
      "velocity": 111,
      "chip": "ym2612"
    },
    {
      "channel": 0,
      "note": 65,
      "start": 46.6935,
      "duration": 1.1868,
      "velocity": 109,
      "chip": "ym2612"
    },
    {
      "channel": 1,
      "note": 46,
      "start": 46.6956,
      "duration": 0.4263,
      "velocity": 108,
      "chip": "ym2612"
    },
    {
      "channel": 2,
      "note": 82,
      "start": 46.6974,
      "duration": 0.8798,
      "velocity": 111,
      "chip": "ym2612"
    },
    {
      "channel": 3,
      "note": 61,
      "start": 46.7039,
      "duration": 0.0392,
      "velocity": 127,
      "chip": "ym2612"
    },
    {
      "channel": 5,
      "note": 65,
      "start": 46.7082,
      "duration": 1.1856,
      "velocity": 109,
      "chip": "ym2612"
    },
    {
      "channel": 4,
      "note": 77,
      "start": 46.7717,
      "duration": 0.1232,
      "velocity": 111,
      "chip": "ym2612"
    },
    {
      "channel": 3,
      "note": 61,
      "start": 46.8491,
      "duration": 0.0456,
      "velocity": 127,
      "chip": "ym2612"
    },
    {
      "channel": 4,
      "note": 82,
      "start": 46.9222,
      "duration": 0.8828,
      "velocity": 111,
      "chip": "ym2612"
    },
    {
      "channel": 3,
      "note": 61,
      "start": 46.9977,
      "duration": 0.0487,
      "velocity": 127,
      "chip": "ym2612"
    },
    {
      "channel": 1,
      "note": 46,
      "start": 47.1486,
      "duration": 0.4283,
      "velocity": 108,
      "chip": "ym2612"
    },
    {
      "channel": 3,
      "note": 61,
      "start": 47.1551,
      "duration": 0.0443,
      "velocity": 127,
      "chip": "ym2612"
    },
    {
      "channel": 3,
      "note": 61,
      "start": 47.305,
      "duration": 0.0448,
      "velocity": 127,
      "chip": "ym2612"
    },
    {
      "channel": 3,
      "note": 61,
      "start": 47.4535,
      "duration": 0.0479,
      "velocity": 127,
      "chip": "ym2612"
    },
    {
      "channel": 1,
      "note": 46,
      "start": 47.6051,
      "duration": 0.1235,
      "velocity": 108,
      "chip": "ym2612"
    },
    {
      "channel": 2,
      "note": 76,
      "start": 47.6069,
      "duration": 0.122,
      "velocity": 111,
      "chip": "ym2612"
    },
    {
      "channel": 3,
      "note": 61,
      "start": 47.6123,
      "duration": 0.0412,
      "velocity": 127,
      "chip": "ym2612"
    },
    {
      "channel": 1,
      "note": 46,
      "start": 47.7553,
      "duration": 0.1251,
      "velocity": 108,
      "chip": "ym2612"
    },
    {
      "channel": 2,
      "note": 79,
      "start": 47.7572,
      "duration": 0.1235,
      "velocity": 111,
      "chip": "ym2612"
    },
    {
      "channel": 3,
      "note": 61,
      "start": 47.7593,
      "duration": 0.0456,
      "velocity": 127,
      "chip": "ym2612"
    },
    {
      "channel": 4,
      "note": 76,
      "start": 47.8321,
      "duration": 0.1246,
      "velocity": 111,
      "chip": "ym2612"
    },
    {
      "channel": 0,
      "note": 67,
      "start": 47.907,
      "duration": 1.035,
      "velocity": 109,
      "chip": "ym2612"
    },
    {
      "channel": 1,
      "note": 48,
      "start": 47.9086,
      "duration": 0.4276,
      "velocity": 108,
      "chip": "ym2612"
    },
    {
      "channel": 2,
      "note": 84,
      "start": 47.9105,
      "duration": 0.426,
      "velocity": 111,
      "chip": "ym2612"
    },
    {
      "channel": 3,
      "note": 61,
      "start": 47.9162,
      "duration": 0.0403,
      "velocity": 127,
      "chip": "ym2612"
    },
    {
      "channel": 5,
      "note": 67,
      "start": 47.9215,
      "duration": 1.0341,
      "velocity": 109,
      "chip": "ym2612"
    },
    {
      "channel": 4,
      "note": 79,
      "start": 47.9837,
      "duration": 0.1249,
      "velocity": 111,
      "chip": "ym2612"
    },
    {
      "channel": 4,
      "note": 84,
      "start": 48.1363,
      "duration": 0.4272,
      "velocity": 111,
      "chip": "ym2612"
    },
    {
      "channel": 1,
      "note": 48,
      "start": 48.3621,
      "duration": 0.4284,
      "velocity": 108,
      "chip": "ym2612"
    },
    {
      "channel": 2,
      "note": 88,
      "start": 48.3639,
      "duration": 0.5785,
      "velocity": 111,
      "chip": "ym2612"
    },
    {
      "channel": 3,
      "note": 61,
      "start": 48.3702,
      "duration": 0.0413,
      "velocity": 127,
      "chip": "ym2612"
    },
    {
      "channel": 3,
      "note": 61,
      "start": 48.4397,
      "duration": 0.0476,
      "velocity": 127,
      "chip": "ym2612"
    },
    {
      "channel": 3,
      "note": 61,
      "start": 48.5146,
      "duration": 0.0486,
      "velocity": 127,
      "chip": "ym2612"
    },
    {
      "channel": 3,
      "note": 61,
      "start": 48.5905,
      "duration": 0.0486,
      "velocity": 127,
      "chip": "ym2612"
    },
    {
      "channel": 4,
      "note": 88,
      "start": 48.5922,
      "duration": 0.5908,
      "velocity": 111,
      "chip": "ym2612"
    },
    {
      "channel": 3,
      "note": 61,
      "start": 48.6663,
      "duration": 0.0486,
      "velocity": 127,
      "chip": "ym2612"
    },
    {
      "channel": 3,
      "note": 61,
      "start": 48.7421,
      "duration": 0.0487,
      "velocity": 127,
      "chip": "ym2612"
    },
    {
      "channel": 1,
      "note": 48,
      "start": 48.8171,
      "duration": 0.1251,
      "velocity": 108,
      "chip": "ym2612"
    },
    {
      "channel": 3,
      "note": 61,
      "start": 48.8204,
      "duration": 0.0475,
      "velocity": 127,
      "chip": "ym2612"
    },
    {
      "channel": 3,
      "note": 61,
      "start": 48.8939,
      "duration": 0.0489,
      "velocity": 127,
      "chip": "ym2612"
    },
    {
      "channel": 0,
      "note": 50,
      "start": 48.9698,
      "duration": 0.2883,
      "velocity": 109,
      "chip": "ym2612"
    },
    {
      "channel": 1,
      "note": 50,
      "start": 48.9718,
      "duration": 0.2865,
      "velocity": 108,
      "chip": "ym2612"
    },
    {
      "channel": 2,
      "note": 81,
      "start": 48.977,
      "duration": 0.7364,
      "velocity": 102,
      "chip": "ym2612"
    },
    {
      "channel": 3,
      "note": 61,
      "start": 48.9827,
      "duration": 0.0482,
      "velocity": 127,
      "chip": "ym2612"
    },
    {
      "channel": 5,
      "note": 50,
      "start": 48.9953,
      "duration": 0.2768,
      "velocity": 109,
      "chip": "ym2612"
    },
    {
      "channel": 4,
      "note": 81,
      "start": 49.2133,
      "duration": 0.7408,
      "velocity": 102,
      "chip": "ym2612"
    },
    {
      "channel": 0,
      "note": 50,
      "start": 49.2864,
      "duration": 0.0095,
      "velocity": 109,
      "chip": "ym2612"
    },
    {
      "channel": 1,
      "note": 50,
      "start": 49.2883,
      "duration": 0.1215,
      "velocity": 108,
      "chip": "ym2612"
    },
    {
      "channel": 5,
      "note": 50,
      "start": 49.2985,
      "duration": 0.0111,
      "velocity": 109,
      "chip": "ym2612"
    },
    {
      "channel": 0,
      "note": 65,
      "start": 49.4372,
      "duration": 0.1241,
      "velocity": 109,
      "chip": "ym2612"
    },
    {
      "channel": 1,
      "note": 50,
      "start": 49.439,
      "duration": 0.1225,
      "velocity": 108,
      "chip": "ym2612"
    },
    {
      "channel": 3,
      "note": 61,
      "start": 49.4445,
      "duration": 0.0424,
      "velocity": 127,
      "chip": "ym2612"
    },
    {
      "channel": 5,
      "note": 65,
      "start": 49.4502,
      "duration": 0.1248,
      "velocity": 109,
      "chip": "ym2612"
    },
    {
      "channel": 0,
      "note": 50,
      "start": 49.5881,
      "duration": 0.0112,
      "velocity": 109,
      "chip": "ym2612"
    },
    {
      "channel": 1,
      "note": 50,
      "start": 49.5899,
      "duration": 0.1232,
      "velocity": 108,
      "chip": "ym2612"
    },
    {
      "channel": 5,
      "note": 50,
      "start": 49.6018,
      "duration": 0.0111,
      "velocity": 109,
      "chip": "ym2612"
    },
    {
      "channel": 0,
      "note": 64,
      "start": 49.7398,
      "duration": 0.1375,
      "velocity": 109,
      "chip": "ym2612"
    },
    {
      "channel": 1,
      "note": 50,
      "start": 49.7416,
      "duration": 0.136,
      "velocity": 108,
      "chip": "ym2612"
    },
    {
      "channel": 2,
      "note": 79,
      "start": 49.7434,
      "duration": 0.2859,
      "velocity": 102,
      "chip": "ym2612"
    },
    {
      "channel": 3,
      "note": 61,
      "start": 49.7491,
      "duration": 0.0528,
      "velocity": 127,
      "chip": "ym2612"
    },
    {
      "channel": 5,
      "note": 64,
      "start": 49.7661,
      "duration": 0.1249,
      "velocity": 109,
      "chip": "ym2612"
    },
    {
      "channel": 0,
      "note": 50,
      "start": 49.9045,
      "duration": 0.0108,
      "velocity": 109,
      "chip": "ym2612"
    },
    {
      "channel": 1,
      "note": 50,
      "start": 49.9063,
      "duration": 0.1228,
      "velocity": 108,
      "chip": "ym2612"
    },
    {
      "channel": 5,
      "note": 50,
      "start": 49.9178,
      "duration": 0.0111,
      "velocity": 109,
      "chip": "ym2612"
    },
    {
      "channel": 4,
      "note": 79,
      "start": 49.9809,
      "duration": 0.3016,
      "velocity": 102,
      "chip": "ym2612"
    },
    {
      "channel": 0,
      "note": 65,
      "start": 50.0558,
      "duration": 0.1376,
      "velocity": 109,
      "chip": "ym2612"
    },
    {
      "channel": 1,
      "note": 50,
      "start": 50.0576,
      "duration": 0.1359,
      "velocity": 108,
      "chip": "ym2612"
    },
    {
      "channel": 2,
      "note": 77,
      "start": 50.0594,
      "duration": 0.1344,
      "velocity": 102,
      "chip": "ym2612"
    },
    {
      "channel": 3,
      "note": 61,
      "start": 50.0647,
      "duration": 0.0551,
      "velocity": 127,
      "chip": "ym2612"
    },
    {
      "channel": 5,
      "note": 65,
      "start": 50.0821,
      "duration": 0.1249,
      "velocity": 109,
      "chip": "ym2612"
    },
    {
      "channel": 0,
      "note": 50,
      "start": 50.2212,
      "duration": 0.2883,
      "velocity": 109,
      "chip": "ym2612"
    },
    {
      "channel": 1,
      "note": 50,
      "start": 50.2233,
      "duration": 0.2864,
      "velocity": 108,
      "chip": "ym2612"
    },
    {
      "channel": 2,
      "note": 81,
      "start": 50.2251,
      "duration": 0.1328,
      "velocity": 102,
      "chip": "ym2612"
    },
    {
      "channel": 3,
      "note": 61,
      "start": 50.2304,
      "duration": 0.0519,
      "velocity": 127,
      "chip": "ym2612"
    },
    {
      "channel": 5,
      "note": 50,
      "start": 50.2467,
      "duration": 0.2768,
      "velocity": 109,
      "chip": "ym2612"
    },
    {
      "channel": 4,
      "note": 77,
      "start": 50.3096,
      "duration": 0.1249,
      "velocity": 102,
      "chip": "ym2612"
    },
    {
      "channel": 4,
      "note": 81,
      "start": 50.4612,
      "duration": 0.1254,
      "velocity": 102,
      "chip": "ym2612"
    },
    {
      "channel": 0,
      "note": 50,
      "start": 50.5379,
      "duration": 0.0094,
      "velocity": 109,
      "chip": "ym2612"
    },
    {
      "channel": 1,
      "note": 50,
      "start": 50.5397,
      "duration": 0.1214,
      "velocity": 108,
      "chip": "ym2612"
    },
    {
      "channel": 2,
      "note": 74,
      "start": 50.5415,
      "duration": 0.8786,
      "velocity": 102,
      "chip": "ym2612"
    },
    {
      "channel": 3,
      "note": 61,
      "start": 50.5436,
      "duration": 0.0429,
      "velocity": 127,
      "chip": "ym2612"
    },
    {
      "channel": 5,
      "note": 50,
      "start": 50.5498,
      "duration": 0.0107,
      "velocity": 109,
      "chip": "ym2612"
    },
    {
      "channel": 0,
      "note": 65,
      "start": 50.6878,
      "duration": 0.1249,
      "velocity": 109,
      "chip": "ym2612"
    },
    {
      "channel": 1,
      "note": 50,
      "start": 50.6897,
      "duration": 0.1233,
      "velocity": 108,
      "chip": "ym2612"
    },
    {
      "channel": 3,
      "note": 61,
      "start": 50.6951,
      "duration": 0.0422,
      "velocity": 127,
      "chip": "ym2612"
    },
    {
      "channel": 5,
      "note": 65,
      "start": 50.7017,
      "duration": 0.1247,
      "velocity": 109,
      "chip": "ym2612"
    },
    {
      "channel": 4,
      "note": 74,
      "start": 50.7646,
      "duration": 0.8959,
      "velocity": 102,
      "chip": "ym2612"
    },
    {
      "channel": 0,
      "note": 50,
      "start": 50.8395,
      "duration": 0.0112,
      "velocity": 109,
      "chip": "ym2612"
    },
    {
      "channel": 1,
      "note": 50,
      "start": 50.8412,
      "duration": 0.1232,
      "velocity": 108,
      "chip": "ym2612"
    },
    {
      "channel": 5,
      "note": 50,
      "start": 50.854,
      "duration": 0.0102,
      "velocity": 109,
      "chip": "ym2612"
    },
    {
      "channel": 0,
      "note": 64,
      "start": 50.9911,
      "duration": 0.125,
      "velocity": 109,
      "chip": "ym2612"
    },
    {
      "channel": 1,
      "note": 50,
      "start": 50.993,
      "duration": 0.1234,
      "velocity": 108,
      "chip": "ym2612"
    },
    {
      "channel": 3,
      "note": 61,
      "start": 50.9986,
      "duration": 0.0422,
      "velocity": 127,
      "chip": "ym2612"
    },
    {
      "channel": 5,
      "note": 64,
      "start": 51.0056,
      "duration": 0.1241,
      "velocity": 109,
      "chip": "ym2612"
    },
    {
      "channel": 0,
      "note": 62,
      "start": 51.1428,
      "duration": 0.0112,
      "velocity": 109,
      "chip": "ym2612"
    },
    {
      "channel": 1,
      "note": 50,
      "start": 51.1446,
      "duration": 0.1233,
      "velocity": 108,
      "chip": "ym2612"
    },
    {
      "channel": 5,
      "note": 62,
      "start": 51.1566,
      "duration": 0.0111,
      "velocity": 109,
      "chip": "ym2612"
    },
    {
      "channel": 0,
      "note": 56,
      "start": 51.2945,
      "duration": 0.0112,
      "velocity": 109,
      "chip": "ym2612"
    },
    {
      "channel": 1,
      "note": 44,
      "start": 51.2962,
      "duration": 0.1236,
      "velocity": 108,
      "chip": "ym2612"
    },
    {
      "channel": 3,
      "note": 61,
      "start": 51.3017,
      "duration": 0.0424,
      "velocity": 127,
      "chip": "ym2612"
    },
    {
      "channel": 5,
      "note": 56,
      "start": 51.3082,
      "duration": 0.0116,
      "velocity": 109,
      "chip": "ym2612"
    },
    {
      "channel": 0,
      "note": 46,
      "start": 51.4465,
      "duration": 0.2899,
      "velocity": 109,
      "chip": "ym2612"
    },
    {
      "channel": 1,
      "note": 46,
      "start": 51.4484,
      "duration": 0.2881,
      "velocity": 108,
      "chip": "ym2612"
    },
    {
      "channel": 2,
      "note": 81,
      "start": 51.4502,
      "duration": 0.2866,
      "velocity": 102,
      "chip": "ym2612"
    },
    {
      "channel": 3,
      "note": 61,
      "start": 51.4564,
      "duration": 0.052,
      "velocity": 127,
      "chip": "ym2612"
    },
    {
      "channel": 5,
      "note": 46,
      "start": 51.4728,
      "duration": 0.2763,
      "velocity": 109,
      "chip": "ym2612"
    },
    {
      "channel": 4,
      "note": 81,
      "start": 51.6881,
      "duration": 0.2881,
      "velocity": 102,
      "chip": "ym2612"
    },
    {
      "channel": 0,
      "note": 46,
      "start": 51.7623,
      "duration": 0.0116,
      "velocity": 109,
      "chip": "ym2612"
    },
    {
      "channel": 1,
      "note": 46,
      "start": 51.7641,
      "duration": 0.1232,
      "velocity": 108,
      "chip": "ym2612"
    },
    {
      "channel": 3,
      "note": 61,
      "start": 51.7663,
      "duration": 0.0454,
      "velocity": 127,
      "chip": "ym2612"
    },
    {
      "channel": 5,
      "note": 46,
      "start": 51.7765,
      "duration": 0.0113,
      "velocity": 109,
      "chip": "ym2612"
    },
    {
      "channel": 0,
      "note": 62,
      "start": 51.9138,
      "duration": 0.1377,
      "velocity": 109,
      "chip": "ym2612"
    },
    {
      "channel": 1,
      "note": 46,
      "start": 51.9157,
      "duration": 0.136,
      "velocity": 108,
      "chip": "ym2612"
    },
    {
      "channel": 2,
      "note": 81,
      "start": 51.9175,
      "duration": 0.2869,
      "velocity": 102,
      "chip": "ym2612"
    },
    {
      "channel": 3,
      "note": 61,
      "start": 51.9236,
      "duration": 0.0524,
      "velocity": 127,
      "chip": "ym2612"
    },
    {
      "channel": 5,
      "note": 62,
      "start": 51.9402,
      "duration": 0.1249,
      "velocity": 109,
      "chip": "ym2612"
    },
    {
      "channel": 0,
      "note": 46,
      "start": 52.0782,
      "duration": 0.0111,
      "velocity": 109,
      "chip": "ym2612"
    },
    {
      "channel": 1,
      "note": 46,
      "start": 52.08,
      "duration": 0.1242,
      "velocity": 108,
      "chip": "ym2612"
    },
    {
      "channel": 5,
      "note": 46,
      "start": 52.092,
      "duration": 0.012,
      "velocity": 109,
      "chip": "ym2612"
    },
    {
      "channel": 4,
      "note": 81,
      "start": 52.1554,
      "duration": 0.2887,
      "velocity": 102,
      "chip": "ym2612"
    },
    {
      "channel": 0,
      "note": 60,
      "start": 52.2299,
      "duration": 0.1376,
      "velocity": 109,
      "chip": "ym2612"
    },
    {
      "channel": 1,
      "note": 46,
      "start": 52.2317,
      "duration": 0.136,
      "velocity": 108,
      "chip": "ym2612"
    },
    {
      "channel": 2,
      "note": 79,
      "start": 52.2335,
      "duration": 0.2866,
      "velocity": 102,
      "chip": "ym2612"
    },
    {
      "channel": 3,
      "note": 61,
      "start": 52.2397,
      "duration": 0.0523,
      "velocity": 127,
      "chip": "ym2612"
    },
    {
      "channel": 5,
      "note": 60,
      "start": 52.2562,
      "duration": 0.1249,
      "velocity": 109,
      "chip": "ym2612"
    },
    {
      "channel": 0,
      "note": 46,
      "start": 52.3942,
      "duration": 0.0112,
      "velocity": 109,
      "chip": "ym2612"
    },
    {
      "channel": 1,
      "note": 46,
      "start": 52.396,
      "duration": 0.1239,
      "velocity": 108,
      "chip": "ym2612"
    },
    {
      "channel": 5,
      "note": 46,
      "start": 52.4079,
      "duration": 0.012,
      "velocity": 109,
      "chip": "ym2612"
    },
    {
      "channel": 4,
      "note": 79,
      "start": 52.4719,
      "duration": 0.3007,
      "velocity": 102,
      "chip": "ym2612"
    },
    {
      "channel": 0,
      "note": 46,
      "start": 52.5458,
      "duration": 0.0243,
      "velocity": 109,
      "chip": "ym2612"
    },
    {
      "channel": 1,
      "note": 46,
      "start": 52.5476,
      "duration": 0.1359,
      "velocity": 108,
      "chip": "ym2612"
    },
    {
      "channel": 2,
      "note": 77,
      "start": 52.5495,
      "duration": 0.1344,
      "velocity": 102,
      "chip": "ym2612"
    },
    {
      "channel": 3,
      "note": 61,
      "start": 52.5556,
      "duration": 0.053,
      "velocity": 127,
      "chip": "ym2612"
    },
    {
      "channel": 5,
      "note": 46,
      "start": 52.5727,
      "duration": 0.0102,
      "velocity": 109,
      "chip": "ym2612"
    },
    {
      "channel": 0,
      "note": 48,
      "start": 52.7105,
      "duration": 0.289,
      "velocity": 109,
      "chip": "ym2612"
    },
    {
      "channel": 1,
      "note": 48,
      "start": 52.7126,
      "duration": 0.2871,
      "velocity": 108,
      "chip": "ym2612"
    },
    {
      "channel": 2,
      "note": 76,
      "start": 52.7144,
      "duration": 0.4371,
      "velocity": 102,
      "chip": "ym2612"
    },
    {
      "channel": 3,
      "note": 61,
      "start": 52.7205,
      "duration": 0.0518,
      "velocity": 127,
      "chip": "ym2612"
    },
    {
      "channel": 5,
      "note": 48,
      "start": 52.7376,
      "duration": 0.2758,
      "velocity": 109,
      "chip": "ym2612"
    },
    {
      "channel": 4,
      "note": 77,
      "start": 52.7997,
      "duration": 0.1249,
      "velocity": 102,
      "chip": "ym2612"
    },
    {
      "channel": 4,
      "note": 76,
      "start": 52.9513,
      "duration": 0.4409,
      "velocity": 102,
      "chip": "ym2612"
    },
    {
      "channel": 0,
      "note": 48,
      "start": 53.0267,
      "duration": 0.0116,
      "velocity": 109,
      "chip": "ym2612"
    },
    {
      "channel": 1,
      "note": 48,
      "start": 53.0285,
      "duration": 0.1227,
      "velocity": 108,
      "chip": "ym2612"
    },
    {
      "channel": 3,
      "note": 61,
      "start": 53.0307,
      "duration": 0.045,
      "velocity": 127,
      "chip": "ym2612"
    },
    {
      "channel": 5,
      "note": 48,
      "start": 53.0409,
      "duration": 0.0098,
      "velocity": 109,
      "chip": "ym2612"
    },
    {
      "channel": 0,
      "note": 64,
      "start": 53.1779,
      "duration": 0.1376,
      "velocity": 109,
      "chip": "ym2612"
    },
    {
      "channel": 1,
      "note": 48,
      "start": 53.1797,
      "duration": 0.136,
      "velocity": 108,
      "chip": "ym2612"
    },
    {
      "channel": 2,
      "note": 77,
      "start": 53.1815,
      "duration": 0.4388,
      "velocity": 102,
      "chip": "ym2612"
    },
    {
      "channel": 3,
      "note": 61,
      "start": 53.1876,
      "duration": 0.0524,
      "velocity": 127,
      "chip": "ym2612"
    },
    {
      "channel": 5,
      "note": 64,
      "start": 53.2051,
      "duration": 0.124,
      "velocity": 109,
      "chip": "ym2612"
    },
    {
      "channel": 0,
      "note": 48,
      "start": 53.3422,
      "duration": 0.0112,
      "velocity": 109,
      "chip": "ym2612"
    },
    {
      "channel": 1,
      "note": 48,
      "start": 53.344,
      "duration": 0.1232,
      "velocity": 108,
      "chip": "ym2612"
    },
    {
      "channel": 5,
      "note": 48,
      "start": 53.3559,
      "duration": 0.0111,
      "velocity": 109,
      "chip": "ym2612"
    },
    {
      "channel": 4,
      "note": 77,
      "start": 53.4198,
      "duration": 0.4273,
      "velocity": 102,
      "chip": "ym2612"
    },
    {
      "channel": 0,
      "note": 62,
      "start": 53.4939,
      "duration": 0.1259,
      "velocity": 109,
      "chip": "ym2612"
    },
    {
      "channel": 1,
      "note": 48,
      "start": 53.4957,
      "duration": 0.1242,
      "velocity": 108,
      "chip": "ym2612"
    },
    {
      "channel": 3,
      "note": 61,
      "start": 53.4984,
      "duration": 0.0451,
      "velocity": 127,
      "chip": "ym2612"
    },
    {
      "channel": 5,
      "note": 62,
      "start": 53.5076,
      "duration": 0.1249,
      "velocity": 109,
      "chip": "ym2612"
    },
    {
      "channel": 0,
      "note": 48,
      "start": 53.6456,
      "duration": 0.0111,
      "velocity": 109,
      "chip": "ym2612"
    },
    {
      "channel": 1,
      "note": 48,
      "start": 53.6474,
      "duration": 0.1232,
      "velocity": 108,
      "chip": "ym2612"
    },
    {
      "channel": 2,
      "note": 79,
      "start": 53.6492,
      "duration": 0.2733,
      "velocity": 102,
      "chip": "ym2612"
    },
    {
      "channel": 3,
      "note": 61,
      "start": 53.6513,
      "duration": 0.0438,
      "velocity": 127,
      "chip": "ym2612"
    },
    {
      "channel": 5,
      "note": 48,
      "start": 53.6593,
      "duration": 0.011,
      "velocity": 109,
      "chip": "ym2612"
    },
    {
      "channel": 0,
      "note": 48,
      "start": 53.7972,
      "duration": 0.0113,
      "velocity": 109,
      "chip": "ym2612"
    },
    {
      "channel": 1,
      "note": 48,
      "start": 53.799,
      "duration": 0.1233,
      "velocity": 108,
      "chip": "ym2612"
    },
    {
      "channel": 3,
      "note": 61,
      "start": 53.8012,
      "duration": 0.0456,
      "velocity": 127,
      "chip": "ym2612"
    },
    {
      "channel": 5,
      "note": 48,
      "start": 53.811,
      "duration": 0.0107,
      "velocity": 109,
      "chip": "ym2612"
    },
    {
      "channel": 4,
      "note": 79,
      "start": 53.875,
      "duration": 0.2883,
      "velocity": 102,
      "chip": "ym2612"
    },
    {
      "channel": 0,
      "note": 50,
      "start": 53.9492,
      "duration": 0.289,
      "velocity": 109,
      "chip": "ym2612"
    },
    {
      "channel": 1,
      "note": 50,
      "start": 53.9513,
      "duration": 0.2871,
      "velocity": 108,
      "chip": "ym2612"
    },
    {
      "channel": 2,
      "note": 81,
      "start": 53.9542,
      "duration": 0.7398,
      "velocity": 102,
      "chip": "ym2612"
    },
    {
      "channel": 3,
      "note": 61,
      "start": 53.9598,
      "duration": 0.0513,
      "velocity": 127,
      "chip": "ym2612"
    },
    {
      "channel": 5,
      "note": 50,
      "start": 53.9755,
      "duration": 0.2763,
      "velocity": 109,
      "chip": "ym2612"
    },
    {
      "channel": 4,
      "note": 81,
      "start": 54.1904,
      "duration": 0.7439,
      "velocity": 102,
      "chip": "ym2612"
    },
    {
      "channel": 0,
      "note": 50,
      "start": 54.265,
      "duration": 0.0116,
      "velocity": 109,
      "chip": "ym2612"
    },
    {
      "channel": 1,
      "note": 50,
      "start": 54.2669,
      "duration": 0.1231,
      "velocity": 108,
      "chip": "ym2612"
    },
    {
      "channel": 5,
      "note": 50,
      "start": 54.2792,
      "duration": 0.0115,
      "velocity": 109,
      "chip": "ym2612"
    },
    {
      "channel": 0,
      "note": 65,
      "start": 54.4166,
      "duration": 0.125,
      "velocity": 109,
      "chip": "ym2612"
    },
    {
      "channel": 1,
      "note": 50,
      "start": 54.4184,
      "duration": 0.1234,
      "velocity": 108,
      "chip": "ym2612"
    },
    {
      "channel": 3,
      "note": 61,
      "start": 54.4247,
      "duration": 0.0415,
      "velocity": 127,
      "chip": "ym2612"
    },
    {
      "channel": 5,
      "note": 65,
      "start": 54.4304,
      "duration": 0.1248,
      "velocity": 109,
      "chip": "ym2612"
    },
    {
      "channel": 0,
      "note": 50,
      "start": 54.5683,
      "duration": 0.0112,
      "velocity": 109,
      "chip": "ym2612"
    },
    {
      "channel": 1,
      "note": 50,
      "start": 54.5709,
      "duration": 0.123,
      "velocity": 108,
      "chip": "ym2612"
    },
    {
      "channel": 5,
      "note": 50,
      "start": 54.582,
      "duration": 0.0111,
      "velocity": 109,
      "chip": "ym2612"
    },
    {
      "channel": 0,
      "note": 64,
      "start": 54.7208,
      "duration": 0.1367,
      "velocity": 109,
      "chip": "ym2612"
    },
    {
      "channel": 1,
      "note": 50,
      "start": 54.7226,
      "duration": 0.1351,
      "velocity": 108,
      "chip": "ym2612"
    },
    {
      "channel": 2,
      "note": 79,
      "start": 54.7245,
      "duration": 0.2851,
      "velocity": 102,
      "chip": "ym2612"
    },
    {
      "channel": 3,
      "note": 61,
      "start": 54.7302,
      "duration": 0.052,
      "velocity": 127,
      "chip": "ym2612"
    },
    {
      "channel": 5,
      "note": 64,
      "start": 54.7463,
      "duration": 0.1249,
      "velocity": 109,
      "chip": "ym2612"
    },
    {
      "channel": 0,
      "note": 50,
      "start": 54.8843,
      "duration": 0.0112,
      "velocity": 109,
      "chip": "ym2612"
    },
    {
      "channel": 1,
      "note": 50,
      "start": 54.8869,
      "duration": 0.1224,
      "velocity": 108,
      "chip": "ym2612"
    },
    {
      "channel": 5,
      "note": 50,
      "start": 54.898,
      "duration": 0.0111,
      "velocity": 109,
      "chip": "ym2612"
    },
    {
      "channel": 4,
      "note": 79,
      "start": 54.9611,
      "duration": 0.3016,
      "velocity": 102,
      "chip": "ym2612"
    },
    {
      "channel": 0,
      "note": 65,
      "start": 55.0368,
      "duration": 0.1368,
      "velocity": 109,
      "chip": "ym2612"
    },
    {
      "channel": 1,
      "note": 50,
      "start": 55.0386,
      "duration": 0.1351,
      "velocity": 108,
      "chip": "ym2612"
    },
    {
      "channel": 2,
      "note": 77,
      "start": 55.0404,
      "duration": 0.1336,
      "velocity": 102,
      "chip": "ym2612"
    },
    {
      "channel": 3,
      "note": 61,
      "start": 55.0458,
      "duration": 0.0525,
      "velocity": 127,
      "chip": "ym2612"
    },
    {
      "channel": 5,
      "note": 65,
      "start": 55.0623,
      "duration": 0.1251,
      "velocity": 109,
      "chip": "ym2612"
    },
    {
      "channel": 0,
      "note": 50,
      "start": 55.2005,
      "duration": 0.289,
      "velocity": 109,
      "chip": "ym2612"
    },
    {
      "channel": 1,
      "note": 50,
      "start": 55.2035,
      "duration": 0.2863,
      "velocity": 108,
      "chip": "ym2612"
    },
    {
      "channel": 2,
      "note": 81,
      "start": 55.2053,
      "duration": 0.1328,
      "velocity": 102,
      "chip": "ym2612"
    },
    {
      "channel": 3,
      "note": 61,
      "start": 55.2106,
      "duration": 0.0519,
      "velocity": 127,
      "chip": "ym2612"
    },
    {
      "channel": 5,
      "note": 50,
      "start": 55.2269,
      "duration": 0.2771,
      "velocity": 109,
      "chip": "ym2612"
    },
    {
      "channel": 4,
      "note": 77,
      "start": 55.2897,
      "duration": 0.1249,
      "velocity": 102,
      "chip": "ym2612"
    },
    {
      "channel": 4,
      "note": 81,
      "start": 55.4415,
      "duration": 0.1246,
      "velocity": 102,
      "chip": "ym2612"
    },
    {
      "channel": 0,
      "note": 50,
      "start": 55.5164,
      "duration": 0.0118,
      "velocity": 109,
      "chip": "ym2612"
    },
    {
      "channel": 1,
      "note": 50,
      "start": 55.5182,
      "duration": 0.1231,
      "velocity": 108,
      "chip": "ym2612"
    },
    {
      "channel": 2,
      "note": 74,
      "start": 55.5209,
      "duration": 0.8791,
      "velocity": 102,
      "chip": "ym2612"
    },
    {
      "channel": 3,
      "note": 61,
      "start": 55.523,
      "duration": 0.0428,
      "velocity": 127,
      "chip": "ym2612"
    },
    {
      "channel": 5,
      "note": 50,
      "start": 55.5307,
      "duration": 0.0109,
      "velocity": 109,
      "chip": "ym2612"
    },
    {
      "channel": 0,
      "note": 65,
      "start": 55.668,
      "duration": 0.1249,
      "velocity": 109,
      "chip": "ym2612"
    },
    {
      "channel": 1,
      "note": 50,
      "start": 55.6706,
      "duration": 0.1225,
      "velocity": 108,
      "chip": "ym2612"
    },
    {
      "channel": 3,
      "note": 61,
      "start": 55.6761,
      "duration": 0.0415,
      "velocity": 127,
      "chip": "ym2612"
    },
    {
      "channel": 5,
      "note": 65,
      "start": 55.6827,
      "duration": 0.1239,
      "velocity": 109,
      "chip": "ym2612"
    },
    {
      "channel": 4,
      "note": 74,
      "start": 55.7448,
      "duration": 0.8959,
      "velocity": 102,
      "chip": "ym2612"
    },
    {
      "channel": 0,
      "note": 50,
      "start": 55.8205,
      "duration": 0.0103,
      "velocity": 109,
      "chip": "ym2612"
    },
    {
      "channel": 1,
      "note": 50,
      "start": 55.8223,
      "duration": 0.1229,
      "velocity": 108,
      "chip": "ym2612"
    },
    {
      "channel": 5,
      "note": 50,
      "start": 55.8334,
      "duration": 0.0111,
      "velocity": 109,
      "chip": "ym2612"
    },
    {
      "channel": 0,
      "note": 64,
      "start": 55.9713,
      "duration": 0.1249,
      "velocity": 109,
      "chip": "ym2612"
    },
    {
      "channel": 1,
      "note": 50,
      "start": 55.9731,
      "duration": 0.1233,
      "velocity": 108,
      "chip": "ym2612"
    },
    {
      "channel": 3,
      "note": 61,
      "start": 55.9787,
      "duration": 0.0422,
      "velocity": 127,
      "chip": "ym2612"
    },
    {
      "channel": 5,
      "note": 64,
      "start": 55.9851,
      "duration": 0.1248,
      "velocity": 109,
      "chip": "ym2612"
    },
    {
      "channel": 0,
      "note": 62,
      "start": 56.123,
      "duration": 0.0112,
      "velocity": 109,
      "chip": "ym2612"
    },
    {
      "channel": 1,
      "note": 50,
      "start": 56.1248,
      "duration": 0.1232,
      "velocity": 108,
      "chip": "ym2612"
    },
    {
      "channel": 5,
      "note": 62,
      "start": 56.1376,
      "duration": 0.0102,
      "velocity": 109,
      "chip": "ym2612"
    },
    {
      "channel": 0,
      "note": 56,
      "start": 56.2746,
      "duration": 0.0117,
      "velocity": 109,
      "chip": "ym2612"
    },
    {
      "channel": 1,
      "note": 44,
      "start": 56.2764,
      "duration": 0.1233,
      "velocity": 108,
      "chip": "ym2612"
    },
    {
      "channel": 3,
      "note": 61,
      "start": 56.2818,
      "duration": 0.0424,
      "velocity": 127,
      "chip": "ym2612"
    },
    {
      "channel": 5,
      "note": 56,
      "start": 56.2889,
      "duration": 0.0102,
      "velocity": 109,
      "chip": "ym2612"
    },
    {
      "channel": 0,
      "note": 46,
      "start": 56.4267,
      "duration": 0.289,
      "velocity": 109,
      "chip": "ym2612"
    },
    {
      "channel": 1,
      "note": 46,
      "start": 56.4286,
      "duration": 0.2873,
      "velocity": 108,
      "chip": "ym2612"
    },
    {
      "channel": 2,
      "note": 81,
      "start": 56.4304,
      "duration": 0.2857,
      "velocity": 102,
      "chip": "ym2612"
    },
    {
      "channel": 3,
      "note": 61,
      "start": 56.4366,
      "duration": 0.052,
      "velocity": 127,
      "chip": "ym2612"
    },
    {
      "channel": 5,
      "note": 46,
      "start": 56.4538,
      "duration": 0.2755,
      "velocity": 109,
      "chip": "ym2612"
    },
    {
      "channel": 4,
      "note": 81,
      "start": 56.6675,
      "duration": 0.2889,
      "velocity": 102,
      "chip": "ym2612"
    },
    {
      "channel": 0,
      "note": 46,
      "start": 56.7424,
      "duration": 0.0116,
      "velocity": 109,
      "chip": "ym2612"
    },
    {
      "channel": 1,
      "note": 46,
      "start": 56.7442,
      "duration": 0.1232,
      "velocity": 108,
      "chip": "ym2612"
    },
    {
      "channel": 3,
      "note": 61,
      "start": 56.7465,
      "duration": 0.0464,
      "velocity": 127,
      "chip": "ym2612"
    },
    {
      "channel": 5,
      "note": 46,
      "start": 56.7566,
      "duration": 0.0103,
      "velocity": 109,
      "chip": "ym2612"
    },
    {
      "channel": 0,
      "note": 62,
      "start": 56.8941,
      "duration": 0.1376,
      "velocity": 109,
      "chip": "ym2612"
    },
    {
      "channel": 1,
      "note": 46,
      "start": 56.8959,
      "duration": 0.1359,
      "velocity": 108,
      "chip": "ym2612"
    },
    {
      "channel": 2,
      "note": 81,
      "start": 56.8977,
      "duration": 0.2861,
      "velocity": 102,
      "chip": "ym2612"
    },
    {
      "channel": 3,
      "note": 61,
      "start": 56.9039,
      "duration": 0.0524,
      "velocity": 127,
      "chip": "ym2612"
    },
    {
      "channel": 5,
      "note": 62,
      "start": 56.9212,
      "duration": 0.124,
      "velocity": 109,
      "chip": "ym2612"
    },
    {
      "channel": 0,
      "note": 46,
      "start": 57.0584,
      "duration": 0.0114,
      "velocity": 109,
      "chip": "ym2612"
    },
    {
      "channel": 1,
      "note": 46,
      "start": 57.0602,
      "duration": 0.1234,
      "velocity": 108,
      "chip": "ym2612"
    },
    {
      "channel": 5,
      "note": 46,
      "start": 57.0723,
      "duration": 0.0109,
      "velocity": 109,
      "chip": "ym2612"
    },
    {
      "channel": 4,
      "note": 81,
      "start": 57.1352,
      "duration": 0.2892,
      "velocity": 102,
      "chip": "ym2612"
    },
    {
      "channel": 0,
      "note": 60,
      "start": 57.211,
      "duration": 0.1367,
      "velocity": 109,
      "chip": "ym2612"
    },
    {
      "channel": 1,
      "note": 46,
      "start": 57.2127,
      "duration": 0.1351,
      "velocity": 108,
      "chip": "ym2612"
    },
    {
      "channel": 2,
      "note": 79,
      "start": 57.2146,
      "duration": 0.2851,
      "velocity": 102,
      "chip": "ym2612"
    },
    {
      "channel": 3,
      "note": 61,
      "start": 57.2208,
      "duration": 0.0514,
      "velocity": 127,
      "chip": "ym2612"
    },
    {
      "channel": 5,
      "note": 60,
      "start": 57.2372,
      "duration": 0.1241,
      "velocity": 109,
      "chip": "ym2612"
    },
    {
      "channel": 0,
      "note": 46,
      "start": 57.3744,
      "duration": 0.012,
      "velocity": 109,
      "chip": "ym2612"
    },
    {
      "channel": 1,
      "note": 46,
      "start": 57.3762,
      "duration": 0.1232,
      "velocity": 108,
      "chip": "ym2612"
    },
    {
      "channel": 5,
      "note": 46,
      "start": 57.389,
      "duration": 0.0102,
      "velocity": 109,
      "chip": "ym2612"
    },
    {
      "channel": 4,
      "note": 79,
      "start": 57.4512,
      "duration": 0.3025,
      "velocity": 102,
      "chip": "ym2612"
    },
    {
      "channel": 0,
      "note": 46,
      "start": 57.5261,
      "duration": 0.0239,
      "velocity": 109,
      "chip": "ym2612"
    },
    {
      "channel": 1,
      "note": 46,
      "start": 57.5278,
      "duration": 0.1359,
      "velocity": 108,
      "chip": "ym2612"
    },
    {
      "channel": 2,
      "note": 77,
      "start": 57.5297,
      "duration": 0.1343,
      "velocity": 102,
      "chip": "ym2612"
    },
    {
      "channel": 3,
      "note": 61,
      "start": 57.5349,
      "duration": 0.0533,
      "velocity": 127,
      "chip": "ym2612"
    },
    {
      "channel": 5,
      "note": 46,
      "start": 57.5533,
      "duration": 0.0099,
      "velocity": 109,
      "chip": "ym2612"
    },
    {
      "channel": 0,
      "note": 48,
      "start": 57.6907,
      "duration": 0.289,
      "velocity": 109,
      "chip": "ym2612"
    },
    {
      "channel": 1,
      "note": 48,
      "start": 57.6928,
      "duration": 0.2871,
      "velocity": 108,
      "chip": "ym2612"
    },
    {
      "channel": 2,
      "note": 76,
      "start": 57.6946,
      "duration": 0.4371,
      "velocity": 102,
      "chip": "ym2612"
    },
    {
      "channel": 3,
      "note": 61,
      "start": 57.6998,
      "duration": 0.0537,
      "velocity": 127,
      "chip": "ym2612"
    },
    {
      "channel": 5,
      "note": 48,
      "start": 57.717,
      "duration": 0.2763,
      "velocity": 109,
      "chip": "ym2612"
    },
    {
      "channel": 4,
      "note": 77,
      "start": 57.7799,
      "duration": 0.1246,
      "velocity": 102,
      "chip": "ym2612"
    },
    {
      "channel": 3,
      "note": 61,
      "start": 57.8587,
      "duration": 0.0456,
      "velocity": 127,
      "chip": "ym2612"
    },
    {
      "channel": 4,
      "note": 76,
      "start": 57.9315,
      "duration": 0.4283,
      "velocity": 102,
      "chip": "ym2612"
    },
    {
      "channel": 0,
      "note": 48,
      "start": 58.0064,
      "duration": 0.0112,
      "velocity": 109,
      "chip": "ym2612"
    },
    {
      "channel": 1,
      "note": 48,
      "start": 58.0082,
      "duration": 0.1232,
      "velocity": 108,
      "chip": "ym2612"
    },
    {
      "channel": 3,
      "note": 61,
      "start": 58.0104,
      "duration": 0.0455,
      "velocity": 127,
      "chip": "ym2612"
    },
    {
      "channel": 5,
      "note": 48,
      "start": 58.0211,
      "duration": 0.0102,
      "velocity": 109,
      "chip": "ym2612"
    },
    {
      "channel": 0,
      "note": 64,
      "start": 58.158,
      "duration": 0.125,
      "velocity": 109,
      "chip": "ym2612"
    },
    {
      "channel": 1,
      "note": 48,
      "start": 58.1599,
      "duration": 0.1234,
      "velocity": 108,
      "chip": "ym2612"
    },
    {
      "channel": 2,
      "note": 77,
      "start": 58.1617,
      "duration": 0.4378,
      "velocity": 102,
      "chip": "ym2612"
    },
    {
      "channel": 3,
      "note": 61,
      "start": 58.167,
      "duration": 0.0406,
      "velocity": 127,
      "chip": "ym2612"
    },
    {
      "channel": 5,
      "note": 64,
      "start": 58.1734,
      "duration": 0.1233,
      "velocity": 109,
      "chip": "ym2612"
    },
    {
      "channel": 0,
      "note": 48,
      "start": 58.3098,
      "duration": 0.0112,
      "velocity": 109,
      "chip": "ym2612"
    },
    {
      "channel": 1,
      "note": 48,
      "start": 58.3115,
      "duration": 0.1234,
      "velocity": 108,
      "chip": "ym2612"
    },
    {
      "channel": 5,
      "note": 48,
      "start": 58.3235,
      "duration": 0.0111,
      "velocity": 109,
      "chip": "ym2612"
    },
    {
      "channel": 4,
      "note": 77,
      "start": 58.3874,
      "duration": 0.4398,
      "velocity": 102,
      "chip": "ym2612"
    },
    {
      "channel": 0,
      "note": 62,
      "start": 58.4623,
      "duration": 0.1367,
      "velocity": 109,
      "chip": "ym2612"
    },
    {
      "channel": 1,
      "note": 48,
      "start": 58.4641,
      "duration": 0.1351,
      "velocity": 108,
      "chip": "ym2612"
    },
    {
      "channel": 3,
      "note": 61,
      "start": 58.4707,
      "duration": 0.0529,
      "velocity": 127,
      "chip": "ym2612"
    },
    {
      "channel": 5,
      "note": 62,
      "start": 58.4887,
      "duration": 0.124,
      "velocity": 109,
      "chip": "ym2612"
    },
    {
      "channel": 0,
      "note": 48,
      "start": 58.6257,
      "duration": 0.0112,
      "velocity": 109,
      "chip": "ym2612"
    },
    {
      "channel": 1,
      "note": 48,
      "start": 58.6276,
      "duration": 0.1232,
      "velocity": 108,
      "chip": "ym2612"
    },
    {
      "channel": 2,
      "note": 79,
      "start": 58.6294,
      "duration": 0.274,
      "velocity": 102,
      "chip": "ym2612"
    },
    {
      "channel": 3,
      "note": 61,
      "start": 58.6315,
      "duration": 0.0438,
      "velocity": 127,
      "chip": "ym2612"
    },
    {
      "channel": 5,
      "note": 48,
      "start": 58.6395,
      "duration": 0.0106,
      "velocity": 109,
      "chip": "ym2612"
    },
    {
      "channel": 0,
      "note": 48,
      "start": 58.7774,
      "duration": 0.0112,
      "velocity": 109,
      "chip": "ym2612"
    },
    {
      "channel": 1,
      "note": 48,
      "start": 58.7792,
      "duration": 0.1239,
      "velocity": 108,
      "chip": "ym2612"
    },
    {
      "channel": 3,
      "note": 61,
      "start": 58.7815,
      "duration": 0.0456,
      "velocity": 127,
      "chip": "ym2612"
    },
    {
      "channel": 5,
      "note": 48,
      "start": 58.7912,
      "duration": 0.0106,
      "velocity": 109,
      "chip": "ym2612"
    },
    {
      "channel": 4,
      "note": 79,
      "start": 58.8552,
      "duration": 0.2882,
      "velocity": 102,
      "chip": "ym2612"
    },
    {
      "channel": 0,
      "note": 50,
      "start": 58.9294,
      "duration": 0.289,
      "velocity": 109,
      "chip": "ym2612"
    },
    {
      "channel": 1,
      "note": 50,
      "start": 58.9315,
      "duration": 0.2872,
      "velocity": 108,
      "chip": "ym2612"
    },
    {
      "channel": 2,
      "note": 77,
      "start": 58.9336,
      "duration": 4.7597,
      "velocity": 102,
      "chip": "ym2612"
    },
    {
      "channel": 3,
      "note": 61,
      "start": 58.94,
      "duration": 0.0513,
      "velocity": 127,
      "chip": "ym2612"
    },
    {
      "channel": 5,
      "note": 50,
      "start": 58.9558,
      "duration": 0.2762,
      "velocity": 109,
      "chip": "ym2612"
    },
    {
      "channel": 4,
      "note": 77,
      "start": 59.1714,
      "duration": 4.7624,
      "velocity": 102,
      "chip": "ym2612"
    },
    {
      "channel": 0,
      "note": 50,
      "start": 59.2451,
      "duration": 0.0112,
      "velocity": 109,
      "chip": "ym2612"
    },
    {
      "channel": 1,
      "note": 50,
      "start": 59.2469,
      "duration": 0.1232,
      "velocity": 108,
      "chip": "ym2612"
    },
    {
      "channel": 5,
      "note": 50,
      "start": 59.2589,
      "duration": 0.012,
      "velocity": 109,
      "chip": "ym2612"
    },
    {
      "channel": 0,
      "note": 65,
      "start": 59.3968,
      "duration": 0.125,
      "velocity": 109,
      "chip": "ym2612"
    },
    {
      "channel": 1,
      "note": 50,
      "start": 59.3986,
      "duration": 0.1233,
      "velocity": 108,
      "chip": "ym2612"
    },
    {
      "channel": 3,
      "note": 61,
      "start": 59.4049,
      "duration": 0.0415,
      "velocity": 127,
      "chip": "ym2612"
    },
    {
      "channel": 5,
      "note": 65,
      "start": 59.4105,
      "duration": 0.1257,
      "velocity": 109,
      "chip": "ym2612"
    },
    {
      "channel": 0,
      "note": 50,
      "start": 59.5484,
      "duration": 0.0113,
      "velocity": 109,
      "chip": "ym2612"
    },
    {
      "channel": 1,
      "note": 50,
      "start": 59.5503,
      "duration": 0.1232,
      "velocity": 108,
      "chip": "ym2612"
    },
    {
      "channel": 5,
      "note": 50,
      "start": 59.5622,
      "duration": 0.0111,
      "velocity": 109,
      "chip": "ym2612"
    },
    {
      "channel": 0,
      "note": 64,
      "start": 59.7007,
      "duration": 0.1244,
      "velocity": 109,
      "chip": "ym2612"
    },
    {
      "channel": 1,
      "note": 50,
      "start": 59.7033,
      "duration": 0.122,
      "velocity": 108,
      "chip": "ym2612"
    },
    {
      "channel": 3,
      "note": 61,
      "start": 59.7092,
      "duration": 0.0405,
      "velocity": 127,
      "chip": "ym2612"
    },
    {
      "channel": 5,
      "note": 64,
      "start": 59.7147,
      "duration": 0.1241,
      "velocity": 109,
      "chip": "ym2612"
    },
    {
      "channel": 0,
      "note": 50,
      "start": 59.8518,
      "duration": 0.0112,
      "velocity": 109,
      "chip": "ym2612"
    },
    {
      "channel": 1,
      "note": 50,
      "start": 59.8545,
      "duration": 0.1224,
      "velocity": 108,
      "chip": "ym2612"
    },
    {
      "channel": 5,
      "note": 50,
      "start": 59.8656,
      "duration": 0.0111,
      "velocity": 109,
      "chip": "ym2612"
    },
    {
      "channel": 0,
      "note": 65,
      "start": 60.0044,
      "duration": 0.1249,
      "velocity": 109,
      "chip": "ym2612"
    },
    {
      "channel": 1,
      "note": 50,
      "start": 60.0063,
      "duration": 0.1233,
      "velocity": 108,
      "chip": "ym2612"
    },
    {
      "channel": 3,
      "note": 61,
      "start": 60.0117,
      "duration": 0.0418,
      "velocity": 127,
      "chip": "ym2612"
    },
    {
      "channel": 5,
      "note": 65,
      "start": 60.0172,
      "duration": 0.1249,
      "velocity": 109,
      "chip": "ym2612"
    },
    {
      "channel": 0,
      "note": 67,
      "start": 60.1555,
      "duration": 0.2763,
      "velocity": 109,
      "chip": "ym2612"
    },
    {
      "channel": 1,
      "note": 50,
      "start": 60.1576,
      "duration": 0.2744,
      "velocity": 108,
      "chip": "ym2612"
    },
    {
      "channel": 5,
      "note": 67,
      "start": 60.1704,
      "duration": 0.2755,
      "velocity": 109,
      "chip": "ym2612"
    },
    {
      "channel": 3,
      "note": 61,
      "start": 60.3114,
      "duration": 0.0451,
      "velocity": 127,
      "chip": "ym2612"
    },
    {
      "channel": 0,
      "note": 50,
      "start": 60.4585,
      "duration": 0.0112,
      "velocity": 109,
      "chip": "ym2612"
    },
    {
      "channel": 1,
      "note": 50,
      "start": 60.4604,
      "duration": 0.1232,
      "velocity": 108,
      "chip": "ym2612"
    },
    {
      "channel": 5,
      "note": 50,
      "start": 60.4727,
      "duration": 0.0111,
      "velocity": 109,
      "chip": "ym2612"
    },
    {
      "channel": 0,
      "note": 65,
      "start": 60.6102,
      "duration": 0.1376,
      "velocity": 109,
      "chip": "ym2612"
    },
    {
      "channel": 1,
      "note": 50,
      "start": 60.6121,
      "duration": 0.136,
      "velocity": 108,
      "chip": "ym2612"
    },
    {
      "channel": 3,
      "note": 61,
      "start": 60.6175,
      "duration": 0.055,
      "velocity": 127,
      "chip": "ym2612"
    },
    {
      "channel": 5,
      "note": 65,
      "start": 60.6374,
      "duration": 0.1241,
      "velocity": 109,
      "chip": "ym2612"
    },
    {
      "channel": 0,
      "note": 50,
      "start": 60.7746,
      "duration": 0.0118,
      "velocity": 109,
      "chip": "ym2612"
    },
    {
      "channel": 1,
      "note": 50,
      "start": 60.7764,
      "duration": 0.1232,
      "velocity": 108,
      "chip": "ym2612"
    },
    {
      "channel": 5,
      "note": 50,
      "start": 60.7889,
      "duration": 0.0105,
      "velocity": 109,
      "chip": "ym2612"
    },
    {
      "channel": 0,
      "note": 64,
      "start": 60.9262,
      "duration": 0.1376,
      "velocity": 109,
      "chip": "ym2612"
    },
    {
      "channel": 1,
      "note": 50,
      "start": 60.9281,
      "duration": 0.136,
      "velocity": 108,
      "chip": "ym2612"
    },
    {
      "channel": 3,
      "note": 61,
      "start": 60.9341,
      "duration": 0.0543,
      "velocity": 127,
      "chip": "ym2612"
    },
    {
      "channel": 5,
      "note": 64,
      "start": 60.9539,
      "duration": 0.1235,
      "velocity": 109,
      "chip": "ym2612"
    },
    {
      "channel": 0,
      "note": 50,
      "start": 61.0905,
      "duration": 0.0112,
      "velocity": 109,
      "chip": "ym2612"
    },
    {
      "channel": 1,
      "note": 50,
      "start": 61.0923,
      "duration": 0.1233,
      "velocity": 108,
      "chip": "ym2612"
    },
    {
      "channel": 5,
      "note": 50,
      "start": 61.1051,
      "duration": 0.0102,
      "velocity": 109,
      "chip": "ym2612"
    },
    {
      "channel": 0,
      "note": 65,
      "start": 61.2423,
      "duration": 0.1384,
      "velocity": 109,
      "chip": "ym2612"
    },
    {
      "channel": 1,
      "note": 50,
      "start": 61.2441,
      "duration": 0.1369,
      "velocity": 108,
      "chip": "ym2612"
    },
    {
      "channel": 3,
      "note": 61,
      "start": 61.2495,
      "duration": 0.055,
      "velocity": 127,
      "chip": "ym2612"
    },
    {
      "channel": 5,
      "note": 65,
      "start": 61.2685,
      "duration": 0.1249,
      "velocity": 109,
      "chip": "ym2612"
    },
    {
      "channel": 0,
      "note": 50,
      "start": 61.4068,
      "duration": 0.2763,
      "velocity": 109,
      "chip": "ym2612"
    },
    {
      "channel": 1,
      "note": 50,
      "start": 61.4089,
      "duration": 0.2745,
      "velocity": 108,
      "chip": "ym2612"
    },
    {
      "channel": 5,
      "note": 50,
      "start": 61.4218,
      "duration": 0.2751,
      "velocity": 109,
      "chip": "ym2612"
    },
    {
      "channel": 3,
      "note": 61,
      "start": 61.5624,
      "duration": 0.0454,
      "velocity": 127,
      "chip": "ym2612"
    },
    {
      "channel": 0,
      "note": 50,
      "start": 61.71,
      "duration": 0.0112,
      "velocity": 109,
      "chip": "ym2612"
    },
    {
      "channel": 1,
      "note": 50,
      "start": 61.7117,
      "duration": 0.1232,
      "velocity": 108,
      "chip": "ym2612"
    },
    {
      "channel": 5,
      "note": 50,
      "start": 61.7237,
      "duration": 0.0111,
      "velocity": 109,
      "chip": "ym2612"
    },
    {
      "channel": 0,
      "note": 65,
      "start": 61.8616,
      "duration": 0.1376,
      "velocity": 109,
      "chip": "ym2612"
    },
    {
      "channel": 1,
      "note": 50,
      "start": 61.8634,
      "duration": 0.136,
      "velocity": 108,
      "chip": "ym2612"
    },
    {
      "channel": 3,
      "note": 61,
      "start": 61.8696,
      "duration": 0.0541,
      "velocity": 127,
      "chip": "ym2612"
    },
    {
      "channel": 5,
      "note": 65,
      "start": 61.8888,
      "duration": 0.124,
      "velocity": 109,
      "chip": "ym2612"
    },
    {
      "channel": 0,
      "note": 50,
      "start": 62.0259,
      "duration": 0.0112,
      "velocity": 109,
      "chip": "ym2612"
    },
    {
      "channel": 1,
      "note": 50,
      "start": 62.0277,
      "duration": 0.1233,
      "velocity": 108,
      "chip": "ym2612"
    },
    {
      "channel": 5,
      "note": 50,
      "start": 62.0397,
      "duration": 0.0111,
      "velocity": 109,
      "chip": "ym2612"
    },
    {
      "channel": 0,
      "note": 64,
      "start": 62.1776,
      "duration": 0.1375,
      "velocity": 109,
      "chip": "ym2612"
    },
    {
      "channel": 1,
      "note": 50,
      "start": 62.1794,
      "duration": 0.136,
      "velocity": 108,
      "chip": "ym2612"
    },
    {
      "channel": 3,
      "note": 61,
      "start": 62.1853,
      "duration": 0.0545,
      "velocity": 127,
      "chip": "ym2612"
    },
    {
      "channel": 5,
      "note": 64,
      "start": 62.2054,
      "duration": 0.1235,
      "velocity": 109,
      "chip": "ym2612"
    },
    {
      "channel": 0,
      "note": 50,
      "start": 62.342,
      "duration": 0.0238,
      "velocity": 109,
      "chip": "ym2612"
    },
    {
      "channel": 1,
      "note": 50,
      "start": 62.3437,
      "duration": 0.1359,
      "velocity": 108,
      "chip": "ym2612"
    },
    {
      "channel": 3,
      "note": 71,
      "start": 62.3492,
      "duration": 0.0176,
      "velocity": 112,
      "chip": "ym2612"
    },
    {
      "channel": 5,
      "note": 50,
      "start": 62.3685,
      "duration": 0.0109,
      "velocity": 109,
      "chip": "ym2612"
    },
    {
      "channel": 3,
      "note": 71,
      "start": 62.4312,
      "duration": 0.0113,
      "velocity": 112,
      "chip": "ym2612"
    },
    {
      "channel": 0,
      "note": 65,
      "start": 62.5063,
      "duration": 0.1258,
      "velocity": 109,
      "chip": "ym2612"
    },
    {
      "channel": 1,
      "note": 50,
      "start": 62.508,
      "duration": 0.1242,
      "velocity": 108,
      "chip": "ym2612"
    },
    {
      "channel": 3,
      "note": 76,
      "start": 62.5105,
      "duration": 0.0078,
      "velocity": 112,
      "chip": "ym2612"
    },
    {
      "channel": 5,
      "note": 65,
      "start": 62.521,
      "duration": 0.1239,
      "velocity": 109,
      "chip": "ym2612"
    },
    {
      "channel": 3,
      "note": 76,
      "start": 62.5829,
      "duration": 0.0112,
      "velocity": 112,
      "chip": "ym2612"
    },
    {
      "channel": 0,
      "note": 50,
      "start": 62.6582,
      "duration": 0.2763,
      "velocity": 109,
      "chip": "ym2612"
    },
    {
      "channel": 1,
      "note": 50,
      "start": 62.6603,
      "duration": 0.2745,
      "velocity": 108,
      "chip": "ym2612"
    },
    {
      "channel": 3,
      "note": 76,
      "start": 62.6641,
      "duration": 0.007,
      "velocity": 112,
      "chip": "ym2612"
    },
    {
      "channel": 5,
      "note": 50,
      "start": 62.6731,
      "duration": 0.2751,
      "velocity": 109,
      "chip": "ym2612"
    },
    {
      "channel": 3,
      "note": 71,
      "start": 62.7348,
      "duration": 0.0111,
      "velocity": 112,
      "chip": "ym2612"
    },
    {
      "channel": 3,
      "note": 71,
      "start": 62.8104,
      "duration": 0.0112,
      "velocity": 112,
      "chip": "ym2612"
    },
    {
      "channel": 3,
      "note": 66,
      "start": 62.8873,
      "duration": 0.0102,
      "velocity": 112,
      "chip": "ym2612"
    },
    {
      "channel": 0,
      "note": 50,
      "start": 62.9613,
      "duration": 0.0112,
      "velocity": 109,
      "chip": "ym2612"
    },
    {
      "channel": 1,
      "note": 50,
      "start": 62.9631,
      "duration": 0.1234,
      "velocity": 108,
      "chip": "ym2612"
    },
    {
      "channel": 3,
      "note": 66,
      "start": 62.9654,
      "duration": 0.0081,
      "velocity": 112,
      "chip": "ym2612"
    },
    {
      "channel": 5,
      "note": 50,
      "start": 62.9752,
      "duration": 0.0118,
      "velocity": 109,
      "chip": "ym2612"
    },
    {
      "channel": 3,
      "note": 66,
      "start": 63.0393,
      "duration": 0.011,
      "velocity": 112,
      "chip": "ym2612"
    },
    {
      "channel": 0,
      "note": 65,
      "start": 63.1129,
      "duration": 0.125,
      "velocity": 109,
      "chip": "ym2612"
    },
    {
      "channel": 1,
      "note": 50,
      "start": 63.1148,
      "duration": 0.1234,
      "velocity": 108,
      "chip": "ym2612"
    },
    {
      "channel": 3,
      "note": 61,
      "start": 63.1213,
      "duration": 0.0038,
      "velocity": 127,
      "chip": "ym2612"
    },
    {
      "channel": 5,
      "note": 65,
      "start": 63.1268,
      "duration": 0.1248,
      "velocity": 109,
      "chip": "ym2612"
    },
    {
      "channel": 3,
      "note": 61,
      "start": 63.139,
      "duration": 0.0488,
      "velocity": 127,
      "chip": "ym2612"
    },
    {
      "channel": 0,
      "note": 50,
      "start": 63.2647,
      "duration": 0.0112,
      "velocity": 109,
      "chip": "ym2612"
    },
    {
      "channel": 1,
      "note": 50,
      "start": 63.2664,
      "duration": 0.1233,
      "velocity": 108,
      "chip": "ym2612"
    },
    {
      "channel": 5,
      "note": 50,
      "start": 63.2784,
      "duration": 0.0111,
      "velocity": 109,
      "chip": "ym2612"
    },
    {
      "channel": 0,
      "note": 64,
      "start": 63.4163,
      "duration": 0.125,
      "velocity": 109,
      "chip": "ym2612"
    },
    {
      "channel": 1,
      "note": 50,
      "start": 63.4182,
      "duration": 0.1233,
      "velocity": 108,
      "chip": "ym2612"
    },
    {
      "channel": 3,
      "note": 61,
      "start": 63.4244,
      "duration": 0.0424,
      "velocity": 127,
      "chip": "ym2612"
    },
    {
      "channel": 5,
      "note": 64,
      "start": 63.43,
      "duration": 0.1249,
      "velocity": 109,
      "chip": "ym2612"
    },
    {
      "channel": 0,
      "note": 62,
      "start": 63.568,
      "duration": 0.0112,
      "velocity": 109,
      "chip": "ym2612"
    },
    {
      "channel": 1,
      "note": 50,
      "start": 63.5706,
      "duration": 0.1225,
      "velocity": 108,
      "chip": "ym2612"
    },
    {
      "channel": 5,
      "note": 62,
      "start": 63.5818,
      "duration": 0.0111,
      "velocity": 109,
      "chip": "ym2612"
    },
    {
      "channel": 0,
      "note": 48,
      "start": 63.7206,
      "duration": 0.1368,
      "velocity": 109,
      "chip": "ym2612"
    },
    {
      "channel": 1,
      "note": 48,
      "start": 63.7257,
      "duration": 0.1319,
      "velocity": 108,
      "chip": "ym2612"
    },
    {
      "channel": 2,
      "note": 87,
      "start": 63.7281,
      "duration": 0.0157,
      "velocity": 102,
      "chip": "ym2612"
    },
    {
      "channel": 3,
      "note": 61,
      "start": 63.7337,
      "duration": 0.0482,
      "velocity": 127,
      "chip": "ym2612"
    },
    {
      "channel": 5,
      "note": 48,
      "start": 63.7461,
      "duration": 0.1257,
      "velocity": 109,
      "chip": "ym2612"
    },
    {
      "channel": 0,
      "note": 50,
      "start": 63.8852,
      "duration": 0.2754,
      "velocity": 109,
      "chip": "ym2612"
    },
    {
      "channel": 1,
      "note": 50,
      "start": 63.8877,
      "duration": 4.6718,
      "velocity": 108,
      "chip": "ym2612"
    },
    {
      "channel": 3,
      "note": 61,
      "start": 63.8899,
      "duration": 0.0437,
      "velocity": 127,
      "chip": "ym2612"
    },
    {
      "channel": 5,
      "note": 50,
      "start": 63.898,
      "duration": 0.2763,
      "velocity": 109,
      "chip": "ym2612"
    },
    {
      "channel": 4,
      "note": 87,
      "start": 63.9614,
      "duration": 0.0106,
      "velocity": 102,
      "chip": "ym2612"
    },
    {
      "channel": 0,
      "note": 50,
      "start": 64.1878,
      "duration": 0.0107,
      "velocity": 109,
      "chip": "ym2612"
    },
    {
      "channel": 5,
      "note": 50,
      "start": 64.2012,
      "duration": 0.0111,
      "velocity": 109,
      "chip": "ym2612"
    },
    {
      "channel": 0,
      "note": 65,
      "start": 64.3391,
      "duration": 0.1249,
      "velocity": 109,
      "chip": "ym2612"
    },
    {
      "channel": 5,
      "note": 65,
      "start": 64.3535,
      "duration": 0.1237,
      "velocity": 109,
      "chip": "ym2612"
    },
    {
      "channel": 0,
      "note": 50,
      "start": 64.4907,
      "duration": 0.0112,
      "velocity": 109,
      "chip": "ym2612"
    },
    {
      "channel": 5,
      "note": 50,
      "start": 64.505,
      "duration": 0.0102,
      "velocity": 109,
      "chip": "ym2612"
    },
    {
      "channel": 0,
      "note": 64,
      "start": 64.6425,
      "duration": 0.1249,
      "velocity": 109,
      "chip": "ym2612"
    },
    {
      "channel": 5,
      "note": 64,
      "start": 64.6557,
      "duration": 0.1249,
      "velocity": 109,
      "chip": "ym2612"
    },
    {
      "channel": 0,
      "note": 50,
      "start": 64.7941,
      "duration": 0.0112,
      "velocity": 109,
      "chip": "ym2612"
    },
    {
      "channel": 5,
      "note": 50,
      "start": 64.8075,
      "duration": 0.0111,
      "velocity": 109,
      "chip": "ym2612"
    },
    {
      "channel": 0,
      "note": 65,
      "start": 64.9458,
      "duration": 0.125,
      "velocity": 109,
      "chip": "ym2612"
    },
    {
      "channel": 2,
      "note": 87,
      "start": 64.9478,
      "duration": 0.0094,
      "velocity": 102,
      "chip": "ym2612"
    },
    {
      "channel": 3,
      "note": 61,
      "start": 64.9495,
      "duration": 0.0081,
      "velocity": 127,
      "chip": "ym2612"
    },
    {
      "channel": 5,
      "note": 65,
      "start": 64.9593,
      "duration": 0.1251,
      "velocity": 109,
      "chip": "ym2612"
    },
    {
      "channel": 0,
      "note": 50,
      "start": 65.0977,
      "duration": 0.2763,
      "velocity": 109,
      "chip": "ym2612"
    },
    {
      "channel": 5,
      "note": 50,
      "start": 65.1115,
      "duration": 0.2762,
      "velocity": 109,
      "chip": "ym2612"
    },
    {
      "channel": 4,
      "note": 87,
      "start": 65.1744,
      "duration": 0.012,
      "velocity": 102,
      "chip": "ym2612"
    },
    {
      "channel": 0,
      "note": 50,
      "start": 65.4009,
      "duration": 0.0112,
      "velocity": 109,
      "chip": "ym2612"
    },
    {
      "channel": 5,
      "note": 50,
      "start": 65.4147,
      "duration": 0.0111,
      "velocity": 109,
      "chip": "ym2612"
    },
    {
      "channel": 0,
      "note": 65,
      "start": 65.5543,
      "duration": 0.1232,
      "velocity": 109,
      "chip": "ym2612"
    },
    {
      "channel": 5,
      "note": 65,
      "start": 65.5657,
      "duration": 0.1249,
      "velocity": 109,
      "chip": "ym2612"
    },
    {
      "channel": 0,
      "note": 50,
      "start": 65.7045,
      "duration": 0.0109,
      "velocity": 109,
      "chip": "ym2612"
    },
    {
      "channel": 5,
      "note": 50,
      "start": 65.7175,
      "duration": 0.0111,
      "velocity": 109,
      "chip": "ym2612"
    },
    {
      "channel": 0,
      "note": 64,
      "start": 65.8559,
      "duration": 0.1249,
      "velocity": 109,
      "chip": "ym2612"
    },
    {
      "channel": 5,
      "note": 64,
      "start": 65.8699,
      "duration": 0.1241,
      "velocity": 109,
      "chip": "ym2612"
    },
    {
      "channel": 0,
      "note": 50,
      "start": 66.0075,
      "duration": 0.0122,
      "velocity": 109,
      "chip": "ym2612"
    },
    {
      "channel": 5,
      "note": 50,
      "start": 66.0218,
      "duration": 0.0102,
      "velocity": 109,
      "chip": "ym2612"
    },
    {
      "channel": 0,
      "note": 65,
      "start": 66.1593,
      "duration": 0.1249,
      "velocity": 109,
      "chip": "ym2612"
    },
    {
      "channel": 2,
      "note": 87,
      "start": 66.1613,
      "duration": 0.0093,
      "velocity": 102,
      "chip": "ym2612"
    },
    {
      "channel": 3,
      "note": 61,
      "start": 66.1629,
      "duration": 0.008,
      "velocity": 127,
      "chip": "ym2612"
    },
    {
      "channel": 5,
      "note": 65,
      "start": 66.1727,
      "duration": 0.1251,
      "velocity": 109,
      "chip": "ym2612"
    },
    {
      "channel": 0,
      "note": 50,
      "start": 66.3112,
      "duration": 0.2763,
      "velocity": 109,
      "chip": "ym2612"
    },
    {
      "channel": 5,
      "note": 50,
      "start": 66.3249,
      "duration": 0.2763,
      "velocity": 109,
      "chip": "ym2612"
    },
    {
      "channel": 4,
      "note": 87,
      "start": 66.3897,
      "duration": 0.0092,
      "velocity": 102,
      "chip": "ym2612"
    },
    {
      "channel": 0,
      "note": 50,
      "start": 66.6143,
      "duration": 0.0112,
      "velocity": 109,
      "chip": "ym2612"
    },
    {
      "channel": 5,
      "note": 50,
      "start": 66.6281,
      "duration": 0.0111,
      "velocity": 109,
      "chip": "ym2612"
    },
    {
      "channel": 0,
      "note": 65,
      "start": 66.7659,
      "duration": 0.125,
      "velocity": 109,
      "chip": "ym2612"
    },
    {
      "channel": 5,
      "note": 65,
      "start": 66.7794,
      "duration": 0.1247,
      "velocity": 109,
      "chip": "ym2612"
    },
    {
      "channel": 0,
      "note": 50,
      "start": 66.9176,
      "duration": 0.0112,
      "velocity": 109,
      "chip": "ym2612"
    },
    {
      "channel": 5,
      "note": 50,
      "start": 66.931,
      "duration": 0.0111,
      "velocity": 109,
      "chip": "ym2612"
    },
    {
      "channel": 0,
      "note": 64,
      "start": 67.0702,
      "duration": 0.1242,
      "velocity": 109,
      "chip": "ym2612"
    },
    {
      "channel": 5,
      "note": 64,
      "start": 67.0825,
      "duration": 0.1254,
      "velocity": 109,
      "chip": "ym2612"
    },
    {
      "channel": 0,
      "note": 50,
      "start": 67.222,
      "duration": 0.0102,
      "velocity": 109,
      "chip": "ym2612"
    },
    {
      "channel": 5,
      "note": 50,
      "start": 67.2343,
      "duration": 0.0111,
      "velocity": 109,
      "chip": "ym2612"
    },
    {
      "channel": 0,
      "note": 65,
      "start": 67.3727,
      "duration": 0.125,
      "velocity": 109,
      "chip": "ym2612"
    },
    {
      "channel": 2,
      "note": 87,
      "start": 67.3747,
      "duration": 0.0094,
      "velocity": 102,
      "chip": "ym2612"
    },
    {
      "channel": 3,
      "note": 61,
      "start": 67.3764,
      "duration": 0.0081,
      "velocity": 127,
      "chip": "ym2612"
    },
    {
      "channel": 5,
      "note": 65,
      "start": 67.3871,
      "duration": 0.1242,
      "velocity": 109,
      "chip": "ym2612"
    },
    {
      "channel": 0,
      "note": 50,
      "start": 67.5246,
      "duration": 0.2763,
      "velocity": 109,
      "chip": "ym2612"
    },
    {
      "channel": 5,
      "note": 50,
      "start": 67.5392,
      "duration": 0.2755,
      "velocity": 109,
      "chip": "ym2612"
    },
    {
      "channel": 4,
      "note": 87,
      "start": 67.6013,
      "duration": 0.0113,
      "velocity": 102,
      "chip": "ym2612"
    },
    {
      "channel": 0,
      "note": 50,
      "start": 67.8277,
      "duration": 0.0112,
      "velocity": 109,
      "chip": "ym2612"
    },
    {
      "channel": 5,
      "note": 50,
      "start": 67.8416,
      "duration": 0.0119,
      "velocity": 109,
      "chip": "ym2612"
    },
    {
      "channel": 0,
      "note": 65,
      "start": 67.9794,
      "duration": 0.1249,
      "velocity": 109,
      "chip": "ym2612"
    },
    {
      "channel": 5,
      "note": 65,
      "start": 67.9927,
      "duration": 0.1249,
      "velocity": 109,
      "chip": "ym2612"
    },
    {
      "channel": 0,
      "note": 50,
      "start": 68.1311,
      "duration": 0.0113,
      "velocity": 109,
      "chip": "ym2612"
    },
    {
      "channel": 5,
      "note": 50,
      "start": 68.1444,
      "duration": 0.0111,
      "velocity": 109,
      "chip": "ym2612"
    },
    {
      "channel": 0,
      "note": 64,
      "start": 68.2828,
      "duration": 0.1249,
      "velocity": 109,
      "chip": "ym2612"
    },
    {
      "channel": 5,
      "note": 64,
      "start": 68.296,
      "duration": 0.1252,
      "velocity": 109,
      "chip": "ym2612"
    },
    {
      "channel": 0,
      "note": 62,
      "start": 68.4344,
      "duration": 0.0113,
      "velocity": 109,
      "chip": "ym2612"
    },
    {
      "channel": 5,
      "note": 62,
      "start": 68.4479,
      "duration": 0.0115,
      "velocity": 109,
      "chip": "ym2612"
    },
    {
      "channel": 0,
      "note": 56,
      "start": 68.5869,
      "duration": 0.0105,
      "velocity": 109,
      "chip": "ym2612"
    },
    {
      "channel": 1,
      "note": 44,
      "start": 68.5886,
      "duration": 0.1226,
      "velocity": 108,
      "chip": "ym2612"
    },
    {
      "channel": 2,
      "note": 87,
      "start": 68.5905,
      "duration": 0.0072,
      "velocity": 102,
      "chip": "ym2612"
    },
    {
      "channel": 3,
      "note": 61,
      "start": 68.5922,
      "duration": 0.0444,
      "velocity": 127,
      "chip": "ym2612"
    },
    {
      "channel": 5,
      "note": 56,
      "start": 68.5995,
      "duration": 0.0111,
      "velocity": 109,
      "chip": "ym2612"
    },
    {
      "channel": 0,
      "note": 46,
      "start": 68.7381,
      "duration": 0.2763,
      "velocity": 109,
      "chip": "ym2612"
    },
    {
      "channel": 1,
      "note": 46,
      "start": 68.7398,
      "duration": 2.2467,
      "velocity": 108,
      "chip": "ym2612"
    },
    {
      "channel": 3,
      "note": 61,
      "start": 68.7421,
      "duration": 0.0453,
      "velocity": 127,
      "chip": "ym2612"
    },
    {
      "channel": 5,
      "note": 46,
      "start": 68.7518,
      "duration": 0.2763,
      "velocity": 109,
      "chip": "ym2612"
    },
    {
      "channel": 4,
      "note": 87,
      "start": 68.8147,
      "duration": 0.0111,
      "velocity": 102,
      "chip": "ym2612"
    },
    {
      "channel": 0,
      "note": 46,
      "start": 69.0412,
      "duration": 0.0118,
      "velocity": 109,
      "chip": "ym2612"
    },
    {
      "channel": 5,
      "note": 46,
      "start": 69.0557,
      "duration": 0.0104,
      "velocity": 109,
      "chip": "ym2612"
    },
    {
      "channel": 0,
      "note": 62,
      "start": 69.1928,
      "duration": 0.125,
      "velocity": 109,
      "chip": "ym2612"
    },
    {
      "channel": 5,
      "note": 62,
      "start": 69.2065,
      "duration": 0.1245,
      "velocity": 109,
      "chip": "ym2612"
    },
    {
      "channel": 0,
      "note": 46,
      "start": 69.3446,
      "duration": 0.0112,
      "velocity": 109,
      "chip": "ym2612"
    },
    {
      "channel": 5,
      "note": 46,
      "start": 69.3578,
      "duration": 0.012,
      "velocity": 109,
      "chip": "ym2612"
    },
    {
      "channel": 0,
      "note": 60,
      "start": 69.4962,
      "duration": 0.125,
      "velocity": 109,
      "chip": "ym2612"
    },
    {
      "channel": 5,
      "note": 60,
      "start": 69.5095,
      "duration": 0.1249,
      "velocity": 109,
      "chip": "ym2612"
    },
    {
      "channel": 0,
      "note": 46,
      "start": 69.6479,
      "duration": 0.0112,
      "velocity": 109,
      "chip": "ym2612"
    },
    {
      "channel": 5,
      "note": 46,
      "start": 69.6612,
      "duration": 0.0111,
      "velocity": 109,
      "chip": "ym2612"
    },
    {
      "channel": 0,
      "note": 62,
      "start": 69.7996,
      "duration": 0.1249,
      "velocity": 109,
      "chip": "ym2612"
    },
    {
      "channel": 2,
      "note": 87,
      "start": 69.8016,
      "duration": 0.0094,
      "velocity": 102,
      "chip": "ym2612"
    },
    {
      "channel": 3,
      "note": 61,
      "start": 69.8041,
      "duration": 0.0073,
      "velocity": 127,
      "chip": "ym2612"
    },
    {
      "channel": 5,
      "note": 62,
      "start": 69.8131,
      "duration": 0.1251,
      "velocity": 109,
      "chip": "ym2612"
    },
    {
      "channel": 0,
      "note": 46,
      "start": 69.9516,
      "duration": 0.2763,
      "velocity": 109,
      "chip": "ym2612"
    },
    {
      "channel": 5,
      "note": 46,
      "start": 69.9652,
      "duration": 0.2763,
      "velocity": 109,
      "chip": "ym2612"
    },
    {
      "channel": 4,
      "note": 87,
      "start": 70.0282,
      "duration": 0.011,
      "velocity": 102,
      "chip": "ym2612"
    },
    {
      "channel": 0,
      "note": 46,
      "start": 70.2546,
      "duration": 0.0112,
      "velocity": 109,
      "chip": "ym2612"
    },
    {
      "channel": 5,
      "note": 46,
      "start": 70.2684,
      "duration": 0.0111,
      "velocity": 109,
      "chip": "ym2612"
    },
    {
      "channel": 0,
      "note": 62,
      "start": 70.4063,
      "duration": 0.125,
      "velocity": 109,
      "chip": "ym2612"
    },
    {
      "channel": 5,
      "note": 62,
      "start": 70.4204,
      "duration": 0.1246,
      "velocity": 109,
      "chip": "ym2612"
    },
    {
      "channel": 0,
      "note": 46,
      "start": 70.5589,
      "duration": 0.0116,
      "velocity": 109,
      "chip": "ym2612"
    },
    {
      "channel": 5,
      "note": 46,
      "start": 70.5727,
      "duration": 0.0097,
      "velocity": 109,
      "chip": "ym2612"
    },
    {
      "channel": 0,
      "note": 60,
      "start": 70.7097,
      "duration": 0.1249,
      "velocity": 109,
      "chip": "ym2612"
    },
    {
      "channel": 5,
      "note": 60,
      "start": 70.7229,
      "duration": 0.1249,
      "velocity": 109,
      "chip": "ym2612"
    },
    {
      "channel": 0,
      "note": 46,
      "start": 70.8614,
      "duration": 0.0112,
      "velocity": 109,
      "chip": "ym2612"
    },
    {
      "channel": 5,
      "note": 46,
      "start": 70.8747,
      "duration": 0.012,
      "velocity": 109,
      "chip": "ym2612"
    },
    {
      "channel": 0,
      "note": 46,
      "start": 71.013,
      "duration": 0.0112,
      "velocity": 109,
      "chip": "ym2612"
    },
    {
      "channel": 1,
      "note": 46,
      "start": 71.0147,
      "duration": 0.1234,
      "velocity": 108,
      "chip": "ym2612"
    },
    {
      "channel": 2,
      "note": 87,
      "start": 71.0166,
      "duration": 0.008,
      "velocity": 102,
      "chip": "ym2612"
    },
    {
      "channel": 3,
      "note": 61,
      "start": 71.0183,
      "duration": 0.0443,
      "velocity": 127,
      "chip": "ym2612"
    },
    {
      "channel": 5,
      "note": 46,
      "start": 71.0264,
      "duration": 0.011,
      "velocity": 109,
      "chip": "ym2612"
    },
    {
      "channel": 0,
      "note": 48,
      "start": 71.165,
      "duration": 0.2764,
      "velocity": 109,
      "chip": "ym2612"
    },
    {
      "channel": 1,
      "note": 48,
      "start": 71.1666,
      "duration": 2.2467,
      "velocity": 108,
      "chip": "ym2612"
    },
    {
      "channel": 3,
      "note": 61,
      "start": 71.1697,
      "duration": 0.0446,
      "velocity": 127,
      "chip": "ym2612"
    },
    {
      "channel": 5,
      "note": 48,
      "start": 71.1787,
      "duration": 0.2763,
      "velocity": 109,
      "chip": "ym2612"
    },
    {
      "channel": 4,
      "note": 87,
      "start": 71.2416,
      "duration": 0.012,
      "velocity": 102,
      "chip": "ym2612"
    },
    {
      "channel": 3,
      "note": 61,
      "start": 71.3172,
      "duration": 0.0112,
      "velocity": 127,
      "chip": "ym2612"
    },
    {
      "channel": 0,
      "note": 48,
      "start": 71.4681,
      "duration": 0.0112,
      "velocity": 109,
      "chip": "ym2612"
    },
    {
      "channel": 5,
      "note": 48,
      "start": 71.4819,
      "duration": 0.0111,
      "velocity": 109,
      "chip": "ym2612"
    },
    {
      "channel": 0,
      "note": 64,
      "start": 71.6206,
      "duration": 0.1242,
      "velocity": 109,
      "chip": "ym2612"
    },
    {
      "channel": 5,
      "note": 64,
      "start": 71.6334,
      "duration": 0.1249,
      "velocity": 109,
      "chip": "ym2612"
    },
    {
      "channel": 0,
      "note": 48,
      "start": 71.772,
      "duration": 0.0108,
      "velocity": 109,
      "chip": "ym2612"
    },
    {
      "channel": 5,
      "note": 48,
      "start": 71.7862,
      "duration": 0.0105,
      "velocity": 109,
      "chip": "ym2612"
    },
    {
      "channel": 0,
      "note": 62,
      "start": 71.9231,
      "duration": 0.1249,
      "velocity": 109,
      "chip": "ym2612"
    },
    {
      "channel": 5,
      "note": 62,
      "start": 71.9372,
      "duration": 0.1241,
      "velocity": 109,
      "chip": "ym2612"
    },
    {
      "channel": 0,
      "note": 48,
      "start": 72.0748,
      "duration": 0.0116,
      "velocity": 109,
      "chip": "ym2612"
    },
    {
      "channel": 5,
      "note": 48,
      "start": 72.0885,
      "duration": 0.0107,
      "velocity": 109,
      "chip": "ym2612"
    },
    {
      "channel": 0,
      "note": 64,
      "start": 72.2274,
      "duration": 0.124,
      "velocity": 109,
      "chip": "ym2612"
    },
    {
      "channel": 2,
      "note": 87,
      "start": 72.2294,
      "duration": 0.0085,
      "velocity": 102,
      "chip": "ym2612"
    },
    {
      "channel": 5,
      "note": 64,
      "start": 72.2398,
      "duration": 0.1248,
      "velocity": 109,
      "chip": "ym2612"
    },
    {
      "channel": 0,
      "note": 48,
      "start": 72.3785,
      "duration": 0.2763,
      "velocity": 109,
      "chip": "ym2612"
    },
    {
      "channel": 5,
      "note": 48,
      "start": 72.3917,
      "duration": 0.2768,
      "velocity": 109,
      "chip": "ym2612"
    },
    {
      "channel": 4,
      "note": 87,
      "start": 72.4552,
      "duration": 0.0105,
      "velocity": 102,
      "chip": "ym2612"
    },
    {
      "channel": 3,
      "note": 71,
      "start": 72.5336,
      "duration": 0.0084,
      "velocity": 112,
      "chip": "ym2612"
    },
    {
      "channel": 3,
      "note": 66,
      "start": 72.6067,
      "duration": 0.0111,
      "velocity": 112,
      "chip": "ym2612"
    },
    {
      "channel": 0,
      "note": 48,
      "start": 72.6815,
      "duration": 0.0112,
      "velocity": 109,
      "chip": "ym2612"
    },
    {
      "channel": 3,
      "note": 61,
      "start": 72.6881,
      "duration": 0.043,
      "velocity": 127,
      "chip": "ym2612"
    },
    {
      "channel": 5,
      "note": 48,
      "start": 72.6954,
      "duration": 0.0106,
      "velocity": 109,
      "chip": "ym2612"
    },
    {
      "channel": 3,
      "note": 61,
      "start": 72.7582,
      "duration": 0.0487,
      "velocity": 127,
      "chip": "ym2612"
    },
    {
      "channel": 0,
      "note": 64,
      "start": 72.8332,
      "duration": 0.1249,
      "velocity": 109,
      "chip": "ym2612"
    },
    {
      "channel": 3,
      "note": 71,
      "start": 72.8397,
      "duration": 0.0055,
      "velocity": 112,
      "chip": "ym2612"
    },
    {
      "channel": 5,
      "note": 64,
      "start": 72.847,
      "duration": 0.1248,
      "velocity": 109,
      "chip": "ym2612"
    },
    {
      "channel": 3,
      "note": 66,
      "start": 72.9101,
      "duration": 0.011,
      "velocity": 112,
      "chip": "ym2612"
    },
    {
      "channel": 0,
      "note": 48,
      "start": 72.9849,
      "duration": 0.0112,
      "velocity": 109,
      "chip": "ym2612"
    },
    {
      "channel": 3,
      "note": 61,
      "start": 72.9915,
      "duration": 0.043,
      "velocity": 127,
      "chip": "ym2612"
    },
    {
      "channel": 5,
      "note": 48,
      "start": 72.9986,
      "duration": 0.0107,
      "velocity": 109,
      "chip": "ym2612"
    },
    {
      "channel": 3,
      "note": 61,
      "start": 73.0624,
      "duration": 0.0478,
      "velocity": 127,
      "chip": "ym2612"
    },
    {
      "channel": 0,
      "note": 62,
      "start": 73.1374,
      "duration": 0.1241,
      "velocity": 109,
      "chip": "ym2612"
    },
    {
      "channel": 3,
      "note": 71,
      "start": 73.1431,
      "duration": 0.0055,
      "velocity": 112,
      "chip": "ym2612"
    },
    {
      "channel": 5,
      "note": 62,
      "start": 73.1504,
      "duration": 0.1247,
      "velocity": 109,
      "chip": "ym2612"
    },
    {
      "channel": 3,
      "note": 66,
      "start": 73.2134,
      "duration": 0.011,
      "velocity": 112,
      "chip": "ym2612"
    },
    {
      "channel": 0,
      "note": 48,
      "start": 73.2883,
      "duration": 0.0112,
      "velocity": 109,
      "chip": "ym2612"
    },
    {
      "channel": 3,
      "note": 61,
      "start": 73.2941,
      "duration": 0.0438,
      "velocity": 127,
      "chip": "ym2612"
    },
    {
      "channel": 5,
      "note": 48,
      "start": 73.3028,
      "duration": 0.0099,
      "velocity": 109,
      "chip": "ym2612"
    },
    {
      "channel": 3,
      "note": 61,
      "start": 73.3649,
      "duration": 0.0488,
      "velocity": 127,
      "chip": "ym2612"
    },
    {
      "channel": 0,
      "note": 48,
      "start": 73.4399,
      "duration": 0.0133,
      "velocity": 109,
      "chip": "ym2612"
    },
    {
      "channel": 1,
      "note": 48,
      "start": 73.4416,
      "duration": 0.1234,
      "velocity": 108,
      "chip": "ym2612"
    },
    {
      "channel": 2,
      "note": 87,
      "start": 73.4435,
      "duration": 0.0101,
      "velocity": 102,
      "chip": "ym2612"
    },
    {
      "channel": 3,
      "note": 71,
      "start": 73.449,
      "duration": 0.0053,
      "velocity": 112,
      "chip": "ym2612"
    },
    {
      "channel": 5,
      "note": 48,
      "start": 73.456,
      "duration": 0.0093,
      "velocity": 109,
      "chip": "ym2612"
    },
    {
      "channel": 3,
      "note": 71,
      "start": 73.5166,
      "duration": 0.0112,
      "velocity": 112,
      "chip": "ym2612"
    },
    {
      "channel": 0,
      "note": 50,
      "start": 73.5919,
      "duration": 0.2895,
      "velocity": 109,
      "chip": "ym2612"
    },
    {
      "channel": 1,
      "note": 50,
      "start": 73.5939,
      "duration": 0.2878,
      "velocity": 108,
      "chip": "ym2612"
    },
    {
      "channel": 2,
      "note": 98,
      "start": 73.5993,
      "duration": 9.6871,
      "velocity": 102,
      "chip": "ym2612"
    },
    {
      "channel": 3,
      "note": 61,
      "start": 73.6057,
      "duration": 0.0481,
      "velocity": 127,
      "chip": "ym2612"
    },
    {
      "channel": 5,
      "note": 50,
      "start": 73.6182,
      "duration": 0.2773,
      "velocity": 109,
      "chip": "ym2612"
    },
    {
      "channel": 4,
      "note": 87,
      "start": 73.6811,
      "duration": 0.0111,
      "velocity": 102,
      "chip": "ym2612"
    },
    {
      "channel": 4,
      "note": 98,
      "start": 73.8371,
      "duration": 9.689,
      "velocity": 102,
      "chip": "ym2612"
    },
    {
      "channel": 0,
      "note": 50,
      "start": 73.9077,
      "duration": 0.013,
      "velocity": 109,
      "chip": "ym2612"
    },
    {
      "channel": 1,
      "note": 50,
      "start": 73.9095,
      "duration": 0.1232,
      "velocity": 108,
      "chip": "ym2612"
    },
    {
      "channel": 5,
      "note": 50,
      "start": 73.9232,
      "duration": 0.0093,
      "velocity": 109,
      "chip": "ym2612"
    },
    {
      "channel": 0,
      "note": 65,
      "start": 74.0593,
      "duration": 0.1249,
      "velocity": 109,
      "chip": "ym2612"
    },
    {
      "channel": 1,
      "note": 50,
      "start": 74.0611,
      "duration": 0.1234,
      "velocity": 108,
      "chip": "ym2612"
    },
    {
      "channel": 3,
      "note": 61,
      "start": 74.0666,
      "duration": 0.0423,
      "velocity": 127,
      "chip": "ym2612"
    },
    {
      "channel": 5,
      "note": 65,
      "start": 74.0731,
      "duration": 0.1248,
      "velocity": 109,
      "chip": "ym2612"
    },
    {
      "channel": 0,
      "note": 50,
      "start": 74.211,
      "duration": 0.0112,
      "velocity": 109,
      "chip": "ym2612"
    },
    {
      "channel": 1,
      "note": 50,
      "start": 74.2128,
      "duration": 0.1237,
      "velocity": 108,
      "chip": "ym2612"
    },
    {
      "channel": 5,
      "note": 50,
      "start": 74.2247,
      "duration": 0.012,
      "velocity": 109,
      "chip": "ym2612"
    },
    {
      "channel": 0,
      "note": 64,
      "start": 74.3627,
      "duration": 0.1249,
      "velocity": 109,
      "chip": "ym2612"
    },
    {
      "channel": 1,
      "note": 50,
      "start": 74.3645,
      "duration": 0.1234,
      "velocity": 108,
      "chip": "ym2612"
    },
    {
      "channel": 3,
      "note": 61,
      "start": 74.3712,
      "duration": 0.0411,
      "velocity": 127,
      "chip": "ym2612"
    },
    {
      "channel": 5,
      "note": 64,
      "start": 74.3764,
      "duration": 0.1249,
      "velocity": 109,
      "chip": "ym2612"
    },
    {
      "channel": 0,
      "note": 50,
      "start": 74.5144,
      "duration": 0.0112,
      "velocity": 109,
      "chip": "ym2612"
    },
    {
      "channel": 1,
      "note": 50,
      "start": 74.5162,
      "duration": 0.1232,
      "velocity": 108,
      "chip": "ym2612"
    },
    {
      "channel": 5,
      "note": 50,
      "start": 74.5281,
      "duration": 0.0111,
      "velocity": 109,
      "chip": "ym2612"
    },
    {
      "channel": 0,
      "note": 65,
      "start": 74.666,
      "duration": 0.125,
      "velocity": 109,
      "chip": "ym2612"
    },
    {
      "channel": 1,
      "note": 50,
      "start": 74.6678,
      "duration": 0.1233,
      "velocity": 108,
      "chip": "ym2612"
    },
    {
      "channel": 3,
      "note": 61,
      "start": 74.6741,
      "duration": 0.042,
      "velocity": 127,
      "chip": "ym2612"
    },
    {
      "channel": 5,
      "note": 65,
      "start": 74.6797,
      "duration": 0.1249,
      "velocity": 109,
      "chip": "ym2612"
    },
    {
      "channel": 0,
      "note": 50,
      "start": 74.818,
      "duration": 0.2764,
      "velocity": 109,
      "chip": "ym2612"
    },
    {
      "channel": 1,
      "note": 50,
      "start": 74.8209,
      "duration": 0.2737,
      "velocity": 108,
      "chip": "ym2612"
    },
    {
      "channel": 5,
      "note": 50,
      "start": 74.8321,
      "duration": 0.2759,
      "velocity": 109,
      "chip": "ym2612"
    },
    {
      "channel": 3,
      "note": 61,
      "start": 74.9743,
      "duration": 0.0454,
      "velocity": 127,
      "chip": "ym2612"
    },
    {
      "channel": 0,
      "note": 50,
      "start": 75.122,
      "duration": 0.0107,
      "velocity": 109,
      "chip": "ym2612"
    },
    {
      "channel": 1,
      "note": 50,
      "start": 75.1239,
      "duration": 0.1223,
      "velocity": 108,
      "chip": "ym2612"
    },
    {
      "channel": 5,
      "note": 50,
      "start": 75.1361,
      "duration": 0.0107,
      "velocity": 109,
      "chip": "ym2612"
    },
    {
      "channel": 0,
      "note": 65,
      "start": 75.2727,
      "duration": 0.125,
      "velocity": 109,
      "chip": "ym2612"
    },
    {
      "channel": 1,
      "note": 50,
      "start": 75.2746,
      "duration": 0.1234,
      "velocity": 108,
      "chip": "ym2612"
    },
    {
      "channel": 3,
      "note": 61,
      "start": 75.28,
      "duration": 0.0423,
      "velocity": 127,
      "chip": "ym2612"
    },
    {
      "channel": 5,
      "note": 65,
      "start": 75.2872,
      "duration": 0.1241,
      "velocity": 109,
      "chip": "ym2612"
    },
    {
      "channel": 0,
      "note": 50,
      "start": 75.4245,
      "duration": 0.012,
      "velocity": 109,
      "chip": "ym2612"
    },
    {
      "channel": 1,
      "note": 50,
      "start": 75.4262,
      "duration": 0.1237,
      "velocity": 108,
      "chip": "ym2612"
    },
    {
      "channel": 5,
      "note": 50,
      "start": 75.439,
      "duration": 0.0103,
      "velocity": 109,
      "chip": "ym2612"
    },
    {
      "channel": 0,
      "note": 64,
      "start": 75.5761,
      "duration": 0.1249,
      "velocity": 109,
      "chip": "ym2612"
    },
    {
      "channel": 1,
      "note": 50,
      "start": 75.5779,
      "duration": 0.1234,
      "velocity": 108,
      "chip": "ym2612"
    },
    {
      "channel": 3,
      "note": 61,
      "start": 75.5839,
      "duration": 0.0418,
      "velocity": 127,
      "chip": "ym2612"
    },
    {
      "channel": 5,
      "note": 64,
      "start": 75.5898,
      "duration": 0.1249,
      "velocity": 109,
      "chip": "ym2612"
    },
    {
      "channel": 0,
      "note": 50,
      "start": 75.7278,
      "duration": 0.0112,
      "velocity": 109,
      "chip": "ym2612"
    },
    {
      "channel": 1,
      "note": 50,
      "start": 75.7296,
      "duration": 0.1235,
      "velocity": 108,
      "chip": "ym2612"
    },
    {
      "channel": 5,
      "note": 50,
      "start": 75.7416,
      "duration": 0.0119,
      "velocity": 109,
      "chip": "ym2612"
    },
    {
      "channel": 0,
      "note": 65,
      "start": 75.8795,
      "duration": 0.1249,
      "velocity": 109,
      "chip": "ym2612"
    },
    {
      "channel": 1,
      "note": 50,
      "start": 75.8813,
      "duration": 0.1233,
      "velocity": 108,
      "chip": "ym2612"
    },
    {
      "channel": 3,
      "note": 61,
      "start": 75.8876,
      "duration": 0.0415,
      "velocity": 127,
      "chip": "ym2612"
    },
    {
      "channel": 5,
      "note": 65,
      "start": 75.8932,
      "duration": 0.1249,
      "velocity": 109,
      "chip": "ym2612"
    },
    {
      "channel": 0,
      "note": 50,
      "start": 76.0315,
      "duration": 0.2763,
      "velocity": 109,
      "chip": "ym2612"
    },
    {
      "channel": 1,
      "note": 50,
      "start": 76.0335,
      "duration": 0.2745,
      "velocity": 108,
      "chip": "ym2612"
    },
    {
      "channel": 5,
      "note": 50,
      "start": 76.0456,
      "duration": 0.2758,
      "velocity": 109,
      "chip": "ym2612"
    },
    {
      "channel": 3,
      "note": 61,
      "start": 76.1878,
      "duration": 0.0446,
      "velocity": 127,
      "chip": "ym2612"
    },
    {
      "channel": 0,
      "note": 50,
      "start": 76.3345,
      "duration": 0.0112,
      "velocity": 109,
      "chip": "ym2612"
    },
    {
      "channel": 1,
      "note": 50,
      "start": 76.3372,
      "duration": 0.1224,
      "velocity": 108,
      "chip": "ym2612"
    },
    {
      "channel": 5,
      "note": 50,
      "start": 76.3483,
      "duration": 0.0111,
      "velocity": 109,
      "chip": "ym2612"
    },
    {
      "channel": 0,
      "note": 65,
      "start": 76.4871,
      "duration": 0.1241,
      "velocity": 109,
      "chip": "ym2612"
    },
    {
      "channel": 1,
      "note": 50,
      "start": 76.4888,
      "duration": 0.1225,
      "velocity": 108,
      "chip": "ym2612"
    },
    {
      "channel": 3,
      "note": 61,
      "start": 76.4942,
      "duration": 0.0424,
      "velocity": 127,
      "chip": "ym2612"
    },
    {
      "channel": 5,
      "note": 65,
      "start": 76.4999,
      "duration": 0.1249,
      "velocity": 109,
      "chip": "ym2612"
    },
    {
      "channel": 0,
      "note": 50,
      "start": 76.6379,
      "duration": 0.0112,
      "velocity": 109,
      "chip": "ym2612"
    },
    {
      "channel": 1,
      "note": 50,
      "start": 76.6397,
      "duration": 0.1233,
      "velocity": 108,
      "chip": "ym2612"
    },
    {
      "channel": 5,
      "note": 50,
      "start": 76.6516,
      "duration": 0.0111,
      "velocity": 109,
      "chip": "ym2612"
    },
    {
      "channel": 0,
      "note": 64,
      "start": 76.7897,
      "duration": 0.1249,
      "velocity": 109,
      "chip": "ym2612"
    },
    {
      "channel": 1,
      "note": 50,
      "start": 76.7915,
      "duration": 0.1232,
      "velocity": 108,
      "chip": "ym2612"
    },
    {
      "channel": 3,
      "note": 61,
      "start": 76.7975,
      "duration": 0.0416,
      "velocity": 127,
      "chip": "ym2612"
    },
    {
      "channel": 5,
      "note": 64,
      "start": 76.8046,
      "duration": 0.1235,
      "velocity": 109,
      "chip": "ym2612"
    },
    {
      "channel": 0,
      "note": 50,
      "start": 76.9412,
      "duration": 0.0118,
      "velocity": 109,
      "chip": "ym2612"
    },
    {
      "channel": 1,
      "note": 50,
      "start": 76.943,
      "duration": 0.1233,
      "velocity": 108,
      "chip": "ym2612"
    },
    {
      "channel": 5,
      "note": 50,
      "start": 76.9556,
      "duration": 0.0104,
      "velocity": 109,
      "chip": "ym2612"
    },
    {
      "channel": 0,
      "note": 65,
      "start": 77.0929,
      "duration": 0.1255,
      "velocity": 109,
      "chip": "ym2612"
    },
    {
      "channel": 1,
      "note": 50,
      "start": 77.0947,
      "duration": 0.1239,
      "velocity": 108,
      "chip": "ym2612"
    },
    {
      "channel": 3,
      "note": 61,
      "start": 77.1002,
      "duration": 0.0423,
      "velocity": 127,
      "chip": "ym2612"
    },
    {
      "channel": 5,
      "note": 65,
      "start": 77.1066,
      "duration": 0.1258,
      "velocity": 109,
      "chip": "ym2612"
    },
    {
      "channel": 0,
      "note": 50,
      "start": 77.2449,
      "duration": 0.2763,
      "velocity": 109,
      "chip": "ym2612"
    },
    {
      "channel": 1,
      "note": 50,
      "start": 77.247,
      "duration": 0.2745,
      "velocity": 108,
      "chip": "ym2612"
    },
    {
      "channel": 5,
      "note": 50,
      "start": 77.259,
      "duration": 0.2758,
      "velocity": 109,
      "chip": "ym2612"
    },
    {
      "channel": 3,
      "note": 61,
      "start": 77.4004,
      "duration": 0.0454,
      "velocity": 127,
      "chip": "ym2612"
    },
    {
      "channel": 0,
      "note": 50,
      "start": 77.548,
      "duration": 0.0112,
      "velocity": 109,
      "chip": "ym2612"
    },
    {
      "channel": 1,
      "note": 50,
      "start": 77.5498,
      "duration": 0.1233,
      "velocity": 108,
      "chip": "ym2612"
    },
    {
      "channel": 5,
      "note": 50,
      "start": 77.5617,
      "duration": 0.0111,
      "velocity": 109,
      "chip": "ym2612"
    },
    {
      "channel": 0,
      "note": 65,
      "start": 77.6997,
      "duration": 0.1249,
      "velocity": 109,
      "chip": "ym2612"
    },
    {
      "channel": 1,
      "note": 50,
      "start": 77.7015,
      "duration": 0.1233,
      "velocity": 108,
      "chip": "ym2612"
    },
    {
      "channel": 3,
      "note": 61,
      "start": 77.7077,
      "duration": 0.0415,
      "velocity": 127,
      "chip": "ym2612"
    },
    {
      "channel": 5,
      "note": 65,
      "start": 77.7133,
      "duration": 0.1249,
      "velocity": 109,
      "chip": "ym2612"
    },
    {
      "channel": 0,
      "note": 50,
      "start": 77.8513,
      "duration": 0.0112,
      "velocity": 109,
      "chip": "ym2612"
    },
    {
      "channel": 1,
      "note": 50,
      "start": 77.854,
      "duration": 0.1224,
      "velocity": 108,
      "chip": "ym2612"
    },
    {
      "channel": 5,
      "note": 50,
      "start": 77.865,
      "duration": 0.0111,
      "velocity": 109,
      "chip": "ym2612"
    },
    {
      "channel": 0,
      "note": 64,
      "start": 78.0039,
      "duration": 0.1241,
      "velocity": 109,
      "chip": "ym2612"
    },
    {
      "channel": 1,
      "note": 50,
      "start": 78.0057,
      "duration": 0.1224,
      "velocity": 108,
      "chip": "ym2612"
    },
    {
      "channel": 3,
      "note": 61,
      "start": 78.0115,
      "duration": 0.0424,
      "velocity": 127,
      "chip": "ym2612"
    },
    {
      "channel": 5,
      "note": 64,
      "start": 78.0167,
      "duration": 0.1249,
      "velocity": 109,
      "chip": "ym2612"
    },
    {
      "channel": 0,
      "note": 62,
      "start": 78.1547,
      "duration": 0.0112,
      "velocity": 109,
      "chip": "ym2612"
    },
    {
      "channel": 1,
      "note": 50,
      "start": 78.1565,
      "duration": 0.1232,
      "velocity": 108,
      "chip": "ym2612"
    },
    {
      "channel": 5,
      "note": 62,
      "start": 78.1684,
      "duration": 0.0111,
      "velocity": 109,
      "chip": "ym2612"
    },
    {
      "channel": 0,
      "note": 56,
      "start": 78.3063,
      "duration": 0.0113,
      "velocity": 109,
      "chip": "ym2612"
    },
    {
      "channel": 1,
      "note": 44,
      "start": 78.3081,
      "duration": 0.1233,
      "velocity": 108,
      "chip": "ym2612"
    },
    {
      "channel": 3,
      "note": 61,
      "start": 78.3135,
      "duration": 0.0424,
      "velocity": 127,
      "chip": "ym2612"
    },
    {
      "channel": 5,
      "note": 56,
      "start": 78.321,
      "duration": 0.0098,
      "velocity": 109,
      "chip": "ym2612"
    },
    {
      "channel": 0,
      "note": 46,
      "start": 78.4584,
      "duration": 0.2763,
      "velocity": 109,
      "chip": "ym2612"
    },
    {
      "channel": 1,
      "note": 46,
      "start": 78.4604,
      "duration": 0.2745,
      "velocity": 108,
      "chip": "ym2612"
    },
    {
      "channel": 3,
      "note": 61,
      "start": 78.4643,
      "duration": 0.0433,
      "velocity": 127,
      "chip": "ym2612"
    },
    {
      "channel": 5,
      "note": 46,
      "start": 78.4738,
      "duration": 0.2745,
      "velocity": 109,
      "chip": "ym2612"
    },
    {
      "channel": 0,
      "note": 46,
      "start": 78.7614,
      "duration": 0.0112,
      "velocity": 109,
      "chip": "ym2612"
    },
    {
      "channel": 1,
      "note": 46,
      "start": 78.7633,
      "duration": 0.1241,
      "velocity": 108,
      "chip": "ym2612"
    },
    {
      "channel": 3,
      "note": 61,
      "start": 78.7687,
      "duration": 0.0423,
      "velocity": 127,
      "chip": "ym2612"
    },
    {
      "channel": 5,
      "note": 46,
      "start": 78.7752,
      "duration": 0.0115,
      "velocity": 109,
      "chip": "ym2612"
    },
    {
      "channel": 0,
      "note": 62,
      "start": 78.9131,
      "duration": 0.1249,
      "velocity": 109,
      "chip": "ym2612"
    },
    {
      "channel": 1,
      "note": 46,
      "start": 78.9149,
      "duration": 0.1233,
      "velocity": 108,
      "chip": "ym2612"
    },
    {
      "channel": 3,
      "note": 61,
      "start": 78.9212,
      "duration": 0.0415,
      "velocity": 127,
      "chip": "ym2612"
    },
    {
      "channel": 5,
      "note": 62,
      "start": 78.9268,
      "duration": 0.1249,
      "velocity": 109,
      "chip": "ym2612"
    },
    {
      "channel": 0,
      "note": 46,
      "start": 79.0648,
      "duration": 0.0112,
      "velocity": 109,
      "chip": "ym2612"
    },
    {
      "channel": 1,
      "note": 46,
      "start": 79.0666,
      "duration": 0.1233,
      "velocity": 108,
      "chip": "ym2612"
    },
    {
      "channel": 5,
      "note": 46,
      "start": 79.0785,
      "duration": 0.0111,
      "velocity": 109,
      "chip": "ym2612"
    },
    {
      "channel": 0,
      "note": 60,
      "start": 79.2164,
      "duration": 0.1249,
      "velocity": 109,
      "chip": "ym2612"
    },
    {
      "channel": 1,
      "note": 46,
      "start": 79.2183,
      "duration": 0.1234,
      "velocity": 108,
      "chip": "ym2612"
    },
    {
      "channel": 3,
      "note": 61,
      "start": 79.225,
      "duration": 0.041,
      "velocity": 127,
      "chip": "ym2612"
    },
    {
      "channel": 5,
      "note": 60,
      "start": 79.2301,
      "duration": 0.1249,
      "velocity": 109,
      "chip": "ym2612"
    },
    {
      "channel": 0,
      "note": 46,
      "start": 79.3682,
      "duration": 0.0111,
      "velocity": 109,
      "chip": "ym2612"
    },
    {
      "channel": 1,
      "note": 46,
      "start": 79.3708,
      "duration": 0.1224,
      "velocity": 108,
      "chip": "ym2612"
    },
    {
      "channel": 5,
      "note": 46,
      "start": 79.3819,
      "duration": 0.0111,
      "velocity": 109,
      "chip": "ym2612"
    },
    {
      "channel": 0,
      "note": 62,
      "start": 79.5207,
      "duration": 0.124,
      "velocity": 109,
      "chip": "ym2612"
    },
    {
      "channel": 1,
      "note": 46,
      "start": 79.5225,
      "duration": 0.1225,
      "velocity": 108,
      "chip": "ym2612"
    },
    {
      "channel": 3,
      "note": 61,
      "start": 79.5279,
      "duration": 0.0422,
      "velocity": 127,
      "chip": "ym2612"
    },
    {
      "channel": 5,
      "note": 62,
      "start": 79.5335,
      "duration": 0.1249,
      "velocity": 109,
      "chip": "ym2612"
    },
    {
      "channel": 0,
      "note": 46,
      "start": 79.6718,
      "duration": 0.2763,
      "velocity": 109,
      "chip": "ym2612"
    },
    {
      "channel": 1,
      "note": 46,
      "start": 79.6739,
      "duration": 0.2745,
      "velocity": 108,
      "chip": "ym2612"
    },
    {
      "channel": 5,
      "note": 46,
      "start": 79.6867,
      "duration": 0.2751,
      "velocity": 109,
      "chip": "ym2612"
    },
    {
      "channel": 3,
      "note": 61,
      "start": 79.8273,
      "duration": 0.0454,
      "velocity": 127,
      "chip": "ym2612"
    },
    {
      "channel": 0,
      "note": 46,
      "start": 79.9749,
      "duration": 0.0115,
      "velocity": 109,
      "chip": "ym2612"
    },
    {
      "channel": 1,
      "note": 46,
      "start": 79.9767,
      "duration": 0.1232,
      "velocity": 108,
      "chip": "ym2612"
    },
    {
      "channel": 5,
      "note": 46,
      "start": 79.989,
      "duration": 0.0107,
      "velocity": 109,
      "chip": "ym2612"
    },
    {
      "channel": 0,
      "note": 62,
      "start": 80.1267,
      "duration": 0.1248,
      "velocity": 109,
      "chip": "ym2612"
    },
    {
      "channel": 1,
      "note": 46,
      "start": 80.1285,
      "duration": 0.1232,
      "velocity": 108,
      "chip": "ym2612"
    },
    {
      "channel": 3,
      "note": 61,
      "start": 80.1339,
      "duration": 0.0421,
      "velocity": 127,
      "chip": "ym2612"
    },
    {
      "channel": 5,
      "note": 62,
      "start": 80.1407,
      "duration": 0.1244,
      "velocity": 109,
      "chip": "ym2612"
    },
    {
      "channel": 0,
      "note": 46,
      "start": 80.2782,
      "duration": 0.0112,
      "velocity": 109,
      "chip": "ym2612"
    },
    {
      "channel": 1,
      "note": 46,
      "start": 80.28,
      "duration": 0.1232,
      "velocity": 108,
      "chip": "ym2612"
    },
    {
      "channel": 5,
      "note": 46,
      "start": 80.292,
      "duration": 0.0119,
      "velocity": 109,
      "chip": "ym2612"
    },
    {
      "channel": 0,
      "note": 60,
      "start": 80.4299,
      "duration": 0.1254,
      "velocity": 109,
      "chip": "ym2612"
    },
    {
      "channel": 1,
      "note": 46,
      "start": 80.4317,
      "duration": 0.1239,
      "velocity": 108,
      "chip": "ym2612"
    },
    {
      "channel": 3,
      "note": 61,
      "start": 80.4384,
      "duration": 0.0411,
      "velocity": 127,
      "chip": "ym2612"
    },
    {
      "channel": 5,
      "note": 60,
      "start": 80.4436,
      "duration": 0.1266,
      "velocity": 109,
      "chip": "ym2612"
    },
    {
      "channel": 0,
      "note": 46,
      "start": 80.5816,
      "duration": 0.0112,
      "velocity": 109,
      "chip": "ym2612"
    },
    {
      "channel": 1,
      "note": 46,
      "start": 80.5834,
      "duration": 0.1232,
      "velocity": 108,
      "chip": "ym2612"
    },
    {
      "channel": 5,
      "note": 46,
      "start": 80.5953,
      "duration": 0.0111,
      "velocity": 109,
      "chip": "ym2612"
    },
    {
      "channel": 0,
      "note": 46,
      "start": 80.7332,
      "duration": 0.0112,
      "velocity": 109,
      "chip": "ym2612"
    },
    {
      "channel": 1,
      "note": 46,
      "start": 80.735,
      "duration": 0.1233,
      "velocity": 108,
      "chip": "ym2612"
    },
    {
      "channel": 3,
      "note": 61,
      "start": 80.7413,
      "duration": 0.0415,
      "velocity": 127,
      "chip": "ym2612"
    },
    {
      "channel": 5,
      "note": 46,
      "start": 80.747,
      "duration": 0.0106,
      "velocity": 109,
      "chip": "ym2612"
    },
    {
      "channel": 0,
      "note": 48,
      "start": 80.8852,
      "duration": 0.2764,
      "velocity": 109,
      "chip": "ym2612"
    },
    {
      "channel": 1,
      "note": 48,
      "start": 80.8882,
      "duration": 0.2736,
      "velocity": 108,
      "chip": "ym2612"
    },
    {
      "channel": 3,
      "note": 61,
      "start": 80.8921,
      "duration": 0.0424,
      "velocity": 127,
      "chip": "ym2612"
    },
    {
      "channel": 5,
      "note": 48,
      "start": 80.8994,
      "duration": 0.2758,
      "velocity": 109,
      "chip": "ym2612"
    },
    {
      "channel": 0,
      "note": 48,
      "start": 81.1883,
      "duration": 0.0112,
      "velocity": 109,
      "chip": "ym2612"
    },
    {
      "channel": 1,
      "note": 48,
      "start": 81.1902,
      "duration": 0.1232,
      "velocity": 108,
      "chip": "ym2612"
    },
    {
      "channel": 3,
      "note": 61,
      "start": 81.1956,
      "duration": 0.0423,
      "velocity": 127,
      "chip": "ym2612"
    },
    {
      "channel": 5,
      "note": 48,
      "start": 81.2029,
      "duration": 0.0098,
      "velocity": 109,
      "chip": "ym2612"
    },
    {
      "channel": 0,
      "note": 64,
      "start": 81.34,
      "duration": 0.1249,
      "velocity": 109,
      "chip": "ym2612"
    },
    {
      "channel": 1,
      "note": 48,
      "start": 81.3418,
      "duration": 0.1234,
      "velocity": 108,
      "chip": "ym2612"
    },
    {
      "channel": 3,
      "note": 61,
      "start": 81.3472,
      "duration": 0.0428,
      "velocity": 127,
      "chip": "ym2612"
    },
    {
      "channel": 5,
      "note": 64,
      "start": 81.3546,
      "duration": 0.124,
      "velocity": 109,
      "chip": "ym2612"
    },
    {
      "channel": 0,
      "note": 48,
      "start": 81.4917,
      "duration": 0.0113,
      "velocity": 109,
      "chip": "ym2612"
    },
    {
      "channel": 1,
      "note": 48,
      "start": 81.4935,
      "duration": 0.1232,
      "velocity": 108,
      "chip": "ym2612"
    },
    {
      "channel": 5,
      "note": 48,
      "start": 81.5056,
      "duration": 0.011,
      "velocity": 109,
      "chip": "ym2612"
    },
    {
      "channel": 0,
      "note": 62,
      "start": 81.6434,
      "duration": 0.1249,
      "velocity": 109,
      "chip": "ym2612"
    },
    {
      "channel": 1,
      "note": 48,
      "start": 81.6452,
      "duration": 0.1233,
      "velocity": 108,
      "chip": "ym2612"
    },
    {
      "channel": 3,
      "note": 61,
      "start": 81.651,
      "duration": 0.0419,
      "velocity": 127,
      "chip": "ym2612"
    },
    {
      "channel": 5,
      "note": 62,
      "start": 81.657,
      "duration": 0.1249,
      "velocity": 109,
      "chip": "ym2612"
    },
    {
      "channel": 0,
      "note": 48,
      "start": 81.7951,
      "duration": 0.0116,
      "velocity": 109,
      "chip": "ym2612"
    },
    {
      "channel": 1,
      "note": 48,
      "start": 81.797,
      "duration": 0.1231,
      "velocity": 108,
      "chip": "ym2612"
    },
    {
      "channel": 5,
      "note": 48,
      "start": 81.8093,
      "duration": 0.0123,
      "velocity": 109,
      "chip": "ym2612"
    },
    {
      "channel": 0,
      "note": 64,
      "start": 81.9467,
      "duration": 0.1249,
      "velocity": 109,
      "chip": "ym2612"
    },
    {
      "channel": 1,
      "note": 48,
      "start": 81.9486,
      "duration": 0.1233,
      "velocity": 108,
      "chip": "ym2612"
    },
    {
      "channel": 3,
      "note": 61,
      "start": 81.9548,
      "duration": 0.0415,
      "velocity": 127,
      "chip": "ym2612"
    },
    {
      "channel": 5,
      "note": 64,
      "start": 81.9604,
      "duration": 0.1249,
      "velocity": 109,
      "chip": "ym2612"
    },
    {
      "channel": 0,
      "note": 48,
      "start": 82.0987,
      "duration": 0.2763,
      "velocity": 109,
      "chip": "ym2612"
    },
    {
      "channel": 1,
      "note": 48,
      "start": 82.1007,
      "duration": 0.2745,
      "velocity": 108,
      "chip": "ym2612"
    },
    {
      "channel": 5,
      "note": 48,
      "start": 82.1128,
      "duration": 0.2758,
      "velocity": 109,
      "chip": "ym2612"
    },
    {
      "channel": 3,
      "note": 61,
      "start": 82.255,
      "duration": 0.0446,
      "velocity": 127,
      "chip": "ym2612"
    },
    {
      "channel": 0,
      "note": 48,
      "start": 82.4017,
      "duration": 0.0112,
      "velocity": 109,
      "chip": "ym2612"
    },
    {
      "channel": 1,
      "note": 48,
      "start": 82.4044,
      "duration": 0.1224,
      "velocity": 108,
      "chip": "ym2612"
    },
    {
      "channel": 5,
      "note": 48,
      "start": 82.4155,
      "duration": 0.0111,
      "velocity": 109,
      "chip": "ym2612"
    },
    {
      "channel": 0,
      "note": 64,
      "start": 82.5543,
      "duration": 0.1241,
      "velocity": 109,
      "chip": "ym2612"
    },
    {
      "channel": 1,
      "note": 48,
      "start": 82.5561,
      "duration": 0.1225,
      "velocity": 108,
      "chip": "ym2612"
    },
    {
      "channel": 3,
      "note": 61,
      "start": 82.5615,
      "duration": 0.042,
      "velocity": 127,
      "chip": "ym2612"
    },
    {
      "channel": 5,
      "note": 64,
      "start": 82.5671,
      "duration": 0.1249,
      "velocity": 109,
      "chip": "ym2612"
    },
    {
      "channel": 0,
      "note": 48,
      "start": 82.7051,
      "duration": 0.0112,
      "velocity": 109,
      "chip": "ym2612"
    },
    {
      "channel": 1,
      "note": 48,
      "start": 82.7069,
      "duration": 0.1233,
      "velocity": 108,
      "chip": "ym2612"
    },
    {
      "channel": 5,
      "note": 48,
      "start": 82.7197,
      "duration": 0.0102,
      "velocity": 109,
      "chip": "ym2612"
    },
    {
      "channel": 0,
      "note": 62,
      "start": 82.8568,
      "duration": 0.1249,
      "velocity": 109,
      "chip": "ym2612"
    },
    {
      "channel": 1,
      "note": 48,
      "start": 82.8586,
      "duration": 0.1234,
      "velocity": 108,
      "chip": "ym2612"
    },
    {
      "channel": 3,
      "note": 61,
      "start": 82.8613,
      "duration": 0.045,
      "velocity": 127,
      "chip": "ym2612"
    },
    {
      "channel": 5,
      "note": 62,
      "start": 82.8713,
      "duration": 0.1241,
      "velocity": 109,
      "chip": "ym2612"
    },
    {
      "channel": 0,
      "note": 48,
      "start": 83.0085,
      "duration": 0.0113,
      "velocity": 109,
      "chip": "ym2612"
    },
    {
      "channel": 1,
      "note": 48,
      "start": 83.0103,
      "duration": 0.1233,
      "velocity": 108,
      "chip": "ym2612"
    },
    {
      "channel": 5,
      "note": 48,
      "start": 83.0224,
      "duration": 0.0109,
      "velocity": 109,
      "chip": "ym2612"
    },
    {
      "channel": 0,
      "note": 48,
      "start": 83.1601,
      "duration": 0.0112,
      "velocity": 109,
      "chip": "ym2612"
    },
    {
      "channel": 1,
      "note": 48,
      "start": 83.1619,
      "duration": 0.1233,
      "velocity": 108,
      "chip": "ym2612"
    },
    {
      "channel": 3,
      "note": 61,
      "start": 83.1641,
      "duration": 0.0456,
      "velocity": 127,
      "chip": "ym2612"
    },
    {
      "channel": 5,
      "note": 48,
      "start": 83.1739,
      "duration": 0.0107,
      "velocity": 109,
      "chip": "ym2612"
    },
    {
      "channel": 0,
      "note": 62,
      "start": 83.3121,
      "duration": 0.289,
      "velocity": 109,
      "chip": "ym2612"
    },
    {
      "channel": 1,
      "note": 50,
      "start": 83.3142,
      "duration": 0.2871,
      "velocity": 108,
      "chip": "ym2612"
    },
    {
      "channel": 2,
      "note": 81,
      "start": 83.3202,
      "duration": 1.0396,
      "velocity": 102,
      "chip": "ym2612"
    },
    {
      "channel": 3,
      "note": 61,
      "start": 83.3259,
      "duration": 0.0482,
      "velocity": 127,
      "chip": "ym2612"
    },
    {
      "channel": 5,
      "note": 62,
      "start": 83.3392,
      "duration": 0.2756,
      "velocity": 109,
      "chip": "ym2612"
    },
    {
      "channel": 4,
      "note": 81,
      "start": 83.5572,
      "duration": 1.0434,
      "velocity": 102,
      "chip": "ym2612"
    },
    {
      "channel": 0,
      "note": 50,
      "start": 83.628,
      "duration": 0.011,
      "velocity": 109,
      "chip": "ym2612"
    },
    {
      "channel": 1,
      "note": 50,
      "start": 83.6298,
      "duration": 0.1234,
      "velocity": 108,
      "chip": "ym2612"
    },
    {
      "channel": 5,
      "note": 50,
      "start": 83.6418,
      "duration": 0.0118,
      "velocity": 109,
      "chip": "ym2612"
    },
    {
      "channel": 0,
      "note": 50,
      "start": 83.7797,
      "duration": 0.0111,
      "velocity": 109,
      "chip": "ym2612"
    },
    {
      "channel": 1,
      "note": 50,
      "start": 83.7815,
      "duration": 0.1241,
      "velocity": 108,
      "chip": "ym2612"
    },
    {
      "channel": 3,
      "note": 61,
      "start": 83.7878,
      "duration": 0.0414,
      "velocity": 127,
      "chip": "ym2612"
    },
    {
      "channel": 5,
      "note": 50,
      "start": 83.7935,
      "duration": 0.0106,
      "velocity": 109,
      "chip": "ym2612"
    },
    {
      "channel": 0,
      "note": 50,
      "start": 83.9313,
      "duration": 0.0111,
      "velocity": 109,
      "chip": "ym2612"
    },
    {
      "channel": 1,
      "note": 50,
      "start": 83.9332,
      "duration": 0.1231,
      "velocity": 108,
      "chip": "ym2612"
    },
    {
      "channel": 5,
      "note": 50,
      "start": 83.9451,
      "duration": 0.0109,
      "velocity": 109,
      "chip": "ym2612"
    },
    {
      "channel": 0,
      "note": 50,
      "start": 84.083,
      "duration": 0.0111,
      "velocity": 109,
      "chip": "ym2612"
    },
    {
      "channel": 1,
      "note": 50,
      "start": 84.0848,
      "duration": 0.1231,
      "velocity": 108,
      "chip": "ym2612"
    },
    {
      "channel": 3,
      "note": 61,
      "start": 84.0915,
      "duration": 0.0409,
      "velocity": 127,
      "chip": "ym2612"
    },
    {
      "channel": 5,
      "note": 50,
      "start": 84.0968,
      "duration": 0.0105,
      "velocity": 109,
      "chip": "ym2612"
    },
    {
      "channel": 0,
      "note": 50,
      "start": 84.2347,
      "duration": 0.0111,
      "velocity": 109,
      "chip": "ym2612"
    },
    {
      "channel": 1,
      "note": 50,
      "start": 84.2373,
      "duration": 0.1223,
      "velocity": 108,
      "chip": "ym2612"
    },
    {
      "channel": 5,
      "note": 50,
      "start": 84.2484,
      "duration": 0.011,
      "velocity": 109,
      "chip": "ym2612"
    },
    {
      "channel": 0,
      "note": 50,
      "start": 84.3872,
      "duration": 0.0229,
      "velocity": 109,
      "chip": "ym2612"
    },
    {
      "channel": 1,
      "note": 50,
      "start": 84.389,
      "duration": 0.1349,
      "velocity": 108,
      "chip": "ym2612"
    },
    {
      "channel": 2,
      "note": 86,
      "start": 84.3909,
      "duration": 0.1333,
      "velocity": 102,
      "chip": "ym2612"
    },
    {
      "channel": 3,
      "note": 61,
      "start": 84.3961,
      "duration": 0.0523,
      "velocity": 127,
      "chip": "ym2612"
    },
    {
      "channel": 5,
      "note": 50,
      "start": 84.4128,
      "duration": 0.0105,
      "velocity": 109,
      "chip": "ym2612"
    },
    {
      "channel": 0,
      "note": 62,
      "start": 84.551,
      "duration": 0.2762,
      "velocity": 109,
      "chip": "ym2612"
    },
    {
      "channel": 1,
      "note": 50,
      "start": 84.5539,
      "duration": 0.2735,
      "velocity": 108,
      "chip": "ym2612"
    },
    {
      "channel": 2,
      "note": 84,
      "start": 84.5557,
      "duration": 0.12,
      "velocity": 102,
      "chip": "ym2612"
    },
    {
      "channel": 5,
      "note": 62,
      "start": 84.5647,
      "duration": 0.2762,
      "velocity": 109,
      "chip": "ym2612"
    },
    {
      "channel": 4,
      "note": 86,
      "start": 84.6274,
      "duration": 0.1255,
      "velocity": 102,
      "chip": "ym2612"
    },
    {
      "channel": 2,
      "note": 81,
      "start": 84.7035,
      "duration": 0.1242,
      "velocity": 102,
      "chip": "ym2612"
    },
    {
      "channel": 3,
      "note": 61,
      "start": 84.7089,
      "duration": 0.0429,
      "velocity": 127,
      "chip": "ym2612"
    },
    {
      "channel": 4,
      "note": 84,
      "start": 84.779,
      "duration": 0.1249,
      "velocity": 102,
      "chip": "ym2612"
    },
    {
      "channel": 0,
      "note": 50,
      "start": 84.8547,
      "duration": 0.0105,
      "velocity": 109,
      "chip": "ym2612"
    },
    {
      "channel": 1,
      "note": 50,
      "start": 84.8565,
      "duration": 0.1225,
      "velocity": 108,
      "chip": "ym2612"
    },
    {
      "channel": 2,
      "note": 79,
      "start": 84.8582,
      "duration": 0.121,
      "velocity": 102,
      "chip": "ym2612"
    },
    {
      "channel": 5,
      "note": 50,
      "start": 84.8678,
      "duration": 0.0109,
      "velocity": 109,
      "chip": "ym2612"
    },
    {
      "channel": 4,
      "note": 81,
      "start": 84.9307,
      "duration": 0.1246,
      "velocity": 102,
      "chip": "ym2612"
    },
    {
      "channel": 0,
      "note": 50,
      "start": 85.0058,
      "duration": 0.0111,
      "velocity": 109,
      "chip": "ym2612"
    },
    {
      "channel": 1,
      "note": 50,
      "start": 85.0075,
      "duration": 0.1232,
      "velocity": 108,
      "chip": "ym2612"
    },
    {
      "channel": 2,
      "note": 77,
      "start": 85.0094,
      "duration": 0.1216,
      "velocity": 102,
      "chip": "ym2612"
    },
    {
      "channel": 3,
      "note": 61,
      "start": 85.0147,
      "duration": 0.0405,
      "velocity": 127,
      "chip": "ym2612"
    },
    {
      "channel": 5,
      "note": 50,
      "start": 85.0204,
      "duration": 0.0097,
      "velocity": 109,
      "chip": "ym2612"
    },
    {
      "channel": 4,
      "note": 79,
      "start": 85.0824,
      "duration": 0.1249,
      "velocity": 102,
      "chip": "ym2612"
    },
    {
      "channel": 0,
      "note": 50,
      "start": 85.1583,
      "duration": 0.0102,
      "velocity": 109,
      "chip": "ym2612"
    },
    {
      "channel": 1,
      "note": 50,
      "start": 85.1601,
      "duration": 0.1222,
      "velocity": 108,
      "chip": "ym2612"
    },
    {
      "channel": 2,
      "note": 74,
      "start": 85.1619,
      "duration": 0.7273,
      "velocity": 102,
      "chip": "ym2612"
    },
    {
      "channel": 5,
      "note": 50,
      "start": 85.1721,
      "duration": 0.01,
      "velocity": 109,
      "chip": "ym2612"
    },
    {
      "channel": 4,
      "note": 77,
      "start": 85.2341,
      "duration": 0.1247,
      "velocity": 102,
      "chip": "ym2612"
    },
    {
      "channel": 0,
      "note": 50,
      "start": 85.3091,
      "duration": 0.0111,
      "velocity": 109,
      "chip": "ym2612"
    },
    {
      "channel": 1,
      "note": 50,
      "start": 85.3109,
      "duration": 0.1232,
      "velocity": 108,
      "chip": "ym2612"
    },
    {
      "channel": 3,
      "note": 61,
      "start": 85.317,
      "duration": 0.0416,
      "velocity": 127,
      "chip": "ym2612"
    },
    {
      "channel": 5,
      "note": 50,
      "start": 85.3229,
      "duration": 0.0106,
      "velocity": 109,
      "chip": "ym2612"
    },
    {
      "channel": 4,
      "note": 74,
      "start": 85.3866,
      "duration": 0.7308,
      "velocity": 102,
      "chip": "ym2612"
    },
    {
      "channel": 0,
      "note": 50,
      "start": 85.4608,
      "duration": 0.0111,
      "velocity": 109,
      "chip": "ym2612"
    },
    {
      "channel": 1,
      "note": 50,
      "start": 85.4626,
      "duration": 0.1248,
      "velocity": 108,
      "chip": "ym2612"
    },
    {
      "channel": 5,
      "note": 50,
      "start": 85.4745,
      "duration": 0.0118,
      "velocity": 109,
      "chip": "ym2612"
    },
    {
      "channel": 0,
      "note": 50,
      "start": 85.6125,
      "duration": 0.0111,
      "velocity": 109,
      "chip": "ym2612"
    },
    {
      "channel": 1,
      "note": 50,
      "start": 85.6143,
      "duration": 0.1232,
      "velocity": 108,
      "chip": "ym2612"
    },
    {
      "channel": 3,
      "note": 61,
      "start": 85.6206,
      "duration": 0.0414,
      "velocity": 127,
      "chip": "ym2612"
    },
    {
      "channel": 5,
      "note": 50,
      "start": 85.6263,
      "duration": 0.0107,
      "velocity": 109,
      "chip": "ym2612"
    },
    {
      "channel": 0,
      "note": 62,
      "start": 85.7644,
      "duration": 0.2763,
      "velocity": 109,
      "chip": "ym2612"
    },
    {
      "channel": 1,
      "note": 50,
      "start": 85.7665,
      "duration": 0.2744,
      "velocity": 108,
      "chip": "ym2612"
    },
    {
      "channel": 5,
      "note": 62,
      "start": 85.7781,
      "duration": 0.2762,
      "velocity": 109,
      "chip": "ym2612"
    },
    {
      "channel": 2,
      "note": 81,
      "start": 85.9161,
      "duration": 0.7316,
      "velocity": 102,
      "chip": "ym2612"
    },
    {
      "channel": 3,
      "note": 61,
      "start": 85.9223,
      "duration": 0.0431,
      "velocity": 127,
      "chip": "ym2612"
    },
    {
      "channel": 0,
      "note": 50,
      "start": 86.0675,
      "duration": 0.0111,
      "velocity": 109,
      "chip": "ym2612"
    },
    {
      "channel": 1,
      "note": 50,
      "start": 86.0702,
      "duration": 0.1223,
      "velocity": 108,
      "chip": "ym2612"
    },
    {
      "channel": 5,
      "note": 50,
      "start": 86.0813,
      "duration": 0.0109,
      "velocity": 109,
      "chip": "ym2612"
    },
    {
      "channel": 4,
      "note": 81,
      "start": 86.1442,
      "duration": 0.7314,
      "velocity": 102,
      "chip": "ym2612"
    },
    {
      "channel": 0,
      "note": 50,
      "start": 86.22,
      "duration": 0.0102,
      "velocity": 109,
      "chip": "ym2612"
    },
    {
      "channel": 1,
      "note": 50,
      "start": 86.2219,
      "duration": 0.1222,
      "velocity": 108,
      "chip": "ym2612"
    },
    {
      "channel": 3,
      "note": 61,
      "start": 86.2273,
      "duration": 0.0414,
      "velocity": 127,
      "chip": "ym2612"
    },
    {
      "channel": 5,
      "note": 50,
      "start": 86.233,
      "duration": 0.0105,
      "velocity": 109,
      "chip": "ym2612"
    },
    {
      "channel": 0,
      "note": 50,
      "start": 86.3714,
      "duration": 0.0106,
      "velocity": 109,
      "chip": "ym2612"
    },
    {
      "channel": 1,
      "note": 50,
      "start": 86.3732,
      "duration": 0.1226,
      "velocity": 108,
      "chip": "ym2612"
    },
    {
      "channel": 5,
      "note": 50,
      "start": 86.3848,
      "duration": 0.0116,
      "velocity": 109,
      "chip": "ym2612"
    },
    {
      "channel": 0,
      "note": 50,
      "start": 86.5225,
      "duration": 0.0111,
      "velocity": 109,
      "chip": "ym2612"
    },
    {
      "channel": 1,
      "note": 50,
      "start": 86.5244,
      "duration": 0.1231,
      "velocity": 108,
      "chip": "ym2612"
    },
    {
      "channel": 3,
      "note": 61,
      "start": 86.5304,
      "duration": 0.0416,
      "velocity": 127,
      "chip": "ym2612"
    },
    {
      "channel": 5,
      "note": 50,
      "start": 86.5372,
      "duration": 0.0097,
      "velocity": 109,
      "chip": "ym2612"
    },
    {
      "channel": 0,
      "note": 50,
      "start": 86.6743,
      "duration": 0.0111,
      "velocity": 109,
      "chip": "ym2612"
    },
    {
      "channel": 1,
      "note": 50,
      "start": 86.6761,
      "duration": 0.1233,
      "velocity": 108,
      "chip": "ym2612"
    },
    {
      "channel": 2,
      "note": 84,
      "start": 86.6779,
      "duration": 0.1217,
      "velocity": 102,
      "chip": "ym2612"
    },
    {
      "channel": 5,
      "note": 50,
      "start": 86.6888,
      "duration": 0.0101,
      "velocity": 109,
      "chip": "ym2612"
    },
    {
      "channel": 0,
      "note": 50,
      "start": 86.8268,
      "duration": 0.0102,
      "velocity": 109,
      "chip": "ym2612"
    },
    {
      "channel": 1,
      "note": 50,
      "start": 86.8287,
      "duration": 0.1222,
      "velocity": 108,
      "chip": "ym2612"
    },
    {
      "channel": 3,
      "note": 61,
      "start": 86.8341,
      "duration": 0.0413,
      "velocity": 127,
      "chip": "ym2612"
    },
    {
      "channel": 5,
      "note": 50,
      "start": 86.8397,
      "duration": 0.0105,
      "velocity": 109,
      "chip": "ym2612"
    },
    {
      "channel": 4,
      "note": 84,
      "start": 86.9035,
      "duration": 0.124,
      "velocity": 102,
      "chip": "ym2612"
    },
    {
      "channel": 0,
      "note": 62,
      "start": 86.9779,
      "duration": 0.2762,
      "velocity": 109,
      "chip": "ym2612"
    },
    {
      "channel": 1,
      "note": 50,
      "start": 86.9799,
      "duration": 0.2744,
      "velocity": 108,
      "chip": "ym2612"
    },
    {
      "channel": 2,
      "note": 81,
      "start": 86.9818,
      "duration": 0.7277,
      "velocity": 102,
      "chip": "ym2612"
    },
    {
      "channel": 5,
      "note": 62,
      "start": 86.9916,
      "duration": 0.2762,
      "velocity": 109,
      "chip": "ym2612"
    },
    {
      "channel": 3,
      "note": 61,
      "start": 87.1333,
      "duration": 0.0454,
      "velocity": 127,
      "chip": "ym2612"
    },
    {
      "channel": 4,
      "note": 81,
      "start": 87.2064,
      "duration": 0.7309,
      "velocity": 102,
      "chip": "ym2612"
    },
    {
      "channel": 0,
      "note": 50,
      "start": 87.281,
      "duration": 0.011,
      "velocity": 109,
      "chip": "ym2612"
    },
    {
      "channel": 1,
      "note": 50,
      "start": 87.2828,
      "duration": 0.1231,
      "velocity": 108,
      "chip": "ym2612"
    },
    {
      "channel": 5,
      "note": 50,
      "start": 87.2947,
      "duration": 0.011,
      "velocity": 109,
      "chip": "ym2612"
    },
    {
      "channel": 0,
      "note": 50,
      "start": 87.4327,
      "duration": 0.0111,
      "velocity": 109,
      "chip": "ym2612"
    },
    {
      "channel": 1,
      "note": 50,
      "start": 87.4344,
      "duration": 0.1231,
      "velocity": 108,
      "chip": "ym2612"
    },
    {
      "channel": 3,
      "note": 61,
      "start": 87.4407,
      "duration": 0.0415,
      "velocity": 127,
      "chip": "ym2612"
    },
    {
      "channel": 5,
      "note": 50,
      "start": 87.4465,
      "duration": 0.0106,
      "velocity": 109,
      "chip": "ym2612"
    },
    {
      "channel": 0,
      "note": 50,
      "start": 87.5843,
      "duration": 0.0111,
      "velocity": 109,
      "chip": "ym2612"
    },
    {
      "channel": 1,
      "note": 50,
      "start": 87.587,
      "duration": 0.1223,
      "velocity": 108,
      "chip": "ym2612"
    },
    {
      "channel": 5,
      "note": 50,
      "start": 87.598,
      "duration": 0.011,
      "velocity": 109,
      "chip": "ym2612"
    },
    {
      "channel": 0,
      "note": 62,
      "start": 87.7369,
      "duration": 0.4273,
      "velocity": 109,
      "chip": "ym2612"
    },
    {
      "channel": 1,
      "note": 50,
      "start": 87.7386,
      "duration": 0.1223,
      "velocity": 108,
      "chip": "ym2612"
    },
    {
      "channel": 2,
      "note": 81,
      "start": 87.7405,
      "duration": 0.4242,
      "velocity": 102,
      "chip": "ym2612"
    },
    {
      "channel": 3,
      "note": 61,
      "start": 87.7462,
      "duration": 0.0401,
      "velocity": 127,
      "chip": "ym2612"
    },
    {
      "channel": 5,
      "note": 62,
      "start": 87.751,
      "duration": 0.4268,
      "velocity": 109,
      "chip": "ym2612"
    },
    {
      "channel": 1,
      "note": 50,
      "start": 87.8881,
      "duration": 0.1246,
      "velocity": 108,
      "chip": "ym2612"
    },
    {
      "channel": 3,
      "note": 61,
      "start": 87.8935,
      "duration": 0.0437,
      "velocity": 127,
      "chip": "ym2612"
    },
    {
      "channel": 4,
      "note": 81,
      "start": 87.9644,
      "duration": 0.4283,
      "velocity": 102,
      "chip": "ym2612"
    },
    {
      "channel": 1,
      "note": 44,
      "start": 88.0394,
      "duration": 0.125,
      "velocity": 108,
      "chip": "ym2612"
    },
    {
      "channel": 3,
      "note": 61,
      "start": 88.0417,
      "duration": 0.0471,
      "velocity": 127,
      "chip": "ym2612"
    },
    {
      "channel": 0,
      "note": 58,
      "start": 88.1912,
      "duration": 0.2765,
      "velocity": 109,
      "chip": "ym2612"
    },
    {
      "channel": 1,
      "note": 46,
      "start": 88.1932,
      "duration": 0.2747,
      "velocity": 108,
      "chip": "ym2612"
    },
    {
      "channel": 2,
      "note": 77,
      "start": 88.195,
      "duration": 0.8796,
      "velocity": 102,
      "chip": "ym2612"
    },
    {
      "channel": 3,
      "note": 61,
      "start": 88.2003,
      "duration": 0.0402,
      "velocity": 127,
      "chip": "ym2612"
    },
    {
      "channel": 5,
      "note": 58,
      "start": 88.2059,
      "duration": 0.2758,
      "velocity": 109,
      "chip": "ym2612"
    },
    {
      "channel": 4,
      "note": 77,
      "start": 88.4202,
      "duration": 0.8954,
      "velocity": 102,
      "chip": "ym2612"
    },
    {
      "channel": 0,
      "note": 46,
      "start": 88.4953,
      "duration": 0.0102,
      "velocity": 109,
      "chip": "ym2612"
    },
    {
      "channel": 1,
      "note": 46,
      "start": 88.4971,
      "duration": 0.1227,
      "velocity": 108,
      "chip": "ym2612"
    },
    {
      "channel": 3,
      "note": 61,
      "start": 88.4994,
      "duration": 0.0444,
      "velocity": 127,
      "chip": "ym2612"
    },
    {
      "channel": 5,
      "note": 46,
      "start": 88.5082,
      "duration": 0.0113,
      "velocity": 109,
      "chip": "ym2612"
    },
    {
      "channel": 0,
      "note": 46,
      "start": 88.6461,
      "duration": 0.0111,
      "velocity": 109,
      "chip": "ym2612"
    },
    {
      "channel": 1,
      "note": 46,
      "start": 88.6479,
      "duration": 0.1232,
      "velocity": 108,
      "chip": "ym2612"
    },
    {
      "channel": 3,
      "note": 61,
      "start": 88.6542,
      "duration": 0.0414,
      "velocity": 127,
      "chip": "ym2612"
    },
    {
      "channel": 5,
      "note": 46,
      "start": 88.66,
      "duration": 0.0105,
      "velocity": 109,
      "chip": "ym2612"
    },
    {
      "channel": 0,
      "note": 46,
      "start": 88.7978,
      "duration": 0.0111,
      "velocity": 109,
      "chip": "ym2612"
    },
    {
      "channel": 1,
      "note": 46,
      "start": 88.7996,
      "duration": 0.1231,
      "velocity": 108,
      "chip": "ym2612"
    },
    {
      "channel": 5,
      "note": 46,
      "start": 88.8115,
      "duration": 0.011,
      "velocity": 109,
      "chip": "ym2612"
    },
    {
      "channel": 0,
      "note": 46,
      "start": 88.9495,
      "duration": 0.0111,
      "velocity": 109,
      "chip": "ym2612"
    },
    {
      "channel": 1,
      "note": 46,
      "start": 88.9513,
      "duration": 0.1231,
      "velocity": 108,
      "chip": "ym2612"
    },
    {
      "channel": 3,
      "note": 61,
      "start": 88.958,
      "duration": 0.0409,
      "velocity": 127,
      "chip": "ym2612"
    },
    {
      "channel": 5,
      "note": 46,
      "start": 88.9632,
      "duration": 0.0106,
      "velocity": 109,
      "chip": "ym2612"
    },
    {
      "channel": 0,
      "note": 46,
      "start": 89.1012,
      "duration": 0.011,
      "velocity": 109,
      "chip": "ym2612"
    },
    {
      "channel": 1,
      "note": 46,
      "start": 89.1038,
      "duration": 0.1223,
      "velocity": 108,
      "chip": "ym2612"
    },
    {
      "channel": 2,
      "note": 76,
      "start": 89.1056,
      "duration": 0.1207,
      "velocity": 102,
      "chip": "ym2612"
    },
    {
      "channel": 5,
      "note": 46,
      "start": 89.1149,
      "duration": 0.0109,
      "velocity": 109,
      "chip": "ym2612"
    },
    {
      "channel": 0,
      "note": 46,
      "start": 89.2537,
      "duration": 0.0228,
      "velocity": 109,
      "chip": "ym2612"
    },
    {
      "channel": 1,
      "note": 46,
      "start": 89.2555,
      "duration": 0.1349,
      "velocity": 108,
      "chip": "ym2612"
    },
    {
      "channel": 2,
      "note": 74,
      "start": 89.2573,
      "duration": 0.1333,
      "velocity": 102,
      "chip": "ym2612"
    },
    {
      "channel": 3,
      "note": 61,
      "start": 89.2626,
      "duration": 0.0528,
      "velocity": 127,
      "chip": "ym2612"
    },
    {
      "channel": 5,
      "note": 46,
      "start": 89.2792,
      "duration": 0.0105,
      "velocity": 109,
      "chip": "ym2612"
    },
    {
      "channel": 4,
      "note": 76,
      "start": 89.3421,
      "duration": 0.1249,
      "velocity": 102,
      "chip": "ym2612"
    },
    {
      "channel": 0,
      "note": 60,
      "start": 89.4174,
      "duration": 0.2763,
      "velocity": 109,
      "chip": "ym2612"
    },
    {
      "channel": 1,
      "note": 48,
      "start": 89.4203,
      "duration": 0.2735,
      "velocity": 108,
      "chip": "ym2612"
    },
    {
      "channel": 2,
      "note": 79,
      "start": 89.4222,
      "duration": 0.8785,
      "velocity": 102,
      "chip": "ym2612"
    },
    {
      "channel": 5,
      "note": 60,
      "start": 89.4311,
      "duration": 0.2762,
      "velocity": 109,
      "chip": "ym2612"
    },
    {
      "channel": 4,
      "note": 74,
      "start": 89.4938,
      "duration": 0.1247,
      "velocity": 102,
      "chip": "ym2612"
    },
    {
      "channel": 3,
      "note": 61,
      "start": 89.5736,
      "duration": 0.0446,
      "velocity": 127,
      "chip": "ym2612"
    },
    {
      "channel": 4,
      "note": 79,
      "start": 89.6455,
      "duration": 0.8957,
      "velocity": 102,
      "chip": "ym2612"
    },
    {
      "channel": 0,
      "note": 48,
      "start": 89.7215,
      "duration": 0.0106,
      "velocity": 109,
      "chip": "ym2612"
    },
    {
      "channel": 1,
      "note": 48,
      "start": 89.7233,
      "duration": 0.1221,
      "velocity": 108,
      "chip": "ym2612"
    },
    {
      "channel": 5,
      "note": 48,
      "start": 89.7348,
      "duration": 0.0112,
      "velocity": 109,
      "chip": "ym2612"
    },
    {
      "channel": 0,
      "note": 48,
      "start": 89.8722,
      "duration": 0.0111,
      "velocity": 109,
      "chip": "ym2612"
    },
    {
      "channel": 1,
      "note": 48,
      "start": 89.874,
      "duration": 0.1231,
      "velocity": 108,
      "chip": "ym2612"
    },
    {
      "channel": 3,
      "note": 61,
      "start": 89.8794,
      "duration": 0.0422,
      "velocity": 127,
      "chip": "ym2612"
    },
    {
      "channel": 5,
      "note": 48,
      "start": 89.8869,
      "duration": 0.0097,
      "velocity": 109,
      "chip": "ym2612"
    },
    {
      "channel": 0,
      "note": 48,
      "start": 90.0239,
      "duration": 0.0111,
      "velocity": 109,
      "chip": "ym2612"
    },
    {
      "channel": 1,
      "note": 48,
      "start": 90.0257,
      "duration": 0.1236,
      "velocity": 108,
      "chip": "ym2612"
    },
    {
      "channel": 5,
      "note": 48,
      "start": 90.0385,
      "duration": 0.0101,
      "velocity": 109,
      "chip": "ym2612"
    },
    {
      "channel": 0,
      "note": 48,
      "start": 90.1755,
      "duration": 0.0111,
      "velocity": 109,
      "chip": "ym2612"
    },
    {
      "channel": 1,
      "note": 48,
      "start": 90.1774,
      "duration": 0.1231,
      "velocity": 108,
      "chip": "ym2612"
    },
    {
      "channel": 3,
      "note": 61,
      "start": 90.1832,
      "duration": 0.0417,
      "velocity": 127,
      "chip": "ym2612"
    },
    {
      "channel": 5,
      "note": 48,
      "start": 90.1893,
      "duration": 0.0105,
      "velocity": 109,
      "chip": "ym2612"
    },
    {
      "channel": 0,
      "note": 48,
      "start": 90.3273,
      "duration": 0.011,
      "velocity": 109,
      "chip": "ym2612"
    },
    {
      "channel": 1,
      "note": 48,
      "start": 90.329,
      "duration": 0.1239,
      "velocity": 108,
      "chip": "ym2612"
    },
    {
      "channel": 2,
      "note": 77,
      "start": 90.3309,
      "duration": 0.1223,
      "velocity": 102,
      "chip": "ym2612"
    },
    {
      "channel": 5,
      "note": 48,
      "start": 90.341,
      "duration": 0.011,
      "velocity": 109,
      "chip": "ym2612"
    },
    {
      "channel": 0,
      "note": 48,
      "start": 90.4789,
      "duration": 0.0242,
      "velocity": 109,
      "chip": "ym2612"
    },
    {
      "channel": 1,
      "note": 48,
      "start": 90.4807,
      "duration": 0.1357,
      "velocity": 108,
      "chip": "ym2612"
    },
    {
      "channel": 2,
      "note": 76,
      "start": 90.4825,
      "duration": 0.1341,
      "velocity": 102,
      "chip": "ym2612"
    },
    {
      "channel": 3,
      "note": 61,
      "start": 90.4886,
      "duration": 0.0524,
      "velocity": 127,
      "chip": "ym2612"
    },
    {
      "channel": 5,
      "note": 48,
      "start": 90.5058,
      "duration": 0.0101,
      "velocity": 109,
      "chip": "ym2612"
    },
    {
      "channel": 4,
      "note": 77,
      "start": 90.5696,
      "duration": 0.1233,
      "velocity": 102,
      "chip": "ym2612"
    },
    {
      "channel": 0,
      "note": 62,
      "start": 90.6435,
      "duration": 0.2762,
      "velocity": 109,
      "chip": "ym2612"
    },
    {
      "channel": 1,
      "note": 50,
      "start": 90.6456,
      "duration": 0.2743,
      "velocity": 108,
      "chip": "ym2612"
    },
    {
      "channel": 2,
      "note": 74,
      "start": 90.6474,
      "duration": 2.5478,
      "velocity": 102,
      "chip": "ym2612"
    },
    {
      "channel": 3,
      "note": 61,
      "start": 90.6495,
      "duration": 0.0431,
      "velocity": 127,
      "chip": "ym2612"
    },
    {
      "channel": 5,
      "note": 62,
      "start": 90.6572,
      "duration": 0.2761,
      "velocity": 109,
      "chip": "ym2612"
    },
    {
      "channel": 4,
      "note": 76,
      "start": 90.7207,
      "duration": 0.1241,
      "velocity": 102,
      "chip": "ym2612"
    },
    {
      "channel": 4,
      "note": 74,
      "start": 90.8721,
      "duration": 2.5648,
      "velocity": 102,
      "chip": "ym2612"
    },
    {
      "channel": 0,
      "note": 50,
      "start": 90.9466,
      "duration": 0.0111,
      "velocity": 109,
      "chip": "ym2612"
    },
    {
      "channel": 1,
      "note": 50,
      "start": 90.9484,
      "duration": 0.1231,
      "velocity": 108,
      "chip": "ym2612"
    },
    {
      "channel": 3,
      "note": 61,
      "start": 90.9547,
      "duration": 0.0422,
      "velocity": 127,
      "chip": "ym2612"
    },
    {
      "channel": 5,
      "note": 50,
      "start": 90.9604,
      "duration": 0.0108,
      "velocity": 109,
      "chip": "ym2612"
    },
    {
      "channel": 0,
      "note": 50,
      "start": 91.0983,
      "duration": 0.011,
      "velocity": 109,
      "chip": "ym2612"
    },
    {
      "channel": 1,
      "note": 50,
      "start": 91.1001,
      "duration": 0.1231,
      "velocity": 108,
      "chip": "ym2612"
    },
    {
      "channel": 3,
      "note": 61,
      "start": 91.1064,
      "duration": 0.0413,
      "velocity": 127,
      "chip": "ym2612"
    },
    {
      "channel": 5,
      "note": 50,
      "start": 91.1121,
      "duration": 0.0105,
      "velocity": 109,
      "chip": "ym2612"
    },
    {
      "channel": 0,
      "note": 50,
      "start": 91.25,
      "duration": 0.0111,
      "velocity": 109,
      "chip": "ym2612"
    },
    {
      "channel": 1,
      "note": 50,
      "start": 91.2517,
      "duration": 0.1231,
      "velocity": 108,
      "chip": "ym2612"
    },
    {
      "channel": 5,
      "note": 50,
      "start": 91.2637,
      "duration": 0.011,
      "velocity": 109,
      "chip": "ym2612"
    },
    {
      "channel": 0,
      "note": 50,
      "start": 91.4029,
      "duration": 0.0106,
      "velocity": 109,
      "chip": "ym2612"
    },
    {
      "channel": 1,
      "note": 50,
      "start": 91.4048,
      "duration": 0.1217,
      "velocity": 108,
      "chip": "ym2612"
    },
    {
      "channel": 3,
      "note": 61,
      "start": 91.4105,
      "duration": 0.0405,
      "velocity": 127,
      "chip": "ym2612"
    },
    {
      "channel": 5,
      "note": 50,
      "start": 91.4163,
      "duration": 0.0096,
      "velocity": 109,
      "chip": "ym2612"
    },
    {
      "channel": 0,
      "note": 50,
      "start": 91.5542,
      "duration": 0.0102,
      "velocity": 109,
      "chip": "ym2612"
    },
    {
      "channel": 1,
      "note": 50,
      "start": 91.5559,
      "duration": 0.1223,
      "velocity": 108,
      "chip": "ym2612"
    },
    {
      "channel": 5,
      "note": 50,
      "start": 91.5671,
      "duration": 0.011,
      "velocity": 109,
      "chip": "ym2612"
    },
    {
      "channel": 0,
      "note": 50,
      "start": 91.705,
      "duration": 0.0111,
      "velocity": 109,
      "chip": "ym2612"
    },
    {
      "channel": 1,
      "note": 50,
      "start": 91.7068,
      "duration": 0.124,
      "velocity": 108,
      "chip": "ym2612"
    },
    {
      "channel": 3,
      "note": 61,
      "start": 91.7122,
      "duration": 0.0422,
      "velocity": 127,
      "chip": "ym2612"
    },
    {
      "channel": 5,
      "note": 50,
      "start": 91.7196,
      "duration": 0.0097,
      "velocity": 109,
      "chip": "ym2612"
    },
    {
      "channel": 0,
      "note": 58,
      "start": 91.857,
      "duration": 0.2762,
      "velocity": 109,
      "chip": "ym2612"
    },
    {
      "channel": 1,
      "note": 46,
      "start": 91.8591,
      "duration": 0.2743,
      "velocity": 108,
      "chip": "ym2612"
    },
    {
      "channel": 5,
      "note": 58,
      "start": 91.8715,
      "duration": 0.2752,
      "velocity": 109,
      "chip": "ym2612"
    },
    {
      "channel": 3,
      "note": 61,
      "start": 92.0105,
      "duration": 0.0473,
      "velocity": 127,
      "chip": "ym2612"
    },
    {
      "channel": 0,
      "note": 46,
      "start": 92.1599,
      "duration": 0.0112,
      "velocity": 109,
      "chip": "ym2612"
    },
    {
      "channel": 1,
      "note": 46,
      "start": 92.1615,
      "duration": 0.1234,
      "velocity": 108,
      "chip": "ym2612"
    },
    {
      "channel": 5,
      "note": 46,
      "start": 92.1737,
      "duration": 0.011,
      "velocity": 109,
      "chip": "ym2612"
    },
    {
      "channel": 3,
      "note": 61,
      "start": 92.2112,
      "duration": 0.0488,
      "velocity": 127,
      "chip": "ym2612"
    },
    {
      "channel": 0,
      "note": 46,
      "start": 92.3115,
      "duration": 0.0113,
      "velocity": 109,
      "chip": "ym2612"
    },
    {
      "channel": 1,
      "note": 46,
      "start": 92.3132,
      "duration": 0.1235,
      "velocity": 108,
      "chip": "ym2612"
    },
    {
      "channel": 5,
      "note": 46,
      "start": 92.3254,
      "duration": 0.012,
      "velocity": 109,
      "chip": "ym2612"
    },
    {
      "channel": 3,
      "note": 61,
      "start": 92.4137,
      "duration": 0.0517,
      "velocity": 127,
      "chip": "ym2612"
    },
    {
      "channel": 0,
      "note": 60,
      "start": 92.4633,
      "duration": 0.2766,
      "velocity": 109,
      "chip": "ym2612"
    },
    {
      "channel": 1,
      "note": 48,
      "start": 92.4649,
      "duration": 0.2752,
      "velocity": 108,
      "chip": "ym2612"
    },
    {
      "channel": 5,
      "note": 60,
      "start": 92.4769,
      "duration": 0.2771,
      "velocity": 109,
      "chip": "ym2612"
    },
    {
      "channel": 3,
      "note": 61,
      "start": 92.5029,
      "duration": 0.0478,
      "velocity": 127,
      "chip": "ym2612"
    },
    {
      "channel": 3,
      "note": 61,
      "start": 92.5906,
      "duration": 0.0487,
      "velocity": 127,
      "chip": "ym2612"
    },
    {
      "channel": 3,
      "note": 61,
      "start": 92.6791,
      "duration": 0.0486,
      "velocity": 127,
      "chip": "ym2612"
    },
    {
      "channel": 0,
      "note": 48,
      "start": 92.7666,
      "duration": 0.0112,
      "velocity": 109,
      "chip": "ym2612"
    },
    {
      "channel": 1,
      "note": 48,
      "start": 92.7683,
      "duration": 0.1234,
      "velocity": 108,
      "chip": "ym2612"
    },
    {
      "channel": 3,
      "note": 61,
      "start": 92.7715,
      "duration": 0.0446,
      "velocity": 127,
      "chip": "ym2612"
    },
    {
      "channel": 5,
      "note": 48,
      "start": 92.7804,
      "duration": 0.0107,
      "velocity": 109,
      "chip": "ym2612"
    },
    {
      "channel": 3,
      "note": 61,
      "start": 92.8432,
      "duration": 0.0489,
      "velocity": 127,
      "chip": "ym2612"
    },
    {
      "channel": 0,
      "note": 48,
      "start": 92.9183,
      "duration": 0.0113,
      "velocity": 109,
      "chip": "ym2612"
    },
    {
      "channel": 1,
      "note": 48,
      "start": 92.9208,
      "duration": 0.1226,
      "velocity": 108,
      "chip": "ym2612"
    },
    {
      "channel": 3,
      "note": 61,
      "start": 92.9231,
      "duration": 0.0448,
      "velocity": 127,
      "chip": "ym2612"
    },
    {
      "channel": 5,
      "note": 48,
      "start": 92.9321,
      "duration": 0.0106,
      "velocity": 109,
      "chip": "ym2612"
    },
    {
      "channel": 0,
      "note": 48,
      "start": 93.0713,
      "duration": 0.0107,
      "velocity": 109,
      "chip": "ym2612"
    },
    {
      "channel": 1,
      "note": 48,
      "start": 93.0729,
      "duration": 0.1222,
      "velocity": 108,
      "chip": "ym2612"
    },
    {
      "channel": 3,
      "note": 61,
      "start": 93.0751,
      "duration": 0.045,
      "velocity": 127,
      "chip": "ym2612"
    },
    {
      "channel": 5,
      "note": 48,
      "start": 93.0846,
      "duration": 0.0098,
      "velocity": 109,
      "chip": "ym2612"
    },
    {
      "channel": 0,
      "note": 67,
      "start": 93.2222,
      "duration": 0.2888,
      "velocity": 109,
      "chip": "ym2612"
    },
    {
      "channel": 1,
      "note": 55,
      "start": 93.2243,
      "duration": 0.1351,
      "velocity": 108,
      "chip": "ym2612"
    },
    {
      "channel": 2,
      "note": 74,
      "start": 93.2297,
      "duration": 0.054,
      "velocity": 111,
      "chip": "ym2612"
    },
    {
      "channel": 3,
      "note": 61,
      "start": 93.2362,
      "duration": 0.0478,
      "velocity": 127,
      "chip": "ym2612"
    },
    {
      "channel": 5,
      "note": 67,
      "start": 93.2486,
      "duration": 0.276,
      "velocity": 109,
      "chip": "ym2612"
    },
    {
      "channel": 2,
      "note": 70,
      "start": 93.3105,
      "duration": 0.0491,
      "velocity": 111,
      "chip": "ym2612"
    },
    {
      "channel": 1,
      "note": 55,
      "start": 93.3871,
      "duration": 0.1241,
      "velocity": 108,
      "chip": "ym2612"
    },
    {
      "channel": 2,
      "note": 67,
      "start": 93.3889,
      "duration": 0.0473,
      "velocity": 111,
      "chip": "ym2612"
    },
    {
      "channel": 2,
      "note": 69,
      "start": 93.4622,
      "duration": 0.0492,
      "velocity": 111,
      "chip": "ym2612"
    },
    {
      "channel": 4,
      "note": 74,
      "start": 93.468,
      "duration": 0.0441,
      "velocity": 111,
      "chip": "ym2612"
    },
    {
      "channel": 0,
      "note": 55,
      "start": 93.5378,
      "duration": 0.0237,
      "velocity": 109,
      "chip": "ym2612"
    },
    {
      "channel": 1,
      "note": 55,
      "start": 93.5397,
      "duration": 0.1357,
      "velocity": 108,
      "chip": "ym2612"
    },
    {
      "channel": 2,
      "note": 74,
      "start": 93.5416,
      "duration": 0.058,
      "velocity": 111,
      "chip": "ym2612"
    },
    {
      "channel": 3,
      "note": 61,
      "start": 93.5469,
      "duration": 0.0531,
      "velocity": 127,
      "chip": "ym2612"
    },
    {
      "channel": 4,
      "note": 70,
      "start": 93.5486,
      "duration": 0.0515,
      "velocity": 111,
      "chip": "ym2612"
    },
    {
      "channel": 5,
      "note": 55,
      "start": 93.5641,
      "duration": 0.0106,
      "velocity": 109,
      "chip": "ym2612"
    },
    {
      "channel": 2,
      "note": 70,
      "start": 93.6265,
      "duration": 0.0491,
      "velocity": 111,
      "chip": "ym2612"
    },
    {
      "channel": 4,
      "note": 67,
      "start": 93.6288,
      "duration": 0.0476,
      "velocity": 111,
      "chip": "ym2612"
    },
    {
      "channel": 0,
      "note": 67,
      "start": 93.7028,
      "duration": 0.2759,
      "velocity": 109,
      "chip": "ym2612"
    },
    {
      "channel": 1,
      "note": 55,
      "start": 93.7046,
      "duration": 0.1225,
      "velocity": 108,
      "chip": "ym2612"
    },
    {
      "channel": 2,
      "note": 67,
      "start": 93.7065,
      "duration": 0.0449,
      "velocity": 111,
      "chip": "ym2612"
    },
    {
      "channel": 4,
      "note": 69,
      "start": 93.7087,
      "duration": 0.0443,
      "velocity": 111,
      "chip": "ym2612"
    },
    {
      "channel": 5,
      "note": 67,
      "start": 93.7157,
      "duration": 0.2766,
      "velocity": 109,
      "chip": "ym2612"
    },
    {
      "channel": 2,
      "note": 69,
      "start": 93.7782,
      "duration": 0.0491,
      "velocity": 111,
      "chip": "ym2612"
    },
    {
      "channel": 4,
      "note": 74,
      "start": 93.7806,
      "duration": 0.0474,
      "velocity": 111,
      "chip": "ym2612"
    },
    {
      "channel": 1,
      "note": 55,
      "start": 93.8547,
      "duration": 0.1241,
      "velocity": 108,
      "chip": "ym2612"
    },
    {
      "channel": 2,
      "note": 74,
      "start": 93.8567,
      "duration": 0.0475,
      "velocity": 111,
      "chip": "ym2612"
    },
    {
      "channel": 3,
      "note": 61,
      "start": 93.8621,
      "duration": 0.0424,
      "velocity": 127,
      "chip": "ym2612"
    },
    {
      "channel": 4,
      "note": 70,
      "start": 93.8638,
      "duration": 0.0408,
      "velocity": 111,
      "chip": "ym2612"
    },
    {
      "channel": 2,
      "note": 70,
      "start": 93.9299,
      "duration": 0.0492,
      "velocity": 111,
      "chip": "ym2612"
    },
    {
      "channel": 4,
      "note": 67,
      "start": 93.9322,
      "duration": 0.0476,
      "velocity": 111,
      "chip": "ym2612"
    },
    {
      "channel": 0,
      "note": 55,
      "start": 94.0054,
      "duration": 0.0112,
      "velocity": 109,
      "chip": "ym2612"
    },
    {
      "channel": 1,
      "note": 55,
      "start": 94.0072,
      "duration": 0.1233,
      "velocity": 108,
      "chip": "ym2612"
    },
    {
      "channel": 2,
      "note": 67,
      "start": 94.0089,
      "duration": 0.0458,
      "velocity": 111,
      "chip": "ym2612"
    },
    {
      "channel": 4,
      "note": 69,
      "start": 94.0112,
      "duration": 0.0442,
      "velocity": 111,
      "chip": "ym2612"
    },
    {
      "channel": 5,
      "note": 55,
      "start": 94.0199,
      "duration": 0.0102,
      "velocity": 109,
      "chip": "ym2612"
    },
    {
      "channel": 2,
      "note": 69,
      "start": 94.0816,
      "duration": 0.0491,
      "velocity": 111,
      "chip": "ym2612"
    },
    {
      "channel": 4,
      "note": 74,
      "start": 94.084,
      "duration": 0.0474,
      "velocity": 111,
      "chip": "ym2612"
    },
    {
      "channel": 0,
      "note": 55,
      "start": 94.157,
      "duration": 0.0239,
      "velocity": 109,
      "chip": "ym2612"
    },
    {
      "channel": 1,
      "note": 55,
      "start": 94.1588,
      "duration": 0.1359,
      "velocity": 108,
      "chip": "ym2612"
    },
    {
      "channel": 2,
      "note": 74,
      "start": 94.1608,
      "duration": 0.0592,
      "velocity": 111,
      "chip": "ym2612"
    },
    {
      "channel": 3,
      "note": 61,
      "start": 94.1661,
      "duration": 0.0542,
      "velocity": 127,
      "chip": "ym2612"
    },
    {
      "channel": 4,
      "note": 70,
      "start": 94.1678,
      "duration": 0.0527,
      "velocity": 111,
      "chip": "ym2612"
    },
    {
      "channel": 5,
      "note": 55,
      "start": 94.1834,
      "duration": 0.0107,
      "velocity": 109,
      "chip": "ym2612"
    },
    {
      "channel": 2,
      "note": 70,
      "start": 94.2459,
      "duration": 0.0491,
      "velocity": 111,
      "chip": "ym2612"
    },
    {
      "channel": 4,
      "note": 67,
      "start": 94.2481,
      "duration": 0.0476,
      "velocity": 111,
      "chip": "ym2612"
    },
    {
      "channel": 0,
      "note": 55,
      "start": 94.322,
      "duration": 0.0116,
      "velocity": 109,
      "chip": "ym2612"
    },
    {
      "channel": 1,
      "note": 55,
      "start": 94.3239,
      "duration": 0.1225,
      "velocity": 108,
      "chip": "ym2612"
    },
    {
      "channel": 2,
      "note": 67,
      "start": 94.3257,
      "duration": 0.045,
      "velocity": 111,
      "chip": "ym2612"
    },
    {
      "channel": 4,
      "note": 69,
      "start": 94.3279,
      "duration": 0.0436,
      "velocity": 111,
      "chip": "ym2612"
    },
    {
      "channel": 5,
      "note": 55,
      "start": 94.337,
      "duration": 0.0092,
      "velocity": 109,
      "chip": "ym2612"
    },
    {
      "channel": 2,
      "note": 69,
      "start": 94.3976,
      "duration": 0.0491,
      "velocity": 111,
      "chip": "ym2612"
    },
    {
      "channel": 4,
      "note": 74,
      "start": 94.4,
      "duration": 0.0474,
      "velocity": 111,
      "chip": "ym2612"
    },
    {
      "channel": 0,
      "note": 67,
      "start": 94.4732,
      "duration": 0.2891,
      "velocity": 109,
      "chip": "ym2612"
    },
    {
      "channel": 1,
      "note": 55,
      "start": 94.475,
      "duration": 0.1358,
      "velocity": 108,
      "chip": "ym2612"
    },
    {
      "channel": 2,
      "note": 74,
      "start": 94.4769,
      "duration": 0.0581,
      "velocity": 111,
      "chip": "ym2612"
    },
    {
      "channel": 3,
      "note": 61,
      "start": 94.4828,
      "duration": 0.0533,
      "velocity": 127,
      "chip": "ym2612"
    },
    {
      "channel": 4,
      "note": 70,
      "start": 94.4845,
      "duration": 0.0518,
      "velocity": 111,
      "chip": "ym2612"
    },
    {
      "channel": 5,
      "note": 67,
      "start": 94.4995,
      "duration": 0.2765,
      "velocity": 109,
      "chip": "ym2612"
    },
    {
      "channel": 2,
      "note": 70,
      "start": 94.5619,
      "duration": 0.0491,
      "velocity": 111,
      "chip": "ym2612"
    },
    {
      "channel": 4,
      "note": 67,
      "start": 94.5641,
      "duration": 0.0476,
      "velocity": 111,
      "chip": "ym2612"
    },
    {
      "channel": 1,
      "note": 55,
      "start": 94.6381,
      "duration": 0.1244,
      "velocity": 108,
      "chip": "ym2612"
    },
    {
      "channel": 2,
      "note": 67,
      "start": 94.6398,
      "duration": 0.0469,
      "velocity": 111,
      "chip": "ym2612"
    },
    {
      "channel": 4,
      "note": 69,
      "start": 94.6421,
      "duration": 0.0454,
      "velocity": 111,
      "chip": "ym2612"
    },
    {
      "channel": 2,
      "note": 69,
      "start": 94.7136,
      "duration": 0.0492,
      "velocity": 111,
      "chip": "ym2612"
    },
    {
      "channel": 4,
      "note": 74,
      "start": 94.716,
      "duration": 0.0475,
      "velocity": 111,
      "chip": "ym2612"
    },
    {
      "channel": 0,
      "note": 55,
      "start": 94.789,
      "duration": 0.0239,
      "velocity": 109,
      "chip": "ym2612"
    },
    {
      "channel": 1,
      "note": 55,
      "start": 94.7909,
      "duration": 0.1359,
      "velocity": 108,
      "chip": "ym2612"
    },
    {
      "channel": 2,
      "note": 74,
      "start": 94.7928,
      "duration": 0.0582,
      "velocity": 111,
      "chip": "ym2612"
    },
    {
      "channel": 3,
      "note": 61,
      "start": 94.7981,
      "duration": 0.0532,
      "velocity": 127,
      "chip": "ym2612"
    },
    {
      "channel": 4,
      "note": 70,
      "start": 94.7998,
      "duration": 0.0517,
      "velocity": 111,
      "chip": "ym2612"
    },
    {
      "channel": 5,
      "note": 55,
      "start": 94.8155,
      "duration": 0.0106,
      "velocity": 109,
      "chip": "ym2612"
    },
    {
      "channel": 2,
      "note": 70,
      "start": 94.8779,
      "duration": 0.0491,
      "velocity": 111,
      "chip": "ym2612"
    },
    {
      "channel": 4,
      "note": 67,
      "start": 94.8802,
      "duration": 0.0476,
      "velocity": 111,
      "chip": "ym2612"
    },
    {
      "channel": 0,
      "note": 67,
      "start": 94.9542,
      "duration": 0.2758,
      "velocity": 109,
      "chip": "ym2612"
    },
    {
      "channel": 1,
      "note": 55,
      "start": 94.956,
      "duration": 0.1224,
      "velocity": 108,
      "chip": "ym2612"
    },
    {
      "channel": 2,
      "note": 67,
      "start": 94.9578,
      "duration": 0.0454,
      "velocity": 111,
      "chip": "ym2612"
    },
    {
      "channel": 4,
      "note": 69,
      "start": 94.9601,
      "duration": 0.0439,
      "velocity": 111,
      "chip": "ym2612"
    },
    {
      "channel": 5,
      "note": 67,
      "start": 94.9671,
      "duration": 0.2766,
      "velocity": 109,
      "chip": "ym2612"
    },
    {
      "channel": 2,
      "note": 69,
      "start": 95.0295,
      "duration": 0.0491,
      "velocity": 111,
      "chip": "ym2612"
    },
    {
      "channel": 4,
      "note": 74,
      "start": 95.032,
      "duration": 0.0474,
      "velocity": 111,
      "chip": "ym2612"
    },
    {
      "channel": 1,
      "note": 55,
      "start": 95.1053,
      "duration": 0.1249,
      "velocity": 108,
      "chip": "ym2612"
    },
    {
      "channel": 2,
      "note": 74,
      "start": 95.1073,
      "duration": 0.0476,
      "velocity": 111,
      "chip": "ym2612"
    },
    {
      "channel": 3,
      "note": 61,
      "start": 95.1127,
      "duration": 0.0425,
      "velocity": 127,
      "chip": "ym2612"
    },
    {
      "channel": 4,
      "note": 70,
      "start": 95.1144,
      "duration": 0.041,
      "velocity": 111,
      "chip": "ym2612"
    },
    {
      "channel": 2,
      "note": 70,
      "start": 95.1812,
      "duration": 0.0492,
      "velocity": 111,
      "chip": "ym2612"
    },
    {
      "channel": 4,
      "note": 67,
      "start": 95.1835,
      "duration": 0.0477,
      "velocity": 111,
      "chip": "ym2612"
    },
    {
      "channel": 0,
      "note": 55,
      "start": 95.2568,
      "duration": 0.0111,
      "velocity": 109,
      "chip": "ym2612"
    },
    {
      "channel": 1,
      "note": 55,
      "start": 95.2585,
      "duration": 0.1232,
      "velocity": 108,
      "chip": "ym2612"
    },
    {
      "channel": 2,
      "note": 67,
      "start": 95.2603,
      "duration": 0.0457,
      "velocity": 111,
      "chip": "ym2612"
    },
    {
      "channel": 4,
      "note": 69,
      "start": 95.2626,
      "duration": 0.0442,
      "velocity": 111,
      "chip": "ym2612"
    },
    {
      "channel": 5,
      "note": 55,
      "start": 95.2713,
      "duration": 0.0102,
      "velocity": 109,
      "chip": "ym2612"
    },
    {
      "channel": 2,
      "note": 69,
      "start": 95.3329,
      "duration": 0.0491,
      "velocity": 111,
      "chip": "ym2612"
    },
    {
      "channel": 4,
      "note": 74,
      "start": 95.3362,
      "duration": 0.0466,
      "velocity": 111,
      "chip": "ym2612"
    },
    {
      "channel": 0,
      "note": 55,
      "start": 95.4084,
      "duration": 0.0238,
      "velocity": 109,
      "chip": "ym2612"
    },
    {
      "channel": 1,
      "note": 55,
      "start": 95.4102,
      "duration": 0.1359,
      "velocity": 108,
      "chip": "ym2612"
    },
    {
      "channel": 2,
      "note": 74,
      "start": 95.4122,
      "duration": 0.0582,
      "velocity": 111,
      "chip": "ym2612"
    },
    {
      "channel": 3,
      "note": 61,
      "start": 95.4175,
      "duration": 0.0532,
      "velocity": 127,
      "chip": "ym2612"
    },
    {
      "channel": 4,
      "note": 70,
      "start": 95.42,
      "duration": 0.0509,
      "velocity": 111,
      "chip": "ym2612"
    },
    {
      "channel": 5,
      "note": 55,
      "start": 95.4348,
      "duration": 0.0106,
      "velocity": 109,
      "chip": "ym2612"
    },
    {
      "channel": 2,
      "note": 70,
      "start": 95.4972,
      "duration": 0.0491,
      "velocity": 111,
      "chip": "ym2612"
    },
    {
      "channel": 4,
      "note": 67,
      "start": 95.4995,
      "duration": 0.0476,
      "velocity": 111,
      "chip": "ym2612"
    },
    {
      "channel": 0,
      "note": 55,
      "start": 95.5732,
      "duration": 0.0118,
      "velocity": 109,
      "chip": "ym2612"
    },
    {
      "channel": 1,
      "note": 55,
      "start": 95.575,
      "duration": 0.1228,
      "velocity": 108,
      "chip": "ym2612"
    },
    {
      "channel": 2,
      "note": 67,
      "start": 95.5768,
      "duration": 0.0453,
      "velocity": 111,
      "chip": "ym2612"
    },
    {
      "channel": 4,
      "note": 69,
      "start": 95.5791,
      "duration": 0.0438,
      "velocity": 111,
      "chip": "ym2612"
    },
    {
      "channel": 5,
      "note": 55,
      "start": 95.5885,
      "duration": 0.0092,
      "velocity": 109,
      "chip": "ym2612"
    },
    {
      "channel": 2,
      "note": 69,
      "start": 95.649,
      "duration": 0.049,
      "velocity": 111,
      "chip": "ym2612"
    },
    {
      "channel": 4,
      "note": 74,
      "start": 95.6514,
      "duration": 0.0474,
      "velocity": 111,
      "chip": "ym2612"
    },
    {
      "channel": 0,
      "note": 63,
      "start": 95.7249,
      "duration": 0.2888,
      "velocity": 109,
      "chip": "ym2612"
    },
    {
      "channel": 1,
      "note": 51,
      "start": 95.7269,
      "duration": 0.1352,
      "velocity": 108,
      "chip": "ym2612"
    },
    {
      "channel": 2,
      "note": 75,
      "start": 95.729,
      "duration": 0.0576,
      "velocity": 111,
      "chip": "ym2612"
    },
    {
      "channel": 3,
      "note": 61,
      "start": 95.7348,
      "duration": 0.0521,
      "velocity": 127,
      "chip": "ym2612"
    },
    {
      "channel": 4,
      "note": 70,
      "start": 95.7374,
      "duration": 0.0498,
      "velocity": 111,
      "chip": "ym2612"
    },
    {
      "channel": 5,
      "note": 63,
      "start": 95.7512,
      "duration": 0.2761,
      "velocity": 109,
      "chip": "ym2612"
    },
    {
      "channel": 2,
      "note": 70,
      "start": 95.8133,
      "duration": 0.0491,
      "velocity": 111,
      "chip": "ym2612"
    },
    {
      "channel": 4,
      "note": 67,
      "start": 95.8155,
      "duration": 0.0476,
      "velocity": 111,
      "chip": "ym2612"
    },
    {
      "channel": 1,
      "note": 51,
      "start": 95.889,
      "duration": 0.1249,
      "velocity": 108,
      "chip": "ym2612"
    },
    {
      "channel": 2,
      "note": 67,
      "start": 95.8908,
      "duration": 0.0473,
      "velocity": 111,
      "chip": "ym2612"
    },
    {
      "channel": 4,
      "note": 69,
      "start": 95.893,
      "duration": 0.0458,
      "velocity": 111,
      "chip": "ym2612"
    },
    {
      "channel": 2,
      "note": 69,
      "start": 95.9649,
      "duration": 0.0492,
      "velocity": 111,
      "chip": "ym2612"
    },
    {
      "channel": 4,
      "note": 75,
      "start": 95.9675,
      "duration": 0.0474,
      "velocity": 111,
      "chip": "ym2612"
    },
    {
      "channel": 0,
      "note": 51,
      "start": 96.0404,
      "duration": 0.0239,
      "velocity": 109,
      "chip": "ym2612"
    },
    {
      "channel": 1,
      "note": 51,
      "start": 96.0423,
      "duration": 0.1358,
      "velocity": 108,
      "chip": "ym2612"
    },
    {
      "channel": 2,
      "note": 75,
      "start": 96.0442,
      "duration": 0.059,
      "velocity": 111,
      "chip": "ym2612"
    },
    {
      "channel": 3,
      "note": 61,
      "start": 96.0495,
      "duration": 0.0541,
      "velocity": 127,
      "chip": "ym2612"
    },
    {
      "channel": 4,
      "note": 70,
      "start": 96.0512,
      "duration": 0.0525,
      "velocity": 111,
      "chip": "ym2612"
    },
    {
      "channel": 5,
      "note": 51,
      "start": 96.0668,
      "duration": 0.0107,
      "velocity": 109,
      "chip": "ym2612"
    },
    {
      "channel": 2,
      "note": 70,
      "start": 96.1292,
      "duration": 0.0491,
      "velocity": 111,
      "chip": "ym2612"
    },
    {
      "channel": 4,
      "note": 67,
      "start": 96.1315,
      "duration": 0.0476,
      "velocity": 111,
      "chip": "ym2612"
    },
    {
      "channel": 0,
      "note": 63,
      "start": 96.2047,
      "duration": 0.2766,
      "velocity": 109,
      "chip": "ym2612"
    },
    {
      "channel": 1,
      "note": 51,
      "start": 96.2066,
      "duration": 0.1232,
      "velocity": 108,
      "chip": "ym2612"
    },
    {
      "channel": 2,
      "note": 67,
      "start": 96.2084,
      "duration": 0.0457,
      "velocity": 111,
      "chip": "ym2612"
    },
    {
      "channel": 4,
      "note": 69,
      "start": 96.2106,
      "duration": 0.0443,
      "velocity": 111,
      "chip": "ym2612"
    },
    {
      "channel": 5,
      "note": 63,
      "start": 96.2184,
      "duration": 0.2766,
      "velocity": 109,
      "chip": "ym2612"
    },
    {
      "channel": 2,
      "note": 69,
      "start": 96.281,
      "duration": 0.0491,
      "velocity": 111,
      "chip": "ym2612"
    },
    {
      "channel": 4,
      "note": 75,
      "start": 96.2834,
      "duration": 0.0475,
      "velocity": 111,
      "chip": "ym2612"
    },
    {
      "channel": 1,
      "note": 51,
      "start": 96.3566,
      "duration": 0.1249,
      "velocity": 108,
      "chip": "ym2612"
    },
    {
      "channel": 2,
      "note": 75,
      "start": 96.3586,
      "duration": 0.0477,
      "velocity": 111,
      "chip": "ym2612"
    },
    {
      "channel": 3,
      "note": 61,
      "start": 96.3641,
      "duration": 0.0426,
      "velocity": 127,
      "chip": "ym2612"
    },
    {
      "channel": 4,
      "note": 70,
      "start": 96.3658,
      "duration": 0.041,
      "velocity": 111,
      "chip": "ym2612"
    },
    {
      "channel": 2,
      "note": 70,
      "start": 96.4326,
      "duration": 0.0492,
      "velocity": 111,
      "chip": "ym2612"
    },
    {
      "channel": 4,
      "note": 67,
      "start": 96.4349,
      "duration": 0.0477,
      "velocity": 111,
      "chip": "ym2612"
    },
    {
      "channel": 0,
      "note": 51,
      "start": 96.5081,
      "duration": 0.0116,
      "velocity": 109,
      "chip": "ym2612"
    },
    {
      "channel": 1,
      "note": 51,
      "start": 96.5099,
      "duration": 0.1233,
      "velocity": 108,
      "chip": "ym2612"
    },
    {
      "channel": 2,
      "note": 67,
      "start": 96.5117,
      "duration": 0.0457,
      "velocity": 111,
      "chip": "ym2612"
    },
    {
      "channel": 4,
      "note": 69,
      "start": 96.514,
      "duration": 0.0443,
      "velocity": 111,
      "chip": "ym2612"
    },
    {
      "channel": 5,
      "note": 51,
      "start": 96.5223,
      "duration": 0.0106,
      "velocity": 109,
      "chip": "ym2612"
    },
    {
      "channel": 2,
      "note": 69,
      "start": 96.5843,
      "duration": 0.0491,
      "velocity": 111,
      "chip": "ym2612"
    },
    {
      "channel": 4,
      "note": 75,
      "start": 96.5876,
      "duration": 0.0466,
      "velocity": 111,
      "chip": "ym2612"
    },
    {
      "channel": 0,
      "note": 51,
      "start": 96.6598,
      "duration": 0.0239,
      "velocity": 109,
      "chip": "ym2612"
    },
    {
      "channel": 1,
      "note": 51,
      "start": 96.6615,
      "duration": 0.1359,
      "velocity": 108,
      "chip": "ym2612"
    },
    {
      "channel": 2,
      "note": 75,
      "start": 96.6635,
      "duration": 0.0583,
      "velocity": 111,
      "chip": "ym2612"
    },
    {
      "channel": 3,
      "note": 61,
      "start": 96.6696,
      "duration": 0.0525,
      "velocity": 127,
      "chip": "ym2612"
    },
    {
      "channel": 4,
      "note": 70,
      "start": 96.6713,
      "duration": 0.051,
      "velocity": 111,
      "chip": "ym2612"
    },
    {
      "channel": 5,
      "note": 51,
      "start": 96.6871,
      "duration": 0.0098,
      "velocity": 109,
      "chip": "ym2612"
    },
    {
      "channel": 2,
      "note": 70,
      "start": 96.7486,
      "duration": 0.0491,
      "velocity": 111,
      "chip": "ym2612"
    },
    {
      "channel": 4,
      "note": 67,
      "start": 96.7509,
      "duration": 0.0476,
      "velocity": 111,
      "chip": "ym2612"
    },
    {
      "channel": 0,
      "note": 51,
      "start": 96.8246,
      "duration": 0.0127,
      "velocity": 109,
      "chip": "ym2612"
    },
    {
      "channel": 1,
      "note": 51,
      "start": 96.8264,
      "duration": 0.1227,
      "velocity": 108,
      "chip": "ym2612"
    },
    {
      "channel": 2,
      "note": 67,
      "start": 96.8282,
      "duration": 0.0452,
      "velocity": 111,
      "chip": "ym2612"
    },
    {
      "channel": 4,
      "note": 69,
      "start": 96.8304,
      "duration": 0.0438,
      "velocity": 111,
      "chip": "ym2612"
    },
    {
      "channel": 5,
      "note": 51,
      "start": 96.8398,
      "duration": 0.0092,
      "velocity": 109,
      "chip": "ym2612"
    },
    {
      "channel": 2,
      "note": 69,
      "start": 96.9003,
      "duration": 0.0491,
      "velocity": 111,
      "chip": "ym2612"
    },
    {
      "channel": 4,
      "note": 75,
      "start": 96.9035,
      "duration": 0.0466,
      "velocity": 111,
      "chip": "ym2612"
    },
    {
      "channel": 0,
      "note": 63,
      "start": 96.9759,
      "duration": 0.2891,
      "velocity": 109,
      "chip": "ym2612"
    },
    {
      "channel": 1,
      "note": 51,
      "start": 96.9778,
      "duration": 0.1357,
      "velocity": 108,
      "chip": "ym2612"
    },
    {
      "channel": 2,
      "note": 77,
      "start": 96.9799,
      "duration": 0.0579,
      "velocity": 111,
      "chip": "ym2612"
    },
    {
      "channel": 3,
      "note": 61,
      "start": 96.9866,
      "duration": 0.0515,
      "velocity": 127,
      "chip": "ym2612"
    },
    {
      "channel": 4,
      "note": 70,
      "start": 96.9883,
      "duration": 0.05,
      "velocity": 111,
      "chip": "ym2612"
    },
    {
      "channel": 5,
      "note": 63,
      "start": 97.0031,
      "duration": 0.2756,
      "velocity": 109,
      "chip": "ym2612"
    },
    {
      "channel": 2,
      "note": 70,
      "start": 97.0646,
      "duration": 0.0491,
      "velocity": 111,
      "chip": "ym2612"
    },
    {
      "channel": 4,
      "note": 67,
      "start": 97.0669,
      "duration": 0.0476,
      "velocity": 111,
      "chip": "ym2612"
    },
    {
      "channel": 1,
      "note": 51,
      "start": 97.1404,
      "duration": 0.1249,
      "velocity": 108,
      "chip": "ym2612"
    },
    {
      "channel": 2,
      "note": 67,
      "start": 97.1421,
      "duration": 0.0473,
      "velocity": 111,
      "chip": "ym2612"
    },
    {
      "channel": 4,
      "note": 69,
      "start": 97.1444,
      "duration": 0.0458,
      "velocity": 111,
      "chip": "ym2612"
    },
    {
      "channel": 2,
      "note": 69,
      "start": 97.2163,
      "duration": 0.0492,
      "velocity": 111,
      "chip": "ym2612"
    },
    {
      "channel": 4,
      "note": 77,
      "start": 97.2198,
      "duration": 0.0465,
      "velocity": 111,
      "chip": "ym2612"
    },
    {
      "channel": 0,
      "note": 51,
      "start": 97.2918,
      "duration": 0.0238,
      "velocity": 109,
      "chip": "ym2612"
    },
    {
      "channel": 1,
      "note": 51,
      "start": 97.2936,
      "duration": 0.1359,
      "velocity": 108,
      "chip": "ym2612"
    },
    {
      "channel": 2,
      "note": 77,
      "start": 97.2956,
      "duration": 0.0582,
      "velocity": 111,
      "chip": "ym2612"
    },
    {
      "channel": 3,
      "note": 61,
      "start": 97.3009,
      "duration": 0.0532,
      "velocity": 127,
      "chip": "ym2612"
    },
    {
      "channel": 4,
      "note": 70,
      "start": 97.3034,
      "duration": 0.0509,
      "velocity": 111,
      "chip": "ym2612"
    },
    {
      "channel": 5,
      "note": 51,
      "start": 97.3182,
      "duration": 0.0106,
      "velocity": 109,
      "chip": "ym2612"
    },
    {
      "channel": 2,
      "note": 70,
      "start": 97.3806,
      "duration": 0.0491,
      "velocity": 111,
      "chip": "ym2612"
    },
    {
      "channel": 4,
      "note": 67,
      "start": 97.3829,
      "duration": 0.0476,
      "velocity": 111,
      "chip": "ym2612"
    },
    {
      "channel": 0,
      "note": 63,
      "start": 97.4561,
      "duration": 0.2766,
      "velocity": 109,
      "chip": "ym2612"
    },
    {
      "channel": 1,
      "note": 51,
      "start": 97.4579,
      "duration": 0.1232,
      "velocity": 108,
      "chip": "ym2612"
    },
    {
      "channel": 2,
      "note": 67,
      "start": 97.4598,
      "duration": 0.0457,
      "velocity": 111,
      "chip": "ym2612"
    },
    {
      "channel": 4,
      "note": 69,
      "start": 97.462,
      "duration": 0.0442,
      "velocity": 111,
      "chip": "ym2612"
    },
    {
      "channel": 5,
      "note": 63,
      "start": 97.4706,
      "duration": 0.2758,
      "velocity": 109,
      "chip": "ym2612"
    },
    {
      "channel": 2,
      "note": 69,
      "start": 97.5323,
      "duration": 0.0491,
      "velocity": 111,
      "chip": "ym2612"
    },
    {
      "channel": 4,
      "note": 77,
      "start": 97.5347,
      "duration": 0.0475,
      "velocity": 111,
      "chip": "ym2612"
    },
    {
      "channel": 1,
      "note": 51,
      "start": 97.608,
      "duration": 0.1249,
      "velocity": 108,
      "chip": "ym2612"
    },
    {
      "channel": 2,
      "note": 75,
      "start": 97.6101,
      "duration": 0.0475,
      "velocity": 111,
      "chip": "ym2612"
    },
    {
      "channel": 3,
      "note": 61,
      "start": 97.6156,
      "duration": 0.0423,
      "velocity": 127,
      "chip": "ym2612"
    },
    {
      "channel": 4,
      "note": 70,
      "start": 97.6173,
      "duration": 0.0408,
      "velocity": 111,
      "chip": "ym2612"
    },
    {
      "channel": 2,
      "note": 70,
      "start": 97.684,
      "duration": 0.0492,
      "velocity": 111,
      "chip": "ym2612"
    },
    {
      "channel": 4,
      "note": 67,
      "start": 97.6871,
      "duration": 0.0469,
      "velocity": 111,
      "chip": "ym2612"
    },
    {
      "channel": 0,
      "note": 51,
      "start": 97.7595,
      "duration": 0.0111,
      "velocity": 109,
      "chip": "ym2612"
    },
    {
      "channel": 1,
      "note": 51,
      "start": 97.7613,
      "duration": 0.1232,
      "velocity": 108,
      "chip": "ym2612"
    },
    {
      "channel": 2,
      "note": 67,
      "start": 97.7631,
      "duration": 0.0458,
      "velocity": 111,
      "chip": "ym2612"
    },
    {
      "channel": 4,
      "note": 69,
      "start": 97.7654,
      "duration": 0.0442,
      "velocity": 111,
      "chip": "ym2612"
    },
    {
      "channel": 5,
      "note": 51,
      "start": 97.7732,
      "duration": 0.0111,
      "velocity": 109,
      "chip": "ym2612"
    },
    {
      "channel": 2,
      "note": 69,
      "start": 97.8365,
      "duration": 0.0483,
      "velocity": 111,
      "chip": "ym2612"
    },
    {
      "channel": 4,
      "note": 75,
      "start": 97.8391,
      "duration": 0.0473,
      "velocity": 111,
      "chip": "ym2612"
    },
    {
      "channel": 0,
      "note": 51,
      "start": 97.9112,
      "duration": 0.0238,
      "velocity": 109,
      "chip": "ym2612"
    },
    {
      "channel": 1,
      "note": 51,
      "start": 97.9129,
      "duration": 0.1359,
      "velocity": 108,
      "chip": "ym2612"
    },
    {
      "channel": 2,
      "note": 75,
      "start": 97.9149,
      "duration": 0.0582,
      "velocity": 111,
      "chip": "ym2612"
    },
    {
      "channel": 3,
      "note": 61,
      "start": 97.921,
      "duration": 0.0524,
      "velocity": 127,
      "chip": "ym2612"
    },
    {
      "channel": 4,
      "note": 70,
      "start": 97.9227,
      "duration": 0.0509,
      "velocity": 111,
      "chip": "ym2612"
    },
    {
      "channel": 5,
      "note": 51,
      "start": 97.9385,
      "duration": 0.0098,
      "velocity": 109,
      "chip": "ym2612"
    },
    {
      "channel": 2,
      "note": 70,
      "start": 98.0,
      "duration": 0.0491,
      "velocity": 111,
      "chip": "ym2612"
    },
    {
      "channel": 4,
      "note": 67,
      "start": 98.0031,
      "duration": 0.0468,
      "velocity": 111,
      "chip": "ym2612"
    },
    {
      "channel": 0,
      "note": 51,
      "start": 98.076,
      "duration": 0.0117,
      "velocity": 109,
      "chip": "ym2612"
    },
    {
      "channel": 1,
      "note": 51,
      "start": 98.0778,
      "duration": 0.1228,
      "velocity": 108,
      "chip": "ym2612"
    },
    {
      "channel": 2,
      "note": 67,
      "start": 98.0796,
      "duration": 0.0452,
      "velocity": 111,
      "chip": "ym2612"
    },
    {
      "channel": 4,
      "note": 69,
      "start": 98.0818,
      "duration": 0.0438,
      "velocity": 111,
      "chip": "ym2612"
    },
    {
      "channel": 5,
      "note": 51,
      "start": 98.0902,
      "duration": 0.0101,
      "velocity": 109,
      "chip": "ym2612"
    },
    {
      "channel": 2,
      "note": 69,
      "start": 98.1517,
      "duration": 0.0491,
      "velocity": 111,
      "chip": "ym2612"
    },
    {
      "channel": 4,
      "note": 75,
      "start": 98.1549,
      "duration": 0.0466,
      "velocity": 111,
      "chip": "ym2612"
    },
    {
      "channel": 0,
      "note": 62,
      "start": 98.2277,
      "duration": 0.2887,
      "velocity": 109,
      "chip": "ym2612"
    },
    {
      "channel": 1,
      "note": 50,
      "start": 98.2296,
      "duration": 0.1352,
      "velocity": 108,
      "chip": "ym2612"
    },
    {
      "channel": 2,
      "note": 65,
      "start": 98.2316,
      "duration": 0.0576,
      "velocity": 111,
      "chip": "ym2612"
    },
    {
      "channel": 3,
      "note": 61,
      "start": 98.2383,
      "duration": 0.0512,
      "velocity": 127,
      "chip": "ym2612"
    },
    {
      "channel": 4,
      "note": 70,
      "start": 98.24,
      "duration": 0.0497,
      "velocity": 111,
      "chip": "ym2612"
    },
    {
      "channel": 5,
      "note": 62,
      "start": 98.2549,
      "duration": 0.2752,
      "velocity": 109,
      "chip": "ym2612"
    },
    {
      "channel": 2,
      "note": 69,
      "start": 98.316,
      "duration": 0.0491,
      "velocity": 111,
      "chip": "ym2612"
    },
    {
      "channel": 4,
      "note": 67,
      "start": 98.3182,
      "duration": 0.0476,
      "velocity": 111,
      "chip": "ym2612"
    },
    {
      "channel": 1,
      "note": 50,
      "start": 98.3917,
      "duration": 0.1249,
      "velocity": 108,
      "chip": "ym2612"
    },
    {
      "channel": 2,
      "note": 74,
      "start": 98.3935,
      "duration": 0.0473,
      "velocity": 111,
      "chip": "ym2612"
    },
    {
      "channel": 4,
      "note": 69,
      "start": 98.3958,
      "duration": 0.0458,
      "velocity": 111,
      "chip": "ym2612"
    },
    {
      "channel": 2,
      "note": 77,
      "start": 98.4676,
      "duration": 0.0493,
      "velocity": 111,
      "chip": "ym2612"
    },
    {
      "channel": 4,
      "note": 65,
      "start": 98.4709,
      "duration": 0.0468,
      "velocity": 111,
      "chip": "ym2612"
    },
    {
      "channel": 0,
      "note": 50,
      "start": 98.5432,
      "duration": 0.0239,
      "velocity": 109,
      "chip": "ym2612"
    },
    {
      "channel": 1,
      "note": 50,
      "start": 98.5449,
      "duration": 0.1359,
      "velocity": 108,
      "chip": "ym2612"
    },
    {
      "channel": 2,
      "note": 81,
      "start": 98.5468,
      "duration": 0.0584,
      "velocity": 111,
      "chip": "ym2612"
    },
    {
      "channel": 3,
      "note": 61,
      "start": 98.5529,
      "duration": 0.0525,
      "velocity": 127,
      "chip": "ym2612"
    },
    {
      "channel": 4,
      "note": 69,
      "start": 98.5546,
      "duration": 0.0511,
      "velocity": 111,
      "chip": "ym2612"
    },
    {
      "channel": 5,
      "note": 50,
      "start": 98.5705,
      "duration": 0.0098,
      "velocity": 109,
      "chip": "ym2612"
    },
    {
      "channel": 2,
      "note": 86,
      "start": 98.632,
      "duration": 0.049,
      "velocity": 111,
      "chip": "ym2612"
    },
    {
      "channel": 4,
      "note": 74,
      "start": 98.6343,
      "duration": 0.0476,
      "velocity": 111,
      "chip": "ym2612"
    },
    {
      "channel": 0,
      "note": 62,
      "start": 98.7075,
      "duration": 0.2766,
      "velocity": 109,
      "chip": "ym2612"
    },
    {
      "channel": 1,
      "note": 50,
      "start": 98.7093,
      "duration": 0.1232,
      "velocity": 108,
      "chip": "ym2612"
    },
    {
      "channel": 2,
      "note": 81,
      "start": 98.7111,
      "duration": 0.0458,
      "velocity": 111,
      "chip": "ym2612"
    },
    {
      "channel": 4,
      "note": 77,
      "start": 98.7134,
      "duration": 0.0442,
      "velocity": 111,
      "chip": "ym2612"
    },
    {
      "channel": 5,
      "note": 62,
      "start": 98.722,
      "duration": 0.2757,
      "velocity": 109,
      "chip": "ym2612"
    },
    {
      "channel": 2,
      "note": 77,
      "start": 98.7837,
      "duration": 0.0491,
      "velocity": 111,
      "chip": "ym2612"
    },
    {
      "channel": 4,
      "note": 81,
      "start": 98.7867,
      "duration": 0.0468,
      "velocity": 111,
      "chip": "ym2612"
    },
    {
      "channel": 1,
      "note": 50,
      "start": 98.8594,
      "duration": 0.1249,
      "velocity": 108,
      "chip": "ym2612"
    },
    {
      "channel": 2,
      "note": 74,
      "start": 98.8612,
      "duration": 0.5918,
      "velocity": 111,
      "chip": "ym2612"
    },
    {
      "channel": 3,
      "note": 61,
      "start": 98.8667,
      "duration": 0.0425,
      "velocity": 127,
      "chip": "ym2612"
    },
    {
      "channel": 4,
      "note": 86,
      "start": 98.8684,
      "duration": 0.041,
      "velocity": 111,
      "chip": "ym2612"
    },
    {
      "channel": 4,
      "note": 81,
      "start": 98.9384,
      "duration": 0.0481,
      "velocity": 111,
      "chip": "ym2612"
    },
    {
      "channel": 0,
      "note": 50,
      "start": 99.0108,
      "duration": 0.0112,
      "velocity": 109,
      "chip": "ym2612"
    },
    {
      "channel": 1,
      "note": 50,
      "start": 99.0126,
      "duration": 0.1239,
      "velocity": 108,
      "chip": "ym2612"
    },
    {
      "channel": 4,
      "note": 77,
      "start": 99.0166,
      "duration": 0.0447,
      "velocity": 111,
      "chip": "ym2612"
    },
    {
      "channel": 5,
      "note": 50,
      "start": 99.025,
      "duration": 0.012,
      "velocity": 109,
      "chip": "ym2612"
    },
    {
      "channel": 4,
      "note": 74,
      "start": 99.0886,
      "duration": 0.6044,
      "velocity": 111,
      "chip": "ym2612"
    },
    {
      "channel": 0,
      "note": 50,
      "start": 99.1625,
      "duration": 0.0239,
      "velocity": 109,
      "chip": "ym2612"
    },
    {
      "channel": 1,
      "note": 50,
      "start": 99.1643,
      "duration": 0.1359,
      "velocity": 108,
      "chip": "ym2612"
    },
    {
      "channel": 3,
      "note": 61,
      "start": 99.1706,
      "duration": 0.0541,
      "velocity": 127,
      "chip": "ym2612"
    },
    {
      "channel": 5,
      "note": 50,
      "start": 99.1894,
      "duration": 0.0106,
      "velocity": 109,
      "chip": "ym2612"
    },
    {
      "channel": 0,
      "note": 50,
      "start": 99.3273,
      "duration": 0.0116,
      "velocity": 109,
      "chip": "ym2612"
    },
    {
      "channel": 1,
      "note": 50,
      "start": 99.3291,
      "duration": 0.1228,
      "velocity": 108,
      "chip": "ym2612"
    },
    {
      "channel": 5,
      "note": 50,
      "start": 99.3415,
      "duration": 0.0102,
      "velocity": 109,
      "chip": "ym2612"
    },
    {
      "channel": 0,
      "note": 60,
      "start": 99.4788,
      "duration": 0.289,
      "velocity": 109,
      "chip": "ym2612"
    },
    {
      "channel": 1,
      "note": 48,
      "start": 99.4807,
      "duration": 0.1354,
      "velocity": 108,
      "chip": "ym2612"
    },
    {
      "channel": 2,
      "note": 63,
      "start": 99.4825,
      "duration": 0.058,
      "velocity": 111,
      "chip": "ym2612"
    },
    {
      "channel": 3,
      "note": 61,
      "start": 99.4892,
      "duration": 0.0516,
      "velocity": 127,
      "chip": "ym2612"
    },
    {
      "channel": 5,
      "note": 60,
      "start": 99.5058,
      "duration": 0.2756,
      "velocity": 109,
      "chip": "ym2612"
    },
    {
      "channel": 2,
      "note": 67,
      "start": 99.5673,
      "duration": 0.0491,
      "velocity": 111,
      "chip": "ym2612"
    },
    {
      "channel": 1,
      "note": 48,
      "start": 99.6431,
      "duration": 0.1249,
      "velocity": 108,
      "chip": "ym2612"
    },
    {
      "channel": 2,
      "note": 72,
      "start": 99.6449,
      "duration": 0.0473,
      "velocity": 111,
      "chip": "ym2612"
    },
    {
      "channel": 2,
      "note": 75,
      "start": 99.7199,
      "duration": 0.0483,
      "velocity": 111,
      "chip": "ym2612"
    },
    {
      "channel": 4,
      "note": 63,
      "start": 99.7222,
      "duration": 0.0476,
      "velocity": 111,
      "chip": "ym2612"
    },
    {
      "channel": 0,
      "note": 48,
      "start": 99.7946,
      "duration": 0.0238,
      "velocity": 109,
      "chip": "ym2612"
    },
    {
      "channel": 1,
      "note": 48,
      "start": 99.7963,
      "duration": 0.1359,
      "velocity": 108,
      "chip": "ym2612"
    },
    {
      "channel": 2,
      "note": 79,
      "start": 99.7981,
      "duration": 0.0584,
      "velocity": 111,
      "chip": "ym2612"
    },
    {
      "channel": 3,
      "note": 61,
      "start": 99.8042,
      "duration": 0.0526,
      "velocity": 127,
      "chip": "ym2612"
    },
    {
      "channel": 4,
      "note": 67,
      "start": 99.806,
      "duration": 0.051,
      "velocity": 111,
      "chip": "ym2612"
    },
    {
      "channel": 5,
      "note": 48,
      "start": 99.8218,
      "duration": 0.0098,
      "velocity": 109,
      "chip": "ym2612"
    },
    {
      "channel": 2,
      "note": 84,
      "start": 99.8834,
      "duration": 0.0491,
      "velocity": 111,
      "chip": "ym2612"
    },
    {
      "channel": 4,
      "note": 72,
      "start": 99.8865,
      "duration": 0.0468,
      "velocity": 111,
      "chip": "ym2612"
    },
    {
      "channel": 0,
      "note": 60,
      "start": 99.9589,
      "duration": 0.2775,
      "velocity": 109,
      "chip": "ym2612"
    },
    {
      "channel": 1,
      "note": 48,
      "start": 99.9607,
      "duration": 0.1233,
      "velocity": 108,
      "chip": "ym2612"
    },
    {
      "channel": 2,
      "note": 87,
      "start": 99.9625,
      "duration": 0.0457,
      "velocity": 111,
      "chip": "ym2612"
    },
    {
      "channel": 4,
      "note": 75,
      "start": 99.9647,
      "duration": 0.0442,
      "velocity": 111,
      "chip": "ym2612"
    },
    {
      "channel": 5,
      "note": 60,
      "start": 99.9725,
      "duration": 0.2766,
      "velocity": 109,
      "chip": "ym2612"
    },
    {
      "channel": 2,
      "note": 84,
      "start": 100.035,
      "duration": 0.0491,
      "velocity": 111,
      "chip": "ym2612"
    },
    {
      "channel": 4,
      "note": 79,
      "start": 100.0381,
      "duration": 0.0468,
      "velocity": 111,
      "chip": "ym2612"
    },
    {
      "channel": 1,
      "note": 48,
      "start": 100.1108,
      "duration": 0.1258,
      "velocity": 108,
      "chip": "ym2612"
    },
    {
      "channel": 2,
      "note": 82,
      "start": 100.1126,
      "duration": 0.0478,
      "velocity": 111,
      "chip": "ym2612"
    },
    {
      "channel": 3,
      "note": 61,
      "start": 100.118,
      "duration": 0.0427,
      "velocity": 127,
      "chip": "ym2612"
    },
    {
      "channel": 4,
      "note": 84,
      "start": 100.1206,
      "duration": 0.0403,
      "velocity": 111,
      "chip": "ym2612"
    },
    {
      "channel": 2,
      "note": 81,
      "start": 100.1876,
      "duration": 0.0493,
      "velocity": 111,
      "chip": "ym2612"
    },
    {
      "channel": 4,
      "note": 87,
      "start": 100.1898,
      "duration": 0.0477,
      "velocity": 111,
      "chip": "ym2612"
    },
    {
      "channel": 0,
      "note": 48,
      "start": 100.2622,
      "duration": 0.0111,
      "velocity": 109,
      "chip": "ym2612"
    },
    {
      "channel": 1,
      "note": 48,
      "start": 100.264,
      "duration": 0.1232,
      "velocity": 108,
      "chip": "ym2612"
    },
    {
      "channel": 2,
      "note": 79,
      "start": 100.2658,
      "duration": 0.0457,
      "velocity": 111,
      "chip": "ym2612"
    },
    {
      "channel": 4,
      "note": 84,
      "start": 100.2681,
      "duration": 0.0442,
      "velocity": 111,
      "chip": "ym2612"
    },
    {
      "channel": 5,
      "note": 48,
      "start": 100.276,
      "duration": 0.0114,
      "velocity": 109,
      "chip": "ym2612"
    },
    {
      "channel": 2,
      "note": 77,
      "start": 100.3384,
      "duration": 0.3651,
      "velocity": 111,
      "chip": "ym2612"
    },
    {
      "channel": 4,
      "note": 82,
      "start": 100.3407,
      "duration": 0.0475,
      "velocity": 111,
      "chip": "ym2612"
    },
    {
      "channel": 0,
      "note": 48,
      "start": 100.4139,
      "duration": 0.0239,
      "velocity": 109,
      "chip": "ym2612"
    },
    {
      "channel": 1,
      "note": 48,
      "start": 100.4157,
      "duration": 0.1359,
      "velocity": 108,
      "chip": "ym2612"
    },
    {
      "channel": 3,
      "note": 61,
      "start": 100.4219,
      "duration": 0.0542,
      "velocity": 127,
      "chip": "ym2612"
    },
    {
      "channel": 4,
      "note": 81,
      "start": 100.4237,
      "duration": 0.0526,
      "velocity": 111,
      "chip": "ym2612"
    },
    {
      "channel": 5,
      "note": 48,
      "start": 100.4403,
      "duration": 0.0106,
      "velocity": 109,
      "chip": "ym2612"
    },
    {
      "channel": 4,
      "note": 79,
      "start": 100.5057,
      "duration": 0.048,
      "velocity": 111,
      "chip": "ym2612"
    },
    {
      "channel": 0,
      "note": 48,
      "start": 100.5787,
      "duration": 0.0116,
      "velocity": 109,
      "chip": "ym2612"
    },
    {
      "channel": 1,
      "note": 48,
      "start": 100.5805,
      "duration": 0.1228,
      "velocity": 108,
      "chip": "ym2612"
    },
    {
      "channel": 4,
      "note": 77,
      "start": 100.5834,
      "duration": 0.3609,
      "velocity": 111,
      "chip": "ym2612"
    },
    {
      "channel": 5,
      "note": 48,
      "start": 100.5933,
      "duration": 0.0111,
      "velocity": 109,
      "chip": "ym2612"
    },
    {
      "channel": 0,
      "note": 53,
      "start": 100.7304,
      "duration": 0.0234,
      "velocity": 109,
      "chip": "ym2612"
    },
    {
      "channel": 1,
      "note": 53,
      "start": 100.7323,
      "duration": 0.1353,
      "velocity": 108,
      "chip": "ym2612"
    },
    {
      "channel": 2,
      "note": 65,
      "start": 100.7341,
      "duration": 0.0578,
      "velocity": 111,
      "chip": "ym2612"
    },
    {
      "channel": 3,
      "note": 61,
      "start": 100.7409,
      "duration": 0.0513,
      "velocity": 127,
      "chip": "ym2612"
    },
    {
      "channel": 5,
      "note": 53,
      "start": 100.7573,
      "duration": 0.0101,
      "velocity": 109,
      "chip": "ym2612"
    },
    {
      "channel": 2,
      "note": 63,
      "start": 100.8196,
      "duration": 0.0483,
      "velocity": 111,
      "chip": "ym2612"
    },
    {
      "channel": 0,
      "note": 53,
      "start": 100.8944,
      "duration": 0.0111,
      "velocity": 109,
      "chip": "ym2612"
    },
    {
      "channel": 1,
      "note": 53,
      "start": 100.8961,
      "duration": 0.1246,
      "velocity": 108,
      "chip": "ym2612"
    },
    {
      "channel": 2,
      "note": 65,
      "start": 100.898,
      "duration": 0.1229,
      "velocity": 111,
      "chip": "ym2612"
    },
    {
      "channel": 5,
      "note": 53,
      "start": 100.9081,
      "duration": 0.0118,
      "velocity": 109,
      "chip": "ym2612"
    },
    {
      "channel": 4,
      "note": 65,
      "start": 100.9719,
      "duration": 0.0499,
      "velocity": 111,
      "chip": "ym2612"
    },
    {
      "channel": 0,
      "note": 53,
      "start": 101.046,
      "duration": 0.0237,
      "velocity": 109,
      "chip": "ym2612"
    },
    {
      "channel": 1,
      "note": 53,
      "start": 101.0479,
      "duration": 0.1358,
      "velocity": 108,
      "chip": "ym2612"
    },
    {
      "channel": 2,
      "note": 67,
      "start": 101.0497,
      "duration": 0.0583,
      "velocity": 111,
      "chip": "ym2612"
    },
    {
      "channel": 3,
      "note": 61,
      "start": 101.0558,
      "duration": 0.0524,
      "velocity": 127,
      "chip": "ym2612"
    },
    {
      "channel": 4,
      "note": 63,
      "start": 101.0575,
      "duration": 0.051,
      "velocity": 111,
      "chip": "ym2612"
    },
    {
      "channel": 5,
      "note": 53,
      "start": 101.0725,
      "duration": 0.0105,
      "velocity": 109,
      "chip": "ym2612"
    },
    {
      "channel": 2,
      "note": 65,
      "start": 101.1347,
      "duration": 0.0491,
      "velocity": 111,
      "chip": "ym2612"
    },
    {
      "channel": 4,
      "note": 65,
      "start": 101.1378,
      "duration": 0.1224,
      "velocity": 111,
      "chip": "ym2612"
    },
    {
      "channel": 0,
      "note": 53,
      "start": 101.2103,
      "duration": 0.0111,
      "velocity": 109,
      "chip": "ym2612"
    },
    {
      "channel": 1,
      "note": 53,
      "start": 101.2122,
      "duration": 0.1231,
      "velocity": 108,
      "chip": "ym2612"
    },
    {
      "channel": 2,
      "note": 67,
      "start": 101.214,
      "duration": 0.1224,
      "velocity": 111,
      "chip": "ym2612"
    },
    {
      "channel": 5,
      "note": 53,
      "start": 101.2241,
      "duration": 0.011,
      "velocity": 109,
      "chip": "ym2612"
    },
    {
      "channel": 4,
      "note": 67,
      "start": 101.2879,
      "duration": 0.0492,
      "velocity": 111,
      "chip": "ym2612"
    },
    {
      "channel": 0,
      "note": 53,
      "start": 101.3621,
      "duration": 0.0244,
      "velocity": 109,
      "chip": "ym2612"
    },
    {
      "channel": 1,
      "note": 53,
      "start": 101.3638,
      "duration": 0.1358,
      "velocity": 108,
      "chip": "ym2612"
    },
    {
      "channel": 2,
      "note": 69,
      "start": 101.3657,
      "duration": 0.0591,
      "velocity": 111,
      "chip": "ym2612"
    },
    {
      "channel": 3,
      "note": 61,
      "start": 101.372,
      "duration": 0.0531,
      "velocity": 127,
      "chip": "ym2612"
    },
    {
      "channel": 4,
      "note": 65,
      "start": 101.3737,
      "duration": 0.0516,
      "velocity": 111,
      "chip": "ym2612"
    },
    {
      "channel": 5,
      "note": 53,
      "start": 101.3891,
      "duration": 0.01,
      "velocity": 109,
      "chip": "ym2612"
    },
    {
      "channel": 2,
      "note": 67,
      "start": 101.4507,
      "duration": 0.0491,
      "velocity": 111,
      "chip": "ym2612"
    },
    {
      "channel": 4,
      "note": 67,
      "start": 101.4539,
      "duration": 0.1224,
      "velocity": 111,
      "chip": "ym2612"
    },
    {
      "channel": 0,
      "note": 53,
      "start": 101.5264,
      "duration": 0.0111,
      "velocity": 109,
      "chip": "ym2612"
    },
    {
      "channel": 1,
      "note": 53,
      "start": 101.5281,
      "duration": 0.1231,
      "velocity": 108,
      "chip": "ym2612"
    },
    {
      "channel": 2,
      "note": 69,
      "start": 101.53,
      "duration": 0.1215,
      "velocity": 111,
      "chip": "ym2612"
    },
    {
      "channel": 5,
      "note": 53,
      "start": 101.5401,
      "duration": 0.0109,
      "velocity": 109,
      "chip": "ym2612"
    },
    {
      "channel": 4,
      "note": 69,
      "start": 101.6039,
      "duration": 0.0492,
      "velocity": 111,
      "chip": "ym2612"
    },
    {
      "channel": 0,
      "note": 53,
      "start": 101.678,
      "duration": 0.0237,
      "velocity": 109,
      "chip": "ym2612"
    },
    {
      "channel": 1,
      "note": 53,
      "start": 101.6799,
      "duration": 0.1358,
      "velocity": 108,
      "chip": "ym2612"
    },
    {
      "channel": 2,
      "note": 72,
      "start": 101.6817,
      "duration": 0.0583,
      "velocity": 111,
      "chip": "ym2612"
    },
    {
      "channel": 3,
      "note": 61,
      "start": 101.6878,
      "duration": 0.0524,
      "velocity": 127,
      "chip": "ym2612"
    },
    {
      "channel": 4,
      "note": 67,
      "start": 101.6895,
      "duration": 0.0509,
      "velocity": 111,
      "chip": "ym2612"
    },
    {
      "channel": 5,
      "note": 53,
      "start": 101.7053,
      "duration": 0.0097,
      "velocity": 109,
      "chip": "ym2612"
    },
    {
      "channel": 2,
      "note": 70,
      "start": 101.7668,
      "duration": 0.0492,
      "velocity": 111,
      "chip": "ym2612"
    },
    {
      "channel": 4,
      "note": 69,
      "start": 101.7699,
      "duration": 0.1223,
      "velocity": 111,
      "chip": "ym2612"
    },
    {
      "channel": 0,
      "note": 53,
      "start": 101.8432,
      "duration": 0.0102,
      "velocity": 109,
      "chip": "ym2612"
    },
    {
      "channel": 1,
      "note": 53,
      "start": 101.8451,
      "duration": 0.1222,
      "velocity": 108,
      "chip": "ym2612"
    },
    {
      "channel": 2,
      "note": 72,
      "start": 101.8468,
      "duration": 0.1207,
      "velocity": 111,
      "chip": "ym2612"
    },
    {
      "channel": 5,
      "note": 53,
      "start": 101.8561,
      "duration": 0.0109,
      "velocity": 109,
      "chip": "ym2612"
    },
    {
      "channel": 4,
      "note": 72,
      "start": 101.9199,
      "duration": 0.0484,
      "velocity": 111,
      "chip": "ym2612"
    },
    {
      "channel": 0,
      "note": 58,
      "start": 101.9941,
      "duration": 1.1992,
      "velocity": 109,
      "chip": "ym2612"
    },
    {
      "channel": 1,
      "note": 46,
      "start": 101.996,
      "duration": 0.1356,
      "velocity": 108,
      "chip": "ym2612"
    },
    {
      "channel": 2,
      "note": 69,
      "start": 101.9978,
      "duration": 0.134,
      "velocity": 111,
      "chip": "ym2612"
    },
    {
      "channel": 3,
      "note": 61,
      "start": 102.0045,
      "duration": 0.0516,
      "velocity": 127,
      "chip": "ym2612"
    },
    {
      "channel": 4,
      "note": 70,
      "start": 102.0062,
      "duration": 0.0501,
      "velocity": 111,
      "chip": "ym2612"
    },
    {
      "channel": 5,
      "note": 58,
      "start": 102.0213,
      "duration": 1.1856,
      "velocity": 109,
      "chip": "ym2612"
    },
    {
      "channel": 4,
      "note": 72,
      "start": 102.0834,
      "duration": 0.1249,
      "velocity": 111,
      "chip": "ym2612"
    },
    {
      "channel": 1,
      "note": 46,
      "start": 102.1584,
      "duration": 0.1248,
      "velocity": 108,
      "chip": "ym2612"
    },
    {
      "channel": 2,
      "note": 67,
      "start": 102.1603,
      "duration": 0.0473,
      "velocity": 111,
      "chip": "ym2612"
    },
    {
      "channel": 2,
      "note": 69,
      "start": 102.2345,
      "duration": 0.049,
      "velocity": 111,
      "chip": "ym2612"
    },
    {
      "channel": 4,
      "note": 69,
      "start": 102.2376,
      "duration": 0.1221,
      "velocity": 111,
      "chip": "ym2612"
    },
    {
      "channel": 1,
      "note": 46,
      "start": 102.3101,
      "duration": 0.1248,
      "velocity": 108,
      "chip": "ym2612"
    },
    {
      "channel": 2,
      "note": 70,
      "start": 102.312,
      "duration": 0.1232,
      "velocity": 111,
      "chip": "ym2612"
    },
    {
      "channel": 3,
      "note": 61,
      "start": 102.3173,
      "duration": 0.0422,
      "velocity": 127,
      "chip": "ym2612"
    },
    {
      "channel": 4,
      "note": 67,
      "start": 102.3876,
      "duration": 0.0493,
      "velocity": 111,
      "chip": "ym2612"
    },
    {
      "channel": 1,
      "note": 46,
      "start": 102.4619,
      "duration": 0.1247,
      "velocity": 108,
      "chip": "ym2612"
    },
    {
      "channel": 2,
      "note": 69,
      "start": 102.4637,
      "duration": 0.0473,
      "velocity": 111,
      "chip": "ym2612"
    },
    {
      "channel": 4,
      "note": 69,
      "start": 102.4659,
      "duration": 0.0457,
      "velocity": 111,
      "chip": "ym2612"
    },
    {
      "channel": 2,
      "note": 70,
      "start": 102.5382,
      "duration": 0.0487,
      "velocity": 111,
      "chip": "ym2612"
    },
    {
      "channel": 4,
      "note": 70,
      "start": 102.5405,
      "duration": 0.123,
      "velocity": 111,
      "chip": "ym2612"
    },
    {
      "channel": 1,
      "note": 46,
      "start": 102.6135,
      "duration": 0.1248,
      "velocity": 108,
      "chip": "ym2612"
    },
    {
      "channel": 2,
      "note": 72,
      "start": 102.6154,
      "duration": 0.1232,
      "velocity": 111,
      "chip": "ym2612"
    },
    {
      "channel": 3,
      "note": 61,
      "start": 102.6216,
      "duration": 0.0417,
      "velocity": 127,
      "chip": "ym2612"
    },
    {
      "channel": 4,
      "note": 69,
      "start": 102.6901,
      "duration": 0.0492,
      "velocity": 111,
      "chip": "ym2612"
    },
    {
      "channel": 1,
      "note": 46,
      "start": 102.7652,
      "duration": 0.1248,
      "velocity": 108,
      "chip": "ym2612"
    },
    {
      "channel": 2,
      "note": 70,
      "start": 102.767,
      "duration": 0.0473,
      "velocity": 111,
      "chip": "ym2612"
    },
    {
      "channel": 4,
      "note": 70,
      "start": 102.7701,
      "duration": 0.0449,
      "velocity": 111,
      "chip": "ym2612"
    },
    {
      "channel": 2,
      "note": 72,
      "start": 102.8411,
      "duration": 0.0491,
      "velocity": 111,
      "chip": "ym2612"
    },
    {
      "channel": 4,
      "note": 72,
      "start": 102.8434,
      "duration": 0.1229,
      "velocity": 111,
      "chip": "ym2612"
    },
    {
      "channel": 1,
      "note": 46,
      "start": 102.9169,
      "duration": 0.1248,
      "velocity": 108,
      "chip": "ym2612"
    },
    {
      "channel": 2,
      "note": 74,
      "start": 102.9196,
      "duration": 0.1224,
      "velocity": 111,
      "chip": "ym2612"
    },
    {
      "channel": 3,
      "note": 61,
      "start": 102.9248,
      "duration": 0.0414,
      "velocity": 127,
      "chip": "ym2612"
    },
    {
      "channel": 4,
      "note": 70,
      "start": 102.9935,
      "duration": 0.0493,
      "velocity": 111,
      "chip": "ym2612"
    },
    {
      "channel": 1,
      "note": 46,
      "start": 103.0694,
      "duration": 0.124,
      "velocity": 108,
      "chip": "ym2612"
    },
    {
      "channel": 2,
      "note": 72,
      "start": 103.0713,
      "duration": 0.0463,
      "velocity": 111,
      "chip": "ym2612"
    },
    {
      "channel": 4,
      "note": 72,
      "start": 103.0736,
      "duration": 0.0449,
      "velocity": 111,
      "chip": "ym2612"
    },
    {
      "channel": 2,
      "note": 74,
      "start": 103.1445,
      "duration": 0.0493,
      "velocity": 111,
      "chip": "ym2612"
    },
    {
      "channel": 4,
      "note": 74,
      "start": 103.1468,
      "duration": 0.1356,
      "velocity": 111,
      "chip": "ym2612"
    },
    {
      "channel": 0,
      "note": 63,
      "start": 103.221,
      "duration": 0.44,
      "velocity": 109,
      "chip": "ym2612"
    },
    {
      "channel": 1,
      "note": 51,
      "start": 103.2229,
      "duration": 0.1347,
      "velocity": 108,
      "chip": "ym2612"
    },
    {
      "channel": 2,
      "note": 75,
      "start": 103.2249,
      "duration": 0.4365,
      "velocity": 111,
      "chip": "ym2612"
    },
    {
      "channel": 3,
      "note": 61,
      "start": 103.231,
      "duration": 0.0511,
      "velocity": 127,
      "chip": "ym2612"
    },
    {
      "channel": 5,
      "note": 63,
      "start": 103.2465,
      "duration": 0.4281,
      "velocity": 109,
      "chip": "ym2612"
    },
    {
      "channel": 4,
      "note": 72,
      "start": 103.3095,
      "duration": 0.0492,
      "velocity": 111,
      "chip": "ym2612"
    },
    {
      "channel": 1,
      "note": 51,
      "start": 103.3844,
      "duration": 0.1259,
      "velocity": 108,
      "chip": "ym2612"
    },
    {
      "channel": 3,
      "note": 61,
      "start": 103.3906,
      "duration": 0.0433,
      "velocity": 127,
      "chip": "ym2612"
    },
    {
      "channel": 4,
      "note": 74,
      "start": 103.3923,
      "duration": 0.0417,
      "velocity": 111,
      "chip": "ym2612"
    },
    {
      "channel": 4,
      "note": 75,
      "start": 103.4613,
      "duration": 0.4281,
      "velocity": 111,
      "chip": "ym2612"
    },
    {
      "channel": 1,
      "note": 51,
      "start": 103.5369,
      "duration": 0.1242,
      "velocity": 108,
      "chip": "ym2612"
    },
    {
      "channel": 3,
      "note": 61,
      "start": 103.5392,
      "duration": 0.0473,
      "velocity": 127,
      "chip": "ym2612"
    },
    {
      "channel": 0,
      "note": 62,
      "start": 103.6878,
      "duration": 0.2765,
      "velocity": 109,
      "chip": "ym2612"
    },
    {
      "channel": 1,
      "note": 50,
      "start": 103.6897,
      "duration": 0.1231,
      "velocity": 108,
      "chip": "ym2612"
    },
    {
      "channel": 2,
      "note": 74,
      "start": 103.6915,
      "duration": 0.7409,
      "velocity": 111,
      "chip": "ym2612"
    },
    {
      "channel": 3,
      "note": 61,
      "start": 103.6968,
      "duration": 0.0405,
      "velocity": 127,
      "chip": "ym2612"
    },
    {
      "channel": 5,
      "note": 62,
      "start": 103.7032,
      "duration": 0.2748,
      "velocity": 109,
      "chip": "ym2612"
    },
    {
      "channel": 1,
      "note": 50,
      "start": 103.8396,
      "duration": 0.1249,
      "velocity": 108,
      "chip": "ym2612"
    },
    {
      "channel": 4,
      "note": 74,
      "start": 103.9167,
      "duration": 0.7561,
      "velocity": 111,
      "chip": "ym2612"
    },
    {
      "channel": 0,
      "note": 50,
      "start": 103.9911,
      "duration": 0.0238,
      "velocity": 109,
      "chip": "ym2612"
    },
    {
      "channel": 1,
      "note": 50,
      "start": 103.9928,
      "duration": 0.1359,
      "velocity": 108,
      "chip": "ym2612"
    },
    {
      "channel": 3,
      "note": 66,
      "start": 104.0002,
      "duration": 0.0161,
      "velocity": 112,
      "chip": "ym2612"
    },
    {
      "channel": 5,
      "note": 50,
      "start": 104.0181,
      "duration": 0.0109,
      "velocity": 109,
      "chip": "ym2612"
    },
    {
      "channel": 0,
      "note": 50,
      "start": 104.1553,
      "duration": 0.0113,
      "velocity": 109,
      "chip": "ym2612"
    },
    {
      "channel": 1,
      "note": 50,
      "start": 104.1572,
      "duration": 0.1233,
      "velocity": 108,
      "chip": "ym2612"
    },
    {
      "channel": 3,
      "note": 66,
      "start": 104.161,
      "duration": 0.007,
      "velocity": 112,
      "chip": "ym2612"
    },
    {
      "channel": 5,
      "note": 50,
      "start": 104.1706,
      "duration": 0.0101,
      "velocity": 109,
      "chip": "ym2612"
    },
    {
      "channel": 0,
      "note": 50,
      "start": 104.307,
      "duration": 0.0115,
      "velocity": 109,
      "chip": "ym2612"
    },
    {
      "channel": 1,
      "note": 50,
      "start": 104.3088,
      "duration": 0.1233,
      "velocity": 108,
      "chip": "ym2612"
    },
    {
      "channel": 3,
      "note": 66,
      "start": 104.3127,
      "duration": 0.0081,
      "velocity": 112,
      "chip": "ym2612"
    },
    {
      "channel": 5,
      "note": 50,
      "start": 104.3226,
      "duration": 0.0102,
      "velocity": 109,
      "chip": "ym2612"
    },
    {
      "channel": 0,
      "note": 63,
      "start": 104.4589,
      "duration": 0.4408,
      "velocity": 109,
      "chip": "ym2612"
    },
    {
      "channel": 1,
      "note": 51,
      "start": 104.4608,
      "duration": 0.1356,
      "velocity": 108,
      "chip": "ym2612"
    },
    {
      "channel": 2,
      "note": 75,
      "start": 104.4627,
      "duration": 0.4373,
      "velocity": 111,
      "chip": "ym2612"
    },
    {
      "channel": 3,
      "note": 61,
      "start": 104.4685,
      "duration": 0.0523,
      "velocity": 127,
      "chip": "ym2612"
    },
    {
      "channel": 5,
      "note": 63,
      "start": 104.4852,
      "duration": 0.4281,
      "velocity": 109,
      "chip": "ym2612"
    },
    {
      "channel": 1,
      "note": 51,
      "start": 104.6231,
      "duration": 0.1255,
      "velocity": 108,
      "chip": "ym2612"
    },
    {
      "channel": 3,
      "note": 61,
      "start": 104.6285,
      "duration": 0.0441,
      "velocity": 127,
      "chip": "ym2612"
    },
    {
      "channel": 4,
      "note": 75,
      "start": 104.7,
      "duration": 0.4407,
      "velocity": 111,
      "chip": "ym2612"
    },
    {
      "channel": 1,
      "note": 51,
      "start": 104.7748,
      "duration": 0.1251,
      "velocity": 108,
      "chip": "ym2612"
    },
    {
      "channel": 3,
      "note": 61,
      "start": 104.7771,
      "duration": 0.0472,
      "velocity": 127,
      "chip": "ym2612"
    },
    {
      "channel": 0,
      "note": 62,
      "start": 104.9264,
      "duration": 0.2892,
      "velocity": 109,
      "chip": "ym2612"
    },
    {
      "channel": 1,
      "note": 50,
      "start": 104.9282,
      "duration": 0.1359,
      "velocity": 108,
      "chip": "ym2612"
    },
    {
      "channel": 2,
      "note": 74,
      "start": 104.93,
      "duration": 0.7536,
      "velocity": 111,
      "chip": "ym2612"
    },
    {
      "channel": 3,
      "note": 61,
      "start": 104.9361,
      "duration": 0.0525,
      "velocity": 127,
      "chip": "ym2612"
    },
    {
      "channel": 5,
      "note": 62,
      "start": 104.9536,
      "duration": 0.2757,
      "velocity": 109,
      "chip": "ym2612"
    },
    {
      "channel": 1,
      "note": 50,
      "start": 105.0909,
      "duration": 0.1249,
      "velocity": 108,
      "chip": "ym2612"
    },
    {
      "channel": 4,
      "note": 74,
      "start": 105.168,
      "duration": 0.7561,
      "velocity": 111,
      "chip": "ym2612"
    },
    {
      "channel": 0,
      "note": 50,
      "start": 105.2424,
      "duration": 0.0239,
      "velocity": 109,
      "chip": "ym2612"
    },
    {
      "channel": 1,
      "note": 50,
      "start": 105.2442,
      "duration": 0.1359,
      "velocity": 108,
      "chip": "ym2612"
    },
    {
      "channel": 3,
      "note": 66,
      "start": 105.2516,
      "duration": 0.0161,
      "velocity": 112,
      "chip": "ym2612"
    },
    {
      "channel": 5,
      "note": 50,
      "start": 105.2702,
      "duration": 0.0101,
      "velocity": 109,
      "chip": "ym2612"
    },
    {
      "channel": 0,
      "note": 50,
      "start": 105.4067,
      "duration": 0.0112,
      "velocity": 109,
      "chip": "ym2612"
    },
    {
      "channel": 1,
      "note": 50,
      "start": 105.4085,
      "duration": 0.1233,
      "velocity": 108,
      "chip": "ym2612"
    },
    {
      "channel": 3,
      "note": 66,
      "start": 105.4124,
      "duration": 0.0078,
      "velocity": 112,
      "chip": "ym2612"
    },
    {
      "channel": 5,
      "note": 50,
      "start": 105.422,
      "duration": 0.0101,
      "velocity": 109,
      "chip": "ym2612"
    },
    {
      "channel": 0,
      "note": 50,
      "start": 105.5584,
      "duration": 0.0125,
      "velocity": 109,
      "chip": "ym2612"
    },
    {
      "channel": 1,
      "note": 50,
      "start": 105.5602,
      "duration": 0.1233,
      "velocity": 108,
      "chip": "ym2612"
    },
    {
      "channel": 3,
      "note": 66,
      "start": 105.5641,
      "duration": 0.0081,
      "velocity": 112,
      "chip": "ym2612"
    },
    {
      "channel": 5,
      "note": 50,
      "start": 105.5739,
      "duration": 0.0102,
      "velocity": 109,
      "chip": "ym2612"
    },
    {
      "channel": 0,
      "note": 63,
      "start": 105.7102,
      "duration": 0.4408,
      "velocity": 109,
      "chip": "ym2612"
    },
    {
      "channel": 1,
      "note": 51,
      "start": 105.7122,
      "duration": 0.1356,
      "velocity": 108,
      "chip": "ym2612"
    },
    {
      "channel": 2,
      "note": 75,
      "start": 105.7141,
      "duration": 0.4374,
      "velocity": 111,
      "chip": "ym2612"
    },
    {
      "channel": 3,
      "note": 61,
      "start": 105.7207,
      "duration": 0.0516,
      "velocity": 127,
      "chip": "ym2612"
    },
    {
      "channel": 5,
      "note": 63,
      "start": 105.7374,
      "duration": 0.4273,
      "velocity": 109,
      "chip": "ym2612"
    },
    {
      "channel": 1,
      "note": 51,
      "start": 105.8745,
      "duration": 0.1255,
      "velocity": 108,
      "chip": "ym2612"
    },
    {
      "channel": 3,
      "note": 61,
      "start": 105.8799,
      "duration": 0.0441,
      "velocity": 127,
      "chip": "ym2612"
    },
    {
      "channel": 4,
      "note": 75,
      "start": 105.9514,
      "duration": 0.4407,
      "velocity": 111,
      "chip": "ym2612"
    },
    {
      "channel": 1,
      "note": 51,
      "start": 106.0262,
      "duration": 0.1251,
      "velocity": 108,
      "chip": "ym2612"
    },
    {
      "channel": 3,
      "note": 61,
      "start": 106.0284,
      "duration": 0.0473,
      "velocity": 127,
      "chip": "ym2612"
    },
    {
      "channel": 0,
      "note": 62,
      "start": 106.1778,
      "duration": 0.2893,
      "velocity": 109,
      "chip": "ym2612"
    },
    {
      "channel": 1,
      "note": 50,
      "start": 106.1796,
      "duration": 0.1359,
      "velocity": 108,
      "chip": "ym2612"
    },
    {
      "channel": 2,
      "note": 74,
      "start": 106.1815,
      "duration": 1.651,
      "velocity": 111,
      "chip": "ym2612"
    },
    {
      "channel": 3,
      "note": 61,
      "start": 106.1876,
      "duration": 0.0524,
      "velocity": 127,
      "chip": "ym2612"
    },
    {
      "channel": 5,
      "note": 62,
      "start": 106.2049,
      "duration": 0.2758,
      "velocity": 109,
      "chip": "ym2612"
    },
    {
      "channel": 1,
      "note": 50,
      "start": 106.3423,
      "duration": 0.1249,
      "velocity": 108,
      "chip": "ym2612"
    },
    {
      "channel": 4,
      "note": 74,
      "start": 106.4202,
      "duration": 1.6668,
      "velocity": 111,
      "chip": "ym2612"
    },
    {
      "channel": 0,
      "note": 50,
      "start": 106.4938,
      "duration": 0.0117,
      "velocity": 109,
      "chip": "ym2612"
    },
    {
      "channel": 1,
      "note": 50,
      "start": 106.4956,
      "duration": 0.1242,
      "velocity": 108,
      "chip": "ym2612"
    },
    {
      "channel": 3,
      "note": 66,
      "start": 106.5038,
      "duration": 0.0032,
      "velocity": 112,
      "chip": "ym2612"
    },
    {
      "channel": 5,
      "note": 50,
      "start": 106.5088,
      "duration": 0.0111,
      "velocity": 109,
      "chip": "ym2612"
    },
    {
      "channel": 0,
      "note": 50,
      "start": 106.6454,
      "duration": 0.0112,
      "velocity": 109,
      "chip": "ym2612"
    },
    {
      "channel": 1,
      "note": 50,
      "start": 106.6472,
      "duration": 0.1233,
      "velocity": 108,
      "chip": "ym2612"
    },
    {
      "channel": 3,
      "note": 66,
      "start": 106.6511,
      "duration": 0.007,
      "velocity": 112,
      "chip": "ym2612"
    },
    {
      "channel": 5,
      "note": 50,
      "start": 106.6599,
      "duration": 0.0113,
      "velocity": 109,
      "chip": "ym2612"
    },
    {
      "channel": 0,
      "note": 50,
      "start": 106.7971,
      "duration": 0.0113,
      "velocity": 109,
      "chip": "ym2612"
    },
    {
      "channel": 1,
      "note": 50,
      "start": 106.799,
      "duration": 0.1233,
      "velocity": 108,
      "chip": "ym2612"
    },
    {
      "channel": 3,
      "note": 66,
      "start": 106.8037,
      "duration": 0.0061,
      "velocity": 112,
      "chip": "ym2612"
    },
    {
      "channel": 5,
      "note": 50,
      "start": 106.8115,
      "duration": 0.0113,
      "velocity": 109,
      "chip": "ym2612"
    },
    {
      "channel": 0,
      "note": 50,
      "start": 106.9489,
      "duration": 0.0111,
      "velocity": 109,
      "chip": "ym2612"
    },
    {
      "channel": 1,
      "note": 50,
      "start": 106.951,
      "duration": 0.1229,
      "velocity": 108,
      "chip": "ym2612"
    },
    {
      "channel": 3,
      "note": 66,
      "start": 106.956,
      "duration": 0.0054,
      "velocity": 112,
      "chip": "ym2612"
    },
    {
      "channel": 5,
      "note": 50,
      "start": 106.9633,
      "duration": 0.0108,
      "velocity": 109,
      "chip": "ym2612"
    },
    {
      "channel": 0,
      "note": 50,
      "start": 107.1005,
      "duration": 0.0112,
      "velocity": 109,
      "chip": "ym2612"
    },
    {
      "channel": 1,
      "note": 50,
      "start": 107.1031,
      "duration": 0.1224,
      "velocity": 108,
      "chip": "ym2612"
    },
    {
      "channel": 3,
      "note": 66,
      "start": 107.1055,
      "duration": 0.0072,
      "velocity": 112,
      "chip": "ym2612"
    },
    {
      "channel": 5,
      "note": 50,
      "start": 107.1144,
      "duration": 0.011,
      "velocity": 109,
      "chip": "ym2612"
    },
    {
      "channel": 0,
      "note": 50,
      "start": 107.2535,
      "duration": 0.0108,
      "velocity": 109,
      "chip": "ym2612"
    },
    {
      "channel": 1,
      "note": 50,
      "start": 107.2553,
      "duration": 0.122,
      "velocity": 108,
      "chip": "ym2612"
    },
    {
      "channel": 3,
      "note": 66,
      "start": 107.2577,
      "duration": 0.0076,
      "velocity": 112,
      "chip": "ym2612"
    },
    {
      "channel": 5,
      "note": 50,
      "start": 107.267,
      "duration": 0.01,
      "velocity": 109,
      "chip": "ym2612"
    },
    {
      "channel": 0,
      "note": 50,
      "start": 107.4045,
      "duration": 0.0105,
      "velocity": 109,
      "chip": "ym2612"
    },
    {
      "channel": 1,
      "note": 50,
      "start": 107.4063,
      "duration": 0.1227,
      "velocity": 108,
      "chip": "ym2612"
    },
    {
      "channel": 3,
      "note": 66,
      "start": 107.4086,
      "duration": 0.0074,
      "velocity": 112,
      "chip": "ym2612"
    },
    {
      "channel": 5,
      "note": 50,
      "start": 107.4178,
      "duration": 0.0109,
      "velocity": 109,
      "chip": "ym2612"
    },
    {
      "channel": 0,
      "note": 62,
      "start": 107.5556,
      "duration": 0.1258,
      "velocity": 109,
      "chip": "ym2612"
    },
    {
      "channel": 1,
      "note": 50,
      "start": 107.5573,
      "duration": 0.1242,
      "velocity": 108,
      "chip": "ym2612"
    },
    {
      "channel": 3,
      "note": 61,
      "start": 107.5631,
      "duration": 0.042,
      "velocity": 127,
      "chip": "ym2612"
    },
    {
      "channel": 5,
      "note": 62,
      "start": 107.5707,
      "duration": 0.1234,
      "velocity": 109,
      "chip": "ym2612"
    },
    {
      "channel": 0,
      "note": 50,
      "start": 107.7072,
      "duration": 0.0112,
      "velocity": 109,
      "chip": "ym2612"
    },
    {
      "channel": 5,
      "note": 50,
      "start": 107.7218,
      "duration": 0.0102,
      "velocity": 109,
      "chip": "ym2612"
    },
    {
      "channel": 0,
      "note": 60,
      "start": 107.8589,
      "duration": 0.1376,
      "velocity": 109,
      "chip": "ym2612"
    },
    {
      "channel": 1,
      "note": 48,
      "start": 107.8605,
      "duration": 0.1362,
      "velocity": 108,
      "chip": "ym2612"
    },
    {
      "channel": 2,
      "note": 79,
      "start": 107.8655,
      "duration": 0.1314,
      "velocity": 102,
      "chip": "ym2612"
    },
    {
      "channel": 3,
      "note": 61,
      "start": 107.8676,
      "duration": 0.0535,
      "velocity": 127,
      "chip": "ym2612"
    },
    {
      "channel": 5,
      "note": 60,
      "start": 107.8852,
      "duration": 0.1249,
      "velocity": 109,
      "chip": "ym2612"
    },
    {
      "channel": 0,
      "note": 50,
      "start": 108.0235,
      "duration": 0.289,
      "velocity": 109,
      "chip": "ym2612"
    },
    {
      "channel": 1,
      "note": 50,
      "start": 108.0255,
      "duration": 0.2872,
      "velocity": 108,
      "chip": "ym2612"
    },
    {
      "channel": 2,
      "note": 81,
      "start": 108.0276,
      "duration": 0.7403,
      "velocity": 102,
      "chip": "ym2612"
    },
    {
      "channel": 3,
      "note": 61,
      "start": 108.0332,
      "duration": 0.0537,
      "velocity": 127,
      "chip": "ym2612"
    },
    {
      "channel": 5,
      "note": 50,
      "start": 108.0498,
      "duration": 0.2763,
      "velocity": 109,
      "chip": "ym2612"
    },
    {
      "channel": 4,
      "note": 79,
      "start": 108.1158,
      "duration": 0.1217,
      "velocity": 102,
      "chip": "ym2612"
    },
    {
      "channel": 4,
      "note": 81,
      "start": 108.2647,
      "duration": 0.7439,
      "velocity": 102,
      "chip": "ym2612"
    },
    {
      "channel": 0,
      "note": 50,
      "start": 108.3392,
      "duration": 0.0112,
      "velocity": 109,
      "chip": "ym2612"
    },
    {
      "channel": 1,
      "note": 50,
      "start": 108.3411,
      "duration": 0.1232,
      "velocity": 108,
      "chip": "ym2612"
    },
    {
      "channel": 5,
      "note": 50,
      "start": 108.3539,
      "duration": 0.0102,
      "velocity": 109,
      "chip": "ym2612"
    },
    {
      "channel": 0,
      "note": 65,
      "start": 108.491,
      "duration": 0.1249,
      "velocity": 109,
      "chip": "ym2612"
    },
    {
      "channel": 1,
      "note": 50,
      "start": 108.4928,
      "duration": 0.1232,
      "velocity": 108,
      "chip": "ym2612"
    },
    {
      "channel": 3,
      "note": 61,
      "start": 108.4983,
      "duration": 0.0423,
      "velocity": 127,
      "chip": "ym2612"
    },
    {
      "channel": 5,
      "note": 65,
      "start": 108.5061,
      "duration": 0.1234,
      "velocity": 109,
      "chip": "ym2612"
    },
    {
      "channel": 0,
      "note": 50,
      "start": 108.6426,
      "duration": 0.0112,
      "velocity": 109,
      "chip": "ym2612"
    },
    {
      "channel": 1,
      "note": 50,
      "start": 108.6444,
      "duration": 0.1233,
      "velocity": 108,
      "chip": "ym2612"
    },
    {
      "channel": 5,
      "note": 50,
      "start": 108.6563,
      "duration": 0.0111,
      "velocity": 109,
      "chip": "ym2612"
    },
    {
      "channel": 0,
      "note": 64,
      "start": 108.7943,
      "duration": 0.1384,
      "velocity": 109,
      "chip": "ym2612"
    },
    {
      "channel": 1,
      "note": 50,
      "start": 108.7961,
      "duration": 0.1369,
      "velocity": 108,
      "chip": "ym2612"
    },
    {
      "channel": 2,
      "note": 79,
      "start": 108.7979,
      "duration": 0.2859,
      "velocity": 102,
      "chip": "ym2612"
    },
    {
      "channel": 3,
      "note": 61,
      "start": 108.8045,
      "duration": 0.052,
      "velocity": 127,
      "chip": "ym2612"
    },
    {
      "channel": 5,
      "note": 64,
      "start": 108.8215,
      "duration": 0.124,
      "velocity": 109,
      "chip": "ym2612"
    },
    {
      "channel": 0,
      "note": 50,
      "start": 108.9586,
      "duration": 0.0112,
      "velocity": 109,
      "chip": "ym2612"
    },
    {
      "channel": 1,
      "note": 50,
      "start": 108.9604,
      "duration": 0.1232,
      "velocity": 108,
      "chip": "ym2612"
    },
    {
      "channel": 5,
      "note": 50,
      "start": 108.9724,
      "duration": 0.0111,
      "velocity": 109,
      "chip": "ym2612"
    },
    {
      "channel": 4,
      "note": 79,
      "start": 109.0362,
      "duration": 0.3017,
      "velocity": 102,
      "chip": "ym2612"
    },
    {
      "channel": 0,
      "note": 65,
      "start": 109.1103,
      "duration": 0.1376,
      "velocity": 109,
      "chip": "ym2612"
    },
    {
      "channel": 1,
      "note": 50,
      "start": 109.1121,
      "duration": 0.1359,
      "velocity": 108,
      "chip": "ym2612"
    },
    {
      "channel": 2,
      "note": 77,
      "start": 109.1139,
      "duration": 0.1344,
      "velocity": 102,
      "chip": "ym2612"
    },
    {
      "channel": 3,
      "note": 61,
      "start": 109.1201,
      "duration": 0.0524,
      "velocity": 127,
      "chip": "ym2612"
    },
    {
      "channel": 5,
      "note": 65,
      "start": 109.1374,
      "duration": 0.124,
      "velocity": 109,
      "chip": "ym2612"
    },
    {
      "channel": 0,
      "note": 50,
      "start": 109.2749,
      "duration": 0.289,
      "velocity": 109,
      "chip": "ym2612"
    },
    {
      "channel": 1,
      "note": 50,
      "start": 109.2769,
      "duration": 0.2871,
      "velocity": 108,
      "chip": "ym2612"
    },
    {
      "channel": 2,
      "note": 81,
      "start": 109.2788,
      "duration": 0.1337,
      "velocity": 102,
      "chip": "ym2612"
    },
    {
      "channel": 3,
      "note": 61,
      "start": 109.2841,
      "duration": 0.0537,
      "velocity": 127,
      "chip": "ym2612"
    },
    {
      "channel": 5,
      "note": 50,
      "start": 109.3012,
      "duration": 0.2763,
      "velocity": 109,
      "chip": "ym2612"
    },
    {
      "channel": 4,
      "note": 77,
      "start": 109.364,
      "duration": 0.1249,
      "velocity": 102,
      "chip": "ym2612"
    },
    {
      "channel": 4,
      "note": 81,
      "start": 109.5157,
      "duration": 0.1246,
      "velocity": 102,
      "chip": "ym2612"
    },
    {
      "channel": 0,
      "note": 50,
      "start": 109.5906,
      "duration": 0.0112,
      "velocity": 109,
      "chip": "ym2612"
    },
    {
      "channel": 1,
      "note": 50,
      "start": 109.5924,
      "duration": 0.1233,
      "velocity": 108,
      "chip": "ym2612"
    },
    {
      "channel": 2,
      "note": 74,
      "start": 109.5942,
      "duration": 0.8927,
      "velocity": 102,
      "chip": "ym2612"
    },
    {
      "channel": 3,
      "note": 61,
      "start": 109.5963,
      "duration": 0.0438,
      "velocity": 127,
      "chip": "ym2612"
    },
    {
      "channel": 5,
      "note": 50,
      "start": 109.6053,
      "duration": 0.0097,
      "velocity": 109,
      "chip": "ym2612"
    },
    {
      "channel": 0,
      "note": 65,
      "start": 109.7427,
      "duration": 0.1372,
      "velocity": 109,
      "chip": "ym2612"
    },
    {
      "channel": 1,
      "note": 50,
      "start": 109.7444,
      "duration": 0.1357,
      "velocity": 108,
      "chip": "ym2612"
    },
    {
      "channel": 3,
      "note": 61,
      "start": 109.7499,
      "duration": 0.0546,
      "velocity": 127,
      "chip": "ym2612"
    },
    {
      "channel": 5,
      "note": 65,
      "start": 109.7703,
      "duration": 0.1232,
      "velocity": 109,
      "chip": "ym2612"
    },
    {
      "channel": 4,
      "note": 74,
      "start": 109.8318,
      "duration": 0.8959,
      "velocity": 102,
      "chip": "ym2612"
    },
    {
      "channel": 0,
      "note": 50,
      "start": 109.9066,
      "duration": 0.0112,
      "velocity": 109,
      "chip": "ym2612"
    },
    {
      "channel": 1,
      "note": 50,
      "start": 109.9084,
      "duration": 0.1232,
      "velocity": 108,
      "chip": "ym2612"
    },
    {
      "channel": 5,
      "note": 50,
      "start": 109.9213,
      "duration": 0.0102,
      "velocity": 109,
      "chip": "ym2612"
    },
    {
      "channel": 0,
      "note": 64,
      "start": 110.0583,
      "duration": 0.126,
      "velocity": 109,
      "chip": "ym2612"
    },
    {
      "channel": 1,
      "note": 50,
      "start": 110.0601,
      "duration": 0.1244,
      "velocity": 108,
      "chip": "ym2612"
    },
    {
      "channel": 3,
      "note": 61,
      "start": 110.0657,
      "duration": 0.0422,
      "velocity": 127,
      "chip": "ym2612"
    },
    {
      "channel": 5,
      "note": 64,
      "start": 110.0723,
      "duration": 0.1246,
      "velocity": 109,
      "chip": "ym2612"
    },
    {
      "channel": 0,
      "note": 62,
      "start": 110.21,
      "duration": 0.0112,
      "velocity": 109,
      "chip": "ym2612"
    },
    {
      "channel": 1,
      "note": 50,
      "start": 110.2118,
      "duration": 0.1232,
      "velocity": 108,
      "chip": "ym2612"
    },
    {
      "channel": 5,
      "note": 62,
      "start": 110.2237,
      "duration": 0.0111,
      "velocity": 109,
      "chip": "ym2612"
    },
    {
      "channel": 0,
      "note": 56,
      "start": 110.3616,
      "duration": 0.0112,
      "velocity": 109,
      "chip": "ym2612"
    },
    {
      "channel": 1,
      "note": 44,
      "start": 110.3634,
      "duration": 0.1233,
      "velocity": 108,
      "chip": "ym2612"
    },
    {
      "channel": 3,
      "note": 61,
      "start": 110.3696,
      "duration": 0.0415,
      "velocity": 127,
      "chip": "ym2612"
    },
    {
      "channel": 5,
      "note": 56,
      "start": 110.3754,
      "duration": 0.0115,
      "velocity": 109,
      "chip": "ym2612"
    },
    {
      "channel": 0,
      "note": 46,
      "start": 110.5137,
      "duration": 0.2894,
      "velocity": 109,
      "chip": "ym2612"
    },
    {
      "channel": 1,
      "note": 46,
      "start": 110.5156,
      "duration": 0.2877,
      "velocity": 108,
      "chip": "ym2612"
    },
    {
      "channel": 2,
      "note": 81,
      "start": 110.5174,
      "duration": 0.2861,
      "velocity": 102,
      "chip": "ym2612"
    },
    {
      "channel": 3,
      "note": 61,
      "start": 110.5236,
      "duration": 0.052,
      "velocity": 127,
      "chip": "ym2612"
    },
    {
      "channel": 5,
      "note": 46,
      "start": 110.5399,
      "duration": 0.2763,
      "velocity": 109,
      "chip": "ym2612"
    },
    {
      "channel": 4,
      "note": 81,
      "start": 110.7553,
      "duration": 0.2881,
      "velocity": 102,
      "chip": "ym2612"
    },
    {
      "channel": 0,
      "note": 46,
      "start": 110.8293,
      "duration": 0.0112,
      "velocity": 109,
      "chip": "ym2612"
    },
    {
      "channel": 1,
      "note": 46,
      "start": 110.8311,
      "duration": 0.1232,
      "velocity": 108,
      "chip": "ym2612"
    },
    {
      "channel": 3,
      "note": 61,
      "start": 110.8334,
      "duration": 0.0455,
      "velocity": 127,
      "chip": "ym2612"
    },
    {
      "channel": 5,
      "note": 46,
      "start": 110.8431,
      "duration": 0.0106,
      "velocity": 109,
      "chip": "ym2612"
    },
    {
      "channel": 0,
      "note": 62,
      "start": 110.981,
      "duration": 0.1376,
      "velocity": 109,
      "chip": "ym2612"
    },
    {
      "channel": 1,
      "note": 46,
      "start": 110.9829,
      "duration": 0.1368,
      "velocity": 108,
      "chip": "ym2612"
    },
    {
      "channel": 2,
      "note": 81,
      "start": 110.9846,
      "duration": 0.286,
      "velocity": 102,
      "chip": "ym2612"
    },
    {
      "channel": 3,
      "note": 61,
      "start": 110.9908,
      "duration": 0.0524,
      "velocity": 127,
      "chip": "ym2612"
    },
    {
      "channel": 5,
      "note": 62,
      "start": 111.008,
      "duration": 0.1242,
      "velocity": 109,
      "chip": "ym2612"
    },
    {
      "channel": 0,
      "note": 46,
      "start": 111.1453,
      "duration": 0.0112,
      "velocity": 109,
      "chip": "ym2612"
    },
    {
      "channel": 1,
      "note": 46,
      "start": 111.1472,
      "duration": 0.1232,
      "velocity": 108,
      "chip": "ym2612"
    },
    {
      "channel": 5,
      "note": 46,
      "start": 111.1591,
      "duration": 0.0116,
      "velocity": 109,
      "chip": "ym2612"
    },
    {
      "channel": 4,
      "note": 81,
      "start": 111.2222,
      "duration": 0.2892,
      "velocity": 102,
      "chip": "ym2612"
    },
    {
      "channel": 0,
      "note": 60,
      "start": 111.297,
      "duration": 0.1394,
      "velocity": 109,
      "chip": "ym2612"
    },
    {
      "channel": 1,
      "note": 46,
      "start": 111.2988,
      "duration": 0.1378,
      "velocity": 108,
      "chip": "ym2612"
    },
    {
      "channel": 2,
      "note": 79,
      "start": 111.3007,
      "duration": 0.2861,
      "velocity": 102,
      "chip": "ym2612"
    },
    {
      "channel": 3,
      "note": 61,
      "start": 111.3069,
      "duration": 0.0523,
      "velocity": 127,
      "chip": "ym2612"
    },
    {
      "channel": 5,
      "note": 60,
      "start": 111.3234,
      "duration": 0.1249,
      "velocity": 109,
      "chip": "ym2612"
    },
    {
      "channel": 0,
      "note": 46,
      "start": 111.4614,
      "duration": 0.0112,
      "velocity": 109,
      "chip": "ym2612"
    },
    {
      "channel": 1,
      "note": 46,
      "start": 111.4631,
      "duration": 0.1234,
      "velocity": 108,
      "chip": "ym2612"
    },
    {
      "channel": 5,
      "note": 46,
      "start": 111.4751,
      "duration": 0.0119,
      "velocity": 109,
      "chip": "ym2612"
    },
    {
      "channel": 4,
      "note": 79,
      "start": 111.5388,
      "duration": 0.3015,
      "velocity": 102,
      "chip": "ym2612"
    },
    {
      "channel": 0,
      "note": 46,
      "start": 111.613,
      "duration": 0.0239,
      "velocity": 109,
      "chip": "ym2612"
    },
    {
      "channel": 1,
      "note": 46,
      "start": 111.6148,
      "duration": 0.1359,
      "velocity": 108,
      "chip": "ym2612"
    },
    {
      "channel": 2,
      "note": 77,
      "start": 111.6166,
      "duration": 0.1343,
      "velocity": 102,
      "chip": "ym2612"
    },
    {
      "channel": 3,
      "note": 61,
      "start": 111.6227,
      "duration": 0.0525,
      "velocity": 127,
      "chip": "ym2612"
    },
    {
      "channel": 5,
      "note": 46,
      "start": 111.6394,
      "duration": 0.0107,
      "velocity": 109,
      "chip": "ym2612"
    },
    {
      "channel": 0,
      "note": 48,
      "start": 111.7776,
      "duration": 0.289,
      "velocity": 109,
      "chip": "ym2612"
    },
    {
      "channel": 1,
      "note": 48,
      "start": 111.7797,
      "duration": 0.2871,
      "velocity": 108,
      "chip": "ym2612"
    },
    {
      "channel": 2,
      "note": 76,
      "start": 111.7815,
      "duration": 0.4371,
      "velocity": 102,
      "chip": "ym2612"
    },
    {
      "channel": 3,
      "note": 61,
      "start": 111.7877,
      "duration": 0.0524,
      "velocity": 127,
      "chip": "ym2612"
    },
    {
      "channel": 5,
      "note": 48,
      "start": 111.8049,
      "duration": 0.2754,
      "velocity": 109,
      "chip": "ym2612"
    },
    {
      "channel": 4,
      "note": 77,
      "start": 111.8668,
      "duration": 0.1249,
      "velocity": 102,
      "chip": "ym2612"
    },
    {
      "channel": 4,
      "note": 76,
      "start": 112.0185,
      "duration": 0.4409,
      "velocity": 102,
      "chip": "ym2612"
    },
    {
      "channel": 0,
      "note": 48,
      "start": 112.0934,
      "duration": 0.0112,
      "velocity": 109,
      "chip": "ym2612"
    },
    {
      "channel": 1,
      "note": 48,
      "start": 112.0951,
      "duration": 0.1233,
      "velocity": 108,
      "chip": "ym2612"
    },
    {
      "channel": 3,
      "note": 61,
      "start": 112.0974,
      "duration": 0.0455,
      "velocity": 127,
      "chip": "ym2612"
    },
    {
      "channel": 5,
      "note": 48,
      "start": 112.1072,
      "duration": 0.0106,
      "velocity": 109,
      "chip": "ym2612"
    },
    {
      "channel": 0,
      "note": 64,
      "start": 112.2451,
      "duration": 0.1375,
      "velocity": 109,
      "chip": "ym2612"
    },
    {
      "channel": 1,
      "note": 48,
      "start": 112.2469,
      "duration": 0.1359,
      "velocity": 108,
      "chip": "ym2612"
    },
    {
      "channel": 2,
      "note": 77,
      "start": 112.2488,
      "duration": 0.4391,
      "velocity": 102,
      "chip": "ym2612"
    },
    {
      "channel": 3,
      "note": 61,
      "start": 112.2549,
      "duration": 0.0523,
      "velocity": 127,
      "chip": "ym2612"
    },
    {
      "channel": 5,
      "note": 64,
      "start": 112.2731,
      "duration": 0.1232,
      "velocity": 109,
      "chip": "ym2612"
    },
    {
      "channel": 0,
      "note": 48,
      "start": 112.4094,
      "duration": 0.0111,
      "velocity": 109,
      "chip": "ym2612"
    },
    {
      "channel": 1,
      "note": 48,
      "start": 112.4112,
      "duration": 0.1232,
      "velocity": 108,
      "chip": "ym2612"
    },
    {
      "channel": 5,
      "note": 48,
      "start": 112.4231,
      "duration": 0.0111,
      "velocity": 109,
      "chip": "ym2612"
    },
    {
      "channel": 4,
      "note": 77,
      "start": 112.487,
      "duration": 0.4272,
      "velocity": 102,
      "chip": "ym2612"
    },
    {
      "channel": 0,
      "note": 62,
      "start": 112.561,
      "duration": 0.1265,
      "velocity": 109,
      "chip": "ym2612"
    },
    {
      "channel": 1,
      "note": 48,
      "start": 112.5628,
      "duration": 0.1249,
      "velocity": 108,
      "chip": "ym2612"
    },
    {
      "channel": 3,
      "note": 61,
      "start": 112.5655,
      "duration": 0.0451,
      "velocity": 127,
      "chip": "ym2612"
    },
    {
      "channel": 5,
      "note": 62,
      "start": 112.5747,
      "duration": 0.1249,
      "velocity": 109,
      "chip": "ym2612"
    },
    {
      "channel": 0,
      "note": 48,
      "start": 112.7127,
      "duration": 0.0112,
      "velocity": 109,
      "chip": "ym2612"
    },
    {
      "channel": 1,
      "note": 48,
      "start": 112.7145,
      "duration": 0.1232,
      "velocity": 108,
      "chip": "ym2612"
    },
    {
      "channel": 2,
      "note": 79,
      "start": 112.7163,
      "duration": 0.2733,
      "velocity": 102,
      "chip": "ym2612"
    },
    {
      "channel": 3,
      "note": 61,
      "start": 112.7184,
      "duration": 0.0438,
      "velocity": 127,
      "chip": "ym2612"
    },
    {
      "channel": 5,
      "note": 48,
      "start": 112.7265,
      "duration": 0.0106,
      "velocity": 109,
      "chip": "ym2612"
    },
    {
      "channel": 0,
      "note": 48,
      "start": 112.8644,
      "duration": 0.0112,
      "velocity": 109,
      "chip": "ym2612"
    },
    {
      "channel": 1,
      "note": 48,
      "start": 112.8662,
      "duration": 0.1232,
      "velocity": 108,
      "chip": "ym2612"
    },
    {
      "channel": 3,
      "note": 61,
      "start": 112.8684,
      "duration": 0.0455,
      "velocity": 127,
      "chip": "ym2612"
    },
    {
      "channel": 5,
      "note": 48,
      "start": 112.8781,
      "duration": 0.0107,
      "velocity": 109,
      "chip": "ym2612"
    },
    {
      "channel": 4,
      "note": 79,
      "start": 112.9412,
      "duration": 0.2893,
      "velocity": 102,
      "chip": "ym2612"
    },
    {
      "channel": 0,
      "note": 50,
      "start": 113.0164,
      "duration": 0.289,
      "velocity": 109,
      "chip": "ym2612"
    },
    {
      "channel": 1,
      "note": 50,
      "start": 113.0184,
      "duration": 0.2871,
      "velocity": 108,
      "chip": "ym2612"
    },
    {
      "channel": 2,
      "note": 81,
      "start": 113.0214,
      "duration": 0.7393,
      "velocity": 102,
      "chip": "ym2612"
    },
    {
      "channel": 3,
      "note": 61,
      "start": 113.027,
      "duration": 0.0515,
      "velocity": 127,
      "chip": "ym2612"
    },
    {
      "channel": 5,
      "note": 50,
      "start": 113.0427,
      "duration": 0.2771,
      "velocity": 109,
      "chip": "ym2612"
    },
    {
      "channel": 4,
      "note": 81,
      "start": 113.2575,
      "duration": 0.7439,
      "velocity": 102,
      "chip": "ym2612"
    },
    {
      "channel": 0,
      "note": 50,
      "start": 113.332,
      "duration": 0.0112,
      "velocity": 109,
      "chip": "ym2612"
    },
    {
      "channel": 1,
      "note": 50,
      "start": 113.3339,
      "duration": 0.1232,
      "velocity": 108,
      "chip": "ym2612"
    },
    {
      "channel": 5,
      "note": 50,
      "start": 113.3458,
      "duration": 0.0111,
      "velocity": 109,
      "chip": "ym2612"
    },
    {
      "channel": 0,
      "note": 65,
      "start": 113.4837,
      "duration": 0.1249,
      "velocity": 109,
      "chip": "ym2612"
    },
    {
      "channel": 1,
      "note": 50,
      "start": 113.4864,
      "duration": 0.1225,
      "velocity": 108,
      "chip": "ym2612"
    },
    {
      "channel": 3,
      "note": 61,
      "start": 113.4918,
      "duration": 0.0415,
      "velocity": 127,
      "chip": "ym2612"
    },
    {
      "channel": 5,
      "note": 65,
      "start": 113.4977,
      "duration": 0.1247,
      "velocity": 109,
      "chip": "ym2612"
    },
    {
      "channel": 0,
      "note": 50,
      "start": 113.6363,
      "duration": 0.0104,
      "velocity": 109,
      "chip": "ym2612"
    },
    {
      "channel": 1,
      "note": 50,
      "start": 113.6381,
      "duration": 0.1224,
      "velocity": 108,
      "chip": "ym2612"
    },
    {
      "channel": 5,
      "note": 50,
      "start": 113.6492,
      "duration": 0.0111,
      "velocity": 109,
      "chip": "ym2612"
    },
    {
      "channel": 0,
      "note": 64,
      "start": 113.7878,
      "duration": 0.1373,
      "velocity": 109,
      "chip": "ym2612"
    },
    {
      "channel": 1,
      "note": 50,
      "start": 113.7896,
      "duration": 0.1358,
      "velocity": 108,
      "chip": "ym2612"
    },
    {
      "channel": 2,
      "note": 79,
      "start": 113.7915,
      "duration": 0.2853,
      "velocity": 102,
      "chip": "ym2612"
    },
    {
      "channel": 3,
      "note": 61,
      "start": 113.7972,
      "duration": 0.0522,
      "velocity": 127,
      "chip": "ym2612"
    },
    {
      "channel": 5,
      "note": 64,
      "start": 113.8134,
      "duration": 0.1258,
      "velocity": 109,
      "chip": "ym2612"
    },
    {
      "channel": 0,
      "note": 50,
      "start": 113.9514,
      "duration": 0.0112,
      "velocity": 109,
      "chip": "ym2612"
    },
    {
      "channel": 1,
      "note": 50,
      "start": 113.954,
      "duration": 0.1224,
      "velocity": 108,
      "chip": "ym2612"
    },
    {
      "channel": 5,
      "note": 50,
      "start": 113.9652,
      "duration": 0.0111,
      "velocity": 109,
      "chip": "ym2612"
    },
    {
      "channel": 4,
      "note": 79,
      "start": 114.0283,
      "duration": 0.3017,
      "velocity": 102,
      "chip": "ym2612"
    },
    {
      "channel": 0,
      "note": 65,
      "start": 114.1039,
      "duration": 0.1368,
      "velocity": 109,
      "chip": "ym2612"
    },
    {
      "channel": 1,
      "note": 50,
      "start": 114.1058,
      "duration": 0.1352,
      "velocity": 108,
      "chip": "ym2612"
    },
    {
      "channel": 2,
      "note": 77,
      "start": 114.1076,
      "duration": 0.1335,
      "velocity": 102,
      "chip": "ym2612"
    },
    {
      "channel": 3,
      "note": 61,
      "start": 114.1129,
      "duration": 0.0524,
      "velocity": 127,
      "chip": "ym2612"
    },
    {
      "channel": 5,
      "note": 65,
      "start": 114.1295,
      "duration": 0.1249,
      "velocity": 109,
      "chip": "ym2612"
    },
    {
      "channel": 0,
      "note": 50,
      "start": 114.2677,
      "duration": 0.289,
      "velocity": 109,
      "chip": "ym2612"
    },
    {
      "channel": 1,
      "note": 50,
      "start": 114.2706,
      "duration": 0.2863,
      "velocity": 108,
      "chip": "ym2612"
    },
    {
      "channel": 2,
      "note": 81,
      "start": 114.2725,
      "duration": 0.1328,
      "velocity": 102,
      "chip": "ym2612"
    },
    {
      "channel": 3,
      "note": 61,
      "start": 114.2778,
      "duration": 0.052,
      "velocity": 127,
      "chip": "ym2612"
    },
    {
      "channel": 5,
      "note": 50,
      "start": 114.2941,
      "duration": 0.2766,
      "velocity": 109,
      "chip": "ym2612"
    },
    {
      "channel": 4,
      "note": 77,
      "start": 114.3578,
      "duration": 0.124,
      "velocity": 102,
      "chip": "ym2612"
    },
    {
      "channel": 4,
      "note": 81,
      "start": 114.5085,
      "duration": 0.1246,
      "velocity": 102,
      "chip": "ym2612"
    },
    {
      "channel": 0,
      "note": 50,
      "start": 114.5834,
      "duration": 0.0113,
      "velocity": 109,
      "chip": "ym2612"
    },
    {
      "channel": 1,
      "note": 50,
      "start": 114.5853,
      "duration": 0.1232,
      "velocity": 108,
      "chip": "ym2612"
    },
    {
      "channel": 2,
      "note": 74,
      "start": 114.588,
      "duration": 0.8791,
      "velocity": 102,
      "chip": "ym2612"
    },
    {
      "channel": 3,
      "note": 61,
      "start": 114.5901,
      "duration": 0.0429,
      "velocity": 127,
      "chip": "ym2612"
    },
    {
      "channel": 5,
      "note": 50,
      "start": 114.5973,
      "duration": 0.0105,
      "velocity": 109,
      "chip": "ym2612"
    },
    {
      "channel": 0,
      "note": 65,
      "start": 114.7351,
      "duration": 0.125,
      "velocity": 109,
      "chip": "ym2612"
    },
    {
      "channel": 1,
      "note": 50,
      "start": 114.7378,
      "duration": 0.1225,
      "velocity": 108,
      "chip": "ym2612"
    },
    {
      "channel": 3,
      "note": 61,
      "start": 114.7432,
      "duration": 0.0415,
      "velocity": 127,
      "chip": "ym2612"
    },
    {
      "channel": 5,
      "note": 65,
      "start": 114.7498,
      "duration": 0.124,
      "velocity": 109,
      "chip": "ym2612"
    },
    {
      "channel": 4,
      "note": 74,
      "start": 114.8119,
      "duration": 0.8959,
      "velocity": 102,
      "chip": "ym2612"
    },
    {
      "channel": 0,
      "note": 50,
      "start": 114.8876,
      "duration": 0.0104,
      "velocity": 109,
      "chip": "ym2612"
    },
    {
      "channel": 1,
      "note": 50,
      "start": 114.8895,
      "duration": 0.1224,
      "velocity": 108,
      "chip": "ym2612"
    },
    {
      "channel": 5,
      "note": 50,
      "start": 114.9005,
      "duration": 0.0111,
      "velocity": 109,
      "chip": "ym2612"
    },
    {
      "channel": 0,
      "note": 64,
      "start": 115.0385,
      "duration": 0.1252,
      "velocity": 109,
      "chip": "ym2612"
    },
    {
      "channel": 1,
      "note": 50,
      "start": 115.0403,
      "duration": 0.1237,
      "velocity": 108,
      "chip": "ym2612"
    },
    {
      "channel": 3,
      "note": 61,
      "start": 115.0459,
      "duration": 0.0422,
      "velocity": 127,
      "chip": "ym2612"
    },
    {
      "channel": 5,
      "note": 64,
      "start": 115.0531,
      "duration": 0.1245,
      "velocity": 109,
      "chip": "ym2612"
    },
    {
      "channel": 0,
      "note": 62,
      "start": 115.1911,
      "duration": 0.0103,
      "velocity": 109,
      "chip": "ym2612"
    },
    {
      "channel": 1,
      "note": 50,
      "start": 115.1929,
      "duration": 0.1223,
      "velocity": 108,
      "chip": "ym2612"
    },
    {
      "channel": 5,
      "note": 62,
      "start": 115.2047,
      "duration": 0.0102,
      "velocity": 109,
      "chip": "ym2612"
    },
    {
      "channel": 0,
      "note": 56,
      "start": 115.3418,
      "duration": 0.0113,
      "velocity": 109,
      "chip": "ym2612"
    },
    {
      "channel": 1,
      "note": 44,
      "start": 115.3436,
      "duration": 0.1233,
      "velocity": 108,
      "chip": "ym2612"
    },
    {
      "channel": 3,
      "note": 61,
      "start": 115.349,
      "duration": 0.0424,
      "velocity": 127,
      "chip": "ym2612"
    },
    {
      "channel": 5,
      "note": 56,
      "start": 115.3556,
      "duration": 0.0106,
      "velocity": 109,
      "chip": "ym2612"
    },
    {
      "channel": 0,
      "note": 46,
      "start": 115.4938,
      "duration": 0.289,
      "velocity": 109,
      "chip": "ym2612"
    },
    {
      "channel": 1,
      "note": 46,
      "start": 115.4958,
      "duration": 0.2872,
      "velocity": 108,
      "chip": "ym2612"
    },
    {
      "channel": 2,
      "note": 81,
      "start": 115.4976,
      "duration": 0.2856,
      "velocity": 102,
      "chip": "ym2612"
    },
    {
      "channel": 3,
      "note": 61,
      "start": 115.5037,
      "duration": 0.052,
      "velocity": 127,
      "chip": "ym2612"
    },
    {
      "channel": 5,
      "note": 46,
      "start": 115.521,
      "duration": 0.2754,
      "velocity": 109,
      "chip": "ym2612"
    },
    {
      "channel": 4,
      "note": 81,
      "start": 115.7346,
      "duration": 0.2899,
      "velocity": 102,
      "chip": "ym2612"
    },
    {
      "channel": 0,
      "note": 46,
      "start": 115.8095,
      "duration": 0.0112,
      "velocity": 109,
      "chip": "ym2612"
    },
    {
      "channel": 1,
      "note": 46,
      "start": 115.8114,
      "duration": 0.1232,
      "velocity": 108,
      "chip": "ym2612"
    },
    {
      "channel": 3,
      "note": 61,
      "start": 115.8136,
      "duration": 0.0455,
      "velocity": 127,
      "chip": "ym2612"
    },
    {
      "channel": 5,
      "note": 46,
      "start": 115.8233,
      "duration": 0.0106,
      "velocity": 109,
      "chip": "ym2612"
    },
    {
      "channel": 0,
      "note": 62,
      "start": 115.9612,
      "duration": 0.1376,
      "velocity": 109,
      "chip": "ym2612"
    },
    {
      "channel": 1,
      "note": 46,
      "start": 115.963,
      "duration": 0.136,
      "velocity": 108,
      "chip": "ym2612"
    },
    {
      "channel": 2,
      "note": 81,
      "start": 115.9649,
      "duration": 0.286,
      "velocity": 102,
      "chip": "ym2612"
    },
    {
      "channel": 3,
      "note": 61,
      "start": 115.971,
      "duration": 0.0533,
      "velocity": 127,
      "chip": "ym2612"
    },
    {
      "channel": 5,
      "note": 62,
      "start": 115.9884,
      "duration": 0.124,
      "velocity": 109,
      "chip": "ym2612"
    },
    {
      "channel": 0,
      "note": 46,
      "start": 116.1255,
      "duration": 0.0112,
      "velocity": 109,
      "chip": "ym2612"
    },
    {
      "channel": 1,
      "note": 46,
      "start": 116.1273,
      "duration": 0.1233,
      "velocity": 108,
      "chip": "ym2612"
    },
    {
      "channel": 5,
      "note": 46,
      "start": 116.1393,
      "duration": 0.0111,
      "velocity": 109,
      "chip": "ym2612"
    },
    {
      "channel": 4,
      "note": 81,
      "start": 116.2032,
      "duration": 0.2883,
      "velocity": 102,
      "chip": "ym2612"
    },
    {
      "channel": 0,
      "note": 60,
      "start": 116.2772,
      "duration": 0.1377,
      "velocity": 109,
      "chip": "ym2612"
    },
    {
      "channel": 1,
      "note": 46,
      "start": 116.279,
      "duration": 0.1361,
      "velocity": 108,
      "chip": "ym2612"
    },
    {
      "channel": 2,
      "note": 79,
      "start": 116.2808,
      "duration": 0.286,
      "velocity": 102,
      "chip": "ym2612"
    },
    {
      "channel": 3,
      "note": 61,
      "start": 116.2871,
      "duration": 0.0524,
      "velocity": 127,
      "chip": "ym2612"
    },
    {
      "channel": 5,
      "note": 60,
      "start": 116.3045,
      "duration": 0.1245,
      "velocity": 109,
      "chip": "ym2612"
    },
    {
      "channel": 0,
      "note": 46,
      "start": 116.4424,
      "duration": 0.0107,
      "velocity": 109,
      "chip": "ym2612"
    },
    {
      "channel": 1,
      "note": 46,
      "start": 116.4442,
      "duration": 0.1223,
      "velocity": 108,
      "chip": "ym2612"
    },
    {
      "channel": 5,
      "note": 46,
      "start": 116.4556,
      "duration": 0.0107,
      "velocity": 109,
      "chip": "ym2612"
    },
    {
      "channel": 4,
      "note": 79,
      "start": 116.5183,
      "duration": 0.3022,
      "velocity": 102,
      "chip": "ym2612"
    },
    {
      "channel": 0,
      "note": 46,
      "start": 116.5932,
      "duration": 0.0239,
      "velocity": 109,
      "chip": "ym2612"
    },
    {
      "channel": 1,
      "note": 46,
      "start": 116.595,
      "duration": 0.1359,
      "velocity": 108,
      "chip": "ym2612"
    },
    {
      "channel": 2,
      "note": 77,
      "start": 116.5968,
      "duration": 0.1344,
      "velocity": 102,
      "chip": "ym2612"
    },
    {
      "channel": 3,
      "note": 61,
      "start": 116.6029,
      "duration": 0.0524,
      "velocity": 127,
      "chip": "ym2612"
    },
    {
      "channel": 5,
      "note": 46,
      "start": 116.6205,
      "duration": 0.0098,
      "velocity": 109,
      "chip": "ym2612"
    },
    {
      "channel": 0,
      "note": 48,
      "start": 116.7578,
      "duration": 0.289,
      "velocity": 109,
      "chip": "ym2612"
    },
    {
      "channel": 1,
      "note": 48,
      "start": 116.7599,
      "duration": 0.2871,
      "velocity": 108,
      "chip": "ym2612"
    },
    {
      "channel": 2,
      "note": 76,
      "start": 116.7617,
      "duration": 0.4371,
      "velocity": 102,
      "chip": "ym2612"
    },
    {
      "channel": 3,
      "note": 61,
      "start": 116.767,
      "duration": 0.0533,
      "velocity": 127,
      "chip": "ym2612"
    },
    {
      "channel": 5,
      "note": 48,
      "start": 116.7842,
      "duration": 0.2763,
      "velocity": 109,
      "chip": "ym2612"
    },
    {
      "channel": 4,
      "note": 77,
      "start": 116.8475,
      "duration": 0.1241,
      "velocity": 102,
      "chip": "ym2612"
    },
    {
      "channel": 3,
      "note": 61,
      "start": 116.9259,
      "duration": 0.0456,
      "velocity": 127,
      "chip": "ym2612"
    },
    {
      "channel": 4,
      "note": 76,
      "start": 116.9987,
      "duration": 0.4408,
      "velocity": 102,
      "chip": "ym2612"
    },
    {
      "channel": 0,
      "note": 48,
      "start": 117.0736,
      "duration": 0.0112,
      "velocity": 109,
      "chip": "ym2612"
    },
    {
      "channel": 1,
      "note": 48,
      "start": 117.0754,
      "duration": 0.1232,
      "velocity": 108,
      "chip": "ym2612"
    },
    {
      "channel": 3,
      "note": 61,
      "start": 117.0776,
      "duration": 0.0455,
      "velocity": 127,
      "chip": "ym2612"
    },
    {
      "channel": 5,
      "note": 48,
      "start": 117.0881,
      "duration": 0.0099,
      "velocity": 109,
      "chip": "ym2612"
    },
    {
      "channel": 0,
      "note": 64,
      "start": 117.2252,
      "duration": 0.1376,
      "velocity": 109,
      "chip": "ym2612"
    },
    {
      "channel": 1,
      "note": 48,
      "start": 117.227,
      "duration": 0.136,
      "velocity": 108,
      "chip": "ym2612"
    },
    {
      "channel": 2,
      "note": 77,
      "start": 117.2288,
      "duration": 0.438,
      "velocity": 102,
      "chip": "ym2612"
    },
    {
      "channel": 3,
      "note": 61,
      "start": 117.2341,
      "duration": 0.0533,
      "velocity": 127,
      "chip": "ym2612"
    },
    {
      "channel": 5,
      "note": 64,
      "start": 117.2517,
      "duration": 0.1248,
      "velocity": 109,
      "chip": "ym2612"
    },
    {
      "channel": 0,
      "note": 48,
      "start": 117.3895,
      "duration": 0.0112,
      "velocity": 109,
      "chip": "ym2612"
    },
    {
      "channel": 1,
      "note": 48,
      "start": 117.3913,
      "duration": 0.1233,
      "velocity": 108,
      "chip": "ym2612"
    },
    {
      "channel": 5,
      "note": 48,
      "start": 117.4041,
      "duration": 0.0102,
      "velocity": 109,
      "chip": "ym2612"
    },
    {
      "channel": 4,
      "note": 77,
      "start": 117.4663,
      "duration": 0.428,
      "velocity": 102,
      "chip": "ym2612"
    },
    {
      "channel": 0,
      "note": 62,
      "start": 117.5412,
      "duration": 0.1253,
      "velocity": 109,
      "chip": "ym2612"
    },
    {
      "channel": 1,
      "note": 48,
      "start": 117.543,
      "duration": 0.1237,
      "velocity": 108,
      "chip": "ym2612"
    },
    {
      "channel": 3,
      "note": 61,
      "start": 117.5488,
      "duration": 0.042,
      "velocity": 127,
      "chip": "ym2612"
    },
    {
      "channel": 5,
      "note": 62,
      "start": 117.5556,
      "duration": 0.1248,
      "velocity": 109,
      "chip": "ym2612"
    },
    {
      "channel": 0,
      "note": 48,
      "start": 117.6938,
      "duration": 0.0103,
      "velocity": 109,
      "chip": "ym2612"
    },
    {
      "channel": 1,
      "note": 48,
      "start": 117.6956,
      "duration": 0.1224,
      "velocity": 108,
      "chip": "ym2612"
    },
    {
      "channel": 2,
      "note": 79,
      "start": 117.6974,
      "duration": 0.2727,
      "velocity": 102,
      "chip": "ym2612"
    },
    {
      "channel": 3,
      "note": 61,
      "start": 117.6995,
      "duration": 0.0429,
      "velocity": 127,
      "chip": "ym2612"
    },
    {
      "channel": 5,
      "note": 48,
      "start": 117.7067,
      "duration": 0.0106,
      "velocity": 109,
      "chip": "ym2612"
    },
    {
      "channel": 0,
      "note": 48,
      "start": 117.8446,
      "duration": 0.0112,
      "velocity": 109,
      "chip": "ym2612"
    },
    {
      "channel": 1,
      "note": 48,
      "start": 117.8463,
      "duration": 0.1235,
      "velocity": 108,
      "chip": "ym2612"
    },
    {
      "channel": 3,
      "note": 61,
      "start": 117.8486,
      "duration": 0.0455,
      "velocity": 127,
      "chip": "ym2612"
    },
    {
      "channel": 5,
      "note": 48,
      "start": 117.8584,
      "duration": 0.0115,
      "velocity": 109,
      "chip": "ym2612"
    },
    {
      "channel": 4,
      "note": 79,
      "start": 117.9222,
      "duration": 0.2884,
      "velocity": 102,
      "chip": "ym2612"
    },
    {
      "channel": 0,
      "note": 50,
      "start": 117.9965,
      "duration": 0.2899,
      "velocity": 109,
      "chip": "ym2612"
    },
    {
      "channel": 1,
      "note": 50,
      "start": 117.9986,
      "duration": 0.288,
      "velocity": 108,
      "chip": "ym2612"
    },
    {
      "channel": 2,
      "note": 77,
      "start": 118.0007,
      "duration": 3.6601,
      "velocity": 102,
      "chip": "ym2612"
    },
    {
      "channel": 3,
      "note": 61,
      "start": 118.0072,
      "duration": 0.0513,
      "velocity": 127,
      "chip": "ym2612"
    },
    {
      "channel": 5,
      "note": 50,
      "start": 118.0229,
      "duration": 0.2763,
      "velocity": 109,
      "chip": "ym2612"
    },
    {
      "channel": 4,
      "note": 77,
      "start": 118.2385,
      "duration": 3.663,
      "velocity": 102,
      "chip": "ym2612"
    },
    {
      "channel": 0,
      "note": 50,
      "start": 118.3122,
      "duration": 0.0112,
      "velocity": 109,
      "chip": "ym2612"
    },
    {
      "channel": 1,
      "note": 50,
      "start": 118.3141,
      "duration": 0.1232,
      "velocity": 108,
      "chip": "ym2612"
    },
    {
      "channel": 5,
      "note": 50,
      "start": 118.3261,
      "duration": 0.0113,
      "velocity": 109,
      "chip": "ym2612"
    },
    {
      "channel": 0,
      "note": 65,
      "start": 118.464,
      "duration": 0.1249,
      "velocity": 109,
      "chip": "ym2612"
    },
    {
      "channel": 1,
      "note": 50,
      "start": 118.4657,
      "duration": 0.1234,
      "velocity": 108,
      "chip": "ym2612"
    },
    {
      "channel": 3,
      "note": 61,
      "start": 118.472,
      "duration": 0.0423,
      "velocity": 127,
      "chip": "ym2612"
    },
    {
      "channel": 5,
      "note": 65,
      "start": 118.4777,
      "duration": 0.1256,
      "velocity": 109,
      "chip": "ym2612"
    },
    {
      "channel": 0,
      "note": 50,
      "start": 118.6156,
      "duration": 0.0112,
      "velocity": 109,
      "chip": "ym2612"
    },
    {
      "channel": 1,
      "note": 50,
      "start": 118.6175,
      "duration": 0.1232,
      "velocity": 108,
      "chip": "ym2612"
    },
    {
      "channel": 5,
      "note": 50,
      "start": 118.6294,
      "duration": 0.0111,
      "velocity": 109,
      "chip": "ym2612"
    },
    {
      "channel": 0,
      "note": 64,
      "start": 118.7673,
      "duration": 0.1249,
      "velocity": 109,
      "chip": "ym2612"
    },
    {
      "channel": 1,
      "note": 50,
      "start": 118.7699,
      "duration": 0.1225,
      "velocity": 108,
      "chip": "ym2612"
    },
    {
      "channel": 3,
      "note": 61,
      "start": 118.7758,
      "duration": 0.041,
      "velocity": 127,
      "chip": "ym2612"
    },
    {
      "channel": 5,
      "note": 64,
      "start": 118.781,
      "duration": 0.1249,
      "velocity": 109,
      "chip": "ym2612"
    },
    {
      "channel": 0,
      "note": 50,
      "start": 118.9199,
      "duration": 0.0108,
      "velocity": 109,
      "chip": "ym2612"
    },
    {
      "channel": 1,
      "note": 50,
      "start": 118.9217,
      "duration": 0.1223,
      "velocity": 108,
      "chip": "ym2612"
    },
    {
      "channel": 5,
      "note": 50,
      "start": 118.9332,
      "duration": 0.0115,
      "velocity": 109,
      "chip": "ym2612"
    },
    {
      "channel": 0,
      "note": 65,
      "start": 119.0712,
      "duration": 0.1245,
      "velocity": 109,
      "chip": "ym2612"
    },
    {
      "channel": 1,
      "note": 50,
      "start": 119.0729,
      "duration": 0.1229,
      "velocity": 108,
      "chip": "ym2612"
    },
    {
      "channel": 3,
      "note": 61,
      "start": 119.0783,
      "duration": 0.0419,
      "velocity": 127,
      "chip": "ym2612"
    },
    {
      "channel": 5,
      "note": 65,
      "start": 119.0844,
      "duration": 0.1249,
      "velocity": 109,
      "chip": "ym2612"
    },
    {
      "channel": 0,
      "note": 67,
      "start": 119.2226,
      "duration": 0.2764,
      "velocity": 109,
      "chip": "ym2612"
    },
    {
      "channel": 1,
      "note": 50,
      "start": 119.2247,
      "duration": 0.2745,
      "velocity": 108,
      "chip": "ym2612"
    },
    {
      "channel": 5,
      "note": 67,
      "start": 119.2376,
      "duration": 0.2755,
      "velocity": 109,
      "chip": "ym2612"
    },
    {
      "channel": 3,
      "note": 61,
      "start": 119.3786,
      "duration": 0.045,
      "velocity": 127,
      "chip": "ym2612"
    },
    {
      "channel": 0,
      "note": 50,
      "start": 119.5257,
      "duration": 0.0112,
      "velocity": 109,
      "chip": "ym2612"
    },
    {
      "channel": 1,
      "note": 50,
      "start": 119.5276,
      "duration": 0.1232,
      "velocity": 108,
      "chip": "ym2612"
    },
    {
      "channel": 5,
      "note": 50,
      "start": 119.5399,
      "duration": 0.0111,
      "velocity": 109,
      "chip": "ym2612"
    },
    {
      "channel": 0,
      "note": 65,
      "start": 119.6774,
      "duration": 0.1376,
      "velocity": 109,
      "chip": "ym2612"
    },
    {
      "channel": 1,
      "note": 50,
      "start": 119.6792,
      "duration": 0.1359,
      "velocity": 108,
      "chip": "ym2612"
    },
    {
      "channel": 3,
      "note": 61,
      "start": 119.6846,
      "duration": 0.055,
      "velocity": 127,
      "chip": "ym2612"
    },
    {
      "channel": 5,
      "note": 65,
      "start": 119.7046,
      "duration": 0.1241,
      "velocity": 109,
      "chip": "ym2612"
    },
    {
      "channel": 0,
      "note": 50,
      "start": 119.8417,
      "duration": 0.0113,
      "velocity": 109,
      "chip": "ym2612"
    },
    {
      "channel": 1,
      "note": 50,
      "start": 119.8435,
      "duration": 0.1232,
      "velocity": 108,
      "chip": "ym2612"
    },
    {
      "channel": 5,
      "note": 50,
      "start": 119.8556,
      "duration": 0.011,
      "velocity": 109,
      "chip": "ym2612"
    },
    {
      "channel": 0,
      "note": 64,
      "start": 119.9934,
      "duration": 0.1376,
      "velocity": 109,
      "chip": "ym2612"
    },
    {
      "channel": 1,
      "note": 50,
      "start": 119.9952,
      "duration": 0.136,
      "velocity": 108,
      "chip": "ym2612"
    },
    {
      "channel": 3,
      "note": 61,
      "start": 120.0012,
      "duration": 0.0544,
      "velocity": 127,
      "chip": "ym2612"
    },
    {
      "channel": 5,
      "note": 64,
      "start": 120.0205,
      "duration": 0.1241,
      "velocity": 109,
      "chip": "ym2612"
    },
    {
      "channel": 0,
      "note": 50,
      "start": 120.1577,
      "duration": 0.0122,
      "velocity": 109,
      "chip": "ym2612"
    },
    {
      "channel": 1,
      "note": 50,
      "start": 120.1595,
      "duration": 0.1233,
      "velocity": 108,
      "chip": "ym2612"
    },
    {
      "channel": 5,
      "note": 50,
      "start": 120.1724,
      "duration": 0.0106,
      "velocity": 109,
      "chip": "ym2612"
    },
    {
      "channel": 0,
      "note": 65,
      "start": 120.3094,
      "duration": 0.1376,
      "velocity": 109,
      "chip": "ym2612"
    },
    {
      "channel": 1,
      "note": 50,
      "start": 120.3112,
      "duration": 0.1359,
      "velocity": 108,
      "chip": "ym2612"
    },
    {
      "channel": 3,
      "note": 61,
      "start": 120.3166,
      "duration": 0.0549,
      "velocity": 127,
      "chip": "ym2612"
    },
    {
      "channel": 5,
      "note": 65,
      "start": 120.3366,
      "duration": 0.1241,
      "velocity": 109,
      "chip": "ym2612"
    },
    {
      "channel": 0,
      "note": 50,
      "start": 120.474,
      "duration": 0.2763,
      "velocity": 109,
      "chip": "ym2612"
    },
    {
      "channel": 1,
      "note": 50,
      "start": 120.4761,
      "duration": 0.2744,
      "velocity": 108,
      "chip": "ym2612"
    },
    {
      "channel": 5,
      "note": 50,
      "start": 120.489,
      "duration": 0.275,
      "velocity": 109,
      "chip": "ym2612"
    },
    {
      "channel": 3,
      "note": 61,
      "start": 120.6295,
      "duration": 0.0454,
      "velocity": 127,
      "chip": "ym2612"
    },
    {
      "channel": 0,
      "note": 50,
      "start": 120.7771,
      "duration": 0.0111,
      "velocity": 109,
      "chip": "ym2612"
    },
    {
      "channel": 1,
      "note": 50,
      "start": 120.7789,
      "duration": 0.1242,
      "velocity": 108,
      "chip": "ym2612"
    },
    {
      "channel": 5,
      "note": 50,
      "start": 120.7908,
      "duration": 0.0111,
      "velocity": 109,
      "chip": "ym2612"
    },
    {
      "channel": 0,
      "note": 65,
      "start": 120.9288,
      "duration": 0.1249,
      "velocity": 109,
      "chip": "ym2612"
    },
    {
      "channel": 1,
      "note": 50,
      "start": 120.9306,
      "duration": 0.1233,
      "velocity": 108,
      "chip": "ym2612"
    },
    {
      "channel": 3,
      "note": 61,
      "start": 120.9368,
      "duration": 0.0415,
      "velocity": 127,
      "chip": "ym2612"
    },
    {
      "channel": 5,
      "note": 65,
      "start": 120.9425,
      "duration": 0.1249,
      "velocity": 109,
      "chip": "ym2612"
    },
    {
      "channel": 0,
      "note": 50,
      "start": 121.0804,
      "duration": 0.0112,
      "velocity": 109,
      "chip": "ym2612"
    },
    {
      "channel": 1,
      "note": 50,
      "start": 121.0822,
      "duration": 0.1233,
      "velocity": 108,
      "chip": "ym2612"
    },
    {
      "channel": 5,
      "note": 50,
      "start": 121.0942,
      "duration": 0.0111,
      "velocity": 109,
      "chip": "ym2612"
    },
    {
      "channel": 0,
      "note": 64,
      "start": 121.2322,
      "duration": 0.1249,
      "velocity": 109,
      "chip": "ym2612"
    },
    {
      "channel": 1,
      "note": 50,
      "start": 121.2339,
      "duration": 0.1233,
      "velocity": 108,
      "chip": "ym2612"
    },
    {
      "channel": 3,
      "note": 61,
      "start": 121.2406,
      "duration": 0.041,
      "velocity": 127,
      "chip": "ym2612"
    },
    {
      "channel": 5,
      "note": 64,
      "start": 121.2458,
      "duration": 0.1249,
      "velocity": 109,
      "chip": "ym2612"
    },
    {
      "channel": 0,
      "note": 50,
      "start": 121.3838,
      "duration": 0.0112,
      "velocity": 109,
      "chip": "ym2612"
    },
    {
      "channel": 1,
      "note": 50,
      "start": 121.3864,
      "duration": 0.1224,
      "velocity": 108,
      "chip": "ym2612"
    },
    {
      "channel": 3,
      "note": 61,
      "start": 121.3918,
      "duration": 0.0422,
      "velocity": 127,
      "chip": "ym2612"
    },
    {
      "channel": 5,
      "note": 50,
      "start": 121.3976,
      "duration": 0.0106,
      "velocity": 109,
      "chip": "ym2612"
    },
    {
      "channel": 0,
      "note": 65,
      "start": 121.5363,
      "duration": 0.1242,
      "velocity": 109,
      "chip": "ym2612"
    },
    {
      "channel": 1,
      "note": 50,
      "start": 121.5381,
      "duration": 0.1225,
      "velocity": 108,
      "chip": "ym2612"
    },
    {
      "channel": 3,
      "note": 61,
      "start": 121.5404,
      "duration": 0.0446,
      "velocity": 127,
      "chip": "ym2612"
    },
    {
      "channel": 5,
      "note": 65,
      "start": 121.5492,
      "duration": 0.1249,
      "velocity": 109,
      "chip": "ym2612"
    },
    {
      "channel": 0,
      "note": 50,
      "start": 121.6881,
      "duration": 0.2883,
      "velocity": 109,
      "chip": "ym2612"
    },
    {
      "channel": 1,
      "note": 50,
      "start": 121.6902,
      "duration": 0.2864,
      "velocity": 108,
      "chip": "ym2612"
    },
    {
      "channel": 2,
      "note": 86,
      "start": 121.6951,
      "duration": 0.1299,
      "velocity": 102,
      "chip": "ym2612"
    },
    {
      "channel": 3,
      "note": 61,
      "start": 121.7005,
      "duration": 0.0489,
      "velocity": 127,
      "chip": "ym2612"
    },
    {
      "channel": 5,
      "note": 50,
      "start": 121.7138,
      "duration": 0.2763,
      "velocity": 109,
      "chip": "ym2612"
    },
    {
      "channel": 2,
      "note": 84,
      "start": 121.8532,
      "duration": 0.1237,
      "velocity": 102,
      "chip": "ym2612"
    },
    {
      "channel": 4,
      "note": 86,
      "start": 121.9315,
      "duration": 0.1222,
      "velocity": 102,
      "chip": "ym2612"
    },
    {
      "channel": 0,
      "note": 50,
      "start": 122.004,
      "duration": 0.0115,
      "velocity": 109,
      "chip": "ym2612"
    },
    {
      "channel": 1,
      "note": 50,
      "start": 122.0058,
      "duration": 0.1224,
      "velocity": 108,
      "chip": "ym2612"
    },
    {
      "channel": 2,
      "note": 86,
      "start": 122.0077,
      "duration": 0.1208,
      "velocity": 102,
      "chip": "ym2612"
    },
    {
      "channel": 3,
      "note": 61,
      "start": 122.0129,
      "duration": 0.0405,
      "velocity": 127,
      "chip": "ym2612"
    },
    {
      "channel": 5,
      "note": 50,
      "start": 122.018,
      "duration": 0.0095,
      "velocity": 109,
      "chip": "ym2612"
    },
    {
      "channel": 4,
      "note": 84,
      "start": 122.0799,
      "duration": 0.1247,
      "velocity": 102,
      "chip": "ym2612"
    },
    {
      "channel": 0,
      "note": 65,
      "start": 122.1549,
      "duration": 0.1258,
      "velocity": 109,
      "chip": "ym2612"
    },
    {
      "channel": 1,
      "note": 50,
      "start": 122.1566,
      "duration": 0.1243,
      "velocity": 108,
      "chip": "ym2612"
    },
    {
      "channel": 2,
      "note": 88,
      "start": 122.1585,
      "duration": 0.2734,
      "velocity": 102,
      "chip": "ym2612"
    },
    {
      "channel": 3,
      "note": 61,
      "start": 122.1606,
      "duration": 0.0438,
      "velocity": 127,
      "chip": "ym2612"
    },
    {
      "channel": 5,
      "note": 65,
      "start": 122.1685,
      "duration": 0.1249,
      "velocity": 109,
      "chip": "ym2612"
    },
    {
      "channel": 4,
      "note": 86,
      "start": 122.2317,
      "duration": 0.1249,
      "velocity": 102,
      "chip": "ym2612"
    },
    {
      "channel": 0,
      "note": 50,
      "start": 122.3065,
      "duration": 0.0112,
      "velocity": 109,
      "chip": "ym2612"
    },
    {
      "channel": 1,
      "note": 50,
      "start": 122.3084,
      "duration": 0.1232,
      "velocity": 108,
      "chip": "ym2612"
    },
    {
      "channel": 5,
      "note": 50,
      "start": 122.3211,
      "duration": 0.0103,
      "velocity": 109,
      "chip": "ym2612"
    },
    {
      "channel": 4,
      "note": 88,
      "start": 122.3834,
      "duration": 0.2893,
      "velocity": 102,
      "chip": "ym2612"
    },
    {
      "channel": 0,
      "note": 67,
      "start": 122.4582,
      "duration": 0.1376,
      "velocity": 109,
      "chip": "ym2612"
    },
    {
      "channel": 1,
      "note": 50,
      "start": 122.46,
      "duration": 0.136,
      "velocity": 108,
      "chip": "ym2612"
    },
    {
      "channel": 2,
      "note": 89,
      "start": 122.4619,
      "duration": 0.4508,
      "velocity": 102,
      "chip": "ym2612"
    },
    {
      "channel": 3,
      "note": 61,
      "start": 122.4671,
      "duration": 0.0532,
      "velocity": 127,
      "chip": "ym2612"
    },
    {
      "channel": 5,
      "note": 67,
      "start": 122.4846,
      "duration": 0.1249,
      "velocity": 109,
      "chip": "ym2612"
    },
    {
      "channel": 0,
      "note": 50,
      "start": 122.6225,
      "duration": 0.0112,
      "velocity": 109,
      "chip": "ym2612"
    },
    {
      "channel": 1,
      "note": 50,
      "start": 122.6243,
      "duration": 0.1232,
      "velocity": 108,
      "chip": "ym2612"
    },
    {
      "channel": 5,
      "note": 50,
      "start": 122.6371,
      "duration": 0.0102,
      "velocity": 109,
      "chip": "ym2612"
    },
    {
      "channel": 4,
      "note": 89,
      "start": 122.7002,
      "duration": 0.454,
      "velocity": 102,
      "chip": "ym2612"
    },
    {
      "channel": 0,
      "note": 65,
      "start": 122.7742,
      "duration": 0.1376,
      "velocity": 109,
      "chip": "ym2612"
    },
    {
      "channel": 1,
      "note": 50,
      "start": 122.7761,
      "duration": 0.1359,
      "velocity": 108,
      "chip": "ym2612"
    },
    {
      "channel": 3,
      "note": 61,
      "start": 122.783,
      "duration": 0.0542,
      "velocity": 127,
      "chip": "ym2612"
    },
    {
      "channel": 5,
      "note": 65,
      "start": 122.801,
      "duration": 0.1249,
      "velocity": 109,
      "chip": "ym2612"
    },
    {
      "channel": 0,
      "note": 50,
      "start": 122.9388,
      "duration": 0.289,
      "velocity": 109,
      "chip": "ym2612"
    },
    {
      "channel": 1,
      "note": 50,
      "start": 122.9409,
      "duration": 0.2871,
      "velocity": 108,
      "chip": "ym2612"
    },
    {
      "channel": 2,
      "note": 81,
      "start": 122.9466,
      "duration": 0.7366,
      "velocity": 102,
      "chip": "ym2612"
    },
    {
      "channel": 3,
      "note": 61,
      "start": 122.953,
      "duration": 0.0477,
      "velocity": 127,
      "chip": "ym2612"
    },
    {
      "channel": 5,
      "note": 50,
      "start": 122.9652,
      "duration": 0.2763,
      "velocity": 109,
      "chip": "ym2612"
    },
    {
      "channel": 4,
      "note": 81,
      "start": 123.1835,
      "duration": 0.7405,
      "velocity": 102,
      "chip": "ym2612"
    },
    {
      "channel": 0,
      "note": 50,
      "start": 123.2546,
      "duration": 0.0112,
      "velocity": 109,
      "chip": "ym2612"
    },
    {
      "channel": 1,
      "note": 50,
      "start": 123.2564,
      "duration": 0.1232,
      "velocity": 108,
      "chip": "ym2612"
    },
    {
      "channel": 5,
      "note": 50,
      "start": 123.2683,
      "duration": 0.0111,
      "velocity": 109,
      "chip": "ym2612"
    },
    {
      "channel": 0,
      "note": 65,
      "start": 123.4063,
      "duration": 0.1258,
      "velocity": 109,
      "chip": "ym2612"
    },
    {
      "channel": 1,
      "note": 50,
      "start": 123.408,
      "duration": 0.1242,
      "velocity": 108,
      "chip": "ym2612"
    },
    {
      "channel": 3,
      "note": 61,
      "start": 123.4135,
      "duration": 0.0423,
      "velocity": 127,
      "chip": "ym2612"
    },
    {
      "channel": 5,
      "note": 65,
      "start": 123.4208,
      "duration": 0.124,
      "velocity": 109,
      "chip": "ym2612"
    },
    {
      "channel": 0,
      "note": 50,
      "start": 123.5579,
      "duration": 0.0118,
      "velocity": 109,
      "chip": "ym2612"
    },
    {
      "channel": 1,
      "note": 50,
      "start": 123.5597,
      "duration": 0.1233,
      "velocity": 108,
      "chip": "ym2612"
    },
    {
      "channel": 5,
      "note": 50,
      "start": 123.5723,
      "duration": 0.0104,
      "velocity": 109,
      "chip": "ym2612"
    },
    {
      "channel": 0,
      "note": 64,
      "start": 123.7096,
      "duration": 0.1376,
      "velocity": 109,
      "chip": "ym2612"
    },
    {
      "channel": 1,
      "note": 50,
      "start": 123.7114,
      "duration": 0.136,
      "velocity": 108,
      "chip": "ym2612"
    },
    {
      "channel": 2,
      "note": 79,
      "start": 123.7132,
      "duration": 0.286,
      "velocity": 102,
      "chip": "ym2612"
    },
    {
      "channel": 3,
      "note": 61,
      "start": 123.7198,
      "duration": 0.052,
      "velocity": 127,
      "chip": "ym2612"
    },
    {
      "channel": 5,
      "note": 64,
      "start": 123.7367,
      "duration": 0.1241,
      "velocity": 109,
      "chip": "ym2612"
    },
    {
      "channel": 0,
      "note": 50,
      "start": 123.8739,
      "duration": 0.0112,
      "velocity": 109,
      "chip": "ym2612"
    },
    {
      "channel": 1,
      "note": 50,
      "start": 123.8757,
      "duration": 0.1232,
      "velocity": 108,
      "chip": "ym2612"
    },
    {
      "channel": 5,
      "note": 50,
      "start": 123.8886,
      "duration": 0.0102,
      "velocity": 109,
      "chip": "ym2612"
    },
    {
      "channel": 4,
      "note": 79,
      "start": 123.9516,
      "duration": 0.3015,
      "velocity": 102,
      "chip": "ym2612"
    },
    {
      "channel": 0,
      "note": 65,
      "start": 124.0256,
      "duration": 0.1376,
      "velocity": 109,
      "chip": "ym2612"
    },
    {
      "channel": 1,
      "note": 50,
      "start": 124.0274,
      "duration": 0.136,
      "velocity": 108,
      "chip": "ym2612"
    },
    {
      "channel": 2,
      "note": 77,
      "start": 124.0292,
      "duration": 0.1344,
      "velocity": 102,
      "chip": "ym2612"
    },
    {
      "channel": 3,
      "note": 61,
      "start": 124.0345,
      "duration": 0.0533,
      "velocity": 127,
      "chip": "ym2612"
    },
    {
      "channel": 5,
      "note": 65,
      "start": 124.052,
      "duration": 0.1249,
      "velocity": 109,
      "chip": "ym2612"
    },
    {
      "channel": 0,
      "note": 50,
      "start": 124.1902,
      "duration": 0.289,
      "velocity": 109,
      "chip": "ym2612"
    },
    {
      "channel": 1,
      "note": 50,
      "start": 124.1923,
      "duration": 0.2871,
      "velocity": 108,
      "chip": "ym2612"
    },
    {
      "channel": 2,
      "note": 81,
      "start": 124.1941,
      "duration": 0.1337,
      "velocity": 102,
      "chip": "ym2612"
    },
    {
      "channel": 3,
      "note": 61,
      "start": 124.1994,
      "duration": 0.0536,
      "velocity": 127,
      "chip": "ym2612"
    },
    {
      "channel": 5,
      "note": 50,
      "start": 124.2165,
      "duration": 0.2763,
      "velocity": 109,
      "chip": "ym2612"
    },
    {
      "channel": 4,
      "note": 77,
      "start": 124.2794,
      "duration": 0.1249,
      "velocity": 102,
      "chip": "ym2612"
    },
    {
      "channel": 4,
      "note": 81,
      "start": 124.4311,
      "duration": 0.1246,
      "velocity": 102,
      "chip": "ym2612"
    },
    {
      "channel": 0,
      "note": 50,
      "start": 124.5059,
      "duration": 0.0112,
      "velocity": 109,
      "chip": "ym2612"
    },
    {
      "channel": 1,
      "note": 50,
      "start": 124.5077,
      "duration": 0.1232,
      "velocity": 108,
      "chip": "ym2612"
    },
    {
      "channel": 2,
      "note": 74,
      "start": 124.5096,
      "duration": 0.88,
      "velocity": 102,
      "chip": "ym2612"
    },
    {
      "channel": 3,
      "note": 61,
      "start": 124.5117,
      "duration": 0.0438,
      "velocity": 127,
      "chip": "ym2612"
    },
    {
      "channel": 5,
      "note": 50,
      "start": 124.5205,
      "duration": 0.0098,
      "velocity": 109,
      "chip": "ym2612"
    },
    {
      "channel": 0,
      "note": 65,
      "start": 124.6576,
      "duration": 0.1258,
      "velocity": 109,
      "chip": "ym2612"
    },
    {
      "channel": 1,
      "note": 50,
      "start": 124.6594,
      "duration": 0.1242,
      "velocity": 108,
      "chip": "ym2612"
    },
    {
      "channel": 3,
      "note": 61,
      "start": 124.6649,
      "duration": 0.0423,
      "velocity": 127,
      "chip": "ym2612"
    },
    {
      "channel": 5,
      "note": 65,
      "start": 124.6723,
      "duration": 0.1239,
      "velocity": 109,
      "chip": "ym2612"
    },
    {
      "channel": 4,
      "note": 74,
      "start": 124.7344,
      "duration": 0.8959,
      "velocity": 102,
      "chip": "ym2612"
    },
    {
      "channel": 0,
      "note": 50,
      "start": 124.8093,
      "duration": 0.0112,
      "velocity": 109,
      "chip": "ym2612"
    },
    {
      "channel": 1,
      "note": 50,
      "start": 124.8111,
      "duration": 0.1232,
      "velocity": 108,
      "chip": "ym2612"
    },
    {
      "channel": 5,
      "note": 50,
      "start": 124.823,
      "duration": 0.0111,
      "velocity": 109,
      "chip": "ym2612"
    },
    {
      "channel": 0,
      "note": 64,
      "start": 124.961,
      "duration": 0.1254,
      "velocity": 109,
      "chip": "ym2612"
    },
    {
      "channel": 1,
      "note": 50,
      "start": 124.9627,
      "duration": 0.1238,
      "velocity": 108,
      "chip": "ym2612"
    },
    {
      "channel": 3,
      "note": 61,
      "start": 124.9683,
      "duration": 0.0422,
      "velocity": 127,
      "chip": "ym2612"
    },
    {
      "channel": 5,
      "note": 64,
      "start": 124.9747,
      "duration": 0.1248,
      "velocity": 109,
      "chip": "ym2612"
    },
    {
      "channel": 0,
      "note": 62,
      "start": 125.1126,
      "duration": 0.0112,
      "velocity": 109,
      "chip": "ym2612"
    },
    {
      "channel": 1,
      "note": 50,
      "start": 125.1145,
      "duration": 0.1232,
      "velocity": 108,
      "chip": "ym2612"
    },
    {
      "channel": 5,
      "note": 62,
      "start": 125.1264,
      "duration": 0.0111,
      "velocity": 109,
      "chip": "ym2612"
    },
    {
      "channel": 0,
      "note": 56,
      "start": 125.2643,
      "duration": 0.0112,
      "velocity": 109,
      "chip": "ym2612"
    },
    {
      "channel": 1,
      "note": 44,
      "start": 125.2661,
      "duration": 0.1233,
      "velocity": 108,
      "chip": "ym2612"
    },
    {
      "channel": 3,
      "note": 61,
      "start": 125.2723,
      "duration": 0.0415,
      "velocity": 127,
      "chip": "ym2612"
    },
    {
      "channel": 5,
      "note": 56,
      "start": 125.2781,
      "duration": 0.0106,
      "velocity": 109,
      "chip": "ym2612"
    },
    {
      "channel": 0,
      "note": 46,
      "start": 125.4163,
      "duration": 0.289,
      "velocity": 109,
      "chip": "ym2612"
    },
    {
      "channel": 1,
      "note": 46,
      "start": 125.4182,
      "duration": 0.2873,
      "velocity": 108,
      "chip": "ym2612"
    },
    {
      "channel": 2,
      "note": 81,
      "start": 125.4209,
      "duration": 0.2848,
      "velocity": 102,
      "chip": "ym2612"
    },
    {
      "channel": 3,
      "note": 61,
      "start": 125.4262,
      "duration": 0.0519,
      "velocity": 127,
      "chip": "ym2612"
    },
    {
      "channel": 5,
      "note": 46,
      "start": 125.4426,
      "duration": 0.2772,
      "velocity": 109,
      "chip": "ym2612"
    },
    {
      "channel": 4,
      "note": 81,
      "start": 125.6572,
      "duration": 0.2889,
      "velocity": 102,
      "chip": "ym2612"
    },
    {
      "channel": 0,
      "note": 46,
      "start": 125.732,
      "duration": 0.0112,
      "velocity": 109,
      "chip": "ym2612"
    },
    {
      "channel": 1,
      "note": 46,
      "start": 125.7338,
      "duration": 0.1232,
      "velocity": 108,
      "chip": "ym2612"
    },
    {
      "channel": 3,
      "note": 61,
      "start": 125.7369,
      "duration": 0.0447,
      "velocity": 127,
      "chip": "ym2612"
    },
    {
      "channel": 5,
      "note": 46,
      "start": 125.7458,
      "duration": 0.0106,
      "velocity": 109,
      "chip": "ym2612"
    },
    {
      "channel": 0,
      "note": 62,
      "start": 125.8837,
      "duration": 0.1381,
      "velocity": 109,
      "chip": "ym2612"
    },
    {
      "channel": 1,
      "note": 46,
      "start": 125.8863,
      "duration": 0.1356,
      "velocity": 108,
      "chip": "ym2612"
    },
    {
      "channel": 2,
      "note": 81,
      "start": 125.8881,
      "duration": 0.2852,
      "velocity": 102,
      "chip": "ym2612"
    },
    {
      "channel": 3,
      "note": 61,
      "start": 125.8935,
      "duration": 0.0524,
      "velocity": 127,
      "chip": "ym2612"
    },
    {
      "channel": 5,
      "note": 62,
      "start": 125.91,
      "duration": 0.1266,
      "velocity": 109,
      "chip": "ym2612"
    },
    {
      "channel": 0,
      "note": 46,
      "start": 126.048,
      "duration": 0.0112,
      "velocity": 109,
      "chip": "ym2612"
    },
    {
      "channel": 1,
      "note": 46,
      "start": 126.0498,
      "duration": 0.1232,
      "velocity": 108,
      "chip": "ym2612"
    },
    {
      "channel": 5,
      "note": 46,
      "start": 126.0617,
      "duration": 0.0111,
      "velocity": 109,
      "chip": "ym2612"
    },
    {
      "channel": 4,
      "note": 81,
      "start": 126.1248,
      "duration": 0.2892,
      "velocity": 102,
      "chip": "ym2612"
    },
    {
      "channel": 0,
      "note": 60,
      "start": 126.1997,
      "duration": 0.1375,
      "velocity": 109,
      "chip": "ym2612"
    },
    {
      "channel": 1,
      "note": 46,
      "start": 126.2015,
      "duration": 0.136,
      "velocity": 108,
      "chip": "ym2612"
    },
    {
      "channel": 2,
      "note": 79,
      "start": 126.2042,
      "duration": 0.2851,
      "velocity": 102,
      "chip": "ym2612"
    },
    {
      "channel": 3,
      "note": 61,
      "start": 126.2096,
      "duration": 0.0523,
      "velocity": 127,
      "chip": "ym2612"
    },
    {
      "channel": 5,
      "note": 60,
      "start": 126.2261,
      "duration": 0.1249,
      "velocity": 109,
      "chip": "ym2612"
    },
    {
      "channel": 0,
      "note": 46,
      "start": 126.364,
      "duration": 0.0112,
      "velocity": 109,
      "chip": "ym2612"
    },
    {
      "channel": 1,
      "note": 46,
      "start": 126.3658,
      "duration": 0.1232,
      "velocity": 108,
      "chip": "ym2612"
    },
    {
      "channel": 5,
      "note": 46,
      "start": 126.3778,
      "duration": 0.0111,
      "velocity": 109,
      "chip": "ym2612"
    },
    {
      "channel": 4,
      "note": 79,
      "start": 126.4413,
      "duration": 0.3011,
      "velocity": 102,
      "chip": "ym2612"
    },
    {
      "channel": 0,
      "note": 46,
      "start": 126.5157,
      "duration": 0.0239,
      "velocity": 109,
      "chip": "ym2612"
    },
    {
      "channel": 1,
      "note": 46,
      "start": 126.5175,
      "duration": 0.1359,
      "velocity": 108,
      "chip": "ym2612"
    },
    {
      "channel": 2,
      "note": 77,
      "start": 126.5201,
      "duration": 0.1334,
      "velocity": 102,
      "chip": "ym2612"
    },
    {
      "channel": 3,
      "note": 61,
      "start": 126.5254,
      "duration": 0.0525,
      "velocity": 127,
      "chip": "ym2612"
    },
    {
      "channel": 5,
      "note": 46,
      "start": 126.5421,
      "duration": 0.0116,
      "velocity": 109,
      "chip": "ym2612"
    },
    {
      "channel": 0,
      "note": 48,
      "start": 126.6803,
      "duration": 0.2894,
      "velocity": 109,
      "chip": "ym2612"
    },
    {
      "channel": 1,
      "note": 48,
      "start": 126.6823,
      "duration": 0.2876,
      "velocity": 108,
      "chip": "ym2612"
    },
    {
      "channel": 2,
      "note": 76,
      "start": 126.6842,
      "duration": 0.4371,
      "velocity": 102,
      "chip": "ym2612"
    },
    {
      "channel": 3,
      "note": 61,
      "start": 126.6904,
      "duration": 0.0518,
      "velocity": 127,
      "chip": "ym2612"
    },
    {
      "channel": 5,
      "note": 48,
      "start": 126.7066,
      "duration": 0.2763,
      "velocity": 109,
      "chip": "ym2612"
    },
    {
      "channel": 4,
      "note": 77,
      "start": 126.7703,
      "duration": 0.124,
      "velocity": 102,
      "chip": "ym2612"
    },
    {
      "channel": 4,
      "note": 76,
      "start": 126.922,
      "duration": 0.44,
      "velocity": 102,
      "chip": "ym2612"
    },
    {
      "channel": 0,
      "note": 48,
      "start": 126.996,
      "duration": 0.0112,
      "velocity": 109,
      "chip": "ym2612"
    },
    {
      "channel": 1,
      "note": 48,
      "start": 126.9978,
      "duration": 0.1233,
      "velocity": 108,
      "chip": "ym2612"
    },
    {
      "channel": 3,
      "note": 61,
      "start": 127.0001,
      "duration": 0.0455,
      "velocity": 127,
      "chip": "ym2612"
    },
    {
      "channel": 5,
      "note": 48,
      "start": 127.0098,
      "duration": 0.0107,
      "velocity": 109,
      "chip": "ym2612"
    },
    {
      "channel": 0,
      "note": 64,
      "start": 127.1477,
      "duration": 0.1394,
      "velocity": 109,
      "chip": "ym2612"
    },
    {
      "channel": 1,
      "note": 48,
      "start": 127.1495,
      "duration": 0.1378,
      "velocity": 108,
      "chip": "ym2612"
    },
    {
      "channel": 2,
      "note": 77,
      "start": 127.1513,
      "duration": 0.4378,
      "velocity": 102,
      "chip": "ym2612"
    },
    {
      "channel": 3,
      "note": 61,
      "start": 127.1574,
      "duration": 0.0525,
      "velocity": 127,
      "chip": "ym2612"
    },
    {
      "channel": 5,
      "note": 64,
      "start": 127.174,
      "duration": 0.1249,
      "velocity": 109,
      "chip": "ym2612"
    },
    {
      "channel": 0,
      "note": 48,
      "start": 127.312,
      "duration": 0.0112,
      "velocity": 109,
      "chip": "ym2612"
    },
    {
      "channel": 1,
      "note": 48,
      "start": 127.3138,
      "duration": 0.1232,
      "velocity": 108,
      "chip": "ym2612"
    },
    {
      "channel": 5,
      "note": 48,
      "start": 127.3258,
      "duration": 0.0116,
      "velocity": 109,
      "chip": "ym2612"
    },
    {
      "channel": 4,
      "note": 77,
      "start": 127.3888,
      "duration": 0.428,
      "velocity": 102,
      "chip": "ym2612"
    },
    {
      "channel": 0,
      "note": 62,
      "start": 127.4637,
      "duration": 0.1249,
      "velocity": 109,
      "chip": "ym2612"
    },
    {
      "channel": 1,
      "note": 48,
      "start": 127.4655,
      "duration": 0.1234,
      "velocity": 108,
      "chip": "ym2612"
    },
    {
      "channel": 3,
      "note": 61,
      "start": 127.4682,
      "duration": 0.0451,
      "velocity": 127,
      "chip": "ym2612"
    },
    {
      "channel": 5,
      "note": 62,
      "start": 127.4774,
      "duration": 0.1258,
      "velocity": 109,
      "chip": "ym2612"
    },
    {
      "channel": 0,
      "note": 48,
      "start": 127.6154,
      "duration": 0.0112,
      "velocity": 109,
      "chip": "ym2612"
    },
    {
      "channel": 1,
      "note": 48,
      "start": 127.6172,
      "duration": 0.1232,
      "velocity": 108,
      "chip": "ym2612"
    },
    {
      "channel": 2,
      "note": 79,
      "start": 127.6198,
      "duration": 0.2725,
      "velocity": 102,
      "chip": "ym2612"
    },
    {
      "channel": 3,
      "note": 61,
      "start": 127.6219,
      "duration": 0.043,
      "velocity": 127,
      "chip": "ym2612"
    },
    {
      "channel": 5,
      "note": 48,
      "start": 127.6292,
      "duration": 0.0106,
      "velocity": 109,
      "chip": "ym2612"
    },
    {
      "channel": 0,
      "note": 48,
      "start": 127.767,
      "duration": 0.0113,
      "velocity": 109,
      "chip": "ym2612"
    },
    {
      "channel": 1,
      "note": 48,
      "start": 127.7697,
      "duration": 0.1224,
      "velocity": 108,
      "chip": "ym2612"
    },
    {
      "channel": 3,
      "note": 61,
      "start": 127.7719,
      "duration": 0.0447,
      "velocity": 127,
      "chip": "ym2612"
    },
    {
      "channel": 5,
      "note": 48,
      "start": 127.7808,
      "duration": 0.0107,
      "velocity": 109,
      "chip": "ym2612"
    },
    {
      "channel": 4,
      "note": 79,
      "start": 127.8439,
      "duration": 0.2893,
      "velocity": 102,
      "chip": "ym2612"
    },
    {
      "channel": 0,
      "note": 50,
      "start": 127.9198,
      "duration": 0.2882,
      "velocity": 109,
      "chip": "ym2612"
    },
    {
      "channel": 1,
      "note": 50,
      "start": 127.9219,
      "duration": 0.2863,
      "velocity": 108,
      "chip": "ym2612"
    },
    {
      "channel": 2,
      "note": 81,
      "start": 127.9241,
      "duration": 0.7393,
      "velocity": 102,
      "chip": "ym2612"
    },
    {
      "channel": 3,
      "note": 61,
      "start": 127.9297,
      "duration": 0.0513,
      "velocity": 127,
      "chip": "ym2612"
    },
    {
      "channel": 5,
      "note": 50,
      "start": 127.9454,
      "duration": 0.2763,
      "velocity": 109,
      "chip": "ym2612"
    },
    {
      "channel": 4,
      "note": 81,
      "start": 128.1601,
      "duration": 0.7444,
      "velocity": 102,
      "chip": "ym2612"
    },
    {
      "channel": 0,
      "note": 50,
      "start": 128.2348,
      "duration": 0.0111,
      "velocity": 109,
      "chip": "ym2612"
    },
    {
      "channel": 1,
      "note": 50,
      "start": 128.2374,
      "duration": 0.1224,
      "velocity": 108,
      "chip": "ym2612"
    },
    {
      "channel": 5,
      "note": 50,
      "start": 128.2485,
      "duration": 0.0111,
      "velocity": 109,
      "chip": "ym2612"
    },
    {
      "channel": 0,
      "note": 65,
      "start": 128.3872,
      "duration": 0.1244,
      "velocity": 109,
      "chip": "ym2612"
    },
    {
      "channel": 1,
      "note": 50,
      "start": 128.3891,
      "duration": 0.1228,
      "velocity": 108,
      "chip": "ym2612"
    },
    {
      "channel": 3,
      "note": 61,
      "start": 128.3945,
      "duration": 0.0424,
      "velocity": 127,
      "chip": "ym2612"
    },
    {
      "channel": 5,
      "note": 65,
      "start": 128.4002,
      "duration": 0.1254,
      "velocity": 109,
      "chip": "ym2612"
    },
    {
      "channel": 0,
      "note": 50,
      "start": 128.539,
      "duration": 0.0103,
      "velocity": 109,
      "chip": "ym2612"
    },
    {
      "channel": 1,
      "note": 50,
      "start": 128.5408,
      "duration": 0.1223,
      "velocity": 108,
      "chip": "ym2612"
    },
    {
      "channel": 5,
      "note": 50,
      "start": 128.5519,
      "duration": 0.0111,
      "velocity": 109,
      "chip": "ym2612"
    },
    {
      "channel": 0,
      "note": 64,
      "start": 128.6898,
      "duration": 0.1376,
      "velocity": 109,
      "chip": "ym2612"
    },
    {
      "channel": 1,
      "note": 50,
      "start": 128.6916,
      "duration": 0.136,
      "velocity": 108,
      "chip": "ym2612"
    },
    {
      "channel": 2,
      "note": 79,
      "start": 128.6934,
      "duration": 0.286,
      "velocity": 102,
      "chip": "ym2612"
    },
    {
      "channel": 3,
      "note": 61,
      "start": 128.6991,
      "duration": 0.0529,
      "velocity": 127,
      "chip": "ym2612"
    },
    {
      "channel": 5,
      "note": 64,
      "start": 128.7161,
      "duration": 0.1249,
      "velocity": 109,
      "chip": "ym2612"
    },
    {
      "channel": 0,
      "note": 50,
      "start": 128.8545,
      "duration": 0.0108,
      "velocity": 109,
      "chip": "ym2612"
    },
    {
      "channel": 1,
      "note": 50,
      "start": 128.8563,
      "duration": 0.1229,
      "velocity": 108,
      "chip": "ym2612"
    },
    {
      "channel": 5,
      "note": 50,
      "start": 128.8678,
      "duration": 0.0111,
      "velocity": 109,
      "chip": "ym2612"
    },
    {
      "channel": 4,
      "note": 79,
      "start": 128.931,
      "duration": 0.3015,
      "velocity": 102,
      "chip": "ym2612"
    },
    {
      "channel": 0,
      "note": 65,
      "start": 129.0058,
      "duration": 0.1375,
      "velocity": 109,
      "chip": "ym2612"
    },
    {
      "channel": 1,
      "note": 50,
      "start": 129.0076,
      "duration": 0.136,
      "velocity": 108,
      "chip": "ym2612"
    },
    {
      "channel": 2,
      "note": 77,
      "start": 129.0095,
      "duration": 0.1343,
      "velocity": 102,
      "chip": "ym2612"
    },
    {
      "channel": 3,
      "note": 61,
      "start": 129.0147,
      "duration": 0.0532,
      "velocity": 127,
      "chip": "ym2612"
    },
    {
      "channel": 5,
      "note": 65,
      "start": 129.0321,
      "duration": 0.1249,
      "velocity": 109,
      "chip": "ym2612"
    },
    {
      "channel": 0,
      "note": 50,
      "start": 129.1712,
      "duration": 0.2882,
      "velocity": 109,
      "chip": "ym2612"
    },
    {
      "channel": 1,
      "note": 50,
      "start": 129.1733,
      "duration": 0.2863,
      "velocity": 108,
      "chip": "ym2612"
    },
    {
      "channel": 2,
      "note": 81,
      "start": 129.1751,
      "duration": 0.1328,
      "velocity": 102,
      "chip": "ym2612"
    },
    {
      "channel": 3,
      "note": 61,
      "start": 129.1804,
      "duration": 0.0519,
      "velocity": 127,
      "chip": "ym2612"
    },
    {
      "channel": 5,
      "note": 50,
      "start": 129.1967,
      "duration": 0.2763,
      "velocity": 109,
      "chip": "ym2612"
    },
    {
      "channel": 4,
      "note": 77,
      "start": 129.2596,
      "duration": 0.1249,
      "velocity": 102,
      "chip": "ym2612"
    },
    {
      "channel": 4,
      "note": 81,
      "start": 129.4112,
      "duration": 0.1256,
      "velocity": 102,
      "chip": "ym2612"
    },
    {
      "channel": 0,
      "note": 50,
      "start": 129.4869,
      "duration": 0.0104,
      "velocity": 109,
      "chip": "ym2612"
    },
    {
      "channel": 1,
      "note": 50,
      "start": 129.4888,
      "duration": 0.1224,
      "velocity": 108,
      "chip": "ym2612"
    },
    {
      "channel": 2,
      "note": 74,
      "start": 129.4906,
      "duration": 0.8795,
      "velocity": 102,
      "chip": "ym2612"
    },
    {
      "channel": 3,
      "note": 61,
      "start": 129.4927,
      "duration": 0.0438,
      "velocity": 127,
      "chip": "ym2612"
    },
    {
      "channel": 5,
      "note": 50,
      "start": 129.4999,
      "duration": 0.0106,
      "velocity": 109,
      "chip": "ym2612"
    },
    {
      "channel": 0,
      "note": 65,
      "start": 129.6379,
      "duration": 0.125,
      "velocity": 109,
      "chip": "ym2612"
    },
    {
      "channel": 1,
      "note": 50,
      "start": 129.6397,
      "duration": 0.1234,
      "velocity": 108,
      "chip": "ym2612"
    },
    {
      "channel": 3,
      "note": 61,
      "start": 129.6451,
      "duration": 0.0422,
      "velocity": 127,
      "chip": "ym2612"
    },
    {
      "channel": 5,
      "note": 65,
      "start": 129.6517,
      "duration": 0.1253,
      "velocity": 109,
      "chip": "ym2612"
    },
    {
      "channel": 4,
      "note": 74,
      "start": 129.7146,
      "duration": 0.8966,
      "velocity": 102,
      "chip": "ym2612"
    },
    {
      "channel": 0,
      "note": 50,
      "start": 129.7904,
      "duration": 0.0103,
      "velocity": 109,
      "chip": "ym2612"
    },
    {
      "channel": 1,
      "note": 50,
      "start": 129.7921,
      "duration": 0.1224,
      "velocity": 108,
      "chip": "ym2612"
    },
    {
      "channel": 5,
      "note": 50,
      "start": 129.8041,
      "duration": 0.0102,
      "velocity": 109,
      "chip": "ym2612"
    },
    {
      "channel": 0,
      "note": 64,
      "start": 129.9412,
      "duration": 0.1249,
      "velocity": 109,
      "chip": "ym2612"
    },
    {
      "channel": 1,
      "note": 50,
      "start": 129.943,
      "duration": 0.1234,
      "velocity": 108,
      "chip": "ym2612"
    },
    {
      "channel": 3,
      "note": 61,
      "start": 129.9486,
      "duration": 0.0422,
      "velocity": 127,
      "chip": "ym2612"
    },
    {
      "channel": 5,
      "note": 64,
      "start": 129.9556,
      "duration": 0.1241,
      "velocity": 109,
      "chip": "ym2612"
    },
    {
      "channel": 0,
      "note": 62,
      "start": 130.0928,
      "duration": 0.0112,
      "velocity": 109,
      "chip": "ym2612"
    },
    {
      "channel": 1,
      "note": 50,
      "start": 130.0946,
      "duration": 0.1233,
      "velocity": 108,
      "chip": "ym2612"
    },
    {
      "channel": 5,
      "note": 62,
      "start": 130.1066,
      "duration": 0.0111,
      "velocity": 109,
      "chip": "ym2612"
    },
    {
      "channel": 0,
      "note": 56,
      "start": 130.2445,
      "duration": 0.0112,
      "velocity": 109,
      "chip": "ym2612"
    },
    {
      "channel": 1,
      "note": 44,
      "start": 130.2463,
      "duration": 0.1235,
      "velocity": 108,
      "chip": "ym2612"
    },
    {
      "channel": 3,
      "note": 61,
      "start": 130.2517,
      "duration": 0.0424,
      "velocity": 127,
      "chip": "ym2612"
    },
    {
      "channel": 5,
      "note": 56,
      "start": 130.2582,
      "duration": 0.0115,
      "velocity": 109,
      "chip": "ym2612"
    },
    {
      "channel": 0,
      "note": 46,
      "start": 130.3965,
      "duration": 0.2899,
      "velocity": 109,
      "chip": "ym2612"
    },
    {
      "channel": 1,
      "note": 46,
      "start": 130.3984,
      "duration": 0.2882,
      "velocity": 108,
      "chip": "ym2612"
    },
    {
      "channel": 2,
      "note": 81,
      "start": 130.4003,
      "duration": 0.2865,
      "velocity": 102,
      "chip": "ym2612"
    },
    {
      "channel": 3,
      "note": 61,
      "start": 130.4064,
      "duration": 0.052,
      "velocity": 127,
      "chip": "ym2612"
    },
    {
      "channel": 5,
      "note": 46,
      "start": 130.4228,
      "duration": 0.2763,
      "velocity": 109,
      "chip": "ym2612"
    },
    {
      "channel": 4,
      "note": 81,
      "start": 130.6382,
      "duration": 0.288,
      "velocity": 102,
      "chip": "ym2612"
    },
    {
      "channel": 0,
      "note": 46,
      "start": 130.7122,
      "duration": 0.0112,
      "velocity": 109,
      "chip": "ym2612"
    },
    {
      "channel": 1,
      "note": 46,
      "start": 130.714,
      "duration": 0.1232,
      "velocity": 108,
      "chip": "ym2612"
    },
    {
      "channel": 3,
      "note": 61,
      "start": 130.7163,
      "duration": 0.0455,
      "velocity": 127,
      "chip": "ym2612"
    },
    {
      "channel": 5,
      "note": 46,
      "start": 130.726,
      "duration": 0.011,
      "velocity": 109,
      "chip": "ym2612"
    },
    {
      "channel": 0,
      "note": 62,
      "start": 130.8639,
      "duration": 0.1376,
      "velocity": 109,
      "chip": "ym2612"
    },
    {
      "channel": 1,
      "note": 46,
      "start": 130.8657,
      "duration": 0.136,
      "velocity": 108,
      "chip": "ym2612"
    },
    {
      "channel": 2,
      "note": 81,
      "start": 130.8675,
      "duration": 0.2859,
      "velocity": 102,
      "chip": "ym2612"
    },
    {
      "channel": 3,
      "note": 61,
      "start": 130.8736,
      "duration": 0.0524,
      "velocity": 127,
      "chip": "ym2612"
    },
    {
      "channel": 5,
      "note": 62,
      "start": 130.8902,
      "duration": 0.125,
      "velocity": 109,
      "chip": "ym2612"
    },
    {
      "channel": 0,
      "note": 46,
      "start": 131.0287,
      "duration": 0.0116,
      "velocity": 109,
      "chip": "ym2612"
    },
    {
      "channel": 1,
      "note": 46,
      "start": 131.0305,
      "duration": 0.1228,
      "velocity": 108,
      "chip": "ym2612"
    },
    {
      "channel": 5,
      "note": 46,
      "start": 131.0428,
      "duration": 0.0111,
      "velocity": 109,
      "chip": "ym2612"
    },
    {
      "channel": 4,
      "note": 81,
      "start": 131.1054,
      "duration": 0.2887,
      "velocity": 102,
      "chip": "ym2612"
    },
    {
      "channel": 0,
      "note": 60,
      "start": 131.1799,
      "duration": 0.1376,
      "velocity": 109,
      "chip": "ym2612"
    },
    {
      "channel": 1,
      "note": 46,
      "start": 131.1817,
      "duration": 0.136,
      "velocity": 108,
      "chip": "ym2612"
    },
    {
      "channel": 2,
      "note": 79,
      "start": 131.1835,
      "duration": 0.2874,
      "velocity": 102,
      "chip": "ym2612"
    },
    {
      "channel": 3,
      "note": 61,
      "start": 131.1897,
      "duration": 0.0524,
      "velocity": 127,
      "chip": "ym2612"
    },
    {
      "channel": 5,
      "note": 60,
      "start": 131.2062,
      "duration": 0.1249,
      "velocity": 109,
      "chip": "ym2612"
    },
    {
      "channel": 0,
      "note": 46,
      "start": 131.3442,
      "duration": 0.0112,
      "velocity": 109,
      "chip": "ym2612"
    },
    {
      "channel": 1,
      "note": 46,
      "start": 131.346,
      "duration": 0.1247,
      "velocity": 108,
      "chip": "ym2612"
    },
    {
      "channel": 5,
      "note": 46,
      "start": 131.358,
      "duration": 0.0119,
      "velocity": 109,
      "chip": "ym2612"
    },
    {
      "channel": 4,
      "note": 79,
      "start": 131.4219,
      "duration": 0.3007,
      "velocity": 102,
      "chip": "ym2612"
    },
    {
      "channel": 0,
      "note": 46,
      "start": 131.4958,
      "duration": 0.0239,
      "velocity": 109,
      "chip": "ym2612"
    },
    {
      "channel": 1,
      "note": 46,
      "start": 131.4977,
      "duration": 0.1359,
      "velocity": 108,
      "chip": "ym2612"
    },
    {
      "channel": 2,
      "note": 77,
      "start": 131.4995,
      "duration": 0.1344,
      "velocity": 102,
      "chip": "ym2612"
    },
    {
      "channel": 3,
      "note": 61,
      "start": 131.5056,
      "duration": 0.0525,
      "velocity": 127,
      "chip": "ym2612"
    },
    {
      "channel": 5,
      "note": 46,
      "start": 131.5223,
      "duration": 0.0106,
      "velocity": 109,
      "chip": "ym2612"
    },
    {
      "channel": 0,
      "note": 48,
      "start": 131.6605,
      "duration": 0.289,
      "velocity": 109,
      "chip": "ym2612"
    },
    {
      "channel": 1,
      "note": 48,
      "start": 131.6626,
      "duration": 0.2871,
      "velocity": 108,
      "chip": "ym2612"
    },
    {
      "channel": 2,
      "note": 76,
      "start": 131.6644,
      "duration": 0.4371,
      "velocity": 102,
      "chip": "ym2612"
    },
    {
      "channel": 3,
      "note": 61,
      "start": 131.6705,
      "duration": 0.0519,
      "velocity": 127,
      "chip": "ym2612"
    },
    {
      "channel": 5,
      "note": 48,
      "start": 131.6876,
      "duration": 0.2755,
      "velocity": 109,
      "chip": "ym2612"
    },
    {
      "channel": 4,
      "note": 77,
      "start": 131.7497,
      "duration": 0.1255,
      "velocity": 102,
      "chip": "ym2612"
    },
    {
      "channel": 3,
      "note": 61,
      "start": 131.8285,
      "duration": 0.0464,
      "velocity": 127,
      "chip": "ym2612"
    },
    {
      "channel": 4,
      "note": 76,
      "start": 131.9014,
      "duration": 0.4408,
      "velocity": 102,
      "chip": "ym2612"
    },
    {
      "channel": 0,
      "note": 48,
      "start": 131.9762,
      "duration": 0.0112,
      "velocity": 109,
      "chip": "ym2612"
    },
    {
      "channel": 1,
      "note": 48,
      "start": 131.978,
      "duration": 0.1232,
      "velocity": 108,
      "chip": "ym2612"
    },
    {
      "channel": 3,
      "note": 61,
      "start": 131.9802,
      "duration": 0.0455,
      "velocity": 127,
      "chip": "ym2612"
    },
    {
      "channel": 5,
      "note": 48,
      "start": 131.99,
      "duration": 0.0106,
      "velocity": 109,
      "chip": "ym2612"
    },
    {
      "channel": 0,
      "note": 64,
      "start": 132.1279,
      "duration": 0.1377,
      "velocity": 109,
      "chip": "ym2612"
    },
    {
      "channel": 1,
      "note": 48,
      "start": 132.1297,
      "duration": 0.1361,
      "velocity": 108,
      "chip": "ym2612"
    },
    {
      "channel": 2,
      "note": 77,
      "start": 132.1315,
      "duration": 0.4386,
      "velocity": 102,
      "chip": "ym2612"
    },
    {
      "channel": 3,
      "note": 61,
      "start": 132.1376,
      "duration": 0.0524,
      "velocity": 127,
      "chip": "ym2612"
    },
    {
      "channel": 5,
      "note": 64,
      "start": 132.1551,
      "duration": 0.1245,
      "velocity": 109,
      "chip": "ym2612"
    },
    {
      "channel": 0,
      "note": 48,
      "start": 132.2931,
      "duration": 0.0103,
      "velocity": 109,
      "chip": "ym2612"
    },
    {
      "channel": 1,
      "note": 48,
      "start": 132.2949,
      "duration": 0.1223,
      "velocity": 108,
      "chip": "ym2612"
    },
    {
      "channel": 5,
      "note": 48,
      "start": 132.3059,
      "duration": 0.0111,
      "velocity": 109,
      "chip": "ym2612"
    },
    {
      "channel": 4,
      "note": 77,
      "start": 132.3698,
      "duration": 0.4272,
      "velocity": 102,
      "chip": "ym2612"
    },
    {
      "channel": 0,
      "note": 62,
      "start": 132.4439,
      "duration": 0.1258,
      "velocity": 109,
      "chip": "ym2612"
    },
    {
      "channel": 1,
      "note": 48,
      "start": 132.4457,
      "duration": 0.1242,
      "velocity": 108,
      "chip": "ym2612"
    },
    {
      "channel": 3,
      "note": 61,
      "start": 132.4514,
      "duration": 0.042,
      "velocity": 127,
      "chip": "ym2612"
    },
    {
      "channel": 5,
      "note": 62,
      "start": 132.4577,
      "duration": 0.1247,
      "velocity": 109,
      "chip": "ym2612"
    },
    {
      "channel": 0,
      "note": 48,
      "start": 132.5956,
      "duration": 0.0112,
      "velocity": 109,
      "chip": "ym2612"
    },
    {
      "channel": 1,
      "note": 48,
      "start": 132.5974,
      "duration": 0.1233,
      "velocity": 108,
      "chip": "ym2612"
    },
    {
      "channel": 2,
      "note": 79,
      "start": 132.5992,
      "duration": 0.2733,
      "velocity": 102,
      "chip": "ym2612"
    },
    {
      "channel": 3,
      "note": 61,
      "start": 132.6013,
      "duration": 0.0438,
      "velocity": 127,
      "chip": "ym2612"
    },
    {
      "channel": 5,
      "note": 48,
      "start": 132.6093,
      "duration": 0.011,
      "velocity": 109,
      "chip": "ym2612"
    },
    {
      "channel": 0,
      "note": 48,
      "start": 132.7472,
      "duration": 0.0112,
      "velocity": 109,
      "chip": "ym2612"
    },
    {
      "channel": 1,
      "note": 48,
      "start": 132.749,
      "duration": 0.1233,
      "velocity": 108,
      "chip": "ym2612"
    },
    {
      "channel": 3,
      "note": 61,
      "start": 132.7512,
      "duration": 0.0455,
      "velocity": 127,
      "chip": "ym2612"
    },
    {
      "channel": 5,
      "note": 48,
      "start": 132.761,
      "duration": 0.0106,
      "velocity": 109,
      "chip": "ym2612"
    },
    {
      "channel": 4,
      "note": 79,
      "start": 132.8241,
      "duration": 0.2898,
      "velocity": 102,
      "chip": "ym2612"
    },
    {
      "channel": 0,
      "note": 50,
      "start": 132.8992,
      "duration": 0.289,
      "velocity": 109,
      "chip": "ym2612"
    },
    {
      "channel": 1,
      "note": 50,
      "start": 132.9013,
      "duration": 0.2871,
      "velocity": 108,
      "chip": "ym2612"
    },
    {
      "channel": 2,
      "note": 77,
      "start": 132.9042,
      "duration": 4.7589,
      "velocity": 102,
      "chip": "ym2612"
    },
    {
      "channel": 3,
      "note": 61,
      "start": 132.9098,
      "duration": 0.0513,
      "velocity": 127,
      "chip": "ym2612"
    },
    {
      "channel": 5,
      "note": 50,
      "start": 132.9255,
      "duration": 0.2763,
      "velocity": 109,
      "chip": "ym2612"
    },
    {
      "channel": 4,
      "note": 77,
      "start": 133.1404,
      "duration": 4.7634,
      "velocity": 102,
      "chip": "ym2612"
    },
    {
      "channel": 0,
      "note": 50,
      "start": 133.2149,
      "duration": 0.0112,
      "velocity": 109,
      "chip": "ym2612"
    },
    {
      "channel": 1,
      "note": 50,
      "start": 133.2168,
      "duration": 0.1232,
      "velocity": 108,
      "chip": "ym2612"
    },
    {
      "channel": 5,
      "note": 50,
      "start": 133.2287,
      "duration": 0.0111,
      "velocity": 109,
      "chip": "ym2612"
    },
    {
      "channel": 0,
      "note": 65,
      "start": 133.3666,
      "duration": 0.1249,
      "velocity": 109,
      "chip": "ym2612"
    },
    {
      "channel": 1,
      "note": 50,
      "start": 133.3684,
      "duration": 0.1234,
      "velocity": 108,
      "chip": "ym2612"
    },
    {
      "channel": 3,
      "note": 61,
      "start": 133.3748,
      "duration": 0.0414,
      "velocity": 127,
      "chip": "ym2612"
    },
    {
      "channel": 5,
      "note": 65,
      "start": 133.3804,
      "duration": 0.1248,
      "velocity": 109,
      "chip": "ym2612"
    },
    {
      "channel": 0,
      "note": 50,
      "start": 133.5184,
      "duration": 0.0118,
      "velocity": 109,
      "chip": "ym2612"
    },
    {
      "channel": 1,
      "note": 50,
      "start": 133.5211,
      "duration": 0.1223,
      "velocity": 108,
      "chip": "ym2612"
    },
    {
      "channel": 5,
      "note": 50,
      "start": 133.5328,
      "duration": 0.0112,
      "velocity": 109,
      "chip": "ym2612"
    },
    {
      "channel": 0,
      "note": 64,
      "start": 133.6708,
      "duration": 0.1241,
      "velocity": 109,
      "chip": "ym2612"
    },
    {
      "channel": 1,
      "note": 50,
      "start": 133.6726,
      "duration": 0.1225,
      "velocity": 108,
      "chip": "ym2612"
    },
    {
      "channel": 3,
      "note": 61,
      "start": 133.6785,
      "duration": 0.0417,
      "velocity": 127,
      "chip": "ym2612"
    },
    {
      "channel": 5,
      "note": 64,
      "start": 133.6837,
      "duration": 0.1249,
      "velocity": 109,
      "chip": "ym2612"
    },
    {
      "channel": 0,
      "note": 50,
      "start": 133.8217,
      "duration": 0.0112,
      "velocity": 109,
      "chip": "ym2612"
    },
    {
      "channel": 1,
      "note": 50,
      "start": 133.8235,
      "duration": 0.1237,
      "velocity": 108,
      "chip": "ym2612"
    },
    {
      "channel": 5,
      "note": 50,
      "start": 133.8362,
      "duration": 0.0102,
      "velocity": 109,
      "chip": "ym2612"
    },
    {
      "channel": 0,
      "note": 65,
      "start": 133.9733,
      "duration": 0.125,
      "velocity": 109,
      "chip": "ym2612"
    },
    {
      "channel": 1,
      "note": 50,
      "start": 133.9751,
      "duration": 0.1234,
      "velocity": 108,
      "chip": "ym2612"
    },
    {
      "channel": 3,
      "note": 61,
      "start": 133.9806,
      "duration": 0.0423,
      "velocity": 127,
      "chip": "ym2612"
    },
    {
      "channel": 5,
      "note": 65,
      "start": 133.9879,
      "duration": 0.124,
      "velocity": 109,
      "chip": "ym2612"
    },
    {
      "channel": 0,
      "note": 67,
      "start": 134.1253,
      "duration": 0.2763,
      "velocity": 109,
      "chip": "ym2612"
    },
    {
      "channel": 1,
      "note": 50,
      "start": 134.1274,
      "duration": 0.2745,
      "velocity": 108,
      "chip": "ym2612"
    },
    {
      "channel": 5,
      "note": 67,
      "start": 134.1396,
      "duration": 0.2761,
      "velocity": 109,
      "chip": "ym2612"
    },
    {
      "channel": 3,
      "note": 61,
      "start": 134.2813,
      "duration": 0.045,
      "velocity": 127,
      "chip": "ym2612"
    },
    {
      "channel": 0,
      "note": 50,
      "start": 134.4284,
      "duration": 0.0112,
      "velocity": 109,
      "chip": "ym2612"
    },
    {
      "channel": 1,
      "note": 50,
      "start": 134.4302,
      "duration": 0.1233,
      "velocity": 108,
      "chip": "ym2612"
    },
    {
      "channel": 5,
      "note": 50,
      "start": 134.4426,
      "duration": 0.0119,
      "velocity": 109,
      "chip": "ym2612"
    },
    {
      "channel": 0,
      "note": 65,
      "start": 134.58,
      "duration": 0.1376,
      "velocity": 109,
      "chip": "ym2612"
    },
    {
      "channel": 1,
      "note": 50,
      "start": 134.5819,
      "duration": 0.1359,
      "velocity": 108,
      "chip": "ym2612"
    },
    {
      "channel": 3,
      "note": 61,
      "start": 134.5881,
      "duration": 0.0541,
      "velocity": 127,
      "chip": "ym2612"
    },
    {
      "channel": 5,
      "note": 65,
      "start": 134.6064,
      "duration": 0.1249,
      "velocity": 109,
      "chip": "ym2612"
    },
    {
      "channel": 0,
      "note": 50,
      "start": 134.7444,
      "duration": 0.0112,
      "velocity": 109,
      "chip": "ym2612"
    },
    {
      "channel": 1,
      "note": 50,
      "start": 134.7462,
      "duration": 0.1236,
      "velocity": 108,
      "chip": "ym2612"
    },
    {
      "channel": 5,
      "note": 50,
      "start": 134.7581,
      "duration": 0.012,
      "velocity": 109,
      "chip": "ym2612"
    },
    {
      "channel": 0,
      "note": 64,
      "start": 134.8961,
      "duration": 0.1376,
      "velocity": 109,
      "chip": "ym2612"
    },
    {
      "channel": 1,
      "note": 50,
      "start": 134.8979,
      "duration": 0.136,
      "velocity": 108,
      "chip": "ym2612"
    },
    {
      "channel": 3,
      "note": 61,
      "start": 134.9047,
      "duration": 0.0536,
      "velocity": 127,
      "chip": "ym2612"
    },
    {
      "channel": 5,
      "note": 64,
      "start": 134.9224,
      "duration": 0.1249,
      "velocity": 109,
      "chip": "ym2612"
    },
    {
      "channel": 0,
      "note": 50,
      "start": 135.0604,
      "duration": 0.0112,
      "velocity": 109,
      "chip": "ym2612"
    },
    {
      "channel": 1,
      "note": 50,
      "start": 135.0622,
      "duration": 0.1242,
      "velocity": 108,
      "chip": "ym2612"
    },
    {
      "channel": 5,
      "note": 50,
      "start": 135.0741,
      "duration": 0.0111,
      "velocity": 109,
      "chip": "ym2612"
    },
    {
      "channel": 0,
      "note": 65,
      "start": 135.2129,
      "duration": 0.1367,
      "velocity": 109,
      "chip": "ym2612"
    },
    {
      "channel": 1,
      "note": 50,
      "start": 135.2148,
      "duration": 0.1351,
      "velocity": 108,
      "chip": "ym2612"
    },
    {
      "channel": 3,
      "note": 61,
      "start": 135.221,
      "duration": 0.0532,
      "velocity": 127,
      "chip": "ym2612"
    },
    {
      "channel": 5,
      "note": 65,
      "start": 135.2388,
      "duration": 0.1244,
      "velocity": 109,
      "chip": "ym2612"
    },
    {
      "channel": 0,
      "note": 50,
      "start": 135.3767,
      "duration": 0.2764,
      "velocity": 109,
      "chip": "ym2612"
    },
    {
      "channel": 1,
      "note": 50,
      "start": 135.3788,
      "duration": 0.2745,
      "velocity": 108,
      "chip": "ym2612"
    },
    {
      "channel": 5,
      "note": 50,
      "start": 135.3908,
      "duration": 0.2758,
      "velocity": 109,
      "chip": "ym2612"
    },
    {
      "channel": 3,
      "note": 61,
      "start": 135.5322,
      "duration": 0.0454,
      "velocity": 127,
      "chip": "ym2612"
    },
    {
      "channel": 0,
      "note": 50,
      "start": 135.6797,
      "duration": 0.0112,
      "velocity": 109,
      "chip": "ym2612"
    },
    {
      "channel": 1,
      "note": 50,
      "start": 135.6816,
      "duration": 0.1232,
      "velocity": 108,
      "chip": "ym2612"
    },
    {
      "channel": 5,
      "note": 50,
      "start": 135.6935,
      "duration": 0.0111,
      "velocity": 109,
      "chip": "ym2612"
    },
    {
      "channel": 0,
      "note": 65,
      "start": 135.8315,
      "duration": 0.1382,
      "velocity": 109,
      "chip": "ym2612"
    },
    {
      "channel": 1,
      "note": 50,
      "start": 135.8332,
      "duration": 0.1366,
      "velocity": 108,
      "chip": "ym2612"
    },
    {
      "channel": 3,
      "note": 61,
      "start": 135.8395,
      "duration": 0.0541,
      "velocity": 127,
      "chip": "ym2612"
    },
    {
      "channel": 5,
      "note": 65,
      "start": 135.8578,
      "duration": 0.1249,
      "velocity": 109,
      "chip": "ym2612"
    },
    {
      "channel": 0,
      "note": 50,
      "start": 135.9958,
      "duration": 0.0112,
      "velocity": 109,
      "chip": "ym2612"
    },
    {
      "channel": 1,
      "note": 50,
      "start": 135.9976,
      "duration": 0.1232,
      "velocity": 108,
      "chip": "ym2612"
    },
    {
      "channel": 5,
      "note": 50,
      "start": 136.0095,
      "duration": 0.0121,
      "velocity": 109,
      "chip": "ym2612"
    },
    {
      "channel": 0,
      "note": 64,
      "start": 136.1474,
      "duration": 0.1376,
      "velocity": 109,
      "chip": "ym2612"
    },
    {
      "channel": 1,
      "note": 50,
      "start": 136.1493,
      "duration": 0.136,
      "velocity": 108,
      "chip": "ym2612"
    },
    {
      "channel": 3,
      "note": 61,
      "start": 136.1559,
      "duration": 0.0537,
      "velocity": 127,
      "chip": "ym2612"
    },
    {
      "channel": 5,
      "note": 64,
      "start": 136.1738,
      "duration": 0.1249,
      "velocity": 109,
      "chip": "ym2612"
    },
    {
      "channel": 0,
      "note": 50,
      "start": 136.3118,
      "duration": 0.0246,
      "velocity": 109,
      "chip": "ym2612"
    },
    {
      "channel": 1,
      "note": 50,
      "start": 136.3136,
      "duration": 0.1364,
      "velocity": 108,
      "chip": "ym2612"
    },
    {
      "channel": 3,
      "note": 71,
      "start": 136.3199,
      "duration": 0.0175,
      "velocity": 112,
      "chip": "ym2612"
    },
    {
      "channel": 5,
      "note": 50,
      "start": 136.3392,
      "duration": 0.01,
      "velocity": 109,
      "chip": "ym2612"
    },
    {
      "channel": 3,
      "note": 71,
      "start": 136.401,
      "duration": 0.0113,
      "velocity": 112,
      "chip": "ym2612"
    },
    {
      "channel": 0,
      "note": 65,
      "start": 136.4761,
      "duration": 0.125,
      "velocity": 109,
      "chip": "ym2612"
    },
    {
      "channel": 1,
      "note": 50,
      "start": 136.4779,
      "duration": 0.1234,
      "velocity": 108,
      "chip": "ym2612"
    },
    {
      "channel": 3,
      "note": 76,
      "start": 136.4803,
      "duration": 0.0078,
      "velocity": 112,
      "chip": "ym2612"
    },
    {
      "channel": 5,
      "note": 65,
      "start": 136.4899,
      "duration": 0.1248,
      "velocity": 109,
      "chip": "ym2612"
    },
    {
      "channel": 3,
      "note": 76,
      "start": 136.5535,
      "duration": 0.0104,
      "velocity": 112,
      "chip": "ym2612"
    },
    {
      "channel": 0,
      "note": 50,
      "start": 136.628,
      "duration": 0.2764,
      "velocity": 109,
      "chip": "ym2612"
    },
    {
      "channel": 1,
      "note": 50,
      "start": 136.6301,
      "duration": 0.2745,
      "velocity": 108,
      "chip": "ym2612"
    },
    {
      "channel": 3,
      "note": 76,
      "start": 136.6339,
      "duration": 0.0066,
      "velocity": 112,
      "chip": "ym2612"
    },
    {
      "channel": 5,
      "note": 50,
      "start": 136.6425,
      "duration": 0.2755,
      "velocity": 109,
      "chip": "ym2612"
    },
    {
      "channel": 3,
      "note": 71,
      "start": 136.7055,
      "duration": 0.0102,
      "velocity": 112,
      "chip": "ym2612"
    },
    {
      "channel": 3,
      "note": 71,
      "start": 136.7802,
      "duration": 0.0113,
      "velocity": 112,
      "chip": "ym2612"
    },
    {
      "channel": 3,
      "note": 66,
      "start": 136.8566,
      "duration": 0.0112,
      "velocity": 112,
      "chip": "ym2612"
    },
    {
      "channel": 0,
      "note": 50,
      "start": 136.9311,
      "duration": 0.0112,
      "velocity": 109,
      "chip": "ym2612"
    },
    {
      "channel": 1,
      "note": 50,
      "start": 136.9329,
      "duration": 0.1232,
      "velocity": 108,
      "chip": "ym2612"
    },
    {
      "channel": 3,
      "note": 66,
      "start": 136.9351,
      "duration": 0.0081,
      "velocity": 112,
      "chip": "ym2612"
    },
    {
      "channel": 5,
      "note": 50,
      "start": 136.9451,
      "duration": 0.0109,
      "velocity": 109,
      "chip": "ym2612"
    },
    {
      "channel": 3,
      "note": 66,
      "start": 137.0077,
      "duration": 0.0122,
      "velocity": 112,
      "chip": "ym2612"
    },
    {
      "channel": 0,
      "note": 65,
      "start": 137.0828,
      "duration": 0.1249,
      "velocity": 109,
      "chip": "ym2612"
    },
    {
      "channel": 1,
      "note": 50,
      "start": 137.0846,
      "duration": 0.1234,
      "velocity": 108,
      "chip": "ym2612"
    },
    {
      "channel": 3,
      "note": 61,
      "start": 137.0911,
      "duration": 0.0037,
      "velocity": 127,
      "chip": "ym2612"
    },
    {
      "channel": 5,
      "note": 65,
      "start": 137.0967,
      "duration": 0.1247,
      "velocity": 109,
      "chip": "ym2612"
    },
    {
      "channel": 3,
      "note": 61,
      "start": 137.1089,
      "duration": 0.0487,
      "velocity": 127,
      "chip": "ym2612"
    },
    {
      "channel": 0,
      "note": 50,
      "start": 137.2344,
      "duration": 0.0113,
      "velocity": 109,
      "chip": "ym2612"
    },
    {
      "channel": 1,
      "note": 50,
      "start": 137.2371,
      "duration": 0.1224,
      "velocity": 108,
      "chip": "ym2612"
    },
    {
      "channel": 5,
      "note": 50,
      "start": 137.2483,
      "duration": 0.0111,
      "velocity": 109,
      "chip": "ym2612"
    },
    {
      "channel": 0,
      "note": 64,
      "start": 137.387,
      "duration": 0.1241,
      "velocity": 109,
      "chip": "ym2612"
    },
    {
      "channel": 1,
      "note": 50,
      "start": 137.3888,
      "duration": 0.1225,
      "velocity": 108,
      "chip": "ym2612"
    },
    {
      "channel": 3,
      "note": 61,
      "start": 137.3942,
      "duration": 0.0423,
      "velocity": 127,
      "chip": "ym2612"
    },
    {
      "channel": 5,
      "note": 64,
      "start": 137.3998,
      "duration": 0.1249,
      "velocity": 109,
      "chip": "ym2612"
    },
    {
      "channel": 0,
      "note": 62,
      "start": 137.5379,
      "duration": 0.0111,
      "velocity": 109,
      "chip": "ym2612"
    },
    {
      "channel": 1,
      "note": 50,
      "start": 137.5397,
      "duration": 0.1232,
      "velocity": 108,
      "chip": "ym2612"
    },
    {
      "channel": 5,
      "note": 62,
      "start": 137.5516,
      "duration": 0.0111,
      "velocity": 109,
      "chip": "ym2612"
    },
    {
      "channel": 0,
      "note": 48,
      "start": 137.6897,
      "duration": 0.1375,
      "velocity": 109,
      "chip": "ym2612"
    },
    {
      "channel": 1,
      "note": 48,
      "start": 137.6957,
      "duration": 0.1316,
      "velocity": 108,
      "chip": "ym2612"
    },
    {
      "channel": 2,
      "note": 87,
      "start": 137.699,
      "duration": 0.0155,
      "velocity": 102,
      "chip": "ym2612"
    },
    {
      "channel": 3,
      "note": 61,
      "start": 137.7067,
      "duration": 0.045,
      "velocity": 127,
      "chip": "ym2612"
    },
    {
      "channel": 5,
      "note": 48,
      "start": 137.7168,
      "duration": 0.124,
      "velocity": 109,
      "chip": "ym2612"
    },
    {
      "channel": 0,
      "note": 50,
      "start": 137.8557,
      "duration": 0.2757,
      "velocity": 109,
      "chip": "ym2612"
    },
    {
      "channel": 1,
      "note": 50,
      "start": 137.8573,
      "duration": 0.452,
      "velocity": 108,
      "chip": "ym2612"
    },
    {
      "channel": 3,
      "note": 61,
      "start": 137.8596,
      "duration": 0.044,
      "velocity": 127,
      "chip": "ym2612"
    },
    {
      "channel": 5,
      "note": 50,
      "start": 137.8696,
      "duration": 0.2745,
      "velocity": 109,
      "chip": "ym2612"
    },
    {
      "channel": 4,
      "note": 87,
      "start": 137.9322,
      "duration": 0.0095,
      "velocity": 102,
      "chip": "ym2612"
    },
    {
      "channel": 0,
      "note": 50,
      "start": 138.1572,
      "duration": 0.0112,
      "velocity": 109,
      "chip": "ym2612"
    },
    {
      "channel": 5,
      "note": 50,
      "start": 138.1719,
      "duration": 0.0102,
      "velocity": 109,
      "chip": "ym2612"
    },
    {
      "channel": 0,
      "note": 65,
      "start": 138.3089,
      "duration": 0.0005,
      "velocity": 109,
      "chip": "ym2612"
    }
  ]
}