{
  "track_name": "21 - Boss Battle (Liufied)",
  "duration_sec": 51.943,
  "sample_rate": 44100,
  "note_count": 959,
  "unique_pitches": 33,
  "pitch_range": 72,
  "avg_note_duration": 0.2735,
  "reconstruction_stats": {
    "notes_reconstructed": 959,
    "keyon_events": 959,
    "keyoff_events": 954,
    "orphan_keyons": 5,
    "unique_pitches": 33,
    "pitch_range": 72,
    "avg_duration_sec": 0.2735
  },
  "metadata": {
    "source": "S\\Surging Aura\\21 - Boss Battle (Liufied).vgz"
  },
  "notes": [
    {
      "channel": 0,
      "note": 30,
      "start": 0.0,
      "duration": 0.0,
      "velocity": 113,
      "chip": "ym2612"
    },
    {
      "channel": 0,
      "note": 30,
      "start": 0.0,
      "duration": 0.0,
      "velocity": 1,
      "chip": "ym2612"
    },
    {
      "channel": 1,
      "note": 57,
      "start": 0.0,
      "duration": 0.0,
      "velocity": 86,
      "chip": "ym2612"
    },
    {
      "channel": 1,
      "note": 57,
      "start": 0.0,
      "duration": 0.0,
      "velocity": 86,
      "chip": "ym2612"
    },
    {
      "channel": 1,
      "note": 57,
      "start": 0.0,
      "duration": 0.0,
      "velocity": 86,
      "chip": "ym2612"
    },
    {
      "channel": 1,
      "note": 57,
      "start": 0.0,
      "duration": 0.0,
      "velocity": 86,
      "chip": "ym2612"
    },
    {
      "channel": 1,
      "note": 57,
      "start": 0.0,
      "duration": 0.0,
      "velocity": 86,
      "chip": "ym2612"
    },
    {
      "channel": 1,
      "note": 57,
      "start": 0.0,
      "duration": 0.0,
      "velocity": 86,
      "chip": "ym2612"
    },
    {
      "channel": 1,
      "note": 57,
      "start": 0.0,
      "duration": 0.0,
      "velocity": 86,
      "chip": "ym2612"
    },
    {
      "channel": 1,
      "note": 57,
      "start": 0.0,
      "duration": 0.0,
      "velocity": 1,
      "chip": "ym2612"
    },
    {
      "channel": 2,
      "note": 57,
      "start": 0.0,
      "duration": 0.0,
      "velocity": 67,
      "chip": "ym2612"
    },
    {
      "channel": 2,
      "note": 56,
      "start": 0.0,
      "duration": 0.0,
      "velocity": 67,
      "chip": "ym2612"
    },
    {
      "channel": 2,
      "note": 55,
      "start": 0.0,
      "duration": 0.0,
      "velocity": 67,
      "chip": "ym2612"
    },
    {
      "channel": 2,
      "note": 54,
      "start": 0.0,
      "duration": 0.0,
      "velocity": 1,
      "chip": "ym2612"
    },
    {
      "channel": 3,
      "note": 102,
      "start": 0.0,
      "duration": 0.0,
      "velocity": 103,
      "chip": "ym2612"
    },
    {
      "channel": 3,
      "note": 102,
      "start": 0.0,
      "duration": 0.0,
      "velocity": 103,
      "chip": "ym2612"
    },
    {
      "channel": 3,
      "note": 102,
      "start": 0.0,
      "duration": 0.0,
      "velocity": 103,
      "chip": "ym2612"
    },
    {
      "channel": 3,
      "note": 102,
      "start": 0.0,
      "duration": 0.0,
      "velocity": 1,
      "chip": "ym2612"
    },
    {
      "channel": 4,
      "note": 55,
      "start": 0.0,
      "duration": 0.0,
      "velocity": 86,
      "chip": "ym2612"
    },
    {
      "channel": 4,
      "note": 54,
      "start": 0.0,
      "duration": 0.0,
      "velocity": 86,
      "chip": "ym2612"
    },
    {
      "channel": 4,
      "note": 55,
      "start": 0.0,
      "duration": 0.0,
      "velocity": 86,
      "chip": "ym2612"
    },
    {
      "channel": 4,
      "note": 54,
      "start": 0.0,
      "duration": 0.0,
      "velocity": 86,
      "chip": "ym2612"
    },
    {
      "channel": 4,
      "note": 55,
      "start": 0.0,
      "duration": 0.0,
      "velocity": 86,
      "chip": "ym2612"
    },
    {
      "channel": 4,
      "note": 54,
      "start": 0.0,
      "duration": 0.0,
      "velocity": 86,
      "chip": "ym2612"
    },
    {
      "channel": 4,
      "note": 55,
      "start": 0.0,
      "duration": 0.0,
      "velocity": 86,
      "chip": "ym2612"
    },
    {
      "channel": 4,
      "note": 54,
      "start": 0.0,
      "duration": 0.0,
      "velocity": 1,
      "chip": "ym2612"
    },
    {
      "channel": 0,
      "note": 93,
      "start": 0.0076,
      "duration": 2.5852,
      "velocity": 82,
      "chip": "ym2612"
    },
    {
      "channel": 1,
      "note": 45,
      "start": 0.0112,
      "duration": 2.5851,
      "velocity": 91,
      "chip": "ym2612"
    },
    {
      "channel": 2,
      "note": 33,
      "start": 0.0149,
      "duration": 2.585,
      "velocity": 117,
      "chip": "ym2612"
    },
    {
      "channel": 3,
      "note": 33,
      "start": 0.0184,
      "duration": 2.5852,
      "velocity": 107,
      "chip": "ym2612"
    },
    {
      "channel": 4,
      "note": 78,
      "start": 1.5107,
      "duration": 0.1978,
      "velocity": 127,
      "chip": "ym2612"
    },
    {
      "channel": 4,
      "note": 78,
      "start": 1.7091,
      "duration": 0.1828,
      "velocity": 127,
      "chip": "ym2612"
    },
    {
      "channel": 4,
      "note": 78,
      "start": 1.8924,
      "duration": 0.1994,
      "velocity": 127,
      "chip": "ym2612"
    },
    {
      "channel": 4,
      "note": 78,
      "start": 2.0924,
      "duration": 0.1829,
      "velocity": 127,
      "chip": "ym2612"
    },
    {
      "channel": 4,
      "note": 78,
      "start": 2.2759,
      "duration": 0.2018,
      "velocity": 127,
      "chip": "ym2612"
    },
    {
      "channel": 4,
      "note": 78,
      "start": 2.4783,
      "duration": 0.0366,
      "velocity": 127,
      "chip": "ym2612"
    },
    {
      "channel": 4,
      "note": 78,
      "start": 2.5154,
      "duration": 0.1272,
      "velocity": 127,
      "chip": "ym2612"
    },
    {
      "channel": 0,
      "note": 57,
      "start": 2.5933,
      "duration": 0.0465,
      "velocity": 82,
      "chip": "ym2612"
    },
    {
      "channel": 1,
      "note": 57,
      "start": 2.5968,
      "duration": 0.9177,
      "velocity": 91,
      "chip": "ym2612"
    },
    {
      "channel": 2,
      "note": 69,
      "start": 2.6005,
      "duration": 0.0403,
      "velocity": 117,
      "chip": "ym2612"
    },
    {
      "channel": 3,
      "note": 81,
      "start": 2.6041,
      "duration": 0.0373,
      "velocity": 107,
      "chip": "ym2612"
    },
    {
      "channel": 0,
      "note": 57,
      "start": 2.6403,
      "duration": 0.1525,
      "velocity": 82,
      "chip": "ym2612"
    },
    {
      "channel": 2,
      "note": 69,
      "start": 2.6414,
      "duration": 0.1715,
      "velocity": 117,
      "chip": "ym2612"
    },
    {
      "channel": 3,
      "note": 84,
      "start": 2.6421,
      "duration": 0.1715,
      "velocity": 107,
      "chip": "ym2612"
    },
    {
      "channel": 4,
      "note": 57,
      "start": 2.7139,
      "duration": 1.0071,
      "velocity": 91,
      "chip": "ym2612"
    },
    {
      "channel": 0,
      "note": 57,
      "start": 2.8124,
      "duration": 0.0353,
      "velocity": 82,
      "chip": "ym2612"
    },
    {
      "channel": 2,
      "note": 67,
      "start": 2.8135,
      "duration": 0.0353,
      "velocity": 117,
      "chip": "ym2612"
    },
    {
      "channel": 3,
      "note": 88,
      "start": 2.8142,
      "duration": 0.0353,
      "velocity": 107,
      "chip": "ym2612"
    },
    {
      "channel": 0,
      "note": 57,
      "start": 2.8483,
      "duration": 0.0359,
      "velocity": 82,
      "chip": "ym2612"
    },
    {
      "channel": 2,
      "note": 69,
      "start": 2.8493,
      "duration": 0.0499,
      "velocity": 117,
      "chip": "ym2612"
    },
    {
      "channel": 3,
      "note": 81,
      "start": 2.8501,
      "duration": 0.0498,
      "velocity": 107,
      "chip": "ym2612"
    },
    {
      "channel": 0,
      "note": 57,
      "start": 2.8988,
      "duration": 0.1851,
      "velocity": 82,
      "chip": "ym2612"
    },
    {
      "channel": 2,
      "note": 72,
      "start": 2.8997,
      "duration": 0.1851,
      "velocity": 117,
      "chip": "ym2612"
    },
    {
      "channel": 3,
      "note": 84,
      "start": 2.9005,
      "duration": 0.1851,
      "velocity": 107,
      "chip": "ym2612"
    },
    {
      "channel": 0,
      "note": 57,
      "start": 3.0844,
      "duration": 0.0362,
      "velocity": 82,
      "chip": "ym2612"
    },
    {
      "channel": 2,
      "note": 71,
      "start": 3.0854,
      "duration": 0.0427,
      "velocity": 117,
      "chip": "ym2612"
    },
    {
      "channel": 3,
      "note": 88,
      "start": 3.0861,
      "duration": 0.0427,
      "velocity": 107,
      "chip": "ym2612"
    },
    {
      "channel": 0,
      "note": 57,
      "start": 3.1276,
      "duration": 0.0355,
      "velocity": 82,
      "chip": "ym2612"
    },
    {
      "channel": 2,
      "note": 72,
      "start": 3.1286,
      "duration": 0.0355,
      "velocity": 117,
      "chip": "ym2612"
    },
    {
      "channel": 3,
      "note": 81,
      "start": 3.1295,
      "duration": 0.0353,
      "velocity": 107,
      "chip": "ym2612"
    },
    {
      "channel": 0,
      "note": 57,
      "start": 3.1637,
      "duration": 0.0348,
      "velocity": 82,
      "chip": "ym2612"
    },
    {
      "channel": 2,
      "note": 64,
      "start": 3.1646,
      "duration": 0.0527,
      "velocity": 117,
      "chip": "ym2612"
    },
    {
      "channel": 3,
      "note": 84,
      "start": 3.1654,
      "duration": 0.0527,
      "velocity": 107,
      "chip": "ym2612"
    },
    {
      "channel": 0,
      "note": 57,
      "start": 3.2164,
      "duration": 0.0375,
      "velocity": 82,
      "chip": "ym2612"
    },
    {
      "channel": 2,
      "note": 69,
      "start": 3.2179,
      "duration": 0.0371,
      "velocity": 117,
      "chip": "ym2612"
    },
    {
      "channel": 3,
      "note": 88,
      "start": 3.2186,
      "duration": 0.0371,
      "velocity": 107,
      "chip": "ym2612"
    },
    {
      "channel": 0,
      "note": 57,
      "start": 3.2545,
      "duration": 0.1644,
      "velocity": 82,
      "chip": "ym2612"
    },
    {
      "channel": 2,
      "note": 69,
      "start": 3.2555,
      "duration": 0.1835,
      "velocity": 117,
      "chip": "ym2612"
    },
    {
      "channel": 3,
      "note": 81,
      "start": 3.2563,
      "duration": 0.1834,
      "velocity": 107,
      "chip": "ym2612"
    },
    {
      "channel": 0,
      "note": 57,
      "start": 3.4386,
      "duration": 0.0378,
      "velocity": 82,
      "chip": "ym2612"
    },
    {
      "channel": 2,
      "note": 67,
      "start": 3.4396,
      "duration": 0.0378,
      "velocity": 117,
      "chip": "ym2612"
    },
    {
      "channel": 3,
      "note": 84,
      "start": 3.4403,
      "duration": 0.0378,
      "velocity": 107,
      "chip": "ym2612"
    },
    {
      "channel": 0,
      "note": 57,
      "start": 3.477,
      "duration": 0.0368,
      "velocity": 82,
      "chip": "ym2612"
    },
    {
      "channel": 2,
      "note": 69,
      "start": 3.478,
      "duration": 0.0368,
      "velocity": 117,
      "chip": "ym2612"
    },
    {
      "channel": 3,
      "note": 88,
      "start": 3.4787,
      "duration": 0.0369,
      "velocity": 107,
      "chip": "ym2612"
    },
    {
      "channel": 0,
      "note": 57,
      "start": 3.5144,
      "duration": 0.1651,
      "velocity": 82,
      "chip": "ym2612"
    },
    {
      "channel": 2,
      "note": 72,
      "start": 3.5154,
      "duration": 0.1845,
      "velocity": 117,
      "chip": "ym2612"
    },
    {
      "channel": 3,
      "note": 81,
      "start": 3.5162,
      "duration": 0.1845,
      "velocity": 107,
      "chip": "ym2612"
    },
    {
      "channel": 0,
      "note": 57,
      "start": 3.6991,
      "duration": 0.0393,
      "velocity": 82,
      "chip": "ym2612"
    },
    {
      "channel": 1,
      "note": 57,
      "start": 3.6998,
      "duration": 0.0393,
      "velocity": 91,
      "chip": "ym2612"
    },
    {
      "channel": 2,
      "note": 71,
      "start": 3.7005,
      "duration": 0.0393,
      "velocity": 117,
      "chip": "ym2612"
    },
    {
      "channel": 3,
      "note": 84,
      "start": 3.7012,
      "duration": 0.0393,
      "velocity": 107,
      "chip": "ym2612"
    },
    {
      "channel": 0,
      "note": 57,
      "start": 3.7389,
      "duration": 0.0349,
      "velocity": 82,
      "chip": "ym2612"
    },
    {
      "channel": 1,
      "note": 59,
      "start": 3.7396,
      "duration": 0.0379,
      "velocity": 91,
      "chip": "ym2612"
    },
    {
      "channel": 2,
      "note": 72,
      "start": 3.7403,
      "duration": 0.0378,
      "velocity": 117,
      "chip": "ym2612"
    },
    {
      "channel": 3,
      "note": 88,
      "start": 3.741,
      "duration": 0.0379,
      "velocity": 107,
      "chip": "ym2612"
    },
    {
      "channel": 4,
      "note": 57,
      "start": 3.7595,
      "duration": 0.0388,
      "velocity": 91,
      "chip": "ym2612"
    },
    {
      "channel": 0,
      "note": 56,
      "start": 3.7773,
      "duration": 0.0498,
      "velocity": 82,
      "chip": "ym2612"
    },
    {
      "channel": 1,
      "note": 60,
      "start": 3.778,
      "duration": 0.0498,
      "velocity": 91,
      "chip": "ym2612"
    },
    {
      "channel": 2,
      "note": 64,
      "start": 3.7787,
      "duration": 0.0499,
      "velocity": 117,
      "chip": "ym2612"
    },
    {
      "channel": 3,
      "note": 84,
      "start": 3.7795,
      "duration": 0.0498,
      "velocity": 107,
      "chip": "ym2612"
    },
    {
      "channel": 4,
      "note": 59,
      "start": 3.7988,
      "duration": 0.0515,
      "velocity": 91,
      "chip": "ym2612"
    },
    {
      "channel": 0,
      "note": 55,
      "start": 3.8276,
      "duration": 0.038,
      "velocity": 82,
      "chip": "ym2612"
    },
    {
      "channel": 1,
      "note": 59,
      "start": 3.8283,
      "duration": 0.9291,
      "velocity": 91,
      "chip": "ym2612"
    },
    {
      "channel": 2,
      "note": 67,
      "start": 3.8291,
      "duration": 0.0406,
      "velocity": 117,
      "chip": "ym2612"
    },
    {
      "channel": 3,
      "note": 79,
      "start": 3.8298,
      "duration": 0.0406,
      "velocity": 107,
      "chip": "ym2612"
    },
    {
      "channel": 4,
      "note": 60,
      "start": 3.8507,
      "duration": 0.1139,
      "velocity": 91,
      "chip": "ym2612"
    },
    {
      "channel": 0,
      "note": 55,
      "start": 3.8693,
      "duration": 0.18,
      "velocity": 82,
      "chip": "ym2612"
    },
    {
      "channel": 2,
      "note": 67,
      "start": 3.8703,
      "duration": 0.18,
      "velocity": 117,
      "chip": "ym2612"
    },
    {
      "channel": 3,
      "note": 83,
      "start": 3.871,
      "duration": 0.18,
      "velocity": 107,
      "chip": "ym2612"
    },
    {
      "channel": 4,
      "note": 59,
      "start": 3.9652,
      "duration": 0.9124,
      "velocity": 91,
      "chip": "ym2612"
    },
    {
      "channel": 0,
      "note": 55,
      "start": 4.0499,
      "duration": 0.0354,
      "velocity": 82,
      "chip": "ym2612"
    },
    {
      "channel": 2,
      "note": 65,
      "start": 4.0508,
      "duration": 0.041,
      "velocity": 117,
      "chip": "ym2612"
    },
    {
      "channel": 3,
      "note": 86,
      "start": 4.0516,
      "duration": 0.041,
      "velocity": 107,
      "chip": "ym2612"
    },
    {
      "channel": 0,
      "note": 55,
      "start": 4.0914,
      "duration": 0.0369,
      "velocity": 82,
      "chip": "ym2612"
    },
    {
      "channel": 2,
      "note": 67,
      "start": 4.0924,
      "duration": 0.037,
      "velocity": 117,
      "chip": "ym2612"
    },
    {
      "channel": 3,
      "note": 79,
      "start": 4.0932,
      "duration": 0.0369,
      "velocity": 107,
      "chip": "ym2612"
    },
    {
      "channel": 0,
      "note": 55,
      "start": 4.1289,
      "duration": 0.1649,
      "velocity": 82,
      "chip": "ym2612"
    },
    {
      "channel": 2,
      "note": 71,
      "start": 4.1299,
      "duration": 0.184,
      "velocity": 117,
      "chip": "ym2612"
    },
    {
      "channel": 3,
      "note": 83,
      "start": 4.1306,
      "duration": 0.1839,
      "velocity": 107,
      "chip": "ym2612"
    },
    {
      "channel": 0,
      "note": 55,
      "start": 4.3134,
      "duration": 0.0391,
      "velocity": 82,
      "chip": "ym2612"
    },
    {
      "channel": 2,
      "note": 69,
      "start": 4.3144,
      "duration": 0.0391,
      "velocity": 117,
      "chip": "ym2612"
    },
    {
      "channel": 3,
      "note": 86,
      "start": 4.3151,
      "duration": 0.0392,
      "velocity": 107,
      "chip": "ym2612"
    },
    {
      "channel": 0,
      "note": 55,
      "start": 4.3531,
      "duration": 0.0355,
      "velocity": 82,
      "chip": "ym2612"
    },
    {
      "channel": 2,
      "note": 71,
      "start": 4.3541,
      "duration": 0.0386,
      "velocity": 117,
      "chip": "ym2612"
    },
    {
      "channel": 3,
      "note": 79,
      "start": 4.3549,
      "duration": 0.0385,
      "velocity": 107,
      "chip": "ym2612"
    },
    {
      "channel": 0,
      "note": 55,
      "start": 4.3922,
      "duration": 0.0468,
      "velocity": 82,
      "chip": "ym2612"
    },
    {
      "channel": 2,
      "note": 62,
      "start": 4.3932,
      "duration": 0.0473,
      "velocity": 117,
      "chip": "ym2612"
    },
    {
      "channel": 3,
      "note": 83,
      "start": 4.3939,
      "duration": 0.0472,
      "velocity": 107,
      "chip": "ym2612"
    },
    {
      "channel": 0,
      "note": 55,
      "start": 4.4395,
      "duration": 0.1851,
      "velocity": 82,
      "chip": "ym2612"
    },
    {
      "channel": 2,
      "note": 67,
      "start": 4.441,
      "duration": 0.1847,
      "velocity": 117,
      "chip": "ym2612"
    },
    {
      "channel": 3,
      "note": 86,
      "start": 4.4417,
      "duration": 0.1847,
      "velocity": 107,
      "chip": "ym2612"
    },
    {
      "channel": 0,
      "note": 55,
      "start": 4.6252,
      "duration": 0.0362,
      "velocity": 82,
      "chip": "ym2612"
    },
    {
      "channel": 2,
      "note": 67,
      "start": 4.6262,
      "duration": 0.0428,
      "velocity": 117,
      "chip": "ym2612"
    },
    {
      "channel": 3,
      "note": 79,
      "start": 4.627,
      "duration": 0.0426,
      "velocity": 107,
      "chip": "ym2612"
    },
    {
      "channel": 0,
      "note": 55,
      "start": 4.6685,
      "duration": 0.0355,
      "velocity": 82,
      "chip": "ym2612"
    },
    {
      "channel": 2,
      "note": 65,
      "start": 4.6694,
      "duration": 0.0356,
      "velocity": 117,
      "chip": "ym2612"
    },
    {
      "channel": 3,
      "note": 83,
      "start": 4.6702,
      "duration": 0.0355,
      "velocity": 107,
      "chip": "ym2612"
    },
    {
      "channel": 0,
      "note": 55,
      "start": 4.7046,
      "duration": 0.0361,
      "velocity": 82,
      "chip": "ym2612"
    },
    {
      "channel": 2,
      "note": 67,
      "start": 4.7055,
      "duration": 0.0522,
      "velocity": 117,
      "chip": "ym2612"
    },
    {
      "channel": 3,
      "note": 86,
      "start": 4.7063,
      "duration": 0.0522,
      "velocity": 107,
      "chip": "ym2612"
    },
    {
      "channel": 0,
      "note": 55,
      "start": 4.7573,
      "duration": 0.0346,
      "velocity": 82,
      "chip": "ym2612"
    },
    {
      "channel": 2,
      "note": 71,
      "start": 4.7583,
      "duration": 0.0349,
      "velocity": 117,
      "chip": "ym2612"
    },
    {
      "channel": 3,
      "note": 79,
      "start": 4.7591,
      "duration": 0.0349,
      "velocity": 107,
      "chip": "ym2612"
    },
    {
      "channel": 0,
      "note": 55,
      "start": 4.7925,
      "duration": 0.1673,
      "velocity": 82,
      "chip": "ym2612"
    },
    {
      "channel": 1,
      "note": 59,
      "start": 4.7932,
      "duration": 0.1864,
      "velocity": 91,
      "chip": "ym2612"
    },
    {
      "channel": 2,
      "note": 69,
      "start": 4.7939,
      "duration": 0.1864,
      "velocity": 117,
      "chip": "ym2612"
    },
    {
      "channel": 3,
      "note": 83,
      "start": 4.7946,
      "duration": 0.1864,
      "velocity": 107,
      "chip": "ym2612"
    },
    {
      "channel": 0,
      "note": 55,
      "start": 4.9795,
      "duration": 0.0379,
      "velocity": 82,
      "chip": "ym2612"
    },
    {
      "channel": 1,
      "note": 60,
      "start": 4.9802,
      "duration": 0.0379,
      "velocity": 91,
      "chip": "ym2612"
    },
    {
      "channel": 2,
      "note": 71,
      "start": 4.9809,
      "duration": 0.0379,
      "velocity": 117,
      "chip": "ym2612"
    },
    {
      "channel": 3,
      "note": 86,
      "start": 4.9816,
      "duration": 0.0379,
      "velocity": 107,
      "chip": "ym2612"
    },
    {
      "channel": 4,
      "note": 59,
      "start": 4.9999,
      "duration": 0.0394,
      "velocity": 91,
      "chip": "ym2612"
    },
    {
      "channel": 0,
      "note": 55,
      "start": 5.0179,
      "duration": 0.0363,
      "velocity": 82,
      "chip": "ym2612"
    },
    {
      "channel": 1,
      "note": 62,
      "start": 5.0185,
      "duration": 0.042,
      "velocity": 91,
      "chip": "ym2612"
    },
    {
      "channel": 2,
      "note": 62,
      "start": 5.0193,
      "duration": 0.042,
      "velocity": 117,
      "chip": "ym2612"
    },
    {
      "channel": 3,
      "note": 83,
      "start": 5.0201,
      "duration": 0.0419,
      "velocity": 107,
      "chip": "ym2612"
    },
    {
      "channel": 4,
      "note": 60,
      "start": 5.0398,
      "duration": 0.04,
      "velocity": 91,
      "chip": "ym2612"
    },
    {
      "channel": 0,
      "note": 53,
      "start": 5.0603,
      "duration": 0.038,
      "velocity": 82,
      "chip": "ym2612"
    },
    {
      "channel": 1,
      "note": 60,
      "start": 5.061,
      "duration": 0.6422,
      "velocity": 91,
      "chip": "ym2612"
    },
    {
      "channel": 2,
      "note": 65,
      "start": 5.0619,
      "duration": 0.0375,
      "velocity": 117,
      "chip": "ym2612"
    },
    {
      "channel": 3,
      "note": 77,
      "start": 5.0626,
      "duration": 0.0375,
      "velocity": 107,
      "chip": "ym2612"
    },
    {
      "channel": 4,
      "note": 62,
      "start": 5.0803,
      "duration": 0.1002,
      "velocity": 91,
      "chip": "ym2612"
    },
    {
      "channel": 0,
      "note": 53,
      "start": 5.099,
      "duration": 0.1638,
      "velocity": 82,
      "chip": "ym2612"
    },
    {
      "channel": 2,
      "note": 65,
      "start": 5.0999,
      "duration": 0.183,
      "velocity": 117,
      "chip": "ym2612"
    },
    {
      "channel": 3,
      "note": 81,
      "start": 5.1006,
      "duration": 0.183,
      "velocity": 107,
      "chip": "ym2612"
    },
    {
      "channel": 4,
      "note": 60,
      "start": 5.1811,
      "duration": 0.7251,
      "velocity": 91,
      "chip": "ym2612"
    },
    {
      "channel": 0,
      "note": 53,
      "start": 5.2824,
      "duration": 0.0354,
      "velocity": 82,
      "chip": "ym2612"
    },
    {
      "channel": 2,
      "note": 64,
      "start": 5.2834,
      "duration": 0.0355,
      "velocity": 117,
      "chip": "ym2612"
    },
    {
      "channel": 3,
      "note": 84,
      "start": 5.2841,
      "duration": 0.0355,
      "velocity": 107,
      "chip": "ym2612"
    },
    {
      "channel": 0,
      "note": 53,
      "start": 5.3184,
      "duration": 0.0362,
      "velocity": 82,
      "chip": "ym2612"
    },
    {
      "channel": 2,
      "note": 65,
      "start": 5.3194,
      "duration": 0.0523,
      "velocity": 117,
      "chip": "ym2612"
    },
    {
      "channel": 3,
      "note": 77,
      "start": 5.3202,
      "duration": 0.0522,
      "velocity": 107,
      "chip": "ym2612"
    },
    {
      "channel": 0,
      "note": 53,
      "start": 5.3712,
      "duration": 0.0393,
      "velocity": 82,
      "chip": "ym2612"
    },
    {
      "channel": 2,
      "note": 69,
      "start": 5.3723,
      "duration": 0.0393,
      "velocity": 117,
      "chip": "ym2612"
    },
    {
      "channel": 3,
      "note": 81,
      "start": 5.373,
      "duration": 0.0392,
      "velocity": 107,
      "chip": "ym2612"
    },
    {
      "channel": 0,
      "note": 53,
      "start": 5.4111,
      "duration": 0.039,
      "velocity": 82,
      "chip": "ym2612"
    },
    {
      "channel": 2,
      "note": 67,
      "start": 5.412,
      "duration": 0.0391,
      "velocity": 117,
      "chip": "ym2612"
    },
    {
      "channel": 3,
      "note": 84,
      "start": 5.4127,
      "duration": 0.0391,
      "velocity": 107,
      "chip": "ym2612"
    },
    {
      "channel": 0,
      "note": 53,
      "start": 5.4507,
      "duration": 0.0357,
      "velocity": 82,
      "chip": "ym2612"
    },
    {
      "channel": 2,
      "note": 69,
      "start": 5.4517,
      "duration": 0.0387,
      "velocity": 117,
      "chip": "ym2612"
    },
    {
      "channel": 3,
      "note": 77,
      "start": 5.4524,
      "duration": 0.0386,
      "velocity": 107,
      "chip": "ym2612"
    },
    {
      "channel": 0,
      "note": 53,
      "start": 5.4899,
      "duration": 0.0489,
      "velocity": 82,
      "chip": "ym2612"
    },
    {
      "channel": 2,
      "note": 60,
      "start": 5.4909,
      "duration": 0.0495,
      "velocity": 117,
      "chip": "ym2612"
    },
    {
      "channel": 3,
      "note": 81,
      "start": 5.4916,
      "duration": 0.0494,
      "velocity": 107,
      "chip": "ym2612"
    },
    {
      "channel": 0,
      "note": 53,
      "start": 5.5394,
      "duration": 0.0376,
      "velocity": 82,
      "chip": "ym2612"
    },
    {
      "channel": 2,
      "note": 65,
      "start": 5.5409,
      "duration": 0.0439,
      "velocity": 117,
      "chip": "ym2612"
    },
    {
      "channel": 3,
      "note": 84,
      "start": 5.5416,
      "duration": 0.044,
      "velocity": 107,
      "chip": "ym2612"
    },
    {
      "channel": 0,
      "note": 53,
      "start": 5.5844,
      "duration": 0.0392,
      "velocity": 82,
      "chip": "ym2612"
    },
    {
      "channel": 2,
      "note": 65,
      "start": 5.5853,
      "duration": 0.0393,
      "velocity": 117,
      "chip": "ym2612"
    },
    {
      "channel": 3,
      "note": 77,
      "start": 5.5861,
      "duration": 0.0391,
      "velocity": 107,
      "chip": "ym2612"
    },
    {
      "channel": 0,
      "note": 53,
      "start": 5.6241,
      "duration": 0.0353,
      "velocity": 82,
      "chip": "ym2612"
    },
    {
      "channel": 2,
      "note": 64,
      "start": 5.6251,
      "duration": 0.0409,
      "velocity": 117,
      "chip": "ym2612"
    },
    {
      "channel": 3,
      "note": 81,
      "start": 5.6258,
      "duration": 0.0408,
      "velocity": 107,
      "chip": "ym2612"
    },
    {
      "channel": 0,
      "note": 53,
      "start": 5.6655,
      "duration": 0.037,
      "velocity": 82,
      "chip": "ym2612"
    },
    {
      "channel": 2,
      "note": 65,
      "start": 5.6665,
      "duration": 0.0371,
      "velocity": 117,
      "chip": "ym2612"
    },
    {
      "channel": 3,
      "note": 84,
      "start": 5.6672,
      "duration": 0.0371,
      "velocity": 107,
      "chip": "ym2612"
    },
    {
      "channel": 0,
      "note": 53,
      "start": 5.7031,
      "duration": 0.1649,
      "velocity": 82,
      "chip": "ym2612"
    },
    {
      "channel": 2,
      "note": 69,
      "start": 5.7041,
      "duration": 0.1843,
      "velocity": 117,
      "chip": "ym2612"
    },
    {
      "channel": 3,
      "note": 77,
      "start": 5.7049,
      "duration": 0.1843,
      "velocity": 107,
      "chip": "ym2612"
    },
    {
      "channel": 0,
      "note": 53,
      "start": 5.8876,
      "duration": 0.0391,
      "velocity": 82,
      "chip": "ym2612"
    },
    {
      "channel": 1,
      "note": 60,
      "start": 5.8883,
      "duration": 0.0391,
      "velocity": 91,
      "chip": "ym2612"
    },
    {
      "channel": 2,
      "note": 67,
      "start": 5.889,
      "duration": 0.0391,
      "velocity": 117,
      "chip": "ym2612"
    },
    {
      "channel": 3,
      "note": 81,
      "start": 5.8897,
      "duration": 0.0391,
      "velocity": 107,
      "chip": "ym2612"
    },
    {
      "channel": 0,
      "note": 53,
      "start": 5.9273,
      "duration": 0.0349,
      "velocity": 82,
      "chip": "ym2612"
    },
    {
      "channel": 1,
      "note": 62,
      "start": 5.928,
      "duration": 0.038,
      "velocity": 91,
      "chip": "ym2612"
    },
    {
      "channel": 2,
      "note": 69,
      "start": 5.9287,
      "duration": 0.038,
      "velocity": 117,
      "chip": "ym2612"
    },
    {
      "channel": 3,
      "note": 84,
      "start": 5.9294,
      "duration": 0.038,
      "velocity": 107,
      "chip": "ym2612"
    },
    {
      "channel": 4,
      "note": 60,
      "start": 5.9478,
      "duration": 0.0358,
      "velocity": 91,
      "chip": "ym2612"
    },
    {
      "channel": 0,
      "note": 54,
      "start": 5.9658,
      "duration": 0.0473,
      "velocity": 82,
      "chip": "ym2612"
    },
    {
      "channel": 1,
      "note": 64,
      "start": 5.9664,
      "duration": 0.0473,
      "velocity": 91,
      "chip": "ym2612"
    },
    {
      "channel": 2,
      "note": 60,
      "start": 5.9671,
      "duration": 0.0474,
      "velocity": 117,
      "chip": "ym2612"
    },
    {
      "channel": 3,
      "note": 81,
      "start": 5.968,
      "duration": 0.0473,
      "velocity": 107,
      "chip": "ym2612"
    },
    {
      "channel": 4,
      "note": 62,
      "start": 5.9841,
      "duration": 0.1301,
      "velocity": 91,
      "chip": "ym2612"
    },
    {
      "channel": 0,
      "note": 55,
      "start": 6.0137,
      "duration": 0.1828,
      "velocity": 82,
      "chip": "ym2612"
    },
    {
      "channel": 1,
      "note": 62,
      "start": 6.0144,
      "duration": 0.639,
      "velocity": 91,
      "chip": "ym2612"
    },
    {
      "channel": 2,
      "note": 67,
      "start": 6.0151,
      "duration": 0.2014,
      "velocity": 117,
      "chip": "ym2612"
    },
    {
      "channel": 3,
      "note": 79,
      "start": 6.0158,
      "duration": 0.2014,
      "velocity": 107,
      "chip": "ym2612"
    },
    {
      "channel": 4,
      "note": 64,
      "start": 6.1147,
      "duration": 0.1193,
      "velocity": 91,
      "chip": "ym2612"
    },
    {
      "channel": 0,
      "note": 55,
      "start": 6.2161,
      "duration": 0.0392,
      "velocity": 82,
      "chip": "ym2612"
    },
    {
      "channel": 2,
      "note": 67,
      "start": 6.217,
      "duration": 0.0393,
      "velocity": 117,
      "chip": "ym2612"
    },
    {
      "channel": 3,
      "note": 83,
      "start": 6.2178,
      "duration": 0.0391,
      "velocity": 107,
      "chip": "ym2612"
    },
    {
      "channel": 4,
      "note": 62,
      "start": 6.2346,
      "duration": 0.6256,
      "velocity": 91,
      "chip": "ym2612"
    },
    {
      "channel": 0,
      "note": 55,
      "start": 6.2558,
      "duration": 0.0354,
      "velocity": 82,
      "chip": "ym2612"
    },
    {
      "channel": 2,
      "note": 65,
      "start": 6.2568,
      "duration": 0.0385,
      "velocity": 117,
      "chip": "ym2612"
    },
    {
      "channel": 3,
      "note": 86,
      "start": 6.2575,
      "duration": 0.0385,
      "velocity": 107,
      "chip": "ym2612"
    },
    {
      "channel": 0,
      "note": 55,
      "start": 6.2948,
      "duration": 0.0493,
      "velocity": 82,
      "chip": "ym2612"
    },
    {
      "channel": 2,
      "note": 67,
      "start": 6.2957,
      "duration": 0.0493,
      "velocity": 117,
      "chip": "ym2612"
    },
    {
      "channel": 3,
      "note": 79,
      "start": 6.2966,
      "duration": 0.0492,
      "velocity": 107,
      "chip": "ym2612"
    },
    {
      "channel": 0,
      "note": 55,
      "start": 6.3446,
      "duration": 0.037,
      "velocity": 82,
      "chip": "ym2612"
    },
    {
      "channel": 2,
      "note": 71,
      "start": 6.3456,
      "duration": 0.0369,
      "velocity": 117,
      "chip": "ym2612"
    },
    {
      "channel": 3,
      "note": 83,
      "start": 6.3463,
      "duration": 0.0369,
      "velocity": 107,
      "chip": "ym2612"
    },
    {
      "channel": 0,
      "note": 55,
      "start": 6.3821,
      "duration": 0.165,
      "velocity": 82,
      "chip": "ym2612"
    },
    {
      "channel": 2,
      "note": 69,
      "start": 6.3831,
      "duration": 0.1841,
      "velocity": 117,
      "chip": "ym2612"
    },
    {
      "channel": 3,
      "note": 86,
      "start": 6.3838,
      "duration": 0.1842,
      "velocity": 107,
      "chip": "ym2612"
    },
    {
      "channel": 0,
      "note": 55,
      "start": 6.5668,
      "duration": 0.0356,
      "velocity": 82,
      "chip": "ym2612"
    },
    {
      "channel": 2,
      "note": 71,
      "start": 6.5678,
      "duration": 0.0356,
      "velocity": 117,
      "chip": "ym2612"
    },
    {
      "channel": 3,
      "note": 79,
      "start": 6.5685,
      "duration": 0.0355,
      "velocity": 107,
      "chip": "ym2612"
    },
    {
      "channel": 0,
      "note": 55,
      "start": 6.6029,
      "duration": 0.035,
      "velocity": 82,
      "chip": "ym2612"
    },
    {
      "channel": 2,
      "note": 62,
      "start": 6.6039,
      "duration": 0.0502,
      "velocity": 117,
      "chip": "ym2612"
    },
    {
      "channel": 3,
      "note": 83,
      "start": 6.6046,
      "duration": 0.0502,
      "velocity": 107,
      "chip": "ym2612"
    },
    {
      "channel": 0,
      "note": 55,
      "start": 6.6533,
      "duration": 0.1851,
      "velocity": 82,
      "chip": "ym2612"
    },
    {
      "channel": 1,
      "note": 67,
      "start": 6.6539,
      "duration": 0.3173,
      "velocity": 91,
      "chip": "ym2612"
    },
    {
      "channel": 2,
      "note": 67,
      "start": 6.6546,
      "duration": 0.1847,
      "velocity": 117,
      "chip": "ym2612"
    },
    {
      "channel": 3,
      "note": 86,
      "start": 6.6554,
      "duration": 0.1848,
      "velocity": 107,
      "chip": "ym2612"
    },
    {
      "channel": 0,
      "note": 55,
      "start": 6.8389,
      "duration": 0.0363,
      "velocity": 82,
      "chip": "ym2612"
    },
    {
      "channel": 2,
      "note": 67,
      "start": 6.8399,
      "duration": 0.0428,
      "velocity": 117,
      "chip": "ym2612"
    },
    {
      "channel": 3,
      "note": 79,
      "start": 6.8407,
      "duration": 0.0426,
      "velocity": 107,
      "chip": "ym2612"
    },
    {
      "channel": 4,
      "note": 67,
      "start": 6.8607,
      "duration": 0.1736,
      "velocity": 91,
      "chip": "ym2612"
    },
    {
      "channel": 0,
      "note": 55,
      "start": 6.8822,
      "duration": 0.0356,
      "velocity": 82,
      "chip": "ym2612"
    },
    {
      "channel": 2,
      "note": 65,
      "start": 6.8832,
      "duration": 0.0357,
      "velocity": 117,
      "chip": "ym2612"
    },
    {
      "channel": 3,
      "note": 83,
      "start": 6.8839,
      "duration": 0.0356,
      "velocity": 107,
      "chip": "ym2612"
    },
    {
      "channel": 0,
      "note": 55,
      "start": 6.9184,
      "duration": 0.0361,
      "velocity": 82,
      "chip": "ym2612"
    },
    {
      "channel": 2,
      "note": 67,
      "start": 6.9193,
      "duration": 0.0526,
      "velocity": 117,
      "chip": "ym2612"
    },
    {
      "channel": 3,
      "note": 86,
      "start": 6.9201,
      "duration": 0.0526,
      "velocity": 107,
      "chip": "ym2612"
    },
    {
      "channel": 0,
      "note": 55,
      "start": 6.9711,
      "duration": 0.0414,
      "velocity": 82,
      "chip": "ym2612"
    },
    {
      "channel": 1,
      "note": 65,
      "start": 6.9718,
      "duration": 0.1636,
      "velocity": 91,
      "chip": "ym2612"
    },
    {
      "channel": 2,
      "note": 67,
      "start": 6.9725,
      "duration": 0.0238,
      "velocity": 117,
      "chip": "ym2612"
    },
    {
      "channel": 3,
      "note": 79,
      "start": 6.9732,
      "duration": 0.0405,
      "velocity": 107,
      "chip": "ym2612"
    },
    {
      "channel": 2,
      "note": 71,
      "start": 6.9968,
      "duration": 0.0302,
      "velocity": 117,
      "chip": "ym2612"
    },
    {
      "channel": 0,
      "note": 55,
      "start": 7.013,
      "duration": 0.0364,
      "velocity": 82,
      "chip": "ym2612"
    },
    {
      "channel": 3,
      "note": 83,
      "start": 7.0143,
      "duration": 0.0423,
      "velocity": 107,
      "chip": "ym2612"
    },
    {
      "channel": 2,
      "note": 74,
      "start": 7.0276,
      "duration": 0.0283,
      "velocity": 117,
      "chip": "ym2612"
    },
    {
      "channel": 4,
      "note": 65,
      "start": 7.0348,
      "duration": 0.2206,
      "velocity": 91,
      "chip": "ym2612"
    },
    {
      "channel": 0,
      "note": 55,
      "start": 7.0555,
      "duration": 0.0378,
      "velocity": 82,
      "chip": "ym2612"
    },
    {
      "channel": 2,
      "note": 59,
      "start": 7.0564,
      "duration": 0.0221,
      "velocity": 117,
      "chip": "ym2612"
    },
    {
      "channel": 3,
      "note": 84,
      "start": 7.0571,
      "duration": 0.0374,
      "velocity": 107,
      "chip": "ym2612"
    },
    {
      "channel": 2,
      "note": 62,
      "start": 7.0791,
      "duration": 0.0281,
      "velocity": 117,
      "chip": "ym2612"
    },
    {
      "channel": 0,
      "note": 56,
      "start": 7.0937,
      "duration": 0.0347,
      "velocity": 82,
      "chip": "ym2612"
    },
    {
      "channel": 3,
      "note": 86,
      "start": 7.0951,
      "duration": 0.0418,
      "velocity": 107,
      "chip": "ym2612"
    },
    {
      "channel": 2,
      "note": 68,
      "start": 7.1078,
      "duration": 0.0283,
      "velocity": 117,
      "chip": "ym2612"
    },
    {
      "channel": 0,
      "note": 57,
      "start": 7.1352,
      "duration": 0.0378,
      "velocity": 82,
      "chip": "ym2612"
    },
    {
      "channel": 1,
      "note": 64,
      "start": 7.1359,
      "duration": 0.6222,
      "velocity": 91,
      "chip": "ym2612"
    },
    {
      "channel": 2,
      "note": 69,
      "start": 7.1367,
      "duration": 0.0372,
      "velocity": 117,
      "chip": "ym2612"
    },
    {
      "channel": 3,
      "note": 81,
      "start": 7.1375,
      "duration": 0.0372,
      "velocity": 107,
      "chip": "ym2612"
    },
    {
      "channel": 0,
      "note": 57,
      "start": 7.1735,
      "duration": 0.1666,
      "velocity": 82,
      "chip": "ym2612"
    },
    {
      "channel": 2,
      "note": 69,
      "start": 7.1745,
      "duration": 0.1666,
      "velocity": 117,
      "chip": "ym2612"
    },
    {
      "channel": 3,
      "note": 84,
      "start": 7.1752,
      "duration": 0.1666,
      "velocity": 107,
      "chip": "ym2612"
    },
    {
      "channel": 4,
      "note": 64,
      "start": 7.2559,
      "duration": 0.6223,
      "velocity": 91,
      "chip": "ym2612"
    },
    {
      "channel": 0,
      "note": 57,
      "start": 7.3406,
      "duration": 0.0354,
      "velocity": 82,
      "chip": "ym2612"
    },
    {
      "channel": 2,
      "note": 67,
      "start": 7.3416,
      "duration": 0.0385,
      "velocity": 117,
      "chip": "ym2612"
    },
    {
      "channel": 3,
      "note": 88,
      "start": 7.3423,
      "duration": 0.0385,
      "velocity": 107,
      "chip": "ym2612"
    },
    {
      "channel": 0,
      "note": 57,
      "start": 7.3796,
      "duration": 0.0471,
      "velocity": 82,
      "chip": "ym2612"
    },
    {
      "channel": 2,
      "note": 69,
      "start": 7.3806,
      "duration": 0.047,
      "velocity": 117,
      "chip": "ym2612"
    },
    {
      "channel": 3,
      "note": 81,
      "start": 7.3814,
      "duration": 0.0469,
      "velocity": 107,
      "chip": "ym2612"
    },
    {
      "channel": 0,
      "note": 57,
      "start": 7.4272,
      "duration": 0.1827,
      "velocity": 82,
      "chip": "ym2612"
    },
    {
      "channel": 2,
      "note": 72,
      "start": 7.4282,
      "duration": 0.2018,
      "velocity": 117,
      "chip": "ym2612"
    },
    {
      "channel": 3,
      "note": 84,
      "start": 7.4289,
      "duration": 0.2018,
      "velocity": 107,
      "chip": "ym2612"
    },
    {
      "channel": 0,
      "note": 57,
      "start": 7.6295,
      "duration": 0.0392,
      "velocity": 82,
      "chip": "ym2612"
    },
    {
      "channel": 2,
      "note": 71,
      "start": 7.6305,
      "duration": 0.0392,
      "velocity": 117,
      "chip": "ym2612"
    },
    {
      "channel": 3,
      "note": 88,
      "start": 7.6312,
      "duration": 0.0392,
      "velocity": 107,
      "chip": "ym2612"
    },
    {
      "channel": 0,
      "note": 57,
      "start": 7.6692,
      "duration": 0.0354,
      "velocity": 82,
      "chip": "ym2612"
    },
    {
      "channel": 2,
      "note": 72,
      "start": 7.6702,
      "duration": 0.0385,
      "velocity": 117,
      "chip": "ym2612"
    },
    {
      "channel": 3,
      "note": 81,
      "start": 7.671,
      "duration": 0.0384,
      "velocity": 107,
      "chip": "ym2612"
    },
    {
      "channel": 0,
      "note": 57,
      "start": 7.7083,
      "duration": 0.0491,
      "velocity": 82,
      "chip": "ym2612"
    },
    {
      "channel": 2,
      "note": 64,
      "start": 7.7092,
      "duration": 0.0496,
      "velocity": 117,
      "chip": "ym2612"
    },
    {
      "channel": 3,
      "note": 84,
      "start": 7.71,
      "duration": 0.0496,
      "velocity": 107,
      "chip": "ym2612"
    },
    {
      "channel": 0,
      "note": 57,
      "start": 7.7579,
      "duration": 0.0376,
      "velocity": 82,
      "chip": "ym2612"
    },
    {
      "channel": 1,
      "note": 62,
      "start": 7.7586,
      "duration": 0.2216,
      "velocity": 91,
      "chip": "ym2612"
    },
    {
      "channel": 2,
      "note": 69,
      "start": 7.7594,
      "duration": 0.0402,
      "velocity": 117,
      "chip": "ym2612"
    },
    {
      "channel": 3,
      "note": 88,
      "start": 7.7602,
      "duration": 0.0402,
      "velocity": 107,
      "chip": "ym2612"
    },
    {
      "channel": 0,
      "note": 57,
      "start": 7.7992,
      "duration": 0.1803,
      "velocity": 82,
      "chip": "ym2612"
    },
    {
      "channel": 2,
      "note": 69,
      "start": 7.8002,
      "duration": 0.1807,
      "velocity": 117,
      "chip": "ym2612"
    },
    {
      "channel": 3,
      "note": 81,
      "start": 7.801,
      "duration": 0.1806,
      "velocity": 107,
      "chip": "ym2612"
    },
    {
      "channel": 4,
      "note": 62,
      "start": 7.8787,
      "duration": 0.1627,
      "velocity": 91,
      "chip": "ym2612"
    },
    {
      "channel": 0,
      "note": 57,
      "start": 7.9801,
      "duration": 0.0358,
      "velocity": 82,
      "chip": "ym2612"
    },
    {
      "channel": 1,
      "note": 60,
      "start": 7.9808,
      "duration": 0.08,
      "velocity": 91,
      "chip": "ym2612"
    },
    {
      "channel": 2,
      "note": 67,
      "start": 7.9815,
      "duration": 0.0417,
      "velocity": 117,
      "chip": "ym2612"
    },
    {
      "channel": 3,
      "note": 84,
      "start": 7.9822,
      "duration": 0.0417,
      "velocity": 107,
      "chip": "ym2612"
    },
    {
      "channel": 0,
      "note": 57,
      "start": 8.0227,
      "duration": 0.0374,
      "velocity": 82,
      "chip": "ym2612"
    },
    {
      "channel": 2,
      "note": 69,
      "start": 8.0237,
      "duration": 0.0378,
      "velocity": 117,
      "chip": "ym2612"
    },
    {
      "channel": 3,
      "note": 88,
      "start": 8.0244,
      "duration": 0.0378,
      "velocity": 107,
      "chip": "ym2612"
    },
    {
      "channel": 4,
      "note": 60,
      "start": 8.042,
      "duration": 0.2211,
      "velocity": 91,
      "chip": "ym2612"
    },
    {
      "channel": 0,
      "note": 57,
      "start": 8.0607,
      "duration": 0.1645,
      "velocity": 82,
      "chip": "ym2612"
    },
    {
      "channel": 1,
      "note": 59,
      "start": 8.0614,
      "duration": 0.2234,
      "velocity": 91,
      "chip": "ym2612"
    },
    {
      "channel": 2,
      "note": 72,
      "start": 8.0621,
      "duration": 0.1832,
      "velocity": 117,
      "chip": "ym2612"
    },
    {
      "channel": 3,
      "note": 81,
      "start": 8.0629,
      "duration": 0.183,
      "velocity": 107,
      "chip": "ym2612"
    },
    {
      "channel": 0,
      "note": 57,
      "start": 8.2448,
      "duration": 0.0392,
      "velocity": 82,
      "chip": "ym2612"
    },
    {
      "channel": 2,
      "note": 71,
      "start": 8.2458,
      "duration": 0.0396,
      "velocity": 117,
      "chip": "ym2612"
    },
    {
      "channel": 3,
      "note": 84,
      "start": 8.2465,
      "duration": 0.0396,
      "velocity": 107,
      "chip": "ym2612"
    },
    {
      "channel": 4,
      "note": 59,
      "start": 8.2635,
      "duration": 0.0783,
      "velocity": 91,
      "chip": "ym2612"
    },
    {
      "channel": 0,
      "note": 57,
      "start": 8.2846,
      "duration": 0.036,
      "velocity": 82,
      "chip": "ym2612"
    },
    {
      "channel": 1,
      "note": 60,
      "start": 8.2853,
      "duration": 0.0881,
      "velocity": 91,
      "chip": "ym2612"
    },
    {
      "channel": 2,
      "note": 72,
      "start": 8.286,
      "duration": 0.0356,
      "velocity": 117,
      "chip": "ym2612"
    },
    {
      "channel": 3,
      "note": 88,
      "start": 8.2867,
      "duration": 0.0356,
      "velocity": 107,
      "chip": "ym2612"
    },
    {
      "channel": 0,
      "note": 56,
      "start": 8.3211,
      "duration": 0.0355,
      "velocity": 82,
      "chip": "ym2612"
    },
    {
      "channel": 2,
      "note": 64,
      "start": 8.3221,
      "duration": 0.0522,
      "velocity": 117,
      "chip": "ym2612"
    },
    {
      "channel": 3,
      "note": 84,
      "start": 8.3229,
      "duration": 0.0521,
      "velocity": 107,
      "chip": "ym2612"
    },
    {
      "channel": 4,
      "note": 60,
      "start": 8.3423,
      "duration": 0.1514,
      "velocity": 91,
      "chip": "ym2612"
    },
    {
      "channel": 0,
      "note": 55,
      "start": 8.3733,
      "duration": 0.0376,
      "velocity": 82,
      "chip": "ym2612"
    },
    {
      "channel": 1,
      "note": 59,
      "start": 8.374,
      "duration": 0.6119,
      "velocity": 91,
      "chip": "ym2612"
    },
    {
      "channel": 2,
      "note": 67,
      "start": 8.3748,
      "duration": 0.0371,
      "velocity": 117,
      "chip": "ym2612"
    },
    {
      "channel": 3,
      "note": 79,
      "start": 8.3755,
      "duration": 0.0371,
      "velocity": 107,
      "chip": "ym2612"
    },
    {
      "channel": 0,
      "note": 55,
      "start": 8.4114,
      "duration": 0.1644,
      "velocity": 82,
      "chip": "ym2612"
    },
    {
      "channel": 2,
      "note": 67,
      "start": 8.4124,
      "duration": 0.1836,
      "velocity": 117,
      "chip": "ym2612"
    },
    {
      "channel": 3,
      "note": 83,
      "start": 8.4131,
      "duration": 0.1836,
      "velocity": 107,
      "chip": "ym2612"
    },
    {
      "channel": 4,
      "note": 59,
      "start": 8.4942,
      "duration": 0.6985,
      "velocity": 91,
      "chip": "ym2612"
    },
    {
      "channel": 0,
      "note": 55,
      "start": 8.5955,
      "duration": 0.0379,
      "velocity": 82,
      "chip": "ym2612"
    },
    {
      "channel": 2,
      "note": 65,
      "start": 8.5965,
      "duration": 0.0379,
      "velocity": 117,
      "chip": "ym2612"
    },
    {
      "channel": 3,
      "note": 86,
      "start": 8.5972,
      "duration": 0.0379,
      "velocity": 107,
      "chip": "ym2612"
    },
    {
      "channel": 0,
      "note": 55,
      "start": 8.6339,
      "duration": 0.0369,
      "velocity": 82,
      "chip": "ym2612"
    },
    {
      "channel": 2,
      "note": 67,
      "start": 8.6349,
      "duration": 0.0401,
      "velocity": 117,
      "chip": "ym2612"
    },
    {
      "channel": 3,
      "note": 79,
      "start": 8.6357,
      "duration": 0.0399,
      "velocity": 107,
      "chip": "ym2612"
    },
    {
      "channel": 0,
      "note": 55,
      "start": 8.6745,
      "duration": 0.1809,
      "velocity": 82,
      "chip": "ym2612"
    },
    {
      "channel": 2,
      "note": 71,
      "start": 8.6755,
      "duration": 0.181,
      "velocity": 117,
      "chip": "ym2612"
    },
    {
      "channel": 3,
      "note": 83,
      "start": 8.6762,
      "duration": 0.181,
      "velocity": 107,
      "chip": "ym2612"
    },
    {
      "channel": 0,
      "note": 55,
      "start": 8.856,
      "duration": 0.0364,
      "velocity": 82,
      "chip": "ym2612"
    },
    {
      "channel": 2,
      "note": 69,
      "start": 8.8571,
      "duration": 0.0426,
      "velocity": 117,
      "chip": "ym2612"
    },
    {
      "channel": 3,
      "note": 86,
      "start": 8.8578,
      "duration": 0.0427,
      "velocity": 107,
      "chip": "ym2612"
    },
    {
      "channel": 0,
      "note": 55,
      "start": 8.8992,
      "duration": 0.0357,
      "velocity": 82,
      "chip": "ym2612"
    },
    {
      "channel": 2,
      "note": 71,
      "start": 8.9002,
      "duration": 0.0357,
      "velocity": 117,
      "chip": "ym2612"
    },
    {
      "channel": 3,
      "note": 79,
      "start": 8.901,
      "duration": 0.0357,
      "velocity": 107,
      "chip": "ym2612"
    },
    {
      "channel": 0,
      "note": 55,
      "start": 8.9355,
      "duration": 0.035,
      "velocity": 82,
      "chip": "ym2612"
    },
    {
      "channel": 2,
      "note": 62,
      "start": 8.9365,
      "duration": 0.0502,
      "velocity": 117,
      "chip": "ym2612"
    },
    {
      "channel": 3,
      "note": 83,
      "start": 8.9373,
      "duration": 0.0502,
      "velocity": 107,
      "chip": "ym2612"
    },
    {
      "channel": 0,
      "note": 55,
      "start": 8.9858,
      "duration": 0.1851,
      "velocity": 82,
      "chip": "ym2612"
    },
    {
      "channel": 1,
      "note": 57,
      "start": 8.9865,
      "duration": 0.3032,
      "velocity": 91,
      "chip": "ym2612"
    },
    {
      "channel": 2,
      "note": 67,
      "start": 8.9873,
      "duration": 0.1846,
      "velocity": 117,
      "chip": "ym2612"
    },
    {
      "channel": 3,
      "note": 86,
      "start": 8.988,
      "duration": 0.1847,
      "velocity": 107,
      "chip": "ym2612"
    },
    {
      "channel": 0,
      "note": 55,
      "start": 9.1715,
      "duration": 0.0362,
      "velocity": 82,
      "chip": "ym2612"
    },
    {
      "channel": 2,
      "note": 67,
      "start": 9.1724,
      "duration": 0.0427,
      "velocity": 117,
      "chip": "ym2612"
    },
    {
      "channel": 3,
      "note": 79,
      "start": 9.1732,
      "duration": 0.0426,
      "velocity": 107,
      "chip": "ym2612"
    },
    {
      "channel": 4,
      "note": 57,
      "start": 9.1932,
      "duration": 0.2332,
      "velocity": 91,
      "chip": "ym2612"
    },
    {
      "channel": 0,
      "note": 55,
      "start": 9.2147,
      "duration": 0.0353,
      "velocity": 82,
      "chip": "ym2612"
    },
    {
      "channel": 2,
      "note": 65,
      "start": 9.2156,
      "duration": 0.0354,
      "velocity": 117,
      "chip": "ym2612"
    },
    {
      "channel": 3,
      "note": 83,
      "start": 9.2164,
      "duration": 0.0352,
      "velocity": 107,
      "chip": "ym2612"
    },
    {
      "channel": 0,
      "note": 55,
      "start": 9.2506,
      "duration": 0.0383,
      "velocity": 82,
      "chip": "ym2612"
    },
    {
      "channel": 2,
      "note": 67,
      "start": 9.2515,
      "duration": 0.0388,
      "velocity": 117,
      "chip": "ym2612"
    },
    {
      "channel": 3,
      "note": 86,
      "start": 9.2522,
      "duration": 0.0388,
      "velocity": 107,
      "chip": "ym2612"
    },
    {
      "channel": 0,
      "note": 55,
      "start": 9.2895,
      "duration": 0.0373,
      "velocity": 82,
      "chip": "ym2612"
    },
    {
      "channel": 1,
      "note": 55,
      "start": 9.2901,
      "duration": 0.3016,
      "velocity": 91,
      "chip": "ym2612"
    },
    {
      "channel": 2,
      "note": 71,
      "start": 9.2908,
      "duration": 0.04,
      "velocity": 117,
      "chip": "ym2612"
    },
    {
      "channel": 3,
      "note": 79,
      "start": 9.2917,
      "duration": 0.0399,
      "velocity": 107,
      "chip": "ym2612"
    },
    {
      "channel": 0,
      "note": 55,
      "start": 9.3304,
      "duration": 0.1806,
      "velocity": 82,
      "chip": "ym2612"
    },
    {
      "channel": 2,
      "note": 69,
      "start": 9.3314,
      "duration": 0.1806,
      "velocity": 117,
      "chip": "ym2612"
    },
    {
      "channel": 3,
      "note": 83,
      "start": 9.3321,
      "duration": 0.1806,
      "velocity": 107,
      "chip": "ym2612"
    },
    {
      "channel": 4,
      "note": 55,
      "start": 9.4269,
      "duration": 0.3016,
      "velocity": 91,
      "chip": "ym2612"
    },
    {
      "channel": 0,
      "note": 55,
      "start": 9.5116,
      "duration": 0.0354,
      "velocity": 82,
      "chip": "ym2612"
    },
    {
      "channel": 2,
      "note": 71,
      "start": 9.5126,
      "duration": 0.041,
      "velocity": 117,
      "chip": "ym2612"
    },
    {
      "channel": 3,
      "note": 86,
      "start": 9.5133,
      "duration": 0.041,
      "velocity": 107,
      "chip": "ym2612"
    },
    {
      "channel": 0,
      "note": 55,
      "start": 9.5531,
      "duration": 0.0379,
      "velocity": 82,
      "chip": "ym2612"
    },
    {
      "channel": 2,
      "note": 62,
      "start": 9.554,
      "duration": 0.0384,
      "velocity": 117,
      "chip": "ym2612"
    },
    {
      "channel": 3,
      "note": 83,
      "start": 9.5549,
      "duration": 0.0383,
      "velocity": 107,
      "chip": "ym2612"
    },
    {
      "channel": 0,
      "note": 53,
      "start": 9.5915,
      "duration": 0.0376,
      "velocity": 82,
      "chip": "ym2612"
    },
    {
      "channel": 1,
      "note": 57,
      "start": 9.5922,
      "duration": 0.9572,
      "velocity": 91,
      "chip": "ym2612"
    },
    {
      "channel": 2,
      "note": 65,
      "start": 9.593,
      "duration": 0.0401,
      "velocity": 117,
      "chip": "ym2612"
    },
    {
      "channel": 3,
      "note": 77,
      "start": 9.5937,
      "duration": 0.0401,
      "velocity": 107,
      "chip": "ym2612"
    },
    {
      "channel": 0,
      "note": 53,
      "start": 9.6327,
      "duration": 0.1803,
      "velocity": 82,
      "chip": "ym2612"
    },
    {
      "channel": 2,
      "note": 65,
      "start": 9.6337,
      "duration": 0.1804,
      "velocity": 117,
      "chip": "ym2612"
    },
    {
      "channel": 3,
      "note": 81,
      "start": 9.6344,
      "duration": 0.1804,
      "velocity": 107,
      "chip": "ym2612"
    },
    {
      "channel": 4,
      "note": 57,
      "start": 9.729,
      "duration": 1.0271,
      "velocity": 91,
      "chip": "ym2612"
    },
    {
      "channel": 0,
      "note": 53,
      "start": 9.8136,
      "duration": 0.0352,
      "velocity": 82,
      "chip": "ym2612"
    },
    {
      "channel": 2,
      "note": 64,
      "start": 9.8146,
      "duration": 0.0383,
      "velocity": 117,
      "chip": "ym2612"
    },
    {
      "channel": 3,
      "note": 84,
      "start": 9.8154,
      "duration": 0.0383,
      "velocity": 107,
      "chip": "ym2612"
    },
    {
      "channel": 0,
      "note": 53,
      "start": 9.8524,
      "duration": 0.0494,
      "velocity": 82,
      "chip": "ym2612"
    },
    {
      "channel": 2,
      "note": 65,
      "start": 9.8533,
      "duration": 0.0494,
      "velocity": 117,
      "chip": "ym2612"
    },
    {
      "channel": 3,
      "note": 77,
      "start": 9.8542,
      "duration": 0.0493,
      "velocity": 107,
      "chip": "ym2612"
    },
    {
      "channel": 0,
      "note": 53,
      "start": 9.9023,
      "duration": 0.0368,
      "velocity": 82,
      "chip": "ym2612"
    },
    {
      "channel": 2,
      "note": 69,
      "start": 9.9033,
      "duration": 0.0427,
      "velocity": 117,
      "chip": "ym2612"
    },
    {
      "channel": 3,
      "note": 81,
      "start": 9.904,
      "duration": 0.0427,
      "velocity": 107,
      "chip": "ym2612"
    },
    {
      "channel": 0,
      "note": 53,
      "start": 9.9456,
      "duration": 0.0392,
      "velocity": 82,
      "chip": "ym2612"
    },
    {
      "channel": 2,
      "note": 67,
      "start": 9.9466,
      "duration": 0.0393,
      "velocity": 117,
      "chip": "ym2612"
    },
    {
      "channel": 3,
      "note": 84,
      "start": 9.9473,
      "duration": 0.0393,
      "velocity": 107,
      "chip": "ym2612"
    },
    {
      "channel": 0,
      "note": 53,
      "start": 9.9854,
      "duration": 0.0353,
      "velocity": 82,
      "chip": "ym2612"
    },
    {
      "channel": 2,
      "note": 69,
      "start": 9.9863,
      "duration": 0.0384,
      "velocity": 117,
      "chip": "ym2612"
    },
    {
      "channel": 3,
      "note": 77,
      "start": 9.9872,
      "duration": 0.0382,
      "velocity": 107,
      "chip": "ym2612"
    },
    {
      "channel": 0,
      "note": 53,
      "start": 10.0243,
      "duration": 0.0492,
      "velocity": 82,
      "chip": "ym2612"
    },
    {
      "channel": 2,
      "note": 60,
      "start": 10.0253,
      "duration": 0.0498,
      "velocity": 117,
      "chip": "ym2612"
    },
    {
      "channel": 3,
      "note": 81,
      "start": 10.026,
      "duration": 0.0498,
      "velocity": 107,
      "chip": "ym2612"
    },
    {
      "channel": 0,
      "note": 53,
      "start": 10.0741,
      "duration": 0.0413,
      "velocity": 82,
      "chip": "ym2612"
    },
    {
      "channel": 2,
      "note": 65,
      "start": 10.0756,
      "duration": 0.0408,
      "velocity": 117,
      "chip": "ym2612"
    },
    {
      "channel": 3,
      "note": 84,
      "start": 10.0763,
      "duration": 0.0409,
      "velocity": 107,
      "chip": "ym2612"
    },
    {
      "channel": 0,
      "note": 53,
      "start": 10.1159,
      "duration": 0.036,
      "velocity": 82,
      "chip": "ym2612"
    },
    {
      "channel": 2,
      "note": 65,
      "start": 10.1169,
      "duration": 0.0427,
      "velocity": 117,
      "chip": "ym2612"
    },
    {
      "channel": 3,
      "note": 77,
      "start": 10.1177,
      "duration": 0.0426,
      "velocity": 107,
      "chip": "ym2612"
    },
    {
      "channel": 0,
      "note": 53,
      "start": 10.1591,
      "duration": 0.0378,
      "velocity": 82,
      "chip": "ym2612"
    },
    {
      "channel": 2,
      "note": 64,
      "start": 10.1601,
      "duration": 0.0378,
      "velocity": 117,
      "chip": "ym2612"
    },
    {
      "channel": 3,
      "note": 81,
      "start": 10.1609,
      "duration": 0.0377,
      "velocity": 107,
      "chip": "ym2612"
    },
    {
      "channel": 0,
      "note": 53,
      "start": 10.1975,
      "duration": 0.0368,
      "velocity": 82,
      "chip": "ym2612"
    },
    {
      "channel": 2,
      "note": 65,
      "start": 10.1984,
      "duration": 0.0399,
      "velocity": 117,
      "chip": "ym2612"
    },
    {
      "channel": 3,
      "note": 84,
      "start": 10.1991,
      "duration": 0.04,
      "velocity": 107,
      "chip": "ym2612"
    },
    {
      "channel": 0,
      "note": 53,
      "start": 10.2379,
      "duration": 0.1812,
      "velocity": 82,
      "chip": "ym2612"
    },
    {
      "channel": 2,
      "note": 69,
      "start": 10.2389,
      "duration": 0.1812,
      "velocity": 117,
      "chip": "ym2612"
    },
    {
      "channel": 3,
      "note": 77,
      "start": 10.2397,
      "duration": 0.181,
      "velocity": 107,
      "chip": "ym2612"
    },
    {
      "channel": 0,
      "note": 53,
      "start": 10.4196,
      "duration": 0.0362,
      "velocity": 82,
      "chip": "ym2612"
    },
    {
      "channel": 2,
      "note": 67,
      "start": 10.4206,
      "duration": 0.0427,
      "velocity": 117,
      "chip": "ym2612"
    },
    {
      "channel": 3,
      "note": 81,
      "start": 10.4213,
      "duration": 0.0427,
      "velocity": 107,
      "chip": "ym2612"
    },
    {
      "channel": 0,
      "note": 53,
      "start": 10.4629,
      "duration": 0.0354,
      "velocity": 82,
      "chip": "ym2612"
    },
    {
      "channel": 2,
      "note": 69,
      "start": 10.4639,
      "duration": 0.0353,
      "velocity": 117,
      "chip": "ym2612"
    },
    {
      "channel": 3,
      "note": 84,
      "start": 10.4646,
      "duration": 0.0354,
      "velocity": 107,
      "chip": "ym2612"
    },
    {
      "channel": 0,
      "note": 54,
      "start": 10.4987,
      "duration": 0.0349,
      "velocity": 82,
      "chip": "ym2612"
    },
    {
      "channel": 2,
      "note": 60,
      "start": 10.4997,
      "duration": 0.0504,
      "velocity": 117,
      "chip": "ym2612"
    },
    {
      "channel": 3,
      "note": 81,
      "start": 10.5005,
      "duration": 0.0503,
      "velocity": 107,
      "chip": "ym2612"
    },
    {
      "channel": 0,
      "note": 55,
      "start": 10.5492,
      "duration": 0.1852,
      "velocity": 82,
      "chip": "ym2612"
    },
    {
      "channel": 1,
      "note": 59,
      "start": 10.5499,
      "duration": 0.6113,
      "velocity": 91,
      "chip": "ym2612"
    },
    {
      "channel": 2,
      "note": 67,
      "start": 10.5507,
      "duration": 0.1847,
      "velocity": 117,
      "chip": "ym2612"
    },
    {
      "channel": 3,
      "note": 79,
      "start": 10.5514,
      "duration": 0.1847,
      "velocity": 107,
      "chip": "ym2612"
    },
    {
      "channel": 0,
      "note": 55,
      "start": 10.735,
      "duration": 0.036,
      "velocity": 82,
      "chip": "ym2612"
    },
    {
      "channel": 2,
      "note": 67,
      "start": 10.7359,
      "duration": 0.0427,
      "velocity": 117,
      "chip": "ym2612"
    },
    {
      "channel": 3,
      "note": 83,
      "start": 10.7367,
      "duration": 0.0427,
      "velocity": 107,
      "chip": "ym2612"
    },
    {
      "channel": 4,
      "note": 59,
      "start": 10.7565,
      "duration": 0.6265,
      "velocity": 91,
      "chip": "ym2612"
    },
    {
      "channel": 0,
      "note": 55,
      "start": 10.7782,
      "duration": 0.0355,
      "velocity": 82,
      "chip": "ym2612"
    },
    {
      "channel": 2,
      "note": 65,
      "start": 10.7791,
      "duration": 0.0356,
      "velocity": 117,
      "chip": "ym2612"
    },
    {
      "channel": 3,
      "note": 86,
      "start": 10.7799,
      "duration": 0.0356,
      "velocity": 107,
      "chip": "ym2612"
    },
    {
      "channel": 0,
      "note": 55,
      "start": 10.8143,
      "duration": 0.0362,
      "velocity": 82,
      "chip": "ym2612"
    },
    {
      "channel": 2,
      "note": 67,
      "start": 10.8152,
      "duration": 0.0522,
      "velocity": 117,
      "chip": "ym2612"
    },
    {
      "channel": 3,
      "note": 79,
      "start": 10.8161,
      "duration": 0.0521,
      "velocity": 107,
      "chip": "ym2612"
    },
    {
      "channel": 0,
      "note": 55,
      "start": 10.867,
      "duration": 0.0369,
      "velocity": 82,
      "chip": "ym2612"
    },
    {
      "channel": 2,
      "note": 71,
      "start": 10.868,
      "duration": 0.0369,
      "velocity": 117,
      "chip": "ym2612"
    },
    {
      "channel": 3,
      "note": 83,
      "start": 10.8688,
      "duration": 0.0369,
      "velocity": 107,
      "chip": "ym2612"
    },
    {
      "channel": 0,
      "note": 55,
      "start": 10.9045,
      "duration": 0.165,
      "velocity": 82,
      "chip": "ym2612"
    },
    {
      "channel": 2,
      "note": 69,
      "start": 10.9055,
      "duration": 0.1842,
      "velocity": 117,
      "chip": "ym2612"
    },
    {
      "channel": 3,
      "note": 86,
      "start": 10.9062,
      "duration": 0.1842,
      "velocity": 107,
      "chip": "ym2612"
    },
    {
      "channel": 0,
      "note": 55,
      "start": 11.0892,
      "duration": 0.0357,
      "velocity": 82,
      "chip": "ym2612"
    },
    {
      "channel": 2,
      "note": 71,
      "start": 11.0902,
      "duration": 0.0357,
      "velocity": 117,
      "chip": "ym2612"
    },
    {
      "channel": 3,
      "note": 79,
      "start": 11.091,
      "duration": 0.0356,
      "velocity": 107,
      "chip": "ym2612"
    },
    {
      "channel": 0,
      "note": 55,
      "start": 11.1254,
      "duration": 0.0351,
      "velocity": 82,
      "chip": "ym2612"
    },
    {
      "channel": 2,
      "note": 62,
      "start": 11.1264,
      "duration": 0.0355,
      "velocity": 117,
      "chip": "ym2612"
    },
    {
      "channel": 3,
      "note": 83,
      "start": 11.1272,
      "duration": 0.0355,
      "velocity": 107,
      "chip": "ym2612"
    },
    {
      "channel": 0,
      "note": 55,
      "start": 11.1611,
      "duration": 0.1806,
      "velocity": 82,
      "chip": "ym2612"
    },
    {
      "channel": 1,
      "note": 47,
      "start": 11.1618,
      "duration": 0.1301,
      "velocity": 91,
      "chip": "ym2612"
    },
    {
      "channel": 2,
      "note": 67,
      "start": 11.1625,
      "duration": 0.1993,
      "velocity": 117,
      "chip": "ym2612"
    },
    {
      "channel": 3,
      "note": 86,
      "start": 11.1632,
      "duration": 0.1994,
      "velocity": 107,
      "chip": "ym2612"
    },
    {
      "channel": 1,
      "note": 48,
      "start": 11.2925,
      "duration": 0.0831,
      "velocity": 91,
      "chip": "ym2612"
    },
    {
      "channel": 0,
      "note": 55,
      "start": 11.3614,
      "duration": 0.0392,
      "velocity": 82,
      "chip": "ym2612"
    },
    {
      "channel": 2,
      "note": 67,
      "start": 11.3623,
      "duration": 0.0397,
      "velocity": 117,
      "chip": "ym2612"
    },
    {
      "channel": 3,
      "note": 79,
      "start": 11.3632,
      "duration": 0.0395,
      "velocity": 107,
      "chip": "ym2612"
    },
    {
      "channel": 1,
      "note": 50,
      "start": 11.3761,
      "duration": 0.0253,
      "velocity": 91,
      "chip": "ym2612"
    },
    {
      "channel": 4,
      "note": 47,
      "start": 11.3835,
      "duration": 0.0267,
      "velocity": 91,
      "chip": "ym2612"
    },
    {
      "channel": 0,
      "note": 55,
      "start": 11.4012,
      "duration": 0.0368,
      "velocity": 82,
      "chip": "ym2612"
    },
    {
      "channel": 1,
      "note": 48,
      "start": 11.4018,
      "duration": 0.0266,
      "velocity": 91,
      "chip": "ym2612"
    },
    {
      "channel": 2,
      "note": 65,
      "start": 11.4025,
      "duration": 0.0395,
      "velocity": 117,
      "chip": "ym2612"
    },
    {
      "channel": 3,
      "note": 83,
      "start": 11.4032,
      "duration": 0.0395,
      "velocity": 107,
      "chip": "ym2612"
    },
    {
      "channel": 4,
      "note": 48,
      "start": 11.4107,
      "duration": 0.025,
      "velocity": 91,
      "chip": "ym2612"
    },
    {
      "channel": 1,
      "note": 50,
      "start": 11.4289,
      "duration": 0.027,
      "velocity": 91,
      "chip": "ym2612"
    },
    {
      "channel": 4,
      "note": 50,
      "start": 11.4363,
      "duration": 0.0271,
      "velocity": 91,
      "chip": "ym2612"
    },
    {
      "channel": 0,
      "note": 55,
      "start": 11.4416,
      "duration": 0.0482,
      "velocity": 82,
      "chip": "ym2612"
    },
    {
      "channel": 2,
      "note": 67,
      "start": 11.4425,
      "duration": 0.0486,
      "velocity": 117,
      "chip": "ym2612"
    },
    {
      "channel": 3,
      "note": 86,
      "start": 11.4433,
      "duration": 0.0486,
      "velocity": 107,
      "chip": "ym2612"
    },
    {
      "channel": 1,
      "note": 52,
      "start": 11.4563,
      "duration": 0.034,
      "velocity": 91,
      "chip": "ym2612"
    },
    {
      "channel": 4,
      "note": 48,
      "start": 11.4639,
      "duration": 0.0363,
      "velocity": 91,
      "chip": "ym2612"
    },
    {
      "channel": 0,
      "note": 55,
      "start": 11.4902,
      "duration": 0.0388,
      "velocity": 82,
      "chip": "ym2612"
    },
    {
      "channel": 1,
      "note": 50,
      "start": 11.491,
      "duration": 0.0279,
      "velocity": 91,
      "chip": "ym2612"
    },
    {
      "channel": 2,
      "note": 67,
      "start": 11.4917,
      "duration": 0.0278,
      "velocity": 117,
      "chip": "ym2612"
    },
    {
      "channel": 3,
      "note": 79,
      "start": 11.4924,
      "duration": 0.0433,
      "velocity": 107,
      "chip": "ym2612"
    },
    {
      "channel": 4,
      "note": 50,
      "start": 11.5006,
      "duration": 0.0261,
      "velocity": 91,
      "chip": "ym2612"
    },
    {
      "channel": 1,
      "note": 52,
      "start": 11.5193,
      "duration": 0.0295,
      "velocity": 91,
      "chip": "ym2612"
    },
    {
      "channel": 2,
      "note": 71,
      "start": 11.52,
      "duration": 0.0295,
      "velocity": 117,
      "chip": "ym2612"
    },
    {
      "channel": 4,
      "note": 52,
      "start": 11.5273,
      "duration": 0.0263,
      "velocity": 91,
      "chip": "ym2612"
    },
    {
      "channel": 0,
      "note": 67,
      "start": 11.535,
      "duration": 0.0391,
      "velocity": 82,
      "chip": "ym2612"
    },
    {
      "channel": 3,
      "note": 83,
      "start": 11.5363,
      "duration": 0.0398,
      "velocity": 107,
      "chip": "ym2612"
    },
    {
      "channel": 1,
      "note": 53,
      "start": 11.5493,
      "duration": 0.0254,
      "velocity": 91,
      "chip": "ym2612"
    },
    {
      "channel": 2,
      "note": 74,
      "start": 11.55,
      "duration": 0.0254,
      "velocity": 117,
      "chip": "ym2612"
    },
    {
      "channel": 4,
      "note": 50,
      "start": 11.5541,
      "duration": 0.0294,
      "velocity": 91,
      "chip": "ym2612"
    },
    {
      "channel": 0,
      "note": 56,
      "start": 11.5746,
      "duration": 0.0366,
      "velocity": 82,
      "chip": "ym2612"
    },
    {
      "channel": 1,
      "note": 52,
      "start": 11.5753,
      "duration": 0.026,
      "velocity": 91,
      "chip": "ym2612"
    },
    {
      "channel": 2,
      "note": 59,
      "start": 11.576,
      "duration": 0.0259,
      "velocity": 117,
      "chip": "ym2612"
    },
    {
      "channel": 3,
      "note": 84,
      "start": 11.5767,
      "duration": 0.0411,
      "velocity": 107,
      "chip": "ym2612"
    },
    {
      "channel": 4,
      "note": 52,
      "start": 11.584,
      "duration": 0.0251,
      "velocity": 91,
      "chip": "ym2612"
    },
    {
      "channel": 1,
      "note": 53,
      "start": 11.6018,
      "duration": 0.0254,
      "velocity": 91,
      "chip": "ym2612"
    },
    {
      "channel": 2,
      "note": 62,
      "start": 11.6025,
      "duration": 0.0254,
      "velocity": 117,
      "chip": "ym2612"
    },
    {
      "channel": 4,
      "note": 53,
      "start": 11.6095,
      "duration": 0.0255,
      "velocity": 91,
      "chip": "ym2612"
    },
    {
      "channel": 0,
      "note": 68,
      "start": 11.6171,
      "duration": 0.0383,
      "velocity": 82,
      "chip": "ym2612"
    },
    {
      "channel": 3,
      "note": 86,
      "start": 11.6185,
      "duration": 0.0392,
      "velocity": 107,
      "chip": "ym2612"
    },
    {
      "channel": 1,
      "note": 56,
      "start": 11.6278,
      "duration": 0.0284,
      "velocity": 91,
      "chip": "ym2612"
    },
    {
      "channel": 2,
      "note": 68,
      "start": 11.6285,
      "duration": 0.0284,
      "velocity": 117,
      "chip": "ym2612"
    },
    {
      "channel": 4,
      "note": 52,
      "start": 11.6355,
      "duration": 0.0308,
      "velocity": 91,
      "chip": "ym2612"
    },
    {
      "channel": 0,
      "note": 57,
      "start": 11.6559,
      "duration": 0.0385,
      "velocity": 82,
      "chip": "ym2612"
    },
    {
      "channel": 1,
      "note": 57,
      "start": 11.6567,
      "duration": 0.926,
      "velocity": 91,
      "chip": "ym2612"
    },
    {
      "channel": 2,
      "note": 69,
      "start": 11.6575,
      "duration": 0.0412,
      "velocity": 117,
      "chip": "ym2612"
    },
    {
      "channel": 3,
      "note": 81,
      "start": 11.6582,
      "duration": 0.0411,
      "velocity": 107,
      "chip": "ym2612"
    },
    {
      "channel": 4,
      "note": 53,
      "start": 11.6668,
      "duration": 0.0253,
      "velocity": 91,
      "chip": "ym2612"
    },
    {
      "channel": 4,
      "note": 56,
      "start": 11.6926,
      "duration": 0.0833,
      "velocity": 91,
      "chip": "ym2612"
    },
    {
      "channel": 0,
      "note": 57,
      "start": 11.6982,
      "duration": 0.1789,
      "velocity": 82,
      "chip": "ym2612"
    },
    {
      "channel": 2,
      "note": 69,
      "start": 11.6991,
      "duration": 0.179,
      "velocity": 117,
      "chip": "ym2612"
    },
    {
      "channel": 3,
      "note": 84,
      "start": 11.6999,
      "duration": 0.1789,
      "velocity": 107,
      "chip": "ym2612"
    },
    {
      "channel": 4,
      "note": 57,
      "start": 11.7764,
      "duration": 1.0096,
      "velocity": 91,
      "chip": "ym2612"
    },
    {
      "channel": 0,
      "note": 57,
      "start": 11.8777,
      "duration": 0.0351,
      "velocity": 82,
      "chip": "ym2612"
    },
    {
      "channel": 2,
      "note": 67,
      "start": 11.8787,
      "duration": 0.0382,
      "velocity": 117,
      "chip": "ym2612"
    },
    {
      "channel": 3,
      "note": 88,
      "start": 11.8794,
      "duration": 0.0382,
      "velocity": 107,
      "chip": "ym2612"
    },
    {
      "channel": 0,
      "note": 57,
      "start": 11.9164,
      "duration": 0.047,
      "velocity": 82,
      "chip": "ym2612"
    },
    {
      "channel": 2,
      "note": 69,
      "start": 11.9174,
      "duration": 0.047,
      "velocity": 117,
      "chip": "ym2612"
    },
    {
      "channel": 3,
      "note": 81,
      "start": 11.9183,
      "duration": 0.0469,
      "velocity": 107,
      "chip": "ym2612"
    },
    {
      "channel": 0,
      "note": 57,
      "start": 11.964,
      "duration": 0.1851,
      "velocity": 82,
      "chip": "ym2612"
    },
    {
      "channel": 2,
      "note": 72,
      "start": 11.9649,
      "duration": 0.1851,
      "velocity": 117,
      "chip": "ym2612"
    },
    {
      "channel": 3,
      "note": 84,
      "start": 11.9657,
      "duration": 0.1851,
      "velocity": 107,
      "chip": "ym2612"
    },
    {
      "channel": 0,
      "note": 57,
      "start": 12.1496,
      "duration": 0.0362,
      "velocity": 82,
      "chip": "ym2612"
    },
    {
      "channel": 2,
      "note": 71,
      "start": 12.1506,
      "duration": 0.0427,
      "velocity": 117,
      "chip": "ym2612"
    },
    {
      "channel": 3,
      "note": 88,
      "start": 12.1513,
      "duration": 0.0427,
      "velocity": 107,
      "chip": "ym2612"
    },
    {
      "channel": 0,
      "note": 57,
      "start": 12.1928,
      "duration": 0.0355,
      "velocity": 82,
      "chip": "ym2612"
    },
    {
      "channel": 2,
      "note": 72,
      "start": 12.1939,
      "duration": 0.0355,
      "velocity": 117,
      "chip": "ym2612"
    },
    {
      "channel": 3,
      "note": 81,
      "start": 12.1947,
      "duration": 0.0353,
      "velocity": 107,
      "chip": "ym2612"
    },
    {
      "channel": 0,
      "note": 57,
      "start": 12.2289,
      "duration": 0.0348,
      "velocity": 82,
      "chip": "ym2612"
    },
    {
      "channel": 2,
      "note": 64,
      "start": 12.2299,
      "duration": 0.0527,
      "velocity": 117,
      "chip": "ym2612"
    },
    {
      "channel": 3,
      "note": 84,
      "start": 12.2306,
      "duration": 0.0527,
      "velocity": 107,
      "chip": "ym2612"
    },
    {
      "channel": 0,
      "note": 57,
      "start": 12.2816,
      "duration": 0.0375,
      "velocity": 82,
      "chip": "ym2612"
    },
    {
      "channel": 2,
      "note": 69,
      "start": 12.2831,
      "duration": 0.037,
      "velocity": 117,
      "chip": "ym2612"
    },
    {
      "channel": 3,
      "note": 88,
      "start": 12.2838,
      "duration": 0.0371,
      "velocity": 107,
      "chip": "ym2612"
    },
    {
      "channel": 0,
      "note": 57,
      "start": 12.3197,
      "duration": 0.1644,
      "velocity": 82,
      "chip": "ym2612"
    },
    {
      "channel": 2,
      "note": 69,
      "start": 12.3206,
      "duration": 0.1836,
      "velocity": 117,
      "chip": "ym2612"
    },
    {
      "channel": 3,
      "note": 81,
      "start": 12.3215,
      "duration": 0.1834,
      "velocity": 107,
      "chip": "ym2612"
    },
    {
      "channel": 0,
      "note": 57,
      "start": 12.5037,
      "duration": 0.0377,
      "velocity": 82,
      "chip": "ym2612"
    },
    {
      "channel": 2,
      "note": 67,
      "start": 12.5048,
      "duration": 0.0377,
      "velocity": 117,
      "chip": "ym2612"
    },
    {
      "channel": 3,
      "note": 84,
      "start": 12.5055,
      "duration": 0.0377,
      "velocity": 107,
      "chip": "ym2612"
    },
    {
      "channel": 0,
      "note": 57,
      "start": 12.542,
      "duration": 0.0368,
      "velocity": 82,
      "chip": "ym2612"
    },
    {
      "channel": 2,
      "note": 69,
      "start": 12.5431,
      "duration": 0.04,
      "velocity": 117,
      "chip": "ym2612"
    },
    {
      "channel": 3,
      "note": 88,
      "start": 12.5438,
      "duration": 0.04,
      "velocity": 107,
      "chip": "ym2612"
    },
    {
      "channel": 0,
      "note": 57,
      "start": 12.5826,
      "duration": 0.1811,
      "velocity": 82,
      "chip": "ym2612"
    },
    {
      "channel": 2,
      "note": 72,
      "start": 12.5836,
      "duration": 0.1815,
      "velocity": 117,
      "chip": "ym2612"
    },
    {
      "channel": 3,
      "note": 81,
      "start": 12.5844,
      "duration": 0.1814,
      "velocity": 107,
      "chip": "ym2612"
    },
    {
      "channel": 0,
      "note": 57,
      "start": 12.7642,
      "duration": 0.0358,
      "velocity": 82,
      "chip": "ym2612"
    },
    {
      "channel": 1,
      "note": 57,
      "start": 12.7649,
      "duration": 0.041,
      "velocity": 91,
      "chip": "ym2612"
    },
    {
      "channel": 2,
      "note": 71,
      "start": 12.7656,
      "duration": 0.041,
      "velocity": 117,
      "chip": "ym2612"
    },
    {
      "channel": 3,
      "note": 84,
      "start": 12.7663,
      "duration": 0.041,
      "velocity": 107,
      "chip": "ym2612"
    },
    {
      "channel": 0,
      "note": 57,
      "start": 12.8058,
      "duration": 0.0351,
      "velocity": 82,
      "chip": "ym2612"
    },
    {
      "channel": 1,
      "note": 59,
      "start": 12.8065,
      "duration": 0.035,
      "velocity": 91,
      "chip": "ym2612"
    },
    {
      "channel": 2,
      "note": 72,
      "start": 12.8072,
      "duration": 0.035,
      "velocity": 117,
      "chip": "ym2612"
    },
    {
      "channel": 3,
      "note": 88,
      "start": 12.8079,
      "duration": 0.0351,
      "velocity": 107,
      "chip": "ym2612"
    },
    {
      "channel": 4,
      "note": 57,
      "start": 12.8234,
      "duration": 0.039,
      "velocity": 91,
      "chip": "ym2612"
    },
    {
      "channel": 0,
      "note": 56,
      "start": 12.8414,
      "duration": 0.0358,
      "velocity": 82,
      "chip": "ym2612"
    },
    {
      "channel": 1,
      "note": 60,
      "start": 12.8421,
      "duration": 0.0524,
      "velocity": 91,
      "chip": "ym2612"
    },
    {
      "channel": 2,
      "note": 64,
      "start": 12.8428,
      "duration": 0.0526,
      "velocity": 117,
      "chip": "ym2612"
    },
    {
      "channel": 3,
      "note": 84,
      "start": 12.8436,
      "duration": 0.0525,
      "velocity": 107,
      "chip": "ym2612"
    },
    {
      "channel": 4,
      "note": 59,
      "start": 12.8629,
      "duration": 0.0509,
      "velocity": 91,
      "chip": "ym2612"
    },
    {
      "channel": 0,
      "note": 55,
      "start": 12.8944,
      "duration": 0.038,
      "velocity": 82,
      "chip": "ym2612"
    },
    {
      "channel": 1,
      "note": 59,
      "start": 12.8951,
      "duration": 0.9257,
      "velocity": 91,
      "chip": "ym2612"
    },
    {
      "channel": 2,
      "note": 67,
      "start": 12.8959,
      "duration": 0.0376,
      "velocity": 117,
      "chip": "ym2612"
    },
    {
      "channel": 3,
      "note": 79,
      "start": 12.8966,
      "duration": 0.0375,
      "velocity": 107,
      "chip": "ym2612"
    },
    {
      "channel": 4,
      "note": 60,
      "start": 12.9143,
      "duration": 0.1005,
      "velocity": 91,
      "chip": "ym2612"
    },
    {
      "channel": 0,
      "note": 55,
      "start": 12.933,
      "duration": 0.1664,
      "velocity": 82,
      "chip": "ym2612"
    },
    {
      "channel": 2,
      "note": 67,
      "start": 12.9339,
      "duration": 0.1665,
      "velocity": 117,
      "chip": "ym2612"
    },
    {
      "channel": 3,
      "note": 83,
      "start": 12.9346,
      "duration": 0.1665,
      "velocity": 107,
      "chip": "ym2612"
    },
    {
      "channel": 4,
      "note": 59,
      "start": 13.0153,
      "duration": 0.9256,
      "velocity": 91,
      "chip": "ym2612"
    },
    {
      "channel": 0,
      "note": 55,
      "start": 13.1,
      "duration": 0.0354,
      "velocity": 82,
      "chip": "ym2612"
    },
    {
      "channel": 2,
      "note": 65,
      "start": 13.1009,
      "duration": 0.041,
      "velocity": 117,
      "chip": "ym2612"
    },
    {
      "channel": 3,
      "note": 86,
      "start": 13.1017,
      "duration": 0.041,
      "velocity": 107,
      "chip": "ym2612"
    },
    {
      "channel": 0,
      "note": 55,
      "start": 13.1415,
      "duration": 0.0369,
      "velocity": 82,
      "chip": "ym2612"
    },
    {
      "channel": 2,
      "note": 67,
      "start": 13.1424,
      "duration": 0.037,
      "velocity": 117,
      "chip": "ym2612"
    },
    {
      "channel": 3,
      "note": 79,
      "start": 13.1433,
      "duration": 0.0369,
      "velocity": 107,
      "chip": "ym2612"
    },
    {
      "channel": 0,
      "note": 55,
      "start": 13.179,
      "duration": 0.1649,
      "velocity": 82,
      "chip": "ym2612"
    },
    {
      "channel": 2,
      "note": 71,
      "start": 13.18,
      "duration": 0.184,
      "velocity": 117,
      "chip": "ym2612"
    },
    {
      "channel": 3,
      "note": 83,
      "start": 13.1807,
      "duration": 0.1839,
      "velocity": 107,
      "chip": "ym2612"
    },
    {
      "channel": 0,
      "note": 55,
      "start": 13.3635,
      "duration": 0.0392,
      "velocity": 82,
      "chip": "ym2612"
    },
    {
      "channel": 2,
      "note": 69,
      "start": 13.3645,
      "duration": 0.0392,
      "velocity": 117,
      "chip": "ym2612"
    },
    {
      "channel": 3,
      "note": 86,
      "start": 13.3652,
      "duration": 0.0392,
      "velocity": 107,
      "chip": "ym2612"
    },
    {
      "channel": 0,
      "note": 55,
      "start": 13.4032,
      "duration": 0.0355,
      "velocity": 82,
      "chip": "ym2612"
    },
    {
      "channel": 2,
      "note": 71,
      "start": 13.4042,
      "duration": 0.0386,
      "velocity": 117,
      "chip": "ym2612"
    },
    {
      "channel": 3,
      "note": 79,
      "start": 13.405,
      "duration": 0.0385,
      "velocity": 107,
      "chip": "ym2612"
    },
    {
      "channel": 0,
      "note": 55,
      "start": 13.4423,
      "duration": 0.0468,
      "velocity": 82,
      "chip": "ym2612"
    },
    {
      "channel": 2,
      "note": 62,
      "start": 13.4433,
      "duration": 0.0473,
      "velocity": 117,
      "chip": "ym2612"
    },
    {
      "channel": 3,
      "note": 83,
      "start": 13.4441,
      "duration": 0.0472,
      "velocity": 107,
      "chip": "ym2612"
    },
    {
      "channel": 0,
      "note": 55,
      "start": 13.4897,
      "duration": 0.1827,
      "velocity": 82,
      "chip": "ym2612"
    },
    {
      "channel": 2,
      "note": 67,
      "start": 13.4911,
      "duration": 0.2013,
      "velocity": 117,
      "chip": "ym2612"
    },
    {
      "channel": 3,
      "note": 86,
      "start": 13.4918,
      "duration": 0.2014,
      "velocity": 107,
      "chip": "ym2612"
    },
    {
      "channel": 0,
      "note": 55,
      "start": 13.692,
      "duration": 0.0392,
      "velocity": 82,
      "chip": "ym2612"
    },
    {
      "channel": 2,
      "note": 67,
      "start": 13.693,
      "duration": 0.0392,
      "velocity": 117,
      "chip": "ym2612"
    },
    {
      "channel": 3,
      "note": 79,
      "start": 13.6938,
      "duration": 0.0391,
      "velocity": 107,
      "chip": "ym2612"
    },
    {
      "channel": 0,
      "note": 55,
      "start": 13.7317,
      "duration": 0.0356,
      "velocity": 82,
      "chip": "ym2612"
    },
    {
      "channel": 2,
      "note": 65,
      "start": 13.7327,
      "duration": 0.0386,
      "velocity": 117,
      "chip": "ym2612"
    },
    {
      "channel": 3,
      "note": 83,
      "start": 13.7335,
      "duration": 0.0386,
      "velocity": 107,
      "chip": "ym2612"
    },
    {
      "channel": 0,
      "note": 55,
      "start": 13.7709,
      "duration": 0.0492,
      "velocity": 82,
      "chip": "ym2612"
    },
    {
      "channel": 2,
      "note": 67,
      "start": 13.7718,
      "duration": 0.0493,
      "velocity": 117,
      "chip": "ym2612"
    },
    {
      "channel": 3,
      "note": 86,
      "start": 13.7726,
      "duration": 0.0493,
      "velocity": 107,
      "chip": "ym2612"
    },
    {
      "channel": 0,
      "note": 55,
      "start": 13.8206,
      "duration": 0.0344,
      "velocity": 82,
      "chip": "ym2612"
    },
    {
      "channel": 2,
      "note": 71,
      "start": 13.8217,
      "duration": 0.0377,
      "velocity": 117,
      "chip": "ym2612"
    },
    {
      "channel": 3,
      "note": 79,
      "start": 13.8224,
      "duration": 0.0377,
      "velocity": 107,
      "chip": "ym2612"
    },
    {
      "channel": 0,
      "note": 55,
      "start": 13.8585,
      "duration": 0.1837,
      "velocity": 82,
      "chip": "ym2612"
    },
    {
      "channel": 1,
      "note": 59,
      "start": 13.8592,
      "duration": 0.1837,
      "velocity": 91,
      "chip": "ym2612"
    },
    {
      "channel": 2,
      "note": 69,
      "start": 13.8599,
      "duration": 0.1837,
      "velocity": 117,
      "chip": "ym2612"
    },
    {
      "channel": 3,
      "note": 83,
      "start": 13.8607,
      "duration": 0.1837,
      "velocity": 107,
      "chip": "ym2612"
    },
    {
      "channel": 0,
      "note": 55,
      "start": 14.0428,
      "duration": 0.0378,
      "velocity": 82,
      "chip": "ym2612"
    },
    {
      "channel": 1,
      "note": 60,
      "start": 14.0435,
      "duration": 0.0378,
      "velocity": 91,
      "chip": "ym2612"
    },
    {
      "channel": 2,
      "note": 71,
      "start": 14.0442,
      "duration": 0.0378,
      "velocity": 117,
      "chip": "ym2612"
    },
    {
      "channel": 3,
      "note": 86,
      "start": 14.0449,
      "duration": 0.0378,
      "velocity": 107,
      "chip": "ym2612"
    },
    {
      "channel": 4,
      "note": 59,
      "start": 14.0632,
      "duration": 0.0393,
      "velocity": 91,
      "chip": "ym2612"
    },
    {
      "channel": 0,
      "note": 55,
      "start": 14.0811,
      "duration": 0.0363,
      "velocity": 82,
      "chip": "ym2612"
    },
    {
      "channel": 1,
      "note": 62,
      "start": 14.0818,
      "duration": 0.042,
      "velocity": 91,
      "chip": "ym2612"
    },
    {
      "channel": 2,
      "note": 62,
      "start": 14.0825,
      "duration": 0.042,
      "velocity": 117,
      "chip": "ym2612"
    },
    {
      "channel": 3,
      "note": 83,
      "start": 14.0833,
      "duration": 0.042,
      "velocity": 107,
      "chip": "ym2612"
    },
    {
      "channel": 4,
      "note": 60,
      "start": 14.1031,
      "duration": 0.0432,
      "velocity": 91,
      "chip": "ym2612"
    },
    {
      "channel": 0,
      "note": 53,
      "start": 14.1236,
      "duration": 0.038,
      "velocity": 82,
      "chip": "ym2612"
    },
    {
      "channel": 1,
      "note": 60,
      "start": 14.1243,
      "duration": 0.6429,
      "velocity": 91,
      "chip": "ym2612"
    },
    {
      "channel": 2,
      "note": 65,
      "start": 14.1251,
      "duration": 0.0375,
      "velocity": 117,
      "chip": "ym2612"
    },
    {
      "channel": 3,
      "note": 77,
      "start": 14.1259,
      "duration": 0.0375,
      "velocity": 107,
      "chip": "ym2612"
    },
    {
      "channel": 4,
      "note": 62,
      "start": 14.1468,
      "duration": 0.0971,
      "velocity": 91,
      "chip": "ym2612"
    },
    {
      "channel": 0,
      "note": 53,
      "start": 14.1622,
      "duration": 0.1638,
      "velocity": 82,
      "chip": "ym2612"
    },
    {
      "channel": 2,
      "note": 65,
      "start": 14.1632,
      "duration": 0.183,
      "velocity": 117,
      "chip": "ym2612"
    },
    {
      "channel": 3,
      "note": 81,
      "start": 14.1639,
      "duration": 0.183,
      "velocity": 107,
      "chip": "ym2612"
    },
    {
      "channel": 4,
      "note": 60,
      "start": 14.2444,
      "duration": 0.729,
      "velocity": 91,
      "chip": "ym2612"
    },
    {
      "channel": 0,
      "note": 53,
      "start": 14.3457,
      "duration": 0.0354,
      "velocity": 82,
      "chip": "ym2612"
    },
    {
      "channel": 2,
      "note": 64,
      "start": 14.3466,
      "duration": 0.0355,
      "velocity": 117,
      "chip": "ym2612"
    },
    {
      "channel": 3,
      "note": 84,
      "start": 14.3474,
      "duration": 0.0355,
      "velocity": 107,
      "chip": "ym2612"
    },
    {
      "channel": 0,
      "note": 53,
      "start": 14.3817,
      "duration": 0.0362,
      "velocity": 82,
      "chip": "ym2612"
    },
    {
      "channel": 2,
      "note": 65,
      "start": 14.3827,
      "duration": 0.0523,
      "velocity": 117,
      "chip": "ym2612"
    },
    {
      "channel": 3,
      "note": 77,
      "start": 14.3835,
      "duration": 0.0522,
      "velocity": 107,
      "chip": "ym2612"
    },
    {
      "channel": 0,
      "note": 53,
      "start": 14.4345,
      "duration": 0.0393,
      "velocity": 82,
      "chip": "ym2612"
    },
    {
      "channel": 2,
      "note": 69,
      "start": 14.4355,
      "duration": 0.0393,
      "velocity": 117,
      "chip": "ym2612"
    },
    {
      "channel": 3,
      "note": 81,
      "start": 14.4362,
      "duration": 0.0392,
      "velocity": 107,
      "chip": "ym2612"
    },
    {
      "channel": 0,
      "note": 53,
      "start": 14.4744,
      "duration": 0.0363,
      "velocity": 82,
      "chip": "ym2612"
    },
    {
      "channel": 2,
      "note": 67,
      "start": 14.4753,
      "duration": 0.0426,
      "velocity": 117,
      "chip": "ym2612"
    },
    {
      "channel": 3,
      "note": 84,
      "start": 14.476,
      "duration": 0.0427,
      "velocity": 107,
      "chip": "ym2612"
    },
    {
      "channel": 0,
      "note": 53,
      "start": 14.5175,
      "duration": 0.0357,
      "velocity": 82,
      "chip": "ym2612"
    },
    {
      "channel": 2,
      "note": 69,
      "start": 14.5185,
      "duration": 0.0357,
      "velocity": 117,
      "chip": "ym2612"
    },
    {
      "channel": 3,
      "note": 77,
      "start": 14.5193,
      "duration": 0.0357,
      "velocity": 107,
      "chip": "ym2612"
    },
    {
      "channel": 0,
      "note": 53,
      "start": 14.5538,
      "duration": 0.0349,
      "velocity": 82,
      "chip": "ym2612"
    },
    {
      "channel": 2,
      "note": 60,
      "start": 14.5547,
      "duration": 0.0524,
      "velocity": 117,
      "chip": "ym2612"
    },
    {
      "channel": 3,
      "note": 81,
      "start": 14.5555,
      "duration": 0.0523,
      "velocity": 107,
      "chip": "ym2612"
    },
    {
      "channel": 0,
      "note": 53,
      "start": 14.6062,
      "duration": 0.0413,
      "velocity": 82,
      "chip": "ym2612"
    },
    {
      "channel": 2,
      "note": 65,
      "start": 14.6077,
      "duration": 0.0408,
      "velocity": 117,
      "chip": "ym2612"
    },
    {
      "channel": 3,
      "note": 84,
      "start": 14.6084,
      "duration": 0.0409,
      "velocity": 107,
      "chip": "ym2612"
    },
    {
      "channel": 0,
      "note": 53,
      "start": 14.648,
      "duration": 0.0361,
      "velocity": 82,
      "chip": "ym2612"
    },
    {
      "channel": 2,
      "note": 65,
      "start": 14.649,
      "duration": 0.0427,
      "velocity": 117,
      "chip": "ym2612"
    },
    {
      "channel": 3,
      "note": 77,
      "start": 14.6498,
      "duration": 0.0425,
      "velocity": 107,
      "chip": "ym2612"
    },
    {
      "channel": 0,
      "note": 53,
      "start": 14.6912,
      "duration": 0.0378,
      "velocity": 82,
      "chip": "ym2612"
    },
    {
      "channel": 2,
      "note": 64,
      "start": 14.6922,
      "duration": 0.0378,
      "velocity": 117,
      "chip": "ym2612"
    },
    {
      "channel": 3,
      "note": 81,
      "start": 14.6929,
      "duration": 0.0377,
      "velocity": 107,
      "chip": "ym2612"
    },
    {
      "channel": 0,
      "note": 53,
      "start": 14.7296,
      "duration": 0.037,
      "velocity": 82,
      "chip": "ym2612"
    },
    {
      "channel": 2,
      "note": 65,
      "start": 14.7305,
      "duration": 0.037,
      "velocity": 117,
      "chip": "ym2612"
    },
    {
      "channel": 3,
      "note": 84,
      "start": 14.7312,
      "duration": 0.0372,
      "velocity": 107,
      "chip": "ym2612"
    },
    {
      "channel": 0,
      "note": 53,
      "start": 14.7671,
      "duration": 0.1648,
      "velocity": 82,
      "chip": "ym2612"
    },
    {
      "channel": 2,
      "note": 69,
      "start": 14.7681,
      "duration": 0.1843,
      "velocity": 117,
      "chip": "ym2612"
    },
    {
      "channel": 3,
      "note": 77,
      "start": 14.769,
      "duration": 0.1842,
      "velocity": 107,
      "chip": "ym2612"
    },
    {
      "channel": 0,
      "note": 53,
      "start": 14.9516,
      "duration": 0.0391,
      "velocity": 82,
      "chip": "ym2612"
    },
    {
      "channel": 1,
      "note": 60,
      "start": 14.9523,
      "duration": 0.0391,
      "velocity": 91,
      "chip": "ym2612"
    },
    {
      "channel": 2,
      "note": 67,
      "start": 14.953,
      "duration": 0.0391,
      "velocity": 117,
      "chip": "ym2612"
    },
    {
      "channel": 3,
      "note": 81,
      "start": 14.9537,
      "duration": 0.0391,
      "velocity": 107,
      "chip": "ym2612"
    },
    {
      "channel": 0,
      "note": 53,
      "start": 14.9913,
      "duration": 0.0349,
      "velocity": 82,
      "chip": "ym2612"
    },
    {
      "channel": 1,
      "note": 62,
      "start": 14.992,
      "duration": 0.038,
      "velocity": 91,
      "chip": "ym2612"
    },
    {
      "channel": 2,
      "note": 69,
      "start": 14.9927,
      "duration": 0.038,
      "velocity": 117,
      "chip": "ym2612"
    },
    {
      "channel": 3,
      "note": 84,
      "start": 14.9934,
      "duration": 0.038,
      "velocity": 107,
      "chip": "ym2612"
    },
    {
      "channel": 4,
      "note": 60,
      "start": 15.0119,
      "duration": 0.0389,
      "velocity": 91,
      "chip": "ym2612"
    },
    {
      "channel": 0,
      "note": 54,
      "start": 15.0298,
      "duration": 0.0473,
      "velocity": 82,
      "chip": "ym2612"
    },
    {
      "channel": 1,
      "note": 64,
      "start": 15.0304,
      "duration": 0.0473,
      "velocity": 91,
      "chip": "ym2612"
    },
    {
      "channel": 2,
      "note": 60,
      "start": 15.0311,
      "duration": 0.0474,
      "velocity": 117,
      "chip": "ym2612"
    },
    {
      "channel": 3,
      "note": 81,
      "start": 15.032,
      "duration": 0.0473,
      "velocity": 107,
      "chip": "ym2612"
    },
    {
      "channel": 4,
      "note": 62,
      "start": 15.0513,
      "duration": 0.127,
      "velocity": 91,
      "chip": "ym2612"
    },
    {
      "channel": 0,
      "note": 55,
      "start": 15.0777,
      "duration": 0.1828,
      "velocity": 82,
      "chip": "ym2612"
    },
    {
      "channel": 1,
      "note": 62,
      "start": 15.0784,
      "duration": 0.639,
      "velocity": 91,
      "chip": "ym2612"
    },
    {
      "channel": 2,
      "note": 67,
      "start": 15.0791,
      "duration": 0.2014,
      "velocity": 117,
      "chip": "ym2612"
    },
    {
      "channel": 3,
      "note": 79,
      "start": 15.0798,
      "duration": 0.2014,
      "velocity": 107,
      "chip": "ym2612"
    },
    {
      "channel": 4,
      "note": 64,
      "start": 15.1787,
      "duration": 0.1226,
      "velocity": 91,
      "chip": "ym2612"
    },
    {
      "channel": 0,
      "note": 55,
      "start": 15.2801,
      "duration": 0.0392,
      "velocity": 82,
      "chip": "ym2612"
    },
    {
      "channel": 2,
      "note": 67,
      "start": 15.281,
      "duration": 0.0393,
      "velocity": 117,
      "chip": "ym2612"
    },
    {
      "channel": 3,
      "note": 83,
      "start": 15.2818,
      "duration": 0.0391,
      "velocity": 107,
      "chip": "ym2612"
    },
    {
      "channel": 4,
      "note": 62,
      "start": 15.3018,
      "duration": 0.636,
      "velocity": 91,
      "chip": "ym2612"
    },
    {
      "channel": 0,
      "note": 55,
      "start": 15.3198,
      "duration": 0.0354,
      "velocity": 82,
      "chip": "ym2612"
    },
    {
      "channel": 2,
      "note": 65,
      "start": 15.3208,
      "duration": 0.0385,
      "velocity": 117,
      "chip": "ym2612"
    },
    {
      "channel": 3,
      "note": 86,
      "start": 15.3215,
      "duration": 0.0385,
      "velocity": 107,
      "chip": "ym2612"
    },
    {
      "channel": 0,
      "note": 55,
      "start": 15.3588,
      "duration": 0.0493,
      "velocity": 82,
      "chip": "ym2612"
    },
    {
      "channel": 2,
      "note": 67,
      "start": 15.3597,
      "duration": 0.0493,
      "velocity": 117,
      "chip": "ym2612"
    },
    {
      "channel": 3,
      "note": 79,
      "start": 15.3606,
      "duration": 0.0492,
      "velocity": 107,
      "chip": "ym2612"
    },
    {
      "channel": 0,
      "note": 55,
      "start": 15.4086,
      "duration": 0.0368,
      "velocity": 82,
      "chip": "ym2612"
    },
    {
      "channel": 2,
      "note": 71,
      "start": 15.4096,
      "duration": 0.0399,
      "velocity": 117,
      "chip": "ym2612"
    },
    {
      "channel": 3,
      "note": 83,
      "start": 15.4103,
      "duration": 0.0399,
      "velocity": 107,
      "chip": "ym2612"
    },
    {
      "channel": 0,
      "note": 55,
      "start": 15.4491,
      "duration": 0.1811,
      "velocity": 82,
      "chip": "ym2612"
    },
    {
      "channel": 2,
      "note": 69,
      "start": 15.4501,
      "duration": 0.1811,
      "velocity": 117,
      "chip": "ym2612"
    },
    {
      "channel": 3,
      "note": 86,
      "start": 15.4508,
      "duration": 0.1812,
      "velocity": 107,
      "chip": "ym2612"
    },
    {
      "channel": 0,
      "note": 55,
      "start": 15.6307,
      "duration": 0.0355,
      "velocity": 82,
      "chip": "ym2612"
    },
    {
      "channel": 2,
      "note": 71,
      "start": 15.6318,
      "duration": 0.0385,
      "velocity": 117,
      "chip": "ym2612"
    },
    {
      "channel": 3,
      "note": 79,
      "start": 15.6325,
      "duration": 0.0385,
      "velocity": 107,
      "chip": "ym2612"
    },
    {
      "channel": 0,
      "note": 55,
      "start": 15.6698,
      "duration": 0.0469,
      "velocity": 82,
      "chip": "ym2612"
    },
    {
      "channel": 2,
      "note": 62,
      "start": 15.6708,
      "duration": 0.0473,
      "velocity": 117,
      "chip": "ym2612"
    },
    {
      "channel": 3,
      "note": 83,
      "start": 15.6716,
      "duration": 0.0472,
      "velocity": 107,
      "chip": "ym2612"
    },
    {
      "channel": 0,
      "note": 55,
      "start": 15.7173,
      "duration": 0.1827,
      "velocity": 82,
      "chip": "ym2612"
    },
    {
      "channel": 1,
      "note": 67,
      "start": 15.718,
      "duration": 0.3304,
      "velocity": 91,
      "chip": "ym2612"
    },
    {
      "channel": 2,
      "note": 67,
      "start": 15.7187,
      "duration": 0.2014,
      "velocity": 117,
      "chip": "ym2612"
    },
    {
      "channel": 3,
      "note": 86,
      "start": 15.7194,
      "duration": 0.2015,
      "velocity": 107,
      "chip": "ym2612"
    },
    {
      "channel": 0,
      "note": 55,
      "start": 15.9196,
      "duration": 0.0392,
      "velocity": 82,
      "chip": "ym2612"
    },
    {
      "channel": 2,
      "note": 67,
      "start": 15.9206,
      "duration": 0.0392,
      "velocity": 117,
      "chip": "ym2612"
    },
    {
      "channel": 3,
      "note": 79,
      "start": 15.9214,
      "duration": 0.0391,
      "velocity": 107,
      "chip": "ym2612"
    },
    {
      "channel": 4,
      "note": 67,
      "start": 15.9383,
      "duration": 0.1731,
      "velocity": 91,
      "chip": "ym2612"
    },
    {
      "channel": 0,
      "note": 55,
      "start": 15.9593,
      "duration": 0.0357,
      "velocity": 82,
      "chip": "ym2612"
    },
    {
      "channel": 2,
      "note": 65,
      "start": 15.9603,
      "duration": 0.0357,
      "velocity": 117,
      "chip": "ym2612"
    },
    {
      "channel": 3,
      "note": 83,
      "start": 15.9611,
      "duration": 0.0356,
      "velocity": 107,
      "chip": "ym2612"
    },
    {
      "channel": 0,
      "note": 55,
      "start": 15.9955,
      "duration": 0.0361,
      "velocity": 82,
      "chip": "ym2612"
    },
    {
      "channel": 2,
      "note": 67,
      "start": 15.9965,
      "duration": 0.0525,
      "velocity": 117,
      "chip": "ym2612"
    },
    {
      "channel": 3,
      "note": 86,
      "start": 15.9972,
      "duration": 0.0526,
      "velocity": 107,
      "chip": "ym2612"
    },
    {
      "channel": 0,
      "note": 55,
      "start": 16.0482,
      "duration": 0.0413,
      "velocity": 82,
      "chip": "ym2612"
    },
    {
      "channel": 1,
      "note": 65,
      "start": 16.0489,
      "duration": 0.1636,
      "velocity": 91,
      "chip": "ym2612"
    },
    {
      "channel": 2,
      "note": 67,
      "start": 16.0496,
      "duration": 0.027,
      "velocity": 117,
      "chip": "ym2612"
    },
    {
      "channel": 3,
      "note": 79,
      "start": 16.0504,
      "duration": 0.0404,
      "velocity": 107,
      "chip": "ym2612"
    },
    {
      "channel": 2,
      "note": 71,
      "start": 16.0772,
      "duration": 0.0269,
      "velocity": 117,
      "chip": "ym2612"
    },
    {
      "channel": 0,
      "note": 55,
      "start": 16.0901,
      "duration": 0.0363,
      "velocity": 82,
      "chip": "ym2612"
    },
    {
      "channel": 3,
      "note": 83,
      "start": 16.0914,
      "duration": 0.0423,
      "velocity": 107,
      "chip": "ym2612"
    },
    {
      "channel": 2,
      "note": 74,
      "start": 16.1046,
      "duration": 0.0284,
      "velocity": 117,
      "chip": "ym2612"
    },
    {
      "channel": 4,
      "note": 65,
      "start": 16.1118,
      "duration": 0.2207,
      "velocity": 91,
      "chip": "ym2612"
    },
    {
      "channel": 0,
      "note": 55,
      "start": 16.1326,
      "duration": 0.0378,
      "velocity": 82,
      "chip": "ym2612"
    },
    {
      "channel": 2,
      "note": 59,
      "start": 16.1335,
      "duration": 0.0221,
      "velocity": 117,
      "chip": "ym2612"
    },
    {
      "channel": 3,
      "note": 84,
      "start": 16.1342,
      "duration": 0.0374,
      "velocity": 107,
      "chip": "ym2612"
    },
    {
      "channel": 2,
      "note": 62,
      "start": 16.1562,
      "duration": 0.0281,
      "velocity": 117,
      "chip": "ym2612"
    },
    {
      "channel": 0,
      "note": 56,
      "start": 16.1708,
      "duration": 0.0347,
      "velocity": 82,
      "chip": "ym2612"
    },
    {
      "channel": 3,
      "note": 86,
      "start": 16.1722,
      "duration": 0.0418,
      "velocity": 107,
      "chip": "ym2612"
    },
    {
      "channel": 2,
      "note": 68,
      "start": 16.1849,
      "duration": 0.0283,
      "velocity": 117,
      "chip": "ym2612"
    },
    {
      "channel": 0,
      "note": 57,
      "start": 16.2123,
      "duration": 0.0377,
      "velocity": 82,
      "chip": "ym2612"
    },
    {
      "channel": 1,
      "note": 64,
      "start": 16.213,
      "duration": 0.6117,
      "velocity": 91,
      "chip": "ym2612"
    },
    {
      "channel": 2,
      "note": 69,
      "start": 16.2138,
      "duration": 0.0372,
      "velocity": 117,
      "chip": "ym2612"
    },
    {
      "channel": 3,
      "note": 81,
      "start": 16.2146,
      "duration": 0.0372,
      "velocity": 107,
      "chip": "ym2612"
    },
    {
      "channel": 0,
      "note": 57,
      "start": 16.2506,
      "duration": 0.1641,
      "velocity": 82,
      "chip": "ym2612"
    },
    {
      "channel": 2,
      "note": 69,
      "start": 16.2516,
      "duration": 0.1832,
      "velocity": 117,
      "chip": "ym2612"
    },
    {
      "channel": 3,
      "note": 84,
      "start": 16.2523,
      "duration": 0.1832,
      "velocity": 107,
      "chip": "ym2612"
    },
    {
      "channel": 4,
      "note": 64,
      "start": 16.333,
      "duration": 0.6285,
      "velocity": 91,
      "chip": "ym2612"
    },
    {
      "channel": 0,
      "note": 57,
      "start": 16.4344,
      "duration": 0.0354,
      "velocity": 82,
      "chip": "ym2612"
    },
    {
      "channel": 2,
      "note": 67,
      "start": 16.4353,
      "duration": 0.0355,
      "velocity": 117,
      "chip": "ym2612"
    },
    {
      "channel": 3,
      "note": 88,
      "start": 16.4361,
      "duration": 0.0355,
      "velocity": 107,
      "chip": "ym2612"
    },
    {
      "channel": 0,
      "note": 57,
      "start": 16.4704,
      "duration": 0.0362,
      "velocity": 82,
      "chip": "ym2612"
    },
    {
      "channel": 2,
      "note": 69,
      "start": 16.4714,
      "duration": 0.0499,
      "velocity": 117,
      "chip": "ym2612"
    },
    {
      "channel": 3,
      "note": 81,
      "start": 16.4722,
      "duration": 0.0498,
      "velocity": 107,
      "chip": "ym2612"
    },
    {
      "channel": 0,
      "note": 57,
      "start": 16.5208,
      "duration": 0.1851,
      "velocity": 82,
      "chip": "ym2612"
    },
    {
      "channel": 2,
      "note": 72,
      "start": 16.5218,
      "duration": 0.1851,
      "velocity": 117,
      "chip": "ym2612"
    },
    {
      "channel": 3,
      "note": 84,
      "start": 16.5225,
      "duration": 0.1851,
      "velocity": 107,
      "chip": "ym2612"
    },
    {
      "channel": 0,
      "note": 57,
      "start": 16.7065,
      "duration": 0.0364,
      "velocity": 82,
      "chip": "ym2612"
    },
    {
      "channel": 2,
      "note": 71,
      "start": 16.7075,
      "duration": 0.0426,
      "velocity": 117,
      "chip": "ym2612"
    },
    {
      "channel": 3,
      "note": 88,
      "start": 16.7082,
      "duration": 0.0427,
      "velocity": 107,
      "chip": "ym2612"
    },
    {
      "channel": 0,
      "note": 57,
      "start": 16.7497,
      "duration": 0.0357,
      "velocity": 82,
      "chip": "ym2612"
    },
    {
      "channel": 2,
      "note": 72,
      "start": 16.7507,
      "duration": 0.0357,
      "velocity": 117,
      "chip": "ym2612"
    },
    {
      "channel": 3,
      "note": 81,
      "start": 16.7515,
      "duration": 0.0356,
      "velocity": 107,
      "chip": "ym2612"
    },
    {
      "channel": 0,
      "note": 57,
      "start": 16.786,
      "duration": 0.038,
      "velocity": 82,
      "chip": "ym2612"
    },
    {
      "channel": 2,
      "note": 64,
      "start": 16.7869,
      "duration": 0.0385,
      "velocity": 117,
      "chip": "ym2612"
    },
    {
      "channel": 3,
      "note": 84,
      "start": 16.7877,
      "duration": 0.0385,
      "velocity": 107,
      "chip": "ym2612"
    },
    {
      "channel": 0,
      "note": 57,
      "start": 16.8245,
      "duration": 0.0377,
      "velocity": 82,
      "chip": "ym2612"
    },
    {
      "channel": 1,
      "note": 62,
      "start": 16.8252,
      "duration": 0.2216,
      "velocity": 91,
      "chip": "ym2612"
    },
    {
      "channel": 2,
      "note": 69,
      "start": 16.826,
      "duration": 0.0403,
      "velocity": 117,
      "chip": "ym2612"
    },
    {
      "channel": 3,
      "note": 88,
      "start": 16.8268,
      "duration": 0.0404,
      "velocity": 107,
      "chip": "ym2612"
    },
    {
      "channel": 0,
      "note": 57,
      "start": 16.8659,
      "duration": 0.1802,
      "velocity": 82,
      "chip": "ym2612"
    },
    {
      "channel": 2,
      "note": 69,
      "start": 16.8669,
      "duration": 0.1806,
      "velocity": 117,
      "chip": "ym2612"
    },
    {
      "channel": 3,
      "note": 81,
      "start": 16.8677,
      "duration": 0.1805,
      "velocity": 107,
      "chip": "ym2612"
    },
    {
      "channel": 4,
      "note": 62,
      "start": 16.962,
      "duration": 0.1493,
      "velocity": 91,
      "chip": "ym2612"
    },
    {
      "channel": 0,
      "note": 57,
      "start": 17.0466,
      "duration": 0.0358,
      "velocity": 82,
      "chip": "ym2612"
    },
    {
      "channel": 1,
      "note": 60,
      "start": 17.0473,
      "duration": 0.08,
      "velocity": 91,
      "chip": "ym2612"
    },
    {
      "channel": 2,
      "note": 67,
      "start": 17.048,
      "duration": 0.0417,
      "velocity": 117,
      "chip": "ym2612"
    },
    {
      "channel": 3,
      "note": 84,
      "start": 17.0488,
      "duration": 0.0417,
      "velocity": 107,
      "chip": "ym2612"
    },
    {
      "channel": 0,
      "note": 57,
      "start": 17.0893,
      "duration": 0.0374,
      "velocity": 82,
      "chip": "ym2612"
    },
    {
      "channel": 2,
      "note": 69,
      "start": 17.0903,
      "duration": 0.0378,
      "velocity": 117,
      "chip": "ym2612"
    },
    {
      "channel": 3,
      "note": 88,
      "start": 17.091,
      "duration": 0.0378,
      "velocity": 107,
      "chip": "ym2612"
    },
    {
      "channel": 4,
      "note": 60,
      "start": 17.1118,
      "duration": 0.2179,
      "velocity": 91,
      "chip": "ym2612"
    },
    {
      "channel": 0,
      "note": 57,
      "start": 17.1272,
      "duration": 0.1645,
      "velocity": 82,
      "chip": "ym2612"
    },
    {
      "channel": 1,
      "note": 59,
      "start": 17.1279,
      "duration": 0.2234,
      "velocity": 91,
      "chip": "ym2612"
    },
    {
      "channel": 2,
      "note": 72,
      "start": 17.1286,
      "duration": 0.1832,
      "velocity": 117,
      "chip": "ym2612"
    },
    {
      "channel": 3,
      "note": 81,
      "start": 17.1295,
      "duration": 0.183,
      "velocity": 107,
      "chip": "ym2612"
    },
    {
      "channel": 0,
      "note": 57,
      "start": 17.3114,
      "duration": 0.0392,
      "velocity": 82,
      "chip": "ym2612"
    },
    {
      "channel": 2,
      "note": 71,
      "start": 17.3124,
      "duration": 0.0396,
      "velocity": 117,
      "chip": "ym2612"
    },
    {
      "channel": 3,
      "note": 84,
      "start": 17.3131,
      "duration": 0.0396,
      "velocity": 107,
      "chip": "ym2612"
    },
    {
      "channel": 4,
      "note": 59,
      "start": 17.3302,
      "duration": 0.078,
      "velocity": 91,
      "chip": "ym2612"
    },
    {
      "channel": 0,
      "note": 57,
      "start": 17.3512,
      "duration": 0.0359,
      "velocity": 82,
      "chip": "ym2612"
    },
    {
      "channel": 1,
      "note": 60,
      "start": 17.3519,
      "duration": 0.0881,
      "velocity": 91,
      "chip": "ym2612"
    },
    {
      "channel": 2,
      "note": 72,
      "start": 17.3526,
      "duration": 0.0385,
      "velocity": 117,
      "chip": "ym2612"
    },
    {
      "channel": 3,
      "note": 88,
      "start": 17.3533,
      "duration": 0.0386,
      "velocity": 107,
      "chip": "ym2612"
    },
    {
      "channel": 0,
      "note": 56,
      "start": 17.3906,
      "duration": 0.0487,
      "velocity": 82,
      "chip": "ym2612"
    },
    {
      "channel": 2,
      "note": 64,
      "start": 17.3916,
      "duration": 0.0493,
      "velocity": 117,
      "chip": "ym2612"
    },
    {
      "channel": 3,
      "note": 84,
      "start": 17.3924,
      "duration": 0.0491,
      "velocity": 107,
      "chip": "ym2612"
    },
    {
      "channel": 4,
      "note": 60,
      "start": 17.4086,
      "duration": 0.1516,
      "velocity": 91,
      "chip": "ym2612"
    },
    {
      "channel": 0,
      "note": 55,
      "start": 17.4399,
      "duration": 0.0375,
      "velocity": 82,
      "chip": "ym2612"
    },
    {
      "channel": 1,
      "note": 59,
      "start": 17.4406,
      "duration": 0.5983,
      "velocity": 91,
      "chip": "ym2612"
    },
    {
      "channel": 2,
      "note": 67,
      "start": 17.4413,
      "duration": 0.0402,
      "velocity": 117,
      "chip": "ym2612"
    },
    {
      "channel": 3,
      "note": 79,
      "start": 17.442,
      "duration": 0.0402,
      "velocity": 107,
      "chip": "ym2612"
    },
    {
      "channel": 0,
      "note": 55,
      "start": 17.4811,
      "duration": 0.1805,
      "velocity": 82,
      "chip": "ym2612"
    },
    {
      "channel": 2,
      "note": 67,
      "start": 17.4821,
      "duration": 0.1805,
      "velocity": 117,
      "chip": "ym2612"
    },
    {
      "channel": 3,
      "note": 83,
      "start": 17.4828,
      "duration": 0.1805,
      "velocity": 107,
      "chip": "ym2612"
    },
    {
      "channel": 4,
      "note": 59,
      "start": 17.5607,
      "duration": 0.6849,
      "velocity": 91,
      "chip": "ym2612"
    },
    {
      "channel": 0,
      "note": 55,
      "start": 17.6621,
      "duration": 0.0354,
      "velocity": 82,
      "chip": "ym2612"
    },
    {
      "channel": 2,
      "note": 65,
      "start": 17.663,
      "duration": 0.041,
      "velocity": 117,
      "chip": "ym2612"
    },
    {
      "channel": 3,
      "note": 86,
      "start": 17.6638,
      "duration": 0.041,
      "velocity": 107,
      "chip": "ym2612"
    },
    {
      "channel": 0,
      "note": 55,
      "start": 17.7036,
      "duration": 0.037,
      "velocity": 82,
      "chip": "ym2612"
    },
    {
      "channel": 2,
      "note": 67,
      "start": 17.7046,
      "duration": 0.037,
      "velocity": 117,
      "chip": "ym2612"
    },
    {
      "channel": 3,
      "note": 79,
      "start": 17.7054,
      "duration": 0.0369,
      "velocity": 107,
      "chip": "ym2612"
    },
    {
      "channel": 0,
      "note": 55,
      "start": 17.7412,
      "duration": 0.1673,
      "velocity": 82,
      "chip": "ym2612"
    },
    {
      "channel": 2,
      "note": 71,
      "start": 17.7421,
      "duration": 0.1673,
      "velocity": 117,
      "chip": "ym2612"
    },
    {
      "channel": 3,
      "note": 83,
      "start": 17.7429,
      "duration": 0.1673,
      "velocity": 107,
      "chip": "ym2612"
    },
    {
      "channel": 0,
      "note": 55,
      "start": 17.909,
      "duration": 0.0364,
      "velocity": 82,
      "chip": "ym2612"
    },
    {
      "channel": 2,
      "note": 69,
      "start": 17.91,
      "duration": 0.0426,
      "velocity": 117,
      "chip": "ym2612"
    },
    {
      "channel": 3,
      "note": 86,
      "start": 17.9107,
      "duration": 0.0427,
      "velocity": 107,
      "chip": "ym2612"
    },
    {
      "channel": 0,
      "note": 55,
      "start": 17.9522,
      "duration": 0.0357,
      "velocity": 82,
      "chip": "ym2612"
    },
    {
      "channel": 2,
      "note": 71,
      "start": 17.9532,
      "duration": 0.0357,
      "velocity": 117,
      "chip": "ym2612"
    },
    {
      "channel": 3,
      "note": 79,
      "start": 17.954,
      "duration": 0.0357,
      "velocity": 107,
      "chip": "ym2612"
    },
    {
      "channel": 0,
      "note": 55,
      "start": 17.9885,
      "duration": 0.035,
      "velocity": 82,
      "chip": "ym2612"
    },
    {
      "channel": 2,
      "note": 62,
      "start": 17.9894,
      "duration": 0.0502,
      "velocity": 117,
      "chip": "ym2612"
    },
    {
      "channel": 3,
      "note": 83,
      "start": 17.9902,
      "duration": 0.0502,
      "velocity": 107,
      "chip": "ym2612"
    },
    {
      "channel": 0,
      "note": 55,
      "start": 18.0387,
      "duration": 0.1851,
      "velocity": 82,
      "chip": "ym2612"
    },
    {
      "channel": 1,
      "note": 57,
      "start": 18.0394,
      "duration": 0.317,
      "velocity": 91,
      "chip": "ym2612"
    },
    {
      "channel": 2,
      "note": 67,
      "start": 18.0402,
      "duration": 0.1846,
      "velocity": 117,
      "chip": "ym2612"
    },
    {
      "channel": 3,
      "note": 86,
      "start": 18.041,
      "duration": 0.1847,
      "velocity": 107,
      "chip": "ym2612"
    },
    {
      "channel": 0,
      "note": 55,
      "start": 18.2244,
      "duration": 0.0362,
      "velocity": 82,
      "chip": "ym2612"
    },
    {
      "channel": 2,
      "note": 67,
      "start": 18.2254,
      "duration": 0.0427,
      "velocity": 117,
      "chip": "ym2612"
    },
    {
      "channel": 3,
      "note": 79,
      "start": 18.2262,
      "duration": 0.0426,
      "velocity": 107,
      "chip": "ym2612"
    },
    {
      "channel": 4,
      "note": 57,
      "start": 18.2462,
      "duration": 0.2303,
      "velocity": 91,
      "chip": "ym2612"
    },
    {
      "channel": 0,
      "note": 55,
      "start": 18.2676,
      "duration": 0.0353,
      "velocity": 82,
      "chip": "ym2612"
    },
    {
      "channel": 2,
      "note": 65,
      "start": 18.2686,
      "duration": 0.0353,
      "velocity": 117,
      "chip": "ym2612"
    },
    {
      "channel": 3,
      "note": 83,
      "start": 18.2694,
      "duration": 0.0352,
      "velocity": 107,
      "chip": "ym2612"
    },
    {
      "channel": 0,
      "note": 55,
      "start": 18.3035,
      "duration": 0.0359,
      "velocity": 82,
      "chip": "ym2612"
    },
    {
      "channel": 2,
      "note": 67,
      "start": 18.3044,
      "duration": 0.0527,
      "velocity": 117,
      "chip": "ym2612"
    },
    {
      "channel": 3,
      "note": 86,
      "start": 18.3051,
      "duration": 0.0527,
      "velocity": 107,
      "chip": "ym2612"
    },
    {
      "channel": 0,
      "note": 55,
      "start": 18.3562,
      "duration": 0.0373,
      "velocity": 82,
      "chip": "ym2612"
    },
    {
      "channel": 1,
      "note": 55,
      "start": 18.3569,
      "duration": 0.3015,
      "velocity": 91,
      "chip": "ym2612"
    },
    {
      "channel": 2,
      "note": 71,
      "start": 18.3576,
      "duration": 0.0369,
      "velocity": 117,
      "chip": "ym2612"
    },
    {
      "channel": 3,
      "note": 79,
      "start": 18.3584,
      "duration": 0.0368,
      "velocity": 107,
      "chip": "ym2612"
    },
    {
      "channel": 0,
      "note": 55,
      "start": 18.3941,
      "duration": 0.1646,
      "velocity": 82,
      "chip": "ym2612"
    },
    {
      "channel": 2,
      "note": 69,
      "start": 18.3951,
      "duration": 0.1837,
      "velocity": 117,
      "chip": "ym2612"
    },
    {
      "channel": 3,
      "note": 83,
      "start": 18.3958,
      "duration": 0.1837,
      "velocity": 107,
      "chip": "ym2612"
    },
    {
      "channel": 4,
      "note": 55,
      "start": 18.477,
      "duration": 0.3015,
      "velocity": 91,
      "chip": "ym2612"
    },
    {
      "channel": 0,
      "note": 55,
      "start": 18.5784,
      "duration": 0.0379,
      "velocity": 82,
      "chip": "ym2612"
    },
    {
      "channel": 2,
      "note": 71,
      "start": 18.5794,
      "duration": 0.0379,
      "velocity": 117,
      "chip": "ym2612"
    },
    {
      "channel": 3,
      "note": 86,
      "start": 18.5801,
      "duration": 0.0379,
      "velocity": 107,
      "chip": "ym2612"
    },
    {
      "channel": 0,
      "note": 55,
      "start": 18.6168,
      "duration": 0.0356,
      "velocity": 82,
      "chip": "ym2612"
    },
    {
      "channel": 2,
      "note": 62,
      "start": 18.6178,
      "duration": 0.0414,
      "velocity": 117,
      "chip": "ym2612"
    },
    {
      "channel": 3,
      "note": 83,
      "start": 18.6186,
      "duration": 0.0413,
      "velocity": 107,
      "chip": "ym2612"
    },
    {
      "channel": 0,
      "note": 53,
      "start": 18.6582,
      "duration": 0.0376,
      "velocity": 82,
      "chip": "ym2612"
    },
    {
      "channel": 1,
      "note": 57,
      "start": 18.6589,
      "duration": 0.938,
      "velocity": 91,
      "chip": "ym2612"
    },
    {
      "channel": 2,
      "note": 65,
      "start": 18.6598,
      "duration": 0.0371,
      "velocity": 117,
      "chip": "ym2612"
    },
    {
      "channel": 3,
      "note": 77,
      "start": 18.6605,
      "duration": 0.037,
      "velocity": 107,
      "chip": "ym2612"
    },
    {
      "channel": 0,
      "note": 53,
      "start": 18.6964,
      "duration": 0.1667,
      "velocity": 82,
      "chip": "ym2612"
    },
    {
      "channel": 2,
      "note": 65,
      "start": 18.6973,
      "duration": 0.1668,
      "velocity": 117,
      "chip": "ym2612"
    },
    {
      "channel": 3,
      "note": 81,
      "start": 18.698,
      "duration": 0.1668,
      "velocity": 107,
      "chip": "ym2612"
    },
    {
      "channel": 4,
      "note": 57,
      "start": 18.779,
      "duration": 1.0246,
      "velocity": 91,
      "chip": "ym2612"
    },
    {
      "channel": 0,
      "note": 53,
      "start": 18.8637,
      "duration": 0.0352,
      "velocity": 82,
      "chip": "ym2612"
    },
    {
      "channel": 2,
      "note": 64,
      "start": 18.8646,
      "duration": 0.0383,
      "velocity": 117,
      "chip": "ym2612"
    },
    {
      "channel": 3,
      "note": 84,
      "start": 18.8654,
      "duration": 0.0383,
      "velocity": 107,
      "chip": "ym2612"
    },
    {
      "channel": 0,
      "note": 53,
      "start": 18.9024,
      "duration": 0.0494,
      "velocity": 82,
      "chip": "ym2612"
    },
    {
      "channel": 2,
      "note": 65,
      "start": 18.9034,
      "duration": 0.0494,
      "velocity": 117,
      "chip": "ym2612"
    },
    {
      "channel": 3,
      "note": 77,
      "start": 18.9042,
      "duration": 0.0493,
      "velocity": 107,
      "chip": "ym2612"
    },
    {
      "channel": 0,
      "note": 53,
      "start": 18.9523,
      "duration": 0.0368,
      "velocity": 82,
      "chip": "ym2612"
    },
    {
      "channel": 2,
      "note": 69,
      "start": 18.9534,
      "duration": 0.0427,
      "velocity": 117,
      "chip": "ym2612"
    },
    {
      "channel": 3,
      "note": 81,
      "start": 18.9541,
      "duration": 0.0427,
      "velocity": 107,
      "chip": "ym2612"
    },
    {
      "channel": 0,
      "note": 53,
      "start": 18.9956,
      "duration": 0.0392,
      "velocity": 82,
      "chip": "ym2612"
    },
    {
      "channel": 2,
      "note": 67,
      "start": 18.9966,
      "duration": 0.0392,
      "velocity": 117,
      "chip": "ym2612"
    },
    {
      "channel": 3,
      "note": 84,
      "start": 18.9973,
      "duration": 0.0392,
      "velocity": 107,
      "chip": "ym2612"
    },
    {
      "channel": 0,
      "note": 53,
      "start": 19.0354,
      "duration": 0.0354,
      "velocity": 82,
      "chip": "ym2612"
    },
    {
      "channel": 2,
      "note": 69,
      "start": 19.0364,
      "duration": 0.0385,
      "velocity": 117,
      "chip": "ym2612"
    },
    {
      "channel": 3,
      "note": 77,
      "start": 19.0371,
      "duration": 0.0383,
      "velocity": 107,
      "chip": "ym2612"
    },
    {
      "channel": 0,
      "note": 53,
      "start": 19.0744,
      "duration": 0.0492,
      "velocity": 82,
      "chip": "ym2612"
    },
    {
      "channel": 2,
      "note": 60,
      "start": 19.0753,
      "duration": 0.0497,
      "velocity": 117,
      "chip": "ym2612"
    },
    {
      "channel": 3,
      "note": 81,
      "start": 19.076,
      "duration": 0.0497,
      "velocity": 107,
      "chip": "ym2612"
    },
    {
      "channel": 0,
      "note": 53,
      "start": 19.1241,
      "duration": 0.0374,
      "velocity": 82,
      "chip": "ym2612"
    },
    {
      "channel": 2,
      "note": 65,
      "start": 19.1256,
      "duration": 0.0424,
      "velocity": 117,
      "chip": "ym2612"
    },
    {
      "channel": 3,
      "note": 84,
      "start": 19.1263,
      "duration": 0.0424,
      "velocity": 107,
      "chip": "ym2612"
    },
    {
      "channel": 0,
      "note": 53,
      "start": 19.1675,
      "duration": 0.0392,
      "velocity": 82,
      "chip": "ym2612"
    },
    {
      "channel": 2,
      "note": 65,
      "start": 19.1684,
      "duration": 0.0392,
      "velocity": 117,
      "chip": "ym2612"
    },
    {
      "channel": 3,
      "note": 77,
      "start": 19.1693,
      "duration": 0.039,
      "velocity": 107,
      "chip": "ym2612"
    },
    {
      "channel": 0,
      "note": 53,
      "start": 19.2072,
      "duration": 0.0352,
      "velocity": 82,
      "chip": "ym2612"
    },
    {
      "channel": 2,
      "note": 64,
      "start": 19.2082,
      "duration": 0.0409,
      "velocity": 117,
      "chip": "ym2612"
    },
    {
      "channel": 3,
      "note": 81,
      "start": 19.2089,
      "duration": 0.0408,
      "velocity": 107,
      "chip": "ym2612"
    },
    {
      "channel": 0,
      "note": 53,
      "start": 19.2486,
      "duration": 0.0369,
      "velocity": 82,
      "chip": "ym2612"
    },
    {
      "channel": 2,
      "note": 65,
      "start": 19.2496,
      "duration": 0.0369,
      "velocity": 117,
      "chip": "ym2612"
    },
    {
      "channel": 3,
      "note": 84,
      "start": 19.2503,
      "duration": 0.037,
      "velocity": 107,
      "chip": "ym2612"
    },
    {
      "channel": 0,
      "note": 53,
      "start": 19.2861,
      "duration": 0.165,
      "velocity": 82,
      "chip": "ym2612"
    },
    {
      "channel": 2,
      "note": 69,
      "start": 19.287,
      "duration": 0.1842,
      "velocity": 117,
      "chip": "ym2612"
    },
    {
      "channel": 3,
      "note": 77,
      "start": 19.2878,
      "duration": 0.184,
      "velocity": 107,
      "chip": "ym2612"
    },
    {
      "channel": 0,
      "note": 53,
      "start": 19.4707,
      "duration": 0.0392,
      "velocity": 82,
      "chip": "ym2612"
    },
    {
      "channel": 2,
      "note": 67,
      "start": 19.4717,
      "duration": 0.0393,
      "velocity": 117,
      "chip": "ym2612"
    },
    {
      "channel": 3,
      "note": 81,
      "start": 19.4724,
      "duration": 0.0392,
      "velocity": 107,
      "chip": "ym2612"
    },
    {
      "channel": 0,
      "note": 53,
      "start": 19.5105,
      "duration": 0.0353,
      "velocity": 82,
      "chip": "ym2612"
    },
    {
      "channel": 2,
      "note": 69,
      "start": 19.5115,
      "duration": 0.0353,
      "velocity": 117,
      "chip": "ym2612"
    },
    {
      "channel": 3,
      "note": 84,
      "start": 19.5122,
      "duration": 0.0353,
      "velocity": 107,
      "chip": "ym2612"
    },
    {
      "channel": 0,
      "note": 54,
      "start": 19.5464,
      "duration": 0.0349,
      "velocity": 82,
      "chip": "ym2612"
    },
    {
      "channel": 2,
      "note": 60,
      "start": 19.5474,
      "duration": 0.0503,
      "velocity": 117,
      "chip": "ym2612"
    },
    {
      "channel": 3,
      "note": 81,
      "start": 19.5481,
      "duration": 0.0502,
      "velocity": 107,
      "chip": "ym2612"
    },
    {
      "channel": 0,
      "note": 55,
      "start": 19.5968,
      "duration": 0.1852,
      "velocity": 82,
      "chip": "ym2612"
    },
    {
      "channel": 1,
      "note": 59,
      "start": 19.5975,
      "duration": 0.6259,
      "velocity": 91,
      "chip": "ym2612"
    },
    {
      "channel": 2,
      "note": 67,
      "start": 19.5983,
      "duration": 0.1847,
      "velocity": 117,
      "chip": "ym2612"
    },
    {
      "channel": 3,
      "note": 79,
      "start": 19.599,
      "duration": 0.1847,
      "velocity": 107,
      "chip": "ym2612"
    },
    {
      "channel": 0,
      "note": 55,
      "start": 19.7825,
      "duration": 0.036,
      "velocity": 82,
      "chip": "ym2612"
    },
    {
      "channel": 2,
      "note": 67,
      "start": 19.7835,
      "duration": 0.0427,
      "velocity": 117,
      "chip": "ym2612"
    },
    {
      "channel": 3,
      "note": 83,
      "start": 19.7843,
      "duration": 0.0427,
      "velocity": 107,
      "chip": "ym2612"
    },
    {
      "channel": 4,
      "note": 59,
      "start": 19.8041,
      "duration": 0.6265,
      "velocity": 91,
      "chip": "ym2612"
    },
    {
      "channel": 0,
      "note": 55,
      "start": 19.8258,
      "duration": 0.0355,
      "velocity": 82,
      "chip": "ym2612"
    },
    {
      "channel": 2,
      "note": 65,
      "start": 19.8267,
      "duration": 0.0356,
      "velocity": 117,
      "chip": "ym2612"
    },
    {
      "channel": 3,
      "note": 86,
      "start": 19.8275,
      "duration": 0.0356,
      "velocity": 107,
      "chip": "ym2612"
    },
    {
      "channel": 0,
      "note": 55,
      "start": 19.8619,
      "duration": 0.0362,
      "velocity": 82,
      "chip": "ym2612"
    },
    {
      "channel": 2,
      "note": 67,
      "start": 19.8628,
      "duration": 0.0522,
      "velocity": 117,
      "chip": "ym2612"
    },
    {
      "channel": 3,
      "note": 79,
      "start": 19.8637,
      "duration": 0.0521,
      "velocity": 107,
      "chip": "ym2612"
    },
    {
      "channel": 0,
      "note": 55,
      "start": 19.9146,
      "duration": 0.0369,
      "velocity": 82,
      "chip": "ym2612"
    },
    {
      "channel": 2,
      "note": 71,
      "start": 19.9156,
      "duration": 0.0369,
      "velocity": 117,
      "chip": "ym2612"
    },
    {
      "channel": 3,
      "note": 83,
      "start": 19.9163,
      "duration": 0.0369,
      "velocity": 107,
      "chip": "ym2612"
    },
    {
      "channel": 0,
      "note": 55,
      "start": 19.9521,
      "duration": 0.165,
      "velocity": 82,
      "chip": "ym2612"
    },
    {
      "channel": 2,
      "note": 69,
      "start": 19.953,
      "duration": 0.1842,
      "velocity": 117,
      "chip": "ym2612"
    },
    {
      "channel": 3,
      "note": 86,
      "start": 19.9538,
      "duration": 0.1842,
      "velocity": 107,
      "chip": "ym2612"
    },
    {
      "channel": 0,
      "note": 55,
      "start": 20.1368,
      "duration": 0.0356,
      "velocity": 82,
      "chip": "ym2612"
    },
    {
      "channel": 2,
      "note": 71,
      "start": 20.1378,
      "duration": 0.0356,
      "velocity": 117,
      "chip": "ym2612"
    },
    {
      "channel": 3,
      "note": 79,
      "start": 20.1385,
      "duration": 0.0355,
      "velocity": 107,
      "chip": "ym2612"
    },
    {
      "channel": 0,
      "note": 55,
      "start": 20.1729,
      "duration": 0.035,
      "velocity": 82,
      "chip": "ym2612"
    },
    {
      "channel": 2,
      "note": 62,
      "start": 20.1739,
      "duration": 0.0502,
      "velocity": 117,
      "chip": "ym2612"
    },
    {
      "channel": 3,
      "note": 83,
      "start": 20.1746,
      "duration": 0.0502,
      "velocity": 107,
      "chip": "ym2612"
    },
    {
      "channel": 0,
      "note": 55,
      "start": 20.2233,
      "duration": 0.1851,
      "velocity": 82,
      "chip": "ym2612"
    },
    {
      "channel": 1,
      "note": 47,
      "start": 20.224,
      "duration": 0.1155,
      "velocity": 91,
      "chip": "ym2612"
    },
    {
      "channel": 2,
      "note": 67,
      "start": 20.2247,
      "duration": 0.1847,
      "velocity": 117,
      "chip": "ym2612"
    },
    {
      "channel": 3,
      "note": 86,
      "start": 20.2254,
      "duration": 0.1848,
      "velocity": 107,
      "chip": "ym2612"
    },
    {
      "channel": 1,
      "note": 48,
      "start": 20.3401,
      "duration": 0.0831,
      "velocity": 91,
      "chip": "ym2612"
    },
    {
      "channel": 0,
      "note": 55,
      "start": 20.409,
      "duration": 0.0366,
      "velocity": 82,
      "chip": "ym2612"
    },
    {
      "channel": 2,
      "note": 67,
      "start": 20.4099,
      "duration": 0.0431,
      "velocity": 117,
      "chip": "ym2612"
    },
    {
      "channel": 3,
      "note": 79,
      "start": 20.4107,
      "duration": 0.043,
      "velocity": 107,
      "chip": "ym2612"
    },
    {
      "channel": 1,
      "note": 50,
      "start": 20.4236,
      "duration": 0.0287,
      "velocity": 91,
      "chip": "ym2612"
    },
    {
      "channel": 4,
      "note": 47,
      "start": 20.4311,
      "duration": 0.0271,
      "velocity": 91,
      "chip": "ym2612"
    },
    {
      "channel": 0,
      "note": 55,
      "start": 20.4522,
      "duration": 0.037,
      "velocity": 82,
      "chip": "ym2612"
    },
    {
      "channel": 1,
      "note": 48,
      "start": 20.4529,
      "duration": 0.0234,
      "velocity": 91,
      "chip": "ym2612"
    },
    {
      "channel": 2,
      "note": 65,
      "start": 20.4535,
      "duration": 0.0366,
      "velocity": 117,
      "chip": "ym2612"
    },
    {
      "channel": 3,
      "note": 83,
      "start": 20.4543,
      "duration": 0.0365,
      "velocity": 107,
      "chip": "ym2612"
    },
    {
      "channel": 4,
      "note": 48,
      "start": 20.4587,
      "duration": 0.025,
      "velocity": 91,
      "chip": "ym2612"
    },
    {
      "channel": 1,
      "note": 50,
      "start": 20.4768,
      "duration": 0.0271,
      "velocity": 91,
      "chip": "ym2612"
    },
    {
      "channel": 4,
      "note": 50,
      "start": 20.4842,
      "duration": 0.0273,
      "velocity": 91,
      "chip": "ym2612"
    },
    {
      "channel": 0,
      "note": 55,
      "start": 20.4897,
      "duration": 0.0368,
      "velocity": 82,
      "chip": "ym2612"
    },
    {
      "channel": 2,
      "note": 67,
      "start": 20.4907,
      "duration": 0.0515,
      "velocity": 117,
      "chip": "ym2612"
    },
    {
      "channel": 3,
      "note": 86,
      "start": 20.4914,
      "duration": 0.0515,
      "velocity": 107,
      "chip": "ym2612"
    },
    {
      "channel": 1,
      "note": 52,
      "start": 20.5045,
      "duration": 0.037,
      "velocity": 91,
      "chip": "ym2612"
    },
    {
      "channel": 4,
      "note": 48,
      "start": 20.512,
      "duration": 0.0361,
      "velocity": 91,
      "chip": "ym2612"
    },
    {
      "channel": 0,
      "note": 55,
      "start": 20.5413,
      "duration": 0.0412,
      "velocity": 82,
      "chip": "ym2612"
    },
    {
      "channel": 1,
      "note": 50,
      "start": 20.542,
      "duration": 0.0246,
      "velocity": 91,
      "chip": "ym2612"
    },
    {
      "channel": 2,
      "note": 67,
      "start": 20.5427,
      "duration": 0.0246,
      "velocity": 117,
      "chip": "ym2612"
    },
    {
      "channel": 3,
      "note": 79,
      "start": 20.5435,
      "duration": 0.0403,
      "velocity": 107,
      "chip": "ym2612"
    },
    {
      "channel": 4,
      "note": 50,
      "start": 20.5485,
      "duration": 0.0261,
      "velocity": 91,
      "chip": "ym2612"
    },
    {
      "channel": 1,
      "note": 52,
      "start": 20.5672,
      "duration": 0.0297,
      "velocity": 91,
      "chip": "ym2612"
    },
    {
      "channel": 2,
      "note": 71,
      "start": 20.5679,
      "duration": 0.0296,
      "velocity": 117,
      "chip": "ym2612"
    },
    {
      "channel": 4,
      "note": 52,
      "start": 20.5751,
      "duration": 0.0296,
      "velocity": 91,
      "chip": "ym2612"
    },
    {
      "channel": 0,
      "note": 67,
      "start": 20.583,
      "duration": 0.0393,
      "velocity": 82,
      "chip": "ym2612"
    },
    {
      "channel": 3,
      "note": 83,
      "start": 20.5844,
      "duration": 0.04,
      "velocity": 107,
      "chip": "ym2612"
    },
    {
      "channel": 1,
      "note": 53,
      "start": 20.5973,
      "duration": 0.0256,
      "velocity": 91,
      "chip": "ym2612"
    },
    {
      "channel": 2,
      "note": 74,
      "start": 20.598,
      "duration": 0.0256,
      "velocity": 117,
      "chip": "ym2612"
    },
    {
      "channel": 4,
      "note": 50,
      "start": 20.6052,
      "duration": 0.0264,
      "velocity": 91,
      "chip": "ym2612"
    },
    {
      "channel": 0,
      "note": 56,
      "start": 20.6228,
      "duration": 0.0367,
      "velocity": 82,
      "chip": "ym2612"
    },
    {
      "channel": 1,
      "note": 52,
      "start": 20.6235,
      "duration": 0.026,
      "velocity": 91,
      "chip": "ym2612"
    },
    {
      "channel": 2,
      "note": 59,
      "start": 20.6242,
      "duration": 0.0259,
      "velocity": 117,
      "chip": "ym2612"
    },
    {
      "channel": 3,
      "note": 84,
      "start": 20.6249,
      "duration": 0.0412,
      "velocity": 107,
      "chip": "ym2612"
    },
    {
      "channel": 4,
      "note": 52,
      "start": 20.6322,
      "duration": 0.0251,
      "velocity": 91,
      "chip": "ym2612"
    },
    {
      "channel": 1,
      "note": 53,
      "start": 20.65,
      "duration": 0.0286,
      "velocity": 91,
      "chip": "ym2612"
    },
    {
      "channel": 2,
      "note": 62,
      "start": 20.6507,
      "duration": 0.0285,
      "velocity": 117,
      "chip": "ym2612"
    },
    {
      "channel": 4,
      "note": 53,
      "start": 20.6577,
      "duration": 0.0286,
      "velocity": 91,
      "chip": "ym2612"
    },
    {
      "channel": 0,
      "note": 68,
      "start": 20.6653,
      "duration": 31.2775,
      "velocity": 82,
      "chip": "ym2612"
    },
    {
      "channel": 3,
      "note": 86,
      "start": 20.6666,
      "duration": 31.2762,
      "velocity": 107,
      "chip": "ym2612"
    },
    {
      "channel": 1,
      "note": 56,
      "start": 20.679,
      "duration": 31.2638,
      "velocity": 91,
      "chip": "ym2612"
    },
    {
      "channel": 2,
      "note": 68,
      "start": 20.6797,
      "duration": 31.2631,
      "velocity": 117,
      "chip": "ym2612"
    },
    {
      "channel": 4,
      "note": 52,
      "start": 20.6868,
      "duration": 31.256,
      "velocity": 91,
      "chip": "ym2612"
    }
  ]
}