{
  "track_name": "21 - Star Humming",
  "duration_sec": 114.195,
  "sample_rate": 44100,
  "note_count": 1763,
  "unique_pitches": 52,
  "pitch_range": 67,
  "avg_note_duration": 0.0841,
  "reconstruction_stats": {
    "notes_reconstructed": 1763,
    "keyon_events": 1763,
    "keyoff_events": 1697,
    "orphan_keyons": 0,
    "unique_pitches": 52,
    "pitch_range": 67,
    "avg_duration_sec": 0.0841
  },
  "metadata": {
    "source": "R\\Ristar\\21 - Star Humming.vgz"
  },
  "notes": [
    {
      "channel": 2,
      "note": 75,
      "start": 0.0063,
      "duration": 0.3786,
      "velocity": 106,
      "chip": "ym2612"
    },
    {
      "channel": 3,
      "note": 67,
      "start": 0.0077,
      "duration": 0.3773,
      "velocity": 106,
      "chip": "ym2612"
    },
    {
      "channel": 4,
      "note": 70,
      "start": 0.009,
      "duration": 0.376,
      "velocity": 106,
      "chip": "ym2612"
    },
    {
      "channel": 2,
      "note": 75,
      "start": 0.5854,
      "duration": 0.3168,
      "velocity": 106,
      "chip": "ym2612"
    },
    {
      "channel": 3,
      "note": 67,
      "start": 0.5858,
      "duration": 0.3165,
      "velocity": 106,
      "chip": "ym2612"
    },
    {
      "channel": 4,
      "note": 70,
      "start": 0.5861,
      "duration": 0.3162,
      "velocity": 106,
      "chip": "ym2612"
    },
    {
      "channel": 2,
      "note": 75,
      "start": 1.0694,
      "duration": 0.0498,
      "velocity": 106,
      "chip": "ym2612"
    },
    {
      "channel": 3,
      "note": 67,
      "start": 1.0697,
      "duration": 0.0495,
      "velocity": 106,
      "chip": "ym2612"
    },
    {
      "channel": 4,
      "note": 70,
      "start": 1.0701,
      "duration": 0.0492,
      "velocity": 106,
      "chip": "ym2612"
    },
    {
      "channel": 2,
      "note": 77,
      "start": 1.1698,
      "duration": 0.1162,
      "velocity": 106,
      "chip": "ym2612"
    },
    {
      "channel": 3,
      "note": 70,
      "start": 1.1702,
      "duration": 0.1829,
      "velocity": 106,
      "chip": "ym2612"
    },
    {
      "channel": 4,
      "note": 74,
      "start": 1.1705,
      "duration": 0.1827,
      "velocity": 106,
      "chip": "ym2612"
    },
    {
      "channel": 2,
      "note": 75,
      "start": 1.3531,
      "duration": 0.0498,
      "velocity": 106,
      "chip": "ym2612"
    },
    {
      "channel": 2,
      "note": 74,
      "start": 1.4532,
      "duration": 0.5844,
      "velocity": 106,
      "chip": "ym2612"
    },
    {
      "channel": 3,
      "note": 65,
      "start": 1.4535,
      "duration": 0.5841,
      "velocity": 106,
      "chip": "ym2612"
    },
    {
      "channel": 4,
      "note": 70,
      "start": 1.4539,
      "duration": 0.5839,
      "velocity": 106,
      "chip": "ym2612"
    },
    {
      "channel": 0,
      "note": 94,
      "start": 2.0372,
      "duration": 0.1499,
      "velocity": 99,
      "chip": "ym2612"
    },
    {
      "channel": 1,
      "note": 82,
      "start": 2.0375,
      "duration": 0.1498,
      "velocity": 99,
      "chip": "ym2612"
    },
    {
      "channel": 2,
      "note": 73,
      "start": 2.6213,
      "duration": 0.1834,
      "velocity": 106,
      "chip": "ym2612"
    },
    {
      "channel": 3,
      "note": 66,
      "start": 2.6217,
      "duration": 0.1831,
      "velocity": 106,
      "chip": "ym2612"
    },
    {
      "channel": 4,
      "note": 70,
      "start": 2.622,
      "duration": 0.1828,
      "velocity": 106,
      "chip": "ym2612"
    },
    {
      "channel": 2,
      "note": 73,
      "start": 2.9217,
      "duration": 0.3168,
      "velocity": 106,
      "chip": "ym2612"
    },
    {
      "channel": 3,
      "note": 66,
      "start": 2.9221,
      "duration": 0.3832,
      "velocity": 106,
      "chip": "ym2612"
    },
    {
      "channel": 4,
      "note": 70,
      "start": 2.9224,
      "duration": 0.3829,
      "velocity": 106,
      "chip": "ym2612"
    },
    {
      "channel": 2,
      "note": 75,
      "start": 3.4057,
      "duration": 0.0498,
      "velocity": 106,
      "chip": "ym2612"
    },
    {
      "channel": 2,
      "note": 72,
      "start": 3.4897,
      "duration": 0.116,
      "velocity": 106,
      "chip": "ym2612"
    },
    {
      "channel": 3,
      "note": 63,
      "start": 3.4901,
      "duration": 0.1824,
      "velocity": 106,
      "chip": "ym2612"
    },
    {
      "channel": 4,
      "note": 68,
      "start": 3.4905,
      "duration": 0.1821,
      "velocity": 106,
      "chip": "ym2612"
    },
    {
      "channel": 2,
      "note": 70,
      "start": 3.6894,
      "duration": 0.0498,
      "velocity": 106,
      "chip": "ym2612"
    },
    {
      "channel": 2,
      "note": 68,
      "start": 3.7895,
      "duration": 0.5838,
      "velocity": 106,
      "chip": "ym2612"
    },
    {
      "channel": 3,
      "note": 60,
      "start": 3.7899,
      "duration": 0.5835,
      "velocity": 106,
      "chip": "ym2612"
    },
    {
      "channel": 4,
      "note": 63,
      "start": 3.7902,
      "duration": 0.5832,
      "velocity": 106,
      "chip": "ym2612"
    },
    {
      "channel": 0,
      "note": 92,
      "start": 4.0731,
      "duration": 0.0666,
      "velocity": 99,
      "chip": "ym2612"
    },
    {
      "channel": 1,
      "note": 80,
      "start": 4.0735,
      "duration": 0.0663,
      "velocity": 99,
      "chip": "ym2612"
    },
    {
      "channel": 0,
      "note": 92,
      "start": 4.2734,
      "duration": 0.0665,
      "velocity": 99,
      "chip": "ym2612"
    },
    {
      "channel": 1,
      "note": 80,
      "start": 4.2737,
      "duration": 0.0662,
      "velocity": 99,
      "chip": "ym2612"
    },
    {
      "channel": 0,
      "note": 93,
      "start": 4.5571,
      "duration": 0.0666,
      "velocity": 99,
      "chip": "ym2612"
    },
    {
      "channel": 1,
      "note": 81,
      "start": 4.5574,
      "duration": 0.0663,
      "velocity": 99,
      "chip": "ym2612"
    },
    {
      "channel": 0,
      "note": 94,
      "start": 4.6576,
      "duration": 0.5667,
      "velocity": 99,
      "chip": "ym2612"
    },
    {
      "channel": 1,
      "note": 82,
      "start": 4.658,
      "duration": 0.5665,
      "velocity": 99,
      "chip": "ym2612"
    },
    {
      "channel": 2,
      "note": 75,
      "start": 4.6584,
      "duration": 0.3825,
      "velocity": 106,
      "chip": "ym2612"
    },
    {
      "channel": 3,
      "note": 67,
      "start": 4.6588,
      "duration": 0.3822,
      "velocity": 106,
      "chip": "ym2612"
    },
    {
      "channel": 4,
      "note": 70,
      "start": 4.6592,
      "duration": 0.3819,
      "velocity": 106,
      "chip": "ym2612"
    },
    {
      "channel": 0,
      "note": 94,
      "start": 5.2413,
      "duration": 0.467,
      "velocity": 99,
      "chip": "ym2612"
    },
    {
      "channel": 1,
      "note": 82,
      "start": 5.2417,
      "duration": 0.4668,
      "velocity": 99,
      "chip": "ym2612"
    },
    {
      "channel": 2,
      "note": 75,
      "start": 5.242,
      "duration": 0.3162,
      "velocity": 106,
      "chip": "ym2612"
    },
    {
      "channel": 3,
      "note": 67,
      "start": 5.2424,
      "duration": 0.3159,
      "velocity": 106,
      "chip": "ym2612"
    },
    {
      "channel": 4,
      "note": 70,
      "start": 5.2427,
      "duration": 0.3156,
      "velocity": 106,
      "chip": "ym2612"
    },
    {
      "channel": 0,
      "note": 94,
      "start": 5.7253,
      "duration": 0.0832,
      "velocity": 99,
      "chip": "ym2612"
    },
    {
      "channel": 1,
      "note": 82,
      "start": 5.7256,
      "duration": 0.083,
      "velocity": 99,
      "chip": "ym2612"
    },
    {
      "channel": 2,
      "note": 75,
      "start": 5.726,
      "duration": 0.0492,
      "velocity": 106,
      "chip": "ym2612"
    },
    {
      "channel": 3,
      "note": 67,
      "start": 5.7263,
      "duration": 0.0489,
      "velocity": 106,
      "chip": "ym2612"
    },
    {
      "channel": 4,
      "note": 70,
      "start": 5.7267,
      "duration": 0.0486,
      "velocity": 106,
      "chip": "ym2612"
    },
    {
      "channel": 0,
      "note": 98,
      "start": 5.8257,
      "duration": 0.1163,
      "velocity": 99,
      "chip": "ym2612"
    },
    {
      "channel": 1,
      "note": 86,
      "start": 5.826,
      "duration": 0.1161,
      "velocity": 99,
      "chip": "ym2612"
    },
    {
      "channel": 2,
      "note": 77,
      "start": 5.8264,
      "duration": 0.1159,
      "velocity": 106,
      "chip": "ym2612"
    },
    {
      "channel": 3,
      "note": 70,
      "start": 5.8267,
      "duration": 0.1822,
      "velocity": 106,
      "chip": "ym2612"
    },
    {
      "channel": 4,
      "note": 74,
      "start": 5.8271,
      "duration": 0.1819,
      "velocity": 106,
      "chip": "ym2612"
    },
    {
      "channel": 0,
      "note": 96,
      "start": 6.0256,
      "duration": 0.0665,
      "velocity": 99,
      "chip": "ym2612"
    },
    {
      "channel": 1,
      "note": 84,
      "start": 6.026,
      "duration": 0.0663,
      "velocity": 99,
      "chip": "ym2612"
    },
    {
      "channel": 2,
      "note": 75,
      "start": 6.0263,
      "duration": 0.0492,
      "velocity": 106,
      "chip": "ym2612"
    },
    {
      "channel": 0,
      "note": 94,
      "start": 6.1258,
      "duration": 0.4503,
      "velocity": 99,
      "chip": "ym2612"
    },
    {
      "channel": 1,
      "note": 82,
      "start": 6.1261,
      "duration": 0.4501,
      "velocity": 99,
      "chip": "ym2612"
    },
    {
      "channel": 2,
      "note": 74,
      "start": 6.1265,
      "duration": 0.5833,
      "velocity": 106,
      "chip": "ym2612"
    },
    {
      "channel": 3,
      "note": 65,
      "start": 6.1268,
      "duration": 0.583,
      "velocity": 106,
      "chip": "ym2612"
    },
    {
      "channel": 4,
      "note": 70,
      "start": 6.1272,
      "duration": 0.5827,
      "velocity": 106,
      "chip": "ym2612"
    },
    {
      "channel": 0,
      "note": 94,
      "start": 6.6098,
      "duration": 0.0665,
      "velocity": 99,
      "chip": "ym2612"
    },
    {
      "channel": 1,
      "note": 82,
      "start": 6.6101,
      "duration": 0.0662,
      "velocity": 99,
      "chip": "ym2612"
    },
    {
      "channel": 0,
      "note": 94,
      "start": 6.8934,
      "duration": 0.0665,
      "velocity": 99,
      "chip": "ym2612"
    },
    {
      "channel": 1,
      "note": 82,
      "start": 6.8938,
      "duration": 0.0662,
      "velocity": 99,
      "chip": "ym2612"
    },
    {
      "channel": 2,
      "note": 49,
      "start": 6.9941,
      "duration": 0.317,
      "velocity": 106,
      "chip": "ym2612"
    },
    {
      "channel": 3,
      "note": 54,
      "start": 6.9946,
      "duration": 0.3166,
      "velocity": 106,
      "chip": "ym2612"
    },
    {
      "channel": 4,
      "note": 58,
      "start": 6.995,
      "duration": 0.3163,
      "velocity": 106,
      "chip": "ym2612"
    },
    {
      "channel": 0,
      "note": 94,
      "start": 7.0103,
      "duration": 0.3004,
      "velocity": 99,
      "chip": "ym2612"
    },
    {
      "channel": 1,
      "note": 82,
      "start": 7.0106,
      "duration": 0.3004,
      "velocity": 99,
      "chip": "ym2612"
    },
    {
      "channel": 0,
      "note": 94,
      "start": 7.3107,
      "duration": 0.0668,
      "velocity": 99,
      "chip": "ym2612"
    },
    {
      "channel": 1,
      "note": 82,
      "start": 7.311,
      "duration": 0.0668,
      "velocity": 99,
      "chip": "ym2612"
    },
    {
      "channel": 0,
      "note": 94,
      "start": 7.3775,
      "duration": 0.0834,
      "velocity": 99,
      "chip": "ym2612"
    },
    {
      "channel": 1,
      "note": 82,
      "start": 7.3779,
      "duration": 0.0834,
      "velocity": 99,
      "chip": "ym2612"
    },
    {
      "channel": 0,
      "note": 94,
      "start": 7.4609,
      "duration": 0.0668,
      "velocity": 99,
      "chip": "ym2612"
    },
    {
      "channel": 1,
      "note": 82,
      "start": 7.4613,
      "duration": 0.0667,
      "velocity": 99,
      "chip": "ym2612"
    },
    {
      "channel": 2,
      "note": 49,
      "start": 7.4776,
      "duration": 0.0505,
      "velocity": 106,
      "chip": "ym2612"
    },
    {
      "channel": 3,
      "note": 54,
      "start": 7.478,
      "duration": 0.0502,
      "velocity": 106,
      "chip": "ym2612"
    },
    {
      "channel": 4,
      "note": 58,
      "start": 7.4783,
      "duration": 0.05,
      "velocity": 106,
      "chip": "ym2612"
    },
    {
      "channel": 0,
      "note": 94,
      "start": 7.5277,
      "duration": 0.0668,
      "velocity": 99,
      "chip": "ym2612"
    },
    {
      "channel": 1,
      "note": 82,
      "start": 7.5281,
      "duration": 0.0668,
      "velocity": 99,
      "chip": "ym2612"
    },
    {
      "channel": 2,
      "note": 61,
      "start": 7.5778,
      "duration": 0.3167,
      "velocity": 106,
      "chip": "ym2612"
    },
    {
      "channel": 3,
      "note": 66,
      "start": 7.5782,
      "duration": 0.3164,
      "velocity": 106,
      "chip": "ym2612"
    },
    {
      "channel": 4,
      "note": 70,
      "start": 7.5787,
      "duration": 0.316,
      "velocity": 106,
      "chip": "ym2612"
    },
    {
      "channel": 0,
      "note": 94,
      "start": 7.5944,
      "duration": 0.0834,
      "velocity": 99,
      "chip": "ym2612"
    },
    {
      "channel": 1,
      "note": 82,
      "start": 7.5948,
      "duration": 0.0834,
      "velocity": 99,
      "chip": "ym2612"
    },
    {
      "channel": 0,
      "note": 94,
      "start": 7.6778,
      "duration": 0.0668,
      "velocity": 99,
      "chip": "ym2612"
    },
    {
      "channel": 1,
      "note": 82,
      "start": 7.6783,
      "duration": 0.0667,
      "velocity": 99,
      "chip": "ym2612"
    },
    {
      "channel": 0,
      "note": 94,
      "start": 7.7446,
      "duration": 1.1679,
      "velocity": 99,
      "chip": "ym2612"
    },
    {
      "channel": 1,
      "note": 82,
      "start": 7.745,
      "duration": 1.1678,
      "velocity": 99,
      "chip": "ym2612"
    },
    {
      "channel": 2,
      "note": 61,
      "start": 8.0617,
      "duration": 0.0498,
      "velocity": 106,
      "chip": "ym2612"
    },
    {
      "channel": 3,
      "note": 66,
      "start": 8.0621,
      "duration": 0.0495,
      "velocity": 106,
      "chip": "ym2612"
    },
    {
      "channel": 4,
      "note": 70,
      "start": 8.0624,
      "duration": 0.0492,
      "velocity": 106,
      "chip": "ym2612"
    },
    {
      "channel": 2,
      "note": 73,
      "start": 8.1622,
      "duration": 0.3164,
      "velocity": 106,
      "chip": "ym2612"
    },
    {
      "channel": 3,
      "note": 78,
      "start": 8.1626,
      "duration": 0.3161,
      "velocity": 106,
      "chip": "ym2612"
    },
    {
      "channel": 4,
      "note": 82,
      "start": 8.163,
      "duration": 0.3157,
      "velocity": 106,
      "chip": "ym2612"
    },
    {
      "channel": 2,
      "note": 73,
      "start": 8.6458,
      "duration": 0.0498,
      "velocity": 106,
      "chip": "ym2612"
    },
    {
      "channel": 3,
      "note": 78,
      "start": 8.6461,
      "duration": 0.0495,
      "velocity": 106,
      "chip": "ym2612"
    },
    {
      "channel": 4,
      "note": 82,
      "start": 8.6465,
      "duration": 0.0492,
      "velocity": 106,
      "chip": "ym2612"
    },
    {
      "channel": 2,
      "note": 85,
      "start": 8.746,
      "duration": 0.3167,
      "velocity": 106,
      "chip": "ym2612"
    },
    {
      "channel": 3,
      "note": 90,
      "start": 8.7464,
      "duration": 0.3164,
      "velocity": 106,
      "chip": "ym2612"
    },
    {
      "channel": 4,
      "note": 94,
      "start": 8.7468,
      "duration": 0.316,
      "velocity": 106,
      "chip": "ym2612"
    },
    {
      "channel": 0,
      "note": 94,
      "start": 8.9294,
      "duration": 0.0668,
      "velocity": 99,
      "chip": "ym2612"
    },
    {
      "channel": 1,
      "note": 82,
      "start": 8.9298,
      "duration": 0.0665,
      "velocity": 99,
      "chip": "ym2612"
    },
    {
      "channel": 0,
      "note": 94,
      "start": 9.2298,
      "duration": 0.0665,
      "velocity": 99,
      "chip": "ym2612"
    },
    {
      "channel": 1,
      "note": 82,
      "start": 9.2301,
      "duration": 0.0662,
      "velocity": 99,
      "chip": "ym2612"
    },
    {
      "channel": 2,
      "note": 85,
      "start": 9.2305,
      "duration": 0.0492,
      "velocity": 106,
      "chip": "ym2612"
    },
    {
      "channel": 3,
      "note": 90,
      "start": 9.2308,
      "duration": 0.0489,
      "velocity": 106,
      "chip": "ym2612"
    },
    {
      "channel": 4,
      "note": 94,
      "start": 9.2312,
      "duration": 0.0486,
      "velocity": 106,
      "chip": "ym2612"
    },
    {
      "channel": 0,
      "note": 94,
      "start": 9.3303,
      "duration": 0.1331,
      "velocity": 99,
      "chip": "ym2612"
    },
    {
      "channel": 1,
      "note": 82,
      "start": 9.3307,
      "duration": 0.1332,
      "velocity": 99,
      "chip": "ym2612"
    },
    {
      "channel": 2,
      "note": 51,
      "start": 9.3311,
      "duration": 0.3158,
      "velocity": 106,
      "chip": "ym2612"
    },
    {
      "channel": 3,
      "note": 56,
      "start": 9.3315,
      "duration": 0.3154,
      "velocity": 106,
      "chip": "ym2612"
    },
    {
      "channel": 4,
      "note": 60,
      "start": 9.332,
      "duration": 0.315,
      "velocity": 106,
      "chip": "ym2612"
    },
    {
      "channel": 0,
      "note": 94,
      "start": 9.4634,
      "duration": 0.0835,
      "velocity": 99,
      "chip": "ym2612"
    },
    {
      "channel": 1,
      "note": 82,
      "start": 9.4638,
      "duration": 0.0835,
      "velocity": 99,
      "chip": "ym2612"
    },
    {
      "channel": 0,
      "note": 94,
      "start": 9.5469,
      "duration": 0.0668,
      "velocity": 99,
      "chip": "ym2612"
    },
    {
      "channel": 1,
      "note": 82,
      "start": 9.5473,
      "duration": 0.0668,
      "velocity": 99,
      "chip": "ym2612"
    },
    {
      "channel": 0,
      "note": 94,
      "start": 9.6137,
      "duration": 0.0668,
      "velocity": 99,
      "chip": "ym2612"
    },
    {
      "channel": 1,
      "note": 82,
      "start": 9.6141,
      "duration": 0.0668,
      "velocity": 99,
      "chip": "ym2612"
    },
    {
      "channel": 0,
      "note": 94,
      "start": 9.6804,
      "duration": 0.0834,
      "velocity": 99,
      "chip": "ym2612"
    },
    {
      "channel": 1,
      "note": 82,
      "start": 9.6809,
      "duration": 0.0834,
      "velocity": 99,
      "chip": "ym2612"
    },
    {
      "channel": 0,
      "note": 94,
      "start": 9.7639,
      "duration": 0.067,
      "velocity": 99,
      "chip": "ym2612"
    },
    {
      "channel": 1,
      "note": 82,
      "start": 9.7643,
      "duration": 0.067,
      "velocity": 99,
      "chip": "ym2612"
    },
    {
      "channel": 2,
      "note": 51,
      "start": 9.814,
      "duration": 0.0498,
      "velocity": 106,
      "chip": "ym2612"
    },
    {
      "channel": 3,
      "note": 56,
      "start": 9.8143,
      "duration": 0.0495,
      "velocity": 106,
      "chip": "ym2612"
    },
    {
      "channel": 4,
      "note": 60,
      "start": 9.8147,
      "duration": 0.0492,
      "velocity": 106,
      "chip": "ym2612"
    },
    {
      "channel": 0,
      "note": 94,
      "start": 9.8309,
      "duration": 0.0665,
      "velocity": 99,
      "chip": "ym2612"
    },
    {
      "channel": 1,
      "note": 82,
      "start": 9.8313,
      "duration": 0.0665,
      "velocity": 99,
      "chip": "ym2612"
    },
    {
      "channel": 0,
      "note": 94,
      "start": 9.8974,
      "duration": 0.7676,
      "velocity": 99,
      "chip": "ym2612"
    },
    {
      "channel": 1,
      "note": 82,
      "start": 9.8978,
      "duration": 0.7673,
      "velocity": 99,
      "chip": "ym2612"
    },
    {
      "channel": 2,
      "note": 63,
      "start": 9.8982,
      "duration": 0.316,
      "velocity": 106,
      "chip": "ym2612"
    },
    {
      "channel": 3,
      "note": 68,
      "start": 9.8986,
      "duration": 0.3156,
      "velocity": 106,
      "chip": "ym2612"
    },
    {
      "channel": 4,
      "note": 72,
      "start": 9.899,
      "duration": 0.3153,
      "velocity": 106,
      "chip": "ym2612"
    },
    {
      "channel": 2,
      "note": 63,
      "start": 10.398,
      "duration": 0.0498,
      "velocity": 106,
      "chip": "ym2612"
    },
    {
      "channel": 3,
      "note": 68,
      "start": 10.3984,
      "duration": 0.0496,
      "velocity": 106,
      "chip": "ym2612"
    },
    {
      "channel": 4,
      "note": 72,
      "start": 10.3988,
      "duration": 0.0493,
      "velocity": 106,
      "chip": "ym2612"
    },
    {
      "channel": 2,
      "note": 75,
      "start": 10.4816,
      "duration": 0.3167,
      "velocity": 106,
      "chip": "ym2612"
    },
    {
      "channel": 3,
      "note": 80,
      "start": 10.482,
      "duration": 0.3163,
      "velocity": 106,
      "chip": "ym2612"
    },
    {
      "channel": 4,
      "note": 84,
      "start": 10.4824,
      "duration": 0.316,
      "velocity": 106,
      "chip": "ym2612"
    },
    {
      "channel": 0,
      "note": 94,
      "start": 10.6817,
      "duration": 0.0998,
      "velocity": 99,
      "chip": "ym2612"
    },
    {
      "channel": 1,
      "note": 82,
      "start": 10.682,
      "duration": 0.0995,
      "velocity": 99,
      "chip": "ym2612"
    },
    {
      "channel": 0,
      "note": 94,
      "start": 10.9653,
      "duration": 0.0999,
      "velocity": 99,
      "chip": "ym2612"
    },
    {
      "channel": 1,
      "note": 82,
      "start": 10.9657,
      "duration": 0.0996,
      "velocity": 99,
      "chip": "ym2612"
    },
    {
      "channel": 2,
      "note": 75,
      "start": 10.966,
      "duration": 0.0492,
      "velocity": 106,
      "chip": "ym2612"
    },
    {
      "channel": 3,
      "note": 80,
      "start": 10.9664,
      "duration": 0.0489,
      "velocity": 106,
      "chip": "ym2612"
    },
    {
      "channel": 4,
      "note": 84,
      "start": 10.9668,
      "duration": 0.0486,
      "velocity": 106,
      "chip": "ym2612"
    },
    {
      "channel": 2,
      "note": 87,
      "start": 11.0657,
      "duration": 0.3167,
      "velocity": 106,
      "chip": "ym2612"
    },
    {
      "channel": 3,
      "note": 92,
      "start": 11.0661,
      "duration": 0.3163,
      "velocity": 106,
      "chip": "ym2612"
    },
    {
      "channel": 4,
      "note": 96,
      "start": 11.0665,
      "duration": 0.316,
      "velocity": 106,
      "chip": "ym2612"
    },
    {
      "channel": 0,
      "note": 94,
      "start": 11.2657,
      "duration": 0.0999,
      "velocity": 99,
      "chip": "ym2612"
    },
    {
      "channel": 1,
      "note": 82,
      "start": 11.2661,
      "duration": 0.0996,
      "velocity": 99,
      "chip": "ym2612"
    },
    {
      "channel": 0,
      "note": 94,
      "start": 11.5495,
      "duration": 0.1014,
      "velocity": 113,
      "chip": "ym2612"
    },
    {
      "channel": 1,
      "note": 82,
      "start": 11.5498,
      "duration": 0.1026,
      "velocity": 112,
      "chip": "ym2612"
    },
    {
      "channel": 2,
      "note": 87,
      "start": 11.5502,
      "duration": 0.0491,
      "velocity": 106,
      "chip": "ym2612"
    },
    {
      "channel": 3,
      "note": 92,
      "start": 11.5505,
      "duration": 0.0488,
      "velocity": 106,
      "chip": "ym2612"
    },
    {
      "channel": 4,
      "note": 96,
      "start": 11.5509,
      "duration": 0.0486,
      "velocity": 106,
      "chip": "ym2612"
    },
    {
      "channel": 0,
      "note": 58,
      "start": 11.651,
      "duration": 0.0439,
      "velocity": 113,
      "chip": "ym2612"
    },
    {
      "channel": 1,
      "note": 94,
      "start": 11.6526,
      "duration": 0.0426,
      "velocity": 112,
      "chip": "ym2612"
    },
    {
      "channel": 2,
      "note": 86,
      "start": 11.6529,
      "duration": 0.0435,
      "velocity": 106,
      "chip": "ym2612"
    },
    {
      "channel": 3,
      "note": 89,
      "start": 11.6531,
      "duration": 0.0445,
      "velocity": 106,
      "chip": "ym2612"
    },
    {
      "channel": 4,
      "note": 58,
      "start": 11.6543,
      "duration": 0.0446,
      "velocity": 106,
      "chip": "ym2612"
    },
    {
      "channel": 0,
      "note": 58,
      "start": 11.6951,
      "duration": 0.0842,
      "velocity": 113,
      "chip": "ym2612"
    },
    {
      "channel": 2,
      "note": 77,
      "start": 11.6965,
      "duration": 0.0831,
      "velocity": 106,
      "chip": "ym2612"
    },
    {
      "channel": 3,
      "note": 74,
      "start": 11.6977,
      "duration": 0.0821,
      "velocity": 106,
      "chip": "ym2612"
    },
    {
      "channel": 4,
      "note": 70,
      "start": 11.699,
      "duration": 0.081,
      "velocity": 106,
      "chip": "ym2612"
    },
    {
      "channel": 0,
      "note": 58,
      "start": 11.7795,
      "duration": 0.1121,
      "velocity": 113,
      "chip": "ym2612"
    },
    {
      "channel": 2,
      "note": 77,
      "start": 11.8135,
      "duration": 0.0734,
      "velocity": 106,
      "chip": "ym2612"
    },
    {
      "channel": 3,
      "note": 74,
      "start": 11.8141,
      "duration": 0.0729,
      "velocity": 106,
      "chip": "ym2612"
    },
    {
      "channel": 4,
      "note": 70,
      "start": 11.8146,
      "duration": 0.0724,
      "velocity": 106,
      "chip": "ym2612"
    },
    {
      "channel": 0,
      "note": 58,
      "start": 11.8918,
      "duration": 0.0143,
      "velocity": 113,
      "chip": "ym2612"
    },
    {
      "channel": 0,
      "note": 58,
      "start": 11.9063,
      "duration": 0.0846,
      "velocity": 113,
      "chip": "ym2612"
    },
    {
      "channel": 2,
      "note": 77,
      "start": 11.9067,
      "duration": 0.0845,
      "velocity": 106,
      "chip": "ym2612"
    },
    {
      "channel": 3,
      "note": 74,
      "start": 11.9071,
      "duration": 0.0843,
      "velocity": 106,
      "chip": "ym2612"
    },
    {
      "channel": 4,
      "note": 70,
      "start": 11.9075,
      "duration": 0.0839,
      "velocity": 106,
      "chip": "ym2612"
    },
    {
      "channel": 0,
      "note": 58,
      "start": 11.9911,
      "duration": 0.0069,
      "velocity": 113,
      "chip": "ym2612"
    },
    {
      "channel": 2,
      "note": 77,
      "start": 11.9939,
      "duration": 0.1149,
      "velocity": 106,
      "chip": "ym2612"
    },
    {
      "channel": 3,
      "note": 74,
      "start": 11.9942,
      "duration": 0.1147,
      "velocity": 106,
      "chip": "ym2612"
    },
    {
      "channel": 4,
      "note": 70,
      "start": 11.9946,
      "duration": 0.1145,
      "velocity": 106,
      "chip": "ym2612"
    },
    {
      "channel": 0,
      "note": 53,
      "start": 11.9982,
      "duration": 0.0938,
      "velocity": 113,
      "chip": "ym2612"
    },
    {
      "channel": 0,
      "note": 53,
      "start": 12.1925,
      "duration": 0.0065,
      "velocity": 113,
      "chip": "ym2612"
    },
    {
      "channel": 0,
      "note": 57,
      "start": 12.1993,
      "duration": 0.0079,
      "velocity": 113,
      "chip": "ym2612"
    },
    {
      "channel": 2,
      "note": 72,
      "start": 12.1997,
      "duration": 0.1012,
      "velocity": 106,
      "chip": "ym2612"
    },
    {
      "channel": 3,
      "note": 69,
      "start": 12.2001,
      "duration": 0.101,
      "velocity": 106,
      "chip": "ym2612"
    },
    {
      "channel": 4,
      "note": 65,
      "start": 12.2005,
      "duration": 0.1007,
      "velocity": 106,
      "chip": "ym2612"
    },
    {
      "channel": 2,
      "note": 72,
      "start": 12.335,
      "duration": 0.0733,
      "velocity": 106,
      "chip": "ym2612"
    },
    {
      "channel": 3,
      "note": 69,
      "start": 12.3355,
      "duration": 0.0728,
      "velocity": 106,
      "chip": "ym2612"
    },
    {
      "channel": 4,
      "note": 65,
      "start": 12.3361,
      "duration": 0.0723,
      "velocity": 106,
      "chip": "ym2612"
    },
    {
      "channel": 0,
      "note": 60,
      "start": 12.4013,
      "duration": 0.0182,
      "velocity": 113,
      "chip": "ym2612"
    },
    {
      "channel": 2,
      "note": 72,
      "start": 12.4202,
      "duration": 0.1009,
      "velocity": 106,
      "chip": "ym2612"
    },
    {
      "channel": 3,
      "note": 69,
      "start": 12.4206,
      "duration": 0.1006,
      "velocity": 106,
      "chip": "ym2612"
    },
    {
      "channel": 4,
      "note": 65,
      "start": 12.4211,
      "duration": 0.1004,
      "velocity": 106,
      "chip": "ym2612"
    },
    {
      "channel": 2,
      "note": 72,
      "start": 12.5383,
      "duration": 0.1019,
      "velocity": 106,
      "chip": "ym2612"
    },
    {
      "channel": 3,
      "note": 69,
      "start": 12.5388,
      "duration": 0.1015,
      "velocity": 106,
      "chip": "ym2612"
    },
    {
      "channel": 4,
      "note": 65,
      "start": 12.5394,
      "duration": 0.1011,
      "velocity": 106,
      "chip": "ym2612"
    },
    {
      "channel": 0,
      "note": 56,
      "start": 12.6216,
      "duration": 0.1854,
      "velocity": 113,
      "chip": "ym2612"
    },
    {
      "channel": 0,
      "note": 56,
      "start": 12.8073,
      "duration": 0.1018,
      "velocity": 113,
      "chip": "ym2612"
    },
    {
      "channel": 2,
      "note": 75,
      "start": 12.8078,
      "duration": 0.1017,
      "velocity": 106,
      "chip": "ym2612"
    },
    {
      "channel": 3,
      "note": 72,
      "start": 12.8081,
      "duration": 0.1015,
      "velocity": 106,
      "chip": "ym2612"
    },
    {
      "channel": 4,
      "note": 68,
      "start": 12.8085,
      "duration": 0.1013,
      "velocity": 106,
      "chip": "ym2612"
    },
    {
      "channel": 0,
      "note": 56,
      "start": 12.9094,
      "duration": 0.111,
      "velocity": 113,
      "chip": "ym2612"
    },
    {
      "channel": 2,
      "note": 75,
      "start": 12.9264,
      "duration": 0.0902,
      "velocity": 106,
      "chip": "ym2612"
    },
    {
      "channel": 3,
      "note": 72,
      "start": 12.927,
      "duration": 0.0897,
      "velocity": 106,
      "chip": "ym2612"
    },
    {
      "channel": 4,
      "note": 68,
      "start": 12.9276,
      "duration": 0.0892,
      "velocity": 106,
      "chip": "ym2612"
    },
    {
      "channel": 0,
      "note": 56,
      "start": 13.0206,
      "duration": 0.0076,
      "velocity": 113,
      "chip": "ym2612"
    },
    {
      "channel": 0,
      "note": 56,
      "start": 13.0285,
      "duration": 0.1019,
      "velocity": 113,
      "chip": "ym2612"
    },
    {
      "channel": 2,
      "note": 75,
      "start": 13.0289,
      "duration": 0.1017,
      "velocity": 106,
      "chip": "ym2612"
    },
    {
      "channel": 3,
      "note": 72,
      "start": 13.0294,
      "duration": 0.1015,
      "velocity": 106,
      "chip": "ym2612"
    },
    {
      "channel": 4,
      "note": 68,
      "start": 13.0297,
      "duration": 0.1012,
      "velocity": 106,
      "chip": "ym2612"
    },
    {
      "channel": 0,
      "note": 56,
      "start": 13.1306,
      "duration": 0.0078,
      "velocity": 113,
      "chip": "ym2612"
    },
    {
      "channel": 2,
      "note": 75,
      "start": 13.1322,
      "duration": 0.117,
      "velocity": 106,
      "chip": "ym2612"
    },
    {
      "channel": 3,
      "note": 72,
      "start": 13.1326,
      "duration": 0.1169,
      "velocity": 106,
      "chip": "ym2612"
    },
    {
      "channel": 4,
      "note": 68,
      "start": 13.133,
      "duration": 0.1167,
      "velocity": 106,
      "chip": "ym2612"
    },
    {
      "channel": 0,
      "note": 58,
      "start": 13.1386,
      "duration": 0.0772,
      "velocity": 113,
      "chip": "ym2612"
    },
    {
      "channel": 0,
      "note": 58,
      "start": 13.3166,
      "duration": 0.008,
      "velocity": 113,
      "chip": "ym2612"
    },
    {
      "channel": 0,
      "note": 55,
      "start": 13.3249,
      "duration": 0.008,
      "velocity": 113,
      "chip": "ym2612"
    },
    {
      "channel": 2,
      "note": 70,
      "start": 13.3253,
      "duration": 0.1012,
      "velocity": 106,
      "chip": "ym2612"
    },
    {
      "channel": 3,
      "note": 67,
      "start": 13.3257,
      "duration": 0.101,
      "velocity": 106,
      "chip": "ym2612"
    },
    {
      "channel": 4,
      "note": 63,
      "start": 13.3261,
      "duration": 0.1008,
      "velocity": 106,
      "chip": "ym2612"
    },
    {
      "channel": 2,
      "note": 70,
      "start": 13.4437,
      "duration": 0.0906,
      "velocity": 106,
      "chip": "ym2612"
    },
    {
      "channel": 3,
      "note": 67,
      "start": 13.4442,
      "duration": 0.0902,
      "velocity": 106,
      "chip": "ym2612"
    },
    {
      "channel": 4,
      "note": 63,
      "start": 13.4448,
      "duration": 0.0897,
      "velocity": 106,
      "chip": "ym2612"
    },
    {
      "channel": 0,
      "note": 51,
      "start": 13.527,
      "duration": 0.0174,
      "velocity": 113,
      "chip": "ym2612"
    },
    {
      "channel": 2,
      "note": 70,
      "start": 13.5448,
      "duration": 0.1926,
      "velocity": 106,
      "chip": "ym2612"
    },
    {
      "channel": 3,
      "note": 67,
      "start": 13.5451,
      "duration": 0.1924,
      "velocity": 106,
      "chip": "ym2612"
    },
    {
      "channel": 4,
      "note": 63,
      "start": 13.5455,
      "duration": 0.1921,
      "velocity": 106,
      "chip": "ym2612"
    },
    {
      "channel": 2,
      "note": 70,
      "start": 13.7391,
      "duration": 0.0414,
      "velocity": 106,
      "chip": "ym2612"
    },
    {
      "channel": 3,
      "note": 67,
      "start": 13.7394,
      "duration": 0.0412,
      "velocity": 106,
      "chip": "ym2612"
    },
    {
      "channel": 4,
      "note": 63,
      "start": 13.7398,
      "duration": 0.041,
      "velocity": 106,
      "chip": "ym2612"
    },
    {
      "channel": 0,
      "note": 58,
      "start": 13.7459,
      "duration": 0.2015,
      "velocity": 113,
      "chip": "ym2612"
    },
    {
      "channel": 0,
      "note": 58,
      "start": 13.9476,
      "duration": 0.1016,
      "velocity": 113,
      "chip": "ym2612"
    },
    {
      "channel": 2,
      "note": 77,
      "start": 13.9481,
      "duration": 0.1014,
      "velocity": 106,
      "chip": "ym2612"
    },
    {
      "channel": 3,
      "note": 74,
      "start": 13.9485,
      "duration": 0.1012,
      "velocity": 106,
      "chip": "ym2612"
    },
    {
      "channel": 4,
      "note": 70,
      "start": 13.9489,
      "duration": 0.101,
      "velocity": 106,
      "chip": "ym2612"
    },
    {
      "channel": 0,
      "note": 58,
      "start": 14.0494,
      "duration": 0.0953,
      "velocity": 113,
      "chip": "ym2612"
    },
    {
      "channel": 2,
      "note": 77,
      "start": 14.0665,
      "duration": 0.0745,
      "velocity": 106,
      "chip": "ym2612"
    },
    {
      "channel": 3,
      "note": 74,
      "start": 14.067,
      "duration": 0.074,
      "velocity": 106,
      "chip": "ym2612"
    },
    {
      "channel": 4,
      "note": 70,
      "start": 14.0676,
      "duration": 0.0735,
      "velocity": 106,
      "chip": "ym2612"
    },
    {
      "channel": 0,
      "note": 58,
      "start": 14.1448,
      "duration": 0.0141,
      "velocity": 113,
      "chip": "ym2612"
    },
    {
      "channel": 0,
      "note": 58,
      "start": 14.1591,
      "duration": 0.0853,
      "velocity": 113,
      "chip": "ym2612"
    },
    {
      "channel": 2,
      "note": 77,
      "start": 14.1596,
      "duration": 0.0852,
      "velocity": 106,
      "chip": "ym2612"
    },
    {
      "channel": 3,
      "note": 74,
      "start": 14.16,
      "duration": 0.0849,
      "velocity": 106,
      "chip": "ym2612"
    },
    {
      "channel": 4,
      "note": 70,
      "start": 14.1604,
      "duration": 0.0846,
      "velocity": 106,
      "chip": "ym2612"
    },
    {
      "channel": 0,
      "note": 58,
      "start": 14.2446,
      "duration": 0.0076,
      "velocity": 113,
      "chip": "ym2612"
    },
    {
      "channel": 2,
      "note": 77,
      "start": 14.2474,
      "duration": 0.1325,
      "velocity": 106,
      "chip": "ym2612"
    },
    {
      "channel": 3,
      "note": 74,
      "start": 14.2478,
      "duration": 0.1323,
      "velocity": 106,
      "chip": "ym2612"
    },
    {
      "channel": 4,
      "note": 70,
      "start": 14.2482,
      "duration": 0.1321,
      "velocity": 106,
      "chip": "ym2612"
    },
    {
      "channel": 0,
      "note": 53,
      "start": 14.2524,
      "duration": 0.094,
      "velocity": 113,
      "chip": "ym2612"
    },
    {
      "channel": 0,
      "note": 53,
      "start": 14.4472,
      "duration": 0.0087,
      "velocity": 113,
      "chip": "ym2612"
    },
    {
      "channel": 0,
      "note": 57,
      "start": 14.4561,
      "duration": 0.0079,
      "velocity": 113,
      "chip": "ym2612"
    },
    {
      "channel": 2,
      "note": 72,
      "start": 14.4566,
      "duration": 0.0843,
      "velocity": 106,
      "chip": "ym2612"
    },
    {
      "channel": 3,
      "note": 69,
      "start": 14.457,
      "duration": 0.0842,
      "velocity": 106,
      "chip": "ym2612"
    },
    {
      "channel": 4,
      "note": 65,
      "start": 14.4574,
      "duration": 0.084,
      "velocity": 106,
      "chip": "ym2612"
    },
    {
      "channel": 2,
      "note": 72,
      "start": 14.5748,
      "duration": 0.0736,
      "velocity": 106,
      "chip": "ym2612"
    },
    {
      "channel": 3,
      "note": 69,
      "start": 14.5754,
      "duration": 0.0731,
      "velocity": 106,
      "chip": "ym2612"
    },
    {
      "channel": 4,
      "note": 65,
      "start": 14.576,
      "duration": 0.0726,
      "velocity": 106,
      "chip": "ym2612"
    },
    {
      "channel": 0,
      "note": 60,
      "start": 14.6415,
      "duration": 0.0257,
      "velocity": 113,
      "chip": "ym2612"
    },
    {
      "channel": 2,
      "note": 72,
      "start": 14.6678,
      "duration": 0.085,
      "velocity": 106,
      "chip": "ym2612"
    },
    {
      "channel": 3,
      "note": 69,
      "start": 14.6682,
      "duration": 0.0847,
      "velocity": 106,
      "chip": "ym2612"
    },
    {
      "channel": 4,
      "note": 65,
      "start": 14.6685,
      "duration": 0.0846,
      "velocity": 106,
      "chip": "ym2612"
    },
    {
      "channel": 2,
      "note": 72,
      "start": 14.7866,
      "duration": 0.0849,
      "velocity": 106,
      "chip": "ym2612"
    },
    {
      "channel": 3,
      "note": 69,
      "start": 14.7871,
      "duration": 0.0846,
      "velocity": 106,
      "chip": "ym2612"
    },
    {
      "channel": 4,
      "note": 65,
      "start": 14.7877,
      "duration": 0.0842,
      "velocity": 106,
      "chip": "ym2612"
    },
    {
      "channel": 0,
      "note": 56,
      "start": 14.8532,
      "duration": 0.2019,
      "velocity": 113,
      "chip": "ym2612"
    },
    {
      "channel": 0,
      "note": 56,
      "start": 15.0554,
      "duration": 0.0851,
      "velocity": 113,
      "chip": "ym2612"
    },
    {
      "channel": 2,
      "note": 75,
      "start": 15.0559,
      "duration": 0.0849,
      "velocity": 106,
      "chip": "ym2612"
    },
    {
      "channel": 3,
      "note": 72,
      "start": 15.0562,
      "duration": 0.0847,
      "velocity": 106,
      "chip": "ym2612"
    },
    {
      "channel": 4,
      "note": 68,
      "start": 15.0566,
      "duration": 0.0845,
      "velocity": 106,
      "chip": "ym2612"
    },
    {
      "channel": 0,
      "note": 56,
      "start": 15.1407,
      "duration": 0.1121,
      "velocity": 113,
      "chip": "ym2612"
    },
    {
      "channel": 2,
      "note": 75,
      "start": 15.1744,
      "duration": 0.0736,
      "velocity": 106,
      "chip": "ym2612"
    },
    {
      "channel": 3,
      "note": 72,
      "start": 15.175,
      "duration": 0.0731,
      "velocity": 106,
      "chip": "ym2612"
    },
    {
      "channel": 4,
      "note": 68,
      "start": 15.1755,
      "duration": 0.0726,
      "velocity": 106,
      "chip": "ym2612"
    },
    {
      "channel": 0,
      "note": 56,
      "start": 15.2529,
      "duration": 0.0067,
      "velocity": 113,
      "chip": "ym2612"
    },
    {
      "channel": 0,
      "note": 56,
      "start": 15.2598,
      "duration": 0.1017,
      "velocity": 113,
      "chip": "ym2612"
    },
    {
      "channel": 2,
      "note": 75,
      "start": 15.2602,
      "duration": 0.1016,
      "velocity": 106,
      "chip": "ym2612"
    },
    {
      "channel": 3,
      "note": 72,
      "start": 15.2607,
      "duration": 0.1013,
      "velocity": 106,
      "chip": "ym2612"
    },
    {
      "channel": 4,
      "note": 68,
      "start": 15.261,
      "duration": 0.1011,
      "velocity": 106,
      "chip": "ym2612"
    },
    {
      "channel": 0,
      "note": 56,
      "start": 15.3617,
      "duration": 0.0075,
      "velocity": 113,
      "chip": "ym2612"
    },
    {
      "channel": 2,
      "note": 75,
      "start": 15.3645,
      "duration": 0.0118,
      "velocity": 106,
      "chip": "ym2612"
    },
    {
      "channel": 3,
      "note": 72,
      "start": 15.3649,
      "duration": 0.0115,
      "velocity": 106,
      "chip": "ym2612"
    },
    {
      "channel": 4,
      "note": 68,
      "start": 15.3652,
      "duration": 0.0113,
      "velocity": 106,
      "chip": "ym2612"
    },
    {
      "channel": 0,
      "note": 58,
      "start": 15.3694,
      "duration": 0.0059,
      "velocity": 113,
      "chip": "ym2612"
    },
    {
      "channel": 0,
      "note": 58,
      "start": 15.3889,
      "duration": 0.083,
      "velocity": 113,
      "chip": "ym2612"
    },
    {
      "channel": 0,
      "note": 55,
      "start": 15.4722,
      "duration": 0.0082,
      "velocity": 113,
      "chip": "ym2612"
    },
    {
      "channel": 2,
      "note": 70,
      "start": 15.4727,
      "duration": 0.1016,
      "velocity": 106,
      "chip": "ym2612"
    },
    {
      "channel": 3,
      "note": 67,
      "start": 15.473,
      "duration": 0.1015,
      "velocity": 106,
      "chip": "ym2612"
    },
    {
      "channel": 4,
      "note": 63,
      "start": 15.4735,
      "duration": 0.1011,
      "velocity": 106,
      "chip": "ym2612"
    },
    {
      "channel": 2,
      "note": 70,
      "start": 15.576,
      "duration": 0.0165,
      "velocity": 106,
      "chip": "ym2612"
    },
    {
      "channel": 3,
      "note": 67,
      "start": 15.5764,
      "duration": 0.0161,
      "velocity": 106,
      "chip": "ym2612"
    },
    {
      "channel": 4,
      "note": 63,
      "start": 15.5769,
      "duration": 0.0157,
      "velocity": 106,
      "chip": "ym2612"
    },
    {
      "channel": 0,
      "note": 51,
      "start": 15.5836,
      "duration": 0.019,
      "velocity": 113,
      "chip": "ym2612"
    },
    {
      "channel": 2,
      "note": 70,
      "start": 15.6033,
      "duration": 0.0126,
      "velocity": 106,
      "chip": "ym2612"
    },
    {
      "channel": 3,
      "note": 67,
      "start": 15.6037,
      "duration": 0.0122,
      "velocity": 106,
      "chip": "ym2612"
    },
    {
      "channel": 4,
      "note": 63,
      "start": 15.6041,
      "duration": 0.012,
      "velocity": 106,
      "chip": "ym2612"
    },
    {
      "channel": 2,
      "note": 70,
      "start": 15.6174,
      "duration": 0.0137,
      "velocity": 106,
      "chip": "ym2612"
    },
    {
      "channel": 3,
      "note": 67,
      "start": 15.6178,
      "duration": 0.0134,
      "velocity": 106,
      "chip": "ym2612"
    },
    {
      "channel": 4,
      "note": 63,
      "start": 15.6182,
      "duration": 0.013,
      "velocity": 106,
      "chip": "ym2612"
    },
    {
      "channel": 0,
      "note": 58,
      "start": 15.6234,
      "duration": 0.1341,
      "velocity": 113,
      "chip": "ym2612"
    },
    {
      "channel": 0,
      "note": 58,
      "start": 15.7577,
      "duration": 0.0151,
      "velocity": 113,
      "chip": "ym2612"
    },
    {
      "channel": 1,
      "note": 82,
      "start": 15.7579,
      "duration": 0.0123,
      "velocity": 98,
      "chip": "ym2612"
    },
    {
      "channel": 3,
      "note": 62,
      "start": 15.76,
      "duration": 0.013,
      "velocity": 106,
      "chip": "ym2612"
    },
    {
      "channel": 4,
      "note": 58,
      "start": 15.7613,
      "duration": 0.0118,
      "velocity": 106,
      "chip": "ym2612"
    },
    {
      "channel": 0,
      "note": 58,
      "start": 15.7729,
      "duration": 0.0186,
      "velocity": 113,
      "chip": "ym2612"
    },
    {
      "channel": 3,
      "note": 62,
      "start": 15.7746,
      "duration": 0.013,
      "velocity": 106,
      "chip": "ym2612"
    },
    {
      "channel": 4,
      "note": 58,
      "start": 15.7749,
      "duration": 0.0127,
      "velocity": 106,
      "chip": "ym2612"
    },
    {
      "channel": 2,
      "note": 82,
      "start": 15.7781,
      "duration": 0.0094,
      "velocity": 98,
      "chip": "ym2612"
    },
    {
      "channel": 1,
      "note": 82,
      "start": 15.7805,
      "duration": 0.0288,
      "velocity": 98,
      "chip": "ym2612"
    },
    {
      "channel": 0,
      "note": 58,
      "start": 15.7918,
      "duration": 0.0064,
      "velocity": 113,
      "chip": "ym2612"
    },
    {
      "channel": 2,
      "note": 82,
      "start": 15.797,
      "duration": 0.0329,
      "velocity": 98,
      "chip": "ym2612"
    },
    {
      "channel": 0,
      "note": 58,
      "start": 15.7984,
      "duration": 0.0154,
      "velocity": 113,
      "chip": "ym2612"
    },
    {
      "channel": 3,
      "note": 62,
      "start": 15.7989,
      "duration": 0.0155,
      "velocity": 106,
      "chip": "ym2612"
    },
    {
      "channel": 4,
      "note": 58,
      "start": 15.7993,
      "duration": 0.0153,
      "velocity": 106,
      "chip": "ym2612"
    },
    {
      "channel": 0,
      "note": 58,
      "start": 15.814,
      "duration": 0.0066,
      "velocity": 113,
      "chip": "ym2612"
    },
    {
      "channel": 1,
      "note": 82,
      "start": 15.8144,
      "duration": 0.0046,
      "velocity": 98,
      "chip": "ym2612"
    },
    {
      "channel": 3,
      "note": 62,
      "start": 15.816,
      "duration": 0.0127,
      "velocity": 106,
      "chip": "ym2612"
    },
    {
      "channel": 4,
      "note": 58,
      "start": 15.8164,
      "duration": 0.0124,
      "velocity": 106,
      "chip": "ym2612"
    },
    {
      "channel": 0,
      "note": 53,
      "start": 15.8209,
      "duration": 0.0056,
      "velocity": 113,
      "chip": "ym2612"
    },
    {
      "channel": 1,
      "note": 84,
      "start": 15.8212,
      "duration": 0.0107,
      "velocity": 98,
      "chip": "ym2612"
    },
    {
      "channel": 2,
      "note": 82,
      "start": 15.8322,
      "duration": 0.0061,
      "velocity": 98,
      "chip": "ym2612"
    },
    {
      "channel": 0,
      "note": 53,
      "start": 15.8344,
      "duration": 0.0082,
      "velocity": 113,
      "chip": "ym2612"
    },
    {
      "channel": 1,
      "note": 82,
      "start": 15.8346,
      "duration": 0.0056,
      "velocity": 98,
      "chip": "ym2612"
    },
    {
      "channel": 2,
      "note": 84,
      "start": 15.8405,
      "duration": 0.0122,
      "velocity": 98,
      "chip": "ym2612"
    },
    {
      "channel": 0,
      "note": 57,
      "start": 15.8429,
      "duration": 0.0072,
      "velocity": 113,
      "chip": "ym2612"
    },
    {
      "channel": 1,
      "note": 81,
      "start": 15.8431,
      "duration": 0.0474,
      "velocity": 98,
      "chip": "ym2612"
    },
    {
      "channel": 3,
      "note": 57,
      "start": 15.8436,
      "duration": 0.0121,
      "velocity": 106,
      "chip": "ym2612"
    },
    {
      "channel": 4,
      "note": 53,
      "start": 15.844,
      "duration": 0.0117,
      "velocity": 106,
      "chip": "ym2612"
    },
    {
      "channel": 2,
      "note": 82,
      "start": 15.854,
      "duration": 0.0059,
      "velocity": 98,
      "chip": "ym2612"
    },
    {
      "channel": 3,
      "note": 57,
      "start": 15.8573,
      "duration": 0.0128,
      "velocity": 106,
      "chip": "ym2612"
    },
    {
      "channel": 4,
      "note": 53,
      "start": 15.8576,
      "duration": 0.0125,
      "velocity": 106,
      "chip": "ym2612"
    },
    {
      "channel": 2,
      "note": 81,
      "start": 15.8611,
      "duration": 0.0468,
      "velocity": 98,
      "chip": "ym2612"
    },
    {
      "channel": 0,
      "note": 60,
      "start": 15.8622,
      "duration": 0.0176,
      "velocity": 113,
      "chip": "ym2612"
    },
    {
      "channel": 3,
      "note": 57,
      "start": 15.8805,
      "duration": 0.0121,
      "velocity": 106,
      "chip": "ym2612"
    },
    {
      "channel": 4,
      "note": 53,
      "start": 15.8809,
      "duration": 0.0118,
      "velocity": 106,
      "chip": "ym2612"
    },
    {
      "channel": 1,
      "note": 77,
      "start": 15.8925,
      "duration": 0.0045,
      "velocity": 98,
      "chip": "ym2612"
    },
    {
      "channel": 3,
      "note": 57,
      "start": 15.894,
      "duration": 0.0127,
      "velocity": 106,
      "chip": "ym2612"
    },
    {
      "channel": 4,
      "note": 53,
      "start": 15.8943,
      "duration": 0.0124,
      "velocity": 106,
      "chip": "ym2612"
    },
    {
      "channel": 0,
      "note": 56,
      "start": 15.8982,
      "duration": 0.0211,
      "velocity": 113,
      "chip": "ym2612"
    },
    {
      "channel": 1,
      "note": 80,
      "start": 15.8984,
      "duration": 0.0093,
      "velocity": 98,
      "chip": "ym2612"
    },
    {
      "channel": 2,
      "note": 77,
      "start": 15.9099,
      "duration": 0.0039,
      "velocity": 98,
      "chip": "ym2612"
    },
    {
      "channel": 2,
      "note": 80,
      "start": 15.915,
      "duration": 0.0125,
      "velocity": 98,
      "chip": "ym2612"
    },
    {
      "channel": 0,
      "note": 56,
      "start": 15.9196,
      "duration": 0.0115,
      "velocity": 113,
      "chip": "ym2612"
    },
    {
      "channel": 1,
      "note": 80,
      "start": 15.9198,
      "duration": 0.0345,
      "velocity": 98,
      "chip": "ym2612"
    },
    {
      "channel": 3,
      "note": 60,
      "start": 15.9203,
      "duration": 0.011,
      "velocity": 106,
      "chip": "ym2612"
    },
    {
      "channel": 4,
      "note": 56,
      "start": 15.9207,
      "duration": 0.0107,
      "velocity": 106,
      "chip": "ym2612"
    },
    {
      "channel": 0,
      "note": 56,
      "start": 15.9313,
      "duration": 0.0189,
      "velocity": 113,
      "chip": "ym2612"
    },
    {
      "channel": 3,
      "note": 60,
      "start": 15.9335,
      "duration": 0.013,
      "velocity": 106,
      "chip": "ym2612"
    },
    {
      "channel": 4,
      "note": 56,
      "start": 15.9339,
      "duration": 0.0128,
      "velocity": 106,
      "chip": "ym2612"
    },
    {
      "channel": 2,
      "note": 80,
      "start": 15.9374,
      "duration": 0.0359,
      "velocity": 98,
      "chip": "ym2612"
    },
    {
      "channel": 0,
      "note": 56,
      "start": 15.9503,
      "duration": 0.0061,
      "velocity": 113,
      "chip": "ym2612"
    },
    {
      "channel": 0,
      "note": 56,
      "start": 15.9566,
      "duration": 0.0124,
      "velocity": 113,
      "chip": "ym2612"
    },
    {
      "channel": 1,
      "note": 80,
      "start": 15.957,
      "duration": 0.0106,
      "velocity": 98,
      "chip": "ym2612"
    },
    {
      "channel": 3,
      "note": 60,
      "start": 15.9576,
      "duration": 0.012,
      "velocity": 106,
      "chip": "ym2612"
    },
    {
      "channel": 4,
      "note": 56,
      "start": 15.958,
      "duration": 0.0118,
      "velocity": 106,
      "chip": "ym2612"
    },
    {
      "channel": 0,
      "note": 56,
      "start": 15.9692,
      "duration": 0.0077,
      "velocity": 113,
      "chip": "ym2612"
    },
    {
      "channel": 1,
      "note": 82,
      "start": 15.9695,
      "duration": 0.0056,
      "velocity": 98,
      "chip": "ym2612"
    },
    {
      "channel": 3,
      "note": 60,
      "start": 15.972,
      "duration": 0.0144,
      "velocity": 106,
      "chip": "ym2612"
    },
    {
      "channel": 4,
      "note": 56,
      "start": 15.9723,
      "duration": 0.0142,
      "velocity": 106,
      "chip": "ym2612"
    },
    {
      "channel": 2,
      "note": 80,
      "start": 15.9753,
      "duration": 0.013,
      "velocity": 98,
      "chip": "ym2612"
    },
    {
      "channel": 0,
      "note": 58,
      "start": 15.9772,
      "duration": 0.0082,
      "velocity": 113,
      "chip": "ym2612"
    },
    {
      "channel": 1,
      "note": 79,
      "start": 15.9776,
      "duration": 0.0117,
      "velocity": 98,
      "chip": "ym2612"
    },
    {
      "channel": 2,
      "note": 82,
      "start": 15.9895,
      "duration": 0.0083,
      "velocity": 98,
      "chip": "ym2612"
    },
    {
      "channel": 0,
      "note": 58,
      "start": 15.9929,
      "duration": 0.0083,
      "velocity": 113,
      "chip": "ym2612"
    },
    {
      "channel": 1,
      "note": 77,
      "start": 15.9932,
      "duration": 0.0056,
      "velocity": 98,
      "chip": "ym2612"
    },
    {
      "channel": 2,
      "note": 79,
      "start": 15.9991,
      "duration": 0.0136,
      "velocity": 98,
      "chip": "ym2612"
    },
    {
      "channel": 0,
      "note": 55,
      "start": 16.0014,
      "duration": 0.0084,
      "velocity": 113,
      "chip": "ym2612"
    },
    {
      "channel": 1,
      "note": 75,
      "start": 16.0018,
      "duration": 0.0388,
      "velocity": 98,
      "chip": "ym2612"
    },
    {
      "channel": 3,
      "note": 55,
      "start": 16.0025,
      "duration": 0.013,
      "velocity": 106,
      "chip": "ym2612"
    },
    {
      "channel": 4,
      "note": 51,
      "start": 16.003,
      "duration": 0.0125,
      "velocity": 106,
      "chip": "ym2612"
    },
    {
      "channel": 2,
      "note": 77,
      "start": 16.0146,
      "duration": 0.0046,
      "velocity": 98,
      "chip": "ym2612"
    },
    {
      "channel": 3,
      "note": 55,
      "start": 16.0178,
      "duration": 0.0116,
      "velocity": 106,
      "chip": "ym2612"
    },
    {
      "channel": 4,
      "note": 51,
      "start": 16.0182,
      "duration": 0.0114,
      "velocity": 106,
      "chip": "ym2612"
    },
    {
      "channel": 2,
      "note": 75,
      "start": 16.0216,
      "duration": 0.0964,
      "velocity": 98,
      "chip": "ym2612"
    },
    {
      "channel": 0,
      "note": 51,
      "start": 16.0229,
      "duration": 0.0176,
      "velocity": 113,
      "chip": "ym2612"
    },
    {
      "channel": 3,
      "note": 55,
      "start": 16.041,
      "duration": 0.0712,
      "velocity": 106,
      "chip": "ym2612"
    },
    {
      "channel": 4,
      "note": 51,
      "start": 16.0414,
      "duration": 0.071,
      "velocity": 106,
      "chip": "ym2612"
    },
    {
      "channel": 3,
      "note": 55,
      "start": 16.1148,
      "duration": 0.0247,
      "velocity": 106,
      "chip": "ym2612"
    },
    {
      "channel": 4,
      "note": 51,
      "start": 16.1152,
      "duration": 0.0245,
      "velocity": 106,
      "chip": "ym2612"
    },
    {
      "channel": 0,
      "note": 58,
      "start": 16.1218,
      "duration": 0.1847,
      "velocity": 113,
      "chip": "ym2612"
    },
    {
      "channel": 0,
      "note": 58,
      "start": 16.3067,
      "duration": 0.0131,
      "velocity": 113,
      "chip": "ym2612"
    },
    {
      "channel": 1,
      "note": 82,
      "start": 16.307,
      "duration": 0.0098,
      "velocity": 98,
      "chip": "ym2612"
    },
    {
      "channel": 3,
      "note": 62,
      "start": 16.3075,
      "duration": 0.0125,
      "velocity": 106,
      "chip": "ym2612"
    },
    {
      "channel": 4,
      "note": 58,
      "start": 16.308,
      "duration": 0.0121,
      "velocity": 106,
      "chip": "ym2612"
    },
    {
      "channel": 0,
      "note": 58,
      "start": 16.32,
      "duration": 0.0215,
      "velocity": 113,
      "chip": "ym2612"
    },
    {
      "channel": 3,
      "note": 62,
      "start": 16.3224,
      "duration": 0.0139,
      "velocity": 106,
      "chip": "ym2612"
    },
    {
      "channel": 4,
      "note": 58,
      "start": 16.3228,
      "duration": 0.0136,
      "velocity": 106,
      "chip": "ym2612"
    },
    {
      "channel": 2,
      "note": 82,
      "start": 16.3251,
      "duration": 0.0112,
      "velocity": 98,
      "chip": "ym2612"
    },
    {
      "channel": 1,
      "note": 82,
      "start": 16.3294,
      "duration": 0.0292,
      "velocity": 98,
      "chip": "ym2612"
    },
    {
      "channel": 0,
      "note": 58,
      "start": 16.3417,
      "duration": 0.0049,
      "velocity": 113,
      "chip": "ym2612"
    },
    {
      "channel": 2,
      "note": 82,
      "start": 16.3456,
      "duration": 0.0329,
      "velocity": 98,
      "chip": "ym2612"
    },
    {
      "channel": 0,
      "note": 58,
      "start": 16.3467,
      "duration": 0.0153,
      "velocity": 113,
      "chip": "ym2612"
    },
    {
      "channel": 3,
      "note": 62,
      "start": 16.3472,
      "duration": 0.0154,
      "velocity": 106,
      "chip": "ym2612"
    },
    {
      "channel": 4,
      "note": 58,
      "start": 16.3477,
      "duration": 0.0151,
      "velocity": 106,
      "chip": "ym2612"
    },
    {
      "channel": 0,
      "note": 58,
      "start": 16.3623,
      "duration": 0.0065,
      "velocity": 113,
      "chip": "ym2612"
    },
    {
      "channel": 1,
      "note": 82,
      "start": 16.3625,
      "duration": 0.0046,
      "velocity": 98,
      "chip": "ym2612"
    },
    {
      "channel": 3,
      "note": 62,
      "start": 16.3641,
      "duration": 0.0125,
      "velocity": 106,
      "chip": "ym2612"
    },
    {
      "channel": 4,
      "note": 58,
      "start": 16.3644,
      "duration": 0.0123,
      "velocity": 106,
      "chip": "ym2612"
    },
    {
      "channel": 0,
      "note": 53,
      "start": 16.369,
      "duration": 0.0067,
      "velocity": 113,
      "chip": "ym2612"
    },
    {
      "channel": 1,
      "note": 84,
      "start": 16.3693,
      "duration": 0.0103,
      "velocity": 98,
      "chip": "ym2612"
    },
    {
      "channel": 2,
      "note": 82,
      "start": 16.3799,
      "duration": 0.0058,
      "velocity": 98,
      "chip": "ym2612"
    },
    {
      "channel": 0,
      "note": 53,
      "start": 16.3821,
      "duration": 0.008,
      "velocity": 113,
      "chip": "ym2612"
    },
    {
      "channel": 1,
      "note": 82,
      "start": 16.3823,
      "duration": 0.0054,
      "velocity": 98,
      "chip": "ym2612"
    },
    {
      "channel": 2,
      "note": 84,
      "start": 16.388,
      "duration": 0.012,
      "velocity": 98,
      "chip": "ym2612"
    },
    {
      "channel": 0,
      "note": 57,
      "start": 16.3904,
      "duration": 0.0067,
      "velocity": 113,
      "chip": "ym2612"
    },
    {
      "channel": 1,
      "note": 81,
      "start": 16.3906,
      "duration": 0.0468,
      "velocity": 98,
      "chip": "ym2612"
    },
    {
      "channel": 3,
      "note": 57,
      "start": 16.3911,
      "duration": 0.0118,
      "velocity": 106,
      "chip": "ym2612"
    },
    {
      "channel": 4,
      "note": 53,
      "start": 16.3916,
      "duration": 0.0114,
      "velocity": 106,
      "chip": "ym2612"
    },
    {
      "channel": 2,
      "note": 82,
      "start": 16.4012,
      "duration": 0.0054,
      "velocity": 98,
      "chip": "ym2612"
    },
    {
      "channel": 3,
      "note": 57,
      "start": 16.4045,
      "duration": 0.0124,
      "velocity": 106,
      "chip": "ym2612"
    },
    {
      "channel": 4,
      "note": 53,
      "start": 16.4048,
      "duration": 0.0122,
      "velocity": 106,
      "chip": "ym2612"
    },
    {
      "channel": 2,
      "note": 81,
      "start": 16.4081,
      "duration": 0.0476,
      "velocity": 98,
      "chip": "ym2612"
    },
    {
      "channel": 0,
      "note": 60,
      "start": 16.4101,
      "duration": 0.0164,
      "velocity": 113,
      "chip": "ym2612"
    },
    {
      "channel": 3,
      "note": 57,
      "start": 16.4271,
      "duration": 0.0127,
      "velocity": 106,
      "chip": "ym2612"
    },
    {
      "channel": 4,
      "note": 53,
      "start": 16.4276,
      "duration": 0.0123,
      "velocity": 106,
      "chip": "ym2612"
    },
    {
      "channel": 1,
      "note": 77,
      "start": 16.4397,
      "duration": 0.0044,
      "velocity": 98,
      "chip": "ym2612"
    },
    {
      "channel": 3,
      "note": 57,
      "start": 16.4412,
      "duration": 0.0132,
      "velocity": 106,
      "chip": "ym2612"
    },
    {
      "channel": 4,
      "note": 53,
      "start": 16.4415,
      "duration": 0.013,
      "velocity": 106,
      "chip": "ym2612"
    },
    {
      "channel": 0,
      "note": 56,
      "start": 16.4469,
      "duration": 0.0199,
      "velocity": 113,
      "chip": "ym2612"
    },
    {
      "channel": 1,
      "note": 80,
      "start": 16.4471,
      "duration": 0.0085,
      "velocity": 98,
      "chip": "ym2612"
    },
    {
      "channel": 2,
      "note": 77,
      "start": 16.4577,
      "duration": 0.0039,
      "velocity": 98,
      "chip": "ym2612"
    },
    {
      "channel": 2,
      "note": 80,
      "start": 16.4637,
      "duration": 0.0113,
      "velocity": 98,
      "chip": "ym2612"
    },
    {
      "channel": 0,
      "note": 56,
      "start": 16.4671,
      "duration": 0.0129,
      "velocity": 113,
      "chip": "ym2612"
    },
    {
      "channel": 1,
      "note": 80,
      "start": 16.4673,
      "duration": 0.0362,
      "velocity": 98,
      "chip": "ym2612"
    },
    {
      "channel": 3,
      "note": 60,
      "start": 16.4678,
      "duration": 0.0123,
      "velocity": 106,
      "chip": "ym2612"
    },
    {
      "channel": 4,
      "note": 56,
      "start": 16.4683,
      "duration": 0.0119,
      "velocity": 106,
      "chip": "ym2612"
    },
    {
      "channel": 0,
      "note": 56,
      "start": 16.4801,
      "duration": 0.0184,
      "velocity": 113,
      "chip": "ym2612"
    },
    {
      "channel": 3,
      "note": 60,
      "start": 16.4816,
      "duration": 0.0126,
      "velocity": 106,
      "chip": "ym2612"
    },
    {
      "channel": 4,
      "note": 56,
      "start": 16.4819,
      "duration": 0.0124,
      "velocity": 106,
      "chip": "ym2612"
    },
    {
      "channel": 2,
      "note": 80,
      "start": 16.4851,
      "duration": 0.0374,
      "velocity": 98,
      "chip": "ym2612"
    },
    {
      "channel": 0,
      "note": 56,
      "start": 16.4987,
      "duration": 0.0058,
      "velocity": 113,
      "chip": "ym2612"
    },
    {
      "channel": 0,
      "note": 56,
      "start": 16.5047,
      "duration": 0.0136,
      "velocity": 113,
      "chip": "ym2612"
    },
    {
      "channel": 1,
      "note": 80,
      "start": 16.5051,
      "duration": 0.0106,
      "velocity": 98,
      "chip": "ym2612"
    },
    {
      "channel": 3,
      "note": 60,
      "start": 16.5057,
      "duration": 0.0132,
      "velocity": 106,
      "chip": "ym2612"
    },
    {
      "channel": 4,
      "note": 56,
      "start": 16.5061,
      "duration": 0.0129,
      "velocity": 106,
      "chip": "ym2612"
    },
    {
      "channel": 0,
      "note": 56,
      "start": 16.5185,
      "duration": 0.0064,
      "velocity": 113,
      "chip": "ym2612"
    },
    {
      "channel": 1,
      "note": 82,
      "start": 16.5188,
      "duration": 0.0049,
      "velocity": 98,
      "chip": "ym2612"
    },
    {
      "channel": 3,
      "note": 60,
      "start": 16.5203,
      "duration": 0.0128,
      "velocity": 106,
      "chip": "ym2612"
    },
    {
      "channel": 4,
      "note": 56,
      "start": 16.5207,
      "duration": 0.0124,
      "velocity": 106,
      "chip": "ym2612"
    },
    {
      "channel": 2,
      "note": 80,
      "start": 16.5239,
      "duration": 0.0101,
      "velocity": 98,
      "chip": "ym2612"
    },
    {
      "channel": 0,
      "note": 58,
      "start": 16.5251,
      "duration": 0.0062,
      "velocity": 113,
      "chip": "ym2612"
    },
    {
      "channel": 1,
      "note": 79,
      "start": 16.5254,
      "duration": 0.0105,
      "velocity": 98,
      "chip": "ym2612"
    },
    {
      "channel": 2,
      "note": 82,
      "start": 16.5361,
      "duration": 0.0049,
      "velocity": 98,
      "chip": "ym2612"
    },
    {
      "channel": 0,
      "note": 58,
      "start": 16.5373,
      "duration": 0.0076,
      "velocity": 113,
      "chip": "ym2612"
    },
    {
      "channel": 1,
      "note": 77,
      "start": 16.5377,
      "duration": 0.0044,
      "velocity": 98,
      "chip": "ym2612"
    },
    {
      "channel": 2,
      "note": 79,
      "start": 16.5423,
      "duration": 0.0127,
      "velocity": 98,
      "chip": "ym2612"
    },
    {
      "channel": 0,
      "note": 55,
      "start": 16.5452,
      "duration": 0.0071,
      "velocity": 113,
      "chip": "ym2612"
    },
    {
      "channel": 1,
      "note": 75,
      "start": 16.5455,
      "duration": 0.0371,
      "velocity": 98,
      "chip": "ym2612"
    },
    {
      "channel": 3,
      "note": 55,
      "start": 16.546,
      "duration": 0.012,
      "velocity": 106,
      "chip": "ym2612"
    },
    {
      "channel": 4,
      "note": 51,
      "start": 16.5464,
      "duration": 0.0118,
      "velocity": 106,
      "chip": "ym2612"
    },
    {
      "channel": 2,
      "note": 77,
      "start": 16.5563,
      "duration": 0.0044,
      "velocity": 98,
      "chip": "ym2612"
    },
    {
      "channel": 3,
      "note": 55,
      "start": 16.5595,
      "duration": 0.013,
      "velocity": 106,
      "chip": "ym2612"
    },
    {
      "channel": 4,
      "note": 51,
      "start": 16.5598,
      "duration": 0.0127,
      "velocity": 106,
      "chip": "ym2612"
    },
    {
      "channel": 2,
      "note": 75,
      "start": 16.5635,
      "duration": 0.0205,
      "velocity": 106,
      "chip": "ym2612"
    },
    {
      "channel": 0,
      "note": 51,
      "start": 16.5648,
      "duration": 0.0176,
      "velocity": 113,
      "chip": "ym2612"
    },
    {
      "channel": 2,
      "note": 63,
      "start": 16.5841,
      "duration": 0.0151,
      "velocity": 106,
      "chip": "ym2612"
    },
    {
      "channel": 3,
      "note": 68,
      "start": 16.5856,
      "duration": 0.0139,
      "velocity": 106,
      "chip": "ym2612"
    },
    {
      "channel": 4,
      "note": 51,
      "start": 16.5861,
      "duration": 0.0137,
      "velocity": 106,
      "chip": "ym2612"
    },
    {
      "channel": 2,
      "note": 64,
      "start": 16.5995,
      "duration": 0.0067,
      "velocity": 106,
      "chip": "ym2612"
    },
    {
      "channel": 3,
      "note": 69,
      "start": 16.5997,
      "duration": 0.0065,
      "velocity": 106,
      "chip": "ym2612"
    },
    {
      "channel": 4,
      "note": 51,
      "start": 16.6026,
      "duration": 0.0087,
      "velocity": 106,
      "chip": "ym2612"
    },
    {
      "channel": 0,
      "note": 58,
      "start": 16.6075,
      "duration": 0.012,
      "velocity": 113,
      "chip": "ym2612"
    },
    {
      "channel": 2,
      "note": 65,
      "start": 16.61,
      "duration": 0.0501,
      "velocity": 109,
      "chip": "ym2612"
    },
    {
      "channel": 3,
      "note": 70,
      "start": 16.6111,
      "duration": 0.0492,
      "velocity": 109,
      "chip": "ym2612"
    },
    {
      "channel": 4,
      "note": 58,
      "start": 16.6115,
      "duration": 0.016,
      "velocity": 106,
      "chip": "ym2612"
    },
    {
      "channel": 4,
      "note": 58,
      "start": 16.6291,
      "duration": 0.0162,
      "velocity": 106,
      "chip": "ym2612"
    },
    {
      "channel": 1,
      "note": 82,
      "start": 16.6368,
      "duration": 0.0045,
      "velocity": 99,
      "chip": "ym2612"
    },
    {
      "channel": 0,
      "note": 58,
      "start": 16.6505,
      "duration": 0.0092,
      "velocity": 113,
      "chip": "ym2612"
    },
    {
      "channel": 1,
      "note": 82,
      "start": 16.6507,
      "duration": 0.0058,
      "velocity": 99,
      "chip": "ym2612"
    },
    {
      "channel": 4,
      "note": 58,
      "start": 16.6515,
      "duration": 0.0159,
      "velocity": 106,
      "chip": "ym2612"
    },
    {
      "channel": 1,
      "note": 82,
      "start": 16.6599,
      "duration": 0.0049,
      "velocity": 99,
      "chip": "ym2612"
    },
    {
      "channel": 2,
      "note": 65,
      "start": 16.6601,
      "duration": 0.1009,
      "velocity": 109,
      "chip": "ym2612"
    },
    {
      "channel": 3,
      "note": 70,
      "start": 16.6603,
      "duration": 0.1008,
      "velocity": 109,
      "chip": "ym2612"
    },
    {
      "channel": 4,
      "note": 58,
      "start": 16.6691,
      "duration": 0.0201,
      "velocity": 106,
      "chip": "ym2612"
    },
    {
      "channel": 1,
      "note": 82,
      "start": 16.6812,
      "duration": 0.0047,
      "velocity": 99,
      "chip": "ym2612"
    },
    {
      "channel": 0,
      "note": 58,
      "start": 16.6886,
      "duration": 0.0245,
      "velocity": 113,
      "chip": "ym2612"
    },
    {
      "channel": 4,
      "note": 58,
      "start": 16.6894,
      "duration": 0.0137,
      "velocity": 106,
      "chip": "ym2612"
    },
    {
      "channel": 1,
      "note": 84,
      "start": 16.7028,
      "duration": 0.0052,
      "velocity": 99,
      "chip": "ym2612"
    },
    {
      "channel": 4,
      "note": 58,
      "start": 16.7059,
      "duration": 0.0079,
      "velocity": 106,
      "chip": "ym2612"
    },
    {
      "channel": 0,
      "note": 56,
      "start": 16.7134,
      "duration": 0.0083,
      "velocity": 113,
      "chip": "ym2612"
    },
    {
      "channel": 4,
      "note": 56,
      "start": 16.714,
      "duration": 0.0155,
      "velocity": 106,
      "chip": "ym2612"
    },
    {
      "channel": 1,
      "note": 84,
      "start": 16.7291,
      "duration": 0.0064,
      "velocity": 99,
      "chip": "ym2612"
    },
    {
      "channel": 4,
      "note": 56,
      "start": 16.731,
      "duration": 0.0157,
      "velocity": 106,
      "chip": "ym2612"
    },
    {
      "channel": 1,
      "note": 84,
      "start": 16.7502,
      "duration": 0.0017,
      "velocity": 99,
      "chip": "ym2612"
    },
    {
      "channel": 0,
      "note": 56,
      "start": 16.7518,
      "duration": 0.0088,
      "velocity": 113,
      "chip": "ym2612"
    },
    {
      "channel": 1,
      "note": 86,
      "start": 16.7521,
      "duration": 0.0087,
      "velocity": 99,
      "chip": "ym2612"
    },
    {
      "channel": 4,
      "note": 56,
      "start": 16.7528,
      "duration": 0.0141,
      "velocity": 106,
      "chip": "ym2612"
    },
    {
      "channel": 1,
      "note": 87,
      "start": 16.7609,
      "duration": 0.0038,
      "velocity": 99,
      "chip": "ym2612"
    },
    {
      "channel": 4,
      "note": 56,
      "start": 16.7683,
      "duration": 0.0988,
      "velocity": 106,
      "chip": "ym2612"
    },
    {
      "channel": 1,
      "note": 86,
      "start": 16.7806,
      "duration": 0.0665,
      "velocity": 99,
      "chip": "ym2612"
    },
    {
      "channel": 0,
      "note": 56,
      "start": 16.8642,
      "duration": 0.0283,
      "velocity": 113,
      "chip": "ym2612"
    },
    {
      "channel": 1,
      "note": 84,
      "start": 16.8644,
      "duration": 0.0079,
      "velocity": 99,
      "chip": "ym2612"
    },
    {
      "channel": 2,
      "note": 63,
      "start": 16.8657,
      "duration": 0.0159,
      "velocity": 106,
      "chip": "ym2612"
    },
    {
      "channel": 3,
      "note": 72,
      "start": 16.8669,
      "duration": 0.015,
      "velocity": 106,
      "chip": "ym2612"
    },
    {
      "channel": 4,
      "note": 56,
      "start": 16.8673,
      "duration": 0.0149,
      "velocity": 106,
      "chip": "ym2612"
    },
    {
      "channel": 2,
      "note": 63,
      "start": 16.8818,
      "duration": 0.0056,
      "velocity": 106,
      "chip": "ym2612"
    },
    {
      "channel": 3,
      "note": 71,
      "start": 16.8821,
      "duration": 0.0053,
      "velocity": 106,
      "chip": "ym2612"
    },
    {
      "channel": 4,
      "note": 56,
      "start": 16.885,
      "duration": 0.0117,
      "velocity": 106,
      "chip": "ym2612"
    },
    {
      "channel": 0,
      "note": 51,
      "start": 16.8928,
      "duration": 0.0121,
      "velocity": 113,
      "chip": "ym2612"
    },
    {
      "channel": 1,
      "note": 82,
      "start": 16.893,
      "duration": 0.0091,
      "velocity": 99,
      "chip": "ym2612"
    },
    {
      "channel": 2,
      "note": 63,
      "start": 16.8942,
      "duration": 0.0508,
      "velocity": 109,
      "chip": "ym2612"
    },
    {
      "channel": 3,
      "note": 70,
      "start": 16.8955,
      "duration": 0.0497,
      "velocity": 109,
      "chip": "ym2612"
    },
    {
      "channel": 4,
      "note": 67,
      "start": 16.8968,
      "duration": 0.016,
      "velocity": 106,
      "chip": "ym2612"
    },
    {
      "channel": 4,
      "note": 67,
      "start": 16.9146,
      "duration": 0.0164,
      "velocity": 106,
      "chip": "ym2612"
    },
    {
      "channel": 1,
      "note": 79,
      "start": 16.9207,
      "duration": 0.0053,
      "velocity": 99,
      "chip": "ym2612"
    },
    {
      "channel": 0,
      "note": 51,
      "start": 16.936,
      "duration": 0.0087,
      "velocity": 113,
      "chip": "ym2612"
    },
    {
      "channel": 1,
      "note": 79,
      "start": 16.9363,
      "duration": 0.0055,
      "velocity": 99,
      "chip": "ym2612"
    },
    {
      "channel": 4,
      "note": 67,
      "start": 16.937,
      "duration": 0.0167,
      "velocity": 106,
      "chip": "ym2612"
    },
    {
      "channel": 1,
      "note": 79,
      "start": 16.9449,
      "duration": 0.0058,
      "velocity": 99,
      "chip": "ym2612"
    },
    {
      "channel": 2,
      "note": 63,
      "start": 16.945,
      "duration": 0.1113,
      "velocity": 109,
      "chip": "ym2612"
    },
    {
      "channel": 3,
      "note": 70,
      "start": 16.9452,
      "duration": 0.1114,
      "velocity": 109,
      "chip": "ym2612"
    },
    {
      "channel": 4,
      "note": 67,
      "start": 16.9554,
      "duration": 0.0165,
      "velocity": 106,
      "chip": "ym2612"
    },
    {
      "channel": 1,
      "note": 79,
      "start": 16.9635,
      "duration": 0.0048,
      "velocity": 99,
      "chip": "ym2612"
    },
    {
      "channel": 0,
      "note": 51,
      "start": 16.9714,
      "duration": 0.0298,
      "velocity": 113,
      "chip": "ym2612"
    },
    {
      "channel": 4,
      "note": 67,
      "start": 16.9721,
      "duration": 0.0163,
      "velocity": 106,
      "chip": "ym2612"
    },
    {
      "channel": 1,
      "note": 80,
      "start": 16.9882,
      "duration": 0.0053,
      "velocity": 99,
      "chip": "ym2612"
    },
    {
      "channel": 4,
      "note": 67,
      "start": 16.9899,
      "duration": 0.0141,
      "velocity": 106,
      "chip": "ym2612"
    },
    {
      "channel": 0,
      "note": 51,
      "start": 17.0014,
      "duration": 0.0105,
      "velocity": 113,
      "chip": "ym2612"
    },
    {
      "channel": 4,
      "note": 67,
      "start": 17.0041,
      "duration": 0.0144,
      "velocity": 106,
      "chip": "ym2612"
    },
    {
      "channel": 1,
      "note": 80,
      "start": 17.0182,
      "duration": 0.0057,
      "velocity": 99,
      "chip": "ym2612"
    },
    {
      "channel": 4,
      "note": 67,
      "start": 17.0211,
      "duration": 0.0148,
      "velocity": 106,
      "chip": "ym2612"
    },
    {
      "channel": 1,
      "note": 80,
      "start": 17.0395,
      "duration": 0.0028,
      "velocity": 99,
      "chip": "ym2612"
    },
    {
      "channel": 0,
      "note": 51,
      "start": 17.0422,
      "duration": 0.0137,
      "velocity": 113,
      "chip": "ym2612"
    },
    {
      "channel": 1,
      "note": 82,
      "start": 17.0424,
      "duration": 0.0137,
      "velocity": 99,
      "chip": "ym2612"
    },
    {
      "channel": 4,
      "note": 67,
      "start": 17.0431,
      "duration": 0.0193,
      "velocity": 106,
      "chip": "ym2612"
    },
    {
      "channel": 1,
      "note": 79,
      "start": 17.0563,
      "duration": 0.0049,
      "velocity": 99,
      "chip": "ym2612"
    },
    {
      "channel": 4,
      "note": 67,
      "start": 17.0649,
      "duration": 0.0169,
      "velocity": 106,
      "chip": "ym2612"
    },
    {
      "channel": 1,
      "note": 77,
      "start": 17.071,
      "duration": 0.0073,
      "velocity": 99,
      "chip": "ym2612"
    },
    {
      "channel": 2,
      "note": 65,
      "start": 17.0722,
      "duration": 0.0073,
      "velocity": 106,
      "chip": "ym2612"
    },
    {
      "channel": 3,
      "note": 70,
      "start": 17.0734,
      "duration": 0.0062,
      "velocity": 106,
      "chip": "ym2612"
    },
    {
      "channel": 0,
      "note": 51,
      "start": 17.0808,
      "duration": 0.0294,
      "velocity": 113,
      "chip": "ym2612"
    },
    {
      "channel": 1,
      "note": 75,
      "start": 17.0811,
      "duration": 0.0059,
      "velocity": 99,
      "chip": "ym2612"
    },
    {
      "channel": 2,
      "note": 68,
      "start": 17.0813,
      "duration": 0.0134,
      "velocity": 106,
      "chip": "ym2612"
    },
    {
      "channel": 3,
      "note": 73,
      "start": 17.0815,
      "duration": 0.0133,
      "velocity": 106,
      "chip": "ym2612"
    },
    {
      "channel": 4,
      "note": 67,
      "start": 17.0819,
      "duration": 0.0158,
      "velocity": 106,
      "chip": "ym2612"
    },
    {
      "channel": 2,
      "note": 65,
      "start": 17.0974,
      "duration": 0.0056,
      "velocity": 106,
      "chip": "ym2612"
    },
    {
      "channel": 3,
      "note": 70,
      "start": 17.0976,
      "duration": 0.0055,
      "velocity": 106,
      "chip": "ym2612"
    },
    {
      "channel": 4,
      "note": 67,
      "start": 17.0994,
      "duration": 0.0149,
      "velocity": 106,
      "chip": "ym2612"
    },
    {
      "channel": 0,
      "note": 58,
      "start": 17.1105,
      "duration": 0.0106,
      "velocity": 113,
      "chip": "ym2612"
    },
    {
      "channel": 2,
      "note": 63,
      "start": 17.1119,
      "duration": 0.0163,
      "velocity": 106,
      "chip": "ym2612"
    },
    {
      "channel": 3,
      "note": 68,
      "start": 17.113,
      "duration": 0.0155,
      "velocity": 106,
      "chip": "ym2612"
    },
    {
      "channel": 4,
      "note": 58,
      "start": 17.1145,
      "duration": 0.0143,
      "velocity": 106,
      "chip": "ym2612"
    },
    {
      "channel": 2,
      "note": 64,
      "start": 17.1285,
      "duration": 0.0077,
      "velocity": 106,
      "chip": "ym2612"
    },
    {
      "channel": 3,
      "note": 69,
      "start": 17.1287,
      "duration": 0.0076,
      "velocity": 106,
      "chip": "ym2612"
    },
    {
      "channel": 4,
      "note": 58,
      "start": 17.1317,
      "duration": 0.0181,
      "velocity": 106,
      "chip": "ym2612"
    },
    {
      "channel": 1,
      "note": 82,
      "start": 17.1383,
      "duration": 0.0073,
      "velocity": 99,
      "chip": "ym2612"
    },
    {
      "channel": 2,
      "note": 65,
      "start": 17.1396,
      "duration": 0.0525,
      "velocity": 106,
      "chip": "ym2612"
    },
    {
      "channel": 3,
      "note": 70,
      "start": 17.1409,
      "duration": 0.0524,
      "velocity": 106,
      "chip": "ym2612"
    },
    {
      "channel": 0,
      "note": 58,
      "start": 17.1579,
      "duration": 0.007,
      "velocity": 113,
      "chip": "ym2612"
    },
    {
      "channel": 1,
      "note": 82,
      "start": 17.1583,
      "duration": 0.0054,
      "velocity": 99,
      "chip": "ym2612"
    },
    {
      "channel": 4,
      "note": 58,
      "start": 17.159,
      "duration": 0.0137,
      "velocity": 106,
      "chip": "ym2612"
    },
    {
      "channel": 1,
      "note": 82,
      "start": 17.1652,
      "duration": 0.0051,
      "velocity": 99,
      "chip": "ym2612"
    },
    {
      "channel": 4,
      "note": 58,
      "start": 17.1756,
      "duration": 0.018,
      "velocity": 106,
      "chip": "ym2612"
    },
    {
      "channel": 1,
      "note": 82,
      "start": 17.1838,
      "duration": 0.0045,
      "velocity": 99,
      "chip": "ym2612"
    },
    {
      "channel": 0,
      "note": 58,
      "start": 17.1909,
      "duration": 0.0251,
      "velocity": 113,
      "chip": "ym2612"
    },
    {
      "channel": 2,
      "note": 63,
      "start": 17.1922,
      "duration": 0.0165,
      "velocity": 106,
      "chip": "ym2612"
    },
    {
      "channel": 3,
      "note": 68,
      "start": 17.1934,
      "duration": 0.0156,
      "velocity": 106,
      "chip": "ym2612"
    },
    {
      "channel": 4,
      "note": 58,
      "start": 17.1938,
      "duration": 0.0154,
      "velocity": 106,
      "chip": "ym2612"
    },
    {
      "channel": 1,
      "note": 84,
      "start": 17.2087,
      "duration": 0.0058,
      "velocity": 99,
      "chip": "ym2612"
    },
    {
      "channel": 2,
      "note": 64,
      "start": 17.2089,
      "duration": 0.0056,
      "velocity": 106,
      "chip": "ym2612"
    },
    {
      "channel": 3,
      "note": 69,
      "start": 17.2092,
      "duration": 0.0055,
      "velocity": 106,
      "chip": "ym2612"
    },
    {
      "channel": 4,
      "note": 58,
      "start": 17.2108,
      "duration": 0.0083,
      "velocity": 106,
      "chip": "ym2612"
    },
    {
      "channel": 0,
      "note": 56,
      "start": 17.2163,
      "duration": 0.0109,
      "velocity": 113,
      "chip": "ym2612"
    },
    {
      "channel": 2,
      "note": 65,
      "start": 17.2177,
      "duration": 0.05,
      "velocity": 109,
      "chip": "ym2612"
    },
    {
      "channel": 3,
      "note": 70,
      "start": 17.219,
      "duration": 0.0488,
      "velocity": 109,
      "chip": "ym2612"
    },
    {
      "channel": 4,
      "note": 56,
      "start": 17.2193,
      "duration": 0.017,
      "velocity": 106,
      "chip": "ym2612"
    },
    {
      "channel": 1,
      "note": 84,
      "start": 17.236,
      "duration": 0.0064,
      "velocity": 99,
      "chip": "ym2612"
    },
    {
      "channel": 4,
      "note": 56,
      "start": 17.2378,
      "duration": 0.0157,
      "velocity": 106,
      "chip": "ym2612"
    },
    {
      "channel": 1,
      "note": 84,
      "start": 17.2572,
      "duration": 0.0018,
      "velocity": 99,
      "chip": "ym2612"
    },
    {
      "channel": 0,
      "note": 56,
      "start": 17.2589,
      "duration": 0.0084,
      "velocity": 113,
      "chip": "ym2612"
    },
    {
      "channel": 1,
      "note": 86,
      "start": 17.2593,
      "duration": 0.0081,
      "velocity": 99,
      "chip": "ym2612"
    },
    {
      "channel": 4,
      "note": 56,
      "start": 17.26,
      "duration": 0.0136,
      "velocity": 106,
      "chip": "ym2612"
    },
    {
      "channel": 1,
      "note": 87,
      "start": 17.2676,
      "duration": 0.0041,
      "velocity": 99,
      "chip": "ym2612"
    },
    {
      "channel": 4,
      "note": 56,
      "start": 17.2757,
      "duration": 0.1129,
      "velocity": 106,
      "chip": "ym2612"
    },
    {
      "channel": 1,
      "note": 86,
      "start": 17.2873,
      "duration": 0.0665,
      "velocity": 99,
      "chip": "ym2612"
    },
    {
      "channel": 2,
      "note": 65,
      "start": 17.2886,
      "duration": 0.0652,
      "velocity": 106,
      "chip": "ym2612"
    },
    {
      "channel": 3,
      "note": 70,
      "start": 17.29,
      "duration": 0.064,
      "velocity": 106,
      "chip": "ym2612"
    },
    {
      "channel": 0,
      "note": 56,
      "start": 17.3876,
      "duration": 0.023,
      "velocity": 113,
      "chip": "ym2612"
    },
    {
      "channel": 1,
      "note": 84,
      "start": 17.3878,
      "duration": 0.0064,
      "velocity": 99,
      "chip": "ym2612"
    },
    {
      "channel": 2,
      "note": 68,
      "start": 17.3882,
      "duration": 0.0129,
      "velocity": 106,
      "chip": "ym2612"
    },
    {
      "channel": 3,
      "note": 73,
      "start": 17.3884,
      "duration": 0.0129,
      "velocity": 106,
      "chip": "ym2612"
    },
    {
      "channel": 4,
      "note": 56,
      "start": 17.3888,
      "duration": 0.0137,
      "velocity": 106,
      "chip": "ym2612"
    },
    {
      "channel": 2,
      "note": 65,
      "start": 17.4021,
      "duration": 0.0073,
      "velocity": 106,
      "chip": "ym2612"
    },
    {
      "channel": 3,
      "note": 70,
      "start": 17.4023,
      "duration": 0.0071,
      "velocity": 106,
      "chip": "ym2612"
    },
    {
      "channel": 4,
      "note": 56,
      "start": 17.4056,
      "duration": 0.009,
      "velocity": 106,
      "chip": "ym2612"
    },
    {
      "channel": 0,
      "note": 51,
      "start": 17.4109,
      "duration": 0.0108,
      "velocity": 113,
      "chip": "ym2612"
    },
    {
      "channel": 1,
      "note": 82,
      "start": 17.4111,
      "duration": 0.0079,
      "velocity": 99,
      "chip": "ym2612"
    },
    {
      "channel": 2,
      "note": 63,
      "start": 17.4123,
      "duration": 0.0169,
      "velocity": 106,
      "chip": "ym2612"
    },
    {
      "channel": 3,
      "note": 68,
      "start": 17.4134,
      "duration": 0.0162,
      "velocity": 106,
      "chip": "ym2612"
    },
    {
      "channel": 4,
      "note": 67,
      "start": 17.4148,
      "duration": 0.015,
      "velocity": 106,
      "chip": "ym2612"
    },
    {
      "channel": 2,
      "note": 64,
      "start": 17.4295,
      "duration": 0.0061,
      "velocity": 106,
      "chip": "ym2612"
    },
    {
      "channel": 3,
      "note": 69,
      "start": 17.4297,
      "duration": 0.0059,
      "velocity": 106,
      "chip": "ym2612"
    },
    {
      "channel": 4,
      "note": 67,
      "start": 17.4314,
      "duration": 0.0187,
      "velocity": 106,
      "chip": "ym2612"
    },
    {
      "channel": 1,
      "note": 87,
      "start": 17.4388,
      "duration": 0.007,
      "velocity": 99,
      "chip": "ym2612"
    },
    {
      "channel": 2,
      "note": 65,
      "start": 17.4402,
      "duration": 0.0553,
      "velocity": 109,
      "chip": "ym2612"
    },
    {
      "channel": 3,
      "note": 70,
      "start": 17.4415,
      "duration": 0.0542,
      "velocity": 109,
      "chip": "ym2612"
    },
    {
      "channel": 0,
      "note": 51,
      "start": 17.4565,
      "duration": 0.0083,
      "velocity": 113,
      "chip": "ym2612"
    },
    {
      "channel": 1,
      "note": 87,
      "start": 17.4568,
      "duration": 0.0052,
      "velocity": 99,
      "chip": "ym2612"
    },
    {
      "channel": 4,
      "note": 67,
      "start": 17.4575,
      "duration": 0.0164,
      "velocity": 106,
      "chip": "ym2612"
    },
    {
      "channel": 1,
      "note": 87,
      "start": 17.465,
      "duration": 0.0058,
      "velocity": 99,
      "chip": "ym2612"
    },
    {
      "channel": 4,
      "note": 67,
      "start": 17.4757,
      "duration": 0.0202,
      "velocity": 106,
      "chip": "ym2612"
    },
    {
      "channel": 1,
      "note": 87,
      "start": 17.4877,
      "duration": 0.0047,
      "velocity": 99,
      "chip": "ym2612"
    },
    {
      "channel": 0,
      "note": 51,
      "start": 17.4951,
      "duration": 0.026,
      "velocity": 113,
      "chip": "ym2612"
    },
    {
      "channel": 2,
      "note": 65,
      "start": 17.4954,
      "duration": 0.0773,
      "velocity": 109,
      "chip": "ym2612"
    },
    {
      "channel": 3,
      "note": 70,
      "start": 17.4956,
      "duration": 0.0772,
      "velocity": 109,
      "chip": "ym2612"
    },
    {
      "channel": 4,
      "note": 67,
      "start": 17.496,
      "duration": 0.0147,
      "velocity": 106,
      "chip": "ym2612"
    },
    {
      "channel": 1,
      "note": 87,
      "start": 17.5103,
      "duration": 0.0056,
      "velocity": 99,
      "chip": "ym2612"
    },
    {
      "channel": 4,
      "note": 67,
      "start": 17.5138,
      "duration": 0.01,
      "velocity": 106,
      "chip": "ym2612"
    },
    {
      "channel": 0,
      "note": 51,
      "start": 17.5214,
      "duration": 0.0103,
      "velocity": 113,
      "chip": "ym2612"
    },
    {
      "channel": 4,
      "note": 67,
      "start": 17.524,
      "duration": 0.0152,
      "velocity": 106,
      "chip": "ym2612"
    },
    {
      "channel": 1,
      "note": 87,
      "start": 17.539,
      "duration": 0.0058,
      "velocity": 99,
      "chip": "ym2612"
    },
    {
      "channel": 4,
      "note": 67,
      "start": 17.5407,
      "duration": 0.0157,
      "velocity": 106,
      "chip": "ym2612"
    },
    {
      "channel": 1,
      "note": 87,
      "start": 17.5598,
      "duration": 0.0018,
      "velocity": 99,
      "chip": "ym2612"
    },
    {
      "channel": 0,
      "note": 51,
      "start": 17.5616,
      "duration": 0.0106,
      "velocity": 113,
      "chip": "ym2612"
    },
    {
      "channel": 1,
      "note": 89,
      "start": 17.5619,
      "duration": 0.0105,
      "velocity": 99,
      "chip": "ym2612"
    },
    {
      "channel": 4,
      "note": 67,
      "start": 17.5625,
      "duration": 0.0159,
      "velocity": 106,
      "chip": "ym2612"
    },
    {
      "channel": 1,
      "note": 86,
      "start": 17.5727,
      "duration": 0.004,
      "velocity": 99,
      "chip": "ym2612"
    },
    {
      "channel": 4,
      "note": 67,
      "start": 17.5798,
      "duration": 0.0168,
      "velocity": 106,
      "chip": "ym2612"
    },
    {
      "channel": 1,
      "note": 84,
      "start": 17.5869,
      "duration": 0.0071,
      "velocity": 99,
      "chip": "ym2612"
    },
    {
      "channel": 2,
      "note": 65,
      "start": 17.5882,
      "duration": 0.0077,
      "velocity": 106,
      "chip": "ym2612"
    },
    {
      "channel": 3,
      "note": 70,
      "start": 17.5893,
      "duration": 0.0069,
      "velocity": 106,
      "chip": "ym2612"
    },
    {
      "channel": 0,
      "note": 51,
      "start": 17.5956,
      "duration": 0.025,
      "velocity": 113,
      "chip": "ym2612"
    },
    {
      "channel": 1,
      "note": 82,
      "start": 17.5958,
      "duration": 0.0222,
      "velocity": 99,
      "chip": "ym2612"
    },
    {
      "channel": 2,
      "note": 77,
      "start": 17.5961,
      "duration": 0.022,
      "velocity": 106,
      "chip": "ym2612"
    },
    {
      "channel": 3,
      "note": 82,
      "start": 17.5963,
      "duration": 0.0218,
      "velocity": 106,
      "chip": "ym2612"
    },
    {
      "channel": 4,
      "note": 67,
      "start": 17.5967,
      "duration": 0.0155,
      "velocity": 106,
      "chip": "ym2612"
    },
    {
      "channel": 4,
      "note": 67,
      "start": 17.6143,
      "duration": 0.0113,
      "velocity": 106,
      "chip": "ym2612"
    },
    {
      "channel": 0,
      "note": 58,
      "start": 17.6208,
      "duration": 0.1863,
      "velocity": 113,
      "chip": "ym2612"
    },
    {
      "channel": 0,
      "note": 58,
      "start": 17.8073,
      "duration": 0.0149,
      "velocity": 113,
      "chip": "ym2612"
    },
    {
      "channel": 1,
      "note": 86,
      "start": 17.8076,
      "duration": 0.011,
      "velocity": 98,
      "chip": "ym2612"
    },
    {
      "channel": 3,
      "note": 62,
      "start": 17.808,
      "duration": 0.0145,
      "velocity": 106,
      "chip": "ym2612"
    },
    {
      "channel": 4,
      "note": 58,
      "start": 17.8083,
      "duration": 0.0144,
      "velocity": 106,
      "chip": "ym2612"
    },
    {
      "channel": 0,
      "note": 58,
      "start": 17.8224,
      "duration": 0.0232,
      "velocity": 113,
      "chip": "ym2612"
    },
    {
      "channel": 3,
      "note": 62,
      "start": 17.824,
      "duration": 0.0171,
      "velocity": 106,
      "chip": "ym2612"
    },
    {
      "channel": 4,
      "note": 58,
      "start": 17.8245,
      "duration": 0.0167,
      "velocity": 106,
      "chip": "ym2612"
    },
    {
      "channel": 2,
      "note": 86,
      "start": 17.828,
      "duration": 0.013,
      "velocity": 98,
      "chip": "ym2612"
    },
    {
      "channel": 1,
      "note": 86,
      "start": 17.8324,
      "duration": 0.0349,
      "velocity": 98,
      "chip": "ym2612"
    },
    {
      "channel": 0,
      "note": 58,
      "start": 17.8457,
      "duration": 0.0066,
      "velocity": 113,
      "chip": "ym2612"
    },
    {
      "channel": 2,
      "note": 86,
      "start": 17.851,
      "duration": 0.04,
      "velocity": 98,
      "chip": "ym2612"
    },
    {
      "channel": 0,
      "note": 58,
      "start": 17.8526,
      "duration": 0.0174,
      "velocity": 113,
      "chip": "ym2612"
    },
    {
      "channel": 3,
      "note": 62,
      "start": 17.8532,
      "duration": 0.0175,
      "velocity": 106,
      "chip": "ym2612"
    },
    {
      "channel": 4,
      "note": 58,
      "start": 17.8536,
      "duration": 0.0173,
      "velocity": 106,
      "chip": "ym2612"
    },
    {
      "channel": 0,
      "note": 58,
      "start": 17.8702,
      "duration": 0.0093,
      "velocity": 113,
      "chip": "ym2612"
    },
    {
      "channel": 1,
      "note": 86,
      "start": 17.8705,
      "duration": 0.0064,
      "velocity": 98,
      "chip": "ym2612"
    },
    {
      "channel": 3,
      "note": 62,
      "start": 17.8726,
      "duration": 0.0173,
      "velocity": 106,
      "chip": "ym2612"
    },
    {
      "channel": 4,
      "note": 58,
      "start": 17.8731,
      "duration": 0.0169,
      "velocity": 106,
      "chip": "ym2612"
    },
    {
      "channel": 0,
      "note": 53,
      "start": 17.8798,
      "duration": 0.0076,
      "velocity": 113,
      "chip": "ym2612"
    },
    {
      "channel": 1,
      "note": 87,
      "start": 17.8801,
      "duration": 0.0129,
      "velocity": 98,
      "chip": "ym2612"
    },
    {
      "channel": 2,
      "note": 86,
      "start": 17.8933,
      "duration": 0.0053,
      "velocity": 98,
      "chip": "ym2612"
    },
    {
      "channel": 0,
      "note": 53,
      "start": 17.8945,
      "duration": 0.0093,
      "velocity": 113,
      "chip": "ym2612"
    },
    {
      "channel": 1,
      "note": 89,
      "start": 17.8948,
      "duration": 0.0064,
      "velocity": 98,
      "chip": "ym2612"
    },
    {
      "channel": 2,
      "note": 87,
      "start": 17.9015,
      "duration": 0.0149,
      "velocity": 98,
      "chip": "ym2612"
    },
    {
      "channel": 0,
      "note": 57,
      "start": 17.904,
      "duration": 0.0084,
      "velocity": 113,
      "chip": "ym2612"
    },
    {
      "channel": 1,
      "note": 89,
      "start": 17.9043,
      "duration": 0.0253,
      "velocity": 98,
      "chip": "ym2612"
    },
    {
      "channel": 3,
      "note": 57,
      "start": 17.9048,
      "duration": 0.0156,
      "velocity": 106,
      "chip": "ym2612"
    },
    {
      "channel": 4,
      "note": 53,
      "start": 17.9052,
      "duration": 0.0154,
      "velocity": 106,
      "chip": "ym2612"
    },
    {
      "channel": 2,
      "note": 89,
      "start": 17.9177,
      "duration": 0.0078,
      "velocity": 98,
      "chip": "ym2612"
    },
    {
      "channel": 3,
      "note": 57,
      "start": 17.9223,
      "duration": 0.0162,
      "velocity": 106,
      "chip": "ym2612"
    },
    {
      "channel": 4,
      "note": 53,
      "start": 17.9228,
      "duration": 0.0159,
      "velocity": 106,
      "chip": "ym2612"
    },
    {
      "channel": 2,
      "note": 89,
      "start": 17.9265,
      "duration": 0.023,
      "velocity": 98,
      "chip": "ym2612"
    },
    {
      "channel": 0,
      "note": 60,
      "start": 17.9295,
      "duration": 0.0212,
      "velocity": 113,
      "chip": "ym2612"
    },
    {
      "channel": 1,
      "note": 89,
      "start": 17.9438,
      "duration": 0.0035,
      "velocity": 98,
      "chip": "ym2612"
    },
    {
      "channel": 1,
      "note": 87,
      "start": 17.9511,
      "duration": 0.0046,
      "velocity": 98,
      "chip": "ym2612"
    },
    {
      "channel": 3,
      "note": 57,
      "start": 17.9515,
      "duration": 0.0159,
      "velocity": 106,
      "chip": "ym2612"
    },
    {
      "channel": 4,
      "note": 53,
      "start": 17.9519,
      "duration": 0.0158,
      "velocity": 106,
      "chip": "ym2612"
    },
    {
      "channel": 2,
      "note": 89,
      "start": 17.9642,
      "duration": 0.0073,
      "velocity": 98,
      "chip": "ym2612"
    },
    {
      "channel": 1,
      "note": 86,
      "start": 17.9672,
      "duration": 0.0074,
      "velocity": 98,
      "chip": "ym2612"
    },
    {
      "channel": 3,
      "note": 57,
      "start": 17.9719,
      "duration": 0.0164,
      "velocity": 106,
      "chip": "ym2612"
    },
    {
      "channel": 4,
      "note": 53,
      "start": 17.9723,
      "duration": 0.0161,
      "velocity": 106,
      "chip": "ym2612"
    },
    {
      "channel": 2,
      "note": 87,
      "start": 17.976,
      "duration": 0.0045,
      "velocity": 98,
      "chip": "ym2612"
    },
    {
      "channel": 0,
      "note": 56,
      "start": 17.9775,
      "duration": 0.0239,
      "velocity": 113,
      "chip": "ym2612"
    },
    {
      "channel": 1,
      "note": 87,
      "start": 17.9778,
      "duration": 0.0115,
      "velocity": 98,
      "chip": "ym2612"
    },
    {
      "channel": 2,
      "note": 86,
      "start": 17.9916,
      "duration": 0.0037,
      "velocity": 98,
      "chip": "ym2612"
    },
    {
      "channel": 2,
      "note": 87,
      "start": 17.9976,
      "duration": 0.0138,
      "velocity": 98,
      "chip": "ym2612"
    },
    {
      "channel": 0,
      "note": 56,
      "start": 18.0017,
      "duration": 0.0152,
      "velocity": 113,
      "chip": "ym2612"
    },
    {
      "channel": 1,
      "note": 87,
      "start": 18.002,
      "duration": 0.0215,
      "velocity": 98,
      "chip": "ym2612"
    },
    {
      "channel": 3,
      "note": 60,
      "start": 18.0026,
      "duration": 0.0144,
      "velocity": 106,
      "chip": "ym2612"
    },
    {
      "channel": 4,
      "note": 56,
      "start": 18.0029,
      "duration": 0.0142,
      "velocity": 106,
      "chip": "ym2612"
    },
    {
      "channel": 0,
      "note": 56,
      "start": 18.017,
      "duration": 0.0223,
      "velocity": 113,
      "chip": "ym2612"
    },
    {
      "channel": 3,
      "note": 60,
      "start": 18.0185,
      "duration": 0.016,
      "velocity": 106,
      "chip": "ym2612"
    },
    {
      "channel": 4,
      "note": 56,
      "start": 18.0189,
      "duration": 0.0157,
      "velocity": 106,
      "chip": "ym2612"
    },
    {
      "channel": 2,
      "note": 87,
      "start": 18.0224,
      "duration": 0.0216,
      "velocity": 98,
      "chip": "ym2612"
    },
    {
      "channel": 0,
      "note": 56,
      "start": 18.0395,
      "duration": 0.0068,
      "velocity": 113,
      "chip": "ym2612"
    },
    {
      "channel": 0,
      "note": 56,
      "start": 18.0465,
      "duration": 0.0137,
      "velocity": 113,
      "chip": "ym2612"
    },
    {
      "channel": 1,
      "note": 87,
      "start": 18.0468,
      "duration": 0.0123,
      "velocity": 98,
      "chip": "ym2612"
    },
    {
      "channel": 3,
      "note": 60,
      "start": 18.0473,
      "duration": 0.0135,
      "velocity": 106,
      "chip": "ym2612"
    },
    {
      "channel": 4,
      "note": 56,
      "start": 18.0478,
      "duration": 0.0133,
      "velocity": 106,
      "chip": "ym2612"
    },
    {
      "channel": 0,
      "note": 56,
      "start": 18.0604,
      "duration": 0.0094,
      "velocity": 113,
      "chip": "ym2612"
    },
    {
      "channel": 1,
      "note": 89,
      "start": 18.0607,
      "duration": 0.0071,
      "velocity": 98,
      "chip": "ym2612"
    },
    {
      "channel": 3,
      "note": 60,
      "start": 18.0639,
      "duration": 0.0189,
      "velocity": 106,
      "chip": "ym2612"
    },
    {
      "channel": 4,
      "note": 56,
      "start": 18.0643,
      "duration": 0.0185,
      "velocity": 106,
      "chip": "ym2612"
    },
    {
      "channel": 2,
      "note": 87,
      "start": 18.068,
      "duration": 0.0157,
      "velocity": 98,
      "chip": "ym2612"
    },
    {
      "channel": 0,
      "note": 58,
      "start": 18.07,
      "duration": 0.01,
      "velocity": 113,
      "chip": "ym2612"
    },
    {
      "channel": 1,
      "note": 87,
      "start": 18.0704,
      "duration": 0.0147,
      "velocity": 98,
      "chip": "ym2612"
    },
    {
      "channel": 2,
      "note": 89,
      "start": 18.0853,
      "duration": 0.0079,
      "velocity": 98,
      "chip": "ym2612"
    },
    {
      "channel": 0,
      "note": 58,
      "start": 18.0878,
      "duration": 0.0094,
      "velocity": 113,
      "chip": "ym2612"
    },
    {
      "channel": 1,
      "note": 86,
      "start": 18.0881,
      "duration": 0.0065,
      "velocity": 98,
      "chip": "ym2612"
    },
    {
      "channel": 2,
      "note": 87,
      "start": 18.0948,
      "duration": 0.0164,
      "velocity": 98,
      "chip": "ym2612"
    },
    {
      "channel": 0,
      "note": 55,
      "start": 18.0974,
      "duration": 0.0108,
      "velocity": 113,
      "chip": "ym2612"
    },
    {
      "channel": 1,
      "note": 82,
      "start": 18.0978,
      "duration": 0.0133,
      "velocity": 98,
      "chip": "ym2612"
    },
    {
      "channel": 3,
      "note": 55,
      "start": 18.0985,
      "duration": 0.0164,
      "velocity": 106,
      "chip": "ym2612"
    },
    {
      "channel": 4,
      "note": 51,
      "start": 18.0991,
      "duration": 0.0159,
      "velocity": 106,
      "chip": "ym2612"
    },
    {
      "channel": 2,
      "note": 86,
      "start": 18.1137,
      "duration": 0.0057,
      "velocity": 98,
      "chip": "ym2612"
    },
    {
      "channel": 3,
      "note": 55,
      "start": 18.1178,
      "duration": 0.0151,
      "velocity": 106,
      "chip": "ym2612"
    },
    {
      "channel": 4,
      "note": 51,
      "start": 18.1182,
      "duration": 0.0147,
      "velocity": 106,
      "chip": "ym2612"
    },
    {
      "channel": 2,
      "note": 82,
      "start": 18.1217,
      "duration": 0.0111,
      "velocity": 98,
      "chip": "ym2612"
    },
    {
      "channel": 0,
      "note": 51,
      "start": 18.1231,
      "duration": 0.0222,
      "velocity": 113,
      "chip": "ym2612"
    },
    {
      "channel": 1,
      "note": 82,
      "start": 18.1234,
      "duration": 0.0221,
      "velocity": 98,
      "chip": "ym2612"
    },
    {
      "channel": 2,
      "note": 82,
      "start": 18.1429,
      "duration": 0.0804,
      "velocity": 98,
      "chip": "ym2612"
    },
    {
      "channel": 3,
      "note": 55,
      "start": 18.1459,
      "duration": 0.0703,
      "velocity": 106,
      "chip": "ym2612"
    },
    {
      "channel": 4,
      "note": 51,
      "start": 18.1464,
      "duration": 0.07,
      "velocity": 106,
      "chip": "ym2612"
    },
    {
      "channel": 3,
      "note": 55,
      "start": 18.2195,
      "duration": 0.0265,
      "velocity": 106,
      "chip": "ym2612"
    },
    {
      "channel": 4,
      "note": 51,
      "start": 18.2198,
      "duration": 0.0263,
      "velocity": 106,
      "chip": "ym2612"
    },
    {
      "channel": 0,
      "note": 58,
      "start": 18.2266,
      "duration": 0.203,
      "velocity": 113,
      "chip": "ym2612"
    },
    {
      "channel": 0,
      "note": 58,
      "start": 18.4298,
      "duration": 0.0142,
      "velocity": 113,
      "chip": "ym2612"
    },
    {
      "channel": 1,
      "note": 94,
      "start": 18.4301,
      "duration": 0.008,
      "velocity": 98,
      "chip": "ym2612"
    },
    {
      "channel": 3,
      "note": 62,
      "start": 18.4307,
      "duration": 0.0136,
      "velocity": 106,
      "chip": "ym2612"
    },
    {
      "channel": 4,
      "note": 58,
      "start": 18.4311,
      "duration": 0.0132,
      "velocity": 106,
      "chip": "ym2612"
    },
    {
      "channel": 0,
      "note": 58,
      "start": 18.4442,
      "duration": 0.0232,
      "velocity": 113,
      "chip": "ym2612"
    },
    {
      "channel": 3,
      "note": 62,
      "start": 18.447,
      "duration": 0.0147,
      "velocity": 106,
      "chip": "ym2612"
    },
    {
      "channel": 4,
      "note": 58,
      "start": 18.4475,
      "duration": 0.0144,
      "velocity": 106,
      "chip": "ym2612"
    },
    {
      "channel": 2,
      "note": 94,
      "start": 18.451,
      "duration": 0.0084,
      "velocity": 98,
      "chip": "ym2612"
    },
    {
      "channel": 1,
      "note": 89,
      "start": 18.4525,
      "duration": 0.0082,
      "velocity": 98,
      "chip": "ym2612"
    },
    {
      "channel": 0,
      "note": 58,
      "start": 18.4676,
      "duration": 0.0054,
      "velocity": 113,
      "chip": "ym2612"
    },
    {
      "channel": 2,
      "note": 89,
      "start": 18.4719,
      "duration": 0.0094,
      "velocity": 98,
      "chip": "ym2612"
    },
    {
      "channel": 0,
      "note": 58,
      "start": 18.4732,
      "duration": 0.0167,
      "velocity": 113,
      "chip": "ym2612"
    },
    {
      "channel": 1,
      "note": 87,
      "start": 18.4736,
      "duration": 0.0147,
      "velocity": 98,
      "chip": "ym2612"
    },
    {
      "channel": 3,
      "note": 62,
      "start": 18.474,
      "duration": 0.0166,
      "velocity": 106,
      "chip": "ym2612"
    },
    {
      "channel": 4,
      "note": 58,
      "start": 18.4744,
      "duration": 0.0163,
      "velocity": 106,
      "chip": "ym2612"
    },
    {
      "channel": 0,
      "note": 58,
      "start": 18.4902,
      "duration": 0.0088,
      "velocity": 113,
      "chip": "ym2612"
    },
    {
      "channel": 1,
      "note": 86,
      "start": 18.4905,
      "duration": 0.0056,
      "velocity": 98,
      "chip": "ym2612"
    },
    {
      "channel": 3,
      "note": 62,
      "start": 18.4935,
      "duration": 0.0154,
      "velocity": 106,
      "chip": "ym2612"
    },
    {
      "channel": 4,
      "note": 58,
      "start": 18.4939,
      "duration": 0.0151,
      "velocity": 106,
      "chip": "ym2612"
    },
    {
      "channel": 2,
      "note": 87,
      "start": 18.4963,
      "duration": 0.0149,
      "velocity": 98,
      "chip": "ym2612"
    },
    {
      "channel": 0,
      "note": 53,
      "start": 18.499,
      "duration": 0.0085,
      "velocity": 113,
      "chip": "ym2612"
    },
    {
      "channel": 1,
      "note": 87,
      "start": 18.4994,
      "duration": 0.004,
      "velocity": 98,
      "chip": "ym2612"
    },
    {
      "channel": 2,
      "note": 86,
      "start": 18.5125,
      "duration": 0.0056,
      "velocity": 98,
      "chip": "ym2612"
    },
    {
      "channel": 0,
      "note": 53,
      "start": 18.5152,
      "duration": 0.0066,
      "velocity": 113,
      "chip": "ym2612"
    },
    {
      "channel": 1,
      "note": 89,
      "start": 18.5155,
      "duration": 0.0037,
      "velocity": 98,
      "chip": "ym2612"
    },
    {
      "channel": 2,
      "note": 87,
      "start": 18.5208,
      "duration": 0.005,
      "velocity": 98,
      "chip": "ym2612"
    },
    {
      "channel": 0,
      "note": 57,
      "start": 18.5221,
      "duration": 0.0083,
      "velocity": 113,
      "chip": "ym2612"
    },
    {
      "channel": 1,
      "note": 89,
      "start": 18.5224,
      "duration": 0.0366,
      "velocity": 98,
      "chip": "ym2612"
    },
    {
      "channel": 3,
      "note": 57,
      "start": 18.523,
      "duration": 0.015,
      "velocity": 106,
      "chip": "ym2612"
    },
    {
      "channel": 4,
      "note": 53,
      "start": 18.5234,
      "duration": 0.0147,
      "velocity": 106,
      "chip": "ym2612"
    },
    {
      "channel": 2,
      "note": 89,
      "start": 18.5366,
      "duration": 0.0047,
      "velocity": 98,
      "chip": "ym2612"
    },
    {
      "channel": 3,
      "note": 57,
      "start": 18.5398,
      "duration": 0.0158,
      "velocity": 106,
      "chip": "ym2612"
    },
    {
      "channel": 4,
      "note": 53,
      "start": 18.5402,
      "duration": 0.0155,
      "velocity": 106,
      "chip": "ym2612"
    },
    {
      "channel": 2,
      "note": 89,
      "start": 18.544,
      "duration": 0.0372,
      "velocity": 98,
      "chip": "ym2612"
    },
    {
      "channel": 0,
      "note": 60,
      "start": 18.5467,
      "duration": 0.0213,
      "velocity": 113,
      "chip": "ym2612"
    },
    {
      "channel": 1,
      "note": 89,
      "start": 18.5607,
      "duration": 0.0038,
      "velocity": 98,
      "chip": "ym2612"
    },
    {
      "channel": 1,
      "note": 87,
      "start": 18.5684,
      "duration": 0.0048,
      "velocity": 98,
      "chip": "ym2612"
    },
    {
      "channel": 3,
      "note": 57,
      "start": 18.569,
      "duration": 0.0165,
      "velocity": 106,
      "chip": "ym2612"
    },
    {
      "channel": 4,
      "note": 53,
      "start": 18.5694,
      "duration": 0.0163,
      "velocity": 106,
      "chip": "ym2612"
    },
    {
      "channel": 2,
      "note": 89,
      "start": 18.5826,
      "duration": 0.0064,
      "velocity": 98,
      "chip": "ym2612"
    },
    {
      "channel": 1,
      "note": 86,
      "start": 18.5852,
      "duration": 0.0071,
      "velocity": 98,
      "chip": "ym2612"
    },
    {
      "channel": 3,
      "note": 57,
      "start": 18.5894,
      "duration": 0.017,
      "velocity": 106,
      "chip": "ym2612"
    },
    {
      "channel": 4,
      "note": 53,
      "start": 18.5899,
      "duration": 0.0166,
      "velocity": 106,
      "chip": "ym2612"
    },
    {
      "channel": 2,
      "note": 87,
      "start": 18.5939,
      "duration": 0.0048,
      "velocity": 98,
      "chip": "ym2612"
    },
    {
      "channel": 0,
      "note": 56,
      "start": 18.597,
      "duration": 0.0223,
      "velocity": 113,
      "chip": "ym2612"
    },
    {
      "channel": 1,
      "note": 87,
      "start": 18.5974,
      "duration": 0.0104,
      "velocity": 98,
      "chip": "ym2612"
    },
    {
      "channel": 2,
      "note": 86,
      "start": 18.6098,
      "duration": 0.0033,
      "velocity": 98,
      "chip": "ym2612"
    },
    {
      "channel": 2,
      "note": 87,
      "start": 18.6167,
      "duration": 0.0125,
      "velocity": 98,
      "chip": "ym2612"
    },
    {
      "channel": 0,
      "note": 56,
      "start": 18.6195,
      "duration": 0.0157,
      "velocity": 113,
      "chip": "ym2612"
    },
    {
      "channel": 1,
      "note": 87,
      "start": 18.6197,
      "duration": 0.0234,
      "velocity": 98,
      "chip": "ym2612"
    },
    {
      "channel": 3,
      "note": 60,
      "start": 18.6203,
      "duration": 0.0151,
      "velocity": 106,
      "chip": "ym2612"
    },
    {
      "channel": 4,
      "note": 56,
      "start": 18.6207,
      "duration": 0.0149,
      "velocity": 106,
      "chip": "ym2612"
    },
    {
      "channel": 0,
      "note": 56,
      "start": 18.6354,
      "duration": 0.0214,
      "velocity": 113,
      "chip": "ym2612"
    },
    {
      "channel": 3,
      "note": 60,
      "start": 18.637,
      "duration": 0.0153,
      "velocity": 106,
      "chip": "ym2612"
    },
    {
      "channel": 4,
      "note": 56,
      "start": 18.6374,
      "duration": 0.015,
      "velocity": 106,
      "chip": "ym2612"
    },
    {
      "channel": 2,
      "note": 87,
      "start": 18.6407,
      "duration": 0.0218,
      "velocity": 98,
      "chip": "ym2612"
    },
    {
      "channel": 0,
      "note": 56,
      "start": 18.657,
      "duration": 0.0067,
      "velocity": 113,
      "chip": "ym2612"
    },
    {
      "channel": 0,
      "note": 56,
      "start": 18.6639,
      "duration": 0.0149,
      "velocity": 113,
      "chip": "ym2612"
    },
    {
      "channel": 1,
      "note": 87,
      "start": 18.6642,
      "duration": 0.0124,
      "velocity": 98,
      "chip": "ym2612"
    },
    {
      "channel": 3,
      "note": 60,
      "start": 18.6648,
      "duration": 0.0146,
      "velocity": 106,
      "chip": "ym2612"
    },
    {
      "channel": 4,
      "note": 56,
      "start": 18.6652,
      "duration": 0.0145,
      "velocity": 106,
      "chip": "ym2612"
    },
    {
      "channel": 0,
      "note": 56,
      "start": 18.679,
      "duration": 0.0088,
      "velocity": 113,
      "chip": "ym2612"
    },
    {
      "channel": 1,
      "note": 89,
      "start": 18.6793,
      "duration": 0.0059,
      "velocity": 98,
      "chip": "ym2612"
    },
    {
      "channel": 3,
      "note": 60,
      "start": 18.681,
      "duration": 0.0177,
      "velocity": 106,
      "chip": "ym2612"
    },
    {
      "channel": 4,
      "note": 56,
      "start": 18.6814,
      "duration": 0.0174,
      "velocity": 106,
      "chip": "ym2612"
    },
    {
      "channel": 2,
      "note": 87,
      "start": 18.6854,
      "duration": 0.0145,
      "velocity": 98,
      "chip": "ym2612"
    },
    {
      "channel": 0,
      "note": 58,
      "start": 18.688,
      "duration": 0.0076,
      "velocity": 113,
      "chip": "ym2612"
    },
    {
      "channel": 1,
      "note": 87,
      "start": 18.6883,
      "duration": 0.0138,
      "velocity": 98,
      "chip": "ym2612"
    },
    {
      "channel": 2,
      "note": 89,
      "start": 18.7024,
      "duration": 0.0051,
      "velocity": 98,
      "chip": "ym2612"
    },
    {
      "channel": 0,
      "note": 58,
      "start": 18.7037,
      "duration": 0.0076,
      "velocity": 113,
      "chip": "ym2612"
    },
    {
      "channel": 1,
      "note": 86,
      "start": 18.704,
      "duration": 0.0059,
      "velocity": 98,
      "chip": "ym2612"
    },
    {
      "channel": 2,
      "note": 87,
      "start": 18.7101,
      "duration": 0.0137,
      "velocity": 98,
      "chip": "ym2612"
    },
    {
      "channel": 0,
      "note": 55,
      "start": 18.7116,
      "duration": 0.0083,
      "velocity": 113,
      "chip": "ym2612"
    },
    {
      "channel": 1,
      "note": 82,
      "start": 18.7118,
      "duration": 0.0119,
      "velocity": 98,
      "chip": "ym2612"
    },
    {
      "channel": 3,
      "note": 55,
      "start": 18.7124,
      "duration": 0.0154,
      "velocity": 106,
      "chip": "ym2612"
    },
    {
      "channel": 4,
      "note": 51,
      "start": 18.7128,
      "duration": 0.0151,
      "velocity": 106,
      "chip": "ym2612"
    },
    {
      "channel": 2,
      "note": 86,
      "start": 18.7251,
      "duration": 0.0073,
      "velocity": 98,
      "chip": "ym2612"
    },
    {
      "channel": 3,
      "note": 55,
      "start": 18.7295,
      "duration": 0.0168,
      "velocity": 106,
      "chip": "ym2612"
    },
    {
      "channel": 4,
      "note": 51,
      "start": 18.73,
      "duration": 0.0164,
      "velocity": 106,
      "chip": "ym2612"
    },
    {
      "channel": 2,
      "note": 82,
      "start": 18.734,
      "duration": 0.0258,
      "velocity": 106,
      "chip": "ym2612"
    },
    {
      "channel": 0,
      "note": 51,
      "start": 18.7355,
      "duration": 0.0228,
      "velocity": 113,
      "chip": "ym2612"
    },
    {
      "channel": 1,
      "note": 82,
      "start": 18.7358,
      "duration": 0.0479,
      "velocity": 98,
      "chip": "ym2612"
    },
    {
      "channel": 2,
      "note": 63,
      "start": 18.76,
      "duration": 0.0177,
      "velocity": 106,
      "chip": "ym2612"
    },
    {
      "channel": 3,
      "note": 68,
      "start": 18.7614,
      "duration": 0.0166,
      "velocity": 106,
      "chip": "ym2612"
    },
    {
      "channel": 4,
      "note": 51,
      "start": 18.7617,
      "duration": 0.0165,
      "velocity": 106,
      "chip": "ym2612"
    },
    {
      "channel": 2,
      "note": 64,
      "start": 18.7779,
      "duration": 0.0058,
      "velocity": 106,
      "chip": "ym2612"
    },
    {
      "channel": 3,
      "note": 69,
      "start": 18.7781,
      "duration": 0.0057,
      "velocity": 106,
      "chip": "ym2612"
    },
    {
      "channel": 4,
      "note": 51,
      "start": 18.7798,
      "duration": 0.0093,
      "velocity": 106,
      "chip": "ym2612"
    },
    {
      "channel": 0,
      "note": 58,
      "start": 18.7852,
      "duration": 0.0118,
      "velocity": 113,
      "chip": "ym2612"
    },
    {
      "channel": 2,
      "note": 65,
      "start": 18.7876,
      "duration": 0.0491,
      "velocity": 109,
      "chip": "ym2612"
    },
    {
      "channel": 3,
      "note": 70,
      "start": 18.7889,
      "duration": 0.0479,
      "velocity": 109,
      "chip": "ym2612"
    },
    {
      "channel": 4,
      "note": 58,
      "start": 18.7893,
      "duration": 0.0152,
      "velocity": 106,
      "chip": "ym2612"
    },
    {
      "channel": 4,
      "note": 58,
      "start": 18.806,
      "duration": 0.0165,
      "velocity": 106,
      "chip": "ym2612"
    },
    {
      "channel": 1,
      "note": 82,
      "start": 18.8134,
      "duration": 0.0051,
      "velocity": 99,
      "chip": "ym2612"
    },
    {
      "channel": 0,
      "note": 58,
      "start": 18.8278,
      "duration": 0.0084,
      "velocity": 113,
      "chip": "ym2612"
    },
    {
      "channel": 1,
      "note": 82,
      "start": 18.8281,
      "duration": 0.0054,
      "velocity": 99,
      "chip": "ym2612"
    },
    {
      "channel": 4,
      "note": 58,
      "start": 18.8287,
      "duration": 0.015,
      "velocity": 106,
      "chip": "ym2612"
    },
    {
      "channel": 1,
      "note": 82,
      "start": 18.8365,
      "duration": 0.0046,
      "velocity": 99,
      "chip": "ym2612"
    },
    {
      "channel": 2,
      "note": 65,
      "start": 18.8367,
      "duration": 0.1015,
      "velocity": 109,
      "chip": "ym2612"
    },
    {
      "channel": 3,
      "note": 70,
      "start": 18.8368,
      "duration": 0.1014,
      "velocity": 109,
      "chip": "ym2612"
    },
    {
      "channel": 4,
      "note": 58,
      "start": 18.8467,
      "duration": 0.0196,
      "velocity": 106,
      "chip": "ym2612"
    },
    {
      "channel": 1,
      "note": 82,
      "start": 18.8582,
      "duration": 0.0048,
      "velocity": 99,
      "chip": "ym2612"
    },
    {
      "channel": 0,
      "note": 58,
      "start": 18.8657,
      "duration": 0.0244,
      "velocity": 113,
      "chip": "ym2612"
    },
    {
      "channel": 4,
      "note": 58,
      "start": 18.8665,
      "duration": 0.0134,
      "velocity": 106,
      "chip": "ym2612"
    },
    {
      "channel": 1,
      "note": 84,
      "start": 18.8795,
      "duration": 0.0056,
      "velocity": 99,
      "chip": "ym2612"
    },
    {
      "channel": 4,
      "note": 58,
      "start": 18.8825,
      "duration": 0.0085,
      "velocity": 106,
      "chip": "ym2612"
    },
    {
      "channel": 0,
      "note": 56,
      "start": 18.8904,
      "duration": 0.0085,
      "velocity": 113,
      "chip": "ym2612"
    },
    {
      "channel": 4,
      "note": 56,
      "start": 18.8912,
      "duration": 0.0153,
      "velocity": 106,
      "chip": "ym2612"
    },
    {
      "channel": 1,
      "note": 84,
      "start": 18.9062,
      "duration": 0.0063,
      "velocity": 99,
      "chip": "ym2612"
    },
    {
      "channel": 4,
      "note": 56,
      "start": 18.9084,
      "duration": 0.0169,
      "velocity": 106,
      "chip": "ym2612"
    },
    {
      "channel": 1,
      "note": 84,
      "start": 18.9292,
      "duration": 0.0014,
      "velocity": 99,
      "chip": "ym2612"
    },
    {
      "channel": 0,
      "note": 56,
      "start": 18.9305,
      "duration": 0.0074,
      "velocity": 113,
      "chip": "ym2612"
    },
    {
      "channel": 1,
      "note": 86,
      "start": 18.9307,
      "duration": 0.0072,
      "velocity": 99,
      "chip": "ym2612"
    },
    {
      "channel": 4,
      "note": 56,
      "start": 18.9315,
      "duration": 0.013,
      "velocity": 106,
      "chip": "ym2612"
    },
    {
      "channel": 1,
      "note": 87,
      "start": 18.9381,
      "duration": 0.0045,
      "velocity": 99,
      "chip": "ym2612"
    },
    {
      "channel": 4,
      "note": 56,
      "start": 18.946,
      "duration": 0.1156,
      "velocity": 106,
      "chip": "ym2612"
    },
    {
      "channel": 1,
      "note": 86,
      "start": 18.9585,
      "duration": 0.0662,
      "velocity": 99,
      "chip": "ym2612"
    },
    {
      "channel": 0,
      "note": 56,
      "start": 19.0587,
      "duration": 0.025,
      "velocity": 113,
      "chip": "ym2612"
    },
    {
      "channel": 1,
      "note": 84,
      "start": 19.0589,
      "duration": 0.0082,
      "velocity": 99,
      "chip": "ym2612"
    },
    {
      "channel": 2,
      "note": 63,
      "start": 19.0601,
      "duration": 0.0151,
      "velocity": 106,
      "chip": "ym2612"
    },
    {
      "channel": 3,
      "note": 72,
      "start": 19.0613,
      "duration": 0.0142,
      "velocity": 106,
      "chip": "ym2612"
    },
    {
      "channel": 4,
      "note": 56,
      "start": 19.0617,
      "duration": 0.014,
      "velocity": 106,
      "chip": "ym2612"
    },
    {
      "channel": 2,
      "note": 63,
      "start": 19.0755,
      "duration": 0.0068,
      "velocity": 106,
      "chip": "ym2612"
    },
    {
      "channel": 3,
      "note": 71,
      "start": 19.0757,
      "duration": 0.0066,
      "velocity": 106,
      "chip": "ym2612"
    },
    {
      "channel": 4,
      "note": 56,
      "start": 19.0785,
      "duration": 0.0093,
      "velocity": 106,
      "chip": "ym2612"
    },
    {
      "channel": 0,
      "note": 51,
      "start": 19.0839,
      "duration": 0.0117,
      "velocity": 113,
      "chip": "ym2612"
    },
    {
      "channel": 1,
      "note": 82,
      "start": 19.0841,
      "duration": 0.0087,
      "velocity": 99,
      "chip": "ym2612"
    },
    {
      "channel": 2,
      "note": 63,
      "start": 19.0853,
      "duration": 0.0525,
      "velocity": 109,
      "chip": "ym2612"
    },
    {
      "channel": 3,
      "note": 70,
      "start": 19.0866,
      "duration": 0.0514,
      "velocity": 109,
      "chip": "ym2612"
    },
    {
      "channel": 4,
      "note": 67,
      "start": 19.0879,
      "duration": 0.0162,
      "velocity": 106,
      "chip": "ym2612"
    },
    {
      "channel": 4,
      "note": 67,
      "start": 19.1058,
      "duration": 0.0171,
      "velocity": 106,
      "chip": "ym2612"
    },
    {
      "channel": 1,
      "note": 79,
      "start": 19.1119,
      "duration": 0.0054,
      "velocity": 99,
      "chip": "ym2612"
    },
    {
      "channel": 0,
      "note": 51,
      "start": 19.1287,
      "duration": 0.0088,
      "velocity": 113,
      "chip": "ym2612"
    },
    {
      "channel": 1,
      "note": 79,
      "start": 19.129,
      "duration": 0.0056,
      "velocity": 99,
      "chip": "ym2612"
    },
    {
      "channel": 4,
      "note": 67,
      "start": 19.1297,
      "duration": 0.0165,
      "velocity": 106,
      "chip": "ym2612"
    },
    {
      "channel": 1,
      "note": 79,
      "start": 19.1377,
      "duration": 0.0055,
      "velocity": 99,
      "chip": "ym2612"
    },
    {
      "channel": 2,
      "note": 63,
      "start": 19.1378,
      "duration": 0.1171,
      "velocity": 109,
      "chip": "ym2612"
    },
    {
      "channel": 3,
      "note": 70,
      "start": 19.138,
      "duration": 0.1171,
      "velocity": 109,
      "chip": "ym2612"
    },
    {
      "channel": 4,
      "note": 67,
      "start": 19.148,
      "duration": 0.0196,
      "velocity": 106,
      "chip": "ym2612"
    },
    {
      "channel": 1,
      "note": 79,
      "start": 19.1603,
      "duration": 0.0051,
      "velocity": 99,
      "chip": "ym2612"
    },
    {
      "channel": 0,
      "note": 51,
      "start": 19.167,
      "duration": 0.0304,
      "velocity": 113,
      "chip": "ym2612"
    },
    {
      "channel": 4,
      "note": 67,
      "start": 19.1677,
      "duration": 0.0161,
      "velocity": 106,
      "chip": "ym2612"
    },
    {
      "channel": 1,
      "note": 80,
      "start": 19.1835,
      "duration": 0.0056,
      "velocity": 99,
      "chip": "ym2612"
    },
    {
      "channel": 4,
      "note": 67,
      "start": 19.1853,
      "duration": 0.015,
      "velocity": 106,
      "chip": "ym2612"
    },
    {
      "channel": 0,
      "note": 51,
      "start": 19.1978,
      "duration": 0.0106,
      "velocity": 113,
      "chip": "ym2612"
    },
    {
      "channel": 4,
      "note": 67,
      "start": 19.2004,
      "duration": 0.015,
      "velocity": 106,
      "chip": "ym2612"
    },
    {
      "channel": 1,
      "note": 80,
      "start": 19.2152,
      "duration": 0.0056,
      "velocity": 99,
      "chip": "ym2612"
    },
    {
      "channel": 4,
      "note": 67,
      "start": 19.2183,
      "duration": 0.0172,
      "velocity": 106,
      "chip": "ym2612"
    },
    {
      "channel": 1,
      "note": 80,
      "start": 19.2382,
      "duration": 0.0026,
      "velocity": 99,
      "chip": "ym2612"
    },
    {
      "channel": 0,
      "note": 51,
      "start": 19.2407,
      "duration": 0.0136,
      "velocity": 113,
      "chip": "ym2612"
    },
    {
      "channel": 1,
      "note": 82,
      "start": 19.2409,
      "duration": 0.0136,
      "velocity": 99,
      "chip": "ym2612"
    },
    {
      "channel": 4,
      "note": 67,
      "start": 19.2416,
      "duration": 0.0201,
      "velocity": 106,
      "chip": "ym2612"
    },
    {
      "channel": 1,
      "note": 79,
      "start": 19.2548,
      "duration": 0.0049,
      "velocity": 99,
      "chip": "ym2612"
    },
    {
      "channel": 4,
      "note": 67,
      "start": 19.2632,
      "duration": 0.017,
      "velocity": 106,
      "chip": "ym2612"
    },
    {
      "channel": 1,
      "note": 77,
      "start": 19.269,
      "duration": 0.0078,
      "velocity": 99,
      "chip": "ym2612"
    },
    {
      "channel": 2,
      "note": 65,
      "start": 19.2702,
      "duration": 0.0078,
      "velocity": 106,
      "chip": "ym2612"
    },
    {
      "channel": 3,
      "note": 70,
      "start": 19.2715,
      "duration": 0.0066,
      "velocity": 106,
      "chip": "ym2612"
    },
    {
      "channel": 0,
      "note": 51,
      "start": 19.2792,
      "duration": 0.0308,
      "velocity": 113,
      "chip": "ym2612"
    },
    {
      "channel": 1,
      "note": 75,
      "start": 19.2795,
      "duration": 0.006,
      "velocity": 99,
      "chip": "ym2612"
    },
    {
      "channel": 2,
      "note": 68,
      "start": 19.2797,
      "duration": 0.0143,
      "velocity": 106,
      "chip": "ym2612"
    },
    {
      "channel": 3,
      "note": 73,
      "start": 19.2799,
      "duration": 0.0142,
      "velocity": 106,
      "chip": "ym2612"
    },
    {
      "channel": 4,
      "note": 67,
      "start": 19.2803,
      "duration": 0.0165,
      "velocity": 106,
      "chip": "ym2612"
    },
    {
      "channel": 2,
      "note": 65,
      "start": 19.2966,
      "duration": 0.0059,
      "velocity": 106,
      "chip": "ym2612"
    },
    {
      "channel": 3,
      "note": 70,
      "start": 19.2968,
      "duration": 0.0058,
      "velocity": 106,
      "chip": "ym2612"
    },
    {
      "channel": 4,
      "note": 67,
      "start": 19.2985,
      "duration": 0.0156,
      "velocity": 106,
      "chip": "ym2612"
    },
    {
      "channel": 0,
      "note": 58,
      "start": 19.3103,
      "duration": 0.0099,
      "velocity": 113,
      "chip": "ym2612"
    },
    {
      "channel": 2,
      "note": 63,
      "start": 19.3118,
      "duration": 0.0158,
      "velocity": 106,
      "chip": "ym2612"
    },
    {
      "channel": 3,
      "note": 68,
      "start": 19.3129,
      "duration": 0.015,
      "velocity": 106,
      "chip": "ym2612"
    },
    {
      "channel": 4,
      "note": 58,
      "start": 19.3144,
      "duration": 0.0138,
      "velocity": 106,
      "chip": "ym2612"
    },
    {
      "channel": 2,
      "note": 64,
      "start": 19.3279,
      "duration": 0.0073,
      "velocity": 106,
      "chip": "ym2612"
    },
    {
      "channel": 3,
      "note": 69,
      "start": 19.3281,
      "duration": 0.0072,
      "velocity": 106,
      "chip": "ym2612"
    },
    {
      "channel": 4,
      "note": 58,
      "start": 19.3311,
      "duration": 0.0169,
      "velocity": 106,
      "chip": "ym2612"
    },
    {
      "channel": 1,
      "note": 82,
      "start": 19.337,
      "duration": 0.0071,
      "velocity": 99,
      "chip": "ym2612"
    },
    {
      "channel": 2,
      "note": 65,
      "start": 19.3384,
      "duration": 0.0527,
      "velocity": 106,
      "chip": "ym2612"
    },
    {
      "channel": 3,
      "note": 70,
      "start": 19.3396,
      "duration": 0.0527,
      "velocity": 106,
      "chip": "ym2612"
    },
    {
      "channel": 0,
      "note": 58,
      "start": 19.3563,
      "duration": 0.008,
      "velocity": 113,
      "chip": "ym2612"
    },
    {
      "channel": 1,
      "note": 82,
      "start": 19.3566,
      "duration": 0.0051,
      "velocity": 99,
      "chip": "ym2612"
    },
    {
      "channel": 4,
      "note": 58,
      "start": 19.3573,
      "duration": 0.0138,
      "velocity": 106,
      "chip": "ym2612"
    },
    {
      "channel": 1,
      "note": 82,
      "start": 19.3646,
      "duration": 0.0052,
      "velocity": 99,
      "chip": "ym2612"
    },
    {
      "channel": 4,
      "note": 58,
      "start": 19.3741,
      "duration": 0.0186,
      "velocity": 106,
      "chip": "ym2612"
    },
    {
      "channel": 1,
      "note": 82,
      "start": 19.3822,
      "duration": 0.0052,
      "velocity": 99,
      "chip": "ym2612"
    },
    {
      "channel": 0,
      "note": 58,
      "start": 19.3899,
      "duration": 0.0258,
      "velocity": 113,
      "chip": "ym2612"
    },
    {
      "channel": 2,
      "note": 63,
      "start": 19.3913,
      "duration": 0.0171,
      "velocity": 106,
      "chip": "ym2612"
    },
    {
      "channel": 3,
      "note": 68,
      "start": 19.3924,
      "duration": 0.0162,
      "velocity": 106,
      "chip": "ym2612"
    },
    {
      "channel": 4,
      "note": 58,
      "start": 19.3929,
      "duration": 0.016,
      "velocity": 106,
      "chip": "ym2612"
    },
    {
      "channel": 1,
      "note": 84,
      "start": 19.4083,
      "duration": 0.0058,
      "velocity": 99,
      "chip": "ym2612"
    },
    {
      "channel": 2,
      "note": 64,
      "start": 19.4086,
      "duration": 0.0055,
      "velocity": 106,
      "chip": "ym2612"
    },
    {
      "channel": 3,
      "note": 69,
      "start": 19.4088,
      "duration": 0.0054,
      "velocity": 106,
      "chip": "ym2612"
    },
    {
      "channel": 4,
      "note": 58,
      "start": 19.4104,
      "duration": 0.0085,
      "velocity": 106,
      "chip": "ym2612"
    },
    {
      "channel": 0,
      "note": 56,
      "start": 19.416,
      "duration": 0.0106,
      "velocity": 113,
      "chip": "ym2612"
    },
    {
      "channel": 2,
      "note": 65,
      "start": 19.4174,
      "duration": 0.0502,
      "velocity": 109,
      "chip": "ym2612"
    },
    {
      "channel": 3,
      "note": 70,
      "start": 19.4187,
      "duration": 0.0491,
      "velocity": 109,
      "chip": "ym2612"
    },
    {
      "channel": 4,
      "note": 56,
      "start": 19.419,
      "duration": 0.0166,
      "velocity": 106,
      "chip": "ym2612"
    },
    {
      "channel": 1,
      "note": 84,
      "start": 19.4353,
      "duration": 0.006,
      "velocity": 99,
      "chip": "ym2612"
    },
    {
      "channel": 4,
      "note": 56,
      "start": 19.4384,
      "duration": 0.0148,
      "velocity": 106,
      "chip": "ym2612"
    },
    {
      "channel": 1,
      "note": 84,
      "start": 19.4572,
      "duration": 0.003,
      "velocity": 99,
      "chip": "ym2612"
    },
    {
      "channel": 0,
      "note": 56,
      "start": 19.4601,
      "duration": 0.007,
      "velocity": 113,
      "chip": "ym2612"
    },
    {
      "channel": 1,
      "note": 86,
      "start": 19.4605,
      "duration": 0.0068,
      "velocity": 99,
      "chip": "ym2612"
    },
    {
      "channel": 4,
      "note": 56,
      "start": 19.4611,
      "duration": 0.0142,
      "velocity": 106,
      "chip": "ym2612"
    },
    {
      "channel": 1,
      "note": 87,
      "start": 19.4674,
      "duration": 0.0054,
      "velocity": 99,
      "chip": "ym2612"
    },
    {
      "channel": 2,
      "note": 65,
      "start": 19.4676,
      "duration": 0.0119,
      "velocity": 109,
      "chip": "ym2612"
    },
    {
      "channel": 3,
      "note": 70,
      "start": 19.4678,
      "duration": 0.0117,
      "velocity": 109,
      "chip": "ym2612"
    },
    {
      "channel": 4,
      "note": 56,
      "start": 19.4783,
      "duration": 0.0962,
      "velocity": 106,
      "chip": "ym2612"
    },
    {
      "channel": 1,
      "note": 86,
      "start": 19.4832,
      "duration": 0.0568,
      "velocity": 99,
      "chip": "ym2612"
    },
    {
      "channel": 0,
      "note": 56,
      "start": 19.5739,
      "duration": 0.0198,
      "velocity": 113,
      "chip": "ym2612"
    },
    {
      "channel": 1,
      "note": 84,
      "start": 19.5741,
      "duration": 0.0051,
      "velocity": 99,
      "chip": "ym2612"
    },
    {
      "channel": 4,
      "note": 56,
      "start": 19.5746,
      "duration": 0.0117,
      "velocity": 106,
      "chip": "ym2612"
    },
    {
      "channel": 4,
      "note": 56,
      "start": 19.5889,
      "duration": 0.0089,
      "velocity": 106,
      "chip": "ym2612"
    },
    {
      "channel": 0,
      "note": 51,
      "start": 19.594,
      "duration": 0.0115,
      "velocity": 113,
      "chip": "ym2612"
    },
    {
      "channel": 1,
      "note": 82,
      "start": 19.5942,
      "duration": 0.0087,
      "velocity": 99,
      "chip": "ym2612"
    },
    {
      "channel": 2,
      "note": 65,
      "start": 19.5954,
      "duration": 0.0077,
      "velocity": 106,
      "chip": "ym2612"
    },
    {
      "channel": 3,
      "note": 70,
      "start": 19.5965,
      "duration": 0.0066,
      "velocity": 106,
      "chip": "ym2612"
    },
    {
      "channel": 4,
      "note": 67,
      "start": 19.5979,
      "duration": 0.0161,
      "velocity": 106,
      "chip": "ym2612"
    },
    {
      "channel": 2,
      "note": 65,
      "start": 19.6138,
      "duration": 0.0059,
      "velocity": 106,
      "chip": "ym2612"
    },
    {
      "channel": 3,
      "note": 70,
      "start": 19.614,
      "duration": 0.0057,
      "velocity": 106,
      "chip": "ym2612"
    },
    {
      "channel": 4,
      "note": 67,
      "start": 19.6157,
      "duration": 0.0156,
      "velocity": 106,
      "chip": "ym2612"
    },
    {
      "channel": 1,
      "note": 87,
      "start": 19.6233,
      "duration": 0.0049,
      "velocity": 99,
      "chip": "ym2612"
    },
    {
      "channel": 0,
      "note": 51,
      "start": 19.6369,
      "duration": 0.0088,
      "velocity": 113,
      "chip": "ym2612"
    },
    {
      "channel": 1,
      "note": 87,
      "start": 19.6372,
      "duration": 0.0059,
      "velocity": 99,
      "chip": "ym2612"
    },
    {
      "channel": 2,
      "note": 65,
      "start": 19.6374,
      "duration": 0.0058,
      "velocity": 106,
      "chip": "ym2612"
    },
    {
      "channel": 3,
      "note": 70,
      "start": 19.6376,
      "duration": 0.0057,
      "velocity": 106,
      "chip": "ym2612"
    },
    {
      "channel": 4,
      "note": 67,
      "start": 19.638,
      "duration": 0.0163,
      "velocity": 106,
      "chip": "ym2612"
    },
    {
      "channel": 1,
      "note": 87,
      "start": 19.6459,
      "duration": 0.0057,
      "velocity": 99,
      "chip": "ym2612"
    },
    {
      "channel": 2,
      "note": 65,
      "start": 19.6462,
      "duration": 0.0055,
      "velocity": 106,
      "chip": "ym2612"
    },
    {
      "channel": 3,
      "note": 70,
      "start": 19.6464,
      "duration": 0.0053,
      "velocity": 106,
      "chip": "ym2612"
    },
    {
      "channel": 4,
      "note": 67,
      "start": 19.6557,
      "duration": 0.021,
      "velocity": 106,
      "chip": "ym2612"
    },
    {
      "channel": 1,
      "note": 87,
      "start": 19.668,
      "duration": 0.005,
      "velocity": 99,
      "chip": "ym2612"
    },
    {
      "channel": 0,
      "note": 51,
      "start": 19.676,
      "duration": 0.0221,
      "velocity": 113,
      "chip": "ym2612"
    },
    {
      "channel": 2,
      "note": 65,
      "start": 19.6762,
      "duration": 0.0055,
      "velocity": 106,
      "chip": "ym2612"
    },
    {
      "channel": 3,
      "note": 70,
      "start": 19.6765,
      "duration": 0.0053,
      "velocity": 106,
      "chip": "ym2612"
    },
    {
      "channel": 4,
      "note": 67,
      "start": 19.6768,
      "duration": 0.0134,
      "velocity": 106,
      "chip": "ym2612"
    },
    {
      "channel": 1,
      "note": 87,
      "start": 19.6898,
      "duration": 0.0059,
      "velocity": 99,
      "chip": "ym2612"
    },
    {
      "channel": 2,
      "note": 65,
      "start": 19.69,
      "duration": 0.0058,
      "velocity": 106,
      "chip": "ym2612"
    },
    {
      "channel": 3,
      "note": 70,
      "start": 19.6902,
      "duration": 0.0056,
      "velocity": 106,
      "chip": "ym2612"
    },
    {
      "channel": 4,
      "note": 67,
      "start": 19.6929,
      "duration": 0.0077,
      "velocity": 106,
      "chip": "ym2612"
    },
    {
      "channel": 0,
      "note": 51,
      "start": 19.6983,
      "duration": 0.0094,
      "velocity": 113,
      "chip": "ym2612"
    },
    {
      "channel": 4,
      "note": 67,
      "start": 19.7008,
      "duration": 0.0144,
      "velocity": 106,
      "chip": "ym2612"
    },
    {
      "channel": 1,
      "note": 87,
      "start": 19.7146,
      "duration": 0.0056,
      "velocity": 99,
      "chip": "ym2612"
    },
    {
      "channel": 2,
      "note": 65,
      "start": 19.7149,
      "duration": 0.0054,
      "velocity": 106,
      "chip": "ym2612"
    },
    {
      "channel": 3,
      "note": 70,
      "start": 19.7151,
      "duration": 0.0052,
      "velocity": 106,
      "chip": "ym2612"
    },
    {
      "channel": 4,
      "note": 67,
      "start": 19.7168,
      "duration": 0.0199,
      "velocity": 106,
      "chip": "ym2612"
    },
    {
      "channel": 2,
      "note": 65,
      "start": 19.7281,
      "duration": 0.0053,
      "velocity": 106,
      "chip": "ym2612"
    },
    {
      "channel": 3,
      "note": 70,
      "start": 19.7285,
      "duration": 0.005,
      "velocity": 106,
      "chip": "ym2612"
    },
    {
      "channel": 1,
      "note": 87,
      "start": 19.7397,
      "duration": 0.0016,
      "velocity": 99,
      "chip": "ym2612"
    },
    {
      "channel": 0,
      "note": 51,
      "start": 19.7412,
      "duration": 0.0094,
      "velocity": 113,
      "chip": "ym2612"
    },
    {
      "channel": 1,
      "note": 89,
      "start": 19.7415,
      "duration": 0.0093,
      "velocity": 99,
      "chip": "ym2612"
    },
    {
      "channel": 4,
      "note": 67,
      "start": 19.7419,
      "duration": 0.0184,
      "velocity": 106,
      "chip": "ym2612"
    },
    {
      "channel": 1,
      "note": 86,
      "start": 19.751,
      "duration": 0.0065,
      "velocity": 99,
      "chip": "ym2612"
    },
    {
      "channel": 2,
      "note": 65,
      "start": 19.7514,
      "duration": 0.0062,
      "velocity": 106,
      "chip": "ym2612"
    },
    {
      "channel": 3,
      "note": 70,
      "start": 19.7517,
      "duration": 0.0059,
      "velocity": 106,
      "chip": "ym2612"
    },
    {
      "channel": 4,
      "note": 67,
      "start": 19.7616,
      "duration": 0.0186,
      "velocity": 106,
      "chip": "ym2612"
    },
    {
      "channel": 1,
      "note": 84,
      "start": 19.7683,
      "duration": 0.0064,
      "velocity": 99,
      "chip": "ym2612"
    },
    {
      "channel": 2,
      "note": 65,
      "start": 19.7686,
      "duration": 0.0061,
      "velocity": 106,
      "chip": "ym2612"
    },
    {
      "channel": 3,
      "note": 70,
      "start": 19.7688,
      "duration": 0.006,
      "velocity": 106,
      "chip": "ym2612"
    },
    {
      "channel": 0,
      "note": 51,
      "start": 19.7779,
      "duration": 0.0272,
      "velocity": 113,
      "chip": "ym2612"
    },
    {
      "channel": 1,
      "note": 94,
      "start": 19.7795,
      "duration": 0.0233,
      "velocity": 96,
      "chip": "ym2612"
    },
    {
      "channel": 2,
      "note": 65,
      "start": 19.7798,
      "duration": 0.0062,
      "velocity": 106,
      "chip": "ym2612"
    },
    {
      "channel": 3,
      "note": 70,
      "start": 19.78,
      "duration": 0.0061,
      "velocity": 106,
      "chip": "ym2612"
    },
    {
      "channel": 4,
      "note": 67,
      "start": 19.7804,
      "duration": 0.0164,
      "velocity": 106,
      "chip": "ym2612"
    },
    {
      "channel": 2,
      "note": 65,
      "start": 19.7966,
      "duration": 0.0063,
      "velocity": 106,
      "chip": "ym2612"
    },
    {
      "channel": 3,
      "note": 70,
      "start": 19.7968,
      "duration": 0.0061,
      "velocity": 106,
      "chip": "ym2612"
    },
    {
      "channel": 4,
      "note": 67,
      "start": 19.7999,
      "duration": 0.0095,
      "velocity": 106,
      "chip": "ym2612"
    },
    {
      "channel": 0,
      "note": 58,
      "start": 19.8054,
      "duration": 0.2874,
      "velocity": 113,
      "chip": "ym2612"
    },
    {
      "channel": 1,
      "note": 106,
      "start": 19.8056,
      "duration": 0.7141,
      "velocity": 96,
      "chip": "ym2612"
    },
    {
      "channel": 3,
      "note": 50,
      "start": 19.8072,
      "duration": 0.7098,
      "velocity": 106,
      "chip": "ym2612"
    },
    {
      "channel": 4,
      "note": 46,
      "start": 19.8096,
      "duration": 0.7075,
      "velocity": 106,
      "chip": "ym2612"
    },
    {
      "channel": 2,
      "note": 106,
      "start": 20.0276,
      "duration": 0.6835,
      "velocity": 96,
      "chip": "ym2612"
    },
    {
      "channel": 0,
      "note": 58,
      "start": 20.2935,
      "duration": 0.0285,
      "velocity": 113,
      "chip": "ym2612"
    },
    {
      "channel": 0,
      "note": 58,
      "start": 20.5119,
      "duration": 0.0178,
      "velocity": 113,
      "chip": "ym2612"
    },
    {
      "channel": 1,
      "note": 106,
      "start": 20.5197,
      "duration": 0.1877,
      "velocity": 96,
      "chip": "ym2612"
    },
    {
      "channel": 3,
      "note": 51,
      "start": 20.5201,
      "duration": 0.6746,
      "velocity": 106,
      "chip": "ym2612"
    },
    {
      "channel": 4,
      "note": 48,
      "start": 20.5203,
      "duration": 0.6745,
      "velocity": 106,
      "chip": "ym2612"
    },
    {
      "channel": 0,
      "note": 60,
      "start": 20.7004,
      "duration": 0.0103,
      "velocity": 113,
      "chip": "ym2612"
    },
    {
      "channel": 1,
      "note": 106,
      "start": 20.7075,
      "duration": 0.0201,
      "velocity": 96,
      "chip": "ym2612"
    },
    {
      "channel": 0,
      "note": 60,
      "start": 20.7108,
      "duration": 0.2194,
      "velocity": 113,
      "chip": "ym2612"
    },
    {
      "channel": 2,
      "note": 106,
      "start": 20.7111,
      "duration": 0.2022,
      "velocity": 96,
      "chip": "ym2612"
    },
    {
      "channel": 1,
      "note": 103,
      "start": 20.7612,
      "duration": 0.1634,
      "velocity": 96,
      "chip": "ym2612"
    },
    {
      "channel": 2,
      "note": 106,
      "start": 20.9133,
      "duration": 0.0114,
      "velocity": 96,
      "chip": "ym2612"
    },
    {
      "channel": 1,
      "note": 104,
      "start": 20.9287,
      "duration": 0.0083,
      "velocity": 96,
      "chip": "ym2612"
    },
    {
      "channel": 2,
      "note": 103,
      "start": 20.9289,
      "duration": 0.1655,
      "velocity": 96,
      "chip": "ym2612"
    },
    {
      "channel": 0,
      "note": 60,
      "start": 20.9304,
      "duration": 0.0095,
      "velocity": 113,
      "chip": "ym2612"
    },
    {
      "channel": 0,
      "note": 56,
      "start": 20.9401,
      "duration": 0.1873,
      "velocity": 113,
      "chip": "ym2612"
    },
    {
      "channel": 1,
      "note": 106,
      "start": 20.9608,
      "duration": 0.0832,
      "velocity": 96,
      "chip": "ym2612"
    },
    {
      "channel": 1,
      "note": 104,
      "start": 21.0944,
      "duration": 0.0831,
      "velocity": 96,
      "chip": "ym2612"
    },
    {
      "channel": 0,
      "note": 51,
      "start": 21.1277,
      "duration": 0.1,
      "velocity": 113,
      "chip": "ym2612"
    },
    {
      "channel": 2,
      "note": 104,
      "start": 21.1292,
      "duration": 0.0818,
      "velocity": 96,
      "chip": "ym2612"
    },
    {
      "channel": 0,
      "note": 56,
      "start": 21.2279,
      "duration": 0.2871,
      "velocity": 113,
      "chip": "ym2612"
    },
    {
      "channel": 1,
      "note": 103,
      "start": 21.2292,
      "duration": 0.1857,
      "velocity": 96,
      "chip": "ym2612"
    },
    {
      "channel": 3,
      "note": 48,
      "start": 21.2294,
      "duration": 0.7075,
      "velocity": 106,
      "chip": "ym2612"
    },
    {
      "channel": 4,
      "note": 44,
      "start": 21.2296,
      "duration": 0.7074,
      "velocity": 106,
      "chip": "ym2612"
    },
    {
      "channel": 2,
      "note": 106,
      "start": 21.2324,
      "duration": 0.0158,
      "velocity": 96,
      "chip": "ym2612"
    },
    {
      "channel": 2,
      "note": 104,
      "start": 21.3153,
      "duration": 0.0832,
      "velocity": 96,
      "chip": "ym2612"
    },
    {
      "channel": 2,
      "note": 103,
      "start": 21.4332,
      "duration": 0.2674,
      "velocity": 96,
      "chip": "ym2612"
    },
    {
      "channel": 1,
      "note": 99,
      "start": 21.5654,
      "duration": 0.1471,
      "velocity": 96,
      "chip": "ym2612"
    },
    {
      "channel": 0,
      "note": 56,
      "start": 21.699,
      "duration": 0.031,
      "velocity": 113,
      "chip": "ym2612"
    },
    {
      "channel": 2,
      "note": 99,
      "start": 21.7155,
      "duration": 0.1817,
      "velocity": 96,
      "chip": "ym2612"
    },
    {
      "channel": 1,
      "note": 94,
      "start": 21.7306,
      "duration": 0.6115,
      "velocity": 96,
      "chip": "ym2612"
    },
    {
      "channel": 0,
      "note": 56,
      "start": 21.9323,
      "duration": 0.0183,
      "velocity": 113,
      "chip": "ym2612"
    },
    {
      "channel": 3,
      "note": 50,
      "start": 21.9391,
      "duration": 0.601,
      "velocity": 106,
      "chip": "ym2612"
    },
    {
      "channel": 4,
      "note": 46,
      "start": 21.9393,
      "duration": 0.6008,
      "velocity": 106,
      "chip": "ym2612"
    },
    {
      "channel": 2,
      "note": 94,
      "start": 21.9512,
      "duration": 0.591,
      "velocity": 96,
      "chip": "ym2612"
    },
    {
      "channel": 0,
      "note": 58,
      "start": 22.1195,
      "duration": 0.0105,
      "velocity": 113,
      "chip": "ym2612"
    },
    {
      "channel": 0,
      "note": 58,
      "start": 22.1302,
      "duration": 0.2046,
      "velocity": 113,
      "chip": "ym2612"
    },
    {
      "channel": 0,
      "note": 58,
      "start": 22.335,
      "duration": 0.0129,
      "velocity": 113,
      "chip": "ym2612"
    },
    {
      "channel": 0,
      "note": 70,
      "start": 22.3483,
      "duration": 0.1834,
      "velocity": 113,
      "chip": "ym2612"
    },
    {
      "channel": 1,
      "note": 94,
      "start": 22.3487,
      "duration": 0.1834,
      "velocity": 96,
      "chip": "ym2612"
    },
    {
      "channel": 0,
      "note": 58,
      "start": 22.532,
      "duration": 0.0097,
      "velocity": 113,
      "chip": "ym2612"
    },
    {
      "channel": 0,
      "note": 58,
      "start": 22.5419,
      "duration": 0.286,
      "velocity": 113,
      "chip": "ym2612"
    },
    {
      "channel": 1,
      "note": 98,
      "start": 22.5421,
      "duration": 0.0856,
      "velocity": 96,
      "chip": "ym2612"
    },
    {
      "channel": 3,
      "note": 50,
      "start": 22.5424,
      "duration": 0.7092,
      "velocity": 106,
      "chip": "ym2612"
    },
    {
      "channel": 4,
      "note": 46,
      "start": 22.5426,
      "duration": 0.709,
      "velocity": 106,
      "chip": "ym2612"
    },
    {
      "channel": 2,
      "note": 94,
      "start": 22.5451,
      "duration": 0.116,
      "velocity": 96,
      "chip": "ym2612"
    },
    {
      "channel": 1,
      "note": 96,
      "start": 22.7448,
      "duration": 0.1835,
      "velocity": 96,
      "chip": "ym2612"
    },
    {
      "channel": 2,
      "note": 98,
      "start": 22.7619,
      "duration": 0.183,
      "velocity": 96,
      "chip": "ym2612"
    },
    {
      "channel": 0,
      "note": 58,
      "start": 23.0286,
      "duration": 0.0312,
      "velocity": 113,
      "chip": "ym2612"
    },
    {
      "channel": 1,
      "note": 98,
      "start": 23.0288,
      "duration": 0.0176,
      "velocity": 96,
      "chip": "ym2612"
    },
    {
      "channel": 2,
      "note": 96,
      "start": 23.0318,
      "duration": 0.0174,
      "velocity": 96,
      "chip": "ym2612"
    },
    {
      "channel": 1,
      "note": 99,
      "start": 23.0603,
      "duration": 0.2861,
      "velocity": 96,
      "chip": "ym2612"
    },
    {
      "channel": 2,
      "note": 98,
      "start": 23.0769,
      "duration": 0.1684,
      "velocity": 96,
      "chip": "ym2612"
    },
    {
      "channel": 0,
      "note": 58,
      "start": 23.2469,
      "duration": 0.0159,
      "velocity": 113,
      "chip": "ym2612"
    },
    {
      "channel": 3,
      "note": 51,
      "start": 23.253,
      "duration": 0.6848,
      "velocity": 106,
      "chip": "ym2612"
    },
    {
      "channel": 4,
      "note": 48,
      "start": 23.2532,
      "duration": 0.6848,
      "velocity": 106,
      "chip": "ym2612"
    },
    {
      "channel": 2,
      "note": 99,
      "start": 23.2636,
      "duration": 0.21,
      "velocity": 96,
      "chip": "ym2612"
    },
    {
      "channel": 0,
      "note": 60,
      "start": 23.4483,
      "duration": 0.0087,
      "velocity": 113,
      "chip": "ym2612"
    },
    {
      "channel": 0,
      "note": 60,
      "start": 23.4572,
      "duration": 0.2164,
      "velocity": 113,
      "chip": "ym2612"
    },
    {
      "channel": 0,
      "note": 60,
      "start": 23.6737,
      "duration": 0.0069,
      "velocity": 113,
      "chip": "ym2612"
    },
    {
      "channel": 0,
      "note": 56,
      "start": 23.6808,
      "duration": 0.1901,
      "velocity": 113,
      "chip": "ym2612"
    },
    {
      "channel": 1,
      "note": 94,
      "start": 23.681,
      "duration": 0.1732,
      "velocity": 96,
      "chip": "ym2612"
    },
    {
      "channel": 0,
      "note": 51,
      "start": 23.8711,
      "duration": 0.1,
      "velocity": 113,
      "chip": "ym2612"
    },
    {
      "channel": 0,
      "note": 56,
      "start": 23.9714,
      "duration": 0.2871,
      "velocity": 113,
      "chip": "ym2612"
    },
    {
      "channel": 1,
      "note": 92,
      "start": 23.9716,
      "duration": 0.0866,
      "velocity": 96,
      "chip": "ym2612"
    },
    {
      "channel": 3,
      "note": 48,
      "start": 23.9718,
      "duration": 0.7697,
      "velocity": 106,
      "chip": "ym2612"
    },
    {
      "channel": 4,
      "note": 44,
      "start": 23.972,
      "duration": 0.7697,
      "velocity": 106,
      "chip": "ym2612"
    },
    {
      "channel": 2,
      "note": 94,
      "start": 23.9734,
      "duration": 0.1016,
      "velocity": 96,
      "chip": "ym2612"
    },
    {
      "channel": 1,
      "note": 91,
      "start": 24.1587,
      "duration": 0.1834,
      "velocity": 96,
      "chip": "ym2612"
    },
    {
      "channel": 2,
      "note": 92,
      "start": 24.1924,
      "duration": 0.1829,
      "velocity": 96,
      "chip": "ym2612"
    },
    {
      "channel": 0,
      "note": 56,
      "start": 24.4591,
      "duration": 0.0268,
      "velocity": 113,
      "chip": "ym2612"
    },
    {
      "channel": 1,
      "note": 92,
      "start": 24.4594,
      "duration": 0.0175,
      "velocity": 96,
      "chip": "ym2612"
    },
    {
      "channel": 2,
      "note": 91,
      "start": 24.4611,
      "duration": 0.0172,
      "velocity": 96,
      "chip": "ym2612"
    },
    {
      "channel": 1,
      "note": 94,
      "start": 24.4863,
      "duration": 0.7139,
      "velocity": 96,
      "chip": "ym2612"
    },
    {
      "channel": 2,
      "note": 92,
      "start": 24.5081,
      "duration": 0.1836,
      "velocity": 96,
      "chip": "ym2612"
    },
    {
      "channel": 0,
      "note": 56,
      "start": 24.6915,
      "duration": 0.0852,
      "velocity": 113,
      "chip": "ym2612"
    },
    {
      "channel": 3,
      "note": 50,
      "start": 24.7752,
      "duration": 0.453,
      "velocity": 106,
      "chip": "ym2612"
    },
    {
      "channel": 4,
      "note": 46,
      "start": 24.7755,
      "duration": 0.4528,
      "velocity": 106,
      "chip": "ym2612"
    },
    {
      "channel": 2,
      "note": 94,
      "start": 24.777,
      "duration": 0.4538,
      "velocity": 96,
      "chip": "ym2612"
    },
    {
      "channel": 0,
      "note": 58,
      "start": 24.8955,
      "duration": 0.1001,
      "velocity": 113,
      "chip": "ym2612"
    },
    {
      "channel": 0,
      "note": 58,
      "start": 24.9959,
      "duration": 0.1955,
      "velocity": 113,
      "chip": "ym2612"
    },
    {
      "channel": 0,
      "note": 58,
      "start": 25.1916,
      "duration": 0.0099,
      "velocity": 113,
      "chip": "ym2612"
    },
    {
      "channel": 0,
      "note": 70,
      "start": 25.2018,
      "duration": 0.0198,
      "velocity": 113,
      "chip": "ym2612"
    },
    {
      "channel": 1,
      "note": 94,
      "start": 25.2021,
      "duration": 0.026,
      "velocity": 96,
      "chip": "ym2612"
    },
    {
      "channel": 0,
      "note": 58,
      "start": 25.2217,
      "duration": 0.0084,
      "velocity": 113,
      "chip": "ym2612"
    },
    {
      "channel": 0,
      "note": 58,
      "start": 25.2305,
      "duration": 0.3041,
      "velocity": 113,
      "chip": "ym2612"
    },
    {
      "channel": 1,
      "note": 106,
      "start": 25.2307,
      "duration": 0.714,
      "velocity": 96,
      "chip": "ym2612"
    },
    {
      "channel": 3,
      "note": 50,
      "start": 25.2311,
      "duration": 0.7118,
      "velocity": 106,
      "chip": "ym2612"
    },
    {
      "channel": 4,
      "note": 46,
      "start": 25.2313,
      "duration": 0.7118,
      "velocity": 106,
      "chip": "ym2612"
    },
    {
      "channel": 2,
      "note": 94,
      "start": 25.2346,
      "duration": 0.2001,
      "velocity": 96,
      "chip": "ym2612"
    },
    {
      "channel": 2,
      "note": 106,
      "start": 25.4516,
      "duration": 0.6998,
      "velocity": 96,
      "chip": "ym2612"
    },
    {
      "channel": 0,
      "note": 58,
      "start": 25.7185,
      "duration": 0.032,
      "velocity": 113,
      "chip": "ym2612"
    },
    {
      "channel": 0,
      "note": 58,
      "start": 25.9378,
      "duration": 0.0335,
      "velocity": 113,
      "chip": "ym2612"
    },
    {
      "channel": 1,
      "note": 106,
      "start": 25.9447,
      "duration": 0.2046,
      "velocity": 96,
      "chip": "ym2612"
    },
    {
      "channel": 3,
      "note": 51,
      "start": 25.9451,
      "duration": 0.691,
      "velocity": 106,
      "chip": "ym2612"
    },
    {
      "channel": 4,
      "note": 48,
      "start": 25.9454,
      "duration": 0.691,
      "velocity": 106,
      "chip": "ym2612"
    },
    {
      "channel": 0,
      "note": 60,
      "start": 26.1403,
      "duration": 0.0107,
      "velocity": 113,
      "chip": "ym2612"
    },
    {
      "channel": 1,
      "note": 106,
      "start": 26.1493,
      "duration": 0.0203,
      "velocity": 96,
      "chip": "ym2612"
    },
    {
      "channel": 0,
      "note": 60,
      "start": 26.1512,
      "duration": 0.206,
      "velocity": 113,
      "chip": "ym2612"
    },
    {
      "channel": 2,
      "note": 106,
      "start": 26.1514,
      "duration": 0.1891,
      "velocity": 96,
      "chip": "ym2612"
    },
    {
      "channel": 1,
      "note": 103,
      "start": 26.1866,
      "duration": 0.1651,
      "velocity": 96,
      "chip": "ym2612"
    },
    {
      "channel": 2,
      "note": 106,
      "start": 26.3405,
      "duration": 0.0113,
      "velocity": 96,
      "chip": "ym2612"
    },
    {
      "channel": 1,
      "note": 104,
      "start": 26.3544,
      "duration": 0.0082,
      "velocity": 96,
      "chip": "ym2612"
    },
    {
      "channel": 2,
      "note": 103,
      "start": 26.3546,
      "duration": 0.1817,
      "velocity": 96,
      "chip": "ym2612"
    },
    {
      "channel": 0,
      "note": 60,
      "start": 26.3574,
      "duration": 0.0116,
      "velocity": 113,
      "chip": "ym2612"
    },
    {
      "channel": 0,
      "note": 56,
      "start": 26.3693,
      "duration": 0.1833,
      "velocity": 113,
      "chip": "ym2612"
    },
    {
      "channel": 1,
      "note": 106,
      "start": 26.386,
      "duration": 0.0832,
      "velocity": 96,
      "chip": "ym2612"
    },
    {
      "channel": 1,
      "note": 104,
      "start": 26.5362,
      "duration": 0.0832,
      "velocity": 96,
      "chip": "ym2612"
    },
    {
      "channel": 0,
      "note": 51,
      "start": 26.5528,
      "duration": 0.1002,
      "velocity": 113,
      "chip": "ym2612"
    },
    {
      "channel": 2,
      "note": 104,
      "start": 26.5544,
      "duration": 0.0817,
      "velocity": 96,
      "chip": "ym2612"
    },
    {
      "channel": 0,
      "note": 56,
      "start": 26.6533,
      "duration": 0.2869,
      "velocity": 113,
      "chip": "ym2612"
    },
    {
      "channel": 1,
      "note": 103,
      "start": 26.6546,
      "duration": 0.1856,
      "velocity": 96,
      "chip": "ym2612"
    },
    {
      "channel": 3,
      "note": 48,
      "start": 26.6549,
      "duration": 0.7064,
      "velocity": 106,
      "chip": "ym2612"
    },
    {
      "channel": 4,
      "note": 44,
      "start": 26.655,
      "duration": 0.7063,
      "velocity": 106,
      "chip": "ym2612"
    },
    {
      "channel": 2,
      "note": 106,
      "start": 26.6592,
      "duration": 0.0311,
      "velocity": 96,
      "chip": "ym2612"
    },
    {
      "channel": 2,
      "note": 104,
      "start": 26.7572,
      "duration": 0.0831,
      "velocity": 96,
      "chip": "ym2612"
    },
    {
      "channel": 2,
      "note": 103,
      "start": 26.8749,
      "duration": 0.2678,
      "velocity": 96,
      "chip": "ym2612"
    },
    {
      "channel": 1,
      "note": 99,
      "start": 26.9907,
      "duration": 0.1623,
      "velocity": 96,
      "chip": "ym2612"
    },
    {
      "channel": 0,
      "note": 56,
      "start": 27.141,
      "duration": 0.0246,
      "velocity": 113,
      "chip": "ym2612"
    },
    {
      "channel": 2,
      "note": 99,
      "start": 27.1556,
      "duration": 0.1662,
      "velocity": 96,
      "chip": "ym2612"
    },
    {
      "channel": 1,
      "note": 94,
      "start": 27.1658,
      "duration": 0.6323,
      "velocity": 96,
      "chip": "ym2612"
    },
    {
      "channel": 0,
      "note": 56,
      "start": 27.3583,
      "duration": 0.0169,
      "velocity": 113,
      "chip": "ym2612"
    },
    {
      "channel": 3,
      "note": 50,
      "start": 27.3651,
      "duration": 0.6287,
      "velocity": 106,
      "chip": "ym2612"
    },
    {
      "channel": 4,
      "note": 46,
      "start": 27.3653,
      "duration": 0.6286,
      "velocity": 106,
      "chip": "ym2612"
    },
    {
      "channel": 2,
      "note": 94,
      "start": 27.3759,
      "duration": 0.6227,
      "velocity": 96,
      "chip": "ym2612"
    },
    {
      "channel": 0,
      "note": 58,
      "start": 27.5609,
      "duration": 0.0099,
      "velocity": 113,
      "chip": "ym2612"
    },
    {
      "channel": 0,
      "note": 58,
      "start": 27.571,
      "duration": 0.2185,
      "velocity": 113,
      "chip": "ym2612"
    },
    {
      "channel": 0,
      "note": 58,
      "start": 27.7897,
      "duration": 0.0098,
      "velocity": 113,
      "chip": "ym2612"
    },
    {
      "channel": 0,
      "note": 70,
      "start": 27.7996,
      "duration": 0.1881,
      "velocity": 113,
      "chip": "ym2612"
    },
    {
      "channel": 1,
      "note": 94,
      "start": 27.7999,
      "duration": 0.1712,
      "velocity": 96,
      "chip": "ym2612"
    },
    {
      "channel": 0,
      "note": 58,
      "start": 27.9881,
      "duration": 0.01,
      "velocity": 113,
      "chip": "ym2612"
    },
    {
      "channel": 0,
      "note": 55,
      "start": 27.9983,
      "duration": 0.1861,
      "velocity": 113,
      "chip": "ym2612"
    },
    {
      "channel": 1,
      "note": 98,
      "start": 27.9986,
      "duration": 0.0858,
      "velocity": 96,
      "chip": "ym2612"
    },
    {
      "channel": 2,
      "note": 94,
      "start": 28.0015,
      "duration": 0.0997,
      "velocity": 96,
      "chip": "ym2612"
    },
    {
      "channel": 1,
      "note": 96,
      "start": 28.1849,
      "duration": 0.1832,
      "velocity": 96,
      "chip": "ym2612"
    },
    {
      "channel": 3,
      "note": 58,
      "start": 28.1854,
      "duration": 0.1996,
      "velocity": 106,
      "chip": "ym2612"
    },
    {
      "channel": 4,
      "note": 55,
      "start": 28.1868,
      "duration": 0.1984,
      "velocity": 106,
      "chip": "ym2612"
    },
    {
      "channel": 2,
      "note": 98,
      "start": 28.2183,
      "duration": 0.1834,
      "velocity": 96,
      "chip": "ym2612"
    },
    {
      "channel": 3,
      "note": 58,
      "start": 28.4023,
      "duration": 0.0946,
      "velocity": 106,
      "chip": "ym2612"
    },
    {
      "channel": 4,
      "note": 55,
      "start": 28.4029,
      "duration": 0.0941,
      "velocity": 106,
      "chip": "ym2612"
    },
    {
      "channel": 0,
      "note": 55,
      "start": 28.4853,
      "duration": 0.214,
      "velocity": 113,
      "chip": "ym2612"
    },
    {
      "channel": 1,
      "note": 98,
      "start": 28.4855,
      "duration": 0.0164,
      "velocity": 96,
      "chip": "ym2612"
    },
    {
      "channel": 2,
      "note": 96,
      "start": 28.4871,
      "duration": 0.016,
      "velocity": 96,
      "chip": "ym2612"
    },
    {
      "channel": 1,
      "note": 99,
      "start": 28.509,
      "duration": 0.2768,
      "velocity": 96,
      "chip": "ym2612"
    },
    {
      "channel": 3,
      "note": 58,
      "start": 28.5094,
      "duration": 0.1904,
      "velocity": 106,
      "chip": "ym2612"
    },
    {
      "channel": 4,
      "note": 55,
      "start": 28.5098,
      "duration": 0.19,
      "velocity": 106,
      "chip": "ym2612"
    },
    {
      "channel": 2,
      "note": 98,
      "start": 28.5327,
      "duration": 0.1684,
      "velocity": 96,
      "chip": "ym2612"
    },
    {
      "channel": 0,
      "note": 55,
      "start": 28.6995,
      "duration": 0.1699,
      "velocity": 113,
      "chip": "ym2612"
    },
    {
      "channel": 3,
      "note": 58,
      "start": 28.7015,
      "duration": 0.1179,
      "velocity": 106,
      "chip": "ym2612"
    },
    {
      "channel": 4,
      "note": 55,
      "start": 28.7019,
      "duration": 0.1177,
      "velocity": 106,
      "chip": "ym2612"
    },
    {
      "channel": 2,
      "note": 99,
      "start": 28.7195,
      "duration": 0.1962,
      "velocity": 96,
      "chip": "ym2612"
    },
    {
      "channel": 0,
      "note": 56,
      "start": 28.8863,
      "duration": 0.009,
      "velocity": 113,
      "chip": "ym2612"
    },
    {
      "channel": 0,
      "note": 56,
      "start": 28.8955,
      "duration": 0.0868,
      "velocity": 113,
      "chip": "ym2612"
    },
    {
      "channel": 1,
      "note": 94,
      "start": 28.8958,
      "duration": 0.4852,
      "velocity": 96,
      "chip": "ym2612"
    },
    {
      "channel": 3,
      "note": 60,
      "start": 28.8963,
      "duration": 0.1029,
      "velocity": 106,
      "chip": "ym2612"
    },
    {
      "channel": 4,
      "note": 56,
      "start": 28.8967,
      "duration": 0.1027,
      "velocity": 106,
      "chip": "ym2612"
    },
    {
      "channel": 3,
      "note": 60,
      "start": 29.0166,
      "duration": 0.0796,
      "velocity": 106,
      "chip": "ym2612"
    },
    {
      "channel": 4,
      "note": 56,
      "start": 29.0172,
      "duration": 0.0791,
      "velocity": 106,
      "chip": "ym2612"
    },
    {
      "channel": 0,
      "note": 56,
      "start": 29.0828,
      "duration": 0.0173,
      "velocity": 113,
      "chip": "ym2612"
    },
    {
      "channel": 2,
      "note": 94,
      "start": 29.0862,
      "duration": 0.5159,
      "velocity": 96,
      "chip": "ym2612"
    },
    {
      "channel": 0,
      "note": 56,
      "start": 29.1142,
      "duration": 0.1834,
      "velocity": 113,
      "chip": "ym2612"
    },
    {
      "channel": 3,
      "note": 60,
      "start": 29.1151,
      "duration": 0.1995,
      "velocity": 106,
      "chip": "ym2612"
    },
    {
      "channel": 4,
      "note": 56,
      "start": 29.1157,
      "duration": 0.1991,
      "velocity": 106,
      "chip": "ym2612"
    },
    {
      "channel": 3,
      "note": 60,
      "start": 29.3318,
      "duration": 0.1036,
      "velocity": 106,
      "chip": "ym2612"
    },
    {
      "channel": 4,
      "note": 56,
      "start": 29.3323,
      "duration": 0.1032,
      "velocity": 106,
      "chip": "ym2612"
    },
    {
      "channel": 0,
      "note": 56,
      "start": 29.398,
      "duration": 0.449,
      "velocity": 113,
      "chip": "ym2612"
    },
    {
      "channel": 1,
      "note": 106,
      "start": 29.3983,
      "duration": 0.4761,
      "velocity": 96,
      "chip": "ym2612"
    },
    {
      "channel": 3,
      "note": 63,
      "start": 29.6028,
      "duration": 0.1831,
      "velocity": 106,
      "chip": "ym2612"
    },
    {
      "channel": 4,
      "note": 60,
      "start": 29.6034,
      "duration": 0.1827,
      "velocity": 106,
      "chip": "ym2612"
    },
    {
      "channel": 2,
      "note": 106,
      "start": 29.6191,
      "duration": 0.2854,
      "velocity": 96,
      "chip": "ym2612"
    },
    {
      "channel": 3,
      "note": 63,
      "start": 29.7892,
      "duration": 0.0227,
      "velocity": 106,
      "chip": "ym2612"
    },
    {
      "channel": 4,
      "note": 60,
      "start": 29.7897,
      "duration": 0.0223,
      "velocity": 106,
      "chip": "ym2612"
    },
    {
      "channel": 3,
      "note": 63,
      "start": 29.8269,
      "duration": 0.0376,
      "velocity": 106,
      "chip": "ym2612"
    },
    {
      "channel": 4,
      "note": 60,
      "start": 29.8275,
      "duration": 0.037,
      "velocity": 106,
      "chip": "ym2612"
    },
    {
      "channel": 0,
      "note": 56,
      "start": 29.8641,
      "duration": 0.0097,
      "velocity": 113,
      "chip": "ym2612"
    },
    {
      "channel": 3,
      "note": 63,
      "start": 29.8673,
      "duration": 0.0192,
      "velocity": 106,
      "chip": "ym2612"
    },
    {
      "channel": 4,
      "note": 60,
      "start": 29.8678,
      "duration": 0.0188,
      "velocity": 106,
      "chip": "ym2612"
    },
    {
      "channel": 0,
      "note": 56,
      "start": 29.8741,
      "duration": 0.037,
      "velocity": 113,
      "chip": "ym2612"
    },
    {
      "channel": 1,
      "note": 106,
      "start": 29.8743,
      "duration": 0.1306,
      "velocity": 96,
      "chip": "ym2612"
    },
    {
      "channel": 3,
      "note": 63,
      "start": 29.9026,
      "duration": 0.0366,
      "velocity": 106,
      "chip": "ym2612"
    },
    {
      "channel": 4,
      "note": 60,
      "start": 29.903,
      "duration": 0.0363,
      "velocity": 106,
      "chip": "ym2612"
    },
    {
      "channel": 2,
      "note": 106,
      "start": 29.9044,
      "duration": 0.1056,
      "velocity": 96,
      "chip": "ym2612"
    },
    {
      "channel": 3,
      "note": 63,
      "start": 29.9426,
      "duration": 0.0203,
      "velocity": 106,
      "chip": "ym2612"
    },
    {
      "channel": 4,
      "note": 60,
      "start": 29.943,
      "duration": 0.02,
      "velocity": 106,
      "chip": "ym2612"
    },
    {
      "channel": 0,
      "note": 56,
      "start": 29.9497,
      "duration": 0.0371,
      "velocity": 113,
      "chip": "ym2612"
    },
    {
      "channel": 3,
      "note": 63,
      "start": 29.9788,
      "duration": 0.0183,
      "velocity": 106,
      "chip": "ym2612"
    },
    {
      "channel": 4,
      "note": 60,
      "start": 29.9792,
      "duration": 0.0179,
      "velocity": 106,
      "chip": "ym2612"
    },
    {
      "channel": 3,
      "note": 63,
      "start": 29.9999,
      "duration": 0.0113,
      "velocity": 118,
      "chip": "ym2612"
    },
    {
      "channel": 4,
      "note": 60,
      "start": 30.0003,
      "duration": 0.012,
      "velocity": 118,
      "chip": "ym2612"
    },
    {
      "channel": 0,
      "note": 56,
      "start": 30.0076,
      "duration": 0.6516,
      "velocity": 95,
      "chip": "ym2612"
    },
    {
      "channel": 1,
      "note": 69,
      "start": 30.0092,
      "duration": 0.0123,
      "velocity": 106,
      "chip": "ym2612"
    },
    {
      "channel": 4,
      "note": 56,
      "start": 30.0125,
      "duration": 0.0265,
      "velocity": 118,
      "chip": "ym2612"
    },
    {
      "channel": 3,
      "note": 60,
      "start": 30.0143,
      "duration": 0.0292,
      "velocity": 118,
      "chip": "ym2612"
    },
    {
      "channel": 1,
      "note": 70,
      "start": 30.0216,
      "duration": 0.6476,
      "velocity": 106,
      "chip": "ym2612"
    },
    {
      "channel": 2,
      "note": 69,
      "start": 30.0374,
      "duration": 0.0107,
      "velocity": 109,
      "chip": "ym2612"
    },
    {
      "channel": 4,
      "note": 56,
      "start": 30.0391,
      "duration": 0.0094,
      "velocity": 118,
      "chip": "ym2612"
    },
    {
      "channel": 3,
      "note": 60,
      "start": 30.0437,
      "duration": 0.0061,
      "velocity": 118,
      "chip": "ym2612"
    },
    {
      "channel": 2,
      "note": 70,
      "start": 30.0483,
      "duration": 0.7102,
      "velocity": 109,
      "chip": "ym2612"
    },
    {
      "channel": 4,
      "note": 56,
      "start": 30.0527,
      "duration": 0.005,
      "velocity": 118,
      "chip": "ym2612"
    },
    {
      "channel": 3,
      "note": 60,
      "start": 30.0543,
      "duration": 0.0173,
      "velocity": 118,
      "chip": "ym2612"
    },
    {
      "channel": 4,
      "note": 56,
      "start": 30.0723,
      "duration": 0.0662,
      "velocity": 118,
      "chip": "ym2612"
    },
    {
      "channel": 3,
      "note": 60,
      "start": 30.1057,
      "duration": 0.066,
      "velocity": 118,
      "chip": "ym2612"
    },
    {
      "channel": 4,
      "note": 56,
      "start": 30.189,
      "duration": 0.0833,
      "velocity": 118,
      "chip": "ym2612"
    },
    {
      "channel": 3,
      "note": 60,
      "start": 30.2223,
      "duration": 0.0662,
      "velocity": 118,
      "chip": "ym2612"
    },
    {
      "channel": 4,
      "note": 56,
      "start": 30.456,
      "duration": 0.2037,
      "velocity": 118,
      "chip": "ym2612"
    },
    {
      "channel": 3,
      "note": 60,
      "start": 30.4592,
      "duration": 0.2025,
      "velocity": 118,
      "chip": "ym2612"
    },
    {
      "channel": 0,
      "note": 56,
      "start": 30.6592,
      "duration": 0.6303,
      "velocity": 95,
      "chip": "ym2612"
    },
    {
      "channel": 4,
      "note": 56,
      "start": 30.6598,
      "duration": 0.0066,
      "velocity": 118,
      "chip": "ym2612"
    },
    {
      "channel": 3,
      "note": 60,
      "start": 30.6618,
      "duration": 0.0075,
      "velocity": 118,
      "chip": "ym2612"
    },
    {
      "channel": 1,
      "note": 70,
      "start": 30.6692,
      "duration": 0.4727,
      "velocity": 106,
      "chip": "ym2612"
    },
    {
      "channel": 4,
      "note": 56,
      "start": 30.6711,
      "duration": 0.0049,
      "velocity": 118,
      "chip": "ym2612"
    },
    {
      "channel": 3,
      "note": 60,
      "start": 30.6743,
      "duration": 0.0032,
      "velocity": 118,
      "chip": "ym2612"
    },
    {
      "channel": 4,
      "note": 56,
      "start": 30.6779,
      "duration": 0.0081,
      "velocity": 118,
      "chip": "ym2612"
    },
    {
      "channel": 3,
      "note": 60,
      "start": 30.6811,
      "duration": 0.0063,
      "velocity": 118,
      "chip": "ym2612"
    },
    {
      "channel": 4,
      "note": 56,
      "start": 30.7089,
      "duration": 0.0663,
      "velocity": 118,
      "chip": "ym2612"
    },
    {
      "channel": 3,
      "note": 60,
      "start": 30.7256,
      "duration": 0.0829,
      "velocity": 118,
      "chip": "ym2612"
    },
    {
      "channel": 2,
      "note": 70,
      "start": 30.7584,
      "duration": 0.5158,
      "velocity": 109,
      "chip": "ym2612"
    },
    {
      "channel": 4,
      "note": 56,
      "start": 30.976,
      "duration": 0.3141,
      "velocity": 118,
      "chip": "ym2612"
    },
    {
      "channel": 3,
      "note": 60,
      "start": 30.9926,
      "duration": 0.2996,
      "velocity": 118,
      "chip": "ym2612"
    },
    {
      "channel": 1,
      "note": 70,
      "start": 31.1589,
      "duration": 0.1,
      "velocity": 106,
      "chip": "ym2612"
    },
    {
      "channel": 1,
      "note": 72,
      "start": 31.2592,
      "duration": 0.0306,
      "velocity": 106,
      "chip": "ym2612"
    },
    {
      "channel": 2,
      "note": 70,
      "start": 31.2761,
      "duration": 0.0098,
      "velocity": 109,
      "chip": "ym2612"
    },
    {
      "channel": 2,
      "note": 72,
      "start": 31.286,
      "duration": 0.0311,
      "velocity": 109,
      "chip": "ym2612"
    },
    {
      "channel": 0,
      "note": 56,
      "start": 31.2895,
      "duration": 0.8845,
      "velocity": 95,
      "chip": "ym2612"
    },
    {
      "channel": 1,
      "note": 72,
      "start": 31.2898,
      "duration": 0.6671,
      "velocity": 106,
      "chip": "ym2612"
    },
    {
      "channel": 4,
      "note": 56,
      "start": 31.2903,
      "duration": 0.0286,
      "velocity": 118,
      "chip": "ym2612"
    },
    {
      "channel": 3,
      "note": 60,
      "start": 31.2924,
      "duration": 0.0473,
      "velocity": 118,
      "chip": "ym2612"
    },
    {
      "channel": 2,
      "note": 72,
      "start": 31.3171,
      "duration": 0.907,
      "velocity": 109,
      "chip": "ym2612"
    },
    {
      "channel": 4,
      "note": 56,
      "start": 31.319,
      "duration": 0.0545,
      "velocity": 118,
      "chip": "ym2612"
    },
    {
      "channel": 3,
      "note": 60,
      "start": 31.34,
      "duration": 0.0665,
      "velocity": 118,
      "chip": "ym2612"
    },
    {
      "channel": 4,
      "note": 56,
      "start": 31.4238,
      "duration": 0.0497,
      "velocity": 118,
      "chip": "ym2612"
    },
    {
      "channel": 3,
      "note": 60,
      "start": 31.4571,
      "duration": 0.0496,
      "velocity": 118,
      "chip": "ym2612"
    },
    {
      "channel": 4,
      "note": 56,
      "start": 31.5074,
      "duration": 0.0662,
      "velocity": 118,
      "chip": "ym2612"
    },
    {
      "channel": 3,
      "note": 60,
      "start": 31.5239,
      "duration": 0.0829,
      "velocity": 118,
      "chip": "ym2612"
    },
    {
      "channel": 4,
      "note": 56,
      "start": 31.6241,
      "duration": 0.0663,
      "velocity": 118,
      "chip": "ym2612"
    },
    {
      "channel": 3,
      "note": 60,
      "start": 31.6407,
      "duration": 0.0829,
      "velocity": 118,
      "chip": "ym2612"
    },
    {
      "channel": 4,
      "note": 56,
      "start": 31.8912,
      "duration": 0.2837,
      "velocity": 118,
      "chip": "ym2612"
    },
    {
      "channel": 3,
      "note": 60,
      "start": 31.9078,
      "duration": 0.3,
      "velocity": 118,
      "chip": "ym2612"
    },
    {
      "channel": 1,
      "note": 70,
      "start": 31.9906,
      "duration": 0.05,
      "velocity": 106,
      "chip": "ym2612"
    },
    {
      "channel": 1,
      "note": 72,
      "start": 32.0409,
      "duration": 0.0495,
      "velocity": 106,
      "chip": "ym2612"
    },
    {
      "channel": 1,
      "note": 70,
      "start": 32.0907,
      "duration": 0.0498,
      "velocity": 106,
      "chip": "ym2612"
    },
    {
      "channel": 1,
      "note": 67,
      "start": 32.1407,
      "duration": 0.0334,
      "velocity": 106,
      "chip": "ym2612"
    },
    {
      "channel": 0,
      "note": 56,
      "start": 32.174,
      "duration": 0.9745,
      "velocity": 95,
      "chip": "ym2612"
    },
    {
      "channel": 1,
      "note": 70,
      "start": 32.1744,
      "duration": 0.2998,
      "velocity": 106,
      "chip": "ym2612"
    },
    {
      "channel": 4,
      "note": 56,
      "start": 32.1751,
      "duration": 0.0829,
      "velocity": 118,
      "chip": "ym2612"
    },
    {
      "channel": 3,
      "note": 60,
      "start": 32.208,
      "duration": 0.0663,
      "velocity": 118,
      "chip": "ym2612"
    },
    {
      "channel": 2,
      "note": 70,
      "start": 32.2577,
      "duration": 0.0498,
      "velocity": 109,
      "chip": "ym2612"
    },
    {
      "channel": 2,
      "note": 72,
      "start": 32.3078,
      "duration": 0.0498,
      "velocity": 109,
      "chip": "ym2612"
    },
    {
      "channel": 4,
      "note": 56,
      "start": 32.3085,
      "duration": 0.0497,
      "velocity": 118,
      "chip": "ym2612"
    },
    {
      "channel": 3,
      "note": 60,
      "start": 32.3249,
      "duration": 0.0498,
      "velocity": 118,
      "chip": "ym2612"
    },
    {
      "channel": 2,
      "note": 70,
      "start": 32.3579,
      "duration": 0.0498,
      "velocity": 109,
      "chip": "ym2612"
    },
    {
      "channel": 4,
      "note": 56,
      "start": 32.3754,
      "duration": 0.0661,
      "velocity": 118,
      "chip": "ym2612"
    },
    {
      "channel": 2,
      "note": 67,
      "start": 32.4079,
      "duration": 0.0331,
      "velocity": 109,
      "chip": "ym2612"
    },
    {
      "channel": 3,
      "note": 60,
      "start": 32.4085,
      "duration": 0.0661,
      "velocity": 118,
      "chip": "ym2612"
    },
    {
      "channel": 2,
      "note": 70,
      "start": 32.4413,
      "duration": 0.3,
      "velocity": 109,
      "chip": "ym2612"
    },
    {
      "channel": 4,
      "note": 56,
      "start": 32.4917,
      "duration": 0.0831,
      "velocity": 118,
      "chip": "ym2612"
    },
    {
      "channel": 3,
      "note": 60,
      "start": 32.525,
      "duration": 0.0663,
      "velocity": 118,
      "chip": "ym2612"
    },
    {
      "channel": 4,
      "note": 56,
      "start": 32.7586,
      "duration": 0.29,
      "velocity": 118,
      "chip": "ym2612"
    },
    {
      "channel": 3,
      "note": 60,
      "start": 32.7612,
      "duration": 0.3206,
      "velocity": 118,
      "chip": "ym2612"
    },
    {
      "channel": 4,
      "note": 56,
      "start": 33.0489,
      "duration": 0.1004,
      "velocity": 118,
      "chip": "ym2612"
    },
    {
      "channel": 3,
      "note": 60,
      "start": 33.082,
      "duration": 0.0706,
      "velocity": 118,
      "chip": "ym2612"
    },
    {
      "channel": 0,
      "note": 56,
      "start": 33.1488,
      "duration": 0.9753,
      "velocity": 95,
      "chip": "ym2612"
    },
    {
      "channel": 1,
      "note": 69,
      "start": 33.1491,
      "duration": 0.0051,
      "velocity": 106,
      "chip": "ym2612"
    },
    {
      "channel": 4,
      "note": 56,
      "start": 33.1495,
      "duration": 0.2035,
      "velocity": 118,
      "chip": "ym2612"
    },
    {
      "channel": 3,
      "note": 60,
      "start": 33.1527,
      "duration": 0.217,
      "velocity": 118,
      "chip": "ym2612"
    },
    {
      "channel": 1,
      "note": 70,
      "start": 33.1543,
      "duration": 0.9753,
      "velocity": 106,
      "chip": "ym2612"
    },
    {
      "channel": 2,
      "note": 69,
      "start": 33.3195,
      "duration": 0.0498,
      "velocity": 109,
      "chip": "ym2612"
    },
    {
      "channel": 4,
      "note": 56,
      "start": 33.3532,
      "duration": 0.0668,
      "velocity": 118,
      "chip": "ym2612"
    },
    {
      "channel": 2,
      "note": 70,
      "start": 33.3696,
      "duration": 0.8031,
      "velocity": 109,
      "chip": "ym2612"
    },
    {
      "channel": 3,
      "note": 60,
      "start": 33.3699,
      "duration": 0.083,
      "velocity": 118,
      "chip": "ym2612"
    },
    {
      "channel": 4,
      "note": 56,
      "start": 33.4702,
      "duration": 0.0497,
      "velocity": 118,
      "chip": "ym2612"
    },
    {
      "channel": 3,
      "note": 60,
      "start": 33.4868,
      "duration": 0.0496,
      "velocity": 118,
      "chip": "ym2612"
    },
    {
      "channel": 4,
      "note": 56,
      "start": 33.5371,
      "duration": 0.0829,
      "velocity": 118,
      "chip": "ym2612"
    },
    {
      "channel": 3,
      "note": 60,
      "start": 33.5702,
      "duration": 0.0663,
      "velocity": 118,
      "chip": "ym2612"
    },
    {
      "channel": 4,
      "note": 56,
      "start": 33.6705,
      "duration": 0.0663,
      "velocity": 118,
      "chip": "ym2612"
    },
    {
      "channel": 3,
      "note": 60,
      "start": 33.6871,
      "duration": 0.0665,
      "velocity": 118,
      "chip": "ym2612"
    },
    {
      "channel": 4,
      "note": 56,
      "start": 33.9374,
      "duration": 0.1872,
      "velocity": 118,
      "chip": "ym2612"
    },
    {
      "channel": 3,
      "note": 60,
      "start": 33.9392,
      "duration": 0.1891,
      "velocity": 118,
      "chip": "ym2612"
    },
    {
      "channel": 0,
      "note": 56,
      "start": 34.1241,
      "duration": 0.6288,
      "velocity": 95,
      "chip": "ym2612"
    },
    {
      "channel": 4,
      "note": 56,
      "start": 34.1248,
      "duration": 0.0068,
      "velocity": 118,
      "chip": "ym2612"
    },
    {
      "channel": 3,
      "note": 60,
      "start": 34.1285,
      "duration": 0.006,
      "velocity": 118,
      "chip": "ym2612"
    },
    {
      "channel": 1,
      "note": 70,
      "start": 34.1296,
      "duration": 0.6235,
      "velocity": 106,
      "chip": "ym2612"
    },
    {
      "channel": 4,
      "note": 56,
      "start": 34.1361,
      "duration": 0.0043,
      "velocity": 118,
      "chip": "ym2612"
    },
    {
      "channel": 3,
      "note": 60,
      "start": 34.1388,
      "duration": 0.0046,
      "velocity": 118,
      "chip": "ym2612"
    },
    {
      "channel": 4,
      "note": 56,
      "start": 34.1438,
      "duration": 0.0063,
      "velocity": 118,
      "chip": "ym2612"
    },
    {
      "channel": 3,
      "note": 60,
      "start": 34.1455,
      "duration": 0.0105,
      "velocity": 118,
      "chip": "ym2612"
    },
    {
      "channel": 2,
      "note": 70,
      "start": 34.1727,
      "duration": 0.6074,
      "velocity": 109,
      "chip": "ym2612"
    },
    {
      "channel": 4,
      "note": 56,
      "start": 34.1733,
      "duration": 0.0663,
      "velocity": 118,
      "chip": "ym2612"
    },
    {
      "channel": 3,
      "note": 60,
      "start": 34.1898,
      "duration": 0.0829,
      "velocity": 118,
      "chip": "ym2612"
    },
    {
      "channel": 4,
      "note": 56,
      "start": 34.4403,
      "duration": 0.3131,
      "velocity": 118,
      "chip": "ym2612"
    },
    {
      "channel": 3,
      "note": 60,
      "start": 34.4569,
      "duration": 0.2982,
      "velocity": 118,
      "chip": "ym2612"
    },
    {
      "channel": 0,
      "note": 56,
      "start": 34.7528,
      "duration": 0.9009,
      "velocity": 95,
      "chip": "ym2612"
    },
    {
      "channel": 1,
      "note": 70,
      "start": 34.7531,
      "duration": 0.9007,
      "velocity": 106,
      "chip": "ym2612"
    },
    {
      "channel": 4,
      "note": 56,
      "start": 34.7536,
      "duration": 0.0283,
      "velocity": 118,
      "chip": "ym2612"
    },
    {
      "channel": 3,
      "note": 60,
      "start": 34.7553,
      "duration": 0.0475,
      "velocity": 118,
      "chip": "ym2612"
    },
    {
      "channel": 2,
      "note": 70,
      "start": 34.7801,
      "duration": 1.1406,
      "velocity": 109,
      "chip": "ym2612"
    },
    {
      "channel": 4,
      "note": 56,
      "start": 34.7821,
      "duration": 0.0712,
      "velocity": 118,
      "chip": "ym2612"
    },
    {
      "channel": 3,
      "note": 60,
      "start": 34.8031,
      "duration": 0.0665,
      "velocity": 118,
      "chip": "ym2612"
    },
    {
      "channel": 4,
      "note": 56,
      "start": 34.9035,
      "duration": 0.0497,
      "velocity": 118,
      "chip": "ym2612"
    },
    {
      "channel": 3,
      "note": 60,
      "start": 34.9201,
      "duration": 0.0495,
      "velocity": 118,
      "chip": "ym2612"
    },
    {
      "channel": 4,
      "note": 56,
      "start": 34.9704,
      "duration": 0.0662,
      "velocity": 118,
      "chip": "ym2612"
    },
    {
      "channel": 3,
      "note": 60,
      "start": 34.9869,
      "duration": 0.0829,
      "velocity": 118,
      "chip": "ym2612"
    },
    {
      "channel": 4,
      "note": 56,
      "start": 35.0871,
      "duration": 0.083,
      "velocity": 118,
      "chip": "ym2612"
    },
    {
      "channel": 3,
      "note": 60,
      "start": 35.1204,
      "duration": 0.0665,
      "velocity": 118,
      "chip": "ym2612"
    },
    {
      "channel": 4,
      "note": 56,
      "start": 35.3545,
      "duration": 0.2999,
      "velocity": 118,
      "chip": "ym2612"
    },
    {
      "channel": 3,
      "note": 60,
      "start": 35.3875,
      "duration": 0.283,
      "velocity": 118,
      "chip": "ym2612"
    },
    {
      "channel": 0,
      "note": 56,
      "start": 35.6538,
      "duration": 0.585,
      "velocity": 113,
      "chip": "ym2612"
    },
    {
      "channel": 4,
      "note": 56,
      "start": 35.6546,
      "duration": 0.0661,
      "velocity": 118,
      "chip": "ym2612"
    },
    {
      "channel": 3,
      "note": 60,
      "start": 35.6707,
      "duration": 0.0832,
      "velocity": 118,
      "chip": "ym2612"
    },
    {
      "channel": 4,
      "note": 56,
      "start": 35.7712,
      "duration": 0.0497,
      "velocity": 118,
      "chip": "ym2612"
    },
    {
      "channel": 3,
      "note": 60,
      "start": 35.7878,
      "duration": 0.0495,
      "velocity": 118,
      "chip": "ym2612"
    },
    {
      "channel": 4,
      "note": 56,
      "start": 35.8381,
      "duration": 0.0829,
      "velocity": 118,
      "chip": "ym2612"
    },
    {
      "channel": 3,
      "note": 60,
      "start": 35.8713,
      "duration": 0.0664,
      "velocity": 118,
      "chip": "ym2612"
    },
    {
      "channel": 1,
      "note": 66,
      "start": 35.9376,
      "duration": 0.0998,
      "velocity": 106,
      "chip": "ym2612"
    },
    {
      "channel": 4,
      "note": 56,
      "start": 35.9714,
      "duration": 0.0666,
      "velocity": 118,
      "chip": "ym2612"
    },
    {
      "channel": 3,
      "note": 60,
      "start": 35.988,
      "duration": 0.0662,
      "velocity": 118,
      "chip": "ym2612"
    },
    {
      "channel": 1,
      "note": 67,
      "start": 36.0377,
      "duration": 0.1666,
      "velocity": 106,
      "chip": "ym2612"
    },
    {
      "channel": 2,
      "note": 66,
      "start": 36.2048,
      "duration": 0.0412,
      "velocity": 109,
      "chip": "ym2612"
    },
    {
      "channel": 0,
      "note": 56,
      "start": 36.239,
      "duration": 0.0898,
      "velocity": 113,
      "chip": "ym2612"
    },
    {
      "channel": 1,
      "note": 65,
      "start": 36.2393,
      "duration": 0.0049,
      "velocity": 106,
      "chip": "ym2612"
    },
    {
      "channel": 4,
      "note": 56,
      "start": 36.2397,
      "duration": 0.0965,
      "velocity": 118,
      "chip": "ym2612"
    },
    {
      "channel": 3,
      "note": 60,
      "start": 36.2416,
      "duration": 0.1214,
      "velocity": 118,
      "chip": "ym2612"
    },
    {
      "channel": 1,
      "note": 67,
      "start": 36.2443,
      "duration": 0.0032,
      "velocity": 106,
      "chip": "ym2612"
    },
    {
      "channel": 2,
      "note": 67,
      "start": 36.2461,
      "duration": 0.0846,
      "velocity": 109,
      "chip": "ym2612"
    },
    {
      "channel": 1,
      "note": 65,
      "start": 36.2476,
      "duration": 0.0863,
      "velocity": 106,
      "chip": "ym2612"
    },
    {
      "channel": 0,
      "note": 56,
      "start": 36.3289,
      "duration": 0.3006,
      "velocity": 113,
      "chip": "ym2612"
    },
    {
      "channel": 2,
      "note": 65,
      "start": 36.3344,
      "duration": 0.0282,
      "velocity": 109,
      "chip": "ym2612"
    },
    {
      "channel": 1,
      "note": 63,
      "start": 36.3359,
      "duration": 0.2602,
      "velocity": 106,
      "chip": "ym2612"
    },
    {
      "channel": 4,
      "note": 56,
      "start": 36.3363,
      "duration": 0.2941,
      "velocity": 118,
      "chip": "ym2612"
    },
    {
      "channel": 2,
      "note": 67,
      "start": 36.3629,
      "duration": 0.0331,
      "velocity": 109,
      "chip": "ym2612"
    },
    {
      "channel": 3,
      "note": 60,
      "start": 36.3632,
      "duration": 0.2671,
      "velocity": 118,
      "chip": "ym2612"
    },
    {
      "channel": 2,
      "note": 65,
      "start": 36.3962,
      "duration": 0.1833,
      "velocity": 109,
      "chip": "ym2612"
    },
    {
      "channel": 2,
      "note": 63,
      "start": 36.5966,
      "duration": 0.1708,
      "velocity": 109,
      "chip": "ym2612"
    },
    {
      "channel": 0,
      "note": 56,
      "start": 36.6298,
      "duration": 0.3877,
      "velocity": 113,
      "chip": "ym2612"
    },
    {
      "channel": 1,
      "note": 69,
      "start": 36.6301,
      "duration": 0.0085,
      "velocity": 106,
      "chip": "ym2612"
    },
    {
      "channel": 4,
      "note": 56,
      "start": 36.6306,
      "duration": 0.1871,
      "velocity": 118,
      "chip": "ym2612"
    },
    {
      "channel": 3,
      "note": 60,
      "start": 36.6322,
      "duration": 0.202,
      "velocity": 118,
      "chip": "ym2612"
    },
    {
      "channel": 1,
      "note": 70,
      "start": 36.6389,
      "duration": 0.7052,
      "velocity": 106,
      "chip": "ym2612"
    },
    {
      "channel": 2,
      "note": 69,
      "start": 36.801,
      "duration": 0.0832,
      "velocity": 109,
      "chip": "ym2612"
    },
    {
      "channel": 4,
      "note": 56,
      "start": 36.8179,
      "duration": 0.0667,
      "velocity": 118,
      "chip": "ym2612"
    },
    {
      "channel": 3,
      "note": 60,
      "start": 36.8345,
      "duration": 0.0832,
      "velocity": 118,
      "chip": "ym2612"
    },
    {
      "channel": 2,
      "note": 70,
      "start": 36.8844,
      "duration": 0.6665,
      "velocity": 109,
      "chip": "ym2612"
    },
    {
      "channel": 4,
      "note": 56,
      "start": 36.9349,
      "duration": 0.0497,
      "velocity": 118,
      "chip": "ym2612"
    },
    {
      "channel": 3,
      "note": 60,
      "start": 36.9682,
      "duration": 0.0499,
      "velocity": 118,
      "chip": "ym2612"
    },
    {
      "channel": 0,
      "note": 56,
      "start": 37.0178,
      "duration": 0.0195,
      "velocity": 113,
      "chip": "ym2612"
    },
    {
      "channel": 4,
      "note": 56,
      "start": 37.0185,
      "duration": 0.0067,
      "velocity": 118,
      "chip": "ym2612"
    },
    {
      "channel": 3,
      "note": 60,
      "start": 37.0202,
      "duration": 0.0064,
      "velocity": 118,
      "chip": "ym2612"
    },
    {
      "channel": 4,
      "note": 56,
      "start": 37.0298,
      "duration": 0.0062,
      "velocity": 118,
      "chip": "ym2612"
    },
    {
      "channel": 3,
      "note": 60,
      "start": 37.0315,
      "duration": 0.0079,
      "velocity": 118,
      "chip": "ym2612"
    },
    {
      "channel": 0,
      "note": 56,
      "start": 37.0574,
      "duration": 0.1029,
      "velocity": 113,
      "chip": "ym2612"
    },
    {
      "channel": 4,
      "note": 56,
      "start": 37.0581,
      "duration": 0.1862,
      "velocity": 118,
      "chip": "ym2612"
    },
    {
      "channel": 3,
      "note": 60,
      "start": 37.0597,
      "duration": 0.2178,
      "velocity": 118,
      "chip": "ym2612"
    },
    {
      "channel": 4,
      "note": 56,
      "start": 37.2446,
      "duration": 0.0832,
      "velocity": 118,
      "chip": "ym2612"
    },
    {
      "channel": 3,
      "note": 60,
      "start": 37.2777,
      "duration": 0.0666,
      "velocity": 118,
      "chip": "ym2612"
    },
    {
      "channel": 1,
      "note": 70,
      "start": 37.3441,
      "duration": 0.3201,
      "velocity": 106,
      "chip": "ym2612"
    },
    {
      "channel": 4,
      "note": 56,
      "start": 37.3782,
      "duration": 0.0497,
      "velocity": 118,
      "chip": "ym2612"
    },
    {
      "channel": 3,
      "note": 60,
      "start": 37.3948,
      "duration": 0.0496,
      "velocity": 118,
      "chip": "ym2612"
    },
    {
      "channel": 4,
      "note": 56,
      "start": 37.4451,
      "duration": 0.0662,
      "velocity": 118,
      "chip": "ym2612"
    },
    {
      "channel": 3,
      "note": 60,
      "start": 37.4618,
      "duration": 0.083,
      "velocity": 118,
      "chip": "ym2612"
    },
    {
      "channel": 0,
      "note": 56,
      "start": 37.5445,
      "duration": 0.103,
      "velocity": 113,
      "chip": "ym2612"
    },
    {
      "channel": 4,
      "note": 56,
      "start": 37.5464,
      "duration": 0.0086,
      "velocity": 118,
      "chip": "ym2612"
    },
    {
      "channel": 3,
      "note": 60,
      "start": 37.5497,
      "duration": 0.0148,
      "velocity": 118,
      "chip": "ym2612"
    },
    {
      "channel": 2,
      "note": 70,
      "start": 37.551,
      "duration": 0.2006,
      "velocity": 109,
      "chip": "ym2612"
    },
    {
      "channel": 1,
      "note": 71,
      "start": 37.6812,
      "duration": 0.0502,
      "velocity": 106,
      "chip": "ym2612"
    },
    {
      "channel": 0,
      "note": 56,
      "start": 37.7314,
      "duration": 0.3163,
      "velocity": 113,
      "chip": "ym2612"
    },
    {
      "channel": 1,
      "note": 72,
      "start": 37.7316,
      "duration": 0.0262,
      "velocity": 106,
      "chip": "ym2612"
    },
    {
      "channel": 4,
      "note": 56,
      "start": 37.7322,
      "duration": 0.3161,
      "velocity": 118,
      "chip": "ym2612"
    },
    {
      "channel": 3,
      "note": 60,
      "start": 37.7354,
      "duration": 0.3163,
      "velocity": 118,
      "chip": "ym2612"
    },
    {
      "channel": 2,
      "note": 71,
      "start": 37.7532,
      "duration": 0.0048,
      "velocity": 109,
      "chip": "ym2612"
    },
    {
      "channel": 2,
      "note": 72,
      "start": 37.7581,
      "duration": 0.2395,
      "velocity": 109,
      "chip": "ym2612"
    },
    {
      "channel": 1,
      "note": 75,
      "start": 37.7643,
      "duration": 0.7143,
      "velocity": 106,
      "chip": "ym2612"
    },
    {
      "channel": 2,
      "note": 75,
      "start": 38.0312,
      "duration": 0.6167,
      "velocity": 109,
      "chip": "ym2612"
    },
    {
      "channel": 0,
      "note": 56,
      "start": 38.0479,
      "duration": 0.3876,
      "velocity": 113,
      "chip": "ym2612"
    },
    {
      "channel": 4,
      "note": 56,
      "start": 38.0485,
      "duration": 0.2039,
      "velocity": 118,
      "chip": "ym2612"
    },
    {
      "channel": 3,
      "note": 60,
      "start": 38.0518,
      "duration": 0.2171,
      "velocity": 118,
      "chip": "ym2612"
    },
    {
      "channel": 4,
      "note": 56,
      "start": 38.2526,
      "duration": 0.0665,
      "velocity": 118,
      "chip": "ym2612"
    },
    {
      "channel": 3,
      "note": 60,
      "start": 38.2691,
      "duration": 0.0667,
      "velocity": 118,
      "chip": "ym2612"
    },
    {
      "channel": 4,
      "note": 56,
      "start": 38.3696,
      "duration": 0.0497,
      "velocity": 118,
      "chip": "ym2612"
    },
    {
      "channel": 3,
      "note": 60,
      "start": 38.3862,
      "duration": 0.0499,
      "velocity": 118,
      "chip": "ym2612"
    },
    {
      "channel": 0,
      "note": 56,
      "start": 38.4358,
      "duration": 0.0204,
      "velocity": 113,
      "chip": "ym2612"
    },
    {
      "channel": 4,
      "note": 56,
      "start": 38.4365,
      "duration": 0.0085,
      "velocity": 118,
      "chip": "ym2612"
    },
    {
      "channel": 3,
      "note": 60,
      "start": 38.4397,
      "duration": 0.0072,
      "velocity": 118,
      "chip": "ym2612"
    },
    {
      "channel": 4,
      "note": 56,
      "start": 38.4499,
      "duration": 0.0068,
      "velocity": 118,
      "chip": "ym2612"
    },
    {
      "channel": 3,
      "note": 60,
      "start": 38.4517,
      "duration": 0.0065,
      "velocity": 118,
      "chip": "ym2612"
    },
    {
      "channel": 0,
      "note": 56,
      "start": 38.4785,
      "duration": 0.1027,
      "velocity": 113,
      "chip": "ym2612"
    },
    {
      "channel": 4,
      "note": 56,
      "start": 38.4791,
      "duration": 0.1861,
      "velocity": 118,
      "chip": "ym2612"
    },
    {
      "channel": 3,
      "note": 60,
      "start": 38.4805,
      "duration": 0.201,
      "velocity": 118,
      "chip": "ym2612"
    },
    {
      "channel": 1,
      "note": 71,
      "start": 38.6649,
      "duration": 0.05,
      "velocity": 106,
      "chip": "ym2612"
    },
    {
      "channel": 4,
      "note": 56,
      "start": 38.6654,
      "duration": 0.0663,
      "velocity": 118,
      "chip": "ym2612"
    },
    {
      "channel": 3,
      "note": 60,
      "start": 38.6817,
      "duration": 0.0832,
      "velocity": 118,
      "chip": "ym2612"
    },
    {
      "channel": 1,
      "note": 72,
      "start": 38.7152,
      "duration": 0.3201,
      "velocity": 106,
      "chip": "ym2612"
    },
    {
      "channel": 4,
      "note": 56,
      "start": 38.7822,
      "duration": 0.0497,
      "velocity": 118,
      "chip": "ym2612"
    },
    {
      "channel": 3,
      "note": 60,
      "start": 38.8155,
      "duration": 0.0496,
      "velocity": 118,
      "chip": "ym2612"
    },
    {
      "channel": 4,
      "note": 56,
      "start": 38.8658,
      "duration": 0.0665,
      "velocity": 118,
      "chip": "ym2612"
    },
    {
      "channel": 3,
      "note": 60,
      "start": 38.8825,
      "duration": 0.0664,
      "velocity": 118,
      "chip": "ym2612"
    },
    {
      "channel": 2,
      "note": 71,
      "start": 38.9321,
      "duration": 0.0196,
      "velocity": 109,
      "chip": "ym2612"
    },
    {
      "channel": 0,
      "note": 56,
      "start": 38.9486,
      "duration": 0.1033,
      "velocity": 113,
      "chip": "ym2612"
    },
    {
      "channel": 2,
      "note": 72,
      "start": 38.9519,
      "duration": 0.216,
      "velocity": 109,
      "chip": "ym2612"
    },
    {
      "channel": 4,
      "note": 56,
      "start": 38.9522,
      "duration": 0.0072,
      "velocity": 118,
      "chip": "ym2612"
    },
    {
      "channel": 3,
      "note": 60,
      "start": 38.9539,
      "duration": 0.0317,
      "velocity": 118,
      "chip": "ym2612"
    },
    {
      "channel": 1,
      "note": 75,
      "start": 39.0523,
      "duration": 0.1269,
      "velocity": 106,
      "chip": "ym2612"
    },
    {
      "channel": 0,
      "note": 56,
      "start": 39.1525,
      "duration": 0.3164,
      "velocity": 113,
      "chip": "ym2612"
    },
    {
      "channel": 4,
      "note": 56,
      "start": 39.1531,
      "duration": 0.216,
      "velocity": 118,
      "chip": "ym2612"
    },
    {
      "channel": 3,
      "note": 60,
      "start": 39.155,
      "duration": 0.2306,
      "velocity": 118,
      "chip": "ym2612"
    },
    {
      "channel": 2,
      "note": 75,
      "start": 39.1696,
      "duration": 0.2492,
      "velocity": 109,
      "chip": "ym2612"
    },
    {
      "channel": 1,
      "note": 77,
      "start": 39.1806,
      "duration": 0.2547,
      "velocity": 106,
      "chip": "ym2612"
    },
    {
      "channel": 4,
      "note": 56,
      "start": 39.3694,
      "duration": 0.1003,
      "velocity": 118,
      "chip": "ym2612"
    },
    {
      "channel": 3,
      "note": 60,
      "start": 39.3859,
      "duration": 0.0856,
      "velocity": 118,
      "chip": "ym2612"
    },
    {
      "channel": 2,
      "note": 77,
      "start": 39.4359,
      "duration": 0.1707,
      "velocity": 109,
      "chip": "ym2612"
    },
    {
      "channel": 0,
      "note": 56,
      "start": 39.4692,
      "duration": 0.3876,
      "velocity": 113,
      "chip": "ym2612"
    },
    {
      "channel": 1,
      "note": 78,
      "start": 39.4694,
      "duration": 0.0056,
      "velocity": 106,
      "chip": "ym2612"
    },
    {
      "channel": 4,
      "note": 56,
      "start": 39.4699,
      "duration": 0.1871,
      "velocity": 118,
      "chip": "ym2612"
    },
    {
      "channel": 3,
      "note": 60,
      "start": 39.4716,
      "duration": 0.2188,
      "velocity": 118,
      "chip": "ym2612"
    },
    {
      "channel": 1,
      "note": 79,
      "start": 39.4752,
      "duration": 0.3481,
      "velocity": 106,
      "chip": "ym2612"
    },
    {
      "channel": 2,
      "note": 78,
      "start": 39.6403,
      "duration": 0.0498,
      "velocity": 109,
      "chip": "ym2612"
    },
    {
      "channel": 4,
      "note": 56,
      "start": 39.6572,
      "duration": 0.0832,
      "velocity": 118,
      "chip": "ym2612"
    },
    {
      "channel": 2,
      "note": 79,
      "start": 39.6903,
      "duration": 0.1902,
      "velocity": 109,
      "chip": "ym2612"
    },
    {
      "channel": 3,
      "note": 60,
      "start": 39.6906,
      "duration": 0.0666,
      "velocity": 118,
      "chip": "ym2612"
    },
    {
      "channel": 4,
      "note": 56,
      "start": 39.7909,
      "duration": 0.033,
      "velocity": 118,
      "chip": "ym2612"
    },
    {
      "channel": 3,
      "note": 60,
      "start": 39.8075,
      "duration": 0.0501,
      "velocity": 118,
      "chip": "ym2612"
    },
    {
      "channel": 0,
      "note": 56,
      "start": 39.8571,
      "duration": 0.0202,
      "velocity": 113,
      "chip": "ym2612"
    },
    {
      "channel": 1,
      "note": 72,
      "start": 39.8574,
      "duration": 0.0068,
      "velocity": 106,
      "chip": "ym2612"
    },
    {
      "channel": 4,
      "note": 56,
      "start": 39.858,
      "duration": 0.0065,
      "velocity": 118,
      "chip": "ym2612"
    },
    {
      "channel": 3,
      "note": 60,
      "start": 39.8597,
      "duration": 0.0083,
      "velocity": 118,
      "chip": "ym2612"
    },
    {
      "channel": 1,
      "note": 72,
      "start": 39.8678,
      "duration": 0.0065,
      "velocity": 106,
      "chip": "ym2612"
    },
    {
      "channel": 4,
      "note": 56,
      "start": 39.8697,
      "duration": 0.0079,
      "velocity": 118,
      "chip": "ym2612"
    },
    {
      "channel": 3,
      "note": 60,
      "start": 39.8729,
      "duration": 0.0061,
      "velocity": 118,
      "chip": "ym2612"
    },
    {
      "channel": 2,
      "note": 72,
      "start": 39.8827,
      "duration": 0.005,
      "velocity": 109,
      "chip": "ym2612"
    },
    {
      "channel": 2,
      "note": 72,
      "start": 39.8902,
      "duration": 0.0097,
      "velocity": 109,
      "chip": "ym2612"
    },
    {
      "channel": 0,
      "note": 56,
      "start": 39.8941,
      "duration": 0.1031,
      "velocity": 113,
      "chip": "ym2612"
    },
    {
      "channel": 1,
      "note": 78,
      "start": 39.8943,
      "duration": 0.0053,
      "velocity": 106,
      "chip": "ym2612"
    },
    {
      "channel": 4,
      "note": 56,
      "start": 39.8949,
      "duration": 0.203,
      "velocity": 118,
      "chip": "ym2612"
    },
    {
      "channel": 3,
      "note": 60,
      "start": 39.8985,
      "duration": 0.2161,
      "velocity": 118,
      "chip": "ym2612"
    },
    {
      "channel": 1,
      "note": 79,
      "start": 39.8998,
      "duration": 0.3644,
      "velocity": 106,
      "chip": "ym2612"
    },
    {
      "channel": 2,
      "note": 78,
      "start": 40.0644,
      "duration": 0.0498,
      "velocity": 109,
      "chip": "ym2612"
    },
    {
      "channel": 4,
      "note": 56,
      "start": 40.0981,
      "duration": 0.0665,
      "velocity": 118,
      "chip": "ym2612"
    },
    {
      "channel": 2,
      "note": 79,
      "start": 40.1145,
      "duration": 0.3202,
      "velocity": 109,
      "chip": "ym2612"
    },
    {
      "channel": 3,
      "note": 60,
      "start": 40.1148,
      "duration": 0.0663,
      "velocity": 118,
      "chip": "ym2612"
    },
    {
      "channel": 4,
      "note": 56,
      "start": 40.2151,
      "duration": 0.0497,
      "velocity": 118,
      "chip": "ym2612"
    },
    {
      "channel": 3,
      "note": 60,
      "start": 40.2317,
      "duration": 0.0498,
      "velocity": 118,
      "chip": "ym2612"
    },
    {
      "channel": 1,
      "note": 72,
      "start": 40.2812,
      "duration": 0.0665,
      "velocity": 106,
      "chip": "ym2612"
    },
    {
      "channel": 4,
      "note": 56,
      "start": 40.2822,
      "duration": 0.0825,
      "velocity": 118,
      "chip": "ym2612"
    },
    {
      "channel": 3,
      "note": 60,
      "start": 40.3154,
      "duration": 0.0664,
      "velocity": 118,
      "chip": "ym2612"
    },
    {
      "channel": 0,
      "note": 56,
      "start": 40.3814,
      "duration": 0.1032,
      "velocity": 113,
      "chip": "ym2612"
    },
    {
      "channel": 1,
      "note": 72,
      "start": 40.3817,
      "duration": 0.0058,
      "velocity": 106,
      "chip": "ym2612"
    },
    {
      "channel": 4,
      "note": 56,
      "start": 40.3846,
      "duration": 0.0071,
      "velocity": 118,
      "chip": "ym2612"
    },
    {
      "channel": 3,
      "note": 60,
      "start": 40.3863,
      "duration": 0.0151,
      "velocity": 118,
      "chip": "ym2612"
    },
    {
      "channel": 2,
      "note": 72,
      "start": 40.4516,
      "duration": 0.0665,
      "velocity": 109,
      "chip": "ym2612"
    },
    {
      "channel": 2,
      "note": 72,
      "start": 40.5519,
      "duration": 0.0374,
      "velocity": 109,
      "chip": "ym2612"
    },
    {
      "channel": 0,
      "note": 56,
      "start": 40.5851,
      "duration": 0.2991,
      "velocity": 113,
      "chip": "ym2612"
    },
    {
      "channel": 1,
      "note": 78,
      "start": 40.5854,
      "duration": 0.0037,
      "velocity": 106,
      "chip": "ym2612"
    },
    {
      "channel": 4,
      "note": 56,
      "start": 40.5859,
      "duration": 0.2992,
      "velocity": 118,
      "chip": "ym2612"
    },
    {
      "channel": 3,
      "note": 60,
      "start": 40.5879,
      "duration": 0.3008,
      "velocity": 118,
      "chip": "ym2612"
    },
    {
      "channel": 1,
      "note": 79,
      "start": 40.5893,
      "duration": 0.0209,
      "velocity": 106,
      "chip": "ym2612"
    },
    {
      "channel": 2,
      "note": 78,
      "start": 40.6106,
      "duration": 0.0069,
      "velocity": 109,
      "chip": "ym2612"
    },
    {
      "channel": 1,
      "note": 78,
      "start": 40.612,
      "duration": 0.0384,
      "velocity": 106,
      "chip": "ym2612"
    },
    {
      "channel": 2,
      "note": 79,
      "start": 40.6178,
      "duration": 0.2331,
      "velocity": 109,
      "chip": "ym2612"
    },
    {
      "channel": 1,
      "note": 79,
      "start": 40.6507,
      "duration": 0.2167,
      "velocity": 106,
      "chip": "ym2612"
    },
    {
      "channel": 2,
      "note": 78,
      "start": 40.8679,
      "duration": 0.0206,
      "velocity": 109,
      "chip": "ym2612"
    },
    {
      "channel": 0,
      "note": 56,
      "start": 40.8845,
      "duration": 0.2042,
      "velocity": 113,
      "chip": "ym2612"
    },
    {
      "channel": 1,
      "note": 82,
      "start": 40.8847,
      "duration": 0.0537,
      "velocity": 106,
      "chip": "ym2612"
    },
    {
      "channel": 4,
      "note": 56,
      "start": 40.8853,
      "duration": 0.2043,
      "velocity": 118,
      "chip": "ym2612"
    },
    {
      "channel": 2,
      "note": 79,
      "start": 40.8887,
      "duration": 0.15,
      "velocity": 109,
      "chip": "ym2612"
    },
    {
      "channel": 3,
      "note": 60,
      "start": 40.8888,
      "duration": 0.2021,
      "velocity": 118,
      "chip": "ym2612"
    },
    {
      "channel": 2,
      "note": 82,
      "start": 41.0557,
      "duration": 0.0531,
      "velocity": 109,
      "chip": "ym2612"
    },
    {
      "channel": 0,
      "note": 56,
      "start": 41.089,
      "duration": 0.1867,
      "velocity": 113,
      "chip": "ym2612"
    },
    {
      "channel": 1,
      "note": 82,
      "start": 41.0893,
      "duration": 0.1698,
      "velocity": 106,
      "chip": "ym2612"
    },
    {
      "channel": 4,
      "note": 56,
      "start": 41.0897,
      "duration": 0.0061,
      "velocity": 118,
      "chip": "ym2612"
    },
    {
      "channel": 3,
      "note": 60,
      "start": 41.0911,
      "duration": 0.0083,
      "velocity": 118,
      "chip": "ym2612"
    },
    {
      "channel": 4,
      "note": 56,
      "start": 41.1095,
      "duration": 0.0495,
      "velocity": 118,
      "chip": "ym2612"
    },
    {
      "channel": 3,
      "note": 60,
      "start": 41.1427,
      "duration": 0.0495,
      "velocity": 118,
      "chip": "ym2612"
    },
    {
      "channel": 4,
      "note": 56,
      "start": 41.193,
      "duration": 0.0668,
      "velocity": 118,
      "chip": "ym2612"
    },
    {
      "channel": 3,
      "note": 60,
      "start": 41.2095,
      "duration": 0.0669,
      "velocity": 118,
      "chip": "ym2612"
    },
    {
      "channel": 2,
      "note": 82,
      "start": 41.2596,
      "duration": 0.0407,
      "velocity": 109,
      "chip": "ym2612"
    },
    {
      "channel": 1,
      "note": 78,
      "start": 41.2762,
      "duration": 0.0063,
      "velocity": 106,
      "chip": "ym2612"
    },
    {
      "channel": 4,
      "note": 56,
      "start": 41.2812,
      "duration": 0.007,
      "velocity": 118,
      "chip": "ym2612"
    },
    {
      "channel": 1,
      "note": 79,
      "start": 41.2827,
      "duration": 0.0123,
      "velocity": 106,
      "chip": "ym2612"
    },
    {
      "channel": 3,
      "note": 60,
      "start": 41.2831,
      "duration": 0.0077,
      "velocity": 118,
      "chip": "ym2612"
    },
    {
      "channel": 1,
      "note": 77,
      "start": 41.2964,
      "duration": 0.008,
      "velocity": 106,
      "chip": "ym2612"
    },
    {
      "channel": 2,
      "note": 78,
      "start": 41.3015,
      "duration": 0.0055,
      "velocity": 109,
      "chip": "ym2612"
    },
    {
      "channel": 0,
      "note": 56,
      "start": 41.3043,
      "duration": 0.0369,
      "velocity": 113,
      "chip": "ym2612"
    },
    {
      "channel": 1,
      "note": 75,
      "start": 41.3046,
      "duration": 0.045,
      "velocity": 106,
      "chip": "ym2612"
    },
    {
      "channel": 4,
      "note": 56,
      "start": 41.3052,
      "duration": 0.0479,
      "velocity": 118,
      "chip": "ym2612"
    },
    {
      "channel": 2,
      "note": 79,
      "start": 41.3071,
      "duration": 0.0129,
      "velocity": 109,
      "chip": "ym2612"
    },
    {
      "channel": 3,
      "note": 60,
      "start": 41.3075,
      "duration": 0.0488,
      "velocity": 118,
      "chip": "ym2612"
    },
    {
      "channel": 2,
      "note": 77,
      "start": 41.3247,
      "duration": 0.025,
      "velocity": 109,
      "chip": "ym2612"
    },
    {
      "channel": 0,
      "note": 56,
      "start": 41.3415,
      "duration": 0.0108,
      "velocity": 113,
      "chip": "ym2612"
    },
    {
      "channel": 2,
      "note": 75,
      "start": 41.3499,
      "duration": 0.0281,
      "velocity": 109,
      "chip": "ym2612"
    },
    {
      "channel": 0,
      "note": 56,
      "start": 41.3526,
      "duration": 0.0299,
      "velocity": 113,
      "chip": "ym2612"
    },
    {
      "channel": 1,
      "note": 79,
      "start": 41.3528,
      "duration": 0.0267,
      "velocity": 106,
      "chip": "ym2612"
    },
    {
      "channel": 4,
      "note": 56,
      "start": 41.3534,
      "duration": 0.0083,
      "velocity": 118,
      "chip": "ym2612"
    },
    {
      "channel": 3,
      "note": 60,
      "start": 41.3565,
      "duration": 0.0066,
      "velocity": 118,
      "chip": "ym2612"
    },
    {
      "channel": 4,
      "note": 56,
      "start": 41.3663,
      "duration": 0.0032,
      "velocity": 118,
      "chip": "ym2612"
    },
    {
      "channel": 3,
      "note": 60,
      "start": 41.3679,
      "duration": 0.0047,
      "velocity": 118,
      "chip": "ym2612"
    },
    {
      "channel": 4,
      "note": 56,
      "start": 41.373,
      "duration": 0.0069,
      "velocity": 118,
      "chip": "ym2612"
    },
    {
      "channel": 3,
      "note": 60,
      "start": 41.3747,
      "duration": 0.0086,
      "velocity": 118,
      "chip": "ym2612"
    },
    {
      "channel": 2,
      "note": 79,
      "start": 41.3798,
      "duration": 0.0244,
      "velocity": 109,
      "chip": "ym2612"
    },
    {
      "channel": 0,
      "note": 56,
      "start": 41.3828,
      "duration": 0.0277,
      "velocity": 113,
      "chip": "ym2612"
    },
    {
      "channel": 1,
      "note": 80,
      "start": 41.3831,
      "duration": 0.0248,
      "velocity": 106,
      "chip": "ym2612"
    },
    {
      "channel": 4,
      "note": 56,
      "start": 41.3851,
      "duration": 0.0085,
      "velocity": 118,
      "chip": "ym2612"
    },
    {
      "channel": 3,
      "note": 60,
      "start": 41.3885,
      "duration": 0.0065,
      "velocity": 118,
      "chip": "ym2612"
    },
    {
      "channel": 2,
      "note": 80,
      "start": 41.4081,
      "duration": 0.0286,
      "velocity": 109,
      "chip": "ym2612"
    },
    {
      "channel": 0,
      "note": 56,
      "start": 41.4108,
      "duration": 0.0307,
      "velocity": 113,
      "chip": "ym2612"
    },
    {
      "channel": 1,
      "note": 81,
      "start": 41.4112,
      "duration": 0.0272,
      "velocity": 106,
      "chip": "ym2612"
    },
    {
      "channel": 4,
      "note": 56,
      "start": 41.412,
      "duration": 0.0303,
      "velocity": 118,
      "chip": "ym2612"
    },
    {
      "channel": 3,
      "note": 60,
      "start": 41.4161,
      "duration": 0.0283,
      "velocity": 118,
      "chip": "ym2612"
    },
    {
      "channel": 2,
      "note": 81,
      "start": 41.4386,
      "duration": 0.0269,
      "velocity": 109,
      "chip": "ym2612"
    },
    {
      "channel": 0,
      "note": 56,
      "start": 41.4416,
      "duration": 0.0294,
      "velocity": 113,
      "chip": "ym2612"
    },
    {
      "channel": 1,
      "note": 82,
      "start": 41.442,
      "duration": 0.0264,
      "velocity": 106,
      "chip": "ym2612"
    },
    {
      "channel": 4,
      "note": 56,
      "start": 41.4425,
      "duration": 0.0328,
      "velocity": 106,
      "chip": "ym2612"
    },
    {
      "channel": 3,
      "note": 60,
      "start": 41.4445,
      "duration": 0.0295,
      "velocity": 106,
      "chip": "ym2612"
    },
    {
      "channel": 2,
      "note": 82,
      "start": 41.4686,
      "duration": 0.0313,
      "velocity": 109,
      "chip": "ym2612"
    },
    {
      "channel": 0,
      "note": 58,
      "start": 41.4713,
      "duration": 0.0329,
      "velocity": 113,
      "chip": "ym2612"
    },
    {
      "channel": 1,
      "note": 46,
      "start": 41.4728,
      "duration": 0.047,
      "velocity": 72,
      "chip": "ym2612"
    },
    {
      "channel": 3,
      "note": 74,
      "start": 41.4742,
      "duration": 0.0206,
      "velocity": 106,
      "chip": "ym2612"
    },
    {
      "channel": 4,
      "note": 70,
      "start": 41.4754,
      "duration": 0.0195,
      "velocity": 106,
      "chip": "ym2612"
    },
    {
      "channel": 3,
      "note": 74,
      "start": 41.4964,
      "duration": 0.0187,
      "velocity": 106,
      "chip": "ym2612"
    },
    {
      "channel": 4,
      "note": 70,
      "start": 41.4969,
      "duration": 0.0183,
      "velocity": 106,
      "chip": "ym2612"
    },
    {
      "channel": 0,
      "note": 58,
      "start": 41.5045,
      "duration": 0.015,
      "velocity": 113,
      "chip": "ym2612"
    },
    {
      "channel": 0,
      "note": 58,
      "start": 41.5198,
      "duration": 0.0275,
      "velocity": 113,
      "chip": "ym2612"
    },
    {
      "channel": 1,
      "note": 46,
      "start": 41.52,
      "duration": 0.0349,
      "velocity": 72,
      "chip": "ym2612"
    },
    {
      "channel": 3,
      "note": 74,
      "start": 41.5206,
      "duration": 0.0174,
      "velocity": 106,
      "chip": "ym2612"
    },
    {
      "channel": 4,
      "note": 70,
      "start": 41.5209,
      "duration": 0.0173,
      "velocity": 106,
      "chip": "ym2612"
    },
    {
      "channel": 3,
      "note": 74,
      "start": 41.5398,
      "duration": 0.0156,
      "velocity": 106,
      "chip": "ym2612"
    },
    {
      "channel": 4,
      "note": 70,
      "start": 41.5402,
      "duration": 0.0155,
      "velocity": 106,
      "chip": "ym2612"
    },
    {
      "channel": 0,
      "note": 58,
      "start": 41.5475,
      "duration": 0.0072,
      "velocity": 113,
      "chip": "ym2612"
    },
    {
      "channel": 0,
      "note": 58,
      "start": 41.5549,
      "duration": 0.0187,
      "velocity": 113,
      "chip": "ym2612"
    },
    {
      "channel": 1,
      "note": 46,
      "start": 41.5552,
      "duration": 0.0432,
      "velocity": 72,
      "chip": "ym2612"
    },
    {
      "channel": 3,
      "note": 74,
      "start": 41.5555,
      "duration": 0.0185,
      "velocity": 106,
      "chip": "ym2612"
    },
    {
      "channel": 4,
      "note": 70,
      "start": 41.5559,
      "duration": 0.0182,
      "velocity": 106,
      "chip": "ym2612"
    },
    {
      "channel": 0,
      "note": 58,
      "start": 41.5737,
      "duration": 0.0087,
      "velocity": 113,
      "chip": "ym2612"
    },
    {
      "channel": 3,
      "note": 74,
      "start": 41.5766,
      "duration": 0.0156,
      "velocity": 106,
      "chip": "ym2612"
    },
    {
      "channel": 4,
      "note": 70,
      "start": 41.5771,
      "duration": 0.0152,
      "velocity": 106,
      "chip": "ym2612"
    },
    {
      "channel": 0,
      "note": 53,
      "start": 41.5827,
      "duration": 0.008,
      "velocity": 113,
      "chip": "ym2612"
    },
    {
      "channel": 0,
      "note": 53,
      "start": 41.5983,
      "duration": 0.0086,
      "velocity": 113,
      "chip": "ym2612"
    },
    {
      "channel": 1,
      "note": 41,
      "start": 41.5985,
      "duration": 0.036,
      "velocity": 72,
      "chip": "ym2612"
    },
    {
      "channel": 3,
      "note": 75,
      "start": 41.599,
      "duration": 0.0173,
      "velocity": 106,
      "chip": "ym2612"
    },
    {
      "channel": 4,
      "note": 72,
      "start": 41.5994,
      "duration": 0.017,
      "velocity": 106,
      "chip": "ym2612"
    },
    {
      "channel": 0,
      "note": 57,
      "start": 41.6071,
      "duration": 0.009,
      "velocity": 113,
      "chip": "ym2612"
    },
    {
      "channel": 3,
      "note": 75,
      "start": 41.6195,
      "duration": 0.0156,
      "velocity": 106,
      "chip": "ym2612"
    },
    {
      "channel": 4,
      "note": 72,
      "start": 41.62,
      "duration": 0.0156,
      "velocity": 106,
      "chip": "ym2612"
    },
    {
      "channel": 0,
      "note": 60,
      "start": 41.6344,
      "duration": 0.0278,
      "velocity": 113,
      "chip": "ym2612"
    },
    {
      "channel": 1,
      "note": 41,
      "start": 41.6348,
      "duration": 0.0276,
      "velocity": 72,
      "chip": "ym2612"
    },
    {
      "channel": 3,
      "note": 75,
      "start": 41.6353,
      "duration": 0.018,
      "velocity": 106,
      "chip": "ym2612"
    },
    {
      "channel": 4,
      "note": 72,
      "start": 41.6359,
      "duration": 0.0175,
      "velocity": 106,
      "chip": "ym2612"
    },
    {
      "channel": 3,
      "note": 75,
      "start": 41.656,
      "duration": 0.007,
      "velocity": 106,
      "chip": "ym2612"
    },
    {
      "channel": 4,
      "note": 72,
      "start": 41.6564,
      "duration": 0.0071,
      "velocity": 106,
      "chip": "ym2612"
    },
    {
      "channel": 1,
      "note": 41,
      "start": 41.6627,
      "duration": 0.0301,
      "velocity": 72,
      "chip": "ym2612"
    },
    {
      "channel": 3,
      "note": 75,
      "start": 41.6633,
      "duration": 0.0202,
      "velocity": 106,
      "chip": "ym2612"
    },
    {
      "channel": 4,
      "note": 72,
      "start": 41.6638,
      "duration": 0.0198,
      "velocity": 106,
      "chip": "ym2612"
    },
    {
      "channel": 3,
      "note": 75,
      "start": 41.6852,
      "duration": 0.0081,
      "velocity": 106,
      "chip": "ym2612"
    },
    {
      "channel": 4,
      "note": 72,
      "start": 41.6855,
      "duration": 0.0083,
      "velocity": 106,
      "chip": "ym2612"
    },
    {
      "channel": 0,
      "note": 56,
      "start": 41.6928,
      "duration": 0.0258,
      "velocity": 113,
      "chip": "ym2612"
    },
    {
      "channel": 1,
      "note": 44,
      "start": 41.693,
      "duration": 0.0427,
      "velocity": 72,
      "chip": "ym2612"
    },
    {
      "channel": 3,
      "note": 72,
      "start": 41.6935,
      "duration": 0.0159,
      "velocity": 106,
      "chip": "ym2612"
    },
    {
      "channel": 4,
      "note": 68,
      "start": 41.6939,
      "duration": 0.0157,
      "velocity": 106,
      "chip": "ym2612"
    },
    {
      "channel": 3,
      "note": 72,
      "start": 41.7125,
      "duration": 0.0171,
      "velocity": 106,
      "chip": "ym2612"
    },
    {
      "channel": 4,
      "note": 68,
      "start": 41.7129,
      "duration": 0.0168,
      "velocity": 106,
      "chip": "ym2612"
    },
    {
      "channel": 0,
      "note": 56,
      "start": 41.7189,
      "duration": 0.0166,
      "velocity": 113,
      "chip": "ym2612"
    },
    {
      "channel": 0,
      "note": 56,
      "start": 41.7357,
      "duration": 0.0262,
      "velocity": 113,
      "chip": "ym2612"
    },
    {
      "channel": 1,
      "note": 44,
      "start": 41.736,
      "duration": 0.0353,
      "velocity": 72,
      "chip": "ym2612"
    },
    {
      "channel": 3,
      "note": 72,
      "start": 41.7365,
      "duration": 0.016,
      "velocity": 106,
      "chip": "ym2612"
    },
    {
      "channel": 4,
      "note": 68,
      "start": 41.737,
      "duration": 0.0158,
      "velocity": 106,
      "chip": "ym2612"
    },
    {
      "channel": 3,
      "note": 72,
      "start": 41.7556,
      "duration": 0.0162,
      "velocity": 106,
      "chip": "ym2612"
    },
    {
      "channel": 4,
      "note": 68,
      "start": 41.7559,
      "duration": 0.0162,
      "velocity": 106,
      "chip": "ym2612"
    },
    {
      "channel": 0,
      "note": 56,
      "start": 41.762,
      "duration": 0.009,
      "velocity": 113,
      "chip": "ym2612"
    },
    {
      "channel": 0,
      "note": 56,
      "start": 41.7712,
      "duration": 0.0182,
      "velocity": 113,
      "chip": "ym2612"
    },
    {
      "channel": 1,
      "note": 44,
      "start": 41.7715,
      "duration": 0.0431,
      "velocity": 72,
      "chip": "ym2612"
    },
    {
      "channel": 3,
      "note": 72,
      "start": 41.7719,
      "duration": 0.018,
      "velocity": 106,
      "chip": "ym2612"
    },
    {
      "channel": 4,
      "note": 68,
      "start": 41.7722,
      "duration": 0.0178,
      "velocity": 106,
      "chip": "ym2612"
    },
    {
      "channel": 0,
      "note": 56,
      "start": 41.7897,
      "duration": 0.0089,
      "velocity": 113,
      "chip": "ym2612"
    },
    {
      "channel": 3,
      "note": 72,
      "start": 41.7916,
      "duration": 0.0178,
      "velocity": 106,
      "chip": "ym2612"
    },
    {
      "channel": 4,
      "note": 68,
      "start": 41.792,
      "duration": 0.0175,
      "velocity": 106,
      "chip": "ym2612"
    },
    {
      "channel": 0,
      "note": 58,
      "start": 41.7989,
      "duration": 0.0075,
      "velocity": 113,
      "chip": "ym2612"
    },
    {
      "channel": 0,
      "note": 58,
      "start": 41.8146,
      "duration": 0.0105,
      "velocity": 113,
      "chip": "ym2612"
    },
    {
      "channel": 1,
      "note": 39,
      "start": 41.8148,
      "duration": 0.037,
      "velocity": 72,
      "chip": "ym2612"
    },
    {
      "channel": 3,
      "note": 70,
      "start": 41.8153,
      "duration": 0.019,
      "velocity": 106,
      "chip": "ym2612"
    },
    {
      "channel": 4,
      "note": 79,
      "start": 41.8166,
      "duration": 0.0178,
      "velocity": 106,
      "chip": "ym2612"
    },
    {
      "channel": 0,
      "note": 55,
      "start": 41.8253,
      "duration": 0.0088,
      "velocity": 113,
      "chip": "ym2612"
    },
    {
      "channel": 3,
      "note": 70,
      "start": 41.8364,
      "duration": 0.0158,
      "velocity": 106,
      "chip": "ym2612"
    },
    {
      "channel": 4,
      "note": 79,
      "start": 41.8367,
      "duration": 0.0159,
      "velocity": 106,
      "chip": "ym2612"
    },
    {
      "channel": 0,
      "note": 51,
      "start": 41.8517,
      "duration": 0.0263,
      "velocity": 113,
      "chip": "ym2612"
    },
    {
      "channel": 1,
      "note": 39,
      "start": 41.8519,
      "duration": 0.0263,
      "velocity": 72,
      "chip": "ym2612"
    },
    {
      "channel": 3,
      "note": 70,
      "start": 41.8524,
      "duration": 0.0171,
      "velocity": 106,
      "chip": "ym2612"
    },
    {
      "channel": 4,
      "note": 79,
      "start": 41.8527,
      "duration": 0.0169,
      "velocity": 106,
      "chip": "ym2612"
    },
    {
      "channel": 3,
      "note": 70,
      "start": 41.8723,
      "duration": 0.0065,
      "velocity": 106,
      "chip": "ym2612"
    },
    {
      "channel": 4,
      "note": 79,
      "start": 41.8727,
      "duration": 0.0067,
      "velocity": 106,
      "chip": "ym2612"
    },
    {
      "channel": 1,
      "note": 39,
      "start": 41.8785,
      "duration": 0.0291,
      "velocity": 72,
      "chip": "ym2612"
    },
    {
      "channel": 3,
      "note": 70,
      "start": 41.879,
      "duration": 0.0205,
      "velocity": 106,
      "chip": "ym2612"
    },
    {
      "channel": 4,
      "note": 79,
      "start": 41.8795,
      "duration": 0.0201,
      "velocity": 106,
      "chip": "ym2612"
    },
    {
      "channel": 3,
      "note": 70,
      "start": 41.9012,
      "duration": 0.0069,
      "velocity": 106,
      "chip": "ym2612"
    },
    {
      "channel": 4,
      "note": 79,
      "start": 41.9016,
      "duration": 0.0079,
      "velocity": 106,
      "chip": "ym2612"
    },
    {
      "channel": 0,
      "note": 58,
      "start": 41.9075,
      "duration": 0.0296,
      "velocity": 113,
      "chip": "ym2612"
    },
    {
      "channel": 1,
      "note": 46,
      "start": 41.9078,
      "duration": 0.0453,
      "velocity": 72,
      "chip": "ym2612"
    },
    {
      "channel": 3,
      "note": 74,
      "start": 41.9082,
      "duration": 0.0193,
      "velocity": 106,
      "chip": "ym2612"
    },
    {
      "channel": 4,
      "note": 70,
      "start": 41.9098,
      "duration": 0.0179,
      "velocity": 106,
      "chip": "ym2612"
    },
    {
      "channel": 3,
      "note": 74,
      "start": 41.9293,
      "duration": 0.0188,
      "velocity": 106,
      "chip": "ym2612"
    },
    {
      "channel": 4,
      "note": 70,
      "start": 41.9297,
      "duration": 0.0185,
      "velocity": 106,
      "chip": "ym2612"
    },
    {
      "channel": 0,
      "note": 58,
      "start": 41.9373,
      "duration": 0.0155,
      "velocity": 113,
      "chip": "ym2612"
    },
    {
      "channel": 0,
      "note": 58,
      "start": 41.953,
      "duration": 0.0275,
      "velocity": 113,
      "chip": "ym2612"
    },
    {
      "channel": 1,
      "note": 46,
      "start": 41.9534,
      "duration": 0.0373,
      "velocity": 72,
      "chip": "ym2612"
    },
    {
      "channel": 3,
      "note": 74,
      "start": 41.9539,
      "duration": 0.0175,
      "velocity": 106,
      "chip": "ym2612"
    },
    {
      "channel": 4,
      "note": 70,
      "start": 41.9543,
      "duration": 0.0174,
      "velocity": 106,
      "chip": "ym2612"
    },
    {
      "channel": 3,
      "note": 74,
      "start": 41.9745,
      "duration": 0.0166,
      "velocity": 106,
      "chip": "ym2612"
    },
    {
      "channel": 4,
      "note": 70,
      "start": 41.9749,
      "duration": 0.0166,
      "velocity": 106,
      "chip": "ym2612"
    },
    {
      "channel": 0,
      "note": 58,
      "start": 41.9807,
      "duration": 0.0098,
      "velocity": 113,
      "chip": "ym2612"
    },
    {
      "channel": 0,
      "note": 58,
      "start": 41.9906,
      "duration": 0.0169,
      "velocity": 113,
      "chip": "ym2612"
    },
    {
      "channel": 1,
      "note": 46,
      "start": 41.9909,
      "duration": 0.0429,
      "velocity": 72,
      "chip": "ym2612"
    },
    {
      "channel": 3,
      "note": 74,
      "start": 41.9913,
      "duration": 0.0166,
      "velocity": 106,
      "chip": "ym2612"
    },
    {
      "channel": 4,
      "note": 70,
      "start": 41.9917,
      "duration": 0.0163,
      "velocity": 106,
      "chip": "ym2612"
    },
    {
      "channel": 0,
      "note": 58,
      "start": 42.0076,
      "duration": 0.0092,
      "velocity": 113,
      "chip": "ym2612"
    },
    {
      "channel": 3,
      "note": 74,
      "start": 42.0112,
      "duration": 0.0164,
      "velocity": 106,
      "chip": "ym2612"
    },
    {
      "channel": 4,
      "note": 70,
      "start": 42.0116,
      "duration": 0.0161,
      "velocity": 106,
      "chip": "ym2612"
    },
    {
      "channel": 0,
      "note": 53,
      "start": 42.0171,
      "duration": 0.0089,
      "velocity": 113,
      "chip": "ym2612"
    },
    {
      "channel": 0,
      "note": 53,
      "start": 42.0337,
      "duration": 0.0104,
      "velocity": 113,
      "chip": "ym2612"
    },
    {
      "channel": 1,
      "note": 41,
      "start": 42.0339,
      "duration": 0.0378,
      "velocity": 72,
      "chip": "ym2612"
    },
    {
      "channel": 3,
      "note": 75,
      "start": 42.0344,
      "duration": 0.0189,
      "velocity": 106,
      "chip": "ym2612"
    },
    {
      "channel": 4,
      "note": 72,
      "start": 42.0348,
      "duration": 0.0186,
      "velocity": 106,
      "chip": "ym2612"
    },
    {
      "channel": 0,
      "note": 57,
      "start": 42.0444,
      "duration": 0.0087,
      "velocity": 113,
      "chip": "ym2612"
    },
    {
      "channel": 3,
      "note": 75,
      "start": 42.0564,
      "duration": 0.0159,
      "velocity": 106,
      "chip": "ym2612"
    },
    {
      "channel": 4,
      "note": 72,
      "start": 42.0568,
      "duration": 0.016,
      "velocity": 106,
      "chip": "ym2612"
    },
    {
      "channel": 0,
      "note": 60,
      "start": 42.0716,
      "duration": 0.0291,
      "velocity": 113,
      "chip": "ym2612"
    },
    {
      "channel": 1,
      "note": 41,
      "start": 42.072,
      "duration": 0.0289,
      "velocity": 72,
      "chip": "ym2612"
    },
    {
      "channel": 3,
      "note": 75,
      "start": 42.0725,
      "duration": 0.0192,
      "velocity": 106,
      "chip": "ym2612"
    },
    {
      "channel": 4,
      "note": 72,
      "start": 42.0731,
      "duration": 0.0187,
      "velocity": 106,
      "chip": "ym2612"
    },
    {
      "channel": 3,
      "note": 75,
      "start": 42.0934,
      "duration": 0.008,
      "velocity": 106,
      "chip": "ym2612"
    },
    {
      "channel": 4,
      "note": 72,
      "start": 42.0938,
      "duration": 0.0082,
      "velocity": 106,
      "chip": "ym2612"
    },
    {
      "channel": 1,
      "note": 41,
      "start": 42.1011,
      "duration": 0.0278,
      "velocity": 72,
      "chip": "ym2612"
    },
    {
      "channel": 3,
      "note": 75,
      "start": 42.1017,
      "duration": 0.0178,
      "velocity": 106,
      "chip": "ym2612"
    },
    {
      "channel": 4,
      "note": 72,
      "start": 42.1022,
      "duration": 0.0173,
      "velocity": 106,
      "chip": "ym2612"
    },
    {
      "channel": 3,
      "note": 75,
      "start": 42.1228,
      "duration": 0.0068,
      "velocity": 106,
      "chip": "ym2612"
    },
    {
      "channel": 4,
      "note": 72,
      "start": 42.1232,
      "duration": 0.0068,
      "velocity": 106,
      "chip": "ym2612"
    },
    {
      "channel": 0,
      "note": 56,
      "start": 42.1289,
      "duration": 0.0273,
      "velocity": 113,
      "chip": "ym2612"
    },
    {
      "channel": 1,
      "note": 44,
      "start": 42.1292,
      "duration": 0.0443,
      "velocity": 72,
      "chip": "ym2612"
    },
    {
      "channel": 3,
      "note": 72,
      "start": 42.1297,
      "duration": 0.0185,
      "velocity": 106,
      "chip": "ym2612"
    },
    {
      "channel": 4,
      "note": 68,
      "start": 42.1302,
      "duration": 0.0182,
      "velocity": 106,
      "chip": "ym2612"
    },
    {
      "channel": 3,
      "note": 72,
      "start": 42.1501,
      "duration": 0.0185,
      "velocity": 106,
      "chip": "ym2612"
    },
    {
      "channel": 4,
      "note": 68,
      "start": 42.1505,
      "duration": 0.0181,
      "velocity": 106,
      "chip": "ym2612"
    },
    {
      "channel": 0,
      "note": 56,
      "start": 42.1564,
      "duration": 0.0168,
      "velocity": 113,
      "chip": "ym2612"
    },
    {
      "channel": 0,
      "note": 56,
      "start": 42.1735,
      "duration": 0.0285,
      "velocity": 113,
      "chip": "ym2612"
    },
    {
      "channel": 1,
      "note": 44,
      "start": 42.1738,
      "duration": 0.0364,
      "velocity": 72,
      "chip": "ym2612"
    },
    {
      "channel": 3,
      "note": 72,
      "start": 42.1743,
      "duration": 0.0181,
      "velocity": 106,
      "chip": "ym2612"
    },
    {
      "channel": 4,
      "note": 68,
      "start": 42.1747,
      "duration": 0.018,
      "velocity": 106,
      "chip": "ym2612"
    },
    {
      "channel": 3,
      "note": 72,
      "start": 42.1942,
      "duration": 0.0165,
      "velocity": 106,
      "chip": "ym2612"
    },
    {
      "channel": 4,
      "note": 68,
      "start": 42.1946,
      "duration": 0.0164,
      "velocity": 106,
      "chip": "ym2612"
    },
    {
      "channel": 0,
      "note": 56,
      "start": 42.2022,
      "duration": 0.0077,
      "velocity": 113,
      "chip": "ym2612"
    },
    {
      "channel": 0,
      "note": 56,
      "start": 42.2101,
      "duration": 0.018,
      "velocity": 113,
      "chip": "ym2612"
    },
    {
      "channel": 1,
      "note": 44,
      "start": 42.2104,
      "duration": 0.0441,
      "velocity": 72,
      "chip": "ym2612"
    },
    {
      "channel": 3,
      "note": 72,
      "start": 42.2108,
      "duration": 0.0178,
      "velocity": 106,
      "chip": "ym2612"
    },
    {
      "channel": 4,
      "note": 68,
      "start": 42.2111,
      "duration": 0.0176,
      "velocity": 106,
      "chip": "ym2612"
    },
    {
      "channel": 0,
      "note": 56,
      "start": 42.2283,
      "duration": 0.0098,
      "velocity": 113,
      "chip": "ym2612"
    },
    {
      "channel": 3,
      "note": 72,
      "start": 42.2305,
      "duration": 0.0185,
      "velocity": 106,
      "chip": "ym2612"
    },
    {
      "channel": 4,
      "note": 68,
      "start": 42.231,
      "duration": 0.0182,
      "velocity": 106,
      "chip": "ym2612"
    },
    {
      "channel": 0,
      "note": 58,
      "start": 42.2383,
      "duration": 0.009,
      "velocity": 113,
      "chip": "ym2612"
    },
    {
      "channel": 0,
      "note": 58,
      "start": 42.2544,
      "duration": 0.0107,
      "velocity": 113,
      "chip": "ym2612"
    },
    {
      "channel": 1,
      "note": 39,
      "start": 42.2547,
      "duration": 0.0375,
      "velocity": 72,
      "chip": "ym2612"
    },
    {
      "channel": 3,
      "note": 70,
      "start": 42.2552,
      "duration": 0.0188,
      "velocity": 106,
      "chip": "ym2612"
    },
    {
      "channel": 4,
      "note": 79,
      "start": 42.2566,
      "duration": 0.0175,
      "velocity": 106,
      "chip": "ym2612"
    },
    {
      "channel": 0,
      "note": 55,
      "start": 42.2652,
      "duration": 0.0086,
      "velocity": 113,
      "chip": "ym2612"
    },
    {
      "channel": 3,
      "note": 70,
      "start": 42.277,
      "duration": 0.0157,
      "velocity": 106,
      "chip": "ym2612"
    },
    {
      "channel": 4,
      "note": 79,
      "start": 42.2775,
      "duration": 0.0157,
      "velocity": 106,
      "chip": "ym2612"
    },
    {
      "channel": 0,
      "note": 51,
      "start": 42.2921,
      "duration": 0.0259,
      "velocity": 113,
      "chip": "ym2612"
    },
    {
      "channel": 1,
      "note": 39,
      "start": 42.2924,
      "duration": 0.0258,
      "velocity": 72,
      "chip": "ym2612"
    },
    {
      "channel": 3,
      "note": 70,
      "start": 42.2929,
      "duration": 0.0163,
      "velocity": 106,
      "chip": "ym2612"
    },
    {
      "channel": 4,
      "note": 79,
      "start": 42.2933,
      "duration": 0.0161,
      "velocity": 106,
      "chip": "ym2612"
    },
    {
      "channel": 3,
      "note": 70,
      "start": 42.3121,
      "duration": 0.0067,
      "velocity": 106,
      "chip": "ym2612"
    },
    {
      "channel": 4,
      "note": 79,
      "start": 42.3125,
      "duration": 0.0066,
      "velocity": 106,
      "chip": "ym2612"
    },
    {
      "channel": 1,
      "note": 39,
      "start": 42.3185,
      "duration": 0.0294,
      "velocity": 72,
      "chip": "ym2612"
    },
    {
      "channel": 3,
      "note": 70,
      "start": 42.319,
      "duration": 0.018,
      "velocity": 106,
      "chip": "ym2612"
    },
    {
      "channel": 4,
      "note": 79,
      "start": 42.3193,
      "duration": 0.0179,
      "velocity": 106,
      "chip": "ym2612"
    },
    {
      "channel": 3,
      "note": 70,
      "start": 42.3392,
      "duration": 0.0091,
      "velocity": 106,
      "chip": "ym2612"
    },
    {
      "channel": 4,
      "note": 79,
      "start": 42.3395,
      "duration": 0.0101,
      "velocity": 106,
      "chip": "ym2612"
    },
    {
      "channel": 0,
      "note": 46,
      "start": 42.3477,
      "duration": 0.0439,
      "velocity": 72,
      "chip": "ym2612"
    },
    {
      "channel": 1,
      "note": 46,
      "start": 42.3481,
      "duration": 0.0438,
      "velocity": 72,
      "chip": "ym2612"
    },
    {
      "channel": 3,
      "note": 74,
      "start": 42.3484,
      "duration": 0.0174,
      "velocity": 106,
      "chip": "ym2612"
    },
    {
      "channel": 4,
      "note": 70,
      "start": 42.3498,
      "duration": 0.0161,
      "velocity": 106,
      "chip": "ym2612"
    },
    {
      "channel": 3,
      "note": 74,
      "start": 42.3686,
      "duration": 0.0165,
      "velocity": 106,
      "chip": "ym2612"
    },
    {
      "channel": 4,
      "note": 70,
      "start": 42.3689,
      "duration": 0.0162,
      "velocity": 106,
      "chip": "ym2612"
    },
    {
      "channel": 0,
      "note": 46,
      "start": 42.3918,
      "duration": 0.0354,
      "velocity": 72,
      "chip": "ym2612"
    },
    {
      "channel": 1,
      "note": 46,
      "start": 42.3921,
      "duration": 0.0353,
      "velocity": 72,
      "chip": "ym2612"
    },
    {
      "channel": 3,
      "note": 74,
      "start": 42.3926,
      "duration": 0.0162,
      "velocity": 106,
      "chip": "ym2612"
    },
    {
      "channel": 4,
      "note": 70,
      "start": 42.393,
      "duration": 0.0158,
      "velocity": 106,
      "chip": "ym2612"
    },
    {
      "channel": 3,
      "note": 74,
      "start": 42.4116,
      "duration": 0.0164,
      "velocity": 106,
      "chip": "ym2612"
    },
    {
      "channel": 4,
      "note": 70,
      "start": 42.412,
      "duration": 0.0164,
      "velocity": 106,
      "chip": "ym2612"
    },
    {
      "channel": 0,
      "note": 46,
      "start": 42.4274,
      "duration": 0.0446,
      "velocity": 72,
      "chip": "ym2612"
    },
    {
      "channel": 1,
      "note": 46,
      "start": 42.4277,
      "duration": 0.0447,
      "velocity": 72,
      "chip": "ym2612"
    },
    {
      "channel": 3,
      "note": 74,
      "start": 42.4282,
      "duration": 0.0179,
      "velocity": 106,
      "chip": "ym2612"
    },
    {
      "channel": 4,
      "note": 70,
      "start": 42.4285,
      "duration": 0.0176,
      "velocity": 106,
      "chip": "ym2612"
    },
    {
      "channel": 3,
      "note": 74,
      "start": 42.4479,
      "duration": 0.0176,
      "velocity": 106,
      "chip": "ym2612"
    },
    {
      "channel": 4,
      "note": 70,
      "start": 42.4483,
      "duration": 0.0172,
      "velocity": 106,
      "chip": "ym2612"
    },
    {
      "channel": 0,
      "note": 41,
      "start": 42.4723,
      "duration": 0.0357,
      "velocity": 72,
      "chip": "ym2612"
    },
    {
      "channel": 1,
      "note": 41,
      "start": 42.4726,
      "duration": 0.0358,
      "velocity": 72,
      "chip": "ym2612"
    },
    {
      "channel": 3,
      "note": 75,
      "start": 42.4729,
      "duration": 0.0178,
      "velocity": 106,
      "chip": "ym2612"
    },
    {
      "channel": 4,
      "note": 72,
      "start": 42.4733,
      "duration": 0.0175,
      "velocity": 106,
      "chip": "ym2612"
    },
    {
      "channel": 3,
      "note": 75,
      "start": 42.4924,
      "duration": 0.0165,
      "velocity": 106,
      "chip": "ym2612"
    },
    {
      "channel": 4,
      "note": 72,
      "start": 42.4928,
      "duration": 0.0164,
      "velocity": 106,
      "chip": "ym2612"
    },
    {
      "channel": 0,
      "note": 41,
      "start": 42.5083,
      "duration": 0.0276,
      "velocity": 72,
      "chip": "ym2612"
    },
    {
      "channel": 1,
      "note": 41,
      "start": 42.5086,
      "duration": 0.0276,
      "velocity": 72,
      "chip": "ym2612"
    },
    {
      "channel": 3,
      "note": 75,
      "start": 42.509,
      "duration": 0.0178,
      "velocity": 106,
      "chip": "ym2612"
    },
    {
      "channel": 4,
      "note": 72,
      "start": 42.5093,
      "duration": 0.0176,
      "velocity": 106,
      "chip": "ym2612"
    },
    {
      "channel": 3,
      "note": 75,
      "start": 42.5284,
      "duration": 0.0083,
      "velocity": 106,
      "chip": "ym2612"
    },
    {
      "channel": 4,
      "note": 72,
      "start": 42.5289,
      "duration": 0.0084,
      "velocity": 106,
      "chip": "ym2612"
    },
    {
      "channel": 0,
      "note": 41,
      "start": 42.5361,
      "duration": 0.03,
      "velocity": 72,
      "chip": "ym2612"
    },
    {
      "channel": 1,
      "note": 41,
      "start": 42.5365,
      "duration": 0.0299,
      "velocity": 72,
      "chip": "ym2612"
    },
    {
      "channel": 3,
      "note": 75,
      "start": 42.537,
      "duration": 0.0201,
      "velocity": 106,
      "chip": "ym2612"
    },
    {
      "channel": 4,
      "note": 72,
      "start": 42.5376,
      "duration": 0.0197,
      "velocity": 106,
      "chip": "ym2612"
    },
    {
      "channel": 3,
      "note": 75,
      "start": 42.5603,
      "duration": 0.0066,
      "velocity": 106,
      "chip": "ym2612"
    },
    {
      "channel": 4,
      "note": 72,
      "start": 42.5608,
      "duration": 0.0066,
      "velocity": 106,
      "chip": "ym2612"
    },
    {
      "channel": 0,
      "note": 44,
      "start": 42.5664,
      "duration": 0.0453,
      "velocity": 72,
      "chip": "ym2612"
    },
    {
      "channel": 1,
      "note": 44,
      "start": 42.5666,
      "duration": 0.0455,
      "velocity": 72,
      "chip": "ym2612"
    },
    {
      "channel": 3,
      "note": 72,
      "start": 42.5671,
      "duration": 0.0186,
      "velocity": 106,
      "chip": "ym2612"
    },
    {
      "channel": 4,
      "note": 68,
      "start": 42.5675,
      "duration": 0.0183,
      "velocity": 106,
      "chip": "ym2612"
    },
    {
      "channel": 3,
      "note": 72,
      "start": 42.5873,
      "duration": 0.0178,
      "velocity": 106,
      "chip": "ym2612"
    },
    {
      "channel": 4,
      "note": 68,
      "start": 42.5877,
      "duration": 0.0175,
      "velocity": 106,
      "chip": "ym2612"
    },
    {
      "channel": 0,
      "note": 44,
      "start": 42.612,
      "duration": 0.0376,
      "velocity": 72,
      "chip": "ym2612"
    },
    {
      "channel": 1,
      "note": 44,
      "start": 42.6123,
      "duration": 0.0376,
      "velocity": 72,
      "chip": "ym2612"
    },
    {
      "channel": 3,
      "note": 72,
      "start": 42.6126,
      "duration": 0.018,
      "velocity": 106,
      "chip": "ym2612"
    },
    {
      "channel": 4,
      "note": 68,
      "start": 42.613,
      "duration": 0.0177,
      "velocity": 106,
      "chip": "ym2612"
    },
    {
      "channel": 3,
      "note": 72,
      "start": 42.6324,
      "duration": 0.0179,
      "velocity": 106,
      "chip": "ym2612"
    },
    {
      "channel": 4,
      "note": 68,
      "start": 42.6329,
      "duration": 0.0177,
      "velocity": 106,
      "chip": "ym2612"
    },
    {
      "channel": 0,
      "note": 44,
      "start": 42.6498,
      "duration": 0.0439,
      "velocity": 72,
      "chip": "ym2612"
    },
    {
      "channel": 1,
      "note": 44,
      "start": 42.6501,
      "duration": 0.044,
      "velocity": 72,
      "chip": "ym2612"
    },
    {
      "channel": 3,
      "note": 72,
      "start": 42.6505,
      "duration": 0.0164,
      "velocity": 106,
      "chip": "ym2612"
    },
    {
      "channel": 4,
      "note": 68,
      "start": 42.6508,
      "duration": 0.0161,
      "velocity": 106,
      "chip": "ym2612"
    },
    {
      "channel": 3,
      "note": 72,
      "start": 42.67,
      "duration": 0.0157,
      "velocity": 106,
      "chip": "ym2612"
    },
    {
      "channel": 4,
      "note": 68,
      "start": 42.6704,
      "duration": 0.0154,
      "velocity": 106,
      "chip": "ym2612"
    },
    {
      "channel": 0,
      "note": 39,
      "start": 42.694,
      "duration": 0.0357,
      "velocity": 72,
      "chip": "ym2612"
    },
    {
      "channel": 1,
      "note": 39,
      "start": 42.6943,
      "duration": 0.0357,
      "velocity": 72,
      "chip": "ym2612"
    },
    {
      "channel": 3,
      "note": 70,
      "start": 42.6949,
      "duration": 0.0173,
      "velocity": 106,
      "chip": "ym2612"
    },
    {
      "channel": 4,
      "note": 79,
      "start": 42.6962,
      "duration": 0.0161,
      "velocity": 106,
      "chip": "ym2612"
    },
    {
      "channel": 3,
      "note": 70,
      "start": 42.7151,
      "duration": 0.0154,
      "velocity": 106,
      "chip": "ym2612"
    },
    {
      "channel": 4,
      "note": 79,
      "start": 42.7155,
      "duration": 0.0154,
      "velocity": 106,
      "chip": "ym2612"
    },
    {
      "channel": 0,
      "note": 39,
      "start": 42.73,
      "duration": 0.026,
      "velocity": 72,
      "chip": "ym2612"
    },
    {
      "channel": 1,
      "note": 39,
      "start": 42.7303,
      "duration": 0.026,
      "velocity": 72,
      "chip": "ym2612"
    },
    {
      "channel": 3,
      "note": 70,
      "start": 42.7306,
      "duration": 0.0178,
      "velocity": 106,
      "chip": "ym2612"
    },
    {
      "channel": 4,
      "note": 79,
      "start": 42.7311,
      "duration": 0.0174,
      "velocity": 106,
      "chip": "ym2612"
    },
    {
      "channel": 3,
      "note": 70,
      "start": 42.7501,
      "duration": 0.0067,
      "velocity": 106,
      "chip": "ym2612"
    },
    {
      "channel": 4,
      "note": 79,
      "start": 42.7505,
      "duration": 0.0068,
      "velocity": 106,
      "chip": "ym2612"
    },
    {
      "channel": 0,
      "note": 39,
      "start": 42.7562,
      "duration": 0.0294,
      "velocity": 72,
      "chip": "ym2612"
    },
    {
      "channel": 1,
      "note": 39,
      "start": 42.7566,
      "duration": 0.0294,
      "velocity": 72,
      "chip": "ym2612"
    },
    {
      "channel": 3,
      "note": 70,
      "start": 42.7571,
      "duration": 0.0195,
      "velocity": 106,
      "chip": "ym2612"
    },
    {
      "channel": 4,
      "note": 79,
      "start": 42.7576,
      "duration": 0.0191,
      "velocity": 106,
      "chip": "ym2612"
    },
    {
      "channel": 3,
      "note": 70,
      "start": 42.7798,
      "duration": 0.0067,
      "velocity": 106,
      "chip": "ym2612"
    },
    {
      "channel": 4,
      "note": 79,
      "start": 42.7802,
      "duration": 0.0078,
      "velocity": 106,
      "chip": "ym2612"
    },
    {
      "channel": 0,
      "note": 46,
      "start": 42.7859,
      "duration": 0.0445,
      "velocity": 72,
      "chip": "ym2612"
    },
    {
      "channel": 1,
      "note": 46,
      "start": 42.7863,
      "duration": 0.0445,
      "velocity": 72,
      "chip": "ym2612"
    },
    {
      "channel": 3,
      "note": 74,
      "start": 42.7867,
      "duration": 0.0193,
      "velocity": 106,
      "chip": "ym2612"
    },
    {
      "channel": 4,
      "note": 70,
      "start": 42.7881,
      "duration": 0.0178,
      "velocity": 106,
      "chip": "ym2612"
    },
    {
      "channel": 3,
      "note": 74,
      "start": 42.8074,
      "duration": 0.0173,
      "velocity": 106,
      "chip": "ym2612"
    },
    {
      "channel": 4,
      "note": 70,
      "start": 42.8078,
      "duration": 0.017,
      "velocity": 106,
      "chip": "ym2612"
    },
    {
      "channel": 0,
      "note": 46,
      "start": 42.8307,
      "duration": 0.0356,
      "velocity": 72,
      "chip": "ym2612"
    },
    {
      "channel": 1,
      "note": 46,
      "start": 42.831,
      "duration": 0.0357,
      "velocity": 72,
      "chip": "ym2612"
    },
    {
      "channel": 3,
      "note": 74,
      "start": 42.8315,
      "duration": 0.0178,
      "velocity": 106,
      "chip": "ym2612"
    },
    {
      "channel": 4,
      "note": 70,
      "start": 42.8319,
      "duration": 0.0175,
      "velocity": 106,
      "chip": "ym2612"
    },
    {
      "channel": 3,
      "note": 74,
      "start": 42.851,
      "duration": 0.0161,
      "velocity": 106,
      "chip": "ym2612"
    },
    {
      "channel": 4,
      "note": 70,
      "start": 42.8514,
      "duration": 0.0161,
      "velocity": 106,
      "chip": "ym2612"
    },
    {
      "channel": 0,
      "note": 46,
      "start": 42.8666,
      "duration": 0.0451,
      "velocity": 72,
      "chip": "ym2612"
    },
    {
      "channel": 1,
      "note": 46,
      "start": 42.8669,
      "duration": 0.0452,
      "velocity": 72,
      "chip": "ym2612"
    },
    {
      "channel": 3,
      "note": 74,
      "start": 42.8673,
      "duration": 0.0183,
      "velocity": 106,
      "chip": "ym2612"
    },
    {
      "channel": 4,
      "note": 70,
      "start": 42.8677,
      "duration": 0.018,
      "velocity": 106,
      "chip": "ym2612"
    },
    {
      "channel": 3,
      "note": 74,
      "start": 42.8873,
      "duration": 0.018,
      "velocity": 106,
      "chip": "ym2612"
    },
    {
      "channel": 4,
      "note": 70,
      "start": 42.8877,
      "duration": 0.0177,
      "velocity": 106,
      "chip": "ym2612"
    },
    {
      "channel": 0,
      "note": 41,
      "start": 42.912,
      "duration": 0.0356,
      "velocity": 72,
      "chip": "ym2612"
    },
    {
      "channel": 1,
      "note": 41,
      "start": 42.9123,
      "duration": 0.0357,
      "velocity": 72,
      "chip": "ym2612"
    },
    {
      "channel": 3,
      "note": 75,
      "start": 42.9127,
      "duration": 0.0175,
      "velocity": 106,
      "chip": "ym2612"
    },
    {
      "channel": 4,
      "note": 72,
      "start": 42.9132,
      "duration": 0.0171,
      "velocity": 106,
      "chip": "ym2612"
    },
    {
      "channel": 3,
      "note": 75,
      "start": 42.9318,
      "duration": 0.0167,
      "velocity": 106,
      "chip": "ym2612"
    },
    {
      "channel": 4,
      "note": 72,
      "start": 42.9322,
      "duration": 0.0168,
      "velocity": 106,
      "chip": "ym2612"
    },
    {
      "channel": 0,
      "note": 41,
      "start": 42.9479,
      "duration": 0.0276,
      "velocity": 72,
      "chip": "ym2612"
    },
    {
      "channel": 1,
      "note": 41,
      "start": 42.9483,
      "duration": 0.0276,
      "velocity": 72,
      "chip": "ym2612"
    },
    {
      "channel": 3,
      "note": 75,
      "start": 42.9488,
      "duration": 0.018,
      "velocity": 106,
      "chip": "ym2612"
    },
    {
      "channel": 4,
      "note": 72,
      "start": 42.9493,
      "duration": 0.0177,
      "velocity": 106,
      "chip": "ym2612"
    },
    {
      "channel": 3,
      "note": 75,
      "start": 42.9697,
      "duration": 0.0066,
      "velocity": 106,
      "chip": "ym2612"
    },
    {
      "channel": 4,
      "note": 72,
      "start": 42.9701,
      "duration": 0.0067,
      "velocity": 106,
      "chip": "ym2612"
    },
    {
      "channel": 0,
      "note": 41,
      "start": 42.9758,
      "duration": 0.0278,
      "velocity": 72,
      "chip": "ym2612"
    },
    {
      "channel": 1,
      "note": 41,
      "start": 42.976,
      "duration": 0.0278,
      "velocity": 72,
      "chip": "ym2612"
    },
    {
      "channel": 3,
      "note": 75,
      "start": 42.9766,
      "duration": 0.0175,
      "velocity": 106,
      "chip": "ym2612"
    },
    {
      "channel": 4,
      "note": 72,
      "start": 42.977,
      "duration": 0.0173,
      "velocity": 106,
      "chip": "ym2612"
    },
    {
      "channel": 3,
      "note": 75,
      "start": 42.996,
      "duration": 0.0081,
      "velocity": 106,
      "chip": "ym2612"
    },
    {
      "channel": 4,
      "note": 72,
      "start": 42.9965,
      "duration": 0.008,
      "velocity": 106,
      "chip": "ym2612"
    }
  ]
}