{
  "track_name": "21 - Stage Theme 20 ~ Awesome",
  "duration_sec": 87.57,
  "sample_rate": 44100,
  "note_count": 22334,
  "unique_pitches": 52,
  "pitch_range": 52,
  "avg_note_duration": 0.016,
  "reconstruction_stats": {
    "notes_reconstructed": 22334,
    "keyon_events": 22334,
    "keyoff_events": 1063,
    "orphan_keyons": 3,
    "unique_pitches": 52,
    "pitch_range": 52,
    "avg_duration_sec": 0.016
  },
  "metadata": {
    "source": "L\\Lemmings\\21 - Stage Theme 20 ~ Awesome.vgz"
  },
  "notes": [
    {
      "channel": 1,
      "note": 78,
      "start": 0.0516,
      "duration": 0.0179,
      "velocity": 124,
      "chip": "ym2612"
    },
    {
      "channel": 4,
      "note": 62,
      "start": 0.0544,
      "duration": 0.0163,
      "velocity": 120,
      "chip": "ym2612"
    },
    {
      "channel": 3,
      "note": 57,
      "start": 0.06,
      "duration": 0.0119,
      "velocity": 120,
      "chip": "ym2612"
    },
    {
      "channel": 2,
      "note": 50,
      "start": 0.0627,
      "duration": 0.0128,
      "velocity": 100,
      "chip": "ym2612"
    },
    {
      "channel": 1,
      "note": 76,
      "start": 0.0695,
      "duration": 0.011,
      "velocity": 124,
      "chip": "ym2612"
    },
    {
      "channel": 4,
      "note": 62,
      "start": 0.0707,
      "duration": 0.011,
      "velocity": 120,
      "chip": "ym2612"
    },
    {
      "channel": 3,
      "note": 57,
      "start": 0.0719,
      "duration": 0.011,
      "velocity": 120,
      "chip": "ym2612"
    },
    {
      "channel": 2,
      "note": 50,
      "start": 0.0755,
      "duration": 0.0085,
      "velocity": 100,
      "chip": "ym2612"
    },
    {
      "channel": 1,
      "note": 75,
      "start": 0.0805,
      "duration": 0.0129,
      "velocity": 124,
      "chip": "ym2612"
    },
    {
      "channel": 4,
      "note": 62,
      "start": 0.0817,
      "duration": 0.0129,
      "velocity": 120,
      "chip": "ym2612"
    },
    {
      "channel": 3,
      "note": 57,
      "start": 0.0829,
      "duration": 0.0129,
      "velocity": 120,
      "chip": "ym2612"
    },
    {
      "channel": 2,
      "note": 50,
      "start": 0.084,
      "duration": 0.0129,
      "velocity": 100,
      "chip": "ym2612"
    },
    {
      "channel": 1,
      "note": 74,
      "start": 0.0934,
      "duration": 0.0172,
      "velocity": 124,
      "chip": "ym2612"
    },
    {
      "channel": 4,
      "note": 62,
      "start": 0.0946,
      "duration": 0.0172,
      "velocity": 120,
      "chip": "ym2612"
    },
    {
      "channel": 3,
      "note": 57,
      "start": 0.0957,
      "duration": 0.0172,
      "velocity": 120,
      "chip": "ym2612"
    },
    {
      "channel": 2,
      "note": 50,
      "start": 0.0969,
      "duration": 0.0172,
      "velocity": 100,
      "chip": "ym2612"
    },
    {
      "channel": 1,
      "note": 72,
      "start": 0.1106,
      "duration": 0.0166,
      "velocity": 124,
      "chip": "ym2612"
    },
    {
      "channel": 4,
      "note": 62,
      "start": 0.1118,
      "duration": 0.0167,
      "velocity": 120,
      "chip": "ym2612"
    },
    {
      "channel": 3,
      "note": 57,
      "start": 0.113,
      "duration": 0.0167,
      "velocity": 120,
      "chip": "ym2612"
    },
    {
      "channel": 2,
      "note": 50,
      "start": 0.1141,
      "duration": 0.0166,
      "velocity": 100,
      "chip": "ym2612"
    },
    {
      "channel": 1,
      "note": 71,
      "start": 0.1272,
      "duration": 0.0181,
      "velocity": 124,
      "chip": "ym2612"
    },
    {
      "channel": 4,
      "note": 62,
      "start": 0.1285,
      "duration": 0.0181,
      "velocity": 120,
      "chip": "ym2612"
    },
    {
      "channel": 3,
      "note": 57,
      "start": 0.1296,
      "duration": 0.0181,
      "velocity": 120,
      "chip": "ym2612"
    },
    {
      "channel": 2,
      "note": 50,
      "start": 0.1307,
      "duration": 0.0181,
      "velocity": 100,
      "chip": "ym2612"
    },
    {
      "channel": 1,
      "note": 78,
      "start": 0.1454,
      "duration": 0.0132,
      "velocity": 124,
      "chip": "ym2612"
    },
    {
      "channel": 4,
      "note": 62,
      "start": 0.1466,
      "duration": 0.0132,
      "velocity": 120,
      "chip": "ym2612"
    },
    {
      "channel": 3,
      "note": 57,
      "start": 0.1477,
      "duration": 0.0132,
      "velocity": 120,
      "chip": "ym2612"
    },
    {
      "channel": 2,
      "note": 50,
      "start": 0.1488,
      "duration": 0.0132,
      "velocity": 100,
      "chip": "ym2612"
    },
    {
      "channel": 1,
      "note": 76,
      "start": 0.1586,
      "duration": 0.0181,
      "velocity": 124,
      "chip": "ym2612"
    },
    {
      "channel": 4,
      "note": 62,
      "start": 0.1598,
      "duration": 0.018,
      "velocity": 120,
      "chip": "ym2612"
    },
    {
      "channel": 3,
      "note": 57,
      "start": 0.1609,
      "duration": 0.0181,
      "velocity": 120,
      "chip": "ym2612"
    },
    {
      "channel": 1,
      "note": 75,
      "start": 0.1766,
      "duration": 0.0161,
      "velocity": 124,
      "chip": "ym2612"
    },
    {
      "channel": 4,
      "note": 62,
      "start": 0.1778,
      "duration": 0.0161,
      "velocity": 120,
      "chip": "ym2612"
    },
    {
      "channel": 3,
      "note": 57,
      "start": 0.179,
      "duration": 0.0161,
      "velocity": 120,
      "chip": "ym2612"
    },
    {
      "channel": 1,
      "note": 74,
      "start": 0.1927,
      "duration": 0.0157,
      "velocity": 124,
      "chip": "ym2612"
    },
    {
      "channel": 4,
      "note": 62,
      "start": 0.1939,
      "duration": 0.0158,
      "velocity": 120,
      "chip": "ym2612"
    },
    {
      "channel": 3,
      "note": 57,
      "start": 0.1951,
      "duration": 0.0158,
      "velocity": 120,
      "chip": "ym2612"
    },
    {
      "channel": 1,
      "note": 72,
      "start": 0.2085,
      "duration": 0.0137,
      "velocity": 124,
      "chip": "ym2612"
    },
    {
      "channel": 4,
      "note": 62,
      "start": 0.2097,
      "duration": 0.0144,
      "velocity": 120,
      "chip": "ym2612"
    },
    {
      "channel": 3,
      "note": 57,
      "start": 0.2109,
      "duration": 0.0144,
      "velocity": 120,
      "chip": "ym2612"
    },
    {
      "channel": 1,
      "note": 71,
      "start": 0.2222,
      "duration": 0.0206,
      "velocity": 124,
      "chip": "ym2612"
    },
    {
      "channel": 4,
      "note": 62,
      "start": 0.2242,
      "duration": 0.0199,
      "velocity": 120,
      "chip": "ym2612"
    },
    {
      "channel": 3,
      "note": 57,
      "start": 0.2253,
      "duration": 0.0199,
      "velocity": 120,
      "chip": "ym2612"
    },
    {
      "channel": 1,
      "note": 78,
      "start": 0.2428,
      "duration": 0.0116,
      "velocity": 124,
      "chip": "ym2612"
    },
    {
      "channel": 4,
      "note": 62,
      "start": 0.2441,
      "duration": 0.0116,
      "velocity": 120,
      "chip": "ym2612"
    },
    {
      "channel": 3,
      "note": 57,
      "start": 0.2452,
      "duration": 0.0143,
      "velocity": 120,
      "chip": "ym2612"
    },
    {
      "channel": 2,
      "note": 50,
      "start": 0.2467,
      "duration": 0.014,
      "velocity": 100,
      "chip": "ym2612"
    },
    {
      "channel": 1,
      "note": 76,
      "start": 0.2544,
      "duration": 0.016,
      "velocity": 124,
      "chip": "ym2612"
    },
    {
      "channel": 4,
      "note": 62,
      "start": 0.2556,
      "duration": 0.016,
      "velocity": 120,
      "chip": "ym2612"
    },
    {
      "channel": 3,
      "note": 57,
      "start": 0.2595,
      "duration": 0.0157,
      "velocity": 120,
      "chip": "ym2612"
    },
    {
      "channel": 2,
      "note": 50,
      "start": 0.2607,
      "duration": 0.0156,
      "velocity": 100,
      "chip": "ym2612"
    },
    {
      "channel": 1,
      "note": 75,
      "start": 0.2705,
      "duration": 0.0161,
      "velocity": 124,
      "chip": "ym2612"
    },
    {
      "channel": 4,
      "note": 62,
      "start": 0.2717,
      "duration": 0.0161,
      "velocity": 120,
      "chip": "ym2612"
    },
    {
      "channel": 3,
      "note": 57,
      "start": 0.2752,
      "duration": 0.0137,
      "velocity": 120,
      "chip": "ym2612"
    },
    {
      "channel": 2,
      "note": 50,
      "start": 0.2763,
      "duration": 0.0144,
      "velocity": 100,
      "chip": "ym2612"
    },
    {
      "channel": 1,
      "note": 74,
      "start": 0.2866,
      "duration": 0.0161,
      "velocity": 124,
      "chip": "ym2612"
    },
    {
      "channel": 4,
      "note": 62,
      "start": 0.2878,
      "duration": 0.0161,
      "velocity": 120,
      "chip": "ym2612"
    },
    {
      "channel": 3,
      "note": 57,
      "start": 0.2889,
      "duration": 0.0162,
      "velocity": 120,
      "chip": "ym2612"
    },
    {
      "channel": 2,
      "note": 50,
      "start": 0.2908,
      "duration": 0.0182,
      "velocity": 100,
      "chip": "ym2612"
    },
    {
      "channel": 1,
      "note": 72,
      "start": 0.3027,
      "duration": 0.0161,
      "velocity": 124,
      "chip": "ym2612"
    },
    {
      "channel": 4,
      "note": 62,
      "start": 0.3039,
      "duration": 0.0161,
      "velocity": 120,
      "chip": "ym2612"
    },
    {
      "channel": 3,
      "note": 57,
      "start": 0.3051,
      "duration": 0.0161,
      "velocity": 120,
      "chip": "ym2612"
    },
    {
      "channel": 2,
      "note": 50,
      "start": 0.309,
      "duration": 0.0133,
      "velocity": 100,
      "chip": "ym2612"
    },
    {
      "channel": 1,
      "note": 71,
      "start": 0.3188,
      "duration": 0.0162,
      "velocity": 124,
      "chip": "ym2612"
    },
    {
      "channel": 4,
      "note": 62,
      "start": 0.32,
      "duration": 0.0161,
      "velocity": 120,
      "chip": "ym2612"
    },
    {
      "channel": 3,
      "note": 57,
      "start": 0.3212,
      "duration": 0.0161,
      "velocity": 120,
      "chip": "ym2612"
    },
    {
      "channel": 2,
      "note": 50,
      "start": 0.3222,
      "duration": 0.0162,
      "velocity": 100,
      "chip": "ym2612"
    },
    {
      "channel": 1,
      "note": 70,
      "start": 0.3349,
      "duration": 0.0161,
      "velocity": 124,
      "chip": "ym2612"
    },
    {
      "channel": 4,
      "note": 62,
      "start": 0.3361,
      "duration": 0.0161,
      "velocity": 120,
      "chip": "ym2612"
    },
    {
      "channel": 3,
      "note": 57,
      "start": 0.3373,
      "duration": 0.0161,
      "velocity": 120,
      "chip": "ym2612"
    },
    {
      "channel": 2,
      "note": 50,
      "start": 0.3384,
      "duration": 0.0161,
      "velocity": 100,
      "chip": "ym2612"
    },
    {
      "channel": 1,
      "note": 69,
      "start": 0.351,
      "duration": 0.0161,
      "velocity": 124,
      "chip": "ym2612"
    },
    {
      "channel": 4,
      "note": 62,
      "start": 0.3522,
      "duration": 0.0161,
      "velocity": 120,
      "chip": "ym2612"
    },
    {
      "channel": 3,
      "note": 57,
      "start": 0.3534,
      "duration": 0.0161,
      "velocity": 120,
      "chip": "ym2612"
    },
    {
      "channel": 1,
      "note": 68,
      "start": 0.3671,
      "duration": 0.0161,
      "velocity": 124,
      "chip": "ym2612"
    },
    {
      "channel": 4,
      "note": 62,
      "start": 0.3683,
      "duration": 0.0161,
      "velocity": 120,
      "chip": "ym2612"
    },
    {
      "channel": 3,
      "note": 57,
      "start": 0.3695,
      "duration": 0.0161,
      "velocity": 120,
      "chip": "ym2612"
    },
    {
      "channel": 1,
      "note": 66,
      "start": 0.3832,
      "duration": 0.0161,
      "velocity": 124,
      "chip": "ym2612"
    },
    {
      "channel": 4,
      "note": 62,
      "start": 0.3844,
      "duration": 0.0161,
      "velocity": 120,
      "chip": "ym2612"
    },
    {
      "channel": 3,
      "note": 57,
      "start": 0.3856,
      "duration": 0.0161,
      "velocity": 120,
      "chip": "ym2612"
    },
    {
      "channel": 1,
      "note": 65,
      "start": 0.3993,
      "duration": 0.0161,
      "velocity": 124,
      "chip": "ym2612"
    },
    {
      "channel": 4,
      "note": 62,
      "start": 0.4005,
      "duration": 0.0161,
      "velocity": 120,
      "chip": "ym2612"
    },
    {
      "channel": 3,
      "note": 57,
      "start": 0.4016,
      "duration": 0.0161,
      "velocity": 120,
      "chip": "ym2612"
    },
    {
      "channel": 1,
      "note": 64,
      "start": 0.4154,
      "duration": 0.0161,
      "velocity": 124,
      "chip": "ym2612"
    },
    {
      "channel": 4,
      "note": 62,
      "start": 0.4166,
      "duration": 0.0161,
      "velocity": 120,
      "chip": "ym2612"
    },
    {
      "channel": 3,
      "note": 57,
      "start": 0.4177,
      "duration": 0.0161,
      "velocity": 120,
      "chip": "ym2612"
    },
    {
      "channel": 1,
      "note": 62,
      "start": 0.4315,
      "duration": 0.0161,
      "velocity": 124,
      "chip": "ym2612"
    },
    {
      "channel": 4,
      "note": 62,
      "start": 0.4327,
      "duration": 0.0162,
      "velocity": 120,
      "chip": "ym2612"
    },
    {
      "channel": 3,
      "note": 57,
      "start": 0.4338,
      "duration": 0.0161,
      "velocity": 120,
      "chip": "ym2612"
    },
    {
      "channel": 2,
      "note": 50,
      "start": 0.4354,
      "duration": 0.0158,
      "velocity": 100,
      "chip": "ym2612"
    },
    {
      "channel": 1,
      "note": 61,
      "start": 0.4476,
      "duration": 0.0161,
      "velocity": 124,
      "chip": "ym2612"
    },
    {
      "channel": 4,
      "note": 62,
      "start": 0.4488,
      "duration": 0.0161,
      "velocity": 120,
      "chip": "ym2612"
    },
    {
      "channel": 3,
      "note": 57,
      "start": 0.4499,
      "duration": 0.0161,
      "velocity": 120,
      "chip": "ym2612"
    },
    {
      "channel": 2,
      "note": 50,
      "start": 0.4511,
      "duration": 0.016,
      "velocity": 100,
      "chip": "ym2612"
    },
    {
      "channel": 1,
      "note": 60,
      "start": 0.4637,
      "duration": 0.0161,
      "velocity": 124,
      "chip": "ym2612"
    },
    {
      "channel": 4,
      "note": 62,
      "start": 0.4649,
      "duration": 0.0161,
      "velocity": 120,
      "chip": "ym2612"
    },
    {
      "channel": 3,
      "note": 57,
      "start": 0.466,
      "duration": 0.0161,
      "velocity": 120,
      "chip": "ym2612"
    },
    {
      "channel": 2,
      "note": 50,
      "start": 0.4672,
      "duration": 0.0161,
      "velocity": 100,
      "chip": "ym2612"
    },
    {
      "channel": 1,
      "note": 59,
      "start": 0.4798,
      "duration": 0.0162,
      "velocity": 124,
      "chip": "ym2612"
    },
    {
      "channel": 4,
      "note": 62,
      "start": 0.481,
      "duration": 0.0161,
      "velocity": 120,
      "chip": "ym2612"
    },
    {
      "channel": 3,
      "note": 57,
      "start": 0.4821,
      "duration": 0.0162,
      "velocity": 120,
      "chip": "ym2612"
    },
    {
      "channel": 2,
      "note": 50,
      "start": 0.4833,
      "duration": 0.0161,
      "velocity": 100,
      "chip": "ym2612"
    },
    {
      "channel": 1,
      "note": 57,
      "start": 0.4959,
      "duration": 0.0161,
      "velocity": 124,
      "chip": "ym2612"
    },
    {
      "channel": 4,
      "note": 62,
      "start": 0.4971,
      "duration": 0.0161,
      "velocity": 120,
      "chip": "ym2612"
    },
    {
      "channel": 3,
      "note": 57,
      "start": 0.4983,
      "duration": 0.0161,
      "velocity": 120,
      "chip": "ym2612"
    },
    {
      "channel": 2,
      "note": 50,
      "start": 0.4993,
      "duration": 0.0161,
      "velocity": 100,
      "chip": "ym2612"
    },
    {
      "channel": 1,
      "note": 56,
      "start": 0.512,
      "duration": 0.0161,
      "velocity": 124,
      "chip": "ym2612"
    },
    {
      "channel": 4,
      "note": 62,
      "start": 0.5132,
      "duration": 0.0161,
      "velocity": 120,
      "chip": "ym2612"
    },
    {
      "channel": 3,
      "note": 57,
      "start": 0.5144,
      "duration": 0.0161,
      "velocity": 120,
      "chip": "ym2612"
    },
    {
      "channel": 2,
      "note": 50,
      "start": 0.5154,
      "duration": 0.0162,
      "velocity": 100,
      "chip": "ym2612"
    },
    {
      "channel": 1,
      "note": 55,
      "start": 0.5281,
      "duration": 0.0161,
      "velocity": 124,
      "chip": "ym2612"
    },
    {
      "channel": 4,
      "note": 62,
      "start": 0.5293,
      "duration": 0.0161,
      "velocity": 120,
      "chip": "ym2612"
    },
    {
      "channel": 3,
      "note": 57,
      "start": 0.5305,
      "duration": 0.0161,
      "velocity": 120,
      "chip": "ym2612"
    },
    {
      "channel": 2,
      "note": 50,
      "start": 0.5316,
      "duration": 0.0161,
      "velocity": 100,
      "chip": "ym2612"
    },
    {
      "channel": 1,
      "note": 53,
      "start": 0.5442,
      "duration": 0.0161,
      "velocity": 124,
      "chip": "ym2612"
    },
    {
      "channel": 4,
      "note": 62,
      "start": 0.5454,
      "duration": 0.0161,
      "velocity": 120,
      "chip": "ym2612"
    },
    {
      "channel": 3,
      "note": 57,
      "start": 0.5466,
      "duration": 0.0161,
      "velocity": 120,
      "chip": "ym2612"
    },
    {
      "channel": 1,
      "note": 52,
      "start": 0.5603,
      "duration": 0.0169,
      "velocity": 124,
      "chip": "ym2612"
    },
    {
      "channel": 4,
      "note": 62,
      "start": 0.5615,
      "duration": 0.017,
      "velocity": 120,
      "chip": "ym2612"
    },
    {
      "channel": 3,
      "note": 57,
      "start": 0.5627,
      "duration": 0.017,
      "velocity": 120,
      "chip": "ym2612"
    },
    {
      "channel": 1,
      "note": 51,
      "start": 0.5772,
      "duration": 0.0159,
      "velocity": 1,
      "chip": "ym2612"
    },
    {
      "channel": 4,
      "note": 62,
      "start": 0.5785,
      "duration": 0.0159,
      "velocity": 120,
      "chip": "ym2612"
    },
    {
      "channel": 3,
      "note": 57,
      "start": 0.5796,
      "duration": 0.0158,
      "velocity": 120,
      "chip": "ym2612"
    },
    {
      "channel": 4,
      "note": 62,
      "start": 0.5943,
      "duration": 0.0155,
      "velocity": 120,
      "chip": "ym2612"
    },
    {
      "channel": 3,
      "note": 57,
      "start": 0.5955,
      "duration": 0.0155,
      "velocity": 120,
      "chip": "ym2612"
    },
    {
      "channel": 4,
      "note": 62,
      "start": 0.6098,
      "duration": 0.0151,
      "velocity": 120,
      "chip": "ym2612"
    },
    {
      "channel": 3,
      "note": 57,
      "start": 0.6109,
      "duration": 0.0151,
      "velocity": 120,
      "chip": "ym2612"
    },
    {
      "channel": 4,
      "note": 62,
      "start": 0.6249,
      "duration": 0.0182,
      "velocity": 120,
      "chip": "ym2612"
    },
    {
      "channel": 3,
      "note": 57,
      "start": 0.6261,
      "duration": 0.0182,
      "velocity": 120,
      "chip": "ym2612"
    },
    {
      "channel": 2,
      "note": 50,
      "start": 0.6276,
      "duration": 0.0179,
      "velocity": 100,
      "chip": "ym2612"
    },
    {
      "channel": 1,
      "note": 38,
      "start": 0.6291,
      "duration": 0.0175,
      "velocity": 100,
      "chip": "ym2612"
    },
    {
      "channel": 4,
      "note": 62,
      "start": 0.6431,
      "duration": 0.0161,
      "velocity": 120,
      "chip": "ym2612"
    },
    {
      "channel": 3,
      "note": 57,
      "start": 0.6443,
      "duration": 0.0161,
      "velocity": 120,
      "chip": "ym2612"
    },
    {
      "channel": 2,
      "note": 50,
      "start": 0.6455,
      "duration": 0.016,
      "velocity": 100,
      "chip": "ym2612"
    },
    {
      "channel": 1,
      "note": 38,
      "start": 0.6466,
      "duration": 0.016,
      "velocity": 100,
      "chip": "ym2612"
    },
    {
      "channel": 4,
      "note": 62,
      "start": 0.6592,
      "duration": 0.0157,
      "velocity": 120,
      "chip": "ym2612"
    },
    {
      "channel": 3,
      "note": 57,
      "start": 0.6604,
      "duration": 0.0158,
      "velocity": 120,
      "chip": "ym2612"
    },
    {
      "channel": 2,
      "note": 50,
      "start": 0.6615,
      "duration": 0.0157,
      "velocity": 100,
      "chip": "ym2612"
    },
    {
      "channel": 1,
      "note": 38,
      "start": 0.6627,
      "duration": 0.0157,
      "velocity": 100,
      "chip": "ym2612"
    },
    {
      "channel": 4,
      "note": 62,
      "start": 0.6749,
      "duration": 0.0137,
      "velocity": 120,
      "chip": "ym2612"
    },
    {
      "channel": 3,
      "note": 57,
      "start": 0.6761,
      "duration": 0.014,
      "velocity": 120,
      "chip": "ym2612"
    },
    {
      "channel": 2,
      "note": 50,
      "start": 0.6772,
      "duration": 0.0141,
      "velocity": 100,
      "chip": "ym2612"
    },
    {
      "channel": 1,
      "note": 38,
      "start": 0.6784,
      "duration": 0.0141,
      "velocity": 100,
      "chip": "ym2612"
    },
    {
      "channel": 4,
      "note": 62,
      "start": 0.6887,
      "duration": 0.0161,
      "velocity": 120,
      "chip": "ym2612"
    },
    {
      "channel": 3,
      "note": 57,
      "start": 0.6901,
      "duration": 0.0185,
      "velocity": 120,
      "chip": "ym2612"
    },
    {
      "channel": 2,
      "note": 50,
      "start": 0.6913,
      "duration": 0.0185,
      "velocity": 100,
      "chip": "ym2612"
    },
    {
      "channel": 1,
      "note": 38,
      "start": 0.6924,
      "duration": 0.0185,
      "velocity": 100,
      "chip": "ym2612"
    },
    {
      "channel": 4,
      "note": 62,
      "start": 0.7048,
      "duration": 0.0161,
      "velocity": 120,
      "chip": "ym2612"
    },
    {
      "channel": 3,
      "note": 57,
      "start": 0.7086,
      "duration": 0.0134,
      "velocity": 120,
      "chip": "ym2612"
    },
    {
      "channel": 2,
      "note": 50,
      "start": 0.7098,
      "duration": 0.0161,
      "velocity": 100,
      "chip": "ym2612"
    },
    {
      "channel": 1,
      "note": 38,
      "start": 0.7109,
      "duration": 0.0161,
      "velocity": 100,
      "chip": "ym2612"
    },
    {
      "channel": 4,
      "note": 62,
      "start": 0.7209,
      "duration": 0.0161,
      "velocity": 120,
      "chip": "ym2612"
    },
    {
      "channel": 3,
      "note": 57,
      "start": 0.722,
      "duration": 0.0161,
      "velocity": 120,
      "chip": "ym2612"
    },
    {
      "channel": 2,
      "note": 50,
      "start": 0.7259,
      "duration": 0.0157,
      "velocity": 100,
      "chip": "ym2612"
    },
    {
      "channel": 1,
      "note": 38,
      "start": 0.727,
      "duration": 0.0158,
      "velocity": 100,
      "chip": "ym2612"
    },
    {
      "channel": 4,
      "note": 62,
      "start": 0.737,
      "duration": 0.0161,
      "velocity": 120,
      "chip": "ym2612"
    },
    {
      "channel": 3,
      "note": 57,
      "start": 0.7381,
      "duration": 0.0161,
      "velocity": 120,
      "chip": "ym2612"
    },
    {
      "channel": 4,
      "note": 62,
      "start": 0.7531,
      "duration": 0.0161,
      "velocity": 120,
      "chip": "ym2612"
    },
    {
      "channel": 3,
      "note": 57,
      "start": 0.7542,
      "duration": 0.0161,
      "velocity": 120,
      "chip": "ym2612"
    },
    {
      "channel": 4,
      "note": 62,
      "start": 0.7692,
      "duration": 0.0161,
      "velocity": 120,
      "chip": "ym2612"
    },
    {
      "channel": 3,
      "note": 57,
      "start": 0.7703,
      "duration": 0.0161,
      "velocity": 120,
      "chip": "ym2612"
    },
    {
      "channel": 4,
      "note": 62,
      "start": 0.7853,
      "duration": 0.0161,
      "velocity": 120,
      "chip": "ym2612"
    },
    {
      "channel": 3,
      "note": 57,
      "start": 0.7864,
      "duration": 0.0161,
      "velocity": 120,
      "chip": "ym2612"
    },
    {
      "channel": 4,
      "note": 62,
      "start": 0.8014,
      "duration": 0.0161,
      "velocity": 120,
      "chip": "ym2612"
    },
    {
      "channel": 3,
      "note": 57,
      "start": 0.8025,
      "duration": 0.0161,
      "velocity": 120,
      "chip": "ym2612"
    },
    {
      "channel": 4,
      "note": 62,
      "start": 0.8175,
      "duration": 0.0161,
      "velocity": 120,
      "chip": "ym2612"
    },
    {
      "channel": 3,
      "note": 57,
      "start": 0.8186,
      "duration": 0.0161,
      "velocity": 120,
      "chip": "ym2612"
    },
    {
      "channel": 2,
      "note": 50,
      "start": 0.8202,
      "duration": 0.0158,
      "velocity": 100,
      "chip": "ym2612"
    },
    {
      "channel": 1,
      "note": 38,
      "start": 0.8217,
      "duration": 0.0154,
      "velocity": 100,
      "chip": "ym2612"
    },
    {
      "channel": 4,
      "note": 62,
      "start": 0.8336,
      "duration": 0.0161,
      "velocity": 120,
      "chip": "ym2612"
    },
    {
      "channel": 3,
      "note": 57,
      "start": 0.8347,
      "duration": 0.0161,
      "velocity": 120,
      "chip": "ym2612"
    },
    {
      "channel": 2,
      "note": 50,
      "start": 0.8359,
      "duration": 0.016,
      "velocity": 100,
      "chip": "ym2612"
    },
    {
      "channel": 1,
      "note": 38,
      "start": 0.8371,
      "duration": 0.016,
      "velocity": 100,
      "chip": "ym2612"
    },
    {
      "channel": 4,
      "note": 62,
      "start": 0.8497,
      "duration": 0.0162,
      "velocity": 120,
      "chip": "ym2612"
    },
    {
      "channel": 3,
      "note": 57,
      "start": 0.8508,
      "duration": 0.0161,
      "velocity": 120,
      "chip": "ym2612"
    },
    {
      "channel": 2,
      "note": 50,
      "start": 0.852,
      "duration": 0.0161,
      "velocity": 100,
      "chip": "ym2612"
    },
    {
      "channel": 1,
      "note": 38,
      "start": 0.8531,
      "duration": 0.0161,
      "velocity": 100,
      "chip": "ym2612"
    },
    {
      "channel": 4,
      "note": 62,
      "start": 0.8658,
      "duration": 0.0161,
      "velocity": 120,
      "chip": "ym2612"
    },
    {
      "channel": 3,
      "note": 57,
      "start": 0.8669,
      "duration": 0.0161,
      "velocity": 120,
      "chip": "ym2612"
    },
    {
      "channel": 2,
      "note": 50,
      "start": 0.868,
      "duration": 0.0161,
      "velocity": 100,
      "chip": "ym2612"
    },
    {
      "channel": 1,
      "note": 38,
      "start": 0.8692,
      "duration": 0.0161,
      "velocity": 100,
      "chip": "ym2612"
    },
    {
      "channel": 4,
      "note": 62,
      "start": 0.8819,
      "duration": 0.0161,
      "velocity": 120,
      "chip": "ym2612"
    },
    {
      "channel": 3,
      "note": 57,
      "start": 0.8831,
      "duration": 0.0161,
      "velocity": 120,
      "chip": "ym2612"
    },
    {
      "channel": 2,
      "note": 50,
      "start": 0.8841,
      "duration": 0.0161,
      "velocity": 100,
      "chip": "ym2612"
    },
    {
      "channel": 1,
      "note": 38,
      "start": 0.8853,
      "duration": 0.0161,
      "velocity": 100,
      "chip": "ym2612"
    },
    {
      "channel": 4,
      "note": 62,
      "start": 0.898,
      "duration": 0.0161,
      "velocity": 120,
      "chip": "ym2612"
    },
    {
      "channel": 3,
      "note": 57,
      "start": 0.8992,
      "duration": 0.0161,
      "velocity": 120,
      "chip": "ym2612"
    },
    {
      "channel": 2,
      "note": 50,
      "start": 0.9002,
      "duration": 0.0161,
      "velocity": 100,
      "chip": "ym2612"
    },
    {
      "channel": 1,
      "note": 38,
      "start": 0.9014,
      "duration": 0.0161,
      "velocity": 100,
      "chip": "ym2612"
    },
    {
      "channel": 4,
      "note": 62,
      "start": 0.9141,
      "duration": 0.0161,
      "velocity": 120,
      "chip": "ym2612"
    },
    {
      "channel": 3,
      "note": 57,
      "start": 0.9153,
      "duration": 0.0161,
      "velocity": 120,
      "chip": "ym2612"
    },
    {
      "channel": 2,
      "note": 50,
      "start": 0.9163,
      "duration": 0.0162,
      "velocity": 100,
      "chip": "ym2612"
    },
    {
      "channel": 1,
      "note": 38,
      "start": 0.9175,
      "duration": 0.0162,
      "velocity": 100,
      "chip": "ym2612"
    },
    {
      "channel": 4,
      "note": 62,
      "start": 0.9302,
      "duration": 0.0161,
      "velocity": 120,
      "chip": "ym2612"
    },
    {
      "channel": 3,
      "note": 57,
      "start": 0.9314,
      "duration": 0.0161,
      "velocity": 120,
      "chip": "ym2612"
    },
    {
      "channel": 4,
      "note": 62,
      "start": 0.9463,
      "duration": 0.0161,
      "velocity": 120,
      "chip": "ym2612"
    },
    {
      "channel": 3,
      "note": 57,
      "start": 0.9474,
      "duration": 0.0161,
      "velocity": 120,
      "chip": "ym2612"
    },
    {
      "channel": 4,
      "note": 62,
      "start": 0.9624,
      "duration": 0.0161,
      "velocity": 120,
      "chip": "ym2612"
    },
    {
      "channel": 3,
      "note": 57,
      "start": 0.9635,
      "duration": 0.0161,
      "velocity": 120,
      "chip": "ym2612"
    },
    {
      "channel": 4,
      "note": 62,
      "start": 0.9785,
      "duration": 0.0161,
      "velocity": 120,
      "chip": "ym2612"
    },
    {
      "channel": 3,
      "note": 57,
      "start": 0.9796,
      "duration": 0.0161,
      "velocity": 120,
      "chip": "ym2612"
    },
    {
      "channel": 4,
      "note": 62,
      "start": 0.9946,
      "duration": 0.0196,
      "velocity": 120,
      "chip": "ym2612"
    },
    {
      "channel": 3,
      "note": 57,
      "start": 0.9957,
      "duration": 0.0196,
      "velocity": 120,
      "chip": "ym2612"
    },
    {
      "channel": 1,
      "note": 78,
      "start": 1.0129,
      "duration": 0.0144,
      "velocity": 124,
      "chip": "ym2612"
    },
    {
      "channel": 4,
      "note": 62,
      "start": 1.0142,
      "duration": 0.0143,
      "velocity": 120,
      "chip": "ym2612"
    },
    {
      "channel": 3,
      "note": 57,
      "start": 1.0153,
      "duration": 0.0143,
      "velocity": 120,
      "chip": "ym2612"
    },
    {
      "channel": 2,
      "note": 50,
      "start": 1.0168,
      "duration": 0.014,
      "velocity": 100,
      "chip": "ym2612"
    },
    {
      "channel": 1,
      "note": 76,
      "start": 1.0273,
      "duration": 0.0166,
      "velocity": 124,
      "chip": "ym2612"
    },
    {
      "channel": 4,
      "note": 62,
      "start": 1.0285,
      "duration": 0.0167,
      "velocity": 120,
      "chip": "ym2612"
    },
    {
      "channel": 3,
      "note": 57,
      "start": 1.0296,
      "duration": 0.0167,
      "velocity": 120,
      "chip": "ym2612"
    },
    {
      "channel": 2,
      "note": 50,
      "start": 1.0308,
      "duration": 0.0166,
      "velocity": 100,
      "chip": "ym2612"
    },
    {
      "channel": 1,
      "note": 75,
      "start": 1.0439,
      "duration": 0.0167,
      "velocity": 124,
      "chip": "ym2612"
    },
    {
      "channel": 4,
      "note": 62,
      "start": 1.0451,
      "duration": 0.0167,
      "velocity": 120,
      "chip": "ym2612"
    },
    {
      "channel": 3,
      "note": 57,
      "start": 1.0463,
      "duration": 0.0167,
      "velocity": 120,
      "chip": "ym2612"
    },
    {
      "channel": 2,
      "note": 50,
      "start": 1.0474,
      "duration": 0.0167,
      "velocity": 100,
      "chip": "ym2612"
    },
    {
      "channel": 1,
      "note": 74,
      "start": 1.0605,
      "duration": 0.0163,
      "velocity": 124,
      "chip": "ym2612"
    },
    {
      "channel": 4,
      "note": 62,
      "start": 1.0618,
      "duration": 0.0163,
      "velocity": 120,
      "chip": "ym2612"
    },
    {
      "channel": 3,
      "note": 57,
      "start": 1.063,
      "duration": 0.0163,
      "velocity": 120,
      "chip": "ym2612"
    },
    {
      "channel": 2,
      "note": 50,
      "start": 1.0641,
      "duration": 0.0163,
      "velocity": 100,
      "chip": "ym2612"
    },
    {
      "channel": 1,
      "note": 72,
      "start": 1.0769,
      "duration": 0.0148,
      "velocity": 124,
      "chip": "ym2612"
    },
    {
      "channel": 4,
      "note": 62,
      "start": 1.0781,
      "duration": 0.0148,
      "velocity": 120,
      "chip": "ym2612"
    },
    {
      "channel": 3,
      "note": 57,
      "start": 1.0793,
      "duration": 0.0148,
      "velocity": 120,
      "chip": "ym2612"
    },
    {
      "channel": 2,
      "note": 50,
      "start": 1.0804,
      "duration": 0.0148,
      "velocity": 100,
      "chip": "ym2612"
    },
    {
      "channel": 1,
      "note": 71,
      "start": 1.0917,
      "duration": 0.0206,
      "velocity": 124,
      "chip": "ym2612"
    },
    {
      "channel": 4,
      "note": 62,
      "start": 1.0929,
      "duration": 0.0207,
      "velocity": 120,
      "chip": "ym2612"
    },
    {
      "channel": 3,
      "note": 57,
      "start": 1.094,
      "duration": 0.0207,
      "velocity": 120,
      "chip": "ym2612"
    },
    {
      "channel": 2,
      "note": 50,
      "start": 1.0951,
      "duration": 0.0206,
      "velocity": 100,
      "chip": "ym2612"
    },
    {
      "channel": 1,
      "note": 78,
      "start": 1.1123,
      "duration": 0.0144,
      "velocity": 124,
      "chip": "ym2612"
    },
    {
      "channel": 4,
      "note": 62,
      "start": 1.1135,
      "duration": 0.0143,
      "velocity": 120,
      "chip": "ym2612"
    },
    {
      "channel": 3,
      "note": 57,
      "start": 1.1147,
      "duration": 0.0143,
      "velocity": 120,
      "chip": "ym2612"
    },
    {
      "channel": 2,
      "note": 50,
      "start": 1.1158,
      "duration": 0.0144,
      "velocity": 100,
      "chip": "ym2612"
    },
    {
      "channel": 1,
      "note": 76,
      "start": 1.1266,
      "duration": 0.0157,
      "velocity": 124,
      "chip": "ym2612"
    },
    {
      "channel": 4,
      "note": 62,
      "start": 1.1278,
      "duration": 0.0157,
      "velocity": 120,
      "chip": "ym2612"
    },
    {
      "channel": 3,
      "note": 57,
      "start": 1.129,
      "duration": 0.0157,
      "velocity": 120,
      "chip": "ym2612"
    },
    {
      "channel": 1,
      "note": 75,
      "start": 1.1424,
      "duration": 0.014,
      "velocity": 124,
      "chip": "ym2612"
    },
    {
      "channel": 4,
      "note": 62,
      "start": 1.1436,
      "duration": 0.0141,
      "velocity": 120,
      "chip": "ym2612"
    },
    {
      "channel": 3,
      "note": 57,
      "start": 1.1447,
      "duration": 0.014,
      "velocity": 120,
      "chip": "ym2612"
    },
    {
      "channel": 1,
      "note": 74,
      "start": 1.1563,
      "duration": 0.0158,
      "velocity": 124,
      "chip": "ym2612"
    },
    {
      "channel": 4,
      "note": 62,
      "start": 1.1576,
      "duration": 0.0185,
      "velocity": 120,
      "chip": "ym2612"
    },
    {
      "channel": 3,
      "note": 57,
      "start": 1.1587,
      "duration": 0.0186,
      "velocity": 120,
      "chip": "ym2612"
    },
    {
      "channel": 1,
      "note": 72,
      "start": 1.1721,
      "duration": 0.0161,
      "velocity": 124,
      "chip": "ym2612"
    },
    {
      "channel": 4,
      "note": 62,
      "start": 1.1761,
      "duration": 0.0161,
      "velocity": 120,
      "chip": "ym2612"
    },
    {
      "channel": 3,
      "note": 57,
      "start": 1.1773,
      "duration": 0.0161,
      "velocity": 120,
      "chip": "ym2612"
    },
    {
      "channel": 1,
      "note": 71,
      "start": 1.1882,
      "duration": 0.0202,
      "velocity": 124,
      "chip": "ym2612"
    },
    {
      "channel": 4,
      "note": 62,
      "start": 1.1922,
      "duration": 0.0176,
      "velocity": 120,
      "chip": "ym2612"
    },
    {
      "channel": 3,
      "note": 57,
      "start": 1.1934,
      "duration": 0.0175,
      "velocity": 120,
      "chip": "ym2612"
    },
    {
      "channel": 1,
      "note": 78,
      "start": 1.2085,
      "duration": 0.012,
      "velocity": 124,
      "chip": "ym2612"
    },
    {
      "channel": 4,
      "note": 62,
      "start": 1.2098,
      "duration": 0.012,
      "velocity": 120,
      "chip": "ym2612"
    },
    {
      "channel": 3,
      "note": 57,
      "start": 1.2109,
      "duration": 0.0123,
      "velocity": 120,
      "chip": "ym2612"
    },
    {
      "channel": 2,
      "note": 50,
      "start": 1.2124,
      "duration": 0.012,
      "velocity": 100,
      "chip": "ym2612"
    },
    {
      "channel": 1,
      "note": 76,
      "start": 1.2205,
      "duration": 0.0161,
      "velocity": 124,
      "chip": "ym2612"
    },
    {
      "channel": 4,
      "note": 62,
      "start": 1.2217,
      "duration": 0.016,
      "velocity": 120,
      "chip": "ym2612"
    },
    {
      "channel": 3,
      "note": 57,
      "start": 1.2232,
      "duration": 0.0157,
      "velocity": 120,
      "chip": "ym2612"
    },
    {
      "channel": 2,
      "note": 50,
      "start": 1.2244,
      "duration": 0.0185,
      "velocity": 100,
      "chip": "ym2612"
    },
    {
      "channel": 1,
      "note": 75,
      "start": 1.2366,
      "duration": 0.0161,
      "velocity": 124,
      "chip": "ym2612"
    },
    {
      "channel": 4,
      "note": 62,
      "start": 1.2378,
      "duration": 0.0161,
      "velocity": 120,
      "chip": "ym2612"
    },
    {
      "channel": 3,
      "note": 57,
      "start": 1.2389,
      "duration": 0.0161,
      "velocity": 120,
      "chip": "ym2612"
    },
    {
      "channel": 2,
      "note": 50,
      "start": 1.2428,
      "duration": 0.0161,
      "velocity": 100,
      "chip": "ym2612"
    },
    {
      "channel": 1,
      "note": 74,
      "start": 1.2527,
      "duration": 0.0161,
      "velocity": 124,
      "chip": "ym2612"
    },
    {
      "channel": 4,
      "note": 62,
      "start": 1.2539,
      "duration": 0.0161,
      "velocity": 120,
      "chip": "ym2612"
    },
    {
      "channel": 3,
      "note": 57,
      "start": 1.255,
      "duration": 0.0161,
      "velocity": 120,
      "chip": "ym2612"
    },
    {
      "channel": 2,
      "note": 50,
      "start": 1.2589,
      "duration": 0.0134,
      "velocity": 100,
      "chip": "ym2612"
    },
    {
      "channel": 1,
      "note": 72,
      "start": 1.2688,
      "duration": 0.0161,
      "velocity": 124,
      "chip": "ym2612"
    },
    {
      "channel": 4,
      "note": 62,
      "start": 1.27,
      "duration": 0.0161,
      "velocity": 120,
      "chip": "ym2612"
    },
    {
      "channel": 3,
      "note": 57,
      "start": 1.2711,
      "duration": 0.0161,
      "velocity": 120,
      "chip": "ym2612"
    },
    {
      "channel": 2,
      "note": 50,
      "start": 1.2722,
      "duration": 0.0161,
      "velocity": 100,
      "chip": "ym2612"
    },
    {
      "channel": 1,
      "note": 71,
      "start": 1.2849,
      "duration": 0.0161,
      "velocity": 124,
      "chip": "ym2612"
    },
    {
      "channel": 4,
      "note": 62,
      "start": 1.2861,
      "duration": 0.0161,
      "velocity": 120,
      "chip": "ym2612"
    },
    {
      "channel": 3,
      "note": 57,
      "start": 1.2872,
      "duration": 0.0161,
      "velocity": 120,
      "chip": "ym2612"
    },
    {
      "channel": 2,
      "note": 50,
      "start": 1.2883,
      "duration": 0.0161,
      "velocity": 100,
      "chip": "ym2612"
    },
    {
      "channel": 1,
      "note": 70,
      "start": 1.301,
      "duration": 0.0161,
      "velocity": 124,
      "chip": "ym2612"
    },
    {
      "channel": 4,
      "note": 62,
      "start": 1.3022,
      "duration": 0.0161,
      "velocity": 120,
      "chip": "ym2612"
    },
    {
      "channel": 3,
      "note": 57,
      "start": 1.3033,
      "duration": 0.0161,
      "velocity": 120,
      "chip": "ym2612"
    },
    {
      "channel": 2,
      "note": 50,
      "start": 1.3044,
      "duration": 0.0161,
      "velocity": 100,
      "chip": "ym2612"
    },
    {
      "channel": 1,
      "note": 69,
      "start": 1.317,
      "duration": 0.0161,
      "velocity": 124,
      "chip": "ym2612"
    },
    {
      "channel": 4,
      "note": 62,
      "start": 1.3183,
      "duration": 0.0161,
      "velocity": 120,
      "chip": "ym2612"
    },
    {
      "channel": 3,
      "note": 57,
      "start": 1.3194,
      "duration": 0.0162,
      "velocity": 120,
      "chip": "ym2612"
    },
    {
      "channel": 1,
      "note": 68,
      "start": 1.3331,
      "duration": 0.0161,
      "velocity": 124,
      "chip": "ym2612"
    },
    {
      "channel": 4,
      "note": 62,
      "start": 1.3344,
      "duration": 0.0161,
      "velocity": 120,
      "chip": "ym2612"
    },
    {
      "channel": 3,
      "note": 57,
      "start": 1.3356,
      "duration": 0.0161,
      "velocity": 120,
      "chip": "ym2612"
    },
    {
      "channel": 1,
      "note": 66,
      "start": 1.3492,
      "duration": 0.0161,
      "velocity": 124,
      "chip": "ym2612"
    },
    {
      "channel": 4,
      "note": 62,
      "start": 1.3505,
      "duration": 0.0161,
      "velocity": 120,
      "chip": "ym2612"
    },
    {
      "channel": 3,
      "note": 57,
      "start": 1.3516,
      "duration": 0.0161,
      "velocity": 120,
      "chip": "ym2612"
    },
    {
      "channel": 1,
      "note": 65,
      "start": 1.3653,
      "duration": 0.0161,
      "velocity": 124,
      "chip": "ym2612"
    },
    {
      "channel": 4,
      "note": 62,
      "start": 1.3666,
      "duration": 0.0161,
      "velocity": 120,
      "chip": "ym2612"
    },
    {
      "channel": 3,
      "note": 57,
      "start": 1.3677,
      "duration": 0.0161,
      "velocity": 120,
      "chip": "ym2612"
    },
    {
      "channel": 1,
      "note": 64,
      "start": 1.3815,
      "duration": 0.0178,
      "velocity": 124,
      "chip": "ym2612"
    },
    {
      "channel": 4,
      "note": 62,
      "start": 1.3827,
      "duration": 0.0179,
      "velocity": 120,
      "chip": "ym2612"
    },
    {
      "channel": 3,
      "note": 57,
      "start": 1.3838,
      "duration": 0.0179,
      "velocity": 120,
      "chip": "ym2612"
    },
    {
      "channel": 1,
      "note": 78,
      "start": 1.3993,
      "duration": 0.0144,
      "velocity": 124,
      "chip": "ym2612"
    },
    {
      "channel": 4,
      "note": 62,
      "start": 1.4006,
      "duration": 0.0144,
      "velocity": 120,
      "chip": "ym2612"
    },
    {
      "channel": 3,
      "note": 57,
      "start": 1.4017,
      "duration": 0.0144,
      "velocity": 120,
      "chip": "ym2612"
    },
    {
      "channel": 2,
      "note": 50,
      "start": 1.4032,
      "duration": 0.014,
      "velocity": 100,
      "chip": "ym2612"
    },
    {
      "channel": 1,
      "note": 76,
      "start": 1.4137,
      "duration": 0.016,
      "velocity": 124,
      "chip": "ym2612"
    },
    {
      "channel": 4,
      "note": 62,
      "start": 1.4149,
      "duration": 0.016,
      "velocity": 120,
      "chip": "ym2612"
    },
    {
      "channel": 3,
      "note": 57,
      "start": 1.4161,
      "duration": 0.016,
      "velocity": 120,
      "chip": "ym2612"
    },
    {
      "channel": 2,
      "note": 50,
      "start": 1.4172,
      "duration": 0.016,
      "velocity": 100,
      "chip": "ym2612"
    },
    {
      "channel": 1,
      "note": 75,
      "start": 1.4298,
      "duration": 0.0161,
      "velocity": 124,
      "chip": "ym2612"
    },
    {
      "channel": 4,
      "note": 62,
      "start": 1.431,
      "duration": 0.0161,
      "velocity": 120,
      "chip": "ym2612"
    },
    {
      "channel": 3,
      "note": 57,
      "start": 1.4321,
      "duration": 0.0161,
      "velocity": 120,
      "chip": "ym2612"
    },
    {
      "channel": 2,
      "note": 50,
      "start": 1.4333,
      "duration": 0.0161,
      "velocity": 100,
      "chip": "ym2612"
    },
    {
      "channel": 1,
      "note": 74,
      "start": 1.4459,
      "duration": 0.0161,
      "velocity": 124,
      "chip": "ym2612"
    },
    {
      "channel": 4,
      "note": 62,
      "start": 1.4471,
      "duration": 0.0161,
      "velocity": 120,
      "chip": "ym2612"
    },
    {
      "channel": 3,
      "note": 57,
      "start": 1.4482,
      "duration": 0.0161,
      "velocity": 120,
      "chip": "ym2612"
    },
    {
      "channel": 2,
      "note": 50,
      "start": 1.4493,
      "duration": 0.0161,
      "velocity": 100,
      "chip": "ym2612"
    },
    {
      "channel": 1,
      "note": 72,
      "start": 1.462,
      "duration": 0.0161,
      "velocity": 124,
      "chip": "ym2612"
    },
    {
      "channel": 4,
      "note": 62,
      "start": 1.4632,
      "duration": 0.0162,
      "velocity": 120,
      "chip": "ym2612"
    },
    {
      "channel": 3,
      "note": 57,
      "start": 1.4643,
      "duration": 0.0161,
      "velocity": 120,
      "chip": "ym2612"
    },
    {
      "channel": 2,
      "note": 50,
      "start": 1.4654,
      "duration": 0.0161,
      "velocity": 100,
      "chip": "ym2612"
    },
    {
      "channel": 1,
      "note": 71,
      "start": 1.478,
      "duration": 0.0179,
      "velocity": 124,
      "chip": "ym2612"
    },
    {
      "channel": 4,
      "note": 62,
      "start": 1.4793,
      "duration": 0.0179,
      "velocity": 120,
      "chip": "ym2612"
    },
    {
      "channel": 3,
      "note": 57,
      "start": 1.4805,
      "duration": 0.0179,
      "velocity": 120,
      "chip": "ym2612"
    },
    {
      "channel": 2,
      "note": 50,
      "start": 1.4815,
      "duration": 0.0179,
      "velocity": 100,
      "chip": "ym2612"
    },
    {
      "channel": 1,
      "note": 78,
      "start": 1.496,
      "duration": 0.0146,
      "velocity": 124,
      "chip": "ym2612"
    },
    {
      "channel": 4,
      "note": 62,
      "start": 1.4972,
      "duration": 0.0147,
      "velocity": 120,
      "chip": "ym2612"
    },
    {
      "channel": 3,
      "note": 57,
      "start": 1.4983,
      "duration": 0.0146,
      "velocity": 120,
      "chip": "ym2612"
    },
    {
      "channel": 2,
      "note": 50,
      "start": 1.4994,
      "duration": 0.0147,
      "velocity": 100,
      "chip": "ym2612"
    },
    {
      "channel": 1,
      "note": 76,
      "start": 1.5106,
      "duration": 0.0167,
      "velocity": 124,
      "chip": "ym2612"
    },
    {
      "channel": 4,
      "note": 62,
      "start": 1.5119,
      "duration": 0.0166,
      "velocity": 120,
      "chip": "ym2612"
    },
    {
      "channel": 3,
      "note": 57,
      "start": 1.513,
      "duration": 0.0167,
      "velocity": 120,
      "chip": "ym2612"
    },
    {
      "channel": 1,
      "note": 75,
      "start": 1.5273,
      "duration": 0.0163,
      "velocity": 124,
      "chip": "ym2612"
    },
    {
      "channel": 4,
      "note": 62,
      "start": 1.5285,
      "duration": 0.0163,
      "velocity": 120,
      "chip": "ym2612"
    },
    {
      "channel": 3,
      "note": 57,
      "start": 1.5296,
      "duration": 0.0163,
      "velocity": 120,
      "chip": "ym2612"
    },
    {
      "channel": 1,
      "note": 74,
      "start": 1.5436,
      "duration": 0.015,
      "velocity": 124,
      "chip": "ym2612"
    },
    {
      "channel": 4,
      "note": 62,
      "start": 1.5448,
      "duration": 0.015,
      "velocity": 120,
      "chip": "ym2612"
    },
    {
      "channel": 3,
      "note": 57,
      "start": 1.5459,
      "duration": 0.015,
      "velocity": 120,
      "chip": "ym2612"
    },
    {
      "channel": 1,
      "note": 72,
      "start": 1.5586,
      "duration": 0.0186,
      "velocity": 124,
      "chip": "ym2612"
    },
    {
      "channel": 4,
      "note": 62,
      "start": 1.5598,
      "duration": 0.0187,
      "velocity": 120,
      "chip": "ym2612"
    },
    {
      "channel": 3,
      "note": 57,
      "start": 1.5609,
      "duration": 0.0187,
      "velocity": 120,
      "chip": "ym2612"
    },
    {
      "channel": 1,
      "note": 71,
      "start": 1.5772,
      "duration": 0.0181,
      "velocity": 124,
      "chip": "ym2612"
    },
    {
      "channel": 4,
      "note": 62,
      "start": 1.5785,
      "duration": 0.0181,
      "velocity": 120,
      "chip": "ym2612"
    },
    {
      "channel": 3,
      "note": 57,
      "start": 1.5796,
      "duration": 0.0181,
      "velocity": 120,
      "chip": "ym2612"
    },
    {
      "channel": 1,
      "note": 78,
      "start": 1.5953,
      "duration": 0.014,
      "velocity": 124,
      "chip": "ym2612"
    },
    {
      "channel": 4,
      "note": 62,
      "start": 1.5966,
      "duration": 0.014,
      "velocity": 120,
      "chip": "ym2612"
    },
    {
      "channel": 3,
      "note": 57,
      "start": 1.5977,
      "duration": 0.014,
      "velocity": 120,
      "chip": "ym2612"
    },
    {
      "channel": 2,
      "note": 50,
      "start": 1.5992,
      "duration": 0.0136,
      "velocity": 100,
      "chip": "ym2612"
    },
    {
      "channel": 1,
      "note": 76,
      "start": 1.6093,
      "duration": 0.0141,
      "velocity": 124,
      "chip": "ym2612"
    },
    {
      "channel": 4,
      "note": 62,
      "start": 1.6105,
      "duration": 0.014,
      "velocity": 120,
      "chip": "ym2612"
    },
    {
      "channel": 3,
      "note": 57,
      "start": 1.6117,
      "duration": 0.014,
      "velocity": 120,
      "chip": "ym2612"
    },
    {
      "channel": 2,
      "note": 50,
      "start": 1.6128,
      "duration": 0.0139,
      "velocity": 100,
      "chip": "ym2612"
    },
    {
      "channel": 1,
      "note": 75,
      "start": 1.6233,
      "duration": 0.0157,
      "velocity": 124,
      "chip": "ym2612"
    },
    {
      "channel": 4,
      "note": 62,
      "start": 1.6245,
      "duration": 0.0185,
      "velocity": 120,
      "chip": "ym2612"
    },
    {
      "channel": 3,
      "note": 57,
      "start": 1.6257,
      "duration": 0.0185,
      "velocity": 120,
      "chip": "ym2612"
    },
    {
      "channel": 2,
      "note": 50,
      "start": 1.6268,
      "duration": 0.0185,
      "velocity": 100,
      "chip": "ym2612"
    },
    {
      "channel": 1,
      "note": 74,
      "start": 1.639,
      "duration": 0.0161,
      "velocity": 124,
      "chip": "ym2612"
    },
    {
      "channel": 4,
      "note": 62,
      "start": 1.6431,
      "duration": 0.0161,
      "velocity": 120,
      "chip": "ym2612"
    },
    {
      "channel": 3,
      "note": 57,
      "start": 1.6442,
      "duration": 0.0161,
      "velocity": 120,
      "chip": "ym2612"
    },
    {
      "channel": 2,
      "note": 50,
      "start": 1.6453,
      "duration": 0.0161,
      "velocity": 100,
      "chip": "ym2612"
    },
    {
      "channel": 1,
      "note": 72,
      "start": 1.6551,
      "duration": 0.0161,
      "velocity": 124,
      "chip": "ym2612"
    },
    {
      "channel": 4,
      "note": 62,
      "start": 1.6591,
      "duration": 0.0134,
      "velocity": 120,
      "chip": "ym2612"
    },
    {
      "channel": 3,
      "note": 57,
      "start": 1.6603,
      "duration": 0.0158,
      "velocity": 120,
      "chip": "ym2612"
    },
    {
      "channel": 2,
      "note": 50,
      "start": 1.6614,
      "duration": 0.0157,
      "velocity": 100,
      "chip": "ym2612"
    },
    {
      "channel": 1,
      "note": 71,
      "start": 1.6713,
      "duration": 0.0178,
      "velocity": 124,
      "chip": "ym2612"
    },
    {
      "channel": 4,
      "note": 62,
      "start": 1.6725,
      "duration": 0.0182,
      "velocity": 120,
      "chip": "ym2612"
    },
    {
      "channel": 3,
      "note": 57,
      "start": 1.6761,
      "duration": 0.0158,
      "velocity": 120,
      "chip": "ym2612"
    },
    {
      "channel": 2,
      "note": 50,
      "start": 1.6771,
      "duration": 0.0159,
      "velocity": 100,
      "chip": "ym2612"
    },
    {
      "channel": 1,
      "note": 78,
      "start": 1.6892,
      "duration": 0.0144,
      "velocity": 124,
      "chip": "ym2612"
    },
    {
      "channel": 4,
      "note": 62,
      "start": 1.6907,
      "duration": 0.0141,
      "velocity": 120,
      "chip": "ym2612"
    },
    {
      "channel": 3,
      "note": 57,
      "start": 1.6918,
      "duration": 0.0141,
      "velocity": 120,
      "chip": "ym2612"
    },
    {
      "channel": 2,
      "note": 50,
      "start": 1.693,
      "duration": 0.0168,
      "velocity": 100,
      "chip": "ym2612"
    },
    {
      "channel": 1,
      "note": 76,
      "start": 1.7036,
      "duration": 0.016,
      "velocity": 124,
      "chip": "ym2612"
    },
    {
      "channel": 4,
      "note": 62,
      "start": 1.7048,
      "duration": 0.016,
      "velocity": 120,
      "chip": "ym2612"
    },
    {
      "channel": 3,
      "note": 57,
      "start": 1.7059,
      "duration": 0.016,
      "velocity": 120,
      "chip": "ym2612"
    },
    {
      "channel": 1,
      "note": 75,
      "start": 1.7196,
      "duration": 0.0161,
      "velocity": 124,
      "chip": "ym2612"
    },
    {
      "channel": 4,
      "note": 62,
      "start": 1.7208,
      "duration": 0.0161,
      "velocity": 120,
      "chip": "ym2612"
    },
    {
      "channel": 3,
      "note": 57,
      "start": 1.7219,
      "duration": 0.0161,
      "velocity": 120,
      "chip": "ym2612"
    },
    {
      "channel": 1,
      "note": 74,
      "start": 1.7357,
      "duration": 0.0161,
      "velocity": 124,
      "chip": "ym2612"
    },
    {
      "channel": 4,
      "note": 62,
      "start": 1.7369,
      "duration": 0.0161,
      "velocity": 120,
      "chip": "ym2612"
    },
    {
      "channel": 3,
      "note": 57,
      "start": 1.738,
      "duration": 0.0161,
      "velocity": 120,
      "chip": "ym2612"
    },
    {
      "channel": 1,
      "note": 72,
      "start": 1.7518,
      "duration": 0.0161,
      "velocity": 124,
      "chip": "ym2612"
    },
    {
      "channel": 4,
      "note": 62,
      "start": 1.753,
      "duration": 0.0161,
      "velocity": 120,
      "chip": "ym2612"
    },
    {
      "channel": 3,
      "note": 57,
      "start": 1.7541,
      "duration": 0.0161,
      "velocity": 120,
      "chip": "ym2612"
    },
    {
      "channel": 1,
      "note": 71,
      "start": 1.7679,
      "duration": 0.0179,
      "velocity": 124,
      "chip": "ym2612"
    },
    {
      "channel": 4,
      "note": 62,
      "start": 1.7691,
      "duration": 0.0179,
      "velocity": 120,
      "chip": "ym2612"
    },
    {
      "channel": 3,
      "note": 57,
      "start": 1.7702,
      "duration": 0.0179,
      "velocity": 120,
      "chip": "ym2612"
    },
    {
      "channel": 1,
      "note": 78,
      "start": 1.7858,
      "duration": 0.0143,
      "velocity": 124,
      "chip": "ym2612"
    },
    {
      "channel": 4,
      "note": 62,
      "start": 1.787,
      "duration": 0.0144,
      "velocity": 120,
      "chip": "ym2612"
    },
    {
      "channel": 3,
      "note": 57,
      "start": 1.7882,
      "duration": 0.0144,
      "velocity": 120,
      "chip": "ym2612"
    },
    {
      "channel": 2,
      "note": 50,
      "start": 1.7924,
      "duration": 0.0112,
      "velocity": 100,
      "chip": "ym2612"
    },
    {
      "channel": 1,
      "note": 76,
      "start": 1.8001,
      "duration": 0.0161,
      "velocity": 124,
      "chip": "ym2612"
    },
    {
      "channel": 4,
      "note": 62,
      "start": 1.8014,
      "duration": 0.016,
      "velocity": 120,
      "chip": "ym2612"
    },
    {
      "channel": 3,
      "note": 57,
      "start": 1.8025,
      "duration": 0.016,
      "velocity": 120,
      "chip": "ym2612"
    },
    {
      "channel": 2,
      "note": 50,
      "start": 1.8037,
      "duration": 0.016,
      "velocity": 100,
      "chip": "ym2612"
    },
    {
      "channel": 1,
      "note": 75,
      "start": 1.8162,
      "duration": 0.0161,
      "velocity": 124,
      "chip": "ym2612"
    },
    {
      "channel": 4,
      "note": 62,
      "start": 1.8174,
      "duration": 0.0161,
      "velocity": 120,
      "chip": "ym2612"
    },
    {
      "channel": 3,
      "note": 57,
      "start": 1.8186,
      "duration": 0.0161,
      "velocity": 120,
      "chip": "ym2612"
    },
    {
      "channel": 2,
      "note": 50,
      "start": 1.8197,
      "duration": 0.0161,
      "velocity": 100,
      "chip": "ym2612"
    },
    {
      "channel": 1,
      "note": 74,
      "start": 1.8323,
      "duration": 0.0161,
      "velocity": 124,
      "chip": "ym2612"
    },
    {
      "channel": 4,
      "note": 62,
      "start": 1.8335,
      "duration": 0.0161,
      "velocity": 120,
      "chip": "ym2612"
    },
    {
      "channel": 3,
      "note": 57,
      "start": 1.8346,
      "duration": 0.0161,
      "velocity": 120,
      "chip": "ym2612"
    },
    {
      "channel": 2,
      "note": 50,
      "start": 1.8358,
      "duration": 0.0161,
      "velocity": 100,
      "chip": "ym2612"
    },
    {
      "channel": 1,
      "note": 72,
      "start": 1.8484,
      "duration": 0.0161,
      "velocity": 124,
      "chip": "ym2612"
    },
    {
      "channel": 4,
      "note": 62,
      "start": 1.8496,
      "duration": 0.0161,
      "velocity": 120,
      "chip": "ym2612"
    },
    {
      "channel": 3,
      "note": 57,
      "start": 1.8507,
      "duration": 0.0161,
      "velocity": 120,
      "chip": "ym2612"
    },
    {
      "channel": 2,
      "note": 50,
      "start": 1.8519,
      "duration": 0.0161,
      "velocity": 100,
      "chip": "ym2612"
    },
    {
      "channel": 1,
      "note": 71,
      "start": 1.8645,
      "duration": 0.0161,
      "velocity": 124,
      "chip": "ym2612"
    },
    {
      "channel": 4,
      "note": 62,
      "start": 1.8657,
      "duration": 0.0161,
      "velocity": 120,
      "chip": "ym2612"
    },
    {
      "channel": 3,
      "note": 57,
      "start": 1.8668,
      "duration": 0.0161,
      "velocity": 120,
      "chip": "ym2612"
    },
    {
      "channel": 2,
      "note": 50,
      "start": 1.868,
      "duration": 0.0161,
      "velocity": 100,
      "chip": "ym2612"
    },
    {
      "channel": 1,
      "note": 70,
      "start": 1.8806,
      "duration": 0.0161,
      "velocity": 124,
      "chip": "ym2612"
    },
    {
      "channel": 4,
      "note": 62,
      "start": 1.8818,
      "duration": 0.0161,
      "velocity": 120,
      "chip": "ym2612"
    },
    {
      "channel": 3,
      "note": 57,
      "start": 1.8829,
      "duration": 0.0161,
      "velocity": 120,
      "chip": "ym2612"
    },
    {
      "channel": 2,
      "note": 50,
      "start": 1.8841,
      "duration": 0.0161,
      "velocity": 100,
      "chip": "ym2612"
    },
    {
      "channel": 1,
      "note": 69,
      "start": 1.8967,
      "duration": 0.0161,
      "velocity": 124,
      "chip": "ym2612"
    },
    {
      "channel": 4,
      "note": 62,
      "start": 1.8979,
      "duration": 0.0161,
      "velocity": 120,
      "chip": "ym2612"
    },
    {
      "channel": 3,
      "note": 57,
      "start": 1.899,
      "duration": 0.0161,
      "velocity": 120,
      "chip": "ym2612"
    },
    {
      "channel": 1,
      "note": 68,
      "start": 1.9128,
      "duration": 0.0161,
      "velocity": 124,
      "chip": "ym2612"
    },
    {
      "channel": 4,
      "note": 62,
      "start": 1.914,
      "duration": 0.0161,
      "velocity": 120,
      "chip": "ym2612"
    },
    {
      "channel": 3,
      "note": 57,
      "start": 1.9151,
      "duration": 0.0161,
      "velocity": 120,
      "chip": "ym2612"
    },
    {
      "channel": 1,
      "note": 66,
      "start": 1.9289,
      "duration": 0.0161,
      "velocity": 124,
      "chip": "ym2612"
    },
    {
      "channel": 4,
      "note": 62,
      "start": 1.9301,
      "duration": 0.0161,
      "velocity": 120,
      "chip": "ym2612"
    },
    {
      "channel": 3,
      "note": 57,
      "start": 1.9312,
      "duration": 0.0162,
      "velocity": 120,
      "chip": "ym2612"
    },
    {
      "channel": 1,
      "note": 65,
      "start": 1.945,
      "duration": 0.0161,
      "velocity": 124,
      "chip": "ym2612"
    },
    {
      "channel": 4,
      "note": 62,
      "start": 1.9462,
      "duration": 0.0161,
      "velocity": 120,
      "chip": "ym2612"
    },
    {
      "channel": 3,
      "note": 57,
      "start": 1.9474,
      "duration": 0.0161,
      "velocity": 120,
      "chip": "ym2612"
    },
    {
      "channel": 1,
      "note": 64,
      "start": 1.9611,
      "duration": 0.0162,
      "velocity": 124,
      "chip": "ym2612"
    },
    {
      "channel": 4,
      "note": 62,
      "start": 1.9623,
      "duration": 0.0161,
      "velocity": 120,
      "chip": "ym2612"
    },
    {
      "channel": 3,
      "note": 57,
      "start": 1.9635,
      "duration": 0.0162,
      "velocity": 120,
      "chip": "ym2612"
    },
    {
      "channel": 1,
      "note": 62,
      "start": 1.9773,
      "duration": 0.0166,
      "velocity": 124,
      "chip": "ym2612"
    },
    {
      "channel": 4,
      "note": 62,
      "start": 1.9785,
      "duration": 0.0167,
      "velocity": 120,
      "chip": "ym2612"
    },
    {
      "channel": 3,
      "note": 57,
      "start": 1.9796,
      "duration": 0.0167,
      "velocity": 120,
      "chip": "ym2612"
    },
    {
      "channel": 2,
      "note": 50,
      "start": 1.9812,
      "duration": 0.0163,
      "velocity": 100,
      "chip": "ym2612"
    },
    {
      "channel": 1,
      "note": 61,
      "start": 1.9939,
      "duration": 0.0163,
      "velocity": 124,
      "chip": "ym2612"
    },
    {
      "channel": 4,
      "note": 62,
      "start": 1.9951,
      "duration": 0.0163,
      "velocity": 120,
      "chip": "ym2612"
    },
    {
      "channel": 3,
      "note": 57,
      "start": 1.9963,
      "duration": 0.0163,
      "velocity": 120,
      "chip": "ym2612"
    },
    {
      "channel": 2,
      "note": 50,
      "start": 1.9974,
      "duration": 0.0163,
      "velocity": 100,
      "chip": "ym2612"
    },
    {
      "channel": 1,
      "note": 60,
      "start": 2.0102,
      "duration": 0.0153,
      "velocity": 124,
      "chip": "ym2612"
    },
    {
      "channel": 4,
      "note": 62,
      "start": 2.0114,
      "duration": 0.0153,
      "velocity": 120,
      "chip": "ym2612"
    },
    {
      "channel": 3,
      "note": 57,
      "start": 2.0126,
      "duration": 0.0153,
      "velocity": 120,
      "chip": "ym2612"
    },
    {
      "channel": 2,
      "note": 50,
      "start": 2.0137,
      "duration": 0.0153,
      "velocity": 100,
      "chip": "ym2612"
    },
    {
      "channel": 1,
      "note": 59,
      "start": 2.0255,
      "duration": 0.0184,
      "velocity": 124,
      "chip": "ym2612"
    },
    {
      "channel": 4,
      "note": 62,
      "start": 2.0267,
      "duration": 0.0184,
      "velocity": 120,
      "chip": "ym2612"
    },
    {
      "channel": 3,
      "note": 57,
      "start": 2.0278,
      "duration": 0.0184,
      "velocity": 120,
      "chip": "ym2612"
    },
    {
      "channel": 2,
      "note": 50,
      "start": 2.029,
      "duration": 0.0184,
      "velocity": 100,
      "chip": "ym2612"
    },
    {
      "channel": 1,
      "note": 57,
      "start": 2.0439,
      "duration": 0.0166,
      "velocity": 124,
      "chip": "ym2612"
    },
    {
      "channel": 4,
      "note": 62,
      "start": 2.0451,
      "duration": 0.0166,
      "velocity": 120,
      "chip": "ym2612"
    },
    {
      "channel": 3,
      "note": 57,
      "start": 2.0462,
      "duration": 0.0166,
      "velocity": 120,
      "chip": "ym2612"
    },
    {
      "channel": 2,
      "note": 50,
      "start": 2.0474,
      "duration": 0.0165,
      "velocity": 100,
      "chip": "ym2612"
    },
    {
      "channel": 1,
      "note": 56,
      "start": 2.0604,
      "duration": 0.0158,
      "velocity": 124,
      "chip": "ym2612"
    },
    {
      "channel": 4,
      "note": 62,
      "start": 2.0617,
      "duration": 0.0157,
      "velocity": 120,
      "chip": "ym2612"
    },
    {
      "channel": 3,
      "note": 57,
      "start": 2.0628,
      "duration": 0.0157,
      "velocity": 120,
      "chip": "ym2612"
    },
    {
      "channel": 2,
      "note": 50,
      "start": 2.0639,
      "duration": 0.0158,
      "velocity": 100,
      "chip": "ym2612"
    },
    {
      "channel": 1,
      "note": 55,
      "start": 2.0762,
      "duration": 0.014,
      "velocity": 124,
      "chip": "ym2612"
    },
    {
      "channel": 4,
      "note": 62,
      "start": 2.0774,
      "duration": 0.0141,
      "velocity": 120,
      "chip": "ym2612"
    },
    {
      "channel": 3,
      "note": 57,
      "start": 2.0785,
      "duration": 0.0141,
      "velocity": 120,
      "chip": "ym2612"
    },
    {
      "channel": 2,
      "note": 50,
      "start": 2.0797,
      "duration": 0.0141,
      "velocity": 100,
      "chip": "ym2612"
    },
    {
      "channel": 1,
      "note": 53,
      "start": 2.0902,
      "duration": 0.0186,
      "velocity": 124,
      "chip": "ym2612"
    },
    {
      "channel": 4,
      "note": 62,
      "start": 2.0915,
      "duration": 0.0185,
      "velocity": 120,
      "chip": "ym2612"
    },
    {
      "channel": 3,
      "note": 57,
      "start": 2.0926,
      "duration": 0.0185,
      "velocity": 120,
      "chip": "ym2612"
    },
    {
      "channel": 1,
      "note": 52,
      "start": 2.1088,
      "duration": 0.0134,
      "velocity": 124,
      "chip": "ym2612"
    },
    {
      "channel": 4,
      "note": 62,
      "start": 2.11,
      "duration": 0.0161,
      "velocity": 120,
      "chip": "ym2612"
    },
    {
      "channel": 3,
      "note": 57,
      "start": 2.1111,
      "duration": 0.0161,
      "velocity": 120,
      "chip": "ym2612"
    },
    {
      "channel": 1,
      "note": 51,
      "start": 2.1221,
      "duration": 0.0153,
      "velocity": 1,
      "chip": "ym2612"
    },
    {
      "channel": 4,
      "note": 62,
      "start": 2.1261,
      "duration": 0.0125,
      "velocity": 120,
      "chip": "ym2612"
    },
    {
      "channel": 3,
      "note": 57,
      "start": 2.1272,
      "duration": 0.0149,
      "velocity": 120,
      "chip": "ym2612"
    },
    {
      "channel": 4,
      "note": 62,
      "start": 2.1386,
      "duration": 0.0153,
      "velocity": 120,
      "chip": "ym2612"
    },
    {
      "channel": 3,
      "note": 57,
      "start": 2.1422,
      "duration": 0.0129,
      "velocity": 120,
      "chip": "ym2612"
    },
    {
      "channel": 4,
      "note": 62,
      "start": 2.1539,
      "duration": 0.0161,
      "velocity": 120,
      "chip": "ym2612"
    },
    {
      "channel": 3,
      "note": 57,
      "start": 2.155,
      "duration": 0.0161,
      "velocity": 120,
      "chip": "ym2612"
    },
    {
      "channel": 4,
      "note": 62,
      "start": 2.17,
      "duration": 0.0162,
      "velocity": 120,
      "chip": "ym2612"
    },
    {
      "channel": 3,
      "note": 57,
      "start": 2.1711,
      "duration": 0.0161,
      "velocity": 120,
      "chip": "ym2612"
    },
    {
      "channel": 2,
      "note": 50,
      "start": 2.1754,
      "duration": 0.013,
      "velocity": 100,
      "chip": "ym2612"
    },
    {
      "channel": 1,
      "note": 38,
      "start": 2.1769,
      "duration": 0.0155,
      "velocity": 100,
      "chip": "ym2612"
    },
    {
      "channel": 4,
      "note": 62,
      "start": 2.1861,
      "duration": 0.0161,
      "velocity": 120,
      "chip": "ym2612"
    },
    {
      "channel": 3,
      "note": 57,
      "start": 2.1872,
      "duration": 0.0161,
      "velocity": 120,
      "chip": "ym2612"
    },
    {
      "channel": 2,
      "note": 50,
      "start": 2.1884,
      "duration": 0.016,
      "velocity": 100,
      "chip": "ym2612"
    },
    {
      "channel": 1,
      "note": 38,
      "start": 2.1924,
      "duration": 0.0132,
      "velocity": 100,
      "chip": "ym2612"
    },
    {
      "channel": 4,
      "note": 62,
      "start": 2.2022,
      "duration": 0.0161,
      "velocity": 120,
      "chip": "ym2612"
    },
    {
      "channel": 3,
      "note": 57,
      "start": 2.2033,
      "duration": 0.0161,
      "velocity": 120,
      "chip": "ym2612"
    },
    {
      "channel": 2,
      "note": 50,
      "start": 2.2044,
      "duration": 0.0161,
      "velocity": 100,
      "chip": "ym2612"
    },
    {
      "channel": 1,
      "note": 38,
      "start": 2.2056,
      "duration": 0.0161,
      "velocity": 100,
      "chip": "ym2612"
    },
    {
      "channel": 4,
      "note": 62,
      "start": 2.2183,
      "duration": 0.0161,
      "velocity": 120,
      "chip": "ym2612"
    },
    {
      "channel": 3,
      "note": 57,
      "start": 2.2194,
      "duration": 0.0162,
      "velocity": 120,
      "chip": "ym2612"
    },
    {
      "channel": 2,
      "note": 50,
      "start": 2.2205,
      "duration": 0.0161,
      "velocity": 100,
      "chip": "ym2612"
    },
    {
      "channel": 1,
      "note": 38,
      "start": 2.2217,
      "duration": 0.0161,
      "velocity": 100,
      "chip": "ym2612"
    },
    {
      "channel": 4,
      "note": 62,
      "start": 2.2344,
      "duration": 0.0161,
      "velocity": 120,
      "chip": "ym2612"
    },
    {
      "channel": 3,
      "note": 57,
      "start": 2.2356,
      "duration": 0.0161,
      "velocity": 120,
      "chip": "ym2612"
    },
    {
      "channel": 2,
      "note": 50,
      "start": 2.2366,
      "duration": 0.0161,
      "velocity": 100,
      "chip": "ym2612"
    },
    {
      "channel": 1,
      "note": 38,
      "start": 2.2378,
      "duration": 0.0161,
      "velocity": 100,
      "chip": "ym2612"
    },
    {
      "channel": 4,
      "note": 62,
      "start": 2.2505,
      "duration": 0.0161,
      "velocity": 120,
      "chip": "ym2612"
    },
    {
      "channel": 3,
      "note": 57,
      "start": 2.2516,
      "duration": 0.0161,
      "velocity": 120,
      "chip": "ym2612"
    },
    {
      "channel": 2,
      "note": 50,
      "start": 2.2527,
      "duration": 0.0161,
      "velocity": 100,
      "chip": "ym2612"
    },
    {
      "channel": 1,
      "note": 38,
      "start": 2.2539,
      "duration": 0.0161,
      "velocity": 100,
      "chip": "ym2612"
    },
    {
      "channel": 4,
      "note": 62,
      "start": 2.2666,
      "duration": 0.0161,
      "velocity": 120,
      "chip": "ym2612"
    },
    {
      "channel": 3,
      "note": 57,
      "start": 2.2677,
      "duration": 0.0161,
      "velocity": 120,
      "chip": "ym2612"
    },
    {
      "channel": 2,
      "note": 50,
      "start": 2.2688,
      "duration": 0.0161,
      "velocity": 100,
      "chip": "ym2612"
    },
    {
      "channel": 1,
      "note": 38,
      "start": 2.27,
      "duration": 0.0162,
      "velocity": 100,
      "chip": "ym2612"
    },
    {
      "channel": 4,
      "note": 62,
      "start": 2.2827,
      "duration": 0.0161,
      "velocity": 120,
      "chip": "ym2612"
    },
    {
      "channel": 3,
      "note": 57,
      "start": 2.2838,
      "duration": 0.0161,
      "velocity": 120,
      "chip": "ym2612"
    },
    {
      "channel": 4,
      "note": 62,
      "start": 2.2988,
      "duration": 0.0161,
      "velocity": 120,
      "chip": "ym2612"
    },
    {
      "channel": 3,
      "note": 57,
      "start": 2.2999,
      "duration": 0.0161,
      "velocity": 120,
      "chip": "ym2612"
    },
    {
      "channel": 4,
      "note": 62,
      "start": 2.3149,
      "duration": 0.0161,
      "velocity": 120,
      "chip": "ym2612"
    },
    {
      "channel": 3,
      "note": 57,
      "start": 2.316,
      "duration": 0.0161,
      "velocity": 120,
      "chip": "ym2612"
    },
    {
      "channel": 4,
      "note": 62,
      "start": 2.331,
      "duration": 0.0161,
      "velocity": 120,
      "chip": "ym2612"
    },
    {
      "channel": 3,
      "note": 57,
      "start": 2.3321,
      "duration": 0.0161,
      "velocity": 120,
      "chip": "ym2612"
    },
    {
      "channel": 4,
      "note": 62,
      "start": 2.3471,
      "duration": 0.0161,
      "velocity": 120,
      "chip": "ym2612"
    },
    {
      "channel": 3,
      "note": 57,
      "start": 2.3482,
      "duration": 0.0161,
      "velocity": 120,
      "chip": "ym2612"
    },
    {
      "channel": 4,
      "note": 62,
      "start": 2.3632,
      "duration": 0.0161,
      "velocity": 120,
      "chip": "ym2612"
    },
    {
      "channel": 3,
      "note": 57,
      "start": 2.3643,
      "duration": 0.0161,
      "velocity": 120,
      "chip": "ym2612"
    },
    {
      "channel": 2,
      "note": 50,
      "start": 2.3658,
      "duration": 0.0158,
      "velocity": 100,
      "chip": "ym2612"
    },
    {
      "channel": 1,
      "note": 38,
      "start": 2.3674,
      "duration": 0.0154,
      "velocity": 100,
      "chip": "ym2612"
    },
    {
      "channel": 4,
      "note": 62,
      "start": 2.3793,
      "duration": 0.0161,
      "velocity": 120,
      "chip": "ym2612"
    },
    {
      "channel": 3,
      "note": 57,
      "start": 2.3805,
      "duration": 0.0161,
      "velocity": 120,
      "chip": "ym2612"
    },
    {
      "channel": 2,
      "note": 50,
      "start": 2.3816,
      "duration": 0.016,
      "velocity": 100,
      "chip": "ym2612"
    },
    {
      "channel": 1,
      "note": 38,
      "start": 2.3828,
      "duration": 0.016,
      "velocity": 100,
      "chip": "ym2612"
    },
    {
      "channel": 4,
      "note": 62,
      "start": 2.3954,
      "duration": 0.0161,
      "velocity": 120,
      "chip": "ym2612"
    },
    {
      "channel": 3,
      "note": 57,
      "start": 2.3966,
      "duration": 0.0161,
      "velocity": 120,
      "chip": "ym2612"
    },
    {
      "channel": 2,
      "note": 50,
      "start": 2.3976,
      "duration": 0.0161,
      "velocity": 100,
      "chip": "ym2612"
    },
    {
      "channel": 1,
      "note": 38,
      "start": 2.3988,
      "duration": 0.0161,
      "velocity": 100,
      "chip": "ym2612"
    },
    {
      "channel": 4,
      "note": 62,
      "start": 2.4115,
      "duration": 0.0161,
      "velocity": 120,
      "chip": "ym2612"
    },
    {
      "channel": 3,
      "note": 57,
      "start": 2.4127,
      "duration": 0.0161,
      "velocity": 120,
      "chip": "ym2612"
    },
    {
      "channel": 2,
      "note": 50,
      "start": 2.4137,
      "duration": 0.0162,
      "velocity": 100,
      "chip": "ym2612"
    },
    {
      "channel": 1,
      "note": 38,
      "start": 2.4149,
      "duration": 0.0161,
      "velocity": 100,
      "chip": "ym2612"
    },
    {
      "channel": 4,
      "note": 62,
      "start": 2.4276,
      "duration": 0.0161,
      "velocity": 120,
      "chip": "ym2612"
    },
    {
      "channel": 3,
      "note": 57,
      "start": 2.4288,
      "duration": 0.0161,
      "velocity": 120,
      "chip": "ym2612"
    },
    {
      "channel": 2,
      "note": 50,
      "start": 2.4299,
      "duration": 0.0161,
      "velocity": 100,
      "chip": "ym2612"
    },
    {
      "channel": 1,
      "note": 38,
      "start": 2.431,
      "duration": 0.0161,
      "velocity": 100,
      "chip": "ym2612"
    },
    {
      "channel": 4,
      "note": 62,
      "start": 2.4437,
      "duration": 0.0165,
      "velocity": 120,
      "chip": "ym2612"
    },
    {
      "channel": 3,
      "note": 57,
      "start": 2.4448,
      "duration": 0.0165,
      "velocity": 120,
      "chip": "ym2612"
    },
    {
      "channel": 2,
      "note": 50,
      "start": 2.446,
      "duration": 0.0164,
      "velocity": 100,
      "chip": "ym2612"
    },
    {
      "channel": 1,
      "note": 38,
      "start": 2.4471,
      "duration": 0.0165,
      "velocity": 100,
      "chip": "ym2612"
    },
    {
      "channel": 4,
      "note": 62,
      "start": 2.4602,
      "duration": 0.0163,
      "velocity": 120,
      "chip": "ym2612"
    },
    {
      "channel": 3,
      "note": 57,
      "start": 2.4613,
      "duration": 0.0163,
      "velocity": 120,
      "chip": "ym2612"
    },
    {
      "channel": 2,
      "note": 50,
      "start": 2.4624,
      "duration": 0.0163,
      "velocity": 100,
      "chip": "ym2612"
    },
    {
      "channel": 1,
      "note": 38,
      "start": 2.4635,
      "duration": 0.0163,
      "velocity": 100,
      "chip": "ym2612"
    },
    {
      "channel": 4,
      "note": 62,
      "start": 2.4765,
      "duration": 0.0156,
      "velocity": 120,
      "chip": "ym2612"
    },
    {
      "channel": 3,
      "note": 57,
      "start": 2.4776,
      "duration": 0.0155,
      "velocity": 120,
      "chip": "ym2612"
    },
    {
      "channel": 4,
      "note": 62,
      "start": 2.492,
      "duration": 0.0181,
      "velocity": 120,
      "chip": "ym2612"
    },
    {
      "channel": 3,
      "note": 57,
      "start": 2.4931,
      "duration": 0.0182,
      "velocity": 120,
      "chip": "ym2612"
    },
    {
      "channel": 4,
      "note": 62,
      "start": 2.5102,
      "duration": 0.0167,
      "velocity": 120,
      "chip": "ym2612"
    },
    {
      "channel": 3,
      "note": 57,
      "start": 2.5113,
      "duration": 0.0167,
      "velocity": 120,
      "chip": "ym2612"
    },
    {
      "channel": 4,
      "note": 62,
      "start": 2.5268,
      "duration": 0.0159,
      "velocity": 120,
      "chip": "ym2612"
    },
    {
      "channel": 3,
      "note": 57,
      "start": 2.528,
      "duration": 0.0158,
      "velocity": 120,
      "chip": "ym2612"
    },
    {
      "channel": 4,
      "note": 62,
      "start": 2.5427,
      "duration": 0.0141,
      "velocity": 120,
      "chip": "ym2612"
    },
    {
      "channel": 3,
      "note": 57,
      "start": 2.5438,
      "duration": 0.0141,
      "velocity": 120,
      "chip": "ym2612"
    },
    {
      "channel": 4,
      "note": 62,
      "start": 2.5567,
      "duration": 0.0158,
      "velocity": 120,
      "chip": "ym2612"
    },
    {
      "channel": 3,
      "note": 57,
      "start": 2.5579,
      "duration": 0.0185,
      "velocity": 120,
      "chip": "ym2612"
    },
    {
      "channel": 2,
      "note": 50,
      "start": 2.5594,
      "duration": 0.0182,
      "velocity": 100,
      "chip": "ym2612"
    },
    {
      "channel": 1,
      "note": 38,
      "start": 2.5609,
      "duration": 0.0178,
      "velocity": 100,
      "chip": "ym2612"
    },
    {
      "channel": 4,
      "note": 62,
      "start": 2.5725,
      "duration": 0.0161,
      "velocity": 120,
      "chip": "ym2612"
    },
    {
      "channel": 3,
      "note": 57,
      "start": 2.5764,
      "duration": 0.0161,
      "velocity": 120,
      "chip": "ym2612"
    },
    {
      "channel": 2,
      "note": 50,
      "start": 2.5776,
      "duration": 0.016,
      "velocity": 100,
      "chip": "ym2612"
    },
    {
      "channel": 1,
      "note": 38,
      "start": 2.5788,
      "duration": 0.016,
      "velocity": 100,
      "chip": "ym2612"
    },
    {
      "channel": 4,
      "note": 62,
      "start": 2.5886,
      "duration": 0.0161,
      "velocity": 120,
      "chip": "ym2612"
    },
    {
      "channel": 3,
      "note": 57,
      "start": 2.5925,
      "duration": 0.0134,
      "velocity": 120,
      "chip": "ym2612"
    },
    {
      "channel": 2,
      "note": 50,
      "start": 2.5936,
      "duration": 0.0157,
      "velocity": 100,
      "chip": "ym2612"
    },
    {
      "channel": 1,
      "note": 38,
      "start": 2.5948,
      "duration": 0.0157,
      "velocity": 100,
      "chip": "ym2612"
    },
    {
      "channel": 4,
      "note": 62,
      "start": 2.6047,
      "duration": 0.0161,
      "velocity": 120,
      "chip": "ym2612"
    },
    {
      "channel": 3,
      "note": 57,
      "start": 2.6059,
      "duration": 0.0161,
      "velocity": 120,
      "chip": "ym2612"
    },
    {
      "channel": 2,
      "note": 50,
      "start": 2.6093,
      "duration": 0.0141,
      "velocity": 100,
      "chip": "ym2612"
    },
    {
      "channel": 1,
      "note": 38,
      "start": 2.6105,
      "duration": 0.0141,
      "velocity": 100,
      "chip": "ym2612"
    },
    {
      "channel": 4,
      "note": 62,
      "start": 2.6208,
      "duration": 0.0161,
      "velocity": 120,
      "chip": "ym2612"
    },
    {
      "channel": 3,
      "note": 57,
      "start": 2.6219,
      "duration": 0.0161,
      "velocity": 120,
      "chip": "ym2612"
    },
    {
      "channel": 2,
      "note": 50,
      "start": 2.6234,
      "duration": 0.0158,
      "velocity": 100,
      "chip": "ym2612"
    },
    {
      "channel": 1,
      "note": 38,
      "start": 2.6245,
      "duration": 0.0185,
      "velocity": 100,
      "chip": "ym2612"
    },
    {
      "channel": 4,
      "note": 62,
      "start": 2.6369,
      "duration": 0.0161,
      "velocity": 120,
      "chip": "ym2612"
    },
    {
      "channel": 3,
      "note": 57,
      "start": 2.638,
      "duration": 0.0161,
      "velocity": 120,
      "chip": "ym2612"
    },
    {
      "channel": 2,
      "note": 50,
      "start": 2.6392,
      "duration": 0.0161,
      "velocity": 100,
      "chip": "ym2612"
    },
    {
      "channel": 1,
      "note": 38,
      "start": 2.6431,
      "duration": 0.0161,
      "velocity": 100,
      "chip": "ym2612"
    },
    {
      "channel": 4,
      "note": 62,
      "start": 2.653,
      "duration": 0.0161,
      "velocity": 120,
      "chip": "ym2612"
    },
    {
      "channel": 3,
      "note": 57,
      "start": 2.6541,
      "duration": 0.0161,
      "velocity": 120,
      "chip": "ym2612"
    },
    {
      "channel": 2,
      "note": 50,
      "start": 2.6553,
      "duration": 0.0162,
      "velocity": 100,
      "chip": "ym2612"
    },
    {
      "channel": 1,
      "note": 38,
      "start": 2.6591,
      "duration": 0.0134,
      "velocity": 100,
      "chip": "ym2612"
    },
    {
      "channel": 4,
      "note": 62,
      "start": 2.6691,
      "duration": 0.0161,
      "velocity": 120,
      "chip": "ym2612"
    },
    {
      "channel": 3,
      "note": 57,
      "start": 2.6703,
      "duration": 0.0161,
      "velocity": 120,
      "chip": "ym2612"
    },
    {
      "channel": 4,
      "note": 62,
      "start": 2.6852,
      "duration": 0.0161,
      "velocity": 120,
      "chip": "ym2612"
    },
    {
      "channel": 3,
      "note": 57,
      "start": 2.6864,
      "duration": 0.0161,
      "velocity": 120,
      "chip": "ym2612"
    },
    {
      "channel": 4,
      "note": 62,
      "start": 2.7013,
      "duration": 0.0161,
      "velocity": 120,
      "chip": "ym2612"
    },
    {
      "channel": 3,
      "note": 57,
      "start": 2.7025,
      "duration": 0.0161,
      "velocity": 120,
      "chip": "ym2612"
    },
    {
      "channel": 4,
      "note": 62,
      "start": 2.7174,
      "duration": 0.0161,
      "velocity": 120,
      "chip": "ym2612"
    },
    {
      "channel": 3,
      "note": 57,
      "start": 2.7186,
      "duration": 0.0161,
      "velocity": 120,
      "chip": "ym2612"
    },
    {
      "channel": 4,
      "note": 62,
      "start": 2.7335,
      "duration": 0.0161,
      "velocity": 120,
      "chip": "ym2612"
    },
    {
      "channel": 3,
      "note": 57,
      "start": 2.7346,
      "duration": 0.0161,
      "velocity": 120,
      "chip": "ym2612"
    },
    {
      "channel": 4,
      "note": 62,
      "start": 2.7496,
      "duration": 0.0161,
      "velocity": 120,
      "chip": "ym2612"
    },
    {
      "channel": 3,
      "note": 57,
      "start": 2.7507,
      "duration": 0.0161,
      "velocity": 120,
      "chip": "ym2612"
    },
    {
      "channel": 2,
      "note": 50,
      "start": 2.7523,
      "duration": 0.0158,
      "velocity": 100,
      "chip": "ym2612"
    },
    {
      "channel": 1,
      "note": 38,
      "start": 2.7538,
      "duration": 0.0154,
      "velocity": 100,
      "chip": "ym2612"
    },
    {
      "channel": 4,
      "note": 62,
      "start": 2.7657,
      "duration": 0.0162,
      "velocity": 120,
      "chip": "ym2612"
    },
    {
      "channel": 3,
      "note": 57,
      "start": 2.7668,
      "duration": 0.0161,
      "velocity": 120,
      "chip": "ym2612"
    },
    {
      "channel": 2,
      "note": 50,
      "start": 2.768,
      "duration": 0.016,
      "velocity": 100,
      "chip": "ym2612"
    },
    {
      "channel": 1,
      "note": 38,
      "start": 2.7692,
      "duration": 0.016,
      "velocity": 100,
      "chip": "ym2612"
    },
    {
      "channel": 4,
      "note": 62,
      "start": 2.7819,
      "duration": 0.0161,
      "velocity": 120,
      "chip": "ym2612"
    },
    {
      "channel": 3,
      "note": 57,
      "start": 2.7829,
      "duration": 0.0161,
      "velocity": 120,
      "chip": "ym2612"
    },
    {
      "channel": 2,
      "note": 50,
      "start": 2.7841,
      "duration": 0.0161,
      "velocity": 100,
      "chip": "ym2612"
    },
    {
      "channel": 1,
      "note": 38,
      "start": 2.7852,
      "duration": 0.0161,
      "velocity": 100,
      "chip": "ym2612"
    },
    {
      "channel": 4,
      "note": 62,
      "start": 2.798,
      "duration": 0.0161,
      "velocity": 120,
      "chip": "ym2612"
    },
    {
      "channel": 3,
      "note": 57,
      "start": 2.799,
      "duration": 0.0162,
      "velocity": 120,
      "chip": "ym2612"
    },
    {
      "channel": 2,
      "note": 50,
      "start": 2.8002,
      "duration": 0.0161,
      "velocity": 100,
      "chip": "ym2612"
    },
    {
      "channel": 1,
      "note": 38,
      "start": 2.8013,
      "duration": 0.0161,
      "velocity": 100,
      "chip": "ym2612"
    },
    {
      "channel": 4,
      "note": 62,
      "start": 2.8141,
      "duration": 0.0161,
      "velocity": 120,
      "chip": "ym2612"
    },
    {
      "channel": 3,
      "note": 57,
      "start": 2.8152,
      "duration": 0.0161,
      "velocity": 120,
      "chip": "ym2612"
    },
    {
      "channel": 2,
      "note": 50,
      "start": 2.8163,
      "duration": 0.0161,
      "velocity": 100,
      "chip": "ym2612"
    },
    {
      "channel": 1,
      "note": 38,
      "start": 2.8174,
      "duration": 0.0161,
      "velocity": 100,
      "chip": "ym2612"
    },
    {
      "channel": 4,
      "note": 62,
      "start": 2.8301,
      "duration": 0.0161,
      "velocity": 120,
      "chip": "ym2612"
    },
    {
      "channel": 3,
      "note": 57,
      "start": 2.8313,
      "duration": 0.0161,
      "velocity": 120,
      "chip": "ym2612"
    },
    {
      "channel": 2,
      "note": 50,
      "start": 2.8324,
      "duration": 0.0161,
      "velocity": 100,
      "chip": "ym2612"
    },
    {
      "channel": 1,
      "note": 38,
      "start": 2.8335,
      "duration": 0.0161,
      "velocity": 100,
      "chip": "ym2612"
    },
    {
      "channel": 4,
      "note": 62,
      "start": 2.8462,
      "duration": 0.0161,
      "velocity": 120,
      "chip": "ym2612"
    },
    {
      "channel": 3,
      "note": 57,
      "start": 2.8474,
      "duration": 0.0161,
      "velocity": 120,
      "chip": "ym2612"
    },
    {
      "channel": 2,
      "note": 50,
      "start": 2.8485,
      "duration": 0.0162,
      "velocity": 100,
      "chip": "ym2612"
    },
    {
      "channel": 1,
      "note": 38,
      "start": 2.8496,
      "duration": 0.0161,
      "velocity": 100,
      "chip": "ym2612"
    },
    {
      "channel": 4,
      "note": 62,
      "start": 2.8623,
      "duration": 0.0161,
      "velocity": 120,
      "chip": "ym2612"
    },
    {
      "channel": 3,
      "note": 57,
      "start": 2.8635,
      "duration": 0.0161,
      "velocity": 120,
      "chip": "ym2612"
    },
    {
      "channel": 4,
      "note": 62,
      "start": 2.8784,
      "duration": 0.0161,
      "velocity": 120,
      "chip": "ym2612"
    },
    {
      "channel": 3,
      "note": 57,
      "start": 2.8796,
      "duration": 0.0161,
      "velocity": 120,
      "chip": "ym2612"
    },
    {
      "channel": 4,
      "note": 62,
      "start": 2.8945,
      "duration": 0.0161,
      "velocity": 120,
      "chip": "ym2612"
    },
    {
      "channel": 3,
      "note": 57,
      "start": 2.8957,
      "duration": 0.0161,
      "velocity": 120,
      "chip": "ym2612"
    },
    {
      "channel": 4,
      "note": 62,
      "start": 2.9106,
      "duration": 0.0162,
      "velocity": 120,
      "chip": "ym2612"
    },
    {
      "channel": 3,
      "note": 57,
      "start": 2.9118,
      "duration": 0.0162,
      "velocity": 120,
      "chip": "ym2612"
    },
    {
      "channel": 4,
      "note": 62,
      "start": 2.9268,
      "duration": 0.0197,
      "velocity": 120,
      "chip": "ym2612"
    },
    {
      "channel": 3,
      "note": 57,
      "start": 2.928,
      "duration": 0.0197,
      "velocity": 120,
      "chip": "ym2612"
    },
    {
      "channel": 1,
      "note": 78,
      "start": 2.9454,
      "duration": 0.0141,
      "velocity": 124,
      "chip": "ym2612"
    },
    {
      "channel": 4,
      "note": 62,
      "start": 2.9466,
      "duration": 0.0141,
      "velocity": 120,
      "chip": "ym2612"
    },
    {
      "channel": 3,
      "note": 57,
      "start": 2.9477,
      "duration": 0.0141,
      "velocity": 120,
      "chip": "ym2612"
    },
    {
      "channel": 2,
      "note": 50,
      "start": 2.9492,
      "duration": 0.0137,
      "velocity": 100,
      "chip": "ym2612"
    },
    {
      "channel": 1,
      "note": 76,
      "start": 2.9594,
      "duration": 0.0179,
      "velocity": 124,
      "chip": "ym2612"
    },
    {
      "channel": 4,
      "note": 62,
      "start": 2.9607,
      "duration": 0.0178,
      "velocity": 120,
      "chip": "ym2612"
    },
    {
      "channel": 3,
      "note": 57,
      "start": 2.9618,
      "duration": 0.0179,
      "velocity": 120,
      "chip": "ym2612"
    },
    {
      "channel": 2,
      "note": 50,
      "start": 2.963,
      "duration": 0.0178,
      "velocity": 100,
      "chip": "ym2612"
    },
    {
      "channel": 1,
      "note": 75,
      "start": 2.9773,
      "duration": 0.0166,
      "velocity": 124,
      "chip": "ym2612"
    },
    {
      "channel": 4,
      "note": 62,
      "start": 2.9785,
      "duration": 0.0167,
      "velocity": 120,
      "chip": "ym2612"
    },
    {
      "channel": 3,
      "note": 57,
      "start": 2.9796,
      "duration": 0.0167,
      "velocity": 120,
      "chip": "ym2612"
    },
    {
      "channel": 2,
      "note": 50,
      "start": 2.9808,
      "duration": 0.0166,
      "velocity": 100,
      "chip": "ym2612"
    },
    {
      "channel": 1,
      "note": 74,
      "start": 2.9939,
      "duration": 0.0162,
      "velocity": 124,
      "chip": "ym2612"
    },
    {
      "channel": 4,
      "note": 62,
      "start": 2.9951,
      "duration": 0.0161,
      "velocity": 120,
      "chip": "ym2612"
    },
    {
      "channel": 3,
      "note": 57,
      "start": 2.9963,
      "duration": 0.0161,
      "velocity": 120,
      "chip": "ym2612"
    },
    {
      "channel": 2,
      "note": 50,
      "start": 2.9974,
      "duration": 0.0161,
      "velocity": 100,
      "chip": "ym2612"
    },
    {
      "channel": 1,
      "note": 72,
      "start": 3.01,
      "duration": 0.0141,
      "velocity": 124,
      "chip": "ym2612"
    },
    {
      "channel": 4,
      "note": 62,
      "start": 3.0112,
      "duration": 0.0141,
      "velocity": 120,
      "chip": "ym2612"
    },
    {
      "channel": 3,
      "note": 57,
      "start": 3.0124,
      "duration": 0.0141,
      "velocity": 120,
      "chip": "ym2612"
    },
    {
      "channel": 2,
      "note": 50,
      "start": 3.0135,
      "duration": 0.0141,
      "velocity": 100,
      "chip": "ym2612"
    },
    {
      "channel": 1,
      "note": 71,
      "start": 3.0241,
      "duration": 0.0203,
      "velocity": 124,
      "chip": "ym2612"
    },
    {
      "channel": 4,
      "note": 62,
      "start": 3.0253,
      "duration": 0.0204,
      "velocity": 120,
      "chip": "ym2612"
    },
    {
      "channel": 3,
      "note": 57,
      "start": 3.0265,
      "duration": 0.0203,
      "velocity": 120,
      "chip": "ym2612"
    },
    {
      "channel": 2,
      "note": 50,
      "start": 3.0276,
      "duration": 0.0203,
      "velocity": 100,
      "chip": "ym2612"
    },
    {
      "channel": 1,
      "note": 78,
      "start": 3.0444,
      "duration": 0.0144,
      "velocity": 124,
      "chip": "ym2612"
    },
    {
      "channel": 4,
      "note": 62,
      "start": 3.0457,
      "duration": 0.0143,
      "velocity": 120,
      "chip": "ym2612"
    },
    {
      "channel": 3,
      "note": 57,
      "start": 3.0468,
      "duration": 0.0143,
      "velocity": 120,
      "chip": "ym2612"
    },
    {
      "channel": 2,
      "note": 50,
      "start": 3.0479,
      "duration": 0.0144,
      "velocity": 100,
      "chip": "ym2612"
    },
    {
      "channel": 1,
      "note": 76,
      "start": 3.0588,
      "duration": 0.0133,
      "velocity": 124,
      "chip": "ym2612"
    },
    {
      "channel": 4,
      "note": 62,
      "start": 3.06,
      "duration": 0.0157,
      "velocity": 120,
      "chip": "ym2612"
    },
    {
      "channel": 3,
      "note": 57,
      "start": 3.0611,
      "duration": 0.0157,
      "velocity": 120,
      "chip": "ym2612"
    },
    {
      "channel": 1,
      "note": 75,
      "start": 3.0721,
      "duration": 0.0161,
      "velocity": 124,
      "chip": "ym2612"
    },
    {
      "channel": 4,
      "note": 62,
      "start": 3.0757,
      "duration": 0.014,
      "velocity": 120,
      "chip": "ym2612"
    },
    {
      "channel": 3,
      "note": 57,
      "start": 3.0768,
      "duration": 0.014,
      "velocity": 120,
      "chip": "ym2612"
    },
    {
      "channel": 1,
      "note": 74,
      "start": 3.0882,
      "duration": 0.0161,
      "velocity": 124,
      "chip": "ym2612"
    },
    {
      "channel": 4,
      "note": 62,
      "start": 3.0897,
      "duration": 0.0159,
      "velocity": 120,
      "chip": "ym2612"
    },
    {
      "channel": 3,
      "note": 57,
      "start": 3.0908,
      "duration": 0.0186,
      "velocity": 120,
      "chip": "ym2612"
    },
    {
      "channel": 1,
      "note": 72,
      "start": 3.1042,
      "duration": 0.0161,
      "velocity": 124,
      "chip": "ym2612"
    },
    {
      "channel": 4,
      "note": 62,
      "start": 3.1055,
      "duration": 0.0161,
      "velocity": 120,
      "chip": "ym2612"
    },
    {
      "channel": 3,
      "note": 57,
      "start": 3.1094,
      "duration": 0.0161,
      "velocity": 120,
      "chip": "ym2612"
    },
    {
      "channel": 1,
      "note": 71,
      "start": 3.1203,
      "duration": 0.0179,
      "velocity": 124,
      "chip": "ym2612"
    },
    {
      "channel": 4,
      "note": 62,
      "start": 3.1216,
      "duration": 0.0205,
      "velocity": 120,
      "chip": "ym2612"
    },
    {
      "channel": 3,
      "note": 57,
      "start": 3.1255,
      "duration": 0.018,
      "velocity": 120,
      "chip": "ym2612"
    },
    {
      "channel": 1,
      "note": 78,
      "start": 3.1383,
      "duration": 0.0144,
      "velocity": 124,
      "chip": "ym2612"
    },
    {
      "channel": 4,
      "note": 65,
      "start": 3.1422,
      "duration": 0.0118,
      "velocity": 120,
      "chip": "ym2612"
    },
    {
      "channel": 3,
      "note": 60,
      "start": 3.1436,
      "duration": 0.0116,
      "velocity": 120,
      "chip": "ym2612"
    },
    {
      "channel": 2,
      "note": 50,
      "start": 3.1451,
      "duration": 0.0115,
      "velocity": 100,
      "chip": "ym2612"
    },
    {
      "channel": 1,
      "note": 76,
      "start": 3.1527,
      "duration": 0.016,
      "velocity": 124,
      "chip": "ym2612"
    },
    {
      "channel": 4,
      "note": 65,
      "start": 3.1539,
      "duration": 0.016,
      "velocity": 120,
      "chip": "ym2612"
    },
    {
      "channel": 3,
      "note": 60,
      "start": 3.1551,
      "duration": 0.0159,
      "velocity": 120,
      "chip": "ym2612"
    },
    {
      "channel": 2,
      "note": 50,
      "start": 3.1566,
      "duration": 0.0156,
      "velocity": 100,
      "chip": "ym2612"
    },
    {
      "channel": 1,
      "note": 75,
      "start": 3.1687,
      "duration": 0.0161,
      "velocity": 124,
      "chip": "ym2612"
    },
    {
      "channel": 4,
      "note": 65,
      "start": 3.1699,
      "duration": 0.0161,
      "velocity": 120,
      "chip": "ym2612"
    },
    {
      "channel": 3,
      "note": 60,
      "start": 3.171,
      "duration": 0.0161,
      "velocity": 120,
      "chip": "ym2612"
    },
    {
      "channel": 2,
      "note": 50,
      "start": 3.1722,
      "duration": 0.0161,
      "velocity": 100,
      "chip": "ym2612"
    },
    {
      "channel": 1,
      "note": 74,
      "start": 3.1848,
      "duration": 0.0161,
      "velocity": 124,
      "chip": "ym2612"
    },
    {
      "channel": 4,
      "note": 65,
      "start": 3.186,
      "duration": 0.0161,
      "velocity": 120,
      "chip": "ym2612"
    },
    {
      "channel": 3,
      "note": 60,
      "start": 3.1871,
      "duration": 0.0161,
      "velocity": 120,
      "chip": "ym2612"
    },
    {
      "channel": 2,
      "note": 50,
      "start": 3.1883,
      "duration": 0.0161,
      "velocity": 100,
      "chip": "ym2612"
    },
    {
      "channel": 1,
      "note": 72,
      "start": 3.2009,
      "duration": 0.0161,
      "velocity": 124,
      "chip": "ym2612"
    },
    {
      "channel": 4,
      "note": 65,
      "start": 3.2021,
      "duration": 0.0161,
      "velocity": 120,
      "chip": "ym2612"
    },
    {
      "channel": 3,
      "note": 60,
      "start": 3.2032,
      "duration": 0.0161,
      "velocity": 120,
      "chip": "ym2612"
    },
    {
      "channel": 2,
      "note": 50,
      "start": 3.2044,
      "duration": 0.0161,
      "velocity": 100,
      "chip": "ym2612"
    },
    {
      "channel": 1,
      "note": 71,
      "start": 3.217,
      "duration": 0.0179,
      "velocity": 124,
      "chip": "ym2612"
    },
    {
      "channel": 4,
      "note": 65,
      "start": 3.2182,
      "duration": 0.0179,
      "velocity": 120,
      "chip": "ym2612"
    },
    {
      "channel": 3,
      "note": 60,
      "start": 3.2193,
      "duration": 0.0179,
      "velocity": 120,
      "chip": "ym2612"
    },
    {
      "channel": 2,
      "note": 50,
      "start": 3.2205,
      "duration": 0.0179,
      "velocity": 100,
      "chip": "ym2612"
    },
    {
      "channel": 1,
      "note": 78,
      "start": 3.2349,
      "duration": 0.0144,
      "velocity": 124,
      "chip": "ym2612"
    },
    {
      "channel": 4,
      "note": 65,
      "start": 3.2361,
      "duration": 0.0144,
      "velocity": 120,
      "chip": "ym2612"
    },
    {
      "channel": 3,
      "note": 60,
      "start": 3.2373,
      "duration": 0.0143,
      "velocity": 120,
      "chip": "ym2612"
    },
    {
      "channel": 2,
      "note": 50,
      "start": 3.2383,
      "duration": 0.0144,
      "velocity": 100,
      "chip": "ym2612"
    },
    {
      "channel": 1,
      "note": 76,
      "start": 3.2492,
      "duration": 0.016,
      "velocity": 124,
      "chip": "ym2612"
    },
    {
      "channel": 4,
      "note": 65,
      "start": 3.2505,
      "duration": 0.016,
      "velocity": 120,
      "chip": "ym2612"
    },
    {
      "channel": 3,
      "note": 60,
      "start": 3.2516,
      "duration": 0.0161,
      "velocity": 120,
      "chip": "ym2612"
    },
    {
      "channel": 1,
      "note": 75,
      "start": 3.2653,
      "duration": 0.0161,
      "velocity": 124,
      "chip": "ym2612"
    },
    {
      "channel": 4,
      "note": 65,
      "start": 3.2665,
      "duration": 0.0161,
      "velocity": 120,
      "chip": "ym2612"
    },
    {
      "channel": 3,
      "note": 60,
      "start": 3.2677,
      "duration": 0.0161,
      "velocity": 120,
      "chip": "ym2612"
    },
    {
      "channel": 1,
      "note": 74,
      "start": 3.2814,
      "duration": 0.0161,
      "velocity": 124,
      "chip": "ym2612"
    },
    {
      "channel": 4,
      "note": 65,
      "start": 3.2826,
      "duration": 0.0161,
      "velocity": 120,
      "chip": "ym2612"
    },
    {
      "channel": 3,
      "note": 60,
      "start": 3.2838,
      "duration": 0.0161,
      "velocity": 120,
      "chip": "ym2612"
    },
    {
      "channel": 1,
      "note": 72,
      "start": 3.2975,
      "duration": 0.0161,
      "velocity": 124,
      "chip": "ym2612"
    },
    {
      "channel": 4,
      "note": 65,
      "start": 3.2987,
      "duration": 0.0161,
      "velocity": 120,
      "chip": "ym2612"
    },
    {
      "channel": 3,
      "note": 60,
      "start": 3.2999,
      "duration": 0.0161,
      "velocity": 120,
      "chip": "ym2612"
    },
    {
      "channel": 1,
      "note": 71,
      "start": 3.3136,
      "duration": 0.0178,
      "velocity": 124,
      "chip": "ym2612"
    },
    {
      "channel": 4,
      "note": 65,
      "start": 3.3148,
      "duration": 0.0179,
      "velocity": 120,
      "chip": "ym2612"
    },
    {
      "channel": 3,
      "note": 60,
      "start": 3.316,
      "duration": 0.0179,
      "velocity": 120,
      "chip": "ym2612"
    },
    {
      "channel": 1,
      "note": 78,
      "start": 3.3315,
      "duration": 0.0144,
      "velocity": 124,
      "chip": "ym2612"
    },
    {
      "channel": 4,
      "note": 65,
      "start": 3.3327,
      "duration": 0.0144,
      "velocity": 120,
      "chip": "ym2612"
    },
    {
      "channel": 3,
      "note": 60,
      "start": 3.3338,
      "duration": 0.0144,
      "velocity": 120,
      "chip": "ym2612"
    },
    {
      "channel": 2,
      "note": 50,
      "start": 3.3354,
      "duration": 0.0141,
      "velocity": 100,
      "chip": "ym2612"
    },
    {
      "channel": 1,
      "note": 76,
      "start": 3.3459,
      "duration": 0.016,
      "velocity": 124,
      "chip": "ym2612"
    },
    {
      "channel": 4,
      "note": 65,
      "start": 3.3471,
      "duration": 0.016,
      "velocity": 120,
      "chip": "ym2612"
    },
    {
      "channel": 3,
      "note": 60,
      "start": 3.3482,
      "duration": 0.016,
      "velocity": 120,
      "chip": "ym2612"
    },
    {
      "channel": 2,
      "note": 50,
      "start": 3.3494,
      "duration": 0.016,
      "velocity": 100,
      "chip": "ym2612"
    },
    {
      "channel": 1,
      "note": 75,
      "start": 3.3619,
      "duration": 0.0161,
      "velocity": 124,
      "chip": "ym2612"
    },
    {
      "channel": 4,
      "note": 65,
      "start": 3.3631,
      "duration": 0.0161,
      "velocity": 120,
      "chip": "ym2612"
    },
    {
      "channel": 3,
      "note": 60,
      "start": 3.3642,
      "duration": 0.0161,
      "velocity": 120,
      "chip": "ym2612"
    },
    {
      "channel": 2,
      "note": 50,
      "start": 3.3654,
      "duration": 0.0161,
      "velocity": 100,
      "chip": "ym2612"
    },
    {
      "channel": 1,
      "note": 74,
      "start": 3.378,
      "duration": 0.0161,
      "velocity": 124,
      "chip": "ym2612"
    },
    {
      "channel": 4,
      "note": 65,
      "start": 3.3792,
      "duration": 0.0161,
      "velocity": 120,
      "chip": "ym2612"
    },
    {
      "channel": 3,
      "note": 60,
      "start": 3.3803,
      "duration": 0.0161,
      "velocity": 120,
      "chip": "ym2612"
    },
    {
      "channel": 2,
      "note": 50,
      "start": 3.3815,
      "duration": 0.0161,
      "velocity": 100,
      "chip": "ym2612"
    },
    {
      "channel": 1,
      "note": 72,
      "start": 3.3941,
      "duration": 0.0161,
      "velocity": 124,
      "chip": "ym2612"
    },
    {
      "channel": 4,
      "note": 65,
      "start": 3.3953,
      "duration": 0.0161,
      "velocity": 120,
      "chip": "ym2612"
    },
    {
      "channel": 3,
      "note": 60,
      "start": 3.3964,
      "duration": 0.0162,
      "velocity": 120,
      "chip": "ym2612"
    },
    {
      "channel": 2,
      "note": 50,
      "start": 3.3976,
      "duration": 0.0161,
      "velocity": 100,
      "chip": "ym2612"
    },
    {
      "channel": 1,
      "note": 71,
      "start": 3.4102,
      "duration": 0.016,
      "velocity": 124,
      "chip": "ym2612"
    },
    {
      "channel": 4,
      "note": 65,
      "start": 3.4114,
      "duration": 0.0161,
      "velocity": 120,
      "chip": "ym2612"
    },
    {
      "channel": 3,
      "note": 60,
      "start": 3.4126,
      "duration": 0.0161,
      "velocity": 120,
      "chip": "ym2612"
    },
    {
      "channel": 2,
      "note": 50,
      "start": 3.4137,
      "duration": 0.016,
      "velocity": 100,
      "chip": "ym2612"
    },
    {
      "channel": 1,
      "note": 70,
      "start": 3.4263,
      "duration": 0.0176,
      "velocity": 124,
      "chip": "ym2612"
    },
    {
      "channel": 4,
      "note": 65,
      "start": 3.4275,
      "duration": 0.0176,
      "velocity": 120,
      "chip": "ym2612"
    },
    {
      "channel": 3,
      "note": 60,
      "start": 3.4287,
      "duration": 0.0176,
      "velocity": 120,
      "chip": "ym2612"
    },
    {
      "channel": 2,
      "note": 50,
      "start": 3.4298,
      "duration": 0.0177,
      "velocity": 100,
      "chip": "ym2612"
    },
    {
      "channel": 1,
      "note": 69,
      "start": 3.4439,
      "duration": 0.0167,
      "velocity": 124,
      "chip": "ym2612"
    },
    {
      "channel": 4,
      "note": 65,
      "start": 3.4451,
      "duration": 0.0167,
      "velocity": 120,
      "chip": "ym2612"
    },
    {
      "channel": 3,
      "note": 60,
      "start": 3.4463,
      "duration": 0.0167,
      "velocity": 120,
      "chip": "ym2612"
    },
    {
      "channel": 1,
      "note": 68,
      "start": 3.4605,
      "duration": 0.0163,
      "velocity": 124,
      "chip": "ym2612"
    },
    {
      "channel": 4,
      "note": 65,
      "start": 3.4618,
      "duration": 0.0163,
      "velocity": 120,
      "chip": "ym2612"
    },
    {
      "channel": 3,
      "note": 60,
      "start": 3.463,
      "duration": 0.0163,
      "velocity": 120,
      "chip": "ym2612"
    },
    {
      "channel": 1,
      "note": 66,
      "start": 3.4769,
      "duration": 0.0141,
      "velocity": 124,
      "chip": "ym2612"
    },
    {
      "channel": 4,
      "note": 65,
      "start": 3.4781,
      "duration": 0.0141,
      "velocity": 120,
      "chip": "ym2612"
    },
    {
      "channel": 3,
      "note": 60,
      "start": 3.4793,
      "duration": 0.0141,
      "velocity": 120,
      "chip": "ym2612"
    },
    {
      "channel": 1,
      "note": 65,
      "start": 3.491,
      "duration": 0.0185,
      "velocity": 124,
      "chip": "ym2612"
    },
    {
      "channel": 4,
      "note": 65,
      "start": 3.4922,
      "duration": 0.0186,
      "velocity": 120,
      "chip": "ym2612"
    },
    {
      "channel": 3,
      "note": 60,
      "start": 3.4934,
      "duration": 0.0185,
      "velocity": 120,
      "chip": "ym2612"
    },
    {
      "channel": 1,
      "note": 64,
      "start": 3.5095,
      "duration": 0.0161,
      "velocity": 124,
      "chip": "ym2612"
    },
    {
      "channel": 4,
      "note": 65,
      "start": 3.5108,
      "duration": 0.0161,
      "velocity": 120,
      "chip": "ym2612"
    },
    {
      "channel": 3,
      "note": 60,
      "start": 3.5119,
      "duration": 0.0161,
      "velocity": 120,
      "chip": "ym2612"
    },
    {
      "channel": 1,
      "note": 62,
      "start": 3.5256,
      "duration": 0.0134,
      "velocity": 124,
      "chip": "ym2612"
    },
    {
      "channel": 4,
      "note": 65,
      "start": 3.5269,
      "duration": 0.0157,
      "velocity": 120,
      "chip": "ym2612"
    },
    {
      "channel": 3,
      "note": 60,
      "start": 3.528,
      "duration": 0.0158,
      "velocity": 120,
      "chip": "ym2612"
    },
    {
      "channel": 2,
      "note": 50,
      "start": 3.5295,
      "duration": 0.0155,
      "velocity": 100,
      "chip": "ym2612"
    },
    {
      "channel": 1,
      "note": 61,
      "start": 3.539,
      "duration": 0.0161,
      "velocity": 124,
      "chip": "ym2612"
    },
    {
      "channel": 4,
      "note": 65,
      "start": 3.5426,
      "duration": 0.0141,
      "velocity": 120,
      "chip": "ym2612"
    },
    {
      "channel": 3,
      "note": 60,
      "start": 3.5438,
      "duration": 0.0141,
      "velocity": 120,
      "chip": "ym2612"
    },
    {
      "channel": 2,
      "note": 50,
      "start": 3.545,
      "duration": 0.0139,
      "velocity": 100,
      "chip": "ym2612"
    },
    {
      "channel": 1,
      "note": 60,
      "start": 3.5551,
      "duration": 0.0161,
      "velocity": 124,
      "chip": "ym2612"
    },
    {
      "channel": 4,
      "note": 65,
      "start": 3.5567,
      "duration": 0.0158,
      "velocity": 120,
      "chip": "ym2612"
    },
    {
      "channel": 3,
      "note": 60,
      "start": 3.5578,
      "duration": 0.0185,
      "velocity": 120,
      "chip": "ym2612"
    },
    {
      "channel": 2,
      "note": 50,
      "start": 3.5589,
      "duration": 0.0185,
      "velocity": 100,
      "chip": "ym2612"
    },
    {
      "channel": 1,
      "note": 59,
      "start": 3.5712,
      "duration": 0.0161,
      "velocity": 124,
      "chip": "ym2612"
    },
    {
      "channel": 4,
      "note": 65,
      "start": 3.5724,
      "duration": 0.0161,
      "velocity": 120,
      "chip": "ym2612"
    },
    {
      "channel": 3,
      "note": 60,
      "start": 3.5763,
      "duration": 0.0161,
      "velocity": 120,
      "chip": "ym2612"
    },
    {
      "channel": 2,
      "note": 50,
      "start": 3.5774,
      "duration": 0.0161,
      "velocity": 100,
      "chip": "ym2612"
    },
    {
      "channel": 1,
      "note": 57,
      "start": 3.5873,
      "duration": 0.0162,
      "velocity": 124,
      "chip": "ym2612"
    },
    {
      "channel": 4,
      "note": 65,
      "start": 3.5885,
      "duration": 0.0161,
      "velocity": 120,
      "chip": "ym2612"
    },
    {
      "channel": 3,
      "note": 60,
      "start": 3.5924,
      "duration": 0.0134,
      "velocity": 120,
      "chip": "ym2612"
    },
    {
      "channel": 2,
      "note": 50,
      "start": 3.5936,
      "duration": 0.0157,
      "velocity": 100,
      "chip": "ym2612"
    },
    {
      "channel": 1,
      "note": 56,
      "start": 3.6034,
      "duration": 0.0161,
      "velocity": 124,
      "chip": "ym2612"
    },
    {
      "channel": 4,
      "note": 65,
      "start": 3.6046,
      "duration": 0.0161,
      "velocity": 120,
      "chip": "ym2612"
    },
    {
      "channel": 3,
      "note": 60,
      "start": 3.6058,
      "duration": 0.0161,
      "velocity": 120,
      "chip": "ym2612"
    },
    {
      "channel": 2,
      "note": 50,
      "start": 3.6093,
      "duration": 0.0141,
      "velocity": 100,
      "chip": "ym2612"
    },
    {
      "channel": 1,
      "note": 55,
      "start": 3.6195,
      "duration": 0.0161,
      "velocity": 124,
      "chip": "ym2612"
    },
    {
      "channel": 4,
      "note": 65,
      "start": 3.6207,
      "duration": 0.0161,
      "velocity": 120,
      "chip": "ym2612"
    },
    {
      "channel": 3,
      "note": 60,
      "start": 3.6219,
      "duration": 0.0161,
      "velocity": 120,
      "chip": "ym2612"
    },
    {
      "channel": 2,
      "note": 50,
      "start": 3.6233,
      "duration": 0.0158,
      "velocity": 100,
      "chip": "ym2612"
    },
    {
      "channel": 1,
      "note": 53,
      "start": 3.6356,
      "duration": 0.0161,
      "velocity": 124,
      "chip": "ym2612"
    },
    {
      "channel": 4,
      "note": 65,
      "start": 3.6368,
      "duration": 0.0161,
      "velocity": 120,
      "chip": "ym2612"
    },
    {
      "channel": 3,
      "note": 60,
      "start": 3.638,
      "duration": 0.0161,
      "velocity": 120,
      "chip": "ym2612"
    },
    {
      "channel": 1,
      "note": 52,
      "start": 3.6517,
      "duration": 0.0161,
      "velocity": 124,
      "chip": "ym2612"
    },
    {
      "channel": 4,
      "note": 65,
      "start": 3.6529,
      "duration": 0.0161,
      "velocity": 120,
      "chip": "ym2612"
    },
    {
      "channel": 3,
      "note": 60,
      "start": 3.6541,
      "duration": 0.0161,
      "velocity": 120,
      "chip": "ym2612"
    },
    {
      "channel": 1,
      "note": 51,
      "start": 3.6678,
      "duration": 0.0153,
      "velocity": 1,
      "chip": "ym2612"
    },
    {
      "channel": 4,
      "note": 65,
      "start": 3.669,
      "duration": 0.0153,
      "velocity": 120,
      "chip": "ym2612"
    },
    {
      "channel": 3,
      "note": 60,
      "start": 3.6702,
      "duration": 0.0153,
      "velocity": 120,
      "chip": "ym2612"
    },
    {
      "channel": 4,
      "note": 65,
      "start": 3.6843,
      "duration": 0.0153,
      "velocity": 120,
      "chip": "ym2612"
    },
    {
      "channel": 3,
      "note": 60,
      "start": 3.6855,
      "duration": 0.0152,
      "velocity": 120,
      "chip": "ym2612"
    },
    {
      "channel": 4,
      "note": 65,
      "start": 3.6996,
      "duration": 0.0161,
      "velocity": 120,
      "chip": "ym2612"
    },
    {
      "channel": 3,
      "note": 60,
      "start": 3.7007,
      "duration": 0.0162,
      "velocity": 120,
      "chip": "ym2612"
    },
    {
      "channel": 4,
      "note": 65,
      "start": 3.7157,
      "duration": 0.0161,
      "velocity": 120,
      "chip": "ym2612"
    },
    {
      "channel": 3,
      "note": 60,
      "start": 3.7168,
      "duration": 0.0161,
      "velocity": 120,
      "chip": "ym2612"
    },
    {
      "channel": 2,
      "note": 50,
      "start": 3.7184,
      "duration": 0.0157,
      "velocity": 100,
      "chip": "ym2612"
    },
    {
      "channel": 1,
      "note": 38,
      "start": 3.7199,
      "duration": 0.0154,
      "velocity": 100,
      "chip": "ym2612"
    },
    {
      "channel": 4,
      "note": 65,
      "start": 3.7318,
      "duration": 0.0161,
      "velocity": 120,
      "chip": "ym2612"
    },
    {
      "channel": 3,
      "note": 60,
      "start": 3.7329,
      "duration": 0.0161,
      "velocity": 120,
      "chip": "ym2612"
    },
    {
      "channel": 2,
      "note": 50,
      "start": 3.7341,
      "duration": 0.016,
      "velocity": 100,
      "chip": "ym2612"
    },
    {
      "channel": 1,
      "note": 38,
      "start": 3.7353,
      "duration": 0.016,
      "velocity": 100,
      "chip": "ym2612"
    },
    {
      "channel": 4,
      "note": 65,
      "start": 3.7479,
      "duration": 0.0161,
      "velocity": 120,
      "chip": "ym2612"
    },
    {
      "channel": 3,
      "note": 60,
      "start": 3.749,
      "duration": 0.0161,
      "velocity": 120,
      "chip": "ym2612"
    },
    {
      "channel": 2,
      "note": 50,
      "start": 3.7501,
      "duration": 0.0162,
      "velocity": 100,
      "chip": "ym2612"
    },
    {
      "channel": 1,
      "note": 38,
      "start": 3.7513,
      "duration": 0.0161,
      "velocity": 100,
      "chip": "ym2612"
    },
    {
      "channel": 4,
      "note": 65,
      "start": 3.764,
      "duration": 0.0161,
      "velocity": 120,
      "chip": "ym2612"
    },
    {
      "channel": 3,
      "note": 60,
      "start": 3.7651,
      "duration": 0.0161,
      "velocity": 120,
      "chip": "ym2612"
    },
    {
      "channel": 2,
      "note": 50,
      "start": 3.7663,
      "duration": 0.0161,
      "velocity": 100,
      "chip": "ym2612"
    },
    {
      "channel": 1,
      "note": 38,
      "start": 3.7673,
      "duration": 0.0161,
      "velocity": 100,
      "chip": "ym2612"
    },
    {
      "channel": 4,
      "note": 65,
      "start": 3.7801,
      "duration": 0.0161,
      "velocity": 120,
      "chip": "ym2612"
    },
    {
      "channel": 3,
      "note": 60,
      "start": 3.7812,
      "duration": 0.0161,
      "velocity": 120,
      "chip": "ym2612"
    },
    {
      "channel": 2,
      "note": 50,
      "start": 3.7824,
      "duration": 0.0161,
      "velocity": 100,
      "chip": "ym2612"
    },
    {
      "channel": 1,
      "note": 38,
      "start": 3.7834,
      "duration": 0.0161,
      "velocity": 100,
      "chip": "ym2612"
    },
    {
      "channel": 4,
      "note": 65,
      "start": 3.7962,
      "duration": 0.0162,
      "velocity": 120,
      "chip": "ym2612"
    },
    {
      "channel": 3,
      "note": 60,
      "start": 3.7973,
      "duration": 0.0161,
      "velocity": 120,
      "chip": "ym2612"
    },
    {
      "channel": 2,
      "note": 50,
      "start": 3.7985,
      "duration": 0.0161,
      "velocity": 100,
      "chip": "ym2612"
    },
    {
      "channel": 1,
      "note": 38,
      "start": 3.7995,
      "duration": 0.0161,
      "velocity": 100,
      "chip": "ym2612"
    },
    {
      "channel": 4,
      "note": 65,
      "start": 3.8123,
      "duration": 0.0161,
      "velocity": 120,
      "chip": "ym2612"
    },
    {
      "channel": 3,
      "note": 60,
      "start": 3.8134,
      "duration": 0.0161,
      "velocity": 120,
      "chip": "ym2612"
    },
    {
      "channel": 2,
      "note": 50,
      "start": 3.8146,
      "duration": 0.0161,
      "velocity": 100,
      "chip": "ym2612"
    },
    {
      "channel": 1,
      "note": 38,
      "start": 3.8157,
      "duration": 0.0161,
      "velocity": 100,
      "chip": "ym2612"
    },
    {
      "channel": 4,
      "note": 65,
      "start": 3.8284,
      "duration": 0.0161,
      "velocity": 120,
      "chip": "ym2612"
    },
    {
      "channel": 3,
      "note": 60,
      "start": 3.8295,
      "duration": 0.0162,
      "velocity": 120,
      "chip": "ym2612"
    },
    {
      "channel": 4,
      "note": 65,
      "start": 3.8445,
      "duration": 0.0161,
      "velocity": 120,
      "chip": "ym2612"
    },
    {
      "channel": 3,
      "note": 60,
      "start": 3.8457,
      "duration": 0.0161,
      "velocity": 120,
      "chip": "ym2612"
    },
    {
      "channel": 4,
      "note": 65,
      "start": 3.8606,
      "duration": 0.0161,
      "velocity": 120,
      "chip": "ym2612"
    },
    {
      "channel": 3,
      "note": 60,
      "start": 3.8618,
      "duration": 0.0161,
      "velocity": 120,
      "chip": "ym2612"
    },
    {
      "channel": 4,
      "note": 65,
      "start": 3.8767,
      "duration": 0.0161,
      "velocity": 120,
      "chip": "ym2612"
    },
    {
      "channel": 3,
      "note": 60,
      "start": 3.8778,
      "duration": 0.0161,
      "velocity": 120,
      "chip": "ym2612"
    },
    {
      "channel": 4,
      "note": 65,
      "start": 3.8928,
      "duration": 0.0173,
      "velocity": 120,
      "chip": "ym2612"
    },
    {
      "channel": 3,
      "note": 60,
      "start": 3.8939,
      "duration": 0.0174,
      "velocity": 120,
      "chip": "ym2612"
    },
    {
      "channel": 4,
      "note": 65,
      "start": 3.9102,
      "duration": 0.0167,
      "velocity": 120,
      "chip": "ym2612"
    },
    {
      "channel": 3,
      "note": 60,
      "start": 3.9113,
      "duration": 0.0167,
      "velocity": 120,
      "chip": "ym2612"
    },
    {
      "channel": 2,
      "note": 50,
      "start": 3.9128,
      "duration": 0.0163,
      "velocity": 100,
      "chip": "ym2612"
    },
    {
      "channel": 1,
      "note": 38,
      "start": 3.9144,
      "duration": 0.016,
      "velocity": 100,
      "chip": "ym2612"
    },
    {
      "channel": 4,
      "note": 65,
      "start": 3.9268,
      "duration": 0.0163,
      "velocity": 120,
      "chip": "ym2612"
    },
    {
      "channel": 3,
      "note": 60,
      "start": 3.928,
      "duration": 0.0163,
      "velocity": 120,
      "chip": "ym2612"
    },
    {
      "channel": 2,
      "note": 50,
      "start": 3.9291,
      "duration": 0.0163,
      "velocity": 100,
      "chip": "ym2612"
    },
    {
      "channel": 1,
      "note": 38,
      "start": 3.9303,
      "duration": 0.0161,
      "velocity": 100,
      "chip": "ym2612"
    },
    {
      "channel": 4,
      "note": 65,
      "start": 3.9431,
      "duration": 0.0144,
      "velocity": 120,
      "chip": "ym2612"
    },
    {
      "channel": 3,
      "note": 60,
      "start": 3.9443,
      "duration": 0.0144,
      "velocity": 120,
      "chip": "ym2612"
    },
    {
      "channel": 2,
      "note": 50,
      "start": 3.9454,
      "duration": 0.0144,
      "velocity": 100,
      "chip": "ym2612"
    },
    {
      "channel": 1,
      "note": 38,
      "start": 3.9465,
      "duration": 0.0144,
      "velocity": 100,
      "chip": "ym2612"
    },
    {
      "channel": 4,
      "note": 65,
      "start": 3.9576,
      "duration": 0.0185,
      "velocity": 120,
      "chip": "ym2612"
    },
    {
      "channel": 3,
      "note": 60,
      "start": 3.9586,
      "duration": 0.0186,
      "velocity": 120,
      "chip": "ym2612"
    },
    {
      "channel": 2,
      "note": 50,
      "start": 3.9598,
      "duration": 0.0185,
      "velocity": 100,
      "chip": "ym2612"
    },
    {
      "channel": 1,
      "note": 38,
      "start": 3.9609,
      "duration": 0.0185,
      "velocity": 100,
      "chip": "ym2612"
    },
    {
      "channel": 4,
      "note": 65,
      "start": 3.9761,
      "duration": 0.0161,
      "velocity": 120,
      "chip": "ym2612"
    },
    {
      "channel": 3,
      "note": 60,
      "start": 3.9772,
      "duration": 0.0161,
      "velocity": 120,
      "chip": "ym2612"
    },
    {
      "channel": 2,
      "note": 50,
      "start": 3.9783,
      "duration": 0.0161,
      "velocity": 100,
      "chip": "ym2612"
    },
    {
      "channel": 1,
      "note": 38,
      "start": 3.9794,
      "duration": 0.0161,
      "velocity": 100,
      "chip": "ym2612"
    },
    {
      "channel": 4,
      "note": 65,
      "start": 3.9922,
      "duration": 0.0134,
      "velocity": 120,
      "chip": "ym2612"
    },
    {
      "channel": 3,
      "note": 60,
      "start": 3.9933,
      "duration": 0.0157,
      "velocity": 120,
      "chip": "ym2612"
    },
    {
      "channel": 2,
      "note": 50,
      "start": 3.9944,
      "duration": 0.0158,
      "velocity": 100,
      "chip": "ym2612"
    },
    {
      "channel": 1,
      "note": 38,
      "start": 3.9955,
      "duration": 0.0158,
      "velocity": 100,
      "chip": "ym2612"
    },
    {
      "channel": 4,
      "note": 65,
      "start": 4.0055,
      "duration": 0.0161,
      "velocity": 120,
      "chip": "ym2612"
    },
    {
      "channel": 3,
      "note": 60,
      "start": 4.009,
      "duration": 0.0141,
      "velocity": 120,
      "chip": "ym2612"
    },
    {
      "channel": 2,
      "note": 50,
      "start": 4.0102,
      "duration": 0.0141,
      "velocity": 100,
      "chip": "ym2612"
    },
    {
      "channel": 1,
      "note": 38,
      "start": 4.0113,
      "duration": 0.0141,
      "velocity": 100,
      "chip": "ym2612"
    },
    {
      "channel": 4,
      "note": 65,
      "start": 4.0216,
      "duration": 0.0161,
      "velocity": 120,
      "chip": "ym2612"
    },
    {
      "channel": 3,
      "note": 60,
      "start": 4.0231,
      "duration": 0.0158,
      "velocity": 120,
      "chip": "ym2612"
    },
    {
      "channel": 4,
      "note": 65,
      "start": 4.0377,
      "duration": 0.0161,
      "velocity": 120,
      "chip": "ym2612"
    },
    {
      "channel": 3,
      "note": 60,
      "start": 4.0389,
      "duration": 0.0161,
      "velocity": 120,
      "chip": "ym2612"
    },
    {
      "channel": 4,
      "note": 65,
      "start": 4.0538,
      "duration": 0.0161,
      "velocity": 120,
      "chip": "ym2612"
    },
    {
      "channel": 3,
      "note": 60,
      "start": 4.0549,
      "duration": 0.0161,
      "velocity": 120,
      "chip": "ym2612"
    },
    {
      "channel": 4,
      "note": 65,
      "start": 4.0699,
      "duration": 0.0161,
      "velocity": 120,
      "chip": "ym2612"
    },
    {
      "channel": 3,
      "note": 60,
      "start": 4.071,
      "duration": 0.0161,
      "velocity": 120,
      "chip": "ym2612"
    },
    {
      "channel": 4,
      "note": 65,
      "start": 4.086,
      "duration": 0.0161,
      "velocity": 120,
      "chip": "ym2612"
    },
    {
      "channel": 3,
      "note": 60,
      "start": 4.0871,
      "duration": 0.0161,
      "velocity": 120,
      "chip": "ym2612"
    },
    {
      "channel": 4,
      "note": 65,
      "start": 4.1021,
      "duration": 0.0161,
      "velocity": 120,
      "chip": "ym2612"
    },
    {
      "channel": 3,
      "note": 60,
      "start": 4.1032,
      "duration": 0.0161,
      "velocity": 120,
      "chip": "ym2612"
    },
    {
      "channel": 2,
      "note": 50,
      "start": 4.1048,
      "duration": 0.0158,
      "velocity": 100,
      "chip": "ym2612"
    },
    {
      "channel": 1,
      "note": 38,
      "start": 4.1091,
      "duration": 0.0127,
      "velocity": 100,
      "chip": "ym2612"
    },
    {
      "channel": 4,
      "note": 65,
      "start": 4.1182,
      "duration": 0.0161,
      "velocity": 120,
      "chip": "ym2612"
    },
    {
      "channel": 3,
      "note": 60,
      "start": 4.1193,
      "duration": 0.0161,
      "velocity": 120,
      "chip": "ym2612"
    },
    {
      "channel": 2,
      "note": 50,
      "start": 4.1205,
      "duration": 0.016,
      "velocity": 100,
      "chip": "ym2612"
    },
    {
      "channel": 1,
      "note": 38,
      "start": 4.1217,
      "duration": 0.016,
      "velocity": 100,
      "chip": "ym2612"
    },
    {
      "channel": 4,
      "note": 65,
      "start": 4.1343,
      "duration": 0.0161,
      "velocity": 120,
      "chip": "ym2612"
    },
    {
      "channel": 3,
      "note": 60,
      "start": 4.1354,
      "duration": 0.0162,
      "velocity": 120,
      "chip": "ym2612"
    },
    {
      "channel": 2,
      "note": 50,
      "start": 4.1366,
      "duration": 0.0161,
      "velocity": 100,
      "chip": "ym2612"
    },
    {
      "channel": 1,
      "note": 38,
      "start": 4.1377,
      "duration": 0.0161,
      "velocity": 100,
      "chip": "ym2612"
    },
    {
      "channel": 4,
      "note": 65,
      "start": 4.1504,
      "duration": 0.0161,
      "velocity": 120,
      "chip": "ym2612"
    },
    {
      "channel": 3,
      "note": 60,
      "start": 4.1516,
      "duration": 0.0161,
      "velocity": 120,
      "chip": "ym2612"
    },
    {
      "channel": 2,
      "note": 50,
      "start": 4.1527,
      "duration": 0.0161,
      "velocity": 100,
      "chip": "ym2612"
    },
    {
      "channel": 1,
      "note": 38,
      "start": 4.1538,
      "duration": 0.0161,
      "velocity": 100,
      "chip": "ym2612"
    },
    {
      "channel": 4,
      "note": 65,
      "start": 4.1665,
      "duration": 0.0161,
      "velocity": 120,
      "chip": "ym2612"
    },
    {
      "channel": 3,
      "note": 60,
      "start": 4.1677,
      "duration": 0.0161,
      "velocity": 120,
      "chip": "ym2612"
    },
    {
      "channel": 2,
      "note": 50,
      "start": 4.1688,
      "duration": 0.0161,
      "velocity": 100,
      "chip": "ym2612"
    },
    {
      "channel": 1,
      "note": 38,
      "start": 4.1699,
      "duration": 0.0161,
      "velocity": 100,
      "chip": "ym2612"
    },
    {
      "channel": 4,
      "note": 65,
      "start": 4.1826,
      "duration": 0.0161,
      "velocity": 120,
      "chip": "ym2612"
    },
    {
      "channel": 3,
      "note": 60,
      "start": 4.1838,
      "duration": 0.0161,
      "velocity": 120,
      "chip": "ym2612"
    },
    {
      "channel": 2,
      "note": 50,
      "start": 4.1849,
      "duration": 0.0161,
      "velocity": 100,
      "chip": "ym2612"
    },
    {
      "channel": 1,
      "note": 38,
      "start": 4.186,
      "duration": 0.0161,
      "velocity": 100,
      "chip": "ym2612"
    },
    {
      "channel": 4,
      "note": 65,
      "start": 4.1987,
      "duration": 0.0161,
      "velocity": 120,
      "chip": "ym2612"
    },
    {
      "channel": 3,
      "note": 60,
      "start": 4.1999,
      "duration": 0.0161,
      "velocity": 120,
      "chip": "ym2612"
    },
    {
      "channel": 2,
      "note": 50,
      "start": 4.201,
      "duration": 0.0161,
      "velocity": 100,
      "chip": "ym2612"
    },
    {
      "channel": 1,
      "note": 38,
      "start": 4.2021,
      "duration": 0.0162,
      "velocity": 100,
      "chip": "ym2612"
    },
    {
      "channel": 4,
      "note": 65,
      "start": 4.2148,
      "duration": 0.0161,
      "velocity": 120,
      "chip": "ym2612"
    },
    {
      "channel": 3,
      "note": 60,
      "start": 4.216,
      "duration": 0.0161,
      "velocity": 120,
      "chip": "ym2612"
    },
    {
      "channel": 4,
      "note": 65,
      "start": 4.2309,
      "duration": 0.0161,
      "velocity": 120,
      "chip": "ym2612"
    },
    {
      "channel": 3,
      "note": 60,
      "start": 4.232,
      "duration": 0.0161,
      "velocity": 120,
      "chip": "ym2612"
    },
    {
      "channel": 4,
      "note": 65,
      "start": 4.247,
      "duration": 0.0161,
      "velocity": 120,
      "chip": "ym2612"
    },
    {
      "channel": 3,
      "note": 60,
      "start": 4.2481,
      "duration": 0.0161,
      "velocity": 120,
      "chip": "ym2612"
    },
    {
      "channel": 4,
      "note": 65,
      "start": 4.2632,
      "duration": 0.0161,
      "velocity": 120,
      "chip": "ym2612"
    },
    {
      "channel": 3,
      "note": 60,
      "start": 4.2642,
      "duration": 0.0161,
      "velocity": 120,
      "chip": "ym2612"
    },
    {
      "channel": 4,
      "note": 65,
      "start": 4.2793,
      "duration": 0.0161,
      "velocity": 120,
      "chip": "ym2612"
    },
    {
      "channel": 3,
      "note": 60,
      "start": 4.2803,
      "duration": 0.0161,
      "velocity": 120,
      "chip": "ym2612"
    },
    {
      "channel": 4,
      "note": 65,
      "start": 4.2954,
      "duration": 0.0161,
      "velocity": 120,
      "chip": "ym2612"
    },
    {
      "channel": 3,
      "note": 60,
      "start": 4.2964,
      "duration": 0.0162,
      "velocity": 120,
      "chip": "ym2612"
    },
    {
      "channel": 2,
      "note": 50,
      "start": 4.298,
      "duration": 0.0158,
      "velocity": 100,
      "chip": "ym2612"
    },
    {
      "channel": 1,
      "note": 38,
      "start": 4.2995,
      "duration": 0.0154,
      "velocity": 100,
      "chip": "ym2612"
    },
    {
      "channel": 4,
      "note": 65,
      "start": 4.3114,
      "duration": 0.0161,
      "velocity": 120,
      "chip": "ym2612"
    },
    {
      "channel": 3,
      "note": 60,
      "start": 4.3126,
      "duration": 0.0161,
      "velocity": 120,
      "chip": "ym2612"
    },
    {
      "channel": 2,
      "note": 50,
      "start": 4.3137,
      "duration": 0.016,
      "velocity": 100,
      "chip": "ym2612"
    },
    {
      "channel": 1,
      "note": 38,
      "start": 4.3149,
      "duration": 0.016,
      "velocity": 100,
      "chip": "ym2612"
    },
    {
      "channel": 4,
      "note": 65,
      "start": 4.3275,
      "duration": 0.0161,
      "velocity": 120,
      "chip": "ym2612"
    },
    {
      "channel": 3,
      "note": 60,
      "start": 4.3287,
      "duration": 0.0161,
      "velocity": 120,
      "chip": "ym2612"
    },
    {
      "channel": 2,
      "note": 50,
      "start": 4.3298,
      "duration": 0.0161,
      "velocity": 100,
      "chip": "ym2612"
    },
    {
      "channel": 1,
      "note": 38,
      "start": 4.3309,
      "duration": 0.0161,
      "velocity": 100,
      "chip": "ym2612"
    },
    {
      "channel": 4,
      "note": 65,
      "start": 4.3436,
      "duration": 0.0161,
      "velocity": 120,
      "chip": "ym2612"
    },
    {
      "channel": 3,
      "note": 60,
      "start": 4.3448,
      "duration": 0.0161,
      "velocity": 120,
      "chip": "ym2612"
    },
    {
      "channel": 2,
      "note": 50,
      "start": 4.3459,
      "duration": 0.0162,
      "velocity": 100,
      "chip": "ym2612"
    },
    {
      "channel": 1,
      "note": 38,
      "start": 4.347,
      "duration": 0.0161,
      "velocity": 100,
      "chip": "ym2612"
    },
    {
      "channel": 4,
      "note": 65,
      "start": 4.3597,
      "duration": 0.0171,
      "velocity": 120,
      "chip": "ym2612"
    },
    {
      "channel": 3,
      "note": 60,
      "start": 4.3609,
      "duration": 0.0171,
      "velocity": 120,
      "chip": "ym2612"
    },
    {
      "channel": 2,
      "note": 50,
      "start": 4.362,
      "duration": 0.0171,
      "velocity": 100,
      "chip": "ym2612"
    },
    {
      "channel": 1,
      "note": 38,
      "start": 4.3631,
      "duration": 0.0171,
      "velocity": 100,
      "chip": "ym2612"
    },
    {
      "channel": 4,
      "note": 65,
      "start": 4.3768,
      "duration": 0.0167,
      "velocity": 120,
      "chip": "ym2612"
    },
    {
      "channel": 3,
      "note": 60,
      "start": 4.378,
      "duration": 0.0167,
      "velocity": 120,
      "chip": "ym2612"
    },
    {
      "channel": 2,
      "note": 50,
      "start": 4.3791,
      "duration": 0.0167,
      "velocity": 100,
      "chip": "ym2612"
    },
    {
      "channel": 1,
      "note": 38,
      "start": 4.3802,
      "duration": 0.0167,
      "velocity": 100,
      "chip": "ym2612"
    },
    {
      "channel": 4,
      "note": 65,
      "start": 4.3935,
      "duration": 0.0163,
      "velocity": 120,
      "chip": "ym2612"
    },
    {
      "channel": 3,
      "note": 60,
      "start": 4.3946,
      "duration": 0.0163,
      "velocity": 120,
      "chip": "ym2612"
    },
    {
      "channel": 2,
      "note": 50,
      "start": 4.3957,
      "duration": 0.0163,
      "velocity": 100,
      "chip": "ym2612"
    },
    {
      "channel": 1,
      "note": 38,
      "start": 4.3969,
      "duration": 0.0163,
      "velocity": 100,
      "chip": "ym2612"
    },
    {
      "channel": 4,
      "note": 65,
      "start": 4.4098,
      "duration": 0.0146,
      "velocity": 120,
      "chip": "ym2612"
    },
    {
      "channel": 3,
      "note": 60,
      "start": 4.4109,
      "duration": 0.0146,
      "velocity": 120,
      "chip": "ym2612"
    },
    {
      "channel": 4,
      "note": 65,
      "start": 4.4244,
      "duration": 0.0186,
      "velocity": 120,
      "chip": "ym2612"
    },
    {
      "channel": 3,
      "note": 60,
      "start": 4.4256,
      "duration": 0.0186,
      "velocity": 120,
      "chip": "ym2612"
    },
    {
      "channel": 4,
      "note": 65,
      "start": 4.443,
      "duration": 0.0161,
      "velocity": 120,
      "chip": "ym2612"
    },
    {
      "channel": 3,
      "note": 60,
      "start": 4.4441,
      "duration": 0.0161,
      "velocity": 120,
      "chip": "ym2612"
    },
    {
      "channel": 4,
      "note": 65,
      "start": 4.4591,
      "duration": 0.0134,
      "velocity": 120,
      "chip": "ym2612"
    },
    {
      "channel": 3,
      "note": 60,
      "start": 4.4602,
      "duration": 0.0157,
      "velocity": 120,
      "chip": "ym2612"
    },
    {
      "channel": 4,
      "note": 65,
      "start": 4.4724,
      "duration": 0.0161,
      "velocity": 120,
      "chip": "ym2612"
    },
    {
      "channel": 3,
      "note": 60,
      "start": 4.4759,
      "duration": 0.0141,
      "velocity": 120,
      "chip": "ym2612"
    },
    {
      "channel": 4,
      "note": 65,
      "start": 4.4885,
      "duration": 0.0161,
      "velocity": 120,
      "chip": "ym2612"
    },
    {
      "channel": 3,
      "note": 60,
      "start": 4.49,
      "duration": 0.0158,
      "velocity": 120,
      "chip": "ym2612"
    },
    {
      "channel": 2,
      "note": 50,
      "start": 4.4915,
      "duration": 0.0182,
      "velocity": 100,
      "chip": "ym2612"
    },
    {
      "channel": 1,
      "note": 38,
      "start": 4.4931,
      "duration": 0.0178,
      "velocity": 100,
      "chip": "ym2612"
    },
    {
      "channel": 4,
      "note": 65,
      "start": 4.5046,
      "duration": 0.0161,
      "velocity": 120,
      "chip": "ym2612"
    },
    {
      "channel": 3,
      "note": 60,
      "start": 4.5058,
      "duration": 0.0161,
      "velocity": 120,
      "chip": "ym2612"
    },
    {
      "channel": 2,
      "note": 50,
      "start": 4.5097,
      "duration": 0.016,
      "velocity": 100,
      "chip": "ym2612"
    },
    {
      "channel": 1,
      "note": 38,
      "start": 4.5109,
      "duration": 0.016,
      "velocity": 100,
      "chip": "ym2612"
    },
    {
      "channel": 4,
      "note": 65,
      "start": 4.5207,
      "duration": 0.0161,
      "velocity": 120,
      "chip": "ym2612"
    },
    {
      "channel": 3,
      "note": 60,
      "start": 4.5219,
      "duration": 0.0161,
      "velocity": 120,
      "chip": "ym2612"
    },
    {
      "channel": 2,
      "note": 50,
      "start": 4.5258,
      "duration": 0.0134,
      "velocity": 100,
      "chip": "ym2612"
    },
    {
      "channel": 1,
      "note": 38,
      "start": 4.5269,
      "duration": 0.0157,
      "velocity": 100,
      "chip": "ym2612"
    },
    {
      "channel": 4,
      "note": 65,
      "start": 4.5368,
      "duration": 0.0161,
      "velocity": 120,
      "chip": "ym2612"
    },
    {
      "channel": 3,
      "note": 60,
      "start": 4.538,
      "duration": 0.0161,
      "velocity": 120,
      "chip": "ym2612"
    },
    {
      "channel": 2,
      "note": 50,
      "start": 4.5391,
      "duration": 0.0161,
      "velocity": 100,
      "chip": "ym2612"
    },
    {
      "channel": 1,
      "note": 38,
      "start": 4.5426,
      "duration": 0.0141,
      "velocity": 100,
      "chip": "ym2612"
    },
    {
      "channel": 4,
      "note": 65,
      "start": 4.553,
      "duration": 0.0161,
      "velocity": 120,
      "chip": "ym2612"
    },
    {
      "channel": 3,
      "note": 60,
      "start": 4.5541,
      "duration": 0.0161,
      "velocity": 120,
      "chip": "ym2612"
    },
    {
      "channel": 2,
      "note": 50,
      "start": 4.5552,
      "duration": 0.0161,
      "velocity": 100,
      "chip": "ym2612"
    },
    {
      "channel": 1,
      "note": 38,
      "start": 4.5567,
      "duration": 0.0158,
      "velocity": 100,
      "chip": "ym2612"
    },
    {
      "channel": 4,
      "note": 65,
      "start": 4.5691,
      "duration": 0.0161,
      "velocity": 120,
      "chip": "ym2612"
    },
    {
      "channel": 3,
      "note": 60,
      "start": 4.5702,
      "duration": 0.0161,
      "velocity": 120,
      "chip": "ym2612"
    },
    {
      "channel": 2,
      "note": 50,
      "start": 4.5713,
      "duration": 0.0161,
      "velocity": 100,
      "chip": "ym2612"
    },
    {
      "channel": 1,
      "note": 38,
      "start": 4.5724,
      "duration": 0.0161,
      "velocity": 100,
      "chip": "ym2612"
    },
    {
      "channel": 4,
      "note": 65,
      "start": 4.5852,
      "duration": 0.0161,
      "velocity": 120,
      "chip": "ym2612"
    },
    {
      "channel": 3,
      "note": 60,
      "start": 4.5863,
      "duration": 0.0161,
      "velocity": 120,
      "chip": "ym2612"
    },
    {
      "channel": 2,
      "note": 50,
      "start": 4.5874,
      "duration": 0.0162,
      "velocity": 100,
      "chip": "ym2612"
    },
    {
      "channel": 1,
      "note": 38,
      "start": 4.5885,
      "duration": 0.0161,
      "velocity": 100,
      "chip": "ym2612"
    },
    {
      "channel": 4,
      "note": 65,
      "start": 4.6013,
      "duration": 0.0161,
      "velocity": 120,
      "chip": "ym2612"
    },
    {
      "channel": 3,
      "note": 60,
      "start": 4.6024,
      "duration": 0.0161,
      "velocity": 120,
      "chip": "ym2612"
    },
    {
      "channel": 4,
      "note": 65,
      "start": 4.6173,
      "duration": 0.0161,
      "velocity": 120,
      "chip": "ym2612"
    },
    {
      "channel": 3,
      "note": 60,
      "start": 4.6185,
      "duration": 0.0161,
      "velocity": 120,
      "chip": "ym2612"
    },
    {
      "channel": 4,
      "note": 65,
      "start": 4.6334,
      "duration": 0.0161,
      "velocity": 120,
      "chip": "ym2612"
    },
    {
      "channel": 3,
      "note": 60,
      "start": 4.6346,
      "duration": 0.0161,
      "velocity": 120,
      "chip": "ym2612"
    },
    {
      "channel": 4,
      "note": 65,
      "start": 4.6495,
      "duration": 0.0161,
      "velocity": 120,
      "chip": "ym2612"
    },
    {
      "channel": 3,
      "note": 60,
      "start": 4.6507,
      "duration": 0.0161,
      "velocity": 120,
      "chip": "ym2612"
    },
    {
      "channel": 4,
      "note": 65,
      "start": 4.6656,
      "duration": 0.0196,
      "velocity": 120,
      "chip": "ym2612"
    },
    {
      "channel": 3,
      "note": 60,
      "start": 4.6668,
      "duration": 0.0196,
      "velocity": 120,
      "chip": "ym2612"
    },
    {
      "channel": 0,
      "note": 88,
      "start": 4.6841,
      "duration": 0.0143,
      "velocity": 127,
      "chip": "ym2612"
    },
    {
      "channel": 4,
      "note": 65,
      "start": 4.6852,
      "duration": 0.0143,
      "velocity": 120,
      "chip": "ym2612"
    },
    {
      "channel": 3,
      "note": 60,
      "start": 4.6864,
      "duration": 0.0143,
      "velocity": 120,
      "chip": "ym2612"
    },
    {
      "channel": 2,
      "note": 50,
      "start": 4.6879,
      "duration": 0.014,
      "velocity": 100,
      "chip": "ym2612"
    },
    {
      "channel": 1,
      "note": 38,
      "start": 4.6898,
      "duration": 0.0133,
      "velocity": 100,
      "chip": "ym2612"
    },
    {
      "channel": 0,
      "note": 86,
      "start": 4.6984,
      "duration": 0.016,
      "velocity": 127,
      "chip": "ym2612"
    },
    {
      "channel": 4,
      "note": 65,
      "start": 4.6995,
      "duration": 0.016,
      "velocity": 120,
      "chip": "ym2612"
    },
    {
      "channel": 3,
      "note": 60,
      "start": 4.7007,
      "duration": 0.016,
      "velocity": 120,
      "chip": "ym2612"
    },
    {
      "channel": 2,
      "note": 50,
      "start": 4.7019,
      "duration": 0.016,
      "velocity": 100,
      "chip": "ym2612"
    },
    {
      "channel": 1,
      "note": 38,
      "start": 4.703,
      "duration": 0.0159,
      "velocity": 100,
      "chip": "ym2612"
    },
    {
      "channel": 0,
      "note": 85,
      "start": 4.7144,
      "duration": 0.0161,
      "velocity": 127,
      "chip": "ym2612"
    },
    {
      "channel": 4,
      "note": 65,
      "start": 4.7156,
      "duration": 0.0161,
      "velocity": 120,
      "chip": "ym2612"
    },
    {
      "channel": 3,
      "note": 60,
      "start": 4.7167,
      "duration": 0.0161,
      "velocity": 120,
      "chip": "ym2612"
    },
    {
      "channel": 2,
      "note": 50,
      "start": 4.7179,
      "duration": 0.0161,
      "velocity": 100,
      "chip": "ym2612"
    },
    {
      "channel": 1,
      "note": 38,
      "start": 4.719,
      "duration": 0.0161,
      "velocity": 100,
      "chip": "ym2612"
    },
    {
      "channel": 0,
      "note": 83,
      "start": 4.7305,
      "duration": 0.0161,
      "velocity": 127,
      "chip": "ym2612"
    },
    {
      "channel": 4,
      "note": 65,
      "start": 4.7317,
      "duration": 0.0161,
      "velocity": 120,
      "chip": "ym2612"
    },
    {
      "channel": 3,
      "note": 60,
      "start": 4.7328,
      "duration": 0.0161,
      "velocity": 120,
      "chip": "ym2612"
    },
    {
      "channel": 2,
      "note": 50,
      "start": 4.734,
      "duration": 0.0161,
      "velocity": 100,
      "chip": "ym2612"
    },
    {
      "channel": 1,
      "note": 38,
      "start": 4.735,
      "duration": 0.0162,
      "velocity": 100,
      "chip": "ym2612"
    },
    {
      "channel": 0,
      "note": 81,
      "start": 4.7466,
      "duration": 0.0161,
      "velocity": 127,
      "chip": "ym2612"
    },
    {
      "channel": 4,
      "note": 65,
      "start": 4.7478,
      "duration": 0.0161,
      "velocity": 120,
      "chip": "ym2612"
    },
    {
      "channel": 3,
      "note": 60,
      "start": 4.7489,
      "duration": 0.0161,
      "velocity": 120,
      "chip": "ym2612"
    },
    {
      "channel": 2,
      "note": 50,
      "start": 4.75,
      "duration": 0.0161,
      "velocity": 100,
      "chip": "ym2612"
    },
    {
      "channel": 1,
      "note": 38,
      "start": 4.7512,
      "duration": 0.0161,
      "velocity": 100,
      "chip": "ym2612"
    },
    {
      "channel": 0,
      "note": 80,
      "start": 4.7627,
      "duration": 0.0179,
      "velocity": 127,
      "chip": "ym2612"
    },
    {
      "channel": 4,
      "note": 65,
      "start": 4.7639,
      "duration": 0.0179,
      "velocity": 120,
      "chip": "ym2612"
    },
    {
      "channel": 3,
      "note": 60,
      "start": 4.765,
      "duration": 0.0179,
      "velocity": 120,
      "chip": "ym2612"
    },
    {
      "channel": 2,
      "note": 50,
      "start": 4.7661,
      "duration": 0.0179,
      "velocity": 100,
      "chip": "ym2612"
    },
    {
      "channel": 1,
      "note": 38,
      "start": 4.7673,
      "duration": 0.0179,
      "velocity": 100,
      "chip": "ym2612"
    },
    {
      "channel": 0,
      "note": 88,
      "start": 4.7807,
      "duration": 0.0144,
      "velocity": 127,
      "chip": "ym2612"
    },
    {
      "channel": 4,
      "note": 65,
      "start": 4.7818,
      "duration": 0.0144,
      "velocity": 120,
      "chip": "ym2612"
    },
    {
      "channel": 3,
      "note": 60,
      "start": 4.7829,
      "duration": 0.0144,
      "velocity": 120,
      "chip": "ym2612"
    },
    {
      "channel": 2,
      "note": 50,
      "start": 4.7841,
      "duration": 0.0144,
      "velocity": 100,
      "chip": "ym2612"
    },
    {
      "channel": 1,
      "note": 38,
      "start": 4.7852,
      "duration": 0.0144,
      "velocity": 100,
      "chip": "ym2612"
    },
    {
      "channel": 0,
      "note": 86,
      "start": 4.795,
      "duration": 0.016,
      "velocity": 127,
      "chip": "ym2612"
    },
    {
      "channel": 4,
      "note": 65,
      "start": 4.7962,
      "duration": 0.016,
      "velocity": 120,
      "chip": "ym2612"
    },
    {
      "channel": 3,
      "note": 60,
      "start": 4.7973,
      "duration": 0.016,
      "velocity": 120,
      "chip": "ym2612"
    },
    {
      "channel": 0,
      "note": 85,
      "start": 4.8111,
      "duration": 0.0161,
      "velocity": 127,
      "chip": "ym2612"
    },
    {
      "channel": 4,
      "note": 65,
      "start": 4.8122,
      "duration": 0.0161,
      "velocity": 120,
      "chip": "ym2612"
    },
    {
      "channel": 3,
      "note": 60,
      "start": 4.8134,
      "duration": 0.0161,
      "velocity": 120,
      "chip": "ym2612"
    },
    {
      "channel": 0,
      "note": 83,
      "start": 4.8271,
      "duration": 0.0168,
      "velocity": 127,
      "chip": "ym2612"
    },
    {
      "channel": 4,
      "note": 65,
      "start": 4.8283,
      "duration": 0.0168,
      "velocity": 120,
      "chip": "ym2612"
    },
    {
      "channel": 3,
      "note": 60,
      "start": 4.8294,
      "duration": 0.0168,
      "velocity": 120,
      "chip": "ym2612"
    },
    {
      "channel": 0,
      "note": 81,
      "start": 4.8439,
      "duration": 0.0167,
      "velocity": 127,
      "chip": "ym2612"
    },
    {
      "channel": 4,
      "note": 65,
      "start": 4.8451,
      "duration": 0.0167,
      "velocity": 120,
      "chip": "ym2612"
    },
    {
      "channel": 3,
      "note": 60,
      "start": 4.8462,
      "duration": 0.0167,
      "velocity": 120,
      "chip": "ym2612"
    },
    {
      "channel": 0,
      "note": 80,
      "start": 4.8606,
      "duration": 0.0181,
      "velocity": 127,
      "chip": "ym2612"
    },
    {
      "channel": 4,
      "note": 65,
      "start": 4.8618,
      "duration": 0.0181,
      "velocity": 120,
      "chip": "ym2612"
    },
    {
      "channel": 3,
      "note": 60,
      "start": 4.8629,
      "duration": 0.0181,
      "velocity": 120,
      "chip": "ym2612"
    },
    {
      "channel": 0,
      "note": 88,
      "start": 4.8788,
      "duration": 0.013,
      "velocity": 127,
      "chip": "ym2612"
    },
    {
      "channel": 4,
      "note": 65,
      "start": 4.88,
      "duration": 0.0129,
      "velocity": 120,
      "chip": "ym2612"
    },
    {
      "channel": 3,
      "note": 60,
      "start": 4.881,
      "duration": 0.013,
      "velocity": 120,
      "chip": "ym2612"
    },
    {
      "channel": 2,
      "note": 50,
      "start": 4.8826,
      "duration": 0.0126,
      "velocity": 100,
      "chip": "ym2612"
    },
    {
      "channel": 1,
      "note": 38,
      "start": 4.8841,
      "duration": 0.0122,
      "velocity": 100,
      "chip": "ym2612"
    },
    {
      "channel": 0,
      "note": 86,
      "start": 4.8917,
      "duration": 0.0187,
      "velocity": 127,
      "chip": "ym2612"
    },
    {
      "channel": 4,
      "note": 65,
      "start": 4.8929,
      "duration": 0.0187,
      "velocity": 120,
      "chip": "ym2612"
    },
    {
      "channel": 3,
      "note": 60,
      "start": 4.894,
      "duration": 0.0187,
      "velocity": 120,
      "chip": "ym2612"
    },
    {
      "channel": 2,
      "note": 50,
      "start": 4.8951,
      "duration": 0.0186,
      "velocity": 100,
      "chip": "ym2612"
    },
    {
      "channel": 1,
      "note": 38,
      "start": 4.8964,
      "duration": 0.0186,
      "velocity": 100,
      "chip": "ym2612"
    },
    {
      "channel": 0,
      "note": 85,
      "start": 4.9104,
      "duration": 0.0161,
      "velocity": 127,
      "chip": "ym2612"
    },
    {
      "channel": 4,
      "note": 65,
      "start": 4.9116,
      "duration": 0.0161,
      "velocity": 120,
      "chip": "ym2612"
    },
    {
      "channel": 3,
      "note": 60,
      "start": 4.9127,
      "duration": 0.0161,
      "velocity": 120,
      "chip": "ym2612"
    },
    {
      "channel": 2,
      "note": 50,
      "start": 4.9138,
      "duration": 0.0162,
      "velocity": 100,
      "chip": "ym2612"
    },
    {
      "channel": 1,
      "note": 38,
      "start": 4.9149,
      "duration": 0.0161,
      "velocity": 100,
      "chip": "ym2612"
    },
    {
      "channel": 0,
      "note": 83,
      "start": 4.9265,
      "duration": 0.0157,
      "velocity": 127,
      "chip": "ym2612"
    },
    {
      "channel": 4,
      "note": 65,
      "start": 4.9277,
      "duration": 0.0157,
      "velocity": 120,
      "chip": "ym2612"
    },
    {
      "channel": 3,
      "note": 60,
      "start": 4.9288,
      "duration": 0.0157,
      "velocity": 120,
      "chip": "ym2612"
    },
    {
      "channel": 2,
      "note": 50,
      "start": 4.93,
      "duration": 0.0157,
      "velocity": 100,
      "chip": "ym2612"
    },
    {
      "channel": 1,
      "note": 38,
      "start": 4.931,
      "duration": 0.0158,
      "velocity": 100,
      "chip": "ym2612"
    },
    {
      "channel": 0,
      "note": 81,
      "start": 4.9422,
      "duration": 0.0139,
      "velocity": 127,
      "chip": "ym2612"
    },
    {
      "channel": 4,
      "note": 65,
      "start": 4.9434,
      "duration": 0.0141,
      "velocity": 120,
      "chip": "ym2612"
    },
    {
      "channel": 3,
      "note": 60,
      "start": 4.9445,
      "duration": 0.0141,
      "velocity": 120,
      "chip": "ym2612"
    },
    {
      "channel": 2,
      "note": 50,
      "start": 4.9457,
      "duration": 0.0141,
      "velocity": 100,
      "chip": "ym2612"
    },
    {
      "channel": 1,
      "note": 38,
      "start": 4.9468,
      "duration": 0.0141,
      "velocity": 100,
      "chip": "ym2612"
    },
    {
      "channel": 0,
      "note": 80,
      "start": 4.9561,
      "duration": 0.0221,
      "velocity": 127,
      "chip": "ym2612"
    },
    {
      "channel": 4,
      "note": 65,
      "start": 4.9574,
      "duration": 0.022,
      "velocity": 120,
      "chip": "ym2612"
    },
    {
      "channel": 3,
      "note": 60,
      "start": 4.9586,
      "duration": 0.022,
      "velocity": 120,
      "chip": "ym2612"
    },
    {
      "channel": 2,
      "note": 50,
      "start": 4.9597,
      "duration": 0.022,
      "velocity": 100,
      "chip": "ym2612"
    },
    {
      "channel": 1,
      "note": 38,
      "start": 4.9609,
      "duration": 0.0156,
      "velocity": 124,
      "chip": "ym2612"
    },
    {
      "channel": 1,
      "note": 78,
      "start": 4.9765,
      "duration": 0.0117,
      "velocity": 124,
      "chip": "ym2612"
    },
    {
      "channel": 0,
      "note": 78,
      "start": 4.9782,
      "duration": 0.0144,
      "velocity": 127,
      "chip": "ym2612"
    },
    {
      "channel": 4,
      "note": 65,
      "start": 4.9794,
      "duration": 0.0144,
      "velocity": 120,
      "chip": "ym2612"
    },
    {
      "channel": 3,
      "note": 60,
      "start": 4.9805,
      "duration": 0.0144,
      "velocity": 120,
      "chip": "ym2612"
    },
    {
      "channel": 2,
      "note": 50,
      "start": 4.9817,
      "duration": 0.0144,
      "velocity": 100,
      "chip": "ym2612"
    },
    {
      "channel": 1,
      "note": 76,
      "start": 4.9882,
      "duration": 0.016,
      "velocity": 124,
      "chip": "ym2612"
    },
    {
      "channel": 0,
      "note": 76,
      "start": 4.9926,
      "duration": 0.0133,
      "velocity": 127,
      "chip": "ym2612"
    },
    {
      "channel": 4,
      "note": 65,
      "start": 4.9938,
      "duration": 0.0157,
      "velocity": 120,
      "chip": "ym2612"
    },
    {
      "channel": 3,
      "note": 60,
      "start": 4.9949,
      "duration": 0.0157,
      "velocity": 120,
      "chip": "ym2612"
    },
    {
      "channel": 1,
      "note": 75,
      "start": 5.0042,
      "duration": 0.0161,
      "velocity": 124,
      "chip": "ym2612"
    },
    {
      "channel": 0,
      "note": 75,
      "start": 5.0059,
      "duration": 0.0161,
      "velocity": 127,
      "chip": "ym2612"
    },
    {
      "channel": 4,
      "note": 65,
      "start": 5.0095,
      "duration": 0.014,
      "velocity": 120,
      "chip": "ym2612"
    },
    {
      "channel": 3,
      "note": 60,
      "start": 5.0106,
      "duration": 0.014,
      "velocity": 120,
      "chip": "ym2612"
    },
    {
      "channel": 1,
      "note": 74,
      "start": 5.0203,
      "duration": 0.0161,
      "velocity": 124,
      "chip": "ym2612"
    },
    {
      "channel": 0,
      "note": 73,
      "start": 5.022,
      "duration": 0.0161,
      "velocity": 127,
      "chip": "ym2612"
    },
    {
      "channel": 4,
      "note": 65,
      "start": 5.0235,
      "duration": 0.0186,
      "velocity": 120,
      "chip": "ym2612"
    },
    {
      "channel": 3,
      "note": 60,
      "start": 5.0246,
      "duration": 0.0186,
      "velocity": 120,
      "chip": "ym2612"
    },
    {
      "channel": 1,
      "note": 72,
      "start": 5.0364,
      "duration": 0.0161,
      "velocity": 124,
      "chip": "ym2612"
    },
    {
      "channel": 0,
      "note": 71,
      "start": 5.0381,
      "duration": 0.0161,
      "velocity": 127,
      "chip": "ym2612"
    },
    {
      "channel": 4,
      "note": 65,
      "start": 5.042,
      "duration": 0.0134,
      "velocity": 120,
      "chip": "ym2612"
    },
    {
      "channel": 3,
      "note": 60,
      "start": 5.0432,
      "duration": 0.0161,
      "velocity": 120,
      "chip": "ym2612"
    },
    {
      "channel": 1,
      "note": 71,
      "start": 5.0525,
      "duration": 0.0161,
      "velocity": 124,
      "chip": "ym2612"
    },
    {
      "channel": 0,
      "note": 69,
      "start": 5.0542,
      "duration": 0.0179,
      "velocity": 115,
      "chip": "ym2612"
    },
    {
      "channel": 4,
      "note": 65,
      "start": 5.0554,
      "duration": 0.0203,
      "velocity": 120,
      "chip": "ym2612"
    },
    {
      "channel": 3,
      "note": 60,
      "start": 5.0593,
      "duration": 0.0176,
      "velocity": 120,
      "chip": "ym2612"
    },
    {
      "channel": 1,
      "note": 70,
      "start": 5.0686,
      "duration": 0.0161,
      "velocity": 124,
      "chip": "ym2612"
    },
    {
      "channel": 0,
      "note": 36,
      "start": 5.0721,
      "duration": 0.0144,
      "velocity": 115,
      "chip": "ym2612"
    },
    {
      "channel": 4,
      "note": 65,
      "start": 5.0757,
      "duration": 0.012,
      "velocity": 120,
      "chip": "ym2612"
    },
    {
      "channel": 3,
      "note": 60,
      "start": 5.0768,
      "duration": 0.012,
      "velocity": 120,
      "chip": "ym2612"
    },
    {
      "channel": 2,
      "note": 50,
      "start": 5.0784,
      "duration": 0.012,
      "velocity": 100,
      "chip": "ym2612"
    },
    {
      "channel": 1,
      "note": 69,
      "start": 5.0847,
      "duration": 0.0161,
      "velocity": 124,
      "chip": "ym2612"
    },
    {
      "channel": 0,
      "note": 36,
      "start": 5.0865,
      "duration": 0.016,
      "velocity": 115,
      "chip": "ym2612"
    },
    {
      "channel": 4,
      "note": 65,
      "start": 5.0876,
      "duration": 0.016,
      "velocity": 120,
      "chip": "ym2612"
    },
    {
      "channel": 3,
      "note": 60,
      "start": 5.0888,
      "duration": 0.016,
      "velocity": 120,
      "chip": "ym2612"
    },
    {
      "channel": 2,
      "note": 50,
      "start": 5.0903,
      "duration": 0.0184,
      "velocity": 100,
      "chip": "ym2612"
    },
    {
      "channel": 1,
      "note": 68,
      "start": 5.1008,
      "duration": 0.0161,
      "velocity": 124,
      "chip": "ym2612"
    },
    {
      "channel": 0,
      "note": 37,
      "start": 5.1025,
      "duration": 0.0161,
      "velocity": 115,
      "chip": "ym2612"
    },
    {
      "channel": 4,
      "note": 65,
      "start": 5.1037,
      "duration": 0.0161,
      "velocity": 120,
      "chip": "ym2612"
    },
    {
      "channel": 3,
      "note": 60,
      "start": 5.1048,
      "duration": 0.0161,
      "velocity": 120,
      "chip": "ym2612"
    },
    {
      "channel": 2,
      "note": 50,
      "start": 5.1087,
      "duration": 0.0134,
      "velocity": 100,
      "chip": "ym2612"
    },
    {
      "channel": 1,
      "note": 66,
      "start": 5.1169,
      "duration": 0.0161,
      "velocity": 124,
      "chip": "ym2612"
    },
    {
      "channel": 0,
      "note": 37,
      "start": 5.1186,
      "duration": 0.0161,
      "velocity": 115,
      "chip": "ym2612"
    },
    {
      "channel": 4,
      "note": 65,
      "start": 5.1198,
      "duration": 0.0161,
      "velocity": 120,
      "chip": "ym2612"
    },
    {
      "channel": 3,
      "note": 60,
      "start": 5.1209,
      "duration": 0.0161,
      "velocity": 120,
      "chip": "ym2612"
    },
    {
      "channel": 2,
      "note": 50,
      "start": 5.1221,
      "duration": 0.0161,
      "velocity": 100,
      "chip": "ym2612"
    },
    {
      "channel": 1,
      "note": 65,
      "start": 5.133,
      "duration": 0.0161,
      "velocity": 124,
      "chip": "ym2612"
    },
    {
      "channel": 0,
      "note": 38,
      "start": 5.1347,
      "duration": 0.0161,
      "velocity": 115,
      "chip": "ym2612"
    },
    {
      "channel": 4,
      "note": 65,
      "start": 5.1359,
      "duration": 0.0161,
      "velocity": 120,
      "chip": "ym2612"
    },
    {
      "channel": 3,
      "note": 60,
      "start": 5.137,
      "duration": 0.0161,
      "velocity": 120,
      "chip": "ym2612"
    },
    {
      "channel": 2,
      "note": 50,
      "start": 5.1382,
      "duration": 0.0161,
      "velocity": 100,
      "chip": "ym2612"
    },
    {
      "channel": 1,
      "note": 64,
      "start": 5.1491,
      "duration": 0.0161,
      "velocity": 124,
      "chip": "ym2612"
    },
    {
      "channel": 0,
      "note": 38,
      "start": 5.1508,
      "duration": 0.0179,
      "velocity": 127,
      "chip": "ym2612"
    },
    {
      "channel": 4,
      "note": 65,
      "start": 5.152,
      "duration": 0.018,
      "velocity": 120,
      "chip": "ym2612"
    },
    {
      "channel": 3,
      "note": 60,
      "start": 5.1531,
      "duration": 0.0179,
      "velocity": 120,
      "chip": "ym2612"
    },
    {
      "channel": 2,
      "note": 50,
      "start": 5.1542,
      "duration": 0.018,
      "velocity": 100,
      "chip": "ym2612"
    },
    {
      "channel": 1,
      "note": 62,
      "start": 5.1652,
      "duration": 0.0161,
      "velocity": 124,
      "chip": "ym2612"
    },
    {
      "channel": 0,
      "note": 84,
      "start": 5.1688,
      "duration": 0.0143,
      "velocity": 127,
      "chip": "ym2612"
    },
    {
      "channel": 4,
      "note": 65,
      "start": 5.1699,
      "duration": 0.0143,
      "velocity": 120,
      "chip": "ym2612"
    },
    {
      "channel": 3,
      "note": 60,
      "start": 5.171,
      "duration": 0.0143,
      "velocity": 120,
      "chip": "ym2612"
    },
    {
      "channel": 2,
      "note": 50,
      "start": 5.1722,
      "duration": 0.0143,
      "velocity": 100,
      "chip": "ym2612"
    },
    {
      "channel": 1,
      "note": 61,
      "start": 5.1813,
      "duration": 0.0161,
      "velocity": 124,
      "chip": "ym2612"
    },
    {
      "channel": 0,
      "note": 82,
      "start": 5.1831,
      "duration": 0.016,
      "velocity": 127,
      "chip": "ym2612"
    },
    {
      "channel": 4,
      "note": 65,
      "start": 5.1842,
      "duration": 0.016,
      "velocity": 120,
      "chip": "ym2612"
    },
    {
      "channel": 3,
      "note": 60,
      "start": 5.1854,
      "duration": 0.016,
      "velocity": 120,
      "chip": "ym2612"
    },
    {
      "channel": 1,
      "note": 60,
      "start": 5.1974,
      "duration": 0.0161,
      "velocity": 124,
      "chip": "ym2612"
    },
    {
      "channel": 0,
      "note": 81,
      "start": 5.1991,
      "duration": 0.0162,
      "velocity": 127,
      "chip": "ym2612"
    },
    {
      "channel": 4,
      "note": 65,
      "start": 5.2002,
      "duration": 0.0161,
      "velocity": 120,
      "chip": "ym2612"
    },
    {
      "channel": 3,
      "note": 60,
      "start": 5.2014,
      "duration": 0.0162,
      "velocity": 120,
      "chip": "ym2612"
    },
    {
      "channel": 1,
      "note": 59,
      "start": 5.2135,
      "duration": 0.0161,
      "velocity": 124,
      "chip": "ym2612"
    },
    {
      "channel": 0,
      "note": 79,
      "start": 5.2153,
      "duration": 0.0161,
      "velocity": 127,
      "chip": "ym2612"
    },
    {
      "channel": 4,
      "note": 65,
      "start": 5.2164,
      "duration": 0.0161,
      "velocity": 120,
      "chip": "ym2612"
    },
    {
      "channel": 3,
      "note": 60,
      "start": 5.2176,
      "duration": 0.0161,
      "velocity": 120,
      "chip": "ym2612"
    },
    {
      "channel": 1,
      "note": 57,
      "start": 5.2296,
      "duration": 0.0161,
      "velocity": 124,
      "chip": "ym2612"
    },
    {
      "channel": 0,
      "note": 77,
      "start": 5.2314,
      "duration": 0.0161,
      "velocity": 127,
      "chip": "ym2612"
    },
    {
      "channel": 4,
      "note": 65,
      "start": 5.2325,
      "duration": 0.0161,
      "velocity": 120,
      "chip": "ym2612"
    },
    {
      "channel": 3,
      "note": 60,
      "start": 5.2337,
      "duration": 0.0161,
      "velocity": 120,
      "chip": "ym2612"
    },
    {
      "channel": 1,
      "note": 56,
      "start": 5.2457,
      "duration": 0.0161,
      "velocity": 124,
      "chip": "ym2612"
    },
    {
      "channel": 0,
      "note": 76,
      "start": 5.2474,
      "duration": 0.0179,
      "velocity": 127,
      "chip": "ym2612"
    },
    {
      "channel": 4,
      "note": 65,
      "start": 5.2486,
      "duration": 0.0179,
      "velocity": 120,
      "chip": "ym2612"
    },
    {
      "channel": 3,
      "note": 60,
      "start": 5.2497,
      "duration": 0.0179,
      "velocity": 120,
      "chip": "ym2612"
    },
    {
      "channel": 1,
      "note": 55,
      "start": 5.2618,
      "duration": 0.0161,
      "velocity": 124,
      "chip": "ym2612"
    },
    {
      "channel": 0,
      "note": 84,
      "start": 5.2654,
      "duration": 0.0143,
      "velocity": 127,
      "chip": "ym2612"
    },
    {
      "channel": 4,
      "note": 65,
      "start": 5.2665,
      "duration": 0.0143,
      "velocity": 120,
      "chip": "ym2612"
    },
    {
      "channel": 3,
      "note": 60,
      "start": 5.2677,
      "duration": 0.0143,
      "velocity": 120,
      "chip": "ym2612"
    },
    {
      "channel": 2,
      "note": 50,
      "start": 5.2692,
      "duration": 0.014,
      "velocity": 100,
      "chip": "ym2612"
    },
    {
      "channel": 1,
      "note": 53,
      "start": 5.2779,
      "duration": 0.0161,
      "velocity": 124,
      "chip": "ym2612"
    },
    {
      "channel": 0,
      "note": 82,
      "start": 5.2797,
      "duration": 0.016,
      "velocity": 127,
      "chip": "ym2612"
    },
    {
      "channel": 4,
      "note": 65,
      "start": 5.2808,
      "duration": 0.016,
      "velocity": 120,
      "chip": "ym2612"
    },
    {
      "channel": 3,
      "note": 60,
      "start": 5.282,
      "duration": 0.016,
      "velocity": 120,
      "chip": "ym2612"
    },
    {
      "channel": 2,
      "note": 50,
      "start": 5.2832,
      "duration": 0.016,
      "velocity": 100,
      "chip": "ym2612"
    },
    {
      "channel": 1,
      "note": 52,
      "start": 5.294,
      "duration": 0.0165,
      "velocity": 124,
      "chip": "ym2612"
    },
    {
      "channel": 0,
      "note": 81,
      "start": 5.2957,
      "duration": 0.0165,
      "velocity": 127,
      "chip": "ym2612"
    },
    {
      "channel": 4,
      "note": 65,
      "start": 5.2969,
      "duration": 0.0166,
      "velocity": 120,
      "chip": "ym2612"
    },
    {
      "channel": 3,
      "note": 60,
      "start": 5.298,
      "duration": 0.0165,
      "velocity": 120,
      "chip": "ym2612"
    },
    {
      "channel": 2,
      "note": 50,
      "start": 5.2992,
      "duration": 0.0165,
      "velocity": 100,
      "chip": "ym2612"
    },
    {
      "channel": 1,
      "note": 51,
      "start": 5.3105,
      "duration": 0.0159,
      "velocity": 1,
      "chip": "ym2612"
    },
    {
      "channel": 0,
      "note": 79,
      "start": 5.3123,
      "duration": 0.0159,
      "velocity": 127,
      "chip": "ym2612"
    },
    {
      "channel": 4,
      "note": 65,
      "start": 5.3135,
      "duration": 0.0159,
      "velocity": 120,
      "chip": "ym2612"
    },
    {
      "channel": 3,
      "note": 60,
      "start": 5.3146,
      "duration": 0.0159,
      "velocity": 120,
      "chip": "ym2612"
    },
    {
      "channel": 2,
      "note": 50,
      "start": 5.3157,
      "duration": 0.0159,
      "velocity": 100,
      "chip": "ym2612"
    },
    {
      "channel": 0,
      "note": 77,
      "start": 5.3282,
      "duration": 0.0155,
      "velocity": 127,
      "chip": "ym2612"
    },
    {
      "channel": 4,
      "note": 65,
      "start": 5.3293,
      "duration": 0.0154,
      "velocity": 120,
      "chip": "ym2612"
    },
    {
      "channel": 3,
      "note": 60,
      "start": 5.3305,
      "duration": 0.0155,
      "velocity": 120,
      "chip": "ym2612"
    },
    {
      "channel": 2,
      "note": 50,
      "start": 5.3315,
      "duration": 0.0155,
      "velocity": 100,
      "chip": "ym2612"
    },
    {
      "channel": 1,
      "note": 51,
      "start": 5.3337,
      "duration": 0.0145,
      "velocity": 100,
      "chip": "ym2612"
    },
    {
      "channel": 0,
      "note": 76,
      "start": 5.3436,
      "duration": 0.0166,
      "velocity": 115,
      "chip": "ym2612"
    },
    {
      "channel": 4,
      "note": 65,
      "start": 5.3448,
      "duration": 0.0167,
      "velocity": 120,
      "chip": "ym2612"
    },
    {
      "channel": 3,
      "note": 60,
      "start": 5.3459,
      "duration": 0.0167,
      "velocity": 120,
      "chip": "ym2612"
    },
    {
      "channel": 2,
      "note": 50,
      "start": 5.347,
      "duration": 0.0167,
      "velocity": 100,
      "chip": "ym2612"
    },
    {
      "channel": 1,
      "note": 38,
      "start": 5.3481,
      "duration": 0.0167,
      "velocity": 100,
      "chip": "ym2612"
    },
    {
      "channel": 0,
      "note": 36,
      "start": 5.3603,
      "duration": 0.0171,
      "velocity": 115,
      "chip": "ym2612"
    },
    {
      "channel": 4,
      "note": 65,
      "start": 5.3614,
      "duration": 0.0171,
      "velocity": 120,
      "chip": "ym2612"
    },
    {
      "channel": 3,
      "note": 60,
      "start": 5.3626,
      "duration": 0.0171,
      "velocity": 120,
      "chip": "ym2612"
    },
    {
      "channel": 2,
      "note": 50,
      "start": 5.3637,
      "duration": 0.0171,
      "velocity": 100,
      "chip": "ym2612"
    },
    {
      "channel": 1,
      "note": 38,
      "start": 5.3648,
      "duration": 0.0171,
      "velocity": 100,
      "chip": "ym2612"
    },
    {
      "channel": 0,
      "note": 36,
      "start": 5.3773,
      "duration": 0.0161,
      "velocity": 115,
      "chip": "ym2612"
    },
    {
      "channel": 4,
      "note": 65,
      "start": 5.3785,
      "duration": 0.016,
      "velocity": 120,
      "chip": "ym2612"
    },
    {
      "channel": 3,
      "note": 60,
      "start": 5.3796,
      "duration": 0.0161,
      "velocity": 120,
      "chip": "ym2612"
    },
    {
      "channel": 0,
      "note": 37,
      "start": 5.3934,
      "duration": 0.0157,
      "velocity": 115,
      "chip": "ym2612"
    },
    {
      "channel": 4,
      "note": 65,
      "start": 5.3946,
      "duration": 0.0158,
      "velocity": 120,
      "chip": "ym2612"
    },
    {
      "channel": 3,
      "note": 60,
      "start": 5.3957,
      "duration": 0.0157,
      "velocity": 120,
      "chip": "ym2612"
    },
    {
      "channel": 0,
      "note": 37,
      "start": 5.4091,
      "duration": 0.0141,
      "velocity": 115,
      "chip": "ym2612"
    },
    {
      "channel": 4,
      "note": 65,
      "start": 5.4104,
      "duration": 0.014,
      "velocity": 120,
      "chip": "ym2612"
    },
    {
      "channel": 3,
      "note": 60,
      "start": 5.4114,
      "duration": 0.0141,
      "velocity": 120,
      "chip": "ym2612"
    },
    {
      "channel": 0,
      "note": 38,
      "start": 5.4232,
      "duration": 0.0158,
      "velocity": 115,
      "chip": "ym2612"
    },
    {
      "channel": 4,
      "note": 65,
      "start": 5.4244,
      "duration": 0.0186,
      "velocity": 120,
      "chip": "ym2612"
    },
    {
      "channel": 3,
      "note": 60,
      "start": 5.4255,
      "duration": 0.0185,
      "velocity": 120,
      "chip": "ym2612"
    },
    {
      "channel": 0,
      "note": 38,
      "start": 5.439,
      "duration": 0.0207,
      "velocity": 127,
      "chip": "ym2612"
    },
    {
      "channel": 4,
      "note": 65,
      "start": 5.4429,
      "duration": 0.0179,
      "velocity": 120,
      "chip": "ym2612"
    },
    {
      "channel": 3,
      "note": 60,
      "start": 5.444,
      "duration": 0.018,
      "velocity": 120,
      "chip": "ym2612"
    },
    {
      "channel": 0,
      "note": 78,
      "start": 5.4597,
      "duration": 0.0115,
      "velocity": 127,
      "chip": "ym2612"
    },
    {
      "channel": 4,
      "note": 65,
      "start": 5.4609,
      "duration": 0.0115,
      "velocity": 120,
      "chip": "ym2612"
    },
    {
      "channel": 3,
      "note": 60,
      "start": 5.462,
      "duration": 0.0139,
      "velocity": 120,
      "chip": "ym2612"
    },
    {
      "channel": 2,
      "note": 50,
      "start": 5.4635,
      "duration": 0.0136,
      "velocity": 100,
      "chip": "ym2612"
    },
    {
      "channel": 1,
      "note": 38,
      "start": 5.4651,
      "duration": 0.0132,
      "velocity": 100,
      "chip": "ym2612"
    },
    {
      "channel": 0,
      "note": 76,
      "start": 5.4712,
      "duration": 0.016,
      "velocity": 127,
      "chip": "ym2612"
    },
    {
      "channel": 4,
      "note": 65,
      "start": 5.4724,
      "duration": 0.0161,
      "velocity": 120,
      "chip": "ym2612"
    },
    {
      "channel": 3,
      "note": 60,
      "start": 5.4759,
      "duration": 0.0141,
      "velocity": 120,
      "chip": "ym2612"
    },
    {
      "channel": 2,
      "note": 50,
      "start": 5.4771,
      "duration": 0.0139,
      "velocity": 100,
      "chip": "ym2612"
    },
    {
      "channel": 1,
      "note": 38,
      "start": 5.4783,
      "duration": 0.0139,
      "velocity": 100,
      "chip": "ym2612"
    },
    {
      "channel": 0,
      "note": 75,
      "start": 5.4873,
      "duration": 0.0161,
      "velocity": 127,
      "chip": "ym2612"
    },
    {
      "channel": 4,
      "note": 65,
      "start": 5.4885,
      "duration": 0.0161,
      "velocity": 120,
      "chip": "ym2612"
    },
    {
      "channel": 3,
      "note": 60,
      "start": 5.4899,
      "duration": 0.0157,
      "velocity": 120,
      "chip": "ym2612"
    },
    {
      "channel": 2,
      "note": 50,
      "start": 5.491,
      "duration": 0.0186,
      "velocity": 100,
      "chip": "ym2612"
    },
    {
      "channel": 1,
      "note": 38,
      "start": 5.4922,
      "duration": 0.0185,
      "velocity": 100,
      "chip": "ym2612"
    },
    {
      "channel": 0,
      "note": 73,
      "start": 5.5034,
      "duration": 0.0162,
      "velocity": 127,
      "chip": "ym2612"
    },
    {
      "channel": 4,
      "note": 65,
      "start": 5.5046,
      "duration": 0.0161,
      "velocity": 120,
      "chip": "ym2612"
    },
    {
      "channel": 3,
      "note": 60,
      "start": 5.5056,
      "duration": 0.0162,
      "velocity": 120,
      "chip": "ym2612"
    },
    {
      "channel": 2,
      "note": 50,
      "start": 5.5096,
      "duration": 0.0161,
      "velocity": 100,
      "chip": "ym2612"
    },
    {
      "channel": 1,
      "note": 38,
      "start": 5.5107,
      "duration": 0.0161,
      "velocity": 100,
      "chip": "ym2612"
    },
    {
      "channel": 0,
      "note": 71,
      "start": 5.5195,
      "duration": 0.0161,
      "velocity": 127,
      "chip": "ym2612"
    },
    {
      "channel": 4,
      "note": 65,
      "start": 5.5207,
      "duration": 0.0161,
      "velocity": 120,
      "chip": "ym2612"
    },
    {
      "channel": 3,
      "note": 60,
      "start": 5.5218,
      "duration": 0.0161,
      "velocity": 120,
      "chip": "ym2612"
    },
    {
      "channel": 2,
      "note": 50,
      "start": 5.5257,
      "duration": 0.0133,
      "velocity": 100,
      "chip": "ym2612"
    },
    {
      "channel": 1,
      "note": 38,
      "start": 5.5268,
      "duration": 0.0158,
      "velocity": 100,
      "chip": "ym2612"
    },
    {
      "channel": 0,
      "note": 70,
      "start": 5.5356,
      "duration": 0.0179,
      "velocity": 127,
      "chip": "ym2612"
    },
    {
      "channel": 4,
      "note": 65,
      "start": 5.5368,
      "duration": 0.0179,
      "velocity": 120,
      "chip": "ym2612"
    },
    {
      "channel": 3,
      "note": 60,
      "start": 5.5379,
      "duration": 0.0179,
      "velocity": 120,
      "chip": "ym2612"
    },
    {
      "channel": 2,
      "note": 50,
      "start": 5.539,
      "duration": 0.0183,
      "velocity": 100,
      "chip": "ym2612"
    },
    {
      "channel": 1,
      "note": 38,
      "start": 5.5425,
      "duration": 0.0159,
      "velocity": 100,
      "chip": "ym2612"
    },
    {
      "channel": 0,
      "note": 78,
      "start": 5.5536,
      "duration": 0.0143,
      "velocity": 127,
      "chip": "ym2612"
    },
    {
      "channel": 4,
      "note": 65,
      "start": 5.5547,
      "duration": 0.0143,
      "velocity": 120,
      "chip": "ym2612"
    },
    {
      "channel": 3,
      "note": 60,
      "start": 5.5559,
      "duration": 0.0143,
      "velocity": 120,
      "chip": "ym2612"
    },
    {
      "channel": 2,
      "note": 50,
      "start": 5.5573,
      "duration": 0.014,
      "velocity": 100,
      "chip": "ym2612"
    },
    {
      "channel": 1,
      "note": 38,
      "start": 5.5584,
      "duration": 0.0141,
      "velocity": 100,
      "chip": "ym2612"
    },
    {
      "channel": 0,
      "note": 76,
      "start": 5.5679,
      "duration": 0.016,
      "velocity": 127,
      "chip": "ym2612"
    },
    {
      "channel": 4,
      "note": 65,
      "start": 5.569,
      "duration": 0.016,
      "velocity": 120,
      "chip": "ym2612"
    },
    {
      "channel": 3,
      "note": 60,
      "start": 5.5702,
      "duration": 0.016,
      "velocity": 120,
      "chip": "ym2612"
    },
    {
      "channel": 0,
      "note": 75,
      "start": 5.5839,
      "duration": 0.0161,
      "velocity": 127,
      "chip": "ym2612"
    },
    {
      "channel": 4,
      "note": 65,
      "start": 5.585,
      "duration": 0.0161,
      "velocity": 120,
      "chip": "ym2612"
    },
    {
      "channel": 3,
      "note": 60,
      "start": 5.5862,
      "duration": 0.0161,
      "velocity": 120,
      "chip": "ym2612"
    },
    {
      "channel": 0,
      "note": 73,
      "start": 5.6,
      "duration": 0.0161,
      "velocity": 127,
      "chip": "ym2612"
    },
    {
      "channel": 4,
      "note": 65,
      "start": 5.6011,
      "duration": 0.0161,
      "velocity": 120,
      "chip": "ym2612"
    },
    {
      "channel": 3,
      "note": 60,
      "start": 5.6023,
      "duration": 0.0161,
      "velocity": 120,
      "chip": "ym2612"
    },
    {
      "channel": 0,
      "note": 71,
      "start": 5.6161,
      "duration": 0.0161,
      "velocity": 127,
      "chip": "ym2612"
    },
    {
      "channel": 4,
      "note": 65,
      "start": 5.6172,
      "duration": 0.0161,
      "velocity": 120,
      "chip": "ym2612"
    },
    {
      "channel": 3,
      "note": 60,
      "start": 5.6184,
      "duration": 0.0161,
      "velocity": 120,
      "chip": "ym2612"
    },
    {
      "channel": 0,
      "note": 70,
      "start": 5.6322,
      "duration": 0.0179,
      "velocity": 127,
      "chip": "ym2612"
    },
    {
      "channel": 4,
      "note": 65,
      "start": 5.6334,
      "duration": 0.0179,
      "velocity": 120,
      "chip": "ym2612"
    },
    {
      "channel": 3,
      "note": 60,
      "start": 5.6345,
      "duration": 0.018,
      "velocity": 120,
      "chip": "ym2612"
    },
    {
      "channel": 0,
      "note": 78,
      "start": 5.6502,
      "duration": 0.0142,
      "velocity": 127,
      "chip": "ym2612"
    },
    {
      "channel": 4,
      "note": 65,
      "start": 5.6513,
      "duration": 0.0143,
      "velocity": 120,
      "chip": "ym2612"
    },
    {
      "channel": 3,
      "note": 60,
      "start": 5.6525,
      "duration": 0.0142,
      "velocity": 120,
      "chip": "ym2612"
    },
    {
      "channel": 2,
      "note": 50,
      "start": 5.654,
      "duration": 0.0139,
      "velocity": 100,
      "chip": "ym2612"
    },
    {
      "channel": 1,
      "note": 38,
      "start": 5.6555,
      "duration": 0.0136,
      "velocity": 100,
      "chip": "ym2612"
    },
    {
      "channel": 0,
      "note": 76,
      "start": 5.6644,
      "duration": 0.0161,
      "velocity": 127,
      "chip": "ym2612"
    },
    {
      "channel": 4,
      "note": 65,
      "start": 5.6656,
      "duration": 0.016,
      "velocity": 120,
      "chip": "ym2612"
    },
    {
      "channel": 3,
      "note": 60,
      "start": 5.6667,
      "duration": 0.0161,
      "velocity": 120,
      "chip": "ym2612"
    },
    {
      "channel": 2,
      "note": 50,
      "start": 5.6679,
      "duration": 0.016,
      "velocity": 100,
      "chip": "ym2612"
    },
    {
      "channel": 1,
      "note": 38,
      "start": 5.6691,
      "duration": 0.0159,
      "velocity": 100,
      "chip": "ym2612"
    },
    {
      "channel": 0,
      "note": 75,
      "start": 5.6805,
      "duration": 0.0161,
      "velocity": 127,
      "chip": "ym2612"
    },
    {
      "channel": 4,
      "note": 65,
      "start": 5.6817,
      "duration": 0.0161,
      "velocity": 120,
      "chip": "ym2612"
    },
    {
      "channel": 3,
      "note": 60,
      "start": 5.6828,
      "duration": 0.0161,
      "velocity": 120,
      "chip": "ym2612"
    },
    {
      "channel": 2,
      "note": 50,
      "start": 5.6839,
      "duration": 0.0161,
      "velocity": 100,
      "chip": "ym2612"
    },
    {
      "channel": 1,
      "note": 38,
      "start": 5.685,
      "duration": 0.0161,
      "velocity": 100,
      "chip": "ym2612"
    },
    {
      "channel": 0,
      "note": 73,
      "start": 5.6966,
      "duration": 0.0161,
      "velocity": 127,
      "chip": "ym2612"
    },
    {
      "channel": 4,
      "note": 65,
      "start": 5.6978,
      "duration": 0.0161,
      "velocity": 120,
      "chip": "ym2612"
    },
    {
      "channel": 3,
      "note": 60,
      "start": 5.6989,
      "duration": 0.0161,
      "velocity": 120,
      "chip": "ym2612"
    },
    {
      "channel": 2,
      "note": 50,
      "start": 5.7,
      "duration": 0.0161,
      "velocity": 100,
      "chip": "ym2612"
    },
    {
      "channel": 1,
      "note": 38,
      "start": 5.7011,
      "duration": 0.0161,
      "velocity": 100,
      "chip": "ym2612"
    },
    {
      "channel": 0,
      "note": 71,
      "start": 5.7127,
      "duration": 0.0161,
      "velocity": 127,
      "chip": "ym2612"
    },
    {
      "channel": 4,
      "note": 65,
      "start": 5.7139,
      "duration": 0.0161,
      "velocity": 120,
      "chip": "ym2612"
    },
    {
      "channel": 3,
      "note": 60,
      "start": 5.715,
      "duration": 0.0161,
      "velocity": 120,
      "chip": "ym2612"
    },
    {
      "channel": 2,
      "note": 50,
      "start": 5.7161,
      "duration": 0.0161,
      "velocity": 100,
      "chip": "ym2612"
    },
    {
      "channel": 1,
      "note": 38,
      "start": 5.7172,
      "duration": 0.0161,
      "velocity": 100,
      "chip": "ym2612"
    },
    {
      "channel": 0,
      "note": 70,
      "start": 5.7288,
      "duration": 0.0195,
      "velocity": 127,
      "chip": "ym2612"
    },
    {
      "channel": 4,
      "note": 65,
      "start": 5.73,
      "duration": 0.0196,
      "velocity": 120,
      "chip": "ym2612"
    },
    {
      "channel": 3,
      "note": 60,
      "start": 5.7311,
      "duration": 0.0195,
      "velocity": 120,
      "chip": "ym2612"
    },
    {
      "channel": 2,
      "note": 50,
      "start": 5.7322,
      "duration": 0.0195,
      "velocity": 100,
      "chip": "ym2612"
    },
    {
      "channel": 1,
      "note": 38,
      "start": 5.7333,
      "duration": 0.0133,
      "velocity": 124,
      "chip": "ym2612"
    },
    {
      "channel": 1,
      "note": 78,
      "start": 5.7466,
      "duration": 0.0144,
      "velocity": 124,
      "chip": "ym2612"
    },
    {
      "channel": 0,
      "note": 68,
      "start": 5.7483,
      "duration": 0.0144,
      "velocity": 127,
      "chip": "ym2612"
    },
    {
      "channel": 4,
      "note": 65,
      "start": 5.7495,
      "duration": 0.0143,
      "velocity": 120,
      "chip": "ym2612"
    },
    {
      "channel": 3,
      "note": 60,
      "start": 5.7506,
      "duration": 0.0144,
      "velocity": 120,
      "chip": "ym2612"
    },
    {
      "channel": 2,
      "note": 50,
      "start": 5.7518,
      "duration": 0.0144,
      "velocity": 100,
      "chip": "ym2612"
    },
    {
      "channel": 1,
      "note": 76,
      "start": 5.761,
      "duration": 0.0163,
      "velocity": 124,
      "chip": "ym2612"
    },
    {
      "channel": 0,
      "note": 66,
      "start": 5.7627,
      "duration": 0.0163,
      "velocity": 127,
      "chip": "ym2612"
    },
    {
      "channel": 4,
      "note": 65,
      "start": 5.7639,
      "duration": 0.0163,
      "velocity": 120,
      "chip": "ym2612"
    },
    {
      "channel": 3,
      "note": 60,
      "start": 5.765,
      "duration": 0.0163,
      "velocity": 120,
      "chip": "ym2612"
    },
    {
      "channel": 1,
      "note": 75,
      "start": 5.7773,
      "duration": 0.0166,
      "velocity": 124,
      "chip": "ym2612"
    },
    {
      "channel": 0,
      "note": 65,
      "start": 5.779,
      "duration": 0.0166,
      "velocity": 127,
      "chip": "ym2612"
    },
    {
      "channel": 4,
      "note": 65,
      "start": 5.7801,
      "duration": 0.0167,
      "velocity": 120,
      "chip": "ym2612"
    },
    {
      "channel": 3,
      "note": 60,
      "start": 5.7813,
      "duration": 0.0166,
      "velocity": 120,
      "chip": "ym2612"
    },
    {
      "channel": 1,
      "note": 74,
      "start": 5.7939,
      "duration": 0.0163,
      "velocity": 124,
      "chip": "ym2612"
    },
    {
      "channel": 0,
      "note": 63,
      "start": 5.7956,
      "duration": 0.0163,
      "velocity": 127,
      "chip": "ym2612"
    },
    {
      "channel": 4,
      "note": 65,
      "start": 5.7968,
      "duration": 0.0163,
      "velocity": 120,
      "chip": "ym2612"
    },
    {
      "channel": 3,
      "note": 60,
      "start": 5.7979,
      "duration": 0.0163,
      "velocity": 120,
      "chip": "ym2612"
    },
    {
      "channel": 1,
      "note": 72,
      "start": 5.8102,
      "duration": 0.0151,
      "velocity": 124,
      "chip": "ym2612"
    },
    {
      "channel": 0,
      "note": 61,
      "start": 5.812,
      "duration": 0.0151,
      "velocity": 127,
      "chip": "ym2612"
    },
    {
      "channel": 4,
      "note": 65,
      "start": 5.8131,
      "duration": 0.0151,
      "velocity": 120,
      "chip": "ym2612"
    },
    {
      "channel": 3,
      "note": 60,
      "start": 5.8142,
      "duration": 0.0151,
      "velocity": 120,
      "chip": "ym2612"
    },
    {
      "channel": 1,
      "note": 71,
      "start": 5.8254,
      "duration": 0.0203,
      "velocity": 124,
      "chip": "ym2612"
    },
    {
      "channel": 0,
      "note": 60,
      "start": 5.8271,
      "duration": 0.0203,
      "velocity": 127,
      "chip": "ym2612"
    },
    {
      "channel": 4,
      "note": 65,
      "start": 5.8282,
      "duration": 0.0204,
      "velocity": 120,
      "chip": "ym2612"
    },
    {
      "channel": 3,
      "note": 60,
      "start": 5.8294,
      "duration": 0.0203,
      "velocity": 120,
      "chip": "ym2612"
    },
    {
      "channel": 1,
      "note": 78,
      "start": 5.8457,
      "duration": 0.0146,
      "velocity": 124,
      "chip": "ym2612"
    },
    {
      "channel": 0,
      "note": 58,
      "start": 5.8474,
      "duration": 0.0146,
      "velocity": 127,
      "chip": "ym2612"
    },
    {
      "channel": 4,
      "note": 65,
      "start": 5.8486,
      "duration": 0.0146,
      "velocity": 120,
      "chip": "ym2612"
    },
    {
      "channel": 3,
      "note": 60,
      "start": 5.8497,
      "duration": 0.0146,
      "velocity": 120,
      "chip": "ym2612"
    },
    {
      "channel": 2,
      "note": 50,
      "start": 5.8513,
      "duration": 0.0143,
      "velocity": 100,
      "chip": "ym2612"
    },
    {
      "channel": 1,
      "note": 76,
      "start": 5.8604,
      "duration": 0.0156,
      "velocity": 124,
      "chip": "ym2612"
    },
    {
      "channel": 0,
      "note": 56,
      "start": 5.8621,
      "duration": 0.0156,
      "velocity": 127,
      "chip": "ym2612"
    },
    {
      "channel": 4,
      "note": 65,
      "start": 5.8632,
      "duration": 0.0157,
      "velocity": 120,
      "chip": "ym2612"
    },
    {
      "channel": 3,
      "note": 60,
      "start": 5.8644,
      "duration": 0.0156,
      "velocity": 120,
      "chip": "ym2612"
    },
    {
      "channel": 2,
      "note": 50,
      "start": 5.8656,
      "duration": 0.0156,
      "velocity": 100,
      "chip": "ym2612"
    },
    {
      "channel": 1,
      "note": 75,
      "start": 5.876,
      "duration": 0.0141,
      "velocity": 124,
      "chip": "ym2612"
    },
    {
      "channel": 0,
      "note": 54,
      "start": 5.8777,
      "duration": 0.0141,
      "velocity": 127,
      "chip": "ym2612"
    },
    {
      "channel": 4,
      "note": 65,
      "start": 5.8789,
      "duration": 0.014,
      "velocity": 120,
      "chip": "ym2612"
    },
    {
      "channel": 3,
      "note": 60,
      "start": 5.88,
      "duration": 0.0141,
      "velocity": 120,
      "chip": "ym2612"
    },
    {
      "channel": 2,
      "note": 50,
      "start": 5.8812,
      "duration": 0.0141,
      "velocity": 100,
      "chip": "ym2612"
    },
    {
      "channel": 1,
      "note": 74,
      "start": 5.8901,
      "duration": 0.0158,
      "velocity": 124,
      "chip": "ym2612"
    },
    {
      "channel": 0,
      "note": 53,
      "start": 5.8918,
      "duration": 0.0185,
      "velocity": 127,
      "chip": "ym2612"
    },
    {
      "channel": 4,
      "note": 65,
      "start": 5.8929,
      "duration": 0.0186,
      "velocity": 120,
      "chip": "ym2612"
    },
    {
      "channel": 3,
      "note": 60,
      "start": 5.8941,
      "duration": 0.0185,
      "velocity": 120,
      "chip": "ym2612"
    },
    {
      "channel": 2,
      "note": 50,
      "start": 5.8952,
      "duration": 0.0185,
      "velocity": 100,
      "chip": "ym2612"
    },
    {
      "channel": 1,
      "note": 72,
      "start": 5.9059,
      "duration": 0.0161,
      "velocity": 124,
      "chip": "ym2612"
    },
    {
      "channel": 0,
      "note": 51,
      "start": 5.9103,
      "duration": 0.0162,
      "velocity": 127,
      "chip": "ym2612"
    },
    {
      "channel": 4,
      "note": 65,
      "start": 5.9115,
      "duration": 0.0161,
      "velocity": 120,
      "chip": "ym2612"
    },
    {
      "channel": 3,
      "note": 60,
      "start": 5.9126,
      "duration": 0.0162,
      "velocity": 120,
      "chip": "ym2612"
    },
    {
      "channel": 2,
      "note": 50,
      "start": 5.9137,
      "duration": 0.0161,
      "velocity": 100,
      "chip": "ym2612"
    },
    {
      "channel": 1,
      "note": 71,
      "start": 5.9219,
      "duration": 0.0203,
      "velocity": 124,
      "chip": "ym2612"
    },
    {
      "channel": 0,
      "note": 49,
      "start": 5.9265,
      "duration": 0.0175,
      "velocity": 127,
      "chip": "ym2612"
    },
    {
      "channel": 4,
      "note": 65,
      "start": 5.9276,
      "duration": 0.0176,
      "velocity": 120,
      "chip": "ym2612"
    },
    {
      "channel": 3,
      "note": 60,
      "start": 5.9288,
      "duration": 0.0175,
      "velocity": 120,
      "chip": "ym2612"
    },
    {
      "channel": 2,
      "note": 50,
      "start": 5.9298,
      "duration": 0.0176,
      "velocity": 100,
      "chip": "ym2612"
    },
    {
      "channel": 1,
      "note": 78,
      "start": 5.9422,
      "duration": 0.012,
      "velocity": 124,
      "chip": "ym2612"
    },
    {
      "channel": 0,
      "note": 48,
      "start": 5.9439,
      "duration": 0.0122,
      "velocity": 127,
      "chip": "ym2612"
    },
    {
      "channel": 4,
      "note": 65,
      "start": 5.9451,
      "duration": 0.0123,
      "velocity": 120,
      "chip": "ym2612"
    },
    {
      "channel": 3,
      "note": 60,
      "start": 5.9462,
      "duration": 0.0123,
      "velocity": 120,
      "chip": "ym2612"
    },
    {
      "channel": 2,
      "note": 50,
      "start": 5.9474,
      "duration": 0.0123,
      "velocity": 100,
      "chip": "ym2612"
    },
    {
      "channel": 1,
      "note": 76,
      "start": 5.9542,
      "duration": 0.016,
      "velocity": 124,
      "chip": "ym2612"
    },
    {
      "channel": 0,
      "note": 46,
      "start": 5.9561,
      "duration": 0.0151,
      "velocity": 1,
      "chip": "ym2612"
    },
    {
      "channel": 4,
      "note": 65,
      "start": 5.9574,
      "duration": 0.0149,
      "velocity": 120,
      "chip": "ym2612"
    },
    {
      "channel": 3,
      "note": 60,
      "start": 5.9586,
      "duration": 0.0177,
      "velocity": 120,
      "chip": "ym2612"
    },
    {
      "channel": 1,
      "note": 75,
      "start": 5.9703,
      "duration": 0.0161,
      "velocity": 124,
      "chip": "ym2612"
    },
    {
      "channel": 4,
      "note": 65,
      "start": 5.9723,
      "duration": 0.0153,
      "velocity": 120,
      "chip": "ym2612"
    },
    {
      "channel": 3,
      "note": 60,
      "start": 5.9763,
      "duration": 0.0125,
      "velocity": 120,
      "chip": "ym2612"
    },
    {
      "channel": 1,
      "note": 74,
      "start": 5.9864,
      "duration": 0.0161,
      "velocity": 124,
      "chip": "ym2612"
    },
    {
      "channel": 4,
      "note": 65,
      "start": 5.9876,
      "duration": 0.0161,
      "velocity": 120,
      "chip": "ym2612"
    },
    {
      "channel": 3,
      "note": 60,
      "start": 5.9887,
      "duration": 0.0161,
      "velocity": 120,
      "chip": "ym2612"
    },
    {
      "channel": 1,
      "note": 72,
      "start": 6.0025,
      "duration": 0.0161,
      "velocity": 124,
      "chip": "ym2612"
    },
    {
      "channel": 4,
      "note": 65,
      "start": 6.0037,
      "duration": 0.0161,
      "velocity": 120,
      "chip": "ym2612"
    },
    {
      "channel": 3,
      "note": 60,
      "start": 6.0048,
      "duration": 0.0161,
      "velocity": 120,
      "chip": "ym2612"
    },
    {
      "channel": 1,
      "note": 71,
      "start": 6.0186,
      "duration": 0.0161,
      "velocity": 124,
      "chip": "ym2612"
    },
    {
      "channel": 4,
      "note": 65,
      "start": 6.0198,
      "duration": 0.0161,
      "velocity": 120,
      "chip": "ym2612"
    },
    {
      "channel": 3,
      "note": 60,
      "start": 6.0209,
      "duration": 0.0161,
      "velocity": 120,
      "chip": "ym2612"
    },
    {
      "channel": 1,
      "note": 70,
      "start": 6.0346,
      "duration": 0.0161,
      "velocity": 124,
      "chip": "ym2612"
    },
    {
      "channel": 4,
      "note": 65,
      "start": 6.0359,
      "duration": 0.0161,
      "velocity": 120,
      "chip": "ym2612"
    },
    {
      "channel": 3,
      "note": 60,
      "start": 6.037,
      "duration": 0.0161,
      "velocity": 120,
      "chip": "ym2612"
    },
    {
      "channel": 2,
      "note": 50,
      "start": 6.0385,
      "duration": 0.0158,
      "velocity": 100,
      "chip": "ym2612"
    },
    {
      "channel": 1,
      "note": 69,
      "start": 6.0507,
      "duration": 0.0161,
      "velocity": 124,
      "chip": "ym2612"
    },
    {
      "channel": 4,
      "note": 65,
      "start": 6.052,
      "duration": 0.0162,
      "velocity": 120,
      "chip": "ym2612"
    },
    {
      "channel": 3,
      "note": 60,
      "start": 6.0531,
      "duration": 0.0161,
      "velocity": 120,
      "chip": "ym2612"
    },
    {
      "channel": 2,
      "note": 50,
      "start": 6.0543,
      "duration": 0.016,
      "velocity": 100,
      "chip": "ym2612"
    },
    {
      "channel": 1,
      "note": 68,
      "start": 6.0668,
      "duration": 0.0161,
      "velocity": 124,
      "chip": "ym2612"
    },
    {
      "channel": 4,
      "note": 65,
      "start": 6.0681,
      "duration": 0.0161,
      "velocity": 120,
      "chip": "ym2612"
    },
    {
      "channel": 3,
      "note": 60,
      "start": 6.0692,
      "duration": 0.0161,
      "velocity": 120,
      "chip": "ym2612"
    },
    {
      "channel": 2,
      "note": 50,
      "start": 6.0703,
      "duration": 0.0161,
      "velocity": 100,
      "chip": "ym2612"
    },
    {
      "channel": 1,
      "note": 66,
      "start": 6.0829,
      "duration": 0.0161,
      "velocity": 124,
      "chip": "ym2612"
    },
    {
      "channel": 4,
      "note": 65,
      "start": 6.0842,
      "duration": 0.0161,
      "velocity": 120,
      "chip": "ym2612"
    },
    {
      "channel": 3,
      "note": 60,
      "start": 6.0854,
      "duration": 0.0161,
      "velocity": 120,
      "chip": "ym2612"
    },
    {
      "channel": 2,
      "note": 50,
      "start": 6.0864,
      "duration": 0.0161,
      "velocity": 100,
      "chip": "ym2612"
    },
    {
      "channel": 1,
      "note": 65,
      "start": 6.099,
      "duration": 0.0162,
      "velocity": 124,
      "chip": "ym2612"
    },
    {
      "channel": 4,
      "note": 65,
      "start": 6.1003,
      "duration": 0.0161,
      "velocity": 120,
      "chip": "ym2612"
    },
    {
      "channel": 3,
      "note": 60,
      "start": 6.1015,
      "duration": 0.0161,
      "velocity": 120,
      "chip": "ym2612"
    },
    {
      "channel": 2,
      "note": 50,
      "start": 6.1025,
      "duration": 0.0161,
      "velocity": 100,
      "chip": "ym2612"
    },
    {
      "channel": 1,
      "note": 64,
      "start": 6.1152,
      "duration": 0.0178,
      "velocity": 124,
      "chip": "ym2612"
    },
    {
      "channel": 4,
      "note": 65,
      "start": 6.1164,
      "duration": 0.0179,
      "velocity": 120,
      "chip": "ym2612"
    },
    {
      "channel": 3,
      "note": 60,
      "start": 6.1176,
      "duration": 0.0179,
      "velocity": 120,
      "chip": "ym2612"
    },
    {
      "channel": 2,
      "note": 50,
      "start": 6.1187,
      "duration": 0.0179,
      "velocity": 100,
      "chip": "ym2612"
    },
    {
      "channel": 1,
      "note": 78,
      "start": 6.1331,
      "duration": 0.0144,
      "velocity": 124,
      "chip": "ym2612"
    },
    {
      "channel": 4,
      "note": 65,
      "start": 6.1343,
      "duration": 0.0144,
      "velocity": 120,
      "chip": "ym2612"
    },
    {
      "channel": 3,
      "note": 60,
      "start": 6.1354,
      "duration": 0.0144,
      "velocity": 120,
      "chip": "ym2612"
    },
    {
      "channel": 2,
      "note": 50,
      "start": 6.1366,
      "duration": 0.0144,
      "velocity": 100,
      "chip": "ym2612"
    },
    {
      "channel": 1,
      "note": 76,
      "start": 6.1474,
      "duration": 0.016,
      "velocity": 124,
      "chip": "ym2612"
    },
    {
      "channel": 4,
      "note": 65,
      "start": 6.1487,
      "duration": 0.016,
      "velocity": 120,
      "chip": "ym2612"
    },
    {
      "channel": 3,
      "note": 60,
      "start": 6.1498,
      "duration": 0.016,
      "velocity": 120,
      "chip": "ym2612"
    },
    {
      "channel": 1,
      "note": 75,
      "start": 6.1635,
      "duration": 0.0161,
      "velocity": 124,
      "chip": "ym2612"
    },
    {
      "channel": 4,
      "note": 65,
      "start": 6.1647,
      "duration": 0.0161,
      "velocity": 120,
      "chip": "ym2612"
    },
    {
      "channel": 3,
      "note": 60,
      "start": 6.1658,
      "duration": 0.0161,
      "velocity": 120,
      "chip": "ym2612"
    },
    {
      "channel": 1,
      "note": 74,
      "start": 6.1796,
      "duration": 0.0161,
      "velocity": 124,
      "chip": "ym2612"
    },
    {
      "channel": 4,
      "note": 65,
      "start": 6.1808,
      "duration": 0.0161,
      "velocity": 120,
      "chip": "ym2612"
    },
    {
      "channel": 3,
      "note": 60,
      "start": 6.1819,
      "duration": 0.0161,
      "velocity": 120,
      "chip": "ym2612"
    },
    {
      "channel": 1,
      "note": 72,
      "start": 6.1957,
      "duration": 0.0161,
      "velocity": 124,
      "chip": "ym2612"
    },
    {
      "channel": 4,
      "note": 65,
      "start": 6.1969,
      "duration": 0.0162,
      "velocity": 120,
      "chip": "ym2612"
    },
    {
      "channel": 3,
      "note": 60,
      "start": 6.198,
      "duration": 0.0161,
      "velocity": 120,
      "chip": "ym2612"
    },
    {
      "channel": 1,
      "note": 71,
      "start": 6.2118,
      "duration": 0.0161,
      "velocity": 124,
      "chip": "ym2612"
    },
    {
      "channel": 4,
      "note": 65,
      "start": 6.213,
      "duration": 0.0197,
      "velocity": 120,
      "chip": "ym2612"
    },
    {
      "channel": 3,
      "note": 60,
      "start": 6.2142,
      "duration": 0.02,
      "velocity": 120,
      "chip": "ym2612"
    },
    {
      "channel": 1,
      "note": 70,
      "start": 6.2278,
      "duration": 0.0161,
      "velocity": 124,
      "chip": "ym2612"
    },
    {
      "channel": 0,
      "note": 36,
      "start": 6.2314,
      "duration": 0.0144,
      "velocity": 115,
      "chip": "ym2612"
    },
    {
      "channel": 4,
      "note": 65,
      "start": 6.2328,
      "duration": 0.0142,
      "velocity": 120,
      "chip": "ym2612"
    },
    {
      "channel": 3,
      "note": 60,
      "start": 6.2342,
      "duration": 0.0139,
      "velocity": 120,
      "chip": "ym2612"
    },
    {
      "channel": 2,
      "note": 53,
      "start": 6.2357,
      "duration": 0.0137,
      "velocity": 100,
      "chip": "ym2612"
    },
    {
      "channel": 1,
      "note": 69,
      "start": 6.2439,
      "duration": 0.0166,
      "velocity": 124,
      "chip": "ym2612"
    },
    {
      "channel": 0,
      "note": 36,
      "start": 6.2458,
      "duration": 0.0166,
      "velocity": 115,
      "chip": "ym2612"
    },
    {
      "channel": 4,
      "note": 65,
      "start": 6.247,
      "duration": 0.0165,
      "velocity": 120,
      "chip": "ym2612"
    },
    {
      "channel": 3,
      "note": 60,
      "start": 6.2481,
      "duration": 0.0165,
      "velocity": 120,
      "chip": "ym2612"
    },
    {
      "channel": 2,
      "note": 53,
      "start": 6.2493,
      "duration": 0.0163,
      "velocity": 100,
      "chip": "ym2612"
    },
    {
      "channel": 1,
      "note": 68,
      "start": 6.2605,
      "duration": 0.0163,
      "velocity": 124,
      "chip": "ym2612"
    },
    {
      "channel": 0,
      "note": 37,
      "start": 6.2623,
      "duration": 0.0163,
      "velocity": 115,
      "chip": "ym2612"
    },
    {
      "channel": 4,
      "note": 65,
      "start": 6.2635,
      "duration": 0.0163,
      "velocity": 120,
      "chip": "ym2612"
    },
    {
      "channel": 3,
      "note": 60,
      "start": 6.2646,
      "duration": 0.0163,
      "velocity": 120,
      "chip": "ym2612"
    },
    {
      "channel": 2,
      "note": 53,
      "start": 6.2657,
      "duration": 0.0163,
      "velocity": 100,
      "chip": "ym2612"
    },
    {
      "channel": 1,
      "note": 66,
      "start": 6.2769,
      "duration": 0.0154,
      "velocity": 124,
      "chip": "ym2612"
    },
    {
      "channel": 0,
      "note": 37,
      "start": 6.2786,
      "duration": 0.0154,
      "velocity": 115,
      "chip": "ym2612"
    },
    {
      "channel": 4,
      "note": 65,
      "start": 6.2798,
      "duration": 0.0154,
      "velocity": 120,
      "chip": "ym2612"
    },
    {
      "channel": 3,
      "note": 60,
      "start": 6.2809,
      "duration": 0.0154,
      "velocity": 120,
      "chip": "ym2612"
    },
    {
      "channel": 2,
      "note": 53,
      "start": 6.282,
      "duration": 0.0154,
      "velocity": 100,
      "chip": "ym2612"
    },
    {
      "channel": 1,
      "note": 65,
      "start": 6.2923,
      "duration": 0.0183,
      "velocity": 124,
      "chip": "ym2612"
    },
    {
      "channel": 0,
      "note": 38,
      "start": 6.294,
      "duration": 0.0183,
      "velocity": 115,
      "chip": "ym2612"
    },
    {
      "channel": 4,
      "note": 65,
      "start": 6.2951,
      "duration": 0.0183,
      "velocity": 120,
      "chip": "ym2612"
    },
    {
      "channel": 3,
      "note": 60,
      "start": 6.2963,
      "duration": 0.0183,
      "velocity": 120,
      "chip": "ym2612"
    },
    {
      "channel": 2,
      "note": 53,
      "start": 6.2974,
      "duration": 0.0183,
      "velocity": 100,
      "chip": "ym2612"
    },
    {
      "channel": 1,
      "note": 64,
      "start": 6.3105,
      "duration": 0.0167,
      "velocity": 124,
      "chip": "ym2612"
    },
    {
      "channel": 0,
      "note": 38,
      "start": 6.3123,
      "duration": 0.0167,
      "velocity": 115,
      "chip": "ym2612"
    },
    {
      "channel": 4,
      "note": 65,
      "start": 6.3134,
      "duration": 0.0167,
      "velocity": 120,
      "chip": "ym2612"
    },
    {
      "channel": 3,
      "note": 60,
      "start": 6.3146,
      "duration": 0.0167,
      "velocity": 120,
      "chip": "ym2612"
    },
    {
      "channel": 2,
      "note": 53,
      "start": 6.3157,
      "duration": 0.0167,
      "velocity": 100,
      "chip": "ym2612"
    },
    {
      "channel": 1,
      "note": 62,
      "start": 6.3272,
      "duration": 0.0158,
      "velocity": 124,
      "chip": "ym2612"
    },
    {
      "channel": 0,
      "note": 39,
      "start": 6.3289,
      "duration": 0.0158,
      "velocity": 115,
      "chip": "ym2612"
    },
    {
      "channel": 4,
      "note": 65,
      "start": 6.3301,
      "duration": 0.0158,
      "velocity": 120,
      "chip": "ym2612"
    },
    {
      "channel": 3,
      "note": 60,
      "start": 6.3312,
      "duration": 0.0158,
      "velocity": 120,
      "chip": "ym2612"
    },
    {
      "channel": 2,
      "note": 53,
      "start": 6.3324,
      "duration": 0.0158,
      "velocity": 100,
      "chip": "ym2612"
    },
    {
      "channel": 1,
      "note": 61,
      "start": 6.343,
      "duration": 0.014,
      "velocity": 124,
      "chip": "ym2612"
    },
    {
      "channel": 0,
      "note": 39,
      "start": 6.3447,
      "duration": 0.014,
      "velocity": 115,
      "chip": "ym2612"
    },
    {
      "channel": 4,
      "note": 65,
      "start": 6.3459,
      "duration": 0.014,
      "velocity": 120,
      "chip": "ym2612"
    },
    {
      "channel": 3,
      "note": 60,
      "start": 6.347,
      "duration": 0.014,
      "velocity": 120,
      "chip": "ym2612"
    },
    {
      "channel": 1,
      "note": 60,
      "start": 6.357,
      "duration": 0.0185,
      "velocity": 124,
      "chip": "ym2612"
    },
    {
      "channel": 0,
      "note": 40,
      "start": 6.3587,
      "duration": 0.0186,
      "velocity": 115,
      "chip": "ym2612"
    },
    {
      "channel": 4,
      "note": 65,
      "start": 6.3598,
      "duration": 0.0186,
      "velocity": 120,
      "chip": "ym2612"
    },
    {
      "channel": 3,
      "note": 60,
      "start": 6.361,
      "duration": 0.0186,
      "velocity": 120,
      "chip": "ym2612"
    },
    {
      "channel": 1,
      "note": 59,
      "start": 6.3755,
      "duration": 0.0134,
      "velocity": 124,
      "chip": "ym2612"
    },
    {
      "channel": 0,
      "note": 40,
      "start": 6.3773,
      "duration": 0.0161,
      "velocity": 115,
      "chip": "ym2612"
    },
    {
      "channel": 4,
      "note": 65,
      "start": 6.3784,
      "duration": 0.0161,
      "velocity": 120,
      "chip": "ym2612"
    },
    {
      "channel": 3,
      "note": 60,
      "start": 6.3796,
      "duration": 0.0161,
      "velocity": 120,
      "chip": "ym2612"
    },
    {
      "channel": 1,
      "note": 57,
      "start": 6.3889,
      "duration": 0.0161,
      "velocity": 124,
      "chip": "ym2612"
    },
    {
      "channel": 0,
      "note": 40,
      "start": 6.3934,
      "duration": 0.0157,
      "velocity": 115,
      "chip": "ym2612"
    },
    {
      "channel": 4,
      "note": 65,
      "start": 6.3945,
      "duration": 0.0157,
      "velocity": 120,
      "chip": "ym2612"
    },
    {
      "channel": 3,
      "note": 60,
      "start": 6.3957,
      "duration": 0.0157,
      "velocity": 120,
      "chip": "ym2612"
    },
    {
      "channel": 1,
      "note": 56,
      "start": 6.405,
      "duration": 0.0161,
      "velocity": 124,
      "chip": "ym2612"
    },
    {
      "channel": 0,
      "note": 41,
      "start": 6.4091,
      "duration": 0.0141,
      "velocity": 115,
      "chip": "ym2612"
    },
    {
      "channel": 4,
      "note": 65,
      "start": 6.4102,
      "duration": 0.0141,
      "velocity": 120,
      "chip": "ym2612"
    },
    {
      "channel": 3,
      "note": 60,
      "start": 6.4114,
      "duration": 0.0141,
      "velocity": 120,
      "chip": "ym2612"
    },
    {
      "channel": 1,
      "note": 55,
      "start": 6.4211,
      "duration": 0.0161,
      "velocity": 124,
      "chip": "ym2612"
    },
    {
      "channel": 0,
      "note": 41,
      "start": 6.4232,
      "duration": 0.0158,
      "velocity": 115,
      "chip": "ym2612"
    },
    {
      "channel": 4,
      "note": 65,
      "start": 6.4243,
      "duration": 0.0185,
      "velocity": 120,
      "chip": "ym2612"
    },
    {
      "channel": 3,
      "note": 60,
      "start": 6.4254,
      "duration": 0.0185,
      "velocity": 120,
      "chip": "ym2612"
    },
    {
      "channel": 2,
      "note": 53,
      "start": 6.4269,
      "duration": 0.0183,
      "velocity": 100,
      "chip": "ym2612"
    },
    {
      "channel": 1,
      "note": 53,
      "start": 6.4372,
      "duration": 0.0161,
      "velocity": 124,
      "chip": "ym2612"
    },
    {
      "channel": 0,
      "note": 42,
      "start": 6.4389,
      "duration": 0.0161,
      "velocity": 115,
      "chip": "ym2612"
    },
    {
      "channel": 4,
      "note": 65,
      "start": 6.4428,
      "duration": 0.0161,
      "velocity": 120,
      "chip": "ym2612"
    },
    {
      "channel": 3,
      "note": 60,
      "start": 6.4439,
      "duration": 0.0161,
      "velocity": 120,
      "chip": "ym2612"
    },
    {
      "channel": 2,
      "note": 53,
      "start": 6.4451,
      "duration": 0.016,
      "velocity": 100,
      "chip": "ym2612"
    },
    {
      "channel": 1,
      "note": 52,
      "start": 6.4533,
      "duration": 0.0161,
      "velocity": 124,
      "chip": "ym2612"
    },
    {
      "channel": 0,
      "note": 42,
      "start": 6.455,
      "duration": 0.0161,
      "velocity": 115,
      "chip": "ym2612"
    },
    {
      "channel": 4,
      "note": 65,
      "start": 6.459,
      "duration": 0.0133,
      "velocity": 120,
      "chip": "ym2612"
    },
    {
      "channel": 3,
      "note": 60,
      "start": 6.46,
      "duration": 0.0158,
      "velocity": 120,
      "chip": "ym2612"
    },
    {
      "channel": 2,
      "note": 53,
      "start": 6.4612,
      "duration": 0.0157,
      "velocity": 100,
      "chip": "ym2612"
    },
    {
      "channel": 1,
      "note": 51,
      "start": 6.4694,
      "duration": 0.0153,
      "velocity": 1,
      "chip": "ym2612"
    },
    {
      "channel": 0,
      "note": 43,
      "start": 6.4711,
      "duration": 0.0153,
      "velocity": 115,
      "chip": "ym2612"
    },
    {
      "channel": 4,
      "note": 65,
      "start": 6.4722,
      "duration": 0.0153,
      "velocity": 120,
      "chip": "ym2612"
    },
    {
      "channel": 3,
      "note": 60,
      "start": 6.4758,
      "duration": 0.0129,
      "velocity": 120,
      "chip": "ym2612"
    },
    {
      "channel": 2,
      "note": 53,
      "start": 6.4769,
      "duration": 0.0133,
      "velocity": 100,
      "chip": "ym2612"
    },
    {
      "channel": 0,
      "note": 43,
      "start": 6.4864,
      "duration": 0.0152,
      "velocity": 115,
      "chip": "ym2612"
    },
    {
      "channel": 4,
      "note": 65,
      "start": 6.4876,
      "duration": 0.0152,
      "velocity": 120,
      "chip": "ym2612"
    },
    {
      "channel": 3,
      "note": 60,
      "start": 6.4887,
      "duration": 0.0152,
      "velocity": 120,
      "chip": "ym2612"
    },
    {
      "channel": 2,
      "note": 53,
      "start": 6.4902,
      "duration": 0.0149,
      "velocity": 100,
      "chip": "ym2612"
    },
    {
      "channel": 1,
      "note": 51,
      "start": 6.4923,
      "duration": 0.0167,
      "velocity": 100,
      "chip": "ym2612"
    },
    {
      "channel": 0,
      "note": 44,
      "start": 6.5016,
      "duration": 0.0162,
      "velocity": 115,
      "chip": "ym2612"
    },
    {
      "channel": 4,
      "note": 65,
      "start": 6.5028,
      "duration": 0.0162,
      "velocity": 120,
      "chip": "ym2612"
    },
    {
      "channel": 3,
      "note": 60,
      "start": 6.5039,
      "duration": 0.0162,
      "velocity": 120,
      "chip": "ym2612"
    },
    {
      "channel": 2,
      "note": 53,
      "start": 6.5051,
      "duration": 0.0161,
      "velocity": 100,
      "chip": "ym2612"
    },
    {
      "channel": 1,
      "note": 41,
      "start": 6.509,
      "duration": 0.0134,
      "velocity": 100,
      "chip": "ym2612"
    },
    {
      "channel": 0,
      "note": 44,
      "start": 6.5178,
      "duration": 0.0161,
      "velocity": 115,
      "chip": "ym2612"
    },
    {
      "channel": 4,
      "note": 65,
      "start": 6.519,
      "duration": 0.0161,
      "velocity": 120,
      "chip": "ym2612"
    },
    {
      "channel": 3,
      "note": 60,
      "start": 6.5201,
      "duration": 0.0161,
      "velocity": 120,
      "chip": "ym2612"
    },
    {
      "channel": 2,
      "note": 53,
      "start": 6.5212,
      "duration": 0.0161,
      "velocity": 100,
      "chip": "ym2612"
    },
    {
      "channel": 1,
      "note": 41,
      "start": 6.5223,
      "duration": 0.0162,
      "velocity": 100,
      "chip": "ym2612"
    },
    {
      "channel": 0,
      "note": 44,
      "start": 6.5339,
      "duration": 0.0161,
      "velocity": 115,
      "chip": "ym2612"
    },
    {
      "channel": 4,
      "note": 65,
      "start": 6.535,
      "duration": 0.0161,
      "velocity": 120,
      "chip": "ym2612"
    },
    {
      "channel": 3,
      "note": 60,
      "start": 6.5362,
      "duration": 0.0161,
      "velocity": 120,
      "chip": "ym2612"
    },
    {
      "channel": 0,
      "note": 45,
      "start": 6.55,
      "duration": 0.0161,
      "velocity": 115,
      "chip": "ym2612"
    },
    {
      "channel": 4,
      "note": 65,
      "start": 6.5511,
      "duration": 0.0161,
      "velocity": 120,
      "chip": "ym2612"
    },
    {
      "channel": 3,
      "note": 60,
      "start": 6.5523,
      "duration": 0.0161,
      "velocity": 120,
      "chip": "ym2612"
    },
    {
      "channel": 0,
      "note": 45,
      "start": 6.5661,
      "duration": 0.0161,
      "velocity": 115,
      "chip": "ym2612"
    },
    {
      "channel": 4,
      "note": 65,
      "start": 6.5672,
      "duration": 0.0161,
      "velocity": 120,
      "chip": "ym2612"
    },
    {
      "channel": 3,
      "note": 60,
      "start": 6.5684,
      "duration": 0.0161,
      "velocity": 120,
      "chip": "ym2612"
    },
    {
      "channel": 0,
      "note": 46,
      "start": 6.5822,
      "duration": 0.0161,
      "velocity": 115,
      "chip": "ym2612"
    },
    {
      "channel": 4,
      "note": 65,
      "start": 6.5833,
      "duration": 0.0161,
      "velocity": 120,
      "chip": "ym2612"
    },
    {
      "channel": 3,
      "note": 60,
      "start": 6.5845,
      "duration": 0.0161,
      "velocity": 120,
      "chip": "ym2612"
    },
    {
      "channel": 0,
      "note": 46,
      "start": 6.5983,
      "duration": 0.0195,
      "velocity": 115,
      "chip": "ym2612"
    },
    {
      "channel": 4,
      "note": 65,
      "start": 6.5994,
      "duration": 0.0196,
      "velocity": 120,
      "chip": "ym2612"
    },
    {
      "channel": 3,
      "note": 60,
      "start": 6.6006,
      "duration": 0.0195,
      "velocity": 120,
      "chip": "ym2612"
    },
    {
      "channel": 1,
      "note": 78,
      "start": 6.6161,
      "duration": 0.0144,
      "velocity": 124,
      "chip": "ym2612"
    },
    {
      "channel": 0,
      "note": 47,
      "start": 6.6178,
      "duration": 0.0144,
      "velocity": 115,
      "chip": "ym2612"
    },
    {
      "channel": 4,
      "note": 65,
      "start": 6.619,
      "duration": 0.0143,
      "velocity": 120,
      "chip": "ym2612"
    },
    {
      "channel": 3,
      "note": 60,
      "start": 6.6201,
      "duration": 0.0144,
      "velocity": 120,
      "chip": "ym2612"
    },
    {
      "channel": 2,
      "note": 53,
      "start": 6.6216,
      "duration": 0.0141,
      "velocity": 100,
      "chip": "ym2612"
    },
    {
      "channel": 1,
      "note": 76,
      "start": 6.6305,
      "duration": 0.016,
      "velocity": 124,
      "chip": "ym2612"
    },
    {
      "channel": 0,
      "note": 47,
      "start": 6.6322,
      "duration": 0.016,
      "velocity": 115,
      "chip": "ym2612"
    },
    {
      "channel": 4,
      "note": 65,
      "start": 6.6333,
      "duration": 0.016,
      "velocity": 120,
      "chip": "ym2612"
    },
    {
      "channel": 3,
      "note": 60,
      "start": 6.6345,
      "duration": 0.016,
      "velocity": 120,
      "chip": "ym2612"
    },
    {
      "channel": 2,
      "note": 53,
      "start": 6.6357,
      "duration": 0.016,
      "velocity": 100,
      "chip": "ym2612"
    },
    {
      "channel": 1,
      "note": 75,
      "start": 6.6465,
      "duration": 0.0161,
      "velocity": 124,
      "chip": "ym2612"
    },
    {
      "channel": 0,
      "note": 47,
      "start": 6.6482,
      "duration": 0.0161,
      "velocity": 115,
      "chip": "ym2612"
    },
    {
      "channel": 4,
      "note": 65,
      "start": 6.6493,
      "duration": 0.0162,
      "velocity": 120,
      "chip": "ym2612"
    },
    {
      "channel": 3,
      "note": 60,
      "start": 6.6505,
      "duration": 0.0161,
      "velocity": 120,
      "chip": "ym2612"
    },
    {
      "channel": 2,
      "note": 53,
      "start": 6.6516,
      "duration": 0.0161,
      "velocity": 100,
      "chip": "ym2612"
    },
    {
      "channel": 1,
      "note": 74,
      "start": 6.6626,
      "duration": 0.0161,
      "velocity": 124,
      "chip": "ym2612"
    },
    {
      "channel": 0,
      "note": 48,
      "start": 6.6643,
      "duration": 0.0161,
      "velocity": 115,
      "chip": "ym2612"
    },
    {
      "channel": 4,
      "note": 65,
      "start": 6.6655,
      "duration": 0.0161,
      "velocity": 120,
      "chip": "ym2612"
    },
    {
      "channel": 3,
      "note": 60,
      "start": 6.6666,
      "duration": 0.0161,
      "velocity": 120,
      "chip": "ym2612"
    },
    {
      "channel": 2,
      "note": 53,
      "start": 6.6677,
      "duration": 0.0161,
      "velocity": 100,
      "chip": "ym2612"
    },
    {
      "channel": 1,
      "note": 72,
      "start": 6.6787,
      "duration": 0.0161,
      "velocity": 124,
      "chip": "ym2612"
    },
    {
      "channel": 0,
      "note": 48,
      "start": 6.6805,
      "duration": 0.0161,
      "velocity": 115,
      "chip": "ym2612"
    },
    {
      "channel": 4,
      "note": 65,
      "start": 6.6816,
      "duration": 0.0161,
      "velocity": 120,
      "chip": "ym2612"
    },
    {
      "channel": 3,
      "note": 60,
      "start": 6.6827,
      "duration": 0.0161,
      "velocity": 120,
      "chip": "ym2612"
    },
    {
      "channel": 2,
      "note": 53,
      "start": 6.6838,
      "duration": 0.0161,
      "velocity": 100,
      "chip": "ym2612"
    },
    {
      "channel": 1,
      "note": 71,
      "start": 6.6948,
      "duration": 0.0162,
      "velocity": 124,
      "chip": "ym2612"
    },
    {
      "channel": 0,
      "note": 49,
      "start": 6.6966,
      "duration": 0.0153,
      "velocity": 1,
      "chip": "ym2612"
    },
    {
      "channel": 4,
      "note": 65,
      "start": 6.6977,
      "duration": 0.0153,
      "velocity": 120,
      "chip": "ym2612"
    },
    {
      "channel": 3,
      "note": 60,
      "start": 6.6988,
      "duration": 0.0153,
      "velocity": 120,
      "chip": "ym2612"
    },
    {
      "channel": 2,
      "note": 53,
      "start": 6.6999,
      "duration": 0.0153,
      "velocity": 100,
      "chip": "ym2612"
    },
    {
      "channel": 1,
      "note": 70,
      "start": 6.7109,
      "duration": 0.0163,
      "velocity": 124,
      "chip": "ym2612"
    },
    {
      "channel": 4,
      "note": 65,
      "start": 6.713,
      "duration": 0.0155,
      "velocity": 120,
      "chip": "ym2612"
    },
    {
      "channel": 3,
      "note": 60,
      "start": 6.7141,
      "duration": 0.0155,
      "velocity": 120,
      "chip": "ym2612"
    },
    {
      "channel": 2,
      "note": 53,
      "start": 6.7153,
      "duration": 0.0155,
      "velocity": 100,
      "chip": "ym2612"
    },
    {
      "channel": 1,
      "note": 69,
      "start": 6.7272,
      "duration": 0.0163,
      "velocity": 124,
      "chip": "ym2612"
    },
    {
      "channel": 4,
      "note": 65,
      "start": 6.7285,
      "duration": 0.0163,
      "velocity": 120,
      "chip": "ym2612"
    },
    {
      "channel": 3,
      "note": 60,
      "start": 6.7296,
      "duration": 0.0163,
      "velocity": 120,
      "chip": "ym2612"
    },
    {
      "channel": 1,
      "note": 68,
      "start": 6.7436,
      "duration": 0.0156,
      "velocity": 124,
      "chip": "ym2612"
    },
    {
      "channel": 4,
      "note": 65,
      "start": 6.7448,
      "duration": 0.0157,
      "velocity": 120,
      "chip": "ym2612"
    },
    {
      "channel": 3,
      "note": 60,
      "start": 6.7459,
      "duration": 0.0156,
      "velocity": 120,
      "chip": "ym2612"
    },
    {
      "channel": 1,
      "note": 66,
      "start": 6.7592,
      "duration": 0.018,
      "velocity": 124,
      "chip": "ym2612"
    },
    {
      "channel": 4,
      "note": 65,
      "start": 6.7604,
      "duration": 0.018,
      "velocity": 120,
      "chip": "ym2612"
    },
    {
      "channel": 3,
      "note": 60,
      "start": 6.7616,
      "duration": 0.0181,
      "velocity": 120,
      "chip": "ym2612"
    },
    {
      "channel": 1,
      "note": 65,
      "start": 6.7772,
      "duration": 0.0167,
      "velocity": 124,
      "chip": "ym2612"
    },
    {
      "channel": 4,
      "note": 65,
      "start": 6.7785,
      "duration": 0.0167,
      "velocity": 120,
      "chip": "ym2612"
    },
    {
      "channel": 3,
      "note": 60,
      "start": 6.7796,
      "duration": 0.0167,
      "velocity": 120,
      "chip": "ym2612"
    },
    {
      "channel": 1,
      "note": 64,
      "start": 6.7939,
      "duration": 0.016,
      "velocity": 124,
      "chip": "ym2612"
    },
    {
      "channel": 4,
      "note": 65,
      "start": 6.7951,
      "duration": 0.0194,
      "velocity": 120,
      "chip": "ym2612"
    },
    {
      "channel": 3,
      "note": 60,
      "start": 6.7963,
      "duration": 0.0194,
      "velocity": 120,
      "chip": "ym2612"
    },
    {
      "channel": 1,
      "note": 62,
      "start": 6.8099,
      "duration": 0.014,
      "velocity": 124,
      "chip": "ym2612"
    },
    {
      "channel": 0,
      "note": 36,
      "start": 6.8134,
      "duration": 0.0124,
      "velocity": 115,
      "chip": "ym2612"
    },
    {
      "channel": 4,
      "note": 65,
      "start": 6.8146,
      "duration": 0.0123,
      "velocity": 120,
      "chip": "ym2612"
    },
    {
      "channel": 3,
      "note": 60,
      "start": 6.8157,
      "duration": 0.0124,
      "velocity": 120,
      "chip": "ym2612"
    },
    {
      "channel": 2,
      "note": 53,
      "start": 6.8172,
      "duration": 0.012,
      "velocity": 100,
      "chip": "ym2612"
    },
    {
      "channel": 1,
      "note": 61,
      "start": 6.8239,
      "duration": 0.0186,
      "velocity": 124,
      "chip": "ym2612"
    },
    {
      "channel": 0,
      "note": 36,
      "start": 6.8258,
      "duration": 0.0184,
      "velocity": 115,
      "chip": "ym2612"
    },
    {
      "channel": 4,
      "note": 65,
      "start": 6.8269,
      "duration": 0.0185,
      "velocity": 120,
      "chip": "ym2612"
    },
    {
      "channel": 3,
      "note": 60,
      "start": 6.828,
      "duration": 0.0184,
      "velocity": 120,
      "chip": "ym2612"
    },
    {
      "channel": 2,
      "note": 53,
      "start": 6.8292,
      "duration": 0.0185,
      "velocity": 100,
      "chip": "ym2612"
    },
    {
      "channel": 1,
      "note": 60,
      "start": 6.8425,
      "duration": 0.0134,
      "velocity": 124,
      "chip": "ym2612"
    },
    {
      "channel": 0,
      "note": 37,
      "start": 6.8442,
      "duration": 0.0161,
      "velocity": 115,
      "chip": "ym2612"
    },
    {
      "channel": 4,
      "note": 65,
      "start": 6.8454,
      "duration": 0.0161,
      "velocity": 120,
      "chip": "ym2612"
    },
    {
      "channel": 3,
      "note": 60,
      "start": 6.8465,
      "duration": 0.0161,
      "velocity": 120,
      "chip": "ym2612"
    },
    {
      "channel": 2,
      "note": 53,
      "start": 6.8476,
      "duration": 0.0161,
      "velocity": 100,
      "chip": "ym2612"
    },
    {
      "channel": 1,
      "note": 59,
      "start": 6.8559,
      "duration": 0.0161,
      "velocity": 124,
      "chip": "ym2612"
    },
    {
      "channel": 0,
      "note": 37,
      "start": 6.8603,
      "duration": 0.0157,
      "velocity": 115,
      "chip": "ym2612"
    },
    {
      "channel": 4,
      "note": 65,
      "start": 6.8614,
      "duration": 0.0158,
      "velocity": 120,
      "chip": "ym2612"
    },
    {
      "channel": 3,
      "note": 60,
      "start": 6.8626,
      "duration": 0.0157,
      "velocity": 120,
      "chip": "ym2612"
    },
    {
      "channel": 2,
      "note": 53,
      "start": 6.8637,
      "duration": 0.0157,
      "velocity": 100,
      "chip": "ym2612"
    },
    {
      "channel": 1,
      "note": 57,
      "start": 6.8719,
      "duration": 0.0161,
      "velocity": 124,
      "chip": "ym2612"
    },
    {
      "channel": 0,
      "note": 38,
      "start": 6.876,
      "duration": 0.0141,
      "velocity": 115,
      "chip": "ym2612"
    },
    {
      "channel": 4,
      "note": 65,
      "start": 6.8772,
      "duration": 0.014,
      "velocity": 120,
      "chip": "ym2612"
    },
    {
      "channel": 3,
      "note": 60,
      "start": 6.8783,
      "duration": 0.0141,
      "velocity": 120,
      "chip": "ym2612"
    },
    {
      "channel": 2,
      "note": 53,
      "start": 6.8794,
      "duration": 0.0141,
      "velocity": 100,
      "chip": "ym2612"
    },
    {
      "channel": 1,
      "note": 56,
      "start": 6.888,
      "duration": 0.0161,
      "velocity": 124,
      "chip": "ym2612"
    },
    {
      "channel": 0,
      "note": 38,
      "start": 6.8901,
      "duration": 0.0158,
      "velocity": 115,
      "chip": "ym2612"
    },
    {
      "channel": 4,
      "note": 65,
      "start": 6.8912,
      "duration": 0.0185,
      "velocity": 120,
      "chip": "ym2612"
    },
    {
      "channel": 3,
      "note": 60,
      "start": 6.8924,
      "duration": 0.0185,
      "velocity": 120,
      "chip": "ym2612"
    },
    {
      "channel": 2,
      "note": 53,
      "start": 6.8935,
      "duration": 0.0185,
      "velocity": 100,
      "chip": "ym2612"
    },
    {
      "channel": 1,
      "note": 55,
      "start": 6.9041,
      "duration": 0.0161,
      "velocity": 124,
      "chip": "ym2612"
    },
    {
      "channel": 0,
      "note": 39,
      "start": 6.9059,
      "duration": 0.0161,
      "velocity": 115,
      "chip": "ym2612"
    },
    {
      "channel": 4,
      "note": 65,
      "start": 6.9097,
      "duration": 0.0161,
      "velocity": 120,
      "chip": "ym2612"
    },
    {
      "channel": 3,
      "note": 60,
      "start": 6.9109,
      "duration": 0.0161,
      "velocity": 120,
      "chip": "ym2612"
    },
    {
      "channel": 2,
      "note": 53,
      "start": 6.912,
      "duration": 0.0161,
      "velocity": 100,
      "chip": "ym2612"
    },
    {
      "channel": 1,
      "note": 53,
      "start": 6.9202,
      "duration": 0.0161,
      "velocity": 124,
      "chip": "ym2612"
    },
    {
      "channel": 0,
      "note": 39,
      "start": 6.9219,
      "duration": 0.0161,
      "velocity": 115,
      "chip": "ym2612"
    },
    {
      "channel": 4,
      "note": 65,
      "start": 6.9258,
      "duration": 0.0134,
      "velocity": 120,
      "chip": "ym2612"
    },
    {
      "channel": 3,
      "note": 60,
      "start": 6.927,
      "duration": 0.0158,
      "velocity": 120,
      "chip": "ym2612"
    },
    {
      "channel": 1,
      "note": 52,
      "start": 6.9363,
      "duration": 0.0161,
      "velocity": 124,
      "chip": "ym2612"
    },
    {
      "channel": 0,
      "note": 40,
      "start": 6.938,
      "duration": 0.0161,
      "velocity": 115,
      "chip": "ym2612"
    },
    {
      "channel": 4,
      "note": 65,
      "start": 6.9392,
      "duration": 0.0161,
      "velocity": 120,
      "chip": "ym2612"
    },
    {
      "channel": 3,
      "note": 60,
      "start": 6.9427,
      "duration": 0.014,
      "velocity": 120,
      "chip": "ym2612"
    },
    {
      "channel": 1,
      "note": 51,
      "start": 6.9524,
      "duration": 0.0153,
      "velocity": 1,
      "chip": "ym2612"
    },
    {
      "channel": 0,
      "note": 40,
      "start": 6.9541,
      "duration": 0.0153,
      "velocity": 115,
      "chip": "ym2612"
    },
    {
      "channel": 4,
      "note": 65,
      "start": 6.9553,
      "duration": 0.0153,
      "velocity": 120,
      "chip": "ym2612"
    },
    {
      "channel": 3,
      "note": 60,
      "start": 6.9567,
      "duration": 0.015,
      "velocity": 120,
      "chip": "ym2612"
    },
    {
      "channel": 0,
      "note": 40,
      "start": 6.9695,
      "duration": 0.0153,
      "velocity": 115,
      "chip": "ym2612"
    },
    {
      "channel": 4,
      "note": 65,
      "start": 6.9706,
      "duration": 0.0153,
      "velocity": 120,
      "chip": "ym2612"
    },
    {
      "channel": 3,
      "note": 60,
      "start": 6.9717,
      "duration": 0.0153,
      "velocity": 120,
      "chip": "ym2612"
    },
    {
      "channel": 0,
      "note": 41,
      "start": 6.9847,
      "duration": 0.0161,
      "velocity": 115,
      "chip": "ym2612"
    },
    {
      "channel": 4,
      "note": 65,
      "start": 6.9859,
      "duration": 0.0161,
      "velocity": 120,
      "chip": "ym2612"
    },
    {
      "channel": 3,
      "note": 60,
      "start": 6.987,
      "duration": 0.0161,
      "velocity": 120,
      "chip": "ym2612"
    },
    {
      "channel": 0,
      "note": 41,
      "start": 7.0008,
      "duration": 0.0161,
      "velocity": 115,
      "chip": "ym2612"
    },
    {
      "channel": 4,
      "note": 65,
      "start": 7.002,
      "duration": 0.0161,
      "velocity": 120,
      "chip": "ym2612"
    },
    {
      "channel": 3,
      "note": 60,
      "start": 7.0031,
      "duration": 0.0161,
      "velocity": 120,
      "chip": "ym2612"
    },
    {
      "channel": 2,
      "note": 53,
      "start": 7.0045,
      "duration": 0.0159,
      "velocity": 100,
      "chip": "ym2612"
    },
    {
      "channel": 1,
      "note": 41,
      "start": 7.0083,
      "duration": 0.0132,
      "velocity": 100,
      "chip": "ym2612"
    },
    {
      "channel": 0,
      "note": 42,
      "start": 7.0169,
      "duration": 0.0161,
      "velocity": 115,
      "chip": "ym2612"
    },
    {
      "channel": 4,
      "note": 65,
      "start": 7.018,
      "duration": 0.0161,
      "velocity": 120,
      "chip": "ym2612"
    },
    {
      "channel": 3,
      "note": 60,
      "start": 7.0192,
      "duration": 0.0161,
      "velocity": 120,
      "chip": "ym2612"
    },
    {
      "channel": 2,
      "note": 53,
      "start": 7.0204,
      "duration": 0.016,
      "velocity": 100,
      "chip": "ym2612"
    },
    {
      "channel": 1,
      "note": 41,
      "start": 7.0216,
      "duration": 0.016,
      "velocity": 100,
      "chip": "ym2612"
    },
    {
      "channel": 0,
      "note": 42,
      "start": 7.033,
      "duration": 0.0161,
      "velocity": 115,
      "chip": "ym2612"
    },
    {
      "channel": 4,
      "note": 65,
      "start": 7.0341,
      "duration": 0.0161,
      "velocity": 120,
      "chip": "ym2612"
    },
    {
      "channel": 3,
      "note": 60,
      "start": 7.0353,
      "duration": 0.0161,
      "velocity": 120,
      "chip": "ym2612"
    },
    {
      "channel": 2,
      "note": 53,
      "start": 7.0364,
      "duration": 0.0161,
      "velocity": 100,
      "chip": "ym2612"
    },
    {
      "channel": 1,
      "note": 41,
      "start": 7.0375,
      "duration": 0.0161,
      "velocity": 100,
      "chip": "ym2612"
    },
    {
      "channel": 0,
      "note": 43,
      "start": 7.0491,
      "duration": 0.0161,
      "velocity": 115,
      "chip": "ym2612"
    },
    {
      "channel": 4,
      "note": 65,
      "start": 7.0502,
      "duration": 0.0161,
      "velocity": 120,
      "chip": "ym2612"
    },
    {
      "channel": 3,
      "note": 60,
      "start": 7.0514,
      "duration": 0.0161,
      "velocity": 120,
      "chip": "ym2612"
    },
    {
      "channel": 2,
      "note": 53,
      "start": 7.0525,
      "duration": 0.0161,
      "velocity": 100,
      "chip": "ym2612"
    },
    {
      "channel": 1,
      "note": 41,
      "start": 7.0536,
      "duration": 0.0161,
      "velocity": 100,
      "chip": "ym2612"
    },
    {
      "channel": 0,
      "note": 43,
      "start": 7.0652,
      "duration": 0.0161,
      "velocity": 115,
      "chip": "ym2612"
    },
    {
      "channel": 4,
      "note": 65,
      "start": 7.0663,
      "duration": 0.0161,
      "velocity": 120,
      "chip": "ym2612"
    },
    {
      "channel": 3,
      "note": 60,
      "start": 7.0675,
      "duration": 0.0161,
      "velocity": 120,
      "chip": "ym2612"
    },
    {
      "channel": 2,
      "note": 53,
      "start": 7.0686,
      "duration": 0.0161,
      "velocity": 100,
      "chip": "ym2612"
    },
    {
      "channel": 1,
      "note": 41,
      "start": 7.0697,
      "duration": 0.0162,
      "velocity": 100,
      "chip": "ym2612"
    },
    {
      "channel": 0,
      "note": 44,
      "start": 7.0813,
      "duration": 0.0161,
      "velocity": 115,
      "chip": "ym2612"
    },
    {
      "channel": 4,
      "note": 65,
      "start": 7.0824,
      "duration": 0.0161,
      "velocity": 120,
      "chip": "ym2612"
    },
    {
      "channel": 3,
      "note": 60,
      "start": 7.0836,
      "duration": 0.0161,
      "velocity": 120,
      "chip": "ym2612"
    },
    {
      "channel": 2,
      "note": 53,
      "start": 7.0847,
      "duration": 0.0161,
      "velocity": 100,
      "chip": "ym2612"
    },
    {
      "channel": 1,
      "note": 41,
      "start": 7.0859,
      "duration": 0.0161,
      "velocity": 100,
      "chip": "ym2612"
    },
    {
      "channel": 0,
      "note": 44,
      "start": 7.0974,
      "duration": 0.0161,
      "velocity": 115,
      "chip": "ym2612"
    },
    {
      "channel": 4,
      "note": 65,
      "start": 7.0985,
      "duration": 0.0162,
      "velocity": 120,
      "chip": "ym2612"
    },
    {
      "channel": 3,
      "note": 60,
      "start": 7.0997,
      "duration": 0.0162,
      "velocity": 120,
      "chip": "ym2612"
    },
    {
      "channel": 2,
      "note": 53,
      "start": 7.1008,
      "duration": 0.0162,
      "velocity": 100,
      "chip": "ym2612"
    },
    {
      "channel": 1,
      "note": 41,
      "start": 7.102,
      "duration": 0.0162,
      "velocity": 100,
      "chip": "ym2612"
    },
    {
      "channel": 0,
      "note": 44,
      "start": 7.1135,
      "duration": 0.0161,
      "velocity": 115,
      "chip": "ym2612"
    },
    {
      "channel": 4,
      "note": 65,
      "start": 7.1147,
      "duration": 0.0161,
      "velocity": 120,
      "chip": "ym2612"
    },
    {
      "channel": 3,
      "note": 60,
      "start": 7.1158,
      "duration": 0.0161,
      "velocity": 120,
      "chip": "ym2612"
    },
    {
      "channel": 0,
      "note": 45,
      "start": 7.1296,
      "duration": 0.0161,
      "velocity": 115,
      "chip": "ym2612"
    },
    {
      "channel": 4,
      "note": 65,
      "start": 7.1308,
      "duration": 0.0161,
      "velocity": 120,
      "chip": "ym2612"
    },
    {
      "channel": 3,
      "note": 60,
      "start": 7.1319,
      "duration": 0.0161,
      "velocity": 120,
      "chip": "ym2612"
    },
    {
      "channel": 0,
      "note": 45,
      "start": 7.1457,
      "duration": 0.0161,
      "velocity": 115,
      "chip": "ym2612"
    },
    {
      "channel": 4,
      "note": 65,
      "start": 7.1469,
      "duration": 0.0161,
      "velocity": 120,
      "chip": "ym2612"
    },
    {
      "channel": 3,
      "note": 60,
      "start": 7.148,
      "duration": 0.0161,
      "velocity": 120,
      "chip": "ym2612"
    },
    {
      "channel": 0,
      "note": 46,
      "start": 7.1618,
      "duration": 0.0161,
      "velocity": 115,
      "chip": "ym2612"
    },
    {
      "channel": 4,
      "note": 65,
      "start": 7.163,
      "duration": 0.0161,
      "velocity": 120,
      "chip": "ym2612"
    },
    {
      "channel": 3,
      "note": 60,
      "start": 7.1641,
      "duration": 0.0161,
      "velocity": 120,
      "chip": "ym2612"
    },
    {
      "channel": 0,
      "note": 46,
      "start": 7.1779,
      "duration": 0.0179,
      "velocity": 115,
      "chip": "ym2612"
    },
    {
      "channel": 4,
      "note": 65,
      "start": 7.1791,
      "duration": 0.0179,
      "velocity": 120,
      "chip": "ym2612"
    },
    {
      "channel": 3,
      "note": 60,
      "start": 7.1802,
      "duration": 0.0179,
      "velocity": 120,
      "chip": "ym2612"
    },
    {
      "channel": 0,
      "note": 36,
      "start": 7.1958,
      "duration": 0.0146,
      "velocity": 115,
      "chip": "ym2612"
    },
    {
      "channel": 4,
      "note": 65,
      "start": 7.197,
      "duration": 0.0145,
      "velocity": 120,
      "chip": "ym2612"
    },
    {
      "channel": 3,
      "note": 60,
      "start": 7.1981,
      "duration": 0.0146,
      "velocity": 120,
      "chip": "ym2612"
    },
    {
      "channel": 2,
      "note": 53,
      "start": 7.1995,
      "duration": 0.0142,
      "velocity": 100,
      "chip": "ym2612"
    },
    {
      "channel": 1,
      "note": 41,
      "start": 7.201,
      "duration": 0.014,
      "velocity": 100,
      "chip": "ym2612"
    },
    {
      "channel": 0,
      "note": 36,
      "start": 7.2104,
      "duration": 0.0158,
      "velocity": 115,
      "chip": "ym2612"
    },
    {
      "channel": 4,
      "note": 65,
      "start": 7.2115,
      "duration": 0.0159,
      "velocity": 120,
      "chip": "ym2612"
    },
    {
      "channel": 3,
      "note": 60,
      "start": 7.2127,
      "duration": 0.0158,
      "velocity": 120,
      "chip": "ym2612"
    },
    {
      "channel": 2,
      "note": 53,
      "start": 7.2138,
      "duration": 0.0159,
      "velocity": 100,
      "chip": "ym2612"
    },
    {
      "channel": 1,
      "note": 41,
      "start": 7.215,
      "duration": 0.0158,
      "velocity": 100,
      "chip": "ym2612"
    },
    {
      "channel": 0,
      "note": 37,
      "start": 7.2262,
      "duration": 0.0178,
      "velocity": 115,
      "chip": "ym2612"
    },
    {
      "channel": 4,
      "note": 65,
      "start": 7.2273,
      "duration": 0.0178,
      "velocity": 120,
      "chip": "ym2612"
    },
    {
      "channel": 3,
      "note": 60,
      "start": 7.2285,
      "duration": 0.0178,
      "velocity": 120,
      "chip": "ym2612"
    },
    {
      "channel": 2,
      "note": 53,
      "start": 7.2296,
      "duration": 0.0178,
      "velocity": 100,
      "chip": "ym2612"
    },
    {
      "channel": 1,
      "note": 41,
      "start": 7.2308,
      "duration": 0.0178,
      "velocity": 100,
      "chip": "ym2612"
    },
    {
      "channel": 0,
      "note": 37,
      "start": 7.2439,
      "duration": 0.0167,
      "velocity": 115,
      "chip": "ym2612"
    },
    {
      "channel": 4,
      "note": 65,
      "start": 7.2451,
      "duration": 0.0167,
      "velocity": 120,
      "chip": "ym2612"
    },
    {
      "channel": 3,
      "note": 60,
      "start": 7.2462,
      "duration": 0.0167,
      "velocity": 120,
      "chip": "ym2612"
    },
    {
      "channel": 2,
      "note": 53,
      "start": 7.2474,
      "duration": 0.0167,
      "velocity": 100,
      "chip": "ym2612"
    },
    {
      "channel": 1,
      "note": 41,
      "start": 7.2485,
      "duration": 0.0167,
      "velocity": 100,
      "chip": "ym2612"
    },
    {
      "channel": 0,
      "note": 38,
      "start": 7.2607,
      "duration": 0.0162,
      "velocity": 115,
      "chip": "ym2612"
    },
    {
      "channel": 4,
      "note": 65,
      "start": 7.2618,
      "duration": 0.0162,
      "velocity": 120,
      "chip": "ym2612"
    },
    {
      "channel": 3,
      "note": 60,
      "start": 7.263,
      "duration": 0.0162,
      "velocity": 120,
      "chip": "ym2612"
    },
    {
      "channel": 2,
      "note": 53,
      "start": 7.2641,
      "duration": 0.0163,
      "velocity": 100,
      "chip": "ym2612"
    },
    {
      "channel": 1,
      "note": 41,
      "start": 7.2652,
      "duration": 0.0162,
      "velocity": 100,
      "chip": "ym2612"
    },
    {
      "channel": 0,
      "note": 38,
      "start": 7.2769,
      "duration": 0.0141,
      "velocity": 115,
      "chip": "ym2612"
    },
    {
      "channel": 4,
      "note": 65,
      "start": 7.278,
      "duration": 0.0141,
      "velocity": 120,
      "chip": "ym2612"
    },
    {
      "channel": 3,
      "note": 60,
      "start": 7.2792,
      "duration": 0.0141,
      "velocity": 120,
      "chip": "ym2612"
    },
    {
      "channel": 2,
      "note": 53,
      "start": 7.2803,
      "duration": 0.0141,
      "velocity": 100,
      "chip": "ym2612"
    },
    {
      "channel": 1,
      "note": 41,
      "start": 7.2814,
      "duration": 0.0141,
      "velocity": 100,
      "chip": "ym2612"
    },
    {
      "channel": 0,
      "note": 39,
      "start": 7.291,
      "duration": 0.0185,
      "velocity": 115,
      "chip": "ym2612"
    },
    {
      "channel": 4,
      "note": 65,
      "start": 7.2921,
      "duration": 0.0185,
      "velocity": 120,
      "chip": "ym2612"
    },
    {
      "channel": 3,
      "note": 60,
      "start": 7.2932,
      "duration": 0.0185,
      "velocity": 120,
      "chip": "ym2612"
    },
    {
      "channel": 2,
      "note": 53,
      "start": 7.2944,
      "duration": 0.0185,
      "velocity": 100,
      "chip": "ym2612"
    },
    {
      "channel": 1,
      "note": 41,
      "start": 7.2955,
      "duration": 0.0186,
      "velocity": 100,
      "chip": "ym2612"
    },
    {
      "channel": 0,
      "note": 39,
      "start": 7.3095,
      "duration": 0.0161,
      "velocity": 115,
      "chip": "ym2612"
    },
    {
      "channel": 4,
      "note": 65,
      "start": 7.3106,
      "duration": 0.0161,
      "velocity": 120,
      "chip": "ym2612"
    },
    {
      "channel": 3,
      "note": 60,
      "start": 7.3118,
      "duration": 0.0161,
      "velocity": 120,
      "chip": "ym2612"
    },
    {
      "channel": 0,
      "note": 40,
      "start": 7.3256,
      "duration": 0.0134,
      "velocity": 115,
      "chip": "ym2612"
    },
    {
      "channel": 4,
      "note": 65,
      "start": 7.3267,
      "duration": 0.0158,
      "velocity": 120,
      "chip": "ym2612"
    },
    {
      "channel": 3,
      "note": 60,
      "start": 7.3278,
      "duration": 0.0157,
      "velocity": 120,
      "chip": "ym2612"
    },
    {
      "channel": 0,
      "note": 40,
      "start": 7.3389,
      "duration": 0.0161,
      "velocity": 115,
      "chip": "ym2612"
    },
    {
      "channel": 4,
      "note": 65,
      "start": 7.3425,
      "duration": 0.014,
      "velocity": 120,
      "chip": "ym2612"
    },
    {
      "channel": 3,
      "note": 60,
      "start": 7.3436,
      "duration": 0.0141,
      "velocity": 120,
      "chip": "ym2612"
    },
    {
      "channel": 0,
      "note": 40,
      "start": 7.355,
      "duration": 0.0161,
      "velocity": 115,
      "chip": "ym2612"
    },
    {
      "channel": 4,
      "note": 65,
      "start": 7.3565,
      "duration": 0.0158,
      "velocity": 120,
      "chip": "ym2612"
    },
    {
      "channel": 3,
      "note": 60,
      "start": 7.3576,
      "duration": 0.0185,
      "velocity": 120,
      "chip": "ym2612"
    },
    {
      "channel": 0,
      "note": 41,
      "start": 7.3711,
      "duration": 0.0223,
      "velocity": 115,
      "chip": "ym2612"
    },
    {
      "channel": 4,
      "note": 65,
      "start": 7.3722,
      "duration": 0.0223,
      "velocity": 120,
      "chip": "ym2612"
    },
    {
      "channel": 3,
      "note": 60,
      "start": 7.3761,
      "duration": 0.0196,
      "velocity": 120,
      "chip": "ym2612"
    },
    {
      "channel": 1,
      "note": 78,
      "start": 7.3889,
      "duration": 0.0144,
      "velocity": 124,
      "chip": "ym2612"
    },
    {
      "channel": 0,
      "note": 41,
      "start": 7.3934,
      "duration": 0.0116,
      "velocity": 115,
      "chip": "ym2612"
    },
    {
      "channel": 4,
      "note": 65,
      "start": 7.3946,
      "duration": 0.014,
      "velocity": 120,
      "chip": "ym2612"
    },
    {
      "channel": 3,
      "note": 60,
      "start": 7.3957,
      "duration": 0.014,
      "velocity": 120,
      "chip": "ym2612"
    },
    {
      "channel": 2,
      "note": 53,
      "start": 7.3972,
      "duration": 0.0137,
      "velocity": 100,
      "chip": "ym2612"
    },
    {
      "channel": 1,
      "note": 76,
      "start": 7.4033,
      "duration": 0.016,
      "velocity": 124,
      "chip": "ym2612"
    },
    {
      "channel": 0,
      "note": 42,
      "start": 7.405,
      "duration": 0.0161,
      "velocity": 115,
      "chip": "ym2612"
    },
    {
      "channel": 4,
      "note": 65,
      "start": 7.4086,
      "duration": 0.0137,
      "velocity": 120,
      "chip": "ym2612"
    },
    {
      "channel": 3,
      "note": 60,
      "start": 7.4097,
      "duration": 0.014,
      "velocity": 120,
      "chip": "ym2612"
    },
    {
      "channel": 2,
      "note": 53,
      "start": 7.4109,
      "duration": 0.0139,
      "velocity": 100,
      "chip": "ym2612"
    },
    {
      "channel": 1,
      "note": 75,
      "start": 7.4193,
      "duration": 0.0161,
      "velocity": 124,
      "chip": "ym2612"
    },
    {
      "channel": 0,
      "note": 42,
      "start": 7.4211,
      "duration": 0.0161,
      "velocity": 115,
      "chip": "ym2612"
    },
    {
      "channel": 4,
      "note": 65,
      "start": 7.4222,
      "duration": 0.0161,
      "velocity": 120,
      "chip": "ym2612"
    },
    {
      "channel": 3,
      "note": 60,
      "start": 7.4237,
      "duration": 0.0185,
      "velocity": 120,
      "chip": "ym2612"
    },
    {
      "channel": 2,
      "note": 53,
      "start": 7.4248,
      "duration": 0.0186,
      "velocity": 100,
      "chip": "ym2612"
    },
    {
      "channel": 1,
      "note": 74,
      "start": 7.4354,
      "duration": 0.0162,
      "velocity": 124,
      "chip": "ym2612"
    },
    {
      "channel": 0,
      "note": 43,
      "start": 7.4372,
      "duration": 0.0161,
      "velocity": 115,
      "chip": "ym2612"
    },
    {
      "channel": 4,
      "note": 65,
      "start": 7.4383,
      "duration": 0.0161,
      "velocity": 120,
      "chip": "ym2612"
    },
    {
      "channel": 3,
      "note": 60,
      "start": 7.4422,
      "duration": 0.0134,
      "velocity": 120,
      "chip": "ym2612"
    },
    {
      "channel": 2,
      "note": 53,
      "start": 7.4434,
      "duration": 0.0161,
      "velocity": 100,
      "chip": "ym2612"
    },
    {
      "channel": 1,
      "note": 72,
      "start": 7.4516,
      "duration": 0.0161,
      "velocity": 124,
      "chip": "ym2612"
    },
    {
      "channel": 0,
      "note": 43,
      "start": 7.4533,
      "duration": 0.0161,
      "velocity": 115,
      "chip": "ym2612"
    },
    {
      "channel": 4,
      "note": 65,
      "start": 7.4544,
      "duration": 0.0161,
      "velocity": 120,
      "chip": "ym2612"
    },
    {
      "channel": 3,
      "note": 60,
      "start": 7.4556,
      "duration": 0.0161,
      "velocity": 120,
      "chip": "ym2612"
    },
    {
      "channel": 2,
      "note": 53,
      "start": 7.4595,
      "duration": 0.0157,
      "velocity": 100,
      "chip": "ym2612"
    },
    {
      "channel": 1,
      "note": 71,
      "start": 7.4677,
      "duration": 0.0161,
      "velocity": 124,
      "chip": "ym2612"
    },
    {
      "channel": 0,
      "note": 44,
      "start": 7.4694,
      "duration": 0.0161,
      "velocity": 115,
      "chip": "ym2612"
    },
    {
      "channel": 4,
      "note": 65,
      "start": 7.4705,
      "duration": 0.0161,
      "velocity": 120,
      "chip": "ym2612"
    },
    {
      "channel": 3,
      "note": 60,
      "start": 7.4717,
      "duration": 0.0161,
      "velocity": 120,
      "chip": "ym2612"
    },
    {
      "channel": 2,
      "note": 53,
      "start": 7.4752,
      "duration": 0.0137,
      "velocity": 100,
      "chip": "ym2612"
    },
    {
      "channel": 1,
      "note": 70,
      "start": 7.4838,
      "duration": 0.0161,
      "velocity": 124,
      "chip": "ym2612"
    },
    {
      "channel": 0,
      "note": 44,
      "start": 7.4855,
      "duration": 0.0161,
      "velocity": 115,
      "chip": "ym2612"
    },
    {
      "channel": 4,
      "note": 65,
      "start": 7.4866,
      "duration": 0.0161,
      "velocity": 120,
      "chip": "ym2612"
    },
    {
      "channel": 3,
      "note": 60,
      "start": 7.4878,
      "duration": 0.0161,
      "velocity": 120,
      "chip": "ym2612"
    },
    {
      "channel": 2,
      "note": 53,
      "start": 7.4889,
      "duration": 0.0161,
      "velocity": 100,
      "chip": "ym2612"
    },
    {
      "channel": 1,
      "note": 69,
      "start": 7.4999,
      "duration": 0.0161,
      "velocity": 124,
      "chip": "ym2612"
    },
    {
      "channel": 0,
      "note": 44,
      "start": 7.5016,
      "duration": 0.0161,
      "velocity": 115,
      "chip": "ym2612"
    },
    {
      "channel": 4,
      "note": 65,
      "start": 7.5027,
      "duration": 0.0161,
      "velocity": 120,
      "chip": "ym2612"
    },
    {
      "channel": 3,
      "note": 60,
      "start": 7.5039,
      "duration": 0.0161,
      "velocity": 120,
      "chip": "ym2612"
    },
    {
      "channel": 1,
      "note": 68,
      "start": 7.516,
      "duration": 0.0161,
      "velocity": 124,
      "chip": "ym2612"
    },
    {
      "channel": 0,
      "note": 45,
      "start": 7.5177,
      "duration": 0.0161,
      "velocity": 115,
      "chip": "ym2612"
    },
    {
      "channel": 4,
      "note": 65,
      "start": 7.5188,
      "duration": 0.0161,
      "velocity": 120,
      "chip": "ym2612"
    },
    {
      "channel": 3,
      "note": 60,
      "start": 7.52,
      "duration": 0.0161,
      "velocity": 120,
      "chip": "ym2612"
    },
    {
      "channel": 1,
      "note": 66,
      "start": 7.532,
      "duration": 0.0161,
      "velocity": 124,
      "chip": "ym2612"
    },
    {
      "channel": 0,
      "note": 45,
      "start": 7.5338,
      "duration": 0.0162,
      "velocity": 115,
      "chip": "ym2612"
    },
    {
      "channel": 4,
      "note": 65,
      "start": 7.5349,
      "duration": 0.0161,
      "velocity": 120,
      "chip": "ym2612"
    },
    {
      "channel": 3,
      "note": 60,
      "start": 7.5361,
      "duration": 0.0162,
      "velocity": 120,
      "chip": "ym2612"
    },
    {
      "channel": 1,
      "note": 65,
      "start": 7.5481,
      "duration": 0.0161,
      "velocity": 124,
      "chip": "ym2612"
    },
    {
      "channel": 0,
      "note": 46,
      "start": 7.5499,
      "duration": 0.0161,
      "velocity": 115,
      "chip": "ym2612"
    },
    {
      "channel": 4,
      "note": 65,
      "start": 7.5511,
      "duration": 0.0161,
      "velocity": 120,
      "chip": "ym2612"
    },
    {
      "channel": 3,
      "note": 60,
      "start": 7.5522,
      "duration": 0.0161,
      "velocity": 120,
      "chip": "ym2612"
    },
    {
      "channel": 1,
      "note": 64,
      "start": 7.5642,
      "duration": 0.0161,
      "velocity": 124,
      "chip": "ym2612"
    },
    {
      "channel": 0,
      "note": 46,
      "start": 7.566,
      "duration": 0.0178,
      "velocity": 115,
      "chip": "ym2612"
    },
    {
      "channel": 4,
      "note": 65,
      "start": 7.5672,
      "duration": 0.0179,
      "velocity": 120,
      "chip": "ym2612"
    },
    {
      "channel": 3,
      "note": 60,
      "start": 7.5683,
      "duration": 0.0179,
      "velocity": 120,
      "chip": "ym2612"
    },
    {
      "channel": 1,
      "note": 62,
      "start": 7.5804,
      "duration": 0.0161,
      "velocity": 124,
      "chip": "ym2612"
    },
    {
      "channel": 0,
      "note": 36,
      "start": 7.5839,
      "duration": 0.0144,
      "velocity": 115,
      "chip": "ym2612"
    },
    {
      "channel": 4,
      "note": 65,
      "start": 7.585,
      "duration": 0.0144,
      "velocity": 120,
      "chip": "ym2612"
    },
    {
      "channel": 3,
      "note": 60,
      "start": 7.5862,
      "duration": 0.0144,
      "velocity": 120,
      "chip": "ym2612"
    },
    {
      "channel": 2,
      "note": 53,
      "start": 7.5876,
      "duration": 0.0141,
      "velocity": 100,
      "chip": "ym2612"
    },
    {
      "channel": 1,
      "note": 61,
      "start": 7.5965,
      "duration": 0.0161,
      "velocity": 124,
      "chip": "ym2612"
    },
    {
      "channel": 0,
      "note": 36,
      "start": 7.5983,
      "duration": 0.016,
      "velocity": 115,
      "chip": "ym2612"
    },
    {
      "channel": 4,
      "note": 65,
      "start": 7.5994,
      "duration": 0.016,
      "velocity": 120,
      "chip": "ym2612"
    },
    {
      "channel": 3,
      "note": 60,
      "start": 7.6006,
      "duration": 0.016,
      "velocity": 120,
      "chip": "ym2612"
    },
    {
      "channel": 2,
      "note": 53,
      "start": 7.6017,
      "duration": 0.016,
      "velocity": 100,
      "chip": "ym2612"
    },
    {
      "channel": 1,
      "note": 60,
      "start": 7.6126,
      "duration": 0.0161,
      "velocity": 124,
      "chip": "ym2612"
    },
    {
      "channel": 0,
      "note": 37,
      "start": 7.6143,
      "duration": 0.0161,
      "velocity": 115,
      "chip": "ym2612"
    },
    {
      "channel": 4,
      "note": 65,
      "start": 7.6154,
      "duration": 0.0161,
      "velocity": 120,
      "chip": "ym2612"
    },
    {
      "channel": 3,
      "note": 60,
      "start": 7.6166,
      "duration": 0.0161,
      "velocity": 120,
      "chip": "ym2612"
    },
    {
      "channel": 2,
      "note": 53,
      "start": 7.6177,
      "duration": 0.0162,
      "velocity": 100,
      "chip": "ym2612"
    },
    {
      "channel": 1,
      "note": 59,
      "start": 7.6287,
      "duration": 0.0161,
      "velocity": 124,
      "chip": "ym2612"
    },
    {
      "channel": 0,
      "note": 37,
      "start": 7.6304,
      "duration": 0.0161,
      "velocity": 115,
      "chip": "ym2612"
    },
    {
      "channel": 4,
      "note": 65,
      "start": 7.6315,
      "duration": 0.0161,
      "velocity": 120,
      "chip": "ym2612"
    },
    {
      "channel": 3,
      "note": 60,
      "start": 7.6327,
      "duration": 0.0161,
      "velocity": 120,
      "chip": "ym2612"
    },
    {
      "channel": 2,
      "note": 53,
      "start": 7.6338,
      "duration": 0.0161,
      "velocity": 100,
      "chip": "ym2612"
    },
    {
      "channel": 1,
      "note": 57,
      "start": 7.6448,
      "duration": 0.0161,
      "velocity": 124,
      "chip": "ym2612"
    },
    {
      "channel": 0,
      "note": 38,
      "start": 7.6465,
      "duration": 0.0161,
      "velocity": 115,
      "chip": "ym2612"
    },
    {
      "channel": 4,
      "note": 65,
      "start": 7.6476,
      "duration": 0.0161,
      "velocity": 120,
      "chip": "ym2612"
    },
    {
      "channel": 3,
      "note": 60,
      "start": 7.6488,
      "duration": 0.0161,
      "velocity": 120,
      "chip": "ym2612"
    },
    {
      "channel": 2,
      "note": 53,
      "start": 7.6499,
      "duration": 0.0161,
      "velocity": 100,
      "chip": "ym2612"
    },
    {
      "channel": 1,
      "note": 56,
      "start": 7.6609,
      "duration": 0.0162,
      "velocity": 124,
      "chip": "ym2612"
    },
    {
      "channel": 0,
      "note": 38,
      "start": 7.6626,
      "duration": 0.0162,
      "velocity": 115,
      "chip": "ym2612"
    },
    {
      "channel": 4,
      "note": 65,
      "start": 7.6637,
      "duration": 0.0162,
      "velocity": 120,
      "chip": "ym2612"
    },
    {
      "channel": 3,
      "note": 60,
      "start": 7.6649,
      "duration": 0.0162,
      "velocity": 120,
      "chip": "ym2612"
    },
    {
      "channel": 2,
      "note": 53,
      "start": 7.666,
      "duration": 0.0161,
      "velocity": 100,
      "chip": "ym2612"
    },
    {
      "channel": 1,
      "note": 55,
      "start": 7.677,
      "duration": 0.016,
      "velocity": 124,
      "chip": "ym2612"
    },
    {
      "channel": 0,
      "note": 39,
      "start": 7.6788,
      "duration": 0.016,
      "velocity": 115,
      "chip": "ym2612"
    },
    {
      "channel": 4,
      "note": 65,
      "start": 7.6799,
      "duration": 0.016,
      "velocity": 120,
      "chip": "ym2612"
    },
    {
      "channel": 3,
      "note": 60,
      "start": 7.681,
      "duration": 0.016,
      "velocity": 120,
      "chip": "ym2612"
    },
    {
      "channel": 2,
      "note": 53,
      "start": 7.6821,
      "duration": 0.0161,
      "velocity": 100,
      "chip": "ym2612"
    },
    {
      "channel": 1,
      "note": 53,
      "start": 7.6931,
      "duration": 0.0176,
      "velocity": 124,
      "chip": "ym2612"
    },
    {
      "channel": 0,
      "note": 39,
      "start": 7.6948,
      "duration": 0.0176,
      "velocity": 115,
      "chip": "ym2612"
    },
    {
      "channel": 4,
      "note": 65,
      "start": 7.6959,
      "duration": 0.0176,
      "velocity": 120,
      "chip": "ym2612"
    },
    {
      "channel": 3,
      "note": 60,
      "start": 7.6971,
      "duration": 0.0176,
      "velocity": 120,
      "chip": "ym2612"
    },
    {
      "channel": 1,
      "note": 52,
      "start": 7.7106,
      "duration": 0.0166,
      "velocity": 124,
      "chip": "ym2612"
    },
    {
      "channel": 0,
      "note": 40,
      "start": 7.7123,
      "duration": 0.0166,
      "velocity": 115,
      "chip": "ym2612"
    },
    {
      "channel": 4,
      "note": 65,
      "start": 7.7135,
      "duration": 0.0167,
      "velocity": 120,
      "chip": "ym2612"
    },
    {
      "channel": 3,
      "note": 60,
      "start": 7.7146,
      "duration": 0.0166,
      "velocity": 120,
      "chip": "ym2612"
    },
    {
      "channel": 1,
      "note": 51,
      "start": 7.7272,
      "duration": 0.0155,
      "velocity": 1,
      "chip": "ym2612"
    },
    {
      "channel": 0,
      "note": 40,
      "start": 7.7289,
      "duration": 0.0155,
      "velocity": 115,
      "chip": "ym2612"
    },
    {
      "channel": 4,
      "note": 65,
      "start": 7.7301,
      "duration": 0.0155,
      "velocity": 120,
      "chip": "ym2612"
    },
    {
      "channel": 3,
      "note": 60,
      "start": 7.7312,
      "duration": 0.0155,
      "velocity": 120,
      "chip": "ym2612"
    },
    {
      "channel": 0,
      "note": 40,
      "start": 7.7444,
      "duration": 0.0134,
      "velocity": 115,
      "chip": "ym2612"
    },
    {
      "channel": 4,
      "note": 65,
      "start": 7.7456,
      "duration": 0.0134,
      "velocity": 120,
      "chip": "ym2612"
    },
    {
      "channel": 3,
      "note": 60,
      "start": 7.7467,
      "duration": 0.0134,
      "velocity": 120,
      "chip": "ym2612"
    },
    {
      "channel": 0,
      "note": 41,
      "start": 7.7579,
      "duration": 0.0203,
      "velocity": 115,
      "chip": "ym2612"
    },
    {
      "channel": 4,
      "note": 65,
      "start": 7.759,
      "duration": 0.0205,
      "velocity": 120,
      "chip": "ym2612"
    },
    {
      "channel": 3,
      "note": 60,
      "start": 7.7602,
      "duration": 0.0208,
      "velocity": 120,
      "chip": "ym2612"
    },
    {
      "channel": 0,
      "note": 36,
      "start": 7.7782,
      "duration": 0.0144,
      "velocity": 115,
      "chip": "ym2612"
    },
    {
      "channel": 4,
      "note": 68,
      "start": 7.7796,
      "duration": 0.0141,
      "velocity": 120,
      "chip": "ym2612"
    },
    {
      "channel": 3,
      "note": 63,
      "start": 7.781,
      "duration": 0.0139,
      "velocity": 120,
      "chip": "ym2612"
    },
    {
      "channel": 2,
      "note": 56,
      "start": 7.7825,
      "duration": 0.0137,
      "velocity": 100,
      "chip": "ym2612"
    },
    {
      "channel": 1,
      "note": 44,
      "start": 7.7839,
      "duration": 0.0134,
      "velocity": 100,
      "chip": "ym2612"
    },
    {
      "channel": 0,
      "note": 36,
      "start": 7.7925,
      "duration": 0.0133,
      "velocity": 115,
      "chip": "ym2612"
    },
    {
      "channel": 4,
      "note": 68,
      "start": 7.7938,
      "duration": 0.0156,
      "velocity": 120,
      "chip": "ym2612"
    },
    {
      "channel": 3,
      "note": 63,
      "start": 7.795,
      "duration": 0.0156,
      "velocity": 120,
      "chip": "ym2612"
    },
    {
      "channel": 2,
      "note": 56,
      "start": 7.7962,
      "duration": 0.0155,
      "velocity": 100,
      "chip": "ym2612"
    },
    {
      "channel": 1,
      "note": 44,
      "start": 7.7973,
      "duration": 0.0154,
      "velocity": 100,
      "chip": "ym2612"
    },
    {
      "channel": 0,
      "note": 37,
      "start": 7.8059,
      "duration": 0.0161,
      "velocity": 115,
      "chip": "ym2612"
    },
    {
      "channel": 4,
      "note": 68,
      "start": 7.8094,
      "duration": 0.0141,
      "velocity": 120,
      "chip": "ym2612"
    },
    {
      "channel": 3,
      "note": 63,
      "start": 7.8105,
      "duration": 0.014,
      "velocity": 120,
      "chip": "ym2612"
    },
    {
      "channel": 2,
      "note": 56,
      "start": 7.8116,
      "duration": 0.0141,
      "velocity": 100,
      "chip": "ym2612"
    },
    {
      "channel": 1,
      "note": 44,
      "start": 7.8128,
      "duration": 0.0141,
      "velocity": 100,
      "chip": "ym2612"
    },
    {
      "channel": 0,
      "note": 37,
      "start": 7.8219,
      "duration": 0.0161,
      "velocity": 115,
      "chip": "ym2612"
    },
    {
      "channel": 4,
      "note": 68,
      "start": 7.8235,
      "duration": 0.0157,
      "velocity": 120,
      "chip": "ym2612"
    },
    {
      "channel": 3,
      "note": 63,
      "start": 7.8245,
      "duration": 0.0185,
      "velocity": 120,
      "chip": "ym2612"
    },
    {
      "channel": 2,
      "note": 56,
      "start": 7.8257,
      "duration": 0.0185,
      "velocity": 100,
      "chip": "ym2612"
    },
    {
      "channel": 1,
      "note": 44,
      "start": 7.8268,
      "duration": 0.0185,
      "velocity": 100,
      "chip": "ym2612"
    },
    {
      "channel": 0,
      "note": 38,
      "start": 7.838,
      "duration": 0.0161,
      "velocity": 115,
      "chip": "ym2612"
    },
    {
      "channel": 4,
      "note": 68,
      "start": 7.8392,
      "duration": 0.0161,
      "velocity": 120,
      "chip": "ym2612"
    },
    {
      "channel": 3,
      "note": 63,
      "start": 7.8431,
      "duration": 0.0161,
      "velocity": 120,
      "chip": "ym2612"
    },
    {
      "channel": 2,
      "note": 56,
      "start": 7.8442,
      "duration": 0.0162,
      "velocity": 100,
      "chip": "ym2612"
    },
    {
      "channel": 1,
      "note": 44,
      "start": 7.8454,
      "duration": 0.0161,
      "velocity": 100,
      "chip": "ym2612"
    },
    {
      "channel": 0,
      "note": 38,
      "start": 7.8541,
      "duration": 0.0161,
      "velocity": 115,
      "chip": "ym2612"
    },
    {
      "channel": 4,
      "note": 68,
      "start": 7.8553,
      "duration": 0.0161,
      "velocity": 120,
      "chip": "ym2612"
    },
    {
      "channel": 3,
      "note": 63,
      "start": 7.8592,
      "duration": 0.0134,
      "velocity": 120,
      "chip": "ym2612"
    },
    {
      "channel": 2,
      "note": 56,
      "start": 7.8604,
      "duration": 0.0157,
      "velocity": 100,
      "chip": "ym2612"
    },
    {
      "channel": 1,
      "note": 44,
      "start": 7.8614,
      "duration": 0.0158,
      "velocity": 100,
      "chip": "ym2612"
    },
    {
      "channel": 0,
      "note": 39,
      "start": 7.8703,
      "duration": 0.0161,
      "velocity": 115,
      "chip": "ym2612"
    },
    {
      "channel": 4,
      "note": 68,
      "start": 7.8714,
      "duration": 0.0161,
      "velocity": 120,
      "chip": "ym2612"
    },
    {
      "channel": 3,
      "note": 63,
      "start": 7.8726,
      "duration": 0.0161,
      "velocity": 120,
      "chip": "ym2612"
    },
    {
      "channel": 2,
      "note": 56,
      "start": 7.8761,
      "duration": 0.0141,
      "velocity": 100,
      "chip": "ym2612"
    },
    {
      "channel": 1,
      "note": 44,
      "start": 7.8772,
      "duration": 0.0141,
      "velocity": 100,
      "chip": "ym2612"
    },
    {
      "channel": 0,
      "note": 39,
      "start": 7.8864,
      "duration": 0.0161,
      "velocity": 115,
      "chip": "ym2612"
    },
    {
      "channel": 4,
      "note": 68,
      "start": 7.8875,
      "duration": 0.0161,
      "velocity": 120,
      "chip": "ym2612"
    },
    {
      "channel": 3,
      "note": 63,
      "start": 7.8887,
      "duration": 0.0161,
      "velocity": 120,
      "chip": "ym2612"
    },
    {
      "channel": 0,
      "note": 40,
      "start": 7.9025,
      "duration": 0.0161,
      "velocity": 115,
      "chip": "ym2612"
    },
    {
      "channel": 4,
      "note": 68,
      "start": 7.9036,
      "duration": 0.0161,
      "velocity": 120,
      "chip": "ym2612"
    },
    {
      "channel": 3,
      "note": 63,
      "start": 7.9048,
      "duration": 0.0161,
      "velocity": 120,
      "chip": "ym2612"
    },
    {
      "channel": 0,
      "note": 40,
      "start": 7.9186,
      "duration": 0.0161,
      "velocity": 115,
      "chip": "ym2612"
    },
    {
      "channel": 4,
      "note": 68,
      "start": 7.9197,
      "duration": 0.0161,
      "velocity": 120,
      "chip": "ym2612"
    },
    {
      "channel": 3,
      "note": 63,
      "start": 7.9209,
      "duration": 0.0161,
      "velocity": 120,
      "chip": "ym2612"
    },
    {
      "channel": 0,
      "note": 40,
      "start": 7.9346,
      "duration": 0.0161,
      "velocity": 115,
      "chip": "ym2612"
    },
    {
      "channel": 4,
      "note": 68,
      "start": 7.9358,
      "duration": 0.0161,
      "velocity": 120,
      "chip": "ym2612"
    },
    {
      "channel": 3,
      "note": 63,
      "start": 7.9369,
      "duration": 0.0161,
      "velocity": 120,
      "chip": "ym2612"
    },
    {
      "channel": 0,
      "note": 41,
      "start": 7.9507,
      "duration": 0.0161,
      "velocity": 115,
      "chip": "ym2612"
    },
    {
      "channel": 4,
      "note": 68,
      "start": 7.9519,
      "duration": 0.0161,
      "velocity": 120,
      "chip": "ym2612"
    },
    {
      "channel": 3,
      "note": 63,
      "start": 7.953,
      "duration": 0.0161,
      "velocity": 120,
      "chip": "ym2612"
    },
    {
      "channel": 0,
      "note": 41,
      "start": 7.9668,
      "duration": 0.0161,
      "velocity": 115,
      "chip": "ym2612"
    },
    {
      "channel": 4,
      "note": 68,
      "start": 7.968,
      "duration": 0.0162,
      "velocity": 120,
      "chip": "ym2612"
    },
    {
      "channel": 3,
      "note": 63,
      "start": 7.9691,
      "duration": 0.0161,
      "velocity": 120,
      "chip": "ym2612"
    },
    {
      "channel": 2,
      "note": 56,
      "start": 7.9706,
      "duration": 0.0159,
      "velocity": 100,
      "chip": "ym2612"
    },
    {
      "channel": 1,
      "note": 44,
      "start": 7.9721,
      "duration": 0.0156,
      "velocity": 100,
      "chip": "ym2612"
    },
    {
      "channel": 0,
      "note": 42,
      "start": 7.9829,
      "duration": 0.0161,
      "velocity": 115,
      "chip": "ym2612"
    },
    {
      "channel": 4,
      "note": 68,
      "start": 7.9841,
      "duration": 0.0161,
      "velocity": 120,
      "chip": "ym2612"
    },
    {
      "channel": 3,
      "note": 63,
      "start": 7.9852,
      "duration": 0.0161,
      "velocity": 120,
      "chip": "ym2612"
    },
    {
      "channel": 2,
      "note": 56,
      "start": 7.9864,
      "duration": 0.016,
      "velocity": 100,
      "chip": "ym2612"
    },
    {
      "channel": 1,
      "note": 44,
      "start": 7.9876,
      "duration": 0.016,
      "velocity": 100,
      "chip": "ym2612"
    },
    {
      "channel": 0,
      "note": 42,
      "start": 7.9991,
      "duration": 0.0161,
      "velocity": 115,
      "chip": "ym2612"
    },
    {
      "channel": 4,
      "note": 68,
      "start": 8.0002,
      "duration": 0.0161,
      "velocity": 120,
      "chip": "ym2612"
    },
    {
      "channel": 3,
      "note": 63,
      "start": 8.0014,
      "duration": 0.0161,
      "velocity": 120,
      "chip": "ym2612"
    },
    {
      "channel": 2,
      "note": 56,
      "start": 8.0025,
      "duration": 0.0161,
      "velocity": 100,
      "chip": "ym2612"
    },
    {
      "channel": 1,
      "note": 44,
      "start": 8.0036,
      "duration": 0.0161,
      "velocity": 100,
      "chip": "ym2612"
    },
    {
      "channel": 0,
      "note": 43,
      "start": 8.0152,
      "duration": 0.0161,
      "velocity": 115,
      "chip": "ym2612"
    },
    {
      "channel": 4,
      "note": 68,
      "start": 8.0163,
      "duration": 0.0161,
      "velocity": 120,
      "chip": "ym2612"
    },
    {
      "channel": 3,
      "note": 63,
      "start": 8.0175,
      "duration": 0.0161,
      "velocity": 120,
      "chip": "ym2612"
    },
    {
      "channel": 2,
      "note": 56,
      "start": 8.0186,
      "duration": 0.0161,
      "velocity": 100,
      "chip": "ym2612"
    },
    {
      "channel": 1,
      "note": 44,
      "start": 8.0197,
      "duration": 0.0161,
      "velocity": 100,
      "chip": "ym2612"
    },
    {
      "channel": 0,
      "note": 43,
      "start": 8.0313,
      "duration": 0.0161,
      "velocity": 115,
      "chip": "ym2612"
    },
    {
      "channel": 4,
      "note": 68,
      "start": 8.0324,
      "duration": 0.0161,
      "velocity": 120,
      "chip": "ym2612"
    },
    {
      "channel": 3,
      "note": 63,
      "start": 8.0336,
      "duration": 0.0161,
      "velocity": 120,
      "chip": "ym2612"
    },
    {
      "channel": 2,
      "note": 56,
      "start": 8.0346,
      "duration": 0.0162,
      "velocity": 100,
      "chip": "ym2612"
    },
    {
      "channel": 1,
      "note": 44,
      "start": 8.0358,
      "duration": 0.0161,
      "velocity": 100,
      "chip": "ym2612"
    },
    {
      "channel": 0,
      "note": 44,
      "start": 8.0474,
      "duration": 0.0161,
      "velocity": 115,
      "chip": "ym2612"
    },
    {
      "channel": 4,
      "note": 68,
      "start": 8.0485,
      "duration": 0.0161,
      "velocity": 120,
      "chip": "ym2612"
    },
    {
      "channel": 3,
      "note": 63,
      "start": 8.0497,
      "duration": 0.0161,
      "velocity": 120,
      "chip": "ym2612"
    },
    {
      "channel": 2,
      "note": 56,
      "start": 8.0508,
      "duration": 0.0161,
      "velocity": 100,
      "chip": "ym2612"
    },
    {
      "channel": 1,
      "note": 44,
      "start": 8.0519,
      "duration": 0.0161,
      "velocity": 100,
      "chip": "ym2612"
    },
    {
      "channel": 0,
      "note": 44,
      "start": 8.0635,
      "duration": 0.0161,
      "velocity": 115,
      "chip": "ym2612"
    },
    {
      "channel": 4,
      "note": 68,
      "start": 8.0646,
      "duration": 0.0161,
      "velocity": 120,
      "chip": "ym2612"
    },
    {
      "channel": 3,
      "note": 63,
      "start": 8.0658,
      "duration": 0.0161,
      "velocity": 120,
      "chip": "ym2612"
    },
    {
      "channel": 2,
      "note": 56,
      "start": 8.0669,
      "duration": 0.0161,
      "velocity": 100,
      "chip": "ym2612"
    },
    {
      "channel": 1,
      "note": 44,
      "start": 8.068,
      "duration": 0.0162,
      "velocity": 100,
      "chip": "ym2612"
    },
    {
      "channel": 0,
      "note": 44,
      "start": 8.0796,
      "duration": 0.0161,
      "velocity": 115,
      "chip": "ym2612"
    },
    {
      "channel": 4,
      "note": 68,
      "start": 8.0807,
      "duration": 0.0161,
      "velocity": 120,
      "chip": "ym2612"
    },
    {
      "channel": 3,
      "note": 63,
      "start": 8.0819,
      "duration": 0.0161,
      "velocity": 120,
      "chip": "ym2612"
    },
    {
      "channel": 0,
      "note": 45,
      "start": 8.0957,
      "duration": 0.0161,
      "velocity": 115,
      "chip": "ym2612"
    },
    {
      "channel": 4,
      "note": 68,
      "start": 8.0968,
      "duration": 0.0161,
      "velocity": 120,
      "chip": "ym2612"
    },
    {
      "channel": 3,
      "note": 63,
      "start": 8.098,
      "duration": 0.0161,
      "velocity": 120,
      "chip": "ym2612"
    },
    {
      "channel": 0,
      "note": 45,
      "start": 8.1118,
      "duration": 0.0161,
      "velocity": 115,
      "chip": "ym2612"
    },
    {
      "channel": 4,
      "note": 68,
      "start": 8.1129,
      "duration": 0.0161,
      "velocity": 120,
      "chip": "ym2612"
    },
    {
      "channel": 3,
      "note": 63,
      "start": 8.1141,
      "duration": 0.0161,
      "velocity": 120,
      "chip": "ym2612"
    },
    {
      "channel": 0,
      "note": 46,
      "start": 8.1278,
      "duration": 0.0162,
      "velocity": 115,
      "chip": "ym2612"
    },
    {
      "channel": 4,
      "note": 68,
      "start": 8.129,
      "duration": 0.0161,
      "velocity": 120,
      "chip": "ym2612"
    },
    {
      "channel": 3,
      "note": 63,
      "start": 8.1301,
      "duration": 0.0162,
      "velocity": 120,
      "chip": "ym2612"
    },
    {
      "channel": 0,
      "note": 46,
      "start": 8.144,
      "duration": 0.0195,
      "velocity": 115,
      "chip": "ym2612"
    },
    {
      "channel": 4,
      "note": 68,
      "start": 8.1451,
      "duration": 0.0195,
      "velocity": 120,
      "chip": "ym2612"
    },
    {
      "channel": 3,
      "note": 63,
      "start": 8.1463,
      "duration": 0.0195,
      "velocity": 120,
      "chip": "ym2612"
    },
    {
      "channel": 1,
      "note": 78,
      "start": 8.1618,
      "duration": 0.0155,
      "velocity": 124,
      "chip": "ym2612"
    },
    {
      "channel": 0,
      "note": 47,
      "start": 8.1635,
      "duration": 0.0155,
      "velocity": 115,
      "chip": "ym2612"
    },
    {
      "channel": 4,
      "note": 68,
      "start": 8.1647,
      "duration": 0.0154,
      "velocity": 120,
      "chip": "ym2612"
    },
    {
      "channel": 3,
      "note": 63,
      "start": 8.1658,
      "duration": 0.0155,
      "velocity": 120,
      "chip": "ym2612"
    },
    {
      "channel": 2,
      "note": 56,
      "start": 8.1673,
      "duration": 0.0152,
      "velocity": 100,
      "chip": "ym2612"
    },
    {
      "channel": 1,
      "note": 76,
      "start": 8.1773,
      "duration": 0.0166,
      "velocity": 124,
      "chip": "ym2612"
    },
    {
      "channel": 0,
      "note": 47,
      "start": 8.179,
      "duration": 0.0167,
      "velocity": 115,
      "chip": "ym2612"
    },
    {
      "channel": 4,
      "note": 68,
      "start": 8.1801,
      "duration": 0.0167,
      "velocity": 120,
      "chip": "ym2612"
    },
    {
      "channel": 3,
      "note": 63,
      "start": 8.1813,
      "duration": 0.0167,
      "velocity": 120,
      "chip": "ym2612"
    },
    {
      "channel": 2,
      "note": 56,
      "start": 8.1825,
      "duration": 0.0165,
      "velocity": 100,
      "chip": "ym2612"
    },
    {
      "channel": 1,
      "note": 75,
      "start": 8.1939,
      "duration": 0.0163,
      "velocity": 124,
      "chip": "ym2612"
    },
    {
      "channel": 0,
      "note": 47,
      "start": 8.1957,
      "duration": 0.0163,
      "velocity": 115,
      "chip": "ym2612"
    },
    {
      "channel": 4,
      "note": 68,
      "start": 8.1968,
      "duration": 0.0163,
      "velocity": 120,
      "chip": "ym2612"
    },
    {
      "channel": 3,
      "note": 63,
      "start": 8.198,
      "duration": 0.0163,
      "velocity": 120,
      "chip": "ym2612"
    },
    {
      "channel": 2,
      "note": 56,
      "start": 8.199,
      "duration": 0.0163,
      "velocity": 100,
      "chip": "ym2612"
    },
    {
      "channel": 1,
      "note": 74,
      "start": 8.2102,
      "duration": 0.0145,
      "velocity": 124,
      "chip": "ym2612"
    },
    {
      "channel": 0,
      "note": 48,
      "start": 8.212,
      "duration": 0.0145,
      "velocity": 115,
      "chip": "ym2612"
    },
    {
      "channel": 4,
      "note": 68,
      "start": 8.2131,
      "duration": 0.0145,
      "velocity": 120,
      "chip": "ym2612"
    },
    {
      "channel": 3,
      "note": 63,
      "start": 8.2142,
      "duration": 0.0145,
      "velocity": 120,
      "chip": "ym2612"
    },
    {
      "channel": 2,
      "note": 56,
      "start": 8.2154,
      "duration": 0.0145,
      "velocity": 100,
      "chip": "ym2612"
    },
    {
      "channel": 1,
      "note": 72,
      "start": 8.2247,
      "duration": 0.0185,
      "velocity": 124,
      "chip": "ym2612"
    },
    {
      "channel": 0,
      "note": 48,
      "start": 8.2265,
      "duration": 0.0185,
      "velocity": 115,
      "chip": "ym2612"
    },
    {
      "channel": 4,
      "note": 68,
      "start": 8.2276,
      "duration": 0.0185,
      "velocity": 120,
      "chip": "ym2612"
    },
    {
      "channel": 3,
      "note": 63,
      "start": 8.2288,
      "duration": 0.0185,
      "velocity": 120,
      "chip": "ym2612"
    },
    {
      "channel": 2,
      "note": 56,
      "start": 8.2299,
      "duration": 0.0185,
      "velocity": 100,
      "chip": "ym2612"
    },
    {
      "channel": 1,
      "note": 71,
      "start": 8.2432,
      "duration": 0.0161,
      "velocity": 124,
      "chip": "ym2612"
    },
    {
      "channel": 0,
      "note": 49,
      "start": 8.245,
      "duration": 0.0153,
      "velocity": 1,
      "chip": "ym2612"
    },
    {
      "channel": 4,
      "note": 68,
      "start": 8.2461,
      "duration": 0.0153,
      "velocity": 120,
      "chip": "ym2612"
    },
    {
      "channel": 3,
      "note": 63,
      "start": 8.2473,
      "duration": 0.0153,
      "velocity": 120,
      "chip": "ym2612"
    },
    {
      "channel": 2,
      "note": 56,
      "start": 8.2484,
      "duration": 0.0153,
      "velocity": 100,
      "chip": "ym2612"
    },
    {
      "channel": 1,
      "note": 70,
      "start": 8.2593,
      "duration": 0.0158,
      "velocity": 124,
      "chip": "ym2612"
    },
    {
      "channel": 4,
      "note": 68,
      "start": 8.2614,
      "duration": 0.0149,
      "velocity": 120,
      "chip": "ym2612"
    },
    {
      "channel": 3,
      "note": 63,
      "start": 8.2626,
      "duration": 0.0149,
      "velocity": 120,
      "chip": "ym2612"
    },
    {
      "channel": 2,
      "note": 56,
      "start": 8.2637,
      "duration": 0.0149,
      "velocity": 100,
      "chip": "ym2612"
    },
    {
      "channel": 1,
      "note": 69,
      "start": 8.2751,
      "duration": 0.0137,
      "velocity": 124,
      "chip": "ym2612"
    },
    {
      "channel": 4,
      "note": 68,
      "start": 8.2763,
      "duration": 0.0141,
      "velocity": 120,
      "chip": "ym2612"
    },
    {
      "channel": 3,
      "note": 63,
      "start": 8.2775,
      "duration": 0.0141,
      "velocity": 120,
      "chip": "ym2612"
    },
    {
      "channel": 1,
      "note": 68,
      "start": 8.2888,
      "duration": 0.0161,
      "velocity": 124,
      "chip": "ym2612"
    },
    {
      "channel": 4,
      "note": 68,
      "start": 8.2904,
      "duration": 0.0185,
      "velocity": 120,
      "chip": "ym2612"
    },
    {
      "channel": 3,
      "note": 63,
      "start": 8.2915,
      "duration": 0.0185,
      "velocity": 120,
      "chip": "ym2612"
    },
    {
      "channel": 1,
      "note": 66,
      "start": 8.3049,
      "duration": 0.0161,
      "velocity": 124,
      "chip": "ym2612"
    },
    {
      "channel": 4,
      "note": 68,
      "start": 8.3089,
      "duration": 0.0134,
      "velocity": 120,
      "chip": "ym2612"
    },
    {
      "channel": 3,
      "note": 63,
      "start": 8.31,
      "duration": 0.0161,
      "velocity": 120,
      "chip": "ym2612"
    },
    {
      "channel": 1,
      "note": 65,
      "start": 8.321,
      "duration": 0.0162,
      "velocity": 124,
      "chip": "ym2612"
    },
    {
      "channel": 4,
      "note": 68,
      "start": 8.3222,
      "duration": 0.0161,
      "velocity": 120,
      "chip": "ym2612"
    },
    {
      "channel": 3,
      "note": 63,
      "start": 8.3261,
      "duration": 0.0157,
      "velocity": 120,
      "chip": "ym2612"
    },
    {
      "channel": 1,
      "note": 64,
      "start": 8.3371,
      "duration": 0.0161,
      "velocity": 124,
      "chip": "ym2612"
    },
    {
      "channel": 4,
      "note": 68,
      "start": 8.3383,
      "duration": 0.0161,
      "velocity": 120,
      "chip": "ym2612"
    },
    {
      "channel": 3,
      "note": 63,
      "start": 8.3418,
      "duration": 0.0137,
      "velocity": 120,
      "chip": "ym2612"
    },
    {
      "channel": 1,
      "note": 62,
      "start": 8.3532,
      "duration": 0.0161,
      "velocity": 124,
      "chip": "ym2612"
    },
    {
      "channel": 4,
      "note": 68,
      "start": 8.3544,
      "duration": 0.0161,
      "velocity": 120,
      "chip": "ym2612"
    },
    {
      "channel": 3,
      "note": 63,
      "start": 8.3556,
      "duration": 0.0161,
      "velocity": 120,
      "chip": "ym2612"
    },
    {
      "channel": 2,
      "note": 56,
      "start": 8.3574,
      "duration": 0.0183,
      "velocity": 100,
      "chip": "ym2612"
    },
    {
      "channel": 1,
      "note": 61,
      "start": 8.3693,
      "duration": 0.0161,
      "velocity": 124,
      "chip": "ym2612"
    },
    {
      "channel": 4,
      "note": 68,
      "start": 8.3705,
      "duration": 0.0161,
      "velocity": 120,
      "chip": "ym2612"
    },
    {
      "channel": 3,
      "note": 63,
      "start": 8.3717,
      "duration": 0.0161,
      "velocity": 120,
      "chip": "ym2612"
    },
    {
      "channel": 2,
      "note": 56,
      "start": 8.3756,
      "duration": 0.0133,
      "velocity": 100,
      "chip": "ym2612"
    },
    {
      "channel": 1,
      "note": 60,
      "start": 8.3854,
      "duration": 0.0161,
      "velocity": 124,
      "chip": "ym2612"
    },
    {
      "channel": 4,
      "note": 68,
      "start": 8.3866,
      "duration": 0.0161,
      "velocity": 120,
      "chip": "ym2612"
    },
    {
      "channel": 3,
      "note": 63,
      "start": 8.3878,
      "duration": 0.0161,
      "velocity": 120,
      "chip": "ym2612"
    },
    {
      "channel": 2,
      "note": 56,
      "start": 8.3889,
      "duration": 0.0161,
      "velocity": 100,
      "chip": "ym2612"
    },
    {
      "channel": 1,
      "note": 59,
      "start": 8.4015,
      "duration": 0.0161,
      "velocity": 124,
      "chip": "ym2612"
    },
    {
      "channel": 4,
      "note": 68,
      "start": 8.4027,
      "duration": 0.0161,
      "velocity": 120,
      "chip": "ym2612"
    },
    {
      "channel": 3,
      "note": 63,
      "start": 8.4039,
      "duration": 0.0161,
      "velocity": 120,
      "chip": "ym2612"
    },
    {
      "channel": 2,
      "note": 56,
      "start": 8.405,
      "duration": 0.0161,
      "velocity": 100,
      "chip": "ym2612"
    },
    {
      "channel": 1,
      "note": 57,
      "start": 8.4176,
      "duration": 0.0161,
      "velocity": 124,
      "chip": "ym2612"
    },
    {
      "channel": 4,
      "note": 68,
      "start": 8.4188,
      "duration": 0.0161,
      "velocity": 120,
      "chip": "ym2612"
    },
    {
      "channel": 3,
      "note": 63,
      "start": 8.42,
      "duration": 0.0161,
      "velocity": 120,
      "chip": "ym2612"
    },
    {
      "channel": 2,
      "note": 56,
      "start": 8.4211,
      "duration": 0.0161,
      "velocity": 100,
      "chip": "ym2612"
    },
    {
      "channel": 1,
      "note": 56,
      "start": 8.4337,
      "duration": 0.0161,
      "velocity": 124,
      "chip": "ym2612"
    },
    {
      "channel": 4,
      "note": 68,
      "start": 8.435,
      "duration": 0.0161,
      "velocity": 120,
      "chip": "ym2612"
    },
    {
      "channel": 3,
      "note": 63,
      "start": 8.4361,
      "duration": 0.0162,
      "velocity": 120,
      "chip": "ym2612"
    },
    {
      "channel": 2,
      "note": 56,
      "start": 8.4372,
      "duration": 0.0161,
      "velocity": 100,
      "chip": "ym2612"
    },
    {
      "channel": 1,
      "note": 55,
      "start": 8.4498,
      "duration": 0.0161,
      "velocity": 124,
      "chip": "ym2612"
    },
    {
      "channel": 4,
      "note": 68,
      "start": 8.4511,
      "duration": 0.0161,
      "velocity": 120,
      "chip": "ym2612"
    },
    {
      "channel": 3,
      "note": 63,
      "start": 8.4522,
      "duration": 0.0161,
      "velocity": 120,
      "chip": "ym2612"
    },
    {
      "channel": 2,
      "note": 56,
      "start": 8.4533,
      "duration": 0.0162,
      "velocity": 100,
      "chip": "ym2612"
    },
    {
      "channel": 1,
      "note": 53,
      "start": 8.4659,
      "duration": 0.0161,
      "velocity": 124,
      "chip": "ym2612"
    },
    {
      "channel": 4,
      "note": 68,
      "start": 8.4672,
      "duration": 0.0161,
      "velocity": 120,
      "chip": "ym2612"
    },
    {
      "channel": 3,
      "note": 63,
      "start": 8.4683,
      "duration": 0.0161,
      "velocity": 120,
      "chip": "ym2612"
    },
    {
      "channel": 1,
      "note": 52,
      "start": 8.482,
      "duration": 0.0161,
      "velocity": 124,
      "chip": "ym2612"
    },
    {
      "channel": 4,
      "note": 68,
      "start": 8.4833,
      "duration": 0.0161,
      "velocity": 120,
      "chip": "ym2612"
    },
    {
      "channel": 3,
      "note": 63,
      "start": 8.4844,
      "duration": 0.0161,
      "velocity": 120,
      "chip": "ym2612"
    },
    {
      "channel": 1,
      "note": 51,
      "start": 8.4981,
      "duration": 0.0153,
      "velocity": 1,
      "chip": "ym2612"
    },
    {
      "channel": 4,
      "note": 68,
      "start": 8.4993,
      "duration": 0.0153,
      "velocity": 120,
      "chip": "ym2612"
    },
    {
      "channel": 3,
      "note": 63,
      "start": 8.5005,
      "duration": 0.0153,
      "velocity": 120,
      "chip": "ym2612"
    },
    {
      "channel": 4,
      "note": 68,
      "start": 8.5146,
      "duration": 0.0153,
      "velocity": 120,
      "chip": "ym2612"
    },
    {
      "channel": 3,
      "note": 63,
      "start": 8.5158,
      "duration": 0.0153,
      "velocity": 120,
      "chip": "ym2612"
    },
    {
      "channel": 4,
      "note": 68,
      "start": 8.5299,
      "duration": 0.0195,
      "velocity": 120,
      "chip": "ym2612"
    },
    {
      "channel": 3,
      "note": 63,
      "start": 8.531,
      "duration": 0.0195,
      "velocity": 120,
      "chip": "ym2612"
    },
    {
      "channel": 0,
      "note": 36,
      "start": 8.5483,
      "duration": 0.0144,
      "velocity": 115,
      "chip": "ym2612"
    },
    {
      "channel": 4,
      "note": 68,
      "start": 8.5494,
      "duration": 0.0144,
      "velocity": 120,
      "chip": "ym2612"
    },
    {
      "channel": 3,
      "note": 63,
      "start": 8.5506,
      "duration": 0.0144,
      "velocity": 120,
      "chip": "ym2612"
    },
    {
      "channel": 2,
      "note": 56,
      "start": 8.552,
      "duration": 0.0141,
      "velocity": 100,
      "chip": "ym2612"
    },
    {
      "channel": 1,
      "note": 44,
      "start": 8.5535,
      "duration": 0.0139,
      "velocity": 100,
      "chip": "ym2612"
    },
    {
      "channel": 0,
      "note": 36,
      "start": 8.5627,
      "duration": 0.016,
      "velocity": 115,
      "chip": "ym2612"
    },
    {
      "channel": 4,
      "note": 68,
      "start": 8.5638,
      "duration": 0.016,
      "velocity": 120,
      "chip": "ym2612"
    },
    {
      "channel": 3,
      "note": 63,
      "start": 8.5649,
      "duration": 0.016,
      "velocity": 120,
      "chip": "ym2612"
    },
    {
      "channel": 2,
      "note": 56,
      "start": 8.5661,
      "duration": 0.016,
      "velocity": 100,
      "chip": "ym2612"
    },
    {
      "channel": 1,
      "note": 44,
      "start": 8.5673,
      "duration": 0.0159,
      "velocity": 100,
      "chip": "ym2612"
    },
    {
      "channel": 0,
      "note": 37,
      "start": 8.5787,
      "duration": 0.0161,
      "velocity": 115,
      "chip": "ym2612"
    },
    {
      "channel": 4,
      "note": 68,
      "start": 8.5798,
      "duration": 0.0162,
      "velocity": 120,
      "chip": "ym2612"
    },
    {
      "channel": 3,
      "note": 63,
      "start": 8.581,
      "duration": 0.0161,
      "velocity": 120,
      "chip": "ym2612"
    },
    {
      "channel": 2,
      "note": 56,
      "start": 8.5821,
      "duration": 0.0161,
      "velocity": 100,
      "chip": "ym2612"
    },
    {
      "channel": 1,
      "note": 44,
      "start": 8.5833,
      "duration": 0.0161,
      "velocity": 100,
      "chip": "ym2612"
    },
    {
      "channel": 0,
      "note": 37,
      "start": 8.5948,
      "duration": 0.0161,
      "velocity": 115,
      "chip": "ym2612"
    },
    {
      "channel": 4,
      "note": 68,
      "start": 8.596,
      "duration": 0.0161,
      "velocity": 120,
      "chip": "ym2612"
    },
    {
      "channel": 3,
      "note": 63,
      "start": 8.5971,
      "duration": 0.0161,
      "velocity": 120,
      "chip": "ym2612"
    },
    {
      "channel": 2,
      "note": 56,
      "start": 8.5982,
      "duration": 0.0161,
      "velocity": 100,
      "chip": "ym2612"
    },
    {
      "channel": 1,
      "note": 44,
      "start": 8.5993,
      "duration": 0.0161,
      "velocity": 100,
      "chip": "ym2612"
    },
    {
      "channel": 0,
      "note": 38,
      "start": 8.6109,
      "duration": 0.0161,
      "velocity": 115,
      "chip": "ym2612"
    },
    {
      "channel": 4,
      "note": 68,
      "start": 8.6121,
      "duration": 0.0161,
      "velocity": 120,
      "chip": "ym2612"
    },
    {
      "channel": 3,
      "note": 63,
      "start": 8.6132,
      "duration": 0.0161,
      "velocity": 120,
      "chip": "ym2612"
    },
    {
      "channel": 2,
      "note": 56,
      "start": 8.6143,
      "duration": 0.0161,
      "velocity": 100,
      "chip": "ym2612"
    },
    {
      "channel": 1,
      "note": 44,
      "start": 8.6154,
      "duration": 0.0161,
      "velocity": 100,
      "chip": "ym2612"
    },
    {
      "channel": 0,
      "note": 38,
      "start": 8.627,
      "duration": 0.017,
      "velocity": 115,
      "chip": "ym2612"
    },
    {
      "channel": 4,
      "note": 68,
      "start": 8.6282,
      "duration": 0.017,
      "velocity": 120,
      "chip": "ym2612"
    },
    {
      "channel": 3,
      "note": 63,
      "start": 8.6293,
      "duration": 0.017,
      "velocity": 120,
      "chip": "ym2612"
    },
    {
      "channel": 2,
      "note": 56,
      "start": 8.6304,
      "duration": 0.017,
      "velocity": 100,
      "chip": "ym2612"
    },
    {
      "channel": 1,
      "note": 44,
      "start": 8.6315,
      "duration": 0.017,
      "velocity": 100,
      "chip": "ym2612"
    },
    {
      "channel": 0,
      "note": 39,
      "start": 8.644,
      "duration": 0.0167,
      "velocity": 115,
      "chip": "ym2612"
    },
    {
      "channel": 4,
      "note": 68,
      "start": 8.6451,
      "duration": 0.0167,
      "velocity": 120,
      "chip": "ym2612"
    },
    {
      "channel": 3,
      "note": 63,
      "start": 8.6463,
      "duration": 0.0167,
      "velocity": 120,
      "chip": "ym2612"
    },
    {
      "channel": 2,
      "note": 56,
      "start": 8.6474,
      "duration": 0.0167,
      "velocity": 100,
      "chip": "ym2612"
    },
    {
      "channel": 1,
      "note": 44,
      "start": 8.6485,
      "duration": 0.0167,
      "velocity": 100,
      "chip": "ym2612"
    },
    {
      "channel": 0,
      "note": 39,
      "start": 8.6607,
      "duration": 0.0163,
      "velocity": 115,
      "chip": "ym2612"
    },
    {
      "channel": 4,
      "note": 68,
      "start": 8.6618,
      "duration": 0.0163,
      "velocity": 120,
      "chip": "ym2612"
    },
    {
      "channel": 3,
      "note": 63,
      "start": 8.663,
      "duration": 0.0163,
      "velocity": 120,
      "chip": "ym2612"
    },
    {
      "channel": 0,
      "note": 40,
      "start": 8.677,
      "duration": 0.0146,
      "velocity": 115,
      "chip": "ym2612"
    },
    {
      "channel": 4,
      "note": 68,
      "start": 8.6781,
      "duration": 0.0146,
      "velocity": 120,
      "chip": "ym2612"
    },
    {
      "channel": 3,
      "note": 63,
      "start": 8.6793,
      "duration": 0.0146,
      "velocity": 120,
      "chip": "ym2612"
    },
    {
      "channel": 0,
      "note": 40,
      "start": 8.6916,
      "duration": 0.0186,
      "velocity": 115,
      "chip": "ym2612"
    },
    {
      "channel": 4,
      "note": 68,
      "start": 8.6927,
      "duration": 0.0187,
      "velocity": 120,
      "chip": "ym2612"
    },
    {
      "channel": 3,
      "note": 63,
      "start": 8.6939,
      "duration": 0.0186,
      "velocity": 120,
      "chip": "ym2612"
    },
    {
      "channel": 0,
      "note": 40,
      "start": 8.7102,
      "duration": 0.0162,
      "velocity": 115,
      "chip": "ym2612"
    },
    {
      "channel": 4,
      "note": 68,
      "start": 8.7114,
      "duration": 0.0161,
      "velocity": 120,
      "chip": "ym2612"
    },
    {
      "channel": 3,
      "note": 63,
      "start": 8.7125,
      "duration": 0.0162,
      "velocity": 120,
      "chip": "ym2612"
    },
    {
      "channel": 0,
      "note": 41,
      "start": 8.7264,
      "duration": 0.0175,
      "velocity": 115,
      "chip": "ym2612"
    },
    {
      "channel": 4,
      "note": 68,
      "start": 8.7275,
      "duration": 0.0176,
      "velocity": 120,
      "chip": "ym2612"
    },
    {
      "channel": 3,
      "note": 63,
      "start": 8.7287,
      "duration": 0.0175,
      "velocity": 120,
      "chip": "ym2612"
    },
    {
      "channel": 0,
      "note": 36,
      "start": 8.7439,
      "duration": 0.012,
      "velocity": 115,
      "chip": "ym2612"
    },
    {
      "channel": 4,
      "note": 68,
      "start": 8.7451,
      "duration": 0.0123,
      "velocity": 120,
      "chip": "ym2612"
    },
    {
      "channel": 3,
      "note": 63,
      "start": 8.7462,
      "duration": 0.0123,
      "velocity": 120,
      "chip": "ym2612"
    },
    {
      "channel": 2,
      "note": 56,
      "start": 8.7476,
      "duration": 0.012,
      "velocity": 100,
      "chip": "ym2612"
    },
    {
      "channel": 1,
      "note": 44,
      "start": 8.7491,
      "duration": 0.0118,
      "velocity": 100,
      "chip": "ym2612"
    },
    {
      "channel": 0,
      "note": 36,
      "start": 8.7559,
      "duration": 0.016,
      "velocity": 115,
      "chip": "ym2612"
    },
    {
      "channel": 4,
      "note": 68,
      "start": 8.7574,
      "duration": 0.0184,
      "velocity": 120,
      "chip": "ym2612"
    },
    {
      "channel": 3,
      "note": 63,
      "start": 8.7585,
      "duration": 0.0185,
      "velocity": 120,
      "chip": "ym2612"
    },
    {
      "channel": 2,
      "note": 56,
      "start": 8.7597,
      "duration": 0.0184,
      "velocity": 100,
      "chip": "ym2612"
    },
    {
      "channel": 1,
      "note": 44,
      "start": 8.7609,
      "duration": 0.0183,
      "velocity": 100,
      "chip": "ym2612"
    },
    {
      "channel": 0,
      "note": 37,
      "start": 8.7719,
      "duration": 0.0161,
      "velocity": 115,
      "chip": "ym2612"
    },
    {
      "channel": 4,
      "note": 68,
      "start": 8.7758,
      "duration": 0.0134,
      "velocity": 120,
      "chip": "ym2612"
    },
    {
      "channel": 3,
      "note": 63,
      "start": 8.777,
      "duration": 0.0161,
      "velocity": 120,
      "chip": "ym2612"
    },
    {
      "channel": 2,
      "note": 56,
      "start": 8.7781,
      "duration": 0.0161,
      "velocity": 100,
      "chip": "ym2612"
    },
    {
      "channel": 1,
      "note": 44,
      "start": 8.7792,
      "duration": 0.0162,
      "velocity": 100,
      "chip": "ym2612"
    },
    {
      "channel": 0,
      "note": 37,
      "start": 8.788,
      "duration": 0.0161,
      "velocity": 115,
      "chip": "ym2612"
    },
    {
      "channel": 4,
      "note": 68,
      "start": 8.7892,
      "duration": 0.0161,
      "velocity": 120,
      "chip": "ym2612"
    },
    {
      "channel": 3,
      "note": 63,
      "start": 8.7931,
      "duration": 0.0158,
      "velocity": 120,
      "chip": "ym2612"
    },
    {
      "channel": 2,
      "note": 56,
      "start": 8.7942,
      "duration": 0.0157,
      "velocity": 100,
      "chip": "ym2612"
    },
    {
      "channel": 1,
      "note": 44,
      "start": 8.7954,
      "duration": 0.0157,
      "velocity": 100,
      "chip": "ym2612"
    },
    {
      "channel": 0,
      "note": 38,
      "start": 8.8041,
      "duration": 0.0161,
      "velocity": 115,
      "chip": "ym2612"
    },
    {
      "channel": 4,
      "note": 68,
      "start": 8.8053,
      "duration": 0.0161,
      "velocity": 120,
      "chip": "ym2612"
    },
    {
      "channel": 3,
      "note": 63,
      "start": 8.8088,
      "duration": 0.0137,
      "velocity": 120,
      "chip": "ym2612"
    },
    {
      "channel": 2,
      "note": 56,
      "start": 8.8099,
      "duration": 0.0141,
      "velocity": 100,
      "chip": "ym2612"
    },
    {
      "channel": 1,
      "note": 44,
      "start": 8.8111,
      "duration": 0.014,
      "velocity": 100,
      "chip": "ym2612"
    },
    {
      "channel": 0,
      "note": 38,
      "start": 8.8202,
      "duration": 0.0161,
      "velocity": 115,
      "chip": "ym2612"
    },
    {
      "channel": 4,
      "note": 68,
      "start": 8.8214,
      "duration": 0.0161,
      "velocity": 120,
      "chip": "ym2612"
    },
    {
      "channel": 3,
      "note": 63,
      "start": 8.8225,
      "duration": 0.0161,
      "velocity": 120,
      "chip": "ym2612"
    },
    {
      "channel": 2,
      "note": 56,
      "start": 8.824,
      "duration": 0.0185,
      "velocity": 100,
      "chip": "ym2612"
    },
    {
      "channel": 1,
      "note": 44,
      "start": 8.8251,
      "duration": 0.0186,
      "velocity": 100,
      "chip": "ym2612"
    },
    {
      "channel": 0,
      "note": 39,
      "start": 8.8363,
      "duration": 0.0161,
      "velocity": 115,
      "chip": "ym2612"
    },
    {
      "channel": 4,
      "note": 68,
      "start": 8.8375,
      "duration": 0.0161,
      "velocity": 120,
      "chip": "ym2612"
    },
    {
      "channel": 3,
      "note": 63,
      "start": 8.8386,
      "duration": 0.0161,
      "velocity": 120,
      "chip": "ym2612"
    },
    {
      "channel": 2,
      "note": 56,
      "start": 8.8425,
      "duration": 0.0134,
      "velocity": 100,
      "chip": "ym2612"
    },
    {
      "channel": 1,
      "note": 44,
      "start": 8.8436,
      "duration": 0.0161,
      "velocity": 100,
      "chip": "ym2612"
    },
    {
      "channel": 0,
      "note": 39,
      "start": 8.8524,
      "duration": 0.0161,
      "velocity": 115,
      "chip": "ym2612"
    },
    {
      "channel": 4,
      "note": 68,
      "start": 8.8536,
      "duration": 0.0161,
      "velocity": 120,
      "chip": "ym2612"
    },
    {
      "channel": 3,
      "note": 63,
      "start": 8.8547,
      "duration": 0.0161,
      "velocity": 120,
      "chip": "ym2612"
    },
    {
      "channel": 0,
      "note": 40,
      "start": 8.8685,
      "duration": 0.0161,
      "velocity": 115,
      "chip": "ym2612"
    },
    {
      "channel": 4,
      "note": 68,
      "start": 8.8696,
      "duration": 0.0162,
      "velocity": 120,
      "chip": "ym2612"
    },
    {
      "channel": 3,
      "note": 63,
      "start": 8.8708,
      "duration": 0.0161,
      "velocity": 120,
      "chip": "ym2612"
    },
    {
      "channel": 0,
      "note": 40,
      "start": 8.8846,
      "duration": 0.0161,
      "velocity": 115,
      "chip": "ym2612"
    },
    {
      "channel": 4,
      "note": 68,
      "start": 8.8858,
      "duration": 0.0161,
      "velocity": 120,
      "chip": "ym2612"
    },
    {
      "channel": 3,
      "note": 63,
      "start": 8.8869,
      "duration": 0.0161,
      "velocity": 120,
      "chip": "ym2612"
    },
    {
      "channel": 0,
      "note": 40,
      "start": 8.9007,
      "duration": 0.0161,
      "velocity": 115,
      "chip": "ym2612"
    },
    {
      "channel": 4,
      "note": 68,
      "start": 8.9019,
      "duration": 0.0161,
      "velocity": 120,
      "chip": "ym2612"
    },
    {
      "channel": 3,
      "note": 63,
      "start": 8.903,
      "duration": 0.0161,
      "velocity": 120,
      "chip": "ym2612"
    },
    {
      "channel": 0,
      "note": 41,
      "start": 8.9168,
      "duration": 0.0195,
      "velocity": 115,
      "chip": "ym2612"
    },
    {
      "channel": 4,
      "note": 68,
      "start": 8.918,
      "duration": 0.0195,
      "velocity": 120,
      "chip": "ym2612"
    },
    {
      "channel": 3,
      "note": 63,
      "start": 8.9191,
      "duration": 0.0195,
      "velocity": 120,
      "chip": "ym2612"
    },
    {
      "channel": 1,
      "note": 78,
      "start": 8.9346,
      "duration": 0.0144,
      "velocity": 124,
      "chip": "ym2612"
    },
    {
      "channel": 0,
      "note": 41,
      "start": 8.9364,
      "duration": 0.0144,
      "velocity": 115,
      "chip": "ym2612"
    },
    {
      "channel": 4,
      "note": 68,
      "start": 8.9375,
      "duration": 0.0144,
      "velocity": 120,
      "chip": "ym2612"
    },
    {
      "channel": 3,
      "note": 63,
      "start": 8.9387,
      "duration": 0.0144,
      "velocity": 120,
      "chip": "ym2612"
    },
    {
      "channel": 2,
      "note": 56,
      "start": 8.9425,
      "duration": 0.0118,
      "velocity": 100,
      "chip": "ym2612"
    },
    {
      "channel": 1,
      "note": 76,
      "start": 8.949,
      "duration": 0.016,
      "velocity": 124,
      "chip": "ym2612"
    },
    {
      "channel": 0,
      "note": 42,
      "start": 8.9507,
      "duration": 0.016,
      "velocity": 115,
      "chip": "ym2612"
    },
    {
      "channel": 4,
      "note": 68,
      "start": 8.9519,
      "duration": 0.016,
      "velocity": 120,
      "chip": "ym2612"
    },
    {
      "channel": 3,
      "note": 63,
      "start": 8.953,
      "duration": 0.016,
      "velocity": 120,
      "chip": "ym2612"
    },
    {
      "channel": 2,
      "note": 56,
      "start": 8.9542,
      "duration": 0.016,
      "velocity": 100,
      "chip": "ym2612"
    },
    {
      "channel": 1,
      "note": 75,
      "start": 8.9651,
      "duration": 0.0161,
      "velocity": 124,
      "chip": "ym2612"
    },
    {
      "channel": 0,
      "note": 42,
      "start": 8.9668,
      "duration": 0.0161,
      "velocity": 115,
      "chip": "ym2612"
    },
    {
      "channel": 4,
      "note": 68,
      "start": 8.9679,
      "duration": 0.0161,
      "velocity": 120,
      "chip": "ym2612"
    },
    {
      "channel": 3,
      "note": 63,
      "start": 8.9691,
      "duration": 0.0161,
      "velocity": 120,
      "chip": "ym2612"
    },
    {
      "channel": 2,
      "note": 56,
      "start": 8.9702,
      "duration": 0.0161,
      "velocity": 100,
      "chip": "ym2612"
    },
    {
      "channel": 1,
      "note": 74,
      "start": 8.9812,
      "duration": 0.0161,
      "velocity": 124,
      "chip": "ym2612"
    },
    {
      "channel": 0,
      "note": 43,
      "start": 8.9829,
      "duration": 0.0161,
      "velocity": 115,
      "chip": "ym2612"
    },
    {
      "channel": 4,
      "note": 68,
      "start": 8.984,
      "duration": 0.0161,
      "velocity": 120,
      "chip": "ym2612"
    },
    {
      "channel": 3,
      "note": 63,
      "start": 8.9852,
      "duration": 0.0161,
      "velocity": 120,
      "chip": "ym2612"
    },
    {
      "channel": 2,
      "note": 56,
      "start": 8.9863,
      "duration": 0.0161,
      "velocity": 100,
      "chip": "ym2612"
    },
    {
      "channel": 1,
      "note": 72,
      "start": 8.9973,
      "duration": 0.0161,
      "velocity": 124,
      "chip": "ym2612"
    },
    {
      "channel": 0,
      "note": 43,
      "start": 8.999,
      "duration": 0.0161,
      "velocity": 115,
      "chip": "ym2612"
    },
    {
      "channel": 4,
      "note": 68,
      "start": 9.0001,
      "duration": 0.0161,
      "velocity": 120,
      "chip": "ym2612"
    },
    {
      "channel": 3,
      "note": 63,
      "start": 9.0013,
      "duration": 0.0161,
      "velocity": 120,
      "chip": "ym2612"
    },
    {
      "channel": 2,
      "note": 56,
      "start": 9.0024,
      "duration": 0.0161,
      "velocity": 100,
      "chip": "ym2612"
    },
    {
      "channel": 1,
      "note": 71,
      "start": 9.0134,
      "duration": 0.0161,
      "velocity": 124,
      "chip": "ym2612"
    },
    {
      "channel": 0,
      "note": 44,
      "start": 9.0151,
      "duration": 0.0161,
      "velocity": 115,
      "chip": "ym2612"
    },
    {
      "channel": 4,
      "note": 68,
      "start": 9.0162,
      "duration": 0.0161,
      "velocity": 120,
      "chip": "ym2612"
    },
    {
      "channel": 3,
      "note": 63,
      "start": 9.0173,
      "duration": 0.0161,
      "velocity": 120,
      "chip": "ym2612"
    },
    {
      "channel": 2,
      "note": 56,
      "start": 9.0185,
      "duration": 0.0161,
      "velocity": 100,
      "chip": "ym2612"
    },
    {
      "channel": 1,
      "note": 70,
      "start": 9.0294,
      "duration": 0.0161,
      "velocity": 124,
      "chip": "ym2612"
    },
    {
      "channel": 0,
      "note": 44,
      "start": 9.0312,
      "duration": 0.0162,
      "velocity": 115,
      "chip": "ym2612"
    },
    {
      "channel": 4,
      "note": 68,
      "start": 9.0324,
      "duration": 0.0161,
      "velocity": 120,
      "chip": "ym2612"
    },
    {
      "channel": 3,
      "note": 63,
      "start": 9.0334,
      "duration": 0.0162,
      "velocity": 120,
      "chip": "ym2612"
    },
    {
      "channel": 2,
      "note": 56,
      "start": 9.0346,
      "duration": 0.0161,
      "velocity": 100,
      "chip": "ym2612"
    },
    {
      "channel": 1,
      "note": 69,
      "start": 9.0455,
      "duration": 0.0162,
      "velocity": 124,
      "chip": "ym2612"
    },
    {
      "channel": 0,
      "note": 44,
      "start": 9.0473,
      "duration": 0.0161,
      "velocity": 115,
      "chip": "ym2612"
    },
    {
      "channel": 4,
      "note": 68,
      "start": 9.0485,
      "duration": 0.0161,
      "velocity": 120,
      "chip": "ym2612"
    },
    {
      "channel": 3,
      "note": 63,
      "start": 9.0496,
      "duration": 0.0161,
      "velocity": 120,
      "chip": "ym2612"
    },
    {
      "channel": 1,
      "note": 68,
      "start": 9.0617,
      "duration": 0.0161,
      "velocity": 124,
      "chip": "ym2612"
    },
    {
      "channel": 0,
      "note": 45,
      "start": 9.0634,
      "duration": 0.0161,
      "velocity": 115,
      "chip": "ym2612"
    },
    {
      "channel": 4,
      "note": 68,
      "start": 9.0646,
      "duration": 0.0161,
      "velocity": 120,
      "chip": "ym2612"
    },
    {
      "channel": 3,
      "note": 63,
      "start": 9.0657,
      "duration": 0.0161,
      "velocity": 120,
      "chip": "ym2612"
    },
    {
      "channel": 1,
      "note": 66,
      "start": 9.0778,
      "duration": 0.0161,
      "velocity": 124,
      "chip": "ym2612"
    },
    {
      "channel": 0,
      "note": 45,
      "start": 9.0795,
      "duration": 0.0161,
      "velocity": 115,
      "chip": "ym2612"
    },
    {
      "channel": 4,
      "note": 68,
      "start": 9.0807,
      "duration": 0.0161,
      "velocity": 120,
      "chip": "ym2612"
    },
    {
      "channel": 3,
      "note": 63,
      "start": 9.0818,
      "duration": 0.0161,
      "velocity": 120,
      "chip": "ym2612"
    },
    {
      "channel": 1,
      "note": 65,
      "start": 9.0939,
      "duration": 0.0167,
      "velocity": 124,
      "chip": "ym2612"
    },
    {
      "channel": 0,
      "note": 46,
      "start": 9.0956,
      "duration": 0.0167,
      "velocity": 115,
      "chip": "ym2612"
    },
    {
      "channel": 4,
      "note": 68,
      "start": 9.0967,
      "duration": 0.0167,
      "velocity": 120,
      "chip": "ym2612"
    },
    {
      "channel": 3,
      "note": 63,
      "start": 9.0979,
      "duration": 0.0167,
      "velocity": 120,
      "chip": "ym2612"
    },
    {
      "channel": 1,
      "note": 64,
      "start": 9.1105,
      "duration": 0.0167,
      "velocity": 124,
      "chip": "ym2612"
    },
    {
      "channel": 0,
      "note": 46,
      "start": 9.1123,
      "duration": 0.0185,
      "velocity": 115,
      "chip": "ym2612"
    },
    {
      "channel": 4,
      "note": 68,
      "start": 9.1134,
      "duration": 0.0185,
      "velocity": 120,
      "chip": "ym2612"
    },
    {
      "channel": 3,
      "note": 63,
      "start": 9.1146,
      "duration": 0.0185,
      "velocity": 120,
      "chip": "ym2612"
    },
    {
      "channel": 1,
      "note": 62,
      "start": 9.1273,
      "duration": 0.0163,
      "velocity": 124,
      "chip": "ym2612"
    },
    {
      "channel": 0,
      "note": 36,
      "start": 9.1308,
      "duration": 0.0146,
      "velocity": 115,
      "chip": "ym2612"
    },
    {
      "channel": 4,
      "note": 68,
      "start": 9.1319,
      "duration": 0.0146,
      "velocity": 120,
      "chip": "ym2612"
    },
    {
      "channel": 3,
      "note": 63,
      "start": 9.1331,
      "duration": 0.0146,
      "velocity": 120,
      "chip": "ym2612"
    },
    {
      "channel": 2,
      "note": 56,
      "start": 9.1345,
      "duration": 0.0143,
      "velocity": 100,
      "chip": "ym2612"
    },
    {
      "channel": 1,
      "note": 61,
      "start": 9.1436,
      "duration": 0.0147,
      "velocity": 124,
      "chip": "ym2612"
    },
    {
      "channel": 0,
      "note": 36,
      "start": 9.1454,
      "duration": 0.0146,
      "velocity": 115,
      "chip": "ym2612"
    },
    {
      "channel": 4,
      "note": 68,
      "start": 9.1465,
      "duration": 0.0146,
      "velocity": 120,
      "chip": "ym2612"
    },
    {
      "channel": 3,
      "note": 63,
      "start": 9.1476,
      "duration": 0.0146,
      "velocity": 120,
      "chip": "ym2612"
    },
    {
      "channel": 2,
      "note": 56,
      "start": 9.1488,
      "duration": 0.0146,
      "velocity": 100,
      "chip": "ym2612"
    },
    {
      "channel": 1,
      "note": 60,
      "start": 9.1583,
      "duration": 0.0188,
      "velocity": 124,
      "chip": "ym2612"
    },
    {
      "channel": 0,
      "note": 37,
      "start": 9.16,
      "duration": 0.0188,
      "velocity": 115,
      "chip": "ym2612"
    },
    {
      "channel": 4,
      "note": 68,
      "start": 9.1611,
      "duration": 0.0188,
      "velocity": 120,
      "chip": "ym2612"
    },
    {
      "channel": 3,
      "note": 63,
      "start": 9.1623,
      "duration": 0.0188,
      "velocity": 120,
      "chip": "ym2612"
    },
    {
      "channel": 2,
      "note": 56,
      "start": 9.1634,
      "duration": 0.0188,
      "velocity": 100,
      "chip": "ym2612"
    },
    {
      "channel": 1,
      "note": 59,
      "start": 9.1771,
      "duration": 0.0161,
      "velocity": 124,
      "chip": "ym2612"
    },
    {
      "channel": 0,
      "note": 37,
      "start": 9.1788,
      "duration": 0.0162,
      "velocity": 115,
      "chip": "ym2612"
    },
    {
      "channel": 4,
      "note": 68,
      "start": 9.18,
      "duration": 0.0161,
      "velocity": 120,
      "chip": "ym2612"
    },
    {
      "channel": 3,
      "note": 63,
      "start": 9.1811,
      "duration": 0.0162,
      "velocity": 120,
      "chip": "ym2612"
    },
    {
      "channel": 2,
      "note": 56,
      "start": 9.1822,
      "duration": 0.0161,
      "velocity": 100,
      "chip": "ym2612"
    },
    {
      "channel": 1,
      "note": 57,
      "start": 9.1932,
      "duration": 0.0157,
      "velocity": 124,
      "chip": "ym2612"
    },
    {
      "channel": 0,
      "note": 38,
      "start": 9.195,
      "duration": 0.0157,
      "velocity": 115,
      "chip": "ym2612"
    },
    {
      "channel": 4,
      "note": 68,
      "start": 9.1961,
      "duration": 0.0157,
      "velocity": 120,
      "chip": "ym2612"
    },
    {
      "channel": 3,
      "note": 63,
      "start": 9.1973,
      "duration": 0.0157,
      "velocity": 120,
      "chip": "ym2612"
    },
    {
      "channel": 2,
      "note": 56,
      "start": 9.1983,
      "duration": 0.0158,
      "velocity": 100,
      "chip": "ym2612"
    },
    {
      "channel": 1,
      "note": 56,
      "start": 9.209,
      "duration": 0.0139,
      "velocity": 124,
      "chip": "ym2612"
    },
    {
      "channel": 0,
      "note": 38,
      "start": 9.2107,
      "duration": 0.0141,
      "velocity": 115,
      "chip": "ym2612"
    },
    {
      "channel": 4,
      "note": 68,
      "start": 9.2118,
      "duration": 0.0141,
      "velocity": 120,
      "chip": "ym2612"
    },
    {
      "channel": 3,
      "note": 63,
      "start": 9.213,
      "duration": 0.0141,
      "velocity": 120,
      "chip": "ym2612"
    },
    {
      "channel": 2,
      "note": 56,
      "start": 9.2141,
      "duration": 0.014,
      "velocity": 100,
      "chip": "ym2612"
    },
    {
      "channel": 1,
      "note": 55,
      "start": 9.2228,
      "duration": 0.016,
      "velocity": 124,
      "chip": "ym2612"
    },
    {
      "channel": 0,
      "note": 39,
      "start": 9.2247,
      "duration": 0.0185,
      "velocity": 115,
      "chip": "ym2612"
    },
    {
      "channel": 4,
      "note": 68,
      "start": 9.2259,
      "duration": 0.0185,
      "velocity": 120,
      "chip": "ym2612"
    },
    {
      "channel": 3,
      "note": 63,
      "start": 9.227,
      "duration": 0.0185,
      "velocity": 120,
      "chip": "ym2612"
    },
    {
      "channel": 2,
      "note": 56,
      "start": 9.2281,
      "duration": 0.0186,
      "velocity": 100,
      "chip": "ym2612"
    },
    {
      "channel": 1,
      "note": 53,
      "start": 9.2388,
      "duration": 0.0161,
      "velocity": 124,
      "chip": "ym2612"
    },
    {
      "channel": 0,
      "note": 39,
      "start": 9.2432,
      "duration": 0.0161,
      "velocity": 115,
      "chip": "ym2612"
    },
    {
      "channel": 4,
      "note": 68,
      "start": 9.2444,
      "duration": 0.0161,
      "velocity": 120,
      "chip": "ym2612"
    },
    {
      "channel": 3,
      "note": 63,
      "start": 9.2455,
      "duration": 0.0161,
      "velocity": 120,
      "chip": "ym2612"
    },
    {
      "channel": 1,
      "note": 52,
      "start": 9.2549,
      "duration": 0.0161,
      "velocity": 124,
      "chip": "ym2612"
    },
    {
      "channel": 0,
      "note": 40,
      "start": 9.2593,
      "duration": 0.0157,
      "velocity": 115,
      "chip": "ym2612"
    },
    {
      "channel": 4,
      "note": 68,
      "start": 9.2605,
      "duration": 0.0157,
      "velocity": 120,
      "chip": "ym2612"
    },
    {
      "channel": 3,
      "note": 63,
      "start": 9.2616,
      "duration": 0.0158,
      "velocity": 120,
      "chip": "ym2612"
    },
    {
      "channel": 1,
      "note": 51,
      "start": 9.271,
      "duration": 0.0153,
      "velocity": 1,
      "chip": "ym2612"
    },
    {
      "channel": 0,
      "note": 40,
      "start": 9.2751,
      "duration": 0.013,
      "velocity": 115,
      "chip": "ym2612"
    },
    {
      "channel": 4,
      "note": 68,
      "start": 9.2763,
      "duration": 0.0129,
      "velocity": 120,
      "chip": "ym2612"
    },
    {
      "channel": 3,
      "note": 63,
      "start": 9.2774,
      "duration": 0.0132,
      "velocity": 120,
      "chip": "ym2612"
    },
    {
      "channel": 0,
      "note": 40,
      "start": 9.288,
      "duration": 0.0152,
      "velocity": 115,
      "chip": "ym2612"
    },
    {
      "channel": 4,
      "note": 68,
      "start": 9.2892,
      "duration": 0.0152,
      "velocity": 120,
      "chip": "ym2612"
    },
    {
      "channel": 3,
      "note": 63,
      "start": 9.2906,
      "duration": 0.0149,
      "velocity": 120,
      "chip": "ym2612"
    },
    {
      "channel": 0,
      "note": 41,
      "start": 9.3032,
      "duration": 0.0179,
      "velocity": 115,
      "chip": "ym2612"
    },
    {
      "channel": 4,
      "note": 68,
      "start": 9.3044,
      "duration": 0.0181,
      "velocity": 120,
      "chip": "ym2612"
    },
    {
      "channel": 3,
      "note": 63,
      "start": 9.3055,
      "duration": 0.0212,
      "velocity": 120,
      "chip": "ym2612"
    },
    {
      "channel": 0,
      "note": 36,
      "start": 9.3212,
      "duration": 0.0144,
      "velocity": 115,
      "chip": "ym2612"
    },
    {
      "channel": 4,
      "note": 60,
      "start": 9.3253,
      "duration": 0.0115,
      "velocity": 120,
      "chip": "ym2612"
    },
    {
      "channel": 3,
      "note": 55,
      "start": 9.3268,
      "duration": 0.0111,
      "velocity": 120,
      "chip": "ym2612"
    },
    {
      "channel": 2,
      "note": 48,
      "start": 9.3282,
      "duration": 0.011,
      "velocity": 100,
      "chip": "ym2612"
    },
    {
      "channel": 1,
      "note": 36,
      "start": 9.3296,
      "duration": 0.013,
      "velocity": 100,
      "chip": "ym2612"
    },
    {
      "channel": 0,
      "note": 36,
      "start": 9.3356,
      "duration": 0.016,
      "velocity": 115,
      "chip": "ym2612"
    },
    {
      "channel": 4,
      "note": 60,
      "start": 9.3368,
      "duration": 0.016,
      "velocity": 120,
      "chip": "ym2612"
    },
    {
      "channel": 3,
      "note": 55,
      "start": 9.3379,
      "duration": 0.016,
      "velocity": 120,
      "chip": "ym2612"
    },
    {
      "channel": 2,
      "note": 48,
      "start": 9.3391,
      "duration": 0.0158,
      "velocity": 100,
      "chip": "ym2612"
    },
    {
      "channel": 1,
      "note": 36,
      "start": 9.3427,
      "duration": 0.0137,
      "velocity": 100,
      "chip": "ym2612"
    },
    {
      "channel": 0,
      "note": 37,
      "start": 9.3516,
      "duration": 0.0161,
      "velocity": 115,
      "chip": "ym2612"
    },
    {
      "channel": 4,
      "note": 60,
      "start": 9.3527,
      "duration": 0.0161,
      "velocity": 120,
      "chip": "ym2612"
    },
    {
      "channel": 3,
      "note": 55,
      "start": 9.3539,
      "duration": 0.0161,
      "velocity": 120,
      "chip": "ym2612"
    },
    {
      "channel": 2,
      "note": 48,
      "start": 9.3549,
      "duration": 0.0161,
      "velocity": 100,
      "chip": "ym2612"
    },
    {
      "channel": 1,
      "note": 36,
      "start": 9.3564,
      "duration": 0.0158,
      "velocity": 100,
      "chip": "ym2612"
    },
    {
      "channel": 0,
      "note": 37,
      "start": 9.3677,
      "duration": 0.0161,
      "velocity": 115,
      "chip": "ym2612"
    },
    {
      "channel": 4,
      "note": 60,
      "start": 9.3688,
      "duration": 0.0161,
      "velocity": 120,
      "chip": "ym2612"
    },
    {
      "channel": 3,
      "note": 55,
      "start": 9.37,
      "duration": 0.0161,
      "velocity": 120,
      "chip": "ym2612"
    },
    {
      "channel": 2,
      "note": 48,
      "start": 9.371,
      "duration": 0.0162,
      "velocity": 100,
      "chip": "ym2612"
    },
    {
      "channel": 1,
      "note": 36,
      "start": 9.3722,
      "duration": 0.0161,
      "velocity": 100,
      "chip": "ym2612"
    },
    {
      "channel": 0,
      "note": 38,
      "start": 9.3838,
      "duration": 0.0161,
      "velocity": 115,
      "chip": "ym2612"
    },
    {
      "channel": 4,
      "note": 60,
      "start": 9.3849,
      "duration": 0.0161,
      "velocity": 120,
      "chip": "ym2612"
    },
    {
      "channel": 3,
      "note": 55,
      "start": 9.3861,
      "duration": 0.0161,
      "velocity": 120,
      "chip": "ym2612"
    },
    {
      "channel": 2,
      "note": 48,
      "start": 9.3872,
      "duration": 0.0161,
      "velocity": 100,
      "chip": "ym2612"
    },
    {
      "channel": 1,
      "note": 36,
      "start": 9.3883,
      "duration": 0.0161,
      "velocity": 100,
      "chip": "ym2612"
    },
    {
      "channel": 0,
      "note": 38,
      "start": 9.3999,
      "duration": 0.0161,
      "velocity": 115,
      "chip": "ym2612"
    },
    {
      "channel": 4,
      "note": 60,
      "start": 9.401,
      "duration": 0.0161,
      "velocity": 120,
      "chip": "ym2612"
    },
    {
      "channel": 3,
      "note": 55,
      "start": 9.4022,
      "duration": 0.0161,
      "velocity": 120,
      "chip": "ym2612"
    },
    {
      "channel": 2,
      "note": 48,
      "start": 9.4033,
      "duration": 0.0161,
      "velocity": 100,
      "chip": "ym2612"
    },
    {
      "channel": 1,
      "note": 36,
      "start": 9.4044,
      "duration": 0.0161,
      "velocity": 100,
      "chip": "ym2612"
    },
    {
      "channel": 0,
      "note": 39,
      "start": 9.416,
      "duration": 0.0161,
      "velocity": 115,
      "chip": "ym2612"
    },
    {
      "channel": 4,
      "note": 60,
      "start": 9.4171,
      "duration": 0.0161,
      "velocity": 120,
      "chip": "ym2612"
    },
    {
      "channel": 3,
      "note": 55,
      "start": 9.4183,
      "duration": 0.0161,
      "velocity": 120,
      "chip": "ym2612"
    },
    {
      "channel": 2,
      "note": 48,
      "start": 9.4194,
      "duration": 0.0161,
      "velocity": 100,
      "chip": "ym2612"
    },
    {
      "channel": 1,
      "note": 36,
      "start": 9.4205,
      "duration": 0.0161,
      "velocity": 100,
      "chip": "ym2612"
    },
    {
      "channel": 0,
      "note": 39,
      "start": 9.432,
      "duration": 0.0161,
      "velocity": 115,
      "chip": "ym2612"
    },
    {
      "channel": 4,
      "note": 60,
      "start": 9.4332,
      "duration": 0.0161,
      "velocity": 120,
      "chip": "ym2612"
    },
    {
      "channel": 3,
      "note": 55,
      "start": 9.4343,
      "duration": 0.0161,
      "velocity": 120,
      "chip": "ym2612"
    },
    {
      "channel": 0,
      "note": 40,
      "start": 9.4481,
      "duration": 0.0161,
      "velocity": 115,
      "chip": "ym2612"
    },
    {
      "channel": 4,
      "note": 60,
      "start": 9.4493,
      "duration": 0.0161,
      "velocity": 120,
      "chip": "ym2612"
    },
    {
      "channel": 3,
      "note": 55,
      "start": 9.4504,
      "duration": 0.0161,
      "velocity": 120,
      "chip": "ym2612"
    },
    {
      "channel": 0,
      "note": 40,
      "start": 9.4642,
      "duration": 0.0161,
      "velocity": 115,
      "chip": "ym2612"
    },
    {
      "channel": 4,
      "note": 60,
      "start": 9.4654,
      "duration": 0.0162,
      "velocity": 120,
      "chip": "ym2612"
    },
    {
      "channel": 3,
      "note": 55,
      "start": 9.4665,
      "duration": 0.0161,
      "velocity": 120,
      "chip": "ym2612"
    },
    {
      "channel": 0,
      "note": 40,
      "start": 9.4804,
      "duration": 0.0161,
      "velocity": 115,
      "chip": "ym2612"
    },
    {
      "channel": 4,
      "note": 60,
      "start": 9.4815,
      "duration": 0.0161,
      "velocity": 120,
      "chip": "ym2612"
    },
    {
      "channel": 3,
      "note": 55,
      "start": 9.4827,
      "duration": 0.0161,
      "velocity": 120,
      "chip": "ym2612"
    },
    {
      "channel": 0,
      "note": 41,
      "start": 9.4965,
      "duration": 0.0161,
      "velocity": 115,
      "chip": "ym2612"
    },
    {
      "channel": 4,
      "note": 60,
      "start": 9.4976,
      "duration": 0.0161,
      "velocity": 120,
      "chip": "ym2612"
    },
    {
      "channel": 3,
      "note": 55,
      "start": 9.4988,
      "duration": 0.0161,
      "velocity": 120,
      "chip": "ym2612"
    },
    {
      "channel": 0,
      "note": 41,
      "start": 9.5126,
      "duration": 0.0161,
      "velocity": 115,
      "chip": "ym2612"
    },
    {
      "channel": 4,
      "note": 60,
      "start": 9.5137,
      "duration": 0.0161,
      "velocity": 120,
      "chip": "ym2612"
    },
    {
      "channel": 3,
      "note": 55,
      "start": 9.5149,
      "duration": 0.0161,
      "velocity": 120,
      "chip": "ym2612"
    },
    {
      "channel": 2,
      "note": 48,
      "start": 9.5163,
      "duration": 0.0159,
      "velocity": 100,
      "chip": "ym2612"
    },
    {
      "channel": 1,
      "note": 36,
      "start": 9.5177,
      "duration": 0.0156,
      "velocity": 100,
      "chip": "ym2612"
    },
    {
      "channel": 0,
      "note": 42,
      "start": 9.5287,
      "duration": 0.0161,
      "velocity": 115,
      "chip": "ym2612"
    },
    {
      "channel": 4,
      "note": 60,
      "start": 9.5298,
      "duration": 0.0161,
      "velocity": 120,
      "chip": "ym2612"
    },
    {
      "channel": 3,
      "note": 55,
      "start": 9.531,
      "duration": 0.0161,
      "velocity": 120,
      "chip": "ym2612"
    },
    {
      "channel": 2,
      "note": 48,
      "start": 9.5322,
      "duration": 0.016,
      "velocity": 100,
      "chip": "ym2612"
    },
    {
      "channel": 1,
      "note": 36,
      "start": 9.5333,
      "duration": 0.016,
      "velocity": 100,
      "chip": "ym2612"
    },
    {
      "channel": 0,
      "note": 42,
      "start": 9.5448,
      "duration": 0.0161,
      "velocity": 115,
      "chip": "ym2612"
    },
    {
      "channel": 4,
      "note": 60,
      "start": 9.5459,
      "duration": 0.0161,
      "velocity": 120,
      "chip": "ym2612"
    },
    {
      "channel": 3,
      "note": 55,
      "start": 9.5471,
      "duration": 0.0161,
      "velocity": 120,
      "chip": "ym2612"
    },
    {
      "channel": 2,
      "note": 48,
      "start": 9.5482,
      "duration": 0.0161,
      "velocity": 100,
      "chip": "ym2612"
    },
    {
      "channel": 1,
      "note": 36,
      "start": 9.5493,
      "duration": 0.0161,
      "velocity": 100,
      "chip": "ym2612"
    },
    {
      "channel": 0,
      "note": 43,
      "start": 9.5609,
      "duration": 0.0165,
      "velocity": 115,
      "chip": "ym2612"
    },
    {
      "channel": 4,
      "note": 60,
      "start": 9.562,
      "duration": 0.0165,
      "velocity": 120,
      "chip": "ym2612"
    },
    {
      "channel": 3,
      "note": 55,
      "start": 9.5632,
      "duration": 0.0165,
      "velocity": 120,
      "chip": "ym2612"
    },
    {
      "channel": 2,
      "note": 48,
      "start": 9.5643,
      "duration": 0.0165,
      "velocity": 100,
      "chip": "ym2612"
    },
    {
      "channel": 1,
      "note": 36,
      "start": 9.5654,
      "duration": 0.0164,
      "velocity": 100,
      "chip": "ym2612"
    },
    {
      "channel": 0,
      "note": 43,
      "start": 9.5773,
      "duration": 0.0167,
      "velocity": 115,
      "chip": "ym2612"
    },
    {
      "channel": 4,
      "note": 60,
      "start": 9.5785,
      "duration": 0.0167,
      "velocity": 120,
      "chip": "ym2612"
    },
    {
      "channel": 3,
      "note": 55,
      "start": 9.5796,
      "duration": 0.0167,
      "velocity": 120,
      "chip": "ym2612"
    },
    {
      "channel": 2,
      "note": 48,
      "start": 9.5808,
      "duration": 0.0166,
      "velocity": 100,
      "chip": "ym2612"
    },
    {
      "channel": 1,
      "note": 36,
      "start": 9.5819,
      "duration": 0.0167,
      "velocity": 100,
      "chip": "ym2612"
    },
    {
      "channel": 0,
      "note": 44,
      "start": 9.594,
      "duration": 0.0163,
      "velocity": 115,
      "chip": "ym2612"
    },
    {
      "channel": 4,
      "note": 60,
      "start": 9.5951,
      "duration": 0.0163,
      "velocity": 120,
      "chip": "ym2612"
    },
    {
      "channel": 3,
      "note": 55,
      "start": 9.5963,
      "duration": 0.0163,
      "velocity": 120,
      "chip": "ym2612"
    },
    {
      "channel": 2,
      "note": 48,
      "start": 9.5974,
      "duration": 0.0163,
      "velocity": 100,
      "chip": "ym2612"
    },
    {
      "channel": 1,
      "note": 36,
      "start": 9.5985,
      "duration": 0.0163,
      "velocity": 100,
      "chip": "ym2612"
    },
    {
      "channel": 0,
      "note": 44,
      "start": 9.6103,
      "duration": 0.0149,
      "velocity": 115,
      "chip": "ym2612"
    },
    {
      "channel": 4,
      "note": 60,
      "start": 9.6114,
      "duration": 0.015,
      "velocity": 120,
      "chip": "ym2612"
    },
    {
      "channel": 3,
      "note": 55,
      "start": 9.6126,
      "duration": 0.015,
      "velocity": 120,
      "chip": "ym2612"
    },
    {
      "channel": 2,
      "note": 48,
      "start": 9.6137,
      "duration": 0.015,
      "velocity": 100,
      "chip": "ym2612"
    },
    {
      "channel": 1,
      "note": 36,
      "start": 9.6149,
      "duration": 0.0149,
      "velocity": 100,
      "chip": "ym2612"
    },
    {
      "channel": 0,
      "note": 44,
      "start": 9.6252,
      "duration": 0.0188,
      "velocity": 115,
      "chip": "ym2612"
    },
    {
      "channel": 4,
      "note": 60,
      "start": 9.6265,
      "duration": 0.0187,
      "velocity": 120,
      "chip": "ym2612"
    },
    {
      "channel": 3,
      "note": 55,
      "start": 9.6276,
      "duration": 0.0187,
      "velocity": 120,
      "chip": "ym2612"
    },
    {
      "channel": 0,
      "note": 45,
      "start": 9.644,
      "duration": 0.0162,
      "velocity": 115,
      "chip": "ym2612"
    },
    {
      "channel": 4,
      "note": 60,
      "start": 9.6451,
      "duration": 0.0162,
      "velocity": 120,
      "chip": "ym2612"
    },
    {
      "channel": 3,
      "note": 55,
      "start": 9.6463,
      "duration": 0.0162,
      "velocity": 120,
      "chip": "ym2612"
    },
    {
      "channel": 0,
      "note": 45,
      "start": 9.6602,
      "duration": 0.0157,
      "velocity": 115,
      "chip": "ym2612"
    },
    {
      "channel": 4,
      "note": 60,
      "start": 9.6614,
      "duration": 0.0158,
      "velocity": 120,
      "chip": "ym2612"
    },
    {
      "channel": 3,
      "note": 55,
      "start": 9.6625,
      "duration": 0.0158,
      "velocity": 120,
      "chip": "ym2612"
    },
    {
      "channel": 0,
      "note": 46,
      "start": 9.6759,
      "duration": 0.0141,
      "velocity": 115,
      "chip": "ym2612"
    },
    {
      "channel": 4,
      "note": 60,
      "start": 9.6771,
      "duration": 0.014,
      "velocity": 120,
      "chip": "ym2612"
    },
    {
      "channel": 3,
      "note": 55,
      "start": 9.6783,
      "duration": 0.014,
      "velocity": 120,
      "chip": "ym2612"
    },
    {
      "channel": 0,
      "note": 46,
      "start": 9.69,
      "duration": 0.022,
      "velocity": 115,
      "chip": "ym2612"
    },
    {
      "channel": 4,
      "note": 60,
      "start": 9.6912,
      "duration": 0.022,
      "velocity": 120,
      "chip": "ym2612"
    },
    {
      "channel": 3,
      "note": 55,
      "start": 9.6923,
      "duration": 0.022,
      "velocity": 120,
      "chip": "ym2612"
    },
    {
      "channel": 1,
      "note": 78,
      "start": 9.7102,
      "duration": 0.0117,
      "velocity": 124,
      "chip": "ym2612"
    },
    {
      "channel": 0,
      "note": 47,
      "start": 9.712,
      "duration": 0.0144,
      "velocity": 115,
      "chip": "ym2612"
    },
    {
      "channel": 4,
      "note": 60,
      "start": 9.7132,
      "duration": 0.0143,
      "velocity": 120,
      "chip": "ym2612"
    },
    {
      "channel": 3,
      "note": 55,
      "start": 9.7143,
      "duration": 0.0143,
      "velocity": 120,
      "chip": "ym2612"
    },
    {
      "channel": 2,
      "note": 48,
      "start": 9.7157,
      "duration": 0.0141,
      "velocity": 100,
      "chip": "ym2612"
    },
    {
      "channel": 1,
      "note": 76,
      "start": 9.7219,
      "duration": 0.016,
      "velocity": 124,
      "chip": "ym2612"
    },
    {
      "channel": 0,
      "note": 47,
      "start": 9.7263,
      "duration": 0.0157,
      "velocity": 115,
      "chip": "ym2612"
    },
    {
      "channel": 4,
      "note": 60,
      "start": 9.7275,
      "duration": 0.0157,
      "velocity": 120,
      "chip": "ym2612"
    },
    {
      "channel": 3,
      "note": 55,
      "start": 9.7286,
      "duration": 0.0157,
      "velocity": 120,
      "chip": "ym2612"
    },
    {
      "channel": 2,
      "note": 48,
      "start": 9.7298,
      "duration": 0.0156,
      "velocity": 100,
      "chip": "ym2612"
    },
    {
      "channel": 1,
      "note": 75,
      "start": 9.7379,
      "duration": 0.0161,
      "velocity": 124,
      "chip": "ym2612"
    },
    {
      "channel": 0,
      "note": 47,
      "start": 9.742,
      "duration": 0.0137,
      "velocity": 115,
      "chip": "ym2612"
    },
    {
      "channel": 4,
      "note": 60,
      "start": 9.7432,
      "duration": 0.014,
      "velocity": 120,
      "chip": "ym2612"
    },
    {
      "channel": 3,
      "note": 55,
      "start": 9.7443,
      "duration": 0.014,
      "velocity": 120,
      "chip": "ym2612"
    },
    {
      "channel": 2,
      "note": 48,
      "start": 9.7455,
      "duration": 0.014,
      "velocity": 100,
      "chip": "ym2612"
    },
    {
      "channel": 1,
      "note": 74,
      "start": 9.754,
      "duration": 0.0161,
      "velocity": 124,
      "chip": "ym2612"
    },
    {
      "channel": 0,
      "note": 48,
      "start": 9.7557,
      "duration": 0.0162,
      "velocity": 115,
      "chip": "ym2612"
    },
    {
      "channel": 4,
      "note": 60,
      "start": 9.7572,
      "duration": 0.0186,
      "velocity": 120,
      "chip": "ym2612"
    },
    {
      "channel": 3,
      "note": 55,
      "start": 9.7583,
      "duration": 0.0186,
      "velocity": 120,
      "chip": "ym2612"
    },
    {
      "channel": 2,
      "note": 48,
      "start": 9.7595,
      "duration": 0.0186,
      "velocity": 100,
      "chip": "ym2612"
    },
    {
      "channel": 1,
      "note": 72,
      "start": 9.7701,
      "duration": 0.0161,
      "velocity": 124,
      "chip": "ym2612"
    },
    {
      "channel": 0,
      "note": 48,
      "start": 9.7719,
      "duration": 0.0161,
      "velocity": 115,
      "chip": "ym2612"
    },
    {
      "channel": 4,
      "note": 60,
      "start": 9.7758,
      "duration": 0.0134,
      "velocity": 120,
      "chip": "ym2612"
    },
    {
      "channel": 3,
      "note": 55,
      "start": 9.7769,
      "duration": 0.0161,
      "velocity": 120,
      "chip": "ym2612"
    },
    {
      "channel": 2,
      "note": 48,
      "start": 9.778,
      "duration": 0.0161,
      "velocity": 100,
      "chip": "ym2612"
    },
    {
      "channel": 1,
      "note": 71,
      "start": 9.7862,
      "duration": 0.0161,
      "velocity": 124,
      "chip": "ym2612"
    },
    {
      "channel": 0,
      "note": 49,
      "start": 9.788,
      "duration": 0.0153,
      "velocity": 1,
      "chip": "ym2612"
    },
    {
      "channel": 4,
      "note": 60,
      "start": 9.7891,
      "duration": 0.0153,
      "velocity": 120,
      "chip": "ym2612"
    },
    {
      "channel": 3,
      "note": 55,
      "start": 9.793,
      "duration": 0.0125,
      "velocity": 120,
      "chip": "ym2612"
    },
    {
      "channel": 2,
      "note": 48,
      "start": 9.7941,
      "duration": 0.015,
      "velocity": 100,
      "chip": "ym2612"
    },
    {
      "channel": 1,
      "note": 70,
      "start": 9.8023,
      "duration": 0.0161,
      "velocity": 124,
      "chip": "ym2612"
    },
    {
      "channel": 4,
      "note": 60,
      "start": 9.8044,
      "duration": 0.0153,
      "velocity": 120,
      "chip": "ym2612"
    },
    {
      "channel": 3,
      "note": 55,
      "start": 9.8055,
      "duration": 0.0153,
      "velocity": 120,
      "chip": "ym2612"
    },
    {
      "channel": 2,
      "note": 48,
      "start": 9.8091,
      "duration": 0.0128,
      "velocity": 100,
      "chip": "ym2612"
    },
    {
      "channel": 1,
      "note": 69,
      "start": 9.8184,
      "duration": 0.0161,
      "velocity": 124,
      "chip": "ym2612"
    },
    {
      "channel": 4,
      "note": 60,
      "start": 9.8196,
      "duration": 0.0161,
      "velocity": 120,
      "chip": "ym2612"
    },
    {
      "channel": 3,
      "note": 55,
      "start": 9.8208,
      "duration": 0.0161,
      "velocity": 120,
      "chip": "ym2612"
    },
    {
      "channel": 1,
      "note": 68,
      "start": 9.8345,
      "duration": 0.0161,
      "velocity": 124,
      "chip": "ym2612"
    },
    {
      "channel": 4,
      "note": 60,
      "start": 9.8357,
      "duration": 0.0161,
      "velocity": 120,
      "chip": "ym2612"
    },
    {
      "channel": 3,
      "note": 55,
      "start": 9.8369,
      "duration": 0.0161,
      "velocity": 120,
      "chip": "ym2612"
    },
    {
      "channel": 1,
      "note": 66,
      "start": 9.8506,
      "duration": 0.0161,
      "velocity": 124,
      "chip": "ym2612"
    },
    {
      "channel": 4,
      "note": 60,
      "start": 9.8518,
      "duration": 0.0161,
      "velocity": 120,
      "chip": "ym2612"
    },
    {
      "channel": 3,
      "note": 55,
      "start": 9.853,
      "duration": 0.0161,
      "velocity": 120,
      "chip": "ym2612"
    },
    {
      "channel": 1,
      "note": 65,
      "start": 9.8667,
      "duration": 0.0161,
      "velocity": 124,
      "chip": "ym2612"
    },
    {
      "channel": 4,
      "note": 60,
      "start": 9.8679,
      "duration": 0.0161,
      "velocity": 120,
      "chip": "ym2612"
    },
    {
      "channel": 3,
      "note": 55,
      "start": 9.8691,
      "duration": 0.0161,
      "velocity": 120,
      "chip": "ym2612"
    },
    {
      "channel": 1,
      "note": 64,
      "start": 9.8828,
      "duration": 0.0161,
      "velocity": 124,
      "chip": "ym2612"
    },
    {
      "channel": 4,
      "note": 60,
      "start": 9.884,
      "duration": 0.0195,
      "velocity": 120,
      "chip": "ym2612"
    },
    {
      "channel": 3,
      "note": 55,
      "start": 9.8852,
      "duration": 0.0195,
      "velocity": 120,
      "chip": "ym2612"
    },
    {
      "channel": 1,
      "note": 62,
      "start": 9.8989,
      "duration": 0.0161,
      "velocity": 124,
      "chip": "ym2612"
    },
    {
      "channel": 0,
      "note": 36,
      "start": 9.9024,
      "duration": 0.0144,
      "velocity": 115,
      "chip": "ym2612"
    },
    {
      "channel": 4,
      "note": 60,
      "start": 9.9036,
      "duration": 0.0144,
      "velocity": 120,
      "chip": "ym2612"
    },
    {
      "channel": 3,
      "note": 55,
      "start": 9.9047,
      "duration": 0.0144,
      "velocity": 120,
      "chip": "ym2612"
    },
    {
      "channel": 2,
      "note": 48,
      "start": 9.9089,
      "duration": 0.0114,
      "velocity": 100,
      "chip": "ym2612"
    },
    {
      "channel": 1,
      "note": 61,
      "start": 9.915,
      "duration": 0.0161,
      "velocity": 124,
      "chip": "ym2612"
    },
    {
      "channel": 0,
      "note": 36,
      "start": 9.9168,
      "duration": 0.0161,
      "velocity": 115,
      "chip": "ym2612"
    },
    {
      "channel": 4,
      "note": 60,
      "start": 9.9179,
      "duration": 0.0161,
      "velocity": 120,
      "chip": "ym2612"
    },
    {
      "channel": 3,
      "note": 55,
      "start": 9.9191,
      "duration": 0.0161,
      "velocity": 120,
      "chip": "ym2612"
    },
    {
      "channel": 2,
      "note": 48,
      "start": 9.9203,
      "duration": 0.016,
      "velocity": 100,
      "chip": "ym2612"
    },
    {
      "channel": 1,
      "note": 60,
      "start": 9.9311,
      "duration": 0.0161,
      "velocity": 124,
      "chip": "ym2612"
    },
    {
      "channel": 0,
      "note": 37,
      "start": 9.9329,
      "duration": 0.016,
      "velocity": 115,
      "chip": "ym2612"
    },
    {
      "channel": 4,
      "note": 60,
      "start": 9.934,
      "duration": 0.016,
      "velocity": 120,
      "chip": "ym2612"
    },
    {
      "channel": 3,
      "note": 55,
      "start": 9.9352,
      "duration": 0.016,
      "velocity": 120,
      "chip": "ym2612"
    },
    {
      "channel": 2,
      "note": 48,
      "start": 9.9363,
      "duration": 0.0161,
      "velocity": 100,
      "chip": "ym2612"
    },
    {
      "channel": 1,
      "note": 59,
      "start": 9.9472,
      "duration": 0.0162,
      "velocity": 124,
      "chip": "ym2612"
    },
    {
      "channel": 0,
      "note": 37,
      "start": 9.9489,
      "duration": 0.0161,
      "velocity": 115,
      "chip": "ym2612"
    },
    {
      "channel": 4,
      "note": 60,
      "start": 9.95,
      "duration": 0.0162,
      "velocity": 120,
      "chip": "ym2612"
    },
    {
      "channel": 3,
      "note": 55,
      "start": 9.9512,
      "duration": 0.0161,
      "velocity": 120,
      "chip": "ym2612"
    },
    {
      "channel": 2,
      "note": 48,
      "start": 9.9523,
      "duration": 0.0162,
      "velocity": 100,
      "chip": "ym2612"
    },
    {
      "channel": 1,
      "note": 57,
      "start": 9.9634,
      "duration": 0.0161,
      "velocity": 124,
      "chip": "ym2612"
    },
    {
      "channel": 0,
      "note": 38,
      "start": 9.9651,
      "duration": 0.0161,
      "velocity": 115,
      "chip": "ym2612"
    },
    {
      "channel": 4,
      "note": 60,
      "start": 9.9662,
      "duration": 0.0161,
      "velocity": 120,
      "chip": "ym2612"
    },
    {
      "channel": 3,
      "note": 55,
      "start": 9.9673,
      "duration": 0.0161,
      "velocity": 120,
      "chip": "ym2612"
    },
    {
      "channel": 2,
      "note": 48,
      "start": 9.9685,
      "duration": 0.0161,
      "velocity": 100,
      "chip": "ym2612"
    },
    {
      "channel": 1,
      "note": 56,
      "start": 9.9794,
      "duration": 0.0161,
      "velocity": 124,
      "chip": "ym2612"
    },
    {
      "channel": 0,
      "note": 38,
      "start": 9.9812,
      "duration": 0.0161,
      "velocity": 115,
      "chip": "ym2612"
    },
    {
      "channel": 4,
      "note": 60,
      "start": 9.9823,
      "duration": 0.0161,
      "velocity": 120,
      "chip": "ym2612"
    },
    {
      "channel": 3,
      "note": 55,
      "start": 9.9834,
      "duration": 0.0161,
      "velocity": 120,
      "chip": "ym2612"
    },
    {
      "channel": 2,
      "note": 48,
      "start": 9.9846,
      "duration": 0.0161,
      "velocity": 100,
      "chip": "ym2612"
    },
    {
      "channel": 1,
      "note": 55,
      "start": 9.9955,
      "duration": 0.0161,
      "velocity": 124,
      "chip": "ym2612"
    },
    {
      "channel": 0,
      "note": 39,
      "start": 9.9973,
      "duration": 0.0161,
      "velocity": 115,
      "chip": "ym2612"
    },
    {
      "channel": 4,
      "note": 60,
      "start": 9.9984,
      "duration": 0.0161,
      "velocity": 120,
      "chip": "ym2612"
    },
    {
      "channel": 3,
      "note": 55,
      "start": 9.9995,
      "duration": 0.0161,
      "velocity": 120,
      "chip": "ym2612"
    },
    {
      "channel": 2,
      "note": 48,
      "start": 10.0007,
      "duration": 0.0161,
      "velocity": 100,
      "chip": "ym2612"
    },
    {
      "channel": 1,
      "note": 53,
      "start": 10.0116,
      "duration": 0.0161,
      "velocity": 124,
      "chip": "ym2612"
    },
    {
      "channel": 0,
      "note": 39,
      "start": 10.0134,
      "duration": 0.0161,
      "velocity": 115,
      "chip": "ym2612"
    },
    {
      "channel": 4,
      "note": 60,
      "start": 10.0145,
      "duration": 0.0161,
      "velocity": 120,
      "chip": "ym2612"
    },
    {
      "channel": 3,
      "note": 55,
      "start": 10.0156,
      "duration": 0.0161,
      "velocity": 120,
      "chip": "ym2612"
    },
    {
      "channel": 1,
      "note": 52,
      "start": 10.0277,
      "duration": 0.0161,
      "velocity": 124,
      "chip": "ym2612"
    },
    {
      "channel": 0,
      "note": 40,
      "start": 10.0294,
      "duration": 0.0162,
      "velocity": 115,
      "chip": "ym2612"
    },
    {
      "channel": 4,
      "note": 60,
      "start": 10.0306,
      "duration": 0.0162,
      "velocity": 120,
      "chip": "ym2612"
    },
    {
      "channel": 3,
      "note": 55,
      "start": 10.0317,
      "duration": 0.0162,
      "velocity": 120,
      "chip": "ym2612"
    },
    {
      "channel": 1,
      "note": 51,
      "start": 10.0439,
      "duration": 0.0159,
      "velocity": 1,
      "chip": "ym2612"
    },
    {
      "channel": 0,
      "note": 40,
      "start": 10.0457,
      "duration": 0.0158,
      "velocity": 115,
      "chip": "ym2612"
    },
    {
      "channel": 4,
      "note": 60,
      "start": 10.0468,
      "duration": 0.0159,
      "velocity": 120,
      "chip": "ym2612"
    },
    {
      "channel": 3,
      "note": 55,
      "start": 10.048,
      "duration": 0.0158,
      "velocity": 120,
      "chip": "ym2612"
    },
    {
      "channel": 0,
      "note": 40,
      "start": 10.0615,
      "duration": 0.0155,
      "velocity": 115,
      "chip": "ym2612"
    },
    {
      "channel": 4,
      "note": 60,
      "start": 10.0627,
      "duration": 0.0154,
      "velocity": 120,
      "chip": "ym2612"
    },
    {
      "channel": 3,
      "note": 55,
      "start": 10.0638,
      "duration": 0.0155,
      "velocity": 120,
      "chip": "ym2612"
    },
    {
      "channel": 0,
      "note": 41,
      "start": 10.077,
      "duration": 0.0153,
      "velocity": 115,
      "chip": "ym2612"
    },
    {
      "channel": 4,
      "note": 60,
      "start": 10.0781,
      "duration": 0.0153,
      "velocity": 120,
      "chip": "ym2612"
    },
    {
      "channel": 3,
      "note": 55,
      "start": 10.0793,
      "duration": 0.0153,
      "velocity": 120,
      "chip": "ym2612"
    },
    {
      "channel": 0,
      "note": 41,
      "start": 10.0922,
      "duration": 0.0185,
      "velocity": 115,
      "chip": "ym2612"
    },
    {
      "channel": 4,
      "note": 60,
      "start": 10.0934,
      "duration": 0.0184,
      "velocity": 120,
      "chip": "ym2612"
    },
    {
      "channel": 3,
      "note": 55,
      "start": 10.0945,
      "duration": 0.0185,
      "velocity": 120,
      "chip": "ym2612"
    },
    {
      "channel": 2,
      "note": 48,
      "start": 10.096,
      "duration": 0.0181,
      "velocity": 100,
      "chip": "ym2612"
    },
    {
      "channel": 1,
      "note": 36,
      "start": 10.0974,
      "duration": 0.0179,
      "velocity": 100,
      "chip": "ym2612"
    },
    {
      "channel": 0,
      "note": 42,
      "start": 10.1107,
      "duration": 0.0165,
      "velocity": 115,
      "chip": "ym2612"
    },
    {
      "channel": 4,
      "note": 60,
      "start": 10.1118,
      "duration": 0.0165,
      "velocity": 120,
      "chip": "ym2612"
    },
    {
      "channel": 3,
      "note": 55,
      "start": 10.113,
      "duration": 0.0165,
      "velocity": 120,
      "chip": "ym2612"
    },
    {
      "channel": 2,
      "note": 48,
      "start": 10.1141,
      "duration": 0.0165,
      "velocity": 100,
      "chip": "ym2612"
    },
    {
      "channel": 1,
      "note": 36,
      "start": 10.1153,
      "duration": 0.0164,
      "velocity": 100,
      "chip": "ym2612"
    },
    {
      "channel": 0,
      "note": 42,
      "start": 10.1271,
      "duration": 0.0158,
      "velocity": 115,
      "chip": "ym2612"
    },
    {
      "channel": 4,
      "note": 60,
      "start": 10.1283,
      "duration": 0.0158,
      "velocity": 120,
      "chip": "ym2612"
    },
    {
      "channel": 3,
      "note": 55,
      "start": 10.1294,
      "duration": 0.0158,
      "velocity": 120,
      "chip": "ym2612"
    },
    {
      "channel": 2,
      "note": 48,
      "start": 10.1306,
      "duration": 0.0158,
      "velocity": 100,
      "chip": "ym2612"
    },
    {
      "channel": 1,
      "note": 36,
      "start": 10.1317,
      "duration": 0.0157,
      "velocity": 100,
      "chip": "ym2612"
    },
    {
      "channel": 0,
      "note": 43,
      "start": 10.1429,
      "duration": 0.014,
      "velocity": 115,
      "chip": "ym2612"
    },
    {
      "channel": 4,
      "note": 60,
      "start": 10.1441,
      "duration": 0.014,
      "velocity": 120,
      "chip": "ym2612"
    },
    {
      "channel": 3,
      "note": 55,
      "start": 10.1452,
      "duration": 0.014,
      "velocity": 120,
      "chip": "ym2612"
    },
    {
      "channel": 2,
      "note": 48,
      "start": 10.1464,
      "duration": 0.014,
      "velocity": 100,
      "chip": "ym2612"
    },
    {
      "channel": 1,
      "note": 36,
      "start": 10.1474,
      "duration": 0.0141,
      "velocity": 100,
      "chip": "ym2612"
    },
    {
      "channel": 0,
      "note": 43,
      "start": 10.1569,
      "duration": 0.0185,
      "velocity": 115,
      "chip": "ym2612"
    },
    {
      "channel": 4,
      "note": 60,
      "start": 10.1581,
      "duration": 0.0185,
      "velocity": 120,
      "chip": "ym2612"
    },
    {
      "channel": 3,
      "note": 55,
      "start": 10.1592,
      "duration": 0.0185,
      "velocity": 120,
      "chip": "ym2612"
    },
    {
      "channel": 2,
      "note": 48,
      "start": 10.1604,
      "duration": 0.0185,
      "velocity": 100,
      "chip": "ym2612"
    },
    {
      "channel": 1,
      "note": 36,
      "start": 10.1615,
      "duration": 0.0185,
      "velocity": 100,
      "chip": "ym2612"
    },
    {
      "channel": 0,
      "note": 44,
      "start": 10.1754,
      "duration": 0.0134,
      "velocity": 115,
      "chip": "ym2612"
    },
    {
      "channel": 4,
      "note": 60,
      "start": 10.1766,
      "duration": 0.0162,
      "velocity": 120,
      "chip": "ym2612"
    },
    {
      "channel": 3,
      "note": 55,
      "start": 10.1777,
      "duration": 0.0161,
      "velocity": 120,
      "chip": "ym2612"
    },
    {
      "channel": 2,
      "note": 48,
      "start": 10.1789,
      "duration": 0.0161,
      "velocity": 100,
      "chip": "ym2612"
    },
    {
      "channel": 1,
      "note": 36,
      "start": 10.18,
      "duration": 0.0161,
      "velocity": 100,
      "chip": "ym2612"
    },
    {
      "channel": 0,
      "note": 44,
      "start": 10.1888,
      "duration": 0.0161,
      "velocity": 115,
      "chip": "ym2612"
    },
    {
      "channel": 4,
      "note": 60,
      "start": 10.1927,
      "duration": 0.0157,
      "velocity": 120,
      "chip": "ym2612"
    },
    {
      "channel": 3,
      "note": 55,
      "start": 10.1939,
      "duration": 0.0157,
      "velocity": 120,
      "chip": "ym2612"
    },
    {
      "channel": 2,
      "note": 48,
      "start": 10.195,
      "duration": 0.0158,
      "velocity": 100,
      "chip": "ym2612"
    },
    {
      "channel": 1,
      "note": 36,
      "start": 10.1961,
      "duration": 0.0158,
      "velocity": 100,
      "chip": "ym2612"
    },
    {
      "channel": 0,
      "note": 44,
      "start": 10.2049,
      "duration": 0.0161,
      "velocity": 115,
      "chip": "ym2612"
    },
    {
      "channel": 4,
      "note": 60,
      "start": 10.2085,
      "duration": 0.0137,
      "velocity": 120,
      "chip": "ym2612"
    },
    {
      "channel": 3,
      "note": 55,
      "start": 10.2096,
      "duration": 0.0141,
      "velocity": 120,
      "chip": "ym2612"
    },
    {
      "channel": 0,
      "note": 45,
      "start": 10.221,
      "duration": 0.0161,
      "velocity": 115,
      "chip": "ym2612"
    },
    {
      "channel": 4,
      "note": 60,
      "start": 10.2222,
      "duration": 0.0161,
      "velocity": 120,
      "chip": "ym2612"
    },
    {
      "channel": 3,
      "note": 55,
      "start": 10.2237,
      "duration": 0.0185,
      "velocity": 120,
      "chip": "ym2612"
    },
    {
      "channel": 0,
      "note": 45,
      "start": 10.2371,
      "duration": 0.0161,
      "velocity": 115,
      "chip": "ym2612"
    },
    {
      "channel": 4,
      "note": 60,
      "start": 10.2383,
      "duration": 0.0161,
      "velocity": 120,
      "chip": "ym2612"
    },
    {
      "channel": 3,
      "note": 55,
      "start": 10.2422,
      "duration": 0.0134,
      "velocity": 120,
      "chip": "ym2612"
    },
    {
      "channel": 0,
      "note": 46,
      "start": 10.2532,
      "duration": 0.0161,
      "velocity": 115,
      "chip": "ym2612"
    },
    {
      "channel": 4,
      "note": 60,
      "start": 10.2544,
      "duration": 0.0161,
      "velocity": 120,
      "chip": "ym2612"
    },
    {
      "channel": 3,
      "note": 55,
      "start": 10.2555,
      "duration": 0.0161,
      "velocity": 120,
      "chip": "ym2612"
    },
    {
      "channel": 0,
      "note": 46,
      "start": 10.2693,
      "duration": 0.0179,
      "velocity": 115,
      "chip": "ym2612"
    },
    {
      "channel": 4,
      "note": 60,
      "start": 10.2705,
      "duration": 0.0179,
      "velocity": 120,
      "chip": "ym2612"
    },
    {
      "channel": 3,
      "note": 55,
      "start": 10.2716,
      "duration": 0.0182,
      "velocity": 120,
      "chip": "ym2612"
    },
    {
      "channel": 0,
      "note": 36,
      "start": 10.2872,
      "duration": 0.0144,
      "velocity": 115,
      "chip": "ym2612"
    },
    {
      "channel": 4,
      "note": 60,
      "start": 10.2883,
      "duration": 0.0144,
      "velocity": 120,
      "chip": "ym2612"
    },
    {
      "channel": 3,
      "note": 55,
      "start": 10.2898,
      "duration": 0.0141,
      "velocity": 120,
      "chip": "ym2612"
    },
    {
      "channel": 2,
      "note": 48,
      "start": 10.2913,
      "duration": 0.0138,
      "velocity": 100,
      "chip": "ym2612"
    },
    {
      "channel": 1,
      "note": 36,
      "start": 10.2927,
      "duration": 0.0163,
      "velocity": 100,
      "chip": "ym2612"
    },
    {
      "channel": 0,
      "note": 36,
      "start": 10.3016,
      "duration": 0.016,
      "velocity": 115,
      "chip": "ym2612"
    },
    {
      "channel": 4,
      "note": 60,
      "start": 10.3027,
      "duration": 0.016,
      "velocity": 120,
      "chip": "ym2612"
    },
    {
      "channel": 3,
      "note": 55,
      "start": 10.3039,
      "duration": 0.016,
      "velocity": 120,
      "chip": "ym2612"
    },
    {
      "channel": 2,
      "note": 48,
      "start": 10.3051,
      "duration": 0.016,
      "velocity": 100,
      "chip": "ym2612"
    },
    {
      "channel": 1,
      "note": 36,
      "start": 10.309,
      "duration": 0.0132,
      "velocity": 100,
      "chip": "ym2612"
    },
    {
      "channel": 0,
      "note": 37,
      "start": 10.3176,
      "duration": 0.0161,
      "velocity": 115,
      "chip": "ym2612"
    },
    {
      "channel": 4,
      "note": 60,
      "start": 10.3188,
      "duration": 0.0161,
      "velocity": 120,
      "chip": "ym2612"
    },
    {
      "channel": 3,
      "note": 55,
      "start": 10.3199,
      "duration": 0.0161,
      "velocity": 120,
      "chip": "ym2612"
    },
    {
      "channel": 2,
      "note": 48,
      "start": 10.321,
      "duration": 0.0161,
      "velocity": 100,
      "chip": "ym2612"
    },
    {
      "channel": 1,
      "note": 36,
      "start": 10.3222,
      "duration": 0.0161,
      "velocity": 100,
      "chip": "ym2612"
    },
    {
      "channel": 0,
      "note": 37,
      "start": 10.3337,
      "duration": 0.0161,
      "velocity": 115,
      "chip": "ym2612"
    },
    {
      "channel": 4,
      "note": 60,
      "start": 10.3349,
      "duration": 0.0161,
      "velocity": 120,
      "chip": "ym2612"
    },
    {
      "channel": 3,
      "note": 55,
      "start": 10.336,
      "duration": 0.0161,
      "velocity": 120,
      "chip": "ym2612"
    },
    {
      "channel": 2,
      "note": 48,
      "start": 10.3371,
      "duration": 0.0161,
      "velocity": 100,
      "chip": "ym2612"
    },
    {
      "channel": 1,
      "note": 36,
      "start": 10.3383,
      "duration": 0.0161,
      "velocity": 100,
      "chip": "ym2612"
    },
    {
      "channel": 0,
      "note": 38,
      "start": 10.3498,
      "duration": 0.0162,
      "velocity": 115,
      "chip": "ym2612"
    },
    {
      "channel": 4,
      "note": 60,
      "start": 10.351,
      "duration": 0.0161,
      "velocity": 120,
      "chip": "ym2612"
    },
    {
      "channel": 3,
      "note": 55,
      "start": 10.3521,
      "duration": 0.0162,
      "velocity": 120,
      "chip": "ym2612"
    },
    {
      "channel": 2,
      "note": 48,
      "start": 10.3532,
      "duration": 0.0161,
      "velocity": 100,
      "chip": "ym2612"
    },
    {
      "channel": 1,
      "note": 36,
      "start": 10.3544,
      "duration": 0.0161,
      "velocity": 100,
      "chip": "ym2612"
    },
    {
      "channel": 0,
      "note": 38,
      "start": 10.366,
      "duration": 0.0161,
      "velocity": 115,
      "chip": "ym2612"
    },
    {
      "channel": 4,
      "note": 60,
      "start": 10.3671,
      "duration": 0.0161,
      "velocity": 120,
      "chip": "ym2612"
    },
    {
      "channel": 3,
      "note": 55,
      "start": 10.3683,
      "duration": 0.0161,
      "velocity": 120,
      "chip": "ym2612"
    },
    {
      "channel": 2,
      "note": 48,
      "start": 10.3693,
      "duration": 0.0161,
      "velocity": 100,
      "chip": "ym2612"
    },
    {
      "channel": 1,
      "note": 36,
      "start": 10.3705,
      "duration": 0.0161,
      "velocity": 100,
      "chip": "ym2612"
    },
    {
      "channel": 0,
      "note": 39,
      "start": 10.382,
      "duration": 0.0161,
      "velocity": 115,
      "chip": "ym2612"
    },
    {
      "channel": 4,
      "note": 60,
      "start": 10.3832,
      "duration": 0.0161,
      "velocity": 120,
      "chip": "ym2612"
    },
    {
      "channel": 3,
      "note": 55,
      "start": 10.3843,
      "duration": 0.0161,
      "velocity": 120,
      "chip": "ym2612"
    },
    {
      "channel": 2,
      "note": 48,
      "start": 10.3854,
      "duration": 0.0162,
      "velocity": 100,
      "chip": "ym2612"
    },
    {
      "channel": 1,
      "note": 36,
      "start": 10.3866,
      "duration": 0.0161,
      "velocity": 100,
      "chip": "ym2612"
    },
    {
      "channel": 0,
      "note": 39,
      "start": 10.3981,
      "duration": 0.0161,
      "velocity": 115,
      "chip": "ym2612"
    },
    {
      "channel": 4,
      "note": 60,
      "start": 10.3993,
      "duration": 0.0161,
      "velocity": 120,
      "chip": "ym2612"
    },
    {
      "channel": 3,
      "note": 55,
      "start": 10.4004,
      "duration": 0.0161,
      "velocity": 120,
      "chip": "ym2612"
    },
    {
      "channel": 0,
      "note": 40,
      "start": 10.4142,
      "duration": 0.0161,
      "velocity": 115,
      "chip": "ym2612"
    },
    {
      "channel": 4,
      "note": 60,
      "start": 10.4154,
      "duration": 0.0161,
      "velocity": 120,
      "chip": "ym2612"
    },
    {
      "channel": 3,
      "note": 55,
      "start": 10.4165,
      "duration": 0.0161,
      "velocity": 120,
      "chip": "ym2612"
    },
    {
      "channel": 0,
      "note": 40,
      "start": 10.4303,
      "duration": 0.0161,
      "velocity": 115,
      "chip": "ym2612"
    },
    {
      "channel": 4,
      "note": 60,
      "start": 10.4315,
      "duration": 0.0161,
      "velocity": 120,
      "chip": "ym2612"
    },
    {
      "channel": 3,
      "note": 55,
      "start": 10.4326,
      "duration": 0.0161,
      "velocity": 120,
      "chip": "ym2612"
    },
    {
      "channel": 0,
      "note": 40,
      "start": 10.4464,
      "duration": 0.0161,
      "velocity": 115,
      "chip": "ym2612"
    },
    {
      "channel": 4,
      "note": 60,
      "start": 10.4476,
      "duration": 0.0161,
      "velocity": 120,
      "chip": "ym2612"
    },
    {
      "channel": 3,
      "note": 55,
      "start": 10.4487,
      "duration": 0.0161,
      "velocity": 120,
      "chip": "ym2612"
    },
    {
      "channel": 0,
      "note": 41,
      "start": 10.4625,
      "duration": 0.0195,
      "velocity": 115,
      "chip": "ym2612"
    },
    {
      "channel": 4,
      "note": 60,
      "start": 10.4637,
      "duration": 0.0196,
      "velocity": 120,
      "chip": "ym2612"
    },
    {
      "channel": 3,
      "note": 55,
      "start": 10.4648,
      "duration": 0.0196,
      "velocity": 120,
      "chip": "ym2612"
    },
    {
      "channel": 1,
      "note": 78,
      "start": 10.4803,
      "duration": 0.0144,
      "velocity": 124,
      "chip": "ym2612"
    },
    {
      "channel": 0,
      "note": 41,
      "start": 10.482,
      "duration": 0.0144,
      "velocity": 115,
      "chip": "ym2612"
    },
    {
      "channel": 4,
      "note": 60,
      "start": 10.4833,
      "duration": 0.0143,
      "velocity": 120,
      "chip": "ym2612"
    },
    {
      "channel": 3,
      "note": 55,
      "start": 10.4844,
      "duration": 0.0143,
      "velocity": 120,
      "chip": "ym2612"
    },
    {
      "channel": 2,
      "note": 48,
      "start": 10.4858,
      "duration": 0.0141,
      "velocity": 100,
      "chip": "ym2612"
    },
    {
      "channel": 1,
      "note": 76,
      "start": 10.4947,
      "duration": 0.016,
      "velocity": 124,
      "chip": "ym2612"
    },
    {
      "channel": 0,
      "note": 42,
      "start": 10.4964,
      "duration": 0.0161,
      "velocity": 115,
      "chip": "ym2612"
    },
    {
      "channel": 4,
      "note": 60,
      "start": 10.4976,
      "duration": 0.0161,
      "velocity": 120,
      "chip": "ym2612"
    },
    {
      "channel": 3,
      "note": 55,
      "start": 10.4987,
      "duration": 0.0161,
      "velocity": 120,
      "chip": "ym2612"
    },
    {
      "channel": 2,
      "note": 48,
      "start": 10.4999,
      "duration": 0.016,
      "velocity": 100,
      "chip": "ym2612"
    },
    {
      "channel": 1,
      "note": 75,
      "start": 10.5107,
      "duration": 0.0165,
      "velocity": 124,
      "chip": "ym2612"
    },
    {
      "channel": 0,
      "note": 42,
      "start": 10.5125,
      "duration": 0.0165,
      "velocity": 115,
      "chip": "ym2612"
    },
    {
      "channel": 4,
      "note": 60,
      "start": 10.5137,
      "duration": 0.0165,
      "velocity": 120,
      "chip": "ym2612"
    },
    {
      "channel": 3,
      "note": 55,
      "start": 10.5148,
      "duration": 0.0165,
      "velocity": 120,
      "chip": "ym2612"
    },
    {
      "channel": 2,
      "note": 48,
      "start": 10.5159,
      "duration": 0.0165,
      "velocity": 100,
      "chip": "ym2612"
    },
    {
      "channel": 1,
      "note": 74,
      "start": 10.5272,
      "duration": 0.0163,
      "velocity": 124,
      "chip": "ym2612"
    },
    {
      "channel": 0,
      "note": 43,
      "start": 10.529,
      "duration": 0.0163,
      "velocity": 115,
      "chip": "ym2612"
    },
    {
      "channel": 4,
      "note": 60,
      "start": 10.5301,
      "duration": 0.0163,
      "velocity": 120,
      "chip": "ym2612"
    },
    {
      "channel": 3,
      "note": 55,
      "start": 10.5313,
      "duration": 0.0163,
      "velocity": 120,
      "chip": "ym2612"
    },
    {
      "channel": 2,
      "note": 48,
      "start": 10.5324,
      "duration": 0.0163,
      "velocity": 100,
      "chip": "ym2612"
    },
    {
      "channel": 1,
      "note": 72,
      "start": 10.5436,
      "duration": 0.0155,
      "velocity": 124,
      "chip": "ym2612"
    },
    {
      "channel": 0,
      "note": 43,
      "start": 10.5453,
      "duration": 0.0155,
      "velocity": 115,
      "chip": "ym2612"
    },
    {
      "channel": 4,
      "note": 60,
      "start": 10.5464,
      "duration": 0.0155,
      "velocity": 120,
      "chip": "ym2612"
    },
    {
      "channel": 3,
      "note": 55,
      "start": 10.5476,
      "duration": 0.0155,
      "velocity": 120,
      "chip": "ym2612"
    },
    {
      "channel": 2,
      "note": 48,
      "start": 10.5487,
      "duration": 0.0155,
      "velocity": 100,
      "chip": "ym2612"
    },
    {
      "channel": 1,
      "note": 71,
      "start": 10.5591,
      "duration": 0.0181,
      "velocity": 124,
      "chip": "ym2612"
    },
    {
      "channel": 0,
      "note": 44,
      "start": 10.5608,
      "duration": 0.0182,
      "velocity": 115,
      "chip": "ym2612"
    },
    {
      "channel": 4,
      "note": 60,
      "start": 10.562,
      "duration": 0.0182,
      "velocity": 120,
      "chip": "ym2612"
    },
    {
      "channel": 3,
      "note": 55,
      "start": 10.5631,
      "duration": 0.0182,
      "velocity": 120,
      "chip": "ym2612"
    },
    {
      "channel": 2,
      "note": 48,
      "start": 10.5642,
      "duration": 0.0181,
      "velocity": 100,
      "chip": "ym2612"
    },
    {
      "channel": 1,
      "note": 70,
      "start": 10.5772,
      "duration": 0.0167,
      "velocity": 124,
      "chip": "ym2612"
    },
    {
      "channel": 0,
      "note": 44,
      "start": 10.579,
      "duration": 0.0167,
      "velocity": 115,
      "chip": "ym2612"
    },
    {
      "channel": 4,
      "note": 60,
      "start": 10.5801,
      "duration": 0.0167,
      "velocity": 120,
      "chip": "ym2612"
    },
    {
      "channel": 3,
      "note": 55,
      "start": 10.5813,
      "duration": 0.0167,
      "velocity": 120,
      "chip": "ym2612"
    },
    {
      "channel": 2,
      "note": 48,
      "start": 10.5824,
      "duration": 0.0167,
      "velocity": 100,
      "chip": "ym2612"
    },
    {
      "channel": 1,
      "note": 69,
      "start": 10.5939,
      "duration": 0.0159,
      "velocity": 124,
      "chip": "ym2612"
    },
    {
      "channel": 0,
      "note": 44,
      "start": 10.5957,
      "duration": 0.0158,
      "velocity": 115,
      "chip": "ym2612"
    },
    {
      "channel": 4,
      "note": 60,
      "start": 10.5968,
      "duration": 0.0159,
      "velocity": 120,
      "chip": "ym2612"
    },
    {
      "channel": 3,
      "note": 55,
      "start": 10.598,
      "duration": 0.0158,
      "velocity": 120,
      "chip": "ym2612"
    },
    {
      "channel": 1,
      "note": 68,
      "start": 10.6098,
      "duration": 0.014,
      "velocity": 124,
      "chip": "ym2612"
    },
    {
      "channel": 0,
      "note": 45,
      "start": 10.6115,
      "duration": 0.014,
      "velocity": 115,
      "chip": "ym2612"
    },
    {
      "channel": 4,
      "note": 60,
      "start": 10.6127,
      "duration": 0.014,
      "velocity": 120,
      "chip": "ym2612"
    },
    {
      "channel": 3,
      "note": 55,
      "start": 10.6138,
      "duration": 0.014,
      "velocity": 120,
      "chip": "ym2612"
    },
    {
      "channel": 1,
      "note": 66,
      "start": 10.6238,
      "duration": 0.0185,
      "velocity": 124,
      "chip": "ym2612"
    },
    {
      "channel": 0,
      "note": 45,
      "start": 10.6255,
      "duration": 0.0185,
      "velocity": 115,
      "chip": "ym2612"
    },
    {
      "channel": 4,
      "note": 60,
      "start": 10.6266,
      "duration": 0.0185,
      "velocity": 120,
      "chip": "ym2612"
    },
    {
      "channel": 3,
      "note": 55,
      "start": 10.6278,
      "duration": 0.0185,
      "velocity": 120,
      "chip": "ym2612"
    },
    {
      "channel": 1,
      "note": 65,
      "start": 10.6423,
      "duration": 0.0134,
      "velocity": 124,
      "chip": "ym2612"
    },
    {
      "channel": 0,
      "note": 46,
      "start": 10.644,
      "duration": 0.0161,
      "velocity": 115,
      "chip": "ym2612"
    },
    {
      "channel": 4,
      "note": 60,
      "start": 10.6451,
      "duration": 0.0162,
      "velocity": 120,
      "chip": "ym2612"
    },
    {
      "channel": 3,
      "note": 55,
      "start": 10.6463,
      "duration": 0.0161,
      "velocity": 120,
      "chip": "ym2612"
    },
    {
      "channel": 1,
      "note": 64,
      "start": 10.6556,
      "duration": 0.0161,
      "velocity": 124,
      "chip": "ym2612"
    },
    {
      "channel": 0,
      "note": 46,
      "start": 10.6602,
      "duration": 0.0157,
      "velocity": 115,
      "chip": "ym2612"
    },
    {
      "channel": 4,
      "note": 60,
      "start": 10.6613,
      "duration": 0.0157,
      "velocity": 120,
      "chip": "ym2612"
    },
    {
      "channel": 3,
      "note": 55,
      "start": 10.6624,
      "duration": 0.0157,
      "velocity": 120,
      "chip": "ym2612"
    },
    {
      "channel": 1,
      "note": 62,
      "start": 10.6717,
      "duration": 0.0161,
      "velocity": 124,
      "chip": "ym2612"
    },
    {
      "channel": 0,
      "note": 47,
      "start": 10.6759,
      "duration": 0.0141,
      "velocity": 115,
      "chip": "ym2612"
    },
    {
      "channel": 4,
      "note": 60,
      "start": 10.677,
      "duration": 0.0141,
      "velocity": 120,
      "chip": "ym2612"
    },
    {
      "channel": 3,
      "note": 55,
      "start": 10.6782,
      "duration": 0.0141,
      "velocity": 120,
      "chip": "ym2612"
    },
    {
      "channel": 2,
      "note": 48,
      "start": 10.6796,
      "duration": 0.0137,
      "velocity": 100,
      "chip": "ym2612"
    },
    {
      "channel": 1,
      "note": 61,
      "start": 10.6878,
      "duration": 0.0161,
      "velocity": 124,
      "chip": "ym2612"
    },
    {
      "channel": 0,
      "note": 47,
      "start": 10.6899,
      "duration": 0.0158,
      "velocity": 115,
      "chip": "ym2612"
    },
    {
      "channel": 4,
      "note": 60,
      "start": 10.6911,
      "duration": 0.0185,
      "velocity": 120,
      "chip": "ym2612"
    },
    {
      "channel": 3,
      "note": 55,
      "start": 10.6922,
      "duration": 0.0185,
      "velocity": 120,
      "chip": "ym2612"
    },
    {
      "channel": 2,
      "note": 48,
      "start": 10.6934,
      "duration": 0.0185,
      "velocity": 100,
      "chip": "ym2612"
    },
    {
      "channel": 1,
      "note": 60,
      "start": 10.704,
      "duration": 0.0161,
      "velocity": 124,
      "chip": "ym2612"
    },
    {
      "channel": 0,
      "note": 47,
      "start": 10.7057,
      "duration": 0.0161,
      "velocity": 115,
      "chip": "ym2612"
    },
    {
      "channel": 4,
      "note": 60,
      "start": 10.7096,
      "duration": 0.0161,
      "velocity": 120,
      "chip": "ym2612"
    },
    {
      "channel": 3,
      "note": 55,
      "start": 10.7107,
      "duration": 0.0161,
      "velocity": 120,
      "chip": "ym2612"
    },
    {
      "channel": 2,
      "note": 48,
      "start": 10.7119,
      "duration": 0.0161,
      "velocity": 100,
      "chip": "ym2612"
    },
    {
      "channel": 1,
      "note": 59,
      "start": 10.7201,
      "duration": 0.0161,
      "velocity": 124,
      "chip": "ym2612"
    },
    {
      "channel": 0,
      "note": 48,
      "start": 10.7218,
      "duration": 0.0161,
      "velocity": 115,
      "chip": "ym2612"
    },
    {
      "channel": 4,
      "note": 60,
      "start": 10.7257,
      "duration": 0.0134,
      "velocity": 120,
      "chip": "ym2612"
    },
    {
      "channel": 3,
      "note": 55,
      "start": 10.7268,
      "duration": 0.0157,
      "velocity": 120,
      "chip": "ym2612"
    },
    {
      "channel": 2,
      "note": 48,
      "start": 10.728,
      "duration": 0.0157,
      "velocity": 100,
      "chip": "ym2612"
    },
    {
      "channel": 1,
      "note": 57,
      "start": 10.7362,
      "duration": 0.0161,
      "velocity": 124,
      "chip": "ym2612"
    },
    {
      "channel": 0,
      "note": 48,
      "start": 10.7379,
      "duration": 0.0161,
      "velocity": 115,
      "chip": "ym2612"
    },
    {
      "channel": 4,
      "note": 60,
      "start": 10.739,
      "duration": 0.0161,
      "velocity": 120,
      "chip": "ym2612"
    },
    {
      "channel": 3,
      "note": 55,
      "start": 10.7425,
      "duration": 0.0141,
      "velocity": 120,
      "chip": "ym2612"
    },
    {
      "channel": 2,
      "note": 48,
      "start": 10.7437,
      "duration": 0.0141,
      "velocity": 100,
      "chip": "ym2612"
    },
    {
      "channel": 1,
      "note": 56,
      "start": 10.7523,
      "duration": 0.0161,
      "velocity": 124,
      "chip": "ym2612"
    },
    {
      "channel": 0,
      "note": 49,
      "start": 10.754,
      "duration": 0.0153,
      "velocity": 1,
      "chip": "ym2612"
    },
    {
      "channel": 4,
      "note": 60,
      "start": 10.7551,
      "duration": 0.0153,
      "velocity": 120,
      "chip": "ym2612"
    },
    {
      "channel": 3,
      "note": 55,
      "start": 10.7566,
      "duration": 0.015,
      "velocity": 120,
      "chip": "ym2612"
    },
    {
      "channel": 2,
      "note": 48,
      "start": 10.7578,
      "duration": 0.0177,
      "velocity": 100,
      "chip": "ym2612"
    },
    {
      "channel": 1,
      "note": 55,
      "start": 10.7684,
      "duration": 0.0161,
      "velocity": 124,
      "chip": "ym2612"
    },
    {
      "channel": 4,
      "note": 60,
      "start": 10.7705,
      "duration": 0.0152,
      "velocity": 120,
      "chip": "ym2612"
    },
    {
      "channel": 3,
      "note": 55,
      "start": 10.7716,
      "duration": 0.0152,
      "velocity": 120,
      "chip": "ym2612"
    },
    {
      "channel": 2,
      "note": 48,
      "start": 10.7755,
      "duration": 0.0125,
      "velocity": 100,
      "chip": "ym2612"
    },
    {
      "channel": 1,
      "note": 53,
      "start": 10.7845,
      "duration": 0.0161,
      "velocity": 124,
      "chip": "ym2612"
    },
    {
      "channel": 4,
      "note": 60,
      "start": 10.7857,
      "duration": 0.0162,
      "velocity": 120,
      "chip": "ym2612"
    },
    {
      "channel": 3,
      "note": 55,
      "start": 10.7868,
      "duration": 0.0161,
      "velocity": 120,
      "chip": "ym2612"
    },
    {
      "channel": 1,
      "note": 52,
      "start": 10.8006,
      "duration": 0.0161,
      "velocity": 124,
      "chip": "ym2612"
    },
    {
      "channel": 4,
      "note": 60,
      "start": 10.8018,
      "duration": 0.0161,
      "velocity": 120,
      "chip": "ym2612"
    },
    {
      "channel": 3,
      "note": 55,
      "start": 10.803,
      "duration": 0.0161,
      "velocity": 120,
      "chip": "ym2612"
    },
    {
      "channel": 1,
      "note": 51,
      "start": 10.8167,
      "duration": 0.0153,
      "velocity": 1,
      "chip": "ym2612"
    },
    {
      "channel": 4,
      "note": 60,
      "start": 10.8179,
      "duration": 0.0153,
      "velocity": 120,
      "chip": "ym2612"
    },
    {
      "channel": 3,
      "note": 55,
      "start": 10.8191,
      "duration": 0.0153,
      "velocity": 120,
      "chip": "ym2612"
    },
    {
      "channel": 4,
      "note": 60,
      "start": 10.8332,
      "duration": 0.0153,
      "velocity": 120,
      "chip": "ym2612"
    },
    {
      "channel": 3,
      "note": 55,
      "start": 10.8343,
      "duration": 0.0153,
      "velocity": 120,
      "chip": "ym2612"
    },
    {
      "channel": 4,
      "note": 60,
      "start": 10.8485,
      "duration": 0.0198,
      "velocity": 120,
      "chip": "ym2612"
    },
    {
      "channel": 3,
      "note": 55,
      "start": 10.8496,
      "duration": 0.02,
      "velocity": 120,
      "chip": "ym2612"
    },
    {
      "channel": 0,
      "note": 36,
      "start": 10.8668,
      "duration": 0.0144,
      "velocity": 115,
      "chip": "ym2612"
    },
    {
      "channel": 4,
      "note": 63,
      "start": 10.8683,
      "duration": 0.0141,
      "velocity": 120,
      "chip": "ym2612"
    },
    {
      "channel": 3,
      "note": 58,
      "start": 10.8696,
      "duration": 0.014,
      "velocity": 120,
      "chip": "ym2612"
    },
    {
      "channel": 2,
      "note": 51,
      "start": 10.8711,
      "duration": 0.0137,
      "velocity": 100,
      "chip": "ym2612"
    },
    {
      "channel": 1,
      "note": 39,
      "start": 10.8726,
      "duration": 0.0134,
      "velocity": 100,
      "chip": "ym2612"
    },
    {
      "channel": 0,
      "note": 36,
      "start": 10.8812,
      "duration": 0.016,
      "velocity": 115,
      "chip": "ym2612"
    },
    {
      "channel": 4,
      "note": 63,
      "start": 10.8824,
      "duration": 0.016,
      "velocity": 120,
      "chip": "ym2612"
    },
    {
      "channel": 3,
      "note": 58,
      "start": 10.8837,
      "duration": 0.0159,
      "velocity": 120,
      "chip": "ym2612"
    },
    {
      "channel": 2,
      "note": 51,
      "start": 10.8849,
      "duration": 0.0158,
      "velocity": 100,
      "chip": "ym2612"
    },
    {
      "channel": 1,
      "note": 39,
      "start": 10.886,
      "duration": 0.0158,
      "velocity": 100,
      "chip": "ym2612"
    },
    {
      "channel": 0,
      "note": 37,
      "start": 10.8973,
      "duration": 0.0161,
      "velocity": 115,
      "chip": "ym2612"
    },
    {
      "channel": 4,
      "note": 63,
      "start": 10.8984,
      "duration": 0.0161,
      "velocity": 120,
      "chip": "ym2612"
    },
    {
      "channel": 3,
      "note": 58,
      "start": 10.8995,
      "duration": 0.0161,
      "velocity": 120,
      "chip": "ym2612"
    },
    {
      "channel": 2,
      "note": 51,
      "start": 10.9007,
      "duration": 0.0161,
      "velocity": 100,
      "chip": "ym2612"
    },
    {
      "channel": 1,
      "note": 39,
      "start": 10.9018,
      "duration": 0.0162,
      "velocity": 100,
      "chip": "ym2612"
    },
    {
      "channel": 0,
      "note": 37,
      "start": 10.9134,
      "duration": 0.0161,
      "velocity": 115,
      "chip": "ym2612"
    },
    {
      "channel": 4,
      "note": 63,
      "start": 10.9145,
      "duration": 0.0161,
      "velocity": 120,
      "chip": "ym2612"
    },
    {
      "channel": 3,
      "note": 58,
      "start": 10.9156,
      "duration": 0.0161,
      "velocity": 120,
      "chip": "ym2612"
    },
    {
      "channel": 2,
      "note": 51,
      "start": 10.9168,
      "duration": 0.0161,
      "velocity": 100,
      "chip": "ym2612"
    },
    {
      "channel": 1,
      "note": 39,
      "start": 10.9179,
      "duration": 0.0161,
      "velocity": 100,
      "chip": "ym2612"
    },
    {
      "channel": 0,
      "note": 38,
      "start": 10.9294,
      "duration": 0.0161,
      "velocity": 115,
      "chip": "ym2612"
    },
    {
      "channel": 4,
      "note": 63,
      "start": 10.9306,
      "duration": 0.0161,
      "velocity": 120,
      "chip": "ym2612"
    },
    {
      "channel": 3,
      "note": 58,
      "start": 10.9317,
      "duration": 0.0161,
      "velocity": 120,
      "chip": "ym2612"
    },
    {
      "channel": 2,
      "note": 51,
      "start": 10.9329,
      "duration": 0.0161,
      "velocity": 100,
      "chip": "ym2612"
    },
    {
      "channel": 1,
      "note": 39,
      "start": 10.934,
      "duration": 0.0161,
      "velocity": 100,
      "chip": "ym2612"
    },
    {
      "channel": 0,
      "note": 38,
      "start": 10.9455,
      "duration": 0.0162,
      "velocity": 115,
      "chip": "ym2612"
    },
    {
      "channel": 4,
      "note": 63,
      "start": 10.9467,
      "duration": 0.0161,
      "velocity": 120,
      "chip": "ym2612"
    },
    {
      "channel": 3,
      "note": 58,
      "start": 10.9478,
      "duration": 0.0162,
      "velocity": 120,
      "chip": "ym2612"
    },
    {
      "channel": 2,
      "note": 51,
      "start": 10.949,
      "duration": 0.0161,
      "velocity": 100,
      "chip": "ym2612"
    },
    {
      "channel": 1,
      "note": 39,
      "start": 10.9501,
      "duration": 0.0161,
      "velocity": 100,
      "chip": "ym2612"
    },
    {
      "channel": 0,
      "note": 39,
      "start": 10.9617,
      "duration": 0.0161,
      "velocity": 115,
      "chip": "ym2612"
    },
    {
      "channel": 4,
      "note": 63,
      "start": 10.9628,
      "duration": 0.0161,
      "velocity": 120,
      "chip": "ym2612"
    },
    {
      "channel": 3,
      "note": 58,
      "start": 10.964,
      "duration": 0.0161,
      "velocity": 120,
      "chip": "ym2612"
    },
    {
      "channel": 2,
      "note": 51,
      "start": 10.9651,
      "duration": 0.0162,
      "velocity": 100,
      "chip": "ym2612"
    },
    {
      "channel": 1,
      "note": 39,
      "start": 10.9662,
      "duration": 0.0161,
      "velocity": 100,
      "chip": "ym2612"
    },
    {
      "channel": 0,
      "note": 39,
      "start": 10.9778,
      "duration": 0.0162,
      "velocity": 115,
      "chip": "ym2612"
    },
    {
      "channel": 4,
      "note": 63,
      "start": 10.9789,
      "duration": 0.0162,
      "velocity": 120,
      "chip": "ym2612"
    },
    {
      "channel": 3,
      "note": 58,
      "start": 10.9801,
      "duration": 0.0162,
      "velocity": 120,
      "chip": "ym2612"
    },
    {
      "channel": 0,
      "note": 40,
      "start": 10.994,
      "duration": 0.0163,
      "velocity": 115,
      "chip": "ym2612"
    },
    {
      "channel": 4,
      "note": 63,
      "start": 10.9951,
      "duration": 0.0163,
      "velocity": 120,
      "chip": "ym2612"
    },
    {
      "channel": 3,
      "note": 58,
      "start": 10.9963,
      "duration": 0.0163,
      "velocity": 120,
      "chip": "ym2612"
    },
    {
      "channel": 0,
      "note": 40,
      "start": 11.0103,
      "duration": 0.0158,
      "velocity": 115,
      "chip": "ym2612"
    },
    {
      "channel": 4,
      "note": 63,
      "start": 11.0114,
      "duration": 0.0158,
      "velocity": 120,
      "chip": "ym2612"
    },
    {
      "channel": 3,
      "note": 58,
      "start": 11.0126,
      "duration": 0.0158,
      "velocity": 120,
      "chip": "ym2612"
    },
    {
      "channel": 0,
      "note": 40,
      "start": 11.0261,
      "duration": 0.0179,
      "velocity": 115,
      "chip": "ym2612"
    },
    {
      "channel": 4,
      "note": 63,
      "start": 11.0272,
      "duration": 0.0179,
      "velocity": 120,
      "chip": "ym2612"
    },
    {
      "channel": 3,
      "note": 58,
      "start": 11.0284,
      "duration": 0.0179,
      "velocity": 120,
      "chip": "ym2612"
    },
    {
      "channel": 0,
      "note": 41,
      "start": 11.0439,
      "duration": 0.0167,
      "velocity": 115,
      "chip": "ym2612"
    },
    {
      "channel": 4,
      "note": 63,
      "start": 11.0451,
      "duration": 0.0169,
      "velocity": 120,
      "chip": "ym2612"
    },
    {
      "channel": 3,
      "note": 58,
      "start": 11.0462,
      "duration": 0.0172,
      "velocity": 120,
      "chip": "ym2612"
    },
    {
      "channel": 0,
      "note": 41,
      "start": 11.0607,
      "duration": 0.0161,
      "velocity": 115,
      "chip": "ym2612"
    },
    {
      "channel": 4,
      "note": 60,
      "start": 11.0621,
      "duration": 0.0159,
      "velocity": 120,
      "chip": "ym2612"
    },
    {
      "channel": 3,
      "note": 55,
      "start": 11.0635,
      "duration": 0.0157,
      "velocity": 120,
      "chip": "ym2612"
    },
    {
      "channel": 2,
      "note": 48,
      "start": 11.0649,
      "duration": 0.0155,
      "velocity": 100,
      "chip": "ym2612"
    },
    {
      "channel": 1,
      "note": 36,
      "start": 11.0663,
      "duration": 0.0153,
      "velocity": 100,
      "chip": "ym2612"
    },
    {
      "channel": 0,
      "note": 42,
      "start": 11.0768,
      "duration": 0.0141,
      "velocity": 115,
      "chip": "ym2612"
    },
    {
      "channel": 4,
      "note": 60,
      "start": 11.078,
      "duration": 0.014,
      "velocity": 120,
      "chip": "ym2612"
    },
    {
      "channel": 3,
      "note": 55,
      "start": 11.0792,
      "duration": 0.0139,
      "velocity": 120,
      "chip": "ym2612"
    },
    {
      "channel": 2,
      "note": 48,
      "start": 11.0804,
      "duration": 0.0139,
      "velocity": 100,
      "chip": "ym2612"
    },
    {
      "channel": 1,
      "note": 36,
      "start": 11.0815,
      "duration": 0.0138,
      "velocity": 100,
      "chip": "ym2612"
    },
    {
      "channel": 0,
      "note": 42,
      "start": 11.0908,
      "duration": 0.0185,
      "velocity": 115,
      "chip": "ym2612"
    },
    {
      "channel": 4,
      "note": 60,
      "start": 11.092,
      "duration": 0.0185,
      "velocity": 120,
      "chip": "ym2612"
    },
    {
      "channel": 3,
      "note": 55,
      "start": 11.0931,
      "duration": 0.0185,
      "velocity": 120,
      "chip": "ym2612"
    },
    {
      "channel": 2,
      "note": 48,
      "start": 11.0943,
      "duration": 0.0185,
      "velocity": 100,
      "chip": "ym2612"
    },
    {
      "channel": 1,
      "note": 36,
      "start": 11.0954,
      "duration": 0.0185,
      "velocity": 100,
      "chip": "ym2612"
    },
    {
      "channel": 0,
      "note": 43,
      "start": 11.1093,
      "duration": 0.0161,
      "velocity": 115,
      "chip": "ym2612"
    },
    {
      "channel": 4,
      "note": 60,
      "start": 11.1105,
      "duration": 0.0161,
      "velocity": 120,
      "chip": "ym2612"
    },
    {
      "channel": 3,
      "note": 55,
      "start": 11.1116,
      "duration": 0.0161,
      "velocity": 120,
      "chip": "ym2612"
    },
    {
      "channel": 2,
      "note": 48,
      "start": 11.1128,
      "duration": 0.016,
      "velocity": 100,
      "chip": "ym2612"
    },
    {
      "channel": 1,
      "note": 36,
      "start": 11.1139,
      "duration": 0.0161,
      "velocity": 100,
      "chip": "ym2612"
    },
    {
      "channel": 0,
      "note": 43,
      "start": 11.1254,
      "duration": 0.0134,
      "velocity": 115,
      "chip": "ym2612"
    },
    {
      "channel": 4,
      "note": 60,
      "start": 11.1266,
      "duration": 0.0158,
      "velocity": 120,
      "chip": "ym2612"
    },
    {
      "channel": 3,
      "note": 55,
      "start": 11.1277,
      "duration": 0.0158,
      "velocity": 120,
      "chip": "ym2612"
    },
    {
      "channel": 2,
      "note": 48,
      "start": 11.1288,
      "duration": 0.0158,
      "velocity": 100,
      "chip": "ym2612"
    },
    {
      "channel": 1,
      "note": 36,
      "start": 11.13,
      "duration": 0.0158,
      "velocity": 100,
      "chip": "ym2612"
    },
    {
      "channel": 0,
      "note": 44,
      "start": 11.1388,
      "duration": 0.0161,
      "velocity": 115,
      "chip": "ym2612"
    },
    {
      "channel": 4,
      "note": 60,
      "start": 11.1424,
      "duration": 0.014,
      "velocity": 120,
      "chip": "ym2612"
    },
    {
      "channel": 3,
      "note": 55,
      "start": 11.1435,
      "duration": 0.014,
      "velocity": 120,
      "chip": "ym2612"
    },
    {
      "channel": 2,
      "note": 48,
      "start": 11.1446,
      "duration": 0.0141,
      "velocity": 100,
      "chip": "ym2612"
    },
    {
      "channel": 1,
      "note": 36,
      "start": 11.1457,
      "duration": 0.0141,
      "velocity": 100,
      "chip": "ym2612"
    },
    {
      "channel": 0,
      "note": 44,
      "start": 11.1549,
      "duration": 0.0161,
      "velocity": 115,
      "chip": "ym2612"
    },
    {
      "channel": 4,
      "note": 60,
      "start": 11.1563,
      "duration": 0.0158,
      "velocity": 120,
      "chip": "ym2612"
    },
    {
      "channel": 3,
      "note": 55,
      "start": 11.1575,
      "duration": 0.0185,
      "velocity": 120,
      "chip": "ym2612"
    },
    {
      "channel": 2,
      "note": 48,
      "start": 11.1586,
      "duration": 0.0185,
      "velocity": 100,
      "chip": "ym2612"
    },
    {
      "channel": 1,
      "note": 36,
      "start": 11.1598,
      "duration": 0.0185,
      "velocity": 100,
      "chip": "ym2612"
    },
    {
      "channel": 0,
      "note": 44,
      "start": 11.171,
      "duration": 0.0161,
      "velocity": 115,
      "chip": "ym2612"
    },
    {
      "channel": 4,
      "note": 60,
      "start": 11.1721,
      "duration": 0.0161,
      "velocity": 120,
      "chip": "ym2612"
    },
    {
      "channel": 3,
      "note": 55,
      "start": 11.176,
      "duration": 0.0161,
      "velocity": 120,
      "chip": "ym2612"
    },
    {
      "channel": 0,
      "note": 45,
      "start": 11.1871,
      "duration": 0.0161,
      "velocity": 115,
      "chip": "ym2612"
    },
    {
      "channel": 4,
      "note": 60,
      "start": 11.1882,
      "duration": 0.0161,
      "velocity": 120,
      "chip": "ym2612"
    },
    {
      "channel": 3,
      "note": 55,
      "start": 11.1921,
      "duration": 0.0134,
      "velocity": 120,
      "chip": "ym2612"
    },
    {
      "channel": 0,
      "note": 45,
      "start": 11.2032,
      "duration": 0.0161,
      "velocity": 115,
      "chip": "ym2612"
    },
    {
      "channel": 4,
      "note": 60,
      "start": 11.2043,
      "duration": 0.0161,
      "velocity": 120,
      "chip": "ym2612"
    },
    {
      "channel": 3,
      "note": 55,
      "start": 11.2055,
      "duration": 0.0161,
      "velocity": 120,
      "chip": "ym2612"
    },
    {
      "channel": 0,
      "note": 46,
      "start": 11.2193,
      "duration": 0.0161,
      "velocity": 115,
      "chip": "ym2612"
    },
    {
      "channel": 4,
      "note": 60,
      "start": 11.2204,
      "duration": 0.0161,
      "velocity": 120,
      "chip": "ym2612"
    },
    {
      "channel": 3,
      "note": 55,
      "start": 11.2216,
      "duration": 0.0161,
      "velocity": 120,
      "chip": "ym2612"
    },
    {
      "channel": 0,
      "note": 46,
      "start": 11.2354,
      "duration": 0.0196,
      "velocity": 115,
      "chip": "ym2612"
    },
    {
      "channel": 4,
      "note": 60,
      "start": 11.2365,
      "duration": 0.0226,
      "velocity": 120,
      "chip": "ym2612"
    },
    {
      "channel": 3,
      "note": 55,
      "start": 11.2376,
      "duration": 0.0228,
      "velocity": 120,
      "chip": "ym2612"
    },
    {
      "channel": 1,
      "note": 78,
      "start": 11.2532,
      "duration": 0.0143,
      "velocity": 124,
      "chip": "ym2612"
    },
    {
      "channel": 0,
      "note": 47,
      "start": 11.2549,
      "duration": 0.0143,
      "velocity": 115,
      "chip": "ym2612"
    },
    {
      "channel": 4,
      "note": 63,
      "start": 11.2591,
      "duration": 0.0113,
      "velocity": 120,
      "chip": "ym2612"
    },
    {
      "channel": 3,
      "note": 58,
      "start": 11.2605,
      "duration": 0.0112,
      "velocity": 120,
      "chip": "ym2612"
    },
    {
      "channel": 2,
      "note": 51,
      "start": 11.2619,
      "duration": 0.0134,
      "velocity": 100,
      "chip": "ym2612"
    },
    {
      "channel": 1,
      "note": 76,
      "start": 11.2676,
      "duration": 0.0161,
      "velocity": 124,
      "chip": "ym2612"
    },
    {
      "channel": 0,
      "note": 47,
      "start": 11.2693,
      "duration": 0.0161,
      "velocity": 115,
      "chip": "ym2612"
    },
    {
      "channel": 4,
      "note": 63,
      "start": 11.2705,
      "duration": 0.016,
      "velocity": 120,
      "chip": "ym2612"
    },
    {
      "channel": 3,
      "note": 58,
      "start": 11.2717,
      "duration": 0.016,
      "velocity": 120,
      "chip": "ym2612"
    },
    {
      "channel": 2,
      "note": 51,
      "start": 11.2752,
      "duration": 0.0136,
      "velocity": 100,
      "chip": "ym2612"
    },
    {
      "channel": 1,
      "note": 75,
      "start": 11.2837,
      "duration": 0.0161,
      "velocity": 124,
      "chip": "ym2612"
    },
    {
      "channel": 0,
      "note": 47,
      "start": 11.2854,
      "duration": 0.0161,
      "velocity": 115,
      "chip": "ym2612"
    },
    {
      "channel": 4,
      "note": 63,
      "start": 11.2865,
      "duration": 0.0161,
      "velocity": 120,
      "chip": "ym2612"
    },
    {
      "channel": 3,
      "note": 58,
      "start": 11.2876,
      "duration": 0.0161,
      "velocity": 120,
      "chip": "ym2612"
    },
    {
      "channel": 2,
      "note": 51,
      "start": 11.2888,
      "duration": 0.0161,
      "velocity": 100,
      "chip": "ym2612"
    },
    {
      "channel": 1,
      "note": 74,
      "start": 11.2997,
      "duration": 0.0161,
      "velocity": 124,
      "chip": "ym2612"
    },
    {
      "channel": 0,
      "note": 48,
      "start": 11.3015,
      "duration": 0.0161,
      "velocity": 115,
      "chip": "ym2612"
    },
    {
      "channel": 4,
      "note": 63,
      "start": 11.3026,
      "duration": 0.0161,
      "velocity": 120,
      "chip": "ym2612"
    },
    {
      "channel": 3,
      "note": 58,
      "start": 11.3037,
      "duration": 0.0161,
      "velocity": 120,
      "chip": "ym2612"
    },
    {
      "channel": 2,
      "note": 51,
      "start": 11.3049,
      "duration": 0.0161,
      "velocity": 100,
      "chip": "ym2612"
    },
    {
      "channel": 1,
      "note": 72,
      "start": 11.3158,
      "duration": 0.0161,
      "velocity": 124,
      "chip": "ym2612"
    },
    {
      "channel": 0,
      "note": 48,
      "start": 11.3176,
      "duration": 0.0161,
      "velocity": 115,
      "chip": "ym2612"
    },
    {
      "channel": 4,
      "note": 63,
      "start": 11.3187,
      "duration": 0.0161,
      "velocity": 120,
      "chip": "ym2612"
    },
    {
      "channel": 3,
      "note": 58,
      "start": 11.3198,
      "duration": 0.0161,
      "velocity": 120,
      "chip": "ym2612"
    },
    {
      "channel": 2,
      "note": 51,
      "start": 11.321,
      "duration": 0.0161,
      "velocity": 100,
      "chip": "ym2612"
    },
    {
      "channel": 1,
      "note": 71,
      "start": 11.3319,
      "duration": 0.0161,
      "velocity": 124,
      "chip": "ym2612"
    },
    {
      "channel": 0,
      "note": 49,
      "start": 11.3337,
      "duration": 0.0153,
      "velocity": 1,
      "chip": "ym2612"
    },
    {
      "channel": 4,
      "note": 63,
      "start": 11.3348,
      "duration": 0.0153,
      "velocity": 120,
      "chip": "ym2612"
    },
    {
      "channel": 3,
      "note": 58,
      "start": 11.3359,
      "duration": 0.0153,
      "velocity": 120,
      "chip": "ym2612"
    },
    {
      "channel": 2,
      "note": 51,
      "start": 11.3371,
      "duration": 0.0153,
      "velocity": 100,
      "chip": "ym2612"
    },
    {
      "channel": 1,
      "note": 70,
      "start": 11.348,
      "duration": 0.0161,
      "velocity": 124,
      "chip": "ym2612"
    },
    {
      "channel": 4,
      "note": 63,
      "start": 11.3501,
      "duration": 0.0152,
      "velocity": 120,
      "chip": "ym2612"
    },
    {
      "channel": 3,
      "note": 58,
      "start": 11.3513,
      "duration": 0.0152,
      "velocity": 120,
      "chip": "ym2612"
    },
    {
      "channel": 2,
      "note": 51,
      "start": 11.3523,
      "duration": 0.0153,
      "velocity": 100,
      "chip": "ym2612"
    },
    {
      "channel": 1,
      "note": 69,
      "start": 11.3641,
      "duration": 0.0161,
      "velocity": 124,
      "chip": "ym2612"
    },
    {
      "channel": 4,
      "note": 63,
      "start": 11.3653,
      "duration": 0.0161,
      "velocity": 120,
      "chip": "ym2612"
    },
    {
      "channel": 3,
      "note": 58,
      "start": 11.3665,
      "duration": 0.0161,
      "velocity": 120,
      "chip": "ym2612"
    },
    {
      "channel": 1,
      "note": 68,
      "start": 11.3802,
      "duration": 0.0161,
      "velocity": 124,
      "chip": "ym2612"
    },
    {
      "channel": 4,
      "note": 63,
      "start": 11.3814,
      "duration": 0.0162,
      "velocity": 120,
      "chip": "ym2612"
    },
    {
      "channel": 3,
      "note": 58,
      "start": 11.3826,
      "duration": 0.0161,
      "velocity": 120,
      "chip": "ym2612"
    },
    {
      "channel": 1,
      "note": 66,
      "start": 11.3963,
      "duration": 0.0161,
      "velocity": 124,
      "chip": "ym2612"
    },
    {
      "channel": 4,
      "note": 63,
      "start": 11.3976,
      "duration": 0.0161,
      "velocity": 120,
      "chip": "ym2612"
    },
    {
      "channel": 3,
      "note": 58,
      "start": 11.3987,
      "duration": 0.0161,
      "velocity": 120,
      "chip": "ym2612"
    },
    {
      "channel": 1,
      "note": 65,
      "start": 11.4124,
      "duration": 0.0161,
      "velocity": 124,
      "chip": "ym2612"
    },
    {
      "channel": 4,
      "note": 63,
      "start": 11.4137,
      "duration": 0.0161,
      "velocity": 120,
      "chip": "ym2612"
    },
    {
      "channel": 3,
      "note": 58,
      "start": 11.4148,
      "duration": 0.0161,
      "velocity": 120,
      "chip": "ym2612"
    },
    {
      "channel": 1,
      "note": 64,
      "start": 11.4285,
      "duration": 0.0162,
      "velocity": 124,
      "chip": "ym2612"
    },
    {
      "channel": 4,
      "note": 63,
      "start": 11.4298,
      "duration": 0.0161,
      "velocity": 120,
      "chip": "ym2612"
    },
    {
      "channel": 3,
      "note": 58,
      "start": 11.4309,
      "duration": 0.0161,
      "velocity": 120,
      "chip": "ym2612"
    },
    {
      "channel": 1,
      "note": 62,
      "start": 11.4446,
      "duration": 0.0161,
      "velocity": 124,
      "chip": "ym2612"
    },
    {
      "channel": 4,
      "note": 63,
      "start": 11.4459,
      "duration": 0.0161,
      "velocity": 120,
      "chip": "ym2612"
    },
    {
      "channel": 3,
      "note": 58,
      "start": 11.447,
      "duration": 0.0161,
      "velocity": 120,
      "chip": "ym2612"
    },
    {
      "channel": 2,
      "note": 51,
      "start": 11.4484,
      "duration": 0.0159,
      "velocity": 100,
      "chip": "ym2612"
    },
    {
      "channel": 1,
      "note": 61,
      "start": 11.4607,
      "duration": 0.0161,
      "velocity": 124,
      "chip": "ym2612"
    },
    {
      "channel": 4,
      "note": 63,
      "start": 11.462,
      "duration": 0.0161,
      "velocity": 120,
      "chip": "ym2612"
    },
    {
      "channel": 3,
      "note": 58,
      "start": 11.4631,
      "duration": 0.0162,
      "velocity": 120,
      "chip": "ym2612"
    },
    {
      "channel": 2,
      "note": 51,
      "start": 11.4643,
      "duration": 0.0161,
      "velocity": 100,
      "chip": "ym2612"
    },
    {
      "channel": 1,
      "note": 60,
      "start": 11.4769,
      "duration": 0.016,
      "velocity": 124,
      "chip": "ym2612"
    },
    {
      "channel": 4,
      "note": 63,
      "start": 11.4781,
      "duration": 0.016,
      "velocity": 120,
      "chip": "ym2612"
    },
    {
      "channel": 3,
      "note": 58,
      "start": 11.4793,
      "duration": 0.016,
      "velocity": 120,
      "chip": "ym2612"
    },
    {
      "channel": 2,
      "note": 51,
      "start": 11.4804,
      "duration": 0.016,
      "velocity": 100,
      "chip": "ym2612"
    },
    {
      "channel": 1,
      "note": 59,
      "start": 11.4929,
      "duration": 0.0177,
      "velocity": 124,
      "chip": "ym2612"
    },
    {
      "channel": 4,
      "note": 63,
      "start": 11.4941,
      "duration": 0.0177,
      "velocity": 120,
      "chip": "ym2612"
    },
    {
      "channel": 3,
      "note": 58,
      "start": 11.4953,
      "duration": 0.0177,
      "velocity": 120,
      "chip": "ym2612"
    },
    {
      "channel": 2,
      "note": 51,
      "start": 11.4964,
      "duration": 0.0176,
      "velocity": 100,
      "chip": "ym2612"
    },
    {
      "channel": 1,
      "note": 57,
      "start": 11.5106,
      "duration": 0.0166,
      "velocity": 124,
      "chip": "ym2612"
    },
    {
      "channel": 4,
      "note": 63,
      "start": 11.5118,
      "duration": 0.0167,
      "velocity": 120,
      "chip": "ym2612"
    },
    {
      "channel": 3,
      "note": 58,
      "start": 11.513,
      "duration": 0.0167,
      "velocity": 120,
      "chip": "ym2612"
    },
    {
      "channel": 2,
      "note": 51,
      "start": 11.5141,
      "duration": 0.0167,
      "velocity": 100,
      "chip": "ym2612"
    },
    {
      "channel": 1,
      "note": 56,
      "start": 11.5272,
      "duration": 0.0163,
      "velocity": 124,
      "chip": "ym2612"
    },
    {
      "channel": 4,
      "note": 63,
      "start": 11.5285,
      "duration": 0.0163,
      "velocity": 120,
      "chip": "ym2612"
    },
    {
      "channel": 3,
      "note": 58,
      "start": 11.5296,
      "duration": 0.0163,
      "velocity": 120,
      "chip": "ym2612"
    },
    {
      "channel": 2,
      "note": 51,
      "start": 11.5307,
      "duration": 0.0163,
      "velocity": 100,
      "chip": "ym2612"
    },
    {
      "channel": 1,
      "note": 55,
      "start": 11.5436,
      "duration": 0.0141,
      "velocity": 124,
      "chip": "ym2612"
    },
    {
      "channel": 4,
      "note": 63,
      "start": 11.5448,
      "duration": 0.0141,
      "velocity": 120,
      "chip": "ym2612"
    },
    {
      "channel": 3,
      "note": 58,
      "start": 11.5459,
      "duration": 0.0141,
      "velocity": 120,
      "chip": "ym2612"
    },
    {
      "channel": 2,
      "note": 51,
      "start": 11.5471,
      "duration": 0.0141,
      "velocity": 100,
      "chip": "ym2612"
    },
    {
      "channel": 1,
      "note": 53,
      "start": 11.5576,
      "duration": 0.0186,
      "velocity": 124,
      "chip": "ym2612"
    },
    {
      "channel": 4,
      "note": 63,
      "start": 11.5589,
      "duration": 0.0185,
      "velocity": 120,
      "chip": "ym2612"
    },
    {
      "channel": 3,
      "note": 58,
      "start": 11.56,
      "duration": 0.0185,
      "velocity": 120,
      "chip": "ym2612"
    },
    {
      "channel": 1,
      "note": 52,
      "start": 11.5762,
      "duration": 0.0161,
      "velocity": 124,
      "chip": "ym2612"
    },
    {
      "channel": 4,
      "note": 63,
      "start": 11.5774,
      "duration": 0.0161,
      "velocity": 120,
      "chip": "ym2612"
    },
    {
      "channel": 3,
      "note": 58,
      "start": 11.5785,
      "duration": 0.0161,
      "velocity": 120,
      "chip": "ym2612"
    },
    {
      "channel": 1,
      "note": 51,
      "start": 11.5923,
      "duration": 0.0125,
      "velocity": 1,
      "chip": "ym2612"
    },
    {
      "channel": 4,
      "note": 63,
      "start": 11.5935,
      "duration": 0.0149,
      "velocity": 120,
      "chip": "ym2612"
    },
    {
      "channel": 3,
      "note": 58,
      "start": 11.5946,
      "duration": 0.0149,
      "velocity": 120,
      "chip": "ym2612"
    },
    {
      "channel": 4,
      "note": 63,
      "start": 11.6084,
      "duration": 0.0129,
      "velocity": 120,
      "chip": "ym2612"
    },
    {
      "channel": 3,
      "note": 58,
      "start": 11.6096,
      "duration": 0.0129,
      "velocity": 120,
      "chip": "ym2612"
    },
    {
      "channel": 4,
      "note": 63,
      "start": 11.6213,
      "duration": 0.0223,
      "velocity": 120,
      "chip": "ym2612"
    },
    {
      "channel": 3,
      "note": 58,
      "start": 11.6224,
      "duration": 0.0223,
      "velocity": 120,
      "chip": "ym2612"
    },
    {
      "channel": 1,
      "note": 78,
      "start": 11.6424,
      "duration": 0.0116,
      "velocity": 124,
      "chip": "ym2612"
    },
    {
      "channel": 4,
      "note": 63,
      "start": 11.6436,
      "duration": 0.0116,
      "velocity": 120,
      "chip": "ym2612"
    },
    {
      "channel": 3,
      "note": 58,
      "start": 11.6448,
      "duration": 0.0143,
      "velocity": 120,
      "chip": "ym2612"
    },
    {
      "channel": 2,
      "note": 51,
      "start": 11.6462,
      "duration": 0.0141,
      "velocity": 100,
      "chip": "ym2612"
    },
    {
      "channel": 1,
      "note": 76,
      "start": 11.654,
      "duration": 0.016,
      "velocity": 124,
      "chip": "ym2612"
    },
    {
      "channel": 4,
      "note": 63,
      "start": 11.6552,
      "duration": 0.016,
      "velocity": 120,
      "chip": "ym2612"
    },
    {
      "channel": 3,
      "note": 58,
      "start": 11.6591,
      "duration": 0.0133,
      "velocity": 120,
      "chip": "ym2612"
    },
    {
      "channel": 2,
      "note": 51,
      "start": 11.6603,
      "duration": 0.0156,
      "velocity": 100,
      "chip": "ym2612"
    },
    {
      "channel": 1,
      "note": 75,
      "start": 11.67,
      "duration": 0.0161,
      "velocity": 124,
      "chip": "ym2612"
    },
    {
      "channel": 4,
      "note": 63,
      "start": 11.6712,
      "duration": 0.0161,
      "velocity": 120,
      "chip": "ym2612"
    },
    {
      "channel": 3,
      "note": 58,
      "start": 11.6724,
      "duration": 0.0162,
      "velocity": 120,
      "chip": "ym2612"
    },
    {
      "channel": 2,
      "note": 51,
      "start": 11.6759,
      "duration": 0.0141,
      "velocity": 100,
      "chip": "ym2612"
    },
    {
      "channel": 1,
      "note": 74,
      "start": 11.6861,
      "duration": 0.0161,
      "velocity": 124,
      "chip": "ym2612"
    },
    {
      "channel": 4,
      "note": 63,
      "start": 11.6874,
      "duration": 0.0161,
      "velocity": 120,
      "chip": "ym2612"
    },
    {
      "channel": 3,
      "note": 58,
      "start": 11.6885,
      "duration": 0.0161,
      "velocity": 120,
      "chip": "ym2612"
    },
    {
      "channel": 2,
      "note": 51,
      "start": 11.69,
      "duration": 0.0157,
      "velocity": 100,
      "chip": "ym2612"
    },
    {
      "channel": 1,
      "note": 72,
      "start": 11.7022,
      "duration": 0.0161,
      "velocity": 124,
      "chip": "ym2612"
    },
    {
      "channel": 4,
      "note": 63,
      "start": 11.7035,
      "duration": 0.0161,
      "velocity": 120,
      "chip": "ym2612"
    },
    {
      "channel": 3,
      "note": 58,
      "start": 11.7046,
      "duration": 0.0161,
      "velocity": 120,
      "chip": "ym2612"
    },
    {
      "channel": 2,
      "note": 51,
      "start": 11.7057,
      "duration": 0.0161,
      "velocity": 100,
      "chip": "ym2612"
    },
    {
      "channel": 1,
      "note": 71,
      "start": 11.7183,
      "duration": 0.0179,
      "velocity": 124,
      "chip": "ym2612"
    },
    {
      "channel": 4,
      "note": 63,
      "start": 11.7196,
      "duration": 0.0179,
      "velocity": 120,
      "chip": "ym2612"
    },
    {
      "channel": 3,
      "note": 58,
      "start": 11.7207,
      "duration": 0.0179,
      "velocity": 120,
      "chip": "ym2612"
    },
    {
      "channel": 2,
      "note": 51,
      "start": 11.7218,
      "duration": 0.0203,
      "velocity": 100,
      "chip": "ym2612"
    },
    {
      "channel": 1,
      "note": 78,
      "start": 11.7363,
      "duration": 0.0144,
      "velocity": 124,
      "chip": "ym2612"
    },
    {
      "channel": 4,
      "note": 63,
      "start": 11.7375,
      "duration": 0.0144,
      "velocity": 120,
      "chip": "ym2612"
    },
    {
      "channel": 3,
      "note": 58,
      "start": 11.7386,
      "duration": 0.0144,
      "velocity": 120,
      "chip": "ym2612"
    },
    {
      "channel": 2,
      "note": 51,
      "start": 11.7421,
      "duration": 0.012,
      "velocity": 100,
      "chip": "ym2612"
    },
    {
      "channel": 1,
      "note": 76,
      "start": 11.7506,
      "duration": 0.016,
      "velocity": 124,
      "chip": "ym2612"
    },
    {
      "channel": 4,
      "note": 63,
      "start": 11.7518,
      "duration": 0.016,
      "velocity": 120,
      "chip": "ym2612"
    },
    {
      "channel": 3,
      "note": 58,
      "start": 11.753,
      "duration": 0.016,
      "velocity": 120,
      "chip": "ym2612"
    },
    {
      "channel": 1,
      "note": 75,
      "start": 11.7667,
      "duration": 0.0161,
      "velocity": 124,
      "chip": "ym2612"
    },
    {
      "channel": 4,
      "note": 63,
      "start": 11.7679,
      "duration": 0.0161,
      "velocity": 120,
      "chip": "ym2612"
    },
    {
      "channel": 3,
      "note": 58,
      "start": 11.769,
      "duration": 0.0161,
      "velocity": 120,
      "chip": "ym2612"
    },
    {
      "channel": 1,
      "note": 74,
      "start": 11.7827,
      "duration": 0.0161,
      "velocity": 124,
      "chip": "ym2612"
    },
    {
      "channel": 4,
      "note": 63,
      "start": 11.784,
      "duration": 0.0161,
      "velocity": 120,
      "chip": "ym2612"
    },
    {
      "channel": 3,
      "note": 58,
      "start": 11.7851,
      "duration": 0.0161,
      "velocity": 120,
      "chip": "ym2612"
    },
    {
      "channel": 1,
      "note": 72,
      "start": 11.7988,
      "duration": 0.0161,
      "velocity": 124,
      "chip": "ym2612"
    },
    {
      "channel": 4,
      "note": 63,
      "start": 11.8,
      "duration": 0.0161,
      "velocity": 120,
      "chip": "ym2612"
    },
    {
      "channel": 3,
      "note": 58,
      "start": 11.8012,
      "duration": 0.0161,
      "velocity": 120,
      "chip": "ym2612"
    },
    {
      "channel": 1,
      "note": 71,
      "start": 11.8149,
      "duration": 0.0179,
      "velocity": 124,
      "chip": "ym2612"
    },
    {
      "channel": 4,
      "note": 63,
      "start": 11.8161,
      "duration": 0.0179,
      "velocity": 120,
      "chip": "ym2612"
    },
    {
      "channel": 3,
      "note": 58,
      "start": 11.8173,
      "duration": 0.0179,
      "velocity": 120,
      "chip": "ym2612"
    },
    {
      "channel": 1,
      "note": 78,
      "start": 11.8328,
      "duration": 0.0144,
      "velocity": 124,
      "chip": "ym2612"
    },
    {
      "channel": 4,
      "note": 63,
      "start": 11.8341,
      "duration": 0.0144,
      "velocity": 120,
      "chip": "ym2612"
    },
    {
      "channel": 3,
      "note": 58,
      "start": 11.8352,
      "duration": 0.0144,
      "velocity": 120,
      "chip": "ym2612"
    },
    {
      "channel": 2,
      "note": 51,
      "start": 11.8366,
      "duration": 0.0141,
      "velocity": 100,
      "chip": "ym2612"
    },
    {
      "channel": 1,
      "note": 76,
      "start": 11.8472,
      "duration": 0.016,
      "velocity": 124,
      "chip": "ym2612"
    },
    {
      "channel": 4,
      "note": 63,
      "start": 11.8485,
      "duration": 0.016,
      "velocity": 120,
      "chip": "ym2612"
    },
    {
      "channel": 3,
      "note": 58,
      "start": 11.8496,
      "duration": 0.016,
      "velocity": 120,
      "chip": "ym2612"
    },
    {
      "channel": 2,
      "note": 51,
      "start": 11.8507,
      "duration": 0.016,
      "velocity": 100,
      "chip": "ym2612"
    },
    {
      "channel": 1,
      "note": 75,
      "start": 11.8632,
      "duration": 0.0162,
      "velocity": 124,
      "chip": "ym2612"
    },
    {
      "channel": 4,
      "note": 63,
      "start": 11.8645,
      "duration": 0.0161,
      "velocity": 120,
      "chip": "ym2612"
    },
    {
      "channel": 3,
      "note": 58,
      "start": 11.8656,
      "duration": 0.0161,
      "velocity": 120,
      "chip": "ym2612"
    },
    {
      "channel": 2,
      "note": 51,
      "start": 11.8667,
      "duration": 0.0162,
      "velocity": 100,
      "chip": "ym2612"
    },
    {
      "channel": 1,
      "note": 74,
      "start": 11.8794,
      "duration": 0.0161,
      "velocity": 124,
      "chip": "ym2612"
    },
    {
      "channel": 4,
      "note": 63,
      "start": 11.8806,
      "duration": 0.0161,
      "velocity": 120,
      "chip": "ym2612"
    },
    {
      "channel": 3,
      "note": 58,
      "start": 11.8817,
      "duration": 0.0161,
      "velocity": 120,
      "chip": "ym2612"
    },
    {
      "channel": 2,
      "note": 51,
      "start": 11.8829,
      "duration": 0.0161,
      "velocity": 100,
      "chip": "ym2612"
    },
    {
      "channel": 1,
      "note": 72,
      "start": 11.8955,
      "duration": 0.0161,
      "velocity": 124,
      "chip": "ym2612"
    },
    {
      "channel": 4,
      "note": 63,
      "start": 11.8967,
      "duration": 0.0161,
      "velocity": 120,
      "chip": "ym2612"
    },
    {
      "channel": 3,
      "note": 58,
      "start": 11.8978,
      "duration": 0.0161,
      "velocity": 120,
      "chip": "ym2612"
    },
    {
      "channel": 2,
      "note": 51,
      "start": 11.899,
      "duration": 0.0161,
      "velocity": 100,
      "chip": "ym2612"
    },
    {
      "channel": 1,
      "note": 71,
      "start": 11.9116,
      "duration": 0.0161,
      "velocity": 124,
      "chip": "ym2612"
    },
    {
      "channel": 4,
      "note": 63,
      "start": 11.9128,
      "duration": 0.0161,
      "velocity": 120,
      "chip": "ym2612"
    },
    {
      "channel": 3,
      "note": 58,
      "start": 11.9139,
      "duration": 0.0161,
      "velocity": 120,
      "chip": "ym2612"
    },
    {
      "channel": 2,
      "note": 51,
      "start": 11.9151,
      "duration": 0.0161,
      "velocity": 100,
      "chip": "ym2612"
    },
    {
      "channel": 1,
      "note": 70,
      "start": 11.9277,
      "duration": 0.0161,
      "velocity": 124,
      "chip": "ym2612"
    },
    {
      "channel": 4,
      "note": 63,
      "start": 11.9289,
      "duration": 0.0162,
      "velocity": 120,
      "chip": "ym2612"
    },
    {
      "channel": 3,
      "note": 58,
      "start": 11.93,
      "duration": 0.0161,
      "velocity": 120,
      "chip": "ym2612"
    },
    {
      "channel": 2,
      "note": 51,
      "start": 11.9312,
      "duration": 0.0162,
      "velocity": 100,
      "chip": "ym2612"
    },
    {
      "channel": 1,
      "note": 69,
      "start": 11.9438,
      "duration": 0.0161,
      "velocity": 124,
      "chip": "ym2612"
    },
    {
      "channel": 4,
      "note": 63,
      "start": 11.945,
      "duration": 0.016,
      "velocity": 120,
      "chip": "ym2612"
    },
    {
      "channel": 3,
      "note": 58,
      "start": 11.9462,
      "duration": 0.016,
      "velocity": 120,
      "chip": "ym2612"
    },
    {
      "channel": 1,
      "note": 68,
      "start": 11.9598,
      "duration": 0.0174,
      "velocity": 124,
      "chip": "ym2612"
    },
    {
      "channel": 4,
      "note": 63,
      "start": 11.9611,
      "duration": 0.0174,
      "velocity": 120,
      "chip": "ym2612"
    },
    {
      "channel": 3,
      "note": 58,
      "start": 11.9622,
      "duration": 0.0174,
      "velocity": 120,
      "chip": "ym2612"
    },
    {
      "channel": 1,
      "note": 66,
      "start": 11.9772,
      "duration": 0.0167,
      "velocity": 124,
      "chip": "ym2612"
    },
    {
      "channel": 4,
      "note": 63,
      "start": 11.9785,
      "duration": 0.0167,
      "velocity": 120,
      "chip": "ym2612"
    },
    {
      "channel": 3,
      "note": 58,
      "start": 11.9796,
      "duration": 0.0167,
      "velocity": 120,
      "chip": "ym2612"
    },
    {
      "channel": 1,
      "note": 65,
      "start": 11.9939,
      "duration": 0.0163,
      "velocity": 124,
      "chip": "ym2612"
    },
    {
      "channel": 4,
      "note": 63,
      "start": 11.9951,
      "duration": 0.0163,
      "velocity": 120,
      "chip": "ym2612"
    },
    {
      "channel": 3,
      "note": 58,
      "start": 11.9963,
      "duration": 0.0163,
      "velocity": 120,
      "chip": "ym2612"
    },
    {
      "channel": 1,
      "note": 64,
      "start": 12.0102,
      "duration": 0.0161,
      "velocity": 124,
      "chip": "ym2612"
    },
    {
      "channel": 4,
      "note": 63,
      "start": 12.0114,
      "duration": 0.0162,
      "velocity": 120,
      "chip": "ym2612"
    },
    {
      "channel": 3,
      "note": 58,
      "start": 12.0126,
      "duration": 0.0162,
      "velocity": 120,
      "chip": "ym2612"
    },
    {
      "channel": 1,
      "note": 78,
      "start": 12.0264,
      "duration": 0.0168,
      "velocity": 124,
      "chip": "ym2612"
    },
    {
      "channel": 4,
      "note": 63,
      "start": 12.0276,
      "duration": 0.0168,
      "velocity": 120,
      "chip": "ym2612"
    },
    {
      "channel": 3,
      "note": 58,
      "start": 12.0288,
      "duration": 0.0168,
      "velocity": 120,
      "chip": "ym2612"
    },
    {
      "channel": 2,
      "note": 51,
      "start": 12.0301,
      "duration": 0.0166,
      "velocity": 100,
      "chip": "ym2612"
    },
    {
      "channel": 1,
      "note": 76,
      "start": 12.0432,
      "duration": 0.016,
      "velocity": 124,
      "chip": "ym2612"
    },
    {
      "channel": 4,
      "note": 63,
      "start": 12.0444,
      "duration": 0.016,
      "velocity": 120,
      "chip": "ym2612"
    },
    {
      "channel": 3,
      "note": 58,
      "start": 12.0455,
      "duration": 0.016,
      "velocity": 120,
      "chip": "ym2612"
    },
    {
      "channel": 2,
      "note": 51,
      "start": 12.0467,
      "duration": 0.016,
      "velocity": 100,
      "chip": "ym2612"
    },
    {
      "channel": 1,
      "note": 75,
      "start": 12.0592,
      "duration": 0.0134,
      "velocity": 124,
      "chip": "ym2612"
    },
    {
      "channel": 4,
      "note": 63,
      "start": 12.0604,
      "duration": 0.0158,
      "velocity": 120,
      "chip": "ym2612"
    },
    {
      "channel": 3,
      "note": 58,
      "start": 12.0616,
      "duration": 0.0158,
      "velocity": 120,
      "chip": "ym2612"
    },
    {
      "channel": 2,
      "note": 51,
      "start": 12.0627,
      "duration": 0.0157,
      "velocity": 100,
      "chip": "ym2612"
    },
    {
      "channel": 1,
      "note": 74,
      "start": 12.0726,
      "duration": 0.0161,
      "velocity": 124,
      "chip": "ym2612"
    },
    {
      "channel": 4,
      "note": 63,
      "start": 12.0762,
      "duration": 0.0141,
      "velocity": 120,
      "chip": "ym2612"
    },
    {
      "channel": 3,
      "note": 58,
      "start": 12.0773,
      "duration": 0.014,
      "velocity": 120,
      "chip": "ym2612"
    },
    {
      "channel": 2,
      "note": 51,
      "start": 12.0784,
      "duration": 0.014,
      "velocity": 100,
      "chip": "ym2612"
    },
    {
      "channel": 1,
      "note": 72,
      "start": 12.0887,
      "duration": 0.0161,
      "velocity": 124,
      "chip": "ym2612"
    },
    {
      "channel": 4,
      "note": 63,
      "start": 12.0902,
      "duration": 0.0185,
      "velocity": 120,
      "chip": "ym2612"
    },
    {
      "channel": 3,
      "note": 58,
      "start": 12.0913,
      "duration": 0.0185,
      "velocity": 120,
      "chip": "ym2612"
    },
    {
      "channel": 2,
      "note": 51,
      "start": 12.0925,
      "duration": 0.0185,
      "velocity": 100,
      "chip": "ym2612"
    },
    {
      "channel": 1,
      "note": 71,
      "start": 12.1048,
      "duration": 0.0206,
      "velocity": 124,
      "chip": "ym2612"
    },
    {
      "channel": 4,
      "note": 63,
      "start": 12.1088,
      "duration": 0.0179,
      "velocity": 120,
      "chip": "ym2612"
    },
    {
      "channel": 3,
      "note": 58,
      "start": 12.1098,
      "duration": 0.0179,
      "velocity": 120,
      "chip": "ym2612"
    },
    {
      "channel": 2,
      "note": 51,
      "start": 12.111,
      "duration": 0.0179,
      "velocity": 100,
      "chip": "ym2612"
    },
    {
      "channel": 1,
      "note": 78,
      "start": 12.1254,
      "duration": 0.0116,
      "velocity": 124,
      "chip": "ym2612"
    },
    {
      "channel": 4,
      "note": 63,
      "start": 12.1266,
      "duration": 0.0116,
      "velocity": 120,
      "chip": "ym2612"
    },
    {
      "channel": 3,
      "note": 58,
      "start": 12.1278,
      "duration": 0.014,
      "velocity": 120,
      "chip": "ym2612"
    },
    {
      "channel": 2,
      "note": 51,
      "start": 12.1289,
      "duration": 0.0141,
      "velocity": 100,
      "chip": "ym2612"
    },
    {
      "channel": 1,
      "note": 76,
      "start": 12.137,
      "duration": 0.016,
      "velocity": 124,
      "chip": "ym2612"
    },
    {
      "channel": 4,
      "note": 63,
      "start": 12.1383,
      "duration": 0.016,
      "velocity": 120,
      "chip": "ym2612"
    },
    {
      "channel": 3,
      "note": 58,
      "start": 12.1418,
      "duration": 0.0137,
      "velocity": 120,
      "chip": "ym2612"
    },
    {
      "channel": 1,
      "note": 75,
      "start": 12.153,
      "duration": 0.0162,
      "velocity": 124,
      "chip": "ym2612"
    },
    {
      "channel": 4,
      "note": 63,
      "start": 12.1543,
      "duration": 0.0161,
      "velocity": 120,
      "chip": "ym2612"
    },
    {
      "channel": 3,
      "note": 58,
      "start": 12.1555,
      "duration": 0.0161,
      "velocity": 120,
      "chip": "ym2612"
    },
    {
      "channel": 1,
      "note": 74,
      "start": 12.1692,
      "duration": 0.0161,
      "velocity": 124,
      "chip": "ym2612"
    },
    {
      "channel": 4,
      "note": 63,
      "start": 12.1704,
      "duration": 0.0161,
      "velocity": 120,
      "chip": "ym2612"
    },
    {
      "channel": 3,
      "note": 58,
      "start": 12.1716,
      "duration": 0.0161,
      "velocity": 120,
      "chip": "ym2612"
    },
    {
      "channel": 1,
      "note": 72,
      "start": 12.1853,
      "duration": 0.0161,
      "velocity": 124,
      "chip": "ym2612"
    },
    {
      "channel": 4,
      "note": 63,
      "start": 12.1865,
      "duration": 0.0161,
      "velocity": 120,
      "chip": "ym2612"
    },
    {
      "channel": 3,
      "note": 58,
      "start": 12.1876,
      "duration": 0.0161,
      "velocity": 120,
      "chip": "ym2612"
    },
    {
      "channel": 1,
      "note": 71,
      "start": 12.2014,
      "duration": 0.0179,
      "velocity": 124,
      "chip": "ym2612"
    },
    {
      "channel": 4,
      "note": 63,
      "start": 12.2026,
      "duration": 0.0179,
      "velocity": 120,
      "chip": "ym2612"
    },
    {
      "channel": 3,
      "note": 58,
      "start": 12.2037,
      "duration": 0.0179,
      "velocity": 120,
      "chip": "ym2612"
    },
    {
      "channel": 1,
      "note": 78,
      "start": 12.2193,
      "duration": 0.0144,
      "velocity": 124,
      "chip": "ym2612"
    },
    {
      "channel": 4,
      "note": 63,
      "start": 12.2205,
      "duration": 0.0143,
      "velocity": 120,
      "chip": "ym2612"
    },
    {
      "channel": 3,
      "note": 58,
      "start": 12.2217,
      "duration": 0.0143,
      "velocity": 120,
      "chip": "ym2612"
    },
    {
      "channel": 2,
      "note": 51,
      "start": 12.2234,
      "duration": 0.0138,
      "velocity": 100,
      "chip": "ym2612"
    },
    {
      "channel": 1,
      "note": 76,
      "start": 12.2337,
      "duration": 0.016,
      "velocity": 124,
      "chip": "ym2612"
    },
    {
      "channel": 4,
      "note": 63,
      "start": 12.2349,
      "duration": 0.016,
      "velocity": 120,
      "chip": "ym2612"
    },
    {
      "channel": 3,
      "note": 58,
      "start": 12.236,
      "duration": 0.016,
      "velocity": 120,
      "chip": "ym2612"
    },
    {
      "channel": 2,
      "note": 51,
      "start": 12.2372,
      "duration": 0.016,
      "velocity": 100,
      "chip": "ym2612"
    },
    {
      "channel": 1,
      "note": 75,
      "start": 12.2497,
      "duration": 0.0161,
      "velocity": 124,
      "chip": "ym2612"
    },
    {
      "channel": 4,
      "note": 63,
      "start": 12.2509,
      "duration": 0.0161,
      "velocity": 120,
      "chip": "ym2612"
    },
    {
      "channel": 3,
      "note": 58,
      "start": 12.252,
      "duration": 0.0161,
      "velocity": 120,
      "chip": "ym2612"
    },
    {
      "channel": 2,
      "note": 51,
      "start": 12.2532,
      "duration": 0.0161,
      "velocity": 100,
      "chip": "ym2612"
    },
    {
      "channel": 1,
      "note": 74,
      "start": 12.2658,
      "duration": 0.0161,
      "velocity": 124,
      "chip": "ym2612"
    },
    {
      "channel": 4,
      "note": 63,
      "start": 12.267,
      "duration": 0.0161,
      "velocity": 120,
      "chip": "ym2612"
    },
    {
      "channel": 3,
      "note": 58,
      "start": 12.2681,
      "duration": 0.0162,
      "velocity": 120,
      "chip": "ym2612"
    },
    {
      "channel": 2,
      "note": 51,
      "start": 12.2693,
      "duration": 0.0161,
      "velocity": 100,
      "chip": "ym2612"
    },
    {
      "channel": 1,
      "note": 72,
      "start": 12.2819,
      "duration": 0.0161,
      "velocity": 124,
      "chip": "ym2612"
    },
    {
      "channel": 4,
      "note": 63,
      "start": 12.2831,
      "duration": 0.0161,
      "velocity": 120,
      "chip": "ym2612"
    },
    {
      "channel": 3,
      "note": 58,
      "start": 12.2843,
      "duration": 0.0161,
      "velocity": 120,
      "chip": "ym2612"
    },
    {
      "channel": 2,
      "note": 51,
      "start": 12.2854,
      "duration": 0.0161,
      "velocity": 100,
      "chip": "ym2612"
    },
    {
      "channel": 1,
      "note": 71,
      "start": 12.298,
      "duration": 0.0161,
      "velocity": 124,
      "chip": "ym2612"
    },
    {
      "channel": 4,
      "note": 63,
      "start": 12.2992,
      "duration": 0.0161,
      "velocity": 120,
      "chip": "ym2612"
    },
    {
      "channel": 3,
      "note": 58,
      "start": 12.3004,
      "duration": 0.0161,
      "velocity": 120,
      "chip": "ym2612"
    },
    {
      "channel": 2,
      "note": 51,
      "start": 12.3015,
      "duration": 0.0162,
      "velocity": 100,
      "chip": "ym2612"
    },
    {
      "channel": 1,
      "note": 70,
      "start": 12.3141,
      "duration": 0.0161,
      "velocity": 124,
      "chip": "ym2612"
    },
    {
      "channel": 4,
      "note": 63,
      "start": 12.3153,
      "duration": 0.0161,
      "velocity": 120,
      "chip": "ym2612"
    },
    {
      "channel": 3,
      "note": 58,
      "start": 12.3165,
      "duration": 0.0161,
      "velocity": 120,
      "chip": "ym2612"
    },
    {
      "channel": 2,
      "note": 51,
      "start": 12.3176,
      "duration": 0.0161,
      "velocity": 100,
      "chip": "ym2612"
    },
    {
      "channel": 1,
      "note": 69,
      "start": 12.3302,
      "duration": 0.0161,
      "velocity": 124,
      "chip": "ym2612"
    },
    {
      "channel": 4,
      "note": 63,
      "start": 12.3314,
      "duration": 0.0161,
      "velocity": 120,
      "chip": "ym2612"
    },
    {
      "channel": 3,
      "note": 58,
      "start": 12.3326,
      "duration": 0.0161,
      "velocity": 120,
      "chip": "ym2612"
    },
    {
      "channel": 1,
      "note": 68,
      "start": 12.3463,
      "duration": 0.0161,
      "velocity": 124,
      "chip": "ym2612"
    },
    {
      "channel": 4,
      "note": 63,
      "start": 12.3475,
      "duration": 0.0161,
      "velocity": 120,
      "chip": "ym2612"
    },
    {
      "channel": 3,
      "note": 58,
      "start": 12.3487,
      "duration": 0.0161,
      "velocity": 120,
      "chip": "ym2612"
    },
    {
      "channel": 1,
      "note": 66,
      "start": 12.3624,
      "duration": 0.0161,
      "velocity": 124,
      "chip": "ym2612"
    },
    {
      "channel": 4,
      "note": 63,
      "start": 12.3636,
      "duration": 0.0161,
      "velocity": 120,
      "chip": "ym2612"
    },
    {
      "channel": 3,
      "note": 58,
      "start": 12.3647,
      "duration": 0.0161,
      "velocity": 120,
      "chip": "ym2612"
    },
    {
      "channel": 1,
      "note": 65,
      "start": 12.3785,
      "duration": 0.0161,
      "velocity": 124,
      "chip": "ym2612"
    },
    {
      "channel": 4,
      "note": 63,
      "start": 12.3797,
      "duration": 0.0161,
      "velocity": 120,
      "chip": "ym2612"
    },
    {
      "channel": 3,
      "note": 58,
      "start": 12.3808,
      "duration": 0.0161,
      "velocity": 120,
      "chip": "ym2612"
    },
    {
      "channel": 1,
      "note": 64,
      "start": 12.3946,
      "duration": 0.0161,
      "velocity": 124,
      "chip": "ym2612"
    },
    {
      "channel": 4,
      "note": 63,
      "start": 12.3958,
      "duration": 0.0199,
      "velocity": 120,
      "chip": "ym2612"
    },
    {
      "channel": 3,
      "note": 58,
      "start": 12.3969,
      "duration": 0.0201,
      "velocity": 120,
      "chip": "ym2612"
    },
    {
      "channel": 1,
      "note": 62,
      "start": 12.4107,
      "duration": 0.0161,
      "velocity": 124,
      "chip": "ym2612"
    },
    {
      "channel": 0,
      "note": 36,
      "start": 12.4142,
      "duration": 0.0144,
      "velocity": 115,
      "chip": "ym2612"
    },
    {
      "channel": 4,
      "note": 65,
      "start": 12.4156,
      "duration": 0.0141,
      "velocity": 120,
      "chip": "ym2612"
    },
    {
      "channel": 3,
      "note": 60,
      "start": 12.4171,
      "duration": 0.0139,
      "velocity": 120,
      "chip": "ym2612"
    },
    {
      "channel": 2,
      "note": 53,
      "start": 12.4186,
      "duration": 0.0136,
      "velocity": 100,
      "chip": "ym2612"
    },
    {
      "channel": 1,
      "note": 61,
      "start": 12.4268,
      "duration": 0.0172,
      "velocity": 124,
      "chip": "ym2612"
    },
    {
      "channel": 0,
      "note": 36,
      "start": 12.4285,
      "duration": 0.0171,
      "velocity": 115,
      "chip": "ym2612"
    },
    {
      "channel": 4,
      "note": 65,
      "start": 12.4298,
      "duration": 0.0171,
      "velocity": 120,
      "chip": "ym2612"
    },
    {
      "channel": 3,
      "note": 60,
      "start": 12.431,
      "duration": 0.017,
      "velocity": 120,
      "chip": "ym2612"
    },
    {
      "channel": 2,
      "note": 53,
      "start": 12.4322,
      "duration": 0.0168,
      "velocity": 100,
      "chip": "ym2612"
    },
    {
      "channel": 1,
      "note": 60,
      "start": 12.4439,
      "duration": 0.0166,
      "velocity": 124,
      "chip": "ym2612"
    },
    {
      "channel": 0,
      "note": 37,
      "start": 12.4457,
      "duration": 0.0167,
      "velocity": 115,
      "chip": "ym2612"
    },
    {
      "channel": 4,
      "note": 65,
      "start": 12.4468,
      "duration": 0.0167,
      "velocity": 120,
      "chip": "ym2612"
    },
    {
      "channel": 3,
      "note": 60,
      "start": 12.448,
      "duration": 0.0167,
      "velocity": 120,
      "chip": "ym2612"
    },
    {
      "channel": 2,
      "note": 53,
      "start": 12.449,
      "duration": 0.0167,
      "velocity": 100,
      "chip": "ym2612"
    },
    {
      "channel": 1,
      "note": 59,
      "start": 12.4605,
      "duration": 0.0163,
      "velocity": 124,
      "chip": "ym2612"
    },
    {
      "channel": 0,
      "note": 37,
      "start": 12.4623,
      "duration": 0.0163,
      "velocity": 115,
      "chip": "ym2612"
    },
    {
      "channel": 4,
      "note": 65,
      "start": 12.4635,
      "duration": 0.0163,
      "velocity": 120,
      "chip": "ym2612"
    },
    {
      "channel": 3,
      "note": 60,
      "start": 12.4646,
      "duration": 0.0163,
      "velocity": 120,
      "chip": "ym2612"
    },
    {
      "channel": 2,
      "note": 53,
      "start": 12.4657,
      "duration": 0.0163,
      "velocity": 100,
      "chip": "ym2612"
    },
    {
      "channel": 1,
      "note": 57,
      "start": 12.4769,
      "duration": 0.0146,
      "velocity": 124,
      "chip": "ym2612"
    },
    {
      "channel": 0,
      "note": 38,
      "start": 12.4786,
      "duration": 0.0146,
      "velocity": 115,
      "chip": "ym2612"
    },
    {
      "channel": 4,
      "note": 65,
      "start": 12.4798,
      "duration": 0.0146,
      "velocity": 120,
      "chip": "ym2612"
    },
    {
      "channel": 3,
      "note": 60,
      "start": 12.4809,
      "duration": 0.0146,
      "velocity": 120,
      "chip": "ym2612"
    },
    {
      "channel": 2,
      "note": 53,
      "start": 12.482,
      "duration": 0.0146,
      "velocity": 100,
      "chip": "ym2612"
    },
    {
      "channel": 1,
      "note": 56,
      "start": 12.4915,
      "duration": 0.0186,
      "velocity": 124,
      "chip": "ym2612"
    },
    {
      "channel": 0,
      "note": 38,
      "start": 12.4932,
      "duration": 0.0185,
      "velocity": 115,
      "chip": "ym2612"
    },
    {
      "channel": 4,
      "note": 65,
      "start": 12.4944,
      "duration": 0.0185,
      "velocity": 120,
      "chip": "ym2612"
    },
    {
      "channel": 3,
      "note": 60,
      "start": 12.4955,
      "duration": 0.0185,
      "velocity": 120,
      "chip": "ym2612"
    },
    {
      "channel": 2,
      "note": 53,
      "start": 12.4966,
      "duration": 0.0186,
      "velocity": 100,
      "chip": "ym2612"
    },
    {
      "channel": 1,
      "note": 55,
      "start": 12.51,
      "duration": 0.0161,
      "velocity": 124,
      "chip": "ym2612"
    },
    {
      "channel": 0,
      "note": 39,
      "start": 12.5118,
      "duration": 0.0161,
      "velocity": 115,
      "chip": "ym2612"
    },
    {
      "channel": 4,
      "note": 65,
      "start": 12.5129,
      "duration": 0.0162,
      "velocity": 120,
      "chip": "ym2612"
    },
    {
      "channel": 3,
      "note": 60,
      "start": 12.5141,
      "duration": 0.0161,
      "velocity": 120,
      "chip": "ym2612"
    },
    {
      "channel": 2,
      "note": 53,
      "start": 12.5152,
      "duration": 0.0161,
      "velocity": 100,
      "chip": "ym2612"
    },
    {
      "channel": 1,
      "note": 53,
      "start": 12.5261,
      "duration": 0.0157,
      "velocity": 124,
      "chip": "ym2612"
    },
    {
      "channel": 0,
      "note": 39,
      "start": 12.5278,
      "duration": 0.0158,
      "velocity": 115,
      "chip": "ym2612"
    },
    {
      "channel": 4,
      "note": 65,
      "start": 12.5291,
      "duration": 0.0157,
      "velocity": 120,
      "chip": "ym2612"
    },
    {
      "channel": 3,
      "note": 60,
      "start": 12.5301,
      "duration": 0.0158,
      "velocity": 120,
      "chip": "ym2612"
    },
    {
      "channel": 1,
      "note": 52,
      "start": 12.5418,
      "duration": 0.0137,
      "velocity": 124,
      "chip": "ym2612"
    },
    {
      "channel": 0,
      "note": 40,
      "start": 12.5436,
      "duration": 0.014,
      "velocity": 115,
      "chip": "ym2612"
    },
    {
      "channel": 4,
      "note": 65,
      "start": 12.5448,
      "duration": 0.014,
      "velocity": 120,
      "chip": "ym2612"
    },
    {
      "channel": 3,
      "note": 60,
      "start": 12.5459,
      "duration": 0.014,
      "velocity": 120,
      "chip": "ym2612"
    },
    {
      "channel": 1,
      "note": 51,
      "start": 12.5556,
      "duration": 0.0153,
      "velocity": 1,
      "chip": "ym2612"
    },
    {
      "channel": 0,
      "note": 40,
      "start": 12.5576,
      "duration": 0.0178,
      "velocity": 115,
      "chip": "ym2612"
    },
    {
      "channel": 4,
      "note": 65,
      "start": 12.5588,
      "duration": 0.0177,
      "velocity": 120,
      "chip": "ym2612"
    },
    {
      "channel": 3,
      "note": 60,
      "start": 12.5599,
      "duration": 0.0178,
      "velocity": 120,
      "chip": "ym2612"
    },
    {
      "channel": 0,
      "note": 40,
      "start": 12.5754,
      "duration": 0.0125,
      "velocity": 115,
      "chip": "ym2612"
    },
    {
      "channel": 4,
      "note": 65,
      "start": 12.5765,
      "duration": 0.0125,
      "velocity": 120,
      "chip": "ym2612"
    },
    {
      "channel": 3,
      "note": 60,
      "start": 12.5777,
      "duration": 0.0153,
      "velocity": 120,
      "chip": "ym2612"
    },
    {
      "channel": 0,
      "note": 41,
      "start": 12.5878,
      "duration": 0.0161,
      "velocity": 115,
      "chip": "ym2612"
    },
    {
      "channel": 4,
      "note": 65,
      "start": 12.589,
      "duration": 0.0161,
      "velocity": 120,
      "chip": "ym2612"
    },
    {
      "channel": 3,
      "note": 60,
      "start": 12.5929,
      "duration": 0.0157,
      "velocity": 120,
      "chip": "ym2612"
    },
    {
      "channel": 0,
      "note": 41,
      "start": 12.604,
      "duration": 0.0161,
      "velocity": 115,
      "chip": "ym2612"
    },
    {
      "channel": 4,
      "note": 65,
      "start": 12.6051,
      "duration": 0.0161,
      "velocity": 120,
      "chip": "ym2612"
    },
    {
      "channel": 3,
      "note": 60,
      "start": 12.6086,
      "duration": 0.0137,
      "velocity": 120,
      "chip": "ym2612"
    },
    {
      "channel": 2,
      "note": 53,
      "start": 12.6101,
      "duration": 0.0137,
      "velocity": 100,
      "chip": "ym2612"
    },
    {
      "channel": 1,
      "note": 41,
      "start": 12.6116,
      "duration": 0.0135,
      "velocity": 100,
      "chip": "ym2612"
    },
    {
      "channel": 0,
      "note": 42,
      "start": 12.6201,
      "duration": 0.0161,
      "velocity": 115,
      "chip": "ym2612"
    },
    {
      "channel": 4,
      "note": 65,
      "start": 12.6212,
      "duration": 0.0161,
      "velocity": 120,
      "chip": "ym2612"
    },
    {
      "channel": 3,
      "note": 60,
      "start": 12.6224,
      "duration": 0.0161,
      "velocity": 120,
      "chip": "ym2612"
    },
    {
      "channel": 2,
      "note": 53,
      "start": 12.6239,
      "duration": 0.0185,
      "velocity": 100,
      "chip": "ym2612"
    },
    {
      "channel": 1,
      "note": 41,
      "start": 12.6251,
      "duration": 0.0184,
      "velocity": 100,
      "chip": "ym2612"
    },
    {
      "channel": 0,
      "note": 42,
      "start": 12.6362,
      "duration": 0.0161,
      "velocity": 115,
      "chip": "ym2612"
    },
    {
      "channel": 4,
      "note": 65,
      "start": 12.6373,
      "duration": 0.0161,
      "velocity": 120,
      "chip": "ym2612"
    },
    {
      "channel": 3,
      "note": 60,
      "start": 12.6385,
      "duration": 0.0161,
      "velocity": 120,
      "chip": "ym2612"
    },
    {
      "channel": 2,
      "note": 53,
      "start": 12.6424,
      "duration": 0.0134,
      "velocity": 100,
      "chip": "ym2612"
    },
    {
      "channel": 1,
      "note": 41,
      "start": 12.6435,
      "duration": 0.0161,
      "velocity": 100,
      "chip": "ym2612"
    },
    {
      "channel": 0,
      "note": 43,
      "start": 12.6523,
      "duration": 0.0161,
      "velocity": 115,
      "chip": "ym2612"
    },
    {
      "channel": 4,
      "note": 65,
      "start": 12.6534,
      "duration": 0.0161,
      "velocity": 120,
      "chip": "ym2612"
    },
    {
      "channel": 3,
      "note": 60,
      "start": 12.6546,
      "duration": 0.0161,
      "velocity": 120,
      "chip": "ym2612"
    },
    {
      "channel": 2,
      "note": 53,
      "start": 12.6557,
      "duration": 0.0161,
      "velocity": 100,
      "chip": "ym2612"
    },
    {
      "channel": 1,
      "note": 41,
      "start": 12.6596,
      "duration": 0.0157,
      "velocity": 100,
      "chip": "ym2612"
    },
    {
      "channel": 0,
      "note": 43,
      "start": 12.6684,
      "duration": 0.0161,
      "velocity": 115,
      "chip": "ym2612"
    },
    {
      "channel": 4,
      "note": 65,
      "start": 12.6695,
      "duration": 0.0161,
      "velocity": 120,
      "chip": "ym2612"
    },
    {
      "channel": 3,
      "note": 60,
      "start": 12.6707,
      "duration": 0.0161,
      "velocity": 120,
      "chip": "ym2612"
    },
    {
      "channel": 2,
      "note": 53,
      "start": 12.6718,
      "duration": 0.0161,
      "velocity": 100,
      "chip": "ym2612"
    },
    {
      "channel": 1,
      "note": 41,
      "start": 12.6753,
      "duration": 0.0137,
      "velocity": 100,
      "chip": "ym2612"
    },
    {
      "channel": 0,
      "note": 44,
      "start": 12.6845,
      "duration": 0.0161,
      "velocity": 115,
      "chip": "ym2612"
    },
    {
      "channel": 4,
      "note": 65,
      "start": 12.6856,
      "duration": 0.0161,
      "velocity": 120,
      "chip": "ym2612"
    },
    {
      "channel": 3,
      "note": 60,
      "start": 12.6868,
      "duration": 0.0161,
      "velocity": 120,
      "chip": "ym2612"
    },
    {
      "channel": 2,
      "note": 53,
      "start": 12.6879,
      "duration": 0.0161,
      "velocity": 100,
      "chip": "ym2612"
    },
    {
      "channel": 1,
      "note": 41,
      "start": 12.689,
      "duration": 0.0162,
      "velocity": 100,
      "chip": "ym2612"
    },
    {
      "channel": 0,
      "note": 44,
      "start": 12.7006,
      "duration": 0.0161,
      "velocity": 115,
      "chip": "ym2612"
    },
    {
      "channel": 4,
      "note": 65,
      "start": 12.7017,
      "duration": 0.0161,
      "velocity": 120,
      "chip": "ym2612"
    },
    {
      "channel": 3,
      "note": 60,
      "start": 12.7029,
      "duration": 0.0161,
      "velocity": 120,
      "chip": "ym2612"
    },
    {
      "channel": 2,
      "note": 53,
      "start": 12.704,
      "duration": 0.0161,
      "velocity": 100,
      "chip": "ym2612"
    },
    {
      "channel": 1,
      "note": 41,
      "start": 12.7051,
      "duration": 0.0161,
      "velocity": 100,
      "chip": "ym2612"
    },
    {
      "channel": 0,
      "note": 44,
      "start": 12.7167,
      "duration": 0.0161,
      "velocity": 115,
      "chip": "ym2612"
    },
    {
      "channel": 4,
      "note": 65,
      "start": 12.7178,
      "duration": 0.0162,
      "velocity": 120,
      "chip": "ym2612"
    },
    {
      "channel": 3,
      "note": 60,
      "start": 12.719,
      "duration": 0.0161,
      "velocity": 120,
      "chip": "ym2612"
    },
    {
      "channel": 0,
      "note": 45,
      "start": 12.7328,
      "duration": 0.0161,
      "velocity": 115,
      "chip": "ym2612"
    },
    {
      "channel": 4,
      "note": 65,
      "start": 12.734,
      "duration": 0.0161,
      "velocity": 120,
      "chip": "ym2612"
    },
    {
      "channel": 3,
      "note": 60,
      "start": 12.7351,
      "duration": 0.0161,
      "velocity": 120,
      "chip": "ym2612"
    },
    {
      "channel": 0,
      "note": 45,
      "start": 12.7489,
      "duration": 0.0161,
      "velocity": 115,
      "chip": "ym2612"
    },
    {
      "channel": 4,
      "note": 65,
      "start": 12.75,
      "duration": 0.0161,
      "velocity": 120,
      "chip": "ym2612"
    },
    {
      "channel": 3,
      "note": 60,
      "start": 12.7512,
      "duration": 0.0161,
      "velocity": 120,
      "chip": "ym2612"
    },
    {
      "channel": 0,
      "note": 46,
      "start": 12.765,
      "duration": 0.0161,
      "velocity": 115,
      "chip": "ym2612"
    },
    {
      "channel": 4,
      "note": 65,
      "start": 12.7661,
      "duration": 0.0161,
      "velocity": 120,
      "chip": "ym2612"
    },
    {
      "channel": 3,
      "note": 60,
      "start": 12.7673,
      "duration": 0.0161,
      "velocity": 120,
      "chip": "ym2612"
    },
    {
      "channel": 0,
      "note": 46,
      "start": 12.7811,
      "duration": 0.0195,
      "velocity": 115,
      "chip": "ym2612"
    },
    {
      "channel": 4,
      "note": 65,
      "start": 12.7822,
      "duration": 0.0195,
      "velocity": 120,
      "chip": "ym2612"
    },
    {
      "channel": 3,
      "note": 60,
      "start": 12.7834,
      "duration": 0.0195,
      "velocity": 120,
      "chip": "ym2612"
    },
    {
      "channel": 1,
      "note": 78,
      "start": 12.7989,
      "duration": 0.0144,
      "velocity": 124,
      "chip": "ym2612"
    },
    {
      "channel": 0,
      "note": 47,
      "start": 12.8006,
      "duration": 0.0144,
      "velocity": 115,
      "chip": "ym2612"
    },
    {
      "channel": 4,
      "note": 65,
      "start": 12.8018,
      "duration": 0.0144,
      "velocity": 120,
      "chip": "ym2612"
    },
    {
      "channel": 3,
      "note": 60,
      "start": 12.8029,
      "duration": 0.0144,
      "velocity": 120,
      "chip": "ym2612"
    },
    {
      "channel": 2,
      "note": 53,
      "start": 12.8044,
      "duration": 0.0141,
      "velocity": 100,
      "chip": "ym2612"
    },
    {
      "channel": 1,
      "note": 76,
      "start": 12.8133,
      "duration": 0.016,
      "velocity": 124,
      "chip": "ym2612"
    },
    {
      "channel": 0,
      "note": 47,
      "start": 12.815,
      "duration": 0.016,
      "velocity": 115,
      "chip": "ym2612"
    },
    {
      "channel": 4,
      "note": 65,
      "start": 12.8161,
      "duration": 0.016,
      "velocity": 120,
      "chip": "ym2612"
    },
    {
      "channel": 3,
      "note": 60,
      "start": 12.8173,
      "duration": 0.016,
      "velocity": 120,
      "chip": "ym2612"
    },
    {
      "channel": 2,
      "note": 53,
      "start": 12.8185,
      "duration": 0.016,
      "velocity": 100,
      "chip": "ym2612"
    },
    {
      "channel": 1,
      "note": 75,
      "start": 12.8293,
      "duration": 0.0161,
      "velocity": 124,
      "chip": "ym2612"
    },
    {
      "channel": 0,
      "note": 47,
      "start": 12.831,
      "duration": 0.0161,
      "velocity": 115,
      "chip": "ym2612"
    },
    {
      "channel": 4,
      "note": 65,
      "start": 12.8322,
      "duration": 0.0161,
      "velocity": 120,
      "chip": "ym2612"
    },
    {
      "channel": 3,
      "note": 60,
      "start": 12.8333,
      "duration": 0.0161,
      "velocity": 120,
      "chip": "ym2612"
    },
    {
      "channel": 2,
      "note": 53,
      "start": 12.8345,
      "duration": 0.0161,
      "velocity": 100,
      "chip": "ym2612"
    },
    {
      "channel": 1,
      "note": 74,
      "start": 12.8454,
      "duration": 0.0161,
      "velocity": 124,
      "chip": "ym2612"
    },
    {
      "channel": 0,
      "note": 48,
      "start": 12.8471,
      "duration": 0.0161,
      "velocity": 115,
      "chip": "ym2612"
    },
    {
      "channel": 4,
      "note": 65,
      "start": 12.8483,
      "duration": 0.0161,
      "velocity": 120,
      "chip": "ym2612"
    },
    {
      "channel": 3,
      "note": 60,
      "start": 12.8494,
      "duration": 0.0161,
      "velocity": 120,
      "chip": "ym2612"
    },
    {
      "channel": 2,
      "note": 53,
      "start": 12.8506,
      "duration": 0.0161,
      "velocity": 100,
      "chip": "ym2612"
    },
    {
      "channel": 1,
      "note": 72,
      "start": 12.8615,
      "duration": 0.0161,
      "velocity": 124,
      "chip": "ym2612"
    },
    {
      "channel": 0,
      "note": 48,
      "start": 12.8632,
      "duration": 0.0161,
      "velocity": 115,
      "chip": "ym2612"
    },
    {
      "channel": 4,
      "note": 65,
      "start": 12.8644,
      "duration": 0.0161,
      "velocity": 120,
      "chip": "ym2612"
    },
    {
      "channel": 3,
      "note": 60,
      "start": 12.8655,
      "duration": 0.0161,
      "velocity": 120,
      "chip": "ym2612"
    },
    {
      "channel": 2,
      "note": 53,
      "start": 12.8667,
      "duration": 0.0161,
      "velocity": 100,
      "chip": "ym2612"
    },
    {
      "channel": 1,
      "note": 71,
      "start": 12.8776,
      "duration": 0.0161,
      "velocity": 124,
      "chip": "ym2612"
    },
    {
      "channel": 0,
      "note": 49,
      "start": 12.8793,
      "duration": 0.0153,
      "velocity": 1,
      "chip": "ym2612"
    },
    {
      "channel": 4,
      "note": 65,
      "start": 12.8805,
      "duration": 0.0153,
      "velocity": 120,
      "chip": "ym2612"
    },
    {
      "channel": 3,
      "note": 60,
      "start": 12.8816,
      "duration": 0.0153,
      "velocity": 120,
      "chip": "ym2612"
    },
    {
      "channel": 2,
      "note": 53,
      "start": 12.8827,
      "duration": 0.0153,
      "velocity": 100,
      "chip": "ym2612"
    },
    {
      "channel": 1,
      "note": 70,
      "start": 12.8937,
      "duration": 0.0168,
      "velocity": 124,
      "chip": "ym2612"
    },
    {
      "channel": 4,
      "note": 65,
      "start": 12.8958,
      "duration": 0.016,
      "velocity": 120,
      "chip": "ym2612"
    },
    {
      "channel": 3,
      "note": 60,
      "start": 12.8969,
      "duration": 0.016,
      "velocity": 120,
      "chip": "ym2612"
    },
    {
      "channel": 2,
      "note": 53,
      "start": 12.898,
      "duration": 0.0161,
      "velocity": 100,
      "chip": "ym2612"
    },
    {
      "channel": 1,
      "note": 69,
      "start": 12.9105,
      "duration": 0.0167,
      "velocity": 124,
      "chip": "ym2612"
    },
    {
      "channel": 4,
      "note": 65,
      "start": 12.9118,
      "duration": 0.0167,
      "velocity": 120,
      "chip": "ym2612"
    },
    {
      "channel": 3,
      "note": 60,
      "start": 12.913,
      "duration": 0.0167,
      "velocity": 120,
      "chip": "ym2612"
    },
    {
      "channel": 1,
      "note": 68,
      "start": 12.9273,
      "duration": 0.0163,
      "velocity": 124,
      "chip": "ym2612"
    },
    {
      "channel": 4,
      "note": 65,
      "start": 12.9285,
      "duration": 0.0163,
      "velocity": 120,
      "chip": "ym2612"
    },
    {
      "channel": 3,
      "note": 60,
      "start": 12.9296,
      "duration": 0.0163,
      "velocity": 120,
      "chip": "ym2612"
    },
    {
      "channel": 1,
      "note": 66,
      "start": 12.9436,
      "duration": 0.0147,
      "velocity": 124,
      "chip": "ym2612"
    },
    {
      "channel": 4,
      "note": 65,
      "start": 12.9448,
      "duration": 0.0147,
      "velocity": 120,
      "chip": "ym2612"
    },
    {
      "channel": 3,
      "note": 60,
      "start": 12.9459,
      "duration": 0.0147,
      "velocity": 120,
      "chip": "ym2612"
    },
    {
      "channel": 1,
      "note": 65,
      "start": 12.9583,
      "duration": 0.0187,
      "velocity": 124,
      "chip": "ym2612"
    },
    {
      "channel": 4,
      "note": 65,
      "start": 12.9595,
      "duration": 0.0188,
      "velocity": 120,
      "chip": "ym2612"
    },
    {
      "channel": 3,
      "note": 60,
      "start": 12.9606,
      "duration": 0.0187,
      "velocity": 120,
      "chip": "ym2612"
    },
    {
      "channel": 1,
      "note": 64,
      "start": 12.977,
      "duration": 0.0161,
      "velocity": 124,
      "chip": "ym2612"
    },
    {
      "channel": 4,
      "note": 65,
      "start": 12.9782,
      "duration": 0.0195,
      "velocity": 120,
      "chip": "ym2612"
    },
    {
      "channel": 3,
      "note": 60,
      "start": 12.9793,
      "duration": 0.0195,
      "velocity": 120,
      "chip": "ym2612"
    },
    {
      "channel": 1,
      "note": 62,
      "start": 12.9931,
      "duration": 0.0158,
      "velocity": 124,
      "chip": "ym2612"
    },
    {
      "channel": 0,
      "note": 36,
      "start": 12.9966,
      "duration": 0.0141,
      "velocity": 115,
      "chip": "ym2612"
    },
    {
      "channel": 4,
      "note": 65,
      "start": 12.9978,
      "duration": 0.014,
      "velocity": 120,
      "chip": "ym2612"
    },
    {
      "channel": 3,
      "note": 60,
      "start": 12.9988,
      "duration": 0.0141,
      "velocity": 120,
      "chip": "ym2612"
    },
    {
      "channel": 2,
      "note": 53,
      "start": 13.0003,
      "duration": 0.0138,
      "velocity": 100,
      "chip": "ym2612"
    },
    {
      "channel": 1,
      "note": 61,
      "start": 13.0088,
      "duration": 0.0137,
      "velocity": 124,
      "chip": "ym2612"
    },
    {
      "channel": 0,
      "note": 36,
      "start": 13.0106,
      "duration": 0.0139,
      "velocity": 115,
      "chip": "ym2612"
    },
    {
      "channel": 4,
      "note": 65,
      "start": 13.0118,
      "duration": 0.014,
      "velocity": 120,
      "chip": "ym2612"
    },
    {
      "channel": 3,
      "note": 60,
      "start": 13.0129,
      "duration": 0.0139,
      "velocity": 120,
      "chip": "ym2612"
    },
    {
      "channel": 2,
      "note": 53,
      "start": 13.0141,
      "duration": 0.0139,
      "velocity": 100,
      "chip": "ym2612"
    },
    {
      "channel": 1,
      "note": 60,
      "start": 13.0225,
      "duration": 0.0161,
      "velocity": 124,
      "chip": "ym2612"
    },
    {
      "channel": 0,
      "note": 37,
      "start": 13.0245,
      "duration": 0.0186,
      "velocity": 115,
      "chip": "ym2612"
    },
    {
      "channel": 4,
      "note": 65,
      "start": 13.0258,
      "duration": 0.0185,
      "velocity": 120,
      "chip": "ym2612"
    },
    {
      "channel": 3,
      "note": 60,
      "start": 13.0268,
      "duration": 0.0186,
      "velocity": 120,
      "chip": "ym2612"
    },
    {
      "channel": 2,
      "note": 53,
      "start": 13.028,
      "duration": 0.0185,
      "velocity": 100,
      "chip": "ym2612"
    },
    {
      "channel": 1,
      "note": 59,
      "start": 13.0386,
      "duration": 0.0162,
      "velocity": 124,
      "chip": "ym2612"
    },
    {
      "channel": 0,
      "note": 37,
      "start": 13.0431,
      "duration": 0.0161,
      "velocity": 115,
      "chip": "ym2612"
    },
    {
      "channel": 4,
      "note": 65,
      "start": 13.0443,
      "duration": 0.0161,
      "velocity": 120,
      "chip": "ym2612"
    },
    {
      "channel": 3,
      "note": 60,
      "start": 13.0454,
      "duration": 0.0161,
      "velocity": 120,
      "chip": "ym2612"
    },
    {
      "channel": 2,
      "note": 53,
      "start": 13.0465,
      "duration": 0.0162,
      "velocity": 100,
      "chip": "ym2612"
    },
    {
      "channel": 1,
      "note": 57,
      "start": 13.0548,
      "duration": 0.0161,
      "velocity": 124,
      "chip": "ym2612"
    },
    {
      "channel": 0,
      "note": 38,
      "start": 13.0592,
      "duration": 0.0134,
      "velocity": 115,
      "chip": "ym2612"
    },
    {
      "channel": 4,
      "note": 65,
      "start": 13.0604,
      "duration": 0.0158,
      "velocity": 120,
      "chip": "ym2612"
    },
    {
      "channel": 3,
      "note": 60,
      "start": 13.0615,
      "duration": 0.0157,
      "velocity": 120,
      "chip": "ym2612"
    },
    {
      "channel": 2,
      "note": 53,
      "start": 13.0627,
      "duration": 0.0157,
      "velocity": 100,
      "chip": "ym2612"
    },
    {
      "channel": 1,
      "note": 56,
      "start": 13.0709,
      "duration": 0.0161,
      "velocity": 124,
      "chip": "ym2612"
    },
    {
      "channel": 0,
      "note": 38,
      "start": 13.0726,
      "duration": 0.0161,
      "velocity": 115,
      "chip": "ym2612"
    },
    {
      "channel": 4,
      "note": 65,
      "start": 13.0761,
      "duration": 0.014,
      "velocity": 120,
      "chip": "ym2612"
    },
    {
      "channel": 3,
      "note": 60,
      "start": 13.0772,
      "duration": 0.0141,
      "velocity": 120,
      "chip": "ym2612"
    },
    {
      "channel": 2,
      "note": 53,
      "start": 13.0784,
      "duration": 0.0141,
      "velocity": 100,
      "chip": "ym2612"
    },
    {
      "channel": 1,
      "note": 55,
      "start": 13.0869,
      "duration": 0.0161,
      "velocity": 124,
      "chip": "ym2612"
    },
    {
      "channel": 0,
      "note": 39,
      "start": 13.0887,
      "duration": 0.0161,
      "velocity": 115,
      "chip": "ym2612"
    },
    {
      "channel": 4,
      "note": 65,
      "start": 13.0901,
      "duration": 0.0185,
      "velocity": 120,
      "chip": "ym2612"
    },
    {
      "channel": 3,
      "note": 60,
      "start": 13.0913,
      "duration": 0.0185,
      "velocity": 120,
      "chip": "ym2612"
    },
    {
      "channel": 2,
      "note": 53,
      "start": 13.0924,
      "duration": 0.0185,
      "velocity": 100,
      "chip": "ym2612"
    },
    {
      "channel": 1,
      "note": 53,
      "start": 13.103,
      "duration": 0.0161,
      "velocity": 124,
      "chip": "ym2612"
    },
    {
      "channel": 0,
      "note": 39,
      "start": 13.1048,
      "duration": 0.0161,
      "velocity": 115,
      "chip": "ym2612"
    },
    {
      "channel": 4,
      "note": 65,
      "start": 13.1086,
      "duration": 0.0134,
      "velocity": 120,
      "chip": "ym2612"
    },
    {
      "channel": 3,
      "note": 60,
      "start": 13.1098,
      "duration": 0.0161,
      "velocity": 120,
      "chip": "ym2612"
    },
    {
      "channel": 1,
      "note": 52,
      "start": 13.1191,
      "duration": 0.0161,
      "velocity": 124,
      "chip": "ym2612"
    },
    {
      "channel": 0,
      "note": 40,
      "start": 13.1209,
      "duration": 0.0161,
      "velocity": 115,
      "chip": "ym2612"
    },
    {
      "channel": 4,
      "note": 65,
      "start": 13.122,
      "duration": 0.0161,
      "velocity": 120,
      "chip": "ym2612"
    },
    {
      "channel": 3,
      "note": 60,
      "start": 13.1259,
      "duration": 0.0134,
      "velocity": 120,
      "chip": "ym2612"
    },
    {
      "channel": 1,
      "note": 51,
      "start": 13.1352,
      "duration": 0.0153,
      "velocity": 1,
      "chip": "ym2612"
    },
    {
      "channel": 0,
      "note": 40,
      "start": 13.1369,
      "duration": 0.0154,
      "velocity": 115,
      "chip": "ym2612"
    },
    {
      "channel": 4,
      "note": 65,
      "start": 13.1381,
      "duration": 0.0153,
      "velocity": 120,
      "chip": "ym2612"
    },
    {
      "channel": 3,
      "note": 60,
      "start": 13.1392,
      "duration": 0.0154,
      "velocity": 120,
      "chip": "ym2612"
    },
    {
      "channel": 0,
      "note": 40,
      "start": 13.1523,
      "duration": 0.0152,
      "velocity": 115,
      "chip": "ym2612"
    },
    {
      "channel": 4,
      "note": 65,
      "start": 13.1534,
      "duration": 0.0153,
      "velocity": 120,
      "chip": "ym2612"
    },
    {
      "channel": 3,
      "note": 60,
      "start": 13.1546,
      "duration": 0.0152,
      "velocity": 120,
      "chip": "ym2612"
    },
    {
      "channel": 0,
      "note": 41,
      "start": 13.1675,
      "duration": 0.0162,
      "velocity": 115,
      "chip": "ym2612"
    },
    {
      "channel": 4,
      "note": 65,
      "start": 13.1687,
      "duration": 0.0161,
      "velocity": 120,
      "chip": "ym2612"
    },
    {
      "channel": 3,
      "note": 60,
      "start": 13.1698,
      "duration": 0.0162,
      "velocity": 120,
      "chip": "ym2612"
    },
    {
      "channel": 0,
      "note": 41,
      "start": 13.1837,
      "duration": 0.0161,
      "velocity": 115,
      "chip": "ym2612"
    },
    {
      "channel": 4,
      "note": 65,
      "start": 13.1848,
      "duration": 0.0161,
      "velocity": 120,
      "chip": "ym2612"
    },
    {
      "channel": 3,
      "note": 60,
      "start": 13.1859,
      "duration": 0.0161,
      "velocity": 120,
      "chip": "ym2612"
    },
    {
      "channel": 2,
      "note": 53,
      "start": 13.1873,
      "duration": 0.0159,
      "velocity": 100,
      "chip": "ym2612"
    },
    {
      "channel": 1,
      "note": 41,
      "start": 13.1888,
      "duration": 0.0156,
      "velocity": 100,
      "chip": "ym2612"
    },
    {
      "channel": 0,
      "note": 42,
      "start": 13.1997,
      "duration": 0.0161,
      "velocity": 115,
      "chip": "ym2612"
    },
    {
      "channel": 4,
      "note": 65,
      "start": 13.2009,
      "duration": 0.0161,
      "velocity": 120,
      "chip": "ym2612"
    },
    {
      "channel": 3,
      "note": 60,
      "start": 13.202,
      "duration": 0.0161,
      "velocity": 120,
      "chip": "ym2612"
    },
    {
      "channel": 2,
      "note": 53,
      "start": 13.2032,
      "duration": 0.016,
      "velocity": 100,
      "chip": "ym2612"
    },
    {
      "channel": 1,
      "note": 41,
      "start": 13.2044,
      "duration": 0.016,
      "velocity": 100,
      "chip": "ym2612"
    },
    {
      "channel": 0,
      "note": 42,
      "start": 13.2158,
      "duration": 0.0161,
      "velocity": 115,
      "chip": "ym2612"
    },
    {
      "channel": 4,
      "note": 65,
      "start": 13.217,
      "duration": 0.0161,
      "velocity": 120,
      "chip": "ym2612"
    },
    {
      "channel": 3,
      "note": 60,
      "start": 13.2181,
      "duration": 0.0161,
      "velocity": 120,
      "chip": "ym2612"
    },
    {
      "channel": 2,
      "note": 53,
      "start": 13.2192,
      "duration": 0.0161,
      "velocity": 100,
      "chip": "ym2612"
    },
    {
      "channel": 1,
      "note": 41,
      "start": 13.2203,
      "duration": 0.0161,
      "velocity": 100,
      "chip": "ym2612"
    },
    {
      "channel": 0,
      "note": 43,
      "start": 13.2319,
      "duration": 0.0161,
      "velocity": 115,
      "chip": "ym2612"
    },
    {
      "channel": 4,
      "note": 65,
      "start": 13.2331,
      "duration": 0.0161,
      "velocity": 120,
      "chip": "ym2612"
    },
    {
      "channel": 3,
      "note": 60,
      "start": 13.2342,
      "duration": 0.0161,
      "velocity": 120,
      "chip": "ym2612"
    },
    {
      "channel": 2,
      "note": 53,
      "start": 13.2354,
      "duration": 0.0161,
      "velocity": 100,
      "chip": "ym2612"
    },
    {
      "channel": 1,
      "note": 41,
      "start": 13.2364,
      "duration": 0.0161,
      "velocity": 100,
      "chip": "ym2612"
    },
    {
      "channel": 0,
      "note": 43,
      "start": 13.248,
      "duration": 0.0161,
      "velocity": 115,
      "chip": "ym2612"
    },
    {
      "channel": 4,
      "note": 65,
      "start": 13.2492,
      "duration": 0.0161,
      "velocity": 120,
      "chip": "ym2612"
    },
    {
      "channel": 3,
      "note": 60,
      "start": 13.2503,
      "duration": 0.0161,
      "velocity": 120,
      "chip": "ym2612"
    },
    {
      "channel": 2,
      "note": 53,
      "start": 13.2515,
      "duration": 0.0161,
      "velocity": 100,
      "chip": "ym2612"
    },
    {
      "channel": 1,
      "note": 41,
      "start": 13.2525,
      "duration": 0.0161,
      "velocity": 100,
      "chip": "ym2612"
    },
    {
      "channel": 0,
      "note": 44,
      "start": 13.2641,
      "duration": 0.0161,
      "velocity": 115,
      "chip": "ym2612"
    },
    {
      "channel": 4,
      "note": 65,
      "start": 13.2653,
      "duration": 0.0161,
      "velocity": 120,
      "chip": "ym2612"
    },
    {
      "channel": 3,
      "note": 60,
      "start": 13.2664,
      "duration": 0.0161,
      "velocity": 120,
      "chip": "ym2612"
    },
    {
      "channel": 2,
      "note": 53,
      "start": 13.2676,
      "duration": 0.0161,
      "velocity": 100,
      "chip": "ym2612"
    },
    {
      "channel": 1,
      "note": 41,
      "start": 13.2686,
      "duration": 0.0161,
      "velocity": 100,
      "chip": "ym2612"
    },
    {
      "channel": 0,
      "note": 44,
      "start": 13.2802,
      "duration": 0.0161,
      "velocity": 115,
      "chip": "ym2612"
    },
    {
      "channel": 4,
      "note": 65,
      "start": 13.2814,
      "duration": 0.0161,
      "velocity": 120,
      "chip": "ym2612"
    },
    {
      "channel": 3,
      "note": 60,
      "start": 13.2825,
      "duration": 0.0161,
      "velocity": 120,
      "chip": "ym2612"
    },
    {
      "channel": 2,
      "note": 53,
      "start": 13.2837,
      "duration": 0.0161,
      "velocity": 100,
      "chip": "ym2612"
    },
    {
      "channel": 1,
      "note": 41,
      "start": 13.2847,
      "duration": 0.0162,
      "velocity": 100,
      "chip": "ym2612"
    },
    {
      "channel": 0,
      "note": 44,
      "start": 13.2963,
      "duration": 0.0161,
      "velocity": 115,
      "chip": "ym2612"
    },
    {
      "channel": 4,
      "note": 65,
      "start": 13.2974,
      "duration": 0.0161,
      "velocity": 120,
      "chip": "ym2612"
    },
    {
      "channel": 3,
      "note": 60,
      "start": 13.2986,
      "duration": 0.0161,
      "velocity": 120,
      "chip": "ym2612"
    },
    {
      "channel": 0,
      "note": 45,
      "start": 13.3124,
      "duration": 0.0161,
      "velocity": 115,
      "chip": "ym2612"
    },
    {
      "channel": 4,
      "note": 65,
      "start": 13.3135,
      "duration": 0.0162,
      "velocity": 120,
      "chip": "ym2612"
    },
    {
      "channel": 3,
      "note": 60,
      "start": 13.3147,
      "duration": 0.0161,
      "velocity": 120,
      "chip": "ym2612"
    },
    {
      "channel": 0,
      "note": 45,
      "start": 13.3285,
      "duration": 0.0161,
      "velocity": 115,
      "chip": "ym2612"
    },
    {
      "channel": 4,
      "note": 65,
      "start": 13.3297,
      "duration": 0.0161,
      "velocity": 120,
      "chip": "ym2612"
    },
    {
      "channel": 3,
      "note": 60,
      "start": 13.3308,
      "duration": 0.0161,
      "velocity": 120,
      "chip": "ym2612"
    },
    {
      "channel": 0,
      "note": 46,
      "start": 13.3446,
      "duration": 0.0161,
      "velocity": 115,
      "chip": "ym2612"
    },
    {
      "channel": 4,
      "note": 65,
      "start": 13.3458,
      "duration": 0.0161,
      "velocity": 120,
      "chip": "ym2612"
    },
    {
      "channel": 3,
      "note": 60,
      "start": 13.3469,
      "duration": 0.0161,
      "velocity": 120,
      "chip": "ym2612"
    },
    {
      "channel": 0,
      "note": 46,
      "start": 13.3607,
      "duration": 0.0183,
      "velocity": 115,
      "chip": "ym2612"
    },
    {
      "channel": 4,
      "note": 65,
      "start": 13.3619,
      "duration": 0.0184,
      "velocity": 120,
      "chip": "ym2612"
    },
    {
      "channel": 3,
      "note": 60,
      "start": 13.363,
      "duration": 0.0184,
      "velocity": 120,
      "chip": "ym2612"
    },
    {
      "channel": 0,
      "note": 36,
      "start": 13.3791,
      "duration": 0.015,
      "velocity": 115,
      "chip": "ym2612"
    },
    {
      "channel": 4,
      "note": 65,
      "start": 13.3803,
      "duration": 0.0149,
      "velocity": 120,
      "chip": "ym2612"
    },
    {
      "channel": 3,
      "note": 60,
      "start": 13.3814,
      "duration": 0.015,
      "velocity": 120,
      "chip": "ym2612"
    },
    {
      "channel": 2,
      "note": 53,
      "start": 13.3829,
      "duration": 0.0146,
      "velocity": 100,
      "chip": "ym2612"
    },
    {
      "channel": 1,
      "note": 41,
      "start": 13.3843,
      "duration": 0.0144,
      "velocity": 100,
      "chip": "ym2612"
    },
    {
      "channel": 0,
      "note": 36,
      "start": 13.3941,
      "duration": 0.0162,
      "velocity": 115,
      "chip": "ym2612"
    },
    {
      "channel": 4,
      "note": 65,
      "start": 13.3952,
      "duration": 0.0162,
      "velocity": 120,
      "chip": "ym2612"
    },
    {
      "channel": 3,
      "note": 60,
      "start": 13.3964,
      "duration": 0.0162,
      "velocity": 120,
      "chip": "ym2612"
    },
    {
      "channel": 2,
      "note": 53,
      "start": 13.3975,
      "duration": 0.0162,
      "velocity": 100,
      "chip": "ym2612"
    },
    {
      "channel": 1,
      "note": 41,
      "start": 13.3987,
      "duration": 0.0161,
      "velocity": 100,
      "chip": "ym2612"
    },
    {
      "channel": 0,
      "note": 37,
      "start": 13.4103,
      "duration": 0.0148,
      "velocity": 115,
      "chip": "ym2612"
    },
    {
      "channel": 4,
      "note": 65,
      "start": 13.4114,
      "duration": 0.0148,
      "velocity": 120,
      "chip": "ym2612"
    },
    {
      "channel": 3,
      "note": 60,
      "start": 13.4126,
      "duration": 0.0148,
      "velocity": 120,
      "chip": "ym2612"
    },
    {
      "channel": 2,
      "note": 53,
      "start": 13.4137,
      "duration": 0.0148,
      "velocity": 100,
      "chip": "ym2612"
    },
    {
      "channel": 1,
      "note": 41,
      "start": 13.4148,
      "duration": 0.0148,
      "velocity": 100,
      "chip": "ym2612"
    },
    {
      "channel": 0,
      "note": 37,
      "start": 13.4251,
      "duration": 0.0189,
      "velocity": 115,
      "chip": "ym2612"
    },
    {
      "channel": 4,
      "note": 65,
      "start": 13.4263,
      "duration": 0.0189,
      "velocity": 120,
      "chip": "ym2612"
    },
    {
      "channel": 3,
      "note": 60,
      "start": 13.4274,
      "duration": 0.0189,
      "velocity": 120,
      "chip": "ym2612"
    },
    {
      "channel": 2,
      "note": 53,
      "start": 13.4285,
      "duration": 0.0188,
      "velocity": 100,
      "chip": "ym2612"
    },
    {
      "channel": 1,
      "note": 41,
      "start": 13.4296,
      "duration": 0.0189,
      "velocity": 100,
      "chip": "ym2612"
    },
    {
      "channel": 0,
      "note": 38,
      "start": 13.444,
      "duration": 0.0161,
      "velocity": 115,
      "chip": "ym2612"
    },
    {
      "channel": 4,
      "note": 65,
      "start": 13.4451,
      "duration": 0.0161,
      "velocity": 120,
      "chip": "ym2612"
    },
    {
      "channel": 3,
      "note": 60,
      "start": 13.4463,
      "duration": 0.0161,
      "velocity": 120,
      "chip": "ym2612"
    },
    {
      "channel": 2,
      "note": 53,
      "start": 13.4474,
      "duration": 0.0161,
      "velocity": 100,
      "chip": "ym2612"
    },
    {
      "channel": 1,
      "note": 41,
      "start": 13.4485,
      "duration": 0.0161,
      "velocity": 100,
      "chip": "ym2612"
    },
    {
      "channel": 0,
      "note": 38,
      "start": 13.4601,
      "duration": 0.0157,
      "velocity": 115,
      "chip": "ym2612"
    },
    {
      "channel": 4,
      "note": 65,
      "start": 13.4612,
      "duration": 0.0157,
      "velocity": 120,
      "chip": "ym2612"
    },
    {
      "channel": 3,
      "note": 60,
      "start": 13.4624,
      "duration": 0.0157,
      "velocity": 120,
      "chip": "ym2612"
    },
    {
      "channel": 2,
      "note": 53,
      "start": 13.4635,
      "duration": 0.0157,
      "velocity": 100,
      "chip": "ym2612"
    },
    {
      "channel": 1,
      "note": 41,
      "start": 13.4646,
      "duration": 0.0157,
      "velocity": 100,
      "chip": "ym2612"
    },
    {
      "channel": 0,
      "note": 39,
      "start": 13.4758,
      "duration": 0.0141,
      "velocity": 115,
      "chip": "ym2612"
    },
    {
      "channel": 4,
      "note": 65,
      "start": 13.477,
      "duration": 0.0141,
      "velocity": 120,
      "chip": "ym2612"
    },
    {
      "channel": 3,
      "note": 60,
      "start": 13.4781,
      "duration": 0.0141,
      "velocity": 120,
      "chip": "ym2612"
    },
    {
      "channel": 2,
      "note": 53,
      "start": 13.4793,
      "duration": 0.0141,
      "velocity": 100,
      "chip": "ym2612"
    },
    {
      "channel": 1,
      "note": 41,
      "start": 13.4803,
      "duration": 0.0141,
      "velocity": 100,
      "chip": "ym2612"
    },
    {
      "channel": 0,
      "note": 39,
      "start": 13.4899,
      "duration": 0.0158,
      "velocity": 115,
      "chip": "ym2612"
    },
    {
      "channel": 4,
      "note": 65,
      "start": 13.491,
      "duration": 0.0185,
      "velocity": 120,
      "chip": "ym2612"
    },
    {
      "channel": 3,
      "note": 60,
      "start": 13.4922,
      "duration": 0.0185,
      "velocity": 120,
      "chip": "ym2612"
    },
    {
      "channel": 0,
      "note": 40,
      "start": 13.5056,
      "duration": 0.0161,
      "velocity": 115,
      "chip": "ym2612"
    },
    {
      "channel": 4,
      "note": 65,
      "start": 13.5095,
      "duration": 0.0161,
      "velocity": 120,
      "chip": "ym2612"
    },
    {
      "channel": 3,
      "note": 60,
      "start": 13.5107,
      "duration": 0.0161,
      "velocity": 120,
      "chip": "ym2612"
    },
    {
      "channel": 0,
      "note": 40,
      "start": 13.5217,
      "duration": 0.0161,
      "velocity": 115,
      "chip": "ym2612"
    },
    {
      "channel": 4,
      "note": 65,
      "start": 13.5256,
      "duration": 0.0134,
      "velocity": 120,
      "chip": "ym2612"
    },
    {
      "channel": 3,
      "note": 60,
      "start": 13.5268,
      "duration": 0.0157,
      "velocity": 120,
      "chip": "ym2612"
    },
    {
      "channel": 0,
      "note": 40,
      "start": 13.5378,
      "duration": 0.0161,
      "velocity": 115,
      "chip": "ym2612"
    },
    {
      "channel": 4,
      "note": 65,
      "start": 13.539,
      "duration": 0.0161,
      "velocity": 120,
      "chip": "ym2612"
    },
    {
      "channel": 3,
      "note": 60,
      "start": 13.5425,
      "duration": 0.0141,
      "velocity": 120,
      "chip": "ym2612"
    },
    {
      "channel": 0,
      "note": 41,
      "start": 13.5539,
      "duration": 0.0223,
      "velocity": 115,
      "chip": "ym2612"
    },
    {
      "channel": 4,
      "note": 65,
      "start": 13.5551,
      "duration": 0.0223,
      "velocity": 120,
      "chip": "ym2612"
    },
    {
      "channel": 3,
      "note": 60,
      "start": 13.5565,
      "duration": 0.022,
      "velocity": 120,
      "chip": "ym2612"
    },
    {
      "channel": 1,
      "note": 78,
      "start": 13.5717,
      "duration": 0.0144,
      "velocity": 124,
      "chip": "ym2612"
    },
    {
      "channel": 0,
      "note": 41,
      "start": 13.5763,
      "duration": 0.0116,
      "velocity": 115,
      "chip": "ym2612"
    },
    {
      "channel": 4,
      "note": 65,
      "start": 13.5774,
      "duration": 0.0116,
      "velocity": 120,
      "chip": "ym2612"
    },
    {
      "channel": 3,
      "note": 60,
      "start": 13.5785,
      "duration": 0.0143,
      "velocity": 120,
      "chip": "ym2612"
    },
    {
      "channel": 2,
      "note": 53,
      "start": 13.58,
      "duration": 0.0141,
      "velocity": 100,
      "chip": "ym2612"
    },
    {
      "channel": 1,
      "note": 76,
      "start": 13.5861,
      "duration": 0.016,
      "velocity": 124,
      "chip": "ym2612"
    },
    {
      "channel": 0,
      "note": 42,
      "start": 13.5878,
      "duration": 0.016,
      "velocity": 115,
      "chip": "ym2612"
    },
    {
      "channel": 4,
      "note": 65,
      "start": 13.589,
      "duration": 0.016,
      "velocity": 120,
      "chip": "ym2612"
    },
    {
      "channel": 3,
      "note": 60,
      "start": 13.5929,
      "duration": 0.0156,
      "velocity": 120,
      "chip": "ym2612"
    },
    {
      "channel": 2,
      "note": 53,
      "start": 13.5941,
      "duration": 0.0156,
      "velocity": 100,
      "chip": "ym2612"
    },
    {
      "channel": 1,
      "note": 75,
      "start": 13.6022,
      "duration": 0.0161,
      "velocity": 124,
      "chip": "ym2612"
    },
    {
      "channel": 0,
      "note": 42,
      "start": 13.6039,
      "duration": 0.0161,
      "velocity": 115,
      "chip": "ym2612"
    },
    {
      "channel": 4,
      "note": 65,
      "start": 13.605,
      "duration": 0.0162,
      "velocity": 120,
      "chip": "ym2612"
    },
    {
      "channel": 3,
      "note": 60,
      "start": 13.6085,
      "duration": 0.0137,
      "velocity": 120,
      "chip": "ym2612"
    },
    {
      "channel": 2,
      "note": 53,
      "start": 13.6097,
      "duration": 0.0141,
      "velocity": 100,
      "chip": "ym2612"
    },
    {
      "channel": 1,
      "note": 74,
      "start": 13.6183,
      "duration": 0.0161,
      "velocity": 124,
      "chip": "ym2612"
    },
    {
      "channel": 0,
      "note": 43,
      "start": 13.62,
      "duration": 0.0162,
      "velocity": 115,
      "chip": "ym2612"
    },
    {
      "channel": 4,
      "note": 65,
      "start": 13.6212,
      "duration": 0.0161,
      "velocity": 120,
      "chip": "ym2612"
    },
    {
      "channel": 3,
      "note": 60,
      "start": 13.6222,
      "duration": 0.0162,
      "velocity": 120,
      "chip": "ym2612"
    },
    {
      "channel": 2,
      "note": 53,
      "start": 13.6237,
      "duration": 0.0186,
      "velocity": 100,
      "chip": "ym2612"
    },
    {
      "channel": 1,
      "note": 72,
      "start": 13.6343,
      "duration": 0.0162,
      "velocity": 124,
      "chip": "ym2612"
    },
    {
      "channel": 0,
      "note": 43,
      "start": 13.6361,
      "duration": 0.0161,
      "velocity": 115,
      "chip": "ym2612"
    },
    {
      "channel": 4,
      "note": 65,
      "start": 13.6373,
      "duration": 0.0161,
      "velocity": 120,
      "chip": "ym2612"
    },
    {
      "channel": 3,
      "note": 60,
      "start": 13.6384,
      "duration": 0.0161,
      "velocity": 120,
      "chip": "ym2612"
    },
    {
      "channel": 2,
      "note": 53,
      "start": 13.6423,
      "duration": 0.0134,
      "velocity": 100,
      "chip": "ym2612"
    },
    {
      "channel": 1,
      "note": 71,
      "start": 13.6505,
      "duration": 0.0161,
      "velocity": 124,
      "chip": "ym2612"
    },
    {
      "channel": 0,
      "note": 44,
      "start": 13.6522,
      "duration": 0.0161,
      "velocity": 115,
      "chip": "ym2612"
    },
    {
      "channel": 4,
      "note": 65,
      "start": 13.6534,
      "duration": 0.0161,
      "velocity": 120,
      "chip": "ym2612"
    },
    {
      "channel": 3,
      "note": 60,
      "start": 13.6545,
      "duration": 0.0161,
      "velocity": 120,
      "chip": "ym2612"
    },
    {
      "channel": 2,
      "note": 53,
      "start": 13.6556,
      "duration": 0.0161,
      "velocity": 100,
      "chip": "ym2612"
    },
    {
      "channel": 1,
      "note": 70,
      "start": 13.6666,
      "duration": 0.0161,
      "velocity": 124,
      "chip": "ym2612"
    },
    {
      "channel": 0,
      "note": 44,
      "start": 13.6683,
      "duration": 0.0161,
      "velocity": 115,
      "chip": "ym2612"
    },
    {
      "channel": 4,
      "note": 65,
      "start": 13.6695,
      "duration": 0.0161,
      "velocity": 120,
      "chip": "ym2612"
    },
    {
      "channel": 3,
      "note": 60,
      "start": 13.6706,
      "duration": 0.0161,
      "velocity": 120,
      "chip": "ym2612"
    },
    {
      "channel": 2,
      "note": 53,
      "start": 13.6717,
      "duration": 0.0161,
      "velocity": 100,
      "chip": "ym2612"
    },
    {
      "channel": 1,
      "note": 69,
      "start": 13.6827,
      "duration": 0.0161,
      "velocity": 124,
      "chip": "ym2612"
    },
    {
      "channel": 0,
      "note": 44,
      "start": 13.6844,
      "duration": 0.0161,
      "velocity": 115,
      "chip": "ym2612"
    },
    {
      "channel": 4,
      "note": 65,
      "start": 13.6856,
      "duration": 0.0161,
      "velocity": 120,
      "chip": "ym2612"
    },
    {
      "channel": 3,
      "note": 60,
      "start": 13.6867,
      "duration": 0.0161,
      "velocity": 120,
      "chip": "ym2612"
    },
    {
      "channel": 1,
      "note": 68,
      "start": 13.6988,
      "duration": 0.0161,
      "velocity": 124,
      "chip": "ym2612"
    },
    {
      "channel": 0,
      "note": 45,
      "start": 13.7005,
      "duration": 0.0161,
      "velocity": 115,
      "chip": "ym2612"
    },
    {
      "channel": 4,
      "note": 65,
      "start": 13.7016,
      "duration": 0.0161,
      "velocity": 120,
      "chip": "ym2612"
    },
    {
      "channel": 3,
      "note": 60,
      "start": 13.7028,
      "duration": 0.0161,
      "velocity": 120,
      "chip": "ym2612"
    },
    {
      "channel": 1,
      "note": 66,
      "start": 13.7149,
      "duration": 0.0161,
      "velocity": 124,
      "chip": "ym2612"
    },
    {
      "channel": 0,
      "note": 45,
      "start": 13.7166,
      "duration": 0.0161,
      "velocity": 115,
      "chip": "ym2612"
    },
    {
      "channel": 4,
      "note": 65,
      "start": 13.7177,
      "duration": 0.0161,
      "velocity": 120,
      "chip": "ym2612"
    },
    {
      "channel": 3,
      "note": 60,
      "start": 13.7189,
      "duration": 0.0161,
      "velocity": 120,
      "chip": "ym2612"
    },
    {
      "channel": 1,
      "note": 65,
      "start": 13.731,
      "duration": 0.0161,
      "velocity": 124,
      "chip": "ym2612"
    },
    {
      "channel": 0,
      "note": 46,
      "start": 13.7327,
      "duration": 0.0161,
      "velocity": 115,
      "chip": "ym2612"
    },
    {
      "channel": 4,
      "note": 65,
      "start": 13.7338,
      "duration": 0.0161,
      "velocity": 120,
      "chip": "ym2612"
    },
    {
      "channel": 3,
      "note": 60,
      "start": 13.735,
      "duration": 0.0161,
      "velocity": 120,
      "chip": "ym2612"
    },
    {
      "channel": 1,
      "note": 64,
      "start": 13.7471,
      "duration": 0.0161,
      "velocity": 124,
      "chip": "ym2612"
    },
    {
      "channel": 0,
      "note": 46,
      "start": 13.7488,
      "duration": 0.0179,
      "velocity": 115,
      "chip": "ym2612"
    },
    {
      "channel": 4,
      "note": 65,
      "start": 13.7499,
      "duration": 0.0179,
      "velocity": 120,
      "chip": "ym2612"
    },
    {
      "channel": 3,
      "note": 60,
      "start": 13.7511,
      "duration": 0.0179,
      "velocity": 120,
      "chip": "ym2612"
    },
    {
      "channel": 1,
      "note": 62,
      "start": 13.7632,
      "duration": 0.0161,
      "velocity": 124,
      "chip": "ym2612"
    },
    {
      "channel": 0,
      "note": 36,
      "start": 13.7667,
      "duration": 0.0144,
      "velocity": 115,
      "chip": "ym2612"
    },
    {
      "channel": 4,
      "note": 65,
      "start": 13.7679,
      "duration": 0.0144,
      "velocity": 120,
      "chip": "ym2612"
    },
    {
      "channel": 3,
      "note": 60,
      "start": 13.769,
      "duration": 0.0144,
      "velocity": 120,
      "chip": "ym2612"
    },
    {
      "channel": 2,
      "note": 53,
      "start": 13.7704,
      "duration": 0.0141,
      "velocity": 100,
      "chip": "ym2612"
    },
    {
      "channel": 1,
      "note": 61,
      "start": 13.7793,
      "duration": 0.0162,
      "velocity": 124,
      "chip": "ym2612"
    },
    {
      "channel": 0,
      "note": 36,
      "start": 13.7811,
      "duration": 0.016,
      "velocity": 115,
      "chip": "ym2612"
    },
    {
      "channel": 4,
      "note": 65,
      "start": 13.7822,
      "duration": 0.016,
      "velocity": 120,
      "chip": "ym2612"
    },
    {
      "channel": 3,
      "note": 60,
      "start": 13.7834,
      "duration": 0.016,
      "velocity": 120,
      "chip": "ym2612"
    },
    {
      "channel": 2,
      "note": 53,
      "start": 13.7845,
      "duration": 0.016,
      "velocity": 100,
      "chip": "ym2612"
    },
    {
      "channel": 1,
      "note": 60,
      "start": 13.7954,
      "duration": 0.0161,
      "velocity": 124,
      "chip": "ym2612"
    },
    {
      "channel": 0,
      "note": 37,
      "start": 13.7971,
      "duration": 0.0161,
      "velocity": 115,
      "chip": "ym2612"
    },
    {
      "channel": 4,
      "note": 65,
      "start": 13.7983,
      "duration": 0.0161,
      "velocity": 120,
      "chip": "ym2612"
    },
    {
      "channel": 3,
      "note": 60,
      "start": 13.7994,
      "duration": 0.0161,
      "velocity": 120,
      "chip": "ym2612"
    },
    {
      "channel": 2,
      "note": 53,
      "start": 13.8005,
      "duration": 0.0161,
      "velocity": 100,
      "chip": "ym2612"
    },
    {
      "channel": 1,
      "note": 59,
      "start": 13.8115,
      "duration": 0.0161,
      "velocity": 124,
      "chip": "ym2612"
    },
    {
      "channel": 0,
      "note": 37,
      "start": 13.8132,
      "duration": 0.0161,
      "velocity": 115,
      "chip": "ym2612"
    },
    {
      "channel": 4,
      "note": 65,
      "start": 13.8144,
      "duration": 0.0161,
      "velocity": 120,
      "chip": "ym2612"
    },
    {
      "channel": 3,
      "note": 60,
      "start": 13.8155,
      "duration": 0.0161,
      "velocity": 120,
      "chip": "ym2612"
    },
    {
      "channel": 2,
      "note": 53,
      "start": 13.8166,
      "duration": 0.0161,
      "velocity": 100,
      "chip": "ym2612"
    },
    {
      "channel": 1,
      "note": 57,
      "start": 13.8276,
      "duration": 0.0163,
      "velocity": 124,
      "chip": "ym2612"
    },
    {
      "channel": 0,
      "note": 38,
      "start": 13.8293,
      "duration": 0.0163,
      "velocity": 115,
      "chip": "ym2612"
    },
    {
      "channel": 4,
      "note": 65,
      "start": 13.8305,
      "duration": 0.0163,
      "velocity": 120,
      "chip": "ym2612"
    },
    {
      "channel": 3,
      "note": 60,
      "start": 13.8316,
      "duration": 0.0163,
      "velocity": 120,
      "chip": "ym2612"
    },
    {
      "channel": 2,
      "note": 53,
      "start": 13.8327,
      "duration": 0.0163,
      "velocity": 100,
      "chip": "ym2612"
    },
    {
      "channel": 1,
      "note": 56,
      "start": 13.8439,
      "duration": 0.0167,
      "velocity": 124,
      "chip": "ym2612"
    },
    {
      "channel": 0,
      "note": 38,
      "start": 13.8456,
      "duration": 0.0167,
      "velocity": 115,
      "chip": "ym2612"
    },
    {
      "channel": 4,
      "note": 65,
      "start": 13.8467,
      "duration": 0.0167,
      "velocity": 120,
      "chip": "ym2612"
    },
    {
      "channel": 3,
      "note": 60,
      "start": 13.8479,
      "duration": 0.0167,
      "velocity": 120,
      "chip": "ym2612"
    },
    {
      "channel": 2,
      "note": 53,
      "start": 13.849,
      "duration": 0.0167,
      "velocity": 100,
      "chip": "ym2612"
    },
    {
      "channel": 1,
      "note": 55,
      "start": 13.8605,
      "duration": 0.0163,
      "velocity": 124,
      "chip": "ym2612"
    },
    {
      "channel": 0,
      "note": 39,
      "start": 13.8623,
      "duration": 0.0163,
      "velocity": 115,
      "chip": "ym2612"
    },
    {
      "channel": 4,
      "note": 65,
      "start": 13.8635,
      "duration": 0.0163,
      "velocity": 120,
      "chip": "ym2612"
    },
    {
      "channel": 3,
      "note": 60,
      "start": 13.8646,
      "duration": 0.0163,
      "velocity": 120,
      "chip": "ym2612"
    },
    {
      "channel": 2,
      "note": 53,
      "start": 13.8657,
      "duration": 0.0163,
      "velocity": 100,
      "chip": "ym2612"
    },
    {
      "channel": 1,
      "note": 53,
      "start": 13.8769,
      "duration": 0.0151,
      "velocity": 124,
      "chip": "ym2612"
    },
    {
      "channel": 0,
      "note": 39,
      "start": 13.8786,
      "duration": 0.0151,
      "velocity": 115,
      "chip": "ym2612"
    },
    {
      "channel": 4,
      "note": 65,
      "start": 13.8798,
      "duration": 0.0151,
      "velocity": 120,
      "chip": "ym2612"
    },
    {
      "channel": 3,
      "note": 60,
      "start": 13.8809,
      "duration": 0.0151,
      "velocity": 120,
      "chip": "ym2612"
    },
    {
      "channel": 1,
      "note": 52,
      "start": 13.892,
      "duration": 0.0186,
      "velocity": 124,
      "chip": "ym2612"
    },
    {
      "channel": 0,
      "note": 40,
      "start": 13.8937,
      "duration": 0.0186,
      "velocity": 115,
      "chip": "ym2612"
    },
    {
      "channel": 4,
      "note": 65,
      "start": 13.8948,
      "duration": 0.0186,
      "velocity": 120,
      "chip": "ym2612"
    },
    {
      "channel": 3,
      "note": 60,
      "start": 13.896,
      "duration": 0.0186,
      "velocity": 120,
      "chip": "ym2612"
    },
    {
      "channel": 1,
      "note": 51,
      "start": 13.9105,
      "duration": 0.0156,
      "velocity": 1,
      "chip": "ym2612"
    },
    {
      "channel": 0,
      "note": 40,
      "start": 13.9123,
      "duration": 0.0156,
      "velocity": 115,
      "chip": "ym2612"
    },
    {
      "channel": 4,
      "note": 65,
      "start": 13.9134,
      "duration": 0.0156,
      "velocity": 120,
      "chip": "ym2612"
    },
    {
      "channel": 3,
      "note": 60,
      "start": 13.9146,
      "duration": 0.0156,
      "velocity": 120,
      "chip": "ym2612"
    },
    {
      "channel": 0,
      "note": 40,
      "start": 13.9278,
      "duration": 0.0149,
      "velocity": 115,
      "chip": "ym2612"
    },
    {
      "channel": 4,
      "note": 65,
      "start": 13.929,
      "duration": 0.0149,
      "velocity": 120,
      "chip": "ym2612"
    },
    {
      "channel": 3,
      "note": 60,
      "start": 13.9301,
      "duration": 0.0149,
      "velocity": 120,
      "chip": "ym2612"
    },
    {
      "channel": 0,
      "note": 41,
      "start": 13.9427,
      "duration": 0.0158,
      "velocity": 115,
      "chip": "ym2612"
    },
    {
      "channel": 4,
      "note": 65,
      "start": 13.9439,
      "duration": 0.0161,
      "velocity": 120,
      "chip": "ym2612"
    },
    {
      "channel": 3,
      "note": 60,
      "start": 13.945,
      "duration": 0.0163,
      "velocity": 120,
      "chip": "ym2612"
    },
    {
      "channel": 0,
      "note": 36,
      "start": 13.9586,
      "duration": 0.0168,
      "velocity": 115,
      "chip": "ym2612"
    },
    {
      "channel": 4,
      "note": 68,
      "start": 13.96,
      "duration": 0.0166,
      "velocity": 120,
      "chip": "ym2612"
    },
    {
      "channel": 3,
      "note": 63,
      "start": 13.9614,
      "duration": 0.0164,
      "velocity": 120,
      "chip": "ym2612"
    },
    {
      "channel": 2,
      "note": 56,
      "start": 13.9628,
      "duration": 0.0162,
      "velocity": 100,
      "chip": "ym2612"
    },
    {
      "channel": 1,
      "note": 44,
      "start": 13.9643,
      "duration": 0.0158,
      "velocity": 100,
      "chip": "ym2612"
    },
    {
      "channel": 0,
      "note": 36,
      "start": 13.9754,
      "duration": 0.0133,
      "velocity": 115,
      "chip": "ym2612"
    },
    {
      "channel": 4,
      "note": 68,
      "start": 13.9766,
      "duration": 0.016,
      "velocity": 120,
      "chip": "ym2612"
    },
    {
      "channel": 3,
      "note": 63,
      "start": 13.9778,
      "duration": 0.0159,
      "velocity": 120,
      "chip": "ym2612"
    },
    {
      "channel": 2,
      "note": 56,
      "start": 13.979,
      "duration": 0.0158,
      "velocity": 100,
      "chip": "ym2612"
    },
    {
      "channel": 1,
      "note": 44,
      "start": 13.9801,
      "duration": 0.0159,
      "velocity": 100,
      "chip": "ym2612"
    },
    {
      "channel": 0,
      "note": 37,
      "start": 13.9887,
      "duration": 0.0161,
      "velocity": 115,
      "chip": "ym2612"
    },
    {
      "channel": 4,
      "note": 68,
      "start": 13.9925,
      "duration": 0.0157,
      "velocity": 120,
      "chip": "ym2612"
    },
    {
      "channel": 3,
      "note": 63,
      "start": 13.9937,
      "duration": 0.0158,
      "velocity": 120,
      "chip": "ym2612"
    },
    {
      "channel": 2,
      "note": 56,
      "start": 13.9948,
      "duration": 0.0157,
      "velocity": 100,
      "chip": "ym2612"
    },
    {
      "channel": 1,
      "note": 44,
      "start": 13.996,
      "duration": 0.0157,
      "velocity": 100,
      "chip": "ym2612"
    },
    {
      "channel": 0,
      "note": 37,
      "start": 14.0048,
      "duration": 0.0161,
      "velocity": 115,
      "chip": "ym2612"
    },
    {
      "channel": 4,
      "note": 68,
      "start": 14.0083,
      "duration": 0.0137,
      "velocity": 120,
      "chip": "ym2612"
    },
    {
      "channel": 3,
      "note": 63,
      "start": 14.0095,
      "duration": 0.014,
      "velocity": 120,
      "chip": "ym2612"
    },
    {
      "channel": 2,
      "note": 56,
      "start": 14.0105,
      "duration": 0.0141,
      "velocity": 100,
      "chip": "ym2612"
    },
    {
      "channel": 1,
      "note": 44,
      "start": 14.0117,
      "duration": 0.0141,
      "velocity": 100,
      "chip": "ym2612"
    },
    {
      "channel": 0,
      "note": 38,
      "start": 14.0209,
      "duration": 0.0161,
      "velocity": 115,
      "chip": "ym2612"
    },
    {
      "channel": 4,
      "note": 68,
      "start": 14.022,
      "duration": 0.0161,
      "velocity": 120,
      "chip": "ym2612"
    },
    {
      "channel": 3,
      "note": 63,
      "start": 14.0235,
      "duration": 0.0185,
      "velocity": 120,
      "chip": "ym2612"
    },
    {
      "channel": 2,
      "note": 56,
      "start": 14.0246,
      "duration": 0.0185,
      "velocity": 100,
      "chip": "ym2612"
    },
    {
      "channel": 1,
      "note": 44,
      "start": 14.0258,
      "duration": 0.0185,
      "velocity": 100,
      "chip": "ym2612"
    },
    {
      "channel": 0,
      "note": 38,
      "start": 14.0369,
      "duration": 0.0162,
      "velocity": 115,
      "chip": "ym2612"
    },
    {
      "channel": 4,
      "note": 68,
      "start": 14.0381,
      "duration": 0.0161,
      "velocity": 120,
      "chip": "ym2612"
    },
    {
      "channel": 3,
      "note": 63,
      "start": 14.042,
      "duration": 0.0134,
      "velocity": 120,
      "chip": "ym2612"
    },
    {
      "channel": 2,
      "note": 56,
      "start": 14.0431,
      "duration": 0.0161,
      "velocity": 100,
      "chip": "ym2612"
    },
    {
      "channel": 1,
      "note": 44,
      "start": 14.0443,
      "duration": 0.0162,
      "velocity": 100,
      "chip": "ym2612"
    },
    {
      "channel": 0,
      "note": 39,
      "start": 14.0531,
      "duration": 0.016,
      "velocity": 115,
      "chip": "ym2612"
    },
    {
      "channel": 4,
      "note": 68,
      "start": 14.0542,
      "duration": 0.0161,
      "velocity": 120,
      "chip": "ym2612"
    },
    {
      "channel": 3,
      "note": 63,
      "start": 14.0554,
      "duration": 0.016,
      "velocity": 120,
      "chip": "ym2612"
    },
    {
      "channel": 2,
      "note": 56,
      "start": 14.0593,
      "duration": 0.0156,
      "velocity": 100,
      "chip": "ym2612"
    },
    {
      "channel": 1,
      "note": 44,
      "start": 14.0604,
      "duration": 0.0157,
      "velocity": 100,
      "chip": "ym2612"
    },
    {
      "channel": 0,
      "note": 39,
      "start": 14.0691,
      "duration": 0.0161,
      "velocity": 115,
      "chip": "ym2612"
    },
    {
      "channel": 4,
      "note": 68,
      "start": 14.0703,
      "duration": 0.0161,
      "velocity": 120,
      "chip": "ym2612"
    },
    {
      "channel": 3,
      "note": 63,
      "start": 14.0714,
      "duration": 0.0161,
      "velocity": 120,
      "chip": "ym2612"
    },
    {
      "channel": 0,
      "note": 40,
      "start": 14.0853,
      "duration": 0.0161,
      "velocity": 115,
      "chip": "ym2612"
    },
    {
      "channel": 4,
      "note": 68,
      "start": 14.0864,
      "duration": 0.0161,
      "velocity": 120,
      "chip": "ym2612"
    },
    {
      "channel": 3,
      "note": 63,
      "start": 14.0876,
      "duration": 0.0161,
      "velocity": 120,
      "chip": "ym2612"
    },
    {
      "channel": 0,
      "note": 40,
      "start": 14.1014,
      "duration": 0.0161,
      "velocity": 115,
      "chip": "ym2612"
    },
    {
      "channel": 4,
      "note": 68,
      "start": 14.1025,
      "duration": 0.0161,
      "velocity": 120,
      "chip": "ym2612"
    },
    {
      "channel": 3,
      "note": 63,
      "start": 14.1037,
      "duration": 0.0161,
      "velocity": 120,
      "chip": "ym2612"
    },
    {
      "channel": 0,
      "note": 40,
      "start": 14.1175,
      "duration": 0.0161,
      "velocity": 115,
      "chip": "ym2612"
    },
    {
      "channel": 4,
      "note": 68,
      "start": 14.1186,
      "duration": 0.0161,
      "velocity": 120,
      "chip": "ym2612"
    },
    {
      "channel": 3,
      "note": 63,
      "start": 14.1198,
      "duration": 0.0161,
      "velocity": 120,
      "chip": "ym2612"
    },
    {
      "channel": 0,
      "note": 41,
      "start": 14.1336,
      "duration": 0.0161,
      "velocity": 115,
      "chip": "ym2612"
    },
    {
      "channel": 4,
      "note": 68,
      "start": 14.1347,
      "duration": 0.0161,
      "velocity": 120,
      "chip": "ym2612"
    },
    {
      "channel": 3,
      "note": 63,
      "start": 14.1359,
      "duration": 0.0161,
      "velocity": 120,
      "chip": "ym2612"
    },
    {
      "channel": 0,
      "note": 41,
      "start": 14.1497,
      "duration": 0.0161,
      "velocity": 115,
      "chip": "ym2612"
    },
    {
      "channel": 4,
      "note": 68,
      "start": 14.1508,
      "duration": 0.0161,
      "velocity": 120,
      "chip": "ym2612"
    },
    {
      "channel": 3,
      "note": 63,
      "start": 14.152,
      "duration": 0.0161,
      "velocity": 120,
      "chip": "ym2612"
    },
    {
      "channel": 2,
      "note": 56,
      "start": 14.1534,
      "duration": 0.0159,
      "velocity": 100,
      "chip": "ym2612"
    },
    {
      "channel": 1,
      "note": 44,
      "start": 14.1548,
      "duration": 0.0156,
      "velocity": 100,
      "chip": "ym2612"
    },
    {
      "channel": 0,
      "note": 42,
      "start": 14.1658,
      "duration": 0.0161,
      "velocity": 115,
      "chip": "ym2612"
    },
    {
      "channel": 4,
      "note": 68,
      "start": 14.1669,
      "duration": 0.0161,
      "velocity": 120,
      "chip": "ym2612"
    },
    {
      "channel": 3,
      "note": 63,
      "start": 14.168,
      "duration": 0.0161,
      "velocity": 120,
      "chip": "ym2612"
    },
    {
      "channel": 2,
      "note": 56,
      "start": 14.1693,
      "duration": 0.016,
      "velocity": 100,
      "chip": "ym2612"
    },
    {
      "channel": 1,
      "note": 44,
      "start": 14.1704,
      "duration": 0.016,
      "velocity": 100,
      "chip": "ym2612"
    },
    {
      "channel": 0,
      "note": 42,
      "start": 14.1819,
      "duration": 0.0161,
      "velocity": 115,
      "chip": "ym2612"
    },
    {
      "channel": 4,
      "note": 68,
      "start": 14.183,
      "duration": 0.0161,
      "velocity": 120,
      "chip": "ym2612"
    },
    {
      "channel": 3,
      "note": 63,
      "start": 14.1841,
      "duration": 0.0161,
      "velocity": 120,
      "chip": "ym2612"
    },
    {
      "channel": 2,
      "note": 56,
      "start": 14.1853,
      "duration": 0.0161,
      "velocity": 100,
      "chip": "ym2612"
    },
    {
      "channel": 1,
      "note": 44,
      "start": 14.1864,
      "duration": 0.0161,
      "velocity": 100,
      "chip": "ym2612"
    },
    {
      "channel": 0,
      "note": 43,
      "start": 14.198,
      "duration": 0.0161,
      "velocity": 115,
      "chip": "ym2612"
    },
    {
      "channel": 4,
      "note": 68,
      "start": 14.1991,
      "duration": 0.0162,
      "velocity": 120,
      "chip": "ym2612"
    },
    {
      "channel": 3,
      "note": 63,
      "start": 14.2002,
      "duration": 0.0161,
      "velocity": 120,
      "chip": "ym2612"
    },
    {
      "channel": 2,
      "note": 56,
      "start": 14.2014,
      "duration": 0.0161,
      "velocity": 100,
      "chip": "ym2612"
    },
    {
      "channel": 1,
      "note": 44,
      "start": 14.2025,
      "duration": 0.0161,
      "velocity": 100,
      "chip": "ym2612"
    },
    {
      "channel": 0,
      "note": 43,
      "start": 14.2141,
      "duration": 0.0161,
      "velocity": 115,
      "chip": "ym2612"
    },
    {
      "channel": 4,
      "note": 68,
      "start": 14.2153,
      "duration": 0.0161,
      "velocity": 120,
      "chip": "ym2612"
    },
    {
      "channel": 3,
      "note": 63,
      "start": 14.2164,
      "duration": 0.0161,
      "velocity": 120,
      "chip": "ym2612"
    },
    {
      "channel": 2,
      "note": 56,
      "start": 14.2175,
      "duration": 0.0161,
      "velocity": 100,
      "chip": "ym2612"
    },
    {
      "channel": 1,
      "note": 44,
      "start": 14.2186,
      "duration": 0.0161,
      "velocity": 100,
      "chip": "ym2612"
    },
    {
      "channel": 0,
      "note": 44,
      "start": 14.2302,
      "duration": 0.0161,
      "velocity": 115,
      "chip": "ym2612"
    },
    {
      "channel": 4,
      "note": 68,
      "start": 14.2314,
      "duration": 0.0161,
      "velocity": 120,
      "chip": "ym2612"
    },
    {
      "channel": 3,
      "note": 63,
      "start": 14.2325,
      "duration": 0.0161,
      "velocity": 120,
      "chip": "ym2612"
    },
    {
      "channel": 2,
      "note": 56,
      "start": 14.2336,
      "duration": 0.0161,
      "velocity": 100,
      "chip": "ym2612"
    },
    {
      "channel": 1,
      "note": 44,
      "start": 14.2347,
      "duration": 0.0161,
      "velocity": 100,
      "chip": "ym2612"
    },
    {
      "channel": 0,
      "note": 44,
      "start": 14.2463,
      "duration": 0.0161,
      "velocity": 115,
      "chip": "ym2612"
    },
    {
      "channel": 4,
      "note": 68,
      "start": 14.2474,
      "duration": 0.0161,
      "velocity": 120,
      "chip": "ym2612"
    },
    {
      "channel": 3,
      "note": 63,
      "start": 14.2486,
      "duration": 0.0161,
      "velocity": 120,
      "chip": "ym2612"
    },
    {
      "channel": 2,
      "note": 56,
      "start": 14.2497,
      "duration": 0.0162,
      "velocity": 100,
      "chip": "ym2612"
    },
    {
      "channel": 1,
      "note": 44,
      "start": 14.2508,
      "duration": 0.0162,
      "velocity": 100,
      "chip": "ym2612"
    },
    {
      "channel": 0,
      "note": 44,
      "start": 14.2624,
      "duration": 0.0161,
      "velocity": 115,
      "chip": "ym2612"
    },
    {
      "channel": 4,
      "note": 68,
      "start": 14.2635,
      "duration": 0.0161,
      "velocity": 120,
      "chip": "ym2612"
    },
    {
      "channel": 3,
      "note": 63,
      "start": 14.2647,
      "duration": 0.0161,
      "velocity": 120,
      "chip": "ym2612"
    },
    {
      "channel": 0,
      "note": 45,
      "start": 14.2785,
      "duration": 0.0161,
      "velocity": 115,
      "chip": "ym2612"
    },
    {
      "channel": 4,
      "note": 68,
      "start": 14.2796,
      "duration": 0.0161,
      "velocity": 120,
      "chip": "ym2612"
    },
    {
      "channel": 3,
      "note": 63,
      "start": 14.2808,
      "duration": 0.0161,
      "velocity": 120,
      "chip": "ym2612"
    },
    {
      "channel": 0,
      "note": 45,
      "start": 14.2946,
      "duration": 0.0161,
      "velocity": 115,
      "chip": "ym2612"
    },
    {
      "channel": 4,
      "note": 68,
      "start": 14.2957,
      "duration": 0.0161,
      "velocity": 120,
      "chip": "ym2612"
    },
    {
      "channel": 3,
      "note": 63,
      "start": 14.2969,
      "duration": 0.0161,
      "velocity": 120,
      "chip": "ym2612"
    },
    {
      "channel": 0,
      "note": 46,
      "start": 14.3107,
      "duration": 0.0167,
      "velocity": 115,
      "chip": "ym2612"
    },
    {
      "channel": 4,
      "note": 68,
      "start": 14.3118,
      "duration": 0.0167,
      "velocity": 120,
      "chip": "ym2612"
    },
    {
      "channel": 3,
      "note": 63,
      "start": 14.313,
      "duration": 0.0167,
      "velocity": 120,
      "chip": "ym2612"
    },
    {
      "channel": 0,
      "note": 46,
      "start": 14.3273,
      "duration": 0.0197,
      "velocity": 115,
      "chip": "ym2612"
    },
    {
      "channel": 4,
      "note": 68,
      "start": 14.3285,
      "duration": 0.0197,
      "velocity": 120,
      "chip": "ym2612"
    },
    {
      "channel": 3,
      "note": 63,
      "start": 14.3296,
      "duration": 0.0197,
      "velocity": 120,
      "chip": "ym2612"
    },
    {
      "channel": 1,
      "note": 78,
      "start": 14.3454,
      "duration": 0.0136,
      "velocity": 124,
      "chip": "ym2612"
    },
    {
      "channel": 0,
      "note": 47,
      "start": 14.3471,
      "duration": 0.0136,
      "velocity": 115,
      "chip": "ym2612"
    },
    {
      "channel": 4,
      "note": 68,
      "start": 14.3482,
      "duration": 0.0136,
      "velocity": 120,
      "chip": "ym2612"
    },
    {
      "channel": 3,
      "note": 63,
      "start": 14.3493,
      "duration": 0.0136,
      "velocity": 120,
      "chip": "ym2612"
    },
    {
      "channel": 2,
      "note": 56,
      "start": 14.3508,
      "duration": 0.0134,
      "velocity": 100,
      "chip": "ym2612"
    },
    {
      "channel": 1,
      "note": 76,
      "start": 14.359,
      "duration": 0.0183,
      "velocity": 124,
      "chip": "ym2612"
    },
    {
      "channel": 0,
      "note": 47,
      "start": 14.3607,
      "duration": 0.0183,
      "velocity": 115,
      "chip": "ym2612"
    },
    {
      "channel": 4,
      "note": 68,
      "start": 14.3618,
      "duration": 0.0183,
      "velocity": 120,
      "chip": "ym2612"
    },
    {
      "channel": 3,
      "note": 63,
      "start": 14.363,
      "duration": 0.0183,
      "velocity": 120,
      "chip": "ym2612"
    },
    {
      "channel": 2,
      "note": 56,
      "start": 14.3642,
      "duration": 0.0183,
      "velocity": 100,
      "chip": "ym2612"
    },
    {
      "channel": 1,
      "note": 75,
      "start": 14.3773,
      "duration": 0.0166,
      "velocity": 124,
      "chip": "ym2612"
    },
    {
      "channel": 0,
      "note": 47,
      "start": 14.379,
      "duration": 0.0166,
      "velocity": 115,
      "chip": "ym2612"
    },
    {
      "channel": 4,
      "note": 68,
      "start": 14.3801,
      "duration": 0.0166,
      "velocity": 120,
      "chip": "ym2612"
    },
    {
      "channel": 3,
      "note": 63,
      "start": 14.3813,
      "duration": 0.0166,
      "velocity": 120,
      "chip": "ym2612"
    },
    {
      "channel": 2,
      "note": 56,
      "start": 14.3824,
      "duration": 0.0166,
      "velocity": 100,
      "chip": "ym2612"
    },
    {
      "channel": 1,
      "note": 74,
      "start": 14.3939,
      "duration": 0.0157,
      "velocity": 124,
      "chip": "ym2612"
    },
    {
      "channel": 0,
      "note": 48,
      "start": 14.3956,
      "duration": 0.0157,
      "velocity": 115,
      "chip": "ym2612"
    },
    {
      "channel": 4,
      "note": 68,
      "start": 14.3967,
      "duration": 0.0158,
      "velocity": 120,
      "chip": "ym2612"
    },
    {
      "channel": 3,
      "note": 63,
      "start": 14.3979,
      "duration": 0.0157,
      "velocity": 120,
      "chip": "ym2612"
    },
    {
      "channel": 2,
      "note": 56,
      "start": 14.399,
      "duration": 0.0157,
      "velocity": 100,
      "chip": "ym2612"
    },
    {
      "channel": 1,
      "note": 72,
      "start": 14.4096,
      "duration": 0.0141,
      "velocity": 124,
      "chip": "ym2612"
    },
    {
      "channel": 0,
      "note": 48,
      "start": 14.4113,
      "duration": 0.0141,
      "velocity": 115,
      "chip": "ym2612"
    },
    {
      "channel": 4,
      "note": 68,
      "start": 14.4125,
      "duration": 0.014,
      "velocity": 120,
      "chip": "ym2612"
    },
    {
      "channel": 3,
      "note": 63,
      "start": 14.4136,
      "duration": 0.0141,
      "velocity": 120,
      "chip": "ym2612"
    },
    {
      "channel": 2,
      "note": 56,
      "start": 14.4147,
      "duration": 0.0141,
      "velocity": 100,
      "chip": "ym2612"
    },
    {
      "channel": 1,
      "note": 71,
      "start": 14.4237,
      "duration": 0.0185,
      "velocity": 124,
      "chip": "ym2612"
    },
    {
      "channel": 0,
      "note": 49,
      "start": 14.4254,
      "duration": 0.0178,
      "velocity": 1,
      "chip": "ym2612"
    },
    {
      "channel": 4,
      "note": 68,
      "start": 14.4265,
      "duration": 0.0178,
      "velocity": 120,
      "chip": "ym2612"
    },
    {
      "channel": 3,
      "note": 63,
      "start": 14.4277,
      "duration": 0.0178,
      "velocity": 120,
      "chip": "ym2612"
    },
    {
      "channel": 2,
      "note": 56,
      "start": 14.4288,
      "duration": 0.0177,
      "velocity": 100,
      "chip": "ym2612"
    },
    {
      "channel": 1,
      "note": 70,
      "start": 14.4422,
      "duration": 0.0134,
      "velocity": 124,
      "chip": "ym2612"
    },
    {
      "channel": 4,
      "note": 68,
      "start": 14.4443,
      "duration": 0.0153,
      "velocity": 120,
      "chip": "ym2612"
    },
    {
      "channel": 3,
      "note": 63,
      "start": 14.4454,
      "duration": 0.0152,
      "velocity": 120,
      "chip": "ym2612"
    },
    {
      "channel": 2,
      "note": 56,
      "start": 14.4465,
      "duration": 0.0153,
      "velocity": 100,
      "chip": "ym2612"
    },
    {
      "channel": 1,
      "note": 69,
      "start": 14.4555,
      "duration": 0.0161,
      "velocity": 124,
      "chip": "ym2612"
    },
    {
      "channel": 4,
      "note": 68,
      "start": 14.4595,
      "duration": 0.0157,
      "velocity": 120,
      "chip": "ym2612"
    },
    {
      "channel": 3,
      "note": 63,
      "start": 14.4606,
      "duration": 0.0158,
      "velocity": 120,
      "chip": "ym2612"
    },
    {
      "channel": 1,
      "note": 68,
      "start": 14.4716,
      "duration": 0.0161,
      "velocity": 124,
      "chip": "ym2612"
    },
    {
      "channel": 4,
      "note": 68,
      "start": 14.4752,
      "duration": 0.0137,
      "velocity": 120,
      "chip": "ym2612"
    },
    {
      "channel": 3,
      "note": 63,
      "start": 14.4764,
      "duration": 0.014,
      "velocity": 120,
      "chip": "ym2612"
    },
    {
      "channel": 1,
      "note": 66,
      "start": 14.4877,
      "duration": 0.0161,
      "velocity": 124,
      "chip": "ym2612"
    },
    {
      "channel": 4,
      "note": 68,
      "start": 14.4889,
      "duration": 0.0162,
      "velocity": 120,
      "chip": "ym2612"
    },
    {
      "channel": 3,
      "note": 63,
      "start": 14.4904,
      "duration": 0.0186,
      "velocity": 120,
      "chip": "ym2612"
    },
    {
      "channel": 1,
      "note": 65,
      "start": 14.5038,
      "duration": 0.0161,
      "velocity": 124,
      "chip": "ym2612"
    },
    {
      "channel": 4,
      "note": 68,
      "start": 14.5051,
      "duration": 0.0161,
      "velocity": 120,
      "chip": "ym2612"
    },
    {
      "channel": 3,
      "note": 63,
      "start": 14.509,
      "duration": 0.0134,
      "velocity": 120,
      "chip": "ym2612"
    },
    {
      "channel": 1,
      "note": 64,
      "start": 14.5199,
      "duration": 0.0161,
      "velocity": 124,
      "chip": "ym2612"
    },
    {
      "channel": 4,
      "note": 68,
      "start": 14.5212,
      "duration": 0.0161,
      "velocity": 120,
      "chip": "ym2612"
    },
    {
      "channel": 3,
      "note": 63,
      "start": 14.5223,
      "duration": 0.0161,
      "velocity": 120,
      "chip": "ym2612"
    },
    {
      "channel": 1,
      "note": 62,
      "start": 14.536,
      "duration": 0.0162,
      "velocity": 124,
      "chip": "ym2612"
    },
    {
      "channel": 4,
      "note": 68,
      "start": 14.5373,
      "duration": 0.0161,
      "velocity": 120,
      "chip": "ym2612"
    },
    {
      "channel": 3,
      "note": 63,
      "start": 14.5384,
      "duration": 0.0161,
      "velocity": 120,
      "chip": "ym2612"
    },
    {
      "channel": 2,
      "note": 56,
      "start": 14.5422,
      "duration": 0.0135,
      "velocity": 100,
      "chip": "ym2612"
    },
    {
      "channel": 1,
      "note": 61,
      "start": 14.5522,
      "duration": 0.0161,
      "velocity": 124,
      "chip": "ym2612"
    },
    {
      "channel": 4,
      "note": 68,
      "start": 14.5534,
      "duration": 0.0161,
      "velocity": 120,
      "chip": "ym2612"
    },
    {
      "channel": 3,
      "note": 63,
      "start": 14.5545,
      "duration": 0.0161,
      "velocity": 120,
      "chip": "ym2612"
    },
    {
      "channel": 2,
      "note": 56,
      "start": 14.5557,
      "duration": 0.016,
      "velocity": 100,
      "chip": "ym2612"
    },
    {
      "channel": 1,
      "note": 60,
      "start": 14.5683,
      "duration": 0.0161,
      "velocity": 124,
      "chip": "ym2612"
    },
    {
      "channel": 4,
      "note": 68,
      "start": 14.5695,
      "duration": 0.0161,
      "velocity": 120,
      "chip": "ym2612"
    },
    {
      "channel": 3,
      "note": 63,
      "start": 14.5706,
      "duration": 0.0161,
      "velocity": 120,
      "chip": "ym2612"
    },
    {
      "channel": 2,
      "note": 56,
      "start": 14.5717,
      "duration": 0.0162,
      "velocity": 100,
      "chip": "ym2612"
    },
    {
      "channel": 1,
      "note": 59,
      "start": 14.5843,
      "duration": 0.0161,
      "velocity": 124,
      "chip": "ym2612"
    },
    {
      "channel": 4,
      "note": 68,
      "start": 14.5856,
      "duration": 0.0161,
      "velocity": 120,
      "chip": "ym2612"
    },
    {
      "channel": 3,
      "note": 63,
      "start": 14.5867,
      "duration": 0.0161,
      "velocity": 120,
      "chip": "ym2612"
    },
    {
      "channel": 2,
      "note": 56,
      "start": 14.5878,
      "duration": 0.0161,
      "velocity": 100,
      "chip": "ym2612"
    },
    {
      "channel": 1,
      "note": 57,
      "start": 14.6004,
      "duration": 0.0161,
      "velocity": 124,
      "chip": "ym2612"
    },
    {
      "channel": 4,
      "note": 68,
      "start": 14.6016,
      "duration": 0.0161,
      "velocity": 120,
      "chip": "ym2612"
    },
    {
      "channel": 3,
      "note": 63,
      "start": 14.6028,
      "duration": 0.0161,
      "velocity": 120,
      "chip": "ym2612"
    },
    {
      "channel": 2,
      "note": 56,
      "start": 14.6039,
      "duration": 0.0161,
      "velocity": 100,
      "chip": "ym2612"
    },
    {
      "channel": 1,
      "note": 56,
      "start": 14.6165,
      "duration": 0.0161,
      "velocity": 124,
      "chip": "ym2612"
    },
    {
      "channel": 4,
      "note": 68,
      "start": 14.6177,
      "duration": 0.0161,
      "velocity": 120,
      "chip": "ym2612"
    },
    {
      "channel": 3,
      "note": 63,
      "start": 14.6189,
      "duration": 0.0161,
      "velocity": 120,
      "chip": "ym2612"
    },
    {
      "channel": 2,
      "note": 56,
      "start": 14.62,
      "duration": 0.0161,
      "velocity": 100,
      "chip": "ym2612"
    },
    {
      "channel": 1,
      "note": 55,
      "start": 14.6326,
      "duration": 0.0161,
      "velocity": 124,
      "chip": "ym2612"
    },
    {
      "channel": 4,
      "note": 68,
      "start": 14.6338,
      "duration": 0.0162,
      "velocity": 120,
      "chip": "ym2612"
    },
    {
      "channel": 3,
      "note": 63,
      "start": 14.635,
      "duration": 0.0161,
      "velocity": 120,
      "chip": "ym2612"
    },
    {
      "channel": 2,
      "note": 56,
      "start": 14.6361,
      "duration": 0.0161,
      "velocity": 100,
      "chip": "ym2612"
    },
    {
      "channel": 1,
      "note": 53,
      "start": 14.6487,
      "duration": 0.0161,
      "velocity": 124,
      "chip": "ym2612"
    },
    {
      "channel": 4,
      "note": 68,
      "start": 14.65,
      "duration": 0.0161,
      "velocity": 120,
      "chip": "ym2612"
    },
    {
      "channel": 3,
      "note": 63,
      "start": 14.6511,
      "duration": 0.0162,
      "velocity": 120,
      "chip": "ym2612"
    },
    {
      "channel": 1,
      "note": 52,
      "start": 14.6648,
      "duration": 0.0161,
      "velocity": 124,
      "chip": "ym2612"
    },
    {
      "channel": 4,
      "note": 68,
      "start": 14.6661,
      "duration": 0.0161,
      "velocity": 120,
      "chip": "ym2612"
    },
    {
      "channel": 3,
      "note": 63,
      "start": 14.6672,
      "duration": 0.0161,
      "velocity": 120,
      "chip": "ym2612"
    },
    {
      "channel": 1,
      "note": 51,
      "start": 14.6809,
      "duration": 0.0153,
      "velocity": 1,
      "chip": "ym2612"
    },
    {
      "channel": 4,
      "note": 68,
      "start": 14.6822,
      "duration": 0.0153,
      "velocity": 120,
      "chip": "ym2612"
    },
    {
      "channel": 3,
      "note": 63,
      "start": 14.6833,
      "duration": 0.0153,
      "velocity": 120,
      "chip": "ym2612"
    },
    {
      "channel": 4,
      "note": 68,
      "start": 14.6974,
      "duration": 0.0153,
      "velocity": 120,
      "chip": "ym2612"
    },
    {
      "channel": 3,
      "note": 63,
      "start": 14.6986,
      "duration": 0.0153,
      "velocity": 120,
      "chip": "ym2612"
    },
    {
      "channel": 4,
      "note": 68,
      "start": 14.7127,
      "duration": 0.0195,
      "velocity": 120,
      "chip": "ym2612"
    },
    {
      "channel": 3,
      "note": 63,
      "start": 14.7139,
      "duration": 0.0195,
      "velocity": 120,
      "chip": "ym2612"
    },
    {
      "channel": 0,
      "note": 36,
      "start": 14.7311,
      "duration": 0.0144,
      "velocity": 115,
      "chip": "ym2612"
    },
    {
      "channel": 4,
      "note": 68,
      "start": 14.7322,
      "duration": 0.0144,
      "velocity": 120,
      "chip": "ym2612"
    },
    {
      "channel": 3,
      "note": 63,
      "start": 14.7334,
      "duration": 0.0144,
      "velocity": 120,
      "chip": "ym2612"
    },
    {
      "channel": 2,
      "note": 56,
      "start": 14.7349,
      "duration": 0.0141,
      "velocity": 100,
      "chip": "ym2612"
    },
    {
      "channel": 1,
      "note": 44,
      "start": 14.7363,
      "duration": 0.0138,
      "velocity": 100,
      "chip": "ym2612"
    },
    {
      "channel": 0,
      "note": 36,
      "start": 14.7455,
      "duration": 0.016,
      "velocity": 115,
      "chip": "ym2612"
    },
    {
      "channel": 4,
      "note": 68,
      "start": 14.7466,
      "duration": 0.016,
      "velocity": 120,
      "chip": "ym2612"
    },
    {
      "channel": 3,
      "note": 63,
      "start": 14.7478,
      "duration": 0.016,
      "velocity": 120,
      "chip": "ym2612"
    },
    {
      "channel": 2,
      "note": 56,
      "start": 14.749,
      "duration": 0.016,
      "velocity": 100,
      "chip": "ym2612"
    },
    {
      "channel": 1,
      "note": 44,
      "start": 14.7501,
      "duration": 0.016,
      "velocity": 100,
      "chip": "ym2612"
    },
    {
      "channel": 0,
      "note": 37,
      "start": 14.7615,
      "duration": 0.0161,
      "velocity": 115,
      "chip": "ym2612"
    },
    {
      "channel": 4,
      "note": 68,
      "start": 14.7627,
      "duration": 0.0161,
      "velocity": 120,
      "chip": "ym2612"
    },
    {
      "channel": 3,
      "note": 63,
      "start": 14.7638,
      "duration": 0.0161,
      "velocity": 120,
      "chip": "ym2612"
    },
    {
      "channel": 2,
      "note": 56,
      "start": 14.7649,
      "duration": 0.0161,
      "velocity": 100,
      "chip": "ym2612"
    },
    {
      "channel": 1,
      "note": 44,
      "start": 14.7661,
      "duration": 0.0161,
      "velocity": 100,
      "chip": "ym2612"
    },
    {
      "channel": 0,
      "note": 37,
      "start": 14.7776,
      "duration": 0.0164,
      "velocity": 115,
      "chip": "ym2612"
    },
    {
      "channel": 4,
      "note": 68,
      "start": 14.7788,
      "duration": 0.0164,
      "velocity": 120,
      "chip": "ym2612"
    },
    {
      "channel": 3,
      "note": 63,
      "start": 14.7799,
      "duration": 0.0164,
      "velocity": 120,
      "chip": "ym2612"
    },
    {
      "channel": 2,
      "note": 56,
      "start": 14.781,
      "duration": 0.0163,
      "velocity": 100,
      "chip": "ym2612"
    },
    {
      "channel": 1,
      "note": 44,
      "start": 14.7822,
      "duration": 0.0163,
      "velocity": 100,
      "chip": "ym2612"
    },
    {
      "channel": 0,
      "note": 38,
      "start": 14.794,
      "duration": 0.0163,
      "velocity": 115,
      "chip": "ym2612"
    },
    {
      "channel": 4,
      "note": 68,
      "start": 14.7951,
      "duration": 0.0163,
      "velocity": 120,
      "chip": "ym2612"
    },
    {
      "channel": 3,
      "note": 63,
      "start": 14.7963,
      "duration": 0.0163,
      "velocity": 120,
      "chip": "ym2612"
    },
    {
      "channel": 2,
      "note": 56,
      "start": 14.7974,
      "duration": 0.0163,
      "velocity": 100,
      "chip": "ym2612"
    },
    {
      "channel": 1,
      "note": 44,
      "start": 14.7985,
      "duration": 0.0163,
      "velocity": 100,
      "chip": "ym2612"
    },
    {
      "channel": 0,
      "note": 38,
      "start": 14.8103,
      "duration": 0.0156,
      "velocity": 115,
      "chip": "ym2612"
    },
    {
      "channel": 4,
      "note": 68,
      "start": 14.8114,
      "duration": 0.0157,
      "velocity": 120,
      "chip": "ym2612"
    },
    {
      "channel": 3,
      "note": 63,
      "start": 14.8126,
      "duration": 0.0156,
      "velocity": 120,
      "chip": "ym2612"
    },
    {
      "channel": 2,
      "note": 56,
      "start": 14.8137,
      "duration": 0.0156,
      "velocity": 100,
      "chip": "ym2612"
    },
    {
      "channel": 1,
      "note": 44,
      "start": 14.8148,
      "duration": 0.0156,
      "velocity": 100,
      "chip": "ym2612"
    },
    {
      "channel": 0,
      "note": 39,
      "start": 14.8259,
      "duration": 0.018,
      "velocity": 115,
      "chip": "ym2612"
    },
    {
      "channel": 4,
      "note": 68,
      "start": 14.8271,
      "duration": 0.018,
      "velocity": 120,
      "chip": "ym2612"
    },
    {
      "channel": 3,
      "note": 63,
      "start": 14.8282,
      "duration": 0.018,
      "velocity": 120,
      "chip": "ym2612"
    },
    {
      "channel": 2,
      "note": 56,
      "start": 14.8293,
      "duration": 0.0181,
      "velocity": 100,
      "chip": "ym2612"
    },
    {
      "channel": 1,
      "note": 44,
      "start": 14.8305,
      "duration": 0.0181,
      "velocity": 100,
      "chip": "ym2612"
    },
    {
      "channel": 0,
      "note": 39,
      "start": 14.8439,
      "duration": 0.0167,
      "velocity": 115,
      "chip": "ym2612"
    },
    {
      "channel": 4,
      "note": 68,
      "start": 14.8451,
      "duration": 0.0167,
      "velocity": 120,
      "chip": "ym2612"
    },
    {
      "channel": 3,
      "note": 63,
      "start": 14.8462,
      "duration": 0.0167,
      "velocity": 120,
      "chip": "ym2612"
    },
    {
      "channel": 0,
      "note": 40,
      "start": 14.8607,
      "duration": 0.0159,
      "velocity": 115,
      "chip": "ym2612"
    },
    {
      "channel": 4,
      "note": 68,
      "start": 14.8618,
      "duration": 0.016,
      "velocity": 120,
      "chip": "ym2612"
    },
    {
      "channel": 3,
      "note": 63,
      "start": 14.863,
      "duration": 0.0159,
      "velocity": 120,
      "chip": "ym2612"
    },
    {
      "channel": 0,
      "note": 40,
      "start": 14.8766,
      "duration": 0.0141,
      "velocity": 115,
      "chip": "ym2612"
    },
    {
      "channel": 4,
      "note": 68,
      "start": 14.8778,
      "duration": 0.014,
      "velocity": 120,
      "chip": "ym2612"
    },
    {
      "channel": 3,
      "note": 63,
      "start": 14.8789,
      "duration": 0.0141,
      "velocity": 120,
      "chip": "ym2612"
    },
    {
      "channel": 0,
      "note": 40,
      "start": 14.8906,
      "duration": 0.0185,
      "velocity": 115,
      "chip": "ym2612"
    },
    {
      "channel": 4,
      "note": 68,
      "start": 14.8918,
      "duration": 0.0186,
      "velocity": 120,
      "chip": "ym2612"
    },
    {
      "channel": 3,
      "note": 63,
      "start": 14.8929,
      "duration": 0.0185,
      "velocity": 120,
      "chip": "ym2612"
    },
    {
      "channel": 0,
      "note": 41,
      "start": 14.9091,
      "duration": 0.0179,
      "velocity": 115,
      "chip": "ym2612"
    },
    {
      "channel": 4,
      "note": 68,
      "start": 14.9104,
      "duration": 0.0179,
      "velocity": 120,
      "chip": "ym2612"
    },
    {
      "channel": 3,
      "note": 63,
      "start": 14.9114,
      "duration": 0.018,
      "velocity": 120,
      "chip": "ym2612"
    },
    {
      "channel": 0,
      "note": 36,
      "start": 14.9271,
      "duration": 0.0116,
      "velocity": 115,
      "chip": "ym2612"
    },
    {
      "channel": 4,
      "note": 68,
      "start": 14.9282,
      "duration": 0.014,
      "velocity": 120,
      "chip": "ym2612"
    },
    {
      "channel": 3,
      "note": 63,
      "start": 14.9294,
      "duration": 0.014,
      "velocity": 120,
      "chip": "ym2612"
    },
    {
      "channel": 2,
      "note": 56,
      "start": 14.9308,
      "duration": 0.0137,
      "velocity": 100,
      "chip": "ym2612"
    },
    {
      "channel": 1,
      "note": 44,
      "start": 14.9322,
      "duration": 0.0135,
      "velocity": 100,
      "chip": "ym2612"
    },
    {
      "channel": 0,
      "note": 36,
      "start": 14.9387,
      "duration": 0.0161,
      "velocity": 115,
      "chip": "ym2612"
    },
    {
      "channel": 4,
      "note": 68,
      "start": 14.9422,
      "duration": 0.0137,
      "velocity": 120,
      "chip": "ym2612"
    },
    {
      "channel": 3,
      "note": 63,
      "start": 14.9434,
      "duration": 0.014,
      "velocity": 120,
      "chip": "ym2612"
    },
    {
      "channel": 2,
      "note": 56,
      "start": 14.9445,
      "duration": 0.014,
      "velocity": 100,
      "chip": "ym2612"
    },
    {
      "channel": 1,
      "note": 44,
      "start": 14.9457,
      "duration": 0.0139,
      "velocity": 100,
      "chip": "ym2612"
    },
    {
      "channel": 0,
      "note": 37,
      "start": 14.9548,
      "duration": 0.0161,
      "velocity": 115,
      "chip": "ym2612"
    },
    {
      "channel": 4,
      "note": 68,
      "start": 14.9559,
      "duration": 0.0161,
      "velocity": 120,
      "chip": "ym2612"
    },
    {
      "channel": 3,
      "note": 63,
      "start": 14.9574,
      "duration": 0.0185,
      "velocity": 120,
      "chip": "ym2612"
    },
    {
      "channel": 2,
      "note": 56,
      "start": 14.9585,
      "duration": 0.0185,
      "velocity": 100,
      "chip": "ym2612"
    },
    {
      "channel": 1,
      "note": 44,
      "start": 14.9596,
      "duration": 0.0185,
      "velocity": 100,
      "chip": "ym2612"
    },
    {
      "channel": 0,
      "note": 37,
      "start": 14.9709,
      "duration": 0.0161,
      "velocity": 115,
      "chip": "ym2612"
    },
    {
      "channel": 4,
      "note": 68,
      "start": 14.972,
      "duration": 0.0161,
      "velocity": 120,
      "chip": "ym2612"
    },
    {
      "channel": 3,
      "note": 63,
      "start": 14.9759,
      "duration": 0.0134,
      "velocity": 120,
      "chip": "ym2612"
    },
    {
      "channel": 2,
      "note": 56,
      "start": 14.977,
      "duration": 0.0161,
      "velocity": 100,
      "chip": "ym2612"
    },
    {
      "channel": 1,
      "note": 44,
      "start": 14.9781,
      "duration": 0.0161,
      "velocity": 100,
      "chip": "ym2612"
    },
    {
      "channel": 0,
      "note": 38,
      "start": 14.9869,
      "duration": 0.0161,
      "velocity": 115,
      "chip": "ym2612"
    },
    {
      "channel": 4,
      "note": 68,
      "start": 14.9881,
      "duration": 0.0161,
      "velocity": 120,
      "chip": "ym2612"
    },
    {
      "channel": 3,
      "note": 63,
      "start": 14.9892,
      "duration": 0.0161,
      "velocity": 120,
      "chip": "ym2612"
    },
    {
      "channel": 2,
      "note": 56,
      "start": 14.9931,
      "duration": 0.0157,
      "velocity": 100,
      "chip": "ym2612"
    },
    {
      "channel": 1,
      "note": 44,
      "start": 14.9942,
      "duration": 0.0158,
      "velocity": 100,
      "chip": "ym2612"
    },
    {
      "channel": 0,
      "note": 38,
      "start": 15.003,
      "duration": 0.0161,
      "velocity": 115,
      "chip": "ym2612"
    },
    {
      "channel": 4,
      "note": 68,
      "start": 15.0042,
      "duration": 0.0161,
      "velocity": 120,
      "chip": "ym2612"
    },
    {
      "channel": 3,
      "note": 63,
      "start": 15.0053,
      "duration": 0.0161,
      "velocity": 120,
      "chip": "ym2612"
    },
    {
      "channel": 2,
      "note": 56,
      "start": 15.0088,
      "duration": 0.0137,
      "velocity": 100,
      "chip": "ym2612"
    },
    {
      "channel": 1,
      "note": 44,
      "start": 15.01,
      "duration": 0.014,
      "velocity": 100,
      "chip": "ym2612"
    },
    {
      "channel": 0,
      "note": 39,
      "start": 15.0191,
      "duration": 0.0161,
      "velocity": 115,
      "chip": "ym2612"
    },
    {
      "channel": 4,
      "note": 68,
      "start": 15.0203,
      "duration": 0.0161,
      "velocity": 120,
      "chip": "ym2612"
    },
    {
      "channel": 3,
      "note": 63,
      "start": 15.0214,
      "duration": 0.0161,
      "velocity": 120,
      "chip": "ym2612"
    },
    {
      "channel": 2,
      "note": 56,
      "start": 15.0226,
      "duration": 0.0161,
      "velocity": 100,
      "chip": "ym2612"
    },
    {
      "channel": 1,
      "note": 44,
      "start": 15.024,
      "duration": 0.0186,
      "velocity": 100,
      "chip": "ym2612"
    },
    {
      "channel": 0,
      "note": 39,
      "start": 15.0352,
      "duration": 0.0161,
      "velocity": 115,
      "chip": "ym2612"
    },
    {
      "channel": 4,
      "note": 68,
      "start": 15.0364,
      "duration": 0.0161,
      "velocity": 120,
      "chip": "ym2612"
    },
    {
      "channel": 3,
      "note": 63,
      "start": 15.0375,
      "duration": 0.0161,
      "velocity": 120,
      "chip": "ym2612"
    },
    {
      "channel": 0,
      "note": 40,
      "start": 15.0513,
      "duration": 0.0161,
      "velocity": 115,
      "chip": "ym2612"
    },
    {
      "channel": 4,
      "note": 68,
      "start": 15.0525,
      "duration": 0.0161,
      "velocity": 120,
      "chip": "ym2612"
    },
    {
      "channel": 3,
      "note": 63,
      "start": 15.0536,
      "duration": 0.0161,
      "velocity": 120,
      "chip": "ym2612"
    },
    {
      "channel": 0,
      "note": 40,
      "start": 15.0674,
      "duration": 0.0161,
      "velocity": 115,
      "chip": "ym2612"
    },
    {
      "channel": 4,
      "note": 68,
      "start": 15.0686,
      "duration": 0.0161,
      "velocity": 120,
      "chip": "ym2612"
    },
    {
      "channel": 3,
      "note": 63,
      "start": 15.0697,
      "duration": 0.0161,
      "velocity": 120,
      "chip": "ym2612"
    },
    {
      "channel": 0,
      "note": 40,
      "start": 15.0835,
      "duration": 0.0161,
      "velocity": 115,
      "chip": "ym2612"
    },
    {
      "channel": 4,
      "note": 68,
      "start": 15.0846,
      "duration": 0.0162,
      "velocity": 120,
      "chip": "ym2612"
    },
    {
      "channel": 3,
      "note": 63,
      "start": 15.0858,
      "duration": 0.0161,
      "velocity": 120,
      "chip": "ym2612"
    },
    {
      "channel": 0,
      "note": 41,
      "start": 15.0996,
      "duration": 0.0196,
      "velocity": 115,
      "chip": "ym2612"
    },
    {
      "channel": 4,
      "note": 68,
      "start": 15.1008,
      "duration": 0.0195,
      "velocity": 120,
      "chip": "ym2612"
    },
    {
      "channel": 3,
      "note": 63,
      "start": 15.1019,
      "duration": 0.0196,
      "velocity": 120,
      "chip": "ym2612"
    },
    {
      "channel": 1,
      "note": 78,
      "start": 15.1175,
      "duration": 0.0143,
      "velocity": 124,
      "chip": "ym2612"
    },
    {
      "channel": 0,
      "note": 41,
      "start": 15.1192,
      "duration": 0.0143,
      "velocity": 115,
      "chip": "ym2612"
    },
    {
      "channel": 4,
      "note": 68,
      "start": 15.1203,
      "duration": 0.0144,
      "velocity": 120,
      "chip": "ym2612"
    },
    {
      "channel": 3,
      "note": 63,
      "start": 15.1215,
      "duration": 0.0143,
      "velocity": 120,
      "chip": "ym2612"
    },
    {
      "channel": 2,
      "note": 56,
      "start": 15.1257,
      "duration": 0.0113,
      "velocity": 100,
      "chip": "ym2612"
    },
    {
      "channel": 1,
      "note": 76,
      "start": 15.1318,
      "duration": 0.0161,
      "velocity": 124,
      "chip": "ym2612"
    },
    {
      "channel": 0,
      "note": 42,
      "start": 15.1335,
      "duration": 0.0161,
      "velocity": 115,
      "chip": "ym2612"
    },
    {
      "channel": 4,
      "note": 68,
      "start": 15.1347,
      "duration": 0.016,
      "velocity": 120,
      "chip": "ym2612"
    },
    {
      "channel": 3,
      "note": 63,
      "start": 15.1358,
      "duration": 0.0161,
      "velocity": 120,
      "chip": "ym2612"
    },
    {
      "channel": 2,
      "note": 56,
      "start": 15.137,
      "duration": 0.016,
      "velocity": 100,
      "chip": "ym2612"
    },
    {
      "channel": 1,
      "note": 75,
      "start": 15.1479,
      "duration": 0.0161,
      "velocity": 124,
      "chip": "ym2612"
    },
    {
      "channel": 0,
      "note": 42,
      "start": 15.1496,
      "duration": 0.0161,
      "velocity": 115,
      "chip": "ym2612"
    },
    {
      "channel": 4,
      "note": 68,
      "start": 15.1507,
      "duration": 0.0161,
      "velocity": 120,
      "chip": "ym2612"
    },
    {
      "channel": 3,
      "note": 63,
      "start": 15.1519,
      "duration": 0.0161,
      "velocity": 120,
      "chip": "ym2612"
    },
    {
      "channel": 2,
      "note": 56,
      "start": 15.153,
      "duration": 0.0161,
      "velocity": 100,
      "chip": "ym2612"
    },
    {
      "channel": 1,
      "note": 74,
      "start": 15.164,
      "duration": 0.0161,
      "velocity": 124,
      "chip": "ym2612"
    },
    {
      "channel": 0,
      "note": 43,
      "start": 15.1657,
      "duration": 0.0161,
      "velocity": 115,
      "chip": "ym2612"
    },
    {
      "channel": 4,
      "note": 68,
      "start": 15.1668,
      "duration": 0.0161,
      "velocity": 120,
      "chip": "ym2612"
    },
    {
      "channel": 3,
      "note": 63,
      "start": 15.168,
      "duration": 0.0161,
      "velocity": 120,
      "chip": "ym2612"
    },
    {
      "channel": 2,
      "note": 56,
      "start": 15.1691,
      "duration": 0.0161,
      "velocity": 100,
      "chip": "ym2612"
    },
    {
      "channel": 1,
      "note": 72,
      "start": 15.1801,
      "duration": 0.0161,
      "velocity": 124,
      "chip": "ym2612"
    },
    {
      "channel": 0,
      "note": 43,
      "start": 15.1818,
      "duration": 0.0161,
      "velocity": 115,
      "chip": "ym2612"
    },
    {
      "channel": 4,
      "note": 68,
      "start": 15.1829,
      "duration": 0.0161,
      "velocity": 120,
      "chip": "ym2612"
    },
    {
      "channel": 3,
      "note": 63,
      "start": 15.1841,
      "duration": 0.0161,
      "velocity": 120,
      "chip": "ym2612"
    },
    {
      "channel": 2,
      "note": 56,
      "start": 15.1852,
      "duration": 0.0161,
      "velocity": 100,
      "chip": "ym2612"
    },
    {
      "channel": 1,
      "note": 71,
      "start": 15.1962,
      "duration": 0.0161,
      "velocity": 124,
      "chip": "ym2612"
    },
    {
      "channel": 0,
      "note": 44,
      "start": 15.1979,
      "duration": 0.0161,
      "velocity": 115,
      "chip": "ym2612"
    },
    {
      "channel": 4,
      "note": 68,
      "start": 15.199,
      "duration": 0.0161,
      "velocity": 120,
      "chip": "ym2612"
    },
    {
      "channel": 3,
      "note": 63,
      "start": 15.2002,
      "duration": 0.0161,
      "velocity": 120,
      "chip": "ym2612"
    },
    {
      "channel": 2,
      "note": 56,
      "start": 15.2013,
      "duration": 0.0161,
      "velocity": 100,
      "chip": "ym2612"
    },
    {
      "channel": 1,
      "note": 70,
      "start": 15.2123,
      "duration": 0.0161,
      "velocity": 124,
      "chip": "ym2612"
    },
    {
      "channel": 0,
      "note": 44,
      "start": 15.214,
      "duration": 0.0161,
      "velocity": 115,
      "chip": "ym2612"
    },
    {
      "channel": 4,
      "note": 68,
      "start": 15.2151,
      "duration": 0.0161,
      "velocity": 120,
      "chip": "ym2612"
    },
    {
      "channel": 3,
      "note": 63,
      "start": 15.2163,
      "duration": 0.0161,
      "velocity": 120,
      "chip": "ym2612"
    },
    {
      "channel": 2,
      "note": 56,
      "start": 15.2174,
      "duration": 0.0161,
      "velocity": 100,
      "chip": "ym2612"
    },
    {
      "channel": 1,
      "note": 69,
      "start": 15.2284,
      "duration": 0.0161,
      "velocity": 124,
      "chip": "ym2612"
    },
    {
      "channel": 0,
      "note": 44,
      "start": 15.2301,
      "duration": 0.0162,
      "velocity": 115,
      "chip": "ym2612"
    },
    {
      "channel": 4,
      "note": 68,
      "start": 15.2312,
      "duration": 0.0162,
      "velocity": 120,
      "chip": "ym2612"
    },
    {
      "channel": 3,
      "note": 63,
      "start": 15.2324,
      "duration": 0.0162,
      "velocity": 120,
      "chip": "ym2612"
    },
    {
      "channel": 1,
      "note": 68,
      "start": 15.2444,
      "duration": 0.0162,
      "velocity": 124,
      "chip": "ym2612"
    },
    {
      "channel": 0,
      "note": 45,
      "start": 15.2462,
      "duration": 0.0161,
      "velocity": 115,
      "chip": "ym2612"
    },
    {
      "channel": 4,
      "note": 68,
      "start": 15.2474,
      "duration": 0.0161,
      "velocity": 120,
      "chip": "ym2612"
    },
    {
      "channel": 3,
      "note": 63,
      "start": 15.2485,
      "duration": 0.0161,
      "velocity": 120,
      "chip": "ym2612"
    },
    {
      "channel": 1,
      "note": 66,
      "start": 15.2606,
      "duration": 0.0163,
      "velocity": 124,
      "chip": "ym2612"
    },
    {
      "channel": 0,
      "note": 45,
      "start": 15.2623,
      "duration": 0.0163,
      "velocity": 115,
      "chip": "ym2612"
    },
    {
      "channel": 4,
      "note": 68,
      "start": 15.2635,
      "duration": 0.0163,
      "velocity": 120,
      "chip": "ym2612"
    },
    {
      "channel": 3,
      "note": 63,
      "start": 15.2646,
      "duration": 0.0163,
      "velocity": 120,
      "chip": "ym2612"
    },
    {
      "channel": 1,
      "note": 65,
      "start": 15.2769,
      "duration": 0.0159,
      "velocity": 124,
      "chip": "ym2612"
    },
    {
      "channel": 0,
      "note": 46,
      "start": 15.2786,
      "duration": 0.0159,
      "velocity": 115,
      "chip": "ym2612"
    },
    {
      "channel": 4,
      "note": 68,
      "start": 15.2798,
      "duration": 0.0159,
      "velocity": 120,
      "chip": "ym2612"
    },
    {
      "channel": 3,
      "note": 63,
      "start": 15.2809,
      "duration": 0.0159,
      "velocity": 120,
      "chip": "ym2612"
    },
    {
      "channel": 1,
      "note": 64,
      "start": 15.2928,
      "duration": 0.0177,
      "velocity": 124,
      "chip": "ym2612"
    },
    {
      "channel": 0,
      "note": 46,
      "start": 15.2945,
      "duration": 0.0195,
      "velocity": 115,
      "chip": "ym2612"
    },
    {
      "channel": 4,
      "note": 68,
      "start": 15.2957,
      "duration": 0.0196,
      "velocity": 120,
      "chip": "ym2612"
    },
    {
      "channel": 3,
      "note": 63,
      "start": 15.2968,
      "duration": 0.0196,
      "velocity": 120,
      "chip": "ym2612"
    },
    {
      "channel": 1,
      "note": 62,
      "start": 15.3105,
      "duration": 0.0167,
      "velocity": 124,
      "chip": "ym2612"
    },
    {
      "channel": 0,
      "note": 36,
      "start": 15.3141,
      "duration": 0.015,
      "velocity": 115,
      "chip": "ym2612"
    },
    {
      "channel": 4,
      "note": 68,
      "start": 15.3153,
      "duration": 0.0149,
      "velocity": 120,
      "chip": "ym2612"
    },
    {
      "channel": 3,
      "note": 63,
      "start": 15.3164,
      "duration": 0.015,
      "velocity": 120,
      "chip": "ym2612"
    },
    {
      "channel": 2,
      "note": 56,
      "start": 15.3178,
      "duration": 0.0147,
      "velocity": 100,
      "chip": "ym2612"
    },
    {
      "channel": 1,
      "note": 61,
      "start": 15.3272,
      "duration": 0.0163,
      "velocity": 124,
      "chip": "ym2612"
    },
    {
      "channel": 0,
      "note": 36,
      "start": 15.3291,
      "duration": 0.0161,
      "velocity": 115,
      "chip": "ym2612"
    },
    {
      "channel": 4,
      "note": 68,
      "start": 15.3302,
      "duration": 0.0162,
      "velocity": 120,
      "chip": "ym2612"
    },
    {
      "channel": 3,
      "note": 63,
      "start": 15.3314,
      "duration": 0.0161,
      "velocity": 120,
      "chip": "ym2612"
    },
    {
      "channel": 2,
      "note": 56,
      "start": 15.3325,
      "duration": 0.0162,
      "velocity": 100,
      "chip": "ym2612"
    },
    {
      "channel": 1,
      "note": 60,
      "start": 15.3435,
      "duration": 0.014,
      "velocity": 124,
      "chip": "ym2612"
    },
    {
      "channel": 0,
      "note": 37,
      "start": 15.3452,
      "duration": 0.014,
      "velocity": 115,
      "chip": "ym2612"
    },
    {
      "channel": 4,
      "note": 68,
      "start": 15.3464,
      "duration": 0.014,
      "velocity": 120,
      "chip": "ym2612"
    },
    {
      "channel": 3,
      "note": 63,
      "start": 15.3475,
      "duration": 0.014,
      "velocity": 120,
      "chip": "ym2612"
    },
    {
      "channel": 2,
      "note": 56,
      "start": 15.3487,
      "duration": 0.014,
      "velocity": 100,
      "chip": "ym2612"
    },
    {
      "channel": 1,
      "note": 59,
      "start": 15.3575,
      "duration": 0.0185,
      "velocity": 124,
      "chip": "ym2612"
    },
    {
      "channel": 0,
      "note": 37,
      "start": 15.3592,
      "duration": 0.0185,
      "velocity": 115,
      "chip": "ym2612"
    },
    {
      "channel": 4,
      "note": 68,
      "start": 15.3604,
      "duration": 0.0186,
      "velocity": 120,
      "chip": "ym2612"
    },
    {
      "channel": 3,
      "note": 63,
      "start": 15.3615,
      "duration": 0.0185,
      "velocity": 120,
      "chip": "ym2612"
    },
    {
      "channel": 2,
      "note": 56,
      "start": 15.3627,
      "duration": 0.0185,
      "velocity": 100,
      "chip": "ym2612"
    },
    {
      "channel": 1,
      "note": 57,
      "start": 15.376,
      "duration": 0.0161,
      "velocity": 124,
      "chip": "ym2612"
    },
    {
      "channel": 0,
      "note": 38,
      "start": 15.3777,
      "duration": 0.0161,
      "velocity": 115,
      "chip": "ym2612"
    },
    {
      "channel": 4,
      "note": 68,
      "start": 15.3789,
      "duration": 0.0161,
      "velocity": 120,
      "chip": "ym2612"
    },
    {
      "channel": 3,
      "note": 63,
      "start": 15.38,
      "duration": 0.0161,
      "velocity": 120,
      "chip": "ym2612"
    },
    {
      "channel": 2,
      "note": 56,
      "start": 15.3812,
      "duration": 0.0161,
      "velocity": 100,
      "chip": "ym2612"
    },
    {
      "channel": 1,
      "note": 56,
      "start": 15.3921,
      "duration": 0.0134,
      "velocity": 124,
      "chip": "ym2612"
    },
    {
      "channel": 0,
      "note": 38,
      "start": 15.3939,
      "duration": 0.0157,
      "velocity": 115,
      "chip": "ym2612"
    },
    {
      "channel": 4,
      "note": 68,
      "start": 15.395,
      "duration": 0.0157,
      "velocity": 120,
      "chip": "ym2612"
    },
    {
      "channel": 3,
      "note": 63,
      "start": 15.3962,
      "duration": 0.0157,
      "velocity": 120,
      "chip": "ym2612"
    },
    {
      "channel": 2,
      "note": 56,
      "start": 15.3973,
      "duration": 0.0158,
      "velocity": 100,
      "chip": "ym2612"
    },
    {
      "channel": 1,
      "note": 55,
      "start": 15.4055,
      "duration": 0.0161,
      "velocity": 124,
      "chip": "ym2612"
    },
    {
      "channel": 0,
      "note": 39,
      "start": 15.4096,
      "duration": 0.0141,
      "velocity": 115,
      "chip": "ym2612"
    },
    {
      "channel": 4,
      "note": 68,
      "start": 15.4107,
      "duration": 0.0141,
      "velocity": 120,
      "chip": "ym2612"
    },
    {
      "channel": 3,
      "note": 63,
      "start": 15.4119,
      "duration": 0.0141,
      "velocity": 120,
      "chip": "ym2612"
    },
    {
      "channel": 2,
      "note": 56,
      "start": 15.413,
      "duration": 0.0141,
      "velocity": 100,
      "chip": "ym2612"
    },
    {
      "channel": 1,
      "note": 53,
      "start": 15.4216,
      "duration": 0.0161,
      "velocity": 124,
      "chip": "ym2612"
    },
    {
      "channel": 0,
      "note": 39,
      "start": 15.4237,
      "duration": 0.0185,
      "velocity": 115,
      "chip": "ym2612"
    },
    {
      "channel": 4,
      "note": 68,
      "start": 15.4248,
      "duration": 0.0185,
      "velocity": 120,
      "chip": "ym2612"
    },
    {
      "channel": 3,
      "note": 63,
      "start": 15.4259,
      "duration": 0.0185,
      "velocity": 120,
      "chip": "ym2612"
    },
    {
      "channel": 1,
      "note": 52,
      "start": 15.4377,
      "duration": 0.0161,
      "velocity": 124,
      "chip": "ym2612"
    },
    {
      "channel": 0,
      "note": 40,
      "start": 15.4422,
      "duration": 0.0134,
      "velocity": 115,
      "chip": "ym2612"
    },
    {
      "channel": 4,
      "note": 68,
      "start": 15.4433,
      "duration": 0.0161,
      "velocity": 120,
      "chip": "ym2612"
    },
    {
      "channel": 3,
      "note": 63,
      "start": 15.4444,
      "duration": 0.0161,
      "velocity": 120,
      "chip": "ym2612"
    },
    {
      "channel": 1,
      "note": 51,
      "start": 15.4538,
      "duration": 0.0153,
      "velocity": 1,
      "chip": "ym2612"
    },
    {
      "channel": 0,
      "note": 40,
      "start": 15.4555,
      "duration": 0.0153,
      "velocity": 115,
      "chip": "ym2612"
    },
    {
      "channel": 4,
      "note": 68,
      "start": 15.4594,
      "duration": 0.0125,
      "velocity": 120,
      "chip": "ym2612"
    },
    {
      "channel": 3,
      "note": 63,
      "start": 15.4605,
      "duration": 0.0149,
      "velocity": 120,
      "chip": "ym2612"
    },
    {
      "channel": 0,
      "note": 40,
      "start": 15.4708,
      "duration": 0.0153,
      "velocity": 115,
      "chip": "ym2612"
    },
    {
      "channel": 4,
      "note": 68,
      "start": 15.4719,
      "duration": 0.0153,
      "velocity": 120,
      "chip": "ym2612"
    },
    {
      "channel": 3,
      "note": 63,
      "start": 15.4755,
      "duration": 0.0129,
      "velocity": 120,
      "chip": "ym2612"
    },
    {
      "channel": 0,
      "note": 41,
      "start": 15.4861,
      "duration": 0.0179,
      "velocity": 115,
      "chip": "ym2612"
    },
    {
      "channel": 4,
      "note": 68,
      "start": 15.4872,
      "duration": 0.0181,
      "velocity": 120,
      "chip": "ym2612"
    },
    {
      "channel": 3,
      "note": 63,
      "start": 15.4883,
      "duration": 0.0211,
      "velocity": 120,
      "chip": "ym2612"
    },
    {
      "channel": 0,
      "note": 36,
      "start": 15.5039,
      "duration": 0.0144,
      "velocity": 115,
      "chip": "ym2612"
    },
    {
      "channel": 4,
      "note": 60,
      "start": 15.5054,
      "duration": 0.0141,
      "velocity": 120,
      "chip": "ym2612"
    },
    {
      "channel": 3,
      "note": 55,
      "start": 15.5095,
      "duration": 0.0112,
      "velocity": 120,
      "chip": "ym2612"
    },
    {
      "channel": 2,
      "note": 48,
      "start": 15.511,
      "duration": 0.0109,
      "velocity": 100,
      "chip": "ym2612"
    },
    {
      "channel": 1,
      "note": 36,
      "start": 15.5124,
      "duration": 0.0135,
      "velocity": 100,
      "chip": "ym2612"
    },
    {
      "channel": 0,
      "note": 36,
      "start": 15.5183,
      "duration": 0.0161,
      "velocity": 115,
      "chip": "ym2612"
    },
    {
      "channel": 4,
      "note": 60,
      "start": 15.5195,
      "duration": 0.016,
      "velocity": 120,
      "chip": "ym2612"
    },
    {
      "channel": 3,
      "note": 55,
      "start": 15.5207,
      "duration": 0.016,
      "velocity": 120,
      "chip": "ym2612"
    },
    {
      "channel": 2,
      "note": 48,
      "start": 15.5219,
      "duration": 0.0159,
      "velocity": 100,
      "chip": "ym2612"
    },
    {
      "channel": 1,
      "note": 36,
      "start": 15.5259,
      "duration": 0.013,
      "velocity": 100,
      "chip": "ym2612"
    },
    {
      "channel": 0,
      "note": 37,
      "start": 15.5344,
      "duration": 0.0161,
      "velocity": 115,
      "chip": "ym2612"
    },
    {
      "channel": 4,
      "note": 60,
      "start": 15.5356,
      "duration": 0.0161,
      "velocity": 120,
      "chip": "ym2612"
    },
    {
      "channel": 3,
      "note": 55,
      "start": 15.5367,
      "duration": 0.0161,
      "velocity": 120,
      "chip": "ym2612"
    },
    {
      "channel": 2,
      "note": 48,
      "start": 15.5378,
      "duration": 0.0161,
      "velocity": 100,
      "chip": "ym2612"
    },
    {
      "channel": 1,
      "note": 36,
      "start": 15.5389,
      "duration": 0.0161,
      "velocity": 100,
      "chip": "ym2612"
    },
    {
      "channel": 0,
      "note": 37,
      "start": 15.5505,
      "duration": 0.0161,
      "velocity": 115,
      "chip": "ym2612"
    },
    {
      "channel": 4,
      "note": 60,
      "start": 15.5516,
      "duration": 0.0161,
      "velocity": 120,
      "chip": "ym2612"
    },
    {
      "channel": 3,
      "note": 55,
      "start": 15.5528,
      "duration": 0.0161,
      "velocity": 120,
      "chip": "ym2612"
    },
    {
      "channel": 2,
      "note": 48,
      "start": 15.5539,
      "duration": 0.0161,
      "velocity": 100,
      "chip": "ym2612"
    },
    {
      "channel": 1,
      "note": 36,
      "start": 15.555,
      "duration": 0.0161,
      "velocity": 100,
      "chip": "ym2612"
    },
    {
      "channel": 0,
      "note": 38,
      "start": 15.5666,
      "duration": 0.0161,
      "velocity": 115,
      "chip": "ym2612"
    },
    {
      "channel": 4,
      "note": 60,
      "start": 15.5677,
      "duration": 0.0161,
      "velocity": 120,
      "chip": "ym2612"
    },
    {
      "channel": 3,
      "note": 55,
      "start": 15.5689,
      "duration": 0.0161,
      "velocity": 120,
      "chip": "ym2612"
    },
    {
      "channel": 2,
      "note": 48,
      "start": 15.57,
      "duration": 0.0162,
      "velocity": 100,
      "chip": "ym2612"
    },
    {
      "channel": 1,
      "note": 36,
      "start": 15.5711,
      "duration": 0.0161,
      "velocity": 100,
      "chip": "ym2612"
    },
    {
      "channel": 0,
      "note": 38,
      "start": 15.5827,
      "duration": 0.0161,
      "velocity": 115,
      "chip": "ym2612"
    },
    {
      "channel": 4,
      "note": 60,
      "start": 15.5838,
      "duration": 0.0161,
      "velocity": 120,
      "chip": "ym2612"
    },
    {
      "channel": 3,
      "note": 55,
      "start": 15.585,
      "duration": 0.0161,
      "velocity": 120,
      "chip": "ym2612"
    },
    {
      "channel": 2,
      "note": 48,
      "start": 15.5861,
      "duration": 0.0161,
      "velocity": 100,
      "chip": "ym2612"
    },
    {
      "channel": 1,
      "note": 36,
      "start": 15.5872,
      "duration": 0.0161,
      "velocity": 100,
      "chip": "ym2612"
    },
    {
      "channel": 0,
      "note": 39,
      "start": 15.5988,
      "duration": 0.0161,
      "velocity": 115,
      "chip": "ym2612"
    },
    {
      "channel": 4,
      "note": 60,
      "start": 15.5999,
      "duration": 0.0161,
      "velocity": 120,
      "chip": "ym2612"
    },
    {
      "channel": 3,
      "note": 55,
      "start": 15.6011,
      "duration": 0.0161,
      "velocity": 120,
      "chip": "ym2612"
    },
    {
      "channel": 2,
      "note": 48,
      "start": 15.6022,
      "duration": 0.0161,
      "velocity": 100,
      "chip": "ym2612"
    },
    {
      "channel": 1,
      "note": 36,
      "start": 15.6034,
      "duration": 0.0161,
      "velocity": 100,
      "chip": "ym2612"
    },
    {
      "channel": 0,
      "note": 39,
      "start": 15.6149,
      "duration": 0.0161,
      "velocity": 115,
      "chip": "ym2612"
    },
    {
      "channel": 4,
      "note": 60,
      "start": 15.616,
      "duration": 0.0161,
      "velocity": 120,
      "chip": "ym2612"
    },
    {
      "channel": 3,
      "note": 55,
      "start": 15.6172,
      "duration": 0.0161,
      "velocity": 120,
      "chip": "ym2612"
    },
    {
      "channel": 0,
      "note": 40,
      "start": 15.631,
      "duration": 0.0161,
      "velocity": 115,
      "chip": "ym2612"
    },
    {
      "channel": 4,
      "note": 60,
      "start": 15.6321,
      "duration": 0.0161,
      "velocity": 120,
      "chip": "ym2612"
    },
    {
      "channel": 3,
      "note": 55,
      "start": 15.6333,
      "duration": 0.0161,
      "velocity": 120,
      "chip": "ym2612"
    },
    {
      "channel": 0,
      "note": 40,
      "start": 15.6471,
      "duration": 0.0161,
      "velocity": 115,
      "chip": "ym2612"
    },
    {
      "channel": 4,
      "note": 60,
      "start": 15.6482,
      "duration": 0.0161,
      "velocity": 120,
      "chip": "ym2612"
    },
    {
      "channel": 3,
      "note": 55,
      "start": 15.6493,
      "duration": 0.0161,
      "velocity": 120,
      "chip": "ym2612"
    },
    {
      "channel": 0,
      "note": 40,
      "start": 15.6632,
      "duration": 0.0161,
      "velocity": 115,
      "chip": "ym2612"
    },
    {
      "channel": 4,
      "note": 60,
      "start": 15.6643,
      "duration": 0.0161,
      "velocity": 120,
      "chip": "ym2612"
    },
    {
      "channel": 3,
      "note": 55,
      "start": 15.6654,
      "duration": 0.0161,
      "velocity": 120,
      "chip": "ym2612"
    },
    {
      "channel": 0,
      "note": 41,
      "start": 15.6793,
      "duration": 0.0162,
      "velocity": 115,
      "chip": "ym2612"
    },
    {
      "channel": 4,
      "note": 60,
      "start": 15.6804,
      "duration": 0.0162,
      "velocity": 120,
      "chip": "ym2612"
    },
    {
      "channel": 3,
      "note": 55,
      "start": 15.6815,
      "duration": 0.0162,
      "velocity": 120,
      "chip": "ym2612"
    },
    {
      "channel": 0,
      "note": 41,
      "start": 15.6954,
      "duration": 0.0161,
      "velocity": 115,
      "chip": "ym2612"
    },
    {
      "channel": 4,
      "note": 60,
      "start": 15.6966,
      "duration": 0.0161,
      "velocity": 120,
      "chip": "ym2612"
    },
    {
      "channel": 3,
      "note": 55,
      "start": 15.6977,
      "duration": 0.0161,
      "velocity": 120,
      "chip": "ym2612"
    },
    {
      "channel": 2,
      "note": 48,
      "start": 15.6991,
      "duration": 0.0159,
      "velocity": 100,
      "chip": "ym2612"
    },
    {
      "channel": 1,
      "note": 36,
      "start": 15.7006,
      "duration": 0.0156,
      "velocity": 100,
      "chip": "ym2612"
    },
    {
      "channel": 0,
      "note": 42,
      "start": 15.7115,
      "duration": 0.0161,
      "velocity": 115,
      "chip": "ym2612"
    },
    {
      "channel": 4,
      "note": 60,
      "start": 15.7127,
      "duration": 0.0161,
      "velocity": 120,
      "chip": "ym2612"
    },
    {
      "channel": 3,
      "note": 55,
      "start": 15.7138,
      "duration": 0.0161,
      "velocity": 120,
      "chip": "ym2612"
    },
    {
      "channel": 2,
      "note": 48,
      "start": 15.7149,
      "duration": 0.0161,
      "velocity": 100,
      "chip": "ym2612"
    },
    {
      "channel": 1,
      "note": 36,
      "start": 15.7161,
      "duration": 0.016,
      "velocity": 100,
      "chip": "ym2612"
    },
    {
      "channel": 0,
      "note": 42,
      "start": 15.7276,
      "duration": 0.0161,
      "velocity": 115,
      "chip": "ym2612"
    },
    {
      "channel": 4,
      "note": 60,
      "start": 15.7288,
      "duration": 0.0161,
      "velocity": 120,
      "chip": "ym2612"
    },
    {
      "channel": 3,
      "note": 55,
      "start": 15.7299,
      "duration": 0.0161,
      "velocity": 120,
      "chip": "ym2612"
    },
    {
      "channel": 2,
      "note": 48,
      "start": 15.731,
      "duration": 0.0161,
      "velocity": 100,
      "chip": "ym2612"
    },
    {
      "channel": 1,
      "note": 36,
      "start": 15.7321,
      "duration": 0.0162,
      "velocity": 100,
      "chip": "ym2612"
    },
    {
      "channel": 0,
      "note": 43,
      "start": 15.7437,
      "duration": 0.0161,
      "velocity": 115,
      "chip": "ym2612"
    },
    {
      "channel": 4,
      "note": 60,
      "start": 15.7448,
      "duration": 0.0161,
      "velocity": 120,
      "chip": "ym2612"
    },
    {
      "channel": 3,
      "note": 55,
      "start": 15.746,
      "duration": 0.0161,
      "velocity": 120,
      "chip": "ym2612"
    },
    {
      "channel": 2,
      "note": 48,
      "start": 15.7471,
      "duration": 0.0161,
      "velocity": 100,
      "chip": "ym2612"
    },
    {
      "channel": 1,
      "note": 36,
      "start": 15.7483,
      "duration": 0.0161,
      "velocity": 100,
      "chip": "ym2612"
    },
    {
      "channel": 0,
      "note": 43,
      "start": 15.7598,
      "duration": 0.0175,
      "velocity": 115,
      "chip": "ym2612"
    },
    {
      "channel": 4,
      "note": 60,
      "start": 15.7609,
      "duration": 0.0176,
      "velocity": 120,
      "chip": "ym2612"
    },
    {
      "channel": 3,
      "note": 55,
      "start": 15.7621,
      "duration": 0.0176,
      "velocity": 120,
      "chip": "ym2612"
    },
    {
      "channel": 2,
      "note": 48,
      "start": 15.7632,
      "duration": 0.0175,
      "velocity": 100,
      "chip": "ym2612"
    },
    {
      "channel": 1,
      "note": 36,
      "start": 15.7644,
      "duration": 0.0175,
      "velocity": 100,
      "chip": "ym2612"
    },
    {
      "channel": 0,
      "note": 44,
      "start": 15.7773,
      "duration": 0.0167,
      "velocity": 115,
      "chip": "ym2612"
    },
    {
      "channel": 4,
      "note": 60,
      "start": 15.7785,
      "duration": 0.0167,
      "velocity": 120,
      "chip": "ym2612"
    },
    {
      "channel": 3,
      "note": 55,
      "start": 15.7796,
      "duration": 0.0167,
      "velocity": 120,
      "chip": "ym2612"
    },
    {
      "channel": 2,
      "note": 48,
      "start": 15.7807,
      "duration": 0.0167,
      "velocity": 100,
      "chip": "ym2612"
    },
    {
      "channel": 1,
      "note": 36,
      "start": 15.7819,
      "duration": 0.0167,
      "velocity": 100,
      "chip": "ym2612"
    },
    {
      "channel": 0,
      "note": 44,
      "start": 15.794,
      "duration": 0.0163,
      "velocity": 115,
      "chip": "ym2612"
    },
    {
      "channel": 4,
      "note": 60,
      "start": 15.7951,
      "duration": 0.0163,
      "velocity": 120,
      "chip": "ym2612"
    },
    {
      "channel": 3,
      "note": 55,
      "start": 15.7963,
      "duration": 0.0163,
      "velocity": 120,
      "chip": "ym2612"
    },
    {
      "channel": 2,
      "note": 48,
      "start": 15.7974,
      "duration": 0.0163,
      "velocity": 100,
      "chip": "ym2612"
    },
    {
      "channel": 1,
      "note": 36,
      "start": 15.7985,
      "duration": 0.0163,
      "velocity": 100,
      "chip": "ym2612"
    },
    {
      "channel": 0,
      "note": 44,
      "start": 15.8103,
      "duration": 0.0142,
      "velocity": 115,
      "chip": "ym2612"
    },
    {
      "channel": 4,
      "note": 60,
      "start": 15.8114,
      "duration": 0.0142,
      "velocity": 120,
      "chip": "ym2612"
    },
    {
      "channel": 3,
      "note": 55,
      "start": 15.8126,
      "duration": 0.0142,
      "velocity": 120,
      "chip": "ym2612"
    },
    {
      "channel": 0,
      "note": 45,
      "start": 15.8245,
      "duration": 0.0186,
      "velocity": 115,
      "chip": "ym2612"
    },
    {
      "channel": 4,
      "note": 60,
      "start": 15.8256,
      "duration": 0.0186,
      "velocity": 120,
      "chip": "ym2612"
    },
    {
      "channel": 3,
      "note": 55,
      "start": 15.8268,
      "duration": 0.0186,
      "velocity": 120,
      "chip": "ym2612"
    },
    {
      "channel": 0,
      "note": 45,
      "start": 15.8431,
      "duration": 0.0161,
      "velocity": 115,
      "chip": "ym2612"
    },
    {
      "channel": 4,
      "note": 60,
      "start": 15.8442,
      "duration": 0.0161,
      "velocity": 120,
      "chip": "ym2612"
    },
    {
      "channel": 3,
      "note": 55,
      "start": 15.8454,
      "duration": 0.0161,
      "velocity": 120,
      "chip": "ym2612"
    },
    {
      "channel": 0,
      "note": 46,
      "start": 15.8591,
      "duration": 0.0134,
      "velocity": 115,
      "chip": "ym2612"
    },
    {
      "channel": 4,
      "note": 60,
      "start": 15.8603,
      "duration": 0.0157,
      "velocity": 120,
      "chip": "ym2612"
    },
    {
      "channel": 3,
      "note": 55,
      "start": 15.8614,
      "duration": 0.0157,
      "velocity": 120,
      "chip": "ym2612"
    },
    {
      "channel": 0,
      "note": 46,
      "start": 15.8725,
      "duration": 0.0198,
      "velocity": 115,
      "chip": "ym2612"
    },
    {
      "channel": 4,
      "note": 60,
      "start": 15.876,
      "duration": 0.0175,
      "velocity": 120,
      "chip": "ym2612"
    },
    {
      "channel": 3,
      "note": 55,
      "start": 15.8771,
      "duration": 0.0175,
      "velocity": 120,
      "chip": "ym2612"
    },
    {
      "channel": 1,
      "note": 78,
      "start": 15.8906,
      "duration": 0.0141,
      "velocity": 124,
      "chip": "ym2612"
    },
    {
      "channel": 0,
      "note": 47,
      "start": 15.8924,
      "duration": 0.0168,
      "velocity": 115,
      "chip": "ym2612"
    },
    {
      "channel": 4,
      "note": 60,
      "start": 15.8935,
      "duration": 0.0168,
      "velocity": 120,
      "chip": "ym2612"
    },
    {
      "channel": 3,
      "note": 55,
      "start": 15.8946,
      "duration": 0.0168,
      "velocity": 120,
      "chip": "ym2612"
    },
    {
      "channel": 2,
      "note": 48,
      "start": 15.8961,
      "duration": 0.0166,
      "velocity": 100,
      "chip": "ym2612"
    },
    {
      "channel": 1,
      "note": 76,
      "start": 15.9047,
      "duration": 0.016,
      "velocity": 124,
      "chip": "ym2612"
    },
    {
      "channel": 0,
      "note": 47,
      "start": 15.9091,
      "duration": 0.0133,
      "velocity": 115,
      "chip": "ym2612"
    },
    {
      "channel": 4,
      "note": 60,
      "start": 15.9103,
      "duration": 0.016,
      "velocity": 120,
      "chip": "ym2612"
    },
    {
      "channel": 3,
      "note": 55,
      "start": 15.9114,
      "duration": 0.016,
      "velocity": 120,
      "chip": "ym2612"
    },
    {
      "channel": 2,
      "note": 48,
      "start": 15.9127,
      "duration": 0.016,
      "velocity": 100,
      "chip": "ym2612"
    },
    {
      "channel": 1,
      "note": 75,
      "start": 15.9207,
      "duration": 0.0161,
      "velocity": 124,
      "chip": "ym2612"
    },
    {
      "channel": 0,
      "note": 47,
      "start": 15.9224,
      "duration": 0.0161,
      "velocity": 115,
      "chip": "ym2612"
    },
    {
      "channel": 4,
      "note": 60,
      "start": 15.9263,
      "duration": 0.0158,
      "velocity": 120,
      "chip": "ym2612"
    },
    {
      "channel": 3,
      "note": 55,
      "start": 15.9275,
      "duration": 0.0158,
      "velocity": 120,
      "chip": "ym2612"
    },
    {
      "channel": 2,
      "note": 48,
      "start": 15.9286,
      "duration": 0.0157,
      "velocity": 100,
      "chip": "ym2612"
    },
    {
      "channel": 1,
      "note": 74,
      "start": 15.9368,
      "duration": 0.0161,
      "velocity": 124,
      "chip": "ym2612"
    },
    {
      "channel": 0,
      "note": 48,
      "start": 15.9385,
      "duration": 0.0161,
      "velocity": 115,
      "chip": "ym2612"
    },
    {
      "channel": 4,
      "note": 60,
      "start": 15.9421,
      "duration": 0.0137,
      "velocity": 120,
      "chip": "ym2612"
    },
    {
      "channel": 3,
      "note": 55,
      "start": 15.9432,
      "duration": 0.014,
      "velocity": 120,
      "chip": "ym2612"
    },
    {
      "channel": 2,
      "note": 48,
      "start": 15.9443,
      "duration": 0.0141,
      "velocity": 100,
      "chip": "ym2612"
    },
    {
      "channel": 1,
      "note": 72,
      "start": 15.9529,
      "duration": 0.0161,
      "velocity": 124,
      "chip": "ym2612"
    },
    {
      "channel": 0,
      "note": 48,
      "start": 15.9546,
      "duration": 0.0161,
      "velocity": 115,
      "chip": "ym2612"
    },
    {
      "channel": 4,
      "note": 60,
      "start": 15.9558,
      "duration": 0.0161,
      "velocity": 120,
      "chip": "ym2612"
    },
    {
      "channel": 3,
      "note": 55,
      "start": 15.9572,
      "duration": 0.0185,
      "velocity": 120,
      "chip": "ym2612"
    },
    {
      "channel": 2,
      "note": 48,
      "start": 15.9584,
      "duration": 0.0185,
      "velocity": 100,
      "chip": "ym2612"
    },
    {
      "channel": 1,
      "note": 71,
      "start": 15.969,
      "duration": 0.0161,
      "velocity": 124,
      "chip": "ym2612"
    },
    {
      "channel": 0,
      "note": 49,
      "start": 15.9707,
      "duration": 0.0153,
      "velocity": 1,
      "chip": "ym2612"
    },
    {
      "channel": 4,
      "note": 60,
      "start": 15.9719,
      "duration": 0.0153,
      "velocity": 120,
      "chip": "ym2612"
    },
    {
      "channel": 3,
      "note": 55,
      "start": 15.9758,
      "duration": 0.0126,
      "velocity": 120,
      "chip": "ym2612"
    },
    {
      "channel": 2,
      "note": 48,
      "start": 15.9769,
      "duration": 0.0153,
      "velocity": 100,
      "chip": "ym2612"
    },
    {
      "channel": 1,
      "note": 70,
      "start": 15.9851,
      "duration": 0.0161,
      "velocity": 124,
      "chip": "ym2612"
    },
    {
      "channel": 4,
      "note": 60,
      "start": 15.9872,
      "duration": 0.0153,
      "velocity": 120,
      "chip": "ym2612"
    },
    {
      "channel": 3,
      "note": 55,
      "start": 15.9883,
      "duration": 0.0153,
      "velocity": 120,
      "chip": "ym2612"
    },
    {
      "channel": 2,
      "note": 48,
      "start": 15.9922,
      "duration": 0.0125,
      "velocity": 100,
      "chip": "ym2612"
    },
    {
      "channel": 1,
      "note": 69,
      "start": 16.0012,
      "duration": 0.0161,
      "velocity": 124,
      "chip": "ym2612"
    },
    {
      "channel": 4,
      "note": 60,
      "start": 16.0025,
      "duration": 0.0161,
      "velocity": 120,
      "chip": "ym2612"
    },
    {
      "channel": 3,
      "note": 55,
      "start": 16.0036,
      "duration": 0.0161,
      "velocity": 120,
      "chip": "ym2612"
    },
    {
      "channel": 1,
      "note": 68,
      "start": 16.0173,
      "duration": 0.0161,
      "velocity": 124,
      "chip": "ym2612"
    },
    {
      "channel": 4,
      "note": 60,
      "start": 16.0186,
      "duration": 0.0161,
      "velocity": 120,
      "chip": "ym2612"
    },
    {
      "channel": 3,
      "note": 55,
      "start": 16.0197,
      "duration": 0.0161,
      "velocity": 120,
      "chip": "ym2612"
    },
    {
      "channel": 1,
      "note": 66,
      "start": 16.0334,
      "duration": 0.0161,
      "velocity": 124,
      "chip": "ym2612"
    },
    {
      "channel": 4,
      "note": 60,
      "start": 16.0346,
      "duration": 0.0161,
      "velocity": 120,
      "chip": "ym2612"
    },
    {
      "channel": 3,
      "note": 55,
      "start": 16.0358,
      "duration": 0.0161,
      "velocity": 120,
      "chip": "ym2612"
    },
    {
      "channel": 1,
      "note": 65,
      "start": 16.0495,
      "duration": 0.0161,
      "velocity": 124,
      "chip": "ym2612"
    },
    {
      "channel": 4,
      "note": 60,
      "start": 16.0507,
      "duration": 0.0161,
      "velocity": 120,
      "chip": "ym2612"
    },
    {
      "channel": 3,
      "note": 55,
      "start": 16.0519,
      "duration": 0.0161,
      "velocity": 120,
      "chip": "ym2612"
    },
    {
      "channel": 1,
      "note": 64,
      "start": 16.0656,
      "duration": 0.0161,
      "velocity": 124,
      "chip": "ym2612"
    },
    {
      "channel": 4,
      "note": 60,
      "start": 16.0668,
      "duration": 0.0195,
      "velocity": 120,
      "chip": "ym2612"
    },
    {
      "channel": 3,
      "note": 55,
      "start": 16.068,
      "duration": 0.0195,
      "velocity": 120,
      "chip": "ym2612"
    },
    {
      "channel": 1,
      "note": 62,
      "start": 16.0817,
      "duration": 0.0161,
      "velocity": 124,
      "chip": "ym2612"
    },
    {
      "channel": 0,
      "note": 36,
      "start": 16.0852,
      "duration": 0.0144,
      "velocity": 115,
      "chip": "ym2612"
    },
    {
      "channel": 4,
      "note": 60,
      "start": 16.0864,
      "duration": 0.0144,
      "velocity": 120,
      "chip": "ym2612"
    },
    {
      "channel": 3,
      "note": 55,
      "start": 16.0875,
      "duration": 0.0144,
      "velocity": 120,
      "chip": "ym2612"
    },
    {
      "channel": 2,
      "note": 48,
      "start": 16.089,
      "duration": 0.0141,
      "velocity": 100,
      "chip": "ym2612"
    },
    {
      "channel": 1,
      "note": 61,
      "start": 16.0978,
      "duration": 0.0161,
      "velocity": 124,
      "chip": "ym2612"
    },
    {
      "channel": 0,
      "note": 36,
      "start": 16.0996,
      "duration": 0.016,
      "velocity": 115,
      "chip": "ym2612"
    },
    {
      "channel": 4,
      "note": 60,
      "start": 16.1007,
      "duration": 0.016,
      "velocity": 120,
      "chip": "ym2612"
    },
    {
      "channel": 3,
      "note": 55,
      "start": 16.1019,
      "duration": 0.016,
      "velocity": 120,
      "chip": "ym2612"
    },
    {
      "channel": 2,
      "note": 48,
      "start": 16.1031,
      "duration": 0.016,
      "velocity": 100,
      "chip": "ym2612"
    },
    {
      "channel": 1,
      "note": 60,
      "start": 16.1139,
      "duration": 0.0161,
      "velocity": 124,
      "chip": "ym2612"
    },
    {
      "channel": 0,
      "note": 37,
      "start": 16.1156,
      "duration": 0.0161,
      "velocity": 115,
      "chip": "ym2612"
    },
    {
      "channel": 4,
      "note": 60,
      "start": 16.1168,
      "duration": 0.0161,
      "velocity": 120,
      "chip": "ym2612"
    },
    {
      "channel": 3,
      "note": 55,
      "start": 16.1179,
      "duration": 0.0161,
      "velocity": 120,
      "chip": "ym2612"
    },
    {
      "channel": 2,
      "note": 48,
      "start": 16.1191,
      "duration": 0.0161,
      "velocity": 100,
      "chip": "ym2612"
    },
    {
      "channel": 1,
      "note": 59,
      "start": 16.13,
      "duration": 0.0161,
      "velocity": 124,
      "chip": "ym2612"
    },
    {
      "channel": 0,
      "note": 37,
      "start": 16.1317,
      "duration": 0.0161,
      "velocity": 115,
      "chip": "ym2612"
    },
    {
      "channel": 4,
      "note": 60,
      "start": 16.1329,
      "duration": 0.0161,
      "velocity": 120,
      "chip": "ym2612"
    },
    {
      "channel": 3,
      "note": 55,
      "start": 16.134,
      "duration": 0.0161,
      "velocity": 120,
      "chip": "ym2612"
    },
    {
      "channel": 2,
      "note": 48,
      "start": 16.1352,
      "duration": 0.0161,
      "velocity": 100,
      "chip": "ym2612"
    },
    {
      "channel": 1,
      "note": 57,
      "start": 16.1461,
      "duration": 0.0161,
      "velocity": 124,
      "chip": "ym2612"
    },
    {
      "channel": 0,
      "note": 38,
      "start": 16.1478,
      "duration": 0.0162,
      "velocity": 115,
      "chip": "ym2612"
    },
    {
      "channel": 4,
      "note": 60,
      "start": 16.149,
      "duration": 0.0161,
      "velocity": 120,
      "chip": "ym2612"
    },
    {
      "channel": 3,
      "note": 55,
      "start": 16.1501,
      "duration": 0.0162,
      "velocity": 120,
      "chip": "ym2612"
    },
    {
      "channel": 2,
      "note": 48,
      "start": 16.1513,
      "duration": 0.0161,
      "velocity": 100,
      "chip": "ym2612"
    },
    {
      "channel": 1,
      "note": 56,
      "start": 16.1622,
      "duration": 0.0162,
      "velocity": 124,
      "chip": "ym2612"
    },
    {
      "channel": 0,
      "note": 38,
      "start": 16.164,
      "duration": 0.0161,
      "velocity": 115,
      "chip": "ym2612"
    },
    {
      "channel": 4,
      "note": 60,
      "start": 16.1651,
      "duration": 0.0161,
      "velocity": 120,
      "chip": "ym2612"
    },
    {
      "channel": 3,
      "note": 55,
      "start": 16.1663,
      "duration": 0.0161,
      "velocity": 120,
      "chip": "ym2612"
    },
    {
      "channel": 2,
      "note": 48,
      "start": 16.1673,
      "duration": 0.0162,
      "velocity": 100,
      "chip": "ym2612"
    },
    {
      "channel": 1,
      "note": 55,
      "start": 16.1784,
      "duration": 0.0161,
      "velocity": 124,
      "chip": "ym2612"
    },
    {
      "channel": 0,
      "note": 39,
      "start": 16.1801,
      "duration": 0.0161,
      "velocity": 115,
      "chip": "ym2612"
    },
    {
      "channel": 4,
      "note": 60,
      "start": 16.1812,
      "duration": 0.0161,
      "velocity": 120,
      "chip": "ym2612"
    },
    {
      "channel": 3,
      "note": 55,
      "start": 16.1824,
      "duration": 0.0161,
      "velocity": 120,
      "chip": "ym2612"
    },
    {
      "channel": 2,
      "note": 48,
      "start": 16.1835,
      "duration": 0.0161,
      "velocity": 100,
      "chip": "ym2612"
    },
    {
      "channel": 1,
      "note": 53,
      "start": 16.1944,
      "duration": 0.0161,
      "velocity": 124,
      "chip": "ym2612"
    },
    {
      "channel": 0,
      "note": 39,
      "start": 16.1962,
      "duration": 0.0161,
      "velocity": 115,
      "chip": "ym2612"
    },
    {
      "channel": 4,
      "note": 60,
      "start": 16.1973,
      "duration": 0.0161,
      "velocity": 120,
      "chip": "ym2612"
    },
    {
      "channel": 3,
      "note": 55,
      "start": 16.1985,
      "duration": 0.0161,
      "velocity": 120,
      "chip": "ym2612"
    },
    {
      "channel": 1,
      "note": 52,
      "start": 16.2105,
      "duration": 0.0161,
      "velocity": 124,
      "chip": "ym2612"
    },
    {
      "channel": 0,
      "note": 40,
      "start": 16.2123,
      "duration": 0.0161,
      "velocity": 115,
      "chip": "ym2612"
    },
    {
      "channel": 4,
      "note": 60,
      "start": 16.2134,
      "duration": 0.0161,
      "velocity": 120,
      "chip": "ym2612"
    },
    {
      "channel": 3,
      "note": 55,
      "start": 16.2146,
      "duration": 0.0161,
      "velocity": 120,
      "chip": "ym2612"
    },
    {
      "channel": 1,
      "note": 51,
      "start": 16.2266,
      "duration": 0.0165,
      "velocity": 1,
      "chip": "ym2612"
    },
    {
      "channel": 0,
      "note": 40,
      "start": 16.2284,
      "duration": 0.0165,
      "velocity": 115,
      "chip": "ym2612"
    },
    {
      "channel": 4,
      "note": 60,
      "start": 16.2295,
      "duration": 0.0165,
      "velocity": 120,
      "chip": "ym2612"
    },
    {
      "channel": 3,
      "note": 55,
      "start": 16.2307,
      "duration": 0.0165,
      "velocity": 120,
      "chip": "ym2612"
    },
    {
      "channel": 0,
      "note": 40,
      "start": 16.2448,
      "duration": 0.0159,
      "velocity": 115,
      "chip": "ym2612"
    },
    {
      "channel": 4,
      "note": 60,
      "start": 16.246,
      "duration": 0.0158,
      "velocity": 120,
      "chip": "ym2612"
    },
    {
      "channel": 3,
      "note": 55,
      "start": 16.2471,
      "duration": 0.0159,
      "velocity": 120,
      "chip": "ym2612"
    },
    {
      "channel": 0,
      "note": 41,
      "start": 16.2607,
      "duration": 0.0163,
      "velocity": 115,
      "chip": "ym2612"
    },
    {
      "channel": 4,
      "note": 60,
      "start": 16.2618,
      "duration": 0.0163,
      "velocity": 120,
      "chip": "ym2612"
    },
    {
      "channel": 3,
      "note": 55,
      "start": 16.263,
      "duration": 0.0163,
      "velocity": 120,
      "chip": "ym2612"
    },
    {
      "channel": 0,
      "note": 41,
      "start": 16.277,
      "duration": 0.0145,
      "velocity": 115,
      "chip": "ym2612"
    },
    {
      "channel": 4,
      "note": 60,
      "start": 16.2781,
      "duration": 0.0145,
      "velocity": 120,
      "chip": "ym2612"
    },
    {
      "channel": 3,
      "note": 55,
      "start": 16.2793,
      "duration": 0.0145,
      "velocity": 120,
      "chip": "ym2612"
    },
    {
      "channel": 2,
      "note": 48,
      "start": 16.2807,
      "duration": 0.0142,
      "velocity": 100,
      "chip": "ym2612"
    },
    {
      "channel": 1,
      "note": 36,
      "start": 16.2822,
      "duration": 0.0139,
      "velocity": 100,
      "chip": "ym2612"
    },
    {
      "channel": 0,
      "note": 42,
      "start": 16.2915,
      "duration": 0.0185,
      "velocity": 115,
      "chip": "ym2612"
    },
    {
      "channel": 4,
      "note": 60,
      "start": 16.2926,
      "duration": 0.0185,
      "velocity": 120,
      "chip": "ym2612"
    },
    {
      "channel": 3,
      "note": 55,
      "start": 16.2938,
      "duration": 0.0185,
      "velocity": 120,
      "chip": "ym2612"
    },
    {
      "channel": 2,
      "note": 48,
      "start": 16.2949,
      "duration": 0.0185,
      "velocity": 100,
      "chip": "ym2612"
    },
    {
      "channel": 1,
      "note": 36,
      "start": 16.2961,
      "duration": 0.0185,
      "velocity": 100,
      "chip": "ym2612"
    },
    {
      "channel": 0,
      "note": 42,
      "start": 16.31,
      "duration": 0.0161,
      "velocity": 115,
      "chip": "ym2612"
    },
    {
      "channel": 4,
      "note": 60,
      "start": 16.3111,
      "duration": 0.0161,
      "velocity": 120,
      "chip": "ym2612"
    },
    {
      "channel": 3,
      "note": 55,
      "start": 16.3123,
      "duration": 0.0161,
      "velocity": 120,
      "chip": "ym2612"
    },
    {
      "channel": 2,
      "note": 48,
      "start": 16.3134,
      "duration": 0.0161,
      "velocity": 100,
      "chip": "ym2612"
    },
    {
      "channel": 1,
      "note": 36,
      "start": 16.3146,
      "duration": 0.0161,
      "velocity": 100,
      "chip": "ym2612"
    },
    {
      "channel": 0,
      "note": 43,
      "start": 16.3261,
      "duration": 0.0157,
      "velocity": 115,
      "chip": "ym2612"
    },
    {
      "channel": 4,
      "note": 60,
      "start": 16.3272,
      "duration": 0.0158,
      "velocity": 120,
      "chip": "ym2612"
    },
    {
      "channel": 3,
      "note": 55,
      "start": 16.3284,
      "duration": 0.0158,
      "velocity": 120,
      "chip": "ym2612"
    },
    {
      "channel": 2,
      "note": 48,
      "start": 16.3295,
      "duration": 0.0157,
      "velocity": 100,
      "chip": "ym2612"
    },
    {
      "channel": 1,
      "note": 36,
      "start": 16.3307,
      "duration": 0.0157,
      "velocity": 100,
      "chip": "ym2612"
    },
    {
      "channel": 0,
      "note": 43,
      "start": 16.3418,
      "duration": 0.0137,
      "velocity": 115,
      "chip": "ym2612"
    },
    {
      "channel": 4,
      "note": 60,
      "start": 16.343,
      "duration": 0.014,
      "velocity": 120,
      "chip": "ym2612"
    },
    {
      "channel": 3,
      "note": 55,
      "start": 16.3441,
      "duration": 0.014,
      "velocity": 120,
      "chip": "ym2612"
    },
    {
      "channel": 2,
      "note": 48,
      "start": 16.3452,
      "duration": 0.0141,
      "velocity": 100,
      "chip": "ym2612"
    },
    {
      "channel": 1,
      "note": 36,
      "start": 16.3464,
      "duration": 0.0141,
      "velocity": 100,
      "chip": "ym2612"
    },
    {
      "channel": 0,
      "note": 44,
      "start": 16.3555,
      "duration": 0.0161,
      "velocity": 115,
      "chip": "ym2612"
    },
    {
      "channel": 4,
      "note": 60,
      "start": 16.357,
      "duration": 0.0185,
      "velocity": 120,
      "chip": "ym2612"
    },
    {
      "channel": 3,
      "note": 55,
      "start": 16.3581,
      "duration": 0.0185,
      "velocity": 120,
      "chip": "ym2612"
    },
    {
      "channel": 2,
      "note": 48,
      "start": 16.3593,
      "duration": 0.0185,
      "velocity": 100,
      "chip": "ym2612"
    },
    {
      "channel": 1,
      "note": 36,
      "start": 16.3604,
      "duration": 0.0185,
      "velocity": 100,
      "chip": "ym2612"
    },
    {
      "channel": 0,
      "note": 44,
      "start": 16.3716,
      "duration": 0.0161,
      "velocity": 115,
      "chip": "ym2612"
    },
    {
      "channel": 4,
      "note": 60,
      "start": 16.3755,
      "duration": 0.0134,
      "velocity": 120,
      "chip": "ym2612"
    },
    {
      "channel": 3,
      "note": 55,
      "start": 16.3766,
      "duration": 0.0162,
      "velocity": 120,
      "chip": "ym2612"
    },
    {
      "channel": 2,
      "note": 48,
      "start": 16.3778,
      "duration": 0.0161,
      "velocity": 100,
      "chip": "ym2612"
    },
    {
      "channel": 1,
      "note": 36,
      "start": 16.3789,
      "duration": 0.0161,
      "velocity": 100,
      "chip": "ym2612"
    },
    {
      "channel": 0,
      "note": 44,
      "start": 16.3877,
      "duration": 0.0161,
      "velocity": 115,
      "chip": "ym2612"
    },
    {
      "channel": 4,
      "note": 60,
      "start": 16.3889,
      "duration": 0.0161,
      "velocity": 120,
      "chip": "ym2612"
    },
    {
      "channel": 3,
      "note": 55,
      "start": 16.3928,
      "duration": 0.0156,
      "velocity": 120,
      "chip": "ym2612"
    },
    {
      "channel": 0,
      "note": 45,
      "start": 16.4038,
      "duration": 0.0161,
      "velocity": 115,
      "chip": "ym2612"
    },
    {
      "channel": 4,
      "note": 60,
      "start": 16.4049,
      "duration": 0.0161,
      "velocity": 120,
      "chip": "ym2612"
    },
    {
      "channel": 3,
      "note": 55,
      "start": 16.4085,
      "duration": 0.0137,
      "velocity": 120,
      "chip": "ym2612"
    },
    {
      "channel": 0,
      "note": 45,
      "start": 16.4199,
      "duration": 0.0161,
      "velocity": 115,
      "chip": "ym2612"
    },
    {
      "channel": 4,
      "note": 60,
      "start": 16.421,
      "duration": 0.0162,
      "velocity": 120,
      "chip": "ym2612"
    },
    {
      "channel": 3,
      "note": 55,
      "start": 16.4222,
      "duration": 0.0161,
      "velocity": 120,
      "chip": "ym2612"
    },
    {
      "channel": 0,
      "note": 46,
      "start": 16.4361,
      "duration": 0.0161,
      "velocity": 115,
      "chip": "ym2612"
    },
    {
      "channel": 4,
      "note": 60,
      "start": 16.4372,
      "duration": 0.0161,
      "velocity": 120,
      "chip": "ym2612"
    },
    {
      "channel": 3,
      "note": 55,
      "start": 16.4383,
      "duration": 0.0161,
      "velocity": 120,
      "chip": "ym2612"
    },
    {
      "channel": 0,
      "note": 46,
      "start": 16.4522,
      "duration": 0.0178,
      "velocity": 115,
      "chip": "ym2612"
    },
    {
      "channel": 4,
      "note": 60,
      "start": 16.4533,
      "duration": 0.0179,
      "velocity": 120,
      "chip": "ym2612"
    },
    {
      "channel": 3,
      "note": 55,
      "start": 16.4544,
      "duration": 0.0179,
      "velocity": 120,
      "chip": "ym2612"
    },
    {
      "channel": 0,
      "note": 36,
      "start": 16.47,
      "duration": 0.0144,
      "velocity": 115,
      "chip": "ym2612"
    },
    {
      "channel": 4,
      "note": 60,
      "start": 16.4712,
      "duration": 0.0144,
      "velocity": 120,
      "chip": "ym2612"
    },
    {
      "channel": 3,
      "note": 55,
      "start": 16.4723,
      "duration": 0.0144,
      "velocity": 120,
      "chip": "ym2612"
    },
    {
      "channel": 2,
      "note": 48,
      "start": 16.4761,
      "duration": 0.0117,
      "velocity": 100,
      "chip": "ym2612"
    },
    {
      "channel": 1,
      "note": 36,
      "start": 16.4776,
      "duration": 0.0115,
      "velocity": 100,
      "chip": "ym2612"
    },
    {
      "channel": 0,
      "note": 36,
      "start": 16.4844,
      "duration": 0.016,
      "velocity": 115,
      "chip": "ym2612"
    },
    {
      "channel": 4,
      "note": 60,
      "start": 16.4856,
      "duration": 0.016,
      "velocity": 120,
      "chip": "ym2612"
    },
    {
      "channel": 3,
      "note": 55,
      "start": 16.4867,
      "duration": 0.016,
      "velocity": 120,
      "chip": "ym2612"
    },
    {
      "channel": 2,
      "note": 48,
      "start": 16.4878,
      "duration": 0.016,
      "velocity": 100,
      "chip": "ym2612"
    },
    {
      "channel": 1,
      "note": 36,
      "start": 16.489,
      "duration": 0.016,
      "velocity": 100,
      "chip": "ym2612"
    },
    {
      "channel": 0,
      "note": 37,
      "start": 16.5004,
      "duration": 0.0161,
      "velocity": 115,
      "chip": "ym2612"
    },
    {
      "channel": 4,
      "note": 60,
      "start": 16.5016,
      "duration": 0.0161,
      "velocity": 120,
      "chip": "ym2612"
    },
    {
      "channel": 3,
      "note": 55,
      "start": 16.5027,
      "duration": 0.0161,
      "velocity": 120,
      "chip": "ym2612"
    },
    {
      "channel": 2,
      "note": 48,
      "start": 16.5039,
      "duration": 0.0161,
      "velocity": 100,
      "chip": "ym2612"
    },
    {
      "channel": 1,
      "note": 36,
      "start": 16.505,
      "duration": 0.0161,
      "velocity": 100,
      "chip": "ym2612"
    },
    {
      "channel": 0,
      "note": 37,
      "start": 16.5165,
      "duration": 0.0161,
      "velocity": 115,
      "chip": "ym2612"
    },
    {
      "channel": 4,
      "note": 60,
      "start": 16.5177,
      "duration": 0.0161,
      "velocity": 120,
      "chip": "ym2612"
    },
    {
      "channel": 3,
      "note": 55,
      "start": 16.5188,
      "duration": 0.0161,
      "velocity": 120,
      "chip": "ym2612"
    },
    {
      "channel": 2,
      "note": 48,
      "start": 16.52,
      "duration": 0.0161,
      "velocity": 100,
      "chip": "ym2612"
    },
    {
      "channel": 1,
      "note": 36,
      "start": 16.5211,
      "duration": 0.0161,
      "velocity": 100,
      "chip": "ym2612"
    },
    {
      "channel": 0,
      "note": 38,
      "start": 16.5326,
      "duration": 0.0161,
      "velocity": 115,
      "chip": "ym2612"
    },
    {
      "channel": 4,
      "note": 60,
      "start": 16.5338,
      "duration": 0.0161,
      "velocity": 120,
      "chip": "ym2612"
    },
    {
      "channel": 3,
      "note": 55,
      "start": 16.5349,
      "duration": 0.0161,
      "velocity": 120,
      "chip": "ym2612"
    },
    {
      "channel": 2,
      "note": 48,
      "start": 16.5361,
      "duration": 0.0161,
      "velocity": 100,
      "chip": "ym2612"
    },
    {
      "channel": 1,
      "note": 36,
      "start": 16.5372,
      "duration": 0.0161,
      "velocity": 100,
      "chip": "ym2612"
    },
    {
      "channel": 0,
      "note": 38,
      "start": 16.5487,
      "duration": 0.0161,
      "velocity": 115,
      "chip": "ym2612"
    },
    {
      "channel": 4,
      "note": 60,
      "start": 16.5499,
      "duration": 0.0161,
      "velocity": 120,
      "chip": "ym2612"
    },
    {
      "channel": 3,
      "note": 55,
      "start": 16.551,
      "duration": 0.0161,
      "velocity": 120,
      "chip": "ym2612"
    },
    {
      "channel": 2,
      "note": 48,
      "start": 16.5522,
      "duration": 0.0161,
      "velocity": 100,
      "chip": "ym2612"
    },
    {
      "channel": 1,
      "note": 36,
      "start": 16.5533,
      "duration": 0.0161,
      "velocity": 100,
      "chip": "ym2612"
    },
    {
      "channel": 0,
      "note": 39,
      "start": 16.5648,
      "duration": 0.0161,
      "velocity": 115,
      "chip": "ym2612"
    },
    {
      "channel": 4,
      "note": 60,
      "start": 16.566,
      "duration": 0.0161,
      "velocity": 120,
      "chip": "ym2612"
    },
    {
      "channel": 3,
      "note": 55,
      "start": 16.5671,
      "duration": 0.0162,
      "velocity": 120,
      "chip": "ym2612"
    },
    {
      "channel": 2,
      "note": 48,
      "start": 16.5683,
      "duration": 0.0161,
      "velocity": 100,
      "chip": "ym2612"
    },
    {
      "channel": 1,
      "note": 36,
      "start": 16.5694,
      "duration": 0.0161,
      "velocity": 100,
      "chip": "ym2612"
    },
    {
      "channel": 0,
      "note": 39,
      "start": 16.5809,
      "duration": 0.0161,
      "velocity": 115,
      "chip": "ym2612"
    },
    {
      "channel": 4,
      "note": 60,
      "start": 16.5821,
      "duration": 0.0161,
      "velocity": 120,
      "chip": "ym2612"
    },
    {
      "channel": 3,
      "note": 55,
      "start": 16.5833,
      "duration": 0.0161,
      "velocity": 120,
      "chip": "ym2612"
    },
    {
      "channel": 0,
      "note": 40,
      "start": 16.5971,
      "duration": 0.0161,
      "velocity": 115,
      "chip": "ym2612"
    },
    {
      "channel": 4,
      "note": 60,
      "start": 16.5982,
      "duration": 0.0161,
      "velocity": 120,
      "chip": "ym2612"
    },
    {
      "channel": 3,
      "note": 55,
      "start": 16.5993,
      "duration": 0.0161,
      "velocity": 120,
      "chip": "ym2612"
    },
    {
      "channel": 0,
      "note": 40,
      "start": 16.6132,
      "duration": 0.0161,
      "velocity": 115,
      "chip": "ym2612"
    },
    {
      "channel": 4,
      "note": 60,
      "start": 16.6143,
      "duration": 0.0161,
      "velocity": 120,
      "chip": "ym2612"
    },
    {
      "channel": 3,
      "note": 55,
      "start": 16.6154,
      "duration": 0.0161,
      "velocity": 120,
      "chip": "ym2612"
    },
    {
      "channel": 0,
      "note": 40,
      "start": 16.6293,
      "duration": 0.0161,
      "velocity": 115,
      "chip": "ym2612"
    },
    {
      "channel": 4,
      "note": 60,
      "start": 16.6304,
      "duration": 0.0161,
      "velocity": 120,
      "chip": "ym2612"
    },
    {
      "channel": 3,
      "note": 55,
      "start": 16.6315,
      "duration": 0.0161,
      "velocity": 120,
      "chip": "ym2612"
    },
    {
      "channel": 0,
      "note": 41,
      "start": 16.6454,
      "duration": 0.0195,
      "velocity": 115,
      "chip": "ym2612"
    },
    {
      "channel": 4,
      "note": 60,
      "start": 16.6465,
      "duration": 0.0195,
      "velocity": 120,
      "chip": "ym2612"
    },
    {
      "channel": 3,
      "note": 55,
      "start": 16.6476,
      "duration": 0.0195,
      "velocity": 120,
      "chip": "ym2612"
    },
    {
      "channel": 1,
      "note": 78,
      "start": 16.6632,
      "duration": 0.0144,
      "velocity": 124,
      "chip": "ym2612"
    },
    {
      "channel": 0,
      "note": 41,
      "start": 16.6649,
      "duration": 0.0144,
      "velocity": 115,
      "chip": "ym2612"
    },
    {
      "channel": 4,
      "note": 60,
      "start": 16.666,
      "duration": 0.0144,
      "velocity": 120,
      "chip": "ym2612"
    },
    {
      "channel": 3,
      "note": 55,
      "start": 16.6672,
      "duration": 0.0144,
      "velocity": 120,
      "chip": "ym2612"
    },
    {
      "channel": 2,
      "note": 48,
      "start": 16.6686,
      "duration": 0.0141,
      "velocity": 100,
      "chip": "ym2612"
    },
    {
      "channel": 1,
      "note": 76,
      "start": 16.6775,
      "duration": 0.016,
      "velocity": 124,
      "chip": "ym2612"
    },
    {
      "channel": 0,
      "note": 42,
      "start": 16.6793,
      "duration": 0.016,
      "velocity": 115,
      "chip": "ym2612"
    },
    {
      "channel": 4,
      "note": 60,
      "start": 16.6804,
      "duration": 0.016,
      "velocity": 120,
      "chip": "ym2612"
    },
    {
      "channel": 3,
      "note": 55,
      "start": 16.6815,
      "duration": 0.016,
      "velocity": 120,
      "chip": "ym2612"
    },
    {
      "channel": 2,
      "note": 48,
      "start": 16.6827,
      "duration": 0.016,
      "velocity": 100,
      "chip": "ym2612"
    },
    {
      "channel": 1,
      "note": 75,
      "start": 16.6936,
      "duration": 0.017,
      "velocity": 124,
      "chip": "ym2612"
    },
    {
      "channel": 0,
      "note": 42,
      "start": 16.6953,
      "duration": 0.017,
      "velocity": 115,
      "chip": "ym2612"
    },
    {
      "channel": 4,
      "note": 60,
      "start": 16.6964,
      "duration": 0.0171,
      "velocity": 120,
      "chip": "ym2612"
    },
    {
      "channel": 3,
      "note": 55,
      "start": 16.6976,
      "duration": 0.0171,
      "velocity": 120,
      "chip": "ym2612"
    },
    {
      "channel": 2,
      "note": 48,
      "start": 16.6987,
      "duration": 0.017,
      "velocity": 100,
      "chip": "ym2612"
    },
    {
      "channel": 1,
      "note": 74,
      "start": 16.7105,
      "duration": 0.0167,
      "velocity": 124,
      "chip": "ym2612"
    },
    {
      "channel": 0,
      "note": 43,
      "start": 16.7123,
      "duration": 0.0167,
      "velocity": 115,
      "chip": "ym2612"
    },
    {
      "channel": 4,
      "note": 60,
      "start": 16.7135,
      "duration": 0.0167,
      "velocity": 120,
      "chip": "ym2612"
    },
    {
      "channel": 3,
      "note": 55,
      "start": 16.7146,
      "duration": 0.0167,
      "velocity": 120,
      "chip": "ym2612"
    },
    {
      "channel": 2,
      "note": 48,
      "start": 16.7157,
      "duration": 0.0167,
      "velocity": 100,
      "chip": "ym2612"
    },
    {
      "channel": 1,
      "note": 72,
      "start": 16.7272,
      "duration": 0.0163,
      "velocity": 124,
      "chip": "ym2612"
    },
    {
      "channel": 0,
      "note": 43,
      "start": 16.729,
      "duration": 0.0163,
      "velocity": 115,
      "chip": "ym2612"
    },
    {
      "channel": 4,
      "note": 60,
      "start": 16.7301,
      "duration": 0.0163,
      "velocity": 120,
      "chip": "ym2612"
    },
    {
      "channel": 3,
      "note": 55,
      "start": 16.7313,
      "duration": 0.0163,
      "velocity": 120,
      "chip": "ym2612"
    },
    {
      "channel": 2,
      "note": 48,
      "start": 16.7324,
      "duration": 0.0163,
      "velocity": 100,
      "chip": "ym2612"
    },
    {
      "channel": 1,
      "note": 71,
      "start": 16.7436,
      "duration": 0.0146,
      "velocity": 124,
      "chip": "ym2612"
    },
    {
      "channel": 0,
      "note": 44,
      "start": 16.7453,
      "duration": 0.0146,
      "velocity": 115,
      "chip": "ym2612"
    },
    {
      "channel": 4,
      "note": 60,
      "start": 16.7464,
      "duration": 0.0146,
      "velocity": 120,
      "chip": "ym2612"
    },
    {
      "channel": 3,
      "note": 55,
      "start": 16.7476,
      "duration": 0.0146,
      "velocity": 120,
      "chip": "ym2612"
    },
    {
      "channel": 2,
      "note": 48,
      "start": 16.7487,
      "duration": 0.0146,
      "velocity": 100,
      "chip": "ym2612"
    },
    {
      "channel": 1,
      "note": 70,
      "start": 16.7582,
      "duration": 0.0186,
      "velocity": 124,
      "chip": "ym2612"
    },
    {
      "channel": 0,
      "note": 44,
      "start": 16.7599,
      "duration": 0.0186,
      "velocity": 115,
      "chip": "ym2612"
    },
    {
      "channel": 4,
      "note": 60,
      "start": 16.7611,
      "duration": 0.0186,
      "velocity": 120,
      "chip": "ym2612"
    },
    {
      "channel": 3,
      "note": 55,
      "start": 16.7622,
      "duration": 0.0186,
      "velocity": 120,
      "chip": "ym2612"
    },
    {
      "channel": 2,
      "note": 48,
      "start": 16.7634,
      "duration": 0.0186,
      "velocity": 100,
      "chip": "ym2612"
    },
    {
      "channel": 1,
      "note": 69,
      "start": 16.7768,
      "duration": 0.0161,
      "velocity": 124,
      "chip": "ym2612"
    },
    {
      "channel": 0,
      "note": 44,
      "start": 16.7785,
      "duration": 0.0161,
      "velocity": 115,
      "chip": "ym2612"
    },
    {
      "channel": 4,
      "note": 60,
      "start": 16.7797,
      "duration": 0.0161,
      "velocity": 120,
      "chip": "ym2612"
    },
    {
      "channel": 3,
      "note": 55,
      "start": 16.7808,
      "duration": 0.0161,
      "velocity": 120,
      "chip": "ym2612"
    },
    {
      "channel": 1,
      "note": 68,
      "start": 16.7929,
      "duration": 0.0157,
      "velocity": 124,
      "chip": "ym2612"
    },
    {
      "channel": 0,
      "note": 45,
      "start": 16.7946,
      "duration": 0.0158,
      "velocity": 115,
      "chip": "ym2612"
    },
    {
      "channel": 4,
      "note": 60,
      "start": 16.7958,
      "duration": 0.0158,
      "velocity": 120,
      "chip": "ym2612"
    },
    {
      "channel": 3,
      "note": 55,
      "start": 16.7969,
      "duration": 0.0158,
      "velocity": 120,
      "chip": "ym2612"
    },
    {
      "channel": 1,
      "note": 66,
      "start": 16.8086,
      "duration": 0.0137,
      "velocity": 124,
      "chip": "ym2612"
    },
    {
      "channel": 0,
      "note": 45,
      "start": 16.8104,
      "duration": 0.014,
      "velocity": 115,
      "chip": "ym2612"
    },
    {
      "channel": 4,
      "note": 60,
      "start": 16.8116,
      "duration": 0.014,
      "velocity": 120,
      "chip": "ym2612"
    },
    {
      "channel": 3,
      "note": 55,
      "start": 16.8127,
      "duration": 0.014,
      "velocity": 120,
      "chip": "ym2612"
    },
    {
      "channel": 1,
      "note": 65,
      "start": 16.8224,
      "duration": 0.0161,
      "velocity": 124,
      "chip": "ym2612"
    },
    {
      "channel": 0,
      "note": 46,
      "start": 16.8244,
      "duration": 0.0185,
      "velocity": 115,
      "chip": "ym2612"
    },
    {
      "channel": 4,
      "note": 60,
      "start": 16.8256,
      "duration": 0.0185,
      "velocity": 120,
      "chip": "ym2612"
    },
    {
      "channel": 3,
      "note": 55,
      "start": 16.8267,
      "duration": 0.0185,
      "velocity": 120,
      "chip": "ym2612"
    },
    {
      "channel": 1,
      "note": 64,
      "start": 16.8385,
      "duration": 0.0161,
      "velocity": 124,
      "chip": "ym2612"
    },
    {
      "channel": 0,
      "note": 46,
      "start": 16.8429,
      "duration": 0.0162,
      "velocity": 115,
      "chip": "ym2612"
    },
    {
      "channel": 4,
      "note": 60,
      "start": 16.8441,
      "duration": 0.0161,
      "velocity": 120,
      "chip": "ym2612"
    },
    {
      "channel": 3,
      "note": 55,
      "start": 16.8452,
      "duration": 0.0162,
      "velocity": 120,
      "chip": "ym2612"
    },
    {
      "channel": 1,
      "note": 62,
      "start": 16.8546,
      "duration": 0.0161,
      "velocity": 124,
      "chip": "ym2612"
    },
    {
      "channel": 0,
      "note": 47,
      "start": 16.8591,
      "duration": 0.0133,
      "velocity": 115,
      "chip": "ym2612"
    },
    {
      "channel": 4,
      "note": 60,
      "start": 16.8602,
      "duration": 0.0157,
      "velocity": 120,
      "chip": "ym2612"
    },
    {
      "channel": 3,
      "note": 55,
      "start": 16.8614,
      "duration": 0.0157,
      "velocity": 120,
      "chip": "ym2612"
    },
    {
      "channel": 2,
      "note": 48,
      "start": 16.8628,
      "duration": 0.0155,
      "velocity": 100,
      "chip": "ym2612"
    },
    {
      "channel": 1,
      "note": 61,
      "start": 16.8707,
      "duration": 0.0161,
      "velocity": 124,
      "chip": "ym2612"
    },
    {
      "channel": 0,
      "note": 47,
      "start": 16.8724,
      "duration": 0.0162,
      "velocity": 115,
      "chip": "ym2612"
    },
    {
      "channel": 4,
      "note": 60,
      "start": 16.8759,
      "duration": 0.0141,
      "velocity": 120,
      "chip": "ym2612"
    },
    {
      "channel": 3,
      "note": 55,
      "start": 16.8771,
      "duration": 0.0141,
      "velocity": 120,
      "chip": "ym2612"
    },
    {
      "channel": 2,
      "note": 48,
      "start": 16.8782,
      "duration": 0.014,
      "velocity": 100,
      "chip": "ym2612"
    },
    {
      "channel": 1,
      "note": 60,
      "start": 16.8868,
      "duration": 0.0161,
      "velocity": 124,
      "chip": "ym2612"
    },
    {
      "channel": 0,
      "note": 47,
      "start": 16.8885,
      "duration": 0.016,
      "velocity": 115,
      "chip": "ym2612"
    },
    {
      "channel": 4,
      "note": 60,
      "start": 16.89,
      "duration": 0.0157,
      "velocity": 120,
      "chip": "ym2612"
    },
    {
      "channel": 3,
      "note": 55,
      "start": 16.8912,
      "duration": 0.0185,
      "velocity": 120,
      "chip": "ym2612"
    },
    {
      "channel": 2,
      "note": 48,
      "start": 16.8922,
      "duration": 0.0185,
      "velocity": 100,
      "chip": "ym2612"
    },
    {
      "channel": 1,
      "note": 59,
      "start": 16.9029,
      "duration": 0.0161,
      "velocity": 124,
      "chip": "ym2612"
    },
    {
      "channel": 0,
      "note": 48,
      "start": 16.9046,
      "duration": 0.0161,
      "velocity": 115,
      "chip": "ym2612"
    },
    {
      "channel": 4,
      "note": 60,
      "start": 16.9057,
      "duration": 0.0162,
      "velocity": 120,
      "chip": "ym2612"
    },
    {
      "channel": 3,
      "note": 55,
      "start": 16.9097,
      "duration": 0.0161,
      "velocity": 120,
      "chip": "ym2612"
    },
    {
      "channel": 2,
      "note": 48,
      "start": 16.9107,
      "duration": 0.0161,
      "velocity": 100,
      "chip": "ym2612"
    },
    {
      "channel": 1,
      "note": 57,
      "start": 16.919,
      "duration": 0.0161,
      "velocity": 124,
      "chip": "ym2612"
    },
    {
      "channel": 0,
      "note": 48,
      "start": 16.9207,
      "duration": 0.0161,
      "velocity": 115,
      "chip": "ym2612"
    },
    {
      "channel": 4,
      "note": 60,
      "start": 16.9219,
      "duration": 0.0161,
      "velocity": 120,
      "chip": "ym2612"
    },
    {
      "channel": 3,
      "note": 55,
      "start": 16.9258,
      "duration": 0.0134,
      "velocity": 120,
      "chip": "ym2612"
    },
    {
      "channel": 2,
      "note": 48,
      "start": 16.9269,
      "duration": 0.0157,
      "velocity": 100,
      "chip": "ym2612"
    },
    {
      "channel": 1,
      "note": 56,
      "start": 16.9351,
      "duration": 0.0161,
      "velocity": 124,
      "chip": "ym2612"
    },
    {
      "channel": 0,
      "note": 49,
      "start": 16.9368,
      "duration": 0.0153,
      "velocity": 1,
      "chip": "ym2612"
    },
    {
      "channel": 4,
      "note": 60,
      "start": 16.938,
      "duration": 0.0153,
      "velocity": 120,
      "chip": "ym2612"
    },
    {
      "channel": 3,
      "note": 55,
      "start": 16.9391,
      "duration": 0.0153,
      "velocity": 120,
      "chip": "ym2612"
    },
    {
      "channel": 2,
      "note": 48,
      "start": 16.9426,
      "duration": 0.0129,
      "velocity": 100,
      "chip": "ym2612"
    },
    {
      "channel": 1,
      "note": 55,
      "start": 16.9512,
      "duration": 0.0161,
      "velocity": 124,
      "chip": "ym2612"
    },
    {
      "channel": 4,
      "note": 60,
      "start": 16.9533,
      "duration": 0.0152,
      "velocity": 120,
      "chip": "ym2612"
    },
    {
      "channel": 3,
      "note": 55,
      "start": 16.9544,
      "duration": 0.0152,
      "velocity": 120,
      "chip": "ym2612"
    },
    {
      "channel": 2,
      "note": 48,
      "start": 16.9555,
      "duration": 0.0153,
      "velocity": 100,
      "chip": "ym2612"
    },
    {
      "channel": 1,
      "note": 53,
      "start": 16.9673,
      "duration": 0.0161,
      "velocity": 124,
      "chip": "ym2612"
    },
    {
      "channel": 4,
      "note": 60,
      "start": 16.9685,
      "duration": 0.0161,
      "velocity": 120,
      "chip": "ym2612"
    },
    {
      "channel": 3,
      "note": 55,
      "start": 16.9696,
      "duration": 0.0161,
      "velocity": 120,
      "chip": "ym2612"
    },
    {
      "channel": 1,
      "note": 52,
      "start": 16.9834,
      "duration": 0.0161,
      "velocity": 124,
      "chip": "ym2612"
    },
    {
      "channel": 4,
      "note": 60,
      "start": 16.9846,
      "duration": 0.0161,
      "velocity": 120,
      "chip": "ym2612"
    },
    {
      "channel": 3,
      "note": 55,
      "start": 16.9857,
      "duration": 0.0161,
      "velocity": 120,
      "chip": "ym2612"
    },
    {
      "channel": 1,
      "note": 51,
      "start": 16.9995,
      "duration": 0.0153,
      "velocity": 1,
      "chip": "ym2612"
    },
    {
      "channel": 4,
      "note": 60,
      "start": 17.0007,
      "duration": 0.0153,
      "velocity": 120,
      "chip": "ym2612"
    },
    {
      "channel": 3,
      "note": 55,
      "start": 17.0018,
      "duration": 0.0153,
      "velocity": 120,
      "chip": "ym2612"
    },
    {
      "channel": 4,
      "note": 60,
      "start": 17.016,
      "duration": 0.0153,
      "velocity": 120,
      "chip": "ym2612"
    },
    {
      "channel": 3,
      "note": 55,
      "start": 17.0172,
      "duration": 0.0153,
      "velocity": 120,
      "chip": "ym2612"
    },
    {
      "channel": 4,
      "note": 60,
      "start": 17.0313,
      "duration": 0.0198,
      "velocity": 120,
      "chip": "ym2612"
    },
    {
      "channel": 3,
      "note": 55,
      "start": 17.0324,
      "duration": 0.02,
      "velocity": 120,
      "chip": "ym2612"
    },
    {
      "channel": 0,
      "note": 36,
      "start": 17.0497,
      "duration": 0.0144,
      "velocity": 115,
      "chip": "ym2612"
    },
    {
      "channel": 4,
      "note": 63,
      "start": 17.0511,
      "duration": 0.0142,
      "velocity": 120,
      "chip": "ym2612"
    },
    {
      "channel": 3,
      "note": 58,
      "start": 17.0525,
      "duration": 0.014,
      "velocity": 120,
      "chip": "ym2612"
    },
    {
      "channel": 2,
      "note": 51,
      "start": 17.0539,
      "duration": 0.0137,
      "velocity": 100,
      "chip": "ym2612"
    },
    {
      "channel": 1,
      "note": 39,
      "start": 17.0554,
      "duration": 0.0134,
      "velocity": 100,
      "chip": "ym2612"
    },
    {
      "channel": 0,
      "note": 36,
      "start": 17.0641,
      "duration": 0.016,
      "velocity": 115,
      "chip": "ym2612"
    },
    {
      "channel": 4,
      "note": 63,
      "start": 17.0653,
      "duration": 0.016,
      "velocity": 120,
      "chip": "ym2612"
    },
    {
      "channel": 3,
      "note": 58,
      "start": 17.0665,
      "duration": 0.0159,
      "velocity": 120,
      "chip": "ym2612"
    },
    {
      "channel": 2,
      "note": 51,
      "start": 17.0676,
      "duration": 0.0159,
      "velocity": 100,
      "chip": "ym2612"
    },
    {
      "channel": 1,
      "note": 39,
      "start": 17.0688,
      "duration": 0.0158,
      "velocity": 100,
      "chip": "ym2612"
    },
    {
      "channel": 0,
      "note": 37,
      "start": 17.0801,
      "duration": 0.0161,
      "velocity": 115,
      "chip": "ym2612"
    },
    {
      "channel": 4,
      "note": 63,
      "start": 17.0812,
      "duration": 0.0161,
      "velocity": 120,
      "chip": "ym2612"
    },
    {
      "channel": 3,
      "note": 58,
      "start": 17.0824,
      "duration": 0.0161,
      "velocity": 120,
      "chip": "ym2612"
    },
    {
      "channel": 2,
      "note": 51,
      "start": 17.0835,
      "duration": 0.0161,
      "velocity": 100,
      "chip": "ym2612"
    },
    {
      "channel": 1,
      "note": 39,
      "start": 17.0846,
      "duration": 0.0161,
      "velocity": 100,
      "chip": "ym2612"
    },
    {
      "channel": 0,
      "note": 37,
      "start": 17.0962,
      "duration": 0.0161,
      "velocity": 115,
      "chip": "ym2612"
    },
    {
      "channel": 4,
      "note": 63,
      "start": 17.0973,
      "duration": 0.0161,
      "velocity": 120,
      "chip": "ym2612"
    },
    {
      "channel": 3,
      "note": 58,
      "start": 17.0985,
      "duration": 0.0161,
      "velocity": 120,
      "chip": "ym2612"
    },
    {
      "channel": 2,
      "note": 51,
      "start": 17.0996,
      "duration": 0.0161,
      "velocity": 100,
      "chip": "ym2612"
    },
    {
      "channel": 1,
      "note": 39,
      "start": 17.1007,
      "duration": 0.0161,
      "velocity": 100,
      "chip": "ym2612"
    },
    {
      "channel": 0,
      "note": 38,
      "start": 17.1123,
      "duration": 0.0161,
      "velocity": 115,
      "chip": "ym2612"
    },
    {
      "channel": 4,
      "note": 63,
      "start": 17.1134,
      "duration": 0.0161,
      "velocity": 120,
      "chip": "ym2612"
    },
    {
      "channel": 3,
      "note": 58,
      "start": 17.1146,
      "duration": 0.0161,
      "velocity": 120,
      "chip": "ym2612"
    },
    {
      "channel": 2,
      "note": 51,
      "start": 17.1157,
      "duration": 0.0161,
      "velocity": 100,
      "chip": "ym2612"
    },
    {
      "channel": 1,
      "note": 39,
      "start": 17.1168,
      "duration": 0.0161,
      "velocity": 100,
      "chip": "ym2612"
    },
    {
      "channel": 0,
      "note": 38,
      "start": 17.1284,
      "duration": 0.0161,
      "velocity": 115,
      "chip": "ym2612"
    },
    {
      "channel": 4,
      "note": 63,
      "start": 17.1295,
      "duration": 0.0161,
      "velocity": 120,
      "chip": "ym2612"
    },
    {
      "channel": 3,
      "note": 58,
      "start": 17.1307,
      "duration": 0.0161,
      "velocity": 120,
      "chip": "ym2612"
    },
    {
      "channel": 2,
      "note": 51,
      "start": 17.1318,
      "duration": 0.0161,
      "velocity": 100,
      "chip": "ym2612"
    },
    {
      "channel": 1,
      "note": 39,
      "start": 17.1329,
      "duration": 0.0161,
      "velocity": 100,
      "chip": "ym2612"
    },
    {
      "channel": 0,
      "note": 39,
      "start": 17.1444,
      "duration": 0.0161,
      "velocity": 115,
      "chip": "ym2612"
    },
    {
      "channel": 4,
      "note": 63,
      "start": 17.1456,
      "duration": 0.0161,
      "velocity": 120,
      "chip": "ym2612"
    },
    {
      "channel": 3,
      "note": 58,
      "start": 17.1467,
      "duration": 0.0161,
      "velocity": 120,
      "chip": "ym2612"
    },
    {
      "channel": 2,
      "note": 51,
      "start": 17.1479,
      "duration": 0.0161,
      "velocity": 100,
      "chip": "ym2612"
    },
    {
      "channel": 1,
      "note": 39,
      "start": 17.149,
      "duration": 0.0161,
      "velocity": 100,
      "chip": "ym2612"
    },
    {
      "channel": 0,
      "note": 39,
      "start": 17.1605,
      "duration": 0.0168,
      "velocity": 115,
      "chip": "ym2612"
    },
    {
      "channel": 4,
      "note": 63,
      "start": 17.1617,
      "duration": 0.0168,
      "velocity": 120,
      "chip": "ym2612"
    },
    {
      "channel": 3,
      "note": 58,
      "start": 17.1628,
      "duration": 0.0168,
      "velocity": 120,
      "chip": "ym2612"
    },
    {
      "channel": 0,
      "note": 40,
      "start": 17.1773,
      "duration": 0.0167,
      "velocity": 115,
      "chip": "ym2612"
    },
    {
      "channel": 4,
      "note": 63,
      "start": 17.1785,
      "duration": 0.0167,
      "velocity": 120,
      "chip": "ym2612"
    },
    {
      "channel": 3,
      "note": 58,
      "start": 17.1796,
      "duration": 0.0167,
      "velocity": 120,
      "chip": "ym2612"
    },
    {
      "channel": 0,
      "note": 40,
      "start": 17.194,
      "duration": 0.0163,
      "velocity": 115,
      "chip": "ym2612"
    },
    {
      "channel": 4,
      "note": 63,
      "start": 17.1951,
      "duration": 0.0163,
      "velocity": 120,
      "chip": "ym2612"
    },
    {
      "channel": 3,
      "note": 58,
      "start": 17.1963,
      "duration": 0.0163,
      "velocity": 120,
      "chip": "ym2612"
    },
    {
      "channel": 0,
      "note": 40,
      "start": 17.2103,
      "duration": 0.0147,
      "velocity": 115,
      "chip": "ym2612"
    },
    {
      "channel": 4,
      "note": 63,
      "start": 17.2114,
      "duration": 0.0147,
      "velocity": 120,
      "chip": "ym2612"
    },
    {
      "channel": 3,
      "note": 58,
      "start": 17.2126,
      "duration": 0.0147,
      "velocity": 120,
      "chip": "ym2612"
    },
    {
      "channel": 0,
      "note": 41,
      "start": 17.225,
      "duration": 0.0188,
      "velocity": 115,
      "chip": "ym2612"
    },
    {
      "channel": 4,
      "note": 63,
      "start": 17.2261,
      "duration": 0.0191,
      "velocity": 120,
      "chip": "ym2612"
    },
    {
      "channel": 3,
      "note": 58,
      "start": 17.2273,
      "duration": 0.0193,
      "velocity": 120,
      "chip": "ym2612"
    },
    {
      "channel": 0,
      "note": 41,
      "start": 17.2438,
      "duration": 0.0161,
      "velocity": 115,
      "chip": "ym2612"
    },
    {
      "channel": 4,
      "note": 60,
      "start": 17.2453,
      "duration": 0.0158,
      "velocity": 120,
      "chip": "ym2612"
    },
    {
      "channel": 3,
      "note": 55,
      "start": 17.2467,
      "duration": 0.0156,
      "velocity": 120,
      "chip": "ym2612"
    },
    {
      "channel": 2,
      "note": 48,
      "start": 17.248,
      "duration": 0.0155,
      "velocity": 100,
      "chip": "ym2612"
    },
    {
      "channel": 1,
      "note": 36,
      "start": 17.2494,
      "duration": 0.0153,
      "velocity": 100,
      "chip": "ym2612"
    },
    {
      "channel": 0,
      "note": 42,
      "start": 17.2599,
      "duration": 0.0158,
      "velocity": 115,
      "chip": "ym2612"
    },
    {
      "channel": 4,
      "note": 60,
      "start": 17.2611,
      "duration": 0.0157,
      "velocity": 120,
      "chip": "ym2612"
    },
    {
      "channel": 3,
      "note": 55,
      "start": 17.2623,
      "duration": 0.0156,
      "velocity": 120,
      "chip": "ym2612"
    },
    {
      "channel": 2,
      "note": 48,
      "start": 17.2635,
      "duration": 0.0156,
      "velocity": 100,
      "chip": "ym2612"
    },
    {
      "channel": 1,
      "note": 36,
      "start": 17.2647,
      "duration": 0.0155,
      "velocity": 100,
      "chip": "ym2612"
    },
    {
      "channel": 0,
      "note": 42,
      "start": 17.2757,
      "duration": 0.014,
      "velocity": 115,
      "chip": "ym2612"
    },
    {
      "channel": 4,
      "note": 60,
      "start": 17.2768,
      "duration": 0.014,
      "velocity": 120,
      "chip": "ym2612"
    },
    {
      "channel": 3,
      "note": 55,
      "start": 17.278,
      "duration": 0.014,
      "velocity": 120,
      "chip": "ym2612"
    },
    {
      "channel": 2,
      "note": 48,
      "start": 17.2791,
      "duration": 0.014,
      "velocity": 100,
      "chip": "ym2612"
    },
    {
      "channel": 1,
      "note": 36,
      "start": 17.2802,
      "duration": 0.0141,
      "velocity": 100,
      "chip": "ym2612"
    },
    {
      "channel": 0,
      "note": 43,
      "start": 17.2897,
      "duration": 0.0158,
      "velocity": 115,
      "chip": "ym2612"
    },
    {
      "channel": 4,
      "note": 60,
      "start": 17.2908,
      "duration": 0.0186,
      "velocity": 120,
      "chip": "ym2612"
    },
    {
      "channel": 3,
      "note": 55,
      "start": 17.292,
      "duration": 0.0186,
      "velocity": 120,
      "chip": "ym2612"
    },
    {
      "channel": 2,
      "note": 48,
      "start": 17.2931,
      "duration": 0.0185,
      "velocity": 100,
      "chip": "ym2612"
    },
    {
      "channel": 1,
      "note": 36,
      "start": 17.2943,
      "duration": 0.0185,
      "velocity": 100,
      "chip": "ym2612"
    },
    {
      "channel": 0,
      "note": 43,
      "start": 17.3055,
      "duration": 0.0161,
      "velocity": 115,
      "chip": "ym2612"
    },
    {
      "channel": 4,
      "note": 60,
      "start": 17.3094,
      "duration": 0.0161,
      "velocity": 120,
      "chip": "ym2612"
    },
    {
      "channel": 3,
      "note": 55,
      "start": 17.3105,
      "duration": 0.0161,
      "velocity": 120,
      "chip": "ym2612"
    },
    {
      "channel": 2,
      "note": 48,
      "start": 17.3116,
      "duration": 0.0161,
      "velocity": 100,
      "chip": "ym2612"
    },
    {
      "channel": 1,
      "note": 36,
      "start": 17.3128,
      "duration": 0.0161,
      "velocity": 100,
      "chip": "ym2612"
    },
    {
      "channel": 0,
      "note": 44,
      "start": 17.3216,
      "duration": 0.0161,
      "velocity": 115,
      "chip": "ym2612"
    },
    {
      "channel": 4,
      "note": 60,
      "start": 17.3255,
      "duration": 0.0134,
      "velocity": 120,
      "chip": "ym2612"
    },
    {
      "channel": 3,
      "note": 55,
      "start": 17.3266,
      "duration": 0.0157,
      "velocity": 120,
      "chip": "ym2612"
    },
    {
      "channel": 2,
      "note": 48,
      "start": 17.3277,
      "duration": 0.0158,
      "velocity": 100,
      "chip": "ym2612"
    },
    {
      "channel": 1,
      "note": 36,
      "start": 17.3289,
      "duration": 0.0158,
      "velocity": 100,
      "chip": "ym2612"
    },
    {
      "channel": 0,
      "note": 44,
      "start": 17.3377,
      "duration": 0.0161,
      "velocity": 115,
      "chip": "ym2612"
    },
    {
      "channel": 4,
      "note": 60,
      "start": 17.3389,
      "duration": 0.0161,
      "velocity": 120,
      "chip": "ym2612"
    },
    {
      "channel": 3,
      "note": 55,
      "start": 17.3424,
      "duration": 0.0141,
      "velocity": 120,
      "chip": "ym2612"
    },
    {
      "channel": 2,
      "note": 48,
      "start": 17.3435,
      "duration": 0.0141,
      "velocity": 100,
      "chip": "ym2612"
    },
    {
      "channel": 1,
      "note": 36,
      "start": 17.3446,
      "duration": 0.0141,
      "velocity": 100,
      "chip": "ym2612"
    },
    {
      "channel": 0,
      "note": 44,
      "start": 17.3538,
      "duration": 0.0161,
      "velocity": 115,
      "chip": "ym2612"
    },
    {
      "channel": 4,
      "note": 60,
      "start": 17.3549,
      "duration": 0.0161,
      "velocity": 120,
      "chip": "ym2612"
    },
    {
      "channel": 3,
      "note": 55,
      "start": 17.3564,
      "duration": 0.0158,
      "velocity": 120,
      "chip": "ym2612"
    },
    {
      "channel": 0,
      "note": 45,
      "start": 17.3699,
      "duration": 0.0161,
      "velocity": 115,
      "chip": "ym2612"
    },
    {
      "channel": 4,
      "note": 60,
      "start": 17.371,
      "duration": 0.0161,
      "velocity": 120,
      "chip": "ym2612"
    },
    {
      "channel": 3,
      "note": 55,
      "start": 17.3722,
      "duration": 0.0161,
      "velocity": 120,
      "chip": "ym2612"
    },
    {
      "channel": 0,
      "note": 45,
      "start": 17.386,
      "duration": 0.0161,
      "velocity": 115,
      "chip": "ym2612"
    },
    {
      "channel": 4,
      "note": 60,
      "start": 17.3871,
      "duration": 0.0161,
      "velocity": 120,
      "chip": "ym2612"
    },
    {
      "channel": 3,
      "note": 55,
      "start": 17.3883,
      "duration": 0.0161,
      "velocity": 120,
      "chip": "ym2612"
    },
    {
      "channel": 0,
      "note": 46,
      "start": 17.4021,
      "duration": 0.0161,
      "velocity": 115,
      "chip": "ym2612"
    },
    {
      "channel": 4,
      "note": 60,
      "start": 17.4032,
      "duration": 0.0161,
      "velocity": 120,
      "chip": "ym2612"
    },
    {
      "channel": 3,
      "note": 55,
      "start": 17.4044,
      "duration": 0.0161,
      "velocity": 120,
      "chip": "ym2612"
    },
    {
      "channel": 0,
      "note": 46,
      "start": 17.4182,
      "duration": 0.0195,
      "velocity": 115,
      "chip": "ym2612"
    },
    {
      "channel": 4,
      "note": 60,
      "start": 17.4193,
      "duration": 0.0198,
      "velocity": 120,
      "chip": "ym2612"
    },
    {
      "channel": 3,
      "note": 55,
      "start": 17.4205,
      "duration": 0.0228,
      "velocity": 120,
      "chip": "ym2612"
    },
    {
      "channel": 1,
      "note": 78,
      "start": 17.436,
      "duration": 0.0144,
      "velocity": 124,
      "chip": "ym2612"
    },
    {
      "channel": 0,
      "note": 47,
      "start": 17.4377,
      "duration": 0.0144,
      "velocity": 115,
      "chip": "ym2612"
    },
    {
      "channel": 4,
      "note": 63,
      "start": 17.4392,
      "duration": 0.0141,
      "velocity": 120,
      "chip": "ym2612"
    },
    {
      "channel": 3,
      "note": 58,
      "start": 17.4433,
      "duration": 0.0112,
      "velocity": 120,
      "chip": "ym2612"
    },
    {
      "channel": 2,
      "note": 51,
      "start": 17.4447,
      "duration": 0.011,
      "velocity": 100,
      "chip": "ym2612"
    },
    {
      "channel": 1,
      "note": 76,
      "start": 17.4504,
      "duration": 0.016,
      "velocity": 124,
      "chip": "ym2612"
    },
    {
      "channel": 0,
      "note": 47,
      "start": 17.4521,
      "duration": 0.0161,
      "velocity": 115,
      "chip": "ym2612"
    },
    {
      "channel": 4,
      "note": 63,
      "start": 17.4533,
      "duration": 0.016,
      "velocity": 120,
      "chip": "ym2612"
    },
    {
      "channel": 3,
      "note": 58,
      "start": 17.4545,
      "duration": 0.016,
      "velocity": 120,
      "chip": "ym2612"
    },
    {
      "channel": 2,
      "note": 51,
      "start": 17.4557,
      "duration": 0.0159,
      "velocity": 100,
      "chip": "ym2612"
    },
    {
      "channel": 1,
      "note": 75,
      "start": 17.4664,
      "duration": 0.0161,
      "velocity": 124,
      "chip": "ym2612"
    },
    {
      "channel": 0,
      "note": 47,
      "start": 17.4682,
      "duration": 0.0161,
      "velocity": 115,
      "chip": "ym2612"
    },
    {
      "channel": 4,
      "note": 63,
      "start": 17.4693,
      "duration": 0.0161,
      "velocity": 120,
      "chip": "ym2612"
    },
    {
      "channel": 3,
      "note": 58,
      "start": 17.4705,
      "duration": 0.0161,
      "velocity": 120,
      "chip": "ym2612"
    },
    {
      "channel": 2,
      "note": 51,
      "start": 17.4716,
      "duration": 0.0161,
      "velocity": 100,
      "chip": "ym2612"
    },
    {
      "channel": 1,
      "note": 74,
      "start": 17.4825,
      "duration": 0.0162,
      "velocity": 124,
      "chip": "ym2612"
    },
    {
      "channel": 0,
      "note": 48,
      "start": 17.4843,
      "duration": 0.0161,
      "velocity": 115,
      "chip": "ym2612"
    },
    {
      "channel": 4,
      "note": 63,
      "start": 17.4854,
      "duration": 0.0161,
      "velocity": 120,
      "chip": "ym2612"
    },
    {
      "channel": 3,
      "note": 58,
      "start": 17.4866,
      "duration": 0.0161,
      "velocity": 120,
      "chip": "ym2612"
    },
    {
      "channel": 2,
      "note": 51,
      "start": 17.4876,
      "duration": 0.0162,
      "velocity": 100,
      "chip": "ym2612"
    },
    {
      "channel": 1,
      "note": 72,
      "start": 17.4987,
      "duration": 0.0161,
      "velocity": 124,
      "chip": "ym2612"
    },
    {
      "channel": 0,
      "note": 48,
      "start": 17.5004,
      "duration": 0.0161,
      "velocity": 115,
      "chip": "ym2612"
    },
    {
      "channel": 4,
      "note": 63,
      "start": 17.5015,
      "duration": 0.0161,
      "velocity": 120,
      "chip": "ym2612"
    },
    {
      "channel": 3,
      "note": 58,
      "start": 17.5027,
      "duration": 0.0161,
      "velocity": 120,
      "chip": "ym2612"
    },
    {
      "channel": 2,
      "note": 51,
      "start": 17.5038,
      "duration": 0.0161,
      "velocity": 100,
      "chip": "ym2612"
    },
    {
      "channel": 1,
      "note": 71,
      "start": 17.5147,
      "duration": 0.0161,
      "velocity": 124,
      "chip": "ym2612"
    },
    {
      "channel": 0,
      "note": 49,
      "start": 17.5165,
      "duration": 0.0153,
      "velocity": 1,
      "chip": "ym2612"
    },
    {
      "channel": 4,
      "note": 63,
      "start": 17.5176,
      "duration": 0.0153,
      "velocity": 120,
      "chip": "ym2612"
    },
    {
      "channel": 3,
      "note": 58,
      "start": 17.5188,
      "duration": 0.0153,
      "velocity": 120,
      "chip": "ym2612"
    },
    {
      "channel": 2,
      "note": 51,
      "start": 17.5199,
      "duration": 0.0153,
      "velocity": 100,
      "chip": "ym2612"
    },
    {
      "channel": 1,
      "note": 70,
      "start": 17.5308,
      "duration": 0.0161,
      "velocity": 124,
      "chip": "ym2612"
    },
    {
      "channel": 4,
      "note": 63,
      "start": 17.5329,
      "duration": 0.0152,
      "velocity": 120,
      "chip": "ym2612"
    },
    {
      "channel": 3,
      "note": 58,
      "start": 17.5341,
      "duration": 0.0152,
      "velocity": 120,
      "chip": "ym2612"
    },
    {
      "channel": 2,
      "note": 51,
      "start": 17.5352,
      "duration": 0.0153,
      "velocity": 100,
      "chip": "ym2612"
    },
    {
      "channel": 1,
      "note": 69,
      "start": 17.5469,
      "duration": 0.0161,
      "velocity": 124,
      "chip": "ym2612"
    },
    {
      "channel": 4,
      "note": 63,
      "start": 17.5481,
      "duration": 0.0161,
      "velocity": 120,
      "chip": "ym2612"
    },
    {
      "channel": 3,
      "note": 58,
      "start": 17.5493,
      "duration": 0.0161,
      "velocity": 120,
      "chip": "ym2612"
    },
    {
      "channel": 1,
      "note": 68,
      "start": 17.563,
      "duration": 0.0161,
      "velocity": 124,
      "chip": "ym2612"
    },
    {
      "channel": 4,
      "note": 63,
      "start": 17.5642,
      "duration": 0.0161,
      "velocity": 120,
      "chip": "ym2612"
    },
    {
      "channel": 3,
      "note": 58,
      "start": 17.5654,
      "duration": 0.0161,
      "velocity": 120,
      "chip": "ym2612"
    },
    {
      "channel": 1,
      "note": 66,
      "start": 17.5791,
      "duration": 0.0161,
      "velocity": 124,
      "chip": "ym2612"
    },
    {
      "channel": 4,
      "note": 63,
      "start": 17.5803,
      "duration": 0.0161,
      "velocity": 120,
      "chip": "ym2612"
    },
    {
      "channel": 3,
      "note": 58,
      "start": 17.5815,
      "duration": 0.0161,
      "velocity": 120,
      "chip": "ym2612"
    },
    {
      "channel": 1,
      "note": 65,
      "start": 17.5952,
      "duration": 0.0161,
      "velocity": 124,
      "chip": "ym2612"
    },
    {
      "channel": 4,
      "note": 63,
      "start": 17.5965,
      "duration": 0.0161,
      "velocity": 120,
      "chip": "ym2612"
    },
    {
      "channel": 3,
      "note": 58,
      "start": 17.5976,
      "duration": 0.0161,
      "velocity": 120,
      "chip": "ym2612"
    },
    {
      "channel": 1,
      "note": 64,
      "start": 17.6113,
      "duration": 0.0161,
      "velocity": 124,
      "chip": "ym2612"
    },
    {
      "channel": 4,
      "note": 63,
      "start": 17.6126,
      "duration": 0.0161,
      "velocity": 120,
      "chip": "ym2612"
    },
    {
      "channel": 3,
      "note": 58,
      "start": 17.6137,
      "duration": 0.0161,
      "velocity": 120,
      "chip": "ym2612"
    },
    {
      "channel": 1,
      "note": 62,
      "start": 17.6274,
      "duration": 0.0165,
      "velocity": 124,
      "chip": "ym2612"
    },
    {
      "channel": 4,
      "note": 63,
      "start": 17.6287,
      "duration": 0.0165,
      "velocity": 120,
      "chip": "ym2612"
    },
    {
      "channel": 3,
      "note": 58,
      "start": 17.6298,
      "duration": 0.0165,
      "velocity": 120,
      "chip": "ym2612"
    },
    {
      "channel": 2,
      "note": 51,
      "start": 17.6312,
      "duration": 0.0162,
      "velocity": 100,
      "chip": "ym2612"
    },
    {
      "channel": 1,
      "note": 61,
      "start": 17.6439,
      "duration": 0.0167,
      "velocity": 124,
      "chip": "ym2612"
    },
    {
      "channel": 4,
      "note": 63,
      "start": 17.6451,
      "duration": 0.0167,
      "velocity": 120,
      "chip": "ym2612"
    },
    {
      "channel": 3,
      "note": 58,
      "start": 17.6463,
      "duration": 0.0166,
      "velocity": 120,
      "chip": "ym2612"
    },
    {
      "channel": 2,
      "note": 51,
      "start": 17.6474,
      "duration": 0.0166,
      "velocity": 100,
      "chip": "ym2612"
    },
    {
      "channel": 1,
      "note": 60,
      "start": 17.6605,
      "duration": 0.0163,
      "velocity": 124,
      "chip": "ym2612"
    },
    {
      "channel": 4,
      "note": 63,
      "start": 17.6618,
      "duration": 0.0163,
      "velocity": 120,
      "chip": "ym2612"
    },
    {
      "channel": 3,
      "note": 58,
      "start": 17.6629,
      "duration": 0.0163,
      "velocity": 120,
      "chip": "ym2612"
    },
    {
      "channel": 2,
      "note": 51,
      "start": 17.6641,
      "duration": 0.0163,
      "velocity": 100,
      "chip": "ym2612"
    },
    {
      "channel": 1,
      "note": 59,
      "start": 17.6769,
      "duration": 0.0149,
      "velocity": 124,
      "chip": "ym2612"
    },
    {
      "channel": 4,
      "note": 63,
      "start": 17.6781,
      "duration": 0.015,
      "velocity": 120,
      "chip": "ym2612"
    },
    {
      "channel": 3,
      "note": 58,
      "start": 17.6793,
      "duration": 0.0149,
      "velocity": 120,
      "chip": "ym2612"
    },
    {
      "channel": 2,
      "note": 51,
      "start": 17.6804,
      "duration": 0.015,
      "velocity": 100,
      "chip": "ym2612"
    },
    {
      "channel": 1,
      "note": 57,
      "start": 17.6918,
      "duration": 0.0187,
      "velocity": 124,
      "chip": "ym2612"
    },
    {
      "channel": 4,
      "note": 63,
      "start": 17.6931,
      "duration": 0.0188,
      "velocity": 120,
      "chip": "ym2612"
    },
    {
      "channel": 3,
      "note": 58,
      "start": 17.6942,
      "duration": 0.0187,
      "velocity": 120,
      "chip": "ym2612"
    },
    {
      "channel": 2,
      "note": 51,
      "start": 17.6954,
      "duration": 0.0187,
      "velocity": 100,
      "chip": "ym2612"
    },
    {
      "channel": 1,
      "note": 56,
      "start": 17.7105,
      "duration": 0.0162,
      "velocity": 124,
      "chip": "ym2612"
    },
    {
      "channel": 4,
      "note": 63,
      "start": 17.7118,
      "duration": 0.0162,
      "velocity": 120,
      "chip": "ym2612"
    },
    {
      "channel": 3,
      "note": 58,
      "start": 17.7129,
      "duration": 0.0163,
      "velocity": 120,
      "chip": "ym2612"
    },
    {
      "channel": 2,
      "note": 51,
      "start": 17.7141,
      "duration": 0.0162,
      "velocity": 100,
      "chip": "ym2612"
    },
    {
      "channel": 1,
      "note": 55,
      "start": 17.7268,
      "duration": 0.0158,
      "velocity": 124,
      "chip": "ym2612"
    },
    {
      "channel": 4,
      "note": 63,
      "start": 17.728,
      "duration": 0.0157,
      "velocity": 120,
      "chip": "ym2612"
    },
    {
      "channel": 3,
      "note": 58,
      "start": 17.7292,
      "duration": 0.0157,
      "velocity": 120,
      "chip": "ym2612"
    },
    {
      "channel": 2,
      "note": 51,
      "start": 17.7303,
      "duration": 0.0158,
      "velocity": 100,
      "chip": "ym2612"
    },
    {
      "channel": 1,
      "note": 53,
      "start": 17.7425,
      "duration": 0.014,
      "velocity": 124,
      "chip": "ym2612"
    },
    {
      "channel": 4,
      "note": 63,
      "start": 17.7438,
      "duration": 0.0141,
      "velocity": 120,
      "chip": "ym2612"
    },
    {
      "channel": 3,
      "note": 58,
      "start": 17.7449,
      "duration": 0.0141,
      "velocity": 120,
      "chip": "ym2612"
    },
    {
      "channel": 1,
      "note": 52,
      "start": 17.7565,
      "duration": 0.0158,
      "velocity": 124,
      "chip": "ym2612"
    },
    {
      "channel": 4,
      "note": 63,
      "start": 17.7578,
      "duration": 0.0185,
      "velocity": 120,
      "chip": "ym2612"
    },
    {
      "channel": 3,
      "note": 58,
      "start": 17.759,
      "duration": 0.0185,
      "velocity": 120,
      "chip": "ym2612"
    },
    {
      "channel": 1,
      "note": 51,
      "start": 17.7723,
      "duration": 0.0153,
      "velocity": 1,
      "chip": "ym2612"
    },
    {
      "channel": 4,
      "note": 63,
      "start": 17.7763,
      "duration": 0.0125,
      "velocity": 120,
      "chip": "ym2612"
    },
    {
      "channel": 3,
      "note": 58,
      "start": 17.7775,
      "duration": 0.0153,
      "velocity": 120,
      "chip": "ym2612"
    },
    {
      "channel": 4,
      "note": 63,
      "start": 17.7889,
      "duration": 0.0153,
      "velocity": 120,
      "chip": "ym2612"
    },
    {
      "channel": 3,
      "note": 58,
      "start": 17.7927,
      "duration": 0.0125,
      "velocity": 120,
      "chip": "ym2612"
    },
    {
      "channel": 4,
      "note": 63,
      "start": 17.8041,
      "duration": 0.0198,
      "velocity": 120,
      "chip": "ym2612"
    },
    {
      "channel": 3,
      "note": 58,
      "start": 17.8053,
      "duration": 0.0199,
      "velocity": 120,
      "chip": "ym2612"
    },
    {
      "channel": 1,
      "note": 78,
      "start": 17.8224,
      "duration": 0.0144,
      "velocity": 124,
      "chip": "ym2612"
    },
    {
      "channel": 4,
      "note": 63,
      "start": 17.824,
      "duration": 0.0141,
      "velocity": 120,
      "chip": "ym2612"
    },
    {
      "channel": 3,
      "note": 58,
      "start": 17.8251,
      "duration": 0.0141,
      "velocity": 120,
      "chip": "ym2612"
    },
    {
      "channel": 2,
      "note": 51,
      "start": 17.8265,
      "duration": 0.0166,
      "velocity": 100,
      "chip": "ym2612"
    },
    {
      "channel": 1,
      "note": 76,
      "start": 17.8368,
      "duration": 0.016,
      "velocity": 124,
      "chip": "ym2612"
    },
    {
      "channel": 4,
      "note": 63,
      "start": 17.838,
      "duration": 0.016,
      "velocity": 120,
      "chip": "ym2612"
    },
    {
      "channel": 3,
      "note": 58,
      "start": 17.8392,
      "duration": 0.016,
      "velocity": 120,
      "chip": "ym2612"
    },
    {
      "channel": 2,
      "note": 51,
      "start": 17.8431,
      "duration": 0.016,
      "velocity": 100,
      "chip": "ym2612"
    },
    {
      "channel": 1,
      "note": 75,
      "start": 17.8529,
      "duration": 0.0161,
      "velocity": 124,
      "chip": "ym2612"
    },
    {
      "channel": 4,
      "note": 63,
      "start": 17.8541,
      "duration": 0.0161,
      "velocity": 120,
      "chip": "ym2612"
    },
    {
      "channel": 3,
      "note": 58,
      "start": 17.8552,
      "duration": 0.0161,
      "velocity": 120,
      "chip": "ym2612"
    },
    {
      "channel": 2,
      "note": 51,
      "start": 17.8591,
      "duration": 0.0134,
      "velocity": 100,
      "chip": "ym2612"
    },
    {
      "channel": 1,
      "note": 74,
      "start": 17.869,
      "duration": 0.0161,
      "velocity": 124,
      "chip": "ym2612"
    },
    {
      "channel": 4,
      "note": 63,
      "start": 17.8702,
      "duration": 0.0161,
      "velocity": 120,
      "chip": "ym2612"
    },
    {
      "channel": 3,
      "note": 58,
      "start": 17.8713,
      "duration": 0.0161,
      "velocity": 120,
      "chip": "ym2612"
    },
    {
      "channel": 2,
      "note": 51,
      "start": 17.8724,
      "duration": 0.0161,
      "velocity": 100,
      "chip": "ym2612"
    },
    {
      "channel": 1,
      "note": 72,
      "start": 17.885,
      "duration": 0.0161,
      "velocity": 124,
      "chip": "ym2612"
    },
    {
      "channel": 4,
      "note": 63,
      "start": 17.8863,
      "duration": 0.0161,
      "velocity": 120,
      "chip": "ym2612"
    },
    {
      "channel": 3,
      "note": 58,
      "start": 17.8874,
      "duration": 0.0162,
      "velocity": 120,
      "chip": "ym2612"
    },
    {
      "channel": 2,
      "note": 51,
      "start": 17.8885,
      "duration": 0.0161,
      "velocity": 100,
      "chip": "ym2612"
    },
    {
      "channel": 1,
      "note": 71,
      "start": 17.9011,
      "duration": 0.0179,
      "velocity": 124,
      "chip": "ym2612"
    },
    {
      "channel": 4,
      "note": 63,
      "start": 17.9024,
      "duration": 0.0179,
      "velocity": 120,
      "chip": "ym2612"
    },
    {
      "channel": 3,
      "note": 58,
      "start": 17.9036,
      "duration": 0.0179,
      "velocity": 120,
      "chip": "ym2612"
    },
    {
      "channel": 2,
      "note": 51,
      "start": 17.9046,
      "duration": 0.0179,
      "velocity": 100,
      "chip": "ym2612"
    },
    {
      "channel": 1,
      "note": 78,
      "start": 17.9191,
      "duration": 0.0143,
      "velocity": 124,
      "chip": "ym2612"
    },
    {
      "channel": 4,
      "note": 63,
      "start": 17.9203,
      "duration": 0.0144,
      "velocity": 120,
      "chip": "ym2612"
    },
    {
      "channel": 3,
      "note": 58,
      "start": 17.9214,
      "duration": 0.0144,
      "velocity": 120,
      "chip": "ym2612"
    },
    {
      "channel": 2,
      "note": 51,
      "start": 17.9225,
      "duration": 0.0144,
      "velocity": 100,
      "chip": "ym2612"
    },
    {
      "channel": 1,
      "note": 76,
      "start": 17.9334,
      "duration": 0.0161,
      "velocity": 124,
      "chip": "ym2612"
    },
    {
      "channel": 4,
      "note": 63,
      "start": 17.9346,
      "duration": 0.016,
      "velocity": 120,
      "chip": "ym2612"
    },
    {
      "channel": 3,
      "note": 58,
      "start": 17.9358,
      "duration": 0.016,
      "velocity": 120,
      "chip": "ym2612"
    },
    {
      "channel": 1,
      "note": 75,
      "start": 17.9495,
      "duration": 0.0161,
      "velocity": 124,
      "chip": "ym2612"
    },
    {
      "channel": 4,
      "note": 63,
      "start": 17.9507,
      "duration": 0.0161,
      "velocity": 120,
      "chip": "ym2612"
    },
    {
      "channel": 3,
      "note": 58,
      "start": 17.9518,
      "duration": 0.0161,
      "velocity": 120,
      "chip": "ym2612"
    },
    {
      "channel": 1,
      "note": 74,
      "start": 17.9656,
      "duration": 0.0161,
      "velocity": 124,
      "chip": "ym2612"
    },
    {
      "channel": 4,
      "note": 63,
      "start": 17.9668,
      "duration": 0.0161,
      "velocity": 120,
      "chip": "ym2612"
    },
    {
      "channel": 3,
      "note": 58,
      "start": 17.9679,
      "duration": 0.0161,
      "velocity": 120,
      "chip": "ym2612"
    },
    {
      "channel": 1,
      "note": 72,
      "start": 17.9817,
      "duration": 0.0161,
      "velocity": 124,
      "chip": "ym2612"
    },
    {
      "channel": 4,
      "note": 63,
      "start": 17.9829,
      "duration": 0.0161,
      "velocity": 120,
      "chip": "ym2612"
    },
    {
      "channel": 3,
      "note": 58,
      "start": 17.984,
      "duration": 0.0161,
      "velocity": 120,
      "chip": "ym2612"
    },
    {
      "channel": 1,
      "note": 71,
      "start": 17.9978,
      "duration": 0.0179,
      "velocity": 124,
      "chip": "ym2612"
    },
    {
      "channel": 4,
      "note": 63,
      "start": 17.999,
      "duration": 0.0179,
      "velocity": 120,
      "chip": "ym2612"
    },
    {
      "channel": 3,
      "note": 58,
      "start": 18.0001,
      "duration": 0.0179,
      "velocity": 120,
      "chip": "ym2612"
    },
    {
      "channel": 1,
      "note": 78,
      "start": 18.0156,
      "duration": 0.0144,
      "velocity": 124,
      "chip": "ym2612"
    },
    {
      "channel": 4,
      "note": 63,
      "start": 18.0169,
      "duration": 0.0143,
      "velocity": 120,
      "chip": "ym2612"
    },
    {
      "channel": 3,
      "note": 58,
      "start": 18.018,
      "duration": 0.0143,
      "velocity": 120,
      "chip": "ym2612"
    },
    {
      "channel": 2,
      "note": 51,
      "start": 18.0195,
      "duration": 0.0141,
      "velocity": 100,
      "chip": "ym2612"
    },
    {
      "channel": 1,
      "note": 76,
      "start": 18.03,
      "duration": 0.016,
      "velocity": 124,
      "chip": "ym2612"
    },
    {
      "channel": 4,
      "note": 63,
      "start": 18.0312,
      "duration": 0.0161,
      "velocity": 120,
      "chip": "ym2612"
    },
    {
      "channel": 3,
      "note": 58,
      "start": 18.0324,
      "duration": 0.0161,
      "velocity": 120,
      "chip": "ym2612"
    },
    {
      "channel": 2,
      "note": 51,
      "start": 18.0336,
      "duration": 0.016,
      "velocity": 100,
      "chip": "ym2612"
    },
    {
      "channel": 1,
      "note": 75,
      "start": 18.0461,
      "duration": 0.0161,
      "velocity": 124,
      "chip": "ym2612"
    },
    {
      "channel": 4,
      "note": 63,
      "start": 18.0473,
      "duration": 0.0161,
      "velocity": 120,
      "chip": "ym2612"
    },
    {
      "channel": 3,
      "note": 58,
      "start": 18.0485,
      "duration": 0.0161,
      "velocity": 120,
      "chip": "ym2612"
    },
    {
      "channel": 2,
      "note": 51,
      "start": 18.0495,
      "duration": 0.0161,
      "velocity": 100,
      "chip": "ym2612"
    },
    {
      "channel": 1,
      "note": 74,
      "start": 18.0621,
      "duration": 0.0161,
      "velocity": 124,
      "chip": "ym2612"
    },
    {
      "channel": 4,
      "note": 63,
      "start": 18.0634,
      "duration": 0.0161,
      "velocity": 120,
      "chip": "ym2612"
    },
    {
      "channel": 3,
      "note": 58,
      "start": 18.0646,
      "duration": 0.0161,
      "velocity": 120,
      "chip": "ym2612"
    },
    {
      "channel": 2,
      "note": 51,
      "start": 18.0656,
      "duration": 0.0161,
      "velocity": 100,
      "chip": "ym2612"
    },
    {
      "channel": 1,
      "note": 72,
      "start": 18.0782,
      "duration": 0.0162,
      "velocity": 124,
      "chip": "ym2612"
    },
    {
      "channel": 4,
      "note": 63,
      "start": 18.0795,
      "duration": 0.0161,
      "velocity": 120,
      "chip": "ym2612"
    },
    {
      "channel": 3,
      "note": 58,
      "start": 18.0807,
      "duration": 0.0161,
      "velocity": 120,
      "chip": "ym2612"
    },
    {
      "channel": 2,
      "note": 51,
      "start": 18.0817,
      "duration": 0.0162,
      "velocity": 100,
      "chip": "ym2612"
    },
    {
      "channel": 1,
      "note": 71,
      "start": 18.0944,
      "duration": 0.0161,
      "velocity": 124,
      "chip": "ym2612"
    },
    {
      "channel": 4,
      "note": 63,
      "start": 18.0956,
      "duration": 0.0162,
      "velocity": 120,
      "chip": "ym2612"
    },
    {
      "channel": 3,
      "note": 58,
      "start": 18.0967,
      "duration": 0.0162,
      "velocity": 120,
      "chip": "ym2612"
    },
    {
      "channel": 2,
      "note": 51,
      "start": 18.0979,
      "duration": 0.0162,
      "velocity": 100,
      "chip": "ym2612"
    },
    {
      "channel": 1,
      "note": 70,
      "start": 18.1105,
      "duration": 0.0167,
      "velocity": 124,
      "chip": "ym2612"
    },
    {
      "channel": 4,
      "note": 63,
      "start": 18.1118,
      "duration": 0.0167,
      "velocity": 120,
      "chip": "ym2612"
    },
    {
      "channel": 3,
      "note": 58,
      "start": 18.113,
      "duration": 0.0167,
      "velocity": 120,
      "chip": "ym2612"
    },
    {
      "channel": 2,
      "note": 51,
      "start": 18.1141,
      "duration": 0.0167,
      "velocity": 100,
      "chip": "ym2612"
    },
    {
      "channel": 1,
      "note": 69,
      "start": 18.1272,
      "duration": 0.0163,
      "velocity": 124,
      "chip": "ym2612"
    },
    {
      "channel": 4,
      "note": 63,
      "start": 18.1285,
      "duration": 0.0163,
      "velocity": 120,
      "chip": "ym2612"
    },
    {
      "channel": 3,
      "note": 58,
      "start": 18.1296,
      "duration": 0.0163,
      "velocity": 120,
      "chip": "ym2612"
    },
    {
      "channel": 1,
      "note": 68,
      "start": 18.1436,
      "duration": 0.0152,
      "velocity": 124,
      "chip": "ym2612"
    },
    {
      "channel": 4,
      "note": 63,
      "start": 18.1448,
      "duration": 0.0152,
      "velocity": 120,
      "chip": "ym2612"
    },
    {
      "channel": 3,
      "note": 58,
      "start": 18.1459,
      "duration": 0.0152,
      "velocity": 120,
      "chip": "ym2612"
    },
    {
      "channel": 1,
      "note": 66,
      "start": 18.1588,
      "duration": 0.0185,
      "velocity": 124,
      "chip": "ym2612"
    },
    {
      "channel": 4,
      "note": 63,
      "start": 18.16,
      "duration": 0.0185,
      "velocity": 120,
      "chip": "ym2612"
    },
    {
      "channel": 3,
      "note": 58,
      "start": 18.1611,
      "duration": 0.0185,
      "velocity": 120,
      "chip": "ym2612"
    },
    {
      "channel": 1,
      "note": 65,
      "start": 18.1773,
      "duration": 0.0164,
      "velocity": 124,
      "chip": "ym2612"
    },
    {
      "channel": 4,
      "note": 63,
      "start": 18.1785,
      "duration": 0.0165,
      "velocity": 120,
      "chip": "ym2612"
    },
    {
      "channel": 3,
      "note": 58,
      "start": 18.1796,
      "duration": 0.0165,
      "velocity": 120,
      "chip": "ym2612"
    },
    {
      "channel": 1,
      "note": 64,
      "start": 18.1937,
      "duration": 0.0176,
      "velocity": 124,
      "chip": "ym2612"
    },
    {
      "channel": 4,
      "note": 63,
      "start": 18.195,
      "duration": 0.0176,
      "velocity": 120,
      "chip": "ym2612"
    },
    {
      "channel": 3,
      "note": 58,
      "start": 18.1961,
      "duration": 0.0176,
      "velocity": 120,
      "chip": "ym2612"
    },
    {
      "channel": 1,
      "note": 78,
      "start": 18.2112,
      "duration": 0.0123,
      "velocity": 124,
      "chip": "ym2612"
    },
    {
      "channel": 4,
      "note": 63,
      "start": 18.2125,
      "duration": 0.0123,
      "velocity": 120,
      "chip": "ym2612"
    },
    {
      "channel": 3,
      "note": 58,
      "start": 18.2137,
      "duration": 0.0123,
      "velocity": 120,
      "chip": "ym2612"
    },
    {
      "channel": 2,
      "note": 51,
      "start": 18.2151,
      "duration": 0.012,
      "velocity": 100,
      "chip": "ym2612"
    },
    {
      "channel": 1,
      "note": 76,
      "start": 18.2235,
      "duration": 0.0185,
      "velocity": 124,
      "chip": "ym2612"
    },
    {
      "channel": 4,
      "note": 63,
      "start": 18.2248,
      "duration": 0.0184,
      "velocity": 120,
      "chip": "ym2612"
    },
    {
      "channel": 3,
      "note": 58,
      "start": 18.2259,
      "duration": 0.0185,
      "velocity": 120,
      "chip": "ym2612"
    },
    {
      "channel": 2,
      "note": 51,
      "start": 18.2271,
      "duration": 0.0184,
      "velocity": 100,
      "chip": "ym2612"
    },
    {
      "channel": 1,
      "note": 75,
      "start": 18.242,
      "duration": 0.0134,
      "velocity": 124,
      "chip": "ym2612"
    },
    {
      "channel": 4,
      "note": 63,
      "start": 18.2432,
      "duration": 0.0162,
      "velocity": 120,
      "chip": "ym2612"
    },
    {
      "channel": 3,
      "note": 58,
      "start": 18.2444,
      "duration": 0.0161,
      "velocity": 120,
      "chip": "ym2612"
    },
    {
      "channel": 2,
      "note": 51,
      "start": 18.2455,
      "duration": 0.0161,
      "velocity": 100,
      "chip": "ym2612"
    },
    {
      "channel": 1,
      "note": 74,
      "start": 18.2554,
      "duration": 0.0161,
      "velocity": 124,
      "chip": "ym2612"
    },
    {
      "channel": 4,
      "note": 63,
      "start": 18.2594,
      "duration": 0.0157,
      "velocity": 120,
      "chip": "ym2612"
    },
    {
      "channel": 3,
      "note": 58,
      "start": 18.2605,
      "duration": 0.0158,
      "velocity": 120,
      "chip": "ym2612"
    },
    {
      "channel": 2,
      "note": 51,
      "start": 18.2616,
      "duration": 0.0158,
      "velocity": 100,
      "chip": "ym2612"
    },
    {
      "channel": 1,
      "note": 72,
      "start": 18.2715,
      "duration": 0.0161,
      "velocity": 124,
      "chip": "ym2612"
    },
    {
      "channel": 4,
      "note": 63,
      "start": 18.2751,
      "duration": 0.0137,
      "velocity": 120,
      "chip": "ym2612"
    },
    {
      "channel": 3,
      "note": 58,
      "start": 18.2763,
      "duration": 0.014,
      "velocity": 120,
      "chip": "ym2612"
    },
    {
      "channel": 2,
      "note": 51,
      "start": 18.2774,
      "duration": 0.014,
      "velocity": 100,
      "chip": "ym2612"
    },
    {
      "channel": 1,
      "note": 71,
      "start": 18.2876,
      "duration": 0.0179,
      "velocity": 124,
      "chip": "ym2612"
    },
    {
      "channel": 4,
      "note": 63,
      "start": 18.2888,
      "duration": 0.0207,
      "velocity": 120,
      "chip": "ym2612"
    },
    {
      "channel": 3,
      "note": 58,
      "start": 18.2902,
      "duration": 0.0204,
      "velocity": 120,
      "chip": "ym2612"
    },
    {
      "channel": 2,
      "note": 51,
      "start": 18.2914,
      "duration": 0.0204,
      "velocity": 100,
      "chip": "ym2612"
    },
    {
      "channel": 1,
      "note": 78,
      "start": 18.3055,
      "duration": 0.0144,
      "velocity": 124,
      "chip": "ym2612"
    },
    {
      "channel": 4,
      "note": 63,
      "start": 18.3095,
      "duration": 0.0116,
      "velocity": 120,
      "chip": "ym2612"
    },
    {
      "channel": 3,
      "note": 58,
      "start": 18.3106,
      "duration": 0.0116,
      "velocity": 120,
      "chip": "ym2612"
    },
    {
      "channel": 2,
      "note": 51,
      "start": 18.3118,
      "duration": 0.0143,
      "velocity": 100,
      "chip": "ym2612"
    },
    {
      "channel": 1,
      "note": 76,
      "start": 18.3198,
      "duration": 0.016,
      "velocity": 124,
      "chip": "ym2612"
    },
    {
      "channel": 4,
      "note": 63,
      "start": 18.321,
      "duration": 0.016,
      "velocity": 120,
      "chip": "ym2612"
    },
    {
      "channel": 3,
      "note": 58,
      "start": 18.3222,
      "duration": 0.016,
      "velocity": 120,
      "chip": "ym2612"
    },
    {
      "channel": 1,
      "note": 75,
      "start": 18.3359,
      "duration": 0.0161,
      "velocity": 124,
      "chip": "ym2612"
    },
    {
      "channel": 4,
      "note": 63,
      "start": 18.3371,
      "duration": 0.0162,
      "velocity": 120,
      "chip": "ym2612"
    },
    {
      "channel": 3,
      "note": 58,
      "start": 18.3382,
      "duration": 0.0161,
      "velocity": 120,
      "chip": "ym2612"
    },
    {
      "channel": 1,
      "note": 74,
      "start": 18.352,
      "duration": 0.0161,
      "velocity": 124,
      "chip": "ym2612"
    },
    {
      "channel": 4,
      "note": 63,
      "start": 18.3532,
      "duration": 0.0161,
      "velocity": 120,
      "chip": "ym2612"
    },
    {
      "channel": 3,
      "note": 58,
      "start": 18.3544,
      "duration": 0.0161,
      "velocity": 120,
      "chip": "ym2612"
    },
    {
      "channel": 1,
      "note": 72,
      "start": 18.368,
      "duration": 0.0162,
      "velocity": 124,
      "chip": "ym2612"
    },
    {
      "channel": 4,
      "note": 63,
      "start": 18.3693,
      "duration": 0.0161,
      "velocity": 120,
      "chip": "ym2612"
    },
    {
      "channel": 3,
      "note": 58,
      "start": 18.3705,
      "duration": 0.0161,
      "velocity": 120,
      "chip": "ym2612"
    },
    {
      "channel": 1,
      "note": 71,
      "start": 18.3842,
      "duration": 0.0178,
      "velocity": 124,
      "chip": "ym2612"
    },
    {
      "channel": 4,
      "note": 63,
      "start": 18.3854,
      "duration": 0.0179,
      "velocity": 120,
      "chip": "ym2612"
    },
    {
      "channel": 3,
      "note": 58,
      "start": 18.3866,
      "duration": 0.0179,
      "velocity": 120,
      "chip": "ym2612"
    },
    {
      "channel": 1,
      "note": 78,
      "start": 18.4021,
      "duration": 0.0144,
      "velocity": 124,
      "chip": "ym2612"
    },
    {
      "channel": 4,
      "note": 63,
      "start": 18.4033,
      "duration": 0.0144,
      "velocity": 120,
      "chip": "ym2612"
    },
    {
      "channel": 3,
      "note": 58,
      "start": 18.4044,
      "duration": 0.0144,
      "velocity": 120,
      "chip": "ym2612"
    },
    {
      "channel": 2,
      "note": 51,
      "start": 18.4059,
      "duration": 0.0142,
      "velocity": 100,
      "chip": "ym2612"
    },
    {
      "channel": 1,
      "note": 76,
      "start": 18.4165,
      "duration": 0.016,
      "velocity": 124,
      "chip": "ym2612"
    },
    {
      "channel": 4,
      "note": 63,
      "start": 18.4177,
      "duration": 0.016,
      "velocity": 120,
      "chip": "ym2612"
    },
    {
      "channel": 3,
      "note": 58,
      "start": 18.4188,
      "duration": 0.016,
      "velocity": 120,
      "chip": "ym2612"
    },
    {
      "channel": 2,
      "note": 51,
      "start": 18.42,
      "duration": 0.016,
      "velocity": 100,
      "chip": "ym2612"
    },
    {
      "channel": 1,
      "note": 75,
      "start": 18.4325,
      "duration": 0.0161,
      "velocity": 124,
      "chip": "ym2612"
    },
    {
      "channel": 4,
      "note": 63,
      "start": 18.4337,
      "duration": 0.0161,
      "velocity": 120,
      "chip": "ym2612"
    },
    {
      "channel": 3,
      "note": 58,
      "start": 18.4349,
      "duration": 0.0161,
      "velocity": 120,
      "chip": "ym2612"
    },
    {
      "channel": 2,
      "note": 51,
      "start": 18.436,
      "duration": 0.0161,
      "velocity": 100,
      "chip": "ym2612"
    },
    {
      "channel": 1,
      "note": 74,
      "start": 18.4486,
      "duration": 0.0161,
      "velocity": 124,
      "chip": "ym2612"
    },
    {
      "channel": 4,
      "note": 63,
      "start": 18.4498,
      "duration": 0.0161,
      "velocity": 120,
      "chip": "ym2612"
    },
    {
      "channel": 3,
      "note": 58,
      "start": 18.451,
      "duration": 0.0161,
      "velocity": 120,
      "chip": "ym2612"
    },
    {
      "channel": 2,
      "note": 51,
      "start": 18.4521,
      "duration": 0.0161,
      "velocity": 100,
      "chip": "ym2612"
    },
    {
      "channel": 1,
      "note": 72,
      "start": 18.4647,
      "duration": 0.0161,
      "velocity": 124,
      "chip": "ym2612"
    },
    {
      "channel": 4,
      "note": 63,
      "start": 18.4659,
      "duration": 0.0161,
      "velocity": 120,
      "chip": "ym2612"
    },
    {
      "channel": 3,
      "note": 58,
      "start": 18.467,
      "duration": 0.0161,
      "velocity": 120,
      "chip": "ym2612"
    },
    {
      "channel": 2,
      "note": 51,
      "start": 18.4682,
      "duration": 0.0161,
      "velocity": 100,
      "chip": "ym2612"
    },
    {
      "channel": 1,
      "note": 71,
      "start": 18.4808,
      "duration": 0.0161,
      "velocity": 124,
      "chip": "ym2612"
    },
    {
      "channel": 4,
      "note": 63,
      "start": 18.482,
      "duration": 0.0161,
      "velocity": 120,
      "chip": "ym2612"
    },
    {
      "channel": 3,
      "note": 58,
      "start": 18.4831,
      "duration": 0.0162,
      "velocity": 120,
      "chip": "ym2612"
    },
    {
      "channel": 2,
      "note": 51,
      "start": 18.4843,
      "duration": 0.0161,
      "velocity": 100,
      "chip": "ym2612"
    },
    {
      "channel": 1,
      "note": 70,
      "start": 18.4969,
      "duration": 0.0161,
      "velocity": 124,
      "chip": "ym2612"
    },
    {
      "channel": 4,
      "note": 63,
      "start": 18.4981,
      "duration": 0.0161,
      "velocity": 120,
      "chip": "ym2612"
    },
    {
      "channel": 3,
      "note": 58,
      "start": 18.4993,
      "duration": 0.0161,
      "velocity": 120,
      "chip": "ym2612"
    },
    {
      "channel": 2,
      "note": 51,
      "start": 18.5004,
      "duration": 0.0162,
      "velocity": 100,
      "chip": "ym2612"
    },
    {
      "channel": 1,
      "note": 69,
      "start": 18.513,
      "duration": 0.0161,
      "velocity": 124,
      "chip": "ym2612"
    },
    {
      "channel": 4,
      "note": 63,
      "start": 18.5142,
      "duration": 0.0161,
      "velocity": 120,
      "chip": "ym2612"
    },
    {
      "channel": 3,
      "note": 58,
      "start": 18.5154,
      "duration": 0.0161,
      "velocity": 120,
      "chip": "ym2612"
    },
    {
      "channel": 1,
      "note": 68,
      "start": 18.5291,
      "duration": 0.0161,
      "velocity": 124,
      "chip": "ym2612"
    },
    {
      "channel": 4,
      "note": 63,
      "start": 18.5303,
      "duration": 0.0161,
      "velocity": 120,
      "chip": "ym2612"
    },
    {
      "channel": 3,
      "note": 58,
      "start": 18.5315,
      "duration": 0.0161,
      "velocity": 120,
      "chip": "ym2612"
    },
    {
      "channel": 1,
      "note": 66,
      "start": 18.5452,
      "duration": 0.0161,
      "velocity": 124,
      "chip": "ym2612"
    },
    {
      "channel": 4,
      "note": 63,
      "start": 18.5464,
      "duration": 0.0161,
      "velocity": 120,
      "chip": "ym2612"
    },
    {
      "channel": 3,
      "note": 58,
      "start": 18.5476,
      "duration": 0.0161,
      "velocity": 120,
      "chip": "ym2612"
    },
    {
      "channel": 1,
      "note": 65,
      "start": 18.5613,
      "duration": 0.0161,
      "velocity": 124,
      "chip": "ym2612"
    },
    {
      "channel": 4,
      "note": 63,
      "start": 18.5625,
      "duration": 0.0161,
      "velocity": 120,
      "chip": "ym2612"
    },
    {
      "channel": 3,
      "note": 58,
      "start": 18.5637,
      "duration": 0.0161,
      "velocity": 120,
      "chip": "ym2612"
    },
    {
      "channel": 1,
      "note": 64,
      "start": 18.5774,
      "duration": 0.0165,
      "velocity": 124,
      "chip": "ym2612"
    },
    {
      "channel": 4,
      "note": 63,
      "start": 18.5786,
      "duration": 0.0219,
      "velocity": 97,
      "chip": "ym2612"
    },
    {
      "channel": 3,
      "note": 58,
      "start": 18.5798,
      "duration": 0.0238,
      "velocity": 97,
      "chip": "ym2612"
    },
    {
      "channel": 1,
      "note": 62,
      "start": 18.5939,
      "duration": 0.0186,
      "velocity": 124,
      "chip": "ym2612"
    },
    {
      "channel": 0,
      "note": 36,
      "start": 18.5974,
      "duration": 0.0168,
      "velocity": 115,
      "chip": "ym2612"
    },
    {
      "channel": 4,
      "note": 81,
      "start": 18.6005,
      "duration": 0.0149,
      "velocity": 97,
      "chip": "ym2612"
    },
    {
      "channel": 3,
      "note": 84,
      "start": 18.6036,
      "duration": 0.0131,
      "velocity": 97,
      "chip": "ym2612"
    },
    {
      "channel": 2,
      "note": 53,
      "start": 18.6051,
      "duration": 0.0128,
      "velocity": 100,
      "chip": "ym2612"
    },
    {
      "channel": 1,
      "note": 61,
      "start": 18.6124,
      "duration": 0.0132,
      "velocity": 124,
      "chip": "ym2612"
    },
    {
      "channel": 0,
      "note": 36,
      "start": 18.6142,
      "duration": 0.0132,
      "velocity": 115,
      "chip": "ym2612"
    },
    {
      "channel": 4,
      "note": 81,
      "start": 18.6154,
      "duration": 0.0131,
      "velocity": 97,
      "chip": "ym2612"
    },
    {
      "channel": 3,
      "note": 84,
      "start": 18.6167,
      "duration": 0.013,
      "velocity": 97,
      "chip": "ym2612"
    },
    {
      "channel": 2,
      "note": 53,
      "start": 18.6179,
      "duration": 0.013,
      "velocity": 100,
      "chip": "ym2612"
    },
    {
      "channel": 1,
      "note": 60,
      "start": 18.6257,
      "duration": 0.0182,
      "velocity": 124,
      "chip": "ym2612"
    },
    {
      "channel": 0,
      "note": 37,
      "start": 18.6274,
      "duration": 0.0182,
      "velocity": 115,
      "chip": "ym2612"
    },
    {
      "channel": 4,
      "note": 81,
      "start": 18.6285,
      "duration": 0.0183,
      "velocity": 97,
      "chip": "ym2612"
    },
    {
      "channel": 3,
      "note": 84,
      "start": 18.6297,
      "duration": 0.0183,
      "velocity": 97,
      "chip": "ym2612"
    },
    {
      "channel": 2,
      "note": 53,
      "start": 18.6308,
      "duration": 0.0183,
      "velocity": 100,
      "chip": "ym2612"
    },
    {
      "channel": 1,
      "note": 59,
      "start": 18.6439,
      "duration": 0.0167,
      "velocity": 124,
      "chip": "ym2612"
    },
    {
      "channel": 0,
      "note": 37,
      "start": 18.6456,
      "duration": 0.0167,
      "velocity": 115,
      "chip": "ym2612"
    },
    {
      "channel": 4,
      "note": 81,
      "start": 18.6468,
      "duration": 0.0167,
      "velocity": 97,
      "chip": "ym2612"
    },
    {
      "channel": 3,
      "note": 84,
      "start": 18.648,
      "duration": 0.0167,
      "velocity": 97,
      "chip": "ym2612"
    },
    {
      "channel": 2,
      "note": 53,
      "start": 18.6491,
      "duration": 0.0167,
      "velocity": 100,
      "chip": "ym2612"
    },
    {
      "channel": 1,
      "note": 57,
      "start": 18.6605,
      "duration": 0.0159,
      "velocity": 124,
      "chip": "ym2612"
    },
    {
      "channel": 0,
      "note": 38,
      "start": 18.6623,
      "duration": 0.0158,
      "velocity": 115,
      "chip": "ym2612"
    },
    {
      "channel": 4,
      "note": 81,
      "start": 18.6635,
      "duration": 0.0158,
      "velocity": 97,
      "chip": "ym2612"
    },
    {
      "channel": 3,
      "note": 84,
      "start": 18.6646,
      "duration": 0.0158,
      "velocity": 97,
      "chip": "ym2612"
    },
    {
      "channel": 2,
      "note": 53,
      "start": 18.6658,
      "duration": 0.0158,
      "velocity": 100,
      "chip": "ym2612"
    },
    {
      "channel": 1,
      "note": 56,
      "start": 18.6764,
      "duration": 0.0141,
      "velocity": 124,
      "chip": "ym2612"
    },
    {
      "channel": 0,
      "note": 38,
      "start": 18.6781,
      "duration": 0.0141,
      "velocity": 115,
      "chip": "ym2612"
    },
    {
      "channel": 4,
      "note": 81,
      "start": 18.6793,
      "duration": 0.0141,
      "velocity": 97,
      "chip": "ym2612"
    },
    {
      "channel": 3,
      "note": 84,
      "start": 18.6804,
      "duration": 0.0141,
      "velocity": 97,
      "chip": "ym2612"
    },
    {
      "channel": 2,
      "note": 53,
      "start": 18.6815,
      "duration": 0.0141,
      "velocity": 100,
      "chip": "ym2612"
    },
    {
      "channel": 1,
      "note": 55,
      "start": 18.6905,
      "duration": 0.0185,
      "velocity": 124,
      "chip": "ym2612"
    },
    {
      "channel": 0,
      "note": 39,
      "start": 18.6922,
      "duration": 0.0185,
      "velocity": 115,
      "chip": "ym2612"
    },
    {
      "channel": 4,
      "note": 81,
      "start": 18.6933,
      "duration": 0.0185,
      "velocity": 97,
      "chip": "ym2612"
    },
    {
      "channel": 3,
      "note": 84,
      "start": 18.6944,
      "duration": 0.0185,
      "velocity": 97,
      "chip": "ym2612"
    },
    {
      "channel": 2,
      "note": 53,
      "start": 18.6956,
      "duration": 0.0185,
      "velocity": 100,
      "chip": "ym2612"
    },
    {
      "channel": 1,
      "note": 53,
      "start": 18.709,
      "duration": 0.0134,
      "velocity": 124,
      "chip": "ym2612"
    },
    {
      "channel": 0,
      "note": 39,
      "start": 18.7107,
      "duration": 0.0161,
      "velocity": 115,
      "chip": "ym2612"
    },
    {
      "channel": 4,
      "note": 81,
      "start": 18.7118,
      "duration": 0.0162,
      "velocity": 97,
      "chip": "ym2612"
    },
    {
      "channel": 3,
      "note": 84,
      "start": 18.713,
      "duration": 0.0161,
      "velocity": 97,
      "chip": "ym2612"
    },
    {
      "channel": 2,
      "note": 53,
      "start": 18.7141,
      "duration": 0.0162,
      "velocity": 100,
      "chip": "ym2612"
    },
    {
      "channel": 1,
      "note": 52,
      "start": 18.7223,
      "duration": 0.0161,
      "velocity": 124,
      "chip": "ym2612"
    },
    {
      "channel": 0,
      "note": 40,
      "start": 18.7268,
      "duration": 0.0158,
      "velocity": 115,
      "chip": "ym2612"
    },
    {
      "channel": 4,
      "note": 81,
      "start": 18.728,
      "duration": 0.0157,
      "velocity": 97,
      "chip": "ym2612"
    },
    {
      "channel": 3,
      "note": 84,
      "start": 18.7291,
      "duration": 0.0157,
      "velocity": 97,
      "chip": "ym2612"
    },
    {
      "channel": 2,
      "note": 53,
      "start": 18.7303,
      "duration": 0.0157,
      "velocity": 100,
      "chip": "ym2612"
    },
    {
      "channel": 1,
      "note": 51,
      "start": 18.7384,
      "duration": 0.0153,
      "velocity": 1,
      "chip": "ym2612"
    },
    {
      "channel": 0,
      "note": 40,
      "start": 18.7425,
      "duration": 0.0129,
      "velocity": 115,
      "chip": "ym2612"
    },
    {
      "channel": 4,
      "note": 81,
      "start": 18.7437,
      "duration": 0.0132,
      "velocity": 97,
      "chip": "ym2612"
    },
    {
      "channel": 3,
      "note": 84,
      "start": 18.7448,
      "duration": 0.0132,
      "velocity": 97,
      "chip": "ym2612"
    },
    {
      "channel": 2,
      "note": 53,
      "start": 18.746,
      "duration": 0.0132,
      "velocity": 100,
      "chip": "ym2612"
    },
    {
      "channel": 0,
      "note": 40,
      "start": 18.7555,
      "duration": 0.0152,
      "velocity": 115,
      "chip": "ym2612"
    },
    {
      "channel": 4,
      "note": 81,
      "start": 18.7569,
      "duration": 0.015,
      "velocity": 97,
      "chip": "ym2612"
    },
    {
      "channel": 3,
      "note": 84,
      "start": 18.7581,
      "duration": 0.0177,
      "velocity": 97,
      "chip": "ym2612"
    },
    {
      "channel": 0,
      "note": 41,
      "start": 18.7707,
      "duration": 0.0161,
      "velocity": 115,
      "chip": "ym2612"
    },
    {
      "channel": 4,
      "note": 81,
      "start": 18.7719,
      "duration": 0.0161,
      "velocity": 97,
      "chip": "ym2612"
    },
    {
      "channel": 3,
      "note": 84,
      "start": 18.7758,
      "duration": 0.0134,
      "velocity": 97,
      "chip": "ym2612"
    },
    {
      "channel": 0,
      "note": 41,
      "start": 18.7868,
      "duration": 0.0161,
      "velocity": 115,
      "chip": "ym2612"
    },
    {
      "channel": 4,
      "note": 81,
      "start": 18.788,
      "duration": 0.0161,
      "velocity": 97,
      "chip": "ym2612"
    },
    {
      "channel": 3,
      "note": 84,
      "start": 18.7891,
      "duration": 0.0161,
      "velocity": 97,
      "chip": "ym2612"
    },
    {
      "channel": 2,
      "note": 60,
      "start": 18.7932,
      "duration": 0.0156,
      "velocity": 100,
      "chip": "ym2612"
    },
    {
      "channel": 1,
      "note": 48,
      "start": 18.7946,
      "duration": 0.0154,
      "velocity": 100,
      "chip": "ym2612"
    },
    {
      "channel": 0,
      "note": 42,
      "start": 18.8029,
      "duration": 0.0161,
      "velocity": 115,
      "chip": "ym2612"
    },
    {
      "channel": 4,
      "note": 81,
      "start": 18.8041,
      "duration": 0.0161,
      "velocity": 97,
      "chip": "ym2612"
    },
    {
      "channel": 3,
      "note": 84,
      "start": 18.8053,
      "duration": 0.0161,
      "velocity": 97,
      "chip": "ym2612"
    },
    {
      "channel": 2,
      "note": 60,
      "start": 18.8088,
      "duration": 0.0136,
      "velocity": 100,
      "chip": "ym2612"
    },
    {
      "channel": 1,
      "note": 48,
      "start": 18.81,
      "duration": 0.0139,
      "velocity": 100,
      "chip": "ym2612"
    },
    {
      "channel": 0,
      "note": 42,
      "start": 18.819,
      "duration": 0.0161,
      "velocity": 115,
      "chip": "ym2612"
    },
    {
      "channel": 4,
      "note": 81,
      "start": 18.8202,
      "duration": 0.0161,
      "velocity": 97,
      "chip": "ym2612"
    },
    {
      "channel": 3,
      "note": 84,
      "start": 18.8214,
      "duration": 0.0161,
      "velocity": 97,
      "chip": "ym2612"
    },
    {
      "channel": 2,
      "note": 60,
      "start": 18.8224,
      "duration": 0.0161,
      "velocity": 100,
      "chip": "ym2612"
    },
    {
      "channel": 1,
      "note": 48,
      "start": 18.8239,
      "duration": 0.0186,
      "velocity": 100,
      "chip": "ym2612"
    },
    {
      "channel": 0,
      "note": 43,
      "start": 18.8351,
      "duration": 0.0161,
      "velocity": 115,
      "chip": "ym2612"
    },
    {
      "channel": 4,
      "note": 81,
      "start": 18.8363,
      "duration": 0.0161,
      "velocity": 97,
      "chip": "ym2612"
    },
    {
      "channel": 3,
      "note": 84,
      "start": 18.8375,
      "duration": 0.0161,
      "velocity": 97,
      "chip": "ym2612"
    },
    {
      "channel": 2,
      "note": 60,
      "start": 18.8386,
      "duration": 0.0161,
      "velocity": 100,
      "chip": "ym2612"
    },
    {
      "channel": 1,
      "note": 48,
      "start": 18.8425,
      "duration": 0.0133,
      "velocity": 100,
      "chip": "ym2612"
    },
    {
      "channel": 0,
      "note": 43,
      "start": 18.8512,
      "duration": 0.0161,
      "velocity": 115,
      "chip": "ym2612"
    },
    {
      "channel": 4,
      "note": 81,
      "start": 18.8524,
      "duration": 0.0161,
      "velocity": 97,
      "chip": "ym2612"
    },
    {
      "channel": 3,
      "note": 84,
      "start": 18.8536,
      "duration": 0.0161,
      "velocity": 97,
      "chip": "ym2612"
    },
    {
      "channel": 2,
      "note": 60,
      "start": 18.8547,
      "duration": 0.0161,
      "velocity": 100,
      "chip": "ym2612"
    },
    {
      "channel": 1,
      "note": 48,
      "start": 18.8558,
      "duration": 0.0161,
      "velocity": 100,
      "chip": "ym2612"
    },
    {
      "channel": 0,
      "note": 44,
      "start": 18.8673,
      "duration": 0.0161,
      "velocity": 115,
      "chip": "ym2612"
    },
    {
      "channel": 4,
      "note": 81,
      "start": 18.8685,
      "duration": 0.0161,
      "velocity": 97,
      "chip": "ym2612"
    },
    {
      "channel": 3,
      "note": 84,
      "start": 18.8696,
      "duration": 0.0161,
      "velocity": 97,
      "chip": "ym2612"
    },
    {
      "channel": 2,
      "note": 60,
      "start": 18.8708,
      "duration": 0.0161,
      "velocity": 100,
      "chip": "ym2612"
    },
    {
      "channel": 1,
      "note": 48,
      "start": 18.8719,
      "duration": 0.0161,
      "velocity": 100,
      "chip": "ym2612"
    },
    {
      "channel": 0,
      "note": 44,
      "start": 18.8834,
      "duration": 0.0161,
      "velocity": 115,
      "chip": "ym2612"
    },
    {
      "channel": 4,
      "note": 81,
      "start": 18.8846,
      "duration": 0.0161,
      "velocity": 97,
      "chip": "ym2612"
    },
    {
      "channel": 3,
      "note": 84,
      "start": 18.8857,
      "duration": 0.0161,
      "velocity": 97,
      "chip": "ym2612"
    },
    {
      "channel": 2,
      "note": 60,
      "start": 18.8869,
      "duration": 0.0161,
      "velocity": 100,
      "chip": "ym2612"
    },
    {
      "channel": 1,
      "note": 48,
      "start": 18.888,
      "duration": 0.0161,
      "velocity": 100,
      "chip": "ym2612"
    },
    {
      "channel": 0,
      "note": 44,
      "start": 18.8995,
      "duration": 0.0161,
      "velocity": 115,
      "chip": "ym2612"
    },
    {
      "channel": 4,
      "note": 81,
      "start": 18.9007,
      "duration": 0.0161,
      "velocity": 97,
      "chip": "ym2612"
    },
    {
      "channel": 3,
      "note": 84,
      "start": 18.9018,
      "duration": 0.0161,
      "velocity": 97,
      "chip": "ym2612"
    },
    {
      "channel": 2,
      "note": 60,
      "start": 18.903,
      "duration": 0.0162,
      "velocity": 100,
      "chip": "ym2612"
    },
    {
      "channel": 1,
      "note": 48,
      "start": 18.9041,
      "duration": 0.0161,
      "velocity": 100,
      "chip": "ym2612"
    },
    {
      "channel": 0,
      "note": 45,
      "start": 18.9156,
      "duration": 0.0161,
      "velocity": 115,
      "chip": "ym2612"
    },
    {
      "channel": 4,
      "note": 81,
      "start": 18.9168,
      "duration": 0.0161,
      "velocity": 97,
      "chip": "ym2612"
    },
    {
      "channel": 3,
      "note": 84,
      "start": 18.918,
      "duration": 0.0161,
      "velocity": 97,
      "chip": "ym2612"
    },
    {
      "channel": 2,
      "note": 60,
      "start": 18.9191,
      "duration": 0.016,
      "velocity": 100,
      "chip": "ym2612"
    },
    {
      "channel": 1,
      "note": 48,
      "start": 18.9202,
      "duration": 0.0161,
      "velocity": 100,
      "chip": "ym2612"
    },
    {
      "channel": 0,
      "note": 45,
      "start": 18.9317,
      "duration": 0.0161,
      "velocity": 115,
      "chip": "ym2612"
    },
    {
      "channel": 4,
      "note": 81,
      "start": 18.9329,
      "duration": 0.0161,
      "velocity": 97,
      "chip": "ym2612"
    },
    {
      "channel": 3,
      "note": 84,
      "start": 18.9341,
      "duration": 0.0161,
      "velocity": 97,
      "chip": "ym2612"
    },
    {
      "channel": 2,
      "note": 60,
      "start": 18.9352,
      "duration": 0.0161,
      "velocity": 100,
      "chip": "ym2612"
    },
    {
      "channel": 1,
      "note": 48,
      "start": 18.9363,
      "duration": 0.0162,
      "velocity": 100,
      "chip": "ym2612"
    },
    {
      "channel": 0,
      "note": 46,
      "start": 18.9478,
      "duration": 0.0161,
      "velocity": 115,
      "chip": "ym2612"
    },
    {
      "channel": 4,
      "note": 81,
      "start": 18.949,
      "duration": 0.0161,
      "velocity": 97,
      "chip": "ym2612"
    },
    {
      "channel": 3,
      "note": 84,
      "start": 18.9502,
      "duration": 0.0161,
      "velocity": 97,
      "chip": "ym2612"
    },
    {
      "channel": 0,
      "note": 46,
      "start": 18.9639,
      "duration": 0.0195,
      "velocity": 115,
      "chip": "ym2612"
    },
    {
      "channel": 4,
      "note": 81,
      "start": 18.9651,
      "duration": 0.0196,
      "velocity": 97,
      "chip": "ym2612"
    },
    {
      "channel": 3,
      "note": 84,
      "start": 18.9663,
      "duration": 0.0195,
      "velocity": 97,
      "chip": "ym2612"
    },
    {
      "channel": 1,
      "note": 78,
      "start": 18.9817,
      "duration": 0.0144,
      "velocity": 124,
      "chip": "ym2612"
    },
    {
      "channel": 0,
      "note": 47,
      "start": 18.9834,
      "duration": 0.0144,
      "velocity": 115,
      "chip": "ym2612"
    },
    {
      "channel": 4,
      "note": 81,
      "start": 18.9846,
      "duration": 0.0144,
      "velocity": 97,
      "chip": "ym2612"
    },
    {
      "channel": 3,
      "note": 84,
      "start": 18.9858,
      "duration": 0.0144,
      "velocity": 97,
      "chip": "ym2612"
    },
    {
      "channel": 2,
      "note": 65,
      "start": 18.9872,
      "duration": 0.0142,
      "velocity": 100,
      "chip": "ym2612"
    },
    {
      "channel": 1,
      "note": 76,
      "start": 18.9961,
      "duration": 0.016,
      "velocity": 124,
      "chip": "ym2612"
    },
    {
      "channel": 0,
      "note": 47,
      "start": 18.9978,
      "duration": 0.016,
      "velocity": 115,
      "chip": "ym2612"
    },
    {
      "channel": 4,
      "note": 81,
      "start": 18.999,
      "duration": 0.016,
      "velocity": 97,
      "chip": "ym2612"
    },
    {
      "channel": 3,
      "note": 84,
      "start": 19.0002,
      "duration": 0.016,
      "velocity": 97,
      "chip": "ym2612"
    },
    {
      "channel": 2,
      "note": 65,
      "start": 19.0014,
      "duration": 0.016,
      "velocity": 100,
      "chip": "ym2612"
    },
    {
      "channel": 1,
      "note": 75,
      "start": 19.0121,
      "duration": 0.0161,
      "velocity": 124,
      "chip": "ym2612"
    },
    {
      "channel": 0,
      "note": 47,
      "start": 19.0139,
      "duration": 0.0161,
      "velocity": 115,
      "chip": "ym2612"
    },
    {
      "channel": 4,
      "note": 81,
      "start": 19.0151,
      "duration": 0.0161,
      "velocity": 97,
      "chip": "ym2612"
    },
    {
      "channel": 3,
      "note": 84,
      "start": 19.0162,
      "duration": 0.0161,
      "velocity": 97,
      "chip": "ym2612"
    },
    {
      "channel": 2,
      "note": 65,
      "start": 19.0173,
      "duration": 0.0161,
      "velocity": 100,
      "chip": "ym2612"
    },
    {
      "channel": 1,
      "note": 74,
      "start": 19.0282,
      "duration": 0.0161,
      "velocity": 124,
      "chip": "ym2612"
    },
    {
      "channel": 0,
      "note": 48,
      "start": 19.03,
      "duration": 0.0161,
      "velocity": 115,
      "chip": "ym2612"
    },
    {
      "channel": 4,
      "note": 81,
      "start": 19.0312,
      "duration": 0.0161,
      "velocity": 97,
      "chip": "ym2612"
    },
    {
      "channel": 3,
      "note": 84,
      "start": 19.0323,
      "duration": 0.0161,
      "velocity": 97,
      "chip": "ym2612"
    },
    {
      "channel": 2,
      "note": 65,
      "start": 19.0334,
      "duration": 0.0162,
      "velocity": 100,
      "chip": "ym2612"
    },
    {
      "channel": 1,
      "note": 72,
      "start": 19.0443,
      "duration": 0.0162,
      "velocity": 124,
      "chip": "ym2612"
    },
    {
      "channel": 0,
      "note": 48,
      "start": 19.0461,
      "duration": 0.0163,
      "velocity": 115,
      "chip": "ym2612"
    },
    {
      "channel": 4,
      "note": 81,
      "start": 19.0473,
      "duration": 0.0162,
      "velocity": 97,
      "chip": "ym2612"
    },
    {
      "channel": 3,
      "note": 84,
      "start": 19.0485,
      "duration": 0.0162,
      "velocity": 97,
      "chip": "ym2612"
    },
    {
      "channel": 2,
      "note": 65,
      "start": 19.0496,
      "duration": 0.0161,
      "velocity": 100,
      "chip": "ym2612"
    },
    {
      "channel": 1,
      "note": 71,
      "start": 19.0605,
      "duration": 0.0163,
      "velocity": 124,
      "chip": "ym2612"
    },
    {
      "channel": 0,
      "note": 49,
      "start": 19.0623,
      "duration": 0.0155,
      "velocity": 1,
      "chip": "ym2612"
    },
    {
      "channel": 4,
      "note": 81,
      "start": 19.0635,
      "duration": 0.0155,
      "velocity": 97,
      "chip": "ym2612"
    },
    {
      "channel": 3,
      "note": 84,
      "start": 19.0647,
      "duration": 0.0155,
      "velocity": 97,
      "chip": "ym2612"
    },
    {
      "channel": 2,
      "note": 65,
      "start": 19.0658,
      "duration": 0.0155,
      "velocity": 100,
      "chip": "ym2612"
    },
    {
      "channel": 1,
      "note": 70,
      "start": 19.0769,
      "duration": 0.0157,
      "velocity": 124,
      "chip": "ym2612"
    },
    {
      "channel": 4,
      "note": 81,
      "start": 19.079,
      "duration": 0.0149,
      "velocity": 97,
      "chip": "ym2612"
    },
    {
      "channel": 3,
      "note": 84,
      "start": 19.0802,
      "duration": 0.0149,
      "velocity": 97,
      "chip": "ym2612"
    },
    {
      "channel": 2,
      "note": 65,
      "start": 19.0813,
      "duration": 0.0149,
      "velocity": 100,
      "chip": "ym2612"
    },
    {
      "channel": 1,
      "note": 69,
      "start": 19.0926,
      "duration": 0.0179,
      "velocity": 124,
      "chip": "ym2612"
    },
    {
      "channel": 4,
      "note": 81,
      "start": 19.0939,
      "duration": 0.0179,
      "velocity": 97,
      "chip": "ym2612"
    },
    {
      "channel": 3,
      "note": 84,
      "start": 19.0951,
      "duration": 0.0179,
      "velocity": 97,
      "chip": "ym2612"
    },
    {
      "channel": 2,
      "note": 65,
      "start": 19.0962,
      "duration": 0.0179,
      "velocity": 100,
      "chip": "ym2612"
    },
    {
      "channel": 1,
      "note": 68,
      "start": 19.1105,
      "duration": 0.0167,
      "velocity": 124,
      "chip": "ym2612"
    },
    {
      "channel": 4,
      "note": 81,
      "start": 19.1118,
      "duration": 0.0167,
      "velocity": 97,
      "chip": "ym2612"
    },
    {
      "channel": 3,
      "note": 84,
      "start": 19.113,
      "duration": 0.0167,
      "velocity": 97,
      "chip": "ym2612"
    },
    {
      "channel": 2,
      "note": 65,
      "start": 19.1141,
      "duration": 0.0167,
      "velocity": 100,
      "chip": "ym2612"
    },
    {
      "channel": 1,
      "note": 66,
      "start": 19.1272,
      "duration": 0.0161,
      "velocity": 124,
      "chip": "ym2612"
    },
    {
      "channel": 4,
      "note": 81,
      "start": 19.1285,
      "duration": 0.0161,
      "velocity": 97,
      "chip": "ym2612"
    },
    {
      "channel": 3,
      "note": 84,
      "start": 19.1297,
      "duration": 0.016,
      "velocity": 97,
      "chip": "ym2612"
    },
    {
      "channel": 2,
      "note": 65,
      "start": 19.1308,
      "duration": 0.0161,
      "velocity": 100,
      "chip": "ym2612"
    },
    {
      "channel": 1,
      "note": 65,
      "start": 19.1433,
      "duration": 0.0141,
      "velocity": 124,
      "chip": "ym2612"
    },
    {
      "channel": 4,
      "note": 81,
      "start": 19.1446,
      "duration": 0.0141,
      "velocity": 97,
      "chip": "ym2612"
    },
    {
      "channel": 3,
      "note": 84,
      "start": 19.1457,
      "duration": 0.0141,
      "velocity": 97,
      "chip": "ym2612"
    },
    {
      "channel": 1,
      "note": 64,
      "start": 19.1574,
      "duration": 0.0185,
      "velocity": 124,
      "chip": "ym2612"
    },
    {
      "channel": 4,
      "note": 81,
      "start": 19.1586,
      "duration": 0.022,
      "velocity": 97,
      "chip": "ym2612"
    },
    {
      "channel": 3,
      "note": 84,
      "start": 19.1598,
      "duration": 0.022,
      "velocity": 97,
      "chip": "ym2612"
    },
    {
      "channel": 1,
      "note": 62,
      "start": 19.1759,
      "duration": 0.0134,
      "velocity": 124,
      "chip": "ym2612"
    },
    {
      "channel": 0,
      "note": 36,
      "start": 19.1794,
      "duration": 0.0144,
      "velocity": 115,
      "chip": "ym2612"
    },
    {
      "channel": 4,
      "note": 81,
      "start": 19.1806,
      "duration": 0.0144,
      "velocity": 97,
      "chip": "ym2612"
    },
    {
      "channel": 3,
      "note": 84,
      "start": 19.1818,
      "duration": 0.0143,
      "velocity": 97,
      "chip": "ym2612"
    },
    {
      "channel": 2,
      "note": 63,
      "start": 19.1832,
      "duration": 0.0141,
      "velocity": 100,
      "chip": "ym2612"
    },
    {
      "channel": 1,
      "note": 61,
      "start": 19.1892,
      "duration": 0.0161,
      "velocity": 124,
      "chip": "ym2612"
    },
    {
      "channel": 0,
      "note": 36,
      "start": 19.1938,
      "duration": 0.0156,
      "velocity": 115,
      "chip": "ym2612"
    },
    {
      "channel": 4,
      "note": 81,
      "start": 19.195,
      "duration": 0.0156,
      "velocity": 97,
      "chip": "ym2612"
    },
    {
      "channel": 3,
      "note": 84,
      "start": 19.1961,
      "duration": 0.0157,
      "velocity": 97,
      "chip": "ym2612"
    },
    {
      "channel": 2,
      "note": 63,
      "start": 19.1973,
      "duration": 0.0156,
      "velocity": 100,
      "chip": "ym2612"
    },
    {
      "channel": 1,
      "note": 60,
      "start": 19.2053,
      "duration": 0.0161,
      "velocity": 124,
      "chip": "ym2612"
    },
    {
      "channel": 0,
      "note": 37,
      "start": 19.2094,
      "duration": 0.0141,
      "velocity": 115,
      "chip": "ym2612"
    },
    {
      "channel": 4,
      "note": 81,
      "start": 19.2106,
      "duration": 0.0141,
      "velocity": 97,
      "chip": "ym2612"
    },
    {
      "channel": 3,
      "note": 84,
      "start": 19.2118,
      "duration": 0.014,
      "velocity": 97,
      "chip": "ym2612"
    },
    {
      "channel": 2,
      "note": 63,
      "start": 19.2129,
      "duration": 0.0141,
      "velocity": 100,
      "chip": "ym2612"
    },
    {
      "channel": 1,
      "note": 59,
      "start": 19.2214,
      "duration": 0.0161,
      "velocity": 124,
      "chip": "ym2612"
    },
    {
      "channel": 0,
      "note": 37,
      "start": 19.2235,
      "duration": 0.0185,
      "velocity": 115,
      "chip": "ym2612"
    },
    {
      "channel": 4,
      "note": 81,
      "start": 19.2247,
      "duration": 0.0185,
      "velocity": 97,
      "chip": "ym2612"
    },
    {
      "channel": 3,
      "note": 84,
      "start": 19.2258,
      "duration": 0.0186,
      "velocity": 97,
      "chip": "ym2612"
    },
    {
      "channel": 2,
      "note": 63,
      "start": 19.227,
      "duration": 0.0185,
      "velocity": 100,
      "chip": "ym2612"
    },
    {
      "channel": 1,
      "note": 57,
      "start": 19.2375,
      "duration": 0.0161,
      "velocity": 124,
      "chip": "ym2612"
    },
    {
      "channel": 0,
      "note": 38,
      "start": 19.242,
      "duration": 0.0134,
      "velocity": 115,
      "chip": "ym2612"
    },
    {
      "channel": 4,
      "note": 81,
      "start": 19.2432,
      "duration": 0.0161,
      "velocity": 97,
      "chip": "ym2612"
    },
    {
      "channel": 3,
      "note": 84,
      "start": 19.2444,
      "duration": 0.0161,
      "velocity": 97,
      "chip": "ym2612"
    },
    {
      "channel": 2,
      "note": 63,
      "start": 19.2455,
      "duration": 0.0161,
      "velocity": 100,
      "chip": "ym2612"
    },
    {
      "channel": 1,
      "note": 56,
      "start": 19.2536,
      "duration": 0.0161,
      "velocity": 124,
      "chip": "ym2612"
    },
    {
      "channel": 0,
      "note": 38,
      "start": 19.2553,
      "duration": 0.0162,
      "velocity": 115,
      "chip": "ym2612"
    },
    {
      "channel": 4,
      "note": 81,
      "start": 19.2593,
      "duration": 0.0158,
      "velocity": 97,
      "chip": "ym2612"
    },
    {
      "channel": 3,
      "note": 84,
      "start": 19.2605,
      "duration": 0.0157,
      "velocity": 97,
      "chip": "ym2612"
    },
    {
      "channel": 2,
      "note": 63,
      "start": 19.2616,
      "duration": 0.0158,
      "velocity": 100,
      "chip": "ym2612"
    },
    {
      "channel": 1,
      "note": 55,
      "start": 19.2697,
      "duration": 0.0162,
      "velocity": 124,
      "chip": "ym2612"
    },
    {
      "channel": 0,
      "note": 39,
      "start": 19.2715,
      "duration": 0.0161,
      "velocity": 115,
      "chip": "ym2612"
    },
    {
      "channel": 4,
      "note": 81,
      "start": 19.2751,
      "duration": 0.0137,
      "velocity": 97,
      "chip": "ym2612"
    },
    {
      "channel": 3,
      "note": 84,
      "start": 19.2762,
      "duration": 0.0141,
      "velocity": 97,
      "chip": "ym2612"
    },
    {
      "channel": 2,
      "note": 63,
      "start": 19.2773,
      "duration": 0.0141,
      "velocity": 100,
      "chip": "ym2612"
    },
    {
      "channel": 1,
      "note": 53,
      "start": 19.2859,
      "duration": 0.0161,
      "velocity": 124,
      "chip": "ym2612"
    },
    {
      "channel": 0,
      "note": 39,
      "start": 19.2876,
      "duration": 0.0161,
      "velocity": 115,
      "chip": "ym2612"
    },
    {
      "channel": 4,
      "note": 81,
      "start": 19.2888,
      "duration": 0.0161,
      "velocity": 97,
      "chip": "ym2612"
    },
    {
      "channel": 3,
      "note": 84,
      "start": 19.2902,
      "duration": 0.0186,
      "velocity": 97,
      "chip": "ym2612"
    },
    {
      "channel": 2,
      "note": 63,
      "start": 19.2914,
      "duration": 0.0185,
      "velocity": 100,
      "chip": "ym2612"
    },
    {
      "channel": 1,
      "note": 52,
      "start": 19.302,
      "duration": 0.0161,
      "velocity": 124,
      "chip": "ym2612"
    },
    {
      "channel": 0,
      "note": 40,
      "start": 19.3037,
      "duration": 0.0161,
      "velocity": 115,
      "chip": "ym2612"
    },
    {
      "channel": 4,
      "note": 81,
      "start": 19.3049,
      "duration": 0.0161,
      "velocity": 97,
      "chip": "ym2612"
    },
    {
      "channel": 3,
      "note": 84,
      "start": 19.3088,
      "duration": 0.0133,
      "velocity": 97,
      "chip": "ym2612"
    },
    {
      "channel": 2,
      "note": 63,
      "start": 19.3099,
      "duration": 0.0161,
      "velocity": 100,
      "chip": "ym2612"
    },
    {
      "channel": 1,
      "note": 51,
      "start": 19.318,
      "duration": 0.0153,
      "velocity": 1,
      "chip": "ym2612"
    },
    {
      "channel": 0,
      "note": 40,
      "start": 19.3198,
      "duration": 0.0153,
      "velocity": 115,
      "chip": "ym2612"
    },
    {
      "channel": 4,
      "note": 81,
      "start": 19.321,
      "duration": 0.0153,
      "velocity": 97,
      "chip": "ym2612"
    },
    {
      "channel": 3,
      "note": 84,
      "start": 19.3221,
      "duration": 0.0153,
      "velocity": 97,
      "chip": "ym2612"
    },
    {
      "channel": 2,
      "note": 63,
      "start": 19.326,
      "duration": 0.0125,
      "velocity": 100,
      "chip": "ym2612"
    },
    {
      "channel": 0,
      "note": 40,
      "start": 19.335,
      "duration": 0.0153,
      "velocity": 115,
      "chip": "ym2612"
    },
    {
      "channel": 4,
      "note": 81,
      "start": 19.3363,
      "duration": 0.0153,
      "velocity": 97,
      "chip": "ym2612"
    },
    {
      "channel": 3,
      "note": 84,
      "start": 19.3374,
      "duration": 0.0153,
      "velocity": 97,
      "chip": "ym2612"
    },
    {
      "channel": 0,
      "note": 41,
      "start": 19.3503,
      "duration": 0.0161,
      "velocity": 115,
      "chip": "ym2612"
    },
    {
      "channel": 4,
      "note": 81,
      "start": 19.3515,
      "duration": 0.0161,
      "velocity": 97,
      "chip": "ym2612"
    },
    {
      "channel": 3,
      "note": 84,
      "start": 19.3527,
      "duration": 0.0161,
      "velocity": 97,
      "chip": "ym2612"
    },
    {
      "channel": 0,
      "note": 41,
      "start": 19.3664,
      "duration": 0.0161,
      "velocity": 115,
      "chip": "ym2612"
    },
    {
      "channel": 4,
      "note": 81,
      "start": 19.3676,
      "duration": 0.0161,
      "velocity": 97,
      "chip": "ym2612"
    },
    {
      "channel": 3,
      "note": 84,
      "start": 19.3688,
      "duration": 0.0162,
      "velocity": 97,
      "chip": "ym2612"
    },
    {
      "channel": 0,
      "note": 42,
      "start": 19.3825,
      "duration": 0.0162,
      "velocity": 115,
      "chip": "ym2612"
    },
    {
      "channel": 4,
      "note": 81,
      "start": 19.3837,
      "duration": 0.0161,
      "velocity": 97,
      "chip": "ym2612"
    },
    {
      "channel": 3,
      "note": 84,
      "start": 19.3849,
      "duration": 0.0161,
      "velocity": 97,
      "chip": "ym2612"
    },
    {
      "channel": 0,
      "note": 42,
      "start": 19.3987,
      "duration": 0.0161,
      "velocity": 115,
      "chip": "ym2612"
    },
    {
      "channel": 4,
      "note": 81,
      "start": 19.3998,
      "duration": 0.0161,
      "velocity": 97,
      "chip": "ym2612"
    },
    {
      "channel": 3,
      "note": 84,
      "start": 19.401,
      "duration": 0.0161,
      "velocity": 97,
      "chip": "ym2612"
    },
    {
      "channel": 0,
      "note": 43,
      "start": 19.4147,
      "duration": 0.0161,
      "velocity": 115,
      "chip": "ym2612"
    },
    {
      "channel": 4,
      "note": 81,
      "start": 19.4159,
      "duration": 0.0161,
      "velocity": 97,
      "chip": "ym2612"
    },
    {
      "channel": 3,
      "note": 84,
      "start": 19.4171,
      "duration": 0.0161,
      "velocity": 97,
      "chip": "ym2612"
    },
    {
      "channel": 0,
      "note": 43,
      "start": 19.4308,
      "duration": 0.0161,
      "velocity": 115,
      "chip": "ym2612"
    },
    {
      "channel": 4,
      "note": 81,
      "start": 19.432,
      "duration": 0.0161,
      "velocity": 97,
      "chip": "ym2612"
    },
    {
      "channel": 3,
      "note": 84,
      "start": 19.4332,
      "duration": 0.0161,
      "velocity": 97,
      "chip": "ym2612"
    },
    {
      "channel": 0,
      "note": 44,
      "start": 19.4469,
      "duration": 0.0161,
      "velocity": 115,
      "chip": "ym2612"
    },
    {
      "channel": 4,
      "note": 81,
      "start": 19.4481,
      "duration": 0.0161,
      "velocity": 97,
      "chip": "ym2612"
    },
    {
      "channel": 3,
      "note": 84,
      "start": 19.4493,
      "duration": 0.0161,
      "velocity": 97,
      "chip": "ym2612"
    },
    {
      "channel": 0,
      "note": 44,
      "start": 19.463,
      "duration": 0.0161,
      "velocity": 115,
      "chip": "ym2612"
    },
    {
      "channel": 4,
      "note": 81,
      "start": 19.4642,
      "duration": 0.0161,
      "velocity": 97,
      "chip": "ym2612"
    },
    {
      "channel": 3,
      "note": 84,
      "start": 19.4654,
      "duration": 0.0161,
      "velocity": 97,
      "chip": "ym2612"
    },
    {
      "channel": 0,
      "note": 44,
      "start": 19.4791,
      "duration": 0.0161,
      "velocity": 115,
      "chip": "ym2612"
    },
    {
      "channel": 4,
      "note": 81,
      "start": 19.4803,
      "duration": 0.0161,
      "velocity": 97,
      "chip": "ym2612"
    },
    {
      "channel": 3,
      "note": 84,
      "start": 19.4815,
      "duration": 0.0161,
      "velocity": 97,
      "chip": "ym2612"
    },
    {
      "channel": 0,
      "note": 45,
      "start": 19.4952,
      "duration": 0.0161,
      "velocity": 115,
      "chip": "ym2612"
    },
    {
      "channel": 4,
      "note": 81,
      "start": 19.4964,
      "duration": 0.0161,
      "velocity": 97,
      "chip": "ym2612"
    },
    {
      "channel": 3,
      "note": 84,
      "start": 19.4976,
      "duration": 0.0161,
      "velocity": 97,
      "chip": "ym2612"
    },
    {
      "channel": 0,
      "note": 45,
      "start": 19.5113,
      "duration": 0.0161,
      "velocity": 115,
      "chip": "ym2612"
    },
    {
      "channel": 4,
      "note": 81,
      "start": 19.5125,
      "duration": 0.0161,
      "velocity": 97,
      "chip": "ym2612"
    },
    {
      "channel": 3,
      "note": 84,
      "start": 19.5137,
      "duration": 0.0161,
      "velocity": 97,
      "chip": "ym2612"
    },
    {
      "channel": 0,
      "note": 46,
      "start": 19.5274,
      "duration": 0.0162,
      "velocity": 115,
      "chip": "ym2612"
    },
    {
      "channel": 4,
      "note": 81,
      "start": 19.5286,
      "duration": 0.0162,
      "velocity": 97,
      "chip": "ym2612"
    },
    {
      "channel": 3,
      "note": 84,
      "start": 19.5298,
      "duration": 0.0162,
      "velocity": 97,
      "chip": "ym2612"
    },
    {
      "channel": 0,
      "note": 46,
      "start": 19.5436,
      "duration": 0.0178,
      "velocity": 115,
      "chip": "ym2612"
    },
    {
      "channel": 4,
      "note": 81,
      "start": 19.5448,
      "duration": 0.0178,
      "velocity": 97,
      "chip": "ym2612"
    },
    {
      "channel": 3,
      "note": 84,
      "start": 19.546,
      "duration": 0.0178,
      "velocity": 97,
      "chip": "ym2612"
    },
    {
      "channel": 0,
      "note": 36,
      "start": 19.5614,
      "duration": 0.0159,
      "velocity": 115,
      "chip": "ym2612"
    },
    {
      "channel": 4,
      "note": 81,
      "start": 19.5627,
      "duration": 0.0159,
      "velocity": 97,
      "chip": "ym2612"
    },
    {
      "channel": 3,
      "note": 84,
      "start": 19.5638,
      "duration": 0.016,
      "velocity": 97,
      "chip": "ym2612"
    },
    {
      "channel": 2,
      "note": 65,
      "start": 19.5652,
      "duration": 0.0157,
      "velocity": 100,
      "chip": "ym2612"
    },
    {
      "channel": 1,
      "note": 53,
      "start": 19.5666,
      "duration": 0.0155,
      "velocity": 100,
      "chip": "ym2612"
    },
    {
      "channel": 0,
      "note": 36,
      "start": 19.5773,
      "duration": 0.0167,
      "velocity": 115,
      "chip": "ym2612"
    },
    {
      "channel": 4,
      "note": 81,
      "start": 19.5785,
      "duration": 0.0166,
      "velocity": 97,
      "chip": "ym2612"
    },
    {
      "channel": 3,
      "note": 84,
      "start": 19.5798,
      "duration": 0.0166,
      "velocity": 97,
      "chip": "ym2612"
    },
    {
      "channel": 2,
      "note": 65,
      "start": 19.5809,
      "duration": 0.0165,
      "velocity": 100,
      "chip": "ym2612"
    },
    {
      "channel": 1,
      "note": 53,
      "start": 19.5821,
      "duration": 0.0165,
      "velocity": 100,
      "chip": "ym2612"
    },
    {
      "channel": 0,
      "note": 37,
      "start": 19.594,
      "duration": 0.0163,
      "velocity": 115,
      "chip": "ym2612"
    },
    {
      "channel": 4,
      "note": 81,
      "start": 19.5951,
      "duration": 0.0163,
      "velocity": 97,
      "chip": "ym2612"
    },
    {
      "channel": 3,
      "note": 84,
      "start": 19.5964,
      "duration": 0.0163,
      "velocity": 97,
      "chip": "ym2612"
    },
    {
      "channel": 2,
      "note": 65,
      "start": 19.5974,
      "duration": 0.0163,
      "velocity": 100,
      "chip": "ym2612"
    },
    {
      "channel": 1,
      "note": 53,
      "start": 19.5986,
      "duration": 0.0163,
      "velocity": 100,
      "chip": "ym2612"
    },
    {
      "channel": 0,
      "note": 37,
      "start": 19.6103,
      "duration": 0.0141,
      "velocity": 115,
      "chip": "ym2612"
    },
    {
      "channel": 4,
      "note": 81,
      "start": 19.6115,
      "duration": 0.0141,
      "velocity": 97,
      "chip": "ym2612"
    },
    {
      "channel": 3,
      "note": 84,
      "start": 19.6127,
      "duration": 0.0141,
      "velocity": 97,
      "chip": "ym2612"
    },
    {
      "channel": 2,
      "note": 65,
      "start": 19.6138,
      "duration": 0.0141,
      "velocity": 100,
      "chip": "ym2612"
    },
    {
      "channel": 1,
      "note": 53,
      "start": 19.6149,
      "duration": 0.0141,
      "velocity": 100,
      "chip": "ym2612"
    },
    {
      "channel": 0,
      "note": 38,
      "start": 19.6244,
      "duration": 0.0185,
      "velocity": 115,
      "chip": "ym2612"
    },
    {
      "channel": 4,
      "note": 81,
      "start": 19.6256,
      "duration": 0.0185,
      "velocity": 97,
      "chip": "ym2612"
    },
    {
      "channel": 3,
      "note": 84,
      "start": 19.6267,
      "duration": 0.0185,
      "velocity": 97,
      "chip": "ym2612"
    },
    {
      "channel": 2,
      "note": 65,
      "start": 19.6278,
      "duration": 0.0185,
      "velocity": 100,
      "chip": "ym2612"
    },
    {
      "channel": 1,
      "note": 53,
      "start": 19.6289,
      "duration": 0.0186,
      "velocity": 100,
      "chip": "ym2612"
    },
    {
      "channel": 0,
      "note": 38,
      "start": 19.6429,
      "duration": 0.0161,
      "velocity": 115,
      "chip": "ym2612"
    },
    {
      "channel": 4,
      "note": 81,
      "start": 19.6441,
      "duration": 0.0161,
      "velocity": 97,
      "chip": "ym2612"
    },
    {
      "channel": 3,
      "note": 84,
      "start": 19.6452,
      "duration": 0.0162,
      "velocity": 97,
      "chip": "ym2612"
    },
    {
      "channel": 2,
      "note": 65,
      "start": 19.6464,
      "duration": 0.0161,
      "velocity": 100,
      "chip": "ym2612"
    },
    {
      "channel": 1,
      "note": 53,
      "start": 19.6475,
      "duration": 0.0161,
      "velocity": 100,
      "chip": "ym2612"
    },
    {
      "channel": 0,
      "note": 39,
      "start": 19.659,
      "duration": 0.0134,
      "velocity": 115,
      "chip": "ym2612"
    },
    {
      "channel": 4,
      "note": 81,
      "start": 19.6602,
      "duration": 0.0157,
      "velocity": 97,
      "chip": "ym2612"
    },
    {
      "channel": 3,
      "note": 84,
      "start": 19.6614,
      "duration": 0.0157,
      "velocity": 97,
      "chip": "ym2612"
    },
    {
      "channel": 2,
      "note": 65,
      "start": 19.6624,
      "duration": 0.0157,
      "velocity": 100,
      "chip": "ym2612"
    },
    {
      "channel": 1,
      "note": 53,
      "start": 19.6636,
      "duration": 0.0157,
      "velocity": 100,
      "chip": "ym2612"
    },
    {
      "channel": 0,
      "note": 39,
      "start": 19.6723,
      "duration": 0.0162,
      "velocity": 115,
      "chip": "ym2612"
    },
    {
      "channel": 4,
      "note": 81,
      "start": 19.6759,
      "duration": 0.0141,
      "velocity": 97,
      "chip": "ym2612"
    },
    {
      "channel": 3,
      "note": 84,
      "start": 19.6771,
      "duration": 0.0141,
      "velocity": 97,
      "chip": "ym2612"
    },
    {
      "channel": 2,
      "note": 65,
      "start": 19.6782,
      "duration": 0.0141,
      "velocity": 100,
      "chip": "ym2612"
    },
    {
      "channel": 1,
      "note": 53,
      "start": 19.6793,
      "duration": 0.0141,
      "velocity": 100,
      "chip": "ym2612"
    },
    {
      "channel": 0,
      "note": 40,
      "start": 19.6885,
      "duration": 0.0161,
      "velocity": 115,
      "chip": "ym2612"
    },
    {
      "channel": 4,
      "note": 81,
      "start": 19.69,
      "duration": 0.0157,
      "velocity": 97,
      "chip": "ym2612"
    },
    {
      "channel": 3,
      "note": 84,
      "start": 19.6912,
      "duration": 0.0185,
      "velocity": 97,
      "chip": "ym2612"
    },
    {
      "channel": 2,
      "note": 65,
      "start": 19.6923,
      "duration": 0.0185,
      "velocity": 100,
      "chip": "ym2612"
    },
    {
      "channel": 1,
      "note": 53,
      "start": 19.6934,
      "duration": 0.0184,
      "velocity": 100,
      "chip": "ym2612"
    },
    {
      "channel": 0,
      "note": 40,
      "start": 19.7046,
      "duration": 0.0161,
      "velocity": 115,
      "chip": "ym2612"
    },
    {
      "channel": 4,
      "note": 81,
      "start": 19.7057,
      "duration": 0.0162,
      "velocity": 97,
      "chip": "ym2612"
    },
    {
      "channel": 3,
      "note": 84,
      "start": 19.7097,
      "duration": 0.0161,
      "velocity": 97,
      "chip": "ym2612"
    },
    {
      "channel": 2,
      "note": 65,
      "start": 19.7108,
      "duration": 0.0161,
      "velocity": 100,
      "chip": "ym2612"
    },
    {
      "channel": 1,
      "note": 53,
      "start": 19.7119,
      "duration": 0.0162,
      "velocity": 100,
      "chip": "ym2612"
    },
    {
      "channel": 0,
      "note": 40,
      "start": 19.7207,
      "duration": 0.0161,
      "velocity": 115,
      "chip": "ym2612"
    },
    {
      "channel": 4,
      "note": 81,
      "start": 19.7219,
      "duration": 0.0161,
      "velocity": 97,
      "chip": "ym2612"
    },
    {
      "channel": 3,
      "note": 84,
      "start": 19.7258,
      "duration": 0.0134,
      "velocity": 97,
      "chip": "ym2612"
    },
    {
      "channel": 0,
      "note": 41,
      "start": 19.7368,
      "duration": 0.0198,
      "velocity": 115,
      "chip": "ym2612"
    },
    {
      "channel": 4,
      "note": 81,
      "start": 19.738,
      "duration": 0.0199,
      "velocity": 97,
      "chip": "ym2612"
    },
    {
      "channel": 3,
      "note": 84,
      "start": 19.7391,
      "duration": 0.0198,
      "velocity": 97,
      "chip": "ym2612"
    },
    {
      "channel": 1,
      "note": 78,
      "start": 19.7546,
      "duration": 0.0144,
      "velocity": 124,
      "chip": "ym2612"
    },
    {
      "channel": 0,
      "note": 41,
      "start": 19.7566,
      "duration": 0.0141,
      "velocity": 115,
      "chip": "ym2612"
    },
    {
      "channel": 4,
      "note": 81,
      "start": 19.7578,
      "duration": 0.0141,
      "velocity": 97,
      "chip": "ym2612"
    },
    {
      "channel": 3,
      "note": 84,
      "start": 19.759,
      "duration": 0.0168,
      "velocity": 97,
      "chip": "ym2612"
    },
    {
      "channel": 2,
      "note": 60,
      "start": 19.7604,
      "duration": 0.0166,
      "velocity": 100,
      "chip": "ym2612"
    },
    {
      "channel": 1,
      "note": 76,
      "start": 19.769,
      "duration": 0.016,
      "velocity": 124,
      "chip": "ym2612"
    },
    {
      "channel": 0,
      "note": 42,
      "start": 19.7707,
      "duration": 0.016,
      "velocity": 115,
      "chip": "ym2612"
    },
    {
      "channel": 4,
      "note": 81,
      "start": 19.7719,
      "duration": 0.016,
      "velocity": 97,
      "chip": "ym2612"
    },
    {
      "channel": 3,
      "note": 84,
      "start": 19.7758,
      "duration": 0.0133,
      "velocity": 97,
      "chip": "ym2612"
    },
    {
      "channel": 2,
      "note": 60,
      "start": 19.777,
      "duration": 0.016,
      "velocity": 100,
      "chip": "ym2612"
    },
    {
      "channel": 1,
      "note": 75,
      "start": 19.785,
      "duration": 0.0161,
      "velocity": 124,
      "chip": "ym2612"
    },
    {
      "channel": 0,
      "note": 42,
      "start": 19.7867,
      "duration": 0.0161,
      "velocity": 115,
      "chip": "ym2612"
    },
    {
      "channel": 4,
      "note": 81,
      "start": 19.7879,
      "duration": 0.0161,
      "velocity": 97,
      "chip": "ym2612"
    },
    {
      "channel": 3,
      "note": 84,
      "start": 19.789,
      "duration": 0.0161,
      "velocity": 97,
      "chip": "ym2612"
    },
    {
      "channel": 2,
      "note": 60,
      "start": 19.7929,
      "duration": 0.0158,
      "velocity": 100,
      "chip": "ym2612"
    },
    {
      "channel": 1,
      "note": 74,
      "start": 19.8011,
      "duration": 0.0161,
      "velocity": 124,
      "chip": "ym2612"
    },
    {
      "channel": 0,
      "note": 43,
      "start": 19.8028,
      "duration": 0.0161,
      "velocity": 115,
      "chip": "ym2612"
    },
    {
      "channel": 4,
      "note": 81,
      "start": 19.804,
      "duration": 0.0161,
      "velocity": 97,
      "chip": "ym2612"
    },
    {
      "channel": 3,
      "note": 84,
      "start": 19.8051,
      "duration": 0.0161,
      "velocity": 97,
      "chip": "ym2612"
    },
    {
      "channel": 2,
      "note": 60,
      "start": 19.8087,
      "duration": 0.0137,
      "velocity": 100,
      "chip": "ym2612"
    },
    {
      "channel": 1,
      "note": 72,
      "start": 19.8172,
      "duration": 0.0161,
      "velocity": 124,
      "chip": "ym2612"
    },
    {
      "channel": 0,
      "note": 43,
      "start": 19.8189,
      "duration": 0.0161,
      "velocity": 115,
      "chip": "ym2612"
    },
    {
      "channel": 4,
      "note": 81,
      "start": 19.8201,
      "duration": 0.0161,
      "velocity": 97,
      "chip": "ym2612"
    },
    {
      "channel": 3,
      "note": 84,
      "start": 19.8213,
      "duration": 0.0161,
      "velocity": 97,
      "chip": "ym2612"
    },
    {
      "channel": 2,
      "note": 60,
      "start": 19.8224,
      "duration": 0.016,
      "velocity": 100,
      "chip": "ym2612"
    },
    {
      "channel": 1,
      "note": 71,
      "start": 19.8333,
      "duration": 0.0161,
      "velocity": 124,
      "chip": "ym2612"
    },
    {
      "channel": 0,
      "note": 44,
      "start": 19.835,
      "duration": 0.0161,
      "velocity": 115,
      "chip": "ym2612"
    },
    {
      "channel": 4,
      "note": 81,
      "start": 19.8362,
      "duration": 0.0161,
      "velocity": 97,
      "chip": "ym2612"
    },
    {
      "channel": 3,
      "note": 84,
      "start": 19.8374,
      "duration": 0.0161,
      "velocity": 97,
      "chip": "ym2612"
    },
    {
      "channel": 2,
      "note": 60,
      "start": 19.8385,
      "duration": 0.0161,
      "velocity": 100,
      "chip": "ym2612"
    },
    {
      "channel": 1,
      "note": 70,
      "start": 19.8493,
      "duration": 0.0162,
      "velocity": 124,
      "chip": "ym2612"
    },
    {
      "channel": 0,
      "note": 44,
      "start": 19.8511,
      "duration": 0.0161,
      "velocity": 115,
      "chip": "ym2612"
    },
    {
      "channel": 4,
      "note": 81,
      "start": 19.8523,
      "duration": 0.0161,
      "velocity": 97,
      "chip": "ym2612"
    },
    {
      "channel": 3,
      "note": 84,
      "start": 19.8535,
      "duration": 0.0161,
      "velocity": 97,
      "chip": "ym2612"
    },
    {
      "channel": 2,
      "note": 60,
      "start": 19.8546,
      "duration": 0.0161,
      "velocity": 100,
      "chip": "ym2612"
    },
    {
      "channel": 1,
      "note": 69,
      "start": 19.8655,
      "duration": 0.0161,
      "velocity": 124,
      "chip": "ym2612"
    },
    {
      "channel": 0,
      "note": 44,
      "start": 19.8672,
      "duration": 0.0161,
      "velocity": 115,
      "chip": "ym2612"
    },
    {
      "channel": 4,
      "note": 81,
      "start": 19.8684,
      "duration": 0.0161,
      "velocity": 97,
      "chip": "ym2612"
    },
    {
      "channel": 3,
      "note": 84,
      "start": 19.8696,
      "duration": 0.0161,
      "velocity": 97,
      "chip": "ym2612"
    },
    {
      "channel": 2,
      "note": 60,
      "start": 19.8707,
      "duration": 0.0161,
      "velocity": 100,
      "chip": "ym2612"
    },
    {
      "channel": 1,
      "note": 68,
      "start": 19.8816,
      "duration": 0.0161,
      "velocity": 124,
      "chip": "ym2612"
    },
    {
      "channel": 0,
      "note": 45,
      "start": 19.8833,
      "duration": 0.0161,
      "velocity": 115,
      "chip": "ym2612"
    },
    {
      "channel": 4,
      "note": 81,
      "start": 19.8845,
      "duration": 0.0161,
      "velocity": 97,
      "chip": "ym2612"
    },
    {
      "channel": 3,
      "note": 84,
      "start": 19.8857,
      "duration": 0.0161,
      "velocity": 97,
      "chip": "ym2612"
    },
    {
      "channel": 2,
      "note": 60,
      "start": 19.8868,
      "duration": 0.0161,
      "velocity": 100,
      "chip": "ym2612"
    },
    {
      "channel": 1,
      "note": 66,
      "start": 19.8977,
      "duration": 0.0161,
      "velocity": 124,
      "chip": "ym2612"
    },
    {
      "channel": 0,
      "note": 45,
      "start": 19.8994,
      "duration": 0.0161,
      "velocity": 115,
      "chip": "ym2612"
    },
    {
      "channel": 4,
      "note": 81,
      "start": 19.9006,
      "duration": 0.0161,
      "velocity": 97,
      "chip": "ym2612"
    },
    {
      "channel": 3,
      "note": 84,
      "start": 19.9018,
      "duration": 0.0161,
      "velocity": 97,
      "chip": "ym2612"
    },
    {
      "channel": 2,
      "note": 60,
      "start": 19.9029,
      "duration": 0.0161,
      "velocity": 100,
      "chip": "ym2612"
    },
    {
      "channel": 1,
      "note": 65,
      "start": 19.9138,
      "duration": 0.0161,
      "velocity": 124,
      "chip": "ym2612"
    },
    {
      "channel": 0,
      "note": 46,
      "start": 19.9155,
      "duration": 0.0161,
      "velocity": 115,
      "chip": "ym2612"
    },
    {
      "channel": 4,
      "note": 81,
      "start": 19.9167,
      "duration": 0.0161,
      "velocity": 97,
      "chip": "ym2612"
    },
    {
      "channel": 3,
      "note": 84,
      "start": 19.9179,
      "duration": 0.0161,
      "velocity": 97,
      "chip": "ym2612"
    },
    {
      "channel": 1,
      "note": 64,
      "start": 19.9299,
      "duration": 0.0161,
      "velocity": 124,
      "chip": "ym2612"
    },
    {
      "channel": 0,
      "note": 46,
      "start": 19.9316,
      "duration": 0.0179,
      "velocity": 115,
      "chip": "ym2612"
    },
    {
      "channel": 4,
      "note": 81,
      "start": 19.9328,
      "duration": 0.0179,
      "velocity": 97,
      "chip": "ym2612"
    },
    {
      "channel": 3,
      "note": 84,
      "start": 19.934,
      "duration": 0.0179,
      "velocity": 97,
      "chip": "ym2612"
    },
    {
      "channel": 1,
      "note": 62,
      "start": 19.946,
      "duration": 0.0161,
      "velocity": 124,
      "chip": "ym2612"
    },
    {
      "channel": 0,
      "note": 36,
      "start": 19.9495,
      "duration": 0.0144,
      "velocity": 115,
      "chip": "ym2612"
    },
    {
      "channel": 4,
      "note": 81,
      "start": 19.9507,
      "duration": 0.0144,
      "velocity": 97,
      "chip": "ym2612"
    },
    {
      "channel": 3,
      "note": 84,
      "start": 19.9519,
      "duration": 0.0143,
      "velocity": 97,
      "chip": "ym2612"
    },
    {
      "channel": 2,
      "note": 56,
      "start": 19.9533,
      "duration": 0.0141,
      "velocity": 100,
      "chip": "ym2612"
    },
    {
      "channel": 1,
      "note": 61,
      "start": 19.9621,
      "duration": 0.0161,
      "velocity": 124,
      "chip": "ym2612"
    },
    {
      "channel": 0,
      "note": 36,
      "start": 19.9639,
      "duration": 0.016,
      "velocity": 115,
      "chip": "ym2612"
    },
    {
      "channel": 4,
      "note": 81,
      "start": 19.9651,
      "duration": 0.016,
      "velocity": 97,
      "chip": "ym2612"
    },
    {
      "channel": 3,
      "note": 84,
      "start": 19.9662,
      "duration": 0.016,
      "velocity": 97,
      "chip": "ym2612"
    },
    {
      "channel": 2,
      "note": 56,
      "start": 19.9674,
      "duration": 0.016,
      "velocity": 100,
      "chip": "ym2612"
    },
    {
      "channel": 1,
      "note": 60,
      "start": 19.9782,
      "duration": 0.0161,
      "velocity": 124,
      "chip": "ym2612"
    },
    {
      "channel": 0,
      "note": 37,
      "start": 19.9799,
      "duration": 0.0161,
      "velocity": 115,
      "chip": "ym2612"
    },
    {
      "channel": 4,
      "note": 81,
      "start": 19.9811,
      "duration": 0.0161,
      "velocity": 97,
      "chip": "ym2612"
    },
    {
      "channel": 3,
      "note": 84,
      "start": 19.9822,
      "duration": 0.0161,
      "velocity": 97,
      "chip": "ym2612"
    },
    {
      "channel": 2,
      "note": 56,
      "start": 19.9834,
      "duration": 0.0161,
      "velocity": 100,
      "chip": "ym2612"
    },
    {
      "channel": 1,
      "note": 59,
      "start": 19.9943,
      "duration": 0.0162,
      "velocity": 124,
      "chip": "ym2612"
    },
    {
      "channel": 0,
      "note": 37,
      "start": 19.996,
      "duration": 0.0161,
      "velocity": 115,
      "chip": "ym2612"
    },
    {
      "channel": 4,
      "note": 81,
      "start": 19.9972,
      "duration": 0.0162,
      "velocity": 97,
      "chip": "ym2612"
    },
    {
      "channel": 3,
      "note": 84,
      "start": 19.9983,
      "duration": 0.0161,
      "velocity": 97,
      "chip": "ym2612"
    },
    {
      "channel": 2,
      "note": 56,
      "start": 19.9995,
      "duration": 0.0162,
      "velocity": 100,
      "chip": "ym2612"
    },
    {
      "channel": 1,
      "note": 57,
      "start": 20.0104,
      "duration": 0.0161,
      "velocity": 124,
      "chip": "ym2612"
    },
    {
      "channel": 0,
      "note": 38,
      "start": 20.0121,
      "duration": 0.0161,
      "velocity": 115,
      "chip": "ym2612"
    },
    {
      "channel": 4,
      "note": 81,
      "start": 20.0134,
      "duration": 0.0161,
      "velocity": 97,
      "chip": "ym2612"
    },
    {
      "channel": 3,
      "note": 84,
      "start": 20.0145,
      "duration": 0.0161,
      "velocity": 97,
      "chip": "ym2612"
    },
    {
      "channel": 2,
      "note": 56,
      "start": 20.0156,
      "duration": 0.0161,
      "velocity": 100,
      "chip": "ym2612"
    },
    {
      "channel": 1,
      "note": 56,
      "start": 20.0265,
      "duration": 0.0174,
      "velocity": 124,
      "chip": "ym2612"
    },
    {
      "channel": 0,
      "note": 38,
      "start": 20.0282,
      "duration": 0.0174,
      "velocity": 115,
      "chip": "ym2612"
    },
    {
      "channel": 4,
      "note": 81,
      "start": 20.0294,
      "duration": 0.0174,
      "velocity": 97,
      "chip": "ym2612"
    },
    {
      "channel": 3,
      "note": 84,
      "start": 20.0306,
      "duration": 0.0174,
      "velocity": 97,
      "chip": "ym2612"
    },
    {
      "channel": 2,
      "note": 56,
      "start": 20.0317,
      "duration": 0.0174,
      "velocity": 100,
      "chip": "ym2612"
    },
    {
      "channel": 1,
      "note": 55,
      "start": 20.0439,
      "duration": 0.0166,
      "velocity": 124,
      "chip": "ym2612"
    },
    {
      "channel": 0,
      "note": 39,
      "start": 20.0457,
      "duration": 0.0166,
      "velocity": 115,
      "chip": "ym2612"
    },
    {
      "channel": 4,
      "note": 81,
      "start": 20.0469,
      "duration": 0.0166,
      "velocity": 97,
      "chip": "ym2612"
    },
    {
      "channel": 3,
      "note": 84,
      "start": 20.048,
      "duration": 0.0167,
      "velocity": 97,
      "chip": "ym2612"
    },
    {
      "channel": 2,
      "note": 56,
      "start": 20.0492,
      "duration": 0.0166,
      "velocity": 100,
      "chip": "ym2612"
    },
    {
      "channel": 1,
      "note": 53,
      "start": 20.0605,
      "duration": 0.0163,
      "velocity": 124,
      "chip": "ym2612"
    },
    {
      "channel": 0,
      "note": 39,
      "start": 20.0623,
      "duration": 0.0163,
      "velocity": 115,
      "chip": "ym2612"
    },
    {
      "channel": 4,
      "note": 81,
      "start": 20.0635,
      "duration": 0.0163,
      "velocity": 97,
      "chip": "ym2612"
    },
    {
      "channel": 3,
      "note": 84,
      "start": 20.0647,
      "duration": 0.0163,
      "velocity": 97,
      "chip": "ym2612"
    },
    {
      "channel": 2,
      "note": 56,
      "start": 20.0658,
      "duration": 0.0163,
      "velocity": 100,
      "chip": "ym2612"
    },
    {
      "channel": 1,
      "note": 52,
      "start": 20.0769,
      "duration": 0.0143,
      "velocity": 124,
      "chip": "ym2612"
    },
    {
      "channel": 0,
      "note": 40,
      "start": 20.0786,
      "duration": 0.0143,
      "velocity": 115,
      "chip": "ym2612"
    },
    {
      "channel": 4,
      "note": 81,
      "start": 20.0798,
      "duration": 0.0143,
      "velocity": 97,
      "chip": "ym2612"
    },
    {
      "channel": 3,
      "note": 84,
      "start": 20.081,
      "duration": 0.0143,
      "velocity": 97,
      "chip": "ym2612"
    },
    {
      "channel": 2,
      "note": 56,
      "start": 20.0821,
      "duration": 0.0143,
      "velocity": 100,
      "chip": "ym2612"
    },
    {
      "channel": 1,
      "note": 51,
      "start": 20.0912,
      "duration": 0.0178,
      "velocity": 1,
      "chip": "ym2612"
    },
    {
      "channel": 0,
      "note": 40,
      "start": 20.0929,
      "duration": 0.0178,
      "velocity": 115,
      "chip": "ym2612"
    },
    {
      "channel": 4,
      "note": 81,
      "start": 20.0941,
      "duration": 0.0178,
      "velocity": 97,
      "chip": "ym2612"
    },
    {
      "channel": 3,
      "note": 84,
      "start": 20.0953,
      "duration": 0.0178,
      "velocity": 97,
      "chip": "ym2612"
    },
    {
      "channel": 2,
      "note": 56,
      "start": 20.0964,
      "duration": 0.0178,
      "velocity": 100,
      "chip": "ym2612"
    },
    {
      "channel": 0,
      "note": 40,
      "start": 20.1107,
      "duration": 0.0153,
      "velocity": 115,
      "chip": "ym2612"
    },
    {
      "channel": 4,
      "note": 81,
      "start": 20.1119,
      "duration": 0.0153,
      "velocity": 97,
      "chip": "ym2612"
    },
    {
      "channel": 3,
      "note": 84,
      "start": 20.113,
      "duration": 0.0153,
      "velocity": 97,
      "chip": "ym2612"
    },
    {
      "channel": 0,
      "note": 41,
      "start": 20.1259,
      "duration": 0.0175,
      "velocity": 115,
      "chip": "ym2612"
    },
    {
      "channel": 4,
      "note": 81,
      "start": 20.1271,
      "duration": 0.0175,
      "velocity": 97,
      "chip": "ym2612"
    },
    {
      "channel": 3,
      "note": 84,
      "start": 20.1283,
      "duration": 0.0175,
      "velocity": 97,
      "chip": "ym2612"
    },
    {
      "channel": 0,
      "note": 36,
      "start": 20.1434,
      "duration": 0.012,
      "velocity": 115,
      "chip": "ym2612"
    },
    {
      "channel": 4,
      "note": 81,
      "start": 20.1446,
      "duration": 0.0123,
      "velocity": 97,
      "chip": "ym2612"
    },
    {
      "channel": 3,
      "note": 84,
      "start": 20.1458,
      "duration": 0.0124,
      "velocity": 97,
      "chip": "ym2612"
    },
    {
      "channel": 2,
      "note": 53,
      "start": 20.1473,
      "duration": 0.012,
      "velocity": 100,
      "chip": "ym2612"
    },
    {
      "channel": 1,
      "note": 41,
      "start": 20.1488,
      "duration": 0.0117,
      "velocity": 100,
      "chip": "ym2612"
    },
    {
      "channel": 0,
      "note": 36,
      "start": 20.1555,
      "duration": 0.016,
      "velocity": 115,
      "chip": "ym2612"
    },
    {
      "channel": 4,
      "note": 81,
      "start": 20.157,
      "duration": 0.0185,
      "velocity": 97,
      "chip": "ym2612"
    },
    {
      "channel": 3,
      "note": 84,
      "start": 20.1581,
      "duration": 0.0184,
      "velocity": 97,
      "chip": "ym2612"
    },
    {
      "channel": 2,
      "note": 53,
      "start": 20.1593,
      "duration": 0.0184,
      "velocity": 100,
      "chip": "ym2612"
    },
    {
      "channel": 1,
      "note": 41,
      "start": 20.1605,
      "duration": 0.0184,
      "velocity": 100,
      "chip": "ym2612"
    },
    {
      "channel": 0,
      "note": 37,
      "start": 20.1715,
      "duration": 0.0161,
      "velocity": 115,
      "chip": "ym2612"
    },
    {
      "channel": 4,
      "note": 81,
      "start": 20.1754,
      "duration": 0.0134,
      "velocity": 97,
      "chip": "ym2612"
    },
    {
      "channel": 3,
      "note": 84,
      "start": 20.1766,
      "duration": 0.0161,
      "velocity": 97,
      "chip": "ym2612"
    },
    {
      "channel": 2,
      "note": 53,
      "start": 20.1777,
      "duration": 0.0161,
      "velocity": 100,
      "chip": "ym2612"
    },
    {
      "channel": 1,
      "note": 41,
      "start": 20.1789,
      "duration": 0.0161,
      "velocity": 100,
      "chip": "ym2612"
    },
    {
      "channel": 0,
      "note": 37,
      "start": 20.1876,
      "duration": 0.0161,
      "velocity": 115,
      "chip": "ym2612"
    },
    {
      "channel": 4,
      "note": 81,
      "start": 20.1888,
      "duration": 0.0161,
      "velocity": 97,
      "chip": "ym2612"
    },
    {
      "channel": 3,
      "note": 84,
      "start": 20.1927,
      "duration": 0.0158,
      "velocity": 97,
      "chip": "ym2612"
    },
    {
      "channel": 2,
      "note": 53,
      "start": 20.1938,
      "duration": 0.0158,
      "velocity": 100,
      "chip": "ym2612"
    },
    {
      "channel": 1,
      "note": 41,
      "start": 20.195,
      "duration": 0.0158,
      "velocity": 100,
      "chip": "ym2612"
    },
    {
      "channel": 0,
      "note": 38,
      "start": 20.2037,
      "duration": 0.0161,
      "velocity": 115,
      "chip": "ym2612"
    },
    {
      "channel": 4,
      "note": 81,
      "start": 20.2049,
      "duration": 0.0161,
      "velocity": 97,
      "chip": "ym2612"
    },
    {
      "channel": 3,
      "note": 84,
      "start": 20.2085,
      "duration": 0.0137,
      "velocity": 97,
      "chip": "ym2612"
    },
    {
      "channel": 2,
      "note": 53,
      "start": 20.2096,
      "duration": 0.014,
      "velocity": 100,
      "chip": "ym2612"
    },
    {
      "channel": 1,
      "note": 41,
      "start": 20.2107,
      "duration": 0.014,
      "velocity": 100,
      "chip": "ym2612"
    },
    {
      "channel": 0,
      "note": 38,
      "start": 20.2198,
      "duration": 0.0161,
      "velocity": 115,
      "chip": "ym2612"
    },
    {
      "channel": 4,
      "note": 81,
      "start": 20.221,
      "duration": 0.0161,
      "velocity": 97,
      "chip": "ym2612"
    },
    {
      "channel": 3,
      "note": 84,
      "start": 20.2221,
      "duration": 0.0161,
      "velocity": 97,
      "chip": "ym2612"
    },
    {
      "channel": 2,
      "note": 53,
      "start": 20.2236,
      "duration": 0.0185,
      "velocity": 100,
      "chip": "ym2612"
    },
    {
      "channel": 1,
      "note": 41,
      "start": 20.2247,
      "duration": 0.0185,
      "velocity": 100,
      "chip": "ym2612"
    },
    {
      "channel": 0,
      "note": 39,
      "start": 20.2359,
      "duration": 0.0161,
      "velocity": 115,
      "chip": "ym2612"
    },
    {
      "channel": 4,
      "note": 81,
      "start": 20.2371,
      "duration": 0.0161,
      "velocity": 97,
      "chip": "ym2612"
    },
    {
      "channel": 3,
      "note": 84,
      "start": 20.2382,
      "duration": 0.0161,
      "velocity": 97,
      "chip": "ym2612"
    },
    {
      "channel": 2,
      "note": 53,
      "start": 20.2421,
      "duration": 0.0134,
      "velocity": 100,
      "chip": "ym2612"
    },
    {
      "channel": 1,
      "note": 41,
      "start": 20.2432,
      "duration": 0.0161,
      "velocity": 100,
      "chip": "ym2612"
    },
    {
      "channel": 0,
      "note": 39,
      "start": 20.252,
      "duration": 0.0161,
      "velocity": 115,
      "chip": "ym2612"
    },
    {
      "channel": 4,
      "note": 81,
      "start": 20.2532,
      "duration": 0.0161,
      "velocity": 97,
      "chip": "ym2612"
    },
    {
      "channel": 3,
      "note": 84,
      "start": 20.2543,
      "duration": 0.0161,
      "velocity": 97,
      "chip": "ym2612"
    },
    {
      "channel": 2,
      "note": 53,
      "start": 20.2555,
      "duration": 0.0161,
      "velocity": 100,
      "chip": "ym2612"
    },
    {
      "channel": 1,
      "note": 41,
      "start": 20.2593,
      "duration": 0.0157,
      "velocity": 100,
      "chip": "ym2612"
    },
    {
      "channel": 0,
      "note": 40,
      "start": 20.268,
      "duration": 0.0162,
      "velocity": 115,
      "chip": "ym2612"
    },
    {
      "channel": 4,
      "note": 81,
      "start": 20.2693,
      "duration": 0.0161,
      "velocity": 97,
      "chip": "ym2612"
    },
    {
      "channel": 3,
      "note": 84,
      "start": 20.2704,
      "duration": 0.0162,
      "velocity": 97,
      "chip": "ym2612"
    },
    {
      "channel": 2,
      "note": 53,
      "start": 20.2716,
      "duration": 0.0161,
      "velocity": 100,
      "chip": "ym2612"
    },
    {
      "channel": 1,
      "note": 41,
      "start": 20.2751,
      "duration": 0.0137,
      "velocity": 100,
      "chip": "ym2612"
    },
    {
      "channel": 0,
      "note": 40,
      "start": 20.2842,
      "duration": 0.0161,
      "velocity": 115,
      "chip": "ym2612"
    },
    {
      "channel": 4,
      "note": 81,
      "start": 20.2854,
      "duration": 0.0161,
      "velocity": 97,
      "chip": "ym2612"
    },
    {
      "channel": 3,
      "note": 84,
      "start": 20.2866,
      "duration": 0.0161,
      "velocity": 97,
      "chip": "ym2612"
    },
    {
      "channel": 2,
      "note": 53,
      "start": 20.2876,
      "duration": 0.0162,
      "velocity": 100,
      "chip": "ym2612"
    },
    {
      "channel": 1,
      "note": 41,
      "start": 20.2888,
      "duration": 0.0161,
      "velocity": 100,
      "chip": "ym2612"
    },
    {
      "channel": 0,
      "note": 40,
      "start": 20.3003,
      "duration": 0.0161,
      "velocity": 115,
      "chip": "ym2612"
    },
    {
      "channel": 4,
      "note": 81,
      "start": 20.3015,
      "duration": 0.0162,
      "velocity": 97,
      "chip": "ym2612"
    },
    {
      "channel": 3,
      "note": 84,
      "start": 20.3027,
      "duration": 0.0161,
      "velocity": 97,
      "chip": "ym2612"
    },
    {
      "channel": 0,
      "note": 41,
      "start": 20.3164,
      "duration": 0.0161,
      "velocity": 115,
      "chip": "ym2612"
    },
    {
      "channel": 4,
      "note": 81,
      "start": 20.3176,
      "duration": 0.0161,
      "velocity": 97,
      "chip": "ym2612"
    },
    {
      "channel": 3,
      "note": 84,
      "start": 20.3188,
      "duration": 0.0161,
      "velocity": 97,
      "chip": "ym2612"
    },
    {
      "channel": 0,
      "note": 41,
      "start": 20.3325,
      "duration": 0.0161,
      "velocity": 115,
      "chip": "ym2612"
    },
    {
      "channel": 4,
      "note": 81,
      "start": 20.3337,
      "duration": 0.0161,
      "velocity": 97,
      "chip": "ym2612"
    },
    {
      "channel": 3,
      "note": 84,
      "start": 20.3349,
      "duration": 0.0161,
      "velocity": 97,
      "chip": "ym2612"
    },
    {
      "channel": 2,
      "note": 60,
      "start": 20.3363,
      "duration": 0.0158,
      "velocity": 100,
      "chip": "ym2612"
    },
    {
      "channel": 1,
      "note": 48,
      "start": 20.3376,
      "duration": 0.0156,
      "velocity": 100,
      "chip": "ym2612"
    },
    {
      "channel": 0,
      "note": 42,
      "start": 20.3486,
      "duration": 0.0161,
      "velocity": 115,
      "chip": "ym2612"
    },
    {
      "channel": 4,
      "note": 81,
      "start": 20.3498,
      "duration": 0.0161,
      "velocity": 97,
      "chip": "ym2612"
    },
    {
      "channel": 3,
      "note": 84,
      "start": 20.351,
      "duration": 0.0161,
      "velocity": 97,
      "chip": "ym2612"
    },
    {
      "channel": 2,
      "note": 60,
      "start": 20.3521,
      "duration": 0.0161,
      "velocity": 100,
      "chip": "ym2612"
    },
    {
      "channel": 1,
      "note": 48,
      "start": 20.3533,
      "duration": 0.016,
      "velocity": 100,
      "chip": "ym2612"
    },
    {
      "channel": 0,
      "note": 42,
      "start": 20.3647,
      "duration": 0.0161,
      "velocity": 115,
      "chip": "ym2612"
    },
    {
      "channel": 4,
      "note": 81,
      "start": 20.3659,
      "duration": 0.0161,
      "velocity": 97,
      "chip": "ym2612"
    },
    {
      "channel": 3,
      "note": 84,
      "start": 20.367,
      "duration": 0.0161,
      "velocity": 97,
      "chip": "ym2612"
    },
    {
      "channel": 2,
      "note": 60,
      "start": 20.3682,
      "duration": 0.0161,
      "velocity": 100,
      "chip": "ym2612"
    },
    {
      "channel": 1,
      "note": 48,
      "start": 20.3693,
      "duration": 0.0161,
      "velocity": 100,
      "chip": "ym2612"
    },
    {
      "channel": 0,
      "note": 43,
      "start": 20.3808,
      "duration": 0.0161,
      "velocity": 115,
      "chip": "ym2612"
    },
    {
      "channel": 4,
      "note": 81,
      "start": 20.382,
      "duration": 0.0161,
      "velocity": 97,
      "chip": "ym2612"
    },
    {
      "channel": 3,
      "note": 84,
      "start": 20.3831,
      "duration": 0.0161,
      "velocity": 97,
      "chip": "ym2612"
    },
    {
      "channel": 2,
      "note": 60,
      "start": 20.3843,
      "duration": 0.0161,
      "velocity": 100,
      "chip": "ym2612"
    },
    {
      "channel": 1,
      "note": 48,
      "start": 20.3854,
      "duration": 0.0161,
      "velocity": 100,
      "chip": "ym2612"
    },
    {
      "channel": 0,
      "note": 43,
      "start": 20.3969,
      "duration": 0.0161,
      "velocity": 115,
      "chip": "ym2612"
    },
    {
      "channel": 4,
      "note": 81,
      "start": 20.3981,
      "duration": 0.0161,
      "velocity": 97,
      "chip": "ym2612"
    },
    {
      "channel": 3,
      "note": 84,
      "start": 20.3992,
      "duration": 0.0161,
      "velocity": 97,
      "chip": "ym2612"
    },
    {
      "channel": 2,
      "note": 60,
      "start": 20.4004,
      "duration": 0.0161,
      "velocity": 100,
      "chip": "ym2612"
    },
    {
      "channel": 1,
      "note": 48,
      "start": 20.4015,
      "duration": 0.0161,
      "velocity": 100,
      "chip": "ym2612"
    },
    {
      "channel": 0,
      "note": 44,
      "start": 20.413,
      "duration": 0.0161,
      "velocity": 115,
      "chip": "ym2612"
    },
    {
      "channel": 4,
      "note": 81,
      "start": 20.4142,
      "duration": 0.0161,
      "velocity": 97,
      "chip": "ym2612"
    },
    {
      "channel": 3,
      "note": 84,
      "start": 20.4153,
      "duration": 0.0161,
      "velocity": 97,
      "chip": "ym2612"
    },
    {
      "channel": 2,
      "note": 60,
      "start": 20.4165,
      "duration": 0.0161,
      "velocity": 100,
      "chip": "ym2612"
    },
    {
      "channel": 1,
      "note": 48,
      "start": 20.4176,
      "duration": 0.0161,
      "velocity": 100,
      "chip": "ym2612"
    },
    {
      "channel": 0,
      "note": 44,
      "start": 20.4291,
      "duration": 0.0161,
      "velocity": 115,
      "chip": "ym2612"
    },
    {
      "channel": 4,
      "note": 81,
      "start": 20.4303,
      "duration": 0.0161,
      "velocity": 97,
      "chip": "ym2612"
    },
    {
      "channel": 3,
      "note": 84,
      "start": 20.4315,
      "duration": 0.0161,
      "velocity": 97,
      "chip": "ym2612"
    },
    {
      "channel": 2,
      "note": 60,
      "start": 20.4326,
      "duration": 0.0161,
      "velocity": 100,
      "chip": "ym2612"
    },
    {
      "channel": 1,
      "note": 48,
      "start": 20.4337,
      "duration": 0.0161,
      "velocity": 100,
      "chip": "ym2612"
    },
    {
      "channel": 0,
      "note": 44,
      "start": 20.4452,
      "duration": 0.0161,
      "velocity": 115,
      "chip": "ym2612"
    },
    {
      "channel": 4,
      "note": 81,
      "start": 20.4464,
      "duration": 0.0161,
      "velocity": 97,
      "chip": "ym2612"
    },
    {
      "channel": 3,
      "note": 84,
      "start": 20.4476,
      "duration": 0.0161,
      "velocity": 97,
      "chip": "ym2612"
    },
    {
      "channel": 2,
      "note": 60,
      "start": 20.4487,
      "duration": 0.0161,
      "velocity": 100,
      "chip": "ym2612"
    },
    {
      "channel": 1,
      "note": 48,
      "start": 20.4498,
      "duration": 0.0162,
      "velocity": 100,
      "chip": "ym2612"
    },
    {
      "channel": 0,
      "note": 45,
      "start": 20.4613,
      "duration": 0.0161,
      "velocity": 115,
      "chip": "ym2612"
    },
    {
      "channel": 4,
      "note": 81,
      "start": 20.4625,
      "duration": 0.0161,
      "velocity": 97,
      "chip": "ym2612"
    },
    {
      "channel": 3,
      "note": 84,
      "start": 20.4637,
      "duration": 0.0161,
      "velocity": 97,
      "chip": "ym2612"
    },
    {
      "channel": 2,
      "note": 60,
      "start": 20.4648,
      "duration": 0.0161,
      "velocity": 100,
      "chip": "ym2612"
    },
    {
      "channel": 1,
      "note": 48,
      "start": 20.466,
      "duration": 0.016,
      "velocity": 100,
      "chip": "ym2612"
    },
    {
      "channel": 0,
      "note": 45,
      "start": 20.4774,
      "duration": 0.0161,
      "velocity": 115,
      "chip": "ym2612"
    },
    {
      "channel": 4,
      "note": 81,
      "start": 20.4786,
      "duration": 0.0161,
      "velocity": 97,
      "chip": "ym2612"
    },
    {
      "channel": 3,
      "note": 84,
      "start": 20.4798,
      "duration": 0.0161,
      "velocity": 97,
      "chip": "ym2612"
    },
    {
      "channel": 2,
      "note": 60,
      "start": 20.4809,
      "duration": 0.0161,
      "velocity": 100,
      "chip": "ym2612"
    },
    {
      "channel": 1,
      "note": 48,
      "start": 20.482,
      "duration": 0.0161,
      "velocity": 100,
      "chip": "ym2612"
    },
    {
      "channel": 0,
      "note": 46,
      "start": 20.4935,
      "duration": 0.0171,
      "velocity": 115,
      "chip": "ym2612"
    },
    {
      "channel": 4,
      "note": 81,
      "start": 20.4947,
      "duration": 0.0171,
      "velocity": 97,
      "chip": "ym2612"
    },
    {
      "channel": 3,
      "note": 84,
      "start": 20.4959,
      "duration": 0.0172,
      "velocity": 97,
      "chip": "ym2612"
    },
    {
      "channel": 0,
      "note": 46,
      "start": 20.5106,
      "duration": 0.0202,
      "velocity": 115,
      "chip": "ym2612"
    },
    {
      "channel": 4,
      "note": 81,
      "start": 20.5118,
      "duration": 0.0202,
      "velocity": 97,
      "chip": "ym2612"
    },
    {
      "channel": 3,
      "note": 84,
      "start": 20.513,
      "duration": 0.0201,
      "velocity": 97,
      "chip": "ym2612"
    },
    {
      "channel": 1,
      "note": 78,
      "start": 20.5291,
      "duration": 0.0146,
      "velocity": 124,
      "chip": "ym2612"
    },
    {
      "channel": 0,
      "note": 47,
      "start": 20.5308,
      "duration": 0.0146,
      "velocity": 115,
      "chip": "ym2612"
    },
    {
      "channel": 4,
      "note": 81,
      "start": 20.532,
      "duration": 0.0146,
      "velocity": 97,
      "chip": "ym2612"
    },
    {
      "channel": 3,
      "note": 84,
      "start": 20.5331,
      "duration": 0.0146,
      "velocity": 97,
      "chip": "ym2612"
    },
    {
      "channel": 2,
      "note": 65,
      "start": 20.5345,
      "duration": 0.0144,
      "velocity": 100,
      "chip": "ym2612"
    },
    {
      "channel": 1,
      "note": 76,
      "start": 20.5436,
      "duration": 0.0145,
      "velocity": 124,
      "chip": "ym2612"
    },
    {
      "channel": 0,
      "note": 47,
      "start": 20.5454,
      "duration": 0.0146,
      "velocity": 115,
      "chip": "ym2612"
    },
    {
      "channel": 4,
      "note": 81,
      "start": 20.5466,
      "duration": 0.0145,
      "velocity": 97,
      "chip": "ym2612"
    },
    {
      "channel": 3,
      "note": 84,
      "start": 20.5477,
      "duration": 0.0146,
      "velocity": 97,
      "chip": "ym2612"
    },
    {
      "channel": 2,
      "note": 65,
      "start": 20.5489,
      "duration": 0.0144,
      "velocity": 100,
      "chip": "ym2612"
    },
    {
      "channel": 1,
      "note": 75,
      "start": 20.5581,
      "duration": 0.0186,
      "velocity": 124,
      "chip": "ym2612"
    },
    {
      "channel": 0,
      "note": 47,
      "start": 20.5599,
      "duration": 0.0185,
      "velocity": 115,
      "chip": "ym2612"
    },
    {
      "channel": 4,
      "note": 81,
      "start": 20.5611,
      "duration": 0.0186,
      "velocity": 97,
      "chip": "ym2612"
    },
    {
      "channel": 3,
      "note": 84,
      "start": 20.5623,
      "duration": 0.0185,
      "velocity": 97,
      "chip": "ym2612"
    },
    {
      "channel": 2,
      "note": 65,
      "start": 20.5634,
      "duration": 0.0186,
      "velocity": 100,
      "chip": "ym2612"
    },
    {
      "channel": 1,
      "note": 74,
      "start": 20.5767,
      "duration": 0.0161,
      "velocity": 124,
      "chip": "ym2612"
    },
    {
      "channel": 0,
      "note": 48,
      "start": 20.5784,
      "duration": 0.0161,
      "velocity": 115,
      "chip": "ym2612"
    },
    {
      "channel": 4,
      "note": 81,
      "start": 20.5796,
      "duration": 0.0161,
      "velocity": 97,
      "chip": "ym2612"
    },
    {
      "channel": 3,
      "note": 84,
      "start": 20.5808,
      "duration": 0.0161,
      "velocity": 97,
      "chip": "ym2612"
    },
    {
      "channel": 2,
      "note": 65,
      "start": 20.5819,
      "duration": 0.0161,
      "velocity": 100,
      "chip": "ym2612"
    },
    {
      "channel": 1,
      "note": 72,
      "start": 20.5928,
      "duration": 0.0157,
      "velocity": 124,
      "chip": "ym2612"
    },
    {
      "channel": 0,
      "note": 48,
      "start": 20.5945,
      "duration": 0.0157,
      "velocity": 115,
      "chip": "ym2612"
    },
    {
      "channel": 4,
      "note": 81,
      "start": 20.5957,
      "duration": 0.0157,
      "velocity": 97,
      "chip": "ym2612"
    },
    {
      "channel": 3,
      "note": 84,
      "start": 20.5969,
      "duration": 0.0157,
      "velocity": 97,
      "chip": "ym2612"
    },
    {
      "channel": 2,
      "note": 65,
      "start": 20.598,
      "duration": 0.0157,
      "velocity": 100,
      "chip": "ym2612"
    },
    {
      "channel": 1,
      "note": 71,
      "start": 20.6085,
      "duration": 0.0137,
      "velocity": 124,
      "chip": "ym2612"
    },
    {
      "channel": 0,
      "note": 49,
      "start": 20.6102,
      "duration": 0.0133,
      "velocity": 1,
      "chip": "ym2612"
    },
    {
      "channel": 4,
      "note": 81,
      "start": 20.6114,
      "duration": 0.0132,
      "velocity": 97,
      "chip": "ym2612"
    },
    {
      "channel": 3,
      "note": 84,
      "start": 20.6126,
      "duration": 0.0133,
      "velocity": 97,
      "chip": "ym2612"
    },
    {
      "channel": 2,
      "note": 65,
      "start": 20.6137,
      "duration": 0.0132,
      "velocity": 100,
      "chip": "ym2612"
    },
    {
      "channel": 1,
      "note": 70,
      "start": 20.6222,
      "duration": 0.0161,
      "velocity": 124,
      "chip": "ym2612"
    },
    {
      "channel": 4,
      "note": 81,
      "start": 20.6247,
      "duration": 0.0177,
      "velocity": 97,
      "chip": "ym2612"
    },
    {
      "channel": 3,
      "note": 84,
      "start": 20.6259,
      "duration": 0.0176,
      "velocity": 97,
      "chip": "ym2612"
    },
    {
      "channel": 2,
      "note": 65,
      "start": 20.627,
      "duration": 0.0177,
      "velocity": 100,
      "chip": "ym2612"
    },
    {
      "channel": 1,
      "note": 69,
      "start": 20.6383,
      "duration": 0.0161,
      "velocity": 124,
      "chip": "ym2612"
    },
    {
      "channel": 4,
      "note": 81,
      "start": 20.6424,
      "duration": 0.0134,
      "velocity": 97,
      "chip": "ym2612"
    },
    {
      "channel": 3,
      "note": 84,
      "start": 20.6435,
      "duration": 0.0162,
      "velocity": 97,
      "chip": "ym2612"
    },
    {
      "channel": 2,
      "note": 65,
      "start": 20.6446,
      "duration": 0.0161,
      "velocity": 100,
      "chip": "ym2612"
    },
    {
      "channel": 1,
      "note": 68,
      "start": 20.6544,
      "duration": 0.0161,
      "velocity": 124,
      "chip": "ym2612"
    },
    {
      "channel": 4,
      "note": 81,
      "start": 20.6557,
      "duration": 0.0161,
      "velocity": 97,
      "chip": "ym2612"
    },
    {
      "channel": 3,
      "note": 84,
      "start": 20.6597,
      "duration": 0.0157,
      "velocity": 97,
      "chip": "ym2612"
    },
    {
      "channel": 2,
      "note": 65,
      "start": 20.6607,
      "duration": 0.0158,
      "velocity": 100,
      "chip": "ym2612"
    },
    {
      "channel": 1,
      "note": 66,
      "start": 20.6705,
      "duration": 0.0161,
      "velocity": 124,
      "chip": "ym2612"
    },
    {
      "channel": 4,
      "note": 81,
      "start": 20.6718,
      "duration": 0.0161,
      "velocity": 97,
      "chip": "ym2612"
    },
    {
      "channel": 3,
      "note": 84,
      "start": 20.6754,
      "duration": 0.0137,
      "velocity": 97,
      "chip": "ym2612"
    },
    {
      "channel": 2,
      "note": 65,
      "start": 20.6765,
      "duration": 0.014,
      "velocity": 100,
      "chip": "ym2612"
    },
    {
      "channel": 1,
      "note": 65,
      "start": 20.6866,
      "duration": 0.0161,
      "velocity": 124,
      "chip": "ym2612"
    },
    {
      "channel": 4,
      "note": 81,
      "start": 20.6879,
      "duration": 0.0161,
      "velocity": 97,
      "chip": "ym2612"
    },
    {
      "channel": 3,
      "note": 84,
      "start": 20.689,
      "duration": 0.0162,
      "velocity": 97,
      "chip": "ym2612"
    },
    {
      "channel": 1,
      "note": 64,
      "start": 20.7027,
      "duration": 0.0161,
      "velocity": 124,
      "chip": "ym2612"
    },
    {
      "channel": 4,
      "note": 81,
      "start": 20.704,
      "duration": 0.0162,
      "velocity": 97,
      "chip": "ym2612"
    },
    {
      "channel": 3,
      "note": 84,
      "start": 20.7052,
      "duration": 0.0161,
      "velocity": 97,
      "chip": "ym2612"
    },
    {
      "channel": 1,
      "note": 62,
      "start": 20.7188,
      "duration": 0.0161,
      "velocity": 124,
      "chip": "ym2612"
    },
    {
      "channel": 4,
      "note": 81,
      "start": 20.7202,
      "duration": 0.016,
      "velocity": 97,
      "chip": "ym2612"
    },
    {
      "channel": 3,
      "note": 84,
      "start": 20.7213,
      "duration": 0.0161,
      "velocity": 97,
      "chip": "ym2612"
    },
    {
      "channel": 2,
      "note": 63,
      "start": 20.7255,
      "duration": 0.0131,
      "velocity": 100,
      "chip": "ym2612"
    },
    {
      "channel": 1,
      "note": 61,
      "start": 20.7349,
      "duration": 0.0161,
      "velocity": 124,
      "chip": "ym2612"
    },
    {
      "channel": 4,
      "note": 81,
      "start": 20.7362,
      "duration": 0.0161,
      "velocity": 97,
      "chip": "ym2612"
    },
    {
      "channel": 3,
      "note": 84,
      "start": 20.7374,
      "duration": 0.0161,
      "velocity": 97,
      "chip": "ym2612"
    },
    {
      "channel": 2,
      "note": 63,
      "start": 20.7385,
      "duration": 0.016,
      "velocity": 100,
      "chip": "ym2612"
    },
    {
      "channel": 1,
      "note": 60,
      "start": 20.751,
      "duration": 0.0162,
      "velocity": 124,
      "chip": "ym2612"
    },
    {
      "channel": 4,
      "note": 81,
      "start": 20.7523,
      "duration": 0.0161,
      "velocity": 97,
      "chip": "ym2612"
    },
    {
      "channel": 3,
      "note": 84,
      "start": 20.7535,
      "duration": 0.0161,
      "velocity": 97,
      "chip": "ym2612"
    },
    {
      "channel": 2,
      "note": 63,
      "start": 20.7546,
      "duration": 0.0161,
      "velocity": 100,
      "chip": "ym2612"
    },
    {
      "channel": 1,
      "note": 59,
      "start": 20.7672,
      "duration": 0.0161,
      "velocity": 124,
      "chip": "ym2612"
    },
    {
      "channel": 4,
      "note": 81,
      "start": 20.7684,
      "duration": 0.0161,
      "velocity": 97,
      "chip": "ym2612"
    },
    {
      "channel": 3,
      "note": 84,
      "start": 20.7696,
      "duration": 0.0161,
      "velocity": 97,
      "chip": "ym2612"
    },
    {
      "channel": 2,
      "note": 63,
      "start": 20.7707,
      "duration": 0.0161,
      "velocity": 100,
      "chip": "ym2612"
    },
    {
      "channel": 1,
      "note": 57,
      "start": 20.7833,
      "duration": 0.0161,
      "velocity": 124,
      "chip": "ym2612"
    },
    {
      "channel": 4,
      "note": 81,
      "start": 20.7845,
      "duration": 0.0161,
      "velocity": 97,
      "chip": "ym2612"
    },
    {
      "channel": 3,
      "note": 84,
      "start": 20.7857,
      "duration": 0.0161,
      "velocity": 97,
      "chip": "ym2612"
    },
    {
      "channel": 2,
      "note": 63,
      "start": 20.7868,
      "duration": 0.0161,
      "velocity": 100,
      "chip": "ym2612"
    },
    {
      "channel": 1,
      "note": 56,
      "start": 20.7993,
      "duration": 0.0161,
      "velocity": 124,
      "chip": "ym2612"
    },
    {
      "channel": 4,
      "note": 81,
      "start": 20.8006,
      "duration": 0.0161,
      "velocity": 97,
      "chip": "ym2612"
    },
    {
      "channel": 3,
      "note": 84,
      "start": 20.8018,
      "duration": 0.0161,
      "velocity": 97,
      "chip": "ym2612"
    },
    {
      "channel": 2,
      "note": 63,
      "start": 20.8029,
      "duration": 0.0161,
      "velocity": 100,
      "chip": "ym2612"
    },
    {
      "channel": 1,
      "note": 55,
      "start": 20.8154,
      "duration": 0.0161,
      "velocity": 124,
      "chip": "ym2612"
    },
    {
      "channel": 4,
      "note": 81,
      "start": 20.8167,
      "duration": 0.0161,
      "velocity": 97,
      "chip": "ym2612"
    },
    {
      "channel": 3,
      "note": 84,
      "start": 20.8179,
      "duration": 0.0161,
      "velocity": 97,
      "chip": "ym2612"
    },
    {
      "channel": 2,
      "note": 63,
      "start": 20.819,
      "duration": 0.0161,
      "velocity": 100,
      "chip": "ym2612"
    },
    {
      "channel": 1,
      "note": 53,
      "start": 20.8315,
      "duration": 0.0161,
      "velocity": 124,
      "chip": "ym2612"
    },
    {
      "channel": 4,
      "note": 81,
      "start": 20.8328,
      "duration": 0.0161,
      "velocity": 97,
      "chip": "ym2612"
    },
    {
      "channel": 3,
      "note": 84,
      "start": 20.834,
      "duration": 0.0161,
      "velocity": 97,
      "chip": "ym2612"
    },
    {
      "channel": 2,
      "note": 63,
      "start": 20.8351,
      "duration": 0.0162,
      "velocity": 100,
      "chip": "ym2612"
    },
    {
      "channel": 1,
      "note": 52,
      "start": 20.8476,
      "duration": 0.0161,
      "velocity": 124,
      "chip": "ym2612"
    },
    {
      "channel": 4,
      "note": 81,
      "start": 20.8489,
      "duration": 0.0161,
      "velocity": 97,
      "chip": "ym2612"
    },
    {
      "channel": 3,
      "note": 84,
      "start": 20.8501,
      "duration": 0.0161,
      "velocity": 97,
      "chip": "ym2612"
    },
    {
      "channel": 2,
      "note": 63,
      "start": 20.8513,
      "duration": 0.016,
      "velocity": 100,
      "chip": "ym2612"
    },
    {
      "channel": 1,
      "note": 51,
      "start": 20.8637,
      "duration": 0.0154,
      "velocity": 1,
      "chip": "ym2612"
    },
    {
      "channel": 4,
      "note": 81,
      "start": 20.865,
      "duration": 0.0153,
      "velocity": 97,
      "chip": "ym2612"
    },
    {
      "channel": 3,
      "note": 84,
      "start": 20.8662,
      "duration": 0.0153,
      "velocity": 97,
      "chip": "ym2612"
    },
    {
      "channel": 2,
      "note": 63,
      "start": 20.8673,
      "duration": 0.0153,
      "velocity": 100,
      "chip": "ym2612"
    },
    {
      "channel": 4,
      "note": 81,
      "start": 20.8803,
      "duration": 0.0152,
      "velocity": 97,
      "chip": "ym2612"
    },
    {
      "channel": 3,
      "note": 84,
      "start": 20.8815,
      "duration": 0.0153,
      "velocity": 97,
      "chip": "ym2612"
    },
    {
      "channel": 4,
      "note": 81,
      "start": 20.8955,
      "duration": 0.0196,
      "velocity": 97,
      "chip": "ym2612"
    },
    {
      "channel": 3,
      "note": 84,
      "start": 20.8967,
      "duration": 0.0195,
      "velocity": 97,
      "chip": "ym2612"
    },
    {
      "channel": 0,
      "note": 36,
      "start": 20.9139,
      "duration": 0.0144,
      "velocity": 115,
      "chip": "ym2612"
    },
    {
      "channel": 4,
      "note": 81,
      "start": 20.9151,
      "duration": 0.0144,
      "velocity": 97,
      "chip": "ym2612"
    },
    {
      "channel": 3,
      "note": 84,
      "start": 20.9163,
      "duration": 0.0144,
      "velocity": 97,
      "chip": "ym2612"
    },
    {
      "channel": 0,
      "note": 36,
      "start": 20.9283,
      "duration": 0.016,
      "velocity": 115,
      "chip": "ym2612"
    },
    {
      "channel": 4,
      "note": 81,
      "start": 20.9295,
      "duration": 0.016,
      "velocity": 97,
      "chip": "ym2612"
    },
    {
      "channel": 3,
      "note": 84,
      "start": 20.9307,
      "duration": 0.016,
      "velocity": 97,
      "chip": "ym2612"
    },
    {
      "channel": 0,
      "note": 37,
      "start": 20.9443,
      "duration": 0.0161,
      "velocity": 115,
      "chip": "ym2612"
    },
    {
      "channel": 4,
      "note": 81,
      "start": 20.9455,
      "duration": 0.0161,
      "velocity": 97,
      "chip": "ym2612"
    },
    {
      "channel": 3,
      "note": 84,
      "start": 20.9467,
      "duration": 0.0161,
      "velocity": 97,
      "chip": "ym2612"
    },
    {
      "channel": 0,
      "note": 37,
      "start": 20.9604,
      "duration": 0.0169,
      "velocity": 115,
      "chip": "ym2612"
    },
    {
      "channel": 4,
      "note": 81,
      "start": 20.9616,
      "duration": 0.0169,
      "velocity": 97,
      "chip": "ym2612"
    },
    {
      "channel": 3,
      "note": 84,
      "start": 20.9628,
      "duration": 0.0169,
      "velocity": 97,
      "chip": "ym2612"
    },
    {
      "channel": 0,
      "note": 38,
      "start": 20.9773,
      "duration": 0.0167,
      "velocity": 115,
      "chip": "ym2612"
    },
    {
      "channel": 4,
      "note": 81,
      "start": 20.9785,
      "duration": 0.0166,
      "velocity": 97,
      "chip": "ym2612"
    },
    {
      "channel": 3,
      "note": 84,
      "start": 20.9797,
      "duration": 0.0167,
      "velocity": 97,
      "chip": "ym2612"
    },
    {
      "channel": 0,
      "note": 38,
      "start": 20.994,
      "duration": 0.0163,
      "velocity": 115,
      "chip": "ym2612"
    },
    {
      "channel": 4,
      "note": 81,
      "start": 20.9951,
      "duration": 0.0163,
      "velocity": 97,
      "chip": "ym2612"
    },
    {
      "channel": 3,
      "note": 84,
      "start": 20.9964,
      "duration": 0.0163,
      "velocity": 97,
      "chip": "ym2612"
    },
    {
      "channel": 0,
      "note": 39,
      "start": 21.0103,
      "duration": 0.0147,
      "velocity": 115,
      "chip": "ym2612"
    },
    {
      "channel": 4,
      "note": 81,
      "start": 21.0115,
      "duration": 0.0147,
      "velocity": 97,
      "chip": "ym2612"
    },
    {
      "channel": 3,
      "note": 84,
      "start": 21.0127,
      "duration": 0.0147,
      "velocity": 97,
      "chip": "ym2612"
    },
    {
      "channel": 0,
      "note": 39,
      "start": 21.025,
      "duration": 0.0187,
      "velocity": 115,
      "chip": "ym2612"
    },
    {
      "channel": 4,
      "note": 81,
      "start": 21.0262,
      "duration": 0.0187,
      "velocity": 97,
      "chip": "ym2612"
    },
    {
      "channel": 3,
      "note": 84,
      "start": 21.0273,
      "duration": 0.0187,
      "velocity": 97,
      "chip": "ym2612"
    },
    {
      "channel": 0,
      "note": 40,
      "start": 21.0437,
      "duration": 0.0161,
      "velocity": 115,
      "chip": "ym2612"
    },
    {
      "channel": 4,
      "note": 81,
      "start": 21.0449,
      "duration": 0.0161,
      "velocity": 97,
      "chip": "ym2612"
    },
    {
      "channel": 3,
      "note": 84,
      "start": 21.0461,
      "duration": 0.0161,
      "velocity": 97,
      "chip": "ym2612"
    },
    {
      "channel": 0,
      "note": 40,
      "start": 21.0598,
      "duration": 0.0157,
      "velocity": 115,
      "chip": "ym2612"
    },
    {
      "channel": 4,
      "note": 81,
      "start": 21.061,
      "duration": 0.0157,
      "velocity": 97,
      "chip": "ym2612"
    },
    {
      "channel": 3,
      "note": 84,
      "start": 21.0621,
      "duration": 0.0158,
      "velocity": 97,
      "chip": "ym2612"
    },
    {
      "channel": 0,
      "note": 40,
      "start": 21.0755,
      "duration": 0.0137,
      "velocity": 115,
      "chip": "ym2612"
    },
    {
      "channel": 4,
      "note": 81,
      "start": 21.0767,
      "duration": 0.0141,
      "velocity": 97,
      "chip": "ym2612"
    },
    {
      "channel": 3,
      "note": 84,
      "start": 21.0779,
      "duration": 0.014,
      "velocity": 97,
      "chip": "ym2612"
    },
    {
      "channel": 0,
      "note": 41,
      "start": 21.0892,
      "duration": 0.0206,
      "velocity": 115,
      "chip": "ym2612"
    },
    {
      "channel": 4,
      "note": 81,
      "start": 21.0908,
      "duration": 0.0203,
      "velocity": 97,
      "chip": "ym2612"
    },
    {
      "channel": 3,
      "note": 84,
      "start": 21.0919,
      "duration": 0.0204,
      "velocity": 97,
      "chip": "ym2612"
    },
    {
      "channel": 0,
      "note": 36,
      "start": 21.1098,
      "duration": 0.0117,
      "velocity": 115,
      "chip": "ym2612"
    },
    {
      "channel": 4,
      "note": 81,
      "start": 21.1111,
      "duration": 0.0144,
      "velocity": 97,
      "chip": "ym2612"
    },
    {
      "channel": 3,
      "note": 84,
      "start": 21.1123,
      "duration": 0.0144,
      "velocity": 97,
      "chip": "ym2612"
    },
    {
      "channel": 2,
      "note": 65,
      "start": 21.1137,
      "duration": 0.0141,
      "velocity": 100,
      "chip": "ym2612"
    },
    {
      "channel": 1,
      "note": 53,
      "start": 21.1151,
      "duration": 0.0139,
      "velocity": 100,
      "chip": "ym2612"
    },
    {
      "channel": 0,
      "note": 36,
      "start": 21.1215,
      "duration": 0.016,
      "velocity": 115,
      "chip": "ym2612"
    },
    {
      "channel": 4,
      "note": 81,
      "start": 21.1254,
      "duration": 0.0133,
      "velocity": 97,
      "chip": "ym2612"
    },
    {
      "channel": 3,
      "note": 84,
      "start": 21.1266,
      "duration": 0.0156,
      "velocity": 97,
      "chip": "ym2612"
    },
    {
      "channel": 2,
      "note": 65,
      "start": 21.1278,
      "duration": 0.0156,
      "velocity": 100,
      "chip": "ym2612"
    },
    {
      "channel": 1,
      "note": 53,
      "start": 21.129,
      "duration": 0.0155,
      "velocity": 100,
      "chip": "ym2612"
    },
    {
      "channel": 0,
      "note": 37,
      "start": 21.1375,
      "duration": 0.0161,
      "velocity": 115,
      "chip": "ym2612"
    },
    {
      "channel": 4,
      "note": 81,
      "start": 21.1387,
      "duration": 0.0161,
      "velocity": 97,
      "chip": "ym2612"
    },
    {
      "channel": 3,
      "note": 84,
      "start": 21.1423,
      "duration": 0.0139,
      "velocity": 97,
      "chip": "ym2612"
    },
    {
      "channel": 2,
      "note": 65,
      "start": 21.1434,
      "duration": 0.0141,
      "velocity": 100,
      "chip": "ym2612"
    },
    {
      "channel": 1,
      "note": 53,
      "start": 21.1445,
      "duration": 0.0141,
      "velocity": 100,
      "chip": "ym2612"
    },
    {
      "channel": 0,
      "note": 37,
      "start": 21.1536,
      "duration": 0.0162,
      "velocity": 115,
      "chip": "ym2612"
    },
    {
      "channel": 4,
      "note": 81,
      "start": 21.1548,
      "duration": 0.0161,
      "velocity": 97,
      "chip": "ym2612"
    },
    {
      "channel": 3,
      "note": 84,
      "start": 21.1562,
      "duration": 0.016,
      "velocity": 97,
      "chip": "ym2612"
    },
    {
      "channel": 2,
      "note": 65,
      "start": 21.1574,
      "duration": 0.0186,
      "velocity": 100,
      "chip": "ym2612"
    },
    {
      "channel": 1,
      "note": 53,
      "start": 21.1586,
      "duration": 0.0185,
      "velocity": 100,
      "chip": "ym2612"
    },
    {
      "channel": 0,
      "note": 38,
      "start": 21.1698,
      "duration": 0.0161,
      "velocity": 115,
      "chip": "ym2612"
    },
    {
      "channel": 4,
      "note": 81,
      "start": 21.1709,
      "duration": 0.0161,
      "velocity": 97,
      "chip": "ym2612"
    },
    {
      "channel": 3,
      "note": 84,
      "start": 21.1721,
      "duration": 0.0161,
      "velocity": 97,
      "chip": "ym2612"
    },
    {
      "channel": 2,
      "note": 65,
      "start": 21.176,
      "duration": 0.0161,
      "velocity": 100,
      "chip": "ym2612"
    },
    {
      "channel": 1,
      "note": 53,
      "start": 21.1771,
      "duration": 0.0161,
      "velocity": 100,
      "chip": "ym2612"
    },
    {
      "channel": 0,
      "note": 38,
      "start": 21.1859,
      "duration": 0.0161,
      "velocity": 115,
      "chip": "ym2612"
    },
    {
      "channel": 4,
      "note": 81,
      "start": 21.187,
      "duration": 0.0162,
      "velocity": 97,
      "chip": "ym2612"
    },
    {
      "channel": 3,
      "note": 84,
      "start": 21.1882,
      "duration": 0.0161,
      "velocity": 97,
      "chip": "ym2612"
    },
    {
      "channel": 2,
      "note": 65,
      "start": 21.1921,
      "duration": 0.0134,
      "velocity": 100,
      "chip": "ym2612"
    },
    {
      "channel": 1,
      "note": 53,
      "start": 21.1932,
      "duration": 0.0158,
      "velocity": 100,
      "chip": "ym2612"
    },
    {
      "channel": 0,
      "note": 39,
      "start": 21.202,
      "duration": 0.0161,
      "velocity": 115,
      "chip": "ym2612"
    },
    {
      "channel": 4,
      "note": 81,
      "start": 21.2032,
      "duration": 0.0161,
      "velocity": 97,
      "chip": "ym2612"
    },
    {
      "channel": 3,
      "note": 84,
      "start": 21.2043,
      "duration": 0.0161,
      "velocity": 97,
      "chip": "ym2612"
    },
    {
      "channel": 2,
      "note": 65,
      "start": 21.2055,
      "duration": 0.0161,
      "velocity": 100,
      "chip": "ym2612"
    },
    {
      "channel": 1,
      "note": 53,
      "start": 21.209,
      "duration": 0.0141,
      "velocity": 100,
      "chip": "ym2612"
    },
    {
      "channel": 0,
      "note": 39,
      "start": 21.218,
      "duration": 0.0161,
      "velocity": 115,
      "chip": "ym2612"
    },
    {
      "channel": 4,
      "note": 81,
      "start": 21.2193,
      "duration": 0.0161,
      "velocity": 97,
      "chip": "ym2612"
    },
    {
      "channel": 3,
      "note": 84,
      "start": 21.2204,
      "duration": 0.0161,
      "velocity": 97,
      "chip": "ym2612"
    },
    {
      "channel": 2,
      "note": 65,
      "start": 21.2216,
      "duration": 0.0161,
      "velocity": 100,
      "chip": "ym2612"
    },
    {
      "channel": 1,
      "note": 53,
      "start": 21.223,
      "duration": 0.0158,
      "velocity": 100,
      "chip": "ym2612"
    },
    {
      "channel": 0,
      "note": 40,
      "start": 21.2341,
      "duration": 0.0161,
      "velocity": 115,
      "chip": "ym2612"
    },
    {
      "channel": 4,
      "note": 81,
      "start": 21.2354,
      "duration": 0.0161,
      "velocity": 97,
      "chip": "ym2612"
    },
    {
      "channel": 3,
      "note": 84,
      "start": 21.2365,
      "duration": 0.0161,
      "velocity": 97,
      "chip": "ym2612"
    },
    {
      "channel": 2,
      "note": 65,
      "start": 21.2376,
      "duration": 0.0161,
      "velocity": 100,
      "chip": "ym2612"
    },
    {
      "channel": 1,
      "note": 53,
      "start": 21.2388,
      "duration": 0.016,
      "velocity": 100,
      "chip": "ym2612"
    },
    {
      "channel": 0,
      "note": 40,
      "start": 21.2502,
      "duration": 0.0161,
      "velocity": 115,
      "chip": "ym2612"
    },
    {
      "channel": 4,
      "note": 81,
      "start": 21.2515,
      "duration": 0.0161,
      "velocity": 97,
      "chip": "ym2612"
    },
    {
      "channel": 3,
      "note": 84,
      "start": 21.2526,
      "duration": 0.0161,
      "velocity": 97,
      "chip": "ym2612"
    },
    {
      "channel": 2,
      "note": 65,
      "start": 21.2537,
      "duration": 0.0161,
      "velocity": 100,
      "chip": "ym2612"
    },
    {
      "channel": 1,
      "note": 53,
      "start": 21.2548,
      "duration": 0.0161,
      "velocity": 100,
      "chip": "ym2612"
    },
    {
      "channel": 0,
      "note": 40,
      "start": 21.2663,
      "duration": 0.0161,
      "velocity": 115,
      "chip": "ym2612"
    },
    {
      "channel": 4,
      "note": 81,
      "start": 21.2676,
      "duration": 0.0161,
      "velocity": 97,
      "chip": "ym2612"
    },
    {
      "channel": 3,
      "note": 84,
      "start": 21.2687,
      "duration": 0.0161,
      "velocity": 97,
      "chip": "ym2612"
    },
    {
      "channel": 0,
      "note": 41,
      "start": 21.2824,
      "duration": 0.0195,
      "velocity": 115,
      "chip": "ym2612"
    },
    {
      "channel": 4,
      "note": 81,
      "start": 21.2837,
      "duration": 0.0195,
      "velocity": 97,
      "chip": "ym2612"
    },
    {
      "channel": 3,
      "note": 84,
      "start": 21.2848,
      "duration": 0.0196,
      "velocity": 97,
      "chip": "ym2612"
    },
    {
      "channel": 1,
      "note": 78,
      "start": 21.3002,
      "duration": 0.0144,
      "velocity": 124,
      "chip": "ym2612"
    },
    {
      "channel": 0,
      "note": 41,
      "start": 21.302,
      "duration": 0.0144,
      "velocity": 115,
      "chip": "ym2612"
    },
    {
      "channel": 4,
      "note": 81,
      "start": 21.3032,
      "duration": 0.0144,
      "velocity": 97,
      "chip": "ym2612"
    },
    {
      "channel": 3,
      "note": 84,
      "start": 21.3044,
      "duration": 0.0144,
      "velocity": 97,
      "chip": "ym2612"
    },
    {
      "channel": 2,
      "note": 60,
      "start": 21.3057,
      "duration": 0.0142,
      "velocity": 100,
      "chip": "ym2612"
    },
    {
      "channel": 1,
      "note": 76,
      "start": 21.3146,
      "duration": 0.016,
      "velocity": 124,
      "chip": "ym2612"
    },
    {
      "channel": 0,
      "note": 42,
      "start": 21.3163,
      "duration": 0.0161,
      "velocity": 115,
      "chip": "ym2612"
    },
    {
      "channel": 4,
      "note": 81,
      "start": 21.3176,
      "duration": 0.016,
      "velocity": 97,
      "chip": "ym2612"
    },
    {
      "channel": 3,
      "note": 84,
      "start": 21.3188,
      "duration": 0.016,
      "velocity": 97,
      "chip": "ym2612"
    },
    {
      "channel": 2,
      "note": 60,
      "start": 21.3199,
      "duration": 0.016,
      "velocity": 100,
      "chip": "ym2612"
    },
    {
      "channel": 1,
      "note": 75,
      "start": 21.3307,
      "duration": 0.0161,
      "velocity": 124,
      "chip": "ym2612"
    },
    {
      "channel": 0,
      "note": 42,
      "start": 21.3324,
      "duration": 0.0161,
      "velocity": 115,
      "chip": "ym2612"
    },
    {
      "channel": 4,
      "note": 81,
      "start": 21.3336,
      "duration": 0.0161,
      "velocity": 97,
      "chip": "ym2612"
    },
    {
      "channel": 3,
      "note": 84,
      "start": 21.3348,
      "duration": 0.0161,
      "velocity": 97,
      "chip": "ym2612"
    },
    {
      "channel": 2,
      "note": 60,
      "start": 21.3359,
      "duration": 0.0161,
      "velocity": 100,
      "chip": "ym2612"
    },
    {
      "channel": 1,
      "note": 74,
      "start": 21.3468,
      "duration": 0.0161,
      "velocity": 124,
      "chip": "ym2612"
    },
    {
      "channel": 0,
      "note": 43,
      "start": 21.3485,
      "duration": 0.0161,
      "velocity": 115,
      "chip": "ym2612"
    },
    {
      "channel": 4,
      "note": 81,
      "start": 21.3497,
      "duration": 0.0161,
      "velocity": 97,
      "chip": "ym2612"
    },
    {
      "channel": 3,
      "note": 84,
      "start": 21.3509,
      "duration": 0.0161,
      "velocity": 97,
      "chip": "ym2612"
    },
    {
      "channel": 2,
      "note": 60,
      "start": 21.352,
      "duration": 0.0161,
      "velocity": 100,
      "chip": "ym2612"
    },
    {
      "channel": 1,
      "note": 72,
      "start": 21.3629,
      "duration": 0.0161,
      "velocity": 124,
      "chip": "ym2612"
    },
    {
      "channel": 0,
      "note": 43,
      "start": 21.3646,
      "duration": 0.0161,
      "velocity": 115,
      "chip": "ym2612"
    },
    {
      "channel": 4,
      "note": 81,
      "start": 21.3658,
      "duration": 0.0161,
      "velocity": 97,
      "chip": "ym2612"
    },
    {
      "channel": 3,
      "note": 84,
      "start": 21.367,
      "duration": 0.0161,
      "velocity": 97,
      "chip": "ym2612"
    },
    {
      "channel": 2,
      "note": 60,
      "start": 21.3681,
      "duration": 0.0161,
      "velocity": 100,
      "chip": "ym2612"
    },
    {
      "channel": 1,
      "note": 71,
      "start": 21.379,
      "duration": 0.0161,
      "velocity": 124,
      "chip": "ym2612"
    },
    {
      "channel": 0,
      "note": 44,
      "start": 21.3807,
      "duration": 0.0161,
      "velocity": 115,
      "chip": "ym2612"
    },
    {
      "channel": 4,
      "note": 81,
      "start": 21.3819,
      "duration": 0.0161,
      "velocity": 97,
      "chip": "ym2612"
    },
    {
      "channel": 3,
      "note": 84,
      "start": 21.3831,
      "duration": 0.0161,
      "velocity": 97,
      "chip": "ym2612"
    },
    {
      "channel": 2,
      "note": 60,
      "start": 21.3842,
      "duration": 0.0161,
      "velocity": 100,
      "chip": "ym2612"
    },
    {
      "channel": 1,
      "note": 70,
      "start": 21.3951,
      "duration": 0.0161,
      "velocity": 124,
      "chip": "ym2612"
    },
    {
      "channel": 0,
      "note": 44,
      "start": 21.3968,
      "duration": 0.0161,
      "velocity": 115,
      "chip": "ym2612"
    },
    {
      "channel": 4,
      "note": 81,
      "start": 21.398,
      "duration": 0.0161,
      "velocity": 97,
      "chip": "ym2612"
    },
    {
      "channel": 3,
      "note": 84,
      "start": 21.3992,
      "duration": 0.0161,
      "velocity": 97,
      "chip": "ym2612"
    },
    {
      "channel": 2,
      "note": 60,
      "start": 21.4003,
      "duration": 0.0161,
      "velocity": 100,
      "chip": "ym2612"
    },
    {
      "channel": 1,
      "note": 69,
      "start": 21.4112,
      "duration": 0.0161,
      "velocity": 124,
      "chip": "ym2612"
    },
    {
      "channel": 0,
      "note": 44,
      "start": 21.4129,
      "duration": 0.0161,
      "velocity": 115,
      "chip": "ym2612"
    },
    {
      "channel": 4,
      "note": 81,
      "start": 21.4141,
      "duration": 0.0161,
      "velocity": 97,
      "chip": "ym2612"
    },
    {
      "channel": 3,
      "note": 84,
      "start": 21.4153,
      "duration": 0.0161,
      "velocity": 97,
      "chip": "ym2612"
    },
    {
      "channel": 2,
      "note": 60,
      "start": 21.4164,
      "duration": 0.0161,
      "velocity": 100,
      "chip": "ym2612"
    },
    {
      "channel": 1,
      "note": 68,
      "start": 21.4273,
      "duration": 0.0166,
      "velocity": 124,
      "chip": "ym2612"
    },
    {
      "channel": 0,
      "note": 45,
      "start": 21.429,
      "duration": 0.0167,
      "velocity": 115,
      "chip": "ym2612"
    },
    {
      "channel": 4,
      "note": 81,
      "start": 21.4302,
      "duration": 0.0166,
      "velocity": 97,
      "chip": "ym2612"
    },
    {
      "channel": 3,
      "note": 84,
      "start": 21.4314,
      "duration": 0.0167,
      "velocity": 97,
      "chip": "ym2612"
    },
    {
      "channel": 2,
      "note": 60,
      "start": 21.4325,
      "duration": 0.0166,
      "velocity": 100,
      "chip": "ym2612"
    },
    {
      "channel": 1,
      "note": 66,
      "start": 21.4439,
      "duration": 0.0167,
      "velocity": 124,
      "chip": "ym2612"
    },
    {
      "channel": 0,
      "note": 45,
      "start": 21.4457,
      "duration": 0.0167,
      "velocity": 115,
      "chip": "ym2612"
    },
    {
      "channel": 4,
      "note": 81,
      "start": 21.4468,
      "duration": 0.0167,
      "velocity": 97,
      "chip": "ym2612"
    },
    {
      "channel": 3,
      "note": 84,
      "start": 21.448,
      "duration": 0.0167,
      "velocity": 97,
      "chip": "ym2612"
    },
    {
      "channel": 2,
      "note": 60,
      "start": 21.4491,
      "duration": 0.0167,
      "velocity": 100,
      "chip": "ym2612"
    },
    {
      "channel": 1,
      "note": 65,
      "start": 21.4606,
      "duration": 0.0163,
      "velocity": 124,
      "chip": "ym2612"
    },
    {
      "channel": 0,
      "note": 46,
      "start": 21.4623,
      "duration": 0.0163,
      "velocity": 115,
      "chip": "ym2612"
    },
    {
      "channel": 4,
      "note": 81,
      "start": 21.4635,
      "duration": 0.0163,
      "velocity": 97,
      "chip": "ym2612"
    },
    {
      "channel": 3,
      "note": 84,
      "start": 21.4647,
      "duration": 0.0163,
      "velocity": 97,
      "chip": "ym2612"
    },
    {
      "channel": 1,
      "note": 64,
      "start": 21.4769,
      "duration": 0.0148,
      "velocity": 124,
      "chip": "ym2612"
    },
    {
      "channel": 0,
      "note": 46,
      "start": 21.4786,
      "duration": 0.0165,
      "velocity": 115,
      "chip": "ym2612"
    },
    {
      "channel": 4,
      "note": 81,
      "start": 21.4798,
      "duration": 0.0166,
      "velocity": 97,
      "chip": "ym2612"
    },
    {
      "channel": 3,
      "note": 84,
      "start": 21.481,
      "duration": 0.0166,
      "velocity": 97,
      "chip": "ym2612"
    },
    {
      "channel": 1,
      "note": 62,
      "start": 21.4917,
      "duration": 0.0188,
      "velocity": 124,
      "chip": "ym2612"
    },
    {
      "channel": 0,
      "note": 36,
      "start": 21.4952,
      "duration": 0.0171,
      "velocity": 115,
      "chip": "ym2612"
    },
    {
      "channel": 4,
      "note": 81,
      "start": 21.4964,
      "duration": 0.0171,
      "velocity": 97,
      "chip": "ym2612"
    },
    {
      "channel": 3,
      "note": 84,
      "start": 21.4976,
      "duration": 0.0171,
      "velocity": 97,
      "chip": "ym2612"
    },
    {
      "channel": 2,
      "note": 56,
      "start": 21.499,
      "duration": 0.0169,
      "velocity": 100,
      "chip": "ym2612"
    },
    {
      "channel": 1,
      "note": 61,
      "start": 21.5105,
      "duration": 0.0161,
      "velocity": 124,
      "chip": "ym2612"
    },
    {
      "channel": 0,
      "note": 36,
      "start": 21.5123,
      "duration": 0.016,
      "velocity": 115,
      "chip": "ym2612"
    },
    {
      "channel": 4,
      "note": 81,
      "start": 21.5135,
      "duration": 0.016,
      "velocity": 97,
      "chip": "ym2612"
    },
    {
      "channel": 3,
      "note": 84,
      "start": 21.5147,
      "duration": 0.016,
      "velocity": 97,
      "chip": "ym2612"
    },
    {
      "channel": 2,
      "note": 56,
      "start": 21.5159,
      "duration": 0.016,
      "velocity": 100,
      "chip": "ym2612"
    },
    {
      "channel": 1,
      "note": 60,
      "start": 21.5266,
      "duration": 0.0157,
      "velocity": 124,
      "chip": "ym2612"
    },
    {
      "channel": 0,
      "note": 37,
      "start": 21.5284,
      "duration": 0.0157,
      "velocity": 115,
      "chip": "ym2612"
    },
    {
      "channel": 4,
      "note": 81,
      "start": 21.5296,
      "duration": 0.0157,
      "velocity": 97,
      "chip": "ym2612"
    },
    {
      "channel": 3,
      "note": 84,
      "start": 21.5307,
      "duration": 0.0157,
      "velocity": 97,
      "chip": "ym2612"
    },
    {
      "channel": 2,
      "note": 56,
      "start": 21.5319,
      "duration": 0.0157,
      "velocity": 100,
      "chip": "ym2612"
    },
    {
      "channel": 1,
      "note": 59,
      "start": 21.5424,
      "duration": 0.0141,
      "velocity": 124,
      "chip": "ym2612"
    },
    {
      "channel": 0,
      "note": 37,
      "start": 21.5441,
      "duration": 0.0141,
      "velocity": 115,
      "chip": "ym2612"
    },
    {
      "channel": 4,
      "note": 81,
      "start": 21.5453,
      "duration": 0.0141,
      "velocity": 97,
      "chip": "ym2612"
    },
    {
      "channel": 3,
      "note": 84,
      "start": 21.5464,
      "duration": 0.0141,
      "velocity": 97,
      "chip": "ym2612"
    },
    {
      "channel": 2,
      "note": 56,
      "start": 21.5476,
      "duration": 0.0141,
      "velocity": 100,
      "chip": "ym2612"
    },
    {
      "channel": 1,
      "note": 57,
      "start": 21.5564,
      "duration": 0.0158,
      "velocity": 124,
      "chip": "ym2612"
    },
    {
      "channel": 0,
      "note": 38,
      "start": 21.5581,
      "duration": 0.0185,
      "velocity": 115,
      "chip": "ym2612"
    },
    {
      "channel": 4,
      "note": 81,
      "start": 21.5593,
      "duration": 0.0185,
      "velocity": 97,
      "chip": "ym2612"
    },
    {
      "channel": 3,
      "note": 84,
      "start": 21.5605,
      "duration": 0.0185,
      "velocity": 97,
      "chip": "ym2612"
    },
    {
      "channel": 2,
      "note": 56,
      "start": 21.5616,
      "duration": 0.0185,
      "velocity": 100,
      "chip": "ym2612"
    },
    {
      "channel": 1,
      "note": 56,
      "start": 21.5722,
      "duration": 0.0161,
      "velocity": 124,
      "chip": "ym2612"
    },
    {
      "channel": 0,
      "note": 38,
      "start": 21.5766,
      "duration": 0.0162,
      "velocity": 115,
      "chip": "ym2612"
    },
    {
      "channel": 4,
      "note": 81,
      "start": 21.5778,
      "duration": 0.0161,
      "velocity": 97,
      "chip": "ym2612"
    },
    {
      "channel": 3,
      "note": 84,
      "start": 21.579,
      "duration": 0.0161,
      "velocity": 97,
      "chip": "ym2612"
    },
    {
      "channel": 2,
      "note": 56,
      "start": 21.5801,
      "duration": 0.0161,
      "velocity": 100,
      "chip": "ym2612"
    },
    {
      "channel": 1,
      "note": 55,
      "start": 21.5883,
      "duration": 0.0161,
      "velocity": 124,
      "chip": "ym2612"
    },
    {
      "channel": 0,
      "note": 39,
      "start": 21.5928,
      "duration": 0.0157,
      "velocity": 115,
      "chip": "ym2612"
    },
    {
      "channel": 4,
      "note": 81,
      "start": 21.5939,
      "duration": 0.0158,
      "velocity": 97,
      "chip": "ym2612"
    },
    {
      "channel": 3,
      "note": 84,
      "start": 21.5951,
      "duration": 0.0157,
      "velocity": 97,
      "chip": "ym2612"
    },
    {
      "channel": 2,
      "note": 56,
      "start": 21.5962,
      "duration": 0.0158,
      "velocity": 100,
      "chip": "ym2612"
    },
    {
      "channel": 1,
      "note": 53,
      "start": 21.6044,
      "duration": 0.0161,
      "velocity": 124,
      "chip": "ym2612"
    },
    {
      "channel": 0,
      "note": 39,
      "start": 21.6085,
      "duration": 0.0137,
      "velocity": 115,
      "chip": "ym2612"
    },
    {
      "channel": 4,
      "note": 81,
      "start": 21.6097,
      "duration": 0.014,
      "velocity": 97,
      "chip": "ym2612"
    },
    {
      "channel": 3,
      "note": 84,
      "start": 21.6109,
      "duration": 0.0141,
      "velocity": 97,
      "chip": "ym2612"
    },
    {
      "channel": 2,
      "note": 56,
      "start": 21.612,
      "duration": 0.0141,
      "velocity": 100,
      "chip": "ym2612"
    },
    {
      "channel": 1,
      "note": 52,
      "start": 21.6205,
      "duration": 0.0161,
      "velocity": 124,
      "chip": "ym2612"
    },
    {
      "channel": 0,
      "note": 40,
      "start": 21.6222,
      "duration": 0.0161,
      "velocity": 115,
      "chip": "ym2612"
    },
    {
      "channel": 4,
      "note": 81,
      "start": 21.6237,
      "duration": 0.0186,
      "velocity": 97,
      "chip": "ym2612"
    },
    {
      "channel": 3,
      "note": 84,
      "start": 21.6249,
      "duration": 0.0185,
      "velocity": 97,
      "chip": "ym2612"
    },
    {
      "channel": 2,
      "note": 56,
      "start": 21.6261,
      "duration": 0.0185,
      "velocity": 100,
      "chip": "ym2612"
    },
    {
      "channel": 1,
      "note": 51,
      "start": 21.6366,
      "duration": 0.0153,
      "velocity": 1,
      "chip": "ym2612"
    },
    {
      "channel": 0,
      "note": 40,
      "start": 21.6383,
      "duration": 0.0153,
      "velocity": 115,
      "chip": "ym2612"
    },
    {
      "channel": 4,
      "note": 81,
      "start": 21.6423,
      "duration": 0.0125,
      "velocity": 97,
      "chip": "ym2612"
    },
    {
      "channel": 3,
      "note": 84,
      "start": 21.6434,
      "duration": 0.0153,
      "velocity": 97,
      "chip": "ym2612"
    },
    {
      "channel": 2,
      "note": 56,
      "start": 21.6446,
      "duration": 0.0153,
      "velocity": 100,
      "chip": "ym2612"
    },
    {
      "channel": 0,
      "note": 40,
      "start": 21.6536,
      "duration": 0.0153,
      "velocity": 115,
      "chip": "ym2612"
    },
    {
      "channel": 4,
      "note": 81,
      "start": 21.6548,
      "duration": 0.0153,
      "velocity": 97,
      "chip": "ym2612"
    },
    {
      "channel": 3,
      "note": 84,
      "start": 21.6587,
      "duration": 0.0125,
      "velocity": 97,
      "chip": "ym2612"
    },
    {
      "channel": 0,
      "note": 41,
      "start": 21.6689,
      "duration": 0.0179,
      "velocity": 115,
      "chip": "ym2612"
    },
    {
      "channel": 4,
      "note": 81,
      "start": 21.6701,
      "duration": 0.0181,
      "velocity": 97,
      "chip": "ym2612"
    },
    {
      "channel": 3,
      "note": 84,
      "start": 21.6712,
      "duration": 0.0187,
      "velocity": 97,
      "chip": "ym2612"
    },
    {
      "channel": 0,
      "note": 36,
      "start": 21.6868,
      "duration": 0.0144,
      "velocity": 115,
      "chip": "ym2612"
    },
    {
      "channel": 4,
      "note": 77,
      "start": 21.6882,
      "duration": 0.0141,
      "velocity": 97,
      "chip": "ym2612"
    },
    {
      "channel": 3,
      "note": 80,
      "start": 21.6899,
      "duration": 0.0136,
      "velocity": 97,
      "chip": "ym2612"
    },
    {
      "channel": 2,
      "note": 49,
      "start": 21.6914,
      "duration": 0.0134,
      "velocity": 100,
      "chip": "ym2612"
    },
    {
      "channel": 1,
      "note": 37,
      "start": 21.6929,
      "duration": 0.0159,
      "velocity": 100,
      "chip": "ym2612"
    },
    {
      "channel": 0,
      "note": 36,
      "start": 21.7011,
      "duration": 0.016,
      "velocity": 115,
      "chip": "ym2612"
    },
    {
      "channel": 4,
      "note": 77,
      "start": 21.7023,
      "duration": 0.016,
      "velocity": 97,
      "chip": "ym2612"
    },
    {
      "channel": 3,
      "note": 80,
      "start": 21.7036,
      "duration": 0.016,
      "velocity": 97,
      "chip": "ym2612"
    },
    {
      "channel": 2,
      "note": 49,
      "start": 21.7048,
      "duration": 0.0159,
      "velocity": 100,
      "chip": "ym2612"
    },
    {
      "channel": 1,
      "note": 37,
      "start": 21.7087,
      "duration": 0.013,
      "velocity": 100,
      "chip": "ym2612"
    },
    {
      "channel": 0,
      "note": 37,
      "start": 21.7172,
      "duration": 0.0161,
      "velocity": 115,
      "chip": "ym2612"
    },
    {
      "channel": 4,
      "note": 77,
      "start": 21.7184,
      "duration": 0.0161,
      "velocity": 97,
      "chip": "ym2612"
    },
    {
      "channel": 3,
      "note": 80,
      "start": 21.7195,
      "duration": 0.0161,
      "velocity": 97,
      "chip": "ym2612"
    },
    {
      "channel": 2,
      "note": 49,
      "start": 21.7207,
      "duration": 0.0161,
      "velocity": 100,
      "chip": "ym2612"
    },
    {
      "channel": 1,
      "note": 37,
      "start": 21.7217,
      "duration": 0.0161,
      "velocity": 100,
      "chip": "ym2612"
    },
    {
      "channel": 0,
      "note": 37,
      "start": 21.7333,
      "duration": 0.0161,
      "velocity": 115,
      "chip": "ym2612"
    },
    {
      "channel": 4,
      "note": 77,
      "start": 21.7345,
      "duration": 0.0161,
      "velocity": 97,
      "chip": "ym2612"
    },
    {
      "channel": 3,
      "note": 80,
      "start": 21.7356,
      "duration": 0.0161,
      "velocity": 97,
      "chip": "ym2612"
    },
    {
      "channel": 2,
      "note": 49,
      "start": 21.7368,
      "duration": 0.0161,
      "velocity": 100,
      "chip": "ym2612"
    },
    {
      "channel": 1,
      "note": 37,
      "start": 21.7378,
      "duration": 0.0161,
      "velocity": 100,
      "chip": "ym2612"
    },
    {
      "channel": 0,
      "note": 38,
      "start": 21.7494,
      "duration": 0.0161,
      "velocity": 115,
      "chip": "ym2612"
    },
    {
      "channel": 4,
      "note": 77,
      "start": 21.7506,
      "duration": 0.0161,
      "velocity": 97,
      "chip": "ym2612"
    },
    {
      "channel": 3,
      "note": 80,
      "start": 21.7517,
      "duration": 0.0161,
      "velocity": 97,
      "chip": "ym2612"
    },
    {
      "channel": 2,
      "note": 49,
      "start": 21.7529,
      "duration": 0.0161,
      "velocity": 100,
      "chip": "ym2612"
    },
    {
      "channel": 1,
      "note": 37,
      "start": 21.754,
      "duration": 0.0161,
      "velocity": 100,
      "chip": "ym2612"
    },
    {
      "channel": 0,
      "note": 38,
      "start": 21.7655,
      "duration": 0.0161,
      "velocity": 115,
      "chip": "ym2612"
    },
    {
      "channel": 4,
      "note": 77,
      "start": 21.7667,
      "duration": 0.0161,
      "velocity": 97,
      "chip": "ym2612"
    },
    {
      "channel": 3,
      "note": 80,
      "start": 21.7678,
      "duration": 0.0162,
      "velocity": 97,
      "chip": "ym2612"
    },
    {
      "channel": 2,
      "note": 49,
      "start": 21.769,
      "duration": 0.0161,
      "velocity": 100,
      "chip": "ym2612"
    },
    {
      "channel": 1,
      "note": 37,
      "start": 21.7701,
      "duration": 0.0161,
      "velocity": 100,
      "chip": "ym2612"
    },
    {
      "channel": 0,
      "note": 39,
      "start": 21.7816,
      "duration": 0.0161,
      "velocity": 115,
      "chip": "ym2612"
    },
    {
      "channel": 4,
      "note": 77,
      "start": 21.7827,
      "duration": 0.0162,
      "velocity": 97,
      "chip": "ym2612"
    },
    {
      "channel": 3,
      "note": 80,
      "start": 21.784,
      "duration": 0.0161,
      "velocity": 97,
      "chip": "ym2612"
    },
    {
      "channel": 2,
      "note": 49,
      "start": 21.785,
      "duration": 0.0161,
      "velocity": 100,
      "chip": "ym2612"
    },
    {
      "channel": 1,
      "note": 37,
      "start": 21.7862,
      "duration": 0.0161,
      "velocity": 100,
      "chip": "ym2612"
    },
    {
      "channel": 0,
      "note": 39,
      "start": 21.7977,
      "duration": 0.0161,
      "velocity": 115,
      "chip": "ym2612"
    },
    {
      "channel": 4,
      "note": 77,
      "start": 21.7989,
      "duration": 0.0161,
      "velocity": 97,
      "chip": "ym2612"
    },
    {
      "channel": 3,
      "note": 80,
      "start": 21.8,
      "duration": 0.0161,
      "velocity": 97,
      "chip": "ym2612"
    },
    {
      "channel": 2,
      "note": 49,
      "start": 21.8011,
      "duration": 0.0161,
      "velocity": 100,
      "chip": "ym2612"
    },
    {
      "channel": 1,
      "note": 37,
      "start": 21.8023,
      "duration": 0.0161,
      "velocity": 100,
      "chip": "ym2612"
    },
    {
      "channel": 0,
      "note": 40,
      "start": 21.8138,
      "duration": 0.0161,
      "velocity": 115,
      "chip": "ym2612"
    },
    {
      "channel": 4,
      "note": 77,
      "start": 21.815,
      "duration": 0.0161,
      "velocity": 97,
      "chip": "ym2612"
    },
    {
      "channel": 3,
      "note": 80,
      "start": 21.8161,
      "duration": 0.0161,
      "velocity": 97,
      "chip": "ym2612"
    },
    {
      "channel": 2,
      "note": 49,
      "start": 21.8172,
      "duration": 0.0161,
      "velocity": 100,
      "chip": "ym2612"
    },
    {
      "channel": 1,
      "note": 37,
      "start": 21.8184,
      "duration": 0.0161,
      "velocity": 100,
      "chip": "ym2612"
    },
    {
      "channel": 0,
      "note": 40,
      "start": 21.8299,
      "duration": 0.0161,
      "velocity": 115,
      "chip": "ym2612"
    },
    {
      "channel": 4,
      "note": 77,
      "start": 21.8311,
      "duration": 0.0161,
      "velocity": 97,
      "chip": "ym2612"
    },
    {
      "channel": 3,
      "note": 80,
      "start": 21.8322,
      "duration": 0.0161,
      "velocity": 97,
      "chip": "ym2612"
    },
    {
      "channel": 2,
      "note": 49,
      "start": 21.8333,
      "duration": 0.0161,
      "velocity": 100,
      "chip": "ym2612"
    },
    {
      "channel": 1,
      "note": 37,
      "start": 21.8345,
      "duration": 0.0162,
      "velocity": 100,
      "chip": "ym2612"
    },
    {
      "channel": 0,
      "note": 40,
      "start": 21.846,
      "duration": 0.0161,
      "velocity": 115,
      "chip": "ym2612"
    },
    {
      "channel": 4,
      "note": 77,
      "start": 21.8472,
      "duration": 0.0161,
      "velocity": 97,
      "chip": "ym2612"
    },
    {
      "channel": 3,
      "note": 80,
      "start": 21.8483,
      "duration": 0.0161,
      "velocity": 97,
      "chip": "ym2612"
    },
    {
      "channel": 0,
      "note": 41,
      "start": 21.8621,
      "duration": 0.0161,
      "velocity": 115,
      "chip": "ym2612"
    },
    {
      "channel": 4,
      "note": 77,
      "start": 21.8633,
      "duration": 0.0161,
      "velocity": 97,
      "chip": "ym2612"
    },
    {
      "channel": 3,
      "note": 80,
      "start": 21.8644,
      "duration": 0.0161,
      "velocity": 97,
      "chip": "ym2612"
    },
    {
      "channel": 0,
      "note": 41,
      "start": 21.8782,
      "duration": 0.0161,
      "velocity": 115,
      "chip": "ym2612"
    },
    {
      "channel": 4,
      "note": 77,
      "start": 21.8794,
      "duration": 0.0161,
      "velocity": 97,
      "chip": "ym2612"
    },
    {
      "channel": 3,
      "note": 80,
      "start": 21.8805,
      "duration": 0.0161,
      "velocity": 97,
      "chip": "ym2612"
    },
    {
      "channel": 2,
      "note": 56,
      "start": 21.8819,
      "duration": 0.0159,
      "velocity": 100,
      "chip": "ym2612"
    },
    {
      "channel": 1,
      "note": 44,
      "start": 21.8833,
      "duration": 0.0157,
      "velocity": 100,
      "chip": "ym2612"
    },
    {
      "channel": 0,
      "note": 42,
      "start": 21.8943,
      "duration": 0.0164,
      "velocity": 115,
      "chip": "ym2612"
    },
    {
      "channel": 4,
      "note": 77,
      "start": 21.8955,
      "duration": 0.0164,
      "velocity": 97,
      "chip": "ym2612"
    },
    {
      "channel": 3,
      "note": 80,
      "start": 21.8966,
      "duration": 0.0164,
      "velocity": 97,
      "chip": "ym2612"
    },
    {
      "channel": 2,
      "note": 56,
      "start": 21.8978,
      "duration": 0.0163,
      "velocity": 100,
      "chip": "ym2612"
    },
    {
      "channel": 1,
      "note": 44,
      "start": 21.899,
      "duration": 0.0163,
      "velocity": 100,
      "chip": "ym2612"
    },
    {
      "channel": 0,
      "note": 42,
      "start": 21.9107,
      "duration": 0.0167,
      "velocity": 115,
      "chip": "ym2612"
    },
    {
      "channel": 4,
      "note": 77,
      "start": 21.9119,
      "duration": 0.0166,
      "velocity": 97,
      "chip": "ym2612"
    },
    {
      "channel": 3,
      "note": 80,
      "start": 21.913,
      "duration": 0.0167,
      "velocity": 97,
      "chip": "ym2612"
    },
    {
      "channel": 2,
      "note": 56,
      "start": 21.9142,
      "duration": 0.0167,
      "velocity": 100,
      "chip": "ym2612"
    },
    {
      "channel": 1,
      "note": 44,
      "start": 21.9153,
      "duration": 0.0166,
      "velocity": 100,
      "chip": "ym2612"
    },
    {
      "channel": 0,
      "note": 43,
      "start": 21.9273,
      "duration": 0.0163,
      "velocity": 115,
      "chip": "ym2612"
    },
    {
      "channel": 4,
      "note": 77,
      "start": 21.9285,
      "duration": 0.0163,
      "velocity": 97,
      "chip": "ym2612"
    },
    {
      "channel": 3,
      "note": 80,
      "start": 21.9297,
      "duration": 0.0163,
      "velocity": 97,
      "chip": "ym2612"
    },
    {
      "channel": 2,
      "note": 56,
      "start": 21.9308,
      "duration": 0.0163,
      "velocity": 100,
      "chip": "ym2612"
    },
    {
      "channel": 1,
      "note": 44,
      "start": 21.9319,
      "duration": 0.0163,
      "velocity": 100,
      "chip": "ym2612"
    },
    {
      "channel": 0,
      "note": 43,
      "start": 21.9436,
      "duration": 0.0151,
      "velocity": 115,
      "chip": "ym2612"
    },
    {
      "channel": 4,
      "note": 77,
      "start": 21.9448,
      "duration": 0.0151,
      "velocity": 97,
      "chip": "ym2612"
    },
    {
      "channel": 3,
      "note": 80,
      "start": 21.946,
      "duration": 0.0151,
      "velocity": 97,
      "chip": "ym2612"
    },
    {
      "channel": 2,
      "note": 56,
      "start": 21.9471,
      "duration": 0.0151,
      "velocity": 100,
      "chip": "ym2612"
    },
    {
      "channel": 1,
      "note": 44,
      "start": 21.9483,
      "duration": 0.0151,
      "velocity": 100,
      "chip": "ym2612"
    },
    {
      "channel": 0,
      "note": 44,
      "start": 21.9587,
      "duration": 0.0186,
      "velocity": 115,
      "chip": "ym2612"
    },
    {
      "channel": 4,
      "note": 77,
      "start": 21.9599,
      "duration": 0.0186,
      "velocity": 97,
      "chip": "ym2612"
    },
    {
      "channel": 3,
      "note": 80,
      "start": 21.9611,
      "duration": 0.0186,
      "velocity": 97,
      "chip": "ym2612"
    },
    {
      "channel": 2,
      "note": 56,
      "start": 21.9622,
      "duration": 0.0186,
      "velocity": 100,
      "chip": "ym2612"
    },
    {
      "channel": 1,
      "note": 44,
      "start": 21.9634,
      "duration": 0.0186,
      "velocity": 100,
      "chip": "ym2612"
    },
    {
      "channel": 0,
      "note": 44,
      "start": 21.9773,
      "duration": 0.0163,
      "velocity": 115,
      "chip": "ym2612"
    },
    {
      "channel": 4,
      "note": 77,
      "start": 21.9785,
      "duration": 0.0163,
      "velocity": 97,
      "chip": "ym2612"
    },
    {
      "channel": 3,
      "note": 80,
      "start": 21.9797,
      "duration": 0.0163,
      "velocity": 97,
      "chip": "ym2612"
    },
    {
      "channel": 2,
      "note": 56,
      "start": 21.9808,
      "duration": 0.0163,
      "velocity": 100,
      "chip": "ym2612"
    },
    {
      "channel": 1,
      "note": 44,
      "start": 21.9819,
      "duration": 0.0163,
      "velocity": 100,
      "chip": "ym2612"
    },
    {
      "channel": 0,
      "note": 44,
      "start": 21.9936,
      "duration": 0.0158,
      "velocity": 115,
      "chip": "ym2612"
    },
    {
      "channel": 4,
      "note": 77,
      "start": 21.9948,
      "duration": 0.0158,
      "velocity": 97,
      "chip": "ym2612"
    },
    {
      "channel": 3,
      "note": 80,
      "start": 21.996,
      "duration": 0.0158,
      "velocity": 97,
      "chip": "ym2612"
    },
    {
      "channel": 2,
      "note": 56,
      "start": 21.9971,
      "duration": 0.0158,
      "velocity": 100,
      "chip": "ym2612"
    },
    {
      "channel": 1,
      "note": 44,
      "start": 21.9983,
      "duration": 0.0158,
      "velocity": 100,
      "chip": "ym2612"
    },
    {
      "channel": 0,
      "note": 45,
      "start": 22.0094,
      "duration": 0.014,
      "velocity": 115,
      "chip": "ym2612"
    },
    {
      "channel": 4,
      "note": 77,
      "start": 22.0106,
      "duration": 0.014,
      "velocity": 97,
      "chip": "ym2612"
    },
    {
      "channel": 3,
      "note": 80,
      "start": 22.0118,
      "duration": 0.0139,
      "velocity": 97,
      "chip": "ym2612"
    },
    {
      "channel": 2,
      "note": 56,
      "start": 22.0129,
      "duration": 0.014,
      "velocity": 100,
      "chip": "ym2612"
    },
    {
      "channel": 1,
      "note": 44,
      "start": 22.0141,
      "duration": 0.014,
      "velocity": 100,
      "chip": "ym2612"
    },
    {
      "channel": 0,
      "note": 45,
      "start": 22.0234,
      "duration": 0.0158,
      "velocity": 115,
      "chip": "ym2612"
    },
    {
      "channel": 4,
      "note": 77,
      "start": 22.0246,
      "duration": 0.0185,
      "velocity": 97,
      "chip": "ym2612"
    },
    {
      "channel": 3,
      "note": 80,
      "start": 22.0258,
      "duration": 0.0186,
      "velocity": 97,
      "chip": "ym2612"
    },
    {
      "channel": 2,
      "note": 56,
      "start": 22.0269,
      "duration": 0.0186,
      "velocity": 100,
      "chip": "ym2612"
    },
    {
      "channel": 1,
      "note": 44,
      "start": 22.028,
      "duration": 0.0186,
      "velocity": 100,
      "chip": "ym2612"
    },
    {
      "channel": 0,
      "note": 46,
      "start": 22.0392,
      "duration": 0.0161,
      "velocity": 115,
      "chip": "ym2612"
    },
    {
      "channel": 4,
      "note": 77,
      "start": 22.0431,
      "duration": 0.0161,
      "velocity": 97,
      "chip": "ym2612"
    },
    {
      "channel": 3,
      "note": 80,
      "start": 22.0443,
      "duration": 0.0161,
      "velocity": 97,
      "chip": "ym2612"
    },
    {
      "channel": 0,
      "note": 46,
      "start": 22.0553,
      "duration": 0.022,
      "velocity": 115,
      "chip": "ym2612"
    },
    {
      "channel": 4,
      "note": 77,
      "start": 22.0592,
      "duration": 0.0192,
      "velocity": 97,
      "chip": "ym2612"
    },
    {
      "channel": 3,
      "note": 80,
      "start": 22.0604,
      "duration": 0.0191,
      "velocity": 97,
      "chip": "ym2612"
    },
    {
      "channel": 1,
      "note": 78,
      "start": 22.0755,
      "duration": 0.012,
      "velocity": 124,
      "chip": "ym2612"
    },
    {
      "channel": 0,
      "note": 47,
      "start": 22.0772,
      "duration": 0.012,
      "velocity": 115,
      "chip": "ym2612"
    },
    {
      "channel": 4,
      "note": 77,
      "start": 22.0784,
      "duration": 0.0123,
      "velocity": 97,
      "chip": "ym2612"
    },
    {
      "channel": 3,
      "note": 80,
      "start": 22.0796,
      "duration": 0.0123,
      "velocity": 97,
      "chip": "ym2612"
    },
    {
      "channel": 2,
      "note": 61,
      "start": 22.081,
      "duration": 0.0121,
      "velocity": 100,
      "chip": "ym2612"
    },
    {
      "channel": 1,
      "note": 76,
      "start": 22.0875,
      "duration": 0.0161,
      "velocity": 124,
      "chip": "ym2612"
    },
    {
      "channel": 0,
      "note": 47,
      "start": 22.0892,
      "duration": 0.0161,
      "velocity": 115,
      "chip": "ym2612"
    },
    {
      "channel": 4,
      "note": 77,
      "start": 22.0907,
      "duration": 0.0185,
      "velocity": 97,
      "chip": "ym2612"
    },
    {
      "channel": 3,
      "note": 80,
      "start": 22.0919,
      "duration": 0.0185,
      "velocity": 97,
      "chip": "ym2612"
    },
    {
      "channel": 2,
      "note": 61,
      "start": 22.0931,
      "duration": 0.0184,
      "velocity": 100,
      "chip": "ym2612"
    },
    {
      "channel": 1,
      "note": 75,
      "start": 22.1036,
      "duration": 0.0161,
      "velocity": 124,
      "chip": "ym2612"
    },
    {
      "channel": 0,
      "note": 47,
      "start": 22.1053,
      "duration": 0.0161,
      "velocity": 115,
      "chip": "ym2612"
    },
    {
      "channel": 4,
      "note": 77,
      "start": 22.1092,
      "duration": 0.0134,
      "velocity": 97,
      "chip": "ym2612"
    },
    {
      "channel": 3,
      "note": 80,
      "start": 22.1104,
      "duration": 0.0161,
      "velocity": 97,
      "chip": "ym2612"
    },
    {
      "channel": 2,
      "note": 61,
      "start": 22.1115,
      "duration": 0.0161,
      "velocity": 100,
      "chip": "ym2612"
    },
    {
      "channel": 1,
      "note": 74,
      "start": 22.1196,
      "duration": 0.0161,
      "velocity": 124,
      "chip": "ym2612"
    },
    {
      "channel": 0,
      "note": 48,
      "start": 22.1214,
      "duration": 0.0161,
      "velocity": 115,
      "chip": "ym2612"
    },
    {
      "channel": 4,
      "note": 77,
      "start": 22.1226,
      "duration": 0.0161,
      "velocity": 97,
      "chip": "ym2612"
    },
    {
      "channel": 3,
      "note": 80,
      "start": 22.1265,
      "duration": 0.0158,
      "velocity": 97,
      "chip": "ym2612"
    },
    {
      "channel": 2,
      "note": 61,
      "start": 22.1276,
      "duration": 0.0158,
      "velocity": 100,
      "chip": "ym2612"
    },
    {
      "channel": 1,
      "note": 72,
      "start": 22.1357,
      "duration": 0.0161,
      "velocity": 124,
      "chip": "ym2612"
    },
    {
      "channel": 0,
      "note": 48,
      "start": 22.1375,
      "duration": 0.0161,
      "velocity": 115,
      "chip": "ym2612"
    },
    {
      "channel": 4,
      "note": 77,
      "start": 22.1387,
      "duration": 0.0161,
      "velocity": 97,
      "chip": "ym2612"
    },
    {
      "channel": 3,
      "note": 80,
      "start": 22.1422,
      "duration": 0.0138,
      "velocity": 97,
      "chip": "ym2612"
    },
    {
      "channel": 2,
      "note": 61,
      "start": 22.1434,
      "duration": 0.014,
      "velocity": 100,
      "chip": "ym2612"
    },
    {
      "channel": 1,
      "note": 71,
      "start": 22.1518,
      "duration": 0.0161,
      "velocity": 124,
      "chip": "ym2612"
    },
    {
      "channel": 0,
      "note": 49,
      "start": 22.1536,
      "duration": 0.0153,
      "velocity": 1,
      "chip": "ym2612"
    },
    {
      "channel": 4,
      "note": 77,
      "start": 22.1548,
      "duration": 0.0153,
      "velocity": 97,
      "chip": "ym2612"
    },
    {
      "channel": 3,
      "note": 80,
      "start": 22.156,
      "duration": 0.0152,
      "velocity": 97,
      "chip": "ym2612"
    },
    {
      "channel": 2,
      "note": 61,
      "start": 22.1574,
      "duration": 0.015,
      "velocity": 100,
      "chip": "ym2612"
    },
    {
      "channel": 1,
      "note": 70,
      "start": 22.1679,
      "duration": 0.0161,
      "velocity": 124,
      "chip": "ym2612"
    },
    {
      "channel": 4,
      "note": 77,
      "start": 22.17,
      "duration": 0.0153,
      "velocity": 97,
      "chip": "ym2612"
    },
    {
      "channel": 3,
      "note": 80,
      "start": 22.1712,
      "duration": 0.0152,
      "velocity": 97,
      "chip": "ym2612"
    },
    {
      "channel": 2,
      "note": 61,
      "start": 22.1724,
      "duration": 0.0152,
      "velocity": 100,
      "chip": "ym2612"
    },
    {
      "channel": 1,
      "note": 69,
      "start": 22.184,
      "duration": 0.0161,
      "velocity": 124,
      "chip": "ym2612"
    },
    {
      "channel": 4,
      "note": 77,
      "start": 22.1853,
      "duration": 0.0162,
      "velocity": 97,
      "chip": "ym2612"
    },
    {
      "channel": 3,
      "note": 80,
      "start": 22.1864,
      "duration": 0.0162,
      "velocity": 97,
      "chip": "ym2612"
    },
    {
      "channel": 2,
      "note": 61,
      "start": 22.1876,
      "duration": 0.0162,
      "velocity": 100,
      "chip": "ym2612"
    },
    {
      "channel": 1,
      "note": 68,
      "start": 22.2001,
      "duration": 0.0161,
      "velocity": 124,
      "chip": "ym2612"
    },
    {
      "channel": 4,
      "note": 77,
      "start": 22.2015,
      "duration": 0.0161,
      "velocity": 97,
      "chip": "ym2612"
    },
    {
      "channel": 3,
      "note": 80,
      "start": 22.2026,
      "duration": 0.0161,
      "velocity": 97,
      "chip": "ym2612"
    },
    {
      "channel": 2,
      "note": 61,
      "start": 22.2037,
      "duration": 0.0161,
      "velocity": 100,
      "chip": "ym2612"
    },
    {
      "channel": 1,
      "note": 66,
      "start": 22.2162,
      "duration": 0.0161,
      "velocity": 124,
      "chip": "ym2612"
    },
    {
      "channel": 4,
      "note": 77,
      "start": 22.2176,
      "duration": 0.0161,
      "velocity": 97,
      "chip": "ym2612"
    },
    {
      "channel": 3,
      "note": 80,
      "start": 22.2187,
      "duration": 0.0161,
      "velocity": 97,
      "chip": "ym2612"
    },
    {
      "channel": 2,
      "note": 61,
      "start": 22.2198,
      "duration": 0.0161,
      "velocity": 100,
      "chip": "ym2612"
    },
    {
      "channel": 1,
      "note": 65,
      "start": 22.2324,
      "duration": 0.0161,
      "velocity": 124,
      "chip": "ym2612"
    },
    {
      "channel": 4,
      "note": 77,
      "start": 22.2337,
      "duration": 0.0161,
      "velocity": 97,
      "chip": "ym2612"
    },
    {
      "channel": 3,
      "note": 80,
      "start": 22.2348,
      "duration": 0.0161,
      "velocity": 97,
      "chip": "ym2612"
    },
    {
      "channel": 1,
      "note": 64,
      "start": 22.2485,
      "duration": 0.0161,
      "velocity": 124,
      "chip": "ym2612"
    },
    {
      "channel": 4,
      "note": 77,
      "start": 22.2497,
      "duration": 0.0195,
      "velocity": 97,
      "chip": "ym2612"
    },
    {
      "channel": 3,
      "note": 80,
      "start": 22.2509,
      "duration": 0.0196,
      "velocity": 97,
      "chip": "ym2612"
    },
    {
      "channel": 1,
      "note": 62,
      "start": 22.2646,
      "duration": 0.0161,
      "velocity": 124,
      "chip": "ym2612"
    },
    {
      "channel": 0,
      "note": 36,
      "start": 22.268,
      "duration": 0.0144,
      "velocity": 115,
      "chip": "ym2612"
    },
    {
      "channel": 4,
      "note": 77,
      "start": 22.2693,
      "duration": 0.0144,
      "velocity": 97,
      "chip": "ym2612"
    },
    {
      "channel": 3,
      "note": 80,
      "start": 22.2705,
      "duration": 0.0143,
      "velocity": 97,
      "chip": "ym2612"
    },
    {
      "channel": 2,
      "note": 59,
      "start": 22.2719,
      "duration": 0.0141,
      "velocity": 100,
      "chip": "ym2612"
    },
    {
      "channel": 1,
      "note": 61,
      "start": 22.2807,
      "duration": 0.0161,
      "velocity": 124,
      "chip": "ym2612"
    },
    {
      "channel": 0,
      "note": 36,
      "start": 22.2824,
      "duration": 0.016,
      "velocity": 115,
      "chip": "ym2612"
    },
    {
      "channel": 4,
      "note": 77,
      "start": 22.2837,
      "duration": 0.016,
      "velocity": 97,
      "chip": "ym2612"
    },
    {
      "channel": 3,
      "note": 80,
      "start": 22.2848,
      "duration": 0.016,
      "velocity": 97,
      "chip": "ym2612"
    },
    {
      "channel": 2,
      "note": 59,
      "start": 22.286,
      "duration": 0.016,
      "velocity": 100,
      "chip": "ym2612"
    },
    {
      "channel": 1,
      "note": 60,
      "start": 22.2967,
      "duration": 0.0161,
      "velocity": 124,
      "chip": "ym2612"
    },
    {
      "channel": 0,
      "note": 37,
      "start": 22.2985,
      "duration": 0.0161,
      "velocity": 115,
      "chip": "ym2612"
    },
    {
      "channel": 4,
      "note": 77,
      "start": 22.2997,
      "duration": 0.0161,
      "velocity": 97,
      "chip": "ym2612"
    },
    {
      "channel": 3,
      "note": 80,
      "start": 22.3008,
      "duration": 0.0161,
      "velocity": 97,
      "chip": "ym2612"
    },
    {
      "channel": 2,
      "note": 59,
      "start": 22.302,
      "duration": 0.0161,
      "velocity": 100,
      "chip": "ym2612"
    },
    {
      "channel": 1,
      "note": 59,
      "start": 22.3128,
      "duration": 0.0161,
      "velocity": 124,
      "chip": "ym2612"
    },
    {
      "channel": 0,
      "note": 37,
      "start": 22.3146,
      "duration": 0.0161,
      "velocity": 115,
      "chip": "ym2612"
    },
    {
      "channel": 4,
      "note": 77,
      "start": 22.3158,
      "duration": 0.0161,
      "velocity": 97,
      "chip": "ym2612"
    },
    {
      "channel": 3,
      "note": 80,
      "start": 22.3169,
      "duration": 0.0161,
      "velocity": 97,
      "chip": "ym2612"
    },
    {
      "channel": 2,
      "note": 59,
      "start": 22.318,
      "duration": 0.0161,
      "velocity": 100,
      "chip": "ym2612"
    },
    {
      "channel": 1,
      "note": 57,
      "start": 22.3289,
      "duration": 0.0161,
      "velocity": 124,
      "chip": "ym2612"
    },
    {
      "channel": 0,
      "note": 38,
      "start": 22.3307,
      "duration": 0.0161,
      "velocity": 115,
      "chip": "ym2612"
    },
    {
      "channel": 4,
      "note": 77,
      "start": 22.3319,
      "duration": 0.0161,
      "velocity": 97,
      "chip": "ym2612"
    },
    {
      "channel": 3,
      "note": 80,
      "start": 22.333,
      "duration": 0.0161,
      "velocity": 97,
      "chip": "ym2612"
    },
    {
      "channel": 2,
      "note": 59,
      "start": 22.3341,
      "duration": 0.0161,
      "velocity": 100,
      "chip": "ym2612"
    },
    {
      "channel": 1,
      "note": 56,
      "start": 22.345,
      "duration": 0.0161,
      "velocity": 124,
      "chip": "ym2612"
    },
    {
      "channel": 0,
      "note": 38,
      "start": 22.3467,
      "duration": 0.0162,
      "velocity": 115,
      "chip": "ym2612"
    },
    {
      "channel": 4,
      "note": 77,
      "start": 22.348,
      "duration": 0.0161,
      "velocity": 97,
      "chip": "ym2612"
    },
    {
      "channel": 3,
      "note": 80,
      "start": 22.3491,
      "duration": 0.0162,
      "velocity": 97,
      "chip": "ym2612"
    },
    {
      "channel": 2,
      "note": 59,
      "start": 22.3502,
      "duration": 0.0161,
      "velocity": 100,
      "chip": "ym2612"
    },
    {
      "channel": 1,
      "note": 55,
      "start": 22.3611,
      "duration": 0.0162,
      "velocity": 124,
      "chip": "ym2612"
    },
    {
      "channel": 0,
      "note": 39,
      "start": 22.3629,
      "duration": 0.0161,
      "velocity": 115,
      "chip": "ym2612"
    },
    {
      "channel": 4,
      "note": 77,
      "start": 22.3641,
      "duration": 0.0161,
      "velocity": 97,
      "chip": "ym2612"
    },
    {
      "channel": 3,
      "note": 80,
      "start": 22.3653,
      "duration": 0.0161,
      "velocity": 97,
      "chip": "ym2612"
    },
    {
      "channel": 2,
      "note": 59,
      "start": 22.3664,
      "duration": 0.0161,
      "velocity": 100,
      "chip": "ym2612"
    },
    {
      "channel": 1,
      "note": 53,
      "start": 22.3773,
      "duration": 0.0166,
      "velocity": 124,
      "chip": "ym2612"
    },
    {
      "channel": 0,
      "note": 39,
      "start": 22.379,
      "duration": 0.0166,
      "velocity": 115,
      "chip": "ym2612"
    },
    {
      "channel": 4,
      "note": 77,
      "start": 22.3802,
      "duration": 0.0167,
      "velocity": 97,
      "chip": "ym2612"
    },
    {
      "channel": 3,
      "note": 80,
      "start": 22.3814,
      "duration": 0.0167,
      "velocity": 97,
      "chip": "ym2612"
    },
    {
      "channel": 2,
      "note": 59,
      "start": 22.3825,
      "duration": 0.0167,
      "velocity": 100,
      "chip": "ym2612"
    },
    {
      "channel": 1,
      "note": 52,
      "start": 22.3939,
      "duration": 0.0163,
      "velocity": 124,
      "chip": "ym2612"
    },
    {
      "channel": 0,
      "note": 40,
      "start": 22.3956,
      "duration": 0.0163,
      "velocity": 115,
      "chip": "ym2612"
    },
    {
      "channel": 4,
      "note": 77,
      "start": 22.3969,
      "duration": 0.0163,
      "velocity": 97,
      "chip": "ym2612"
    },
    {
      "channel": 3,
      "note": 80,
      "start": 22.398,
      "duration": 0.0163,
      "velocity": 97,
      "chip": "ym2612"
    },
    {
      "channel": 2,
      "note": 59,
      "start": 22.3992,
      "duration": 0.0163,
      "velocity": 100,
      "chip": "ym2612"
    },
    {
      "channel": 1,
      "note": 51,
      "start": 22.4102,
      "duration": 0.0145,
      "velocity": 1,
      "chip": "ym2612"
    },
    {
      "channel": 0,
      "note": 40,
      "start": 22.412,
      "duration": 0.0145,
      "velocity": 115,
      "chip": "ym2612"
    },
    {
      "channel": 4,
      "note": 77,
      "start": 22.4132,
      "duration": 0.0145,
      "velocity": 97,
      "chip": "ym2612"
    },
    {
      "channel": 3,
      "note": 80,
      "start": 22.4143,
      "duration": 0.0145,
      "velocity": 97,
      "chip": "ym2612"
    },
    {
      "channel": 2,
      "note": 59,
      "start": 22.4154,
      "duration": 0.0145,
      "velocity": 100,
      "chip": "ym2612"
    },
    {
      "channel": 0,
      "note": 40,
      "start": 22.4265,
      "duration": 0.0175,
      "velocity": 115,
      "chip": "ym2612"
    },
    {
      "channel": 4,
      "note": 77,
      "start": 22.4277,
      "duration": 0.0175,
      "velocity": 97,
      "chip": "ym2612"
    },
    {
      "channel": 3,
      "note": 80,
      "start": 22.4288,
      "duration": 0.0176,
      "velocity": 97,
      "chip": "ym2612"
    },
    {
      "channel": 0,
      "note": 41,
      "start": 22.4439,
      "duration": 0.0166,
      "velocity": 115,
      "chip": "ym2612"
    },
    {
      "channel": 4,
      "note": 77,
      "start": 22.4451,
      "duration": 0.0166,
      "velocity": 97,
      "chip": "ym2612"
    },
    {
      "channel": 3,
      "note": 80,
      "start": 22.4464,
      "duration": 0.0166,
      "velocity": 97,
      "chip": "ym2612"
    },
    {
      "channel": 0,
      "note": 41,
      "start": 22.4605,
      "duration": 0.0158,
      "velocity": 115,
      "chip": "ym2612"
    },
    {
      "channel": 4,
      "note": 77,
      "start": 22.4618,
      "duration": 0.0158,
      "velocity": 97,
      "chip": "ym2612"
    },
    {
      "channel": 3,
      "note": 80,
      "start": 22.463,
      "duration": 0.0157,
      "velocity": 97,
      "chip": "ym2612"
    },
    {
      "channel": 0,
      "note": 42,
      "start": 22.4763,
      "duration": 0.0141,
      "velocity": 115,
      "chip": "ym2612"
    },
    {
      "channel": 4,
      "note": 77,
      "start": 22.4775,
      "duration": 0.014,
      "velocity": 97,
      "chip": "ym2612"
    },
    {
      "channel": 3,
      "note": 80,
      "start": 22.4787,
      "duration": 0.0141,
      "velocity": 97,
      "chip": "ym2612"
    },
    {
      "channel": 0,
      "note": 42,
      "start": 22.4904,
      "duration": 0.0185,
      "velocity": 115,
      "chip": "ym2612"
    },
    {
      "channel": 4,
      "note": 77,
      "start": 22.4915,
      "duration": 0.0186,
      "velocity": 97,
      "chip": "ym2612"
    },
    {
      "channel": 3,
      "note": 80,
      "start": 22.4927,
      "duration": 0.0185,
      "velocity": 97,
      "chip": "ym2612"
    },
    {
      "channel": 0,
      "note": 43,
      "start": 22.5089,
      "duration": 0.0134,
      "velocity": 115,
      "chip": "ym2612"
    },
    {
      "channel": 4,
      "note": 77,
      "start": 22.5101,
      "duration": 0.0161,
      "velocity": 97,
      "chip": "ym2612"
    },
    {
      "channel": 3,
      "note": 80,
      "start": 22.5112,
      "duration": 0.0162,
      "velocity": 97,
      "chip": "ym2612"
    },
    {
      "channel": 0,
      "note": 43,
      "start": 22.5222,
      "duration": 0.0161,
      "velocity": 115,
      "chip": "ym2612"
    },
    {
      "channel": 4,
      "note": 77,
      "start": 22.5262,
      "duration": 0.0157,
      "velocity": 97,
      "chip": "ym2612"
    },
    {
      "channel": 3,
      "note": 80,
      "start": 22.5274,
      "duration": 0.0157,
      "velocity": 97,
      "chip": "ym2612"
    },
    {
      "channel": 0,
      "note": 44,
      "start": 22.5383,
      "duration": 0.0161,
      "velocity": 115,
      "chip": "ym2612"
    },
    {
      "channel": 4,
      "note": 77,
      "start": 22.5419,
      "duration": 0.0137,
      "velocity": 97,
      "chip": "ym2612"
    },
    {
      "channel": 3,
      "note": 80,
      "start": 22.5431,
      "duration": 0.014,
      "velocity": 97,
      "chip": "ym2612"
    },
    {
      "channel": 0,
      "note": 44,
      "start": 22.5544,
      "duration": 0.0161,
      "velocity": 115,
      "chip": "ym2612"
    },
    {
      "channel": 4,
      "note": 77,
      "start": 22.5556,
      "duration": 0.0161,
      "velocity": 97,
      "chip": "ym2612"
    },
    {
      "channel": 3,
      "note": 80,
      "start": 22.5571,
      "duration": 0.0186,
      "velocity": 97,
      "chip": "ym2612"
    },
    {
      "channel": 0,
      "note": 44,
      "start": 22.5705,
      "duration": 0.0161,
      "velocity": 115,
      "chip": "ym2612"
    },
    {
      "channel": 4,
      "note": 77,
      "start": 22.5717,
      "duration": 0.0161,
      "velocity": 97,
      "chip": "ym2612"
    },
    {
      "channel": 3,
      "note": 80,
      "start": 22.5757,
      "duration": 0.0133,
      "velocity": 97,
      "chip": "ym2612"
    },
    {
      "channel": 0,
      "note": 45,
      "start": 22.5866,
      "duration": 0.0161,
      "velocity": 115,
      "chip": "ym2612"
    },
    {
      "channel": 4,
      "note": 77,
      "start": 22.5878,
      "duration": 0.0161,
      "velocity": 97,
      "chip": "ym2612"
    },
    {
      "channel": 3,
      "note": 80,
      "start": 22.589,
      "duration": 0.0161,
      "velocity": 97,
      "chip": "ym2612"
    },
    {
      "channel": 0,
      "note": 45,
      "start": 22.6027,
      "duration": 0.0161,
      "velocity": 115,
      "chip": "ym2612"
    },
    {
      "channel": 4,
      "note": 77,
      "start": 22.6039,
      "duration": 0.0161,
      "velocity": 97,
      "chip": "ym2612"
    },
    {
      "channel": 3,
      "note": 80,
      "start": 22.6051,
      "duration": 0.0161,
      "velocity": 97,
      "chip": "ym2612"
    },
    {
      "channel": 0,
      "note": 46,
      "start": 22.6188,
      "duration": 0.0161,
      "velocity": 115,
      "chip": "ym2612"
    },
    {
      "channel": 4,
      "note": 77,
      "start": 22.62,
      "duration": 0.0161,
      "velocity": 97,
      "chip": "ym2612"
    },
    {
      "channel": 3,
      "note": 80,
      "start": 22.6212,
      "duration": 0.0161,
      "velocity": 97,
      "chip": "ym2612"
    },
    {
      "channel": 0,
      "note": 46,
      "start": 22.6349,
      "duration": 0.0179,
      "velocity": 115,
      "chip": "ym2612"
    },
    {
      "channel": 4,
      "note": 77,
      "start": 22.6361,
      "duration": 0.0179,
      "velocity": 97,
      "chip": "ym2612"
    },
    {
      "channel": 3,
      "note": 80,
      "start": 22.6373,
      "duration": 0.0179,
      "velocity": 97,
      "chip": "ym2612"
    },
    {
      "channel": 0,
      "note": 36,
      "start": 22.6529,
      "duration": 0.0144,
      "velocity": 115,
      "chip": "ym2612"
    },
    {
      "channel": 4,
      "note": 77,
      "start": 22.6541,
      "duration": 0.0143,
      "velocity": 97,
      "chip": "ym2612"
    },
    {
      "channel": 3,
      "note": 80,
      "start": 22.6553,
      "duration": 0.0143,
      "velocity": 97,
      "chip": "ym2612"
    },
    {
      "channel": 2,
      "note": 61,
      "start": 22.6594,
      "duration": 0.0113,
      "velocity": 100,
      "chip": "ym2612"
    },
    {
      "channel": 1,
      "note": 49,
      "start": 22.6608,
      "duration": 0.0111,
      "velocity": 100,
      "chip": "ym2612"
    },
    {
      "channel": 0,
      "note": 36,
      "start": 22.6672,
      "duration": 0.016,
      "velocity": 115,
      "chip": "ym2612"
    },
    {
      "channel": 4,
      "note": 77,
      "start": 22.6684,
      "duration": 0.0161,
      "velocity": 97,
      "chip": "ym2612"
    },
    {
      "channel": 3,
      "note": 80,
      "start": 22.6696,
      "duration": 0.016,
      "velocity": 97,
      "chip": "ym2612"
    },
    {
      "channel": 2,
      "note": 61,
      "start": 22.6707,
      "duration": 0.016,
      "velocity": 100,
      "chip": "ym2612"
    },
    {
      "channel": 1,
      "note": 49,
      "start": 22.6719,
      "duration": 0.016,
      "velocity": 100,
      "chip": "ym2612"
    },
    {
      "channel": 0,
      "note": 37,
      "start": 22.6833,
      "duration": 0.0161,
      "velocity": 115,
      "chip": "ym2612"
    },
    {
      "channel": 4,
      "note": 77,
      "start": 22.6845,
      "duration": 0.0161,
      "velocity": 97,
      "chip": "ym2612"
    },
    {
      "channel": 3,
      "note": 80,
      "start": 22.6856,
      "duration": 0.0161,
      "velocity": 97,
      "chip": "ym2612"
    },
    {
      "channel": 2,
      "note": 61,
      "start": 22.6868,
      "duration": 0.0161,
      "velocity": 100,
      "chip": "ym2612"
    },
    {
      "channel": 1,
      "note": 49,
      "start": 22.6879,
      "duration": 0.0161,
      "velocity": 100,
      "chip": "ym2612"
    },
    {
      "channel": 0,
      "note": 37,
      "start": 22.6993,
      "duration": 0.0161,
      "velocity": 115,
      "chip": "ym2612"
    },
    {
      "channel": 4,
      "note": 77,
      "start": 22.7006,
      "duration": 0.0161,
      "velocity": 97,
      "chip": "ym2612"
    },
    {
      "channel": 3,
      "note": 80,
      "start": 22.7017,
      "duration": 0.0161,
      "velocity": 97,
      "chip": "ym2612"
    },
    {
      "channel": 2,
      "note": 61,
      "start": 22.7029,
      "duration": 0.0161,
      "velocity": 100,
      "chip": "ym2612"
    },
    {
      "channel": 1,
      "note": 49,
      "start": 22.704,
      "duration": 0.0161,
      "velocity": 100,
      "chip": "ym2612"
    },
    {
      "channel": 0,
      "note": 38,
      "start": 22.7154,
      "duration": 0.0161,
      "velocity": 115,
      "chip": "ym2612"
    },
    {
      "channel": 4,
      "note": 77,
      "start": 22.7167,
      "duration": 0.0161,
      "velocity": 97,
      "chip": "ym2612"
    },
    {
      "channel": 3,
      "note": 80,
      "start": 22.7178,
      "duration": 0.0161,
      "velocity": 97,
      "chip": "ym2612"
    },
    {
      "channel": 2,
      "note": 61,
      "start": 22.719,
      "duration": 0.0161,
      "velocity": 100,
      "chip": "ym2612"
    },
    {
      "channel": 1,
      "note": 49,
      "start": 22.7201,
      "duration": 0.0161,
      "velocity": 100,
      "chip": "ym2612"
    },
    {
      "channel": 0,
      "note": 38,
      "start": 22.7315,
      "duration": 0.0161,
      "velocity": 115,
      "chip": "ym2612"
    },
    {
      "channel": 4,
      "note": 77,
      "start": 22.7327,
      "duration": 0.0161,
      "velocity": 97,
      "chip": "ym2612"
    },
    {
      "channel": 3,
      "note": 80,
      "start": 22.7339,
      "duration": 0.0161,
      "velocity": 97,
      "chip": "ym2612"
    },
    {
      "channel": 2,
      "note": 61,
      "start": 22.735,
      "duration": 0.0161,
      "velocity": 100,
      "chip": "ym2612"
    },
    {
      "channel": 1,
      "note": 49,
      "start": 22.7362,
      "duration": 0.0161,
      "velocity": 100,
      "chip": "ym2612"
    },
    {
      "channel": 0,
      "note": 39,
      "start": 22.7476,
      "duration": 0.0161,
      "velocity": 115,
      "chip": "ym2612"
    },
    {
      "channel": 4,
      "note": 77,
      "start": 22.7488,
      "duration": 0.0161,
      "velocity": 97,
      "chip": "ym2612"
    },
    {
      "channel": 3,
      "note": 80,
      "start": 22.75,
      "duration": 0.0161,
      "velocity": 97,
      "chip": "ym2612"
    },
    {
      "channel": 2,
      "note": 61,
      "start": 22.7511,
      "duration": 0.0161,
      "velocity": 100,
      "chip": "ym2612"
    },
    {
      "channel": 1,
      "note": 49,
      "start": 22.7523,
      "duration": 0.0161,
      "velocity": 100,
      "chip": "ym2612"
    },
    {
      "channel": 0,
      "note": 39,
      "start": 22.7637,
      "duration": 0.0161,
      "velocity": 115,
      "chip": "ym2612"
    },
    {
      "channel": 4,
      "note": 77,
      "start": 22.7649,
      "duration": 0.0161,
      "velocity": 97,
      "chip": "ym2612"
    },
    {
      "channel": 3,
      "note": 80,
      "start": 22.7661,
      "duration": 0.0162,
      "velocity": 97,
      "chip": "ym2612"
    },
    {
      "channel": 2,
      "note": 61,
      "start": 22.7672,
      "duration": 0.0161,
      "velocity": 100,
      "chip": "ym2612"
    },
    {
      "channel": 1,
      "note": 49,
      "start": 22.7684,
      "duration": 0.0162,
      "velocity": 100,
      "chip": "ym2612"
    },
    {
      "channel": 0,
      "note": 40,
      "start": 22.7798,
      "duration": 0.0161,
      "velocity": 115,
      "chip": "ym2612"
    },
    {
      "channel": 4,
      "note": 77,
      "start": 22.781,
      "duration": 0.0161,
      "velocity": 97,
      "chip": "ym2612"
    },
    {
      "channel": 3,
      "note": 80,
      "start": 22.7822,
      "duration": 0.0161,
      "velocity": 97,
      "chip": "ym2612"
    },
    {
      "channel": 2,
      "note": 61,
      "start": 22.7834,
      "duration": 0.016,
      "velocity": 100,
      "chip": "ym2612"
    },
    {
      "channel": 1,
      "note": 49,
      "start": 22.7845,
      "duration": 0.016,
      "velocity": 100,
      "chip": "ym2612"
    },
    {
      "channel": 0,
      "note": 40,
      "start": 22.7959,
      "duration": 0.0162,
      "velocity": 115,
      "chip": "ym2612"
    },
    {
      "channel": 4,
      "note": 77,
      "start": 22.7971,
      "duration": 0.0161,
      "velocity": 97,
      "chip": "ym2612"
    },
    {
      "channel": 3,
      "note": 80,
      "start": 22.7983,
      "duration": 0.0161,
      "velocity": 97,
      "chip": "ym2612"
    },
    {
      "channel": 2,
      "note": 61,
      "start": 22.7994,
      "duration": 0.0162,
      "velocity": 100,
      "chip": "ym2612"
    },
    {
      "channel": 1,
      "note": 49,
      "start": 22.8006,
      "duration": 0.0161,
      "velocity": 100,
      "chip": "ym2612"
    },
    {
      "channel": 0,
      "note": 40,
      "start": 22.8121,
      "duration": 0.0161,
      "velocity": 115,
      "chip": "ym2612"
    },
    {
      "channel": 4,
      "note": 77,
      "start": 22.8132,
      "duration": 0.0162,
      "velocity": 97,
      "chip": "ym2612"
    },
    {
      "channel": 3,
      "note": 80,
      "start": 22.8144,
      "duration": 0.0161,
      "velocity": 97,
      "chip": "ym2612"
    },
    {
      "channel": 0,
      "note": 41,
      "start": 22.8282,
      "duration": 0.0195,
      "velocity": 115,
      "chip": "ym2612"
    },
    {
      "channel": 4,
      "note": 77,
      "start": 22.8294,
      "duration": 0.0195,
      "velocity": 97,
      "chip": "ym2612"
    },
    {
      "channel": 3,
      "note": 80,
      "start": 22.8305,
      "duration": 0.0195,
      "velocity": 97,
      "chip": "ym2612"
    },
    {
      "channel": 1,
      "note": 78,
      "start": 22.846,
      "duration": 0.0146,
      "velocity": 124,
      "chip": "ym2612"
    },
    {
      "channel": 0,
      "note": 41,
      "start": 22.8477,
      "duration": 0.0146,
      "velocity": 115,
      "chip": "ym2612"
    },
    {
      "channel": 4,
      "note": 77,
      "start": 22.8489,
      "duration": 0.0146,
      "velocity": 97,
      "chip": "ym2612"
    },
    {
      "channel": 3,
      "note": 80,
      "start": 22.85,
      "duration": 0.0147,
      "velocity": 97,
      "chip": "ym2612"
    },
    {
      "channel": 2,
      "note": 59,
      "start": 22.8515,
      "duration": 0.0144,
      "velocity": 100,
      "chip": "ym2612"
    },
    {
      "channel": 1,
      "note": 76,
      "start": 22.8606,
      "duration": 0.0163,
      "velocity": 124,
      "chip": "ym2612"
    },
    {
      "channel": 0,
      "note": 42,
      "start": 22.8623,
      "duration": 0.0163,
      "velocity": 115,
      "chip": "ym2612"
    },
    {
      "channel": 4,
      "note": 77,
      "start": 22.8635,
      "duration": 0.0163,
      "velocity": 97,
      "chip": "ym2612"
    },
    {
      "channel": 3,
      "note": 80,
      "start": 22.8647,
      "duration": 0.0162,
      "velocity": 97,
      "chip": "ym2612"
    },
    {
      "channel": 2,
      "note": 59,
      "start": 22.8659,
      "duration": 0.0162,
      "velocity": 100,
      "chip": "ym2612"
    },
    {
      "channel": 1,
      "note": 75,
      "start": 22.8769,
      "duration": 0.0156,
      "velocity": 124,
      "chip": "ym2612"
    },
    {
      "channel": 0,
      "note": 42,
      "start": 22.8786,
      "duration": 0.0156,
      "velocity": 115,
      "chip": "ym2612"
    },
    {
      "channel": 4,
      "note": 77,
      "start": 22.8798,
      "duration": 0.0156,
      "velocity": 97,
      "chip": "ym2612"
    },
    {
      "channel": 3,
      "note": 80,
      "start": 22.881,
      "duration": 0.0156,
      "velocity": 97,
      "chip": "ym2612"
    },
    {
      "channel": 2,
      "note": 59,
      "start": 22.8821,
      "duration": 0.0156,
      "velocity": 100,
      "chip": "ym2612"
    },
    {
      "channel": 1,
      "note": 74,
      "start": 22.8925,
      "duration": 0.0181,
      "velocity": 124,
      "chip": "ym2612"
    },
    {
      "channel": 0,
      "note": 43,
      "start": 22.8942,
      "duration": 0.0181,
      "velocity": 115,
      "chip": "ym2612"
    },
    {
      "channel": 4,
      "note": 77,
      "start": 22.8954,
      "duration": 0.0181,
      "velocity": 97,
      "chip": "ym2612"
    },
    {
      "channel": 3,
      "note": 80,
      "start": 22.8966,
      "duration": 0.0181,
      "velocity": 97,
      "chip": "ym2612"
    },
    {
      "channel": 2,
      "note": 59,
      "start": 22.8977,
      "duration": 0.0181,
      "velocity": 100,
      "chip": "ym2612"
    },
    {
      "channel": 1,
      "note": 72,
      "start": 22.9105,
      "duration": 0.0167,
      "velocity": 124,
      "chip": "ym2612"
    },
    {
      "channel": 0,
      "note": 43,
      "start": 22.9123,
      "duration": 0.0167,
      "velocity": 115,
      "chip": "ym2612"
    },
    {
      "channel": 4,
      "note": 77,
      "start": 22.9135,
      "duration": 0.0166,
      "velocity": 97,
      "chip": "ym2612"
    },
    {
      "channel": 3,
      "note": 80,
      "start": 22.9147,
      "duration": 0.0167,
      "velocity": 97,
      "chip": "ym2612"
    },
    {
      "channel": 2,
      "note": 59,
      "start": 22.9158,
      "duration": 0.0167,
      "velocity": 100,
      "chip": "ym2612"
    },
    {
      "channel": 1,
      "note": 71,
      "start": 22.9272,
      "duration": 0.016,
      "velocity": 124,
      "chip": "ym2612"
    },
    {
      "channel": 0,
      "note": 44,
      "start": 22.929,
      "duration": 0.0159,
      "velocity": 115,
      "chip": "ym2612"
    },
    {
      "channel": 4,
      "note": 77,
      "start": 22.9301,
      "duration": 0.016,
      "velocity": 97,
      "chip": "ym2612"
    },
    {
      "channel": 3,
      "note": 80,
      "start": 22.9314,
      "duration": 0.0159,
      "velocity": 97,
      "chip": "ym2612"
    },
    {
      "channel": 2,
      "note": 59,
      "start": 22.9325,
      "duration": 0.0159,
      "velocity": 100,
      "chip": "ym2612"
    },
    {
      "channel": 1,
      "note": 70,
      "start": 22.9432,
      "duration": 0.0141,
      "velocity": 124,
      "chip": "ym2612"
    },
    {
      "channel": 0,
      "note": 44,
      "start": 22.9449,
      "duration": 0.0141,
      "velocity": 115,
      "chip": "ym2612"
    },
    {
      "channel": 4,
      "note": 77,
      "start": 22.9461,
      "duration": 0.0141,
      "velocity": 97,
      "chip": "ym2612"
    },
    {
      "channel": 3,
      "note": 80,
      "start": 22.9473,
      "duration": 0.0141,
      "velocity": 97,
      "chip": "ym2612"
    },
    {
      "channel": 2,
      "note": 59,
      "start": 22.9484,
      "duration": 0.0141,
      "velocity": 100,
      "chip": "ym2612"
    },
    {
      "channel": 1,
      "note": 69,
      "start": 22.9572,
      "duration": 0.0185,
      "velocity": 124,
      "chip": "ym2612"
    },
    {
      "channel": 0,
      "note": 44,
      "start": 22.959,
      "duration": 0.0185,
      "velocity": 115,
      "chip": "ym2612"
    },
    {
      "channel": 4,
      "note": 77,
      "start": 22.9602,
      "duration": 0.0185,
      "velocity": 97,
      "chip": "ym2612"
    },
    {
      "channel": 3,
      "note": 80,
      "start": 22.9613,
      "duration": 0.0185,
      "velocity": 97,
      "chip": "ym2612"
    },
    {
      "channel": 2,
      "note": 59,
      "start": 22.9624,
      "duration": 0.0185,
      "velocity": 100,
      "chip": "ym2612"
    },
    {
      "channel": 1,
      "note": 68,
      "start": 22.9758,
      "duration": 0.0134,
      "velocity": 124,
      "chip": "ym2612"
    },
    {
      "channel": 0,
      "note": 45,
      "start": 22.9775,
      "duration": 0.0161,
      "velocity": 115,
      "chip": "ym2612"
    },
    {
      "channel": 4,
      "note": 77,
      "start": 22.9787,
      "duration": 0.0161,
      "velocity": 97,
      "chip": "ym2612"
    },
    {
      "channel": 3,
      "note": 80,
      "start": 22.9798,
      "duration": 0.0161,
      "velocity": 97,
      "chip": "ym2612"
    },
    {
      "channel": 2,
      "note": 59,
      "start": 22.981,
      "duration": 0.0161,
      "velocity": 100,
      "chip": "ym2612"
    },
    {
      "channel": 1,
      "note": 66,
      "start": 22.9891,
      "duration": 0.0161,
      "velocity": 124,
      "chip": "ym2612"
    },
    {
      "channel": 0,
      "note": 45,
      "start": 22.9936,
      "duration": 0.0157,
      "velocity": 115,
      "chip": "ym2612"
    },
    {
      "channel": 4,
      "note": 77,
      "start": 22.9948,
      "duration": 0.0157,
      "velocity": 97,
      "chip": "ym2612"
    },
    {
      "channel": 3,
      "note": 80,
      "start": 22.9959,
      "duration": 0.0158,
      "velocity": 97,
      "chip": "ym2612"
    },
    {
      "channel": 2,
      "note": 59,
      "start": 22.9971,
      "duration": 0.0158,
      "velocity": 100,
      "chip": "ym2612"
    },
    {
      "channel": 1,
      "note": 65,
      "start": 23.0052,
      "duration": 0.0161,
      "velocity": 124,
      "chip": "ym2612"
    },
    {
      "channel": 0,
      "note": 46,
      "start": 23.0093,
      "duration": 0.0141,
      "velocity": 115,
      "chip": "ym2612"
    },
    {
      "channel": 4,
      "note": 77,
      "start": 23.0105,
      "duration": 0.0141,
      "velocity": 97,
      "chip": "ym2612"
    },
    {
      "channel": 3,
      "note": 80,
      "start": 23.0117,
      "duration": 0.014,
      "velocity": 97,
      "chip": "ym2612"
    },
    {
      "channel": 1,
      "note": 64,
      "start": 23.0213,
      "duration": 0.0161,
      "velocity": 124,
      "chip": "ym2612"
    },
    {
      "channel": 0,
      "note": 46,
      "start": 23.0233,
      "duration": 0.0158,
      "velocity": 115,
      "chip": "ym2612"
    },
    {
      "channel": 4,
      "note": 77,
      "start": 23.0245,
      "duration": 0.0185,
      "velocity": 97,
      "chip": "ym2612"
    },
    {
      "channel": 3,
      "note": 80,
      "start": 23.0257,
      "duration": 0.0186,
      "velocity": 97,
      "chip": "ym2612"
    },
    {
      "channel": 1,
      "note": 62,
      "start": 23.0374,
      "duration": 0.0161,
      "velocity": 124,
      "chip": "ym2612"
    },
    {
      "channel": 0,
      "note": 47,
      "start": 23.0391,
      "duration": 0.0161,
      "velocity": 115,
      "chip": "ym2612"
    },
    {
      "channel": 4,
      "note": 77,
      "start": 23.0431,
      "duration": 0.0161,
      "velocity": 97,
      "chip": "ym2612"
    },
    {
      "channel": 3,
      "note": 80,
      "start": 23.0443,
      "duration": 0.016,
      "velocity": 97,
      "chip": "ym2612"
    },
    {
      "channel": 2,
      "note": 56,
      "start": 23.0457,
      "duration": 0.0158,
      "velocity": 100,
      "chip": "ym2612"
    },
    {
      "channel": 1,
      "note": 61,
      "start": 23.0535,
      "duration": 0.0161,
      "velocity": 124,
      "chip": "ym2612"
    },
    {
      "channel": 0,
      "note": 47,
      "start": 23.0552,
      "duration": 0.0161,
      "velocity": 115,
      "chip": "ym2612"
    },
    {
      "channel": 4,
      "note": 77,
      "start": 23.0591,
      "duration": 0.0134,
      "velocity": 97,
      "chip": "ym2612"
    },
    {
      "channel": 3,
      "note": 80,
      "start": 23.0603,
      "duration": 0.0158,
      "velocity": 97,
      "chip": "ym2612"
    },
    {
      "channel": 2,
      "note": 56,
      "start": 23.0615,
      "duration": 0.0157,
      "velocity": 100,
      "chip": "ym2612"
    },
    {
      "channel": 1,
      "note": 60,
      "start": 23.0696,
      "duration": 0.0161,
      "velocity": 124,
      "chip": "ym2612"
    },
    {
      "channel": 0,
      "note": 47,
      "start": 23.0713,
      "duration": 0.0161,
      "velocity": 115,
      "chip": "ym2612"
    },
    {
      "channel": 4,
      "note": 77,
      "start": 23.0725,
      "duration": 0.0161,
      "velocity": 97,
      "chip": "ym2612"
    },
    {
      "channel": 3,
      "note": 80,
      "start": 23.0761,
      "duration": 0.014,
      "velocity": 97,
      "chip": "ym2612"
    },
    {
      "channel": 2,
      "note": 56,
      "start": 23.0772,
      "duration": 0.014,
      "velocity": 100,
      "chip": "ym2612"
    },
    {
      "channel": 1,
      "note": 59,
      "start": 23.0857,
      "duration": 0.0161,
      "velocity": 124,
      "chip": "ym2612"
    },
    {
      "channel": 0,
      "note": 48,
      "start": 23.0874,
      "duration": 0.0161,
      "velocity": 115,
      "chip": "ym2612"
    },
    {
      "channel": 4,
      "note": 77,
      "start": 23.0886,
      "duration": 0.0161,
      "velocity": 97,
      "chip": "ym2612"
    },
    {
      "channel": 3,
      "note": 80,
      "start": 23.0901,
      "duration": 0.0158,
      "velocity": 97,
      "chip": "ym2612"
    },
    {
      "channel": 2,
      "note": 56,
      "start": 23.0912,
      "duration": 0.0185,
      "velocity": 100,
      "chip": "ym2612"
    },
    {
      "channel": 1,
      "note": 57,
      "start": 23.1018,
      "duration": 0.0161,
      "velocity": 124,
      "chip": "ym2612"
    },
    {
      "channel": 0,
      "note": 48,
      "start": 23.1035,
      "duration": 0.0161,
      "velocity": 115,
      "chip": "ym2612"
    },
    {
      "channel": 4,
      "note": 77,
      "start": 23.1047,
      "duration": 0.0161,
      "velocity": 97,
      "chip": "ym2612"
    },
    {
      "channel": 3,
      "note": 80,
      "start": 23.1059,
      "duration": 0.0161,
      "velocity": 97,
      "chip": "ym2612"
    },
    {
      "channel": 2,
      "note": 56,
      "start": 23.1097,
      "duration": 0.0161,
      "velocity": 100,
      "chip": "ym2612"
    },
    {
      "channel": 1,
      "note": 56,
      "start": 23.1179,
      "duration": 0.0161,
      "velocity": 124,
      "chip": "ym2612"
    },
    {
      "channel": 0,
      "note": 49,
      "start": 23.1196,
      "duration": 0.0153,
      "velocity": 1,
      "chip": "ym2612"
    },
    {
      "channel": 4,
      "note": 77,
      "start": 23.1208,
      "duration": 0.0153,
      "velocity": 97,
      "chip": "ym2612"
    },
    {
      "channel": 3,
      "note": 80,
      "start": 23.122,
      "duration": 0.0153,
      "velocity": 97,
      "chip": "ym2612"
    },
    {
      "channel": 2,
      "note": 56,
      "start": 23.1259,
      "duration": 0.0125,
      "velocity": 100,
      "chip": "ym2612"
    },
    {
      "channel": 1,
      "note": 55,
      "start": 23.134,
      "duration": 0.0161,
      "velocity": 124,
      "chip": "ym2612"
    },
    {
      "channel": 4,
      "note": 77,
      "start": 23.1361,
      "duration": 0.0153,
      "velocity": 97,
      "chip": "ym2612"
    },
    {
      "channel": 3,
      "note": 80,
      "start": 23.1373,
      "duration": 0.0153,
      "velocity": 97,
      "chip": "ym2612"
    },
    {
      "channel": 2,
      "note": 56,
      "start": 23.1384,
      "duration": 0.0153,
      "velocity": 100,
      "chip": "ym2612"
    },
    {
      "channel": 1,
      "note": 53,
      "start": 23.1501,
      "duration": 0.0161,
      "velocity": 124,
      "chip": "ym2612"
    },
    {
      "channel": 4,
      "note": 77,
      "start": 23.1514,
      "duration": 0.0161,
      "velocity": 97,
      "chip": "ym2612"
    },
    {
      "channel": 3,
      "note": 80,
      "start": 23.1525,
      "duration": 0.0161,
      "velocity": 97,
      "chip": "ym2612"
    },
    {
      "channel": 2,
      "note": 56,
      "start": 23.1537,
      "duration": 0.0162,
      "velocity": 100,
      "chip": "ym2612"
    },
    {
      "channel": 1,
      "note": 52,
      "start": 23.1662,
      "duration": 0.0161,
      "velocity": 124,
      "chip": "ym2612"
    },
    {
      "channel": 4,
      "note": 77,
      "start": 23.1675,
      "duration": 0.0161,
      "velocity": 97,
      "chip": "ym2612"
    },
    {
      "channel": 3,
      "note": 80,
      "start": 23.1687,
      "duration": 0.016,
      "velocity": 97,
      "chip": "ym2612"
    },
    {
      "channel": 2,
      "note": 56,
      "start": 23.1698,
      "duration": 0.016,
      "velocity": 100,
      "chip": "ym2612"
    },
    {
      "channel": 1,
      "note": 51,
      "start": 23.1823,
      "duration": 0.0153,
      "velocity": 1,
      "chip": "ym2612"
    },
    {
      "channel": 4,
      "note": 77,
      "start": 23.1836,
      "duration": 0.0153,
      "velocity": 97,
      "chip": "ym2612"
    },
    {
      "channel": 3,
      "note": 80,
      "start": 23.1847,
      "duration": 0.0153,
      "velocity": 97,
      "chip": "ym2612"
    },
    {
      "channel": 2,
      "note": 56,
      "start": 23.1859,
      "duration": 0.0153,
      "velocity": 100,
      "chip": "ym2612"
    },
    {
      "channel": 4,
      "note": 77,
      "start": 23.1988,
      "duration": 0.0153,
      "velocity": 97,
      "chip": "ym2612"
    },
    {
      "channel": 3,
      "note": 80,
      "start": 23.2,
      "duration": 0.0153,
      "velocity": 97,
      "chip": "ym2612"
    },
    {
      "channel": 4,
      "note": 77,
      "start": 23.2141,
      "duration": 0.0195,
      "velocity": 97,
      "chip": "ym2612"
    },
    {
      "channel": 3,
      "note": 80,
      "start": 23.2153,
      "duration": 0.0195,
      "velocity": 97,
      "chip": "ym2612"
    },
    {
      "channel": 0,
      "note": 36,
      "start": 23.2324,
      "duration": 0.0144,
      "velocity": 115,
      "chip": "ym2612"
    },
    {
      "channel": 4,
      "note": 77,
      "start": 23.2337,
      "duration": 0.0144,
      "velocity": 97,
      "chip": "ym2612"
    },
    {
      "channel": 3,
      "note": 80,
      "start": 23.2349,
      "duration": 0.0144,
      "velocity": 97,
      "chip": "ym2612"
    },
    {
      "channel": 2,
      "note": 49,
      "start": 23.2363,
      "duration": 0.0141,
      "velocity": 100,
      "chip": "ym2612"
    },
    {
      "channel": 1,
      "note": 37,
      "start": 23.2377,
      "duration": 0.0139,
      "velocity": 100,
      "chip": "ym2612"
    },
    {
      "channel": 0,
      "note": 36,
      "start": 23.2469,
      "duration": 0.016,
      "velocity": 115,
      "chip": "ym2612"
    },
    {
      "channel": 4,
      "note": 77,
      "start": 23.248,
      "duration": 0.016,
      "velocity": 97,
      "chip": "ym2612"
    },
    {
      "channel": 3,
      "note": 80,
      "start": 23.2492,
      "duration": 0.016,
      "velocity": 97,
      "chip": "ym2612"
    },
    {
      "channel": 2,
      "note": 49,
      "start": 23.2504,
      "duration": 0.016,
      "velocity": 100,
      "chip": "ym2612"
    },
    {
      "channel": 1,
      "note": 37,
      "start": 23.2516,
      "duration": 0.0159,
      "velocity": 100,
      "chip": "ym2612"
    },
    {
      "channel": 0,
      "note": 37,
      "start": 23.2629,
      "duration": 0.0161,
      "velocity": 115,
      "chip": "ym2612"
    },
    {
      "channel": 4,
      "note": 77,
      "start": 23.2641,
      "duration": 0.0161,
      "velocity": 97,
      "chip": "ym2612"
    },
    {
      "channel": 3,
      "note": 80,
      "start": 23.2653,
      "duration": 0.0161,
      "velocity": 97,
      "chip": "ym2612"
    },
    {
      "channel": 2,
      "note": 49,
      "start": 23.2664,
      "duration": 0.0161,
      "velocity": 100,
      "chip": "ym2612"
    },
    {
      "channel": 1,
      "note": 37,
      "start": 23.2675,
      "duration": 0.0162,
      "velocity": 100,
      "chip": "ym2612"
    },
    {
      "channel": 0,
      "note": 37,
      "start": 23.279,
      "duration": 0.0161,
      "velocity": 115,
      "chip": "ym2612"
    },
    {
      "channel": 4,
      "note": 77,
      "start": 23.2802,
      "duration": 0.0161,
      "velocity": 97,
      "chip": "ym2612"
    },
    {
      "channel": 3,
      "note": 80,
      "start": 23.2814,
      "duration": 0.0161,
      "velocity": 97,
      "chip": "ym2612"
    },
    {
      "channel": 2,
      "note": 49,
      "start": 23.2825,
      "duration": 0.0161,
      "velocity": 100,
      "chip": "ym2612"
    },
    {
      "channel": 1,
      "note": 37,
      "start": 23.2837,
      "duration": 0.0161,
      "velocity": 100,
      "chip": "ym2612"
    },
    {
      "channel": 0,
      "note": 38,
      "start": 23.2951,
      "duration": 0.0161,
      "velocity": 115,
      "chip": "ym2612"
    },
    {
      "channel": 4,
      "note": 77,
      "start": 23.2963,
      "duration": 0.0161,
      "velocity": 97,
      "chip": "ym2612"
    },
    {
      "channel": 3,
      "note": 80,
      "start": 23.2975,
      "duration": 0.016,
      "velocity": 97,
      "chip": "ym2612"
    },
    {
      "channel": 2,
      "note": 49,
      "start": 23.2986,
      "duration": 0.0161,
      "velocity": 100,
      "chip": "ym2612"
    },
    {
      "channel": 1,
      "note": 37,
      "start": 23.2997,
      "duration": 0.0161,
      "velocity": 100,
      "chip": "ym2612"
    },
    {
      "channel": 0,
      "note": 38,
      "start": 23.3112,
      "duration": 0.0162,
      "velocity": 115,
      "chip": "ym2612"
    },
    {
      "channel": 4,
      "note": 77,
      "start": 23.3124,
      "duration": 0.0161,
      "velocity": 97,
      "chip": "ym2612"
    },
    {
      "channel": 3,
      "note": 80,
      "start": 23.3135,
      "duration": 0.0162,
      "velocity": 97,
      "chip": "ym2612"
    },
    {
      "channel": 2,
      "note": 49,
      "start": 23.3147,
      "duration": 0.0161,
      "velocity": 100,
      "chip": "ym2612"
    },
    {
      "channel": 1,
      "note": 37,
      "start": 23.3158,
      "duration": 0.0161,
      "velocity": 100,
      "chip": "ym2612"
    },
    {
      "channel": 0,
      "note": 39,
      "start": 23.3273,
      "duration": 0.0163,
      "velocity": 115,
      "chip": "ym2612"
    },
    {
      "channel": 4,
      "note": 77,
      "start": 23.3285,
      "duration": 0.0163,
      "velocity": 97,
      "chip": "ym2612"
    },
    {
      "channel": 3,
      "note": 80,
      "start": 23.3297,
      "duration": 0.0163,
      "velocity": 97,
      "chip": "ym2612"
    },
    {
      "channel": 2,
      "note": 49,
      "start": 23.3308,
      "duration": 0.0163,
      "velocity": 100,
      "chip": "ym2612"
    },
    {
      "channel": 1,
      "note": 37,
      "start": 23.3319,
      "duration": 0.0163,
      "velocity": 100,
      "chip": "ym2612"
    },
    {
      "channel": 0,
      "note": 39,
      "start": 23.3436,
      "duration": 0.0159,
      "velocity": 115,
      "chip": "ym2612"
    },
    {
      "channel": 4,
      "note": 77,
      "start": 23.3448,
      "duration": 0.0159,
      "velocity": 97,
      "chip": "ym2612"
    },
    {
      "channel": 3,
      "note": 80,
      "start": 23.346,
      "duration": 0.0158,
      "velocity": 97,
      "chip": "ym2612"
    },
    {
      "channel": 2,
      "note": 49,
      "start": 23.3471,
      "duration": 0.0159,
      "velocity": 100,
      "chip": "ym2612"
    },
    {
      "channel": 1,
      "note": 37,
      "start": 23.3483,
      "duration": 0.0158,
      "velocity": 100,
      "chip": "ym2612"
    },
    {
      "channel": 0,
      "note": 40,
      "start": 23.3595,
      "duration": 0.0179,
      "velocity": 115,
      "chip": "ym2612"
    },
    {
      "channel": 4,
      "note": 77,
      "start": 23.3607,
      "duration": 0.0178,
      "velocity": 97,
      "chip": "ym2612"
    },
    {
      "channel": 3,
      "note": 80,
      "start": 23.3618,
      "duration": 0.0179,
      "velocity": 97,
      "chip": "ym2612"
    },
    {
      "channel": 2,
      "note": 49,
      "start": 23.363,
      "duration": 0.0179,
      "velocity": 100,
      "chip": "ym2612"
    },
    {
      "channel": 1,
      "note": 37,
      "start": 23.3641,
      "duration": 0.0178,
      "velocity": 100,
      "chip": "ym2612"
    },
    {
      "channel": 0,
      "note": 40,
      "start": 23.3773,
      "duration": 0.0167,
      "velocity": 115,
      "chip": "ym2612"
    },
    {
      "channel": 4,
      "note": 77,
      "start": 23.3785,
      "duration": 0.0167,
      "velocity": 97,
      "chip": "ym2612"
    },
    {
      "channel": 3,
      "note": 80,
      "start": 23.3797,
      "duration": 0.0167,
      "velocity": 97,
      "chip": "ym2612"
    },
    {
      "channel": 2,
      "note": 49,
      "start": 23.3808,
      "duration": 0.0167,
      "velocity": 100,
      "chip": "ym2612"
    },
    {
      "channel": 1,
      "note": 37,
      "start": 23.3819,
      "duration": 0.0167,
      "velocity": 100,
      "chip": "ym2612"
    },
    {
      "channel": 0,
      "note": 40,
      "start": 23.394,
      "duration": 0.0161,
      "velocity": 115,
      "chip": "ym2612"
    },
    {
      "channel": 4,
      "note": 77,
      "start": 23.3952,
      "duration": 0.0162,
      "velocity": 97,
      "chip": "ym2612"
    },
    {
      "channel": 3,
      "note": 80,
      "start": 23.3964,
      "duration": 0.0161,
      "velocity": 97,
      "chip": "ym2612"
    },
    {
      "channel": 0,
      "note": 41,
      "start": 23.4102,
      "duration": 0.0141,
      "velocity": 115,
      "chip": "ym2612"
    },
    {
      "channel": 4,
      "note": 77,
      "start": 23.4114,
      "duration": 0.0141,
      "velocity": 97,
      "chip": "ym2612"
    },
    {
      "channel": 3,
      "note": 80,
      "start": 23.4125,
      "duration": 0.0141,
      "velocity": 97,
      "chip": "ym2612"
    },
    {
      "channel": 0,
      "note": 41,
      "start": 23.4242,
      "duration": 0.0185,
      "velocity": 115,
      "chip": "ym2612"
    },
    {
      "channel": 4,
      "note": 77,
      "start": 23.4254,
      "duration": 0.0185,
      "velocity": 97,
      "chip": "ym2612"
    },
    {
      "channel": 3,
      "note": 80,
      "start": 23.4266,
      "duration": 0.0185,
      "velocity": 97,
      "chip": "ym2612"
    },
    {
      "channel": 2,
      "note": 56,
      "start": 23.428,
      "duration": 0.0183,
      "velocity": 100,
      "chip": "ym2612"
    },
    {
      "channel": 1,
      "note": 44,
      "start": 23.4294,
      "duration": 0.0181,
      "velocity": 100,
      "chip": "ym2612"
    },
    {
      "channel": 0,
      "note": 42,
      "start": 23.4427,
      "duration": 0.0161,
      "velocity": 115,
      "chip": "ym2612"
    },
    {
      "channel": 4,
      "note": 77,
      "start": 23.4439,
      "duration": 0.0161,
      "velocity": 97,
      "chip": "ym2612"
    },
    {
      "channel": 3,
      "note": 80,
      "start": 23.4451,
      "duration": 0.0161,
      "velocity": 97,
      "chip": "ym2612"
    },
    {
      "channel": 2,
      "note": 56,
      "start": 23.4463,
      "duration": 0.016,
      "velocity": 100,
      "chip": "ym2612"
    },
    {
      "channel": 1,
      "note": 44,
      "start": 23.4475,
      "duration": 0.016,
      "velocity": 100,
      "chip": "ym2612"
    },
    {
      "channel": 0,
      "note": 42,
      "start": 23.4588,
      "duration": 0.0134,
      "velocity": 115,
      "chip": "ym2612"
    },
    {
      "channel": 4,
      "note": 77,
      "start": 23.46,
      "duration": 0.0157,
      "velocity": 97,
      "chip": "ym2612"
    },
    {
      "channel": 3,
      "note": 80,
      "start": 23.4612,
      "duration": 0.0158,
      "velocity": 97,
      "chip": "ym2612"
    },
    {
      "channel": 2,
      "note": 56,
      "start": 23.4623,
      "duration": 0.0158,
      "velocity": 100,
      "chip": "ym2612"
    },
    {
      "channel": 1,
      "note": 44,
      "start": 23.4635,
      "duration": 0.0157,
      "velocity": 100,
      "chip": "ym2612"
    },
    {
      "channel": 0,
      "note": 43,
      "start": 23.4722,
      "duration": 0.0161,
      "velocity": 115,
      "chip": "ym2612"
    },
    {
      "channel": 4,
      "note": 77,
      "start": 23.4758,
      "duration": 0.0141,
      "velocity": 97,
      "chip": "ym2612"
    },
    {
      "channel": 3,
      "note": 80,
      "start": 23.477,
      "duration": 0.0141,
      "velocity": 97,
      "chip": "ym2612"
    },
    {
      "channel": 2,
      "note": 56,
      "start": 23.4781,
      "duration": 0.014,
      "velocity": 100,
      "chip": "ym2612"
    },
    {
      "channel": 1,
      "note": 44,
      "start": 23.4792,
      "duration": 0.0141,
      "velocity": 100,
      "chip": "ym2612"
    },
    {
      "channel": 0,
      "note": 43,
      "start": 23.4883,
      "duration": 0.0161,
      "velocity": 115,
      "chip": "ym2612"
    },
    {
      "channel": 4,
      "note": 77,
      "start": 23.4898,
      "duration": 0.0158,
      "velocity": 97,
      "chip": "ym2612"
    },
    {
      "channel": 3,
      "note": 80,
      "start": 23.491,
      "duration": 0.0185,
      "velocity": 97,
      "chip": "ym2612"
    },
    {
      "channel": 2,
      "note": 56,
      "start": 23.4921,
      "duration": 0.0185,
      "velocity": 100,
      "chip": "ym2612"
    },
    {
      "channel": 1,
      "note": 44,
      "start": 23.4932,
      "duration": 0.0185,
      "velocity": 100,
      "chip": "ym2612"
    },
    {
      "channel": 0,
      "note": 44,
      "start": 23.5044,
      "duration": 0.0161,
      "velocity": 115,
      "chip": "ym2612"
    },
    {
      "channel": 4,
      "note": 77,
      "start": 23.5056,
      "duration": 0.0161,
      "velocity": 97,
      "chip": "ym2612"
    },
    {
      "channel": 3,
      "note": 80,
      "start": 23.5095,
      "duration": 0.0161,
      "velocity": 97,
      "chip": "ym2612"
    },
    {
      "channel": 2,
      "note": 56,
      "start": 23.5106,
      "duration": 0.0161,
      "velocity": 100,
      "chip": "ym2612"
    },
    {
      "channel": 1,
      "note": 44,
      "start": 23.5118,
      "duration": 0.0161,
      "velocity": 100,
      "chip": "ym2612"
    },
    {
      "channel": 0,
      "note": 44,
      "start": 23.5205,
      "duration": 0.0161,
      "velocity": 115,
      "chip": "ym2612"
    },
    {
      "channel": 4,
      "note": 77,
      "start": 23.5217,
      "duration": 0.0161,
      "velocity": 97,
      "chip": "ym2612"
    },
    {
      "channel": 3,
      "note": 80,
      "start": 23.5256,
      "duration": 0.0134,
      "velocity": 97,
      "chip": "ym2612"
    },
    {
      "channel": 2,
      "note": 56,
      "start": 23.5267,
      "duration": 0.0158,
      "velocity": 100,
      "chip": "ym2612"
    },
    {
      "channel": 1,
      "note": 44,
      "start": 23.5278,
      "duration": 0.0158,
      "velocity": 100,
      "chip": "ym2612"
    },
    {
      "channel": 0,
      "note": 44,
      "start": 23.5366,
      "duration": 0.0161,
      "velocity": 115,
      "chip": "ym2612"
    },
    {
      "channel": 4,
      "note": 77,
      "start": 23.5378,
      "duration": 0.0161,
      "velocity": 97,
      "chip": "ym2612"
    },
    {
      "channel": 3,
      "note": 80,
      "start": 23.539,
      "duration": 0.0161,
      "velocity": 97,
      "chip": "ym2612"
    },
    {
      "channel": 2,
      "note": 56,
      "start": 23.5425,
      "duration": 0.0141,
      "velocity": 100,
      "chip": "ym2612"
    },
    {
      "channel": 1,
      "note": 44,
      "start": 23.5436,
      "duration": 0.0141,
      "velocity": 100,
      "chip": "ym2612"
    },
    {
      "channel": 0,
      "note": 45,
      "start": 23.5527,
      "duration": 0.0161,
      "velocity": 115,
      "chip": "ym2612"
    },
    {
      "channel": 4,
      "note": 77,
      "start": 23.5539,
      "duration": 0.0161,
      "velocity": 97,
      "chip": "ym2612"
    },
    {
      "channel": 3,
      "note": 80,
      "start": 23.5551,
      "duration": 0.0161,
      "velocity": 97,
      "chip": "ym2612"
    },
    {
      "channel": 2,
      "note": 56,
      "start": 23.5565,
      "duration": 0.0158,
      "velocity": 100,
      "chip": "ym2612"
    },
    {
      "channel": 1,
      "note": 44,
      "start": 23.5577,
      "duration": 0.0185,
      "velocity": 100,
      "chip": "ym2612"
    },
    {
      "channel": 0,
      "note": 45,
      "start": 23.5688,
      "duration": 0.0161,
      "velocity": 115,
      "chip": "ym2612"
    },
    {
      "channel": 4,
      "note": 77,
      "start": 23.57,
      "duration": 0.0161,
      "velocity": 97,
      "chip": "ym2612"
    },
    {
      "channel": 3,
      "note": 80,
      "start": 23.5712,
      "duration": 0.0161,
      "velocity": 97,
      "chip": "ym2612"
    },
    {
      "channel": 2,
      "note": 56,
      "start": 23.5723,
      "duration": 0.0161,
      "velocity": 100,
      "chip": "ym2612"
    },
    {
      "channel": 1,
      "note": 44,
      "start": 23.5762,
      "duration": 0.0161,
      "velocity": 100,
      "chip": "ym2612"
    },
    {
      "channel": 0,
      "note": 46,
      "start": 23.5849,
      "duration": 0.0161,
      "velocity": 115,
      "chip": "ym2612"
    },
    {
      "channel": 4,
      "note": 77,
      "start": 23.5861,
      "duration": 0.0161,
      "velocity": 97,
      "chip": "ym2612"
    },
    {
      "channel": 3,
      "note": 80,
      "start": 23.5873,
      "duration": 0.0161,
      "velocity": 97,
      "chip": "ym2612"
    },
    {
      "channel": 0,
      "note": 46,
      "start": 23.601,
      "duration": 0.0195,
      "velocity": 115,
      "chip": "ym2612"
    },
    {
      "channel": 4,
      "note": 77,
      "start": 23.6022,
      "duration": 0.0195,
      "velocity": 97,
      "chip": "ym2612"
    },
    {
      "channel": 3,
      "note": 80,
      "start": 23.6034,
      "duration": 0.0199,
      "velocity": 97,
      "chip": "ym2612"
    },
    {
      "channel": 1,
      "note": 78,
      "start": 23.6188,
      "duration": 0.0144,
      "velocity": 124,
      "chip": "ym2612"
    },
    {
      "channel": 0,
      "note": 47,
      "start": 23.6205,
      "duration": 0.0144,
      "velocity": 115,
      "chip": "ym2612"
    },
    {
      "channel": 4,
      "note": 77,
      "start": 23.6217,
      "duration": 0.0144,
      "velocity": 97,
      "chip": "ym2612"
    },
    {
      "channel": 3,
      "note": 80,
      "start": 23.6233,
      "duration": 0.014,
      "velocity": 97,
      "chip": "ym2612"
    },
    {
      "channel": 2,
      "note": 61,
      "start": 23.6247,
      "duration": 0.0138,
      "velocity": 100,
      "chip": "ym2612"
    },
    {
      "channel": 1,
      "note": 76,
      "start": 23.6332,
      "duration": 0.016,
      "velocity": 124,
      "chip": "ym2612"
    },
    {
      "channel": 0,
      "note": 47,
      "start": 23.6349,
      "duration": 0.016,
      "velocity": 115,
      "chip": "ym2612"
    },
    {
      "channel": 4,
      "note": 77,
      "start": 23.6361,
      "duration": 0.016,
      "velocity": 97,
      "chip": "ym2612"
    },
    {
      "channel": 3,
      "note": 80,
      "start": 23.6373,
      "duration": 0.016,
      "velocity": 97,
      "chip": "ym2612"
    },
    {
      "channel": 2,
      "note": 61,
      "start": 23.6385,
      "duration": 0.016,
      "velocity": 100,
      "chip": "ym2612"
    },
    {
      "channel": 1,
      "note": 75,
      "start": 23.6492,
      "duration": 0.0161,
      "velocity": 124,
      "chip": "ym2612"
    },
    {
      "channel": 0,
      "note": 47,
      "start": 23.651,
      "duration": 0.0161,
      "velocity": 115,
      "chip": "ym2612"
    },
    {
      "channel": 4,
      "note": 77,
      "start": 23.6522,
      "duration": 0.0161,
      "velocity": 97,
      "chip": "ym2612"
    },
    {
      "channel": 3,
      "note": 80,
      "start": 23.6533,
      "duration": 0.0162,
      "velocity": 97,
      "chip": "ym2612"
    },
    {
      "channel": 2,
      "note": 61,
      "start": 23.6544,
      "duration": 0.0161,
      "velocity": 100,
      "chip": "ym2612"
    },
    {
      "channel": 1,
      "note": 74,
      "start": 23.6653,
      "duration": 0.0161,
      "velocity": 124,
      "chip": "ym2612"
    },
    {
      "channel": 0,
      "note": 48,
      "start": 23.667,
      "duration": 0.0162,
      "velocity": 115,
      "chip": "ym2612"
    },
    {
      "channel": 4,
      "note": 77,
      "start": 23.6683,
      "duration": 0.0161,
      "velocity": 97,
      "chip": "ym2612"
    },
    {
      "channel": 3,
      "note": 80,
      "start": 23.6695,
      "duration": 0.0161,
      "velocity": 97,
      "chip": "ym2612"
    },
    {
      "channel": 2,
      "note": 61,
      "start": 23.6705,
      "duration": 0.0161,
      "velocity": 100,
      "chip": "ym2612"
    },
    {
      "channel": 1,
      "note": 72,
      "start": 23.6814,
      "duration": 0.0161,
      "velocity": 124,
      "chip": "ym2612"
    },
    {
      "channel": 0,
      "note": 48,
      "start": 23.6832,
      "duration": 0.0161,
      "velocity": 115,
      "chip": "ym2612"
    },
    {
      "channel": 4,
      "note": 77,
      "start": 23.6844,
      "duration": 0.016,
      "velocity": 97,
      "chip": "ym2612"
    },
    {
      "channel": 3,
      "note": 80,
      "start": 23.6856,
      "duration": 0.0161,
      "velocity": 97,
      "chip": "ym2612"
    },
    {
      "channel": 2,
      "note": 61,
      "start": 23.6867,
      "duration": 0.0161,
      "velocity": 100,
      "chip": "ym2612"
    },
    {
      "channel": 1,
      "note": 71,
      "start": 23.6975,
      "duration": 0.0162,
      "velocity": 124,
      "chip": "ym2612"
    },
    {
      "channel": 0,
      "note": 49,
      "start": 23.6993,
      "duration": 0.0153,
      "velocity": 1,
      "chip": "ym2612"
    },
    {
      "channel": 4,
      "note": 77,
      "start": 23.7004,
      "duration": 0.0153,
      "velocity": 97,
      "chip": "ym2612"
    },
    {
      "channel": 3,
      "note": 80,
      "start": 23.7016,
      "duration": 0.0153,
      "velocity": 97,
      "chip": "ym2612"
    },
    {
      "channel": 2,
      "note": 61,
      "start": 23.7028,
      "duration": 0.0153,
      "velocity": 100,
      "chip": "ym2612"
    },
    {
      "channel": 1,
      "note": 70,
      "start": 23.7137,
      "duration": 0.0161,
      "velocity": 124,
      "chip": "ym2612"
    },
    {
      "channel": 4,
      "note": 77,
      "start": 23.7158,
      "duration": 0.0153,
      "velocity": 97,
      "chip": "ym2612"
    },
    {
      "channel": 3,
      "note": 80,
      "start": 23.7169,
      "duration": 0.0153,
      "velocity": 97,
      "chip": "ym2612"
    },
    {
      "channel": 2,
      "note": 61,
      "start": 23.718,
      "duration": 0.0153,
      "velocity": 100,
      "chip": "ym2612"
    },
    {
      "channel": 1,
      "note": 69,
      "start": 23.7298,
      "duration": 0.0161,
      "velocity": 124,
      "chip": "ym2612"
    },
    {
      "channel": 4,
      "note": 77,
      "start": 23.731,
      "duration": 0.0161,
      "velocity": 97,
      "chip": "ym2612"
    },
    {
      "channel": 3,
      "note": 80,
      "start": 23.7322,
      "duration": 0.0161,
      "velocity": 97,
      "chip": "ym2612"
    },
    {
      "channel": 2,
      "note": 61,
      "start": 23.7333,
      "duration": 0.0161,
      "velocity": 100,
      "chip": "ym2612"
    },
    {
      "channel": 1,
      "note": 68,
      "start": 23.7459,
      "duration": 0.0161,
      "velocity": 124,
      "chip": "ym2612"
    },
    {
      "channel": 4,
      "note": 77,
      "start": 23.7471,
      "duration": 0.0161,
      "velocity": 97,
      "chip": "ym2612"
    },
    {
      "channel": 3,
      "note": 80,
      "start": 23.7483,
      "duration": 0.0161,
      "velocity": 97,
      "chip": "ym2612"
    },
    {
      "channel": 2,
      "note": 61,
      "start": 23.7494,
      "duration": 0.0161,
      "velocity": 100,
      "chip": "ym2612"
    },
    {
      "channel": 1,
      "note": 66,
      "start": 23.762,
      "duration": 0.0161,
      "velocity": 124,
      "chip": "ym2612"
    },
    {
      "channel": 4,
      "note": 77,
      "start": 23.7632,
      "duration": 0.0161,
      "velocity": 97,
      "chip": "ym2612"
    },
    {
      "channel": 3,
      "note": 80,
      "start": 23.7644,
      "duration": 0.0161,
      "velocity": 97,
      "chip": "ym2612"
    },
    {
      "channel": 2,
      "note": 61,
      "start": 23.7655,
      "duration": 0.0161,
      "velocity": 100,
      "chip": "ym2612"
    },
    {
      "channel": 1,
      "note": 65,
      "start": 23.778,
      "duration": 0.0161,
      "velocity": 124,
      "chip": "ym2612"
    },
    {
      "channel": 4,
      "note": 77,
      "start": 23.7793,
      "duration": 0.0161,
      "velocity": 97,
      "chip": "ym2612"
    },
    {
      "channel": 3,
      "note": 80,
      "start": 23.7805,
      "duration": 0.0161,
      "velocity": 97,
      "chip": "ym2612"
    },
    {
      "channel": 1,
      "note": 64,
      "start": 23.7941,
      "duration": 0.0162,
      "velocity": 124,
      "chip": "ym2612"
    },
    {
      "channel": 4,
      "note": 77,
      "start": 23.7954,
      "duration": 0.0161,
      "velocity": 97,
      "chip": "ym2612"
    },
    {
      "channel": 3,
      "note": 80,
      "start": 23.7966,
      "duration": 0.0162,
      "velocity": 97,
      "chip": "ym2612"
    },
    {
      "channel": 1,
      "note": 62,
      "start": 23.8103,
      "duration": 0.016,
      "velocity": 124,
      "chip": "ym2612"
    },
    {
      "channel": 4,
      "note": 77,
      "start": 23.8116,
      "duration": 0.016,
      "velocity": 97,
      "chip": "ym2612"
    },
    {
      "channel": 3,
      "note": 80,
      "start": 23.8128,
      "duration": 0.016,
      "velocity": 97,
      "chip": "ym2612"
    },
    {
      "channel": 2,
      "note": 59,
      "start": 23.8142,
      "duration": 0.0158,
      "velocity": 100,
      "chip": "ym2612"
    },
    {
      "channel": 1,
      "note": 61,
      "start": 23.8263,
      "duration": 0.0176,
      "velocity": 124,
      "chip": "ym2612"
    },
    {
      "channel": 4,
      "note": 77,
      "start": 23.8276,
      "duration": 0.0176,
      "velocity": 97,
      "chip": "ym2612"
    },
    {
      "channel": 3,
      "note": 80,
      "start": 23.8288,
      "duration": 0.0176,
      "velocity": 97,
      "chip": "ym2612"
    },
    {
      "channel": 2,
      "note": 59,
      "start": 23.83,
      "duration": 0.0175,
      "velocity": 100,
      "chip": "ym2612"
    },
    {
      "channel": 1,
      "note": 60,
      "start": 23.8439,
      "duration": 0.0167,
      "velocity": 124,
      "chip": "ym2612"
    },
    {
      "channel": 4,
      "note": 77,
      "start": 23.8451,
      "duration": 0.0167,
      "velocity": 97,
      "chip": "ym2612"
    },
    {
      "channel": 3,
      "note": 80,
      "start": 23.8464,
      "duration": 0.0167,
      "velocity": 97,
      "chip": "ym2612"
    },
    {
      "channel": 2,
      "note": 59,
      "start": 23.8474,
      "duration": 0.0167,
      "velocity": 100,
      "chip": "ym2612"
    },
    {
      "channel": 1,
      "note": 59,
      "start": 23.8605,
      "duration": 0.0163,
      "velocity": 124,
      "chip": "ym2612"
    },
    {
      "channel": 4,
      "note": 77,
      "start": 23.8618,
      "duration": 0.0163,
      "velocity": 97,
      "chip": "ym2612"
    },
    {
      "channel": 3,
      "note": 80,
      "start": 23.863,
      "duration": 0.0163,
      "velocity": 97,
      "chip": "ym2612"
    },
    {
      "channel": 2,
      "note": 59,
      "start": 23.8641,
      "duration": 0.0163,
      "velocity": 100,
      "chip": "ym2612"
    },
    {
      "channel": 1,
      "note": 57,
      "start": 23.8769,
      "duration": 0.0142,
      "velocity": 124,
      "chip": "ym2612"
    },
    {
      "channel": 4,
      "note": 77,
      "start": 23.8782,
      "duration": 0.0142,
      "velocity": 97,
      "chip": "ym2612"
    },
    {
      "channel": 3,
      "note": 80,
      "start": 23.8793,
      "duration": 0.0142,
      "velocity": 97,
      "chip": "ym2612"
    },
    {
      "channel": 2,
      "note": 59,
      "start": 23.8805,
      "duration": 0.0142,
      "velocity": 100,
      "chip": "ym2612"
    },
    {
      "channel": 1,
      "note": 56,
      "start": 23.8911,
      "duration": 0.0185,
      "velocity": 124,
      "chip": "ym2612"
    },
    {
      "channel": 4,
      "note": 77,
      "start": 23.8924,
      "duration": 0.0185,
      "velocity": 97,
      "chip": "ym2612"
    },
    {
      "channel": 3,
      "note": 80,
      "start": 23.8935,
      "duration": 0.0186,
      "velocity": 97,
      "chip": "ym2612"
    },
    {
      "channel": 2,
      "note": 59,
      "start": 23.8946,
      "duration": 0.0185,
      "velocity": 100,
      "chip": "ym2612"
    },
    {
      "channel": 1,
      "note": 55,
      "start": 23.9096,
      "duration": 0.0161,
      "velocity": 124,
      "chip": "ym2612"
    },
    {
      "channel": 4,
      "note": 77,
      "start": 23.9109,
      "duration": 0.0161,
      "velocity": 97,
      "chip": "ym2612"
    },
    {
      "channel": 3,
      "note": 80,
      "start": 23.9121,
      "duration": 0.0161,
      "velocity": 97,
      "chip": "ym2612"
    },
    {
      "channel": 2,
      "note": 59,
      "start": 23.9132,
      "duration": 0.0161,
      "velocity": 100,
      "chip": "ym2612"
    },
    {
      "channel": 1,
      "note": 53,
      "start": 23.9257,
      "duration": 0.0134,
      "velocity": 124,
      "chip": "ym2612"
    },
    {
      "channel": 4,
      "note": 77,
      "start": 23.927,
      "duration": 0.0158,
      "velocity": 97,
      "chip": "ym2612"
    },
    {
      "channel": 3,
      "note": 80,
      "start": 23.9282,
      "duration": 0.0158,
      "velocity": 97,
      "chip": "ym2612"
    },
    {
      "channel": 2,
      "note": 59,
      "start": 23.9293,
      "duration": 0.0158,
      "velocity": 100,
      "chip": "ym2612"
    },
    {
      "channel": 1,
      "note": 52,
      "start": 23.939,
      "duration": 0.0161,
      "velocity": 124,
      "chip": "ym2612"
    },
    {
      "channel": 4,
      "note": 77,
      "start": 23.9427,
      "duration": 0.014,
      "velocity": 97,
      "chip": "ym2612"
    },
    {
      "channel": 3,
      "note": 80,
      "start": 23.9439,
      "duration": 0.014,
      "velocity": 97,
      "chip": "ym2612"
    },
    {
      "channel": 2,
      "note": 59,
      "start": 23.945,
      "duration": 0.014,
      "velocity": 100,
      "chip": "ym2612"
    },
    {
      "channel": 1,
      "note": 51,
      "start": 23.9551,
      "duration": 0.0153,
      "velocity": 1,
      "chip": "ym2612"
    },
    {
      "channel": 4,
      "note": 77,
      "start": 23.9567,
      "duration": 0.015,
      "velocity": 97,
      "chip": "ym2612"
    },
    {
      "channel": 3,
      "note": 80,
      "start": 23.9579,
      "duration": 0.0177,
      "velocity": 97,
      "chip": "ym2612"
    },
    {
      "channel": 2,
      "note": 59,
      "start": 23.959,
      "duration": 0.0178,
      "velocity": 100,
      "chip": "ym2612"
    },
    {
      "channel": 4,
      "note": 77,
      "start": 23.9717,
      "duration": 0.0153,
      "velocity": 97,
      "chip": "ym2612"
    },
    {
      "channel": 3,
      "note": 80,
      "start": 23.9756,
      "duration": 0.0125,
      "velocity": 97,
      "chip": "ym2612"
    },
    {
      "channel": 4,
      "note": 77,
      "start": 23.987,
      "duration": 0.0219,
      "velocity": 97,
      "chip": "ym2612"
    },
    {
      "channel": 3,
      "note": 80,
      "start": 23.9882,
      "duration": 0.022,
      "velocity": 97,
      "chip": "ym2612"
    },
    {
      "channel": 1,
      "note": 78,
      "start": 24.0053,
      "duration": 0.0144,
      "velocity": 124,
      "chip": "ym2612"
    },
    {
      "channel": 4,
      "note": 77,
      "start": 24.0089,
      "duration": 0.012,
      "velocity": 97,
      "chip": "ym2612"
    },
    {
      "channel": 3,
      "note": 80,
      "start": 24.0101,
      "duration": 0.012,
      "velocity": 97,
      "chip": "ym2612"
    },
    {
      "channel": 1,
      "note": 76,
      "start": 24.0196,
      "duration": 0.016,
      "velocity": 124,
      "chip": "ym2612"
    },
    {
      "channel": 4,
      "note": 77,
      "start": 24.0209,
      "duration": 0.016,
      "velocity": 97,
      "chip": "ym2612"
    },
    {
      "channel": 3,
      "note": 80,
      "start": 24.0221,
      "duration": 0.016,
      "velocity": 97,
      "chip": "ym2612"
    },
    {
      "channel": 1,
      "note": 75,
      "start": 24.0357,
      "duration": 0.0161,
      "velocity": 124,
      "chip": "ym2612"
    },
    {
      "channel": 4,
      "note": 77,
      "start": 24.0369,
      "duration": 0.0161,
      "velocity": 97,
      "chip": "ym2612"
    },
    {
      "channel": 3,
      "note": 80,
      "start": 24.0381,
      "duration": 0.0161,
      "velocity": 97,
      "chip": "ym2612"
    },
    {
      "channel": 1,
      "note": 74,
      "start": 24.0518,
      "duration": 0.0161,
      "velocity": 124,
      "chip": "ym2612"
    },
    {
      "channel": 4,
      "note": 77,
      "start": 24.053,
      "duration": 0.0161,
      "velocity": 97,
      "chip": "ym2612"
    },
    {
      "channel": 3,
      "note": 80,
      "start": 24.0542,
      "duration": 0.0161,
      "velocity": 97,
      "chip": "ym2612"
    },
    {
      "channel": 1,
      "note": 72,
      "start": 24.0679,
      "duration": 0.0161,
      "velocity": 124,
      "chip": "ym2612"
    },
    {
      "channel": 4,
      "note": 77,
      "start": 24.0691,
      "duration": 0.0161,
      "velocity": 97,
      "chip": "ym2612"
    },
    {
      "channel": 3,
      "note": 80,
      "start": 24.0703,
      "duration": 0.016,
      "velocity": 97,
      "chip": "ym2612"
    },
    {
      "channel": 1,
      "note": 71,
      "start": 24.084,
      "duration": 0.0179,
      "velocity": 124,
      "chip": "ym2612"
    },
    {
      "channel": 4,
      "note": 77,
      "start": 24.0852,
      "duration": 0.0179,
      "velocity": 97,
      "chip": "ym2612"
    },
    {
      "channel": 3,
      "note": 80,
      "start": 24.0864,
      "duration": 0.0179,
      "velocity": 97,
      "chip": "ym2612"
    },
    {
      "channel": 1,
      "note": 78,
      "start": 24.1018,
      "duration": 0.0144,
      "velocity": 124,
      "chip": "ym2612"
    },
    {
      "channel": 4,
      "note": 77,
      "start": 24.1031,
      "duration": 0.0144,
      "velocity": 97,
      "chip": "ym2612"
    },
    {
      "channel": 3,
      "note": 80,
      "start": 24.1043,
      "duration": 0.0144,
      "velocity": 97,
      "chip": "ym2612"
    },
    {
      "channel": 1,
      "note": 76,
      "start": 24.1162,
      "duration": 0.016,
      "velocity": 124,
      "chip": "ym2612"
    },
    {
      "channel": 4,
      "note": 77,
      "start": 24.1175,
      "duration": 0.0161,
      "velocity": 97,
      "chip": "ym2612"
    },
    {
      "channel": 3,
      "note": 80,
      "start": 24.1187,
      "duration": 0.016,
      "velocity": 97,
      "chip": "ym2612"
    },
    {
      "channel": 1,
      "note": 75,
      "start": 24.1322,
      "duration": 0.0161,
      "velocity": 124,
      "chip": "ym2612"
    },
    {
      "channel": 4,
      "note": 77,
      "start": 24.1336,
      "duration": 0.0161,
      "velocity": 97,
      "chip": "ym2612"
    },
    {
      "channel": 3,
      "note": 80,
      "start": 24.1347,
      "duration": 0.0161,
      "velocity": 97,
      "chip": "ym2612"
    },
    {
      "channel": 1,
      "note": 74,
      "start": 24.1483,
      "duration": 0.0161,
      "velocity": 124,
      "chip": "ym2612"
    },
    {
      "channel": 4,
      "note": 77,
      "start": 24.1497,
      "duration": 0.0161,
      "velocity": 97,
      "chip": "ym2612"
    },
    {
      "channel": 3,
      "note": 80,
      "start": 24.1508,
      "duration": 0.0161,
      "velocity": 97,
      "chip": "ym2612"
    },
    {
      "channel": 1,
      "note": 72,
      "start": 24.1645,
      "duration": 0.0161,
      "velocity": 124,
      "chip": "ym2612"
    },
    {
      "channel": 4,
      "note": 77,
      "start": 24.1658,
      "duration": 0.0161,
      "velocity": 97,
      "chip": "ym2612"
    },
    {
      "channel": 3,
      "note": 80,
      "start": 24.1669,
      "duration": 0.0161,
      "velocity": 97,
      "chip": "ym2612"
    },
    {
      "channel": 1,
      "note": 71,
      "start": 24.1806,
      "duration": 0.0178,
      "velocity": 124,
      "chip": "ym2612"
    },
    {
      "channel": 4,
      "note": 77,
      "start": 24.1819,
      "duration": 0.0179,
      "velocity": 97,
      "chip": "ym2612"
    },
    {
      "channel": 3,
      "note": 80,
      "start": 24.183,
      "duration": 0.018,
      "velocity": 97,
      "chip": "ym2612"
    },
    {
      "channel": 1,
      "note": 78,
      "start": 24.1985,
      "duration": 0.0144,
      "velocity": 124,
      "chip": "ym2612"
    },
    {
      "channel": 4,
      "note": 77,
      "start": 24.1997,
      "duration": 0.0144,
      "velocity": 97,
      "chip": "ym2612"
    },
    {
      "channel": 3,
      "note": 80,
      "start": 24.201,
      "duration": 0.0143,
      "velocity": 97,
      "chip": "ym2612"
    },
    {
      "channel": 2,
      "note": 61,
      "start": 24.2023,
      "duration": 0.0141,
      "velocity": 100,
      "chip": "ym2612"
    },
    {
      "channel": 1,
      "note": 76,
      "start": 24.2128,
      "duration": 0.016,
      "velocity": 124,
      "chip": "ym2612"
    },
    {
      "channel": 4,
      "note": 77,
      "start": 24.2141,
      "duration": 0.016,
      "velocity": 97,
      "chip": "ym2612"
    },
    {
      "channel": 3,
      "note": 80,
      "start": 24.2153,
      "duration": 0.016,
      "velocity": 97,
      "chip": "ym2612"
    },
    {
      "channel": 2,
      "note": 61,
      "start": 24.2165,
      "duration": 0.016,
      "velocity": 100,
      "chip": "ym2612"
    },
    {
      "channel": 1,
      "note": 75,
      "start": 24.2289,
      "duration": 0.0161,
      "velocity": 124,
      "chip": "ym2612"
    },
    {
      "channel": 4,
      "note": 77,
      "start": 24.2301,
      "duration": 0.0161,
      "velocity": 97,
      "chip": "ym2612"
    },
    {
      "channel": 3,
      "note": 80,
      "start": 24.2313,
      "duration": 0.0161,
      "velocity": 97,
      "chip": "ym2612"
    },
    {
      "channel": 2,
      "note": 61,
      "start": 24.2324,
      "duration": 0.0161,
      "velocity": 100,
      "chip": "ym2612"
    },
    {
      "channel": 1,
      "note": 74,
      "start": 24.245,
      "duration": 0.0161,
      "velocity": 124,
      "chip": "ym2612"
    },
    {
      "channel": 4,
      "note": 77,
      "start": 24.2462,
      "duration": 0.0161,
      "velocity": 97,
      "chip": "ym2612"
    },
    {
      "channel": 3,
      "note": 80,
      "start": 24.2474,
      "duration": 0.0161,
      "velocity": 97,
      "chip": "ym2612"
    },
    {
      "channel": 2,
      "note": 61,
      "start": 24.2485,
      "duration": 0.0162,
      "velocity": 100,
      "chip": "ym2612"
    },
    {
      "channel": 1,
      "note": 72,
      "start": 24.2611,
      "duration": 0.0161,
      "velocity": 124,
      "chip": "ym2612"
    },
    {
      "channel": 4,
      "note": 77,
      "start": 24.2623,
      "duration": 0.0161,
      "velocity": 97,
      "chip": "ym2612"
    },
    {
      "channel": 3,
      "note": 80,
      "start": 24.2635,
      "duration": 0.0161,
      "velocity": 97,
      "chip": "ym2612"
    },
    {
      "channel": 2,
      "note": 61,
      "start": 24.2647,
      "duration": 0.0161,
      "velocity": 100,
      "chip": "ym2612"
    },
    {
      "channel": 1,
      "note": 71,
      "start": 24.2771,
      "duration": 0.0162,
      "velocity": 124,
      "chip": "ym2612"
    },
    {
      "channel": 4,
      "note": 77,
      "start": 24.2784,
      "duration": 0.0161,
      "velocity": 97,
      "chip": "ym2612"
    },
    {
      "channel": 3,
      "note": 80,
      "start": 24.2796,
      "duration": 0.0161,
      "velocity": 97,
      "chip": "ym2612"
    },
    {
      "channel": 2,
      "note": 61,
      "start": 24.2808,
      "duration": 0.0161,
      "velocity": 100,
      "chip": "ym2612"
    },
    {
      "channel": 1,
      "note": 70,
      "start": 24.2933,
      "duration": 0.0172,
      "velocity": 124,
      "chip": "ym2612"
    },
    {
      "channel": 4,
      "note": 77,
      "start": 24.2946,
      "duration": 0.0172,
      "velocity": 97,
      "chip": "ym2612"
    },
    {
      "channel": 3,
      "note": 80,
      "start": 24.2957,
      "duration": 0.0173,
      "velocity": 97,
      "chip": "ym2612"
    },
    {
      "channel": 2,
      "note": 61,
      "start": 24.2969,
      "duration": 0.0173,
      "velocity": 100,
      "chip": "ym2612"
    },
    {
      "channel": 1,
      "note": 69,
      "start": 24.3105,
      "duration": 0.0167,
      "velocity": 124,
      "chip": "ym2612"
    },
    {
      "channel": 4,
      "note": 77,
      "start": 24.3118,
      "duration": 0.0167,
      "velocity": 97,
      "chip": "ym2612"
    },
    {
      "channel": 3,
      "note": 80,
      "start": 24.313,
      "duration": 0.0167,
      "velocity": 97,
      "chip": "ym2612"
    },
    {
      "channel": 2,
      "note": 61,
      "start": 24.3142,
      "duration": 0.0167,
      "velocity": 100,
      "chip": "ym2612"
    },
    {
      "channel": 1,
      "note": 68,
      "start": 24.3273,
      "duration": 0.0163,
      "velocity": 124,
      "chip": "ym2612"
    },
    {
      "channel": 4,
      "note": 77,
      "start": 24.3285,
      "duration": 0.0163,
      "velocity": 97,
      "chip": "ym2612"
    },
    {
      "channel": 3,
      "note": 80,
      "start": 24.3298,
      "duration": 0.0162,
      "velocity": 97,
      "chip": "ym2612"
    },
    {
      "channel": 2,
      "note": 61,
      "start": 24.3308,
      "duration": 0.0163,
      "velocity": 100,
      "chip": "ym2612"
    },
    {
      "channel": 1,
      "note": 66,
      "start": 24.3436,
      "duration": 0.0144,
      "velocity": 124,
      "chip": "ym2612"
    },
    {
      "channel": 4,
      "note": 77,
      "start": 24.3448,
      "duration": 0.0144,
      "velocity": 97,
      "chip": "ym2612"
    },
    {
      "channel": 3,
      "note": 80,
      "start": 24.346,
      "duration": 0.0144,
      "velocity": 97,
      "chip": "ym2612"
    },
    {
      "channel": 2,
      "note": 61,
      "start": 24.3471,
      "duration": 0.0144,
      "velocity": 100,
      "chip": "ym2612"
    },
    {
      "channel": 1,
      "note": 65,
      "start": 24.358,
      "duration": 0.0185,
      "velocity": 124,
      "chip": "ym2612"
    },
    {
      "channel": 4,
      "note": 77,
      "start": 24.3593,
      "duration": 0.0185,
      "velocity": 97,
      "chip": "ym2612"
    },
    {
      "channel": 3,
      "note": 80,
      "start": 24.3604,
      "duration": 0.0185,
      "velocity": 97,
      "chip": "ym2612"
    },
    {
      "channel": 1,
      "note": 64,
      "start": 24.3765,
      "duration": 0.0179,
      "velocity": 124,
      "chip": "ym2612"
    },
    {
      "channel": 4,
      "note": 77,
      "start": 24.3778,
      "duration": 0.018,
      "velocity": 97,
      "chip": "ym2612"
    },
    {
      "channel": 3,
      "note": 80,
      "start": 24.3789,
      "duration": 0.0179,
      "velocity": 97,
      "chip": "ym2612"
    },
    {
      "channel": 1,
      "note": 78,
      "start": 24.3944,
      "duration": 0.014,
      "velocity": 124,
      "chip": "ym2612"
    },
    {
      "channel": 4,
      "note": 77,
      "start": 24.3957,
      "duration": 0.014,
      "velocity": 97,
      "chip": "ym2612"
    },
    {
      "channel": 3,
      "note": 80,
      "start": 24.3969,
      "duration": 0.014,
      "velocity": 97,
      "chip": "ym2612"
    },
    {
      "channel": 2,
      "note": 59,
      "start": 24.3983,
      "duration": 0.0138,
      "velocity": 100,
      "chip": "ym2612"
    },
    {
      "channel": 1,
      "note": 76,
      "start": 24.4084,
      "duration": 0.0137,
      "velocity": 124,
      "chip": "ym2612"
    },
    {
      "channel": 4,
      "note": 77,
      "start": 24.4097,
      "duration": 0.014,
      "velocity": 97,
      "chip": "ym2612"
    },
    {
      "channel": 3,
      "note": 80,
      "start": 24.4109,
      "duration": 0.014,
      "velocity": 97,
      "chip": "ym2612"
    },
    {
      "channel": 2,
      "note": 59,
      "start": 24.4121,
      "duration": 0.0139,
      "velocity": 100,
      "chip": "ym2612"
    },
    {
      "channel": 1,
      "note": 75,
      "start": 24.4221,
      "duration": 0.0161,
      "velocity": 124,
      "chip": "ym2612"
    },
    {
      "channel": 4,
      "note": 77,
      "start": 24.4237,
      "duration": 0.0185,
      "velocity": 97,
      "chip": "ym2612"
    },
    {
      "channel": 3,
      "note": 80,
      "start": 24.4249,
      "duration": 0.0185,
      "velocity": 97,
      "chip": "ym2612"
    },
    {
      "channel": 2,
      "note": 59,
      "start": 24.426,
      "duration": 0.0185,
      "velocity": 100,
      "chip": "ym2612"
    },
    {
      "channel": 1,
      "note": 74,
      "start": 24.4382,
      "duration": 0.0161,
      "velocity": 124,
      "chip": "ym2612"
    },
    {
      "channel": 4,
      "note": 77,
      "start": 24.4422,
      "duration": 0.0134,
      "velocity": 97,
      "chip": "ym2612"
    },
    {
      "channel": 3,
      "note": 80,
      "start": 24.4434,
      "duration": 0.0161,
      "velocity": 97,
      "chip": "ym2612"
    },
    {
      "channel": 2,
      "note": 59,
      "start": 24.4445,
      "duration": 0.0162,
      "velocity": 100,
      "chip": "ym2612"
    },
    {
      "channel": 1,
      "note": 72,
      "start": 24.4543,
      "duration": 0.0161,
      "velocity": 124,
      "chip": "ym2612"
    },
    {
      "channel": 4,
      "note": 77,
      "start": 24.4556,
      "duration": 0.0161,
      "velocity": 97,
      "chip": "ym2612"
    },
    {
      "channel": 3,
      "note": 80,
      "start": 24.4595,
      "duration": 0.0157,
      "velocity": 97,
      "chip": "ym2612"
    },
    {
      "channel": 2,
      "note": 59,
      "start": 24.4607,
      "duration": 0.0157,
      "velocity": 100,
      "chip": "ym2612"
    },
    {
      "channel": 1,
      "note": 71,
      "start": 24.4704,
      "duration": 0.0178,
      "velocity": 124,
      "chip": "ym2612"
    },
    {
      "channel": 4,
      "note": 77,
      "start": 24.4717,
      "duration": 0.0182,
      "velocity": 97,
      "chip": "ym2612"
    },
    {
      "channel": 3,
      "note": 80,
      "start": 24.4752,
      "duration": 0.0159,
      "velocity": 97,
      "chip": "ym2612"
    },
    {
      "channel": 2,
      "note": 59,
      "start": 24.4764,
      "duration": 0.0158,
      "velocity": 100,
      "chip": "ym2612"
    },
    {
      "channel": 1,
      "note": 78,
      "start": 24.4883,
      "duration": 0.0144,
      "velocity": 124,
      "chip": "ym2612"
    },
    {
      "channel": 4,
      "note": 77,
      "start": 24.4899,
      "duration": 0.0141,
      "velocity": 97,
      "chip": "ym2612"
    },
    {
      "channel": 3,
      "note": 80,
      "start": 24.4911,
      "duration": 0.014,
      "velocity": 97,
      "chip": "ym2612"
    },
    {
      "channel": 2,
      "note": 59,
      "start": 24.4922,
      "duration": 0.0168,
      "velocity": 100,
      "chip": "ym2612"
    },
    {
      "channel": 1,
      "note": 76,
      "start": 24.5027,
      "duration": 0.016,
      "velocity": 124,
      "chip": "ym2612"
    },
    {
      "channel": 4,
      "note": 77,
      "start": 24.5039,
      "duration": 0.016,
      "velocity": 97,
      "chip": "ym2612"
    },
    {
      "channel": 3,
      "note": 80,
      "start": 24.5051,
      "duration": 0.016,
      "velocity": 97,
      "chip": "ym2612"
    },
    {
      "channel": 2,
      "note": 59,
      "start": 24.509,
      "duration": 0.0133,
      "velocity": 100,
      "chip": "ym2612"
    },
    {
      "channel": 1,
      "note": 75,
      "start": 24.5187,
      "duration": 0.0161,
      "velocity": 124,
      "chip": "ym2612"
    },
    {
      "channel": 4,
      "note": 77,
      "start": 24.52,
      "duration": 0.0161,
      "velocity": 97,
      "chip": "ym2612"
    },
    {
      "channel": 3,
      "note": 80,
      "start": 24.5211,
      "duration": 0.0161,
      "velocity": 97,
      "chip": "ym2612"
    },
    {
      "channel": 2,
      "note": 59,
      "start": 24.5222,
      "duration": 0.0161,
      "velocity": 100,
      "chip": "ym2612"
    },
    {
      "channel": 1,
      "note": 74,
      "start": 24.5348,
      "duration": 0.0161,
      "velocity": 124,
      "chip": "ym2612"
    },
    {
      "channel": 4,
      "note": 77,
      "start": 24.5361,
      "duration": 0.0161,
      "velocity": 97,
      "chip": "ym2612"
    },
    {
      "channel": 3,
      "note": 80,
      "start": 24.5372,
      "duration": 0.0161,
      "velocity": 97,
      "chip": "ym2612"
    },
    {
      "channel": 2,
      "note": 59,
      "start": 24.5383,
      "duration": 0.0161,
      "velocity": 100,
      "chip": "ym2612"
    },
    {
      "channel": 1,
      "note": 72,
      "start": 24.5509,
      "duration": 0.0161,
      "velocity": 124,
      "chip": "ym2612"
    },
    {
      "channel": 4,
      "note": 77,
      "start": 24.5522,
      "duration": 0.0161,
      "velocity": 97,
      "chip": "ym2612"
    },
    {
      "channel": 3,
      "note": 80,
      "start": 24.5533,
      "duration": 0.0162,
      "velocity": 97,
      "chip": "ym2612"
    },
    {
      "channel": 1,
      "note": 71,
      "start": 24.567,
      "duration": 0.0179,
      "velocity": 124,
      "chip": "ym2612"
    },
    {
      "channel": 4,
      "note": 77,
      "start": 24.5683,
      "duration": 0.0179,
      "velocity": 97,
      "chip": "ym2612"
    },
    {
      "channel": 3,
      "note": 80,
      "start": 24.5695,
      "duration": 0.0179,
      "velocity": 97,
      "chip": "ym2612"
    },
    {
      "channel": 1,
      "note": 78,
      "start": 24.5849,
      "duration": 0.0144,
      "velocity": 124,
      "chip": "ym2612"
    },
    {
      "channel": 4,
      "note": 77,
      "start": 24.5862,
      "duration": 0.0144,
      "velocity": 97,
      "chip": "ym2612"
    },
    {
      "channel": 3,
      "note": 80,
      "start": 24.5874,
      "duration": 0.0143,
      "velocity": 97,
      "chip": "ym2612"
    },
    {
      "channel": 2,
      "note": 56,
      "start": 24.5888,
      "duration": 0.0141,
      "velocity": 100,
      "chip": "ym2612"
    },
    {
      "channel": 1,
      "note": 76,
      "start": 24.5993,
      "duration": 0.016,
      "velocity": 124,
      "chip": "ym2612"
    },
    {
      "channel": 4,
      "note": 77,
      "start": 24.6006,
      "duration": 0.016,
      "velocity": 97,
      "chip": "ym2612"
    },
    {
      "channel": 3,
      "note": 80,
      "start": 24.6017,
      "duration": 0.016,
      "velocity": 97,
      "chip": "ym2612"
    },
    {
      "channel": 2,
      "note": 56,
      "start": 24.6029,
      "duration": 0.016,
      "velocity": 100,
      "chip": "ym2612"
    },
    {
      "channel": 1,
      "note": 75,
      "start": 24.6153,
      "duration": 0.0161,
      "velocity": 124,
      "chip": "ym2612"
    },
    {
      "channel": 4,
      "note": 77,
      "start": 24.6166,
      "duration": 0.0161,
      "velocity": 97,
      "chip": "ym2612"
    },
    {
      "channel": 3,
      "note": 80,
      "start": 24.6177,
      "duration": 0.0161,
      "velocity": 97,
      "chip": "ym2612"
    },
    {
      "channel": 2,
      "note": 56,
      "start": 24.6189,
      "duration": 0.0161,
      "velocity": 100,
      "chip": "ym2612"
    },
    {
      "channel": 1,
      "note": 74,
      "start": 24.6314,
      "duration": 0.0161,
      "velocity": 124,
      "chip": "ym2612"
    },
    {
      "channel": 4,
      "note": 77,
      "start": 24.6327,
      "duration": 0.0161,
      "velocity": 97,
      "chip": "ym2612"
    },
    {
      "channel": 3,
      "note": 80,
      "start": 24.6338,
      "duration": 0.0161,
      "velocity": 97,
      "chip": "ym2612"
    },
    {
      "channel": 2,
      "note": 56,
      "start": 24.635,
      "duration": 0.0161,
      "velocity": 100,
      "chip": "ym2612"
    },
    {
      "channel": 1,
      "note": 72,
      "start": 24.6475,
      "duration": 0.0161,
      "velocity": 124,
      "chip": "ym2612"
    },
    {
      "channel": 4,
      "note": 77,
      "start": 24.6488,
      "duration": 0.0161,
      "velocity": 97,
      "chip": "ym2612"
    },
    {
      "channel": 3,
      "note": 80,
      "start": 24.6499,
      "duration": 0.0161,
      "velocity": 97,
      "chip": "ym2612"
    },
    {
      "channel": 2,
      "note": 56,
      "start": 24.6511,
      "duration": 0.0161,
      "velocity": 100,
      "chip": "ym2612"
    },
    {
      "channel": 1,
      "note": 71,
      "start": 24.6636,
      "duration": 0.0161,
      "velocity": 124,
      "chip": "ym2612"
    },
    {
      "channel": 4,
      "note": 77,
      "start": 24.6649,
      "duration": 0.0161,
      "velocity": 97,
      "chip": "ym2612"
    },
    {
      "channel": 3,
      "note": 80,
      "start": 24.666,
      "duration": 0.0161,
      "velocity": 97,
      "chip": "ym2612"
    },
    {
      "channel": 2,
      "note": 56,
      "start": 24.6672,
      "duration": 0.0161,
      "velocity": 100,
      "chip": "ym2612"
    },
    {
      "channel": 1,
      "note": 70,
      "start": 24.6797,
      "duration": 0.0161,
      "velocity": 124,
      "chip": "ym2612"
    },
    {
      "channel": 4,
      "note": 77,
      "start": 24.681,
      "duration": 0.0161,
      "velocity": 97,
      "chip": "ym2612"
    },
    {
      "channel": 3,
      "note": 80,
      "start": 24.6821,
      "duration": 0.0161,
      "velocity": 97,
      "chip": "ym2612"
    },
    {
      "channel": 2,
      "note": 56,
      "start": 24.6833,
      "duration": 0.0161,
      "velocity": 100,
      "chip": "ym2612"
    },
    {
      "channel": 1,
      "note": 69,
      "start": 24.6958,
      "duration": 0.0161,
      "velocity": 124,
      "chip": "ym2612"
    },
    {
      "channel": 4,
      "note": 77,
      "start": 24.6971,
      "duration": 0.0162,
      "velocity": 97,
      "chip": "ym2612"
    },
    {
      "channel": 3,
      "note": 80,
      "start": 24.6982,
      "duration": 0.0162,
      "velocity": 97,
      "chip": "ym2612"
    },
    {
      "channel": 2,
      "note": 56,
      "start": 24.6993,
      "duration": 0.0162,
      "velocity": 100,
      "chip": "ym2612"
    },
    {
      "channel": 1,
      "note": 68,
      "start": 24.7119,
      "duration": 0.0161,
      "velocity": 124,
      "chip": "ym2612"
    },
    {
      "channel": 4,
      "note": 77,
      "start": 24.7132,
      "duration": 0.0161,
      "velocity": 97,
      "chip": "ym2612"
    },
    {
      "channel": 3,
      "note": 80,
      "start": 24.7144,
      "duration": 0.016,
      "velocity": 97,
      "chip": "ym2612"
    },
    {
      "channel": 2,
      "note": 56,
      "start": 24.7155,
      "duration": 0.0161,
      "velocity": 100,
      "chip": "ym2612"
    },
    {
      "channel": 1,
      "note": 66,
      "start": 24.728,
      "duration": 0.0161,
      "velocity": 124,
      "chip": "ym2612"
    },
    {
      "channel": 4,
      "note": 77,
      "start": 24.7293,
      "duration": 0.0161,
      "velocity": 97,
      "chip": "ym2612"
    },
    {
      "channel": 3,
      "note": 80,
      "start": 24.7305,
      "duration": 0.0161,
      "velocity": 97,
      "chip": "ym2612"
    },
    {
      "channel": 2,
      "note": 56,
      "start": 24.7316,
      "duration": 0.0161,
      "velocity": 100,
      "chip": "ym2612"
    },
    {
      "channel": 1,
      "note": 65,
      "start": 24.7441,
      "duration": 0.0161,
      "velocity": 124,
      "chip": "ym2612"
    },
    {
      "channel": 4,
      "note": 77,
      "start": 24.7454,
      "duration": 0.0161,
      "velocity": 97,
      "chip": "ym2612"
    },
    {
      "channel": 3,
      "note": 80,
      "start": 24.7466,
      "duration": 0.0161,
      "velocity": 97,
      "chip": "ym2612"
    },
    {
      "channel": 1,
      "note": 64,
      "start": 24.7602,
      "duration": 0.017,
      "velocity": 124,
      "chip": "ym2612"
    },
    {
      "channel": 4,
      "note": 77,
      "start": 24.7615,
      "duration": 0.0207,
      "velocity": 97,
      "chip": "ym2612"
    },
    {
      "channel": 3,
      "note": 80,
      "start": 24.7627,
      "duration": 0.021,
      "velocity": 97,
      "chip": "ym2612"
    },
    {
      "channel": 1,
      "note": 62,
      "start": 24.7772,
      "duration": 0.0167,
      "velocity": 124,
      "chip": "ym2612"
    },
    {
      "channel": 0,
      "note": 36,
      "start": 24.7808,
      "duration": 0.015,
      "velocity": 115,
      "chip": "ym2612"
    },
    {
      "channel": 4,
      "note": 81,
      "start": 24.7822,
      "duration": 0.0147,
      "velocity": 97,
      "chip": "ym2612"
    },
    {
      "channel": 3,
      "note": 84,
      "start": 24.7837,
      "duration": 0.0144,
      "velocity": 97,
      "chip": "ym2612"
    },
    {
      "channel": 2,
      "note": 53,
      "start": 24.7852,
      "duration": 0.0141,
      "velocity": 100,
      "chip": "ym2612"
    },
    {
      "channel": 1,
      "note": 61,
      "start": 24.7939,
      "duration": 0.0163,
      "velocity": 124,
      "chip": "ym2612"
    },
    {
      "channel": 0,
      "note": 36,
      "start": 24.7957,
      "duration": 0.0162,
      "velocity": 115,
      "chip": "ym2612"
    },
    {
      "channel": 4,
      "note": 81,
      "start": 24.7969,
      "duration": 0.0161,
      "velocity": 97,
      "chip": "ym2612"
    },
    {
      "channel": 3,
      "note": 84,
      "start": 24.7981,
      "duration": 0.0161,
      "velocity": 97,
      "chip": "ym2612"
    },
    {
      "channel": 2,
      "note": 53,
      "start": 24.7993,
      "duration": 0.0161,
      "velocity": 100,
      "chip": "ym2612"
    },
    {
      "channel": 1,
      "note": 60,
      "start": 24.8102,
      "duration": 0.0146,
      "velocity": 124,
      "chip": "ym2612"
    },
    {
      "channel": 0,
      "note": 37,
      "start": 24.812,
      "duration": 0.0146,
      "velocity": 115,
      "chip": "ym2612"
    },
    {
      "channel": 4,
      "note": 81,
      "start": 24.8131,
      "duration": 0.0146,
      "velocity": 97,
      "chip": "ym2612"
    },
    {
      "channel": 3,
      "note": 84,
      "start": 24.8142,
      "duration": 0.0146,
      "velocity": 97,
      "chip": "ym2612"
    },
    {
      "channel": 2,
      "note": 53,
      "start": 24.8154,
      "duration": 0.0146,
      "velocity": 100,
      "chip": "ym2612"
    },
    {
      "channel": 1,
      "note": 59,
      "start": 24.8249,
      "duration": 0.0186,
      "velocity": 124,
      "chip": "ym2612"
    },
    {
      "channel": 0,
      "note": 37,
      "start": 24.8266,
      "duration": 0.0186,
      "velocity": 115,
      "chip": "ym2612"
    },
    {
      "channel": 4,
      "note": 81,
      "start": 24.8277,
      "duration": 0.0186,
      "velocity": 97,
      "chip": "ym2612"
    },
    {
      "channel": 3,
      "note": 84,
      "start": 24.8289,
      "duration": 0.0186,
      "velocity": 97,
      "chip": "ym2612"
    },
    {
      "channel": 2,
      "note": 53,
      "start": 24.83,
      "duration": 0.0186,
      "velocity": 100,
      "chip": "ym2612"
    },
    {
      "channel": 1,
      "note": 57,
      "start": 24.8434,
      "duration": 0.0161,
      "velocity": 124,
      "chip": "ym2612"
    },
    {
      "channel": 0,
      "note": 38,
      "start": 24.8451,
      "duration": 0.0162,
      "velocity": 115,
      "chip": "ym2612"
    },
    {
      "channel": 4,
      "note": 81,
      "start": 24.8464,
      "duration": 0.0161,
      "velocity": 97,
      "chip": "ym2612"
    },
    {
      "channel": 3,
      "note": 84,
      "start": 24.8475,
      "duration": 0.0161,
      "velocity": 97,
      "chip": "ym2612"
    },
    {
      "channel": 2,
      "note": 53,
      "start": 24.8487,
      "duration": 0.0161,
      "velocity": 100,
      "chip": "ym2612"
    },
    {
      "channel": 1,
      "note": 56,
      "start": 24.8595,
      "duration": 0.0158,
      "velocity": 124,
      "chip": "ym2612"
    },
    {
      "channel": 0,
      "note": 38,
      "start": 24.8613,
      "duration": 0.0157,
      "velocity": 115,
      "chip": "ym2612"
    },
    {
      "channel": 4,
      "note": 81,
      "start": 24.8624,
      "duration": 0.0157,
      "velocity": 97,
      "chip": "ym2612"
    },
    {
      "channel": 3,
      "note": 84,
      "start": 24.8636,
      "duration": 0.0157,
      "velocity": 97,
      "chip": "ym2612"
    },
    {
      "channel": 2,
      "note": 53,
      "start": 24.8647,
      "duration": 0.0157,
      "velocity": 100,
      "chip": "ym2612"
    },
    {
      "channel": 1,
      "note": 55,
      "start": 24.8753,
      "duration": 0.0137,
      "velocity": 124,
      "chip": "ym2612"
    },
    {
      "channel": 0,
      "note": 39,
      "start": 24.877,
      "duration": 0.0141,
      "velocity": 115,
      "chip": "ym2612"
    },
    {
      "channel": 4,
      "note": 81,
      "start": 24.8782,
      "duration": 0.0141,
      "velocity": 97,
      "chip": "ym2612"
    },
    {
      "channel": 3,
      "note": 84,
      "start": 24.8793,
      "duration": 0.0141,
      "velocity": 97,
      "chip": "ym2612"
    },
    {
      "channel": 2,
      "note": 53,
      "start": 24.8805,
      "duration": 0.0141,
      "velocity": 100,
      "chip": "ym2612"
    },
    {
      "channel": 1,
      "note": 53,
      "start": 24.889,
      "duration": 0.0162,
      "velocity": 124,
      "chip": "ym2612"
    },
    {
      "channel": 0,
      "note": 39,
      "start": 24.8911,
      "duration": 0.0185,
      "velocity": 115,
      "chip": "ym2612"
    },
    {
      "channel": 4,
      "note": 81,
      "start": 24.8922,
      "duration": 0.0185,
      "velocity": 97,
      "chip": "ym2612"
    },
    {
      "channel": 3,
      "note": 84,
      "start": 24.8934,
      "duration": 0.0185,
      "velocity": 97,
      "chip": "ym2612"
    },
    {
      "channel": 2,
      "note": 53,
      "start": 24.8945,
      "duration": 0.0185,
      "velocity": 100,
      "chip": "ym2612"
    },
    {
      "channel": 1,
      "note": 52,
      "start": 24.9051,
      "duration": 0.0161,
      "velocity": 124,
      "chip": "ym2612"
    },
    {
      "channel": 0,
      "note": 40,
      "start": 24.9096,
      "duration": 0.0161,
      "velocity": 115,
      "chip": "ym2612"
    },
    {
      "channel": 4,
      "note": 81,
      "start": 24.9107,
      "duration": 0.0161,
      "velocity": 97,
      "chip": "ym2612"
    },
    {
      "channel": 3,
      "note": 84,
      "start": 24.9119,
      "duration": 0.0161,
      "velocity": 97,
      "chip": "ym2612"
    },
    {
      "channel": 2,
      "note": 53,
      "start": 24.913,
      "duration": 0.0161,
      "velocity": 100,
      "chip": "ym2612"
    },
    {
      "channel": 1,
      "note": 51,
      "start": 24.9212,
      "duration": 0.0153,
      "velocity": 1,
      "chip": "ym2612"
    },
    {
      "channel": 0,
      "note": 40,
      "start": 24.9257,
      "duration": 0.0125,
      "velocity": 115,
      "chip": "ym2612"
    },
    {
      "channel": 4,
      "note": 81,
      "start": 24.9268,
      "duration": 0.015,
      "velocity": 97,
      "chip": "ym2612"
    },
    {
      "channel": 3,
      "note": 84,
      "start": 24.928,
      "duration": 0.0149,
      "velocity": 97,
      "chip": "ym2612"
    },
    {
      "channel": 2,
      "note": 53,
      "start": 24.9291,
      "duration": 0.015,
      "velocity": 100,
      "chip": "ym2612"
    },
    {
      "channel": 0,
      "note": 40,
      "start": 24.9382,
      "duration": 0.0153,
      "velocity": 115,
      "chip": "ym2612"
    },
    {
      "channel": 4,
      "note": 81,
      "start": 24.9418,
      "duration": 0.0128,
      "velocity": 97,
      "chip": "ym2612"
    },
    {
      "channel": 3,
      "note": 84,
      "start": 24.9429,
      "duration": 0.0129,
      "velocity": 97,
      "chip": "ym2612"
    },
    {
      "channel": 0,
      "note": 41,
      "start": 24.9535,
      "duration": 0.0161,
      "velocity": 115,
      "chip": "ym2612"
    },
    {
      "channel": 4,
      "note": 81,
      "start": 24.9546,
      "duration": 0.0162,
      "velocity": 97,
      "chip": "ym2612"
    },
    {
      "channel": 3,
      "note": 84,
      "start": 24.9558,
      "duration": 0.0161,
      "velocity": 97,
      "chip": "ym2612"
    },
    {
      "channel": 0,
      "note": 41,
      "start": 24.9696,
      "duration": 0.0161,
      "velocity": 115,
      "chip": "ym2612"
    },
    {
      "channel": 4,
      "note": 81,
      "start": 24.9708,
      "duration": 0.0161,
      "velocity": 97,
      "chip": "ym2612"
    },
    {
      "channel": 3,
      "note": 84,
      "start": 24.9719,
      "duration": 0.0161,
      "velocity": 97,
      "chip": "ym2612"
    },
    {
      "channel": 2,
      "note": 60,
      "start": 24.9761,
      "duration": 0.0132,
      "velocity": 100,
      "chip": "ym2612"
    },
    {
      "channel": 1,
      "note": 48,
      "start": 24.9775,
      "duration": 0.0157,
      "velocity": 100,
      "chip": "ym2612"
    },
    {
      "channel": 0,
      "note": 42,
      "start": 24.9857,
      "duration": 0.0162,
      "velocity": 115,
      "chip": "ym2612"
    },
    {
      "channel": 4,
      "note": 81,
      "start": 24.9869,
      "duration": 0.0161,
      "velocity": 97,
      "chip": "ym2612"
    },
    {
      "channel": 3,
      "note": 84,
      "start": 24.988,
      "duration": 0.0162,
      "velocity": 97,
      "chip": "ym2612"
    },
    {
      "channel": 2,
      "note": 60,
      "start": 24.9892,
      "duration": 0.016,
      "velocity": 100,
      "chip": "ym2612"
    },
    {
      "channel": 1,
      "note": 48,
      "start": 24.9932,
      "duration": 0.0156,
      "velocity": 100,
      "chip": "ym2612"
    },
    {
      "channel": 0,
      "note": 42,
      "start": 25.0018,
      "duration": 0.016,
      "velocity": 115,
      "chip": "ym2612"
    },
    {
      "channel": 4,
      "note": 81,
      "start": 25.003,
      "duration": 0.0161,
      "velocity": 97,
      "chip": "ym2612"
    },
    {
      "channel": 3,
      "note": 84,
      "start": 25.0042,
      "duration": 0.0161,
      "velocity": 97,
      "chip": "ym2612"
    },
    {
      "channel": 2,
      "note": 60,
      "start": 25.0053,
      "duration": 0.0161,
      "velocity": 100,
      "chip": "ym2612"
    },
    {
      "channel": 1,
      "note": 48,
      "start": 25.0088,
      "duration": 0.0137,
      "velocity": 100,
      "chip": "ym2612"
    },
    {
      "channel": 0,
      "note": 43,
      "start": 25.0179,
      "duration": 0.0161,
      "velocity": 115,
      "chip": "ym2612"
    },
    {
      "channel": 4,
      "note": 81,
      "start": 25.0191,
      "duration": 0.0161,
      "velocity": 97,
      "chip": "ym2612"
    },
    {
      "channel": 3,
      "note": 84,
      "start": 25.0203,
      "duration": 0.0161,
      "velocity": 97,
      "chip": "ym2612"
    },
    {
      "channel": 2,
      "note": 60,
      "start": 25.0214,
      "duration": 0.0161,
      "velocity": 100,
      "chip": "ym2612"
    },
    {
      "channel": 1,
      "note": 48,
      "start": 25.0225,
      "duration": 0.0161,
      "velocity": 100,
      "chip": "ym2612"
    },
    {
      "channel": 0,
      "note": 43,
      "start": 25.034,
      "duration": 0.0161,
      "velocity": 115,
      "chip": "ym2612"
    },
    {
      "channel": 4,
      "note": 81,
      "start": 25.0352,
      "duration": 0.0161,
      "velocity": 97,
      "chip": "ym2612"
    },
    {
      "channel": 3,
      "note": 84,
      "start": 25.0364,
      "duration": 0.0161,
      "velocity": 97,
      "chip": "ym2612"
    },
    {
      "channel": 2,
      "note": 60,
      "start": 25.0375,
      "duration": 0.0161,
      "velocity": 100,
      "chip": "ym2612"
    },
    {
      "channel": 1,
      "note": 48,
      "start": 25.0386,
      "duration": 0.0162,
      "velocity": 100,
      "chip": "ym2612"
    },
    {
      "channel": 0,
      "note": 44,
      "start": 25.0501,
      "duration": 0.0161,
      "velocity": 115,
      "chip": "ym2612"
    },
    {
      "channel": 4,
      "note": 81,
      "start": 25.0513,
      "duration": 0.0161,
      "velocity": 97,
      "chip": "ym2612"
    },
    {
      "channel": 3,
      "note": 84,
      "start": 25.0525,
      "duration": 0.0161,
      "velocity": 97,
      "chip": "ym2612"
    },
    {
      "channel": 2,
      "note": 60,
      "start": 25.0536,
      "duration": 0.0161,
      "velocity": 100,
      "chip": "ym2612"
    },
    {
      "channel": 1,
      "note": 48,
      "start": 25.0548,
      "duration": 0.0161,
      "velocity": 100,
      "chip": "ym2612"
    },
    {
      "channel": 0,
      "note": 44,
      "start": 25.0662,
      "duration": 0.0161,
      "velocity": 115,
      "chip": "ym2612"
    },
    {
      "channel": 4,
      "note": 81,
      "start": 25.0674,
      "duration": 0.0161,
      "velocity": 97,
      "chip": "ym2612"
    },
    {
      "channel": 3,
      "note": 84,
      "start": 25.0686,
      "duration": 0.0161,
      "velocity": 97,
      "chip": "ym2612"
    },
    {
      "channel": 2,
      "note": 60,
      "start": 25.0697,
      "duration": 0.0161,
      "velocity": 100,
      "chip": "ym2612"
    },
    {
      "channel": 1,
      "note": 48,
      "start": 25.0709,
      "duration": 0.0161,
      "velocity": 100,
      "chip": "ym2612"
    },
    {
      "channel": 0,
      "note": 44,
      "start": 25.0823,
      "duration": 0.0161,
      "velocity": 115,
      "chip": "ym2612"
    },
    {
      "channel": 4,
      "note": 81,
      "start": 25.0835,
      "duration": 0.0161,
      "velocity": 97,
      "chip": "ym2612"
    },
    {
      "channel": 3,
      "note": 84,
      "start": 25.0846,
      "duration": 0.0161,
      "velocity": 97,
      "chip": "ym2612"
    },
    {
      "channel": 2,
      "note": 60,
      "start": 25.0858,
      "duration": 0.0161,
      "velocity": 100,
      "chip": "ym2612"
    },
    {
      "channel": 1,
      "note": 48,
      "start": 25.0869,
      "duration": 0.0161,
      "velocity": 100,
      "chip": "ym2612"
    },
    {
      "channel": 0,
      "note": 45,
      "start": 25.0984,
      "duration": 0.0161,
      "velocity": 115,
      "chip": "ym2612"
    },
    {
      "channel": 4,
      "note": 81,
      "start": 25.0996,
      "duration": 0.0161,
      "velocity": 97,
      "chip": "ym2612"
    },
    {
      "channel": 3,
      "note": 84,
      "start": 25.1007,
      "duration": 0.0161,
      "velocity": 97,
      "chip": "ym2612"
    },
    {
      "channel": 2,
      "note": 60,
      "start": 25.1019,
      "duration": 0.0161,
      "velocity": 100,
      "chip": "ym2612"
    },
    {
      "channel": 1,
      "note": 48,
      "start": 25.103,
      "duration": 0.0161,
      "velocity": 100,
      "chip": "ym2612"
    },
    {
      "channel": 0,
      "note": 45,
      "start": 25.1145,
      "duration": 0.0161,
      "velocity": 115,
      "chip": "ym2612"
    },
    {
      "channel": 4,
      "note": 81,
      "start": 25.1157,
      "duration": 0.0161,
      "velocity": 97,
      "chip": "ym2612"
    },
    {
      "channel": 3,
      "note": 84,
      "start": 25.1168,
      "duration": 0.0161,
      "velocity": 97,
      "chip": "ym2612"
    },
    {
      "channel": 2,
      "note": 60,
      "start": 25.118,
      "duration": 0.0161,
      "velocity": 100,
      "chip": "ym2612"
    },
    {
      "channel": 1,
      "note": 48,
      "start": 25.1191,
      "duration": 0.0161,
      "velocity": 100,
      "chip": "ym2612"
    },
    {
      "channel": 0,
      "note": 46,
      "start": 25.1306,
      "duration": 0.0161,
      "velocity": 115,
      "chip": "ym2612"
    },
    {
      "channel": 4,
      "note": 81,
      "start": 25.1318,
      "duration": 0.0161,
      "velocity": 97,
      "chip": "ym2612"
    },
    {
      "channel": 3,
      "note": 84,
      "start": 25.1329,
      "duration": 0.0161,
      "velocity": 97,
      "chip": "ym2612"
    },
    {
      "channel": 0,
      "note": 46,
      "start": 25.1467,
      "duration": 0.0196,
      "velocity": 115,
      "chip": "ym2612"
    },
    {
      "channel": 4,
      "note": 81,
      "start": 25.1479,
      "duration": 0.0196,
      "velocity": 97,
      "chip": "ym2612"
    },
    {
      "channel": 3,
      "note": 84,
      "start": 25.149,
      "duration": 0.0196,
      "velocity": 97,
      "chip": "ym2612"
    },
    {
      "channel": 1,
      "note": 78,
      "start": 25.1646,
      "duration": 0.0143,
      "velocity": 124,
      "chip": "ym2612"
    },
    {
      "channel": 0,
      "note": 47,
      "start": 25.1663,
      "duration": 0.0143,
      "velocity": 115,
      "chip": "ym2612"
    },
    {
      "channel": 4,
      "note": 81,
      "start": 25.1675,
      "duration": 0.0143,
      "velocity": 97,
      "chip": "ym2612"
    },
    {
      "channel": 3,
      "note": 84,
      "start": 25.1686,
      "duration": 0.0144,
      "velocity": 97,
      "chip": "ym2612"
    },
    {
      "channel": 2,
      "note": 65,
      "start": 25.17,
      "duration": 0.0141,
      "velocity": 100,
      "chip": "ym2612"
    },
    {
      "channel": 1,
      "note": 76,
      "start": 25.1789,
      "duration": 0.0161,
      "velocity": 124,
      "chip": "ym2612"
    },
    {
      "channel": 0,
      "note": 47,
      "start": 25.1806,
      "duration": 0.0161,
      "velocity": 115,
      "chip": "ym2612"
    },
    {
      "channel": 4,
      "note": 81,
      "start": 25.1818,
      "duration": 0.0161,
      "velocity": 97,
      "chip": "ym2612"
    },
    {
      "channel": 3,
      "note": 84,
      "start": 25.183,
      "duration": 0.016,
      "velocity": 97,
      "chip": "ym2612"
    },
    {
      "channel": 2,
      "note": 65,
      "start": 25.1841,
      "duration": 0.016,
      "velocity": 100,
      "chip": "ym2612"
    },
    {
      "channel": 1,
      "note": 75,
      "start": 25.195,
      "duration": 0.0161,
      "velocity": 124,
      "chip": "ym2612"
    },
    {
      "channel": 0,
      "note": 47,
      "start": 25.1967,
      "duration": 0.0161,
      "velocity": 115,
      "chip": "ym2612"
    },
    {
      "channel": 4,
      "note": 81,
      "start": 25.1979,
      "duration": 0.0161,
      "velocity": 97,
      "chip": "ym2612"
    },
    {
      "channel": 3,
      "note": 84,
      "start": 25.199,
      "duration": 0.0161,
      "velocity": 97,
      "chip": "ym2612"
    },
    {
      "channel": 2,
      "note": 65,
      "start": 25.2002,
      "duration": 0.0161,
      "velocity": 100,
      "chip": "ym2612"
    },
    {
      "channel": 1,
      "note": 74,
      "start": 25.2111,
      "duration": 0.0161,
      "velocity": 124,
      "chip": "ym2612"
    },
    {
      "channel": 0,
      "note": 48,
      "start": 25.2128,
      "duration": 0.0161,
      "velocity": 115,
      "chip": "ym2612"
    },
    {
      "channel": 4,
      "note": 81,
      "start": 25.214,
      "duration": 0.0161,
      "velocity": 97,
      "chip": "ym2612"
    },
    {
      "channel": 3,
      "note": 84,
      "start": 25.2151,
      "duration": 0.0162,
      "velocity": 97,
      "chip": "ym2612"
    },
    {
      "channel": 2,
      "note": 65,
      "start": 25.2163,
      "duration": 0.0161,
      "velocity": 100,
      "chip": "ym2612"
    },
    {
      "channel": 1,
      "note": 72,
      "start": 25.2271,
      "duration": 0.0167,
      "velocity": 124,
      "chip": "ym2612"
    },
    {
      "channel": 0,
      "note": 48,
      "start": 25.2289,
      "duration": 0.0167,
      "velocity": 115,
      "chip": "ym2612"
    },
    {
      "channel": 4,
      "note": 81,
      "start": 25.2301,
      "duration": 0.0167,
      "velocity": 97,
      "chip": "ym2612"
    },
    {
      "channel": 3,
      "note": 84,
      "start": 25.2313,
      "duration": 0.0167,
      "velocity": 97,
      "chip": "ym2612"
    },
    {
      "channel": 2,
      "note": 65,
      "start": 25.2324,
      "duration": 0.0167,
      "velocity": 100,
      "chip": "ym2612"
    },
    {
      "channel": 1,
      "note": 71,
      "start": 25.2439,
      "duration": 0.0167,
      "velocity": 124,
      "chip": "ym2612"
    },
    {
      "channel": 0,
      "note": 49,
      "start": 25.2456,
      "duration": 0.0159,
      "velocity": 1,
      "chip": "ym2612"
    },
    {
      "channel": 4,
      "note": 81,
      "start": 25.2468,
      "duration": 0.0159,
      "velocity": 97,
      "chip": "ym2612"
    },
    {
      "channel": 3,
      "note": 84,
      "start": 25.248,
      "duration": 0.0158,
      "velocity": 97,
      "chip": "ym2612"
    },
    {
      "channel": 2,
      "note": 65,
      "start": 25.2491,
      "duration": 0.0159,
      "velocity": 100,
      "chip": "ym2612"
    },
    {
      "channel": 1,
      "note": 70,
      "start": 25.2605,
      "duration": 0.0163,
      "velocity": 124,
      "chip": "ym2612"
    },
    {
      "channel": 4,
      "note": 81,
      "start": 25.2627,
      "duration": 0.0154,
      "velocity": 97,
      "chip": "ym2612"
    },
    {
      "channel": 3,
      "note": 84,
      "start": 25.2639,
      "duration": 0.0155,
      "velocity": 97,
      "chip": "ym2612"
    },
    {
      "channel": 2,
      "note": 65,
      "start": 25.265,
      "duration": 0.0154,
      "velocity": 100,
      "chip": "ym2612"
    },
    {
      "channel": 1,
      "note": 69,
      "start": 25.2769,
      "duration": 0.0147,
      "velocity": 124,
      "chip": "ym2612"
    },
    {
      "channel": 4,
      "note": 81,
      "start": 25.2782,
      "duration": 0.0147,
      "velocity": 97,
      "chip": "ym2612"
    },
    {
      "channel": 3,
      "note": 84,
      "start": 25.2793,
      "duration": 0.0147,
      "velocity": 97,
      "chip": "ym2612"
    },
    {
      "channel": 2,
      "note": 65,
      "start": 25.2805,
      "duration": 0.0147,
      "velocity": 100,
      "chip": "ym2612"
    },
    {
      "channel": 1,
      "note": 68,
      "start": 25.2916,
      "duration": 0.0188,
      "velocity": 124,
      "chip": "ym2612"
    },
    {
      "channel": 4,
      "note": 81,
      "start": 25.2929,
      "duration": 0.0188,
      "velocity": 97,
      "chip": "ym2612"
    },
    {
      "channel": 3,
      "note": 84,
      "start": 25.294,
      "duration": 0.0188,
      "velocity": 97,
      "chip": "ym2612"
    },
    {
      "channel": 2,
      "note": 65,
      "start": 25.2951,
      "duration": 0.0188,
      "velocity": 100,
      "chip": "ym2612"
    },
    {
      "channel": 1,
      "note": 66,
      "start": 25.3104,
      "duration": 0.0161,
      "velocity": 124,
      "chip": "ym2612"
    },
    {
      "channel": 4,
      "note": 81,
      "start": 25.3117,
      "duration": 0.0161,
      "velocity": 97,
      "chip": "ym2612"
    },
    {
      "channel": 3,
      "note": 84,
      "start": 25.3128,
      "duration": 0.0161,
      "velocity": 97,
      "chip": "ym2612"
    },
    {
      "channel": 2,
      "note": 65,
      "start": 25.314,
      "duration": 0.0161,
      "velocity": 100,
      "chip": "ym2612"
    },
    {
      "channel": 1,
      "note": 65,
      "start": 25.3265,
      "duration": 0.0157,
      "velocity": 124,
      "chip": "ym2612"
    },
    {
      "channel": 4,
      "note": 81,
      "start": 25.3278,
      "duration": 0.0157,
      "velocity": 97,
      "chip": "ym2612"
    },
    {
      "channel": 3,
      "note": 84,
      "start": 25.3289,
      "duration": 0.0158,
      "velocity": 97,
      "chip": "ym2612"
    },
    {
      "channel": 1,
      "note": 64,
      "start": 25.3422,
      "duration": 0.0138,
      "velocity": 124,
      "chip": "ym2612"
    },
    {
      "channel": 4,
      "note": 81,
      "start": 25.3435,
      "duration": 0.0175,
      "velocity": 97,
      "chip": "ym2612"
    },
    {
      "channel": 3,
      "note": 84,
      "start": 25.3447,
      "duration": 0.0175,
      "velocity": 97,
      "chip": "ym2612"
    },
    {
      "channel": 1,
      "note": 62,
      "start": 25.356,
      "duration": 0.016,
      "velocity": 124,
      "chip": "ym2612"
    },
    {
      "channel": 0,
      "note": 36,
      "start": 25.3598,
      "duration": 0.0168,
      "velocity": 115,
      "chip": "ym2612"
    },
    {
      "channel": 4,
      "note": 81,
      "start": 25.361,
      "duration": 0.0168,
      "velocity": 97,
      "chip": "ym2612"
    },
    {
      "channel": 3,
      "note": 84,
      "start": 25.3622,
      "duration": 0.0167,
      "velocity": 97,
      "chip": "ym2612"
    },
    {
      "channel": 2,
      "note": 63,
      "start": 25.3636,
      "duration": 0.0165,
      "velocity": 100,
      "chip": "ym2612"
    },
    {
      "channel": 1,
      "note": 61,
      "start": 25.3721,
      "duration": 0.0161,
      "velocity": 124,
      "chip": "ym2612"
    },
    {
      "channel": 0,
      "note": 36,
      "start": 25.3766,
      "duration": 0.016,
      "velocity": 115,
      "chip": "ym2612"
    },
    {
      "channel": 4,
      "note": 81,
      "start": 25.3778,
      "duration": 0.016,
      "velocity": 97,
      "chip": "ym2612"
    },
    {
      "channel": 3,
      "note": 84,
      "start": 25.3789,
      "duration": 0.016,
      "velocity": 97,
      "chip": "ym2612"
    },
    {
      "channel": 2,
      "note": 63,
      "start": 25.3801,
      "duration": 0.016,
      "velocity": 100,
      "chip": "ym2612"
    },
    {
      "channel": 1,
      "note": 60,
      "start": 25.3882,
      "duration": 0.0161,
      "velocity": 124,
      "chip": "ym2612"
    },
    {
      "channel": 0,
      "note": 37,
      "start": 25.3926,
      "duration": 0.0157,
      "velocity": 115,
      "chip": "ym2612"
    },
    {
      "channel": 4,
      "note": 81,
      "start": 25.3938,
      "duration": 0.0157,
      "velocity": 97,
      "chip": "ym2612"
    },
    {
      "channel": 3,
      "note": 84,
      "start": 25.395,
      "duration": 0.0158,
      "velocity": 97,
      "chip": "ym2612"
    },
    {
      "channel": 2,
      "note": 63,
      "start": 25.3961,
      "duration": 0.0157,
      "velocity": 100,
      "chip": "ym2612"
    },
    {
      "channel": 1,
      "note": 59,
      "start": 25.4042,
      "duration": 0.0161,
      "velocity": 124,
      "chip": "ym2612"
    },
    {
      "channel": 0,
      "note": 37,
      "start": 25.4083,
      "duration": 0.0137,
      "velocity": 115,
      "chip": "ym2612"
    },
    {
      "channel": 4,
      "note": 81,
      "start": 25.4095,
      "duration": 0.0141,
      "velocity": 97,
      "chip": "ym2612"
    },
    {
      "channel": 3,
      "note": 84,
      "start": 25.4107,
      "duration": 0.014,
      "velocity": 97,
      "chip": "ym2612"
    },
    {
      "channel": 2,
      "note": 63,
      "start": 25.4118,
      "duration": 0.0141,
      "velocity": 100,
      "chip": "ym2612"
    },
    {
      "channel": 1,
      "note": 57,
      "start": 25.4203,
      "duration": 0.0161,
      "velocity": 124,
      "chip": "ym2612"
    },
    {
      "channel": 0,
      "note": 38,
      "start": 25.4221,
      "duration": 0.0161,
      "velocity": 115,
      "chip": "ym2612"
    },
    {
      "channel": 4,
      "note": 81,
      "start": 25.4236,
      "duration": 0.0185,
      "velocity": 97,
      "chip": "ym2612"
    },
    {
      "channel": 3,
      "note": 84,
      "start": 25.4247,
      "duration": 0.0186,
      "velocity": 97,
      "chip": "ym2612"
    },
    {
      "channel": 2,
      "note": 63,
      "start": 25.4259,
      "duration": 0.0185,
      "velocity": 100,
      "chip": "ym2612"
    },
    {
      "channel": 1,
      "note": 56,
      "start": 25.4364,
      "duration": 0.0161,
      "velocity": 124,
      "chip": "ym2612"
    },
    {
      "channel": 0,
      "note": 38,
      "start": 25.4382,
      "duration": 0.0161,
      "velocity": 115,
      "chip": "ym2612"
    },
    {
      "channel": 4,
      "note": 81,
      "start": 25.4421,
      "duration": 0.0134,
      "velocity": 97,
      "chip": "ym2612"
    },
    {
      "channel": 3,
      "note": 84,
      "start": 25.4433,
      "duration": 0.0161,
      "velocity": 97,
      "chip": "ym2612"
    },
    {
      "channel": 2,
      "note": 63,
      "start": 25.4444,
      "duration": 0.0161,
      "velocity": 100,
      "chip": "ym2612"
    },
    {
      "channel": 1,
      "note": 55,
      "start": 25.4525,
      "duration": 0.0161,
      "velocity": 124,
      "chip": "ym2612"
    },
    {
      "channel": 0,
      "note": 39,
      "start": 25.4542,
      "duration": 0.0161,
      "velocity": 115,
      "chip": "ym2612"
    },
    {
      "channel": 4,
      "note": 81,
      "start": 25.4555,
      "duration": 0.0161,
      "velocity": 97,
      "chip": "ym2612"
    },
    {
      "channel": 3,
      "note": 84,
      "start": 25.4594,
      "duration": 0.0157,
      "velocity": 97,
      "chip": "ym2612"
    },
    {
      "channel": 2,
      "note": 63,
      "start": 25.4605,
      "duration": 0.0157,
      "velocity": 100,
      "chip": "ym2612"
    },
    {
      "channel": 1,
      "note": 53,
      "start": 25.4686,
      "duration": 0.0161,
      "velocity": 124,
      "chip": "ym2612"
    },
    {
      "channel": 0,
      "note": 39,
      "start": 25.4703,
      "duration": 0.0162,
      "velocity": 115,
      "chip": "ym2612"
    },
    {
      "channel": 4,
      "note": 81,
      "start": 25.4716,
      "duration": 0.0161,
      "velocity": 97,
      "chip": "ym2612"
    },
    {
      "channel": 3,
      "note": 84,
      "start": 25.4751,
      "duration": 0.0137,
      "velocity": 97,
      "chip": "ym2612"
    },
    {
      "channel": 2,
      "note": 63,
      "start": 25.4763,
      "duration": 0.0141,
      "velocity": 100,
      "chip": "ym2612"
    },
    {
      "channel": 1,
      "note": 52,
      "start": 25.4847,
      "duration": 0.0162,
      "velocity": 124,
      "chip": "ym2612"
    },
    {
      "channel": 0,
      "note": 40,
      "start": 25.4865,
      "duration": 0.0161,
      "velocity": 115,
      "chip": "ym2612"
    },
    {
      "channel": 4,
      "note": 81,
      "start": 25.4877,
      "duration": 0.0161,
      "velocity": 97,
      "chip": "ym2612"
    },
    {
      "channel": 3,
      "note": 84,
      "start": 25.4889,
      "duration": 0.0161,
      "velocity": 97,
      "chip": "ym2612"
    },
    {
      "channel": 2,
      "note": 63,
      "start": 25.4903,
      "duration": 0.0185,
      "velocity": 100,
      "chip": "ym2612"
    },
    {
      "channel": 1,
      "note": 51,
      "start": 25.5009,
      "duration": 0.0153,
      "velocity": 1,
      "chip": "ym2612"
    },
    {
      "channel": 0,
      "note": 40,
      "start": 25.5026,
      "duration": 0.0153,
      "velocity": 115,
      "chip": "ym2612"
    },
    {
      "channel": 4,
      "note": 81,
      "start": 25.5038,
      "duration": 0.0153,
      "velocity": 97,
      "chip": "ym2612"
    },
    {
      "channel": 3,
      "note": 84,
      "start": 25.5049,
      "duration": 0.0153,
      "velocity": 97,
      "chip": "ym2612"
    },
    {
      "channel": 2,
      "note": 63,
      "start": 25.5088,
      "duration": 0.0125,
      "velocity": 100,
      "chip": "ym2612"
    },
    {
      "channel": 0,
      "note": 40,
      "start": 25.5179,
      "duration": 0.0153,
      "velocity": 115,
      "chip": "ym2612"
    },
    {
      "channel": 4,
      "note": 81,
      "start": 25.5191,
      "duration": 0.0153,
      "velocity": 97,
      "chip": "ym2612"
    },
    {
      "channel": 3,
      "note": 84,
      "start": 25.5202,
      "duration": 0.0153,
      "velocity": 97,
      "chip": "ym2612"
    },
    {
      "channel": 0,
      "note": 41,
      "start": 25.5331,
      "duration": 0.0161,
      "velocity": 115,
      "chip": "ym2612"
    },
    {
      "channel": 4,
      "note": 81,
      "start": 25.5343,
      "duration": 0.0161,
      "velocity": 97,
      "chip": "ym2612"
    },
    {
      "channel": 3,
      "note": 84,
      "start": 25.5355,
      "duration": 0.0161,
      "velocity": 97,
      "chip": "ym2612"
    },
    {
      "channel": 0,
      "note": 41,
      "start": 25.5492,
      "duration": 0.0161,
      "velocity": 115,
      "chip": "ym2612"
    },
    {
      "channel": 4,
      "note": 81,
      "start": 25.5504,
      "duration": 0.0161,
      "velocity": 97,
      "chip": "ym2612"
    },
    {
      "channel": 3,
      "note": 84,
      "start": 25.5516,
      "duration": 0.0161,
      "velocity": 97,
      "chip": "ym2612"
    },
    {
      "channel": 0,
      "note": 42,
      "start": 25.5653,
      "duration": 0.0161,
      "velocity": 115,
      "chip": "ym2612"
    },
    {
      "channel": 4,
      "note": 81,
      "start": 25.5665,
      "duration": 0.0161,
      "velocity": 97,
      "chip": "ym2612"
    },
    {
      "channel": 3,
      "note": 84,
      "start": 25.5677,
      "duration": 0.0161,
      "velocity": 97,
      "chip": "ym2612"
    },
    {
      "channel": 0,
      "note": 42,
      "start": 25.5814,
      "duration": 0.0161,
      "velocity": 115,
      "chip": "ym2612"
    },
    {
      "channel": 4,
      "note": 81,
      "start": 25.5826,
      "duration": 0.0161,
      "velocity": 97,
      "chip": "ym2612"
    },
    {
      "channel": 3,
      "note": 84,
      "start": 25.5838,
      "duration": 0.0162,
      "velocity": 97,
      "chip": "ym2612"
    },
    {
      "channel": 0,
      "note": 43,
      "start": 25.5975,
      "duration": 0.0162,
      "velocity": 115,
      "chip": "ym2612"
    },
    {
      "channel": 4,
      "note": 81,
      "start": 25.5987,
      "duration": 0.0162,
      "velocity": 97,
      "chip": "ym2612"
    },
    {
      "channel": 3,
      "note": 84,
      "start": 25.5999,
      "duration": 0.0161,
      "velocity": 97,
      "chip": "ym2612"
    },
    {
      "channel": 0,
      "note": 43,
      "start": 25.6137,
      "duration": 0.0161,
      "velocity": 115,
      "chip": "ym2612"
    },
    {
      "channel": 4,
      "note": 81,
      "start": 25.6149,
      "duration": 0.016,
      "velocity": 97,
      "chip": "ym2612"
    },
    {
      "channel": 3,
      "note": 84,
      "start": 25.616,
      "duration": 0.0161,
      "velocity": 97,
      "chip": "ym2612"
    },
    {
      "channel": 0,
      "note": 44,
      "start": 25.6298,
      "duration": 0.0161,
      "velocity": 115,
      "chip": "ym2612"
    },
    {
      "channel": 4,
      "note": 81,
      "start": 25.6309,
      "duration": 0.0161,
      "velocity": 97,
      "chip": "ym2612"
    },
    {
      "channel": 3,
      "note": 84,
      "start": 25.6321,
      "duration": 0.0161,
      "velocity": 97,
      "chip": "ym2612"
    },
    {
      "channel": 0,
      "note": 44,
      "start": 25.6459,
      "duration": 0.0161,
      "velocity": 115,
      "chip": "ym2612"
    },
    {
      "channel": 4,
      "note": 81,
      "start": 25.6471,
      "duration": 0.0161,
      "velocity": 97,
      "chip": "ym2612"
    },
    {
      "channel": 3,
      "note": 84,
      "start": 25.6482,
      "duration": 0.0161,
      "velocity": 97,
      "chip": "ym2612"
    },
    {
      "channel": 0,
      "note": 44,
      "start": 25.662,
      "duration": 0.0161,
      "velocity": 115,
      "chip": "ym2612"
    },
    {
      "channel": 4,
      "note": 81,
      "start": 25.6632,
      "duration": 0.0161,
      "velocity": 97,
      "chip": "ym2612"
    },
    {
      "channel": 3,
      "note": 84,
      "start": 25.6643,
      "duration": 0.0161,
      "velocity": 97,
      "chip": "ym2612"
    },
    {
      "channel": 0,
      "note": 45,
      "start": 25.678,
      "duration": 0.0161,
      "velocity": 115,
      "chip": "ym2612"
    },
    {
      "channel": 4,
      "note": 81,
      "start": 25.6793,
      "duration": 0.0161,
      "velocity": 97,
      "chip": "ym2612"
    },
    {
      "channel": 3,
      "note": 84,
      "start": 25.6804,
      "duration": 0.0161,
      "velocity": 97,
      "chip": "ym2612"
    },
    {
      "channel": 0,
      "note": 45,
      "start": 25.6941,
      "duration": 0.0166,
      "velocity": 115,
      "chip": "ym2612"
    },
    {
      "channel": 4,
      "note": 81,
      "start": 25.6954,
      "duration": 0.0165,
      "velocity": 97,
      "chip": "ym2612"
    },
    {
      "channel": 3,
      "note": 84,
      "start": 25.6965,
      "duration": 0.0166,
      "velocity": 97,
      "chip": "ym2612"
    },
    {
      "channel": 0,
      "note": 46,
      "start": 25.7107,
      "duration": 0.0167,
      "velocity": 115,
      "chip": "ym2612"
    },
    {
      "channel": 4,
      "note": 81,
      "start": 25.7119,
      "duration": 0.0166,
      "velocity": 97,
      "chip": "ym2612"
    },
    {
      "channel": 3,
      "note": 84,
      "start": 25.713,
      "duration": 0.0167,
      "velocity": 97,
      "chip": "ym2612"
    },
    {
      "channel": 0,
      "note": 46,
      "start": 25.7273,
      "duration": 0.0181,
      "velocity": 115,
      "chip": "ym2612"
    },
    {
      "channel": 4,
      "note": 81,
      "start": 25.7285,
      "duration": 0.0181,
      "velocity": 97,
      "chip": "ym2612"
    },
    {
      "channel": 3,
      "note": 84,
      "start": 25.7297,
      "duration": 0.0181,
      "velocity": 97,
      "chip": "ym2612"
    },
    {
      "channel": 0,
      "note": 36,
      "start": 25.7454,
      "duration": 0.0132,
      "velocity": 115,
      "chip": "ym2612"
    },
    {
      "channel": 4,
      "note": 81,
      "start": 25.7466,
      "duration": 0.0132,
      "velocity": 97,
      "chip": "ym2612"
    },
    {
      "channel": 3,
      "note": 84,
      "start": 25.7478,
      "duration": 0.0132,
      "velocity": 97,
      "chip": "ym2612"
    },
    {
      "channel": 2,
      "note": 65,
      "start": 25.7492,
      "duration": 0.0129,
      "velocity": 100,
      "chip": "ym2612"
    },
    {
      "channel": 1,
      "note": 53,
      "start": 25.7506,
      "duration": 0.0127,
      "velocity": 100,
      "chip": "ym2612"
    },
    {
      "channel": 0,
      "note": 36,
      "start": 25.7586,
      "duration": 0.0188,
      "velocity": 115,
      "chip": "ym2612"
    },
    {
      "channel": 4,
      "note": 81,
      "start": 25.7598,
      "duration": 0.0187,
      "velocity": 97,
      "chip": "ym2612"
    },
    {
      "channel": 3,
      "note": 84,
      "start": 25.761,
      "duration": 0.0187,
      "velocity": 97,
      "chip": "ym2612"
    },
    {
      "channel": 2,
      "note": 65,
      "start": 25.7621,
      "duration": 0.0186,
      "velocity": 100,
      "chip": "ym2612"
    },
    {
      "channel": 1,
      "note": 53,
      "start": 25.7634,
      "duration": 0.0186,
      "velocity": 100,
      "chip": "ym2612"
    },
    {
      "channel": 0,
      "note": 37,
      "start": 25.7773,
      "duration": 0.0161,
      "velocity": 115,
      "chip": "ym2612"
    },
    {
      "channel": 4,
      "note": 81,
      "start": 25.7785,
      "duration": 0.0162,
      "velocity": 97,
      "chip": "ym2612"
    },
    {
      "channel": 3,
      "note": 84,
      "start": 25.7797,
      "duration": 0.0161,
      "velocity": 97,
      "chip": "ym2612"
    },
    {
      "channel": 2,
      "note": 65,
      "start": 25.7808,
      "duration": 0.0162,
      "velocity": 100,
      "chip": "ym2612"
    },
    {
      "channel": 1,
      "note": 53,
      "start": 25.7819,
      "duration": 0.0161,
      "velocity": 100,
      "chip": "ym2612"
    },
    {
      "channel": 0,
      "note": 37,
      "start": 25.7935,
      "duration": 0.0157,
      "velocity": 115,
      "chip": "ym2612"
    },
    {
      "channel": 4,
      "note": 81,
      "start": 25.7947,
      "duration": 0.0157,
      "velocity": 97,
      "chip": "ym2612"
    },
    {
      "channel": 3,
      "note": 84,
      "start": 25.7959,
      "duration": 0.0158,
      "velocity": 97,
      "chip": "ym2612"
    },
    {
      "channel": 2,
      "note": 65,
      "start": 25.797,
      "duration": 0.0157,
      "velocity": 100,
      "chip": "ym2612"
    },
    {
      "channel": 1,
      "note": 53,
      "start": 25.7981,
      "duration": 0.0158,
      "velocity": 100,
      "chip": "ym2612"
    },
    {
      "channel": 0,
      "note": 38,
      "start": 25.8092,
      "duration": 0.0141,
      "velocity": 115,
      "chip": "ym2612"
    },
    {
      "channel": 4,
      "note": 81,
      "start": 25.8104,
      "duration": 0.0141,
      "velocity": 97,
      "chip": "ym2612"
    },
    {
      "channel": 3,
      "note": 84,
      "start": 25.8116,
      "duration": 0.014,
      "velocity": 97,
      "chip": "ym2612"
    },
    {
      "channel": 2,
      "note": 65,
      "start": 25.8127,
      "duration": 0.0141,
      "velocity": 100,
      "chip": "ym2612"
    },
    {
      "channel": 1,
      "note": 53,
      "start": 25.8139,
      "duration": 0.0141,
      "velocity": 100,
      "chip": "ym2612"
    },
    {
      "channel": 0,
      "note": 38,
      "start": 25.8233,
      "duration": 0.0158,
      "velocity": 115,
      "chip": "ym2612"
    },
    {
      "channel": 4,
      "note": 81,
      "start": 25.8245,
      "duration": 0.0185,
      "velocity": 97,
      "chip": "ym2612"
    },
    {
      "channel": 3,
      "note": 84,
      "start": 25.8256,
      "duration": 0.0185,
      "velocity": 97,
      "chip": "ym2612"
    },
    {
      "channel": 2,
      "note": 65,
      "start": 25.8268,
      "duration": 0.0185,
      "velocity": 100,
      "chip": "ym2612"
    },
    {
      "channel": 1,
      "note": 53,
      "start": 25.8279,
      "duration": 0.0185,
      "velocity": 100,
      "chip": "ym2612"
    },
    {
      "channel": 0,
      "note": 39,
      "start": 25.839,
      "duration": 0.0161,
      "velocity": 115,
      "chip": "ym2612"
    },
    {
      "channel": 4,
      "note": 81,
      "start": 25.843,
      "duration": 0.0161,
      "velocity": 97,
      "chip": "ym2612"
    },
    {
      "channel": 3,
      "note": 84,
      "start": 25.8441,
      "duration": 0.0161,
      "velocity": 97,
      "chip": "ym2612"
    },
    {
      "channel": 2,
      "note": 65,
      "start": 25.8453,
      "duration": 0.0161,
      "velocity": 100,
      "chip": "ym2612"
    },
    {
      "channel": 1,
      "note": 53,
      "start": 25.8464,
      "duration": 0.0161,
      "velocity": 100,
      "chip": "ym2612"
    },
    {
      "channel": 0,
      "note": 39,
      "start": 25.8551,
      "duration": 0.0161,
      "velocity": 115,
      "chip": "ym2612"
    },
    {
      "channel": 4,
      "note": 81,
      "start": 25.8591,
      "duration": 0.0134,
      "velocity": 97,
      "chip": "ym2612"
    },
    {
      "channel": 3,
      "note": 84,
      "start": 25.8602,
      "duration": 0.0159,
      "velocity": 97,
      "chip": "ym2612"
    },
    {
      "channel": 2,
      "note": 65,
      "start": 25.8614,
      "duration": 0.0158,
      "velocity": 100,
      "chip": "ym2612"
    },
    {
      "channel": 1,
      "note": 53,
      "start": 25.8625,
      "duration": 0.0158,
      "velocity": 100,
      "chip": "ym2612"
    },
    {
      "channel": 0,
      "note": 40,
      "start": 25.8712,
      "duration": 0.0161,
      "velocity": 115,
      "chip": "ym2612"
    },
    {
      "channel": 4,
      "note": 81,
      "start": 25.8724,
      "duration": 0.0161,
      "velocity": 97,
      "chip": "ym2612"
    },
    {
      "channel": 3,
      "note": 84,
      "start": 25.8761,
      "duration": 0.0139,
      "velocity": 97,
      "chip": "ym2612"
    },
    {
      "channel": 2,
      "note": 65,
      "start": 25.8771,
      "duration": 0.014,
      "velocity": 100,
      "chip": "ym2612"
    },
    {
      "channel": 1,
      "note": 53,
      "start": 25.8783,
      "duration": 0.014,
      "velocity": 100,
      "chip": "ym2612"
    },
    {
      "channel": 0,
      "note": 40,
      "start": 25.8873,
      "duration": 0.0162,
      "velocity": 115,
      "chip": "ym2612"
    },
    {
      "channel": 4,
      "note": 81,
      "start": 25.8885,
      "duration": 0.0161,
      "velocity": 97,
      "chip": "ym2612"
    },
    {
      "channel": 3,
      "note": 84,
      "start": 25.89,
      "duration": 0.0159,
      "velocity": 97,
      "chip": "ym2612"
    },
    {
      "channel": 2,
      "note": 65,
      "start": 25.8912,
      "duration": 0.0186,
      "velocity": 100,
      "chip": "ym2612"
    },
    {
      "channel": 1,
      "note": 53,
      "start": 25.8923,
      "duration": 0.0186,
      "velocity": 100,
      "chip": "ym2612"
    },
    {
      "channel": 0,
      "note": 40,
      "start": 25.9035,
      "duration": 0.0161,
      "velocity": 115,
      "chip": "ym2612"
    },
    {
      "channel": 4,
      "note": 81,
      "start": 25.9046,
      "duration": 0.0161,
      "velocity": 97,
      "chip": "ym2612"
    },
    {
      "channel": 3,
      "note": 84,
      "start": 25.9059,
      "duration": 0.0161,
      "velocity": 97,
      "chip": "ym2612"
    },
    {
      "channel": 0,
      "note": 41,
      "start": 25.9196,
      "duration": 0.0195,
      "velocity": 115,
      "chip": "ym2612"
    },
    {
      "channel": 4,
      "note": 81,
      "start": 25.9207,
      "duration": 0.022,
      "velocity": 97,
      "chip": "ym2612"
    },
    {
      "channel": 3,
      "note": 84,
      "start": 25.9219,
      "duration": 0.022,
      "velocity": 97,
      "chip": "ym2612"
    },
    {
      "channel": 1,
      "note": 78,
      "start": 25.9374,
      "duration": 0.0144,
      "velocity": 124,
      "chip": "ym2612"
    },
    {
      "channel": 0,
      "note": 41,
      "start": 25.9391,
      "duration": 0.0144,
      "velocity": 115,
      "chip": "ym2612"
    },
    {
      "channel": 4,
      "note": 81,
      "start": 25.9427,
      "duration": 0.012,
      "velocity": 97,
      "chip": "ym2612"
    },
    {
      "channel": 3,
      "note": 84,
      "start": 25.9439,
      "duration": 0.012,
      "velocity": 97,
      "chip": "ym2612"
    },
    {
      "channel": 2,
      "note": 60,
      "start": 25.9452,
      "duration": 0.0122,
      "velocity": 100,
      "chip": "ym2612"
    },
    {
      "channel": 1,
      "note": 76,
      "start": 25.9518,
      "duration": 0.016,
      "velocity": 124,
      "chip": "ym2612"
    },
    {
      "channel": 0,
      "note": 42,
      "start": 25.9535,
      "duration": 0.016,
      "velocity": 115,
      "chip": "ym2612"
    },
    {
      "channel": 4,
      "note": 81,
      "start": 25.9547,
      "duration": 0.016,
      "velocity": 97,
      "chip": "ym2612"
    },
    {
      "channel": 3,
      "note": 84,
      "start": 25.9559,
      "duration": 0.016,
      "velocity": 97,
      "chip": "ym2612"
    },
    {
      "channel": 2,
      "note": 60,
      "start": 25.9574,
      "duration": 0.0184,
      "velocity": 100,
      "chip": "ym2612"
    },
    {
      "channel": 1,
      "note": 75,
      "start": 25.9678,
      "duration": 0.0161,
      "velocity": 124,
      "chip": "ym2612"
    },
    {
      "channel": 0,
      "note": 42,
      "start": 25.9695,
      "duration": 0.0161,
      "velocity": 115,
      "chip": "ym2612"
    },
    {
      "channel": 4,
      "note": 81,
      "start": 25.9707,
      "duration": 0.0161,
      "velocity": 97,
      "chip": "ym2612"
    },
    {
      "channel": 3,
      "note": 84,
      "start": 25.9719,
      "duration": 0.0161,
      "velocity": 97,
      "chip": "ym2612"
    },
    {
      "channel": 2,
      "note": 60,
      "start": 25.9758,
      "duration": 0.0134,
      "velocity": 100,
      "chip": "ym2612"
    },
    {
      "channel": 1,
      "note": 74,
      "start": 25.9839,
      "duration": 0.0161,
      "velocity": 124,
      "chip": "ym2612"
    },
    {
      "channel": 0,
      "note": 43,
      "start": 25.9856,
      "duration": 0.0161,
      "velocity": 115,
      "chip": "ym2612"
    },
    {
      "channel": 4,
      "note": 81,
      "start": 25.9868,
      "duration": 0.0161,
      "velocity": 97,
      "chip": "ym2612"
    },
    {
      "channel": 3,
      "note": 84,
      "start": 25.988,
      "duration": 0.0162,
      "velocity": 97,
      "chip": "ym2612"
    },
    {
      "channel": 2,
      "note": 60,
      "start": 25.9891,
      "duration": 0.0161,
      "velocity": 100,
      "chip": "ym2612"
    },
    {
      "channel": 1,
      "note": 72,
      "start": 26.0,
      "duration": 0.0161,
      "velocity": 124,
      "chip": "ym2612"
    },
    {
      "channel": 0,
      "note": 43,
      "start": 26.0017,
      "duration": 0.0161,
      "velocity": 115,
      "chip": "ym2612"
    },
    {
      "channel": 4,
      "note": 81,
      "start": 26.0029,
      "duration": 0.0161,
      "velocity": 97,
      "chip": "ym2612"
    },
    {
      "channel": 3,
      "note": 84,
      "start": 26.0041,
      "duration": 0.016,
      "velocity": 97,
      "chip": "ym2612"
    },
    {
      "channel": 2,
      "note": 60,
      "start": 26.0053,
      "duration": 0.016,
      "velocity": 100,
      "chip": "ym2612"
    },
    {
      "channel": 1,
      "note": 71,
      "start": 26.0161,
      "duration": 0.0161,
      "velocity": 124,
      "chip": "ym2612"
    },
    {
      "channel": 0,
      "note": 44,
      "start": 26.0178,
      "duration": 0.0161,
      "velocity": 115,
      "chip": "ym2612"
    },
    {
      "channel": 4,
      "note": 81,
      "start": 26.019,
      "duration": 0.0161,
      "velocity": 97,
      "chip": "ym2612"
    },
    {
      "channel": 3,
      "note": 84,
      "start": 26.0202,
      "duration": 0.0161,
      "velocity": 97,
      "chip": "ym2612"
    },
    {
      "channel": 2,
      "note": 60,
      "start": 26.0213,
      "duration": 0.0161,
      "velocity": 100,
      "chip": "ym2612"
    },
    {
      "channel": 1,
      "note": 70,
      "start": 26.0322,
      "duration": 0.0161,
      "velocity": 124,
      "chip": "ym2612"
    },
    {
      "channel": 0,
      "note": 44,
      "start": 26.0339,
      "duration": 0.0161,
      "velocity": 115,
      "chip": "ym2612"
    },
    {
      "channel": 4,
      "note": 81,
      "start": 26.0351,
      "duration": 0.0161,
      "velocity": 97,
      "chip": "ym2612"
    },
    {
      "channel": 3,
      "note": 84,
      "start": 26.0363,
      "duration": 0.0161,
      "velocity": 97,
      "chip": "ym2612"
    },
    {
      "channel": 2,
      "note": 60,
      "start": 26.0374,
      "duration": 0.0161,
      "velocity": 100,
      "chip": "ym2612"
    },
    {
      "channel": 1,
      "note": 69,
      "start": 26.0483,
      "duration": 0.0161,
      "velocity": 124,
      "chip": "ym2612"
    },
    {
      "channel": 0,
      "note": 44,
      "start": 26.05,
      "duration": 0.0161,
      "velocity": 115,
      "chip": "ym2612"
    },
    {
      "channel": 4,
      "note": 81,
      "start": 26.0512,
      "duration": 0.0161,
      "velocity": 97,
      "chip": "ym2612"
    },
    {
      "channel": 3,
      "note": 84,
      "start": 26.0524,
      "duration": 0.0161,
      "velocity": 97,
      "chip": "ym2612"
    },
    {
      "channel": 2,
      "note": 60,
      "start": 26.0535,
      "duration": 0.0161,
      "velocity": 100,
      "chip": "ym2612"
    },
    {
      "channel": 1,
      "note": 68,
      "start": 26.0644,
      "duration": 0.0161,
      "velocity": 124,
      "chip": "ym2612"
    },
    {
      "channel": 0,
      "note": 45,
      "start": 26.0661,
      "duration": 0.0161,
      "velocity": 115,
      "chip": "ym2612"
    },
    {
      "channel": 4,
      "note": 81,
      "start": 26.0673,
      "duration": 0.0161,
      "velocity": 97,
      "chip": "ym2612"
    },
    {
      "channel": 3,
      "note": 84,
      "start": 26.0685,
      "duration": 0.0161,
      "velocity": 97,
      "chip": "ym2612"
    },
    {
      "channel": 2,
      "note": 60,
      "start": 26.0696,
      "duration": 0.0161,
      "velocity": 100,
      "chip": "ym2612"
    },
    {
      "channel": 1,
      "note": 66,
      "start": 26.0805,
      "duration": 0.0161,
      "velocity": 124,
      "chip": "ym2612"
    },
    {
      "channel": 0,
      "note": 45,
      "start": 26.0822,
      "duration": 0.0161,
      "velocity": 115,
      "chip": "ym2612"
    },
    {
      "channel": 4,
      "note": 81,
      "start": 26.0834,
      "duration": 0.0161,
      "velocity": 97,
      "chip": "ym2612"
    },
    {
      "channel": 3,
      "note": 84,
      "start": 26.0846,
      "duration": 0.0161,
      "velocity": 97,
      "chip": "ym2612"
    },
    {
      "channel": 2,
      "note": 60,
      "start": 26.0857,
      "duration": 0.0161,
      "velocity": 100,
      "chip": "ym2612"
    },
    {
      "channel": 1,
      "note": 65,
      "start": 26.0966,
      "duration": 0.0161,
      "velocity": 124,
      "chip": "ym2612"
    },
    {
      "channel": 0,
      "note": 46,
      "start": 26.0983,
      "duration": 0.0161,
      "velocity": 115,
      "chip": "ym2612"
    },
    {
      "channel": 4,
      "note": 81,
      "start": 26.0995,
      "duration": 0.0161,
      "velocity": 97,
      "chip": "ym2612"
    },
    {
      "channel": 3,
      "note": 84,
      "start": 26.1007,
      "duration": 0.0161,
      "velocity": 97,
      "chip": "ym2612"
    },
    {
      "channel": 1,
      "note": 64,
      "start": 26.1127,
      "duration": 0.0161,
      "velocity": 124,
      "chip": "ym2612"
    },
    {
      "channel": 0,
      "note": 46,
      "start": 26.1144,
      "duration": 0.0179,
      "velocity": 115,
      "chip": "ym2612"
    },
    {
      "channel": 4,
      "note": 81,
      "start": 26.1156,
      "duration": 0.0179,
      "velocity": 97,
      "chip": "ym2612"
    },
    {
      "channel": 3,
      "note": 84,
      "start": 26.1168,
      "duration": 0.0179,
      "velocity": 97,
      "chip": "ym2612"
    },
    {
      "channel": 1,
      "note": 62,
      "start": 26.1288,
      "duration": 0.0161,
      "velocity": 124,
      "chip": "ym2612"
    },
    {
      "channel": 0,
      "note": 36,
      "start": 26.1323,
      "duration": 0.0144,
      "velocity": 115,
      "chip": "ym2612"
    },
    {
      "channel": 4,
      "note": 81,
      "start": 26.1335,
      "duration": 0.0144,
      "velocity": 97,
      "chip": "ym2612"
    },
    {
      "channel": 3,
      "note": 84,
      "start": 26.1347,
      "duration": 0.0143,
      "velocity": 97,
      "chip": "ym2612"
    },
    {
      "channel": 2,
      "note": 56,
      "start": 26.1361,
      "duration": 0.0141,
      "velocity": 100,
      "chip": "ym2612"
    },
    {
      "channel": 1,
      "note": 61,
      "start": 26.1449,
      "duration": 0.0161,
      "velocity": 124,
      "chip": "ym2612"
    },
    {
      "channel": 0,
      "note": 36,
      "start": 26.1467,
      "duration": 0.016,
      "velocity": 115,
      "chip": "ym2612"
    },
    {
      "channel": 4,
      "note": 81,
      "start": 26.1479,
      "duration": 0.016,
      "velocity": 97,
      "chip": "ym2612"
    },
    {
      "channel": 3,
      "note": 84,
      "start": 26.149,
      "duration": 0.016,
      "velocity": 97,
      "chip": "ym2612"
    },
    {
      "channel": 2,
      "note": 56,
      "start": 26.1502,
      "duration": 0.016,
      "velocity": 100,
      "chip": "ym2612"
    },
    {
      "channel": 1,
      "note": 60,
      "start": 26.161,
      "duration": 0.0162,
      "velocity": 124,
      "chip": "ym2612"
    },
    {
      "channel": 0,
      "note": 37,
      "start": 26.1627,
      "duration": 0.0163,
      "velocity": 115,
      "chip": "ym2612"
    },
    {
      "channel": 4,
      "note": 81,
      "start": 26.1639,
      "duration": 0.0162,
      "velocity": 97,
      "chip": "ym2612"
    },
    {
      "channel": 3,
      "note": 84,
      "start": 26.1651,
      "duration": 0.0163,
      "velocity": 97,
      "chip": "ym2612"
    },
    {
      "channel": 2,
      "note": 56,
      "start": 26.1662,
      "duration": 0.0162,
      "velocity": 100,
      "chip": "ym2612"
    },
    {
      "channel": 1,
      "note": 59,
      "start": 26.1772,
      "duration": 0.0167,
      "velocity": 124,
      "chip": "ym2612"
    },
    {
      "channel": 0,
      "note": 37,
      "start": 26.179,
      "duration": 0.0166,
      "velocity": 115,
      "chip": "ym2612"
    },
    {
      "channel": 4,
      "note": 81,
      "start": 26.1801,
      "duration": 0.0167,
      "velocity": 97,
      "chip": "ym2612"
    },
    {
      "channel": 3,
      "note": 84,
      "start": 26.1814,
      "duration": 0.0166,
      "velocity": 97,
      "chip": "ym2612"
    },
    {
      "channel": 2,
      "note": 56,
      "start": 26.1824,
      "duration": 0.0167,
      "velocity": 100,
      "chip": "ym2612"
    },
    {
      "channel": 1,
      "note": 57,
      "start": 26.1939,
      "duration": 0.0163,
      "velocity": 124,
      "chip": "ym2612"
    },
    {
      "channel": 0,
      "note": 38,
      "start": 26.1956,
      "duration": 0.0163,
      "velocity": 115,
      "chip": "ym2612"
    },
    {
      "channel": 4,
      "note": 81,
      "start": 26.1968,
      "duration": 0.0163,
      "velocity": 97,
      "chip": "ym2612"
    },
    {
      "channel": 3,
      "note": 84,
      "start": 26.198,
      "duration": 0.0163,
      "velocity": 97,
      "chip": "ym2612"
    },
    {
      "channel": 2,
      "note": 56,
      "start": 26.1991,
      "duration": 0.0163,
      "velocity": 100,
      "chip": "ym2612"
    },
    {
      "channel": 1,
      "note": 56,
      "start": 26.2102,
      "duration": 0.0152,
      "velocity": 124,
      "chip": "ym2612"
    },
    {
      "channel": 0,
      "note": 38,
      "start": 26.212,
      "duration": 0.0152,
      "velocity": 115,
      "chip": "ym2612"
    },
    {
      "channel": 4,
      "note": 81,
      "start": 26.2132,
      "duration": 0.0152,
      "velocity": 97,
      "chip": "ym2612"
    },
    {
      "channel": 3,
      "note": 84,
      "start": 26.2143,
      "duration": 0.0152,
      "velocity": 97,
      "chip": "ym2612"
    },
    {
      "channel": 2,
      "note": 56,
      "start": 26.2154,
      "duration": 0.0152,
      "velocity": 100,
      "chip": "ym2612"
    },
    {
      "channel": 1,
      "note": 55,
      "start": 26.2254,
      "duration": 0.0184,
      "velocity": 124,
      "chip": "ym2612"
    },
    {
      "channel": 0,
      "note": 39,
      "start": 26.2271,
      "duration": 0.0185,
      "velocity": 115,
      "chip": "ym2612"
    },
    {
      "channel": 4,
      "note": 81,
      "start": 26.2284,
      "duration": 0.0184,
      "velocity": 97,
      "chip": "ym2612"
    },
    {
      "channel": 3,
      "note": 84,
      "start": 26.2295,
      "duration": 0.0185,
      "velocity": 97,
      "chip": "ym2612"
    },
    {
      "channel": 2,
      "note": 56,
      "start": 26.2307,
      "duration": 0.0184,
      "velocity": 100,
      "chip": "ym2612"
    },
    {
      "channel": 1,
      "note": 53,
      "start": 26.2439,
      "duration": 0.0165,
      "velocity": 124,
      "chip": "ym2612"
    },
    {
      "channel": 0,
      "note": 39,
      "start": 26.2457,
      "duration": 0.0164,
      "velocity": 115,
      "chip": "ym2612"
    },
    {
      "channel": 4,
      "note": 81,
      "start": 26.2468,
      "duration": 0.0165,
      "velocity": 97,
      "chip": "ym2612"
    },
    {
      "channel": 3,
      "note": 84,
      "start": 26.248,
      "duration": 0.0165,
      "velocity": 97,
      "chip": "ym2612"
    },
    {
      "channel": 2,
      "note": 56,
      "start": 26.2491,
      "duration": 0.0166,
      "velocity": 100,
      "chip": "ym2612"
    },
    {
      "channel": 1,
      "note": 52,
      "start": 26.2604,
      "duration": 0.0157,
      "velocity": 124,
      "chip": "ym2612"
    },
    {
      "channel": 0,
      "note": 40,
      "start": 26.2621,
      "duration": 0.0157,
      "velocity": 115,
      "chip": "ym2612"
    },
    {
      "channel": 4,
      "note": 81,
      "start": 26.2633,
      "duration": 0.0157,
      "velocity": 97,
      "chip": "ym2612"
    },
    {
      "channel": 3,
      "note": 84,
      "start": 26.2645,
      "duration": 0.0157,
      "velocity": 97,
      "chip": "ym2612"
    },
    {
      "channel": 2,
      "note": 56,
      "start": 26.2656,
      "duration": 0.0156,
      "velocity": 100,
      "chip": "ym2612"
    },
    {
      "channel": 1,
      "note": 51,
      "start": 26.2761,
      "duration": 0.013,
      "velocity": 1,
      "chip": "ym2612"
    },
    {
      "channel": 0,
      "note": 40,
      "start": 26.2778,
      "duration": 0.0133,
      "velocity": 115,
      "chip": "ym2612"
    },
    {
      "channel": 4,
      "note": 81,
      "start": 26.279,
      "duration": 0.0132,
      "velocity": 97,
      "chip": "ym2612"
    },
    {
      "channel": 3,
      "note": 84,
      "start": 26.2802,
      "duration": 0.0132,
      "velocity": 97,
      "chip": "ym2612"
    },
    {
      "channel": 2,
      "note": 56,
      "start": 26.2813,
      "duration": 0.0133,
      "velocity": 100,
      "chip": "ym2612"
    },
    {
      "channel": 0,
      "note": 40,
      "start": 26.2911,
      "duration": 0.0176,
      "velocity": 115,
      "chip": "ym2612"
    },
    {
      "channel": 4,
      "note": 81,
      "start": 26.2922,
      "duration": 0.0177,
      "velocity": 97,
      "chip": "ym2612"
    },
    {
      "channel": 3,
      "note": 84,
      "start": 26.2934,
      "duration": 0.0177,
      "velocity": 97,
      "chip": "ym2612"
    },
    {
      "channel": 0,
      "note": 41,
      "start": 26.3087,
      "duration": 0.0179,
      "velocity": 115,
      "chip": "ym2612"
    },
    {
      "channel": 4,
      "note": 81,
      "start": 26.3099,
      "duration": 0.0179,
      "velocity": 97,
      "chip": "ym2612"
    },
    {
      "channel": 3,
      "note": 84,
      "start": 26.3111,
      "duration": 0.0179,
      "velocity": 97,
      "chip": "ym2612"
    },
    {
      "channel": 0,
      "note": 36,
      "start": 26.3266,
      "duration": 0.0116,
      "velocity": 115,
      "chip": "ym2612"
    },
    {
      "channel": 4,
      "note": 81,
      "start": 26.3278,
      "duration": 0.014,
      "velocity": 97,
      "chip": "ym2612"
    },
    {
      "channel": 3,
      "note": 84,
      "start": 26.329,
      "duration": 0.014,
      "velocity": 97,
      "chip": "ym2612"
    },
    {
      "channel": 2,
      "note": 53,
      "start": 26.3305,
      "duration": 0.0137,
      "velocity": 100,
      "chip": "ym2612"
    },
    {
      "channel": 1,
      "note": 41,
      "start": 26.332,
      "duration": 0.0134,
      "velocity": 100,
      "chip": "ym2612"
    },
    {
      "channel": 0,
      "note": 36,
      "start": 26.3382,
      "duration": 0.0161,
      "velocity": 115,
      "chip": "ym2612"
    },
    {
      "channel": 4,
      "note": 81,
      "start": 26.3418,
      "duration": 0.0137,
      "velocity": 97,
      "chip": "ym2612"
    },
    {
      "channel": 3,
      "note": 84,
      "start": 26.343,
      "duration": 0.014,
      "velocity": 97,
      "chip": "ym2612"
    },
    {
      "channel": 2,
      "note": 53,
      "start": 26.3442,
      "duration": 0.0139,
      "velocity": 100,
      "chip": "ym2612"
    },
    {
      "channel": 1,
      "note": 41,
      "start": 26.3454,
      "duration": 0.0139,
      "velocity": 100,
      "chip": "ym2612"
    },
    {
      "channel": 0,
      "note": 37,
      "start": 26.3543,
      "duration": 0.0161,
      "velocity": 115,
      "chip": "ym2612"
    },
    {
      "channel": 4,
      "note": 81,
      "start": 26.3555,
      "duration": 0.0161,
      "velocity": 97,
      "chip": "ym2612"
    },
    {
      "channel": 3,
      "note": 84,
      "start": 26.357,
      "duration": 0.0185,
      "velocity": 97,
      "chip": "ym2612"
    },
    {
      "channel": 2,
      "note": 53,
      "start": 26.3581,
      "duration": 0.0185,
      "velocity": 100,
      "chip": "ym2612"
    },
    {
      "channel": 1,
      "note": 41,
      "start": 26.3592,
      "duration": 0.0186,
      "velocity": 100,
      "chip": "ym2612"
    },
    {
      "channel": 0,
      "note": 37,
      "start": 26.3704,
      "duration": 0.0161,
      "velocity": 115,
      "chip": "ym2612"
    },
    {
      "channel": 4,
      "note": 81,
      "start": 26.3716,
      "duration": 0.0161,
      "velocity": 97,
      "chip": "ym2612"
    },
    {
      "channel": 3,
      "note": 84,
      "start": 26.3755,
      "duration": 0.0134,
      "velocity": 97,
      "chip": "ym2612"
    },
    {
      "channel": 2,
      "note": 53,
      "start": 26.3766,
      "duration": 0.0161,
      "velocity": 100,
      "chip": "ym2612"
    },
    {
      "channel": 1,
      "note": 41,
      "start": 26.3778,
      "duration": 0.0161,
      "velocity": 100,
      "chip": "ym2612"
    },
    {
      "channel": 0,
      "note": 38,
      "start": 26.3865,
      "duration": 0.0161,
      "velocity": 115,
      "chip": "ym2612"
    },
    {
      "channel": 4,
      "note": 81,
      "start": 26.3877,
      "duration": 0.0161,
      "velocity": 97,
      "chip": "ym2612"
    },
    {
      "channel": 3,
      "note": 84,
      "start": 26.3889,
      "duration": 0.0161,
      "velocity": 97,
      "chip": "ym2612"
    },
    {
      "channel": 2,
      "note": 53,
      "start": 26.3927,
      "duration": 0.0157,
      "velocity": 100,
      "chip": "ym2612"
    },
    {
      "channel": 1,
      "note": 41,
      "start": 26.3939,
      "duration": 0.0157,
      "velocity": 100,
      "chip": "ym2612"
    },
    {
      "channel": 0,
      "note": 38,
      "start": 26.4026,
      "duration": 0.0161,
      "velocity": 115,
      "chip": "ym2612"
    },
    {
      "channel": 4,
      "note": 81,
      "start": 26.4038,
      "duration": 0.0161,
      "velocity": 97,
      "chip": "ym2612"
    },
    {
      "channel": 3,
      "note": 84,
      "start": 26.4049,
      "duration": 0.0161,
      "velocity": 97,
      "chip": "ym2612"
    },
    {
      "channel": 2,
      "note": 53,
      "start": 26.4085,
      "duration": 0.0137,
      "velocity": 100,
      "chip": "ym2612"
    },
    {
      "channel": 1,
      "note": 41,
      "start": 26.4096,
      "duration": 0.0141,
      "velocity": 100,
      "chip": "ym2612"
    },
    {
      "channel": 0,
      "note": 39,
      "start": 26.4187,
      "duration": 0.0161,
      "velocity": 115,
      "chip": "ym2612"
    },
    {
      "channel": 4,
      "note": 81,
      "start": 26.4199,
      "duration": 0.0161,
      "velocity": 97,
      "chip": "ym2612"
    },
    {
      "channel": 3,
      "note": 84,
      "start": 26.421,
      "duration": 0.0161,
      "velocity": 97,
      "chip": "ym2612"
    },
    {
      "channel": 2,
      "note": 53,
      "start": 26.4222,
      "duration": 0.0161,
      "velocity": 100,
      "chip": "ym2612"
    },
    {
      "channel": 1,
      "note": 41,
      "start": 26.4237,
      "duration": 0.0185,
      "velocity": 100,
      "chip": "ym2612"
    },
    {
      "channel": 0,
      "note": 39,
      "start": 26.4348,
      "duration": 0.0161,
      "velocity": 115,
      "chip": "ym2612"
    },
    {
      "channel": 4,
      "note": 81,
      "start": 26.436,
      "duration": 0.0161,
      "velocity": 97,
      "chip": "ym2612"
    },
    {
      "channel": 3,
      "note": 84,
      "start": 26.4371,
      "duration": 0.0161,
      "velocity": 97,
      "chip": "ym2612"
    },
    {
      "channel": 2,
      "note": 53,
      "start": 26.4383,
      "duration": 0.0161,
      "velocity": 100,
      "chip": "ym2612"
    },
    {
      "channel": 1,
      "note": 41,
      "start": 26.4422,
      "duration": 0.0134,
      "velocity": 100,
      "chip": "ym2612"
    },
    {
      "channel": 0,
      "note": 40,
      "start": 26.4509,
      "duration": 0.0161,
      "velocity": 115,
      "chip": "ym2612"
    },
    {
      "channel": 4,
      "note": 81,
      "start": 26.4521,
      "duration": 0.0161,
      "velocity": 97,
      "chip": "ym2612"
    },
    {
      "channel": 3,
      "note": 84,
      "start": 26.4532,
      "duration": 0.0161,
      "velocity": 97,
      "chip": "ym2612"
    },
    {
      "channel": 2,
      "note": 53,
      "start": 26.4544,
      "duration": 0.0161,
      "velocity": 100,
      "chip": "ym2612"
    },
    {
      "channel": 1,
      "note": 41,
      "start": 26.4555,
      "duration": 0.0161,
      "velocity": 100,
      "chip": "ym2612"
    },
    {
      "channel": 0,
      "note": 40,
      "start": 26.467,
      "duration": 0.0161,
      "velocity": 115,
      "chip": "ym2612"
    },
    {
      "channel": 4,
      "note": 81,
      "start": 26.4682,
      "duration": 0.0161,
      "velocity": 97,
      "chip": "ym2612"
    },
    {
      "channel": 3,
      "note": 84,
      "start": 26.4693,
      "duration": 0.0161,
      "velocity": 97,
      "chip": "ym2612"
    },
    {
      "channel": 2,
      "note": 53,
      "start": 26.4705,
      "duration": 0.0161,
      "velocity": 100,
      "chip": "ym2612"
    },
    {
      "channel": 1,
      "note": 41,
      "start": 26.4716,
      "duration": 0.0161,
      "velocity": 100,
      "chip": "ym2612"
    },
    {
      "channel": 0,
      "note": 40,
      "start": 26.4831,
      "duration": 0.0161,
      "velocity": 115,
      "chip": "ym2612"
    },
    {
      "channel": 4,
      "note": 81,
      "start": 26.4843,
      "duration": 0.0161,
      "velocity": 97,
      "chip": "ym2612"
    },
    {
      "channel": 3,
      "note": 84,
      "start": 26.4854,
      "duration": 0.0162,
      "velocity": 97,
      "chip": "ym2612"
    },
    {
      "channel": 0,
      "note": 41,
      "start": 26.4992,
      "duration": 0.0162,
      "velocity": 115,
      "chip": "ym2612"
    },
    {
      "channel": 4,
      "note": 81,
      "start": 26.5004,
      "duration": 0.0162,
      "velocity": 97,
      "chip": "ym2612"
    },
    {
      "channel": 3,
      "note": 84,
      "start": 26.5016,
      "duration": 0.0161,
      "velocity": 97,
      "chip": "ym2612"
    },
    {
      "channel": 0,
      "note": 41,
      "start": 26.5153,
      "duration": 0.0161,
      "velocity": 115,
      "chip": "ym2612"
    },
    {
      "channel": 4,
      "note": 81,
      "start": 26.5165,
      "duration": 0.0161,
      "velocity": 97,
      "chip": "ym2612"
    },
    {
      "channel": 3,
      "note": 84,
      "start": 26.5177,
      "duration": 0.0161,
      "velocity": 97,
      "chip": "ym2612"
    },
    {
      "channel": 2,
      "note": 60,
      "start": 26.5191,
      "duration": 0.0159,
      "velocity": 100,
      "chip": "ym2612"
    },
    {
      "channel": 1,
      "note": 48,
      "start": 26.5205,
      "duration": 0.0156,
      "velocity": 100,
      "chip": "ym2612"
    },
    {
      "channel": 0,
      "note": 42,
      "start": 26.5314,
      "duration": 0.0161,
      "velocity": 115,
      "chip": "ym2612"
    },
    {
      "channel": 4,
      "note": 81,
      "start": 26.5326,
      "duration": 0.0161,
      "velocity": 97,
      "chip": "ym2612"
    },
    {
      "channel": 3,
      "note": 84,
      "start": 26.5338,
      "duration": 0.0161,
      "velocity": 97,
      "chip": "ym2612"
    },
    {
      "channel": 2,
      "note": 60,
      "start": 26.5349,
      "duration": 0.0161,
      "velocity": 100,
      "chip": "ym2612"
    },
    {
      "channel": 1,
      "note": 48,
      "start": 26.5361,
      "duration": 0.016,
      "velocity": 100,
      "chip": "ym2612"
    },
    {
      "channel": 0,
      "note": 42,
      "start": 26.5475,
      "duration": 0.0161,
      "velocity": 115,
      "chip": "ym2612"
    },
    {
      "channel": 4,
      "note": 81,
      "start": 26.5487,
      "duration": 0.0161,
      "velocity": 97,
      "chip": "ym2612"
    },
    {
      "channel": 3,
      "note": 84,
      "start": 26.5499,
      "duration": 0.0161,
      "velocity": 97,
      "chip": "ym2612"
    },
    {
      "channel": 2,
      "note": 60,
      "start": 26.551,
      "duration": 0.0161,
      "velocity": 100,
      "chip": "ym2612"
    },
    {
      "channel": 1,
      "note": 48,
      "start": 26.5521,
      "duration": 0.0161,
      "velocity": 100,
      "chip": "ym2612"
    },
    {
      "channel": 0,
      "note": 43,
      "start": 26.5636,
      "duration": 0.0161,
      "velocity": 115,
      "chip": "ym2612"
    },
    {
      "channel": 4,
      "note": 81,
      "start": 26.5648,
      "duration": 0.0161,
      "velocity": 97,
      "chip": "ym2612"
    },
    {
      "channel": 3,
      "note": 84,
      "start": 26.566,
      "duration": 0.0161,
      "velocity": 97,
      "chip": "ym2612"
    },
    {
      "channel": 2,
      "note": 60,
      "start": 26.5671,
      "duration": 0.0161,
      "velocity": 100,
      "chip": "ym2612"
    },
    {
      "channel": 1,
      "note": 48,
      "start": 26.5682,
      "duration": 0.0161,
      "velocity": 100,
      "chip": "ym2612"
    },
    {
      "channel": 0,
      "note": 43,
      "start": 26.5797,
      "duration": 0.0161,
      "velocity": 115,
      "chip": "ym2612"
    },
    {
      "channel": 4,
      "note": 81,
      "start": 26.5809,
      "duration": 0.0161,
      "velocity": 97,
      "chip": "ym2612"
    },
    {
      "channel": 3,
      "note": 84,
      "start": 26.582,
      "duration": 0.0161,
      "velocity": 97,
      "chip": "ym2612"
    },
    {
      "channel": 2,
      "note": 60,
      "start": 26.5832,
      "duration": 0.0161,
      "velocity": 100,
      "chip": "ym2612"
    },
    {
      "channel": 1,
      "note": 48,
      "start": 26.5843,
      "duration": 0.0161,
      "velocity": 100,
      "chip": "ym2612"
    },
    {
      "channel": 0,
      "note": 44,
      "start": 26.5958,
      "duration": 0.0161,
      "velocity": 115,
      "chip": "ym2612"
    },
    {
      "channel": 4,
      "note": 81,
      "start": 26.597,
      "duration": 0.0161,
      "velocity": 97,
      "chip": "ym2612"
    },
    {
      "channel": 3,
      "note": 84,
      "start": 26.5981,
      "duration": 0.0161,
      "velocity": 97,
      "chip": "ym2612"
    },
    {
      "channel": 2,
      "note": 60,
      "start": 26.5993,
      "duration": 0.0161,
      "velocity": 100,
      "chip": "ym2612"
    },
    {
      "channel": 1,
      "note": 48,
      "start": 26.6004,
      "duration": 0.0161,
      "velocity": 100,
      "chip": "ym2612"
    },
    {
      "channel": 0,
      "note": 44,
      "start": 26.6119,
      "duration": 0.0161,
      "velocity": 115,
      "chip": "ym2612"
    },
    {
      "channel": 4,
      "note": 81,
      "start": 26.6131,
      "duration": 0.0161,
      "velocity": 97,
      "chip": "ym2612"
    },
    {
      "channel": 3,
      "note": 84,
      "start": 26.6142,
      "duration": 0.0161,
      "velocity": 97,
      "chip": "ym2612"
    },
    {
      "channel": 2,
      "note": 60,
      "start": 26.6154,
      "duration": 0.0161,
      "velocity": 100,
      "chip": "ym2612"
    },
    {
      "channel": 1,
      "note": 48,
      "start": 26.6165,
      "duration": 0.0161,
      "velocity": 100,
      "chip": "ym2612"
    },
    {
      "channel": 0,
      "note": 44,
      "start": 26.628,
      "duration": 0.0161,
      "velocity": 115,
      "chip": "ym2612"
    },
    {
      "channel": 4,
      "note": 81,
      "start": 26.6292,
      "duration": 0.0162,
      "velocity": 97,
      "chip": "ym2612"
    },
    {
      "channel": 3,
      "note": 84,
      "start": 26.6303,
      "duration": 0.0161,
      "velocity": 97,
      "chip": "ym2612"
    },
    {
      "channel": 2,
      "note": 60,
      "start": 26.6315,
      "duration": 0.0162,
      "velocity": 100,
      "chip": "ym2612"
    },
    {
      "channel": 1,
      "note": 48,
      "start": 26.6326,
      "duration": 0.0161,
      "velocity": 100,
      "chip": "ym2612"
    },
    {
      "channel": 0,
      "note": 45,
      "start": 26.6441,
      "duration": 0.0166,
      "velocity": 115,
      "chip": "ym2612"
    },
    {
      "channel": 4,
      "note": 81,
      "start": 26.6454,
      "duration": 0.0165,
      "velocity": 97,
      "chip": "ym2612"
    },
    {
      "channel": 3,
      "note": 84,
      "start": 26.6465,
      "duration": 0.0166,
      "velocity": 97,
      "chip": "ym2612"
    },
    {
      "channel": 2,
      "note": 60,
      "start": 26.6476,
      "duration": 0.0165,
      "velocity": 100,
      "chip": "ym2612"
    },
    {
      "channel": 1,
      "note": 48,
      "start": 26.6488,
      "duration": 0.0165,
      "velocity": 100,
      "chip": "ym2612"
    },
    {
      "channel": 0,
      "note": 45,
      "start": 26.6607,
      "duration": 0.0163,
      "velocity": 115,
      "chip": "ym2612"
    },
    {
      "channel": 4,
      "note": 81,
      "start": 26.6618,
      "duration": 0.0163,
      "velocity": 97,
      "chip": "ym2612"
    },
    {
      "channel": 3,
      "note": 84,
      "start": 26.663,
      "duration": 0.0163,
      "velocity": 97,
      "chip": "ym2612"
    },
    {
      "channel": 2,
      "note": 60,
      "start": 26.6641,
      "duration": 0.0163,
      "velocity": 100,
      "chip": "ym2612"
    },
    {
      "channel": 1,
      "note": 48,
      "start": 26.6653,
      "duration": 0.0163,
      "velocity": 100,
      "chip": "ym2612"
    },
    {
      "channel": 0,
      "note": 46,
      "start": 26.677,
      "duration": 0.0155,
      "velocity": 115,
      "chip": "ym2612"
    },
    {
      "channel": 4,
      "note": 81,
      "start": 26.6782,
      "duration": 0.0155,
      "velocity": 97,
      "chip": "ym2612"
    },
    {
      "channel": 3,
      "note": 84,
      "start": 26.6793,
      "duration": 0.0154,
      "velocity": 97,
      "chip": "ym2612"
    },
    {
      "channel": 0,
      "note": 46,
      "start": 26.6924,
      "duration": 0.0217,
      "velocity": 115,
      "chip": "ym2612"
    },
    {
      "channel": 4,
      "note": 81,
      "start": 26.6936,
      "duration": 0.0217,
      "velocity": 97,
      "chip": "ym2612"
    },
    {
      "channel": 3,
      "note": 84,
      "start": 26.6948,
      "duration": 0.0217,
      "velocity": 97,
      "chip": "ym2612"
    },
    {
      "channel": 1,
      "note": 78,
      "start": 26.7124,
      "duration": 0.0149,
      "velocity": 124,
      "chip": "ym2612"
    },
    {
      "channel": 0,
      "note": 47,
      "start": 26.7141,
      "duration": 0.0149,
      "velocity": 115,
      "chip": "ym2612"
    },
    {
      "channel": 4,
      "note": 81,
      "start": 26.7153,
      "duration": 0.0149,
      "velocity": 97,
      "chip": "ym2612"
    },
    {
      "channel": 3,
      "note": 84,
      "start": 26.7165,
      "duration": 0.0149,
      "velocity": 97,
      "chip": "ym2612"
    },
    {
      "channel": 2,
      "note": 65,
      "start": 26.7179,
      "duration": 0.0147,
      "velocity": 100,
      "chip": "ym2612"
    },
    {
      "channel": 1,
      "note": 76,
      "start": 26.7273,
      "duration": 0.0157,
      "velocity": 124,
      "chip": "ym2612"
    },
    {
      "channel": 0,
      "note": 47,
      "start": 26.729,
      "duration": 0.0158,
      "velocity": 115,
      "chip": "ym2612"
    },
    {
      "channel": 4,
      "note": 81,
      "start": 26.7302,
      "duration": 0.0157,
      "velocity": 97,
      "chip": "ym2612"
    },
    {
      "channel": 3,
      "note": 84,
      "start": 26.7314,
      "duration": 0.0157,
      "velocity": 97,
      "chip": "ym2612"
    },
    {
      "channel": 2,
      "note": 65,
      "start": 26.7326,
      "duration": 0.0156,
      "velocity": 100,
      "chip": "ym2612"
    },
    {
      "channel": 1,
      "note": 75,
      "start": 26.743,
      "duration": 0.0141,
      "velocity": 124,
      "chip": "ym2612"
    },
    {
      "channel": 0,
      "note": 47,
      "start": 26.7448,
      "duration": 0.014,
      "velocity": 115,
      "chip": "ym2612"
    },
    {
      "channel": 4,
      "note": 81,
      "start": 26.7459,
      "duration": 0.0141,
      "velocity": 97,
      "chip": "ym2612"
    },
    {
      "channel": 3,
      "note": 84,
      "start": 26.7471,
      "duration": 0.014,
      "velocity": 97,
      "chip": "ym2612"
    },
    {
      "channel": 2,
      "note": 65,
      "start": 26.7482,
      "duration": 0.0141,
      "velocity": 100,
      "chip": "ym2612"
    },
    {
      "channel": 1,
      "note": 74,
      "start": 26.7571,
      "duration": 0.0185,
      "velocity": 124,
      "chip": "ym2612"
    },
    {
      "channel": 0,
      "note": 48,
      "start": 26.7588,
      "duration": 0.0185,
      "velocity": 115,
      "chip": "ym2612"
    },
    {
      "channel": 4,
      "note": 81,
      "start": 26.76,
      "duration": 0.0185,
      "velocity": 97,
      "chip": "ym2612"
    },
    {
      "channel": 3,
      "note": 84,
      "start": 26.7611,
      "duration": 0.0186,
      "velocity": 97,
      "chip": "ym2612"
    },
    {
      "channel": 2,
      "note": 65,
      "start": 26.7623,
      "duration": 0.0186,
      "velocity": 100,
      "chip": "ym2612"
    },
    {
      "channel": 1,
      "note": 72,
      "start": 26.7756,
      "duration": 0.0134,
      "velocity": 124,
      "chip": "ym2612"
    },
    {
      "channel": 0,
      "note": 48,
      "start": 26.7773,
      "duration": 0.0162,
      "velocity": 115,
      "chip": "ym2612"
    },
    {
      "channel": 4,
      "note": 81,
      "start": 26.7785,
      "duration": 0.0162,
      "velocity": 97,
      "chip": "ym2612"
    },
    {
      "channel": 3,
      "note": 84,
      "start": 26.7797,
      "duration": 0.0161,
      "velocity": 97,
      "chip": "ym2612"
    },
    {
      "channel": 2,
      "note": 65,
      "start": 26.7808,
      "duration": 0.0161,
      "velocity": 100,
      "chip": "ym2612"
    },
    {
      "channel": 1,
      "note": 71,
      "start": 26.7889,
      "duration": 0.0161,
      "velocity": 124,
      "chip": "ym2612"
    },
    {
      "channel": 0,
      "note": 49,
      "start": 26.7934,
      "duration": 0.0149,
      "velocity": 1,
      "chip": "ym2612"
    },
    {
      "channel": 4,
      "note": 81,
      "start": 26.7946,
      "duration": 0.0149,
      "velocity": 97,
      "chip": "ym2612"
    },
    {
      "channel": 3,
      "note": 84,
      "start": 26.7958,
      "duration": 0.015,
      "velocity": 97,
      "chip": "ym2612"
    },
    {
      "channel": 2,
      "note": 65,
      "start": 26.7969,
      "duration": 0.0149,
      "velocity": 100,
      "chip": "ym2612"
    },
    {
      "channel": 1,
      "note": 70,
      "start": 26.805,
      "duration": 0.0162,
      "velocity": 124,
      "chip": "ym2612"
    },
    {
      "channel": 4,
      "note": 81,
      "start": 26.8095,
      "duration": 0.0129,
      "velocity": 97,
      "chip": "ym2612"
    },
    {
      "channel": 3,
      "note": 84,
      "start": 26.8107,
      "duration": 0.0132,
      "velocity": 97,
      "chip": "ym2612"
    },
    {
      "channel": 2,
      "note": 65,
      "start": 26.8118,
      "duration": 0.0132,
      "velocity": 100,
      "chip": "ym2612"
    },
    {
      "channel": 1,
      "note": 69,
      "start": 26.8212,
      "duration": 0.0161,
      "velocity": 124,
      "chip": "ym2612"
    },
    {
      "channel": 4,
      "note": 81,
      "start": 26.8224,
      "duration": 0.0161,
      "velocity": 97,
      "chip": "ym2612"
    },
    {
      "channel": 3,
      "note": 84,
      "start": 26.8239,
      "duration": 0.0185,
      "velocity": 97,
      "chip": "ym2612"
    },
    {
      "channel": 2,
      "note": 65,
      "start": 26.8251,
      "duration": 0.0185,
      "velocity": 100,
      "chip": "ym2612"
    },
    {
      "channel": 1,
      "note": 68,
      "start": 26.8373,
      "duration": 0.0161,
      "velocity": 124,
      "chip": "ym2612"
    },
    {
      "channel": 4,
      "note": 81,
      "start": 26.8385,
      "duration": 0.0161,
      "velocity": 97,
      "chip": "ym2612"
    },
    {
      "channel": 3,
      "note": 84,
      "start": 26.8424,
      "duration": 0.0134,
      "velocity": 97,
      "chip": "ym2612"
    },
    {
      "channel": 2,
      "note": 65,
      "start": 26.8436,
      "duration": 0.0161,
      "velocity": 100,
      "chip": "ym2612"
    },
    {
      "channel": 1,
      "note": 66,
      "start": 26.8534,
      "duration": 0.0161,
      "velocity": 124,
      "chip": "ym2612"
    },
    {
      "channel": 4,
      "note": 81,
      "start": 26.8546,
      "duration": 0.0161,
      "velocity": 97,
      "chip": "ym2612"
    },
    {
      "channel": 3,
      "note": 84,
      "start": 26.8558,
      "duration": 0.0161,
      "velocity": 97,
      "chip": "ym2612"
    },
    {
      "channel": 2,
      "note": 65,
      "start": 26.8597,
      "duration": 0.0158,
      "velocity": 100,
      "chip": "ym2612"
    },
    {
      "channel": 1,
      "note": 65,
      "start": 26.8695,
      "duration": 0.0161,
      "velocity": 124,
      "chip": "ym2612"
    },
    {
      "channel": 4,
      "note": 81,
      "start": 26.8707,
      "duration": 0.0161,
      "velocity": 97,
      "chip": "ym2612"
    },
    {
      "channel": 3,
      "note": 84,
      "start": 26.8719,
      "duration": 0.0161,
      "velocity": 97,
      "chip": "ym2612"
    },
    {
      "channel": 1,
      "note": 64,
      "start": 26.8856,
      "duration": 0.0161,
      "velocity": 124,
      "chip": "ym2612"
    },
    {
      "channel": 4,
      "note": 81,
      "start": 26.8868,
      "duration": 0.0161,
      "velocity": 97,
      "chip": "ym2612"
    },
    {
      "channel": 3,
      "note": 84,
      "start": 26.888,
      "duration": 0.0162,
      "velocity": 97,
      "chip": "ym2612"
    },
    {
      "channel": 1,
      "note": 62,
      "start": 26.9016,
      "duration": 0.0161,
      "velocity": 124,
      "chip": "ym2612"
    },
    {
      "channel": 4,
      "note": 81,
      "start": 26.9029,
      "duration": 0.0161,
      "velocity": 97,
      "chip": "ym2612"
    },
    {
      "channel": 3,
      "note": 84,
      "start": 26.9041,
      "duration": 0.0161,
      "velocity": 97,
      "chip": "ym2612"
    },
    {
      "channel": 2,
      "note": 63,
      "start": 26.9055,
      "duration": 0.0158,
      "velocity": 100,
      "chip": "ym2612"
    },
    {
      "channel": 1,
      "note": 61,
      "start": 26.9177,
      "duration": 0.0161,
      "velocity": 124,
      "chip": "ym2612"
    },
    {
      "channel": 4,
      "note": 81,
      "start": 26.919,
      "duration": 0.0161,
      "velocity": 97,
      "chip": "ym2612"
    },
    {
      "channel": 3,
      "note": 84,
      "start": 26.9202,
      "duration": 0.0161,
      "velocity": 97,
      "chip": "ym2612"
    },
    {
      "channel": 2,
      "note": 63,
      "start": 26.9214,
      "duration": 0.016,
      "velocity": 100,
      "chip": "ym2612"
    },
    {
      "channel": 1,
      "note": 60,
      "start": 26.9338,
      "duration": 0.0161,
      "velocity": 124,
      "chip": "ym2612"
    },
    {
      "channel": 4,
      "note": 81,
      "start": 26.9351,
      "duration": 0.0161,
      "velocity": 97,
      "chip": "ym2612"
    },
    {
      "channel": 3,
      "note": 84,
      "start": 26.9363,
      "duration": 0.0161,
      "velocity": 97,
      "chip": "ym2612"
    },
    {
      "channel": 2,
      "note": 63,
      "start": 26.9374,
      "duration": 0.0161,
      "velocity": 100,
      "chip": "ym2612"
    },
    {
      "channel": 1,
      "note": 59,
      "start": 26.9499,
      "duration": 0.0161,
      "velocity": 124,
      "chip": "ym2612"
    },
    {
      "channel": 4,
      "note": 81,
      "start": 26.9512,
      "duration": 0.0161,
      "velocity": 97,
      "chip": "ym2612"
    },
    {
      "channel": 3,
      "note": 84,
      "start": 26.9524,
      "duration": 0.0161,
      "velocity": 97,
      "chip": "ym2612"
    },
    {
      "channel": 2,
      "note": 63,
      "start": 26.9535,
      "duration": 0.0161,
      "velocity": 100,
      "chip": "ym2612"
    },
    {
      "channel": 1,
      "note": 57,
      "start": 26.9661,
      "duration": 0.0161,
      "velocity": 124,
      "chip": "ym2612"
    },
    {
      "channel": 4,
      "note": 81,
      "start": 26.9673,
      "duration": 0.0161,
      "velocity": 97,
      "chip": "ym2612"
    },
    {
      "channel": 3,
      "note": 84,
      "start": 26.9685,
      "duration": 0.0161,
      "velocity": 97,
      "chip": "ym2612"
    },
    {
      "channel": 2,
      "note": 63,
      "start": 26.9696,
      "duration": 0.0161,
      "velocity": 100,
      "chip": "ym2612"
    },
    {
      "channel": 1,
      "note": 56,
      "start": 26.9822,
      "duration": 0.0161,
      "velocity": 124,
      "chip": "ym2612"
    },
    {
      "channel": 4,
      "note": 81,
      "start": 26.9834,
      "duration": 0.0161,
      "velocity": 97,
      "chip": "ym2612"
    },
    {
      "channel": 3,
      "note": 84,
      "start": 26.9846,
      "duration": 0.0161,
      "velocity": 97,
      "chip": "ym2612"
    },
    {
      "channel": 2,
      "note": 63,
      "start": 26.9857,
      "duration": 0.0161,
      "velocity": 100,
      "chip": "ym2612"
    },
    {
      "channel": 1,
      "note": 55,
      "start": 26.9983,
      "duration": 0.0161,
      "velocity": 124,
      "chip": "ym2612"
    },
    {
      "channel": 4,
      "note": 81,
      "start": 26.9995,
      "duration": 0.0161,
      "velocity": 97,
      "chip": "ym2612"
    },
    {
      "channel": 3,
      "note": 84,
      "start": 27.0007,
      "duration": 0.0161,
      "velocity": 97,
      "chip": "ym2612"
    },
    {
      "channel": 2,
      "note": 63,
      "start": 27.0018,
      "duration": 0.0161,
      "velocity": 100,
      "chip": "ym2612"
    },
    {
      "channel": 1,
      "note": 53,
      "start": 27.0144,
      "duration": 0.0161,
      "velocity": 124,
      "chip": "ym2612"
    },
    {
      "channel": 4,
      "note": 81,
      "start": 27.0156,
      "duration": 0.0161,
      "velocity": 97,
      "chip": "ym2612"
    },
    {
      "channel": 3,
      "note": 84,
      "start": 27.0168,
      "duration": 0.0162,
      "velocity": 97,
      "chip": "ym2612"
    },
    {
      "channel": 2,
      "note": 63,
      "start": 27.0179,
      "duration": 0.0161,
      "velocity": 100,
      "chip": "ym2612"
    },
    {
      "channel": 1,
      "note": 52,
      "start": 27.0305,
      "duration": 0.0161,
      "velocity": 124,
      "chip": "ym2612"
    },
    {
      "channel": 4,
      "note": 81,
      "start": 27.0317,
      "duration": 0.0161,
      "velocity": 97,
      "chip": "ym2612"
    },
    {
      "channel": 3,
      "note": 84,
      "start": 27.0329,
      "duration": 0.016,
      "velocity": 97,
      "chip": "ym2612"
    },
    {
      "channel": 2,
      "note": 63,
      "start": 27.0341,
      "duration": 0.016,
      "velocity": 100,
      "chip": "ym2612"
    },
    {
      "channel": 1,
      "note": 51,
      "start": 27.0466,
      "duration": 0.0153,
      "velocity": 1,
      "chip": "ym2612"
    },
    {
      "channel": 4,
      "note": 81,
      "start": 27.0478,
      "duration": 0.0153,
      "velocity": 97,
      "chip": "ym2612"
    },
    {
      "channel": 3,
      "note": 84,
      "start": 27.049,
      "duration": 0.0153,
      "velocity": 97,
      "chip": "ym2612"
    },
    {
      "channel": 2,
      "note": 63,
      "start": 27.0501,
      "duration": 0.0153,
      "velocity": 100,
      "chip": "ym2612"
    },
    {
      "channel": 4,
      "note": 81,
      "start": 27.0631,
      "duration": 0.0153,
      "velocity": 97,
      "chip": "ym2612"
    },
    {
      "channel": 3,
      "note": 84,
      "start": 27.0643,
      "duration": 0.0153,
      "velocity": 97,
      "chip": "ym2612"
    },
    {
      "channel": 4,
      "note": 81,
      "start": 27.0784,
      "duration": 0.0196,
      "velocity": 97,
      "chip": "ym2612"
    },
    {
      "channel": 3,
      "note": 84,
      "start": 27.0796,
      "duration": 0.0195,
      "velocity": 97,
      "chip": "ym2612"
    },
    {
      "channel": 0,
      "note": 36,
      "start": 27.0967,
      "duration": 0.0144,
      "velocity": 115,
      "chip": "ym2612"
    },
    {
      "channel": 4,
      "note": 81,
      "start": 27.098,
      "duration": 0.0143,
      "velocity": 97,
      "chip": "ym2612"
    },
    {
      "channel": 3,
      "note": 84,
      "start": 27.0991,
      "duration": 0.0144,
      "velocity": 97,
      "chip": "ym2612"
    },
    {
      "channel": 0,
      "note": 36,
      "start": 27.1111,
      "duration": 0.0162,
      "velocity": 115,
      "chip": "ym2612"
    },
    {
      "channel": 4,
      "note": 81,
      "start": 27.1123,
      "duration": 0.0162,
      "velocity": 97,
      "chip": "ym2612"
    },
    {
      "channel": 3,
      "note": 84,
      "start": 27.1135,
      "duration": 0.0162,
      "velocity": 97,
      "chip": "ym2612"
    },
    {
      "channel": 0,
      "note": 37,
      "start": 27.1273,
      "duration": 0.0163,
      "velocity": 115,
      "chip": "ym2612"
    },
    {
      "channel": 4,
      "note": 81,
      "start": 27.1285,
      "duration": 0.0163,
      "velocity": 97,
      "chip": "ym2612"
    },
    {
      "channel": 3,
      "note": 84,
      "start": 27.1297,
      "duration": 0.0163,
      "velocity": 97,
      "chip": "ym2612"
    },
    {
      "channel": 0,
      "note": 37,
      "start": 27.1436,
      "duration": 0.0157,
      "velocity": 115,
      "chip": "ym2612"
    },
    {
      "channel": 4,
      "note": 81,
      "start": 27.1448,
      "duration": 0.0157,
      "velocity": 97,
      "chip": "ym2612"
    },
    {
      "channel": 3,
      "note": 84,
      "start": 27.146,
      "duration": 0.0157,
      "velocity": 97,
      "chip": "ym2612"
    },
    {
      "channel": 0,
      "note": 38,
      "start": 27.1593,
      "duration": 0.0179,
      "velocity": 115,
      "chip": "ym2612"
    },
    {
      "channel": 4,
      "note": 81,
      "start": 27.1605,
      "duration": 0.0179,
      "velocity": 97,
      "chip": "ym2612"
    },
    {
      "channel": 3,
      "note": 84,
      "start": 27.1617,
      "duration": 0.018,
      "velocity": 97,
      "chip": "ym2612"
    },
    {
      "channel": 0,
      "note": 38,
      "start": 27.1773,
      "duration": 0.0167,
      "velocity": 115,
      "chip": "ym2612"
    },
    {
      "channel": 4,
      "note": 81,
      "start": 27.1785,
      "duration": 0.0167,
      "velocity": 97,
      "chip": "ym2612"
    },
    {
      "channel": 3,
      "note": 84,
      "start": 27.1797,
      "duration": 0.0167,
      "velocity": 97,
      "chip": "ym2612"
    },
    {
      "channel": 0,
      "note": 39,
      "start": 27.194,
      "duration": 0.016,
      "velocity": 115,
      "chip": "ym2612"
    },
    {
      "channel": 4,
      "note": 81,
      "start": 27.1952,
      "duration": 0.016,
      "velocity": 97,
      "chip": "ym2612"
    },
    {
      "channel": 3,
      "note": 84,
      "start": 27.1964,
      "duration": 0.016,
      "velocity": 97,
      "chip": "ym2612"
    },
    {
      "channel": 0,
      "note": 39,
      "start": 27.21,
      "duration": 0.0141,
      "velocity": 115,
      "chip": "ym2612"
    },
    {
      "channel": 4,
      "note": 81,
      "start": 27.2112,
      "duration": 0.0141,
      "velocity": 97,
      "chip": "ym2612"
    },
    {
      "channel": 3,
      "note": 84,
      "start": 27.2124,
      "duration": 0.0141,
      "velocity": 97,
      "chip": "ym2612"
    },
    {
      "channel": 0,
      "note": 40,
      "start": 27.2241,
      "duration": 0.0185,
      "velocity": 115,
      "chip": "ym2612"
    },
    {
      "channel": 4,
      "note": 81,
      "start": 27.2253,
      "duration": 0.0185,
      "velocity": 97,
      "chip": "ym2612"
    },
    {
      "channel": 3,
      "note": 84,
      "start": 27.2265,
      "duration": 0.0185,
      "velocity": 97,
      "chip": "ym2612"
    },
    {
      "channel": 0,
      "note": 40,
      "start": 27.2426,
      "duration": 0.0161,
      "velocity": 115,
      "chip": "ym2612"
    },
    {
      "channel": 4,
      "note": 81,
      "start": 27.2438,
      "duration": 0.016,
      "velocity": 97,
      "chip": "ym2612"
    },
    {
      "channel": 3,
      "note": 84,
      "start": 27.245,
      "duration": 0.0161,
      "velocity": 97,
      "chip": "ym2612"
    },
    {
      "channel": 0,
      "note": 40,
      "start": 27.2587,
      "duration": 0.0134,
      "velocity": 115,
      "chip": "ym2612"
    },
    {
      "channel": 4,
      "note": 81,
      "start": 27.2598,
      "duration": 0.0158,
      "velocity": 97,
      "chip": "ym2612"
    },
    {
      "channel": 3,
      "note": 84,
      "start": 27.2611,
      "duration": 0.0158,
      "velocity": 97,
      "chip": "ym2612"
    },
    {
      "channel": 0,
      "note": 41,
      "start": 27.2721,
      "duration": 0.0182,
      "velocity": 115,
      "chip": "ym2612"
    },
    {
      "channel": 4,
      "note": 81,
      "start": 27.2756,
      "duration": 0.0159,
      "velocity": 97,
      "chip": "ym2612"
    },
    {
      "channel": 3,
      "note": 84,
      "start": 27.2768,
      "duration": 0.0159,
      "velocity": 97,
      "chip": "ym2612"
    },
    {
      "channel": 0,
      "note": 36,
      "start": 27.2902,
      "duration": 0.0141,
      "velocity": 115,
      "chip": "ym2612"
    },
    {
      "channel": 4,
      "note": 81,
      "start": 27.2915,
      "duration": 0.0141,
      "velocity": 97,
      "chip": "ym2612"
    },
    {
      "channel": 3,
      "note": 84,
      "start": 27.2927,
      "duration": 0.0167,
      "velocity": 97,
      "chip": "ym2612"
    },
    {
      "channel": 2,
      "note": 65,
      "start": 27.2941,
      "duration": 0.0165,
      "velocity": 100,
      "chip": "ym2612"
    },
    {
      "channel": 1,
      "note": 53,
      "start": 27.2955,
      "duration": 0.0163,
      "velocity": 100,
      "chip": "ym2612"
    },
    {
      "channel": 0,
      "note": 36,
      "start": 27.3043,
      "duration": 0.016,
      "velocity": 115,
      "chip": "ym2612"
    },
    {
      "channel": 4,
      "note": 81,
      "start": 27.3055,
      "duration": 0.016,
      "velocity": 97,
      "chip": "ym2612"
    },
    {
      "channel": 3,
      "note": 84,
      "start": 27.3094,
      "duration": 0.016,
      "velocity": 97,
      "chip": "ym2612"
    },
    {
      "channel": 2,
      "note": 65,
      "start": 27.3106,
      "duration": 0.016,
      "velocity": 100,
      "chip": "ym2612"
    },
    {
      "channel": 1,
      "note": 53,
      "start": 27.3118,
      "duration": 0.016,
      "velocity": 100,
      "chip": "ym2612"
    },
    {
      "channel": 0,
      "note": 37,
      "start": 27.3203,
      "duration": 0.0161,
      "velocity": 115,
      "chip": "ym2612"
    },
    {
      "channel": 4,
      "note": 81,
      "start": 27.3216,
      "duration": 0.0161,
      "velocity": 97,
      "chip": "ym2612"
    },
    {
      "channel": 3,
      "note": 84,
      "start": 27.3254,
      "duration": 0.0134,
      "velocity": 97,
      "chip": "ym2612"
    },
    {
      "channel": 2,
      "note": 65,
      "start": 27.3266,
      "duration": 0.0158,
      "velocity": 100,
      "chip": "ym2612"
    },
    {
      "channel": 1,
      "note": 53,
      "start": 27.3277,
      "duration": 0.0157,
      "velocity": 100,
      "chip": "ym2612"
    },
    {
      "channel": 0,
      "note": 37,
      "start": 27.3364,
      "duration": 0.0161,
      "velocity": 115,
      "chip": "ym2612"
    },
    {
      "channel": 4,
      "note": 81,
      "start": 27.3376,
      "duration": 0.0161,
      "velocity": 97,
      "chip": "ym2612"
    },
    {
      "channel": 3,
      "note": 84,
      "start": 27.3388,
      "duration": 0.0161,
      "velocity": 97,
      "chip": "ym2612"
    },
    {
      "channel": 2,
      "note": 65,
      "start": 27.3424,
      "duration": 0.014,
      "velocity": 100,
      "chip": "ym2612"
    },
    {
      "channel": 1,
      "note": 53,
      "start": 27.3434,
      "duration": 0.0141,
      "velocity": 100,
      "chip": "ym2612"
    },
    {
      "channel": 0,
      "note": 38,
      "start": 27.3525,
      "duration": 0.0161,
      "velocity": 115,
      "chip": "ym2612"
    },
    {
      "channel": 4,
      "note": 81,
      "start": 27.3537,
      "duration": 0.0161,
      "velocity": 97,
      "chip": "ym2612"
    },
    {
      "channel": 3,
      "note": 84,
      "start": 27.3549,
      "duration": 0.0161,
      "velocity": 97,
      "chip": "ym2612"
    },
    {
      "channel": 2,
      "note": 65,
      "start": 27.3563,
      "duration": 0.0158,
      "velocity": 100,
      "chip": "ym2612"
    },
    {
      "channel": 1,
      "note": 53,
      "start": 27.3575,
      "duration": 0.0185,
      "velocity": 100,
      "chip": "ym2612"
    },
    {
      "channel": 0,
      "note": 38,
      "start": 27.3686,
      "duration": 0.0162,
      "velocity": 115,
      "chip": "ym2612"
    },
    {
      "channel": 4,
      "note": 81,
      "start": 27.3698,
      "duration": 0.0161,
      "velocity": 97,
      "chip": "ym2612"
    },
    {
      "channel": 3,
      "note": 84,
      "start": 27.371,
      "duration": 0.0161,
      "velocity": 97,
      "chip": "ym2612"
    },
    {
      "channel": 2,
      "note": 65,
      "start": 27.3721,
      "duration": 0.0161,
      "velocity": 100,
      "chip": "ym2612"
    },
    {
      "channel": 1,
      "note": 53,
      "start": 27.376,
      "duration": 0.0161,
      "velocity": 100,
      "chip": "ym2612"
    },
    {
      "channel": 0,
      "note": 39,
      "start": 27.3848,
      "duration": 0.0161,
      "velocity": 115,
      "chip": "ym2612"
    },
    {
      "channel": 4,
      "note": 81,
      "start": 27.3859,
      "duration": 0.0161,
      "velocity": 97,
      "chip": "ym2612"
    },
    {
      "channel": 3,
      "note": 84,
      "start": 27.3871,
      "duration": 0.0161,
      "velocity": 97,
      "chip": "ym2612"
    },
    {
      "channel": 2,
      "note": 65,
      "start": 27.3882,
      "duration": 0.0161,
      "velocity": 100,
      "chip": "ym2612"
    },
    {
      "channel": 1,
      "note": 53,
      "start": 27.3921,
      "duration": 0.0134,
      "velocity": 100,
      "chip": "ym2612"
    },
    {
      "channel": 0,
      "note": 39,
      "start": 27.4009,
      "duration": 0.0161,
      "velocity": 115,
      "chip": "ym2612"
    },
    {
      "channel": 4,
      "note": 81,
      "start": 27.402,
      "duration": 0.0162,
      "velocity": 97,
      "chip": "ym2612"
    },
    {
      "channel": 3,
      "note": 84,
      "start": 27.4032,
      "duration": 0.0161,
      "velocity": 97,
      "chip": "ym2612"
    },
    {
      "channel": 2,
      "note": 65,
      "start": 27.4043,
      "duration": 0.0162,
      "velocity": 100,
      "chip": "ym2612"
    },
    {
      "channel": 1,
      "note": 53,
      "start": 27.4055,
      "duration": 0.0161,
      "velocity": 100,
      "chip": "ym2612"
    },
    {
      "channel": 0,
      "note": 40,
      "start": 27.417,
      "duration": 0.0161,
      "velocity": 115,
      "chip": "ym2612"
    },
    {
      "channel": 4,
      "note": 81,
      "start": 27.4182,
      "duration": 0.0161,
      "velocity": 97,
      "chip": "ym2612"
    },
    {
      "channel": 3,
      "note": 84,
      "start": 27.4193,
      "duration": 0.0161,
      "velocity": 97,
      "chip": "ym2612"
    },
    {
      "channel": 2,
      "note": 65,
      "start": 27.4205,
      "duration": 0.0161,
      "velocity": 100,
      "chip": "ym2612"
    },
    {
      "channel": 1,
      "note": 53,
      "start": 27.4216,
      "duration": 0.016,
      "velocity": 100,
      "chip": "ym2612"
    },
    {
      "channel": 0,
      "note": 40,
      "start": 27.4331,
      "duration": 0.0161,
      "velocity": 115,
      "chip": "ym2612"
    },
    {
      "channel": 4,
      "note": 81,
      "start": 27.4343,
      "duration": 0.0161,
      "velocity": 97,
      "chip": "ym2612"
    },
    {
      "channel": 3,
      "note": 84,
      "start": 27.4354,
      "duration": 0.0161,
      "velocity": 97,
      "chip": "ym2612"
    },
    {
      "channel": 2,
      "note": 65,
      "start": 27.4366,
      "duration": 0.0161,
      "velocity": 100,
      "chip": "ym2612"
    },
    {
      "channel": 1,
      "note": 53,
      "start": 27.4376,
      "duration": 0.0162,
      "velocity": 100,
      "chip": "ym2612"
    },
    {
      "channel": 0,
      "note": 40,
      "start": 27.4492,
      "duration": 0.0161,
      "velocity": 115,
      "chip": "ym2612"
    },
    {
      "channel": 4,
      "note": 81,
      "start": 27.4504,
      "duration": 0.0161,
      "velocity": 97,
      "chip": "ym2612"
    },
    {
      "channel": 3,
      "note": 84,
      "start": 27.4515,
      "duration": 0.0161,
      "velocity": 97,
      "chip": "ym2612"
    },
    {
      "channel": 0,
      "note": 41,
      "start": 27.4653,
      "duration": 0.0195,
      "velocity": 115,
      "chip": "ym2612"
    },
    {
      "channel": 4,
      "note": 81,
      "start": 27.4665,
      "duration": 0.0195,
      "velocity": 97,
      "chip": "ym2612"
    },
    {
      "channel": 3,
      "note": 84,
      "start": 27.4676,
      "duration": 0.0196,
      "velocity": 97,
      "chip": "ym2612"
    },
    {
      "channel": 1,
      "note": 78,
      "start": 27.4831,
      "duration": 0.0144,
      "velocity": 124,
      "chip": "ym2612"
    },
    {
      "channel": 0,
      "note": 41,
      "start": 27.4848,
      "duration": 0.0144,
      "velocity": 115,
      "chip": "ym2612"
    },
    {
      "channel": 4,
      "note": 81,
      "start": 27.486,
      "duration": 0.0144,
      "velocity": 97,
      "chip": "ym2612"
    },
    {
      "channel": 3,
      "note": 84,
      "start": 27.4872,
      "duration": 0.0143,
      "velocity": 97,
      "chip": "ym2612"
    },
    {
      "channel": 2,
      "note": 60,
      "start": 27.4885,
      "duration": 0.0142,
      "velocity": 100,
      "chip": "ym2612"
    },
    {
      "channel": 1,
      "note": 76,
      "start": 27.4974,
      "duration": 0.016,
      "velocity": 124,
      "chip": "ym2612"
    },
    {
      "channel": 0,
      "note": 42,
      "start": 27.4992,
      "duration": 0.016,
      "velocity": 115,
      "chip": "ym2612"
    },
    {
      "channel": 4,
      "note": 81,
      "start": 27.5004,
      "duration": 0.016,
      "velocity": 97,
      "chip": "ym2612"
    },
    {
      "channel": 3,
      "note": 84,
      "start": 27.5015,
      "duration": 0.0161,
      "velocity": 97,
      "chip": "ym2612"
    },
    {
      "channel": 2,
      "note": 60,
      "start": 27.5027,
      "duration": 0.016,
      "velocity": 100,
      "chip": "ym2612"
    },
    {
      "channel": 1,
      "note": 75,
      "start": 27.5135,
      "duration": 0.0161,
      "velocity": 124,
      "chip": "ym2612"
    },
    {
      "channel": 0,
      "note": 42,
      "start": 27.5152,
      "duration": 0.0161,
      "velocity": 115,
      "chip": "ym2612"
    },
    {
      "channel": 4,
      "note": 81,
      "start": 27.5164,
      "duration": 0.0161,
      "velocity": 97,
      "chip": "ym2612"
    },
    {
      "channel": 3,
      "note": 84,
      "start": 27.5176,
      "duration": 0.0161,
      "velocity": 97,
      "chip": "ym2612"
    },
    {
      "channel": 2,
      "note": 60,
      "start": 27.5187,
      "duration": 0.0161,
      "velocity": 100,
      "chip": "ym2612"
    },
    {
      "channel": 1,
      "note": 74,
      "start": 27.5296,
      "duration": 0.0162,
      "velocity": 124,
      "chip": "ym2612"
    },
    {
      "channel": 0,
      "note": 43,
      "start": 27.5313,
      "duration": 0.0161,
      "velocity": 115,
      "chip": "ym2612"
    },
    {
      "channel": 4,
      "note": 81,
      "start": 27.5325,
      "duration": 0.0162,
      "velocity": 97,
      "chip": "ym2612"
    },
    {
      "channel": 3,
      "note": 84,
      "start": 27.5337,
      "duration": 0.0161,
      "velocity": 97,
      "chip": "ym2612"
    },
    {
      "channel": 2,
      "note": 60,
      "start": 27.5348,
      "duration": 0.0162,
      "velocity": 100,
      "chip": "ym2612"
    },
    {
      "channel": 1,
      "note": 72,
      "start": 27.5457,
      "duration": 0.0161,
      "velocity": 124,
      "chip": "ym2612"
    },
    {
      "channel": 0,
      "note": 43,
      "start": 27.5474,
      "duration": 0.0161,
      "velocity": 115,
      "chip": "ym2612"
    },
    {
      "channel": 4,
      "note": 81,
      "start": 27.5487,
      "duration": 0.0161,
      "velocity": 97,
      "chip": "ym2612"
    },
    {
      "channel": 3,
      "note": 84,
      "start": 27.5498,
      "duration": 0.0161,
      "velocity": 97,
      "chip": "ym2612"
    },
    {
      "channel": 2,
      "note": 60,
      "start": 27.551,
      "duration": 0.0161,
      "velocity": 100,
      "chip": "ym2612"
    },
    {
      "channel": 1,
      "note": 71,
      "start": 27.5618,
      "duration": 0.0161,
      "velocity": 124,
      "chip": "ym2612"
    },
    {
      "channel": 0,
      "note": 44,
      "start": 27.5635,
      "duration": 0.0161,
      "velocity": 115,
      "chip": "ym2612"
    },
    {
      "channel": 4,
      "note": 81,
      "start": 27.5647,
      "duration": 0.0161,
      "velocity": 97,
      "chip": "ym2612"
    },
    {
      "channel": 3,
      "note": 84,
      "start": 27.5659,
      "duration": 0.0161,
      "velocity": 97,
      "chip": "ym2612"
    },
    {
      "channel": 2,
      "note": 60,
      "start": 27.567,
      "duration": 0.0161,
      "velocity": 100,
      "chip": "ym2612"
    },
    {
      "channel": 1,
      "note": 70,
      "start": 27.5779,
      "duration": 0.0161,
      "velocity": 124,
      "chip": "ym2612"
    },
    {
      "channel": 0,
      "note": 44,
      "start": 27.5796,
      "duration": 0.0161,
      "velocity": 115,
      "chip": "ym2612"
    },
    {
      "channel": 4,
      "note": 81,
      "start": 27.5808,
      "duration": 0.0161,
      "velocity": 97,
      "chip": "ym2612"
    },
    {
      "channel": 3,
      "note": 84,
      "start": 27.582,
      "duration": 0.0161,
      "velocity": 97,
      "chip": "ym2612"
    },
    {
      "channel": 2,
      "note": 60,
      "start": 27.5831,
      "duration": 0.0161,
      "velocity": 100,
      "chip": "ym2612"
    },
    {
      "channel": 1,
      "note": 69,
      "start": 27.594,
      "duration": 0.0162,
      "velocity": 124,
      "chip": "ym2612"
    },
    {
      "channel": 0,
      "note": 44,
      "start": 27.5957,
      "duration": 0.0162,
      "velocity": 115,
      "chip": "ym2612"
    },
    {
      "channel": 4,
      "note": 81,
      "start": 27.5969,
      "duration": 0.0162,
      "velocity": 97,
      "chip": "ym2612"
    },
    {
      "channel": 3,
      "note": 84,
      "start": 27.5981,
      "duration": 0.0162,
      "velocity": 97,
      "chip": "ym2612"
    },
    {
      "channel": 2,
      "note": 60,
      "start": 27.5992,
      "duration": 0.0162,
      "velocity": 100,
      "chip": "ym2612"
    },
    {
      "channel": 1,
      "note": 68,
      "start": 27.6102,
      "duration": 0.016,
      "velocity": 124,
      "chip": "ym2612"
    },
    {
      "channel": 0,
      "note": 45,
      "start": 27.612,
      "duration": 0.016,
      "velocity": 115,
      "chip": "ym2612"
    },
    {
      "channel": 4,
      "note": 81,
      "start": 27.6132,
      "duration": 0.016,
      "velocity": 97,
      "chip": "ym2612"
    },
    {
      "channel": 3,
      "note": 84,
      "start": 27.6143,
      "duration": 0.016,
      "velocity": 97,
      "chip": "ym2612"
    },
    {
      "channel": 2,
      "note": 60,
      "start": 27.6154,
      "duration": 0.016,
      "velocity": 100,
      "chip": "ym2612"
    },
    {
      "channel": 1,
      "note": 66,
      "start": 27.6262,
      "duration": 0.0178,
      "velocity": 124,
      "chip": "ym2612"
    },
    {
      "channel": 0,
      "note": 45,
      "start": 27.6279,
      "duration": 0.0178,
      "velocity": 115,
      "chip": "ym2612"
    },
    {
      "channel": 4,
      "note": 81,
      "start": 27.6291,
      "duration": 0.0178,
      "velocity": 97,
      "chip": "ym2612"
    },
    {
      "channel": 3,
      "note": 84,
      "start": 27.6303,
      "duration": 0.0178,
      "velocity": 97,
      "chip": "ym2612"
    },
    {
      "channel": 2,
      "note": 60,
      "start": 27.6314,
      "duration": 0.0178,
      "velocity": 100,
      "chip": "ym2612"
    },
    {
      "channel": 1,
      "note": 65,
      "start": 27.6439,
      "duration": 0.0166,
      "velocity": 124,
      "chip": "ym2612"
    },
    {
      "channel": 0,
      "note": 46,
      "start": 27.6457,
      "duration": 0.0167,
      "velocity": 115,
      "chip": "ym2612"
    },
    {
      "channel": 4,
      "note": 81,
      "start": 27.6469,
      "duration": 0.0166,
      "velocity": 97,
      "chip": "ym2612"
    },
    {
      "channel": 3,
      "note": 84,
      "start": 27.648,
      "duration": 0.0167,
      "velocity": 97,
      "chip": "ym2612"
    },
    {
      "channel": 1,
      "note": 64,
      "start": 27.6605,
      "duration": 0.0163,
      "velocity": 124,
      "chip": "ym2612"
    },
    {
      "channel": 0,
      "note": 46,
      "start": 27.6623,
      "duration": 0.018,
      "velocity": 115,
      "chip": "ym2612"
    },
    {
      "channel": 4,
      "note": 81,
      "start": 27.6635,
      "duration": 0.0181,
      "velocity": 97,
      "chip": "ym2612"
    },
    {
      "channel": 3,
      "note": 84,
      "start": 27.6647,
      "duration": 0.0181,
      "velocity": 97,
      "chip": "ym2612"
    },
    {
      "channel": 1,
      "note": 62,
      "start": 27.6769,
      "duration": 0.014,
      "velocity": 124,
      "chip": "ym2612"
    },
    {
      "channel": 0,
      "note": 36,
      "start": 27.6804,
      "duration": 0.0124,
      "velocity": 115,
      "chip": "ym2612"
    },
    {
      "channel": 4,
      "note": 81,
      "start": 27.6816,
      "duration": 0.0123,
      "velocity": 97,
      "chip": "ym2612"
    },
    {
      "channel": 3,
      "note": 84,
      "start": 27.6828,
      "duration": 0.0123,
      "velocity": 97,
      "chip": "ym2612"
    },
    {
      "channel": 2,
      "note": 56,
      "start": 27.6842,
      "duration": 0.012,
      "velocity": 100,
      "chip": "ym2612"
    },
    {
      "channel": 1,
      "note": 61,
      "start": 27.6909,
      "duration": 0.0186,
      "velocity": 124,
      "chip": "ym2612"
    },
    {
      "channel": 0,
      "note": 36,
      "start": 27.6927,
      "duration": 0.0184,
      "velocity": 115,
      "chip": "ym2612"
    },
    {
      "channel": 4,
      "note": 81,
      "start": 27.6939,
      "duration": 0.0185,
      "velocity": 97,
      "chip": "ym2612"
    },
    {
      "channel": 3,
      "note": 84,
      "start": 27.6951,
      "duration": 0.0184,
      "velocity": 97,
      "chip": "ym2612"
    },
    {
      "channel": 2,
      "note": 56,
      "start": 27.6962,
      "duration": 0.0185,
      "velocity": 100,
      "chip": "ym2612"
    },
    {
      "channel": 1,
      "note": 60,
      "start": 27.7095,
      "duration": 0.0161,
      "velocity": 124,
      "chip": "ym2612"
    },
    {
      "channel": 0,
      "note": 37,
      "start": 27.7112,
      "duration": 0.0161,
      "velocity": 115,
      "chip": "ym2612"
    },
    {
      "channel": 4,
      "note": 81,
      "start": 27.7124,
      "duration": 0.0161,
      "velocity": 97,
      "chip": "ym2612"
    },
    {
      "channel": 3,
      "note": 84,
      "start": 27.7135,
      "duration": 0.0161,
      "velocity": 97,
      "chip": "ym2612"
    },
    {
      "channel": 2,
      "note": 56,
      "start": 27.7147,
      "duration": 0.0161,
      "velocity": 100,
      "chip": "ym2612"
    },
    {
      "channel": 1,
      "note": 59,
      "start": 27.7256,
      "duration": 0.0134,
      "velocity": 124,
      "chip": "ym2612"
    },
    {
      "channel": 0,
      "note": 37,
      "start": 27.7273,
      "duration": 0.0157,
      "velocity": 115,
      "chip": "ym2612"
    },
    {
      "channel": 4,
      "note": 81,
      "start": 27.7285,
      "duration": 0.0157,
      "velocity": 97,
      "chip": "ym2612"
    },
    {
      "channel": 3,
      "note": 84,
      "start": 27.7296,
      "duration": 0.0157,
      "velocity": 97,
      "chip": "ym2612"
    },
    {
      "channel": 2,
      "note": 56,
      "start": 27.7308,
      "duration": 0.0157,
      "velocity": 100,
      "chip": "ym2612"
    },
    {
      "channel": 1,
      "note": 57,
      "start": 27.7389,
      "duration": 0.0161,
      "velocity": 124,
      "chip": "ym2612"
    },
    {
      "channel": 0,
      "note": 38,
      "start": 27.743,
      "duration": 0.0141,
      "velocity": 115,
      "chip": "ym2612"
    },
    {
      "channel": 4,
      "note": 81,
      "start": 27.7442,
      "duration": 0.0141,
      "velocity": 97,
      "chip": "ym2612"
    },
    {
      "channel": 3,
      "note": 84,
      "start": 27.7454,
      "duration": 0.0141,
      "velocity": 97,
      "chip": "ym2612"
    },
    {
      "channel": 2,
      "note": 56,
      "start": 27.7465,
      "duration": 0.0141,
      "velocity": 100,
      "chip": "ym2612"
    },
    {
      "channel": 1,
      "note": 56,
      "start": 27.755,
      "duration": 0.0161,
      "velocity": 124,
      "chip": "ym2612"
    },
    {
      "channel": 0,
      "note": 38,
      "start": 27.7571,
      "duration": 0.0185,
      "velocity": 115,
      "chip": "ym2612"
    },
    {
      "channel": 4,
      "note": 81,
      "start": 27.7583,
      "duration": 0.0185,
      "velocity": 97,
      "chip": "ym2612"
    },
    {
      "channel": 3,
      "note": 84,
      "start": 27.7594,
      "duration": 0.0185,
      "velocity": 97,
      "chip": "ym2612"
    },
    {
      "channel": 2,
      "note": 56,
      "start": 27.7605,
      "duration": 0.0185,
      "velocity": 100,
      "chip": "ym2612"
    },
    {
      "channel": 1,
      "note": 55,
      "start": 27.7711,
      "duration": 0.0161,
      "velocity": 124,
      "chip": "ym2612"
    },
    {
      "channel": 0,
      "note": 39,
      "start": 27.7756,
      "duration": 0.0134,
      "velocity": 115,
      "chip": "ym2612"
    },
    {
      "channel": 4,
      "note": 81,
      "start": 27.7768,
      "duration": 0.0161,
      "velocity": 97,
      "chip": "ym2612"
    },
    {
      "channel": 3,
      "note": 84,
      "start": 27.7779,
      "duration": 0.0162,
      "velocity": 97,
      "chip": "ym2612"
    },
    {
      "channel": 2,
      "note": 56,
      "start": 27.7791,
      "duration": 0.0161,
      "velocity": 100,
      "chip": "ym2612"
    },
    {
      "channel": 1,
      "note": 53,
      "start": 27.7872,
      "duration": 0.0161,
      "velocity": 124,
      "chip": "ym2612"
    },
    {
      "channel": 0,
      "note": 39,
      "start": 27.7889,
      "duration": 0.0161,
      "velocity": 115,
      "chip": "ym2612"
    },
    {
      "channel": 4,
      "note": 81,
      "start": 27.7929,
      "duration": 0.0158,
      "velocity": 97,
      "chip": "ym2612"
    },
    {
      "channel": 3,
      "note": 84,
      "start": 27.7941,
      "duration": 0.0157,
      "velocity": 97,
      "chip": "ym2612"
    },
    {
      "channel": 2,
      "note": 56,
      "start": 27.7951,
      "duration": 0.0158,
      "velocity": 100,
      "chip": "ym2612"
    },
    {
      "channel": 1,
      "note": 52,
      "start": 27.8033,
      "duration": 0.0161,
      "velocity": 124,
      "chip": "ym2612"
    },
    {
      "channel": 0,
      "note": 40,
      "start": 27.805,
      "duration": 0.0161,
      "velocity": 115,
      "chip": "ym2612"
    },
    {
      "channel": 4,
      "note": 81,
      "start": 27.8086,
      "duration": 0.0137,
      "velocity": 97,
      "chip": "ym2612"
    },
    {
      "channel": 3,
      "note": 84,
      "start": 27.8098,
      "duration": 0.014,
      "velocity": 97,
      "chip": "ym2612"
    },
    {
      "channel": 2,
      "note": 56,
      "start": 27.8109,
      "duration": 0.014,
      "velocity": 100,
      "chip": "ym2612"
    },
    {
      "channel": 1,
      "note": 51,
      "start": 27.8194,
      "duration": 0.0153,
      "velocity": 1,
      "chip": "ym2612"
    },
    {
      "channel": 0,
      "note": 40,
      "start": 27.8211,
      "duration": 0.0153,
      "velocity": 115,
      "chip": "ym2612"
    },
    {
      "channel": 4,
      "note": 81,
      "start": 27.8223,
      "duration": 0.0153,
      "velocity": 97,
      "chip": "ym2612"
    },
    {
      "channel": 3,
      "note": 84,
      "start": 27.8238,
      "duration": 0.015,
      "velocity": 97,
      "chip": "ym2612"
    },
    {
      "channel": 2,
      "note": 56,
      "start": 27.8249,
      "duration": 0.0178,
      "velocity": 100,
      "chip": "ym2612"
    },
    {
      "channel": 0,
      "note": 40,
      "start": 27.8364,
      "duration": 0.0153,
      "velocity": 115,
      "chip": "ym2612"
    },
    {
      "channel": 4,
      "note": 81,
      "start": 27.8376,
      "duration": 0.0152,
      "velocity": 97,
      "chip": "ym2612"
    },
    {
      "channel": 3,
      "note": 84,
      "start": 27.8388,
      "duration": 0.0153,
      "velocity": 97,
      "chip": "ym2612"
    },
    {
      "channel": 0,
      "note": 41,
      "start": 27.8517,
      "duration": 0.0178,
      "velocity": 115,
      "chip": "ym2612"
    },
    {
      "channel": 4,
      "note": 81,
      "start": 27.8529,
      "duration": 0.0181,
      "velocity": 97,
      "chip": "ym2612"
    },
    {
      "channel": 3,
      "note": 84,
      "start": 27.8541,
      "duration": 0.0183,
      "velocity": 97,
      "chip": "ym2612"
    },
    {
      "channel": 0,
      "note": 36,
      "start": 27.8696,
      "duration": 0.0144,
      "velocity": 115,
      "chip": "ym2612"
    },
    {
      "channel": 4,
      "note": 77,
      "start": 27.871,
      "duration": 0.0141,
      "velocity": 97,
      "chip": "ym2612"
    },
    {
      "channel": 3,
      "note": 80,
      "start": 27.8724,
      "duration": 0.0139,
      "velocity": 97,
      "chip": "ym2612"
    },
    {
      "channel": 2,
      "note": 49,
      "start": 27.8763,
      "duration": 0.0113,
      "velocity": 100,
      "chip": "ym2612"
    },
    {
      "channel": 1,
      "note": 37,
      "start": 27.8777,
      "duration": 0.0111,
      "velocity": 100,
      "chip": "ym2612"
    },
    {
      "channel": 0,
      "note": 36,
      "start": 27.884,
      "duration": 0.016,
      "velocity": 115,
      "chip": "ym2612"
    },
    {
      "channel": 4,
      "note": 77,
      "start": 27.8852,
      "duration": 0.016,
      "velocity": 97,
      "chip": "ym2612"
    },
    {
      "channel": 3,
      "note": 80,
      "start": 27.8864,
      "duration": 0.016,
      "velocity": 97,
      "chip": "ym2612"
    },
    {
      "channel": 2,
      "note": 49,
      "start": 27.8876,
      "duration": 0.0159,
      "velocity": 100,
      "chip": "ym2612"
    },
    {
      "channel": 1,
      "note": 37,
      "start": 27.8888,
      "duration": 0.0158,
      "velocity": 100,
      "chip": "ym2612"
    },
    {
      "channel": 0,
      "note": 37,
      "start": 27.9,
      "duration": 0.0161,
      "velocity": 115,
      "chip": "ym2612"
    },
    {
      "channel": 4,
      "note": 77,
      "start": 27.9012,
      "duration": 0.0161,
      "velocity": 97,
      "chip": "ym2612"
    },
    {
      "channel": 3,
      "note": 80,
      "start": 27.9023,
      "duration": 0.0161,
      "velocity": 97,
      "chip": "ym2612"
    },
    {
      "channel": 2,
      "note": 49,
      "start": 27.9034,
      "duration": 0.0161,
      "velocity": 100,
      "chip": "ym2612"
    },
    {
      "channel": 1,
      "note": 37,
      "start": 27.9046,
      "duration": 0.0161,
      "velocity": 100,
      "chip": "ym2612"
    },
    {
      "channel": 0,
      "note": 37,
      "start": 27.9161,
      "duration": 0.0161,
      "velocity": 115,
      "chip": "ym2612"
    },
    {
      "channel": 4,
      "note": 77,
      "start": 27.9173,
      "duration": 0.0161,
      "velocity": 97,
      "chip": "ym2612"
    },
    {
      "channel": 3,
      "note": 80,
      "start": 27.9184,
      "duration": 0.0161,
      "velocity": 97,
      "chip": "ym2612"
    },
    {
      "channel": 2,
      "note": 49,
      "start": 27.9195,
      "duration": 0.0161,
      "velocity": 100,
      "chip": "ym2612"
    },
    {
      "channel": 1,
      "note": 37,
      "start": 27.9207,
      "duration": 0.0161,
      "velocity": 100,
      "chip": "ym2612"
    },
    {
      "channel": 0,
      "note": 38,
      "start": 27.9322,
      "duration": 0.0161,
      "velocity": 115,
      "chip": "ym2612"
    },
    {
      "channel": 4,
      "note": 77,
      "start": 27.9334,
      "duration": 0.0161,
      "velocity": 97,
      "chip": "ym2612"
    },
    {
      "channel": 3,
      "note": 80,
      "start": 27.9345,
      "duration": 0.0161,
      "velocity": 97,
      "chip": "ym2612"
    },
    {
      "channel": 2,
      "note": 49,
      "start": 27.9357,
      "duration": 0.0161,
      "velocity": 100,
      "chip": "ym2612"
    },
    {
      "channel": 1,
      "note": 37,
      "start": 27.9368,
      "duration": 0.0161,
      "velocity": 100,
      "chip": "ym2612"
    },
    {
      "channel": 0,
      "note": 38,
      "start": 27.9483,
      "duration": 0.0161,
      "velocity": 115,
      "chip": "ym2612"
    },
    {
      "channel": 4,
      "note": 77,
      "start": 27.9495,
      "duration": 0.0161,
      "velocity": 97,
      "chip": "ym2612"
    },
    {
      "channel": 3,
      "note": 80,
      "start": 27.9506,
      "duration": 0.0161,
      "velocity": 97,
      "chip": "ym2612"
    },
    {
      "channel": 2,
      "note": 49,
      "start": 27.9518,
      "duration": 0.0161,
      "velocity": 100,
      "chip": "ym2612"
    },
    {
      "channel": 1,
      "note": 37,
      "start": 27.9529,
      "duration": 0.0161,
      "velocity": 100,
      "chip": "ym2612"
    },
    {
      "channel": 0,
      "note": 39,
      "start": 27.9644,
      "duration": 0.0161,
      "velocity": 115,
      "chip": "ym2612"
    },
    {
      "channel": 4,
      "note": 77,
      "start": 27.9656,
      "duration": 0.0161,
      "velocity": 97,
      "chip": "ym2612"
    },
    {
      "channel": 3,
      "note": 80,
      "start": 27.9667,
      "duration": 0.0161,
      "velocity": 97,
      "chip": "ym2612"
    },
    {
      "channel": 2,
      "note": 49,
      "start": 27.9679,
      "duration": 0.0161,
      "velocity": 100,
      "chip": "ym2612"
    },
    {
      "channel": 1,
      "note": 37,
      "start": 27.969,
      "duration": 0.0161,
      "velocity": 100,
      "chip": "ym2612"
    },
    {
      "channel": 0,
      "note": 39,
      "start": 27.9805,
      "duration": 0.0161,
      "velocity": 115,
      "chip": "ym2612"
    },
    {
      "channel": 4,
      "note": 77,
      "start": 27.9817,
      "duration": 0.0161,
      "velocity": 97,
      "chip": "ym2612"
    },
    {
      "channel": 3,
      "note": 80,
      "start": 27.9828,
      "duration": 0.0162,
      "velocity": 97,
      "chip": "ym2612"
    },
    {
      "channel": 2,
      "note": 49,
      "start": 27.984,
      "duration": 0.0161,
      "velocity": 100,
      "chip": "ym2612"
    },
    {
      "channel": 1,
      "note": 37,
      "start": 27.9851,
      "duration": 0.0161,
      "velocity": 100,
      "chip": "ym2612"
    },
    {
      "channel": 0,
      "note": 40,
      "start": 27.9966,
      "duration": 0.0161,
      "velocity": 115,
      "chip": "ym2612"
    },
    {
      "channel": 4,
      "note": 77,
      "start": 27.9978,
      "duration": 0.0162,
      "velocity": 97,
      "chip": "ym2612"
    },
    {
      "channel": 3,
      "note": 80,
      "start": 27.999,
      "duration": 0.0161,
      "velocity": 97,
      "chip": "ym2612"
    },
    {
      "channel": 2,
      "note": 49,
      "start": 28.0,
      "duration": 0.0161,
      "velocity": 100,
      "chip": "ym2612"
    },
    {
      "channel": 1,
      "note": 37,
      "start": 28.0012,
      "duration": 0.0161,
      "velocity": 100,
      "chip": "ym2612"
    },
    {
      "channel": 0,
      "note": 40,
      "start": 28.0127,
      "duration": 0.0161,
      "velocity": 115,
      "chip": "ym2612"
    },
    {
      "channel": 4,
      "note": 77,
      "start": 28.0139,
      "duration": 0.0161,
      "velocity": 97,
      "chip": "ym2612"
    },
    {
      "channel": 3,
      "note": 80,
      "start": 28.0151,
      "duration": 0.0161,
      "velocity": 97,
      "chip": "ym2612"
    },
    {
      "channel": 2,
      "note": 49,
      "start": 28.0161,
      "duration": 0.0162,
      "velocity": 100,
      "chip": "ym2612"
    },
    {
      "channel": 1,
      "note": 37,
      "start": 28.0173,
      "duration": 0.0161,
      "velocity": 100,
      "chip": "ym2612"
    },
    {
      "channel": 0,
      "note": 40,
      "start": 28.0288,
      "duration": 0.0161,
      "velocity": 115,
      "chip": "ym2612"
    },
    {
      "channel": 4,
      "note": 77,
      "start": 28.03,
      "duration": 0.0161,
      "velocity": 97,
      "chip": "ym2612"
    },
    {
      "channel": 3,
      "note": 80,
      "start": 28.0312,
      "duration": 0.0161,
      "velocity": 97,
      "chip": "ym2612"
    },
    {
      "channel": 0,
      "note": 41,
      "start": 28.0449,
      "duration": 0.0161,
      "velocity": 115,
      "chip": "ym2612"
    },
    {
      "channel": 4,
      "note": 77,
      "start": 28.0461,
      "duration": 0.0161,
      "velocity": 97,
      "chip": "ym2612"
    },
    {
      "channel": 3,
      "note": 80,
      "start": 28.0473,
      "duration": 0.0161,
      "velocity": 97,
      "chip": "ym2612"
    },
    {
      "channel": 0,
      "note": 41,
      "start": 28.061,
      "duration": 0.0161,
      "velocity": 115,
      "chip": "ym2612"
    },
    {
      "channel": 4,
      "note": 77,
      "start": 28.0622,
      "duration": 0.0161,
      "velocity": 97,
      "chip": "ym2612"
    },
    {
      "channel": 3,
      "note": 80,
      "start": 28.0634,
      "duration": 0.0161,
      "velocity": 97,
      "chip": "ym2612"
    },
    {
      "channel": 2,
      "note": 56,
      "start": 28.0647,
      "duration": 0.0159,
      "velocity": 100,
      "chip": "ym2612"
    },
    {
      "channel": 1,
      "note": 44,
      "start": 28.0661,
      "duration": 0.0157,
      "velocity": 100,
      "chip": "ym2612"
    },
    {
      "channel": 0,
      "note": 42,
      "start": 28.0771,
      "duration": 0.016,
      "velocity": 115,
      "chip": "ym2612"
    },
    {
      "channel": 4,
      "note": 77,
      "start": 28.0783,
      "duration": 0.0161,
      "velocity": 97,
      "chip": "ym2612"
    },
    {
      "channel": 3,
      "note": 80,
      "start": 28.0795,
      "duration": 0.016,
      "velocity": 97,
      "chip": "ym2612"
    },
    {
      "channel": 2,
      "note": 56,
      "start": 28.0807,
      "duration": 0.016,
      "velocity": 100,
      "chip": "ym2612"
    },
    {
      "channel": 1,
      "note": 44,
      "start": 28.0819,
      "duration": 0.016,
      "velocity": 100,
      "chip": "ym2612"
    },
    {
      "channel": 0,
      "note": 42,
      "start": 28.0932,
      "duration": 0.0175,
      "velocity": 115,
      "chip": "ym2612"
    },
    {
      "channel": 4,
      "note": 77,
      "start": 28.0944,
      "duration": 0.0174,
      "velocity": 97,
      "chip": "ym2612"
    },
    {
      "channel": 3,
      "note": 80,
      "start": 28.0955,
      "duration": 0.0175,
      "velocity": 97,
      "chip": "ym2612"
    },
    {
      "channel": 2,
      "note": 56,
      "start": 28.0967,
      "duration": 0.0175,
      "velocity": 100,
      "chip": "ym2612"
    },
    {
      "channel": 1,
      "note": 44,
      "start": 28.0978,
      "duration": 0.0174,
      "velocity": 100,
      "chip": "ym2612"
    },
    {
      "channel": 0,
      "note": 43,
      "start": 28.1107,
      "duration": 0.0167,
      "velocity": 115,
      "chip": "ym2612"
    },
    {
      "channel": 4,
      "note": 77,
      "start": 28.1118,
      "duration": 0.0167,
      "velocity": 97,
      "chip": "ym2612"
    },
    {
      "channel": 3,
      "note": 80,
      "start": 28.113,
      "duration": 0.0167,
      "velocity": 97,
      "chip": "ym2612"
    },
    {
      "channel": 2,
      "note": 56,
      "start": 28.1142,
      "duration": 0.0167,
      "velocity": 100,
      "chip": "ym2612"
    },
    {
      "channel": 1,
      "note": 44,
      "start": 28.1153,
      "duration": 0.0167,
      "velocity": 100,
      "chip": "ym2612"
    },
    {
      "channel": 0,
      "note": 43,
      "start": 28.1273,
      "duration": 0.0163,
      "velocity": 115,
      "chip": "ym2612"
    },
    {
      "channel": 4,
      "note": 77,
      "start": 28.1285,
      "duration": 0.0163,
      "velocity": 97,
      "chip": "ym2612"
    },
    {
      "channel": 3,
      "note": 80,
      "start": 28.1297,
      "duration": 0.0163,
      "velocity": 97,
      "chip": "ym2612"
    },
    {
      "channel": 2,
      "note": 56,
      "start": 28.1308,
      "duration": 0.0163,
      "velocity": 100,
      "chip": "ym2612"
    },
    {
      "channel": 1,
      "note": 44,
      "start": 28.132,
      "duration": 0.0163,
      "velocity": 100,
      "chip": "ym2612"
    },
    {
      "channel": 0,
      "note": 44,
      "start": 28.1436,
      "duration": 0.0143,
      "velocity": 115,
      "chip": "ym2612"
    },
    {
      "channel": 4,
      "note": 77,
      "start": 28.1448,
      "duration": 0.0143,
      "velocity": 97,
      "chip": "ym2612"
    },
    {
      "channel": 3,
      "note": 80,
      "start": 28.146,
      "duration": 0.0143,
      "velocity": 97,
      "chip": "ym2612"
    },
    {
      "channel": 2,
      "note": 56,
      "start": 28.1471,
      "duration": 0.0143,
      "velocity": 100,
      "chip": "ym2612"
    },
    {
      "channel": 1,
      "note": 44,
      "start": 28.1483,
      "duration": 0.0143,
      "velocity": 100,
      "chip": "ym2612"
    },
    {
      "channel": 0,
      "note": 44,
      "start": 28.1579,
      "duration": 0.0185,
      "velocity": 115,
      "chip": "ym2612"
    },
    {
      "channel": 4,
      "note": 77,
      "start": 28.1591,
      "duration": 0.0185,
      "velocity": 97,
      "chip": "ym2612"
    },
    {
      "channel": 3,
      "note": 80,
      "start": 28.1603,
      "duration": 0.0185,
      "velocity": 97,
      "chip": "ym2612"
    },
    {
      "channel": 2,
      "note": 56,
      "start": 28.1614,
      "duration": 0.0185,
      "velocity": 100,
      "chip": "ym2612"
    },
    {
      "channel": 1,
      "note": 44,
      "start": 28.1626,
      "duration": 0.0185,
      "velocity": 100,
      "chip": "ym2612"
    },
    {
      "channel": 0,
      "note": 44,
      "start": 28.1765,
      "duration": 0.0161,
      "velocity": 115,
      "chip": "ym2612"
    },
    {
      "channel": 4,
      "note": 77,
      "start": 28.1777,
      "duration": 0.0161,
      "velocity": 97,
      "chip": "ym2612"
    },
    {
      "channel": 3,
      "note": 80,
      "start": 28.1788,
      "duration": 0.0162,
      "velocity": 97,
      "chip": "ym2612"
    },
    {
      "channel": 2,
      "note": 56,
      "start": 28.18,
      "duration": 0.0161,
      "velocity": 100,
      "chip": "ym2612"
    },
    {
      "channel": 1,
      "note": 44,
      "start": 28.1811,
      "duration": 0.0162,
      "velocity": 100,
      "chip": "ym2612"
    },
    {
      "channel": 0,
      "note": 45,
      "start": 28.1925,
      "duration": 0.0134,
      "velocity": 115,
      "chip": "ym2612"
    },
    {
      "channel": 4,
      "note": 77,
      "start": 28.1938,
      "duration": 0.0157,
      "velocity": 97,
      "chip": "ym2612"
    },
    {
      "channel": 3,
      "note": 80,
      "start": 28.195,
      "duration": 0.0157,
      "velocity": 97,
      "chip": "ym2612"
    },
    {
      "channel": 2,
      "note": 56,
      "start": 28.1961,
      "duration": 0.0157,
      "velocity": 100,
      "chip": "ym2612"
    },
    {
      "channel": 1,
      "note": 44,
      "start": 28.1973,
      "duration": 0.0156,
      "velocity": 100,
      "chip": "ym2612"
    },
    {
      "channel": 0,
      "note": 45,
      "start": 28.2059,
      "duration": 0.0161,
      "velocity": 115,
      "chip": "ym2612"
    },
    {
      "channel": 4,
      "note": 77,
      "start": 28.2095,
      "duration": 0.0141,
      "velocity": 97,
      "chip": "ym2612"
    },
    {
      "channel": 3,
      "note": 80,
      "start": 28.2107,
      "duration": 0.014,
      "velocity": 97,
      "chip": "ym2612"
    },
    {
      "channel": 2,
      "note": 56,
      "start": 28.2118,
      "duration": 0.014,
      "velocity": 100,
      "chip": "ym2612"
    },
    {
      "channel": 1,
      "note": 44,
      "start": 28.2129,
      "duration": 0.0141,
      "velocity": 100,
      "chip": "ym2612"
    },
    {
      "channel": 0,
      "note": 46,
      "start": 28.222,
      "duration": 0.0161,
      "velocity": 115,
      "chip": "ym2612"
    },
    {
      "channel": 4,
      "note": 77,
      "start": 28.2235,
      "duration": 0.0185,
      "velocity": 97,
      "chip": "ym2612"
    },
    {
      "channel": 3,
      "note": 80,
      "start": 28.2247,
      "duration": 0.0186,
      "velocity": 97,
      "chip": "ym2612"
    },
    {
      "channel": 0,
      "note": 46,
      "start": 28.2381,
      "duration": 0.0223,
      "velocity": 115,
      "chip": "ym2612"
    },
    {
      "channel": 4,
      "note": 77,
      "start": 28.242,
      "duration": 0.0196,
      "velocity": 97,
      "chip": "ym2612"
    },
    {
      "channel": 3,
      "note": 80,
      "start": 28.2432,
      "duration": 0.0195,
      "velocity": 97,
      "chip": "ym2612"
    },
    {
      "channel": 1,
      "note": 78,
      "start": 28.2586,
      "duration": 0.0116,
      "velocity": 124,
      "chip": "ym2612"
    },
    {
      "channel": 0,
      "note": 47,
      "start": 28.2604,
      "duration": 0.0116,
      "velocity": 115,
      "chip": "ym2612"
    },
    {
      "channel": 4,
      "note": 77,
      "start": 28.2616,
      "duration": 0.014,
      "velocity": 97,
      "chip": "ym2612"
    },
    {
      "channel": 3,
      "note": 80,
      "start": 28.2628,
      "duration": 0.014,
      "velocity": 97,
      "chip": "ym2612"
    },
    {
      "channel": 2,
      "note": 61,
      "start": 28.2642,
      "duration": 0.0138,
      "velocity": 100,
      "chip": "ym2612"
    },
    {
      "channel": 1,
      "note": 76,
      "start": 28.2703,
      "duration": 0.016,
      "velocity": 124,
      "chip": "ym2612"
    },
    {
      "channel": 0,
      "note": 47,
      "start": 28.272,
      "duration": 0.0161,
      "velocity": 115,
      "chip": "ym2612"
    },
    {
      "channel": 4,
      "note": 77,
      "start": 28.2756,
      "duration": 0.0137,
      "velocity": 97,
      "chip": "ym2612"
    },
    {
      "channel": 3,
      "note": 80,
      "start": 28.2768,
      "duration": 0.014,
      "velocity": 97,
      "chip": "ym2612"
    },
    {
      "channel": 2,
      "note": 61,
      "start": 28.278,
      "duration": 0.0139,
      "velocity": 100,
      "chip": "ym2612"
    },
    {
      "channel": 1,
      "note": 75,
      "start": 28.2863,
      "duration": 0.0161,
      "velocity": 124,
      "chip": "ym2612"
    },
    {
      "channel": 0,
      "note": 47,
      "start": 28.2881,
      "duration": 0.0161,
      "velocity": 115,
      "chip": "ym2612"
    },
    {
      "channel": 4,
      "note": 77,
      "start": 28.2894,
      "duration": 0.016,
      "velocity": 97,
      "chip": "ym2612"
    },
    {
      "channel": 3,
      "note": 80,
      "start": 28.2908,
      "duration": 0.0185,
      "velocity": 97,
      "chip": "ym2612"
    },
    {
      "channel": 2,
      "note": 61,
      "start": 28.2919,
      "duration": 0.0185,
      "velocity": 100,
      "chip": "ym2612"
    },
    {
      "channel": 1,
      "note": 74,
      "start": 28.3024,
      "duration": 0.0162,
      "velocity": 124,
      "chip": "ym2612"
    },
    {
      "channel": 0,
      "note": 48,
      "start": 28.3042,
      "duration": 0.0161,
      "velocity": 115,
      "chip": "ym2612"
    },
    {
      "channel": 4,
      "note": 77,
      "start": 28.3053,
      "duration": 0.0162,
      "velocity": 97,
      "chip": "ym2612"
    },
    {
      "channel": 3,
      "note": 80,
      "start": 28.3093,
      "duration": 0.0162,
      "velocity": 97,
      "chip": "ym2612"
    },
    {
      "channel": 2,
      "note": 61,
      "start": 28.3104,
      "duration": 0.0161,
      "velocity": 100,
      "chip": "ym2612"
    },
    {
      "channel": 1,
      "note": 72,
      "start": 28.3186,
      "duration": 0.0161,
      "velocity": 124,
      "chip": "ym2612"
    },
    {
      "channel": 0,
      "note": 48,
      "start": 28.3203,
      "duration": 0.0161,
      "velocity": 115,
      "chip": "ym2612"
    },
    {
      "channel": 4,
      "note": 77,
      "start": 28.3215,
      "duration": 0.0161,
      "velocity": 97,
      "chip": "ym2612"
    },
    {
      "channel": 3,
      "note": 80,
      "start": 28.3254,
      "duration": 0.0133,
      "velocity": 97,
      "chip": "ym2612"
    },
    {
      "channel": 2,
      "note": 61,
      "start": 28.3266,
      "duration": 0.0156,
      "velocity": 100,
      "chip": "ym2612"
    },
    {
      "channel": 1,
      "note": 71,
      "start": 28.3346,
      "duration": 0.0161,
      "velocity": 124,
      "chip": "ym2612"
    },
    {
      "channel": 0,
      "note": 49,
      "start": 28.3364,
      "duration": 0.0153,
      "velocity": 1,
      "chip": "ym2612"
    },
    {
      "channel": 4,
      "note": 77,
      "start": 28.3376,
      "duration": 0.0153,
      "velocity": 97,
      "chip": "ym2612"
    },
    {
      "channel": 3,
      "note": 80,
      "start": 28.3387,
      "duration": 0.0153,
      "velocity": 97,
      "chip": "ym2612"
    },
    {
      "channel": 2,
      "note": 61,
      "start": 28.3422,
      "duration": 0.013,
      "velocity": 100,
      "chip": "ym2612"
    },
    {
      "channel": 1,
      "note": 70,
      "start": 28.3507,
      "duration": 0.0161,
      "velocity": 124,
      "chip": "ym2612"
    },
    {
      "channel": 4,
      "note": 77,
      "start": 28.3529,
      "duration": 0.0153,
      "velocity": 97,
      "chip": "ym2612"
    },
    {
      "channel": 3,
      "note": 80,
      "start": 28.3541,
      "duration": 0.0152,
      "velocity": 97,
      "chip": "ym2612"
    },
    {
      "channel": 2,
      "note": 61,
      "start": 28.3552,
      "duration": 0.0152,
      "velocity": 100,
      "chip": "ym2612"
    },
    {
      "channel": 1,
      "note": 69,
      "start": 28.3668,
      "duration": 0.0161,
      "velocity": 124,
      "chip": "ym2612"
    },
    {
      "channel": 4,
      "note": 77,
      "start": 28.3681,
      "duration": 0.0161,
      "velocity": 97,
      "chip": "ym2612"
    },
    {
      "channel": 3,
      "note": 80,
      "start": 28.3693,
      "duration": 0.0161,
      "velocity": 97,
      "chip": "ym2612"
    },
    {
      "channel": 2,
      "note": 61,
      "start": 28.3704,
      "duration": 0.0161,
      "velocity": 100,
      "chip": "ym2612"
    },
    {
      "channel": 1,
      "note": 68,
      "start": 28.3829,
      "duration": 0.0161,
      "velocity": 124,
      "chip": "ym2612"
    },
    {
      "channel": 4,
      "note": 77,
      "start": 28.3842,
      "duration": 0.0161,
      "velocity": 97,
      "chip": "ym2612"
    },
    {
      "channel": 3,
      "note": 80,
      "start": 28.3854,
      "duration": 0.0162,
      "velocity": 97,
      "chip": "ym2612"
    },
    {
      "channel": 2,
      "note": 61,
      "start": 28.3865,
      "duration": 0.0161,
      "velocity": 100,
      "chip": "ym2612"
    },
    {
      "channel": 1,
      "note": 66,
      "start": 28.399,
      "duration": 0.0161,
      "velocity": 124,
      "chip": "ym2612"
    },
    {
      "channel": 4,
      "note": 77,
      "start": 28.4003,
      "duration": 0.0161,
      "velocity": 97,
      "chip": "ym2612"
    },
    {
      "channel": 3,
      "note": 80,
      "start": 28.4015,
      "duration": 0.0161,
      "velocity": 97,
      "chip": "ym2612"
    },
    {
      "channel": 2,
      "note": 61,
      "start": 28.4026,
      "duration": 0.0161,
      "velocity": 100,
      "chip": "ym2612"
    },
    {
      "channel": 1,
      "note": 65,
      "start": 28.4151,
      "duration": 0.0161,
      "velocity": 124,
      "chip": "ym2612"
    },
    {
      "channel": 4,
      "note": 77,
      "start": 28.4165,
      "duration": 0.0161,
      "velocity": 97,
      "chip": "ym2612"
    },
    {
      "channel": 3,
      "note": 80,
      "start": 28.4176,
      "duration": 0.0161,
      "velocity": 97,
      "chip": "ym2612"
    },
    {
      "channel": 1,
      "note": 64,
      "start": 28.4312,
      "duration": 0.0162,
      "velocity": 124,
      "chip": "ym2612"
    },
    {
      "channel": 4,
      "note": 77,
      "start": 28.4326,
      "duration": 0.0195,
      "velocity": 97,
      "chip": "ym2612"
    },
    {
      "channel": 3,
      "note": 80,
      "start": 28.4337,
      "duration": 0.0196,
      "velocity": 97,
      "chip": "ym2612"
    },
    {
      "channel": 1,
      "note": 62,
      "start": 28.4474,
      "duration": 0.0161,
      "velocity": 124,
      "chip": "ym2612"
    },
    {
      "channel": 0,
      "note": 36,
      "start": 28.4509,
      "duration": 0.0144,
      "velocity": 115,
      "chip": "ym2612"
    },
    {
      "channel": 4,
      "note": 77,
      "start": 28.4521,
      "duration": 0.0144,
      "velocity": 97,
      "chip": "ym2612"
    },
    {
      "channel": 3,
      "note": 80,
      "start": 28.4533,
      "duration": 0.0143,
      "velocity": 97,
      "chip": "ym2612"
    },
    {
      "channel": 2,
      "note": 59,
      "start": 28.4546,
      "duration": 0.0142,
      "velocity": 100,
      "chip": "ym2612"
    },
    {
      "channel": 1,
      "note": 61,
      "start": 28.4635,
      "duration": 0.0161,
      "velocity": 124,
      "chip": "ym2612"
    },
    {
      "channel": 0,
      "note": 36,
      "start": 28.4653,
      "duration": 0.016,
      "velocity": 115,
      "chip": "ym2612"
    },
    {
      "channel": 4,
      "note": 77,
      "start": 28.4665,
      "duration": 0.016,
      "velocity": 97,
      "chip": "ym2612"
    },
    {
      "channel": 3,
      "note": 80,
      "start": 28.4676,
      "duration": 0.016,
      "velocity": 97,
      "chip": "ym2612"
    },
    {
      "channel": 2,
      "note": 59,
      "start": 28.4688,
      "duration": 0.016,
      "velocity": 100,
      "chip": "ym2612"
    },
    {
      "channel": 1,
      "note": 60,
      "start": 28.4796,
      "duration": 0.0161,
      "velocity": 124,
      "chip": "ym2612"
    },
    {
      "channel": 0,
      "note": 37,
      "start": 28.4813,
      "duration": 0.0161,
      "velocity": 115,
      "chip": "ym2612"
    },
    {
      "channel": 4,
      "note": 77,
      "start": 28.4825,
      "duration": 0.0161,
      "velocity": 97,
      "chip": "ym2612"
    },
    {
      "channel": 3,
      "note": 80,
      "start": 28.4837,
      "duration": 0.0161,
      "velocity": 97,
      "chip": "ym2612"
    },
    {
      "channel": 2,
      "note": 59,
      "start": 28.4848,
      "duration": 0.0161,
      "velocity": 100,
      "chip": "ym2612"
    },
    {
      "channel": 1,
      "note": 59,
      "start": 28.4957,
      "duration": 0.0161,
      "velocity": 124,
      "chip": "ym2612"
    },
    {
      "channel": 0,
      "note": 37,
      "start": 28.4974,
      "duration": 0.0161,
      "velocity": 115,
      "chip": "ym2612"
    },
    {
      "channel": 4,
      "note": 77,
      "start": 28.4986,
      "duration": 0.0161,
      "velocity": 97,
      "chip": "ym2612"
    },
    {
      "channel": 3,
      "note": 80,
      "start": 28.4997,
      "duration": 0.0161,
      "velocity": 97,
      "chip": "ym2612"
    },
    {
      "channel": 2,
      "note": 59,
      "start": 28.5009,
      "duration": 0.0161,
      "velocity": 100,
      "chip": "ym2612"
    },
    {
      "channel": 1,
      "note": 57,
      "start": 28.5118,
      "duration": 0.0161,
      "velocity": 124,
      "chip": "ym2612"
    },
    {
      "channel": 0,
      "note": 38,
      "start": 28.5135,
      "duration": 0.0161,
      "velocity": 115,
      "chip": "ym2612"
    },
    {
      "channel": 4,
      "note": 77,
      "start": 28.5147,
      "duration": 0.0161,
      "velocity": 97,
      "chip": "ym2612"
    },
    {
      "channel": 3,
      "note": 80,
      "start": 28.5158,
      "duration": 0.0161,
      "velocity": 97,
      "chip": "ym2612"
    },
    {
      "channel": 2,
      "note": 59,
      "start": 28.517,
      "duration": 0.0161,
      "velocity": 100,
      "chip": "ym2612"
    },
    {
      "channel": 1,
      "note": 56,
      "start": 28.5278,
      "duration": 0.0161,
      "velocity": 124,
      "chip": "ym2612"
    },
    {
      "channel": 0,
      "note": 38,
      "start": 28.5296,
      "duration": 0.0161,
      "velocity": 115,
      "chip": "ym2612"
    },
    {
      "channel": 4,
      "note": 77,
      "start": 28.5308,
      "duration": 0.0161,
      "velocity": 97,
      "chip": "ym2612"
    },
    {
      "channel": 3,
      "note": 80,
      "start": 28.5319,
      "duration": 0.0161,
      "velocity": 97,
      "chip": "ym2612"
    },
    {
      "channel": 2,
      "note": 59,
      "start": 28.5331,
      "duration": 0.0161,
      "velocity": 100,
      "chip": "ym2612"
    },
    {
      "channel": 1,
      "note": 55,
      "start": 28.5439,
      "duration": 0.0161,
      "velocity": 124,
      "chip": "ym2612"
    },
    {
      "channel": 0,
      "note": 39,
      "start": 28.5457,
      "duration": 0.0161,
      "velocity": 115,
      "chip": "ym2612"
    },
    {
      "channel": 4,
      "note": 77,
      "start": 28.5469,
      "duration": 0.0161,
      "velocity": 97,
      "chip": "ym2612"
    },
    {
      "channel": 3,
      "note": 80,
      "start": 28.548,
      "duration": 0.0161,
      "velocity": 97,
      "chip": "ym2612"
    },
    {
      "channel": 2,
      "note": 59,
      "start": 28.5492,
      "duration": 0.0161,
      "velocity": 100,
      "chip": "ym2612"
    },
    {
      "channel": 1,
      "note": 53,
      "start": 28.56,
      "duration": 0.0172,
      "velocity": 124,
      "chip": "ym2612"
    },
    {
      "channel": 0,
      "note": 39,
      "start": 28.5618,
      "duration": 0.0172,
      "velocity": 115,
      "chip": "ym2612"
    },
    {
      "channel": 4,
      "note": 77,
      "start": 28.563,
      "duration": 0.0172,
      "velocity": 97,
      "chip": "ym2612"
    },
    {
      "channel": 3,
      "note": 80,
      "start": 28.5641,
      "duration": 0.0173,
      "velocity": 97,
      "chip": "ym2612"
    },
    {
      "channel": 2,
      "note": 59,
      "start": 28.5653,
      "duration": 0.0172,
      "velocity": 100,
      "chip": "ym2612"
    },
    {
      "channel": 1,
      "note": 52,
      "start": 28.5772,
      "duration": 0.0167,
      "velocity": 124,
      "chip": "ym2612"
    },
    {
      "channel": 0,
      "note": 40,
      "start": 28.5789,
      "duration": 0.0167,
      "velocity": 115,
      "chip": "ym2612"
    },
    {
      "channel": 4,
      "note": 77,
      "start": 28.5802,
      "duration": 0.0166,
      "velocity": 97,
      "chip": "ym2612"
    },
    {
      "channel": 3,
      "note": 80,
      "start": 28.5814,
      "duration": 0.0167,
      "velocity": 97,
      "chip": "ym2612"
    },
    {
      "channel": 2,
      "note": 59,
      "start": 28.5825,
      "duration": 0.0166,
      "velocity": 100,
      "chip": "ym2612"
    },
    {
      "channel": 1,
      "note": 51,
      "start": 28.5939,
      "duration": 0.0155,
      "velocity": 1,
      "chip": "ym2612"
    },
    {
      "channel": 0,
      "note": 40,
      "start": 28.5956,
      "duration": 0.0155,
      "velocity": 115,
      "chip": "ym2612"
    },
    {
      "channel": 4,
      "note": 77,
      "start": 28.5968,
      "duration": 0.0155,
      "velocity": 97,
      "chip": "ym2612"
    },
    {
      "channel": 3,
      "note": 80,
      "start": 28.598,
      "duration": 0.0154,
      "velocity": 97,
      "chip": "ym2612"
    },
    {
      "channel": 2,
      "note": 59,
      "start": 28.5991,
      "duration": 0.0155,
      "velocity": 100,
      "chip": "ym2612"
    },
    {
      "channel": 0,
      "note": 40,
      "start": 28.6111,
      "duration": 0.0137,
      "velocity": 115,
      "chip": "ym2612"
    },
    {
      "channel": 4,
      "note": 77,
      "start": 28.6123,
      "duration": 0.0137,
      "velocity": 97,
      "chip": "ym2612"
    },
    {
      "channel": 3,
      "note": 80,
      "start": 28.6135,
      "duration": 0.0137,
      "velocity": 97,
      "chip": "ym2612"
    },
    {
      "channel": 0,
      "note": 41,
      "start": 28.6249,
      "duration": 0.0185,
      "velocity": 115,
      "chip": "ym2612"
    },
    {
      "channel": 4,
      "note": 77,
      "start": 28.6261,
      "duration": 0.0185,
      "velocity": 97,
      "chip": "ym2612"
    },
    {
      "channel": 3,
      "note": 80,
      "start": 28.6272,
      "duration": 0.0185,
      "velocity": 97,
      "chip": "ym2612"
    },
    {
      "channel": 0,
      "note": 41,
      "start": 28.6434,
      "duration": 0.0161,
      "velocity": 115,
      "chip": "ym2612"
    },
    {
      "channel": 4,
      "note": 77,
      "start": 28.6446,
      "duration": 0.0161,
      "velocity": 97,
      "chip": "ym2612"
    },
    {
      "channel": 3,
      "note": 80,
      "start": 28.6457,
      "duration": 0.0161,
      "velocity": 97,
      "chip": "ym2612"
    },
    {
      "channel": 0,
      "note": 42,
      "start": 28.6595,
      "duration": 0.0158,
      "velocity": 115,
      "chip": "ym2612"
    },
    {
      "channel": 4,
      "note": 77,
      "start": 28.6607,
      "duration": 0.0158,
      "velocity": 97,
      "chip": "ym2612"
    },
    {
      "channel": 3,
      "note": 80,
      "start": 28.6618,
      "duration": 0.0158,
      "velocity": 97,
      "chip": "ym2612"
    },
    {
      "channel": 0,
      "note": 42,
      "start": 28.6752,
      "duration": 0.0137,
      "velocity": 115,
      "chip": "ym2612"
    },
    {
      "channel": 4,
      "note": 77,
      "start": 28.6765,
      "duration": 0.014,
      "velocity": 97,
      "chip": "ym2612"
    },
    {
      "channel": 3,
      "note": 80,
      "start": 28.6776,
      "duration": 0.0141,
      "velocity": 97,
      "chip": "ym2612"
    },
    {
      "channel": 0,
      "note": 43,
      "start": 28.6889,
      "duration": 0.0161,
      "velocity": 115,
      "chip": "ym2612"
    },
    {
      "channel": 4,
      "note": 77,
      "start": 28.6905,
      "duration": 0.0186,
      "velocity": 97,
      "chip": "ym2612"
    },
    {
      "channel": 3,
      "note": 80,
      "start": 28.6917,
      "duration": 0.0185,
      "velocity": 97,
      "chip": "ym2612"
    },
    {
      "channel": 0,
      "note": 43,
      "start": 28.705,
      "duration": 0.0162,
      "velocity": 115,
      "chip": "ym2612"
    },
    {
      "channel": 4,
      "note": 77,
      "start": 28.709,
      "duration": 0.0133,
      "velocity": 97,
      "chip": "ym2612"
    },
    {
      "channel": 3,
      "note": 80,
      "start": 28.7102,
      "duration": 0.0161,
      "velocity": 97,
      "chip": "ym2612"
    },
    {
      "channel": 0,
      "note": 44,
      "start": 28.7212,
      "duration": 0.0161,
      "velocity": 115,
      "chip": "ym2612"
    },
    {
      "channel": 4,
      "note": 77,
      "start": 28.7223,
      "duration": 0.0161,
      "velocity": 97,
      "chip": "ym2612"
    },
    {
      "channel": 3,
      "note": 80,
      "start": 28.7263,
      "duration": 0.0157,
      "velocity": 97,
      "chip": "ym2612"
    },
    {
      "channel": 0,
      "note": 44,
      "start": 28.7373,
      "duration": 0.0161,
      "velocity": 115,
      "chip": "ym2612"
    },
    {
      "channel": 4,
      "note": 77,
      "start": 28.7384,
      "duration": 0.0162,
      "velocity": 97,
      "chip": "ym2612"
    },
    {
      "channel": 3,
      "note": 80,
      "start": 28.742,
      "duration": 0.0137,
      "velocity": 97,
      "chip": "ym2612"
    },
    {
      "channel": 0,
      "note": 44,
      "start": 28.7534,
      "duration": 0.0161,
      "velocity": 115,
      "chip": "ym2612"
    },
    {
      "channel": 4,
      "note": 77,
      "start": 28.7546,
      "duration": 0.0161,
      "velocity": 97,
      "chip": "ym2612"
    },
    {
      "channel": 3,
      "note": 80,
      "start": 28.7557,
      "duration": 0.0161,
      "velocity": 97,
      "chip": "ym2612"
    },
    {
      "channel": 0,
      "note": 45,
      "start": 28.7695,
      "duration": 0.0161,
      "velocity": 115,
      "chip": "ym2612"
    },
    {
      "channel": 4,
      "note": 77,
      "start": 28.7707,
      "duration": 0.0161,
      "velocity": 97,
      "chip": "ym2612"
    },
    {
      "channel": 3,
      "note": 80,
      "start": 28.7718,
      "duration": 0.0161,
      "velocity": 97,
      "chip": "ym2612"
    },
    {
      "channel": 0,
      "note": 45,
      "start": 28.7856,
      "duration": 0.0161,
      "velocity": 115,
      "chip": "ym2612"
    },
    {
      "channel": 4,
      "note": 77,
      "start": 28.7868,
      "duration": 0.0161,
      "velocity": 97,
      "chip": "ym2612"
    },
    {
      "channel": 3,
      "note": 80,
      "start": 28.7879,
      "duration": 0.0161,
      "velocity": 97,
      "chip": "ym2612"
    },
    {
      "channel": 0,
      "note": 46,
      "start": 28.8016,
      "duration": 0.0161,
      "velocity": 115,
      "chip": "ym2612"
    },
    {
      "channel": 4,
      "note": 77,
      "start": 28.8029,
      "duration": 0.0161,
      "velocity": 97,
      "chip": "ym2612"
    },
    {
      "channel": 3,
      "note": 80,
      "start": 28.804,
      "duration": 0.0161,
      "velocity": 97,
      "chip": "ym2612"
    },
    {
      "channel": 0,
      "note": 46,
      "start": 28.8177,
      "duration": 0.0179,
      "velocity": 115,
      "chip": "ym2612"
    },
    {
      "channel": 4,
      "note": 77,
      "start": 28.819,
      "duration": 0.0179,
      "velocity": 97,
      "chip": "ym2612"
    },
    {
      "channel": 3,
      "note": 80,
      "start": 28.8201,
      "duration": 0.0179,
      "velocity": 97,
      "chip": "ym2612"
    },
    {
      "channel": 0,
      "note": 36,
      "start": 28.8356,
      "duration": 0.0144,
      "velocity": 115,
      "chip": "ym2612"
    },
    {
      "channel": 4,
      "note": 77,
      "start": 28.8369,
      "duration": 0.0143,
      "velocity": 97,
      "chip": "ym2612"
    },
    {
      "channel": 3,
      "note": 80,
      "start": 28.838,
      "duration": 0.0144,
      "velocity": 97,
      "chip": "ym2612"
    },
    {
      "channel": 2,
      "note": 61,
      "start": 28.8422,
      "duration": 0.0114,
      "velocity": 100,
      "chip": "ym2612"
    },
    {
      "channel": 1,
      "note": 49,
      "start": 28.8436,
      "duration": 0.0112,
      "velocity": 100,
      "chip": "ym2612"
    },
    {
      "channel": 0,
      "note": 36,
      "start": 28.85,
      "duration": 0.0161,
      "velocity": 115,
      "chip": "ym2612"
    },
    {
      "channel": 4,
      "note": 77,
      "start": 28.8512,
      "duration": 0.016,
      "velocity": 97,
      "chip": "ym2612"
    },
    {
      "channel": 3,
      "note": 80,
      "start": 28.8524,
      "duration": 0.016,
      "velocity": 97,
      "chip": "ym2612"
    },
    {
      "channel": 2,
      "note": 61,
      "start": 28.8536,
      "duration": 0.016,
      "velocity": 100,
      "chip": "ym2612"
    },
    {
      "channel": 1,
      "note": 49,
      "start": 28.8548,
      "duration": 0.0159,
      "velocity": 100,
      "chip": "ym2612"
    },
    {
      "channel": 0,
      "note": 37,
      "start": 28.8661,
      "duration": 0.0161,
      "velocity": 115,
      "chip": "ym2612"
    },
    {
      "channel": 4,
      "note": 77,
      "start": 28.8672,
      "duration": 0.0161,
      "velocity": 97,
      "chip": "ym2612"
    },
    {
      "channel": 3,
      "note": 80,
      "start": 28.8684,
      "duration": 0.0161,
      "velocity": 97,
      "chip": "ym2612"
    },
    {
      "channel": 2,
      "note": 61,
      "start": 28.8696,
      "duration": 0.0161,
      "velocity": 100,
      "chip": "ym2612"
    },
    {
      "channel": 1,
      "note": 49,
      "start": 28.8707,
      "duration": 0.0161,
      "velocity": 100,
      "chip": "ym2612"
    },
    {
      "channel": 0,
      "note": 37,
      "start": 28.8822,
      "duration": 0.0161,
      "velocity": 115,
      "chip": "ym2612"
    },
    {
      "channel": 4,
      "note": 77,
      "start": 28.8833,
      "duration": 0.0161,
      "velocity": 97,
      "chip": "ym2612"
    },
    {
      "channel": 3,
      "note": 80,
      "start": 28.8845,
      "duration": 0.0161,
      "velocity": 97,
      "chip": "ym2612"
    },
    {
      "channel": 2,
      "note": 61,
      "start": 28.8857,
      "duration": 0.0161,
      "velocity": 100,
      "chip": "ym2612"
    },
    {
      "channel": 1,
      "note": 49,
      "start": 28.8868,
      "duration": 0.0162,
      "velocity": 100,
      "chip": "ym2612"
    },
    {
      "channel": 0,
      "note": 38,
      "start": 28.8983,
      "duration": 0.0161,
      "velocity": 115,
      "chip": "ym2612"
    },
    {
      "channel": 4,
      "note": 77,
      "start": 28.8995,
      "duration": 0.0161,
      "velocity": 97,
      "chip": "ym2612"
    },
    {
      "channel": 3,
      "note": 80,
      "start": 28.9006,
      "duration": 0.0161,
      "velocity": 97,
      "chip": "ym2612"
    },
    {
      "channel": 2,
      "note": 61,
      "start": 28.9018,
      "duration": 0.0161,
      "velocity": 100,
      "chip": "ym2612"
    },
    {
      "channel": 1,
      "note": 49,
      "start": 28.9029,
      "duration": 0.0161,
      "velocity": 100,
      "chip": "ym2612"
    },
    {
      "channel": 0,
      "note": 38,
      "start": 28.9144,
      "duration": 0.0161,
      "velocity": 115,
      "chip": "ym2612"
    },
    {
      "channel": 4,
      "note": 77,
      "start": 28.9156,
      "duration": 0.0161,
      "velocity": 97,
      "chip": "ym2612"
    },
    {
      "channel": 3,
      "note": 80,
      "start": 28.9167,
      "duration": 0.0161,
      "velocity": 97,
      "chip": "ym2612"
    },
    {
      "channel": 2,
      "note": 61,
      "start": 28.9179,
      "duration": 0.0161,
      "velocity": 100,
      "chip": "ym2612"
    },
    {
      "channel": 1,
      "note": 49,
      "start": 28.919,
      "duration": 0.0161,
      "velocity": 100,
      "chip": "ym2612"
    },
    {
      "channel": 0,
      "note": 39,
      "start": 28.9305,
      "duration": 0.0161,
      "velocity": 115,
      "chip": "ym2612"
    },
    {
      "channel": 4,
      "note": 77,
      "start": 28.9317,
      "duration": 0.0161,
      "velocity": 97,
      "chip": "ym2612"
    },
    {
      "channel": 3,
      "note": 80,
      "start": 28.9328,
      "duration": 0.0161,
      "velocity": 97,
      "chip": "ym2612"
    },
    {
      "channel": 2,
      "note": 61,
      "start": 28.934,
      "duration": 0.0161,
      "velocity": 100,
      "chip": "ym2612"
    },
    {
      "channel": 1,
      "note": 49,
      "start": 28.9351,
      "duration": 0.0161,
      "velocity": 100,
      "chip": "ym2612"
    },
    {
      "channel": 0,
      "note": 39,
      "start": 28.9466,
      "duration": 0.0161,
      "velocity": 115,
      "chip": "ym2612"
    },
    {
      "channel": 4,
      "note": 77,
      "start": 28.9478,
      "duration": 0.0161,
      "velocity": 97,
      "chip": "ym2612"
    },
    {
      "channel": 3,
      "note": 80,
      "start": 28.9489,
      "duration": 0.0161,
      "velocity": 97,
      "chip": "ym2612"
    },
    {
      "channel": 2,
      "note": 61,
      "start": 28.95,
      "duration": 0.0162,
      "velocity": 100,
      "chip": "ym2612"
    },
    {
      "channel": 1,
      "note": 49,
      "start": 28.9512,
      "duration": 0.0161,
      "velocity": 100,
      "chip": "ym2612"
    },
    {
      "channel": 0,
      "note": 40,
      "start": 28.9627,
      "duration": 0.0161,
      "velocity": 115,
      "chip": "ym2612"
    },
    {
      "channel": 4,
      "note": 77,
      "start": 28.9639,
      "duration": 0.0161,
      "velocity": 97,
      "chip": "ym2612"
    },
    {
      "channel": 3,
      "note": 80,
      "start": 28.9651,
      "duration": 0.016,
      "velocity": 97,
      "chip": "ym2612"
    },
    {
      "channel": 2,
      "note": 61,
      "start": 28.9662,
      "duration": 0.016,
      "velocity": 100,
      "chip": "ym2612"
    },
    {
      "channel": 1,
      "note": 49,
      "start": 28.9673,
      "duration": 0.016,
      "velocity": 100,
      "chip": "ym2612"
    },
    {
      "channel": 0,
      "note": 40,
      "start": 28.9788,
      "duration": 0.0161,
      "velocity": 115,
      "chip": "ym2612"
    },
    {
      "channel": 4,
      "note": 77,
      "start": 28.98,
      "duration": 0.0161,
      "velocity": 97,
      "chip": "ym2612"
    },
    {
      "channel": 3,
      "note": 80,
      "start": 28.9811,
      "duration": 0.0162,
      "velocity": 97,
      "chip": "ym2612"
    },
    {
      "channel": 2,
      "note": 61,
      "start": 28.9822,
      "duration": 0.0161,
      "velocity": 100,
      "chip": "ym2612"
    },
    {
      "channel": 1,
      "note": 49,
      "start": 28.9834,
      "duration": 0.0162,
      "velocity": 100,
      "chip": "ym2612"
    },
    {
      "channel": 0,
      "note": 40,
      "start": 28.9949,
      "duration": 0.0161,
      "velocity": 115,
      "chip": "ym2612"
    },
    {
      "channel": 4,
      "note": 77,
      "start": 28.9961,
      "duration": 0.0161,
      "velocity": 97,
      "chip": "ym2612"
    },
    {
      "channel": 3,
      "note": 80,
      "start": 28.9973,
      "duration": 0.0161,
      "velocity": 97,
      "chip": "ym2612"
    },
    {
      "channel": 0,
      "note": 41,
      "start": 29.011,
      "duration": 0.0195,
      "velocity": 115,
      "chip": "ym2612"
    },
    {
      "channel": 4,
      "note": 77,
      "start": 29.0121,
      "duration": 0.0196,
      "velocity": 97,
      "chip": "ym2612"
    },
    {
      "channel": 3,
      "note": 80,
      "start": 29.0134,
      "duration": 0.0195,
      "velocity": 97,
      "chip": "ym2612"
    },
    {
      "channel": 1,
      "note": 78,
      "start": 29.0288,
      "duration": 0.0151,
      "velocity": 124,
      "chip": "ym2612"
    },
    {
      "channel": 0,
      "note": 41,
      "start": 29.0305,
      "duration": 0.0151,
      "velocity": 115,
      "chip": "ym2612"
    },
    {
      "channel": 4,
      "note": 77,
      "start": 29.0317,
      "duration": 0.0151,
      "velocity": 97,
      "chip": "ym2612"
    },
    {
      "channel": 3,
      "note": 80,
      "start": 29.0329,
      "duration": 0.0151,
      "velocity": 97,
      "chip": "ym2612"
    },
    {
      "channel": 2,
      "note": 59,
      "start": 29.0343,
      "duration": 0.0149,
      "velocity": 100,
      "chip": "ym2612"
    },
    {
      "channel": 1,
      "note": 76,
      "start": 29.0439,
      "duration": 0.0167,
      "velocity": 124,
      "chip": "ym2612"
    },
    {
      "channel": 0,
      "note": 42,
      "start": 29.0457,
      "duration": 0.0167,
      "velocity": 115,
      "chip": "ym2612"
    },
    {
      "channel": 4,
      "note": 77,
      "start": 29.0469,
      "duration": 0.0167,
      "velocity": 97,
      "chip": "ym2612"
    },
    {
      "channel": 3,
      "note": 80,
      "start": 29.048,
      "duration": 0.0167,
      "velocity": 97,
      "chip": "ym2612"
    },
    {
      "channel": 2,
      "note": 59,
      "start": 29.0492,
      "duration": 0.0166,
      "velocity": 100,
      "chip": "ym2612"
    },
    {
      "channel": 1,
      "note": 75,
      "start": 29.0606,
      "duration": 0.0163,
      "velocity": 124,
      "chip": "ym2612"
    },
    {
      "channel": 0,
      "note": 42,
      "start": 29.0623,
      "duration": 0.0163,
      "velocity": 115,
      "chip": "ym2612"
    },
    {
      "channel": 4,
      "note": 77,
      "start": 29.0635,
      "duration": 0.0163,
      "velocity": 97,
      "chip": "ym2612"
    },
    {
      "channel": 3,
      "note": 80,
      "start": 29.0647,
      "duration": 0.0163,
      "velocity": 97,
      "chip": "ym2612"
    },
    {
      "channel": 2,
      "note": 59,
      "start": 29.0658,
      "duration": 0.0163,
      "velocity": 100,
      "chip": "ym2612"
    },
    {
      "channel": 1,
      "note": 74,
      "start": 29.0769,
      "duration": 0.0147,
      "velocity": 124,
      "chip": "ym2612"
    },
    {
      "channel": 0,
      "note": 43,
      "start": 29.0786,
      "duration": 0.0147,
      "velocity": 115,
      "chip": "ym2612"
    },
    {
      "channel": 4,
      "note": 77,
      "start": 29.0798,
      "duration": 0.0147,
      "velocity": 97,
      "chip": "ym2612"
    },
    {
      "channel": 3,
      "note": 80,
      "start": 29.081,
      "duration": 0.0148,
      "velocity": 97,
      "chip": "ym2612"
    },
    {
      "channel": 2,
      "note": 59,
      "start": 29.0821,
      "duration": 0.0147,
      "velocity": 100,
      "chip": "ym2612"
    },
    {
      "channel": 1,
      "note": 72,
      "start": 29.0916,
      "duration": 0.0186,
      "velocity": 124,
      "chip": "ym2612"
    },
    {
      "channel": 0,
      "note": 43,
      "start": 29.0933,
      "duration": 0.0186,
      "velocity": 115,
      "chip": "ym2612"
    },
    {
      "channel": 4,
      "note": 77,
      "start": 29.0945,
      "duration": 0.0186,
      "velocity": 97,
      "chip": "ym2612"
    },
    {
      "channel": 3,
      "note": 80,
      "start": 29.0957,
      "duration": 0.0186,
      "velocity": 97,
      "chip": "ym2612"
    },
    {
      "channel": 2,
      "note": 59,
      "start": 29.0968,
      "duration": 0.0186,
      "velocity": 100,
      "chip": "ym2612"
    },
    {
      "channel": 1,
      "note": 71,
      "start": 29.1102,
      "duration": 0.0161,
      "velocity": 124,
      "chip": "ym2612"
    },
    {
      "channel": 0,
      "note": 44,
      "start": 29.112,
      "duration": 0.0161,
      "velocity": 115,
      "chip": "ym2612"
    },
    {
      "channel": 4,
      "note": 77,
      "start": 29.1132,
      "duration": 0.0161,
      "velocity": 97,
      "chip": "ym2612"
    },
    {
      "channel": 3,
      "note": 80,
      "start": 29.1144,
      "duration": 0.0161,
      "velocity": 97,
      "chip": "ym2612"
    },
    {
      "channel": 2,
      "note": 59,
      "start": 29.1154,
      "duration": 0.0161,
      "velocity": 100,
      "chip": "ym2612"
    },
    {
      "channel": 1,
      "note": 70,
      "start": 29.1263,
      "duration": 0.0158,
      "velocity": 124,
      "chip": "ym2612"
    },
    {
      "channel": 0,
      "note": 44,
      "start": 29.128,
      "duration": 0.0158,
      "velocity": 115,
      "chip": "ym2612"
    },
    {
      "channel": 4,
      "note": 77,
      "start": 29.1293,
      "duration": 0.0158,
      "velocity": 97,
      "chip": "ym2612"
    },
    {
      "channel": 3,
      "note": 80,
      "start": 29.1305,
      "duration": 0.0157,
      "velocity": 97,
      "chip": "ym2612"
    },
    {
      "channel": 2,
      "note": 59,
      "start": 29.1315,
      "duration": 0.0158,
      "velocity": 100,
      "chip": "ym2612"
    },
    {
      "channel": 1,
      "note": 69,
      "start": 29.1421,
      "duration": 0.0137,
      "velocity": 124,
      "chip": "ym2612"
    },
    {
      "channel": 0,
      "note": 44,
      "start": 29.1438,
      "duration": 0.0141,
      "velocity": 115,
      "chip": "ym2612"
    },
    {
      "channel": 4,
      "note": 77,
      "start": 29.145,
      "duration": 0.014,
      "velocity": 97,
      "chip": "ym2612"
    },
    {
      "channel": 3,
      "note": 80,
      "start": 29.1462,
      "duration": 0.0141,
      "velocity": 97,
      "chip": "ym2612"
    },
    {
      "channel": 2,
      "note": 59,
      "start": 29.1473,
      "duration": 0.0141,
      "velocity": 100,
      "chip": "ym2612"
    },
    {
      "channel": 1,
      "note": 68,
      "start": 29.1558,
      "duration": 0.0161,
      "velocity": 124,
      "chip": "ym2612"
    },
    {
      "channel": 0,
      "note": 45,
      "start": 29.1579,
      "duration": 0.0185,
      "velocity": 115,
      "chip": "ym2612"
    },
    {
      "channel": 4,
      "note": 77,
      "start": 29.159,
      "duration": 0.0186,
      "velocity": 97,
      "chip": "ym2612"
    },
    {
      "channel": 3,
      "note": 80,
      "start": 29.1602,
      "duration": 0.0185,
      "velocity": 97,
      "chip": "ym2612"
    },
    {
      "channel": 2,
      "note": 59,
      "start": 29.1614,
      "duration": 0.0185,
      "velocity": 100,
      "chip": "ym2612"
    },
    {
      "channel": 1,
      "note": 66,
      "start": 29.1719,
      "duration": 0.0161,
      "velocity": 124,
      "chip": "ym2612"
    },
    {
      "channel": 0,
      "note": 45,
      "start": 29.1764,
      "duration": 0.0161,
      "velocity": 115,
      "chip": "ym2612"
    },
    {
      "channel": 4,
      "note": 77,
      "start": 29.1776,
      "duration": 0.0161,
      "velocity": 97,
      "chip": "ym2612"
    },
    {
      "channel": 3,
      "note": 80,
      "start": 29.1788,
      "duration": 0.0161,
      "velocity": 97,
      "chip": "ym2612"
    },
    {
      "channel": 2,
      "note": 59,
      "start": 29.1799,
      "duration": 0.0161,
      "velocity": 100,
      "chip": "ym2612"
    },
    {
      "channel": 1,
      "note": 65,
      "start": 29.188,
      "duration": 0.0161,
      "velocity": 124,
      "chip": "ym2612"
    },
    {
      "channel": 0,
      "note": 46,
      "start": 29.1925,
      "duration": 0.0134,
      "velocity": 115,
      "chip": "ym2612"
    },
    {
      "channel": 4,
      "note": 77,
      "start": 29.1937,
      "duration": 0.0157,
      "velocity": 97,
      "chip": "ym2612"
    },
    {
      "channel": 3,
      "note": 80,
      "start": 29.1948,
      "duration": 0.0158,
      "velocity": 97,
      "chip": "ym2612"
    },
    {
      "channel": 1,
      "note": 64,
      "start": 29.2041,
      "duration": 0.0161,
      "velocity": 124,
      "chip": "ym2612"
    },
    {
      "channel": 0,
      "note": 46,
      "start": 29.2059,
      "duration": 0.0161,
      "velocity": 115,
      "chip": "ym2612"
    },
    {
      "channel": 4,
      "note": 77,
      "start": 29.2094,
      "duration": 0.0141,
      "velocity": 97,
      "chip": "ym2612"
    },
    {
      "channel": 3,
      "note": 80,
      "start": 29.2106,
      "duration": 0.0141,
      "velocity": 97,
      "chip": "ym2612"
    },
    {
      "channel": 1,
      "note": 62,
      "start": 29.2202,
      "duration": 0.0161,
      "velocity": 124,
      "chip": "ym2612"
    },
    {
      "channel": 0,
      "note": 47,
      "start": 29.2219,
      "duration": 0.0161,
      "velocity": 115,
      "chip": "ym2612"
    },
    {
      "channel": 4,
      "note": 77,
      "start": 29.2235,
      "duration": 0.0158,
      "velocity": 97,
      "chip": "ym2612"
    },
    {
      "channel": 3,
      "note": 80,
      "start": 29.2247,
      "duration": 0.0185,
      "velocity": 97,
      "chip": "ym2612"
    },
    {
      "channel": 2,
      "note": 56,
      "start": 29.2261,
      "duration": 0.0183,
      "velocity": 100,
      "chip": "ym2612"
    },
    {
      "channel": 1,
      "note": 61,
      "start": 29.2363,
      "duration": 0.0161,
      "velocity": 124,
      "chip": "ym2612"
    },
    {
      "channel": 0,
      "note": 47,
      "start": 29.238,
      "duration": 0.0161,
      "velocity": 115,
      "chip": "ym2612"
    },
    {
      "channel": 4,
      "note": 77,
      "start": 29.2392,
      "duration": 0.0161,
      "velocity": 97,
      "chip": "ym2612"
    },
    {
      "channel": 3,
      "note": 80,
      "start": 29.2431,
      "duration": 0.0161,
      "velocity": 97,
      "chip": "ym2612"
    },
    {
      "channel": 2,
      "note": 56,
      "start": 29.2443,
      "duration": 0.016,
      "velocity": 100,
      "chip": "ym2612"
    },
    {
      "channel": 1,
      "note": 60,
      "start": 29.2524,
      "duration": 0.0161,
      "velocity": 124,
      "chip": "ym2612"
    },
    {
      "channel": 0,
      "note": 47,
      "start": 29.2541,
      "duration": 0.0161,
      "velocity": 115,
      "chip": "ym2612"
    },
    {
      "channel": 4,
      "note": 77,
      "start": 29.2553,
      "duration": 0.0161,
      "velocity": 97,
      "chip": "ym2612"
    },
    {
      "channel": 3,
      "note": 80,
      "start": 29.2592,
      "duration": 0.0157,
      "velocity": 97,
      "chip": "ym2612"
    },
    {
      "channel": 2,
      "note": 56,
      "start": 29.2604,
      "duration": 0.0158,
      "velocity": 100,
      "chip": "ym2612"
    },
    {
      "channel": 1,
      "note": 59,
      "start": 29.2685,
      "duration": 0.0161,
      "velocity": 124,
      "chip": "ym2612"
    },
    {
      "channel": 0,
      "note": 48,
      "start": 29.2702,
      "duration": 0.0161,
      "velocity": 115,
      "chip": "ym2612"
    },
    {
      "channel": 4,
      "note": 77,
      "start": 29.2714,
      "duration": 0.0161,
      "velocity": 97,
      "chip": "ym2612"
    },
    {
      "channel": 3,
      "note": 80,
      "start": 29.2749,
      "duration": 0.0137,
      "velocity": 97,
      "chip": "ym2612"
    },
    {
      "channel": 2,
      "note": 56,
      "start": 29.2761,
      "duration": 0.014,
      "velocity": 100,
      "chip": "ym2612"
    },
    {
      "channel": 1,
      "note": 57,
      "start": 29.2846,
      "duration": 0.0161,
      "velocity": 124,
      "chip": "ym2612"
    },
    {
      "channel": 0,
      "note": 48,
      "start": 29.2863,
      "duration": 0.0161,
      "velocity": 115,
      "chip": "ym2612"
    },
    {
      "channel": 4,
      "note": 77,
      "start": 29.2875,
      "duration": 0.0161,
      "velocity": 97,
      "chip": "ym2612"
    },
    {
      "channel": 3,
      "note": 80,
      "start": 29.2887,
      "duration": 0.0161,
      "velocity": 97,
      "chip": "ym2612"
    },
    {
      "channel": 2,
      "note": 56,
      "start": 29.2901,
      "duration": 0.0185,
      "velocity": 100,
      "chip": "ym2612"
    },
    {
      "channel": 1,
      "note": 56,
      "start": 29.3007,
      "duration": 0.0161,
      "velocity": 124,
      "chip": "ym2612"
    },
    {
      "channel": 0,
      "note": 49,
      "start": 29.3024,
      "duration": 0.0153,
      "velocity": 1,
      "chip": "ym2612"
    },
    {
      "channel": 4,
      "note": 77,
      "start": 29.3036,
      "duration": 0.0154,
      "velocity": 97,
      "chip": "ym2612"
    },
    {
      "channel": 3,
      "note": 80,
      "start": 29.3048,
      "duration": 0.0153,
      "velocity": 97,
      "chip": "ym2612"
    },
    {
      "channel": 2,
      "note": 56,
      "start": 29.3086,
      "duration": 0.0126,
      "velocity": 100,
      "chip": "ym2612"
    },
    {
      "channel": 1,
      "note": 55,
      "start": 29.3168,
      "duration": 0.0162,
      "velocity": 124,
      "chip": "ym2612"
    },
    {
      "channel": 4,
      "note": 77,
      "start": 29.319,
      "duration": 0.0153,
      "velocity": 97,
      "chip": "ym2612"
    },
    {
      "channel": 3,
      "note": 80,
      "start": 29.3201,
      "duration": 0.0153,
      "velocity": 97,
      "chip": "ym2612"
    },
    {
      "channel": 2,
      "note": 56,
      "start": 29.3212,
      "duration": 0.0153,
      "velocity": 100,
      "chip": "ym2612"
    },
    {
      "channel": 1,
      "note": 53,
      "start": 29.3329,
      "duration": 0.0161,
      "velocity": 124,
      "chip": "ym2612"
    },
    {
      "channel": 4,
      "note": 77,
      "start": 29.3342,
      "duration": 0.0161,
      "velocity": 97,
      "chip": "ym2612"
    },
    {
      "channel": 3,
      "note": 80,
      "start": 29.3354,
      "duration": 0.0162,
      "velocity": 97,
      "chip": "ym2612"
    },
    {
      "channel": 2,
      "note": 56,
      "start": 29.3365,
      "duration": 0.0161,
      "velocity": 100,
      "chip": "ym2612"
    },
    {
      "channel": 1,
      "note": 52,
      "start": 29.349,
      "duration": 0.0161,
      "velocity": 124,
      "chip": "ym2612"
    },
    {
      "channel": 4,
      "note": 77,
      "start": 29.3503,
      "duration": 0.0161,
      "velocity": 97,
      "chip": "ym2612"
    },
    {
      "channel": 3,
      "note": 80,
      "start": 29.3515,
      "duration": 0.016,
      "velocity": 97,
      "chip": "ym2612"
    },
    {
      "channel": 2,
      "note": 56,
      "start": 29.3526,
      "duration": 0.0161,
      "velocity": 100,
      "chip": "ym2612"
    },
    {
      "channel": 1,
      "note": 51,
      "start": 29.3651,
      "duration": 0.0153,
      "velocity": 1,
      "chip": "ym2612"
    },
    {
      "channel": 4,
      "note": 77,
      "start": 29.3664,
      "duration": 0.0153,
      "velocity": 97,
      "chip": "ym2612"
    },
    {
      "channel": 3,
      "note": 80,
      "start": 29.3676,
      "duration": 0.0153,
      "velocity": 97,
      "chip": "ym2612"
    },
    {
      "channel": 2,
      "note": 56,
      "start": 29.3687,
      "duration": 0.0153,
      "velocity": 100,
      "chip": "ym2612"
    },
    {
      "channel": 4,
      "note": 77,
      "start": 29.3817,
      "duration": 0.0153,
      "velocity": 97,
      "chip": "ym2612"
    },
    {
      "channel": 3,
      "note": 80,
      "start": 29.3828,
      "duration": 0.0153,
      "velocity": 97,
      "chip": "ym2612"
    },
    {
      "channel": 4,
      "note": 77,
      "start": 29.3969,
      "duration": 0.0195,
      "velocity": 97,
      "chip": "ym2612"
    },
    {
      "channel": 3,
      "note": 80,
      "start": 29.3981,
      "duration": 0.0196,
      "velocity": 97,
      "chip": "ym2612"
    },
    {
      "channel": 0,
      "note": 36,
      "start": 29.4153,
      "duration": 0.0144,
      "velocity": 115,
      "chip": "ym2612"
    },
    {
      "channel": 4,
      "note": 77,
      "start": 29.4165,
      "duration": 0.0144,
      "velocity": 97,
      "chip": "ym2612"
    },
    {
      "channel": 3,
      "note": 80,
      "start": 29.4177,
      "duration": 0.0143,
      "velocity": 97,
      "chip": "ym2612"
    },
    {
      "channel": 2,
      "note": 49,
      "start": 29.4191,
      "duration": 0.0141,
      "velocity": 100,
      "chip": "ym2612"
    },
    {
      "channel": 1,
      "note": 37,
      "start": 29.4205,
      "duration": 0.0139,
      "velocity": 100,
      "chip": "ym2612"
    },
    {
      "channel": 0,
      "note": 36,
      "start": 29.4296,
      "duration": 0.0161,
      "velocity": 115,
      "chip": "ym2612"
    },
    {
      "channel": 4,
      "note": 77,
      "start": 29.4308,
      "duration": 0.016,
      "velocity": 97,
      "chip": "ym2612"
    },
    {
      "channel": 3,
      "note": 80,
      "start": 29.432,
      "duration": 0.0161,
      "velocity": 97,
      "chip": "ym2612"
    },
    {
      "channel": 2,
      "note": 49,
      "start": 29.4332,
      "duration": 0.016,
      "velocity": 100,
      "chip": "ym2612"
    },
    {
      "channel": 1,
      "note": 37,
      "start": 29.4344,
      "duration": 0.0159,
      "velocity": 100,
      "chip": "ym2612"
    },
    {
      "channel": 0,
      "note": 37,
      "start": 29.4457,
      "duration": 0.0161,
      "velocity": 115,
      "chip": "ym2612"
    },
    {
      "channel": 4,
      "note": 77,
      "start": 29.4469,
      "duration": 0.0161,
      "velocity": 97,
      "chip": "ym2612"
    },
    {
      "channel": 3,
      "note": 80,
      "start": 29.4481,
      "duration": 0.0161,
      "velocity": 97,
      "chip": "ym2612"
    },
    {
      "channel": 2,
      "note": 49,
      "start": 29.4492,
      "duration": 0.0161,
      "velocity": 100,
      "chip": "ym2612"
    },
    {
      "channel": 1,
      "note": 37,
      "start": 29.4503,
      "duration": 0.0161,
      "velocity": 100,
      "chip": "ym2612"
    },
    {
      "channel": 0,
      "note": 37,
      "start": 29.4618,
      "duration": 0.0161,
      "velocity": 115,
      "chip": "ym2612"
    },
    {
      "channel": 4,
      "note": 77,
      "start": 29.463,
      "duration": 0.0161,
      "velocity": 97,
      "chip": "ym2612"
    },
    {
      "channel": 3,
      "note": 80,
      "start": 29.4642,
      "duration": 0.0161,
      "velocity": 97,
      "chip": "ym2612"
    },
    {
      "channel": 2,
      "note": 49,
      "start": 29.4653,
      "duration": 0.0161,
      "velocity": 100,
      "chip": "ym2612"
    },
    {
      "channel": 1,
      "note": 37,
      "start": 29.4664,
      "duration": 0.0162,
      "velocity": 100,
      "chip": "ym2612"
    },
    {
      "channel": 0,
      "note": 38,
      "start": 29.4779,
      "duration": 0.0161,
      "velocity": 115,
      "chip": "ym2612"
    },
    {
      "channel": 4,
      "note": 77,
      "start": 29.4791,
      "duration": 0.0161,
      "velocity": 97,
      "chip": "ym2612"
    },
    {
      "channel": 3,
      "note": 80,
      "start": 29.4803,
      "duration": 0.0161,
      "velocity": 97,
      "chip": "ym2612"
    },
    {
      "channel": 2,
      "note": 49,
      "start": 29.4814,
      "duration": 0.0161,
      "velocity": 100,
      "chip": "ym2612"
    },
    {
      "channel": 1,
      "note": 37,
      "start": 29.4826,
      "duration": 0.0161,
      "velocity": 100,
      "chip": "ym2612"
    },
    {
      "channel": 0,
      "note": 38,
      "start": 29.494,
      "duration": 0.0167,
      "velocity": 115,
      "chip": "ym2612"
    },
    {
      "channel": 4,
      "note": 77,
      "start": 29.4952,
      "duration": 0.0166,
      "velocity": 97,
      "chip": "ym2612"
    },
    {
      "channel": 3,
      "note": 80,
      "start": 29.4964,
      "duration": 0.0167,
      "velocity": 97,
      "chip": "ym2612"
    },
    {
      "channel": 2,
      "note": 49,
      "start": 29.4975,
      "duration": 0.0167,
      "velocity": 100,
      "chip": "ym2612"
    },
    {
      "channel": 1,
      "note": 37,
      "start": 29.4987,
      "duration": 0.0166,
      "velocity": 100,
      "chip": "ym2612"
    },
    {
      "channel": 0,
      "note": 39,
      "start": 29.5107,
      "duration": 0.0167,
      "velocity": 115,
      "chip": "ym2612"
    },
    {
      "channel": 4,
      "note": 77,
      "start": 29.5118,
      "duration": 0.0167,
      "velocity": 97,
      "chip": "ym2612"
    },
    {
      "channel": 3,
      "note": 80,
      "start": 29.513,
      "duration": 0.0167,
      "velocity": 97,
      "chip": "ym2612"
    },
    {
      "channel": 2,
      "note": 49,
      "start": 29.5142,
      "duration": 0.0167,
      "velocity": 100,
      "chip": "ym2612"
    },
    {
      "channel": 1,
      "note": 37,
      "start": 29.5153,
      "duration": 0.0167,
      "velocity": 100,
      "chip": "ym2612"
    },
    {
      "channel": 0,
      "note": 39,
      "start": 29.5273,
      "duration": 0.0163,
      "velocity": 115,
      "chip": "ym2612"
    },
    {
      "channel": 4,
      "note": 77,
      "start": 29.5285,
      "duration": 0.0163,
      "velocity": 97,
      "chip": "ym2612"
    },
    {
      "channel": 3,
      "note": 80,
      "start": 29.5297,
      "duration": 0.0163,
      "velocity": 97,
      "chip": "ym2612"
    },
    {
      "channel": 2,
      "note": 49,
      "start": 29.5308,
      "duration": 0.0163,
      "velocity": 100,
      "chip": "ym2612"
    },
    {
      "channel": 1,
      "note": 37,
      "start": 29.5319,
      "duration": 0.0163,
      "velocity": 100,
      "chip": "ym2612"
    },
    {
      "channel": 0,
      "note": 40,
      "start": 29.5436,
      "duration": 0.0148,
      "velocity": 115,
      "chip": "ym2612"
    },
    {
      "channel": 4,
      "note": 77,
      "start": 29.5448,
      "duration": 0.0148,
      "velocity": 97,
      "chip": "ym2612"
    },
    {
      "channel": 3,
      "note": 80,
      "start": 29.546,
      "duration": 0.0148,
      "velocity": 97,
      "chip": "ym2612"
    },
    {
      "channel": 2,
      "note": 49,
      "start": 29.5471,
      "duration": 0.0148,
      "velocity": 100,
      "chip": "ym2612"
    },
    {
      "channel": 1,
      "note": 37,
      "start": 29.5483,
      "duration": 0.0148,
      "velocity": 100,
      "chip": "ym2612"
    },
    {
      "channel": 0,
      "note": 40,
      "start": 29.5584,
      "duration": 0.0189,
      "velocity": 115,
      "chip": "ym2612"
    },
    {
      "channel": 4,
      "note": 77,
      "start": 29.5596,
      "duration": 0.0188,
      "velocity": 97,
      "chip": "ym2612"
    },
    {
      "channel": 3,
      "note": 80,
      "start": 29.5607,
      "duration": 0.0189,
      "velocity": 97,
      "chip": "ym2612"
    },
    {
      "channel": 2,
      "note": 49,
      "start": 29.5619,
      "duration": 0.0189,
      "velocity": 100,
      "chip": "ym2612"
    },
    {
      "channel": 1,
      "note": 37,
      "start": 29.563,
      "duration": 0.0189,
      "velocity": 100,
      "chip": "ym2612"
    },
    {
      "channel": 0,
      "note": 40,
      "start": 29.5773,
      "duration": 0.0161,
      "velocity": 115,
      "chip": "ym2612"
    },
    {
      "channel": 4,
      "note": 77,
      "start": 29.5784,
      "duration": 0.0161,
      "velocity": 97,
      "chip": "ym2612"
    },
    {
      "channel": 3,
      "note": 80,
      "start": 29.5796,
      "duration": 0.0161,
      "velocity": 97,
      "chip": "ym2612"
    },
    {
      "channel": 0,
      "note": 41,
      "start": 29.5934,
      "duration": 0.0157,
      "velocity": 115,
      "chip": "ym2612"
    },
    {
      "channel": 4,
      "note": 77,
      "start": 29.5946,
      "duration": 0.0157,
      "velocity": 97,
      "chip": "ym2612"
    },
    {
      "channel": 3,
      "note": 80,
      "start": 29.5957,
      "duration": 0.0158,
      "velocity": 97,
      "chip": "ym2612"
    },
    {
      "channel": 0,
      "note": 41,
      "start": 29.6091,
      "duration": 0.0141,
      "velocity": 115,
      "chip": "ym2612"
    },
    {
      "channel": 4,
      "note": 77,
      "start": 29.6103,
      "duration": 0.014,
      "velocity": 97,
      "chip": "ym2612"
    },
    {
      "channel": 3,
      "note": 80,
      "start": 29.6115,
      "duration": 0.014,
      "velocity": 97,
      "chip": "ym2612"
    },
    {
      "channel": 2,
      "note": 56,
      "start": 29.6129,
      "duration": 0.0137,
      "velocity": 100,
      "chip": "ym2612"
    },
    {
      "channel": 1,
      "note": 44,
      "start": 29.6143,
      "duration": 0.0135,
      "velocity": 100,
      "chip": "ym2612"
    },
    {
      "channel": 0,
      "note": 42,
      "start": 29.6232,
      "duration": 0.0158,
      "velocity": 115,
      "chip": "ym2612"
    },
    {
      "channel": 4,
      "note": 77,
      "start": 29.6243,
      "duration": 0.0186,
      "velocity": 97,
      "chip": "ym2612"
    },
    {
      "channel": 3,
      "note": 80,
      "start": 29.6255,
      "duration": 0.0185,
      "velocity": 97,
      "chip": "ym2612"
    },
    {
      "channel": 2,
      "note": 56,
      "start": 29.6266,
      "duration": 0.0185,
      "velocity": 100,
      "chip": "ym2612"
    },
    {
      "channel": 1,
      "note": 44,
      "start": 29.6278,
      "duration": 0.0185,
      "velocity": 100,
      "chip": "ym2612"
    },
    {
      "channel": 0,
      "note": 42,
      "start": 29.6389,
      "duration": 0.0161,
      "velocity": 115,
      "chip": "ym2612"
    },
    {
      "channel": 4,
      "note": 77,
      "start": 29.6429,
      "duration": 0.0161,
      "velocity": 97,
      "chip": "ym2612"
    },
    {
      "channel": 3,
      "note": 80,
      "start": 29.644,
      "duration": 0.0161,
      "velocity": 97,
      "chip": "ym2612"
    },
    {
      "channel": 2,
      "note": 56,
      "start": 29.6451,
      "duration": 0.0161,
      "velocity": 100,
      "chip": "ym2612"
    },
    {
      "channel": 1,
      "note": 44,
      "start": 29.6463,
      "duration": 0.0161,
      "velocity": 100,
      "chip": "ym2612"
    },
    {
      "channel": 0,
      "note": 43,
      "start": 29.655,
      "duration": 0.0161,
      "velocity": 115,
      "chip": "ym2612"
    },
    {
      "channel": 4,
      "note": 77,
      "start": 29.659,
      "duration": 0.0134,
      "velocity": 97,
      "chip": "ym2612"
    },
    {
      "channel": 3,
      "note": 80,
      "start": 29.6601,
      "duration": 0.0158,
      "velocity": 97,
      "chip": "ym2612"
    },
    {
      "channel": 2,
      "note": 56,
      "start": 29.6612,
      "duration": 0.0158,
      "velocity": 100,
      "chip": "ym2612"
    },
    {
      "channel": 1,
      "note": 44,
      "start": 29.6624,
      "duration": 0.0157,
      "velocity": 100,
      "chip": "ym2612"
    },
    {
      "channel": 0,
      "note": 43,
      "start": 29.6711,
      "duration": 0.0161,
      "velocity": 115,
      "chip": "ym2612"
    },
    {
      "channel": 4,
      "note": 77,
      "start": 29.6723,
      "duration": 0.0161,
      "velocity": 97,
      "chip": "ym2612"
    },
    {
      "channel": 3,
      "note": 80,
      "start": 29.6759,
      "duration": 0.014,
      "velocity": 97,
      "chip": "ym2612"
    },
    {
      "channel": 2,
      "note": 56,
      "start": 29.677,
      "duration": 0.014,
      "velocity": 100,
      "chip": "ym2612"
    },
    {
      "channel": 1,
      "note": 44,
      "start": 29.6781,
      "duration": 0.0141,
      "velocity": 100,
      "chip": "ym2612"
    },
    {
      "channel": 0,
      "note": 44,
      "start": 29.6872,
      "duration": 0.0161,
      "velocity": 115,
      "chip": "ym2612"
    },
    {
      "channel": 4,
      "note": 77,
      "start": 29.6884,
      "duration": 0.0161,
      "velocity": 97,
      "chip": "ym2612"
    },
    {
      "channel": 3,
      "note": 80,
      "start": 29.6899,
      "duration": 0.0158,
      "velocity": 97,
      "chip": "ym2612"
    },
    {
      "channel": 2,
      "note": 56,
      "start": 29.691,
      "duration": 0.0186,
      "velocity": 100,
      "chip": "ym2612"
    },
    {
      "channel": 1,
      "note": 44,
      "start": 29.6922,
      "duration": 0.0185,
      "velocity": 100,
      "chip": "ym2612"
    },
    {
      "channel": 0,
      "note": 44,
      "start": 29.7033,
      "duration": 0.0161,
      "velocity": 115,
      "chip": "ym2612"
    },
    {
      "channel": 4,
      "note": 77,
      "start": 29.7045,
      "duration": 0.0161,
      "velocity": 97,
      "chip": "ym2612"
    },
    {
      "channel": 3,
      "note": 80,
      "start": 29.7056,
      "duration": 0.0161,
      "velocity": 97,
      "chip": "ym2612"
    },
    {
      "channel": 2,
      "note": 56,
      "start": 29.7096,
      "duration": 0.016,
      "velocity": 100,
      "chip": "ym2612"
    },
    {
      "channel": 1,
      "note": 44,
      "start": 29.7107,
      "duration": 0.0161,
      "velocity": 100,
      "chip": "ym2612"
    },
    {
      "channel": 0,
      "note": 44,
      "start": 29.7194,
      "duration": 0.0162,
      "velocity": 115,
      "chip": "ym2612"
    },
    {
      "channel": 4,
      "note": 77,
      "start": 29.7206,
      "duration": 0.0162,
      "velocity": 97,
      "chip": "ym2612"
    },
    {
      "channel": 3,
      "note": 80,
      "start": 29.7217,
      "duration": 0.0162,
      "velocity": 97,
      "chip": "ym2612"
    },
    {
      "channel": 2,
      "note": 56,
      "start": 29.7256,
      "duration": 0.0134,
      "velocity": 100,
      "chip": "ym2612"
    },
    {
      "channel": 1,
      "note": 44,
      "start": 29.7268,
      "duration": 0.0158,
      "velocity": 100,
      "chip": "ym2612"
    },
    {
      "channel": 0,
      "note": 45,
      "start": 29.7356,
      "duration": 0.016,
      "velocity": 115,
      "chip": "ym2612"
    },
    {
      "channel": 4,
      "note": 77,
      "start": 29.7368,
      "duration": 0.016,
      "velocity": 97,
      "chip": "ym2612"
    },
    {
      "channel": 3,
      "note": 80,
      "start": 29.7379,
      "duration": 0.0161,
      "velocity": 97,
      "chip": "ym2612"
    },
    {
      "channel": 2,
      "note": 56,
      "start": 29.739,
      "duration": 0.016,
      "velocity": 100,
      "chip": "ym2612"
    },
    {
      "channel": 1,
      "note": 44,
      "start": 29.7425,
      "duration": 0.014,
      "velocity": 100,
      "chip": "ym2612"
    },
    {
      "channel": 0,
      "note": 45,
      "start": 29.7516,
      "duration": 0.0161,
      "velocity": 115,
      "chip": "ym2612"
    },
    {
      "channel": 4,
      "note": 77,
      "start": 29.7528,
      "duration": 0.0161,
      "velocity": 97,
      "chip": "ym2612"
    },
    {
      "channel": 3,
      "note": 80,
      "start": 29.754,
      "duration": 0.0161,
      "velocity": 97,
      "chip": "ym2612"
    },
    {
      "channel": 2,
      "note": 56,
      "start": 29.7551,
      "duration": 0.0162,
      "velocity": 100,
      "chip": "ym2612"
    },
    {
      "channel": 1,
      "note": 44,
      "start": 29.7565,
      "duration": 0.0159,
      "velocity": 100,
      "chip": "ym2612"
    },
    {
      "channel": 0,
      "note": 46,
      "start": 29.7677,
      "duration": 0.0161,
      "velocity": 115,
      "chip": "ym2612"
    },
    {
      "channel": 4,
      "note": 77,
      "start": 29.7689,
      "duration": 0.0161,
      "velocity": 97,
      "chip": "ym2612"
    },
    {
      "channel": 3,
      "note": 80,
      "start": 29.7701,
      "duration": 0.0161,
      "velocity": 97,
      "chip": "ym2612"
    },
    {
      "channel": 0,
      "note": 46,
      "start": 29.7838,
      "duration": 0.0195,
      "velocity": 115,
      "chip": "ym2612"
    },
    {
      "channel": 4,
      "note": 77,
      "start": 29.785,
      "duration": 0.0195,
      "velocity": 97,
      "chip": "ym2612"
    },
    {
      "channel": 3,
      "note": 80,
      "start": 29.7862,
      "duration": 0.0195,
      "velocity": 97,
      "chip": "ym2612"
    },
    {
      "channel": 1,
      "note": 78,
      "start": 29.8016,
      "duration": 0.0144,
      "velocity": 124,
      "chip": "ym2612"
    },
    {
      "channel": 0,
      "note": 47,
      "start": 29.8034,
      "duration": 0.0144,
      "velocity": 115,
      "chip": "ym2612"
    },
    {
      "channel": 4,
      "note": 77,
      "start": 29.8046,
      "duration": 0.0144,
      "velocity": 97,
      "chip": "ym2612"
    },
    {
      "channel": 3,
      "note": 80,
      "start": 29.8057,
      "duration": 0.0144,
      "velocity": 97,
      "chip": "ym2612"
    },
    {
      "channel": 2,
      "note": 61,
      "start": 29.8095,
      "duration": 0.0118,
      "velocity": 100,
      "chip": "ym2612"
    },
    {
      "channel": 1,
      "note": 76,
      "start": 29.816,
      "duration": 0.016,
      "velocity": 124,
      "chip": "ym2612"
    },
    {
      "channel": 0,
      "note": 47,
      "start": 29.8177,
      "duration": 0.016,
      "velocity": 115,
      "chip": "ym2612"
    },
    {
      "channel": 4,
      "note": 77,
      "start": 29.819,
      "duration": 0.016,
      "velocity": 97,
      "chip": "ym2612"
    },
    {
      "channel": 3,
      "note": 80,
      "start": 29.8201,
      "duration": 0.016,
      "velocity": 97,
      "chip": "ym2612"
    },
    {
      "channel": 2,
      "note": 61,
      "start": 29.8213,
      "duration": 0.016,
      "velocity": 100,
      "chip": "ym2612"
    },
    {
      "channel": 1,
      "note": 75,
      "start": 29.832,
      "duration": 0.0161,
      "velocity": 124,
      "chip": "ym2612"
    },
    {
      "channel": 0,
      "note": 47,
      "start": 29.8338,
      "duration": 0.0161,
      "velocity": 115,
      "chip": "ym2612"
    },
    {
      "channel": 4,
      "note": 77,
      "start": 29.835,
      "duration": 0.0161,
      "velocity": 97,
      "chip": "ym2612"
    },
    {
      "channel": 3,
      "note": 80,
      "start": 29.8361,
      "duration": 0.0161,
      "velocity": 97,
      "chip": "ym2612"
    },
    {
      "channel": 2,
      "note": 61,
      "start": 29.8373,
      "duration": 0.0161,
      "velocity": 100,
      "chip": "ym2612"
    },
    {
      "channel": 1,
      "note": 74,
      "start": 29.8481,
      "duration": 0.0161,
      "velocity": 124,
      "chip": "ym2612"
    },
    {
      "channel": 0,
      "note": 48,
      "start": 29.8499,
      "duration": 0.0161,
      "velocity": 115,
      "chip": "ym2612"
    },
    {
      "channel": 4,
      "note": 77,
      "start": 29.8511,
      "duration": 0.0161,
      "velocity": 97,
      "chip": "ym2612"
    },
    {
      "channel": 3,
      "note": 80,
      "start": 29.8522,
      "duration": 0.0161,
      "velocity": 97,
      "chip": "ym2612"
    },
    {
      "channel": 2,
      "note": 61,
      "start": 29.8534,
      "duration": 0.0162,
      "velocity": 100,
      "chip": "ym2612"
    },
    {
      "channel": 1,
      "note": 72,
      "start": 29.8642,
      "duration": 0.0161,
      "velocity": 124,
      "chip": "ym2612"
    },
    {
      "channel": 0,
      "note": 48,
      "start": 29.866,
      "duration": 0.0161,
      "velocity": 115,
      "chip": "ym2612"
    },
    {
      "channel": 4,
      "note": 77,
      "start": 29.8672,
      "duration": 0.0161,
      "velocity": 97,
      "chip": "ym2612"
    },
    {
      "channel": 3,
      "note": 80,
      "start": 29.8684,
      "duration": 0.0161,
      "velocity": 97,
      "chip": "ym2612"
    },
    {
      "channel": 2,
      "note": 61,
      "start": 29.8695,
      "duration": 0.016,
      "velocity": 100,
      "chip": "ym2612"
    },
    {
      "channel": 1,
      "note": 71,
      "start": 29.8803,
      "duration": 0.0161,
      "velocity": 124,
      "chip": "ym2612"
    },
    {
      "channel": 0,
      "note": 49,
      "start": 29.882,
      "duration": 0.0154,
      "velocity": 1,
      "chip": "ym2612"
    },
    {
      "channel": 4,
      "note": 77,
      "start": 29.8833,
      "duration": 0.0153,
      "velocity": 97,
      "chip": "ym2612"
    },
    {
      "channel": 3,
      "note": 80,
      "start": 29.8845,
      "duration": 0.0153,
      "velocity": 97,
      "chip": "ym2612"
    },
    {
      "channel": 2,
      "note": 61,
      "start": 29.8856,
      "duration": 0.0153,
      "velocity": 100,
      "chip": "ym2612"
    },
    {
      "channel": 1,
      "note": 70,
      "start": 29.8964,
      "duration": 0.0161,
      "velocity": 124,
      "chip": "ym2612"
    },
    {
      "channel": 4,
      "note": 77,
      "start": 29.8986,
      "duration": 0.0153,
      "velocity": 97,
      "chip": "ym2612"
    },
    {
      "channel": 3,
      "note": 80,
      "start": 29.8997,
      "duration": 0.0153,
      "velocity": 97,
      "chip": "ym2612"
    },
    {
      "channel": 2,
      "note": 61,
      "start": 29.9009,
      "duration": 0.0153,
      "velocity": 100,
      "chip": "ym2612"
    },
    {
      "channel": 1,
      "note": 69,
      "start": 29.9125,
      "duration": 0.0162,
      "velocity": 124,
      "chip": "ym2612"
    },
    {
      "channel": 4,
      "note": 77,
      "start": 29.9139,
      "duration": 0.0161,
      "velocity": 97,
      "chip": "ym2612"
    },
    {
      "channel": 3,
      "note": 80,
      "start": 29.915,
      "duration": 0.0161,
      "velocity": 97,
      "chip": "ym2612"
    },
    {
      "channel": 2,
      "note": 61,
      "start": 29.9161,
      "duration": 0.0161,
      "velocity": 100,
      "chip": "ym2612"
    },
    {
      "channel": 1,
      "note": 68,
      "start": 29.9287,
      "duration": 0.0161,
      "velocity": 124,
      "chip": "ym2612"
    },
    {
      "channel": 4,
      "note": 77,
      "start": 29.93,
      "duration": 0.0161,
      "velocity": 97,
      "chip": "ym2612"
    },
    {
      "channel": 3,
      "note": 80,
      "start": 29.9311,
      "duration": 0.0161,
      "velocity": 97,
      "chip": "ym2612"
    },
    {
      "channel": 2,
      "note": 61,
      "start": 29.9322,
      "duration": 0.0161,
      "velocity": 100,
      "chip": "ym2612"
    },
    {
      "channel": 1,
      "note": 66,
      "start": 29.9448,
      "duration": 0.0161,
      "velocity": 124,
      "chip": "ym2612"
    },
    {
      "channel": 4,
      "note": 77,
      "start": 29.9461,
      "duration": 0.0161,
      "velocity": 97,
      "chip": "ym2612"
    },
    {
      "channel": 3,
      "note": 80,
      "start": 29.9472,
      "duration": 0.0161,
      "velocity": 97,
      "chip": "ym2612"
    },
    {
      "channel": 2,
      "note": 61,
      "start": 29.9483,
      "duration": 0.0161,
      "velocity": 100,
      "chip": "ym2612"
    },
    {
      "channel": 1,
      "note": 65,
      "start": 29.9609,
      "duration": 0.0163,
      "velocity": 124,
      "chip": "ym2612"
    },
    {
      "channel": 4,
      "note": 77,
      "start": 29.9621,
      "duration": 0.0163,
      "velocity": 97,
      "chip": "ym2612"
    },
    {
      "channel": 3,
      "note": 80,
      "start": 29.9633,
      "duration": 0.0164,
      "velocity": 97,
      "chip": "ym2612"
    },
    {
      "channel": 1,
      "note": 64,
      "start": 29.9772,
      "duration": 0.0167,
      "velocity": 124,
      "chip": "ym2612"
    },
    {
      "channel": 4,
      "note": 77,
      "start": 29.9785,
      "duration": 0.0167,
      "velocity": 97,
      "chip": "ym2612"
    },
    {
      "channel": 3,
      "note": 80,
      "start": 29.9797,
      "duration": 0.0167,
      "velocity": 97,
      "chip": "ym2612"
    },
    {
      "channel": 1,
      "note": 62,
      "start": 29.9939,
      "duration": 0.0163,
      "velocity": 124,
      "chip": "ym2612"
    },
    {
      "channel": 4,
      "note": 77,
      "start": 29.9952,
      "duration": 0.0163,
      "velocity": 97,
      "chip": "ym2612"
    },
    {
      "channel": 3,
      "note": 80,
      "start": 29.9964,
      "duration": 0.0162,
      "velocity": 97,
      "chip": "ym2612"
    },
    {
      "channel": 2,
      "note": 59,
      "start": 29.9978,
      "duration": 0.0161,
      "velocity": 100,
      "chip": "ym2612"
    },
    {
      "channel": 1,
      "note": 61,
      "start": 30.0102,
      "duration": 0.015,
      "velocity": 124,
      "chip": "ym2612"
    },
    {
      "channel": 4,
      "note": 77,
      "start": 30.0115,
      "duration": 0.015,
      "velocity": 97,
      "chip": "ym2612"
    },
    {
      "channel": 3,
      "note": 80,
      "start": 30.0127,
      "duration": 0.0151,
      "velocity": 97,
      "chip": "ym2612"
    },
    {
      "channel": 2,
      "note": 59,
      "start": 30.0139,
      "duration": 0.0149,
      "velocity": 100,
      "chip": "ym2612"
    },
    {
      "channel": 1,
      "note": 60,
      "start": 30.0252,
      "duration": 0.0186,
      "velocity": 124,
      "chip": "ym2612"
    },
    {
      "channel": 4,
      "note": 77,
      "start": 30.0265,
      "duration": 0.0187,
      "velocity": 97,
      "chip": "ym2612"
    },
    {
      "channel": 3,
      "note": 80,
      "start": 30.0277,
      "duration": 0.0186,
      "velocity": 97,
      "chip": "ym2612"
    },
    {
      "channel": 2,
      "note": 59,
      "start": 30.0288,
      "duration": 0.0187,
      "velocity": 100,
      "chip": "ym2612"
    },
    {
      "channel": 1,
      "note": 59,
      "start": 30.0439,
      "duration": 0.0163,
      "velocity": 124,
      "chip": "ym2612"
    },
    {
      "channel": 4,
      "note": 77,
      "start": 30.0452,
      "duration": 0.0163,
      "velocity": 97,
      "chip": "ym2612"
    },
    {
      "channel": 3,
      "note": 80,
      "start": 30.0464,
      "duration": 0.0163,
      "velocity": 97,
      "chip": "ym2612"
    },
    {
      "channel": 2,
      "note": 59,
      "start": 30.0475,
      "duration": 0.0163,
      "velocity": 100,
      "chip": "ym2612"
    },
    {
      "channel": 1,
      "note": 57,
      "start": 30.0602,
      "duration": 0.0157,
      "velocity": 124,
      "chip": "ym2612"
    },
    {
      "channel": 4,
      "note": 77,
      "start": 30.0615,
      "duration": 0.0157,
      "velocity": 97,
      "chip": "ym2612"
    },
    {
      "channel": 3,
      "note": 80,
      "start": 30.0627,
      "duration": 0.0157,
      "velocity": 97,
      "chip": "ym2612"
    },
    {
      "channel": 2,
      "note": 59,
      "start": 30.0638,
      "duration": 0.0157,
      "velocity": 100,
      "chip": "ym2612"
    },
    {
      "channel": 1,
      "note": 56,
      "start": 30.0759,
      "duration": 0.0141,
      "velocity": 124,
      "chip": "ym2612"
    },
    {
      "channel": 4,
      "note": 77,
      "start": 30.0772,
      "duration": 0.0141,
      "velocity": 97,
      "chip": "ym2612"
    },
    {
      "channel": 3,
      "note": 80,
      "start": 30.0784,
      "duration": 0.0141,
      "velocity": 97,
      "chip": "ym2612"
    },
    {
      "channel": 2,
      "note": 59,
      "start": 30.0795,
      "duration": 0.0141,
      "velocity": 100,
      "chip": "ym2612"
    },
    {
      "channel": 1,
      "note": 55,
      "start": 30.09,
      "duration": 0.0158,
      "velocity": 124,
      "chip": "ym2612"
    },
    {
      "channel": 4,
      "note": 77,
      "start": 30.0913,
      "duration": 0.0185,
      "velocity": 97,
      "chip": "ym2612"
    },
    {
      "channel": 3,
      "note": 80,
      "start": 30.0924,
      "duration": 0.0185,
      "velocity": 97,
      "chip": "ym2612"
    },
    {
      "channel": 2,
      "note": 59,
      "start": 30.0936,
      "duration": 0.0185,
      "velocity": 100,
      "chip": "ym2612"
    },
    {
      "channel": 1,
      "note": 53,
      "start": 30.1058,
      "duration": 0.0161,
      "velocity": 124,
      "chip": "ym2612"
    },
    {
      "channel": 4,
      "note": 77,
      "start": 30.1098,
      "duration": 0.0161,
      "velocity": 97,
      "chip": "ym2612"
    },
    {
      "channel": 3,
      "note": 80,
      "start": 30.1109,
      "duration": 0.0162,
      "velocity": 97,
      "chip": "ym2612"
    },
    {
      "channel": 2,
      "note": 59,
      "start": 30.1121,
      "duration": 0.0161,
      "velocity": 100,
      "chip": "ym2612"
    },
    {
      "channel": 1,
      "note": 52,
      "start": 30.1219,
      "duration": 0.0161,
      "velocity": 124,
      "chip": "ym2612"
    },
    {
      "channel": 4,
      "note": 77,
      "start": 30.1259,
      "duration": 0.0133,
      "velocity": 97,
      "chip": "ym2612"
    },
    {
      "channel": 3,
      "note": 80,
      "start": 30.1271,
      "duration": 0.0157,
      "velocity": 97,
      "chip": "ym2612"
    },
    {
      "channel": 2,
      "note": 59,
      "start": 30.1282,
      "duration": 0.0157,
      "velocity": 100,
      "chip": "ym2612"
    },
    {
      "channel": 1,
      "note": 51,
      "start": 30.138,
      "duration": 0.0153,
      "velocity": 1,
      "chip": "ym2612"
    },
    {
      "channel": 4,
      "note": 77,
      "start": 30.1392,
      "duration": 0.0153,
      "velocity": 97,
      "chip": "ym2612"
    },
    {
      "channel": 3,
      "note": 80,
      "start": 30.1428,
      "duration": 0.0129,
      "velocity": 97,
      "chip": "ym2612"
    },
    {
      "channel": 2,
      "note": 59,
      "start": 30.1439,
      "duration": 0.0132,
      "velocity": 100,
      "chip": "ym2612"
    },
    {
      "channel": 4,
      "note": 77,
      "start": 30.1545,
      "duration": 0.0153,
      "velocity": 97,
      "chip": "ym2612"
    },
    {
      "channel": 3,
      "note": 80,
      "start": 30.1557,
      "duration": 0.0153,
      "velocity": 97,
      "chip": "ym2612"
    },
    {
      "channel": 4,
      "note": 77,
      "start": 30.1698,
      "duration": 0.0223,
      "velocity": 97,
      "chip": "ym2612"
    },
    {
      "channel": 3,
      "note": 80,
      "start": 30.171,
      "duration": 0.0223,
      "velocity": 97,
      "chip": "ym2612"
    },
    {
      "channel": 1,
      "note": 78,
      "start": 30.1881,
      "duration": 0.0143,
      "velocity": 124,
      "chip": "ym2612"
    },
    {
      "channel": 4,
      "note": 77,
      "start": 30.1921,
      "duration": 0.0116,
      "velocity": 97,
      "chip": "ym2612"
    },
    {
      "channel": 3,
      "note": 80,
      "start": 30.1932,
      "duration": 0.0117,
      "velocity": 97,
      "chip": "ym2612"
    },
    {
      "channel": 1,
      "note": 76,
      "start": 30.2024,
      "duration": 0.0161,
      "velocity": 124,
      "chip": "ym2612"
    },
    {
      "channel": 4,
      "note": 77,
      "start": 30.2037,
      "duration": 0.0161,
      "velocity": 97,
      "chip": "ym2612"
    },
    {
      "channel": 3,
      "note": 80,
      "start": 30.2049,
      "duration": 0.016,
      "velocity": 97,
      "chip": "ym2612"
    },
    {
      "channel": 1,
      "note": 75,
      "start": 30.2185,
      "duration": 0.0161,
      "velocity": 124,
      "chip": "ym2612"
    },
    {
      "channel": 4,
      "note": 77,
      "start": 30.2198,
      "duration": 0.0161,
      "velocity": 97,
      "chip": "ym2612"
    },
    {
      "channel": 3,
      "note": 80,
      "start": 30.2209,
      "duration": 0.0161,
      "velocity": 97,
      "chip": "ym2612"
    },
    {
      "channel": 1,
      "note": 74,
      "start": 30.2346,
      "duration": 0.0161,
      "velocity": 124,
      "chip": "ym2612"
    },
    {
      "channel": 4,
      "note": 77,
      "start": 30.2359,
      "duration": 0.0161,
      "velocity": 97,
      "chip": "ym2612"
    },
    {
      "channel": 3,
      "note": 80,
      "start": 30.237,
      "duration": 0.0162,
      "velocity": 97,
      "chip": "ym2612"
    },
    {
      "channel": 1,
      "note": 72,
      "start": 30.2507,
      "duration": 0.0161,
      "velocity": 124,
      "chip": "ym2612"
    },
    {
      "channel": 4,
      "note": 77,
      "start": 30.252,
      "duration": 0.0161,
      "velocity": 97,
      "chip": "ym2612"
    },
    {
      "channel": 3,
      "note": 80,
      "start": 30.2532,
      "duration": 0.016,
      "velocity": 97,
      "chip": "ym2612"
    },
    {
      "channel": 1,
      "note": 71,
      "start": 30.2668,
      "duration": 0.0179,
      "velocity": 124,
      "chip": "ym2612"
    },
    {
      "channel": 4,
      "note": 77,
      "start": 30.268,
      "duration": 0.0179,
      "velocity": 97,
      "chip": "ym2612"
    },
    {
      "channel": 3,
      "note": 80,
      "start": 30.2692,
      "duration": 0.0179,
      "velocity": 97,
      "chip": "ym2612"
    },
    {
      "channel": 1,
      "note": 78,
      "start": 30.2846,
      "duration": 0.0144,
      "velocity": 124,
      "chip": "ym2612"
    },
    {
      "channel": 4,
      "note": 77,
      "start": 30.2859,
      "duration": 0.0144,
      "velocity": 97,
      "chip": "ym2612"
    },
    {
      "channel": 3,
      "note": 80,
      "start": 30.2871,
      "duration": 0.0143,
      "velocity": 97,
      "chip": "ym2612"
    },
    {
      "channel": 1,
      "note": 76,
      "start": 30.299,
      "duration": 0.016,
      "velocity": 124,
      "chip": "ym2612"
    },
    {
      "channel": 4,
      "note": 77,
      "start": 30.3003,
      "duration": 0.016,
      "velocity": 97,
      "chip": "ym2612"
    },
    {
      "channel": 3,
      "note": 80,
      "start": 30.3015,
      "duration": 0.016,
      "velocity": 97,
      "chip": "ym2612"
    },
    {
      "channel": 1,
      "note": 75,
      "start": 30.3151,
      "duration": 0.0161,
      "velocity": 124,
      "chip": "ym2612"
    },
    {
      "channel": 4,
      "note": 77,
      "start": 30.3163,
      "duration": 0.0161,
      "velocity": 97,
      "chip": "ym2612"
    },
    {
      "channel": 3,
      "note": 80,
      "start": 30.3175,
      "duration": 0.0162,
      "velocity": 97,
      "chip": "ym2612"
    },
    {
      "channel": 1,
      "note": 74,
      "start": 30.3312,
      "duration": 0.0161,
      "velocity": 124,
      "chip": "ym2612"
    },
    {
      "channel": 4,
      "note": 77,
      "start": 30.3324,
      "duration": 0.0162,
      "velocity": 97,
      "chip": "ym2612"
    },
    {
      "channel": 3,
      "note": 80,
      "start": 30.3337,
      "duration": 0.0161,
      "velocity": 97,
      "chip": "ym2612"
    },
    {
      "channel": 1,
      "note": 72,
      "start": 30.3473,
      "duration": 0.0161,
      "velocity": 124,
      "chip": "ym2612"
    },
    {
      "channel": 4,
      "note": 77,
      "start": 30.3486,
      "duration": 0.0161,
      "velocity": 97,
      "chip": "ym2612"
    },
    {
      "channel": 3,
      "note": 80,
      "start": 30.3497,
      "duration": 0.0161,
      "velocity": 97,
      "chip": "ym2612"
    },
    {
      "channel": 1,
      "note": 71,
      "start": 30.3634,
      "duration": 0.0179,
      "velocity": 124,
      "chip": "ym2612"
    },
    {
      "channel": 4,
      "note": 77,
      "start": 30.3647,
      "duration": 0.0179,
      "velocity": 97,
      "chip": "ym2612"
    },
    {
      "channel": 3,
      "note": 80,
      "start": 30.3658,
      "duration": 0.0179,
      "velocity": 97,
      "chip": "ym2612"
    },
    {
      "channel": 1,
      "note": 78,
      "start": 30.3813,
      "duration": 0.0144,
      "velocity": 124,
      "chip": "ym2612"
    },
    {
      "channel": 4,
      "note": 77,
      "start": 30.3826,
      "duration": 0.0144,
      "velocity": 97,
      "chip": "ym2612"
    },
    {
      "channel": 3,
      "note": 80,
      "start": 30.3838,
      "duration": 0.0143,
      "velocity": 97,
      "chip": "ym2612"
    },
    {
      "channel": 2,
      "note": 61,
      "start": 30.3852,
      "duration": 0.0141,
      "velocity": 100,
      "chip": "ym2612"
    },
    {
      "channel": 1,
      "note": 76,
      "start": 30.3957,
      "duration": 0.016,
      "velocity": 124,
      "chip": "ym2612"
    },
    {
      "channel": 4,
      "note": 77,
      "start": 30.3969,
      "duration": 0.016,
      "velocity": 97,
      "chip": "ym2612"
    },
    {
      "channel": 3,
      "note": 80,
      "start": 30.3981,
      "duration": 0.016,
      "velocity": 97,
      "chip": "ym2612"
    },
    {
      "channel": 2,
      "note": 61,
      "start": 30.3993,
      "duration": 0.016,
      "velocity": 100,
      "chip": "ym2612"
    },
    {
      "channel": 1,
      "note": 75,
      "start": 30.4117,
      "duration": 0.0161,
      "velocity": 124,
      "chip": "ym2612"
    },
    {
      "channel": 4,
      "note": 77,
      "start": 30.413,
      "duration": 0.0161,
      "velocity": 97,
      "chip": "ym2612"
    },
    {
      "channel": 3,
      "note": 80,
      "start": 30.4141,
      "duration": 0.0161,
      "velocity": 97,
      "chip": "ym2612"
    },
    {
      "channel": 2,
      "note": 61,
      "start": 30.4153,
      "duration": 0.0161,
      "velocity": 100,
      "chip": "ym2612"
    },
    {
      "channel": 1,
      "note": 74,
      "start": 30.4278,
      "duration": 0.0162,
      "velocity": 124,
      "chip": "ym2612"
    },
    {
      "channel": 4,
      "note": 77,
      "start": 30.4291,
      "duration": 0.0161,
      "velocity": 97,
      "chip": "ym2612"
    },
    {
      "channel": 3,
      "note": 80,
      "start": 30.4302,
      "duration": 0.0162,
      "velocity": 97,
      "chip": "ym2612"
    },
    {
      "channel": 2,
      "note": 61,
      "start": 30.4314,
      "duration": 0.0161,
      "velocity": 100,
      "chip": "ym2612"
    },
    {
      "channel": 1,
      "note": 72,
      "start": 30.4439,
      "duration": 0.0166,
      "velocity": 124,
      "chip": "ym2612"
    },
    {
      "channel": 4,
      "note": 77,
      "start": 30.4452,
      "duration": 0.0167,
      "velocity": 97,
      "chip": "ym2612"
    },
    {
      "channel": 3,
      "note": 80,
      "start": 30.4464,
      "duration": 0.0167,
      "velocity": 97,
      "chip": "ym2612"
    },
    {
      "channel": 2,
      "note": 61,
      "start": 30.4475,
      "duration": 0.0167,
      "velocity": 100,
      "chip": "ym2612"
    },
    {
      "channel": 1,
      "note": 71,
      "start": 30.4605,
      "duration": 0.0163,
      "velocity": 124,
      "chip": "ym2612"
    },
    {
      "channel": 4,
      "note": 77,
      "start": 30.4619,
      "duration": 0.0163,
      "velocity": 97,
      "chip": "ym2612"
    },
    {
      "channel": 3,
      "note": 80,
      "start": 30.463,
      "duration": 0.0163,
      "velocity": 97,
      "chip": "ym2612"
    },
    {
      "channel": 2,
      "note": 61,
      "start": 30.4642,
      "duration": 0.0163,
      "velocity": 100,
      "chip": "ym2612"
    },
    {
      "channel": 1,
      "note": 70,
      "start": 30.4769,
      "duration": 0.0153,
      "velocity": 124,
      "chip": "ym2612"
    },
    {
      "channel": 4,
      "note": 77,
      "start": 30.4782,
      "duration": 0.0153,
      "velocity": 97,
      "chip": "ym2612"
    },
    {
      "channel": 3,
      "note": 80,
      "start": 30.4793,
      "duration": 0.0153,
      "velocity": 97,
      "chip": "ym2612"
    },
    {
      "channel": 2,
      "note": 61,
      "start": 30.4805,
      "duration": 0.0153,
      "velocity": 100,
      "chip": "ym2612"
    },
    {
      "channel": 1,
      "note": 69,
      "start": 30.4922,
      "duration": 0.0185,
      "velocity": 124,
      "chip": "ym2612"
    },
    {
      "channel": 4,
      "note": 77,
      "start": 30.4934,
      "duration": 0.0184,
      "velocity": 97,
      "chip": "ym2612"
    },
    {
      "channel": 3,
      "note": 80,
      "start": 30.4946,
      "duration": 0.0184,
      "velocity": 97,
      "chip": "ym2612"
    },
    {
      "channel": 2,
      "note": 61,
      "start": 30.4958,
      "duration": 0.0184,
      "velocity": 100,
      "chip": "ym2612"
    },
    {
      "channel": 1,
      "note": 68,
      "start": 30.5106,
      "duration": 0.0165,
      "velocity": 124,
      "chip": "ym2612"
    },
    {
      "channel": 4,
      "note": 77,
      "start": 30.5119,
      "duration": 0.0166,
      "velocity": 97,
      "chip": "ym2612"
    },
    {
      "channel": 3,
      "note": 80,
      "start": 30.5131,
      "duration": 0.0165,
      "velocity": 97,
      "chip": "ym2612"
    },
    {
      "channel": 2,
      "note": 61,
      "start": 30.5142,
      "duration": 0.0166,
      "velocity": 100,
      "chip": "ym2612"
    },
    {
      "channel": 1,
      "note": 66,
      "start": 30.5271,
      "duration": 0.0157,
      "velocity": 124,
      "chip": "ym2612"
    },
    {
      "channel": 4,
      "note": 77,
      "start": 30.5284,
      "duration": 0.0157,
      "velocity": 97,
      "chip": "ym2612"
    },
    {
      "channel": 3,
      "note": 80,
      "start": 30.5296,
      "duration": 0.0158,
      "velocity": 97,
      "chip": "ym2612"
    },
    {
      "channel": 2,
      "note": 61,
      "start": 30.5307,
      "duration": 0.0158,
      "velocity": 100,
      "chip": "ym2612"
    },
    {
      "channel": 1,
      "note": 65,
      "start": 30.5429,
      "duration": 0.0141,
      "velocity": 124,
      "chip": "ym2612"
    },
    {
      "channel": 4,
      "note": 77,
      "start": 30.5441,
      "duration": 0.0141,
      "velocity": 97,
      "chip": "ym2612"
    },
    {
      "channel": 3,
      "note": 80,
      "start": 30.5454,
      "duration": 0.014,
      "velocity": 97,
      "chip": "ym2612"
    },
    {
      "channel": 1,
      "note": 64,
      "start": 30.5569,
      "duration": 0.0203,
      "velocity": 124,
      "chip": "ym2612"
    },
    {
      "channel": 4,
      "note": 77,
      "start": 30.5582,
      "duration": 0.0204,
      "velocity": 97,
      "chip": "ym2612"
    },
    {
      "channel": 3,
      "note": 80,
      "start": 30.5593,
      "duration": 0.0204,
      "velocity": 97,
      "chip": "ym2612"
    },
    {
      "channel": 1,
      "note": 78,
      "start": 30.5773,
      "duration": 0.0116,
      "velocity": 124,
      "chip": "ym2612"
    },
    {
      "channel": 4,
      "note": 77,
      "start": 30.5785,
      "duration": 0.0143,
      "velocity": 97,
      "chip": "ym2612"
    },
    {
      "channel": 3,
      "note": 80,
      "start": 30.5797,
      "duration": 0.0144,
      "velocity": 97,
      "chip": "ym2612"
    },
    {
      "channel": 2,
      "note": 59,
      "start": 30.5811,
      "duration": 0.0141,
      "velocity": 100,
      "chip": "ym2612"
    },
    {
      "channel": 1,
      "note": 76,
      "start": 30.5889,
      "duration": 0.016,
      "velocity": 124,
      "chip": "ym2612"
    },
    {
      "channel": 4,
      "note": 77,
      "start": 30.5929,
      "duration": 0.0157,
      "velocity": 97,
      "chip": "ym2612"
    },
    {
      "channel": 3,
      "note": 80,
      "start": 30.5941,
      "duration": 0.0156,
      "velocity": 97,
      "chip": "ym2612"
    },
    {
      "channel": 2,
      "note": 59,
      "start": 30.5952,
      "duration": 0.0156,
      "velocity": 100,
      "chip": "ym2612"
    },
    {
      "channel": 1,
      "note": 75,
      "start": 30.6049,
      "duration": 0.0161,
      "velocity": 124,
      "chip": "ym2612"
    },
    {
      "channel": 4,
      "note": 77,
      "start": 30.6086,
      "duration": 0.0137,
      "velocity": 97,
      "chip": "ym2612"
    },
    {
      "channel": 3,
      "note": 80,
      "start": 30.6097,
      "duration": 0.0141,
      "velocity": 97,
      "chip": "ym2612"
    },
    {
      "channel": 2,
      "note": 59,
      "start": 30.6109,
      "duration": 0.014,
      "velocity": 100,
      "chip": "ym2612"
    },
    {
      "channel": 1,
      "note": 74,
      "start": 30.621,
      "duration": 0.0161,
      "velocity": 124,
      "chip": "ym2612"
    },
    {
      "channel": 4,
      "note": 77,
      "start": 30.6222,
      "duration": 0.0162,
      "velocity": 97,
      "chip": "ym2612"
    },
    {
      "channel": 3,
      "note": 80,
      "start": 30.6238,
      "duration": 0.0186,
      "velocity": 97,
      "chip": "ym2612"
    },
    {
      "channel": 2,
      "note": 59,
      "start": 30.6249,
      "duration": 0.0186,
      "velocity": 100,
      "chip": "ym2612"
    },
    {
      "channel": 1,
      "note": 72,
      "start": 30.6371,
      "duration": 0.0161,
      "velocity": 124,
      "chip": "ym2612"
    },
    {
      "channel": 4,
      "note": 77,
      "start": 30.6384,
      "duration": 0.0161,
      "velocity": 97,
      "chip": "ym2612"
    },
    {
      "channel": 3,
      "note": 80,
      "start": 30.6424,
      "duration": 0.0133,
      "velocity": 97,
      "chip": "ym2612"
    },
    {
      "channel": 2,
      "note": 59,
      "start": 30.6435,
      "duration": 0.016,
      "velocity": 100,
      "chip": "ym2612"
    },
    {
      "channel": 1,
      "note": 71,
      "start": 30.6532,
      "duration": 0.0179,
      "velocity": 124,
      "chip": "ym2612"
    },
    {
      "channel": 4,
      "note": 77,
      "start": 30.6545,
      "duration": 0.0179,
      "velocity": 97,
      "chip": "ym2612"
    },
    {
      "channel": 3,
      "note": 80,
      "start": 30.6556,
      "duration": 0.0203,
      "velocity": 97,
      "chip": "ym2612"
    },
    {
      "channel": 2,
      "note": 59,
      "start": 30.6595,
      "duration": 0.0176,
      "velocity": 100,
      "chip": "ym2612"
    },
    {
      "channel": 1,
      "note": 78,
      "start": 30.6711,
      "duration": 0.0144,
      "velocity": 124,
      "chip": "ym2612"
    },
    {
      "channel": 4,
      "note": 77,
      "start": 30.6724,
      "duration": 0.0144,
      "velocity": 97,
      "chip": "ym2612"
    },
    {
      "channel": 3,
      "note": 80,
      "start": 30.6759,
      "duration": 0.012,
      "velocity": 97,
      "chip": "ym2612"
    },
    {
      "channel": 2,
      "note": 59,
      "start": 30.6771,
      "duration": 0.012,
      "velocity": 100,
      "chip": "ym2612"
    },
    {
      "channel": 1,
      "note": 76,
      "start": 30.6855,
      "duration": 0.016,
      "velocity": 124,
      "chip": "ym2612"
    },
    {
      "channel": 4,
      "note": 77,
      "start": 30.6868,
      "duration": 0.016,
      "velocity": 97,
      "chip": "ym2612"
    },
    {
      "channel": 3,
      "note": 80,
      "start": 30.6879,
      "duration": 0.016,
      "velocity": 97,
      "chip": "ym2612"
    },
    {
      "channel": 2,
      "note": 59,
      "start": 30.689,
      "duration": 0.016,
      "velocity": 100,
      "chip": "ym2612"
    },
    {
      "channel": 1,
      "note": 75,
      "start": 30.7015,
      "duration": 0.0161,
      "velocity": 124,
      "chip": "ym2612"
    },
    {
      "channel": 4,
      "note": 77,
      "start": 30.7028,
      "duration": 0.0161,
      "velocity": 97,
      "chip": "ym2612"
    },
    {
      "channel": 3,
      "note": 80,
      "start": 30.7039,
      "duration": 0.0161,
      "velocity": 97,
      "chip": "ym2612"
    },
    {
      "channel": 2,
      "note": 59,
      "start": 30.7051,
      "duration": 0.0161,
      "velocity": 100,
      "chip": "ym2612"
    },
    {
      "channel": 1,
      "note": 74,
      "start": 30.7176,
      "duration": 0.0161,
      "velocity": 124,
      "chip": "ym2612"
    },
    {
      "channel": 4,
      "note": 77,
      "start": 30.7189,
      "duration": 0.0161,
      "velocity": 97,
      "chip": "ym2612"
    },
    {
      "channel": 3,
      "note": 80,
      "start": 30.72,
      "duration": 0.0161,
      "velocity": 97,
      "chip": "ym2612"
    },
    {
      "channel": 2,
      "note": 59,
      "start": 30.7212,
      "duration": 0.0161,
      "velocity": 100,
      "chip": "ym2612"
    },
    {
      "channel": 1,
      "note": 72,
      "start": 30.7337,
      "duration": 0.0161,
      "velocity": 124,
      "chip": "ym2612"
    },
    {
      "channel": 4,
      "note": 77,
      "start": 30.735,
      "duration": 0.0161,
      "velocity": 97,
      "chip": "ym2612"
    },
    {
      "channel": 3,
      "note": 80,
      "start": 30.7361,
      "duration": 0.0161,
      "velocity": 97,
      "chip": "ym2612"
    },
    {
      "channel": 1,
      "note": 71,
      "start": 30.7498,
      "duration": 0.0179,
      "velocity": 124,
      "chip": "ym2612"
    },
    {
      "channel": 4,
      "note": 77,
      "start": 30.7511,
      "duration": 0.0179,
      "velocity": 97,
      "chip": "ym2612"
    },
    {
      "channel": 3,
      "note": 80,
      "start": 30.7522,
      "duration": 0.0179,
      "velocity": 97,
      "chip": "ym2612"
    },
    {
      "channel": 1,
      "note": 78,
      "start": 30.7677,
      "duration": 0.0144,
      "velocity": 124,
      "chip": "ym2612"
    },
    {
      "channel": 4,
      "note": 77,
      "start": 30.769,
      "duration": 0.0143,
      "velocity": 97,
      "chip": "ym2612"
    },
    {
      "channel": 3,
      "note": 80,
      "start": 30.7702,
      "duration": 0.0144,
      "velocity": 97,
      "chip": "ym2612"
    },
    {
      "channel": 2,
      "note": 56,
      "start": 30.7716,
      "duration": 0.0141,
      "velocity": 100,
      "chip": "ym2612"
    },
    {
      "channel": 1,
      "note": 76,
      "start": 30.782,
      "duration": 0.016,
      "velocity": 124,
      "chip": "ym2612"
    },
    {
      "channel": 4,
      "note": 77,
      "start": 30.7833,
      "duration": 0.0161,
      "velocity": 97,
      "chip": "ym2612"
    },
    {
      "channel": 3,
      "note": 80,
      "start": 30.7845,
      "duration": 0.016,
      "velocity": 97,
      "chip": "ym2612"
    },
    {
      "channel": 2,
      "note": 56,
      "start": 30.7857,
      "duration": 0.016,
      "velocity": 100,
      "chip": "ym2612"
    },
    {
      "channel": 1,
      "note": 75,
      "start": 30.7981,
      "duration": 0.0162,
      "velocity": 124,
      "chip": "ym2612"
    },
    {
      "channel": 4,
      "note": 77,
      "start": 30.7994,
      "duration": 0.0161,
      "velocity": 97,
      "chip": "ym2612"
    },
    {
      "channel": 3,
      "note": 80,
      "start": 30.8006,
      "duration": 0.0161,
      "velocity": 97,
      "chip": "ym2612"
    },
    {
      "channel": 2,
      "note": 56,
      "start": 30.8017,
      "duration": 0.0161,
      "velocity": 100,
      "chip": "ym2612"
    },
    {
      "channel": 1,
      "note": 74,
      "start": 30.8142,
      "duration": 0.0161,
      "velocity": 124,
      "chip": "ym2612"
    },
    {
      "channel": 4,
      "note": 77,
      "start": 30.8155,
      "duration": 0.0161,
      "velocity": 97,
      "chip": "ym2612"
    },
    {
      "channel": 3,
      "note": 80,
      "start": 30.8167,
      "duration": 0.0161,
      "velocity": 97,
      "chip": "ym2612"
    },
    {
      "channel": 2,
      "note": 56,
      "start": 30.8178,
      "duration": 0.0161,
      "velocity": 100,
      "chip": "ym2612"
    },
    {
      "channel": 1,
      "note": 72,
      "start": 30.8303,
      "duration": 0.0161,
      "velocity": 124,
      "chip": "ym2612"
    },
    {
      "channel": 4,
      "note": 77,
      "start": 30.8316,
      "duration": 0.0161,
      "velocity": 97,
      "chip": "ym2612"
    },
    {
      "channel": 3,
      "note": 80,
      "start": 30.8327,
      "duration": 0.0161,
      "velocity": 97,
      "chip": "ym2612"
    },
    {
      "channel": 2,
      "note": 56,
      "start": 30.8339,
      "duration": 0.0161,
      "velocity": 100,
      "chip": "ym2612"
    },
    {
      "channel": 1,
      "note": 71,
      "start": 30.8464,
      "duration": 0.0161,
      "velocity": 124,
      "chip": "ym2612"
    },
    {
      "channel": 4,
      "note": 77,
      "start": 30.8477,
      "duration": 0.0161,
      "velocity": 97,
      "chip": "ym2612"
    },
    {
      "channel": 3,
      "note": 80,
      "start": 30.8488,
      "duration": 0.0161,
      "velocity": 97,
      "chip": "ym2612"
    },
    {
      "channel": 2,
      "note": 56,
      "start": 30.85,
      "duration": 0.0161,
      "velocity": 100,
      "chip": "ym2612"
    },
    {
      "channel": 1,
      "note": 70,
      "start": 30.8625,
      "duration": 0.0161,
      "velocity": 124,
      "chip": "ym2612"
    },
    {
      "channel": 4,
      "note": 77,
      "start": 30.8638,
      "duration": 0.0161,
      "velocity": 97,
      "chip": "ym2612"
    },
    {
      "channel": 3,
      "note": 80,
      "start": 30.8649,
      "duration": 0.0161,
      "velocity": 97,
      "chip": "ym2612"
    },
    {
      "channel": 2,
      "note": 56,
      "start": 30.8661,
      "duration": 0.0161,
      "velocity": 100,
      "chip": "ym2612"
    },
    {
      "channel": 1,
      "note": 69,
      "start": 30.8786,
      "duration": 0.0161,
      "velocity": 124,
      "chip": "ym2612"
    },
    {
      "channel": 4,
      "note": 77,
      "start": 30.8799,
      "duration": 0.0161,
      "velocity": 97,
      "chip": "ym2612"
    },
    {
      "channel": 3,
      "note": 80,
      "start": 30.881,
      "duration": 0.0161,
      "velocity": 97,
      "chip": "ym2612"
    },
    {
      "channel": 2,
      "note": 56,
      "start": 30.8822,
      "duration": 0.0162,
      "velocity": 100,
      "chip": "ym2612"
    },
    {
      "channel": 1,
      "note": 68,
      "start": 30.8947,
      "duration": 0.0161,
      "velocity": 124,
      "chip": "ym2612"
    },
    {
      "channel": 4,
      "note": 77,
      "start": 30.896,
      "duration": 0.0161,
      "velocity": 97,
      "chip": "ym2612"
    },
    {
      "channel": 3,
      "note": 80,
      "start": 30.8972,
      "duration": 0.016,
      "velocity": 97,
      "chip": "ym2612"
    },
    {
      "channel": 2,
      "note": 56,
      "start": 30.8983,
      "duration": 0.016,
      "velocity": 100,
      "chip": "ym2612"
    },
    {
      "channel": 1,
      "note": 66,
      "start": 30.9108,
      "duration": 0.0164,
      "velocity": 124,
      "chip": "ym2612"
    },
    {
      "channel": 4,
      "note": 77,
      "start": 30.9121,
      "duration": 0.0165,
      "velocity": 97,
      "chip": "ym2612"
    },
    {
      "channel": 3,
      "note": 80,
      "start": 30.9132,
      "duration": 0.0165,
      "velocity": 97,
      "chip": "ym2612"
    },
    {
      "channel": 2,
      "note": 56,
      "start": 30.9144,
      "duration": 0.0165,
      "velocity": 100,
      "chip": "ym2612"
    },
    {
      "channel": 1,
      "note": 65,
      "start": 30.9272,
      "duration": 0.0163,
      "velocity": 124,
      "chip": "ym2612"
    },
    {
      "channel": 4,
      "note": 77,
      "start": 30.9285,
      "duration": 0.0163,
      "velocity": 97,
      "chip": "ym2612"
    },
    {
      "channel": 3,
      "note": 80,
      "start": 30.9297,
      "duration": 0.0163,
      "velocity": 97,
      "chip": "ym2612"
    },
    {
      "channel": 1,
      "note": 64,
      "start": 30.9436,
      "duration": 0.0156,
      "velocity": 124,
      "chip": "ym2612"
    },
    {
      "channel": 4,
      "note": 77,
      "start": 30.9448,
      "duration": 0.0193,
      "velocity": 97,
      "chip": "ym2612"
    },
    {
      "channel": 3,
      "note": 80,
      "start": 30.946,
      "duration": 0.0196,
      "velocity": 97,
      "chip": "ym2612"
    },
    {
      "channel": 1,
      "note": 62,
      "start": 30.9591,
      "duration": 0.0181,
      "velocity": 124,
      "chip": "ym2612"
    },
    {
      "channel": 0,
      "note": 36,
      "start": 30.9627,
      "duration": 0.0163,
      "velocity": 115,
      "chip": "ym2612"
    },
    {
      "channel": 4,
      "note": 81,
      "start": 30.9641,
      "duration": 0.0162,
      "velocity": 97,
      "chip": "ym2612"
    },
    {
      "channel": 3,
      "note": 84,
      "start": 30.9656,
      "duration": 0.0158,
      "velocity": 97,
      "chip": "ym2612"
    },
    {
      "channel": 2,
      "note": 53,
      "start": 30.9672,
      "duration": 0.0155,
      "velocity": 100,
      "chip": "ym2612"
    },
    {
      "channel": 1,
      "note": 61,
      "start": 30.9772,
      "duration": 0.0167,
      "velocity": 124,
      "chip": "ym2612"
    },
    {
      "channel": 0,
      "note": 36,
      "start": 30.979,
      "duration": 0.0166,
      "velocity": 115,
      "chip": "ym2612"
    },
    {
      "channel": 4,
      "note": 81,
      "start": 30.9803,
      "duration": 0.0165,
      "velocity": 97,
      "chip": "ym2612"
    },
    {
      "channel": 3,
      "note": 84,
      "start": 30.9815,
      "duration": 0.0165,
      "velocity": 97,
      "chip": "ym2612"
    },
    {
      "channel": 2,
      "note": 53,
      "start": 30.9826,
      "duration": 0.0165,
      "velocity": 100,
      "chip": "ym2612"
    },
    {
      "channel": 1,
      "note": 60,
      "start": 30.9939,
      "duration": 0.0159,
      "velocity": 124,
      "chip": "ym2612"
    },
    {
      "channel": 0,
      "note": 37,
      "start": 30.9956,
      "duration": 0.0159,
      "velocity": 115,
      "chip": "ym2612"
    },
    {
      "channel": 4,
      "note": 81,
      "start": 30.9968,
      "duration": 0.0159,
      "velocity": 97,
      "chip": "ym2612"
    },
    {
      "channel": 3,
      "note": 84,
      "start": 30.998,
      "duration": 0.0159,
      "velocity": 97,
      "chip": "ym2612"
    },
    {
      "channel": 2,
      "note": 53,
      "start": 30.9991,
      "duration": 0.0159,
      "velocity": 100,
      "chip": "ym2612"
    },
    {
      "channel": 1,
      "note": 59,
      "start": 31.0098,
      "duration": 0.0141,
      "velocity": 124,
      "chip": "ym2612"
    },
    {
      "channel": 0,
      "note": 37,
      "start": 31.0115,
      "duration": 0.0141,
      "velocity": 115,
      "chip": "ym2612"
    },
    {
      "channel": 4,
      "note": 81,
      "start": 31.0127,
      "duration": 0.014,
      "velocity": 97,
      "chip": "ym2612"
    },
    {
      "channel": 3,
      "note": 84,
      "start": 31.0139,
      "duration": 0.014,
      "velocity": 97,
      "chip": "ym2612"
    },
    {
      "channel": 2,
      "note": 53,
      "start": 31.015,
      "duration": 0.014,
      "velocity": 100,
      "chip": "ym2612"
    },
    {
      "channel": 1,
      "note": 57,
      "start": 31.0239,
      "duration": 0.0185,
      "velocity": 124,
      "chip": "ym2612"
    },
    {
      "channel": 0,
      "note": 38,
      "start": 31.0256,
      "duration": 0.0185,
      "velocity": 115,
      "chip": "ym2612"
    },
    {
      "channel": 4,
      "note": 81,
      "start": 31.0267,
      "duration": 0.0186,
      "velocity": 97,
      "chip": "ym2612"
    },
    {
      "channel": 3,
      "note": 84,
      "start": 31.0278,
      "duration": 0.0186,
      "velocity": 97,
      "chip": "ym2612"
    },
    {
      "channel": 2,
      "note": 53,
      "start": 31.029,
      "duration": 0.0186,
      "velocity": 100,
      "chip": "ym2612"
    },
    {
      "channel": 1,
      "note": 56,
      "start": 31.0424,
      "duration": 0.0134,
      "velocity": 124,
      "chip": "ym2612"
    },
    {
      "channel": 0,
      "note": 38,
      "start": 31.0441,
      "duration": 0.0161,
      "velocity": 115,
      "chip": "ym2612"
    },
    {
      "channel": 4,
      "note": 81,
      "start": 31.0453,
      "duration": 0.0161,
      "velocity": 97,
      "chip": "ym2612"
    },
    {
      "channel": 3,
      "note": 84,
      "start": 31.0464,
      "duration": 0.0161,
      "velocity": 97,
      "chip": "ym2612"
    },
    {
      "channel": 2,
      "note": 53,
      "start": 31.0476,
      "duration": 0.0161,
      "velocity": 100,
      "chip": "ym2612"
    },
    {
      "channel": 1,
      "note": 55,
      "start": 31.0557,
      "duration": 0.0161,
      "velocity": 124,
      "chip": "ym2612"
    },
    {
      "channel": 0,
      "note": 39,
      "start": 31.0602,
      "duration": 0.0158,
      "velocity": 115,
      "chip": "ym2612"
    },
    {
      "channel": 4,
      "note": 81,
      "start": 31.0614,
      "duration": 0.0157,
      "velocity": 97,
      "chip": "ym2612"
    },
    {
      "channel": 3,
      "note": 84,
      "start": 31.0625,
      "duration": 0.0157,
      "velocity": 97,
      "chip": "ym2612"
    },
    {
      "channel": 2,
      "note": 53,
      "start": 31.0637,
      "duration": 0.0157,
      "velocity": 100,
      "chip": "ym2612"
    },
    {
      "channel": 1,
      "note": 53,
      "start": 31.0718,
      "duration": 0.0161,
      "velocity": 124,
      "chip": "ym2612"
    },
    {
      "channel": 0,
      "note": 39,
      "start": 31.0759,
      "duration": 0.0141,
      "velocity": 115,
      "chip": "ym2612"
    },
    {
      "channel": 4,
      "note": 81,
      "start": 31.0771,
      "duration": 0.0141,
      "velocity": 97,
      "chip": "ym2612"
    },
    {
      "channel": 3,
      "note": 84,
      "start": 31.0782,
      "duration": 0.0141,
      "velocity": 97,
      "chip": "ym2612"
    },
    {
      "channel": 2,
      "note": 53,
      "start": 31.0794,
      "duration": 0.0141,
      "velocity": 100,
      "chip": "ym2612"
    },
    {
      "channel": 1,
      "note": 52,
      "start": 31.0879,
      "duration": 0.0161,
      "velocity": 124,
      "chip": "ym2612"
    },
    {
      "channel": 0,
      "note": 40,
      "start": 31.09,
      "duration": 0.0157,
      "velocity": 115,
      "chip": "ym2612"
    },
    {
      "channel": 4,
      "note": 81,
      "start": 31.0912,
      "duration": 0.0185,
      "velocity": 97,
      "chip": "ym2612"
    },
    {
      "channel": 3,
      "note": 84,
      "start": 31.0923,
      "duration": 0.0185,
      "velocity": 97,
      "chip": "ym2612"
    },
    {
      "channel": 2,
      "note": 53,
      "start": 31.0934,
      "duration": 0.0185,
      "velocity": 100,
      "chip": "ym2612"
    },
    {
      "channel": 1,
      "note": 51,
      "start": 31.104,
      "duration": 0.0153,
      "velocity": 1,
      "chip": "ym2612"
    },
    {
      "channel": 0,
      "note": 40,
      "start": 31.1057,
      "duration": 0.0153,
      "velocity": 115,
      "chip": "ym2612"
    },
    {
      "channel": 4,
      "note": 81,
      "start": 31.1097,
      "duration": 0.0125,
      "velocity": 97,
      "chip": "ym2612"
    },
    {
      "channel": 3,
      "note": 84,
      "start": 31.1108,
      "duration": 0.0154,
      "velocity": 97,
      "chip": "ym2612"
    },
    {
      "channel": 2,
      "note": 53,
      "start": 31.112,
      "duration": 0.0153,
      "velocity": 100,
      "chip": "ym2612"
    },
    {
      "channel": 0,
      "note": 40,
      "start": 31.121,
      "duration": 0.0153,
      "velocity": 115,
      "chip": "ym2612"
    },
    {
      "channel": 4,
      "note": 81,
      "start": 31.1222,
      "duration": 0.0153,
      "velocity": 97,
      "chip": "ym2612"
    },
    {
      "channel": 3,
      "note": 84,
      "start": 31.1261,
      "duration": 0.0124,
      "velocity": 97,
      "chip": "ym2612"
    },
    {
      "channel": 0,
      "note": 41,
      "start": 31.1363,
      "duration": 0.0161,
      "velocity": 115,
      "chip": "ym2612"
    },
    {
      "channel": 4,
      "note": 81,
      "start": 31.1375,
      "duration": 0.0161,
      "velocity": 97,
      "chip": "ym2612"
    },
    {
      "channel": 3,
      "note": 84,
      "start": 31.1386,
      "duration": 0.0162,
      "velocity": 97,
      "chip": "ym2612"
    },
    {
      "channel": 0,
      "note": 41,
      "start": 31.1524,
      "duration": 0.0161,
      "velocity": 115,
      "chip": "ym2612"
    },
    {
      "channel": 4,
      "note": 81,
      "start": 31.1536,
      "duration": 0.0161,
      "velocity": 97,
      "chip": "ym2612"
    },
    {
      "channel": 3,
      "note": 84,
      "start": 31.1548,
      "duration": 0.0161,
      "velocity": 97,
      "chip": "ym2612"
    },
    {
      "channel": 2,
      "note": 60,
      "start": 31.1565,
      "duration": 0.0156,
      "velocity": 100,
      "chip": "ym2612"
    },
    {
      "channel": 1,
      "note": 48,
      "start": 31.1579,
      "duration": 0.0181,
      "velocity": 100,
      "chip": "ym2612"
    },
    {
      "channel": 0,
      "note": 42,
      "start": 31.1685,
      "duration": 0.0161,
      "velocity": 115,
      "chip": "ym2612"
    },
    {
      "channel": 4,
      "note": 81,
      "start": 31.1697,
      "duration": 0.0161,
      "velocity": 97,
      "chip": "ym2612"
    },
    {
      "channel": 3,
      "note": 84,
      "start": 31.1709,
      "duration": 0.0161,
      "velocity": 97,
      "chip": "ym2612"
    },
    {
      "channel": 2,
      "note": 60,
      "start": 31.1721,
      "duration": 0.016,
      "velocity": 100,
      "chip": "ym2612"
    },
    {
      "channel": 1,
      "note": 48,
      "start": 31.176,
      "duration": 0.0132,
      "velocity": 100,
      "chip": "ym2612"
    },
    {
      "channel": 0,
      "note": 42,
      "start": 31.1846,
      "duration": 0.0161,
      "velocity": 115,
      "chip": "ym2612"
    },
    {
      "channel": 4,
      "note": 81,
      "start": 31.1858,
      "duration": 0.0161,
      "velocity": 97,
      "chip": "ym2612"
    },
    {
      "channel": 3,
      "note": 84,
      "start": 31.1869,
      "duration": 0.0161,
      "velocity": 97,
      "chip": "ym2612"
    },
    {
      "channel": 2,
      "note": 60,
      "start": 31.1881,
      "duration": 0.0161,
      "velocity": 100,
      "chip": "ym2612"
    },
    {
      "channel": 1,
      "note": 48,
      "start": 31.1892,
      "duration": 0.0161,
      "velocity": 100,
      "chip": "ym2612"
    },
    {
      "channel": 0,
      "note": 43,
      "start": 31.2007,
      "duration": 0.0162,
      "velocity": 115,
      "chip": "ym2612"
    },
    {
      "channel": 4,
      "note": 81,
      "start": 31.2019,
      "duration": 0.0161,
      "velocity": 97,
      "chip": "ym2612"
    },
    {
      "channel": 3,
      "note": 84,
      "start": 31.203,
      "duration": 0.0162,
      "velocity": 97,
      "chip": "ym2612"
    },
    {
      "channel": 2,
      "note": 60,
      "start": 31.2042,
      "duration": 0.0161,
      "velocity": 100,
      "chip": "ym2612"
    },
    {
      "channel": 1,
      "note": 48,
      "start": 31.2053,
      "duration": 0.0161,
      "velocity": 100,
      "chip": "ym2612"
    },
    {
      "channel": 0,
      "note": 43,
      "start": 31.2168,
      "duration": 0.0161,
      "velocity": 115,
      "chip": "ym2612"
    },
    {
      "channel": 4,
      "note": 81,
      "start": 31.218,
      "duration": 0.0161,
      "velocity": 97,
      "chip": "ym2612"
    },
    {
      "channel": 3,
      "note": 84,
      "start": 31.2192,
      "duration": 0.0161,
      "velocity": 97,
      "chip": "ym2612"
    },
    {
      "channel": 2,
      "note": 60,
      "start": 31.2203,
      "duration": 0.0161,
      "velocity": 100,
      "chip": "ym2612"
    },
    {
      "channel": 1,
      "note": 48,
      "start": 31.2214,
      "duration": 0.0161,
      "velocity": 100,
      "chip": "ym2612"
    },
    {
      "channel": 0,
      "note": 44,
      "start": 31.2329,
      "duration": 0.0161,
      "velocity": 115,
      "chip": "ym2612"
    },
    {
      "channel": 4,
      "note": 81,
      "start": 31.2341,
      "duration": 0.0161,
      "velocity": 97,
      "chip": "ym2612"
    },
    {
      "channel": 3,
      "note": 84,
      "start": 31.2353,
      "duration": 0.0161,
      "velocity": 97,
      "chip": "ym2612"
    },
    {
      "channel": 2,
      "note": 60,
      "start": 31.2364,
      "duration": 0.0161,
      "velocity": 100,
      "chip": "ym2612"
    },
    {
      "channel": 1,
      "note": 48,
      "start": 31.2375,
      "duration": 0.0161,
      "velocity": 100,
      "chip": "ym2612"
    },
    {
      "channel": 0,
      "note": 44,
      "start": 31.249,
      "duration": 0.0161,
      "velocity": 115,
      "chip": "ym2612"
    },
    {
      "channel": 4,
      "note": 81,
      "start": 31.2502,
      "duration": 0.0161,
      "velocity": 97,
      "chip": "ym2612"
    },
    {
      "channel": 3,
      "note": 84,
      "start": 31.2514,
      "duration": 0.0161,
      "velocity": 97,
      "chip": "ym2612"
    },
    {
      "channel": 2,
      "note": 60,
      "start": 31.2525,
      "duration": 0.0161,
      "velocity": 100,
      "chip": "ym2612"
    },
    {
      "channel": 1,
      "note": 48,
      "start": 31.2536,
      "duration": 0.0162,
      "velocity": 100,
      "chip": "ym2612"
    },
    {
      "channel": 0,
      "note": 44,
      "start": 31.2651,
      "duration": 0.0161,
      "velocity": 115,
      "chip": "ym2612"
    },
    {
      "channel": 4,
      "note": 81,
      "start": 31.2663,
      "duration": 0.0161,
      "velocity": 97,
      "chip": "ym2612"
    },
    {
      "channel": 3,
      "note": 84,
      "start": 31.2675,
      "duration": 0.0161,
      "velocity": 97,
      "chip": "ym2612"
    },
    {
      "channel": 2,
      "note": 60,
      "start": 31.2686,
      "duration": 0.0161,
      "velocity": 100,
      "chip": "ym2612"
    },
    {
      "channel": 1,
      "note": 48,
      "start": 31.2698,
      "duration": 0.0161,
      "velocity": 100,
      "chip": "ym2612"
    },
    {
      "channel": 0,
      "note": 45,
      "start": 31.2812,
      "duration": 0.0161,
      "velocity": 115,
      "chip": "ym2612"
    },
    {
      "channel": 4,
      "note": 81,
      "start": 31.2824,
      "duration": 0.0161,
      "velocity": 97,
      "chip": "ym2612"
    },
    {
      "channel": 3,
      "note": 84,
      "start": 31.2836,
      "duration": 0.0161,
      "velocity": 97,
      "chip": "ym2612"
    },
    {
      "channel": 2,
      "note": 60,
      "start": 31.2847,
      "duration": 0.0161,
      "velocity": 100,
      "chip": "ym2612"
    },
    {
      "channel": 1,
      "note": 48,
      "start": 31.2859,
      "duration": 0.016,
      "velocity": 100,
      "chip": "ym2612"
    },
    {
      "channel": 0,
      "note": 45,
      "start": 31.2973,
      "duration": 0.0161,
      "velocity": 115,
      "chip": "ym2612"
    },
    {
      "channel": 4,
      "note": 81,
      "start": 31.2985,
      "duration": 0.0161,
      "velocity": 97,
      "chip": "ym2612"
    },
    {
      "channel": 3,
      "note": 84,
      "start": 31.2997,
      "duration": 0.0161,
      "velocity": 97,
      "chip": "ym2612"
    },
    {
      "channel": 2,
      "note": 60,
      "start": 31.3008,
      "duration": 0.0161,
      "velocity": 100,
      "chip": "ym2612"
    },
    {
      "channel": 1,
      "note": 48,
      "start": 31.3019,
      "duration": 0.0161,
      "velocity": 100,
      "chip": "ym2612"
    },
    {
      "channel": 0,
      "note": 46,
      "start": 31.3134,
      "duration": 0.0161,
      "velocity": 115,
      "chip": "ym2612"
    },
    {
      "channel": 4,
      "note": 81,
      "start": 31.3146,
      "duration": 0.0161,
      "velocity": 97,
      "chip": "ym2612"
    },
    {
      "channel": 3,
      "note": 84,
      "start": 31.3158,
      "duration": 0.0161,
      "velocity": 97,
      "chip": "ym2612"
    },
    {
      "channel": 0,
      "note": 46,
      "start": 31.3295,
      "duration": 0.0195,
      "velocity": 115,
      "chip": "ym2612"
    },
    {
      "channel": 4,
      "note": 81,
      "start": 31.3307,
      "duration": 0.0195,
      "velocity": 97,
      "chip": "ym2612"
    },
    {
      "channel": 3,
      "note": 84,
      "start": 31.3319,
      "duration": 0.0196,
      "velocity": 97,
      "chip": "ym2612"
    },
    {
      "channel": 1,
      "note": 78,
      "start": 31.3473,
      "duration": 0.0144,
      "velocity": 124,
      "chip": "ym2612"
    },
    {
      "channel": 0,
      "note": 47,
      "start": 31.349,
      "duration": 0.0144,
      "velocity": 115,
      "chip": "ym2612"
    },
    {
      "channel": 4,
      "note": 81,
      "start": 31.3502,
      "duration": 0.0144,
      "velocity": 97,
      "chip": "ym2612"
    },
    {
      "channel": 3,
      "note": 84,
      "start": 31.3515,
      "duration": 0.0143,
      "velocity": 97,
      "chip": "ym2612"
    },
    {
      "channel": 2,
      "note": 65,
      "start": 31.3528,
      "duration": 0.0142,
      "velocity": 100,
      "chip": "ym2612"
    },
    {
      "channel": 1,
      "note": 76,
      "start": 31.3617,
      "duration": 0.016,
      "velocity": 124,
      "chip": "ym2612"
    },
    {
      "channel": 0,
      "note": 47,
      "start": 31.3634,
      "duration": 0.0161,
      "velocity": 115,
      "chip": "ym2612"
    },
    {
      "channel": 4,
      "note": 81,
      "start": 31.3646,
      "duration": 0.016,
      "velocity": 97,
      "chip": "ym2612"
    },
    {
      "channel": 3,
      "note": 84,
      "start": 31.3658,
      "duration": 0.0161,
      "velocity": 97,
      "chip": "ym2612"
    },
    {
      "channel": 2,
      "note": 65,
      "start": 31.367,
      "duration": 0.016,
      "velocity": 100,
      "chip": "ym2612"
    },
    {
      "channel": 1,
      "note": 75,
      "start": 31.3777,
      "duration": 0.0161,
      "velocity": 124,
      "chip": "ym2612"
    },
    {
      "channel": 0,
      "note": 47,
      "start": 31.3795,
      "duration": 0.0162,
      "velocity": 115,
      "chip": "ym2612"
    },
    {
      "channel": 4,
      "note": 81,
      "start": 31.3807,
      "duration": 0.0161,
      "velocity": 97,
      "chip": "ym2612"
    },
    {
      "channel": 3,
      "note": 84,
      "start": 31.3819,
      "duration": 0.0162,
      "velocity": 97,
      "chip": "ym2612"
    },
    {
      "channel": 2,
      "note": 65,
      "start": 31.3829,
      "duration": 0.0161,
      "velocity": 100,
      "chip": "ym2612"
    },
    {
      "channel": 1,
      "note": 74,
      "start": 31.3939,
      "duration": 0.0163,
      "velocity": 124,
      "chip": "ym2612"
    },
    {
      "channel": 0,
      "note": 48,
      "start": 31.3957,
      "duration": 0.0163,
      "velocity": 115,
      "chip": "ym2612"
    },
    {
      "channel": 4,
      "note": 81,
      "start": 31.3968,
      "duration": 0.0163,
      "velocity": 97,
      "chip": "ym2612"
    },
    {
      "channel": 3,
      "note": 84,
      "start": 31.398,
      "duration": 0.0163,
      "velocity": 97,
      "chip": "ym2612"
    },
    {
      "channel": 2,
      "note": 65,
      "start": 31.3991,
      "duration": 0.0164,
      "velocity": 100,
      "chip": "ym2612"
    },
    {
      "channel": 1,
      "note": 72,
      "start": 31.4102,
      "duration": 0.0159,
      "velocity": 124,
      "chip": "ym2612"
    },
    {
      "channel": 0,
      "note": 48,
      "start": 31.412,
      "duration": 0.0158,
      "velocity": 115,
      "chip": "ym2612"
    },
    {
      "channel": 4,
      "note": 81,
      "start": 31.4132,
      "duration": 0.0159,
      "velocity": 97,
      "chip": "ym2612"
    },
    {
      "channel": 3,
      "note": 84,
      "start": 31.4144,
      "duration": 0.0158,
      "velocity": 97,
      "chip": "ym2612"
    },
    {
      "channel": 2,
      "note": 65,
      "start": 31.4155,
      "duration": 0.0158,
      "velocity": 100,
      "chip": "ym2612"
    },
    {
      "channel": 1,
      "note": 71,
      "start": 31.4261,
      "duration": 0.0178,
      "velocity": 124,
      "chip": "ym2612"
    },
    {
      "channel": 0,
      "note": 49,
      "start": 31.4278,
      "duration": 0.0171,
      "velocity": 1,
      "chip": "ym2612"
    },
    {
      "channel": 4,
      "note": 81,
      "start": 31.429,
      "duration": 0.0171,
      "velocity": 97,
      "chip": "ym2612"
    },
    {
      "channel": 3,
      "note": 84,
      "start": 31.4301,
      "duration": 0.0171,
      "velocity": 97,
      "chip": "ym2612"
    },
    {
      "channel": 2,
      "note": 65,
      "start": 31.4313,
      "duration": 0.0171,
      "velocity": 100,
      "chip": "ym2612"
    },
    {
      "channel": 1,
      "note": 70,
      "start": 31.4439,
      "duration": 0.0167,
      "velocity": 124,
      "chip": "ym2612"
    },
    {
      "channel": 4,
      "note": 81,
      "start": 31.4461,
      "duration": 0.0158,
      "velocity": 97,
      "chip": "ym2612"
    },
    {
      "channel": 3,
      "note": 84,
      "start": 31.4472,
      "duration": 0.0159,
      "velocity": 97,
      "chip": "ym2612"
    },
    {
      "channel": 2,
      "note": 65,
      "start": 31.4483,
      "duration": 0.0158,
      "velocity": 100,
      "chip": "ym2612"
    },
    {
      "channel": 1,
      "note": 69,
      "start": 31.4605,
      "duration": 0.0162,
      "velocity": 124,
      "chip": "ym2612"
    },
    {
      "channel": 4,
      "note": 81,
      "start": 31.4618,
      "duration": 0.0162,
      "velocity": 97,
      "chip": "ym2612"
    },
    {
      "channel": 3,
      "note": 84,
      "start": 31.463,
      "duration": 0.0161,
      "velocity": 97,
      "chip": "ym2612"
    },
    {
      "channel": 2,
      "note": 65,
      "start": 31.4641,
      "duration": 0.0162,
      "velocity": 100,
      "chip": "ym2612"
    },
    {
      "channel": 1,
      "note": 68,
      "start": 31.4768,
      "duration": 0.014,
      "velocity": 124,
      "chip": "ym2612"
    },
    {
      "channel": 4,
      "note": 81,
      "start": 31.478,
      "duration": 0.014,
      "velocity": 97,
      "chip": "ym2612"
    },
    {
      "channel": 3,
      "note": 84,
      "start": 31.4792,
      "duration": 0.0141,
      "velocity": 97,
      "chip": "ym2612"
    },
    {
      "channel": 2,
      "note": 65,
      "start": 31.4803,
      "duration": 0.014,
      "velocity": 100,
      "chip": "ym2612"
    },
    {
      "channel": 1,
      "note": 66,
      "start": 31.4908,
      "duration": 0.0186,
      "velocity": 124,
      "chip": "ym2612"
    },
    {
      "channel": 4,
      "note": 81,
      "start": 31.492,
      "duration": 0.0186,
      "velocity": 97,
      "chip": "ym2612"
    },
    {
      "channel": 3,
      "note": 84,
      "start": 31.4932,
      "duration": 0.0185,
      "velocity": 97,
      "chip": "ym2612"
    },
    {
      "channel": 2,
      "note": 65,
      "start": 31.4943,
      "duration": 0.0186,
      "velocity": 100,
      "chip": "ym2612"
    },
    {
      "channel": 1,
      "note": 65,
      "start": 31.5093,
      "duration": 0.016,
      "velocity": 124,
      "chip": "ym2612"
    },
    {
      "channel": 4,
      "note": 81,
      "start": 31.5106,
      "duration": 0.016,
      "velocity": 97,
      "chip": "ym2612"
    },
    {
      "channel": 3,
      "note": 84,
      "start": 31.5118,
      "duration": 0.0161,
      "velocity": 97,
      "chip": "ym2612"
    },
    {
      "channel": 1,
      "note": 64,
      "start": 31.5254,
      "duration": 0.0134,
      "velocity": 124,
      "chip": "ym2612"
    },
    {
      "channel": 4,
      "note": 81,
      "start": 31.5266,
      "duration": 0.0192,
      "velocity": 97,
      "chip": "ym2612"
    },
    {
      "channel": 3,
      "note": 84,
      "start": 31.5278,
      "duration": 0.0192,
      "velocity": 97,
      "chip": "ym2612"
    },
    {
      "channel": 1,
      "note": 62,
      "start": 31.5387,
      "duration": 0.0161,
      "velocity": 124,
      "chip": "ym2612"
    },
    {
      "channel": 0,
      "note": 36,
      "start": 31.5446,
      "duration": 0.0123,
      "velocity": 115,
      "chip": "ym2612"
    },
    {
      "channel": 4,
      "note": 81,
      "start": 31.5459,
      "duration": 0.0123,
      "velocity": 97,
      "chip": "ym2612"
    },
    {
      "channel": 3,
      "note": 84,
      "start": 31.5471,
      "duration": 0.0123,
      "velocity": 97,
      "chip": "ym2612"
    },
    {
      "channel": 2,
      "note": 63,
      "start": 31.5485,
      "duration": 0.012,
      "velocity": 100,
      "chip": "ym2612"
    },
    {
      "channel": 1,
      "note": 61,
      "start": 31.5548,
      "duration": 0.0161,
      "velocity": 124,
      "chip": "ym2612"
    },
    {
      "channel": 0,
      "note": 36,
      "start": 31.557,
      "duration": 0.0185,
      "velocity": 115,
      "chip": "ym2612"
    },
    {
      "channel": 4,
      "note": 81,
      "start": 31.5581,
      "duration": 0.0185,
      "velocity": 97,
      "chip": "ym2612"
    },
    {
      "channel": 3,
      "note": 84,
      "start": 31.5593,
      "duration": 0.0184,
      "velocity": 97,
      "chip": "ym2612"
    },
    {
      "channel": 2,
      "note": 63,
      "start": 31.5605,
      "duration": 0.0185,
      "velocity": 100,
      "chip": "ym2612"
    },
    {
      "channel": 1,
      "note": 60,
      "start": 31.571,
      "duration": 0.0161,
      "velocity": 124,
      "chip": "ym2612"
    },
    {
      "channel": 0,
      "note": 37,
      "start": 31.5754,
      "duration": 0.0134,
      "velocity": 115,
      "chip": "ym2612"
    },
    {
      "channel": 4,
      "note": 81,
      "start": 31.5766,
      "duration": 0.0161,
      "velocity": 97,
      "chip": "ym2612"
    },
    {
      "channel": 3,
      "note": 84,
      "start": 31.5778,
      "duration": 0.0161,
      "velocity": 97,
      "chip": "ym2612"
    },
    {
      "channel": 2,
      "note": 63,
      "start": 31.5789,
      "duration": 0.0161,
      "velocity": 100,
      "chip": "ym2612"
    },
    {
      "channel": 1,
      "note": 59,
      "start": 31.5871,
      "duration": 0.0161,
      "velocity": 124,
      "chip": "ym2612"
    },
    {
      "channel": 0,
      "note": 37,
      "start": 31.5888,
      "duration": 0.0161,
      "velocity": 115,
      "chip": "ym2612"
    },
    {
      "channel": 4,
      "note": 81,
      "start": 31.5927,
      "duration": 0.0157,
      "velocity": 97,
      "chip": "ym2612"
    },
    {
      "channel": 3,
      "note": 84,
      "start": 31.5939,
      "duration": 0.0158,
      "velocity": 97,
      "chip": "ym2612"
    },
    {
      "channel": 2,
      "note": 63,
      "start": 31.595,
      "duration": 0.0158,
      "velocity": 100,
      "chip": "ym2612"
    },
    {
      "channel": 1,
      "note": 57,
      "start": 31.6032,
      "duration": 0.0161,
      "velocity": 124,
      "chip": "ym2612"
    },
    {
      "channel": 0,
      "note": 38,
      "start": 31.6049,
      "duration": 0.0161,
      "velocity": 115,
      "chip": "ym2612"
    },
    {
      "channel": 4,
      "note": 81,
      "start": 31.6085,
      "duration": 0.0137,
      "velocity": 97,
      "chip": "ym2612"
    },
    {
      "channel": 3,
      "note": 84,
      "start": 31.6097,
      "duration": 0.014,
      "velocity": 97,
      "chip": "ym2612"
    },
    {
      "channel": 2,
      "note": 63,
      "start": 31.6108,
      "duration": 0.014,
      "velocity": 100,
      "chip": "ym2612"
    },
    {
      "channel": 1,
      "note": 56,
      "start": 31.6193,
      "duration": 0.0161,
      "velocity": 124,
      "chip": "ym2612"
    },
    {
      "channel": 0,
      "note": 38,
      "start": 31.621,
      "duration": 0.0161,
      "velocity": 115,
      "chip": "ym2612"
    },
    {
      "channel": 4,
      "note": 81,
      "start": 31.6222,
      "duration": 0.0161,
      "velocity": 97,
      "chip": "ym2612"
    },
    {
      "channel": 3,
      "note": 84,
      "start": 31.6237,
      "duration": 0.0185,
      "velocity": 97,
      "chip": "ym2612"
    },
    {
      "channel": 2,
      "note": 63,
      "start": 31.6248,
      "duration": 0.0185,
      "velocity": 100,
      "chip": "ym2612"
    },
    {
      "channel": 1,
      "note": 55,
      "start": 31.6354,
      "duration": 0.0161,
      "velocity": 124,
      "chip": "ym2612"
    },
    {
      "channel": 0,
      "note": 39,
      "start": 31.6371,
      "duration": 0.0161,
      "velocity": 115,
      "chip": "ym2612"
    },
    {
      "channel": 4,
      "note": 81,
      "start": 31.6383,
      "duration": 0.0161,
      "velocity": 97,
      "chip": "ym2612"
    },
    {
      "channel": 3,
      "note": 84,
      "start": 31.6422,
      "duration": 0.0134,
      "velocity": 97,
      "chip": "ym2612"
    },
    {
      "channel": 2,
      "note": 63,
      "start": 31.6433,
      "duration": 0.0161,
      "velocity": 100,
      "chip": "ym2612"
    },
    {
      "channel": 1,
      "note": 53,
      "start": 31.6515,
      "duration": 0.0161,
      "velocity": 124,
      "chip": "ym2612"
    },
    {
      "channel": 0,
      "note": 39,
      "start": 31.6532,
      "duration": 0.0161,
      "velocity": 115,
      "chip": "ym2612"
    },
    {
      "channel": 4,
      "note": 81,
      "start": 31.6544,
      "duration": 0.0161,
      "velocity": 97,
      "chip": "ym2612"
    },
    {
      "channel": 3,
      "note": 84,
      "start": 31.6555,
      "duration": 0.0161,
      "velocity": 97,
      "chip": "ym2612"
    },
    {
      "channel": 2,
      "note": 63,
      "start": 31.6594,
      "duration": 0.0158,
      "velocity": 100,
      "chip": "ym2612"
    },
    {
      "channel": 1,
      "note": 52,
      "start": 31.6676,
      "duration": 0.0161,
      "velocity": 124,
      "chip": "ym2612"
    },
    {
      "channel": 0,
      "note": 40,
      "start": 31.6693,
      "duration": 0.0161,
      "velocity": 115,
      "chip": "ym2612"
    },
    {
      "channel": 4,
      "note": 81,
      "start": 31.6705,
      "duration": 0.0161,
      "velocity": 97,
      "chip": "ym2612"
    },
    {
      "channel": 3,
      "note": 84,
      "start": 31.6717,
      "duration": 0.0161,
      "velocity": 97,
      "chip": "ym2612"
    },
    {
      "channel": 2,
      "note": 63,
      "start": 31.6752,
      "duration": 0.0137,
      "velocity": 100,
      "chip": "ym2612"
    },
    {
      "channel": 1,
      "note": 51,
      "start": 31.6837,
      "duration": 0.0153,
      "velocity": 1,
      "chip": "ym2612"
    },
    {
      "channel": 0,
      "note": 40,
      "start": 31.6854,
      "duration": 0.0153,
      "velocity": 115,
      "chip": "ym2612"
    },
    {
      "channel": 4,
      "note": 81,
      "start": 31.6866,
      "duration": 0.0153,
      "velocity": 97,
      "chip": "ym2612"
    },
    {
      "channel": 3,
      "note": 84,
      "start": 31.6878,
      "duration": 0.0153,
      "velocity": 97,
      "chip": "ym2612"
    },
    {
      "channel": 2,
      "note": 63,
      "start": 31.6889,
      "duration": 0.0153,
      "velocity": 100,
      "chip": "ym2612"
    },
    {
      "channel": 0,
      "note": 40,
      "start": 31.7007,
      "duration": 0.0153,
      "velocity": 115,
      "chip": "ym2612"
    },
    {
      "channel": 4,
      "note": 81,
      "start": 31.7019,
      "duration": 0.0153,
      "velocity": 97,
      "chip": "ym2612"
    },
    {
      "channel": 3,
      "note": 84,
      "start": 31.703,
      "duration": 0.0153,
      "velocity": 97,
      "chip": "ym2612"
    },
    {
      "channel": 0,
      "note": 41,
      "start": 31.716,
      "duration": 0.0161,
      "velocity": 115,
      "chip": "ym2612"
    },
    {
      "channel": 4,
      "note": 81,
      "start": 31.7172,
      "duration": 0.0161,
      "velocity": 97,
      "chip": "ym2612"
    },
    {
      "channel": 3,
      "note": 84,
      "start": 31.7183,
      "duration": 0.0161,
      "velocity": 97,
      "chip": "ym2612"
    },
    {
      "channel": 0,
      "note": 41,
      "start": 31.732,
      "duration": 0.0161,
      "velocity": 115,
      "chip": "ym2612"
    },
    {
      "channel": 4,
      "note": 81,
      "start": 31.7333,
      "duration": 0.0161,
      "velocity": 97,
      "chip": "ym2612"
    },
    {
      "channel": 3,
      "note": 84,
      "start": 31.7344,
      "duration": 0.0161,
      "velocity": 97,
      "chip": "ym2612"
    },
    {
      "channel": 0,
      "note": 42,
      "start": 31.7481,
      "duration": 0.0161,
      "velocity": 115,
      "chip": "ym2612"
    },
    {
      "channel": 4,
      "note": 81,
      "start": 31.7493,
      "duration": 0.0161,
      "velocity": 97,
      "chip": "ym2612"
    },
    {
      "channel": 3,
      "note": 84,
      "start": 31.7505,
      "duration": 0.0161,
      "velocity": 97,
      "chip": "ym2612"
    },
    {
      "channel": 0,
      "note": 42,
      "start": 31.7642,
      "duration": 0.0161,
      "velocity": 115,
      "chip": "ym2612"
    },
    {
      "channel": 4,
      "note": 81,
      "start": 31.7654,
      "duration": 0.0161,
      "velocity": 97,
      "chip": "ym2612"
    },
    {
      "channel": 3,
      "note": 84,
      "start": 31.7666,
      "duration": 0.0161,
      "velocity": 97,
      "chip": "ym2612"
    },
    {
      "channel": 0,
      "note": 43,
      "start": 31.7803,
      "duration": 0.0161,
      "velocity": 115,
      "chip": "ym2612"
    },
    {
      "channel": 4,
      "note": 81,
      "start": 31.7815,
      "duration": 0.0161,
      "velocity": 97,
      "chip": "ym2612"
    },
    {
      "channel": 3,
      "note": 84,
      "start": 31.7827,
      "duration": 0.0162,
      "velocity": 97,
      "chip": "ym2612"
    },
    {
      "channel": 0,
      "note": 43,
      "start": 31.7964,
      "duration": 0.0161,
      "velocity": 115,
      "chip": "ym2612"
    },
    {
      "channel": 4,
      "note": 81,
      "start": 31.7976,
      "duration": 0.0161,
      "velocity": 97,
      "chip": "ym2612"
    },
    {
      "channel": 3,
      "note": 84,
      "start": 31.7988,
      "duration": 0.0161,
      "velocity": 97,
      "chip": "ym2612"
    },
    {
      "channel": 0,
      "note": 44,
      "start": 31.8125,
      "duration": 0.0162,
      "velocity": 115,
      "chip": "ym2612"
    },
    {
      "channel": 4,
      "note": 81,
      "start": 31.8137,
      "duration": 0.0161,
      "velocity": 97,
      "chip": "ym2612"
    },
    {
      "channel": 3,
      "note": 84,
      "start": 31.8149,
      "duration": 0.0161,
      "velocity": 97,
      "chip": "ym2612"
    },
    {
      "channel": 0,
      "note": 44,
      "start": 31.8287,
      "duration": 0.0161,
      "velocity": 115,
      "chip": "ym2612"
    },
    {
      "channel": 4,
      "note": 81,
      "start": 31.8298,
      "duration": 0.0162,
      "velocity": 97,
      "chip": "ym2612"
    },
    {
      "channel": 3,
      "note": 84,
      "start": 31.831,
      "duration": 0.0161,
      "velocity": 97,
      "chip": "ym2612"
    },
    {
      "channel": 0,
      "note": 44,
      "start": 31.8448,
      "duration": 0.0161,
      "velocity": 115,
      "chip": "ym2612"
    },
    {
      "channel": 4,
      "note": 81,
      "start": 31.846,
      "duration": 0.0161,
      "velocity": 97,
      "chip": "ym2612"
    },
    {
      "channel": 3,
      "note": 84,
      "start": 31.8471,
      "duration": 0.0161,
      "velocity": 97,
      "chip": "ym2612"
    },
    {
      "channel": 0,
      "note": 45,
      "start": 31.8609,
      "duration": 0.0162,
      "velocity": 115,
      "chip": "ym2612"
    },
    {
      "channel": 4,
      "note": 81,
      "start": 31.8621,
      "duration": 0.0161,
      "velocity": 97,
      "chip": "ym2612"
    },
    {
      "channel": 3,
      "note": 84,
      "start": 31.8632,
      "duration": 0.0162,
      "velocity": 97,
      "chip": "ym2612"
    },
    {
      "channel": 0,
      "note": 45,
      "start": 31.877,
      "duration": 0.016,
      "velocity": 115,
      "chip": "ym2612"
    },
    {
      "channel": 4,
      "note": 81,
      "start": 31.8782,
      "duration": 0.0161,
      "velocity": 97,
      "chip": "ym2612"
    },
    {
      "channel": 3,
      "note": 84,
      "start": 31.8794,
      "duration": 0.016,
      "velocity": 97,
      "chip": "ym2612"
    },
    {
      "channel": 0,
      "note": 46,
      "start": 31.8931,
      "duration": 0.0176,
      "velocity": 115,
      "chip": "ym2612"
    },
    {
      "channel": 4,
      "note": 81,
      "start": 31.8943,
      "duration": 0.0176,
      "velocity": 97,
      "chip": "ym2612"
    },
    {
      "channel": 3,
      "note": 84,
      "start": 31.8954,
      "duration": 0.0176,
      "velocity": 97,
      "chip": "ym2612"
    },
    {
      "channel": 0,
      "note": 46,
      "start": 31.9106,
      "duration": 0.0185,
      "velocity": 115,
      "chip": "ym2612"
    },
    {
      "channel": 4,
      "note": 81,
      "start": 31.9118,
      "duration": 0.0185,
      "velocity": 97,
      "chip": "ym2612"
    },
    {
      "channel": 3,
      "note": 84,
      "start": 31.913,
      "duration": 0.0184,
      "velocity": 97,
      "chip": "ym2612"
    },
    {
      "channel": 0,
      "note": 36,
      "start": 31.9291,
      "duration": 0.0146,
      "velocity": 115,
      "chip": "ym2612"
    },
    {
      "channel": 4,
      "note": 81,
      "start": 31.9303,
      "duration": 0.0146,
      "velocity": 97,
      "chip": "ym2612"
    },
    {
      "channel": 3,
      "note": 84,
      "start": 31.9315,
      "duration": 0.0146,
      "velocity": 97,
      "chip": "ym2612"
    },
    {
      "channel": 2,
      "note": 65,
      "start": 31.9329,
      "duration": 0.0143,
      "velocity": 100,
      "chip": "ym2612"
    },
    {
      "channel": 1,
      "note": 53,
      "start": 31.9343,
      "duration": 0.0141,
      "velocity": 100,
      "chip": "ym2612"
    },
    {
      "channel": 0,
      "note": 36,
      "start": 31.9437,
      "duration": 0.0141,
      "velocity": 115,
      "chip": "ym2612"
    },
    {
      "channel": 4,
      "note": 81,
      "start": 31.9449,
      "duration": 0.0141,
      "velocity": 97,
      "chip": "ym2612"
    },
    {
      "channel": 3,
      "note": 84,
      "start": 31.9461,
      "duration": 0.0141,
      "velocity": 97,
      "chip": "ym2612"
    },
    {
      "channel": 2,
      "note": 65,
      "start": 31.9472,
      "duration": 0.0141,
      "velocity": 100,
      "chip": "ym2612"
    },
    {
      "channel": 1,
      "note": 53,
      "start": 31.9484,
      "duration": 0.014,
      "velocity": 100,
      "chip": "ym2612"
    },
    {
      "channel": 0,
      "note": 37,
      "start": 31.9578,
      "duration": 0.0186,
      "velocity": 115,
      "chip": "ym2612"
    },
    {
      "channel": 4,
      "note": 81,
      "start": 31.959,
      "duration": 0.0185,
      "velocity": 97,
      "chip": "ym2612"
    },
    {
      "channel": 3,
      "note": 84,
      "start": 31.9602,
      "duration": 0.0185,
      "velocity": 97,
      "chip": "ym2612"
    },
    {
      "channel": 2,
      "note": 65,
      "start": 31.9612,
      "duration": 0.0185,
      "velocity": 100,
      "chip": "ym2612"
    },
    {
      "channel": 1,
      "note": 53,
      "start": 31.9624,
      "duration": 0.0185,
      "velocity": 100,
      "chip": "ym2612"
    },
    {
      "channel": 0,
      "note": 37,
      "start": 31.9763,
      "duration": 0.0161,
      "velocity": 115,
      "chip": "ym2612"
    },
    {
      "channel": 4,
      "note": 81,
      "start": 31.9775,
      "duration": 0.0161,
      "velocity": 97,
      "chip": "ym2612"
    },
    {
      "channel": 3,
      "note": 84,
      "start": 31.9787,
      "duration": 0.0161,
      "velocity": 97,
      "chip": "ym2612"
    },
    {
      "channel": 2,
      "note": 65,
      "start": 31.9798,
      "duration": 0.0161,
      "velocity": 100,
      "chip": "ym2612"
    },
    {
      "channel": 1,
      "note": 53,
      "start": 31.9809,
      "duration": 0.0161,
      "velocity": 100,
      "chip": "ym2612"
    },
    {
      "channel": 0,
      "note": 38,
      "start": 31.9924,
      "duration": 0.0134,
      "velocity": 115,
      "chip": "ym2612"
    },
    {
      "channel": 4,
      "note": 81,
      "start": 31.9936,
      "duration": 0.0158,
      "velocity": 97,
      "chip": "ym2612"
    },
    {
      "channel": 3,
      "note": 84,
      "start": 31.9948,
      "duration": 0.0158,
      "velocity": 97,
      "chip": "ym2612"
    },
    {
      "channel": 2,
      "note": 65,
      "start": 31.9959,
      "duration": 0.0158,
      "velocity": 100,
      "chip": "ym2612"
    },
    {
      "channel": 1,
      "note": 53,
      "start": 31.997,
      "duration": 0.0158,
      "velocity": 100,
      "chip": "ym2612"
    },
    {
      "channel": 0,
      "note": 38,
      "start": 32.0058,
      "duration": 0.0161,
      "velocity": 115,
      "chip": "ym2612"
    },
    {
      "channel": 4,
      "note": 81,
      "start": 32.0093,
      "duration": 0.0141,
      "velocity": 97,
      "chip": "ym2612"
    },
    {
      "channel": 3,
      "note": 84,
      "start": 32.0105,
      "duration": 0.014,
      "velocity": 97,
      "chip": "ym2612"
    },
    {
      "channel": 2,
      "note": 65,
      "start": 32.0116,
      "duration": 0.0141,
      "velocity": 100,
      "chip": "ym2612"
    },
    {
      "channel": 1,
      "note": 53,
      "start": 32.0128,
      "duration": 0.0141,
      "velocity": 100,
      "chip": "ym2612"
    },
    {
      "channel": 0,
      "note": 39,
      "start": 32.0219,
      "duration": 0.0161,
      "velocity": 115,
      "chip": "ym2612"
    },
    {
      "channel": 4,
      "note": 81,
      "start": 32.0234,
      "duration": 0.0158,
      "velocity": 97,
      "chip": "ym2612"
    },
    {
      "channel": 3,
      "note": 84,
      "start": 32.0245,
      "duration": 0.0185,
      "velocity": 97,
      "chip": "ym2612"
    },
    {
      "channel": 2,
      "note": 65,
      "start": 32.0257,
      "duration": 0.0185,
      "velocity": 100,
      "chip": "ym2612"
    },
    {
      "channel": 1,
      "note": 53,
      "start": 32.0268,
      "duration": 0.0185,
      "velocity": 100,
      "chip": "ym2612"
    },
    {
      "channel": 0,
      "note": 39,
      "start": 32.038,
      "duration": 0.0161,
      "velocity": 115,
      "chip": "ym2612"
    },
    {
      "channel": 4,
      "note": 81,
      "start": 32.0392,
      "duration": 0.0161,
      "velocity": 97,
      "chip": "ym2612"
    },
    {
      "channel": 3,
      "note": 84,
      "start": 32.0431,
      "duration": 0.0161,
      "velocity": 97,
      "chip": "ym2612"
    },
    {
      "channel": 2,
      "note": 65,
      "start": 32.0442,
      "duration": 0.0161,
      "velocity": 100,
      "chip": "ym2612"
    },
    {
      "channel": 1,
      "note": 53,
      "start": 32.0454,
      "duration": 0.0161,
      "velocity": 100,
      "chip": "ym2612"
    },
    {
      "channel": 0,
      "note": 40,
      "start": 32.0541,
      "duration": 0.0161,
      "velocity": 115,
      "chip": "ym2612"
    },
    {
      "channel": 4,
      "note": 81,
      "start": 32.0553,
      "duration": 0.0161,
      "velocity": 97,
      "chip": "ym2612"
    },
    {
      "channel": 3,
      "note": 84,
      "start": 32.0592,
      "duration": 0.0133,
      "velocity": 97,
      "chip": "ym2612"
    },
    {
      "channel": 2,
      "note": 65,
      "start": 32.0603,
      "duration": 0.0158,
      "velocity": 100,
      "chip": "ym2612"
    },
    {
      "channel": 1,
      "note": 53,
      "start": 32.0614,
      "duration": 0.0157,
      "velocity": 100,
      "chip": "ym2612"
    },
    {
      "channel": 0,
      "note": 40,
      "start": 32.0702,
      "duration": 0.0161,
      "velocity": 115,
      "chip": "ym2612"
    },
    {
      "channel": 4,
      "note": 81,
      "start": 32.0714,
      "duration": 0.0161,
      "velocity": 97,
      "chip": "ym2612"
    },
    {
      "channel": 3,
      "note": 84,
      "start": 32.0725,
      "duration": 0.0161,
      "velocity": 97,
      "chip": "ym2612"
    },
    {
      "channel": 2,
      "note": 65,
      "start": 32.0761,
      "duration": 0.014,
      "velocity": 100,
      "chip": "ym2612"
    },
    {
      "channel": 1,
      "note": 53,
      "start": 32.0771,
      "duration": 0.0141,
      "velocity": 100,
      "chip": "ym2612"
    },
    {
      "channel": 0,
      "note": 40,
      "start": 32.0863,
      "duration": 0.0161,
      "velocity": 115,
      "chip": "ym2612"
    },
    {
      "channel": 4,
      "note": 81,
      "start": 32.0875,
      "duration": 0.0161,
      "velocity": 97,
      "chip": "ym2612"
    },
    {
      "channel": 3,
      "note": 84,
      "start": 32.0886,
      "duration": 0.0162,
      "velocity": 97,
      "chip": "ym2612"
    },
    {
      "channel": 0,
      "note": 41,
      "start": 32.1023,
      "duration": 0.0196,
      "velocity": 115,
      "chip": "ym2612"
    },
    {
      "channel": 4,
      "note": 81,
      "start": 32.1036,
      "duration": 0.0223,
      "velocity": 97,
      "chip": "ym2612"
    },
    {
      "channel": 3,
      "note": 84,
      "start": 32.1048,
      "duration": 0.0223,
      "velocity": 97,
      "chip": "ym2612"
    },
    {
      "channel": 1,
      "note": 78,
      "start": 32.1202,
      "duration": 0.0143,
      "velocity": 124,
      "chip": "ym2612"
    },
    {
      "channel": 0,
      "note": 41,
      "start": 32.1219,
      "duration": 0.0143,
      "velocity": 115,
      "chip": "ym2612"
    },
    {
      "channel": 4,
      "note": 81,
      "start": 32.1259,
      "duration": 0.0116,
      "velocity": 97,
      "chip": "ym2612"
    },
    {
      "channel": 3,
      "note": 84,
      "start": 32.127,
      "duration": 0.0116,
      "velocity": 97,
      "chip": "ym2612"
    },
    {
      "channel": 2,
      "note": 60,
      "start": 32.1284,
      "duration": 0.0138,
      "velocity": 100,
      "chip": "ym2612"
    },
    {
      "channel": 1,
      "note": 76,
      "start": 32.1345,
      "duration": 0.0161,
      "velocity": 124,
      "chip": "ym2612"
    },
    {
      "channel": 0,
      "note": 42,
      "start": 32.1363,
      "duration": 0.0161,
      "velocity": 115,
      "chip": "ym2612"
    },
    {
      "channel": 4,
      "note": 81,
      "start": 32.1375,
      "duration": 0.0161,
      "velocity": 97,
      "chip": "ym2612"
    },
    {
      "channel": 3,
      "note": 84,
      "start": 32.1387,
      "duration": 0.016,
      "velocity": 97,
      "chip": "ym2612"
    },
    {
      "channel": 2,
      "note": 60,
      "start": 32.1422,
      "duration": 0.0136,
      "velocity": 100,
      "chip": "ym2612"
    },
    {
      "channel": 1,
      "note": 75,
      "start": 32.1506,
      "duration": 0.0161,
      "velocity": 124,
      "chip": "ym2612"
    },
    {
      "channel": 0,
      "note": 42,
      "start": 32.1523,
      "duration": 0.0161,
      "velocity": 115,
      "chip": "ym2612"
    },
    {
      "channel": 4,
      "note": 81,
      "start": 32.1536,
      "duration": 0.0161,
      "velocity": 97,
      "chip": "ym2612"
    },
    {
      "channel": 3,
      "note": 84,
      "start": 32.1547,
      "duration": 0.0161,
      "velocity": 97,
      "chip": "ym2612"
    },
    {
      "channel": 2,
      "note": 60,
      "start": 32.1559,
      "duration": 0.0161,
      "velocity": 100,
      "chip": "ym2612"
    },
    {
      "channel": 1,
      "note": 74,
      "start": 32.1667,
      "duration": 0.0161,
      "velocity": 124,
      "chip": "ym2612"
    },
    {
      "channel": 0,
      "note": 43,
      "start": 32.1684,
      "duration": 0.0161,
      "velocity": 115,
      "chip": "ym2612"
    },
    {
      "channel": 4,
      "note": 81,
      "start": 32.1696,
      "duration": 0.0161,
      "velocity": 97,
      "chip": "ym2612"
    },
    {
      "channel": 3,
      "note": 84,
      "start": 32.1708,
      "duration": 0.0161,
      "velocity": 97,
      "chip": "ym2612"
    },
    {
      "channel": 2,
      "note": 60,
      "start": 32.1719,
      "duration": 0.0161,
      "velocity": 100,
      "chip": "ym2612"
    },
    {
      "channel": 1,
      "note": 72,
      "start": 32.1828,
      "duration": 0.0161,
      "velocity": 124,
      "chip": "ym2612"
    },
    {
      "channel": 0,
      "note": 43,
      "start": 32.1845,
      "duration": 0.0161,
      "velocity": 115,
      "chip": "ym2612"
    },
    {
      "channel": 4,
      "note": 81,
      "start": 32.1857,
      "duration": 0.0161,
      "velocity": 97,
      "chip": "ym2612"
    },
    {
      "channel": 3,
      "note": 84,
      "start": 32.1869,
      "duration": 0.0161,
      "velocity": 97,
      "chip": "ym2612"
    },
    {
      "channel": 2,
      "note": 60,
      "start": 32.188,
      "duration": 0.0161,
      "velocity": 100,
      "chip": "ym2612"
    },
    {
      "channel": 1,
      "note": 71,
      "start": 32.1989,
      "duration": 0.0161,
      "velocity": 124,
      "chip": "ym2612"
    },
    {
      "channel": 0,
      "note": 44,
      "start": 32.2006,
      "duration": 0.0161,
      "velocity": 115,
      "chip": "ym2612"
    },
    {
      "channel": 4,
      "note": 81,
      "start": 32.2018,
      "duration": 0.0161,
      "velocity": 97,
      "chip": "ym2612"
    },
    {
      "channel": 3,
      "note": 84,
      "start": 32.203,
      "duration": 0.0161,
      "velocity": 97,
      "chip": "ym2612"
    },
    {
      "channel": 2,
      "note": 60,
      "start": 32.2041,
      "duration": 0.0161,
      "velocity": 100,
      "chip": "ym2612"
    },
    {
      "channel": 1,
      "note": 70,
      "start": 32.215,
      "duration": 0.0161,
      "velocity": 124,
      "chip": "ym2612"
    },
    {
      "channel": 0,
      "note": 44,
      "start": 32.2167,
      "duration": 0.0161,
      "velocity": 115,
      "chip": "ym2612"
    },
    {
      "channel": 4,
      "note": 81,
      "start": 32.2179,
      "duration": 0.0161,
      "velocity": 97,
      "chip": "ym2612"
    },
    {
      "channel": 3,
      "note": 84,
      "start": 32.2191,
      "duration": 0.0161,
      "velocity": 97,
      "chip": "ym2612"
    },
    {
      "channel": 2,
      "note": 60,
      "start": 32.2202,
      "duration": 0.0161,
      "velocity": 100,
      "chip": "ym2612"
    },
    {
      "channel": 1,
      "note": 69,
      "start": 32.2311,
      "duration": 0.0161,
      "velocity": 124,
      "chip": "ym2612"
    },
    {
      "channel": 0,
      "note": 44,
      "start": 32.2328,
      "duration": 0.0161,
      "velocity": 115,
      "chip": "ym2612"
    },
    {
      "channel": 4,
      "note": 81,
      "start": 32.234,
      "duration": 0.0161,
      "velocity": 97,
      "chip": "ym2612"
    },
    {
      "channel": 3,
      "note": 84,
      "start": 32.2352,
      "duration": 0.0161,
      "velocity": 97,
      "chip": "ym2612"
    },
    {
      "channel": 2,
      "note": 60,
      "start": 32.2363,
      "duration": 0.0161,
      "velocity": 100,
      "chip": "ym2612"
    },
    {
      "channel": 1,
      "note": 68,
      "start": 32.2472,
      "duration": 0.0161,
      "velocity": 124,
      "chip": "ym2612"
    },
    {
      "channel": 0,
      "note": 45,
      "start": 32.2489,
      "duration": 0.0161,
      "velocity": 115,
      "chip": "ym2612"
    },
    {
      "channel": 4,
      "note": 81,
      "start": 32.2501,
      "duration": 0.0161,
      "velocity": 97,
      "chip": "ym2612"
    },
    {
      "channel": 3,
      "note": 84,
      "start": 32.2513,
      "duration": 0.0161,
      "velocity": 97,
      "chip": "ym2612"
    },
    {
      "channel": 2,
      "note": 60,
      "start": 32.2524,
      "duration": 0.0161,
      "velocity": 100,
      "chip": "ym2612"
    },
    {
      "channel": 1,
      "note": 66,
      "start": 32.2633,
      "duration": 0.0161,
      "velocity": 124,
      "chip": "ym2612"
    },
    {
      "channel": 0,
      "note": 45,
      "start": 32.265,
      "duration": 0.0161,
      "velocity": 115,
      "chip": "ym2612"
    },
    {
      "channel": 4,
      "note": 81,
      "start": 32.2662,
      "duration": 0.0161,
      "velocity": 97,
      "chip": "ym2612"
    },
    {
      "channel": 3,
      "note": 84,
      "start": 32.2673,
      "duration": 0.0162,
      "velocity": 97,
      "chip": "ym2612"
    },
    {
      "channel": 2,
      "note": 60,
      "start": 32.2685,
      "duration": 0.0161,
      "velocity": 100,
      "chip": "ym2612"
    },
    {
      "channel": 1,
      "note": 65,
      "start": 32.2794,
      "duration": 0.0161,
      "velocity": 124,
      "chip": "ym2612"
    },
    {
      "channel": 0,
      "note": 46,
      "start": 32.2812,
      "duration": 0.0161,
      "velocity": 115,
      "chip": "ym2612"
    },
    {
      "channel": 4,
      "note": 81,
      "start": 32.2823,
      "duration": 0.0161,
      "velocity": 97,
      "chip": "ym2612"
    },
    {
      "channel": 3,
      "note": 84,
      "start": 32.2835,
      "duration": 0.0161,
      "velocity": 97,
      "chip": "ym2612"
    },
    {
      "channel": 1,
      "note": 64,
      "start": 32.2955,
      "duration": 0.0161,
      "velocity": 124,
      "chip": "ym2612"
    },
    {
      "channel": 0,
      "note": 46,
      "start": 32.2973,
      "duration": 0.0179,
      "velocity": 115,
      "chip": "ym2612"
    },
    {
      "channel": 4,
      "note": 81,
      "start": 32.2985,
      "duration": 0.0179,
      "velocity": 97,
      "chip": "ym2612"
    },
    {
      "channel": 3,
      "note": 84,
      "start": 32.2996,
      "duration": 0.0179,
      "velocity": 97,
      "chip": "ym2612"
    },
    {
      "channel": 1,
      "note": 62,
      "start": 32.3116,
      "duration": 0.0161,
      "velocity": 124,
      "chip": "ym2612"
    },
    {
      "channel": 0,
      "note": 36,
      "start": 32.3151,
      "duration": 0.0144,
      "velocity": 115,
      "chip": "ym2612"
    },
    {
      "channel": 4,
      "note": 81,
      "start": 32.3163,
      "duration": 0.0144,
      "velocity": 97,
      "chip": "ym2612"
    },
    {
      "channel": 3,
      "note": 84,
      "start": 32.3176,
      "duration": 0.0143,
      "velocity": 97,
      "chip": "ym2612"
    },
    {
      "channel": 2,
      "note": 56,
      "start": 32.319,
      "duration": 0.0141,
      "velocity": 100,
      "chip": "ym2612"
    },
    {
      "channel": 1,
      "note": 61,
      "start": 32.3277,
      "duration": 0.0161,
      "velocity": 124,
      "chip": "ym2612"
    },
    {
      "channel": 0,
      "note": 36,
      "start": 32.3295,
      "duration": 0.016,
      "velocity": 115,
      "chip": "ym2612"
    },
    {
      "channel": 4,
      "note": 81,
      "start": 32.3307,
      "duration": 0.016,
      "velocity": 97,
      "chip": "ym2612"
    },
    {
      "channel": 3,
      "note": 84,
      "start": 32.3319,
      "duration": 0.016,
      "velocity": 97,
      "chip": "ym2612"
    },
    {
      "channel": 2,
      "note": 56,
      "start": 32.3331,
      "duration": 0.016,
      "velocity": 100,
      "chip": "ym2612"
    },
    {
      "channel": 1,
      "note": 60,
      "start": 32.3438,
      "duration": 0.0161,
      "velocity": 124,
      "chip": "ym2612"
    },
    {
      "channel": 0,
      "note": 37,
      "start": 32.3455,
      "duration": 0.0161,
      "velocity": 115,
      "chip": "ym2612"
    },
    {
      "channel": 4,
      "note": 81,
      "start": 32.3467,
      "duration": 0.0161,
      "velocity": 97,
      "chip": "ym2612"
    },
    {
      "channel": 3,
      "note": 84,
      "start": 32.3479,
      "duration": 0.0161,
      "velocity": 97,
      "chip": "ym2612"
    },
    {
      "channel": 2,
      "note": 56,
      "start": 32.349,
      "duration": 0.0161,
      "velocity": 100,
      "chip": "ym2612"
    },
    {
      "channel": 1,
      "note": 59,
      "start": 32.3599,
      "duration": 0.0173,
      "velocity": 124,
      "chip": "ym2612"
    },
    {
      "channel": 0,
      "note": 37,
      "start": 32.3616,
      "duration": 0.0173,
      "velocity": 115,
      "chip": "ym2612"
    },
    {
      "channel": 4,
      "note": 81,
      "start": 32.3628,
      "duration": 0.0173,
      "velocity": 97,
      "chip": "ym2612"
    },
    {
      "channel": 3,
      "note": 84,
      "start": 32.364,
      "duration": 0.0173,
      "velocity": 97,
      "chip": "ym2612"
    },
    {
      "channel": 2,
      "note": 56,
      "start": 32.3651,
      "duration": 0.0173,
      "velocity": 100,
      "chip": "ym2612"
    },
    {
      "channel": 1,
      "note": 57,
      "start": 32.3772,
      "duration": 0.0167,
      "velocity": 124,
      "chip": "ym2612"
    },
    {
      "channel": 0,
      "note": 38,
      "start": 32.3789,
      "duration": 0.0167,
      "velocity": 115,
      "chip": "ym2612"
    },
    {
      "channel": 4,
      "note": 81,
      "start": 32.3801,
      "duration": 0.0167,
      "velocity": 97,
      "chip": "ym2612"
    },
    {
      "channel": 3,
      "note": 84,
      "start": 32.3813,
      "duration": 0.0167,
      "velocity": 97,
      "chip": "ym2612"
    },
    {
      "channel": 2,
      "note": 56,
      "start": 32.3824,
      "duration": 0.0167,
      "velocity": 100,
      "chip": "ym2612"
    },
    {
      "channel": 1,
      "note": 56,
      "start": 32.3939,
      "duration": 0.0163,
      "velocity": 124,
      "chip": "ym2612"
    },
    {
      "channel": 0,
      "note": 38,
      "start": 32.3956,
      "duration": 0.0163,
      "velocity": 115,
      "chip": "ym2612"
    },
    {
      "channel": 4,
      "note": 81,
      "start": 32.3968,
      "duration": 0.0163,
      "velocity": 97,
      "chip": "ym2612"
    },
    {
      "channel": 3,
      "note": 84,
      "start": 32.398,
      "duration": 0.0163,
      "velocity": 97,
      "chip": "ym2612"
    },
    {
      "channel": 2,
      "note": 56,
      "start": 32.3991,
      "duration": 0.0163,
      "velocity": 100,
      "chip": "ym2612"
    },
    {
      "channel": 1,
      "note": 55,
      "start": 32.4102,
      "duration": 0.0144,
      "velocity": 124,
      "chip": "ym2612"
    },
    {
      "channel": 0,
      "note": 39,
      "start": 32.412,
      "duration": 0.0144,
      "velocity": 115,
      "chip": "ym2612"
    },
    {
      "channel": 4,
      "note": 81,
      "start": 32.4132,
      "duration": 0.0144,
      "velocity": 97,
      "chip": "ym2612"
    },
    {
      "channel": 3,
      "note": 84,
      "start": 32.4143,
      "duration": 0.0144,
      "velocity": 97,
      "chip": "ym2612"
    },
    {
      "channel": 2,
      "note": 56,
      "start": 32.4154,
      "duration": 0.0144,
      "velocity": 100,
      "chip": "ym2612"
    },
    {
      "channel": 1,
      "note": 53,
      "start": 32.4246,
      "duration": 0.0186,
      "velocity": 124,
      "chip": "ym2612"
    },
    {
      "channel": 0,
      "note": 39,
      "start": 32.4263,
      "duration": 0.0186,
      "velocity": 115,
      "chip": "ym2612"
    },
    {
      "channel": 4,
      "note": 81,
      "start": 32.4275,
      "duration": 0.0186,
      "velocity": 97,
      "chip": "ym2612"
    },
    {
      "channel": 3,
      "note": 84,
      "start": 32.4288,
      "duration": 0.0185,
      "velocity": 97,
      "chip": "ym2612"
    },
    {
      "channel": 2,
      "note": 56,
      "start": 32.4298,
      "duration": 0.0186,
      "velocity": 100,
      "chip": "ym2612"
    },
    {
      "channel": 1,
      "note": 52,
      "start": 32.4432,
      "duration": 0.0161,
      "velocity": 124,
      "chip": "ym2612"
    },
    {
      "channel": 0,
      "note": 40,
      "start": 32.4449,
      "duration": 0.0161,
      "velocity": 115,
      "chip": "ym2612"
    },
    {
      "channel": 4,
      "note": 81,
      "start": 32.4461,
      "duration": 0.0161,
      "velocity": 97,
      "chip": "ym2612"
    },
    {
      "channel": 3,
      "note": 84,
      "start": 32.4473,
      "duration": 0.0161,
      "velocity": 97,
      "chip": "ym2612"
    },
    {
      "channel": 2,
      "note": 56,
      "start": 32.4484,
      "duration": 0.0161,
      "velocity": 100,
      "chip": "ym2612"
    },
    {
      "channel": 1,
      "note": 51,
      "start": 32.4593,
      "duration": 0.0125,
      "velocity": 1,
      "chip": "ym2612"
    },
    {
      "channel": 0,
      "note": 40,
      "start": 32.461,
      "duration": 0.0149,
      "velocity": 115,
      "chip": "ym2612"
    },
    {
      "channel": 4,
      "note": 81,
      "start": 32.4622,
      "duration": 0.0149,
      "velocity": 97,
      "chip": "ym2612"
    },
    {
      "channel": 3,
      "note": 84,
      "start": 32.4634,
      "duration": 0.0149,
      "velocity": 97,
      "chip": "ym2612"
    },
    {
      "channel": 2,
      "note": 56,
      "start": 32.4645,
      "duration": 0.0149,
      "velocity": 100,
      "chip": "ym2612"
    },
    {
      "channel": 0,
      "note": 40,
      "start": 32.4759,
      "duration": 0.0129,
      "velocity": 115,
      "chip": "ym2612"
    },
    {
      "channel": 4,
      "note": 81,
      "start": 32.4771,
      "duration": 0.0132,
      "velocity": 97,
      "chip": "ym2612"
    },
    {
      "channel": 3,
      "note": 84,
      "start": 32.4783,
      "duration": 0.0132,
      "velocity": 97,
      "chip": "ym2612"
    },
    {
      "channel": 0,
      "note": 41,
      "start": 32.4888,
      "duration": 0.0206,
      "velocity": 115,
      "chip": "ym2612"
    },
    {
      "channel": 4,
      "note": 81,
      "start": 32.4903,
      "duration": 0.0203,
      "velocity": 97,
      "chip": "ym2612"
    },
    {
      "channel": 3,
      "note": 84,
      "start": 32.4915,
      "duration": 0.0203,
      "velocity": 97,
      "chip": "ym2612"
    },
    {
      "channel": 0,
      "note": 36,
      "start": 32.5094,
      "duration": 0.0116,
      "velocity": 115,
      "chip": "ym2612"
    },
    {
      "channel": 4,
      "note": 81,
      "start": 32.5106,
      "duration": 0.0116,
      "velocity": 97,
      "chip": "ym2612"
    },
    {
      "channel": 3,
      "note": 84,
      "start": 32.5118,
      "duration": 0.0143,
      "velocity": 97,
      "chip": "ym2612"
    },
    {
      "channel": 2,
      "note": 53,
      "start": 32.5133,
      "duration": 0.0141,
      "velocity": 100,
      "chip": "ym2612"
    },
    {
      "channel": 1,
      "note": 41,
      "start": 32.5148,
      "duration": 0.0137,
      "velocity": 100,
      "chip": "ym2612"
    },
    {
      "channel": 0,
      "note": 36,
      "start": 32.521,
      "duration": 0.016,
      "velocity": 115,
      "chip": "ym2612"
    },
    {
      "channel": 4,
      "note": 81,
      "start": 32.5222,
      "duration": 0.016,
      "velocity": 97,
      "chip": "ym2612"
    },
    {
      "channel": 3,
      "note": 84,
      "start": 32.5261,
      "duration": 0.0157,
      "velocity": 97,
      "chip": "ym2612"
    },
    {
      "channel": 2,
      "note": 53,
      "start": 32.5273,
      "duration": 0.0156,
      "velocity": 100,
      "chip": "ym2612"
    },
    {
      "channel": 1,
      "note": 41,
      "start": 32.5285,
      "duration": 0.0156,
      "velocity": 100,
      "chip": "ym2612"
    },
    {
      "channel": 0,
      "note": 37,
      "start": 32.5371,
      "duration": 0.0161,
      "velocity": 115,
      "chip": "ym2612"
    },
    {
      "channel": 4,
      "note": 81,
      "start": 32.5383,
      "duration": 0.0161,
      "velocity": 97,
      "chip": "ym2612"
    },
    {
      "channel": 3,
      "note": 84,
      "start": 32.5418,
      "duration": 0.0137,
      "velocity": 97,
      "chip": "ym2612"
    },
    {
      "channel": 2,
      "note": 53,
      "start": 32.543,
      "duration": 0.0141,
      "velocity": 100,
      "chip": "ym2612"
    },
    {
      "channel": 1,
      "note": 41,
      "start": 32.5441,
      "duration": 0.014,
      "velocity": 100,
      "chip": "ym2612"
    },
    {
      "channel": 0,
      "note": 37,
      "start": 32.5532,
      "duration": 0.0161,
      "velocity": 115,
      "chip": "ym2612"
    },
    {
      "channel": 4,
      "note": 81,
      "start": 32.5544,
      "duration": 0.0162,
      "velocity": 97,
      "chip": "ym2612"
    },
    {
      "channel": 3,
      "note": 84,
      "start": 32.5556,
      "duration": 0.0161,
      "velocity": 97,
      "chip": "ym2612"
    },
    {
      "channel": 2,
      "note": 53,
      "start": 32.5571,
      "duration": 0.0185,
      "velocity": 100,
      "chip": "ym2612"
    },
    {
      "channel": 1,
      "note": 41,
      "start": 32.5581,
      "duration": 0.0186,
      "velocity": 100,
      "chip": "ym2612"
    },
    {
      "channel": 0,
      "note": 38,
      "start": 32.5693,
      "duration": 0.0161,
      "velocity": 115,
      "chip": "ym2612"
    },
    {
      "channel": 4,
      "note": 81,
      "start": 32.5705,
      "duration": 0.016,
      "velocity": 97,
      "chip": "ym2612"
    },
    {
      "channel": 3,
      "note": 84,
      "start": 32.5717,
      "duration": 0.0161,
      "velocity": 97,
      "chip": "ym2612"
    },
    {
      "channel": 2,
      "note": 53,
      "start": 32.5756,
      "duration": 0.0133,
      "velocity": 100,
      "chip": "ym2612"
    },
    {
      "channel": 1,
      "note": 41,
      "start": 32.5767,
      "duration": 0.016,
      "velocity": 100,
      "chip": "ym2612"
    },
    {
      "channel": 0,
      "note": 38,
      "start": 32.5854,
      "duration": 0.0161,
      "velocity": 115,
      "chip": "ym2612"
    },
    {
      "channel": 4,
      "note": 81,
      "start": 32.5866,
      "duration": 0.0161,
      "velocity": 97,
      "chip": "ym2612"
    },
    {
      "channel": 3,
      "note": 84,
      "start": 32.5878,
      "duration": 0.0161,
      "velocity": 97,
      "chip": "ym2612"
    },
    {
      "channel": 2,
      "note": 53,
      "start": 32.5889,
      "duration": 0.0161,
      "velocity": 100,
      "chip": "ym2612"
    },
    {
      "channel": 1,
      "note": 41,
      "start": 32.5927,
      "duration": 0.0158,
      "velocity": 100,
      "chip": "ym2612"
    },
    {
      "channel": 0,
      "note": 39,
      "start": 32.6015,
      "duration": 0.0161,
      "velocity": 115,
      "chip": "ym2612"
    },
    {
      "channel": 4,
      "note": 81,
      "start": 32.6027,
      "duration": 0.0161,
      "velocity": 97,
      "chip": "ym2612"
    },
    {
      "channel": 3,
      "note": 84,
      "start": 32.6039,
      "duration": 0.0161,
      "velocity": 97,
      "chip": "ym2612"
    },
    {
      "channel": 2,
      "note": 53,
      "start": 32.605,
      "duration": 0.0161,
      "velocity": 100,
      "chip": "ym2612"
    },
    {
      "channel": 1,
      "note": 41,
      "start": 32.6085,
      "duration": 0.0137,
      "velocity": 100,
      "chip": "ym2612"
    },
    {
      "channel": 0,
      "note": 39,
      "start": 32.6176,
      "duration": 0.0161,
      "velocity": 115,
      "chip": "ym2612"
    },
    {
      "channel": 4,
      "note": 81,
      "start": 32.6188,
      "duration": 0.0161,
      "velocity": 97,
      "chip": "ym2612"
    },
    {
      "channel": 3,
      "note": 84,
      "start": 32.62,
      "duration": 0.0161,
      "velocity": 97,
      "chip": "ym2612"
    },
    {
      "channel": 2,
      "note": 53,
      "start": 32.6211,
      "duration": 0.0161,
      "velocity": 100,
      "chip": "ym2612"
    },
    {
      "channel": 1,
      "note": 41,
      "start": 32.6222,
      "duration": 0.0161,
      "velocity": 100,
      "chip": "ym2612"
    },
    {
      "channel": 0,
      "note": 40,
      "start": 32.6337,
      "duration": 0.0161,
      "velocity": 115,
      "chip": "ym2612"
    },
    {
      "channel": 4,
      "note": 81,
      "start": 32.6349,
      "duration": 0.0161,
      "velocity": 97,
      "chip": "ym2612"
    },
    {
      "channel": 3,
      "note": 84,
      "start": 32.6361,
      "duration": 0.0161,
      "velocity": 97,
      "chip": "ym2612"
    },
    {
      "channel": 2,
      "note": 53,
      "start": 32.6372,
      "duration": 0.0161,
      "velocity": 100,
      "chip": "ym2612"
    },
    {
      "channel": 1,
      "note": 41,
      "start": 32.6383,
      "duration": 0.0162,
      "velocity": 100,
      "chip": "ym2612"
    },
    {
      "channel": 0,
      "note": 40,
      "start": 32.6498,
      "duration": 0.0161,
      "velocity": 115,
      "chip": "ym2612"
    },
    {
      "channel": 4,
      "note": 81,
      "start": 32.651,
      "duration": 0.0161,
      "velocity": 97,
      "chip": "ym2612"
    },
    {
      "channel": 3,
      "note": 84,
      "start": 32.6522,
      "duration": 0.0161,
      "velocity": 97,
      "chip": "ym2612"
    },
    {
      "channel": 2,
      "note": 53,
      "start": 32.6533,
      "duration": 0.0161,
      "velocity": 100,
      "chip": "ym2612"
    },
    {
      "channel": 1,
      "note": 41,
      "start": 32.6544,
      "duration": 0.0161,
      "velocity": 100,
      "chip": "ym2612"
    },
    {
      "channel": 0,
      "note": 40,
      "start": 32.6659,
      "duration": 0.0161,
      "velocity": 115,
      "chip": "ym2612"
    },
    {
      "channel": 4,
      "note": 81,
      "start": 32.6671,
      "duration": 0.0161,
      "velocity": 97,
      "chip": "ym2612"
    },
    {
      "channel": 3,
      "note": 84,
      "start": 32.6683,
      "duration": 0.0161,
      "velocity": 97,
      "chip": "ym2612"
    },
    {
      "channel": 0,
      "note": 41,
      "start": 32.682,
      "duration": 0.0161,
      "velocity": 115,
      "chip": "ym2612"
    },
    {
      "channel": 4,
      "note": 81,
      "start": 32.6832,
      "duration": 0.0161,
      "velocity": 97,
      "chip": "ym2612"
    },
    {
      "channel": 3,
      "note": 84,
      "start": 32.6843,
      "duration": 0.0162,
      "velocity": 97,
      "chip": "ym2612"
    },
    {
      "channel": 0,
      "note": 41,
      "start": 32.6981,
      "duration": 0.0162,
      "velocity": 115,
      "chip": "ym2612"
    },
    {
      "channel": 4,
      "note": 81,
      "start": 32.6993,
      "duration": 0.0161,
      "velocity": 97,
      "chip": "ym2612"
    },
    {
      "channel": 3,
      "note": 84,
      "start": 32.7005,
      "duration": 0.0161,
      "velocity": 97,
      "chip": "ym2612"
    },
    {
      "channel": 2,
      "note": 60,
      "start": 32.7019,
      "duration": 0.0158,
      "velocity": 100,
      "chip": "ym2612"
    },
    {
      "channel": 1,
      "note": 48,
      "start": 32.7033,
      "duration": 0.0157,
      "velocity": 100,
      "chip": "ym2612"
    },
    {
      "channel": 0,
      "note": 42,
      "start": 32.7142,
      "duration": 0.0161,
      "velocity": 115,
      "chip": "ym2612"
    },
    {
      "channel": 4,
      "note": 81,
      "start": 32.7154,
      "duration": 0.0161,
      "velocity": 97,
      "chip": "ym2612"
    },
    {
      "channel": 3,
      "note": 84,
      "start": 32.7166,
      "duration": 0.0161,
      "velocity": 97,
      "chip": "ym2612"
    },
    {
      "channel": 2,
      "note": 60,
      "start": 32.7177,
      "duration": 0.016,
      "velocity": 100,
      "chip": "ym2612"
    },
    {
      "channel": 1,
      "note": 48,
      "start": 32.719,
      "duration": 0.016,
      "velocity": 100,
      "chip": "ym2612"
    },
    {
      "channel": 0,
      "note": 42,
      "start": 32.7303,
      "duration": 0.0161,
      "velocity": 115,
      "chip": "ym2612"
    },
    {
      "channel": 4,
      "note": 81,
      "start": 32.7315,
      "duration": 0.0162,
      "velocity": 97,
      "chip": "ym2612"
    },
    {
      "channel": 3,
      "note": 84,
      "start": 32.7327,
      "duration": 0.0161,
      "velocity": 97,
      "chip": "ym2612"
    },
    {
      "channel": 2,
      "note": 60,
      "start": 32.7338,
      "duration": 0.0162,
      "velocity": 100,
      "chip": "ym2612"
    },
    {
      "channel": 1,
      "note": 48,
      "start": 32.7349,
      "duration": 0.0161,
      "velocity": 100,
      "chip": "ym2612"
    },
    {
      "channel": 0,
      "note": 43,
      "start": 32.7464,
      "duration": 0.0161,
      "velocity": 115,
      "chip": "ym2612"
    },
    {
      "channel": 4,
      "note": 81,
      "start": 32.7476,
      "duration": 0.0161,
      "velocity": 97,
      "chip": "ym2612"
    },
    {
      "channel": 3,
      "note": 84,
      "start": 32.7488,
      "duration": 0.0161,
      "velocity": 97,
      "chip": "ym2612"
    },
    {
      "channel": 2,
      "note": 60,
      "start": 32.7499,
      "duration": 0.0161,
      "velocity": 100,
      "chip": "ym2612"
    },
    {
      "channel": 1,
      "note": 48,
      "start": 32.751,
      "duration": 0.0161,
      "velocity": 100,
      "chip": "ym2612"
    },
    {
      "channel": 0,
      "note": 43,
      "start": 32.7625,
      "duration": 0.0161,
      "velocity": 115,
      "chip": "ym2612"
    },
    {
      "channel": 4,
      "note": 81,
      "start": 32.7637,
      "duration": 0.0161,
      "velocity": 97,
      "chip": "ym2612"
    },
    {
      "channel": 3,
      "note": 84,
      "start": 32.7649,
      "duration": 0.0161,
      "velocity": 97,
      "chip": "ym2612"
    },
    {
      "channel": 2,
      "note": 60,
      "start": 32.766,
      "duration": 0.0161,
      "velocity": 100,
      "chip": "ym2612"
    },
    {
      "channel": 1,
      "note": 48,
      "start": 32.7671,
      "duration": 0.0162,
      "velocity": 100,
      "chip": "ym2612"
    },
    {
      "channel": 0,
      "note": 44,
      "start": 32.7786,
      "duration": 0.0161,
      "velocity": 115,
      "chip": "ym2612"
    },
    {
      "channel": 4,
      "note": 81,
      "start": 32.7798,
      "duration": 0.0161,
      "velocity": 97,
      "chip": "ym2612"
    },
    {
      "channel": 3,
      "note": 84,
      "start": 32.781,
      "duration": 0.0161,
      "velocity": 97,
      "chip": "ym2612"
    },
    {
      "channel": 2,
      "note": 60,
      "start": 32.7821,
      "duration": 0.0161,
      "velocity": 100,
      "chip": "ym2612"
    },
    {
      "channel": 1,
      "note": 48,
      "start": 32.7833,
      "duration": 0.0161,
      "velocity": 100,
      "chip": "ym2612"
    },
    {
      "channel": 0,
      "note": 44,
      "start": 32.7947,
      "duration": 0.0161,
      "velocity": 115,
      "chip": "ym2612"
    },
    {
      "channel": 4,
      "note": 81,
      "start": 32.7959,
      "duration": 0.0161,
      "velocity": 97,
      "chip": "ym2612"
    },
    {
      "channel": 3,
      "note": 84,
      "start": 32.7971,
      "duration": 0.0161,
      "velocity": 97,
      "chip": "ym2612"
    },
    {
      "channel": 2,
      "note": 60,
      "start": 32.7982,
      "duration": 0.0161,
      "velocity": 100,
      "chip": "ym2612"
    },
    {
      "channel": 1,
      "note": 48,
      "start": 32.7993,
      "duration": 0.0161,
      "velocity": 100,
      "chip": "ym2612"
    },
    {
      "channel": 0,
      "note": 44,
      "start": 32.8108,
      "duration": 0.0161,
      "velocity": 115,
      "chip": "ym2612"
    },
    {
      "channel": 4,
      "note": 81,
      "start": 32.812,
      "duration": 0.0161,
      "velocity": 97,
      "chip": "ym2612"
    },
    {
      "channel": 3,
      "note": 84,
      "start": 32.8132,
      "duration": 0.0162,
      "velocity": 97,
      "chip": "ym2612"
    },
    {
      "channel": 2,
      "note": 60,
      "start": 32.8143,
      "duration": 0.0161,
      "velocity": 100,
      "chip": "ym2612"
    },
    {
      "channel": 1,
      "note": 48,
      "start": 32.8154,
      "duration": 0.0161,
      "velocity": 100,
      "chip": "ym2612"
    },
    {
      "channel": 0,
      "note": 45,
      "start": 32.8269,
      "duration": 0.0171,
      "velocity": 115,
      "chip": "ym2612"
    },
    {
      "channel": 4,
      "note": 81,
      "start": 32.8281,
      "duration": 0.0171,
      "velocity": 97,
      "chip": "ym2612"
    },
    {
      "channel": 3,
      "note": 84,
      "start": 32.8293,
      "duration": 0.0171,
      "velocity": 97,
      "chip": "ym2612"
    },
    {
      "channel": 2,
      "note": 60,
      "start": 32.8305,
      "duration": 0.017,
      "velocity": 100,
      "chip": "ym2612"
    },
    {
      "channel": 1,
      "note": 48,
      "start": 32.8315,
      "duration": 0.0171,
      "velocity": 100,
      "chip": "ym2612"
    },
    {
      "channel": 0,
      "note": 45,
      "start": 32.8439,
      "duration": 0.0167,
      "velocity": 115,
      "chip": "ym2612"
    },
    {
      "channel": 4,
      "note": 81,
      "start": 32.8451,
      "duration": 0.0167,
      "velocity": 97,
      "chip": "ym2612"
    },
    {
      "channel": 3,
      "note": 84,
      "start": 32.8464,
      "duration": 0.0167,
      "velocity": 97,
      "chip": "ym2612"
    },
    {
      "channel": 2,
      "note": 60,
      "start": 32.8474,
      "duration": 0.0167,
      "velocity": 100,
      "chip": "ym2612"
    },
    {
      "channel": 1,
      "note": 48,
      "start": 32.8486,
      "duration": 0.0167,
      "velocity": 100,
      "chip": "ym2612"
    },
    {
      "channel": 0,
      "note": 46,
      "start": 32.8607,
      "duration": 0.0163,
      "velocity": 115,
      "chip": "ym2612"
    },
    {
      "channel": 4,
      "note": 81,
      "start": 32.8618,
      "duration": 0.0163,
      "velocity": 97,
      "chip": "ym2612"
    },
    {
      "channel": 3,
      "note": 84,
      "start": 32.863,
      "duration": 0.0163,
      "velocity": 97,
      "chip": "ym2612"
    },
    {
      "channel": 0,
      "note": 46,
      "start": 32.877,
      "duration": 0.0181,
      "velocity": 115,
      "chip": "ym2612"
    },
    {
      "channel": 4,
      "note": 81,
      "start": 32.8782,
      "duration": 0.0181,
      "velocity": 97,
      "chip": "ym2612"
    },
    {
      "channel": 3,
      "note": 84,
      "start": 32.8793,
      "duration": 0.0181,
      "velocity": 97,
      "chip": "ym2612"
    },
    {
      "channel": 1,
      "note": 78,
      "start": 32.8933,
      "duration": 0.0168,
      "velocity": 124,
      "chip": "ym2612"
    },
    {
      "channel": 0,
      "note": 47,
      "start": 32.895,
      "duration": 0.0168,
      "velocity": 115,
      "chip": "ym2612"
    },
    {
      "channel": 4,
      "note": 81,
      "start": 32.8962,
      "duration": 0.0168,
      "velocity": 97,
      "chip": "ym2612"
    },
    {
      "channel": 3,
      "note": 84,
      "start": 32.8974,
      "duration": 0.0168,
      "velocity": 97,
      "chip": "ym2612"
    },
    {
      "channel": 2,
      "note": 65,
      "start": 32.8988,
      "duration": 0.0167,
      "velocity": 100,
      "chip": "ym2612"
    },
    {
      "channel": 1,
      "note": 76,
      "start": 32.9102,
      "duration": 0.016,
      "velocity": 124,
      "chip": "ym2612"
    },
    {
      "channel": 0,
      "note": 47,
      "start": 32.9119,
      "duration": 0.016,
      "velocity": 115,
      "chip": "ym2612"
    },
    {
      "channel": 4,
      "note": 81,
      "start": 32.9131,
      "duration": 0.016,
      "velocity": 97,
      "chip": "ym2612"
    },
    {
      "channel": 3,
      "note": 84,
      "start": 32.9142,
      "duration": 0.016,
      "velocity": 97,
      "chip": "ym2612"
    },
    {
      "channel": 2,
      "note": 65,
      "start": 32.9154,
      "duration": 0.016,
      "velocity": 100,
      "chip": "ym2612"
    },
    {
      "channel": 1,
      "note": 75,
      "start": 32.9262,
      "duration": 0.0158,
      "velocity": 124,
      "chip": "ym2612"
    },
    {
      "channel": 0,
      "note": 47,
      "start": 32.9279,
      "duration": 0.0158,
      "velocity": 115,
      "chip": "ym2612"
    },
    {
      "channel": 4,
      "note": 81,
      "start": 32.9291,
      "duration": 0.0158,
      "velocity": 97,
      "chip": "ym2612"
    },
    {
      "channel": 3,
      "note": 84,
      "start": 32.9303,
      "duration": 0.0158,
      "velocity": 97,
      "chip": "ym2612"
    },
    {
      "channel": 2,
      "note": 65,
      "start": 32.9314,
      "duration": 0.0158,
      "velocity": 100,
      "chip": "ym2612"
    },
    {
      "channel": 1,
      "note": 74,
      "start": 32.942,
      "duration": 0.0137,
      "velocity": 124,
      "chip": "ym2612"
    },
    {
      "channel": 0,
      "note": 48,
      "start": 32.9437,
      "duration": 0.014,
      "velocity": 115,
      "chip": "ym2612"
    },
    {
      "channel": 4,
      "note": 81,
      "start": 32.9449,
      "duration": 0.014,
      "velocity": 97,
      "chip": "ym2612"
    },
    {
      "channel": 3,
      "note": 84,
      "start": 32.9461,
      "duration": 0.0141,
      "velocity": 97,
      "chip": "ym2612"
    },
    {
      "channel": 2,
      "note": 65,
      "start": 32.9472,
      "duration": 0.0141,
      "velocity": 100,
      "chip": "ym2612"
    },
    {
      "channel": 1,
      "note": 72,
      "start": 32.9556,
      "duration": 0.0161,
      "velocity": 124,
      "chip": "ym2612"
    },
    {
      "channel": 0,
      "note": 48,
      "start": 32.9577,
      "duration": 0.0185,
      "velocity": 115,
      "chip": "ym2612"
    },
    {
      "channel": 4,
      "note": 81,
      "start": 32.9589,
      "duration": 0.0185,
      "velocity": 97,
      "chip": "ym2612"
    },
    {
      "channel": 3,
      "note": 84,
      "start": 32.9601,
      "duration": 0.0184,
      "velocity": 97,
      "chip": "ym2612"
    },
    {
      "channel": 2,
      "note": 65,
      "start": 32.9612,
      "duration": 0.0185,
      "velocity": 100,
      "chip": "ym2612"
    },
    {
      "channel": 1,
      "note": 71,
      "start": 32.9717,
      "duration": 0.0161,
      "velocity": 124,
      "chip": "ym2612"
    },
    {
      "channel": 0,
      "note": 49,
      "start": 32.9762,
      "duration": 0.0126,
      "velocity": 1,
      "chip": "ym2612"
    },
    {
      "channel": 4,
      "note": 81,
      "start": 32.9774,
      "duration": 0.0153,
      "velocity": 97,
      "chip": "ym2612"
    },
    {
      "channel": 3,
      "note": 84,
      "start": 32.9785,
      "duration": 0.0153,
      "velocity": 97,
      "chip": "ym2612"
    },
    {
      "channel": 2,
      "note": 65,
      "start": 32.9797,
      "duration": 0.0153,
      "velocity": 100,
      "chip": "ym2612"
    },
    {
      "channel": 1,
      "note": 70,
      "start": 32.9878,
      "duration": 0.0161,
      "velocity": 124,
      "chip": "ym2612"
    },
    {
      "channel": 4,
      "note": 81,
      "start": 32.9927,
      "duration": 0.0125,
      "velocity": 97,
      "chip": "ym2612"
    },
    {
      "channel": 3,
      "note": 84,
      "start": 32.9939,
      "duration": 0.0149,
      "velocity": 97,
      "chip": "ym2612"
    },
    {
      "channel": 2,
      "note": 65,
      "start": 32.995,
      "duration": 0.0149,
      "velocity": 100,
      "chip": "ym2612"
    },
    {
      "channel": 1,
      "note": 69,
      "start": 33.0039,
      "duration": 0.0161,
      "velocity": 124,
      "chip": "ym2612"
    },
    {
      "channel": 4,
      "note": 81,
      "start": 33.0052,
      "duration": 0.0161,
      "velocity": 97,
      "chip": "ym2612"
    },
    {
      "channel": 3,
      "note": 84,
      "start": 33.0088,
      "duration": 0.0137,
      "velocity": 97,
      "chip": "ym2612"
    },
    {
      "channel": 2,
      "note": 65,
      "start": 33.0099,
      "duration": 0.0141,
      "velocity": 100,
      "chip": "ym2612"
    },
    {
      "channel": 1,
      "note": 68,
      "start": 33.02,
      "duration": 0.0162,
      "velocity": 124,
      "chip": "ym2612"
    },
    {
      "channel": 4,
      "note": 81,
      "start": 33.0213,
      "duration": 0.0162,
      "velocity": 97,
      "chip": "ym2612"
    },
    {
      "channel": 3,
      "note": 84,
      "start": 33.0225,
      "duration": 0.0161,
      "velocity": 97,
      "chip": "ym2612"
    },
    {
      "channel": 2,
      "note": 65,
      "start": 33.024,
      "duration": 0.0185,
      "velocity": 100,
      "chip": "ym2612"
    },
    {
      "channel": 1,
      "note": 66,
      "start": 33.0362,
      "duration": 0.0161,
      "velocity": 124,
      "chip": "ym2612"
    },
    {
      "channel": 4,
      "note": 81,
      "start": 33.0375,
      "duration": 0.0161,
      "velocity": 97,
      "chip": "ym2612"
    },
    {
      "channel": 3,
      "note": 84,
      "start": 33.0386,
      "duration": 0.0161,
      "velocity": 97,
      "chip": "ym2612"
    },
    {
      "channel": 2,
      "note": 65,
      "start": 33.0425,
      "duration": 0.0134,
      "velocity": 100,
      "chip": "ym2612"
    },
    {
      "channel": 1,
      "note": 65,
      "start": 33.0523,
      "duration": 0.0161,
      "velocity": 124,
      "chip": "ym2612"
    },
    {
      "channel": 4,
      "note": 81,
      "start": 33.0536,
      "duration": 0.0161,
      "velocity": 97,
      "chip": "ym2612"
    },
    {
      "channel": 3,
      "note": 84,
      "start": 33.0547,
      "duration": 0.0161,
      "velocity": 97,
      "chip": "ym2612"
    },
    {
      "channel": 1,
      "note": 64,
      "start": 33.0684,
      "duration": 0.0161,
      "velocity": 124,
      "chip": "ym2612"
    },
    {
      "channel": 4,
      "note": 81,
      "start": 33.0696,
      "duration": 0.0161,
      "velocity": 97,
      "chip": "ym2612"
    },
    {
      "channel": 3,
      "note": 84,
      "start": 33.0708,
      "duration": 0.0161,
      "velocity": 97,
      "chip": "ym2612"
    },
    {
      "channel": 1,
      "note": 62,
      "start": 33.0845,
      "duration": 0.0161,
      "velocity": 124,
      "chip": "ym2612"
    },
    {
      "channel": 4,
      "note": 81,
      "start": 33.0857,
      "duration": 0.0161,
      "velocity": 97,
      "chip": "ym2612"
    },
    {
      "channel": 3,
      "note": 84,
      "start": 33.0869,
      "duration": 0.016,
      "velocity": 97,
      "chip": "ym2612"
    },
    {
      "channel": 2,
      "note": 63,
      "start": 33.0883,
      "duration": 0.0159,
      "velocity": 100,
      "chip": "ym2612"
    },
    {
      "channel": 1,
      "note": 61,
      "start": 33.1006,
      "duration": 0.0161,
      "velocity": 124,
      "chip": "ym2612"
    },
    {
      "channel": 4,
      "note": 81,
      "start": 33.1018,
      "duration": 0.0161,
      "velocity": 97,
      "chip": "ym2612"
    },
    {
      "channel": 3,
      "note": 84,
      "start": 33.103,
      "duration": 0.0161,
      "velocity": 97,
      "chip": "ym2612"
    },
    {
      "channel": 2,
      "note": 63,
      "start": 33.1042,
      "duration": 0.016,
      "velocity": 100,
      "chip": "ym2612"
    },
    {
      "channel": 1,
      "note": 60,
      "start": 33.1167,
      "duration": 0.0161,
      "velocity": 124,
      "chip": "ym2612"
    },
    {
      "channel": 4,
      "note": 81,
      "start": 33.1179,
      "duration": 0.0161,
      "velocity": 97,
      "chip": "ym2612"
    },
    {
      "channel": 3,
      "note": 84,
      "start": 33.1191,
      "duration": 0.0162,
      "velocity": 97,
      "chip": "ym2612"
    },
    {
      "channel": 2,
      "note": 63,
      "start": 33.1202,
      "duration": 0.0161,
      "velocity": 100,
      "chip": "ym2612"
    },
    {
      "channel": 1,
      "note": 59,
      "start": 33.1327,
      "duration": 0.0161,
      "velocity": 124,
      "chip": "ym2612"
    },
    {
      "channel": 4,
      "note": 81,
      "start": 33.134,
      "duration": 0.0161,
      "velocity": 97,
      "chip": "ym2612"
    },
    {
      "channel": 3,
      "note": 84,
      "start": 33.1352,
      "duration": 0.0161,
      "velocity": 97,
      "chip": "ym2612"
    },
    {
      "channel": 2,
      "note": 63,
      "start": 33.1363,
      "duration": 0.0161,
      "velocity": 100,
      "chip": "ym2612"
    },
    {
      "channel": 1,
      "note": 57,
      "start": 33.1488,
      "duration": 0.0161,
      "velocity": 124,
      "chip": "ym2612"
    },
    {
      "channel": 4,
      "note": 81,
      "start": 33.1501,
      "duration": 0.0161,
      "velocity": 97,
      "chip": "ym2612"
    },
    {
      "channel": 3,
      "note": 84,
      "start": 33.1513,
      "duration": 0.0161,
      "velocity": 97,
      "chip": "ym2612"
    },
    {
      "channel": 2,
      "note": 63,
      "start": 33.1524,
      "duration": 0.0161,
      "velocity": 100,
      "chip": "ym2612"
    },
    {
      "channel": 1,
      "note": 56,
      "start": 33.1649,
      "duration": 0.0161,
      "velocity": 124,
      "chip": "ym2612"
    },
    {
      "channel": 4,
      "note": 81,
      "start": 33.1662,
      "duration": 0.0161,
      "velocity": 97,
      "chip": "ym2612"
    },
    {
      "channel": 3,
      "note": 84,
      "start": 33.1674,
      "duration": 0.0161,
      "velocity": 97,
      "chip": "ym2612"
    },
    {
      "channel": 2,
      "note": 63,
      "start": 33.1685,
      "duration": 0.0161,
      "velocity": 100,
      "chip": "ym2612"
    },
    {
      "channel": 1,
      "note": 55,
      "start": 33.1811,
      "duration": 0.0161,
      "velocity": 124,
      "chip": "ym2612"
    },
    {
      "channel": 4,
      "note": 81,
      "start": 33.1824,
      "duration": 0.0161,
      "velocity": 97,
      "chip": "ym2612"
    },
    {
      "channel": 3,
      "note": 84,
      "start": 33.1835,
      "duration": 0.0161,
      "velocity": 97,
      "chip": "ym2612"
    },
    {
      "channel": 2,
      "note": 63,
      "start": 33.1846,
      "duration": 0.0161,
      "velocity": 100,
      "chip": "ym2612"
    },
    {
      "channel": 1,
      "note": 53,
      "start": 33.1972,
      "duration": 0.0161,
      "velocity": 124,
      "chip": "ym2612"
    },
    {
      "channel": 4,
      "note": 81,
      "start": 33.1985,
      "duration": 0.0161,
      "velocity": 97,
      "chip": "ym2612"
    },
    {
      "channel": 3,
      "note": 84,
      "start": 33.1996,
      "duration": 0.0161,
      "velocity": 97,
      "chip": "ym2612"
    },
    {
      "channel": 2,
      "note": 63,
      "start": 33.2007,
      "duration": 0.0162,
      "velocity": 100,
      "chip": "ym2612"
    },
    {
      "channel": 1,
      "note": 52,
      "start": 33.2133,
      "duration": 0.0161,
      "velocity": 124,
      "chip": "ym2612"
    },
    {
      "channel": 4,
      "note": 81,
      "start": 33.2146,
      "duration": 0.0161,
      "velocity": 97,
      "chip": "ym2612"
    },
    {
      "channel": 3,
      "note": 84,
      "start": 33.2158,
      "duration": 0.016,
      "velocity": 97,
      "chip": "ym2612"
    },
    {
      "channel": 2,
      "note": 63,
      "start": 33.2169,
      "duration": 0.016,
      "velocity": 100,
      "chip": "ym2612"
    },
    {
      "channel": 1,
      "note": 51,
      "start": 33.2294,
      "duration": 0.0153,
      "velocity": 1,
      "chip": "ym2612"
    },
    {
      "channel": 4,
      "note": 81,
      "start": 33.2307,
      "duration": 0.0153,
      "velocity": 97,
      "chip": "ym2612"
    },
    {
      "channel": 3,
      "note": 84,
      "start": 33.2318,
      "duration": 0.0153,
      "velocity": 97,
      "chip": "ym2612"
    },
    {
      "channel": 2,
      "note": 63,
      "start": 33.2329,
      "duration": 0.0153,
      "velocity": 100,
      "chip": "ym2612"
    },
    {
      "channel": 4,
      "note": 81,
      "start": 33.2459,
      "duration": 0.0153,
      "velocity": 97,
      "chip": "ym2612"
    },
    {
      "channel": 3,
      "note": 84,
      "start": 33.2471,
      "duration": 0.0153,
      "velocity": 97,
      "chip": "ym2612"
    },
    {
      "channel": 4,
      "note": 81,
      "start": 33.2612,
      "duration": 0.0195,
      "velocity": 97,
      "chip": "ym2612"
    },
    {
      "channel": 3,
      "note": 84,
      "start": 33.2624,
      "duration": 0.0195,
      "velocity": 97,
      "chip": "ym2612"
    },
    {
      "channel": 0,
      "note": 36,
      "start": 33.2795,
      "duration": 0.0144,
      "velocity": 115,
      "chip": "ym2612"
    },
    {
      "channel": 4,
      "note": 81,
      "start": 33.2807,
      "duration": 0.0144,
      "velocity": 97,
      "chip": "ym2612"
    },
    {
      "channel": 3,
      "note": 84,
      "start": 33.2819,
      "duration": 0.0144,
      "velocity": 97,
      "chip": "ym2612"
    },
    {
      "channel": 0,
      "note": 36,
      "start": 33.2939,
      "duration": 0.0168,
      "velocity": 115,
      "chip": "ym2612"
    },
    {
      "channel": 4,
      "note": 81,
      "start": 33.2951,
      "duration": 0.0167,
      "velocity": 97,
      "chip": "ym2612"
    },
    {
      "channel": 3,
      "note": 84,
      "start": 33.2963,
      "duration": 0.0167,
      "velocity": 97,
      "chip": "ym2612"
    },
    {
      "channel": 0,
      "note": 37,
      "start": 33.3107,
      "duration": 0.0167,
      "velocity": 115,
      "chip": "ym2612"
    },
    {
      "channel": 4,
      "note": 81,
      "start": 33.3118,
      "duration": 0.0167,
      "velocity": 97,
      "chip": "ym2612"
    },
    {
      "channel": 3,
      "note": 84,
      "start": 33.313,
      "duration": 0.0167,
      "velocity": 97,
      "chip": "ym2612"
    },
    {
      "channel": 0,
      "note": 37,
      "start": 33.3273,
      "duration": 0.0163,
      "velocity": 115,
      "chip": "ym2612"
    },
    {
      "channel": 4,
      "note": 81,
      "start": 33.3285,
      "duration": 0.0163,
      "velocity": 97,
      "chip": "ym2612"
    },
    {
      "channel": 3,
      "note": 84,
      "start": 33.3297,
      "duration": 0.0163,
      "velocity": 97,
      "chip": "ym2612"
    },
    {
      "channel": 0,
      "note": 38,
      "start": 33.3436,
      "duration": 0.0147,
      "velocity": 115,
      "chip": "ym2612"
    },
    {
      "channel": 4,
      "note": 81,
      "start": 33.3448,
      "duration": 0.0147,
      "velocity": 97,
      "chip": "ym2612"
    },
    {
      "channel": 3,
      "note": 84,
      "start": 33.346,
      "duration": 0.0147,
      "velocity": 97,
      "chip": "ym2612"
    },
    {
      "channel": 0,
      "note": 38,
      "start": 33.3583,
      "duration": 0.0188,
      "velocity": 115,
      "chip": "ym2612"
    },
    {
      "channel": 4,
      "note": 81,
      "start": 33.3595,
      "duration": 0.0188,
      "velocity": 97,
      "chip": "ym2612"
    },
    {
      "channel": 3,
      "note": 84,
      "start": 33.3607,
      "duration": 0.0188,
      "velocity": 97,
      "chip": "ym2612"
    },
    {
      "channel": 0,
      "note": 39,
      "start": 33.3771,
      "duration": 0.0161,
      "velocity": 115,
      "chip": "ym2612"
    },
    {
      "channel": 4,
      "note": 81,
      "start": 33.3783,
      "duration": 0.0161,
      "velocity": 97,
      "chip": "ym2612"
    },
    {
      "channel": 3,
      "note": 84,
      "start": 33.3794,
      "duration": 0.0161,
      "velocity": 97,
      "chip": "ym2612"
    },
    {
      "channel": 0,
      "note": 39,
      "start": 33.3932,
      "duration": 0.0158,
      "velocity": 115,
      "chip": "ym2612"
    },
    {
      "channel": 4,
      "note": 81,
      "start": 33.3944,
      "duration": 0.0157,
      "velocity": 97,
      "chip": "ym2612"
    },
    {
      "channel": 3,
      "note": 84,
      "start": 33.3955,
      "duration": 0.0158,
      "velocity": 97,
      "chip": "ym2612"
    },
    {
      "channel": 0,
      "note": 40,
      "start": 33.409,
      "duration": 0.0138,
      "velocity": 115,
      "chip": "ym2612"
    },
    {
      "channel": 4,
      "note": 81,
      "start": 33.4101,
      "duration": 0.0141,
      "velocity": 97,
      "chip": "ym2612"
    },
    {
      "channel": 3,
      "note": 84,
      "start": 33.4113,
      "duration": 0.014,
      "velocity": 97,
      "chip": "ym2612"
    },
    {
      "channel": 0,
      "note": 40,
      "start": 33.4228,
      "duration": 0.016,
      "velocity": 115,
      "chip": "ym2612"
    },
    {
      "channel": 4,
      "note": 81,
      "start": 33.4242,
      "duration": 0.0186,
      "velocity": 97,
      "chip": "ym2612"
    },
    {
      "channel": 3,
      "note": 84,
      "start": 33.4253,
      "duration": 0.0186,
      "velocity": 97,
      "chip": "ym2612"
    },
    {
      "channel": 0,
      "note": 40,
      "start": 33.4388,
      "duration": 0.0161,
      "velocity": 115,
      "chip": "ym2612"
    },
    {
      "channel": 4,
      "note": 81,
      "start": 33.4427,
      "duration": 0.0161,
      "velocity": 97,
      "chip": "ym2612"
    },
    {
      "channel": 3,
      "note": 84,
      "start": 33.4439,
      "duration": 0.0161,
      "velocity": 97,
      "chip": "ym2612"
    },
    {
      "channel": 0,
      "note": 41,
      "start": 33.4549,
      "duration": 0.0202,
      "velocity": 115,
      "chip": "ym2612"
    },
    {
      "channel": 4,
      "note": 81,
      "start": 33.4588,
      "duration": 0.0175,
      "velocity": 97,
      "chip": "ym2612"
    },
    {
      "channel": 3,
      "note": 84,
      "start": 33.46,
      "duration": 0.0176,
      "velocity": 97,
      "chip": "ym2612"
    },
    {
      "channel": 0,
      "note": 36,
      "start": 33.4751,
      "duration": 0.012,
      "velocity": 115,
      "chip": "ym2612"
    },
    {
      "channel": 4,
      "note": 81,
      "start": 33.4763,
      "duration": 0.012,
      "velocity": 97,
      "chip": "ym2612"
    },
    {
      "channel": 3,
      "note": 84,
      "start": 33.4775,
      "duration": 0.0123,
      "velocity": 97,
      "chip": "ym2612"
    },
    {
      "channel": 2,
      "note": 65,
      "start": 33.4789,
      "duration": 0.012,
      "velocity": 100,
      "chip": "ym2612"
    },
    {
      "channel": 1,
      "note": 53,
      "start": 33.4803,
      "duration": 0.0118,
      "velocity": 100,
      "chip": "ym2612"
    },
    {
      "channel": 0,
      "note": 36,
      "start": 33.4871,
      "duration": 0.016,
      "velocity": 115,
      "chip": "ym2612"
    },
    {
      "channel": 4,
      "note": 81,
      "start": 33.4883,
      "duration": 0.0161,
      "velocity": 97,
      "chip": "ym2612"
    },
    {
      "channel": 3,
      "note": 84,
      "start": 33.4898,
      "duration": 0.0157,
      "velocity": 97,
      "chip": "ym2612"
    },
    {
      "channel": 2,
      "note": 65,
      "start": 33.491,
      "duration": 0.0185,
      "velocity": 100,
      "chip": "ym2612"
    },
    {
      "channel": 1,
      "note": 53,
      "start": 33.4922,
      "duration": 0.0184,
      "velocity": 100,
      "chip": "ym2612"
    },
    {
      "channel": 0,
      "note": 37,
      "start": 33.5032,
      "duration": 0.0161,
      "velocity": 115,
      "chip": "ym2612"
    },
    {
      "channel": 4,
      "note": 81,
      "start": 33.5044,
      "duration": 0.0161,
      "velocity": 97,
      "chip": "ym2612"
    },
    {
      "channel": 3,
      "note": 84,
      "start": 33.5055,
      "duration": 0.0161,
      "velocity": 97,
      "chip": "ym2612"
    },
    {
      "channel": 2,
      "note": 65,
      "start": 33.5094,
      "duration": 0.0161,
      "velocity": 100,
      "chip": "ym2612"
    },
    {
      "channel": 1,
      "note": 53,
      "start": 33.5105,
      "duration": 0.0161,
      "velocity": 100,
      "chip": "ym2612"
    },
    {
      "channel": 0,
      "note": 37,
      "start": 33.5193,
      "duration": 0.0161,
      "velocity": 115,
      "chip": "ym2612"
    },
    {
      "channel": 4,
      "note": 81,
      "start": 33.5205,
      "duration": 0.0161,
      "velocity": 97,
      "chip": "ym2612"
    },
    {
      "channel": 3,
      "note": 84,
      "start": 33.5216,
      "duration": 0.0161,
      "velocity": 97,
      "chip": "ym2612"
    },
    {
      "channel": 2,
      "note": 65,
      "start": 33.5255,
      "duration": 0.0134,
      "velocity": 100,
      "chip": "ym2612"
    },
    {
      "channel": 1,
      "note": 53,
      "start": 33.5266,
      "duration": 0.0157,
      "velocity": 100,
      "chip": "ym2612"
    },
    {
      "channel": 0,
      "note": 38,
      "start": 33.5354,
      "duration": 0.0161,
      "velocity": 115,
      "chip": "ym2612"
    },
    {
      "channel": 4,
      "note": 81,
      "start": 33.5366,
      "duration": 0.0161,
      "velocity": 97,
      "chip": "ym2612"
    },
    {
      "channel": 3,
      "note": 84,
      "start": 33.5377,
      "duration": 0.0161,
      "velocity": 97,
      "chip": "ym2612"
    },
    {
      "channel": 2,
      "note": 65,
      "start": 33.5389,
      "duration": 0.0161,
      "velocity": 100,
      "chip": "ym2612"
    },
    {
      "channel": 1,
      "note": 53,
      "start": 33.5424,
      "duration": 0.0141,
      "velocity": 100,
      "chip": "ym2612"
    },
    {
      "channel": 0,
      "note": 38,
      "start": 33.5515,
      "duration": 0.0161,
      "velocity": 115,
      "chip": "ym2612"
    },
    {
      "channel": 4,
      "note": 81,
      "start": 33.5527,
      "duration": 0.0161,
      "velocity": 97,
      "chip": "ym2612"
    },
    {
      "channel": 3,
      "note": 84,
      "start": 33.5538,
      "duration": 0.0161,
      "velocity": 97,
      "chip": "ym2612"
    },
    {
      "channel": 2,
      "note": 65,
      "start": 33.5549,
      "duration": 0.0161,
      "velocity": 100,
      "chip": "ym2612"
    },
    {
      "channel": 1,
      "note": 53,
      "start": 33.5564,
      "duration": 0.0158,
      "velocity": 100,
      "chip": "ym2612"
    },
    {
      "channel": 0,
      "note": 39,
      "start": 33.5676,
      "duration": 0.0161,
      "velocity": 115,
      "chip": "ym2612"
    },
    {
      "channel": 4,
      "note": 81,
      "start": 33.5688,
      "duration": 0.0161,
      "velocity": 97,
      "chip": "ym2612"
    },
    {
      "channel": 3,
      "note": 84,
      "start": 33.5699,
      "duration": 0.0161,
      "velocity": 97,
      "chip": "ym2612"
    },
    {
      "channel": 2,
      "note": 65,
      "start": 33.571,
      "duration": 0.0161,
      "velocity": 100,
      "chip": "ym2612"
    },
    {
      "channel": 1,
      "note": 53,
      "start": 33.5722,
      "duration": 0.0161,
      "velocity": 100,
      "chip": "ym2612"
    },
    {
      "channel": 0,
      "note": 39,
      "start": 33.5837,
      "duration": 0.0161,
      "velocity": 115,
      "chip": "ym2612"
    },
    {
      "channel": 4,
      "note": 81,
      "start": 33.5849,
      "duration": 0.0161,
      "velocity": 97,
      "chip": "ym2612"
    },
    {
      "channel": 3,
      "note": 84,
      "start": 33.5861,
      "duration": 0.0161,
      "velocity": 97,
      "chip": "ym2612"
    },
    {
      "channel": 2,
      "note": 65,
      "start": 33.5871,
      "duration": 0.0161,
      "velocity": 100,
      "chip": "ym2612"
    },
    {
      "channel": 1,
      "note": 53,
      "start": 33.5883,
      "duration": 0.0162,
      "velocity": 100,
      "chip": "ym2612"
    },
    {
      "channel": 0,
      "note": 40,
      "start": 33.5998,
      "duration": 0.0161,
      "velocity": 115,
      "chip": "ym2612"
    },
    {
      "channel": 4,
      "note": 81,
      "start": 33.601,
      "duration": 0.016,
      "velocity": 97,
      "chip": "ym2612"
    },
    {
      "channel": 3,
      "note": 84,
      "start": 33.6022,
      "duration": 0.0161,
      "velocity": 97,
      "chip": "ym2612"
    },
    {
      "channel": 2,
      "note": 65,
      "start": 33.6033,
      "duration": 0.016,
      "velocity": 100,
      "chip": "ym2612"
    },
    {
      "channel": 1,
      "note": 53,
      "start": 33.6044,
      "duration": 0.016,
      "velocity": 100,
      "chip": "ym2612"
    },
    {
      "channel": 0,
      "note": 40,
      "start": 33.6159,
      "duration": 0.0161,
      "velocity": 115,
      "chip": "ym2612"
    },
    {
      "channel": 4,
      "note": 81,
      "start": 33.617,
      "duration": 0.0162,
      "velocity": 97,
      "chip": "ym2612"
    },
    {
      "channel": 3,
      "note": 84,
      "start": 33.6183,
      "duration": 0.0161,
      "velocity": 97,
      "chip": "ym2612"
    },
    {
      "channel": 2,
      "note": 65,
      "start": 33.6193,
      "duration": 0.0162,
      "velocity": 100,
      "chip": "ym2612"
    },
    {
      "channel": 1,
      "note": 53,
      "start": 33.6205,
      "duration": 0.0161,
      "velocity": 100,
      "chip": "ym2612"
    },
    {
      "channel": 0,
      "note": 40,
      "start": 33.632,
      "duration": 0.0161,
      "velocity": 115,
      "chip": "ym2612"
    },
    {
      "channel": 4,
      "note": 81,
      "start": 33.6332,
      "duration": 0.0161,
      "velocity": 97,
      "chip": "ym2612"
    },
    {
      "channel": 3,
      "note": 84,
      "start": 33.6343,
      "duration": 0.0161,
      "velocity": 97,
      "chip": "ym2612"
    },
    {
      "channel": 0,
      "note": 41,
      "start": 33.6481,
      "duration": 0.0195,
      "velocity": 115,
      "chip": "ym2612"
    },
    {
      "channel": 4,
      "note": 81,
      "start": 33.6493,
      "duration": 0.0195,
      "velocity": 97,
      "chip": "ym2612"
    },
    {
      "channel": 3,
      "note": 84,
      "start": 33.6504,
      "duration": 0.0195,
      "velocity": 97,
      "chip": "ym2612"
    },
    {
      "channel": 1,
      "note": 78,
      "start": 33.6659,
      "duration": 0.0144,
      "velocity": 124,
      "chip": "ym2612"
    },
    {
      "channel": 0,
      "note": 41,
      "start": 33.6676,
      "duration": 0.0144,
      "velocity": 115,
      "chip": "ym2612"
    },
    {
      "channel": 4,
      "note": 81,
      "start": 33.6688,
      "duration": 0.0144,
      "velocity": 97,
      "chip": "ym2612"
    },
    {
      "channel": 3,
      "note": 84,
      "start": 33.67,
      "duration": 0.0144,
      "velocity": 97,
      "chip": "ym2612"
    },
    {
      "channel": 2,
      "note": 60,
      "start": 33.6714,
      "duration": 0.0142,
      "velocity": 100,
      "chip": "ym2612"
    },
    {
      "channel": 1,
      "note": 76,
      "start": 33.6803,
      "duration": 0.016,
      "velocity": 124,
      "chip": "ym2612"
    },
    {
      "channel": 0,
      "note": 42,
      "start": 33.682,
      "duration": 0.016,
      "velocity": 115,
      "chip": "ym2612"
    },
    {
      "channel": 4,
      "note": 81,
      "start": 33.6832,
      "duration": 0.016,
      "velocity": 97,
      "chip": "ym2612"
    },
    {
      "channel": 3,
      "note": 84,
      "start": 33.6843,
      "duration": 0.016,
      "velocity": 97,
      "chip": "ym2612"
    },
    {
      "channel": 2,
      "note": 60,
      "start": 33.6856,
      "duration": 0.016,
      "velocity": 100,
      "chip": "ym2612"
    },
    {
      "channel": 1,
      "note": 75,
      "start": 33.6963,
      "duration": 0.0161,
      "velocity": 124,
      "chip": "ym2612"
    },
    {
      "channel": 0,
      "note": 42,
      "start": 33.698,
      "duration": 0.0161,
      "velocity": 115,
      "chip": "ym2612"
    },
    {
      "channel": 4,
      "note": 81,
      "start": 33.6992,
      "duration": 0.0161,
      "velocity": 97,
      "chip": "ym2612"
    },
    {
      "channel": 3,
      "note": 84,
      "start": 33.7004,
      "duration": 0.0161,
      "velocity": 97,
      "chip": "ym2612"
    },
    {
      "channel": 2,
      "note": 60,
      "start": 33.7015,
      "duration": 0.0161,
      "velocity": 100,
      "chip": "ym2612"
    },
    {
      "channel": 1,
      "note": 74,
      "start": 33.7124,
      "duration": 0.0161,
      "velocity": 124,
      "chip": "ym2612"
    },
    {
      "channel": 0,
      "note": 43,
      "start": 33.7141,
      "duration": 0.0162,
      "velocity": 115,
      "chip": "ym2612"
    },
    {
      "channel": 4,
      "note": 81,
      "start": 33.7153,
      "duration": 0.0161,
      "velocity": 97,
      "chip": "ym2612"
    },
    {
      "channel": 3,
      "note": 84,
      "start": 33.7165,
      "duration": 0.0162,
      "velocity": 97,
      "chip": "ym2612"
    },
    {
      "channel": 2,
      "note": 60,
      "start": 33.7176,
      "duration": 0.0161,
      "velocity": 100,
      "chip": "ym2612"
    },
    {
      "channel": 1,
      "note": 72,
      "start": 33.7285,
      "duration": 0.0161,
      "velocity": 124,
      "chip": "ym2612"
    },
    {
      "channel": 0,
      "note": 43,
      "start": 33.7303,
      "duration": 0.0161,
      "velocity": 115,
      "chip": "ym2612"
    },
    {
      "channel": 4,
      "note": 81,
      "start": 33.7315,
      "duration": 0.016,
      "velocity": 97,
      "chip": "ym2612"
    },
    {
      "channel": 3,
      "note": 84,
      "start": 33.7326,
      "duration": 0.0161,
      "velocity": 97,
      "chip": "ym2612"
    },
    {
      "channel": 2,
      "note": 60,
      "start": 33.7338,
      "duration": 0.016,
      "velocity": 100,
      "chip": "ym2612"
    },
    {
      "channel": 1,
      "note": 71,
      "start": 33.7446,
      "duration": 0.0162,
      "velocity": 124,
      "chip": "ym2612"
    },
    {
      "channel": 0,
      "note": 44,
      "start": 33.7464,
      "duration": 0.0161,
      "velocity": 115,
      "chip": "ym2612"
    },
    {
      "channel": 4,
      "note": 81,
      "start": 33.7475,
      "duration": 0.0162,
      "velocity": 97,
      "chip": "ym2612"
    },
    {
      "channel": 3,
      "note": 84,
      "start": 33.7487,
      "duration": 0.0161,
      "velocity": 97,
      "chip": "ym2612"
    },
    {
      "channel": 2,
      "note": 60,
      "start": 33.7498,
      "duration": 0.0162,
      "velocity": 100,
      "chip": "ym2612"
    },
    {
      "channel": 1,
      "note": 70,
      "start": 33.7607,
      "duration": 0.0165,
      "velocity": 124,
      "chip": "ym2612"
    },
    {
      "channel": 0,
      "note": 44,
      "start": 33.7624,
      "duration": 0.0166,
      "velocity": 115,
      "chip": "ym2612"
    },
    {
      "channel": 4,
      "note": 81,
      "start": 33.7637,
      "duration": 0.0165,
      "velocity": 97,
      "chip": "ym2612"
    },
    {
      "channel": 3,
      "note": 84,
      "start": 33.7648,
      "duration": 0.0166,
      "velocity": 97,
      "chip": "ym2612"
    },
    {
      "channel": 2,
      "note": 60,
      "start": 33.766,
      "duration": 0.0165,
      "velocity": 100,
      "chip": "ym2612"
    },
    {
      "channel": 1,
      "note": 69,
      "start": 33.7772,
      "duration": 0.0167,
      "velocity": 124,
      "chip": "ym2612"
    },
    {
      "channel": 0,
      "note": 44,
      "start": 33.779,
      "duration": 0.0167,
      "velocity": 115,
      "chip": "ym2612"
    },
    {
      "channel": 4,
      "note": 81,
      "start": 33.7801,
      "duration": 0.0167,
      "velocity": 97,
      "chip": "ym2612"
    },
    {
      "channel": 3,
      "note": 84,
      "start": 33.7814,
      "duration": 0.0167,
      "velocity": 97,
      "chip": "ym2612"
    },
    {
      "channel": 2,
      "note": 60,
      "start": 33.7824,
      "duration": 0.0167,
      "velocity": 100,
      "chip": "ym2612"
    },
    {
      "channel": 1,
      "note": 68,
      "start": 33.7939,
      "duration": 0.0163,
      "velocity": 124,
      "chip": "ym2612"
    },
    {
      "channel": 0,
      "note": 45,
      "start": 33.7957,
      "duration": 0.0163,
      "velocity": 115,
      "chip": "ym2612"
    },
    {
      "channel": 4,
      "note": 81,
      "start": 33.7968,
      "duration": 0.0163,
      "velocity": 97,
      "chip": "ym2612"
    },
    {
      "channel": 3,
      "note": 84,
      "start": 33.798,
      "duration": 0.0163,
      "velocity": 97,
      "chip": "ym2612"
    },
    {
      "channel": 2,
      "note": 60,
      "start": 33.7991,
      "duration": 0.0163,
      "velocity": 100,
      "chip": "ym2612"
    },
    {
      "channel": 1,
      "note": 66,
      "start": 33.8102,
      "duration": 0.0149,
      "velocity": 124,
      "chip": "ym2612"
    },
    {
      "channel": 0,
      "note": 45,
      "start": 33.812,
      "duration": 0.0149,
      "velocity": 115,
      "chip": "ym2612"
    },
    {
      "channel": 4,
      "note": 81,
      "start": 33.8132,
      "duration": 0.0149,
      "velocity": 97,
      "chip": "ym2612"
    },
    {
      "channel": 3,
      "note": 84,
      "start": 33.8143,
      "duration": 0.0149,
      "velocity": 97,
      "chip": "ym2612"
    },
    {
      "channel": 2,
      "note": 60,
      "start": 33.8154,
      "duration": 0.0149,
      "velocity": 100,
      "chip": "ym2612"
    },
    {
      "channel": 1,
      "note": 65,
      "start": 33.8251,
      "duration": 0.0188,
      "velocity": 124,
      "chip": "ym2612"
    },
    {
      "channel": 0,
      "note": 46,
      "start": 33.8268,
      "duration": 0.0188,
      "velocity": 115,
      "chip": "ym2612"
    },
    {
      "channel": 4,
      "note": 81,
      "start": 33.828,
      "duration": 0.0188,
      "velocity": 97,
      "chip": "ym2612"
    },
    {
      "channel": 3,
      "note": 84,
      "start": 33.8292,
      "duration": 0.0188,
      "velocity": 97,
      "chip": "ym2612"
    },
    {
      "channel": 1,
      "note": 64,
      "start": 33.8439,
      "duration": 0.0162,
      "velocity": 124,
      "chip": "ym2612"
    },
    {
      "channel": 0,
      "note": 46,
      "start": 33.8456,
      "duration": 0.0179,
      "velocity": 115,
      "chip": "ym2612"
    },
    {
      "channel": 4,
      "note": 81,
      "start": 33.8468,
      "duration": 0.018,
      "velocity": 97,
      "chip": "ym2612"
    },
    {
      "channel": 3,
      "note": 84,
      "start": 33.848,
      "duration": 0.018,
      "velocity": 97,
      "chip": "ym2612"
    },
    {
      "channel": 1,
      "note": 62,
      "start": 33.86,
      "duration": 0.0158,
      "velocity": 124,
      "chip": "ym2612"
    },
    {
      "channel": 0,
      "note": 36,
      "start": 33.8636,
      "duration": 0.014,
      "velocity": 115,
      "chip": "ym2612"
    },
    {
      "channel": 4,
      "note": 81,
      "start": 33.8648,
      "duration": 0.0139,
      "velocity": 97,
      "chip": "ym2612"
    },
    {
      "channel": 3,
      "note": 84,
      "start": 33.866,
      "duration": 0.014,
      "velocity": 97,
      "chip": "ym2612"
    },
    {
      "channel": 2,
      "note": 56,
      "start": 33.8673,
      "duration": 0.0137,
      "velocity": 100,
      "chip": "ym2612"
    },
    {
      "channel": 1,
      "note": 61,
      "start": 33.8758,
      "duration": 0.014,
      "velocity": 124,
      "chip": "ym2612"
    },
    {
      "channel": 0,
      "note": 36,
      "start": 33.8776,
      "duration": 0.0139,
      "velocity": 115,
      "chip": "ym2612"
    },
    {
      "channel": 4,
      "note": 81,
      "start": 33.8788,
      "duration": 0.014,
      "velocity": 97,
      "chip": "ym2612"
    },
    {
      "channel": 3,
      "note": 84,
      "start": 33.88,
      "duration": 0.014,
      "velocity": 97,
      "chip": "ym2612"
    },
    {
      "channel": 2,
      "note": 56,
      "start": 33.8811,
      "duration": 0.0139,
      "velocity": 100,
      "chip": "ym2612"
    },
    {
      "channel": 1,
      "note": 60,
      "start": 33.8898,
      "duration": 0.0158,
      "velocity": 124,
      "chip": "ym2612"
    },
    {
      "channel": 0,
      "note": 37,
      "start": 33.8915,
      "duration": 0.0186,
      "velocity": 115,
      "chip": "ym2612"
    },
    {
      "channel": 4,
      "note": 81,
      "start": 33.8927,
      "duration": 0.0186,
      "velocity": 97,
      "chip": "ym2612"
    },
    {
      "channel": 3,
      "note": 84,
      "start": 33.8939,
      "duration": 0.0185,
      "velocity": 97,
      "chip": "ym2612"
    },
    {
      "channel": 2,
      "note": 56,
      "start": 33.895,
      "duration": 0.0186,
      "velocity": 100,
      "chip": "ym2612"
    },
    {
      "channel": 1,
      "note": 59,
      "start": 33.9056,
      "duration": 0.0162,
      "velocity": 124,
      "chip": "ym2612"
    },
    {
      "channel": 0,
      "note": 37,
      "start": 33.9101,
      "duration": 0.0161,
      "velocity": 115,
      "chip": "ym2612"
    },
    {
      "channel": 4,
      "note": 81,
      "start": 33.9113,
      "duration": 0.0161,
      "velocity": 97,
      "chip": "ym2612"
    },
    {
      "channel": 3,
      "note": 84,
      "start": 33.9124,
      "duration": 0.0161,
      "velocity": 97,
      "chip": "ym2612"
    },
    {
      "channel": 2,
      "note": 56,
      "start": 33.9136,
      "duration": 0.0161,
      "velocity": 100,
      "chip": "ym2612"
    },
    {
      "channel": 1,
      "note": 57,
      "start": 33.9217,
      "duration": 0.0161,
      "velocity": 124,
      "chip": "ym2612"
    },
    {
      "channel": 0,
      "note": 38,
      "start": 33.9262,
      "duration": 0.0158,
      "velocity": 115,
      "chip": "ym2612"
    },
    {
      "channel": 4,
      "note": 81,
      "start": 33.9274,
      "duration": 0.0157,
      "velocity": 97,
      "chip": "ym2612"
    },
    {
      "channel": 3,
      "note": 84,
      "start": 33.9285,
      "duration": 0.0158,
      "velocity": 97,
      "chip": "ym2612"
    },
    {
      "channel": 2,
      "note": 56,
      "start": 33.9297,
      "duration": 0.0157,
      "velocity": 100,
      "chip": "ym2612"
    },
    {
      "channel": 1,
      "note": 56,
      "start": 33.9378,
      "duration": 0.0161,
      "velocity": 124,
      "chip": "ym2612"
    },
    {
      "channel": 0,
      "note": 38,
      "start": 33.942,
      "duration": 0.0137,
      "velocity": 115,
      "chip": "ym2612"
    },
    {
      "channel": 4,
      "note": 81,
      "start": 33.9431,
      "duration": 0.0141,
      "velocity": 97,
      "chip": "ym2612"
    },
    {
      "channel": 3,
      "note": 84,
      "start": 33.9443,
      "duration": 0.014,
      "velocity": 97,
      "chip": "ym2612"
    },
    {
      "channel": 2,
      "note": 56,
      "start": 33.9454,
      "duration": 0.0141,
      "velocity": 100,
      "chip": "ym2612"
    },
    {
      "channel": 1,
      "note": 55,
      "start": 33.9539,
      "duration": 0.0161,
      "velocity": 124,
      "chip": "ym2612"
    },
    {
      "channel": 0,
      "note": 39,
      "start": 33.9556,
      "duration": 0.0161,
      "velocity": 115,
      "chip": "ym2612"
    },
    {
      "channel": 4,
      "note": 81,
      "start": 33.9572,
      "duration": 0.0185,
      "velocity": 97,
      "chip": "ym2612"
    },
    {
      "channel": 3,
      "note": 84,
      "start": 33.9583,
      "duration": 0.0185,
      "velocity": 97,
      "chip": "ym2612"
    },
    {
      "channel": 2,
      "note": 56,
      "start": 33.9595,
      "duration": 0.0185,
      "velocity": 100,
      "chip": "ym2612"
    },
    {
      "channel": 1,
      "note": 53,
      "start": 33.97,
      "duration": 0.0161,
      "velocity": 124,
      "chip": "ym2612"
    },
    {
      "channel": 0,
      "note": 39,
      "start": 33.9717,
      "duration": 0.0161,
      "velocity": 115,
      "chip": "ym2612"
    },
    {
      "channel": 4,
      "note": 81,
      "start": 33.9757,
      "duration": 0.0134,
      "velocity": 97,
      "chip": "ym2612"
    },
    {
      "channel": 3,
      "note": 84,
      "start": 33.9768,
      "duration": 0.0162,
      "velocity": 97,
      "chip": "ym2612"
    },
    {
      "channel": 2,
      "note": 56,
      "start": 33.978,
      "duration": 0.0161,
      "velocity": 100,
      "chip": "ym2612"
    },
    {
      "channel": 1,
      "note": 52,
      "start": 33.9861,
      "duration": 0.0161,
      "velocity": 124,
      "chip": "ym2612"
    },
    {
      "channel": 0,
      "note": 40,
      "start": 33.9878,
      "duration": 0.0161,
      "velocity": 115,
      "chip": "ym2612"
    },
    {
      "channel": 4,
      "note": 81,
      "start": 33.989,
      "duration": 0.0161,
      "velocity": 97,
      "chip": "ym2612"
    },
    {
      "channel": 3,
      "note": 84,
      "start": 33.993,
      "duration": 0.0157,
      "velocity": 97,
      "chip": "ym2612"
    },
    {
      "channel": 2,
      "note": 56,
      "start": 33.9941,
      "duration": 0.0157,
      "velocity": 100,
      "chip": "ym2612"
    },
    {
      "channel": 1,
      "note": 51,
      "start": 34.0022,
      "duration": 0.0153,
      "velocity": 1,
      "chip": "ym2612"
    },
    {
      "channel": 0,
      "note": 40,
      "start": 34.0039,
      "duration": 0.0154,
      "velocity": 115,
      "chip": "ym2612"
    },
    {
      "channel": 4,
      "note": 81,
      "start": 34.0051,
      "duration": 0.0153,
      "velocity": 97,
      "chip": "ym2612"
    },
    {
      "channel": 3,
      "note": 84,
      "start": 34.0087,
      "duration": 0.0129,
      "velocity": 97,
      "chip": "ym2612"
    },
    {
      "channel": 2,
      "note": 56,
      "start": 34.0098,
      "duration": 0.0133,
      "velocity": 100,
      "chip": "ym2612"
    },
    {
      "channel": 0,
      "note": 40,
      "start": 34.0193,
      "duration": 0.0153,
      "velocity": 115,
      "chip": "ym2612"
    },
    {
      "channel": 4,
      "note": 81,
      "start": 34.0204,
      "duration": 0.0153,
      "velocity": 97,
      "chip": "ym2612"
    },
    {
      "channel": 3,
      "note": 84,
      "start": 34.0216,
      "duration": 0.0153,
      "velocity": 97,
      "chip": "ym2612"
    },
    {
      "channel": 0,
      "note": 41,
      "start": 34.0345,
      "duration": 0.0178,
      "velocity": 115,
      "chip": "ym2612"
    },
    {
      "channel": 4,
      "note": 81,
      "start": 34.0357,
      "duration": 0.0181,
      "velocity": 97,
      "chip": "ym2612"
    },
    {
      "channel": 3,
      "note": 84,
      "start": 34.0369,
      "duration": 0.0183,
      "velocity": 97,
      "chip": "ym2612"
    },
    {
      "channel": 0,
      "note": 36,
      "start": 34.0524,
      "duration": 0.0144,
      "velocity": 115,
      "chip": "ym2612"
    },
    {
      "channel": 4,
      "note": 77,
      "start": 34.0538,
      "duration": 0.0142,
      "velocity": 97,
      "chip": "ym2612"
    },
    {
      "channel": 3,
      "note": 80,
      "start": 34.0553,
      "duration": 0.0139,
      "velocity": 97,
      "chip": "ym2612"
    },
    {
      "channel": 2,
      "note": 49,
      "start": 34.0595,
      "duration": 0.0109,
      "velocity": 100,
      "chip": "ym2612"
    },
    {
      "channel": 1,
      "note": 37,
      "start": 34.0609,
      "duration": 0.0106,
      "velocity": 100,
      "chip": "ym2612"
    },
    {
      "channel": 0,
      "note": 36,
      "start": 34.0668,
      "duration": 0.016,
      "velocity": 115,
      "chip": "ym2612"
    },
    {
      "channel": 4,
      "note": 77,
      "start": 34.068,
      "duration": 0.016,
      "velocity": 97,
      "chip": "ym2612"
    },
    {
      "channel": 3,
      "note": 80,
      "start": 34.0692,
      "duration": 0.016,
      "velocity": 97,
      "chip": "ym2612"
    },
    {
      "channel": 2,
      "note": 49,
      "start": 34.0703,
      "duration": 0.0159,
      "velocity": 100,
      "chip": "ym2612"
    },
    {
      "channel": 1,
      "note": 37,
      "start": 34.0716,
      "duration": 0.0158,
      "velocity": 100,
      "chip": "ym2612"
    },
    {
      "channel": 0,
      "note": 37,
      "start": 34.0828,
      "duration": 0.0161,
      "velocity": 115,
      "chip": "ym2612"
    },
    {
      "channel": 4,
      "note": 77,
      "start": 34.084,
      "duration": 0.0161,
      "velocity": 97,
      "chip": "ym2612"
    },
    {
      "channel": 3,
      "note": 80,
      "start": 34.0852,
      "duration": 0.0161,
      "velocity": 97,
      "chip": "ym2612"
    },
    {
      "channel": 2,
      "note": 49,
      "start": 34.0863,
      "duration": 0.0161,
      "velocity": 100,
      "chip": "ym2612"
    },
    {
      "channel": 1,
      "note": 37,
      "start": 34.0874,
      "duration": 0.0161,
      "velocity": 100,
      "chip": "ym2612"
    },
    {
      "channel": 0,
      "note": 37,
      "start": 34.0989,
      "duration": 0.0161,
      "velocity": 115,
      "chip": "ym2612"
    },
    {
      "channel": 4,
      "note": 77,
      "start": 34.1001,
      "duration": 0.0161,
      "velocity": 97,
      "chip": "ym2612"
    },
    {
      "channel": 3,
      "note": 80,
      "start": 34.1013,
      "duration": 0.0161,
      "velocity": 97,
      "chip": "ym2612"
    },
    {
      "channel": 2,
      "note": 49,
      "start": 34.1023,
      "duration": 0.0161,
      "velocity": 100,
      "chip": "ym2612"
    },
    {
      "channel": 1,
      "note": 37,
      "start": 34.1035,
      "duration": 0.0161,
      "velocity": 100,
      "chip": "ym2612"
    },
    {
      "channel": 0,
      "note": 38,
      "start": 34.115,
      "duration": 0.0161,
      "velocity": 115,
      "chip": "ym2612"
    },
    {
      "channel": 4,
      "note": 77,
      "start": 34.1162,
      "duration": 0.0161,
      "velocity": 97,
      "chip": "ym2612"
    },
    {
      "channel": 3,
      "note": 80,
      "start": 34.1173,
      "duration": 0.0161,
      "velocity": 97,
      "chip": "ym2612"
    },
    {
      "channel": 2,
      "note": 49,
      "start": 34.1184,
      "duration": 0.0161,
      "velocity": 100,
      "chip": "ym2612"
    },
    {
      "channel": 1,
      "note": 37,
      "start": 34.1196,
      "duration": 0.0161,
      "velocity": 100,
      "chip": "ym2612"
    },
    {
      "channel": 0,
      "note": 38,
      "start": 34.1311,
      "duration": 0.0161,
      "velocity": 115,
      "chip": "ym2612"
    },
    {
      "channel": 4,
      "note": 77,
      "start": 34.1323,
      "duration": 0.0161,
      "velocity": 97,
      "chip": "ym2612"
    },
    {
      "channel": 3,
      "note": 80,
      "start": 34.1334,
      "duration": 0.0161,
      "velocity": 97,
      "chip": "ym2612"
    },
    {
      "channel": 2,
      "note": 49,
      "start": 34.1345,
      "duration": 0.0161,
      "velocity": 100,
      "chip": "ym2612"
    },
    {
      "channel": 1,
      "note": 37,
      "start": 34.1357,
      "duration": 0.0161,
      "velocity": 100,
      "chip": "ym2612"
    },
    {
      "channel": 0,
      "note": 39,
      "start": 34.1472,
      "duration": 0.0161,
      "velocity": 115,
      "chip": "ym2612"
    },
    {
      "channel": 4,
      "note": 77,
      "start": 34.1484,
      "duration": 0.0161,
      "velocity": 97,
      "chip": "ym2612"
    },
    {
      "channel": 3,
      "note": 80,
      "start": 34.1495,
      "duration": 0.0161,
      "velocity": 97,
      "chip": "ym2612"
    },
    {
      "channel": 2,
      "note": 49,
      "start": 34.1506,
      "duration": 0.0161,
      "velocity": 100,
      "chip": "ym2612"
    },
    {
      "channel": 1,
      "note": 37,
      "start": 34.1518,
      "duration": 0.0161,
      "velocity": 100,
      "chip": "ym2612"
    },
    {
      "channel": 0,
      "note": 39,
      "start": 34.1633,
      "duration": 0.0161,
      "velocity": 115,
      "chip": "ym2612"
    },
    {
      "channel": 4,
      "note": 77,
      "start": 34.1645,
      "duration": 0.0161,
      "velocity": 97,
      "chip": "ym2612"
    },
    {
      "channel": 3,
      "note": 80,
      "start": 34.1656,
      "duration": 0.0161,
      "velocity": 97,
      "chip": "ym2612"
    },
    {
      "channel": 2,
      "note": 49,
      "start": 34.1668,
      "duration": 0.0161,
      "velocity": 100,
      "chip": "ym2612"
    },
    {
      "channel": 1,
      "note": 37,
      "start": 34.1679,
      "duration": 0.0161,
      "velocity": 100,
      "chip": "ym2612"
    },
    {
      "channel": 0,
      "note": 40,
      "start": 34.1794,
      "duration": 0.0161,
      "velocity": 115,
      "chip": "ym2612"
    },
    {
      "channel": 4,
      "note": 77,
      "start": 34.1806,
      "duration": 0.0161,
      "velocity": 97,
      "chip": "ym2612"
    },
    {
      "channel": 3,
      "note": 80,
      "start": 34.1817,
      "duration": 0.0161,
      "velocity": 97,
      "chip": "ym2612"
    },
    {
      "channel": 2,
      "note": 49,
      "start": 34.1829,
      "duration": 0.0161,
      "velocity": 100,
      "chip": "ym2612"
    },
    {
      "channel": 1,
      "note": 37,
      "start": 34.184,
      "duration": 0.0161,
      "velocity": 100,
      "chip": "ym2612"
    },
    {
      "channel": 0,
      "note": 40,
      "start": 34.1955,
      "duration": 0.0161,
      "velocity": 115,
      "chip": "ym2612"
    },
    {
      "channel": 4,
      "note": 77,
      "start": 34.1967,
      "duration": 0.0161,
      "velocity": 97,
      "chip": "ym2612"
    },
    {
      "channel": 3,
      "note": 80,
      "start": 34.1978,
      "duration": 0.0161,
      "velocity": 97,
      "chip": "ym2612"
    },
    {
      "channel": 2,
      "note": 49,
      "start": 34.199,
      "duration": 0.0161,
      "velocity": 100,
      "chip": "ym2612"
    },
    {
      "channel": 1,
      "note": 37,
      "start": 34.2001,
      "duration": 0.0161,
      "velocity": 100,
      "chip": "ym2612"
    },
    {
      "channel": 0,
      "note": 40,
      "start": 34.2116,
      "duration": 0.0161,
      "velocity": 115,
      "chip": "ym2612"
    },
    {
      "channel": 4,
      "note": 77,
      "start": 34.2128,
      "duration": 0.0161,
      "velocity": 97,
      "chip": "ym2612"
    },
    {
      "channel": 3,
      "note": 80,
      "start": 34.2139,
      "duration": 0.0161,
      "velocity": 97,
      "chip": "ym2612"
    },
    {
      "channel": 0,
      "note": 41,
      "start": 34.2277,
      "duration": 0.0163,
      "velocity": 115,
      "chip": "ym2612"
    },
    {
      "channel": 4,
      "note": 77,
      "start": 34.2289,
      "duration": 0.0163,
      "velocity": 97,
      "chip": "ym2612"
    },
    {
      "channel": 3,
      "note": 80,
      "start": 34.2301,
      "duration": 0.0163,
      "velocity": 97,
      "chip": "ym2612"
    },
    {
      "channel": 0,
      "note": 41,
      "start": 34.244,
      "duration": 0.0167,
      "velocity": 115,
      "chip": "ym2612"
    },
    {
      "channel": 4,
      "note": 77,
      "start": 34.2451,
      "duration": 0.0167,
      "velocity": 97,
      "chip": "ym2612"
    },
    {
      "channel": 3,
      "note": 80,
      "start": 34.2464,
      "duration": 0.0167,
      "velocity": 97,
      "chip": "ym2612"
    },
    {
      "channel": 2,
      "note": 56,
      "start": 34.2478,
      "duration": 0.0164,
      "velocity": 100,
      "chip": "ym2612"
    },
    {
      "channel": 1,
      "note": 44,
      "start": 34.2492,
      "duration": 0.0162,
      "velocity": 100,
      "chip": "ym2612"
    },
    {
      "channel": 0,
      "note": 42,
      "start": 34.2607,
      "duration": 0.0163,
      "velocity": 115,
      "chip": "ym2612"
    },
    {
      "channel": 4,
      "note": 77,
      "start": 34.2618,
      "duration": 0.0163,
      "velocity": 97,
      "chip": "ym2612"
    },
    {
      "channel": 3,
      "note": 80,
      "start": 34.263,
      "duration": 0.0163,
      "velocity": 97,
      "chip": "ym2612"
    },
    {
      "channel": 2,
      "note": 56,
      "start": 34.2642,
      "duration": 0.0163,
      "velocity": 100,
      "chip": "ym2612"
    },
    {
      "channel": 1,
      "note": 44,
      "start": 34.2654,
      "duration": 0.0162,
      "velocity": 100,
      "chip": "ym2612"
    },
    {
      "channel": 0,
      "note": 42,
      "start": 34.277,
      "duration": 0.0151,
      "velocity": 115,
      "chip": "ym2612"
    },
    {
      "channel": 4,
      "note": 77,
      "start": 34.2782,
      "duration": 0.0151,
      "velocity": 97,
      "chip": "ym2612"
    },
    {
      "channel": 3,
      "note": 80,
      "start": 34.2793,
      "duration": 0.0151,
      "velocity": 97,
      "chip": "ym2612"
    },
    {
      "channel": 2,
      "note": 56,
      "start": 34.2805,
      "duration": 0.0151,
      "velocity": 100,
      "chip": "ym2612"
    },
    {
      "channel": 1,
      "note": 44,
      "start": 34.2816,
      "duration": 0.0151,
      "velocity": 100,
      "chip": "ym2612"
    },
    {
      "channel": 0,
      "note": 43,
      "start": 34.2921,
      "duration": 0.0186,
      "velocity": 115,
      "chip": "ym2612"
    },
    {
      "channel": 4,
      "note": 77,
      "start": 34.2933,
      "duration": 0.0186,
      "velocity": 97,
      "chip": "ym2612"
    },
    {
      "channel": 3,
      "note": 80,
      "start": 34.2944,
      "duration": 0.0186,
      "velocity": 97,
      "chip": "ym2612"
    },
    {
      "channel": 2,
      "note": 56,
      "start": 34.2956,
      "duration": 0.0186,
      "velocity": 100,
      "chip": "ym2612"
    },
    {
      "channel": 1,
      "note": 44,
      "start": 34.2967,
      "duration": 0.0186,
      "velocity": 100,
      "chip": "ym2612"
    },
    {
      "channel": 0,
      "note": 43,
      "start": 34.3107,
      "duration": 0.0164,
      "velocity": 115,
      "chip": "ym2612"
    },
    {
      "channel": 4,
      "note": 77,
      "start": 34.3119,
      "duration": 0.0163,
      "velocity": 97,
      "chip": "ym2612"
    },
    {
      "channel": 3,
      "note": 80,
      "start": 34.313,
      "duration": 0.0164,
      "velocity": 97,
      "chip": "ym2612"
    },
    {
      "channel": 2,
      "note": 56,
      "start": 34.3142,
      "duration": 0.0164,
      "velocity": 100,
      "chip": "ym2612"
    },
    {
      "channel": 1,
      "note": 44,
      "start": 34.3153,
      "duration": 0.0163,
      "velocity": 100,
      "chip": "ym2612"
    },
    {
      "channel": 0,
      "note": 44,
      "start": 34.3271,
      "duration": 0.0157,
      "velocity": 115,
      "chip": "ym2612"
    },
    {
      "channel": 4,
      "note": 77,
      "start": 34.3282,
      "duration": 0.0158,
      "velocity": 97,
      "chip": "ym2612"
    },
    {
      "channel": 3,
      "note": 80,
      "start": 34.3294,
      "duration": 0.0157,
      "velocity": 97,
      "chip": "ym2612"
    },
    {
      "channel": 2,
      "note": 56,
      "start": 34.3306,
      "duration": 0.0157,
      "velocity": 100,
      "chip": "ym2612"
    },
    {
      "channel": 1,
      "note": 44,
      "start": 34.3317,
      "duration": 0.0158,
      "velocity": 100,
      "chip": "ym2612"
    },
    {
      "channel": 0,
      "note": 44,
      "start": 34.3428,
      "duration": 0.0141,
      "velocity": 115,
      "chip": "ym2612"
    },
    {
      "channel": 4,
      "note": 77,
      "start": 34.344,
      "duration": 0.014,
      "velocity": 97,
      "chip": "ym2612"
    },
    {
      "channel": 3,
      "note": 80,
      "start": 34.3451,
      "duration": 0.0141,
      "velocity": 97,
      "chip": "ym2612"
    },
    {
      "channel": 2,
      "note": 56,
      "start": 34.3463,
      "duration": 0.0141,
      "velocity": 100,
      "chip": "ym2612"
    },
    {
      "channel": 1,
      "note": 44,
      "start": 34.3474,
      "duration": 0.014,
      "velocity": 100,
      "chip": "ym2612"
    },
    {
      "channel": 0,
      "note": 44,
      "start": 34.3569,
      "duration": 0.0185,
      "velocity": 115,
      "chip": "ym2612"
    },
    {
      "channel": 4,
      "note": 77,
      "start": 34.358,
      "duration": 0.0186,
      "velocity": 97,
      "chip": "ym2612"
    },
    {
      "channel": 3,
      "note": 80,
      "start": 34.3592,
      "duration": 0.0186,
      "velocity": 97,
      "chip": "ym2612"
    },
    {
      "channel": 2,
      "note": 56,
      "start": 34.3604,
      "duration": 0.0185,
      "velocity": 100,
      "chip": "ym2612"
    },
    {
      "channel": 1,
      "note": 44,
      "start": 34.3614,
      "duration": 0.0186,
      "velocity": 100,
      "chip": "ym2612"
    },
    {
      "channel": 0,
      "note": 45,
      "start": 34.3754,
      "duration": 0.0134,
      "velocity": 115,
      "chip": "ym2612"
    },
    {
      "channel": 4,
      "note": 77,
      "start": 34.3766,
      "duration": 0.0161,
      "velocity": 97,
      "chip": "ym2612"
    },
    {
      "channel": 3,
      "note": 80,
      "start": 34.3778,
      "duration": 0.016,
      "velocity": 97,
      "chip": "ym2612"
    },
    {
      "channel": 2,
      "note": 56,
      "start": 34.3789,
      "duration": 0.0161,
      "velocity": 100,
      "chip": "ym2612"
    },
    {
      "channel": 1,
      "note": 44,
      "start": 34.38,
      "duration": 0.0161,
      "velocity": 100,
      "chip": "ym2612"
    },
    {
      "channel": 0,
      "note": 45,
      "start": 34.3887,
      "duration": 0.0161,
      "velocity": 115,
      "chip": "ym2612"
    },
    {
      "channel": 4,
      "note": 77,
      "start": 34.3927,
      "duration": 0.0157,
      "velocity": 97,
      "chip": "ym2612"
    },
    {
      "channel": 3,
      "note": 80,
      "start": 34.3938,
      "duration": 0.0158,
      "velocity": 97,
      "chip": "ym2612"
    },
    {
      "channel": 2,
      "note": 56,
      "start": 34.395,
      "duration": 0.0158,
      "velocity": 100,
      "chip": "ym2612"
    },
    {
      "channel": 1,
      "note": 44,
      "start": 34.3961,
      "duration": 0.0158,
      "velocity": 100,
      "chip": "ym2612"
    },
    {
      "channel": 0,
      "note": 46,
      "start": 34.4048,
      "duration": 0.0161,
      "velocity": 115,
      "chip": "ym2612"
    },
    {
      "channel": 4,
      "note": 77,
      "start": 34.4084,
      "duration": 0.0137,
      "velocity": 97,
      "chip": "ym2612"
    },
    {
      "channel": 3,
      "note": 80,
      "start": 34.4096,
      "duration": 0.014,
      "velocity": 97,
      "chip": "ym2612"
    },
    {
      "channel": 0,
      "note": 46,
      "start": 34.4209,
      "duration": 0.0223,
      "velocity": 115,
      "chip": "ym2612"
    },
    {
      "channel": 4,
      "note": 77,
      "start": 34.4221,
      "duration": 0.0223,
      "velocity": 97,
      "chip": "ym2612"
    },
    {
      "channel": 3,
      "note": 80,
      "start": 34.4236,
      "duration": 0.022,
      "velocity": 97,
      "chip": "ym2612"
    },
    {
      "channel": 1,
      "note": 78,
      "start": 34.4387,
      "duration": 0.0144,
      "velocity": 124,
      "chip": "ym2612"
    },
    {
      "channel": 0,
      "note": 47,
      "start": 34.4432,
      "duration": 0.0116,
      "velocity": 115,
      "chip": "ym2612"
    },
    {
      "channel": 4,
      "note": 77,
      "start": 34.4444,
      "duration": 0.0143,
      "velocity": 97,
      "chip": "ym2612"
    },
    {
      "channel": 3,
      "note": 80,
      "start": 34.4456,
      "duration": 0.0144,
      "velocity": 97,
      "chip": "ym2612"
    },
    {
      "channel": 2,
      "note": 61,
      "start": 34.447,
      "duration": 0.0141,
      "velocity": 100,
      "chip": "ym2612"
    },
    {
      "channel": 1,
      "note": 76,
      "start": 34.4531,
      "duration": 0.016,
      "velocity": 124,
      "chip": "ym2612"
    },
    {
      "channel": 0,
      "note": 47,
      "start": 34.4548,
      "duration": 0.016,
      "velocity": 115,
      "chip": "ym2612"
    },
    {
      "channel": 4,
      "note": 77,
      "start": 34.4588,
      "duration": 0.0133,
      "velocity": 97,
      "chip": "ym2612"
    },
    {
      "channel": 3,
      "note": 80,
      "start": 34.46,
      "duration": 0.0156,
      "velocity": 97,
      "chip": "ym2612"
    },
    {
      "channel": 2,
      "note": 61,
      "start": 34.4611,
      "duration": 0.0157,
      "velocity": 100,
      "chip": "ym2612"
    },
    {
      "channel": 1,
      "note": 75,
      "start": 34.4691,
      "duration": 0.0161,
      "velocity": 124,
      "chip": "ym2612"
    },
    {
      "channel": 0,
      "note": 47,
      "start": 34.4709,
      "duration": 0.0161,
      "velocity": 115,
      "chip": "ym2612"
    },
    {
      "channel": 4,
      "note": 77,
      "start": 34.4721,
      "duration": 0.0161,
      "velocity": 97,
      "chip": "ym2612"
    },
    {
      "channel": 3,
      "note": 80,
      "start": 34.4756,
      "duration": 0.0141,
      "velocity": 97,
      "chip": "ym2612"
    },
    {
      "channel": 2,
      "note": 61,
      "start": 34.4768,
      "duration": 0.0141,
      "velocity": 100,
      "chip": "ym2612"
    },
    {
      "channel": 1,
      "note": 74,
      "start": 34.4852,
      "duration": 0.0161,
      "velocity": 124,
      "chip": "ym2612"
    },
    {
      "channel": 0,
      "note": 48,
      "start": 34.487,
      "duration": 0.0161,
      "velocity": 115,
      "chip": "ym2612"
    },
    {
      "channel": 4,
      "note": 77,
      "start": 34.4882,
      "duration": 0.0161,
      "velocity": 97,
      "chip": "ym2612"
    },
    {
      "channel": 3,
      "note": 80,
      "start": 34.4897,
      "duration": 0.0158,
      "velocity": 97,
      "chip": "ym2612"
    },
    {
      "channel": 2,
      "note": 61,
      "start": 34.4908,
      "duration": 0.0185,
      "velocity": 100,
      "chip": "ym2612"
    },
    {
      "channel": 1,
      "note": 72,
      "start": 34.5013,
      "duration": 0.0162,
      "velocity": 124,
      "chip": "ym2612"
    },
    {
      "channel": 0,
      "note": 48,
      "start": 34.5031,
      "duration": 0.0161,
      "velocity": 115,
      "chip": "ym2612"
    },
    {
      "channel": 4,
      "note": 77,
      "start": 34.5043,
      "duration": 0.0161,
      "velocity": 97,
      "chip": "ym2612"
    },
    {
      "channel": 3,
      "note": 80,
      "start": 34.5055,
      "duration": 0.0161,
      "velocity": 97,
      "chip": "ym2612"
    },
    {
      "channel": 2,
      "note": 61,
      "start": 34.5093,
      "duration": 0.0161,
      "velocity": 100,
      "chip": "ym2612"
    },
    {
      "channel": 1,
      "note": 71,
      "start": 34.5175,
      "duration": 0.0161,
      "velocity": 124,
      "chip": "ym2612"
    },
    {
      "channel": 0,
      "note": 49,
      "start": 34.5192,
      "duration": 0.0153,
      "velocity": 1,
      "chip": "ym2612"
    },
    {
      "channel": 4,
      "note": 77,
      "start": 34.5204,
      "duration": 0.0153,
      "velocity": 97,
      "chip": "ym2612"
    },
    {
      "channel": 3,
      "note": 80,
      "start": 34.5216,
      "duration": 0.0153,
      "velocity": 97,
      "chip": "ym2612"
    },
    {
      "channel": 2,
      "note": 61,
      "start": 34.5254,
      "duration": 0.0125,
      "velocity": 100,
      "chip": "ym2612"
    },
    {
      "channel": 1,
      "note": 70,
      "start": 34.5336,
      "duration": 0.0161,
      "velocity": 124,
      "chip": "ym2612"
    },
    {
      "channel": 4,
      "note": 77,
      "start": 34.5357,
      "duration": 0.0153,
      "velocity": 97,
      "chip": "ym2612"
    },
    {
      "channel": 3,
      "note": 80,
      "start": 34.5369,
      "duration": 0.0152,
      "velocity": 97,
      "chip": "ym2612"
    },
    {
      "channel": 2,
      "note": 61,
      "start": 34.538,
      "duration": 0.0153,
      "velocity": 100,
      "chip": "ym2612"
    },
    {
      "channel": 1,
      "note": 69,
      "start": 34.5497,
      "duration": 0.0161,
      "velocity": 124,
      "chip": "ym2612"
    },
    {
      "channel": 4,
      "note": 77,
      "start": 34.551,
      "duration": 0.0161,
      "velocity": 97,
      "chip": "ym2612"
    },
    {
      "channel": 3,
      "note": 80,
      "start": 34.5521,
      "duration": 0.0161,
      "velocity": 97,
      "chip": "ym2612"
    },
    {
      "channel": 2,
      "note": 61,
      "start": 34.5532,
      "duration": 0.0161,
      "velocity": 100,
      "chip": "ym2612"
    },
    {
      "channel": 1,
      "note": 68,
      "start": 34.5658,
      "duration": 0.0161,
      "velocity": 124,
      "chip": "ym2612"
    },
    {
      "channel": 4,
      "note": 77,
      "start": 34.567,
      "duration": 0.0161,
      "velocity": 97,
      "chip": "ym2612"
    },
    {
      "channel": 3,
      "note": 80,
      "start": 34.5682,
      "duration": 0.0161,
      "velocity": 97,
      "chip": "ym2612"
    },
    {
      "channel": 2,
      "note": 61,
      "start": 34.5693,
      "duration": 0.0161,
      "velocity": 100,
      "chip": "ym2612"
    },
    {
      "channel": 1,
      "note": 66,
      "start": 34.5819,
      "duration": 0.0161,
      "velocity": 124,
      "chip": "ym2612"
    },
    {
      "channel": 4,
      "note": 77,
      "start": 34.5831,
      "duration": 0.0161,
      "velocity": 97,
      "chip": "ym2612"
    },
    {
      "channel": 3,
      "note": 80,
      "start": 34.5843,
      "duration": 0.0161,
      "velocity": 97,
      "chip": "ym2612"
    },
    {
      "channel": 2,
      "note": 61,
      "start": 34.5854,
      "duration": 0.0161,
      "velocity": 100,
      "chip": "ym2612"
    },
    {
      "channel": 1,
      "note": 65,
      "start": 34.598,
      "duration": 0.0161,
      "velocity": 124,
      "chip": "ym2612"
    },
    {
      "channel": 4,
      "note": 77,
      "start": 34.5992,
      "duration": 0.0161,
      "velocity": 97,
      "chip": "ym2612"
    },
    {
      "channel": 3,
      "note": 80,
      "start": 34.6004,
      "duration": 0.0162,
      "velocity": 97,
      "chip": "ym2612"
    },
    {
      "channel": 1,
      "note": 64,
      "start": 34.6141,
      "duration": 0.0161,
      "velocity": 124,
      "chip": "ym2612"
    },
    {
      "channel": 4,
      "note": 77,
      "start": 34.6153,
      "duration": 0.0196,
      "velocity": 97,
      "chip": "ym2612"
    },
    {
      "channel": 3,
      "note": 80,
      "start": 34.6165,
      "duration": 0.0196,
      "velocity": 97,
      "chip": "ym2612"
    },
    {
      "channel": 1,
      "note": 62,
      "start": 34.6301,
      "duration": 0.0161,
      "velocity": 124,
      "chip": "ym2612"
    },
    {
      "channel": 0,
      "note": 36,
      "start": 34.6337,
      "duration": 0.0144,
      "velocity": 115,
      "chip": "ym2612"
    },
    {
      "channel": 4,
      "note": 77,
      "start": 34.6349,
      "duration": 0.0143,
      "velocity": 97,
      "chip": "ym2612"
    },
    {
      "channel": 3,
      "note": 80,
      "start": 34.6361,
      "duration": 0.0143,
      "velocity": 97,
      "chip": "ym2612"
    },
    {
      "channel": 2,
      "note": 59,
      "start": 34.6375,
      "duration": 0.0141,
      "velocity": 100,
      "chip": "ym2612"
    },
    {
      "channel": 1,
      "note": 61,
      "start": 34.6462,
      "duration": 0.0162,
      "velocity": 124,
      "chip": "ym2612"
    },
    {
      "channel": 0,
      "note": 36,
      "start": 34.6481,
      "duration": 0.016,
      "velocity": 115,
      "chip": "ym2612"
    },
    {
      "channel": 4,
      "note": 77,
      "start": 34.6492,
      "duration": 0.0161,
      "velocity": 97,
      "chip": "ym2612"
    },
    {
      "channel": 3,
      "note": 80,
      "start": 34.6504,
      "duration": 0.016,
      "velocity": 97,
      "chip": "ym2612"
    },
    {
      "channel": 2,
      "note": 59,
      "start": 34.6516,
      "duration": 0.016,
      "velocity": 100,
      "chip": "ym2612"
    },
    {
      "channel": 1,
      "note": 60,
      "start": 34.6624,
      "duration": 0.0161,
      "velocity": 124,
      "chip": "ym2612"
    },
    {
      "channel": 0,
      "note": 37,
      "start": 34.6641,
      "duration": 0.0161,
      "velocity": 115,
      "chip": "ym2612"
    },
    {
      "channel": 4,
      "note": 77,
      "start": 34.6653,
      "duration": 0.0161,
      "velocity": 97,
      "chip": "ym2612"
    },
    {
      "channel": 3,
      "note": 80,
      "start": 34.6665,
      "duration": 0.0161,
      "velocity": 97,
      "chip": "ym2612"
    },
    {
      "channel": 2,
      "note": 59,
      "start": 34.6676,
      "duration": 0.0161,
      "velocity": 100,
      "chip": "ym2612"
    },
    {
      "channel": 1,
      "note": 59,
      "start": 34.6785,
      "duration": 0.0161,
      "velocity": 124,
      "chip": "ym2612"
    },
    {
      "channel": 0,
      "note": 37,
      "start": 34.6802,
      "duration": 0.0161,
      "velocity": 115,
      "chip": "ym2612"
    },
    {
      "channel": 4,
      "note": 77,
      "start": 34.6814,
      "duration": 0.0161,
      "velocity": 97,
      "chip": "ym2612"
    },
    {
      "channel": 3,
      "note": 80,
      "start": 34.6826,
      "duration": 0.0161,
      "velocity": 97,
      "chip": "ym2612"
    },
    {
      "channel": 2,
      "note": 59,
      "start": 34.6837,
      "duration": 0.0161,
      "velocity": 100,
      "chip": "ym2612"
    },
    {
      "channel": 1,
      "note": 57,
      "start": 34.6946,
      "duration": 0.0161,
      "velocity": 124,
      "chip": "ym2612"
    },
    {
      "channel": 0,
      "note": 38,
      "start": 34.6963,
      "duration": 0.0161,
      "velocity": 115,
      "chip": "ym2612"
    },
    {
      "channel": 4,
      "note": 77,
      "start": 34.6975,
      "duration": 0.0161,
      "velocity": 97,
      "chip": "ym2612"
    },
    {
      "channel": 3,
      "note": 80,
      "start": 34.6987,
      "duration": 0.0161,
      "velocity": 97,
      "chip": "ym2612"
    },
    {
      "channel": 2,
      "note": 59,
      "start": 34.6998,
      "duration": 0.0161,
      "velocity": 100,
      "chip": "ym2612"
    },
    {
      "channel": 1,
      "note": 56,
      "start": 34.7107,
      "duration": 0.0165,
      "velocity": 124,
      "chip": "ym2612"
    },
    {
      "channel": 0,
      "note": 38,
      "start": 34.7124,
      "duration": 0.0165,
      "velocity": 115,
      "chip": "ym2612"
    },
    {
      "channel": 4,
      "note": 77,
      "start": 34.7136,
      "duration": 0.0165,
      "velocity": 97,
      "chip": "ym2612"
    },
    {
      "channel": 3,
      "note": 80,
      "start": 34.7147,
      "duration": 0.0166,
      "velocity": 97,
      "chip": "ym2612"
    },
    {
      "channel": 2,
      "note": 59,
      "start": 34.7159,
      "duration": 0.0165,
      "velocity": 100,
      "chip": "ym2612"
    },
    {
      "channel": 1,
      "note": 55,
      "start": 34.7272,
      "duration": 0.0163,
      "velocity": 124,
      "chip": "ym2612"
    },
    {
      "channel": 0,
      "note": 39,
      "start": 34.7289,
      "duration": 0.0163,
      "velocity": 115,
      "chip": "ym2612"
    },
    {
      "channel": 4,
      "note": 77,
      "start": 34.7301,
      "duration": 0.0163,
      "velocity": 97,
      "chip": "ym2612"
    },
    {
      "channel": 3,
      "note": 80,
      "start": 34.7314,
      "duration": 0.0163,
      "velocity": 97,
      "chip": "ym2612"
    },
    {
      "channel": 2,
      "note": 59,
      "start": 34.7324,
      "duration": 0.0163,
      "velocity": 100,
      "chip": "ym2612"
    },
    {
      "channel": 1,
      "note": 53,
      "start": 34.7436,
      "duration": 0.0154,
      "velocity": 124,
      "chip": "ym2612"
    },
    {
      "channel": 0,
      "note": 39,
      "start": 34.7453,
      "duration": 0.0154,
      "velocity": 115,
      "chip": "ym2612"
    },
    {
      "channel": 4,
      "note": 77,
      "start": 34.7465,
      "duration": 0.0154,
      "velocity": 97,
      "chip": "ym2612"
    },
    {
      "channel": 3,
      "note": 80,
      "start": 34.7476,
      "duration": 0.0154,
      "velocity": 97,
      "chip": "ym2612"
    },
    {
      "channel": 2,
      "note": 59,
      "start": 34.7488,
      "duration": 0.0155,
      "velocity": 100,
      "chip": "ym2612"
    },
    {
      "channel": 1,
      "note": 52,
      "start": 34.759,
      "duration": 0.0183,
      "velocity": 124,
      "chip": "ym2612"
    },
    {
      "channel": 0,
      "note": 40,
      "start": 34.7607,
      "duration": 0.0183,
      "velocity": 115,
      "chip": "ym2612"
    },
    {
      "channel": 4,
      "note": 77,
      "start": 34.7619,
      "duration": 0.0183,
      "velocity": 97,
      "chip": "ym2612"
    },
    {
      "channel": 3,
      "note": 80,
      "start": 34.7631,
      "duration": 0.0182,
      "velocity": 97,
      "chip": "ym2612"
    },
    {
      "channel": 2,
      "note": 59,
      "start": 34.7642,
      "duration": 0.0182,
      "velocity": 100,
      "chip": "ym2612"
    },
    {
      "channel": 1,
      "note": 51,
      "start": 34.7772,
      "duration": 0.0159,
      "velocity": 1,
      "chip": "ym2612"
    },
    {
      "channel": 0,
      "note": 40,
      "start": 34.7789,
      "duration": 0.0159,
      "velocity": 115,
      "chip": "ym2612"
    },
    {
      "channel": 4,
      "note": 77,
      "start": 34.7801,
      "duration": 0.0159,
      "velocity": 97,
      "chip": "ym2612"
    },
    {
      "channel": 3,
      "note": 80,
      "start": 34.7813,
      "duration": 0.0159,
      "velocity": 97,
      "chip": "ym2612"
    },
    {
      "channel": 2,
      "note": 59,
      "start": 34.7824,
      "duration": 0.0159,
      "velocity": 100,
      "chip": "ym2612"
    },
    {
      "channel": 0,
      "note": 40,
      "start": 34.7948,
      "duration": 0.0149,
      "velocity": 115,
      "chip": "ym2612"
    },
    {
      "channel": 4,
      "note": 77,
      "start": 34.7961,
      "duration": 0.0149,
      "velocity": 97,
      "chip": "ym2612"
    },
    {
      "channel": 3,
      "note": 80,
      "start": 34.7972,
      "duration": 0.0149,
      "velocity": 97,
      "chip": "ym2612"
    },
    {
      "channel": 0,
      "note": 41,
      "start": 34.8097,
      "duration": 0.0141,
      "velocity": 115,
      "chip": "ym2612"
    },
    {
      "channel": 4,
      "note": 77,
      "start": 34.8109,
      "duration": 0.0141,
      "velocity": 97,
      "chip": "ym2612"
    },
    {
      "channel": 3,
      "note": 80,
      "start": 34.8121,
      "duration": 0.0141,
      "velocity": 97,
      "chip": "ym2612"
    },
    {
      "channel": 0,
      "note": 41,
      "start": 34.8238,
      "duration": 0.0185,
      "velocity": 115,
      "chip": "ym2612"
    },
    {
      "channel": 4,
      "note": 77,
      "start": 34.825,
      "duration": 0.0185,
      "velocity": 97,
      "chip": "ym2612"
    },
    {
      "channel": 3,
      "note": 80,
      "start": 34.8261,
      "duration": 0.0185,
      "velocity": 97,
      "chip": "ym2612"
    },
    {
      "channel": 0,
      "note": 42,
      "start": 34.8423,
      "duration": 0.0134,
      "velocity": 115,
      "chip": "ym2612"
    },
    {
      "channel": 4,
      "note": 77,
      "start": 34.8435,
      "duration": 0.0161,
      "velocity": 97,
      "chip": "ym2612"
    },
    {
      "channel": 3,
      "note": 80,
      "start": 34.8446,
      "duration": 0.0161,
      "velocity": 97,
      "chip": "ym2612"
    },
    {
      "channel": 0,
      "note": 42,
      "start": 34.8556,
      "duration": 0.0161,
      "velocity": 115,
      "chip": "ym2612"
    },
    {
      "channel": 4,
      "note": 77,
      "start": 34.8596,
      "duration": 0.0158,
      "velocity": 97,
      "chip": "ym2612"
    },
    {
      "channel": 3,
      "note": 80,
      "start": 34.8607,
      "duration": 0.0158,
      "velocity": 97,
      "chip": "ym2612"
    },
    {
      "channel": 0,
      "note": 43,
      "start": 34.8717,
      "duration": 0.0161,
      "velocity": 115,
      "chip": "ym2612"
    },
    {
      "channel": 4,
      "note": 77,
      "start": 34.8754,
      "duration": 0.0137,
      "velocity": 97,
      "chip": "ym2612"
    },
    {
      "channel": 3,
      "note": 80,
      "start": 34.8765,
      "duration": 0.0141,
      "velocity": 97,
      "chip": "ym2612"
    },
    {
      "channel": 0,
      "note": 43,
      "start": 34.8878,
      "duration": 0.0161,
      "velocity": 115,
      "chip": "ym2612"
    },
    {
      "channel": 4,
      "note": 77,
      "start": 34.889,
      "duration": 0.0161,
      "velocity": 97,
      "chip": "ym2612"
    },
    {
      "channel": 3,
      "note": 80,
      "start": 34.8906,
      "duration": 0.0185,
      "velocity": 97,
      "chip": "ym2612"
    },
    {
      "channel": 0,
      "note": 44,
      "start": 34.9039,
      "duration": 0.0161,
      "velocity": 115,
      "chip": "ym2612"
    },
    {
      "channel": 4,
      "note": 77,
      "start": 34.9051,
      "duration": 0.0161,
      "velocity": 97,
      "chip": "ym2612"
    },
    {
      "channel": 3,
      "note": 80,
      "start": 34.9091,
      "duration": 0.0133,
      "velocity": 97,
      "chip": "ym2612"
    },
    {
      "channel": 0,
      "note": 44,
      "start": 34.92,
      "duration": 0.0162,
      "velocity": 115,
      "chip": "ym2612"
    },
    {
      "channel": 4,
      "note": 77,
      "start": 34.9212,
      "duration": 0.0161,
      "velocity": 97,
      "chip": "ym2612"
    },
    {
      "channel": 3,
      "note": 80,
      "start": 34.9224,
      "duration": 0.0162,
      "velocity": 97,
      "chip": "ym2612"
    },
    {
      "channel": 0,
      "note": 44,
      "start": 34.9362,
      "duration": 0.0161,
      "velocity": 115,
      "chip": "ym2612"
    },
    {
      "channel": 4,
      "note": 77,
      "start": 34.9373,
      "duration": 0.0161,
      "velocity": 97,
      "chip": "ym2612"
    },
    {
      "channel": 3,
      "note": 80,
      "start": 34.9385,
      "duration": 0.0161,
      "velocity": 97,
      "chip": "ym2612"
    },
    {
      "channel": 0,
      "note": 45,
      "start": 34.9523,
      "duration": 0.0161,
      "velocity": 115,
      "chip": "ym2612"
    },
    {
      "channel": 4,
      "note": 77,
      "start": 34.9534,
      "duration": 0.0162,
      "velocity": 97,
      "chip": "ym2612"
    },
    {
      "channel": 3,
      "note": 80,
      "start": 34.9546,
      "duration": 0.0161,
      "velocity": 97,
      "chip": "ym2612"
    },
    {
      "channel": 0,
      "note": 45,
      "start": 34.9684,
      "duration": 0.0161,
      "velocity": 115,
      "chip": "ym2612"
    },
    {
      "channel": 4,
      "note": 77,
      "start": 34.9696,
      "duration": 0.0161,
      "velocity": 97,
      "chip": "ym2612"
    },
    {
      "channel": 3,
      "note": 80,
      "start": 34.9707,
      "duration": 0.0161,
      "velocity": 97,
      "chip": "ym2612"
    },
    {
      "channel": 0,
      "note": 46,
      "start": 34.9845,
      "duration": 0.0161,
      "velocity": 115,
      "chip": "ym2612"
    },
    {
      "channel": 4,
      "note": 77,
      "start": 34.9857,
      "duration": 0.0161,
      "velocity": 97,
      "chip": "ym2612"
    },
    {
      "channel": 3,
      "note": 80,
      "start": 34.9868,
      "duration": 0.0161,
      "velocity": 97,
      "chip": "ym2612"
    },
    {
      "channel": 0,
      "note": 46,
      "start": 35.0006,
      "duration": 0.0179,
      "velocity": 115,
      "chip": "ym2612"
    },
    {
      "channel": 4,
      "note": 77,
      "start": 35.0018,
      "duration": 0.0179,
      "velocity": 97,
      "chip": "ym2612"
    },
    {
      "channel": 3,
      "note": 80,
      "start": 35.0029,
      "duration": 0.0179,
      "velocity": 97,
      "chip": "ym2612"
    },
    {
      "channel": 0,
      "note": 36,
      "start": 35.0184,
      "duration": 0.0144,
      "velocity": 115,
      "chip": "ym2612"
    },
    {
      "channel": 4,
      "note": 77,
      "start": 35.0196,
      "duration": 0.0144,
      "velocity": 97,
      "chip": "ym2612"
    },
    {
      "channel": 3,
      "note": 80,
      "start": 35.0209,
      "duration": 0.0143,
      "velocity": 97,
      "chip": "ym2612"
    },
    {
      "channel": 2,
      "note": 61,
      "start": 35.0222,
      "duration": 0.0141,
      "velocity": 100,
      "chip": "ym2612"
    },
    {
      "channel": 1,
      "note": 49,
      "start": 35.024,
      "duration": 0.0136,
      "velocity": 100,
      "chip": "ym2612"
    },
    {
      "channel": 0,
      "note": 36,
      "start": 35.0328,
      "duration": 0.016,
      "velocity": 115,
      "chip": "ym2612"
    },
    {
      "channel": 4,
      "note": 77,
      "start": 35.034,
      "duration": 0.016,
      "velocity": 97,
      "chip": "ym2612"
    },
    {
      "channel": 3,
      "note": 80,
      "start": 35.0352,
      "duration": 0.016,
      "velocity": 97,
      "chip": "ym2612"
    },
    {
      "channel": 2,
      "note": 61,
      "start": 35.0364,
      "duration": 0.016,
      "velocity": 100,
      "chip": "ym2612"
    },
    {
      "channel": 1,
      "note": 49,
      "start": 35.0375,
      "duration": 0.016,
      "velocity": 100,
      "chip": "ym2612"
    },
    {
      "channel": 0,
      "note": 37,
      "start": 35.0488,
      "duration": 0.0161,
      "velocity": 115,
      "chip": "ym2612"
    },
    {
      "channel": 4,
      "note": 77,
      "start": 35.05,
      "duration": 0.0161,
      "velocity": 97,
      "chip": "ym2612"
    },
    {
      "channel": 3,
      "note": 80,
      "start": 35.0512,
      "duration": 0.0161,
      "velocity": 97,
      "chip": "ym2612"
    },
    {
      "channel": 2,
      "note": 61,
      "start": 35.0523,
      "duration": 0.0161,
      "velocity": 100,
      "chip": "ym2612"
    },
    {
      "channel": 1,
      "note": 49,
      "start": 35.0535,
      "duration": 0.0161,
      "velocity": 100,
      "chip": "ym2612"
    },
    {
      "channel": 0,
      "note": 37,
      "start": 35.0649,
      "duration": 0.0161,
      "velocity": 115,
      "chip": "ym2612"
    },
    {
      "channel": 4,
      "note": 77,
      "start": 35.0661,
      "duration": 0.0161,
      "velocity": 97,
      "chip": "ym2612"
    },
    {
      "channel": 3,
      "note": 80,
      "start": 35.0673,
      "duration": 0.0161,
      "velocity": 97,
      "chip": "ym2612"
    },
    {
      "channel": 2,
      "note": 61,
      "start": 35.0684,
      "duration": 0.0162,
      "velocity": 100,
      "chip": "ym2612"
    },
    {
      "channel": 1,
      "note": 49,
      "start": 35.0696,
      "duration": 0.0161,
      "velocity": 100,
      "chip": "ym2612"
    },
    {
      "channel": 0,
      "note": 38,
      "start": 35.0811,
      "duration": 0.0161,
      "velocity": 115,
      "chip": "ym2612"
    },
    {
      "channel": 4,
      "note": 77,
      "start": 35.0822,
      "duration": 0.0161,
      "velocity": 97,
      "chip": "ym2612"
    },
    {
      "channel": 3,
      "note": 80,
      "start": 35.0834,
      "duration": 0.0161,
      "velocity": 97,
      "chip": "ym2612"
    },
    {
      "channel": 2,
      "note": 61,
      "start": 35.0846,
      "duration": 0.0161,
      "velocity": 100,
      "chip": "ym2612"
    },
    {
      "channel": 1,
      "note": 49,
      "start": 35.0857,
      "duration": 0.0161,
      "velocity": 100,
      "chip": "ym2612"
    },
    {
      "channel": 0,
      "note": 38,
      "start": 35.0972,
      "duration": 0.0161,
      "velocity": 115,
      "chip": "ym2612"
    },
    {
      "channel": 4,
      "note": 77,
      "start": 35.0983,
      "duration": 0.0161,
      "velocity": 97,
      "chip": "ym2612"
    },
    {
      "channel": 3,
      "note": 80,
      "start": 35.0995,
      "duration": 0.0161,
      "velocity": 97,
      "chip": "ym2612"
    },
    {
      "channel": 2,
      "note": 61,
      "start": 35.1007,
      "duration": 0.0161,
      "velocity": 100,
      "chip": "ym2612"
    },
    {
      "channel": 1,
      "note": 49,
      "start": 35.1018,
      "duration": 0.0162,
      "velocity": 100,
      "chip": "ym2612"
    },
    {
      "channel": 0,
      "note": 39,
      "start": 35.1133,
      "duration": 0.0161,
      "velocity": 115,
      "chip": "ym2612"
    },
    {
      "channel": 4,
      "note": 77,
      "start": 35.1145,
      "duration": 0.0161,
      "velocity": 97,
      "chip": "ym2612"
    },
    {
      "channel": 3,
      "note": 80,
      "start": 35.1156,
      "duration": 0.0161,
      "velocity": 97,
      "chip": "ym2612"
    },
    {
      "channel": 2,
      "note": 61,
      "start": 35.1168,
      "duration": 0.0161,
      "velocity": 100,
      "chip": "ym2612"
    },
    {
      "channel": 1,
      "note": 49,
      "start": 35.1179,
      "duration": 0.0161,
      "velocity": 100,
      "chip": "ym2612"
    },
    {
      "channel": 0,
      "note": 39,
      "start": 35.1294,
      "duration": 0.0161,
      "velocity": 115,
      "chip": "ym2612"
    },
    {
      "channel": 4,
      "note": 77,
      "start": 35.1306,
      "duration": 0.0161,
      "velocity": 97,
      "chip": "ym2612"
    },
    {
      "channel": 3,
      "note": 80,
      "start": 35.1317,
      "duration": 0.0162,
      "velocity": 97,
      "chip": "ym2612"
    },
    {
      "channel": 2,
      "note": 61,
      "start": 35.1329,
      "duration": 0.0161,
      "velocity": 100,
      "chip": "ym2612"
    },
    {
      "channel": 1,
      "note": 49,
      "start": 35.134,
      "duration": 0.0161,
      "velocity": 100,
      "chip": "ym2612"
    },
    {
      "channel": 0,
      "note": 40,
      "start": 35.1455,
      "duration": 0.0161,
      "velocity": 115,
      "chip": "ym2612"
    },
    {
      "channel": 4,
      "note": 77,
      "start": 35.1467,
      "duration": 0.0161,
      "velocity": 97,
      "chip": "ym2612"
    },
    {
      "channel": 3,
      "note": 80,
      "start": 35.1479,
      "duration": 0.016,
      "velocity": 97,
      "chip": "ym2612"
    },
    {
      "channel": 2,
      "note": 61,
      "start": 35.149,
      "duration": 0.0161,
      "velocity": 100,
      "chip": "ym2612"
    },
    {
      "channel": 1,
      "note": 49,
      "start": 35.1501,
      "duration": 0.0161,
      "velocity": 100,
      "chip": "ym2612"
    },
    {
      "channel": 0,
      "note": 40,
      "start": 35.1616,
      "duration": 0.0161,
      "velocity": 115,
      "chip": "ym2612"
    },
    {
      "channel": 4,
      "note": 77,
      "start": 35.1628,
      "duration": 0.0161,
      "velocity": 97,
      "chip": "ym2612"
    },
    {
      "channel": 3,
      "note": 80,
      "start": 35.1639,
      "duration": 0.0161,
      "velocity": 97,
      "chip": "ym2612"
    },
    {
      "channel": 2,
      "note": 61,
      "start": 35.1651,
      "duration": 0.0161,
      "velocity": 100,
      "chip": "ym2612"
    },
    {
      "channel": 1,
      "note": 49,
      "start": 35.1662,
      "duration": 0.0161,
      "velocity": 100,
      "chip": "ym2612"
    },
    {
      "channel": 0,
      "note": 40,
      "start": 35.1777,
      "duration": 0.0163,
      "velocity": 115,
      "chip": "ym2612"
    },
    {
      "channel": 4,
      "note": 77,
      "start": 35.1789,
      "duration": 0.0163,
      "velocity": 97,
      "chip": "ym2612"
    },
    {
      "channel": 3,
      "note": 80,
      "start": 35.18,
      "duration": 0.0163,
      "velocity": 97,
      "chip": "ym2612"
    },
    {
      "channel": 0,
      "note": 41,
      "start": 35.194,
      "duration": 0.0197,
      "velocity": 115,
      "chip": "ym2612"
    },
    {
      "channel": 4,
      "note": 77,
      "start": 35.1951,
      "duration": 0.0198,
      "velocity": 97,
      "chip": "ym2612"
    },
    {
      "channel": 3,
      "note": 80,
      "start": 35.1964,
      "duration": 0.0197,
      "velocity": 97,
      "chip": "ym2612"
    },
    {
      "channel": 1,
      "note": 78,
      "start": 35.212,
      "duration": 0.0139,
      "velocity": 124,
      "chip": "ym2612"
    },
    {
      "channel": 0,
      "note": 41,
      "start": 35.2137,
      "duration": 0.0139,
      "velocity": 115,
      "chip": "ym2612"
    },
    {
      "channel": 4,
      "note": 77,
      "start": 35.2149,
      "duration": 0.0139,
      "velocity": 97,
      "chip": "ym2612"
    },
    {
      "channel": 3,
      "note": 80,
      "start": 35.2161,
      "duration": 0.0139,
      "velocity": 97,
      "chip": "ym2612"
    },
    {
      "channel": 2,
      "note": 59,
      "start": 35.2175,
      "duration": 0.0137,
      "velocity": 100,
      "chip": "ym2612"
    },
    {
      "channel": 1,
      "note": 76,
      "start": 35.2259,
      "duration": 0.018,
      "velocity": 124,
      "chip": "ym2612"
    },
    {
      "channel": 0,
      "note": 42,
      "start": 35.2277,
      "duration": 0.018,
      "velocity": 115,
      "chip": "ym2612"
    },
    {
      "channel": 4,
      "note": 77,
      "start": 35.2289,
      "duration": 0.018,
      "velocity": 97,
      "chip": "ym2612"
    },
    {
      "channel": 3,
      "note": 80,
      "start": 35.23,
      "duration": 0.018,
      "velocity": 97,
      "chip": "ym2612"
    },
    {
      "channel": 2,
      "note": 59,
      "start": 35.2312,
      "duration": 0.0179,
      "velocity": 100,
      "chip": "ym2612"
    },
    {
      "channel": 1,
      "note": 75,
      "start": 35.2439,
      "duration": 0.0166,
      "velocity": 124,
      "chip": "ym2612"
    },
    {
      "channel": 0,
      "note": 42,
      "start": 35.2457,
      "duration": 0.0167,
      "velocity": 115,
      "chip": "ym2612"
    },
    {
      "channel": 4,
      "note": 77,
      "start": 35.2469,
      "duration": 0.0166,
      "velocity": 97,
      "chip": "ym2612"
    },
    {
      "channel": 3,
      "note": 80,
      "start": 35.248,
      "duration": 0.0167,
      "velocity": 97,
      "chip": "ym2612"
    },
    {
      "channel": 2,
      "note": 59,
      "start": 35.2492,
      "duration": 0.0167,
      "velocity": 100,
      "chip": "ym2612"
    },
    {
      "channel": 1,
      "note": 74,
      "start": 35.2605,
      "duration": 0.016,
      "velocity": 124,
      "chip": "ym2612"
    },
    {
      "channel": 0,
      "note": 43,
      "start": 35.2623,
      "duration": 0.016,
      "velocity": 115,
      "chip": "ym2612"
    },
    {
      "channel": 4,
      "note": 77,
      "start": 35.2635,
      "duration": 0.0161,
      "velocity": 97,
      "chip": "ym2612"
    },
    {
      "channel": 3,
      "note": 80,
      "start": 35.2647,
      "duration": 0.016,
      "velocity": 97,
      "chip": "ym2612"
    },
    {
      "channel": 2,
      "note": 59,
      "start": 35.2658,
      "duration": 0.016,
      "velocity": 100,
      "chip": "ym2612"
    },
    {
      "channel": 1,
      "note": 72,
      "start": 35.2766,
      "duration": 0.0141,
      "velocity": 124,
      "chip": "ym2612"
    },
    {
      "channel": 0,
      "note": 43,
      "start": 35.2783,
      "duration": 0.0141,
      "velocity": 115,
      "chip": "ym2612"
    },
    {
      "channel": 4,
      "note": 77,
      "start": 35.2796,
      "duration": 0.014,
      "velocity": 97,
      "chip": "ym2612"
    },
    {
      "channel": 3,
      "note": 80,
      "start": 35.2807,
      "duration": 0.014,
      "velocity": 97,
      "chip": "ym2612"
    },
    {
      "channel": 2,
      "note": 59,
      "start": 35.2819,
      "duration": 0.014,
      "velocity": 100,
      "chip": "ym2612"
    },
    {
      "channel": 1,
      "note": 71,
      "start": 35.2906,
      "duration": 0.0185,
      "velocity": 124,
      "chip": "ym2612"
    },
    {
      "channel": 0,
      "note": 44,
      "start": 35.2924,
      "duration": 0.0185,
      "velocity": 115,
      "chip": "ym2612"
    },
    {
      "channel": 4,
      "note": 77,
      "start": 35.2936,
      "duration": 0.0185,
      "velocity": 97,
      "chip": "ym2612"
    },
    {
      "channel": 3,
      "note": 80,
      "start": 35.2947,
      "duration": 0.0186,
      "velocity": 97,
      "chip": "ym2612"
    },
    {
      "channel": 2,
      "note": 59,
      "start": 35.2959,
      "duration": 0.0185,
      "velocity": 100,
      "chip": "ym2612"
    },
    {
      "channel": 1,
      "note": 70,
      "start": 35.3091,
      "duration": 0.0134,
      "velocity": 124,
      "chip": "ym2612"
    },
    {
      "channel": 0,
      "note": 44,
      "start": 35.3109,
      "duration": 0.0161,
      "velocity": 115,
      "chip": "ym2612"
    },
    {
      "channel": 4,
      "note": 77,
      "start": 35.3121,
      "duration": 0.0161,
      "velocity": 97,
      "chip": "ym2612"
    },
    {
      "channel": 3,
      "note": 80,
      "start": 35.3133,
      "duration": 0.016,
      "velocity": 97,
      "chip": "ym2612"
    },
    {
      "channel": 2,
      "note": 59,
      "start": 35.3144,
      "duration": 0.0161,
      "velocity": 100,
      "chip": "ym2612"
    },
    {
      "channel": 1,
      "note": 69,
      "start": 35.3225,
      "duration": 0.0161,
      "velocity": 124,
      "chip": "ym2612"
    },
    {
      "channel": 0,
      "note": 44,
      "start": 35.327,
      "duration": 0.0158,
      "velocity": 115,
      "chip": "ym2612"
    },
    {
      "channel": 4,
      "note": 77,
      "start": 35.3282,
      "duration": 0.0158,
      "velocity": 97,
      "chip": "ym2612"
    },
    {
      "channel": 3,
      "note": 80,
      "start": 35.3293,
      "duration": 0.0158,
      "velocity": 97,
      "chip": "ym2612"
    },
    {
      "channel": 2,
      "note": 59,
      "start": 35.3305,
      "duration": 0.0158,
      "velocity": 100,
      "chip": "ym2612"
    },
    {
      "channel": 1,
      "note": 68,
      "start": 35.3386,
      "duration": 0.0161,
      "velocity": 124,
      "chip": "ym2612"
    },
    {
      "channel": 0,
      "note": 45,
      "start": 35.3427,
      "duration": 0.014,
      "velocity": 115,
      "chip": "ym2612"
    },
    {
      "channel": 4,
      "note": 77,
      "start": 35.3439,
      "duration": 0.014,
      "velocity": 97,
      "chip": "ym2612"
    },
    {
      "channel": 3,
      "note": 80,
      "start": 35.3451,
      "duration": 0.014,
      "velocity": 97,
      "chip": "ym2612"
    },
    {
      "channel": 2,
      "note": 59,
      "start": 35.3462,
      "duration": 0.014,
      "velocity": 100,
      "chip": "ym2612"
    },
    {
      "channel": 1,
      "note": 66,
      "start": 35.3547,
      "duration": 0.0161,
      "velocity": 124,
      "chip": "ym2612"
    },
    {
      "channel": 0,
      "note": 45,
      "start": 35.3567,
      "duration": 0.0158,
      "velocity": 115,
      "chip": "ym2612"
    },
    {
      "channel": 4,
      "note": 77,
      "start": 35.3579,
      "duration": 0.0186,
      "velocity": 97,
      "chip": "ym2612"
    },
    {
      "channel": 3,
      "note": 80,
      "start": 35.3591,
      "duration": 0.0185,
      "velocity": 97,
      "chip": "ym2612"
    },
    {
      "channel": 2,
      "note": 59,
      "start": 35.3602,
      "duration": 0.0186,
      "velocity": 100,
      "chip": "ym2612"
    },
    {
      "channel": 1,
      "note": 65,
      "start": 35.3708,
      "duration": 0.0161,
      "velocity": 124,
      "chip": "ym2612"
    },
    {
      "channel": 0,
      "note": 46,
      "start": 35.3726,
      "duration": 0.0161,
      "velocity": 115,
      "chip": "ym2612"
    },
    {
      "channel": 4,
      "note": 77,
      "start": 35.3765,
      "duration": 0.0161,
      "velocity": 97,
      "chip": "ym2612"
    },
    {
      "channel": 3,
      "note": 80,
      "start": 35.3777,
      "duration": 0.0161,
      "velocity": 97,
      "chip": "ym2612"
    },
    {
      "channel": 1,
      "note": 64,
      "start": 35.3869,
      "duration": 0.0161,
      "velocity": 124,
      "chip": "ym2612"
    },
    {
      "channel": 0,
      "note": 46,
      "start": 35.3887,
      "duration": 0.0161,
      "velocity": 115,
      "chip": "ym2612"
    },
    {
      "channel": 4,
      "note": 77,
      "start": 35.3926,
      "duration": 0.0157,
      "velocity": 97,
      "chip": "ym2612"
    },
    {
      "channel": 3,
      "note": 80,
      "start": 35.3938,
      "duration": 0.0158,
      "velocity": 97,
      "chip": "ym2612"
    },
    {
      "channel": 1,
      "note": 62,
      "start": 35.403,
      "duration": 0.0161,
      "velocity": 124,
      "chip": "ym2612"
    },
    {
      "channel": 0,
      "note": 47,
      "start": 35.4048,
      "duration": 0.0161,
      "velocity": 115,
      "chip": "ym2612"
    },
    {
      "channel": 4,
      "note": 77,
      "start": 35.4083,
      "duration": 0.0137,
      "velocity": 97,
      "chip": "ym2612"
    },
    {
      "channel": 3,
      "note": 80,
      "start": 35.4095,
      "duration": 0.014,
      "velocity": 97,
      "chip": "ym2612"
    },
    {
      "channel": 2,
      "note": 56,
      "start": 35.4109,
      "duration": 0.0138,
      "velocity": 100,
      "chip": "ym2612"
    },
    {
      "channel": 1,
      "note": 61,
      "start": 35.4191,
      "duration": 0.0161,
      "velocity": 124,
      "chip": "ym2612"
    },
    {
      "channel": 0,
      "note": 47,
      "start": 35.4209,
      "duration": 0.0161,
      "velocity": 115,
      "chip": "ym2612"
    },
    {
      "channel": 4,
      "note": 77,
      "start": 35.4221,
      "duration": 0.0161,
      "velocity": 97,
      "chip": "ym2612"
    },
    {
      "channel": 3,
      "note": 80,
      "start": 35.4235,
      "duration": 0.0186,
      "velocity": 97,
      "chip": "ym2612"
    },
    {
      "channel": 2,
      "note": 56,
      "start": 35.4247,
      "duration": 0.0184,
      "velocity": 100,
      "chip": "ym2612"
    },
    {
      "channel": 1,
      "note": 60,
      "start": 35.4352,
      "duration": 0.0161,
      "velocity": 124,
      "chip": "ym2612"
    },
    {
      "channel": 0,
      "note": 47,
      "start": 35.4369,
      "duration": 0.0161,
      "velocity": 115,
      "chip": "ym2612"
    },
    {
      "channel": 4,
      "note": 77,
      "start": 35.4382,
      "duration": 0.0161,
      "velocity": 97,
      "chip": "ym2612"
    },
    {
      "channel": 3,
      "note": 80,
      "start": 35.4421,
      "duration": 0.0133,
      "velocity": 97,
      "chip": "ym2612"
    },
    {
      "channel": 2,
      "note": 56,
      "start": 35.4432,
      "duration": 0.0161,
      "velocity": 100,
      "chip": "ym2612"
    },
    {
      "channel": 1,
      "note": 59,
      "start": 35.4513,
      "duration": 0.0161,
      "velocity": 124,
      "chip": "ym2612"
    },
    {
      "channel": 0,
      "note": 48,
      "start": 35.453,
      "duration": 0.0161,
      "velocity": 115,
      "chip": "ym2612"
    },
    {
      "channel": 4,
      "note": 77,
      "start": 35.4542,
      "duration": 0.0161,
      "velocity": 97,
      "chip": "ym2612"
    },
    {
      "channel": 3,
      "note": 80,
      "start": 35.4554,
      "duration": 0.0161,
      "velocity": 97,
      "chip": "ym2612"
    },
    {
      "channel": 2,
      "note": 56,
      "start": 35.4593,
      "duration": 0.0157,
      "velocity": 100,
      "chip": "ym2612"
    },
    {
      "channel": 1,
      "note": 57,
      "start": 35.4674,
      "duration": 0.0161,
      "velocity": 124,
      "chip": "ym2612"
    },
    {
      "channel": 0,
      "note": 48,
      "start": 35.4691,
      "duration": 0.0161,
      "velocity": 115,
      "chip": "ym2612"
    },
    {
      "channel": 4,
      "note": 77,
      "start": 35.4703,
      "duration": 0.0161,
      "velocity": 97,
      "chip": "ym2612"
    },
    {
      "channel": 3,
      "note": 80,
      "start": 35.4715,
      "duration": 0.0161,
      "velocity": 97,
      "chip": "ym2612"
    },
    {
      "channel": 2,
      "note": 56,
      "start": 35.475,
      "duration": 0.0137,
      "velocity": 100,
      "chip": "ym2612"
    },
    {
      "channel": 1,
      "note": 56,
      "start": 35.4835,
      "duration": 0.0161,
      "velocity": 124,
      "chip": "ym2612"
    },
    {
      "channel": 0,
      "note": 49,
      "start": 35.4852,
      "duration": 0.0153,
      "velocity": 1,
      "chip": "ym2612"
    },
    {
      "channel": 4,
      "note": 77,
      "start": 35.4864,
      "duration": 0.0153,
      "velocity": 97,
      "chip": "ym2612"
    },
    {
      "channel": 3,
      "note": 80,
      "start": 35.4876,
      "duration": 0.0154,
      "velocity": 97,
      "chip": "ym2612"
    },
    {
      "channel": 2,
      "note": 56,
      "start": 35.4887,
      "duration": 0.0153,
      "velocity": 100,
      "chip": "ym2612"
    },
    {
      "channel": 1,
      "note": 55,
      "start": 35.4996,
      "duration": 0.0161,
      "velocity": 124,
      "chip": "ym2612"
    },
    {
      "channel": 4,
      "note": 77,
      "start": 35.5018,
      "duration": 0.0152,
      "velocity": 97,
      "chip": "ym2612"
    },
    {
      "channel": 3,
      "note": 80,
      "start": 35.5029,
      "duration": 0.0153,
      "velocity": 97,
      "chip": "ym2612"
    },
    {
      "channel": 2,
      "note": 56,
      "start": 35.5041,
      "duration": 0.0152,
      "velocity": 100,
      "chip": "ym2612"
    },
    {
      "channel": 1,
      "note": 53,
      "start": 35.5157,
      "duration": 0.0161,
      "velocity": 124,
      "chip": "ym2612"
    },
    {
      "channel": 4,
      "note": 77,
      "start": 35.517,
      "duration": 0.0161,
      "velocity": 97,
      "chip": "ym2612"
    },
    {
      "channel": 3,
      "note": 80,
      "start": 35.5182,
      "duration": 0.0161,
      "velocity": 97,
      "chip": "ym2612"
    },
    {
      "channel": 2,
      "note": 56,
      "start": 35.5193,
      "duration": 0.0161,
      "velocity": 100,
      "chip": "ym2612"
    },
    {
      "channel": 1,
      "note": 52,
      "start": 35.5318,
      "duration": 0.0162,
      "velocity": 124,
      "chip": "ym2612"
    },
    {
      "channel": 4,
      "note": 77,
      "start": 35.5331,
      "duration": 0.0161,
      "velocity": 97,
      "chip": "ym2612"
    },
    {
      "channel": 3,
      "note": 80,
      "start": 35.5343,
      "duration": 0.0161,
      "velocity": 97,
      "chip": "ym2612"
    },
    {
      "channel": 2,
      "note": 56,
      "start": 35.5354,
      "duration": 0.0161,
      "velocity": 100,
      "chip": "ym2612"
    },
    {
      "channel": 1,
      "note": 51,
      "start": 35.548,
      "duration": 0.0153,
      "velocity": 1,
      "chip": "ym2612"
    },
    {
      "channel": 4,
      "note": 77,
      "start": 35.5492,
      "duration": 0.0153,
      "velocity": 97,
      "chip": "ym2612"
    },
    {
      "channel": 3,
      "note": 80,
      "start": 35.5504,
      "duration": 0.0153,
      "velocity": 97,
      "chip": "ym2612"
    },
    {
      "channel": 2,
      "note": 56,
      "start": 35.5515,
      "duration": 0.0153,
      "velocity": 100,
      "chip": "ym2612"
    },
    {
      "channel": 4,
      "note": 77,
      "start": 35.5645,
      "duration": 0.0153,
      "velocity": 97,
      "chip": "ym2612"
    },
    {
      "channel": 3,
      "note": 80,
      "start": 35.5656,
      "duration": 0.0153,
      "velocity": 97,
      "chip": "ym2612"
    },
    {
      "channel": 4,
      "note": 77,
      "start": 35.5798,
      "duration": 0.0195,
      "velocity": 97,
      "chip": "ym2612"
    },
    {
      "channel": 3,
      "note": 80,
      "start": 35.5809,
      "duration": 0.0195,
      "velocity": 97,
      "chip": "ym2612"
    },
    {
      "channel": 0,
      "note": 36,
      "start": 35.5981,
      "duration": 0.0144,
      "velocity": 115,
      "chip": "ym2612"
    },
    {
      "channel": 4,
      "note": 77,
      "start": 35.5993,
      "duration": 0.0144,
      "velocity": 97,
      "chip": "ym2612"
    },
    {
      "channel": 3,
      "note": 80,
      "start": 35.6004,
      "duration": 0.0144,
      "velocity": 97,
      "chip": "ym2612"
    },
    {
      "channel": 2,
      "note": 49,
      "start": 35.6019,
      "duration": 0.0141,
      "velocity": 100,
      "chip": "ym2612"
    },
    {
      "channel": 1,
      "note": 37,
      "start": 35.6034,
      "duration": 0.0139,
      "velocity": 100,
      "chip": "ym2612"
    },
    {
      "channel": 0,
      "note": 36,
      "start": 35.6124,
      "duration": 0.016,
      "velocity": 115,
      "chip": "ym2612"
    },
    {
      "channel": 4,
      "note": 77,
      "start": 35.6137,
      "duration": 0.016,
      "velocity": 97,
      "chip": "ym2612"
    },
    {
      "channel": 3,
      "note": 80,
      "start": 35.6148,
      "duration": 0.016,
      "velocity": 97,
      "chip": "ym2612"
    },
    {
      "channel": 2,
      "note": 49,
      "start": 35.616,
      "duration": 0.016,
      "velocity": 100,
      "chip": "ym2612"
    },
    {
      "channel": 1,
      "note": 37,
      "start": 35.6172,
      "duration": 0.0159,
      "velocity": 100,
      "chip": "ym2612"
    },
    {
      "channel": 0,
      "note": 37,
      "start": 35.6285,
      "duration": 0.0161,
      "velocity": 115,
      "chip": "ym2612"
    },
    {
      "channel": 4,
      "note": 77,
      "start": 35.6297,
      "duration": 0.0161,
      "velocity": 97,
      "chip": "ym2612"
    },
    {
      "channel": 3,
      "note": 80,
      "start": 35.6308,
      "duration": 0.0161,
      "velocity": 97,
      "chip": "ym2612"
    },
    {
      "channel": 2,
      "note": 49,
      "start": 35.632,
      "duration": 0.0161,
      "velocity": 100,
      "chip": "ym2612"
    },
    {
      "channel": 1,
      "note": 37,
      "start": 35.6331,
      "duration": 0.0161,
      "velocity": 100,
      "chip": "ym2612"
    },
    {
      "channel": 0,
      "note": 37,
      "start": 35.6446,
      "duration": 0.0162,
      "velocity": 115,
      "chip": "ym2612"
    },
    {
      "channel": 4,
      "note": 77,
      "start": 35.6458,
      "duration": 0.0162,
      "velocity": 97,
      "chip": "ym2612"
    },
    {
      "channel": 3,
      "note": 80,
      "start": 35.6469,
      "duration": 0.0161,
      "velocity": 97,
      "chip": "ym2612"
    },
    {
      "channel": 2,
      "note": 49,
      "start": 35.6481,
      "duration": 0.0162,
      "velocity": 100,
      "chip": "ym2612"
    },
    {
      "channel": 1,
      "note": 37,
      "start": 35.6492,
      "duration": 0.0161,
      "velocity": 100,
      "chip": "ym2612"
    },
    {
      "channel": 0,
      "note": 38,
      "start": 35.6607,
      "duration": 0.0162,
      "velocity": 115,
      "chip": "ym2612"
    },
    {
      "channel": 4,
      "note": 77,
      "start": 35.662,
      "duration": 0.0162,
      "velocity": 97,
      "chip": "ym2612"
    },
    {
      "channel": 3,
      "note": 80,
      "start": 35.6631,
      "duration": 0.0162,
      "velocity": 97,
      "chip": "ym2612"
    },
    {
      "channel": 2,
      "note": 49,
      "start": 35.6642,
      "duration": 0.0162,
      "velocity": 100,
      "chip": "ym2612"
    },
    {
      "channel": 1,
      "note": 37,
      "start": 35.6654,
      "duration": 0.0162,
      "velocity": 100,
      "chip": "ym2612"
    },
    {
      "channel": 0,
      "note": 38,
      "start": 35.677,
      "duration": 0.016,
      "velocity": 115,
      "chip": "ym2612"
    },
    {
      "channel": 4,
      "note": 77,
      "start": 35.6782,
      "duration": 0.016,
      "velocity": 97,
      "chip": "ym2612"
    },
    {
      "channel": 3,
      "note": 80,
      "start": 35.6793,
      "duration": 0.016,
      "velocity": 97,
      "chip": "ym2612"
    },
    {
      "channel": 2,
      "note": 49,
      "start": 35.6805,
      "duration": 0.016,
      "velocity": 100,
      "chip": "ym2612"
    },
    {
      "channel": 1,
      "note": 37,
      "start": 35.6816,
      "duration": 0.016,
      "velocity": 100,
      "chip": "ym2612"
    },
    {
      "channel": 0,
      "note": 39,
      "start": 35.6929,
      "duration": 0.0177,
      "velocity": 115,
      "chip": "ym2612"
    },
    {
      "channel": 4,
      "note": 77,
      "start": 35.6941,
      "duration": 0.0177,
      "velocity": 97,
      "chip": "ym2612"
    },
    {
      "channel": 3,
      "note": 80,
      "start": 35.6953,
      "duration": 0.0178,
      "velocity": 97,
      "chip": "ym2612"
    },
    {
      "channel": 2,
      "note": 49,
      "start": 35.6964,
      "duration": 0.0177,
      "velocity": 100,
      "chip": "ym2612"
    },
    {
      "channel": 1,
      "note": 37,
      "start": 35.6976,
      "duration": 0.0177,
      "velocity": 100,
      "chip": "ym2612"
    },
    {
      "channel": 0,
      "note": 39,
      "start": 35.7106,
      "duration": 0.0167,
      "velocity": 115,
      "chip": "ym2612"
    },
    {
      "channel": 4,
      "note": 77,
      "start": 35.7118,
      "duration": 0.0167,
      "velocity": 97,
      "chip": "ym2612"
    },
    {
      "channel": 3,
      "note": 80,
      "start": 35.713,
      "duration": 0.0167,
      "velocity": 97,
      "chip": "ym2612"
    },
    {
      "channel": 2,
      "note": 49,
      "start": 35.7141,
      "duration": 0.0167,
      "velocity": 100,
      "chip": "ym2612"
    },
    {
      "channel": 1,
      "note": 37,
      "start": 35.7153,
      "duration": 0.0167,
      "velocity": 100,
      "chip": "ym2612"
    },
    {
      "channel": 0,
      "note": 40,
      "start": 35.7273,
      "duration": 0.0163,
      "velocity": 115,
      "chip": "ym2612"
    },
    {
      "channel": 4,
      "note": 77,
      "start": 35.7285,
      "duration": 0.0163,
      "velocity": 97,
      "chip": "ym2612"
    },
    {
      "channel": 3,
      "note": 80,
      "start": 35.7297,
      "duration": 0.0163,
      "velocity": 97,
      "chip": "ym2612"
    },
    {
      "channel": 2,
      "note": 49,
      "start": 35.7308,
      "duration": 0.0163,
      "velocity": 100,
      "chip": "ym2612"
    },
    {
      "channel": 1,
      "note": 37,
      "start": 35.7319,
      "duration": 0.0163,
      "velocity": 100,
      "chip": "ym2612"
    },
    {
      "channel": 0,
      "note": 40,
      "start": 35.7436,
      "duration": 0.014,
      "velocity": 115,
      "chip": "ym2612"
    },
    {
      "channel": 4,
      "note": 77,
      "start": 35.7448,
      "duration": 0.0141,
      "velocity": 97,
      "chip": "ym2612"
    },
    {
      "channel": 3,
      "note": 80,
      "start": 35.746,
      "duration": 0.014,
      "velocity": 97,
      "chip": "ym2612"
    },
    {
      "channel": 2,
      "note": 49,
      "start": 35.7471,
      "duration": 0.014,
      "velocity": 100,
      "chip": "ym2612"
    },
    {
      "channel": 1,
      "note": 37,
      "start": 35.7482,
      "duration": 0.0141,
      "velocity": 100,
      "chip": "ym2612"
    },
    {
      "channel": 0,
      "note": 40,
      "start": 35.7576,
      "duration": 0.0185,
      "velocity": 115,
      "chip": "ym2612"
    },
    {
      "channel": 4,
      "note": 77,
      "start": 35.7588,
      "duration": 0.0185,
      "velocity": 97,
      "chip": "ym2612"
    },
    {
      "channel": 3,
      "note": 80,
      "start": 35.76,
      "duration": 0.0185,
      "velocity": 97,
      "chip": "ym2612"
    },
    {
      "channel": 0,
      "note": 41,
      "start": 35.7761,
      "duration": 0.0161,
      "velocity": 115,
      "chip": "ym2612"
    },
    {
      "channel": 4,
      "note": 77,
      "start": 35.7773,
      "duration": 0.0161,
      "velocity": 97,
      "chip": "ym2612"
    },
    {
      "channel": 3,
      "note": 80,
      "start": 35.7785,
      "duration": 0.0162,
      "velocity": 97,
      "chip": "ym2612"
    },
    {
      "channel": 0,
      "note": 41,
      "start": 35.7923,
      "duration": 0.0133,
      "velocity": 115,
      "chip": "ym2612"
    },
    {
      "channel": 4,
      "note": 77,
      "start": 35.7935,
      "duration": 0.0157,
      "velocity": 97,
      "chip": "ym2612"
    },
    {
      "channel": 3,
      "note": 80,
      "start": 35.7946,
      "duration": 0.0157,
      "velocity": 97,
      "chip": "ym2612"
    },
    {
      "channel": 2,
      "note": 56,
      "start": 35.7961,
      "duration": 0.0155,
      "velocity": 100,
      "chip": "ym2612"
    },
    {
      "channel": 1,
      "note": 44,
      "start": 35.7974,
      "duration": 0.0153,
      "velocity": 100,
      "chip": "ym2612"
    },
    {
      "channel": 0,
      "note": 42,
      "start": 35.8056,
      "duration": 0.0162,
      "velocity": 115,
      "chip": "ym2612"
    },
    {
      "channel": 4,
      "note": 77,
      "start": 35.8092,
      "duration": 0.014,
      "velocity": 97,
      "chip": "ym2612"
    },
    {
      "channel": 3,
      "note": 80,
      "start": 35.8104,
      "duration": 0.0141,
      "velocity": 97,
      "chip": "ym2612"
    },
    {
      "channel": 2,
      "note": 56,
      "start": 35.8116,
      "duration": 0.014,
      "velocity": 100,
      "chip": "ym2612"
    },
    {
      "channel": 1,
      "note": 44,
      "start": 35.8128,
      "duration": 0.0139,
      "velocity": 100,
      "chip": "ym2612"
    },
    {
      "channel": 0,
      "note": 42,
      "start": 35.8217,
      "duration": 0.0161,
      "velocity": 115,
      "chip": "ym2612"
    },
    {
      "channel": 4,
      "note": 77,
      "start": 35.8232,
      "duration": 0.0159,
      "velocity": 97,
      "chip": "ym2612"
    },
    {
      "channel": 3,
      "note": 80,
      "start": 35.8244,
      "duration": 0.0185,
      "velocity": 97,
      "chip": "ym2612"
    },
    {
      "channel": 2,
      "note": 56,
      "start": 35.8256,
      "duration": 0.0185,
      "velocity": 100,
      "chip": "ym2612"
    },
    {
      "channel": 1,
      "note": 44,
      "start": 35.8266,
      "duration": 0.0186,
      "velocity": 100,
      "chip": "ym2612"
    },
    {
      "channel": 0,
      "note": 43,
      "start": 35.8378,
      "duration": 0.0161,
      "velocity": 115,
      "chip": "ym2612"
    },
    {
      "channel": 4,
      "note": 77,
      "start": 35.839,
      "duration": 0.0161,
      "velocity": 97,
      "chip": "ym2612"
    },
    {
      "channel": 3,
      "note": 80,
      "start": 35.8429,
      "duration": 0.0162,
      "velocity": 97,
      "chip": "ym2612"
    },
    {
      "channel": 2,
      "note": 56,
      "start": 35.8441,
      "duration": 0.0161,
      "velocity": 100,
      "chip": "ym2612"
    },
    {
      "channel": 1,
      "note": 44,
      "start": 35.8452,
      "duration": 0.0161,
      "velocity": 100,
      "chip": "ym2612"
    },
    {
      "channel": 0,
      "note": 43,
      "start": 35.8539,
      "duration": 0.0161,
      "velocity": 115,
      "chip": "ym2612"
    },
    {
      "channel": 4,
      "note": 77,
      "start": 35.8551,
      "duration": 0.0161,
      "velocity": 97,
      "chip": "ym2612"
    },
    {
      "channel": 3,
      "note": 80,
      "start": 35.8591,
      "duration": 0.0133,
      "velocity": 97,
      "chip": "ym2612"
    },
    {
      "channel": 2,
      "note": 56,
      "start": 35.8602,
      "duration": 0.0157,
      "velocity": 100,
      "chip": "ym2612"
    },
    {
      "channel": 1,
      "note": 44,
      "start": 35.8613,
      "duration": 0.0157,
      "velocity": 100,
      "chip": "ym2612"
    },
    {
      "channel": 0,
      "note": 44,
      "start": 35.87,
      "duration": 0.0161,
      "velocity": 115,
      "chip": "ym2612"
    },
    {
      "channel": 4,
      "note": 77,
      "start": 35.8712,
      "duration": 0.0161,
      "velocity": 97,
      "chip": "ym2612"
    },
    {
      "channel": 3,
      "note": 80,
      "start": 35.8724,
      "duration": 0.0161,
      "velocity": 97,
      "chip": "ym2612"
    },
    {
      "channel": 2,
      "note": 56,
      "start": 35.8759,
      "duration": 0.0141,
      "velocity": 100,
      "chip": "ym2612"
    },
    {
      "channel": 1,
      "note": 44,
      "start": 35.877,
      "duration": 0.0141,
      "velocity": 100,
      "chip": "ym2612"
    },
    {
      "channel": 0,
      "note": 44,
      "start": 35.8861,
      "duration": 0.0161,
      "velocity": 115,
      "chip": "ym2612"
    },
    {
      "channel": 4,
      "note": 77,
      "start": 35.8873,
      "duration": 0.0161,
      "velocity": 97,
      "chip": "ym2612"
    },
    {
      "channel": 3,
      "note": 80,
      "start": 35.8885,
      "duration": 0.0161,
      "velocity": 97,
      "chip": "ym2612"
    },
    {
      "channel": 2,
      "note": 56,
      "start": 35.8899,
      "duration": 0.0158,
      "velocity": 100,
      "chip": "ym2612"
    },
    {
      "channel": 1,
      "note": 44,
      "start": 35.8911,
      "duration": 0.0185,
      "velocity": 100,
      "chip": "ym2612"
    },
    {
      "channel": 0,
      "note": 44,
      "start": 35.9022,
      "duration": 0.0161,
      "velocity": 115,
      "chip": "ym2612"
    },
    {
      "channel": 4,
      "note": 77,
      "start": 35.9034,
      "duration": 0.0161,
      "velocity": 97,
      "chip": "ym2612"
    },
    {
      "channel": 3,
      "note": 80,
      "start": 35.9046,
      "duration": 0.0161,
      "velocity": 97,
      "chip": "ym2612"
    },
    {
      "channel": 2,
      "note": 56,
      "start": 35.9057,
      "duration": 0.0162,
      "velocity": 100,
      "chip": "ym2612"
    },
    {
      "channel": 1,
      "note": 44,
      "start": 35.9096,
      "duration": 0.0162,
      "velocity": 100,
      "chip": "ym2612"
    },
    {
      "channel": 0,
      "note": 45,
      "start": 35.9183,
      "duration": 0.0161,
      "velocity": 115,
      "chip": "ym2612"
    },
    {
      "channel": 4,
      "note": 77,
      "start": 35.9195,
      "duration": 0.0161,
      "velocity": 97,
      "chip": "ym2612"
    },
    {
      "channel": 3,
      "note": 80,
      "start": 35.9207,
      "duration": 0.016,
      "velocity": 97,
      "chip": "ym2612"
    },
    {
      "channel": 2,
      "note": 56,
      "start": 35.9219,
      "duration": 0.016,
      "velocity": 100,
      "chip": "ym2612"
    },
    {
      "channel": 1,
      "note": 44,
      "start": 35.9258,
      "duration": 0.0133,
      "velocity": 100,
      "chip": "ym2612"
    },
    {
      "channel": 0,
      "note": 45,
      "start": 35.9344,
      "duration": 0.0162,
      "velocity": 115,
      "chip": "ym2612"
    },
    {
      "channel": 4,
      "note": 77,
      "start": 35.9356,
      "duration": 0.0161,
      "velocity": 97,
      "chip": "ym2612"
    },
    {
      "channel": 3,
      "note": 80,
      "start": 35.9368,
      "duration": 0.0162,
      "velocity": 97,
      "chip": "ym2612"
    },
    {
      "channel": 2,
      "note": 56,
      "start": 35.9379,
      "duration": 0.0161,
      "velocity": 100,
      "chip": "ym2612"
    },
    {
      "channel": 1,
      "note": 44,
      "start": 35.939,
      "duration": 0.0162,
      "velocity": 100,
      "chip": "ym2612"
    },
    {
      "channel": 0,
      "note": 46,
      "start": 35.9506,
      "duration": 0.016,
      "velocity": 115,
      "chip": "ym2612"
    },
    {
      "channel": 4,
      "note": 77,
      "start": 35.9517,
      "duration": 0.0161,
      "velocity": 97,
      "chip": "ym2612"
    },
    {
      "channel": 3,
      "note": 80,
      "start": 35.9529,
      "duration": 0.0161,
      "velocity": 97,
      "chip": "ym2612"
    },
    {
      "channel": 0,
      "note": 46,
      "start": 35.9666,
      "duration": 0.0196,
      "velocity": 115,
      "chip": "ym2612"
    },
    {
      "channel": 4,
      "note": 77,
      "start": 35.9678,
      "duration": 0.0196,
      "velocity": 97,
      "chip": "ym2612"
    },
    {
      "channel": 3,
      "note": 80,
      "start": 35.969,
      "duration": 0.0195,
      "velocity": 97,
      "chip": "ym2612"
    },
    {
      "channel": 1,
      "note": 78,
      "start": 35.9845,
      "duration": 0.0144,
      "velocity": 124,
      "chip": "ym2612"
    },
    {
      "channel": 0,
      "note": 47,
      "start": 35.9862,
      "duration": 0.0144,
      "velocity": 115,
      "chip": "ym2612"
    },
    {
      "channel": 4,
      "note": 77,
      "start": 35.9874,
      "duration": 0.0144,
      "velocity": 97,
      "chip": "ym2612"
    },
    {
      "channel": 3,
      "note": 80,
      "start": 35.9885,
      "duration": 0.0144,
      "velocity": 97,
      "chip": "ym2612"
    },
    {
      "channel": 2,
      "note": 61,
      "start": 35.9927,
      "duration": 0.0115,
      "velocity": 100,
      "chip": "ym2612"
    },
    {
      "channel": 1,
      "note": 76,
      "start": 35.9988,
      "duration": 0.016,
      "velocity": 124,
      "chip": "ym2612"
    },
    {
      "channel": 0,
      "note": 47,
      "start": 36.0006,
      "duration": 0.016,
      "velocity": 115,
      "chip": "ym2612"
    },
    {
      "channel": 4,
      "note": 77,
      "start": 36.0018,
      "duration": 0.016,
      "velocity": 97,
      "chip": "ym2612"
    },
    {
      "channel": 3,
      "note": 80,
      "start": 36.0029,
      "duration": 0.016,
      "velocity": 97,
      "chip": "ym2612"
    },
    {
      "channel": 2,
      "note": 61,
      "start": 36.0041,
      "duration": 0.016,
      "velocity": 100,
      "chip": "ym2612"
    },
    {
      "channel": 1,
      "note": 75,
      "start": 36.0149,
      "duration": 0.0161,
      "velocity": 124,
      "chip": "ym2612"
    },
    {
      "channel": 0,
      "note": 47,
      "start": 36.0166,
      "duration": 0.0161,
      "velocity": 115,
      "chip": "ym2612"
    },
    {
      "channel": 4,
      "note": 77,
      "start": 36.0178,
      "duration": 0.0161,
      "velocity": 97,
      "chip": "ym2612"
    },
    {
      "channel": 3,
      "note": 80,
      "start": 36.019,
      "duration": 0.0161,
      "velocity": 97,
      "chip": "ym2612"
    },
    {
      "channel": 2,
      "note": 61,
      "start": 36.0201,
      "duration": 0.0161,
      "velocity": 100,
      "chip": "ym2612"
    },
    {
      "channel": 1,
      "note": 74,
      "start": 36.031,
      "duration": 0.0161,
      "velocity": 124,
      "chip": "ym2612"
    },
    {
      "channel": 0,
      "note": 48,
      "start": 36.0327,
      "duration": 0.0161,
      "velocity": 115,
      "chip": "ym2612"
    },
    {
      "channel": 4,
      "note": 77,
      "start": 36.0339,
      "duration": 0.0161,
      "velocity": 97,
      "chip": "ym2612"
    },
    {
      "channel": 3,
      "note": 80,
      "start": 36.035,
      "duration": 0.0162,
      "velocity": 97,
      "chip": "ym2612"
    },
    {
      "channel": 2,
      "note": 61,
      "start": 36.0362,
      "duration": 0.0161,
      "velocity": 100,
      "chip": "ym2612"
    },
    {
      "channel": 1,
      "note": 72,
      "start": 36.0471,
      "duration": 0.0161,
      "velocity": 124,
      "chip": "ym2612"
    },
    {
      "channel": 0,
      "note": 48,
      "start": 36.0488,
      "duration": 0.0161,
      "velocity": 115,
      "chip": "ym2612"
    },
    {
      "channel": 4,
      "note": 77,
      "start": 36.05,
      "duration": 0.0161,
      "velocity": 97,
      "chip": "ym2612"
    },
    {
      "channel": 3,
      "note": 80,
      "start": 36.0512,
      "duration": 0.016,
      "velocity": 97,
      "chip": "ym2612"
    },
    {
      "channel": 2,
      "note": 61,
      "start": 36.0523,
      "duration": 0.016,
      "velocity": 100,
      "chip": "ym2612"
    },
    {
      "channel": 1,
      "note": 71,
      "start": 36.0632,
      "duration": 0.0161,
      "velocity": 124,
      "chip": "ym2612"
    },
    {
      "channel": 0,
      "note": 49,
      "start": 36.0649,
      "duration": 0.0153,
      "velocity": 1,
      "chip": "ym2612"
    },
    {
      "channel": 4,
      "note": 77,
      "start": 36.0661,
      "duration": 0.0153,
      "velocity": 97,
      "chip": "ym2612"
    },
    {
      "channel": 3,
      "note": 80,
      "start": 36.0672,
      "duration": 0.0153,
      "velocity": 97,
      "chip": "ym2612"
    },
    {
      "channel": 2,
      "note": 61,
      "start": 36.0684,
      "duration": 0.0153,
      "velocity": 100,
      "chip": "ym2612"
    },
    {
      "channel": 1,
      "note": 70,
      "start": 36.0793,
      "duration": 0.0161,
      "velocity": 124,
      "chip": "ym2612"
    },
    {
      "channel": 4,
      "note": 77,
      "start": 36.0814,
      "duration": 0.0153,
      "velocity": 97,
      "chip": "ym2612"
    },
    {
      "channel": 3,
      "note": 80,
      "start": 36.0826,
      "duration": 0.0153,
      "velocity": 97,
      "chip": "ym2612"
    },
    {
      "channel": 2,
      "note": 61,
      "start": 36.0837,
      "duration": 0.0153,
      "velocity": 100,
      "chip": "ym2612"
    },
    {
      "channel": 1,
      "note": 69,
      "start": 36.0954,
      "duration": 0.0161,
      "velocity": 124,
      "chip": "ym2612"
    },
    {
      "channel": 4,
      "note": 77,
      "start": 36.0966,
      "duration": 0.0161,
      "velocity": 97,
      "chip": "ym2612"
    },
    {
      "channel": 3,
      "note": 80,
      "start": 36.0978,
      "duration": 0.0161,
      "velocity": 97,
      "chip": "ym2612"
    },
    {
      "channel": 2,
      "note": 61,
      "start": 36.099,
      "duration": 0.0161,
      "velocity": 100,
      "chip": "ym2612"
    },
    {
      "channel": 1,
      "note": 68,
      "start": 36.1114,
      "duration": 0.0161,
      "velocity": 124,
      "chip": "ym2612"
    },
    {
      "channel": 4,
      "note": 77,
      "start": 36.1128,
      "duration": 0.0161,
      "velocity": 97,
      "chip": "ym2612"
    },
    {
      "channel": 3,
      "note": 80,
      "start": 36.1139,
      "duration": 0.0161,
      "velocity": 97,
      "chip": "ym2612"
    },
    {
      "channel": 2,
      "note": 61,
      "start": 36.1151,
      "duration": 0.0161,
      "velocity": 100,
      "chip": "ym2612"
    },
    {
      "channel": 1,
      "note": 66,
      "start": 36.1275,
      "duration": 0.0162,
      "velocity": 124,
      "chip": "ym2612"
    },
    {
      "channel": 4,
      "note": 77,
      "start": 36.1289,
      "duration": 0.0161,
      "velocity": 97,
      "chip": "ym2612"
    },
    {
      "channel": 3,
      "note": 80,
      "start": 36.13,
      "duration": 0.0161,
      "velocity": 97,
      "chip": "ym2612"
    },
    {
      "channel": 2,
      "note": 61,
      "start": 36.1312,
      "duration": 0.0161,
      "velocity": 100,
      "chip": "ym2612"
    },
    {
      "channel": 1,
      "note": 65,
      "start": 36.1437,
      "duration": 0.0161,
      "velocity": 124,
      "chip": "ym2612"
    },
    {
      "channel": 4,
      "note": 77,
      "start": 36.145,
      "duration": 0.0161,
      "velocity": 97,
      "chip": "ym2612"
    },
    {
      "channel": 3,
      "note": 80,
      "start": 36.1461,
      "duration": 0.0161,
      "velocity": 97,
      "chip": "ym2612"
    },
    {
      "channel": 1,
      "note": 64,
      "start": 36.1598,
      "duration": 0.0174,
      "velocity": 124,
      "chip": "ym2612"
    },
    {
      "channel": 4,
      "note": 77,
      "start": 36.1611,
      "duration": 0.0175,
      "velocity": 97,
      "chip": "ym2612"
    },
    {
      "channel": 3,
      "note": 80,
      "start": 36.1622,
      "duration": 0.0176,
      "velocity": 97,
      "chip": "ym2612"
    },
    {
      "channel": 1,
      "note": 62,
      "start": 36.1772,
      "duration": 0.0167,
      "velocity": 124,
      "chip": "ym2612"
    },
    {
      "channel": 4,
      "note": 77,
      "start": 36.1785,
      "duration": 0.0167,
      "velocity": 97,
      "chip": "ym2612"
    },
    {
      "channel": 3,
      "note": 80,
      "start": 36.1798,
      "duration": 0.0166,
      "velocity": 97,
      "chip": "ym2612"
    },
    {
      "channel": 2,
      "note": 59,
      "start": 36.1811,
      "duration": 0.0165,
      "velocity": 100,
      "chip": "ym2612"
    },
    {
      "channel": 1,
      "note": 61,
      "start": 36.1939,
      "duration": 0.0163,
      "velocity": 124,
      "chip": "ym2612"
    },
    {
      "channel": 4,
      "note": 77,
      "start": 36.1952,
      "duration": 0.0163,
      "velocity": 97,
      "chip": "ym2612"
    },
    {
      "channel": 3,
      "note": 80,
      "start": 36.1964,
      "duration": 0.0163,
      "velocity": 97,
      "chip": "ym2612"
    },
    {
      "channel": 2,
      "note": 59,
      "start": 36.1976,
      "duration": 0.0162,
      "velocity": 100,
      "chip": "ym2612"
    },
    {
      "channel": 1,
      "note": 60,
      "start": 36.2102,
      "duration": 0.0143,
      "velocity": 124,
      "chip": "ym2612"
    },
    {
      "channel": 4,
      "note": 77,
      "start": 36.2115,
      "duration": 0.0143,
      "velocity": 97,
      "chip": "ym2612"
    },
    {
      "channel": 3,
      "note": 80,
      "start": 36.2127,
      "duration": 0.0143,
      "velocity": 97,
      "chip": "ym2612"
    },
    {
      "channel": 2,
      "note": 59,
      "start": 36.2138,
      "duration": 0.0143,
      "velocity": 100,
      "chip": "ym2612"
    },
    {
      "channel": 1,
      "note": 59,
      "start": 36.2245,
      "duration": 0.0186,
      "velocity": 124,
      "chip": "ym2612"
    },
    {
      "channel": 4,
      "note": 77,
      "start": 36.2258,
      "duration": 0.0186,
      "velocity": 97,
      "chip": "ym2612"
    },
    {
      "channel": 3,
      "note": 80,
      "start": 36.227,
      "duration": 0.0185,
      "velocity": 97,
      "chip": "ym2612"
    },
    {
      "channel": 2,
      "note": 59,
      "start": 36.228,
      "duration": 0.0186,
      "velocity": 100,
      "chip": "ym2612"
    },
    {
      "channel": 1,
      "note": 57,
      "start": 36.2431,
      "duration": 0.0161,
      "velocity": 124,
      "chip": "ym2612"
    },
    {
      "channel": 4,
      "note": 77,
      "start": 36.2443,
      "duration": 0.0161,
      "velocity": 97,
      "chip": "ym2612"
    },
    {
      "channel": 3,
      "note": 80,
      "start": 36.2455,
      "duration": 0.0161,
      "velocity": 97,
      "chip": "ym2612"
    },
    {
      "channel": 2,
      "note": 59,
      "start": 36.2466,
      "duration": 0.0161,
      "velocity": 100,
      "chip": "ym2612"
    },
    {
      "channel": 1,
      "note": 56,
      "start": 36.2591,
      "duration": 0.0133,
      "velocity": 124,
      "chip": "ym2612"
    },
    {
      "channel": 4,
      "note": 77,
      "start": 36.2604,
      "duration": 0.0157,
      "velocity": 97,
      "chip": "ym2612"
    },
    {
      "channel": 3,
      "note": 80,
      "start": 36.2616,
      "duration": 0.0157,
      "velocity": 97,
      "chip": "ym2612"
    },
    {
      "channel": 2,
      "note": 59,
      "start": 36.2627,
      "duration": 0.0157,
      "velocity": 100,
      "chip": "ym2612"
    },
    {
      "channel": 1,
      "note": 55,
      "start": 36.2724,
      "duration": 0.0161,
      "velocity": 124,
      "chip": "ym2612"
    },
    {
      "channel": 4,
      "note": 77,
      "start": 36.2761,
      "duration": 0.0141,
      "velocity": 97,
      "chip": "ym2612"
    },
    {
      "channel": 3,
      "note": 80,
      "start": 36.2773,
      "duration": 0.0141,
      "velocity": 97,
      "chip": "ym2612"
    },
    {
      "channel": 2,
      "note": 59,
      "start": 36.2784,
      "duration": 0.014,
      "velocity": 100,
      "chip": "ym2612"
    },
    {
      "channel": 1,
      "note": 53,
      "start": 36.2886,
      "duration": 0.0161,
      "velocity": 124,
      "chip": "ym2612"
    },
    {
      "channel": 4,
      "note": 77,
      "start": 36.2902,
      "duration": 0.0185,
      "velocity": 97,
      "chip": "ym2612"
    },
    {
      "channel": 3,
      "note": 80,
      "start": 36.2913,
      "duration": 0.0186,
      "velocity": 97,
      "chip": "ym2612"
    },
    {
      "channel": 2,
      "note": 59,
      "start": 36.2925,
      "duration": 0.0186,
      "velocity": 100,
      "chip": "ym2612"
    },
    {
      "channel": 1,
      "note": 52,
      "start": 36.3047,
      "duration": 0.0161,
      "velocity": 124,
      "chip": "ym2612"
    },
    {
      "channel": 4,
      "note": 77,
      "start": 36.3087,
      "duration": 0.0134,
      "velocity": 97,
      "chip": "ym2612"
    },
    {
      "channel": 3,
      "note": 80,
      "start": 36.3099,
      "duration": 0.0161,
      "velocity": 97,
      "chip": "ym2612"
    },
    {
      "channel": 2,
      "note": 59,
      "start": 36.3111,
      "duration": 0.0161,
      "velocity": 100,
      "chip": "ym2612"
    },
    {
      "channel": 1,
      "note": 51,
      "start": 36.3208,
      "duration": 0.0153,
      "velocity": 1,
      "chip": "ym2612"
    },
    {
      "channel": 4,
      "note": 77,
      "start": 36.3221,
      "duration": 0.0153,
      "velocity": 97,
      "chip": "ym2612"
    },
    {
      "channel": 3,
      "note": 80,
      "start": 36.326,
      "duration": 0.0125,
      "velocity": 97,
      "chip": "ym2612"
    },
    {
      "channel": 2,
      "note": 59,
      "start": 36.3271,
      "duration": 0.0149,
      "velocity": 100,
      "chip": "ym2612"
    },
    {
      "channel": 4,
      "note": 77,
      "start": 36.3373,
      "duration": 0.0153,
      "velocity": 97,
      "chip": "ym2612"
    },
    {
      "channel": 3,
      "note": 80,
      "start": 36.3385,
      "duration": 0.0153,
      "velocity": 97,
      "chip": "ym2612"
    },
    {
      "channel": 4,
      "note": 77,
      "start": 36.3526,
      "duration": 0.0195,
      "velocity": 97,
      "chip": "ym2612"
    },
    {
      "channel": 3,
      "note": 80,
      "start": 36.3537,
      "duration": 0.0223,
      "velocity": 97,
      "chip": "ym2612"
    },
    {
      "channel": 1,
      "note": 78,
      "start": 36.3709,
      "duration": 0.0144,
      "velocity": 124,
      "chip": "ym2612"
    },
    {
      "channel": 4,
      "note": 77,
      "start": 36.3721,
      "duration": 0.0144,
      "velocity": 97,
      "chip": "ym2612"
    },
    {
      "channel": 3,
      "note": 80,
      "start": 36.3761,
      "duration": 0.0116,
      "velocity": 97,
      "chip": "ym2612"
    },
    {
      "channel": 1,
      "note": 76,
      "start": 36.3852,
      "duration": 0.016,
      "velocity": 124,
      "chip": "ym2612"
    },
    {
      "channel": 4,
      "note": 77,
      "start": 36.3865,
      "duration": 0.0161,
      "velocity": 97,
      "chip": "ym2612"
    },
    {
      "channel": 3,
      "note": 80,
      "start": 36.3876,
      "duration": 0.0161,
      "velocity": 97,
      "chip": "ym2612"
    },
    {
      "channel": 1,
      "note": 75,
      "start": 36.4013,
      "duration": 0.0161,
      "velocity": 124,
      "chip": "ym2612"
    },
    {
      "channel": 4,
      "note": 77,
      "start": 36.4026,
      "duration": 0.0161,
      "velocity": 97,
      "chip": "ym2612"
    },
    {
      "channel": 3,
      "note": 80,
      "start": 36.4037,
      "duration": 0.0161,
      "velocity": 97,
      "chip": "ym2612"
    },
    {
      "channel": 1,
      "note": 74,
      "start": 36.4173,
      "duration": 0.0162,
      "velocity": 124,
      "chip": "ym2612"
    },
    {
      "channel": 4,
      "note": 77,
      "start": 36.4187,
      "duration": 0.0161,
      "velocity": 97,
      "chip": "ym2612"
    },
    {
      "channel": 3,
      "note": 80,
      "start": 36.4198,
      "duration": 0.0161,
      "velocity": 97,
      "chip": "ym2612"
    },
    {
      "channel": 1,
      "note": 72,
      "start": 36.4335,
      "duration": 0.0161,
      "velocity": 124,
      "chip": "ym2612"
    },
    {
      "channel": 4,
      "note": 77,
      "start": 36.4348,
      "duration": 0.0161,
      "velocity": 97,
      "chip": "ym2612"
    },
    {
      "channel": 3,
      "note": 80,
      "start": 36.436,
      "duration": 0.016,
      "velocity": 97,
      "chip": "ym2612"
    },
    {
      "channel": 1,
      "note": 71,
      "start": 36.4496,
      "duration": 0.0178,
      "velocity": 124,
      "chip": "ym2612"
    },
    {
      "channel": 4,
      "note": 77,
      "start": 36.4509,
      "duration": 0.0179,
      "velocity": 97,
      "chip": "ym2612"
    },
    {
      "channel": 3,
      "note": 80,
      "start": 36.452,
      "duration": 0.0179,
      "velocity": 97,
      "chip": "ym2612"
    },
    {
      "channel": 1,
      "note": 78,
      "start": 36.4675,
      "duration": 0.0144,
      "velocity": 124,
      "chip": "ym2612"
    },
    {
      "channel": 4,
      "note": 77,
      "start": 36.4688,
      "duration": 0.0144,
      "velocity": 97,
      "chip": "ym2612"
    },
    {
      "channel": 3,
      "note": 80,
      "start": 36.4699,
      "duration": 0.0144,
      "velocity": 97,
      "chip": "ym2612"
    },
    {
      "channel": 1,
      "note": 76,
      "start": 36.4819,
      "duration": 0.016,
      "velocity": 124,
      "chip": "ym2612"
    },
    {
      "channel": 4,
      "note": 77,
      "start": 36.4831,
      "duration": 0.016,
      "velocity": 97,
      "chip": "ym2612"
    },
    {
      "channel": 3,
      "note": 80,
      "start": 36.4843,
      "duration": 0.016,
      "velocity": 97,
      "chip": "ym2612"
    },
    {
      "channel": 1,
      "note": 75,
      "start": 36.4979,
      "duration": 0.0161,
      "velocity": 124,
      "chip": "ym2612"
    },
    {
      "channel": 4,
      "note": 77,
      "start": 36.4992,
      "duration": 0.0161,
      "velocity": 97,
      "chip": "ym2612"
    },
    {
      "channel": 3,
      "note": 80,
      "start": 36.5003,
      "duration": 0.0161,
      "velocity": 97,
      "chip": "ym2612"
    },
    {
      "channel": 1,
      "note": 74,
      "start": 36.514,
      "duration": 0.0161,
      "velocity": 124,
      "chip": "ym2612"
    },
    {
      "channel": 4,
      "note": 77,
      "start": 36.5153,
      "duration": 0.0161,
      "velocity": 97,
      "chip": "ym2612"
    },
    {
      "channel": 3,
      "note": 80,
      "start": 36.5164,
      "duration": 0.0161,
      "velocity": 97,
      "chip": "ym2612"
    },
    {
      "channel": 1,
      "note": 72,
      "start": 36.5301,
      "duration": 0.0161,
      "velocity": 124,
      "chip": "ym2612"
    },
    {
      "channel": 4,
      "note": 77,
      "start": 36.5314,
      "duration": 0.0161,
      "velocity": 97,
      "chip": "ym2612"
    },
    {
      "channel": 3,
      "note": 80,
      "start": 36.5325,
      "duration": 0.0162,
      "velocity": 97,
      "chip": "ym2612"
    },
    {
      "channel": 1,
      "note": 71,
      "start": 36.5462,
      "duration": 0.0179,
      "velocity": 124,
      "chip": "ym2612"
    },
    {
      "channel": 4,
      "note": 77,
      "start": 36.5474,
      "duration": 0.0179,
      "velocity": 97,
      "chip": "ym2612"
    },
    {
      "channel": 3,
      "note": 80,
      "start": 36.5487,
      "duration": 0.0179,
      "velocity": 97,
      "chip": "ym2612"
    },
    {
      "channel": 1,
      "note": 78,
      "start": 36.5641,
      "duration": 0.0144,
      "velocity": 124,
      "chip": "ym2612"
    },
    {
      "channel": 4,
      "note": 77,
      "start": 36.5654,
      "duration": 0.0144,
      "velocity": 97,
      "chip": "ym2612"
    },
    {
      "channel": 3,
      "note": 80,
      "start": 36.5666,
      "duration": 0.0143,
      "velocity": 97,
      "chip": "ym2612"
    },
    {
      "channel": 2,
      "note": 61,
      "start": 36.5679,
      "duration": 0.0142,
      "velocity": 100,
      "chip": "ym2612"
    },
    {
      "channel": 1,
      "note": 76,
      "start": 36.5785,
      "duration": 0.016,
      "velocity": 124,
      "chip": "ym2612"
    },
    {
      "channel": 4,
      "note": 77,
      "start": 36.5798,
      "duration": 0.016,
      "velocity": 97,
      "chip": "ym2612"
    },
    {
      "channel": 3,
      "note": 80,
      "start": 36.5809,
      "duration": 0.016,
      "velocity": 97,
      "chip": "ym2612"
    },
    {
      "channel": 2,
      "note": 61,
      "start": 36.5821,
      "duration": 0.016,
      "velocity": 100,
      "chip": "ym2612"
    },
    {
      "channel": 1,
      "note": 75,
      "start": 36.5945,
      "duration": 0.0161,
      "velocity": 124,
      "chip": "ym2612"
    },
    {
      "channel": 4,
      "note": 77,
      "start": 36.5958,
      "duration": 0.0161,
      "velocity": 97,
      "chip": "ym2612"
    },
    {
      "channel": 3,
      "note": 80,
      "start": 36.5969,
      "duration": 0.0161,
      "velocity": 97,
      "chip": "ym2612"
    },
    {
      "channel": 2,
      "note": 61,
      "start": 36.5981,
      "duration": 0.0161,
      "velocity": 100,
      "chip": "ym2612"
    },
    {
      "channel": 1,
      "note": 74,
      "start": 36.6106,
      "duration": 0.0161,
      "velocity": 124,
      "chip": "ym2612"
    },
    {
      "channel": 4,
      "note": 77,
      "start": 36.6119,
      "duration": 0.0161,
      "velocity": 97,
      "chip": "ym2612"
    },
    {
      "channel": 3,
      "note": 80,
      "start": 36.613,
      "duration": 0.0161,
      "velocity": 97,
      "chip": "ym2612"
    },
    {
      "channel": 2,
      "note": 61,
      "start": 36.6142,
      "duration": 0.0161,
      "velocity": 100,
      "chip": "ym2612"
    },
    {
      "channel": 1,
      "note": 72,
      "start": 36.6267,
      "duration": 0.0172,
      "velocity": 124,
      "chip": "ym2612"
    },
    {
      "channel": 4,
      "note": 77,
      "start": 36.628,
      "duration": 0.0172,
      "velocity": 97,
      "chip": "ym2612"
    },
    {
      "channel": 3,
      "note": 80,
      "start": 36.6291,
      "duration": 0.0173,
      "velocity": 97,
      "chip": "ym2612"
    },
    {
      "channel": 2,
      "note": 61,
      "start": 36.6303,
      "duration": 0.0172,
      "velocity": 100,
      "chip": "ym2612"
    },
    {
      "channel": 1,
      "note": 71,
      "start": 36.6439,
      "duration": 0.0167,
      "velocity": 124,
      "chip": "ym2612"
    },
    {
      "channel": 4,
      "note": 77,
      "start": 36.6451,
      "duration": 0.0167,
      "velocity": 97,
      "chip": "ym2612"
    },
    {
      "channel": 3,
      "note": 80,
      "start": 36.6464,
      "duration": 0.0167,
      "velocity": 97,
      "chip": "ym2612"
    },
    {
      "channel": 2,
      "note": 61,
      "start": 36.6475,
      "duration": 0.0167,
      "velocity": 100,
      "chip": "ym2612"
    },
    {
      "channel": 1,
      "note": 70,
      "start": 36.6605,
      "duration": 0.0163,
      "velocity": 124,
      "chip": "ym2612"
    },
    {
      "channel": 4,
      "note": 77,
      "start": 36.6619,
      "duration": 0.0163,
      "velocity": 97,
      "chip": "ym2612"
    },
    {
      "channel": 3,
      "note": 80,
      "start": 36.663,
      "duration": 0.0163,
      "velocity": 97,
      "chip": "ym2612"
    },
    {
      "channel": 2,
      "note": 61,
      "start": 36.6642,
      "duration": 0.0163,
      "velocity": 100,
      "chip": "ym2612"
    },
    {
      "channel": 1,
      "note": 69,
      "start": 36.6769,
      "duration": 0.0145,
      "velocity": 124,
      "chip": "ym2612"
    },
    {
      "channel": 4,
      "note": 77,
      "start": 36.6782,
      "duration": 0.0146,
      "velocity": 97,
      "chip": "ym2612"
    },
    {
      "channel": 3,
      "note": 80,
      "start": 36.6793,
      "duration": 0.0146,
      "velocity": 97,
      "chip": "ym2612"
    },
    {
      "channel": 2,
      "note": 61,
      "start": 36.6805,
      "duration": 0.0146,
      "velocity": 100,
      "chip": "ym2612"
    },
    {
      "channel": 1,
      "note": 68,
      "start": 36.6914,
      "duration": 0.0186,
      "velocity": 124,
      "chip": "ym2612"
    },
    {
      "channel": 4,
      "note": 77,
      "start": 36.6927,
      "duration": 0.0185,
      "velocity": 97,
      "chip": "ym2612"
    },
    {
      "channel": 3,
      "note": 80,
      "start": 36.6939,
      "duration": 0.0185,
      "velocity": 97,
      "chip": "ym2612"
    },
    {
      "channel": 2,
      "note": 61,
      "start": 36.695,
      "duration": 0.0185,
      "velocity": 100,
      "chip": "ym2612"
    },
    {
      "channel": 1,
      "note": 66,
      "start": 36.71,
      "duration": 0.0161,
      "velocity": 124,
      "chip": "ym2612"
    },
    {
      "channel": 4,
      "note": 77,
      "start": 36.7112,
      "duration": 0.0161,
      "velocity": 97,
      "chip": "ym2612"
    },
    {
      "channel": 3,
      "note": 80,
      "start": 36.7124,
      "duration": 0.0161,
      "velocity": 97,
      "chip": "ym2612"
    },
    {
      "channel": 2,
      "note": 61,
      "start": 36.7135,
      "duration": 0.0161,
      "velocity": 100,
      "chip": "ym2612"
    },
    {
      "channel": 1,
      "note": 65,
      "start": 36.7261,
      "duration": 0.0157,
      "velocity": 124,
      "chip": "ym2612"
    },
    {
      "channel": 4,
      "note": 77,
      "start": 36.7273,
      "duration": 0.0157,
      "velocity": 97,
      "chip": "ym2612"
    },
    {
      "channel": 3,
      "note": 80,
      "start": 36.7285,
      "duration": 0.0158,
      "velocity": 97,
      "chip": "ym2612"
    },
    {
      "channel": 1,
      "note": 64,
      "start": 36.7418,
      "duration": 0.0158,
      "velocity": 124,
      "chip": "ym2612"
    },
    {
      "channel": 4,
      "note": 77,
      "start": 36.7431,
      "duration": 0.0158,
      "velocity": 97,
      "chip": "ym2612"
    },
    {
      "channel": 3,
      "note": 80,
      "start": 36.7443,
      "duration": 0.0159,
      "velocity": 97,
      "chip": "ym2612"
    },
    {
      "channel": 1,
      "note": 78,
      "start": 36.7576,
      "duration": 0.0141,
      "velocity": 124,
      "chip": "ym2612"
    },
    {
      "channel": 4,
      "note": 77,
      "start": 36.7589,
      "duration": 0.0168,
      "velocity": 97,
      "chip": "ym2612"
    },
    {
      "channel": 3,
      "note": 80,
      "start": 36.7601,
      "duration": 0.0167,
      "velocity": 97,
      "chip": "ym2612"
    },
    {
      "channel": 2,
      "note": 59,
      "start": 36.7614,
      "duration": 0.0166,
      "velocity": 100,
      "chip": "ym2612"
    },
    {
      "channel": 1,
      "note": 76,
      "start": 36.7717,
      "duration": 0.016,
      "velocity": 124,
      "chip": "ym2612"
    },
    {
      "channel": 4,
      "note": 77,
      "start": 36.7757,
      "duration": 0.0133,
      "velocity": 97,
      "chip": "ym2612"
    },
    {
      "channel": 3,
      "note": 80,
      "start": 36.7768,
      "duration": 0.0161,
      "velocity": 97,
      "chip": "ym2612"
    },
    {
      "channel": 2,
      "note": 59,
      "start": 36.778,
      "duration": 0.016,
      "velocity": 100,
      "chip": "ym2612"
    },
    {
      "channel": 1,
      "note": 75,
      "start": 36.7877,
      "duration": 0.0161,
      "velocity": 124,
      "chip": "ym2612"
    },
    {
      "channel": 4,
      "note": 77,
      "start": 36.789,
      "duration": 0.0161,
      "velocity": 97,
      "chip": "ym2612"
    },
    {
      "channel": 3,
      "note": 80,
      "start": 36.7929,
      "duration": 0.0157,
      "velocity": 97,
      "chip": "ym2612"
    },
    {
      "channel": 2,
      "note": 59,
      "start": 36.794,
      "duration": 0.0158,
      "velocity": 100,
      "chip": "ym2612"
    },
    {
      "channel": 1,
      "note": 74,
      "start": 36.8038,
      "duration": 0.0161,
      "velocity": 124,
      "chip": "ym2612"
    },
    {
      "channel": 4,
      "note": 77,
      "start": 36.8051,
      "duration": 0.0161,
      "velocity": 97,
      "chip": "ym2612"
    },
    {
      "channel": 3,
      "note": 80,
      "start": 36.8086,
      "duration": 0.0137,
      "velocity": 97,
      "chip": "ym2612"
    },
    {
      "channel": 2,
      "note": 59,
      "start": 36.8098,
      "duration": 0.0141,
      "velocity": 100,
      "chip": "ym2612"
    },
    {
      "channel": 1,
      "note": 72,
      "start": 36.8199,
      "duration": 0.0161,
      "velocity": 124,
      "chip": "ym2612"
    },
    {
      "channel": 4,
      "note": 77,
      "start": 36.8212,
      "duration": 0.0161,
      "velocity": 97,
      "chip": "ym2612"
    },
    {
      "channel": 3,
      "note": 80,
      "start": 36.8224,
      "duration": 0.0161,
      "velocity": 97,
      "chip": "ym2612"
    },
    {
      "channel": 2,
      "note": 59,
      "start": 36.8239,
      "duration": 0.0185,
      "velocity": 100,
      "chip": "ym2612"
    },
    {
      "channel": 1,
      "note": 71,
      "start": 36.836,
      "duration": 0.0179,
      "velocity": 124,
      "chip": "ym2612"
    },
    {
      "channel": 4,
      "note": 77,
      "start": 36.8373,
      "duration": 0.018,
      "velocity": 97,
      "chip": "ym2612"
    },
    {
      "channel": 3,
      "note": 80,
      "start": 36.8385,
      "duration": 0.0206,
      "velocity": 97,
      "chip": "ym2612"
    },
    {
      "channel": 2,
      "note": 59,
      "start": 36.8424,
      "duration": 0.0179,
      "velocity": 100,
      "chip": "ym2612"
    },
    {
      "channel": 1,
      "note": 78,
      "start": 36.8539,
      "duration": 0.0143,
      "velocity": 124,
      "chip": "ym2612"
    },
    {
      "channel": 4,
      "note": 77,
      "start": 36.8552,
      "duration": 0.0143,
      "velocity": 97,
      "chip": "ym2612"
    },
    {
      "channel": 3,
      "note": 80,
      "start": 36.8591,
      "duration": 0.0116,
      "velocity": 97,
      "chip": "ym2612"
    },
    {
      "channel": 2,
      "note": 59,
      "start": 36.8602,
      "duration": 0.0117,
      "velocity": 100,
      "chip": "ym2612"
    },
    {
      "channel": 1,
      "note": 76,
      "start": 36.8683,
      "duration": 0.0161,
      "velocity": 124,
      "chip": "ym2612"
    },
    {
      "channel": 4,
      "note": 77,
      "start": 36.8695,
      "duration": 0.0161,
      "velocity": 97,
      "chip": "ym2612"
    },
    {
      "channel": 3,
      "note": 80,
      "start": 36.8707,
      "duration": 0.016,
      "velocity": 97,
      "chip": "ym2612"
    },
    {
      "channel": 2,
      "note": 59,
      "start": 36.8719,
      "duration": 0.016,
      "velocity": 100,
      "chip": "ym2612"
    },
    {
      "channel": 1,
      "note": 75,
      "start": 36.8843,
      "duration": 0.0161,
      "velocity": 124,
      "chip": "ym2612"
    },
    {
      "channel": 4,
      "note": 77,
      "start": 36.8856,
      "duration": 0.0161,
      "velocity": 97,
      "chip": "ym2612"
    },
    {
      "channel": 3,
      "note": 80,
      "start": 36.8868,
      "duration": 0.0161,
      "velocity": 97,
      "chip": "ym2612"
    },
    {
      "channel": 2,
      "note": 59,
      "start": 36.8879,
      "duration": 0.0161,
      "velocity": 100,
      "chip": "ym2612"
    },
    {
      "channel": 1,
      "note": 74,
      "start": 36.9004,
      "duration": 0.0161,
      "velocity": 124,
      "chip": "ym2612"
    },
    {
      "channel": 4,
      "note": 77,
      "start": 36.9017,
      "duration": 0.0161,
      "velocity": 97,
      "chip": "ym2612"
    },
    {
      "channel": 3,
      "note": 80,
      "start": 36.9029,
      "duration": 0.0161,
      "velocity": 97,
      "chip": "ym2612"
    },
    {
      "channel": 2,
      "note": 59,
      "start": 36.904,
      "duration": 0.0161,
      "velocity": 100,
      "chip": "ym2612"
    },
    {
      "channel": 1,
      "note": 72,
      "start": 36.9165,
      "duration": 0.0161,
      "velocity": 124,
      "chip": "ym2612"
    },
    {
      "channel": 4,
      "note": 77,
      "start": 36.9178,
      "duration": 0.0161,
      "velocity": 97,
      "chip": "ym2612"
    },
    {
      "channel": 3,
      "note": 80,
      "start": 36.919,
      "duration": 0.0161,
      "velocity": 97,
      "chip": "ym2612"
    },
    {
      "channel": 1,
      "note": 71,
      "start": 36.9326,
      "duration": 0.0179,
      "velocity": 124,
      "chip": "ym2612"
    },
    {
      "channel": 4,
      "note": 77,
      "start": 36.9339,
      "duration": 0.0179,
      "velocity": 97,
      "chip": "ym2612"
    },
    {
      "channel": 3,
      "note": 80,
      "start": 36.935,
      "duration": 0.0179,
      "velocity": 97,
      "chip": "ym2612"
    },
    {
      "channel": 1,
      "note": 78,
      "start": 36.9505,
      "duration": 0.0144,
      "velocity": 124,
      "chip": "ym2612"
    },
    {
      "channel": 4,
      "note": 77,
      "start": 36.9518,
      "duration": 0.0143,
      "velocity": 97,
      "chip": "ym2612"
    },
    {
      "channel": 3,
      "note": 80,
      "start": 36.953,
      "duration": 0.0143,
      "velocity": 97,
      "chip": "ym2612"
    },
    {
      "channel": 2,
      "note": 56,
      "start": 36.9544,
      "duration": 0.0141,
      "velocity": 100,
      "chip": "ym2612"
    },
    {
      "channel": 1,
      "note": 76,
      "start": 36.9649,
      "duration": 0.016,
      "velocity": 124,
      "chip": "ym2612"
    },
    {
      "channel": 4,
      "note": 77,
      "start": 36.9661,
      "duration": 0.016,
      "velocity": 97,
      "chip": "ym2612"
    },
    {
      "channel": 3,
      "note": 80,
      "start": 36.9673,
      "duration": 0.0161,
      "velocity": 97,
      "chip": "ym2612"
    },
    {
      "channel": 2,
      "note": 56,
      "start": 36.9685,
      "duration": 0.016,
      "velocity": 100,
      "chip": "ym2612"
    },
    {
      "channel": 1,
      "note": 75,
      "start": 36.9809,
      "duration": 0.0161,
      "velocity": 124,
      "chip": "ym2612"
    },
    {
      "channel": 4,
      "note": 77,
      "start": 36.9822,
      "duration": 0.0162,
      "velocity": 97,
      "chip": "ym2612"
    },
    {
      "channel": 3,
      "note": 80,
      "start": 36.9834,
      "duration": 0.0161,
      "velocity": 97,
      "chip": "ym2612"
    },
    {
      "channel": 2,
      "note": 56,
      "start": 36.9845,
      "duration": 0.0161,
      "velocity": 100,
      "chip": "ym2612"
    },
    {
      "channel": 1,
      "note": 74,
      "start": 36.997,
      "duration": 0.0161,
      "velocity": 124,
      "chip": "ym2612"
    },
    {
      "channel": 4,
      "note": 77,
      "start": 36.9983,
      "duration": 0.0161,
      "velocity": 97,
      "chip": "ym2612"
    },
    {
      "channel": 3,
      "note": 80,
      "start": 36.9995,
      "duration": 0.0161,
      "velocity": 97,
      "chip": "ym2612"
    },
    {
      "channel": 2,
      "note": 56,
      "start": 37.0006,
      "duration": 0.0161,
      "velocity": 100,
      "chip": "ym2612"
    },
    {
      "channel": 1,
      "note": 72,
      "start": 37.0131,
      "duration": 0.0162,
      "velocity": 124,
      "chip": "ym2612"
    },
    {
      "channel": 4,
      "note": 77,
      "start": 37.0144,
      "duration": 0.0161,
      "velocity": 97,
      "chip": "ym2612"
    },
    {
      "channel": 3,
      "note": 80,
      "start": 37.0156,
      "duration": 0.0161,
      "velocity": 97,
      "chip": "ym2612"
    },
    {
      "channel": 2,
      "note": 56,
      "start": 37.0167,
      "duration": 0.0161,
      "velocity": 100,
      "chip": "ym2612"
    },
    {
      "channel": 1,
      "note": 71,
      "start": 37.0293,
      "duration": 0.0161,
      "velocity": 124,
      "chip": "ym2612"
    },
    {
      "channel": 4,
      "note": 77,
      "start": 37.0305,
      "duration": 0.0161,
      "velocity": 97,
      "chip": "ym2612"
    },
    {
      "channel": 3,
      "note": 80,
      "start": 37.0317,
      "duration": 0.0161,
      "velocity": 97,
      "chip": "ym2612"
    },
    {
      "channel": 2,
      "note": 56,
      "start": 37.0328,
      "duration": 0.0161,
      "velocity": 100,
      "chip": "ym2612"
    },
    {
      "channel": 1,
      "note": 70,
      "start": 37.0454,
      "duration": 0.0161,
      "velocity": 124,
      "chip": "ym2612"
    },
    {
      "channel": 4,
      "note": 77,
      "start": 37.0466,
      "duration": 0.0161,
      "velocity": 97,
      "chip": "ym2612"
    },
    {
      "channel": 3,
      "note": 80,
      "start": 37.0478,
      "duration": 0.0161,
      "velocity": 97,
      "chip": "ym2612"
    },
    {
      "channel": 2,
      "note": 56,
      "start": 37.0489,
      "duration": 0.0161,
      "velocity": 100,
      "chip": "ym2612"
    },
    {
      "channel": 1,
      "note": 69,
      "start": 37.0614,
      "duration": 0.0161,
      "velocity": 124,
      "chip": "ym2612"
    },
    {
      "channel": 4,
      "note": 77,
      "start": 37.0627,
      "duration": 0.0161,
      "velocity": 97,
      "chip": "ym2612"
    },
    {
      "channel": 3,
      "note": 80,
      "start": 37.0639,
      "duration": 0.0162,
      "velocity": 97,
      "chip": "ym2612"
    },
    {
      "channel": 2,
      "note": 56,
      "start": 37.065,
      "duration": 0.0161,
      "velocity": 100,
      "chip": "ym2612"
    },
    {
      "channel": 1,
      "note": 68,
      "start": 37.0775,
      "duration": 0.0161,
      "velocity": 124,
      "chip": "ym2612"
    },
    {
      "channel": 4,
      "note": 77,
      "start": 37.0788,
      "duration": 0.0161,
      "velocity": 97,
      "chip": "ym2612"
    },
    {
      "channel": 3,
      "note": 80,
      "start": 37.08,
      "duration": 0.016,
      "velocity": 97,
      "chip": "ym2612"
    },
    {
      "channel": 2,
      "note": 56,
      "start": 37.0812,
      "duration": 0.016,
      "velocity": 100,
      "chip": "ym2612"
    },
    {
      "channel": 1,
      "note": 66,
      "start": 37.0936,
      "duration": 0.0169,
      "velocity": 124,
      "chip": "ym2612"
    },
    {
      "channel": 4,
      "note": 77,
      "start": 37.0949,
      "duration": 0.017,
      "velocity": 97,
      "chip": "ym2612"
    },
    {
      "channel": 3,
      "note": 80,
      "start": 37.0961,
      "duration": 0.017,
      "velocity": 97,
      "chip": "ym2612"
    },
    {
      "channel": 2,
      "note": 56,
      "start": 37.0972,
      "duration": 0.017,
      "velocity": 100,
      "chip": "ym2612"
    },
    {
      "channel": 1,
      "note": 65,
      "start": 37.1105,
      "duration": 0.0167,
      "velocity": 124,
      "chip": "ym2612"
    },
    {
      "channel": 4,
      "note": 77,
      "start": 37.1119,
      "duration": 0.0167,
      "velocity": 97,
      "chip": "ym2612"
    },
    {
      "channel": 3,
      "note": 80,
      "start": 37.113,
      "duration": 0.0167,
      "velocity": 97,
      "chip": "ym2612"
    },
    {
      "channel": 1,
      "note": 64,
      "start": 37.1272,
      "duration": 0.0163,
      "velocity": 124,
      "chip": "ym2612"
    },
    {
      "channel": 4,
      "note": 77,
      "start": 37.1285,
      "duration": 0.02,
      "velocity": 97,
      "chip": "ym2612"
    },
    {
      "channel": 3,
      "note": 80,
      "start": 37.1297,
      "duration": 0.0203,
      "velocity": 97,
      "chip": "ym2612"
    },
    {
      "channel": 1,
      "note": 62,
      "start": 37.1436,
      "duration": 0.0146,
      "velocity": 124,
      "chip": "ym2612"
    },
    {
      "channel": 0,
      "note": 36,
      "start": 37.1471,
      "duration": 0.0129,
      "velocity": 115,
      "chip": "ym2612"
    },
    {
      "channel": 4,
      "note": 81,
      "start": 37.1486,
      "duration": 0.0127,
      "velocity": 97,
      "chip": "ym2612"
    },
    {
      "channel": 3,
      "note": 84,
      "start": 37.15,
      "duration": 0.0124,
      "velocity": 97,
      "chip": "ym2612"
    },
    {
      "channel": 2,
      "note": 53,
      "start": 37.1516,
      "duration": 0.012,
      "velocity": 100,
      "chip": "ym2612"
    },
    {
      "channel": 1,
      "note": 61,
      "start": 37.1582,
      "duration": 0.0187,
      "velocity": 124,
      "chip": "ym2612"
    },
    {
      "channel": 0,
      "note": 36,
      "start": 37.16,
      "duration": 0.0186,
      "velocity": 115,
      "chip": "ym2612"
    },
    {
      "channel": 4,
      "note": 81,
      "start": 37.1612,
      "duration": 0.0185,
      "velocity": 97,
      "chip": "ym2612"
    },
    {
      "channel": 3,
      "note": 84,
      "start": 37.1624,
      "duration": 0.0185,
      "velocity": 97,
      "chip": "ym2612"
    },
    {
      "channel": 2,
      "note": 53,
      "start": 37.1636,
      "duration": 0.0184,
      "velocity": 100,
      "chip": "ym2612"
    },
    {
      "channel": 1,
      "note": 60,
      "start": 37.1769,
      "duration": 0.0161,
      "velocity": 124,
      "chip": "ym2612"
    },
    {
      "channel": 0,
      "note": 37,
      "start": 37.1786,
      "duration": 0.0161,
      "velocity": 115,
      "chip": "ym2612"
    },
    {
      "channel": 4,
      "note": 81,
      "start": 37.1798,
      "duration": 0.0161,
      "velocity": 97,
      "chip": "ym2612"
    },
    {
      "channel": 3,
      "note": 84,
      "start": 37.1809,
      "duration": 0.0161,
      "velocity": 97,
      "chip": "ym2612"
    },
    {
      "channel": 2,
      "note": 53,
      "start": 37.182,
      "duration": 0.0161,
      "velocity": 100,
      "chip": "ym2612"
    },
    {
      "channel": 1,
      "note": 59,
      "start": 37.193,
      "duration": 0.0157,
      "velocity": 124,
      "chip": "ym2612"
    },
    {
      "channel": 0,
      "note": 37,
      "start": 37.1947,
      "duration": 0.0157,
      "velocity": 115,
      "chip": "ym2612"
    },
    {
      "channel": 4,
      "note": 81,
      "start": 37.1959,
      "duration": 0.0157,
      "velocity": 97,
      "chip": "ym2612"
    },
    {
      "channel": 3,
      "note": 84,
      "start": 37.197,
      "duration": 0.0157,
      "velocity": 97,
      "chip": "ym2612"
    },
    {
      "channel": 2,
      "note": 53,
      "start": 37.1981,
      "duration": 0.0157,
      "velocity": 100,
      "chip": "ym2612"
    },
    {
      "channel": 1,
      "note": 57,
      "start": 37.2087,
      "duration": 0.0137,
      "velocity": 124,
      "chip": "ym2612"
    },
    {
      "channel": 0,
      "note": 38,
      "start": 37.2104,
      "duration": 0.0141,
      "velocity": 115,
      "chip": "ym2612"
    },
    {
      "channel": 4,
      "note": 81,
      "start": 37.2116,
      "duration": 0.0141,
      "velocity": 97,
      "chip": "ym2612"
    },
    {
      "channel": 3,
      "note": 84,
      "start": 37.2127,
      "duration": 0.0141,
      "velocity": 97,
      "chip": "ym2612"
    },
    {
      "channel": 2,
      "note": 53,
      "start": 37.2139,
      "duration": 0.0141,
      "velocity": 100,
      "chip": "ym2612"
    },
    {
      "channel": 1,
      "note": 56,
      "start": 37.2224,
      "duration": 0.0161,
      "velocity": 124,
      "chip": "ym2612"
    },
    {
      "channel": 0,
      "note": 38,
      "start": 37.2245,
      "duration": 0.0185,
      "velocity": 115,
      "chip": "ym2612"
    },
    {
      "channel": 4,
      "note": 81,
      "start": 37.2257,
      "duration": 0.0185,
      "velocity": 97,
      "chip": "ym2612"
    },
    {
      "channel": 3,
      "note": 84,
      "start": 37.2268,
      "duration": 0.0185,
      "velocity": 97,
      "chip": "ym2612"
    },
    {
      "channel": 2,
      "note": 53,
      "start": 37.228,
      "duration": 0.0185,
      "velocity": 100,
      "chip": "ym2612"
    },
    {
      "channel": 1,
      "note": 55,
      "start": 37.2385,
      "duration": 0.0161,
      "velocity": 124,
      "chip": "ym2612"
    },
    {
      "channel": 0,
      "note": 39,
      "start": 37.243,
      "duration": 0.0161,
      "velocity": 115,
      "chip": "ym2612"
    },
    {
      "channel": 4,
      "note": 81,
      "start": 37.2442,
      "duration": 0.0161,
      "velocity": 97,
      "chip": "ym2612"
    },
    {
      "channel": 3,
      "note": 84,
      "start": 37.2454,
      "duration": 0.0161,
      "velocity": 97,
      "chip": "ym2612"
    },
    {
      "channel": 2,
      "note": 53,
      "start": 37.2465,
      "duration": 0.0161,
      "velocity": 100,
      "chip": "ym2612"
    },
    {
      "channel": 1,
      "note": 53,
      "start": 37.2546,
      "duration": 0.0161,
      "velocity": 124,
      "chip": "ym2612"
    },
    {
      "channel": 0,
      "note": 39,
      "start": 37.2591,
      "duration": 0.0134,
      "velocity": 115,
      "chip": "ym2612"
    },
    {
      "channel": 4,
      "note": 81,
      "start": 37.2603,
      "duration": 0.0157,
      "velocity": 97,
      "chip": "ym2612"
    },
    {
      "channel": 3,
      "note": 84,
      "start": 37.2614,
      "duration": 0.0157,
      "velocity": 97,
      "chip": "ym2612"
    },
    {
      "channel": 2,
      "note": 53,
      "start": 37.2626,
      "duration": 0.0157,
      "velocity": 100,
      "chip": "ym2612"
    },
    {
      "channel": 1,
      "note": 52,
      "start": 37.2707,
      "duration": 0.0161,
      "velocity": 124,
      "chip": "ym2612"
    },
    {
      "channel": 0,
      "note": 40,
      "start": 37.2724,
      "duration": 0.0161,
      "velocity": 115,
      "chip": "ym2612"
    },
    {
      "channel": 4,
      "note": 81,
      "start": 37.276,
      "duration": 0.0141,
      "velocity": 97,
      "chip": "ym2612"
    },
    {
      "channel": 3,
      "note": 84,
      "start": 37.2771,
      "duration": 0.0141,
      "velocity": 97,
      "chip": "ym2612"
    },
    {
      "channel": 2,
      "note": 53,
      "start": 37.2783,
      "duration": 0.0141,
      "velocity": 100,
      "chip": "ym2612"
    },
    {
      "channel": 1,
      "note": 51,
      "start": 37.2868,
      "duration": 0.0153,
      "velocity": 1,
      "chip": "ym2612"
    },
    {
      "channel": 0,
      "note": 40,
      "start": 37.2885,
      "duration": 0.0153,
      "velocity": 115,
      "chip": "ym2612"
    },
    {
      "channel": 4,
      "note": 81,
      "start": 37.2901,
      "duration": 0.0149,
      "velocity": 97,
      "chip": "ym2612"
    },
    {
      "channel": 3,
      "note": 84,
      "start": 37.2912,
      "duration": 0.0178,
      "velocity": 97,
      "chip": "ym2612"
    },
    {
      "channel": 2,
      "note": 53,
      "start": 37.2924,
      "duration": 0.0178,
      "velocity": 100,
      "chip": "ym2612"
    },
    {
      "channel": 0,
      "note": 40,
      "start": 37.3039,
      "duration": 0.0153,
      "velocity": 115,
      "chip": "ym2612"
    },
    {
      "channel": 4,
      "note": 81,
      "start": 37.305,
      "duration": 0.0153,
      "velocity": 97,
      "chip": "ym2612"
    },
    {
      "channel": 3,
      "note": 84,
      "start": 37.309,
      "duration": 0.0125,
      "velocity": 97,
      "chip": "ym2612"
    },
    {
      "channel": 0,
      "note": 41,
      "start": 37.3191,
      "duration": 0.0161,
      "velocity": 115,
      "chip": "ym2612"
    },
    {
      "channel": 4,
      "note": 81,
      "start": 37.3203,
      "duration": 0.0162,
      "velocity": 97,
      "chip": "ym2612"
    },
    {
      "channel": 3,
      "note": 84,
      "start": 37.3214,
      "duration": 0.0161,
      "velocity": 97,
      "chip": "ym2612"
    },
    {
      "channel": 0,
      "note": 41,
      "start": 37.3352,
      "duration": 0.0161,
      "velocity": 115,
      "chip": "ym2612"
    },
    {
      "channel": 4,
      "note": 81,
      "start": 37.3364,
      "duration": 0.0161,
      "velocity": 97,
      "chip": "ym2612"
    },
    {
      "channel": 3,
      "note": 84,
      "start": 37.3376,
      "duration": 0.0161,
      "velocity": 97,
      "chip": "ym2612"
    },
    {
      "channel": 2,
      "note": 60,
      "start": 37.339,
      "duration": 0.0159,
      "velocity": 100,
      "chip": "ym2612"
    },
    {
      "channel": 1,
      "note": 48,
      "start": 37.3427,
      "duration": 0.0136,
      "velocity": 100,
      "chip": "ym2612"
    },
    {
      "channel": 0,
      "note": 42,
      "start": 37.3513,
      "duration": 0.0161,
      "velocity": 115,
      "chip": "ym2612"
    },
    {
      "channel": 4,
      "note": 81,
      "start": 37.3525,
      "duration": 0.0161,
      "velocity": 97,
      "chip": "ym2612"
    },
    {
      "channel": 3,
      "note": 84,
      "start": 37.3537,
      "duration": 0.0161,
      "velocity": 97,
      "chip": "ym2612"
    },
    {
      "channel": 2,
      "note": 60,
      "start": 37.3548,
      "duration": 0.0161,
      "velocity": 100,
      "chip": "ym2612"
    },
    {
      "channel": 1,
      "note": 48,
      "start": 37.3563,
      "duration": 0.0156,
      "velocity": 100,
      "chip": "ym2612"
    },
    {
      "channel": 0,
      "note": 42,
      "start": 37.3674,
      "duration": 0.0161,
      "velocity": 115,
      "chip": "ym2612"
    },
    {
      "channel": 4,
      "note": 81,
      "start": 37.3686,
      "duration": 0.0161,
      "velocity": 97,
      "chip": "ym2612"
    },
    {
      "channel": 3,
      "note": 84,
      "start": 37.3698,
      "duration": 0.0161,
      "velocity": 97,
      "chip": "ym2612"
    },
    {
      "channel": 2,
      "note": 60,
      "start": 37.3709,
      "duration": 0.0161,
      "velocity": 100,
      "chip": "ym2612"
    },
    {
      "channel": 1,
      "note": 48,
      "start": 37.372,
      "duration": 0.0161,
      "velocity": 100,
      "chip": "ym2612"
    },
    {
      "channel": 0,
      "note": 43,
      "start": 37.3835,
      "duration": 0.0161,
      "velocity": 115,
      "chip": "ym2612"
    },
    {
      "channel": 4,
      "note": 81,
      "start": 37.3847,
      "duration": 0.0161,
      "velocity": 97,
      "chip": "ym2612"
    },
    {
      "channel": 3,
      "note": 84,
      "start": 37.3859,
      "duration": 0.0161,
      "velocity": 97,
      "chip": "ym2612"
    },
    {
      "channel": 2,
      "note": 60,
      "start": 37.387,
      "duration": 0.0161,
      "velocity": 100,
      "chip": "ym2612"
    },
    {
      "channel": 1,
      "note": 48,
      "start": 37.3881,
      "duration": 0.0161,
      "velocity": 100,
      "chip": "ym2612"
    },
    {
      "channel": 0,
      "note": 43,
      "start": 37.3996,
      "duration": 0.0161,
      "velocity": 115,
      "chip": "ym2612"
    },
    {
      "channel": 4,
      "note": 81,
      "start": 37.4008,
      "duration": 0.0161,
      "velocity": 97,
      "chip": "ym2612"
    },
    {
      "channel": 3,
      "note": 84,
      "start": 37.402,
      "duration": 0.0161,
      "velocity": 97,
      "chip": "ym2612"
    },
    {
      "channel": 2,
      "note": 60,
      "start": 37.4031,
      "duration": 0.0161,
      "velocity": 100,
      "chip": "ym2612"
    },
    {
      "channel": 1,
      "note": 48,
      "start": 37.4042,
      "duration": 0.0161,
      "velocity": 100,
      "chip": "ym2612"
    },
    {
      "channel": 0,
      "note": 44,
      "start": 37.4157,
      "duration": 0.0161,
      "velocity": 115,
      "chip": "ym2612"
    },
    {
      "channel": 4,
      "note": 81,
      "start": 37.4169,
      "duration": 0.0161,
      "velocity": 97,
      "chip": "ym2612"
    },
    {
      "channel": 3,
      "note": 84,
      "start": 37.418,
      "duration": 0.0161,
      "velocity": 97,
      "chip": "ym2612"
    },
    {
      "channel": 2,
      "note": 60,
      "start": 37.4192,
      "duration": 0.0161,
      "velocity": 100,
      "chip": "ym2612"
    },
    {
      "channel": 1,
      "note": 48,
      "start": 37.4203,
      "duration": 0.0161,
      "velocity": 100,
      "chip": "ym2612"
    },
    {
      "channel": 0,
      "note": 44,
      "start": 37.4318,
      "duration": 0.0162,
      "velocity": 115,
      "chip": "ym2612"
    },
    {
      "channel": 4,
      "note": 81,
      "start": 37.433,
      "duration": 0.0161,
      "velocity": 97,
      "chip": "ym2612"
    },
    {
      "channel": 3,
      "note": 84,
      "start": 37.4341,
      "duration": 0.0162,
      "velocity": 97,
      "chip": "ym2612"
    },
    {
      "channel": 2,
      "note": 60,
      "start": 37.4353,
      "duration": 0.0161,
      "velocity": 100,
      "chip": "ym2612"
    },
    {
      "channel": 1,
      "note": 48,
      "start": 37.4364,
      "duration": 0.0161,
      "velocity": 100,
      "chip": "ym2612"
    },
    {
      "channel": 0,
      "note": 44,
      "start": 37.448,
      "duration": 0.0161,
      "velocity": 115,
      "chip": "ym2612"
    },
    {
      "channel": 4,
      "note": 81,
      "start": 37.4491,
      "duration": 0.0162,
      "velocity": 97,
      "chip": "ym2612"
    },
    {
      "channel": 3,
      "note": 84,
      "start": 37.4503,
      "duration": 0.0161,
      "velocity": 97,
      "chip": "ym2612"
    },
    {
      "channel": 2,
      "note": 60,
      "start": 37.4514,
      "duration": 0.0162,
      "velocity": 100,
      "chip": "ym2612"
    },
    {
      "channel": 1,
      "note": 48,
      "start": 37.4525,
      "duration": 0.0161,
      "velocity": 100,
      "chip": "ym2612"
    },
    {
      "channel": 0,
      "note": 45,
      "start": 37.4641,
      "duration": 0.0161,
      "velocity": 115,
      "chip": "ym2612"
    },
    {
      "channel": 4,
      "note": 81,
      "start": 37.4653,
      "duration": 0.0161,
      "velocity": 97,
      "chip": "ym2612"
    },
    {
      "channel": 3,
      "note": 84,
      "start": 37.4664,
      "duration": 0.0161,
      "velocity": 97,
      "chip": "ym2612"
    },
    {
      "channel": 2,
      "note": 60,
      "start": 37.4676,
      "duration": 0.0161,
      "velocity": 100,
      "chip": "ym2612"
    },
    {
      "channel": 1,
      "note": 48,
      "start": 37.4687,
      "duration": 0.016,
      "velocity": 100,
      "chip": "ym2612"
    },
    {
      "channel": 0,
      "note": 45,
      "start": 37.4801,
      "duration": 0.0161,
      "velocity": 115,
      "chip": "ym2612"
    },
    {
      "channel": 4,
      "note": 81,
      "start": 37.4814,
      "duration": 0.0161,
      "velocity": 97,
      "chip": "ym2612"
    },
    {
      "channel": 3,
      "note": 84,
      "start": 37.4825,
      "duration": 0.0161,
      "velocity": 97,
      "chip": "ym2612"
    },
    {
      "channel": 2,
      "note": 60,
      "start": 37.4837,
      "duration": 0.0161,
      "velocity": 100,
      "chip": "ym2612"
    },
    {
      "channel": 1,
      "note": 48,
      "start": 37.4847,
      "duration": 0.0162,
      "velocity": 100,
      "chip": "ym2612"
    },
    {
      "channel": 0,
      "note": 46,
      "start": 37.4962,
      "duration": 0.0161,
      "velocity": 115,
      "chip": "ym2612"
    },
    {
      "channel": 4,
      "note": 81,
      "start": 37.4974,
      "duration": 0.0161,
      "velocity": 97,
      "chip": "ym2612"
    },
    {
      "channel": 3,
      "note": 84,
      "start": 37.4986,
      "duration": 0.0161,
      "velocity": 97,
      "chip": "ym2612"
    },
    {
      "channel": 0,
      "note": 46,
      "start": 37.5123,
      "duration": 0.0195,
      "velocity": 115,
      "chip": "ym2612"
    },
    {
      "channel": 4,
      "note": 81,
      "start": 37.5135,
      "duration": 0.0195,
      "velocity": 97,
      "chip": "ym2612"
    },
    {
      "channel": 3,
      "note": 84,
      "start": 37.5147,
      "duration": 0.0196,
      "velocity": 97,
      "chip": "ym2612"
    },
    {
      "channel": 1,
      "note": 78,
      "start": 37.5301,
      "duration": 0.0144,
      "velocity": 124,
      "chip": "ym2612"
    },
    {
      "channel": 0,
      "note": 47,
      "start": 37.5319,
      "duration": 0.0144,
      "velocity": 115,
      "chip": "ym2612"
    },
    {
      "channel": 4,
      "note": 81,
      "start": 37.5331,
      "duration": 0.0144,
      "velocity": 97,
      "chip": "ym2612"
    },
    {
      "channel": 3,
      "note": 84,
      "start": 37.5343,
      "duration": 0.0143,
      "velocity": 97,
      "chip": "ym2612"
    },
    {
      "channel": 2,
      "note": 65,
      "start": 37.5356,
      "duration": 0.0142,
      "velocity": 100,
      "chip": "ym2612"
    },
    {
      "channel": 1,
      "note": 76,
      "start": 37.5445,
      "duration": 0.016,
      "velocity": 124,
      "chip": "ym2612"
    },
    {
      "channel": 0,
      "note": 47,
      "start": 37.5462,
      "duration": 0.016,
      "velocity": 115,
      "chip": "ym2612"
    },
    {
      "channel": 4,
      "note": 81,
      "start": 37.5474,
      "duration": 0.016,
      "velocity": 97,
      "chip": "ym2612"
    },
    {
      "channel": 3,
      "note": 84,
      "start": 37.5486,
      "duration": 0.016,
      "velocity": 97,
      "chip": "ym2612"
    },
    {
      "channel": 2,
      "note": 65,
      "start": 37.5498,
      "duration": 0.016,
      "velocity": 100,
      "chip": "ym2612"
    },
    {
      "channel": 1,
      "note": 75,
      "start": 37.5605,
      "duration": 0.0167,
      "velocity": 124,
      "chip": "ym2612"
    },
    {
      "channel": 0,
      "note": 47,
      "start": 37.5623,
      "duration": 0.0167,
      "velocity": 115,
      "chip": "ym2612"
    },
    {
      "channel": 4,
      "note": 81,
      "start": 37.5635,
      "duration": 0.0167,
      "velocity": 97,
      "chip": "ym2612"
    },
    {
      "channel": 3,
      "note": 84,
      "start": 37.5646,
      "duration": 0.0167,
      "velocity": 97,
      "chip": "ym2612"
    },
    {
      "channel": 2,
      "note": 65,
      "start": 37.5658,
      "duration": 0.0167,
      "velocity": 100,
      "chip": "ym2612"
    },
    {
      "channel": 1,
      "note": 74,
      "start": 37.5772,
      "duration": 0.0167,
      "velocity": 124,
      "chip": "ym2612"
    },
    {
      "channel": 0,
      "note": 48,
      "start": 37.5789,
      "duration": 0.0167,
      "velocity": 115,
      "chip": "ym2612"
    },
    {
      "channel": 4,
      "note": 81,
      "start": 37.5801,
      "duration": 0.0167,
      "velocity": 97,
      "chip": "ym2612"
    },
    {
      "channel": 3,
      "note": 84,
      "start": 37.5814,
      "duration": 0.0167,
      "velocity": 97,
      "chip": "ym2612"
    },
    {
      "channel": 2,
      "note": 65,
      "start": 37.5824,
      "duration": 0.0167,
      "velocity": 100,
      "chip": "ym2612"
    },
    {
      "channel": 1,
      "note": 72,
      "start": 37.5939,
      "duration": 0.0163,
      "velocity": 124,
      "chip": "ym2612"
    },
    {
      "channel": 0,
      "note": 48,
      "start": 37.5957,
      "duration": 0.0163,
      "velocity": 115,
      "chip": "ym2612"
    },
    {
      "channel": 4,
      "note": 81,
      "start": 37.5969,
      "duration": 0.0163,
      "velocity": 97,
      "chip": "ym2612"
    },
    {
      "channel": 3,
      "note": 84,
      "start": 37.598,
      "duration": 0.0163,
      "velocity": 97,
      "chip": "ym2612"
    },
    {
      "channel": 2,
      "note": 65,
      "start": 37.5992,
      "duration": 0.0163,
      "velocity": 100,
      "chip": "ym2612"
    },
    {
      "channel": 1,
      "note": 71,
      "start": 37.6102,
      "duration": 0.0148,
      "velocity": 124,
      "chip": "ym2612"
    },
    {
      "channel": 0,
      "note": 49,
      "start": 37.612,
      "duration": 0.014,
      "velocity": 1,
      "chip": "ym2612"
    },
    {
      "channel": 4,
      "note": 81,
      "start": 37.6132,
      "duration": 0.0139,
      "velocity": 97,
      "chip": "ym2612"
    },
    {
      "channel": 3,
      "note": 84,
      "start": 37.6143,
      "duration": 0.014,
      "velocity": 97,
      "chip": "ym2612"
    },
    {
      "channel": 2,
      "note": 65,
      "start": 37.6154,
      "duration": 0.0139,
      "velocity": 100,
      "chip": "ym2612"
    },
    {
      "channel": 1,
      "note": 70,
      "start": 37.625,
      "duration": 0.0188,
      "velocity": 124,
      "chip": "ym2612"
    },
    {
      "channel": 4,
      "note": 81,
      "start": 37.6271,
      "duration": 0.018,
      "velocity": 97,
      "chip": "ym2612"
    },
    {
      "channel": 3,
      "note": 84,
      "start": 37.6283,
      "duration": 0.0179,
      "velocity": 97,
      "chip": "ym2612"
    },
    {
      "channel": 2,
      "note": 65,
      "start": 37.6294,
      "duration": 0.018,
      "velocity": 100,
      "chip": "ym2612"
    },
    {
      "channel": 1,
      "note": 69,
      "start": 37.6438,
      "duration": 0.0161,
      "velocity": 124,
      "chip": "ym2612"
    },
    {
      "channel": 4,
      "note": 81,
      "start": 37.6451,
      "duration": 0.0161,
      "velocity": 97,
      "chip": "ym2612"
    },
    {
      "channel": 3,
      "note": 84,
      "start": 37.6462,
      "duration": 0.0161,
      "velocity": 97,
      "chip": "ym2612"
    },
    {
      "channel": 2,
      "note": 65,
      "start": 37.6474,
      "duration": 0.0161,
      "velocity": 100,
      "chip": "ym2612"
    },
    {
      "channel": 1,
      "note": 68,
      "start": 37.6599,
      "duration": 0.0157,
      "velocity": 124,
      "chip": "ym2612"
    },
    {
      "channel": 4,
      "note": 81,
      "start": 37.6612,
      "duration": 0.0157,
      "velocity": 97,
      "chip": "ym2612"
    },
    {
      "channel": 3,
      "note": 84,
      "start": 37.6623,
      "duration": 0.0158,
      "velocity": 97,
      "chip": "ym2612"
    },
    {
      "channel": 2,
      "note": 65,
      "start": 37.6635,
      "duration": 0.0157,
      "velocity": 100,
      "chip": "ym2612"
    },
    {
      "channel": 1,
      "note": 66,
      "start": 37.6756,
      "duration": 0.0141,
      "velocity": 124,
      "chip": "ym2612"
    },
    {
      "channel": 4,
      "note": 81,
      "start": 37.6769,
      "duration": 0.0141,
      "velocity": 97,
      "chip": "ym2612"
    },
    {
      "channel": 3,
      "note": 84,
      "start": 37.6781,
      "duration": 0.0141,
      "velocity": 97,
      "chip": "ym2612"
    },
    {
      "channel": 2,
      "note": 65,
      "start": 37.6792,
      "duration": 0.0141,
      "velocity": 100,
      "chip": "ym2612"
    },
    {
      "channel": 1,
      "note": 65,
      "start": 37.6897,
      "duration": 0.0158,
      "velocity": 124,
      "chip": "ym2612"
    },
    {
      "channel": 4,
      "note": 81,
      "start": 37.691,
      "duration": 0.0185,
      "velocity": 97,
      "chip": "ym2612"
    },
    {
      "channel": 3,
      "note": 84,
      "start": 37.6922,
      "duration": 0.0185,
      "velocity": 97,
      "chip": "ym2612"
    },
    {
      "channel": 1,
      "note": 64,
      "start": 37.7055,
      "duration": 0.0161,
      "velocity": 124,
      "chip": "ym2612"
    },
    {
      "channel": 4,
      "note": 81,
      "start": 37.7095,
      "duration": 0.0196,
      "velocity": 97,
      "chip": "ym2612"
    },
    {
      "channel": 3,
      "note": 84,
      "start": 37.7107,
      "duration": 0.0195,
      "velocity": 97,
      "chip": "ym2612"
    },
    {
      "channel": 1,
      "note": 62,
      "start": 37.7216,
      "duration": 0.0161,
      "velocity": 124,
      "chip": "ym2612"
    },
    {
      "channel": 0,
      "note": 36,
      "start": 37.7278,
      "duration": 0.014,
      "velocity": 115,
      "chip": "ym2612"
    },
    {
      "channel": 4,
      "note": 81,
      "start": 37.7291,
      "duration": 0.014,
      "velocity": 97,
      "chip": "ym2612"
    },
    {
      "channel": 3,
      "note": 84,
      "start": 37.7302,
      "duration": 0.014,
      "velocity": 97,
      "chip": "ym2612"
    },
    {
      "channel": 2,
      "note": 63,
      "start": 37.7316,
      "duration": 0.0138,
      "velocity": 100,
      "chip": "ym2612"
    },
    {
      "channel": 1,
      "note": 61,
      "start": 37.7376,
      "duration": 0.0161,
      "velocity": 124,
      "chip": "ym2612"
    },
    {
      "channel": 0,
      "note": 36,
      "start": 37.7418,
      "duration": 0.0136,
      "velocity": 115,
      "chip": "ym2612"
    },
    {
      "channel": 4,
      "note": 81,
      "start": 37.7431,
      "duration": 0.0139,
      "velocity": 97,
      "chip": "ym2612"
    },
    {
      "channel": 3,
      "note": 84,
      "start": 37.7442,
      "duration": 0.014,
      "velocity": 97,
      "chip": "ym2612"
    },
    {
      "channel": 2,
      "note": 63,
      "start": 37.7454,
      "duration": 0.0139,
      "velocity": 100,
      "chip": "ym2612"
    },
    {
      "channel": 1,
      "note": 60,
      "start": 37.7537,
      "duration": 0.0162,
      "velocity": 124,
      "chip": "ym2612"
    },
    {
      "channel": 0,
      "note": 37,
      "start": 37.7555,
      "duration": 0.0161,
      "velocity": 115,
      "chip": "ym2612"
    },
    {
      "channel": 4,
      "note": 81,
      "start": 37.757,
      "duration": 0.0186,
      "velocity": 97,
      "chip": "ym2612"
    },
    {
      "channel": 3,
      "note": 84,
      "start": 37.7582,
      "duration": 0.0185,
      "velocity": 97,
      "chip": "ym2612"
    },
    {
      "channel": 2,
      "note": 63,
      "start": 37.7593,
      "duration": 0.0186,
      "velocity": 100,
      "chip": "ym2612"
    },
    {
      "channel": 1,
      "note": 59,
      "start": 37.7699,
      "duration": 0.0161,
      "velocity": 124,
      "chip": "ym2612"
    },
    {
      "channel": 0,
      "note": 37,
      "start": 37.7716,
      "duration": 0.0161,
      "velocity": 115,
      "chip": "ym2612"
    },
    {
      "channel": 4,
      "note": 81,
      "start": 37.7756,
      "duration": 0.0134,
      "velocity": 97,
      "chip": "ym2612"
    },
    {
      "channel": 3,
      "note": 84,
      "start": 37.7767,
      "duration": 0.0161,
      "velocity": 97,
      "chip": "ym2612"
    },
    {
      "channel": 2,
      "note": 63,
      "start": 37.7778,
      "duration": 0.0161,
      "velocity": 100,
      "chip": "ym2612"
    },
    {
      "channel": 1,
      "note": 57,
      "start": 37.786,
      "duration": 0.0161,
      "velocity": 124,
      "chip": "ym2612"
    },
    {
      "channel": 0,
      "note": 38,
      "start": 37.7877,
      "duration": 0.0161,
      "velocity": 115,
      "chip": "ym2612"
    },
    {
      "channel": 4,
      "note": 81,
      "start": 37.7889,
      "duration": 0.0161,
      "velocity": 97,
      "chip": "ym2612"
    },
    {
      "channel": 3,
      "note": 84,
      "start": 37.7928,
      "duration": 0.0157,
      "velocity": 97,
      "chip": "ym2612"
    },
    {
      "channel": 2,
      "note": 63,
      "start": 37.7939,
      "duration": 0.0157,
      "velocity": 100,
      "chip": "ym2612"
    },
    {
      "channel": 1,
      "note": 56,
      "start": 37.8021,
      "duration": 0.0161,
      "velocity": 124,
      "chip": "ym2612"
    },
    {
      "channel": 0,
      "note": 38,
      "start": 37.8038,
      "duration": 0.0161,
      "velocity": 115,
      "chip": "ym2612"
    },
    {
      "channel": 4,
      "note": 81,
      "start": 37.805,
      "duration": 0.0161,
      "velocity": 97,
      "chip": "ym2612"
    },
    {
      "channel": 3,
      "note": 84,
      "start": 37.8085,
      "duration": 0.0137,
      "velocity": 97,
      "chip": "ym2612"
    },
    {
      "channel": 2,
      "note": 63,
      "start": 37.8097,
      "duration": 0.0141,
      "velocity": 100,
      "chip": "ym2612"
    },
    {
      "channel": 1,
      "note": 55,
      "start": 37.8182,
      "duration": 0.0161,
      "velocity": 124,
      "chip": "ym2612"
    },
    {
      "channel": 0,
      "note": 39,
      "start": 37.8199,
      "duration": 0.0161,
      "velocity": 115,
      "chip": "ym2612"
    },
    {
      "channel": 4,
      "note": 81,
      "start": 37.8211,
      "duration": 0.0161,
      "velocity": 97,
      "chip": "ym2612"
    },
    {
      "channel": 3,
      "note": 84,
      "start": 37.8222,
      "duration": 0.0161,
      "velocity": 97,
      "chip": "ym2612"
    },
    {
      "channel": 2,
      "note": 63,
      "start": 37.8237,
      "duration": 0.0185,
      "velocity": 100,
      "chip": "ym2612"
    },
    {
      "channel": 1,
      "note": 53,
      "start": 37.8343,
      "duration": 0.0161,
      "velocity": 124,
      "chip": "ym2612"
    },
    {
      "channel": 0,
      "note": 39,
      "start": 37.836,
      "duration": 0.0161,
      "velocity": 115,
      "chip": "ym2612"
    },
    {
      "channel": 4,
      "note": 81,
      "start": 37.8372,
      "duration": 0.0161,
      "velocity": 97,
      "chip": "ym2612"
    },
    {
      "channel": 3,
      "note": 84,
      "start": 37.8383,
      "duration": 0.0162,
      "velocity": 97,
      "chip": "ym2612"
    },
    {
      "channel": 2,
      "note": 63,
      "start": 37.8422,
      "duration": 0.0134,
      "velocity": 100,
      "chip": "ym2612"
    },
    {
      "channel": 1,
      "note": 52,
      "start": 37.8504,
      "duration": 0.0161,
      "velocity": 124,
      "chip": "ym2612"
    },
    {
      "channel": 0,
      "note": 40,
      "start": 37.8521,
      "duration": 0.0161,
      "velocity": 115,
      "chip": "ym2612"
    },
    {
      "channel": 4,
      "note": 81,
      "start": 37.8533,
      "duration": 0.0161,
      "velocity": 97,
      "chip": "ym2612"
    },
    {
      "channel": 3,
      "note": 84,
      "start": 37.8545,
      "duration": 0.016,
      "velocity": 97,
      "chip": "ym2612"
    },
    {
      "channel": 2,
      "note": 63,
      "start": 37.8556,
      "duration": 0.016,
      "velocity": 100,
      "chip": "ym2612"
    },
    {
      "channel": 1,
      "note": 51,
      "start": 37.8665,
      "duration": 0.0153,
      "velocity": 1,
      "chip": "ym2612"
    },
    {
      "channel": 0,
      "note": 40,
      "start": 37.8682,
      "duration": 0.0153,
      "velocity": 115,
      "chip": "ym2612"
    },
    {
      "channel": 4,
      "note": 81,
      "start": 37.8694,
      "duration": 0.0153,
      "velocity": 97,
      "chip": "ym2612"
    },
    {
      "channel": 3,
      "note": 84,
      "start": 37.8705,
      "duration": 0.0153,
      "velocity": 97,
      "chip": "ym2612"
    },
    {
      "channel": 2,
      "note": 63,
      "start": 37.8717,
      "duration": 0.0153,
      "velocity": 100,
      "chip": "ym2612"
    },
    {
      "channel": 0,
      "note": 40,
      "start": 37.8835,
      "duration": 0.0153,
      "velocity": 115,
      "chip": "ym2612"
    },
    {
      "channel": 4,
      "note": 81,
      "start": 37.8847,
      "duration": 0.0152,
      "velocity": 97,
      "chip": "ym2612"
    },
    {
      "channel": 3,
      "note": 84,
      "start": 37.8859,
      "duration": 0.0153,
      "velocity": 97,
      "chip": "ym2612"
    },
    {
      "channel": 0,
      "note": 41,
      "start": 37.8988,
      "duration": 0.0161,
      "velocity": 115,
      "chip": "ym2612"
    },
    {
      "channel": 4,
      "note": 81,
      "start": 37.8999,
      "duration": 0.0161,
      "velocity": 97,
      "chip": "ym2612"
    },
    {
      "channel": 3,
      "note": 84,
      "start": 37.9011,
      "duration": 0.0161,
      "velocity": 97,
      "chip": "ym2612"
    },
    {
      "channel": 0,
      "note": 41,
      "start": 37.9149,
      "duration": 0.0161,
      "velocity": 115,
      "chip": "ym2612"
    },
    {
      "channel": 4,
      "note": 81,
      "start": 37.9161,
      "duration": 0.0161,
      "velocity": 97,
      "chip": "ym2612"
    },
    {
      "channel": 3,
      "note": 84,
      "start": 37.9172,
      "duration": 0.0161,
      "velocity": 97,
      "chip": "ym2612"
    },
    {
      "channel": 0,
      "note": 42,
      "start": 37.931,
      "duration": 0.0161,
      "velocity": 115,
      "chip": "ym2612"
    },
    {
      "channel": 4,
      "note": 81,
      "start": 37.9322,
      "duration": 0.0161,
      "velocity": 97,
      "chip": "ym2612"
    },
    {
      "channel": 3,
      "note": 84,
      "start": 37.9333,
      "duration": 0.0161,
      "velocity": 97,
      "chip": "ym2612"
    },
    {
      "channel": 0,
      "note": 42,
      "start": 37.9471,
      "duration": 0.0161,
      "velocity": 115,
      "chip": "ym2612"
    },
    {
      "channel": 4,
      "note": 81,
      "start": 37.9483,
      "duration": 0.0161,
      "velocity": 97,
      "chip": "ym2612"
    },
    {
      "channel": 3,
      "note": 84,
      "start": 37.9494,
      "duration": 0.0161,
      "velocity": 97,
      "chip": "ym2612"
    },
    {
      "channel": 0,
      "note": 43,
      "start": 37.9632,
      "duration": 0.0161,
      "velocity": 115,
      "chip": "ym2612"
    },
    {
      "channel": 4,
      "note": 81,
      "start": 37.9644,
      "duration": 0.0161,
      "velocity": 97,
      "chip": "ym2612"
    },
    {
      "channel": 3,
      "note": 84,
      "start": 37.9655,
      "duration": 0.0162,
      "velocity": 97,
      "chip": "ym2612"
    },
    {
      "channel": 0,
      "note": 43,
      "start": 37.9793,
      "duration": 0.0161,
      "velocity": 115,
      "chip": "ym2612"
    },
    {
      "channel": 4,
      "note": 81,
      "start": 37.9805,
      "duration": 0.0161,
      "velocity": 97,
      "chip": "ym2612"
    },
    {
      "channel": 3,
      "note": 84,
      "start": 37.9817,
      "duration": 0.016,
      "velocity": 97,
      "chip": "ym2612"
    },
    {
      "channel": 0,
      "note": 44,
      "start": 37.9954,
      "duration": 0.0161,
      "velocity": 115,
      "chip": "ym2612"
    },
    {
      "channel": 4,
      "note": 81,
      "start": 37.9966,
      "duration": 0.0161,
      "velocity": 97,
      "chip": "ym2612"
    },
    {
      "channel": 3,
      "note": 84,
      "start": 37.9977,
      "duration": 0.0161,
      "velocity": 97,
      "chip": "ym2612"
    },
    {
      "channel": 0,
      "note": 44,
      "start": 38.0114,
      "duration": 0.0161,
      "velocity": 115,
      "chip": "ym2612"
    },
    {
      "channel": 4,
      "note": 81,
      "start": 38.0127,
      "duration": 0.0161,
      "velocity": 97,
      "chip": "ym2612"
    },
    {
      "channel": 3,
      "note": 84,
      "start": 38.0138,
      "duration": 0.0162,
      "velocity": 97,
      "chip": "ym2612"
    },
    {
      "channel": 0,
      "note": 44,
      "start": 38.0275,
      "duration": 0.0165,
      "velocity": 115,
      "chip": "ym2612"
    },
    {
      "channel": 4,
      "note": 81,
      "start": 38.0288,
      "duration": 0.0164,
      "velocity": 97,
      "chip": "ym2612"
    },
    {
      "channel": 3,
      "note": 84,
      "start": 38.03,
      "duration": 0.0164,
      "velocity": 97,
      "chip": "ym2612"
    },
    {
      "channel": 0,
      "note": 45,
      "start": 38.044,
      "duration": 0.0167,
      "velocity": 115,
      "chip": "ym2612"
    },
    {
      "channel": 4,
      "note": 81,
      "start": 38.0451,
      "duration": 0.0167,
      "velocity": 97,
      "chip": "ym2612"
    },
    {
      "channel": 3,
      "note": 84,
      "start": 38.0464,
      "duration": 0.0167,
      "velocity": 97,
      "chip": "ym2612"
    },
    {
      "channel": 0,
      "note": 45,
      "start": 38.0607,
      "duration": 0.0163,
      "velocity": 115,
      "chip": "ym2612"
    },
    {
      "channel": 4,
      "note": 81,
      "start": 38.0618,
      "duration": 0.0163,
      "velocity": 97,
      "chip": "ym2612"
    },
    {
      "channel": 3,
      "note": 84,
      "start": 38.063,
      "duration": 0.0163,
      "velocity": 97,
      "chip": "ym2612"
    },
    {
      "channel": 0,
      "note": 46,
      "start": 38.077,
      "duration": 0.015,
      "velocity": 115,
      "chip": "ym2612"
    },
    {
      "channel": 4,
      "note": 81,
      "start": 38.0782,
      "duration": 0.015,
      "velocity": 97,
      "chip": "ym2612"
    },
    {
      "channel": 3,
      "note": 84,
      "start": 38.0793,
      "duration": 0.015,
      "velocity": 97,
      "chip": "ym2612"
    },
    {
      "channel": 0,
      "note": 46,
      "start": 38.092,
      "duration": 0.0204,
      "velocity": 115,
      "chip": "ym2612"
    },
    {
      "channel": 4,
      "note": 81,
      "start": 38.0932,
      "duration": 0.0205,
      "velocity": 97,
      "chip": "ym2612"
    },
    {
      "channel": 3,
      "note": 84,
      "start": 38.0943,
      "duration": 0.0205,
      "velocity": 97,
      "chip": "ym2612"
    },
    {
      "channel": 0,
      "note": 36,
      "start": 38.1124,
      "duration": 0.0145,
      "velocity": 115,
      "chip": "ym2612"
    },
    {
      "channel": 4,
      "note": 81,
      "start": 38.1137,
      "duration": 0.0145,
      "velocity": 97,
      "chip": "ym2612"
    },
    {
      "channel": 3,
      "note": 84,
      "start": 38.1148,
      "duration": 0.0145,
      "velocity": 97,
      "chip": "ym2612"
    },
    {
      "channel": 2,
      "note": 65,
      "start": 38.1162,
      "duration": 0.0143,
      "velocity": 100,
      "chip": "ym2612"
    },
    {
      "channel": 1,
      "note": 53,
      "start": 38.1176,
      "duration": 0.0141,
      "velocity": 100,
      "chip": "ym2612"
    },
    {
      "channel": 0,
      "note": 36,
      "start": 38.127,
      "duration": 0.0157,
      "velocity": 115,
      "chip": "ym2612"
    },
    {
      "channel": 4,
      "note": 81,
      "start": 38.1282,
      "duration": 0.0156,
      "velocity": 97,
      "chip": "ym2612"
    },
    {
      "channel": 3,
      "note": 84,
      "start": 38.1293,
      "duration": 0.0157,
      "velocity": 97,
      "chip": "ym2612"
    },
    {
      "channel": 2,
      "note": 65,
      "start": 38.1305,
      "duration": 0.0156,
      "velocity": 100,
      "chip": "ym2612"
    },
    {
      "channel": 1,
      "note": 53,
      "start": 38.1317,
      "duration": 0.0156,
      "velocity": 100,
      "chip": "ym2612"
    },
    {
      "channel": 0,
      "note": 37,
      "start": 38.1427,
      "duration": 0.014,
      "velocity": 115,
      "chip": "ym2612"
    },
    {
      "channel": 4,
      "note": 81,
      "start": 38.1438,
      "duration": 0.0141,
      "velocity": 97,
      "chip": "ym2612"
    },
    {
      "channel": 3,
      "note": 84,
      "start": 38.145,
      "duration": 0.014,
      "velocity": 97,
      "chip": "ym2612"
    },
    {
      "channel": 2,
      "note": 65,
      "start": 38.1461,
      "duration": 0.0141,
      "velocity": 100,
      "chip": "ym2612"
    },
    {
      "channel": 1,
      "note": 53,
      "start": 38.1473,
      "duration": 0.0141,
      "velocity": 100,
      "chip": "ym2612"
    },
    {
      "channel": 0,
      "note": 37,
      "start": 38.1567,
      "duration": 0.0159,
      "velocity": 115,
      "chip": "ym2612"
    },
    {
      "channel": 4,
      "note": 81,
      "start": 38.1579,
      "duration": 0.0185,
      "velocity": 97,
      "chip": "ym2612"
    },
    {
      "channel": 3,
      "note": 84,
      "start": 38.159,
      "duration": 0.0186,
      "velocity": 97,
      "chip": "ym2612"
    },
    {
      "channel": 2,
      "note": 65,
      "start": 38.1602,
      "duration": 0.0185,
      "velocity": 100,
      "chip": "ym2612"
    },
    {
      "channel": 1,
      "note": 53,
      "start": 38.1613,
      "duration": 0.0185,
      "velocity": 100,
      "chip": "ym2612"
    },
    {
      "channel": 0,
      "note": 38,
      "start": 38.1725,
      "duration": 0.0161,
      "velocity": 115,
      "chip": "ym2612"
    },
    {
      "channel": 4,
      "note": 81,
      "start": 38.1764,
      "duration": 0.0161,
      "velocity": 97,
      "chip": "ym2612"
    },
    {
      "channel": 3,
      "note": 84,
      "start": 38.1776,
      "duration": 0.0161,
      "velocity": 97,
      "chip": "ym2612"
    },
    {
      "channel": 2,
      "note": 65,
      "start": 38.1787,
      "duration": 0.0161,
      "velocity": 100,
      "chip": "ym2612"
    },
    {
      "channel": 1,
      "note": 53,
      "start": 38.1798,
      "duration": 0.0162,
      "velocity": 100,
      "chip": "ym2612"
    },
    {
      "channel": 0,
      "note": 38,
      "start": 38.1886,
      "duration": 0.0161,
      "velocity": 115,
      "chip": "ym2612"
    },
    {
      "channel": 4,
      "note": 81,
      "start": 38.1925,
      "duration": 0.0133,
      "velocity": 97,
      "chip": "ym2612"
    },
    {
      "channel": 3,
      "note": 84,
      "start": 38.1937,
      "duration": 0.0157,
      "velocity": 97,
      "chip": "ym2612"
    },
    {
      "channel": 2,
      "note": 65,
      "start": 38.1948,
      "duration": 0.0157,
      "velocity": 100,
      "chip": "ym2612"
    },
    {
      "channel": 1,
      "note": 53,
      "start": 38.196,
      "duration": 0.0157,
      "velocity": 100,
      "chip": "ym2612"
    },
    {
      "channel": 0,
      "note": 39,
      "start": 38.2047,
      "duration": 0.0161,
      "velocity": 115,
      "chip": "ym2612"
    },
    {
      "channel": 4,
      "note": 81,
      "start": 38.2059,
      "duration": 0.0161,
      "velocity": 97,
      "chip": "ym2612"
    },
    {
      "channel": 3,
      "note": 84,
      "start": 38.2094,
      "duration": 0.0141,
      "velocity": 97,
      "chip": "ym2612"
    },
    {
      "channel": 2,
      "note": 65,
      "start": 38.2105,
      "duration": 0.0141,
      "velocity": 100,
      "chip": "ym2612"
    },
    {
      "channel": 1,
      "note": 53,
      "start": 38.2117,
      "duration": 0.0141,
      "velocity": 100,
      "chip": "ym2612"
    },
    {
      "channel": 0,
      "note": 39,
      "start": 38.2208,
      "duration": 0.0161,
      "velocity": 115,
      "chip": "ym2612"
    },
    {
      "channel": 4,
      "note": 81,
      "start": 38.222,
      "duration": 0.0161,
      "velocity": 97,
      "chip": "ym2612"
    },
    {
      "channel": 3,
      "note": 84,
      "start": 38.2235,
      "duration": 0.0185,
      "velocity": 97,
      "chip": "ym2612"
    },
    {
      "channel": 2,
      "note": 65,
      "start": 38.2246,
      "duration": 0.0185,
      "velocity": 100,
      "chip": "ym2612"
    },
    {
      "channel": 1,
      "note": 53,
      "start": 38.2258,
      "duration": 0.0185,
      "velocity": 100,
      "chip": "ym2612"
    },
    {
      "channel": 0,
      "note": 40,
      "start": 38.2369,
      "duration": 0.0161,
      "velocity": 115,
      "chip": "ym2612"
    },
    {
      "channel": 4,
      "note": 81,
      "start": 38.2381,
      "duration": 0.0161,
      "velocity": 97,
      "chip": "ym2612"
    },
    {
      "channel": 3,
      "note": 84,
      "start": 38.242,
      "duration": 0.0134,
      "velocity": 97,
      "chip": "ym2612"
    },
    {
      "channel": 2,
      "note": 65,
      "start": 38.2431,
      "duration": 0.0161,
      "velocity": 100,
      "chip": "ym2612"
    },
    {
      "channel": 1,
      "note": 53,
      "start": 38.2443,
      "duration": 0.0161,
      "velocity": 100,
      "chip": "ym2612"
    },
    {
      "channel": 0,
      "note": 40,
      "start": 38.253,
      "duration": 0.0161,
      "velocity": 115,
      "chip": "ym2612"
    },
    {
      "channel": 4,
      "note": 81,
      "start": 38.2542,
      "duration": 0.0161,
      "velocity": 97,
      "chip": "ym2612"
    },
    {
      "channel": 3,
      "note": 84,
      "start": 38.2553,
      "duration": 0.0161,
      "velocity": 97,
      "chip": "ym2612"
    },
    {
      "channel": 2,
      "note": 65,
      "start": 38.2592,
      "duration": 0.0134,
      "velocity": 100,
      "chip": "ym2612"
    },
    {
      "channel": 1,
      "note": 53,
      "start": 38.2604,
      "duration": 0.0157,
      "velocity": 100,
      "chip": "ym2612"
    },
    {
      "channel": 0,
      "note": 40,
      "start": 38.2691,
      "duration": 0.0161,
      "velocity": 115,
      "chip": "ym2612"
    },
    {
      "channel": 4,
      "note": 81,
      "start": 38.2703,
      "duration": 0.0161,
      "velocity": 97,
      "chip": "ym2612"
    },
    {
      "channel": 3,
      "note": 84,
      "start": 38.2714,
      "duration": 0.0161,
      "velocity": 97,
      "chip": "ym2612"
    },
    {
      "channel": 0,
      "note": 41,
      "start": 38.2852,
      "duration": 0.0195,
      "velocity": 115,
      "chip": "ym2612"
    },
    {
      "channel": 4,
      "note": 81,
      "start": 38.2864,
      "duration": 0.0223,
      "velocity": 97,
      "chip": "ym2612"
    },
    {
      "channel": 3,
      "note": 84,
      "start": 38.2875,
      "duration": 0.0223,
      "velocity": 97,
      "chip": "ym2612"
    },
    {
      "channel": 1,
      "note": 78,
      "start": 38.303,
      "duration": 0.0144,
      "velocity": 124,
      "chip": "ym2612"
    },
    {
      "channel": 0,
      "note": 41,
      "start": 38.3047,
      "duration": 0.0144,
      "velocity": 115,
      "chip": "ym2612"
    },
    {
      "channel": 4,
      "note": 81,
      "start": 38.3086,
      "duration": 0.0116,
      "velocity": 97,
      "chip": "ym2612"
    },
    {
      "channel": 3,
      "note": 84,
      "start": 38.3098,
      "duration": 0.0116,
      "velocity": 97,
      "chip": "ym2612"
    },
    {
      "channel": 2,
      "note": 60,
      "start": 38.3112,
      "duration": 0.0142,
      "velocity": 100,
      "chip": "ym2612"
    },
    {
      "channel": 1,
      "note": 76,
      "start": 38.3173,
      "duration": 0.016,
      "velocity": 124,
      "chip": "ym2612"
    },
    {
      "channel": 0,
      "note": 42,
      "start": 38.3191,
      "duration": 0.0161,
      "velocity": 115,
      "chip": "ym2612"
    },
    {
      "channel": 4,
      "note": 81,
      "start": 38.3203,
      "duration": 0.016,
      "velocity": 97,
      "chip": "ym2612"
    },
    {
      "channel": 3,
      "note": 84,
      "start": 38.3214,
      "duration": 0.0161,
      "velocity": 97,
      "chip": "ym2612"
    },
    {
      "channel": 2,
      "note": 60,
      "start": 38.3254,
      "duration": 0.0132,
      "velocity": 100,
      "chip": "ym2612"
    },
    {
      "channel": 1,
      "note": 75,
      "start": 38.3334,
      "duration": 0.0161,
      "velocity": 124,
      "chip": "ym2612"
    },
    {
      "channel": 0,
      "note": 42,
      "start": 38.3352,
      "duration": 0.0161,
      "velocity": 115,
      "chip": "ym2612"
    },
    {
      "channel": 4,
      "note": 81,
      "start": 38.3363,
      "duration": 0.0161,
      "velocity": 97,
      "chip": "ym2612"
    },
    {
      "channel": 3,
      "note": 84,
      "start": 38.3375,
      "duration": 0.0161,
      "velocity": 97,
      "chip": "ym2612"
    },
    {
      "channel": 2,
      "note": 60,
      "start": 38.3386,
      "duration": 0.0161,
      "velocity": 100,
      "chip": "ym2612"
    },
    {
      "channel": 1,
      "note": 74,
      "start": 38.3495,
      "duration": 0.0162,
      "velocity": 124,
      "chip": "ym2612"
    },
    {
      "channel": 0,
      "note": 43,
      "start": 38.3513,
      "duration": 0.0161,
      "velocity": 115,
      "chip": "ym2612"
    },
    {
      "channel": 4,
      "note": 81,
      "start": 38.3524,
      "duration": 0.0162,
      "velocity": 97,
      "chip": "ym2612"
    },
    {
      "channel": 3,
      "note": 84,
      "start": 38.3536,
      "duration": 0.0161,
      "velocity": 97,
      "chip": "ym2612"
    },
    {
      "channel": 2,
      "note": 60,
      "start": 38.3547,
      "duration": 0.0162,
      "velocity": 100,
      "chip": "ym2612"
    },
    {
      "channel": 1,
      "note": 72,
      "start": 38.3656,
      "duration": 0.0161,
      "velocity": 124,
      "chip": "ym2612"
    },
    {
      "channel": 0,
      "note": 43,
      "start": 38.3673,
      "duration": 0.0161,
      "velocity": 115,
      "chip": "ym2612"
    },
    {
      "channel": 4,
      "note": 81,
      "start": 38.3686,
      "duration": 0.0161,
      "velocity": 97,
      "chip": "ym2612"
    },
    {
      "channel": 3,
      "note": 84,
      "start": 38.3697,
      "duration": 0.0161,
      "velocity": 97,
      "chip": "ym2612"
    },
    {
      "channel": 2,
      "note": 60,
      "start": 38.3709,
      "duration": 0.0161,
      "velocity": 100,
      "chip": "ym2612"
    },
    {
      "channel": 1,
      "note": 71,
      "start": 38.3817,
      "duration": 0.0161,
      "velocity": 124,
      "chip": "ym2612"
    },
    {
      "channel": 0,
      "note": 44,
      "start": 38.3834,
      "duration": 0.0161,
      "velocity": 115,
      "chip": "ym2612"
    },
    {
      "channel": 4,
      "note": 81,
      "start": 38.3846,
      "duration": 0.0161,
      "velocity": 97,
      "chip": "ym2612"
    },
    {
      "channel": 3,
      "note": 84,
      "start": 38.3858,
      "duration": 0.0161,
      "velocity": 97,
      "chip": "ym2612"
    },
    {
      "channel": 2,
      "note": 60,
      "start": 38.3869,
      "duration": 0.0161,
      "velocity": 100,
      "chip": "ym2612"
    },
    {
      "channel": 1,
      "note": 70,
      "start": 38.3978,
      "duration": 0.0161,
      "velocity": 124,
      "chip": "ym2612"
    },
    {
      "channel": 0,
      "note": 44,
      "start": 38.3995,
      "duration": 0.0161,
      "velocity": 115,
      "chip": "ym2612"
    },
    {
      "channel": 4,
      "note": 81,
      "start": 38.4007,
      "duration": 0.0161,
      "velocity": 97,
      "chip": "ym2612"
    },
    {
      "channel": 3,
      "note": 84,
      "start": 38.4019,
      "duration": 0.0161,
      "velocity": 97,
      "chip": "ym2612"
    },
    {
      "channel": 2,
      "note": 60,
      "start": 38.403,
      "duration": 0.0161,
      "velocity": 100,
      "chip": "ym2612"
    },
    {
      "channel": 1,
      "note": 69,
      "start": 38.4139,
      "duration": 0.0161,
      "velocity": 124,
      "chip": "ym2612"
    },
    {
      "channel": 0,
      "note": 44,
      "start": 38.4156,
      "duration": 0.0161,
      "velocity": 115,
      "chip": "ym2612"
    },
    {
      "channel": 4,
      "note": 81,
      "start": 38.4168,
      "duration": 0.0161,
      "velocity": 97,
      "chip": "ym2612"
    },
    {
      "channel": 3,
      "note": 84,
      "start": 38.418,
      "duration": 0.0161,
      "velocity": 97,
      "chip": "ym2612"
    },
    {
      "channel": 2,
      "note": 60,
      "start": 38.4191,
      "duration": 0.0161,
      "velocity": 100,
      "chip": "ym2612"
    },
    {
      "channel": 1,
      "note": 68,
      "start": 38.43,
      "duration": 0.0161,
      "velocity": 124,
      "chip": "ym2612"
    },
    {
      "channel": 0,
      "note": 45,
      "start": 38.4317,
      "duration": 0.0161,
      "velocity": 115,
      "chip": "ym2612"
    },
    {
      "channel": 4,
      "note": 81,
      "start": 38.4329,
      "duration": 0.0161,
      "velocity": 97,
      "chip": "ym2612"
    },
    {
      "channel": 3,
      "note": 84,
      "start": 38.4341,
      "duration": 0.0161,
      "velocity": 97,
      "chip": "ym2612"
    },
    {
      "channel": 2,
      "note": 60,
      "start": 38.4352,
      "duration": 0.0161,
      "velocity": 100,
      "chip": "ym2612"
    },
    {
      "channel": 1,
      "note": 66,
      "start": 38.4461,
      "duration": 0.0161,
      "velocity": 124,
      "chip": "ym2612"
    },
    {
      "channel": 0,
      "note": 45,
      "start": 38.4478,
      "duration": 0.0161,
      "velocity": 115,
      "chip": "ym2612"
    },
    {
      "channel": 4,
      "note": 81,
      "start": 38.449,
      "duration": 0.0161,
      "velocity": 97,
      "chip": "ym2612"
    },
    {
      "channel": 3,
      "note": 84,
      "start": 38.4502,
      "duration": 0.0161,
      "velocity": 97,
      "chip": "ym2612"
    },
    {
      "channel": 2,
      "note": 60,
      "start": 38.4513,
      "duration": 0.0161,
      "velocity": 100,
      "chip": "ym2612"
    },
    {
      "channel": 1,
      "note": 65,
      "start": 38.4622,
      "duration": 0.0161,
      "velocity": 124,
      "chip": "ym2612"
    },
    {
      "channel": 0,
      "note": 46,
      "start": 38.4639,
      "duration": 0.0161,
      "velocity": 115,
      "chip": "ym2612"
    },
    {
      "channel": 4,
      "note": 81,
      "start": 38.4651,
      "duration": 0.0161,
      "velocity": 97,
      "chip": "ym2612"
    },
    {
      "channel": 3,
      "note": 84,
      "start": 38.4663,
      "duration": 0.0161,
      "velocity": 97,
      "chip": "ym2612"
    },
    {
      "channel": 1,
      "note": 64,
      "start": 38.4783,
      "duration": 0.0161,
      "velocity": 124,
      "chip": "ym2612"
    },
    {
      "channel": 0,
      "note": 46,
      "start": 38.48,
      "duration": 0.0179,
      "velocity": 115,
      "chip": "ym2612"
    },
    {
      "channel": 4,
      "note": 81,
      "start": 38.4812,
      "duration": 0.0179,
      "velocity": 97,
      "chip": "ym2612"
    },
    {
      "channel": 3,
      "note": 84,
      "start": 38.4824,
      "duration": 0.018,
      "velocity": 97,
      "chip": "ym2612"
    },
    {
      "channel": 1,
      "note": 62,
      "start": 38.4944,
      "duration": 0.0161,
      "velocity": 124,
      "chip": "ym2612"
    },
    {
      "channel": 0,
      "note": 36,
      "start": 38.498,
      "duration": 0.0144,
      "velocity": 115,
      "chip": "ym2612"
    },
    {
      "channel": 4,
      "note": 81,
      "start": 38.4992,
      "duration": 0.0144,
      "velocity": 97,
      "chip": "ym2612"
    },
    {
      "channel": 3,
      "note": 84,
      "start": 38.5003,
      "duration": 0.0144,
      "velocity": 97,
      "chip": "ym2612"
    },
    {
      "channel": 2,
      "note": 56,
      "start": 38.5017,
      "duration": 0.0142,
      "velocity": 100,
      "chip": "ym2612"
    },
    {
      "channel": 1,
      "note": 61,
      "start": 38.5105,
      "duration": 0.0167,
      "velocity": 124,
      "chip": "ym2612"
    },
    {
      "channel": 0,
      "note": 36,
      "start": 38.5123,
      "duration": 0.0167,
      "velocity": 115,
      "chip": "ym2612"
    },
    {
      "channel": 4,
      "note": 81,
      "start": 38.5135,
      "duration": 0.0167,
      "velocity": 97,
      "chip": "ym2612"
    },
    {
      "channel": 3,
      "note": 84,
      "start": 38.5147,
      "duration": 0.0167,
      "velocity": 97,
      "chip": "ym2612"
    },
    {
      "channel": 2,
      "note": 56,
      "start": 38.5159,
      "duration": 0.0166,
      "velocity": 100,
      "chip": "ym2612"
    },
    {
      "channel": 1,
      "note": 60,
      "start": 38.5273,
      "duration": 0.0163,
      "velocity": 124,
      "chip": "ym2612"
    },
    {
      "channel": 0,
      "note": 37,
      "start": 38.529,
      "duration": 0.0163,
      "velocity": 115,
      "chip": "ym2612"
    },
    {
      "channel": 4,
      "note": 81,
      "start": 38.5302,
      "duration": 0.0163,
      "velocity": 97,
      "chip": "ym2612"
    },
    {
      "channel": 3,
      "note": 84,
      "start": 38.5314,
      "duration": 0.0163,
      "velocity": 97,
      "chip": "ym2612"
    },
    {
      "channel": 2,
      "note": 56,
      "start": 38.5325,
      "duration": 0.0163,
      "velocity": 100,
      "chip": "ym2612"
    },
    {
      "channel": 1,
      "note": 59,
      "start": 38.5436,
      "duration": 0.0153,
      "velocity": 124,
      "chip": "ym2612"
    },
    {
      "channel": 0,
      "note": 37,
      "start": 38.5453,
      "duration": 0.0153,
      "velocity": 115,
      "chip": "ym2612"
    },
    {
      "channel": 4,
      "note": 81,
      "start": 38.5465,
      "duration": 0.0153,
      "velocity": 97,
      "chip": "ym2612"
    },
    {
      "channel": 3,
      "note": 84,
      "start": 38.5476,
      "duration": 0.0153,
      "velocity": 97,
      "chip": "ym2612"
    },
    {
      "channel": 2,
      "note": 56,
      "start": 38.5488,
      "duration": 0.0153,
      "velocity": 100,
      "chip": "ym2612"
    },
    {
      "channel": 1,
      "note": 57,
      "start": 38.5588,
      "duration": 0.0184,
      "velocity": 124,
      "chip": "ym2612"
    },
    {
      "channel": 0,
      "note": 38,
      "start": 38.5605,
      "duration": 0.0184,
      "velocity": 115,
      "chip": "ym2612"
    },
    {
      "channel": 4,
      "note": 81,
      "start": 38.5618,
      "duration": 0.0184,
      "velocity": 97,
      "chip": "ym2612"
    },
    {
      "channel": 3,
      "note": 84,
      "start": 38.5629,
      "duration": 0.0184,
      "velocity": 97,
      "chip": "ym2612"
    },
    {
      "channel": 2,
      "note": 56,
      "start": 38.5641,
      "duration": 0.0184,
      "velocity": 100,
      "chip": "ym2612"
    },
    {
      "channel": 1,
      "note": 56,
      "start": 38.5772,
      "duration": 0.0166,
      "velocity": 124,
      "chip": "ym2612"
    },
    {
      "channel": 0,
      "note": 38,
      "start": 38.5789,
      "duration": 0.0165,
      "velocity": 115,
      "chip": "ym2612"
    },
    {
      "channel": 4,
      "note": 81,
      "start": 38.5801,
      "duration": 0.0166,
      "velocity": 97,
      "chip": "ym2612"
    },
    {
      "channel": 3,
      "note": 84,
      "start": 38.5813,
      "duration": 0.0166,
      "velocity": 97,
      "chip": "ym2612"
    },
    {
      "channel": 2,
      "note": 56,
      "start": 38.5824,
      "duration": 0.0166,
      "velocity": 100,
      "chip": "ym2612"
    },
    {
      "channel": 1,
      "note": 55,
      "start": 38.5938,
      "duration": 0.0158,
      "velocity": 124,
      "chip": "ym2612"
    },
    {
      "channel": 0,
      "note": 39,
      "start": 38.5955,
      "duration": 0.0158,
      "velocity": 115,
      "chip": "ym2612"
    },
    {
      "channel": 4,
      "note": 81,
      "start": 38.5967,
      "duration": 0.0158,
      "velocity": 97,
      "chip": "ym2612"
    },
    {
      "channel": 3,
      "note": 84,
      "start": 38.5979,
      "duration": 0.0157,
      "velocity": 97,
      "chip": "ym2612"
    },
    {
      "channel": 2,
      "note": 56,
      "start": 38.599,
      "duration": 0.0158,
      "velocity": 100,
      "chip": "ym2612"
    },
    {
      "channel": 1,
      "note": 53,
      "start": 38.6095,
      "duration": 0.014,
      "velocity": 124,
      "chip": "ym2612"
    },
    {
      "channel": 0,
      "note": 39,
      "start": 38.6112,
      "duration": 0.014,
      "velocity": 115,
      "chip": "ym2612"
    },
    {
      "channel": 4,
      "note": 81,
      "start": 38.6124,
      "duration": 0.014,
      "velocity": 97,
      "chip": "ym2612"
    },
    {
      "channel": 3,
      "note": 84,
      "start": 38.6136,
      "duration": 0.0141,
      "velocity": 97,
      "chip": "ym2612"
    },
    {
      "channel": 2,
      "note": 56,
      "start": 38.6147,
      "duration": 0.0141,
      "velocity": 100,
      "chip": "ym2612"
    },
    {
      "channel": 1,
      "note": 52,
      "start": 38.6235,
      "duration": 0.0186,
      "velocity": 124,
      "chip": "ym2612"
    },
    {
      "channel": 0,
      "note": 40,
      "start": 38.6252,
      "duration": 0.0186,
      "velocity": 115,
      "chip": "ym2612"
    },
    {
      "channel": 4,
      "note": 81,
      "start": 38.6265,
      "duration": 0.0186,
      "velocity": 97,
      "chip": "ym2612"
    },
    {
      "channel": 3,
      "note": 84,
      "start": 38.6277,
      "duration": 0.0185,
      "velocity": 97,
      "chip": "ym2612"
    },
    {
      "channel": 2,
      "note": 56,
      "start": 38.6288,
      "duration": 0.0185,
      "velocity": 100,
      "chip": "ym2612"
    },
    {
      "channel": 1,
      "note": 51,
      "start": 38.6421,
      "duration": 0.0125,
      "velocity": 1,
      "chip": "ym2612"
    },
    {
      "channel": 0,
      "note": 40,
      "start": 38.6438,
      "duration": 0.0153,
      "velocity": 115,
      "chip": "ym2612"
    },
    {
      "channel": 4,
      "note": 81,
      "start": 38.645,
      "duration": 0.0153,
      "velocity": 97,
      "chip": "ym2612"
    },
    {
      "channel": 3,
      "note": 84,
      "start": 38.6462,
      "duration": 0.0153,
      "velocity": 97,
      "chip": "ym2612"
    },
    {
      "channel": 2,
      "note": 56,
      "start": 38.6473,
      "duration": 0.0153,
      "velocity": 100,
      "chip": "ym2612"
    },
    {
      "channel": 0,
      "note": 40,
      "start": 38.6591,
      "duration": 0.0125,
      "velocity": 115,
      "chip": "ym2612"
    },
    {
      "channel": 4,
      "note": 81,
      "start": 38.6603,
      "duration": 0.0149,
      "velocity": 97,
      "chip": "ym2612"
    },
    {
      "channel": 3,
      "note": 84,
      "start": 38.6614,
      "duration": 0.015,
      "velocity": 97,
      "chip": "ym2612"
    },
    {
      "channel": 0,
      "note": 41,
      "start": 38.6716,
      "duration": 0.0182,
      "velocity": 115,
      "chip": "ym2612"
    },
    {
      "channel": 4,
      "note": 81,
      "start": 38.6752,
      "duration": 0.0159,
      "velocity": 97,
      "chip": "ym2612"
    },
    {
      "channel": 3,
      "note": 84,
      "start": 38.6764,
      "duration": 0.0158,
      "velocity": 97,
      "chip": "ym2612"
    },
    {
      "channel": 0,
      "note": 36,
      "start": 38.6898,
      "duration": 0.0141,
      "velocity": 115,
      "chip": "ym2612"
    },
    {
      "channel": 4,
      "note": 81,
      "start": 38.691,
      "duration": 0.0141,
      "velocity": 97,
      "chip": "ym2612"
    },
    {
      "channel": 3,
      "note": 84,
      "start": 38.6922,
      "duration": 0.0167,
      "velocity": 97,
      "chip": "ym2612"
    },
    {
      "channel": 2,
      "note": 53,
      "start": 38.6937,
      "duration": 0.0165,
      "velocity": 100,
      "chip": "ym2612"
    },
    {
      "channel": 1,
      "note": 41,
      "start": 38.6952,
      "duration": 0.0162,
      "velocity": 100,
      "chip": "ym2612"
    },
    {
      "channel": 0,
      "note": 36,
      "start": 38.7039,
      "duration": 0.016,
      "velocity": 115,
      "chip": "ym2612"
    },
    {
      "channel": 4,
      "note": 81,
      "start": 38.7051,
      "duration": 0.016,
      "velocity": 97,
      "chip": "ym2612"
    },
    {
      "channel": 3,
      "note": 84,
      "start": 38.709,
      "duration": 0.0133,
      "velocity": 97,
      "chip": "ym2612"
    },
    {
      "channel": 2,
      "note": 53,
      "start": 38.7102,
      "duration": 0.016,
      "velocity": 100,
      "chip": "ym2612"
    },
    {
      "channel": 1,
      "note": 41,
      "start": 38.7114,
      "duration": 0.0159,
      "velocity": 100,
      "chip": "ym2612"
    },
    {
      "channel": 0,
      "note": 37,
      "start": 38.7199,
      "duration": 0.0161,
      "velocity": 115,
      "chip": "ym2612"
    },
    {
      "channel": 4,
      "note": 81,
      "start": 38.7211,
      "duration": 0.0161,
      "velocity": 97,
      "chip": "ym2612"
    },
    {
      "channel": 3,
      "note": 84,
      "start": 38.7222,
      "duration": 0.0161,
      "velocity": 97,
      "chip": "ym2612"
    },
    {
      "channel": 2,
      "note": 53,
      "start": 38.7261,
      "duration": 0.0158,
      "velocity": 100,
      "chip": "ym2612"
    },
    {
      "channel": 1,
      "note": 41,
      "start": 38.7273,
      "duration": 0.0158,
      "velocity": 100,
      "chip": "ym2612"
    },
    {
      "channel": 0,
      "note": 37,
      "start": 38.736,
      "duration": 0.0161,
      "velocity": 115,
      "chip": "ym2612"
    },
    {
      "channel": 4,
      "note": 81,
      "start": 38.7372,
      "duration": 0.0161,
      "velocity": 97,
      "chip": "ym2612"
    },
    {
      "channel": 3,
      "note": 84,
      "start": 38.7383,
      "duration": 0.0162,
      "velocity": 97,
      "chip": "ym2612"
    },
    {
      "channel": 2,
      "note": 53,
      "start": 38.7419,
      "duration": 0.0137,
      "velocity": 100,
      "chip": "ym2612"
    },
    {
      "channel": 1,
      "note": 41,
      "start": 38.7431,
      "duration": 0.014,
      "velocity": 100,
      "chip": "ym2612"
    },
    {
      "channel": 0,
      "note": 38,
      "start": 38.7521,
      "duration": 0.0162,
      "velocity": 115,
      "chip": "ym2612"
    },
    {
      "channel": 4,
      "note": 81,
      "start": 38.7533,
      "duration": 0.0161,
      "velocity": 97,
      "chip": "ym2612"
    },
    {
      "channel": 3,
      "note": 84,
      "start": 38.7545,
      "duration": 0.0161,
      "velocity": 97,
      "chip": "ym2612"
    },
    {
      "channel": 2,
      "note": 53,
      "start": 38.7556,
      "duration": 0.016,
      "velocity": 100,
      "chip": "ym2612"
    },
    {
      "channel": 1,
      "note": 41,
      "start": 38.7571,
      "duration": 0.0185,
      "velocity": 100,
      "chip": "ym2612"
    },
    {
      "channel": 0,
      "note": 38,
      "start": 38.7683,
      "duration": 0.0161,
      "velocity": 115,
      "chip": "ym2612"
    },
    {
      "channel": 4,
      "note": 81,
      "start": 38.7694,
      "duration": 0.0161,
      "velocity": 97,
      "chip": "ym2612"
    },
    {
      "channel": 3,
      "note": 84,
      "start": 38.7706,
      "duration": 0.0161,
      "velocity": 97,
      "chip": "ym2612"
    },
    {
      "channel": 2,
      "note": 53,
      "start": 38.7717,
      "duration": 0.0161,
      "velocity": 100,
      "chip": "ym2612"
    },
    {
      "channel": 1,
      "note": 41,
      "start": 38.7756,
      "duration": 0.0134,
      "velocity": 100,
      "chip": "ym2612"
    },
    {
      "channel": 0,
      "note": 39,
      "start": 38.7843,
      "duration": 0.0161,
      "velocity": 115,
      "chip": "ym2612"
    },
    {
      "channel": 4,
      "note": 81,
      "start": 38.7855,
      "duration": 0.0161,
      "velocity": 97,
      "chip": "ym2612"
    },
    {
      "channel": 3,
      "note": 84,
      "start": 38.7867,
      "duration": 0.0161,
      "velocity": 97,
      "chip": "ym2612"
    },
    {
      "channel": 2,
      "note": 53,
      "start": 38.7878,
      "duration": 0.0161,
      "velocity": 100,
      "chip": "ym2612"
    },
    {
      "channel": 1,
      "note": 41,
      "start": 38.7889,
      "duration": 0.0161,
      "velocity": 100,
      "chip": "ym2612"
    },
    {
      "channel": 0,
      "note": 39,
      "start": 38.8004,
      "duration": 0.0161,
      "velocity": 115,
      "chip": "ym2612"
    },
    {
      "channel": 4,
      "note": 81,
      "start": 38.8016,
      "duration": 0.0161,
      "velocity": 97,
      "chip": "ym2612"
    },
    {
      "channel": 3,
      "note": 84,
      "start": 38.8028,
      "duration": 0.0161,
      "velocity": 97,
      "chip": "ym2612"
    },
    {
      "channel": 2,
      "note": 53,
      "start": 38.8039,
      "duration": 0.0161,
      "velocity": 100,
      "chip": "ym2612"
    },
    {
      "channel": 1,
      "note": 41,
      "start": 38.805,
      "duration": 0.0161,
      "velocity": 100,
      "chip": "ym2612"
    },
    {
      "channel": 0,
      "note": 40,
      "start": 38.8165,
      "duration": 0.0161,
      "velocity": 115,
      "chip": "ym2612"
    },
    {
      "channel": 4,
      "note": 81,
      "start": 38.8177,
      "duration": 0.0161,
      "velocity": 97,
      "chip": "ym2612"
    },
    {
      "channel": 3,
      "note": 84,
      "start": 38.8189,
      "duration": 0.0161,
      "velocity": 97,
      "chip": "ym2612"
    },
    {
      "channel": 2,
      "note": 53,
      "start": 38.82,
      "duration": 0.0161,
      "velocity": 100,
      "chip": "ym2612"
    },
    {
      "channel": 1,
      "note": 41,
      "start": 38.8211,
      "duration": 0.0161,
      "velocity": 100,
      "chip": "ym2612"
    },
    {
      "channel": 0,
      "note": 40,
      "start": 38.8326,
      "duration": 0.0161,
      "velocity": 115,
      "chip": "ym2612"
    },
    {
      "channel": 4,
      "note": 81,
      "start": 38.8338,
      "duration": 0.0161,
      "velocity": 97,
      "chip": "ym2612"
    },
    {
      "channel": 3,
      "note": 84,
      "start": 38.835,
      "duration": 0.0161,
      "velocity": 97,
      "chip": "ym2612"
    },
    {
      "channel": 2,
      "note": 53,
      "start": 38.8361,
      "duration": 0.0161,
      "velocity": 100,
      "chip": "ym2612"
    },
    {
      "channel": 1,
      "note": 41,
      "start": 38.8373,
      "duration": 0.0161,
      "velocity": 100,
      "chip": "ym2612"
    },
    {
      "channel": 0,
      "note": 40,
      "start": 38.8487,
      "duration": 0.0161,
      "velocity": 115,
      "chip": "ym2612"
    },
    {
      "channel": 4,
      "note": 81,
      "start": 38.8499,
      "duration": 0.0161,
      "velocity": 97,
      "chip": "ym2612"
    },
    {
      "channel": 3,
      "note": 84,
      "start": 38.8511,
      "duration": 0.0161,
      "velocity": 97,
      "chip": "ym2612"
    },
    {
      "channel": 0,
      "note": 41,
      "start": 38.8648,
      "duration": 0.0161,
      "velocity": 115,
      "chip": "ym2612"
    },
    {
      "channel": 4,
      "note": 81,
      "start": 38.866,
      "duration": 0.0161,
      "velocity": 97,
      "chip": "ym2612"
    },
    {
      "channel": 3,
      "note": 84,
      "start": 38.8672,
      "duration": 0.0162,
      "velocity": 97,
      "chip": "ym2612"
    },
    {
      "channel": 0,
      "note": 41,
      "start": 38.8809,
      "duration": 0.0161,
      "velocity": 115,
      "chip": "ym2612"
    },
    {
      "channel": 4,
      "note": 81,
      "start": 38.8821,
      "duration": 0.0161,
      "velocity": 97,
      "chip": "ym2612"
    },
    {
      "channel": 3,
      "note": 84,
      "start": 38.8833,
      "duration": 0.016,
      "velocity": 97,
      "chip": "ym2612"
    },
    {
      "channel": 2,
      "note": 60,
      "start": 38.8847,
      "duration": 0.0159,
      "velocity": 100,
      "chip": "ym2612"
    },
    {
      "channel": 1,
      "note": 48,
      "start": 38.8861,
      "duration": 0.0156,
      "velocity": 100,
      "chip": "ym2612"
    },
    {
      "channel": 0,
      "note": 42,
      "start": 38.897,
      "duration": 0.0161,
      "velocity": 115,
      "chip": "ym2612"
    },
    {
      "channel": 4,
      "note": 81,
      "start": 38.8982,
      "duration": 0.0161,
      "velocity": 97,
      "chip": "ym2612"
    },
    {
      "channel": 3,
      "note": 84,
      "start": 38.8993,
      "duration": 0.0161,
      "velocity": 97,
      "chip": "ym2612"
    },
    {
      "channel": 2,
      "note": 60,
      "start": 38.9006,
      "duration": 0.016,
      "velocity": 100,
      "chip": "ym2612"
    },
    {
      "channel": 1,
      "note": 48,
      "start": 38.9017,
      "duration": 0.016,
      "velocity": 100,
      "chip": "ym2612"
    },
    {
      "channel": 0,
      "note": 42,
      "start": 38.9131,
      "duration": 0.0162,
      "velocity": 115,
      "chip": "ym2612"
    },
    {
      "channel": 4,
      "note": 81,
      "start": 38.9143,
      "duration": 0.0161,
      "velocity": 97,
      "chip": "ym2612"
    },
    {
      "channel": 3,
      "note": 84,
      "start": 38.9154,
      "duration": 0.0162,
      "velocity": 97,
      "chip": "ym2612"
    },
    {
      "channel": 2,
      "note": 60,
      "start": 38.9166,
      "duration": 0.0161,
      "velocity": 100,
      "chip": "ym2612"
    },
    {
      "channel": 1,
      "note": 48,
      "start": 38.9177,
      "duration": 0.0161,
      "velocity": 100,
      "chip": "ym2612"
    },
    {
      "channel": 0,
      "note": 43,
      "start": 38.9293,
      "duration": 0.0161,
      "velocity": 115,
      "chip": "ym2612"
    },
    {
      "channel": 4,
      "note": 81,
      "start": 38.9304,
      "duration": 0.0162,
      "velocity": 97,
      "chip": "ym2612"
    },
    {
      "channel": 3,
      "note": 84,
      "start": 38.9316,
      "duration": 0.0161,
      "velocity": 97,
      "chip": "ym2612"
    },
    {
      "channel": 2,
      "note": 60,
      "start": 38.9327,
      "duration": 0.0162,
      "velocity": 100,
      "chip": "ym2612"
    },
    {
      "channel": 1,
      "note": 48,
      "start": 38.9338,
      "duration": 0.0161,
      "velocity": 100,
      "chip": "ym2612"
    },
    {
      "channel": 0,
      "note": 43,
      "start": 38.9454,
      "duration": 0.0161,
      "velocity": 115,
      "chip": "ym2612"
    },
    {
      "channel": 4,
      "note": 81,
      "start": 38.9466,
      "duration": 0.0161,
      "velocity": 97,
      "chip": "ym2612"
    },
    {
      "channel": 3,
      "note": 84,
      "start": 38.9477,
      "duration": 0.0161,
      "velocity": 97,
      "chip": "ym2612"
    },
    {
      "channel": 2,
      "note": 60,
      "start": 38.9488,
      "duration": 0.0161,
      "velocity": 100,
      "chip": "ym2612"
    },
    {
      "channel": 1,
      "note": 48,
      "start": 38.9499,
      "duration": 0.0161,
      "velocity": 100,
      "chip": "ym2612"
    },
    {
      "channel": 0,
      "note": 44,
      "start": 38.9614,
      "duration": 0.0161,
      "velocity": 115,
      "chip": "ym2612"
    },
    {
      "channel": 4,
      "note": 81,
      "start": 38.9627,
      "duration": 0.0161,
      "velocity": 97,
      "chip": "ym2612"
    },
    {
      "channel": 3,
      "note": 84,
      "start": 38.9638,
      "duration": 0.0161,
      "velocity": 97,
      "chip": "ym2612"
    },
    {
      "channel": 2,
      "note": 60,
      "start": 38.9649,
      "duration": 0.0161,
      "velocity": 100,
      "chip": "ym2612"
    },
    {
      "channel": 1,
      "note": 48,
      "start": 38.9661,
      "duration": 0.0161,
      "velocity": 100,
      "chip": "ym2612"
    },
    {
      "channel": 0,
      "note": 44,
      "start": 38.9775,
      "duration": 0.0165,
      "velocity": 115,
      "chip": "ym2612"
    },
    {
      "channel": 4,
      "note": 81,
      "start": 38.9788,
      "duration": 0.0164,
      "velocity": 97,
      "chip": "ym2612"
    },
    {
      "channel": 3,
      "note": 84,
      "start": 38.9799,
      "duration": 0.0165,
      "velocity": 97,
      "chip": "ym2612"
    },
    {
      "channel": 2,
      "note": 60,
      "start": 38.981,
      "duration": 0.0164,
      "velocity": 100,
      "chip": "ym2612"
    },
    {
      "channel": 1,
      "note": 48,
      "start": 38.9822,
      "duration": 0.0164,
      "velocity": 100,
      "chip": "ym2612"
    },
    {
      "channel": 0,
      "note": 44,
      "start": 38.994,
      "duration": 0.0163,
      "velocity": 115,
      "chip": "ym2612"
    },
    {
      "channel": 4,
      "note": 81,
      "start": 38.9951,
      "duration": 0.0163,
      "velocity": 97,
      "chip": "ym2612"
    },
    {
      "channel": 3,
      "note": 84,
      "start": 38.9964,
      "duration": 0.0163,
      "velocity": 97,
      "chip": "ym2612"
    },
    {
      "channel": 2,
      "note": 60,
      "start": 38.9974,
      "duration": 0.0163,
      "velocity": 100,
      "chip": "ym2612"
    },
    {
      "channel": 1,
      "note": 48,
      "start": 38.9986,
      "duration": 0.0163,
      "velocity": 100,
      "chip": "ym2612"
    },
    {
      "channel": 0,
      "note": 45,
      "start": 39.0103,
      "duration": 0.0155,
      "velocity": 115,
      "chip": "ym2612"
    },
    {
      "channel": 4,
      "note": 81,
      "start": 39.0115,
      "duration": 0.0155,
      "velocity": 97,
      "chip": "ym2612"
    },
    {
      "channel": 3,
      "note": 84,
      "start": 39.0127,
      "duration": 0.0155,
      "velocity": 97,
      "chip": "ym2612"
    },
    {
      "channel": 2,
      "note": 60,
      "start": 39.0138,
      "duration": 0.0155,
      "velocity": 100,
      "chip": "ym2612"
    },
    {
      "channel": 1,
      "note": 48,
      "start": 39.0149,
      "duration": 0.0155,
      "velocity": 100,
      "chip": "ym2612"
    },
    {
      "channel": 0,
      "note": 45,
      "start": 39.0258,
      "duration": 0.0182,
      "velocity": 115,
      "chip": "ym2612"
    },
    {
      "channel": 4,
      "note": 81,
      "start": 39.027,
      "duration": 0.0181,
      "velocity": 97,
      "chip": "ym2612"
    },
    {
      "channel": 3,
      "note": 84,
      "start": 39.0282,
      "duration": 0.0182,
      "velocity": 97,
      "chip": "ym2612"
    },
    {
      "channel": 2,
      "note": 60,
      "start": 39.0293,
      "duration": 0.0182,
      "velocity": 100,
      "chip": "ym2612"
    },
    {
      "channel": 1,
      "note": 48,
      "start": 39.0305,
      "duration": 0.0182,
      "velocity": 100,
      "chip": "ym2612"
    },
    {
      "channel": 0,
      "note": 46,
      "start": 39.044,
      "duration": 0.0167,
      "velocity": 115,
      "chip": "ym2612"
    },
    {
      "channel": 4,
      "note": 81,
      "start": 39.0451,
      "duration": 0.0167,
      "velocity": 97,
      "chip": "ym2612"
    },
    {
      "channel": 3,
      "note": 84,
      "start": 39.0464,
      "duration": 0.0167,
      "velocity": 97,
      "chip": "ym2612"
    },
    {
      "channel": 0,
      "note": 46,
      "start": 39.0607,
      "duration": 0.0193,
      "velocity": 115,
      "chip": "ym2612"
    },
    {
      "channel": 4,
      "note": 81,
      "start": 39.0618,
      "duration": 0.0193,
      "velocity": 97,
      "chip": "ym2612"
    },
    {
      "channel": 3,
      "note": 84,
      "start": 39.063,
      "duration": 0.0193,
      "velocity": 97,
      "chip": "ym2612"
    },
    {
      "channel": 1,
      "note": 78,
      "start": 39.0782,
      "duration": 0.0123,
      "velocity": 124,
      "chip": "ym2612"
    },
    {
      "channel": 0,
      "note": 47,
      "start": 39.08,
      "duration": 0.0123,
      "velocity": 115,
      "chip": "ym2612"
    },
    {
      "channel": 4,
      "note": 81,
      "start": 39.0812,
      "duration": 0.0123,
      "velocity": 97,
      "chip": "ym2612"
    },
    {
      "channel": 3,
      "note": 84,
      "start": 39.0824,
      "duration": 0.0123,
      "velocity": 97,
      "chip": "ym2612"
    },
    {
      "channel": 2,
      "note": 65,
      "start": 39.0837,
      "duration": 0.0121,
      "velocity": 100,
      "chip": "ym2612"
    },
    {
      "channel": 1,
      "note": 76,
      "start": 39.0905,
      "duration": 0.0185,
      "velocity": 124,
      "chip": "ym2612"
    },
    {
      "channel": 0,
      "note": 47,
      "start": 39.0923,
      "duration": 0.0185,
      "velocity": 115,
      "chip": "ym2612"
    },
    {
      "channel": 4,
      "note": 81,
      "start": 39.0934,
      "duration": 0.0185,
      "velocity": 97,
      "chip": "ym2612"
    },
    {
      "channel": 3,
      "note": 84,
      "start": 39.0946,
      "duration": 0.0184,
      "velocity": 97,
      "chip": "ym2612"
    },
    {
      "channel": 2,
      "note": 65,
      "start": 39.0958,
      "duration": 0.0185,
      "velocity": 100,
      "chip": "ym2612"
    },
    {
      "channel": 1,
      "note": 75,
      "start": 39.109,
      "duration": 0.0134,
      "velocity": 124,
      "chip": "ym2612"
    },
    {
      "channel": 0,
      "note": 47,
      "start": 39.1107,
      "duration": 0.0161,
      "velocity": 115,
      "chip": "ym2612"
    },
    {
      "channel": 4,
      "note": 81,
      "start": 39.112,
      "duration": 0.0161,
      "velocity": 97,
      "chip": "ym2612"
    },
    {
      "channel": 3,
      "note": 84,
      "start": 39.1131,
      "duration": 0.0161,
      "velocity": 97,
      "chip": "ym2612"
    },
    {
      "channel": 2,
      "note": 65,
      "start": 39.1142,
      "duration": 0.0161,
      "velocity": 100,
      "chip": "ym2612"
    },
    {
      "channel": 1,
      "note": 74,
      "start": 39.1224,
      "duration": 0.0161,
      "velocity": 124,
      "chip": "ym2612"
    },
    {
      "channel": 0,
      "note": 48,
      "start": 39.1268,
      "duration": 0.0158,
      "velocity": 115,
      "chip": "ym2612"
    },
    {
      "channel": 4,
      "note": 81,
      "start": 39.128,
      "duration": 0.0158,
      "velocity": 97,
      "chip": "ym2612"
    },
    {
      "channel": 3,
      "note": 84,
      "start": 39.1292,
      "duration": 0.0158,
      "velocity": 97,
      "chip": "ym2612"
    },
    {
      "channel": 2,
      "note": 65,
      "start": 39.1303,
      "duration": 0.0158,
      "velocity": 100,
      "chip": "ym2612"
    },
    {
      "channel": 1,
      "note": 72,
      "start": 39.1385,
      "duration": 0.0161,
      "velocity": 124,
      "chip": "ym2612"
    },
    {
      "channel": 0,
      "note": 48,
      "start": 39.1426,
      "duration": 0.014,
      "velocity": 115,
      "chip": "ym2612"
    },
    {
      "channel": 4,
      "note": 81,
      "start": 39.1438,
      "duration": 0.014,
      "velocity": 97,
      "chip": "ym2612"
    },
    {
      "channel": 3,
      "note": 84,
      "start": 39.145,
      "duration": 0.014,
      "velocity": 97,
      "chip": "ym2612"
    },
    {
      "channel": 2,
      "note": 65,
      "start": 39.1461,
      "duration": 0.014,
      "velocity": 100,
      "chip": "ym2612"
    },
    {
      "channel": 1,
      "note": 71,
      "start": 39.1546,
      "duration": 0.0161,
      "velocity": 124,
      "chip": "ym2612"
    },
    {
      "channel": 0,
      "note": 49,
      "start": 39.1566,
      "duration": 0.015,
      "velocity": 1,
      "chip": "ym2612"
    },
    {
      "channel": 4,
      "note": 81,
      "start": 39.1578,
      "duration": 0.0177,
      "velocity": 97,
      "chip": "ym2612"
    },
    {
      "channel": 3,
      "note": 84,
      "start": 39.159,
      "duration": 0.0178,
      "velocity": 97,
      "chip": "ym2612"
    },
    {
      "channel": 2,
      "note": 65,
      "start": 39.1601,
      "duration": 0.0177,
      "velocity": 100,
      "chip": "ym2612"
    },
    {
      "channel": 1,
      "note": 70,
      "start": 39.1707,
      "duration": 0.0161,
      "velocity": 124,
      "chip": "ym2612"
    },
    {
      "channel": 4,
      "note": 81,
      "start": 39.1756,
      "duration": 0.0125,
      "velocity": 97,
      "chip": "ym2612"
    },
    {
      "channel": 3,
      "note": 84,
      "start": 39.1767,
      "duration": 0.0125,
      "velocity": 97,
      "chip": "ym2612"
    },
    {
      "channel": 2,
      "note": 65,
      "start": 39.1778,
      "duration": 0.0152,
      "velocity": 100,
      "chip": "ym2612"
    },
    {
      "channel": 1,
      "note": 69,
      "start": 39.1868,
      "duration": 0.0161,
      "velocity": 124,
      "chip": "ym2612"
    },
    {
      "channel": 4,
      "note": 81,
      "start": 39.188,
      "duration": 0.0161,
      "velocity": 97,
      "chip": "ym2612"
    },
    {
      "channel": 3,
      "note": 84,
      "start": 39.1892,
      "duration": 0.0161,
      "velocity": 97,
      "chip": "ym2612"
    },
    {
      "channel": 2,
      "note": 65,
      "start": 39.1931,
      "duration": 0.0158,
      "velocity": 100,
      "chip": "ym2612"
    },
    {
      "channel": 1,
      "note": 68,
      "start": 39.2029,
      "duration": 0.0161,
      "velocity": 124,
      "chip": "ym2612"
    },
    {
      "channel": 4,
      "note": 81,
      "start": 39.2041,
      "duration": 0.0161,
      "velocity": 97,
      "chip": "ym2612"
    },
    {
      "channel": 3,
      "note": 84,
      "start": 39.2053,
      "duration": 0.0161,
      "velocity": 97,
      "chip": "ym2612"
    },
    {
      "channel": 2,
      "note": 65,
      "start": 39.2088,
      "duration": 0.0137,
      "velocity": 100,
      "chip": "ym2612"
    },
    {
      "channel": 1,
      "note": 66,
      "start": 39.219,
      "duration": 0.0161,
      "velocity": 124,
      "chip": "ym2612"
    },
    {
      "channel": 4,
      "note": 81,
      "start": 39.2202,
      "duration": 0.0161,
      "velocity": 97,
      "chip": "ym2612"
    },
    {
      "channel": 3,
      "note": 84,
      "start": 39.2214,
      "duration": 0.0161,
      "velocity": 97,
      "chip": "ym2612"
    },
    {
      "channel": 2,
      "note": 65,
      "start": 39.2225,
      "duration": 0.0161,
      "velocity": 100,
      "chip": "ym2612"
    },
    {
      "channel": 1,
      "note": 65,
      "start": 39.235,
      "duration": 0.0162,
      "velocity": 124,
      "chip": "ym2612"
    },
    {
      "channel": 4,
      "note": 81,
      "start": 39.2363,
      "duration": 0.0162,
      "velocity": 97,
      "chip": "ym2612"
    },
    {
      "channel": 3,
      "note": 84,
      "start": 39.2375,
      "duration": 0.0161,
      "velocity": 97,
      "chip": "ym2612"
    },
    {
      "channel": 1,
      "note": 64,
      "start": 39.2512,
      "duration": 0.0161,
      "velocity": 124,
      "chip": "ym2612"
    },
    {
      "channel": 4,
      "note": 81,
      "start": 39.2525,
      "duration": 0.0161,
      "velocity": 97,
      "chip": "ym2612"
    },
    {
      "channel": 3,
      "note": 84,
      "start": 39.2536,
      "duration": 0.0161,
      "velocity": 97,
      "chip": "ym2612"
    },
    {
      "channel": 1,
      "note": 62,
      "start": 39.2673,
      "duration": 0.0161,
      "velocity": 124,
      "chip": "ym2612"
    },
    {
      "channel": 4,
      "note": 81,
      "start": 39.2686,
      "duration": 0.0161,
      "velocity": 97,
      "chip": "ym2612"
    },
    {
      "channel": 3,
      "note": 84,
      "start": 39.2697,
      "duration": 0.0161,
      "velocity": 97,
      "chip": "ym2612"
    },
    {
      "channel": 2,
      "note": 63,
      "start": 39.2711,
      "duration": 0.0158,
      "velocity": 100,
      "chip": "ym2612"
    },
    {
      "channel": 1,
      "note": 61,
      "start": 39.2834,
      "duration": 0.0161,
      "velocity": 124,
      "chip": "ym2612"
    },
    {
      "channel": 4,
      "note": 81,
      "start": 39.2846,
      "duration": 0.0161,
      "velocity": 97,
      "chip": "ym2612"
    },
    {
      "channel": 3,
      "note": 84,
      "start": 39.2858,
      "duration": 0.0161,
      "velocity": 97,
      "chip": "ym2612"
    },
    {
      "channel": 2,
      "note": 63,
      "start": 39.2869,
      "duration": 0.0161,
      "velocity": 100,
      "chip": "ym2612"
    },
    {
      "channel": 1,
      "note": 60,
      "start": 39.2995,
      "duration": 0.0161,
      "velocity": 124,
      "chip": "ym2612"
    },
    {
      "channel": 4,
      "note": 81,
      "start": 39.3007,
      "duration": 0.0161,
      "velocity": 97,
      "chip": "ym2612"
    },
    {
      "channel": 3,
      "note": 84,
      "start": 39.3019,
      "duration": 0.0161,
      "velocity": 97,
      "chip": "ym2612"
    },
    {
      "channel": 2,
      "note": 63,
      "start": 39.303,
      "duration": 0.0161,
      "velocity": 100,
      "chip": "ym2612"
    },
    {
      "channel": 1,
      "note": 59,
      "start": 39.3156,
      "duration": 0.0161,
      "velocity": 124,
      "chip": "ym2612"
    },
    {
      "channel": 4,
      "note": 81,
      "start": 39.3168,
      "duration": 0.0161,
      "velocity": 97,
      "chip": "ym2612"
    },
    {
      "channel": 3,
      "note": 84,
      "start": 39.318,
      "duration": 0.0161,
      "velocity": 97,
      "chip": "ym2612"
    },
    {
      "channel": 2,
      "note": 63,
      "start": 39.3191,
      "duration": 0.0161,
      "velocity": 100,
      "chip": "ym2612"
    },
    {
      "channel": 1,
      "note": 57,
      "start": 39.3317,
      "duration": 0.0161,
      "velocity": 124,
      "chip": "ym2612"
    },
    {
      "channel": 4,
      "note": 81,
      "start": 39.3329,
      "duration": 0.0161,
      "velocity": 97,
      "chip": "ym2612"
    },
    {
      "channel": 3,
      "note": 84,
      "start": 39.3341,
      "duration": 0.0161,
      "velocity": 97,
      "chip": "ym2612"
    },
    {
      "channel": 2,
      "note": 63,
      "start": 39.3352,
      "duration": 0.0161,
      "velocity": 100,
      "chip": "ym2612"
    },
    {
      "channel": 1,
      "note": 56,
      "start": 39.3478,
      "duration": 0.0161,
      "velocity": 124,
      "chip": "ym2612"
    },
    {
      "channel": 4,
      "note": 81,
      "start": 39.349,
      "duration": 0.0161,
      "velocity": 97,
      "chip": "ym2612"
    },
    {
      "channel": 3,
      "note": 84,
      "start": 39.3502,
      "duration": 0.0161,
      "velocity": 97,
      "chip": "ym2612"
    },
    {
      "channel": 2,
      "note": 63,
      "start": 39.3513,
      "duration": 0.0161,
      "velocity": 100,
      "chip": "ym2612"
    },
    {
      "channel": 1,
      "note": 55,
      "start": 39.3639,
      "duration": 0.0161,
      "velocity": 124,
      "chip": "ym2612"
    },
    {
      "channel": 4,
      "note": 81,
      "start": 39.3651,
      "duration": 0.0161,
      "velocity": 97,
      "chip": "ym2612"
    },
    {
      "channel": 3,
      "note": 84,
      "start": 39.3663,
      "duration": 0.0161,
      "velocity": 97,
      "chip": "ym2612"
    },
    {
      "channel": 2,
      "note": 63,
      "start": 39.3674,
      "duration": 0.0161,
      "velocity": 100,
      "chip": "ym2612"
    },
    {
      "channel": 1,
      "note": 53,
      "start": 39.38,
      "duration": 0.0161,
      "velocity": 124,
      "chip": "ym2612"
    },
    {
      "channel": 4,
      "note": 81,
      "start": 39.3812,
      "duration": 0.0162,
      "velocity": 97,
      "chip": "ym2612"
    },
    {
      "channel": 3,
      "note": 84,
      "start": 39.3824,
      "duration": 0.0161,
      "velocity": 97,
      "chip": "ym2612"
    },
    {
      "channel": 2,
      "note": 63,
      "start": 39.3835,
      "duration": 0.0161,
      "velocity": 100,
      "chip": "ym2612"
    },
    {
      "channel": 1,
      "note": 52,
      "start": 39.3961,
      "duration": 0.0161,
      "velocity": 124,
      "chip": "ym2612"
    },
    {
      "channel": 4,
      "note": 81,
      "start": 39.3974,
      "duration": 0.0161,
      "velocity": 97,
      "chip": "ym2612"
    },
    {
      "channel": 3,
      "note": 84,
      "start": 39.3985,
      "duration": 0.0161,
      "velocity": 97,
      "chip": "ym2612"
    },
    {
      "channel": 2,
      "note": 63,
      "start": 39.3997,
      "duration": 0.0161,
      "velocity": 100,
      "chip": "ym2612"
    },
    {
      "channel": 1,
      "note": 51,
      "start": 39.4122,
      "duration": 0.0153,
      "velocity": 1,
      "chip": "ym2612"
    },
    {
      "channel": 4,
      "note": 81,
      "start": 39.4135,
      "duration": 0.0153,
      "velocity": 97,
      "chip": "ym2612"
    },
    {
      "channel": 3,
      "note": 84,
      "start": 39.4146,
      "duration": 0.0153,
      "velocity": 97,
      "chip": "ym2612"
    },
    {
      "channel": 2,
      "note": 63,
      "start": 39.4158,
      "duration": 0.0153,
      "velocity": 100,
      "chip": "ym2612"
    },
    {
      "channel": 4,
      "note": 81,
      "start": 39.4288,
      "duration": 0.0153,
      "velocity": 97,
      "chip": "ym2612"
    },
    {
      "channel": 3,
      "note": 84,
      "start": 39.4299,
      "duration": 0.0153,
      "velocity": 97,
      "chip": "ym2612"
    },
    {
      "channel": 4,
      "note": 81,
      "start": 39.444,
      "duration": 0.0197,
      "velocity": 97,
      "chip": "ym2612"
    },
    {
      "channel": 3,
      "note": 84,
      "start": 39.4451,
      "duration": 0.0197,
      "velocity": 97,
      "chip": "ym2612"
    },
    {
      "channel": 0,
      "note": 36,
      "start": 39.4624,
      "duration": 0.0146,
      "velocity": 115,
      "chip": "ym2612"
    },
    {
      "channel": 4,
      "note": 81,
      "start": 39.4637,
      "duration": 0.0146,
      "velocity": 97,
      "chip": "ym2612"
    },
    {
      "channel": 3,
      "note": 84,
      "start": 39.4648,
      "duration": 0.0146,
      "velocity": 97,
      "chip": "ym2612"
    },
    {
      "channel": 0,
      "note": 36,
      "start": 39.477,
      "duration": 0.0157,
      "velocity": 115,
      "chip": "ym2612"
    },
    {
      "channel": 4,
      "note": 81,
      "start": 39.4782,
      "duration": 0.0157,
      "velocity": 97,
      "chip": "ym2612"
    },
    {
      "channel": 3,
      "note": 84,
      "start": 39.4794,
      "duration": 0.0157,
      "velocity": 97,
      "chip": "ym2612"
    },
    {
      "channel": 0,
      "note": 37,
      "start": 39.4927,
      "duration": 0.0179,
      "velocity": 115,
      "chip": "ym2612"
    },
    {
      "channel": 4,
      "note": 81,
      "start": 39.4939,
      "duration": 0.0179,
      "velocity": 97,
      "chip": "ym2612"
    },
    {
      "channel": 3,
      "note": 84,
      "start": 39.4951,
      "duration": 0.0179,
      "velocity": 97,
      "chip": "ym2612"
    },
    {
      "channel": 0,
      "note": 37,
      "start": 39.5106,
      "duration": 0.0167,
      "velocity": 115,
      "chip": "ym2612"
    },
    {
      "channel": 4,
      "note": 81,
      "start": 39.5118,
      "duration": 0.0167,
      "velocity": 97,
      "chip": "ym2612"
    },
    {
      "channel": 3,
      "note": 84,
      "start": 39.513,
      "duration": 0.0167,
      "velocity": 97,
      "chip": "ym2612"
    },
    {
      "channel": 0,
      "note": 38,
      "start": 39.5273,
      "duration": 0.0161,
      "velocity": 115,
      "chip": "ym2612"
    },
    {
      "channel": 4,
      "note": 81,
      "start": 39.5285,
      "duration": 0.0161,
      "velocity": 97,
      "chip": "ym2612"
    },
    {
      "channel": 3,
      "note": 84,
      "start": 39.5297,
      "duration": 0.0161,
      "velocity": 97,
      "chip": "ym2612"
    },
    {
      "channel": 0,
      "note": 38,
      "start": 39.5434,
      "duration": 0.0141,
      "velocity": 115,
      "chip": "ym2612"
    },
    {
      "channel": 4,
      "note": 81,
      "start": 39.5446,
      "duration": 0.0141,
      "velocity": 97,
      "chip": "ym2612"
    },
    {
      "channel": 3,
      "note": 84,
      "start": 39.5458,
      "duration": 0.0141,
      "velocity": 97,
      "chip": "ym2612"
    },
    {
      "channel": 0,
      "note": 39,
      "start": 39.5575,
      "duration": 0.0185,
      "velocity": 115,
      "chip": "ym2612"
    },
    {
      "channel": 4,
      "note": 81,
      "start": 39.5587,
      "duration": 0.0185,
      "velocity": 97,
      "chip": "ym2612"
    },
    {
      "channel": 3,
      "note": 84,
      "start": 39.5598,
      "duration": 0.0185,
      "velocity": 97,
      "chip": "ym2612"
    },
    {
      "channel": 0,
      "note": 39,
      "start": 39.576,
      "duration": 0.0161,
      "velocity": 115,
      "chip": "ym2612"
    },
    {
      "channel": 4,
      "note": 81,
      "start": 39.5772,
      "duration": 0.0161,
      "velocity": 97,
      "chip": "ym2612"
    },
    {
      "channel": 3,
      "note": 84,
      "start": 39.5784,
      "duration": 0.0161,
      "velocity": 97,
      "chip": "ym2612"
    },
    {
      "channel": 0,
      "note": 40,
      "start": 39.5921,
      "duration": 0.0134,
      "velocity": 115,
      "chip": "ym2612"
    },
    {
      "channel": 4,
      "note": 81,
      "start": 39.5933,
      "duration": 0.0157,
      "velocity": 97,
      "chip": "ym2612"
    },
    {
      "channel": 3,
      "note": 84,
      "start": 39.5944,
      "duration": 0.0158,
      "velocity": 97,
      "chip": "ym2612"
    },
    {
      "channel": 0,
      "note": 40,
      "start": 39.6055,
      "duration": 0.0161,
      "velocity": 115,
      "chip": "ym2612"
    },
    {
      "channel": 4,
      "note": 81,
      "start": 39.609,
      "duration": 0.0141,
      "velocity": 97,
      "chip": "ym2612"
    },
    {
      "channel": 3,
      "note": 84,
      "start": 39.6102,
      "duration": 0.014,
      "velocity": 97,
      "chip": "ym2612"
    },
    {
      "channel": 0,
      "note": 40,
      "start": 39.6216,
      "duration": 0.0161,
      "velocity": 115,
      "chip": "ym2612"
    },
    {
      "channel": 4,
      "note": 81,
      "start": 39.6231,
      "duration": 0.0158,
      "velocity": 97,
      "chip": "ym2612"
    },
    {
      "channel": 3,
      "note": 84,
      "start": 39.6242,
      "duration": 0.0186,
      "velocity": 97,
      "chip": "ym2612"
    },
    {
      "channel": 0,
      "note": 41,
      "start": 39.6376,
      "duration": 0.0179,
      "velocity": 115,
      "chip": "ym2612"
    },
    {
      "channel": 4,
      "note": 81,
      "start": 39.6389,
      "duration": 0.0207,
      "velocity": 97,
      "chip": "ym2612"
    },
    {
      "channel": 3,
      "note": 84,
      "start": 39.6428,
      "duration": 0.0179,
      "velocity": 97,
      "chip": "ym2612"
    },
    {
      "channel": 0,
      "note": 36,
      "start": 39.6555,
      "duration": 0.0144,
      "velocity": 115,
      "chip": "ym2612"
    },
    {
      "channel": 4,
      "note": 81,
      "start": 39.6595,
      "duration": 0.0116,
      "velocity": 97,
      "chip": "ym2612"
    },
    {
      "channel": 3,
      "note": 84,
      "start": 39.6607,
      "duration": 0.0116,
      "velocity": 97,
      "chip": "ym2612"
    },
    {
      "channel": 2,
      "note": 65,
      "start": 39.6621,
      "duration": 0.0138,
      "velocity": 100,
      "chip": "ym2612"
    },
    {
      "channel": 1,
      "note": 53,
      "start": 39.6635,
      "duration": 0.0136,
      "velocity": 100,
      "chip": "ym2612"
    },
    {
      "channel": 0,
      "note": 36,
      "start": 39.67,
      "duration": 0.016,
      "velocity": 115,
      "chip": "ym2612"
    },
    {
      "channel": 4,
      "note": 81,
      "start": 39.6711,
      "duration": 0.0161,
      "velocity": 97,
      "chip": "ym2612"
    },
    {
      "channel": 3,
      "note": 84,
      "start": 39.6723,
      "duration": 0.016,
      "velocity": 97,
      "chip": "ym2612"
    },
    {
      "channel": 2,
      "note": 65,
      "start": 39.6759,
      "duration": 0.0139,
      "velocity": 100,
      "chip": "ym2612"
    },
    {
      "channel": 1,
      "note": 53,
      "start": 39.677,
      "duration": 0.0139,
      "velocity": 100,
      "chip": "ym2612"
    },
    {
      "channel": 0,
      "note": 37,
      "start": 39.686,
      "duration": 0.0161,
      "velocity": 115,
      "chip": "ym2612"
    },
    {
      "channel": 4,
      "note": 81,
      "start": 39.6872,
      "duration": 0.0161,
      "velocity": 97,
      "chip": "ym2612"
    },
    {
      "channel": 3,
      "note": 84,
      "start": 39.6883,
      "duration": 0.0161,
      "velocity": 97,
      "chip": "ym2612"
    },
    {
      "channel": 2,
      "note": 65,
      "start": 39.6898,
      "duration": 0.0158,
      "velocity": 100,
      "chip": "ym2612"
    },
    {
      "channel": 1,
      "note": 53,
      "start": 39.691,
      "duration": 0.0185,
      "velocity": 100,
      "chip": "ym2612"
    },
    {
      "channel": 0,
      "note": 37,
      "start": 39.7021,
      "duration": 0.0161,
      "velocity": 115,
      "chip": "ym2612"
    },
    {
      "channel": 4,
      "note": 81,
      "start": 39.7033,
      "duration": 0.0161,
      "velocity": 97,
      "chip": "ym2612"
    },
    {
      "channel": 3,
      "note": 84,
      "start": 39.7044,
      "duration": 0.0161,
      "velocity": 97,
      "chip": "ym2612"
    },
    {
      "channel": 2,
      "note": 65,
      "start": 39.7056,
      "duration": 0.0161,
      "velocity": 100,
      "chip": "ym2612"
    },
    {
      "channel": 1,
      "note": 53,
      "start": 39.7095,
      "duration": 0.0161,
      "velocity": 100,
      "chip": "ym2612"
    },
    {
      "channel": 0,
      "note": 38,
      "start": 39.7182,
      "duration": 0.0161,
      "velocity": 115,
      "chip": "ym2612"
    },
    {
      "channel": 4,
      "note": 81,
      "start": 39.7194,
      "duration": 0.0161,
      "velocity": 97,
      "chip": "ym2612"
    },
    {
      "channel": 3,
      "note": 84,
      "start": 39.7205,
      "duration": 0.0161,
      "velocity": 97,
      "chip": "ym2612"
    },
    {
      "channel": 2,
      "note": 65,
      "start": 39.7217,
      "duration": 0.0161,
      "velocity": 100,
      "chip": "ym2612"
    },
    {
      "channel": 1,
      "note": 53,
      "start": 39.7256,
      "duration": 0.0134,
      "velocity": 100,
      "chip": "ym2612"
    },
    {
      "channel": 0,
      "note": 38,
      "start": 39.7343,
      "duration": 0.0161,
      "velocity": 115,
      "chip": "ym2612"
    },
    {
      "channel": 4,
      "note": 81,
      "start": 39.7355,
      "duration": 0.0161,
      "velocity": 97,
      "chip": "ym2612"
    },
    {
      "channel": 3,
      "note": 84,
      "start": 39.7366,
      "duration": 0.0161,
      "velocity": 97,
      "chip": "ym2612"
    },
    {
      "channel": 2,
      "note": 65,
      "start": 39.7378,
      "duration": 0.0161,
      "velocity": 100,
      "chip": "ym2612"
    },
    {
      "channel": 1,
      "note": 53,
      "start": 39.7389,
      "duration": 0.0161,
      "velocity": 100,
      "chip": "ym2612"
    },
    {
      "channel": 0,
      "note": 39,
      "start": 39.7504,
      "duration": 0.0161,
      "velocity": 115,
      "chip": "ym2612"
    },
    {
      "channel": 4,
      "note": 81,
      "start": 39.7516,
      "duration": 0.0161,
      "velocity": 97,
      "chip": "ym2612"
    },
    {
      "channel": 3,
      "note": 84,
      "start": 39.7527,
      "duration": 0.0161,
      "velocity": 97,
      "chip": "ym2612"
    },
    {
      "channel": 2,
      "note": 65,
      "start": 39.7539,
      "duration": 0.0161,
      "velocity": 100,
      "chip": "ym2612"
    },
    {
      "channel": 1,
      "note": 53,
      "start": 39.755,
      "duration": 0.0161,
      "velocity": 100,
      "chip": "ym2612"
    },
    {
      "channel": 0,
      "note": 39,
      "start": 39.7665,
      "duration": 0.0161,
      "velocity": 115,
      "chip": "ym2612"
    },
    {
      "channel": 4,
      "note": 81,
      "start": 39.7677,
      "duration": 0.0161,
      "velocity": 97,
      "chip": "ym2612"
    },
    {
      "channel": 3,
      "note": 84,
      "start": 39.7688,
      "duration": 0.0161,
      "velocity": 97,
      "chip": "ym2612"
    },
    {
      "channel": 2,
      "note": 65,
      "start": 39.77,
      "duration": 0.0162,
      "velocity": 100,
      "chip": "ym2612"
    },
    {
      "channel": 1,
      "note": 53,
      "start": 39.7711,
      "duration": 0.0161,
      "velocity": 100,
      "chip": "ym2612"
    },
    {
      "channel": 0,
      "note": 40,
      "start": 39.7826,
      "duration": 0.0161,
      "velocity": 115,
      "chip": "ym2612"
    },
    {
      "channel": 4,
      "note": 81,
      "start": 39.7838,
      "duration": 0.0161,
      "velocity": 97,
      "chip": "ym2612"
    },
    {
      "channel": 3,
      "note": 84,
      "start": 39.785,
      "duration": 0.0161,
      "velocity": 97,
      "chip": "ym2612"
    },
    {
      "channel": 2,
      "note": 65,
      "start": 39.7861,
      "duration": 0.016,
      "velocity": 100,
      "chip": "ym2612"
    },
    {
      "channel": 1,
      "note": 53,
      "start": 39.7872,
      "duration": 0.0161,
      "velocity": 100,
      "chip": "ym2612"
    },
    {
      "channel": 0,
      "note": 40,
      "start": 39.7987,
      "duration": 0.0161,
      "velocity": 115,
      "chip": "ym2612"
    },
    {
      "channel": 4,
      "note": 81,
      "start": 39.7999,
      "duration": 0.0161,
      "velocity": 97,
      "chip": "ym2612"
    },
    {
      "channel": 3,
      "note": 84,
      "start": 39.8011,
      "duration": 0.0161,
      "velocity": 97,
      "chip": "ym2612"
    },
    {
      "channel": 2,
      "note": 65,
      "start": 39.8022,
      "duration": 0.0161,
      "velocity": 100,
      "chip": "ym2612"
    },
    {
      "channel": 1,
      "note": 53,
      "start": 39.8033,
      "duration": 0.0162,
      "velocity": 100,
      "chip": "ym2612"
    },
    {
      "channel": 0,
      "note": 40,
      "start": 39.8148,
      "duration": 0.0161,
      "velocity": 115,
      "chip": "ym2612"
    },
    {
      "channel": 4,
      "note": 81,
      "start": 39.816,
      "duration": 0.0161,
      "velocity": 97,
      "chip": "ym2612"
    },
    {
      "channel": 3,
      "note": 84,
      "start": 39.8172,
      "duration": 0.0161,
      "velocity": 97,
      "chip": "ym2612"
    },
    {
      "channel": 0,
      "note": 41,
      "start": 39.8309,
      "duration": 0.0195,
      "velocity": 115,
      "chip": "ym2612"
    },
    {
      "channel": 4,
      "note": 81,
      "start": 39.832,
      "duration": 0.0196,
      "velocity": 97,
      "chip": "ym2612"
    },
    {
      "channel": 3,
      "note": 84,
      "start": 39.8333,
      "duration": 0.0195,
      "velocity": 97,
      "chip": "ym2612"
    },
    {
      "channel": 1,
      "note": 78,
      "start": 39.8487,
      "duration": 0.0144,
      "velocity": 124,
      "chip": "ym2612"
    },
    {
      "channel": 0,
      "note": 41,
      "start": 39.8504,
      "duration": 0.0144,
      "velocity": 115,
      "chip": "ym2612"
    },
    {
      "channel": 4,
      "note": 81,
      "start": 39.8516,
      "duration": 0.0144,
      "velocity": 97,
      "chip": "ym2612"
    },
    {
      "channel": 3,
      "note": 84,
      "start": 39.8528,
      "duration": 0.0144,
      "velocity": 97,
      "chip": "ym2612"
    },
    {
      "channel": 2,
      "note": 60,
      "start": 39.8542,
      "duration": 0.0142,
      "velocity": 100,
      "chip": "ym2612"
    },
    {
      "channel": 1,
      "note": 76,
      "start": 39.8631,
      "duration": 0.016,
      "velocity": 124,
      "chip": "ym2612"
    },
    {
      "channel": 0,
      "note": 42,
      "start": 39.8648,
      "duration": 0.016,
      "velocity": 115,
      "chip": "ym2612"
    },
    {
      "channel": 4,
      "note": 81,
      "start": 39.866,
      "duration": 0.016,
      "velocity": 97,
      "chip": "ym2612"
    },
    {
      "channel": 3,
      "note": 84,
      "start": 39.8672,
      "duration": 0.016,
      "velocity": 97,
      "chip": "ym2612"
    },
    {
      "channel": 2,
      "note": 60,
      "start": 39.8684,
      "duration": 0.016,
      "velocity": 100,
      "chip": "ym2612"
    },
    {
      "channel": 1,
      "note": 75,
      "start": 39.8791,
      "duration": 0.0161,
      "velocity": 124,
      "chip": "ym2612"
    },
    {
      "channel": 0,
      "note": 42,
      "start": 39.8808,
      "duration": 0.0161,
      "velocity": 115,
      "chip": "ym2612"
    },
    {
      "channel": 4,
      "note": 81,
      "start": 39.882,
      "duration": 0.0161,
      "velocity": 97,
      "chip": "ym2612"
    },
    {
      "channel": 3,
      "note": 84,
      "start": 39.8832,
      "duration": 0.0161,
      "velocity": 97,
      "chip": "ym2612"
    },
    {
      "channel": 2,
      "note": 60,
      "start": 39.8843,
      "duration": 0.0161,
      "velocity": 100,
      "chip": "ym2612"
    },
    {
      "channel": 1,
      "note": 74,
      "start": 39.8952,
      "duration": 0.0161,
      "velocity": 124,
      "chip": "ym2612"
    },
    {
      "channel": 0,
      "note": 43,
      "start": 39.8969,
      "duration": 0.0161,
      "velocity": 115,
      "chip": "ym2612"
    },
    {
      "channel": 4,
      "note": 81,
      "start": 39.8981,
      "duration": 0.0161,
      "velocity": 97,
      "chip": "ym2612"
    },
    {
      "channel": 3,
      "note": 84,
      "start": 39.8993,
      "duration": 0.0161,
      "velocity": 97,
      "chip": "ym2612"
    },
    {
      "channel": 2,
      "note": 60,
      "start": 39.9004,
      "duration": 0.0162,
      "velocity": 100,
      "chip": "ym2612"
    },
    {
      "channel": 1,
      "note": 72,
      "start": 39.9113,
      "duration": 0.0161,
      "velocity": 124,
      "chip": "ym2612"
    },
    {
      "channel": 0,
      "note": 43,
      "start": 39.913,
      "duration": 0.0161,
      "velocity": 115,
      "chip": "ym2612"
    },
    {
      "channel": 4,
      "note": 81,
      "start": 39.9142,
      "duration": 0.0161,
      "velocity": 97,
      "chip": "ym2612"
    },
    {
      "channel": 3,
      "note": 84,
      "start": 39.9154,
      "duration": 0.016,
      "velocity": 97,
      "chip": "ym2612"
    },
    {
      "channel": 2,
      "note": 60,
      "start": 39.9166,
      "duration": 0.016,
      "velocity": 100,
      "chip": "ym2612"
    },
    {
      "channel": 1,
      "note": 71,
      "start": 39.9274,
      "duration": 0.0161,
      "velocity": 124,
      "chip": "ym2612"
    },
    {
      "channel": 0,
      "note": 44,
      "start": 39.9291,
      "duration": 0.0162,
      "velocity": 115,
      "chip": "ym2612"
    },
    {
      "channel": 4,
      "note": 81,
      "start": 39.9303,
      "duration": 0.0161,
      "velocity": 97,
      "chip": "ym2612"
    },
    {
      "channel": 3,
      "note": 84,
      "start": 39.9315,
      "duration": 0.0162,
      "velocity": 97,
      "chip": "ym2612"
    },
    {
      "channel": 2,
      "note": 60,
      "start": 39.9326,
      "duration": 0.0161,
      "velocity": 100,
      "chip": "ym2612"
    },
    {
      "channel": 1,
      "note": 70,
      "start": 39.9436,
      "duration": 0.016,
      "velocity": 124,
      "chip": "ym2612"
    },
    {
      "channel": 0,
      "note": 44,
      "start": 39.9453,
      "duration": 0.016,
      "velocity": 115,
      "chip": "ym2612"
    },
    {
      "channel": 4,
      "note": 81,
      "start": 39.9465,
      "duration": 0.016,
      "velocity": 97,
      "chip": "ym2612"
    },
    {
      "channel": 3,
      "note": 84,
      "start": 39.9476,
      "duration": 0.0161,
      "velocity": 97,
      "chip": "ym2612"
    },
    {
      "channel": 2,
      "note": 60,
      "start": 39.9488,
      "duration": 0.016,
      "velocity": 100,
      "chip": "ym2612"
    },
    {
      "channel": 1,
      "note": 69,
      "start": 39.9596,
      "duration": 0.0176,
      "velocity": 124,
      "chip": "ym2612"
    },
    {
      "channel": 0,
      "note": 44,
      "start": 39.9613,
      "duration": 0.0177,
      "velocity": 115,
      "chip": "ym2612"
    },
    {
      "channel": 4,
      "note": 81,
      "start": 39.9625,
      "duration": 0.0176,
      "velocity": 97,
      "chip": "ym2612"
    },
    {
      "channel": 3,
      "note": 84,
      "start": 39.9637,
      "duration": 0.0176,
      "velocity": 97,
      "chip": "ym2612"
    },
    {
      "channel": 2,
      "note": 60,
      "start": 39.9648,
      "duration": 0.0176,
      "velocity": 100,
      "chip": "ym2612"
    },
    {
      "channel": 1,
      "note": 68,
      "start": 39.9772,
      "duration": 0.0167,
      "velocity": 124,
      "chip": "ym2612"
    },
    {
      "channel": 0,
      "note": 45,
      "start": 39.979,
      "duration": 0.0167,
      "velocity": 115,
      "chip": "ym2612"
    },
    {
      "channel": 4,
      "note": 81,
      "start": 39.9801,
      "duration": 0.0167,
      "velocity": 97,
      "chip": "ym2612"
    },
    {
      "channel": 3,
      "note": 84,
      "start": 39.9814,
      "duration": 0.0167,
      "velocity": 97,
      "chip": "ym2612"
    },
    {
      "channel": 2,
      "note": 60,
      "start": 39.9824,
      "duration": 0.0167,
      "velocity": 100,
      "chip": "ym2612"
    },
    {
      "channel": 1,
      "note": 66,
      "start": 39.9939,
      "duration": 0.0163,
      "velocity": 124,
      "chip": "ym2612"
    },
    {
      "channel": 0,
      "note": 45,
      "start": 39.9957,
      "duration": 0.0163,
      "velocity": 115,
      "chip": "ym2612"
    },
    {
      "channel": 4,
      "note": 81,
      "start": 39.9968,
      "duration": 0.0163,
      "velocity": 97,
      "chip": "ym2612"
    },
    {
      "channel": 3,
      "note": 84,
      "start": 39.998,
      "duration": 0.0163,
      "velocity": 97,
      "chip": "ym2612"
    },
    {
      "channel": 2,
      "note": 60,
      "start": 39.9991,
      "duration": 0.0163,
      "velocity": 100,
      "chip": "ym2612"
    },
    {
      "channel": 1,
      "note": 65,
      "start": 40.0102,
      "duration": 0.0141,
      "velocity": 124,
      "chip": "ym2612"
    },
    {
      "channel": 0,
      "note": 46,
      "start": 40.012,
      "duration": 0.0141,
      "velocity": 115,
      "chip": "ym2612"
    },
    {
      "channel": 4,
      "note": 81,
      "start": 40.0132,
      "duration": 0.0141,
      "velocity": 97,
      "chip": "ym2612"
    },
    {
      "channel": 3,
      "note": 84,
      "start": 40.0143,
      "duration": 0.0141,
      "velocity": 97,
      "chip": "ym2612"
    },
    {
      "channel": 1,
      "note": 64,
      "start": 40.0244,
      "duration": 0.0185,
      "velocity": 124,
      "chip": "ym2612"
    },
    {
      "channel": 0,
      "note": 46,
      "start": 40.0261,
      "duration": 0.0203,
      "velocity": 115,
      "chip": "ym2612"
    },
    {
      "channel": 4,
      "note": 81,
      "start": 40.0273,
      "duration": 0.0203,
      "velocity": 97,
      "chip": "ym2612"
    },
    {
      "channel": 3,
      "note": 84,
      "start": 40.0284,
      "duration": 0.0203,
      "velocity": 97,
      "chip": "ym2612"
    },
    {
      "channel": 1,
      "note": 62,
      "start": 40.0429,
      "duration": 0.0161,
      "velocity": 124,
      "chip": "ym2612"
    },
    {
      "channel": 0,
      "note": 36,
      "start": 40.0464,
      "duration": 0.0144,
      "velocity": 115,
      "chip": "ym2612"
    },
    {
      "channel": 4,
      "note": 81,
      "start": 40.0476,
      "duration": 0.0144,
      "velocity": 97,
      "chip": "ym2612"
    },
    {
      "channel": 3,
      "note": 84,
      "start": 40.0488,
      "duration": 0.0143,
      "velocity": 97,
      "chip": "ym2612"
    },
    {
      "channel": 2,
      "note": 56,
      "start": 40.0502,
      "duration": 0.0141,
      "velocity": 100,
      "chip": "ym2612"
    },
    {
      "channel": 1,
      "note": 61,
      "start": 40.059,
      "duration": 0.0134,
      "velocity": 124,
      "chip": "ym2612"
    },
    {
      "channel": 0,
      "note": 36,
      "start": 40.0607,
      "duration": 0.0157,
      "velocity": 115,
      "chip": "ym2612"
    },
    {
      "channel": 4,
      "note": 81,
      "start": 40.062,
      "duration": 0.0156,
      "velocity": 97,
      "chip": "ym2612"
    },
    {
      "channel": 3,
      "note": 84,
      "start": 40.0631,
      "duration": 0.0157,
      "velocity": 97,
      "chip": "ym2612"
    },
    {
      "channel": 2,
      "note": 56,
      "start": 40.0643,
      "duration": 0.0156,
      "velocity": 100,
      "chip": "ym2612"
    },
    {
      "channel": 1,
      "note": 60,
      "start": 40.0723,
      "duration": 0.0161,
      "velocity": 124,
      "chip": "ym2612"
    },
    {
      "channel": 0,
      "note": 37,
      "start": 40.0765,
      "duration": 0.014,
      "velocity": 115,
      "chip": "ym2612"
    },
    {
      "channel": 4,
      "note": 81,
      "start": 40.0776,
      "duration": 0.0141,
      "velocity": 97,
      "chip": "ym2612"
    },
    {
      "channel": 3,
      "note": 84,
      "start": 40.0788,
      "duration": 0.0141,
      "velocity": 97,
      "chip": "ym2612"
    },
    {
      "channel": 2,
      "note": 56,
      "start": 40.0799,
      "duration": 0.0141,
      "velocity": 100,
      "chip": "ym2612"
    },
    {
      "channel": 1,
      "note": 59,
      "start": 40.0884,
      "duration": 0.0161,
      "velocity": 124,
      "chip": "ym2612"
    },
    {
      "channel": 0,
      "note": 37,
      "start": 40.0905,
      "duration": 0.0186,
      "velocity": 115,
      "chip": "ym2612"
    },
    {
      "channel": 4,
      "note": 81,
      "start": 40.0917,
      "duration": 0.0185,
      "velocity": 97,
      "chip": "ym2612"
    },
    {
      "channel": 3,
      "note": 84,
      "start": 40.0929,
      "duration": 0.0185,
      "velocity": 97,
      "chip": "ym2612"
    },
    {
      "channel": 2,
      "note": 56,
      "start": 40.0939,
      "duration": 0.0185,
      "velocity": 100,
      "chip": "ym2612"
    },
    {
      "channel": 1,
      "note": 57,
      "start": 40.1045,
      "duration": 0.0161,
      "velocity": 124,
      "chip": "ym2612"
    },
    {
      "channel": 0,
      "note": 38,
      "start": 40.109,
      "duration": 0.0134,
      "velocity": 115,
      "chip": "ym2612"
    },
    {
      "channel": 4,
      "note": 81,
      "start": 40.1102,
      "duration": 0.0162,
      "velocity": 97,
      "chip": "ym2612"
    },
    {
      "channel": 3,
      "note": 84,
      "start": 40.1114,
      "duration": 0.0161,
      "velocity": 97,
      "chip": "ym2612"
    },
    {
      "channel": 2,
      "note": 56,
      "start": 40.1124,
      "duration": 0.0162,
      "velocity": 100,
      "chip": "ym2612"
    },
    {
      "channel": 1,
      "note": 56,
      "start": 40.1206,
      "duration": 0.0162,
      "velocity": 124,
      "chip": "ym2612"
    },
    {
      "channel": 0,
      "note": 38,
      "start": 40.1224,
      "duration": 0.0161,
      "velocity": 115,
      "chip": "ym2612"
    },
    {
      "channel": 4,
      "note": 81,
      "start": 40.1263,
      "duration": 0.0157,
      "velocity": 97,
      "chip": "ym2612"
    },
    {
      "channel": 3,
      "note": 84,
      "start": 40.1275,
      "duration": 0.0157,
      "velocity": 97,
      "chip": "ym2612"
    },
    {
      "channel": 2,
      "note": 56,
      "start": 40.1286,
      "duration": 0.0157,
      "velocity": 100,
      "chip": "ym2612"
    },
    {
      "channel": 1,
      "note": 55,
      "start": 40.1368,
      "duration": 0.0161,
      "velocity": 124,
      "chip": "ym2612"
    },
    {
      "channel": 0,
      "note": 39,
      "start": 40.1385,
      "duration": 0.0161,
      "velocity": 115,
      "chip": "ym2612"
    },
    {
      "channel": 4,
      "note": 81,
      "start": 40.142,
      "duration": 0.0137,
      "velocity": 97,
      "chip": "ym2612"
    },
    {
      "channel": 3,
      "note": 84,
      "start": 40.1432,
      "duration": 0.0141,
      "velocity": 97,
      "chip": "ym2612"
    },
    {
      "channel": 2,
      "note": 56,
      "start": 40.1443,
      "duration": 0.0141,
      "velocity": 100,
      "chip": "ym2612"
    },
    {
      "channel": 1,
      "note": 53,
      "start": 40.1529,
      "duration": 0.0161,
      "velocity": 124,
      "chip": "ym2612"
    },
    {
      "channel": 0,
      "note": 39,
      "start": 40.1546,
      "duration": 0.0161,
      "velocity": 115,
      "chip": "ym2612"
    },
    {
      "channel": 4,
      "note": 81,
      "start": 40.1558,
      "duration": 0.0161,
      "velocity": 97,
      "chip": "ym2612"
    },
    {
      "channel": 3,
      "note": 84,
      "start": 40.1572,
      "duration": 0.0186,
      "velocity": 97,
      "chip": "ym2612"
    },
    {
      "channel": 2,
      "note": 56,
      "start": 40.1584,
      "duration": 0.0186,
      "velocity": 100,
      "chip": "ym2612"
    },
    {
      "channel": 1,
      "note": 52,
      "start": 40.169,
      "duration": 0.0161,
      "velocity": 124,
      "chip": "ym2612"
    },
    {
      "channel": 0,
      "note": 40,
      "start": 40.1707,
      "duration": 0.0161,
      "velocity": 115,
      "chip": "ym2612"
    },
    {
      "channel": 4,
      "note": 81,
      "start": 40.1719,
      "duration": 0.0161,
      "velocity": 97,
      "chip": "ym2612"
    },
    {
      "channel": 3,
      "note": 84,
      "start": 40.1758,
      "duration": 0.0133,
      "velocity": 97,
      "chip": "ym2612"
    },
    {
      "channel": 2,
      "note": 56,
      "start": 40.177,
      "duration": 0.016,
      "velocity": 100,
      "chip": "ym2612"
    },
    {
      "channel": 1,
      "note": 51,
      "start": 40.185,
      "duration": 0.0153,
      "velocity": 1,
      "chip": "ym2612"
    },
    {
      "channel": 0,
      "note": 40,
      "start": 40.1868,
      "duration": 0.0153,
      "velocity": 115,
      "chip": "ym2612"
    },
    {
      "channel": 4,
      "note": 81,
      "start": 40.188,
      "duration": 0.0153,
      "velocity": 97,
      "chip": "ym2612"
    },
    {
      "channel": 3,
      "note": 84,
      "start": 40.1891,
      "duration": 0.0153,
      "velocity": 97,
      "chip": "ym2612"
    },
    {
      "channel": 2,
      "note": 56,
      "start": 40.193,
      "duration": 0.0126,
      "velocity": 100,
      "chip": "ym2612"
    },
    {
      "channel": 0,
      "note": 40,
      "start": 40.2021,
      "duration": 0.0152,
      "velocity": 115,
      "chip": "ym2612"
    },
    {
      "channel": 4,
      "note": 81,
      "start": 40.2032,
      "duration": 0.0153,
      "velocity": 97,
      "chip": "ym2612"
    },
    {
      "channel": 3,
      "note": 84,
      "start": 40.2044,
      "duration": 0.0152,
      "velocity": 97,
      "chip": "ym2612"
    },
    {
      "channel": 0,
      "note": 41,
      "start": 40.2173,
      "duration": 0.0179,
      "velocity": 115,
      "chip": "ym2612"
    },
    {
      "channel": 4,
      "note": 81,
      "start": 40.2185,
      "duration": 0.0181,
      "velocity": 97,
      "chip": "ym2612"
    },
    {
      "channel": 3,
      "note": 84,
      "start": 40.2196,
      "duration": 0.0184,
      "velocity": 97,
      "chip": "ym2612"
    },
    {
      "channel": 0,
      "note": 36,
      "start": 40.2352,
      "duration": 0.0144,
      "velocity": 115,
      "chip": "ym2612"
    },
    {
      "channel": 4,
      "note": 77,
      "start": 40.2366,
      "duration": 0.0142,
      "velocity": 97,
      "chip": "ym2612"
    },
    {
      "channel": 3,
      "note": 80,
      "start": 40.238,
      "duration": 0.014,
      "velocity": 97,
      "chip": "ym2612"
    },
    {
      "channel": 2,
      "note": 49,
      "start": 40.2422,
      "duration": 0.011,
      "velocity": 100,
      "chip": "ym2612"
    },
    {
      "channel": 1,
      "note": 37,
      "start": 40.2437,
      "duration": 0.0107,
      "velocity": 100,
      "chip": "ym2612"
    },
    {
      "channel": 0,
      "note": 36,
      "start": 40.2495,
      "duration": 0.0161,
      "velocity": 115,
      "chip": "ym2612"
    },
    {
      "channel": 4,
      "note": 77,
      "start": 40.2508,
      "duration": 0.016,
      "velocity": 97,
      "chip": "ym2612"
    },
    {
      "channel": 3,
      "note": 80,
      "start": 40.252,
      "duration": 0.0159,
      "velocity": 97,
      "chip": "ym2612"
    },
    {
      "channel": 2,
      "note": 49,
      "start": 40.2532,
      "duration": 0.0159,
      "velocity": 100,
      "chip": "ym2612"
    },
    {
      "channel": 1,
      "note": 37,
      "start": 40.2544,
      "duration": 0.0159,
      "velocity": 100,
      "chip": "ym2612"
    },
    {
      "channel": 0,
      "note": 37,
      "start": 40.2656,
      "duration": 0.0161,
      "velocity": 115,
      "chip": "ym2612"
    },
    {
      "channel": 4,
      "note": 77,
      "start": 40.2668,
      "duration": 0.0161,
      "velocity": 97,
      "chip": "ym2612"
    },
    {
      "channel": 3,
      "note": 80,
      "start": 40.2679,
      "duration": 0.0161,
      "velocity": 97,
      "chip": "ym2612"
    },
    {
      "channel": 2,
      "note": 49,
      "start": 40.2691,
      "duration": 0.0161,
      "velocity": 100,
      "chip": "ym2612"
    },
    {
      "channel": 1,
      "note": 37,
      "start": 40.2702,
      "duration": 0.0161,
      "velocity": 100,
      "chip": "ym2612"
    },
    {
      "channel": 0,
      "note": 37,
      "start": 40.2817,
      "duration": 0.0161,
      "velocity": 115,
      "chip": "ym2612"
    },
    {
      "channel": 4,
      "note": 77,
      "start": 40.2829,
      "duration": 0.0161,
      "velocity": 97,
      "chip": "ym2612"
    },
    {
      "channel": 3,
      "note": 80,
      "start": 40.2841,
      "duration": 0.0161,
      "velocity": 97,
      "chip": "ym2612"
    },
    {
      "channel": 2,
      "note": 49,
      "start": 40.2852,
      "duration": 0.0161,
      "velocity": 100,
      "chip": "ym2612"
    },
    {
      "channel": 1,
      "note": 37,
      "start": 40.2863,
      "duration": 0.0161,
      "velocity": 100,
      "chip": "ym2612"
    },
    {
      "channel": 0,
      "note": 38,
      "start": 40.2978,
      "duration": 0.0161,
      "velocity": 115,
      "chip": "ym2612"
    },
    {
      "channel": 4,
      "note": 77,
      "start": 40.299,
      "duration": 0.0161,
      "velocity": 97,
      "chip": "ym2612"
    },
    {
      "channel": 3,
      "note": 80,
      "start": 40.3002,
      "duration": 0.0161,
      "velocity": 97,
      "chip": "ym2612"
    },
    {
      "channel": 2,
      "note": 49,
      "start": 40.3013,
      "duration": 0.0161,
      "velocity": 100,
      "chip": "ym2612"
    },
    {
      "channel": 1,
      "note": 37,
      "start": 40.3024,
      "duration": 0.0161,
      "velocity": 100,
      "chip": "ym2612"
    },
    {
      "channel": 0,
      "note": 38,
      "start": 40.3139,
      "duration": 0.0161,
      "velocity": 115,
      "chip": "ym2612"
    },
    {
      "channel": 4,
      "note": 77,
      "start": 40.3151,
      "duration": 0.0161,
      "velocity": 97,
      "chip": "ym2612"
    },
    {
      "channel": 3,
      "note": 80,
      "start": 40.3163,
      "duration": 0.0161,
      "velocity": 97,
      "chip": "ym2612"
    },
    {
      "channel": 2,
      "note": 49,
      "start": 40.3173,
      "duration": 0.0161,
      "velocity": 100,
      "chip": "ym2612"
    },
    {
      "channel": 1,
      "note": 37,
      "start": 40.3185,
      "duration": 0.0161,
      "velocity": 100,
      "chip": "ym2612"
    },
    {
      "channel": 0,
      "note": 39,
      "start": 40.33,
      "duration": 0.0161,
      "velocity": 115,
      "chip": "ym2612"
    },
    {
      "channel": 4,
      "note": 77,
      "start": 40.3312,
      "duration": 0.0161,
      "velocity": 97,
      "chip": "ym2612"
    },
    {
      "channel": 3,
      "note": 80,
      "start": 40.3324,
      "duration": 0.0161,
      "velocity": 97,
      "chip": "ym2612"
    },
    {
      "channel": 2,
      "note": 49,
      "start": 40.3334,
      "duration": 0.0161,
      "velocity": 100,
      "chip": "ym2612"
    },
    {
      "channel": 1,
      "note": 37,
      "start": 40.3346,
      "duration": 0.0161,
      "velocity": 100,
      "chip": "ym2612"
    },
    {
      "channel": 0,
      "note": 39,
      "start": 40.3461,
      "duration": 0.0161,
      "velocity": 115,
      "chip": "ym2612"
    },
    {
      "channel": 4,
      "note": 77,
      "start": 40.3473,
      "duration": 0.0161,
      "velocity": 97,
      "chip": "ym2612"
    },
    {
      "channel": 3,
      "note": 80,
      "start": 40.3485,
      "duration": 0.0161,
      "velocity": 97,
      "chip": "ym2612"
    },
    {
      "channel": 2,
      "note": 49,
      "start": 40.3495,
      "duration": 0.0161,
      "velocity": 100,
      "chip": "ym2612"
    },
    {
      "channel": 1,
      "note": 37,
      "start": 40.3507,
      "duration": 0.0161,
      "velocity": 100,
      "chip": "ym2612"
    },
    {
      "channel": 0,
      "note": 40,
      "start": 40.3622,
      "duration": 0.0161,
      "velocity": 115,
      "chip": "ym2612"
    },
    {
      "channel": 4,
      "note": 77,
      "start": 40.3634,
      "duration": 0.0161,
      "velocity": 97,
      "chip": "ym2612"
    },
    {
      "channel": 3,
      "note": 80,
      "start": 40.3646,
      "duration": 0.0161,
      "velocity": 97,
      "chip": "ym2612"
    },
    {
      "channel": 2,
      "note": 49,
      "start": 40.3657,
      "duration": 0.0161,
      "velocity": 100,
      "chip": "ym2612"
    },
    {
      "channel": 1,
      "note": 37,
      "start": 40.3668,
      "duration": 0.0161,
      "velocity": 100,
      "chip": "ym2612"
    },
    {
      "channel": 0,
      "note": 40,
      "start": 40.3783,
      "duration": 0.0161,
      "velocity": 115,
      "chip": "ym2612"
    },
    {
      "channel": 4,
      "note": 77,
      "start": 40.3795,
      "duration": 0.0161,
      "velocity": 97,
      "chip": "ym2612"
    },
    {
      "channel": 3,
      "note": 80,
      "start": 40.3807,
      "duration": 0.0161,
      "velocity": 97,
      "chip": "ym2612"
    },
    {
      "channel": 2,
      "note": 49,
      "start": 40.3818,
      "duration": 0.0161,
      "velocity": 100,
      "chip": "ym2612"
    },
    {
      "channel": 1,
      "note": 37,
      "start": 40.3829,
      "duration": 0.0161,
      "velocity": 100,
      "chip": "ym2612"
    },
    {
      "channel": 0,
      "note": 40,
      "start": 40.3944,
      "duration": 0.0161,
      "velocity": 115,
      "chip": "ym2612"
    },
    {
      "channel": 4,
      "note": 77,
      "start": 40.3956,
      "duration": 0.0161,
      "velocity": 97,
      "chip": "ym2612"
    },
    {
      "channel": 3,
      "note": 80,
      "start": 40.3967,
      "duration": 0.0162,
      "velocity": 97,
      "chip": "ym2612"
    },
    {
      "channel": 0,
      "note": 41,
      "start": 40.4105,
      "duration": 0.0161,
      "velocity": 115,
      "chip": "ym2612"
    },
    {
      "channel": 4,
      "note": 77,
      "start": 40.4117,
      "duration": 0.0161,
      "velocity": 97,
      "chip": "ym2612"
    },
    {
      "channel": 3,
      "note": 80,
      "start": 40.4129,
      "duration": 0.0161,
      "velocity": 97,
      "chip": "ym2612"
    },
    {
      "channel": 0,
      "note": 41,
      "start": 40.4266,
      "duration": 0.0173,
      "velocity": 115,
      "chip": "ym2612"
    },
    {
      "channel": 4,
      "note": 77,
      "start": 40.4278,
      "duration": 0.0173,
      "velocity": 97,
      "chip": "ym2612"
    },
    {
      "channel": 3,
      "note": 80,
      "start": 40.429,
      "duration": 0.0174,
      "velocity": 97,
      "chip": "ym2612"
    },
    {
      "channel": 2,
      "note": 56,
      "start": 40.4304,
      "duration": 0.0171,
      "velocity": 100,
      "chip": "ym2612"
    },
    {
      "channel": 1,
      "note": 44,
      "start": 40.4318,
      "duration": 0.0169,
      "velocity": 100,
      "chip": "ym2612"
    },
    {
      "channel": 0,
      "note": 42,
      "start": 40.4439,
      "duration": 0.0167,
      "velocity": 115,
      "chip": "ym2612"
    },
    {
      "channel": 4,
      "note": 77,
      "start": 40.4451,
      "duration": 0.0167,
      "velocity": 97,
      "chip": "ym2612"
    },
    {
      "channel": 3,
      "note": 80,
      "start": 40.4464,
      "duration": 0.0167,
      "velocity": 97,
      "chip": "ym2612"
    },
    {
      "channel": 2,
      "note": 56,
      "start": 40.4475,
      "duration": 0.0167,
      "velocity": 100,
      "chip": "ym2612"
    },
    {
      "channel": 1,
      "note": 44,
      "start": 40.4487,
      "duration": 0.0166,
      "velocity": 100,
      "chip": "ym2612"
    },
    {
      "channel": 0,
      "note": 42,
      "start": 40.4607,
      "duration": 0.0163,
      "velocity": 115,
      "chip": "ym2612"
    },
    {
      "channel": 4,
      "note": 77,
      "start": 40.4619,
      "duration": 0.0163,
      "velocity": 97,
      "chip": "ym2612"
    },
    {
      "channel": 3,
      "note": 80,
      "start": 40.463,
      "duration": 0.0163,
      "velocity": 97,
      "chip": "ym2612"
    },
    {
      "channel": 2,
      "note": 56,
      "start": 40.4642,
      "duration": 0.0163,
      "velocity": 100,
      "chip": "ym2612"
    },
    {
      "channel": 1,
      "note": 44,
      "start": 40.4653,
      "duration": 0.0163,
      "velocity": 100,
      "chip": "ym2612"
    },
    {
      "channel": 0,
      "note": 43,
      "start": 40.477,
      "duration": 0.0144,
      "velocity": 115,
      "chip": "ym2612"
    },
    {
      "channel": 4,
      "note": 77,
      "start": 40.4782,
      "duration": 0.0144,
      "velocity": 97,
      "chip": "ym2612"
    },
    {
      "channel": 3,
      "note": 80,
      "start": 40.4793,
      "duration": 0.0144,
      "velocity": 97,
      "chip": "ym2612"
    },
    {
      "channel": 2,
      "note": 56,
      "start": 40.4805,
      "duration": 0.0144,
      "velocity": 100,
      "chip": "ym2612"
    },
    {
      "channel": 1,
      "note": 44,
      "start": 40.4816,
      "duration": 0.0144,
      "velocity": 100,
      "chip": "ym2612"
    },
    {
      "channel": 0,
      "note": 43,
      "start": 40.4913,
      "duration": 0.0185,
      "velocity": 115,
      "chip": "ym2612"
    },
    {
      "channel": 4,
      "note": 77,
      "start": 40.4925,
      "duration": 0.0185,
      "velocity": 97,
      "chip": "ym2612"
    },
    {
      "channel": 3,
      "note": 80,
      "start": 40.4937,
      "duration": 0.0185,
      "velocity": 97,
      "chip": "ym2612"
    },
    {
      "channel": 2,
      "note": 56,
      "start": 40.4948,
      "duration": 0.0185,
      "velocity": 100,
      "chip": "ym2612"
    },
    {
      "channel": 1,
      "note": 44,
      "start": 40.496,
      "duration": 0.0185,
      "velocity": 100,
      "chip": "ym2612"
    },
    {
      "channel": 0,
      "note": 44,
      "start": 40.5098,
      "duration": 0.0162,
      "velocity": 115,
      "chip": "ym2612"
    },
    {
      "channel": 4,
      "note": 77,
      "start": 40.5111,
      "duration": 0.0161,
      "velocity": 97,
      "chip": "ym2612"
    },
    {
      "channel": 3,
      "note": 80,
      "start": 40.5122,
      "duration": 0.0162,
      "velocity": 97,
      "chip": "ym2612"
    },
    {
      "channel": 2,
      "note": 56,
      "start": 40.5134,
      "duration": 0.0161,
      "velocity": 100,
      "chip": "ym2612"
    },
    {
      "channel": 1,
      "note": 44,
      "start": 40.5145,
      "duration": 0.0161,
      "velocity": 100,
      "chip": "ym2612"
    },
    {
      "channel": 0,
      "note": 44,
      "start": 40.526,
      "duration": 0.0156,
      "velocity": 115,
      "chip": "ym2612"
    },
    {
      "channel": 4,
      "note": 77,
      "start": 40.5271,
      "duration": 0.0158,
      "velocity": 97,
      "chip": "ym2612"
    },
    {
      "channel": 3,
      "note": 80,
      "start": 40.5284,
      "duration": 0.0157,
      "velocity": 97,
      "chip": "ym2612"
    },
    {
      "channel": 2,
      "note": 56,
      "start": 40.5295,
      "duration": 0.0157,
      "velocity": 100,
      "chip": "ym2612"
    },
    {
      "channel": 1,
      "note": 44,
      "start": 40.5306,
      "duration": 0.0158,
      "velocity": 100,
      "chip": "ym2612"
    },
    {
      "channel": 0,
      "note": 44,
      "start": 40.5417,
      "duration": 0.0138,
      "velocity": 115,
      "chip": "ym2612"
    },
    {
      "channel": 4,
      "note": 77,
      "start": 40.5429,
      "duration": 0.0141,
      "velocity": 97,
      "chip": "ym2612"
    },
    {
      "channel": 3,
      "note": 80,
      "start": 40.5441,
      "duration": 0.0141,
      "velocity": 97,
      "chip": "ym2612"
    },
    {
      "channel": 2,
      "note": 56,
      "start": 40.5452,
      "duration": 0.0141,
      "velocity": 100,
      "chip": "ym2612"
    },
    {
      "channel": 1,
      "note": 44,
      "start": 40.5464,
      "duration": 0.0141,
      "velocity": 100,
      "chip": "ym2612"
    },
    {
      "channel": 0,
      "note": 45,
      "start": 40.5555,
      "duration": 0.0161,
      "velocity": 115,
      "chip": "ym2612"
    },
    {
      "channel": 4,
      "note": 77,
      "start": 40.557,
      "duration": 0.0185,
      "velocity": 97,
      "chip": "ym2612"
    },
    {
      "channel": 3,
      "note": 80,
      "start": 40.5581,
      "duration": 0.0185,
      "velocity": 97,
      "chip": "ym2612"
    },
    {
      "channel": 2,
      "note": 56,
      "start": 40.5593,
      "duration": 0.0185,
      "velocity": 100,
      "chip": "ym2612"
    },
    {
      "channel": 1,
      "note": 44,
      "start": 40.5604,
      "duration": 0.0185,
      "velocity": 100,
      "chip": "ym2612"
    },
    {
      "channel": 0,
      "note": 45,
      "start": 40.5716,
      "duration": 0.0161,
      "velocity": 115,
      "chip": "ym2612"
    },
    {
      "channel": 4,
      "note": 77,
      "start": 40.5755,
      "duration": 0.0134,
      "velocity": 97,
      "chip": "ym2612"
    },
    {
      "channel": 3,
      "note": 80,
      "start": 40.5766,
      "duration": 0.0161,
      "velocity": 97,
      "chip": "ym2612"
    },
    {
      "channel": 2,
      "note": 56,
      "start": 40.5778,
      "duration": 0.0161,
      "velocity": 100,
      "chip": "ym2612"
    },
    {
      "channel": 1,
      "note": 44,
      "start": 40.5789,
      "duration": 0.0161,
      "velocity": 100,
      "chip": "ym2612"
    },
    {
      "channel": 0,
      "note": 46,
      "start": 40.5876,
      "duration": 0.0161,
      "velocity": 115,
      "chip": "ym2612"
    },
    {
      "channel": 4,
      "note": 77,
      "start": 40.5889,
      "duration": 0.0161,
      "velocity": 97,
      "chip": "ym2612"
    },
    {
      "channel": 3,
      "note": 80,
      "start": 40.5927,
      "duration": 0.0157,
      "velocity": 97,
      "chip": "ym2612"
    },
    {
      "channel": 0,
      "note": 46,
      "start": 40.6037,
      "duration": 0.0199,
      "velocity": 115,
      "chip": "ym2612"
    },
    {
      "channel": 4,
      "note": 77,
      "start": 40.6049,
      "duration": 0.0199,
      "velocity": 97,
      "chip": "ym2612"
    },
    {
      "channel": 3,
      "note": 80,
      "start": 40.6085,
      "duration": 0.0176,
      "velocity": 97,
      "chip": "ym2612"
    },
    {
      "channel": 1,
      "note": 78,
      "start": 40.6216,
      "duration": 0.0144,
      "velocity": 124,
      "chip": "ym2612"
    },
    {
      "channel": 0,
      "note": 47,
      "start": 40.6237,
      "duration": 0.014,
      "velocity": 115,
      "chip": "ym2612"
    },
    {
      "channel": 4,
      "note": 77,
      "start": 40.6248,
      "duration": 0.0141,
      "velocity": 97,
      "chip": "ym2612"
    },
    {
      "channel": 3,
      "note": 80,
      "start": 40.626,
      "duration": 0.0167,
      "velocity": 97,
      "chip": "ym2612"
    },
    {
      "channel": 2,
      "note": 61,
      "start": 40.6274,
      "duration": 0.0165,
      "velocity": 100,
      "chip": "ym2612"
    },
    {
      "channel": 1,
      "note": 76,
      "start": 40.6359,
      "duration": 0.016,
      "velocity": 124,
      "chip": "ym2612"
    },
    {
      "channel": 0,
      "note": 47,
      "start": 40.6376,
      "duration": 0.016,
      "velocity": 115,
      "chip": "ym2612"
    },
    {
      "channel": 4,
      "note": 77,
      "start": 40.6389,
      "duration": 0.016,
      "velocity": 97,
      "chip": "ym2612"
    },
    {
      "channel": 3,
      "note": 80,
      "start": 40.6427,
      "duration": 0.0161,
      "velocity": 97,
      "chip": "ym2612"
    },
    {
      "channel": 2,
      "note": 61,
      "start": 40.6439,
      "duration": 0.016,
      "velocity": 100,
      "chip": "ym2612"
    },
    {
      "channel": 1,
      "note": 75,
      "start": 40.652,
      "duration": 0.0161,
      "velocity": 124,
      "chip": "ym2612"
    },
    {
      "channel": 0,
      "note": 47,
      "start": 40.6537,
      "duration": 0.0161,
      "velocity": 115,
      "chip": "ym2612"
    },
    {
      "channel": 4,
      "note": 77,
      "start": 40.6549,
      "duration": 0.0161,
      "velocity": 97,
      "chip": "ym2612"
    },
    {
      "channel": 3,
      "note": 80,
      "start": 40.6588,
      "duration": 0.0133,
      "velocity": 97,
      "chip": "ym2612"
    },
    {
      "channel": 2,
      "note": 61,
      "start": 40.6599,
      "duration": 0.0158,
      "velocity": 100,
      "chip": "ym2612"
    },
    {
      "channel": 1,
      "note": 74,
      "start": 40.668,
      "duration": 0.0161,
      "velocity": 124,
      "chip": "ym2612"
    },
    {
      "channel": 0,
      "note": 48,
      "start": 40.6698,
      "duration": 0.0161,
      "velocity": 115,
      "chip": "ym2612"
    },
    {
      "channel": 4,
      "note": 77,
      "start": 40.671,
      "duration": 0.0162,
      "velocity": 97,
      "chip": "ym2612"
    },
    {
      "channel": 3,
      "note": 80,
      "start": 40.6721,
      "duration": 0.0161,
      "velocity": 97,
      "chip": "ym2612"
    },
    {
      "channel": 2,
      "note": 61,
      "start": 40.6757,
      "duration": 0.0141,
      "velocity": 100,
      "chip": "ym2612"
    },
    {
      "channel": 1,
      "note": 72,
      "start": 40.6841,
      "duration": 0.0161,
      "velocity": 124,
      "chip": "ym2612"
    },
    {
      "channel": 0,
      "note": 48,
      "start": 40.6859,
      "duration": 0.0161,
      "velocity": 115,
      "chip": "ym2612"
    },
    {
      "channel": 4,
      "note": 77,
      "start": 40.6871,
      "duration": 0.016,
      "velocity": 97,
      "chip": "ym2612"
    },
    {
      "channel": 3,
      "note": 80,
      "start": 40.6883,
      "duration": 0.0161,
      "velocity": 97,
      "chip": "ym2612"
    },
    {
      "channel": 2,
      "note": 61,
      "start": 40.6898,
      "duration": 0.0158,
      "velocity": 100,
      "chip": "ym2612"
    },
    {
      "channel": 1,
      "note": 71,
      "start": 40.7002,
      "duration": 0.0161,
      "velocity": 124,
      "chip": "ym2612"
    },
    {
      "channel": 0,
      "note": 49,
      "start": 40.702,
      "duration": 0.0153,
      "velocity": 1,
      "chip": "ym2612"
    },
    {
      "channel": 4,
      "note": 77,
      "start": 40.7032,
      "duration": 0.0153,
      "velocity": 97,
      "chip": "ym2612"
    },
    {
      "channel": 3,
      "note": 80,
      "start": 40.7044,
      "duration": 0.0153,
      "velocity": 97,
      "chip": "ym2612"
    },
    {
      "channel": 2,
      "note": 61,
      "start": 40.7055,
      "duration": 0.0153,
      "velocity": 100,
      "chip": "ym2612"
    },
    {
      "channel": 1,
      "note": 70,
      "start": 40.7163,
      "duration": 0.0162,
      "velocity": 124,
      "chip": "ym2612"
    },
    {
      "channel": 4,
      "note": 77,
      "start": 40.7185,
      "duration": 0.0153,
      "velocity": 97,
      "chip": "ym2612"
    },
    {
      "channel": 3,
      "note": 80,
      "start": 40.7196,
      "duration": 0.0153,
      "velocity": 97,
      "chip": "ym2612"
    },
    {
      "channel": 2,
      "note": 61,
      "start": 40.7208,
      "duration": 0.0153,
      "velocity": 100,
      "chip": "ym2612"
    },
    {
      "channel": 1,
      "note": 69,
      "start": 40.7325,
      "duration": 0.0161,
      "velocity": 124,
      "chip": "ym2612"
    },
    {
      "channel": 4,
      "note": 77,
      "start": 40.7338,
      "duration": 0.0161,
      "velocity": 97,
      "chip": "ym2612"
    },
    {
      "channel": 3,
      "note": 80,
      "start": 40.7349,
      "duration": 0.0161,
      "velocity": 97,
      "chip": "ym2612"
    },
    {
      "channel": 2,
      "note": 61,
      "start": 40.7361,
      "duration": 0.0161,
      "velocity": 100,
      "chip": "ym2612"
    },
    {
      "channel": 1,
      "note": 68,
      "start": 40.7486,
      "duration": 0.0161,
      "velocity": 124,
      "chip": "ym2612"
    },
    {
      "channel": 4,
      "note": 77,
      "start": 40.7499,
      "duration": 0.0161,
      "velocity": 97,
      "chip": "ym2612"
    },
    {
      "channel": 3,
      "note": 80,
      "start": 40.751,
      "duration": 0.0161,
      "velocity": 97,
      "chip": "ym2612"
    },
    {
      "channel": 2,
      "note": 61,
      "start": 40.7522,
      "duration": 0.0161,
      "velocity": 100,
      "chip": "ym2612"
    },
    {
      "channel": 1,
      "note": 66,
      "start": 40.7647,
      "duration": 0.0161,
      "velocity": 124,
      "chip": "ym2612"
    },
    {
      "channel": 4,
      "note": 77,
      "start": 40.766,
      "duration": 0.0161,
      "velocity": 97,
      "chip": "ym2612"
    },
    {
      "channel": 3,
      "note": 80,
      "start": 40.7671,
      "duration": 0.0161,
      "velocity": 97,
      "chip": "ym2612"
    },
    {
      "channel": 2,
      "note": 61,
      "start": 40.7683,
      "duration": 0.0161,
      "velocity": 100,
      "chip": "ym2612"
    },
    {
      "channel": 1,
      "note": 65,
      "start": 40.7808,
      "duration": 0.0161,
      "velocity": 124,
      "chip": "ym2612"
    },
    {
      "channel": 4,
      "note": 77,
      "start": 40.782,
      "duration": 0.0161,
      "velocity": 97,
      "chip": "ym2612"
    },
    {
      "channel": 3,
      "note": 80,
      "start": 40.7832,
      "duration": 0.0161,
      "velocity": 97,
      "chip": "ym2612"
    },
    {
      "channel": 1,
      "note": 64,
      "start": 40.7969,
      "duration": 0.0161,
      "velocity": 124,
      "chip": "ym2612"
    },
    {
      "channel": 4,
      "note": 77,
      "start": 40.7981,
      "duration": 0.0195,
      "velocity": 97,
      "chip": "ym2612"
    },
    {
      "channel": 3,
      "note": 80,
      "start": 40.7993,
      "duration": 0.0196,
      "velocity": 97,
      "chip": "ym2612"
    },
    {
      "channel": 1,
      "note": 62,
      "start": 40.813,
      "duration": 0.0161,
      "velocity": 124,
      "chip": "ym2612"
    },
    {
      "channel": 0,
      "note": 36,
      "start": 40.8165,
      "duration": 0.0144,
      "velocity": 115,
      "chip": "ym2612"
    },
    {
      "channel": 4,
      "note": 77,
      "start": 40.8177,
      "duration": 0.0144,
      "velocity": 97,
      "chip": "ym2612"
    },
    {
      "channel": 3,
      "note": 80,
      "start": 40.8189,
      "duration": 0.0143,
      "velocity": 97,
      "chip": "ym2612"
    },
    {
      "channel": 2,
      "note": 59,
      "start": 40.8203,
      "duration": 0.0141,
      "velocity": 100,
      "chip": "ym2612"
    },
    {
      "channel": 1,
      "note": 61,
      "start": 40.8291,
      "duration": 0.0161,
      "velocity": 124,
      "chip": "ym2612"
    },
    {
      "channel": 0,
      "note": 36,
      "start": 40.8308,
      "duration": 0.016,
      "velocity": 115,
      "chip": "ym2612"
    },
    {
      "channel": 4,
      "note": 77,
      "start": 40.832,
      "duration": 0.016,
      "velocity": 97,
      "chip": "ym2612"
    },
    {
      "channel": 3,
      "note": 80,
      "start": 40.8332,
      "duration": 0.016,
      "velocity": 97,
      "chip": "ym2612"
    },
    {
      "channel": 2,
      "note": 59,
      "start": 40.8344,
      "duration": 0.016,
      "velocity": 100,
      "chip": "ym2612"
    },
    {
      "channel": 1,
      "note": 60,
      "start": 40.8451,
      "duration": 0.0161,
      "velocity": 124,
      "chip": "ym2612"
    },
    {
      "channel": 0,
      "note": 37,
      "start": 40.8469,
      "duration": 0.0162,
      "velocity": 115,
      "chip": "ym2612"
    },
    {
      "channel": 4,
      "note": 77,
      "start": 40.8481,
      "duration": 0.0161,
      "velocity": 97,
      "chip": "ym2612"
    },
    {
      "channel": 3,
      "note": 80,
      "start": 40.8492,
      "duration": 0.0161,
      "velocity": 97,
      "chip": "ym2612"
    },
    {
      "channel": 2,
      "note": 59,
      "start": 40.8504,
      "duration": 0.0162,
      "velocity": 100,
      "chip": "ym2612"
    },
    {
      "channel": 1,
      "note": 59,
      "start": 40.8612,
      "duration": 0.0162,
      "velocity": 124,
      "chip": "ym2612"
    },
    {
      "channel": 0,
      "note": 37,
      "start": 40.863,
      "duration": 0.0161,
      "velocity": 115,
      "chip": "ym2612"
    },
    {
      "channel": 4,
      "note": 77,
      "start": 40.8642,
      "duration": 0.0162,
      "velocity": 97,
      "chip": "ym2612"
    },
    {
      "channel": 3,
      "note": 80,
      "start": 40.8654,
      "duration": 0.0161,
      "velocity": 97,
      "chip": "ym2612"
    },
    {
      "channel": 2,
      "note": 59,
      "start": 40.8665,
      "duration": 0.0161,
      "velocity": 100,
      "chip": "ym2612"
    },
    {
      "channel": 1,
      "note": 57,
      "start": 40.8774,
      "duration": 0.0161,
      "velocity": 124,
      "chip": "ym2612"
    },
    {
      "channel": 0,
      "note": 38,
      "start": 40.8791,
      "duration": 0.0161,
      "velocity": 115,
      "chip": "ym2612"
    },
    {
      "channel": 4,
      "note": 77,
      "start": 40.8803,
      "duration": 0.0161,
      "velocity": 97,
      "chip": "ym2612"
    },
    {
      "channel": 3,
      "note": 80,
      "start": 40.8815,
      "duration": 0.0161,
      "velocity": 97,
      "chip": "ym2612"
    },
    {
      "channel": 2,
      "note": 59,
      "start": 40.8826,
      "duration": 0.0161,
      "velocity": 100,
      "chip": "ym2612"
    },
    {
      "channel": 1,
      "note": 56,
      "start": 40.8935,
      "duration": 0.0171,
      "velocity": 124,
      "chip": "ym2612"
    },
    {
      "channel": 0,
      "note": 38,
      "start": 40.8952,
      "duration": 0.0171,
      "velocity": 115,
      "chip": "ym2612"
    },
    {
      "channel": 4,
      "note": 77,
      "start": 40.8964,
      "duration": 0.0171,
      "velocity": 97,
      "chip": "ym2612"
    },
    {
      "channel": 3,
      "note": 80,
      "start": 40.8976,
      "duration": 0.0171,
      "velocity": 97,
      "chip": "ym2612"
    },
    {
      "channel": 2,
      "note": 59,
      "start": 40.8987,
      "duration": 0.0171,
      "velocity": 100,
      "chip": "ym2612"
    },
    {
      "channel": 1,
      "note": 55,
      "start": 40.9105,
      "duration": 0.0167,
      "velocity": 124,
      "chip": "ym2612"
    },
    {
      "channel": 0,
      "note": 39,
      "start": 40.9123,
      "duration": 0.0167,
      "velocity": 115,
      "chip": "ym2612"
    },
    {
      "channel": 4,
      "note": 77,
      "start": 40.9135,
      "duration": 0.0167,
      "velocity": 97,
      "chip": "ym2612"
    },
    {
      "channel": 3,
      "note": 80,
      "start": 40.9147,
      "duration": 0.0167,
      "velocity": 97,
      "chip": "ym2612"
    },
    {
      "channel": 2,
      "note": 59,
      "start": 40.9158,
      "duration": 0.0167,
      "velocity": 100,
      "chip": "ym2612"
    },
    {
      "channel": 1,
      "note": 53,
      "start": 40.9272,
      "duration": 0.0163,
      "velocity": 124,
      "chip": "ym2612"
    },
    {
      "channel": 0,
      "note": 39,
      "start": 40.929,
      "duration": 0.0163,
      "velocity": 115,
      "chip": "ym2612"
    },
    {
      "channel": 4,
      "note": 77,
      "start": 40.9301,
      "duration": 0.0163,
      "velocity": 97,
      "chip": "ym2612"
    },
    {
      "channel": 3,
      "note": 80,
      "start": 40.9314,
      "duration": 0.0163,
      "velocity": 97,
      "chip": "ym2612"
    },
    {
      "channel": 2,
      "note": 59,
      "start": 40.9325,
      "duration": 0.0163,
      "velocity": 100,
      "chip": "ym2612"
    },
    {
      "channel": 1,
      "note": 52,
      "start": 40.9436,
      "duration": 0.0146,
      "velocity": 124,
      "chip": "ym2612"
    },
    {
      "channel": 0,
      "note": 40,
      "start": 40.9453,
      "duration": 0.0146,
      "velocity": 115,
      "chip": "ym2612"
    },
    {
      "channel": 4,
      "note": 77,
      "start": 40.9465,
      "duration": 0.0146,
      "velocity": 97,
      "chip": "ym2612"
    },
    {
      "channel": 3,
      "note": 80,
      "start": 40.9477,
      "duration": 0.0146,
      "velocity": 97,
      "chip": "ym2612"
    },
    {
      "channel": 2,
      "note": 59,
      "start": 40.9488,
      "duration": 0.0146,
      "velocity": 100,
      "chip": "ym2612"
    },
    {
      "channel": 1,
      "note": 51,
      "start": 40.9582,
      "duration": 0.0178,
      "velocity": 1,
      "chip": "ym2612"
    },
    {
      "channel": 0,
      "note": 40,
      "start": 40.9599,
      "duration": 0.0178,
      "velocity": 115,
      "chip": "ym2612"
    },
    {
      "channel": 4,
      "note": 77,
      "start": 40.9611,
      "duration": 0.0178,
      "velocity": 97,
      "chip": "ym2612"
    },
    {
      "channel": 3,
      "note": 80,
      "start": 40.9623,
      "duration": 0.0178,
      "velocity": 97,
      "chip": "ym2612"
    },
    {
      "channel": 2,
      "note": 59,
      "start": 40.9634,
      "duration": 0.0178,
      "velocity": 100,
      "chip": "ym2612"
    },
    {
      "channel": 0,
      "note": 40,
      "start": 40.9777,
      "duration": 0.0153,
      "velocity": 115,
      "chip": "ym2612"
    },
    {
      "channel": 4,
      "note": 77,
      "start": 40.9789,
      "duration": 0.0153,
      "velocity": 97,
      "chip": "ym2612"
    },
    {
      "channel": 3,
      "note": 80,
      "start": 40.98,
      "duration": 0.0153,
      "velocity": 97,
      "chip": "ym2612"
    },
    {
      "channel": 0,
      "note": 41,
      "start": 40.9929,
      "duration": 0.0157,
      "velocity": 115,
      "chip": "ym2612"
    },
    {
      "channel": 4,
      "note": 77,
      "start": 40.9941,
      "duration": 0.0157,
      "velocity": 97,
      "chip": "ym2612"
    },
    {
      "channel": 3,
      "note": 80,
      "start": 40.9953,
      "duration": 0.0157,
      "velocity": 97,
      "chip": "ym2612"
    },
    {
      "channel": 0,
      "note": 41,
      "start": 41.0086,
      "duration": 0.0137,
      "velocity": 115,
      "chip": "ym2612"
    },
    {
      "channel": 4,
      "note": 77,
      "start": 41.0098,
      "duration": 0.014,
      "velocity": 97,
      "chip": "ym2612"
    },
    {
      "channel": 3,
      "note": 80,
      "start": 41.011,
      "duration": 0.0141,
      "velocity": 97,
      "chip": "ym2612"
    },
    {
      "channel": 0,
      "note": 42,
      "start": 41.0224,
      "duration": 0.0161,
      "velocity": 115,
      "chip": "ym2612"
    },
    {
      "channel": 4,
      "note": 77,
      "start": 41.0239,
      "duration": 0.0186,
      "velocity": 97,
      "chip": "ym2612"
    },
    {
      "channel": 3,
      "note": 80,
      "start": 41.0251,
      "duration": 0.0185,
      "velocity": 97,
      "chip": "ym2612"
    },
    {
      "channel": 0,
      "note": 42,
      "start": 41.0385,
      "duration": 0.0161,
      "velocity": 115,
      "chip": "ym2612"
    },
    {
      "channel": 4,
      "note": 77,
      "start": 41.0424,
      "duration": 0.0134,
      "velocity": 97,
      "chip": "ym2612"
    },
    {
      "channel": 3,
      "note": 80,
      "start": 41.0436,
      "duration": 0.0162,
      "velocity": 97,
      "chip": "ym2612"
    },
    {
      "channel": 0,
      "note": 43,
      "start": 41.0546,
      "duration": 0.0161,
      "velocity": 115,
      "chip": "ym2612"
    },
    {
      "channel": 4,
      "note": 77,
      "start": 41.0558,
      "duration": 0.0161,
      "velocity": 97,
      "chip": "ym2612"
    },
    {
      "channel": 3,
      "note": 80,
      "start": 41.0597,
      "duration": 0.0157,
      "velocity": 97,
      "chip": "ym2612"
    },
    {
      "channel": 0,
      "note": 43,
      "start": 41.0707,
      "duration": 0.0161,
      "velocity": 115,
      "chip": "ym2612"
    },
    {
      "channel": 4,
      "note": 77,
      "start": 41.0719,
      "duration": 0.0161,
      "velocity": 97,
      "chip": "ym2612"
    },
    {
      "channel": 3,
      "note": 80,
      "start": 41.0754,
      "duration": 0.0137,
      "velocity": 97,
      "chip": "ym2612"
    },
    {
      "channel": 0,
      "note": 44,
      "start": 41.0868,
      "duration": 0.0161,
      "velocity": 115,
      "chip": "ym2612"
    },
    {
      "channel": 4,
      "note": 77,
      "start": 41.088,
      "duration": 0.0161,
      "velocity": 97,
      "chip": "ym2612"
    },
    {
      "channel": 3,
      "note": 80,
      "start": 41.0891,
      "duration": 0.0161,
      "velocity": 97,
      "chip": "ym2612"
    },
    {
      "channel": 0,
      "note": 44,
      "start": 41.1029,
      "duration": 0.0161,
      "velocity": 115,
      "chip": "ym2612"
    },
    {
      "channel": 4,
      "note": 77,
      "start": 41.1041,
      "duration": 0.0161,
      "velocity": 97,
      "chip": "ym2612"
    },
    {
      "channel": 3,
      "note": 80,
      "start": 41.1052,
      "duration": 0.0161,
      "velocity": 97,
      "chip": "ym2612"
    },
    {
      "channel": 0,
      "note": 44,
      "start": 41.119,
      "duration": 0.0161,
      "velocity": 115,
      "chip": "ym2612"
    },
    {
      "channel": 4,
      "note": 77,
      "start": 41.1202,
      "duration": 0.0161,
      "velocity": 97,
      "chip": "ym2612"
    },
    {
      "channel": 3,
      "note": 80,
      "start": 41.1213,
      "duration": 0.0162,
      "velocity": 97,
      "chip": "ym2612"
    },
    {
      "channel": 0,
      "note": 45,
      "start": 41.1351,
      "duration": 0.0161,
      "velocity": 115,
      "chip": "ym2612"
    },
    {
      "channel": 4,
      "note": 77,
      "start": 41.1363,
      "duration": 0.0161,
      "velocity": 97,
      "chip": "ym2612"
    },
    {
      "channel": 3,
      "note": 80,
      "start": 41.1375,
      "duration": 0.0161,
      "velocity": 97,
      "chip": "ym2612"
    },
    {
      "channel": 0,
      "note": 45,
      "start": 41.1512,
      "duration": 0.0161,
      "velocity": 115,
      "chip": "ym2612"
    },
    {
      "channel": 4,
      "note": 77,
      "start": 41.1523,
      "duration": 0.0161,
      "velocity": 97,
      "chip": "ym2612"
    },
    {
      "channel": 3,
      "note": 80,
      "start": 41.1536,
      "duration": 0.0161,
      "velocity": 97,
      "chip": "ym2612"
    },
    {
      "channel": 0,
      "note": 46,
      "start": 41.1673,
      "duration": 0.0161,
      "velocity": 115,
      "chip": "ym2612"
    },
    {
      "channel": 4,
      "note": 77,
      "start": 41.1684,
      "duration": 0.0162,
      "velocity": 97,
      "chip": "ym2612"
    },
    {
      "channel": 3,
      "note": 80,
      "start": 41.1696,
      "duration": 0.0161,
      "velocity": 97,
      "chip": "ym2612"
    },
    {
      "channel": 0,
      "note": 46,
      "start": 41.1834,
      "duration": 0.0179,
      "velocity": 115,
      "chip": "ym2612"
    },
    {
      "channel": 4,
      "note": 77,
      "start": 41.1846,
      "duration": 0.0179,
      "velocity": 97,
      "chip": "ym2612"
    },
    {
      "channel": 3,
      "note": 80,
      "start": 41.1857,
      "duration": 0.0179,
      "velocity": 97,
      "chip": "ym2612"
    },
    {
      "channel": 0,
      "note": 36,
      "start": 41.2013,
      "duration": 0.0144,
      "velocity": 115,
      "chip": "ym2612"
    },
    {
      "channel": 4,
      "note": 77,
      "start": 41.2025,
      "duration": 0.0144,
      "velocity": 97,
      "chip": "ym2612"
    },
    {
      "channel": 3,
      "note": 80,
      "start": 41.2037,
      "duration": 0.0143,
      "velocity": 97,
      "chip": "ym2612"
    },
    {
      "channel": 2,
      "note": 61,
      "start": 41.2051,
      "duration": 0.0141,
      "velocity": 100,
      "chip": "ym2612"
    },
    {
      "channel": 1,
      "note": 49,
      "start": 41.2088,
      "duration": 0.0115,
      "velocity": 100,
      "chip": "ym2612"
    },
    {
      "channel": 0,
      "note": 36,
      "start": 41.2156,
      "duration": 0.016,
      "velocity": 115,
      "chip": "ym2612"
    },
    {
      "channel": 4,
      "note": 77,
      "start": 41.2168,
      "duration": 0.016,
      "velocity": 97,
      "chip": "ym2612"
    },
    {
      "channel": 3,
      "note": 80,
      "start": 41.218,
      "duration": 0.016,
      "velocity": 97,
      "chip": "ym2612"
    },
    {
      "channel": 2,
      "note": 61,
      "start": 41.2192,
      "duration": 0.016,
      "velocity": 100,
      "chip": "ym2612"
    },
    {
      "channel": 1,
      "note": 49,
      "start": 41.2203,
      "duration": 0.016,
      "velocity": 100,
      "chip": "ym2612"
    },
    {
      "channel": 0,
      "note": 37,
      "start": 41.2317,
      "duration": 0.0161,
      "velocity": 115,
      "chip": "ym2612"
    },
    {
      "channel": 4,
      "note": 77,
      "start": 41.2329,
      "duration": 0.0161,
      "velocity": 97,
      "chip": "ym2612"
    },
    {
      "channel": 3,
      "note": 80,
      "start": 41.234,
      "duration": 0.0161,
      "velocity": 97,
      "chip": "ym2612"
    },
    {
      "channel": 2,
      "note": 61,
      "start": 41.2352,
      "duration": 0.0161,
      "velocity": 100,
      "chip": "ym2612"
    },
    {
      "channel": 1,
      "note": 49,
      "start": 41.2363,
      "duration": 0.0161,
      "velocity": 100,
      "chip": "ym2612"
    },
    {
      "channel": 0,
      "note": 37,
      "start": 41.2478,
      "duration": 0.0161,
      "velocity": 115,
      "chip": "ym2612"
    },
    {
      "channel": 4,
      "note": 77,
      "start": 41.249,
      "duration": 0.0161,
      "velocity": 97,
      "chip": "ym2612"
    },
    {
      "channel": 3,
      "note": 80,
      "start": 41.2501,
      "duration": 0.0161,
      "velocity": 97,
      "chip": "ym2612"
    },
    {
      "channel": 2,
      "note": 61,
      "start": 41.2513,
      "duration": 0.0161,
      "velocity": 100,
      "chip": "ym2612"
    },
    {
      "channel": 1,
      "note": 49,
      "start": 41.2524,
      "duration": 0.0161,
      "velocity": 100,
      "chip": "ym2612"
    },
    {
      "channel": 0,
      "note": 38,
      "start": 41.2639,
      "duration": 0.0161,
      "velocity": 115,
      "chip": "ym2612"
    },
    {
      "channel": 4,
      "note": 77,
      "start": 41.2651,
      "duration": 0.0161,
      "velocity": 97,
      "chip": "ym2612"
    },
    {
      "channel": 3,
      "note": 80,
      "start": 41.2662,
      "duration": 0.0161,
      "velocity": 97,
      "chip": "ym2612"
    },
    {
      "channel": 2,
      "note": 61,
      "start": 41.2673,
      "duration": 0.0161,
      "velocity": 100,
      "chip": "ym2612"
    },
    {
      "channel": 1,
      "note": 49,
      "start": 41.2685,
      "duration": 0.0161,
      "velocity": 100,
      "chip": "ym2612"
    },
    {
      "channel": 0,
      "note": 38,
      "start": 41.28,
      "duration": 0.0161,
      "velocity": 115,
      "chip": "ym2612"
    },
    {
      "channel": 4,
      "note": 77,
      "start": 41.2812,
      "duration": 0.0161,
      "velocity": 97,
      "chip": "ym2612"
    },
    {
      "channel": 3,
      "note": 80,
      "start": 41.2823,
      "duration": 0.0161,
      "velocity": 97,
      "chip": "ym2612"
    },
    {
      "channel": 2,
      "note": 61,
      "start": 41.2834,
      "duration": 0.0162,
      "velocity": 100,
      "chip": "ym2612"
    },
    {
      "channel": 1,
      "note": 49,
      "start": 41.2846,
      "duration": 0.0161,
      "velocity": 100,
      "chip": "ym2612"
    },
    {
      "channel": 0,
      "note": 39,
      "start": 41.2961,
      "duration": 0.0161,
      "velocity": 115,
      "chip": "ym2612"
    },
    {
      "channel": 4,
      "note": 77,
      "start": 41.2973,
      "duration": 0.0161,
      "velocity": 97,
      "chip": "ym2612"
    },
    {
      "channel": 3,
      "note": 80,
      "start": 41.2985,
      "duration": 0.0161,
      "velocity": 97,
      "chip": "ym2612"
    },
    {
      "channel": 2,
      "note": 61,
      "start": 41.2996,
      "duration": 0.0161,
      "velocity": 100,
      "chip": "ym2612"
    },
    {
      "channel": 1,
      "note": 49,
      "start": 41.3007,
      "duration": 0.0162,
      "velocity": 100,
      "chip": "ym2612"
    },
    {
      "channel": 0,
      "note": 39,
      "start": 41.3122,
      "duration": 0.0161,
      "velocity": 115,
      "chip": "ym2612"
    },
    {
      "channel": 4,
      "note": 77,
      "start": 41.3134,
      "duration": 0.0161,
      "velocity": 97,
      "chip": "ym2612"
    },
    {
      "channel": 3,
      "note": 80,
      "start": 41.3146,
      "duration": 0.0162,
      "velocity": 97,
      "chip": "ym2612"
    },
    {
      "channel": 2,
      "note": 61,
      "start": 41.3157,
      "duration": 0.0161,
      "velocity": 100,
      "chip": "ym2612"
    },
    {
      "channel": 1,
      "note": 49,
      "start": 41.3168,
      "duration": 0.0161,
      "velocity": 100,
      "chip": "ym2612"
    },
    {
      "channel": 0,
      "note": 40,
      "start": 41.3283,
      "duration": 0.0161,
      "velocity": 115,
      "chip": "ym2612"
    },
    {
      "channel": 4,
      "note": 77,
      "start": 41.3295,
      "duration": 0.0161,
      "velocity": 97,
      "chip": "ym2612"
    },
    {
      "channel": 3,
      "note": 80,
      "start": 41.3307,
      "duration": 0.016,
      "velocity": 97,
      "chip": "ym2612"
    },
    {
      "channel": 2,
      "note": 61,
      "start": 41.3318,
      "duration": 0.0161,
      "velocity": 100,
      "chip": "ym2612"
    },
    {
      "channel": 1,
      "note": 49,
      "start": 41.3329,
      "duration": 0.0161,
      "velocity": 100,
      "chip": "ym2612"
    },
    {
      "channel": 0,
      "note": 40,
      "start": 41.3444,
      "duration": 0.0161,
      "velocity": 115,
      "chip": "ym2612"
    },
    {
      "channel": 4,
      "note": 77,
      "start": 41.3456,
      "duration": 0.0161,
      "velocity": 97,
      "chip": "ym2612"
    },
    {
      "channel": 3,
      "note": 80,
      "start": 41.3467,
      "duration": 0.0161,
      "velocity": 97,
      "chip": "ym2612"
    },
    {
      "channel": 2,
      "note": 61,
      "start": 41.3479,
      "duration": 0.0161,
      "velocity": 100,
      "chip": "ym2612"
    },
    {
      "channel": 1,
      "note": 49,
      "start": 41.349,
      "duration": 0.0161,
      "velocity": 100,
      "chip": "ym2612"
    },
    {
      "channel": 0,
      "note": 40,
      "start": 41.3605,
      "duration": 0.0168,
      "velocity": 115,
      "chip": "ym2612"
    },
    {
      "channel": 4,
      "note": 77,
      "start": 41.3617,
      "duration": 0.0168,
      "velocity": 97,
      "chip": "ym2612"
    },
    {
      "channel": 3,
      "note": 80,
      "start": 41.3628,
      "duration": 0.0169,
      "velocity": 97,
      "chip": "ym2612"
    },
    {
      "channel": 0,
      "note": 41,
      "start": 41.3773,
      "duration": 0.0202,
      "velocity": 115,
      "chip": "ym2612"
    },
    {
      "channel": 4,
      "note": 77,
      "start": 41.3785,
      "duration": 0.0202,
      "velocity": 97,
      "chip": "ym2612"
    },
    {
      "channel": 3,
      "note": 80,
      "start": 41.3797,
      "duration": 0.0201,
      "velocity": 97,
      "chip": "ym2612"
    },
    {
      "channel": 1,
      "note": 78,
      "start": 41.3957,
      "duration": 0.0146,
      "velocity": 124,
      "chip": "ym2612"
    },
    {
      "channel": 0,
      "note": 41,
      "start": 41.3974,
      "duration": 0.0146,
      "velocity": 115,
      "chip": "ym2612"
    },
    {
      "channel": 4,
      "note": 77,
      "start": 41.3987,
      "duration": 0.0146,
      "velocity": 97,
      "chip": "ym2612"
    },
    {
      "channel": 3,
      "note": 80,
      "start": 41.3998,
      "duration": 0.0146,
      "velocity": 97,
      "chip": "ym2612"
    },
    {
      "channel": 2,
      "note": 59,
      "start": 41.4012,
      "duration": 0.0144,
      "velocity": 100,
      "chip": "ym2612"
    },
    {
      "channel": 1,
      "note": 76,
      "start": 41.4103,
      "duration": 0.0146,
      "velocity": 124,
      "chip": "ym2612"
    },
    {
      "channel": 0,
      "note": 42,
      "start": 41.412,
      "duration": 0.0146,
      "velocity": 115,
      "chip": "ym2612"
    },
    {
      "channel": 4,
      "note": 77,
      "start": 41.4132,
      "duration": 0.0146,
      "velocity": 97,
      "chip": "ym2612"
    },
    {
      "channel": 3,
      "note": 80,
      "start": 41.4144,
      "duration": 0.0146,
      "velocity": 97,
      "chip": "ym2612"
    },
    {
      "channel": 2,
      "note": 59,
      "start": 41.4156,
      "duration": 0.0146,
      "velocity": 100,
      "chip": "ym2612"
    },
    {
      "channel": 1,
      "note": 75,
      "start": 41.4249,
      "duration": 0.0187,
      "velocity": 124,
      "chip": "ym2612"
    },
    {
      "channel": 0,
      "note": 42,
      "start": 41.4266,
      "duration": 0.0188,
      "velocity": 115,
      "chip": "ym2612"
    },
    {
      "channel": 4,
      "note": 77,
      "start": 41.4278,
      "duration": 0.0187,
      "velocity": 97,
      "chip": "ym2612"
    },
    {
      "channel": 3,
      "note": 80,
      "start": 41.429,
      "duration": 0.0188,
      "velocity": 97,
      "chip": "ym2612"
    },
    {
      "channel": 2,
      "note": 59,
      "start": 41.4301,
      "duration": 0.0188,
      "velocity": 100,
      "chip": "ym2612"
    },
    {
      "channel": 1,
      "note": 74,
      "start": 41.4436,
      "duration": 0.0162,
      "velocity": 124,
      "chip": "ym2612"
    },
    {
      "channel": 0,
      "note": 43,
      "start": 41.4454,
      "duration": 0.0161,
      "velocity": 115,
      "chip": "ym2612"
    },
    {
      "channel": 4,
      "note": 77,
      "start": 41.4466,
      "duration": 0.0162,
      "velocity": 97,
      "chip": "ym2612"
    },
    {
      "channel": 3,
      "note": 80,
      "start": 41.4478,
      "duration": 0.0162,
      "velocity": 97,
      "chip": "ym2612"
    },
    {
      "channel": 2,
      "note": 59,
      "start": 41.4489,
      "duration": 0.0161,
      "velocity": 100,
      "chip": "ym2612"
    },
    {
      "channel": 1,
      "note": 72,
      "start": 41.4598,
      "duration": 0.0157,
      "velocity": 124,
      "chip": "ym2612"
    },
    {
      "channel": 0,
      "note": 43,
      "start": 41.4615,
      "duration": 0.0158,
      "velocity": 115,
      "chip": "ym2612"
    },
    {
      "channel": 4,
      "note": 77,
      "start": 41.4627,
      "duration": 0.0157,
      "velocity": 97,
      "chip": "ym2612"
    },
    {
      "channel": 3,
      "note": 80,
      "start": 41.4639,
      "duration": 0.0157,
      "velocity": 97,
      "chip": "ym2612"
    },
    {
      "channel": 2,
      "note": 59,
      "start": 41.4651,
      "duration": 0.0157,
      "velocity": 100,
      "chip": "ym2612"
    },
    {
      "channel": 1,
      "note": 71,
      "start": 41.4755,
      "duration": 0.0137,
      "velocity": 124,
      "chip": "ym2612"
    },
    {
      "channel": 0,
      "note": 44,
      "start": 41.4773,
      "duration": 0.014,
      "velocity": 115,
      "chip": "ym2612"
    },
    {
      "channel": 4,
      "note": 77,
      "start": 41.4784,
      "duration": 0.014,
      "velocity": 97,
      "chip": "ym2612"
    },
    {
      "channel": 3,
      "note": 80,
      "start": 41.4796,
      "duration": 0.014,
      "velocity": 97,
      "chip": "ym2612"
    },
    {
      "channel": 2,
      "note": 59,
      "start": 41.4808,
      "duration": 0.014,
      "velocity": 100,
      "chip": "ym2612"
    },
    {
      "channel": 1,
      "note": 70,
      "start": 41.4892,
      "duration": 0.0161,
      "velocity": 124,
      "chip": "ym2612"
    },
    {
      "channel": 0,
      "note": 44,
      "start": 41.4913,
      "duration": 0.0185,
      "velocity": 115,
      "chip": "ym2612"
    },
    {
      "channel": 4,
      "note": 77,
      "start": 41.4925,
      "duration": 0.0185,
      "velocity": 97,
      "chip": "ym2612"
    },
    {
      "channel": 3,
      "note": 80,
      "start": 41.4936,
      "duration": 0.0185,
      "velocity": 97,
      "chip": "ym2612"
    },
    {
      "channel": 2,
      "note": 59,
      "start": 41.4948,
      "duration": 0.0185,
      "velocity": 100,
      "chip": "ym2612"
    },
    {
      "channel": 1,
      "note": 69,
      "start": 41.5053,
      "duration": 0.0161,
      "velocity": 124,
      "chip": "ym2612"
    },
    {
      "channel": 0,
      "note": 44,
      "start": 41.5098,
      "duration": 0.0161,
      "velocity": 115,
      "chip": "ym2612"
    },
    {
      "channel": 4,
      "note": 77,
      "start": 41.511,
      "duration": 0.0161,
      "velocity": 97,
      "chip": "ym2612"
    },
    {
      "channel": 3,
      "note": 80,
      "start": 41.5121,
      "duration": 0.0162,
      "velocity": 97,
      "chip": "ym2612"
    },
    {
      "channel": 2,
      "note": 59,
      "start": 41.5133,
      "duration": 0.0161,
      "velocity": 100,
      "chip": "ym2612"
    },
    {
      "channel": 1,
      "note": 68,
      "start": 41.5214,
      "duration": 0.0161,
      "velocity": 124,
      "chip": "ym2612"
    },
    {
      "channel": 0,
      "note": 45,
      "start": 41.5259,
      "duration": 0.0134,
      "velocity": 115,
      "chip": "ym2612"
    },
    {
      "channel": 4,
      "note": 77,
      "start": 41.5271,
      "duration": 0.0157,
      "velocity": 97,
      "chip": "ym2612"
    },
    {
      "channel": 3,
      "note": 80,
      "start": 41.5283,
      "duration": 0.0157,
      "velocity": 97,
      "chip": "ym2612"
    },
    {
      "channel": 2,
      "note": 59,
      "start": 41.5294,
      "duration": 0.0158,
      "velocity": 100,
      "chip": "ym2612"
    },
    {
      "channel": 1,
      "note": 66,
      "start": 41.5375,
      "duration": 0.0161,
      "velocity": 124,
      "chip": "ym2612"
    },
    {
      "channel": 0,
      "note": 45,
      "start": 41.5392,
      "duration": 0.0161,
      "velocity": 115,
      "chip": "ym2612"
    },
    {
      "channel": 4,
      "note": 77,
      "start": 41.5428,
      "duration": 0.0141,
      "velocity": 97,
      "chip": "ym2612"
    },
    {
      "channel": 3,
      "note": 80,
      "start": 41.544,
      "duration": 0.014,
      "velocity": 97,
      "chip": "ym2612"
    },
    {
      "channel": 2,
      "note": 59,
      "start": 41.5451,
      "duration": 0.014,
      "velocity": 100,
      "chip": "ym2612"
    },
    {
      "channel": 1,
      "note": 65,
      "start": 41.5536,
      "duration": 0.0161,
      "velocity": 124,
      "chip": "ym2612"
    },
    {
      "channel": 0,
      "note": 46,
      "start": 41.5553,
      "duration": 0.0161,
      "velocity": 115,
      "chip": "ym2612"
    },
    {
      "channel": 4,
      "note": 77,
      "start": 41.5569,
      "duration": 0.0185,
      "velocity": 97,
      "chip": "ym2612"
    },
    {
      "channel": 3,
      "note": 80,
      "start": 41.558,
      "duration": 0.0186,
      "velocity": 97,
      "chip": "ym2612"
    },
    {
      "channel": 1,
      "note": 64,
      "start": 41.5697,
      "duration": 0.0161,
      "velocity": 124,
      "chip": "ym2612"
    },
    {
      "channel": 0,
      "note": 46,
      "start": 41.5714,
      "duration": 0.0161,
      "velocity": 115,
      "chip": "ym2612"
    },
    {
      "channel": 4,
      "note": 77,
      "start": 41.5754,
      "duration": 0.0134,
      "velocity": 97,
      "chip": "ym2612"
    },
    {
      "channel": 3,
      "note": 80,
      "start": 41.5766,
      "duration": 0.0162,
      "velocity": 97,
      "chip": "ym2612"
    },
    {
      "channel": 1,
      "note": 62,
      "start": 41.5858,
      "duration": 0.0161,
      "velocity": 124,
      "chip": "ym2612"
    },
    {
      "channel": 0,
      "note": 47,
      "start": 41.5876,
      "duration": 0.0161,
      "velocity": 115,
      "chip": "ym2612"
    },
    {
      "channel": 4,
      "note": 77,
      "start": 41.5888,
      "duration": 0.016,
      "velocity": 97,
      "chip": "ym2612"
    },
    {
      "channel": 3,
      "note": 80,
      "start": 41.5927,
      "duration": 0.0156,
      "velocity": 97,
      "chip": "ym2612"
    },
    {
      "channel": 2,
      "note": 56,
      "start": 41.5941,
      "duration": 0.0155,
      "velocity": 100,
      "chip": "ym2612"
    },
    {
      "channel": 1,
      "note": 61,
      "start": 41.6019,
      "duration": 0.0161,
      "velocity": 124,
      "chip": "ym2612"
    },
    {
      "channel": 0,
      "note": 47,
      "start": 41.6037,
      "duration": 0.0161,
      "velocity": 115,
      "chip": "ym2612"
    },
    {
      "channel": 4,
      "note": 77,
      "start": 41.6048,
      "duration": 0.0161,
      "velocity": 97,
      "chip": "ym2612"
    },
    {
      "channel": 3,
      "note": 80,
      "start": 41.6084,
      "duration": 0.0137,
      "velocity": 97,
      "chip": "ym2612"
    },
    {
      "channel": 2,
      "note": 56,
      "start": 41.6096,
      "duration": 0.014,
      "velocity": 100,
      "chip": "ym2612"
    },
    {
      "channel": 1,
      "note": 60,
      "start": 41.618,
      "duration": 0.0161,
      "velocity": 124,
      "chip": "ym2612"
    },
    {
      "channel": 0,
      "note": 47,
      "start": 41.6198,
      "duration": 0.0161,
      "velocity": 115,
      "chip": "ym2612"
    },
    {
      "channel": 4,
      "note": 77,
      "start": 41.621,
      "duration": 0.0161,
      "velocity": 97,
      "chip": "ym2612"
    },
    {
      "channel": 3,
      "note": 80,
      "start": 41.6221,
      "duration": 0.0161,
      "velocity": 97,
      "chip": "ym2612"
    },
    {
      "channel": 2,
      "note": 56,
      "start": 41.6236,
      "duration": 0.0185,
      "velocity": 100,
      "chip": "ym2612"
    },
    {
      "channel": 1,
      "note": 59,
      "start": 41.6341,
      "duration": 0.0161,
      "velocity": 124,
      "chip": "ym2612"
    },
    {
      "channel": 0,
      "note": 48,
      "start": 41.6359,
      "duration": 0.0161,
      "velocity": 115,
      "chip": "ym2612"
    },
    {
      "channel": 4,
      "note": 77,
      "start": 41.6371,
      "duration": 0.0161,
      "velocity": 97,
      "chip": "ym2612"
    },
    {
      "channel": 3,
      "note": 80,
      "start": 41.6382,
      "duration": 0.0161,
      "velocity": 97,
      "chip": "ym2612"
    },
    {
      "channel": 2,
      "note": 56,
      "start": 41.6421,
      "duration": 0.0134,
      "velocity": 100,
      "chip": "ym2612"
    },
    {
      "channel": 1,
      "note": 57,
      "start": 41.6502,
      "duration": 0.0161,
      "velocity": 124,
      "chip": "ym2612"
    },
    {
      "channel": 0,
      "note": 48,
      "start": 41.652,
      "duration": 0.0161,
      "velocity": 115,
      "chip": "ym2612"
    },
    {
      "channel": 4,
      "note": 77,
      "start": 41.6532,
      "duration": 0.0161,
      "velocity": 97,
      "chip": "ym2612"
    },
    {
      "channel": 3,
      "note": 80,
      "start": 41.6543,
      "duration": 0.0161,
      "velocity": 97,
      "chip": "ym2612"
    },
    {
      "channel": 2,
      "note": 56,
      "start": 41.6555,
      "duration": 0.0161,
      "velocity": 100,
      "chip": "ym2612"
    },
    {
      "channel": 1,
      "note": 56,
      "start": 41.6663,
      "duration": 0.0161,
      "velocity": 124,
      "chip": "ym2612"
    },
    {
      "channel": 0,
      "note": 49,
      "start": 41.668,
      "duration": 0.0153,
      "velocity": 1,
      "chip": "ym2612"
    },
    {
      "channel": 4,
      "note": 77,
      "start": 41.6693,
      "duration": 0.0153,
      "velocity": 97,
      "chip": "ym2612"
    },
    {
      "channel": 3,
      "note": 80,
      "start": 41.6704,
      "duration": 0.0153,
      "velocity": 97,
      "chip": "ym2612"
    },
    {
      "channel": 2,
      "note": 56,
      "start": 41.6716,
      "duration": 0.0153,
      "velocity": 100,
      "chip": "ym2612"
    },
    {
      "channel": 1,
      "note": 55,
      "start": 41.6824,
      "duration": 0.0161,
      "velocity": 124,
      "chip": "ym2612"
    },
    {
      "channel": 4,
      "note": 77,
      "start": 41.6845,
      "duration": 0.0153,
      "velocity": 97,
      "chip": "ym2612"
    },
    {
      "channel": 3,
      "note": 80,
      "start": 41.6857,
      "duration": 0.0152,
      "velocity": 97,
      "chip": "ym2612"
    },
    {
      "channel": 2,
      "note": 56,
      "start": 41.6869,
      "duration": 0.0152,
      "velocity": 100,
      "chip": "ym2612"
    },
    {
      "channel": 1,
      "note": 53,
      "start": 41.6985,
      "duration": 0.0161,
      "velocity": 124,
      "chip": "ym2612"
    },
    {
      "channel": 4,
      "note": 77,
      "start": 41.6998,
      "duration": 0.0162,
      "velocity": 97,
      "chip": "ym2612"
    },
    {
      "channel": 3,
      "note": 80,
      "start": 41.701,
      "duration": 0.0161,
      "velocity": 97,
      "chip": "ym2612"
    },
    {
      "channel": 2,
      "note": 56,
      "start": 41.7021,
      "duration": 0.0162,
      "velocity": 100,
      "chip": "ym2612"
    },
    {
      "channel": 1,
      "note": 52,
      "start": 41.7146,
      "duration": 0.0161,
      "velocity": 124,
      "chip": "ym2612"
    },
    {
      "channel": 4,
      "note": 77,
      "start": 41.716,
      "duration": 0.016,
      "velocity": 97,
      "chip": "ym2612"
    },
    {
      "channel": 3,
      "note": 80,
      "start": 41.7171,
      "duration": 0.0161,
      "velocity": 97,
      "chip": "ym2612"
    },
    {
      "channel": 2,
      "note": 56,
      "start": 41.7183,
      "duration": 0.016,
      "velocity": 100,
      "chip": "ym2612"
    },
    {
      "channel": 1,
      "note": 51,
      "start": 41.7307,
      "duration": 0.0153,
      "velocity": 1,
      "chip": "ym2612"
    },
    {
      "channel": 4,
      "note": 77,
      "start": 41.732,
      "duration": 0.0153,
      "velocity": 97,
      "chip": "ym2612"
    },
    {
      "channel": 3,
      "note": 80,
      "start": 41.7332,
      "duration": 0.0153,
      "velocity": 97,
      "chip": "ym2612"
    },
    {
      "channel": 2,
      "note": 56,
      "start": 41.7343,
      "duration": 0.0153,
      "velocity": 100,
      "chip": "ym2612"
    },
    {
      "channel": 4,
      "note": 77,
      "start": 41.7473,
      "duration": 0.0153,
      "velocity": 97,
      "chip": "ym2612"
    },
    {
      "channel": 3,
      "note": 80,
      "start": 41.7485,
      "duration": 0.0153,
      "velocity": 97,
      "chip": "ym2612"
    },
    {
      "channel": 4,
      "note": 77,
      "start": 41.7626,
      "duration": 0.0195,
      "velocity": 97,
      "chip": "ym2612"
    },
    {
      "channel": 3,
      "note": 80,
      "start": 41.7637,
      "duration": 0.0195,
      "velocity": 97,
      "chip": "ym2612"
    },
    {
      "channel": 0,
      "note": 36,
      "start": 41.7809,
      "duration": 0.0144,
      "velocity": 115,
      "chip": "ym2612"
    },
    {
      "channel": 4,
      "note": 77,
      "start": 41.7821,
      "duration": 0.0144,
      "velocity": 97,
      "chip": "ym2612"
    },
    {
      "channel": 3,
      "note": 80,
      "start": 41.7833,
      "duration": 0.0144,
      "velocity": 97,
      "chip": "ym2612"
    },
    {
      "channel": 2,
      "note": 49,
      "start": 41.7847,
      "duration": 0.0141,
      "velocity": 100,
      "chip": "ym2612"
    },
    {
      "channel": 1,
      "note": 37,
      "start": 41.7862,
      "duration": 0.0138,
      "velocity": 100,
      "chip": "ym2612"
    },
    {
      "channel": 0,
      "note": 36,
      "start": 41.7953,
      "duration": 0.016,
      "velocity": 115,
      "chip": "ym2612"
    },
    {
      "channel": 4,
      "note": 77,
      "start": 41.7965,
      "duration": 0.016,
      "velocity": 97,
      "chip": "ym2612"
    },
    {
      "channel": 3,
      "note": 80,
      "start": 41.7976,
      "duration": 0.016,
      "velocity": 97,
      "chip": "ym2612"
    },
    {
      "channel": 2,
      "note": 49,
      "start": 41.7988,
      "duration": 0.016,
      "velocity": 100,
      "chip": "ym2612"
    },
    {
      "channel": 1,
      "note": 37,
      "start": 41.8,
      "duration": 0.016,
      "velocity": 100,
      "chip": "ym2612"
    },
    {
      "channel": 0,
      "note": 37,
      "start": 41.8113,
      "duration": 0.0161,
      "velocity": 115,
      "chip": "ym2612"
    },
    {
      "channel": 4,
      "note": 77,
      "start": 41.8125,
      "duration": 0.0161,
      "velocity": 97,
      "chip": "ym2612"
    },
    {
      "channel": 3,
      "note": 80,
      "start": 41.8137,
      "duration": 0.0161,
      "velocity": 97,
      "chip": "ym2612"
    },
    {
      "channel": 2,
      "note": 49,
      "start": 41.8148,
      "duration": 0.0161,
      "velocity": 100,
      "chip": "ym2612"
    },
    {
      "channel": 1,
      "note": 37,
      "start": 41.816,
      "duration": 0.0161,
      "velocity": 100,
      "chip": "ym2612"
    },
    {
      "channel": 0,
      "note": 37,
      "start": 41.8274,
      "duration": 0.0166,
      "velocity": 115,
      "chip": "ym2612"
    },
    {
      "channel": 4,
      "note": 77,
      "start": 41.8286,
      "duration": 0.0166,
      "velocity": 97,
      "chip": "ym2612"
    },
    {
      "channel": 3,
      "note": 80,
      "start": 41.8298,
      "duration": 0.0166,
      "velocity": 97,
      "chip": "ym2612"
    },
    {
      "channel": 2,
      "note": 49,
      "start": 41.8309,
      "duration": 0.0166,
      "velocity": 100,
      "chip": "ym2612"
    },
    {
      "channel": 1,
      "note": 37,
      "start": 41.832,
      "duration": 0.0166,
      "velocity": 100,
      "chip": "ym2612"
    },
    {
      "channel": 0,
      "note": 38,
      "start": 41.844,
      "duration": 0.0167,
      "velocity": 115,
      "chip": "ym2612"
    },
    {
      "channel": 4,
      "note": 77,
      "start": 41.8452,
      "duration": 0.0166,
      "velocity": 97,
      "chip": "ym2612"
    },
    {
      "channel": 3,
      "note": 80,
      "start": 41.8464,
      "duration": 0.0167,
      "velocity": 97,
      "chip": "ym2612"
    },
    {
      "channel": 2,
      "note": 49,
      "start": 41.8475,
      "duration": 0.0167,
      "velocity": 100,
      "chip": "ym2612"
    },
    {
      "channel": 1,
      "note": 37,
      "start": 41.8487,
      "duration": 0.0166,
      "velocity": 100,
      "chip": "ym2612"
    },
    {
      "channel": 0,
      "note": 38,
      "start": 41.8607,
      "duration": 0.0163,
      "velocity": 115,
      "chip": "ym2612"
    },
    {
      "channel": 4,
      "note": 77,
      "start": 41.8618,
      "duration": 0.0163,
      "velocity": 97,
      "chip": "ym2612"
    },
    {
      "channel": 3,
      "note": 80,
      "start": 41.863,
      "duration": 0.0163,
      "velocity": 97,
      "chip": "ym2612"
    },
    {
      "channel": 2,
      "note": 49,
      "start": 41.8642,
      "duration": 0.0163,
      "velocity": 100,
      "chip": "ym2612"
    },
    {
      "channel": 1,
      "note": 37,
      "start": 41.8653,
      "duration": 0.0163,
      "velocity": 100,
      "chip": "ym2612"
    },
    {
      "channel": 0,
      "note": 39,
      "start": 41.877,
      "duration": 0.0149,
      "velocity": 115,
      "chip": "ym2612"
    },
    {
      "channel": 4,
      "note": 77,
      "start": 41.8782,
      "duration": 0.0148,
      "velocity": 97,
      "chip": "ym2612"
    },
    {
      "channel": 3,
      "note": 80,
      "start": 41.8793,
      "duration": 0.0149,
      "velocity": 97,
      "chip": "ym2612"
    },
    {
      "channel": 2,
      "note": 49,
      "start": 41.8805,
      "duration": 0.0149,
      "velocity": 100,
      "chip": "ym2612"
    },
    {
      "channel": 1,
      "note": 37,
      "start": 41.8816,
      "duration": 0.0148,
      "velocity": 100,
      "chip": "ym2612"
    },
    {
      "channel": 0,
      "note": 39,
      "start": 41.8918,
      "duration": 0.0188,
      "velocity": 115,
      "chip": "ym2612"
    },
    {
      "channel": 4,
      "note": 77,
      "start": 41.893,
      "duration": 0.0188,
      "velocity": 97,
      "chip": "ym2612"
    },
    {
      "channel": 3,
      "note": 80,
      "start": 41.8942,
      "duration": 0.0188,
      "velocity": 97,
      "chip": "ym2612"
    },
    {
      "channel": 2,
      "note": 49,
      "start": 41.8954,
      "duration": 0.0188,
      "velocity": 100,
      "chip": "ym2612"
    },
    {
      "channel": 1,
      "note": 37,
      "start": 41.8964,
      "duration": 0.0188,
      "velocity": 100,
      "chip": "ym2612"
    },
    {
      "channel": 0,
      "note": 40,
      "start": 41.9107,
      "duration": 0.0161,
      "velocity": 115,
      "chip": "ym2612"
    },
    {
      "channel": 4,
      "note": 77,
      "start": 41.9118,
      "duration": 0.0162,
      "velocity": 97,
      "chip": "ym2612"
    },
    {
      "channel": 3,
      "note": 80,
      "start": 41.913,
      "duration": 0.0161,
      "velocity": 97,
      "chip": "ym2612"
    },
    {
      "channel": 2,
      "note": 49,
      "start": 41.9142,
      "duration": 0.0161,
      "velocity": 100,
      "chip": "ym2612"
    },
    {
      "channel": 1,
      "note": 37,
      "start": 41.9153,
      "duration": 0.0161,
      "velocity": 100,
      "chip": "ym2612"
    },
    {
      "channel": 0,
      "note": 40,
      "start": 41.9268,
      "duration": 0.0158,
      "velocity": 115,
      "chip": "ym2612"
    },
    {
      "channel": 4,
      "note": 77,
      "start": 41.928,
      "duration": 0.0157,
      "velocity": 97,
      "chip": "ym2612"
    },
    {
      "channel": 3,
      "note": 80,
      "start": 41.9291,
      "duration": 0.0158,
      "velocity": 97,
      "chip": "ym2612"
    },
    {
      "channel": 2,
      "note": 49,
      "start": 41.9303,
      "duration": 0.0158,
      "velocity": 100,
      "chip": "ym2612"
    },
    {
      "channel": 1,
      "note": 37,
      "start": 41.9314,
      "duration": 0.0158,
      "velocity": 100,
      "chip": "ym2612"
    },
    {
      "channel": 0,
      "note": 40,
      "start": 41.9425,
      "duration": 0.014,
      "velocity": 115,
      "chip": "ym2612"
    },
    {
      "channel": 4,
      "note": 77,
      "start": 41.9437,
      "duration": 0.0141,
      "velocity": 97,
      "chip": "ym2612"
    },
    {
      "channel": 3,
      "note": 80,
      "start": 41.9449,
      "duration": 0.014,
      "velocity": 97,
      "chip": "ym2612"
    },
    {
      "channel": 0,
      "note": 41,
      "start": 41.9565,
      "duration": 0.0158,
      "velocity": 115,
      "chip": "ym2612"
    },
    {
      "channel": 4,
      "note": 77,
      "start": 41.9578,
      "duration": 0.0185,
      "velocity": 97,
      "chip": "ym2612"
    },
    {
      "channel": 3,
      "note": 80,
      "start": 41.9589,
      "duration": 0.0186,
      "velocity": 97,
      "chip": "ym2612"
    },
    {
      "channel": 0,
      "note": 41,
      "start": 41.9723,
      "duration": 0.0161,
      "velocity": 115,
      "chip": "ym2612"
    },
    {
      "channel": 4,
      "note": 77,
      "start": 41.9763,
      "duration": 0.0161,
      "velocity": 97,
      "chip": "ym2612"
    },
    {
      "channel": 3,
      "note": 80,
      "start": 41.9775,
      "duration": 0.016,
      "velocity": 97,
      "chip": "ym2612"
    },
    {
      "channel": 2,
      "note": 56,
      "start": 41.9789,
      "duration": 0.0159,
      "velocity": 100,
      "chip": "ym2612"
    },
    {
      "channel": 1,
      "note": 44,
      "start": 41.9803,
      "duration": 0.0156,
      "velocity": 100,
      "chip": "ym2612"
    },
    {
      "channel": 0,
      "note": 42,
      "start": 41.9884,
      "duration": 0.0161,
      "velocity": 115,
      "chip": "ym2612"
    },
    {
      "channel": 4,
      "note": 77,
      "start": 41.9924,
      "duration": 0.0134,
      "velocity": 97,
      "chip": "ym2612"
    },
    {
      "channel": 3,
      "note": 80,
      "start": 41.9935,
      "duration": 0.0158,
      "velocity": 97,
      "chip": "ym2612"
    },
    {
      "channel": 2,
      "note": 56,
      "start": 41.9947,
      "duration": 0.0157,
      "velocity": 100,
      "chip": "ym2612"
    },
    {
      "channel": 1,
      "note": 44,
      "start": 41.9959,
      "duration": 0.0156,
      "velocity": 100,
      "chip": "ym2612"
    },
    {
      "channel": 0,
      "note": 42,
      "start": 42.0045,
      "duration": 0.0161,
      "velocity": 115,
      "chip": "ym2612"
    },
    {
      "channel": 4,
      "note": 77,
      "start": 42.0057,
      "duration": 0.0161,
      "velocity": 97,
      "chip": "ym2612"
    },
    {
      "channel": 3,
      "note": 80,
      "start": 42.0093,
      "duration": 0.0141,
      "velocity": 97,
      "chip": "ym2612"
    },
    {
      "channel": 2,
      "note": 56,
      "start": 42.0104,
      "duration": 0.014,
      "velocity": 100,
      "chip": "ym2612"
    },
    {
      "channel": 1,
      "note": 44,
      "start": 42.0115,
      "duration": 0.0141,
      "velocity": 100,
      "chip": "ym2612"
    },
    {
      "channel": 0,
      "note": 43,
      "start": 42.0206,
      "duration": 0.0162,
      "velocity": 115,
      "chip": "ym2612"
    },
    {
      "channel": 4,
      "note": 77,
      "start": 42.0218,
      "duration": 0.0161,
      "velocity": 97,
      "chip": "ym2612"
    },
    {
      "channel": 3,
      "note": 80,
      "start": 42.0233,
      "duration": 0.0158,
      "velocity": 97,
      "chip": "ym2612"
    },
    {
      "channel": 2,
      "note": 56,
      "start": 42.0244,
      "duration": 0.0186,
      "velocity": 100,
      "chip": "ym2612"
    },
    {
      "channel": 1,
      "note": 44,
      "start": 42.0256,
      "duration": 0.0186,
      "velocity": 100,
      "chip": "ym2612"
    },
    {
      "channel": 0,
      "note": 43,
      "start": 42.0368,
      "duration": 0.0161,
      "velocity": 115,
      "chip": "ym2612"
    },
    {
      "channel": 4,
      "note": 77,
      "start": 42.0379,
      "duration": 0.0161,
      "velocity": 97,
      "chip": "ym2612"
    },
    {
      "channel": 3,
      "note": 80,
      "start": 42.0391,
      "duration": 0.0161,
      "velocity": 97,
      "chip": "ym2612"
    },
    {
      "channel": 2,
      "note": 56,
      "start": 42.043,
      "duration": 0.0161,
      "velocity": 100,
      "chip": "ym2612"
    },
    {
      "channel": 1,
      "note": 44,
      "start": 42.0441,
      "duration": 0.0161,
      "velocity": 100,
      "chip": "ym2612"
    },
    {
      "channel": 0,
      "note": 44,
      "start": 42.0529,
      "duration": 0.0161,
      "velocity": 115,
      "chip": "ym2612"
    },
    {
      "channel": 4,
      "note": 77,
      "start": 42.0541,
      "duration": 0.0161,
      "velocity": 97,
      "chip": "ym2612"
    },
    {
      "channel": 3,
      "note": 80,
      "start": 42.0552,
      "duration": 0.0161,
      "velocity": 97,
      "chip": "ym2612"
    },
    {
      "channel": 2,
      "note": 56,
      "start": 42.0591,
      "duration": 0.0134,
      "velocity": 100,
      "chip": "ym2612"
    },
    {
      "channel": 1,
      "note": 44,
      "start": 42.0602,
      "duration": 0.0157,
      "velocity": 100,
      "chip": "ym2612"
    },
    {
      "channel": 0,
      "note": 44,
      "start": 42.069,
      "duration": 0.0161,
      "velocity": 115,
      "chip": "ym2612"
    },
    {
      "channel": 4,
      "note": 77,
      "start": 42.0702,
      "duration": 0.0161,
      "velocity": 97,
      "chip": "ym2612"
    },
    {
      "channel": 3,
      "note": 80,
      "start": 42.0713,
      "duration": 0.0161,
      "velocity": 97,
      "chip": "ym2612"
    },
    {
      "channel": 2,
      "note": 56,
      "start": 42.0724,
      "duration": 0.0161,
      "velocity": 100,
      "chip": "ym2612"
    },
    {
      "channel": 1,
      "note": 44,
      "start": 42.0759,
      "duration": 0.0141,
      "velocity": 100,
      "chip": "ym2612"
    },
    {
      "channel": 0,
      "note": 44,
      "start": 42.085,
      "duration": 0.0161,
      "velocity": 115,
      "chip": "ym2612"
    },
    {
      "channel": 4,
      "note": 77,
      "start": 42.0863,
      "duration": 0.0161,
      "velocity": 97,
      "chip": "ym2612"
    },
    {
      "channel": 3,
      "note": 80,
      "start": 42.0874,
      "duration": 0.0162,
      "velocity": 97,
      "chip": "ym2612"
    },
    {
      "channel": 2,
      "note": 56,
      "start": 42.0885,
      "duration": 0.0161,
      "velocity": 100,
      "chip": "ym2612"
    },
    {
      "channel": 1,
      "note": 44,
      "start": 42.09,
      "duration": 0.0158,
      "velocity": 100,
      "chip": "ym2612"
    },
    {
      "channel": 0,
      "note": 45,
      "start": 42.1011,
      "duration": 0.0161,
      "velocity": 115,
      "chip": "ym2612"
    },
    {
      "channel": 4,
      "note": 77,
      "start": 42.1023,
      "duration": 0.0161,
      "velocity": 97,
      "chip": "ym2612"
    },
    {
      "channel": 3,
      "note": 80,
      "start": 42.1036,
      "duration": 0.016,
      "velocity": 97,
      "chip": "ym2612"
    },
    {
      "channel": 2,
      "note": 56,
      "start": 42.1046,
      "duration": 0.0161,
      "velocity": 100,
      "chip": "ym2612"
    },
    {
      "channel": 1,
      "note": 44,
      "start": 42.1058,
      "duration": 0.0161,
      "velocity": 100,
      "chip": "ym2612"
    },
    {
      "channel": 0,
      "note": 45,
      "start": 42.1172,
      "duration": 0.0161,
      "velocity": 115,
      "chip": "ym2612"
    },
    {
      "channel": 4,
      "note": 77,
      "start": 42.1184,
      "duration": 0.0161,
      "velocity": 97,
      "chip": "ym2612"
    },
    {
      "channel": 3,
      "note": 80,
      "start": 42.1196,
      "duration": 0.0161,
      "velocity": 97,
      "chip": "ym2612"
    },
    {
      "channel": 2,
      "note": 56,
      "start": 42.1207,
      "duration": 0.0161,
      "velocity": 100,
      "chip": "ym2612"
    },
    {
      "channel": 1,
      "note": 44,
      "start": 42.1219,
      "duration": 0.0161,
      "velocity": 100,
      "chip": "ym2612"
    },
    {
      "channel": 0,
      "note": 46,
      "start": 42.1333,
      "duration": 0.0161,
      "velocity": 115,
      "chip": "ym2612"
    },
    {
      "channel": 4,
      "note": 77,
      "start": 42.1345,
      "duration": 0.0161,
      "velocity": 97,
      "chip": "ym2612"
    },
    {
      "channel": 3,
      "note": 80,
      "start": 42.1357,
      "duration": 0.0161,
      "velocity": 97,
      "chip": "ym2612"
    },
    {
      "channel": 0,
      "note": 46,
      "start": 42.1494,
      "duration": 0.0196,
      "velocity": 115,
      "chip": "ym2612"
    },
    {
      "channel": 4,
      "note": 77,
      "start": 42.1506,
      "duration": 0.0196,
      "velocity": 97,
      "chip": "ym2612"
    },
    {
      "channel": 3,
      "note": 80,
      "start": 42.1518,
      "duration": 0.0196,
      "velocity": 97,
      "chip": "ym2612"
    },
    {
      "channel": 1,
      "note": 78,
      "start": 42.1673,
      "duration": 0.0143,
      "velocity": 124,
      "chip": "ym2612"
    },
    {
      "channel": 0,
      "note": 47,
      "start": 42.169,
      "duration": 0.0143,
      "velocity": 115,
      "chip": "ym2612"
    },
    {
      "channel": 4,
      "note": 77,
      "start": 42.1702,
      "duration": 0.0143,
      "velocity": 97,
      "chip": "ym2612"
    },
    {
      "channel": 3,
      "note": 80,
      "start": 42.1714,
      "duration": 0.0144,
      "velocity": 97,
      "chip": "ym2612"
    },
    {
      "channel": 2,
      "note": 61,
      "start": 42.1755,
      "duration": 0.0114,
      "velocity": 100,
      "chip": "ym2612"
    },
    {
      "channel": 1,
      "note": 76,
      "start": 42.1816,
      "duration": 0.016,
      "velocity": 124,
      "chip": "ym2612"
    },
    {
      "channel": 0,
      "note": 47,
      "start": 42.1833,
      "duration": 0.0161,
      "velocity": 115,
      "chip": "ym2612"
    },
    {
      "channel": 4,
      "note": 77,
      "start": 42.1845,
      "duration": 0.016,
      "velocity": 97,
      "chip": "ym2612"
    },
    {
      "channel": 3,
      "note": 80,
      "start": 42.1857,
      "duration": 0.016,
      "velocity": 97,
      "chip": "ym2612"
    },
    {
      "channel": 2,
      "note": 61,
      "start": 42.1869,
      "duration": 0.016,
      "velocity": 100,
      "chip": "ym2612"
    },
    {
      "channel": 1,
      "note": 75,
      "start": 42.1976,
      "duration": 0.0161,
      "velocity": 124,
      "chip": "ym2612"
    },
    {
      "channel": 0,
      "note": 47,
      "start": 42.1994,
      "duration": 0.0161,
      "velocity": 115,
      "chip": "ym2612"
    },
    {
      "channel": 4,
      "note": 77,
      "start": 42.2006,
      "duration": 0.0161,
      "velocity": 97,
      "chip": "ym2612"
    },
    {
      "channel": 3,
      "note": 80,
      "start": 42.2018,
      "duration": 0.0161,
      "velocity": 97,
      "chip": "ym2612"
    },
    {
      "channel": 2,
      "note": 61,
      "start": 42.2029,
      "duration": 0.0161,
      "velocity": 100,
      "chip": "ym2612"
    },
    {
      "channel": 1,
      "note": 74,
      "start": 42.2138,
      "duration": 0.0161,
      "velocity": 124,
      "chip": "ym2612"
    },
    {
      "channel": 0,
      "note": 48,
      "start": 42.2155,
      "duration": 0.0161,
      "velocity": 115,
      "chip": "ym2612"
    },
    {
      "channel": 4,
      "note": 77,
      "start": 42.2167,
      "duration": 0.0161,
      "velocity": 97,
      "chip": "ym2612"
    },
    {
      "channel": 3,
      "note": 80,
      "start": 42.2179,
      "duration": 0.0161,
      "velocity": 97,
      "chip": "ym2612"
    },
    {
      "channel": 2,
      "note": 61,
      "start": 42.219,
      "duration": 0.0162,
      "velocity": 100,
      "chip": "ym2612"
    },
    {
      "channel": 1,
      "note": 72,
      "start": 42.2299,
      "duration": 0.0161,
      "velocity": 124,
      "chip": "ym2612"
    },
    {
      "channel": 0,
      "note": 48,
      "start": 42.2316,
      "duration": 0.0161,
      "velocity": 115,
      "chip": "ym2612"
    },
    {
      "channel": 4,
      "note": 77,
      "start": 42.2328,
      "duration": 0.0161,
      "velocity": 97,
      "chip": "ym2612"
    },
    {
      "channel": 3,
      "note": 80,
      "start": 42.234,
      "duration": 0.016,
      "velocity": 97,
      "chip": "ym2612"
    },
    {
      "channel": 2,
      "note": 61,
      "start": 42.2352,
      "duration": 0.016,
      "velocity": 100,
      "chip": "ym2612"
    },
    {
      "channel": 1,
      "note": 71,
      "start": 42.246,
      "duration": 0.0161,
      "velocity": 124,
      "chip": "ym2612"
    },
    {
      "channel": 0,
      "note": 49,
      "start": 42.2477,
      "duration": 0.0153,
      "velocity": 1,
      "chip": "ym2612"
    },
    {
      "channel": 4,
      "note": 77,
      "start": 42.2489,
      "duration": 0.0153,
      "velocity": 97,
      "chip": "ym2612"
    },
    {
      "channel": 3,
      "note": 80,
      "start": 42.25,
      "duration": 0.0153,
      "velocity": 97,
      "chip": "ym2612"
    },
    {
      "channel": 2,
      "note": 61,
      "start": 42.2512,
      "duration": 0.0153,
      "velocity": 100,
      "chip": "ym2612"
    },
    {
      "channel": 1,
      "note": 70,
      "start": 42.2621,
      "duration": 0.0161,
      "velocity": 124,
      "chip": "ym2612"
    },
    {
      "channel": 4,
      "note": 77,
      "start": 42.2642,
      "duration": 0.0153,
      "velocity": 97,
      "chip": "ym2612"
    },
    {
      "channel": 3,
      "note": 80,
      "start": 42.2654,
      "duration": 0.0152,
      "velocity": 97,
      "chip": "ym2612"
    },
    {
      "channel": 2,
      "note": 61,
      "start": 42.2665,
      "duration": 0.0152,
      "velocity": 100,
      "chip": "ym2612"
    },
    {
      "channel": 1,
      "note": 69,
      "start": 42.2782,
      "duration": 0.0161,
      "velocity": 124,
      "chip": "ym2612"
    },
    {
      "channel": 4,
      "note": 77,
      "start": 42.2794,
      "duration": 0.0161,
      "velocity": 97,
      "chip": "ym2612"
    },
    {
      "channel": 3,
      "note": 80,
      "start": 42.2806,
      "duration": 0.0161,
      "velocity": 97,
      "chip": "ym2612"
    },
    {
      "channel": 2,
      "note": 61,
      "start": 42.2817,
      "duration": 0.0161,
      "velocity": 100,
      "chip": "ym2612"
    },
    {
      "channel": 1,
      "note": 68,
      "start": 42.2943,
      "duration": 0.0163,
      "velocity": 124,
      "chip": "ym2612"
    },
    {
      "channel": 4,
      "note": 77,
      "start": 42.2955,
      "duration": 0.0163,
      "velocity": 97,
      "chip": "ym2612"
    },
    {
      "channel": 3,
      "note": 80,
      "start": 42.2967,
      "duration": 0.0163,
      "velocity": 97,
      "chip": "ym2612"
    },
    {
      "channel": 2,
      "note": 61,
      "start": 42.2978,
      "duration": 0.0163,
      "velocity": 100,
      "chip": "ym2612"
    },
    {
      "channel": 1,
      "note": 66,
      "start": 42.3105,
      "duration": 0.0167,
      "velocity": 124,
      "chip": "ym2612"
    },
    {
      "channel": 4,
      "note": 77,
      "start": 42.3118,
      "duration": 0.0167,
      "velocity": 97,
      "chip": "ym2612"
    },
    {
      "channel": 3,
      "note": 80,
      "start": 42.313,
      "duration": 0.0167,
      "velocity": 97,
      "chip": "ym2612"
    },
    {
      "channel": 2,
      "note": 61,
      "start": 42.3141,
      "duration": 0.0167,
      "velocity": 100,
      "chip": "ym2612"
    },
    {
      "channel": 1,
      "note": 65,
      "start": 42.3272,
      "duration": 0.0163,
      "velocity": 124,
      "chip": "ym2612"
    },
    {
      "channel": 4,
      "note": 77,
      "start": 42.3285,
      "duration": 0.0163,
      "velocity": 97,
      "chip": "ym2612"
    },
    {
      "channel": 3,
      "note": 80,
      "start": 42.3297,
      "duration": 0.0163,
      "velocity": 97,
      "chip": "ym2612"
    },
    {
      "channel": 1,
      "note": 64,
      "start": 42.3436,
      "duration": 0.0151,
      "velocity": 124,
      "chip": "ym2612"
    },
    {
      "channel": 4,
      "note": 77,
      "start": 42.3448,
      "duration": 0.0151,
      "velocity": 97,
      "chip": "ym2612"
    },
    {
      "channel": 3,
      "note": 80,
      "start": 42.346,
      "duration": 0.0152,
      "velocity": 97,
      "chip": "ym2612"
    },
    {
      "channel": 1,
      "note": 62,
      "start": 42.3587,
      "duration": 0.0185,
      "velocity": 124,
      "chip": "ym2612"
    },
    {
      "channel": 4,
      "note": 77,
      "start": 42.36,
      "duration": 0.0185,
      "velocity": 97,
      "chip": "ym2612"
    },
    {
      "channel": 3,
      "note": 80,
      "start": 42.3612,
      "duration": 0.0185,
      "velocity": 97,
      "chip": "ym2612"
    },
    {
      "channel": 2,
      "note": 59,
      "start": 42.3625,
      "duration": 0.0183,
      "velocity": 100,
      "chip": "ym2612"
    },
    {
      "channel": 1,
      "note": 61,
      "start": 42.3772,
      "duration": 0.0164,
      "velocity": 124,
      "chip": "ym2612"
    },
    {
      "channel": 4,
      "note": 77,
      "start": 42.3785,
      "duration": 0.0164,
      "velocity": 97,
      "chip": "ym2612"
    },
    {
      "channel": 3,
      "note": 80,
      "start": 42.3797,
      "duration": 0.0163,
      "velocity": 97,
      "chip": "ym2612"
    },
    {
      "channel": 2,
      "note": 59,
      "start": 42.3808,
      "duration": 0.0163,
      "velocity": 100,
      "chip": "ym2612"
    },
    {
      "channel": 1,
      "note": 60,
      "start": 42.3936,
      "duration": 0.0157,
      "velocity": 124,
      "chip": "ym2612"
    },
    {
      "channel": 4,
      "note": 77,
      "start": 42.3949,
      "duration": 0.0157,
      "velocity": 97,
      "chip": "ym2612"
    },
    {
      "channel": 3,
      "note": 80,
      "start": 42.3961,
      "duration": 0.0158,
      "velocity": 97,
      "chip": "ym2612"
    },
    {
      "channel": 2,
      "note": 59,
      "start": 42.3972,
      "duration": 0.0158,
      "velocity": 100,
      "chip": "ym2612"
    },
    {
      "channel": 1,
      "note": 59,
      "start": 42.4093,
      "duration": 0.0141,
      "velocity": 124,
      "chip": "ym2612"
    },
    {
      "channel": 4,
      "note": 77,
      "start": 42.4106,
      "duration": 0.0141,
      "velocity": 97,
      "chip": "ym2612"
    },
    {
      "channel": 3,
      "note": 80,
      "start": 42.4118,
      "duration": 0.014,
      "velocity": 97,
      "chip": "ym2612"
    },
    {
      "channel": 2,
      "note": 59,
      "start": 42.413,
      "duration": 0.014,
      "velocity": 100,
      "chip": "ym2612"
    },
    {
      "channel": 1,
      "note": 57,
      "start": 42.4234,
      "duration": 0.0158,
      "velocity": 124,
      "chip": "ym2612"
    },
    {
      "channel": 4,
      "note": 77,
      "start": 42.4247,
      "duration": 0.0185,
      "velocity": 97,
      "chip": "ym2612"
    },
    {
      "channel": 3,
      "note": 80,
      "start": 42.4258,
      "duration": 0.0186,
      "velocity": 97,
      "chip": "ym2612"
    },
    {
      "channel": 2,
      "note": 59,
      "start": 42.427,
      "duration": 0.0185,
      "velocity": 100,
      "chip": "ym2612"
    },
    {
      "channel": 1,
      "note": 56,
      "start": 42.4392,
      "duration": 0.0161,
      "velocity": 124,
      "chip": "ym2612"
    },
    {
      "channel": 4,
      "note": 77,
      "start": 42.4432,
      "duration": 0.0161,
      "velocity": 97,
      "chip": "ym2612"
    },
    {
      "channel": 3,
      "note": 80,
      "start": 42.4444,
      "duration": 0.0161,
      "velocity": 97,
      "chip": "ym2612"
    },
    {
      "channel": 2,
      "note": 59,
      "start": 42.4455,
      "duration": 0.0162,
      "velocity": 100,
      "chip": "ym2612"
    },
    {
      "channel": 1,
      "note": 55,
      "start": 42.4553,
      "duration": 0.0161,
      "velocity": 124,
      "chip": "ym2612"
    },
    {
      "channel": 4,
      "note": 77,
      "start": 42.4593,
      "duration": 0.0158,
      "velocity": 97,
      "chip": "ym2612"
    },
    {
      "channel": 3,
      "note": 80,
      "start": 42.4605,
      "duration": 0.0157,
      "velocity": 97,
      "chip": "ym2612"
    },
    {
      "channel": 2,
      "note": 59,
      "start": 42.4616,
      "duration": 0.0157,
      "velocity": 100,
      "chip": "ym2612"
    },
    {
      "channel": 1,
      "note": 53,
      "start": 42.4714,
      "duration": 0.0161,
      "velocity": 124,
      "chip": "ym2612"
    },
    {
      "channel": 4,
      "note": 77,
      "start": 42.4751,
      "duration": 0.0137,
      "velocity": 97,
      "chip": "ym2612"
    },
    {
      "channel": 3,
      "note": 80,
      "start": 42.4762,
      "duration": 0.0141,
      "velocity": 97,
      "chip": "ym2612"
    },
    {
      "channel": 2,
      "note": 59,
      "start": 42.4773,
      "duration": 0.0141,
      "velocity": 100,
      "chip": "ym2612"
    },
    {
      "channel": 1,
      "note": 52,
      "start": 42.4875,
      "duration": 0.0161,
      "velocity": 124,
      "chip": "ym2612"
    },
    {
      "channel": 4,
      "note": 77,
      "start": 42.4888,
      "duration": 0.0161,
      "velocity": 97,
      "chip": "ym2612"
    },
    {
      "channel": 3,
      "note": 80,
      "start": 42.4902,
      "duration": 0.0185,
      "velocity": 97,
      "chip": "ym2612"
    },
    {
      "channel": 2,
      "note": 59,
      "start": 42.4914,
      "duration": 0.0185,
      "velocity": 100,
      "chip": "ym2612"
    },
    {
      "channel": 1,
      "note": 51,
      "start": 42.5036,
      "duration": 0.0153,
      "velocity": 1,
      "chip": "ym2612"
    },
    {
      "channel": 4,
      "note": 77,
      "start": 42.5049,
      "duration": 0.0153,
      "velocity": 97,
      "chip": "ym2612"
    },
    {
      "channel": 3,
      "note": 80,
      "start": 42.5088,
      "duration": 0.0125,
      "velocity": 97,
      "chip": "ym2612"
    },
    {
      "channel": 2,
      "note": 59,
      "start": 42.5099,
      "duration": 0.0125,
      "velocity": 100,
      "chip": "ym2612"
    },
    {
      "channel": 4,
      "note": 77,
      "start": 42.5202,
      "duration": 0.0153,
      "velocity": 97,
      "chip": "ym2612"
    },
    {
      "channel": 3,
      "note": 80,
      "start": 42.5213,
      "duration": 0.0153,
      "velocity": 97,
      "chip": "ym2612"
    },
    {
      "channel": 4,
      "note": 77,
      "start": 42.5354,
      "duration": 0.0195,
      "velocity": 97,
      "chip": "ym2612"
    },
    {
      "channel": 3,
      "note": 80,
      "start": 42.5366,
      "duration": 0.0199,
      "velocity": 97,
      "chip": "ym2612"
    },
    {
      "channel": 1,
      "note": 78,
      "start": 42.5537,
      "duration": 0.0144,
      "velocity": 124,
      "chip": "ym2612"
    },
    {
      "channel": 4,
      "note": 77,
      "start": 42.5549,
      "duration": 0.0144,
      "velocity": 97,
      "chip": "ym2612"
    },
    {
      "channel": 3,
      "note": 80,
      "start": 42.5565,
      "duration": 0.014,
      "velocity": 97,
      "chip": "ym2612"
    },
    {
      "channel": 1,
      "note": 76,
      "start": 42.568,
      "duration": 0.016,
      "velocity": 124,
      "chip": "ym2612"
    },
    {
      "channel": 4,
      "note": 77,
      "start": 42.5693,
      "duration": 0.016,
      "velocity": 97,
      "chip": "ym2612"
    },
    {
      "channel": 3,
      "note": 80,
      "start": 42.5705,
      "duration": 0.016,
      "velocity": 97,
      "chip": "ym2612"
    },
    {
      "channel": 1,
      "note": 75,
      "start": 42.5841,
      "duration": 0.0161,
      "velocity": 124,
      "chip": "ym2612"
    },
    {
      "channel": 4,
      "note": 77,
      "start": 42.5854,
      "duration": 0.0161,
      "velocity": 97,
      "chip": "ym2612"
    },
    {
      "channel": 3,
      "note": 80,
      "start": 42.5865,
      "duration": 0.0161,
      "velocity": 97,
      "chip": "ym2612"
    },
    {
      "channel": 1,
      "note": 74,
      "start": 42.6002,
      "duration": 0.0161,
      "velocity": 124,
      "chip": "ym2612"
    },
    {
      "channel": 4,
      "note": 77,
      "start": 42.6015,
      "duration": 0.0162,
      "velocity": 97,
      "chip": "ym2612"
    },
    {
      "channel": 3,
      "note": 80,
      "start": 42.6027,
      "duration": 0.0162,
      "velocity": 97,
      "chip": "ym2612"
    },
    {
      "channel": 1,
      "note": 72,
      "start": 42.6163,
      "duration": 0.0161,
      "velocity": 124,
      "chip": "ym2612"
    },
    {
      "channel": 4,
      "note": 77,
      "start": 42.6176,
      "duration": 0.0161,
      "velocity": 97,
      "chip": "ym2612"
    },
    {
      "channel": 3,
      "note": 80,
      "start": 42.6188,
      "duration": 0.016,
      "velocity": 97,
      "chip": "ym2612"
    },
    {
      "channel": 1,
      "note": 71,
      "start": 42.6324,
      "duration": 0.0179,
      "velocity": 124,
      "chip": "ym2612"
    },
    {
      "channel": 4,
      "note": 77,
      "start": 42.6337,
      "duration": 0.0179,
      "velocity": 97,
      "chip": "ym2612"
    },
    {
      "channel": 3,
      "note": 80,
      "start": 42.6349,
      "duration": 0.0179,
      "velocity": 97,
      "chip": "ym2612"
    },
    {
      "channel": 1,
      "note": 78,
      "start": 42.6503,
      "duration": 0.0144,
      "velocity": 124,
      "chip": "ym2612"
    },
    {
      "channel": 4,
      "note": 77,
      "start": 42.6516,
      "duration": 0.0144,
      "velocity": 97,
      "chip": "ym2612"
    },
    {
      "channel": 3,
      "note": 80,
      "start": 42.6527,
      "duration": 0.0144,
      "velocity": 97,
      "chip": "ym2612"
    },
    {
      "channel": 1,
      "note": 76,
      "start": 42.6647,
      "duration": 0.016,
      "velocity": 124,
      "chip": "ym2612"
    },
    {
      "channel": 4,
      "note": 77,
      "start": 42.666,
      "duration": 0.016,
      "velocity": 97,
      "chip": "ym2612"
    },
    {
      "channel": 3,
      "note": 80,
      "start": 42.6671,
      "duration": 0.016,
      "velocity": 97,
      "chip": "ym2612"
    },
    {
      "channel": 1,
      "note": 75,
      "start": 42.6807,
      "duration": 0.0161,
      "velocity": 124,
      "chip": "ym2612"
    },
    {
      "channel": 4,
      "note": 77,
      "start": 42.682,
      "duration": 0.0161,
      "velocity": 97,
      "chip": "ym2612"
    },
    {
      "channel": 3,
      "note": 80,
      "start": 42.6831,
      "duration": 0.0161,
      "velocity": 97,
      "chip": "ym2612"
    },
    {
      "channel": 1,
      "note": 74,
      "start": 42.6968,
      "duration": 0.0161,
      "velocity": 124,
      "chip": "ym2612"
    },
    {
      "channel": 4,
      "note": 77,
      "start": 42.6981,
      "duration": 0.0161,
      "velocity": 97,
      "chip": "ym2612"
    },
    {
      "channel": 3,
      "note": 80,
      "start": 42.6992,
      "duration": 0.0161,
      "velocity": 97,
      "chip": "ym2612"
    },
    {
      "channel": 1,
      "note": 72,
      "start": 42.7129,
      "duration": 0.0161,
      "velocity": 124,
      "chip": "ym2612"
    },
    {
      "channel": 4,
      "note": 77,
      "start": 42.7142,
      "duration": 0.0161,
      "velocity": 97,
      "chip": "ym2612"
    },
    {
      "channel": 3,
      "note": 80,
      "start": 42.7153,
      "duration": 0.0161,
      "velocity": 97,
      "chip": "ym2612"
    },
    {
      "channel": 1,
      "note": 71,
      "start": 42.729,
      "duration": 0.0179,
      "velocity": 124,
      "chip": "ym2612"
    },
    {
      "channel": 4,
      "note": 77,
      "start": 42.7303,
      "duration": 0.0179,
      "velocity": 97,
      "chip": "ym2612"
    },
    {
      "channel": 3,
      "note": 80,
      "start": 42.7314,
      "duration": 0.0179,
      "velocity": 97,
      "chip": "ym2612"
    },
    {
      "channel": 1,
      "note": 78,
      "start": 42.7469,
      "duration": 0.0144,
      "velocity": 124,
      "chip": "ym2612"
    },
    {
      "channel": 4,
      "note": 77,
      "start": 42.7482,
      "duration": 0.0143,
      "velocity": 97,
      "chip": "ym2612"
    },
    {
      "channel": 3,
      "note": 80,
      "start": 42.7493,
      "duration": 0.0144,
      "velocity": 97,
      "chip": "ym2612"
    },
    {
      "channel": 2,
      "note": 61,
      "start": 42.7507,
      "duration": 0.0141,
      "velocity": 100,
      "chip": "ym2612"
    },
    {
      "channel": 1,
      "note": 76,
      "start": 42.7612,
      "duration": 0.016,
      "velocity": 124,
      "chip": "ym2612"
    },
    {
      "channel": 4,
      "note": 77,
      "start": 42.7625,
      "duration": 0.0161,
      "velocity": 97,
      "chip": "ym2612"
    },
    {
      "channel": 3,
      "note": 80,
      "start": 42.7637,
      "duration": 0.016,
      "velocity": 97,
      "chip": "ym2612"
    },
    {
      "channel": 2,
      "note": 61,
      "start": 42.7649,
      "duration": 0.016,
      "velocity": 100,
      "chip": "ym2612"
    },
    {
      "channel": 1,
      "note": 75,
      "start": 42.7773,
      "duration": 0.0166,
      "velocity": 124,
      "chip": "ym2612"
    },
    {
      "channel": 4,
      "note": 77,
      "start": 42.7786,
      "duration": 0.0166,
      "velocity": 97,
      "chip": "ym2612"
    },
    {
      "channel": 3,
      "note": 80,
      "start": 42.7798,
      "duration": 0.0166,
      "velocity": 97,
      "chip": "ym2612"
    },
    {
      "channel": 2,
      "note": 61,
      "start": 42.7809,
      "duration": 0.0166,
      "velocity": 100,
      "chip": "ym2612"
    },
    {
      "channel": 1,
      "note": 74,
      "start": 42.7939,
      "duration": 0.0163,
      "velocity": 124,
      "chip": "ym2612"
    },
    {
      "channel": 4,
      "note": 77,
      "start": 42.7952,
      "duration": 0.0163,
      "velocity": 97,
      "chip": "ym2612"
    },
    {
      "channel": 3,
      "note": 80,
      "start": 42.7964,
      "duration": 0.0163,
      "velocity": 97,
      "chip": "ym2612"
    },
    {
      "channel": 2,
      "note": 61,
      "start": 42.7975,
      "duration": 0.0163,
      "velocity": 100,
      "chip": "ym2612"
    },
    {
      "channel": 1,
      "note": 72,
      "start": 42.8102,
      "duration": 0.0154,
      "velocity": 124,
      "chip": "ym2612"
    },
    {
      "channel": 4,
      "note": 77,
      "start": 42.8115,
      "duration": 0.0154,
      "velocity": 97,
      "chip": "ym2612"
    },
    {
      "channel": 3,
      "note": 80,
      "start": 42.8127,
      "duration": 0.0154,
      "velocity": 97,
      "chip": "ym2612"
    },
    {
      "channel": 2,
      "note": 61,
      "start": 42.8138,
      "duration": 0.0154,
      "velocity": 100,
      "chip": "ym2612"
    },
    {
      "channel": 1,
      "note": 71,
      "start": 42.8256,
      "duration": 0.0183,
      "velocity": 124,
      "chip": "ym2612"
    },
    {
      "channel": 4,
      "note": 77,
      "start": 42.8269,
      "duration": 0.0183,
      "velocity": 97,
      "chip": "ym2612"
    },
    {
      "channel": 3,
      "note": 80,
      "start": 42.828,
      "duration": 0.0183,
      "velocity": 97,
      "chip": "ym2612"
    },
    {
      "channel": 2,
      "note": 61,
      "start": 42.8292,
      "duration": 0.0183,
      "velocity": 100,
      "chip": "ym2612"
    },
    {
      "channel": 1,
      "note": 70,
      "start": 42.8439,
      "duration": 0.0166,
      "velocity": 124,
      "chip": "ym2612"
    },
    {
      "channel": 4,
      "note": 77,
      "start": 42.8452,
      "duration": 0.0166,
      "velocity": 97,
      "chip": "ym2612"
    },
    {
      "channel": 3,
      "note": 80,
      "start": 42.8464,
      "duration": 0.0167,
      "velocity": 97,
      "chip": "ym2612"
    },
    {
      "channel": 2,
      "note": 61,
      "start": 42.8475,
      "duration": 0.0167,
      "velocity": 100,
      "chip": "ym2612"
    },
    {
      "channel": 1,
      "note": 69,
      "start": 42.8605,
      "duration": 0.0157,
      "velocity": 124,
      "chip": "ym2612"
    },
    {
      "channel": 4,
      "note": 77,
      "start": 42.8618,
      "duration": 0.0158,
      "velocity": 97,
      "chip": "ym2612"
    },
    {
      "channel": 3,
      "note": 80,
      "start": 42.863,
      "duration": 0.0157,
      "velocity": 97,
      "chip": "ym2612"
    },
    {
      "channel": 2,
      "note": 61,
      "start": 42.8642,
      "duration": 0.0157,
      "velocity": 100,
      "chip": "ym2612"
    },
    {
      "channel": 1,
      "note": 68,
      "start": 42.8763,
      "duration": 0.0141,
      "velocity": 124,
      "chip": "ym2612"
    },
    {
      "channel": 4,
      "note": 77,
      "start": 42.8776,
      "duration": 0.014,
      "velocity": 97,
      "chip": "ym2612"
    },
    {
      "channel": 3,
      "note": 80,
      "start": 42.8788,
      "duration": 0.0141,
      "velocity": 97,
      "chip": "ym2612"
    },
    {
      "channel": 2,
      "note": 61,
      "start": 42.8799,
      "duration": 0.014,
      "velocity": 100,
      "chip": "ym2612"
    },
    {
      "channel": 1,
      "note": 66,
      "start": 42.8903,
      "duration": 0.0185,
      "velocity": 124,
      "chip": "ym2612"
    },
    {
      "channel": 4,
      "note": 77,
      "start": 42.8916,
      "duration": 0.0186,
      "velocity": 97,
      "chip": "ym2612"
    },
    {
      "channel": 3,
      "note": 80,
      "start": 42.8928,
      "duration": 0.0185,
      "velocity": 97,
      "chip": "ym2612"
    },
    {
      "channel": 2,
      "note": 61,
      "start": 42.8939,
      "duration": 0.0186,
      "velocity": 100,
      "chip": "ym2612"
    },
    {
      "channel": 1,
      "note": 65,
      "start": 42.9088,
      "duration": 0.0134,
      "velocity": 124,
      "chip": "ym2612"
    },
    {
      "channel": 4,
      "note": 77,
      "start": 42.9102,
      "duration": 0.0161,
      "velocity": 97,
      "chip": "ym2612"
    },
    {
      "channel": 3,
      "note": 80,
      "start": 42.9113,
      "duration": 0.0161,
      "velocity": 97,
      "chip": "ym2612"
    },
    {
      "channel": 1,
      "note": 64,
      "start": 42.9222,
      "duration": 0.0203,
      "velocity": 124,
      "chip": "ym2612"
    },
    {
      "channel": 4,
      "note": 77,
      "start": 42.9263,
      "duration": 0.0175,
      "velocity": 97,
      "chip": "ym2612"
    },
    {
      "channel": 3,
      "note": 80,
      "start": 42.9274,
      "duration": 0.0176,
      "velocity": 97,
      "chip": "ym2612"
    },
    {
      "channel": 1,
      "note": 78,
      "start": 42.9425,
      "duration": 0.012,
      "velocity": 124,
      "chip": "ym2612"
    },
    {
      "channel": 4,
      "note": 77,
      "start": 42.9438,
      "duration": 0.012,
      "velocity": 97,
      "chip": "ym2612"
    },
    {
      "channel": 3,
      "note": 80,
      "start": 42.945,
      "duration": 0.0123,
      "velocity": 97,
      "chip": "ym2612"
    },
    {
      "channel": 2,
      "note": 59,
      "start": 42.9464,
      "duration": 0.0121,
      "velocity": 100,
      "chip": "ym2612"
    },
    {
      "channel": 1,
      "note": 76,
      "start": 42.9545,
      "duration": 0.016,
      "velocity": 124,
      "chip": "ym2612"
    },
    {
      "channel": 4,
      "note": 77,
      "start": 42.9558,
      "duration": 0.016,
      "velocity": 97,
      "chip": "ym2612"
    },
    {
      "channel": 3,
      "note": 80,
      "start": 42.9572,
      "duration": 0.0185,
      "velocity": 97,
      "chip": "ym2612"
    },
    {
      "channel": 2,
      "note": 59,
      "start": 42.9585,
      "duration": 0.0184,
      "velocity": 100,
      "chip": "ym2612"
    },
    {
      "channel": 1,
      "note": 75,
      "start": 42.9705,
      "duration": 0.0161,
      "velocity": 124,
      "chip": "ym2612"
    },
    {
      "channel": 4,
      "note": 77,
      "start": 42.9718,
      "duration": 0.0161,
      "velocity": 97,
      "chip": "ym2612"
    },
    {
      "channel": 3,
      "note": 80,
      "start": 42.9758,
      "duration": 0.0133,
      "velocity": 97,
      "chip": "ym2612"
    },
    {
      "channel": 2,
      "note": 59,
      "start": 42.9768,
      "duration": 0.0161,
      "velocity": 100,
      "chip": "ym2612"
    },
    {
      "channel": 1,
      "note": 74,
      "start": 42.9866,
      "duration": 0.0161,
      "velocity": 124,
      "chip": "ym2612"
    },
    {
      "channel": 4,
      "note": 77,
      "start": 42.9879,
      "duration": 0.0161,
      "velocity": 97,
      "chip": "ym2612"
    },
    {
      "channel": 3,
      "note": 80,
      "start": 42.989,
      "duration": 0.0162,
      "velocity": 97,
      "chip": "ym2612"
    },
    {
      "channel": 2,
      "note": 59,
      "start": 42.9929,
      "duration": 0.0158,
      "velocity": 100,
      "chip": "ym2612"
    },
    {
      "channel": 1,
      "note": 72,
      "start": 43.0027,
      "duration": 0.0161,
      "velocity": 124,
      "chip": "ym2612"
    },
    {
      "channel": 4,
      "note": 77,
      "start": 43.004,
      "duration": 0.0161,
      "velocity": 97,
      "chip": "ym2612"
    },
    {
      "channel": 3,
      "note": 80,
      "start": 43.0052,
      "duration": 0.016,
      "velocity": 97,
      "chip": "ym2612"
    },
    {
      "channel": 2,
      "note": 59,
      "start": 43.0087,
      "duration": 0.0137,
      "velocity": 100,
      "chip": "ym2612"
    },
    {
      "channel": 1,
      "note": 71,
      "start": 43.0188,
      "duration": 0.0179,
      "velocity": 124,
      "chip": "ym2612"
    },
    {
      "channel": 4,
      "note": 77,
      "start": 43.0201,
      "duration": 0.0179,
      "velocity": 97,
      "chip": "ym2612"
    },
    {
      "channel": 3,
      "note": 80,
      "start": 43.0212,
      "duration": 0.0179,
      "velocity": 97,
      "chip": "ym2612"
    },
    {
      "channel": 2,
      "note": 59,
      "start": 43.0224,
      "duration": 0.0207,
      "velocity": 100,
      "chip": "ym2612"
    },
    {
      "channel": 1,
      "note": 78,
      "start": 43.0367,
      "duration": 0.0144,
      "velocity": 124,
      "chip": "ym2612"
    },
    {
      "channel": 4,
      "note": 77,
      "start": 43.038,
      "duration": 0.0144,
      "velocity": 97,
      "chip": "ym2612"
    },
    {
      "channel": 3,
      "note": 80,
      "start": 43.0392,
      "duration": 0.0144,
      "velocity": 97,
      "chip": "ym2612"
    },
    {
      "channel": 2,
      "note": 59,
      "start": 43.0431,
      "duration": 0.0116,
      "velocity": 100,
      "chip": "ym2612"
    },
    {
      "channel": 1,
      "note": 76,
      "start": 43.0511,
      "duration": 0.016,
      "velocity": 124,
      "chip": "ym2612"
    },
    {
      "channel": 4,
      "note": 77,
      "start": 43.0523,
      "duration": 0.0161,
      "velocity": 97,
      "chip": "ym2612"
    },
    {
      "channel": 3,
      "note": 80,
      "start": 43.0536,
      "duration": 0.016,
      "velocity": 97,
      "chip": "ym2612"
    },
    {
      "channel": 2,
      "note": 59,
      "start": 43.0546,
      "duration": 0.0161,
      "velocity": 100,
      "chip": "ym2612"
    },
    {
      "channel": 1,
      "note": 75,
      "start": 43.0671,
      "duration": 0.0161,
      "velocity": 124,
      "chip": "ym2612"
    },
    {
      "channel": 4,
      "note": 77,
      "start": 43.0684,
      "duration": 0.0161,
      "velocity": 97,
      "chip": "ym2612"
    },
    {
      "channel": 3,
      "note": 80,
      "start": 43.0696,
      "duration": 0.0161,
      "velocity": 97,
      "chip": "ym2612"
    },
    {
      "channel": 2,
      "note": 59,
      "start": 43.0707,
      "duration": 0.0161,
      "velocity": 100,
      "chip": "ym2612"
    },
    {
      "channel": 1,
      "note": 74,
      "start": 43.0832,
      "duration": 0.0161,
      "velocity": 124,
      "chip": "ym2612"
    },
    {
      "channel": 4,
      "note": 77,
      "start": 43.0845,
      "duration": 0.0161,
      "velocity": 97,
      "chip": "ym2612"
    },
    {
      "channel": 3,
      "note": 80,
      "start": 43.0857,
      "duration": 0.0161,
      "velocity": 97,
      "chip": "ym2612"
    },
    {
      "channel": 2,
      "note": 59,
      "start": 43.0868,
      "duration": 0.0161,
      "velocity": 100,
      "chip": "ym2612"
    },
    {
      "channel": 1,
      "note": 72,
      "start": 43.0993,
      "duration": 0.0161,
      "velocity": 124,
      "chip": "ym2612"
    },
    {
      "channel": 4,
      "note": 77,
      "start": 43.1006,
      "duration": 0.0161,
      "velocity": 97,
      "chip": "ym2612"
    },
    {
      "channel": 3,
      "note": 80,
      "start": 43.1018,
      "duration": 0.0161,
      "velocity": 97,
      "chip": "ym2612"
    },
    {
      "channel": 1,
      "note": 71,
      "start": 43.1154,
      "duration": 0.0178,
      "velocity": 124,
      "chip": "ym2612"
    },
    {
      "channel": 4,
      "note": 77,
      "start": 43.1167,
      "duration": 0.0179,
      "velocity": 97,
      "chip": "ym2612"
    },
    {
      "channel": 3,
      "note": 80,
      "start": 43.1179,
      "duration": 0.0179,
      "velocity": 97,
      "chip": "ym2612"
    },
    {
      "channel": 1,
      "note": 78,
      "start": 43.1333,
      "duration": 0.0144,
      "velocity": 124,
      "chip": "ym2612"
    },
    {
      "channel": 4,
      "note": 77,
      "start": 43.1346,
      "duration": 0.0144,
      "velocity": 97,
      "chip": "ym2612"
    },
    {
      "channel": 3,
      "note": 80,
      "start": 43.1358,
      "duration": 0.0143,
      "velocity": 97,
      "chip": "ym2612"
    },
    {
      "channel": 2,
      "note": 56,
      "start": 43.1372,
      "duration": 0.0141,
      "velocity": 100,
      "chip": "ym2612"
    },
    {
      "channel": 1,
      "note": 76,
      "start": 43.1477,
      "duration": 0.016,
      "velocity": 124,
      "chip": "ym2612"
    },
    {
      "channel": 4,
      "note": 77,
      "start": 43.149,
      "duration": 0.016,
      "velocity": 97,
      "chip": "ym2612"
    },
    {
      "channel": 3,
      "note": 80,
      "start": 43.1501,
      "duration": 0.016,
      "velocity": 97,
      "chip": "ym2612"
    },
    {
      "channel": 2,
      "note": 56,
      "start": 43.1513,
      "duration": 0.016,
      "velocity": 100,
      "chip": "ym2612"
    },
    {
      "channel": 1,
      "note": 75,
      "start": 43.1637,
      "duration": 0.0161,
      "velocity": 124,
      "chip": "ym2612"
    },
    {
      "channel": 4,
      "note": 77,
      "start": 43.165,
      "duration": 0.0161,
      "velocity": 97,
      "chip": "ym2612"
    },
    {
      "channel": 3,
      "note": 80,
      "start": 43.1661,
      "duration": 0.0161,
      "velocity": 97,
      "chip": "ym2612"
    },
    {
      "channel": 2,
      "note": 56,
      "start": 43.1673,
      "duration": 0.0161,
      "velocity": 100,
      "chip": "ym2612"
    },
    {
      "channel": 1,
      "note": 74,
      "start": 43.1798,
      "duration": 0.0161,
      "velocity": 124,
      "chip": "ym2612"
    },
    {
      "channel": 4,
      "note": 77,
      "start": 43.1811,
      "duration": 0.0161,
      "velocity": 97,
      "chip": "ym2612"
    },
    {
      "channel": 3,
      "note": 80,
      "start": 43.1822,
      "duration": 0.0161,
      "velocity": 97,
      "chip": "ym2612"
    },
    {
      "channel": 2,
      "note": 56,
      "start": 43.1834,
      "duration": 0.0162,
      "velocity": 100,
      "chip": "ym2612"
    },
    {
      "channel": 1,
      "note": 72,
      "start": 43.1959,
      "duration": 0.0161,
      "velocity": 124,
      "chip": "ym2612"
    },
    {
      "channel": 4,
      "note": 77,
      "start": 43.1972,
      "duration": 0.0161,
      "velocity": 97,
      "chip": "ym2612"
    },
    {
      "channel": 3,
      "note": 80,
      "start": 43.1984,
      "duration": 0.0161,
      "velocity": 97,
      "chip": "ym2612"
    },
    {
      "channel": 2,
      "note": 56,
      "start": 43.1995,
      "duration": 0.0161,
      "velocity": 100,
      "chip": "ym2612"
    },
    {
      "channel": 1,
      "note": 71,
      "start": 43.212,
      "duration": 0.0161,
      "velocity": 124,
      "chip": "ym2612"
    },
    {
      "channel": 4,
      "note": 77,
      "start": 43.2133,
      "duration": 0.0161,
      "velocity": 97,
      "chip": "ym2612"
    },
    {
      "channel": 3,
      "note": 80,
      "start": 43.2145,
      "duration": 0.0161,
      "velocity": 97,
      "chip": "ym2612"
    },
    {
      "channel": 2,
      "note": 56,
      "start": 43.2156,
      "duration": 0.0161,
      "velocity": 100,
      "chip": "ym2612"
    },
    {
      "channel": 1,
      "note": 70,
      "start": 43.2282,
      "duration": 0.0161,
      "velocity": 124,
      "chip": "ym2612"
    },
    {
      "channel": 4,
      "note": 77,
      "start": 43.2294,
      "duration": 0.0161,
      "velocity": 97,
      "chip": "ym2612"
    },
    {
      "channel": 3,
      "note": 80,
      "start": 43.2306,
      "duration": 0.0161,
      "velocity": 97,
      "chip": "ym2612"
    },
    {
      "channel": 2,
      "note": 56,
      "start": 43.2317,
      "duration": 0.0161,
      "velocity": 100,
      "chip": "ym2612"
    },
    {
      "channel": 1,
      "note": 69,
      "start": 43.2443,
      "duration": 0.0163,
      "velocity": 124,
      "chip": "ym2612"
    },
    {
      "channel": 4,
      "note": 77,
      "start": 43.2455,
      "duration": 0.0163,
      "velocity": 97,
      "chip": "ym2612"
    },
    {
      "channel": 3,
      "note": 80,
      "start": 43.2467,
      "duration": 0.0164,
      "velocity": 97,
      "chip": "ym2612"
    },
    {
      "channel": 2,
      "note": 56,
      "start": 43.2478,
      "duration": 0.0163,
      "velocity": 100,
      "chip": "ym2612"
    },
    {
      "channel": 1,
      "note": 68,
      "start": 43.2605,
      "duration": 0.0163,
      "velocity": 124,
      "chip": "ym2612"
    },
    {
      "channel": 4,
      "note": 77,
      "start": 43.2619,
      "duration": 0.0163,
      "velocity": 97,
      "chip": "ym2612"
    },
    {
      "channel": 3,
      "note": 80,
      "start": 43.2631,
      "duration": 0.0162,
      "velocity": 97,
      "chip": "ym2612"
    },
    {
      "channel": 2,
      "note": 56,
      "start": 43.2642,
      "duration": 0.0163,
      "velocity": 100,
      "chip": "ym2612"
    },
    {
      "channel": 1,
      "note": 66,
      "start": 43.2769,
      "duration": 0.0156,
      "velocity": 124,
      "chip": "ym2612"
    },
    {
      "channel": 4,
      "note": 77,
      "start": 43.2782,
      "duration": 0.0156,
      "velocity": 97,
      "chip": "ym2612"
    },
    {
      "channel": 3,
      "note": 80,
      "start": 43.2793,
      "duration": 0.0156,
      "velocity": 97,
      "chip": "ym2612"
    },
    {
      "channel": 2,
      "note": 56,
      "start": 43.2805,
      "duration": 0.0156,
      "velocity": 100,
      "chip": "ym2612"
    },
    {
      "channel": 1,
      "note": 65,
      "start": 43.2925,
      "duration": 0.018,
      "velocity": 124,
      "chip": "ym2612"
    },
    {
      "channel": 4,
      "note": 77,
      "start": 43.2938,
      "duration": 0.018,
      "velocity": 97,
      "chip": "ym2612"
    },
    {
      "channel": 3,
      "note": 80,
      "start": 43.295,
      "duration": 0.0181,
      "velocity": 97,
      "chip": "ym2612"
    },
    {
      "channel": 1,
      "note": 64,
      "start": 43.3105,
      "duration": 0.0167,
      "velocity": 124,
      "chip": "ym2612"
    },
    {
      "channel": 4,
      "note": 77,
      "start": 43.3118,
      "duration": 0.0219,
      "velocity": 120,
      "chip": "ym2612"
    },
    {
      "channel": 3,
      "note": 80,
      "start": 43.313,
      "duration": 0.0237,
      "velocity": 120,
      "chip": "ym2612"
    },
    {
      "channel": 1,
      "note": 62,
      "start": 43.3273,
      "duration": 0.0185,
      "velocity": 124,
      "chip": "ym2612"
    },
    {
      "channel": 0,
      "note": 36,
      "start": 43.3308,
      "duration": 0.0168,
      "velocity": 115,
      "chip": "ym2612"
    },
    {
      "channel": 4,
      "note": 62,
      "start": 43.3338,
      "duration": 0.015,
      "velocity": 120,
      "chip": "ym2612"
    },
    {
      "channel": 3,
      "note": 57,
      "start": 43.3367,
      "duration": 0.0133,
      "velocity": 120,
      "chip": "ym2612"
    },
    {
      "channel": 2,
      "note": 50,
      "start": 43.3383,
      "duration": 0.0129,
      "velocity": 100,
      "chip": "ym2612"
    },
    {
      "channel": 1,
      "note": 61,
      "start": 43.3457,
      "duration": 0.0115,
      "velocity": 124,
      "chip": "ym2612"
    },
    {
      "channel": 0,
      "note": 36,
      "start": 43.3476,
      "duration": 0.0115,
      "velocity": 115,
      "chip": "ym2612"
    },
    {
      "channel": 4,
      "note": 62,
      "start": 43.3488,
      "duration": 0.0114,
      "velocity": 120,
      "chip": "ym2612"
    },
    {
      "channel": 3,
      "note": 57,
      "start": 43.35,
      "duration": 0.0113,
      "velocity": 120,
      "chip": "ym2612"
    },
    {
      "channel": 2,
      "note": 50,
      "start": 43.3511,
      "duration": 0.0113,
      "velocity": 100,
      "chip": "ym2612"
    },
    {
      "channel": 1,
      "note": 60,
      "start": 43.3572,
      "duration": 0.0186,
      "velocity": 124,
      "chip": "ym2612"
    },
    {
      "channel": 0,
      "note": 37,
      "start": 43.359,
      "duration": 0.0185,
      "velocity": 115,
      "chip": "ym2612"
    },
    {
      "channel": 4,
      "note": 62,
      "start": 43.3602,
      "duration": 0.0185,
      "velocity": 120,
      "chip": "ym2612"
    },
    {
      "channel": 3,
      "note": 57,
      "start": 43.3613,
      "duration": 0.0185,
      "velocity": 120,
      "chip": "ym2612"
    },
    {
      "channel": 2,
      "note": 50,
      "start": 43.3624,
      "duration": 0.0185,
      "velocity": 100,
      "chip": "ym2612"
    },
    {
      "channel": 1,
      "note": 59,
      "start": 43.3758,
      "duration": 0.0134,
      "velocity": 124,
      "chip": "ym2612"
    },
    {
      "channel": 0,
      "note": 37,
      "start": 43.3775,
      "duration": 0.0161,
      "velocity": 115,
      "chip": "ym2612"
    },
    {
      "channel": 4,
      "note": 62,
      "start": 43.3787,
      "duration": 0.0161,
      "velocity": 120,
      "chip": "ym2612"
    },
    {
      "channel": 3,
      "note": 57,
      "start": 43.3798,
      "duration": 0.0161,
      "velocity": 120,
      "chip": "ym2612"
    },
    {
      "channel": 2,
      "note": 50,
      "start": 43.381,
      "duration": 0.0161,
      "velocity": 100,
      "chip": "ym2612"
    },
    {
      "channel": 1,
      "note": 57,
      "start": 43.3892,
      "duration": 0.0161,
      "velocity": 124,
      "chip": "ym2612"
    },
    {
      "channel": 0,
      "note": 38,
      "start": 43.3936,
      "duration": 0.0157,
      "velocity": 115,
      "chip": "ym2612"
    },
    {
      "channel": 4,
      "note": 62,
      "start": 43.3948,
      "duration": 0.0158,
      "velocity": 120,
      "chip": "ym2612"
    },
    {
      "channel": 3,
      "note": 57,
      "start": 43.3959,
      "duration": 0.0158,
      "velocity": 120,
      "chip": "ym2612"
    },
    {
      "channel": 2,
      "note": 50,
      "start": 43.3971,
      "duration": 0.0158,
      "velocity": 100,
      "chip": "ym2612"
    },
    {
      "channel": 1,
      "note": 56,
      "start": 43.4053,
      "duration": 0.0161,
      "velocity": 124,
      "chip": "ym2612"
    },
    {
      "channel": 0,
      "note": 38,
      "start": 43.4093,
      "duration": 0.0141,
      "velocity": 115,
      "chip": "ym2612"
    },
    {
      "channel": 4,
      "note": 62,
      "start": 43.4105,
      "duration": 0.014,
      "velocity": 120,
      "chip": "ym2612"
    },
    {
      "channel": 3,
      "note": 57,
      "start": 43.4117,
      "duration": 0.014,
      "velocity": 120,
      "chip": "ym2612"
    },
    {
      "channel": 2,
      "note": 50,
      "start": 43.4128,
      "duration": 0.014,
      "velocity": 100,
      "chip": "ym2612"
    },
    {
      "channel": 1,
      "note": 55,
      "start": 43.4214,
      "duration": 0.0161,
      "velocity": 124,
      "chip": "ym2612"
    },
    {
      "channel": 0,
      "note": 39,
      "start": 43.4234,
      "duration": 0.0158,
      "velocity": 115,
      "chip": "ym2612"
    },
    {
      "channel": 4,
      "note": 62,
      "start": 43.4245,
      "duration": 0.0186,
      "velocity": 120,
      "chip": "ym2612"
    },
    {
      "channel": 3,
      "note": 57,
      "start": 43.4257,
      "duration": 0.0186,
      "velocity": 120,
      "chip": "ym2612"
    },
    {
      "channel": 2,
      "note": 50,
      "start": 43.4268,
      "duration": 0.0186,
      "velocity": 100,
      "chip": "ym2612"
    },
    {
      "channel": 1,
      "note": 53,
      "start": 43.4375,
      "duration": 0.0161,
      "velocity": 124,
      "chip": "ym2612"
    },
    {
      "channel": 0,
      "note": 39,
      "start": 43.4392,
      "duration": 0.0161,
      "velocity": 115,
      "chip": "ym2612"
    },
    {
      "channel": 4,
      "note": 62,
      "start": 43.4431,
      "duration": 0.0161,
      "velocity": 120,
      "chip": "ym2612"
    },
    {
      "channel": 3,
      "note": 57,
      "start": 43.4443,
      "duration": 0.0161,
      "velocity": 120,
      "chip": "ym2612"
    },
    {
      "channel": 1,
      "note": 52,
      "start": 43.4536,
      "duration": 0.0161,
      "velocity": 124,
      "chip": "ym2612"
    },
    {
      "channel": 0,
      "note": 40,
      "start": 43.4553,
      "duration": 0.0161,
      "velocity": 115,
      "chip": "ym2612"
    },
    {
      "channel": 4,
      "note": 62,
      "start": 43.4592,
      "duration": 0.0133,
      "velocity": 120,
      "chip": "ym2612"
    },
    {
      "channel": 3,
      "note": 57,
      "start": 43.4604,
      "duration": 0.0157,
      "velocity": 120,
      "chip": "ym2612"
    },
    {
      "channel": 1,
      "note": 51,
      "start": 43.4696,
      "duration": 0.0153,
      "velocity": 1,
      "chip": "ym2612"
    },
    {
      "channel": 0,
      "note": 40,
      "start": 43.4714,
      "duration": 0.0153,
      "velocity": 115,
      "chip": "ym2612"
    },
    {
      "channel": 4,
      "note": 62,
      "start": 43.4725,
      "duration": 0.0153,
      "velocity": 120,
      "chip": "ym2612"
    },
    {
      "channel": 3,
      "note": 57,
      "start": 43.4761,
      "duration": 0.0129,
      "velocity": 120,
      "chip": "ym2612"
    },
    {
      "channel": 0,
      "note": 40,
      "start": 43.4867,
      "duration": 0.0152,
      "velocity": 115,
      "chip": "ym2612"
    },
    {
      "channel": 4,
      "note": 62,
      "start": 43.4878,
      "duration": 0.0153,
      "velocity": 120,
      "chip": "ym2612"
    },
    {
      "channel": 3,
      "note": 57,
      "start": 43.489,
      "duration": 0.0153,
      "velocity": 120,
      "chip": "ym2612"
    },
    {
      "channel": 0,
      "note": 41,
      "start": 43.5019,
      "duration": 0.0161,
      "velocity": 115,
      "chip": "ym2612"
    },
    {
      "channel": 4,
      "note": 62,
      "start": 43.5031,
      "duration": 0.0161,
      "velocity": 120,
      "chip": "ym2612"
    },
    {
      "channel": 3,
      "note": 57,
      "start": 43.5042,
      "duration": 0.0162,
      "velocity": 120,
      "chip": "ym2612"
    },
    {
      "channel": 0,
      "note": 41,
      "start": 43.518,
      "duration": 0.0161,
      "velocity": 115,
      "chip": "ym2612"
    },
    {
      "channel": 4,
      "note": 62,
      "start": 43.5192,
      "duration": 0.0161,
      "velocity": 120,
      "chip": "ym2612"
    },
    {
      "channel": 3,
      "note": 57,
      "start": 43.5204,
      "duration": 0.0161,
      "velocity": 120,
      "chip": "ym2612"
    },
    {
      "channel": 2,
      "note": 50,
      "start": 43.5219,
      "duration": 0.0157,
      "velocity": 100,
      "chip": "ym2612"
    },
    {
      "channel": 1,
      "note": 38,
      "start": 43.5262,
      "duration": 0.0127,
      "velocity": 100,
      "chip": "ym2612"
    },
    {
      "channel": 0,
      "note": 42,
      "start": 43.5341,
      "duration": 0.0161,
      "velocity": 115,
      "chip": "ym2612"
    },
    {
      "channel": 4,
      "note": 62,
      "start": 43.5353,
      "duration": 0.0162,
      "velocity": 120,
      "chip": "ym2612"
    },
    {
      "channel": 3,
      "note": 57,
      "start": 43.5365,
      "duration": 0.0161,
      "velocity": 120,
      "chip": "ym2612"
    },
    {
      "channel": 2,
      "note": 50,
      "start": 43.5376,
      "duration": 0.0161,
      "velocity": 100,
      "chip": "ym2612"
    },
    {
      "channel": 1,
      "note": 38,
      "start": 43.5389,
      "duration": 0.016,
      "velocity": 100,
      "chip": "ym2612"
    },
    {
      "channel": 0,
      "note": 42,
      "start": 43.5502,
      "duration": 0.0161,
      "velocity": 115,
      "chip": "ym2612"
    },
    {
      "channel": 4,
      "note": 62,
      "start": 43.5515,
      "duration": 0.0161,
      "velocity": 120,
      "chip": "ym2612"
    },
    {
      "channel": 3,
      "note": 57,
      "start": 43.5526,
      "duration": 0.0161,
      "velocity": 120,
      "chip": "ym2612"
    },
    {
      "channel": 2,
      "note": 50,
      "start": 43.5537,
      "duration": 0.0161,
      "velocity": 100,
      "chip": "ym2612"
    },
    {
      "channel": 1,
      "note": 38,
      "start": 43.5548,
      "duration": 0.0161,
      "velocity": 100,
      "chip": "ym2612"
    },
    {
      "channel": 0,
      "note": 43,
      "start": 43.5663,
      "duration": 0.0161,
      "velocity": 115,
      "chip": "ym2612"
    },
    {
      "channel": 4,
      "note": 62,
      "start": 43.5676,
      "duration": 0.0161,
      "velocity": 120,
      "chip": "ym2612"
    },
    {
      "channel": 3,
      "note": 57,
      "start": 43.5687,
      "duration": 0.0161,
      "velocity": 120,
      "chip": "ym2612"
    },
    {
      "channel": 2,
      "note": 50,
      "start": 43.5698,
      "duration": 0.0161,
      "velocity": 100,
      "chip": "ym2612"
    },
    {
      "channel": 1,
      "note": 38,
      "start": 43.5709,
      "duration": 0.0161,
      "velocity": 100,
      "chip": "ym2612"
    },
    {
      "channel": 0,
      "note": 43,
      "start": 43.5824,
      "duration": 0.0161,
      "velocity": 115,
      "chip": "ym2612"
    },
    {
      "channel": 4,
      "note": 62,
      "start": 43.5837,
      "duration": 0.0161,
      "velocity": 120,
      "chip": "ym2612"
    },
    {
      "channel": 3,
      "note": 57,
      "start": 43.5848,
      "duration": 0.0161,
      "velocity": 120,
      "chip": "ym2612"
    },
    {
      "channel": 2,
      "note": 50,
      "start": 43.5859,
      "duration": 0.0161,
      "velocity": 100,
      "chip": "ym2612"
    },
    {
      "channel": 1,
      "note": 38,
      "start": 43.587,
      "duration": 0.0162,
      "velocity": 100,
      "chip": "ym2612"
    },
    {
      "channel": 0,
      "note": 44,
      "start": 43.5985,
      "duration": 0.0161,
      "velocity": 115,
      "chip": "ym2612"
    },
    {
      "channel": 4,
      "note": 62,
      "start": 43.5997,
      "duration": 0.0161,
      "velocity": 120,
      "chip": "ym2612"
    },
    {
      "channel": 3,
      "note": 57,
      "start": 43.6009,
      "duration": 0.0161,
      "velocity": 120,
      "chip": "ym2612"
    },
    {
      "channel": 2,
      "note": 50,
      "start": 43.602,
      "duration": 0.0161,
      "velocity": 100,
      "chip": "ym2612"
    },
    {
      "channel": 1,
      "note": 38,
      "start": 43.6032,
      "duration": 0.0161,
      "velocity": 100,
      "chip": "ym2612"
    },
    {
      "channel": 0,
      "note": 44,
      "start": 43.6146,
      "duration": 0.0161,
      "velocity": 115,
      "chip": "ym2612"
    },
    {
      "channel": 4,
      "note": 62,
      "start": 43.6158,
      "duration": 0.0161,
      "velocity": 120,
      "chip": "ym2612"
    },
    {
      "channel": 3,
      "note": 57,
      "start": 43.617,
      "duration": 0.0161,
      "velocity": 120,
      "chip": "ym2612"
    },
    {
      "channel": 2,
      "note": 50,
      "start": 43.6181,
      "duration": 0.0161,
      "velocity": 100,
      "chip": "ym2612"
    },
    {
      "channel": 1,
      "note": 38,
      "start": 43.6193,
      "duration": 0.0161,
      "velocity": 100,
      "chip": "ym2612"
    },
    {
      "channel": 0,
      "note": 44,
      "start": 43.6307,
      "duration": 0.0161,
      "velocity": 115,
      "chip": "ym2612"
    },
    {
      "channel": 4,
      "note": 62,
      "start": 43.6319,
      "duration": 0.0161,
      "velocity": 120,
      "chip": "ym2612"
    },
    {
      "channel": 3,
      "note": 57,
      "start": 43.6331,
      "duration": 0.0162,
      "velocity": 120,
      "chip": "ym2612"
    },
    {
      "channel": 0,
      "note": 45,
      "start": 43.6469,
      "duration": 0.0161,
      "velocity": 115,
      "chip": "ym2612"
    },
    {
      "channel": 4,
      "note": 62,
      "start": 43.6481,
      "duration": 0.016,
      "velocity": 120,
      "chip": "ym2612"
    },
    {
      "channel": 3,
      "note": 57,
      "start": 43.6492,
      "duration": 0.0161,
      "velocity": 120,
      "chip": "ym2612"
    },
    {
      "channel": 0,
      "note": 45,
      "start": 43.663,
      "duration": 0.0161,
      "velocity": 115,
      "chip": "ym2612"
    },
    {
      "channel": 4,
      "note": 62,
      "start": 43.6641,
      "duration": 0.0162,
      "velocity": 120,
      "chip": "ym2612"
    },
    {
      "channel": 3,
      "note": 57,
      "start": 43.6653,
      "duration": 0.0161,
      "velocity": 120,
      "chip": "ym2612"
    },
    {
      "channel": 0,
      "note": 46,
      "start": 43.6791,
      "duration": 0.0161,
      "velocity": 115,
      "chip": "ym2612"
    },
    {
      "channel": 4,
      "note": 62,
      "start": 43.6803,
      "duration": 0.0161,
      "velocity": 120,
      "chip": "ym2612"
    },
    {
      "channel": 3,
      "note": 57,
      "start": 43.6814,
      "duration": 0.0161,
      "velocity": 120,
      "chip": "ym2612"
    },
    {
      "channel": 0,
      "note": 46,
      "start": 43.6951,
      "duration": 0.0195,
      "velocity": 115,
      "chip": "ym2612"
    },
    {
      "channel": 4,
      "note": 62,
      "start": 43.6964,
      "duration": 0.0195,
      "velocity": 120,
      "chip": "ym2612"
    },
    {
      "channel": 3,
      "note": 57,
      "start": 43.6975,
      "duration": 0.0195,
      "velocity": 120,
      "chip": "ym2612"
    },
    {
      "channel": 1,
      "note": 78,
      "start": 43.713,
      "duration": 0.0144,
      "velocity": 124,
      "chip": "ym2612"
    },
    {
      "channel": 0,
      "note": 47,
      "start": 43.7147,
      "duration": 0.0144,
      "velocity": 115,
      "chip": "ym2612"
    },
    {
      "channel": 4,
      "note": 62,
      "start": 43.7159,
      "duration": 0.0144,
      "velocity": 120,
      "chip": "ym2612"
    },
    {
      "channel": 3,
      "note": 57,
      "start": 43.717,
      "duration": 0.0144,
      "velocity": 120,
      "chip": "ym2612"
    },
    {
      "channel": 2,
      "note": 50,
      "start": 43.7186,
      "duration": 0.0141,
      "velocity": 100,
      "chip": "ym2612"
    },
    {
      "channel": 1,
      "note": 76,
      "start": 43.7273,
      "duration": 0.0162,
      "velocity": 124,
      "chip": "ym2612"
    },
    {
      "channel": 0,
      "note": 47,
      "start": 43.7291,
      "duration": 0.0162,
      "velocity": 115,
      "chip": "ym2612"
    },
    {
      "channel": 4,
      "note": 62,
      "start": 43.7303,
      "duration": 0.0162,
      "velocity": 120,
      "chip": "ym2612"
    },
    {
      "channel": 3,
      "note": 57,
      "start": 43.7314,
      "duration": 0.0162,
      "velocity": 120,
      "chip": "ym2612"
    },
    {
      "channel": 2,
      "note": 50,
      "start": 43.7326,
      "duration": 0.0161,
      "velocity": 100,
      "chip": "ym2612"
    },
    {
      "channel": 1,
      "note": 75,
      "start": 43.7436,
      "duration": 0.0159,
      "velocity": 124,
      "chip": "ym2612"
    },
    {
      "channel": 0,
      "note": 47,
      "start": 43.7453,
      "duration": 0.0159,
      "velocity": 115,
      "chip": "ym2612"
    },
    {
      "channel": 4,
      "note": 62,
      "start": 43.7465,
      "duration": 0.0159,
      "velocity": 120,
      "chip": "ym2612"
    },
    {
      "channel": 3,
      "note": 57,
      "start": 43.7476,
      "duration": 0.0159,
      "velocity": 120,
      "chip": "ym2612"
    },
    {
      "channel": 2,
      "note": 50,
      "start": 43.7488,
      "duration": 0.0159,
      "velocity": 100,
      "chip": "ym2612"
    },
    {
      "channel": 1,
      "note": 74,
      "start": 43.7595,
      "duration": 0.0178,
      "velocity": 124,
      "chip": "ym2612"
    },
    {
      "channel": 0,
      "note": 48,
      "start": 43.7612,
      "duration": 0.0178,
      "velocity": 115,
      "chip": "ym2612"
    },
    {
      "channel": 4,
      "note": 62,
      "start": 43.7624,
      "duration": 0.0178,
      "velocity": 120,
      "chip": "ym2612"
    },
    {
      "channel": 3,
      "note": 57,
      "start": 43.7635,
      "duration": 0.0178,
      "velocity": 120,
      "chip": "ym2612"
    },
    {
      "channel": 2,
      "note": 50,
      "start": 43.7647,
      "duration": 0.0178,
      "velocity": 100,
      "chip": "ym2612"
    },
    {
      "channel": 1,
      "note": 72,
      "start": 43.7773,
      "duration": 0.0166,
      "velocity": 124,
      "chip": "ym2612"
    },
    {
      "channel": 0,
      "note": 48,
      "start": 43.779,
      "duration": 0.0167,
      "velocity": 115,
      "chip": "ym2612"
    },
    {
      "channel": 4,
      "note": 62,
      "start": 43.7802,
      "duration": 0.0166,
      "velocity": 120,
      "chip": "ym2612"
    },
    {
      "channel": 3,
      "note": 57,
      "start": 43.7814,
      "duration": 0.0167,
      "velocity": 120,
      "chip": "ym2612"
    },
    {
      "channel": 2,
      "note": 50,
      "start": 43.7825,
      "duration": 0.0166,
      "velocity": 100,
      "chip": "ym2612"
    },
    {
      "channel": 1,
      "note": 71,
      "start": 43.7939,
      "duration": 0.0163,
      "velocity": 124,
      "chip": "ym2612"
    },
    {
      "channel": 0,
      "note": 49,
      "start": 43.7957,
      "duration": 0.0154,
      "velocity": 1,
      "chip": "ym2612"
    },
    {
      "channel": 4,
      "note": 62,
      "start": 43.7968,
      "duration": 0.0155,
      "velocity": 120,
      "chip": "ym2612"
    },
    {
      "channel": 3,
      "note": 57,
      "start": 43.798,
      "duration": 0.0154,
      "velocity": 120,
      "chip": "ym2612"
    },
    {
      "channel": 2,
      "note": 50,
      "start": 43.7991,
      "duration": 0.0155,
      "velocity": 100,
      "chip": "ym2612"
    },
    {
      "channel": 1,
      "note": 70,
      "start": 43.8102,
      "duration": 0.0141,
      "velocity": 124,
      "chip": "ym2612"
    },
    {
      "channel": 4,
      "note": 62,
      "start": 43.8123,
      "duration": 0.0132,
      "velocity": 120,
      "chip": "ym2612"
    },
    {
      "channel": 3,
      "note": 57,
      "start": 43.8135,
      "duration": 0.0132,
      "velocity": 120,
      "chip": "ym2612"
    },
    {
      "channel": 2,
      "note": 50,
      "start": 43.8146,
      "duration": 0.0132,
      "velocity": 100,
      "chip": "ym2612"
    },
    {
      "channel": 1,
      "note": 69,
      "start": 43.8242,
      "duration": 0.0185,
      "velocity": 124,
      "chip": "ym2612"
    },
    {
      "channel": 4,
      "note": 62,
      "start": 43.8255,
      "duration": 0.0185,
      "velocity": 120,
      "chip": "ym2612"
    },
    {
      "channel": 3,
      "note": 57,
      "start": 43.8266,
      "duration": 0.0185,
      "velocity": 120,
      "chip": "ym2612"
    },
    {
      "channel": 1,
      "note": 68,
      "start": 43.8427,
      "duration": 0.0161,
      "velocity": 124,
      "chip": "ym2612"
    },
    {
      "channel": 4,
      "note": 62,
      "start": 43.844,
      "duration": 0.0161,
      "velocity": 120,
      "chip": "ym2612"
    },
    {
      "channel": 3,
      "note": 57,
      "start": 43.8451,
      "duration": 0.0161,
      "velocity": 120,
      "chip": "ym2612"
    },
    {
      "channel": 1,
      "note": 66,
      "start": 43.8588,
      "duration": 0.0134,
      "velocity": 124,
      "chip": "ym2612"
    },
    {
      "channel": 4,
      "note": 62,
      "start": 43.8601,
      "duration": 0.0157,
      "velocity": 120,
      "chip": "ym2612"
    },
    {
      "channel": 3,
      "note": 57,
      "start": 43.8612,
      "duration": 0.0158,
      "velocity": 120,
      "chip": "ym2612"
    },
    {
      "channel": 1,
      "note": 65,
      "start": 43.8722,
      "duration": 0.0161,
      "velocity": 124,
      "chip": "ym2612"
    },
    {
      "channel": 4,
      "note": 62,
      "start": 43.8758,
      "duration": 0.0141,
      "velocity": 120,
      "chip": "ym2612"
    },
    {
      "channel": 3,
      "note": 57,
      "start": 43.877,
      "duration": 0.014,
      "velocity": 120,
      "chip": "ym2612"
    },
    {
      "channel": 1,
      "note": 64,
      "start": 43.8883,
      "duration": 0.0161,
      "velocity": 124,
      "chip": "ym2612"
    },
    {
      "channel": 4,
      "note": 62,
      "start": 43.8899,
      "duration": 0.022,
      "velocity": 120,
      "chip": "ym2612"
    },
    {
      "channel": 3,
      "note": 57,
      "start": 43.891,
      "duration": 0.022,
      "velocity": 120,
      "chip": "ym2612"
    },
    {
      "channel": 1,
      "note": 62,
      "start": 43.9044,
      "duration": 0.0161,
      "velocity": 124,
      "chip": "ym2612"
    },
    {
      "channel": 0,
      "note": 36,
      "start": 43.9107,
      "duration": 0.0116,
      "velocity": 115,
      "chip": "ym2612"
    },
    {
      "channel": 4,
      "note": 62,
      "start": 43.9119,
      "duration": 0.0143,
      "velocity": 120,
      "chip": "ym2612"
    },
    {
      "channel": 3,
      "note": 57,
      "start": 43.913,
      "duration": 0.0143,
      "velocity": 120,
      "chip": "ym2612"
    },
    {
      "channel": 2,
      "note": 50,
      "start": 43.9146,
      "duration": 0.014,
      "velocity": 100,
      "chip": "ym2612"
    },
    {
      "channel": 1,
      "note": 61,
      "start": 43.9205,
      "duration": 0.0161,
      "velocity": 124,
      "chip": "ym2612"
    },
    {
      "channel": 0,
      "note": 36,
      "start": 43.9222,
      "duration": 0.016,
      "velocity": 115,
      "chip": "ym2612"
    },
    {
      "channel": 4,
      "note": 62,
      "start": 43.9262,
      "duration": 0.0156,
      "velocity": 120,
      "chip": "ym2612"
    },
    {
      "channel": 3,
      "note": 57,
      "start": 43.9273,
      "duration": 0.0157,
      "velocity": 120,
      "chip": "ym2612"
    },
    {
      "channel": 2,
      "note": 50,
      "start": 43.9285,
      "duration": 0.0156,
      "velocity": 100,
      "chip": "ym2612"
    },
    {
      "channel": 1,
      "note": 60,
      "start": 43.9366,
      "duration": 0.0161,
      "velocity": 124,
      "chip": "ym2612"
    },
    {
      "channel": 0,
      "note": 37,
      "start": 43.9383,
      "duration": 0.0161,
      "velocity": 115,
      "chip": "ym2612"
    },
    {
      "channel": 4,
      "note": 62,
      "start": 43.9418,
      "duration": 0.0137,
      "velocity": 120,
      "chip": "ym2612"
    },
    {
      "channel": 3,
      "note": 57,
      "start": 43.9431,
      "duration": 0.014,
      "velocity": 120,
      "chip": "ym2612"
    },
    {
      "channel": 2,
      "note": 50,
      "start": 43.9441,
      "duration": 0.0141,
      "velocity": 100,
      "chip": "ym2612"
    },
    {
      "channel": 1,
      "note": 59,
      "start": 43.9527,
      "duration": 0.0162,
      "velocity": 124,
      "chip": "ym2612"
    },
    {
      "channel": 0,
      "note": 37,
      "start": 43.9544,
      "duration": 0.0162,
      "velocity": 115,
      "chip": "ym2612"
    },
    {
      "channel": 4,
      "note": 62,
      "start": 43.9556,
      "duration": 0.0162,
      "velocity": 120,
      "chip": "ym2612"
    },
    {
      "channel": 3,
      "note": 57,
      "start": 43.9571,
      "duration": 0.0186,
      "velocity": 120,
      "chip": "ym2612"
    },
    {
      "channel": 2,
      "note": 50,
      "start": 43.9582,
      "duration": 0.0186,
      "velocity": 100,
      "chip": "ym2612"
    },
    {
      "channel": 1,
      "note": 57,
      "start": 43.9688,
      "duration": 0.0161,
      "velocity": 124,
      "chip": "ym2612"
    },
    {
      "channel": 0,
      "note": 38,
      "start": 43.9705,
      "duration": 0.0161,
      "velocity": 115,
      "chip": "ym2612"
    },
    {
      "channel": 4,
      "note": 62,
      "start": 43.9717,
      "duration": 0.0161,
      "velocity": 120,
      "chip": "ym2612"
    },
    {
      "channel": 3,
      "note": 57,
      "start": 43.9756,
      "duration": 0.0134,
      "velocity": 120,
      "chip": "ym2612"
    },
    {
      "channel": 2,
      "note": 50,
      "start": 43.9768,
      "duration": 0.0161,
      "velocity": 100,
      "chip": "ym2612"
    },
    {
      "channel": 1,
      "note": 56,
      "start": 43.9849,
      "duration": 0.0161,
      "velocity": 124,
      "chip": "ym2612"
    },
    {
      "channel": 0,
      "note": 38,
      "start": 43.9866,
      "duration": 0.0161,
      "velocity": 115,
      "chip": "ym2612"
    },
    {
      "channel": 4,
      "note": 62,
      "start": 43.9878,
      "duration": 0.0161,
      "velocity": 120,
      "chip": "ym2612"
    },
    {
      "channel": 3,
      "note": 57,
      "start": 43.989,
      "duration": 0.0161,
      "velocity": 120,
      "chip": "ym2612"
    },
    {
      "channel": 2,
      "note": 50,
      "start": 43.9929,
      "duration": 0.0157,
      "velocity": 100,
      "chip": "ym2612"
    },
    {
      "channel": 1,
      "note": 55,
      "start": 44.001,
      "duration": 0.0161,
      "velocity": 124,
      "chip": "ym2612"
    },
    {
      "channel": 0,
      "note": 39,
      "start": 44.0027,
      "duration": 0.0161,
      "velocity": 115,
      "chip": "ym2612"
    },
    {
      "channel": 4,
      "note": 62,
      "start": 44.0039,
      "duration": 0.0161,
      "velocity": 120,
      "chip": "ym2612"
    },
    {
      "channel": 3,
      "note": 57,
      "start": 44.0051,
      "duration": 0.0161,
      "velocity": 120,
      "chip": "ym2612"
    },
    {
      "channel": 2,
      "note": 50,
      "start": 44.0086,
      "duration": 0.0137,
      "velocity": 100,
      "chip": "ym2612"
    },
    {
      "channel": 1,
      "note": 53,
      "start": 44.0171,
      "duration": 0.0161,
      "velocity": 124,
      "chip": "ym2612"
    },
    {
      "channel": 0,
      "note": 39,
      "start": 44.0188,
      "duration": 0.0161,
      "velocity": 115,
      "chip": "ym2612"
    },
    {
      "channel": 4,
      "note": 62,
      "start": 44.02,
      "duration": 0.0161,
      "velocity": 120,
      "chip": "ym2612"
    },
    {
      "channel": 3,
      "note": 57,
      "start": 44.0212,
      "duration": 0.0161,
      "velocity": 120,
      "chip": "ym2612"
    },
    {
      "channel": 1,
      "note": 52,
      "start": 44.0332,
      "duration": 0.0161,
      "velocity": 124,
      "chip": "ym2612"
    },
    {
      "channel": 0,
      "note": 40,
      "start": 44.0349,
      "duration": 0.0161,
      "velocity": 115,
      "chip": "ym2612"
    },
    {
      "channel": 4,
      "note": 62,
      "start": 44.0361,
      "duration": 0.0161,
      "velocity": 120,
      "chip": "ym2612"
    },
    {
      "channel": 3,
      "note": 57,
      "start": 44.0373,
      "duration": 0.016,
      "velocity": 120,
      "chip": "ym2612"
    },
    {
      "channel": 1,
      "note": 51,
      "start": 44.0493,
      "duration": 0.0153,
      "velocity": 1,
      "chip": "ym2612"
    },
    {
      "channel": 0,
      "note": 40,
      "start": 44.051,
      "duration": 0.0153,
      "velocity": 115,
      "chip": "ym2612"
    },
    {
      "channel": 4,
      "note": 62,
      "start": 44.0522,
      "duration": 0.0153,
      "velocity": 120,
      "chip": "ym2612"
    },
    {
      "channel": 3,
      "note": 57,
      "start": 44.0534,
      "duration": 0.0153,
      "velocity": 120,
      "chip": "ym2612"
    },
    {
      "channel": 0,
      "note": 40,
      "start": 44.0663,
      "duration": 0.0152,
      "velocity": 115,
      "chip": "ym2612"
    },
    {
      "channel": 4,
      "note": 62,
      "start": 44.0675,
      "duration": 0.0153,
      "velocity": 120,
      "chip": "ym2612"
    },
    {
      "channel": 3,
      "note": 57,
      "start": 44.0687,
      "duration": 0.0152,
      "velocity": 120,
      "chip": "ym2612"
    },
    {
      "channel": 0,
      "note": 41,
      "start": 44.0815,
      "duration": 0.0162,
      "velocity": 115,
      "chip": "ym2612"
    },
    {
      "channel": 4,
      "note": 62,
      "start": 44.0827,
      "duration": 0.0161,
      "velocity": 120,
      "chip": "ym2612"
    },
    {
      "channel": 3,
      "note": 57,
      "start": 44.0839,
      "duration": 0.0161,
      "velocity": 120,
      "chip": "ym2612"
    },
    {
      "channel": 0,
      "note": 41,
      "start": 44.0977,
      "duration": 0.0161,
      "velocity": 115,
      "chip": "ym2612"
    },
    {
      "channel": 4,
      "note": 62,
      "start": 44.0988,
      "duration": 0.0161,
      "velocity": 120,
      "chip": "ym2612"
    },
    {
      "channel": 3,
      "note": 57,
      "start": 44.1,
      "duration": 0.0161,
      "velocity": 120,
      "chip": "ym2612"
    },
    {
      "channel": 2,
      "note": 50,
      "start": 44.1016,
      "duration": 0.0157,
      "velocity": 100,
      "chip": "ym2612"
    },
    {
      "channel": 1,
      "note": 38,
      "start": 44.1031,
      "duration": 0.0154,
      "velocity": 100,
      "chip": "ym2612"
    },
    {
      "channel": 0,
      "note": 42,
      "start": 44.1138,
      "duration": 0.0161,
      "velocity": 115,
      "chip": "ym2612"
    },
    {
      "channel": 4,
      "note": 62,
      "start": 44.1149,
      "duration": 0.0161,
      "velocity": 120,
      "chip": "ym2612"
    },
    {
      "channel": 3,
      "note": 57,
      "start": 44.1161,
      "duration": 0.0161,
      "velocity": 120,
      "chip": "ym2612"
    },
    {
      "channel": 2,
      "note": 50,
      "start": 44.1173,
      "duration": 0.0161,
      "velocity": 100,
      "chip": "ym2612"
    },
    {
      "channel": 1,
      "note": 38,
      "start": 44.1185,
      "duration": 0.016,
      "velocity": 100,
      "chip": "ym2612"
    },
    {
      "channel": 0,
      "note": 42,
      "start": 44.1299,
      "duration": 0.0161,
      "velocity": 115,
      "chip": "ym2612"
    },
    {
      "channel": 4,
      "note": 62,
      "start": 44.1311,
      "duration": 0.0161,
      "velocity": 120,
      "chip": "ym2612"
    },
    {
      "channel": 3,
      "note": 57,
      "start": 44.1322,
      "duration": 0.0161,
      "velocity": 120,
      "chip": "ym2612"
    },
    {
      "channel": 2,
      "note": 50,
      "start": 44.1334,
      "duration": 0.0161,
      "velocity": 100,
      "chip": "ym2612"
    },
    {
      "channel": 1,
      "note": 38,
      "start": 44.1345,
      "duration": 0.0161,
      "velocity": 100,
      "chip": "ym2612"
    },
    {
      "channel": 0,
      "note": 43,
      "start": 44.146,
      "duration": 0.0161,
      "velocity": 115,
      "chip": "ym2612"
    },
    {
      "channel": 4,
      "note": 62,
      "start": 44.1472,
      "duration": 0.0161,
      "velocity": 120,
      "chip": "ym2612"
    },
    {
      "channel": 3,
      "note": 57,
      "start": 44.1483,
      "duration": 0.0161,
      "velocity": 120,
      "chip": "ym2612"
    },
    {
      "channel": 2,
      "note": 50,
      "start": 44.1495,
      "duration": 0.0161,
      "velocity": 100,
      "chip": "ym2612"
    },
    {
      "channel": 1,
      "note": 38,
      "start": 44.1506,
      "duration": 0.0161,
      "velocity": 100,
      "chip": "ym2612"
    },
    {
      "channel": 0,
      "note": 43,
      "start": 44.1621,
      "duration": 0.0161,
      "velocity": 115,
      "chip": "ym2612"
    },
    {
      "channel": 4,
      "note": 62,
      "start": 44.1633,
      "duration": 0.0161,
      "velocity": 120,
      "chip": "ym2612"
    },
    {
      "channel": 3,
      "note": 57,
      "start": 44.1644,
      "duration": 0.0161,
      "velocity": 120,
      "chip": "ym2612"
    },
    {
      "channel": 2,
      "note": 50,
      "start": 44.1656,
      "duration": 0.0161,
      "velocity": 100,
      "chip": "ym2612"
    },
    {
      "channel": 1,
      "note": 38,
      "start": 44.1667,
      "duration": 0.016,
      "velocity": 100,
      "chip": "ym2612"
    },
    {
      "channel": 0,
      "note": 44,
      "start": 44.1782,
      "duration": 0.0161,
      "velocity": 115,
      "chip": "ym2612"
    },
    {
      "channel": 4,
      "note": 62,
      "start": 44.1794,
      "duration": 0.0161,
      "velocity": 120,
      "chip": "ym2612"
    },
    {
      "channel": 3,
      "note": 57,
      "start": 44.1805,
      "duration": 0.0161,
      "velocity": 120,
      "chip": "ym2612"
    },
    {
      "channel": 2,
      "note": 50,
      "start": 44.1817,
      "duration": 0.0161,
      "velocity": 100,
      "chip": "ym2612"
    },
    {
      "channel": 1,
      "note": 38,
      "start": 44.1827,
      "duration": 0.0162,
      "velocity": 100,
      "chip": "ym2612"
    },
    {
      "channel": 0,
      "note": 44,
      "start": 44.1943,
      "duration": 0.0162,
      "velocity": 115,
      "chip": "ym2612"
    },
    {
      "channel": 4,
      "note": 62,
      "start": 44.1955,
      "duration": 0.0161,
      "velocity": 120,
      "chip": "ym2612"
    },
    {
      "channel": 3,
      "note": 57,
      "start": 44.1966,
      "duration": 0.0161,
      "velocity": 120,
      "chip": "ym2612"
    },
    {
      "channel": 2,
      "note": 50,
      "start": 44.1978,
      "duration": 0.0162,
      "velocity": 100,
      "chip": "ym2612"
    },
    {
      "channel": 1,
      "note": 38,
      "start": 44.1989,
      "duration": 0.0161,
      "velocity": 100,
      "chip": "ym2612"
    },
    {
      "channel": 0,
      "note": 44,
      "start": 44.2104,
      "duration": 0.016,
      "velocity": 115,
      "chip": "ym2612"
    },
    {
      "channel": 4,
      "note": 62,
      "start": 44.2116,
      "duration": 0.0161,
      "velocity": 120,
      "chip": "ym2612"
    },
    {
      "channel": 3,
      "note": 57,
      "start": 44.2128,
      "duration": 0.016,
      "velocity": 120,
      "chip": "ym2612"
    },
    {
      "channel": 0,
      "note": 45,
      "start": 44.2265,
      "duration": 0.0176,
      "velocity": 115,
      "chip": "ym2612"
    },
    {
      "channel": 4,
      "note": 62,
      "start": 44.2277,
      "duration": 0.0175,
      "velocity": 120,
      "chip": "ym2612"
    },
    {
      "channel": 3,
      "note": 57,
      "start": 44.2288,
      "duration": 0.0176,
      "velocity": 120,
      "chip": "ym2612"
    },
    {
      "channel": 0,
      "note": 45,
      "start": 44.244,
      "duration": 0.0167,
      "velocity": 115,
      "chip": "ym2612"
    },
    {
      "channel": 4,
      "note": 62,
      "start": 44.2451,
      "duration": 0.0167,
      "velocity": 120,
      "chip": "ym2612"
    },
    {
      "channel": 3,
      "note": 57,
      "start": 44.2464,
      "duration": 0.0167,
      "velocity": 120,
      "chip": "ym2612"
    },
    {
      "channel": 0,
      "note": 46,
      "start": 44.2607,
      "duration": 0.0163,
      "velocity": 115,
      "chip": "ym2612"
    },
    {
      "channel": 4,
      "note": 62,
      "start": 44.2618,
      "duration": 0.0163,
      "velocity": 120,
      "chip": "ym2612"
    },
    {
      "channel": 3,
      "note": 57,
      "start": 44.263,
      "duration": 0.0163,
      "velocity": 120,
      "chip": "ym2612"
    },
    {
      "channel": 0,
      "note": 46,
      "start": 44.277,
      "duration": 0.016,
      "velocity": 115,
      "chip": "ym2612"
    },
    {
      "channel": 4,
      "note": 62,
      "start": 44.2782,
      "duration": 0.016,
      "velocity": 120,
      "chip": "ym2612"
    },
    {
      "channel": 3,
      "note": 57,
      "start": 44.2793,
      "duration": 0.0161,
      "velocity": 120,
      "chip": "ym2612"
    },
    {
      "channel": 0,
      "note": 36,
      "start": 44.293,
      "duration": 0.0168,
      "velocity": 115,
      "chip": "ym2612"
    },
    {
      "channel": 4,
      "note": 62,
      "start": 44.2942,
      "duration": 0.0168,
      "velocity": 120,
      "chip": "ym2612"
    },
    {
      "channel": 3,
      "note": 57,
      "start": 44.2954,
      "duration": 0.0167,
      "velocity": 120,
      "chip": "ym2612"
    },
    {
      "channel": 2,
      "note": 50,
      "start": 44.2969,
      "duration": 0.0164,
      "velocity": 100,
      "chip": "ym2612"
    },
    {
      "channel": 1,
      "note": 38,
      "start": 44.2985,
      "duration": 0.016,
      "velocity": 100,
      "chip": "ym2612"
    },
    {
      "channel": 0,
      "note": 36,
      "start": 44.3098,
      "duration": 0.016,
      "velocity": 115,
      "chip": "ym2612"
    },
    {
      "channel": 4,
      "note": 62,
      "start": 44.311,
      "duration": 0.016,
      "velocity": 120,
      "chip": "ym2612"
    },
    {
      "channel": 3,
      "note": 57,
      "start": 44.3121,
      "duration": 0.016,
      "velocity": 120,
      "chip": "ym2612"
    },
    {
      "channel": 2,
      "note": 50,
      "start": 44.3134,
      "duration": 0.016,
      "velocity": 100,
      "chip": "ym2612"
    },
    {
      "channel": 1,
      "note": 38,
      "start": 44.3145,
      "duration": 0.016,
      "velocity": 100,
      "chip": "ym2612"
    },
    {
      "channel": 0,
      "note": 37,
      "start": 44.3258,
      "duration": 0.0134,
      "velocity": 115,
      "chip": "ym2612"
    },
    {
      "channel": 4,
      "note": 62,
      "start": 44.327,
      "duration": 0.0157,
      "velocity": 120,
      "chip": "ym2612"
    },
    {
      "channel": 3,
      "note": 57,
      "start": 44.3282,
      "duration": 0.0158,
      "velocity": 120,
      "chip": "ym2612"
    },
    {
      "channel": 2,
      "note": 50,
      "start": 44.3293,
      "duration": 0.0157,
      "velocity": 100,
      "chip": "ym2612"
    },
    {
      "channel": 1,
      "note": 38,
      "start": 44.3305,
      "duration": 0.0157,
      "velocity": 100,
      "chip": "ym2612"
    },
    {
      "channel": 0,
      "note": 37,
      "start": 44.3392,
      "duration": 0.0161,
      "velocity": 115,
      "chip": "ym2612"
    },
    {
      "channel": 4,
      "note": 62,
      "start": 44.3427,
      "duration": 0.0141,
      "velocity": 120,
      "chip": "ym2612"
    },
    {
      "channel": 3,
      "note": 57,
      "start": 44.3439,
      "duration": 0.014,
      "velocity": 120,
      "chip": "ym2612"
    },
    {
      "channel": 2,
      "note": 50,
      "start": 44.345,
      "duration": 0.0141,
      "velocity": 100,
      "chip": "ym2612"
    },
    {
      "channel": 1,
      "note": 38,
      "start": 44.3462,
      "duration": 0.0141,
      "velocity": 100,
      "chip": "ym2612"
    },
    {
      "channel": 0,
      "note": 38,
      "start": 44.3553,
      "duration": 0.0161,
      "velocity": 115,
      "chip": "ym2612"
    },
    {
      "channel": 4,
      "note": 62,
      "start": 44.3568,
      "duration": 0.0158,
      "velocity": 120,
      "chip": "ym2612"
    },
    {
      "channel": 3,
      "note": 57,
      "start": 44.3579,
      "duration": 0.0186,
      "velocity": 120,
      "chip": "ym2612"
    },
    {
      "channel": 2,
      "note": 50,
      "start": 44.3591,
      "duration": 0.0185,
      "velocity": 100,
      "chip": "ym2612"
    },
    {
      "channel": 1,
      "note": 38,
      "start": 44.3602,
      "duration": 0.0185,
      "velocity": 100,
      "chip": "ym2612"
    },
    {
      "channel": 0,
      "note": 38,
      "start": 44.3714,
      "duration": 0.0162,
      "velocity": 115,
      "chip": "ym2612"
    },
    {
      "channel": 4,
      "note": 62,
      "start": 44.3726,
      "duration": 0.0161,
      "velocity": 120,
      "chip": "ym2612"
    },
    {
      "channel": 3,
      "note": 57,
      "start": 44.3765,
      "duration": 0.0161,
      "velocity": 120,
      "chip": "ym2612"
    },
    {
      "channel": 2,
      "note": 50,
      "start": 44.3776,
      "duration": 0.0162,
      "velocity": 100,
      "chip": "ym2612"
    },
    {
      "channel": 1,
      "note": 38,
      "start": 44.3788,
      "duration": 0.0161,
      "velocity": 100,
      "chip": "ym2612"
    },
    {
      "channel": 0,
      "note": 39,
      "start": 44.3875,
      "duration": 0.0161,
      "velocity": 115,
      "chip": "ym2612"
    },
    {
      "channel": 4,
      "note": 62,
      "start": 44.3887,
      "duration": 0.0161,
      "velocity": 120,
      "chip": "ym2612"
    },
    {
      "channel": 3,
      "note": 57,
      "start": 44.3926,
      "duration": 0.0157,
      "velocity": 120,
      "chip": "ym2612"
    },
    {
      "channel": 2,
      "note": 50,
      "start": 44.3938,
      "duration": 0.0157,
      "velocity": 100,
      "chip": "ym2612"
    },
    {
      "channel": 1,
      "note": 38,
      "start": 44.3948,
      "duration": 0.0158,
      "velocity": 100,
      "chip": "ym2612"
    },
    {
      "channel": 0,
      "note": 39,
      "start": 44.4036,
      "duration": 0.0161,
      "velocity": 115,
      "chip": "ym2612"
    },
    {
      "channel": 4,
      "note": 62,
      "start": 44.4048,
      "duration": 0.0161,
      "velocity": 120,
      "chip": "ym2612"
    },
    {
      "channel": 3,
      "note": 57,
      "start": 44.4083,
      "duration": 0.0137,
      "velocity": 120,
      "chip": "ym2612"
    },
    {
      "channel": 0,
      "note": 40,
      "start": 44.4197,
      "duration": 0.0161,
      "velocity": 115,
      "chip": "ym2612"
    },
    {
      "channel": 4,
      "note": 62,
      "start": 44.4209,
      "duration": 0.0161,
      "velocity": 120,
      "chip": "ym2612"
    },
    {
      "channel": 3,
      "note": 57,
      "start": 44.4221,
      "duration": 0.0161,
      "velocity": 120,
      "chip": "ym2612"
    },
    {
      "channel": 0,
      "note": 40,
      "start": 44.4358,
      "duration": 0.0161,
      "velocity": 115,
      "chip": "ym2612"
    },
    {
      "channel": 4,
      "note": 62,
      "start": 44.437,
      "duration": 0.0161,
      "velocity": 120,
      "chip": "ym2612"
    },
    {
      "channel": 3,
      "note": 57,
      "start": 44.4382,
      "duration": 0.0161,
      "velocity": 120,
      "chip": "ym2612"
    },
    {
      "channel": 0,
      "note": 40,
      "start": 44.4519,
      "duration": 0.0161,
      "velocity": 115,
      "chip": "ym2612"
    },
    {
      "channel": 4,
      "note": 62,
      "start": 44.4531,
      "duration": 0.0161,
      "velocity": 120,
      "chip": "ym2612"
    },
    {
      "channel": 3,
      "note": 57,
      "start": 44.4542,
      "duration": 0.0161,
      "velocity": 120,
      "chip": "ym2612"
    },
    {
      "channel": 0,
      "note": 41,
      "start": 44.468,
      "duration": 0.0195,
      "velocity": 115,
      "chip": "ym2612"
    },
    {
      "channel": 4,
      "note": 62,
      "start": 44.4692,
      "duration": 0.0195,
      "velocity": 120,
      "chip": "ym2612"
    },
    {
      "channel": 3,
      "note": 57,
      "start": 44.4703,
      "duration": 0.0199,
      "velocity": 120,
      "chip": "ym2612"
    },
    {
      "channel": 1,
      "note": 78,
      "start": 44.4858,
      "duration": 0.0144,
      "velocity": 124,
      "chip": "ym2612"
    },
    {
      "channel": 0,
      "note": 41,
      "start": 44.4875,
      "duration": 0.0144,
      "velocity": 115,
      "chip": "ym2612"
    },
    {
      "channel": 4,
      "note": 62,
      "start": 44.4887,
      "duration": 0.0144,
      "velocity": 120,
      "chip": "ym2612"
    },
    {
      "channel": 3,
      "note": 57,
      "start": 44.4902,
      "duration": 0.014,
      "velocity": 120,
      "chip": "ym2612"
    },
    {
      "channel": 2,
      "note": 50,
      "start": 44.4918,
      "duration": 0.0137,
      "velocity": 100,
      "chip": "ym2612"
    },
    {
      "channel": 1,
      "note": 76,
      "start": 44.5002,
      "duration": 0.016,
      "velocity": 124,
      "chip": "ym2612"
    },
    {
      "channel": 0,
      "note": 42,
      "start": 44.5019,
      "duration": 0.016,
      "velocity": 115,
      "chip": "ym2612"
    },
    {
      "channel": 4,
      "note": 62,
      "start": 44.5031,
      "duration": 0.016,
      "velocity": 120,
      "chip": "ym2612"
    },
    {
      "channel": 3,
      "note": 57,
      "start": 44.5042,
      "duration": 0.016,
      "velocity": 120,
      "chip": "ym2612"
    },
    {
      "channel": 2,
      "note": 50,
      "start": 44.5055,
      "duration": 0.016,
      "velocity": 100,
      "chip": "ym2612"
    },
    {
      "channel": 1,
      "note": 75,
      "start": 44.5162,
      "duration": 0.0161,
      "velocity": 124,
      "chip": "ym2612"
    },
    {
      "channel": 0,
      "note": 42,
      "start": 44.5179,
      "duration": 0.0161,
      "velocity": 115,
      "chip": "ym2612"
    },
    {
      "channel": 4,
      "note": 62,
      "start": 44.5191,
      "duration": 0.0161,
      "velocity": 120,
      "chip": "ym2612"
    },
    {
      "channel": 3,
      "note": 57,
      "start": 44.5203,
      "duration": 0.0162,
      "velocity": 120,
      "chip": "ym2612"
    },
    {
      "channel": 2,
      "note": 50,
      "start": 44.5214,
      "duration": 0.0161,
      "velocity": 100,
      "chip": "ym2612"
    },
    {
      "channel": 1,
      "note": 74,
      "start": 44.5323,
      "duration": 0.0161,
      "velocity": 124,
      "chip": "ym2612"
    },
    {
      "channel": 0,
      "note": 43,
      "start": 44.534,
      "duration": 0.0162,
      "velocity": 115,
      "chip": "ym2612"
    },
    {
      "channel": 4,
      "note": 62,
      "start": 44.5352,
      "duration": 0.0161,
      "velocity": 120,
      "chip": "ym2612"
    },
    {
      "channel": 3,
      "note": 57,
      "start": 44.5364,
      "duration": 0.0161,
      "velocity": 120,
      "chip": "ym2612"
    },
    {
      "channel": 2,
      "note": 50,
      "start": 44.5375,
      "duration": 0.0161,
      "velocity": 100,
      "chip": "ym2612"
    },
    {
      "channel": 1,
      "note": 72,
      "start": 44.5484,
      "duration": 0.0161,
      "velocity": 124,
      "chip": "ym2612"
    },
    {
      "channel": 0,
      "note": 43,
      "start": 44.5502,
      "duration": 0.0161,
      "velocity": 115,
      "chip": "ym2612"
    },
    {
      "channel": 4,
      "note": 62,
      "start": 44.5514,
      "duration": 0.016,
      "velocity": 120,
      "chip": "ym2612"
    },
    {
      "channel": 3,
      "note": 57,
      "start": 44.5525,
      "duration": 0.0161,
      "velocity": 120,
      "chip": "ym2612"
    },
    {
      "channel": 2,
      "note": 50,
      "start": 44.5537,
      "duration": 0.016,
      "velocity": 100,
      "chip": "ym2612"
    },
    {
      "channel": 1,
      "note": 71,
      "start": 44.5645,
      "duration": 0.0162,
      "velocity": 124,
      "chip": "ym2612"
    },
    {
      "channel": 0,
      "note": 44,
      "start": 44.5663,
      "duration": 0.0161,
      "velocity": 115,
      "chip": "ym2612"
    },
    {
      "channel": 4,
      "note": 62,
      "start": 44.5674,
      "duration": 0.0162,
      "velocity": 120,
      "chip": "ym2612"
    },
    {
      "channel": 3,
      "note": 57,
      "start": 44.5686,
      "duration": 0.0161,
      "velocity": 120,
      "chip": "ym2612"
    },
    {
      "channel": 2,
      "note": 50,
      "start": 44.5697,
      "duration": 0.0162,
      "velocity": 100,
      "chip": "ym2612"
    },
    {
      "channel": 1,
      "note": 70,
      "start": 44.5807,
      "duration": 0.0161,
      "velocity": 124,
      "chip": "ym2612"
    },
    {
      "channel": 0,
      "note": 44,
      "start": 44.5824,
      "duration": 0.0161,
      "velocity": 115,
      "chip": "ym2612"
    },
    {
      "channel": 4,
      "note": 62,
      "start": 44.5836,
      "duration": 0.0161,
      "velocity": 120,
      "chip": "ym2612"
    },
    {
      "channel": 3,
      "note": 57,
      "start": 44.5847,
      "duration": 0.0161,
      "velocity": 120,
      "chip": "ym2612"
    },
    {
      "channel": 2,
      "note": 50,
      "start": 44.5859,
      "duration": 0.0161,
      "velocity": 100,
      "chip": "ym2612"
    },
    {
      "channel": 1,
      "note": 69,
      "start": 44.5967,
      "duration": 0.0161,
      "velocity": 124,
      "chip": "ym2612"
    },
    {
      "channel": 0,
      "note": 44,
      "start": 44.5985,
      "duration": 0.0161,
      "velocity": 115,
      "chip": "ym2612"
    },
    {
      "channel": 4,
      "note": 62,
      "start": 44.5997,
      "duration": 0.0161,
      "velocity": 120,
      "chip": "ym2612"
    },
    {
      "channel": 3,
      "note": 57,
      "start": 44.6008,
      "duration": 0.0161,
      "velocity": 120,
      "chip": "ym2612"
    },
    {
      "channel": 1,
      "note": 68,
      "start": 44.6128,
      "duration": 0.0161,
      "velocity": 124,
      "chip": "ym2612"
    },
    {
      "channel": 0,
      "note": 45,
      "start": 44.6146,
      "duration": 0.0161,
      "velocity": 115,
      "chip": "ym2612"
    },
    {
      "channel": 4,
      "note": 62,
      "start": 44.6158,
      "duration": 0.0161,
      "velocity": 120,
      "chip": "ym2612"
    },
    {
      "channel": 3,
      "note": 57,
      "start": 44.6169,
      "duration": 0.0161,
      "velocity": 120,
      "chip": "ym2612"
    },
    {
      "channel": 1,
      "note": 66,
      "start": 44.6289,
      "duration": 0.0161,
      "velocity": 124,
      "chip": "ym2612"
    },
    {
      "channel": 0,
      "note": 45,
      "start": 44.6307,
      "duration": 0.0161,
      "velocity": 115,
      "chip": "ym2612"
    },
    {
      "channel": 4,
      "note": 62,
      "start": 44.6319,
      "duration": 0.0161,
      "velocity": 120,
      "chip": "ym2612"
    },
    {
      "channel": 3,
      "note": 57,
      "start": 44.633,
      "duration": 0.0161,
      "velocity": 120,
      "chip": "ym2612"
    },
    {
      "channel": 1,
      "note": 65,
      "start": 44.645,
      "duration": 0.0161,
      "velocity": 124,
      "chip": "ym2612"
    },
    {
      "channel": 0,
      "note": 46,
      "start": 44.6467,
      "duration": 0.0161,
      "velocity": 115,
      "chip": "ym2612"
    },
    {
      "channel": 4,
      "note": 62,
      "start": 44.648,
      "duration": 0.0161,
      "velocity": 120,
      "chip": "ym2612"
    },
    {
      "channel": 3,
      "note": 57,
      "start": 44.6491,
      "duration": 0.0161,
      "velocity": 120,
      "chip": "ym2612"
    },
    {
      "channel": 1,
      "note": 64,
      "start": 44.6611,
      "duration": 0.0161,
      "velocity": 124,
      "chip": "ym2612"
    },
    {
      "channel": 0,
      "note": 46,
      "start": 44.6628,
      "duration": 0.0179,
      "velocity": 115,
      "chip": "ym2612"
    },
    {
      "channel": 4,
      "note": 62,
      "start": 44.6641,
      "duration": 0.0179,
      "velocity": 120,
      "chip": "ym2612"
    },
    {
      "channel": 3,
      "note": 57,
      "start": 44.6652,
      "duration": 0.0179,
      "velocity": 120,
      "chip": "ym2612"
    },
    {
      "channel": 1,
      "note": 62,
      "start": 44.6772,
      "duration": 0.0161,
      "velocity": 124,
      "chip": "ym2612"
    },
    {
      "channel": 0,
      "note": 36,
      "start": 44.6807,
      "duration": 0.0144,
      "velocity": 115,
      "chip": "ym2612"
    },
    {
      "channel": 4,
      "note": 62,
      "start": 44.6819,
      "duration": 0.0144,
      "velocity": 120,
      "chip": "ym2612"
    },
    {
      "channel": 3,
      "note": 57,
      "start": 44.6831,
      "duration": 0.0143,
      "velocity": 120,
      "chip": "ym2612"
    },
    {
      "channel": 2,
      "note": 50,
      "start": 44.6846,
      "duration": 0.014,
      "velocity": 100,
      "chip": "ym2612"
    },
    {
      "channel": 1,
      "note": 61,
      "start": 44.6933,
      "duration": 0.0173,
      "velocity": 124,
      "chip": "ym2612"
    },
    {
      "channel": 0,
      "note": 36,
      "start": 44.6951,
      "duration": 0.0172,
      "velocity": 115,
      "chip": "ym2612"
    },
    {
      "channel": 4,
      "note": 62,
      "start": 44.6963,
      "duration": 0.0172,
      "velocity": 120,
      "chip": "ym2612"
    },
    {
      "channel": 3,
      "note": 57,
      "start": 44.6974,
      "duration": 0.0173,
      "velocity": 120,
      "chip": "ym2612"
    },
    {
      "channel": 2,
      "note": 50,
      "start": 44.6987,
      "duration": 0.0172,
      "velocity": 100,
      "chip": "ym2612"
    },
    {
      "channel": 1,
      "note": 60,
      "start": 44.7106,
      "duration": 0.0166,
      "velocity": 124,
      "chip": "ym2612"
    },
    {
      "channel": 0,
      "note": 37,
      "start": 44.7123,
      "duration": 0.0167,
      "velocity": 115,
      "chip": "ym2612"
    },
    {
      "channel": 4,
      "note": 62,
      "start": 44.7135,
      "duration": 0.0166,
      "velocity": 120,
      "chip": "ym2612"
    },
    {
      "channel": 3,
      "note": 57,
      "start": 44.7147,
      "duration": 0.0167,
      "velocity": 120,
      "chip": "ym2612"
    },
    {
      "channel": 2,
      "note": 50,
      "start": 44.7158,
      "duration": 0.0166,
      "velocity": 100,
      "chip": "ym2612"
    },
    {
      "channel": 1,
      "note": 59,
      "start": 44.7272,
      "duration": 0.0163,
      "velocity": 124,
      "chip": "ym2612"
    },
    {
      "channel": 0,
      "note": 37,
      "start": 44.729,
      "duration": 0.0163,
      "velocity": 115,
      "chip": "ym2612"
    },
    {
      "channel": 4,
      "note": 62,
      "start": 44.7301,
      "duration": 0.0163,
      "velocity": 120,
      "chip": "ym2612"
    },
    {
      "channel": 3,
      "note": 57,
      "start": 44.7314,
      "duration": 0.0163,
      "velocity": 120,
      "chip": "ym2612"
    },
    {
      "channel": 2,
      "note": 50,
      "start": 44.7324,
      "duration": 0.0163,
      "velocity": 100,
      "chip": "ym2612"
    },
    {
      "channel": 1,
      "note": 57,
      "start": 44.7436,
      "duration": 0.0145,
      "velocity": 124,
      "chip": "ym2612"
    },
    {
      "channel": 0,
      "note": 38,
      "start": 44.7453,
      "duration": 0.0145,
      "velocity": 115,
      "chip": "ym2612"
    },
    {
      "channel": 4,
      "note": 62,
      "start": 44.7465,
      "duration": 0.0145,
      "velocity": 120,
      "chip": "ym2612"
    },
    {
      "channel": 3,
      "note": 57,
      "start": 44.7476,
      "duration": 0.0145,
      "velocity": 120,
      "chip": "ym2612"
    },
    {
      "channel": 2,
      "note": 50,
      "start": 44.7488,
      "duration": 0.0145,
      "velocity": 100,
      "chip": "ym2612"
    },
    {
      "channel": 1,
      "note": 56,
      "start": 44.7581,
      "duration": 0.0185,
      "velocity": 124,
      "chip": "ym2612"
    },
    {
      "channel": 0,
      "note": 38,
      "start": 44.7598,
      "duration": 0.0185,
      "velocity": 115,
      "chip": "ym2612"
    },
    {
      "channel": 4,
      "note": 62,
      "start": 44.761,
      "duration": 0.0185,
      "velocity": 120,
      "chip": "ym2612"
    },
    {
      "channel": 3,
      "note": 57,
      "start": 44.7621,
      "duration": 0.0185,
      "velocity": 120,
      "chip": "ym2612"
    },
    {
      "channel": 2,
      "note": 50,
      "start": 44.7633,
      "duration": 0.0185,
      "velocity": 100,
      "chip": "ym2612"
    },
    {
      "channel": 1,
      "note": 55,
      "start": 44.7766,
      "duration": 0.0161,
      "velocity": 124,
      "chip": "ym2612"
    },
    {
      "channel": 0,
      "note": 39,
      "start": 44.7783,
      "duration": 0.0161,
      "velocity": 115,
      "chip": "ym2612"
    },
    {
      "channel": 4,
      "note": 62,
      "start": 44.7795,
      "duration": 0.0161,
      "velocity": 120,
      "chip": "ym2612"
    },
    {
      "channel": 3,
      "note": 57,
      "start": 44.7807,
      "duration": 0.0161,
      "velocity": 120,
      "chip": "ym2612"
    },
    {
      "channel": 2,
      "note": 50,
      "start": 44.7818,
      "duration": 0.0161,
      "velocity": 100,
      "chip": "ym2612"
    },
    {
      "channel": 1,
      "note": 53,
      "start": 44.7927,
      "duration": 0.0157,
      "velocity": 124,
      "chip": "ym2612"
    },
    {
      "channel": 0,
      "note": 39,
      "start": 44.7944,
      "duration": 0.0158,
      "velocity": 115,
      "chip": "ym2612"
    },
    {
      "channel": 4,
      "note": 62,
      "start": 44.7956,
      "duration": 0.0158,
      "velocity": 120,
      "chip": "ym2612"
    },
    {
      "channel": 3,
      "note": 57,
      "start": 44.7968,
      "duration": 0.0157,
      "velocity": 120,
      "chip": "ym2612"
    },
    {
      "channel": 1,
      "note": 52,
      "start": 44.8084,
      "duration": 0.0137,
      "velocity": 124,
      "chip": "ym2612"
    },
    {
      "channel": 0,
      "note": 40,
      "start": 44.8102,
      "duration": 0.014,
      "velocity": 115,
      "chip": "ym2612"
    },
    {
      "channel": 4,
      "note": 62,
      "start": 44.8114,
      "duration": 0.014,
      "velocity": 120,
      "chip": "ym2612"
    },
    {
      "channel": 3,
      "note": 57,
      "start": 44.8125,
      "duration": 0.0141,
      "velocity": 120,
      "chip": "ym2612"
    },
    {
      "channel": 1,
      "note": 51,
      "start": 44.8221,
      "duration": 0.0153,
      "velocity": 1,
      "chip": "ym2612"
    },
    {
      "channel": 0,
      "note": 40,
      "start": 44.8242,
      "duration": 0.015,
      "velocity": 115,
      "chip": "ym2612"
    },
    {
      "channel": 4,
      "note": 62,
      "start": 44.8254,
      "duration": 0.0178,
      "velocity": 120,
      "chip": "ym2612"
    },
    {
      "channel": 3,
      "note": 57,
      "start": 44.8266,
      "duration": 0.0177,
      "velocity": 120,
      "chip": "ym2612"
    },
    {
      "channel": 0,
      "note": 40,
      "start": 44.8392,
      "duration": 0.0153,
      "velocity": 115,
      "chip": "ym2612"
    },
    {
      "channel": 4,
      "note": 62,
      "start": 44.8431,
      "duration": 0.0124,
      "velocity": 120,
      "chip": "ym2612"
    },
    {
      "channel": 3,
      "note": 57,
      "start": 44.8443,
      "duration": 0.0153,
      "velocity": 120,
      "chip": "ym2612"
    },
    {
      "channel": 0,
      "note": 41,
      "start": 44.8544,
      "duration": 0.0178,
      "velocity": 115,
      "chip": "ym2612"
    },
    {
      "channel": 4,
      "note": 62,
      "start": 44.8556,
      "duration": 0.0205,
      "velocity": 120,
      "chip": "ym2612"
    },
    {
      "channel": 3,
      "note": 57,
      "start": 44.8595,
      "duration": 0.018,
      "velocity": 120,
      "chip": "ym2612"
    },
    {
      "channel": 0,
      "note": 36,
      "start": 44.8723,
      "duration": 0.0144,
      "velocity": 115,
      "chip": "ym2612"
    },
    {
      "channel": 4,
      "note": 65,
      "start": 44.8761,
      "duration": 0.0118,
      "velocity": 120,
      "chip": "ym2612"
    },
    {
      "channel": 3,
      "note": 60,
      "start": 44.8775,
      "duration": 0.0116,
      "velocity": 120,
      "chip": "ym2612"
    },
    {
      "channel": 2,
      "note": 50,
      "start": 44.8791,
      "duration": 0.0116,
      "velocity": 100,
      "chip": "ym2612"
    },
    {
      "channel": 1,
      "note": 38,
      "start": 44.8807,
      "duration": 0.0111,
      "velocity": 100,
      "chip": "ym2612"
    },
    {
      "channel": 0,
      "note": 36,
      "start": 44.8867,
      "duration": 0.016,
      "velocity": 115,
      "chip": "ym2612"
    },
    {
      "channel": 4,
      "note": 65,
      "start": 44.8879,
      "duration": 0.016,
      "velocity": 120,
      "chip": "ym2612"
    },
    {
      "channel": 3,
      "note": 60,
      "start": 44.8891,
      "duration": 0.0159,
      "velocity": 120,
      "chip": "ym2612"
    },
    {
      "channel": 2,
      "note": 50,
      "start": 44.8906,
      "duration": 0.0183,
      "velocity": 100,
      "chip": "ym2612"
    },
    {
      "channel": 1,
      "note": 38,
      "start": 44.8918,
      "duration": 0.0183,
      "velocity": 100,
      "chip": "ym2612"
    },
    {
      "channel": 0,
      "note": 37,
      "start": 44.9027,
      "duration": 0.0161,
      "velocity": 115,
      "chip": "ym2612"
    },
    {
      "channel": 4,
      "note": 65,
      "start": 44.9039,
      "duration": 0.0161,
      "velocity": 120,
      "chip": "ym2612"
    },
    {
      "channel": 3,
      "note": 60,
      "start": 44.905,
      "duration": 0.0161,
      "velocity": 120,
      "chip": "ym2612"
    },
    {
      "channel": 2,
      "note": 50,
      "start": 44.9089,
      "duration": 0.0134,
      "velocity": 100,
      "chip": "ym2612"
    },
    {
      "channel": 1,
      "note": 38,
      "start": 44.91,
      "duration": 0.0161,
      "velocity": 100,
      "chip": "ym2612"
    },
    {
      "channel": 0,
      "note": 37,
      "start": 44.9188,
      "duration": 0.0161,
      "velocity": 115,
      "chip": "ym2612"
    },
    {
      "channel": 4,
      "note": 65,
      "start": 44.92,
      "duration": 0.0161,
      "velocity": 120,
      "chip": "ym2612"
    },
    {
      "channel": 3,
      "note": 60,
      "start": 44.9211,
      "duration": 0.0161,
      "velocity": 120,
      "chip": "ym2612"
    },
    {
      "channel": 2,
      "note": 50,
      "start": 44.9222,
      "duration": 0.0161,
      "velocity": 100,
      "chip": "ym2612"
    },
    {
      "channel": 1,
      "note": 38,
      "start": 44.9261,
      "duration": 0.0157,
      "velocity": 100,
      "chip": "ym2612"
    },
    {
      "channel": 0,
      "note": 38,
      "start": 44.9349,
      "duration": 0.0161,
      "velocity": 115,
      "chip": "ym2612"
    },
    {
      "channel": 4,
      "note": 65,
      "start": 44.9361,
      "duration": 0.0162,
      "velocity": 120,
      "chip": "ym2612"
    },
    {
      "channel": 3,
      "note": 60,
      "start": 44.9372,
      "duration": 0.0161,
      "velocity": 120,
      "chip": "ym2612"
    },
    {
      "channel": 2,
      "note": 50,
      "start": 44.9383,
      "duration": 0.0162,
      "velocity": 100,
      "chip": "ym2612"
    },
    {
      "channel": 1,
      "note": 38,
      "start": 44.9418,
      "duration": 0.0137,
      "velocity": 100,
      "chip": "ym2612"
    },
    {
      "channel": 0,
      "note": 38,
      "start": 44.951,
      "duration": 0.0161,
      "velocity": 115,
      "chip": "ym2612"
    },
    {
      "channel": 4,
      "note": 65,
      "start": 44.9522,
      "duration": 0.0161,
      "velocity": 120,
      "chip": "ym2612"
    },
    {
      "channel": 3,
      "note": 60,
      "start": 44.9534,
      "duration": 0.0161,
      "velocity": 120,
      "chip": "ym2612"
    },
    {
      "channel": 2,
      "note": 50,
      "start": 44.9545,
      "duration": 0.0161,
      "velocity": 100,
      "chip": "ym2612"
    },
    {
      "channel": 1,
      "note": 38,
      "start": 44.9556,
      "duration": 0.0161,
      "velocity": 100,
      "chip": "ym2612"
    },
    {
      "channel": 0,
      "note": 39,
      "start": 44.9671,
      "duration": 0.0161,
      "velocity": 115,
      "chip": "ym2612"
    },
    {
      "channel": 4,
      "note": 65,
      "start": 44.9683,
      "duration": 0.0161,
      "velocity": 120,
      "chip": "ym2612"
    },
    {
      "channel": 3,
      "note": 60,
      "start": 44.9695,
      "duration": 0.0161,
      "velocity": 120,
      "chip": "ym2612"
    },
    {
      "channel": 2,
      "note": 50,
      "start": 44.9706,
      "duration": 0.0161,
      "velocity": 100,
      "chip": "ym2612"
    },
    {
      "channel": 1,
      "note": 38,
      "start": 44.9717,
      "duration": 0.0162,
      "velocity": 100,
      "chip": "ym2612"
    },
    {
      "channel": 0,
      "note": 39,
      "start": 44.9832,
      "duration": 0.0161,
      "velocity": 115,
      "chip": "ym2612"
    },
    {
      "channel": 4,
      "note": 65,
      "start": 44.9844,
      "duration": 0.0161,
      "velocity": 120,
      "chip": "ym2612"
    },
    {
      "channel": 3,
      "note": 60,
      "start": 44.9856,
      "duration": 0.0161,
      "velocity": 120,
      "chip": "ym2612"
    },
    {
      "channel": 0,
      "note": 40,
      "start": 44.9993,
      "duration": 0.0161,
      "velocity": 115,
      "chip": "ym2612"
    },
    {
      "channel": 4,
      "note": 65,
      "start": 45.0005,
      "duration": 0.0161,
      "velocity": 120,
      "chip": "ym2612"
    },
    {
      "channel": 3,
      "note": 60,
      "start": 45.0016,
      "duration": 0.0161,
      "velocity": 120,
      "chip": "ym2612"
    },
    {
      "channel": 0,
      "note": 40,
      "start": 45.0154,
      "duration": 0.0161,
      "velocity": 115,
      "chip": "ym2612"
    },
    {
      "channel": 4,
      "note": 65,
      "start": 45.0166,
      "duration": 0.0161,
      "velocity": 120,
      "chip": "ym2612"
    },
    {
      "channel": 3,
      "note": 60,
      "start": 45.0177,
      "duration": 0.0161,
      "velocity": 120,
      "chip": "ym2612"
    },
    {
      "channel": 0,
      "note": 40,
      "start": 45.0315,
      "duration": 0.0161,
      "velocity": 115,
      "chip": "ym2612"
    },
    {
      "channel": 4,
      "note": 65,
      "start": 45.0327,
      "duration": 0.0161,
      "velocity": 120,
      "chip": "ym2612"
    },
    {
      "channel": 3,
      "note": 60,
      "start": 45.0338,
      "duration": 0.0161,
      "velocity": 120,
      "chip": "ym2612"
    },
    {
      "channel": 0,
      "note": 41,
      "start": 45.0476,
      "duration": 0.0161,
      "velocity": 115,
      "chip": "ym2612"
    },
    {
      "channel": 4,
      "note": 65,
      "start": 45.0488,
      "duration": 0.0162,
      "velocity": 120,
      "chip": "ym2612"
    },
    {
      "channel": 3,
      "note": 60,
      "start": 45.0499,
      "duration": 0.0161,
      "velocity": 120,
      "chip": "ym2612"
    },
    {
      "channel": 0,
      "note": 41,
      "start": 45.0637,
      "duration": 0.0161,
      "velocity": 115,
      "chip": "ym2612"
    },
    {
      "channel": 4,
      "note": 65,
      "start": 45.0649,
      "duration": 0.0161,
      "velocity": 120,
      "chip": "ym2612"
    },
    {
      "channel": 3,
      "note": 60,
      "start": 45.0661,
      "duration": 0.0161,
      "velocity": 120,
      "chip": "ym2612"
    },
    {
      "channel": 2,
      "note": 50,
      "start": 45.0676,
      "duration": 0.0158,
      "velocity": 100,
      "chip": "ym2612"
    },
    {
      "channel": 1,
      "note": 38,
      "start": 45.0691,
      "duration": 0.0155,
      "velocity": 100,
      "chip": "ym2612"
    },
    {
      "channel": 0,
      "note": 42,
      "start": 45.0798,
      "duration": 0.0161,
      "velocity": 115,
      "chip": "ym2612"
    },
    {
      "channel": 4,
      "note": 65,
      "start": 45.081,
      "duration": 0.0161,
      "velocity": 120,
      "chip": "ym2612"
    },
    {
      "channel": 3,
      "note": 60,
      "start": 45.0822,
      "duration": 0.0161,
      "velocity": 120,
      "chip": "ym2612"
    },
    {
      "channel": 2,
      "note": 50,
      "start": 45.0834,
      "duration": 0.016,
      "velocity": 100,
      "chip": "ym2612"
    },
    {
      "channel": 1,
      "note": 38,
      "start": 45.0846,
      "duration": 0.016,
      "velocity": 100,
      "chip": "ym2612"
    },
    {
      "channel": 0,
      "note": 42,
      "start": 45.0959,
      "duration": 0.0161,
      "velocity": 115,
      "chip": "ym2612"
    },
    {
      "channel": 4,
      "note": 65,
      "start": 45.0971,
      "duration": 0.0161,
      "velocity": 120,
      "chip": "ym2612"
    },
    {
      "channel": 3,
      "note": 60,
      "start": 45.0983,
      "duration": 0.0161,
      "velocity": 120,
      "chip": "ym2612"
    },
    {
      "channel": 2,
      "note": 50,
      "start": 45.0994,
      "duration": 0.0161,
      "velocity": 100,
      "chip": "ym2612"
    },
    {
      "channel": 1,
      "note": 38,
      "start": 45.1006,
      "duration": 0.0161,
      "velocity": 100,
      "chip": "ym2612"
    },
    {
      "channel": 0,
      "note": 43,
      "start": 45.112,
      "duration": 0.0161,
      "velocity": 115,
      "chip": "ym2612"
    },
    {
      "channel": 4,
      "note": 65,
      "start": 45.1132,
      "duration": 0.0161,
      "velocity": 120,
      "chip": "ym2612"
    },
    {
      "channel": 3,
      "note": 60,
      "start": 45.1144,
      "duration": 0.0161,
      "velocity": 120,
      "chip": "ym2612"
    },
    {
      "channel": 2,
      "note": 50,
      "start": 45.1155,
      "duration": 0.0161,
      "velocity": 100,
      "chip": "ym2612"
    },
    {
      "channel": 1,
      "note": 38,
      "start": 45.1167,
      "duration": 0.0161,
      "velocity": 100,
      "chip": "ym2612"
    },
    {
      "channel": 0,
      "note": 43,
      "start": 45.1281,
      "duration": 0.0162,
      "velocity": 115,
      "chip": "ym2612"
    },
    {
      "channel": 4,
      "note": 65,
      "start": 45.1293,
      "duration": 0.0161,
      "velocity": 120,
      "chip": "ym2612"
    },
    {
      "channel": 3,
      "note": 60,
      "start": 45.1305,
      "duration": 0.0162,
      "velocity": 120,
      "chip": "ym2612"
    },
    {
      "channel": 2,
      "note": 50,
      "start": 45.1316,
      "duration": 0.0161,
      "velocity": 100,
      "chip": "ym2612"
    },
    {
      "channel": 1,
      "note": 38,
      "start": 45.1327,
      "duration": 0.0161,
      "velocity": 100,
      "chip": "ym2612"
    },
    {
      "channel": 0,
      "note": 44,
      "start": 45.1443,
      "duration": 0.0161,
      "velocity": 115,
      "chip": "ym2612"
    },
    {
      "channel": 4,
      "note": 65,
      "start": 45.1454,
      "duration": 0.0161,
      "velocity": 120,
      "chip": "ym2612"
    },
    {
      "channel": 3,
      "note": 60,
      "start": 45.1466,
      "duration": 0.0161,
      "velocity": 120,
      "chip": "ym2612"
    },
    {
      "channel": 2,
      "note": 50,
      "start": 45.1477,
      "duration": 0.0161,
      "velocity": 100,
      "chip": "ym2612"
    },
    {
      "channel": 1,
      "note": 38,
      "start": 45.1488,
      "duration": 0.0161,
      "velocity": 100,
      "chip": "ym2612"
    },
    {
      "channel": 0,
      "note": 44,
      "start": 45.1604,
      "duration": 0.017,
      "velocity": 115,
      "chip": "ym2612"
    },
    {
      "channel": 4,
      "note": 65,
      "start": 45.1616,
      "duration": 0.0169,
      "velocity": 120,
      "chip": "ym2612"
    },
    {
      "channel": 3,
      "note": 60,
      "start": 45.1627,
      "duration": 0.017,
      "velocity": 120,
      "chip": "ym2612"
    },
    {
      "channel": 2,
      "note": 50,
      "start": 45.1639,
      "duration": 0.017,
      "velocity": 100,
      "chip": "ym2612"
    },
    {
      "channel": 1,
      "note": 38,
      "start": 45.1649,
      "duration": 0.0171,
      "velocity": 100,
      "chip": "ym2612"
    },
    {
      "channel": 0,
      "note": 44,
      "start": 45.1773,
      "duration": 0.0167,
      "velocity": 115,
      "chip": "ym2612"
    },
    {
      "channel": 4,
      "note": 65,
      "start": 45.1785,
      "duration": 0.0167,
      "velocity": 120,
      "chip": "ym2612"
    },
    {
      "channel": 3,
      "note": 60,
      "start": 45.1797,
      "duration": 0.0167,
      "velocity": 120,
      "chip": "ym2612"
    },
    {
      "channel": 0,
      "note": 45,
      "start": 45.194,
      "duration": 0.0163,
      "velocity": 115,
      "chip": "ym2612"
    },
    {
      "channel": 4,
      "note": 65,
      "start": 45.1952,
      "duration": 0.0163,
      "velocity": 120,
      "chip": "ym2612"
    },
    {
      "channel": 3,
      "note": 60,
      "start": 45.1964,
      "duration": 0.0163,
      "velocity": 120,
      "chip": "ym2612"
    },
    {
      "channel": 0,
      "note": 45,
      "start": 45.2103,
      "duration": 0.0146,
      "velocity": 115,
      "chip": "ym2612"
    },
    {
      "channel": 4,
      "note": 65,
      "start": 45.2115,
      "duration": 0.0146,
      "velocity": 120,
      "chip": "ym2612"
    },
    {
      "channel": 3,
      "note": 60,
      "start": 45.2127,
      "duration": 0.0146,
      "velocity": 120,
      "chip": "ym2612"
    },
    {
      "channel": 0,
      "note": 46,
      "start": 45.2249,
      "duration": 0.0186,
      "velocity": 115,
      "chip": "ym2612"
    },
    {
      "channel": 4,
      "note": 65,
      "start": 45.2261,
      "duration": 0.0186,
      "velocity": 120,
      "chip": "ym2612"
    },
    {
      "channel": 3,
      "note": 60,
      "start": 45.2273,
      "duration": 0.0186,
      "velocity": 120,
      "chip": "ym2612"
    },
    {
      "channel": 0,
      "note": 46,
      "start": 45.2436,
      "duration": 0.0196,
      "velocity": 115,
      "chip": "ym2612"
    },
    {
      "channel": 4,
      "note": 65,
      "start": 45.2448,
      "duration": 0.0195,
      "velocity": 120,
      "chip": "ym2612"
    },
    {
      "channel": 3,
      "note": 60,
      "start": 45.2459,
      "duration": 0.0196,
      "velocity": 120,
      "chip": "ym2612"
    },
    {
      "channel": 1,
      "note": 78,
      "start": 45.2614,
      "duration": 0.0141,
      "velocity": 124,
      "chip": "ym2612"
    },
    {
      "channel": 0,
      "note": 47,
      "start": 45.2632,
      "duration": 0.014,
      "velocity": 115,
      "chip": "ym2612"
    },
    {
      "channel": 4,
      "note": 65,
      "start": 45.2643,
      "duration": 0.0141,
      "velocity": 120,
      "chip": "ym2612"
    },
    {
      "channel": 3,
      "note": 60,
      "start": 45.2655,
      "duration": 0.014,
      "velocity": 120,
      "chip": "ym2612"
    },
    {
      "channel": 2,
      "note": 50,
      "start": 45.267,
      "duration": 0.0137,
      "velocity": 100,
      "chip": "ym2612"
    },
    {
      "channel": 1,
      "note": 76,
      "start": 45.2754,
      "duration": 0.0136,
      "velocity": 124,
      "chip": "ym2612"
    },
    {
      "channel": 0,
      "note": 47,
      "start": 45.2771,
      "duration": 0.014,
      "velocity": 115,
      "chip": "ym2612"
    },
    {
      "channel": 4,
      "note": 65,
      "start": 45.2784,
      "duration": 0.0139,
      "velocity": 120,
      "chip": "ym2612"
    },
    {
      "channel": 3,
      "note": 60,
      "start": 45.2795,
      "duration": 0.014,
      "velocity": 120,
      "chip": "ym2612"
    },
    {
      "channel": 2,
      "note": 50,
      "start": 45.2807,
      "duration": 0.0139,
      "velocity": 100,
      "chip": "ym2612"
    },
    {
      "channel": 1,
      "note": 75,
      "start": 45.289,
      "duration": 0.0161,
      "velocity": 124,
      "chip": "ym2612"
    },
    {
      "channel": 0,
      "note": 47,
      "start": 45.2912,
      "duration": 0.0185,
      "velocity": 115,
      "chip": "ym2612"
    },
    {
      "channel": 4,
      "note": 65,
      "start": 45.2923,
      "duration": 0.0186,
      "velocity": 120,
      "chip": "ym2612"
    },
    {
      "channel": 3,
      "note": 60,
      "start": 45.2935,
      "duration": 0.0185,
      "velocity": 120,
      "chip": "ym2612"
    },
    {
      "channel": 2,
      "note": 50,
      "start": 45.2946,
      "duration": 0.0186,
      "velocity": 100,
      "chip": "ym2612"
    },
    {
      "channel": 1,
      "note": 74,
      "start": 45.3051,
      "duration": 0.0161,
      "velocity": 124,
      "chip": "ym2612"
    },
    {
      "channel": 0,
      "note": 48,
      "start": 45.3097,
      "duration": 0.0161,
      "velocity": 115,
      "chip": "ym2612"
    },
    {
      "channel": 4,
      "note": 65,
      "start": 45.3109,
      "duration": 0.0161,
      "velocity": 120,
      "chip": "ym2612"
    },
    {
      "channel": 3,
      "note": 60,
      "start": 45.312,
      "duration": 0.0161,
      "velocity": 120,
      "chip": "ym2612"
    },
    {
      "channel": 2,
      "note": 50,
      "start": 45.3132,
      "duration": 0.0162,
      "velocity": 100,
      "chip": "ym2612"
    },
    {
      "channel": 1,
      "note": 72,
      "start": 45.3213,
      "duration": 0.0161,
      "velocity": 124,
      "chip": "ym2612"
    },
    {
      "channel": 0,
      "note": 48,
      "start": 45.3258,
      "duration": 0.0134,
      "velocity": 115,
      "chip": "ym2612"
    },
    {
      "channel": 4,
      "note": 65,
      "start": 45.327,
      "duration": 0.0157,
      "velocity": 120,
      "chip": "ym2612"
    },
    {
      "channel": 3,
      "note": 60,
      "start": 45.3282,
      "duration": 0.0157,
      "velocity": 120,
      "chip": "ym2612"
    },
    {
      "channel": 2,
      "note": 50,
      "start": 45.3293,
      "duration": 0.0156,
      "velocity": 100,
      "chip": "ym2612"
    },
    {
      "channel": 1,
      "note": 71,
      "start": 45.3374,
      "duration": 0.0161,
      "velocity": 124,
      "chip": "ym2612"
    },
    {
      "channel": 0,
      "note": 49,
      "start": 45.3391,
      "duration": 0.0153,
      "velocity": 1,
      "chip": "ym2612"
    },
    {
      "channel": 4,
      "note": 65,
      "start": 45.3427,
      "duration": 0.0129,
      "velocity": 120,
      "chip": "ym2612"
    },
    {
      "channel": 3,
      "note": 60,
      "start": 45.3439,
      "duration": 0.0132,
      "velocity": 120,
      "chip": "ym2612"
    },
    {
      "channel": 2,
      "note": 50,
      "start": 45.345,
      "duration": 0.0133,
      "velocity": 100,
      "chip": "ym2612"
    },
    {
      "channel": 1,
      "note": 70,
      "start": 45.3535,
      "duration": 0.0161,
      "velocity": 124,
      "chip": "ym2612"
    },
    {
      "channel": 4,
      "note": 65,
      "start": 45.3556,
      "duration": 0.0153,
      "velocity": 120,
      "chip": "ym2612"
    },
    {
      "channel": 3,
      "note": 60,
      "start": 45.3571,
      "duration": 0.0149,
      "velocity": 120,
      "chip": "ym2612"
    },
    {
      "channel": 2,
      "note": 50,
      "start": 45.3583,
      "duration": 0.0176,
      "velocity": 100,
      "chip": "ym2612"
    },
    {
      "channel": 1,
      "note": 69,
      "start": 45.3696,
      "duration": 0.0161,
      "velocity": 124,
      "chip": "ym2612"
    },
    {
      "channel": 4,
      "note": 65,
      "start": 45.3709,
      "duration": 0.0161,
      "velocity": 120,
      "chip": "ym2612"
    },
    {
      "channel": 3,
      "note": 60,
      "start": 45.372,
      "duration": 0.0161,
      "velocity": 120,
      "chip": "ym2612"
    },
    {
      "channel": 1,
      "note": 68,
      "start": 45.3857,
      "duration": 0.0161,
      "velocity": 124,
      "chip": "ym2612"
    },
    {
      "channel": 4,
      "note": 65,
      "start": 45.3869,
      "duration": 0.0161,
      "velocity": 120,
      "chip": "ym2612"
    },
    {
      "channel": 3,
      "note": 60,
      "start": 45.3881,
      "duration": 0.0161,
      "velocity": 120,
      "chip": "ym2612"
    },
    {
      "channel": 1,
      "note": 66,
      "start": 45.4018,
      "duration": 0.0161,
      "velocity": 124,
      "chip": "ym2612"
    },
    {
      "channel": 4,
      "note": 65,
      "start": 45.403,
      "duration": 0.0161,
      "velocity": 120,
      "chip": "ym2612"
    },
    {
      "channel": 3,
      "note": 60,
      "start": 45.4042,
      "duration": 0.0161,
      "velocity": 120,
      "chip": "ym2612"
    },
    {
      "channel": 1,
      "note": 65,
      "start": 45.4179,
      "duration": 0.0161,
      "velocity": 124,
      "chip": "ym2612"
    },
    {
      "channel": 4,
      "note": 65,
      "start": 45.4191,
      "duration": 0.0161,
      "velocity": 120,
      "chip": "ym2612"
    },
    {
      "channel": 3,
      "note": 60,
      "start": 45.4203,
      "duration": 0.0161,
      "velocity": 120,
      "chip": "ym2612"
    },
    {
      "channel": 1,
      "note": 64,
      "start": 45.434,
      "duration": 0.0161,
      "velocity": 124,
      "chip": "ym2612"
    },
    {
      "channel": 4,
      "note": 65,
      "start": 45.4352,
      "duration": 0.0161,
      "velocity": 120,
      "chip": "ym2612"
    },
    {
      "channel": 3,
      "note": 60,
      "start": 45.4364,
      "duration": 0.0161,
      "velocity": 120,
      "chip": "ym2612"
    },
    {
      "channel": 1,
      "note": 62,
      "start": 45.4501,
      "duration": 0.0161,
      "velocity": 124,
      "chip": "ym2612"
    },
    {
      "channel": 4,
      "note": 65,
      "start": 45.4514,
      "duration": 0.0161,
      "velocity": 120,
      "chip": "ym2612"
    },
    {
      "channel": 3,
      "note": 60,
      "start": 45.4525,
      "duration": 0.0161,
      "velocity": 120,
      "chip": "ym2612"
    },
    {
      "channel": 2,
      "note": 50,
      "start": 45.4541,
      "duration": 0.0158,
      "velocity": 100,
      "chip": "ym2612"
    },
    {
      "channel": 1,
      "note": 61,
      "start": 45.4662,
      "duration": 0.0161,
      "velocity": 124,
      "chip": "ym2612"
    },
    {
      "channel": 4,
      "note": 65,
      "start": 45.4675,
      "duration": 0.0161,
      "velocity": 120,
      "chip": "ym2612"
    },
    {
      "channel": 3,
      "note": 60,
      "start": 45.4686,
      "duration": 0.0161,
      "velocity": 120,
      "chip": "ym2612"
    },
    {
      "channel": 2,
      "note": 50,
      "start": 45.4698,
      "duration": 0.016,
      "velocity": 100,
      "chip": "ym2612"
    },
    {
      "channel": 1,
      "note": 60,
      "start": 45.4823,
      "duration": 0.0161,
      "velocity": 124,
      "chip": "ym2612"
    },
    {
      "channel": 4,
      "note": 65,
      "start": 45.4836,
      "duration": 0.0161,
      "velocity": 120,
      "chip": "ym2612"
    },
    {
      "channel": 3,
      "note": 60,
      "start": 45.4847,
      "duration": 0.0161,
      "velocity": 120,
      "chip": "ym2612"
    },
    {
      "channel": 2,
      "note": 50,
      "start": 45.4859,
      "duration": 0.0161,
      "velocity": 100,
      "chip": "ym2612"
    },
    {
      "channel": 1,
      "note": 59,
      "start": 45.4984,
      "duration": 0.0161,
      "velocity": 124,
      "chip": "ym2612"
    },
    {
      "channel": 4,
      "note": 65,
      "start": 45.4997,
      "duration": 0.0161,
      "velocity": 120,
      "chip": "ym2612"
    },
    {
      "channel": 3,
      "note": 60,
      "start": 45.5008,
      "duration": 0.0161,
      "velocity": 120,
      "chip": "ym2612"
    },
    {
      "channel": 2,
      "note": 50,
      "start": 45.502,
      "duration": 0.0161,
      "velocity": 100,
      "chip": "ym2612"
    },
    {
      "channel": 1,
      "note": 57,
      "start": 45.5145,
      "duration": 0.0161,
      "velocity": 124,
      "chip": "ym2612"
    },
    {
      "channel": 4,
      "note": 65,
      "start": 45.5158,
      "duration": 0.0161,
      "velocity": 120,
      "chip": "ym2612"
    },
    {
      "channel": 3,
      "note": 60,
      "start": 45.5169,
      "duration": 0.0161,
      "velocity": 120,
      "chip": "ym2612"
    },
    {
      "channel": 2,
      "note": 50,
      "start": 45.518,
      "duration": 0.0161,
      "velocity": 100,
      "chip": "ym2612"
    },
    {
      "channel": 1,
      "note": 56,
      "start": 45.5306,
      "duration": 0.0161,
      "velocity": 124,
      "chip": "ym2612"
    },
    {
      "channel": 4,
      "note": 65,
      "start": 45.5319,
      "duration": 0.0161,
      "velocity": 120,
      "chip": "ym2612"
    },
    {
      "channel": 3,
      "note": 60,
      "start": 45.533,
      "duration": 0.0161,
      "velocity": 120,
      "chip": "ym2612"
    },
    {
      "channel": 2,
      "note": 50,
      "start": 45.5341,
      "duration": 0.0161,
      "velocity": 100,
      "chip": "ym2612"
    },
    {
      "channel": 1,
      "note": 55,
      "start": 45.5467,
      "duration": 0.0161,
      "velocity": 124,
      "chip": "ym2612"
    },
    {
      "channel": 4,
      "note": 65,
      "start": 45.548,
      "duration": 0.0161,
      "velocity": 120,
      "chip": "ym2612"
    },
    {
      "channel": 3,
      "note": 60,
      "start": 45.5491,
      "duration": 0.0162,
      "velocity": 120,
      "chip": "ym2612"
    },
    {
      "channel": 2,
      "note": 50,
      "start": 45.5502,
      "duration": 0.0161,
      "velocity": 100,
      "chip": "ym2612"
    },
    {
      "channel": 1,
      "note": 53,
      "start": 45.5628,
      "duration": 0.0161,
      "velocity": 124,
      "chip": "ym2612"
    },
    {
      "channel": 4,
      "note": 65,
      "start": 45.5641,
      "duration": 0.0161,
      "velocity": 120,
      "chip": "ym2612"
    },
    {
      "channel": 3,
      "note": 60,
      "start": 45.5653,
      "duration": 0.0161,
      "velocity": 120,
      "chip": "ym2612"
    },
    {
      "channel": 1,
      "note": 52,
      "start": 45.5789,
      "duration": 0.0161,
      "velocity": 124,
      "chip": "ym2612"
    },
    {
      "channel": 4,
      "note": 65,
      "start": 45.5802,
      "duration": 0.016,
      "velocity": 120,
      "chip": "ym2612"
    },
    {
      "channel": 3,
      "note": 60,
      "start": 45.5814,
      "duration": 0.0161,
      "velocity": 120,
      "chip": "ym2612"
    },
    {
      "channel": 1,
      "note": 51,
      "start": 45.595,
      "duration": 0.0153,
      "velocity": 1,
      "chip": "ym2612"
    },
    {
      "channel": 4,
      "note": 65,
      "start": 45.5962,
      "duration": 0.0153,
      "velocity": 120,
      "chip": "ym2612"
    },
    {
      "channel": 3,
      "note": 60,
      "start": 45.5974,
      "duration": 0.0153,
      "velocity": 120,
      "chip": "ym2612"
    },
    {
      "channel": 4,
      "note": 65,
      "start": 45.6116,
      "duration": 0.0153,
      "velocity": 120,
      "chip": "ym2612"
    },
    {
      "channel": 3,
      "note": 60,
      "start": 45.6127,
      "duration": 0.0153,
      "velocity": 120,
      "chip": "ym2612"
    },
    {
      "channel": 4,
      "note": 65,
      "start": 45.6268,
      "duration": 0.0202,
      "velocity": 120,
      "chip": "ym2612"
    },
    {
      "channel": 3,
      "note": 60,
      "start": 45.628,
      "duration": 0.0202,
      "velocity": 120,
      "chip": "ym2612"
    },
    {
      "channel": 0,
      "note": 36,
      "start": 45.6458,
      "duration": 0.015,
      "velocity": 115,
      "chip": "ym2612"
    },
    {
      "channel": 4,
      "note": 65,
      "start": 45.647,
      "duration": 0.0149,
      "velocity": 120,
      "chip": "ym2612"
    },
    {
      "channel": 3,
      "note": 60,
      "start": 45.6481,
      "duration": 0.0149,
      "velocity": 120,
      "chip": "ym2612"
    },
    {
      "channel": 2,
      "note": 50,
      "start": 45.6497,
      "duration": 0.0146,
      "velocity": 100,
      "chip": "ym2612"
    },
    {
      "channel": 1,
      "note": 38,
      "start": 45.6512,
      "duration": 0.0142,
      "velocity": 100,
      "chip": "ym2612"
    },
    {
      "channel": 0,
      "note": 36,
      "start": 45.6607,
      "duration": 0.0162,
      "velocity": 115,
      "chip": "ym2612"
    },
    {
      "channel": 4,
      "note": 65,
      "start": 45.6619,
      "duration": 0.0163,
      "velocity": 120,
      "chip": "ym2612"
    },
    {
      "channel": 3,
      "note": 60,
      "start": 45.6631,
      "duration": 0.0162,
      "velocity": 120,
      "chip": "ym2612"
    },
    {
      "channel": 2,
      "note": 50,
      "start": 45.6642,
      "duration": 0.0162,
      "velocity": 100,
      "chip": "ym2612"
    },
    {
      "channel": 1,
      "note": 38,
      "start": 45.6654,
      "duration": 0.0162,
      "velocity": 100,
      "chip": "ym2612"
    },
    {
      "channel": 0,
      "note": 37,
      "start": 45.677,
      "duration": 0.0147,
      "velocity": 115,
      "chip": "ym2612"
    },
    {
      "channel": 4,
      "note": 65,
      "start": 45.6782,
      "duration": 0.0147,
      "velocity": 120,
      "chip": "ym2612"
    },
    {
      "channel": 3,
      "note": 60,
      "start": 45.6793,
      "duration": 0.0148,
      "velocity": 120,
      "chip": "ym2612"
    },
    {
      "channel": 2,
      "note": 50,
      "start": 45.6805,
      "duration": 0.0147,
      "velocity": 100,
      "chip": "ym2612"
    },
    {
      "channel": 1,
      "note": 38,
      "start": 45.6816,
      "duration": 0.0147,
      "velocity": 100,
      "chip": "ym2612"
    },
    {
      "channel": 0,
      "note": 37,
      "start": 45.6917,
      "duration": 0.0189,
      "velocity": 115,
      "chip": "ym2612"
    },
    {
      "channel": 4,
      "note": 65,
      "start": 45.6929,
      "duration": 0.0189,
      "velocity": 120,
      "chip": "ym2612"
    },
    {
      "channel": 3,
      "note": 60,
      "start": 45.6941,
      "duration": 0.0188,
      "velocity": 120,
      "chip": "ym2612"
    },
    {
      "channel": 2,
      "note": 50,
      "start": 45.6951,
      "duration": 0.0189,
      "velocity": 100,
      "chip": "ym2612"
    },
    {
      "channel": 1,
      "note": 38,
      "start": 45.6963,
      "duration": 0.0189,
      "velocity": 100,
      "chip": "ym2612"
    },
    {
      "channel": 0,
      "note": 38,
      "start": 45.7105,
      "duration": 0.0161,
      "velocity": 115,
      "chip": "ym2612"
    },
    {
      "channel": 4,
      "note": 65,
      "start": 45.7118,
      "duration": 0.0161,
      "velocity": 120,
      "chip": "ym2612"
    },
    {
      "channel": 3,
      "note": 60,
      "start": 45.7129,
      "duration": 0.0161,
      "velocity": 120,
      "chip": "ym2612"
    },
    {
      "channel": 2,
      "note": 50,
      "start": 45.7141,
      "duration": 0.0161,
      "velocity": 100,
      "chip": "ym2612"
    },
    {
      "channel": 1,
      "note": 38,
      "start": 45.7152,
      "duration": 0.016,
      "velocity": 100,
      "chip": "ym2612"
    },
    {
      "channel": 0,
      "note": 38,
      "start": 45.7266,
      "duration": 0.0157,
      "velocity": 115,
      "chip": "ym2612"
    },
    {
      "channel": 4,
      "note": 65,
      "start": 45.7278,
      "duration": 0.0157,
      "velocity": 120,
      "chip": "ym2612"
    },
    {
      "channel": 3,
      "note": 60,
      "start": 45.729,
      "duration": 0.0157,
      "velocity": 120,
      "chip": "ym2612"
    },
    {
      "channel": 2,
      "note": 50,
      "start": 45.7301,
      "duration": 0.0157,
      "velocity": 100,
      "chip": "ym2612"
    },
    {
      "channel": 1,
      "note": 38,
      "start": 45.7312,
      "duration": 0.0158,
      "velocity": 100,
      "chip": "ym2612"
    },
    {
      "channel": 0,
      "note": 39,
      "start": 45.7424,
      "duration": 0.0141,
      "velocity": 115,
      "chip": "ym2612"
    },
    {
      "channel": 4,
      "note": 65,
      "start": 45.7436,
      "duration": 0.0141,
      "velocity": 120,
      "chip": "ym2612"
    },
    {
      "channel": 3,
      "note": 60,
      "start": 45.7447,
      "duration": 0.0141,
      "velocity": 120,
      "chip": "ym2612"
    },
    {
      "channel": 2,
      "note": 50,
      "start": 45.7459,
      "duration": 0.0141,
      "velocity": 100,
      "chip": "ym2612"
    },
    {
      "channel": 1,
      "note": 38,
      "start": 45.747,
      "duration": 0.0141,
      "velocity": 100,
      "chip": "ym2612"
    },
    {
      "channel": 0,
      "note": 39,
      "start": 45.7564,
      "duration": 0.0158,
      "velocity": 115,
      "chip": "ym2612"
    },
    {
      "channel": 4,
      "note": 65,
      "start": 45.7576,
      "duration": 0.0185,
      "velocity": 120,
      "chip": "ym2612"
    },
    {
      "channel": 3,
      "note": 60,
      "start": 45.7588,
      "duration": 0.0185,
      "velocity": 120,
      "chip": "ym2612"
    },
    {
      "channel": 0,
      "note": 40,
      "start": 45.7722,
      "duration": 0.0161,
      "velocity": 115,
      "chip": "ym2612"
    },
    {
      "channel": 4,
      "note": 65,
      "start": 45.7761,
      "duration": 0.0161,
      "velocity": 120,
      "chip": "ym2612"
    },
    {
      "channel": 3,
      "note": 60,
      "start": 45.7773,
      "duration": 0.0161,
      "velocity": 120,
      "chip": "ym2612"
    },
    {
      "channel": 0,
      "note": 40,
      "start": 45.7883,
      "duration": 0.0161,
      "velocity": 115,
      "chip": "ym2612"
    },
    {
      "channel": 4,
      "note": 65,
      "start": 45.7922,
      "duration": 0.0134,
      "velocity": 120,
      "chip": "ym2612"
    },
    {
      "channel": 3,
      "note": 60,
      "start": 45.7934,
      "duration": 0.0158,
      "velocity": 120,
      "chip": "ym2612"
    },
    {
      "channel": 0,
      "note": 40,
      "start": 45.8044,
      "duration": 0.0161,
      "velocity": 115,
      "chip": "ym2612"
    },
    {
      "channel": 4,
      "note": 65,
      "start": 45.8056,
      "duration": 0.0161,
      "velocity": 120,
      "chip": "ym2612"
    },
    {
      "channel": 3,
      "note": 60,
      "start": 45.8091,
      "duration": 0.014,
      "velocity": 120,
      "chip": "ym2612"
    },
    {
      "channel": 0,
      "note": 41,
      "start": 45.8205,
      "duration": 0.0179,
      "velocity": 115,
      "chip": "ym2612"
    },
    {
      "channel": 4,
      "note": 65,
      "start": 45.8217,
      "duration": 0.0207,
      "velocity": 120,
      "chip": "ym2612"
    },
    {
      "channel": 3,
      "note": 60,
      "start": 45.8232,
      "duration": 0.0203,
      "velocity": 120,
      "chip": "ym2612"
    },
    {
      "channel": 0,
      "note": 36,
      "start": 45.8383,
      "duration": 0.0144,
      "velocity": 115,
      "chip": "ym2612"
    },
    {
      "channel": 4,
      "note": 65,
      "start": 45.8424,
      "duration": 0.0116,
      "velocity": 120,
      "chip": "ym2612"
    },
    {
      "channel": 3,
      "note": 60,
      "start": 45.8435,
      "duration": 0.0116,
      "velocity": 120,
      "chip": "ym2612"
    },
    {
      "channel": 2,
      "note": 50,
      "start": 45.845,
      "duration": 0.014,
      "velocity": 100,
      "chip": "ym2612"
    },
    {
      "channel": 1,
      "note": 38,
      "start": 45.8466,
      "duration": 0.0136,
      "velocity": 100,
      "chip": "ym2612"
    },
    {
      "channel": 0,
      "note": 36,
      "start": 45.8527,
      "duration": 0.0161,
      "velocity": 115,
      "chip": "ym2612"
    },
    {
      "channel": 4,
      "note": 65,
      "start": 45.8539,
      "duration": 0.016,
      "velocity": 120,
      "chip": "ym2612"
    },
    {
      "channel": 3,
      "note": 60,
      "start": 45.8551,
      "duration": 0.0161,
      "velocity": 120,
      "chip": "ym2612"
    },
    {
      "channel": 2,
      "note": 50,
      "start": 45.859,
      "duration": 0.0132,
      "velocity": 100,
      "chip": "ym2612"
    },
    {
      "channel": 1,
      "note": 38,
      "start": 45.8602,
      "duration": 0.0156,
      "velocity": 100,
      "chip": "ym2612"
    },
    {
      "channel": 0,
      "note": 37,
      "start": 45.8688,
      "duration": 0.0161,
      "velocity": 115,
      "chip": "ym2612"
    },
    {
      "channel": 4,
      "note": 65,
      "start": 45.87,
      "duration": 0.0161,
      "velocity": 120,
      "chip": "ym2612"
    },
    {
      "channel": 3,
      "note": 60,
      "start": 45.8712,
      "duration": 0.0161,
      "velocity": 120,
      "chip": "ym2612"
    },
    {
      "channel": 2,
      "note": 50,
      "start": 45.8722,
      "duration": 0.0161,
      "velocity": 100,
      "chip": "ym2612"
    },
    {
      "channel": 1,
      "note": 38,
      "start": 45.8758,
      "duration": 0.014,
      "velocity": 100,
      "chip": "ym2612"
    },
    {
      "channel": 0,
      "note": 37,
      "start": 45.8849,
      "duration": 0.0161,
      "velocity": 115,
      "chip": "ym2612"
    },
    {
      "channel": 4,
      "note": 65,
      "start": 45.8861,
      "duration": 0.0162,
      "velocity": 120,
      "chip": "ym2612"
    },
    {
      "channel": 3,
      "note": 60,
      "start": 45.8873,
      "duration": 0.0161,
      "velocity": 120,
      "chip": "ym2612"
    },
    {
      "channel": 2,
      "note": 50,
      "start": 45.8883,
      "duration": 0.0162,
      "velocity": 100,
      "chip": "ym2612"
    },
    {
      "channel": 1,
      "note": 38,
      "start": 45.8898,
      "duration": 0.0158,
      "velocity": 100,
      "chip": "ym2612"
    },
    {
      "channel": 0,
      "note": 38,
      "start": 45.901,
      "duration": 0.0161,
      "velocity": 115,
      "chip": "ym2612"
    },
    {
      "channel": 4,
      "note": 65,
      "start": 45.9022,
      "duration": 0.0161,
      "velocity": 120,
      "chip": "ym2612"
    },
    {
      "channel": 3,
      "note": 60,
      "start": 45.9034,
      "duration": 0.0161,
      "velocity": 120,
      "chip": "ym2612"
    },
    {
      "channel": 2,
      "note": 50,
      "start": 45.9045,
      "duration": 0.0161,
      "velocity": 100,
      "chip": "ym2612"
    },
    {
      "channel": 1,
      "note": 38,
      "start": 45.9056,
      "duration": 0.0162,
      "velocity": 100,
      "chip": "ym2612"
    },
    {
      "channel": 0,
      "note": 38,
      "start": 45.9171,
      "duration": 0.0161,
      "velocity": 115,
      "chip": "ym2612"
    },
    {
      "channel": 4,
      "note": 65,
      "start": 45.9183,
      "duration": 0.0161,
      "velocity": 120,
      "chip": "ym2612"
    },
    {
      "channel": 3,
      "note": 60,
      "start": 45.9195,
      "duration": 0.0161,
      "velocity": 120,
      "chip": "ym2612"
    },
    {
      "channel": 2,
      "note": 50,
      "start": 45.9206,
      "duration": 0.0161,
      "velocity": 100,
      "chip": "ym2612"
    },
    {
      "channel": 1,
      "note": 38,
      "start": 45.9217,
      "duration": 0.0161,
      "velocity": 100,
      "chip": "ym2612"
    },
    {
      "channel": 0,
      "note": 39,
      "start": 45.9332,
      "duration": 0.0161,
      "velocity": 115,
      "chip": "ym2612"
    },
    {
      "channel": 4,
      "note": 65,
      "start": 45.9344,
      "duration": 0.0161,
      "velocity": 120,
      "chip": "ym2612"
    },
    {
      "channel": 3,
      "note": 60,
      "start": 45.9356,
      "duration": 0.0161,
      "velocity": 120,
      "chip": "ym2612"
    },
    {
      "channel": 2,
      "note": 50,
      "start": 45.9367,
      "duration": 0.0161,
      "velocity": 100,
      "chip": "ym2612"
    },
    {
      "channel": 1,
      "note": 38,
      "start": 45.9378,
      "duration": 0.0161,
      "velocity": 100,
      "chip": "ym2612"
    },
    {
      "channel": 0,
      "note": 39,
      "start": 45.9493,
      "duration": 0.0161,
      "velocity": 115,
      "chip": "ym2612"
    },
    {
      "channel": 4,
      "note": 65,
      "start": 45.9505,
      "duration": 0.0161,
      "velocity": 120,
      "chip": "ym2612"
    },
    {
      "channel": 3,
      "note": 60,
      "start": 45.9516,
      "duration": 0.0161,
      "velocity": 120,
      "chip": "ym2612"
    },
    {
      "channel": 0,
      "note": 40,
      "start": 45.9654,
      "duration": 0.0161,
      "velocity": 115,
      "chip": "ym2612"
    },
    {
      "channel": 4,
      "note": 65,
      "start": 45.9666,
      "duration": 0.0161,
      "velocity": 120,
      "chip": "ym2612"
    },
    {
      "channel": 3,
      "note": 60,
      "start": 45.9677,
      "duration": 0.0161,
      "velocity": 120,
      "chip": "ym2612"
    },
    {
      "channel": 0,
      "note": 40,
      "start": 45.9815,
      "duration": 0.0161,
      "velocity": 115,
      "chip": "ym2612"
    },
    {
      "channel": 4,
      "note": 65,
      "start": 45.9827,
      "duration": 0.0161,
      "velocity": 120,
      "chip": "ym2612"
    },
    {
      "channel": 3,
      "note": 60,
      "start": 45.9838,
      "duration": 0.0161,
      "velocity": 120,
      "chip": "ym2612"
    },
    {
      "channel": 0,
      "note": 40,
      "start": 45.9976,
      "duration": 0.0161,
      "velocity": 115,
      "chip": "ym2612"
    },
    {
      "channel": 4,
      "note": 65,
      "start": 45.9988,
      "duration": 0.0161,
      "velocity": 120,
      "chip": "ym2612"
    },
    {
      "channel": 3,
      "note": 60,
      "start": 45.9999,
      "duration": 0.0161,
      "velocity": 120,
      "chip": "ym2612"
    },
    {
      "channel": 0,
      "note": 41,
      "start": 46.0137,
      "duration": 0.0196,
      "velocity": 115,
      "chip": "ym2612"
    },
    {
      "channel": 4,
      "note": 65,
      "start": 46.0149,
      "duration": 0.0196,
      "velocity": 120,
      "chip": "ym2612"
    },
    {
      "channel": 3,
      "note": 60,
      "start": 46.0161,
      "duration": 0.0195,
      "velocity": 120,
      "chip": "ym2612"
    },
    {
      "channel": 1,
      "note": 78,
      "start": 46.0315,
      "duration": 0.0143,
      "velocity": 124,
      "chip": "ym2612"
    },
    {
      "channel": 0,
      "note": 41,
      "start": 46.0333,
      "duration": 0.0143,
      "velocity": 115,
      "chip": "ym2612"
    },
    {
      "channel": 4,
      "note": 65,
      "start": 46.0345,
      "duration": 0.0143,
      "velocity": 120,
      "chip": "ym2612"
    },
    {
      "channel": 3,
      "note": 60,
      "start": 46.0356,
      "duration": 0.0144,
      "velocity": 120,
      "chip": "ym2612"
    },
    {
      "channel": 2,
      "note": 50,
      "start": 46.0371,
      "duration": 0.014,
      "velocity": 100,
      "chip": "ym2612"
    },
    {
      "channel": 1,
      "note": 76,
      "start": 46.0459,
      "duration": 0.0161,
      "velocity": 124,
      "chip": "ym2612"
    },
    {
      "channel": 0,
      "note": 42,
      "start": 46.0476,
      "duration": 0.0161,
      "velocity": 115,
      "chip": "ym2612"
    },
    {
      "channel": 4,
      "note": 65,
      "start": 46.0488,
      "duration": 0.0161,
      "velocity": 120,
      "chip": "ym2612"
    },
    {
      "channel": 3,
      "note": 60,
      "start": 46.05,
      "duration": 0.016,
      "velocity": 120,
      "chip": "ym2612"
    },
    {
      "channel": 2,
      "note": 50,
      "start": 46.0511,
      "duration": 0.016,
      "velocity": 100,
      "chip": "ym2612"
    },
    {
      "channel": 1,
      "note": 75,
      "start": 46.062,
      "duration": 0.0161,
      "velocity": 124,
      "chip": "ym2612"
    },
    {
      "channel": 0,
      "note": 42,
      "start": 46.0637,
      "duration": 0.0161,
      "velocity": 115,
      "chip": "ym2612"
    },
    {
      "channel": 4,
      "note": 65,
      "start": 46.0649,
      "duration": 0.0161,
      "velocity": 120,
      "chip": "ym2612"
    },
    {
      "channel": 3,
      "note": 60,
      "start": 46.066,
      "duration": 0.0161,
      "velocity": 120,
      "chip": "ym2612"
    },
    {
      "channel": 2,
      "note": 50,
      "start": 46.0672,
      "duration": 0.0161,
      "velocity": 100,
      "chip": "ym2612"
    },
    {
      "channel": 1,
      "note": 74,
      "start": 46.078,
      "duration": 0.0161,
      "velocity": 124,
      "chip": "ym2612"
    },
    {
      "channel": 0,
      "note": 43,
      "start": 46.0798,
      "duration": 0.0161,
      "velocity": 115,
      "chip": "ym2612"
    },
    {
      "channel": 4,
      "note": 65,
      "start": 46.081,
      "duration": 0.0161,
      "velocity": 120,
      "chip": "ym2612"
    },
    {
      "channel": 3,
      "note": 60,
      "start": 46.0821,
      "duration": 0.0162,
      "velocity": 120,
      "chip": "ym2612"
    },
    {
      "channel": 2,
      "note": 50,
      "start": 46.0833,
      "duration": 0.0161,
      "velocity": 100,
      "chip": "ym2612"
    },
    {
      "channel": 1,
      "note": 72,
      "start": 46.0941,
      "duration": 0.0164,
      "velocity": 124,
      "chip": "ym2612"
    },
    {
      "channel": 0,
      "note": 43,
      "start": 46.0959,
      "duration": 0.0165,
      "velocity": 115,
      "chip": "ym2612"
    },
    {
      "channel": 4,
      "note": 65,
      "start": 46.0971,
      "duration": 0.0164,
      "velocity": 120,
      "chip": "ym2612"
    },
    {
      "channel": 3,
      "note": 60,
      "start": 46.0983,
      "duration": 0.0164,
      "velocity": 120,
      "chip": "ym2612"
    },
    {
      "channel": 2,
      "note": 50,
      "start": 46.0994,
      "duration": 0.0163,
      "velocity": 100,
      "chip": "ym2612"
    },
    {
      "channel": 1,
      "note": 71,
      "start": 46.1105,
      "duration": 0.0167,
      "velocity": 124,
      "chip": "ym2612"
    },
    {
      "channel": 0,
      "note": 44,
      "start": 46.1123,
      "duration": 0.0167,
      "velocity": 115,
      "chip": "ym2612"
    },
    {
      "channel": 4,
      "note": 65,
      "start": 46.1135,
      "duration": 0.0167,
      "velocity": 120,
      "chip": "ym2612"
    },
    {
      "channel": 3,
      "note": 60,
      "start": 46.1147,
      "duration": 0.0167,
      "velocity": 120,
      "chip": "ym2612"
    },
    {
      "channel": 2,
      "note": 50,
      "start": 46.1158,
      "duration": 0.0167,
      "velocity": 100,
      "chip": "ym2612"
    },
    {
      "channel": 1,
      "note": 70,
      "start": 46.1272,
      "duration": 0.0163,
      "velocity": 124,
      "chip": "ym2612"
    },
    {
      "channel": 0,
      "note": 44,
      "start": 46.129,
      "duration": 0.0163,
      "velocity": 115,
      "chip": "ym2612"
    },
    {
      "channel": 4,
      "note": 65,
      "start": 46.1301,
      "duration": 0.0163,
      "velocity": 120,
      "chip": "ym2612"
    },
    {
      "channel": 3,
      "note": 60,
      "start": 46.1314,
      "duration": 0.0163,
      "velocity": 120,
      "chip": "ym2612"
    },
    {
      "channel": 2,
      "note": 50,
      "start": 46.1324,
      "duration": 0.0163,
      "velocity": 100,
      "chip": "ym2612"
    },
    {
      "channel": 1,
      "note": 69,
      "start": 46.1436,
      "duration": 0.0149,
      "velocity": 124,
      "chip": "ym2612"
    },
    {
      "channel": 0,
      "note": 44,
      "start": 46.1453,
      "duration": 0.015,
      "velocity": 115,
      "chip": "ym2612"
    },
    {
      "channel": 4,
      "note": 65,
      "start": 46.1465,
      "duration": 0.0149,
      "velocity": 120,
      "chip": "ym2612"
    },
    {
      "channel": 3,
      "note": 60,
      "start": 46.1476,
      "duration": 0.015,
      "velocity": 120,
      "chip": "ym2612"
    },
    {
      "channel": 1,
      "note": 68,
      "start": 46.1585,
      "duration": 0.0187,
      "velocity": 124,
      "chip": "ym2612"
    },
    {
      "channel": 0,
      "note": 45,
      "start": 46.1603,
      "duration": 0.0187,
      "velocity": 115,
      "chip": "ym2612"
    },
    {
      "channel": 4,
      "note": 65,
      "start": 46.1614,
      "duration": 0.0187,
      "velocity": 120,
      "chip": "ym2612"
    },
    {
      "channel": 3,
      "note": 60,
      "start": 46.1627,
      "duration": 0.0187,
      "velocity": 120,
      "chip": "ym2612"
    },
    {
      "channel": 1,
      "note": 66,
      "start": 46.1772,
      "duration": 0.0163,
      "velocity": 124,
      "chip": "ym2612"
    },
    {
      "channel": 0,
      "note": 45,
      "start": 46.179,
      "duration": 0.0162,
      "velocity": 115,
      "chip": "ym2612"
    },
    {
      "channel": 4,
      "note": 65,
      "start": 46.1801,
      "duration": 0.0163,
      "velocity": 120,
      "chip": "ym2612"
    },
    {
      "channel": 3,
      "note": 60,
      "start": 46.1814,
      "duration": 0.0162,
      "velocity": 120,
      "chip": "ym2612"
    },
    {
      "channel": 1,
      "note": 65,
      "start": 46.1935,
      "duration": 0.0157,
      "velocity": 124,
      "chip": "ym2612"
    },
    {
      "channel": 0,
      "note": 46,
      "start": 46.1952,
      "duration": 0.0157,
      "velocity": 115,
      "chip": "ym2612"
    },
    {
      "channel": 4,
      "note": 65,
      "start": 46.1964,
      "duration": 0.0157,
      "velocity": 120,
      "chip": "ym2612"
    },
    {
      "channel": 3,
      "note": 60,
      "start": 46.1976,
      "duration": 0.0157,
      "velocity": 120,
      "chip": "ym2612"
    },
    {
      "channel": 1,
      "note": 64,
      "start": 46.2092,
      "duration": 0.0141,
      "velocity": 124,
      "chip": "ym2612"
    },
    {
      "channel": 0,
      "note": 46,
      "start": 46.2109,
      "duration": 0.0159,
      "velocity": 115,
      "chip": "ym2612"
    },
    {
      "channel": 4,
      "note": 65,
      "start": 46.2121,
      "duration": 0.0159,
      "velocity": 120,
      "chip": "ym2612"
    },
    {
      "channel": 3,
      "note": 60,
      "start": 46.2133,
      "duration": 0.0159,
      "velocity": 120,
      "chip": "ym2612"
    },
    {
      "channel": 1,
      "note": 62,
      "start": 46.2233,
      "duration": 0.0158,
      "velocity": 124,
      "chip": "ym2612"
    },
    {
      "channel": 0,
      "note": 36,
      "start": 46.2268,
      "duration": 0.0168,
      "velocity": 115,
      "chip": "ym2612"
    },
    {
      "channel": 4,
      "note": 65,
      "start": 46.228,
      "duration": 0.0168,
      "velocity": 120,
      "chip": "ym2612"
    },
    {
      "channel": 3,
      "note": 60,
      "start": 46.2292,
      "duration": 0.0167,
      "velocity": 120,
      "chip": "ym2612"
    },
    {
      "channel": 2,
      "note": 50,
      "start": 46.2307,
      "duration": 0.0164,
      "velocity": 100,
      "chip": "ym2612"
    },
    {
      "channel": 1,
      "note": 61,
      "start": 46.239,
      "duration": 0.0161,
      "velocity": 124,
      "chip": "ym2612"
    },
    {
      "channel": 0,
      "note": 36,
      "start": 46.2436,
      "duration": 0.016,
      "velocity": 115,
      "chip": "ym2612"
    },
    {
      "channel": 4,
      "note": 65,
      "start": 46.2448,
      "duration": 0.016,
      "velocity": 120,
      "chip": "ym2612"
    },
    {
      "channel": 3,
      "note": 60,
      "start": 46.2459,
      "duration": 0.016,
      "velocity": 120,
      "chip": "ym2612"
    },
    {
      "channel": 2,
      "note": 50,
      "start": 46.2471,
      "duration": 0.016,
      "velocity": 100,
      "chip": "ym2612"
    },
    {
      "channel": 1,
      "note": 60,
      "start": 46.2551,
      "duration": 0.0161,
      "velocity": 124,
      "chip": "ym2612"
    },
    {
      "channel": 0,
      "note": 37,
      "start": 46.2596,
      "duration": 0.0158,
      "velocity": 115,
      "chip": "ym2612"
    },
    {
      "channel": 4,
      "note": 65,
      "start": 46.2608,
      "duration": 0.0157,
      "velocity": 120,
      "chip": "ym2612"
    },
    {
      "channel": 3,
      "note": 60,
      "start": 46.262,
      "duration": 0.0158,
      "velocity": 120,
      "chip": "ym2612"
    },
    {
      "channel": 2,
      "note": 50,
      "start": 46.2631,
      "duration": 0.0157,
      "velocity": 100,
      "chip": "ym2612"
    },
    {
      "channel": 1,
      "note": 59,
      "start": 46.2712,
      "duration": 0.0161,
      "velocity": 124,
      "chip": "ym2612"
    },
    {
      "channel": 0,
      "note": 37,
      "start": 46.2754,
      "duration": 0.0137,
      "velocity": 115,
      "chip": "ym2612"
    },
    {
      "channel": 4,
      "note": 65,
      "start": 46.2765,
      "duration": 0.0141,
      "velocity": 120,
      "chip": "ym2612"
    },
    {
      "channel": 3,
      "note": 60,
      "start": 46.2777,
      "duration": 0.014,
      "velocity": 120,
      "chip": "ym2612"
    },
    {
      "channel": 2,
      "note": 50,
      "start": 46.2788,
      "duration": 0.0141,
      "velocity": 100,
      "chip": "ym2612"
    },
    {
      "channel": 1,
      "note": 57,
      "start": 46.2873,
      "duration": 0.0161,
      "velocity": 124,
      "chip": "ym2612"
    },
    {
      "channel": 0,
      "note": 38,
      "start": 46.289,
      "duration": 0.0161,
      "velocity": 115,
      "chip": "ym2612"
    },
    {
      "channel": 4,
      "note": 65,
      "start": 46.2906,
      "duration": 0.0185,
      "velocity": 120,
      "chip": "ym2612"
    },
    {
      "channel": 3,
      "note": 60,
      "start": 46.2917,
      "duration": 0.0186,
      "velocity": 120,
      "chip": "ym2612"
    },
    {
      "channel": 2,
      "note": 50,
      "start": 46.2929,
      "duration": 0.0185,
      "velocity": 100,
      "chip": "ym2612"
    },
    {
      "channel": 1,
      "note": 56,
      "start": 46.3034,
      "duration": 0.0161,
      "velocity": 124,
      "chip": "ym2612"
    },
    {
      "channel": 0,
      "note": 38,
      "start": 46.3051,
      "duration": 0.0161,
      "velocity": 115,
      "chip": "ym2612"
    },
    {
      "channel": 4,
      "note": 65,
      "start": 46.3091,
      "duration": 0.0134,
      "velocity": 120,
      "chip": "ym2612"
    },
    {
      "channel": 3,
      "note": 60,
      "start": 46.3103,
      "duration": 0.0161,
      "velocity": 120,
      "chip": "ym2612"
    },
    {
      "channel": 2,
      "note": 50,
      "start": 46.3114,
      "duration": 0.0161,
      "velocity": 100,
      "chip": "ym2612"
    },
    {
      "channel": 1,
      "note": 55,
      "start": 46.3195,
      "duration": 0.0161,
      "velocity": 124,
      "chip": "ym2612"
    },
    {
      "channel": 0,
      "note": 39,
      "start": 46.3212,
      "duration": 0.0161,
      "velocity": 115,
      "chip": "ym2612"
    },
    {
      "channel": 4,
      "note": 65,
      "start": 46.3224,
      "duration": 0.0161,
      "velocity": 120,
      "chip": "ym2612"
    },
    {
      "channel": 3,
      "note": 60,
      "start": 46.3264,
      "duration": 0.0157,
      "velocity": 120,
      "chip": "ym2612"
    },
    {
      "channel": 2,
      "note": 50,
      "start": 46.3275,
      "duration": 0.0157,
      "velocity": 100,
      "chip": "ym2612"
    },
    {
      "channel": 1,
      "note": 53,
      "start": 46.3356,
      "duration": 0.0161,
      "velocity": 124,
      "chip": "ym2612"
    },
    {
      "channel": 0,
      "note": 39,
      "start": 46.3373,
      "duration": 0.0162,
      "velocity": 115,
      "chip": "ym2612"
    },
    {
      "channel": 4,
      "note": 65,
      "start": 46.3385,
      "duration": 0.0161,
      "velocity": 120,
      "chip": "ym2612"
    },
    {
      "channel": 3,
      "note": 60,
      "start": 46.3421,
      "duration": 0.0137,
      "velocity": 120,
      "chip": "ym2612"
    },
    {
      "channel": 1,
      "note": 52,
      "start": 46.3518,
      "duration": 0.0161,
      "velocity": 124,
      "chip": "ym2612"
    },
    {
      "channel": 0,
      "note": 40,
      "start": 46.3535,
      "duration": 0.0161,
      "velocity": 115,
      "chip": "ym2612"
    },
    {
      "channel": 4,
      "note": 65,
      "start": 46.3547,
      "duration": 0.0161,
      "velocity": 120,
      "chip": "ym2612"
    },
    {
      "channel": 3,
      "note": 60,
      "start": 46.3559,
      "duration": 0.0161,
      "velocity": 120,
      "chip": "ym2612"
    },
    {
      "channel": 1,
      "note": 51,
      "start": 46.3679,
      "duration": 0.0153,
      "velocity": 1,
      "chip": "ym2612"
    },
    {
      "channel": 0,
      "note": 40,
      "start": 46.3696,
      "duration": 0.0153,
      "velocity": 115,
      "chip": "ym2612"
    },
    {
      "channel": 4,
      "note": 65,
      "start": 46.3708,
      "duration": 0.0153,
      "velocity": 120,
      "chip": "ym2612"
    },
    {
      "channel": 3,
      "note": 60,
      "start": 46.3719,
      "duration": 0.0153,
      "velocity": 120,
      "chip": "ym2612"
    },
    {
      "channel": 0,
      "note": 40,
      "start": 46.3849,
      "duration": 0.0153,
      "velocity": 115,
      "chip": "ym2612"
    },
    {
      "channel": 4,
      "note": 65,
      "start": 46.3861,
      "duration": 0.0153,
      "velocity": 120,
      "chip": "ym2612"
    },
    {
      "channel": 3,
      "note": 60,
      "start": 46.3872,
      "duration": 0.0153,
      "velocity": 120,
      "chip": "ym2612"
    },
    {
      "channel": 0,
      "note": 41,
      "start": 46.4001,
      "duration": 0.0179,
      "velocity": 115,
      "chip": "ym2612"
    },
    {
      "channel": 4,
      "note": 65,
      "start": 46.4013,
      "duration": 0.0181,
      "velocity": 120,
      "chip": "ym2612"
    },
    {
      "channel": 3,
      "note": 60,
      "start": 46.4025,
      "duration": 0.0183,
      "velocity": 120,
      "chip": "ym2612"
    },
    {
      "channel": 0,
      "note": 36,
      "start": 46.418,
      "duration": 0.0144,
      "velocity": 115,
      "chip": "ym2612"
    },
    {
      "channel": 4,
      "note": 67,
      "start": 46.4195,
      "duration": 0.0142,
      "velocity": 120,
      "chip": "ym2612"
    },
    {
      "channel": 3,
      "note": 62,
      "start": 46.4209,
      "duration": 0.0139,
      "velocity": 120,
      "chip": "ym2612"
    },
    {
      "channel": 2,
      "note": 50,
      "start": 46.4224,
      "duration": 0.0136,
      "velocity": 100,
      "chip": "ym2612"
    },
    {
      "channel": 1,
      "note": 38,
      "start": 46.4242,
      "duration": 0.013,
      "velocity": 100,
      "chip": "ym2612"
    },
    {
      "channel": 0,
      "note": 36,
      "start": 46.4324,
      "duration": 0.016,
      "velocity": 115,
      "chip": "ym2612"
    },
    {
      "channel": 4,
      "note": 67,
      "start": 46.4337,
      "duration": 0.016,
      "velocity": 120,
      "chip": "ym2612"
    },
    {
      "channel": 3,
      "note": 62,
      "start": 46.4348,
      "duration": 0.016,
      "velocity": 120,
      "chip": "ym2612"
    },
    {
      "channel": 2,
      "note": 50,
      "start": 46.436,
      "duration": 0.0159,
      "velocity": 100,
      "chip": "ym2612"
    },
    {
      "channel": 1,
      "note": 38,
      "start": 46.4372,
      "duration": 0.0158,
      "velocity": 100,
      "chip": "ym2612"
    },
    {
      "channel": 0,
      "note": 37,
      "start": 46.4484,
      "duration": 0.0162,
      "velocity": 115,
      "chip": "ym2612"
    },
    {
      "channel": 4,
      "note": 67,
      "start": 46.4496,
      "duration": 0.0161,
      "velocity": 120,
      "chip": "ym2612"
    },
    {
      "channel": 3,
      "note": 62,
      "start": 46.4507,
      "duration": 0.0161,
      "velocity": 120,
      "chip": "ym2612"
    },
    {
      "channel": 2,
      "note": 50,
      "start": 46.4519,
      "duration": 0.0161,
      "velocity": 100,
      "chip": "ym2612"
    },
    {
      "channel": 1,
      "note": 38,
      "start": 46.453,
      "duration": 0.0161,
      "velocity": 100,
      "chip": "ym2612"
    },
    {
      "channel": 0,
      "note": 37,
      "start": 46.4646,
      "duration": 0.0161,
      "velocity": 115,
      "chip": "ym2612"
    },
    {
      "channel": 4,
      "note": 67,
      "start": 46.4657,
      "duration": 0.0161,
      "velocity": 120,
      "chip": "ym2612"
    },
    {
      "channel": 3,
      "note": 62,
      "start": 46.4668,
      "duration": 0.0161,
      "velocity": 120,
      "chip": "ym2612"
    },
    {
      "channel": 2,
      "note": 50,
      "start": 46.468,
      "duration": 0.0161,
      "velocity": 100,
      "chip": "ym2612"
    },
    {
      "channel": 1,
      "note": 38,
      "start": 46.4691,
      "duration": 0.0161,
      "velocity": 100,
      "chip": "ym2612"
    },
    {
      "channel": 0,
      "note": 38,
      "start": 46.4807,
      "duration": 0.0161,
      "velocity": 115,
      "chip": "ym2612"
    },
    {
      "channel": 4,
      "note": 67,
      "start": 46.4818,
      "duration": 0.0161,
      "velocity": 120,
      "chip": "ym2612"
    },
    {
      "channel": 3,
      "note": 62,
      "start": 46.4829,
      "duration": 0.0161,
      "velocity": 120,
      "chip": "ym2612"
    },
    {
      "channel": 2,
      "note": 50,
      "start": 46.4841,
      "duration": 0.0161,
      "velocity": 100,
      "chip": "ym2612"
    },
    {
      "channel": 1,
      "note": 38,
      "start": 46.4852,
      "duration": 0.0161,
      "velocity": 100,
      "chip": "ym2612"
    },
    {
      "channel": 0,
      "note": 38,
      "start": 46.4967,
      "duration": 0.0161,
      "velocity": 115,
      "chip": "ym2612"
    },
    {
      "channel": 4,
      "note": 67,
      "start": 46.4979,
      "duration": 0.0161,
      "velocity": 120,
      "chip": "ym2612"
    },
    {
      "channel": 3,
      "note": 62,
      "start": 46.499,
      "duration": 0.0161,
      "velocity": 120,
      "chip": "ym2612"
    },
    {
      "channel": 2,
      "note": 50,
      "start": 46.5002,
      "duration": 0.0161,
      "velocity": 100,
      "chip": "ym2612"
    },
    {
      "channel": 1,
      "note": 38,
      "start": 46.5013,
      "duration": 0.0161,
      "velocity": 100,
      "chip": "ym2612"
    },
    {
      "channel": 0,
      "note": 39,
      "start": 46.5128,
      "duration": 0.0161,
      "velocity": 115,
      "chip": "ym2612"
    },
    {
      "channel": 4,
      "note": 67,
      "start": 46.514,
      "duration": 0.0161,
      "velocity": 120,
      "chip": "ym2612"
    },
    {
      "channel": 3,
      "note": 62,
      "start": 46.5151,
      "duration": 0.0161,
      "velocity": 120,
      "chip": "ym2612"
    },
    {
      "channel": 2,
      "note": 50,
      "start": 46.5163,
      "duration": 0.0161,
      "velocity": 100,
      "chip": "ym2612"
    },
    {
      "channel": 1,
      "note": 38,
      "start": 46.5174,
      "duration": 0.0161,
      "velocity": 100,
      "chip": "ym2612"
    },
    {
      "channel": 0,
      "note": 39,
      "start": 46.5289,
      "duration": 0.0161,
      "velocity": 115,
      "chip": "ym2612"
    },
    {
      "channel": 4,
      "note": 67,
      "start": 46.5301,
      "duration": 0.0161,
      "velocity": 120,
      "chip": "ym2612"
    },
    {
      "channel": 3,
      "note": 62,
      "start": 46.5312,
      "duration": 0.0161,
      "velocity": 120,
      "chip": "ym2612"
    },
    {
      "channel": 0,
      "note": 40,
      "start": 46.545,
      "duration": 0.0161,
      "velocity": 115,
      "chip": "ym2612"
    },
    {
      "channel": 4,
      "note": 67,
      "start": 46.5462,
      "duration": 0.0161,
      "velocity": 120,
      "chip": "ym2612"
    },
    {
      "channel": 3,
      "note": 62,
      "start": 46.5473,
      "duration": 0.0161,
      "velocity": 120,
      "chip": "ym2612"
    },
    {
      "channel": 0,
      "note": 40,
      "start": 46.5611,
      "duration": 0.0162,
      "velocity": 115,
      "chip": "ym2612"
    },
    {
      "channel": 4,
      "note": 67,
      "start": 46.5623,
      "duration": 0.0162,
      "velocity": 120,
      "chip": "ym2612"
    },
    {
      "channel": 3,
      "note": 62,
      "start": 46.5634,
      "duration": 0.0162,
      "velocity": 120,
      "chip": "ym2612"
    },
    {
      "channel": 0,
      "note": 40,
      "start": 46.5773,
      "duration": 0.0167,
      "velocity": 115,
      "chip": "ym2612"
    },
    {
      "channel": 4,
      "note": 67,
      "start": 46.5785,
      "duration": 0.0167,
      "velocity": 120,
      "chip": "ym2612"
    },
    {
      "channel": 3,
      "note": 62,
      "start": 46.5796,
      "duration": 0.0167,
      "velocity": 120,
      "chip": "ym2612"
    },
    {
      "channel": 0,
      "note": 41,
      "start": 46.594,
      "duration": 0.0163,
      "velocity": 115,
      "chip": "ym2612"
    },
    {
      "channel": 4,
      "note": 67,
      "start": 46.5951,
      "duration": 0.0163,
      "velocity": 120,
      "chip": "ym2612"
    },
    {
      "channel": 3,
      "note": 62,
      "start": 46.5963,
      "duration": 0.0163,
      "velocity": 120,
      "chip": "ym2612"
    },
    {
      "channel": 0,
      "note": 41,
      "start": 46.6103,
      "duration": 0.0153,
      "velocity": 115,
      "chip": "ym2612"
    },
    {
      "channel": 4,
      "note": 67,
      "start": 46.6115,
      "duration": 0.0152,
      "velocity": 120,
      "chip": "ym2612"
    },
    {
      "channel": 3,
      "note": 62,
      "start": 46.6127,
      "duration": 0.0153,
      "velocity": 120,
      "chip": "ym2612"
    },
    {
      "channel": 2,
      "note": 50,
      "start": 46.6142,
      "duration": 0.0149,
      "velocity": 100,
      "chip": "ym2612"
    },
    {
      "channel": 1,
      "note": 38,
      "start": 46.6157,
      "duration": 0.0146,
      "velocity": 100,
      "chip": "ym2612"
    },
    {
      "channel": 0,
      "note": 42,
      "start": 46.6256,
      "duration": 0.0185,
      "velocity": 115,
      "chip": "ym2612"
    },
    {
      "channel": 4,
      "note": 67,
      "start": 46.6267,
      "duration": 0.0185,
      "velocity": 120,
      "chip": "ym2612"
    },
    {
      "channel": 3,
      "note": 62,
      "start": 46.6279,
      "duration": 0.0185,
      "velocity": 120,
      "chip": "ym2612"
    },
    {
      "channel": 2,
      "note": 50,
      "start": 46.6291,
      "duration": 0.0184,
      "velocity": 100,
      "chip": "ym2612"
    },
    {
      "channel": 1,
      "note": 38,
      "start": 46.6303,
      "duration": 0.0183,
      "velocity": 100,
      "chip": "ym2612"
    },
    {
      "channel": 0,
      "note": 42,
      "start": 46.644,
      "duration": 0.0165,
      "velocity": 115,
      "chip": "ym2612"
    },
    {
      "channel": 4,
      "note": 67,
      "start": 46.6452,
      "duration": 0.0165,
      "velocity": 120,
      "chip": "ym2612"
    },
    {
      "channel": 3,
      "note": 62,
      "start": 46.6464,
      "duration": 0.0165,
      "velocity": 120,
      "chip": "ym2612"
    },
    {
      "channel": 2,
      "note": 50,
      "start": 46.6475,
      "duration": 0.0165,
      "velocity": 100,
      "chip": "ym2612"
    },
    {
      "channel": 1,
      "note": 38,
      "start": 46.6486,
      "duration": 0.0165,
      "velocity": 100,
      "chip": "ym2612"
    },
    {
      "channel": 0,
      "note": 43,
      "start": 46.6605,
      "duration": 0.0158,
      "velocity": 115,
      "chip": "ym2612"
    },
    {
      "channel": 4,
      "note": 67,
      "start": 46.6617,
      "duration": 0.0158,
      "velocity": 120,
      "chip": "ym2612"
    },
    {
      "channel": 3,
      "note": 62,
      "start": 46.6628,
      "duration": 0.0158,
      "velocity": 120,
      "chip": "ym2612"
    },
    {
      "channel": 2,
      "note": 50,
      "start": 46.664,
      "duration": 0.0158,
      "velocity": 100,
      "chip": "ym2612"
    },
    {
      "channel": 1,
      "note": 38,
      "start": 46.6651,
      "duration": 0.0158,
      "velocity": 100,
      "chip": "ym2612"
    },
    {
      "channel": 0,
      "note": 43,
      "start": 46.6763,
      "duration": 0.014,
      "velocity": 115,
      "chip": "ym2612"
    },
    {
      "channel": 4,
      "note": 67,
      "start": 46.6775,
      "duration": 0.014,
      "velocity": 120,
      "chip": "ym2612"
    },
    {
      "channel": 3,
      "note": 62,
      "start": 46.6786,
      "duration": 0.014,
      "velocity": 120,
      "chip": "ym2612"
    },
    {
      "channel": 2,
      "note": 50,
      "start": 46.6798,
      "duration": 0.014,
      "velocity": 100,
      "chip": "ym2612"
    },
    {
      "channel": 1,
      "note": 38,
      "start": 46.6808,
      "duration": 0.0141,
      "velocity": 100,
      "chip": "ym2612"
    },
    {
      "channel": 0,
      "note": 44,
      "start": 46.6902,
      "duration": 0.0185,
      "velocity": 115,
      "chip": "ym2612"
    },
    {
      "channel": 4,
      "note": 67,
      "start": 46.6915,
      "duration": 0.0185,
      "velocity": 120,
      "chip": "ym2612"
    },
    {
      "channel": 3,
      "note": 62,
      "start": 46.6926,
      "duration": 0.0185,
      "velocity": 120,
      "chip": "ym2612"
    },
    {
      "channel": 2,
      "note": 50,
      "start": 46.6938,
      "duration": 0.0185,
      "velocity": 100,
      "chip": "ym2612"
    },
    {
      "channel": 1,
      "note": 38,
      "start": 46.6949,
      "duration": 0.0185,
      "velocity": 100,
      "chip": "ym2612"
    },
    {
      "channel": 0,
      "note": 44,
      "start": 46.7088,
      "duration": 0.0134,
      "velocity": 115,
      "chip": "ym2612"
    },
    {
      "channel": 4,
      "note": 67,
      "start": 46.71,
      "duration": 0.0161,
      "velocity": 120,
      "chip": "ym2612"
    },
    {
      "channel": 3,
      "note": 62,
      "start": 46.7111,
      "duration": 0.0162,
      "velocity": 120,
      "chip": "ym2612"
    },
    {
      "channel": 2,
      "note": 50,
      "start": 46.7123,
      "duration": 0.0162,
      "velocity": 100,
      "chip": "ym2612"
    },
    {
      "channel": 1,
      "note": 38,
      "start": 46.7134,
      "duration": 0.0162,
      "velocity": 100,
      "chip": "ym2612"
    },
    {
      "channel": 0,
      "note": 44,
      "start": 46.7221,
      "duration": 0.0161,
      "velocity": 115,
      "chip": "ym2612"
    },
    {
      "channel": 4,
      "note": 67,
      "start": 46.7261,
      "duration": 0.0158,
      "velocity": 120,
      "chip": "ym2612"
    },
    {
      "channel": 3,
      "note": 62,
      "start": 46.7273,
      "duration": 0.0158,
      "velocity": 120,
      "chip": "ym2612"
    },
    {
      "channel": 0,
      "note": 45,
      "start": 46.7382,
      "duration": 0.0161,
      "velocity": 115,
      "chip": "ym2612"
    },
    {
      "channel": 4,
      "note": 67,
      "start": 46.7418,
      "duration": 0.0137,
      "velocity": 120,
      "chip": "ym2612"
    },
    {
      "channel": 3,
      "note": 62,
      "start": 46.7431,
      "duration": 0.0139,
      "velocity": 120,
      "chip": "ym2612"
    },
    {
      "channel": 0,
      "note": 45,
      "start": 46.7543,
      "duration": 0.0162,
      "velocity": 115,
      "chip": "ym2612"
    },
    {
      "channel": 4,
      "note": 67,
      "start": 46.7555,
      "duration": 0.0161,
      "velocity": 120,
      "chip": "ym2612"
    },
    {
      "channel": 3,
      "note": 62,
      "start": 46.757,
      "duration": 0.0186,
      "velocity": 120,
      "chip": "ym2612"
    },
    {
      "channel": 0,
      "note": 46,
      "start": 46.7705,
      "duration": 0.0161,
      "velocity": 115,
      "chip": "ym2612"
    },
    {
      "channel": 4,
      "note": 67,
      "start": 46.7716,
      "duration": 0.0162,
      "velocity": 120,
      "chip": "ym2612"
    },
    {
      "channel": 3,
      "note": 62,
      "start": 46.7756,
      "duration": 0.0134,
      "velocity": 120,
      "chip": "ym2612"
    },
    {
      "channel": 0,
      "note": 46,
      "start": 46.7866,
      "duration": 0.0219,
      "velocity": 115,
      "chip": "ym2612"
    },
    {
      "channel": 4,
      "note": 67,
      "start": 46.7878,
      "duration": 0.0219,
      "velocity": 120,
      "chip": "ym2612"
    },
    {
      "channel": 3,
      "note": 62,
      "start": 46.7889,
      "duration": 0.022,
      "velocity": 120,
      "chip": "ym2612"
    },
    {
      "channel": 1,
      "note": 78,
      "start": 46.8044,
      "duration": 0.0144,
      "velocity": 124,
      "chip": "ym2612"
    },
    {
      "channel": 0,
      "note": 47,
      "start": 46.8085,
      "duration": 0.012,
      "velocity": 115,
      "chip": "ym2612"
    },
    {
      "channel": 4,
      "note": 67,
      "start": 46.8097,
      "duration": 0.012,
      "velocity": 120,
      "chip": "ym2612"
    },
    {
      "channel": 3,
      "note": 62,
      "start": 46.8109,
      "duration": 0.0123,
      "velocity": 120,
      "chip": "ym2612"
    },
    {
      "channel": 2,
      "note": 50,
      "start": 46.8124,
      "duration": 0.012,
      "velocity": 100,
      "chip": "ym2612"
    },
    {
      "channel": 1,
      "note": 76,
      "start": 46.8188,
      "duration": 0.016,
      "velocity": 124,
      "chip": "ym2612"
    },
    {
      "channel": 0,
      "note": 47,
      "start": 46.8205,
      "duration": 0.016,
      "velocity": 115,
      "chip": "ym2612"
    },
    {
      "channel": 4,
      "note": 67,
      "start": 46.8217,
      "duration": 0.016,
      "velocity": 120,
      "chip": "ym2612"
    },
    {
      "channel": 3,
      "note": 62,
      "start": 46.8232,
      "duration": 0.0157,
      "velocity": 120,
      "chip": "ym2612"
    },
    {
      "channel": 2,
      "note": 50,
      "start": 46.8244,
      "duration": 0.0184,
      "velocity": 100,
      "chip": "ym2612"
    },
    {
      "channel": 1,
      "note": 75,
      "start": 46.8348,
      "duration": 0.0161,
      "velocity": 124,
      "chip": "ym2612"
    },
    {
      "channel": 0,
      "note": 47,
      "start": 46.8365,
      "duration": 0.0161,
      "velocity": 115,
      "chip": "ym2612"
    },
    {
      "channel": 4,
      "note": 67,
      "start": 46.8377,
      "duration": 0.0161,
      "velocity": 120,
      "chip": "ym2612"
    },
    {
      "channel": 3,
      "note": 62,
      "start": 46.8389,
      "duration": 0.0161,
      "velocity": 120,
      "chip": "ym2612"
    },
    {
      "channel": 2,
      "note": 50,
      "start": 46.8427,
      "duration": 0.0161,
      "velocity": 100,
      "chip": "ym2612"
    },
    {
      "channel": 1,
      "note": 74,
      "start": 46.8509,
      "duration": 0.0161,
      "velocity": 124,
      "chip": "ym2612"
    },
    {
      "channel": 0,
      "note": 48,
      "start": 46.8526,
      "duration": 0.0161,
      "velocity": 115,
      "chip": "ym2612"
    },
    {
      "channel": 4,
      "note": 67,
      "start": 46.8538,
      "duration": 0.0161,
      "velocity": 120,
      "chip": "ym2612"
    },
    {
      "channel": 3,
      "note": 62,
      "start": 46.8549,
      "duration": 0.0162,
      "velocity": 120,
      "chip": "ym2612"
    },
    {
      "channel": 2,
      "note": 50,
      "start": 46.8588,
      "duration": 0.0134,
      "velocity": 100,
      "chip": "ym2612"
    },
    {
      "channel": 1,
      "note": 72,
      "start": 46.867,
      "duration": 0.0161,
      "velocity": 124,
      "chip": "ym2612"
    },
    {
      "channel": 0,
      "note": 48,
      "start": 46.8687,
      "duration": 0.0161,
      "velocity": 115,
      "chip": "ym2612"
    },
    {
      "channel": 4,
      "note": 67,
      "start": 46.8699,
      "duration": 0.0161,
      "velocity": 120,
      "chip": "ym2612"
    },
    {
      "channel": 3,
      "note": 62,
      "start": 46.8711,
      "duration": 0.016,
      "velocity": 120,
      "chip": "ym2612"
    },
    {
      "channel": 2,
      "note": 50,
      "start": 46.8722,
      "duration": 0.016,
      "velocity": 100,
      "chip": "ym2612"
    },
    {
      "channel": 1,
      "note": 71,
      "start": 46.8831,
      "duration": 0.0161,
      "velocity": 124,
      "chip": "ym2612"
    },
    {
      "channel": 0,
      "note": 49,
      "start": 46.8848,
      "duration": 0.0153,
      "velocity": 1,
      "chip": "ym2612"
    },
    {
      "channel": 4,
      "note": 67,
      "start": 46.886,
      "duration": 0.0153,
      "velocity": 120,
      "chip": "ym2612"
    },
    {
      "channel": 3,
      "note": 62,
      "start": 46.8871,
      "duration": 0.0153,
      "velocity": 120,
      "chip": "ym2612"
    },
    {
      "channel": 2,
      "note": 50,
      "start": 46.8883,
      "duration": 0.0153,
      "velocity": 100,
      "chip": "ym2612"
    },
    {
      "channel": 1,
      "note": 70,
      "start": 46.8992,
      "duration": 0.0161,
      "velocity": 124,
      "chip": "ym2612"
    },
    {
      "channel": 4,
      "note": 67,
      "start": 46.9013,
      "duration": 0.0152,
      "velocity": 120,
      "chip": "ym2612"
    },
    {
      "channel": 3,
      "note": 62,
      "start": 46.9025,
      "duration": 0.0153,
      "velocity": 120,
      "chip": "ym2612"
    },
    {
      "channel": 2,
      "note": 50,
      "start": 46.9036,
      "duration": 0.0153,
      "velocity": 100,
      "chip": "ym2612"
    },
    {
      "channel": 1,
      "note": 69,
      "start": 46.9153,
      "duration": 0.0161,
      "velocity": 124,
      "chip": "ym2612"
    },
    {
      "channel": 4,
      "note": 67,
      "start": 46.9165,
      "duration": 0.0161,
      "velocity": 120,
      "chip": "ym2612"
    },
    {
      "channel": 3,
      "note": 62,
      "start": 46.9177,
      "duration": 0.0161,
      "velocity": 120,
      "chip": "ym2612"
    },
    {
      "channel": 1,
      "note": 68,
      "start": 46.9314,
      "duration": 0.0161,
      "velocity": 124,
      "chip": "ym2612"
    },
    {
      "channel": 4,
      "note": 67,
      "start": 46.9327,
      "duration": 0.0161,
      "velocity": 120,
      "chip": "ym2612"
    },
    {
      "channel": 3,
      "note": 62,
      "start": 46.9338,
      "duration": 0.0161,
      "velocity": 120,
      "chip": "ym2612"
    },
    {
      "channel": 1,
      "note": 66,
      "start": 46.9475,
      "duration": 0.0161,
      "velocity": 124,
      "chip": "ym2612"
    },
    {
      "channel": 4,
      "note": 67,
      "start": 46.9488,
      "duration": 0.0161,
      "velocity": 120,
      "chip": "ym2612"
    },
    {
      "channel": 3,
      "note": 62,
      "start": 46.9499,
      "duration": 0.0161,
      "velocity": 120,
      "chip": "ym2612"
    },
    {
      "channel": 1,
      "note": 65,
      "start": 46.9636,
      "duration": 0.0161,
      "velocity": 124,
      "chip": "ym2612"
    },
    {
      "channel": 4,
      "note": 67,
      "start": 46.9649,
      "duration": 0.0161,
      "velocity": 120,
      "chip": "ym2612"
    },
    {
      "channel": 3,
      "note": 62,
      "start": 46.966,
      "duration": 0.0161,
      "velocity": 120,
      "chip": "ym2612"
    },
    {
      "channel": 1,
      "note": 64,
      "start": 46.9797,
      "duration": 0.0161,
      "velocity": 124,
      "chip": "ym2612"
    },
    {
      "channel": 4,
      "note": 67,
      "start": 46.981,
      "duration": 0.0195,
      "velocity": 120,
      "chip": "ym2612"
    },
    {
      "channel": 3,
      "note": 62,
      "start": 46.9821,
      "duration": 0.0196,
      "velocity": 120,
      "chip": "ym2612"
    },
    {
      "channel": 1,
      "note": 62,
      "start": 46.9958,
      "duration": 0.0161,
      "velocity": 124,
      "chip": "ym2612"
    },
    {
      "channel": 0,
      "note": 36,
      "start": 46.9993,
      "duration": 0.0144,
      "velocity": 115,
      "chip": "ym2612"
    },
    {
      "channel": 4,
      "note": 67,
      "start": 47.0005,
      "duration": 0.0144,
      "velocity": 120,
      "chip": "ym2612"
    },
    {
      "channel": 3,
      "note": 62,
      "start": 47.0017,
      "duration": 0.0143,
      "velocity": 120,
      "chip": "ym2612"
    },
    {
      "channel": 2,
      "note": 50,
      "start": 47.0032,
      "duration": 0.014,
      "velocity": 100,
      "chip": "ym2612"
    },
    {
      "channel": 1,
      "note": 61,
      "start": 47.0119,
      "duration": 0.0161,
      "velocity": 124,
      "chip": "ym2612"
    },
    {
      "channel": 0,
      "note": 36,
      "start": 47.0137,
      "duration": 0.016,
      "velocity": 115,
      "chip": "ym2612"
    },
    {
      "channel": 4,
      "note": 67,
      "start": 47.0149,
      "duration": 0.016,
      "velocity": 120,
      "chip": "ym2612"
    },
    {
      "channel": 3,
      "note": 62,
      "start": 47.016,
      "duration": 0.016,
      "velocity": 120,
      "chip": "ym2612"
    },
    {
      "channel": 2,
      "note": 50,
      "start": 47.0172,
      "duration": 0.016,
      "velocity": 100,
      "chip": "ym2612"
    },
    {
      "channel": 1,
      "note": 60,
      "start": 47.028,
      "duration": 0.0161,
      "velocity": 124,
      "chip": "ym2612"
    },
    {
      "channel": 0,
      "note": 37,
      "start": 47.0297,
      "duration": 0.0161,
      "velocity": 115,
      "chip": "ym2612"
    },
    {
      "channel": 4,
      "note": 67,
      "start": 47.0309,
      "duration": 0.0161,
      "velocity": 120,
      "chip": "ym2612"
    },
    {
      "channel": 3,
      "note": 62,
      "start": 47.032,
      "duration": 0.0161,
      "velocity": 120,
      "chip": "ym2612"
    },
    {
      "channel": 2,
      "note": 50,
      "start": 47.0332,
      "duration": 0.0161,
      "velocity": 100,
      "chip": "ym2612"
    },
    {
      "channel": 1,
      "note": 59,
      "start": 47.0441,
      "duration": 0.0165,
      "velocity": 124,
      "chip": "ym2612"
    },
    {
      "channel": 0,
      "note": 37,
      "start": 47.0458,
      "duration": 0.0165,
      "velocity": 115,
      "chip": "ym2612"
    },
    {
      "channel": 4,
      "note": 67,
      "start": 47.047,
      "duration": 0.0165,
      "velocity": 120,
      "chip": "ym2612"
    },
    {
      "channel": 3,
      "note": 62,
      "start": 47.0481,
      "duration": 0.0165,
      "velocity": 120,
      "chip": "ym2612"
    },
    {
      "channel": 2,
      "note": 50,
      "start": 47.0493,
      "duration": 0.0165,
      "velocity": 100,
      "chip": "ym2612"
    },
    {
      "channel": 1,
      "note": 57,
      "start": 47.0605,
      "duration": 0.0163,
      "velocity": 124,
      "chip": "ym2612"
    },
    {
      "channel": 0,
      "note": 38,
      "start": 47.0623,
      "duration": 0.0163,
      "velocity": 115,
      "chip": "ym2612"
    },
    {
      "channel": 4,
      "note": 67,
      "start": 47.0635,
      "duration": 0.0163,
      "velocity": 120,
      "chip": "ym2612"
    },
    {
      "channel": 3,
      "note": 62,
      "start": 47.0646,
      "duration": 0.0163,
      "velocity": 120,
      "chip": "ym2612"
    },
    {
      "channel": 2,
      "note": 50,
      "start": 47.0658,
      "duration": 0.0163,
      "velocity": 100,
      "chip": "ym2612"
    },
    {
      "channel": 1,
      "note": 56,
      "start": 47.0769,
      "duration": 0.0155,
      "velocity": 124,
      "chip": "ym2612"
    },
    {
      "channel": 0,
      "note": 38,
      "start": 47.0786,
      "duration": 0.0155,
      "velocity": 115,
      "chip": "ym2612"
    },
    {
      "channel": 4,
      "note": 67,
      "start": 47.0798,
      "duration": 0.0155,
      "velocity": 120,
      "chip": "ym2612"
    },
    {
      "channel": 3,
      "note": 62,
      "start": 47.081,
      "duration": 0.0155,
      "velocity": 120,
      "chip": "ym2612"
    },
    {
      "channel": 2,
      "note": 50,
      "start": 47.0821,
      "duration": 0.0155,
      "velocity": 100,
      "chip": "ym2612"
    },
    {
      "channel": 1,
      "note": 55,
      "start": 47.0924,
      "duration": 0.0181,
      "velocity": 124,
      "chip": "ym2612"
    },
    {
      "channel": 0,
      "note": 39,
      "start": 47.0941,
      "duration": 0.0181,
      "velocity": 115,
      "chip": "ym2612"
    },
    {
      "channel": 4,
      "note": 67,
      "start": 47.0954,
      "duration": 0.0181,
      "velocity": 120,
      "chip": "ym2612"
    },
    {
      "channel": 3,
      "note": 62,
      "start": 47.0965,
      "duration": 0.0181,
      "velocity": 120,
      "chip": "ym2612"
    },
    {
      "channel": 2,
      "note": 50,
      "start": 47.0976,
      "duration": 0.0181,
      "velocity": 100,
      "chip": "ym2612"
    },
    {
      "channel": 1,
      "note": 53,
      "start": 47.1105,
      "duration": 0.0167,
      "velocity": 124,
      "chip": "ym2612"
    },
    {
      "channel": 0,
      "note": 39,
      "start": 47.1123,
      "duration": 0.0167,
      "velocity": 115,
      "chip": "ym2612"
    },
    {
      "channel": 4,
      "note": 67,
      "start": 47.1135,
      "duration": 0.0167,
      "velocity": 120,
      "chip": "ym2612"
    },
    {
      "channel": 3,
      "note": 62,
      "start": 47.1146,
      "duration": 0.0167,
      "velocity": 120,
      "chip": "ym2612"
    },
    {
      "channel": 1,
      "note": 52,
      "start": 47.1273,
      "duration": 0.0158,
      "velocity": 124,
      "chip": "ym2612"
    },
    {
      "channel": 0,
      "note": 40,
      "start": 47.129,
      "duration": 0.0158,
      "velocity": 115,
      "chip": "ym2612"
    },
    {
      "channel": 4,
      "note": 67,
      "start": 47.1302,
      "duration": 0.0158,
      "velocity": 120,
      "chip": "ym2612"
    },
    {
      "channel": 3,
      "note": 62,
      "start": 47.1314,
      "duration": 0.0158,
      "velocity": 120,
      "chip": "ym2612"
    },
    {
      "channel": 1,
      "note": 51,
      "start": 47.1431,
      "duration": 0.0131,
      "velocity": 1,
      "chip": "ym2612"
    },
    {
      "channel": 0,
      "note": 40,
      "start": 47.1448,
      "duration": 0.0132,
      "velocity": 115,
      "chip": "ym2612"
    },
    {
      "channel": 4,
      "note": 67,
      "start": 47.146,
      "duration": 0.0133,
      "velocity": 120,
      "chip": "ym2612"
    },
    {
      "channel": 3,
      "note": 62,
      "start": 47.1472,
      "duration": 0.0132,
      "velocity": 120,
      "chip": "ym2612"
    },
    {
      "channel": 0,
      "note": 40,
      "start": 47.1581,
      "duration": 0.0177,
      "velocity": 115,
      "chip": "ym2612"
    },
    {
      "channel": 4,
      "note": 67,
      "start": 47.1593,
      "duration": 0.0176,
      "velocity": 120,
      "chip": "ym2612"
    },
    {
      "channel": 3,
      "note": 62,
      "start": 47.1604,
      "duration": 0.0177,
      "velocity": 120,
      "chip": "ym2612"
    },
    {
      "channel": 0,
      "note": 41,
      "start": 47.1758,
      "duration": 0.0134,
      "velocity": 115,
      "chip": "ym2612"
    },
    {
      "channel": 4,
      "note": 67,
      "start": 47.1769,
      "duration": 0.0161,
      "velocity": 120,
      "chip": "ym2612"
    },
    {
      "channel": 3,
      "note": 62,
      "start": 47.1781,
      "duration": 0.0161,
      "velocity": 120,
      "chip": "ym2612"
    },
    {
      "channel": 0,
      "note": 41,
      "start": 47.1891,
      "duration": 0.016,
      "velocity": 115,
      "chip": "ym2612"
    },
    {
      "channel": 4,
      "note": 67,
      "start": 47.193,
      "duration": 0.0158,
      "velocity": 120,
      "chip": "ym2612"
    },
    {
      "channel": 3,
      "note": 62,
      "start": 47.1942,
      "duration": 0.0157,
      "velocity": 120,
      "chip": "ym2612"
    },
    {
      "channel": 2,
      "note": 50,
      "start": 47.1957,
      "duration": 0.0154,
      "velocity": 100,
      "chip": "ym2612"
    },
    {
      "channel": 1,
      "note": 38,
      "start": 47.1973,
      "duration": 0.0151,
      "velocity": 100,
      "chip": "ym2612"
    },
    {
      "channel": 0,
      "note": 42,
      "start": 47.2051,
      "duration": 0.0161,
      "velocity": 115,
      "chip": "ym2612"
    },
    {
      "channel": 4,
      "note": 67,
      "start": 47.2088,
      "duration": 0.0137,
      "velocity": 120,
      "chip": "ym2612"
    },
    {
      "channel": 3,
      "note": 62,
      "start": 47.2099,
      "duration": 0.0141,
      "velocity": 120,
      "chip": "ym2612"
    },
    {
      "channel": 2,
      "note": 50,
      "start": 47.2111,
      "duration": 0.014,
      "velocity": 100,
      "chip": "ym2612"
    },
    {
      "channel": 1,
      "note": 38,
      "start": 47.2123,
      "duration": 0.0139,
      "velocity": 100,
      "chip": "ym2612"
    },
    {
      "channel": 0,
      "note": 42,
      "start": 47.2213,
      "duration": 0.0161,
      "velocity": 115,
      "chip": "ym2612"
    },
    {
      "channel": 4,
      "note": 67,
      "start": 47.2224,
      "duration": 0.0161,
      "velocity": 120,
      "chip": "ym2612"
    },
    {
      "channel": 3,
      "note": 62,
      "start": 47.224,
      "duration": 0.0185,
      "velocity": 120,
      "chip": "ym2612"
    },
    {
      "channel": 2,
      "note": 50,
      "start": 47.2251,
      "duration": 0.0185,
      "velocity": 100,
      "chip": "ym2612"
    },
    {
      "channel": 1,
      "note": 38,
      "start": 47.2262,
      "duration": 0.0186,
      "velocity": 100,
      "chip": "ym2612"
    },
    {
      "channel": 0,
      "note": 43,
      "start": 47.2374,
      "duration": 0.0161,
      "velocity": 115,
      "chip": "ym2612"
    },
    {
      "channel": 4,
      "note": 67,
      "start": 47.2386,
      "duration": 0.0161,
      "velocity": 120,
      "chip": "ym2612"
    },
    {
      "channel": 3,
      "note": 62,
      "start": 47.2425,
      "duration": 0.0134,
      "velocity": 120,
      "chip": "ym2612"
    },
    {
      "channel": 2,
      "note": 50,
      "start": 47.2436,
      "duration": 0.0161,
      "velocity": 100,
      "chip": "ym2612"
    },
    {
      "channel": 1,
      "note": 38,
      "start": 47.2448,
      "duration": 0.0161,
      "velocity": 100,
      "chip": "ym2612"
    },
    {
      "channel": 0,
      "note": 43,
      "start": 47.2535,
      "duration": 0.0161,
      "velocity": 115,
      "chip": "ym2612"
    },
    {
      "channel": 4,
      "note": 67,
      "start": 47.2547,
      "duration": 0.0161,
      "velocity": 120,
      "chip": "ym2612"
    },
    {
      "channel": 3,
      "note": 62,
      "start": 47.2559,
      "duration": 0.0161,
      "velocity": 120,
      "chip": "ym2612"
    },
    {
      "channel": 2,
      "note": 50,
      "start": 47.2597,
      "duration": 0.0157,
      "velocity": 100,
      "chip": "ym2612"
    },
    {
      "channel": 1,
      "note": 38,
      "start": 47.2609,
      "duration": 0.0157,
      "velocity": 100,
      "chip": "ym2612"
    },
    {
      "channel": 0,
      "note": 44,
      "start": 47.2696,
      "duration": 0.0161,
      "velocity": 115,
      "chip": "ym2612"
    },
    {
      "channel": 4,
      "note": 67,
      "start": 47.2708,
      "duration": 0.0161,
      "velocity": 120,
      "chip": "ym2612"
    },
    {
      "channel": 3,
      "note": 62,
      "start": 47.2719,
      "duration": 0.0161,
      "velocity": 120,
      "chip": "ym2612"
    },
    {
      "channel": 2,
      "note": 50,
      "start": 47.2754,
      "duration": 0.0137,
      "velocity": 100,
      "chip": "ym2612"
    },
    {
      "channel": 1,
      "note": 38,
      "start": 47.2766,
      "duration": 0.0141,
      "velocity": 100,
      "chip": "ym2612"
    },
    {
      "channel": 0,
      "note": 44,
      "start": 47.2857,
      "duration": 0.0161,
      "velocity": 115,
      "chip": "ym2612"
    },
    {
      "channel": 4,
      "note": 67,
      "start": 47.2869,
      "duration": 0.0161,
      "velocity": 120,
      "chip": "ym2612"
    },
    {
      "channel": 3,
      "note": 62,
      "start": 47.288,
      "duration": 0.0161,
      "velocity": 120,
      "chip": "ym2612"
    },
    {
      "channel": 2,
      "note": 50,
      "start": 47.2892,
      "duration": 0.0161,
      "velocity": 100,
      "chip": "ym2612"
    },
    {
      "channel": 1,
      "note": 38,
      "start": 47.2906,
      "duration": 0.0185,
      "velocity": 100,
      "chip": "ym2612"
    },
    {
      "channel": 0,
      "note": 44,
      "start": 47.3018,
      "duration": 0.0161,
      "velocity": 115,
      "chip": "ym2612"
    },
    {
      "channel": 4,
      "note": 67,
      "start": 47.303,
      "duration": 0.0161,
      "velocity": 120,
      "chip": "ym2612"
    },
    {
      "channel": 3,
      "note": 62,
      "start": 47.3041,
      "duration": 0.0161,
      "velocity": 120,
      "chip": "ym2612"
    },
    {
      "channel": 0,
      "note": 45,
      "start": 47.3179,
      "duration": 0.0161,
      "velocity": 115,
      "chip": "ym2612"
    },
    {
      "channel": 4,
      "note": 67,
      "start": 47.3191,
      "duration": 0.0161,
      "velocity": 120,
      "chip": "ym2612"
    },
    {
      "channel": 3,
      "note": 62,
      "start": 47.3202,
      "duration": 0.0161,
      "velocity": 120,
      "chip": "ym2612"
    },
    {
      "channel": 0,
      "note": 45,
      "start": 47.334,
      "duration": 0.0161,
      "velocity": 115,
      "chip": "ym2612"
    },
    {
      "channel": 4,
      "note": 67,
      "start": 47.3352,
      "duration": 0.0161,
      "velocity": 120,
      "chip": "ym2612"
    },
    {
      "channel": 3,
      "note": 62,
      "start": 47.3363,
      "duration": 0.0162,
      "velocity": 120,
      "chip": "ym2612"
    },
    {
      "channel": 0,
      "note": 46,
      "start": 47.3501,
      "duration": 0.0161,
      "velocity": 115,
      "chip": "ym2612"
    },
    {
      "channel": 4,
      "note": 67,
      "start": 47.3513,
      "duration": 0.0161,
      "velocity": 120,
      "chip": "ym2612"
    },
    {
      "channel": 3,
      "note": 62,
      "start": 47.3525,
      "duration": 0.0161,
      "velocity": 120,
      "chip": "ym2612"
    },
    {
      "channel": 0,
      "note": 46,
      "start": 47.3662,
      "duration": 0.0178,
      "velocity": 115,
      "chip": "ym2612"
    },
    {
      "channel": 4,
      "note": 67,
      "start": 47.3673,
      "duration": 0.0179,
      "velocity": 120,
      "chip": "ym2612"
    },
    {
      "channel": 3,
      "note": 62,
      "start": 47.3686,
      "duration": 0.0179,
      "velocity": 120,
      "chip": "ym2612"
    },
    {
      "channel": 0,
      "note": 36,
      "start": 47.3841,
      "duration": 0.0144,
      "velocity": 115,
      "chip": "ym2612"
    },
    {
      "channel": 4,
      "note": 67,
      "start": 47.3853,
      "duration": 0.0144,
      "velocity": 120,
      "chip": "ym2612"
    },
    {
      "channel": 3,
      "note": 62,
      "start": 47.3864,
      "duration": 0.0144,
      "velocity": 120,
      "chip": "ym2612"
    },
    {
      "channel": 2,
      "note": 50,
      "start": 47.388,
      "duration": 0.0141,
      "velocity": 100,
      "chip": "ym2612"
    },
    {
      "channel": 1,
      "note": 38,
      "start": 47.3923,
      "duration": 0.0109,
      "velocity": 100,
      "chip": "ym2612"
    },
    {
      "channel": 0,
      "note": 36,
      "start": 47.3985,
      "duration": 0.016,
      "velocity": 115,
      "chip": "ym2612"
    },
    {
      "channel": 4,
      "note": 67,
      "start": 47.3997,
      "duration": 0.016,
      "velocity": 120,
      "chip": "ym2612"
    },
    {
      "channel": 3,
      "note": 62,
      "start": 47.4008,
      "duration": 0.016,
      "velocity": 120,
      "chip": "ym2612"
    },
    {
      "channel": 2,
      "note": 50,
      "start": 47.402,
      "duration": 0.016,
      "velocity": 100,
      "chip": "ym2612"
    },
    {
      "channel": 1,
      "note": 38,
      "start": 47.4032,
      "duration": 0.0159,
      "velocity": 100,
      "chip": "ym2612"
    },
    {
      "channel": 0,
      "note": 37,
      "start": 47.4145,
      "duration": 0.0161,
      "velocity": 115,
      "chip": "ym2612"
    },
    {
      "channel": 4,
      "note": 67,
      "start": 47.4157,
      "duration": 0.0161,
      "velocity": 120,
      "chip": "ym2612"
    },
    {
      "channel": 3,
      "note": 62,
      "start": 47.4168,
      "duration": 0.0161,
      "velocity": 120,
      "chip": "ym2612"
    },
    {
      "channel": 2,
      "note": 50,
      "start": 47.418,
      "duration": 0.0161,
      "velocity": 100,
      "chip": "ym2612"
    },
    {
      "channel": 1,
      "note": 38,
      "start": 47.4191,
      "duration": 0.0161,
      "velocity": 100,
      "chip": "ym2612"
    },
    {
      "channel": 0,
      "note": 37,
      "start": 47.4306,
      "duration": 0.0161,
      "velocity": 115,
      "chip": "ym2612"
    },
    {
      "channel": 4,
      "note": 67,
      "start": 47.4318,
      "duration": 0.0161,
      "velocity": 120,
      "chip": "ym2612"
    },
    {
      "channel": 3,
      "note": 62,
      "start": 47.4329,
      "duration": 0.0161,
      "velocity": 120,
      "chip": "ym2612"
    },
    {
      "channel": 2,
      "note": 50,
      "start": 47.4341,
      "duration": 0.0161,
      "velocity": 100,
      "chip": "ym2612"
    },
    {
      "channel": 1,
      "note": 38,
      "start": 47.4352,
      "duration": 0.0161,
      "velocity": 100,
      "chip": "ym2612"
    },
    {
      "channel": 0,
      "note": 38,
      "start": 47.4467,
      "duration": 0.0161,
      "velocity": 115,
      "chip": "ym2612"
    },
    {
      "channel": 4,
      "note": 67,
      "start": 47.4479,
      "duration": 0.0161,
      "velocity": 120,
      "chip": "ym2612"
    },
    {
      "channel": 3,
      "note": 62,
      "start": 47.449,
      "duration": 0.0161,
      "velocity": 120,
      "chip": "ym2612"
    },
    {
      "channel": 2,
      "note": 50,
      "start": 47.4502,
      "duration": 0.0161,
      "velocity": 100,
      "chip": "ym2612"
    },
    {
      "channel": 1,
      "note": 38,
      "start": 47.4513,
      "duration": 0.0161,
      "velocity": 100,
      "chip": "ym2612"
    },
    {
      "channel": 0,
      "note": 38,
      "start": 47.4628,
      "duration": 0.0161,
      "velocity": 115,
      "chip": "ym2612"
    },
    {
      "channel": 4,
      "note": 67,
      "start": 47.464,
      "duration": 0.0161,
      "velocity": 120,
      "chip": "ym2612"
    },
    {
      "channel": 3,
      "note": 62,
      "start": 47.4651,
      "duration": 0.0161,
      "velocity": 120,
      "chip": "ym2612"
    },
    {
      "channel": 2,
      "note": 50,
      "start": 47.4663,
      "duration": 0.0161,
      "velocity": 100,
      "chip": "ym2612"
    },
    {
      "channel": 1,
      "note": 38,
      "start": 47.4674,
      "duration": 0.0161,
      "velocity": 100,
      "chip": "ym2612"
    },
    {
      "channel": 0,
      "note": 39,
      "start": 47.4789,
      "duration": 0.0161,
      "velocity": 115,
      "chip": "ym2612"
    },
    {
      "channel": 4,
      "note": 67,
      "start": 47.4801,
      "duration": 0.0161,
      "velocity": 120,
      "chip": "ym2612"
    },
    {
      "channel": 3,
      "note": 62,
      "start": 47.4812,
      "duration": 0.0162,
      "velocity": 120,
      "chip": "ym2612"
    },
    {
      "channel": 2,
      "note": 50,
      "start": 47.4824,
      "duration": 0.0161,
      "velocity": 100,
      "chip": "ym2612"
    },
    {
      "channel": 1,
      "note": 38,
      "start": 47.4835,
      "duration": 0.0161,
      "velocity": 100,
      "chip": "ym2612"
    },
    {
      "channel": 0,
      "note": 39,
      "start": 47.495,
      "duration": 0.0161,
      "velocity": 115,
      "chip": "ym2612"
    },
    {
      "channel": 4,
      "note": 67,
      "start": 47.4962,
      "duration": 0.0162,
      "velocity": 120,
      "chip": "ym2612"
    },
    {
      "channel": 3,
      "note": 62,
      "start": 47.4974,
      "duration": 0.0161,
      "velocity": 120,
      "chip": "ym2612"
    },
    {
      "channel": 0,
      "note": 40,
      "start": 47.5111,
      "duration": 0.0162,
      "velocity": 115,
      "chip": "ym2612"
    },
    {
      "channel": 4,
      "note": 67,
      "start": 47.5123,
      "duration": 0.0161,
      "velocity": 120,
      "chip": "ym2612"
    },
    {
      "channel": 3,
      "note": 62,
      "start": 47.5135,
      "duration": 0.0162,
      "velocity": 120,
      "chip": "ym2612"
    },
    {
      "channel": 0,
      "note": 40,
      "start": 47.5273,
      "duration": 0.0163,
      "velocity": 115,
      "chip": "ym2612"
    },
    {
      "channel": 4,
      "note": 67,
      "start": 47.5285,
      "duration": 0.0163,
      "velocity": 120,
      "chip": "ym2612"
    },
    {
      "channel": 3,
      "note": 62,
      "start": 47.5297,
      "duration": 0.0163,
      "velocity": 120,
      "chip": "ym2612"
    },
    {
      "channel": 0,
      "note": 40,
      "start": 47.5436,
      "duration": 0.0158,
      "velocity": 115,
      "chip": "ym2612"
    },
    {
      "channel": 4,
      "note": 67,
      "start": 47.5448,
      "duration": 0.0158,
      "velocity": 120,
      "chip": "ym2612"
    },
    {
      "channel": 3,
      "note": 62,
      "start": 47.546,
      "duration": 0.0158,
      "velocity": 120,
      "chip": "ym2612"
    },
    {
      "channel": 0,
      "note": 41,
      "start": 47.5594,
      "duration": 0.0214,
      "velocity": 115,
      "chip": "ym2612"
    },
    {
      "channel": 4,
      "note": 67,
      "start": 47.5606,
      "duration": 0.0214,
      "velocity": 120,
      "chip": "ym2612"
    },
    {
      "channel": 3,
      "note": 62,
      "start": 47.5618,
      "duration": 0.0214,
      "velocity": 120,
      "chip": "ym2612"
    },
    {
      "channel": 1,
      "note": 78,
      "start": 47.5791,
      "duration": 0.0149,
      "velocity": 124,
      "chip": "ym2612"
    },
    {
      "channel": 0,
      "note": 41,
      "start": 47.5808,
      "duration": 0.0149,
      "velocity": 115,
      "chip": "ym2612"
    },
    {
      "channel": 4,
      "note": 67,
      "start": 47.582,
      "duration": 0.0149,
      "velocity": 120,
      "chip": "ym2612"
    },
    {
      "channel": 3,
      "note": 62,
      "start": 47.5831,
      "duration": 0.0149,
      "velocity": 120,
      "chip": "ym2612"
    },
    {
      "channel": 2,
      "note": 50,
      "start": 47.5846,
      "duration": 0.0146,
      "velocity": 100,
      "chip": "ym2612"
    },
    {
      "channel": 1,
      "note": 76,
      "start": 47.5939,
      "duration": 0.016,
      "velocity": 124,
      "chip": "ym2612"
    },
    {
      "channel": 0,
      "note": 42,
      "start": 47.5957,
      "duration": 0.0161,
      "velocity": 115,
      "chip": "ym2612"
    },
    {
      "channel": 4,
      "note": 67,
      "start": 47.5969,
      "duration": 0.016,
      "velocity": 120,
      "chip": "ym2612"
    },
    {
      "channel": 3,
      "note": 62,
      "start": 47.5981,
      "duration": 0.016,
      "velocity": 120,
      "chip": "ym2612"
    },
    {
      "channel": 2,
      "note": 50,
      "start": 47.5992,
      "duration": 0.016,
      "velocity": 100,
      "chip": "ym2612"
    },
    {
      "channel": 1,
      "note": 75,
      "start": 47.61,
      "duration": 0.0141,
      "velocity": 124,
      "chip": "ym2612"
    },
    {
      "channel": 0,
      "note": 42,
      "start": 47.6118,
      "duration": 0.014,
      "velocity": 115,
      "chip": "ym2612"
    },
    {
      "channel": 4,
      "note": 67,
      "start": 47.6129,
      "duration": 0.0141,
      "velocity": 120,
      "chip": "ym2612"
    },
    {
      "channel": 3,
      "note": 62,
      "start": 47.6141,
      "duration": 0.014,
      "velocity": 120,
      "chip": "ym2612"
    },
    {
      "channel": 2,
      "note": 50,
      "start": 47.6152,
      "duration": 0.0141,
      "velocity": 100,
      "chip": "ym2612"
    },
    {
      "channel": 1,
      "note": 74,
      "start": 47.624,
      "duration": 0.0185,
      "velocity": 124,
      "chip": "ym2612"
    },
    {
      "channel": 0,
      "note": 43,
      "start": 47.6258,
      "duration": 0.0186,
      "velocity": 115,
      "chip": "ym2612"
    },
    {
      "channel": 4,
      "note": 67,
      "start": 47.627,
      "duration": 0.0186,
      "velocity": 120,
      "chip": "ym2612"
    },
    {
      "channel": 3,
      "note": 62,
      "start": 47.6281,
      "duration": 0.0186,
      "velocity": 120,
      "chip": "ym2612"
    },
    {
      "channel": 2,
      "note": 50,
      "start": 47.6293,
      "duration": 0.0186,
      "velocity": 100,
      "chip": "ym2612"
    },
    {
      "channel": 1,
      "note": 72,
      "start": 47.6425,
      "duration": 0.0161,
      "velocity": 124,
      "chip": "ym2612"
    },
    {
      "channel": 0,
      "note": 43,
      "start": 47.6443,
      "duration": 0.0161,
      "velocity": 115,
      "chip": "ym2612"
    },
    {
      "channel": 4,
      "note": 67,
      "start": 47.6455,
      "duration": 0.0161,
      "velocity": 120,
      "chip": "ym2612"
    },
    {
      "channel": 3,
      "note": 62,
      "start": 47.6467,
      "duration": 0.0161,
      "velocity": 120,
      "chip": "ym2612"
    },
    {
      "channel": 2,
      "note": 50,
      "start": 47.6478,
      "duration": 0.0161,
      "velocity": 100,
      "chip": "ym2612"
    },
    {
      "channel": 1,
      "note": 71,
      "start": 47.6586,
      "duration": 0.0134,
      "velocity": 124,
      "chip": "ym2612"
    },
    {
      "channel": 0,
      "note": 44,
      "start": 47.6604,
      "duration": 0.0157,
      "velocity": 115,
      "chip": "ym2612"
    },
    {
      "channel": 4,
      "note": 67,
      "start": 47.6616,
      "duration": 0.0157,
      "velocity": 120,
      "chip": "ym2612"
    },
    {
      "channel": 3,
      "note": 62,
      "start": 47.6628,
      "duration": 0.0157,
      "velocity": 120,
      "chip": "ym2612"
    },
    {
      "channel": 2,
      "note": 50,
      "start": 47.6639,
      "duration": 0.0157,
      "velocity": 100,
      "chip": "ym2612"
    },
    {
      "channel": 1,
      "note": 70,
      "start": 47.6721,
      "duration": 0.0161,
      "velocity": 124,
      "chip": "ym2612"
    },
    {
      "channel": 0,
      "note": 44,
      "start": 47.6761,
      "duration": 0.0141,
      "velocity": 115,
      "chip": "ym2612"
    },
    {
      "channel": 4,
      "note": 67,
      "start": 47.6773,
      "duration": 0.0141,
      "velocity": 120,
      "chip": "ym2612"
    },
    {
      "channel": 3,
      "note": 62,
      "start": 47.6785,
      "duration": 0.0141,
      "velocity": 120,
      "chip": "ym2612"
    },
    {
      "channel": 2,
      "note": 50,
      "start": 47.6796,
      "duration": 0.0141,
      "velocity": 100,
      "chip": "ym2612"
    },
    {
      "channel": 1,
      "note": 69,
      "start": 47.6882,
      "duration": 0.0161,
      "velocity": 124,
      "chip": "ym2612"
    },
    {
      "channel": 0,
      "note": 44,
      "start": 47.6902,
      "duration": 0.0185,
      "velocity": 115,
      "chip": "ym2612"
    },
    {
      "channel": 4,
      "note": 67,
      "start": 47.6914,
      "duration": 0.0185,
      "velocity": 120,
      "chip": "ym2612"
    },
    {
      "channel": 3,
      "note": 62,
      "start": 47.6925,
      "duration": 0.0185,
      "velocity": 120,
      "chip": "ym2612"
    },
    {
      "channel": 1,
      "note": 68,
      "start": 47.7042,
      "duration": 0.0161,
      "velocity": 124,
      "chip": "ym2612"
    },
    {
      "channel": 0,
      "note": 45,
      "start": 47.7087,
      "duration": 0.0134,
      "velocity": 115,
      "chip": "ym2612"
    },
    {
      "channel": 4,
      "note": 67,
      "start": 47.7099,
      "duration": 0.0161,
      "velocity": 120,
      "chip": "ym2612"
    },
    {
      "channel": 3,
      "note": 62,
      "start": 47.7111,
      "duration": 0.0161,
      "velocity": 120,
      "chip": "ym2612"
    },
    {
      "channel": 1,
      "note": 66,
      "start": 47.7203,
      "duration": 0.0161,
      "velocity": 124,
      "chip": "ym2612"
    },
    {
      "channel": 0,
      "note": 45,
      "start": 47.7221,
      "duration": 0.0161,
      "velocity": 115,
      "chip": "ym2612"
    },
    {
      "channel": 4,
      "note": 67,
      "start": 47.726,
      "duration": 0.0157,
      "velocity": 120,
      "chip": "ym2612"
    },
    {
      "channel": 3,
      "note": 62,
      "start": 47.7271,
      "duration": 0.0158,
      "velocity": 120,
      "chip": "ym2612"
    },
    {
      "channel": 1,
      "note": 65,
      "start": 47.7364,
      "duration": 0.0161,
      "velocity": 124,
      "chip": "ym2612"
    },
    {
      "channel": 0,
      "note": 46,
      "start": 47.7382,
      "duration": 0.0161,
      "velocity": 115,
      "chip": "ym2612"
    },
    {
      "channel": 4,
      "note": 67,
      "start": 47.7417,
      "duration": 0.0137,
      "velocity": 120,
      "chip": "ym2612"
    },
    {
      "channel": 3,
      "note": 62,
      "start": 47.7429,
      "duration": 0.014,
      "velocity": 120,
      "chip": "ym2612"
    },
    {
      "channel": 1,
      "note": 64,
      "start": 47.7525,
      "duration": 0.0161,
      "velocity": 124,
      "chip": "ym2612"
    },
    {
      "channel": 0,
      "note": 46,
      "start": 47.7542,
      "duration": 0.0161,
      "velocity": 115,
      "chip": "ym2612"
    },
    {
      "channel": 4,
      "note": 67,
      "start": 47.7555,
      "duration": 0.0161,
      "velocity": 120,
      "chip": "ym2612"
    },
    {
      "channel": 3,
      "note": 62,
      "start": 47.7569,
      "duration": 0.0186,
      "velocity": 120,
      "chip": "ym2612"
    },
    {
      "channel": 1,
      "note": 62,
      "start": 47.7686,
      "duration": 0.0161,
      "velocity": 124,
      "chip": "ym2612"
    },
    {
      "channel": 0,
      "note": 47,
      "start": 47.7703,
      "duration": 0.0161,
      "velocity": 115,
      "chip": "ym2612"
    },
    {
      "channel": 4,
      "note": 67,
      "start": 47.7716,
      "duration": 0.0161,
      "velocity": 120,
      "chip": "ym2612"
    },
    {
      "channel": 3,
      "note": 62,
      "start": 47.7755,
      "duration": 0.0133,
      "velocity": 120,
      "chip": "ym2612"
    },
    {
      "channel": 2,
      "note": 50,
      "start": 47.777,
      "duration": 0.0157,
      "velocity": 100,
      "chip": "ym2612"
    },
    {
      "channel": 1,
      "note": 61,
      "start": 47.7847,
      "duration": 0.0161,
      "velocity": 124,
      "chip": "ym2612"
    },
    {
      "channel": 0,
      "note": 47,
      "start": 47.7864,
      "duration": 0.0161,
      "velocity": 115,
      "chip": "ym2612"
    },
    {
      "channel": 4,
      "note": 67,
      "start": 47.7876,
      "duration": 0.0161,
      "velocity": 120,
      "chip": "ym2612"
    },
    {
      "channel": 3,
      "note": 62,
      "start": 47.7888,
      "duration": 0.0161,
      "velocity": 120,
      "chip": "ym2612"
    },
    {
      "channel": 2,
      "note": 50,
      "start": 47.7927,
      "duration": 0.0156,
      "velocity": 100,
      "chip": "ym2612"
    },
    {
      "channel": 1,
      "note": 60,
      "start": 47.8008,
      "duration": 0.0161,
      "velocity": 124,
      "chip": "ym2612"
    },
    {
      "channel": 0,
      "note": 47,
      "start": 47.8025,
      "duration": 0.0161,
      "velocity": 115,
      "chip": "ym2612"
    },
    {
      "channel": 4,
      "note": 67,
      "start": 47.8037,
      "duration": 0.0161,
      "velocity": 120,
      "chip": "ym2612"
    },
    {
      "channel": 3,
      "note": 62,
      "start": 47.8049,
      "duration": 0.0161,
      "velocity": 120,
      "chip": "ym2612"
    },
    {
      "channel": 2,
      "note": 50,
      "start": 47.8084,
      "duration": 0.0137,
      "velocity": 100,
      "chip": "ym2612"
    },
    {
      "channel": 1,
      "note": 59,
      "start": 47.8169,
      "duration": 0.0161,
      "velocity": 124,
      "chip": "ym2612"
    },
    {
      "channel": 0,
      "note": 48,
      "start": 47.8186,
      "duration": 0.0162,
      "velocity": 115,
      "chip": "ym2612"
    },
    {
      "channel": 4,
      "note": 67,
      "start": 47.8198,
      "duration": 0.0161,
      "velocity": 120,
      "chip": "ym2612"
    },
    {
      "channel": 3,
      "note": 62,
      "start": 47.821,
      "duration": 0.0162,
      "velocity": 120,
      "chip": "ym2612"
    },
    {
      "channel": 2,
      "note": 50,
      "start": 47.8221,
      "duration": 0.0161,
      "velocity": 100,
      "chip": "ym2612"
    },
    {
      "channel": 1,
      "note": 57,
      "start": 47.8331,
      "duration": 0.0161,
      "velocity": 124,
      "chip": "ym2612"
    },
    {
      "channel": 0,
      "note": 48,
      "start": 47.8348,
      "duration": 0.0161,
      "velocity": 115,
      "chip": "ym2612"
    },
    {
      "channel": 4,
      "note": 67,
      "start": 47.836,
      "duration": 0.0161,
      "velocity": 120,
      "chip": "ym2612"
    },
    {
      "channel": 3,
      "note": 62,
      "start": 47.8371,
      "duration": 0.0161,
      "velocity": 120,
      "chip": "ym2612"
    },
    {
      "channel": 2,
      "note": 50,
      "start": 47.8383,
      "duration": 0.0161,
      "velocity": 100,
      "chip": "ym2612"
    },
    {
      "channel": 1,
      "note": 56,
      "start": 47.8492,
      "duration": 0.0161,
      "velocity": 124,
      "chip": "ym2612"
    },
    {
      "channel": 0,
      "note": 49,
      "start": 47.8509,
      "duration": 0.0153,
      "velocity": 1,
      "chip": "ym2612"
    },
    {
      "channel": 4,
      "note": 67,
      "start": 47.8521,
      "duration": 0.0153,
      "velocity": 120,
      "chip": "ym2612"
    },
    {
      "channel": 3,
      "note": 62,
      "start": 47.8532,
      "duration": 0.0153,
      "velocity": 120,
      "chip": "ym2612"
    },
    {
      "channel": 2,
      "note": 50,
      "start": 47.8544,
      "duration": 0.0153,
      "velocity": 100,
      "chip": "ym2612"
    },
    {
      "channel": 1,
      "note": 55,
      "start": 47.8653,
      "duration": 0.0161,
      "velocity": 124,
      "chip": "ym2612"
    },
    {
      "channel": 4,
      "note": 67,
      "start": 47.8673,
      "duration": 0.0153,
      "velocity": 120,
      "chip": "ym2612"
    },
    {
      "channel": 3,
      "note": 62,
      "start": 47.8685,
      "duration": 0.0153,
      "velocity": 120,
      "chip": "ym2612"
    },
    {
      "channel": 2,
      "note": 50,
      "start": 47.8696,
      "duration": 0.0153,
      "velocity": 100,
      "chip": "ym2612"
    },
    {
      "channel": 1,
      "note": 53,
      "start": 47.8814,
      "duration": 0.0161,
      "velocity": 124,
      "chip": "ym2612"
    },
    {
      "channel": 4,
      "note": 67,
      "start": 47.8826,
      "duration": 0.0161,
      "velocity": 120,
      "chip": "ym2612"
    },
    {
      "channel": 3,
      "note": 62,
      "start": 47.8838,
      "duration": 0.0162,
      "velocity": 120,
      "chip": "ym2612"
    },
    {
      "channel": 1,
      "note": 52,
      "start": 47.8974,
      "duration": 0.0161,
      "velocity": 124,
      "chip": "ym2612"
    },
    {
      "channel": 4,
      "note": 67,
      "start": 47.8987,
      "duration": 0.0161,
      "velocity": 120,
      "chip": "ym2612"
    },
    {
      "channel": 3,
      "note": 62,
      "start": 47.8999,
      "duration": 0.016,
      "velocity": 120,
      "chip": "ym2612"
    },
    {
      "channel": 1,
      "note": 51,
      "start": 47.9135,
      "duration": 0.0153,
      "velocity": 1,
      "chip": "ym2612"
    },
    {
      "channel": 4,
      "note": 67,
      "start": 47.9148,
      "duration": 0.0153,
      "velocity": 120,
      "chip": "ym2612"
    },
    {
      "channel": 3,
      "note": 62,
      "start": 47.916,
      "duration": 0.0153,
      "velocity": 120,
      "chip": "ym2612"
    },
    {
      "channel": 4,
      "note": 67,
      "start": 47.9301,
      "duration": 0.0152,
      "velocity": 120,
      "chip": "ym2612"
    },
    {
      "channel": 3,
      "note": 62,
      "start": 47.9313,
      "duration": 0.0153,
      "velocity": 120,
      "chip": "ym2612"
    },
    {
      "channel": 4,
      "note": 67,
      "start": 47.9454,
      "duration": 0.0198,
      "velocity": 120,
      "chip": "ym2612"
    },
    {
      "channel": 3,
      "note": 62,
      "start": 47.9466,
      "duration": 0.02,
      "velocity": 120,
      "chip": "ym2612"
    },
    {
      "channel": 0,
      "note": 36,
      "start": 47.9637,
      "duration": 0.0144,
      "velocity": 115,
      "chip": "ym2612"
    },
    {
      "channel": 4,
      "note": 72,
      "start": 47.9652,
      "duration": 0.0141,
      "velocity": 120,
      "chip": "ym2612"
    },
    {
      "channel": 3,
      "note": 67,
      "start": 47.9666,
      "duration": 0.0139,
      "velocity": 120,
      "chip": "ym2612"
    },
    {
      "channel": 2,
      "note": 50,
      "start": 47.9681,
      "duration": 0.0136,
      "velocity": 100,
      "chip": "ym2612"
    },
    {
      "channel": 1,
      "note": 38,
      "start": 47.9696,
      "duration": 0.0132,
      "velocity": 100,
      "chip": "ym2612"
    },
    {
      "channel": 0,
      "note": 36,
      "start": 47.9781,
      "duration": 0.016,
      "velocity": 115,
      "chip": "ym2612"
    },
    {
      "channel": 4,
      "note": 72,
      "start": 47.9793,
      "duration": 0.016,
      "velocity": 120,
      "chip": "ym2612"
    },
    {
      "channel": 3,
      "note": 67,
      "start": 47.9805,
      "duration": 0.016,
      "velocity": 120,
      "chip": "ym2612"
    },
    {
      "channel": 2,
      "note": 50,
      "start": 47.9817,
      "duration": 0.0159,
      "velocity": 100,
      "chip": "ym2612"
    },
    {
      "channel": 1,
      "note": 38,
      "start": 47.9829,
      "duration": 0.0158,
      "velocity": 100,
      "chip": "ym2612"
    },
    {
      "channel": 0,
      "note": 37,
      "start": 47.9941,
      "duration": 0.0162,
      "velocity": 115,
      "chip": "ym2612"
    },
    {
      "channel": 4,
      "note": 72,
      "start": 47.9954,
      "duration": 0.0161,
      "velocity": 120,
      "chip": "ym2612"
    },
    {
      "channel": 3,
      "note": 67,
      "start": 47.9965,
      "duration": 0.0162,
      "velocity": 120,
      "chip": "ym2612"
    },
    {
      "channel": 2,
      "note": 50,
      "start": 47.9976,
      "duration": 0.0161,
      "velocity": 100,
      "chip": "ym2612"
    },
    {
      "channel": 1,
      "note": 38,
      "start": 47.9987,
      "duration": 0.0162,
      "velocity": 100,
      "chip": "ym2612"
    },
    {
      "channel": 0,
      "note": 37,
      "start": 48.0103,
      "duration": 0.016,
      "velocity": 115,
      "chip": "ym2612"
    },
    {
      "channel": 4,
      "note": 72,
      "start": 48.0115,
      "duration": 0.016,
      "velocity": 120,
      "chip": "ym2612"
    },
    {
      "channel": 3,
      "note": 67,
      "start": 48.0127,
      "duration": 0.016,
      "velocity": 120,
      "chip": "ym2612"
    },
    {
      "channel": 2,
      "note": 50,
      "start": 48.0137,
      "duration": 0.016,
      "velocity": 100,
      "chip": "ym2612"
    },
    {
      "channel": 1,
      "note": 38,
      "start": 48.0149,
      "duration": 0.016,
      "velocity": 100,
      "chip": "ym2612"
    },
    {
      "channel": 0,
      "note": 38,
      "start": 48.0263,
      "duration": 0.0177,
      "velocity": 115,
      "chip": "ym2612"
    },
    {
      "channel": 4,
      "note": 72,
      "start": 48.0275,
      "duration": 0.0176,
      "velocity": 120,
      "chip": "ym2612"
    },
    {
      "channel": 3,
      "note": 67,
      "start": 48.0287,
      "duration": 0.0176,
      "velocity": 120,
      "chip": "ym2612"
    },
    {
      "channel": 2,
      "note": 50,
      "start": 48.0298,
      "duration": 0.0177,
      "velocity": 100,
      "chip": "ym2612"
    },
    {
      "channel": 1,
      "note": 38,
      "start": 48.0309,
      "duration": 0.0177,
      "velocity": 100,
      "chip": "ym2612"
    },
    {
      "channel": 0,
      "note": 38,
      "start": 48.044,
      "duration": 0.0167,
      "velocity": 115,
      "chip": "ym2612"
    },
    {
      "channel": 4,
      "note": 72,
      "start": 48.0451,
      "duration": 0.0167,
      "velocity": 120,
      "chip": "ym2612"
    },
    {
      "channel": 3,
      "note": 67,
      "start": 48.0463,
      "duration": 0.0167,
      "velocity": 120,
      "chip": "ym2612"
    },
    {
      "channel": 2,
      "note": 50,
      "start": 48.0474,
      "duration": 0.0167,
      "velocity": 100,
      "chip": "ym2612"
    },
    {
      "channel": 1,
      "note": 38,
      "start": 48.0486,
      "duration": 0.0167,
      "velocity": 100,
      "chip": "ym2612"
    },
    {
      "channel": 0,
      "note": 39,
      "start": 48.0607,
      "duration": 0.0163,
      "velocity": 115,
      "chip": "ym2612"
    },
    {
      "channel": 4,
      "note": 72,
      "start": 48.0618,
      "duration": 0.0163,
      "velocity": 120,
      "chip": "ym2612"
    },
    {
      "channel": 3,
      "note": 67,
      "start": 48.063,
      "duration": 0.0163,
      "velocity": 120,
      "chip": "ym2612"
    },
    {
      "channel": 2,
      "note": 50,
      "start": 48.0641,
      "duration": 0.0163,
      "velocity": 100,
      "chip": "ym2612"
    },
    {
      "channel": 1,
      "note": 38,
      "start": 48.0653,
      "duration": 0.0163,
      "velocity": 100,
      "chip": "ym2612"
    },
    {
      "channel": 0,
      "note": 39,
      "start": 48.077,
      "duration": 0.0141,
      "velocity": 115,
      "chip": "ym2612"
    },
    {
      "channel": 4,
      "note": 72,
      "start": 48.0782,
      "duration": 0.0141,
      "velocity": 120,
      "chip": "ym2612"
    },
    {
      "channel": 3,
      "note": 67,
      "start": 48.0793,
      "duration": 0.0141,
      "velocity": 120,
      "chip": "ym2612"
    },
    {
      "channel": 0,
      "note": 40,
      "start": 48.0911,
      "duration": 0.0185,
      "velocity": 115,
      "chip": "ym2612"
    },
    {
      "channel": 4,
      "note": 72,
      "start": 48.0922,
      "duration": 0.0185,
      "velocity": 120,
      "chip": "ym2612"
    },
    {
      "channel": 3,
      "note": 67,
      "start": 48.0934,
      "duration": 0.0185,
      "velocity": 120,
      "chip": "ym2612"
    },
    {
      "channel": 0,
      "note": 40,
      "start": 48.1096,
      "duration": 0.0161,
      "velocity": 115,
      "chip": "ym2612"
    },
    {
      "channel": 4,
      "note": 72,
      "start": 48.1107,
      "duration": 0.0161,
      "velocity": 120,
      "chip": "ym2612"
    },
    {
      "channel": 3,
      "note": 67,
      "start": 48.1119,
      "duration": 0.0162,
      "velocity": 120,
      "chip": "ym2612"
    },
    {
      "channel": 0,
      "note": 40,
      "start": 48.1257,
      "duration": 0.0134,
      "velocity": 115,
      "chip": "ym2612"
    },
    {
      "channel": 4,
      "note": 72,
      "start": 48.1269,
      "duration": 0.0157,
      "velocity": 120,
      "chip": "ym2612"
    },
    {
      "channel": 3,
      "note": 67,
      "start": 48.128,
      "duration": 0.0157,
      "velocity": 120,
      "chip": "ym2612"
    },
    {
      "channel": 0,
      "note": 41,
      "start": 48.139,
      "duration": 0.0161,
      "velocity": 115,
      "chip": "ym2612"
    },
    {
      "channel": 4,
      "note": 72,
      "start": 48.1426,
      "duration": 0.0141,
      "velocity": 120,
      "chip": "ym2612"
    },
    {
      "channel": 3,
      "note": 67,
      "start": 48.1438,
      "duration": 0.0141,
      "velocity": 120,
      "chip": "ym2612"
    },
    {
      "channel": 0,
      "note": 41,
      "start": 48.1551,
      "duration": 0.0161,
      "velocity": 115,
      "chip": "ym2612"
    },
    {
      "channel": 4,
      "note": 72,
      "start": 48.1567,
      "duration": 0.0158,
      "velocity": 120,
      "chip": "ym2612"
    },
    {
      "channel": 3,
      "note": 67,
      "start": 48.1578,
      "duration": 0.0185,
      "velocity": 120,
      "chip": "ym2612"
    },
    {
      "channel": 2,
      "note": 50,
      "start": 48.1593,
      "duration": 0.0182,
      "velocity": 100,
      "chip": "ym2612"
    },
    {
      "channel": 1,
      "note": 38,
      "start": 48.1609,
      "duration": 0.0179,
      "velocity": 100,
      "chip": "ym2612"
    },
    {
      "channel": 0,
      "note": 42,
      "start": 48.1712,
      "duration": 0.0161,
      "velocity": 115,
      "chip": "ym2612"
    },
    {
      "channel": 4,
      "note": 72,
      "start": 48.1724,
      "duration": 0.0161,
      "velocity": 120,
      "chip": "ym2612"
    },
    {
      "channel": 3,
      "note": 67,
      "start": 48.1763,
      "duration": 0.0161,
      "velocity": 120,
      "chip": "ym2612"
    },
    {
      "channel": 2,
      "note": 50,
      "start": 48.1775,
      "duration": 0.016,
      "velocity": 100,
      "chip": "ym2612"
    },
    {
      "channel": 1,
      "note": 38,
      "start": 48.1788,
      "duration": 0.016,
      "velocity": 100,
      "chip": "ym2612"
    },
    {
      "channel": 0,
      "note": 42,
      "start": 48.1873,
      "duration": 0.0161,
      "velocity": 115,
      "chip": "ym2612"
    },
    {
      "channel": 4,
      "note": 72,
      "start": 48.1885,
      "duration": 0.0161,
      "velocity": 120,
      "chip": "ym2612"
    },
    {
      "channel": 3,
      "note": 67,
      "start": 48.1924,
      "duration": 0.0134,
      "velocity": 120,
      "chip": "ym2612"
    },
    {
      "channel": 2,
      "note": 50,
      "start": 48.1936,
      "duration": 0.0158,
      "velocity": 100,
      "chip": "ym2612"
    },
    {
      "channel": 1,
      "note": 38,
      "start": 48.1947,
      "duration": 0.0158,
      "velocity": 100,
      "chip": "ym2612"
    },
    {
      "channel": 0,
      "note": 43,
      "start": 48.2034,
      "duration": 0.0161,
      "velocity": 115,
      "chip": "ym2612"
    },
    {
      "channel": 4,
      "note": 72,
      "start": 48.2046,
      "duration": 0.0161,
      "velocity": 120,
      "chip": "ym2612"
    },
    {
      "channel": 3,
      "note": 67,
      "start": 48.2058,
      "duration": 0.0161,
      "velocity": 120,
      "chip": "ym2612"
    },
    {
      "channel": 2,
      "note": 50,
      "start": 48.2093,
      "duration": 0.014,
      "velocity": 100,
      "chip": "ym2612"
    },
    {
      "channel": 1,
      "note": 38,
      "start": 48.2105,
      "duration": 0.014,
      "velocity": 100,
      "chip": "ym2612"
    },
    {
      "channel": 0,
      "note": 43,
      "start": 48.2195,
      "duration": 0.0161,
      "velocity": 115,
      "chip": "ym2612"
    },
    {
      "channel": 4,
      "note": 72,
      "start": 48.2207,
      "duration": 0.0161,
      "velocity": 120,
      "chip": "ym2612"
    },
    {
      "channel": 3,
      "note": 67,
      "start": 48.2219,
      "duration": 0.0161,
      "velocity": 120,
      "chip": "ym2612"
    },
    {
      "channel": 2,
      "note": 50,
      "start": 48.2233,
      "duration": 0.0158,
      "velocity": 100,
      "chip": "ym2612"
    },
    {
      "channel": 1,
      "note": 38,
      "start": 48.2245,
      "duration": 0.0185,
      "velocity": 100,
      "chip": "ym2612"
    },
    {
      "channel": 0,
      "note": 44,
      "start": 48.2356,
      "duration": 0.0161,
      "velocity": 115,
      "chip": "ym2612"
    },
    {
      "channel": 4,
      "note": 72,
      "start": 48.2368,
      "duration": 0.0161,
      "velocity": 120,
      "chip": "ym2612"
    },
    {
      "channel": 3,
      "note": 67,
      "start": 48.238,
      "duration": 0.0162,
      "velocity": 120,
      "chip": "ym2612"
    },
    {
      "channel": 2,
      "note": 50,
      "start": 48.2391,
      "duration": 0.0161,
      "velocity": 100,
      "chip": "ym2612"
    },
    {
      "channel": 1,
      "note": 38,
      "start": 48.243,
      "duration": 0.0161,
      "velocity": 100,
      "chip": "ym2612"
    },
    {
      "channel": 0,
      "note": 44,
      "start": 48.2518,
      "duration": 0.0161,
      "velocity": 115,
      "chip": "ym2612"
    },
    {
      "channel": 4,
      "note": 72,
      "start": 48.2529,
      "duration": 0.0161,
      "velocity": 120,
      "chip": "ym2612"
    },
    {
      "channel": 3,
      "note": 67,
      "start": 48.2541,
      "duration": 0.0161,
      "velocity": 120,
      "chip": "ym2612"
    },
    {
      "channel": 2,
      "note": 50,
      "start": 48.2552,
      "duration": 0.0161,
      "velocity": 100,
      "chip": "ym2612"
    },
    {
      "channel": 1,
      "note": 38,
      "start": 48.2591,
      "duration": 0.0134,
      "velocity": 100,
      "chip": "ym2612"
    },
    {
      "channel": 0,
      "note": 44,
      "start": 48.2679,
      "duration": 0.0161,
      "velocity": 115,
      "chip": "ym2612"
    },
    {
      "channel": 4,
      "note": 72,
      "start": 48.269,
      "duration": 0.0162,
      "velocity": 120,
      "chip": "ym2612"
    },
    {
      "channel": 3,
      "note": 67,
      "start": 48.2702,
      "duration": 0.0161,
      "velocity": 120,
      "chip": "ym2612"
    },
    {
      "channel": 0,
      "note": 45,
      "start": 48.284,
      "duration": 0.0161,
      "velocity": 115,
      "chip": "ym2612"
    },
    {
      "channel": 4,
      "note": 72,
      "start": 48.2852,
      "duration": 0.0161,
      "velocity": 120,
      "chip": "ym2612"
    },
    {
      "channel": 3,
      "note": 67,
      "start": 48.2863,
      "duration": 0.0161,
      "velocity": 120,
      "chip": "ym2612"
    },
    {
      "channel": 0,
      "note": 45,
      "start": 48.3,
      "duration": 0.0161,
      "velocity": 115,
      "chip": "ym2612"
    },
    {
      "channel": 4,
      "note": 72,
      "start": 48.3013,
      "duration": 0.0161,
      "velocity": 120,
      "chip": "ym2612"
    },
    {
      "channel": 3,
      "note": 67,
      "start": 48.3024,
      "duration": 0.0161,
      "velocity": 120,
      "chip": "ym2612"
    },
    {
      "channel": 0,
      "note": 46,
      "start": 48.3161,
      "duration": 0.0161,
      "velocity": 115,
      "chip": "ym2612"
    },
    {
      "channel": 4,
      "note": 72,
      "start": 48.3173,
      "duration": 0.0161,
      "velocity": 120,
      "chip": "ym2612"
    },
    {
      "channel": 3,
      "note": 67,
      "start": 48.3185,
      "duration": 0.0161,
      "velocity": 120,
      "chip": "ym2612"
    },
    {
      "channel": 0,
      "note": 46,
      "start": 48.3322,
      "duration": 0.0195,
      "velocity": 115,
      "chip": "ym2612"
    },
    {
      "channel": 4,
      "note": 72,
      "start": 48.3334,
      "duration": 0.0195,
      "velocity": 120,
      "chip": "ym2612"
    },
    {
      "channel": 3,
      "note": 67,
      "start": 48.3346,
      "duration": 0.0196,
      "velocity": 120,
      "chip": "ym2612"
    },
    {
      "channel": 1,
      "note": 78,
      "start": 48.35,
      "duration": 0.0144,
      "velocity": 124,
      "chip": "ym2612"
    },
    {
      "channel": 0,
      "note": 47,
      "start": 48.3518,
      "duration": 0.0144,
      "velocity": 115,
      "chip": "ym2612"
    },
    {
      "channel": 4,
      "note": 72,
      "start": 48.353,
      "duration": 0.0144,
      "velocity": 120,
      "chip": "ym2612"
    },
    {
      "channel": 3,
      "note": 67,
      "start": 48.3542,
      "duration": 0.0143,
      "velocity": 120,
      "chip": "ym2612"
    },
    {
      "channel": 2,
      "note": 50,
      "start": 48.3557,
      "duration": 0.014,
      "velocity": 100,
      "chip": "ym2612"
    },
    {
      "channel": 1,
      "note": 76,
      "start": 48.3644,
      "duration": 0.016,
      "velocity": 124,
      "chip": "ym2612"
    },
    {
      "channel": 0,
      "note": 47,
      "start": 48.3661,
      "duration": 0.016,
      "velocity": 115,
      "chip": "ym2612"
    },
    {
      "channel": 4,
      "note": 72,
      "start": 48.3673,
      "duration": 0.016,
      "velocity": 120,
      "chip": "ym2612"
    },
    {
      "channel": 3,
      "note": 67,
      "start": 48.3685,
      "duration": 0.0161,
      "velocity": 120,
      "chip": "ym2612"
    },
    {
      "channel": 2,
      "note": 50,
      "start": 48.3697,
      "duration": 0.016,
      "velocity": 100,
      "chip": "ym2612"
    },
    {
      "channel": 1,
      "note": 75,
      "start": 48.3805,
      "duration": 0.0161,
      "velocity": 124,
      "chip": "ym2612"
    },
    {
      "channel": 0,
      "note": 47,
      "start": 48.3822,
      "duration": 0.0161,
      "velocity": 115,
      "chip": "ym2612"
    },
    {
      "channel": 4,
      "note": 72,
      "start": 48.3834,
      "duration": 0.0161,
      "velocity": 120,
      "chip": "ym2612"
    },
    {
      "channel": 3,
      "note": 67,
      "start": 48.3846,
      "duration": 0.0161,
      "velocity": 120,
      "chip": "ym2612"
    },
    {
      "channel": 2,
      "note": 50,
      "start": 48.3857,
      "duration": 0.0161,
      "velocity": 100,
      "chip": "ym2612"
    },
    {
      "channel": 1,
      "note": 74,
      "start": 48.3966,
      "duration": 0.0162,
      "velocity": 124,
      "chip": "ym2612"
    },
    {
      "channel": 0,
      "note": 48,
      "start": 48.3983,
      "duration": 0.0161,
      "velocity": 115,
      "chip": "ym2612"
    },
    {
      "channel": 4,
      "note": 72,
      "start": 48.3995,
      "duration": 0.0162,
      "velocity": 120,
      "chip": "ym2612"
    },
    {
      "channel": 3,
      "note": 67,
      "start": 48.4007,
      "duration": 0.0162,
      "velocity": 120,
      "chip": "ym2612"
    },
    {
      "channel": 2,
      "note": 50,
      "start": 48.4018,
      "duration": 0.0162,
      "velocity": 100,
      "chip": "ym2612"
    },
    {
      "channel": 1,
      "note": 72,
      "start": 48.4127,
      "duration": 0.0161,
      "velocity": 124,
      "chip": "ym2612"
    },
    {
      "channel": 0,
      "note": 48,
      "start": 48.4144,
      "duration": 0.0161,
      "velocity": 115,
      "chip": "ym2612"
    },
    {
      "channel": 4,
      "note": 72,
      "start": 48.4156,
      "duration": 0.0161,
      "velocity": 120,
      "chip": "ym2612"
    },
    {
      "channel": 3,
      "note": 67,
      "start": 48.4168,
      "duration": 0.016,
      "velocity": 120,
      "chip": "ym2612"
    },
    {
      "channel": 2,
      "note": 50,
      "start": 48.4179,
      "duration": 0.0161,
      "velocity": 100,
      "chip": "ym2612"
    },
    {
      "channel": 1,
      "note": 71,
      "start": 48.4288,
      "duration": 0.0161,
      "velocity": 124,
      "chip": "ym2612"
    },
    {
      "channel": 0,
      "note": 49,
      "start": 48.4305,
      "duration": 0.0153,
      "velocity": 1,
      "chip": "ym2612"
    },
    {
      "channel": 4,
      "note": 72,
      "start": 48.4317,
      "duration": 0.0153,
      "velocity": 120,
      "chip": "ym2612"
    },
    {
      "channel": 3,
      "note": 67,
      "start": 48.4329,
      "duration": 0.0153,
      "velocity": 120,
      "chip": "ym2612"
    },
    {
      "channel": 2,
      "note": 50,
      "start": 48.434,
      "duration": 0.0153,
      "velocity": 100,
      "chip": "ym2612"
    },
    {
      "channel": 1,
      "note": 70,
      "start": 48.4449,
      "duration": 0.0161,
      "velocity": 124,
      "chip": "ym2612"
    },
    {
      "channel": 4,
      "note": 72,
      "start": 48.447,
      "duration": 0.0153,
      "velocity": 120,
      "chip": "ym2612"
    },
    {
      "channel": 3,
      "note": 67,
      "start": 48.4482,
      "duration": 0.0152,
      "velocity": 120,
      "chip": "ym2612"
    },
    {
      "channel": 2,
      "note": 50,
      "start": 48.4493,
      "duration": 0.0153,
      "velocity": 100,
      "chip": "ym2612"
    },
    {
      "channel": 1,
      "note": 69,
      "start": 48.461,
      "duration": 0.0161,
      "velocity": 124,
      "chip": "ym2612"
    },
    {
      "channel": 4,
      "note": 72,
      "start": 48.4623,
      "duration": 0.0161,
      "velocity": 120,
      "chip": "ym2612"
    },
    {
      "channel": 3,
      "note": 67,
      "start": 48.4634,
      "duration": 0.0162,
      "velocity": 120,
      "chip": "ym2612"
    },
    {
      "channel": 1,
      "note": 68,
      "start": 48.4771,
      "duration": 0.0161,
      "velocity": 124,
      "chip": "ym2612"
    },
    {
      "channel": 4,
      "note": 72,
      "start": 48.4784,
      "duration": 0.0161,
      "velocity": 120,
      "chip": "ym2612"
    },
    {
      "channel": 3,
      "note": 67,
      "start": 48.4796,
      "duration": 0.016,
      "velocity": 120,
      "chip": "ym2612"
    },
    {
      "channel": 1,
      "note": 66,
      "start": 48.4932,
      "duration": 0.0174,
      "velocity": 124,
      "chip": "ym2612"
    },
    {
      "channel": 4,
      "note": 72,
      "start": 48.4944,
      "duration": 0.0174,
      "velocity": 120,
      "chip": "ym2612"
    },
    {
      "channel": 3,
      "note": 67,
      "start": 48.4956,
      "duration": 0.0174,
      "velocity": 120,
      "chip": "ym2612"
    },
    {
      "channel": 1,
      "note": 65,
      "start": 48.5105,
      "duration": 0.0167,
      "velocity": 124,
      "chip": "ym2612"
    },
    {
      "channel": 4,
      "note": 72,
      "start": 48.5119,
      "duration": 0.0167,
      "velocity": 120,
      "chip": "ym2612"
    },
    {
      "channel": 3,
      "note": 67,
      "start": 48.513,
      "duration": 0.0167,
      "velocity": 120,
      "chip": "ym2612"
    },
    {
      "channel": 1,
      "note": 64,
      "start": 48.5272,
      "duration": 0.0163,
      "velocity": 124,
      "chip": "ym2612"
    },
    {
      "channel": 4,
      "note": 72,
      "start": 48.5285,
      "duration": 0.0163,
      "velocity": 120,
      "chip": "ym2612"
    },
    {
      "channel": 3,
      "note": 67,
      "start": 48.5297,
      "duration": 0.0163,
      "velocity": 120,
      "chip": "ym2612"
    },
    {
      "channel": 1,
      "note": 62,
      "start": 48.5436,
      "duration": 0.0143,
      "velocity": 124,
      "chip": "ym2612"
    },
    {
      "channel": 4,
      "note": 72,
      "start": 48.5448,
      "duration": 0.0144,
      "velocity": 120,
      "chip": "ym2612"
    },
    {
      "channel": 3,
      "note": 67,
      "start": 48.5461,
      "duration": 0.0143,
      "velocity": 120,
      "chip": "ym2612"
    },
    {
      "channel": 2,
      "note": 50,
      "start": 48.5476,
      "duration": 0.014,
      "velocity": 100,
      "chip": "ym2612"
    },
    {
      "channel": 1,
      "note": 61,
      "start": 48.5579,
      "duration": 0.0186,
      "velocity": 124,
      "chip": "ym2612"
    },
    {
      "channel": 4,
      "note": 72,
      "start": 48.5592,
      "duration": 0.0185,
      "velocity": 120,
      "chip": "ym2612"
    },
    {
      "channel": 3,
      "note": 67,
      "start": 48.5604,
      "duration": 0.0185,
      "velocity": 120,
      "chip": "ym2612"
    },
    {
      "channel": 2,
      "note": 50,
      "start": 48.5616,
      "duration": 0.0185,
      "velocity": 100,
      "chip": "ym2612"
    },
    {
      "channel": 1,
      "note": 60,
      "start": 48.5765,
      "duration": 0.0161,
      "velocity": 124,
      "chip": "ym2612"
    },
    {
      "channel": 4,
      "note": 72,
      "start": 48.5777,
      "duration": 0.0161,
      "velocity": 120,
      "chip": "ym2612"
    },
    {
      "channel": 3,
      "note": 67,
      "start": 48.5789,
      "duration": 0.0161,
      "velocity": 120,
      "chip": "ym2612"
    },
    {
      "channel": 2,
      "note": 50,
      "start": 48.58,
      "duration": 0.0161,
      "velocity": 100,
      "chip": "ym2612"
    },
    {
      "channel": 1,
      "note": 59,
      "start": 48.5925,
      "duration": 0.0134,
      "velocity": 124,
      "chip": "ym2612"
    },
    {
      "channel": 4,
      "note": 72,
      "start": 48.5938,
      "duration": 0.0158,
      "velocity": 120,
      "chip": "ym2612"
    },
    {
      "channel": 3,
      "note": 67,
      "start": 48.595,
      "duration": 0.0158,
      "velocity": 120,
      "chip": "ym2612"
    },
    {
      "channel": 2,
      "note": 50,
      "start": 48.5961,
      "duration": 0.0158,
      "velocity": 100,
      "chip": "ym2612"
    },
    {
      "channel": 1,
      "note": 57,
      "start": 48.6059,
      "duration": 0.0161,
      "velocity": 124,
      "chip": "ym2612"
    },
    {
      "channel": 4,
      "note": 72,
      "start": 48.6096,
      "duration": 0.014,
      "velocity": 120,
      "chip": "ym2612"
    },
    {
      "channel": 3,
      "note": 67,
      "start": 48.6107,
      "duration": 0.014,
      "velocity": 120,
      "chip": "ym2612"
    },
    {
      "channel": 2,
      "note": 50,
      "start": 48.6119,
      "duration": 0.014,
      "velocity": 100,
      "chip": "ym2612"
    },
    {
      "channel": 1,
      "note": 56,
      "start": 48.622,
      "duration": 0.0161,
      "velocity": 124,
      "chip": "ym2612"
    },
    {
      "channel": 4,
      "note": 72,
      "start": 48.6236,
      "duration": 0.0185,
      "velocity": 120,
      "chip": "ym2612"
    },
    {
      "channel": 3,
      "note": 67,
      "start": 48.6247,
      "duration": 0.0186,
      "velocity": 120,
      "chip": "ym2612"
    },
    {
      "channel": 2,
      "note": 50,
      "start": 48.6259,
      "duration": 0.0185,
      "velocity": 100,
      "chip": "ym2612"
    },
    {
      "channel": 1,
      "note": 55,
      "start": 48.6381,
      "duration": 0.0161,
      "velocity": 124,
      "chip": "ym2612"
    },
    {
      "channel": 4,
      "note": 72,
      "start": 48.6421,
      "duration": 0.0134,
      "velocity": 120,
      "chip": "ym2612"
    },
    {
      "channel": 3,
      "note": 67,
      "start": 48.6433,
      "duration": 0.0161,
      "velocity": 120,
      "chip": "ym2612"
    },
    {
      "channel": 2,
      "note": 50,
      "start": 48.6444,
      "duration": 0.0161,
      "velocity": 100,
      "chip": "ym2612"
    },
    {
      "channel": 1,
      "note": 53,
      "start": 48.6542,
      "duration": 0.0161,
      "velocity": 124,
      "chip": "ym2612"
    },
    {
      "channel": 4,
      "note": 72,
      "start": 48.6555,
      "duration": 0.0161,
      "velocity": 120,
      "chip": "ym2612"
    },
    {
      "channel": 3,
      "note": 67,
      "start": 48.6594,
      "duration": 0.0157,
      "velocity": 120,
      "chip": "ym2612"
    },
    {
      "channel": 1,
      "note": 52,
      "start": 48.6703,
      "duration": 0.0161,
      "velocity": 124,
      "chip": "ym2612"
    },
    {
      "channel": 4,
      "note": 72,
      "start": 48.6716,
      "duration": 0.016,
      "velocity": 120,
      "chip": "ym2612"
    },
    {
      "channel": 3,
      "note": 67,
      "start": 48.6751,
      "duration": 0.0137,
      "velocity": 120,
      "chip": "ym2612"
    },
    {
      "channel": 1,
      "note": 51,
      "start": 48.6864,
      "duration": 0.0153,
      "velocity": 1,
      "chip": "ym2612"
    },
    {
      "channel": 4,
      "note": 72,
      "start": 48.6876,
      "duration": 0.0153,
      "velocity": 120,
      "chip": "ym2612"
    },
    {
      "channel": 3,
      "note": 67,
      "start": 48.6889,
      "duration": 0.0153,
      "velocity": 120,
      "chip": "ym2612"
    },
    {
      "channel": 4,
      "note": 72,
      "start": 48.703,
      "duration": 0.0153,
      "velocity": 120,
      "chip": "ym2612"
    },
    {
      "channel": 3,
      "note": 67,
      "start": 48.7041,
      "duration": 0.0153,
      "velocity": 120,
      "chip": "ym2612"
    },
    {
      "channel": 4,
      "note": 72,
      "start": 48.7183,
      "duration": 0.0195,
      "velocity": 120,
      "chip": "ym2612"
    },
    {
      "channel": 3,
      "note": 67,
      "start": 48.7194,
      "duration": 0.0195,
      "velocity": 120,
      "chip": "ym2612"
    },
    {
      "channel": 1,
      "note": 78,
      "start": 48.7365,
      "duration": 0.0144,
      "velocity": 124,
      "chip": "ym2612"
    },
    {
      "channel": 4,
      "note": 72,
      "start": 48.7378,
      "duration": 0.0144,
      "velocity": 120,
      "chip": "ym2612"
    },
    {
      "channel": 3,
      "note": 67,
      "start": 48.7389,
      "duration": 0.0144,
      "velocity": 120,
      "chip": "ym2612"
    },
    {
      "channel": 2,
      "note": 50,
      "start": 48.7429,
      "duration": 0.0117,
      "velocity": 100,
      "chip": "ym2612"
    },
    {
      "channel": 1,
      "note": 76,
      "start": 48.7509,
      "duration": 0.016,
      "velocity": 124,
      "chip": "ym2612"
    },
    {
      "channel": 4,
      "note": 72,
      "start": 48.7522,
      "duration": 0.016,
      "velocity": 120,
      "chip": "ym2612"
    },
    {
      "channel": 3,
      "note": 67,
      "start": 48.7533,
      "duration": 0.016,
      "velocity": 120,
      "chip": "ym2612"
    },
    {
      "channel": 2,
      "note": 50,
      "start": 48.7545,
      "duration": 0.016,
      "velocity": 100,
      "chip": "ym2612"
    },
    {
      "channel": 1,
      "note": 75,
      "start": 48.7669,
      "duration": 0.0161,
      "velocity": 124,
      "chip": "ym2612"
    },
    {
      "channel": 4,
      "note": 72,
      "start": 48.7682,
      "duration": 0.0161,
      "velocity": 120,
      "chip": "ym2612"
    },
    {
      "channel": 3,
      "note": 67,
      "start": 48.7693,
      "duration": 0.0161,
      "velocity": 120,
      "chip": "ym2612"
    },
    {
      "channel": 2,
      "note": 50,
      "start": 48.7705,
      "duration": 0.0161,
      "velocity": 100,
      "chip": "ym2612"
    },
    {
      "channel": 1,
      "note": 74,
      "start": 48.783,
      "duration": 0.0161,
      "velocity": 124,
      "chip": "ym2612"
    },
    {
      "channel": 4,
      "note": 72,
      "start": 48.7843,
      "duration": 0.0161,
      "velocity": 120,
      "chip": "ym2612"
    },
    {
      "channel": 3,
      "note": 67,
      "start": 48.7854,
      "duration": 0.0162,
      "velocity": 120,
      "chip": "ym2612"
    },
    {
      "channel": 2,
      "note": 50,
      "start": 48.7866,
      "duration": 0.0161,
      "velocity": 100,
      "chip": "ym2612"
    },
    {
      "channel": 1,
      "note": 72,
      "start": 48.7991,
      "duration": 0.0161,
      "velocity": 124,
      "chip": "ym2612"
    },
    {
      "channel": 4,
      "note": 72,
      "start": 48.8004,
      "duration": 0.0161,
      "velocity": 120,
      "chip": "ym2612"
    },
    {
      "channel": 3,
      "note": 67,
      "start": 48.8016,
      "duration": 0.016,
      "velocity": 120,
      "chip": "ym2612"
    },
    {
      "channel": 2,
      "note": 50,
      "start": 48.8027,
      "duration": 0.016,
      "velocity": 100,
      "chip": "ym2612"
    },
    {
      "channel": 1,
      "note": 71,
      "start": 48.8152,
      "duration": 0.0179,
      "velocity": 124,
      "chip": "ym2612"
    },
    {
      "channel": 4,
      "note": 72,
      "start": 48.8165,
      "duration": 0.0179,
      "velocity": 120,
      "chip": "ym2612"
    },
    {
      "channel": 3,
      "note": 67,
      "start": 48.8176,
      "duration": 0.0179,
      "velocity": 120,
      "chip": "ym2612"
    },
    {
      "channel": 2,
      "note": 50,
      "start": 48.8188,
      "duration": 0.0179,
      "velocity": 100,
      "chip": "ym2612"
    },
    {
      "channel": 1,
      "note": 78,
      "start": 48.8331,
      "duration": 0.0143,
      "velocity": 124,
      "chip": "ym2612"
    },
    {
      "channel": 4,
      "note": 72,
      "start": 48.8344,
      "duration": 0.0143,
      "velocity": 120,
      "chip": "ym2612"
    },
    {
      "channel": 3,
      "note": 67,
      "start": 48.8356,
      "duration": 0.0144,
      "velocity": 120,
      "chip": "ym2612"
    },
    {
      "channel": 2,
      "note": 50,
      "start": 48.8367,
      "duration": 0.0144,
      "velocity": 100,
      "chip": "ym2612"
    },
    {
      "channel": 1,
      "note": 76,
      "start": 48.8474,
      "duration": 0.0161,
      "velocity": 124,
      "chip": "ym2612"
    },
    {
      "channel": 4,
      "note": 72,
      "start": 48.8487,
      "duration": 0.0161,
      "velocity": 120,
      "chip": "ym2612"
    },
    {
      "channel": 3,
      "note": 67,
      "start": 48.8499,
      "duration": 0.016,
      "velocity": 120,
      "chip": "ym2612"
    },
    {
      "channel": 1,
      "note": 75,
      "start": 48.8635,
      "duration": 0.0161,
      "velocity": 124,
      "chip": "ym2612"
    },
    {
      "channel": 4,
      "note": 72,
      "start": 48.8648,
      "duration": 0.0161,
      "velocity": 120,
      "chip": "ym2612"
    },
    {
      "channel": 3,
      "note": 67,
      "start": 48.866,
      "duration": 0.0161,
      "velocity": 120,
      "chip": "ym2612"
    },
    {
      "channel": 1,
      "note": 74,
      "start": 48.8796,
      "duration": 0.0161,
      "velocity": 124,
      "chip": "ym2612"
    },
    {
      "channel": 4,
      "note": 72,
      "start": 48.8809,
      "duration": 0.0161,
      "velocity": 120,
      "chip": "ym2612"
    },
    {
      "channel": 3,
      "note": 67,
      "start": 48.882,
      "duration": 0.0161,
      "velocity": 120,
      "chip": "ym2612"
    },
    {
      "channel": 1,
      "note": 72,
      "start": 48.8957,
      "duration": 0.0161,
      "velocity": 124,
      "chip": "ym2612"
    },
    {
      "channel": 4,
      "note": 72,
      "start": 48.897,
      "duration": 0.0161,
      "velocity": 120,
      "chip": "ym2612"
    },
    {
      "channel": 3,
      "note": 67,
      "start": 48.8981,
      "duration": 0.0161,
      "velocity": 120,
      "chip": "ym2612"
    },
    {
      "channel": 1,
      "note": 71,
      "start": 48.9118,
      "duration": 0.0179,
      "velocity": 124,
      "chip": "ym2612"
    },
    {
      "channel": 4,
      "note": 72,
      "start": 48.9131,
      "duration": 0.0181,
      "velocity": 120,
      "chip": "ym2612"
    },
    {
      "channel": 3,
      "note": 67,
      "start": 48.9142,
      "duration": 0.0184,
      "velocity": 120,
      "chip": "ym2612"
    },
    {
      "channel": 1,
      "note": 78,
      "start": 48.9297,
      "duration": 0.0144,
      "velocity": 124,
      "chip": "ym2612"
    },
    {
      "channel": 4,
      "note": 77,
      "start": 48.9312,
      "duration": 0.0142,
      "velocity": 120,
      "chip": "ym2612"
    },
    {
      "channel": 3,
      "note": 72,
      "start": 48.9327,
      "duration": 0.0139,
      "velocity": 120,
      "chip": "ym2612"
    },
    {
      "channel": 2,
      "note": 50,
      "start": 48.9342,
      "duration": 0.0135,
      "velocity": 100,
      "chip": "ym2612"
    },
    {
      "channel": 1,
      "note": 76,
      "start": 48.9441,
      "duration": 0.016,
      "velocity": 124,
      "chip": "ym2612"
    },
    {
      "channel": 4,
      "note": 77,
      "start": 48.9454,
      "duration": 0.016,
      "velocity": 120,
      "chip": "ym2612"
    },
    {
      "channel": 3,
      "note": 72,
      "start": 48.9466,
      "duration": 0.0159,
      "velocity": 120,
      "chip": "ym2612"
    },
    {
      "channel": 2,
      "note": 50,
      "start": 48.9478,
      "duration": 0.0159,
      "velocity": 100,
      "chip": "ym2612"
    },
    {
      "channel": 1,
      "note": 75,
      "start": 48.9601,
      "duration": 0.0171,
      "velocity": 124,
      "chip": "ym2612"
    },
    {
      "channel": 4,
      "note": 77,
      "start": 48.9614,
      "duration": 0.0171,
      "velocity": 120,
      "chip": "ym2612"
    },
    {
      "channel": 3,
      "note": 72,
      "start": 48.9625,
      "duration": 0.0171,
      "velocity": 120,
      "chip": "ym2612"
    },
    {
      "channel": 2,
      "note": 50,
      "start": 48.9637,
      "duration": 0.0171,
      "velocity": 100,
      "chip": "ym2612"
    },
    {
      "channel": 1,
      "note": 74,
      "start": 48.9772,
      "duration": 0.0167,
      "velocity": 124,
      "chip": "ym2612"
    },
    {
      "channel": 4,
      "note": 77,
      "start": 48.9785,
      "duration": 0.0167,
      "velocity": 120,
      "chip": "ym2612"
    },
    {
      "channel": 3,
      "note": 72,
      "start": 48.9796,
      "duration": 0.0167,
      "velocity": 120,
      "chip": "ym2612"
    },
    {
      "channel": 2,
      "note": 50,
      "start": 48.9808,
      "duration": 0.0167,
      "velocity": 100,
      "chip": "ym2612"
    },
    {
      "channel": 1,
      "note": 72,
      "start": 48.9939,
      "duration": 0.0163,
      "velocity": 124,
      "chip": "ym2612"
    },
    {
      "channel": 4,
      "note": 77,
      "start": 48.9952,
      "duration": 0.0163,
      "velocity": 120,
      "chip": "ym2612"
    },
    {
      "channel": 3,
      "note": 72,
      "start": 48.9964,
      "duration": 0.0163,
      "velocity": 120,
      "chip": "ym2612"
    },
    {
      "channel": 2,
      "note": 50,
      "start": 48.9974,
      "duration": 0.0163,
      "velocity": 100,
      "chip": "ym2612"
    },
    {
      "channel": 1,
      "note": 71,
      "start": 49.0102,
      "duration": 0.0146,
      "velocity": 124,
      "chip": "ym2612"
    },
    {
      "channel": 4,
      "note": 77,
      "start": 49.0115,
      "duration": 0.0146,
      "velocity": 120,
      "chip": "ym2612"
    },
    {
      "channel": 3,
      "note": 72,
      "start": 49.0127,
      "duration": 0.0146,
      "velocity": 120,
      "chip": "ym2612"
    },
    {
      "channel": 2,
      "note": 50,
      "start": 49.0138,
      "duration": 0.0146,
      "velocity": 100,
      "chip": "ym2612"
    },
    {
      "channel": 1,
      "note": 70,
      "start": 49.0248,
      "duration": 0.0186,
      "velocity": 124,
      "chip": "ym2612"
    },
    {
      "channel": 4,
      "note": 77,
      "start": 49.0261,
      "duration": 0.0186,
      "velocity": 120,
      "chip": "ym2612"
    },
    {
      "channel": 3,
      "note": 72,
      "start": 49.0272,
      "duration": 0.0186,
      "velocity": 120,
      "chip": "ym2612"
    },
    {
      "channel": 2,
      "note": 50,
      "start": 49.0284,
      "duration": 0.0186,
      "velocity": 100,
      "chip": "ym2612"
    },
    {
      "channel": 1,
      "note": 69,
      "start": 49.0434,
      "duration": 0.0161,
      "velocity": 124,
      "chip": "ym2612"
    },
    {
      "channel": 4,
      "note": 77,
      "start": 49.0446,
      "duration": 0.0161,
      "velocity": 120,
      "chip": "ym2612"
    },
    {
      "channel": 3,
      "note": 72,
      "start": 49.0458,
      "duration": 0.0161,
      "velocity": 120,
      "chip": "ym2612"
    },
    {
      "channel": 1,
      "note": 68,
      "start": 49.0595,
      "duration": 0.0157,
      "velocity": 124,
      "chip": "ym2612"
    },
    {
      "channel": 4,
      "note": 77,
      "start": 49.0607,
      "duration": 0.0157,
      "velocity": 120,
      "chip": "ym2612"
    },
    {
      "channel": 3,
      "note": 72,
      "start": 49.0619,
      "duration": 0.0157,
      "velocity": 120,
      "chip": "ym2612"
    },
    {
      "channel": 1,
      "note": 66,
      "start": 49.0752,
      "duration": 0.0137,
      "velocity": 124,
      "chip": "ym2612"
    },
    {
      "channel": 4,
      "note": 77,
      "start": 49.0765,
      "duration": 0.0141,
      "velocity": 120,
      "chip": "ym2612"
    },
    {
      "channel": 3,
      "note": 72,
      "start": 49.0776,
      "duration": 0.0141,
      "velocity": 120,
      "chip": "ym2612"
    },
    {
      "channel": 1,
      "note": 65,
      "start": 49.0889,
      "duration": 0.0161,
      "velocity": 124,
      "chip": "ym2612"
    },
    {
      "channel": 4,
      "note": 77,
      "start": 49.0905,
      "duration": 0.0185,
      "velocity": 120,
      "chip": "ym2612"
    },
    {
      "channel": 3,
      "note": 72,
      "start": 49.0917,
      "duration": 0.0185,
      "velocity": 120,
      "chip": "ym2612"
    },
    {
      "channel": 1,
      "note": 64,
      "start": 49.105,
      "duration": 0.0206,
      "velocity": 124,
      "chip": "ym2612"
    },
    {
      "channel": 4,
      "note": 77,
      "start": 49.109,
      "duration": 0.0179,
      "velocity": 120,
      "chip": "ym2612"
    },
    {
      "channel": 3,
      "note": 72,
      "start": 49.1102,
      "duration": 0.0179,
      "velocity": 120,
      "chip": "ym2612"
    },
    {
      "channel": 1,
      "note": 78,
      "start": 49.1257,
      "duration": 0.0116,
      "velocity": 124,
      "chip": "ym2612"
    },
    {
      "channel": 4,
      "note": 77,
      "start": 49.127,
      "duration": 0.0116,
      "velocity": 120,
      "chip": "ym2612"
    },
    {
      "channel": 3,
      "note": 72,
      "start": 49.1281,
      "duration": 0.014,
      "velocity": 120,
      "chip": "ym2612"
    },
    {
      "channel": 2,
      "note": 50,
      "start": 49.1296,
      "duration": 0.0137,
      "velocity": 100,
      "chip": "ym2612"
    },
    {
      "channel": 1,
      "note": 76,
      "start": 49.1373,
      "duration": 0.0161,
      "velocity": 124,
      "chip": "ym2612"
    },
    {
      "channel": 4,
      "note": 77,
      "start": 49.1385,
      "duration": 0.0161,
      "velocity": 120,
      "chip": "ym2612"
    },
    {
      "channel": 3,
      "note": 72,
      "start": 49.1421,
      "duration": 0.0137,
      "velocity": 120,
      "chip": "ym2612"
    },
    {
      "channel": 2,
      "note": 50,
      "start": 49.1433,
      "duration": 0.0139,
      "velocity": 100,
      "chip": "ym2612"
    },
    {
      "channel": 1,
      "note": 75,
      "start": 49.1534,
      "duration": 0.0161,
      "velocity": 124,
      "chip": "ym2612"
    },
    {
      "channel": 4,
      "note": 77,
      "start": 49.1546,
      "duration": 0.0161,
      "velocity": 120,
      "chip": "ym2612"
    },
    {
      "channel": 3,
      "note": 72,
      "start": 49.1558,
      "duration": 0.0161,
      "velocity": 120,
      "chip": "ym2612"
    },
    {
      "channel": 2,
      "note": 50,
      "start": 49.1572,
      "duration": 0.0185,
      "velocity": 100,
      "chip": "ym2612"
    },
    {
      "channel": 1,
      "note": 74,
      "start": 49.1695,
      "duration": 0.0161,
      "velocity": 124,
      "chip": "ym2612"
    },
    {
      "channel": 4,
      "note": 77,
      "start": 49.1707,
      "duration": 0.0161,
      "velocity": 120,
      "chip": "ym2612"
    },
    {
      "channel": 3,
      "note": 72,
      "start": 49.1719,
      "duration": 0.0161,
      "velocity": 120,
      "chip": "ym2612"
    },
    {
      "channel": 2,
      "note": 50,
      "start": 49.1758,
      "duration": 0.0134,
      "velocity": 100,
      "chip": "ym2612"
    },
    {
      "channel": 1,
      "note": 72,
      "start": 49.1856,
      "duration": 0.0161,
      "velocity": 124,
      "chip": "ym2612"
    },
    {
      "channel": 4,
      "note": 77,
      "start": 49.1868,
      "duration": 0.0161,
      "velocity": 120,
      "chip": "ym2612"
    },
    {
      "channel": 3,
      "note": 72,
      "start": 49.188,
      "duration": 0.0161,
      "velocity": 120,
      "chip": "ym2612"
    },
    {
      "channel": 2,
      "note": 50,
      "start": 49.1891,
      "duration": 0.0161,
      "velocity": 100,
      "chip": "ym2612"
    },
    {
      "channel": 1,
      "note": 71,
      "start": 49.2016,
      "duration": 0.0179,
      "velocity": 124,
      "chip": "ym2612"
    },
    {
      "channel": 4,
      "note": 77,
      "start": 49.2029,
      "duration": 0.0179,
      "velocity": 120,
      "chip": "ym2612"
    },
    {
      "channel": 3,
      "note": 72,
      "start": 49.2041,
      "duration": 0.0179,
      "velocity": 120,
      "chip": "ym2612"
    },
    {
      "channel": 2,
      "note": 50,
      "start": 49.2052,
      "duration": 0.0183,
      "velocity": 100,
      "chip": "ym2612"
    },
    {
      "channel": 1,
      "note": 78,
      "start": 49.2195,
      "duration": 0.0144,
      "velocity": 124,
      "chip": "ym2612"
    },
    {
      "channel": 4,
      "note": 77,
      "start": 49.2208,
      "duration": 0.0144,
      "velocity": 120,
      "chip": "ym2612"
    },
    {
      "channel": 3,
      "note": 72,
      "start": 49.222,
      "duration": 0.0143,
      "velocity": 120,
      "chip": "ym2612"
    },
    {
      "channel": 2,
      "note": 50,
      "start": 49.2235,
      "duration": 0.014,
      "velocity": 100,
      "chip": "ym2612"
    },
    {
      "channel": 1,
      "note": 76,
      "start": 49.2339,
      "duration": 0.016,
      "velocity": 124,
      "chip": "ym2612"
    },
    {
      "channel": 4,
      "note": 77,
      "start": 49.2352,
      "duration": 0.016,
      "velocity": 120,
      "chip": "ym2612"
    },
    {
      "channel": 3,
      "note": 72,
      "start": 49.2363,
      "duration": 0.0161,
      "velocity": 120,
      "chip": "ym2612"
    },
    {
      "channel": 1,
      "note": 75,
      "start": 49.2499,
      "duration": 0.0161,
      "velocity": 124,
      "chip": "ym2612"
    },
    {
      "channel": 4,
      "note": 77,
      "start": 49.2512,
      "duration": 0.0161,
      "velocity": 120,
      "chip": "ym2612"
    },
    {
      "channel": 3,
      "note": 72,
      "start": 49.2524,
      "duration": 0.0161,
      "velocity": 120,
      "chip": "ym2612"
    },
    {
      "channel": 1,
      "note": 74,
      "start": 49.266,
      "duration": 0.0161,
      "velocity": 124,
      "chip": "ym2612"
    },
    {
      "channel": 4,
      "note": 77,
      "start": 49.2673,
      "duration": 0.0161,
      "velocity": 120,
      "chip": "ym2612"
    },
    {
      "channel": 3,
      "note": 72,
      "start": 49.2685,
      "duration": 0.0161,
      "velocity": 120,
      "chip": "ym2612"
    },
    {
      "channel": 1,
      "note": 72,
      "start": 49.2821,
      "duration": 0.0161,
      "velocity": 124,
      "chip": "ym2612"
    },
    {
      "channel": 4,
      "note": 77,
      "start": 49.2834,
      "duration": 0.0161,
      "velocity": 120,
      "chip": "ym2612"
    },
    {
      "channel": 3,
      "note": 72,
      "start": 49.2846,
      "duration": 0.0161,
      "velocity": 120,
      "chip": "ym2612"
    },
    {
      "channel": 1,
      "note": 71,
      "start": 49.2982,
      "duration": 0.0179,
      "velocity": 124,
      "chip": "ym2612"
    },
    {
      "channel": 4,
      "note": 77,
      "start": 49.2995,
      "duration": 0.0179,
      "velocity": 120,
      "chip": "ym2612"
    },
    {
      "channel": 3,
      "note": 72,
      "start": 49.3007,
      "duration": 0.0179,
      "velocity": 120,
      "chip": "ym2612"
    },
    {
      "channel": 1,
      "note": 78,
      "start": 49.3161,
      "duration": 0.0144,
      "velocity": 124,
      "chip": "ym2612"
    },
    {
      "channel": 4,
      "note": 77,
      "start": 49.3174,
      "duration": 0.0144,
      "velocity": 120,
      "chip": "ym2612"
    },
    {
      "channel": 3,
      "note": 72,
      "start": 49.3186,
      "duration": 0.0144,
      "velocity": 120,
      "chip": "ym2612"
    },
    {
      "channel": 2,
      "note": 50,
      "start": 49.3201,
      "duration": 0.0141,
      "velocity": 100,
      "chip": "ym2612"
    },
    {
      "channel": 1,
      "note": 76,
      "start": 49.3305,
      "duration": 0.016,
      "velocity": 124,
      "chip": "ym2612"
    },
    {
      "channel": 4,
      "note": 77,
      "start": 49.3318,
      "duration": 0.016,
      "velocity": 120,
      "chip": "ym2612"
    },
    {
      "channel": 3,
      "note": 72,
      "start": 49.3329,
      "duration": 0.016,
      "velocity": 120,
      "chip": "ym2612"
    },
    {
      "channel": 2,
      "note": 50,
      "start": 49.3341,
      "duration": 0.016,
      "velocity": 100,
      "chip": "ym2612"
    },
    {
      "channel": 1,
      "note": 75,
      "start": 49.3466,
      "duration": 0.0161,
      "velocity": 124,
      "chip": "ym2612"
    },
    {
      "channel": 4,
      "note": 77,
      "start": 49.3478,
      "duration": 0.0161,
      "velocity": 120,
      "chip": "ym2612"
    },
    {
      "channel": 3,
      "note": 72,
      "start": 49.349,
      "duration": 0.0161,
      "velocity": 120,
      "chip": "ym2612"
    },
    {
      "channel": 2,
      "note": 50,
      "start": 49.3501,
      "duration": 0.0161,
      "velocity": 100,
      "chip": "ym2612"
    },
    {
      "channel": 1,
      "note": 74,
      "start": 49.3627,
      "duration": 0.0161,
      "velocity": 124,
      "chip": "ym2612"
    },
    {
      "channel": 4,
      "note": 77,
      "start": 49.3639,
      "duration": 0.0161,
      "velocity": 120,
      "chip": "ym2612"
    },
    {
      "channel": 3,
      "note": 72,
      "start": 49.3651,
      "duration": 0.0162,
      "velocity": 120,
      "chip": "ym2612"
    },
    {
      "channel": 2,
      "note": 50,
      "start": 49.3662,
      "duration": 0.0161,
      "velocity": 100,
      "chip": "ym2612"
    },
    {
      "channel": 1,
      "note": 72,
      "start": 49.3788,
      "duration": 0.0161,
      "velocity": 124,
      "chip": "ym2612"
    },
    {
      "channel": 4,
      "note": 77,
      "start": 49.38,
      "duration": 0.0161,
      "velocity": 120,
      "chip": "ym2612"
    },
    {
      "channel": 3,
      "note": 72,
      "start": 49.3812,
      "duration": 0.016,
      "velocity": 120,
      "chip": "ym2612"
    },
    {
      "channel": 2,
      "note": 50,
      "start": 49.3824,
      "duration": 0.016,
      "velocity": 100,
      "chip": "ym2612"
    },
    {
      "channel": 1,
      "note": 71,
      "start": 49.3948,
      "duration": 0.0161,
      "velocity": 124,
      "chip": "ym2612"
    },
    {
      "channel": 4,
      "note": 77,
      "start": 49.3961,
      "duration": 0.0162,
      "velocity": 120,
      "chip": "ym2612"
    },
    {
      "channel": 3,
      "note": 72,
      "start": 49.3973,
      "duration": 0.0161,
      "velocity": 120,
      "chip": "ym2612"
    },
    {
      "channel": 2,
      "note": 50,
      "start": 49.3984,
      "duration": 0.0162,
      "velocity": 100,
      "chip": "ym2612"
    },
    {
      "channel": 1,
      "note": 70,
      "start": 49.4109,
      "duration": 0.0161,
      "velocity": 124,
      "chip": "ym2612"
    },
    {
      "channel": 4,
      "note": 77,
      "start": 49.4123,
      "duration": 0.016,
      "velocity": 120,
      "chip": "ym2612"
    },
    {
      "channel": 3,
      "note": 72,
      "start": 49.4134,
      "duration": 0.0161,
      "velocity": 120,
      "chip": "ym2612"
    },
    {
      "channel": 2,
      "note": 50,
      "start": 49.4146,
      "duration": 0.0161,
      "velocity": 100,
      "chip": "ym2612"
    },
    {
      "channel": 1,
      "note": 69,
      "start": 49.427,
      "duration": 0.0169,
      "velocity": 124,
      "chip": "ym2612"
    },
    {
      "channel": 4,
      "note": 77,
      "start": 49.4283,
      "duration": 0.0169,
      "velocity": 120,
      "chip": "ym2612"
    },
    {
      "channel": 3,
      "note": 72,
      "start": 49.4295,
      "duration": 0.0169,
      "velocity": 120,
      "chip": "ym2612"
    },
    {
      "channel": 1,
      "note": 68,
      "start": 49.4439,
      "duration": 0.0166,
      "velocity": 124,
      "chip": "ym2612"
    },
    {
      "channel": 4,
      "note": 77,
      "start": 49.4452,
      "duration": 0.0167,
      "velocity": 120,
      "chip": "ym2612"
    },
    {
      "channel": 3,
      "note": 72,
      "start": 49.4464,
      "duration": 0.0167,
      "velocity": 120,
      "chip": "ym2612"
    },
    {
      "channel": 1,
      "note": 66,
      "start": 49.4605,
      "duration": 0.0163,
      "velocity": 124,
      "chip": "ym2612"
    },
    {
      "channel": 4,
      "note": 77,
      "start": 49.4619,
      "duration": 0.0163,
      "velocity": 120,
      "chip": "ym2612"
    },
    {
      "channel": 3,
      "note": 72,
      "start": 49.463,
      "duration": 0.0163,
      "velocity": 120,
      "chip": "ym2612"
    },
    {
      "channel": 1,
      "note": 65,
      "start": 49.4769,
      "duration": 0.0147,
      "velocity": 124,
      "chip": "ym2612"
    },
    {
      "channel": 4,
      "note": 77,
      "start": 49.4782,
      "duration": 0.0147,
      "velocity": 120,
      "chip": "ym2612"
    },
    {
      "channel": 3,
      "note": 72,
      "start": 49.4793,
      "duration": 0.0147,
      "velocity": 120,
      "chip": "ym2612"
    },
    {
      "channel": 1,
      "note": 64,
      "start": 49.4916,
      "duration": 0.0187,
      "velocity": 124,
      "chip": "ym2612"
    },
    {
      "channel": 4,
      "note": 77,
      "start": 49.4929,
      "duration": 0.0239,
      "velocity": 120,
      "chip": "ym2612"
    },
    {
      "channel": 3,
      "note": 72,
      "start": 49.494,
      "duration": 0.0257,
      "velocity": 120,
      "chip": "ym2612"
    },
    {
      "channel": 1,
      "note": 62,
      "start": 49.5103,
      "duration": 0.0189,
      "velocity": 124,
      "chip": "ym2612"
    },
    {
      "channel": 0,
      "note": 36,
      "start": 49.5138,
      "duration": 0.0172,
      "velocity": 115,
      "chip": "ym2612"
    },
    {
      "channel": 4,
      "note": 62,
      "start": 49.5168,
      "duration": 0.0155,
      "velocity": 120,
      "chip": "ym2612"
    },
    {
      "channel": 3,
      "note": 57,
      "start": 49.5198,
      "duration": 0.0136,
      "velocity": 120,
      "chip": "ym2612"
    },
    {
      "channel": 2,
      "note": 50,
      "start": 49.5213,
      "duration": 0.0133,
      "velocity": 100,
      "chip": "ym2612"
    },
    {
      "channel": 1,
      "note": 61,
      "start": 49.5292,
      "duration": 0.013,
      "velocity": 124,
      "chip": "ym2612"
    },
    {
      "channel": 0,
      "note": 36,
      "start": 49.531,
      "duration": 0.0129,
      "velocity": 115,
      "chip": "ym2612"
    },
    {
      "channel": 4,
      "note": 62,
      "start": 49.5322,
      "duration": 0.0128,
      "velocity": 120,
      "chip": "ym2612"
    },
    {
      "channel": 3,
      "note": 57,
      "start": 49.5334,
      "duration": 0.0128,
      "velocity": 120,
      "chip": "ym2612"
    },
    {
      "channel": 2,
      "note": 50,
      "start": 49.5346,
      "duration": 0.0127,
      "velocity": 100,
      "chip": "ym2612"
    },
    {
      "channel": 1,
      "note": 60,
      "start": 49.5422,
      "duration": 0.0137,
      "velocity": 124,
      "chip": "ym2612"
    },
    {
      "channel": 0,
      "note": 37,
      "start": 49.5439,
      "duration": 0.014,
      "velocity": 115,
      "chip": "ym2612"
    },
    {
      "channel": 4,
      "note": 62,
      "start": 49.545,
      "duration": 0.0141,
      "velocity": 120,
      "chip": "ym2612"
    },
    {
      "channel": 3,
      "note": 57,
      "start": 49.5462,
      "duration": 0.0141,
      "velocity": 120,
      "chip": "ym2612"
    },
    {
      "channel": 2,
      "note": 50,
      "start": 49.5473,
      "duration": 0.0141,
      "velocity": 100,
      "chip": "ym2612"
    },
    {
      "channel": 1,
      "note": 59,
      "start": 49.5559,
      "duration": 0.0161,
      "velocity": 124,
      "chip": "ym2612"
    },
    {
      "channel": 0,
      "note": 37,
      "start": 49.5579,
      "duration": 0.0186,
      "velocity": 115,
      "chip": "ym2612"
    },
    {
      "channel": 4,
      "note": 62,
      "start": 49.5591,
      "duration": 0.0185,
      "velocity": 120,
      "chip": "ym2612"
    },
    {
      "channel": 3,
      "note": 57,
      "start": 49.5602,
      "duration": 0.0185,
      "velocity": 120,
      "chip": "ym2612"
    },
    {
      "channel": 2,
      "note": 50,
      "start": 49.5614,
      "duration": 0.0185,
      "velocity": 100,
      "chip": "ym2612"
    },
    {
      "channel": 1,
      "note": 57,
      "start": 49.5719,
      "duration": 0.0161,
      "velocity": 124,
      "chip": "ym2612"
    },
    {
      "channel": 0,
      "note": 38,
      "start": 49.5765,
      "duration": 0.0161,
      "velocity": 115,
      "chip": "ym2612"
    },
    {
      "channel": 4,
      "note": 62,
      "start": 49.5776,
      "duration": 0.0161,
      "velocity": 120,
      "chip": "ym2612"
    },
    {
      "channel": 3,
      "note": 57,
      "start": 49.5788,
      "duration": 0.0161,
      "velocity": 120,
      "chip": "ym2612"
    },
    {
      "channel": 2,
      "note": 50,
      "start": 49.5799,
      "duration": 0.0161,
      "velocity": 100,
      "chip": "ym2612"
    },
    {
      "channel": 1,
      "note": 56,
      "start": 49.588,
      "duration": 0.0162,
      "velocity": 124,
      "chip": "ym2612"
    },
    {
      "channel": 0,
      "note": 38,
      "start": 49.5925,
      "duration": 0.0134,
      "velocity": 115,
      "chip": "ym2612"
    },
    {
      "channel": 4,
      "note": 62,
      "start": 49.5937,
      "duration": 0.0158,
      "velocity": 120,
      "chip": "ym2612"
    },
    {
      "channel": 3,
      "note": 57,
      "start": 49.5948,
      "duration": 0.0158,
      "velocity": 120,
      "chip": "ym2612"
    },
    {
      "channel": 2,
      "note": 50,
      "start": 49.596,
      "duration": 0.0158,
      "velocity": 100,
      "chip": "ym2612"
    },
    {
      "channel": 1,
      "note": 55,
      "start": 49.6042,
      "duration": 0.0161,
      "velocity": 124,
      "chip": "ym2612"
    },
    {
      "channel": 0,
      "note": 39,
      "start": 49.6059,
      "duration": 0.0161,
      "velocity": 115,
      "chip": "ym2612"
    },
    {
      "channel": 4,
      "note": 62,
      "start": 49.6095,
      "duration": 0.0141,
      "velocity": 120,
      "chip": "ym2612"
    },
    {
      "channel": 3,
      "note": 57,
      "start": 49.6106,
      "duration": 0.0141,
      "velocity": 120,
      "chip": "ym2612"
    },
    {
      "channel": 2,
      "note": 50,
      "start": 49.6118,
      "duration": 0.014,
      "velocity": 100,
      "chip": "ym2612"
    },
    {
      "channel": 1,
      "note": 53,
      "start": 49.6203,
      "duration": 0.0161,
      "velocity": 124,
      "chip": "ym2612"
    },
    {
      "channel": 0,
      "note": 39,
      "start": 49.622,
      "duration": 0.0161,
      "velocity": 115,
      "chip": "ym2612"
    },
    {
      "channel": 4,
      "note": 62,
      "start": 49.6235,
      "duration": 0.0184,
      "velocity": 120,
      "chip": "ym2612"
    },
    {
      "channel": 3,
      "note": 57,
      "start": 49.6247,
      "duration": 0.0185,
      "velocity": 120,
      "chip": "ym2612"
    },
    {
      "channel": 1,
      "note": 52,
      "start": 49.6364,
      "duration": 0.0161,
      "velocity": 124,
      "chip": "ym2612"
    },
    {
      "channel": 0,
      "note": 40,
      "start": 49.6381,
      "duration": 0.0161,
      "velocity": 115,
      "chip": "ym2612"
    },
    {
      "channel": 4,
      "note": 62,
      "start": 49.642,
      "duration": 0.0134,
      "velocity": 120,
      "chip": "ym2612"
    },
    {
      "channel": 3,
      "note": 57,
      "start": 49.6432,
      "duration": 0.0161,
      "velocity": 120,
      "chip": "ym2612"
    },
    {
      "channel": 1,
      "note": 51,
      "start": 49.6525,
      "duration": 0.0153,
      "velocity": 1,
      "chip": "ym2612"
    },
    {
      "channel": 0,
      "note": 40,
      "start": 49.6542,
      "duration": 0.0153,
      "velocity": 115,
      "chip": "ym2612"
    },
    {
      "channel": 4,
      "note": 62,
      "start": 49.6553,
      "duration": 0.0153,
      "velocity": 120,
      "chip": "ym2612"
    },
    {
      "channel": 3,
      "note": 57,
      "start": 49.6593,
      "duration": 0.0125,
      "velocity": 120,
      "chip": "ym2612"
    },
    {
      "channel": 0,
      "note": 40,
      "start": 49.6695,
      "duration": 0.0152,
      "velocity": 115,
      "chip": "ym2612"
    },
    {
      "channel": 4,
      "note": 62,
      "start": 49.6707,
      "duration": 0.0153,
      "velocity": 120,
      "chip": "ym2612"
    },
    {
      "channel": 3,
      "note": 57,
      "start": 49.6718,
      "duration": 0.0153,
      "velocity": 120,
      "chip": "ym2612"
    },
    {
      "channel": 0,
      "note": 41,
      "start": 49.6847,
      "duration": 0.0161,
      "velocity": 115,
      "chip": "ym2612"
    },
    {
      "channel": 4,
      "note": 62,
      "start": 49.6859,
      "duration": 0.0161,
      "velocity": 120,
      "chip": "ym2612"
    },
    {
      "channel": 3,
      "note": 57,
      "start": 49.6871,
      "duration": 0.0161,
      "velocity": 120,
      "chip": "ym2612"
    },
    {
      "channel": 0,
      "note": 41,
      "start": 49.7008,
      "duration": 0.0161,
      "velocity": 115,
      "chip": "ym2612"
    },
    {
      "channel": 4,
      "note": 62,
      "start": 49.702,
      "duration": 0.0161,
      "velocity": 120,
      "chip": "ym2612"
    },
    {
      "channel": 3,
      "note": 57,
      "start": 49.7032,
      "duration": 0.0161,
      "velocity": 120,
      "chip": "ym2612"
    },
    {
      "channel": 2,
      "note": 50,
      "start": 49.7047,
      "duration": 0.0158,
      "velocity": 100,
      "chip": "ym2612"
    },
    {
      "channel": 1,
      "note": 38,
      "start": 49.709,
      "duration": 0.0127,
      "velocity": 100,
      "chip": "ym2612"
    },
    {
      "channel": 0,
      "note": 42,
      "start": 49.7169,
      "duration": 0.0161,
      "velocity": 115,
      "chip": "ym2612"
    },
    {
      "channel": 4,
      "note": 62,
      "start": 49.7181,
      "duration": 0.0161,
      "velocity": 120,
      "chip": "ym2612"
    },
    {
      "channel": 3,
      "note": 57,
      "start": 49.7193,
      "duration": 0.0161,
      "velocity": 120,
      "chip": "ym2612"
    },
    {
      "channel": 2,
      "note": 50,
      "start": 49.7205,
      "duration": 0.016,
      "velocity": 100,
      "chip": "ym2612"
    },
    {
      "channel": 1,
      "note": 38,
      "start": 49.7217,
      "duration": 0.016,
      "velocity": 100,
      "chip": "ym2612"
    },
    {
      "channel": 0,
      "note": 42,
      "start": 49.7331,
      "duration": 0.0161,
      "velocity": 115,
      "chip": "ym2612"
    },
    {
      "channel": 4,
      "note": 62,
      "start": 49.7342,
      "duration": 0.0161,
      "velocity": 120,
      "chip": "ym2612"
    },
    {
      "channel": 3,
      "note": 57,
      "start": 49.7354,
      "duration": 0.0161,
      "velocity": 120,
      "chip": "ym2612"
    },
    {
      "channel": 2,
      "note": 50,
      "start": 49.7365,
      "duration": 0.0161,
      "velocity": 100,
      "chip": "ym2612"
    },
    {
      "channel": 1,
      "note": 38,
      "start": 49.7376,
      "duration": 0.0161,
      "velocity": 100,
      "chip": "ym2612"
    },
    {
      "channel": 0,
      "note": 43,
      "start": 49.7492,
      "duration": 0.0161,
      "velocity": 115,
      "chip": "ym2612"
    },
    {
      "channel": 4,
      "note": 62,
      "start": 49.7503,
      "duration": 0.0161,
      "velocity": 120,
      "chip": "ym2612"
    },
    {
      "channel": 3,
      "note": 57,
      "start": 49.7515,
      "duration": 0.0161,
      "velocity": 120,
      "chip": "ym2612"
    },
    {
      "channel": 2,
      "note": 50,
      "start": 49.7526,
      "duration": 0.0161,
      "velocity": 100,
      "chip": "ym2612"
    },
    {
      "channel": 1,
      "note": 38,
      "start": 49.7537,
      "duration": 0.0161,
      "velocity": 100,
      "chip": "ym2612"
    },
    {
      "channel": 0,
      "note": 43,
      "start": 49.7653,
      "duration": 0.0161,
      "velocity": 115,
      "chip": "ym2612"
    },
    {
      "channel": 4,
      "note": 62,
      "start": 49.7665,
      "duration": 0.0161,
      "velocity": 120,
      "chip": "ym2612"
    },
    {
      "channel": 3,
      "note": 57,
      "start": 49.7676,
      "duration": 0.0161,
      "velocity": 120,
      "chip": "ym2612"
    },
    {
      "channel": 2,
      "note": 50,
      "start": 49.7688,
      "duration": 0.0161,
      "velocity": 100,
      "chip": "ym2612"
    },
    {
      "channel": 1,
      "note": 38,
      "start": 49.7698,
      "duration": 0.0161,
      "velocity": 100,
      "chip": "ym2612"
    },
    {
      "channel": 0,
      "note": 44,
      "start": 49.7814,
      "duration": 0.0161,
      "velocity": 115,
      "chip": "ym2612"
    },
    {
      "channel": 4,
      "note": 62,
      "start": 49.7826,
      "duration": 0.0161,
      "velocity": 120,
      "chip": "ym2612"
    },
    {
      "channel": 3,
      "note": 57,
      "start": 49.7837,
      "duration": 0.0161,
      "velocity": 120,
      "chip": "ym2612"
    },
    {
      "channel": 2,
      "note": 50,
      "start": 49.7849,
      "duration": 0.0161,
      "velocity": 100,
      "chip": "ym2612"
    },
    {
      "channel": 1,
      "note": 38,
      "start": 49.786,
      "duration": 0.0161,
      "velocity": 100,
      "chip": "ym2612"
    },
    {
      "channel": 0,
      "note": 44,
      "start": 49.7974,
      "duration": 0.0161,
      "velocity": 115,
      "chip": "ym2612"
    },
    {
      "channel": 4,
      "note": 62,
      "start": 49.7987,
      "duration": 0.0161,
      "velocity": 120,
      "chip": "ym2612"
    },
    {
      "channel": 3,
      "note": 57,
      "start": 49.7998,
      "duration": 0.0161,
      "velocity": 120,
      "chip": "ym2612"
    },
    {
      "channel": 2,
      "note": 50,
      "start": 49.801,
      "duration": 0.0161,
      "velocity": 100,
      "chip": "ym2612"
    },
    {
      "channel": 1,
      "note": 38,
      "start": 49.8021,
      "duration": 0.0161,
      "velocity": 100,
      "chip": "ym2612"
    },
    {
      "channel": 0,
      "note": 44,
      "start": 49.8135,
      "duration": 0.0161,
      "velocity": 115,
      "chip": "ym2612"
    },
    {
      "channel": 4,
      "note": 62,
      "start": 49.8147,
      "duration": 0.0161,
      "velocity": 120,
      "chip": "ym2612"
    },
    {
      "channel": 3,
      "note": 57,
      "start": 49.8159,
      "duration": 0.0161,
      "velocity": 120,
      "chip": "ym2612"
    },
    {
      "channel": 0,
      "note": 45,
      "start": 49.8296,
      "duration": 0.0161,
      "velocity": 115,
      "chip": "ym2612"
    },
    {
      "channel": 4,
      "note": 62,
      "start": 49.8308,
      "duration": 0.0161,
      "velocity": 120,
      "chip": "ym2612"
    },
    {
      "channel": 3,
      "note": 57,
      "start": 49.832,
      "duration": 0.016,
      "velocity": 120,
      "chip": "ym2612"
    },
    {
      "channel": 0,
      "note": 45,
      "start": 49.8457,
      "duration": 0.0161,
      "velocity": 115,
      "chip": "ym2612"
    },
    {
      "channel": 4,
      "note": 62,
      "start": 49.8469,
      "duration": 0.0161,
      "velocity": 120,
      "chip": "ym2612"
    },
    {
      "channel": 3,
      "note": 57,
      "start": 49.8481,
      "duration": 0.0161,
      "velocity": 120,
      "chip": "ym2612"
    },
    {
      "channel": 0,
      "note": 46,
      "start": 49.8618,
      "duration": 0.0162,
      "velocity": 115,
      "chip": "ym2612"
    },
    {
      "channel": 4,
      "note": 62,
      "start": 49.863,
      "duration": 0.0161,
      "velocity": 120,
      "chip": "ym2612"
    },
    {
      "channel": 3,
      "note": 57,
      "start": 49.8642,
      "duration": 0.0162,
      "velocity": 120,
      "chip": "ym2612"
    },
    {
      "channel": 0,
      "note": 46,
      "start": 49.878,
      "duration": 0.0195,
      "velocity": 115,
      "chip": "ym2612"
    },
    {
      "channel": 4,
      "note": 62,
      "start": 49.8791,
      "duration": 0.0196,
      "velocity": 120,
      "chip": "ym2612"
    },
    {
      "channel": 3,
      "note": 57,
      "start": 49.8803,
      "duration": 0.0195,
      "velocity": 120,
      "chip": "ym2612"
    },
    {
      "channel": 1,
      "note": 78,
      "start": 49.8958,
      "duration": 0.0148,
      "velocity": 124,
      "chip": "ym2612"
    },
    {
      "channel": 0,
      "note": 47,
      "start": 49.8975,
      "duration": 0.0148,
      "velocity": 115,
      "chip": "ym2612"
    },
    {
      "channel": 4,
      "note": 62,
      "start": 49.8987,
      "duration": 0.0148,
      "velocity": 120,
      "chip": "ym2612"
    },
    {
      "channel": 3,
      "note": 57,
      "start": 49.8999,
      "duration": 0.0148,
      "velocity": 120,
      "chip": "ym2612"
    },
    {
      "channel": 2,
      "note": 50,
      "start": 49.9014,
      "duration": 0.0145,
      "velocity": 100,
      "chip": "ym2612"
    },
    {
      "channel": 1,
      "note": 76,
      "start": 49.9106,
      "duration": 0.0167,
      "velocity": 124,
      "chip": "ym2612"
    },
    {
      "channel": 0,
      "note": 47,
      "start": 49.9123,
      "duration": 0.0167,
      "velocity": 115,
      "chip": "ym2612"
    },
    {
      "channel": 4,
      "note": 62,
      "start": 49.9135,
      "duration": 0.0167,
      "velocity": 120,
      "chip": "ym2612"
    },
    {
      "channel": 3,
      "note": 57,
      "start": 49.9147,
      "duration": 0.0167,
      "velocity": 120,
      "chip": "ym2612"
    },
    {
      "channel": 2,
      "note": 50,
      "start": 49.9159,
      "duration": 0.0166,
      "velocity": 100,
      "chip": "ym2612"
    },
    {
      "channel": 1,
      "note": 75,
      "start": 49.9273,
      "duration": 0.0163,
      "velocity": 124,
      "chip": "ym2612"
    },
    {
      "channel": 0,
      "note": 47,
      "start": 49.929,
      "duration": 0.0163,
      "velocity": 115,
      "chip": "ym2612"
    },
    {
      "channel": 4,
      "note": 62,
      "start": 49.9302,
      "duration": 0.0163,
      "velocity": 120,
      "chip": "ym2612"
    },
    {
      "channel": 3,
      "note": 57,
      "start": 49.9314,
      "duration": 0.0163,
      "velocity": 120,
      "chip": "ym2612"
    },
    {
      "channel": 2,
      "note": 50,
      "start": 49.9325,
      "duration": 0.0163,
      "velocity": 100,
      "chip": "ym2612"
    },
    {
      "channel": 1,
      "note": 74,
      "start": 49.9436,
      "duration": 0.0148,
      "velocity": 124,
      "chip": "ym2612"
    },
    {
      "channel": 0,
      "note": 48,
      "start": 49.9453,
      "duration": 0.0148,
      "velocity": 115,
      "chip": "ym2612"
    },
    {
      "channel": 4,
      "note": 62,
      "start": 49.9465,
      "duration": 0.0148,
      "velocity": 120,
      "chip": "ym2612"
    },
    {
      "channel": 3,
      "note": 57,
      "start": 49.9476,
      "duration": 0.0149,
      "velocity": 120,
      "chip": "ym2612"
    },
    {
      "channel": 2,
      "note": 50,
      "start": 49.9488,
      "duration": 0.0149,
      "velocity": 100,
      "chip": "ym2612"
    },
    {
      "channel": 1,
      "note": 72,
      "start": 49.9584,
      "duration": 0.0188,
      "velocity": 124,
      "chip": "ym2612"
    },
    {
      "channel": 0,
      "note": 48,
      "start": 49.9601,
      "duration": 0.0188,
      "velocity": 115,
      "chip": "ym2612"
    },
    {
      "channel": 4,
      "note": 62,
      "start": 49.9613,
      "duration": 0.0188,
      "velocity": 120,
      "chip": "ym2612"
    },
    {
      "channel": 3,
      "note": 57,
      "start": 49.9625,
      "duration": 0.0188,
      "velocity": 120,
      "chip": "ym2612"
    },
    {
      "channel": 2,
      "note": 50,
      "start": 49.9637,
      "duration": 0.0188,
      "velocity": 100,
      "chip": "ym2612"
    },
    {
      "channel": 1,
      "note": 71,
      "start": 49.9772,
      "duration": 0.0161,
      "velocity": 124,
      "chip": "ym2612"
    },
    {
      "channel": 0,
      "note": 49,
      "start": 49.9789,
      "duration": 0.0153,
      "velocity": 1,
      "chip": "ym2612"
    },
    {
      "channel": 4,
      "note": 62,
      "start": 49.9801,
      "duration": 0.0153,
      "velocity": 120,
      "chip": "ym2612"
    },
    {
      "channel": 3,
      "note": 57,
      "start": 49.9814,
      "duration": 0.0153,
      "velocity": 120,
      "chip": "ym2612"
    },
    {
      "channel": 2,
      "note": 50,
      "start": 49.9824,
      "duration": 0.0153,
      "velocity": 100,
      "chip": "ym2612"
    },
    {
      "channel": 1,
      "note": 70,
      "start": 49.9933,
      "duration": 0.0158,
      "velocity": 124,
      "chip": "ym2612"
    },
    {
      "channel": 4,
      "note": 62,
      "start": 49.9955,
      "duration": 0.0149,
      "velocity": 120,
      "chip": "ym2612"
    },
    {
      "channel": 3,
      "note": 57,
      "start": 49.9966,
      "duration": 0.0149,
      "velocity": 120,
      "chip": "ym2612"
    },
    {
      "channel": 2,
      "note": 50,
      "start": 49.9978,
      "duration": 0.0149,
      "velocity": 100,
      "chip": "ym2612"
    },
    {
      "channel": 1,
      "note": 69,
      "start": 50.0091,
      "duration": 0.0141,
      "velocity": 124,
      "chip": "ym2612"
    },
    {
      "channel": 4,
      "note": 62,
      "start": 50.0104,
      "duration": 0.0141,
      "velocity": 120,
      "chip": "ym2612"
    },
    {
      "channel": 3,
      "note": 57,
      "start": 50.0115,
      "duration": 0.0141,
      "velocity": 120,
      "chip": "ym2612"
    },
    {
      "channel": 1,
      "note": 68,
      "start": 50.0232,
      "duration": 0.0157,
      "velocity": 124,
      "chip": "ym2612"
    },
    {
      "channel": 4,
      "note": 62,
      "start": 50.0244,
      "duration": 0.0185,
      "velocity": 120,
      "chip": "ym2612"
    },
    {
      "channel": 3,
      "note": 57,
      "start": 50.0256,
      "duration": 0.0185,
      "velocity": 120,
      "chip": "ym2612"
    },
    {
      "channel": 1,
      "note": 66,
      "start": 50.0389,
      "duration": 0.0161,
      "velocity": 124,
      "chip": "ym2612"
    },
    {
      "channel": 4,
      "note": 62,
      "start": 50.0429,
      "duration": 0.0161,
      "velocity": 120,
      "chip": "ym2612"
    },
    {
      "channel": 3,
      "note": 57,
      "start": 50.0441,
      "duration": 0.0161,
      "velocity": 120,
      "chip": "ym2612"
    },
    {
      "channel": 1,
      "note": 65,
      "start": 50.055,
      "duration": 0.0161,
      "velocity": 124,
      "chip": "ym2612"
    },
    {
      "channel": 4,
      "note": 62,
      "start": 50.059,
      "duration": 0.0134,
      "velocity": 120,
      "chip": "ym2612"
    },
    {
      "channel": 3,
      "note": 57,
      "start": 50.0602,
      "duration": 0.0157,
      "velocity": 120,
      "chip": "ym2612"
    },
    {
      "channel": 1,
      "note": 64,
      "start": 50.0711,
      "duration": 0.0161,
      "velocity": 124,
      "chip": "ym2612"
    },
    {
      "channel": 4,
      "note": 62,
      "start": 50.0724,
      "duration": 0.0198,
      "velocity": 120,
      "chip": "ym2612"
    },
    {
      "channel": 3,
      "note": 57,
      "start": 50.0759,
      "duration": 0.0176,
      "velocity": 120,
      "chip": "ym2612"
    },
    {
      "channel": 1,
      "note": 62,
      "start": 50.0872,
      "duration": 0.0161,
      "velocity": 124,
      "chip": "ym2612"
    },
    {
      "channel": 0,
      "note": 36,
      "start": 50.091,
      "duration": 0.0141,
      "velocity": 115,
      "chip": "ym2612"
    },
    {
      "channel": 4,
      "note": 62,
      "start": 50.0922,
      "duration": 0.0168,
      "velocity": 120,
      "chip": "ym2612"
    },
    {
      "channel": 3,
      "note": 57,
      "start": 50.0934,
      "duration": 0.0167,
      "velocity": 120,
      "chip": "ym2612"
    },
    {
      "channel": 2,
      "note": 50,
      "start": 50.095,
      "duration": 0.0164,
      "velocity": 100,
      "chip": "ym2612"
    },
    {
      "channel": 1,
      "note": 61,
      "start": 50.1033,
      "duration": 0.0161,
      "velocity": 124,
      "chip": "ym2612"
    },
    {
      "channel": 0,
      "note": 36,
      "start": 50.1051,
      "duration": 0.016,
      "velocity": 115,
      "chip": "ym2612"
    },
    {
      "channel": 4,
      "note": 62,
      "start": 50.109,
      "duration": 0.0133,
      "velocity": 120,
      "chip": "ym2612"
    },
    {
      "channel": 3,
      "note": 57,
      "start": 50.1102,
      "duration": 0.016,
      "velocity": 120,
      "chip": "ym2612"
    },
    {
      "channel": 2,
      "note": 50,
      "start": 50.1114,
      "duration": 0.016,
      "velocity": 100,
      "chip": "ym2612"
    },
    {
      "channel": 1,
      "note": 60,
      "start": 50.1194,
      "duration": 0.0161,
      "velocity": 124,
      "chip": "ym2612"
    },
    {
      "channel": 0,
      "note": 37,
      "start": 50.1211,
      "duration": 0.0161,
      "velocity": 115,
      "chip": "ym2612"
    },
    {
      "channel": 4,
      "note": 62,
      "start": 50.1223,
      "duration": 0.0161,
      "velocity": 120,
      "chip": "ym2612"
    },
    {
      "channel": 3,
      "note": 57,
      "start": 50.1262,
      "duration": 0.0158,
      "velocity": 120,
      "chip": "ym2612"
    },
    {
      "channel": 2,
      "note": 50,
      "start": 50.1273,
      "duration": 0.0157,
      "velocity": 100,
      "chip": "ym2612"
    },
    {
      "channel": 1,
      "note": 59,
      "start": 50.1355,
      "duration": 0.0161,
      "velocity": 124,
      "chip": "ym2612"
    },
    {
      "channel": 0,
      "note": 37,
      "start": 50.1372,
      "duration": 0.0161,
      "velocity": 115,
      "chip": "ym2612"
    },
    {
      "channel": 4,
      "note": 62,
      "start": 50.1384,
      "duration": 0.0161,
      "velocity": 120,
      "chip": "ym2612"
    },
    {
      "channel": 3,
      "note": 57,
      "start": 50.142,
      "duration": 0.0137,
      "velocity": 120,
      "chip": "ym2612"
    },
    {
      "channel": 2,
      "note": 50,
      "start": 50.1431,
      "duration": 0.0141,
      "velocity": 100,
      "chip": "ym2612"
    },
    {
      "channel": 1,
      "note": 57,
      "start": 50.1516,
      "duration": 0.0161,
      "velocity": 124,
      "chip": "ym2612"
    },
    {
      "channel": 0,
      "note": 38,
      "start": 50.1533,
      "duration": 0.0161,
      "velocity": 115,
      "chip": "ym2612"
    },
    {
      "channel": 4,
      "note": 62,
      "start": 50.1545,
      "duration": 0.0161,
      "velocity": 120,
      "chip": "ym2612"
    },
    {
      "channel": 3,
      "note": 57,
      "start": 50.1556,
      "duration": 0.0161,
      "velocity": 120,
      "chip": "ym2612"
    },
    {
      "channel": 2,
      "note": 50,
      "start": 50.1571,
      "duration": 0.0185,
      "velocity": 100,
      "chip": "ym2612"
    },
    {
      "channel": 1,
      "note": 56,
      "start": 50.1677,
      "duration": 0.0161,
      "velocity": 124,
      "chip": "ym2612"
    },
    {
      "channel": 0,
      "note": 38,
      "start": 50.1694,
      "duration": 0.0162,
      "velocity": 115,
      "chip": "ym2612"
    },
    {
      "channel": 4,
      "note": 62,
      "start": 50.1706,
      "duration": 0.0161,
      "velocity": 120,
      "chip": "ym2612"
    },
    {
      "channel": 3,
      "note": 57,
      "start": 50.1717,
      "duration": 0.0162,
      "velocity": 120,
      "chip": "ym2612"
    },
    {
      "channel": 2,
      "note": 50,
      "start": 50.1756,
      "duration": 0.0134,
      "velocity": 100,
      "chip": "ym2612"
    },
    {
      "channel": 1,
      "note": 55,
      "start": 50.1838,
      "duration": 0.0162,
      "velocity": 124,
      "chip": "ym2612"
    },
    {
      "channel": 0,
      "note": 39,
      "start": 50.1856,
      "duration": 0.0161,
      "velocity": 115,
      "chip": "ym2612"
    },
    {
      "channel": 4,
      "note": 62,
      "start": 50.1867,
      "duration": 0.0162,
      "velocity": 120,
      "chip": "ym2612"
    },
    {
      "channel": 3,
      "note": 57,
      "start": 50.1879,
      "duration": 0.0161,
      "velocity": 120,
      "chip": "ym2612"
    },
    {
      "channel": 2,
      "note": 50,
      "start": 50.189,
      "duration": 0.0162,
      "velocity": 100,
      "chip": "ym2612"
    },
    {
      "channel": 1,
      "note": 53,
      "start": 50.1999,
      "duration": 0.0161,
      "velocity": 124,
      "chip": "ym2612"
    },
    {
      "channel": 0,
      "note": 39,
      "start": 50.2016,
      "duration": 0.0161,
      "velocity": 115,
      "chip": "ym2612"
    },
    {
      "channel": 4,
      "note": 62,
      "start": 50.2029,
      "duration": 0.0161,
      "velocity": 120,
      "chip": "ym2612"
    },
    {
      "channel": 3,
      "note": 57,
      "start": 50.204,
      "duration": 0.0161,
      "velocity": 120,
      "chip": "ym2612"
    },
    {
      "channel": 1,
      "note": 52,
      "start": 50.216,
      "duration": 0.0161,
      "velocity": 124,
      "chip": "ym2612"
    },
    {
      "channel": 0,
      "note": 40,
      "start": 50.2177,
      "duration": 0.0161,
      "velocity": 115,
      "chip": "ym2612"
    },
    {
      "channel": 4,
      "note": 62,
      "start": 50.219,
      "duration": 0.0161,
      "velocity": 120,
      "chip": "ym2612"
    },
    {
      "channel": 3,
      "note": 57,
      "start": 50.2201,
      "duration": 0.0161,
      "velocity": 120,
      "chip": "ym2612"
    },
    {
      "channel": 1,
      "note": 51,
      "start": 50.2321,
      "duration": 0.0153,
      "velocity": 1,
      "chip": "ym2612"
    },
    {
      "channel": 0,
      "note": 40,
      "start": 50.2338,
      "duration": 0.0153,
      "velocity": 115,
      "chip": "ym2612"
    },
    {
      "channel": 4,
      "note": 62,
      "start": 50.235,
      "duration": 0.0153,
      "velocity": 120,
      "chip": "ym2612"
    },
    {
      "channel": 3,
      "note": 57,
      "start": 50.2362,
      "duration": 0.0153,
      "velocity": 120,
      "chip": "ym2612"
    },
    {
      "channel": 0,
      "note": 40,
      "start": 50.2491,
      "duration": 0.0153,
      "velocity": 115,
      "chip": "ym2612"
    },
    {
      "channel": 4,
      "note": 62,
      "start": 50.2503,
      "duration": 0.0153,
      "velocity": 120,
      "chip": "ym2612"
    },
    {
      "channel": 3,
      "note": 57,
      "start": 50.2515,
      "duration": 0.0153,
      "velocity": 120,
      "chip": "ym2612"
    },
    {
      "channel": 0,
      "note": 41,
      "start": 50.2644,
      "duration": 0.0161,
      "velocity": 115,
      "chip": "ym2612"
    },
    {
      "channel": 4,
      "note": 62,
      "start": 50.2656,
      "duration": 0.0161,
      "velocity": 120,
      "chip": "ym2612"
    },
    {
      "channel": 3,
      "note": 57,
      "start": 50.2667,
      "duration": 0.0161,
      "velocity": 120,
      "chip": "ym2612"
    },
    {
      "channel": 0,
      "note": 41,
      "start": 50.2805,
      "duration": 0.0161,
      "velocity": 115,
      "chip": "ym2612"
    },
    {
      "channel": 4,
      "note": 62,
      "start": 50.2817,
      "duration": 0.0161,
      "velocity": 120,
      "chip": "ym2612"
    },
    {
      "channel": 3,
      "note": 57,
      "start": 50.2828,
      "duration": 0.0161,
      "velocity": 120,
      "chip": "ym2612"
    },
    {
      "channel": 2,
      "note": 50,
      "start": 50.2843,
      "duration": 0.0158,
      "velocity": 100,
      "chip": "ym2612"
    },
    {
      "channel": 1,
      "note": 38,
      "start": 50.2859,
      "duration": 0.0154,
      "velocity": 100,
      "chip": "ym2612"
    },
    {
      "channel": 0,
      "note": 42,
      "start": 50.2966,
      "duration": 0.0162,
      "velocity": 115,
      "chip": "ym2612"
    },
    {
      "channel": 4,
      "note": 62,
      "start": 50.2978,
      "duration": 0.0161,
      "velocity": 120,
      "chip": "ym2612"
    },
    {
      "channel": 3,
      "note": 57,
      "start": 50.2989,
      "duration": 0.0161,
      "velocity": 120,
      "chip": "ym2612"
    },
    {
      "channel": 2,
      "note": 50,
      "start": 50.3001,
      "duration": 0.016,
      "velocity": 100,
      "chip": "ym2612"
    },
    {
      "channel": 1,
      "note": 38,
      "start": 50.3013,
      "duration": 0.016,
      "velocity": 100,
      "chip": "ym2612"
    },
    {
      "channel": 0,
      "note": 42,
      "start": 50.3127,
      "duration": 0.0161,
      "velocity": 115,
      "chip": "ym2612"
    },
    {
      "channel": 4,
      "note": 62,
      "start": 50.3139,
      "duration": 0.0161,
      "velocity": 120,
      "chip": "ym2612"
    },
    {
      "channel": 3,
      "note": 57,
      "start": 50.3151,
      "duration": 0.0161,
      "velocity": 120,
      "chip": "ym2612"
    },
    {
      "channel": 2,
      "note": 50,
      "start": 50.3161,
      "duration": 0.0161,
      "velocity": 100,
      "chip": "ym2612"
    },
    {
      "channel": 1,
      "note": 38,
      "start": 50.3173,
      "duration": 0.0161,
      "velocity": 100,
      "chip": "ym2612"
    },
    {
      "channel": 0,
      "note": 43,
      "start": 50.3288,
      "duration": 0.0161,
      "velocity": 115,
      "chip": "ym2612"
    },
    {
      "channel": 4,
      "note": 62,
      "start": 50.33,
      "duration": 0.0161,
      "velocity": 120,
      "chip": "ym2612"
    },
    {
      "channel": 3,
      "note": 57,
      "start": 50.3312,
      "duration": 0.0161,
      "velocity": 120,
      "chip": "ym2612"
    },
    {
      "channel": 2,
      "note": 50,
      "start": 50.3322,
      "duration": 0.0161,
      "velocity": 100,
      "chip": "ym2612"
    },
    {
      "channel": 1,
      "note": 38,
      "start": 50.3334,
      "duration": 0.0162,
      "velocity": 100,
      "chip": "ym2612"
    },
    {
      "channel": 0,
      "note": 43,
      "start": 50.3449,
      "duration": 0.0161,
      "velocity": 115,
      "chip": "ym2612"
    },
    {
      "channel": 4,
      "note": 62,
      "start": 50.3461,
      "duration": 0.0161,
      "velocity": 120,
      "chip": "ym2612"
    },
    {
      "channel": 3,
      "note": 57,
      "start": 50.3473,
      "duration": 0.0161,
      "velocity": 120,
      "chip": "ym2612"
    },
    {
      "channel": 2,
      "note": 50,
      "start": 50.3484,
      "duration": 0.0161,
      "velocity": 100,
      "chip": "ym2612"
    },
    {
      "channel": 1,
      "note": 38,
      "start": 50.3495,
      "duration": 0.016,
      "velocity": 100,
      "chip": "ym2612"
    },
    {
      "channel": 0,
      "note": 44,
      "start": 50.361,
      "duration": 0.0163,
      "velocity": 115,
      "chip": "ym2612"
    },
    {
      "channel": 4,
      "note": 62,
      "start": 50.3622,
      "duration": 0.0163,
      "velocity": 120,
      "chip": "ym2612"
    },
    {
      "channel": 3,
      "note": 57,
      "start": 50.3634,
      "duration": 0.0163,
      "velocity": 120,
      "chip": "ym2612"
    },
    {
      "channel": 2,
      "note": 50,
      "start": 50.3645,
      "duration": 0.0163,
      "velocity": 100,
      "chip": "ym2612"
    },
    {
      "channel": 1,
      "note": 38,
      "start": 50.3656,
      "duration": 0.0163,
      "velocity": 100,
      "chip": "ym2612"
    },
    {
      "channel": 0,
      "note": 44,
      "start": 50.3773,
      "duration": 0.0167,
      "velocity": 115,
      "chip": "ym2612"
    },
    {
      "channel": 4,
      "note": 62,
      "start": 50.3785,
      "duration": 0.0166,
      "velocity": 120,
      "chip": "ym2612"
    },
    {
      "channel": 3,
      "note": 57,
      "start": 50.3797,
      "duration": 0.0167,
      "velocity": 120,
      "chip": "ym2612"
    },
    {
      "channel": 2,
      "note": 50,
      "start": 50.3808,
      "duration": 0.0167,
      "velocity": 100,
      "chip": "ym2612"
    },
    {
      "channel": 1,
      "note": 38,
      "start": 50.3819,
      "duration": 0.0167,
      "velocity": 100,
      "chip": "ym2612"
    },
    {
      "channel": 0,
      "note": 44,
      "start": 50.394,
      "duration": 0.0163,
      "velocity": 115,
      "chip": "ym2612"
    },
    {
      "channel": 4,
      "note": 62,
      "start": 50.3951,
      "duration": 0.0163,
      "velocity": 120,
      "chip": "ym2612"
    },
    {
      "channel": 3,
      "note": 57,
      "start": 50.3964,
      "duration": 0.0163,
      "velocity": 120,
      "chip": "ym2612"
    },
    {
      "channel": 0,
      "note": 45,
      "start": 50.4103,
      "duration": 0.0151,
      "velocity": 115,
      "chip": "ym2612"
    },
    {
      "channel": 4,
      "note": 62,
      "start": 50.4115,
      "duration": 0.0151,
      "velocity": 120,
      "chip": "ym2612"
    },
    {
      "channel": 3,
      "note": 57,
      "start": 50.4127,
      "duration": 0.0151,
      "velocity": 120,
      "chip": "ym2612"
    },
    {
      "channel": 0,
      "note": 45,
      "start": 50.4254,
      "duration": 0.0186,
      "velocity": 115,
      "chip": "ym2612"
    },
    {
      "channel": 4,
      "note": 62,
      "start": 50.4266,
      "duration": 0.0186,
      "velocity": 120,
      "chip": "ym2612"
    },
    {
      "channel": 3,
      "note": 57,
      "start": 50.4277,
      "duration": 0.0186,
      "velocity": 120,
      "chip": "ym2612"
    },
    {
      "channel": 0,
      "note": 46,
      "start": 50.444,
      "duration": 0.0163,
      "velocity": 115,
      "chip": "ym2612"
    },
    {
      "channel": 4,
      "note": 62,
      "start": 50.4452,
      "duration": 0.0163,
      "velocity": 120,
      "chip": "ym2612"
    },
    {
      "channel": 3,
      "note": 57,
      "start": 50.4464,
      "duration": 0.0163,
      "velocity": 120,
      "chip": "ym2612"
    },
    {
      "channel": 0,
      "note": 46,
      "start": 50.4604,
      "duration": 0.0175,
      "velocity": 115,
      "chip": "ym2612"
    },
    {
      "channel": 4,
      "note": 62,
      "start": 50.4616,
      "duration": 0.0175,
      "velocity": 120,
      "chip": "ym2612"
    },
    {
      "channel": 3,
      "note": 57,
      "start": 50.4627,
      "duration": 0.0176,
      "velocity": 120,
      "chip": "ym2612"
    },
    {
      "channel": 0,
      "note": 36,
      "start": 50.4778,
      "duration": 0.0124,
      "velocity": 115,
      "chip": "ym2612"
    },
    {
      "channel": 4,
      "note": 62,
      "start": 50.4791,
      "duration": 0.0123,
      "velocity": 120,
      "chip": "ym2612"
    },
    {
      "channel": 3,
      "note": 57,
      "start": 50.4803,
      "duration": 0.0123,
      "velocity": 120,
      "chip": "ym2612"
    },
    {
      "channel": 2,
      "note": 50,
      "start": 50.4818,
      "duration": 0.0119,
      "velocity": 100,
      "chip": "ym2612"
    },
    {
      "channel": 1,
      "note": 38,
      "start": 50.4833,
      "duration": 0.0116,
      "velocity": 100,
      "chip": "ym2612"
    },
    {
      "channel": 0,
      "note": 36,
      "start": 50.4902,
      "duration": 0.0157,
      "velocity": 115,
      "chip": "ym2612"
    },
    {
      "channel": 4,
      "note": 62,
      "start": 50.4913,
      "duration": 0.0185,
      "velocity": 120,
      "chip": "ym2612"
    },
    {
      "channel": 3,
      "note": 57,
      "start": 50.4925,
      "duration": 0.0185,
      "velocity": 120,
      "chip": "ym2612"
    },
    {
      "channel": 2,
      "note": 50,
      "start": 50.4937,
      "duration": 0.0184,
      "velocity": 100,
      "chip": "ym2612"
    },
    {
      "channel": 1,
      "note": 38,
      "start": 50.4949,
      "duration": 0.0184,
      "velocity": 100,
      "chip": "ym2612"
    },
    {
      "channel": 0,
      "note": 37,
      "start": 50.5059,
      "duration": 0.0161,
      "velocity": 115,
      "chip": "ym2612"
    },
    {
      "channel": 4,
      "note": 62,
      "start": 50.5098,
      "duration": 0.0161,
      "velocity": 120,
      "chip": "ym2612"
    },
    {
      "channel": 3,
      "note": 57,
      "start": 50.511,
      "duration": 0.0161,
      "velocity": 120,
      "chip": "ym2612"
    },
    {
      "channel": 2,
      "note": 50,
      "start": 50.5121,
      "duration": 0.0161,
      "velocity": 100,
      "chip": "ym2612"
    },
    {
      "channel": 1,
      "note": 38,
      "start": 50.5133,
      "duration": 0.0161,
      "velocity": 100,
      "chip": "ym2612"
    },
    {
      "channel": 0,
      "note": 37,
      "start": 50.522,
      "duration": 0.0161,
      "velocity": 115,
      "chip": "ym2612"
    },
    {
      "channel": 4,
      "note": 62,
      "start": 50.5259,
      "duration": 0.0157,
      "velocity": 120,
      "chip": "ym2612"
    },
    {
      "channel": 3,
      "note": 57,
      "start": 50.5271,
      "duration": 0.0158,
      "velocity": 120,
      "chip": "ym2612"
    },
    {
      "channel": 2,
      "note": 50,
      "start": 50.5282,
      "duration": 0.0157,
      "velocity": 100,
      "chip": "ym2612"
    },
    {
      "channel": 1,
      "note": 38,
      "start": 50.5294,
      "duration": 0.0157,
      "velocity": 100,
      "chip": "ym2612"
    },
    {
      "channel": 0,
      "note": 38,
      "start": 50.5381,
      "duration": 0.0161,
      "velocity": 115,
      "chip": "ym2612"
    },
    {
      "channel": 4,
      "note": 62,
      "start": 50.5417,
      "duration": 0.0137,
      "velocity": 120,
      "chip": "ym2612"
    },
    {
      "channel": 3,
      "note": 57,
      "start": 50.5429,
      "duration": 0.014,
      "velocity": 120,
      "chip": "ym2612"
    },
    {
      "channel": 2,
      "note": 50,
      "start": 50.5439,
      "duration": 0.0141,
      "velocity": 100,
      "chip": "ym2612"
    },
    {
      "channel": 1,
      "note": 38,
      "start": 50.5451,
      "duration": 0.014,
      "velocity": 100,
      "chip": "ym2612"
    },
    {
      "channel": 0,
      "note": 38,
      "start": 50.5542,
      "duration": 0.0161,
      "velocity": 115,
      "chip": "ym2612"
    },
    {
      "channel": 4,
      "note": 62,
      "start": 50.5554,
      "duration": 0.0161,
      "velocity": 120,
      "chip": "ym2612"
    },
    {
      "channel": 3,
      "note": 57,
      "start": 50.5569,
      "duration": 0.0186,
      "velocity": 120,
      "chip": "ym2612"
    },
    {
      "channel": 2,
      "note": 50,
      "start": 50.558,
      "duration": 0.0185,
      "velocity": 100,
      "chip": "ym2612"
    },
    {
      "channel": 1,
      "note": 38,
      "start": 50.5591,
      "duration": 0.0185,
      "velocity": 100,
      "chip": "ym2612"
    },
    {
      "channel": 0,
      "note": 39,
      "start": 50.5703,
      "duration": 0.0161,
      "velocity": 115,
      "chip": "ym2612"
    },
    {
      "channel": 4,
      "note": 62,
      "start": 50.5715,
      "duration": 0.0161,
      "velocity": 120,
      "chip": "ym2612"
    },
    {
      "channel": 3,
      "note": 57,
      "start": 50.5754,
      "duration": 0.0133,
      "velocity": 120,
      "chip": "ym2612"
    },
    {
      "channel": 2,
      "note": 50,
      "start": 50.5765,
      "duration": 0.0162,
      "velocity": 100,
      "chip": "ym2612"
    },
    {
      "channel": 1,
      "note": 38,
      "start": 50.5777,
      "duration": 0.0161,
      "velocity": 100,
      "chip": "ym2612"
    },
    {
      "channel": 0,
      "note": 39,
      "start": 50.5864,
      "duration": 0.0162,
      "velocity": 115,
      "chip": "ym2612"
    },
    {
      "channel": 4,
      "note": 62,
      "start": 50.5876,
      "duration": 0.0162,
      "velocity": 120,
      "chip": "ym2612"
    },
    {
      "channel": 3,
      "note": 57,
      "start": 50.5887,
      "duration": 0.0162,
      "velocity": 120,
      "chip": "ym2612"
    },
    {
      "channel": 0,
      "note": 40,
      "start": 50.6025,
      "duration": 0.0161,
      "velocity": 115,
      "chip": "ym2612"
    },
    {
      "channel": 4,
      "note": 62,
      "start": 50.6037,
      "duration": 0.016,
      "velocity": 120,
      "chip": "ym2612"
    },
    {
      "channel": 3,
      "note": 57,
      "start": 50.6049,
      "duration": 0.0161,
      "velocity": 120,
      "chip": "ym2612"
    },
    {
      "channel": 0,
      "note": 40,
      "start": 50.6186,
      "duration": 0.0161,
      "velocity": 115,
      "chip": "ym2612"
    },
    {
      "channel": 4,
      "note": 62,
      "start": 50.6198,
      "duration": 0.0162,
      "velocity": 120,
      "chip": "ym2612"
    },
    {
      "channel": 3,
      "note": 57,
      "start": 50.621,
      "duration": 0.0161,
      "velocity": 120,
      "chip": "ym2612"
    },
    {
      "channel": 0,
      "note": 40,
      "start": 50.6347,
      "duration": 0.0161,
      "velocity": 115,
      "chip": "ym2612"
    },
    {
      "channel": 4,
      "note": 62,
      "start": 50.6359,
      "duration": 0.0161,
      "velocity": 120,
      "chip": "ym2612"
    },
    {
      "channel": 3,
      "note": 57,
      "start": 50.6371,
      "duration": 0.0161,
      "velocity": 120,
      "chip": "ym2612"
    },
    {
      "channel": 0,
      "note": 41,
      "start": 50.6508,
      "duration": 0.0195,
      "velocity": 115,
      "chip": "ym2612"
    },
    {
      "channel": 4,
      "note": 62,
      "start": 50.652,
      "duration": 0.0195,
      "velocity": 120,
      "chip": "ym2612"
    },
    {
      "channel": 3,
      "note": 57,
      "start": 50.6532,
      "duration": 0.0219,
      "velocity": 120,
      "chip": "ym2612"
    },
    {
      "channel": 1,
      "note": 78,
      "start": 50.6686,
      "duration": 0.0144,
      "velocity": 124,
      "chip": "ym2612"
    },
    {
      "channel": 0,
      "note": 41,
      "start": 50.6703,
      "duration": 0.0144,
      "velocity": 115,
      "chip": "ym2612"
    },
    {
      "channel": 4,
      "note": 62,
      "start": 50.6716,
      "duration": 0.0144,
      "velocity": 120,
      "chip": "ym2612"
    },
    {
      "channel": 3,
      "note": 57,
      "start": 50.6751,
      "duration": 0.012,
      "velocity": 120,
      "chip": "ym2612"
    },
    {
      "channel": 2,
      "note": 50,
      "start": 50.6766,
      "duration": 0.0116,
      "velocity": 100,
      "chip": "ym2612"
    },
    {
      "channel": 1,
      "note": 76,
      "start": 50.683,
      "duration": 0.016,
      "velocity": 124,
      "chip": "ym2612"
    },
    {
      "channel": 0,
      "note": 42,
      "start": 50.6847,
      "duration": 0.016,
      "velocity": 115,
      "chip": "ym2612"
    },
    {
      "channel": 4,
      "note": 62,
      "start": 50.6859,
      "duration": 0.016,
      "velocity": 120,
      "chip": "ym2612"
    },
    {
      "channel": 3,
      "note": 57,
      "start": 50.6871,
      "duration": 0.016,
      "velocity": 120,
      "chip": "ym2612"
    },
    {
      "channel": 2,
      "note": 50,
      "start": 50.6883,
      "duration": 0.016,
      "velocity": 100,
      "chip": "ym2612"
    },
    {
      "channel": 1,
      "note": 75,
      "start": 50.699,
      "duration": 0.0161,
      "velocity": 124,
      "chip": "ym2612"
    },
    {
      "channel": 0,
      "note": 42,
      "start": 50.7007,
      "duration": 0.0161,
      "velocity": 115,
      "chip": "ym2612"
    },
    {
      "channel": 4,
      "note": 62,
      "start": 50.702,
      "duration": 0.0161,
      "velocity": 120,
      "chip": "ym2612"
    },
    {
      "channel": 3,
      "note": 57,
      "start": 50.7031,
      "duration": 0.0161,
      "velocity": 120,
      "chip": "ym2612"
    },
    {
      "channel": 2,
      "note": 50,
      "start": 50.7042,
      "duration": 0.0161,
      "velocity": 100,
      "chip": "ym2612"
    },
    {
      "channel": 1,
      "note": 74,
      "start": 50.7151,
      "duration": 0.0161,
      "velocity": 124,
      "chip": "ym2612"
    },
    {
      "channel": 0,
      "note": 43,
      "start": 50.7168,
      "duration": 0.0161,
      "velocity": 115,
      "chip": "ym2612"
    },
    {
      "channel": 4,
      "note": 62,
      "start": 50.718,
      "duration": 0.0161,
      "velocity": 120,
      "chip": "ym2612"
    },
    {
      "channel": 3,
      "note": 57,
      "start": 50.7192,
      "duration": 0.0161,
      "velocity": 120,
      "chip": "ym2612"
    },
    {
      "channel": 2,
      "note": 50,
      "start": 50.7203,
      "duration": 0.0162,
      "velocity": 100,
      "chip": "ym2612"
    },
    {
      "channel": 1,
      "note": 72,
      "start": 50.7312,
      "duration": 0.0161,
      "velocity": 124,
      "chip": "ym2612"
    },
    {
      "channel": 0,
      "note": 43,
      "start": 50.7329,
      "duration": 0.0161,
      "velocity": 115,
      "chip": "ym2612"
    },
    {
      "channel": 4,
      "note": 62,
      "start": 50.7341,
      "duration": 0.0161,
      "velocity": 120,
      "chip": "ym2612"
    },
    {
      "channel": 3,
      "note": 57,
      "start": 50.7354,
      "duration": 0.0161,
      "velocity": 120,
      "chip": "ym2612"
    },
    {
      "channel": 2,
      "note": 50,
      "start": 50.7365,
      "duration": 0.016,
      "velocity": 100,
      "chip": "ym2612"
    },
    {
      "channel": 1,
      "note": 71,
      "start": 50.7473,
      "duration": 0.0161,
      "velocity": 124,
      "chip": "ym2612"
    },
    {
      "channel": 0,
      "note": 44,
      "start": 50.749,
      "duration": 0.0162,
      "velocity": 115,
      "chip": "ym2612"
    },
    {
      "channel": 4,
      "note": 62,
      "start": 50.7502,
      "duration": 0.0161,
      "velocity": 120,
      "chip": "ym2612"
    },
    {
      "channel": 3,
      "note": 57,
      "start": 50.7515,
      "duration": 0.0161,
      "velocity": 120,
      "chip": "ym2612"
    },
    {
      "channel": 2,
      "note": 50,
      "start": 50.7525,
      "duration": 0.0161,
      "velocity": 100,
      "chip": "ym2612"
    },
    {
      "channel": 1,
      "note": 70,
      "start": 50.7634,
      "duration": 0.0161,
      "velocity": 124,
      "chip": "ym2612"
    },
    {
      "channel": 0,
      "note": 44,
      "start": 50.7652,
      "duration": 0.0161,
      "velocity": 115,
      "chip": "ym2612"
    },
    {
      "channel": 4,
      "note": 62,
      "start": 50.7663,
      "duration": 0.0161,
      "velocity": 120,
      "chip": "ym2612"
    },
    {
      "channel": 3,
      "note": 57,
      "start": 50.7676,
      "duration": 0.0161,
      "velocity": 120,
      "chip": "ym2612"
    },
    {
      "channel": 2,
      "note": 50,
      "start": 50.7686,
      "duration": 0.0162,
      "velocity": 100,
      "chip": "ym2612"
    },
    {
      "channel": 1,
      "note": 69,
      "start": 50.7795,
      "duration": 0.0162,
      "velocity": 124,
      "chip": "ym2612"
    },
    {
      "channel": 0,
      "note": 44,
      "start": 50.7813,
      "duration": 0.0161,
      "velocity": 115,
      "chip": "ym2612"
    },
    {
      "channel": 4,
      "note": 62,
      "start": 50.7824,
      "duration": 0.0162,
      "velocity": 120,
      "chip": "ym2612"
    },
    {
      "channel": 3,
      "note": 57,
      "start": 50.7837,
      "duration": 0.0161,
      "velocity": 120,
      "chip": "ym2612"
    },
    {
      "channel": 1,
      "note": 68,
      "start": 50.7957,
      "duration": 0.0161,
      "velocity": 124,
      "chip": "ym2612"
    },
    {
      "channel": 0,
      "note": 45,
      "start": 50.7974,
      "duration": 0.0161,
      "velocity": 115,
      "chip": "ym2612"
    },
    {
      "channel": 4,
      "note": 62,
      "start": 50.7986,
      "duration": 0.0161,
      "velocity": 120,
      "chip": "ym2612"
    },
    {
      "channel": 3,
      "note": 57,
      "start": 50.7997,
      "duration": 0.0161,
      "velocity": 120,
      "chip": "ym2612"
    },
    {
      "channel": 1,
      "note": 66,
      "start": 50.8118,
      "duration": 0.0161,
      "velocity": 124,
      "chip": "ym2612"
    },
    {
      "channel": 0,
      "note": 45,
      "start": 50.8135,
      "duration": 0.0161,
      "velocity": 115,
      "chip": "ym2612"
    },
    {
      "channel": 4,
      "note": 62,
      "start": 50.8147,
      "duration": 0.0161,
      "velocity": 120,
      "chip": "ym2612"
    },
    {
      "channel": 3,
      "note": 57,
      "start": 50.8158,
      "duration": 0.0161,
      "velocity": 120,
      "chip": "ym2612"
    },
    {
      "channel": 1,
      "note": 65,
      "start": 50.8278,
      "duration": 0.0161,
      "velocity": 124,
      "chip": "ym2612"
    },
    {
      "channel": 0,
      "note": 46,
      "start": 50.8296,
      "duration": 0.0161,
      "velocity": 115,
      "chip": "ym2612"
    },
    {
      "channel": 4,
      "note": 62,
      "start": 50.8308,
      "duration": 0.0161,
      "velocity": 120,
      "chip": "ym2612"
    },
    {
      "channel": 3,
      "note": 57,
      "start": 50.8319,
      "duration": 0.0161,
      "velocity": 120,
      "chip": "ym2612"
    },
    {
      "channel": 1,
      "note": 64,
      "start": 50.8439,
      "duration": 0.0166,
      "velocity": 124,
      "chip": "ym2612"
    },
    {
      "channel": 0,
      "note": 46,
      "start": 50.8457,
      "duration": 0.0184,
      "velocity": 115,
      "chip": "ym2612"
    },
    {
      "channel": 4,
      "note": 62,
      "start": 50.8469,
      "duration": 0.0185,
      "velocity": 120,
      "chip": "ym2612"
    },
    {
      "channel": 3,
      "note": 57,
      "start": 50.848,
      "duration": 0.0184,
      "velocity": 120,
      "chip": "ym2612"
    },
    {
      "channel": 1,
      "note": 62,
      "start": 50.8605,
      "duration": 0.0163,
      "velocity": 124,
      "chip": "ym2612"
    },
    {
      "channel": 0,
      "note": 36,
      "start": 50.8641,
      "duration": 0.0146,
      "velocity": 115,
      "chip": "ym2612"
    },
    {
      "channel": 4,
      "note": 62,
      "start": 50.8653,
      "duration": 0.0146,
      "velocity": 120,
      "chip": "ym2612"
    },
    {
      "channel": 3,
      "note": 57,
      "start": 50.8665,
      "duration": 0.0146,
      "velocity": 120,
      "chip": "ym2612"
    },
    {
      "channel": 2,
      "note": 50,
      "start": 50.868,
      "duration": 0.0143,
      "velocity": 100,
      "chip": "ym2612"
    },
    {
      "channel": 1,
      "note": 61,
      "start": 50.8769,
      "duration": 0.0153,
      "velocity": 124,
      "chip": "ym2612"
    },
    {
      "channel": 0,
      "note": 36,
      "start": 50.8787,
      "duration": 0.0153,
      "velocity": 115,
      "chip": "ym2612"
    },
    {
      "channel": 4,
      "note": 62,
      "start": 50.8799,
      "duration": 0.0153,
      "velocity": 120,
      "chip": "ym2612"
    },
    {
      "channel": 3,
      "note": 57,
      "start": 50.881,
      "duration": 0.0153,
      "velocity": 120,
      "chip": "ym2612"
    },
    {
      "channel": 2,
      "note": 50,
      "start": 50.8822,
      "duration": 0.0152,
      "velocity": 100,
      "chip": "ym2612"
    },
    {
      "channel": 1,
      "note": 60,
      "start": 50.8922,
      "duration": 0.0183,
      "velocity": 124,
      "chip": "ym2612"
    },
    {
      "channel": 0,
      "note": 37,
      "start": 50.8939,
      "duration": 0.0183,
      "velocity": 115,
      "chip": "ym2612"
    },
    {
      "channel": 4,
      "note": 62,
      "start": 50.8951,
      "duration": 0.0183,
      "velocity": 120,
      "chip": "ym2612"
    },
    {
      "channel": 3,
      "note": 57,
      "start": 50.8963,
      "duration": 0.0183,
      "velocity": 120,
      "chip": "ym2612"
    },
    {
      "channel": 2,
      "note": 50,
      "start": 50.8974,
      "duration": 0.0183,
      "velocity": 100,
      "chip": "ym2612"
    },
    {
      "channel": 1,
      "note": 59,
      "start": 50.9105,
      "duration": 0.0167,
      "velocity": 124,
      "chip": "ym2612"
    },
    {
      "channel": 0,
      "note": 37,
      "start": 50.9123,
      "duration": 0.0167,
      "velocity": 115,
      "chip": "ym2612"
    },
    {
      "channel": 4,
      "note": 62,
      "start": 50.9135,
      "duration": 0.0167,
      "velocity": 120,
      "chip": "ym2612"
    },
    {
      "channel": 3,
      "note": 57,
      "start": 50.9146,
      "duration": 0.0167,
      "velocity": 120,
      "chip": "ym2612"
    },
    {
      "channel": 2,
      "note": 50,
      "start": 50.9158,
      "duration": 0.0167,
      "velocity": 100,
      "chip": "ym2612"
    },
    {
      "channel": 1,
      "note": 57,
      "start": 50.9272,
      "duration": 0.0157,
      "velocity": 124,
      "chip": "ym2612"
    },
    {
      "channel": 0,
      "note": 38,
      "start": 50.9289,
      "duration": 0.0157,
      "velocity": 115,
      "chip": "ym2612"
    },
    {
      "channel": 4,
      "note": 62,
      "start": 50.9301,
      "duration": 0.0157,
      "velocity": 120,
      "chip": "ym2612"
    },
    {
      "channel": 3,
      "note": 57,
      "start": 50.9313,
      "duration": 0.0157,
      "velocity": 120,
      "chip": "ym2612"
    },
    {
      "channel": 2,
      "note": 50,
      "start": 50.9324,
      "duration": 0.0157,
      "velocity": 100,
      "chip": "ym2612"
    },
    {
      "channel": 1,
      "note": 56,
      "start": 50.9429,
      "duration": 0.0141,
      "velocity": 124,
      "chip": "ym2612"
    },
    {
      "channel": 0,
      "note": 38,
      "start": 50.9446,
      "duration": 0.0141,
      "velocity": 115,
      "chip": "ym2612"
    },
    {
      "channel": 4,
      "note": 62,
      "start": 50.9459,
      "duration": 0.0141,
      "velocity": 120,
      "chip": "ym2612"
    },
    {
      "channel": 3,
      "note": 57,
      "start": 50.947,
      "duration": 0.0141,
      "velocity": 120,
      "chip": "ym2612"
    },
    {
      "channel": 2,
      "note": 50,
      "start": 50.9481,
      "duration": 0.0141,
      "velocity": 100,
      "chip": "ym2612"
    },
    {
      "channel": 1,
      "note": 55,
      "start": 50.957,
      "duration": 0.0185,
      "velocity": 124,
      "chip": "ym2612"
    },
    {
      "channel": 0,
      "note": 39,
      "start": 50.9587,
      "duration": 0.0185,
      "velocity": 115,
      "chip": "ym2612"
    },
    {
      "channel": 4,
      "note": 62,
      "start": 50.9599,
      "duration": 0.0185,
      "velocity": 120,
      "chip": "ym2612"
    },
    {
      "channel": 3,
      "note": 57,
      "start": 50.9611,
      "duration": 0.0185,
      "velocity": 120,
      "chip": "ym2612"
    },
    {
      "channel": 2,
      "note": 50,
      "start": 50.9622,
      "duration": 0.0185,
      "velocity": 100,
      "chip": "ym2612"
    },
    {
      "channel": 1,
      "note": 53,
      "start": 50.9755,
      "duration": 0.0134,
      "velocity": 124,
      "chip": "ym2612"
    },
    {
      "channel": 0,
      "note": 39,
      "start": 50.9772,
      "duration": 0.0161,
      "velocity": 115,
      "chip": "ym2612"
    },
    {
      "channel": 4,
      "note": 62,
      "start": 50.9784,
      "duration": 0.0161,
      "velocity": 120,
      "chip": "ym2612"
    },
    {
      "channel": 3,
      "note": 57,
      "start": 50.9796,
      "duration": 0.0162,
      "velocity": 120,
      "chip": "ym2612"
    },
    {
      "channel": 1,
      "note": 52,
      "start": 50.9889,
      "duration": 0.0161,
      "velocity": 124,
      "chip": "ym2612"
    },
    {
      "channel": 0,
      "note": 40,
      "start": 50.9933,
      "duration": 0.0158,
      "velocity": 115,
      "chip": "ym2612"
    },
    {
      "channel": 4,
      "note": 62,
      "start": 50.9945,
      "duration": 0.0157,
      "velocity": 120,
      "chip": "ym2612"
    },
    {
      "channel": 3,
      "note": 57,
      "start": 50.9957,
      "duration": 0.0157,
      "velocity": 120,
      "chip": "ym2612"
    },
    {
      "channel": 1,
      "note": 51,
      "start": 51.0049,
      "duration": 0.0153,
      "velocity": 1,
      "chip": "ym2612"
    },
    {
      "channel": 0,
      "note": 40,
      "start": 51.0091,
      "duration": 0.0129,
      "velocity": 115,
      "chip": "ym2612"
    },
    {
      "channel": 4,
      "note": 62,
      "start": 51.0102,
      "duration": 0.0132,
      "velocity": 120,
      "chip": "ym2612"
    },
    {
      "channel": 3,
      "note": 57,
      "start": 51.0114,
      "duration": 0.0132,
      "velocity": 120,
      "chip": "ym2612"
    },
    {
      "channel": 0,
      "note": 40,
      "start": 51.022,
      "duration": 0.0152,
      "velocity": 115,
      "chip": "ym2612"
    },
    {
      "channel": 4,
      "note": 62,
      "start": 51.0235,
      "duration": 0.0149,
      "velocity": 120,
      "chip": "ym2612"
    },
    {
      "channel": 3,
      "note": 57,
      "start": 51.0247,
      "duration": 0.0177,
      "velocity": 120,
      "chip": "ym2612"
    },
    {
      "channel": 0,
      "note": 41,
      "start": 51.0372,
      "duration": 0.0179,
      "velocity": 115,
      "chip": "ym2612"
    },
    {
      "channel": 4,
      "note": 62,
      "start": 51.0384,
      "duration": 0.0209,
      "velocity": 120,
      "chip": "ym2612"
    },
    {
      "channel": 3,
      "note": 57,
      "start": 51.0424,
      "duration": 0.0183,
      "velocity": 120,
      "chip": "ym2612"
    },
    {
      "channel": 0,
      "note": 36,
      "start": 51.0551,
      "duration": 0.0144,
      "velocity": 115,
      "chip": "ym2612"
    },
    {
      "channel": 4,
      "note": 65,
      "start": 51.0593,
      "duration": 0.0114,
      "velocity": 120,
      "chip": "ym2612"
    },
    {
      "channel": 3,
      "note": 60,
      "start": 51.0607,
      "duration": 0.0112,
      "velocity": 120,
      "chip": "ym2612"
    },
    {
      "channel": 2,
      "note": 50,
      "start": 51.0623,
      "duration": 0.0132,
      "velocity": 100,
      "chip": "ym2612"
    },
    {
      "channel": 1,
      "note": 38,
      "start": 51.0638,
      "duration": 0.0129,
      "velocity": 100,
      "chip": "ym2612"
    },
    {
      "channel": 0,
      "note": 36,
      "start": 51.0695,
      "duration": 0.016,
      "velocity": 115,
      "chip": "ym2612"
    },
    {
      "channel": 4,
      "note": 65,
      "start": 51.0707,
      "duration": 0.016,
      "velocity": 120,
      "chip": "ym2612"
    },
    {
      "channel": 3,
      "note": 60,
      "start": 51.0719,
      "duration": 0.0159,
      "velocity": 120,
      "chip": "ym2612"
    },
    {
      "channel": 2,
      "note": 50,
      "start": 51.0755,
      "duration": 0.0135,
      "velocity": 100,
      "chip": "ym2612"
    },
    {
      "channel": 1,
      "note": 38,
      "start": 51.0767,
      "duration": 0.0137,
      "velocity": 100,
      "chip": "ym2612"
    },
    {
      "channel": 0,
      "note": 37,
      "start": 51.0856,
      "duration": 0.0161,
      "velocity": 115,
      "chip": "ym2612"
    },
    {
      "channel": 4,
      "note": 65,
      "start": 51.0867,
      "duration": 0.0161,
      "velocity": 120,
      "chip": "ym2612"
    },
    {
      "channel": 3,
      "note": 60,
      "start": 51.0878,
      "duration": 0.0161,
      "velocity": 120,
      "chip": "ym2612"
    },
    {
      "channel": 2,
      "note": 50,
      "start": 51.089,
      "duration": 0.0161,
      "velocity": 100,
      "chip": "ym2612"
    },
    {
      "channel": 1,
      "note": 38,
      "start": 51.0905,
      "duration": 0.0185,
      "velocity": 100,
      "chip": "ym2612"
    },
    {
      "channel": 0,
      "note": 37,
      "start": 51.1016,
      "duration": 0.0161,
      "velocity": 115,
      "chip": "ym2612"
    },
    {
      "channel": 4,
      "note": 65,
      "start": 51.1028,
      "duration": 0.0161,
      "velocity": 120,
      "chip": "ym2612"
    },
    {
      "channel": 3,
      "note": 60,
      "start": 51.1039,
      "duration": 0.0161,
      "velocity": 120,
      "chip": "ym2612"
    },
    {
      "channel": 2,
      "note": 50,
      "start": 51.1051,
      "duration": 0.0161,
      "velocity": 100,
      "chip": "ym2612"
    },
    {
      "channel": 1,
      "note": 38,
      "start": 51.109,
      "duration": 0.0134,
      "velocity": 100,
      "chip": "ym2612"
    },
    {
      "channel": 0,
      "note": 38,
      "start": 51.1177,
      "duration": 0.0161,
      "velocity": 115,
      "chip": "ym2612"
    },
    {
      "channel": 4,
      "note": 65,
      "start": 51.1189,
      "duration": 0.0161,
      "velocity": 120,
      "chip": "ym2612"
    },
    {
      "channel": 3,
      "note": 60,
      "start": 51.12,
      "duration": 0.0161,
      "velocity": 120,
      "chip": "ym2612"
    },
    {
      "channel": 2,
      "note": 50,
      "start": 51.1212,
      "duration": 0.0161,
      "velocity": 100,
      "chip": "ym2612"
    },
    {
      "channel": 1,
      "note": 38,
      "start": 51.1223,
      "duration": 0.0161,
      "velocity": 100,
      "chip": "ym2612"
    },
    {
      "channel": 0,
      "note": 38,
      "start": 51.1338,
      "duration": 0.0161,
      "velocity": 115,
      "chip": "ym2612"
    },
    {
      "channel": 4,
      "note": 65,
      "start": 51.135,
      "duration": 0.0161,
      "velocity": 120,
      "chip": "ym2612"
    },
    {
      "channel": 3,
      "note": 60,
      "start": 51.1361,
      "duration": 0.0161,
      "velocity": 120,
      "chip": "ym2612"
    },
    {
      "channel": 2,
      "note": 50,
      "start": 51.1373,
      "duration": 0.0161,
      "velocity": 100,
      "chip": "ym2612"
    },
    {
      "channel": 1,
      "note": 38,
      "start": 51.1384,
      "duration": 0.0161,
      "velocity": 100,
      "chip": "ym2612"
    },
    {
      "channel": 0,
      "note": 39,
      "start": 51.1499,
      "duration": 0.0161,
      "velocity": 115,
      "chip": "ym2612"
    },
    {
      "channel": 4,
      "note": 65,
      "start": 51.1511,
      "duration": 0.0162,
      "velocity": 120,
      "chip": "ym2612"
    },
    {
      "channel": 3,
      "note": 60,
      "start": 51.1522,
      "duration": 0.0161,
      "velocity": 120,
      "chip": "ym2612"
    },
    {
      "channel": 2,
      "note": 50,
      "start": 51.1534,
      "duration": 0.0162,
      "velocity": 100,
      "chip": "ym2612"
    },
    {
      "channel": 1,
      "note": 38,
      "start": 51.1545,
      "duration": 0.0161,
      "velocity": 100,
      "chip": "ym2612"
    },
    {
      "channel": 0,
      "note": 39,
      "start": 51.166,
      "duration": 0.0161,
      "velocity": 115,
      "chip": "ym2612"
    },
    {
      "channel": 4,
      "note": 65,
      "start": 51.1672,
      "duration": 0.0161,
      "velocity": 120,
      "chip": "ym2612"
    },
    {
      "channel": 3,
      "note": 60,
      "start": 51.1684,
      "duration": 0.0161,
      "velocity": 120,
      "chip": "ym2612"
    },
    {
      "channel": 0,
      "note": 40,
      "start": 51.1821,
      "duration": 0.0162,
      "velocity": 115,
      "chip": "ym2612"
    },
    {
      "channel": 4,
      "note": 65,
      "start": 51.1833,
      "duration": 0.0161,
      "velocity": 120,
      "chip": "ym2612"
    },
    {
      "channel": 3,
      "note": 60,
      "start": 51.1845,
      "duration": 0.0161,
      "velocity": 120,
      "chip": "ym2612"
    },
    {
      "channel": 0,
      "note": 40,
      "start": 51.1983,
      "duration": 0.0161,
      "velocity": 115,
      "chip": "ym2612"
    },
    {
      "channel": 4,
      "note": 65,
      "start": 51.1994,
      "duration": 0.0161,
      "velocity": 120,
      "chip": "ym2612"
    },
    {
      "channel": 3,
      "note": 60,
      "start": 51.2006,
      "duration": 0.0161,
      "velocity": 120,
      "chip": "ym2612"
    },
    {
      "channel": 0,
      "note": 40,
      "start": 51.2144,
      "duration": 0.0161,
      "velocity": 115,
      "chip": "ym2612"
    },
    {
      "channel": 4,
      "note": 65,
      "start": 51.2155,
      "duration": 0.0161,
      "velocity": 120,
      "chip": "ym2612"
    },
    {
      "channel": 3,
      "note": 60,
      "start": 51.2167,
      "duration": 0.0161,
      "velocity": 120,
      "chip": "ym2612"
    },
    {
      "channel": 0,
      "note": 41,
      "start": 51.2305,
      "duration": 0.0161,
      "velocity": 115,
      "chip": "ym2612"
    },
    {
      "channel": 4,
      "note": 65,
      "start": 51.2316,
      "duration": 0.0161,
      "velocity": 120,
      "chip": "ym2612"
    },
    {
      "channel": 3,
      "note": 60,
      "start": 51.2327,
      "duration": 0.0162,
      "velocity": 120,
      "chip": "ym2612"
    },
    {
      "channel": 0,
      "note": 41,
      "start": 51.2466,
      "duration": 0.0161,
      "velocity": 115,
      "chip": "ym2612"
    },
    {
      "channel": 4,
      "note": 65,
      "start": 51.2478,
      "duration": 0.0161,
      "velocity": 120,
      "chip": "ym2612"
    },
    {
      "channel": 3,
      "note": 60,
      "start": 51.2489,
      "duration": 0.0161,
      "velocity": 120,
      "chip": "ym2612"
    },
    {
      "channel": 2,
      "note": 50,
      "start": 51.2504,
      "duration": 0.0158,
      "velocity": 100,
      "chip": "ym2612"
    },
    {
      "channel": 1,
      "note": 38,
      "start": 51.252,
      "duration": 0.0154,
      "velocity": 100,
      "chip": "ym2612"
    },
    {
      "channel": 0,
      "note": 42,
      "start": 51.2627,
      "duration": 0.0161,
      "velocity": 115,
      "chip": "ym2612"
    },
    {
      "channel": 4,
      "note": 65,
      "start": 51.2639,
      "duration": 0.0161,
      "velocity": 120,
      "chip": "ym2612"
    },
    {
      "channel": 3,
      "note": 60,
      "start": 51.265,
      "duration": 0.0161,
      "velocity": 120,
      "chip": "ym2612"
    },
    {
      "channel": 2,
      "note": 50,
      "start": 51.2662,
      "duration": 0.016,
      "velocity": 100,
      "chip": "ym2612"
    },
    {
      "channel": 1,
      "note": 38,
      "start": 51.2673,
      "duration": 0.016,
      "velocity": 100,
      "chip": "ym2612"
    },
    {
      "channel": 0,
      "note": 42,
      "start": 51.2788,
      "duration": 0.0161,
      "velocity": 115,
      "chip": "ym2612"
    },
    {
      "channel": 4,
      "note": 65,
      "start": 51.28,
      "duration": 0.0161,
      "velocity": 120,
      "chip": "ym2612"
    },
    {
      "channel": 3,
      "note": 60,
      "start": 51.2811,
      "duration": 0.0161,
      "velocity": 120,
      "chip": "ym2612"
    },
    {
      "channel": 2,
      "note": 50,
      "start": 51.2822,
      "duration": 0.0161,
      "velocity": 100,
      "chip": "ym2612"
    },
    {
      "channel": 1,
      "note": 38,
      "start": 51.2833,
      "duration": 0.0161,
      "velocity": 100,
      "chip": "ym2612"
    },
    {
      "channel": 0,
      "note": 43,
      "start": 51.2948,
      "duration": 0.0161,
      "velocity": 115,
      "chip": "ym2612"
    },
    {
      "channel": 4,
      "note": 65,
      "start": 51.2961,
      "duration": 0.0161,
      "velocity": 120,
      "chip": "ym2612"
    },
    {
      "channel": 3,
      "note": 60,
      "start": 51.2972,
      "duration": 0.0161,
      "velocity": 120,
      "chip": "ym2612"
    },
    {
      "channel": 2,
      "note": 50,
      "start": 51.2983,
      "duration": 0.0161,
      "velocity": 100,
      "chip": "ym2612"
    },
    {
      "channel": 1,
      "note": 38,
      "start": 51.2995,
      "duration": 0.0161,
      "velocity": 100,
      "chip": "ym2612"
    },
    {
      "channel": 0,
      "note": 43,
      "start": 51.3109,
      "duration": 0.0164,
      "velocity": 115,
      "chip": "ym2612"
    },
    {
      "channel": 4,
      "note": 65,
      "start": 51.3121,
      "duration": 0.0163,
      "velocity": 120,
      "chip": "ym2612"
    },
    {
      "channel": 3,
      "note": 60,
      "start": 51.3133,
      "duration": 0.0164,
      "velocity": 120,
      "chip": "ym2612"
    },
    {
      "channel": 2,
      "note": 50,
      "start": 51.3144,
      "duration": 0.0163,
      "velocity": 100,
      "chip": "ym2612"
    },
    {
      "channel": 1,
      "note": 38,
      "start": 51.3156,
      "duration": 0.0163,
      "velocity": 100,
      "chip": "ym2612"
    },
    {
      "channel": 0,
      "note": 44,
      "start": 51.3273,
      "duration": 0.0163,
      "velocity": 115,
      "chip": "ym2612"
    },
    {
      "channel": 4,
      "note": 65,
      "start": 51.3285,
      "duration": 0.0163,
      "velocity": 120,
      "chip": "ym2612"
    },
    {
      "channel": 3,
      "note": 60,
      "start": 51.3297,
      "duration": 0.0163,
      "velocity": 120,
      "chip": "ym2612"
    },
    {
      "channel": 2,
      "note": 50,
      "start": 51.3308,
      "duration": 0.0163,
      "velocity": 100,
      "chip": "ym2612"
    },
    {
      "channel": 1,
      "note": 38,
      "start": 51.3319,
      "duration": 0.0163,
      "velocity": 100,
      "chip": "ym2612"
    },
    {
      "channel": 0,
      "note": 44,
      "start": 51.3436,
      "duration": 0.0156,
      "velocity": 115,
      "chip": "ym2612"
    },
    {
      "channel": 4,
      "note": 65,
      "start": 51.3448,
      "duration": 0.0156,
      "velocity": 120,
      "chip": "ym2612"
    },
    {
      "channel": 3,
      "note": 60,
      "start": 51.346,
      "duration": 0.0156,
      "velocity": 120,
      "chip": "ym2612"
    },
    {
      "channel": 2,
      "note": 50,
      "start": 51.3471,
      "duration": 0.0156,
      "velocity": 100,
      "chip": "ym2612"
    },
    {
      "channel": 1,
      "note": 38,
      "start": 51.3483,
      "duration": 0.0156,
      "velocity": 100,
      "chip": "ym2612"
    },
    {
      "channel": 0,
      "note": 44,
      "start": 51.3593,
      "duration": 0.0181,
      "velocity": 115,
      "chip": "ym2612"
    },
    {
      "channel": 4,
      "note": 65,
      "start": 51.3604,
      "duration": 0.0181,
      "velocity": 120,
      "chip": "ym2612"
    },
    {
      "channel": 3,
      "note": 60,
      "start": 51.3616,
      "duration": 0.0181,
      "velocity": 120,
      "chip": "ym2612"
    },
    {
      "channel": 0,
      "note": 45,
      "start": 51.3773,
      "duration": 0.0167,
      "velocity": 115,
      "chip": "ym2612"
    },
    {
      "channel": 4,
      "note": 65,
      "start": 51.3785,
      "duration": 0.0166,
      "velocity": 120,
      "chip": "ym2612"
    },
    {
      "channel": 3,
      "note": 60,
      "start": 51.3797,
      "duration": 0.0167,
      "velocity": 120,
      "chip": "ym2612"
    },
    {
      "channel": 0,
      "note": 45,
      "start": 51.394,
      "duration": 0.0159,
      "velocity": 115,
      "chip": "ym2612"
    },
    {
      "channel": 4,
      "note": 65,
      "start": 51.3951,
      "duration": 0.016,
      "velocity": 120,
      "chip": "ym2612"
    },
    {
      "channel": 3,
      "note": 60,
      "start": 51.3964,
      "duration": 0.0159,
      "velocity": 120,
      "chip": "ym2612"
    },
    {
      "channel": 0,
      "note": 46,
      "start": 51.4099,
      "duration": 0.0141,
      "velocity": 115,
      "chip": "ym2612"
    },
    {
      "channel": 4,
      "note": 65,
      "start": 51.4111,
      "duration": 0.0141,
      "velocity": 120,
      "chip": "ym2612"
    },
    {
      "channel": 3,
      "note": 60,
      "start": 51.4123,
      "duration": 0.0141,
      "velocity": 120,
      "chip": "ym2612"
    },
    {
      "channel": 0,
      "note": 46,
      "start": 51.424,
      "duration": 0.022,
      "velocity": 115,
      "chip": "ym2612"
    },
    {
      "channel": 4,
      "note": 65,
      "start": 51.4252,
      "duration": 0.022,
      "velocity": 120,
      "chip": "ym2612"
    },
    {
      "channel": 3,
      "note": 60,
      "start": 51.4263,
      "duration": 0.022,
      "velocity": 120,
      "chip": "ym2612"
    },
    {
      "channel": 1,
      "note": 78,
      "start": 51.4442,
      "duration": 0.0117,
      "velocity": 124,
      "chip": "ym2612"
    },
    {
      "channel": 0,
      "note": 47,
      "start": 51.446,
      "duration": 0.0143,
      "velocity": 115,
      "chip": "ym2612"
    },
    {
      "channel": 4,
      "note": 65,
      "start": 51.4471,
      "duration": 0.0144,
      "velocity": 120,
      "chip": "ym2612"
    },
    {
      "channel": 3,
      "note": 60,
      "start": 51.4483,
      "duration": 0.0143,
      "velocity": 120,
      "chip": "ym2612"
    },
    {
      "channel": 2,
      "note": 50,
      "start": 51.4499,
      "duration": 0.014,
      "velocity": 100,
      "chip": "ym2612"
    },
    {
      "channel": 1,
      "note": 76,
      "start": 51.4559,
      "duration": 0.016,
      "velocity": 124,
      "chip": "ym2612"
    },
    {
      "channel": 0,
      "note": 47,
      "start": 51.4603,
      "duration": 0.0157,
      "velocity": 115,
      "chip": "ym2612"
    },
    {
      "channel": 4,
      "note": 65,
      "start": 51.4615,
      "duration": 0.0157,
      "velocity": 120,
      "chip": "ym2612"
    },
    {
      "channel": 3,
      "note": 60,
      "start": 51.4627,
      "duration": 0.0157,
      "velocity": 120,
      "chip": "ym2612"
    },
    {
      "channel": 2,
      "note": 50,
      "start": 51.4639,
      "duration": 0.0156,
      "velocity": 100,
      "chip": "ym2612"
    },
    {
      "channel": 1,
      "note": 75,
      "start": 51.4719,
      "duration": 0.0161,
      "velocity": 124,
      "chip": "ym2612"
    },
    {
      "channel": 0,
      "note": 47,
      "start": 51.476,
      "duration": 0.0141,
      "velocity": 115,
      "chip": "ym2612"
    },
    {
      "channel": 4,
      "note": 65,
      "start": 51.4772,
      "duration": 0.014,
      "velocity": 120,
      "chip": "ym2612"
    },
    {
      "channel": 3,
      "note": 60,
      "start": 51.4784,
      "duration": 0.0141,
      "velocity": 120,
      "chip": "ym2612"
    },
    {
      "channel": 2,
      "note": 50,
      "start": 51.4795,
      "duration": 0.014,
      "velocity": 100,
      "chip": "ym2612"
    },
    {
      "channel": 1,
      "note": 74,
      "start": 51.488,
      "duration": 0.0161,
      "velocity": 124,
      "chip": "ym2612"
    },
    {
      "channel": 0,
      "note": 48,
      "start": 51.4901,
      "duration": 0.0158,
      "velocity": 115,
      "chip": "ym2612"
    },
    {
      "channel": 4,
      "note": 65,
      "start": 51.4912,
      "duration": 0.0186,
      "velocity": 120,
      "chip": "ym2612"
    },
    {
      "channel": 3,
      "note": 60,
      "start": 51.4924,
      "duration": 0.0185,
      "velocity": 120,
      "chip": "ym2612"
    },
    {
      "channel": 2,
      "note": 50,
      "start": 51.4935,
      "duration": 0.0186,
      "velocity": 100,
      "chip": "ym2612"
    },
    {
      "channel": 1,
      "note": 72,
      "start": 51.5041,
      "duration": 0.0161,
      "velocity": 124,
      "chip": "ym2612"
    },
    {
      "channel": 0,
      "note": 48,
      "start": 51.5059,
      "duration": 0.0161,
      "velocity": 115,
      "chip": "ym2612"
    },
    {
      "channel": 4,
      "note": 65,
      "start": 51.5098,
      "duration": 0.0161,
      "velocity": 120,
      "chip": "ym2612"
    },
    {
      "channel": 3,
      "note": 60,
      "start": 51.5109,
      "duration": 0.0161,
      "velocity": 120,
      "chip": "ym2612"
    },
    {
      "channel": 2,
      "note": 50,
      "start": 51.5121,
      "duration": 0.0161,
      "velocity": 100,
      "chip": "ym2612"
    },
    {
      "channel": 1,
      "note": 71,
      "start": 51.5202,
      "duration": 0.0161,
      "velocity": 124,
      "chip": "ym2612"
    },
    {
      "channel": 0,
      "note": 49,
      "start": 51.5219,
      "duration": 0.0153,
      "velocity": 1,
      "chip": "ym2612"
    },
    {
      "channel": 4,
      "note": 65,
      "start": 51.5259,
      "duration": 0.0125,
      "velocity": 120,
      "chip": "ym2612"
    },
    {
      "channel": 3,
      "note": 60,
      "start": 51.527,
      "duration": 0.0149,
      "velocity": 120,
      "chip": "ym2612"
    },
    {
      "channel": 2,
      "note": 50,
      "start": 51.5282,
      "duration": 0.015,
      "velocity": 100,
      "chip": "ym2612"
    },
    {
      "channel": 1,
      "note": 70,
      "start": 51.5363,
      "duration": 0.0161,
      "velocity": 124,
      "chip": "ym2612"
    },
    {
      "channel": 4,
      "note": 65,
      "start": 51.5384,
      "duration": 0.0153,
      "velocity": 120,
      "chip": "ym2612"
    },
    {
      "channel": 3,
      "note": 60,
      "start": 51.542,
      "duration": 0.0129,
      "velocity": 120,
      "chip": "ym2612"
    },
    {
      "channel": 2,
      "note": 50,
      "start": 51.5431,
      "duration": 0.013,
      "velocity": 100,
      "chip": "ym2612"
    },
    {
      "channel": 1,
      "note": 69,
      "start": 51.5524,
      "duration": 0.0161,
      "velocity": 124,
      "chip": "ym2612"
    },
    {
      "channel": 4,
      "note": 65,
      "start": 51.5537,
      "duration": 0.0161,
      "velocity": 120,
      "chip": "ym2612"
    },
    {
      "channel": 3,
      "note": 60,
      "start": 51.5548,
      "duration": 0.0161,
      "velocity": 120,
      "chip": "ym2612"
    },
    {
      "channel": 1,
      "note": 68,
      "start": 51.5685,
      "duration": 0.0161,
      "velocity": 124,
      "chip": "ym2612"
    },
    {
      "channel": 4,
      "note": 65,
      "start": 51.5698,
      "duration": 0.0161,
      "velocity": 120,
      "chip": "ym2612"
    },
    {
      "channel": 3,
      "note": 60,
      "start": 51.5709,
      "duration": 0.0161,
      "velocity": 120,
      "chip": "ym2612"
    },
    {
      "channel": 1,
      "note": 66,
      "start": 51.5846,
      "duration": 0.0161,
      "velocity": 124,
      "chip": "ym2612"
    },
    {
      "channel": 4,
      "note": 65,
      "start": 51.5859,
      "duration": 0.0161,
      "velocity": 120,
      "chip": "ym2612"
    },
    {
      "channel": 3,
      "note": 60,
      "start": 51.587,
      "duration": 0.0161,
      "velocity": 120,
      "chip": "ym2612"
    },
    {
      "channel": 1,
      "note": 65,
      "start": 51.6007,
      "duration": 0.0161,
      "velocity": 124,
      "chip": "ym2612"
    },
    {
      "channel": 4,
      "note": 65,
      "start": 51.602,
      "duration": 0.0161,
      "velocity": 120,
      "chip": "ym2612"
    },
    {
      "channel": 3,
      "note": 60,
      "start": 51.6031,
      "duration": 0.0161,
      "velocity": 120,
      "chip": "ym2612"
    },
    {
      "channel": 1,
      "note": 64,
      "start": 51.6168,
      "duration": 0.0161,
      "velocity": 124,
      "chip": "ym2612"
    },
    {
      "channel": 4,
      "note": 65,
      "start": 51.618,
      "duration": 0.0162,
      "velocity": 120,
      "chip": "ym2612"
    },
    {
      "channel": 3,
      "note": 60,
      "start": 51.6192,
      "duration": 0.0161,
      "velocity": 120,
      "chip": "ym2612"
    },
    {
      "channel": 1,
      "note": 62,
      "start": 51.6329,
      "duration": 0.0161,
      "velocity": 124,
      "chip": "ym2612"
    },
    {
      "channel": 4,
      "note": 65,
      "start": 51.6342,
      "duration": 0.016,
      "velocity": 120,
      "chip": "ym2612"
    },
    {
      "channel": 3,
      "note": 60,
      "start": 51.6354,
      "duration": 0.0161,
      "velocity": 120,
      "chip": "ym2612"
    },
    {
      "channel": 2,
      "note": 50,
      "start": 51.6369,
      "duration": 0.0157,
      "velocity": 100,
      "chip": "ym2612"
    },
    {
      "channel": 1,
      "note": 61,
      "start": 51.649,
      "duration": 0.0161,
      "velocity": 124,
      "chip": "ym2612"
    },
    {
      "channel": 4,
      "note": 65,
      "start": 51.6502,
      "duration": 0.0161,
      "velocity": 120,
      "chip": "ym2612"
    },
    {
      "channel": 3,
      "note": 60,
      "start": 51.6515,
      "duration": 0.0161,
      "velocity": 120,
      "chip": "ym2612"
    },
    {
      "channel": 2,
      "note": 50,
      "start": 51.6526,
      "duration": 0.016,
      "velocity": 100,
      "chip": "ym2612"
    },
    {
      "channel": 1,
      "note": 60,
      "start": 51.6651,
      "duration": 0.0162,
      "velocity": 124,
      "chip": "ym2612"
    },
    {
      "channel": 4,
      "note": 65,
      "start": 51.6663,
      "duration": 0.0162,
      "velocity": 120,
      "chip": "ym2612"
    },
    {
      "channel": 3,
      "note": 60,
      "start": 51.6676,
      "duration": 0.0161,
      "velocity": 120,
      "chip": "ym2612"
    },
    {
      "channel": 2,
      "note": 50,
      "start": 51.6686,
      "duration": 0.0162,
      "velocity": 100,
      "chip": "ym2612"
    },
    {
      "channel": 1,
      "note": 59,
      "start": 51.6812,
      "duration": 0.0161,
      "velocity": 124,
      "chip": "ym2612"
    },
    {
      "channel": 4,
      "note": 65,
      "start": 51.6825,
      "duration": 0.0161,
      "velocity": 120,
      "chip": "ym2612"
    },
    {
      "channel": 3,
      "note": 60,
      "start": 51.6837,
      "duration": 0.0161,
      "velocity": 120,
      "chip": "ym2612"
    },
    {
      "channel": 2,
      "note": 50,
      "start": 51.6848,
      "duration": 0.0161,
      "velocity": 100,
      "chip": "ym2612"
    },
    {
      "channel": 1,
      "note": 57,
      "start": 51.6973,
      "duration": 0.0161,
      "velocity": 124,
      "chip": "ym2612"
    },
    {
      "channel": 4,
      "note": 65,
      "start": 51.6986,
      "duration": 0.0161,
      "velocity": 120,
      "chip": "ym2612"
    },
    {
      "channel": 3,
      "note": 60,
      "start": 51.6997,
      "duration": 0.0161,
      "velocity": 120,
      "chip": "ym2612"
    },
    {
      "channel": 2,
      "note": 50,
      "start": 51.7009,
      "duration": 0.0161,
      "velocity": 100,
      "chip": "ym2612"
    },
    {
      "channel": 1,
      "note": 56,
      "start": 51.7134,
      "duration": 0.0161,
      "velocity": 124,
      "chip": "ym2612"
    },
    {
      "channel": 4,
      "note": 65,
      "start": 51.7147,
      "duration": 0.0161,
      "velocity": 120,
      "chip": "ym2612"
    },
    {
      "channel": 3,
      "note": 60,
      "start": 51.7158,
      "duration": 0.0161,
      "velocity": 120,
      "chip": "ym2612"
    },
    {
      "channel": 2,
      "note": 50,
      "start": 51.717,
      "duration": 0.0161,
      "velocity": 100,
      "chip": "ym2612"
    },
    {
      "channel": 1,
      "note": 55,
      "start": 51.7295,
      "duration": 0.0161,
      "velocity": 124,
      "chip": "ym2612"
    },
    {
      "channel": 4,
      "note": 65,
      "start": 51.7308,
      "duration": 0.0161,
      "velocity": 120,
      "chip": "ym2612"
    },
    {
      "channel": 3,
      "note": 60,
      "start": 51.7319,
      "duration": 0.0161,
      "velocity": 120,
      "chip": "ym2612"
    },
    {
      "channel": 2,
      "note": 50,
      "start": 51.7331,
      "duration": 0.0161,
      "velocity": 100,
      "chip": "ym2612"
    },
    {
      "channel": 1,
      "note": 53,
      "start": 51.7456,
      "duration": 0.0161,
      "velocity": 124,
      "chip": "ym2612"
    },
    {
      "channel": 4,
      "note": 65,
      "start": 51.7469,
      "duration": 0.0161,
      "velocity": 120,
      "chip": "ym2612"
    },
    {
      "channel": 3,
      "note": 60,
      "start": 51.748,
      "duration": 0.0161,
      "velocity": 120,
      "chip": "ym2612"
    },
    {
      "channel": 1,
      "note": 52,
      "start": 51.7617,
      "duration": 0.0161,
      "velocity": 124,
      "chip": "ym2612"
    },
    {
      "channel": 4,
      "note": 65,
      "start": 51.763,
      "duration": 0.0161,
      "velocity": 120,
      "chip": "ym2612"
    },
    {
      "channel": 3,
      "note": 60,
      "start": 51.7642,
      "duration": 0.0161,
      "velocity": 120,
      "chip": "ym2612"
    },
    {
      "channel": 1,
      "note": 51,
      "start": 51.7778,
      "duration": 0.0154,
      "velocity": 1,
      "chip": "ym2612"
    },
    {
      "channel": 4,
      "note": 65,
      "start": 51.7791,
      "duration": 0.0153,
      "velocity": 120,
      "chip": "ym2612"
    },
    {
      "channel": 3,
      "note": 60,
      "start": 51.7803,
      "duration": 0.0153,
      "velocity": 120,
      "chip": "ym2612"
    },
    {
      "channel": 4,
      "note": 65,
      "start": 51.7944,
      "duration": 0.0154,
      "velocity": 120,
      "chip": "ym2612"
    },
    {
      "channel": 3,
      "note": 60,
      "start": 51.7955,
      "duration": 0.0155,
      "velocity": 120,
      "chip": "ym2612"
    },
    {
      "channel": 4,
      "note": 65,
      "start": 51.8098,
      "duration": 0.0193,
      "velocity": 120,
      "chip": "ym2612"
    },
    {
      "channel": 3,
      "note": 60,
      "start": 51.811,
      "duration": 0.0193,
      "velocity": 120,
      "chip": "ym2612"
    },
    {
      "channel": 0,
      "note": 36,
      "start": 51.828,
      "duration": 0.0161,
      "velocity": 115,
      "chip": "ym2612"
    },
    {
      "channel": 4,
      "note": 65,
      "start": 51.8292,
      "duration": 0.016,
      "velocity": 120,
      "chip": "ym2612"
    },
    {
      "channel": 3,
      "note": 60,
      "start": 51.8303,
      "duration": 0.0161,
      "velocity": 120,
      "chip": "ym2612"
    },
    {
      "channel": 2,
      "note": 50,
      "start": 51.8319,
      "duration": 0.0157,
      "velocity": 100,
      "chip": "ym2612"
    },
    {
      "channel": 1,
      "note": 38,
      "start": 51.8334,
      "duration": 0.0154,
      "velocity": 100,
      "chip": "ym2612"
    },
    {
      "channel": 0,
      "note": 36,
      "start": 51.8441,
      "duration": 0.0166,
      "velocity": 115,
      "chip": "ym2612"
    },
    {
      "channel": 4,
      "note": 65,
      "start": 51.8452,
      "duration": 0.0166,
      "velocity": 120,
      "chip": "ym2612"
    },
    {
      "channel": 3,
      "note": 60,
      "start": 51.8464,
      "duration": 0.0166,
      "velocity": 120,
      "chip": "ym2612"
    },
    {
      "channel": 2,
      "note": 50,
      "start": 51.8476,
      "duration": 0.0165,
      "velocity": 100,
      "chip": "ym2612"
    },
    {
      "channel": 1,
      "note": 38,
      "start": 51.8488,
      "duration": 0.0165,
      "velocity": 100,
      "chip": "ym2612"
    },
    {
      "channel": 0,
      "note": 37,
      "start": 51.8607,
      "duration": 0.0162,
      "velocity": 115,
      "chip": "ym2612"
    },
    {
      "channel": 4,
      "note": 65,
      "start": 51.8618,
      "duration": 0.0162,
      "velocity": 120,
      "chip": "ym2612"
    },
    {
      "channel": 3,
      "note": 60,
      "start": 51.863,
      "duration": 0.0162,
      "velocity": 120,
      "chip": "ym2612"
    },
    {
      "channel": 2,
      "note": 50,
      "start": 51.8641,
      "duration": 0.0162,
      "velocity": 100,
      "chip": "ym2612"
    },
    {
      "channel": 1,
      "note": 38,
      "start": 51.8653,
      "duration": 0.0162,
      "velocity": 100,
      "chip": "ym2612"
    },
    {
      "channel": 0,
      "note": 37,
      "start": 51.8769,
      "duration": 0.014,
      "velocity": 115,
      "chip": "ym2612"
    },
    {
      "channel": 4,
      "note": 65,
      "start": 51.878,
      "duration": 0.0141,
      "velocity": 120,
      "chip": "ym2612"
    },
    {
      "channel": 3,
      "note": 60,
      "start": 51.8793,
      "duration": 0.0141,
      "velocity": 120,
      "chip": "ym2612"
    },
    {
      "channel": 2,
      "note": 50,
      "start": 51.8803,
      "duration": 0.0141,
      "velocity": 100,
      "chip": "ym2612"
    },
    {
      "channel": 1,
      "note": 38,
      "start": 51.8815,
      "duration": 0.0141,
      "velocity": 100,
      "chip": "ym2612"
    },
    {
      "channel": 0,
      "note": 38,
      "start": 51.8909,
      "duration": 0.0185,
      "velocity": 115,
      "chip": "ym2612"
    },
    {
      "channel": 4,
      "note": 65,
      "start": 51.8921,
      "duration": 0.0185,
      "velocity": 120,
      "chip": "ym2612"
    },
    {
      "channel": 3,
      "note": 60,
      "start": 51.8933,
      "duration": 0.0185,
      "velocity": 120,
      "chip": "ym2612"
    },
    {
      "channel": 2,
      "note": 50,
      "start": 51.8944,
      "duration": 0.0185,
      "velocity": 100,
      "chip": "ym2612"
    },
    {
      "channel": 1,
      "note": 38,
      "start": 51.8955,
      "duration": 0.0185,
      "velocity": 100,
      "chip": "ym2612"
    },
    {
      "channel": 0,
      "note": 38,
      "start": 51.9094,
      "duration": 0.0161,
      "velocity": 115,
      "chip": "ym2612"
    },
    {
      "channel": 4,
      "note": 65,
      "start": 51.9106,
      "duration": 0.0161,
      "velocity": 120,
      "chip": "ym2612"
    },
    {
      "channel": 3,
      "note": 60,
      "start": 51.9118,
      "duration": 0.0161,
      "velocity": 120,
      "chip": "ym2612"
    },
    {
      "channel": 2,
      "note": 50,
      "start": 51.9129,
      "duration": 0.0161,
      "velocity": 100,
      "chip": "ym2612"
    },
    {
      "channel": 1,
      "note": 38,
      "start": 51.9141,
      "duration": 0.0161,
      "velocity": 100,
      "chip": "ym2612"
    },
    {
      "channel": 0,
      "note": 39,
      "start": 51.9256,
      "duration": 0.0134,
      "velocity": 115,
      "chip": "ym2612"
    },
    {
      "channel": 4,
      "note": 65,
      "start": 51.9267,
      "duration": 0.0158,
      "velocity": 120,
      "chip": "ym2612"
    },
    {
      "channel": 3,
      "note": 60,
      "start": 51.9279,
      "duration": 0.0157,
      "velocity": 120,
      "chip": "ym2612"
    },
    {
      "channel": 2,
      "note": 50,
      "start": 51.929,
      "duration": 0.0158,
      "velocity": 100,
      "chip": "ym2612"
    },
    {
      "channel": 1,
      "note": 38,
      "start": 51.9301,
      "duration": 0.0158,
      "velocity": 100,
      "chip": "ym2612"
    },
    {
      "channel": 0,
      "note": 39,
      "start": 51.9389,
      "duration": 0.0161,
      "velocity": 115,
      "chip": "ym2612"
    },
    {
      "channel": 4,
      "note": 65,
      "start": 51.9425,
      "duration": 0.0141,
      "velocity": 120,
      "chip": "ym2612"
    },
    {
      "channel": 3,
      "note": 60,
      "start": 51.9436,
      "duration": 0.0141,
      "velocity": 120,
      "chip": "ym2612"
    },
    {
      "channel": 0,
      "note": 40,
      "start": 51.955,
      "duration": 0.0161,
      "velocity": 115,
      "chip": "ym2612"
    },
    {
      "channel": 4,
      "note": 65,
      "start": 51.9565,
      "duration": 0.0158,
      "velocity": 120,
      "chip": "ym2612"
    },
    {
      "channel": 3,
      "note": 60,
      "start": 51.9577,
      "duration": 0.0185,
      "velocity": 120,
      "chip": "ym2612"
    },
    {
      "channel": 0,
      "note": 40,
      "start": 51.9711,
      "duration": 0.0161,
      "velocity": 115,
      "chip": "ym2612"
    },
    {
      "channel": 4,
      "note": 65,
      "start": 51.9723,
      "duration": 0.0161,
      "velocity": 120,
      "chip": "ym2612"
    },
    {
      "channel": 3,
      "note": 60,
      "start": 51.9762,
      "duration": 0.0161,
      "velocity": 120,
      "chip": "ym2612"
    },
    {
      "channel": 0,
      "note": 40,
      "start": 51.9872,
      "duration": 0.0161,
      "velocity": 115,
      "chip": "ym2612"
    },
    {
      "channel": 4,
      "note": 65,
      "start": 51.9884,
      "duration": 0.0161,
      "velocity": 120,
      "chip": "ym2612"
    },
    {
      "channel": 3,
      "note": 60,
      "start": 51.9923,
      "duration": 0.0134,
      "velocity": 120,
      "chip": "ym2612"
    },
    {
      "channel": 0,
      "note": 41,
      "start": 52.0033,
      "duration": 0.0179,
      "velocity": 115,
      "chip": "ym2612"
    },
    {
      "channel": 4,
      "note": 65,
      "start": 52.0045,
      "duration": 0.0179,
      "velocity": 120,
      "chip": "ym2612"
    },
    {
      "channel": 3,
      "note": 60,
      "start": 52.0056,
      "duration": 0.0183,
      "velocity": 120,
      "chip": "ym2612"
    },
    {
      "channel": 0,
      "note": 36,
      "start": 52.0212,
      "duration": 0.0144,
      "velocity": 115,
      "chip": "ym2612"
    },
    {
      "channel": 4,
      "note": 65,
      "start": 52.0224,
      "duration": 0.0144,
      "velocity": 120,
      "chip": "ym2612"
    },
    {
      "channel": 3,
      "note": 60,
      "start": 52.0239,
      "duration": 0.014,
      "velocity": 120,
      "chip": "ym2612"
    },
    {
      "channel": 2,
      "note": 50,
      "start": 52.0254,
      "duration": 0.0137,
      "velocity": 100,
      "chip": "ym2612"
    },
    {
      "channel": 1,
      "note": 38,
      "start": 52.027,
      "duration": 0.016,
      "velocity": 100,
      "chip": "ym2612"
    },
    {
      "channel": 0,
      "note": 36,
      "start": 52.0356,
      "duration": 0.016,
      "velocity": 115,
      "chip": "ym2612"
    },
    {
      "channel": 4,
      "note": 65,
      "start": 52.0368,
      "duration": 0.016,
      "velocity": 120,
      "chip": "ym2612"
    },
    {
      "channel": 3,
      "note": 60,
      "start": 52.0379,
      "duration": 0.016,
      "velocity": 120,
      "chip": "ym2612"
    },
    {
      "channel": 2,
      "note": 50,
      "start": 52.0391,
      "duration": 0.016,
      "velocity": 100,
      "chip": "ym2612"
    },
    {
      "channel": 1,
      "note": 38,
      "start": 52.043,
      "duration": 0.016,
      "velocity": 100,
      "chip": "ym2612"
    },
    {
      "channel": 0,
      "note": 37,
      "start": 52.0516,
      "duration": 0.0161,
      "velocity": 115,
      "chip": "ym2612"
    },
    {
      "channel": 4,
      "note": 65,
      "start": 52.0528,
      "duration": 0.0161,
      "velocity": 120,
      "chip": "ym2612"
    },
    {
      "channel": 3,
      "note": 60,
      "start": 52.0539,
      "duration": 0.0161,
      "velocity": 120,
      "chip": "ym2612"
    },
    {
      "channel": 2,
      "note": 50,
      "start": 52.0551,
      "duration": 0.0161,
      "velocity": 100,
      "chip": "ym2612"
    },
    {
      "channel": 1,
      "note": 38,
      "start": 52.059,
      "duration": 0.0134,
      "velocity": 100,
      "chip": "ym2612"
    },
    {
      "channel": 0,
      "note": 37,
      "start": 52.0677,
      "duration": 0.0162,
      "velocity": 115,
      "chip": "ym2612"
    },
    {
      "channel": 4,
      "note": 65,
      "start": 52.0689,
      "duration": 0.0161,
      "velocity": 120,
      "chip": "ym2612"
    },
    {
      "channel": 3,
      "note": 60,
      "start": 52.07,
      "duration": 0.0162,
      "velocity": 120,
      "chip": "ym2612"
    },
    {
      "channel": 2,
      "note": 50,
      "start": 52.0712,
      "duration": 0.0161,
      "velocity": 100,
      "chip": "ym2612"
    },
    {
      "channel": 1,
      "note": 38,
      "start": 52.0723,
      "duration": 0.0161,
      "velocity": 100,
      "chip": "ym2612"
    },
    {
      "channel": 0,
      "note": 38,
      "start": 52.0838,
      "duration": 0.0161,
      "velocity": 115,
      "chip": "ym2612"
    },
    {
      "channel": 4,
      "note": 65,
      "start": 52.085,
      "duration": 0.0161,
      "velocity": 120,
      "chip": "ym2612"
    },
    {
      "channel": 3,
      "note": 60,
      "start": 52.0862,
      "duration": 0.0161,
      "velocity": 120,
      "chip": "ym2612"
    },
    {
      "channel": 2,
      "note": 50,
      "start": 52.0873,
      "duration": 0.0161,
      "velocity": 100,
      "chip": "ym2612"
    },
    {
      "channel": 1,
      "note": 38,
      "start": 52.0884,
      "duration": 0.0161,
      "velocity": 100,
      "chip": "ym2612"
    },
    {
      "channel": 0,
      "note": 38,
      "start": 52.0999,
      "duration": 0.0161,
      "velocity": 115,
      "chip": "ym2612"
    },
    {
      "channel": 4,
      "note": 65,
      "start": 52.1011,
      "duration": 0.0162,
      "velocity": 120,
      "chip": "ym2612"
    },
    {
      "channel": 3,
      "note": 60,
      "start": 52.1023,
      "duration": 0.0161,
      "velocity": 120,
      "chip": "ym2612"
    },
    {
      "channel": 2,
      "note": 50,
      "start": 52.1034,
      "duration": 0.0162,
      "velocity": 100,
      "chip": "ym2612"
    },
    {
      "channel": 1,
      "note": 38,
      "start": 52.1045,
      "duration": 0.0161,
      "velocity": 100,
      "chip": "ym2612"
    },
    {
      "channel": 0,
      "note": 39,
      "start": 52.116,
      "duration": 0.0161,
      "velocity": 115,
      "chip": "ym2612"
    },
    {
      "channel": 4,
      "note": 65,
      "start": 52.1172,
      "duration": 0.0161,
      "velocity": 120,
      "chip": "ym2612"
    },
    {
      "channel": 3,
      "note": 60,
      "start": 52.1184,
      "duration": 0.0161,
      "velocity": 120,
      "chip": "ym2612"
    },
    {
      "channel": 2,
      "note": 50,
      "start": 52.1195,
      "duration": 0.0161,
      "velocity": 100,
      "chip": "ym2612"
    },
    {
      "channel": 1,
      "note": 38,
      "start": 52.1206,
      "duration": 0.0162,
      "velocity": 100,
      "chip": "ym2612"
    },
    {
      "channel": 0,
      "note": 39,
      "start": 52.1321,
      "duration": 0.0161,
      "velocity": 115,
      "chip": "ym2612"
    },
    {
      "channel": 4,
      "note": 65,
      "start": 52.1333,
      "duration": 0.0161,
      "velocity": 120,
      "chip": "ym2612"
    },
    {
      "channel": 3,
      "note": 60,
      "start": 52.1345,
      "duration": 0.0161,
      "velocity": 120,
      "chip": "ym2612"
    },
    {
      "channel": 0,
      "note": 40,
      "start": 52.1482,
      "duration": 0.0161,
      "velocity": 115,
      "chip": "ym2612"
    },
    {
      "channel": 4,
      "note": 65,
      "start": 52.1494,
      "duration": 0.0161,
      "velocity": 120,
      "chip": "ym2612"
    },
    {
      "channel": 3,
      "note": 60,
      "start": 52.1506,
      "duration": 0.0161,
      "velocity": 120,
      "chip": "ym2612"
    },
    {
      "channel": 0,
      "note": 40,
      "start": 52.1643,
      "duration": 0.0161,
      "velocity": 115,
      "chip": "ym2612"
    },
    {
      "channel": 4,
      "note": 65,
      "start": 52.1655,
      "duration": 0.0161,
      "velocity": 120,
      "chip": "ym2612"
    },
    {
      "channel": 3,
      "note": 60,
      "start": 52.1667,
      "duration": 0.0161,
      "velocity": 120,
      "chip": "ym2612"
    },
    {
      "channel": 0,
      "note": 40,
      "start": 52.1804,
      "duration": 0.0161,
      "velocity": 115,
      "chip": "ym2612"
    },
    {
      "channel": 4,
      "note": 65,
      "start": 52.1816,
      "duration": 0.0161,
      "velocity": 120,
      "chip": "ym2612"
    },
    {
      "channel": 3,
      "note": 60,
      "start": 52.1827,
      "duration": 0.0161,
      "velocity": 120,
      "chip": "ym2612"
    },
    {
      "channel": 0,
      "note": 41,
      "start": 52.1965,
      "duration": 0.0195,
      "velocity": 115,
      "chip": "ym2612"
    },
    {
      "channel": 4,
      "note": 65,
      "start": 52.1977,
      "duration": 0.0195,
      "velocity": 120,
      "chip": "ym2612"
    },
    {
      "channel": 3,
      "note": 60,
      "start": 52.1988,
      "duration": 0.0196,
      "velocity": 120,
      "chip": "ym2612"
    },
    {
      "channel": 1,
      "note": 78,
      "start": 52.2143,
      "duration": 0.0144,
      "velocity": 124,
      "chip": "ym2612"
    },
    {
      "channel": 0,
      "note": 41,
      "start": 52.216,
      "duration": 0.0144,
      "velocity": 115,
      "chip": "ym2612"
    },
    {
      "channel": 4,
      "note": 65,
      "start": 52.2172,
      "duration": 0.0144,
      "velocity": 120,
      "chip": "ym2612"
    },
    {
      "channel": 3,
      "note": 60,
      "start": 52.2184,
      "duration": 0.0143,
      "velocity": 120,
      "chip": "ym2612"
    },
    {
      "channel": 2,
      "note": 50,
      "start": 52.22,
      "duration": 0.014,
      "velocity": 100,
      "chip": "ym2612"
    },
    {
      "channel": 1,
      "note": 76,
      "start": 52.2287,
      "duration": 0.016,
      "velocity": 124,
      "chip": "ym2612"
    },
    {
      "channel": 0,
      "note": 42,
      "start": 52.2304,
      "duration": 0.0161,
      "velocity": 115,
      "chip": "ym2612"
    },
    {
      "channel": 4,
      "note": 65,
      "start": 52.2316,
      "duration": 0.016,
      "velocity": 120,
      "chip": "ym2612"
    },
    {
      "channel": 3,
      "note": 60,
      "start": 52.2327,
      "duration": 0.0161,
      "velocity": 120,
      "chip": "ym2612"
    },
    {
      "channel": 2,
      "note": 50,
      "start": 52.234,
      "duration": 0.016,
      "velocity": 100,
      "chip": "ym2612"
    },
    {
      "channel": 1,
      "note": 75,
      "start": 52.2447,
      "duration": 0.0161,
      "velocity": 124,
      "chip": "ym2612"
    },
    {
      "channel": 0,
      "note": 42,
      "start": 52.2465,
      "duration": 0.0161,
      "velocity": 115,
      "chip": "ym2612"
    },
    {
      "channel": 4,
      "note": 65,
      "start": 52.2476,
      "duration": 0.0161,
      "velocity": 120,
      "chip": "ym2612"
    },
    {
      "channel": 3,
      "note": 60,
      "start": 52.2488,
      "duration": 0.0161,
      "velocity": 120,
      "chip": "ym2612"
    },
    {
      "channel": 2,
      "note": 50,
      "start": 52.2499,
      "duration": 0.0161,
      "velocity": 100,
      "chip": "ym2612"
    },
    {
      "channel": 1,
      "note": 74,
      "start": 52.2608,
      "duration": 0.0162,
      "velocity": 124,
      "chip": "ym2612"
    },
    {
      "channel": 0,
      "note": 43,
      "start": 52.2626,
      "duration": 0.0161,
      "velocity": 115,
      "chip": "ym2612"
    },
    {
      "channel": 4,
      "note": 65,
      "start": 52.2637,
      "duration": 0.0162,
      "velocity": 120,
      "chip": "ym2612"
    },
    {
      "channel": 3,
      "note": 60,
      "start": 52.2649,
      "duration": 0.0161,
      "velocity": 120,
      "chip": "ym2612"
    },
    {
      "channel": 2,
      "note": 50,
      "start": 52.266,
      "duration": 0.0162,
      "velocity": 100,
      "chip": "ym2612"
    },
    {
      "channel": 1,
      "note": 72,
      "start": 52.277,
      "duration": 0.0161,
      "velocity": 124,
      "chip": "ym2612"
    },
    {
      "channel": 0,
      "note": 43,
      "start": 52.2787,
      "duration": 0.0161,
      "velocity": 115,
      "chip": "ym2612"
    },
    {
      "channel": 4,
      "note": 65,
      "start": 52.2799,
      "duration": 0.0161,
      "velocity": 120,
      "chip": "ym2612"
    },
    {
      "channel": 3,
      "note": 60,
      "start": 52.2811,
      "duration": 0.016,
      "velocity": 120,
      "chip": "ym2612"
    },
    {
      "channel": 2,
      "note": 50,
      "start": 52.2822,
      "duration": 0.016,
      "velocity": 100,
      "chip": "ym2612"
    },
    {
      "channel": 1,
      "note": 71,
      "start": 52.2931,
      "duration": 0.0175,
      "velocity": 124,
      "chip": "ym2612"
    },
    {
      "channel": 0,
      "note": 44,
      "start": 52.2948,
      "duration": 0.0176,
      "velocity": 115,
      "chip": "ym2612"
    },
    {
      "channel": 4,
      "note": 65,
      "start": 52.296,
      "duration": 0.0175,
      "velocity": 120,
      "chip": "ym2612"
    },
    {
      "channel": 3,
      "note": 60,
      "start": 52.2971,
      "duration": 0.0176,
      "velocity": 120,
      "chip": "ym2612"
    },
    {
      "channel": 2,
      "note": 50,
      "start": 52.2983,
      "duration": 0.0175,
      "velocity": 100,
      "chip": "ym2612"
    },
    {
      "channel": 1,
      "note": 70,
      "start": 52.3105,
      "duration": 0.0167,
      "velocity": 124,
      "chip": "ym2612"
    },
    {
      "channel": 0,
      "note": 44,
      "start": 52.3123,
      "duration": 0.0167,
      "velocity": 115,
      "chip": "ym2612"
    },
    {
      "channel": 4,
      "note": 65,
      "start": 52.3135,
      "duration": 0.0167,
      "velocity": 120,
      "chip": "ym2612"
    },
    {
      "channel": 3,
      "note": 60,
      "start": 52.3147,
      "duration": 0.0167,
      "velocity": 120,
      "chip": "ym2612"
    },
    {
      "channel": 2,
      "note": 50,
      "start": 52.3158,
      "duration": 0.0167,
      "velocity": 100,
      "chip": "ym2612"
    },
    {
      "channel": 1,
      "note": 69,
      "start": 52.3272,
      "duration": 0.0163,
      "velocity": 124,
      "chip": "ym2612"
    },
    {
      "channel": 0,
      "note": 44,
      "start": 52.329,
      "duration": 0.0163,
      "velocity": 115,
      "chip": "ym2612"
    },
    {
      "channel": 4,
      "note": 65,
      "start": 52.3301,
      "duration": 0.0163,
      "velocity": 120,
      "chip": "ym2612"
    },
    {
      "channel": 3,
      "note": 60,
      "start": 52.3314,
      "duration": 0.0163,
      "velocity": 120,
      "chip": "ym2612"
    },
    {
      "channel": 1,
      "note": 68,
      "start": 52.3436,
      "duration": 0.0142,
      "velocity": 124,
      "chip": "ym2612"
    },
    {
      "channel": 0,
      "note": 45,
      "start": 52.3453,
      "duration": 0.0142,
      "velocity": 115,
      "chip": "ym2612"
    },
    {
      "channel": 4,
      "note": 65,
      "start": 52.3465,
      "duration": 0.0142,
      "velocity": 120,
      "chip": "ym2612"
    },
    {
      "channel": 3,
      "note": 60,
      "start": 52.3476,
      "duration": 0.0142,
      "velocity": 120,
      "chip": "ym2612"
    },
    {
      "channel": 1,
      "note": 66,
      "start": 52.3578,
      "duration": 0.0186,
      "velocity": 124,
      "chip": "ym2612"
    },
    {
      "channel": 0,
      "note": 45,
      "start": 52.3595,
      "duration": 0.0186,
      "velocity": 115,
      "chip": "ym2612"
    },
    {
      "channel": 4,
      "note": 65,
      "start": 52.3607,
      "duration": 0.0186,
      "velocity": 120,
      "chip": "ym2612"
    },
    {
      "channel": 3,
      "note": 60,
      "start": 52.3618,
      "duration": 0.0186,
      "velocity": 120,
      "chip": "ym2612"
    },
    {
      "channel": 1,
      "note": 65,
      "start": 52.3763,
      "duration": 0.0161,
      "velocity": 124,
      "chip": "ym2612"
    },
    {
      "channel": 0,
      "note": 46,
      "start": 52.378,
      "duration": 0.0161,
      "velocity": 115,
      "chip": "ym2612"
    },
    {
      "channel": 4,
      "note": 65,
      "start": 52.3793,
      "duration": 0.0161,
      "velocity": 120,
      "chip": "ym2612"
    },
    {
      "channel": 3,
      "note": 60,
      "start": 52.3804,
      "duration": 0.0161,
      "velocity": 120,
      "chip": "ym2612"
    },
    {
      "channel": 1,
      "note": 64,
      "start": 52.3924,
      "duration": 0.0133,
      "velocity": 124,
      "chip": "ym2612"
    },
    {
      "channel": 0,
      "note": 46,
      "start": 52.3941,
      "duration": 0.0175,
      "velocity": 115,
      "chip": "ym2612"
    },
    {
      "channel": 4,
      "note": 65,
      "start": 52.3954,
      "duration": 0.0175,
      "velocity": 120,
      "chip": "ym2612"
    },
    {
      "channel": 3,
      "note": 60,
      "start": 52.3965,
      "duration": 0.0176,
      "velocity": 120,
      "chip": "ym2612"
    },
    {
      "channel": 1,
      "note": 62,
      "start": 52.4057,
      "duration": 0.0162,
      "velocity": 124,
      "chip": "ym2612"
    },
    {
      "channel": 0,
      "note": 36,
      "start": 52.4116,
      "duration": 0.0123,
      "velocity": 115,
      "chip": "ym2612"
    },
    {
      "channel": 4,
      "note": 65,
      "start": 52.4128,
      "duration": 0.0123,
      "velocity": 120,
      "chip": "ym2612"
    },
    {
      "channel": 3,
      "note": 60,
      "start": 52.4141,
      "duration": 0.0123,
      "velocity": 120,
      "chip": "ym2612"
    },
    {
      "channel": 2,
      "note": 50,
      "start": 52.4156,
      "duration": 0.012,
      "velocity": 100,
      "chip": "ym2612"
    },
    {
      "channel": 1,
      "note": 61,
      "start": 52.4219,
      "duration": 0.0161,
      "velocity": 124,
      "chip": "ym2612"
    },
    {
      "channel": 0,
      "note": 36,
      "start": 52.424,
      "duration": 0.0185,
      "velocity": 115,
      "chip": "ym2612"
    },
    {
      "channel": 4,
      "note": 65,
      "start": 52.4252,
      "duration": 0.0185,
      "velocity": 120,
      "chip": "ym2612"
    },
    {
      "channel": 3,
      "note": 60,
      "start": 52.4263,
      "duration": 0.0184,
      "velocity": 120,
      "chip": "ym2612"
    },
    {
      "channel": 2,
      "note": 50,
      "start": 52.4275,
      "duration": 0.0184,
      "velocity": 100,
      "chip": "ym2612"
    },
    {
      "channel": 1,
      "note": 60,
      "start": 52.438,
      "duration": 0.0161,
      "velocity": 124,
      "chip": "ym2612"
    },
    {
      "channel": 0,
      "note": 37,
      "start": 52.4424,
      "duration": 0.0134,
      "velocity": 115,
      "chip": "ym2612"
    },
    {
      "channel": 4,
      "note": 65,
      "start": 52.4436,
      "duration": 0.0161,
      "velocity": 120,
      "chip": "ym2612"
    },
    {
      "channel": 3,
      "note": 60,
      "start": 52.4448,
      "duration": 0.0161,
      "velocity": 120,
      "chip": "ym2612"
    },
    {
      "channel": 2,
      "note": 50,
      "start": 52.4459,
      "duration": 0.0161,
      "velocity": 100,
      "chip": "ym2612"
    },
    {
      "channel": 1,
      "note": 59,
      "start": 52.4541,
      "duration": 0.0161,
      "velocity": 124,
      "chip": "ym2612"
    },
    {
      "channel": 0,
      "note": 37,
      "start": 52.4558,
      "duration": 0.0161,
      "velocity": 115,
      "chip": "ym2612"
    },
    {
      "channel": 4,
      "note": 65,
      "start": 52.4597,
      "duration": 0.0157,
      "velocity": 120,
      "chip": "ym2612"
    },
    {
      "channel": 3,
      "note": 60,
      "start": 52.4609,
      "duration": 0.0158,
      "velocity": 120,
      "chip": "ym2612"
    },
    {
      "channel": 2,
      "note": 50,
      "start": 52.462,
      "duration": 0.0157,
      "velocity": 100,
      "chip": "ym2612"
    },
    {
      "channel": 1,
      "note": 57,
      "start": 52.4702,
      "duration": 0.0161,
      "velocity": 124,
      "chip": "ym2612"
    },
    {
      "channel": 0,
      "note": 38,
      "start": 52.4719,
      "duration": 0.0161,
      "velocity": 115,
      "chip": "ym2612"
    },
    {
      "channel": 4,
      "note": 65,
      "start": 52.4754,
      "duration": 0.0137,
      "velocity": 120,
      "chip": "ym2612"
    },
    {
      "channel": 3,
      "note": 60,
      "start": 52.4766,
      "duration": 0.014,
      "velocity": 120,
      "chip": "ym2612"
    },
    {
      "channel": 2,
      "note": 50,
      "start": 52.4777,
      "duration": 0.0141,
      "velocity": 100,
      "chip": "ym2612"
    },
    {
      "channel": 1,
      "note": 56,
      "start": 52.4863,
      "duration": 0.0161,
      "velocity": 124,
      "chip": "ym2612"
    },
    {
      "channel": 0,
      "note": 38,
      "start": 52.488,
      "duration": 0.0161,
      "velocity": 115,
      "chip": "ym2612"
    },
    {
      "channel": 4,
      "note": 65,
      "start": 52.4892,
      "duration": 0.0161,
      "velocity": 120,
      "chip": "ym2612"
    },
    {
      "channel": 3,
      "note": 60,
      "start": 52.4906,
      "duration": 0.0185,
      "velocity": 120,
      "chip": "ym2612"
    },
    {
      "channel": 2,
      "note": 50,
      "start": 52.4918,
      "duration": 0.0185,
      "velocity": 100,
      "chip": "ym2612"
    },
    {
      "channel": 1,
      "note": 55,
      "start": 52.5023,
      "duration": 0.0161,
      "velocity": 124,
      "chip": "ym2612"
    },
    {
      "channel": 0,
      "note": 39,
      "start": 52.5041,
      "duration": 0.0161,
      "velocity": 115,
      "chip": "ym2612"
    },
    {
      "channel": 4,
      "note": 65,
      "start": 52.5053,
      "duration": 0.0161,
      "velocity": 120,
      "chip": "ym2612"
    },
    {
      "channel": 3,
      "note": 60,
      "start": 52.5091,
      "duration": 0.0134,
      "velocity": 120,
      "chip": "ym2612"
    },
    {
      "channel": 2,
      "note": 50,
      "start": 52.5103,
      "duration": 0.0162,
      "velocity": 100,
      "chip": "ym2612"
    },
    {
      "channel": 1,
      "note": 53,
      "start": 52.5184,
      "duration": 0.0161,
      "velocity": 124,
      "chip": "ym2612"
    },
    {
      "channel": 0,
      "note": 39,
      "start": 52.5202,
      "duration": 0.0161,
      "velocity": 115,
      "chip": "ym2612"
    },
    {
      "channel": 4,
      "note": 65,
      "start": 52.5214,
      "duration": 0.0161,
      "velocity": 120,
      "chip": "ym2612"
    },
    {
      "channel": 3,
      "note": 60,
      "start": 52.5225,
      "duration": 0.0161,
      "velocity": 120,
      "chip": "ym2612"
    },
    {
      "channel": 1,
      "note": 52,
      "start": 52.5345,
      "duration": 0.0161,
      "velocity": 124,
      "chip": "ym2612"
    },
    {
      "channel": 0,
      "note": 40,
      "start": 52.5363,
      "duration": 0.0161,
      "velocity": 115,
      "chip": "ym2612"
    },
    {
      "channel": 4,
      "note": 65,
      "start": 52.5375,
      "duration": 0.0161,
      "velocity": 120,
      "chip": "ym2612"
    },
    {
      "channel": 3,
      "note": 60,
      "start": 52.5387,
      "duration": 0.0161,
      "velocity": 120,
      "chip": "ym2612"
    },
    {
      "channel": 1,
      "note": 51,
      "start": 52.5506,
      "duration": 0.0153,
      "velocity": 1,
      "chip": "ym2612"
    },
    {
      "channel": 0,
      "note": 40,
      "start": 52.5523,
      "duration": 0.0153,
      "velocity": 115,
      "chip": "ym2612"
    },
    {
      "channel": 4,
      "note": 65,
      "start": 52.5536,
      "duration": 0.0153,
      "velocity": 120,
      "chip": "ym2612"
    },
    {
      "channel": 3,
      "note": 60,
      "start": 52.5548,
      "duration": 0.0153,
      "velocity": 120,
      "chip": "ym2612"
    },
    {
      "channel": 0,
      "note": 40,
      "start": 52.5677,
      "duration": 0.0153,
      "velocity": 115,
      "chip": "ym2612"
    },
    {
      "channel": 4,
      "note": 65,
      "start": 52.5689,
      "duration": 0.0153,
      "velocity": 120,
      "chip": "ym2612"
    },
    {
      "channel": 3,
      "note": 60,
      "start": 52.57,
      "duration": 0.0153,
      "velocity": 120,
      "chip": "ym2612"
    },
    {
      "channel": 0,
      "note": 41,
      "start": 52.5829,
      "duration": 0.0179,
      "velocity": 115,
      "chip": "ym2612"
    },
    {
      "channel": 4,
      "note": 65,
      "start": 52.5841,
      "duration": 0.0181,
      "velocity": 120,
      "chip": "ym2612"
    },
    {
      "channel": 3,
      "note": 60,
      "start": 52.5853,
      "duration": 0.0183,
      "velocity": 120,
      "chip": "ym2612"
    },
    {
      "channel": 0,
      "note": 36,
      "start": 52.6008,
      "duration": 0.0144,
      "velocity": 115,
      "chip": "ym2612"
    },
    {
      "channel": 4,
      "note": 67,
      "start": 52.6023,
      "duration": 0.0141,
      "velocity": 120,
      "chip": "ym2612"
    },
    {
      "channel": 3,
      "note": 62,
      "start": 52.6037,
      "duration": 0.0139,
      "velocity": 120,
      "chip": "ym2612"
    },
    {
      "channel": 2,
      "note": 50,
      "start": 52.6052,
      "duration": 0.0136,
      "velocity": 100,
      "chip": "ym2612"
    },
    {
      "channel": 1,
      "note": 38,
      "start": 52.6091,
      "duration": 0.0109,
      "velocity": 100,
      "chip": "ym2612"
    },
    {
      "channel": 0,
      "note": 36,
      "start": 52.6152,
      "duration": 0.016,
      "velocity": 115,
      "chip": "ym2612"
    },
    {
      "channel": 4,
      "note": 67,
      "start": 52.6164,
      "duration": 0.016,
      "velocity": 120,
      "chip": "ym2612"
    },
    {
      "channel": 3,
      "note": 62,
      "start": 52.6176,
      "duration": 0.0159,
      "velocity": 120,
      "chip": "ym2612"
    },
    {
      "channel": 2,
      "note": 50,
      "start": 52.6188,
      "duration": 0.0158,
      "velocity": 100,
      "chip": "ym2612"
    },
    {
      "channel": 1,
      "note": 38,
      "start": 52.62,
      "duration": 0.0158,
      "velocity": 100,
      "chip": "ym2612"
    },
    {
      "channel": 0,
      "note": 37,
      "start": 52.6312,
      "duration": 0.0161,
      "velocity": 115,
      "chip": "ym2612"
    },
    {
      "channel": 4,
      "note": 67,
      "start": 52.6324,
      "duration": 0.0162,
      "velocity": 120,
      "chip": "ym2612"
    },
    {
      "channel": 3,
      "note": 62,
      "start": 52.6335,
      "duration": 0.0161,
      "velocity": 120,
      "chip": "ym2612"
    },
    {
      "channel": 2,
      "note": 50,
      "start": 52.6346,
      "duration": 0.0162,
      "velocity": 100,
      "chip": "ym2612"
    },
    {
      "channel": 1,
      "note": 38,
      "start": 52.6358,
      "duration": 0.0161,
      "velocity": 100,
      "chip": "ym2612"
    },
    {
      "channel": 0,
      "note": 37,
      "start": 52.6473,
      "duration": 0.0161,
      "velocity": 115,
      "chip": "ym2612"
    },
    {
      "channel": 4,
      "note": 67,
      "start": 52.6485,
      "duration": 0.0161,
      "velocity": 120,
      "chip": "ym2612"
    },
    {
      "channel": 3,
      "note": 62,
      "start": 52.6497,
      "duration": 0.0161,
      "velocity": 120,
      "chip": "ym2612"
    },
    {
      "channel": 2,
      "note": 50,
      "start": 52.6508,
      "duration": 0.0161,
      "velocity": 100,
      "chip": "ym2612"
    },
    {
      "channel": 1,
      "note": 38,
      "start": 52.6519,
      "duration": 0.0161,
      "velocity": 100,
      "chip": "ym2612"
    },
    {
      "channel": 0,
      "note": 38,
      "start": 52.6634,
      "duration": 0.0162,
      "velocity": 115,
      "chip": "ym2612"
    },
    {
      "channel": 4,
      "note": 67,
      "start": 52.6646,
      "duration": 0.0161,
      "velocity": 120,
      "chip": "ym2612"
    },
    {
      "channel": 3,
      "note": 62,
      "start": 52.6658,
      "duration": 0.0161,
      "velocity": 120,
      "chip": "ym2612"
    },
    {
      "channel": 2,
      "note": 50,
      "start": 52.6669,
      "duration": 0.0161,
      "velocity": 100,
      "chip": "ym2612"
    },
    {
      "channel": 1,
      "note": 38,
      "start": 52.668,
      "duration": 0.0161,
      "velocity": 100,
      "chip": "ym2612"
    },
    {
      "channel": 0,
      "note": 38,
      "start": 52.6796,
      "duration": 0.0161,
      "velocity": 115,
      "chip": "ym2612"
    },
    {
      "channel": 4,
      "note": 67,
      "start": 52.6807,
      "duration": 0.0161,
      "velocity": 120,
      "chip": "ym2612"
    },
    {
      "channel": 3,
      "note": 62,
      "start": 52.6819,
      "duration": 0.0161,
      "velocity": 120,
      "chip": "ym2612"
    },
    {
      "channel": 2,
      "note": 50,
      "start": 52.683,
      "duration": 0.0161,
      "velocity": 100,
      "chip": "ym2612"
    },
    {
      "channel": 1,
      "note": 38,
      "start": 52.6841,
      "duration": 0.0161,
      "velocity": 100,
      "chip": "ym2612"
    },
    {
      "channel": 0,
      "note": 39,
      "start": 52.6957,
      "duration": 0.0161,
      "velocity": 115,
      "chip": "ym2612"
    },
    {
      "channel": 4,
      "note": 67,
      "start": 52.6968,
      "duration": 0.0161,
      "velocity": 120,
      "chip": "ym2612"
    },
    {
      "channel": 3,
      "note": 62,
      "start": 52.698,
      "duration": 0.0161,
      "velocity": 120,
      "chip": "ym2612"
    },
    {
      "channel": 2,
      "note": 50,
      "start": 52.6991,
      "duration": 0.0161,
      "velocity": 100,
      "chip": "ym2612"
    },
    {
      "channel": 1,
      "note": 38,
      "start": 52.7002,
      "duration": 0.0161,
      "velocity": 100,
      "chip": "ym2612"
    },
    {
      "channel": 0,
      "note": 39,
      "start": 52.7118,
      "duration": 0.0161,
      "velocity": 115,
      "chip": "ym2612"
    },
    {
      "channel": 4,
      "note": 67,
      "start": 52.7129,
      "duration": 0.0161,
      "velocity": 120,
      "chip": "ym2612"
    },
    {
      "channel": 3,
      "note": 62,
      "start": 52.7141,
      "duration": 0.0161,
      "velocity": 120,
      "chip": "ym2612"
    },
    {
      "channel": 0,
      "note": 40,
      "start": 52.7278,
      "duration": 0.0161,
      "velocity": 115,
      "chip": "ym2612"
    },
    {
      "channel": 4,
      "note": 67,
      "start": 52.729,
      "duration": 0.0161,
      "velocity": 120,
      "chip": "ym2612"
    },
    {
      "channel": 3,
      "note": 62,
      "start": 52.7301,
      "duration": 0.0161,
      "velocity": 120,
      "chip": "ym2612"
    },
    {
      "channel": 0,
      "note": 40,
      "start": 52.7439,
      "duration": 0.0161,
      "velocity": 115,
      "chip": "ym2612"
    },
    {
      "channel": 4,
      "note": 67,
      "start": 52.7451,
      "duration": 0.0161,
      "velocity": 120,
      "chip": "ym2612"
    },
    {
      "channel": 3,
      "note": 62,
      "start": 52.7462,
      "duration": 0.0161,
      "velocity": 120,
      "chip": "ym2612"
    },
    {
      "channel": 0,
      "note": 40,
      "start": 52.76,
      "duration": 0.0173,
      "velocity": 115,
      "chip": "ym2612"
    },
    {
      "channel": 4,
      "note": 67,
      "start": 52.7612,
      "duration": 0.0173,
      "velocity": 120,
      "chip": "ym2612"
    },
    {
      "channel": 3,
      "note": 62,
      "start": 52.7623,
      "duration": 0.0173,
      "velocity": 120,
      "chip": "ym2612"
    },
    {
      "channel": 0,
      "note": 41,
      "start": 52.7773,
      "duration": 0.0167,
      "velocity": 115,
      "chip": "ym2612"
    },
    {
      "channel": 4,
      "note": 67,
      "start": 52.7785,
      "duration": 0.0167,
      "velocity": 120,
      "chip": "ym2612"
    },
    {
      "channel": 3,
      "note": 62,
      "start": 52.7796,
      "duration": 0.0167,
      "velocity": 120,
      "chip": "ym2612"
    },
    {
      "channel": 0,
      "note": 41,
      "start": 52.794,
      "duration": 0.0163,
      "velocity": 115,
      "chip": "ym2612"
    },
    {
      "channel": 4,
      "note": 67,
      "start": 52.7951,
      "duration": 0.0163,
      "velocity": 120,
      "chip": "ym2612"
    },
    {
      "channel": 3,
      "note": 62,
      "start": 52.7964,
      "duration": 0.0163,
      "velocity": 120,
      "chip": "ym2612"
    },
    {
      "channel": 2,
      "note": 50,
      "start": 52.7979,
      "duration": 0.016,
      "velocity": 100,
      "chip": "ym2612"
    },
    {
      "channel": 1,
      "note": 38,
      "start": 52.7994,
      "duration": 0.0156,
      "velocity": 100,
      "chip": "ym2612"
    },
    {
      "channel": 0,
      "note": 42,
      "start": 52.8103,
      "duration": 0.0145,
      "velocity": 115,
      "chip": "ym2612"
    },
    {
      "channel": 4,
      "note": 67,
      "start": 52.8115,
      "duration": 0.0144,
      "velocity": 120,
      "chip": "ym2612"
    },
    {
      "channel": 3,
      "note": 62,
      "start": 52.8127,
      "duration": 0.0145,
      "velocity": 120,
      "chip": "ym2612"
    },
    {
      "channel": 2,
      "note": 50,
      "start": 52.8139,
      "duration": 0.0144,
      "velocity": 100,
      "chip": "ym2612"
    },
    {
      "channel": 1,
      "note": 38,
      "start": 52.815,
      "duration": 0.0144,
      "velocity": 100,
      "chip": "ym2612"
    },
    {
      "channel": 0,
      "note": 42,
      "start": 52.8248,
      "duration": 0.0185,
      "velocity": 115,
      "chip": "ym2612"
    },
    {
      "channel": 4,
      "note": 67,
      "start": 52.8259,
      "duration": 0.0186,
      "velocity": 120,
      "chip": "ym2612"
    },
    {
      "channel": 3,
      "note": 62,
      "start": 52.8271,
      "duration": 0.0185,
      "velocity": 120,
      "chip": "ym2612"
    },
    {
      "channel": 2,
      "note": 50,
      "start": 52.8282,
      "duration": 0.0186,
      "velocity": 100,
      "chip": "ym2612"
    },
    {
      "channel": 1,
      "note": 38,
      "start": 52.8294,
      "duration": 0.0185,
      "velocity": 100,
      "chip": "ym2612"
    },
    {
      "channel": 0,
      "note": 43,
      "start": 52.8433,
      "duration": 0.0161,
      "velocity": 115,
      "chip": "ym2612"
    },
    {
      "channel": 4,
      "note": 67,
      "start": 52.8445,
      "duration": 0.0161,
      "velocity": 120,
      "chip": "ym2612"
    },
    {
      "channel": 3,
      "note": 62,
      "start": 52.8457,
      "duration": 0.0161,
      "velocity": 120,
      "chip": "ym2612"
    },
    {
      "channel": 2,
      "note": 50,
      "start": 52.8468,
      "duration": 0.0161,
      "velocity": 100,
      "chip": "ym2612"
    },
    {
      "channel": 1,
      "note": 38,
      "start": 52.8479,
      "duration": 0.0161,
      "velocity": 100,
      "chip": "ym2612"
    },
    {
      "channel": 0,
      "note": 43,
      "start": 52.8594,
      "duration": 0.0157,
      "velocity": 115,
      "chip": "ym2612"
    },
    {
      "channel": 4,
      "note": 67,
      "start": 52.8606,
      "duration": 0.0157,
      "velocity": 120,
      "chip": "ym2612"
    },
    {
      "channel": 3,
      "note": 62,
      "start": 52.8618,
      "duration": 0.0158,
      "velocity": 120,
      "chip": "ym2612"
    },
    {
      "channel": 2,
      "note": 50,
      "start": 52.8629,
      "duration": 0.0157,
      "velocity": 100,
      "chip": "ym2612"
    },
    {
      "channel": 1,
      "note": 38,
      "start": 52.864,
      "duration": 0.0158,
      "velocity": 100,
      "chip": "ym2612"
    },
    {
      "channel": 0,
      "note": 44,
      "start": 52.8751,
      "duration": 0.0137,
      "velocity": 115,
      "chip": "ym2612"
    },
    {
      "channel": 4,
      "note": 67,
      "start": 52.8763,
      "duration": 0.0141,
      "velocity": 120,
      "chip": "ym2612"
    },
    {
      "channel": 3,
      "note": 62,
      "start": 52.8775,
      "duration": 0.014,
      "velocity": 120,
      "chip": "ym2612"
    },
    {
      "channel": 2,
      "note": 50,
      "start": 52.8786,
      "duration": 0.0141,
      "velocity": 100,
      "chip": "ym2612"
    },
    {
      "channel": 1,
      "note": 38,
      "start": 52.8798,
      "duration": 0.0141,
      "velocity": 100,
      "chip": "ym2612"
    },
    {
      "channel": 0,
      "note": 44,
      "start": 52.8889,
      "duration": 0.0161,
      "velocity": 115,
      "chip": "ym2612"
    },
    {
      "channel": 4,
      "note": 67,
      "start": 52.8904,
      "duration": 0.0185,
      "velocity": 120,
      "chip": "ym2612"
    },
    {
      "channel": 3,
      "note": 62,
      "start": 52.8915,
      "duration": 0.0185,
      "velocity": 120,
      "chip": "ym2612"
    },
    {
      "channel": 2,
      "note": 50,
      "start": 52.8927,
      "duration": 0.0185,
      "velocity": 100,
      "chip": "ym2612"
    },
    {
      "channel": 1,
      "note": 38,
      "start": 52.8938,
      "duration": 0.0185,
      "velocity": 100,
      "chip": "ym2612"
    },
    {
      "channel": 0,
      "note": 44,
      "start": 52.9049,
      "duration": 0.0161,
      "velocity": 115,
      "chip": "ym2612"
    },
    {
      "channel": 4,
      "note": 67,
      "start": 52.9089,
      "duration": 0.0134,
      "velocity": 120,
      "chip": "ym2612"
    },
    {
      "channel": 3,
      "note": 62,
      "start": 52.91,
      "duration": 0.0161,
      "velocity": 120,
      "chip": "ym2612"
    },
    {
      "channel": 0,
      "note": 45,
      "start": 52.921,
      "duration": 0.0161,
      "velocity": 115,
      "chip": "ym2612"
    },
    {
      "channel": 4,
      "note": 67,
      "start": 52.9222,
      "duration": 0.0161,
      "velocity": 120,
      "chip": "ym2612"
    },
    {
      "channel": 3,
      "note": 62,
      "start": 52.9262,
      "duration": 0.0157,
      "velocity": 120,
      "chip": "ym2612"
    },
    {
      "channel": 0,
      "note": 45,
      "start": 52.9371,
      "duration": 0.0161,
      "velocity": 115,
      "chip": "ym2612"
    },
    {
      "channel": 4,
      "note": 67,
      "start": 52.9383,
      "duration": 0.0161,
      "velocity": 120,
      "chip": "ym2612"
    },
    {
      "channel": 3,
      "note": 62,
      "start": 52.9419,
      "duration": 0.0137,
      "velocity": 120,
      "chip": "ym2612"
    },
    {
      "channel": 0,
      "note": 46,
      "start": 52.9532,
      "duration": 0.0161,
      "velocity": 115,
      "chip": "ym2612"
    },
    {
      "channel": 4,
      "note": 67,
      "start": 52.9544,
      "duration": 0.0161,
      "velocity": 120,
      "chip": "ym2612"
    },
    {
      "channel": 3,
      "note": 62,
      "start": 52.9556,
      "duration": 0.0162,
      "velocity": 120,
      "chip": "ym2612"
    },
    {
      "channel": 0,
      "note": 46,
      "start": 52.9693,
      "duration": 0.0196,
      "velocity": 115,
      "chip": "ym2612"
    },
    {
      "channel": 4,
      "note": 67,
      "start": 52.9705,
      "duration": 0.0223,
      "velocity": 120,
      "chip": "ym2612"
    },
    {
      "channel": 3,
      "note": 62,
      "start": 52.9717,
      "duration": 0.0223,
      "velocity": 120,
      "chip": "ym2612"
    },
    {
      "channel": 1,
      "note": 78,
      "start": 52.9872,
      "duration": 0.0143,
      "velocity": 124,
      "chip": "ym2612"
    },
    {
      "channel": 0,
      "note": 47,
      "start": 52.9889,
      "duration": 0.0143,
      "velocity": 115,
      "chip": "ym2612"
    },
    {
      "channel": 4,
      "note": 67,
      "start": 52.9929,
      "duration": 0.0116,
      "velocity": 120,
      "chip": "ym2612"
    },
    {
      "channel": 3,
      "note": 62,
      "start": 52.994,
      "duration": 0.0116,
      "velocity": 120,
      "chip": "ym2612"
    },
    {
      "channel": 2,
      "note": 50,
      "start": 52.9955,
      "duration": 0.0137,
      "velocity": 100,
      "chip": "ym2612"
    },
    {
      "channel": 1,
      "note": 76,
      "start": 53.0015,
      "duration": 0.0161,
      "velocity": 124,
      "chip": "ym2612"
    },
    {
      "channel": 0,
      "note": 47,
      "start": 53.0032,
      "duration": 0.0161,
      "velocity": 115,
      "chip": "ym2612"
    },
    {
      "channel": 4,
      "note": 67,
      "start": 53.0044,
      "duration": 0.0161,
      "velocity": 120,
      "chip": "ym2612"
    },
    {
      "channel": 3,
      "note": 62,
      "start": 53.0056,
      "duration": 0.016,
      "velocity": 120,
      "chip": "ym2612"
    },
    {
      "channel": 2,
      "note": 50,
      "start": 53.0092,
      "duration": 0.0139,
      "velocity": 100,
      "chip": "ym2612"
    },
    {
      "channel": 1,
      "note": 75,
      "start": 53.0176,
      "duration": 0.0161,
      "velocity": 124,
      "chip": "ym2612"
    },
    {
      "channel": 0,
      "note": 47,
      "start": 53.0193,
      "duration": 0.0161,
      "velocity": 115,
      "chip": "ym2612"
    },
    {
      "channel": 4,
      "note": 67,
      "start": 53.0205,
      "duration": 0.0161,
      "velocity": 120,
      "chip": "ym2612"
    },
    {
      "channel": 3,
      "note": 62,
      "start": 53.0217,
      "duration": 0.0161,
      "velocity": 120,
      "chip": "ym2612"
    },
    {
      "channel": 2,
      "note": 50,
      "start": 53.0232,
      "duration": 0.0158,
      "velocity": 100,
      "chip": "ym2612"
    },
    {
      "channel": 1,
      "note": 74,
      "start": 53.0337,
      "duration": 0.0161,
      "velocity": 124,
      "chip": "ym2612"
    },
    {
      "channel": 0,
      "note": 48,
      "start": 53.0354,
      "duration": 0.0161,
      "velocity": 115,
      "chip": "ym2612"
    },
    {
      "channel": 4,
      "note": 67,
      "start": 53.0366,
      "duration": 0.0161,
      "velocity": 120,
      "chip": "ym2612"
    },
    {
      "channel": 3,
      "note": 62,
      "start": 53.0378,
      "duration": 0.0161,
      "velocity": 120,
      "chip": "ym2612"
    },
    {
      "channel": 2,
      "note": 50,
      "start": 53.0389,
      "duration": 0.0162,
      "velocity": 100,
      "chip": "ym2612"
    },
    {
      "channel": 1,
      "note": 72,
      "start": 53.0498,
      "duration": 0.0161,
      "velocity": 124,
      "chip": "ym2612"
    },
    {
      "channel": 0,
      "note": 48,
      "start": 53.0515,
      "duration": 0.0161,
      "velocity": 115,
      "chip": "ym2612"
    },
    {
      "channel": 4,
      "note": 67,
      "start": 53.0527,
      "duration": 0.0161,
      "velocity": 120,
      "chip": "ym2612"
    },
    {
      "channel": 3,
      "note": 62,
      "start": 53.0539,
      "duration": 0.016,
      "velocity": 120,
      "chip": "ym2612"
    },
    {
      "channel": 2,
      "note": 50,
      "start": 53.0551,
      "duration": 0.016,
      "velocity": 100,
      "chip": "ym2612"
    },
    {
      "channel": 1,
      "note": 71,
      "start": 53.0659,
      "duration": 0.0161,
      "velocity": 124,
      "chip": "ym2612"
    },
    {
      "channel": 0,
      "note": 49,
      "start": 53.0676,
      "duration": 0.0153,
      "velocity": 1,
      "chip": "ym2612"
    },
    {
      "channel": 4,
      "note": 67,
      "start": 53.0688,
      "duration": 0.0153,
      "velocity": 120,
      "chip": "ym2612"
    },
    {
      "channel": 3,
      "note": 62,
      "start": 53.07,
      "duration": 0.0153,
      "velocity": 120,
      "chip": "ym2612"
    },
    {
      "channel": 2,
      "note": 50,
      "start": 53.0711,
      "duration": 0.0153,
      "velocity": 100,
      "chip": "ym2612"
    },
    {
      "channel": 1,
      "note": 70,
      "start": 53.082,
      "duration": 0.0161,
      "velocity": 124,
      "chip": "ym2612"
    },
    {
      "channel": 4,
      "note": 67,
      "start": 53.0841,
      "duration": 0.0153,
      "velocity": 120,
      "chip": "ym2612"
    },
    {
      "channel": 3,
      "note": 62,
      "start": 53.0853,
      "duration": 0.0152,
      "velocity": 120,
      "chip": "ym2612"
    },
    {
      "channel": 2,
      "note": 50,
      "start": 53.0864,
      "duration": 0.0153,
      "velocity": 100,
      "chip": "ym2612"
    },
    {
      "channel": 1,
      "note": 69,
      "start": 53.0981,
      "duration": 0.0161,
      "velocity": 124,
      "chip": "ym2612"
    },
    {
      "channel": 4,
      "note": 67,
      "start": 53.0993,
      "duration": 0.0161,
      "velocity": 120,
      "chip": "ym2612"
    },
    {
      "channel": 3,
      "note": 62,
      "start": 53.1005,
      "duration": 0.0162,
      "velocity": 120,
      "chip": "ym2612"
    },
    {
      "channel": 1,
      "note": 68,
      "start": 53.1142,
      "duration": 0.0161,
      "velocity": 124,
      "chip": "ym2612"
    },
    {
      "channel": 4,
      "note": 67,
      "start": 53.1154,
      "duration": 0.0161,
      "velocity": 120,
      "chip": "ym2612"
    },
    {
      "channel": 3,
      "note": 62,
      "start": 53.1167,
      "duration": 0.0161,
      "velocity": 120,
      "chip": "ym2612"
    },
    {
      "channel": 1,
      "note": 66,
      "start": 53.1303,
      "duration": 0.0161,
      "velocity": 124,
      "chip": "ym2612"
    },
    {
      "channel": 4,
      "note": 67,
      "start": 53.1315,
      "duration": 0.0161,
      "velocity": 120,
      "chip": "ym2612"
    },
    {
      "channel": 3,
      "note": 62,
      "start": 53.1327,
      "duration": 0.0161,
      "velocity": 120,
      "chip": "ym2612"
    },
    {
      "channel": 1,
      "note": 65,
      "start": 53.1464,
      "duration": 0.0161,
      "velocity": 124,
      "chip": "ym2612"
    },
    {
      "channel": 4,
      "note": 67,
      "start": 53.1476,
      "duration": 0.0161,
      "velocity": 120,
      "chip": "ym2612"
    },
    {
      "channel": 3,
      "note": 62,
      "start": 53.1488,
      "duration": 0.0161,
      "velocity": 120,
      "chip": "ym2612"
    },
    {
      "channel": 1,
      "note": 64,
      "start": 53.1625,
      "duration": 0.0161,
      "velocity": 124,
      "chip": "ym2612"
    },
    {
      "channel": 4,
      "note": 67,
      "start": 53.1638,
      "duration": 0.0195,
      "velocity": 120,
      "chip": "ym2612"
    },
    {
      "channel": 3,
      "note": 62,
      "start": 53.1649,
      "duration": 0.0196,
      "velocity": 120,
      "chip": "ym2612"
    },
    {
      "channel": 1,
      "note": 62,
      "start": 53.1786,
      "duration": 0.0161,
      "velocity": 124,
      "chip": "ym2612"
    },
    {
      "channel": 0,
      "note": 36,
      "start": 53.1821,
      "duration": 0.0144,
      "velocity": 115,
      "chip": "ym2612"
    },
    {
      "channel": 4,
      "note": 67,
      "start": 53.1833,
      "duration": 0.0144,
      "velocity": 120,
      "chip": "ym2612"
    },
    {
      "channel": 3,
      "note": 62,
      "start": 53.1845,
      "duration": 0.0143,
      "velocity": 120,
      "chip": "ym2612"
    },
    {
      "channel": 2,
      "note": 50,
      "start": 53.1861,
      "duration": 0.014,
      "velocity": 100,
      "chip": "ym2612"
    },
    {
      "channel": 1,
      "note": 61,
      "start": 53.1947,
      "duration": 0.0161,
      "velocity": 124,
      "chip": "ym2612"
    },
    {
      "channel": 0,
      "note": 36,
      "start": 53.1965,
      "duration": 0.016,
      "velocity": 115,
      "chip": "ym2612"
    },
    {
      "channel": 4,
      "note": 67,
      "start": 53.1977,
      "duration": 0.016,
      "velocity": 120,
      "chip": "ym2612"
    },
    {
      "channel": 3,
      "note": 62,
      "start": 53.1988,
      "duration": 0.016,
      "velocity": 120,
      "chip": "ym2612"
    },
    {
      "channel": 2,
      "note": 50,
      "start": 53.2,
      "duration": 0.016,
      "velocity": 100,
      "chip": "ym2612"
    },
    {
      "channel": 1,
      "note": 60,
      "start": 53.2108,
      "duration": 0.0161,
      "velocity": 124,
      "chip": "ym2612"
    },
    {
      "channel": 0,
      "note": 37,
      "start": 53.2125,
      "duration": 0.0161,
      "velocity": 115,
      "chip": "ym2612"
    },
    {
      "channel": 4,
      "note": 67,
      "start": 53.2137,
      "duration": 0.0161,
      "velocity": 120,
      "chip": "ym2612"
    },
    {
      "channel": 3,
      "note": 62,
      "start": 53.2149,
      "duration": 0.0161,
      "velocity": 120,
      "chip": "ym2612"
    },
    {
      "channel": 2,
      "note": 50,
      "start": 53.216,
      "duration": 0.0161,
      "velocity": 100,
      "chip": "ym2612"
    },
    {
      "channel": 1,
      "note": 59,
      "start": 53.2269,
      "duration": 0.017,
      "velocity": 124,
      "chip": "ym2612"
    },
    {
      "channel": 0,
      "note": 37,
      "start": 53.2286,
      "duration": 0.017,
      "velocity": 115,
      "chip": "ym2612"
    },
    {
      "channel": 4,
      "note": 67,
      "start": 53.2298,
      "duration": 0.017,
      "velocity": 120,
      "chip": "ym2612"
    },
    {
      "channel": 3,
      "note": 62,
      "start": 53.231,
      "duration": 0.017,
      "velocity": 120,
      "chip": "ym2612"
    },
    {
      "channel": 2,
      "note": 50,
      "start": 53.2321,
      "duration": 0.017,
      "velocity": 100,
      "chip": "ym2612"
    },
    {
      "channel": 1,
      "note": 57,
      "start": 53.2439,
      "duration": 0.0167,
      "velocity": 124,
      "chip": "ym2612"
    },
    {
      "channel": 0,
      "note": 38,
      "start": 53.2456,
      "duration": 0.0167,
      "velocity": 115,
      "chip": "ym2612"
    },
    {
      "channel": 4,
      "note": 67,
      "start": 53.2468,
      "duration": 0.0167,
      "velocity": 120,
      "chip": "ym2612"
    },
    {
      "channel": 3,
      "note": 62,
      "start": 53.248,
      "duration": 0.0167,
      "velocity": 120,
      "chip": "ym2612"
    },
    {
      "channel": 2,
      "note": 50,
      "start": 53.2491,
      "duration": 0.0167,
      "velocity": 100,
      "chip": "ym2612"
    },
    {
      "channel": 1,
      "note": 56,
      "start": 53.2605,
      "duration": 0.0163,
      "velocity": 124,
      "chip": "ym2612"
    },
    {
      "channel": 0,
      "note": 38,
      "start": 53.2623,
      "duration": 0.0163,
      "velocity": 115,
      "chip": "ym2612"
    },
    {
      "channel": 4,
      "note": 67,
      "start": 53.2635,
      "duration": 0.0163,
      "velocity": 120,
      "chip": "ym2612"
    },
    {
      "channel": 3,
      "note": 62,
      "start": 53.2647,
      "duration": 0.0163,
      "velocity": 120,
      "chip": "ym2612"
    },
    {
      "channel": 2,
      "note": 50,
      "start": 53.2658,
      "duration": 0.0163,
      "velocity": 100,
      "chip": "ym2612"
    },
    {
      "channel": 1,
      "note": 55,
      "start": 53.2769,
      "duration": 0.0146,
      "velocity": 124,
      "chip": "ym2612"
    },
    {
      "channel": 0,
      "note": 39,
      "start": 53.2786,
      "duration": 0.0146,
      "velocity": 115,
      "chip": "ym2612"
    },
    {
      "channel": 4,
      "note": 67,
      "start": 53.2798,
      "duration": 0.0146,
      "velocity": 120,
      "chip": "ym2612"
    },
    {
      "channel": 3,
      "note": 62,
      "start": 53.281,
      "duration": 0.0146,
      "velocity": 120,
      "chip": "ym2612"
    },
    {
      "channel": 2,
      "note": 50,
      "start": 53.2821,
      "duration": 0.0146,
      "velocity": 100,
      "chip": "ym2612"
    },
    {
      "channel": 1,
      "note": 53,
      "start": 53.2915,
      "duration": 0.0186,
      "velocity": 124,
      "chip": "ym2612"
    },
    {
      "channel": 0,
      "note": 39,
      "start": 53.2932,
      "duration": 0.0186,
      "velocity": 115,
      "chip": "ym2612"
    },
    {
      "channel": 4,
      "note": 67,
      "start": 53.2944,
      "duration": 0.0186,
      "velocity": 120,
      "chip": "ym2612"
    },
    {
      "channel": 3,
      "note": 62,
      "start": 53.2956,
      "duration": 0.0187,
      "velocity": 120,
      "chip": "ym2612"
    },
    {
      "channel": 1,
      "note": 52,
      "start": 53.3102,
      "duration": 0.0161,
      "velocity": 124,
      "chip": "ym2612"
    },
    {
      "channel": 0,
      "note": 40,
      "start": 53.3119,
      "duration": 0.0161,
      "velocity": 115,
      "chip": "ym2612"
    },
    {
      "channel": 4,
      "note": 67,
      "start": 53.3131,
      "duration": 0.0161,
      "velocity": 120,
      "chip": "ym2612"
    },
    {
      "channel": 3,
      "note": 62,
      "start": 53.3143,
      "duration": 0.016,
      "velocity": 120,
      "chip": "ym2612"
    },
    {
      "channel": 1,
      "note": 51,
      "start": 53.3263,
      "duration": 0.0125,
      "velocity": 1,
      "chip": "ym2612"
    },
    {
      "channel": 0,
      "note": 40,
      "start": 53.328,
      "duration": 0.0149,
      "velocity": 115,
      "chip": "ym2612"
    },
    {
      "channel": 4,
      "note": 67,
      "start": 53.3292,
      "duration": 0.0149,
      "velocity": 120,
      "chip": "ym2612"
    },
    {
      "channel": 3,
      "note": 62,
      "start": 53.3303,
      "duration": 0.0149,
      "velocity": 120,
      "chip": "ym2612"
    },
    {
      "channel": 0,
      "note": 40,
      "start": 53.3429,
      "duration": 0.0129,
      "velocity": 115,
      "chip": "ym2612"
    },
    {
      "channel": 4,
      "note": 67,
      "start": 53.3441,
      "duration": 0.0132,
      "velocity": 120,
      "chip": "ym2612"
    },
    {
      "channel": 3,
      "note": 62,
      "start": 53.3453,
      "duration": 0.0132,
      "velocity": 120,
      "chip": "ym2612"
    },
    {
      "channel": 0,
      "note": 41,
      "start": 53.3558,
      "duration": 0.0161,
      "velocity": 115,
      "chip": "ym2612"
    },
    {
      "channel": 4,
      "note": 67,
      "start": 53.3573,
      "duration": 0.0185,
      "velocity": 120,
      "chip": "ym2612"
    },
    {
      "channel": 3,
      "note": 62,
      "start": 53.3585,
      "duration": 0.0185,
      "velocity": 120,
      "chip": "ym2612"
    },
    {
      "channel": 0,
      "note": 41,
      "start": 53.3719,
      "duration": 0.0161,
      "velocity": 115,
      "chip": "ym2612"
    },
    {
      "channel": 4,
      "note": 67,
      "start": 53.3758,
      "duration": 0.0134,
      "velocity": 120,
      "chip": "ym2612"
    },
    {
      "channel": 3,
      "note": 62,
      "start": 53.377,
      "duration": 0.0162,
      "velocity": 120,
      "chip": "ym2612"
    },
    {
      "channel": 2,
      "note": 50,
      "start": 53.3785,
      "duration": 0.0158,
      "velocity": 100,
      "chip": "ym2612"
    },
    {
      "channel": 1,
      "note": 38,
      "start": 53.3801,
      "duration": 0.0154,
      "velocity": 100,
      "chip": "ym2612"
    },
    {
      "channel": 0,
      "note": 42,
      "start": 53.388,
      "duration": 0.0162,
      "velocity": 115,
      "chip": "ym2612"
    },
    {
      "channel": 4,
      "note": 67,
      "start": 53.3892,
      "duration": 0.0161,
      "velocity": 120,
      "chip": "ym2612"
    },
    {
      "channel": 3,
      "note": 62,
      "start": 53.3931,
      "duration": 0.0157,
      "velocity": 120,
      "chip": "ym2612"
    },
    {
      "channel": 2,
      "note": 50,
      "start": 53.3943,
      "duration": 0.0157,
      "velocity": 100,
      "chip": "ym2612"
    },
    {
      "channel": 1,
      "note": 38,
      "start": 53.3955,
      "duration": 0.0156,
      "velocity": 100,
      "chip": "ym2612"
    },
    {
      "channel": 0,
      "note": 42,
      "start": 53.4041,
      "duration": 0.016,
      "velocity": 115,
      "chip": "ym2612"
    },
    {
      "channel": 4,
      "note": 67,
      "start": 53.4053,
      "duration": 0.0161,
      "velocity": 120,
      "chip": "ym2612"
    },
    {
      "channel": 3,
      "note": 62,
      "start": 53.4088,
      "duration": 0.0137,
      "velocity": 120,
      "chip": "ym2612"
    },
    {
      "channel": 2,
      "note": 50,
      "start": 53.41,
      "duration": 0.014,
      "velocity": 100,
      "chip": "ym2612"
    },
    {
      "channel": 1,
      "note": 38,
      "start": 53.4111,
      "duration": 0.014,
      "velocity": 100,
      "chip": "ym2612"
    },
    {
      "channel": 0,
      "note": 43,
      "start": 53.4202,
      "duration": 0.0161,
      "velocity": 115,
      "chip": "ym2612"
    },
    {
      "channel": 4,
      "note": 67,
      "start": 53.4214,
      "duration": 0.0162,
      "velocity": 120,
      "chip": "ym2612"
    },
    {
      "channel": 3,
      "note": 62,
      "start": 53.4226,
      "duration": 0.0161,
      "velocity": 120,
      "chip": "ym2612"
    },
    {
      "channel": 2,
      "note": 50,
      "start": 53.424,
      "duration": 0.0186,
      "velocity": 100,
      "chip": "ym2612"
    },
    {
      "channel": 1,
      "note": 38,
      "start": 53.4251,
      "duration": 0.0186,
      "velocity": 100,
      "chip": "ym2612"
    },
    {
      "channel": 0,
      "note": 43,
      "start": 53.4363,
      "duration": 0.0161,
      "velocity": 115,
      "chip": "ym2612"
    },
    {
      "channel": 4,
      "note": 67,
      "start": 53.4375,
      "duration": 0.0161,
      "velocity": 120,
      "chip": "ym2612"
    },
    {
      "channel": 3,
      "note": 62,
      "start": 53.4387,
      "duration": 0.0161,
      "velocity": 120,
      "chip": "ym2612"
    },
    {
      "channel": 2,
      "note": 50,
      "start": 53.4425,
      "duration": 0.0134,
      "velocity": 100,
      "chip": "ym2612"
    },
    {
      "channel": 1,
      "note": 38,
      "start": 53.4437,
      "duration": 0.0161,
      "velocity": 100,
      "chip": "ym2612"
    },
    {
      "channel": 0,
      "note": 44,
      "start": 53.4524,
      "duration": 0.0161,
      "velocity": 115,
      "chip": "ym2612"
    },
    {
      "channel": 4,
      "note": 67,
      "start": 53.4536,
      "duration": 0.0161,
      "velocity": 120,
      "chip": "ym2612"
    },
    {
      "channel": 3,
      "note": 62,
      "start": 53.4548,
      "duration": 0.0161,
      "velocity": 120,
      "chip": "ym2612"
    },
    {
      "channel": 2,
      "note": 50,
      "start": 53.4559,
      "duration": 0.0161,
      "velocity": 100,
      "chip": "ym2612"
    },
    {
      "channel": 1,
      "note": 38,
      "start": 53.4598,
      "duration": 0.0157,
      "velocity": 100,
      "chip": "ym2612"
    },
    {
      "channel": 0,
      "note": 44,
      "start": 53.4685,
      "duration": 0.0161,
      "velocity": 115,
      "chip": "ym2612"
    },
    {
      "channel": 4,
      "note": 67,
      "start": 53.4697,
      "duration": 0.0161,
      "velocity": 120,
      "chip": "ym2612"
    },
    {
      "channel": 3,
      "note": 62,
      "start": 53.4709,
      "duration": 0.0161,
      "velocity": 120,
      "chip": "ym2612"
    },
    {
      "channel": 2,
      "note": 50,
      "start": 53.472,
      "duration": 0.0161,
      "velocity": 100,
      "chip": "ym2612"
    },
    {
      "channel": 1,
      "note": 38,
      "start": 53.4755,
      "duration": 0.0137,
      "velocity": 100,
      "chip": "ym2612"
    },
    {
      "channel": 0,
      "note": 44,
      "start": 53.4846,
      "duration": 0.0161,
      "velocity": 115,
      "chip": "ym2612"
    },
    {
      "channel": 4,
      "note": 67,
      "start": 53.4858,
      "duration": 0.0161,
      "velocity": 120,
      "chip": "ym2612"
    },
    {
      "channel": 3,
      "note": 62,
      "start": 53.4869,
      "duration": 0.0161,
      "velocity": 120,
      "chip": "ym2612"
    },
    {
      "channel": 0,
      "note": 45,
      "start": 53.5007,
      "duration": 0.0161,
      "velocity": 115,
      "chip": "ym2612"
    },
    {
      "channel": 4,
      "note": 67,
      "start": 53.5019,
      "duration": 0.0161,
      "velocity": 120,
      "chip": "ym2612"
    },
    {
      "channel": 3,
      "note": 62,
      "start": 53.503,
      "duration": 0.0161,
      "velocity": 120,
      "chip": "ym2612"
    },
    {
      "channel": 0,
      "note": 45,
      "start": 53.5168,
      "duration": 0.0161,
      "velocity": 115,
      "chip": "ym2612"
    },
    {
      "channel": 4,
      "note": 67,
      "start": 53.518,
      "duration": 0.0161,
      "velocity": 120,
      "chip": "ym2612"
    },
    {
      "channel": 3,
      "note": 62,
      "start": 53.5191,
      "duration": 0.0161,
      "velocity": 120,
      "chip": "ym2612"
    },
    {
      "channel": 0,
      "note": 46,
      "start": 53.5329,
      "duration": 0.0161,
      "velocity": 115,
      "chip": "ym2612"
    },
    {
      "channel": 4,
      "note": 67,
      "start": 53.5341,
      "duration": 0.0161,
      "velocity": 120,
      "chip": "ym2612"
    },
    {
      "channel": 3,
      "note": 62,
      "start": 53.5352,
      "duration": 0.0161,
      "velocity": 120,
      "chip": "ym2612"
    },
    {
      "channel": 0,
      "note": 46,
      "start": 53.549,
      "duration": 0.0179,
      "velocity": 115,
      "chip": "ym2612"
    },
    {
      "channel": 4,
      "note": 67,
      "start": 53.5502,
      "duration": 0.0179,
      "velocity": 120,
      "chip": "ym2612"
    },
    {
      "channel": 3,
      "note": 62,
      "start": 53.5513,
      "duration": 0.018,
      "velocity": 120,
      "chip": "ym2612"
    },
    {
      "channel": 0,
      "note": 36,
      "start": 53.5669,
      "duration": 0.0144,
      "velocity": 115,
      "chip": "ym2612"
    },
    {
      "channel": 4,
      "note": 67,
      "start": 53.5681,
      "duration": 0.0143,
      "velocity": 120,
      "chip": "ym2612"
    },
    {
      "channel": 3,
      "note": 62,
      "start": 53.5693,
      "duration": 0.0144,
      "velocity": 120,
      "chip": "ym2612"
    },
    {
      "channel": 2,
      "note": 50,
      "start": 53.5708,
      "duration": 0.014,
      "velocity": 100,
      "chip": "ym2612"
    },
    {
      "channel": 1,
      "note": 38,
      "start": 53.5724,
      "duration": 0.0136,
      "velocity": 100,
      "chip": "ym2612"
    },
    {
      "channel": 0,
      "note": 36,
      "start": 53.5813,
      "duration": 0.016,
      "velocity": 115,
      "chip": "ym2612"
    },
    {
      "channel": 4,
      "note": 67,
      "start": 53.5824,
      "duration": 0.0161,
      "velocity": 120,
      "chip": "ym2612"
    },
    {
      "channel": 3,
      "note": 62,
      "start": 53.5837,
      "duration": 0.016,
      "velocity": 120,
      "chip": "ym2612"
    },
    {
      "channel": 2,
      "note": 50,
      "start": 53.5848,
      "duration": 0.016,
      "velocity": 100,
      "chip": "ym2612"
    },
    {
      "channel": 1,
      "note": 38,
      "start": 53.586,
      "duration": 0.0159,
      "velocity": 100,
      "chip": "ym2612"
    },
    {
      "channel": 0,
      "note": 37,
      "start": 53.5973,
      "duration": 0.0161,
      "velocity": 115,
      "chip": "ym2612"
    },
    {
      "channel": 4,
      "note": 67,
      "start": 53.5985,
      "duration": 0.0161,
      "velocity": 120,
      "chip": "ym2612"
    },
    {
      "channel": 3,
      "note": 62,
      "start": 53.5997,
      "duration": 0.0161,
      "velocity": 120,
      "chip": "ym2612"
    },
    {
      "channel": 2,
      "note": 50,
      "start": 53.6008,
      "duration": 0.0161,
      "velocity": 100,
      "chip": "ym2612"
    },
    {
      "channel": 1,
      "note": 38,
      "start": 53.6019,
      "duration": 0.0161,
      "velocity": 100,
      "chip": "ym2612"
    },
    {
      "channel": 0,
      "note": 37,
      "start": 53.6134,
      "duration": 0.0161,
      "velocity": 115,
      "chip": "ym2612"
    },
    {
      "channel": 4,
      "note": 67,
      "start": 53.6146,
      "duration": 0.0161,
      "velocity": 120,
      "chip": "ym2612"
    },
    {
      "channel": 3,
      "note": 62,
      "start": 53.6158,
      "duration": 0.0161,
      "velocity": 120,
      "chip": "ym2612"
    },
    {
      "channel": 2,
      "note": 50,
      "start": 53.6169,
      "duration": 0.0161,
      "velocity": 100,
      "chip": "ym2612"
    },
    {
      "channel": 1,
      "note": 38,
      "start": 53.618,
      "duration": 0.0161,
      "velocity": 100,
      "chip": "ym2612"
    },
    {
      "channel": 0,
      "note": 38,
      "start": 53.6295,
      "duration": 0.0161,
      "velocity": 115,
      "chip": "ym2612"
    },
    {
      "channel": 4,
      "note": 67,
      "start": 53.6307,
      "duration": 0.0161,
      "velocity": 120,
      "chip": "ym2612"
    },
    {
      "channel": 3,
      "note": 62,
      "start": 53.6319,
      "duration": 0.0161,
      "velocity": 120,
      "chip": "ym2612"
    },
    {
      "channel": 2,
      "note": 50,
      "start": 53.633,
      "duration": 0.0161,
      "velocity": 100,
      "chip": "ym2612"
    },
    {
      "channel": 1,
      "note": 38,
      "start": 53.6341,
      "duration": 0.0162,
      "velocity": 100,
      "chip": "ym2612"
    },
    {
      "channel": 0,
      "note": 38,
      "start": 53.6456,
      "duration": 0.0161,
      "velocity": 115,
      "chip": "ym2612"
    },
    {
      "channel": 4,
      "note": 67,
      "start": 53.6468,
      "duration": 0.0161,
      "velocity": 120,
      "chip": "ym2612"
    },
    {
      "channel": 3,
      "note": 62,
      "start": 53.648,
      "duration": 0.0161,
      "velocity": 120,
      "chip": "ym2612"
    },
    {
      "channel": 2,
      "note": 50,
      "start": 53.6491,
      "duration": 0.0161,
      "velocity": 100,
      "chip": "ym2612"
    },
    {
      "channel": 1,
      "note": 38,
      "start": 53.6502,
      "duration": 0.0161,
      "velocity": 100,
      "chip": "ym2612"
    },
    {
      "channel": 0,
      "note": 39,
      "start": 53.6617,
      "duration": 0.0161,
      "velocity": 115,
      "chip": "ym2612"
    },
    {
      "channel": 4,
      "note": 67,
      "start": 53.6629,
      "duration": 0.0161,
      "velocity": 120,
      "chip": "ym2612"
    },
    {
      "channel": 3,
      "note": 62,
      "start": 53.6641,
      "duration": 0.0161,
      "velocity": 120,
      "chip": "ym2612"
    },
    {
      "channel": 2,
      "note": 50,
      "start": 53.6652,
      "duration": 0.0161,
      "velocity": 100,
      "chip": "ym2612"
    },
    {
      "channel": 1,
      "note": 38,
      "start": 53.6663,
      "duration": 0.0161,
      "velocity": 100,
      "chip": "ym2612"
    },
    {
      "channel": 0,
      "note": 39,
      "start": 53.6778,
      "duration": 0.0161,
      "velocity": 115,
      "chip": "ym2612"
    },
    {
      "channel": 4,
      "note": 67,
      "start": 53.679,
      "duration": 0.0161,
      "velocity": 120,
      "chip": "ym2612"
    },
    {
      "channel": 3,
      "note": 62,
      "start": 53.6801,
      "duration": 0.0162,
      "velocity": 120,
      "chip": "ym2612"
    },
    {
      "channel": 0,
      "note": 40,
      "start": 53.6939,
      "duration": 0.0168,
      "velocity": 115,
      "chip": "ym2612"
    },
    {
      "channel": 4,
      "note": 67,
      "start": 53.6951,
      "duration": 0.0167,
      "velocity": 120,
      "chip": "ym2612"
    },
    {
      "channel": 3,
      "note": 62,
      "start": 53.6963,
      "duration": 0.0167,
      "velocity": 120,
      "chip": "ym2612"
    },
    {
      "channel": 0,
      "note": 40,
      "start": 53.7107,
      "duration": 0.0167,
      "velocity": 115,
      "chip": "ym2612"
    },
    {
      "channel": 4,
      "note": 67,
      "start": 53.7118,
      "duration": 0.0167,
      "velocity": 120,
      "chip": "ym2612"
    },
    {
      "channel": 3,
      "note": 62,
      "start": 53.713,
      "duration": 0.0167,
      "velocity": 120,
      "chip": "ym2612"
    },
    {
      "channel": 0,
      "note": 40,
      "start": 53.7273,
      "duration": 0.0163,
      "velocity": 115,
      "chip": "ym2612"
    },
    {
      "channel": 4,
      "note": 67,
      "start": 53.7285,
      "duration": 0.0163,
      "velocity": 120,
      "chip": "ym2612"
    },
    {
      "channel": 3,
      "note": 62,
      "start": 53.7297,
      "duration": 0.0163,
      "velocity": 120,
      "chip": "ym2612"
    },
    {
      "channel": 0,
      "note": 41,
      "start": 53.7436,
      "duration": 0.0181,
      "velocity": 115,
      "chip": "ym2612"
    },
    {
      "channel": 4,
      "note": 67,
      "start": 53.7448,
      "duration": 0.0181,
      "velocity": 120,
      "chip": "ym2612"
    },
    {
      "channel": 3,
      "note": 62,
      "start": 53.746,
      "duration": 0.0181,
      "velocity": 120,
      "chip": "ym2612"
    },
    {
      "channel": 1,
      "note": 78,
      "start": 53.76,
      "duration": 0.0171,
      "velocity": 124,
      "chip": "ym2612"
    },
    {
      "channel": 0,
      "note": 41,
      "start": 53.7618,
      "duration": 0.0171,
      "velocity": 115,
      "chip": "ym2612"
    },
    {
      "channel": 4,
      "note": 67,
      "start": 53.763,
      "duration": 0.0171,
      "velocity": 120,
      "chip": "ym2612"
    },
    {
      "channel": 3,
      "note": 62,
      "start": 53.7641,
      "duration": 0.0171,
      "velocity": 120,
      "chip": "ym2612"
    },
    {
      "channel": 2,
      "note": 50,
      "start": 53.7656,
      "duration": 0.0168,
      "velocity": 100,
      "chip": "ym2612"
    },
    {
      "channel": 1,
      "note": 76,
      "start": 53.7771,
      "duration": 0.016,
      "velocity": 124,
      "chip": "ym2612"
    },
    {
      "channel": 0,
      "note": 42,
      "start": 53.7789,
      "duration": 0.016,
      "velocity": 115,
      "chip": "ym2612"
    },
    {
      "channel": 4,
      "note": 67,
      "start": 53.7801,
      "duration": 0.016,
      "velocity": 120,
      "chip": "ym2612"
    },
    {
      "channel": 3,
      "note": 62,
      "start": 53.7812,
      "duration": 0.016,
      "velocity": 120,
      "chip": "ym2612"
    },
    {
      "channel": 2,
      "note": 50,
      "start": 53.7824,
      "duration": 0.016,
      "velocity": 100,
      "chip": "ym2612"
    },
    {
      "channel": 1,
      "note": 75,
      "start": 53.7932,
      "duration": 0.0158,
      "velocity": 124,
      "chip": "ym2612"
    },
    {
      "channel": 0,
      "note": 42,
      "start": 53.7949,
      "duration": 0.0158,
      "velocity": 115,
      "chip": "ym2612"
    },
    {
      "channel": 4,
      "note": 67,
      "start": 53.7961,
      "duration": 0.0158,
      "velocity": 120,
      "chip": "ym2612"
    },
    {
      "channel": 3,
      "note": 62,
      "start": 53.7973,
      "duration": 0.0158,
      "velocity": 120,
      "chip": "ym2612"
    },
    {
      "channel": 2,
      "note": 50,
      "start": 53.7984,
      "duration": 0.0158,
      "velocity": 100,
      "chip": "ym2612"
    },
    {
      "channel": 1,
      "note": 74,
      "start": 53.809,
      "duration": 0.0138,
      "velocity": 124,
      "chip": "ym2612"
    },
    {
      "channel": 0,
      "note": 43,
      "start": 53.8107,
      "duration": 0.014,
      "velocity": 115,
      "chip": "ym2612"
    },
    {
      "channel": 4,
      "note": 67,
      "start": 53.8119,
      "duration": 0.014,
      "velocity": 120,
      "chip": "ym2612"
    },
    {
      "channel": 3,
      "note": 62,
      "start": 53.813,
      "duration": 0.0141,
      "velocity": 120,
      "chip": "ym2612"
    },
    {
      "channel": 2,
      "note": 50,
      "start": 53.8142,
      "duration": 0.0141,
      "velocity": 100,
      "chip": "ym2612"
    },
    {
      "channel": 1,
      "note": 72,
      "start": 53.8228,
      "duration": 0.016,
      "velocity": 124,
      "chip": "ym2612"
    },
    {
      "channel": 0,
      "note": 43,
      "start": 53.8247,
      "duration": 0.0186,
      "velocity": 115,
      "chip": "ym2612"
    },
    {
      "channel": 4,
      "note": 67,
      "start": 53.8259,
      "duration": 0.0186,
      "velocity": 120,
      "chip": "ym2612"
    },
    {
      "channel": 3,
      "note": 62,
      "start": 53.8271,
      "duration": 0.0185,
      "velocity": 120,
      "chip": "ym2612"
    },
    {
      "channel": 2,
      "note": 50,
      "start": 53.8282,
      "duration": 0.0185,
      "velocity": 100,
      "chip": "ym2612"
    },
    {
      "channel": 1,
      "note": 71,
      "start": 53.8387,
      "duration": 0.0161,
      "velocity": 124,
      "chip": "ym2612"
    },
    {
      "channel": 0,
      "note": 44,
      "start": 53.8432,
      "duration": 0.0161,
      "velocity": 115,
      "chip": "ym2612"
    },
    {
      "channel": 4,
      "note": 67,
      "start": 53.8444,
      "duration": 0.0161,
      "velocity": 120,
      "chip": "ym2612"
    },
    {
      "channel": 3,
      "note": 62,
      "start": 53.8456,
      "duration": 0.0161,
      "velocity": 120,
      "chip": "ym2612"
    },
    {
      "channel": 2,
      "note": 50,
      "start": 53.8467,
      "duration": 0.0161,
      "velocity": 100,
      "chip": "ym2612"
    },
    {
      "channel": 1,
      "note": 70,
      "start": 53.8548,
      "duration": 0.0161,
      "velocity": 124,
      "chip": "ym2612"
    },
    {
      "channel": 0,
      "note": 44,
      "start": 53.8593,
      "duration": 0.0157,
      "velocity": 115,
      "chip": "ym2612"
    },
    {
      "channel": 4,
      "note": 67,
      "start": 53.8605,
      "duration": 0.0157,
      "velocity": 120,
      "chip": "ym2612"
    },
    {
      "channel": 3,
      "note": 62,
      "start": 53.8617,
      "duration": 0.0157,
      "velocity": 120,
      "chip": "ym2612"
    },
    {
      "channel": 2,
      "note": 50,
      "start": 53.8628,
      "duration": 0.0157,
      "velocity": 100,
      "chip": "ym2612"
    },
    {
      "channel": 1,
      "note": 69,
      "start": 53.8709,
      "duration": 0.0161,
      "velocity": 124,
      "chip": "ym2612"
    },
    {
      "channel": 0,
      "note": 44,
      "start": 53.8751,
      "duration": 0.0137,
      "velocity": 115,
      "chip": "ym2612"
    },
    {
      "channel": 4,
      "note": 67,
      "start": 53.8763,
      "duration": 0.014,
      "velocity": 120,
      "chip": "ym2612"
    },
    {
      "channel": 3,
      "note": 62,
      "start": 53.8774,
      "duration": 0.0141,
      "velocity": 120,
      "chip": "ym2612"
    },
    {
      "channel": 1,
      "note": 68,
      "start": 53.887,
      "duration": 0.0162,
      "velocity": 124,
      "chip": "ym2612"
    },
    {
      "channel": 0,
      "note": 45,
      "start": 53.8888,
      "duration": 0.0161,
      "velocity": 115,
      "chip": "ym2612"
    },
    {
      "channel": 4,
      "note": 67,
      "start": 53.8902,
      "duration": 0.0186,
      "velocity": 120,
      "chip": "ym2612"
    },
    {
      "channel": 3,
      "note": 62,
      "start": 53.8915,
      "duration": 0.0185,
      "velocity": 120,
      "chip": "ym2612"
    },
    {
      "channel": 1,
      "note": 66,
      "start": 53.9032,
      "duration": 0.0161,
      "velocity": 124,
      "chip": "ym2612"
    },
    {
      "channel": 0,
      "note": 45,
      "start": 53.9049,
      "duration": 0.0161,
      "velocity": 115,
      "chip": "ym2612"
    },
    {
      "channel": 4,
      "note": 67,
      "start": 53.9088,
      "duration": 0.0134,
      "velocity": 120,
      "chip": "ym2612"
    },
    {
      "channel": 3,
      "note": 62,
      "start": 53.91,
      "duration": 0.0161,
      "velocity": 120,
      "chip": "ym2612"
    },
    {
      "channel": 1,
      "note": 65,
      "start": 53.9193,
      "duration": 0.0161,
      "velocity": 124,
      "chip": "ym2612"
    },
    {
      "channel": 0,
      "note": 46,
      "start": 53.921,
      "duration": 0.0161,
      "velocity": 115,
      "chip": "ym2612"
    },
    {
      "channel": 4,
      "note": 67,
      "start": 53.9222,
      "duration": 0.0161,
      "velocity": 120,
      "chip": "ym2612"
    },
    {
      "channel": 3,
      "note": 62,
      "start": 53.9261,
      "duration": 0.0157,
      "velocity": 120,
      "chip": "ym2612"
    },
    {
      "channel": 1,
      "note": 64,
      "start": 53.9354,
      "duration": 0.0161,
      "velocity": 124,
      "chip": "ym2612"
    },
    {
      "channel": 0,
      "note": 46,
      "start": 53.9371,
      "duration": 0.0161,
      "velocity": 115,
      "chip": "ym2612"
    },
    {
      "channel": 4,
      "note": 67,
      "start": 53.9383,
      "duration": 0.0161,
      "velocity": 120,
      "chip": "ym2612"
    },
    {
      "channel": 3,
      "note": 62,
      "start": 53.9418,
      "duration": 0.0138,
      "velocity": 120,
      "chip": "ym2612"
    },
    {
      "channel": 1,
      "note": 62,
      "start": 53.9515,
      "duration": 0.0161,
      "velocity": 124,
      "chip": "ym2612"
    },
    {
      "channel": 0,
      "note": 47,
      "start": 53.9532,
      "duration": 0.0161,
      "velocity": 115,
      "chip": "ym2612"
    },
    {
      "channel": 4,
      "note": 67,
      "start": 53.9544,
      "duration": 0.0161,
      "velocity": 120,
      "chip": "ym2612"
    },
    {
      "channel": 3,
      "note": 62,
      "start": 53.9556,
      "duration": 0.016,
      "velocity": 120,
      "chip": "ym2612"
    },
    {
      "channel": 2,
      "note": 50,
      "start": 53.9574,
      "duration": 0.0181,
      "velocity": 100,
      "chip": "ym2612"
    },
    {
      "channel": 1,
      "note": 61,
      "start": 53.9676,
      "duration": 0.0161,
      "velocity": 124,
      "chip": "ym2612"
    },
    {
      "channel": 0,
      "note": 47,
      "start": 53.9693,
      "duration": 0.0161,
      "velocity": 115,
      "chip": "ym2612"
    },
    {
      "channel": 4,
      "note": 67,
      "start": 53.9705,
      "duration": 0.0161,
      "velocity": 120,
      "chip": "ym2612"
    },
    {
      "channel": 3,
      "note": 62,
      "start": 53.9716,
      "duration": 0.0161,
      "velocity": 120,
      "chip": "ym2612"
    },
    {
      "channel": 2,
      "note": 50,
      "start": 53.9756,
      "duration": 0.0133,
      "velocity": 100,
      "chip": "ym2612"
    },
    {
      "channel": 1,
      "note": 60,
      "start": 53.9837,
      "duration": 0.0161,
      "velocity": 124,
      "chip": "ym2612"
    },
    {
      "channel": 0,
      "note": 47,
      "start": 53.9854,
      "duration": 0.0161,
      "velocity": 115,
      "chip": "ym2612"
    },
    {
      "channel": 4,
      "note": 67,
      "start": 53.9866,
      "duration": 0.0161,
      "velocity": 120,
      "chip": "ym2612"
    },
    {
      "channel": 3,
      "note": 62,
      "start": 53.9877,
      "duration": 0.0161,
      "velocity": 120,
      "chip": "ym2612"
    },
    {
      "channel": 2,
      "note": 50,
      "start": 53.9889,
      "duration": 0.0161,
      "velocity": 100,
      "chip": "ym2612"
    },
    {
      "channel": 1,
      "note": 59,
      "start": 53.9997,
      "duration": 0.0161,
      "velocity": 124,
      "chip": "ym2612"
    },
    {
      "channel": 0,
      "note": 48,
      "start": 54.0015,
      "duration": 0.0161,
      "velocity": 115,
      "chip": "ym2612"
    },
    {
      "channel": 4,
      "note": 67,
      "start": 54.0027,
      "duration": 0.0161,
      "velocity": 120,
      "chip": "ym2612"
    },
    {
      "channel": 3,
      "note": 62,
      "start": 54.0038,
      "duration": 0.0161,
      "velocity": 120,
      "chip": "ym2612"
    },
    {
      "channel": 2,
      "note": 50,
      "start": 54.0049,
      "duration": 0.0161,
      "velocity": 100,
      "chip": "ym2612"
    },
    {
      "channel": 1,
      "note": 57,
      "start": 54.0158,
      "duration": 0.0161,
      "velocity": 124,
      "chip": "ym2612"
    },
    {
      "channel": 0,
      "note": 48,
      "start": 54.0176,
      "duration": 0.0161,
      "velocity": 115,
      "chip": "ym2612"
    },
    {
      "channel": 4,
      "note": 67,
      "start": 54.0188,
      "duration": 0.0161,
      "velocity": 120,
      "chip": "ym2612"
    },
    {
      "channel": 3,
      "note": 62,
      "start": 54.0199,
      "duration": 0.0161,
      "velocity": 120,
      "chip": "ym2612"
    },
    {
      "channel": 2,
      "note": 50,
      "start": 54.021,
      "duration": 0.0161,
      "velocity": 100,
      "chip": "ym2612"
    },
    {
      "channel": 1,
      "note": 56,
      "start": 54.0319,
      "duration": 0.0161,
      "velocity": 124,
      "chip": "ym2612"
    },
    {
      "channel": 0,
      "note": 49,
      "start": 54.0337,
      "duration": 0.0153,
      "velocity": 1,
      "chip": "ym2612"
    },
    {
      "channel": 4,
      "note": 67,
      "start": 54.0349,
      "duration": 0.0153,
      "velocity": 120,
      "chip": "ym2612"
    },
    {
      "channel": 3,
      "note": 62,
      "start": 54.0361,
      "duration": 0.0153,
      "velocity": 120,
      "chip": "ym2612"
    },
    {
      "channel": 2,
      "note": 50,
      "start": 54.0371,
      "duration": 0.0153,
      "velocity": 100,
      "chip": "ym2612"
    },
    {
      "channel": 1,
      "note": 55,
      "start": 54.0481,
      "duration": 0.0161,
      "velocity": 124,
      "chip": "ym2612"
    },
    {
      "channel": 4,
      "note": 67,
      "start": 54.0502,
      "duration": 0.0153,
      "velocity": 120,
      "chip": "ym2612"
    },
    {
      "channel": 3,
      "note": 62,
      "start": 54.0513,
      "duration": 0.0153,
      "velocity": 120,
      "chip": "ym2612"
    },
    {
      "channel": 2,
      "note": 50,
      "start": 54.0525,
      "duration": 0.0153,
      "velocity": 100,
      "chip": "ym2612"
    },
    {
      "channel": 1,
      "note": 53,
      "start": 54.0642,
      "duration": 0.0161,
      "velocity": 124,
      "chip": "ym2612"
    },
    {
      "channel": 4,
      "note": 67,
      "start": 54.0654,
      "duration": 0.0161,
      "velocity": 120,
      "chip": "ym2612"
    },
    {
      "channel": 3,
      "note": 62,
      "start": 54.0666,
      "duration": 0.0161,
      "velocity": 120,
      "chip": "ym2612"
    },
    {
      "channel": 1,
      "note": 52,
      "start": 54.0803,
      "duration": 0.0161,
      "velocity": 124,
      "chip": "ym2612"
    },
    {
      "channel": 4,
      "note": 67,
      "start": 54.0815,
      "duration": 0.0161,
      "velocity": 120,
      "chip": "ym2612"
    },
    {
      "channel": 3,
      "note": 62,
      "start": 54.0827,
      "duration": 0.016,
      "velocity": 120,
      "chip": "ym2612"
    },
    {
      "channel": 1,
      "note": 51,
      "start": 54.0964,
      "duration": 0.0153,
      "velocity": 1,
      "chip": "ym2612"
    },
    {
      "channel": 4,
      "note": 67,
      "start": 54.0976,
      "duration": 0.0153,
      "velocity": 120,
      "chip": "ym2612"
    },
    {
      "channel": 3,
      "note": 62,
      "start": 54.0988,
      "duration": 0.0153,
      "velocity": 120,
      "chip": "ym2612"
    },
    {
      "channel": 4,
      "note": 67,
      "start": 54.1129,
      "duration": 0.0153,
      "velocity": 120,
      "chip": "ym2612"
    },
    {
      "channel": 3,
      "note": 62,
      "start": 54.1141,
      "duration": 0.0153,
      "velocity": 120,
      "chip": "ym2612"
    },
    {
      "channel": 4,
      "note": 67,
      "start": 54.1282,
      "duration": 0.0197,
      "velocity": 120,
      "chip": "ym2612"
    },
    {
      "channel": 3,
      "note": 62,
      "start": 54.1294,
      "duration": 0.02,
      "velocity": 120,
      "chip": "ym2612"
    },
    {
      "channel": 0,
      "note": 36,
      "start": 54.1465,
      "duration": 0.0144,
      "velocity": 115,
      "chip": "ym2612"
    },
    {
      "channel": 4,
      "note": 72,
      "start": 54.148,
      "duration": 0.0142,
      "velocity": 120,
      "chip": "ym2612"
    },
    {
      "channel": 3,
      "note": 67,
      "start": 54.1493,
      "duration": 0.014,
      "velocity": 120,
      "chip": "ym2612"
    },
    {
      "channel": 2,
      "note": 50,
      "start": 54.1509,
      "duration": 0.0136,
      "velocity": 100,
      "chip": "ym2612"
    },
    {
      "channel": 1,
      "note": 38,
      "start": 54.1524,
      "duration": 0.0133,
      "velocity": 100,
      "chip": "ym2612"
    },
    {
      "channel": 0,
      "note": 36,
      "start": 54.1609,
      "duration": 0.0165,
      "velocity": 115,
      "chip": "ym2612"
    },
    {
      "channel": 4,
      "note": 72,
      "start": 54.1621,
      "duration": 0.0163,
      "velocity": 120,
      "chip": "ym2612"
    },
    {
      "channel": 3,
      "note": 67,
      "start": 54.1634,
      "duration": 0.0163,
      "velocity": 120,
      "chip": "ym2612"
    },
    {
      "channel": 2,
      "note": 50,
      "start": 54.1645,
      "duration": 0.0163,
      "velocity": 100,
      "chip": "ym2612"
    },
    {
      "channel": 1,
      "note": 38,
      "start": 54.1657,
      "duration": 0.0162,
      "velocity": 100,
      "chip": "ym2612"
    },
    {
      "channel": 0,
      "note": 37,
      "start": 54.1773,
      "duration": 0.0167,
      "velocity": 115,
      "chip": "ym2612"
    },
    {
      "channel": 4,
      "note": 72,
      "start": 54.1785,
      "duration": 0.0167,
      "velocity": 120,
      "chip": "ym2612"
    },
    {
      "channel": 3,
      "note": 67,
      "start": 54.1796,
      "duration": 0.0167,
      "velocity": 120,
      "chip": "ym2612"
    },
    {
      "channel": 2,
      "note": 50,
      "start": 54.1808,
      "duration": 0.0167,
      "velocity": 100,
      "chip": "ym2612"
    },
    {
      "channel": 1,
      "note": 38,
      "start": 54.1819,
      "duration": 0.0167,
      "velocity": 100,
      "chip": "ym2612"
    },
    {
      "channel": 0,
      "note": 37,
      "start": 54.194,
      "duration": 0.0163,
      "velocity": 115,
      "chip": "ym2612"
    },
    {
      "channel": 4,
      "note": 72,
      "start": 54.1951,
      "duration": 0.0163,
      "velocity": 120,
      "chip": "ym2612"
    },
    {
      "channel": 3,
      "note": 67,
      "start": 54.1963,
      "duration": 0.0163,
      "velocity": 120,
      "chip": "ym2612"
    },
    {
      "channel": 2,
      "note": 50,
      "start": 54.1974,
      "duration": 0.0163,
      "velocity": 100,
      "chip": "ym2612"
    },
    {
      "channel": 1,
      "note": 38,
      "start": 54.1986,
      "duration": 0.0163,
      "velocity": 100,
      "chip": "ym2612"
    },
    {
      "channel": 0,
      "note": 38,
      "start": 54.2103,
      "duration": 0.0149,
      "velocity": 115,
      "chip": "ym2612"
    },
    {
      "channel": 4,
      "note": 72,
      "start": 54.2115,
      "duration": 0.015,
      "velocity": 120,
      "chip": "ym2612"
    },
    {
      "channel": 3,
      "note": 67,
      "start": 54.2127,
      "duration": 0.0149,
      "velocity": 120,
      "chip": "ym2612"
    },
    {
      "channel": 2,
      "note": 50,
      "start": 54.2137,
      "duration": 0.015,
      "velocity": 100,
      "chip": "ym2612"
    },
    {
      "channel": 1,
      "note": 38,
      "start": 54.2149,
      "duration": 0.0149,
      "velocity": 100,
      "chip": "ym2612"
    },
    {
      "channel": 0,
      "note": 38,
      "start": 54.2252,
      "duration": 0.0188,
      "velocity": 115,
      "chip": "ym2612"
    },
    {
      "channel": 4,
      "note": 72,
      "start": 54.2265,
      "duration": 0.0187,
      "velocity": 120,
      "chip": "ym2612"
    },
    {
      "channel": 3,
      "note": 67,
      "start": 54.2276,
      "duration": 0.0187,
      "velocity": 120,
      "chip": "ym2612"
    },
    {
      "channel": 2,
      "note": 50,
      "start": 54.2287,
      "duration": 0.0188,
      "velocity": 100,
      "chip": "ym2612"
    },
    {
      "channel": 1,
      "note": 38,
      "start": 54.2298,
      "duration": 0.0188,
      "velocity": 100,
      "chip": "ym2612"
    },
    {
      "channel": 0,
      "note": 39,
      "start": 54.244,
      "duration": 0.0161,
      "velocity": 115,
      "chip": "ym2612"
    },
    {
      "channel": 4,
      "note": 72,
      "start": 54.2451,
      "duration": 0.0162,
      "velocity": 120,
      "chip": "ym2612"
    },
    {
      "channel": 3,
      "note": 67,
      "start": 54.2463,
      "duration": 0.0162,
      "velocity": 120,
      "chip": "ym2612"
    },
    {
      "channel": 2,
      "note": 50,
      "start": 54.2474,
      "duration": 0.0162,
      "velocity": 100,
      "chip": "ym2612"
    },
    {
      "channel": 1,
      "note": 38,
      "start": 54.2486,
      "duration": 0.0162,
      "velocity": 100,
      "chip": "ym2612"
    },
    {
      "channel": 0,
      "note": 39,
      "start": 54.2602,
      "duration": 0.0158,
      "velocity": 115,
      "chip": "ym2612"
    },
    {
      "channel": 4,
      "note": 72,
      "start": 54.2614,
      "duration": 0.0158,
      "velocity": 120,
      "chip": "ym2612"
    },
    {
      "channel": 3,
      "note": 67,
      "start": 54.2625,
      "duration": 0.0158,
      "velocity": 120,
      "chip": "ym2612"
    },
    {
      "channel": 0,
      "note": 40,
      "start": 54.2759,
      "duration": 0.0141,
      "velocity": 115,
      "chip": "ym2612"
    },
    {
      "channel": 4,
      "note": 72,
      "start": 54.2771,
      "duration": 0.014,
      "velocity": 120,
      "chip": "ym2612"
    },
    {
      "channel": 3,
      "note": 67,
      "start": 54.2783,
      "duration": 0.014,
      "velocity": 120,
      "chip": "ym2612"
    },
    {
      "channel": 0,
      "note": 40,
      "start": 54.29,
      "duration": 0.0158,
      "velocity": 115,
      "chip": "ym2612"
    },
    {
      "channel": 4,
      "note": 72,
      "start": 54.2912,
      "duration": 0.0185,
      "velocity": 120,
      "chip": "ym2612"
    },
    {
      "channel": 3,
      "note": 67,
      "start": 54.2923,
      "duration": 0.0185,
      "velocity": 120,
      "chip": "ym2612"
    },
    {
      "channel": 0,
      "note": 40,
      "start": 54.3058,
      "duration": 0.0161,
      "velocity": 115,
      "chip": "ym2612"
    },
    {
      "channel": 4,
      "note": 72,
      "start": 54.3097,
      "duration": 0.0161,
      "velocity": 120,
      "chip": "ym2612"
    },
    {
      "channel": 3,
      "note": 67,
      "start": 54.3108,
      "duration": 0.0161,
      "velocity": 120,
      "chip": "ym2612"
    },
    {
      "channel": 0,
      "note": 41,
      "start": 54.3219,
      "duration": 0.0161,
      "velocity": 115,
      "chip": "ym2612"
    },
    {
      "channel": 4,
      "note": 72,
      "start": 54.3258,
      "duration": 0.0134,
      "velocity": 120,
      "chip": "ym2612"
    },
    {
      "channel": 3,
      "note": 67,
      "start": 54.3269,
      "duration": 0.0159,
      "velocity": 120,
      "chip": "ym2612"
    },
    {
      "channel": 0,
      "note": 41,
      "start": 54.338,
      "duration": 0.0161,
      "velocity": 115,
      "chip": "ym2612"
    },
    {
      "channel": 4,
      "note": 72,
      "start": 54.3392,
      "duration": 0.0161,
      "velocity": 120,
      "chip": "ym2612"
    },
    {
      "channel": 3,
      "note": 67,
      "start": 54.3427,
      "duration": 0.014,
      "velocity": 120,
      "chip": "ym2612"
    },
    {
      "channel": 2,
      "note": 50,
      "start": 54.3443,
      "duration": 0.0137,
      "velocity": 100,
      "chip": "ym2612"
    },
    {
      "channel": 1,
      "note": 38,
      "start": 54.3458,
      "duration": 0.0134,
      "velocity": 100,
      "chip": "ym2612"
    },
    {
      "channel": 0,
      "note": 42,
      "start": 54.3541,
      "duration": 0.0161,
      "velocity": 115,
      "chip": "ym2612"
    },
    {
      "channel": 4,
      "note": 72,
      "start": 54.3553,
      "duration": 0.0161,
      "velocity": 120,
      "chip": "ym2612"
    },
    {
      "channel": 3,
      "note": 67,
      "start": 54.3567,
      "duration": 0.0158,
      "velocity": 120,
      "chip": "ym2612"
    },
    {
      "channel": 2,
      "note": 50,
      "start": 54.3579,
      "duration": 0.0185,
      "velocity": 100,
      "chip": "ym2612"
    },
    {
      "channel": 1,
      "note": 38,
      "start": 54.3591,
      "duration": 0.0184,
      "velocity": 100,
      "chip": "ym2612"
    },
    {
      "channel": 0,
      "note": 42,
      "start": 54.3702,
      "duration": 0.0161,
      "velocity": 115,
      "chip": "ym2612"
    },
    {
      "channel": 4,
      "note": 72,
      "start": 54.3714,
      "duration": 0.0161,
      "velocity": 120,
      "chip": "ym2612"
    },
    {
      "channel": 3,
      "note": 67,
      "start": 54.3725,
      "duration": 0.0161,
      "velocity": 120,
      "chip": "ym2612"
    },
    {
      "channel": 2,
      "note": 50,
      "start": 54.3764,
      "duration": 0.0161,
      "velocity": 100,
      "chip": "ym2612"
    },
    {
      "channel": 1,
      "note": 38,
      "start": 54.3775,
      "duration": 0.0161,
      "velocity": 100,
      "chip": "ym2612"
    },
    {
      "channel": 0,
      "note": 43,
      "start": 54.3863,
      "duration": 0.0161,
      "velocity": 115,
      "chip": "ym2612"
    },
    {
      "channel": 4,
      "note": 72,
      "start": 54.3875,
      "duration": 0.0161,
      "velocity": 120,
      "chip": "ym2612"
    },
    {
      "channel": 3,
      "note": 67,
      "start": 54.3886,
      "duration": 0.0161,
      "velocity": 120,
      "chip": "ym2612"
    },
    {
      "channel": 2,
      "note": 50,
      "start": 54.3925,
      "duration": 0.0134,
      "velocity": 100,
      "chip": "ym2612"
    },
    {
      "channel": 1,
      "note": 38,
      "start": 54.3936,
      "duration": 0.0157,
      "velocity": 100,
      "chip": "ym2612"
    },
    {
      "channel": 0,
      "note": 43,
      "start": 54.4023,
      "duration": 0.0161,
      "velocity": 115,
      "chip": "ym2612"
    },
    {
      "channel": 4,
      "note": 72,
      "start": 54.4036,
      "duration": 0.0161,
      "velocity": 120,
      "chip": "ym2612"
    },
    {
      "channel": 3,
      "note": 67,
      "start": 54.4047,
      "duration": 0.0161,
      "velocity": 120,
      "chip": "ym2612"
    },
    {
      "channel": 2,
      "note": 50,
      "start": 54.4059,
      "duration": 0.0161,
      "velocity": 100,
      "chip": "ym2612"
    },
    {
      "channel": 1,
      "note": 38,
      "start": 54.4093,
      "duration": 0.0141,
      "velocity": 100,
      "chip": "ym2612"
    },
    {
      "channel": 0,
      "note": 44,
      "start": 54.4184,
      "duration": 0.0161,
      "velocity": 115,
      "chip": "ym2612"
    },
    {
      "channel": 4,
      "note": 72,
      "start": 54.4196,
      "duration": 0.0161,
      "velocity": 120,
      "chip": "ym2612"
    },
    {
      "channel": 3,
      "note": 67,
      "start": 54.4208,
      "duration": 0.0161,
      "velocity": 120,
      "chip": "ym2612"
    },
    {
      "channel": 2,
      "note": 50,
      "start": 54.4219,
      "duration": 0.0161,
      "velocity": 100,
      "chip": "ym2612"
    },
    {
      "channel": 1,
      "note": 38,
      "start": 54.4234,
      "duration": 0.0158,
      "velocity": 100,
      "chip": "ym2612"
    },
    {
      "channel": 0,
      "note": 44,
      "start": 54.4345,
      "duration": 0.0161,
      "velocity": 115,
      "chip": "ym2612"
    },
    {
      "channel": 4,
      "note": 72,
      "start": 54.4357,
      "duration": 0.0161,
      "velocity": 120,
      "chip": "ym2612"
    },
    {
      "channel": 3,
      "note": 67,
      "start": 54.4369,
      "duration": 0.0161,
      "velocity": 120,
      "chip": "ym2612"
    },
    {
      "channel": 2,
      "note": 50,
      "start": 54.438,
      "duration": 0.0161,
      "velocity": 100,
      "chip": "ym2612"
    },
    {
      "channel": 1,
      "note": 38,
      "start": 54.4392,
      "duration": 0.0161,
      "velocity": 100,
      "chip": "ym2612"
    },
    {
      "channel": 0,
      "note": 44,
      "start": 54.4506,
      "duration": 0.0161,
      "velocity": 115,
      "chip": "ym2612"
    },
    {
      "channel": 4,
      "note": 72,
      "start": 54.4518,
      "duration": 0.0161,
      "velocity": 120,
      "chip": "ym2612"
    },
    {
      "channel": 3,
      "note": 67,
      "start": 54.453,
      "duration": 0.0161,
      "velocity": 120,
      "chip": "ym2612"
    },
    {
      "channel": 0,
      "note": 45,
      "start": 54.4668,
      "duration": 0.0161,
      "velocity": 115,
      "chip": "ym2612"
    },
    {
      "channel": 4,
      "note": 72,
      "start": 54.468,
      "duration": 0.0161,
      "velocity": 120,
      "chip": "ym2612"
    },
    {
      "channel": 3,
      "note": 67,
      "start": 54.4691,
      "duration": 0.0161,
      "velocity": 120,
      "chip": "ym2612"
    },
    {
      "channel": 0,
      "note": 45,
      "start": 54.4829,
      "duration": 0.0161,
      "velocity": 115,
      "chip": "ym2612"
    },
    {
      "channel": 4,
      "note": 72,
      "start": 54.4841,
      "duration": 0.0161,
      "velocity": 120,
      "chip": "ym2612"
    },
    {
      "channel": 3,
      "note": 67,
      "start": 54.4852,
      "duration": 0.0161,
      "velocity": 120,
      "chip": "ym2612"
    },
    {
      "channel": 0,
      "note": 46,
      "start": 54.499,
      "duration": 0.0161,
      "velocity": 115,
      "chip": "ym2612"
    },
    {
      "channel": 4,
      "note": 72,
      "start": 54.5002,
      "duration": 0.0161,
      "velocity": 120,
      "chip": "ym2612"
    },
    {
      "channel": 3,
      "note": 67,
      "start": 54.5013,
      "duration": 0.0161,
      "velocity": 120,
      "chip": "ym2612"
    },
    {
      "channel": 0,
      "note": 46,
      "start": 54.5151,
      "duration": 0.0195,
      "velocity": 115,
      "chip": "ym2612"
    },
    {
      "channel": 4,
      "note": 72,
      "start": 54.5163,
      "duration": 0.0195,
      "velocity": 120,
      "chip": "ym2612"
    },
    {
      "channel": 3,
      "note": 67,
      "start": 54.5174,
      "duration": 0.0196,
      "velocity": 120,
      "chip": "ym2612"
    },
    {
      "channel": 1,
      "note": 78,
      "start": 54.5329,
      "duration": 0.0144,
      "velocity": 124,
      "chip": "ym2612"
    },
    {
      "channel": 0,
      "note": 47,
      "start": 54.5346,
      "duration": 0.0144,
      "velocity": 115,
      "chip": "ym2612"
    },
    {
      "channel": 4,
      "note": 72,
      "start": 54.5358,
      "duration": 0.0144,
      "velocity": 120,
      "chip": "ym2612"
    },
    {
      "channel": 3,
      "note": 67,
      "start": 54.537,
      "duration": 0.0143,
      "velocity": 120,
      "chip": "ym2612"
    },
    {
      "channel": 2,
      "note": 50,
      "start": 54.5385,
      "duration": 0.014,
      "velocity": 100,
      "chip": "ym2612"
    },
    {
      "channel": 1,
      "note": 76,
      "start": 54.5473,
      "duration": 0.016,
      "velocity": 124,
      "chip": "ym2612"
    },
    {
      "channel": 0,
      "note": 47,
      "start": 54.549,
      "duration": 0.016,
      "velocity": 115,
      "chip": "ym2612"
    },
    {
      "channel": 4,
      "note": 72,
      "start": 54.5502,
      "duration": 0.016,
      "velocity": 120,
      "chip": "ym2612"
    },
    {
      "channel": 3,
      "note": 67,
      "start": 54.5513,
      "duration": 0.016,
      "velocity": 120,
      "chip": "ym2612"
    },
    {
      "channel": 2,
      "note": 50,
      "start": 54.5525,
      "duration": 0.016,
      "velocity": 100,
      "chip": "ym2612"
    },
    {
      "channel": 1,
      "note": 75,
      "start": 54.5633,
      "duration": 0.0161,
      "velocity": 124,
      "chip": "ym2612"
    },
    {
      "channel": 0,
      "note": 47,
      "start": 54.565,
      "duration": 0.0161,
      "velocity": 115,
      "chip": "ym2612"
    },
    {
      "channel": 4,
      "note": 72,
      "start": 54.5662,
      "duration": 0.0161,
      "velocity": 120,
      "chip": "ym2612"
    },
    {
      "channel": 3,
      "note": 67,
      "start": 54.5673,
      "duration": 0.0161,
      "velocity": 120,
      "chip": "ym2612"
    },
    {
      "channel": 2,
      "note": 50,
      "start": 54.5685,
      "duration": 0.0161,
      "velocity": 100,
      "chip": "ym2612"
    },
    {
      "channel": 1,
      "note": 74,
      "start": 54.5794,
      "duration": 0.0161,
      "velocity": 124,
      "chip": "ym2612"
    },
    {
      "channel": 0,
      "note": 48,
      "start": 54.5811,
      "duration": 0.0162,
      "velocity": 115,
      "chip": "ym2612"
    },
    {
      "channel": 4,
      "note": 72,
      "start": 54.5823,
      "duration": 0.0161,
      "velocity": 120,
      "chip": "ym2612"
    },
    {
      "channel": 3,
      "note": 67,
      "start": 54.5834,
      "duration": 0.0162,
      "velocity": 120,
      "chip": "ym2612"
    },
    {
      "channel": 2,
      "note": 50,
      "start": 54.5846,
      "duration": 0.0161,
      "velocity": 100,
      "chip": "ym2612"
    },
    {
      "channel": 1,
      "note": 72,
      "start": 54.5955,
      "duration": 0.0161,
      "velocity": 124,
      "chip": "ym2612"
    },
    {
      "channel": 0,
      "note": 48,
      "start": 54.5973,
      "duration": 0.0161,
      "velocity": 115,
      "chip": "ym2612"
    },
    {
      "channel": 4,
      "note": 72,
      "start": 54.5985,
      "duration": 0.016,
      "velocity": 120,
      "chip": "ym2612"
    },
    {
      "channel": 3,
      "note": 67,
      "start": 54.5996,
      "duration": 0.0161,
      "velocity": 120,
      "chip": "ym2612"
    },
    {
      "channel": 2,
      "note": 50,
      "start": 54.6007,
      "duration": 0.016,
      "velocity": 100,
      "chip": "ym2612"
    },
    {
      "channel": 1,
      "note": 71,
      "start": 54.6116,
      "duration": 0.0162,
      "velocity": 124,
      "chip": "ym2612"
    },
    {
      "channel": 0,
      "note": 49,
      "start": 54.6134,
      "duration": 0.0153,
      "velocity": 1,
      "chip": "ym2612"
    },
    {
      "channel": 4,
      "note": 72,
      "start": 54.6145,
      "duration": 0.0153,
      "velocity": 120,
      "chip": "ym2612"
    },
    {
      "channel": 3,
      "note": 67,
      "start": 54.6157,
      "duration": 0.0153,
      "velocity": 120,
      "chip": "ym2612"
    },
    {
      "channel": 2,
      "note": 50,
      "start": 54.6168,
      "duration": 0.0153,
      "velocity": 100,
      "chip": "ym2612"
    },
    {
      "channel": 1,
      "note": 70,
      "start": 54.6277,
      "duration": 0.0161,
      "velocity": 124,
      "chip": "ym2612"
    },
    {
      "channel": 4,
      "note": 72,
      "start": 54.6298,
      "duration": 0.0154,
      "velocity": 120,
      "chip": "ym2612"
    },
    {
      "channel": 3,
      "note": 67,
      "start": 54.631,
      "duration": 0.0154,
      "velocity": 120,
      "chip": "ym2612"
    },
    {
      "channel": 2,
      "note": 50,
      "start": 54.6321,
      "duration": 0.0154,
      "velocity": 100,
      "chip": "ym2612"
    },
    {
      "channel": 1,
      "note": 69,
      "start": 54.6439,
      "duration": 0.0167,
      "velocity": 124,
      "chip": "ym2612"
    },
    {
      "channel": 4,
      "note": 72,
      "start": 54.6452,
      "duration": 0.0167,
      "velocity": 120,
      "chip": "ym2612"
    },
    {
      "channel": 3,
      "note": 67,
      "start": 54.6464,
      "duration": 0.0167,
      "velocity": 120,
      "chip": "ym2612"
    },
    {
      "channel": 1,
      "note": 68,
      "start": 54.6605,
      "duration": 0.0163,
      "velocity": 124,
      "chip": "ym2612"
    },
    {
      "channel": 4,
      "note": 72,
      "start": 54.6619,
      "duration": 0.0163,
      "velocity": 120,
      "chip": "ym2612"
    },
    {
      "channel": 3,
      "note": 67,
      "start": 54.663,
      "duration": 0.0163,
      "velocity": 120,
      "chip": "ym2612"
    },
    {
      "channel": 1,
      "note": 66,
      "start": 54.6769,
      "duration": 0.0152,
      "velocity": 124,
      "chip": "ym2612"
    },
    {
      "channel": 4,
      "note": 72,
      "start": 54.6782,
      "duration": 0.0152,
      "velocity": 120,
      "chip": "ym2612"
    },
    {
      "channel": 3,
      "note": 67,
      "start": 54.6793,
      "duration": 0.0152,
      "velocity": 120,
      "chip": "ym2612"
    },
    {
      "channel": 1,
      "note": 65,
      "start": 54.6921,
      "duration": 0.0184,
      "velocity": 124,
      "chip": "ym2612"
    },
    {
      "channel": 4,
      "note": 72,
      "start": 54.6934,
      "duration": 0.0185,
      "velocity": 120,
      "chip": "ym2612"
    },
    {
      "channel": 3,
      "note": 67,
      "start": 54.6945,
      "duration": 0.0185,
      "velocity": 120,
      "chip": "ym2612"
    },
    {
      "channel": 1,
      "note": 64,
      "start": 54.7105,
      "duration": 0.0165,
      "velocity": 124,
      "chip": "ym2612"
    },
    {
      "channel": 4,
      "note": 72,
      "start": 54.7119,
      "duration": 0.0165,
      "velocity": 120,
      "chip": "ym2612"
    },
    {
      "channel": 3,
      "note": 67,
      "start": 54.713,
      "duration": 0.0165,
      "velocity": 120,
      "chip": "ym2612"
    },
    {
      "channel": 1,
      "note": 62,
      "start": 54.727,
      "duration": 0.0158,
      "velocity": 124,
      "chip": "ym2612"
    },
    {
      "channel": 4,
      "note": 72,
      "start": 54.7284,
      "duration": 0.0157,
      "velocity": 120,
      "chip": "ym2612"
    },
    {
      "channel": 3,
      "note": 67,
      "start": 54.7295,
      "duration": 0.0157,
      "velocity": 120,
      "chip": "ym2612"
    },
    {
      "channel": 2,
      "note": 50,
      "start": 54.731,
      "duration": 0.0154,
      "velocity": 100,
      "chip": "ym2612"
    },
    {
      "channel": 1,
      "note": 61,
      "start": 54.7428,
      "duration": 0.014,
      "velocity": 124,
      "chip": "ym2612"
    },
    {
      "channel": 4,
      "note": 72,
      "start": 54.7441,
      "duration": 0.014,
      "velocity": 120,
      "chip": "ym2612"
    },
    {
      "channel": 3,
      "note": 67,
      "start": 54.7452,
      "duration": 0.0141,
      "velocity": 120,
      "chip": "ym2612"
    },
    {
      "channel": 2,
      "note": 50,
      "start": 54.7464,
      "duration": 0.0139,
      "velocity": 100,
      "chip": "ym2612"
    },
    {
      "channel": 1,
      "note": 60,
      "start": 54.7568,
      "duration": 0.0185,
      "velocity": 124,
      "chip": "ym2612"
    },
    {
      "channel": 4,
      "note": 72,
      "start": 54.7581,
      "duration": 0.0186,
      "velocity": 120,
      "chip": "ym2612"
    },
    {
      "channel": 3,
      "note": 67,
      "start": 54.7593,
      "duration": 0.0185,
      "velocity": 120,
      "chip": "ym2612"
    },
    {
      "channel": 2,
      "note": 50,
      "start": 54.7604,
      "duration": 0.0186,
      "velocity": 100,
      "chip": "ym2612"
    },
    {
      "channel": 1,
      "note": 59,
      "start": 54.7753,
      "duration": 0.0134,
      "velocity": 124,
      "chip": "ym2612"
    },
    {
      "channel": 4,
      "note": 72,
      "start": 54.7766,
      "duration": 0.0161,
      "velocity": 120,
      "chip": "ym2612"
    },
    {
      "channel": 3,
      "note": 67,
      "start": 54.7778,
      "duration": 0.0161,
      "velocity": 120,
      "chip": "ym2612"
    },
    {
      "channel": 2,
      "note": 50,
      "start": 54.7789,
      "duration": 0.0161,
      "velocity": 100,
      "chip": "ym2612"
    },
    {
      "channel": 1,
      "note": 57,
      "start": 54.7887,
      "duration": 0.0161,
      "velocity": 124,
      "chip": "ym2612"
    },
    {
      "channel": 4,
      "note": 72,
      "start": 54.7927,
      "duration": 0.0157,
      "velocity": 120,
      "chip": "ym2612"
    },
    {
      "channel": 3,
      "note": 67,
      "start": 54.7939,
      "duration": 0.0158,
      "velocity": 120,
      "chip": "ym2612"
    },
    {
      "channel": 2,
      "note": 50,
      "start": 54.795,
      "duration": 0.0157,
      "velocity": 100,
      "chip": "ym2612"
    },
    {
      "channel": 1,
      "note": 56,
      "start": 54.8048,
      "duration": 0.0161,
      "velocity": 124,
      "chip": "ym2612"
    },
    {
      "channel": 4,
      "note": 72,
      "start": 54.8085,
      "duration": 0.0137,
      "velocity": 120,
      "chip": "ym2612"
    },
    {
      "channel": 3,
      "note": 67,
      "start": 54.8097,
      "duration": 0.014,
      "velocity": 120,
      "chip": "ym2612"
    },
    {
      "channel": 2,
      "note": 50,
      "start": 54.8107,
      "duration": 0.0141,
      "velocity": 100,
      "chip": "ym2612"
    },
    {
      "channel": 1,
      "note": 55,
      "start": 54.8209,
      "duration": 0.0161,
      "velocity": 124,
      "chip": "ym2612"
    },
    {
      "channel": 4,
      "note": 72,
      "start": 54.8222,
      "duration": 0.0161,
      "velocity": 120,
      "chip": "ym2612"
    },
    {
      "channel": 3,
      "note": 67,
      "start": 54.8237,
      "duration": 0.0186,
      "velocity": 120,
      "chip": "ym2612"
    },
    {
      "channel": 2,
      "note": 50,
      "start": 54.8248,
      "duration": 0.0185,
      "velocity": 100,
      "chip": "ym2612"
    },
    {
      "channel": 1,
      "note": 53,
      "start": 54.837,
      "duration": 0.0161,
      "velocity": 124,
      "chip": "ym2612"
    },
    {
      "channel": 4,
      "note": 72,
      "start": 54.8383,
      "duration": 0.0161,
      "velocity": 120,
      "chip": "ym2612"
    },
    {
      "channel": 3,
      "note": 67,
      "start": 54.8422,
      "duration": 0.0134,
      "velocity": 120,
      "chip": "ym2612"
    },
    {
      "channel": 1,
      "note": 52,
      "start": 54.8531,
      "duration": 0.0161,
      "velocity": 124,
      "chip": "ym2612"
    },
    {
      "channel": 4,
      "note": 72,
      "start": 54.8544,
      "duration": 0.0161,
      "velocity": 120,
      "chip": "ym2612"
    },
    {
      "channel": 3,
      "note": 67,
      "start": 54.8556,
      "duration": 0.016,
      "velocity": 120,
      "chip": "ym2612"
    },
    {
      "channel": 1,
      "note": 51,
      "start": 54.8692,
      "duration": 0.0153,
      "velocity": 1,
      "chip": "ym2612"
    },
    {
      "channel": 4,
      "note": 72,
      "start": 54.8705,
      "duration": 0.0153,
      "velocity": 120,
      "chip": "ym2612"
    },
    {
      "channel": 3,
      "note": 67,
      "start": 54.8716,
      "duration": 0.0153,
      "velocity": 120,
      "chip": "ym2612"
    },
    {
      "channel": 4,
      "note": 72,
      "start": 54.8857,
      "duration": 0.0153,
      "velocity": 120,
      "chip": "ym2612"
    },
    {
      "channel": 3,
      "note": 67,
      "start": 54.8869,
      "duration": 0.0153,
      "velocity": 120,
      "chip": "ym2612"
    },
    {
      "channel": 4,
      "note": 72,
      "start": 54.901,
      "duration": 0.0196,
      "velocity": 120,
      "chip": "ym2612"
    },
    {
      "channel": 3,
      "note": 67,
      "start": 54.9022,
      "duration": 0.0195,
      "velocity": 120,
      "chip": "ym2612"
    },
    {
      "channel": 1,
      "note": 78,
      "start": 54.9193,
      "duration": 0.0144,
      "velocity": 124,
      "chip": "ym2612"
    },
    {
      "channel": 4,
      "note": 72,
      "start": 54.9206,
      "duration": 0.0144,
      "velocity": 120,
      "chip": "ym2612"
    },
    {
      "channel": 3,
      "note": 67,
      "start": 54.9217,
      "duration": 0.0144,
      "velocity": 120,
      "chip": "ym2612"
    },
    {
      "channel": 2,
      "note": 50,
      "start": 54.926,
      "duration": 0.0113,
      "velocity": 100,
      "chip": "ym2612"
    },
    {
      "channel": 1,
      "note": 76,
      "start": 54.9337,
      "duration": 0.016,
      "velocity": 124,
      "chip": "ym2612"
    },
    {
      "channel": 4,
      "note": 72,
      "start": 54.935,
      "duration": 0.016,
      "velocity": 120,
      "chip": "ym2612"
    },
    {
      "channel": 3,
      "note": 67,
      "start": 54.9361,
      "duration": 0.016,
      "velocity": 120,
      "chip": "ym2612"
    },
    {
      "channel": 2,
      "note": 50,
      "start": 54.9373,
      "duration": 0.016,
      "velocity": 100,
      "chip": "ym2612"
    },
    {
      "channel": 1,
      "note": 75,
      "start": 54.9497,
      "duration": 0.0161,
      "velocity": 124,
      "chip": "ym2612"
    },
    {
      "channel": 4,
      "note": 72,
      "start": 54.951,
      "duration": 0.0161,
      "velocity": 120,
      "chip": "ym2612"
    },
    {
      "channel": 3,
      "note": 67,
      "start": 54.9522,
      "duration": 0.0161,
      "velocity": 120,
      "chip": "ym2612"
    },
    {
      "channel": 2,
      "note": 50,
      "start": 54.9533,
      "duration": 0.0161,
      "velocity": 100,
      "chip": "ym2612"
    },
    {
      "channel": 1,
      "note": 74,
      "start": 54.9658,
      "duration": 0.0161,
      "velocity": 124,
      "chip": "ym2612"
    },
    {
      "channel": 4,
      "note": 72,
      "start": 54.9671,
      "duration": 0.0161,
      "velocity": 120,
      "chip": "ym2612"
    },
    {
      "channel": 3,
      "note": 67,
      "start": 54.9683,
      "duration": 0.0161,
      "velocity": 120,
      "chip": "ym2612"
    },
    {
      "channel": 2,
      "note": 50,
      "start": 54.9694,
      "duration": 0.0162,
      "velocity": 100,
      "chip": "ym2612"
    },
    {
      "channel": 1,
      "note": 72,
      "start": 54.9819,
      "duration": 0.0161,
      "velocity": 124,
      "chip": "ym2612"
    },
    {
      "channel": 4,
      "note": 72,
      "start": 54.9832,
      "duration": 0.0161,
      "velocity": 120,
      "chip": "ym2612"
    },
    {
      "channel": 3,
      "note": 67,
      "start": 54.9844,
      "duration": 0.016,
      "velocity": 120,
      "chip": "ym2612"
    },
    {
      "channel": 2,
      "note": 50,
      "start": 54.9856,
      "duration": 0.016,
      "velocity": 100,
      "chip": "ym2612"
    },
    {
      "channel": 1,
      "note": 71,
      "start": 54.998,
      "duration": 0.0179,
      "velocity": 124,
      "chip": "ym2612"
    },
    {
      "channel": 4,
      "note": 72,
      "start": 54.9993,
      "duration": 0.0179,
      "velocity": 120,
      "chip": "ym2612"
    },
    {
      "channel": 3,
      "note": 67,
      "start": 55.0004,
      "duration": 0.0179,
      "velocity": 120,
      "chip": "ym2612"
    },
    {
      "channel": 2,
      "note": 50,
      "start": 55.0016,
      "duration": 0.0179,
      "velocity": 100,
      "chip": "ym2612"
    },
    {
      "channel": 1,
      "note": 78,
      "start": 55.0159,
      "duration": 0.0144,
      "velocity": 124,
      "chip": "ym2612"
    },
    {
      "channel": 4,
      "note": 72,
      "start": 55.0172,
      "duration": 0.0144,
      "velocity": 120,
      "chip": "ym2612"
    },
    {
      "channel": 3,
      "note": 67,
      "start": 55.0184,
      "duration": 0.0143,
      "velocity": 120,
      "chip": "ym2612"
    },
    {
      "channel": 2,
      "note": 50,
      "start": 55.0195,
      "duration": 0.0144,
      "velocity": 100,
      "chip": "ym2612"
    },
    {
      "channel": 1,
      "note": 76,
      "start": 55.0303,
      "duration": 0.016,
      "velocity": 124,
      "chip": "ym2612"
    },
    {
      "channel": 4,
      "note": 72,
      "start": 55.0315,
      "duration": 0.0161,
      "velocity": 120,
      "chip": "ym2612"
    },
    {
      "channel": 3,
      "note": 67,
      "start": 55.0327,
      "duration": 0.0161,
      "velocity": 120,
      "chip": "ym2612"
    },
    {
      "channel": 1,
      "note": 75,
      "start": 55.0463,
      "duration": 0.0161,
      "velocity": 124,
      "chip": "ym2612"
    },
    {
      "channel": 4,
      "note": 72,
      "start": 55.0476,
      "duration": 0.0161,
      "velocity": 120,
      "chip": "ym2612"
    },
    {
      "channel": 3,
      "note": 67,
      "start": 55.0488,
      "duration": 0.0161,
      "velocity": 120,
      "chip": "ym2612"
    },
    {
      "channel": 1,
      "note": 74,
      "start": 55.0624,
      "duration": 0.0161,
      "velocity": 124,
      "chip": "ym2612"
    },
    {
      "channel": 4,
      "note": 72,
      "start": 55.0637,
      "duration": 0.0161,
      "velocity": 120,
      "chip": "ym2612"
    },
    {
      "channel": 3,
      "note": 67,
      "start": 55.0649,
      "duration": 0.0161,
      "velocity": 120,
      "chip": "ym2612"
    },
    {
      "channel": 1,
      "note": 72,
      "start": 55.0785,
      "duration": 0.0161,
      "velocity": 124,
      "chip": "ym2612"
    },
    {
      "channel": 4,
      "note": 72,
      "start": 55.0798,
      "duration": 0.0161,
      "velocity": 120,
      "chip": "ym2612"
    },
    {
      "channel": 3,
      "note": 67,
      "start": 55.081,
      "duration": 0.0161,
      "velocity": 120,
      "chip": "ym2612"
    },
    {
      "channel": 1,
      "note": 71,
      "start": 55.0946,
      "duration": 0.0178,
      "velocity": 124,
      "chip": "ym2612"
    },
    {
      "channel": 4,
      "note": 72,
      "start": 55.0959,
      "duration": 0.0181,
      "velocity": 120,
      "chip": "ym2612"
    },
    {
      "channel": 3,
      "note": 67,
      "start": 55.0971,
      "duration": 0.0184,
      "velocity": 120,
      "chip": "ym2612"
    },
    {
      "channel": 1,
      "note": 78,
      "start": 55.1125,
      "duration": 0.0148,
      "velocity": 124,
      "chip": "ym2612"
    },
    {
      "channel": 4,
      "note": 77,
      "start": 55.1141,
      "duration": 0.0146,
      "velocity": 120,
      "chip": "ym2612"
    },
    {
      "channel": 3,
      "note": 72,
      "start": 55.1154,
      "duration": 0.0144,
      "velocity": 120,
      "chip": "ym2612"
    },
    {
      "channel": 2,
      "note": 50,
      "start": 55.117,
      "duration": 0.0141,
      "velocity": 100,
      "chip": "ym2612"
    },
    {
      "channel": 1,
      "note": 76,
      "start": 55.1273,
      "duration": 0.0163,
      "velocity": 124,
      "chip": "ym2612"
    },
    {
      "channel": 4,
      "note": 77,
      "start": 55.1286,
      "duration": 0.0162,
      "velocity": 120,
      "chip": "ym2612"
    },
    {
      "channel": 3,
      "note": 72,
      "start": 55.1298,
      "duration": 0.0162,
      "velocity": 120,
      "chip": "ym2612"
    },
    {
      "channel": 2,
      "note": 50,
      "start": 55.131,
      "duration": 0.0161,
      "velocity": 100,
      "chip": "ym2612"
    },
    {
      "channel": 1,
      "note": 75,
      "start": 55.1436,
      "duration": 0.0155,
      "velocity": 124,
      "chip": "ym2612"
    },
    {
      "channel": 4,
      "note": 77,
      "start": 55.1448,
      "duration": 0.0155,
      "velocity": 120,
      "chip": "ym2612"
    },
    {
      "channel": 3,
      "note": 72,
      "start": 55.146,
      "duration": 0.0154,
      "velocity": 120,
      "chip": "ym2612"
    },
    {
      "channel": 2,
      "note": 50,
      "start": 55.1471,
      "duration": 0.0155,
      "velocity": 100,
      "chip": "ym2612"
    },
    {
      "channel": 1,
      "note": 74,
      "start": 55.159,
      "duration": 0.0182,
      "velocity": 124,
      "chip": "ym2612"
    },
    {
      "channel": 4,
      "note": 77,
      "start": 55.1603,
      "duration": 0.0182,
      "velocity": 120,
      "chip": "ym2612"
    },
    {
      "channel": 3,
      "note": 72,
      "start": 55.1614,
      "duration": 0.0182,
      "velocity": 120,
      "chip": "ym2612"
    },
    {
      "channel": 2,
      "note": 50,
      "start": 55.1626,
      "duration": 0.0182,
      "velocity": 100,
      "chip": "ym2612"
    },
    {
      "channel": 1,
      "note": 72,
      "start": 55.1772,
      "duration": 0.0167,
      "velocity": 124,
      "chip": "ym2612"
    },
    {
      "channel": 4,
      "note": 77,
      "start": 55.1785,
      "duration": 0.0167,
      "velocity": 120,
      "chip": "ym2612"
    },
    {
      "channel": 3,
      "note": 72,
      "start": 55.1796,
      "duration": 0.0167,
      "velocity": 120,
      "chip": "ym2612"
    },
    {
      "channel": 2,
      "note": 50,
      "start": 55.1808,
      "duration": 0.0167,
      "velocity": 100,
      "chip": "ym2612"
    },
    {
      "channel": 1,
      "note": 71,
      "start": 55.1939,
      "duration": 0.0159,
      "velocity": 124,
      "chip": "ym2612"
    },
    {
      "channel": 4,
      "note": 77,
      "start": 55.1951,
      "duration": 0.0159,
      "velocity": 120,
      "chip": "ym2612"
    },
    {
      "channel": 3,
      "note": 72,
      "start": 55.1963,
      "duration": 0.0158,
      "velocity": 120,
      "chip": "ym2612"
    },
    {
      "channel": 2,
      "note": 50,
      "start": 55.1974,
      "duration": 0.0159,
      "velocity": 100,
      "chip": "ym2612"
    },
    {
      "channel": 1,
      "note": 70,
      "start": 55.2097,
      "duration": 0.0141,
      "velocity": 124,
      "chip": "ym2612"
    },
    {
      "channel": 4,
      "note": 77,
      "start": 55.211,
      "duration": 0.014,
      "velocity": 120,
      "chip": "ym2612"
    },
    {
      "channel": 3,
      "note": 72,
      "start": 55.2121,
      "duration": 0.0141,
      "velocity": 120,
      "chip": "ym2612"
    },
    {
      "channel": 2,
      "note": 50,
      "start": 55.2133,
      "duration": 0.014,
      "velocity": 100,
      "chip": "ym2612"
    },
    {
      "channel": 1,
      "note": 69,
      "start": 55.2238,
      "duration": 0.0185,
      "velocity": 124,
      "chip": "ym2612"
    },
    {
      "channel": 4,
      "note": 77,
      "start": 55.225,
      "duration": 0.0186,
      "velocity": 120,
      "chip": "ym2612"
    },
    {
      "channel": 3,
      "note": 72,
      "start": 55.2262,
      "duration": 0.0185,
      "velocity": 120,
      "chip": "ym2612"
    },
    {
      "channel": 1,
      "note": 68,
      "start": 55.2423,
      "duration": 0.0134,
      "velocity": 124,
      "chip": "ym2612"
    },
    {
      "channel": 4,
      "note": 77,
      "start": 55.2436,
      "duration": 0.0161,
      "velocity": 120,
      "chip": "ym2612"
    },
    {
      "channel": 3,
      "note": 72,
      "start": 55.2447,
      "duration": 0.0161,
      "velocity": 120,
      "chip": "ym2612"
    },
    {
      "channel": 1,
      "note": 66,
      "start": 55.2556,
      "duration": 0.0161,
      "velocity": 124,
      "chip": "ym2612"
    },
    {
      "channel": 4,
      "note": 77,
      "start": 55.2597,
      "duration": 0.0157,
      "velocity": 120,
      "chip": "ym2612"
    },
    {
      "channel": 3,
      "note": 72,
      "start": 55.2608,
      "duration": 0.0157,
      "velocity": 120,
      "chip": "ym2612"
    },
    {
      "channel": 1,
      "note": 65,
      "start": 55.2717,
      "duration": 0.0161,
      "velocity": 124,
      "chip": "ym2612"
    },
    {
      "channel": 4,
      "note": 77,
      "start": 55.2754,
      "duration": 0.0137,
      "velocity": 120,
      "chip": "ym2612"
    },
    {
      "channel": 3,
      "note": 72,
      "start": 55.2765,
      "duration": 0.0141,
      "velocity": 120,
      "chip": "ym2612"
    },
    {
      "channel": 1,
      "note": 64,
      "start": 55.2878,
      "duration": 0.0179,
      "velocity": 124,
      "chip": "ym2612"
    },
    {
      "channel": 4,
      "note": 77,
      "start": 55.2891,
      "duration": 0.0207,
      "velocity": 120,
      "chip": "ym2612"
    },
    {
      "channel": 3,
      "note": 72,
      "start": 55.2906,
      "duration": 0.0204,
      "velocity": 120,
      "chip": "ym2612"
    },
    {
      "channel": 1,
      "note": 78,
      "start": 55.3057,
      "duration": 0.0144,
      "velocity": 124,
      "chip": "ym2612"
    },
    {
      "channel": 4,
      "note": 77,
      "start": 55.3098,
      "duration": 0.0116,
      "velocity": 120,
      "chip": "ym2612"
    },
    {
      "channel": 3,
      "note": 72,
      "start": 55.3109,
      "duration": 0.0116,
      "velocity": 120,
      "chip": "ym2612"
    },
    {
      "channel": 2,
      "note": 50,
      "start": 55.3124,
      "duration": 0.0141,
      "velocity": 100,
      "chip": "ym2612"
    },
    {
      "channel": 1,
      "note": 76,
      "start": 55.3201,
      "duration": 0.016,
      "velocity": 124,
      "chip": "ym2612"
    },
    {
      "channel": 4,
      "note": 77,
      "start": 55.3214,
      "duration": 0.0161,
      "velocity": 120,
      "chip": "ym2612"
    },
    {
      "channel": 3,
      "note": 72,
      "start": 55.3226,
      "duration": 0.016,
      "velocity": 120,
      "chip": "ym2612"
    },
    {
      "channel": 2,
      "note": 50,
      "start": 55.3265,
      "duration": 0.0156,
      "velocity": 100,
      "chip": "ym2612"
    },
    {
      "channel": 1,
      "note": 75,
      "start": 55.3361,
      "duration": 0.0161,
      "velocity": 124,
      "chip": "ym2612"
    },
    {
      "channel": 4,
      "note": 77,
      "start": 55.3375,
      "duration": 0.0161,
      "velocity": 120,
      "chip": "ym2612"
    },
    {
      "channel": 3,
      "note": 72,
      "start": 55.3386,
      "duration": 0.0161,
      "velocity": 120,
      "chip": "ym2612"
    },
    {
      "channel": 2,
      "note": 50,
      "start": 55.3421,
      "duration": 0.0137,
      "velocity": 100,
      "chip": "ym2612"
    },
    {
      "channel": 1,
      "note": 74,
      "start": 55.3522,
      "duration": 0.0161,
      "velocity": 124,
      "chip": "ym2612"
    },
    {
      "channel": 4,
      "note": 77,
      "start": 55.3536,
      "duration": 0.0161,
      "velocity": 120,
      "chip": "ym2612"
    },
    {
      "channel": 3,
      "note": 72,
      "start": 55.3547,
      "duration": 0.0161,
      "velocity": 120,
      "chip": "ym2612"
    },
    {
      "channel": 2,
      "note": 50,
      "start": 55.3559,
      "duration": 0.0161,
      "velocity": 100,
      "chip": "ym2612"
    },
    {
      "channel": 1,
      "note": 72,
      "start": 55.3683,
      "duration": 0.0162,
      "velocity": 124,
      "chip": "ym2612"
    },
    {
      "channel": 4,
      "note": 77,
      "start": 55.3696,
      "duration": 0.0161,
      "velocity": 120,
      "chip": "ym2612"
    },
    {
      "channel": 3,
      "note": 72,
      "start": 55.3708,
      "duration": 0.0161,
      "velocity": 120,
      "chip": "ym2612"
    },
    {
      "channel": 2,
      "note": 50,
      "start": 55.3719,
      "duration": 0.0161,
      "velocity": 100,
      "chip": "ym2612"
    },
    {
      "channel": 1,
      "note": 71,
      "start": 55.3845,
      "duration": 0.0178,
      "velocity": 124,
      "chip": "ym2612"
    },
    {
      "channel": 4,
      "note": 77,
      "start": 55.3857,
      "duration": 0.0179,
      "velocity": 120,
      "chip": "ym2612"
    },
    {
      "channel": 3,
      "note": 72,
      "start": 55.3869,
      "duration": 0.0179,
      "velocity": 120,
      "chip": "ym2612"
    },
    {
      "channel": 2,
      "note": 50,
      "start": 55.388,
      "duration": 0.0202,
      "velocity": 100,
      "chip": "ym2612"
    },
    {
      "channel": 1,
      "note": 78,
      "start": 55.4023,
      "duration": 0.0144,
      "velocity": 124,
      "chip": "ym2612"
    },
    {
      "channel": 4,
      "note": 77,
      "start": 55.4036,
      "duration": 0.0144,
      "velocity": 120,
      "chip": "ym2612"
    },
    {
      "channel": 3,
      "note": 72,
      "start": 55.4048,
      "duration": 0.0144,
      "velocity": 120,
      "chip": "ym2612"
    },
    {
      "channel": 2,
      "note": 50,
      "start": 55.4083,
      "duration": 0.012,
      "velocity": 100,
      "chip": "ym2612"
    },
    {
      "channel": 1,
      "note": 76,
      "start": 55.4167,
      "duration": 0.016,
      "velocity": 124,
      "chip": "ym2612"
    },
    {
      "channel": 4,
      "note": 77,
      "start": 55.418,
      "duration": 0.016,
      "velocity": 120,
      "chip": "ym2612"
    },
    {
      "channel": 3,
      "note": 72,
      "start": 55.4191,
      "duration": 0.0161,
      "velocity": 120,
      "chip": "ym2612"
    },
    {
      "channel": 1,
      "note": 75,
      "start": 55.4327,
      "duration": 0.0161,
      "velocity": 124,
      "chip": "ym2612"
    },
    {
      "channel": 4,
      "note": 77,
      "start": 55.434,
      "duration": 0.0161,
      "velocity": 120,
      "chip": "ym2612"
    },
    {
      "channel": 3,
      "note": 72,
      "start": 55.4352,
      "duration": 0.016,
      "velocity": 120,
      "chip": "ym2612"
    },
    {
      "channel": 1,
      "note": 74,
      "start": 55.4488,
      "duration": 0.0161,
      "velocity": 124,
      "chip": "ym2612"
    },
    {
      "channel": 4,
      "note": 77,
      "start": 55.4501,
      "duration": 0.0161,
      "velocity": 120,
      "chip": "ym2612"
    },
    {
      "channel": 3,
      "note": 72,
      "start": 55.4513,
      "duration": 0.0161,
      "velocity": 120,
      "chip": "ym2612"
    },
    {
      "channel": 1,
      "note": 72,
      "start": 55.4649,
      "duration": 0.0161,
      "velocity": 124,
      "chip": "ym2612"
    },
    {
      "channel": 4,
      "note": 77,
      "start": 55.4662,
      "duration": 0.0161,
      "velocity": 120,
      "chip": "ym2612"
    },
    {
      "channel": 3,
      "note": 72,
      "start": 55.4673,
      "duration": 0.0162,
      "velocity": 120,
      "chip": "ym2612"
    },
    {
      "channel": 1,
      "note": 71,
      "start": 55.481,
      "duration": 0.0179,
      "velocity": 124,
      "chip": "ym2612"
    },
    {
      "channel": 4,
      "note": 77,
      "start": 55.4823,
      "duration": 0.0179,
      "velocity": 120,
      "chip": "ym2612"
    },
    {
      "channel": 3,
      "note": 72,
      "start": 55.4835,
      "duration": 0.0179,
      "velocity": 120,
      "chip": "ym2612"
    },
    {
      "channel": 1,
      "note": 78,
      "start": 55.499,
      "duration": 0.0143,
      "velocity": 124,
      "chip": "ym2612"
    },
    {
      "channel": 4,
      "note": 77,
      "start": 55.5002,
      "duration": 0.0143,
      "velocity": 120,
      "chip": "ym2612"
    },
    {
      "channel": 3,
      "note": 72,
      "start": 55.5014,
      "duration": 0.0144,
      "velocity": 120,
      "chip": "ym2612"
    },
    {
      "channel": 2,
      "note": 50,
      "start": 55.5029,
      "duration": 0.014,
      "velocity": 100,
      "chip": "ym2612"
    },
    {
      "channel": 1,
      "note": 76,
      "start": 55.5133,
      "duration": 0.0161,
      "velocity": 124,
      "chip": "ym2612"
    },
    {
      "channel": 4,
      "note": 77,
      "start": 55.5146,
      "duration": 0.0161,
      "velocity": 120,
      "chip": "ym2612"
    },
    {
      "channel": 3,
      "note": 72,
      "start": 55.5158,
      "duration": 0.016,
      "velocity": 120,
      "chip": "ym2612"
    },
    {
      "channel": 2,
      "note": 50,
      "start": 55.5169,
      "duration": 0.016,
      "velocity": 100,
      "chip": "ym2612"
    },
    {
      "channel": 1,
      "note": 75,
      "start": 55.5294,
      "duration": 0.0161,
      "velocity": 124,
      "chip": "ym2612"
    },
    {
      "channel": 4,
      "note": 77,
      "start": 55.5307,
      "duration": 0.0161,
      "velocity": 120,
      "chip": "ym2612"
    },
    {
      "channel": 3,
      "note": 72,
      "start": 55.5318,
      "duration": 0.0161,
      "velocity": 120,
      "chip": "ym2612"
    },
    {
      "channel": 2,
      "note": 50,
      "start": 55.5329,
      "duration": 0.0161,
      "velocity": 100,
      "chip": "ym2612"
    },
    {
      "channel": 1,
      "note": 74,
      "start": 55.5455,
      "duration": 0.0161,
      "velocity": 124,
      "chip": "ym2612"
    },
    {
      "channel": 4,
      "note": 77,
      "start": 55.5467,
      "duration": 0.0161,
      "velocity": 120,
      "chip": "ym2612"
    },
    {
      "channel": 3,
      "note": 72,
      "start": 55.5479,
      "duration": 0.0162,
      "velocity": 120,
      "chip": "ym2612"
    },
    {
      "channel": 2,
      "note": 50,
      "start": 55.549,
      "duration": 0.0162,
      "velocity": 100,
      "chip": "ym2612"
    },
    {
      "channel": 1,
      "note": 72,
      "start": 55.5616,
      "duration": 0.0161,
      "velocity": 124,
      "chip": "ym2612"
    },
    {
      "channel": 4,
      "note": 77,
      "start": 55.5628,
      "duration": 0.0161,
      "velocity": 120,
      "chip": "ym2612"
    },
    {
      "channel": 3,
      "note": 72,
      "start": 55.5641,
      "duration": 0.016,
      "velocity": 120,
      "chip": "ym2612"
    },
    {
      "channel": 2,
      "note": 50,
      "start": 55.5652,
      "duration": 0.016,
      "velocity": 100,
      "chip": "ym2612"
    },
    {
      "channel": 1,
      "note": 71,
      "start": 55.5777,
      "duration": 0.0163,
      "velocity": 124,
      "chip": "ym2612"
    },
    {
      "channel": 4,
      "note": 77,
      "start": 55.5789,
      "duration": 0.0163,
      "velocity": 120,
      "chip": "ym2612"
    },
    {
      "channel": 3,
      "note": 72,
      "start": 55.5801,
      "duration": 0.0163,
      "velocity": 120,
      "chip": "ym2612"
    },
    {
      "channel": 2,
      "note": 50,
      "start": 55.5812,
      "duration": 0.0163,
      "velocity": 100,
      "chip": "ym2612"
    },
    {
      "channel": 1,
      "note": 70,
      "start": 55.5939,
      "duration": 0.0163,
      "velocity": 124,
      "chip": "ym2612"
    },
    {
      "channel": 4,
      "note": 77,
      "start": 55.5952,
      "duration": 0.0163,
      "velocity": 120,
      "chip": "ym2612"
    },
    {
      "channel": 3,
      "note": 72,
      "start": 55.5964,
      "duration": 0.0163,
      "velocity": 120,
      "chip": "ym2612"
    },
    {
      "channel": 2,
      "note": 50,
      "start": 55.5975,
      "duration": 0.0163,
      "velocity": 100,
      "chip": "ym2612"
    },
    {
      "channel": 1,
      "note": 69,
      "start": 55.6102,
      "duration": 0.0157,
      "velocity": 124,
      "chip": "ym2612"
    },
    {
      "channel": 4,
      "note": 77,
      "start": 55.6115,
      "duration": 0.0158,
      "velocity": 120,
      "chip": "ym2612"
    },
    {
      "channel": 3,
      "note": 72,
      "start": 55.6127,
      "duration": 0.0158,
      "velocity": 120,
      "chip": "ym2612"
    },
    {
      "channel": 1,
      "note": 68,
      "start": 55.6259,
      "duration": 0.0179,
      "velocity": 124,
      "chip": "ym2612"
    },
    {
      "channel": 4,
      "note": 77,
      "start": 55.6273,
      "duration": 0.0179,
      "velocity": 120,
      "chip": "ym2612"
    },
    {
      "channel": 3,
      "note": 72,
      "start": 55.6284,
      "duration": 0.0179,
      "velocity": 120,
      "chip": "ym2612"
    },
    {
      "channel": 1,
      "note": 66,
      "start": 55.6439,
      "duration": 0.0167,
      "velocity": 124,
      "chip": "ym2612"
    },
    {
      "channel": 4,
      "note": 77,
      "start": 55.6452,
      "duration": 0.0167,
      "velocity": 120,
      "chip": "ym2612"
    },
    {
      "channel": 3,
      "note": 72,
      "start": 55.6464,
      "duration": 0.0167,
      "velocity": 120,
      "chip": "ym2612"
    },
    {
      "channel": 1,
      "note": 65,
      "start": 55.6605,
      "duration": 0.0161,
      "velocity": 124,
      "chip": "ym2612"
    },
    {
      "channel": 4,
      "note": 77,
      "start": 55.6619,
      "duration": 0.016,
      "velocity": 120,
      "chip": "ym2612"
    },
    {
      "channel": 3,
      "note": 72,
      "start": 55.663,
      "duration": 0.016,
      "velocity": 120,
      "chip": "ym2612"
    },
    {
      "channel": 1,
      "note": 64,
      "start": 55.6766,
      "duration": 0.0141,
      "velocity": 124,
      "chip": "ym2612"
    },
    {
      "channel": 4,
      "note": 77,
      "start": 55.6779,
      "duration": 0.0193,
      "velocity": 97,
      "chip": "ym2612"
    },
    {
      "channel": 3,
      "note": 72,
      "start": 55.6791,
      "duration": 0.0212,
      "velocity": 97,
      "chip": "ym2612"
    },
    {
      "channel": 1,
      "note": 62,
      "start": 55.6907,
      "duration": 0.019,
      "velocity": 124,
      "chip": "ym2612"
    },
    {
      "channel": 0,
      "note": 36,
      "start": 55.6942,
      "duration": 0.0173,
      "velocity": 115,
      "chip": "ym2612"
    },
    {
      "channel": 4,
      "note": 81,
      "start": 55.6973,
      "duration": 0.0155,
      "velocity": 97,
      "chip": "ym2612"
    },
    {
      "channel": 3,
      "note": 84,
      "start": 55.7003,
      "duration": 0.0136,
      "velocity": 97,
      "chip": "ym2612"
    },
    {
      "channel": 2,
      "note": 53,
      "start": 55.7018,
      "duration": 0.0133,
      "velocity": 100,
      "chip": "ym2612"
    },
    {
      "channel": 1,
      "note": 61,
      "start": 55.7097,
      "duration": 0.0128,
      "velocity": 124,
      "chip": "ym2612"
    },
    {
      "channel": 0,
      "note": 36,
      "start": 55.7115,
      "duration": 0.0155,
      "velocity": 115,
      "chip": "ym2612"
    },
    {
      "channel": 4,
      "note": 81,
      "start": 55.7127,
      "duration": 0.0155,
      "velocity": 97,
      "chip": "ym2612"
    },
    {
      "channel": 3,
      "note": 84,
      "start": 55.7139,
      "duration": 0.0155,
      "velocity": 97,
      "chip": "ym2612"
    },
    {
      "channel": 2,
      "note": 53,
      "start": 55.7151,
      "duration": 0.0154,
      "velocity": 100,
      "chip": "ym2612"
    },
    {
      "channel": 1,
      "note": 60,
      "start": 55.7226,
      "duration": 0.0161,
      "velocity": 124,
      "chip": "ym2612"
    },
    {
      "channel": 0,
      "note": 37,
      "start": 55.727,
      "duration": 0.0157,
      "velocity": 115,
      "chip": "ym2612"
    },
    {
      "channel": 4,
      "note": 81,
      "start": 55.7282,
      "duration": 0.0157,
      "velocity": 97,
      "chip": "ym2612"
    },
    {
      "channel": 3,
      "note": 84,
      "start": 55.7294,
      "duration": 0.0157,
      "velocity": 97,
      "chip": "ym2612"
    },
    {
      "channel": 2,
      "note": 53,
      "start": 55.7305,
      "duration": 0.0157,
      "velocity": 100,
      "chip": "ym2612"
    },
    {
      "channel": 1,
      "note": 59,
      "start": 55.7387,
      "duration": 0.0161,
      "velocity": 124,
      "chip": "ym2612"
    },
    {
      "channel": 0,
      "note": 37,
      "start": 55.7427,
      "duration": 0.0141,
      "velocity": 115,
      "chip": "ym2612"
    },
    {
      "channel": 4,
      "note": 81,
      "start": 55.7439,
      "duration": 0.0141,
      "velocity": 97,
      "chip": "ym2612"
    },
    {
      "channel": 3,
      "note": 84,
      "start": 55.7451,
      "duration": 0.014,
      "velocity": 97,
      "chip": "ym2612"
    },
    {
      "channel": 2,
      "note": 53,
      "start": 55.7462,
      "duration": 0.0141,
      "velocity": 100,
      "chip": "ym2612"
    },
    {
      "channel": 1,
      "note": 57,
      "start": 55.7548,
      "duration": 0.0161,
      "velocity": 124,
      "chip": "ym2612"
    },
    {
      "channel": 0,
      "note": 38,
      "start": 55.7568,
      "duration": 0.0185,
      "velocity": 115,
      "chip": "ym2612"
    },
    {
      "channel": 4,
      "note": 81,
      "start": 55.758,
      "duration": 0.0185,
      "velocity": 97,
      "chip": "ym2612"
    },
    {
      "channel": 3,
      "note": 84,
      "start": 55.7591,
      "duration": 0.0185,
      "velocity": 97,
      "chip": "ym2612"
    },
    {
      "channel": 2,
      "note": 53,
      "start": 55.7603,
      "duration": 0.0185,
      "velocity": 100,
      "chip": "ym2612"
    },
    {
      "channel": 1,
      "note": 56,
      "start": 55.7709,
      "duration": 0.0161,
      "velocity": 124,
      "chip": "ym2612"
    },
    {
      "channel": 0,
      "note": 38,
      "start": 55.7753,
      "duration": 0.0134,
      "velocity": 115,
      "chip": "ym2612"
    },
    {
      "channel": 4,
      "note": 81,
      "start": 55.7765,
      "duration": 0.0161,
      "velocity": 97,
      "chip": "ym2612"
    },
    {
      "channel": 3,
      "note": 84,
      "start": 55.7777,
      "duration": 0.0161,
      "velocity": 97,
      "chip": "ym2612"
    },
    {
      "channel": 2,
      "note": 53,
      "start": 55.7788,
      "duration": 0.0161,
      "velocity": 100,
      "chip": "ym2612"
    },
    {
      "channel": 1,
      "note": 55,
      "start": 55.7869,
      "duration": 0.0161,
      "velocity": 124,
      "chip": "ym2612"
    },
    {
      "channel": 0,
      "note": 39,
      "start": 55.7887,
      "duration": 0.0161,
      "velocity": 115,
      "chip": "ym2612"
    },
    {
      "channel": 4,
      "note": 81,
      "start": 55.7926,
      "duration": 0.0157,
      "velocity": 97,
      "chip": "ym2612"
    },
    {
      "channel": 3,
      "note": 84,
      "start": 55.7938,
      "duration": 0.0157,
      "velocity": 97,
      "chip": "ym2612"
    },
    {
      "channel": 2,
      "note": 53,
      "start": 55.7949,
      "duration": 0.0157,
      "velocity": 100,
      "chip": "ym2612"
    },
    {
      "channel": 1,
      "note": 53,
      "start": 55.803,
      "duration": 0.0162,
      "velocity": 124,
      "chip": "ym2612"
    },
    {
      "channel": 0,
      "note": 39,
      "start": 55.8048,
      "duration": 0.0161,
      "velocity": 115,
      "chip": "ym2612"
    },
    {
      "channel": 4,
      "note": 81,
      "start": 55.8083,
      "duration": 0.0137,
      "velocity": 97,
      "chip": "ym2612"
    },
    {
      "channel": 3,
      "note": 84,
      "start": 55.8095,
      "duration": 0.0141,
      "velocity": 97,
      "chip": "ym2612"
    },
    {
      "channel": 2,
      "note": 53,
      "start": 55.8106,
      "duration": 0.0141,
      "velocity": 100,
      "chip": "ym2612"
    },
    {
      "channel": 1,
      "note": 52,
      "start": 55.8192,
      "duration": 0.0161,
      "velocity": 124,
      "chip": "ym2612"
    },
    {
      "channel": 0,
      "note": 40,
      "start": 55.8209,
      "duration": 0.0161,
      "velocity": 115,
      "chip": "ym2612"
    },
    {
      "channel": 4,
      "note": 81,
      "start": 55.8221,
      "duration": 0.0161,
      "velocity": 97,
      "chip": "ym2612"
    },
    {
      "channel": 3,
      "note": 84,
      "start": 55.8235,
      "duration": 0.0186,
      "velocity": 97,
      "chip": "ym2612"
    },
    {
      "channel": 2,
      "note": 53,
      "start": 55.8247,
      "duration": 0.0185,
      "velocity": 100,
      "chip": "ym2612"
    },
    {
      "channel": 1,
      "note": 51,
      "start": 55.8353,
      "duration": 0.0153,
      "velocity": 1,
      "chip": "ym2612"
    },
    {
      "channel": 0,
      "note": 40,
      "start": 55.837,
      "duration": 0.0153,
      "velocity": 115,
      "chip": "ym2612"
    },
    {
      "channel": 4,
      "note": 81,
      "start": 55.8382,
      "duration": 0.0153,
      "velocity": 97,
      "chip": "ym2612"
    },
    {
      "channel": 3,
      "note": 84,
      "start": 55.8421,
      "duration": 0.0125,
      "velocity": 97,
      "chip": "ym2612"
    },
    {
      "channel": 2,
      "note": 53,
      "start": 55.8432,
      "duration": 0.0125,
      "velocity": 100,
      "chip": "ym2612"
    },
    {
      "channel": 0,
      "note": 40,
      "start": 55.8523,
      "duration": 0.0153,
      "velocity": 115,
      "chip": "ym2612"
    },
    {
      "channel": 4,
      "note": 81,
      "start": 55.8534,
      "duration": 0.0153,
      "velocity": 97,
      "chip": "ym2612"
    },
    {
      "channel": 3,
      "note": 84,
      "start": 55.8546,
      "duration": 0.0153,
      "velocity": 97,
      "chip": "ym2612"
    },
    {
      "channel": 0,
      "note": 41,
      "start": 55.8676,
      "duration": 0.0161,
      "velocity": 115,
      "chip": "ym2612"
    },
    {
      "channel": 4,
      "note": 81,
      "start": 55.8687,
      "duration": 0.0162,
      "velocity": 97,
      "chip": "ym2612"
    },
    {
      "channel": 3,
      "note": 84,
      "start": 55.8698,
      "duration": 0.0161,
      "velocity": 97,
      "chip": "ym2612"
    },
    {
      "channel": 0,
      "note": 41,
      "start": 55.8837,
      "duration": 0.0161,
      "velocity": 115,
      "chip": "ym2612"
    },
    {
      "channel": 4,
      "note": 81,
      "start": 55.8849,
      "duration": 0.0161,
      "velocity": 97,
      "chip": "ym2612"
    },
    {
      "channel": 3,
      "note": 84,
      "start": 55.886,
      "duration": 0.0161,
      "velocity": 97,
      "chip": "ym2612"
    },
    {
      "channel": 2,
      "note": 60,
      "start": 55.8874,
      "duration": 0.0159,
      "velocity": 100,
      "chip": "ym2612"
    },
    {
      "channel": 1,
      "note": 48,
      "start": 55.8888,
      "duration": 0.0156,
      "velocity": 100,
      "chip": "ym2612"
    },
    {
      "channel": 0,
      "note": 42,
      "start": 55.8997,
      "duration": 0.0161,
      "velocity": 115,
      "chip": "ym2612"
    },
    {
      "channel": 4,
      "note": 81,
      "start": 55.901,
      "duration": 0.0161,
      "velocity": 97,
      "chip": "ym2612"
    },
    {
      "channel": 3,
      "note": 84,
      "start": 55.9021,
      "duration": 0.0161,
      "velocity": 97,
      "chip": "ym2612"
    },
    {
      "channel": 2,
      "note": 60,
      "start": 55.9033,
      "duration": 0.016,
      "velocity": 100,
      "chip": "ym2612"
    },
    {
      "channel": 1,
      "note": 48,
      "start": 55.9044,
      "duration": 0.016,
      "velocity": 100,
      "chip": "ym2612"
    },
    {
      "channel": 0,
      "note": 42,
      "start": 55.9158,
      "duration": 0.0162,
      "velocity": 115,
      "chip": "ym2612"
    },
    {
      "channel": 4,
      "note": 81,
      "start": 55.917,
      "duration": 0.0161,
      "velocity": 97,
      "chip": "ym2612"
    },
    {
      "channel": 3,
      "note": 84,
      "start": 55.9182,
      "duration": 0.0161,
      "velocity": 97,
      "chip": "ym2612"
    },
    {
      "channel": 2,
      "note": 60,
      "start": 55.9193,
      "duration": 0.0161,
      "velocity": 100,
      "chip": "ym2612"
    },
    {
      "channel": 1,
      "note": 48,
      "start": 55.9205,
      "duration": 0.0161,
      "velocity": 100,
      "chip": "ym2612"
    },
    {
      "channel": 0,
      "note": 43,
      "start": 55.932,
      "duration": 0.0161,
      "velocity": 115,
      "chip": "ym2612"
    },
    {
      "channel": 4,
      "note": 81,
      "start": 55.9331,
      "duration": 0.0161,
      "velocity": 97,
      "chip": "ym2612"
    },
    {
      "channel": 3,
      "note": 84,
      "start": 55.9343,
      "duration": 0.0161,
      "velocity": 97,
      "chip": "ym2612"
    },
    {
      "channel": 2,
      "note": 60,
      "start": 55.9354,
      "duration": 0.0161,
      "velocity": 100,
      "chip": "ym2612"
    },
    {
      "channel": 1,
      "note": 48,
      "start": 55.9366,
      "duration": 0.0161,
      "velocity": 100,
      "chip": "ym2612"
    },
    {
      "channel": 0,
      "note": 43,
      "start": 55.9481,
      "duration": 0.0161,
      "velocity": 115,
      "chip": "ym2612"
    },
    {
      "channel": 4,
      "note": 81,
      "start": 55.9492,
      "duration": 0.0161,
      "velocity": 97,
      "chip": "ym2612"
    },
    {
      "channel": 3,
      "note": 84,
      "start": 55.9504,
      "duration": 0.0161,
      "velocity": 97,
      "chip": "ym2612"
    },
    {
      "channel": 2,
      "note": 60,
      "start": 55.9515,
      "duration": 0.0161,
      "velocity": 100,
      "chip": "ym2612"
    },
    {
      "channel": 1,
      "note": 48,
      "start": 55.9527,
      "duration": 0.0162,
      "velocity": 100,
      "chip": "ym2612"
    },
    {
      "channel": 0,
      "note": 44,
      "start": 55.9642,
      "duration": 0.0161,
      "velocity": 115,
      "chip": "ym2612"
    },
    {
      "channel": 4,
      "note": 81,
      "start": 55.9654,
      "duration": 0.0161,
      "velocity": 97,
      "chip": "ym2612"
    },
    {
      "channel": 3,
      "note": 84,
      "start": 55.9665,
      "duration": 0.0161,
      "velocity": 97,
      "chip": "ym2612"
    },
    {
      "channel": 2,
      "note": 60,
      "start": 55.9677,
      "duration": 0.0161,
      "velocity": 100,
      "chip": "ym2612"
    },
    {
      "channel": 1,
      "note": 48,
      "start": 55.9688,
      "duration": 0.0161,
      "velocity": 100,
      "chip": "ym2612"
    },
    {
      "channel": 0,
      "note": 44,
      "start": 55.9803,
      "duration": 0.0161,
      "velocity": 115,
      "chip": "ym2612"
    },
    {
      "channel": 4,
      "note": 81,
      "start": 55.9815,
      "duration": 0.0161,
      "velocity": 97,
      "chip": "ym2612"
    },
    {
      "channel": 3,
      "note": 84,
      "start": 55.9826,
      "duration": 0.0161,
      "velocity": 97,
      "chip": "ym2612"
    },
    {
      "channel": 2,
      "note": 60,
      "start": 55.9838,
      "duration": 0.0161,
      "velocity": 100,
      "chip": "ym2612"
    },
    {
      "channel": 1,
      "note": 48,
      "start": 55.9849,
      "duration": 0.0161,
      "velocity": 100,
      "chip": "ym2612"
    },
    {
      "channel": 0,
      "note": 44,
      "start": 55.9964,
      "duration": 0.0161,
      "velocity": 115,
      "chip": "ym2612"
    },
    {
      "channel": 4,
      "note": 81,
      "start": 55.9976,
      "duration": 0.0161,
      "velocity": 97,
      "chip": "ym2612"
    },
    {
      "channel": 3,
      "note": 84,
      "start": 55.9987,
      "duration": 0.0161,
      "velocity": 97,
      "chip": "ym2612"
    },
    {
      "channel": 2,
      "note": 60,
      "start": 55.9999,
      "duration": 0.0161,
      "velocity": 100,
      "chip": "ym2612"
    },
    {
      "channel": 1,
      "note": 48,
      "start": 56.001,
      "duration": 0.0161,
      "velocity": 100,
      "chip": "ym2612"
    },
    {
      "channel": 0,
      "note": 45,
      "start": 56.0124,
      "duration": 0.0161,
      "velocity": 115,
      "chip": "ym2612"
    },
    {
      "channel": 4,
      "note": 81,
      "start": 56.0137,
      "duration": 0.0161,
      "velocity": 97,
      "chip": "ym2612"
    },
    {
      "channel": 3,
      "note": 84,
      "start": 56.0148,
      "duration": 0.0161,
      "velocity": 97,
      "chip": "ym2612"
    },
    {
      "channel": 2,
      "note": 60,
      "start": 56.016,
      "duration": 0.0161,
      "velocity": 100,
      "chip": "ym2612"
    },
    {
      "channel": 1,
      "note": 48,
      "start": 56.0171,
      "duration": 0.0161,
      "velocity": 100,
      "chip": "ym2612"
    },
    {
      "channel": 0,
      "note": 45,
      "start": 56.0285,
      "duration": 0.0161,
      "velocity": 115,
      "chip": "ym2612"
    },
    {
      "channel": 4,
      "note": 81,
      "start": 56.0298,
      "duration": 0.0161,
      "velocity": 97,
      "chip": "ym2612"
    },
    {
      "channel": 3,
      "note": 84,
      "start": 56.0309,
      "duration": 0.0161,
      "velocity": 97,
      "chip": "ym2612"
    },
    {
      "channel": 2,
      "note": 60,
      "start": 56.032,
      "duration": 0.0161,
      "velocity": 100,
      "chip": "ym2612"
    },
    {
      "channel": 1,
      "note": 48,
      "start": 56.0332,
      "duration": 0.0161,
      "velocity": 100,
      "chip": "ym2612"
    },
    {
      "channel": 0,
      "note": 46,
      "start": 56.0446,
      "duration": 0.0161,
      "velocity": 115,
      "chip": "ym2612"
    },
    {
      "channel": 4,
      "note": 81,
      "start": 56.0459,
      "duration": 0.0161,
      "velocity": 97,
      "chip": "ym2612"
    },
    {
      "channel": 3,
      "note": 84,
      "start": 56.047,
      "duration": 0.0161,
      "velocity": 97,
      "chip": "ym2612"
    },
    {
      "channel": 0,
      "note": 46,
      "start": 56.0607,
      "duration": 0.0196,
      "velocity": 115,
      "chip": "ym2612"
    },
    {
      "channel": 4,
      "note": 81,
      "start": 56.062,
      "duration": 0.0197,
      "velocity": 97,
      "chip": "ym2612"
    },
    {
      "channel": 3,
      "note": 84,
      "start": 56.0631,
      "duration": 0.0197,
      "velocity": 97,
      "chip": "ym2612"
    },
    {
      "channel": 1,
      "note": 78,
      "start": 56.0787,
      "duration": 0.0142,
      "velocity": 124,
      "chip": "ym2612"
    },
    {
      "channel": 0,
      "note": 47,
      "start": 56.0804,
      "duration": 0.0143,
      "velocity": 115,
      "chip": "ym2612"
    },
    {
      "channel": 4,
      "note": 81,
      "start": 56.0816,
      "duration": 0.0142,
      "velocity": 97,
      "chip": "ym2612"
    },
    {
      "channel": 3,
      "note": 84,
      "start": 56.0827,
      "duration": 0.0143,
      "velocity": 97,
      "chip": "ym2612"
    },
    {
      "channel": 2,
      "note": 65,
      "start": 56.0841,
      "duration": 0.0141,
      "velocity": 100,
      "chip": "ym2612"
    },
    {
      "channel": 1,
      "note": 76,
      "start": 56.0929,
      "duration": 0.0176,
      "velocity": 124,
      "chip": "ym2612"
    },
    {
      "channel": 0,
      "note": 47,
      "start": 56.0946,
      "duration": 0.0177,
      "velocity": 115,
      "chip": "ym2612"
    },
    {
      "channel": 4,
      "note": 81,
      "start": 56.0959,
      "duration": 0.0176,
      "velocity": 97,
      "chip": "ym2612"
    },
    {
      "channel": 3,
      "note": 84,
      "start": 56.0971,
      "duration": 0.0176,
      "velocity": 97,
      "chip": "ym2612"
    },
    {
      "channel": 2,
      "note": 65,
      "start": 56.0982,
      "duration": 0.0176,
      "velocity": 100,
      "chip": "ym2612"
    },
    {
      "channel": 1,
      "note": 75,
      "start": 56.1105,
      "duration": 0.0167,
      "velocity": 124,
      "chip": "ym2612"
    },
    {
      "channel": 0,
      "note": 47,
      "start": 56.1123,
      "duration": 0.0167,
      "velocity": 115,
      "chip": "ym2612"
    },
    {
      "channel": 4,
      "note": 81,
      "start": 56.1135,
      "duration": 0.0167,
      "velocity": 97,
      "chip": "ym2612"
    },
    {
      "channel": 3,
      "note": 84,
      "start": 56.1147,
      "duration": 0.0167,
      "velocity": 97,
      "chip": "ym2612"
    },
    {
      "channel": 2,
      "note": 65,
      "start": 56.1158,
      "duration": 0.0167,
      "velocity": 100,
      "chip": "ym2612"
    },
    {
      "channel": 1,
      "note": 74,
      "start": 56.1272,
      "duration": 0.0163,
      "velocity": 124,
      "chip": "ym2612"
    },
    {
      "channel": 0,
      "note": 48,
      "start": 56.129,
      "duration": 0.0163,
      "velocity": 115,
      "chip": "ym2612"
    },
    {
      "channel": 4,
      "note": 81,
      "start": 56.1301,
      "duration": 0.0163,
      "velocity": 97,
      "chip": "ym2612"
    },
    {
      "channel": 3,
      "note": 84,
      "start": 56.1314,
      "duration": 0.0163,
      "velocity": 97,
      "chip": "ym2612"
    },
    {
      "channel": 2,
      "note": 65,
      "start": 56.1324,
      "duration": 0.0164,
      "velocity": 100,
      "chip": "ym2612"
    },
    {
      "channel": 1,
      "note": 72,
      "start": 56.1436,
      "duration": 0.0141,
      "velocity": 124,
      "chip": "ym2612"
    },
    {
      "channel": 0,
      "note": 48,
      "start": 56.1453,
      "duration": 0.0141,
      "velocity": 115,
      "chip": "ym2612"
    },
    {
      "channel": 4,
      "note": 81,
      "start": 56.1465,
      "duration": 0.0141,
      "velocity": 97,
      "chip": "ym2612"
    },
    {
      "channel": 3,
      "note": 84,
      "start": 56.1477,
      "duration": 0.014,
      "velocity": 97,
      "chip": "ym2612"
    },
    {
      "channel": 2,
      "note": 65,
      "start": 56.1488,
      "duration": 0.014,
      "velocity": 100,
      "chip": "ym2612"
    },
    {
      "channel": 1,
      "note": 71,
      "start": 56.1576,
      "duration": 0.0185,
      "velocity": 124,
      "chip": "ym2612"
    },
    {
      "channel": 0,
      "note": 49,
      "start": 56.1593,
      "duration": 0.0178,
      "velocity": 1,
      "chip": "ym2612"
    },
    {
      "channel": 4,
      "note": 81,
      "start": 56.1605,
      "duration": 0.0178,
      "velocity": 97,
      "chip": "ym2612"
    },
    {
      "channel": 3,
      "note": 84,
      "start": 56.1617,
      "duration": 0.0177,
      "velocity": 97,
      "chip": "ym2612"
    },
    {
      "channel": 2,
      "note": 65,
      "start": 56.1628,
      "duration": 0.0178,
      "velocity": 100,
      "chip": "ym2612"
    },
    {
      "channel": 1,
      "note": 70,
      "start": 56.1761,
      "duration": 0.0161,
      "velocity": 124,
      "chip": "ym2612"
    },
    {
      "channel": 4,
      "note": 81,
      "start": 56.1783,
      "duration": 0.0152,
      "velocity": 97,
      "chip": "ym2612"
    },
    {
      "channel": 3,
      "note": 84,
      "start": 56.1794,
      "duration": 0.0153,
      "velocity": 97,
      "chip": "ym2612"
    },
    {
      "channel": 2,
      "note": 65,
      "start": 56.1806,
      "duration": 0.0152,
      "velocity": 100,
      "chip": "ym2612"
    },
    {
      "channel": 1,
      "note": 69,
      "start": 56.1922,
      "duration": 0.0134,
      "velocity": 124,
      "chip": "ym2612"
    },
    {
      "channel": 4,
      "note": 81,
      "start": 56.1935,
      "duration": 0.0158,
      "velocity": 97,
      "chip": "ym2612"
    },
    {
      "channel": 3,
      "note": 84,
      "start": 56.1947,
      "duration": 0.0157,
      "velocity": 97,
      "chip": "ym2612"
    },
    {
      "channel": 2,
      "note": 65,
      "start": 56.1958,
      "duration": 0.0158,
      "velocity": 100,
      "chip": "ym2612"
    },
    {
      "channel": 1,
      "note": 68,
      "start": 56.2056,
      "duration": 0.0161,
      "velocity": 124,
      "chip": "ym2612"
    },
    {
      "channel": 4,
      "note": 81,
      "start": 56.2093,
      "duration": 0.014,
      "velocity": 97,
      "chip": "ym2612"
    },
    {
      "channel": 3,
      "note": 84,
      "start": 56.2104,
      "duration": 0.0141,
      "velocity": 97,
      "chip": "ym2612"
    },
    {
      "channel": 2,
      "note": 65,
      "start": 56.2116,
      "duration": 0.014,
      "velocity": 100,
      "chip": "ym2612"
    },
    {
      "channel": 1,
      "note": 66,
      "start": 56.2217,
      "duration": 0.0161,
      "velocity": 124,
      "chip": "ym2612"
    },
    {
      "channel": 4,
      "note": 81,
      "start": 56.2233,
      "duration": 0.0158,
      "velocity": 97,
      "chip": "ym2612"
    },
    {
      "channel": 3,
      "note": 84,
      "start": 56.2245,
      "duration": 0.0185,
      "velocity": 97,
      "chip": "ym2612"
    },
    {
      "channel": 2,
      "note": 65,
      "start": 56.2256,
      "duration": 0.0186,
      "velocity": 100,
      "chip": "ym2612"
    },
    {
      "channel": 1,
      "note": 65,
      "start": 56.2378,
      "duration": 0.0161,
      "velocity": 124,
      "chip": "ym2612"
    },
    {
      "channel": 4,
      "note": 81,
      "start": 56.239,
      "duration": 0.0161,
      "velocity": 97,
      "chip": "ym2612"
    },
    {
      "channel": 3,
      "note": 84,
      "start": 56.243,
      "duration": 0.0161,
      "velocity": 97,
      "chip": "ym2612"
    },
    {
      "channel": 1,
      "note": 64,
      "start": 56.2539,
      "duration": 0.0161,
      "velocity": 124,
      "chip": "ym2612"
    },
    {
      "channel": 4,
      "note": 81,
      "start": 56.2551,
      "duration": 0.022,
      "velocity": 97,
      "chip": "ym2612"
    },
    {
      "channel": 3,
      "note": 84,
      "start": 56.2591,
      "duration": 0.0192,
      "velocity": 97,
      "chip": "ym2612"
    },
    {
      "channel": 1,
      "note": 62,
      "start": 56.27,
      "duration": 0.0161,
      "velocity": 124,
      "chip": "ym2612"
    },
    {
      "channel": 0,
      "note": 36,
      "start": 56.2759,
      "duration": 0.012,
      "velocity": 115,
      "chip": "ym2612"
    },
    {
      "channel": 4,
      "note": 81,
      "start": 56.2771,
      "duration": 0.012,
      "velocity": 97,
      "chip": "ym2612"
    },
    {
      "channel": 3,
      "note": 84,
      "start": 56.2783,
      "duration": 0.0123,
      "velocity": 97,
      "chip": "ym2612"
    },
    {
      "channel": 2,
      "note": 63,
      "start": 56.2797,
      "duration": 0.0121,
      "velocity": 100,
      "chip": "ym2612"
    },
    {
      "channel": 1,
      "note": 61,
      "start": 56.2861,
      "duration": 0.0161,
      "velocity": 124,
      "chip": "ym2612"
    },
    {
      "channel": 0,
      "note": 36,
      "start": 56.2879,
      "duration": 0.016,
      "velocity": 115,
      "chip": "ym2612"
    },
    {
      "channel": 4,
      "note": 81,
      "start": 56.2891,
      "duration": 0.016,
      "velocity": 97,
      "chip": "ym2612"
    },
    {
      "channel": 3,
      "note": 84,
      "start": 56.2906,
      "duration": 0.0185,
      "velocity": 97,
      "chip": "ym2612"
    },
    {
      "channel": 2,
      "note": 63,
      "start": 56.2918,
      "duration": 0.0184,
      "velocity": 100,
      "chip": "ym2612"
    },
    {
      "channel": 1,
      "note": 60,
      "start": 56.3022,
      "duration": 0.0161,
      "velocity": 124,
      "chip": "ym2612"
    },
    {
      "channel": 0,
      "note": 37,
      "start": 56.3039,
      "duration": 0.0161,
      "velocity": 115,
      "chip": "ym2612"
    },
    {
      "channel": 4,
      "note": 81,
      "start": 56.3051,
      "duration": 0.0161,
      "velocity": 97,
      "chip": "ym2612"
    },
    {
      "channel": 3,
      "note": 84,
      "start": 56.309,
      "duration": 0.0134,
      "velocity": 97,
      "chip": "ym2612"
    },
    {
      "channel": 2,
      "note": 63,
      "start": 56.3102,
      "duration": 0.0161,
      "velocity": 100,
      "chip": "ym2612"
    },
    {
      "channel": 1,
      "note": 59,
      "start": 56.3183,
      "duration": 0.0161,
      "velocity": 124,
      "chip": "ym2612"
    },
    {
      "channel": 0,
      "note": 37,
      "start": 56.32,
      "duration": 0.0161,
      "velocity": 115,
      "chip": "ym2612"
    },
    {
      "channel": 4,
      "note": 81,
      "start": 56.3212,
      "duration": 0.0161,
      "velocity": 97,
      "chip": "ym2612"
    },
    {
      "channel": 3,
      "note": 84,
      "start": 56.3224,
      "duration": 0.0161,
      "velocity": 97,
      "chip": "ym2612"
    },
    {
      "channel": 2,
      "note": 63,
      "start": 56.3263,
      "duration": 0.0158,
      "velocity": 100,
      "chip": "ym2612"
    },
    {
      "channel": 1,
      "note": 57,
      "start": 56.3344,
      "duration": 0.0161,
      "velocity": 124,
      "chip": "ym2612"
    },
    {
      "channel": 0,
      "note": 38,
      "start": 56.3361,
      "duration": 0.0161,
      "velocity": 115,
      "chip": "ym2612"
    },
    {
      "channel": 4,
      "note": 81,
      "start": 56.3373,
      "duration": 0.0161,
      "velocity": 97,
      "chip": "ym2612"
    },
    {
      "channel": 3,
      "note": 84,
      "start": 56.3385,
      "duration": 0.0161,
      "velocity": 97,
      "chip": "ym2612"
    },
    {
      "channel": 2,
      "note": 63,
      "start": 56.342,
      "duration": 0.0137,
      "velocity": 100,
      "chip": "ym2612"
    },
    {
      "channel": 1,
      "note": 56,
      "start": 56.3505,
      "duration": 0.0161,
      "velocity": 124,
      "chip": "ym2612"
    },
    {
      "channel": 0,
      "note": 38,
      "start": 56.3522,
      "duration": 0.0161,
      "velocity": 115,
      "chip": "ym2612"
    },
    {
      "channel": 4,
      "note": 81,
      "start": 56.3534,
      "duration": 0.0161,
      "velocity": 97,
      "chip": "ym2612"
    },
    {
      "channel": 3,
      "note": 84,
      "start": 56.3546,
      "duration": 0.0161,
      "velocity": 97,
      "chip": "ym2612"
    },
    {
      "channel": 2,
      "note": 63,
      "start": 56.3557,
      "duration": 0.0161,
      "velocity": 100,
      "chip": "ym2612"
    },
    {
      "channel": 1,
      "note": 55,
      "start": 56.3666,
      "duration": 0.0161,
      "velocity": 124,
      "chip": "ym2612"
    },
    {
      "channel": 0,
      "note": 39,
      "start": 56.3683,
      "duration": 0.0161,
      "velocity": 115,
      "chip": "ym2612"
    },
    {
      "channel": 4,
      "note": 81,
      "start": 56.3695,
      "duration": 0.0161,
      "velocity": 97,
      "chip": "ym2612"
    },
    {
      "channel": 3,
      "note": 84,
      "start": 56.3707,
      "duration": 0.0162,
      "velocity": 97,
      "chip": "ym2612"
    },
    {
      "channel": 2,
      "note": 63,
      "start": 56.3718,
      "duration": 0.0161,
      "velocity": 100,
      "chip": "ym2612"
    },
    {
      "channel": 1,
      "note": 53,
      "start": 56.3827,
      "duration": 0.0161,
      "velocity": 124,
      "chip": "ym2612"
    },
    {
      "channel": 0,
      "note": 39,
      "start": 56.3844,
      "duration": 0.0161,
      "velocity": 115,
      "chip": "ym2612"
    },
    {
      "channel": 4,
      "note": 81,
      "start": 56.3856,
      "duration": 0.0161,
      "velocity": 97,
      "chip": "ym2612"
    },
    {
      "channel": 3,
      "note": 84,
      "start": 56.3868,
      "duration": 0.0161,
      "velocity": 97,
      "chip": "ym2612"
    },
    {
      "channel": 2,
      "note": 63,
      "start": 56.3879,
      "duration": 0.0161,
      "velocity": 100,
      "chip": "ym2612"
    },
    {
      "channel": 1,
      "note": 52,
      "start": 56.3988,
      "duration": 0.0162,
      "velocity": 124,
      "chip": "ym2612"
    },
    {
      "channel": 0,
      "note": 40,
      "start": 56.4005,
      "duration": 0.0162,
      "velocity": 115,
      "chip": "ym2612"
    },
    {
      "channel": 4,
      "note": 81,
      "start": 56.4017,
      "duration": 0.0162,
      "velocity": 97,
      "chip": "ym2612"
    },
    {
      "channel": 3,
      "note": 84,
      "start": 56.4029,
      "duration": 0.0161,
      "velocity": 97,
      "chip": "ym2612"
    },
    {
      "channel": 2,
      "note": 63,
      "start": 56.4041,
      "duration": 0.0161,
      "velocity": 100,
      "chip": "ym2612"
    },
    {
      "channel": 1,
      "note": 51,
      "start": 56.4149,
      "duration": 0.0153,
      "velocity": 1,
      "chip": "ym2612"
    },
    {
      "channel": 0,
      "note": 40,
      "start": 56.4167,
      "duration": 0.0153,
      "velocity": 115,
      "chip": "ym2612"
    },
    {
      "channel": 4,
      "note": 81,
      "start": 56.4179,
      "duration": 0.0153,
      "velocity": 97,
      "chip": "ym2612"
    },
    {
      "channel": 3,
      "note": 84,
      "start": 56.419,
      "duration": 0.0153,
      "velocity": 97,
      "chip": "ym2612"
    },
    {
      "channel": 2,
      "note": 63,
      "start": 56.4202,
      "duration": 0.0153,
      "velocity": 100,
      "chip": "ym2612"
    },
    {
      "channel": 0,
      "note": 40,
      "start": 56.4319,
      "duration": 0.0153,
      "velocity": 115,
      "chip": "ym2612"
    },
    {
      "channel": 4,
      "note": 81,
      "start": 56.4331,
      "duration": 0.0153,
      "velocity": 97,
      "chip": "ym2612"
    },
    {
      "channel": 3,
      "note": 84,
      "start": 56.4343,
      "duration": 0.0153,
      "velocity": 97,
      "chip": "ym2612"
    },
    {
      "channel": 0,
      "note": 41,
      "start": 56.4472,
      "duration": 0.0161,
      "velocity": 115,
      "chip": "ym2612"
    },
    {
      "channel": 4,
      "note": 81,
      "start": 56.4484,
      "duration": 0.0161,
      "velocity": 97,
      "chip": "ym2612"
    },
    {
      "channel": 3,
      "note": 84,
      "start": 56.4495,
      "duration": 0.0161,
      "velocity": 97,
      "chip": "ym2612"
    },
    {
      "channel": 0,
      "note": 41,
      "start": 56.4633,
      "duration": 0.0161,
      "velocity": 115,
      "chip": "ym2612"
    },
    {
      "channel": 4,
      "note": 81,
      "start": 56.4645,
      "duration": 0.0161,
      "velocity": 97,
      "chip": "ym2612"
    },
    {
      "channel": 3,
      "note": 84,
      "start": 56.4656,
      "duration": 0.0161,
      "velocity": 97,
      "chip": "ym2612"
    },
    {
      "channel": 0,
      "note": 42,
      "start": 56.4794,
      "duration": 0.0161,
      "velocity": 115,
      "chip": "ym2612"
    },
    {
      "channel": 4,
      "note": 81,
      "start": 56.4806,
      "duration": 0.0161,
      "velocity": 97,
      "chip": "ym2612"
    },
    {
      "channel": 3,
      "note": 84,
      "start": 56.4817,
      "duration": 0.0161,
      "velocity": 97,
      "chip": "ym2612"
    },
    {
      "channel": 0,
      "note": 42,
      "start": 56.4955,
      "duration": 0.0161,
      "velocity": 115,
      "chip": "ym2612"
    },
    {
      "channel": 4,
      "note": 81,
      "start": 56.4967,
      "duration": 0.0161,
      "velocity": 97,
      "chip": "ym2612"
    },
    {
      "channel": 3,
      "note": 84,
      "start": 56.4978,
      "duration": 0.0162,
      "velocity": 97,
      "chip": "ym2612"
    },
    {
      "channel": 0,
      "note": 43,
      "start": 56.5116,
      "duration": 0.0162,
      "velocity": 115,
      "chip": "ym2612"
    },
    {
      "channel": 4,
      "note": 81,
      "start": 56.5128,
      "duration": 0.0162,
      "velocity": 97,
      "chip": "ym2612"
    },
    {
      "channel": 3,
      "note": 84,
      "start": 56.514,
      "duration": 0.0161,
      "velocity": 97,
      "chip": "ym2612"
    },
    {
      "channel": 0,
      "note": 43,
      "start": 56.5277,
      "duration": 0.0161,
      "velocity": 115,
      "chip": "ym2612"
    },
    {
      "channel": 4,
      "note": 81,
      "start": 56.5289,
      "duration": 0.0161,
      "velocity": 97,
      "chip": "ym2612"
    },
    {
      "channel": 3,
      "note": 84,
      "start": 56.5301,
      "duration": 0.0161,
      "velocity": 97,
      "chip": "ym2612"
    },
    {
      "channel": 0,
      "note": 44,
      "start": 56.5438,
      "duration": 0.0161,
      "velocity": 115,
      "chip": "ym2612"
    },
    {
      "channel": 4,
      "note": 81,
      "start": 56.545,
      "duration": 0.0161,
      "velocity": 97,
      "chip": "ym2612"
    },
    {
      "channel": 3,
      "note": 84,
      "start": 56.5462,
      "duration": 0.0161,
      "velocity": 97,
      "chip": "ym2612"
    },
    {
      "channel": 0,
      "note": 44,
      "start": 56.5599,
      "duration": 0.0174,
      "velocity": 115,
      "chip": "ym2612"
    },
    {
      "channel": 4,
      "note": 81,
      "start": 56.5611,
      "duration": 0.0174,
      "velocity": 97,
      "chip": "ym2612"
    },
    {
      "channel": 3,
      "note": 84,
      "start": 56.5623,
      "duration": 0.0174,
      "velocity": 97,
      "chip": "ym2612"
    },
    {
      "channel": 0,
      "note": 44,
      "start": 56.5773,
      "duration": 0.0167,
      "velocity": 115,
      "chip": "ym2612"
    },
    {
      "channel": 4,
      "note": 81,
      "start": 56.5785,
      "duration": 0.0167,
      "velocity": 97,
      "chip": "ym2612"
    },
    {
      "channel": 3,
      "note": 84,
      "start": 56.5797,
      "duration": 0.0167,
      "velocity": 97,
      "chip": "ym2612"
    },
    {
      "channel": 0,
      "note": 45,
      "start": 56.594,
      "duration": 0.0163,
      "velocity": 115,
      "chip": "ym2612"
    },
    {
      "channel": 4,
      "note": 81,
      "start": 56.5952,
      "duration": 0.0163,
      "velocity": 97,
      "chip": "ym2612"
    },
    {
      "channel": 3,
      "note": 84,
      "start": 56.5964,
      "duration": 0.0163,
      "velocity": 97,
      "chip": "ym2612"
    },
    {
      "channel": 0,
      "note": 45,
      "start": 56.6103,
      "duration": 0.0143,
      "velocity": 115,
      "chip": "ym2612"
    },
    {
      "channel": 4,
      "note": 81,
      "start": 56.6115,
      "duration": 0.0143,
      "velocity": 97,
      "chip": "ym2612"
    },
    {
      "channel": 3,
      "note": 84,
      "start": 56.6127,
      "duration": 0.0143,
      "velocity": 97,
      "chip": "ym2612"
    },
    {
      "channel": 0,
      "note": 46,
      "start": 56.6246,
      "duration": 0.0185,
      "velocity": 115,
      "chip": "ym2612"
    },
    {
      "channel": 4,
      "note": 81,
      "start": 56.6258,
      "duration": 0.0185,
      "velocity": 97,
      "chip": "ym2612"
    },
    {
      "channel": 3,
      "note": 84,
      "start": 56.627,
      "duration": 0.0185,
      "velocity": 97,
      "chip": "ym2612"
    },
    {
      "channel": 0,
      "note": 46,
      "start": 56.6431,
      "duration": 0.0179,
      "velocity": 115,
      "chip": "ym2612"
    },
    {
      "channel": 4,
      "note": 81,
      "start": 56.6443,
      "duration": 0.0179,
      "velocity": 97,
      "chip": "ym2612"
    },
    {
      "channel": 3,
      "note": 84,
      "start": 56.6455,
      "duration": 0.0179,
      "velocity": 97,
      "chip": "ym2612"
    },
    {
      "channel": 0,
      "note": 36,
      "start": 56.6611,
      "duration": 0.014,
      "velocity": 115,
      "chip": "ym2612"
    },
    {
      "channel": 4,
      "note": 81,
      "start": 56.6623,
      "duration": 0.014,
      "velocity": 97,
      "chip": "ym2612"
    },
    {
      "channel": 3,
      "note": 84,
      "start": 56.6634,
      "duration": 0.014,
      "velocity": 97,
      "chip": "ym2612"
    },
    {
      "channel": 2,
      "note": 65,
      "start": 56.6648,
      "duration": 0.0137,
      "velocity": 100,
      "chip": "ym2612"
    },
    {
      "channel": 1,
      "note": 53,
      "start": 56.6662,
      "duration": 0.0135,
      "velocity": 100,
      "chip": "ym2612"
    },
    {
      "channel": 0,
      "note": 36,
      "start": 56.6751,
      "duration": 0.0137,
      "velocity": 115,
      "chip": "ym2612"
    },
    {
      "channel": 4,
      "note": 81,
      "start": 56.6763,
      "duration": 0.0139,
      "velocity": 97,
      "chip": "ym2612"
    },
    {
      "channel": 3,
      "note": 84,
      "start": 56.6774,
      "duration": 0.014,
      "velocity": 97,
      "chip": "ym2612"
    },
    {
      "channel": 2,
      "note": 65,
      "start": 56.6785,
      "duration": 0.0139,
      "velocity": 100,
      "chip": "ym2612"
    },
    {
      "channel": 1,
      "note": 53,
      "start": 56.6798,
      "duration": 0.0139,
      "velocity": 100,
      "chip": "ym2612"
    },
    {
      "channel": 0,
      "note": 37,
      "start": 56.6887,
      "duration": 0.0161,
      "velocity": 115,
      "chip": "ym2612"
    },
    {
      "channel": 4,
      "note": 81,
      "start": 56.6902,
      "duration": 0.0186,
      "velocity": 97,
      "chip": "ym2612"
    },
    {
      "channel": 3,
      "note": 84,
      "start": 56.6914,
      "duration": 0.0185,
      "velocity": 97,
      "chip": "ym2612"
    },
    {
      "channel": 2,
      "note": 65,
      "start": 56.6925,
      "duration": 0.0186,
      "velocity": 100,
      "chip": "ym2612"
    },
    {
      "channel": 1,
      "note": 53,
      "start": 56.6936,
      "duration": 0.0186,
      "velocity": 100,
      "chip": "ym2612"
    },
    {
      "channel": 0,
      "note": 37,
      "start": 56.7048,
      "duration": 0.0161,
      "velocity": 115,
      "chip": "ym2612"
    },
    {
      "channel": 4,
      "note": 81,
      "start": 56.7088,
      "duration": 0.0134,
      "velocity": 97,
      "chip": "ym2612"
    },
    {
      "channel": 3,
      "note": 84,
      "start": 56.7099,
      "duration": 0.0161,
      "velocity": 97,
      "chip": "ym2612"
    },
    {
      "channel": 2,
      "note": 65,
      "start": 56.7111,
      "duration": 0.0161,
      "velocity": 100,
      "chip": "ym2612"
    },
    {
      "channel": 1,
      "note": 53,
      "start": 56.7122,
      "duration": 0.0161,
      "velocity": 100,
      "chip": "ym2612"
    },
    {
      "channel": 0,
      "note": 38,
      "start": 56.7209,
      "duration": 0.0161,
      "velocity": 115,
      "chip": "ym2612"
    },
    {
      "channel": 4,
      "note": 81,
      "start": 56.7221,
      "duration": 0.0161,
      "velocity": 97,
      "chip": "ym2612"
    },
    {
      "channel": 3,
      "note": 84,
      "start": 56.726,
      "duration": 0.0157,
      "velocity": 97,
      "chip": "ym2612"
    },
    {
      "channel": 2,
      "note": 65,
      "start": 56.7271,
      "duration": 0.0157,
      "velocity": 100,
      "chip": "ym2612"
    },
    {
      "channel": 1,
      "note": 53,
      "start": 56.7283,
      "duration": 0.0157,
      "velocity": 100,
      "chip": "ym2612"
    },
    {
      "channel": 0,
      "note": 38,
      "start": 56.737,
      "duration": 0.0161,
      "velocity": 115,
      "chip": "ym2612"
    },
    {
      "channel": 4,
      "note": 81,
      "start": 56.7382,
      "duration": 0.0161,
      "velocity": 97,
      "chip": "ym2612"
    },
    {
      "channel": 3,
      "note": 84,
      "start": 56.7417,
      "duration": 0.0137,
      "velocity": 97,
      "chip": "ym2612"
    },
    {
      "channel": 2,
      "note": 65,
      "start": 56.7429,
      "duration": 0.0141,
      "velocity": 100,
      "chip": "ym2612"
    },
    {
      "channel": 1,
      "note": 53,
      "start": 56.744,
      "duration": 0.0141,
      "velocity": 100,
      "chip": "ym2612"
    },
    {
      "channel": 0,
      "note": 39,
      "start": 56.7531,
      "duration": 0.0161,
      "velocity": 115,
      "chip": "ym2612"
    },
    {
      "channel": 4,
      "note": 81,
      "start": 56.7543,
      "duration": 0.0161,
      "velocity": 97,
      "chip": "ym2612"
    },
    {
      "channel": 3,
      "note": 84,
      "start": 56.7555,
      "duration": 0.0161,
      "velocity": 97,
      "chip": "ym2612"
    },
    {
      "channel": 2,
      "note": 65,
      "start": 56.7569,
      "duration": 0.0185,
      "velocity": 100,
      "chip": "ym2612"
    },
    {
      "channel": 1,
      "note": 53,
      "start": 56.7581,
      "duration": 0.0185,
      "velocity": 100,
      "chip": "ym2612"
    },
    {
      "channel": 0,
      "note": 39,
      "start": 56.7692,
      "duration": 0.0161,
      "velocity": 115,
      "chip": "ym2612"
    },
    {
      "channel": 4,
      "note": 81,
      "start": 56.7704,
      "duration": 0.0161,
      "velocity": 97,
      "chip": "ym2612"
    },
    {
      "channel": 3,
      "note": 84,
      "start": 56.7716,
      "duration": 0.0161,
      "velocity": 97,
      "chip": "ym2612"
    },
    {
      "channel": 2,
      "note": 65,
      "start": 56.7754,
      "duration": 0.0134,
      "velocity": 100,
      "chip": "ym2612"
    },
    {
      "channel": 1,
      "note": 53,
      "start": 56.7766,
      "duration": 0.0162,
      "velocity": 100,
      "chip": "ym2612"
    },
    {
      "channel": 0,
      "note": 40,
      "start": 56.7853,
      "duration": 0.0161,
      "velocity": 115,
      "chip": "ym2612"
    },
    {
      "channel": 4,
      "note": 81,
      "start": 56.7865,
      "duration": 0.0161,
      "velocity": 97,
      "chip": "ym2612"
    },
    {
      "channel": 3,
      "note": 84,
      "start": 56.7877,
      "duration": 0.016,
      "velocity": 97,
      "chip": "ym2612"
    },
    {
      "channel": 2,
      "note": 65,
      "start": 56.7889,
      "duration": 0.016,
      "velocity": 100,
      "chip": "ym2612"
    },
    {
      "channel": 1,
      "note": 53,
      "start": 56.7927,
      "duration": 0.0156,
      "velocity": 100,
      "chip": "ym2612"
    },
    {
      "channel": 0,
      "note": 40,
      "start": 56.8014,
      "duration": 0.0162,
      "velocity": 115,
      "chip": "ym2612"
    },
    {
      "channel": 4,
      "note": 81,
      "start": 56.8026,
      "duration": 0.0161,
      "velocity": 97,
      "chip": "ym2612"
    },
    {
      "channel": 3,
      "note": 84,
      "start": 56.8037,
      "duration": 0.0162,
      "velocity": 97,
      "chip": "ym2612"
    },
    {
      "channel": 2,
      "note": 65,
      "start": 56.8049,
      "duration": 0.0161,
      "velocity": 100,
      "chip": "ym2612"
    },
    {
      "channel": 1,
      "note": 53,
      "start": 56.8084,
      "duration": 0.0138,
      "velocity": 100,
      "chip": "ym2612"
    },
    {
      "channel": 0,
      "note": 40,
      "start": 56.8176,
      "duration": 0.0161,
      "velocity": 115,
      "chip": "ym2612"
    },
    {
      "channel": 4,
      "note": 81,
      "start": 56.8187,
      "duration": 0.0161,
      "velocity": 97,
      "chip": "ym2612"
    },
    {
      "channel": 3,
      "note": 84,
      "start": 56.8199,
      "duration": 0.0161,
      "velocity": 97,
      "chip": "ym2612"
    },
    {
      "channel": 0,
      "note": 41,
      "start": 56.8337,
      "duration": 0.0195,
      "velocity": 115,
      "chip": "ym2612"
    },
    {
      "channel": 4,
      "note": 81,
      "start": 56.8348,
      "duration": 0.0196,
      "velocity": 97,
      "chip": "ym2612"
    },
    {
      "channel": 3,
      "note": 84,
      "start": 56.836,
      "duration": 0.0195,
      "velocity": 97,
      "chip": "ym2612"
    },
    {
      "channel": 1,
      "note": 78,
      "start": 56.8515,
      "duration": 0.0144,
      "velocity": 124,
      "chip": "ym2612"
    },
    {
      "channel": 0,
      "note": 41,
      "start": 56.8532,
      "duration": 0.0144,
      "velocity": 115,
      "chip": "ym2612"
    },
    {
      "channel": 4,
      "note": 81,
      "start": 56.8544,
      "duration": 0.0144,
      "velocity": 97,
      "chip": "ym2612"
    },
    {
      "channel": 3,
      "note": 84,
      "start": 56.8555,
      "duration": 0.0144,
      "velocity": 97,
      "chip": "ym2612"
    },
    {
      "channel": 2,
      "note": 60,
      "start": 56.8597,
      "duration": 0.0115,
      "velocity": 100,
      "chip": "ym2612"
    },
    {
      "channel": 1,
      "note": 76,
      "start": 56.8658,
      "duration": 0.016,
      "velocity": 124,
      "chip": "ym2612"
    },
    {
      "channel": 0,
      "note": 42,
      "start": 56.8676,
      "duration": 0.016,
      "velocity": 115,
      "chip": "ym2612"
    },
    {
      "channel": 4,
      "note": 81,
      "start": 56.8688,
      "duration": 0.016,
      "velocity": 97,
      "chip": "ym2612"
    },
    {
      "channel": 3,
      "note": 84,
      "start": 56.8699,
      "duration": 0.016,
      "velocity": 97,
      "chip": "ym2612"
    },
    {
      "channel": 2,
      "note": 60,
      "start": 56.8711,
      "duration": 0.016,
      "velocity": 100,
      "chip": "ym2612"
    },
    {
      "channel": 1,
      "note": 75,
      "start": 56.8819,
      "duration": 0.0161,
      "velocity": 124,
      "chip": "ym2612"
    },
    {
      "channel": 0,
      "note": 42,
      "start": 56.8836,
      "duration": 0.0161,
      "velocity": 115,
      "chip": "ym2612"
    },
    {
      "channel": 4,
      "note": 81,
      "start": 56.8848,
      "duration": 0.0161,
      "velocity": 97,
      "chip": "ym2612"
    },
    {
      "channel": 3,
      "note": 84,
      "start": 56.8859,
      "duration": 0.0161,
      "velocity": 97,
      "chip": "ym2612"
    },
    {
      "channel": 2,
      "note": 60,
      "start": 56.8871,
      "duration": 0.0161,
      "velocity": 100,
      "chip": "ym2612"
    },
    {
      "channel": 1,
      "note": 74,
      "start": 56.898,
      "duration": 0.0161,
      "velocity": 124,
      "chip": "ym2612"
    },
    {
      "channel": 0,
      "note": 43,
      "start": 56.8997,
      "duration": 0.0161,
      "velocity": 115,
      "chip": "ym2612"
    },
    {
      "channel": 4,
      "note": 81,
      "start": 56.9009,
      "duration": 0.0161,
      "velocity": 97,
      "chip": "ym2612"
    },
    {
      "channel": 3,
      "note": 84,
      "start": 56.902,
      "duration": 0.0162,
      "velocity": 97,
      "chip": "ym2612"
    },
    {
      "channel": 2,
      "note": 60,
      "start": 56.9032,
      "duration": 0.0161,
      "velocity": 100,
      "chip": "ym2612"
    },
    {
      "channel": 1,
      "note": 72,
      "start": 56.9141,
      "duration": 0.0161,
      "velocity": 124,
      "chip": "ym2612"
    },
    {
      "channel": 0,
      "note": 43,
      "start": 56.9158,
      "duration": 0.0161,
      "velocity": 115,
      "chip": "ym2612"
    },
    {
      "channel": 4,
      "note": 81,
      "start": 56.917,
      "duration": 0.0161,
      "velocity": 97,
      "chip": "ym2612"
    },
    {
      "channel": 3,
      "note": 84,
      "start": 56.9182,
      "duration": 0.016,
      "velocity": 97,
      "chip": "ym2612"
    },
    {
      "channel": 2,
      "note": 60,
      "start": 56.9193,
      "duration": 0.016,
      "velocity": 100,
      "chip": "ym2612"
    },
    {
      "channel": 1,
      "note": 71,
      "start": 56.9301,
      "duration": 0.0161,
      "velocity": 124,
      "chip": "ym2612"
    },
    {
      "channel": 0,
      "note": 44,
      "start": 56.9319,
      "duration": 0.0161,
      "velocity": 115,
      "chip": "ym2612"
    },
    {
      "channel": 4,
      "note": 81,
      "start": 56.9331,
      "duration": 0.0161,
      "velocity": 97,
      "chip": "ym2612"
    },
    {
      "channel": 3,
      "note": 84,
      "start": 56.9342,
      "duration": 0.0161,
      "velocity": 97,
      "chip": "ym2612"
    },
    {
      "channel": 2,
      "note": 60,
      "start": 56.9354,
      "duration": 0.0161,
      "velocity": 100,
      "chip": "ym2612"
    },
    {
      "channel": 1,
      "note": 70,
      "start": 56.9462,
      "duration": 0.0161,
      "velocity": 124,
      "chip": "ym2612"
    },
    {
      "channel": 0,
      "note": 44,
      "start": 56.948,
      "duration": 0.0161,
      "velocity": 115,
      "chip": "ym2612"
    },
    {
      "channel": 4,
      "note": 81,
      "start": 56.9492,
      "duration": 0.0161,
      "velocity": 97,
      "chip": "ym2612"
    },
    {
      "channel": 3,
      "note": 84,
      "start": 56.9503,
      "duration": 0.0161,
      "velocity": 97,
      "chip": "ym2612"
    },
    {
      "channel": 2,
      "note": 60,
      "start": 56.9515,
      "duration": 0.0161,
      "velocity": 100,
      "chip": "ym2612"
    },
    {
      "channel": 1,
      "note": 69,
      "start": 56.9623,
      "duration": 0.0161,
      "velocity": 124,
      "chip": "ym2612"
    },
    {
      "channel": 0,
      "note": 44,
      "start": 56.9641,
      "duration": 0.0161,
      "velocity": 115,
      "chip": "ym2612"
    },
    {
      "channel": 4,
      "note": 81,
      "start": 56.9653,
      "duration": 0.0161,
      "velocity": 97,
      "chip": "ym2612"
    },
    {
      "channel": 3,
      "note": 84,
      "start": 56.9665,
      "duration": 0.0161,
      "velocity": 97,
      "chip": "ym2612"
    },
    {
      "channel": 2,
      "note": 60,
      "start": 56.9676,
      "duration": 0.0161,
      "velocity": 100,
      "chip": "ym2612"
    },
    {
      "channel": 1,
      "note": 68,
      "start": 56.9784,
      "duration": 0.0161,
      "velocity": 124,
      "chip": "ym2612"
    },
    {
      "channel": 0,
      "note": 45,
      "start": 56.9802,
      "duration": 0.0161,
      "velocity": 115,
      "chip": "ym2612"
    },
    {
      "channel": 4,
      "note": 81,
      "start": 56.9814,
      "duration": 0.0161,
      "velocity": 97,
      "chip": "ym2612"
    },
    {
      "channel": 3,
      "note": 84,
      "start": 56.9826,
      "duration": 0.0161,
      "velocity": 97,
      "chip": "ym2612"
    },
    {
      "channel": 2,
      "note": 60,
      "start": 56.9837,
      "duration": 0.0161,
      "velocity": 100,
      "chip": "ym2612"
    },
    {
      "channel": 1,
      "note": 66,
      "start": 56.9945,
      "duration": 0.0162,
      "velocity": 124,
      "chip": "ym2612"
    },
    {
      "channel": 0,
      "note": 45,
      "start": 56.9963,
      "duration": 0.0161,
      "velocity": 115,
      "chip": "ym2612"
    },
    {
      "channel": 4,
      "note": 81,
      "start": 56.9974,
      "duration": 0.0162,
      "velocity": 97,
      "chip": "ym2612"
    },
    {
      "channel": 3,
      "note": 84,
      "start": 56.9987,
      "duration": 0.0161,
      "velocity": 97,
      "chip": "ym2612"
    },
    {
      "channel": 2,
      "note": 60,
      "start": 56.9997,
      "duration": 0.0162,
      "velocity": 100,
      "chip": "ym2612"
    },
    {
      "channel": 1,
      "note": 65,
      "start": 57.0107,
      "duration": 0.0161,
      "velocity": 124,
      "chip": "ym2612"
    },
    {
      "channel": 0,
      "note": 46,
      "start": 57.0124,
      "duration": 0.0161,
      "velocity": 115,
      "chip": "ym2612"
    },
    {
      "channel": 4,
      "note": 81,
      "start": 57.0136,
      "duration": 0.0161,
      "velocity": 97,
      "chip": "ym2612"
    },
    {
      "channel": 3,
      "note": 84,
      "start": 57.0147,
      "duration": 0.0161,
      "velocity": 97,
      "chip": "ym2612"
    },
    {
      "channel": 1,
      "note": 64,
      "start": 57.0268,
      "duration": 0.0172,
      "velocity": 124,
      "chip": "ym2612"
    },
    {
      "channel": 0,
      "note": 46,
      "start": 57.0285,
      "duration": 0.0189,
      "velocity": 115,
      "chip": "ym2612"
    },
    {
      "channel": 4,
      "note": 81,
      "start": 57.0297,
      "duration": 0.019,
      "velocity": 97,
      "chip": "ym2612"
    },
    {
      "channel": 3,
      "note": 84,
      "start": 57.0308,
      "duration": 0.019,
      "velocity": 97,
      "chip": "ym2612"
    },
    {
      "channel": 1,
      "note": 62,
      "start": 57.0439,
      "duration": 0.0166,
      "velocity": 124,
      "chip": "ym2612"
    },
    {
      "channel": 0,
      "note": 36,
      "start": 57.0474,
      "duration": 0.015,
      "velocity": 115,
      "chip": "ym2612"
    },
    {
      "channel": 4,
      "note": 81,
      "start": 57.0487,
      "duration": 0.0149,
      "velocity": 97,
      "chip": "ym2612"
    },
    {
      "channel": 3,
      "note": 84,
      "start": 57.0498,
      "duration": 0.0149,
      "velocity": 97,
      "chip": "ym2612"
    },
    {
      "channel": 2,
      "note": 56,
      "start": 57.0512,
      "duration": 0.0147,
      "velocity": 100,
      "chip": "ym2612"
    },
    {
      "channel": 1,
      "note": 61,
      "start": 57.0605,
      "duration": 0.0163,
      "velocity": 124,
      "chip": "ym2612"
    },
    {
      "channel": 0,
      "note": 36,
      "start": 57.0624,
      "duration": 0.0162,
      "velocity": 115,
      "chip": "ym2612"
    },
    {
      "channel": 4,
      "note": 81,
      "start": 57.0635,
      "duration": 0.0163,
      "velocity": 97,
      "chip": "ym2612"
    },
    {
      "channel": 3,
      "note": 84,
      "start": 57.0647,
      "duration": 0.0162,
      "velocity": 97,
      "chip": "ym2612"
    },
    {
      "channel": 2,
      "note": 56,
      "start": 57.0659,
      "duration": 0.0162,
      "velocity": 100,
      "chip": "ym2612"
    },
    {
      "channel": 1,
      "note": 60,
      "start": 57.0769,
      "duration": 0.0146,
      "velocity": 124,
      "chip": "ym2612"
    },
    {
      "channel": 0,
      "note": 37,
      "start": 57.0786,
      "duration": 0.0146,
      "velocity": 115,
      "chip": "ym2612"
    },
    {
      "channel": 4,
      "note": 81,
      "start": 57.0798,
      "duration": 0.0146,
      "velocity": 97,
      "chip": "ym2612"
    },
    {
      "channel": 3,
      "note": 84,
      "start": 57.081,
      "duration": 0.0146,
      "velocity": 97,
      "chip": "ym2612"
    },
    {
      "channel": 2,
      "note": 56,
      "start": 57.0821,
      "duration": 0.0146,
      "velocity": 100,
      "chip": "ym2612"
    },
    {
      "channel": 1,
      "note": 59,
      "start": 57.0915,
      "duration": 0.0185,
      "velocity": 124,
      "chip": "ym2612"
    },
    {
      "channel": 0,
      "note": 37,
      "start": 57.0932,
      "duration": 0.0186,
      "velocity": 115,
      "chip": "ym2612"
    },
    {
      "channel": 4,
      "note": 81,
      "start": 57.0944,
      "duration": 0.0185,
      "velocity": 97,
      "chip": "ym2612"
    },
    {
      "channel": 3,
      "note": 84,
      "start": 57.0955,
      "duration": 0.0186,
      "velocity": 97,
      "chip": "ym2612"
    },
    {
      "channel": 2,
      "note": 56,
      "start": 57.0967,
      "duration": 0.0185,
      "velocity": 100,
      "chip": "ym2612"
    },
    {
      "channel": 1,
      "note": 57,
      "start": 57.11,
      "duration": 0.0161,
      "velocity": 124,
      "chip": "ym2612"
    },
    {
      "channel": 0,
      "note": 38,
      "start": 57.1118,
      "duration": 0.0161,
      "velocity": 115,
      "chip": "ym2612"
    },
    {
      "channel": 4,
      "note": 81,
      "start": 57.1129,
      "duration": 0.0161,
      "velocity": 97,
      "chip": "ym2612"
    },
    {
      "channel": 3,
      "note": 84,
      "start": 57.1141,
      "duration": 0.0161,
      "velocity": 97,
      "chip": "ym2612"
    },
    {
      "channel": 2,
      "note": 56,
      "start": 57.1152,
      "duration": 0.0161,
      "velocity": 100,
      "chip": "ym2612"
    },
    {
      "channel": 1,
      "note": 56,
      "start": 57.1261,
      "duration": 0.0158,
      "velocity": 124,
      "chip": "ym2612"
    },
    {
      "channel": 0,
      "note": 38,
      "start": 57.1278,
      "duration": 0.0157,
      "velocity": 115,
      "chip": "ym2612"
    },
    {
      "channel": 4,
      "note": 81,
      "start": 57.129,
      "duration": 0.0158,
      "velocity": 97,
      "chip": "ym2612"
    },
    {
      "channel": 3,
      "note": 84,
      "start": 57.1302,
      "duration": 0.0157,
      "velocity": 97,
      "chip": "ym2612"
    },
    {
      "channel": 2,
      "note": 56,
      "start": 57.1313,
      "duration": 0.0158,
      "velocity": 100,
      "chip": "ym2612"
    },
    {
      "channel": 1,
      "note": 55,
      "start": 57.1418,
      "duration": 0.0137,
      "velocity": 124,
      "chip": "ym2612"
    },
    {
      "channel": 0,
      "note": 39,
      "start": 57.1436,
      "duration": 0.0141,
      "velocity": 115,
      "chip": "ym2612"
    },
    {
      "channel": 4,
      "note": 81,
      "start": 57.1448,
      "duration": 0.0141,
      "velocity": 97,
      "chip": "ym2612"
    },
    {
      "channel": 3,
      "note": 84,
      "start": 57.1459,
      "duration": 0.0141,
      "velocity": 97,
      "chip": "ym2612"
    },
    {
      "channel": 2,
      "note": 56,
      "start": 57.1471,
      "duration": 0.0141,
      "velocity": 100,
      "chip": "ym2612"
    },
    {
      "channel": 1,
      "note": 53,
      "start": 57.1556,
      "duration": 0.0161,
      "velocity": 124,
      "chip": "ym2612"
    },
    {
      "channel": 0,
      "note": 39,
      "start": 57.1576,
      "duration": 0.0185,
      "velocity": 115,
      "chip": "ym2612"
    },
    {
      "channel": 4,
      "note": 81,
      "start": 57.1588,
      "duration": 0.0185,
      "velocity": 97,
      "chip": "ym2612"
    },
    {
      "channel": 3,
      "note": 84,
      "start": 57.16,
      "duration": 0.0186,
      "velocity": 97,
      "chip": "ym2612"
    },
    {
      "channel": 2,
      "note": 56,
      "start": 57.1611,
      "duration": 0.0186,
      "velocity": 100,
      "chip": "ym2612"
    },
    {
      "channel": 1,
      "note": 52,
      "start": 57.1717,
      "duration": 0.0161,
      "velocity": 124,
      "chip": "ym2612"
    },
    {
      "channel": 0,
      "note": 40,
      "start": 57.1761,
      "duration": 0.0161,
      "velocity": 115,
      "chip": "ym2612"
    },
    {
      "channel": 4,
      "note": 81,
      "start": 57.1773,
      "duration": 0.0161,
      "velocity": 97,
      "chip": "ym2612"
    },
    {
      "channel": 3,
      "note": 84,
      "start": 57.1785,
      "duration": 0.016,
      "velocity": 97,
      "chip": "ym2612"
    },
    {
      "channel": 2,
      "note": 56,
      "start": 57.1797,
      "duration": 0.016,
      "velocity": 100,
      "chip": "ym2612"
    },
    {
      "channel": 1,
      "note": 51,
      "start": 57.1878,
      "duration": 0.0153,
      "velocity": 1,
      "chip": "ym2612"
    },
    {
      "channel": 0,
      "note": 40,
      "start": 57.1922,
      "duration": 0.0125,
      "velocity": 115,
      "chip": "ym2612"
    },
    {
      "channel": 4,
      "note": 81,
      "start": 57.1934,
      "duration": 0.0149,
      "velocity": 97,
      "chip": "ym2612"
    },
    {
      "channel": 3,
      "note": 84,
      "start": 57.1946,
      "duration": 0.0149,
      "velocity": 97,
      "chip": "ym2612"
    },
    {
      "channel": 2,
      "note": 56,
      "start": 57.1957,
      "duration": 0.0149,
      "velocity": 100,
      "chip": "ym2612"
    },
    {
      "channel": 0,
      "note": 40,
      "start": 57.2048,
      "duration": 0.0153,
      "velocity": 115,
      "chip": "ym2612"
    },
    {
      "channel": 4,
      "note": 81,
      "start": 57.2083,
      "duration": 0.0129,
      "velocity": 97,
      "chip": "ym2612"
    },
    {
      "channel": 3,
      "note": 84,
      "start": 57.2095,
      "duration": 0.0129,
      "velocity": 97,
      "chip": "ym2612"
    },
    {
      "channel": 0,
      "note": 41,
      "start": 57.22,
      "duration": 0.0179,
      "velocity": 115,
      "chip": "ym2612"
    },
    {
      "channel": 4,
      "note": 81,
      "start": 57.2212,
      "duration": 0.0179,
      "velocity": 97,
      "chip": "ym2612"
    },
    {
      "channel": 3,
      "note": 84,
      "start": 57.2224,
      "duration": 0.0207,
      "velocity": 97,
      "chip": "ym2612"
    },
    {
      "channel": 0,
      "note": 36,
      "start": 57.2379,
      "duration": 0.0144,
      "velocity": 115,
      "chip": "ym2612"
    },
    {
      "channel": 4,
      "note": 81,
      "start": 57.2391,
      "duration": 0.0144,
      "velocity": 97,
      "chip": "ym2612"
    },
    {
      "channel": 3,
      "note": 84,
      "start": 57.2431,
      "duration": 0.0116,
      "velocity": 97,
      "chip": "ym2612"
    },
    {
      "channel": 2,
      "note": 53,
      "start": 57.2445,
      "duration": 0.0113,
      "velocity": 100,
      "chip": "ym2612"
    },
    {
      "channel": 1,
      "note": 41,
      "start": 57.2461,
      "duration": 0.0137,
      "velocity": 100,
      "chip": "ym2612"
    },
    {
      "channel": 0,
      "note": 36,
      "start": 57.2523,
      "duration": 0.0161,
      "velocity": 115,
      "chip": "ym2612"
    },
    {
      "channel": 4,
      "note": 81,
      "start": 57.2535,
      "duration": 0.016,
      "velocity": 97,
      "chip": "ym2612"
    },
    {
      "channel": 3,
      "note": 84,
      "start": 57.2547,
      "duration": 0.016,
      "velocity": 97,
      "chip": "ym2612"
    },
    {
      "channel": 2,
      "note": 53,
      "start": 57.2559,
      "duration": 0.016,
      "velocity": 100,
      "chip": "ym2612"
    },
    {
      "channel": 1,
      "note": 41,
      "start": 57.2598,
      "duration": 0.0156,
      "velocity": 100,
      "chip": "ym2612"
    },
    {
      "channel": 0,
      "note": 37,
      "start": 57.2684,
      "duration": 0.0161,
      "velocity": 115,
      "chip": "ym2612"
    },
    {
      "channel": 4,
      "note": 81,
      "start": 57.2695,
      "duration": 0.0161,
      "velocity": 97,
      "chip": "ym2612"
    },
    {
      "channel": 3,
      "note": 84,
      "start": 57.2707,
      "duration": 0.0161,
      "velocity": 97,
      "chip": "ym2612"
    },
    {
      "channel": 2,
      "note": 53,
      "start": 57.2718,
      "duration": 0.0161,
      "velocity": 100,
      "chip": "ym2612"
    },
    {
      "channel": 1,
      "note": 41,
      "start": 57.2754,
      "duration": 0.0137,
      "velocity": 100,
      "chip": "ym2612"
    },
    {
      "channel": 0,
      "note": 37,
      "start": 57.2845,
      "duration": 0.0161,
      "velocity": 115,
      "chip": "ym2612"
    },
    {
      "channel": 4,
      "note": 81,
      "start": 57.2856,
      "duration": 0.0161,
      "velocity": 97,
      "chip": "ym2612"
    },
    {
      "channel": 3,
      "note": 84,
      "start": 57.2868,
      "duration": 0.0161,
      "velocity": 97,
      "chip": "ym2612"
    },
    {
      "channel": 2,
      "note": 53,
      "start": 57.2879,
      "duration": 0.0161,
      "velocity": 100,
      "chip": "ym2612"
    },
    {
      "channel": 1,
      "note": 41,
      "start": 57.289,
      "duration": 0.0162,
      "velocity": 100,
      "chip": "ym2612"
    },
    {
      "channel": 0,
      "note": 38,
      "start": 57.3006,
      "duration": 0.0161,
      "velocity": 115,
      "chip": "ym2612"
    },
    {
      "channel": 4,
      "note": 81,
      "start": 57.3018,
      "duration": 0.0161,
      "velocity": 97,
      "chip": "ym2612"
    },
    {
      "channel": 3,
      "note": 84,
      "start": 57.3029,
      "duration": 0.0161,
      "velocity": 97,
      "chip": "ym2612"
    },
    {
      "channel": 2,
      "note": 53,
      "start": 57.3041,
      "duration": 0.0161,
      "velocity": 100,
      "chip": "ym2612"
    },
    {
      "channel": 1,
      "note": 41,
      "start": 57.3052,
      "duration": 0.016,
      "velocity": 100,
      "chip": "ym2612"
    },
    {
      "channel": 0,
      "note": 38,
      "start": 57.3167,
      "duration": 0.0161,
      "velocity": 115,
      "chip": "ym2612"
    },
    {
      "channel": 4,
      "note": 81,
      "start": 57.3179,
      "duration": 0.0161,
      "velocity": 97,
      "chip": "ym2612"
    },
    {
      "channel": 3,
      "note": 84,
      "start": 57.319,
      "duration": 0.0161,
      "velocity": 97,
      "chip": "ym2612"
    },
    {
      "channel": 2,
      "note": 53,
      "start": 57.3202,
      "duration": 0.0161,
      "velocity": 100,
      "chip": "ym2612"
    },
    {
      "channel": 1,
      "note": 41,
      "start": 57.3212,
      "duration": 0.0161,
      "velocity": 100,
      "chip": "ym2612"
    },
    {
      "channel": 0,
      "note": 39,
      "start": 57.3327,
      "duration": 0.0161,
      "velocity": 115,
      "chip": "ym2612"
    },
    {
      "channel": 4,
      "note": 81,
      "start": 57.334,
      "duration": 0.0161,
      "velocity": 97,
      "chip": "ym2612"
    },
    {
      "channel": 3,
      "note": 84,
      "start": 57.3351,
      "duration": 0.0161,
      "velocity": 97,
      "chip": "ym2612"
    },
    {
      "channel": 2,
      "note": 53,
      "start": 57.3363,
      "duration": 0.0161,
      "velocity": 100,
      "chip": "ym2612"
    },
    {
      "channel": 1,
      "note": 41,
      "start": 57.3373,
      "duration": 0.0161,
      "velocity": 100,
      "chip": "ym2612"
    },
    {
      "channel": 0,
      "note": 39,
      "start": 57.3488,
      "duration": 0.0161,
      "velocity": 115,
      "chip": "ym2612"
    },
    {
      "channel": 4,
      "note": 81,
      "start": 57.35,
      "duration": 0.0161,
      "velocity": 97,
      "chip": "ym2612"
    },
    {
      "channel": 3,
      "note": 84,
      "start": 57.3512,
      "duration": 0.0161,
      "velocity": 97,
      "chip": "ym2612"
    },
    {
      "channel": 2,
      "note": 53,
      "start": 57.3523,
      "duration": 0.0161,
      "velocity": 100,
      "chip": "ym2612"
    },
    {
      "channel": 1,
      "note": 41,
      "start": 57.3534,
      "duration": 0.0162,
      "velocity": 100,
      "chip": "ym2612"
    },
    {
      "channel": 0,
      "note": 40,
      "start": 57.3649,
      "duration": 0.0161,
      "velocity": 115,
      "chip": "ym2612"
    },
    {
      "channel": 4,
      "note": 81,
      "start": 57.3661,
      "duration": 0.0161,
      "velocity": 97,
      "chip": "ym2612"
    },
    {
      "channel": 3,
      "note": 84,
      "start": 57.3673,
      "duration": 0.0161,
      "velocity": 97,
      "chip": "ym2612"
    },
    {
      "channel": 2,
      "note": 53,
      "start": 57.3684,
      "duration": 0.0161,
      "velocity": 100,
      "chip": "ym2612"
    },
    {
      "channel": 1,
      "note": 41,
      "start": 57.3696,
      "duration": 0.0161,
      "velocity": 100,
      "chip": "ym2612"
    },
    {
      "channel": 0,
      "note": 40,
      "start": 57.381,
      "duration": 0.0161,
      "velocity": 115,
      "chip": "ym2612"
    },
    {
      "channel": 4,
      "note": 81,
      "start": 57.3822,
      "duration": 0.0161,
      "velocity": 97,
      "chip": "ym2612"
    },
    {
      "channel": 3,
      "note": 84,
      "start": 57.3834,
      "duration": 0.0161,
      "velocity": 97,
      "chip": "ym2612"
    },
    {
      "channel": 2,
      "note": 53,
      "start": 57.3845,
      "duration": 0.0161,
      "velocity": 100,
      "chip": "ym2612"
    },
    {
      "channel": 1,
      "note": 41,
      "start": 57.3857,
      "duration": 0.0161,
      "velocity": 100,
      "chip": "ym2612"
    },
    {
      "channel": 0,
      "note": 40,
      "start": 57.3971,
      "duration": 0.0162,
      "velocity": 115,
      "chip": "ym2612"
    },
    {
      "channel": 4,
      "note": 81,
      "start": 57.3983,
      "duration": 0.0161,
      "velocity": 97,
      "chip": "ym2612"
    },
    {
      "channel": 3,
      "note": 84,
      "start": 57.3995,
      "duration": 0.0162,
      "velocity": 97,
      "chip": "ym2612"
    },
    {
      "channel": 0,
      "note": 41,
      "start": 57.4133,
      "duration": 0.0161,
      "velocity": 115,
      "chip": "ym2612"
    },
    {
      "channel": 4,
      "note": 81,
      "start": 57.4144,
      "duration": 0.0162,
      "velocity": 97,
      "chip": "ym2612"
    },
    {
      "channel": 3,
      "note": 84,
      "start": 57.4156,
      "duration": 0.0161,
      "velocity": 97,
      "chip": "ym2612"
    },
    {
      "channel": 0,
      "note": 41,
      "start": 57.4294,
      "duration": 0.0161,
      "velocity": 115,
      "chip": "ym2612"
    },
    {
      "channel": 4,
      "note": 81,
      "start": 57.4306,
      "duration": 0.0161,
      "velocity": 97,
      "chip": "ym2612"
    },
    {
      "channel": 3,
      "note": 84,
      "start": 57.4317,
      "duration": 0.0161,
      "velocity": 97,
      "chip": "ym2612"
    },
    {
      "channel": 2,
      "note": 60,
      "start": 57.4331,
      "duration": 0.0159,
      "velocity": 100,
      "chip": "ym2612"
    },
    {
      "channel": 1,
      "note": 48,
      "start": 57.4345,
      "duration": 0.0156,
      "velocity": 100,
      "chip": "ym2612"
    },
    {
      "channel": 0,
      "note": 42,
      "start": 57.4455,
      "duration": 0.0161,
      "velocity": 115,
      "chip": "ym2612"
    },
    {
      "channel": 4,
      "note": 81,
      "start": 57.4467,
      "duration": 0.0161,
      "velocity": 97,
      "chip": "ym2612"
    },
    {
      "channel": 3,
      "note": 84,
      "start": 57.4478,
      "duration": 0.0161,
      "velocity": 97,
      "chip": "ym2612"
    },
    {
      "channel": 2,
      "note": 60,
      "start": 57.449,
      "duration": 0.0161,
      "velocity": 100,
      "chip": "ym2612"
    },
    {
      "channel": 1,
      "note": 48,
      "start": 57.4502,
      "duration": 0.016,
      "velocity": 100,
      "chip": "ym2612"
    },
    {
      "channel": 0,
      "note": 42,
      "start": 57.4616,
      "duration": 0.0161,
      "velocity": 115,
      "chip": "ym2612"
    },
    {
      "channel": 4,
      "note": 81,
      "start": 57.4628,
      "duration": 0.0161,
      "velocity": 97,
      "chip": "ym2612"
    },
    {
      "channel": 3,
      "note": 84,
      "start": 57.4639,
      "duration": 0.0161,
      "velocity": 97,
      "chip": "ym2612"
    },
    {
      "channel": 2,
      "note": 60,
      "start": 57.4651,
      "duration": 0.0161,
      "velocity": 100,
      "chip": "ym2612"
    },
    {
      "channel": 1,
      "note": 48,
      "start": 57.4661,
      "duration": 0.0161,
      "velocity": 100,
      "chip": "ym2612"
    },
    {
      "channel": 0,
      "note": 43,
      "start": 57.4777,
      "duration": 0.0161,
      "velocity": 115,
      "chip": "ym2612"
    },
    {
      "channel": 4,
      "note": 81,
      "start": 57.4789,
      "duration": 0.0161,
      "velocity": 97,
      "chip": "ym2612"
    },
    {
      "channel": 3,
      "note": 84,
      "start": 57.48,
      "duration": 0.0161,
      "velocity": 97,
      "chip": "ym2612"
    },
    {
      "channel": 2,
      "note": 60,
      "start": 57.4812,
      "duration": 0.0161,
      "velocity": 100,
      "chip": "ym2612"
    },
    {
      "channel": 1,
      "note": 48,
      "start": 57.4822,
      "duration": 0.0161,
      "velocity": 100,
      "chip": "ym2612"
    },
    {
      "channel": 0,
      "note": 43,
      "start": 57.4938,
      "duration": 0.0169,
      "velocity": 115,
      "chip": "ym2612"
    },
    {
      "channel": 4,
      "note": 81,
      "start": 57.495,
      "duration": 0.0168,
      "velocity": 97,
      "chip": "ym2612"
    },
    {
      "channel": 3,
      "note": 84,
      "start": 57.4961,
      "duration": 0.0169,
      "velocity": 97,
      "chip": "ym2612"
    },
    {
      "channel": 2,
      "note": 60,
      "start": 57.4973,
      "duration": 0.0168,
      "velocity": 100,
      "chip": "ym2612"
    },
    {
      "channel": 1,
      "note": 48,
      "start": 57.4983,
      "duration": 0.0169,
      "velocity": 100,
      "chip": "ym2612"
    },
    {
      "channel": 0,
      "note": 44,
      "start": 57.5107,
      "duration": 0.0167,
      "velocity": 115,
      "chip": "ym2612"
    },
    {
      "channel": 4,
      "note": 81,
      "start": 57.5118,
      "duration": 0.0167,
      "velocity": 97,
      "chip": "ym2612"
    },
    {
      "channel": 3,
      "note": 84,
      "start": 57.513,
      "duration": 0.0167,
      "velocity": 97,
      "chip": "ym2612"
    },
    {
      "channel": 2,
      "note": 60,
      "start": 57.5141,
      "duration": 0.0167,
      "velocity": 100,
      "chip": "ym2612"
    },
    {
      "channel": 1,
      "note": 48,
      "start": 57.5153,
      "duration": 0.0167,
      "velocity": 100,
      "chip": "ym2612"
    },
    {
      "channel": 0,
      "note": 44,
      "start": 57.5273,
      "duration": 0.0163,
      "velocity": 115,
      "chip": "ym2612"
    },
    {
      "channel": 4,
      "note": 81,
      "start": 57.5285,
      "duration": 0.0163,
      "velocity": 97,
      "chip": "ym2612"
    },
    {
      "channel": 3,
      "note": 84,
      "start": 57.5297,
      "duration": 0.0163,
      "velocity": 97,
      "chip": "ym2612"
    },
    {
      "channel": 2,
      "note": 60,
      "start": 57.5308,
      "duration": 0.0163,
      "velocity": 100,
      "chip": "ym2612"
    },
    {
      "channel": 1,
      "note": 48,
      "start": 57.5319,
      "duration": 0.0163,
      "velocity": 100,
      "chip": "ym2612"
    },
    {
      "channel": 0,
      "note": 44,
      "start": 57.5436,
      "duration": 0.0147,
      "velocity": 115,
      "chip": "ym2612"
    },
    {
      "channel": 4,
      "note": 81,
      "start": 57.5448,
      "duration": 0.0147,
      "velocity": 97,
      "chip": "ym2612"
    },
    {
      "channel": 3,
      "note": 84,
      "start": 57.546,
      "duration": 0.0147,
      "velocity": 97,
      "chip": "ym2612"
    },
    {
      "channel": 2,
      "note": 60,
      "start": 57.5471,
      "duration": 0.0147,
      "velocity": 100,
      "chip": "ym2612"
    },
    {
      "channel": 1,
      "note": 48,
      "start": 57.5483,
      "duration": 0.0147,
      "velocity": 100,
      "chip": "ym2612"
    },
    {
      "channel": 0,
      "note": 45,
      "start": 57.5583,
      "duration": 0.0187,
      "velocity": 115,
      "chip": "ym2612"
    },
    {
      "channel": 4,
      "note": 81,
      "start": 57.5595,
      "duration": 0.0187,
      "velocity": 97,
      "chip": "ym2612"
    },
    {
      "channel": 3,
      "note": 84,
      "start": 57.5607,
      "duration": 0.0187,
      "velocity": 97,
      "chip": "ym2612"
    },
    {
      "channel": 2,
      "note": 60,
      "start": 57.5618,
      "duration": 0.0187,
      "velocity": 100,
      "chip": "ym2612"
    },
    {
      "channel": 1,
      "note": 48,
      "start": 57.563,
      "duration": 0.0186,
      "velocity": 100,
      "chip": "ym2612"
    },
    {
      "channel": 0,
      "note": 45,
      "start": 57.577,
      "duration": 0.0161,
      "velocity": 115,
      "chip": "ym2612"
    },
    {
      "channel": 4,
      "note": 81,
      "start": 57.5782,
      "duration": 0.0161,
      "velocity": 97,
      "chip": "ym2612"
    },
    {
      "channel": 3,
      "note": 84,
      "start": 57.5794,
      "duration": 0.0161,
      "velocity": 97,
      "chip": "ym2612"
    },
    {
      "channel": 2,
      "note": 60,
      "start": 57.5805,
      "duration": 0.0161,
      "velocity": 100,
      "chip": "ym2612"
    },
    {
      "channel": 1,
      "note": 48,
      "start": 57.5816,
      "duration": 0.0161,
      "velocity": 100,
      "chip": "ym2612"
    },
    {
      "channel": 0,
      "note": 46,
      "start": 57.5931,
      "duration": 0.0157,
      "velocity": 115,
      "chip": "ym2612"
    },
    {
      "channel": 4,
      "note": 81,
      "start": 57.5943,
      "duration": 0.0157,
      "velocity": 97,
      "chip": "ym2612"
    },
    {
      "channel": 3,
      "note": 84,
      "start": 57.5955,
      "duration": 0.0158,
      "velocity": 97,
      "chip": "ym2612"
    },
    {
      "channel": 0,
      "note": 46,
      "start": 57.6088,
      "duration": 0.0175,
      "velocity": 115,
      "chip": "ym2612"
    },
    {
      "channel": 4,
      "note": 81,
      "start": 57.61,
      "duration": 0.0175,
      "velocity": 97,
      "chip": "ym2612"
    },
    {
      "channel": 3,
      "note": 84,
      "start": 57.6112,
      "duration": 0.0174,
      "velocity": 97,
      "chip": "ym2612"
    },
    {
      "channel": 1,
      "note": 78,
      "start": 57.6246,
      "duration": 0.0141,
      "velocity": 124,
      "chip": "ym2612"
    },
    {
      "channel": 0,
      "note": 47,
      "start": 57.6263,
      "duration": 0.0168,
      "velocity": 115,
      "chip": "ym2612"
    },
    {
      "channel": 4,
      "note": 81,
      "start": 57.6275,
      "duration": 0.0168,
      "velocity": 97,
      "chip": "ym2612"
    },
    {
      "channel": 3,
      "note": 84,
      "start": 57.6287,
      "duration": 0.0168,
      "velocity": 97,
      "chip": "ym2612"
    },
    {
      "channel": 2,
      "note": 65,
      "start": 57.6301,
      "duration": 0.0166,
      "velocity": 100,
      "chip": "ym2612"
    },
    {
      "channel": 1,
      "note": 76,
      "start": 57.6387,
      "duration": 0.016,
      "velocity": 124,
      "chip": "ym2612"
    },
    {
      "channel": 0,
      "note": 47,
      "start": 57.6431,
      "duration": 0.016,
      "velocity": 115,
      "chip": "ym2612"
    },
    {
      "channel": 4,
      "note": 81,
      "start": 57.6443,
      "duration": 0.016,
      "velocity": 97,
      "chip": "ym2612"
    },
    {
      "channel": 3,
      "note": 84,
      "start": 57.6455,
      "duration": 0.016,
      "velocity": 97,
      "chip": "ym2612"
    },
    {
      "channel": 2,
      "note": 65,
      "start": 57.6467,
      "duration": 0.016,
      "velocity": 100,
      "chip": "ym2612"
    },
    {
      "channel": 1,
      "note": 75,
      "start": 57.6547,
      "duration": 0.0161,
      "velocity": 124,
      "chip": "ym2612"
    },
    {
      "channel": 0,
      "note": 47,
      "start": 57.6591,
      "duration": 0.0134,
      "velocity": 115,
      "chip": "ym2612"
    },
    {
      "channel": 4,
      "note": 81,
      "start": 57.6604,
      "duration": 0.0157,
      "velocity": 97,
      "chip": "ym2612"
    },
    {
      "channel": 3,
      "note": 84,
      "start": 57.6615,
      "duration": 0.0158,
      "velocity": 97,
      "chip": "ym2612"
    },
    {
      "channel": 2,
      "note": 65,
      "start": 57.6627,
      "duration": 0.0157,
      "velocity": 100,
      "chip": "ym2612"
    },
    {
      "channel": 1,
      "note": 74,
      "start": 57.6708,
      "duration": 0.0161,
      "velocity": 124,
      "chip": "ym2612"
    },
    {
      "channel": 0,
      "note": 48,
      "start": 57.6725,
      "duration": 0.0161,
      "velocity": 115,
      "chip": "ym2612"
    },
    {
      "channel": 4,
      "note": 81,
      "start": 57.6761,
      "duration": 0.0141,
      "velocity": 97,
      "chip": "ym2612"
    },
    {
      "channel": 3,
      "note": 84,
      "start": 57.6773,
      "duration": 0.0141,
      "velocity": 97,
      "chip": "ym2612"
    },
    {
      "channel": 2,
      "note": 65,
      "start": 57.6784,
      "duration": 0.0141,
      "velocity": 100,
      "chip": "ym2612"
    },
    {
      "channel": 1,
      "note": 72,
      "start": 57.6869,
      "duration": 0.0161,
      "velocity": 124,
      "chip": "ym2612"
    },
    {
      "channel": 0,
      "note": 48,
      "start": 57.6886,
      "duration": 0.0161,
      "velocity": 115,
      "chip": "ym2612"
    },
    {
      "channel": 4,
      "note": 81,
      "start": 57.6901,
      "duration": 0.0185,
      "velocity": 97,
      "chip": "ym2612"
    },
    {
      "channel": 3,
      "note": 84,
      "start": 57.6913,
      "duration": 0.0185,
      "velocity": 97,
      "chip": "ym2612"
    },
    {
      "channel": 2,
      "note": 65,
      "start": 57.6924,
      "duration": 0.0185,
      "velocity": 100,
      "chip": "ym2612"
    },
    {
      "channel": 1,
      "note": 71,
      "start": 57.703,
      "duration": 0.0161,
      "velocity": 124,
      "chip": "ym2612"
    },
    {
      "channel": 0,
      "note": 49,
      "start": 57.7047,
      "duration": 0.0153,
      "velocity": 1,
      "chip": "ym2612"
    },
    {
      "channel": 4,
      "note": 81,
      "start": 57.7086,
      "duration": 0.0126,
      "velocity": 97,
      "chip": "ym2612"
    },
    {
      "channel": 3,
      "note": 84,
      "start": 57.7098,
      "duration": 0.0125,
      "velocity": 97,
      "chip": "ym2612"
    },
    {
      "channel": 2,
      "note": 65,
      "start": 57.7109,
      "duration": 0.0153,
      "velocity": 100,
      "chip": "ym2612"
    },
    {
      "channel": 1,
      "note": 70,
      "start": 57.7191,
      "duration": 0.0161,
      "velocity": 124,
      "chip": "ym2612"
    },
    {
      "channel": 4,
      "note": 81,
      "start": 57.7212,
      "duration": 0.0152,
      "velocity": 97,
      "chip": "ym2612"
    },
    {
      "channel": 3,
      "note": 84,
      "start": 57.7224,
      "duration": 0.0153,
      "velocity": 97,
      "chip": "ym2612"
    },
    {
      "channel": 2,
      "note": 65,
      "start": 57.7263,
      "duration": 0.0125,
      "velocity": 100,
      "chip": "ym2612"
    },
    {
      "channel": 1,
      "note": 69,
      "start": 57.7352,
      "duration": 0.0161,
      "velocity": 124,
      "chip": "ym2612"
    },
    {
      "channel": 4,
      "note": 81,
      "start": 57.7364,
      "duration": 0.0162,
      "velocity": 97,
      "chip": "ym2612"
    },
    {
      "channel": 3,
      "note": 84,
      "start": 57.7376,
      "duration": 0.0161,
      "velocity": 97,
      "chip": "ym2612"
    },
    {
      "channel": 2,
      "note": 65,
      "start": 57.7387,
      "duration": 0.0162,
      "velocity": 100,
      "chip": "ym2612"
    },
    {
      "channel": 1,
      "note": 68,
      "start": 57.7513,
      "duration": 0.0161,
      "velocity": 124,
      "chip": "ym2612"
    },
    {
      "channel": 4,
      "note": 81,
      "start": 57.7526,
      "duration": 0.0161,
      "velocity": 97,
      "chip": "ym2612"
    },
    {
      "channel": 3,
      "note": 84,
      "start": 57.7537,
      "duration": 0.0161,
      "velocity": 97,
      "chip": "ym2612"
    },
    {
      "channel": 2,
      "note": 65,
      "start": 57.7549,
      "duration": 0.0161,
      "velocity": 100,
      "chip": "ym2612"
    },
    {
      "channel": 1,
      "note": 66,
      "start": 57.7674,
      "duration": 0.0161,
      "velocity": 124,
      "chip": "ym2612"
    },
    {
      "channel": 4,
      "note": 81,
      "start": 57.7687,
      "duration": 0.0161,
      "velocity": 97,
      "chip": "ym2612"
    },
    {
      "channel": 3,
      "note": 84,
      "start": 57.7698,
      "duration": 0.0161,
      "velocity": 97,
      "chip": "ym2612"
    },
    {
      "channel": 2,
      "note": 65,
      "start": 57.771,
      "duration": 0.0161,
      "velocity": 100,
      "chip": "ym2612"
    },
    {
      "channel": 1,
      "note": 65,
      "start": 57.7835,
      "duration": 0.0161,
      "velocity": 124,
      "chip": "ym2612"
    },
    {
      "channel": 4,
      "note": 81,
      "start": 57.7848,
      "duration": 0.0161,
      "velocity": 97,
      "chip": "ym2612"
    },
    {
      "channel": 3,
      "note": 84,
      "start": 57.7859,
      "duration": 0.0161,
      "velocity": 97,
      "chip": "ym2612"
    },
    {
      "channel": 1,
      "note": 64,
      "start": 57.7996,
      "duration": 0.0161,
      "velocity": 124,
      "chip": "ym2612"
    },
    {
      "channel": 4,
      "note": 81,
      "start": 57.8009,
      "duration": 0.0161,
      "velocity": 97,
      "chip": "ym2612"
    },
    {
      "channel": 3,
      "note": 84,
      "start": 57.802,
      "duration": 0.0162,
      "velocity": 97,
      "chip": "ym2612"
    },
    {
      "channel": 1,
      "note": 62,
      "start": 57.8157,
      "duration": 0.0161,
      "velocity": 124,
      "chip": "ym2612"
    },
    {
      "channel": 4,
      "note": 81,
      "start": 57.817,
      "duration": 0.0161,
      "velocity": 97,
      "chip": "ym2612"
    },
    {
      "channel": 3,
      "note": 84,
      "start": 57.8182,
      "duration": 0.016,
      "velocity": 97,
      "chip": "ym2612"
    },
    {
      "channel": 2,
      "note": 63,
      "start": 57.8196,
      "duration": 0.0158,
      "velocity": 100,
      "chip": "ym2612"
    },
    {
      "channel": 1,
      "note": 61,
      "start": 57.8318,
      "duration": 0.0161,
      "velocity": 124,
      "chip": "ym2612"
    },
    {
      "channel": 4,
      "note": 81,
      "start": 57.8331,
      "duration": 0.0161,
      "velocity": 97,
      "chip": "ym2612"
    },
    {
      "channel": 3,
      "note": 84,
      "start": 57.8342,
      "duration": 0.0161,
      "velocity": 97,
      "chip": "ym2612"
    },
    {
      "channel": 2,
      "note": 63,
      "start": 57.8354,
      "duration": 0.016,
      "velocity": 100,
      "chip": "ym2612"
    },
    {
      "channel": 1,
      "note": 60,
      "start": 57.8479,
      "duration": 0.0161,
      "velocity": 124,
      "chip": "ym2612"
    },
    {
      "channel": 4,
      "note": 81,
      "start": 57.8492,
      "duration": 0.0161,
      "velocity": 97,
      "chip": "ym2612"
    },
    {
      "channel": 3,
      "note": 84,
      "start": 57.8504,
      "duration": 0.0161,
      "velocity": 97,
      "chip": "ym2612"
    },
    {
      "channel": 2,
      "note": 63,
      "start": 57.8515,
      "duration": 0.0161,
      "velocity": 100,
      "chip": "ym2612"
    },
    {
      "channel": 1,
      "note": 59,
      "start": 57.864,
      "duration": 0.0161,
      "velocity": 124,
      "chip": "ym2612"
    },
    {
      "channel": 4,
      "note": 81,
      "start": 57.8653,
      "duration": 0.0161,
      "velocity": 97,
      "chip": "ym2612"
    },
    {
      "channel": 3,
      "note": 84,
      "start": 57.8665,
      "duration": 0.0161,
      "velocity": 97,
      "chip": "ym2612"
    },
    {
      "channel": 2,
      "note": 63,
      "start": 57.8676,
      "duration": 0.0161,
      "velocity": 100,
      "chip": "ym2612"
    },
    {
      "channel": 1,
      "note": 57,
      "start": 57.8801,
      "duration": 0.0161,
      "velocity": 124,
      "chip": "ym2612"
    },
    {
      "channel": 4,
      "note": 81,
      "start": 57.8814,
      "duration": 0.0161,
      "velocity": 97,
      "chip": "ym2612"
    },
    {
      "channel": 3,
      "note": 84,
      "start": 57.8826,
      "duration": 0.0161,
      "velocity": 97,
      "chip": "ym2612"
    },
    {
      "channel": 2,
      "note": 63,
      "start": 57.8837,
      "duration": 0.0161,
      "velocity": 100,
      "chip": "ym2612"
    },
    {
      "channel": 1,
      "note": 56,
      "start": 57.8962,
      "duration": 0.0161,
      "velocity": 124,
      "chip": "ym2612"
    },
    {
      "channel": 4,
      "note": 81,
      "start": 57.8975,
      "duration": 0.0161,
      "velocity": 97,
      "chip": "ym2612"
    },
    {
      "channel": 3,
      "note": 84,
      "start": 57.8987,
      "duration": 0.0161,
      "velocity": 97,
      "chip": "ym2612"
    },
    {
      "channel": 2,
      "note": 63,
      "start": 57.8998,
      "duration": 0.0161,
      "velocity": 100,
      "chip": "ym2612"
    },
    {
      "channel": 1,
      "note": 55,
      "start": 57.9123,
      "duration": 0.0161,
      "velocity": 124,
      "chip": "ym2612"
    },
    {
      "channel": 4,
      "note": 81,
      "start": 57.9136,
      "duration": 0.0161,
      "velocity": 97,
      "chip": "ym2612"
    },
    {
      "channel": 3,
      "note": 84,
      "start": 57.9147,
      "duration": 0.0161,
      "velocity": 97,
      "chip": "ym2612"
    },
    {
      "channel": 2,
      "note": 63,
      "start": 57.9159,
      "duration": 0.0161,
      "velocity": 100,
      "chip": "ym2612"
    },
    {
      "channel": 1,
      "note": 53,
      "start": 57.9284,
      "duration": 0.0161,
      "velocity": 124,
      "chip": "ym2612"
    },
    {
      "channel": 4,
      "note": 81,
      "start": 57.9297,
      "duration": 0.0161,
      "velocity": 97,
      "chip": "ym2612"
    },
    {
      "channel": 3,
      "note": 84,
      "start": 57.9308,
      "duration": 0.0162,
      "velocity": 97,
      "chip": "ym2612"
    },
    {
      "channel": 2,
      "note": 63,
      "start": 57.932,
      "duration": 0.0161,
      "velocity": 100,
      "chip": "ym2612"
    },
    {
      "channel": 1,
      "note": 52,
      "start": 57.9445,
      "duration": 0.0161,
      "velocity": 124,
      "chip": "ym2612"
    },
    {
      "channel": 4,
      "note": 81,
      "start": 57.9458,
      "duration": 0.0161,
      "velocity": 97,
      "chip": "ym2612"
    },
    {
      "channel": 3,
      "note": 84,
      "start": 57.947,
      "duration": 0.016,
      "velocity": 97,
      "chip": "ym2612"
    },
    {
      "channel": 2,
      "note": 63,
      "start": 57.9481,
      "duration": 0.016,
      "velocity": 100,
      "chip": "ym2612"
    },
    {
      "channel": 1,
      "note": 51,
      "start": 57.9606,
      "duration": 0.0159,
      "velocity": 1,
      "chip": "ym2612"
    },
    {
      "channel": 4,
      "note": 81,
      "start": 57.9619,
      "duration": 0.0159,
      "velocity": 97,
      "chip": "ym2612"
    },
    {
      "channel": 3,
      "note": 84,
      "start": 57.963,
      "duration": 0.0158,
      "velocity": 97,
      "chip": "ym2612"
    },
    {
      "channel": 2,
      "note": 63,
      "start": 57.9642,
      "duration": 0.0159,
      "velocity": 100,
      "chip": "ym2612"
    },
    {
      "channel": 4,
      "note": 81,
      "start": 57.9777,
      "duration": 0.0158,
      "velocity": 97,
      "chip": "ym2612"
    },
    {
      "channel": 3,
      "note": 84,
      "start": 57.9789,
      "duration": 0.0159,
      "velocity": 97,
      "chip": "ym2612"
    },
    {
      "channel": 4,
      "note": 81,
      "start": 57.9935,
      "duration": 0.0198,
      "velocity": 97,
      "chip": "ym2612"
    },
    {
      "channel": 3,
      "note": 84,
      "start": 57.9947,
      "duration": 0.0197,
      "velocity": 97,
      "chip": "ym2612"
    },
    {
      "channel": 0,
      "note": 36,
      "start": 58.0121,
      "duration": 0.0131,
      "velocity": 115,
      "chip": "ym2612"
    },
    {
      "channel": 4,
      "note": 81,
      "start": 58.0133,
      "duration": 0.013,
      "velocity": 97,
      "chip": "ym2612"
    },
    {
      "channel": 3,
      "note": 84,
      "start": 58.0144,
      "duration": 0.0131,
      "velocity": 97,
      "chip": "ym2612"
    },
    {
      "channel": 0,
      "note": 36,
      "start": 58.0252,
      "duration": 0.0188,
      "velocity": 115,
      "chip": "ym2612"
    },
    {
      "channel": 4,
      "note": 81,
      "start": 58.0263,
      "duration": 0.0188,
      "velocity": 97,
      "chip": "ym2612"
    },
    {
      "channel": 3,
      "note": 84,
      "start": 58.0275,
      "duration": 0.0188,
      "velocity": 97,
      "chip": "ym2612"
    },
    {
      "channel": 0,
      "note": 37,
      "start": 58.0439,
      "duration": 0.0161,
      "velocity": 115,
      "chip": "ym2612"
    },
    {
      "channel": 4,
      "note": 81,
      "start": 58.0451,
      "duration": 0.0161,
      "velocity": 97,
      "chip": "ym2612"
    },
    {
      "channel": 3,
      "note": 84,
      "start": 58.0463,
      "duration": 0.0161,
      "velocity": 97,
      "chip": "ym2612"
    },
    {
      "channel": 0,
      "note": 37,
      "start": 58.06,
      "duration": 0.0157,
      "velocity": 115,
      "chip": "ym2612"
    },
    {
      "channel": 4,
      "note": 81,
      "start": 58.0612,
      "duration": 0.0157,
      "velocity": 97,
      "chip": "ym2612"
    },
    {
      "channel": 3,
      "note": 84,
      "start": 58.0624,
      "duration": 0.0158,
      "velocity": 97,
      "chip": "ym2612"
    },
    {
      "channel": 0,
      "note": 38,
      "start": 58.0758,
      "duration": 0.0141,
      "velocity": 115,
      "chip": "ym2612"
    },
    {
      "channel": 4,
      "note": 81,
      "start": 58.077,
      "duration": 0.0141,
      "velocity": 97,
      "chip": "ym2612"
    },
    {
      "channel": 3,
      "note": 84,
      "start": 58.0782,
      "duration": 0.014,
      "velocity": 97,
      "chip": "ym2612"
    },
    {
      "channel": 0,
      "note": 38,
      "start": 58.0898,
      "duration": 0.0158,
      "velocity": 115,
      "chip": "ym2612"
    },
    {
      "channel": 4,
      "note": 81,
      "start": 58.091,
      "duration": 0.0185,
      "velocity": 97,
      "chip": "ym2612"
    },
    {
      "channel": 3,
      "note": 84,
      "start": 58.0922,
      "duration": 0.0186,
      "velocity": 97,
      "chip": "ym2612"
    },
    {
      "channel": 0,
      "note": 39,
      "start": 58.1056,
      "duration": 0.0161,
      "velocity": 115,
      "chip": "ym2612"
    },
    {
      "channel": 4,
      "note": 81,
      "start": 58.1095,
      "duration": 0.0161,
      "velocity": 97,
      "chip": "ym2612"
    },
    {
      "channel": 3,
      "note": 84,
      "start": 58.1107,
      "duration": 0.016,
      "velocity": 97,
      "chip": "ym2612"
    },
    {
      "channel": 0,
      "note": 39,
      "start": 58.1217,
      "duration": 0.0161,
      "velocity": 115,
      "chip": "ym2612"
    },
    {
      "channel": 4,
      "note": 81,
      "start": 58.1256,
      "duration": 0.0134,
      "velocity": 97,
      "chip": "ym2612"
    },
    {
      "channel": 3,
      "note": 84,
      "start": 58.1268,
      "duration": 0.0158,
      "velocity": 97,
      "chip": "ym2612"
    },
    {
      "channel": 0,
      "note": 40,
      "start": 58.1378,
      "duration": 0.0161,
      "velocity": 115,
      "chip": "ym2612"
    },
    {
      "channel": 4,
      "note": 81,
      "start": 58.139,
      "duration": 0.0161,
      "velocity": 97,
      "chip": "ym2612"
    },
    {
      "channel": 3,
      "note": 84,
      "start": 58.1425,
      "duration": 0.0141,
      "velocity": 97,
      "chip": "ym2612"
    },
    {
      "channel": 0,
      "note": 40,
      "start": 58.1539,
      "duration": 0.0161,
      "velocity": 115,
      "chip": "ym2612"
    },
    {
      "channel": 4,
      "note": 81,
      "start": 58.1551,
      "duration": 0.0161,
      "velocity": 97,
      "chip": "ym2612"
    },
    {
      "channel": 3,
      "note": 84,
      "start": 58.1566,
      "duration": 0.0158,
      "velocity": 97,
      "chip": "ym2612"
    },
    {
      "channel": 0,
      "note": 40,
      "start": 58.17,
      "duration": 0.0161,
      "velocity": 115,
      "chip": "ym2612"
    },
    {
      "channel": 4,
      "note": 81,
      "start": 58.1712,
      "duration": 0.0161,
      "velocity": 97,
      "chip": "ym2612"
    },
    {
      "channel": 3,
      "note": 84,
      "start": 58.1724,
      "duration": 0.0161,
      "velocity": 97,
      "chip": "ym2612"
    },
    {
      "channel": 0,
      "note": 41,
      "start": 58.1861,
      "duration": 0.0179,
      "velocity": 115,
      "chip": "ym2612"
    },
    {
      "channel": 4,
      "note": 81,
      "start": 58.1873,
      "duration": 0.0179,
      "velocity": 97,
      "chip": "ym2612"
    },
    {
      "channel": 3,
      "note": 84,
      "start": 58.1885,
      "duration": 0.0203,
      "velocity": 97,
      "chip": "ym2612"
    },
    {
      "channel": 0,
      "note": 36,
      "start": 58.204,
      "duration": 0.0144,
      "velocity": 115,
      "chip": "ym2612"
    },
    {
      "channel": 4,
      "note": 81,
      "start": 58.2052,
      "duration": 0.0144,
      "velocity": 97,
      "chip": "ym2612"
    },
    {
      "channel": 3,
      "note": 84,
      "start": 58.2088,
      "duration": 0.0119,
      "velocity": 97,
      "chip": "ym2612"
    },
    {
      "channel": 2,
      "note": 65,
      "start": 58.2102,
      "duration": 0.0117,
      "velocity": 100,
      "chip": "ym2612"
    },
    {
      "channel": 1,
      "note": 53,
      "start": 58.2116,
      "duration": 0.0118,
      "velocity": 100,
      "chip": "ym2612"
    },
    {
      "channel": 0,
      "note": 36,
      "start": 58.2184,
      "duration": 0.016,
      "velocity": 115,
      "chip": "ym2612"
    },
    {
      "channel": 4,
      "note": 81,
      "start": 58.2196,
      "duration": 0.016,
      "velocity": 97,
      "chip": "ym2612"
    },
    {
      "channel": 3,
      "note": 84,
      "start": 58.2207,
      "duration": 0.016,
      "velocity": 97,
      "chip": "ym2612"
    },
    {
      "channel": 2,
      "note": 65,
      "start": 58.2219,
      "duration": 0.016,
      "velocity": 100,
      "chip": "ym2612"
    },
    {
      "channel": 1,
      "note": 53,
      "start": 58.2234,
      "duration": 0.0156,
      "velocity": 100,
      "chip": "ym2612"
    },
    {
      "channel": 0,
      "note": 37,
      "start": 58.2344,
      "duration": 0.0161,
      "velocity": 115,
      "chip": "ym2612"
    },
    {
      "channel": 4,
      "note": 81,
      "start": 58.2356,
      "duration": 0.0161,
      "velocity": 97,
      "chip": "ym2612"
    },
    {
      "channel": 3,
      "note": 84,
      "start": 58.2368,
      "duration": 0.0161,
      "velocity": 97,
      "chip": "ym2612"
    },
    {
      "channel": 2,
      "note": 65,
      "start": 58.2379,
      "duration": 0.0161,
      "velocity": 100,
      "chip": "ym2612"
    },
    {
      "channel": 1,
      "note": 53,
      "start": 58.239,
      "duration": 0.0162,
      "velocity": 100,
      "chip": "ym2612"
    },
    {
      "channel": 0,
      "note": 37,
      "start": 58.2505,
      "duration": 0.0161,
      "velocity": 115,
      "chip": "ym2612"
    },
    {
      "channel": 4,
      "note": 81,
      "start": 58.2517,
      "duration": 0.0161,
      "velocity": 97,
      "chip": "ym2612"
    },
    {
      "channel": 3,
      "note": 84,
      "start": 58.2529,
      "duration": 0.0161,
      "velocity": 97,
      "chip": "ym2612"
    },
    {
      "channel": 2,
      "note": 65,
      "start": 58.254,
      "duration": 0.0161,
      "velocity": 100,
      "chip": "ym2612"
    },
    {
      "channel": 1,
      "note": 53,
      "start": 58.2551,
      "duration": 0.0161,
      "velocity": 100,
      "chip": "ym2612"
    },
    {
      "channel": 0,
      "note": 38,
      "start": 58.2666,
      "duration": 0.0161,
      "velocity": 115,
      "chip": "ym2612"
    },
    {
      "channel": 4,
      "note": 81,
      "start": 58.2678,
      "duration": 0.0161,
      "velocity": 97,
      "chip": "ym2612"
    },
    {
      "channel": 3,
      "note": 84,
      "start": 58.269,
      "duration": 0.0161,
      "velocity": 97,
      "chip": "ym2612"
    },
    {
      "channel": 2,
      "note": 65,
      "start": 58.2701,
      "duration": 0.0161,
      "velocity": 100,
      "chip": "ym2612"
    },
    {
      "channel": 1,
      "note": 53,
      "start": 58.2712,
      "duration": 0.0161,
      "velocity": 100,
      "chip": "ym2612"
    },
    {
      "channel": 0,
      "note": 38,
      "start": 58.2827,
      "duration": 0.0162,
      "velocity": 115,
      "chip": "ym2612"
    },
    {
      "channel": 4,
      "note": 81,
      "start": 58.2839,
      "duration": 0.0161,
      "velocity": 97,
      "chip": "ym2612"
    },
    {
      "channel": 3,
      "note": 84,
      "start": 58.285,
      "duration": 0.0162,
      "velocity": 97,
      "chip": "ym2612"
    },
    {
      "channel": 2,
      "note": 65,
      "start": 58.2862,
      "duration": 0.0161,
      "velocity": 100,
      "chip": "ym2612"
    },
    {
      "channel": 1,
      "note": 53,
      "start": 58.2873,
      "duration": 0.0161,
      "velocity": 100,
      "chip": "ym2612"
    },
    {
      "channel": 0,
      "note": 39,
      "start": 58.2988,
      "duration": 0.0161,
      "velocity": 115,
      "chip": "ym2612"
    },
    {
      "channel": 4,
      "note": 81,
      "start": 58.3,
      "duration": 0.0161,
      "velocity": 97,
      "chip": "ym2612"
    },
    {
      "channel": 3,
      "note": 84,
      "start": 58.3012,
      "duration": 0.0161,
      "velocity": 97,
      "chip": "ym2612"
    },
    {
      "channel": 2,
      "note": 65,
      "start": 58.3023,
      "duration": 0.0161,
      "velocity": 100,
      "chip": "ym2612"
    },
    {
      "channel": 1,
      "note": 53,
      "start": 58.3034,
      "duration": 0.0161,
      "velocity": 100,
      "chip": "ym2612"
    },
    {
      "channel": 0,
      "note": 39,
      "start": 58.3149,
      "duration": 0.0161,
      "velocity": 115,
      "chip": "ym2612"
    },
    {
      "channel": 4,
      "note": 81,
      "start": 58.3161,
      "duration": 0.0162,
      "velocity": 97,
      "chip": "ym2612"
    },
    {
      "channel": 3,
      "note": 84,
      "start": 58.3173,
      "duration": 0.0161,
      "velocity": 97,
      "chip": "ym2612"
    },
    {
      "channel": 2,
      "note": 65,
      "start": 58.3184,
      "duration": 0.0162,
      "velocity": 100,
      "chip": "ym2612"
    },
    {
      "channel": 1,
      "note": 53,
      "start": 58.3195,
      "duration": 0.0161,
      "velocity": 100,
      "chip": "ym2612"
    },
    {
      "channel": 0,
      "note": 40,
      "start": 58.331,
      "duration": 0.0161,
      "velocity": 115,
      "chip": "ym2612"
    },
    {
      "channel": 4,
      "note": 81,
      "start": 58.3322,
      "duration": 0.0161,
      "velocity": 97,
      "chip": "ym2612"
    },
    {
      "channel": 3,
      "note": 84,
      "start": 58.3334,
      "duration": 0.0161,
      "velocity": 97,
      "chip": "ym2612"
    },
    {
      "channel": 2,
      "note": 65,
      "start": 58.3345,
      "duration": 0.0161,
      "velocity": 100,
      "chip": "ym2612"
    },
    {
      "channel": 1,
      "note": 53,
      "start": 58.3357,
      "duration": 0.016,
      "velocity": 100,
      "chip": "ym2612"
    },
    {
      "channel": 0,
      "note": 40,
      "start": 58.3471,
      "duration": 0.0161,
      "velocity": 115,
      "chip": "ym2612"
    },
    {
      "channel": 4,
      "note": 81,
      "start": 58.3483,
      "duration": 0.0161,
      "velocity": 97,
      "chip": "ym2612"
    },
    {
      "channel": 3,
      "note": 84,
      "start": 58.3495,
      "duration": 0.0161,
      "velocity": 97,
      "chip": "ym2612"
    },
    {
      "channel": 2,
      "note": 65,
      "start": 58.3506,
      "duration": 0.0161,
      "velocity": 100,
      "chip": "ym2612"
    },
    {
      "channel": 1,
      "note": 53,
      "start": 58.3517,
      "duration": 0.0162,
      "velocity": 100,
      "chip": "ym2612"
    },
    {
      "channel": 0,
      "note": 40,
      "start": 58.3632,
      "duration": 0.0161,
      "velocity": 115,
      "chip": "ym2612"
    },
    {
      "channel": 4,
      "note": 81,
      "start": 58.3644,
      "duration": 0.0161,
      "velocity": 97,
      "chip": "ym2612"
    },
    {
      "channel": 3,
      "note": 84,
      "start": 58.3656,
      "duration": 0.0161,
      "velocity": 97,
      "chip": "ym2612"
    },
    {
      "channel": 0,
      "note": 41,
      "start": 58.3793,
      "duration": 0.0195,
      "velocity": 115,
      "chip": "ym2612"
    },
    {
      "channel": 4,
      "note": 81,
      "start": 58.3805,
      "duration": 0.0195,
      "velocity": 97,
      "chip": "ym2612"
    },
    {
      "channel": 3,
      "note": 84,
      "start": 58.3817,
      "duration": 0.0196,
      "velocity": 97,
      "chip": "ym2612"
    },
    {
      "channel": 1,
      "note": 78,
      "start": 58.3971,
      "duration": 0.0144,
      "velocity": 124,
      "chip": "ym2612"
    },
    {
      "channel": 0,
      "note": 41,
      "start": 58.3988,
      "duration": 0.0144,
      "velocity": 115,
      "chip": "ym2612"
    },
    {
      "channel": 4,
      "note": 81,
      "start": 58.4,
      "duration": 0.0144,
      "velocity": 97,
      "chip": "ym2612"
    },
    {
      "channel": 3,
      "note": 84,
      "start": 58.4013,
      "duration": 0.0143,
      "velocity": 97,
      "chip": "ym2612"
    },
    {
      "channel": 2,
      "note": 60,
      "start": 58.4026,
      "duration": 0.0142,
      "velocity": 100,
      "chip": "ym2612"
    },
    {
      "channel": 1,
      "note": 76,
      "start": 58.4115,
      "duration": 0.016,
      "velocity": 124,
      "chip": "ym2612"
    },
    {
      "channel": 0,
      "note": 42,
      "start": 58.4132,
      "duration": 0.016,
      "velocity": 115,
      "chip": "ym2612"
    },
    {
      "channel": 4,
      "note": 81,
      "start": 58.4144,
      "duration": 0.016,
      "velocity": 97,
      "chip": "ym2612"
    },
    {
      "channel": 3,
      "note": 84,
      "start": 58.4156,
      "duration": 0.0161,
      "velocity": 97,
      "chip": "ym2612"
    },
    {
      "channel": 2,
      "note": 60,
      "start": 58.4168,
      "duration": 0.016,
      "velocity": 100,
      "chip": "ym2612"
    },
    {
      "channel": 1,
      "note": 75,
      "start": 58.4275,
      "duration": 0.0163,
      "velocity": 124,
      "chip": "ym2612"
    },
    {
      "channel": 0,
      "note": 42,
      "start": 58.4293,
      "duration": 0.0163,
      "velocity": 115,
      "chip": "ym2612"
    },
    {
      "channel": 4,
      "note": 81,
      "start": 58.4305,
      "duration": 0.0163,
      "velocity": 97,
      "chip": "ym2612"
    },
    {
      "channel": 3,
      "note": 84,
      "start": 58.4317,
      "duration": 0.0163,
      "velocity": 97,
      "chip": "ym2612"
    },
    {
      "channel": 2,
      "note": 60,
      "start": 58.4327,
      "duration": 0.0163,
      "velocity": 100,
      "chip": "ym2612"
    },
    {
      "channel": 1,
      "note": 74,
      "start": 58.4439,
      "duration": 0.0167,
      "velocity": 124,
      "chip": "ym2612"
    },
    {
      "channel": 0,
      "note": 43,
      "start": 58.4456,
      "duration": 0.0167,
      "velocity": 115,
      "chip": "ym2612"
    },
    {
      "channel": 4,
      "note": 81,
      "start": 58.4468,
      "duration": 0.0167,
      "velocity": 97,
      "chip": "ym2612"
    },
    {
      "channel": 3,
      "note": 84,
      "start": 58.448,
      "duration": 0.0167,
      "velocity": 97,
      "chip": "ym2612"
    },
    {
      "channel": 2,
      "note": 60,
      "start": 58.4491,
      "duration": 0.0167,
      "velocity": 100,
      "chip": "ym2612"
    },
    {
      "channel": 1,
      "note": 72,
      "start": 58.4606,
      "duration": 0.0163,
      "velocity": 124,
      "chip": "ym2612"
    },
    {
      "channel": 0,
      "note": 43,
      "start": 58.4623,
      "duration": 0.0163,
      "velocity": 115,
      "chip": "ym2612"
    },
    {
      "channel": 4,
      "note": 81,
      "start": 58.4635,
      "duration": 0.0163,
      "velocity": 97,
      "chip": "ym2612"
    },
    {
      "channel": 3,
      "note": 84,
      "start": 58.4647,
      "duration": 0.0163,
      "velocity": 97,
      "chip": "ym2612"
    },
    {
      "channel": 2,
      "note": 60,
      "start": 58.4658,
      "duration": 0.0163,
      "velocity": 100,
      "chip": "ym2612"
    },
    {
      "channel": 1,
      "note": 71,
      "start": 58.4769,
      "duration": 0.0151,
      "velocity": 124,
      "chip": "ym2612"
    },
    {
      "channel": 0,
      "note": 44,
      "start": 58.4786,
      "duration": 0.0151,
      "velocity": 115,
      "chip": "ym2612"
    },
    {
      "channel": 4,
      "note": 81,
      "start": 58.4798,
      "duration": 0.0151,
      "velocity": 97,
      "chip": "ym2612"
    },
    {
      "channel": 3,
      "note": 84,
      "start": 58.481,
      "duration": 0.0151,
      "velocity": 97,
      "chip": "ym2612"
    },
    {
      "channel": 2,
      "note": 60,
      "start": 58.4821,
      "duration": 0.0151,
      "velocity": 100,
      "chip": "ym2612"
    },
    {
      "channel": 1,
      "note": 70,
      "start": 58.492,
      "duration": 0.0186,
      "velocity": 124,
      "chip": "ym2612"
    },
    {
      "channel": 0,
      "note": 44,
      "start": 58.4937,
      "duration": 0.0186,
      "velocity": 115,
      "chip": "ym2612"
    },
    {
      "channel": 4,
      "note": 81,
      "start": 58.4949,
      "duration": 0.0186,
      "velocity": 97,
      "chip": "ym2612"
    },
    {
      "channel": 3,
      "note": 84,
      "start": 58.4961,
      "duration": 0.0186,
      "velocity": 97,
      "chip": "ym2612"
    },
    {
      "channel": 2,
      "note": 60,
      "start": 58.4972,
      "duration": 0.0186,
      "velocity": 100,
      "chip": "ym2612"
    },
    {
      "channel": 1,
      "note": 69,
      "start": 58.5105,
      "duration": 0.0163,
      "velocity": 124,
      "chip": "ym2612"
    },
    {
      "channel": 0,
      "note": 44,
      "start": 58.5123,
      "duration": 0.0163,
      "velocity": 115,
      "chip": "ym2612"
    },
    {
      "channel": 4,
      "note": 81,
      "start": 58.5135,
      "duration": 0.0163,
      "velocity": 97,
      "chip": "ym2612"
    },
    {
      "channel": 3,
      "note": 84,
      "start": 58.5147,
      "duration": 0.0163,
      "velocity": 97,
      "chip": "ym2612"
    },
    {
      "channel": 2,
      "note": 60,
      "start": 58.5158,
      "duration": 0.0163,
      "velocity": 100,
      "chip": "ym2612"
    },
    {
      "channel": 1,
      "note": 68,
      "start": 58.5269,
      "duration": 0.0157,
      "velocity": 124,
      "chip": "ym2612"
    },
    {
      "channel": 0,
      "note": 45,
      "start": 58.5286,
      "duration": 0.0158,
      "velocity": 115,
      "chip": "ym2612"
    },
    {
      "channel": 4,
      "note": 81,
      "start": 58.5298,
      "duration": 0.0157,
      "velocity": 97,
      "chip": "ym2612"
    },
    {
      "channel": 3,
      "note": 84,
      "start": 58.531,
      "duration": 0.0158,
      "velocity": 97,
      "chip": "ym2612"
    },
    {
      "channel": 2,
      "note": 60,
      "start": 58.5321,
      "duration": 0.0157,
      "velocity": 100,
      "chip": "ym2612"
    },
    {
      "channel": 1,
      "note": 66,
      "start": 58.5426,
      "duration": 0.0141,
      "velocity": 124,
      "chip": "ym2612"
    },
    {
      "channel": 0,
      "note": 45,
      "start": 58.5444,
      "duration": 0.014,
      "velocity": 115,
      "chip": "ym2612"
    },
    {
      "channel": 4,
      "note": 81,
      "start": 58.5455,
      "duration": 0.0141,
      "velocity": 97,
      "chip": "ym2612"
    },
    {
      "channel": 3,
      "note": 84,
      "start": 58.5467,
      "duration": 0.014,
      "velocity": 97,
      "chip": "ym2612"
    },
    {
      "channel": 2,
      "note": 60,
      "start": 58.5478,
      "duration": 0.0141,
      "velocity": 100,
      "chip": "ym2612"
    },
    {
      "channel": 1,
      "note": 65,
      "start": 58.5567,
      "duration": 0.0158,
      "velocity": 124,
      "chip": "ym2612"
    },
    {
      "channel": 0,
      "note": 46,
      "start": 58.5584,
      "duration": 0.0186,
      "velocity": 115,
      "chip": "ym2612"
    },
    {
      "channel": 4,
      "note": 81,
      "start": 58.5596,
      "duration": 0.0185,
      "velocity": 97,
      "chip": "ym2612"
    },
    {
      "channel": 3,
      "note": 84,
      "start": 58.5607,
      "duration": 0.0186,
      "velocity": 97,
      "chip": "ym2612"
    },
    {
      "channel": 1,
      "note": 64,
      "start": 58.5724,
      "duration": 0.0161,
      "velocity": 124,
      "chip": "ym2612"
    },
    {
      "channel": 0,
      "note": 46,
      "start": 58.577,
      "duration": 0.0178,
      "velocity": 115,
      "chip": "ym2612"
    },
    {
      "channel": 4,
      "note": 81,
      "start": 58.5781,
      "duration": 0.018,
      "velocity": 97,
      "chip": "ym2612"
    },
    {
      "channel": 3,
      "note": 84,
      "start": 58.5793,
      "duration": 0.0179,
      "velocity": 97,
      "chip": "ym2612"
    },
    {
      "channel": 1,
      "note": 62,
      "start": 58.5885,
      "duration": 0.0161,
      "velocity": 124,
      "chip": "ym2612"
    },
    {
      "channel": 0,
      "note": 36,
      "start": 58.5948,
      "duration": 0.014,
      "velocity": 115,
      "chip": "ym2612"
    },
    {
      "channel": 4,
      "note": 81,
      "start": 58.5961,
      "duration": 0.014,
      "velocity": 97,
      "chip": "ym2612"
    },
    {
      "channel": 3,
      "note": 84,
      "start": 58.5973,
      "duration": 0.0139,
      "velocity": 97,
      "chip": "ym2612"
    },
    {
      "channel": 2,
      "note": 56,
      "start": 58.5987,
      "duration": 0.0137,
      "velocity": 100,
      "chip": "ym2612"
    },
    {
      "channel": 1,
      "note": 61,
      "start": 58.6046,
      "duration": 0.0162,
      "velocity": 124,
      "chip": "ym2612"
    },
    {
      "channel": 0,
      "note": 36,
      "start": 58.6088,
      "duration": 0.0137,
      "velocity": 115,
      "chip": "ym2612"
    },
    {
      "channel": 4,
      "note": 81,
      "start": 58.61,
      "duration": 0.014,
      "velocity": 97,
      "chip": "ym2612"
    },
    {
      "channel": 3,
      "note": 84,
      "start": 58.6112,
      "duration": 0.014,
      "velocity": 97,
      "chip": "ym2612"
    },
    {
      "channel": 2,
      "note": 56,
      "start": 58.6124,
      "duration": 0.0139,
      "velocity": 100,
      "chip": "ym2612"
    },
    {
      "channel": 1,
      "note": 60,
      "start": 58.6208,
      "duration": 0.0161,
      "velocity": 124,
      "chip": "ym2612"
    },
    {
      "channel": 0,
      "note": 37,
      "start": 58.6225,
      "duration": 0.0161,
      "velocity": 115,
      "chip": "ym2612"
    },
    {
      "channel": 4,
      "note": 81,
      "start": 58.624,
      "duration": 0.0185,
      "velocity": 97,
      "chip": "ym2612"
    },
    {
      "channel": 3,
      "note": 84,
      "start": 58.6252,
      "duration": 0.0185,
      "velocity": 97,
      "chip": "ym2612"
    },
    {
      "channel": 2,
      "note": 56,
      "start": 58.6263,
      "duration": 0.0185,
      "velocity": 100,
      "chip": "ym2612"
    },
    {
      "channel": 1,
      "note": 59,
      "start": 58.6369,
      "duration": 0.0161,
      "velocity": 124,
      "chip": "ym2612"
    },
    {
      "channel": 0,
      "note": 37,
      "start": 58.6386,
      "duration": 0.0161,
      "velocity": 115,
      "chip": "ym2612"
    },
    {
      "channel": 4,
      "note": 81,
      "start": 58.6425,
      "duration": 0.0134,
      "velocity": 97,
      "chip": "ym2612"
    },
    {
      "channel": 3,
      "note": 84,
      "start": 58.6437,
      "duration": 0.0161,
      "velocity": 97,
      "chip": "ym2612"
    },
    {
      "channel": 2,
      "note": 56,
      "start": 58.6448,
      "duration": 0.0161,
      "velocity": 100,
      "chip": "ym2612"
    },
    {
      "channel": 1,
      "note": 57,
      "start": 58.653,
      "duration": 0.0161,
      "velocity": 124,
      "chip": "ym2612"
    },
    {
      "channel": 0,
      "note": 38,
      "start": 58.6547,
      "duration": 0.0161,
      "velocity": 115,
      "chip": "ym2612"
    },
    {
      "channel": 4,
      "note": 81,
      "start": 58.6559,
      "duration": 0.0161,
      "velocity": 97,
      "chip": "ym2612"
    },
    {
      "channel": 3,
      "note": 84,
      "start": 58.6598,
      "duration": 0.0158,
      "velocity": 97,
      "chip": "ym2612"
    },
    {
      "channel": 2,
      "note": 56,
      "start": 58.6609,
      "duration": 0.0157,
      "velocity": 100,
      "chip": "ym2612"
    },
    {
      "channel": 1,
      "note": 56,
      "start": 58.6691,
      "duration": 0.0161,
      "velocity": 124,
      "chip": "ym2612"
    },
    {
      "channel": 0,
      "note": 38,
      "start": 58.6708,
      "duration": 0.0161,
      "velocity": 115,
      "chip": "ym2612"
    },
    {
      "channel": 4,
      "note": 81,
      "start": 58.672,
      "duration": 0.0161,
      "velocity": 97,
      "chip": "ym2612"
    },
    {
      "channel": 3,
      "note": 84,
      "start": 58.6756,
      "duration": 0.0137,
      "velocity": 97,
      "chip": "ym2612"
    },
    {
      "channel": 2,
      "note": 56,
      "start": 58.6766,
      "duration": 0.0141,
      "velocity": 100,
      "chip": "ym2612"
    },
    {
      "channel": 1,
      "note": 55,
      "start": 58.6852,
      "duration": 0.0161,
      "velocity": 124,
      "chip": "ym2612"
    },
    {
      "channel": 0,
      "note": 39,
      "start": 58.6869,
      "duration": 0.0161,
      "velocity": 115,
      "chip": "ym2612"
    },
    {
      "channel": 4,
      "note": 81,
      "start": 58.6881,
      "duration": 0.0161,
      "velocity": 97,
      "chip": "ym2612"
    },
    {
      "channel": 3,
      "note": 84,
      "start": 58.6892,
      "duration": 0.0161,
      "velocity": 97,
      "chip": "ym2612"
    },
    {
      "channel": 2,
      "note": 56,
      "start": 58.6907,
      "duration": 0.0185,
      "velocity": 100,
      "chip": "ym2612"
    },
    {
      "channel": 1,
      "note": 53,
      "start": 58.7013,
      "duration": 0.0161,
      "velocity": 124,
      "chip": "ym2612"
    },
    {
      "channel": 0,
      "note": 39,
      "start": 58.703,
      "duration": 0.0161,
      "velocity": 115,
      "chip": "ym2612"
    },
    {
      "channel": 4,
      "note": 81,
      "start": 58.7042,
      "duration": 0.0161,
      "velocity": 97,
      "chip": "ym2612"
    },
    {
      "channel": 3,
      "note": 84,
      "start": 58.7053,
      "duration": 0.0162,
      "velocity": 97,
      "chip": "ym2612"
    },
    {
      "channel": 2,
      "note": 56,
      "start": 58.7092,
      "duration": 0.0162,
      "velocity": 100,
      "chip": "ym2612"
    },
    {
      "channel": 1,
      "note": 52,
      "start": 58.7173,
      "duration": 0.0161,
      "velocity": 124,
      "chip": "ym2612"
    },
    {
      "channel": 0,
      "note": 40,
      "start": 58.7191,
      "duration": 0.0161,
      "velocity": 115,
      "chip": "ym2612"
    },
    {
      "channel": 4,
      "note": 81,
      "start": 58.7203,
      "duration": 0.0161,
      "velocity": 97,
      "chip": "ym2612"
    },
    {
      "channel": 3,
      "note": 84,
      "start": 58.7215,
      "duration": 0.016,
      "velocity": 97,
      "chip": "ym2612"
    },
    {
      "channel": 2,
      "note": 56,
      "start": 58.7254,
      "duration": 0.0133,
      "velocity": 100,
      "chip": "ym2612"
    },
    {
      "channel": 1,
      "note": 51,
      "start": 58.7334,
      "duration": 0.0153,
      "velocity": 1,
      "chip": "ym2612"
    },
    {
      "channel": 0,
      "note": 40,
      "start": 58.7352,
      "duration": 0.0153,
      "velocity": 115,
      "chip": "ym2612"
    },
    {
      "channel": 4,
      "note": 81,
      "start": 58.7364,
      "duration": 0.0153,
      "velocity": 97,
      "chip": "ym2612"
    },
    {
      "channel": 3,
      "note": 84,
      "start": 58.7375,
      "duration": 0.0153,
      "velocity": 97,
      "chip": "ym2612"
    },
    {
      "channel": 2,
      "note": 56,
      "start": 58.7387,
      "duration": 0.0153,
      "velocity": 100,
      "chip": "ym2612"
    },
    {
      "channel": 0,
      "note": 40,
      "start": 58.7505,
      "duration": 0.0153,
      "velocity": 115,
      "chip": "ym2612"
    },
    {
      "channel": 4,
      "note": 81,
      "start": 58.7517,
      "duration": 0.0152,
      "velocity": 97,
      "chip": "ym2612"
    },
    {
      "channel": 3,
      "note": 84,
      "start": 58.7529,
      "duration": 0.0153,
      "velocity": 97,
      "chip": "ym2612"
    },
    {
      "channel": 0,
      "note": 41,
      "start": 58.7658,
      "duration": 0.0178,
      "velocity": 115,
      "chip": "ym2612"
    },
    {
      "channel": 4,
      "note": 81,
      "start": 58.7669,
      "duration": 0.0181,
      "velocity": 97,
      "chip": "ym2612"
    },
    {
      "channel": 3,
      "note": 84,
      "start": 58.7681,
      "duration": 0.0183,
      "velocity": 97,
      "chip": "ym2612"
    },
    {
      "channel": 0,
      "note": 36,
      "start": 58.7837,
      "duration": 0.0144,
      "velocity": 115,
      "chip": "ym2612"
    },
    {
      "channel": 4,
      "note": 77,
      "start": 58.7851,
      "duration": 0.0141,
      "velocity": 97,
      "chip": "ym2612"
    },
    {
      "channel": 3,
      "note": 80,
      "start": 58.7865,
      "duration": 0.0139,
      "velocity": 97,
      "chip": "ym2612"
    },
    {
      "channel": 2,
      "note": 49,
      "start": 58.788,
      "duration": 0.0137,
      "velocity": 100,
      "chip": "ym2612"
    },
    {
      "channel": 1,
      "note": 37,
      "start": 58.7922,
      "duration": 0.0107,
      "velocity": 100,
      "chip": "ym2612"
    },
    {
      "channel": 0,
      "note": 36,
      "start": 58.798,
      "duration": 0.016,
      "velocity": 115,
      "chip": "ym2612"
    },
    {
      "channel": 4,
      "note": 77,
      "start": 58.7992,
      "duration": 0.016,
      "velocity": 97,
      "chip": "ym2612"
    },
    {
      "channel": 3,
      "note": 80,
      "start": 58.8004,
      "duration": 0.016,
      "velocity": 97,
      "chip": "ym2612"
    },
    {
      "channel": 2,
      "note": 49,
      "start": 58.8016,
      "duration": 0.0159,
      "velocity": 100,
      "chip": "ym2612"
    },
    {
      "channel": 1,
      "note": 37,
      "start": 58.8029,
      "duration": 0.0158,
      "velocity": 100,
      "chip": "ym2612"
    },
    {
      "channel": 0,
      "note": 37,
      "start": 58.8141,
      "duration": 0.0161,
      "velocity": 115,
      "chip": "ym2612"
    },
    {
      "channel": 4,
      "note": 77,
      "start": 58.8153,
      "duration": 0.0161,
      "velocity": 97,
      "chip": "ym2612"
    },
    {
      "channel": 3,
      "note": 80,
      "start": 58.8164,
      "duration": 0.0161,
      "velocity": 97,
      "chip": "ym2612"
    },
    {
      "channel": 2,
      "note": 49,
      "start": 58.8175,
      "duration": 0.0161,
      "velocity": 100,
      "chip": "ym2612"
    },
    {
      "channel": 1,
      "note": 37,
      "start": 58.8186,
      "duration": 0.0161,
      "velocity": 100,
      "chip": "ym2612"
    },
    {
      "channel": 0,
      "note": 37,
      "start": 58.8301,
      "duration": 0.0161,
      "velocity": 115,
      "chip": "ym2612"
    },
    {
      "channel": 4,
      "note": 77,
      "start": 58.8314,
      "duration": 0.0161,
      "velocity": 97,
      "chip": "ym2612"
    },
    {
      "channel": 3,
      "note": 80,
      "start": 58.8325,
      "duration": 0.0161,
      "velocity": 97,
      "chip": "ym2612"
    },
    {
      "channel": 2,
      "note": 49,
      "start": 58.8336,
      "duration": 0.0161,
      "velocity": 100,
      "chip": "ym2612"
    },
    {
      "channel": 1,
      "note": 37,
      "start": 58.8347,
      "duration": 0.0161,
      "velocity": 100,
      "chip": "ym2612"
    },
    {
      "channel": 0,
      "note": 38,
      "start": 58.8462,
      "duration": 0.0161,
      "velocity": 115,
      "chip": "ym2612"
    },
    {
      "channel": 4,
      "note": 77,
      "start": 58.8474,
      "duration": 0.0161,
      "velocity": 97,
      "chip": "ym2612"
    },
    {
      "channel": 3,
      "note": 80,
      "start": 58.8486,
      "duration": 0.0161,
      "velocity": 97,
      "chip": "ym2612"
    },
    {
      "channel": 2,
      "note": 49,
      "start": 58.8497,
      "duration": 0.0162,
      "velocity": 100,
      "chip": "ym2612"
    },
    {
      "channel": 1,
      "note": 37,
      "start": 58.8508,
      "duration": 0.0161,
      "velocity": 100,
      "chip": "ym2612"
    },
    {
      "channel": 0,
      "note": 38,
      "start": 58.8623,
      "duration": 0.0161,
      "velocity": 115,
      "chip": "ym2612"
    },
    {
      "channel": 4,
      "note": 77,
      "start": 58.8635,
      "duration": 0.0161,
      "velocity": 97,
      "chip": "ym2612"
    },
    {
      "channel": 3,
      "note": 80,
      "start": 58.8647,
      "duration": 0.0161,
      "velocity": 97,
      "chip": "ym2612"
    },
    {
      "channel": 2,
      "note": 49,
      "start": 58.8658,
      "duration": 0.0161,
      "velocity": 100,
      "chip": "ym2612"
    },
    {
      "channel": 1,
      "note": 37,
      "start": 58.8669,
      "duration": 0.0161,
      "velocity": 100,
      "chip": "ym2612"
    },
    {
      "channel": 0,
      "note": 39,
      "start": 58.8784,
      "duration": 0.0161,
      "velocity": 115,
      "chip": "ym2612"
    },
    {
      "channel": 4,
      "note": 77,
      "start": 58.8796,
      "duration": 0.0161,
      "velocity": 97,
      "chip": "ym2612"
    },
    {
      "channel": 3,
      "note": 80,
      "start": 58.8808,
      "duration": 0.0161,
      "velocity": 97,
      "chip": "ym2612"
    },
    {
      "channel": 2,
      "note": 49,
      "start": 58.8819,
      "duration": 0.0161,
      "velocity": 100,
      "chip": "ym2612"
    },
    {
      "channel": 1,
      "note": 37,
      "start": 58.883,
      "duration": 0.0161,
      "velocity": 100,
      "chip": "ym2612"
    },
    {
      "channel": 0,
      "note": 39,
      "start": 58.8945,
      "duration": 0.0162,
      "velocity": 115,
      "chip": "ym2612"
    },
    {
      "channel": 4,
      "note": 77,
      "start": 58.8957,
      "duration": 0.0161,
      "velocity": 97,
      "chip": "ym2612"
    },
    {
      "channel": 3,
      "note": 80,
      "start": 58.8969,
      "duration": 0.0162,
      "velocity": 97,
      "chip": "ym2612"
    },
    {
      "channel": 2,
      "note": 49,
      "start": 58.898,
      "duration": 0.0161,
      "velocity": 100,
      "chip": "ym2612"
    },
    {
      "channel": 1,
      "note": 37,
      "start": 58.8991,
      "duration": 0.0162,
      "velocity": 100,
      "chip": "ym2612"
    },
    {
      "channel": 0,
      "note": 40,
      "start": 58.9107,
      "duration": 0.0167,
      "velocity": 115,
      "chip": "ym2612"
    },
    {
      "channel": 4,
      "note": 77,
      "start": 58.9119,
      "duration": 0.0166,
      "velocity": 97,
      "chip": "ym2612"
    },
    {
      "channel": 3,
      "note": 80,
      "start": 58.913,
      "duration": 0.0166,
      "velocity": 97,
      "chip": "ym2612"
    },
    {
      "channel": 2,
      "note": 49,
      "start": 58.9141,
      "duration": 0.0167,
      "velocity": 100,
      "chip": "ym2612"
    },
    {
      "channel": 1,
      "note": 37,
      "start": 58.9153,
      "duration": 0.0167,
      "velocity": 100,
      "chip": "ym2612"
    },
    {
      "channel": 0,
      "note": 40,
      "start": 58.9273,
      "duration": 0.0163,
      "velocity": 115,
      "chip": "ym2612"
    },
    {
      "channel": 4,
      "note": 77,
      "start": 58.9285,
      "duration": 0.0163,
      "velocity": 97,
      "chip": "ym2612"
    },
    {
      "channel": 3,
      "note": 80,
      "start": 58.9296,
      "duration": 0.0163,
      "velocity": 97,
      "chip": "ym2612"
    },
    {
      "channel": 2,
      "note": 49,
      "start": 58.9308,
      "duration": 0.0163,
      "velocity": 100,
      "chip": "ym2612"
    },
    {
      "channel": 1,
      "note": 37,
      "start": 58.9319,
      "duration": 0.0163,
      "velocity": 100,
      "chip": "ym2612"
    },
    {
      "channel": 0,
      "note": 40,
      "start": 58.9436,
      "duration": 0.0153,
      "velocity": 115,
      "chip": "ym2612"
    },
    {
      "channel": 4,
      "note": 77,
      "start": 58.9448,
      "duration": 0.0153,
      "velocity": 97,
      "chip": "ym2612"
    },
    {
      "channel": 3,
      "note": 80,
      "start": 58.946,
      "duration": 0.0153,
      "velocity": 97,
      "chip": "ym2612"
    },
    {
      "channel": 0,
      "note": 41,
      "start": 58.959,
      "duration": 0.0184,
      "velocity": 115,
      "chip": "ym2612"
    },
    {
      "channel": 4,
      "note": 77,
      "start": 58.9602,
      "duration": 0.0183,
      "velocity": 97,
      "chip": "ym2612"
    },
    {
      "channel": 3,
      "note": 80,
      "start": 58.9613,
      "duration": 0.0184,
      "velocity": 97,
      "chip": "ym2612"
    },
    {
      "channel": 0,
      "note": 41,
      "start": 58.9773,
      "duration": 0.0165,
      "velocity": 115,
      "chip": "ym2612"
    },
    {
      "channel": 4,
      "note": 77,
      "start": 58.9785,
      "duration": 0.0166,
      "velocity": 97,
      "chip": "ym2612"
    },
    {
      "channel": 3,
      "note": 80,
      "start": 58.9797,
      "duration": 0.0165,
      "velocity": 97,
      "chip": "ym2612"
    },
    {
      "channel": 2,
      "note": 56,
      "start": 58.9811,
      "duration": 0.0163,
      "velocity": 100,
      "chip": "ym2612"
    },
    {
      "channel": 1,
      "note": 44,
      "start": 58.9825,
      "duration": 0.0162,
      "velocity": 100,
      "chip": "ym2612"
    },
    {
      "channel": 0,
      "note": 42,
      "start": 58.9939,
      "duration": 0.0158,
      "velocity": 115,
      "chip": "ym2612"
    },
    {
      "channel": 4,
      "note": 77,
      "start": 58.9951,
      "duration": 0.0158,
      "velocity": 97,
      "chip": "ym2612"
    },
    {
      "channel": 3,
      "note": 80,
      "start": 58.9962,
      "duration": 0.0158,
      "velocity": 97,
      "chip": "ym2612"
    },
    {
      "channel": 2,
      "note": 56,
      "start": 58.9974,
      "duration": 0.0157,
      "velocity": 100,
      "chip": "ym2612"
    },
    {
      "channel": 1,
      "note": 44,
      "start": 58.9987,
      "duration": 0.0156,
      "velocity": 100,
      "chip": "ym2612"
    },
    {
      "channel": 0,
      "note": 42,
      "start": 59.0097,
      "duration": 0.014,
      "velocity": 115,
      "chip": "ym2612"
    },
    {
      "channel": 4,
      "note": 77,
      "start": 59.0109,
      "duration": 0.014,
      "velocity": 97,
      "chip": "ym2612"
    },
    {
      "channel": 3,
      "note": 80,
      "start": 59.012,
      "duration": 0.0141,
      "velocity": 97,
      "chip": "ym2612"
    },
    {
      "channel": 2,
      "note": 56,
      "start": 59.0132,
      "duration": 0.014,
      "velocity": 100,
      "chip": "ym2612"
    },
    {
      "channel": 1,
      "note": 44,
      "start": 59.0143,
      "duration": 0.014,
      "velocity": 100,
      "chip": "ym2612"
    },
    {
      "channel": 0,
      "note": 43,
      "start": 59.0237,
      "duration": 0.0186,
      "velocity": 115,
      "chip": "ym2612"
    },
    {
      "channel": 4,
      "note": 77,
      "start": 59.0249,
      "duration": 0.0186,
      "velocity": 97,
      "chip": "ym2612"
    },
    {
      "channel": 3,
      "note": 80,
      "start": 59.0261,
      "duration": 0.0185,
      "velocity": 97,
      "chip": "ym2612"
    },
    {
      "channel": 2,
      "note": 56,
      "start": 59.0271,
      "duration": 0.0186,
      "velocity": 100,
      "chip": "ym2612"
    },
    {
      "channel": 1,
      "note": 44,
      "start": 59.0283,
      "duration": 0.0186,
      "velocity": 100,
      "chip": "ym2612"
    },
    {
      "channel": 0,
      "note": 43,
      "start": 59.0422,
      "duration": 0.0134,
      "velocity": 115,
      "chip": "ym2612"
    },
    {
      "channel": 4,
      "note": 77,
      "start": 59.0434,
      "duration": 0.0161,
      "velocity": 97,
      "chip": "ym2612"
    },
    {
      "channel": 3,
      "note": 80,
      "start": 59.0446,
      "duration": 0.0161,
      "velocity": 97,
      "chip": "ym2612"
    },
    {
      "channel": 2,
      "note": 56,
      "start": 59.0457,
      "duration": 0.0161,
      "velocity": 100,
      "chip": "ym2612"
    },
    {
      "channel": 1,
      "note": 44,
      "start": 59.0469,
      "duration": 0.0161,
      "velocity": 100,
      "chip": "ym2612"
    },
    {
      "channel": 0,
      "note": 44,
      "start": 59.0556,
      "duration": 0.0161,
      "velocity": 115,
      "chip": "ym2612"
    },
    {
      "channel": 4,
      "note": 77,
      "start": 59.0595,
      "duration": 0.0157,
      "velocity": 97,
      "chip": "ym2612"
    },
    {
      "channel": 3,
      "note": 80,
      "start": 59.0607,
      "duration": 0.0158,
      "velocity": 97,
      "chip": "ym2612"
    },
    {
      "channel": 2,
      "note": 56,
      "start": 59.0618,
      "duration": 0.0157,
      "velocity": 100,
      "chip": "ym2612"
    },
    {
      "channel": 1,
      "note": 44,
      "start": 59.063,
      "duration": 0.0157,
      "velocity": 100,
      "chip": "ym2612"
    },
    {
      "channel": 0,
      "note": 44,
      "start": 59.0717,
      "duration": 0.0161,
      "velocity": 115,
      "chip": "ym2612"
    },
    {
      "channel": 4,
      "note": 77,
      "start": 59.0752,
      "duration": 0.0137,
      "velocity": 97,
      "chip": "ym2612"
    },
    {
      "channel": 3,
      "note": 80,
      "start": 59.0765,
      "duration": 0.014,
      "velocity": 97,
      "chip": "ym2612"
    },
    {
      "channel": 2,
      "note": 56,
      "start": 59.0775,
      "duration": 0.0141,
      "velocity": 100,
      "chip": "ym2612"
    },
    {
      "channel": 1,
      "note": 44,
      "start": 59.0787,
      "duration": 0.0141,
      "velocity": 100,
      "chip": "ym2612"
    },
    {
      "channel": 0,
      "note": 44,
      "start": 59.0878,
      "duration": 0.0161,
      "velocity": 115,
      "chip": "ym2612"
    },
    {
      "channel": 4,
      "note": 77,
      "start": 59.089,
      "duration": 0.0161,
      "velocity": 97,
      "chip": "ym2612"
    },
    {
      "channel": 3,
      "note": 80,
      "start": 59.0905,
      "duration": 0.0186,
      "velocity": 97,
      "chip": "ym2612"
    },
    {
      "channel": 2,
      "note": 56,
      "start": 59.0916,
      "duration": 0.0186,
      "velocity": 100,
      "chip": "ym2612"
    },
    {
      "channel": 1,
      "note": 44,
      "start": 59.0927,
      "duration": 0.0185,
      "velocity": 100,
      "chip": "ym2612"
    },
    {
      "channel": 0,
      "note": 45,
      "start": 59.1039,
      "duration": 0.0161,
      "velocity": 115,
      "chip": "ym2612"
    },
    {
      "channel": 4,
      "note": 77,
      "start": 59.1051,
      "duration": 0.0161,
      "velocity": 97,
      "chip": "ym2612"
    },
    {
      "channel": 3,
      "note": 80,
      "start": 59.109,
      "duration": 0.0133,
      "velocity": 97,
      "chip": "ym2612"
    },
    {
      "channel": 2,
      "note": 56,
      "start": 59.1102,
      "duration": 0.016,
      "velocity": 100,
      "chip": "ym2612"
    },
    {
      "channel": 1,
      "note": 44,
      "start": 59.1112,
      "duration": 0.0161,
      "velocity": 100,
      "chip": "ym2612"
    },
    {
      "channel": 0,
      "note": 45,
      "start": 59.12,
      "duration": 0.0161,
      "velocity": 115,
      "chip": "ym2612"
    },
    {
      "channel": 4,
      "note": 77,
      "start": 59.1212,
      "duration": 0.0161,
      "velocity": 97,
      "chip": "ym2612"
    },
    {
      "channel": 3,
      "note": 80,
      "start": 59.1223,
      "duration": 0.0161,
      "velocity": 97,
      "chip": "ym2612"
    },
    {
      "channel": 2,
      "note": 56,
      "start": 59.1262,
      "duration": 0.0158,
      "velocity": 100,
      "chip": "ym2612"
    },
    {
      "channel": 1,
      "note": 44,
      "start": 59.1273,
      "duration": 0.0158,
      "velocity": 100,
      "chip": "ym2612"
    },
    {
      "channel": 0,
      "note": 46,
      "start": 59.1361,
      "duration": 0.0161,
      "velocity": 115,
      "chip": "ym2612"
    },
    {
      "channel": 4,
      "note": 77,
      "start": 59.1373,
      "duration": 0.0161,
      "velocity": 97,
      "chip": "ym2612"
    },
    {
      "channel": 3,
      "note": 80,
      "start": 59.1384,
      "duration": 0.0161,
      "velocity": 97,
      "chip": "ym2612"
    },
    {
      "channel": 0,
      "note": 46,
      "start": 59.1522,
      "duration": 0.0195,
      "velocity": 115,
      "chip": "ym2612"
    },
    {
      "channel": 4,
      "note": 77,
      "start": 59.1534,
      "duration": 0.0223,
      "velocity": 97,
      "chip": "ym2612"
    },
    {
      "channel": 3,
      "note": 80,
      "start": 59.1545,
      "duration": 0.0223,
      "velocity": 97,
      "chip": "ym2612"
    },
    {
      "channel": 1,
      "note": 78,
      "start": 59.17,
      "duration": 0.0144,
      "velocity": 124,
      "chip": "ym2612"
    },
    {
      "channel": 0,
      "note": 47,
      "start": 59.1717,
      "duration": 0.0144,
      "velocity": 115,
      "chip": "ym2612"
    },
    {
      "channel": 4,
      "note": 77,
      "start": 59.1757,
      "duration": 0.0116,
      "velocity": 97,
      "chip": "ym2612"
    },
    {
      "channel": 3,
      "note": 80,
      "start": 59.1768,
      "duration": 0.0116,
      "velocity": 97,
      "chip": "ym2612"
    },
    {
      "channel": 2,
      "note": 61,
      "start": 59.1782,
      "duration": 0.0141,
      "velocity": 100,
      "chip": "ym2612"
    },
    {
      "channel": 1,
      "note": 76,
      "start": 59.1843,
      "duration": 0.016,
      "velocity": 124,
      "chip": "ym2612"
    },
    {
      "channel": 0,
      "note": 47,
      "start": 59.1861,
      "duration": 0.0161,
      "velocity": 115,
      "chip": "ym2612"
    },
    {
      "channel": 4,
      "note": 77,
      "start": 59.1873,
      "duration": 0.016,
      "velocity": 97,
      "chip": "ym2612"
    },
    {
      "channel": 3,
      "note": 80,
      "start": 59.1884,
      "duration": 0.0161,
      "velocity": 97,
      "chip": "ym2612"
    },
    {
      "channel": 2,
      "note": 61,
      "start": 59.1924,
      "duration": 0.0133,
      "velocity": 100,
      "chip": "ym2612"
    },
    {
      "channel": 1,
      "note": 75,
      "start": 59.2004,
      "duration": 0.0161,
      "velocity": 124,
      "chip": "ym2612"
    },
    {
      "channel": 0,
      "note": 47,
      "start": 59.2022,
      "duration": 0.0161,
      "velocity": 115,
      "chip": "ym2612"
    },
    {
      "channel": 4,
      "note": 77,
      "start": 59.2033,
      "duration": 0.0161,
      "velocity": 97,
      "chip": "ym2612"
    },
    {
      "channel": 3,
      "note": 80,
      "start": 59.2045,
      "duration": 0.0161,
      "velocity": 97,
      "chip": "ym2612"
    },
    {
      "channel": 2,
      "note": 61,
      "start": 59.2056,
      "duration": 0.0161,
      "velocity": 100,
      "chip": "ym2612"
    },
    {
      "channel": 1,
      "note": 74,
      "start": 59.2165,
      "duration": 0.0162,
      "velocity": 124,
      "chip": "ym2612"
    },
    {
      "channel": 0,
      "note": 48,
      "start": 59.2183,
      "duration": 0.0161,
      "velocity": 115,
      "chip": "ym2612"
    },
    {
      "channel": 4,
      "note": 77,
      "start": 59.2194,
      "duration": 0.0162,
      "velocity": 97,
      "chip": "ym2612"
    },
    {
      "channel": 3,
      "note": 80,
      "start": 59.2206,
      "duration": 0.0162,
      "velocity": 97,
      "chip": "ym2612"
    },
    {
      "channel": 2,
      "note": 61,
      "start": 59.2217,
      "duration": 0.0161,
      "velocity": 100,
      "chip": "ym2612"
    },
    {
      "channel": 1,
      "note": 72,
      "start": 59.2326,
      "duration": 0.0161,
      "velocity": 124,
      "chip": "ym2612"
    },
    {
      "channel": 0,
      "note": 48,
      "start": 59.2343,
      "duration": 0.0161,
      "velocity": 115,
      "chip": "ym2612"
    },
    {
      "channel": 4,
      "note": 77,
      "start": 59.2356,
      "duration": 0.0161,
      "velocity": 97,
      "chip": "ym2612"
    },
    {
      "channel": 3,
      "note": 80,
      "start": 59.2368,
      "duration": 0.016,
      "velocity": 97,
      "chip": "ym2612"
    },
    {
      "channel": 2,
      "note": 61,
      "start": 59.2378,
      "duration": 0.0161,
      "velocity": 100,
      "chip": "ym2612"
    },
    {
      "channel": 1,
      "note": 71,
      "start": 59.2487,
      "duration": 0.0161,
      "velocity": 124,
      "chip": "ym2612"
    },
    {
      "channel": 0,
      "note": 49,
      "start": 59.2504,
      "duration": 0.0153,
      "velocity": 1,
      "chip": "ym2612"
    },
    {
      "channel": 4,
      "note": 77,
      "start": 59.2516,
      "duration": 0.0153,
      "velocity": 97,
      "chip": "ym2612"
    },
    {
      "channel": 3,
      "note": 80,
      "start": 59.2528,
      "duration": 0.0153,
      "velocity": 97,
      "chip": "ym2612"
    },
    {
      "channel": 2,
      "note": 61,
      "start": 59.2539,
      "duration": 0.0154,
      "velocity": 100,
      "chip": "ym2612"
    },
    {
      "channel": 1,
      "note": 70,
      "start": 59.2648,
      "duration": 0.0161,
      "velocity": 124,
      "chip": "ym2612"
    },
    {
      "channel": 4,
      "note": 77,
      "start": 59.2669,
      "duration": 0.0153,
      "velocity": 97,
      "chip": "ym2612"
    },
    {
      "channel": 3,
      "note": 80,
      "start": 59.2681,
      "duration": 0.0152,
      "velocity": 97,
      "chip": "ym2612"
    },
    {
      "channel": 2,
      "note": 61,
      "start": 59.2693,
      "duration": 0.0152,
      "velocity": 100,
      "chip": "ym2612"
    },
    {
      "channel": 1,
      "note": 69,
      "start": 59.2809,
      "duration": 0.0161,
      "velocity": 124,
      "chip": "ym2612"
    },
    {
      "channel": 4,
      "note": 77,
      "start": 59.2822,
      "duration": 0.0161,
      "velocity": 97,
      "chip": "ym2612"
    },
    {
      "channel": 3,
      "note": 80,
      "start": 59.2833,
      "duration": 0.0161,
      "velocity": 97,
      "chip": "ym2612"
    },
    {
      "channel": 2,
      "note": 61,
      "start": 59.2845,
      "duration": 0.0161,
      "velocity": 100,
      "chip": "ym2612"
    },
    {
      "channel": 1,
      "note": 68,
      "start": 59.297,
      "duration": 0.0161,
      "velocity": 124,
      "chip": "ym2612"
    },
    {
      "channel": 4,
      "note": 77,
      "start": 59.2983,
      "duration": 0.0161,
      "velocity": 97,
      "chip": "ym2612"
    },
    {
      "channel": 3,
      "note": 80,
      "start": 59.2994,
      "duration": 0.0162,
      "velocity": 97,
      "chip": "ym2612"
    },
    {
      "channel": 2,
      "note": 61,
      "start": 59.3006,
      "duration": 0.0161,
      "velocity": 100,
      "chip": "ym2612"
    },
    {
      "channel": 1,
      "note": 66,
      "start": 59.3131,
      "duration": 0.0161,
      "velocity": 124,
      "chip": "ym2612"
    },
    {
      "channel": 4,
      "note": 77,
      "start": 59.3144,
      "duration": 0.0161,
      "velocity": 97,
      "chip": "ym2612"
    },
    {
      "channel": 3,
      "note": 80,
      "start": 59.3156,
      "duration": 0.0161,
      "velocity": 97,
      "chip": "ym2612"
    },
    {
      "channel": 2,
      "note": 61,
      "start": 59.3167,
      "duration": 0.0161,
      "velocity": 100,
      "chip": "ym2612"
    },
    {
      "channel": 1,
      "note": 65,
      "start": 59.3292,
      "duration": 0.0161,
      "velocity": 124,
      "chip": "ym2612"
    },
    {
      "channel": 4,
      "note": 77,
      "start": 59.3305,
      "duration": 0.0162,
      "velocity": 97,
      "chip": "ym2612"
    },
    {
      "channel": 3,
      "note": 80,
      "start": 59.3317,
      "duration": 0.0161,
      "velocity": 97,
      "chip": "ym2612"
    },
    {
      "channel": 1,
      "note": 64,
      "start": 59.3453,
      "duration": 0.0161,
      "velocity": 124,
      "chip": "ym2612"
    },
    {
      "channel": 4,
      "note": 77,
      "start": 59.3466,
      "duration": 0.0195,
      "velocity": 97,
      "chip": "ym2612"
    },
    {
      "channel": 3,
      "note": 80,
      "start": 59.3478,
      "duration": 0.0196,
      "velocity": 97,
      "chip": "ym2612"
    },
    {
      "channel": 1,
      "note": 62,
      "start": 59.3614,
      "duration": 0.0161,
      "velocity": 124,
      "chip": "ym2612"
    },
    {
      "channel": 0,
      "note": 36,
      "start": 59.3649,
      "duration": 0.0144,
      "velocity": 115,
      "chip": "ym2612"
    },
    {
      "channel": 4,
      "note": 77,
      "start": 59.3661,
      "duration": 0.0143,
      "velocity": 97,
      "chip": "ym2612"
    },
    {
      "channel": 3,
      "note": 80,
      "start": 59.3673,
      "duration": 0.0143,
      "velocity": 97,
      "chip": "ym2612"
    },
    {
      "channel": 2,
      "note": 59,
      "start": 59.3687,
      "duration": 0.0141,
      "velocity": 100,
      "chip": "ym2612"
    },
    {
      "channel": 1,
      "note": 61,
      "start": 59.3775,
      "duration": 0.0163,
      "velocity": 124,
      "chip": "ym2612"
    },
    {
      "channel": 0,
      "note": 36,
      "start": 59.3793,
      "duration": 0.0163,
      "velocity": 115,
      "chip": "ym2612"
    },
    {
      "channel": 4,
      "note": 77,
      "start": 59.3805,
      "duration": 0.0163,
      "velocity": 97,
      "chip": "ym2612"
    },
    {
      "channel": 3,
      "note": 80,
      "start": 59.3817,
      "duration": 0.0163,
      "velocity": 97,
      "chip": "ym2612"
    },
    {
      "channel": 2,
      "note": 59,
      "start": 59.3828,
      "duration": 0.0163,
      "velocity": 100,
      "chip": "ym2612"
    },
    {
      "channel": 1,
      "note": 60,
      "start": 59.3939,
      "duration": 0.0163,
      "velocity": 124,
      "chip": "ym2612"
    },
    {
      "channel": 0,
      "note": 37,
      "start": 59.3956,
      "duration": 0.0163,
      "velocity": 115,
      "chip": "ym2612"
    },
    {
      "channel": 4,
      "note": 77,
      "start": 59.3968,
      "duration": 0.0163,
      "velocity": 97,
      "chip": "ym2612"
    },
    {
      "channel": 3,
      "note": 80,
      "start": 59.398,
      "duration": 0.0163,
      "velocity": 97,
      "chip": "ym2612"
    },
    {
      "channel": 2,
      "note": 59,
      "start": 59.3991,
      "duration": 0.0163,
      "velocity": 100,
      "chip": "ym2612"
    },
    {
      "channel": 1,
      "note": 59,
      "start": 59.4102,
      "duration": 0.0156,
      "velocity": 124,
      "chip": "ym2612"
    },
    {
      "channel": 0,
      "note": 37,
      "start": 59.412,
      "duration": 0.0156,
      "velocity": 115,
      "chip": "ym2612"
    },
    {
      "channel": 4,
      "note": 77,
      "start": 59.4132,
      "duration": 0.0156,
      "velocity": 97,
      "chip": "ym2612"
    },
    {
      "channel": 3,
      "note": 80,
      "start": 59.4143,
      "duration": 0.0156,
      "velocity": 97,
      "chip": "ym2612"
    },
    {
      "channel": 2,
      "note": 59,
      "start": 59.4154,
      "duration": 0.0156,
      "velocity": 100,
      "chip": "ym2612"
    },
    {
      "channel": 1,
      "note": 57,
      "start": 59.4258,
      "duration": 0.0181,
      "velocity": 124,
      "chip": "ym2612"
    },
    {
      "channel": 0,
      "note": 38,
      "start": 59.4275,
      "duration": 0.0181,
      "velocity": 115,
      "chip": "ym2612"
    },
    {
      "channel": 4,
      "note": 77,
      "start": 59.4288,
      "duration": 0.018,
      "velocity": 97,
      "chip": "ym2612"
    },
    {
      "channel": 3,
      "note": 80,
      "start": 59.4299,
      "duration": 0.0181,
      "velocity": 97,
      "chip": "ym2612"
    },
    {
      "channel": 2,
      "note": 59,
      "start": 59.431,
      "duration": 0.018,
      "velocity": 100,
      "chip": "ym2612"
    },
    {
      "channel": 1,
      "note": 56,
      "start": 59.4439,
      "duration": 0.0167,
      "velocity": 124,
      "chip": "ym2612"
    },
    {
      "channel": 0,
      "note": 38,
      "start": 59.4456,
      "duration": 0.0167,
      "velocity": 115,
      "chip": "ym2612"
    },
    {
      "channel": 4,
      "note": 77,
      "start": 59.4468,
      "duration": 0.0167,
      "velocity": 97,
      "chip": "ym2612"
    },
    {
      "channel": 3,
      "note": 80,
      "start": 59.448,
      "duration": 0.0167,
      "velocity": 97,
      "chip": "ym2612"
    },
    {
      "channel": 2,
      "note": 59,
      "start": 59.4491,
      "duration": 0.0167,
      "velocity": 100,
      "chip": "ym2612"
    },
    {
      "channel": 1,
      "note": 55,
      "start": 59.4606,
      "duration": 0.0159,
      "velocity": 124,
      "chip": "ym2612"
    },
    {
      "channel": 0,
      "note": 39,
      "start": 59.4623,
      "duration": 0.0159,
      "velocity": 115,
      "chip": "ym2612"
    },
    {
      "channel": 4,
      "note": 77,
      "start": 59.4635,
      "duration": 0.0159,
      "velocity": 97,
      "chip": "ym2612"
    },
    {
      "channel": 3,
      "note": 80,
      "start": 59.4647,
      "duration": 0.0159,
      "velocity": 97,
      "chip": "ym2612"
    },
    {
      "channel": 2,
      "note": 59,
      "start": 59.4658,
      "duration": 0.0159,
      "velocity": 100,
      "chip": "ym2612"
    },
    {
      "channel": 1,
      "note": 53,
      "start": 59.4765,
      "duration": 0.014,
      "velocity": 124,
      "chip": "ym2612"
    },
    {
      "channel": 0,
      "note": 39,
      "start": 59.4782,
      "duration": 0.0141,
      "velocity": 115,
      "chip": "ym2612"
    },
    {
      "channel": 4,
      "note": 77,
      "start": 59.4794,
      "duration": 0.0141,
      "velocity": 97,
      "chip": "ym2612"
    },
    {
      "channel": 3,
      "note": 80,
      "start": 59.4806,
      "duration": 0.0141,
      "velocity": 97,
      "chip": "ym2612"
    },
    {
      "channel": 2,
      "note": 59,
      "start": 59.4817,
      "duration": 0.0141,
      "velocity": 100,
      "chip": "ym2612"
    },
    {
      "channel": 1,
      "note": 52,
      "start": 59.4905,
      "duration": 0.0186,
      "velocity": 124,
      "chip": "ym2612"
    },
    {
      "channel": 0,
      "note": 40,
      "start": 59.4923,
      "duration": 0.0185,
      "velocity": 115,
      "chip": "ym2612"
    },
    {
      "channel": 4,
      "note": 77,
      "start": 59.4935,
      "duration": 0.0185,
      "velocity": 97,
      "chip": "ym2612"
    },
    {
      "channel": 3,
      "note": 80,
      "start": 59.4946,
      "duration": 0.0185,
      "velocity": 97,
      "chip": "ym2612"
    },
    {
      "channel": 2,
      "note": 59,
      "start": 59.4958,
      "duration": 0.0185,
      "velocity": 100,
      "chip": "ym2612"
    },
    {
      "channel": 1,
      "note": 51,
      "start": 59.5091,
      "duration": 0.0125,
      "velocity": 1,
      "chip": "ym2612"
    },
    {
      "channel": 0,
      "note": 40,
      "start": 59.5108,
      "duration": 0.0153,
      "velocity": 115,
      "chip": "ym2612"
    },
    {
      "channel": 4,
      "note": 77,
      "start": 59.512,
      "duration": 0.0153,
      "velocity": 97,
      "chip": "ym2612"
    },
    {
      "channel": 3,
      "note": 80,
      "start": 59.5132,
      "duration": 0.0153,
      "velocity": 97,
      "chip": "ym2612"
    },
    {
      "channel": 2,
      "note": 59,
      "start": 59.5143,
      "duration": 0.0153,
      "velocity": 100,
      "chip": "ym2612"
    },
    {
      "channel": 0,
      "note": 40,
      "start": 59.5261,
      "duration": 0.0125,
      "velocity": 115,
      "chip": "ym2612"
    },
    {
      "channel": 4,
      "note": 77,
      "start": 59.5273,
      "duration": 0.0149,
      "velocity": 97,
      "chip": "ym2612"
    },
    {
      "channel": 3,
      "note": 80,
      "start": 59.5284,
      "duration": 0.0149,
      "velocity": 97,
      "chip": "ym2612"
    },
    {
      "channel": 0,
      "note": 41,
      "start": 59.5386,
      "duration": 0.0161,
      "velocity": 115,
      "chip": "ym2612"
    },
    {
      "channel": 4,
      "note": 77,
      "start": 59.5422,
      "duration": 0.0137,
      "velocity": 97,
      "chip": "ym2612"
    },
    {
      "channel": 3,
      "note": 80,
      "start": 59.5434,
      "duration": 0.014,
      "velocity": 97,
      "chip": "ym2612"
    },
    {
      "channel": 0,
      "note": 41,
      "start": 59.5547,
      "duration": 0.0161,
      "velocity": 115,
      "chip": "ym2612"
    },
    {
      "channel": 4,
      "note": 77,
      "start": 59.5559,
      "duration": 0.0161,
      "velocity": 97,
      "chip": "ym2612"
    },
    {
      "channel": 3,
      "note": 80,
      "start": 59.5574,
      "duration": 0.0185,
      "velocity": 97,
      "chip": "ym2612"
    },
    {
      "channel": 0,
      "note": 42,
      "start": 59.5708,
      "duration": 0.0161,
      "velocity": 115,
      "chip": "ym2612"
    },
    {
      "channel": 4,
      "note": 77,
      "start": 59.572,
      "duration": 0.0161,
      "velocity": 97,
      "chip": "ym2612"
    },
    {
      "channel": 3,
      "note": 80,
      "start": 59.5759,
      "duration": 0.0161,
      "velocity": 97,
      "chip": "ym2612"
    },
    {
      "channel": 0,
      "note": 42,
      "start": 59.5869,
      "duration": 0.0161,
      "velocity": 115,
      "chip": "ym2612"
    },
    {
      "channel": 4,
      "note": 77,
      "start": 59.5881,
      "duration": 0.0161,
      "velocity": 97,
      "chip": "ym2612"
    },
    {
      "channel": 3,
      "note": 80,
      "start": 59.592,
      "duration": 0.0134,
      "velocity": 97,
      "chip": "ym2612"
    },
    {
      "channel": 0,
      "note": 43,
      "start": 59.603,
      "duration": 0.0162,
      "velocity": 115,
      "chip": "ym2612"
    },
    {
      "channel": 4,
      "note": 77,
      "start": 59.6042,
      "duration": 0.0161,
      "velocity": 97,
      "chip": "ym2612"
    },
    {
      "channel": 3,
      "note": 80,
      "start": 59.6053,
      "duration": 0.0162,
      "velocity": 97,
      "chip": "ym2612"
    },
    {
      "channel": 0,
      "note": 43,
      "start": 59.6191,
      "duration": 0.016,
      "velocity": 115,
      "chip": "ym2612"
    },
    {
      "channel": 4,
      "note": 77,
      "start": 59.6203,
      "duration": 0.016,
      "velocity": 97,
      "chip": "ym2612"
    },
    {
      "channel": 3,
      "note": 80,
      "start": 59.6215,
      "duration": 0.0161,
      "velocity": 97,
      "chip": "ym2612"
    },
    {
      "channel": 0,
      "note": 44,
      "start": 59.6352,
      "duration": 0.0161,
      "velocity": 115,
      "chip": "ym2612"
    },
    {
      "channel": 4,
      "note": 77,
      "start": 59.6364,
      "duration": 0.0161,
      "velocity": 97,
      "chip": "ym2612"
    },
    {
      "channel": 3,
      "note": 80,
      "start": 59.6376,
      "duration": 0.0161,
      "velocity": 97,
      "chip": "ym2612"
    },
    {
      "channel": 0,
      "note": 44,
      "start": 59.6513,
      "duration": 0.0161,
      "velocity": 115,
      "chip": "ym2612"
    },
    {
      "channel": 4,
      "note": 77,
      "start": 59.6525,
      "duration": 0.0161,
      "velocity": 97,
      "chip": "ym2612"
    },
    {
      "channel": 3,
      "note": 80,
      "start": 59.6537,
      "duration": 0.0161,
      "velocity": 97,
      "chip": "ym2612"
    },
    {
      "channel": 0,
      "note": 44,
      "start": 59.6674,
      "duration": 0.0161,
      "velocity": 115,
      "chip": "ym2612"
    },
    {
      "channel": 4,
      "note": 77,
      "start": 59.6686,
      "duration": 0.0161,
      "velocity": 97,
      "chip": "ym2612"
    },
    {
      "channel": 3,
      "note": 80,
      "start": 59.6698,
      "duration": 0.0161,
      "velocity": 97,
      "chip": "ym2612"
    },
    {
      "channel": 0,
      "note": 45,
      "start": 59.6835,
      "duration": 0.0161,
      "velocity": 115,
      "chip": "ym2612"
    },
    {
      "channel": 4,
      "note": 77,
      "start": 59.6847,
      "duration": 0.0161,
      "velocity": 97,
      "chip": "ym2612"
    },
    {
      "channel": 3,
      "note": 80,
      "start": 59.6859,
      "duration": 0.0161,
      "velocity": 97,
      "chip": "ym2612"
    },
    {
      "channel": 0,
      "note": 45,
      "start": 59.6996,
      "duration": 0.0161,
      "velocity": 115,
      "chip": "ym2612"
    },
    {
      "channel": 4,
      "note": 77,
      "start": 59.7008,
      "duration": 0.0161,
      "velocity": 97,
      "chip": "ym2612"
    },
    {
      "channel": 3,
      "note": 80,
      "start": 59.702,
      "duration": 0.0161,
      "velocity": 97,
      "chip": "ym2612"
    },
    {
      "channel": 0,
      "note": 46,
      "start": 59.7157,
      "duration": 0.0161,
      "velocity": 115,
      "chip": "ym2612"
    },
    {
      "channel": 4,
      "note": 77,
      "start": 59.7169,
      "duration": 0.0161,
      "velocity": 97,
      "chip": "ym2612"
    },
    {
      "channel": 3,
      "note": 80,
      "start": 59.718,
      "duration": 0.0161,
      "velocity": 97,
      "chip": "ym2612"
    },
    {
      "channel": 0,
      "note": 46,
      "start": 59.7318,
      "duration": 0.0179,
      "velocity": 115,
      "chip": "ym2612"
    },
    {
      "channel": 4,
      "note": 77,
      "start": 59.733,
      "duration": 0.018,
      "velocity": 97,
      "chip": "ym2612"
    },
    {
      "channel": 3,
      "note": 80,
      "start": 59.7341,
      "duration": 0.0179,
      "velocity": 97,
      "chip": "ym2612"
    },
    {
      "channel": 0,
      "note": 36,
      "start": 59.7497,
      "duration": 0.0144,
      "velocity": 115,
      "chip": "ym2612"
    },
    {
      "channel": 4,
      "note": 77,
      "start": 59.751,
      "duration": 0.0143,
      "velocity": 97,
      "chip": "ym2612"
    },
    {
      "channel": 3,
      "note": 80,
      "start": 59.7521,
      "duration": 0.0143,
      "velocity": 97,
      "chip": "ym2612"
    },
    {
      "channel": 2,
      "note": 61,
      "start": 59.7535,
      "duration": 0.0141,
      "velocity": 100,
      "chip": "ym2612"
    },
    {
      "channel": 1,
      "note": 49,
      "start": 59.7549,
      "duration": 0.0139,
      "velocity": 100,
      "chip": "ym2612"
    },
    {
      "channel": 0,
      "note": 36,
      "start": 59.7641,
      "duration": 0.0161,
      "velocity": 115,
      "chip": "ym2612"
    },
    {
      "channel": 4,
      "note": 77,
      "start": 59.7653,
      "duration": 0.016,
      "velocity": 97,
      "chip": "ym2612"
    },
    {
      "channel": 3,
      "note": 80,
      "start": 59.7664,
      "duration": 0.0161,
      "velocity": 97,
      "chip": "ym2612"
    },
    {
      "channel": 2,
      "note": 61,
      "start": 59.7676,
      "duration": 0.016,
      "velocity": 100,
      "chip": "ym2612"
    },
    {
      "channel": 1,
      "note": 49,
      "start": 59.7688,
      "duration": 0.0159,
      "velocity": 100,
      "chip": "ym2612"
    },
    {
      "channel": 0,
      "note": 37,
      "start": 59.7801,
      "duration": 0.0161,
      "velocity": 115,
      "chip": "ym2612"
    },
    {
      "channel": 4,
      "note": 77,
      "start": 59.7813,
      "duration": 0.0161,
      "velocity": 97,
      "chip": "ym2612"
    },
    {
      "channel": 3,
      "note": 80,
      "start": 59.7825,
      "duration": 0.0161,
      "velocity": 97,
      "chip": "ym2612"
    },
    {
      "channel": 2,
      "note": 61,
      "start": 59.7837,
      "duration": 0.0161,
      "velocity": 100,
      "chip": "ym2612"
    },
    {
      "channel": 1,
      "note": 49,
      "start": 59.7847,
      "duration": 0.0161,
      "velocity": 100,
      "chip": "ym2612"
    },
    {
      "channel": 0,
      "note": 37,
      "start": 59.7962,
      "duration": 0.0161,
      "velocity": 115,
      "chip": "ym2612"
    },
    {
      "channel": 4,
      "note": 77,
      "start": 59.7974,
      "duration": 0.0161,
      "velocity": 97,
      "chip": "ym2612"
    },
    {
      "channel": 3,
      "note": 80,
      "start": 59.7986,
      "duration": 0.0161,
      "velocity": 97,
      "chip": "ym2612"
    },
    {
      "channel": 2,
      "note": 61,
      "start": 59.7997,
      "duration": 0.0161,
      "velocity": 100,
      "chip": "ym2612"
    },
    {
      "channel": 1,
      "note": 49,
      "start": 59.8008,
      "duration": 0.0162,
      "velocity": 100,
      "chip": "ym2612"
    },
    {
      "channel": 0,
      "note": 38,
      "start": 59.8123,
      "duration": 0.0161,
      "velocity": 115,
      "chip": "ym2612"
    },
    {
      "channel": 4,
      "note": 77,
      "start": 59.8135,
      "duration": 0.0161,
      "velocity": 97,
      "chip": "ym2612"
    },
    {
      "channel": 3,
      "note": 80,
      "start": 59.8147,
      "duration": 0.0161,
      "velocity": 97,
      "chip": "ym2612"
    },
    {
      "channel": 2,
      "note": 61,
      "start": 59.8158,
      "duration": 0.0161,
      "velocity": 100,
      "chip": "ym2612"
    },
    {
      "channel": 1,
      "note": 49,
      "start": 59.817,
      "duration": 0.0161,
      "velocity": 100,
      "chip": "ym2612"
    },
    {
      "channel": 0,
      "note": 38,
      "start": 59.8284,
      "duration": 0.0161,
      "velocity": 115,
      "chip": "ym2612"
    },
    {
      "channel": 4,
      "note": 77,
      "start": 59.8296,
      "duration": 0.0161,
      "velocity": 97,
      "chip": "ym2612"
    },
    {
      "channel": 3,
      "note": 80,
      "start": 59.8308,
      "duration": 0.0161,
      "velocity": 97,
      "chip": "ym2612"
    },
    {
      "channel": 2,
      "note": 61,
      "start": 59.8319,
      "duration": 0.0161,
      "velocity": 100,
      "chip": "ym2612"
    },
    {
      "channel": 1,
      "note": 49,
      "start": 59.8331,
      "duration": 0.0161,
      "velocity": 100,
      "chip": "ym2612"
    },
    {
      "channel": 0,
      "note": 39,
      "start": 59.8445,
      "duration": 0.0162,
      "velocity": 115,
      "chip": "ym2612"
    },
    {
      "channel": 4,
      "note": 77,
      "start": 59.8457,
      "duration": 0.0161,
      "velocity": 97,
      "chip": "ym2612"
    },
    {
      "channel": 3,
      "note": 80,
      "start": 59.8469,
      "duration": 0.0162,
      "velocity": 97,
      "chip": "ym2612"
    },
    {
      "channel": 2,
      "note": 61,
      "start": 59.848,
      "duration": 0.0161,
      "velocity": 100,
      "chip": "ym2612"
    },
    {
      "channel": 1,
      "note": 49,
      "start": 59.8492,
      "duration": 0.0161,
      "velocity": 100,
      "chip": "ym2612"
    },
    {
      "channel": 0,
      "note": 39,
      "start": 59.8607,
      "duration": 0.0163,
      "velocity": 115,
      "chip": "ym2612"
    },
    {
      "channel": 4,
      "note": 77,
      "start": 59.8618,
      "duration": 0.0163,
      "velocity": 97,
      "chip": "ym2612"
    },
    {
      "channel": 3,
      "note": 80,
      "start": 59.863,
      "duration": 0.0163,
      "velocity": 97,
      "chip": "ym2612"
    },
    {
      "channel": 2,
      "note": 61,
      "start": 59.8642,
      "duration": 0.0163,
      "velocity": 100,
      "chip": "ym2612"
    },
    {
      "channel": 1,
      "note": 49,
      "start": 59.8653,
      "duration": 0.0163,
      "velocity": 100,
      "chip": "ym2612"
    },
    {
      "channel": 0,
      "note": 40,
      "start": 59.877,
      "duration": 0.0159,
      "velocity": 115,
      "chip": "ym2612"
    },
    {
      "channel": 4,
      "note": 77,
      "start": 59.8782,
      "duration": 0.0159,
      "velocity": 97,
      "chip": "ym2612"
    },
    {
      "channel": 3,
      "note": 80,
      "start": 59.8794,
      "duration": 0.0158,
      "velocity": 97,
      "chip": "ym2612"
    },
    {
      "channel": 2,
      "note": 61,
      "start": 59.8805,
      "duration": 0.0159,
      "velocity": 100,
      "chip": "ym2612"
    },
    {
      "channel": 1,
      "note": 49,
      "start": 59.8816,
      "duration": 0.0158,
      "velocity": 100,
      "chip": "ym2612"
    },
    {
      "channel": 0,
      "note": 40,
      "start": 59.8928,
      "duration": 0.0179,
      "velocity": 115,
      "chip": "ym2612"
    },
    {
      "channel": 4,
      "note": 77,
      "start": 59.894,
      "duration": 0.0178,
      "velocity": 97,
      "chip": "ym2612"
    },
    {
      "channel": 3,
      "note": 80,
      "start": 59.8951,
      "duration": 0.0179,
      "velocity": 97,
      "chip": "ym2612"
    },
    {
      "channel": 2,
      "note": 61,
      "start": 59.8963,
      "duration": 0.0179,
      "velocity": 100,
      "chip": "ym2612"
    },
    {
      "channel": 1,
      "note": 49,
      "start": 59.8974,
      "duration": 0.0179,
      "velocity": 100,
      "chip": "ym2612"
    },
    {
      "channel": 0,
      "note": 40,
      "start": 59.9107,
      "duration": 0.0167,
      "velocity": 115,
      "chip": "ym2612"
    },
    {
      "channel": 4,
      "note": 77,
      "start": 59.9118,
      "duration": 0.0167,
      "velocity": 97,
      "chip": "ym2612"
    },
    {
      "channel": 3,
      "note": 80,
      "start": 59.913,
      "duration": 0.0167,
      "velocity": 97,
      "chip": "ym2612"
    },
    {
      "channel": 0,
      "note": 41,
      "start": 59.9273,
      "duration": 0.0196,
      "velocity": 115,
      "chip": "ym2612"
    },
    {
      "channel": 4,
      "note": 77,
      "start": 59.9285,
      "duration": 0.0197,
      "velocity": 97,
      "chip": "ym2612"
    },
    {
      "channel": 3,
      "note": 80,
      "start": 59.9297,
      "duration": 0.0196,
      "velocity": 97,
      "chip": "ym2612"
    },
    {
      "channel": 1,
      "note": 78,
      "start": 59.9452,
      "duration": 0.0123,
      "velocity": 124,
      "chip": "ym2612"
    },
    {
      "channel": 0,
      "note": 41,
      "start": 59.9469,
      "duration": 0.0123,
      "velocity": 115,
      "chip": "ym2612"
    },
    {
      "channel": 4,
      "note": 77,
      "start": 59.9481,
      "duration": 0.0123,
      "velocity": 97,
      "chip": "ym2612"
    },
    {
      "channel": 3,
      "note": 80,
      "start": 59.9493,
      "duration": 0.0123,
      "velocity": 97,
      "chip": "ym2612"
    },
    {
      "channel": 2,
      "note": 59,
      "start": 59.9507,
      "duration": 0.0122,
      "velocity": 100,
      "chip": "ym2612"
    },
    {
      "channel": 1,
      "note": 76,
      "start": 59.9576,
      "duration": 0.0185,
      "velocity": 124,
      "chip": "ym2612"
    },
    {
      "channel": 0,
      "note": 42,
      "start": 59.9593,
      "duration": 0.0185,
      "velocity": 115,
      "chip": "ym2612"
    },
    {
      "channel": 4,
      "note": 77,
      "start": 59.9605,
      "duration": 0.0185,
      "velocity": 97,
      "chip": "ym2612"
    },
    {
      "channel": 3,
      "note": 80,
      "start": 59.9616,
      "duration": 0.0184,
      "velocity": 97,
      "chip": "ym2612"
    },
    {
      "channel": 2,
      "note": 59,
      "start": 59.9628,
      "duration": 0.0184,
      "velocity": 100,
      "chip": "ym2612"
    },
    {
      "channel": 1,
      "note": 75,
      "start": 59.976,
      "duration": 0.0161,
      "velocity": 124,
      "chip": "ym2612"
    },
    {
      "channel": 0,
      "note": 42,
      "start": 59.9777,
      "duration": 0.0161,
      "velocity": 115,
      "chip": "ym2612"
    },
    {
      "channel": 4,
      "note": 77,
      "start": 59.9789,
      "duration": 0.0161,
      "velocity": 97,
      "chip": "ym2612"
    },
    {
      "channel": 3,
      "note": 80,
      "start": 59.9801,
      "duration": 0.0161,
      "velocity": 97,
      "chip": "ym2612"
    },
    {
      "channel": 2,
      "note": 59,
      "start": 59.9812,
      "duration": 0.0161,
      "velocity": 100,
      "chip": "ym2612"
    },
    {
      "channel": 1,
      "note": 74,
      "start": 59.9921,
      "duration": 0.0134,
      "velocity": 124,
      "chip": "ym2612"
    },
    {
      "channel": 0,
      "note": 43,
      "start": 59.9938,
      "duration": 0.0158,
      "velocity": 115,
      "chip": "ym2612"
    },
    {
      "channel": 4,
      "note": 77,
      "start": 59.995,
      "duration": 0.0158,
      "velocity": 97,
      "chip": "ym2612"
    },
    {
      "channel": 3,
      "note": 80,
      "start": 59.9962,
      "duration": 0.0159,
      "velocity": 97,
      "chip": "ym2612"
    },
    {
      "channel": 2,
      "note": 59,
      "start": 59.9973,
      "duration": 0.0158,
      "velocity": 100,
      "chip": "ym2612"
    },
    {
      "channel": 1,
      "note": 72,
      "start": 60.0055,
      "duration": 0.0161,
      "velocity": 124,
      "chip": "ym2612"
    },
    {
      "channel": 0,
      "note": 43,
      "start": 60.0096,
      "duration": 0.014,
      "velocity": 115,
      "chip": "ym2612"
    },
    {
      "channel": 4,
      "note": 77,
      "start": 60.0108,
      "duration": 0.014,
      "velocity": 97,
      "chip": "ym2612"
    },
    {
      "channel": 3,
      "note": 80,
      "start": 60.012,
      "duration": 0.0139,
      "velocity": 97,
      "chip": "ym2612"
    },
    {
      "channel": 2,
      "note": 59,
      "start": 60.0131,
      "duration": 0.014,
      "velocity": 100,
      "chip": "ym2612"
    },
    {
      "channel": 1,
      "note": 71,
      "start": 60.0216,
      "duration": 0.0161,
      "velocity": 124,
      "chip": "ym2612"
    },
    {
      "channel": 0,
      "note": 44,
      "start": 60.0236,
      "duration": 0.0185,
      "velocity": 115,
      "chip": "ym2612"
    },
    {
      "channel": 4,
      "note": 77,
      "start": 60.0248,
      "duration": 0.0185,
      "velocity": 97,
      "chip": "ym2612"
    },
    {
      "channel": 3,
      "note": 80,
      "start": 60.0259,
      "duration": 0.0185,
      "velocity": 97,
      "chip": "ym2612"
    },
    {
      "channel": 2,
      "note": 59,
      "start": 60.0271,
      "duration": 0.0185,
      "velocity": 100,
      "chip": "ym2612"
    },
    {
      "channel": 1,
      "note": 70,
      "start": 60.0376,
      "duration": 0.0161,
      "velocity": 124,
      "chip": "ym2612"
    },
    {
      "channel": 0,
      "note": 44,
      "start": 60.0421,
      "duration": 0.0134,
      "velocity": 115,
      "chip": "ym2612"
    },
    {
      "channel": 4,
      "note": 77,
      "start": 60.0433,
      "duration": 0.0161,
      "velocity": 97,
      "chip": "ym2612"
    },
    {
      "channel": 3,
      "note": 80,
      "start": 60.0444,
      "duration": 0.0162,
      "velocity": 97,
      "chip": "ym2612"
    },
    {
      "channel": 2,
      "note": 59,
      "start": 60.0456,
      "duration": 0.0161,
      "velocity": 100,
      "chip": "ym2612"
    },
    {
      "channel": 1,
      "note": 69,
      "start": 60.0537,
      "duration": 0.0161,
      "velocity": 124,
      "chip": "ym2612"
    },
    {
      "channel": 0,
      "note": 44,
      "start": 60.0555,
      "duration": 0.0161,
      "velocity": 115,
      "chip": "ym2612"
    },
    {
      "channel": 4,
      "note": 77,
      "start": 60.0594,
      "duration": 0.0158,
      "velocity": 97,
      "chip": "ym2612"
    },
    {
      "channel": 3,
      "note": 80,
      "start": 60.0606,
      "duration": 0.0157,
      "velocity": 97,
      "chip": "ym2612"
    },
    {
      "channel": 2,
      "note": 59,
      "start": 60.0617,
      "duration": 0.0158,
      "velocity": 100,
      "chip": "ym2612"
    },
    {
      "channel": 1,
      "note": 68,
      "start": 60.0698,
      "duration": 0.0161,
      "velocity": 124,
      "chip": "ym2612"
    },
    {
      "channel": 0,
      "note": 45,
      "start": 60.0716,
      "duration": 0.0161,
      "velocity": 115,
      "chip": "ym2612"
    },
    {
      "channel": 4,
      "note": 77,
      "start": 60.0752,
      "duration": 0.0137,
      "velocity": 97,
      "chip": "ym2612"
    },
    {
      "channel": 3,
      "note": 80,
      "start": 60.0763,
      "duration": 0.0141,
      "velocity": 97,
      "chip": "ym2612"
    },
    {
      "channel": 2,
      "note": 59,
      "start": 60.0775,
      "duration": 0.0141,
      "velocity": 100,
      "chip": "ym2612"
    },
    {
      "channel": 1,
      "note": 66,
      "start": 60.0859,
      "duration": 0.0161,
      "velocity": 124,
      "chip": "ym2612"
    },
    {
      "channel": 0,
      "note": 45,
      "start": 60.0877,
      "duration": 0.0161,
      "velocity": 115,
      "chip": "ym2612"
    },
    {
      "channel": 4,
      "note": 77,
      "start": 60.0889,
      "duration": 0.0161,
      "velocity": 97,
      "chip": "ym2612"
    },
    {
      "channel": 3,
      "note": 80,
      "start": 60.0904,
      "duration": 0.0185,
      "velocity": 97,
      "chip": "ym2612"
    },
    {
      "channel": 2,
      "note": 59,
      "start": 60.0915,
      "duration": 0.0185,
      "velocity": 100,
      "chip": "ym2612"
    },
    {
      "channel": 1,
      "note": 65,
      "start": 60.1021,
      "duration": 0.0161,
      "velocity": 124,
      "chip": "ym2612"
    },
    {
      "channel": 0,
      "note": 46,
      "start": 60.1038,
      "duration": 0.0161,
      "velocity": 115,
      "chip": "ym2612"
    },
    {
      "channel": 4,
      "note": 77,
      "start": 60.105,
      "duration": 0.0161,
      "velocity": 97,
      "chip": "ym2612"
    },
    {
      "channel": 3,
      "note": 80,
      "start": 60.1089,
      "duration": 0.0134,
      "velocity": 97,
      "chip": "ym2612"
    },
    {
      "channel": 1,
      "note": 64,
      "start": 60.1182,
      "duration": 0.0161,
      "velocity": 124,
      "chip": "ym2612"
    },
    {
      "channel": 0,
      "note": 46,
      "start": 60.1199,
      "duration": 0.0161,
      "velocity": 115,
      "chip": "ym2612"
    },
    {
      "channel": 4,
      "note": 77,
      "start": 60.1211,
      "duration": 0.0161,
      "velocity": 97,
      "chip": "ym2612"
    },
    {
      "channel": 3,
      "note": 80,
      "start": 60.1222,
      "duration": 0.0162,
      "velocity": 97,
      "chip": "ym2612"
    },
    {
      "channel": 1,
      "note": 62,
      "start": 60.1343,
      "duration": 0.0161,
      "velocity": 124,
      "chip": "ym2612"
    },
    {
      "channel": 0,
      "note": 47,
      "start": 60.136,
      "duration": 0.0161,
      "velocity": 115,
      "chip": "ym2612"
    },
    {
      "channel": 4,
      "note": 77,
      "start": 60.1372,
      "duration": 0.0161,
      "velocity": 97,
      "chip": "ym2612"
    },
    {
      "channel": 3,
      "note": 80,
      "start": 60.1384,
      "duration": 0.016,
      "velocity": 97,
      "chip": "ym2612"
    },
    {
      "channel": 2,
      "note": 56,
      "start": 60.1422,
      "duration": 0.0135,
      "velocity": 100,
      "chip": "ym2612"
    },
    {
      "channel": 1,
      "note": 61,
      "start": 60.1504,
      "duration": 0.0161,
      "velocity": 124,
      "chip": "ym2612"
    },
    {
      "channel": 0,
      "note": 47,
      "start": 60.1521,
      "duration": 0.0161,
      "velocity": 115,
      "chip": "ym2612"
    },
    {
      "channel": 4,
      "note": 77,
      "start": 60.1533,
      "duration": 0.0161,
      "velocity": 97,
      "chip": "ym2612"
    },
    {
      "channel": 3,
      "note": 80,
      "start": 60.1544,
      "duration": 0.0161,
      "velocity": 97,
      "chip": "ym2612"
    },
    {
      "channel": 2,
      "note": 56,
      "start": 60.1556,
      "duration": 0.016,
      "velocity": 100,
      "chip": "ym2612"
    },
    {
      "channel": 1,
      "note": 60,
      "start": 60.1665,
      "duration": 0.0161,
      "velocity": 124,
      "chip": "ym2612"
    },
    {
      "channel": 0,
      "note": 47,
      "start": 60.1682,
      "duration": 0.0161,
      "velocity": 115,
      "chip": "ym2612"
    },
    {
      "channel": 4,
      "note": 77,
      "start": 60.1694,
      "duration": 0.0161,
      "velocity": 97,
      "chip": "ym2612"
    },
    {
      "channel": 3,
      "note": 80,
      "start": 60.1705,
      "duration": 0.0161,
      "velocity": 97,
      "chip": "ym2612"
    },
    {
      "channel": 2,
      "note": 56,
      "start": 60.1717,
      "duration": 0.0161,
      "velocity": 100,
      "chip": "ym2612"
    },
    {
      "channel": 1,
      "note": 59,
      "start": 60.1826,
      "duration": 0.0161,
      "velocity": 124,
      "chip": "ym2612"
    },
    {
      "channel": 0,
      "note": 48,
      "start": 60.1843,
      "duration": 0.0161,
      "velocity": 115,
      "chip": "ym2612"
    },
    {
      "channel": 4,
      "note": 77,
      "start": 60.1855,
      "duration": 0.0161,
      "velocity": 97,
      "chip": "ym2612"
    },
    {
      "channel": 3,
      "note": 80,
      "start": 60.1866,
      "duration": 0.0161,
      "velocity": 97,
      "chip": "ym2612"
    },
    {
      "channel": 2,
      "note": 56,
      "start": 60.1878,
      "duration": 0.0161,
      "velocity": 100,
      "chip": "ym2612"
    },
    {
      "channel": 1,
      "note": 57,
      "start": 60.1987,
      "duration": 0.0161,
      "velocity": 124,
      "chip": "ym2612"
    },
    {
      "channel": 0,
      "note": 48,
      "start": 60.2004,
      "duration": 0.0161,
      "velocity": 115,
      "chip": "ym2612"
    },
    {
      "channel": 4,
      "note": 77,
      "start": 60.2016,
      "duration": 0.0161,
      "velocity": 97,
      "chip": "ym2612"
    },
    {
      "channel": 3,
      "note": 80,
      "start": 60.2027,
      "duration": 0.0161,
      "velocity": 97,
      "chip": "ym2612"
    },
    {
      "channel": 2,
      "note": 56,
      "start": 60.2039,
      "duration": 0.0161,
      "velocity": 100,
      "chip": "ym2612"
    },
    {
      "channel": 1,
      "note": 56,
      "start": 60.2147,
      "duration": 0.0161,
      "velocity": 124,
      "chip": "ym2612"
    },
    {
      "channel": 0,
      "note": 49,
      "start": 60.2165,
      "duration": 0.0153,
      "velocity": 1,
      "chip": "ym2612"
    },
    {
      "channel": 4,
      "note": 77,
      "start": 60.2177,
      "duration": 0.0153,
      "velocity": 97,
      "chip": "ym2612"
    },
    {
      "channel": 3,
      "note": 80,
      "start": 60.2188,
      "duration": 0.0153,
      "velocity": 97,
      "chip": "ym2612"
    },
    {
      "channel": 2,
      "note": 56,
      "start": 60.22,
      "duration": 0.0153,
      "velocity": 100,
      "chip": "ym2612"
    },
    {
      "channel": 1,
      "note": 55,
      "start": 60.2308,
      "duration": 0.0161,
      "velocity": 124,
      "chip": "ym2612"
    },
    {
      "channel": 4,
      "note": 77,
      "start": 60.233,
      "duration": 0.0153,
      "velocity": 97,
      "chip": "ym2612"
    },
    {
      "channel": 3,
      "note": 80,
      "start": 60.2341,
      "duration": 0.0153,
      "velocity": 97,
      "chip": "ym2612"
    },
    {
      "channel": 2,
      "note": 56,
      "start": 60.2353,
      "duration": 0.0153,
      "velocity": 100,
      "chip": "ym2612"
    },
    {
      "channel": 1,
      "note": 53,
      "start": 60.2469,
      "duration": 0.0161,
      "velocity": 124,
      "chip": "ym2612"
    },
    {
      "channel": 4,
      "note": 77,
      "start": 60.2483,
      "duration": 0.0161,
      "velocity": 97,
      "chip": "ym2612"
    },
    {
      "channel": 3,
      "note": 80,
      "start": 60.2494,
      "duration": 0.0162,
      "velocity": 97,
      "chip": "ym2612"
    },
    {
      "channel": 2,
      "note": 56,
      "start": 60.2506,
      "duration": 0.0161,
      "velocity": 100,
      "chip": "ym2612"
    },
    {
      "channel": 1,
      "note": 52,
      "start": 60.2631,
      "duration": 0.0161,
      "velocity": 124,
      "chip": "ym2612"
    },
    {
      "channel": 4,
      "note": 77,
      "start": 60.2644,
      "duration": 0.0161,
      "velocity": 97,
      "chip": "ym2612"
    },
    {
      "channel": 3,
      "note": 80,
      "start": 60.2656,
      "duration": 0.016,
      "velocity": 97,
      "chip": "ym2612"
    },
    {
      "channel": 2,
      "note": 56,
      "start": 60.2667,
      "duration": 0.0161,
      "velocity": 100,
      "chip": "ym2612"
    },
    {
      "channel": 1,
      "note": 51,
      "start": 60.2792,
      "duration": 0.0153,
      "velocity": 1,
      "chip": "ym2612"
    },
    {
      "channel": 4,
      "note": 77,
      "start": 60.2805,
      "duration": 0.0153,
      "velocity": 97,
      "chip": "ym2612"
    },
    {
      "channel": 3,
      "note": 80,
      "start": 60.2816,
      "duration": 0.0153,
      "velocity": 97,
      "chip": "ym2612"
    },
    {
      "channel": 2,
      "note": 56,
      "start": 60.2827,
      "duration": 0.0153,
      "velocity": 100,
      "chip": "ym2612"
    },
    {
      "channel": 4,
      "note": 77,
      "start": 60.2957,
      "duration": 0.0153,
      "velocity": 97,
      "chip": "ym2612"
    },
    {
      "channel": 3,
      "note": 80,
      "start": 60.2969,
      "duration": 0.0152,
      "velocity": 97,
      "chip": "ym2612"
    },
    {
      "channel": 4,
      "note": 77,
      "start": 60.311,
      "duration": 0.0195,
      "velocity": 97,
      "chip": "ym2612"
    },
    {
      "channel": 3,
      "note": 80,
      "start": 60.3121,
      "duration": 0.0195,
      "velocity": 97,
      "chip": "ym2612"
    },
    {
      "channel": 0,
      "note": 36,
      "start": 60.3293,
      "duration": 0.0144,
      "velocity": 115,
      "chip": "ym2612"
    },
    {
      "channel": 4,
      "note": 77,
      "start": 60.3305,
      "duration": 0.0144,
      "velocity": 97,
      "chip": "ym2612"
    },
    {
      "channel": 3,
      "note": 80,
      "start": 60.3317,
      "duration": 0.0144,
      "velocity": 97,
      "chip": "ym2612"
    },
    {
      "channel": 2,
      "note": 49,
      "start": 60.3331,
      "duration": 0.0142,
      "velocity": 100,
      "chip": "ym2612"
    },
    {
      "channel": 1,
      "note": 37,
      "start": 60.3346,
      "duration": 0.0139,
      "velocity": 100,
      "chip": "ym2612"
    },
    {
      "channel": 0,
      "note": 36,
      "start": 60.3438,
      "duration": 0.016,
      "velocity": 115,
      "chip": "ym2612"
    },
    {
      "channel": 4,
      "note": 77,
      "start": 60.345,
      "duration": 0.016,
      "velocity": 97,
      "chip": "ym2612"
    },
    {
      "channel": 3,
      "note": 80,
      "start": 60.3461,
      "duration": 0.016,
      "velocity": 97,
      "chip": "ym2612"
    },
    {
      "channel": 2,
      "note": 49,
      "start": 60.3473,
      "duration": 0.016,
      "velocity": 100,
      "chip": "ym2612"
    },
    {
      "channel": 1,
      "note": 37,
      "start": 60.3485,
      "duration": 0.0159,
      "velocity": 100,
      "chip": "ym2612"
    },
    {
      "channel": 0,
      "note": 37,
      "start": 60.3598,
      "duration": 0.0175,
      "velocity": 115,
      "chip": "ym2612"
    },
    {
      "channel": 4,
      "note": 77,
      "start": 60.3609,
      "duration": 0.0176,
      "velocity": 97,
      "chip": "ym2612"
    },
    {
      "channel": 3,
      "note": 80,
      "start": 60.3621,
      "duration": 0.0176,
      "velocity": 97,
      "chip": "ym2612"
    },
    {
      "channel": 2,
      "note": 49,
      "start": 60.3633,
      "duration": 0.0175,
      "velocity": 100,
      "chip": "ym2612"
    },
    {
      "channel": 1,
      "note": 37,
      "start": 60.3644,
      "duration": 0.0176,
      "velocity": 100,
      "chip": "ym2612"
    },
    {
      "channel": 0,
      "note": 37,
      "start": 60.3773,
      "duration": 0.0167,
      "velocity": 115,
      "chip": "ym2612"
    },
    {
      "channel": 4,
      "note": 77,
      "start": 60.3785,
      "duration": 0.0167,
      "velocity": 97,
      "chip": "ym2612"
    },
    {
      "channel": 3,
      "note": 80,
      "start": 60.3797,
      "duration": 0.0167,
      "velocity": 97,
      "chip": "ym2612"
    },
    {
      "channel": 2,
      "note": 49,
      "start": 60.3808,
      "duration": 0.0167,
      "velocity": 100,
      "chip": "ym2612"
    },
    {
      "channel": 1,
      "note": 37,
      "start": 60.3819,
      "duration": 0.0167,
      "velocity": 100,
      "chip": "ym2612"
    },
    {
      "channel": 0,
      "note": 38,
      "start": 60.394,
      "duration": 0.0163,
      "velocity": 115,
      "chip": "ym2612"
    },
    {
      "channel": 4,
      "note": 77,
      "start": 60.3952,
      "duration": 0.0163,
      "velocity": 97,
      "chip": "ym2612"
    },
    {
      "channel": 3,
      "note": 80,
      "start": 60.3964,
      "duration": 0.0162,
      "velocity": 97,
      "chip": "ym2612"
    },
    {
      "channel": 2,
      "note": 49,
      "start": 60.3975,
      "duration": 0.0163,
      "velocity": 100,
      "chip": "ym2612"
    },
    {
      "channel": 1,
      "note": 37,
      "start": 60.3987,
      "duration": 0.0163,
      "velocity": 100,
      "chip": "ym2612"
    },
    {
      "channel": 0,
      "note": 38,
      "start": 60.4103,
      "duration": 0.0142,
      "velocity": 115,
      "chip": "ym2612"
    },
    {
      "channel": 4,
      "note": 77,
      "start": 60.4115,
      "duration": 0.0142,
      "velocity": 97,
      "chip": "ym2612"
    },
    {
      "channel": 3,
      "note": 80,
      "start": 60.4127,
      "duration": 0.0142,
      "velocity": 97,
      "chip": "ym2612"
    },
    {
      "channel": 2,
      "note": 49,
      "start": 60.4138,
      "duration": 0.0142,
      "velocity": 100,
      "chip": "ym2612"
    },
    {
      "channel": 1,
      "note": 37,
      "start": 60.4149,
      "duration": 0.0142,
      "velocity": 100,
      "chip": "ym2612"
    },
    {
      "channel": 0,
      "note": 39,
      "start": 60.4245,
      "duration": 0.0185,
      "velocity": 115,
      "chip": "ym2612"
    },
    {
      "channel": 4,
      "note": 77,
      "start": 60.4257,
      "duration": 0.0185,
      "velocity": 97,
      "chip": "ym2612"
    },
    {
      "channel": 3,
      "note": 80,
      "start": 60.4268,
      "duration": 0.0185,
      "velocity": 97,
      "chip": "ym2612"
    },
    {
      "channel": 2,
      "note": 49,
      "start": 60.428,
      "duration": 0.0185,
      "velocity": 100,
      "chip": "ym2612"
    },
    {
      "channel": 1,
      "note": 37,
      "start": 60.4291,
      "duration": 0.0185,
      "velocity": 100,
      "chip": "ym2612"
    },
    {
      "channel": 0,
      "note": 39,
      "start": 60.443,
      "duration": 0.0161,
      "velocity": 115,
      "chip": "ym2612"
    },
    {
      "channel": 4,
      "note": 77,
      "start": 60.4442,
      "duration": 0.0161,
      "velocity": 97,
      "chip": "ym2612"
    },
    {
      "channel": 3,
      "note": 80,
      "start": 60.4454,
      "duration": 0.0161,
      "velocity": 97,
      "chip": "ym2612"
    },
    {
      "channel": 2,
      "note": 49,
      "start": 60.4465,
      "duration": 0.0161,
      "velocity": 100,
      "chip": "ym2612"
    },
    {
      "channel": 1,
      "note": 37,
      "start": 60.4476,
      "duration": 0.0161,
      "velocity": 100,
      "chip": "ym2612"
    },
    {
      "channel": 0,
      "note": 40,
      "start": 60.4591,
      "duration": 0.0134,
      "velocity": 115,
      "chip": "ym2612"
    },
    {
      "channel": 4,
      "note": 77,
      "start": 60.4603,
      "duration": 0.0157,
      "velocity": 97,
      "chip": "ym2612"
    },
    {
      "channel": 3,
      "note": 80,
      "start": 60.4614,
      "duration": 0.0158,
      "velocity": 97,
      "chip": "ym2612"
    },
    {
      "channel": 2,
      "note": 49,
      "start": 60.4626,
      "duration": 0.0158,
      "velocity": 100,
      "chip": "ym2612"
    },
    {
      "channel": 1,
      "note": 37,
      "start": 60.4637,
      "duration": 0.0157,
      "velocity": 100,
      "chip": "ym2612"
    },
    {
      "channel": 0,
      "note": 40,
      "start": 60.4724,
      "duration": 0.0161,
      "velocity": 115,
      "chip": "ym2612"
    },
    {
      "channel": 4,
      "note": 77,
      "start": 60.476,
      "duration": 0.0141,
      "velocity": 97,
      "chip": "ym2612"
    },
    {
      "channel": 3,
      "note": 80,
      "start": 60.4772,
      "duration": 0.0141,
      "velocity": 97,
      "chip": "ym2612"
    },
    {
      "channel": 2,
      "note": 49,
      "start": 60.4784,
      "duration": 0.0141,
      "velocity": 100,
      "chip": "ym2612"
    },
    {
      "channel": 1,
      "note": 37,
      "start": 60.4794,
      "duration": 0.0141,
      "velocity": 100,
      "chip": "ym2612"
    },
    {
      "channel": 0,
      "note": 40,
      "start": 60.4885,
      "duration": 0.0161,
      "velocity": 115,
      "chip": "ym2612"
    },
    {
      "channel": 4,
      "note": 77,
      "start": 60.4901,
      "duration": 0.0158,
      "velocity": 97,
      "chip": "ym2612"
    },
    {
      "channel": 3,
      "note": 80,
      "start": 60.4913,
      "duration": 0.0185,
      "velocity": 97,
      "chip": "ym2612"
    },
    {
      "channel": 0,
      "note": 41,
      "start": 60.5046,
      "duration": 0.0162,
      "velocity": 115,
      "chip": "ym2612"
    },
    {
      "channel": 4,
      "note": 77,
      "start": 60.5059,
      "duration": 0.0161,
      "velocity": 97,
      "chip": "ym2612"
    },
    {
      "channel": 3,
      "note": 80,
      "start": 60.5098,
      "duration": 0.0161,
      "velocity": 97,
      "chip": "ym2612"
    },
    {
      "channel": 0,
      "note": 41,
      "start": 60.5208,
      "duration": 0.0161,
      "velocity": 115,
      "chip": "ym2612"
    },
    {
      "channel": 4,
      "note": 77,
      "start": 60.522,
      "duration": 0.016,
      "velocity": 97,
      "chip": "ym2612"
    },
    {
      "channel": 3,
      "note": 80,
      "start": 60.5259,
      "duration": 0.0133,
      "velocity": 97,
      "chip": "ym2612"
    },
    {
      "channel": 2,
      "note": 56,
      "start": 60.5273,
      "duration": 0.0155,
      "velocity": 100,
      "chip": "ym2612"
    },
    {
      "channel": 1,
      "note": 44,
      "start": 60.5287,
      "duration": 0.0153,
      "velocity": 100,
      "chip": "ym2612"
    },
    {
      "channel": 0,
      "note": 42,
      "start": 60.5369,
      "duration": 0.0161,
      "velocity": 115,
      "chip": "ym2612"
    },
    {
      "channel": 4,
      "note": 77,
      "start": 60.538,
      "duration": 0.0162,
      "velocity": 97,
      "chip": "ym2612"
    },
    {
      "channel": 3,
      "note": 80,
      "start": 60.5392,
      "duration": 0.0161,
      "velocity": 97,
      "chip": "ym2612"
    },
    {
      "channel": 2,
      "note": 56,
      "start": 60.5428,
      "duration": 0.014,
      "velocity": 100,
      "chip": "ym2612"
    },
    {
      "channel": 1,
      "note": 44,
      "start": 60.544,
      "duration": 0.0139,
      "velocity": 100,
      "chip": "ym2612"
    },
    {
      "channel": 0,
      "note": 42,
      "start": 60.553,
      "duration": 0.0161,
      "velocity": 115,
      "chip": "ym2612"
    },
    {
      "channel": 4,
      "note": 77,
      "start": 60.5542,
      "duration": 0.0161,
      "velocity": 97,
      "chip": "ym2612"
    },
    {
      "channel": 3,
      "note": 80,
      "start": 60.5553,
      "duration": 0.0161,
      "velocity": 97,
      "chip": "ym2612"
    },
    {
      "channel": 2,
      "note": 56,
      "start": 60.5568,
      "duration": 0.0158,
      "velocity": 100,
      "chip": "ym2612"
    },
    {
      "channel": 1,
      "note": 44,
      "start": 60.5579,
      "duration": 0.0185,
      "velocity": 100,
      "chip": "ym2612"
    },
    {
      "channel": 0,
      "note": 43,
      "start": 60.5691,
      "duration": 0.0161,
      "velocity": 115,
      "chip": "ym2612"
    },
    {
      "channel": 4,
      "note": 77,
      "start": 60.5703,
      "duration": 0.0161,
      "velocity": 97,
      "chip": "ym2612"
    },
    {
      "channel": 3,
      "note": 80,
      "start": 60.5714,
      "duration": 0.0161,
      "velocity": 97,
      "chip": "ym2612"
    },
    {
      "channel": 2,
      "note": 56,
      "start": 60.5726,
      "duration": 0.0161,
      "velocity": 100,
      "chip": "ym2612"
    },
    {
      "channel": 1,
      "note": 44,
      "start": 60.5765,
      "duration": 0.0161,
      "velocity": 100,
      "chip": "ym2612"
    },
    {
      "channel": 0,
      "note": 43,
      "start": 60.5852,
      "duration": 0.0161,
      "velocity": 115,
      "chip": "ym2612"
    },
    {
      "channel": 4,
      "note": 77,
      "start": 60.5864,
      "duration": 0.0161,
      "velocity": 97,
      "chip": "ym2612"
    },
    {
      "channel": 3,
      "note": 80,
      "start": 60.5875,
      "duration": 0.0161,
      "velocity": 97,
      "chip": "ym2612"
    },
    {
      "channel": 2,
      "note": 56,
      "start": 60.5887,
      "duration": 0.0161,
      "velocity": 100,
      "chip": "ym2612"
    },
    {
      "channel": 1,
      "note": 44,
      "start": 60.5925,
      "duration": 0.0134,
      "velocity": 100,
      "chip": "ym2612"
    },
    {
      "channel": 0,
      "note": 44,
      "start": 60.6013,
      "duration": 0.0161,
      "velocity": 115,
      "chip": "ym2612"
    },
    {
      "channel": 4,
      "note": 77,
      "start": 60.6025,
      "duration": 0.0161,
      "velocity": 97,
      "chip": "ym2612"
    },
    {
      "channel": 3,
      "note": 80,
      "start": 60.6036,
      "duration": 0.0161,
      "velocity": 97,
      "chip": "ym2612"
    },
    {
      "channel": 2,
      "note": 56,
      "start": 60.6048,
      "duration": 0.0161,
      "velocity": 100,
      "chip": "ym2612"
    },
    {
      "channel": 1,
      "note": 44,
      "start": 60.6059,
      "duration": 0.0161,
      "velocity": 100,
      "chip": "ym2612"
    },
    {
      "channel": 0,
      "note": 44,
      "start": 60.6173,
      "duration": 0.0161,
      "velocity": 115,
      "chip": "ym2612"
    },
    {
      "channel": 4,
      "note": 77,
      "start": 60.6186,
      "duration": 0.0161,
      "velocity": 97,
      "chip": "ym2612"
    },
    {
      "channel": 3,
      "note": 80,
      "start": 60.6197,
      "duration": 0.0161,
      "velocity": 97,
      "chip": "ym2612"
    },
    {
      "channel": 2,
      "note": 56,
      "start": 60.6209,
      "duration": 0.0161,
      "velocity": 100,
      "chip": "ym2612"
    },
    {
      "channel": 1,
      "note": 44,
      "start": 60.622,
      "duration": 0.0161,
      "velocity": 100,
      "chip": "ym2612"
    },
    {
      "channel": 0,
      "note": 44,
      "start": 60.6334,
      "duration": 0.0161,
      "velocity": 115,
      "chip": "ym2612"
    },
    {
      "channel": 4,
      "note": 77,
      "start": 60.6346,
      "duration": 0.0161,
      "velocity": 97,
      "chip": "ym2612"
    },
    {
      "channel": 3,
      "note": 80,
      "start": 60.6358,
      "duration": 0.0161,
      "velocity": 97,
      "chip": "ym2612"
    },
    {
      "channel": 2,
      "note": 56,
      "start": 60.6369,
      "duration": 0.0162,
      "velocity": 100,
      "chip": "ym2612"
    },
    {
      "channel": 1,
      "note": 44,
      "start": 60.6381,
      "duration": 0.0161,
      "velocity": 100,
      "chip": "ym2612"
    },
    {
      "channel": 0,
      "note": 45,
      "start": 60.6495,
      "duration": 0.0161,
      "velocity": 115,
      "chip": "ym2612"
    },
    {
      "channel": 4,
      "note": 77,
      "start": 60.6507,
      "duration": 0.0161,
      "velocity": 97,
      "chip": "ym2612"
    },
    {
      "channel": 3,
      "note": 80,
      "start": 60.652,
      "duration": 0.0161,
      "velocity": 97,
      "chip": "ym2612"
    },
    {
      "channel": 2,
      "note": 56,
      "start": 60.6531,
      "duration": 0.0161,
      "velocity": 100,
      "chip": "ym2612"
    },
    {
      "channel": 1,
      "note": 44,
      "start": 60.6542,
      "duration": 0.016,
      "velocity": 100,
      "chip": "ym2612"
    },
    {
      "channel": 0,
      "note": 45,
      "start": 60.6657,
      "duration": 0.0161,
      "velocity": 115,
      "chip": "ym2612"
    },
    {
      "channel": 4,
      "note": 77,
      "start": 60.6668,
      "duration": 0.0161,
      "velocity": 97,
      "chip": "ym2612"
    },
    {
      "channel": 3,
      "note": 80,
      "start": 60.668,
      "duration": 0.0161,
      "velocity": 97,
      "chip": "ym2612"
    },
    {
      "channel": 2,
      "note": 56,
      "start": 60.6692,
      "duration": 0.0161,
      "velocity": 100,
      "chip": "ym2612"
    },
    {
      "channel": 1,
      "note": 44,
      "start": 60.6703,
      "duration": 0.0162,
      "velocity": 100,
      "chip": "ym2612"
    },
    {
      "channel": 0,
      "note": 46,
      "start": 60.6818,
      "duration": 0.0161,
      "velocity": 115,
      "chip": "ym2612"
    },
    {
      "channel": 4,
      "note": 77,
      "start": 60.6829,
      "duration": 0.0161,
      "velocity": 97,
      "chip": "ym2612"
    },
    {
      "channel": 3,
      "note": 80,
      "start": 60.6841,
      "duration": 0.0161,
      "velocity": 97,
      "chip": "ym2612"
    },
    {
      "channel": 0,
      "note": 46,
      "start": 60.6979,
      "duration": 0.0195,
      "velocity": 115,
      "chip": "ym2612"
    },
    {
      "channel": 4,
      "note": 77,
      "start": 60.6991,
      "duration": 0.0195,
      "velocity": 97,
      "chip": "ym2612"
    },
    {
      "channel": 3,
      "note": 80,
      "start": 60.7002,
      "duration": 0.0195,
      "velocity": 97,
      "chip": "ym2612"
    },
    {
      "channel": 1,
      "note": 78,
      "start": 60.7157,
      "duration": 0.0144,
      "velocity": 124,
      "chip": "ym2612"
    },
    {
      "channel": 0,
      "note": 47,
      "start": 60.7174,
      "duration": 0.0144,
      "velocity": 115,
      "chip": "ym2612"
    },
    {
      "channel": 4,
      "note": 77,
      "start": 60.7186,
      "duration": 0.0144,
      "velocity": 97,
      "chip": "ym2612"
    },
    {
      "channel": 3,
      "note": 80,
      "start": 60.7198,
      "duration": 0.0144,
      "velocity": 97,
      "chip": "ym2612"
    },
    {
      "channel": 2,
      "note": 61,
      "start": 60.7212,
      "duration": 0.0142,
      "velocity": 100,
      "chip": "ym2612"
    },
    {
      "channel": 1,
      "note": 76,
      "start": 60.7301,
      "duration": 0.016,
      "velocity": 124,
      "chip": "ym2612"
    },
    {
      "channel": 0,
      "note": 47,
      "start": 60.7318,
      "duration": 0.016,
      "velocity": 115,
      "chip": "ym2612"
    },
    {
      "channel": 4,
      "note": 77,
      "start": 60.733,
      "duration": 0.016,
      "velocity": 97,
      "chip": "ym2612"
    },
    {
      "channel": 3,
      "note": 80,
      "start": 60.7341,
      "duration": 0.016,
      "velocity": 97,
      "chip": "ym2612"
    },
    {
      "channel": 2,
      "note": 61,
      "start": 60.7354,
      "duration": 0.016,
      "velocity": 100,
      "chip": "ym2612"
    },
    {
      "channel": 1,
      "note": 75,
      "start": 60.7461,
      "duration": 0.0161,
      "velocity": 124,
      "chip": "ym2612"
    },
    {
      "channel": 0,
      "note": 47,
      "start": 60.7478,
      "duration": 0.0161,
      "velocity": 115,
      "chip": "ym2612"
    },
    {
      "channel": 4,
      "note": 77,
      "start": 60.749,
      "duration": 0.0161,
      "velocity": 97,
      "chip": "ym2612"
    },
    {
      "channel": 3,
      "note": 80,
      "start": 60.7502,
      "duration": 0.0161,
      "velocity": 97,
      "chip": "ym2612"
    },
    {
      "channel": 2,
      "note": 61,
      "start": 60.7513,
      "duration": 0.0161,
      "velocity": 100,
      "chip": "ym2612"
    },
    {
      "channel": 1,
      "note": 74,
      "start": 60.7622,
      "duration": 0.0161,
      "velocity": 124,
      "chip": "ym2612"
    },
    {
      "channel": 0,
      "note": 48,
      "start": 60.7639,
      "duration": 0.0161,
      "velocity": 115,
      "chip": "ym2612"
    },
    {
      "channel": 4,
      "note": 77,
      "start": 60.7651,
      "duration": 0.0161,
      "velocity": 97,
      "chip": "ym2612"
    },
    {
      "channel": 3,
      "note": 80,
      "start": 60.7663,
      "duration": 0.0161,
      "velocity": 97,
      "chip": "ym2612"
    },
    {
      "channel": 2,
      "note": 61,
      "start": 60.7674,
      "duration": 0.0162,
      "velocity": 100,
      "chip": "ym2612"
    },
    {
      "channel": 1,
      "note": 72,
      "start": 60.7783,
      "duration": 0.0161,
      "velocity": 124,
      "chip": "ym2612"
    },
    {
      "channel": 0,
      "note": 48,
      "start": 60.78,
      "duration": 0.0161,
      "velocity": 115,
      "chip": "ym2612"
    },
    {
      "channel": 4,
      "note": 77,
      "start": 60.7812,
      "duration": 0.0161,
      "velocity": 97,
      "chip": "ym2612"
    },
    {
      "channel": 3,
      "note": 80,
      "start": 60.7824,
      "duration": 0.016,
      "velocity": 97,
      "chip": "ym2612"
    },
    {
      "channel": 2,
      "note": 61,
      "start": 60.7836,
      "duration": 0.016,
      "velocity": 100,
      "chip": "ym2612"
    },
    {
      "channel": 1,
      "note": 71,
      "start": 60.7944,
      "duration": 0.0161,
      "velocity": 124,
      "chip": "ym2612"
    },
    {
      "channel": 0,
      "note": 49,
      "start": 60.7961,
      "duration": 0.0153,
      "velocity": 1,
      "chip": "ym2612"
    },
    {
      "channel": 4,
      "note": 77,
      "start": 60.7973,
      "duration": 0.0153,
      "velocity": 97,
      "chip": "ym2612"
    },
    {
      "channel": 3,
      "note": 80,
      "start": 60.7985,
      "duration": 0.0153,
      "velocity": 97,
      "chip": "ym2612"
    },
    {
      "channel": 2,
      "note": 61,
      "start": 60.7996,
      "duration": 0.0153,
      "velocity": 100,
      "chip": "ym2612"
    },
    {
      "channel": 1,
      "note": 70,
      "start": 60.8105,
      "duration": 0.0161,
      "velocity": 124,
      "chip": "ym2612"
    },
    {
      "channel": 4,
      "note": 77,
      "start": 60.8127,
      "duration": 0.0153,
      "velocity": 97,
      "chip": "ym2612"
    },
    {
      "channel": 3,
      "note": 80,
      "start": 60.8138,
      "duration": 0.0153,
      "velocity": 97,
      "chip": "ym2612"
    },
    {
      "channel": 2,
      "note": 61,
      "start": 60.8149,
      "duration": 0.0153,
      "velocity": 100,
      "chip": "ym2612"
    },
    {
      "channel": 1,
      "note": 69,
      "start": 60.8266,
      "duration": 0.0174,
      "velocity": 124,
      "chip": "ym2612"
    },
    {
      "channel": 4,
      "note": 77,
      "start": 60.8279,
      "duration": 0.0173,
      "velocity": 97,
      "chip": "ym2612"
    },
    {
      "channel": 3,
      "note": 80,
      "start": 60.8291,
      "duration": 0.0173,
      "velocity": 97,
      "chip": "ym2612"
    },
    {
      "channel": 2,
      "note": 61,
      "start": 60.8302,
      "duration": 0.0173,
      "velocity": 100,
      "chip": "ym2612"
    },
    {
      "channel": 1,
      "note": 68,
      "start": 60.8439,
      "duration": 0.0166,
      "velocity": 124,
      "chip": "ym2612"
    },
    {
      "channel": 4,
      "note": 77,
      "start": 60.8452,
      "duration": 0.0167,
      "velocity": 97,
      "chip": "ym2612"
    },
    {
      "channel": 3,
      "note": 80,
      "start": 60.8464,
      "duration": 0.0167,
      "velocity": 97,
      "chip": "ym2612"
    },
    {
      "channel": 2,
      "note": 61,
      "start": 60.8475,
      "duration": 0.0167,
      "velocity": 100,
      "chip": "ym2612"
    },
    {
      "channel": 1,
      "note": 66,
      "start": 60.8605,
      "duration": 0.0163,
      "velocity": 124,
      "chip": "ym2612"
    },
    {
      "channel": 4,
      "note": 77,
      "start": 60.8619,
      "duration": 0.0163,
      "velocity": 97,
      "chip": "ym2612"
    },
    {
      "channel": 3,
      "note": 80,
      "start": 60.863,
      "duration": 0.0163,
      "velocity": 97,
      "chip": "ym2612"
    },
    {
      "channel": 2,
      "note": 61,
      "start": 60.8642,
      "duration": 0.0163,
      "velocity": 100,
      "chip": "ym2612"
    },
    {
      "channel": 1,
      "note": 65,
      "start": 60.8769,
      "duration": 0.0144,
      "velocity": 124,
      "chip": "ym2612"
    },
    {
      "channel": 4,
      "note": 77,
      "start": 60.8782,
      "duration": 0.0144,
      "velocity": 97,
      "chip": "ym2612"
    },
    {
      "channel": 3,
      "note": 80,
      "start": 60.8793,
      "duration": 0.0144,
      "velocity": 97,
      "chip": "ym2612"
    },
    {
      "channel": 1,
      "note": 64,
      "start": 60.8913,
      "duration": 0.0185,
      "velocity": 124,
      "chip": "ym2612"
    },
    {
      "channel": 4,
      "note": 77,
      "start": 60.8926,
      "duration": 0.0185,
      "velocity": 97,
      "chip": "ym2612"
    },
    {
      "channel": 3,
      "note": 80,
      "start": 60.8938,
      "duration": 0.0186,
      "velocity": 97,
      "chip": "ym2612"
    },
    {
      "channel": 1,
      "note": 62,
      "start": 60.9098,
      "duration": 0.0161,
      "velocity": 124,
      "chip": "ym2612"
    },
    {
      "channel": 4,
      "note": 77,
      "start": 60.9111,
      "duration": 0.0161,
      "velocity": 97,
      "chip": "ym2612"
    },
    {
      "channel": 3,
      "note": 80,
      "start": 60.9123,
      "duration": 0.0161,
      "velocity": 97,
      "chip": "ym2612"
    },
    {
      "channel": 2,
      "note": 59,
      "start": 60.9137,
      "duration": 0.0159,
      "velocity": 100,
      "chip": "ym2612"
    },
    {
      "channel": 1,
      "note": 61,
      "start": 60.9259,
      "duration": 0.0157,
      "velocity": 124,
      "chip": "ym2612"
    },
    {
      "channel": 4,
      "note": 77,
      "start": 60.9272,
      "duration": 0.0158,
      "velocity": 97,
      "chip": "ym2612"
    },
    {
      "channel": 3,
      "note": 80,
      "start": 60.9284,
      "duration": 0.0157,
      "velocity": 97,
      "chip": "ym2612"
    },
    {
      "channel": 2,
      "note": 59,
      "start": 60.9296,
      "duration": 0.0157,
      "velocity": 100,
      "chip": "ym2612"
    },
    {
      "channel": 1,
      "note": 60,
      "start": 60.9417,
      "duration": 0.0137,
      "velocity": 124,
      "chip": "ym2612"
    },
    {
      "channel": 4,
      "note": 77,
      "start": 60.943,
      "duration": 0.014,
      "velocity": 97,
      "chip": "ym2612"
    },
    {
      "channel": 3,
      "note": 80,
      "start": 60.9441,
      "duration": 0.0141,
      "velocity": 97,
      "chip": "ym2612"
    },
    {
      "channel": 2,
      "note": 59,
      "start": 60.9453,
      "duration": 0.0141,
      "velocity": 100,
      "chip": "ym2612"
    },
    {
      "channel": 1,
      "note": 59,
      "start": 60.9554,
      "duration": 0.0161,
      "velocity": 124,
      "chip": "ym2612"
    },
    {
      "channel": 4,
      "note": 77,
      "start": 60.957,
      "duration": 0.0186,
      "velocity": 97,
      "chip": "ym2612"
    },
    {
      "channel": 3,
      "note": 80,
      "start": 60.9582,
      "duration": 0.0185,
      "velocity": 97,
      "chip": "ym2612"
    },
    {
      "channel": 2,
      "note": 59,
      "start": 60.9593,
      "duration": 0.0185,
      "velocity": 100,
      "chip": "ym2612"
    },
    {
      "channel": 1,
      "note": 57,
      "start": 60.9715,
      "duration": 0.0161,
      "velocity": 124,
      "chip": "ym2612"
    },
    {
      "channel": 4,
      "note": 77,
      "start": 60.9756,
      "duration": 0.0134,
      "velocity": 97,
      "chip": "ym2612"
    },
    {
      "channel": 3,
      "note": 80,
      "start": 60.9767,
      "duration": 0.0161,
      "velocity": 97,
      "chip": "ym2612"
    },
    {
      "channel": 2,
      "note": 59,
      "start": 60.9778,
      "duration": 0.0161,
      "velocity": 100,
      "chip": "ym2612"
    },
    {
      "channel": 1,
      "note": 56,
      "start": 60.9876,
      "duration": 0.0162,
      "velocity": 124,
      "chip": "ym2612"
    },
    {
      "channel": 4,
      "note": 77,
      "start": 60.9889,
      "duration": 0.0161,
      "velocity": 97,
      "chip": "ym2612"
    },
    {
      "channel": 3,
      "note": 80,
      "start": 60.9928,
      "duration": 0.0158,
      "velocity": 97,
      "chip": "ym2612"
    },
    {
      "channel": 2,
      "note": 59,
      "start": 60.9939,
      "duration": 0.0157,
      "velocity": 100,
      "chip": "ym2612"
    },
    {
      "channel": 1,
      "note": 55,
      "start": 61.0037,
      "duration": 0.0161,
      "velocity": 124,
      "chip": "ym2612"
    },
    {
      "channel": 4,
      "note": 77,
      "start": 61.005,
      "duration": 0.0161,
      "velocity": 97,
      "chip": "ym2612"
    },
    {
      "channel": 3,
      "note": 80,
      "start": 61.0086,
      "duration": 0.0137,
      "velocity": 97,
      "chip": "ym2612"
    },
    {
      "channel": 2,
      "note": 59,
      "start": 61.0097,
      "duration": 0.0141,
      "velocity": 100,
      "chip": "ym2612"
    },
    {
      "channel": 1,
      "note": 53,
      "start": 61.0198,
      "duration": 0.0161,
      "velocity": 124,
      "chip": "ym2612"
    },
    {
      "channel": 4,
      "note": 77,
      "start": 61.0211,
      "duration": 0.0161,
      "velocity": 97,
      "chip": "ym2612"
    },
    {
      "channel": 3,
      "note": 80,
      "start": 61.0222,
      "duration": 0.0162,
      "velocity": 97,
      "chip": "ym2612"
    },
    {
      "channel": 2,
      "note": 59,
      "start": 61.0237,
      "duration": 0.0186,
      "velocity": 100,
      "chip": "ym2612"
    },
    {
      "channel": 1,
      "note": 52,
      "start": 61.0359,
      "duration": 0.0161,
      "velocity": 124,
      "chip": "ym2612"
    },
    {
      "channel": 4,
      "note": 77,
      "start": 61.0372,
      "duration": 0.0161,
      "velocity": 97,
      "chip": "ym2612"
    },
    {
      "channel": 3,
      "note": 80,
      "start": 61.0384,
      "duration": 0.016,
      "velocity": 97,
      "chip": "ym2612"
    },
    {
      "channel": 2,
      "note": 59,
      "start": 61.0423,
      "duration": 0.0133,
      "velocity": 100,
      "chip": "ym2612"
    },
    {
      "channel": 1,
      "note": 51,
      "start": 61.052,
      "duration": 0.0153,
      "velocity": 1,
      "chip": "ym2612"
    },
    {
      "channel": 4,
      "note": 77,
      "start": 61.0533,
      "duration": 0.0153,
      "velocity": 97,
      "chip": "ym2612"
    },
    {
      "channel": 3,
      "note": 80,
      "start": 61.0544,
      "duration": 0.0153,
      "velocity": 97,
      "chip": "ym2612"
    },
    {
      "channel": 2,
      "note": 59,
      "start": 61.0556,
      "duration": 0.0153,
      "velocity": 100,
      "chip": "ym2612"
    },
    {
      "channel": 4,
      "note": 77,
      "start": 61.0686,
      "duration": 0.0153,
      "velocity": 97,
      "chip": "ym2612"
    },
    {
      "channel": 3,
      "note": 80,
      "start": 61.0698,
      "duration": 0.0153,
      "velocity": 97,
      "chip": "ym2612"
    },
    {
      "channel": 4,
      "note": 77,
      "start": 61.0838,
      "duration": 0.0196,
      "velocity": 97,
      "chip": "ym2612"
    },
    {
      "channel": 3,
      "note": 80,
      "start": 61.085,
      "duration": 0.0195,
      "velocity": 97,
      "chip": "ym2612"
    },
    {
      "channel": 1,
      "note": 78,
      "start": 61.1022,
      "duration": 0.0143,
      "velocity": 124,
      "chip": "ym2612"
    },
    {
      "channel": 4,
      "note": 77,
      "start": 61.1034,
      "duration": 0.0143,
      "velocity": 97,
      "chip": "ym2612"
    },
    {
      "channel": 3,
      "note": 80,
      "start": 61.1046,
      "duration": 0.0144,
      "velocity": 97,
      "chip": "ym2612"
    },
    {
      "channel": 1,
      "note": 76,
      "start": 61.1165,
      "duration": 0.0161,
      "velocity": 124,
      "chip": "ym2612"
    },
    {
      "channel": 4,
      "note": 77,
      "start": 61.1177,
      "duration": 0.0161,
      "velocity": 97,
      "chip": "ym2612"
    },
    {
      "channel": 3,
      "note": 80,
      "start": 61.119,
      "duration": 0.016,
      "velocity": 97,
      "chip": "ym2612"
    },
    {
      "channel": 1,
      "note": 75,
      "start": 61.1326,
      "duration": 0.0161,
      "velocity": 124,
      "chip": "ym2612"
    },
    {
      "channel": 4,
      "note": 77,
      "start": 61.1338,
      "duration": 0.0161,
      "velocity": 97,
      "chip": "ym2612"
    },
    {
      "channel": 3,
      "note": 80,
      "start": 61.135,
      "duration": 0.0161,
      "velocity": 97,
      "chip": "ym2612"
    },
    {
      "channel": 1,
      "note": 74,
      "start": 61.1487,
      "duration": 0.0161,
      "velocity": 124,
      "chip": "ym2612"
    },
    {
      "channel": 4,
      "note": 77,
      "start": 61.1499,
      "duration": 0.0161,
      "velocity": 97,
      "chip": "ym2612"
    },
    {
      "channel": 3,
      "note": 80,
      "start": 61.1511,
      "duration": 0.0162,
      "velocity": 97,
      "chip": "ym2612"
    },
    {
      "channel": 1,
      "note": 72,
      "start": 61.1647,
      "duration": 0.0161,
      "velocity": 124,
      "chip": "ym2612"
    },
    {
      "channel": 4,
      "note": 77,
      "start": 61.166,
      "duration": 0.0161,
      "velocity": 97,
      "chip": "ym2612"
    },
    {
      "channel": 3,
      "note": 80,
      "start": 61.1672,
      "duration": 0.016,
      "velocity": 97,
      "chip": "ym2612"
    },
    {
      "channel": 1,
      "note": 71,
      "start": 61.1808,
      "duration": 0.0179,
      "velocity": 124,
      "chip": "ym2612"
    },
    {
      "channel": 4,
      "note": 77,
      "start": 61.1821,
      "duration": 0.0179,
      "velocity": 97,
      "chip": "ym2612"
    },
    {
      "channel": 3,
      "note": 80,
      "start": 61.1833,
      "duration": 0.0179,
      "velocity": 97,
      "chip": "ym2612"
    },
    {
      "channel": 1,
      "note": 78,
      "start": 61.1987,
      "duration": 0.0144,
      "velocity": 124,
      "chip": "ym2612"
    },
    {
      "channel": 4,
      "note": 77,
      "start": 61.2,
      "duration": 0.0144,
      "velocity": 97,
      "chip": "ym2612"
    },
    {
      "channel": 3,
      "note": 80,
      "start": 61.2012,
      "duration": 0.0143,
      "velocity": 97,
      "chip": "ym2612"
    },
    {
      "channel": 1,
      "note": 76,
      "start": 61.2131,
      "duration": 0.016,
      "velocity": 124,
      "chip": "ym2612"
    },
    {
      "channel": 4,
      "note": 77,
      "start": 61.2144,
      "duration": 0.016,
      "velocity": 97,
      "chip": "ym2612"
    },
    {
      "channel": 3,
      "note": 80,
      "start": 61.2155,
      "duration": 0.016,
      "velocity": 97,
      "chip": "ym2612"
    },
    {
      "channel": 1,
      "note": 75,
      "start": 61.2291,
      "duration": 0.0161,
      "velocity": 124,
      "chip": "ym2612"
    },
    {
      "channel": 4,
      "note": 77,
      "start": 61.2304,
      "duration": 0.0161,
      "velocity": 97,
      "chip": "ym2612"
    },
    {
      "channel": 3,
      "note": 80,
      "start": 61.2315,
      "duration": 0.0162,
      "velocity": 97,
      "chip": "ym2612"
    },
    {
      "channel": 1,
      "note": 74,
      "start": 61.2452,
      "duration": 0.0161,
      "velocity": 124,
      "chip": "ym2612"
    },
    {
      "channel": 4,
      "note": 77,
      "start": 61.2465,
      "duration": 0.0162,
      "velocity": 97,
      "chip": "ym2612"
    },
    {
      "channel": 3,
      "note": 80,
      "start": 61.2477,
      "duration": 0.0161,
      "velocity": 97,
      "chip": "ym2612"
    },
    {
      "channel": 1,
      "note": 72,
      "start": 61.2613,
      "duration": 0.0161,
      "velocity": 124,
      "chip": "ym2612"
    },
    {
      "channel": 4,
      "note": 77,
      "start": 61.2627,
      "duration": 0.0161,
      "velocity": 97,
      "chip": "ym2612"
    },
    {
      "channel": 3,
      "note": 80,
      "start": 61.2638,
      "duration": 0.0161,
      "velocity": 97,
      "chip": "ym2612"
    },
    {
      "channel": 1,
      "note": 71,
      "start": 61.2774,
      "duration": 0.0179,
      "velocity": 124,
      "chip": "ym2612"
    },
    {
      "channel": 4,
      "note": 77,
      "start": 61.2788,
      "duration": 0.0179,
      "velocity": 97,
      "chip": "ym2612"
    },
    {
      "channel": 3,
      "note": 80,
      "start": 61.2799,
      "duration": 0.0179,
      "velocity": 97,
      "chip": "ym2612"
    },
    {
      "channel": 1,
      "note": 78,
      "start": 61.2954,
      "duration": 0.0153,
      "velocity": 124,
      "chip": "ym2612"
    },
    {
      "channel": 4,
      "note": 77,
      "start": 61.2966,
      "duration": 0.0153,
      "velocity": 97,
      "chip": "ym2612"
    },
    {
      "channel": 3,
      "note": 80,
      "start": 61.2978,
      "duration": 0.0153,
      "velocity": 97,
      "chip": "ym2612"
    },
    {
      "channel": 2,
      "note": 61,
      "start": 61.2992,
      "duration": 0.015,
      "velocity": 100,
      "chip": "ym2612"
    },
    {
      "channel": 1,
      "note": 76,
      "start": 61.3106,
      "duration": 0.0166,
      "velocity": 124,
      "chip": "ym2612"
    },
    {
      "channel": 4,
      "note": 77,
      "start": 61.3119,
      "duration": 0.0167,
      "velocity": 97,
      "chip": "ym2612"
    },
    {
      "channel": 3,
      "note": 80,
      "start": 61.3131,
      "duration": 0.0166,
      "velocity": 97,
      "chip": "ym2612"
    },
    {
      "channel": 2,
      "note": 61,
      "start": 61.3142,
      "duration": 0.0166,
      "velocity": 100,
      "chip": "ym2612"
    },
    {
      "channel": 1,
      "note": 75,
      "start": 61.3272,
      "duration": 0.0163,
      "velocity": 124,
      "chip": "ym2612"
    },
    {
      "channel": 4,
      "note": 77,
      "start": 61.3285,
      "duration": 0.0163,
      "velocity": 97,
      "chip": "ym2612"
    },
    {
      "channel": 3,
      "note": 80,
      "start": 61.3297,
      "duration": 0.0163,
      "velocity": 97,
      "chip": "ym2612"
    },
    {
      "channel": 2,
      "note": 61,
      "start": 61.3308,
      "duration": 0.0163,
      "velocity": 100,
      "chip": "ym2612"
    },
    {
      "channel": 1,
      "note": 74,
      "start": 61.3436,
      "duration": 0.0146,
      "velocity": 124,
      "chip": "ym2612"
    },
    {
      "channel": 4,
      "note": 77,
      "start": 61.3448,
      "duration": 0.0146,
      "velocity": 97,
      "chip": "ym2612"
    },
    {
      "channel": 3,
      "note": 80,
      "start": 61.346,
      "duration": 0.0146,
      "velocity": 97,
      "chip": "ym2612"
    },
    {
      "channel": 2,
      "note": 61,
      "start": 61.3471,
      "duration": 0.0146,
      "velocity": 100,
      "chip": "ym2612"
    },
    {
      "channel": 1,
      "note": 72,
      "start": 61.3582,
      "duration": 0.0186,
      "velocity": 124,
      "chip": "ym2612"
    },
    {
      "channel": 4,
      "note": 77,
      "start": 61.3595,
      "duration": 0.0186,
      "velocity": 97,
      "chip": "ym2612"
    },
    {
      "channel": 3,
      "note": 80,
      "start": 61.3606,
      "duration": 0.0186,
      "velocity": 97,
      "chip": "ym2612"
    },
    {
      "channel": 2,
      "note": 61,
      "start": 61.3618,
      "duration": 0.0186,
      "velocity": 100,
      "chip": "ym2612"
    },
    {
      "channel": 1,
      "note": 71,
      "start": 61.3768,
      "duration": 0.0161,
      "velocity": 124,
      "chip": "ym2612"
    },
    {
      "channel": 4,
      "note": 77,
      "start": 61.3781,
      "duration": 0.0161,
      "velocity": 97,
      "chip": "ym2612"
    },
    {
      "channel": 3,
      "note": 80,
      "start": 61.3793,
      "duration": 0.0161,
      "velocity": 97,
      "chip": "ym2612"
    },
    {
      "channel": 2,
      "note": 61,
      "start": 61.3804,
      "duration": 0.0161,
      "velocity": 100,
      "chip": "ym2612"
    },
    {
      "channel": 1,
      "note": 70,
      "start": 61.3929,
      "duration": 0.0157,
      "velocity": 124,
      "chip": "ym2612"
    },
    {
      "channel": 4,
      "note": 77,
      "start": 61.3942,
      "duration": 0.0157,
      "velocity": 97,
      "chip": "ym2612"
    },
    {
      "channel": 3,
      "note": 80,
      "start": 61.3954,
      "duration": 0.0157,
      "velocity": 97,
      "chip": "ym2612"
    },
    {
      "channel": 2,
      "note": 61,
      "start": 61.3965,
      "duration": 0.0157,
      "velocity": 100,
      "chip": "ym2612"
    },
    {
      "channel": 1,
      "note": 69,
      "start": 61.4086,
      "duration": 0.0137,
      "velocity": 124,
      "chip": "ym2612"
    },
    {
      "channel": 4,
      "note": 77,
      "start": 61.4099,
      "duration": 0.0141,
      "velocity": 97,
      "chip": "ym2612"
    },
    {
      "channel": 3,
      "note": 80,
      "start": 61.4111,
      "duration": 0.0141,
      "velocity": 97,
      "chip": "ym2612"
    },
    {
      "channel": 2,
      "note": 61,
      "start": 61.4122,
      "duration": 0.0141,
      "velocity": 100,
      "chip": "ym2612"
    },
    {
      "channel": 1,
      "note": 68,
      "start": 61.4223,
      "duration": 0.0162,
      "velocity": 124,
      "chip": "ym2612"
    },
    {
      "channel": 4,
      "note": 77,
      "start": 61.424,
      "duration": 0.0185,
      "velocity": 97,
      "chip": "ym2612"
    },
    {
      "channel": 3,
      "note": 80,
      "start": 61.4252,
      "duration": 0.0185,
      "velocity": 97,
      "chip": "ym2612"
    },
    {
      "channel": 2,
      "note": 61,
      "start": 61.4263,
      "duration": 0.0185,
      "velocity": 100,
      "chip": "ym2612"
    },
    {
      "channel": 1,
      "note": 66,
      "start": 61.4385,
      "duration": 0.0161,
      "velocity": 124,
      "chip": "ym2612"
    },
    {
      "channel": 4,
      "note": 77,
      "start": 61.4425,
      "duration": 0.0134,
      "velocity": 97,
      "chip": "ym2612"
    },
    {
      "channel": 3,
      "note": 80,
      "start": 61.4436,
      "duration": 0.0161,
      "velocity": 97,
      "chip": "ym2612"
    },
    {
      "channel": 2,
      "note": 61,
      "start": 61.4448,
      "duration": 0.0161,
      "velocity": 100,
      "chip": "ym2612"
    },
    {
      "channel": 1,
      "note": 65,
      "start": 61.4546,
      "duration": 0.0161,
      "velocity": 124,
      "chip": "ym2612"
    },
    {
      "channel": 4,
      "note": 77,
      "start": 61.4559,
      "duration": 0.0161,
      "velocity": 97,
      "chip": "ym2612"
    },
    {
      "channel": 3,
      "note": 80,
      "start": 61.4597,
      "duration": 0.0158,
      "velocity": 97,
      "chip": "ym2612"
    },
    {
      "channel": 1,
      "note": 64,
      "start": 61.4707,
      "duration": 0.0179,
      "velocity": 124,
      "chip": "ym2612"
    },
    {
      "channel": 4,
      "note": 77,
      "start": 61.4719,
      "duration": 0.0182,
      "velocity": 97,
      "chip": "ym2612"
    },
    {
      "channel": 3,
      "note": 80,
      "start": 61.4755,
      "duration": 0.0159,
      "velocity": 97,
      "chip": "ym2612"
    },
    {
      "channel": 1,
      "note": 78,
      "start": 61.4885,
      "duration": 0.0144,
      "velocity": 124,
      "chip": "ym2612"
    },
    {
      "channel": 4,
      "note": 77,
      "start": 61.4901,
      "duration": 0.0141,
      "velocity": 97,
      "chip": "ym2612"
    },
    {
      "channel": 3,
      "note": 80,
      "start": 61.4913,
      "duration": 0.014,
      "velocity": 97,
      "chip": "ym2612"
    },
    {
      "channel": 2,
      "note": 59,
      "start": 61.4927,
      "duration": 0.0165,
      "velocity": 100,
      "chip": "ym2612"
    },
    {
      "channel": 1,
      "note": 76,
      "start": 61.5029,
      "duration": 0.016,
      "velocity": 124,
      "chip": "ym2612"
    },
    {
      "channel": 4,
      "note": 77,
      "start": 61.5042,
      "duration": 0.016,
      "velocity": 97,
      "chip": "ym2612"
    },
    {
      "channel": 3,
      "note": 80,
      "start": 61.5053,
      "duration": 0.016,
      "velocity": 97,
      "chip": "ym2612"
    },
    {
      "channel": 2,
      "note": 59,
      "start": 61.5093,
      "duration": 0.0132,
      "velocity": 100,
      "chip": "ym2612"
    },
    {
      "channel": 1,
      "note": 75,
      "start": 61.519,
      "duration": 0.0161,
      "velocity": 124,
      "chip": "ym2612"
    },
    {
      "channel": 4,
      "note": 77,
      "start": 61.5202,
      "duration": 0.0161,
      "velocity": 97,
      "chip": "ym2612"
    },
    {
      "channel": 3,
      "note": 80,
      "start": 61.5214,
      "duration": 0.0162,
      "velocity": 97,
      "chip": "ym2612"
    },
    {
      "channel": 2,
      "note": 59,
      "start": 61.5225,
      "duration": 0.0161,
      "velocity": 100,
      "chip": "ym2612"
    },
    {
      "channel": 1,
      "note": 74,
      "start": 61.535,
      "duration": 0.0161,
      "velocity": 124,
      "chip": "ym2612"
    },
    {
      "channel": 4,
      "note": 77,
      "start": 61.5363,
      "duration": 0.0162,
      "velocity": 97,
      "chip": "ym2612"
    },
    {
      "channel": 3,
      "note": 80,
      "start": 61.5375,
      "duration": 0.0161,
      "velocity": 97,
      "chip": "ym2612"
    },
    {
      "channel": 2,
      "note": 59,
      "start": 61.5387,
      "duration": 0.0161,
      "velocity": 100,
      "chip": "ym2612"
    },
    {
      "channel": 1,
      "note": 72,
      "start": 61.5511,
      "duration": 0.0161,
      "velocity": 124,
      "chip": "ym2612"
    },
    {
      "channel": 4,
      "note": 77,
      "start": 61.5525,
      "duration": 0.0161,
      "velocity": 97,
      "chip": "ym2612"
    },
    {
      "channel": 3,
      "note": 80,
      "start": 61.5537,
      "duration": 0.016,
      "velocity": 97,
      "chip": "ym2612"
    },
    {
      "channel": 2,
      "note": 59,
      "start": 61.5548,
      "duration": 0.0161,
      "velocity": 100,
      "chip": "ym2612"
    },
    {
      "channel": 1,
      "note": 71,
      "start": 61.5672,
      "duration": 0.0179,
      "velocity": 124,
      "chip": "ym2612"
    },
    {
      "channel": 4,
      "note": 77,
      "start": 61.5686,
      "duration": 0.0179,
      "velocity": 97,
      "chip": "ym2612"
    },
    {
      "channel": 3,
      "note": 80,
      "start": 61.5697,
      "duration": 0.0179,
      "velocity": 97,
      "chip": "ym2612"
    },
    {
      "channel": 2,
      "note": 59,
      "start": 61.5709,
      "duration": 0.0179,
      "velocity": 100,
      "chip": "ym2612"
    },
    {
      "channel": 1,
      "note": 78,
      "start": 61.5852,
      "duration": 0.0144,
      "velocity": 124,
      "chip": "ym2612"
    },
    {
      "channel": 4,
      "note": 77,
      "start": 61.5864,
      "duration": 0.0144,
      "velocity": 97,
      "chip": "ym2612"
    },
    {
      "channel": 3,
      "note": 80,
      "start": 61.5876,
      "duration": 0.0144,
      "velocity": 97,
      "chip": "ym2612"
    },
    {
      "channel": 2,
      "note": 59,
      "start": 61.5887,
      "duration": 0.0144,
      "velocity": 100,
      "chip": "ym2612"
    },
    {
      "channel": 1,
      "note": 76,
      "start": 61.5995,
      "duration": 0.016,
      "velocity": 124,
      "chip": "ym2612"
    },
    {
      "channel": 4,
      "note": 77,
      "start": 61.6008,
      "duration": 0.016,
      "velocity": 97,
      "chip": "ym2612"
    },
    {
      "channel": 3,
      "note": 80,
      "start": 61.602,
      "duration": 0.016,
      "velocity": 97,
      "chip": "ym2612"
    },
    {
      "channel": 2,
      "note": 59,
      "start": 61.6031,
      "duration": 0.016,
      "velocity": 100,
      "chip": "ym2612"
    },
    {
      "channel": 1,
      "note": 75,
      "start": 61.6156,
      "duration": 0.0161,
      "velocity": 124,
      "chip": "ym2612"
    },
    {
      "channel": 4,
      "note": 77,
      "start": 61.6168,
      "duration": 0.0161,
      "velocity": 97,
      "chip": "ym2612"
    },
    {
      "channel": 3,
      "note": 80,
      "start": 61.618,
      "duration": 0.0161,
      "velocity": 97,
      "chip": "ym2612"
    },
    {
      "channel": 2,
      "note": 59,
      "start": 61.6191,
      "duration": 0.0161,
      "velocity": 100,
      "chip": "ym2612"
    },
    {
      "channel": 1,
      "note": 74,
      "start": 61.6317,
      "duration": 0.0161,
      "velocity": 124,
      "chip": "ym2612"
    },
    {
      "channel": 4,
      "note": 77,
      "start": 61.6329,
      "duration": 0.0161,
      "velocity": 97,
      "chip": "ym2612"
    },
    {
      "channel": 3,
      "note": 80,
      "start": 61.6341,
      "duration": 0.0161,
      "velocity": 97,
      "chip": "ym2612"
    },
    {
      "channel": 2,
      "note": 59,
      "start": 61.6352,
      "duration": 0.0161,
      "velocity": 100,
      "chip": "ym2612"
    },
    {
      "channel": 1,
      "note": 72,
      "start": 61.6478,
      "duration": 0.0161,
      "velocity": 124,
      "chip": "ym2612"
    },
    {
      "channel": 4,
      "note": 77,
      "start": 61.649,
      "duration": 0.0161,
      "velocity": 97,
      "chip": "ym2612"
    },
    {
      "channel": 3,
      "note": 80,
      "start": 61.6502,
      "duration": 0.0161,
      "velocity": 97,
      "chip": "ym2612"
    },
    {
      "channel": 1,
      "note": 71,
      "start": 61.6639,
      "duration": 0.0179,
      "velocity": 124,
      "chip": "ym2612"
    },
    {
      "channel": 4,
      "note": 77,
      "start": 61.6651,
      "duration": 0.0179,
      "velocity": 97,
      "chip": "ym2612"
    },
    {
      "channel": 3,
      "note": 80,
      "start": 61.6663,
      "duration": 0.0179,
      "velocity": 97,
      "chip": "ym2612"
    },
    {
      "channel": 1,
      "note": 78,
      "start": 61.6817,
      "duration": 0.0144,
      "velocity": 124,
      "chip": "ym2612"
    },
    {
      "channel": 4,
      "note": 77,
      "start": 61.6831,
      "duration": 0.0143,
      "velocity": 97,
      "chip": "ym2612"
    },
    {
      "channel": 3,
      "note": 80,
      "start": 61.6842,
      "duration": 0.0144,
      "velocity": 97,
      "chip": "ym2612"
    },
    {
      "channel": 2,
      "note": 56,
      "start": 61.6856,
      "duration": 0.0141,
      "velocity": 100,
      "chip": "ym2612"
    },
    {
      "channel": 1,
      "note": 76,
      "start": 61.6961,
      "duration": 0.016,
      "velocity": 124,
      "chip": "ym2612"
    },
    {
      "channel": 4,
      "note": 77,
      "start": 61.6974,
      "duration": 0.0161,
      "velocity": 97,
      "chip": "ym2612"
    },
    {
      "channel": 3,
      "note": 80,
      "start": 61.6986,
      "duration": 0.016,
      "velocity": 97,
      "chip": "ym2612"
    },
    {
      "channel": 2,
      "note": 56,
      "start": 61.6997,
      "duration": 0.016,
      "velocity": 100,
      "chip": "ym2612"
    },
    {
      "channel": 1,
      "note": 75,
      "start": 61.7121,
      "duration": 0.0161,
      "velocity": 124,
      "chip": "ym2612"
    },
    {
      "channel": 4,
      "note": 77,
      "start": 61.7135,
      "duration": 0.0161,
      "velocity": 97,
      "chip": "ym2612"
    },
    {
      "channel": 3,
      "note": 80,
      "start": 61.7146,
      "duration": 0.0161,
      "velocity": 97,
      "chip": "ym2612"
    },
    {
      "channel": 2,
      "note": 56,
      "start": 61.7158,
      "duration": 0.0161,
      "velocity": 100,
      "chip": "ym2612"
    },
    {
      "channel": 1,
      "note": 74,
      "start": 61.7282,
      "duration": 0.0162,
      "velocity": 124,
      "chip": "ym2612"
    },
    {
      "channel": 4,
      "note": 77,
      "start": 61.7296,
      "duration": 0.0161,
      "velocity": 97,
      "chip": "ym2612"
    },
    {
      "channel": 3,
      "note": 80,
      "start": 61.7307,
      "duration": 0.0161,
      "velocity": 97,
      "chip": "ym2612"
    },
    {
      "channel": 2,
      "note": 56,
      "start": 61.7319,
      "duration": 0.0161,
      "velocity": 100,
      "chip": "ym2612"
    },
    {
      "channel": 1,
      "note": 72,
      "start": 61.7444,
      "duration": 0.0161,
      "velocity": 124,
      "chip": "ym2612"
    },
    {
      "channel": 4,
      "note": 77,
      "start": 61.7457,
      "duration": 0.0161,
      "velocity": 97,
      "chip": "ym2612"
    },
    {
      "channel": 3,
      "note": 80,
      "start": 61.7468,
      "duration": 0.0161,
      "velocity": 97,
      "chip": "ym2612"
    },
    {
      "channel": 2,
      "note": 56,
      "start": 61.748,
      "duration": 0.0161,
      "velocity": 100,
      "chip": "ym2612"
    },
    {
      "channel": 1,
      "note": 71,
      "start": 61.7605,
      "duration": 0.0168,
      "velocity": 124,
      "chip": "ym2612"
    },
    {
      "channel": 4,
      "note": 77,
      "start": 61.7618,
      "duration": 0.0168,
      "velocity": 97,
      "chip": "ym2612"
    },
    {
      "channel": 3,
      "note": 80,
      "start": 61.7629,
      "duration": 0.0168,
      "velocity": 97,
      "chip": "ym2612"
    },
    {
      "channel": 2,
      "note": 56,
      "start": 61.7641,
      "duration": 0.0168,
      "velocity": 100,
      "chip": "ym2612"
    },
    {
      "channel": 1,
      "note": 70,
      "start": 61.7773,
      "duration": 0.0166,
      "velocity": 124,
      "chip": "ym2612"
    },
    {
      "channel": 4,
      "note": 77,
      "start": 61.7785,
      "duration": 0.0167,
      "velocity": 97,
      "chip": "ym2612"
    },
    {
      "channel": 3,
      "note": 80,
      "start": 61.7797,
      "duration": 0.0167,
      "velocity": 97,
      "chip": "ym2612"
    },
    {
      "channel": 2,
      "note": 56,
      "start": 61.7808,
      "duration": 0.0167,
      "velocity": 100,
      "chip": "ym2612"
    },
    {
      "channel": 1,
      "note": 69,
      "start": 61.7939,
      "duration": 0.0163,
      "velocity": 124,
      "chip": "ym2612"
    },
    {
      "channel": 4,
      "note": 77,
      "start": 61.7952,
      "duration": 0.0163,
      "velocity": 97,
      "chip": "ym2612"
    },
    {
      "channel": 3,
      "note": 80,
      "start": 61.7964,
      "duration": 0.0163,
      "velocity": 97,
      "chip": "ym2612"
    },
    {
      "channel": 2,
      "note": 56,
      "start": 61.7975,
      "duration": 0.0163,
      "velocity": 100,
      "chip": "ym2612"
    },
    {
      "channel": 1,
      "note": 68,
      "start": 61.8102,
      "duration": 0.0147,
      "velocity": 124,
      "chip": "ym2612"
    },
    {
      "channel": 4,
      "note": 77,
      "start": 61.8115,
      "duration": 0.0147,
      "velocity": 97,
      "chip": "ym2612"
    },
    {
      "channel": 3,
      "note": 80,
      "start": 61.8127,
      "duration": 0.0146,
      "velocity": 97,
      "chip": "ym2612"
    },
    {
      "channel": 2,
      "note": 56,
      "start": 61.8139,
      "duration": 0.0146,
      "velocity": 100,
      "chip": "ym2612"
    },
    {
      "channel": 1,
      "note": 66,
      "start": 61.8249,
      "duration": 0.0188,
      "velocity": 124,
      "chip": "ym2612"
    },
    {
      "channel": 4,
      "note": 77,
      "start": 61.8262,
      "duration": 0.0188,
      "velocity": 97,
      "chip": "ym2612"
    },
    {
      "channel": 3,
      "note": 80,
      "start": 61.8273,
      "duration": 0.0188,
      "velocity": 97,
      "chip": "ym2612"
    },
    {
      "channel": 2,
      "note": 56,
      "start": 61.8285,
      "duration": 0.0188,
      "velocity": 100,
      "chip": "ym2612"
    },
    {
      "channel": 1,
      "note": 65,
      "start": 61.8438,
      "duration": 0.0161,
      "velocity": 124,
      "chip": "ym2612"
    },
    {
      "channel": 4,
      "note": 77,
      "start": 61.845,
      "duration": 0.0161,
      "velocity": 97,
      "chip": "ym2612"
    },
    {
      "channel": 3,
      "note": 80,
      "start": 61.8462,
      "duration": 0.0161,
      "velocity": 97,
      "chip": "ym2612"
    },
    {
      "channel": 1,
      "note": 64,
      "start": 61.8598,
      "duration": 0.0157,
      "velocity": 124,
      "chip": "ym2612"
    },
    {
      "channel": 4,
      "note": 77,
      "start": 61.8611,
      "duration": 0.0194,
      "velocity": 97,
      "chip": "ym2612"
    },
    {
      "channel": 3,
      "note": 80,
      "start": 61.8623,
      "duration": 0.0197,
      "velocity": 97,
      "chip": "ym2612"
    },
    {
      "channel": 1,
      "note": 62,
      "start": 61.8756,
      "duration": 0.0138,
      "velocity": 124,
      "chip": "ym2612"
    },
    {
      "channel": 0,
      "note": 36,
      "start": 61.8791,
      "duration": 0.0123,
      "velocity": 115,
      "chip": "ym2612"
    },
    {
      "channel": 4,
      "note": 81,
      "start": 61.8806,
      "duration": 0.012,
      "velocity": 97,
      "chip": "ym2612"
    },
    {
      "channel": 3,
      "note": 84,
      "start": 61.882,
      "duration": 0.0118,
      "velocity": 97,
      "chip": "ym2612"
    },
    {
      "channel": 2,
      "note": 53,
      "start": 61.8836,
      "duration": 0.0114,
      "velocity": 100,
      "chip": "ym2612"
    },
    {
      "channel": 1,
      "note": 61,
      "start": 61.8894,
      "duration": 0.016,
      "velocity": 124,
      "chip": "ym2612"
    },
    {
      "channel": 0,
      "note": 36,
      "start": 61.8914,
      "duration": 0.0184,
      "velocity": 115,
      "chip": "ym2612"
    },
    {
      "channel": 4,
      "note": 81,
      "start": 61.8926,
      "duration": 0.0184,
      "velocity": 97,
      "chip": "ym2612"
    },
    {
      "channel": 3,
      "note": 84,
      "start": 61.8938,
      "duration": 0.0183,
      "velocity": 97,
      "chip": "ym2612"
    },
    {
      "channel": 2,
      "note": 53,
      "start": 61.895,
      "duration": 0.0183,
      "velocity": 100,
      "chip": "ym2612"
    },
    {
      "channel": 1,
      "note": 60,
      "start": 61.9054,
      "duration": 0.0161,
      "velocity": 124,
      "chip": "ym2612"
    },
    {
      "channel": 0,
      "note": 37,
      "start": 61.9098,
      "duration": 0.0161,
      "velocity": 115,
      "chip": "ym2612"
    },
    {
      "channel": 4,
      "note": 81,
      "start": 61.911,
      "duration": 0.0161,
      "velocity": 97,
      "chip": "ym2612"
    },
    {
      "channel": 3,
      "note": 84,
      "start": 61.9121,
      "duration": 0.0162,
      "velocity": 97,
      "chip": "ym2612"
    },
    {
      "channel": 2,
      "note": 53,
      "start": 61.9133,
      "duration": 0.0161,
      "velocity": 100,
      "chip": "ym2612"
    },
    {
      "channel": 1,
      "note": 59,
      "start": 61.9215,
      "duration": 0.0161,
      "velocity": 124,
      "chip": "ym2612"
    },
    {
      "channel": 0,
      "note": 37,
      "start": 61.9259,
      "duration": 0.0157,
      "velocity": 115,
      "chip": "ym2612"
    },
    {
      "channel": 4,
      "note": 81,
      "start": 61.9271,
      "duration": 0.0157,
      "velocity": 97,
      "chip": "ym2612"
    },
    {
      "channel": 3,
      "note": 84,
      "start": 61.9283,
      "duration": 0.0157,
      "velocity": 97,
      "chip": "ym2612"
    },
    {
      "channel": 2,
      "note": 53,
      "start": 61.9294,
      "duration": 0.0157,
      "velocity": 100,
      "chip": "ym2612"
    },
    {
      "channel": 1,
      "note": 57,
      "start": 61.9376,
      "duration": 0.0161,
      "velocity": 124,
      "chip": "ym2612"
    },
    {
      "channel": 0,
      "note": 38,
      "start": 61.9417,
      "duration": 0.0137,
      "velocity": 115,
      "chip": "ym2612"
    },
    {
      "channel": 4,
      "note": 81,
      "start": 61.9429,
      "duration": 0.0141,
      "velocity": 97,
      "chip": "ym2612"
    },
    {
      "channel": 3,
      "note": 84,
      "start": 61.944,
      "duration": 0.0141,
      "velocity": 97,
      "chip": "ym2612"
    },
    {
      "channel": 2,
      "note": 53,
      "start": 61.9451,
      "duration": 0.0141,
      "velocity": 100,
      "chip": "ym2612"
    },
    {
      "channel": 1,
      "note": 56,
      "start": 61.9537,
      "duration": 0.0161,
      "velocity": 124,
      "chip": "ym2612"
    },
    {
      "channel": 0,
      "note": 38,
      "start": 61.9554,
      "duration": 0.0161,
      "velocity": 115,
      "chip": "ym2612"
    },
    {
      "channel": 4,
      "note": 81,
      "start": 61.9569,
      "duration": 0.0185,
      "velocity": 97,
      "chip": "ym2612"
    },
    {
      "channel": 3,
      "note": 84,
      "start": 61.9581,
      "duration": 0.0185,
      "velocity": 97,
      "chip": "ym2612"
    },
    {
      "channel": 2,
      "note": 53,
      "start": 61.9592,
      "duration": 0.0185,
      "velocity": 100,
      "chip": "ym2612"
    },
    {
      "channel": 1,
      "note": 55,
      "start": 61.9698,
      "duration": 0.0161,
      "velocity": 124,
      "chip": "ym2612"
    },
    {
      "channel": 0,
      "note": 39,
      "start": 61.9715,
      "duration": 0.0161,
      "velocity": 115,
      "chip": "ym2612"
    },
    {
      "channel": 4,
      "note": 81,
      "start": 61.9754,
      "duration": 0.0134,
      "velocity": 97,
      "chip": "ym2612"
    },
    {
      "channel": 3,
      "note": 84,
      "start": 61.9766,
      "duration": 0.0161,
      "velocity": 97,
      "chip": "ym2612"
    },
    {
      "channel": 2,
      "note": 53,
      "start": 61.9777,
      "duration": 0.0161,
      "velocity": 100,
      "chip": "ym2612"
    },
    {
      "channel": 1,
      "note": 53,
      "start": 61.9859,
      "duration": 0.0161,
      "velocity": 124,
      "chip": "ym2612"
    },
    {
      "channel": 0,
      "note": 39,
      "start": 61.9876,
      "duration": 0.0161,
      "velocity": 115,
      "chip": "ym2612"
    },
    {
      "channel": 4,
      "note": 81,
      "start": 61.9888,
      "duration": 0.0161,
      "velocity": 97,
      "chip": "ym2612"
    },
    {
      "channel": 3,
      "note": 84,
      "start": 61.9927,
      "duration": 0.0157,
      "velocity": 97,
      "chip": "ym2612"
    },
    {
      "channel": 2,
      "note": 53,
      "start": 61.9938,
      "duration": 0.0157,
      "velocity": 100,
      "chip": "ym2612"
    },
    {
      "channel": 1,
      "note": 52,
      "start": 62.002,
      "duration": 0.0161,
      "velocity": 124,
      "chip": "ym2612"
    },
    {
      "channel": 0,
      "note": 40,
      "start": 62.0037,
      "duration": 0.0161,
      "velocity": 115,
      "chip": "ym2612"
    },
    {
      "channel": 4,
      "note": 81,
      "start": 62.0049,
      "duration": 0.0161,
      "velocity": 97,
      "chip": "ym2612"
    },
    {
      "channel": 3,
      "note": 84,
      "start": 62.0084,
      "duration": 0.0137,
      "velocity": 97,
      "chip": "ym2612"
    },
    {
      "channel": 2,
      "note": 53,
      "start": 62.0095,
      "duration": 0.0141,
      "velocity": 100,
      "chip": "ym2612"
    },
    {
      "channel": 1,
      "note": 51,
      "start": 62.018,
      "duration": 0.0153,
      "velocity": 1,
      "chip": "ym2612"
    },
    {
      "channel": 0,
      "note": 40,
      "start": 62.0198,
      "duration": 0.0153,
      "velocity": 115,
      "chip": "ym2612"
    },
    {
      "channel": 4,
      "note": 81,
      "start": 62.021,
      "duration": 0.0153,
      "velocity": 97,
      "chip": "ym2612"
    },
    {
      "channel": 3,
      "note": 84,
      "start": 62.0221,
      "duration": 0.0153,
      "velocity": 97,
      "chip": "ym2612"
    },
    {
      "channel": 2,
      "note": 53,
      "start": 62.0236,
      "duration": 0.015,
      "velocity": 100,
      "chip": "ym2612"
    },
    {
      "channel": 0,
      "note": 40,
      "start": 62.0351,
      "duration": 0.0153,
      "velocity": 115,
      "chip": "ym2612"
    },
    {
      "channel": 4,
      "note": 81,
      "start": 62.0363,
      "duration": 0.0153,
      "velocity": 97,
      "chip": "ym2612"
    },
    {
      "channel": 3,
      "note": 84,
      "start": 62.0374,
      "duration": 0.0153,
      "velocity": 97,
      "chip": "ym2612"
    },
    {
      "channel": 0,
      "note": 41,
      "start": 62.0504,
      "duration": 0.0161,
      "velocity": 115,
      "chip": "ym2612"
    },
    {
      "channel": 4,
      "note": 81,
      "start": 62.0515,
      "duration": 0.0161,
      "velocity": 97,
      "chip": "ym2612"
    },
    {
      "channel": 3,
      "note": 84,
      "start": 62.0527,
      "duration": 0.0162,
      "velocity": 97,
      "chip": "ym2612"
    },
    {
      "channel": 0,
      "note": 41,
      "start": 62.0665,
      "duration": 0.0161,
      "velocity": 115,
      "chip": "ym2612"
    },
    {
      "channel": 4,
      "note": 81,
      "start": 62.0677,
      "duration": 0.0161,
      "velocity": 97,
      "chip": "ym2612"
    },
    {
      "channel": 3,
      "note": 84,
      "start": 62.0688,
      "duration": 0.0161,
      "velocity": 97,
      "chip": "ym2612"
    },
    {
      "channel": 2,
      "note": 60,
      "start": 62.0702,
      "duration": 0.0159,
      "velocity": 100,
      "chip": "ym2612"
    },
    {
      "channel": 1,
      "note": 48,
      "start": 62.0716,
      "duration": 0.0156,
      "velocity": 100,
      "chip": "ym2612"
    },
    {
      "channel": 0,
      "note": 42,
      "start": 62.0826,
      "duration": 0.0161,
      "velocity": 115,
      "chip": "ym2612"
    },
    {
      "channel": 4,
      "note": 81,
      "start": 62.0838,
      "duration": 0.0161,
      "velocity": 97,
      "chip": "ym2612"
    },
    {
      "channel": 3,
      "note": 84,
      "start": 62.0849,
      "duration": 0.0161,
      "velocity": 97,
      "chip": "ym2612"
    },
    {
      "channel": 2,
      "note": 60,
      "start": 62.0861,
      "duration": 0.016,
      "velocity": 100,
      "chip": "ym2612"
    },
    {
      "channel": 1,
      "note": 48,
      "start": 62.0873,
      "duration": 0.016,
      "velocity": 100,
      "chip": "ym2612"
    },
    {
      "channel": 0,
      "note": 42,
      "start": 62.0987,
      "duration": 0.0161,
      "velocity": 115,
      "chip": "ym2612"
    },
    {
      "channel": 4,
      "note": 81,
      "start": 62.0999,
      "duration": 0.0161,
      "velocity": 97,
      "chip": "ym2612"
    },
    {
      "channel": 3,
      "note": 84,
      "start": 62.101,
      "duration": 0.0161,
      "velocity": 97,
      "chip": "ym2612"
    },
    {
      "channel": 2,
      "note": 60,
      "start": 62.1022,
      "duration": 0.0161,
      "velocity": 100,
      "chip": "ym2612"
    },
    {
      "channel": 1,
      "note": 48,
      "start": 62.1033,
      "duration": 0.0161,
      "velocity": 100,
      "chip": "ym2612"
    },
    {
      "channel": 0,
      "note": 43,
      "start": 62.1147,
      "duration": 0.0161,
      "velocity": 115,
      "chip": "ym2612"
    },
    {
      "channel": 4,
      "note": 81,
      "start": 62.116,
      "duration": 0.0161,
      "velocity": 97,
      "chip": "ym2612"
    },
    {
      "channel": 3,
      "note": 84,
      "start": 62.1171,
      "duration": 0.0161,
      "velocity": 97,
      "chip": "ym2612"
    },
    {
      "channel": 2,
      "note": 60,
      "start": 62.1183,
      "duration": 0.0161,
      "velocity": 100,
      "chip": "ym2612"
    },
    {
      "channel": 1,
      "note": 48,
      "start": 62.1194,
      "duration": 0.0161,
      "velocity": 100,
      "chip": "ym2612"
    },
    {
      "channel": 0,
      "note": 43,
      "start": 62.1308,
      "duration": 0.0161,
      "velocity": 115,
      "chip": "ym2612"
    },
    {
      "channel": 4,
      "note": 81,
      "start": 62.132,
      "duration": 0.0161,
      "velocity": 97,
      "chip": "ym2612"
    },
    {
      "channel": 3,
      "note": 84,
      "start": 62.1332,
      "duration": 0.0161,
      "velocity": 97,
      "chip": "ym2612"
    },
    {
      "channel": 2,
      "note": 60,
      "start": 62.1343,
      "duration": 0.0161,
      "velocity": 100,
      "chip": "ym2612"
    },
    {
      "channel": 1,
      "note": 48,
      "start": 62.1355,
      "duration": 0.0161,
      "velocity": 100,
      "chip": "ym2612"
    },
    {
      "channel": 0,
      "note": 44,
      "start": 62.1469,
      "duration": 0.0161,
      "velocity": 115,
      "chip": "ym2612"
    },
    {
      "channel": 4,
      "note": 81,
      "start": 62.1481,
      "duration": 0.0161,
      "velocity": 97,
      "chip": "ym2612"
    },
    {
      "channel": 3,
      "note": 84,
      "start": 62.1493,
      "duration": 0.0161,
      "velocity": 97,
      "chip": "ym2612"
    },
    {
      "channel": 2,
      "note": 60,
      "start": 62.1504,
      "duration": 0.0161,
      "velocity": 100,
      "chip": "ym2612"
    },
    {
      "channel": 1,
      "note": 48,
      "start": 62.1516,
      "duration": 0.0161,
      "velocity": 100,
      "chip": "ym2612"
    },
    {
      "channel": 0,
      "note": 44,
      "start": 62.1631,
      "duration": 0.0161,
      "velocity": 115,
      "chip": "ym2612"
    },
    {
      "channel": 4,
      "note": 81,
      "start": 62.1642,
      "duration": 0.0161,
      "velocity": 97,
      "chip": "ym2612"
    },
    {
      "channel": 3,
      "note": 84,
      "start": 62.1654,
      "duration": 0.0161,
      "velocity": 97,
      "chip": "ym2612"
    },
    {
      "channel": 2,
      "note": 60,
      "start": 62.1665,
      "duration": 0.0161,
      "velocity": 100,
      "chip": "ym2612"
    },
    {
      "channel": 1,
      "note": 48,
      "start": 62.1677,
      "duration": 0.0162,
      "velocity": 100,
      "chip": "ym2612"
    },
    {
      "channel": 0,
      "note": 44,
      "start": 62.1792,
      "duration": 0.0161,
      "velocity": 115,
      "chip": "ym2612"
    },
    {
      "channel": 4,
      "note": 81,
      "start": 62.1804,
      "duration": 0.0161,
      "velocity": 97,
      "chip": "ym2612"
    },
    {
      "channel": 3,
      "note": 84,
      "start": 62.1815,
      "duration": 0.0161,
      "velocity": 97,
      "chip": "ym2612"
    },
    {
      "channel": 2,
      "note": 60,
      "start": 62.1827,
      "duration": 0.0161,
      "velocity": 100,
      "chip": "ym2612"
    },
    {
      "channel": 1,
      "note": 48,
      "start": 62.1838,
      "duration": 0.0161,
      "velocity": 100,
      "chip": "ym2612"
    },
    {
      "channel": 0,
      "note": 45,
      "start": 62.1953,
      "duration": 0.0161,
      "velocity": 115,
      "chip": "ym2612"
    },
    {
      "channel": 4,
      "note": 81,
      "start": 62.1965,
      "duration": 0.0161,
      "velocity": 97,
      "chip": "ym2612"
    },
    {
      "channel": 3,
      "note": 84,
      "start": 62.1976,
      "duration": 0.0161,
      "velocity": 97,
      "chip": "ym2612"
    },
    {
      "channel": 2,
      "note": 60,
      "start": 62.1988,
      "duration": 0.0161,
      "velocity": 100,
      "chip": "ym2612"
    },
    {
      "channel": 1,
      "note": 48,
      "start": 62.1999,
      "duration": 0.016,
      "velocity": 100,
      "chip": "ym2612"
    },
    {
      "channel": 0,
      "note": 45,
      "start": 62.2114,
      "duration": 0.0161,
      "velocity": 115,
      "chip": "ym2612"
    },
    {
      "channel": 4,
      "note": 81,
      "start": 62.2126,
      "duration": 0.0161,
      "velocity": 97,
      "chip": "ym2612"
    },
    {
      "channel": 3,
      "note": 84,
      "start": 62.2137,
      "duration": 0.0161,
      "velocity": 97,
      "chip": "ym2612"
    },
    {
      "channel": 2,
      "note": 60,
      "start": 62.2149,
      "duration": 0.0161,
      "velocity": 100,
      "chip": "ym2612"
    },
    {
      "channel": 1,
      "note": 48,
      "start": 62.216,
      "duration": 0.0161,
      "velocity": 100,
      "chip": "ym2612"
    },
    {
      "channel": 0,
      "note": 46,
      "start": 62.2275,
      "duration": 0.0165,
      "velocity": 115,
      "chip": "ym2612"
    },
    {
      "channel": 4,
      "note": 81,
      "start": 62.2287,
      "duration": 0.0165,
      "velocity": 97,
      "chip": "ym2612"
    },
    {
      "channel": 3,
      "note": 84,
      "start": 62.2298,
      "duration": 0.0166,
      "velocity": 97,
      "chip": "ym2612"
    },
    {
      "channel": 0,
      "note": 46,
      "start": 62.2439,
      "duration": 0.0202,
      "velocity": 115,
      "chip": "ym2612"
    },
    {
      "channel": 4,
      "note": 81,
      "start": 62.2451,
      "duration": 0.0202,
      "velocity": 97,
      "chip": "ym2612"
    },
    {
      "channel": 3,
      "note": 84,
      "start": 62.2464,
      "duration": 0.0201,
      "velocity": 97,
      "chip": "ym2612"
    },
    {
      "channel": 1,
      "note": 78,
      "start": 62.2624,
      "duration": 0.0146,
      "velocity": 124,
      "chip": "ym2612"
    },
    {
      "channel": 0,
      "note": 47,
      "start": 62.2641,
      "duration": 0.0146,
      "velocity": 115,
      "chip": "ym2612"
    },
    {
      "channel": 4,
      "note": 81,
      "start": 62.2653,
      "duration": 0.0146,
      "velocity": 97,
      "chip": "ym2612"
    },
    {
      "channel": 3,
      "note": 84,
      "start": 62.2665,
      "duration": 0.0146,
      "velocity": 97,
      "chip": "ym2612"
    },
    {
      "channel": 2,
      "note": 65,
      "start": 62.2679,
      "duration": 0.0144,
      "velocity": 100,
      "chip": "ym2612"
    },
    {
      "channel": 1,
      "note": 76,
      "start": 62.277,
      "duration": 0.0148,
      "velocity": 124,
      "chip": "ym2612"
    },
    {
      "channel": 0,
      "note": 47,
      "start": 62.2787,
      "duration": 0.0149,
      "velocity": 115,
      "chip": "ym2612"
    },
    {
      "channel": 4,
      "note": 81,
      "start": 62.2799,
      "duration": 0.0148,
      "velocity": 97,
      "chip": "ym2612"
    },
    {
      "channel": 3,
      "note": 84,
      "start": 62.281,
      "duration": 0.0149,
      "velocity": 97,
      "chip": "ym2612"
    },
    {
      "channel": 2,
      "note": 65,
      "start": 62.2822,
      "duration": 0.0148,
      "velocity": 100,
      "chip": "ym2612"
    },
    {
      "channel": 1,
      "note": 75,
      "start": 62.2918,
      "duration": 0.0188,
      "velocity": 124,
      "chip": "ym2612"
    },
    {
      "channel": 0,
      "note": 47,
      "start": 62.2936,
      "duration": 0.0187,
      "velocity": 115,
      "chip": "ym2612"
    },
    {
      "channel": 4,
      "note": 81,
      "start": 62.2947,
      "duration": 0.0188,
      "velocity": 97,
      "chip": "ym2612"
    },
    {
      "channel": 3,
      "note": 84,
      "start": 62.2959,
      "duration": 0.0188,
      "velocity": 97,
      "chip": "ym2612"
    },
    {
      "channel": 2,
      "note": 65,
      "start": 62.297,
      "duration": 0.0188,
      "velocity": 100,
      "chip": "ym2612"
    },
    {
      "channel": 1,
      "note": 74,
      "start": 62.3105,
      "duration": 0.0162,
      "velocity": 124,
      "chip": "ym2612"
    },
    {
      "channel": 0,
      "note": 48,
      "start": 62.3123,
      "duration": 0.0162,
      "velocity": 115,
      "chip": "ym2612"
    },
    {
      "channel": 4,
      "note": 81,
      "start": 62.3135,
      "duration": 0.0162,
      "velocity": 97,
      "chip": "ym2612"
    },
    {
      "channel": 3,
      "note": 84,
      "start": 62.3147,
      "duration": 0.0162,
      "velocity": 97,
      "chip": "ym2612"
    },
    {
      "channel": 2,
      "note": 65,
      "start": 62.3158,
      "duration": 0.0163,
      "velocity": 100,
      "chip": "ym2612"
    },
    {
      "channel": 1,
      "note": 72,
      "start": 62.3268,
      "duration": 0.0157,
      "velocity": 124,
      "chip": "ym2612"
    },
    {
      "channel": 0,
      "note": 48,
      "start": 62.3285,
      "duration": 0.0157,
      "velocity": 115,
      "chip": "ym2612"
    },
    {
      "channel": 4,
      "note": 81,
      "start": 62.3297,
      "duration": 0.0157,
      "velocity": 97,
      "chip": "ym2612"
    },
    {
      "channel": 3,
      "note": 84,
      "start": 62.3309,
      "duration": 0.0156,
      "velocity": 97,
      "chip": "ym2612"
    },
    {
      "channel": 2,
      "note": 65,
      "start": 62.332,
      "duration": 0.0157,
      "velocity": 100,
      "chip": "ym2612"
    },
    {
      "channel": 1,
      "note": 71,
      "start": 62.3425,
      "duration": 0.0141,
      "velocity": 124,
      "chip": "ym2612"
    },
    {
      "channel": 0,
      "note": 49,
      "start": 62.3442,
      "duration": 0.0133,
      "velocity": 1,
      "chip": "ym2612"
    },
    {
      "channel": 4,
      "note": 81,
      "start": 62.3454,
      "duration": 0.0132,
      "velocity": 97,
      "chip": "ym2612"
    },
    {
      "channel": 3,
      "note": 84,
      "start": 62.3466,
      "duration": 0.0133,
      "velocity": 97,
      "chip": "ym2612"
    },
    {
      "channel": 2,
      "note": 65,
      "start": 62.3477,
      "duration": 0.0132,
      "velocity": 100,
      "chip": "ym2612"
    },
    {
      "channel": 1,
      "note": 70,
      "start": 62.3565,
      "duration": 0.0158,
      "velocity": 124,
      "chip": "ym2612"
    },
    {
      "channel": 4,
      "note": 81,
      "start": 62.3586,
      "duration": 0.0177,
      "velocity": 97,
      "chip": "ym2612"
    },
    {
      "channel": 3,
      "note": 84,
      "start": 62.3598,
      "duration": 0.0177,
      "velocity": 97,
      "chip": "ym2612"
    },
    {
      "channel": 2,
      "note": 65,
      "start": 62.3609,
      "duration": 0.0177,
      "velocity": 100,
      "chip": "ym2612"
    },
    {
      "channel": 1,
      "note": 69,
      "start": 62.3723,
      "duration": 0.0161,
      "velocity": 124,
      "chip": "ym2612"
    },
    {
      "channel": 4,
      "note": 81,
      "start": 62.3763,
      "duration": 0.0161,
      "velocity": 97,
      "chip": "ym2612"
    },
    {
      "channel": 3,
      "note": 84,
      "start": 62.3775,
      "duration": 0.0161,
      "velocity": 97,
      "chip": "ym2612"
    },
    {
      "channel": 2,
      "note": 65,
      "start": 62.3786,
      "duration": 0.0161,
      "velocity": 100,
      "chip": "ym2612"
    },
    {
      "channel": 1,
      "note": 68,
      "start": 62.3884,
      "duration": 0.0161,
      "velocity": 124,
      "chip": "ym2612"
    },
    {
      "channel": 4,
      "note": 81,
      "start": 62.3924,
      "duration": 0.0134,
      "velocity": 97,
      "chip": "ym2612"
    },
    {
      "channel": 3,
      "note": 84,
      "start": 62.3936,
      "duration": 0.0157,
      "velocity": 97,
      "chip": "ym2612"
    },
    {
      "channel": 2,
      "note": 65,
      "start": 62.3947,
      "duration": 0.0158,
      "velocity": 100,
      "chip": "ym2612"
    },
    {
      "channel": 1,
      "note": 66,
      "start": 62.4045,
      "duration": 0.0161,
      "velocity": 124,
      "chip": "ym2612"
    },
    {
      "channel": 4,
      "note": 81,
      "start": 62.4058,
      "duration": 0.0161,
      "velocity": 97,
      "chip": "ym2612"
    },
    {
      "channel": 3,
      "note": 84,
      "start": 62.4093,
      "duration": 0.0141,
      "velocity": 97,
      "chip": "ym2612"
    },
    {
      "channel": 2,
      "note": 65,
      "start": 62.4105,
      "duration": 0.0141,
      "velocity": 100,
      "chip": "ym2612"
    },
    {
      "channel": 1,
      "note": 65,
      "start": 62.4206,
      "duration": 0.0161,
      "velocity": 124,
      "chip": "ym2612"
    },
    {
      "channel": 4,
      "note": 81,
      "start": 62.4219,
      "duration": 0.0161,
      "velocity": 97,
      "chip": "ym2612"
    },
    {
      "channel": 3,
      "note": 84,
      "start": 62.4234,
      "duration": 0.0158,
      "velocity": 97,
      "chip": "ym2612"
    },
    {
      "channel": 1,
      "note": 64,
      "start": 62.4367,
      "duration": 0.0161,
      "velocity": 124,
      "chip": "ym2612"
    },
    {
      "channel": 4,
      "note": 81,
      "start": 62.438,
      "duration": 0.0223,
      "velocity": 97,
      "chip": "ym2612"
    },
    {
      "channel": 3,
      "note": 84,
      "start": 62.4392,
      "duration": 0.0223,
      "velocity": 97,
      "chip": "ym2612"
    },
    {
      "channel": 1,
      "note": 62,
      "start": 62.4528,
      "duration": 0.0161,
      "velocity": 124,
      "chip": "ym2612"
    },
    {
      "channel": 0,
      "note": 36,
      "start": 62.4591,
      "duration": 0.0116,
      "velocity": 115,
      "chip": "ym2612"
    },
    {
      "channel": 4,
      "note": 81,
      "start": 62.4603,
      "duration": 0.0116,
      "velocity": 97,
      "chip": "ym2612"
    },
    {
      "channel": 3,
      "note": 84,
      "start": 62.4615,
      "duration": 0.0139,
      "velocity": 97,
      "chip": "ym2612"
    },
    {
      "channel": 2,
      "note": 63,
      "start": 62.4629,
      "duration": 0.0137,
      "velocity": 100,
      "chip": "ym2612"
    },
    {
      "channel": 1,
      "note": 61,
      "start": 62.4689,
      "duration": 0.0161,
      "velocity": 124,
      "chip": "ym2612"
    },
    {
      "channel": 0,
      "note": 36,
      "start": 62.4707,
      "duration": 0.016,
      "velocity": 115,
      "chip": "ym2612"
    },
    {
      "channel": 4,
      "note": 81,
      "start": 62.4719,
      "duration": 0.0161,
      "velocity": 97,
      "chip": "ym2612"
    },
    {
      "channel": 3,
      "note": 84,
      "start": 62.4754,
      "duration": 0.0137,
      "velocity": 97,
      "chip": "ym2612"
    },
    {
      "channel": 2,
      "note": 63,
      "start": 62.4766,
      "duration": 0.0139,
      "velocity": 100,
      "chip": "ym2612"
    },
    {
      "channel": 1,
      "note": 60,
      "start": 62.485,
      "duration": 0.0161,
      "velocity": 124,
      "chip": "ym2612"
    },
    {
      "channel": 0,
      "note": 37,
      "start": 62.4868,
      "duration": 0.0161,
      "velocity": 115,
      "chip": "ym2612"
    },
    {
      "channel": 4,
      "note": 81,
      "start": 62.488,
      "duration": 0.0161,
      "velocity": 97,
      "chip": "ym2612"
    },
    {
      "channel": 3,
      "note": 84,
      "start": 62.4891,
      "duration": 0.0161,
      "velocity": 97,
      "chip": "ym2612"
    },
    {
      "channel": 2,
      "note": 63,
      "start": 62.4906,
      "duration": 0.0185,
      "velocity": 100,
      "chip": "ym2612"
    },
    {
      "channel": 1,
      "note": 59,
      "start": 62.5011,
      "duration": 0.0161,
      "velocity": 124,
      "chip": "ym2612"
    },
    {
      "channel": 0,
      "note": 37,
      "start": 62.5029,
      "duration": 0.0161,
      "velocity": 115,
      "chip": "ym2612"
    },
    {
      "channel": 4,
      "note": 81,
      "start": 62.5041,
      "duration": 0.0161,
      "velocity": 97,
      "chip": "ym2612"
    },
    {
      "channel": 3,
      "note": 84,
      "start": 62.5052,
      "duration": 0.0161,
      "velocity": 97,
      "chip": "ym2612"
    },
    {
      "channel": 2,
      "note": 63,
      "start": 62.5091,
      "duration": 0.0134,
      "velocity": 100,
      "chip": "ym2612"
    },
    {
      "channel": 1,
      "note": 57,
      "start": 62.5172,
      "duration": 0.0161,
      "velocity": 124,
      "chip": "ym2612"
    },
    {
      "channel": 0,
      "note": 38,
      "start": 62.519,
      "duration": 0.0161,
      "velocity": 115,
      "chip": "ym2612"
    },
    {
      "channel": 4,
      "note": 81,
      "start": 62.5202,
      "duration": 0.0161,
      "velocity": 97,
      "chip": "ym2612"
    },
    {
      "channel": 3,
      "note": 84,
      "start": 62.5213,
      "duration": 0.0161,
      "velocity": 97,
      "chip": "ym2612"
    },
    {
      "channel": 2,
      "note": 63,
      "start": 62.5224,
      "duration": 0.0161,
      "velocity": 100,
      "chip": "ym2612"
    },
    {
      "channel": 1,
      "note": 56,
      "start": 62.5333,
      "duration": 0.0161,
      "velocity": 124,
      "chip": "ym2612"
    },
    {
      "channel": 0,
      "note": 38,
      "start": 62.535,
      "duration": 0.0161,
      "velocity": 115,
      "chip": "ym2612"
    },
    {
      "channel": 4,
      "note": 81,
      "start": 62.5363,
      "duration": 0.0161,
      "velocity": 97,
      "chip": "ym2612"
    },
    {
      "channel": 3,
      "note": 84,
      "start": 62.5374,
      "duration": 0.0161,
      "velocity": 97,
      "chip": "ym2612"
    },
    {
      "channel": 2,
      "note": 63,
      "start": 62.5385,
      "duration": 0.0161,
      "velocity": 100,
      "chip": "ym2612"
    },
    {
      "channel": 1,
      "note": 55,
      "start": 62.5494,
      "duration": 0.0161,
      "velocity": 124,
      "chip": "ym2612"
    },
    {
      "channel": 0,
      "note": 39,
      "start": 62.5511,
      "duration": 0.0161,
      "velocity": 115,
      "chip": "ym2612"
    },
    {
      "channel": 4,
      "note": 81,
      "start": 62.5523,
      "duration": 0.0161,
      "velocity": 97,
      "chip": "ym2612"
    },
    {
      "channel": 3,
      "note": 84,
      "start": 62.5535,
      "duration": 0.0161,
      "velocity": 97,
      "chip": "ym2612"
    },
    {
      "channel": 2,
      "note": 63,
      "start": 62.5546,
      "duration": 0.0161,
      "velocity": 100,
      "chip": "ym2612"
    },
    {
      "channel": 1,
      "note": 53,
      "start": 62.5655,
      "duration": 0.0161,
      "velocity": 124,
      "chip": "ym2612"
    },
    {
      "channel": 0,
      "note": 39,
      "start": 62.5672,
      "duration": 0.0161,
      "velocity": 115,
      "chip": "ym2612"
    },
    {
      "channel": 4,
      "note": 81,
      "start": 62.5684,
      "duration": 0.0161,
      "velocity": 97,
      "chip": "ym2612"
    },
    {
      "channel": 3,
      "note": 84,
      "start": 62.5696,
      "duration": 0.0161,
      "velocity": 97,
      "chip": "ym2612"
    },
    {
      "channel": 2,
      "note": 63,
      "start": 62.5707,
      "duration": 0.0162,
      "velocity": 100,
      "chip": "ym2612"
    },
    {
      "channel": 1,
      "note": 52,
      "start": 62.5816,
      "duration": 0.0161,
      "velocity": 124,
      "chip": "ym2612"
    },
    {
      "channel": 0,
      "note": 40,
      "start": 62.5833,
      "duration": 0.0161,
      "velocity": 115,
      "chip": "ym2612"
    },
    {
      "channel": 4,
      "note": 81,
      "start": 62.5845,
      "duration": 0.0161,
      "velocity": 97,
      "chip": "ym2612"
    },
    {
      "channel": 3,
      "note": 84,
      "start": 62.5857,
      "duration": 0.0161,
      "velocity": 97,
      "chip": "ym2612"
    },
    {
      "channel": 2,
      "note": 63,
      "start": 62.5869,
      "duration": 0.016,
      "velocity": 100,
      "chip": "ym2612"
    },
    {
      "channel": 1,
      "note": 51,
      "start": 62.5977,
      "duration": 0.0153,
      "velocity": 1,
      "chip": "ym2612"
    },
    {
      "channel": 0,
      "note": 40,
      "start": 62.5994,
      "duration": 0.0153,
      "velocity": 115,
      "chip": "ym2612"
    },
    {
      "channel": 4,
      "note": 81,
      "start": 62.6006,
      "duration": 0.0153,
      "velocity": 97,
      "chip": "ym2612"
    },
    {
      "channel": 3,
      "note": 84,
      "start": 62.6018,
      "duration": 0.0153,
      "velocity": 97,
      "chip": "ym2612"
    },
    {
      "channel": 2,
      "note": 63,
      "start": 62.6029,
      "duration": 0.0153,
      "velocity": 100,
      "chip": "ym2612"
    },
    {
      "channel": 0,
      "note": 40,
      "start": 62.6147,
      "duration": 0.0153,
      "velocity": 115,
      "chip": "ym2612"
    },
    {
      "channel": 4,
      "note": 81,
      "start": 62.616,
      "duration": 0.0153,
      "velocity": 97,
      "chip": "ym2612"
    },
    {
      "channel": 3,
      "note": 84,
      "start": 62.6171,
      "duration": 0.0153,
      "velocity": 97,
      "chip": "ym2612"
    },
    {
      "channel": 0,
      "note": 41,
      "start": 62.63,
      "duration": 0.0161,
      "velocity": 115,
      "chip": "ym2612"
    },
    {
      "channel": 4,
      "note": 81,
      "start": 62.6312,
      "duration": 0.0161,
      "velocity": 97,
      "chip": "ym2612"
    },
    {
      "channel": 3,
      "note": 84,
      "start": 62.6324,
      "duration": 0.0161,
      "velocity": 97,
      "chip": "ym2612"
    },
    {
      "channel": 0,
      "note": 41,
      "start": 62.6461,
      "duration": 0.0161,
      "velocity": 115,
      "chip": "ym2612"
    },
    {
      "channel": 4,
      "note": 81,
      "start": 62.6473,
      "duration": 0.0161,
      "velocity": 97,
      "chip": "ym2612"
    },
    {
      "channel": 3,
      "note": 84,
      "start": 62.6485,
      "duration": 0.0161,
      "velocity": 97,
      "chip": "ym2612"
    },
    {
      "channel": 0,
      "note": 42,
      "start": 62.6622,
      "duration": 0.0161,
      "velocity": 115,
      "chip": "ym2612"
    },
    {
      "channel": 4,
      "note": 81,
      "start": 62.6634,
      "duration": 0.0161,
      "velocity": 97,
      "chip": "ym2612"
    },
    {
      "channel": 3,
      "note": 84,
      "start": 62.6646,
      "duration": 0.0161,
      "velocity": 97,
      "chip": "ym2612"
    },
    {
      "channel": 0,
      "note": 42,
      "start": 62.6783,
      "duration": 0.0161,
      "velocity": 115,
      "chip": "ym2612"
    },
    {
      "channel": 4,
      "note": 81,
      "start": 62.6795,
      "duration": 0.0161,
      "velocity": 97,
      "chip": "ym2612"
    },
    {
      "channel": 3,
      "note": 84,
      "start": 62.6807,
      "duration": 0.0161,
      "velocity": 97,
      "chip": "ym2612"
    },
    {
      "channel": 0,
      "note": 43,
      "start": 62.6944,
      "duration": 0.0163,
      "velocity": 115,
      "chip": "ym2612"
    },
    {
      "channel": 4,
      "note": 81,
      "start": 62.6956,
      "duration": 0.0163,
      "velocity": 97,
      "chip": "ym2612"
    },
    {
      "channel": 3,
      "note": 84,
      "start": 62.6967,
      "duration": 0.0163,
      "velocity": 97,
      "chip": "ym2612"
    },
    {
      "channel": 0,
      "note": 43,
      "start": 62.7107,
      "duration": 0.0167,
      "velocity": 115,
      "chip": "ym2612"
    },
    {
      "channel": 4,
      "note": 81,
      "start": 62.7119,
      "duration": 0.0166,
      "velocity": 97,
      "chip": "ym2612"
    },
    {
      "channel": 3,
      "note": 84,
      "start": 62.713,
      "duration": 0.0167,
      "velocity": 97,
      "chip": "ym2612"
    },
    {
      "channel": 0,
      "note": 44,
      "start": 62.7273,
      "duration": 0.0163,
      "velocity": 115,
      "chip": "ym2612"
    },
    {
      "channel": 4,
      "note": 81,
      "start": 62.7285,
      "duration": 0.0163,
      "velocity": 97,
      "chip": "ym2612"
    },
    {
      "channel": 3,
      "note": 84,
      "start": 62.7297,
      "duration": 0.0163,
      "velocity": 97,
      "chip": "ym2612"
    },
    {
      "channel": 0,
      "note": 44,
      "start": 62.7436,
      "duration": 0.0152,
      "velocity": 115,
      "chip": "ym2612"
    },
    {
      "channel": 4,
      "note": 81,
      "start": 62.7448,
      "duration": 0.0151,
      "velocity": 97,
      "chip": "ym2612"
    },
    {
      "channel": 3,
      "note": 84,
      "start": 62.746,
      "duration": 0.0152,
      "velocity": 97,
      "chip": "ym2612"
    },
    {
      "channel": 0,
      "note": 44,
      "start": 62.7588,
      "duration": 0.0185,
      "velocity": 115,
      "chip": "ym2612"
    },
    {
      "channel": 4,
      "note": 81,
      "start": 62.76,
      "duration": 0.0185,
      "velocity": 97,
      "chip": "ym2612"
    },
    {
      "channel": 3,
      "note": 84,
      "start": 62.7612,
      "duration": 0.0185,
      "velocity": 97,
      "chip": "ym2612"
    },
    {
      "channel": 0,
      "note": 45,
      "start": 62.7773,
      "duration": 0.0164,
      "velocity": 115,
      "chip": "ym2612"
    },
    {
      "channel": 4,
      "note": 81,
      "start": 62.7785,
      "duration": 0.0165,
      "velocity": 97,
      "chip": "ym2612"
    },
    {
      "channel": 3,
      "note": 84,
      "start": 62.7797,
      "duration": 0.0164,
      "velocity": 97,
      "chip": "ym2612"
    },
    {
      "channel": 0,
      "note": 45,
      "start": 62.7938,
      "duration": 0.0157,
      "velocity": 115,
      "chip": "ym2612"
    },
    {
      "channel": 4,
      "note": 81,
      "start": 62.795,
      "duration": 0.0157,
      "velocity": 97,
      "chip": "ym2612"
    },
    {
      "channel": 3,
      "note": 84,
      "start": 62.7961,
      "duration": 0.0157,
      "velocity": 97,
      "chip": "ym2612"
    },
    {
      "channel": 0,
      "note": 46,
      "start": 62.8095,
      "duration": 0.0141,
      "velocity": 115,
      "chip": "ym2612"
    },
    {
      "channel": 4,
      "note": 81,
      "start": 62.8107,
      "duration": 0.0141,
      "velocity": 97,
      "chip": "ym2612"
    },
    {
      "channel": 3,
      "note": 84,
      "start": 62.8118,
      "duration": 0.0141,
      "velocity": 97,
      "chip": "ym2612"
    },
    {
      "channel": 0,
      "note": 46,
      "start": 62.8235,
      "duration": 0.0203,
      "velocity": 115,
      "chip": "ym2612"
    },
    {
      "channel": 4,
      "note": 81,
      "start": 62.8247,
      "duration": 0.0204,
      "velocity": 97,
      "chip": "ym2612"
    },
    {
      "channel": 3,
      "note": 84,
      "start": 62.8259,
      "duration": 0.0204,
      "velocity": 97,
      "chip": "ym2612"
    },
    {
      "channel": 0,
      "note": 36,
      "start": 62.8439,
      "duration": 0.0116,
      "velocity": 115,
      "chip": "ym2612"
    },
    {
      "channel": 4,
      "note": 81,
      "start": 62.8451,
      "duration": 0.0143,
      "velocity": 97,
      "chip": "ym2612"
    },
    {
      "channel": 3,
      "note": 84,
      "start": 62.8462,
      "duration": 0.0144,
      "velocity": 97,
      "chip": "ym2612"
    },
    {
      "channel": 2,
      "note": 65,
      "start": 62.8476,
      "duration": 0.0141,
      "velocity": 100,
      "chip": "ym2612"
    },
    {
      "channel": 1,
      "note": 53,
      "start": 62.849,
      "duration": 0.0139,
      "velocity": 100,
      "chip": "ym2612"
    },
    {
      "channel": 0,
      "note": 36,
      "start": 62.8555,
      "duration": 0.016,
      "velocity": 115,
      "chip": "ym2612"
    },
    {
      "channel": 4,
      "note": 81,
      "start": 62.8594,
      "duration": 0.0156,
      "velocity": 97,
      "chip": "ym2612"
    },
    {
      "channel": 3,
      "note": 84,
      "start": 62.8606,
      "duration": 0.0156,
      "velocity": 97,
      "chip": "ym2612"
    },
    {
      "channel": 2,
      "note": 65,
      "start": 62.8618,
      "duration": 0.0156,
      "velocity": 100,
      "chip": "ym2612"
    },
    {
      "channel": 1,
      "note": 53,
      "start": 62.863,
      "duration": 0.0155,
      "velocity": 100,
      "chip": "ym2612"
    },
    {
      "channel": 0,
      "note": 37,
      "start": 62.8715,
      "duration": 0.0161,
      "velocity": 115,
      "chip": "ym2612"
    },
    {
      "channel": 4,
      "note": 81,
      "start": 62.8751,
      "duration": 0.0137,
      "velocity": 97,
      "chip": "ym2612"
    },
    {
      "channel": 3,
      "note": 84,
      "start": 62.8763,
      "duration": 0.0141,
      "velocity": 97,
      "chip": "ym2612"
    },
    {
      "channel": 2,
      "note": 65,
      "start": 62.8774,
      "duration": 0.014,
      "velocity": 100,
      "chip": "ym2612"
    },
    {
      "channel": 1,
      "note": 53,
      "start": 62.8785,
      "duration": 0.0141,
      "velocity": 100,
      "chip": "ym2612"
    },
    {
      "channel": 0,
      "note": 37,
      "start": 62.8876,
      "duration": 0.0162,
      "velocity": 115,
      "chip": "ym2612"
    },
    {
      "channel": 4,
      "note": 81,
      "start": 62.8888,
      "duration": 0.0161,
      "velocity": 97,
      "chip": "ym2612"
    },
    {
      "channel": 3,
      "note": 84,
      "start": 62.8903,
      "duration": 0.0185,
      "velocity": 97,
      "chip": "ym2612"
    },
    {
      "channel": 2,
      "note": 65,
      "start": 62.8914,
      "duration": 0.0186,
      "velocity": 100,
      "chip": "ym2612"
    },
    {
      "channel": 1,
      "note": 53,
      "start": 62.8925,
      "duration": 0.0185,
      "velocity": 100,
      "chip": "ym2612"
    },
    {
      "channel": 0,
      "note": 38,
      "start": 62.9037,
      "duration": 0.0161,
      "velocity": 115,
      "chip": "ym2612"
    },
    {
      "channel": 4,
      "note": 81,
      "start": 62.9049,
      "duration": 0.0161,
      "velocity": 97,
      "chip": "ym2612"
    },
    {
      "channel": 3,
      "note": 84,
      "start": 62.9088,
      "duration": 0.0134,
      "velocity": 97,
      "chip": "ym2612"
    },
    {
      "channel": 2,
      "note": 65,
      "start": 62.91,
      "duration": 0.0161,
      "velocity": 100,
      "chip": "ym2612"
    },
    {
      "channel": 1,
      "note": 53,
      "start": 62.9111,
      "duration": 0.0161,
      "velocity": 100,
      "chip": "ym2612"
    },
    {
      "channel": 0,
      "note": 38,
      "start": 62.9198,
      "duration": 0.0161,
      "velocity": 115,
      "chip": "ym2612"
    },
    {
      "channel": 4,
      "note": 81,
      "start": 62.921,
      "duration": 0.0162,
      "velocity": 97,
      "chip": "ym2612"
    },
    {
      "channel": 3,
      "note": 84,
      "start": 62.9222,
      "duration": 0.0161,
      "velocity": 97,
      "chip": "ym2612"
    },
    {
      "channel": 2,
      "note": 65,
      "start": 62.9261,
      "duration": 0.0157,
      "velocity": 100,
      "chip": "ym2612"
    },
    {
      "channel": 1,
      "note": 53,
      "start": 62.9271,
      "duration": 0.0158,
      "velocity": 100,
      "chip": "ym2612"
    },
    {
      "channel": 0,
      "note": 39,
      "start": 62.9359,
      "duration": 0.0161,
      "velocity": 115,
      "chip": "ym2612"
    },
    {
      "channel": 4,
      "note": 81,
      "start": 62.9371,
      "duration": 0.0161,
      "velocity": 97,
      "chip": "ym2612"
    },
    {
      "channel": 3,
      "note": 84,
      "start": 62.9383,
      "duration": 0.0161,
      "velocity": 97,
      "chip": "ym2612"
    },
    {
      "channel": 2,
      "note": 65,
      "start": 62.9418,
      "duration": 0.0137,
      "velocity": 100,
      "chip": "ym2612"
    },
    {
      "channel": 1,
      "note": 53,
      "start": 62.9429,
      "duration": 0.0141,
      "velocity": 100,
      "chip": "ym2612"
    },
    {
      "channel": 0,
      "note": 39,
      "start": 62.952,
      "duration": 0.0161,
      "velocity": 115,
      "chip": "ym2612"
    },
    {
      "channel": 4,
      "note": 81,
      "start": 62.9532,
      "duration": 0.0161,
      "velocity": 97,
      "chip": "ym2612"
    },
    {
      "channel": 3,
      "note": 84,
      "start": 62.9544,
      "duration": 0.0161,
      "velocity": 97,
      "chip": "ym2612"
    },
    {
      "channel": 2,
      "note": 65,
      "start": 62.9555,
      "duration": 0.0161,
      "velocity": 100,
      "chip": "ym2612"
    },
    {
      "channel": 1,
      "note": 53,
      "start": 62.957,
      "duration": 0.0185,
      "velocity": 100,
      "chip": "ym2612"
    },
    {
      "channel": 0,
      "note": 40,
      "start": 62.9681,
      "duration": 0.0161,
      "velocity": 115,
      "chip": "ym2612"
    },
    {
      "channel": 4,
      "note": 81,
      "start": 62.9693,
      "duration": 0.0161,
      "velocity": 97,
      "chip": "ym2612"
    },
    {
      "channel": 3,
      "note": 84,
      "start": 62.9705,
      "duration": 0.0161,
      "velocity": 97,
      "chip": "ym2612"
    },
    {
      "channel": 2,
      "note": 65,
      "start": 62.9716,
      "duration": 0.0161,
      "velocity": 100,
      "chip": "ym2612"
    },
    {
      "channel": 1,
      "note": 53,
      "start": 62.9755,
      "duration": 0.0134,
      "velocity": 100,
      "chip": "ym2612"
    },
    {
      "channel": 0,
      "note": 40,
      "start": 62.9842,
      "duration": 0.0161,
      "velocity": 115,
      "chip": "ym2612"
    },
    {
      "channel": 4,
      "note": 81,
      "start": 62.9854,
      "duration": 0.0161,
      "velocity": 97,
      "chip": "ym2612"
    },
    {
      "channel": 3,
      "note": 84,
      "start": 62.9866,
      "duration": 0.0161,
      "velocity": 97,
      "chip": "ym2612"
    },
    {
      "channel": 2,
      "note": 65,
      "start": 62.9877,
      "duration": 0.0161,
      "velocity": 100,
      "chip": "ym2612"
    },
    {
      "channel": 1,
      "note": 53,
      "start": 62.9889,
      "duration": 0.0161,
      "velocity": 100,
      "chip": "ym2612"
    },
    {
      "channel": 0,
      "note": 40,
      "start": 63.0003,
      "duration": 0.0161,
      "velocity": 115,
      "chip": "ym2612"
    },
    {
      "channel": 4,
      "note": 81,
      "start": 63.0015,
      "duration": 0.0161,
      "velocity": 97,
      "chip": "ym2612"
    },
    {
      "channel": 3,
      "note": 84,
      "start": 63.0027,
      "duration": 0.0161,
      "velocity": 97,
      "chip": "ym2612"
    },
    {
      "channel": 0,
      "note": 41,
      "start": 63.0164,
      "duration": 0.0196,
      "velocity": 115,
      "chip": "ym2612"
    },
    {
      "channel": 4,
      "note": 81,
      "start": 63.0176,
      "duration": 0.0196,
      "velocity": 97,
      "chip": "ym2612"
    },
    {
      "channel": 3,
      "note": 84,
      "start": 63.0188,
      "duration": 0.0196,
      "velocity": 97,
      "chip": "ym2612"
    },
    {
      "channel": 1,
      "note": 78,
      "start": 63.0343,
      "duration": 0.0143,
      "velocity": 124,
      "chip": "ym2612"
    },
    {
      "channel": 0,
      "note": 41,
      "start": 63.036,
      "duration": 0.0143,
      "velocity": 115,
      "chip": "ym2612"
    },
    {
      "channel": 4,
      "note": 81,
      "start": 63.0372,
      "duration": 0.0143,
      "velocity": 97,
      "chip": "ym2612"
    },
    {
      "channel": 3,
      "note": 84,
      "start": 63.0383,
      "duration": 0.0144,
      "velocity": 97,
      "chip": "ym2612"
    },
    {
      "channel": 2,
      "note": 60,
      "start": 63.0425,
      "duration": 0.0114,
      "velocity": 100,
      "chip": "ym2612"
    },
    {
      "channel": 1,
      "note": 76,
      "start": 63.0486,
      "duration": 0.0161,
      "velocity": 124,
      "chip": "ym2612"
    },
    {
      "channel": 0,
      "note": 42,
      "start": 63.0503,
      "duration": 0.0161,
      "velocity": 115,
      "chip": "ym2612"
    },
    {
      "channel": 4,
      "note": 81,
      "start": 63.0515,
      "duration": 0.0161,
      "velocity": 97,
      "chip": "ym2612"
    },
    {
      "channel": 3,
      "note": 84,
      "start": 63.0527,
      "duration": 0.016,
      "velocity": 97,
      "chip": "ym2612"
    },
    {
      "channel": 2,
      "note": 60,
      "start": 63.0539,
      "duration": 0.016,
      "velocity": 100,
      "chip": "ym2612"
    },
    {
      "channel": 1,
      "note": 75,
      "start": 63.0647,
      "duration": 0.0161,
      "velocity": 124,
      "chip": "ym2612"
    },
    {
      "channel": 0,
      "note": 42,
      "start": 63.0664,
      "duration": 0.0161,
      "velocity": 115,
      "chip": "ym2612"
    },
    {
      "channel": 4,
      "note": 81,
      "start": 63.0676,
      "duration": 0.0161,
      "velocity": 97,
      "chip": "ym2612"
    },
    {
      "channel": 3,
      "note": 84,
      "start": 63.0688,
      "duration": 0.0161,
      "velocity": 97,
      "chip": "ym2612"
    },
    {
      "channel": 2,
      "note": 60,
      "start": 63.0699,
      "duration": 0.0161,
      "velocity": 100,
      "chip": "ym2612"
    },
    {
      "channel": 1,
      "note": 74,
      "start": 63.0808,
      "duration": 0.0161,
      "velocity": 124,
      "chip": "ym2612"
    },
    {
      "channel": 0,
      "note": 43,
      "start": 63.0825,
      "duration": 0.0161,
      "velocity": 115,
      "chip": "ym2612"
    },
    {
      "channel": 4,
      "note": 81,
      "start": 63.0837,
      "duration": 0.0161,
      "velocity": 97,
      "chip": "ym2612"
    },
    {
      "channel": 3,
      "note": 84,
      "start": 63.0849,
      "duration": 0.0161,
      "velocity": 97,
      "chip": "ym2612"
    },
    {
      "channel": 2,
      "note": 60,
      "start": 63.086,
      "duration": 0.0162,
      "velocity": 100,
      "chip": "ym2612"
    },
    {
      "channel": 1,
      "note": 72,
      "start": 63.0969,
      "duration": 0.0161,
      "velocity": 124,
      "chip": "ym2612"
    },
    {
      "channel": 0,
      "note": 43,
      "start": 63.0986,
      "duration": 0.0161,
      "velocity": 115,
      "chip": "ym2612"
    },
    {
      "channel": 4,
      "note": 81,
      "start": 63.0998,
      "duration": 0.0161,
      "velocity": 97,
      "chip": "ym2612"
    },
    {
      "channel": 3,
      "note": 84,
      "start": 63.101,
      "duration": 0.016,
      "velocity": 97,
      "chip": "ym2612"
    },
    {
      "channel": 2,
      "note": 60,
      "start": 63.1022,
      "duration": 0.016,
      "velocity": 100,
      "chip": "ym2612"
    },
    {
      "channel": 1,
      "note": 71,
      "start": 63.113,
      "duration": 0.0161,
      "velocity": 124,
      "chip": "ym2612"
    },
    {
      "channel": 0,
      "note": 44,
      "start": 63.1147,
      "duration": 0.0161,
      "velocity": 115,
      "chip": "ym2612"
    },
    {
      "channel": 4,
      "note": 81,
      "start": 63.1159,
      "duration": 0.0161,
      "velocity": 97,
      "chip": "ym2612"
    },
    {
      "channel": 3,
      "note": 84,
      "start": 63.117,
      "duration": 0.0161,
      "velocity": 97,
      "chip": "ym2612"
    },
    {
      "channel": 2,
      "note": 60,
      "start": 63.1182,
      "duration": 0.0161,
      "velocity": 100,
      "chip": "ym2612"
    },
    {
      "channel": 1,
      "note": 70,
      "start": 63.1291,
      "duration": 0.0161,
      "velocity": 124,
      "chip": "ym2612"
    },
    {
      "channel": 0,
      "note": 44,
      "start": 63.1308,
      "duration": 0.0161,
      "velocity": 115,
      "chip": "ym2612"
    },
    {
      "channel": 4,
      "note": 81,
      "start": 63.132,
      "duration": 0.0161,
      "velocity": 97,
      "chip": "ym2612"
    },
    {
      "channel": 3,
      "note": 84,
      "start": 63.1331,
      "duration": 0.0161,
      "velocity": 97,
      "chip": "ym2612"
    },
    {
      "channel": 2,
      "note": 60,
      "start": 63.1343,
      "duration": 0.0161,
      "velocity": 100,
      "chip": "ym2612"
    },
    {
      "channel": 1,
      "note": 69,
      "start": 63.1451,
      "duration": 0.0161,
      "velocity": 124,
      "chip": "ym2612"
    },
    {
      "channel": 0,
      "note": 44,
      "start": 63.1469,
      "duration": 0.0161,
      "velocity": 115,
      "chip": "ym2612"
    },
    {
      "channel": 4,
      "note": 81,
      "start": 63.1481,
      "duration": 0.0161,
      "velocity": 97,
      "chip": "ym2612"
    },
    {
      "channel": 3,
      "note": 84,
      "start": 63.1492,
      "duration": 0.0161,
      "velocity": 97,
      "chip": "ym2612"
    },
    {
      "channel": 2,
      "note": 60,
      "start": 63.1504,
      "duration": 0.0161,
      "velocity": 100,
      "chip": "ym2612"
    },
    {
      "channel": 1,
      "note": 68,
      "start": 63.1612,
      "duration": 0.0161,
      "velocity": 124,
      "chip": "ym2612"
    },
    {
      "channel": 0,
      "note": 45,
      "start": 63.163,
      "duration": 0.0161,
      "velocity": 115,
      "chip": "ym2612"
    },
    {
      "channel": 4,
      "note": 81,
      "start": 63.1642,
      "duration": 0.0161,
      "velocity": 97,
      "chip": "ym2612"
    },
    {
      "channel": 3,
      "note": 84,
      "start": 63.1653,
      "duration": 0.0161,
      "velocity": 97,
      "chip": "ym2612"
    },
    {
      "channel": 2,
      "note": 60,
      "start": 63.1665,
      "duration": 0.0161,
      "velocity": 100,
      "chip": "ym2612"
    },
    {
      "channel": 1,
      "note": 66,
      "start": 63.1773,
      "duration": 0.0165,
      "velocity": 124,
      "chip": "ym2612"
    },
    {
      "channel": 0,
      "note": 45,
      "start": 63.1791,
      "duration": 0.0166,
      "velocity": 115,
      "chip": "ym2612"
    },
    {
      "channel": 4,
      "note": 81,
      "start": 63.1803,
      "duration": 0.0165,
      "velocity": 97,
      "chip": "ym2612"
    },
    {
      "channel": 3,
      "note": 84,
      "start": 63.1814,
      "duration": 0.0166,
      "velocity": 97,
      "chip": "ym2612"
    },
    {
      "channel": 2,
      "note": 60,
      "start": 63.1826,
      "duration": 0.0166,
      "velocity": 100,
      "chip": "ym2612"
    },
    {
      "channel": 1,
      "note": 65,
      "start": 63.1939,
      "duration": 0.0163,
      "velocity": 124,
      "chip": "ym2612"
    },
    {
      "channel": 0,
      "note": 46,
      "start": 63.1957,
      "duration": 0.0163,
      "velocity": 115,
      "chip": "ym2612"
    },
    {
      "channel": 4,
      "note": 81,
      "start": 63.1968,
      "duration": 0.0163,
      "velocity": 97,
      "chip": "ym2612"
    },
    {
      "channel": 3,
      "note": 84,
      "start": 63.198,
      "duration": 0.0163,
      "velocity": 97,
      "chip": "ym2612"
    },
    {
      "channel": 1,
      "note": 64,
      "start": 63.2102,
      "duration": 0.0155,
      "velocity": 124,
      "chip": "ym2612"
    },
    {
      "channel": 0,
      "note": 46,
      "start": 63.212,
      "duration": 0.0172,
      "velocity": 115,
      "chip": "ym2612"
    },
    {
      "channel": 4,
      "note": 81,
      "start": 63.2132,
      "duration": 0.0172,
      "velocity": 97,
      "chip": "ym2612"
    },
    {
      "channel": 3,
      "note": 84,
      "start": 63.2143,
      "duration": 0.0173,
      "velocity": 97,
      "chip": "ym2612"
    },
    {
      "channel": 1,
      "note": 62,
      "start": 63.2257,
      "duration": 0.0182,
      "velocity": 124,
      "chip": "ym2612"
    },
    {
      "channel": 0,
      "note": 36,
      "start": 63.2292,
      "duration": 0.0165,
      "velocity": 115,
      "chip": "ym2612"
    },
    {
      "channel": 4,
      "note": 81,
      "start": 63.2304,
      "duration": 0.0165,
      "velocity": 97,
      "chip": "ym2612"
    },
    {
      "channel": 3,
      "note": 84,
      "start": 63.2316,
      "duration": 0.0164,
      "velocity": 97,
      "chip": "ym2612"
    },
    {
      "channel": 2,
      "note": 56,
      "start": 63.233,
      "duration": 0.0162,
      "velocity": 100,
      "chip": "ym2612"
    },
    {
      "channel": 1,
      "note": 61,
      "start": 63.2439,
      "duration": 0.0167,
      "velocity": 124,
      "chip": "ym2612"
    },
    {
      "channel": 0,
      "note": 36,
      "start": 63.2457,
      "duration": 0.0167,
      "velocity": 115,
      "chip": "ym2612"
    },
    {
      "channel": 4,
      "note": 81,
      "start": 63.2469,
      "duration": 0.0167,
      "velocity": 97,
      "chip": "ym2612"
    },
    {
      "channel": 3,
      "note": 84,
      "start": 63.248,
      "duration": 0.0167,
      "velocity": 97,
      "chip": "ym2612"
    },
    {
      "channel": 2,
      "note": 56,
      "start": 63.2492,
      "duration": 0.0166,
      "velocity": 100,
      "chip": "ym2612"
    },
    {
      "channel": 1,
      "note": 60,
      "start": 63.2606,
      "duration": 0.0157,
      "velocity": 124,
      "chip": "ym2612"
    },
    {
      "channel": 0,
      "note": 37,
      "start": 63.2623,
      "duration": 0.0157,
      "velocity": 115,
      "chip": "ym2612"
    },
    {
      "channel": 4,
      "note": 81,
      "start": 63.2635,
      "duration": 0.0157,
      "velocity": 97,
      "chip": "ym2612"
    },
    {
      "channel": 3,
      "note": 84,
      "start": 63.2647,
      "duration": 0.0157,
      "velocity": 97,
      "chip": "ym2612"
    },
    {
      "channel": 2,
      "note": 56,
      "start": 63.2658,
      "duration": 0.0157,
      "velocity": 100,
      "chip": "ym2612"
    },
    {
      "channel": 1,
      "note": 59,
      "start": 63.2763,
      "duration": 0.0141,
      "velocity": 124,
      "chip": "ym2612"
    },
    {
      "channel": 0,
      "note": 37,
      "start": 63.278,
      "duration": 0.0141,
      "velocity": 115,
      "chip": "ym2612"
    },
    {
      "channel": 4,
      "note": 81,
      "start": 63.2793,
      "duration": 0.0141,
      "velocity": 97,
      "chip": "ym2612"
    },
    {
      "channel": 3,
      "note": 84,
      "start": 63.2804,
      "duration": 0.0141,
      "velocity": 97,
      "chip": "ym2612"
    },
    {
      "channel": 2,
      "note": 56,
      "start": 63.2815,
      "duration": 0.0141,
      "velocity": 100,
      "chip": "ym2612"
    },
    {
      "channel": 1,
      "note": 57,
      "start": 63.2904,
      "duration": 0.0185,
      "velocity": 124,
      "chip": "ym2612"
    },
    {
      "channel": 0,
      "note": 38,
      "start": 63.2921,
      "duration": 0.0185,
      "velocity": 115,
      "chip": "ym2612"
    },
    {
      "channel": 4,
      "note": 81,
      "start": 63.2933,
      "duration": 0.0185,
      "velocity": 97,
      "chip": "ym2612"
    },
    {
      "channel": 3,
      "note": 84,
      "start": 63.2944,
      "duration": 0.0185,
      "velocity": 97,
      "chip": "ym2612"
    },
    {
      "channel": 2,
      "note": 56,
      "start": 63.2956,
      "duration": 0.0185,
      "velocity": 100,
      "chip": "ym2612"
    },
    {
      "channel": 1,
      "note": 56,
      "start": 63.3089,
      "duration": 0.0134,
      "velocity": 124,
      "chip": "ym2612"
    },
    {
      "channel": 0,
      "note": 38,
      "start": 63.3106,
      "duration": 0.0162,
      "velocity": 115,
      "chip": "ym2612"
    },
    {
      "channel": 4,
      "note": 81,
      "start": 63.3118,
      "duration": 0.0161,
      "velocity": 97,
      "chip": "ym2612"
    },
    {
      "channel": 3,
      "note": 84,
      "start": 63.313,
      "duration": 0.0161,
      "velocity": 97,
      "chip": "ym2612"
    },
    {
      "channel": 2,
      "note": 56,
      "start": 63.3141,
      "duration": 0.0161,
      "velocity": 100,
      "chip": "ym2612"
    },
    {
      "channel": 1,
      "note": 55,
      "start": 63.3222,
      "duration": 0.0161,
      "velocity": 124,
      "chip": "ym2612"
    },
    {
      "channel": 0,
      "note": 39,
      "start": 63.3268,
      "duration": 0.0157,
      "velocity": 115,
      "chip": "ym2612"
    },
    {
      "channel": 4,
      "note": 81,
      "start": 63.3279,
      "duration": 0.0158,
      "velocity": 97,
      "chip": "ym2612"
    },
    {
      "channel": 3,
      "note": 84,
      "start": 63.3291,
      "duration": 0.0157,
      "velocity": 97,
      "chip": "ym2612"
    },
    {
      "channel": 2,
      "note": 56,
      "start": 63.3302,
      "duration": 0.0158,
      "velocity": 100,
      "chip": "ym2612"
    },
    {
      "channel": 1,
      "note": 53,
      "start": 63.3383,
      "duration": 0.0162,
      "velocity": 124,
      "chip": "ym2612"
    },
    {
      "channel": 0,
      "note": 39,
      "start": 63.3425,
      "duration": 0.0141,
      "velocity": 115,
      "chip": "ym2612"
    },
    {
      "channel": 4,
      "note": 81,
      "start": 63.3437,
      "duration": 0.0141,
      "velocity": 97,
      "chip": "ym2612"
    },
    {
      "channel": 3,
      "note": 84,
      "start": 63.3448,
      "duration": 0.0141,
      "velocity": 97,
      "chip": "ym2612"
    },
    {
      "channel": 2,
      "note": 56,
      "start": 63.346,
      "duration": 0.0141,
      "velocity": 100,
      "chip": "ym2612"
    },
    {
      "channel": 1,
      "note": 52,
      "start": 63.3545,
      "duration": 0.0161,
      "velocity": 124,
      "chip": "ym2612"
    },
    {
      "channel": 0,
      "note": 40,
      "start": 63.3565,
      "duration": 0.0158,
      "velocity": 115,
      "chip": "ym2612"
    },
    {
      "channel": 4,
      "note": 81,
      "start": 63.3578,
      "duration": 0.0185,
      "velocity": 97,
      "chip": "ym2612"
    },
    {
      "channel": 3,
      "note": 84,
      "start": 63.3589,
      "duration": 0.0185,
      "velocity": 97,
      "chip": "ym2612"
    },
    {
      "channel": 2,
      "note": 56,
      "start": 63.36,
      "duration": 0.0185,
      "velocity": 100,
      "chip": "ym2612"
    },
    {
      "channel": 1,
      "note": 51,
      "start": 63.3706,
      "duration": 0.0153,
      "velocity": 1,
      "chip": "ym2612"
    },
    {
      "channel": 0,
      "note": 40,
      "start": 63.3723,
      "duration": 0.0153,
      "velocity": 115,
      "chip": "ym2612"
    },
    {
      "channel": 4,
      "note": 81,
      "start": 63.3763,
      "duration": 0.0125,
      "velocity": 97,
      "chip": "ym2612"
    },
    {
      "channel": 3,
      "note": 84,
      "start": 63.3774,
      "duration": 0.0153,
      "velocity": 97,
      "chip": "ym2612"
    },
    {
      "channel": 2,
      "note": 56,
      "start": 63.3785,
      "duration": 0.0153,
      "velocity": 100,
      "chip": "ym2612"
    },
    {
      "channel": 0,
      "note": 40,
      "start": 63.3876,
      "duration": 0.0153,
      "velocity": 115,
      "chip": "ym2612"
    },
    {
      "channel": 4,
      "note": 81,
      "start": 63.3888,
      "duration": 0.0153,
      "velocity": 97,
      "chip": "ym2612"
    },
    {
      "channel": 3,
      "note": 84,
      "start": 63.3927,
      "duration": 0.0125,
      "velocity": 97,
      "chip": "ym2612"
    },
    {
      "channel": 0,
      "note": 41,
      "start": 63.4029,
      "duration": 0.0179,
      "velocity": 115,
      "chip": "ym2612"
    },
    {
      "channel": 4,
      "note": 81,
      "start": 63.4041,
      "duration": 0.0179,
      "velocity": 97,
      "chip": "ym2612"
    },
    {
      "channel": 3,
      "note": 84,
      "start": 63.4052,
      "duration": 0.0182,
      "velocity": 97,
      "chip": "ym2612"
    },
    {
      "channel": 0,
      "note": 36,
      "start": 63.4207,
      "duration": 0.0144,
      "velocity": 115,
      "chip": "ym2612"
    },
    {
      "channel": 4,
      "note": 81,
      "start": 63.4219,
      "duration": 0.0144,
      "velocity": 97,
      "chip": "ym2612"
    },
    {
      "channel": 3,
      "note": 84,
      "start": 63.4234,
      "duration": 0.0141,
      "velocity": 97,
      "chip": "ym2612"
    },
    {
      "channel": 2,
      "note": 53,
      "start": 63.4249,
      "duration": 0.0137,
      "velocity": 100,
      "chip": "ym2612"
    },
    {
      "channel": 1,
      "note": 41,
      "start": 63.4264,
      "duration": 0.0162,
      "velocity": 100,
      "chip": "ym2612"
    },
    {
      "channel": 0,
      "note": 36,
      "start": 63.4351,
      "duration": 0.016,
      "velocity": 115,
      "chip": "ym2612"
    },
    {
      "channel": 4,
      "note": 81,
      "start": 63.4363,
      "duration": 0.016,
      "velocity": 97,
      "chip": "ym2612"
    },
    {
      "channel": 3,
      "note": 84,
      "start": 63.4375,
      "duration": 0.016,
      "velocity": 97,
      "chip": "ym2612"
    },
    {
      "channel": 2,
      "note": 53,
      "start": 63.4387,
      "duration": 0.016,
      "velocity": 100,
      "chip": "ym2612"
    },
    {
      "channel": 1,
      "note": 41,
      "start": 63.4426,
      "duration": 0.0132,
      "velocity": 100,
      "chip": "ym2612"
    },
    {
      "channel": 0,
      "note": 37,
      "start": 63.4511,
      "duration": 0.0161,
      "velocity": 115,
      "chip": "ym2612"
    },
    {
      "channel": 4,
      "note": 81,
      "start": 63.4523,
      "duration": 0.0161,
      "velocity": 97,
      "chip": "ym2612"
    },
    {
      "channel": 3,
      "note": 84,
      "start": 63.4535,
      "duration": 0.0161,
      "velocity": 97,
      "chip": "ym2612"
    },
    {
      "channel": 2,
      "note": 53,
      "start": 63.4546,
      "duration": 0.0161,
      "velocity": 100,
      "chip": "ym2612"
    },
    {
      "channel": 1,
      "note": 41,
      "start": 63.4558,
      "duration": 0.0161,
      "velocity": 100,
      "chip": "ym2612"
    },
    {
      "channel": 0,
      "note": 37,
      "start": 63.4672,
      "duration": 0.0161,
      "velocity": 115,
      "chip": "ym2612"
    },
    {
      "channel": 4,
      "note": 81,
      "start": 63.4684,
      "duration": 0.0162,
      "velocity": 97,
      "chip": "ym2612"
    },
    {
      "channel": 3,
      "note": 84,
      "start": 63.4696,
      "duration": 0.0161,
      "velocity": 97,
      "chip": "ym2612"
    },
    {
      "channel": 2,
      "note": 53,
      "start": 63.4707,
      "duration": 0.0162,
      "velocity": 100,
      "chip": "ym2612"
    },
    {
      "channel": 1,
      "note": 41,
      "start": 63.4719,
      "duration": 0.0161,
      "velocity": 100,
      "chip": "ym2612"
    },
    {
      "channel": 0,
      "note": 38,
      "start": 63.4834,
      "duration": 0.0161,
      "velocity": 115,
      "chip": "ym2612"
    },
    {
      "channel": 4,
      "note": 81,
      "start": 63.4846,
      "duration": 0.016,
      "velocity": 97,
      "chip": "ym2612"
    },
    {
      "channel": 3,
      "note": 84,
      "start": 63.4857,
      "duration": 0.0161,
      "velocity": 97,
      "chip": "ym2612"
    },
    {
      "channel": 2,
      "note": 53,
      "start": 63.4869,
      "duration": 0.016,
      "velocity": 100,
      "chip": "ym2612"
    },
    {
      "channel": 1,
      "note": 41,
      "start": 63.488,
      "duration": 0.016,
      "velocity": 100,
      "chip": "ym2612"
    },
    {
      "channel": 0,
      "note": 38,
      "start": 63.4995,
      "duration": 0.0161,
      "velocity": 115,
      "chip": "ym2612"
    },
    {
      "channel": 4,
      "note": 81,
      "start": 63.5006,
      "duration": 0.0161,
      "velocity": 97,
      "chip": "ym2612"
    },
    {
      "channel": 3,
      "note": 84,
      "start": 63.5018,
      "duration": 0.0161,
      "velocity": 97,
      "chip": "ym2612"
    },
    {
      "channel": 2,
      "note": 53,
      "start": 63.5029,
      "duration": 0.0161,
      "velocity": 100,
      "chip": "ym2612"
    },
    {
      "channel": 1,
      "note": 41,
      "start": 63.5041,
      "duration": 0.0161,
      "velocity": 100,
      "chip": "ym2612"
    },
    {
      "channel": 0,
      "note": 39,
      "start": 63.5156,
      "duration": 0.0161,
      "velocity": 115,
      "chip": "ym2612"
    },
    {
      "channel": 4,
      "note": 81,
      "start": 63.5168,
      "duration": 0.0161,
      "velocity": 97,
      "chip": "ym2612"
    },
    {
      "channel": 3,
      "note": 84,
      "start": 63.5179,
      "duration": 0.0161,
      "velocity": 97,
      "chip": "ym2612"
    },
    {
      "channel": 2,
      "note": 53,
      "start": 63.5191,
      "duration": 0.0161,
      "velocity": 100,
      "chip": "ym2612"
    },
    {
      "channel": 1,
      "note": 41,
      "start": 63.5202,
      "duration": 0.0161,
      "velocity": 100,
      "chip": "ym2612"
    },
    {
      "channel": 0,
      "note": 39,
      "start": 63.5317,
      "duration": 0.0161,
      "velocity": 115,
      "chip": "ym2612"
    },
    {
      "channel": 4,
      "note": 81,
      "start": 63.5329,
      "duration": 0.0161,
      "velocity": 97,
      "chip": "ym2612"
    },
    {
      "channel": 3,
      "note": 84,
      "start": 63.534,
      "duration": 0.0161,
      "velocity": 97,
      "chip": "ym2612"
    },
    {
      "channel": 2,
      "note": 53,
      "start": 63.5352,
      "duration": 0.0161,
      "velocity": 100,
      "chip": "ym2612"
    },
    {
      "channel": 1,
      "note": 41,
      "start": 63.5363,
      "duration": 0.0161,
      "velocity": 100,
      "chip": "ym2612"
    },
    {
      "channel": 0,
      "note": 40,
      "start": 63.5478,
      "duration": 0.0161,
      "velocity": 115,
      "chip": "ym2612"
    },
    {
      "channel": 4,
      "note": 81,
      "start": 63.549,
      "duration": 0.0161,
      "velocity": 97,
      "chip": "ym2612"
    },
    {
      "channel": 3,
      "note": 84,
      "start": 63.5501,
      "duration": 0.0161,
      "velocity": 97,
      "chip": "ym2612"
    },
    {
      "channel": 2,
      "note": 53,
      "start": 63.5513,
      "duration": 0.0161,
      "velocity": 100,
      "chip": "ym2612"
    },
    {
      "channel": 1,
      "note": 41,
      "start": 63.5523,
      "duration": 0.0162,
      "velocity": 100,
      "chip": "ym2612"
    },
    {
      "channel": 0,
      "note": 40,
      "start": 63.5639,
      "duration": 0.0161,
      "velocity": 115,
      "chip": "ym2612"
    },
    {
      "channel": 4,
      "note": 81,
      "start": 63.5651,
      "duration": 0.0161,
      "velocity": 97,
      "chip": "ym2612"
    },
    {
      "channel": 3,
      "note": 84,
      "start": 63.5662,
      "duration": 0.0161,
      "velocity": 97,
      "chip": "ym2612"
    },
    {
      "channel": 2,
      "note": 53,
      "start": 63.5673,
      "duration": 0.0161,
      "velocity": 100,
      "chip": "ym2612"
    },
    {
      "channel": 1,
      "note": 41,
      "start": 63.5685,
      "duration": 0.0161,
      "velocity": 100,
      "chip": "ym2612"
    },
    {
      "channel": 0,
      "note": 40,
      "start": 63.58,
      "duration": 0.0161,
      "velocity": 115,
      "chip": "ym2612"
    },
    {
      "channel": 4,
      "note": 81,
      "start": 63.5812,
      "duration": 0.0161,
      "velocity": 97,
      "chip": "ym2612"
    },
    {
      "channel": 3,
      "note": 84,
      "start": 63.5823,
      "duration": 0.0161,
      "velocity": 97,
      "chip": "ym2612"
    },
    {
      "channel": 0,
      "note": 41,
      "start": 63.5961,
      "duration": 0.0161,
      "velocity": 115,
      "chip": "ym2612"
    },
    {
      "channel": 4,
      "note": 81,
      "start": 63.5973,
      "duration": 0.0161,
      "velocity": 97,
      "chip": "ym2612"
    },
    {
      "channel": 3,
      "note": 84,
      "start": 63.5984,
      "duration": 0.0162,
      "velocity": 97,
      "chip": "ym2612"
    },
    {
      "channel": 0,
      "note": 41,
      "start": 63.6122,
      "duration": 0.016,
      "velocity": 115,
      "chip": "ym2612"
    },
    {
      "channel": 4,
      "note": 81,
      "start": 63.6134,
      "duration": 0.016,
      "velocity": 97,
      "chip": "ym2612"
    },
    {
      "channel": 3,
      "note": 84,
      "start": 63.6146,
      "duration": 0.0161,
      "velocity": 97,
      "chip": "ym2612"
    },
    {
      "channel": 2,
      "note": 60,
      "start": 63.616,
      "duration": 0.0158,
      "velocity": 100,
      "chip": "ym2612"
    },
    {
      "channel": 1,
      "note": 48,
      "start": 63.6173,
      "duration": 0.0156,
      "velocity": 100,
      "chip": "ym2612"
    },
    {
      "channel": 0,
      "note": 42,
      "start": 63.6282,
      "duration": 0.0162,
      "velocity": 115,
      "chip": "ym2612"
    },
    {
      "channel": 4,
      "note": 81,
      "start": 63.6294,
      "duration": 0.0161,
      "velocity": 97,
      "chip": "ym2612"
    },
    {
      "channel": 3,
      "note": 84,
      "start": 63.6307,
      "duration": 0.0161,
      "velocity": 97,
      "chip": "ym2612"
    },
    {
      "channel": 2,
      "note": 60,
      "start": 63.6318,
      "duration": 0.016,
      "velocity": 100,
      "chip": "ym2612"
    },
    {
      "channel": 1,
      "note": 48,
      "start": 63.633,
      "duration": 0.016,
      "velocity": 100,
      "chip": "ym2612"
    },
    {
      "channel": 0,
      "note": 42,
      "start": 63.6444,
      "duration": 0.0163,
      "velocity": 115,
      "chip": "ym2612"
    },
    {
      "channel": 4,
      "note": 81,
      "start": 63.6455,
      "duration": 0.0163,
      "velocity": 97,
      "chip": "ym2612"
    },
    {
      "channel": 3,
      "note": 84,
      "start": 63.6467,
      "duration": 0.0163,
      "velocity": 97,
      "chip": "ym2612"
    },
    {
      "channel": 2,
      "note": 60,
      "start": 63.6478,
      "duration": 0.0163,
      "velocity": 100,
      "chip": "ym2612"
    },
    {
      "channel": 1,
      "note": 48,
      "start": 63.649,
      "duration": 0.0163,
      "velocity": 100,
      "chip": "ym2612"
    },
    {
      "channel": 0,
      "note": 43,
      "start": 63.6607,
      "duration": 0.0163,
      "velocity": 115,
      "chip": "ym2612"
    },
    {
      "channel": 4,
      "note": 81,
      "start": 63.6618,
      "duration": 0.0163,
      "velocity": 97,
      "chip": "ym2612"
    },
    {
      "channel": 3,
      "note": 84,
      "start": 63.663,
      "duration": 0.0163,
      "velocity": 97,
      "chip": "ym2612"
    },
    {
      "channel": 2,
      "note": 60,
      "start": 63.6641,
      "duration": 0.0163,
      "velocity": 100,
      "chip": "ym2612"
    },
    {
      "channel": 1,
      "note": 48,
      "start": 63.6653,
      "duration": 0.0163,
      "velocity": 100,
      "chip": "ym2612"
    },
    {
      "channel": 0,
      "note": 43,
      "start": 63.677,
      "duration": 0.0157,
      "velocity": 115,
      "chip": "ym2612"
    },
    {
      "channel": 4,
      "note": 81,
      "start": 63.6782,
      "duration": 0.0157,
      "velocity": 97,
      "chip": "ym2612"
    },
    {
      "channel": 3,
      "note": 84,
      "start": 63.6793,
      "duration": 0.0157,
      "velocity": 97,
      "chip": "ym2612"
    },
    {
      "channel": 2,
      "note": 60,
      "start": 63.6805,
      "duration": 0.0157,
      "velocity": 100,
      "chip": "ym2612"
    },
    {
      "channel": 1,
      "note": 48,
      "start": 63.6815,
      "duration": 0.0158,
      "velocity": 100,
      "chip": "ym2612"
    },
    {
      "channel": 0,
      "note": 44,
      "start": 63.6927,
      "duration": 0.018,
      "velocity": 115,
      "chip": "ym2612"
    },
    {
      "channel": 4,
      "note": 81,
      "start": 63.6939,
      "duration": 0.0179,
      "velocity": 97,
      "chip": "ym2612"
    },
    {
      "channel": 3,
      "note": 84,
      "start": 63.695,
      "duration": 0.018,
      "velocity": 97,
      "chip": "ym2612"
    },
    {
      "channel": 2,
      "note": 60,
      "start": 63.6962,
      "duration": 0.0179,
      "velocity": 100,
      "chip": "ym2612"
    },
    {
      "channel": 1,
      "note": 48,
      "start": 63.6973,
      "duration": 0.0179,
      "velocity": 100,
      "chip": "ym2612"
    },
    {
      "channel": 0,
      "note": 44,
      "start": 63.7107,
      "duration": 0.0167,
      "velocity": 115,
      "chip": "ym2612"
    },
    {
      "channel": 4,
      "note": 81,
      "start": 63.7118,
      "duration": 0.0167,
      "velocity": 97,
      "chip": "ym2612"
    },
    {
      "channel": 3,
      "note": 84,
      "start": 63.713,
      "duration": 0.0167,
      "velocity": 97,
      "chip": "ym2612"
    },
    {
      "channel": 2,
      "note": 60,
      "start": 63.7141,
      "duration": 0.0167,
      "velocity": 100,
      "chip": "ym2612"
    },
    {
      "channel": 1,
      "note": 48,
      "start": 63.7153,
      "duration": 0.0167,
      "velocity": 100,
      "chip": "ym2612"
    },
    {
      "channel": 0,
      "note": 44,
      "start": 63.7273,
      "duration": 0.016,
      "velocity": 115,
      "chip": "ym2612"
    },
    {
      "channel": 4,
      "note": 81,
      "start": 63.7285,
      "duration": 0.0161,
      "velocity": 97,
      "chip": "ym2612"
    },
    {
      "channel": 3,
      "note": 84,
      "start": 63.7297,
      "duration": 0.016,
      "velocity": 97,
      "chip": "ym2612"
    },
    {
      "channel": 2,
      "note": 60,
      "start": 63.7308,
      "duration": 0.0161,
      "velocity": 100,
      "chip": "ym2612"
    },
    {
      "channel": 1,
      "note": 48,
      "start": 63.7319,
      "duration": 0.0161,
      "velocity": 100,
      "chip": "ym2612"
    },
    {
      "channel": 0,
      "note": 45,
      "start": 63.7434,
      "duration": 0.014,
      "velocity": 115,
      "chip": "ym2612"
    },
    {
      "channel": 4,
      "note": 81,
      "start": 63.7446,
      "duration": 0.014,
      "velocity": 97,
      "chip": "ym2612"
    },
    {
      "channel": 3,
      "note": 84,
      "start": 63.7457,
      "duration": 0.014,
      "velocity": 97,
      "chip": "ym2612"
    },
    {
      "channel": 2,
      "note": 60,
      "start": 63.7469,
      "duration": 0.014,
      "velocity": 100,
      "chip": "ym2612"
    },
    {
      "channel": 1,
      "note": 48,
      "start": 63.748,
      "duration": 0.014,
      "velocity": 100,
      "chip": "ym2612"
    },
    {
      "channel": 0,
      "note": 45,
      "start": 63.7574,
      "duration": 0.0186,
      "velocity": 115,
      "chip": "ym2612"
    },
    {
      "channel": 4,
      "note": 81,
      "start": 63.7586,
      "duration": 0.0186,
      "velocity": 97,
      "chip": "ym2612"
    },
    {
      "channel": 3,
      "note": 84,
      "start": 63.7597,
      "duration": 0.0186,
      "velocity": 97,
      "chip": "ym2612"
    },
    {
      "channel": 2,
      "note": 60,
      "start": 63.7609,
      "duration": 0.0186,
      "velocity": 100,
      "chip": "ym2612"
    },
    {
      "channel": 1,
      "note": 48,
      "start": 63.762,
      "duration": 0.0186,
      "velocity": 100,
      "chip": "ym2612"
    },
    {
      "channel": 0,
      "note": 46,
      "start": 63.7759,
      "duration": 0.0161,
      "velocity": 115,
      "chip": "ym2612"
    },
    {
      "channel": 4,
      "note": 81,
      "start": 63.7771,
      "duration": 0.016,
      "velocity": 97,
      "chip": "ym2612"
    },
    {
      "channel": 3,
      "note": 84,
      "start": 63.7783,
      "duration": 0.0161,
      "velocity": 97,
      "chip": "ym2612"
    },
    {
      "channel": 0,
      "note": 46,
      "start": 63.792,
      "duration": 0.0192,
      "velocity": 115,
      "chip": "ym2612"
    },
    {
      "channel": 4,
      "note": 81,
      "start": 63.7932,
      "duration": 0.0192,
      "velocity": 97,
      "chip": "ym2612"
    },
    {
      "channel": 3,
      "note": 84,
      "start": 63.7944,
      "duration": 0.0192,
      "velocity": 97,
      "chip": "ym2612"
    },
    {
      "channel": 1,
      "note": 78,
      "start": 63.8095,
      "duration": 0.012,
      "velocity": 124,
      "chip": "ym2612"
    },
    {
      "channel": 0,
      "note": 47,
      "start": 63.8112,
      "duration": 0.0123,
      "velocity": 115,
      "chip": "ym2612"
    },
    {
      "channel": 4,
      "note": 81,
      "start": 63.8124,
      "duration": 0.0123,
      "velocity": 97,
      "chip": "ym2612"
    },
    {
      "channel": 3,
      "note": 84,
      "start": 63.8136,
      "duration": 0.0123,
      "velocity": 97,
      "chip": "ym2612"
    },
    {
      "channel": 2,
      "note": 65,
      "start": 63.8149,
      "duration": 0.0121,
      "velocity": 100,
      "chip": "ym2612"
    },
    {
      "channel": 1,
      "note": 76,
      "start": 63.8215,
      "duration": 0.016,
      "velocity": 124,
      "chip": "ym2612"
    },
    {
      "channel": 0,
      "note": 47,
      "start": 63.8235,
      "duration": 0.0157,
      "velocity": 115,
      "chip": "ym2612"
    },
    {
      "channel": 4,
      "note": 81,
      "start": 63.8247,
      "duration": 0.0185,
      "velocity": 97,
      "chip": "ym2612"
    },
    {
      "channel": 3,
      "note": 84,
      "start": 63.8259,
      "duration": 0.0185,
      "velocity": 97,
      "chip": "ym2612"
    },
    {
      "channel": 2,
      "note": 65,
      "start": 63.827,
      "duration": 0.0184,
      "velocity": 100,
      "chip": "ym2612"
    },
    {
      "channel": 1,
      "note": 75,
      "start": 63.8375,
      "duration": 0.0161,
      "velocity": 124,
      "chip": "ym2612"
    },
    {
      "channel": 0,
      "note": 47,
      "start": 63.8392,
      "duration": 0.0161,
      "velocity": 115,
      "chip": "ym2612"
    },
    {
      "channel": 4,
      "note": 81,
      "start": 63.8432,
      "duration": 0.0161,
      "velocity": 97,
      "chip": "ym2612"
    },
    {
      "channel": 3,
      "note": 84,
      "start": 63.8443,
      "duration": 0.0161,
      "velocity": 97,
      "chip": "ym2612"
    },
    {
      "channel": 2,
      "note": 65,
      "start": 63.8455,
      "duration": 0.0161,
      "velocity": 100,
      "chip": "ym2612"
    },
    {
      "channel": 1,
      "note": 74,
      "start": 63.8536,
      "duration": 0.0161,
      "velocity": 124,
      "chip": "ym2612"
    },
    {
      "channel": 0,
      "note": 48,
      "start": 63.8553,
      "duration": 0.0161,
      "velocity": 115,
      "chip": "ym2612"
    },
    {
      "channel": 4,
      "note": 81,
      "start": 63.8593,
      "duration": 0.0157,
      "velocity": 97,
      "chip": "ym2612"
    },
    {
      "channel": 3,
      "note": 84,
      "start": 63.8605,
      "duration": 0.0157,
      "velocity": 97,
      "chip": "ym2612"
    },
    {
      "channel": 2,
      "note": 65,
      "start": 63.8616,
      "duration": 0.0158,
      "velocity": 100,
      "chip": "ym2612"
    },
    {
      "channel": 1,
      "note": 72,
      "start": 63.8697,
      "duration": 0.0161,
      "velocity": 124,
      "chip": "ym2612"
    },
    {
      "channel": 0,
      "note": 48,
      "start": 63.8714,
      "duration": 0.0161,
      "velocity": 115,
      "chip": "ym2612"
    },
    {
      "channel": 4,
      "note": 81,
      "start": 63.875,
      "duration": 0.0137,
      "velocity": 97,
      "chip": "ym2612"
    },
    {
      "channel": 3,
      "note": 84,
      "start": 63.8762,
      "duration": 0.014,
      "velocity": 97,
      "chip": "ym2612"
    },
    {
      "channel": 2,
      "note": 65,
      "start": 63.8773,
      "duration": 0.014,
      "velocity": 100,
      "chip": "ym2612"
    },
    {
      "channel": 1,
      "note": 71,
      "start": 63.8858,
      "duration": 0.0161,
      "velocity": 124,
      "chip": "ym2612"
    },
    {
      "channel": 0,
      "note": 49,
      "start": 63.8875,
      "duration": 0.0153,
      "velocity": 1,
      "chip": "ym2612"
    },
    {
      "channel": 4,
      "note": 81,
      "start": 63.8887,
      "duration": 0.0153,
      "velocity": 97,
      "chip": "ym2612"
    },
    {
      "channel": 3,
      "note": 84,
      "start": 63.8902,
      "duration": 0.015,
      "velocity": 97,
      "chip": "ym2612"
    },
    {
      "channel": 2,
      "note": 65,
      "start": 63.8913,
      "duration": 0.0178,
      "velocity": 100,
      "chip": "ym2612"
    },
    {
      "channel": 1,
      "note": 70,
      "start": 63.9019,
      "duration": 0.0161,
      "velocity": 124,
      "chip": "ym2612"
    },
    {
      "channel": 4,
      "note": 81,
      "start": 63.9041,
      "duration": 0.0152,
      "velocity": 97,
      "chip": "ym2612"
    },
    {
      "channel": 3,
      "note": 84,
      "start": 63.9052,
      "duration": 0.0153,
      "velocity": 97,
      "chip": "ym2612"
    },
    {
      "channel": 2,
      "note": 65,
      "start": 63.9091,
      "duration": 0.0125,
      "velocity": 100,
      "chip": "ym2612"
    },
    {
      "channel": 1,
      "note": 69,
      "start": 63.918,
      "duration": 0.0161,
      "velocity": 124,
      "chip": "ym2612"
    },
    {
      "channel": 4,
      "note": 81,
      "start": 63.9193,
      "duration": 0.0161,
      "velocity": 97,
      "chip": "ym2612"
    },
    {
      "channel": 3,
      "note": 84,
      "start": 63.9205,
      "duration": 0.0161,
      "velocity": 97,
      "chip": "ym2612"
    },
    {
      "channel": 2,
      "note": 65,
      "start": 63.9216,
      "duration": 0.0161,
      "velocity": 100,
      "chip": "ym2612"
    },
    {
      "channel": 1,
      "note": 68,
      "start": 63.9341,
      "duration": 0.0162,
      "velocity": 124,
      "chip": "ym2612"
    },
    {
      "channel": 4,
      "note": 81,
      "start": 63.9354,
      "duration": 0.0162,
      "velocity": 97,
      "chip": "ym2612"
    },
    {
      "channel": 3,
      "note": 84,
      "start": 63.9366,
      "duration": 0.0161,
      "velocity": 97,
      "chip": "ym2612"
    },
    {
      "channel": 2,
      "note": 65,
      "start": 63.9376,
      "duration": 0.0162,
      "velocity": 100,
      "chip": "ym2612"
    },
    {
      "channel": 1,
      "note": 66,
      "start": 63.9502,
      "duration": 0.0161,
      "velocity": 124,
      "chip": "ym2612"
    },
    {
      "channel": 4,
      "note": 81,
      "start": 63.9515,
      "duration": 0.0161,
      "velocity": 97,
      "chip": "ym2612"
    },
    {
      "channel": 3,
      "note": 84,
      "start": 63.9527,
      "duration": 0.0161,
      "velocity": 97,
      "chip": "ym2612"
    },
    {
      "channel": 2,
      "note": 65,
      "start": 63.9538,
      "duration": 0.0161,
      "velocity": 100,
      "chip": "ym2612"
    },
    {
      "channel": 1,
      "note": 65,
      "start": 63.9663,
      "duration": 0.0161,
      "velocity": 124,
      "chip": "ym2612"
    },
    {
      "channel": 4,
      "note": 81,
      "start": 63.9676,
      "duration": 0.0161,
      "velocity": 97,
      "chip": "ym2612"
    },
    {
      "channel": 3,
      "note": 84,
      "start": 63.9688,
      "duration": 0.0161,
      "velocity": 97,
      "chip": "ym2612"
    },
    {
      "channel": 1,
      "note": 64,
      "start": 63.9824,
      "duration": 0.0161,
      "velocity": 124,
      "chip": "ym2612"
    },
    {
      "channel": 4,
      "note": 81,
      "start": 63.9837,
      "duration": 0.0161,
      "velocity": 97,
      "chip": "ym2612"
    },
    {
      "channel": 3,
      "note": 84,
      "start": 63.9849,
      "duration": 0.0161,
      "velocity": 97,
      "chip": "ym2612"
    },
    {
      "channel": 1,
      "note": 62,
      "start": 63.9985,
      "duration": 0.0161,
      "velocity": 124,
      "chip": "ym2612"
    },
    {
      "channel": 4,
      "note": 81,
      "start": 63.9998,
      "duration": 0.0161,
      "velocity": 97,
      "chip": "ym2612"
    },
    {
      "channel": 3,
      "note": 84,
      "start": 64.001,
      "duration": 0.016,
      "velocity": 97,
      "chip": "ym2612"
    },
    {
      "channel": 2,
      "note": 63,
      "start": 64.0024,
      "duration": 0.0159,
      "velocity": 100,
      "chip": "ym2612"
    },
    {
      "channel": 1,
      "note": 61,
      "start": 64.0146,
      "duration": 0.0161,
      "velocity": 124,
      "chip": "ym2612"
    },
    {
      "channel": 4,
      "note": 81,
      "start": 64.0159,
      "duration": 0.0161,
      "velocity": 97,
      "chip": "ym2612"
    },
    {
      "channel": 3,
      "note": 84,
      "start": 64.017,
      "duration": 0.0161,
      "velocity": 97,
      "chip": "ym2612"
    },
    {
      "channel": 2,
      "note": 63,
      "start": 64.0183,
      "duration": 0.016,
      "velocity": 100,
      "chip": "ym2612"
    },
    {
      "channel": 1,
      "note": 60,
      "start": 64.0307,
      "duration": 0.0161,
      "velocity": 124,
      "chip": "ym2612"
    },
    {
      "channel": 4,
      "note": 81,
      "start": 64.032,
      "duration": 0.0161,
      "velocity": 97,
      "chip": "ym2612"
    },
    {
      "channel": 3,
      "note": 84,
      "start": 64.0331,
      "duration": 0.0162,
      "velocity": 97,
      "chip": "ym2612"
    },
    {
      "channel": 2,
      "note": 63,
      "start": 64.0343,
      "duration": 0.0161,
      "velocity": 100,
      "chip": "ym2612"
    },
    {
      "channel": 1,
      "note": 59,
      "start": 64.0468,
      "duration": 0.0161,
      "velocity": 124,
      "chip": "ym2612"
    },
    {
      "channel": 4,
      "note": 81,
      "start": 64.0481,
      "duration": 0.0161,
      "velocity": 97,
      "chip": "ym2612"
    },
    {
      "channel": 3,
      "note": 84,
      "start": 64.0493,
      "duration": 0.0161,
      "velocity": 97,
      "chip": "ym2612"
    },
    {
      "channel": 2,
      "note": 63,
      "start": 64.0504,
      "duration": 0.0161,
      "velocity": 100,
      "chip": "ym2612"
    },
    {
      "channel": 1,
      "note": 57,
      "start": 64.0629,
      "duration": 0.0161,
      "velocity": 124,
      "chip": "ym2612"
    },
    {
      "channel": 4,
      "note": 81,
      "start": 64.0642,
      "duration": 0.0161,
      "velocity": 97,
      "chip": "ym2612"
    },
    {
      "channel": 3,
      "note": 84,
      "start": 64.0654,
      "duration": 0.0161,
      "velocity": 97,
      "chip": "ym2612"
    },
    {
      "channel": 2,
      "note": 63,
      "start": 64.0665,
      "duration": 0.0161,
      "velocity": 100,
      "chip": "ym2612"
    },
    {
      "channel": 1,
      "note": 56,
      "start": 64.079,
      "duration": 0.0161,
      "velocity": 124,
      "chip": "ym2612"
    },
    {
      "channel": 4,
      "note": 81,
      "start": 64.0803,
      "duration": 0.0161,
      "velocity": 97,
      "chip": "ym2612"
    },
    {
      "channel": 3,
      "note": 84,
      "start": 64.0815,
      "duration": 0.0161,
      "velocity": 97,
      "chip": "ym2612"
    },
    {
      "channel": 2,
      "note": 63,
      "start": 64.0826,
      "duration": 0.0161,
      "velocity": 100,
      "chip": "ym2612"
    },
    {
      "channel": 1,
      "note": 55,
      "start": 64.0951,
      "duration": 0.0161,
      "velocity": 124,
      "chip": "ym2612"
    },
    {
      "channel": 4,
      "note": 81,
      "start": 64.0964,
      "duration": 0.0161,
      "velocity": 97,
      "chip": "ym2612"
    },
    {
      "channel": 3,
      "note": 84,
      "start": 64.0976,
      "duration": 0.0161,
      "velocity": 97,
      "chip": "ym2612"
    },
    {
      "channel": 2,
      "note": 63,
      "start": 64.0987,
      "duration": 0.0161,
      "velocity": 100,
      "chip": "ym2612"
    },
    {
      "channel": 1,
      "note": 53,
      "start": 64.1112,
      "duration": 0.0161,
      "velocity": 124,
      "chip": "ym2612"
    },
    {
      "channel": 4,
      "note": 81,
      "start": 64.1125,
      "duration": 0.0161,
      "velocity": 97,
      "chip": "ym2612"
    },
    {
      "channel": 3,
      "note": 84,
      "start": 64.1137,
      "duration": 0.0161,
      "velocity": 97,
      "chip": "ym2612"
    },
    {
      "channel": 2,
      "note": 63,
      "start": 64.1148,
      "duration": 0.0161,
      "velocity": 100,
      "chip": "ym2612"
    },
    {
      "channel": 1,
      "note": 52,
      "start": 64.1273,
      "duration": 0.0162,
      "velocity": 124,
      "chip": "ym2612"
    },
    {
      "channel": 4,
      "note": 81,
      "start": 64.1286,
      "duration": 0.0162,
      "velocity": 97,
      "chip": "ym2612"
    },
    {
      "channel": 3,
      "note": 84,
      "start": 64.1298,
      "duration": 0.0162,
      "velocity": 97,
      "chip": "ym2612"
    },
    {
      "channel": 2,
      "note": 63,
      "start": 64.1309,
      "duration": 0.0162,
      "velocity": 100,
      "chip": "ym2612"
    },
    {
      "channel": 1,
      "note": 51,
      "start": 64.1436,
      "duration": 0.0152,
      "velocity": 1,
      "chip": "ym2612"
    },
    {
      "channel": 4,
      "note": 81,
      "start": 64.1448,
      "duration": 0.0151,
      "velocity": 97,
      "chip": "ym2612"
    },
    {
      "channel": 3,
      "note": 84,
      "start": 64.146,
      "duration": 0.0152,
      "velocity": 97,
      "chip": "ym2612"
    },
    {
      "channel": 2,
      "note": 63,
      "start": 64.1471,
      "duration": 0.0152,
      "velocity": 100,
      "chip": "ym2612"
    },
    {
      "channel": 4,
      "note": 81,
      "start": 64.16,
      "duration": 0.0168,
      "velocity": 97,
      "chip": "ym2612"
    },
    {
      "channel": 3,
      "note": 84,
      "start": 64.1612,
      "duration": 0.0169,
      "velocity": 97,
      "chip": "ym2612"
    },
    {
      "channel": 4,
      "note": 81,
      "start": 64.1768,
      "duration": 0.0202,
      "velocity": 97,
      "chip": "ym2612"
    },
    {
      "channel": 3,
      "note": 84,
      "start": 64.178,
      "duration": 0.0201,
      "velocity": 97,
      "chip": "ym2612"
    },
    {
      "channel": 0,
      "note": 36,
      "start": 64.1958,
      "duration": 0.0146,
      "velocity": 115,
      "chip": "ym2612"
    },
    {
      "channel": 4,
      "note": 81,
      "start": 64.197,
      "duration": 0.0146,
      "velocity": 97,
      "chip": "ym2612"
    },
    {
      "channel": 3,
      "note": 84,
      "start": 64.1981,
      "duration": 0.0146,
      "velocity": 97,
      "chip": "ym2612"
    },
    {
      "channel": 0,
      "note": 36,
      "start": 64.2104,
      "duration": 0.014,
      "velocity": 115,
      "chip": "ym2612"
    },
    {
      "channel": 4,
      "note": 81,
      "start": 64.2116,
      "duration": 0.0139,
      "velocity": 97,
      "chip": "ym2612"
    },
    {
      "channel": 3,
      "note": 84,
      "start": 64.2127,
      "duration": 0.014,
      "velocity": 97,
      "chip": "ym2612"
    },
    {
      "channel": 0,
      "note": 37,
      "start": 64.2244,
      "duration": 0.0185,
      "velocity": 115,
      "chip": "ym2612"
    },
    {
      "channel": 4,
      "note": 81,
      "start": 64.2255,
      "duration": 0.0186,
      "velocity": 97,
      "chip": "ym2612"
    },
    {
      "channel": 3,
      "note": 84,
      "start": 64.2267,
      "duration": 0.0185,
      "velocity": 97,
      "chip": "ym2612"
    },
    {
      "channel": 0,
      "note": 37,
      "start": 64.2429,
      "duration": 0.0161,
      "velocity": 115,
      "chip": "ym2612"
    },
    {
      "channel": 4,
      "note": 81,
      "start": 64.2441,
      "duration": 0.0161,
      "velocity": 97,
      "chip": "ym2612"
    },
    {
      "channel": 3,
      "note": 84,
      "start": 64.2452,
      "duration": 0.0162,
      "velocity": 97,
      "chip": "ym2612"
    },
    {
      "channel": 0,
      "note": 38,
      "start": 64.259,
      "duration": 0.0134,
      "velocity": 115,
      "chip": "ym2612"
    },
    {
      "channel": 4,
      "note": 81,
      "start": 64.2602,
      "duration": 0.0157,
      "velocity": 97,
      "chip": "ym2612"
    },
    {
      "channel": 3,
      "note": 84,
      "start": 64.2614,
      "duration": 0.0157,
      "velocity": 97,
      "chip": "ym2612"
    },
    {
      "channel": 0,
      "note": 38,
      "start": 64.2723,
      "duration": 0.0161,
      "velocity": 115,
      "chip": "ym2612"
    },
    {
      "channel": 4,
      "note": 81,
      "start": 64.2759,
      "duration": 0.0141,
      "velocity": 97,
      "chip": "ym2612"
    },
    {
      "channel": 3,
      "note": 84,
      "start": 64.2771,
      "duration": 0.014,
      "velocity": 97,
      "chip": "ym2612"
    },
    {
      "channel": 0,
      "note": 39,
      "start": 64.2884,
      "duration": 0.0161,
      "velocity": 115,
      "chip": "ym2612"
    },
    {
      "channel": 4,
      "note": 81,
      "start": 64.2899,
      "duration": 0.0158,
      "velocity": 97,
      "chip": "ym2612"
    },
    {
      "channel": 3,
      "note": 84,
      "start": 64.2911,
      "duration": 0.0185,
      "velocity": 97,
      "chip": "ym2612"
    },
    {
      "channel": 0,
      "note": 39,
      "start": 64.3045,
      "duration": 0.0161,
      "velocity": 115,
      "chip": "ym2612"
    },
    {
      "channel": 4,
      "note": 81,
      "start": 64.3057,
      "duration": 0.0161,
      "velocity": 97,
      "chip": "ym2612"
    },
    {
      "channel": 3,
      "note": 84,
      "start": 64.3096,
      "duration": 0.0161,
      "velocity": 97,
      "chip": "ym2612"
    },
    {
      "channel": 0,
      "note": 40,
      "start": 64.3206,
      "duration": 0.0161,
      "velocity": 115,
      "chip": "ym2612"
    },
    {
      "channel": 4,
      "note": 81,
      "start": 64.3218,
      "duration": 0.0161,
      "velocity": 97,
      "chip": "ym2612"
    },
    {
      "channel": 3,
      "note": 84,
      "start": 64.3257,
      "duration": 0.0134,
      "velocity": 97,
      "chip": "ym2612"
    },
    {
      "channel": 0,
      "note": 40,
      "start": 64.3367,
      "duration": 0.0161,
      "velocity": 115,
      "chip": "ym2612"
    },
    {
      "channel": 4,
      "note": 81,
      "start": 64.3379,
      "duration": 0.0161,
      "velocity": 97,
      "chip": "ym2612"
    },
    {
      "channel": 3,
      "note": 84,
      "start": 64.339,
      "duration": 0.0161,
      "velocity": 97,
      "chip": "ym2612"
    },
    {
      "channel": 0,
      "note": 40,
      "start": 64.3528,
      "duration": 0.0161,
      "velocity": 115,
      "chip": "ym2612"
    },
    {
      "channel": 4,
      "note": 81,
      "start": 64.354,
      "duration": 0.0161,
      "velocity": 97,
      "chip": "ym2612"
    },
    {
      "channel": 3,
      "note": 84,
      "start": 64.3551,
      "duration": 0.0161,
      "velocity": 97,
      "chip": "ym2612"
    },
    {
      "channel": 0,
      "note": 41,
      "start": 64.3689,
      "duration": 0.0179,
      "velocity": 115,
      "chip": "ym2612"
    },
    {
      "channel": 4,
      "note": 81,
      "start": 64.3701,
      "duration": 0.0179,
      "velocity": 97,
      "chip": "ym2612"
    },
    {
      "channel": 3,
      "note": 84,
      "start": 64.3713,
      "duration": 0.0179,
      "velocity": 97,
      "chip": "ym2612"
    },
    {
      "channel": 0,
      "note": 36,
      "start": 64.3868,
      "duration": 0.0144,
      "velocity": 115,
      "chip": "ym2612"
    },
    {
      "channel": 4,
      "note": 81,
      "start": 64.388,
      "duration": 0.0143,
      "velocity": 97,
      "chip": "ym2612"
    },
    {
      "channel": 3,
      "note": 84,
      "start": 64.3892,
      "duration": 0.0144,
      "velocity": 97,
      "chip": "ym2612"
    },
    {
      "channel": 2,
      "note": 65,
      "start": 64.3933,
      "duration": 0.0114,
      "velocity": 100,
      "chip": "ym2612"
    },
    {
      "channel": 1,
      "note": 53,
      "start": 64.3947,
      "duration": 0.0112,
      "velocity": 100,
      "chip": "ym2612"
    },
    {
      "channel": 0,
      "note": 36,
      "start": 64.4012,
      "duration": 0.016,
      "velocity": 115,
      "chip": "ym2612"
    },
    {
      "channel": 4,
      "note": 81,
      "start": 64.4023,
      "duration": 0.0161,
      "velocity": 97,
      "chip": "ym2612"
    },
    {
      "channel": 3,
      "note": 84,
      "start": 64.4036,
      "duration": 0.016,
      "velocity": 97,
      "chip": "ym2612"
    },
    {
      "channel": 2,
      "note": 65,
      "start": 64.4047,
      "duration": 0.016,
      "velocity": 100,
      "chip": "ym2612"
    },
    {
      "channel": 1,
      "note": 53,
      "start": 64.4059,
      "duration": 0.0159,
      "velocity": 100,
      "chip": "ym2612"
    },
    {
      "channel": 0,
      "note": 37,
      "start": 64.4172,
      "duration": 0.0161,
      "velocity": 115,
      "chip": "ym2612"
    },
    {
      "channel": 4,
      "note": 81,
      "start": 64.4184,
      "duration": 0.0161,
      "velocity": 97,
      "chip": "ym2612"
    },
    {
      "channel": 3,
      "note": 84,
      "start": 64.4196,
      "duration": 0.0161,
      "velocity": 97,
      "chip": "ym2612"
    },
    {
      "channel": 2,
      "note": 65,
      "start": 64.4207,
      "duration": 0.0161,
      "velocity": 100,
      "chip": "ym2612"
    },
    {
      "channel": 1,
      "note": 53,
      "start": 64.4218,
      "duration": 0.0161,
      "velocity": 100,
      "chip": "ym2612"
    },
    {
      "channel": 0,
      "note": 37,
      "start": 64.4333,
      "duration": 0.0161,
      "velocity": 115,
      "chip": "ym2612"
    },
    {
      "channel": 4,
      "note": 81,
      "start": 64.4345,
      "duration": 0.0161,
      "velocity": 97,
      "chip": "ym2612"
    },
    {
      "channel": 3,
      "note": 84,
      "start": 64.4357,
      "duration": 0.0161,
      "velocity": 97,
      "chip": "ym2612"
    },
    {
      "channel": 2,
      "note": 65,
      "start": 64.4368,
      "duration": 0.0161,
      "velocity": 100,
      "chip": "ym2612"
    },
    {
      "channel": 1,
      "note": 53,
      "start": 64.4379,
      "duration": 0.0161,
      "velocity": 100,
      "chip": "ym2612"
    },
    {
      "channel": 0,
      "note": 38,
      "start": 64.4494,
      "duration": 0.0161,
      "velocity": 115,
      "chip": "ym2612"
    },
    {
      "channel": 4,
      "note": 81,
      "start": 64.4506,
      "duration": 0.0161,
      "velocity": 97,
      "chip": "ym2612"
    },
    {
      "channel": 3,
      "note": 84,
      "start": 64.4518,
      "duration": 0.0161,
      "velocity": 97,
      "chip": "ym2612"
    },
    {
      "channel": 2,
      "note": 65,
      "start": 64.4529,
      "duration": 0.0161,
      "velocity": 100,
      "chip": "ym2612"
    },
    {
      "channel": 1,
      "note": 53,
      "start": 64.454,
      "duration": 0.0162,
      "velocity": 100,
      "chip": "ym2612"
    },
    {
      "channel": 0,
      "note": 38,
      "start": 64.4655,
      "duration": 0.0161,
      "velocity": 115,
      "chip": "ym2612"
    },
    {
      "channel": 4,
      "note": 81,
      "start": 64.4667,
      "duration": 0.0161,
      "velocity": 97,
      "chip": "ym2612"
    },
    {
      "channel": 3,
      "note": 84,
      "start": 64.4679,
      "duration": 0.0161,
      "velocity": 97,
      "chip": "ym2612"
    },
    {
      "channel": 2,
      "note": 65,
      "start": 64.469,
      "duration": 0.0161,
      "velocity": 100,
      "chip": "ym2612"
    },
    {
      "channel": 1,
      "note": 53,
      "start": 64.4702,
      "duration": 0.0161,
      "velocity": 100,
      "chip": "ym2612"
    },
    {
      "channel": 0,
      "note": 39,
      "start": 64.4816,
      "duration": 0.0161,
      "velocity": 115,
      "chip": "ym2612"
    },
    {
      "channel": 4,
      "note": 81,
      "start": 64.4828,
      "duration": 0.0161,
      "velocity": 97,
      "chip": "ym2612"
    },
    {
      "channel": 3,
      "note": 84,
      "start": 64.484,
      "duration": 0.0161,
      "velocity": 97,
      "chip": "ym2612"
    },
    {
      "channel": 2,
      "note": 65,
      "start": 64.4851,
      "duration": 0.0161,
      "velocity": 100,
      "chip": "ym2612"
    },
    {
      "channel": 1,
      "note": 53,
      "start": 64.4863,
      "duration": 0.0161,
      "velocity": 100,
      "chip": "ym2612"
    },
    {
      "channel": 0,
      "note": 39,
      "start": 64.4977,
      "duration": 0.0161,
      "velocity": 115,
      "chip": "ym2612"
    },
    {
      "channel": 4,
      "note": 81,
      "start": 64.4989,
      "duration": 0.0161,
      "velocity": 97,
      "chip": "ym2612"
    },
    {
      "channel": 3,
      "note": 84,
      "start": 64.5,
      "duration": 0.0162,
      "velocity": 97,
      "chip": "ym2612"
    },
    {
      "channel": 2,
      "note": 65,
      "start": 64.5012,
      "duration": 0.0161,
      "velocity": 100,
      "chip": "ym2612"
    },
    {
      "channel": 1,
      "note": 53,
      "start": 64.5023,
      "duration": 0.0162,
      "velocity": 100,
      "chip": "ym2612"
    },
    {
      "channel": 0,
      "note": 40,
      "start": 64.5139,
      "duration": 0.0161,
      "velocity": 115,
      "chip": "ym2612"
    },
    {
      "channel": 4,
      "note": 81,
      "start": 64.5151,
      "duration": 0.016,
      "velocity": 97,
      "chip": "ym2612"
    },
    {
      "channel": 3,
      "note": 84,
      "start": 64.5162,
      "duration": 0.0161,
      "velocity": 97,
      "chip": "ym2612"
    },
    {
      "channel": 2,
      "note": 65,
      "start": 64.5173,
      "duration": 0.016,
      "velocity": 100,
      "chip": "ym2612"
    },
    {
      "channel": 1,
      "note": 53,
      "start": 64.5185,
      "duration": 0.016,
      "velocity": 100,
      "chip": "ym2612"
    },
    {
      "channel": 0,
      "note": 40,
      "start": 64.53,
      "duration": 0.0161,
      "velocity": 115,
      "chip": "ym2612"
    },
    {
      "channel": 4,
      "note": 81,
      "start": 64.5311,
      "duration": 0.0162,
      "velocity": 97,
      "chip": "ym2612"
    },
    {
      "channel": 3,
      "note": 84,
      "start": 64.5323,
      "duration": 0.0161,
      "velocity": 97,
      "chip": "ym2612"
    },
    {
      "channel": 2,
      "note": 65,
      "start": 64.5334,
      "duration": 0.0162,
      "velocity": 100,
      "chip": "ym2612"
    },
    {
      "channel": 1,
      "note": 53,
      "start": 64.5345,
      "duration": 0.0161,
      "velocity": 100,
      "chip": "ym2612"
    },
    {
      "channel": 0,
      "note": 40,
      "start": 64.5461,
      "duration": 0.0161,
      "velocity": 115,
      "chip": "ym2612"
    },
    {
      "channel": 4,
      "note": 81,
      "start": 64.5473,
      "duration": 0.0161,
      "velocity": 97,
      "chip": "ym2612"
    },
    {
      "channel": 3,
      "note": 84,
      "start": 64.5484,
      "duration": 0.0161,
      "velocity": 97,
      "chip": "ym2612"
    },
    {
      "channel": 0,
      "note": 41,
      "start": 64.5621,
      "duration": 0.0195,
      "velocity": 115,
      "chip": "ym2612"
    },
    {
      "channel": 4,
      "note": 81,
      "start": 64.5634,
      "duration": 0.0195,
      "velocity": 97,
      "chip": "ym2612"
    },
    {
      "channel": 3,
      "note": 84,
      "start": 64.5645,
      "duration": 0.0195,
      "velocity": 97,
      "chip": "ym2612"
    },
    {
      "channel": 1,
      "note": 78,
      "start": 64.58,
      "duration": 0.0144,
      "velocity": 124,
      "chip": "ym2612"
    },
    {
      "channel": 0,
      "note": 41,
      "start": 64.5817,
      "duration": 0.0144,
      "velocity": 115,
      "chip": "ym2612"
    },
    {
      "channel": 4,
      "note": 81,
      "start": 64.5829,
      "duration": 0.0144,
      "velocity": 97,
      "chip": "ym2612"
    },
    {
      "channel": 3,
      "note": 84,
      "start": 64.584,
      "duration": 0.0144,
      "velocity": 97,
      "chip": "ym2612"
    },
    {
      "channel": 2,
      "note": 60,
      "start": 64.5854,
      "duration": 0.0142,
      "velocity": 100,
      "chip": "ym2612"
    },
    {
      "channel": 1,
      "note": 76,
      "start": 64.5943,
      "duration": 0.016,
      "velocity": 124,
      "chip": "ym2612"
    },
    {
      "channel": 0,
      "note": 42,
      "start": 64.5961,
      "duration": 0.0161,
      "velocity": 115,
      "chip": "ym2612"
    },
    {
      "channel": 4,
      "note": 81,
      "start": 64.5973,
      "duration": 0.016,
      "velocity": 97,
      "chip": "ym2612"
    },
    {
      "channel": 3,
      "note": 84,
      "start": 64.5984,
      "duration": 0.0161,
      "velocity": 97,
      "chip": "ym2612"
    },
    {
      "channel": 2,
      "note": 60,
      "start": 64.5996,
      "duration": 0.016,
      "velocity": 100,
      "chip": "ym2612"
    },
    {
      "channel": 1,
      "note": 75,
      "start": 64.6104,
      "duration": 0.0161,
      "velocity": 124,
      "chip": "ym2612"
    },
    {
      "channel": 0,
      "note": 42,
      "start": 64.6121,
      "duration": 0.016,
      "velocity": 115,
      "chip": "ym2612"
    },
    {
      "channel": 4,
      "note": 81,
      "start": 64.6133,
      "duration": 0.0161,
      "velocity": 97,
      "chip": "ym2612"
    },
    {
      "channel": 3,
      "note": 84,
      "start": 64.6145,
      "duration": 0.016,
      "velocity": 97,
      "chip": "ym2612"
    },
    {
      "channel": 2,
      "note": 60,
      "start": 64.6156,
      "duration": 0.0161,
      "velocity": 100,
      "chip": "ym2612"
    },
    {
      "channel": 1,
      "note": 74,
      "start": 64.6265,
      "duration": 0.0174,
      "velocity": 124,
      "chip": "ym2612"
    },
    {
      "channel": 0,
      "note": 43,
      "start": 64.6282,
      "duration": 0.0175,
      "velocity": 115,
      "chip": "ym2612"
    },
    {
      "channel": 4,
      "note": 81,
      "start": 64.6294,
      "duration": 0.0175,
      "velocity": 97,
      "chip": "ym2612"
    },
    {
      "channel": 3,
      "note": 84,
      "start": 64.6305,
      "duration": 0.0175,
      "velocity": 97,
      "chip": "ym2612"
    },
    {
      "channel": 2,
      "note": 60,
      "start": 64.6317,
      "duration": 0.0175,
      "velocity": 100,
      "chip": "ym2612"
    },
    {
      "channel": 1,
      "note": 72,
      "start": 64.6439,
      "duration": 0.0167,
      "velocity": 124,
      "chip": "ym2612"
    },
    {
      "channel": 0,
      "note": 43,
      "start": 64.6457,
      "duration": 0.0167,
      "velocity": 115,
      "chip": "ym2612"
    },
    {
      "channel": 4,
      "note": 81,
      "start": 64.6469,
      "duration": 0.0166,
      "velocity": 97,
      "chip": "ym2612"
    },
    {
      "channel": 3,
      "note": 84,
      "start": 64.648,
      "duration": 0.0167,
      "velocity": 97,
      "chip": "ym2612"
    },
    {
      "channel": 2,
      "note": 60,
      "start": 64.6492,
      "duration": 0.0166,
      "velocity": 100,
      "chip": "ym2612"
    },
    {
      "channel": 1,
      "note": 71,
      "start": 64.6605,
      "duration": 0.0163,
      "velocity": 124,
      "chip": "ym2612"
    },
    {
      "channel": 0,
      "note": 44,
      "start": 64.6623,
      "duration": 0.0163,
      "velocity": 115,
      "chip": "ym2612"
    },
    {
      "channel": 4,
      "note": 81,
      "start": 64.6635,
      "duration": 0.0163,
      "velocity": 97,
      "chip": "ym2612"
    },
    {
      "channel": 3,
      "note": 84,
      "start": 64.6647,
      "duration": 0.0163,
      "velocity": 97,
      "chip": "ym2612"
    },
    {
      "channel": 2,
      "note": 60,
      "start": 64.6658,
      "duration": 0.0163,
      "velocity": 100,
      "chip": "ym2612"
    },
    {
      "channel": 1,
      "note": 70,
      "start": 64.6769,
      "duration": 0.0143,
      "velocity": 124,
      "chip": "ym2612"
    },
    {
      "channel": 0,
      "note": 44,
      "start": 64.6786,
      "duration": 0.0143,
      "velocity": 115,
      "chip": "ym2612"
    },
    {
      "channel": 4,
      "note": 81,
      "start": 64.6798,
      "duration": 0.0143,
      "velocity": 97,
      "chip": "ym2612"
    },
    {
      "channel": 3,
      "note": 84,
      "start": 64.681,
      "duration": 0.0143,
      "velocity": 97,
      "chip": "ym2612"
    },
    {
      "channel": 2,
      "note": 60,
      "start": 64.6821,
      "duration": 0.0143,
      "velocity": 100,
      "chip": "ym2612"
    },
    {
      "channel": 1,
      "note": 69,
      "start": 64.6912,
      "duration": 0.0185,
      "velocity": 124,
      "chip": "ym2612"
    },
    {
      "channel": 0,
      "note": 44,
      "start": 64.6929,
      "duration": 0.0185,
      "velocity": 115,
      "chip": "ym2612"
    },
    {
      "channel": 4,
      "note": 81,
      "start": 64.6941,
      "duration": 0.0185,
      "velocity": 97,
      "chip": "ym2612"
    },
    {
      "channel": 3,
      "note": 84,
      "start": 64.6953,
      "duration": 0.0185,
      "velocity": 97,
      "chip": "ym2612"
    },
    {
      "channel": 2,
      "note": 60,
      "start": 64.6964,
      "duration": 0.0185,
      "velocity": 100,
      "chip": "ym2612"
    },
    {
      "channel": 1,
      "note": 68,
      "start": 64.7097,
      "duration": 0.0161,
      "velocity": 124,
      "chip": "ym2612"
    },
    {
      "channel": 0,
      "note": 45,
      "start": 64.7114,
      "duration": 0.0161,
      "velocity": 115,
      "chip": "ym2612"
    },
    {
      "channel": 4,
      "note": 81,
      "start": 64.7127,
      "duration": 0.0161,
      "velocity": 97,
      "chip": "ym2612"
    },
    {
      "channel": 3,
      "note": 84,
      "start": 64.7138,
      "duration": 0.0161,
      "velocity": 97,
      "chip": "ym2612"
    },
    {
      "channel": 2,
      "note": 60,
      "start": 64.7149,
      "duration": 0.0161,
      "velocity": 100,
      "chip": "ym2612"
    },
    {
      "channel": 1,
      "note": 66,
      "start": 64.7258,
      "duration": 0.0134,
      "velocity": 124,
      "chip": "ym2612"
    },
    {
      "channel": 0,
      "note": 45,
      "start": 64.7275,
      "duration": 0.0157,
      "velocity": 115,
      "chip": "ym2612"
    },
    {
      "channel": 4,
      "note": 81,
      "start": 64.7288,
      "duration": 0.0157,
      "velocity": 97,
      "chip": "ym2612"
    },
    {
      "channel": 3,
      "note": 84,
      "start": 64.7299,
      "duration": 0.0158,
      "velocity": 97,
      "chip": "ym2612"
    },
    {
      "channel": 2,
      "note": 60,
      "start": 64.731,
      "duration": 0.0158,
      "velocity": 100,
      "chip": "ym2612"
    },
    {
      "channel": 1,
      "note": 65,
      "start": 64.7392,
      "duration": 0.0161,
      "velocity": 124,
      "chip": "ym2612"
    },
    {
      "channel": 0,
      "note": 46,
      "start": 64.7432,
      "duration": 0.0141,
      "velocity": 115,
      "chip": "ym2612"
    },
    {
      "channel": 4,
      "note": 81,
      "start": 64.7444,
      "duration": 0.0141,
      "velocity": 97,
      "chip": "ym2612"
    },
    {
      "channel": 3,
      "note": 84,
      "start": 64.7457,
      "duration": 0.014,
      "velocity": 97,
      "chip": "ym2612"
    },
    {
      "channel": 1,
      "note": 64,
      "start": 64.7553,
      "duration": 0.0161,
      "velocity": 124,
      "chip": "ym2612"
    },
    {
      "channel": 0,
      "note": 46,
      "start": 64.7573,
      "duration": 0.0203,
      "velocity": 115,
      "chip": "ym2612"
    },
    {
      "channel": 4,
      "note": 81,
      "start": 64.7585,
      "duration": 0.0204,
      "velocity": 97,
      "chip": "ym2612"
    },
    {
      "channel": 3,
      "note": 84,
      "start": 64.7597,
      "duration": 0.0204,
      "velocity": 97,
      "chip": "ym2612"
    },
    {
      "channel": 1,
      "note": 62,
      "start": 64.7714,
      "duration": 0.0161,
      "velocity": 124,
      "chip": "ym2612"
    },
    {
      "channel": 0,
      "note": 36,
      "start": 64.7777,
      "duration": 0.0116,
      "velocity": 115,
      "chip": "ym2612"
    },
    {
      "channel": 4,
      "note": 81,
      "start": 64.7789,
      "duration": 0.0143,
      "velocity": 97,
      "chip": "ym2612"
    },
    {
      "channel": 3,
      "note": 84,
      "start": 64.78,
      "duration": 0.0143,
      "velocity": 97,
      "chip": "ym2612"
    },
    {
      "channel": 2,
      "note": 56,
      "start": 64.7814,
      "duration": 0.0141,
      "velocity": 100,
      "chip": "ym2612"
    },
    {
      "channel": 1,
      "note": 61,
      "start": 64.7875,
      "duration": 0.0161,
      "velocity": 124,
      "chip": "ym2612"
    },
    {
      "channel": 0,
      "note": 36,
      "start": 64.7892,
      "duration": 0.016,
      "velocity": 115,
      "chip": "ym2612"
    },
    {
      "channel": 4,
      "note": 81,
      "start": 64.7932,
      "duration": 0.0156,
      "velocity": 97,
      "chip": "ym2612"
    },
    {
      "channel": 3,
      "note": 84,
      "start": 64.7943,
      "duration": 0.0157,
      "velocity": 97,
      "chip": "ym2612"
    },
    {
      "channel": 2,
      "note": 56,
      "start": 64.7955,
      "duration": 0.0156,
      "velocity": 100,
      "chip": "ym2612"
    },
    {
      "channel": 1,
      "note": 60,
      "start": 64.8036,
      "duration": 0.0161,
      "velocity": 124,
      "chip": "ym2612"
    },
    {
      "channel": 0,
      "note": 37,
      "start": 64.8053,
      "duration": 0.0161,
      "velocity": 115,
      "chip": "ym2612"
    },
    {
      "channel": 4,
      "note": 81,
      "start": 64.8088,
      "duration": 0.0137,
      "velocity": 97,
      "chip": "ym2612"
    },
    {
      "channel": 3,
      "note": 84,
      "start": 64.81,
      "duration": 0.014,
      "velocity": 97,
      "chip": "ym2612"
    },
    {
      "channel": 2,
      "note": 56,
      "start": 64.8111,
      "duration": 0.0141,
      "velocity": 100,
      "chip": "ym2612"
    },
    {
      "channel": 1,
      "note": 59,
      "start": 64.8196,
      "duration": 0.0161,
      "velocity": 124,
      "chip": "ym2612"
    },
    {
      "channel": 0,
      "note": 37,
      "start": 64.8214,
      "duration": 0.0162,
      "velocity": 115,
      "chip": "ym2612"
    },
    {
      "channel": 4,
      "note": 81,
      "start": 64.8226,
      "duration": 0.0161,
      "velocity": 97,
      "chip": "ym2612"
    },
    {
      "channel": 3,
      "note": 84,
      "start": 64.824,
      "duration": 0.0186,
      "velocity": 97,
      "chip": "ym2612"
    },
    {
      "channel": 2,
      "note": 56,
      "start": 64.8252,
      "duration": 0.0186,
      "velocity": 100,
      "chip": "ym2612"
    },
    {
      "channel": 1,
      "note": 57,
      "start": 64.8357,
      "duration": 0.0162,
      "velocity": 124,
      "chip": "ym2612"
    },
    {
      "channel": 0,
      "note": 38,
      "start": 64.8375,
      "duration": 0.0161,
      "velocity": 115,
      "chip": "ym2612"
    },
    {
      "channel": 4,
      "note": 81,
      "start": 64.8387,
      "duration": 0.0162,
      "velocity": 97,
      "chip": "ym2612"
    },
    {
      "channel": 3,
      "note": 84,
      "start": 64.8426,
      "duration": 0.0161,
      "velocity": 97,
      "chip": "ym2612"
    },
    {
      "channel": 2,
      "note": 56,
      "start": 64.8438,
      "duration": 0.0161,
      "velocity": 100,
      "chip": "ym2612"
    },
    {
      "channel": 1,
      "note": 56,
      "start": 64.8519,
      "duration": 0.0161,
      "velocity": 124,
      "chip": "ym2612"
    },
    {
      "channel": 0,
      "note": 38,
      "start": 64.8536,
      "duration": 0.0161,
      "velocity": 115,
      "chip": "ym2612"
    },
    {
      "channel": 4,
      "note": 81,
      "start": 64.8548,
      "duration": 0.0161,
      "velocity": 97,
      "chip": "ym2612"
    },
    {
      "channel": 3,
      "note": 84,
      "start": 64.8587,
      "duration": 0.0134,
      "velocity": 97,
      "chip": "ym2612"
    },
    {
      "channel": 2,
      "note": 56,
      "start": 64.8598,
      "duration": 0.0157,
      "velocity": 100,
      "chip": "ym2612"
    },
    {
      "channel": 1,
      "note": 55,
      "start": 64.868,
      "duration": 0.0161,
      "velocity": 124,
      "chip": "ym2612"
    },
    {
      "channel": 0,
      "note": 39,
      "start": 64.8697,
      "duration": 0.0161,
      "velocity": 115,
      "chip": "ym2612"
    },
    {
      "channel": 4,
      "note": 81,
      "start": 64.8709,
      "duration": 0.0161,
      "velocity": 97,
      "chip": "ym2612"
    },
    {
      "channel": 3,
      "note": 84,
      "start": 64.8721,
      "duration": 0.0161,
      "velocity": 97,
      "chip": "ym2612"
    },
    {
      "channel": 2,
      "note": 56,
      "start": 64.8756,
      "duration": 0.0139,
      "velocity": 100,
      "chip": "ym2612"
    },
    {
      "channel": 1,
      "note": 53,
      "start": 64.8841,
      "duration": 0.0161,
      "velocity": 124,
      "chip": "ym2612"
    },
    {
      "channel": 0,
      "note": 39,
      "start": 64.8858,
      "duration": 0.0161,
      "velocity": 115,
      "chip": "ym2612"
    },
    {
      "channel": 4,
      "note": 81,
      "start": 64.887,
      "duration": 0.0161,
      "velocity": 97,
      "chip": "ym2612"
    },
    {
      "channel": 3,
      "note": 84,
      "start": 64.8882,
      "duration": 0.0161,
      "velocity": 97,
      "chip": "ym2612"
    },
    {
      "channel": 2,
      "note": 56,
      "start": 64.8894,
      "duration": 0.016,
      "velocity": 100,
      "chip": "ym2612"
    },
    {
      "channel": 1,
      "note": 52,
      "start": 64.9002,
      "duration": 0.0161,
      "velocity": 124,
      "chip": "ym2612"
    },
    {
      "channel": 0,
      "note": 40,
      "start": 64.9019,
      "duration": 0.0161,
      "velocity": 115,
      "chip": "ym2612"
    },
    {
      "channel": 4,
      "note": 81,
      "start": 64.9031,
      "duration": 0.0161,
      "velocity": 97,
      "chip": "ym2612"
    },
    {
      "channel": 3,
      "note": 84,
      "start": 64.9043,
      "duration": 0.016,
      "velocity": 97,
      "chip": "ym2612"
    },
    {
      "channel": 2,
      "note": 56,
      "start": 64.9055,
      "duration": 0.016,
      "velocity": 100,
      "chip": "ym2612"
    },
    {
      "channel": 1,
      "note": 51,
      "start": 64.9163,
      "duration": 0.0153,
      "velocity": 1,
      "chip": "ym2612"
    },
    {
      "channel": 0,
      "note": 40,
      "start": 64.918,
      "duration": 0.0154,
      "velocity": 115,
      "chip": "ym2612"
    },
    {
      "channel": 4,
      "note": 81,
      "start": 64.9192,
      "duration": 0.0153,
      "velocity": 97,
      "chip": "ym2612"
    },
    {
      "channel": 3,
      "note": 84,
      "start": 64.9203,
      "duration": 0.0153,
      "velocity": 97,
      "chip": "ym2612"
    },
    {
      "channel": 2,
      "note": 56,
      "start": 64.9215,
      "duration": 0.0153,
      "velocity": 100,
      "chip": "ym2612"
    },
    {
      "channel": 0,
      "note": 40,
      "start": 64.9333,
      "duration": 0.0152,
      "velocity": 115,
      "chip": "ym2612"
    },
    {
      "channel": 4,
      "note": 81,
      "start": 64.9345,
      "duration": 0.0153,
      "velocity": 97,
      "chip": "ym2612"
    },
    {
      "channel": 3,
      "note": 84,
      "start": 64.9357,
      "duration": 0.0153,
      "velocity": 97,
      "chip": "ym2612"
    },
    {
      "channel": 0,
      "note": 41,
      "start": 64.9485,
      "duration": 0.0179,
      "velocity": 115,
      "chip": "ym2612"
    },
    {
      "channel": 4,
      "note": 81,
      "start": 64.9497,
      "duration": 0.0181,
      "velocity": 97,
      "chip": "ym2612"
    },
    {
      "channel": 3,
      "note": 84,
      "start": 64.951,
      "duration": 0.0183,
      "velocity": 97,
      "chip": "ym2612"
    },
    {
      "channel": 0,
      "note": 36,
      "start": 64.9665,
      "duration": 0.0144,
      "velocity": 115,
      "chip": "ym2612"
    },
    {
      "channel": 4,
      "note": 77,
      "start": 64.9679,
      "duration": 0.0142,
      "velocity": 97,
      "chip": "ym2612"
    },
    {
      "channel": 3,
      "note": 80,
      "start": 64.9693,
      "duration": 0.0139,
      "velocity": 97,
      "chip": "ym2612"
    },
    {
      "channel": 2,
      "note": 49,
      "start": 64.9708,
      "duration": 0.0136,
      "velocity": 100,
      "chip": "ym2612"
    },
    {
      "channel": 1,
      "note": 37,
      "start": 64.9722,
      "duration": 0.0134,
      "velocity": 100,
      "chip": "ym2612"
    },
    {
      "channel": 0,
      "note": 36,
      "start": 64.9808,
      "duration": 0.016,
      "velocity": 115,
      "chip": "ym2612"
    },
    {
      "channel": 4,
      "note": 77,
      "start": 64.982,
      "duration": 0.016,
      "velocity": 97,
      "chip": "ym2612"
    },
    {
      "channel": 3,
      "note": 80,
      "start": 64.9833,
      "duration": 0.016,
      "velocity": 97,
      "chip": "ym2612"
    },
    {
      "channel": 2,
      "note": 49,
      "start": 64.9844,
      "duration": 0.0159,
      "velocity": 100,
      "chip": "ym2612"
    },
    {
      "channel": 1,
      "note": 37,
      "start": 64.9856,
      "duration": 0.0158,
      "velocity": 100,
      "chip": "ym2612"
    },
    {
      "channel": 0,
      "note": 37,
      "start": 64.9969,
      "duration": 0.0161,
      "velocity": 115,
      "chip": "ym2612"
    },
    {
      "channel": 4,
      "note": 77,
      "start": 64.998,
      "duration": 0.0161,
      "velocity": 97,
      "chip": "ym2612"
    },
    {
      "channel": 3,
      "note": 80,
      "start": 64.9992,
      "duration": 0.0161,
      "velocity": 97,
      "chip": "ym2612"
    },
    {
      "channel": 2,
      "note": 49,
      "start": 65.0003,
      "duration": 0.0161,
      "velocity": 100,
      "chip": "ym2612"
    },
    {
      "channel": 1,
      "note": 37,
      "start": 65.0015,
      "duration": 0.0161,
      "velocity": 100,
      "chip": "ym2612"
    },
    {
      "channel": 0,
      "note": 37,
      "start": 65.013,
      "duration": 0.0161,
      "velocity": 115,
      "chip": "ym2612"
    },
    {
      "channel": 4,
      "note": 77,
      "start": 65.0142,
      "duration": 0.0161,
      "velocity": 97,
      "chip": "ym2612"
    },
    {
      "channel": 3,
      "note": 80,
      "start": 65.0153,
      "duration": 0.0161,
      "velocity": 97,
      "chip": "ym2612"
    },
    {
      "channel": 2,
      "note": 49,
      "start": 65.0164,
      "duration": 0.0161,
      "velocity": 100,
      "chip": "ym2612"
    },
    {
      "channel": 1,
      "note": 37,
      "start": 65.0176,
      "duration": 0.0161,
      "velocity": 100,
      "chip": "ym2612"
    },
    {
      "channel": 0,
      "note": 38,
      "start": 65.0291,
      "duration": 0.0161,
      "velocity": 115,
      "chip": "ym2612"
    },
    {
      "channel": 4,
      "note": 77,
      "start": 65.0303,
      "duration": 0.0161,
      "velocity": 97,
      "chip": "ym2612"
    },
    {
      "channel": 3,
      "note": 80,
      "start": 65.0314,
      "duration": 0.0161,
      "velocity": 97,
      "chip": "ym2612"
    },
    {
      "channel": 2,
      "note": 49,
      "start": 65.0325,
      "duration": 0.0161,
      "velocity": 100,
      "chip": "ym2612"
    },
    {
      "channel": 1,
      "note": 37,
      "start": 65.0337,
      "duration": 0.0161,
      "velocity": 100,
      "chip": "ym2612"
    },
    {
      "channel": 0,
      "note": 38,
      "start": 65.0451,
      "duration": 0.0161,
      "velocity": 115,
      "chip": "ym2612"
    },
    {
      "channel": 4,
      "note": 77,
      "start": 65.0464,
      "duration": 0.0161,
      "velocity": 97,
      "chip": "ym2612"
    },
    {
      "channel": 3,
      "note": 80,
      "start": 65.0475,
      "duration": 0.0161,
      "velocity": 97,
      "chip": "ym2612"
    },
    {
      "channel": 2,
      "note": 49,
      "start": 65.0486,
      "duration": 0.0161,
      "velocity": 100,
      "chip": "ym2612"
    },
    {
      "channel": 1,
      "note": 37,
      "start": 65.0497,
      "duration": 0.0161,
      "velocity": 100,
      "chip": "ym2612"
    },
    {
      "channel": 0,
      "note": 39,
      "start": 65.0612,
      "duration": 0.0161,
      "velocity": 115,
      "chip": "ym2612"
    },
    {
      "channel": 4,
      "note": 77,
      "start": 65.0624,
      "duration": 0.0161,
      "velocity": 97,
      "chip": "ym2612"
    },
    {
      "channel": 3,
      "note": 80,
      "start": 65.0636,
      "duration": 0.0161,
      "velocity": 97,
      "chip": "ym2612"
    },
    {
      "channel": 2,
      "note": 49,
      "start": 65.0647,
      "duration": 0.0161,
      "velocity": 100,
      "chip": "ym2612"
    },
    {
      "channel": 1,
      "note": 37,
      "start": 65.0658,
      "duration": 0.0161,
      "velocity": 100,
      "chip": "ym2612"
    },
    {
      "channel": 0,
      "note": 39,
      "start": 65.0773,
      "duration": 0.0161,
      "velocity": 115,
      "chip": "ym2612"
    },
    {
      "channel": 4,
      "note": 77,
      "start": 65.0785,
      "duration": 0.0161,
      "velocity": 97,
      "chip": "ym2612"
    },
    {
      "channel": 3,
      "note": 80,
      "start": 65.0797,
      "duration": 0.0161,
      "velocity": 97,
      "chip": "ym2612"
    },
    {
      "channel": 2,
      "note": 49,
      "start": 65.0808,
      "duration": 0.0161,
      "velocity": 100,
      "chip": "ym2612"
    },
    {
      "channel": 1,
      "note": 37,
      "start": 65.0819,
      "duration": 0.0161,
      "velocity": 100,
      "chip": "ym2612"
    },
    {
      "channel": 0,
      "note": 40,
      "start": 65.0935,
      "duration": 0.0171,
      "velocity": 115,
      "chip": "ym2612"
    },
    {
      "channel": 4,
      "note": 77,
      "start": 65.0946,
      "duration": 0.0172,
      "velocity": 97,
      "chip": "ym2612"
    },
    {
      "channel": 3,
      "note": 80,
      "start": 65.0958,
      "duration": 0.0172,
      "velocity": 97,
      "chip": "ym2612"
    },
    {
      "channel": 2,
      "note": 49,
      "start": 65.0969,
      "duration": 0.0172,
      "velocity": 100,
      "chip": "ym2612"
    },
    {
      "channel": 1,
      "note": 37,
      "start": 65.0981,
      "duration": 0.0171,
      "velocity": 100,
      "chip": "ym2612"
    },
    {
      "channel": 0,
      "note": 40,
      "start": 65.1106,
      "duration": 0.0167,
      "velocity": 115,
      "chip": "ym2612"
    },
    {
      "channel": 4,
      "note": 77,
      "start": 65.1118,
      "duration": 0.0167,
      "velocity": 97,
      "chip": "ym2612"
    },
    {
      "channel": 3,
      "note": 80,
      "start": 65.113,
      "duration": 0.0167,
      "velocity": 97,
      "chip": "ym2612"
    },
    {
      "channel": 2,
      "note": 49,
      "start": 65.1141,
      "duration": 0.0167,
      "velocity": 100,
      "chip": "ym2612"
    },
    {
      "channel": 1,
      "note": 37,
      "start": 65.1152,
      "duration": 0.0167,
      "velocity": 100,
      "chip": "ym2612"
    },
    {
      "channel": 0,
      "note": 40,
      "start": 65.1273,
      "duration": 0.0163,
      "velocity": 115,
      "chip": "ym2612"
    },
    {
      "channel": 4,
      "note": 77,
      "start": 65.1285,
      "duration": 0.0163,
      "velocity": 97,
      "chip": "ym2612"
    },
    {
      "channel": 3,
      "note": 80,
      "start": 65.1296,
      "duration": 0.0163,
      "velocity": 97,
      "chip": "ym2612"
    },
    {
      "channel": 0,
      "note": 41,
      "start": 65.1436,
      "duration": 0.0146,
      "velocity": 115,
      "chip": "ym2612"
    },
    {
      "channel": 4,
      "note": 77,
      "start": 65.1448,
      "duration": 0.0146,
      "velocity": 97,
      "chip": "ym2612"
    },
    {
      "channel": 3,
      "note": 80,
      "start": 65.146,
      "duration": 0.0146,
      "velocity": 97,
      "chip": "ym2612"
    },
    {
      "channel": 0,
      "note": 41,
      "start": 65.1582,
      "duration": 0.0185,
      "velocity": 115,
      "chip": "ym2612"
    },
    {
      "channel": 4,
      "note": 77,
      "start": 65.1594,
      "duration": 0.0185,
      "velocity": 97,
      "chip": "ym2612"
    },
    {
      "channel": 3,
      "note": 80,
      "start": 65.1605,
      "duration": 0.0185,
      "velocity": 97,
      "chip": "ym2612"
    },
    {
      "channel": 2,
      "note": 56,
      "start": 65.162,
      "duration": 0.0183,
      "velocity": 100,
      "chip": "ym2612"
    },
    {
      "channel": 1,
      "note": 44,
      "start": 65.1634,
      "duration": 0.0181,
      "velocity": 100,
      "chip": "ym2612"
    },
    {
      "channel": 0,
      "note": 42,
      "start": 65.1767,
      "duration": 0.0161,
      "velocity": 115,
      "chip": "ym2612"
    },
    {
      "channel": 4,
      "note": 77,
      "start": 65.1779,
      "duration": 0.0161,
      "velocity": 97,
      "chip": "ym2612"
    },
    {
      "channel": 3,
      "note": 80,
      "start": 65.1791,
      "duration": 0.0161,
      "velocity": 97,
      "chip": "ym2612"
    },
    {
      "channel": 2,
      "note": 56,
      "start": 65.1803,
      "duration": 0.016,
      "velocity": 100,
      "chip": "ym2612"
    },
    {
      "channel": 1,
      "note": 44,
      "start": 65.1815,
      "duration": 0.016,
      "velocity": 100,
      "chip": "ym2612"
    },
    {
      "channel": 0,
      "note": 42,
      "start": 65.1928,
      "duration": 0.0157,
      "velocity": 115,
      "chip": "ym2612"
    },
    {
      "channel": 4,
      "note": 77,
      "start": 65.194,
      "duration": 0.0157,
      "velocity": 97,
      "chip": "ym2612"
    },
    {
      "channel": 3,
      "note": 80,
      "start": 65.1951,
      "duration": 0.0158,
      "velocity": 97,
      "chip": "ym2612"
    },
    {
      "channel": 2,
      "note": 56,
      "start": 65.1963,
      "duration": 0.0158,
      "velocity": 100,
      "chip": "ym2612"
    },
    {
      "channel": 1,
      "note": 44,
      "start": 65.1974,
      "duration": 0.0157,
      "velocity": 100,
      "chip": "ym2612"
    },
    {
      "channel": 0,
      "note": 43,
      "start": 65.2085,
      "duration": 0.0137,
      "velocity": 115,
      "chip": "ym2612"
    },
    {
      "channel": 4,
      "note": 77,
      "start": 65.2097,
      "duration": 0.0141,
      "velocity": 97,
      "chip": "ym2612"
    },
    {
      "channel": 3,
      "note": 80,
      "start": 65.2109,
      "duration": 0.0141,
      "velocity": 97,
      "chip": "ym2612"
    },
    {
      "channel": 2,
      "note": 56,
      "start": 65.2121,
      "duration": 0.014,
      "velocity": 100,
      "chip": "ym2612"
    },
    {
      "channel": 1,
      "note": 44,
      "start": 65.2132,
      "duration": 0.0141,
      "velocity": 100,
      "chip": "ym2612"
    },
    {
      "channel": 0,
      "note": 43,
      "start": 65.2222,
      "duration": 0.0161,
      "velocity": 115,
      "chip": "ym2612"
    },
    {
      "channel": 4,
      "note": 77,
      "start": 65.2238,
      "duration": 0.0185,
      "velocity": 97,
      "chip": "ym2612"
    },
    {
      "channel": 3,
      "note": 80,
      "start": 65.225,
      "duration": 0.0185,
      "velocity": 97,
      "chip": "ym2612"
    },
    {
      "channel": 2,
      "note": 56,
      "start": 65.2261,
      "duration": 0.0186,
      "velocity": 100,
      "chip": "ym2612"
    },
    {
      "channel": 1,
      "note": 44,
      "start": 65.2272,
      "duration": 0.0185,
      "velocity": 100,
      "chip": "ym2612"
    },
    {
      "channel": 0,
      "note": 44,
      "start": 65.2383,
      "duration": 0.0162,
      "velocity": 115,
      "chip": "ym2612"
    },
    {
      "channel": 4,
      "note": 77,
      "start": 65.2423,
      "duration": 0.0134,
      "velocity": 97,
      "chip": "ym2612"
    },
    {
      "channel": 3,
      "note": 80,
      "start": 65.2435,
      "duration": 0.0161,
      "velocity": 97,
      "chip": "ym2612"
    },
    {
      "channel": 2,
      "note": 56,
      "start": 65.2446,
      "duration": 0.0161,
      "velocity": 100,
      "chip": "ym2612"
    },
    {
      "channel": 1,
      "note": 44,
      "start": 65.2457,
      "duration": 0.0161,
      "velocity": 100,
      "chip": "ym2612"
    },
    {
      "channel": 0,
      "note": 44,
      "start": 65.2545,
      "duration": 0.0161,
      "velocity": 115,
      "chip": "ym2612"
    },
    {
      "channel": 4,
      "note": 77,
      "start": 65.2556,
      "duration": 0.0161,
      "velocity": 97,
      "chip": "ym2612"
    },
    {
      "channel": 3,
      "note": 80,
      "start": 65.2596,
      "duration": 0.0157,
      "velocity": 97,
      "chip": "ym2612"
    },
    {
      "channel": 2,
      "note": 56,
      "start": 65.2607,
      "duration": 0.0157,
      "velocity": 100,
      "chip": "ym2612"
    },
    {
      "channel": 1,
      "note": 44,
      "start": 65.2619,
      "duration": 0.0157,
      "velocity": 100,
      "chip": "ym2612"
    },
    {
      "channel": 0,
      "note": 44,
      "start": 65.2706,
      "duration": 0.0161,
      "velocity": 115,
      "chip": "ym2612"
    },
    {
      "channel": 4,
      "note": 77,
      "start": 65.2717,
      "duration": 0.0162,
      "velocity": 97,
      "chip": "ym2612"
    },
    {
      "channel": 3,
      "note": 80,
      "start": 65.2753,
      "duration": 0.0138,
      "velocity": 97,
      "chip": "ym2612"
    },
    {
      "channel": 2,
      "note": 56,
      "start": 65.2765,
      "duration": 0.0141,
      "velocity": 100,
      "chip": "ym2612"
    },
    {
      "channel": 1,
      "note": 44,
      "start": 65.2776,
      "duration": 0.0141,
      "velocity": 100,
      "chip": "ym2612"
    },
    {
      "channel": 0,
      "note": 45,
      "start": 65.2867,
      "duration": 0.0161,
      "velocity": 115,
      "chip": "ym2612"
    },
    {
      "channel": 4,
      "note": 77,
      "start": 65.2879,
      "duration": 0.0161,
      "velocity": 97,
      "chip": "ym2612"
    },
    {
      "channel": 3,
      "note": 80,
      "start": 65.2891,
      "duration": 0.016,
      "velocity": 97,
      "chip": "ym2612"
    },
    {
      "channel": 2,
      "note": 56,
      "start": 65.2905,
      "duration": 0.0185,
      "velocity": 100,
      "chip": "ym2612"
    },
    {
      "channel": 1,
      "note": 44,
      "start": 65.2917,
      "duration": 0.0185,
      "velocity": 100,
      "chip": "ym2612"
    },
    {
      "channel": 0,
      "note": 45,
      "start": 65.3028,
      "duration": 0.0161,
      "velocity": 115,
      "chip": "ym2612"
    },
    {
      "channel": 4,
      "note": 77,
      "start": 65.304,
      "duration": 0.0161,
      "velocity": 97,
      "chip": "ym2612"
    },
    {
      "channel": 3,
      "note": 80,
      "start": 65.3051,
      "duration": 0.0161,
      "velocity": 97,
      "chip": "ym2612"
    },
    {
      "channel": 2,
      "note": 56,
      "start": 65.309,
      "duration": 0.0134,
      "velocity": 100,
      "chip": "ym2612"
    },
    {
      "channel": 1,
      "note": 44,
      "start": 65.3102,
      "duration": 0.0161,
      "velocity": 100,
      "chip": "ym2612"
    },
    {
      "channel": 0,
      "note": 46,
      "start": 65.3189,
      "duration": 0.0161,
      "velocity": 115,
      "chip": "ym2612"
    },
    {
      "channel": 4,
      "note": 77,
      "start": 65.3201,
      "duration": 0.0161,
      "velocity": 97,
      "chip": "ym2612"
    },
    {
      "channel": 3,
      "note": 80,
      "start": 65.3212,
      "duration": 0.0161,
      "velocity": 97,
      "chip": "ym2612"
    },
    {
      "channel": 0,
      "note": 46,
      "start": 65.335,
      "duration": 0.0195,
      "velocity": 115,
      "chip": "ym2612"
    },
    {
      "channel": 4,
      "note": 77,
      "start": 65.3362,
      "duration": 0.0195,
      "velocity": 97,
      "chip": "ym2612"
    },
    {
      "channel": 3,
      "note": 80,
      "start": 65.3373,
      "duration": 0.0199,
      "velocity": 97,
      "chip": "ym2612"
    },
    {
      "channel": 1,
      "note": 78,
      "start": 65.3528,
      "duration": 0.0144,
      "velocity": 124,
      "chip": "ym2612"
    },
    {
      "channel": 0,
      "note": 47,
      "start": 65.3545,
      "duration": 0.0144,
      "velocity": 115,
      "chip": "ym2612"
    },
    {
      "channel": 4,
      "note": 77,
      "start": 65.3557,
      "duration": 0.0144,
      "velocity": 97,
      "chip": "ym2612"
    },
    {
      "channel": 3,
      "note": 80,
      "start": 65.3572,
      "duration": 0.014,
      "velocity": 97,
      "chip": "ym2612"
    },
    {
      "channel": 2,
      "note": 61,
      "start": 65.3586,
      "duration": 0.0138,
      "velocity": 100,
      "chip": "ym2612"
    },
    {
      "channel": 1,
      "note": 76,
      "start": 65.3672,
      "duration": 0.016,
      "velocity": 124,
      "chip": "ym2612"
    },
    {
      "channel": 0,
      "note": 47,
      "start": 65.3689,
      "duration": 0.016,
      "velocity": 115,
      "chip": "ym2612"
    },
    {
      "channel": 4,
      "note": 77,
      "start": 65.3701,
      "duration": 0.016,
      "velocity": 97,
      "chip": "ym2612"
    },
    {
      "channel": 3,
      "note": 80,
      "start": 65.3712,
      "duration": 0.0161,
      "velocity": 97,
      "chip": "ym2612"
    },
    {
      "channel": 2,
      "note": 61,
      "start": 65.3724,
      "duration": 0.016,
      "velocity": 100,
      "chip": "ym2612"
    },
    {
      "channel": 1,
      "note": 75,
      "start": 65.3832,
      "duration": 0.0161,
      "velocity": 124,
      "chip": "ym2612"
    },
    {
      "channel": 0,
      "note": 47,
      "start": 65.3849,
      "duration": 0.0161,
      "velocity": 115,
      "chip": "ym2612"
    },
    {
      "channel": 4,
      "note": 77,
      "start": 65.3861,
      "duration": 0.0161,
      "velocity": 97,
      "chip": "ym2612"
    },
    {
      "channel": 3,
      "note": 80,
      "start": 65.3873,
      "duration": 0.0161,
      "velocity": 97,
      "chip": "ym2612"
    },
    {
      "channel": 2,
      "note": 61,
      "start": 65.3884,
      "duration": 0.0161,
      "velocity": 100,
      "chip": "ym2612"
    },
    {
      "channel": 1,
      "note": 74,
      "start": 65.3993,
      "duration": 0.0161,
      "velocity": 124,
      "chip": "ym2612"
    },
    {
      "channel": 0,
      "note": 48,
      "start": 65.401,
      "duration": 0.0162,
      "velocity": 115,
      "chip": "ym2612"
    },
    {
      "channel": 4,
      "note": 77,
      "start": 65.4022,
      "duration": 0.0161,
      "velocity": 97,
      "chip": "ym2612"
    },
    {
      "channel": 3,
      "note": 80,
      "start": 65.4034,
      "duration": 0.0161,
      "velocity": 97,
      "chip": "ym2612"
    },
    {
      "channel": 2,
      "note": 61,
      "start": 65.4045,
      "duration": 0.0161,
      "velocity": 100,
      "chip": "ym2612"
    },
    {
      "channel": 1,
      "note": 72,
      "start": 65.4154,
      "duration": 0.0161,
      "velocity": 124,
      "chip": "ym2612"
    },
    {
      "channel": 0,
      "note": 48,
      "start": 65.4172,
      "duration": 0.0161,
      "velocity": 115,
      "chip": "ym2612"
    },
    {
      "channel": 4,
      "note": 77,
      "start": 65.4184,
      "duration": 0.016,
      "velocity": 97,
      "chip": "ym2612"
    },
    {
      "channel": 3,
      "note": 80,
      "start": 65.4195,
      "duration": 0.0161,
      "velocity": 97,
      "chip": "ym2612"
    },
    {
      "channel": 2,
      "note": 61,
      "start": 65.4207,
      "duration": 0.0161,
      "velocity": 100,
      "chip": "ym2612"
    },
    {
      "channel": 1,
      "note": 71,
      "start": 65.4315,
      "duration": 0.0162,
      "velocity": 124,
      "chip": "ym2612"
    },
    {
      "channel": 0,
      "note": 49,
      "start": 65.4333,
      "duration": 0.0153,
      "velocity": 1,
      "chip": "ym2612"
    },
    {
      "channel": 4,
      "note": 77,
      "start": 65.4344,
      "duration": 0.0153,
      "velocity": 97,
      "chip": "ym2612"
    },
    {
      "channel": 3,
      "note": 80,
      "start": 65.4356,
      "duration": 0.0153,
      "velocity": 97,
      "chip": "ym2612"
    },
    {
      "channel": 2,
      "note": 61,
      "start": 65.4368,
      "duration": 0.0153,
      "velocity": 100,
      "chip": "ym2612"
    },
    {
      "channel": 1,
      "note": 70,
      "start": 65.4476,
      "duration": 0.0161,
      "velocity": 124,
      "chip": "ym2612"
    },
    {
      "channel": 4,
      "note": 77,
      "start": 65.4497,
      "duration": 0.0153,
      "velocity": 97,
      "chip": "ym2612"
    },
    {
      "channel": 3,
      "note": 80,
      "start": 65.4509,
      "duration": 0.0153,
      "velocity": 97,
      "chip": "ym2612"
    },
    {
      "channel": 2,
      "note": 61,
      "start": 65.452,
      "duration": 0.0153,
      "velocity": 100,
      "chip": "ym2612"
    },
    {
      "channel": 1,
      "note": 69,
      "start": 65.4637,
      "duration": 0.0161,
      "velocity": 124,
      "chip": "ym2612"
    },
    {
      "channel": 4,
      "note": 77,
      "start": 65.465,
      "duration": 0.0161,
      "velocity": 97,
      "chip": "ym2612"
    },
    {
      "channel": 3,
      "note": 80,
      "start": 65.4661,
      "duration": 0.0161,
      "velocity": 97,
      "chip": "ym2612"
    },
    {
      "channel": 2,
      "note": 61,
      "start": 65.4673,
      "duration": 0.0161,
      "velocity": 100,
      "chip": "ym2612"
    },
    {
      "channel": 1,
      "note": 68,
      "start": 65.4798,
      "duration": 0.0161,
      "velocity": 124,
      "chip": "ym2612"
    },
    {
      "channel": 4,
      "note": 77,
      "start": 65.4811,
      "duration": 0.0161,
      "velocity": 97,
      "chip": "ym2612"
    },
    {
      "channel": 3,
      "note": 80,
      "start": 65.4822,
      "duration": 0.0161,
      "velocity": 97,
      "chip": "ym2612"
    },
    {
      "channel": 2,
      "note": 61,
      "start": 65.4834,
      "duration": 0.0161,
      "velocity": 100,
      "chip": "ym2612"
    },
    {
      "channel": 1,
      "note": 66,
      "start": 65.4959,
      "duration": 0.0161,
      "velocity": 124,
      "chip": "ym2612"
    },
    {
      "channel": 4,
      "note": 77,
      "start": 65.4972,
      "duration": 0.0161,
      "velocity": 97,
      "chip": "ym2612"
    },
    {
      "channel": 3,
      "note": 80,
      "start": 65.4983,
      "duration": 0.0161,
      "velocity": 97,
      "chip": "ym2612"
    },
    {
      "channel": 2,
      "note": 61,
      "start": 65.4995,
      "duration": 0.0161,
      "velocity": 100,
      "chip": "ym2612"
    },
    {
      "channel": 1,
      "note": 65,
      "start": 65.512,
      "duration": 0.0161,
      "velocity": 124,
      "chip": "ym2612"
    },
    {
      "channel": 4,
      "note": 77,
      "start": 65.5133,
      "duration": 0.0161,
      "velocity": 97,
      "chip": "ym2612"
    },
    {
      "channel": 3,
      "note": 80,
      "start": 65.5144,
      "duration": 0.0161,
      "velocity": 97,
      "chip": "ym2612"
    },
    {
      "channel": 1,
      "note": 64,
      "start": 65.5281,
      "duration": 0.0161,
      "velocity": 124,
      "chip": "ym2612"
    },
    {
      "channel": 4,
      "note": 77,
      "start": 65.5294,
      "duration": 0.0196,
      "velocity": 97,
      "chip": "ym2612"
    },
    {
      "channel": 3,
      "note": 80,
      "start": 65.5305,
      "duration": 0.0197,
      "velocity": 97,
      "chip": "ym2612"
    },
    {
      "channel": 1,
      "note": 62,
      "start": 65.5442,
      "duration": 0.0161,
      "velocity": 124,
      "chip": "ym2612"
    },
    {
      "channel": 0,
      "note": 36,
      "start": 65.5478,
      "duration": 0.0144,
      "velocity": 115,
      "chip": "ym2612"
    },
    {
      "channel": 4,
      "note": 77,
      "start": 65.549,
      "duration": 0.0143,
      "velocity": 97,
      "chip": "ym2612"
    },
    {
      "channel": 3,
      "note": 80,
      "start": 65.5502,
      "duration": 0.0143,
      "velocity": 97,
      "chip": "ym2612"
    },
    {
      "channel": 2,
      "note": 59,
      "start": 65.5515,
      "duration": 0.0141,
      "velocity": 100,
      "chip": "ym2612"
    },
    {
      "channel": 1,
      "note": 61,
      "start": 65.5603,
      "duration": 0.0169,
      "velocity": 124,
      "chip": "ym2612"
    },
    {
      "channel": 0,
      "note": 36,
      "start": 65.5621,
      "duration": 0.0168,
      "velocity": 115,
      "chip": "ym2612"
    },
    {
      "channel": 4,
      "note": 77,
      "start": 65.5633,
      "duration": 0.0168,
      "velocity": 97,
      "chip": "ym2612"
    },
    {
      "channel": 3,
      "note": 80,
      "start": 65.5645,
      "duration": 0.0168,
      "velocity": 97,
      "chip": "ym2612"
    },
    {
      "channel": 2,
      "note": 59,
      "start": 65.5656,
      "duration": 0.0168,
      "velocity": 100,
      "chip": "ym2612"
    },
    {
      "channel": 1,
      "note": 60,
      "start": 65.5772,
      "duration": 0.0167,
      "velocity": 124,
      "chip": "ym2612"
    },
    {
      "channel": 0,
      "note": 37,
      "start": 65.5789,
      "duration": 0.0167,
      "velocity": 115,
      "chip": "ym2612"
    },
    {
      "channel": 4,
      "note": 77,
      "start": 65.5801,
      "duration": 0.0167,
      "velocity": 97,
      "chip": "ym2612"
    },
    {
      "channel": 3,
      "note": 80,
      "start": 65.5813,
      "duration": 0.0167,
      "velocity": 97,
      "chip": "ym2612"
    },
    {
      "channel": 2,
      "note": 59,
      "start": 65.5824,
      "duration": 0.0167,
      "velocity": 100,
      "chip": "ym2612"
    },
    {
      "channel": 1,
      "note": 59,
      "start": 65.5939,
      "duration": 0.0163,
      "velocity": 124,
      "chip": "ym2612"
    },
    {
      "channel": 0,
      "note": 37,
      "start": 65.5957,
      "duration": 0.0163,
      "velocity": 115,
      "chip": "ym2612"
    },
    {
      "channel": 4,
      "note": 77,
      "start": 65.5968,
      "duration": 0.0163,
      "velocity": 97,
      "chip": "ym2612"
    },
    {
      "channel": 3,
      "note": 80,
      "start": 65.598,
      "duration": 0.0163,
      "velocity": 97,
      "chip": "ym2612"
    },
    {
      "channel": 2,
      "note": 59,
      "start": 65.5992,
      "duration": 0.0163,
      "velocity": 100,
      "chip": "ym2612"
    },
    {
      "channel": 1,
      "note": 57,
      "start": 65.6102,
      "duration": 0.0146,
      "velocity": 124,
      "chip": "ym2612"
    },
    {
      "channel": 0,
      "note": 38,
      "start": 65.612,
      "duration": 0.0147,
      "velocity": 115,
      "chip": "ym2612"
    },
    {
      "channel": 4,
      "note": 77,
      "start": 65.6132,
      "duration": 0.0146,
      "velocity": 97,
      "chip": "ym2612"
    },
    {
      "channel": 3,
      "note": 80,
      "start": 65.6143,
      "duration": 0.0147,
      "velocity": 97,
      "chip": "ym2612"
    },
    {
      "channel": 2,
      "note": 59,
      "start": 65.6154,
      "duration": 0.0147,
      "velocity": 100,
      "chip": "ym2612"
    },
    {
      "channel": 1,
      "note": 56,
      "start": 65.6249,
      "duration": 0.0187,
      "velocity": 124,
      "chip": "ym2612"
    },
    {
      "channel": 0,
      "note": 38,
      "start": 65.6266,
      "duration": 0.0186,
      "velocity": 115,
      "chip": "ym2612"
    },
    {
      "channel": 4,
      "note": 77,
      "start": 65.6278,
      "duration": 0.0187,
      "velocity": 97,
      "chip": "ym2612"
    },
    {
      "channel": 3,
      "note": 80,
      "start": 65.629,
      "duration": 0.0186,
      "velocity": 97,
      "chip": "ym2612"
    },
    {
      "channel": 2,
      "note": 59,
      "start": 65.6301,
      "duration": 0.0186,
      "velocity": 100,
      "chip": "ym2612"
    },
    {
      "channel": 1,
      "note": 55,
      "start": 65.6436,
      "duration": 0.0161,
      "velocity": 124,
      "chip": "ym2612"
    },
    {
      "channel": 0,
      "note": 39,
      "start": 65.6453,
      "duration": 0.0161,
      "velocity": 115,
      "chip": "ym2612"
    },
    {
      "channel": 4,
      "note": 77,
      "start": 65.6465,
      "duration": 0.0161,
      "velocity": 97,
      "chip": "ym2612"
    },
    {
      "channel": 3,
      "note": 80,
      "start": 65.6476,
      "duration": 0.0161,
      "velocity": 97,
      "chip": "ym2612"
    },
    {
      "channel": 2,
      "note": 59,
      "start": 65.6488,
      "duration": 0.0161,
      "velocity": 100,
      "chip": "ym2612"
    },
    {
      "channel": 1,
      "note": 53,
      "start": 65.6597,
      "duration": 0.0158,
      "velocity": 124,
      "chip": "ym2612"
    },
    {
      "channel": 0,
      "note": 39,
      "start": 65.6614,
      "duration": 0.0158,
      "velocity": 115,
      "chip": "ym2612"
    },
    {
      "channel": 4,
      "note": 77,
      "start": 65.6626,
      "duration": 0.0158,
      "velocity": 97,
      "chip": "ym2612"
    },
    {
      "channel": 3,
      "note": 80,
      "start": 65.6637,
      "duration": 0.0159,
      "velocity": 97,
      "chip": "ym2612"
    },
    {
      "channel": 2,
      "note": 59,
      "start": 65.6649,
      "duration": 0.0158,
      "velocity": 100,
      "chip": "ym2612"
    },
    {
      "channel": 1,
      "note": 52,
      "start": 65.6754,
      "duration": 0.0137,
      "velocity": 124,
      "chip": "ym2612"
    },
    {
      "channel": 0,
      "note": 40,
      "start": 65.6771,
      "duration": 0.014,
      "velocity": 115,
      "chip": "ym2612"
    },
    {
      "channel": 4,
      "note": 77,
      "start": 65.6784,
      "duration": 0.014,
      "velocity": 97,
      "chip": "ym2612"
    },
    {
      "channel": 3,
      "note": 80,
      "start": 65.6796,
      "duration": 0.014,
      "velocity": 97,
      "chip": "ym2612"
    },
    {
      "channel": 2,
      "note": 59,
      "start": 65.6807,
      "duration": 0.014,
      "velocity": 100,
      "chip": "ym2612"
    },
    {
      "channel": 1,
      "note": 51,
      "start": 65.6891,
      "duration": 0.0153,
      "velocity": 1,
      "chip": "ym2612"
    },
    {
      "channel": 0,
      "note": 40,
      "start": 65.6912,
      "duration": 0.0177,
      "velocity": 115,
      "chip": "ym2612"
    },
    {
      "channel": 4,
      "note": 77,
      "start": 65.6924,
      "duration": 0.0178,
      "velocity": 97,
      "chip": "ym2612"
    },
    {
      "channel": 3,
      "note": 80,
      "start": 65.6936,
      "duration": 0.0177,
      "velocity": 97,
      "chip": "ym2612"
    },
    {
      "channel": 2,
      "note": 59,
      "start": 65.6946,
      "duration": 0.0178,
      "velocity": 100,
      "chip": "ym2612"
    },
    {
      "channel": 0,
      "note": 40,
      "start": 65.7089,
      "duration": 0.0125,
      "velocity": 115,
      "chip": "ym2612"
    },
    {
      "channel": 4,
      "note": 77,
      "start": 65.7101,
      "duration": 0.0152,
      "velocity": 97,
      "chip": "ym2612"
    },
    {
      "channel": 3,
      "note": 80,
      "start": 65.7112,
      "duration": 0.0153,
      "velocity": 97,
      "chip": "ym2612"
    },
    {
      "channel": 0,
      "note": 41,
      "start": 65.7214,
      "duration": 0.0161,
      "velocity": 115,
      "chip": "ym2612"
    },
    {
      "channel": 4,
      "note": 77,
      "start": 65.7253,
      "duration": 0.0134,
      "velocity": 97,
      "chip": "ym2612"
    },
    {
      "channel": 3,
      "note": 80,
      "start": 65.7265,
      "duration": 0.0158,
      "velocity": 97,
      "chip": "ym2612"
    },
    {
      "channel": 0,
      "note": 41,
      "start": 65.7375,
      "duration": 0.0161,
      "velocity": 115,
      "chip": "ym2612"
    },
    {
      "channel": 4,
      "note": 77,
      "start": 65.7387,
      "duration": 0.0161,
      "velocity": 97,
      "chip": "ym2612"
    },
    {
      "channel": 3,
      "note": 80,
      "start": 65.7423,
      "duration": 0.0138,
      "velocity": 97,
      "chip": "ym2612"
    },
    {
      "channel": 0,
      "note": 42,
      "start": 65.7536,
      "duration": 0.0161,
      "velocity": 115,
      "chip": "ym2612"
    },
    {
      "channel": 4,
      "note": 77,
      "start": 65.7548,
      "duration": 0.0161,
      "velocity": 97,
      "chip": "ym2612"
    },
    {
      "channel": 3,
      "note": 80,
      "start": 65.7561,
      "duration": 0.016,
      "velocity": 97,
      "chip": "ym2612"
    },
    {
      "channel": 0,
      "note": 42,
      "start": 65.7697,
      "duration": 0.0161,
      "velocity": 115,
      "chip": "ym2612"
    },
    {
      "channel": 4,
      "note": 77,
      "start": 65.7709,
      "duration": 0.0161,
      "velocity": 97,
      "chip": "ym2612"
    },
    {
      "channel": 3,
      "note": 80,
      "start": 65.7721,
      "duration": 0.0161,
      "velocity": 97,
      "chip": "ym2612"
    },
    {
      "channel": 0,
      "note": 43,
      "start": 65.7858,
      "duration": 0.0161,
      "velocity": 115,
      "chip": "ym2612"
    },
    {
      "channel": 4,
      "note": 77,
      "start": 65.787,
      "duration": 0.0161,
      "velocity": 97,
      "chip": "ym2612"
    },
    {
      "channel": 3,
      "note": 80,
      "start": 65.7882,
      "duration": 0.0161,
      "velocity": 97,
      "chip": "ym2612"
    },
    {
      "channel": 0,
      "note": 43,
      "start": 65.8019,
      "duration": 0.0161,
      "velocity": 115,
      "chip": "ym2612"
    },
    {
      "channel": 4,
      "note": 77,
      "start": 65.8031,
      "duration": 0.0161,
      "velocity": 97,
      "chip": "ym2612"
    },
    {
      "channel": 3,
      "note": 80,
      "start": 65.8043,
      "duration": 0.016,
      "velocity": 97,
      "chip": "ym2612"
    },
    {
      "channel": 0,
      "note": 44,
      "start": 65.818,
      "duration": 0.0162,
      "velocity": 115,
      "chip": "ym2612"
    },
    {
      "channel": 4,
      "note": 77,
      "start": 65.8192,
      "duration": 0.0161,
      "velocity": 97,
      "chip": "ym2612"
    },
    {
      "channel": 3,
      "note": 80,
      "start": 65.8203,
      "duration": 0.0162,
      "velocity": 97,
      "chip": "ym2612"
    },
    {
      "channel": 0,
      "note": 44,
      "start": 65.8341,
      "duration": 0.0161,
      "velocity": 115,
      "chip": "ym2612"
    },
    {
      "channel": 4,
      "note": 77,
      "start": 65.8353,
      "duration": 0.0161,
      "velocity": 97,
      "chip": "ym2612"
    },
    {
      "channel": 3,
      "note": 80,
      "start": 65.8365,
      "duration": 0.0161,
      "velocity": 97,
      "chip": "ym2612"
    },
    {
      "channel": 0,
      "note": 44,
      "start": 65.8502,
      "duration": 0.0161,
      "velocity": 115,
      "chip": "ym2612"
    },
    {
      "channel": 4,
      "note": 77,
      "start": 65.8514,
      "duration": 0.0162,
      "velocity": 97,
      "chip": "ym2612"
    },
    {
      "channel": 3,
      "note": 80,
      "start": 65.8526,
      "duration": 0.0161,
      "velocity": 97,
      "chip": "ym2612"
    },
    {
      "channel": 0,
      "note": 45,
      "start": 65.8663,
      "duration": 0.0161,
      "velocity": 115,
      "chip": "ym2612"
    },
    {
      "channel": 4,
      "note": 77,
      "start": 65.8676,
      "duration": 0.0161,
      "velocity": 97,
      "chip": "ym2612"
    },
    {
      "channel": 3,
      "note": 80,
      "start": 65.8687,
      "duration": 0.0161,
      "velocity": 97,
      "chip": "ym2612"
    },
    {
      "channel": 0,
      "note": 45,
      "start": 65.8824,
      "duration": 0.0161,
      "velocity": 115,
      "chip": "ym2612"
    },
    {
      "channel": 4,
      "note": 77,
      "start": 65.8837,
      "duration": 0.0161,
      "velocity": 97,
      "chip": "ym2612"
    },
    {
      "channel": 3,
      "note": 80,
      "start": 65.8848,
      "duration": 0.0161,
      "velocity": 97,
      "chip": "ym2612"
    },
    {
      "channel": 0,
      "note": 46,
      "start": 65.8985,
      "duration": 0.0161,
      "velocity": 115,
      "chip": "ym2612"
    },
    {
      "channel": 4,
      "note": 77,
      "start": 65.8997,
      "duration": 0.0161,
      "velocity": 97,
      "chip": "ym2612"
    },
    {
      "channel": 3,
      "note": 80,
      "start": 65.9009,
      "duration": 0.0161,
      "velocity": 97,
      "chip": "ym2612"
    },
    {
      "channel": 0,
      "note": 46,
      "start": 65.9146,
      "duration": 0.0179,
      "velocity": 115,
      "chip": "ym2612"
    },
    {
      "channel": 4,
      "note": 77,
      "start": 65.9158,
      "duration": 0.0179,
      "velocity": 97,
      "chip": "ym2612"
    },
    {
      "channel": 3,
      "note": 80,
      "start": 65.917,
      "duration": 0.0179,
      "velocity": 97,
      "chip": "ym2612"
    },
    {
      "channel": 0,
      "note": 36,
      "start": 65.9325,
      "duration": 0.0144,
      "velocity": 115,
      "chip": "ym2612"
    },
    {
      "channel": 4,
      "note": 77,
      "start": 65.9337,
      "duration": 0.0144,
      "velocity": 97,
      "chip": "ym2612"
    },
    {
      "channel": 3,
      "note": 80,
      "start": 65.9349,
      "duration": 0.0143,
      "velocity": 97,
      "chip": "ym2612"
    },
    {
      "channel": 2,
      "note": 61,
      "start": 65.9363,
      "duration": 0.0141,
      "velocity": 100,
      "chip": "ym2612"
    },
    {
      "channel": 1,
      "note": 49,
      "start": 65.9377,
      "duration": 0.0139,
      "velocity": 100,
      "chip": "ym2612"
    },
    {
      "channel": 0,
      "note": 36,
      "start": 65.9469,
      "duration": 0.016,
      "velocity": 115,
      "chip": "ym2612"
    },
    {
      "channel": 4,
      "note": 77,
      "start": 65.9481,
      "duration": 0.016,
      "velocity": 97,
      "chip": "ym2612"
    },
    {
      "channel": 3,
      "note": 80,
      "start": 65.9492,
      "duration": 0.016,
      "velocity": 97,
      "chip": "ym2612"
    },
    {
      "channel": 2,
      "note": 61,
      "start": 65.9504,
      "duration": 0.016,
      "velocity": 100,
      "chip": "ym2612"
    },
    {
      "channel": 1,
      "note": 49,
      "start": 65.9516,
      "duration": 0.016,
      "velocity": 100,
      "chip": "ym2612"
    },
    {
      "channel": 0,
      "note": 37,
      "start": 65.9629,
      "duration": 0.0161,
      "velocity": 115,
      "chip": "ym2612"
    },
    {
      "channel": 4,
      "note": 77,
      "start": 65.9641,
      "duration": 0.0161,
      "velocity": 97,
      "chip": "ym2612"
    },
    {
      "channel": 3,
      "note": 80,
      "start": 65.9653,
      "duration": 0.0161,
      "velocity": 97,
      "chip": "ym2612"
    },
    {
      "channel": 2,
      "note": 61,
      "start": 65.9664,
      "duration": 0.0161,
      "velocity": 100,
      "chip": "ym2612"
    },
    {
      "channel": 1,
      "note": 49,
      "start": 65.9676,
      "duration": 0.0161,
      "velocity": 100,
      "chip": "ym2612"
    },
    {
      "channel": 0,
      "note": 37,
      "start": 65.979,
      "duration": 0.0161,
      "velocity": 115,
      "chip": "ym2612"
    },
    {
      "channel": 4,
      "note": 77,
      "start": 65.9802,
      "duration": 0.0161,
      "velocity": 97,
      "chip": "ym2612"
    },
    {
      "channel": 3,
      "note": 80,
      "start": 65.9814,
      "duration": 0.0161,
      "velocity": 97,
      "chip": "ym2612"
    },
    {
      "channel": 2,
      "note": 61,
      "start": 65.9825,
      "duration": 0.0162,
      "velocity": 100,
      "chip": "ym2612"
    },
    {
      "channel": 1,
      "note": 49,
      "start": 65.9837,
      "duration": 0.0161,
      "velocity": 100,
      "chip": "ym2612"
    },
    {
      "channel": 0,
      "note": 38,
      "start": 65.9951,
      "duration": 0.0161,
      "velocity": 115,
      "chip": "ym2612"
    },
    {
      "channel": 4,
      "note": 77,
      "start": 65.9963,
      "duration": 0.0161,
      "velocity": 97,
      "chip": "ym2612"
    },
    {
      "channel": 3,
      "note": 80,
      "start": 65.9975,
      "duration": 0.0161,
      "velocity": 97,
      "chip": "ym2612"
    },
    {
      "channel": 2,
      "note": 61,
      "start": 65.9987,
      "duration": 0.0161,
      "velocity": 100,
      "chip": "ym2612"
    },
    {
      "channel": 1,
      "note": 49,
      "start": 65.9997,
      "duration": 0.0161,
      "velocity": 100,
      "chip": "ym2612"
    },
    {
      "channel": 0,
      "note": 38,
      "start": 66.0112,
      "duration": 0.0161,
      "velocity": 115,
      "chip": "ym2612"
    },
    {
      "channel": 4,
      "note": 77,
      "start": 66.0124,
      "duration": 0.0161,
      "velocity": 97,
      "chip": "ym2612"
    },
    {
      "channel": 3,
      "note": 80,
      "start": 66.0136,
      "duration": 0.0161,
      "velocity": 97,
      "chip": "ym2612"
    },
    {
      "channel": 2,
      "note": 61,
      "start": 66.0147,
      "duration": 0.0161,
      "velocity": 100,
      "chip": "ym2612"
    },
    {
      "channel": 1,
      "note": 49,
      "start": 66.0158,
      "duration": 0.0162,
      "velocity": 100,
      "chip": "ym2612"
    },
    {
      "channel": 0,
      "note": 39,
      "start": 66.0273,
      "duration": 0.0167,
      "velocity": 115,
      "chip": "ym2612"
    },
    {
      "channel": 4,
      "note": 77,
      "start": 66.0285,
      "duration": 0.0166,
      "velocity": 97,
      "chip": "ym2612"
    },
    {
      "channel": 3,
      "note": 80,
      "start": 66.0297,
      "duration": 0.0167,
      "velocity": 97,
      "chip": "ym2612"
    },
    {
      "channel": 2,
      "note": 61,
      "start": 66.0308,
      "duration": 0.0167,
      "velocity": 100,
      "chip": "ym2612"
    },
    {
      "channel": 1,
      "note": 49,
      "start": 66.032,
      "duration": 0.0166,
      "velocity": 100,
      "chip": "ym2612"
    },
    {
      "channel": 0,
      "note": 39,
      "start": 66.044,
      "duration": 0.0167,
      "velocity": 115,
      "chip": "ym2612"
    },
    {
      "channel": 4,
      "note": 77,
      "start": 66.0451,
      "duration": 0.0167,
      "velocity": 97,
      "chip": "ym2612"
    },
    {
      "channel": 3,
      "note": 80,
      "start": 66.0464,
      "duration": 0.0167,
      "velocity": 97,
      "chip": "ym2612"
    },
    {
      "channel": 2,
      "note": 61,
      "start": 66.0475,
      "duration": 0.0167,
      "velocity": 100,
      "chip": "ym2612"
    },
    {
      "channel": 1,
      "note": 49,
      "start": 66.0486,
      "duration": 0.0167,
      "velocity": 100,
      "chip": "ym2612"
    },
    {
      "channel": 0,
      "note": 40,
      "start": 66.0607,
      "duration": 0.0163,
      "velocity": 115,
      "chip": "ym2612"
    },
    {
      "channel": 4,
      "note": 77,
      "start": 66.0619,
      "duration": 0.0163,
      "velocity": 97,
      "chip": "ym2612"
    },
    {
      "channel": 3,
      "note": 80,
      "start": 66.063,
      "duration": 0.0163,
      "velocity": 97,
      "chip": "ym2612"
    },
    {
      "channel": 2,
      "note": 61,
      "start": 66.0642,
      "duration": 0.0163,
      "velocity": 100,
      "chip": "ym2612"
    },
    {
      "channel": 1,
      "note": 49,
      "start": 66.0653,
      "duration": 0.0163,
      "velocity": 100,
      "chip": "ym2612"
    },
    {
      "channel": 0,
      "note": 40,
      "start": 66.077,
      "duration": 0.0148,
      "velocity": 115,
      "chip": "ym2612"
    },
    {
      "channel": 4,
      "note": 77,
      "start": 66.0782,
      "duration": 0.0148,
      "velocity": 97,
      "chip": "ym2612"
    },
    {
      "channel": 3,
      "note": 80,
      "start": 66.0793,
      "duration": 0.0148,
      "velocity": 97,
      "chip": "ym2612"
    },
    {
      "channel": 2,
      "note": 61,
      "start": 66.0805,
      "duration": 0.0148,
      "velocity": 100,
      "chip": "ym2612"
    },
    {
      "channel": 1,
      "note": 49,
      "start": 66.0816,
      "duration": 0.0148,
      "velocity": 100,
      "chip": "ym2612"
    },
    {
      "channel": 0,
      "note": 40,
      "start": 66.0917,
      "duration": 0.0189,
      "velocity": 115,
      "chip": "ym2612"
    },
    {
      "channel": 4,
      "note": 77,
      "start": 66.0929,
      "duration": 0.0188,
      "velocity": 97,
      "chip": "ym2612"
    },
    {
      "channel": 3,
      "note": 80,
      "start": 66.0941,
      "duration": 0.0189,
      "velocity": 97,
      "chip": "ym2612"
    },
    {
      "channel": 0,
      "note": 41,
      "start": 66.1106,
      "duration": 0.0195,
      "velocity": 115,
      "chip": "ym2612"
    },
    {
      "channel": 4,
      "note": 77,
      "start": 66.1118,
      "duration": 0.0196,
      "velocity": 97,
      "chip": "ym2612"
    },
    {
      "channel": 3,
      "note": 80,
      "start": 66.113,
      "duration": 0.0195,
      "velocity": 97,
      "chip": "ym2612"
    },
    {
      "channel": 1,
      "note": 78,
      "start": 66.1284,
      "duration": 0.014,
      "velocity": 124,
      "chip": "ym2612"
    },
    {
      "channel": 0,
      "note": 41,
      "start": 66.1301,
      "duration": 0.014,
      "velocity": 115,
      "chip": "ym2612"
    },
    {
      "channel": 4,
      "note": 77,
      "start": 66.1314,
      "duration": 0.014,
      "velocity": 97,
      "chip": "ym2612"
    },
    {
      "channel": 3,
      "note": 80,
      "start": 66.1325,
      "duration": 0.014,
      "velocity": 97,
      "chip": "ym2612"
    },
    {
      "channel": 2,
      "note": 59,
      "start": 66.1339,
      "duration": 0.0138,
      "velocity": 100,
      "chip": "ym2612"
    },
    {
      "channel": 1,
      "note": 76,
      "start": 66.1424,
      "duration": 0.0139,
      "velocity": 124,
      "chip": "ym2612"
    },
    {
      "channel": 0,
      "note": 42,
      "start": 66.1441,
      "duration": 0.014,
      "velocity": 115,
      "chip": "ym2612"
    },
    {
      "channel": 4,
      "note": 77,
      "start": 66.1454,
      "duration": 0.014,
      "velocity": 97,
      "chip": "ym2612"
    },
    {
      "channel": 3,
      "note": 80,
      "start": 66.1465,
      "duration": 0.014,
      "velocity": 97,
      "chip": "ym2612"
    },
    {
      "channel": 2,
      "note": 59,
      "start": 66.1477,
      "duration": 0.0139,
      "velocity": 100,
      "chip": "ym2612"
    },
    {
      "channel": 1,
      "note": 75,
      "start": 66.1563,
      "duration": 0.0158,
      "velocity": 124,
      "chip": "ym2612"
    },
    {
      "channel": 0,
      "note": 42,
      "start": 66.1581,
      "duration": 0.0185,
      "velocity": 115,
      "chip": "ym2612"
    },
    {
      "channel": 4,
      "note": 77,
      "start": 66.1593,
      "duration": 0.0185,
      "velocity": 97,
      "chip": "ym2612"
    },
    {
      "channel": 3,
      "note": 80,
      "start": 66.1605,
      "duration": 0.0185,
      "velocity": 97,
      "chip": "ym2612"
    },
    {
      "channel": 2,
      "note": 59,
      "start": 66.1616,
      "duration": 0.0185,
      "velocity": 100,
      "chip": "ym2612"
    },
    {
      "channel": 1,
      "note": 74,
      "start": 66.1721,
      "duration": 0.0161,
      "velocity": 124,
      "chip": "ym2612"
    },
    {
      "channel": 0,
      "note": 43,
      "start": 66.1766,
      "duration": 0.0161,
      "velocity": 115,
      "chip": "ym2612"
    },
    {
      "channel": 4,
      "note": 77,
      "start": 66.1778,
      "duration": 0.0161,
      "velocity": 97,
      "chip": "ym2612"
    },
    {
      "channel": 3,
      "note": 80,
      "start": 66.179,
      "duration": 0.0161,
      "velocity": 97,
      "chip": "ym2612"
    },
    {
      "channel": 2,
      "note": 59,
      "start": 66.1801,
      "duration": 0.0162,
      "velocity": 100,
      "chip": "ym2612"
    },
    {
      "channel": 1,
      "note": 72,
      "start": 66.1883,
      "duration": 0.0161,
      "velocity": 124,
      "chip": "ym2612"
    },
    {
      "channel": 0,
      "note": 43,
      "start": 66.1927,
      "duration": 0.0157,
      "velocity": 115,
      "chip": "ym2612"
    },
    {
      "channel": 4,
      "note": 77,
      "start": 66.1939,
      "duration": 0.0157,
      "velocity": 97,
      "chip": "ym2612"
    },
    {
      "channel": 3,
      "note": 80,
      "start": 66.1951,
      "duration": 0.0157,
      "velocity": 97,
      "chip": "ym2612"
    },
    {
      "channel": 2,
      "note": 59,
      "start": 66.1963,
      "duration": 0.0157,
      "velocity": 100,
      "chip": "ym2612"
    },
    {
      "channel": 1,
      "note": 71,
      "start": 66.2044,
      "duration": 0.0161,
      "velocity": 124,
      "chip": "ym2612"
    },
    {
      "channel": 0,
      "note": 44,
      "start": 66.2085,
      "duration": 0.0137,
      "velocity": 115,
      "chip": "ym2612"
    },
    {
      "channel": 4,
      "note": 77,
      "start": 66.2097,
      "duration": 0.0141,
      "velocity": 97,
      "chip": "ym2612"
    },
    {
      "channel": 3,
      "note": 80,
      "start": 66.2109,
      "duration": 0.014,
      "velocity": 97,
      "chip": "ym2612"
    },
    {
      "channel": 2,
      "note": 59,
      "start": 66.212,
      "duration": 0.014,
      "velocity": 100,
      "chip": "ym2612"
    },
    {
      "channel": 1,
      "note": 70,
      "start": 66.2205,
      "duration": 0.0161,
      "velocity": 124,
      "chip": "ym2612"
    },
    {
      "channel": 0,
      "note": 44,
      "start": 66.2222,
      "duration": 0.0161,
      "velocity": 115,
      "chip": "ym2612"
    },
    {
      "channel": 4,
      "note": 77,
      "start": 66.2237,
      "duration": 0.0185,
      "velocity": 97,
      "chip": "ym2612"
    },
    {
      "channel": 3,
      "note": 80,
      "start": 66.2249,
      "duration": 0.0185,
      "velocity": 97,
      "chip": "ym2612"
    },
    {
      "channel": 2,
      "note": 59,
      "start": 66.226,
      "duration": 0.0185,
      "velocity": 100,
      "chip": "ym2612"
    },
    {
      "channel": 1,
      "note": 69,
      "start": 66.2366,
      "duration": 0.0161,
      "velocity": 124,
      "chip": "ym2612"
    },
    {
      "channel": 0,
      "note": 44,
      "start": 66.2383,
      "duration": 0.0161,
      "velocity": 115,
      "chip": "ym2612"
    },
    {
      "channel": 4,
      "note": 77,
      "start": 66.2422,
      "duration": 0.0134,
      "velocity": 97,
      "chip": "ym2612"
    },
    {
      "channel": 3,
      "note": 80,
      "start": 66.2434,
      "duration": 0.0161,
      "velocity": 97,
      "chip": "ym2612"
    },
    {
      "channel": 2,
      "note": 59,
      "start": 66.2445,
      "duration": 0.0161,
      "velocity": 100,
      "chip": "ym2612"
    },
    {
      "channel": 1,
      "note": 68,
      "start": 66.2527,
      "duration": 0.0161,
      "velocity": 124,
      "chip": "ym2612"
    },
    {
      "channel": 0,
      "note": 45,
      "start": 66.2544,
      "duration": 0.0161,
      "velocity": 115,
      "chip": "ym2612"
    },
    {
      "channel": 4,
      "note": 77,
      "start": 66.2556,
      "duration": 0.0161,
      "velocity": 97,
      "chip": "ym2612"
    },
    {
      "channel": 3,
      "note": 80,
      "start": 66.2595,
      "duration": 0.0157,
      "velocity": 97,
      "chip": "ym2612"
    },
    {
      "channel": 2,
      "note": 59,
      "start": 66.2606,
      "duration": 0.0158,
      "velocity": 100,
      "chip": "ym2612"
    },
    {
      "channel": 1,
      "note": 66,
      "start": 66.2688,
      "duration": 0.0161,
      "velocity": 124,
      "chip": "ym2612"
    },
    {
      "channel": 0,
      "note": 45,
      "start": 66.2705,
      "duration": 0.0161,
      "velocity": 115,
      "chip": "ym2612"
    },
    {
      "channel": 4,
      "note": 77,
      "start": 66.2717,
      "duration": 0.0161,
      "velocity": 97,
      "chip": "ym2612"
    },
    {
      "channel": 3,
      "note": 80,
      "start": 66.2752,
      "duration": 0.0137,
      "velocity": 97,
      "chip": "ym2612"
    },
    {
      "channel": 2,
      "note": 59,
      "start": 66.2764,
      "duration": 0.014,
      "velocity": 100,
      "chip": "ym2612"
    },
    {
      "channel": 1,
      "note": 65,
      "start": 66.2849,
      "duration": 0.0161,
      "velocity": 124,
      "chip": "ym2612"
    },
    {
      "channel": 0,
      "note": 46,
      "start": 66.2866,
      "duration": 0.0161,
      "velocity": 115,
      "chip": "ym2612"
    },
    {
      "channel": 4,
      "note": 77,
      "start": 66.2878,
      "duration": 0.0161,
      "velocity": 97,
      "chip": "ym2612"
    },
    {
      "channel": 3,
      "note": 80,
      "start": 66.2889,
      "duration": 0.0162,
      "velocity": 97,
      "chip": "ym2612"
    },
    {
      "channel": 1,
      "note": 64,
      "start": 66.301,
      "duration": 0.0161,
      "velocity": 124,
      "chip": "ym2612"
    },
    {
      "channel": 0,
      "note": 46,
      "start": 66.3027,
      "duration": 0.0161,
      "velocity": 115,
      "chip": "ym2612"
    },
    {
      "channel": 4,
      "note": 77,
      "start": 66.3039,
      "duration": 0.0161,
      "velocity": 97,
      "chip": "ym2612"
    },
    {
      "channel": 3,
      "note": 80,
      "start": 66.3051,
      "duration": 0.0161,
      "velocity": 97,
      "chip": "ym2612"
    },
    {
      "channel": 1,
      "note": 62,
      "start": 66.317,
      "duration": 0.0162,
      "velocity": 124,
      "chip": "ym2612"
    },
    {
      "channel": 0,
      "note": 47,
      "start": 66.3188,
      "duration": 0.0161,
      "velocity": 115,
      "chip": "ym2612"
    },
    {
      "channel": 4,
      "note": 77,
      "start": 66.32,
      "duration": 0.0161,
      "velocity": 97,
      "chip": "ym2612"
    },
    {
      "channel": 3,
      "note": 80,
      "start": 66.3212,
      "duration": 0.0161,
      "velocity": 97,
      "chip": "ym2612"
    },
    {
      "channel": 2,
      "note": 56,
      "start": 66.3253,
      "duration": 0.0132,
      "velocity": 100,
      "chip": "ym2612"
    },
    {
      "channel": 1,
      "note": 61,
      "start": 66.3332,
      "duration": 0.0161,
      "velocity": 124,
      "chip": "ym2612"
    },
    {
      "channel": 0,
      "note": 47,
      "start": 66.3349,
      "duration": 0.0161,
      "velocity": 115,
      "chip": "ym2612"
    },
    {
      "channel": 4,
      "note": 77,
      "start": 66.3361,
      "duration": 0.0161,
      "velocity": 97,
      "chip": "ym2612"
    },
    {
      "channel": 3,
      "note": 80,
      "start": 66.3373,
      "duration": 0.0161,
      "velocity": 97,
      "chip": "ym2612"
    },
    {
      "channel": 2,
      "note": 56,
      "start": 66.3385,
      "duration": 0.016,
      "velocity": 100,
      "chip": "ym2612"
    },
    {
      "channel": 1,
      "note": 60,
      "start": 66.3493,
      "duration": 0.0161,
      "velocity": 124,
      "chip": "ym2612"
    },
    {
      "channel": 0,
      "note": 47,
      "start": 66.351,
      "duration": 0.0161,
      "velocity": 115,
      "chip": "ym2612"
    },
    {
      "channel": 4,
      "note": 77,
      "start": 66.3522,
      "duration": 0.0161,
      "velocity": 97,
      "chip": "ym2612"
    },
    {
      "channel": 3,
      "note": 80,
      "start": 66.3534,
      "duration": 0.0161,
      "velocity": 97,
      "chip": "ym2612"
    },
    {
      "channel": 2,
      "note": 56,
      "start": 66.3545,
      "duration": 0.0161,
      "velocity": 100,
      "chip": "ym2612"
    },
    {
      "channel": 1,
      "note": 59,
      "start": 66.3654,
      "duration": 0.0161,
      "velocity": 124,
      "chip": "ym2612"
    },
    {
      "channel": 0,
      "note": 48,
      "start": 66.3671,
      "duration": 0.0161,
      "velocity": 115,
      "chip": "ym2612"
    },
    {
      "channel": 4,
      "note": 77,
      "start": 66.3683,
      "duration": 0.0161,
      "velocity": 97,
      "chip": "ym2612"
    },
    {
      "channel": 3,
      "note": 80,
      "start": 66.3695,
      "duration": 0.0161,
      "velocity": 97,
      "chip": "ym2612"
    },
    {
      "channel": 2,
      "note": 56,
      "start": 66.3706,
      "duration": 0.0161,
      "velocity": 100,
      "chip": "ym2612"
    },
    {
      "channel": 1,
      "note": 57,
      "start": 66.3815,
      "duration": 0.0161,
      "velocity": 124,
      "chip": "ym2612"
    },
    {
      "channel": 0,
      "note": 48,
      "start": 66.3832,
      "duration": 0.0161,
      "velocity": 115,
      "chip": "ym2612"
    },
    {
      "channel": 4,
      "note": 77,
      "start": 66.3844,
      "duration": 0.0161,
      "velocity": 97,
      "chip": "ym2612"
    },
    {
      "channel": 3,
      "note": 80,
      "start": 66.3856,
      "duration": 0.0161,
      "velocity": 97,
      "chip": "ym2612"
    },
    {
      "channel": 2,
      "note": 56,
      "start": 66.3867,
      "duration": 0.0161,
      "velocity": 100,
      "chip": "ym2612"
    },
    {
      "channel": 1,
      "note": 56,
      "start": 66.3976,
      "duration": 0.0161,
      "velocity": 124,
      "chip": "ym2612"
    },
    {
      "channel": 0,
      "note": 49,
      "start": 66.3993,
      "duration": 0.0153,
      "velocity": 1,
      "chip": "ym2612"
    },
    {
      "channel": 4,
      "note": 77,
      "start": 66.4005,
      "duration": 0.0153,
      "velocity": 97,
      "chip": "ym2612"
    },
    {
      "channel": 3,
      "note": 80,
      "start": 66.4016,
      "duration": 0.0154,
      "velocity": 97,
      "chip": "ym2612"
    },
    {
      "channel": 2,
      "note": 56,
      "start": 66.4028,
      "duration": 0.0153,
      "velocity": 100,
      "chip": "ym2612"
    },
    {
      "channel": 1,
      "note": 55,
      "start": 66.4137,
      "duration": 0.0161,
      "velocity": 124,
      "chip": "ym2612"
    },
    {
      "channel": 4,
      "note": 77,
      "start": 66.4158,
      "duration": 0.0153,
      "velocity": 97,
      "chip": "ym2612"
    },
    {
      "channel": 3,
      "note": 80,
      "start": 66.417,
      "duration": 0.0153,
      "velocity": 97,
      "chip": "ym2612"
    },
    {
      "channel": 2,
      "note": 56,
      "start": 66.4181,
      "duration": 0.0152,
      "velocity": 100,
      "chip": "ym2612"
    },
    {
      "channel": 1,
      "note": 53,
      "start": 66.4298,
      "duration": 0.0161,
      "velocity": 124,
      "chip": "ym2612"
    },
    {
      "channel": 4,
      "note": 77,
      "start": 66.431,
      "duration": 0.0161,
      "velocity": 97,
      "chip": "ym2612"
    },
    {
      "channel": 3,
      "note": 80,
      "start": 66.4322,
      "duration": 0.0161,
      "velocity": 97,
      "chip": "ym2612"
    },
    {
      "channel": 2,
      "note": 56,
      "start": 66.4333,
      "duration": 0.0161,
      "velocity": 100,
      "chip": "ym2612"
    },
    {
      "channel": 1,
      "note": 52,
      "start": 66.4459,
      "duration": 0.0161,
      "velocity": 124,
      "chip": "ym2612"
    },
    {
      "channel": 4,
      "note": 77,
      "start": 66.4472,
      "duration": 0.016,
      "velocity": 97,
      "chip": "ym2612"
    },
    {
      "channel": 3,
      "note": 80,
      "start": 66.4483,
      "duration": 0.0161,
      "velocity": 97,
      "chip": "ym2612"
    },
    {
      "channel": 2,
      "note": 56,
      "start": 66.4495,
      "duration": 0.0161,
      "velocity": 100,
      "chip": "ym2612"
    },
    {
      "channel": 1,
      "note": 51,
      "start": 66.462,
      "duration": 0.0153,
      "velocity": 1,
      "chip": "ym2612"
    },
    {
      "channel": 4,
      "note": 77,
      "start": 66.4632,
      "duration": 0.0153,
      "velocity": 97,
      "chip": "ym2612"
    },
    {
      "channel": 3,
      "note": 80,
      "start": 66.4644,
      "duration": 0.0153,
      "velocity": 97,
      "chip": "ym2612"
    },
    {
      "channel": 2,
      "note": 56,
      "start": 66.4656,
      "duration": 0.0153,
      "velocity": 100,
      "chip": "ym2612"
    },
    {
      "channel": 4,
      "note": 77,
      "start": 66.4785,
      "duration": 0.0153,
      "velocity": 97,
      "chip": "ym2612"
    },
    {
      "channel": 3,
      "note": 80,
      "start": 66.4797,
      "duration": 0.0153,
      "velocity": 97,
      "chip": "ym2612"
    },
    {
      "channel": 4,
      "note": 77,
      "start": 66.4938,
      "duration": 0.0199,
      "velocity": 97,
      "chip": "ym2612"
    },
    {
      "channel": 3,
      "note": 80,
      "start": 66.495,
      "duration": 0.0198,
      "velocity": 97,
      "chip": "ym2612"
    },
    {
      "channel": 0,
      "note": 36,
      "start": 66.5124,
      "duration": 0.015,
      "velocity": 115,
      "chip": "ym2612"
    },
    {
      "channel": 4,
      "note": 77,
      "start": 66.5137,
      "duration": 0.0149,
      "velocity": 97,
      "chip": "ym2612"
    },
    {
      "channel": 3,
      "note": 80,
      "start": 66.5148,
      "duration": 0.0149,
      "velocity": 97,
      "chip": "ym2612"
    },
    {
      "channel": 2,
      "note": 49,
      "start": 66.5163,
      "duration": 0.0146,
      "velocity": 100,
      "chip": "ym2612"
    },
    {
      "channel": 1,
      "note": 37,
      "start": 66.5177,
      "duration": 0.0144,
      "velocity": 100,
      "chip": "ym2612"
    },
    {
      "channel": 0,
      "note": 36,
      "start": 66.5274,
      "duration": 0.0162,
      "velocity": 115,
      "chip": "ym2612"
    },
    {
      "channel": 4,
      "note": 77,
      "start": 66.5285,
      "duration": 0.0163,
      "velocity": 97,
      "chip": "ym2612"
    },
    {
      "channel": 3,
      "note": 80,
      "start": 66.5298,
      "duration": 0.0162,
      "velocity": 97,
      "chip": "ym2612"
    },
    {
      "channel": 2,
      "note": 49,
      "start": 66.5309,
      "duration": 0.0162,
      "velocity": 100,
      "chip": "ym2612"
    },
    {
      "channel": 1,
      "note": 37,
      "start": 66.5321,
      "duration": 0.0162,
      "velocity": 100,
      "chip": "ym2612"
    },
    {
      "channel": 0,
      "note": 37,
      "start": 66.5436,
      "duration": 0.015,
      "velocity": 115,
      "chip": "ym2612"
    },
    {
      "channel": 4,
      "note": 77,
      "start": 66.5448,
      "duration": 0.015,
      "velocity": 97,
      "chip": "ym2612"
    },
    {
      "channel": 3,
      "note": 80,
      "start": 66.546,
      "duration": 0.015,
      "velocity": 97,
      "chip": "ym2612"
    },
    {
      "channel": 2,
      "note": 49,
      "start": 66.5471,
      "duration": 0.015,
      "velocity": 100,
      "chip": "ym2612"
    },
    {
      "channel": 1,
      "note": 37,
      "start": 66.5483,
      "duration": 0.015,
      "velocity": 100,
      "chip": "ym2612"
    },
    {
      "channel": 0,
      "note": 37,
      "start": 66.5586,
      "duration": 0.0187,
      "velocity": 115,
      "chip": "ym2612"
    },
    {
      "channel": 4,
      "note": 77,
      "start": 66.5598,
      "duration": 0.0187,
      "velocity": 97,
      "chip": "ym2612"
    },
    {
      "channel": 3,
      "note": 80,
      "start": 66.561,
      "duration": 0.0187,
      "velocity": 97,
      "chip": "ym2612"
    },
    {
      "channel": 2,
      "note": 49,
      "start": 66.5621,
      "duration": 0.0187,
      "velocity": 100,
      "chip": "ym2612"
    },
    {
      "channel": 1,
      "note": 37,
      "start": 66.5633,
      "duration": 0.0187,
      "velocity": 100,
      "chip": "ym2612"
    },
    {
      "channel": 0,
      "note": 38,
      "start": 66.5773,
      "duration": 0.0163,
      "velocity": 115,
      "chip": "ym2612"
    },
    {
      "channel": 4,
      "note": 77,
      "start": 66.5785,
      "duration": 0.0163,
      "velocity": 97,
      "chip": "ym2612"
    },
    {
      "channel": 3,
      "note": 80,
      "start": 66.5797,
      "duration": 0.0163,
      "velocity": 97,
      "chip": "ym2612"
    },
    {
      "channel": 2,
      "note": 49,
      "start": 66.5808,
      "duration": 0.0163,
      "velocity": 100,
      "chip": "ym2612"
    },
    {
      "channel": 1,
      "note": 37,
      "start": 66.582,
      "duration": 0.0163,
      "velocity": 100,
      "chip": "ym2612"
    },
    {
      "channel": 0,
      "note": 38,
      "start": 66.5936,
      "duration": 0.0157,
      "velocity": 115,
      "chip": "ym2612"
    },
    {
      "channel": 4,
      "note": 77,
      "start": 66.5948,
      "duration": 0.0157,
      "velocity": 97,
      "chip": "ym2612"
    },
    {
      "channel": 3,
      "note": 80,
      "start": 66.596,
      "duration": 0.0157,
      "velocity": 97,
      "chip": "ym2612"
    },
    {
      "channel": 2,
      "note": 49,
      "start": 66.5971,
      "duration": 0.0157,
      "velocity": 100,
      "chip": "ym2612"
    },
    {
      "channel": 1,
      "note": 37,
      "start": 66.5983,
      "duration": 0.0157,
      "velocity": 100,
      "chip": "ym2612"
    },
    {
      "channel": 0,
      "note": 39,
      "start": 66.6093,
      "duration": 0.0141,
      "velocity": 115,
      "chip": "ym2612"
    },
    {
      "channel": 4,
      "note": 77,
      "start": 66.6105,
      "duration": 0.0141,
      "velocity": 97,
      "chip": "ym2612"
    },
    {
      "channel": 3,
      "note": 80,
      "start": 66.6117,
      "duration": 0.0141,
      "velocity": 97,
      "chip": "ym2612"
    },
    {
      "channel": 2,
      "note": 49,
      "start": 66.6128,
      "duration": 0.0141,
      "velocity": 100,
      "chip": "ym2612"
    },
    {
      "channel": 1,
      "note": 37,
      "start": 66.614,
      "duration": 0.0141,
      "velocity": 100,
      "chip": "ym2612"
    },
    {
      "channel": 0,
      "note": 39,
      "start": 66.6234,
      "duration": 0.0158,
      "velocity": 115,
      "chip": "ym2612"
    },
    {
      "channel": 4,
      "note": 77,
      "start": 66.6246,
      "duration": 0.0185,
      "velocity": 97,
      "chip": "ym2612"
    },
    {
      "channel": 3,
      "note": 80,
      "start": 66.6258,
      "duration": 0.0185,
      "velocity": 97,
      "chip": "ym2612"
    },
    {
      "channel": 2,
      "note": 49,
      "start": 66.6269,
      "duration": 0.0185,
      "velocity": 100,
      "chip": "ym2612"
    },
    {
      "channel": 1,
      "note": 37,
      "start": 66.628,
      "duration": 0.0185,
      "velocity": 100,
      "chip": "ym2612"
    },
    {
      "channel": 0,
      "note": 40,
      "start": 66.6392,
      "duration": 0.0161,
      "velocity": 115,
      "chip": "ym2612"
    },
    {
      "channel": 4,
      "note": 77,
      "start": 66.6431,
      "duration": 0.0161,
      "velocity": 97,
      "chip": "ym2612"
    },
    {
      "channel": 3,
      "note": 80,
      "start": 66.6443,
      "duration": 0.0161,
      "velocity": 97,
      "chip": "ym2612"
    },
    {
      "channel": 2,
      "note": 49,
      "start": 66.6454,
      "duration": 0.0161,
      "velocity": 100,
      "chip": "ym2612"
    },
    {
      "channel": 1,
      "note": 37,
      "start": 66.6466,
      "duration": 0.0161,
      "velocity": 100,
      "chip": "ym2612"
    },
    {
      "channel": 0,
      "note": 40,
      "start": 66.6553,
      "duration": 0.0161,
      "velocity": 115,
      "chip": "ym2612"
    },
    {
      "channel": 4,
      "note": 77,
      "start": 66.6592,
      "duration": 0.0134,
      "velocity": 97,
      "chip": "ym2612"
    },
    {
      "channel": 3,
      "note": 80,
      "start": 66.6604,
      "duration": 0.0158,
      "velocity": 97,
      "chip": "ym2612"
    },
    {
      "channel": 2,
      "note": 49,
      "start": 66.6615,
      "duration": 0.0158,
      "velocity": 100,
      "chip": "ym2612"
    },
    {
      "channel": 1,
      "note": 37,
      "start": 66.6627,
      "duration": 0.0158,
      "velocity": 100,
      "chip": "ym2612"
    },
    {
      "channel": 0,
      "note": 40,
      "start": 66.6714,
      "duration": 0.0161,
      "velocity": 115,
      "chip": "ym2612"
    },
    {
      "channel": 4,
      "note": 77,
      "start": 66.6726,
      "duration": 0.0161,
      "velocity": 97,
      "chip": "ym2612"
    },
    {
      "channel": 3,
      "note": 80,
      "start": 66.6761,
      "duration": 0.014,
      "velocity": 97,
      "chip": "ym2612"
    },
    {
      "channel": 0,
      "note": 41,
      "start": 66.6875,
      "duration": 0.0161,
      "velocity": 115,
      "chip": "ym2612"
    },
    {
      "channel": 4,
      "note": 77,
      "start": 66.6887,
      "duration": 0.0161,
      "velocity": 97,
      "chip": "ym2612"
    },
    {
      "channel": 3,
      "note": 80,
      "start": 66.6901,
      "duration": 0.0186,
      "velocity": 97,
      "chip": "ym2612"
    },
    {
      "channel": 0,
      "note": 41,
      "start": 66.7036,
      "duration": 0.0161,
      "velocity": 115,
      "chip": "ym2612"
    },
    {
      "channel": 4,
      "note": 77,
      "start": 66.7048,
      "duration": 0.0161,
      "velocity": 97,
      "chip": "ym2612"
    },
    {
      "channel": 3,
      "note": 80,
      "start": 66.7087,
      "duration": 0.0134,
      "velocity": 97,
      "chip": "ym2612"
    },
    {
      "channel": 2,
      "note": 56,
      "start": 66.7101,
      "duration": 0.0159,
      "velocity": 100,
      "chip": "ym2612"
    },
    {
      "channel": 1,
      "note": 44,
      "start": 66.7115,
      "duration": 0.0156,
      "velocity": 100,
      "chip": "ym2612"
    },
    {
      "channel": 0,
      "note": 42,
      "start": 66.7196,
      "duration": 0.0162,
      "velocity": 115,
      "chip": "ym2612"
    },
    {
      "channel": 4,
      "note": 77,
      "start": 66.7209,
      "duration": 0.0161,
      "velocity": 97,
      "chip": "ym2612"
    },
    {
      "channel": 3,
      "note": 80,
      "start": 66.7221,
      "duration": 0.0161,
      "velocity": 97,
      "chip": "ym2612"
    },
    {
      "channel": 2,
      "note": 56,
      "start": 66.726,
      "duration": 0.0156,
      "velocity": 100,
      "chip": "ym2612"
    },
    {
      "channel": 1,
      "note": 44,
      "start": 66.7271,
      "duration": 0.0157,
      "velocity": 100,
      "chip": "ym2612"
    },
    {
      "channel": 0,
      "note": 42,
      "start": 66.7358,
      "duration": 0.0161,
      "velocity": 115,
      "chip": "ym2612"
    },
    {
      "channel": 4,
      "note": 77,
      "start": 66.7369,
      "duration": 0.0161,
      "velocity": 97,
      "chip": "ym2612"
    },
    {
      "channel": 3,
      "note": 80,
      "start": 66.7382,
      "duration": 0.0161,
      "velocity": 97,
      "chip": "ym2612"
    },
    {
      "channel": 2,
      "note": 56,
      "start": 66.7417,
      "duration": 0.0137,
      "velocity": 100,
      "chip": "ym2612"
    },
    {
      "channel": 1,
      "note": 44,
      "start": 66.7428,
      "duration": 0.0141,
      "velocity": 100,
      "chip": "ym2612"
    },
    {
      "channel": 0,
      "note": 43,
      "start": 66.7519,
      "duration": 0.0161,
      "velocity": 115,
      "chip": "ym2612"
    },
    {
      "channel": 4,
      "note": 77,
      "start": 66.753,
      "duration": 0.0162,
      "velocity": 97,
      "chip": "ym2612"
    },
    {
      "channel": 3,
      "note": 80,
      "start": 66.7542,
      "duration": 0.0161,
      "velocity": 97,
      "chip": "ym2612"
    },
    {
      "channel": 2,
      "note": 56,
      "start": 66.7554,
      "duration": 0.0161,
      "velocity": 100,
      "chip": "ym2612"
    },
    {
      "channel": 1,
      "note": 44,
      "start": 66.7569,
      "duration": 0.0185,
      "velocity": 100,
      "chip": "ym2612"
    },
    {
      "channel": 0,
      "note": 43,
      "start": 66.768,
      "duration": 0.0161,
      "velocity": 115,
      "chip": "ym2612"
    },
    {
      "channel": 4,
      "note": 77,
      "start": 66.7692,
      "duration": 0.0161,
      "velocity": 97,
      "chip": "ym2612"
    },
    {
      "channel": 3,
      "note": 80,
      "start": 66.7703,
      "duration": 0.0161,
      "velocity": 97,
      "chip": "ym2612"
    },
    {
      "channel": 2,
      "note": 56,
      "start": 66.7715,
      "duration": 0.0161,
      "velocity": 100,
      "chip": "ym2612"
    },
    {
      "channel": 1,
      "note": 44,
      "start": 66.7754,
      "duration": 0.0134,
      "velocity": 100,
      "chip": "ym2612"
    },
    {
      "channel": 0,
      "note": 44,
      "start": 66.7841,
      "duration": 0.0161,
      "velocity": 115,
      "chip": "ym2612"
    },
    {
      "channel": 4,
      "note": 77,
      "start": 66.7853,
      "duration": 0.0161,
      "velocity": 97,
      "chip": "ym2612"
    },
    {
      "channel": 3,
      "note": 80,
      "start": 66.7864,
      "duration": 0.0161,
      "velocity": 97,
      "chip": "ym2612"
    },
    {
      "channel": 2,
      "note": 56,
      "start": 66.7876,
      "duration": 0.0161,
      "velocity": 100,
      "chip": "ym2612"
    },
    {
      "channel": 1,
      "note": 44,
      "start": 66.7887,
      "duration": 0.0161,
      "velocity": 100,
      "chip": "ym2612"
    },
    {
      "channel": 0,
      "note": 44,
      "start": 66.8002,
      "duration": 0.0161,
      "velocity": 115,
      "chip": "ym2612"
    },
    {
      "channel": 4,
      "note": 77,
      "start": 66.8014,
      "duration": 0.0161,
      "velocity": 97,
      "chip": "ym2612"
    },
    {
      "channel": 3,
      "note": 80,
      "start": 66.8025,
      "duration": 0.0161,
      "velocity": 97,
      "chip": "ym2612"
    },
    {
      "channel": 2,
      "note": 56,
      "start": 66.8037,
      "duration": 0.0161,
      "velocity": 100,
      "chip": "ym2612"
    },
    {
      "channel": 1,
      "note": 44,
      "start": 66.8048,
      "duration": 0.0161,
      "velocity": 100,
      "chip": "ym2612"
    },
    {
      "channel": 0,
      "note": 44,
      "start": 66.8163,
      "duration": 0.0161,
      "velocity": 115,
      "chip": "ym2612"
    },
    {
      "channel": 4,
      "note": 77,
      "start": 66.8175,
      "duration": 0.0161,
      "velocity": 97,
      "chip": "ym2612"
    },
    {
      "channel": 3,
      "note": 80,
      "start": 66.8186,
      "duration": 0.0162,
      "velocity": 97,
      "chip": "ym2612"
    },
    {
      "channel": 2,
      "note": 56,
      "start": 66.8198,
      "duration": 0.0162,
      "velocity": 100,
      "chip": "ym2612"
    },
    {
      "channel": 1,
      "note": 44,
      "start": 66.8209,
      "duration": 0.0161,
      "velocity": 100,
      "chip": "ym2612"
    },
    {
      "channel": 0,
      "note": 45,
      "start": 66.8324,
      "duration": 0.0161,
      "velocity": 115,
      "chip": "ym2612"
    },
    {
      "channel": 4,
      "note": 77,
      "start": 66.8336,
      "duration": 0.0161,
      "velocity": 97,
      "chip": "ym2612"
    },
    {
      "channel": 3,
      "note": 80,
      "start": 66.8348,
      "duration": 0.016,
      "velocity": 97,
      "chip": "ym2612"
    },
    {
      "channel": 2,
      "note": 56,
      "start": 66.8359,
      "duration": 0.016,
      "velocity": 100,
      "chip": "ym2612"
    },
    {
      "channel": 1,
      "note": 44,
      "start": 66.837,
      "duration": 0.0161,
      "velocity": 100,
      "chip": "ym2612"
    },
    {
      "channel": 0,
      "note": 45,
      "start": 66.8485,
      "duration": 0.0161,
      "velocity": 115,
      "chip": "ym2612"
    },
    {
      "channel": 4,
      "note": 77,
      "start": 66.8497,
      "duration": 0.0161,
      "velocity": 97,
      "chip": "ym2612"
    },
    {
      "channel": 3,
      "note": 80,
      "start": 66.8508,
      "duration": 0.0161,
      "velocity": 97,
      "chip": "ym2612"
    },
    {
      "channel": 2,
      "note": 56,
      "start": 66.852,
      "duration": 0.0161,
      "velocity": 100,
      "chip": "ym2612"
    },
    {
      "channel": 1,
      "note": 44,
      "start": 66.8531,
      "duration": 0.0161,
      "velocity": 100,
      "chip": "ym2612"
    },
    {
      "channel": 0,
      "note": 46,
      "start": 66.8646,
      "duration": 0.0162,
      "velocity": 115,
      "chip": "ym2612"
    },
    {
      "channel": 4,
      "note": 77,
      "start": 66.8658,
      "duration": 0.0161,
      "velocity": 97,
      "chip": "ym2612"
    },
    {
      "channel": 3,
      "note": 80,
      "start": 66.8669,
      "duration": 0.0161,
      "velocity": 97,
      "chip": "ym2612"
    },
    {
      "channel": 0,
      "note": 46,
      "start": 66.8807,
      "duration": 0.0195,
      "velocity": 115,
      "chip": "ym2612"
    },
    {
      "channel": 4,
      "note": 77,
      "start": 66.8819,
      "duration": 0.0196,
      "velocity": 97,
      "chip": "ym2612"
    },
    {
      "channel": 3,
      "note": 80,
      "start": 66.8831,
      "duration": 0.0195,
      "velocity": 97,
      "chip": "ym2612"
    },
    {
      "channel": 1,
      "note": 78,
      "start": 66.8985,
      "duration": 0.0144,
      "velocity": 124,
      "chip": "ym2612"
    },
    {
      "channel": 0,
      "note": 47,
      "start": 66.9002,
      "duration": 0.0144,
      "velocity": 115,
      "chip": "ym2612"
    },
    {
      "channel": 4,
      "note": 77,
      "start": 66.9015,
      "duration": 0.0144,
      "velocity": 97,
      "chip": "ym2612"
    },
    {
      "channel": 3,
      "note": 80,
      "start": 66.9026,
      "duration": 0.0144,
      "velocity": 97,
      "chip": "ym2612"
    },
    {
      "channel": 2,
      "note": 61,
      "start": 66.904,
      "duration": 0.0142,
      "velocity": 100,
      "chip": "ym2612"
    },
    {
      "channel": 1,
      "note": 76,
      "start": 66.9129,
      "duration": 0.016,
      "velocity": 124,
      "chip": "ym2612"
    },
    {
      "channel": 0,
      "note": 47,
      "start": 66.9146,
      "duration": 0.016,
      "velocity": 115,
      "chip": "ym2612"
    },
    {
      "channel": 4,
      "note": 77,
      "start": 66.9158,
      "duration": 0.016,
      "velocity": 97,
      "chip": "ym2612"
    },
    {
      "channel": 3,
      "note": 80,
      "start": 66.917,
      "duration": 0.016,
      "velocity": 97,
      "chip": "ym2612"
    },
    {
      "channel": 2,
      "note": 61,
      "start": 66.9182,
      "duration": 0.016,
      "velocity": 100,
      "chip": "ym2612"
    },
    {
      "channel": 1,
      "note": 75,
      "start": 66.9289,
      "duration": 0.0161,
      "velocity": 124,
      "chip": "ym2612"
    },
    {
      "channel": 0,
      "note": 47,
      "start": 66.9307,
      "duration": 0.0161,
      "velocity": 115,
      "chip": "ym2612"
    },
    {
      "channel": 4,
      "note": 77,
      "start": 66.9319,
      "duration": 0.0161,
      "velocity": 97,
      "chip": "ym2612"
    },
    {
      "channel": 3,
      "note": 80,
      "start": 66.933,
      "duration": 0.0161,
      "velocity": 97,
      "chip": "ym2612"
    },
    {
      "channel": 2,
      "note": 61,
      "start": 66.9341,
      "duration": 0.0161,
      "velocity": 100,
      "chip": "ym2612"
    },
    {
      "channel": 1,
      "note": 74,
      "start": 66.945,
      "duration": 0.0161,
      "velocity": 124,
      "chip": "ym2612"
    },
    {
      "channel": 0,
      "note": 48,
      "start": 66.9467,
      "duration": 0.0161,
      "velocity": 115,
      "chip": "ym2612"
    },
    {
      "channel": 4,
      "note": 77,
      "start": 66.948,
      "duration": 0.0161,
      "velocity": 97,
      "chip": "ym2612"
    },
    {
      "channel": 3,
      "note": 80,
      "start": 66.9491,
      "duration": 0.0162,
      "velocity": 97,
      "chip": "ym2612"
    },
    {
      "channel": 2,
      "note": 61,
      "start": 66.9502,
      "duration": 0.0161,
      "velocity": 100,
      "chip": "ym2612"
    },
    {
      "channel": 1,
      "note": 72,
      "start": 66.9611,
      "duration": 0.0161,
      "velocity": 124,
      "chip": "ym2612"
    },
    {
      "channel": 0,
      "note": 48,
      "start": 66.9628,
      "duration": 0.0161,
      "velocity": 115,
      "chip": "ym2612"
    },
    {
      "channel": 4,
      "note": 77,
      "start": 66.9641,
      "duration": 0.0161,
      "velocity": 97,
      "chip": "ym2612"
    },
    {
      "channel": 3,
      "note": 80,
      "start": 66.9653,
      "duration": 0.0161,
      "velocity": 97,
      "chip": "ym2612"
    },
    {
      "channel": 2,
      "note": 61,
      "start": 66.9664,
      "duration": 0.016,
      "velocity": 100,
      "chip": "ym2612"
    },
    {
      "channel": 1,
      "note": 71,
      "start": 66.9772,
      "duration": 0.0167,
      "velocity": 124,
      "chip": "ym2612"
    },
    {
      "channel": 0,
      "note": 49,
      "start": 66.9789,
      "duration": 0.0159,
      "velocity": 1,
      "chip": "ym2612"
    },
    {
      "channel": 4,
      "note": 77,
      "start": 66.9801,
      "duration": 0.0159,
      "velocity": 97,
      "chip": "ym2612"
    },
    {
      "channel": 3,
      "note": 80,
      "start": 66.9814,
      "duration": 0.0158,
      "velocity": 97,
      "chip": "ym2612"
    },
    {
      "channel": 2,
      "note": 61,
      "start": 66.9824,
      "duration": 0.0159,
      "velocity": 100,
      "chip": "ym2612"
    },
    {
      "channel": 1,
      "note": 70,
      "start": 66.9939,
      "duration": 0.0163,
      "velocity": 124,
      "chip": "ym2612"
    },
    {
      "channel": 4,
      "note": 77,
      "start": 66.9961,
      "duration": 0.0154,
      "velocity": 97,
      "chip": "ym2612"
    },
    {
      "channel": 3,
      "note": 80,
      "start": 66.9972,
      "duration": 0.0155,
      "velocity": 97,
      "chip": "ym2612"
    },
    {
      "channel": 2,
      "note": 61,
      "start": 66.9983,
      "duration": 0.0154,
      "velocity": 100,
      "chip": "ym2612"
    },
    {
      "channel": 1,
      "note": 69,
      "start": 67.0102,
      "duration": 0.0153,
      "velocity": 124,
      "chip": "ym2612"
    },
    {
      "channel": 4,
      "note": 77,
      "start": 67.0115,
      "duration": 0.0153,
      "velocity": 97,
      "chip": "ym2612"
    },
    {
      "channel": 3,
      "note": 80,
      "start": 67.0127,
      "duration": 0.0153,
      "velocity": 97,
      "chip": "ym2612"
    },
    {
      "channel": 2,
      "note": 61,
      "start": 67.0138,
      "duration": 0.0153,
      "velocity": 100,
      "chip": "ym2612"
    },
    {
      "channel": 1,
      "note": 68,
      "start": 67.0255,
      "duration": 0.0184,
      "velocity": 124,
      "chip": "ym2612"
    },
    {
      "channel": 4,
      "note": 77,
      "start": 67.0268,
      "duration": 0.0183,
      "velocity": 97,
      "chip": "ym2612"
    },
    {
      "channel": 3,
      "note": 80,
      "start": 67.028,
      "duration": 0.0184,
      "velocity": 97,
      "chip": "ym2612"
    },
    {
      "channel": 2,
      "note": 61,
      "start": 67.0291,
      "duration": 0.0183,
      "velocity": 100,
      "chip": "ym2612"
    },
    {
      "channel": 1,
      "note": 66,
      "start": 67.0439,
      "duration": 0.0166,
      "velocity": 124,
      "chip": "ym2612"
    },
    {
      "channel": 4,
      "note": 77,
      "start": 67.0451,
      "duration": 0.0166,
      "velocity": 97,
      "chip": "ym2612"
    },
    {
      "channel": 3,
      "note": 80,
      "start": 67.0464,
      "duration": 0.0165,
      "velocity": 97,
      "chip": "ym2612"
    },
    {
      "channel": 2,
      "note": 61,
      "start": 67.0474,
      "duration": 0.0166,
      "velocity": 100,
      "chip": "ym2612"
    },
    {
      "channel": 1,
      "note": 65,
      "start": 67.0605,
      "duration": 0.0157,
      "velocity": 124,
      "chip": "ym2612"
    },
    {
      "channel": 4,
      "note": 77,
      "start": 67.0618,
      "duration": 0.0157,
      "velocity": 97,
      "chip": "ym2612"
    },
    {
      "channel": 3,
      "note": 80,
      "start": 67.0629,
      "duration": 0.0158,
      "velocity": 97,
      "chip": "ym2612"
    },
    {
      "channel": 1,
      "note": 64,
      "start": 67.0762,
      "duration": 0.0141,
      "velocity": 124,
      "chip": "ym2612"
    },
    {
      "channel": 4,
      "note": 77,
      "start": 67.0775,
      "duration": 0.0141,
      "velocity": 97,
      "chip": "ym2612"
    },
    {
      "channel": 3,
      "note": 80,
      "start": 67.0787,
      "duration": 0.0141,
      "velocity": 97,
      "chip": "ym2612"
    },
    {
      "channel": 1,
      "note": 62,
      "start": 67.0902,
      "duration": 0.0185,
      "velocity": 124,
      "chip": "ym2612"
    },
    {
      "channel": 4,
      "note": 77,
      "start": 67.0915,
      "duration": 0.0185,
      "velocity": 97,
      "chip": "ym2612"
    },
    {
      "channel": 3,
      "note": 80,
      "start": 67.0927,
      "duration": 0.0185,
      "velocity": 97,
      "chip": "ym2612"
    },
    {
      "channel": 2,
      "note": 59,
      "start": 67.0941,
      "duration": 0.0183,
      "velocity": 100,
      "chip": "ym2612"
    },
    {
      "channel": 1,
      "note": 61,
      "start": 67.1088,
      "duration": 0.0134,
      "velocity": 124,
      "chip": "ym2612"
    },
    {
      "channel": 4,
      "note": 77,
      "start": 67.11,
      "duration": 0.0161,
      "velocity": 97,
      "chip": "ym2612"
    },
    {
      "channel": 3,
      "note": 80,
      "start": 67.1112,
      "duration": 0.0161,
      "velocity": 97,
      "chip": "ym2612"
    },
    {
      "channel": 2,
      "note": 59,
      "start": 67.1124,
      "duration": 0.0161,
      "velocity": 100,
      "chip": "ym2612"
    },
    {
      "channel": 1,
      "note": 60,
      "start": 67.1221,
      "duration": 0.0161,
      "velocity": 124,
      "chip": "ym2612"
    },
    {
      "channel": 4,
      "note": 77,
      "start": 67.1261,
      "duration": 0.0157,
      "velocity": 97,
      "chip": "ym2612"
    },
    {
      "channel": 3,
      "note": 80,
      "start": 67.1273,
      "duration": 0.0157,
      "velocity": 97,
      "chip": "ym2612"
    },
    {
      "channel": 2,
      "note": 59,
      "start": 67.1285,
      "duration": 0.0157,
      "velocity": 100,
      "chip": "ym2612"
    },
    {
      "channel": 1,
      "note": 59,
      "start": 67.1382,
      "duration": 0.0161,
      "velocity": 124,
      "chip": "ym2612"
    },
    {
      "channel": 4,
      "note": 77,
      "start": 67.1418,
      "duration": 0.0137,
      "velocity": 97,
      "chip": "ym2612"
    },
    {
      "channel": 3,
      "note": 80,
      "start": 67.1431,
      "duration": 0.0141,
      "velocity": 97,
      "chip": "ym2612"
    },
    {
      "channel": 2,
      "note": 59,
      "start": 67.1442,
      "duration": 0.014,
      "velocity": 100,
      "chip": "ym2612"
    },
    {
      "channel": 1,
      "note": 57,
      "start": 67.1543,
      "duration": 0.0161,
      "velocity": 124,
      "chip": "ym2612"
    },
    {
      "channel": 4,
      "note": 77,
      "start": 67.1556,
      "duration": 0.0161,
      "velocity": 97,
      "chip": "ym2612"
    },
    {
      "channel": 3,
      "note": 80,
      "start": 67.1571,
      "duration": 0.0185,
      "velocity": 97,
      "chip": "ym2612"
    },
    {
      "channel": 2,
      "note": 59,
      "start": 67.1582,
      "duration": 0.0186,
      "velocity": 100,
      "chip": "ym2612"
    },
    {
      "channel": 1,
      "note": 56,
      "start": 67.1704,
      "duration": 0.0161,
      "velocity": 124,
      "chip": "ym2612"
    },
    {
      "channel": 4,
      "note": 77,
      "start": 67.1717,
      "duration": 0.0161,
      "velocity": 97,
      "chip": "ym2612"
    },
    {
      "channel": 3,
      "note": 80,
      "start": 67.1756,
      "duration": 0.0134,
      "velocity": 97,
      "chip": "ym2612"
    },
    {
      "channel": 2,
      "note": 59,
      "start": 67.1768,
      "duration": 0.0161,
      "velocity": 100,
      "chip": "ym2612"
    },
    {
      "channel": 1,
      "note": 55,
      "start": 67.1865,
      "duration": 0.0161,
      "velocity": 124,
      "chip": "ym2612"
    },
    {
      "channel": 4,
      "note": 77,
      "start": 67.1878,
      "duration": 0.0161,
      "velocity": 97,
      "chip": "ym2612"
    },
    {
      "channel": 3,
      "note": 80,
      "start": 67.189,
      "duration": 0.0161,
      "velocity": 97,
      "chip": "ym2612"
    },
    {
      "channel": 2,
      "note": 59,
      "start": 67.1929,
      "duration": 0.0157,
      "velocity": 100,
      "chip": "ym2612"
    },
    {
      "channel": 1,
      "note": 53,
      "start": 67.2026,
      "duration": 0.0161,
      "velocity": 124,
      "chip": "ym2612"
    },
    {
      "channel": 4,
      "note": 77,
      "start": 67.2039,
      "duration": 0.0161,
      "velocity": 97,
      "chip": "ym2612"
    },
    {
      "channel": 3,
      "note": 80,
      "start": 67.2051,
      "duration": 0.0162,
      "velocity": 97,
      "chip": "ym2612"
    },
    {
      "channel": 2,
      "note": 59,
      "start": 67.2086,
      "duration": 0.0137,
      "velocity": 100,
      "chip": "ym2612"
    },
    {
      "channel": 1,
      "note": 52,
      "start": 67.2188,
      "duration": 0.0161,
      "velocity": 124,
      "chip": "ym2612"
    },
    {
      "channel": 4,
      "note": 77,
      "start": 67.22,
      "duration": 0.0161,
      "velocity": 97,
      "chip": "ym2612"
    },
    {
      "channel": 3,
      "note": 80,
      "start": 67.2212,
      "duration": 0.016,
      "velocity": 97,
      "chip": "ym2612"
    },
    {
      "channel": 2,
      "note": 59,
      "start": 67.2223,
      "duration": 0.0161,
      "velocity": 100,
      "chip": "ym2612"
    },
    {
      "channel": 1,
      "note": 51,
      "start": 67.2349,
      "duration": 0.0153,
      "velocity": 1,
      "chip": "ym2612"
    },
    {
      "channel": 4,
      "note": 77,
      "start": 67.2361,
      "duration": 0.0153,
      "velocity": 97,
      "chip": "ym2612"
    },
    {
      "channel": 3,
      "note": 80,
      "start": 67.2373,
      "duration": 0.0154,
      "velocity": 97,
      "chip": "ym2612"
    },
    {
      "channel": 2,
      "note": 59,
      "start": 67.2384,
      "duration": 0.0153,
      "velocity": 100,
      "chip": "ym2612"
    },
    {
      "channel": 4,
      "note": 77,
      "start": 67.2514,
      "duration": 0.0153,
      "velocity": 97,
      "chip": "ym2612"
    },
    {
      "channel": 3,
      "note": 80,
      "start": 67.2526,
      "duration": 0.0152,
      "velocity": 97,
      "chip": "ym2612"
    },
    {
      "channel": 4,
      "note": 77,
      "start": 67.2667,
      "duration": 0.0195,
      "velocity": 97,
      "chip": "ym2612"
    },
    {
      "channel": 3,
      "note": 80,
      "start": 67.2678,
      "duration": 0.0196,
      "velocity": 97,
      "chip": "ym2612"
    },
    {
      "channel": 1,
      "note": 78,
      "start": 67.2849,
      "duration": 0.0144,
      "velocity": 124,
      "chip": "ym2612"
    },
    {
      "channel": 4,
      "note": 77,
      "start": 67.2862,
      "duration": 0.0144,
      "velocity": 97,
      "chip": "ym2612"
    },
    {
      "channel": 3,
      "note": 80,
      "start": 67.2874,
      "duration": 0.0143,
      "velocity": 97,
      "chip": "ym2612"
    },
    {
      "channel": 1,
      "note": 76,
      "start": 67.2993,
      "duration": 0.016,
      "velocity": 124,
      "chip": "ym2612"
    },
    {
      "channel": 4,
      "note": 77,
      "start": 67.3006,
      "duration": 0.016,
      "velocity": 97,
      "chip": "ym2612"
    },
    {
      "channel": 3,
      "note": 80,
      "start": 67.3017,
      "duration": 0.0161,
      "velocity": 97,
      "chip": "ym2612"
    },
    {
      "channel": 1,
      "note": 75,
      "start": 67.3153,
      "duration": 0.0161,
      "velocity": 124,
      "chip": "ym2612"
    },
    {
      "channel": 4,
      "note": 77,
      "start": 67.3166,
      "duration": 0.0161,
      "velocity": 97,
      "chip": "ym2612"
    },
    {
      "channel": 3,
      "note": 80,
      "start": 67.3178,
      "duration": 0.0161,
      "velocity": 97,
      "chip": "ym2612"
    },
    {
      "channel": 1,
      "note": 74,
      "start": 67.3314,
      "duration": 0.0162,
      "velocity": 124,
      "chip": "ym2612"
    },
    {
      "channel": 4,
      "note": 77,
      "start": 67.3327,
      "duration": 0.0161,
      "velocity": 97,
      "chip": "ym2612"
    },
    {
      "channel": 3,
      "note": 80,
      "start": 67.3339,
      "duration": 0.0161,
      "velocity": 97,
      "chip": "ym2612"
    },
    {
      "channel": 1,
      "note": 72,
      "start": 67.3476,
      "duration": 0.0161,
      "velocity": 124,
      "chip": "ym2612"
    },
    {
      "channel": 4,
      "note": 77,
      "start": 67.3488,
      "duration": 0.0161,
      "velocity": 97,
      "chip": "ym2612"
    },
    {
      "channel": 3,
      "note": 80,
      "start": 67.35,
      "duration": 0.016,
      "velocity": 97,
      "chip": "ym2612"
    },
    {
      "channel": 1,
      "note": 71,
      "start": 67.3637,
      "duration": 0.0178,
      "velocity": 124,
      "chip": "ym2612"
    },
    {
      "channel": 4,
      "note": 77,
      "start": 67.3649,
      "duration": 0.0179,
      "velocity": 97,
      "chip": "ym2612"
    },
    {
      "channel": 3,
      "note": 80,
      "start": 67.3661,
      "duration": 0.0179,
      "velocity": 97,
      "chip": "ym2612"
    },
    {
      "channel": 1,
      "note": 78,
      "start": 67.3815,
      "duration": 0.0144,
      "velocity": 124,
      "chip": "ym2612"
    },
    {
      "channel": 4,
      "note": 77,
      "start": 67.3828,
      "duration": 0.0144,
      "velocity": 97,
      "chip": "ym2612"
    },
    {
      "channel": 3,
      "note": 80,
      "start": 67.384,
      "duration": 0.0144,
      "velocity": 97,
      "chip": "ym2612"
    },
    {
      "channel": 1,
      "note": 76,
      "start": 67.3959,
      "duration": 0.016,
      "velocity": 124,
      "chip": "ym2612"
    },
    {
      "channel": 4,
      "note": 77,
      "start": 67.3972,
      "duration": 0.016,
      "velocity": 97,
      "chip": "ym2612"
    },
    {
      "channel": 3,
      "note": 80,
      "start": 67.3983,
      "duration": 0.016,
      "velocity": 97,
      "chip": "ym2612"
    },
    {
      "channel": 1,
      "note": 75,
      "start": 67.412,
      "duration": 0.0161,
      "velocity": 124,
      "chip": "ym2612"
    },
    {
      "channel": 4,
      "note": 77,
      "start": 67.4132,
      "duration": 0.0161,
      "velocity": 97,
      "chip": "ym2612"
    },
    {
      "channel": 3,
      "note": 80,
      "start": 67.4144,
      "duration": 0.0161,
      "velocity": 97,
      "chip": "ym2612"
    },
    {
      "channel": 1,
      "note": 74,
      "start": 67.428,
      "duration": 0.0161,
      "velocity": 124,
      "chip": "ym2612"
    },
    {
      "channel": 4,
      "note": 77,
      "start": 67.4293,
      "duration": 0.0161,
      "velocity": 97,
      "chip": "ym2612"
    },
    {
      "channel": 3,
      "note": 80,
      "start": 67.4305,
      "duration": 0.0161,
      "velocity": 97,
      "chip": "ym2612"
    },
    {
      "channel": 1,
      "note": 72,
      "start": 67.4441,
      "duration": 0.0164,
      "velocity": 124,
      "chip": "ym2612"
    },
    {
      "channel": 4,
      "note": 77,
      "start": 67.4454,
      "duration": 0.0165,
      "velocity": 97,
      "chip": "ym2612"
    },
    {
      "channel": 3,
      "note": 80,
      "start": 67.4466,
      "duration": 0.0165,
      "velocity": 97,
      "chip": "ym2612"
    },
    {
      "channel": 1,
      "note": 71,
      "start": 67.4605,
      "duration": 0.0181,
      "velocity": 124,
      "chip": "ym2612"
    },
    {
      "channel": 4,
      "note": 77,
      "start": 67.4619,
      "duration": 0.0181,
      "velocity": 97,
      "chip": "ym2612"
    },
    {
      "channel": 3,
      "note": 80,
      "start": 67.463,
      "duration": 0.0181,
      "velocity": 97,
      "chip": "ym2612"
    },
    {
      "channel": 1,
      "note": 78,
      "start": 67.4787,
      "duration": 0.0138,
      "velocity": 124,
      "chip": "ym2612"
    },
    {
      "channel": 4,
      "note": 77,
      "start": 67.48,
      "duration": 0.0138,
      "velocity": 97,
      "chip": "ym2612"
    },
    {
      "channel": 3,
      "note": 80,
      "start": 67.4812,
      "duration": 0.0138,
      "velocity": 97,
      "chip": "ym2612"
    },
    {
      "channel": 2,
      "note": 61,
      "start": 67.4826,
      "duration": 0.0135,
      "velocity": 100,
      "chip": "ym2612"
    },
    {
      "channel": 1,
      "note": 76,
      "start": 67.4925,
      "duration": 0.0181,
      "velocity": 124,
      "chip": "ym2612"
    },
    {
      "channel": 4,
      "note": 77,
      "start": 67.4938,
      "duration": 0.0181,
      "velocity": 97,
      "chip": "ym2612"
    },
    {
      "channel": 3,
      "note": 80,
      "start": 67.495,
      "duration": 0.0181,
      "velocity": 97,
      "chip": "ym2612"
    },
    {
      "channel": 2,
      "note": 61,
      "start": 67.4961,
      "duration": 0.0181,
      "velocity": 100,
      "chip": "ym2612"
    },
    {
      "channel": 1,
      "note": 75,
      "start": 67.5105,
      "duration": 0.0167,
      "velocity": 124,
      "chip": "ym2612"
    },
    {
      "channel": 4,
      "note": 77,
      "start": 67.5119,
      "duration": 0.0167,
      "velocity": 97,
      "chip": "ym2612"
    },
    {
      "channel": 3,
      "note": 80,
      "start": 67.513,
      "duration": 0.0167,
      "velocity": 97,
      "chip": "ym2612"
    },
    {
      "channel": 2,
      "note": 61,
      "start": 67.5142,
      "duration": 0.0167,
      "velocity": 100,
      "chip": "ym2612"
    },
    {
      "channel": 1,
      "note": 74,
      "start": 67.5272,
      "duration": 0.0159,
      "velocity": 124,
      "chip": "ym2612"
    },
    {
      "channel": 4,
      "note": 77,
      "start": 67.5285,
      "duration": 0.0159,
      "velocity": 97,
      "chip": "ym2612"
    },
    {
      "channel": 3,
      "note": 80,
      "start": 67.5297,
      "duration": 0.0159,
      "velocity": 97,
      "chip": "ym2612"
    },
    {
      "channel": 2,
      "note": 61,
      "start": 67.5308,
      "duration": 0.0159,
      "velocity": 100,
      "chip": "ym2612"
    },
    {
      "channel": 1,
      "note": 72,
      "start": 67.5431,
      "duration": 0.0141,
      "velocity": 124,
      "chip": "ym2612"
    },
    {
      "channel": 4,
      "note": 77,
      "start": 67.5444,
      "duration": 0.014,
      "velocity": 97,
      "chip": "ym2612"
    },
    {
      "channel": 3,
      "note": 80,
      "start": 67.5456,
      "duration": 0.014,
      "velocity": 97,
      "chip": "ym2612"
    },
    {
      "channel": 2,
      "note": 61,
      "start": 67.5467,
      "duration": 0.014,
      "velocity": 100,
      "chip": "ym2612"
    },
    {
      "channel": 1,
      "note": 71,
      "start": 67.5572,
      "duration": 0.0185,
      "velocity": 124,
      "chip": "ym2612"
    },
    {
      "channel": 4,
      "note": 77,
      "start": 67.5585,
      "duration": 0.0185,
      "velocity": 97,
      "chip": "ym2612"
    },
    {
      "channel": 3,
      "note": 80,
      "start": 67.5596,
      "duration": 0.0186,
      "velocity": 97,
      "chip": "ym2612"
    },
    {
      "channel": 2,
      "note": 61,
      "start": 67.5607,
      "duration": 0.0186,
      "velocity": 100,
      "chip": "ym2612"
    },
    {
      "channel": 1,
      "note": 70,
      "start": 67.5757,
      "duration": 0.0134,
      "velocity": 124,
      "chip": "ym2612"
    },
    {
      "channel": 4,
      "note": 77,
      "start": 67.577,
      "duration": 0.0161,
      "velocity": 97,
      "chip": "ym2612"
    },
    {
      "channel": 3,
      "note": 80,
      "start": 67.5782,
      "duration": 0.0161,
      "velocity": 97,
      "chip": "ym2612"
    },
    {
      "channel": 2,
      "note": 61,
      "start": 67.5793,
      "duration": 0.016,
      "velocity": 100,
      "chip": "ym2612"
    },
    {
      "channel": 1,
      "note": 69,
      "start": 67.589,
      "duration": 0.0161,
      "velocity": 124,
      "chip": "ym2612"
    },
    {
      "channel": 4,
      "note": 77,
      "start": 67.5931,
      "duration": 0.0158,
      "velocity": 97,
      "chip": "ym2612"
    },
    {
      "channel": 3,
      "note": 80,
      "start": 67.5943,
      "duration": 0.0158,
      "velocity": 97,
      "chip": "ym2612"
    },
    {
      "channel": 2,
      "note": 61,
      "start": 67.5954,
      "duration": 0.0158,
      "velocity": 100,
      "chip": "ym2612"
    },
    {
      "channel": 1,
      "note": 68,
      "start": 67.6051,
      "duration": 0.0161,
      "velocity": 124,
      "chip": "ym2612"
    },
    {
      "channel": 4,
      "note": 77,
      "start": 67.6088,
      "duration": 0.0137,
      "velocity": 97,
      "chip": "ym2612"
    },
    {
      "channel": 3,
      "note": 80,
      "start": 67.61,
      "duration": 0.014,
      "velocity": 97,
      "chip": "ym2612"
    },
    {
      "channel": 2,
      "note": 61,
      "start": 67.6111,
      "duration": 0.0141,
      "velocity": 100,
      "chip": "ym2612"
    },
    {
      "channel": 1,
      "note": 66,
      "start": 67.6212,
      "duration": 0.0161,
      "velocity": 124,
      "chip": "ym2612"
    },
    {
      "channel": 4,
      "note": 77,
      "start": 67.6226,
      "duration": 0.0161,
      "velocity": 97,
      "chip": "ym2612"
    },
    {
      "channel": 3,
      "note": 80,
      "start": 67.624,
      "duration": 0.0185,
      "velocity": 97,
      "chip": "ym2612"
    },
    {
      "channel": 2,
      "note": 61,
      "start": 67.6252,
      "duration": 0.0185,
      "velocity": 100,
      "chip": "ym2612"
    },
    {
      "channel": 1,
      "note": 65,
      "start": 67.6373,
      "duration": 0.0162,
      "velocity": 124,
      "chip": "ym2612"
    },
    {
      "channel": 4,
      "note": 77,
      "start": 67.6387,
      "duration": 0.0161,
      "velocity": 97,
      "chip": "ym2612"
    },
    {
      "channel": 3,
      "note": 80,
      "start": 67.6425,
      "duration": 0.0161,
      "velocity": 97,
      "chip": "ym2612"
    },
    {
      "channel": 1,
      "note": 64,
      "start": 67.6535,
      "duration": 0.0178,
      "velocity": 124,
      "chip": "ym2612"
    },
    {
      "channel": 4,
      "note": 77,
      "start": 67.6548,
      "duration": 0.0202,
      "velocity": 97,
      "chip": "ym2612"
    },
    {
      "channel": 3,
      "note": 80,
      "start": 67.6586,
      "duration": 0.0176,
      "velocity": 97,
      "chip": "ym2612"
    },
    {
      "channel": 1,
      "note": 78,
      "start": 67.6714,
      "duration": 0.0144,
      "velocity": 124,
      "chip": "ym2612"
    },
    {
      "channel": 4,
      "note": 77,
      "start": 67.675,
      "duration": 0.012,
      "velocity": 97,
      "chip": "ym2612"
    },
    {
      "channel": 3,
      "note": 80,
      "start": 67.6762,
      "duration": 0.012,
      "velocity": 97,
      "chip": "ym2612"
    },
    {
      "channel": 2,
      "note": 59,
      "start": 67.6775,
      "duration": 0.0122,
      "velocity": 100,
      "chip": "ym2612"
    },
    {
      "channel": 1,
      "note": 76,
      "start": 67.6857,
      "duration": 0.016,
      "velocity": 124,
      "chip": "ym2612"
    },
    {
      "channel": 4,
      "note": 77,
      "start": 67.687,
      "duration": 0.016,
      "velocity": 97,
      "chip": "ym2612"
    },
    {
      "channel": 3,
      "note": 80,
      "start": 67.6882,
      "duration": 0.016,
      "velocity": 97,
      "chip": "ym2612"
    },
    {
      "channel": 2,
      "note": 59,
      "start": 67.6897,
      "duration": 0.0156,
      "velocity": 100,
      "chip": "ym2612"
    },
    {
      "channel": 1,
      "note": 75,
      "start": 67.7018,
      "duration": 0.0161,
      "velocity": 124,
      "chip": "ym2612"
    },
    {
      "channel": 4,
      "note": 77,
      "start": 67.703,
      "duration": 0.0161,
      "velocity": 97,
      "chip": "ym2612"
    },
    {
      "channel": 3,
      "note": 80,
      "start": 67.7042,
      "duration": 0.0161,
      "velocity": 97,
      "chip": "ym2612"
    },
    {
      "channel": 2,
      "note": 59,
      "start": 67.7053,
      "duration": 0.0161,
      "velocity": 100,
      "chip": "ym2612"
    },
    {
      "channel": 1,
      "note": 74,
      "start": 67.7179,
      "duration": 0.0161,
      "velocity": 124,
      "chip": "ym2612"
    },
    {
      "channel": 4,
      "note": 77,
      "start": 67.7191,
      "duration": 0.0161,
      "velocity": 97,
      "chip": "ym2612"
    },
    {
      "channel": 3,
      "note": 80,
      "start": 67.7203,
      "duration": 0.0162,
      "velocity": 97,
      "chip": "ym2612"
    },
    {
      "channel": 2,
      "note": 59,
      "start": 67.7214,
      "duration": 0.0161,
      "velocity": 100,
      "chip": "ym2612"
    },
    {
      "channel": 1,
      "note": 72,
      "start": 67.734,
      "duration": 0.0161,
      "velocity": 124,
      "chip": "ym2612"
    },
    {
      "channel": 4,
      "note": 77,
      "start": 67.7352,
      "duration": 0.0161,
      "velocity": 97,
      "chip": "ym2612"
    },
    {
      "channel": 3,
      "note": 80,
      "start": 67.7364,
      "duration": 0.0161,
      "velocity": 97,
      "chip": "ym2612"
    },
    {
      "channel": 2,
      "note": 59,
      "start": 67.7376,
      "duration": 0.0161,
      "velocity": 100,
      "chip": "ym2612"
    },
    {
      "channel": 1,
      "note": 71,
      "start": 67.75,
      "duration": 0.0179,
      "velocity": 124,
      "chip": "ym2612"
    },
    {
      "channel": 4,
      "note": 77,
      "start": 67.7513,
      "duration": 0.018,
      "velocity": 97,
      "chip": "ym2612"
    },
    {
      "channel": 3,
      "note": 80,
      "start": 67.7525,
      "duration": 0.0179,
      "velocity": 97,
      "chip": "ym2612"
    },
    {
      "channel": 2,
      "note": 59,
      "start": 67.7537,
      "duration": 0.0179,
      "velocity": 100,
      "chip": "ym2612"
    },
    {
      "channel": 1,
      "note": 78,
      "start": 67.768,
      "duration": 0.0143,
      "velocity": 124,
      "chip": "ym2612"
    },
    {
      "channel": 4,
      "note": 77,
      "start": 67.7693,
      "duration": 0.0143,
      "velocity": 97,
      "chip": "ym2612"
    },
    {
      "channel": 3,
      "note": 80,
      "start": 67.7704,
      "duration": 0.0144,
      "velocity": 97,
      "chip": "ym2612"
    },
    {
      "channel": 2,
      "note": 59,
      "start": 67.7716,
      "duration": 0.0144,
      "velocity": 100,
      "chip": "ym2612"
    },
    {
      "channel": 1,
      "note": 76,
      "start": 67.7823,
      "duration": 0.0161,
      "velocity": 124,
      "chip": "ym2612"
    },
    {
      "channel": 4,
      "note": 77,
      "start": 67.7836,
      "duration": 0.0161,
      "velocity": 97,
      "chip": "ym2612"
    },
    {
      "channel": 3,
      "note": 80,
      "start": 67.7848,
      "duration": 0.016,
      "velocity": 97,
      "chip": "ym2612"
    },
    {
      "channel": 2,
      "note": 59,
      "start": 67.7859,
      "duration": 0.016,
      "velocity": 100,
      "chip": "ym2612"
    },
    {
      "channel": 1,
      "note": 75,
      "start": 67.7984,
      "duration": 0.0161,
      "velocity": 124,
      "chip": "ym2612"
    },
    {
      "channel": 4,
      "note": 77,
      "start": 67.7997,
      "duration": 0.0161,
      "velocity": 97,
      "chip": "ym2612"
    },
    {
      "channel": 3,
      "note": 80,
      "start": 67.8008,
      "duration": 0.0161,
      "velocity": 97,
      "chip": "ym2612"
    },
    {
      "channel": 2,
      "note": 59,
      "start": 67.802,
      "duration": 0.0161,
      "velocity": 100,
      "chip": "ym2612"
    },
    {
      "channel": 1,
      "note": 74,
      "start": 67.8145,
      "duration": 0.0161,
      "velocity": 124,
      "chip": "ym2612"
    },
    {
      "channel": 4,
      "note": 77,
      "start": 67.8158,
      "duration": 0.0161,
      "velocity": 97,
      "chip": "ym2612"
    },
    {
      "channel": 3,
      "note": 80,
      "start": 67.8169,
      "duration": 0.0161,
      "velocity": 97,
      "chip": "ym2612"
    },
    {
      "channel": 2,
      "note": 59,
      "start": 67.818,
      "duration": 0.0161,
      "velocity": 100,
      "chip": "ym2612"
    },
    {
      "channel": 1,
      "note": 72,
      "start": 67.8306,
      "duration": 0.0161,
      "velocity": 124,
      "chip": "ym2612"
    },
    {
      "channel": 4,
      "note": 77,
      "start": 67.8319,
      "duration": 0.0161,
      "velocity": 97,
      "chip": "ym2612"
    },
    {
      "channel": 3,
      "note": 80,
      "start": 67.833,
      "duration": 0.0161,
      "velocity": 97,
      "chip": "ym2612"
    },
    {
      "channel": 1,
      "note": 71,
      "start": 67.8467,
      "duration": 0.0179,
      "velocity": 124,
      "chip": "ym2612"
    },
    {
      "channel": 4,
      "note": 77,
      "start": 67.848,
      "duration": 0.0179,
      "velocity": 97,
      "chip": "ym2612"
    },
    {
      "channel": 3,
      "note": 80,
      "start": 67.8491,
      "duration": 0.0179,
      "velocity": 97,
      "chip": "ym2612"
    },
    {
      "channel": 1,
      "note": 78,
      "start": 67.8646,
      "duration": 0.0144,
      "velocity": 124,
      "chip": "ym2612"
    },
    {
      "channel": 4,
      "note": 77,
      "start": 67.8659,
      "duration": 0.0143,
      "velocity": 97,
      "chip": "ym2612"
    },
    {
      "channel": 3,
      "note": 80,
      "start": 67.867,
      "duration": 0.0143,
      "velocity": 97,
      "chip": "ym2612"
    },
    {
      "channel": 2,
      "note": 56,
      "start": 67.8684,
      "duration": 0.0141,
      "velocity": 100,
      "chip": "ym2612"
    },
    {
      "channel": 1,
      "note": 76,
      "start": 67.8789,
      "duration": 0.016,
      "velocity": 124,
      "chip": "ym2612"
    },
    {
      "channel": 4,
      "note": 77,
      "start": 67.8802,
      "duration": 0.016,
      "velocity": 97,
      "chip": "ym2612"
    },
    {
      "channel": 3,
      "note": 80,
      "start": 67.8814,
      "duration": 0.0161,
      "velocity": 97,
      "chip": "ym2612"
    },
    {
      "channel": 2,
      "note": 56,
      "start": 67.8826,
      "duration": 0.016,
      "velocity": 100,
      "chip": "ym2612"
    },
    {
      "channel": 1,
      "note": 75,
      "start": 67.895,
      "duration": 0.0161,
      "velocity": 124,
      "chip": "ym2612"
    },
    {
      "channel": 4,
      "note": 77,
      "start": 67.8962,
      "duration": 0.0161,
      "velocity": 97,
      "chip": "ym2612"
    },
    {
      "channel": 3,
      "note": 80,
      "start": 67.8974,
      "duration": 0.0161,
      "velocity": 97,
      "chip": "ym2612"
    },
    {
      "channel": 2,
      "note": 56,
      "start": 67.8986,
      "duration": 0.0161,
      "velocity": 100,
      "chip": "ym2612"
    },
    {
      "channel": 1,
      "note": 74,
      "start": 67.9111,
      "duration": 0.0161,
      "velocity": 124,
      "chip": "ym2612"
    },
    {
      "channel": 4,
      "note": 77,
      "start": 67.9123,
      "duration": 0.0162,
      "velocity": 97,
      "chip": "ym2612"
    },
    {
      "channel": 3,
      "note": 80,
      "start": 67.9135,
      "duration": 0.0162,
      "velocity": 97,
      "chip": "ym2612"
    },
    {
      "channel": 2,
      "note": 56,
      "start": 67.9147,
      "duration": 0.0161,
      "velocity": 100,
      "chip": "ym2612"
    },
    {
      "channel": 1,
      "note": 72,
      "start": 67.9272,
      "duration": 0.0163,
      "velocity": 124,
      "chip": "ym2612"
    },
    {
      "channel": 4,
      "note": 77,
      "start": 67.9285,
      "duration": 0.0163,
      "velocity": 97,
      "chip": "ym2612"
    },
    {
      "channel": 3,
      "note": 80,
      "start": 67.9297,
      "duration": 0.0163,
      "velocity": 97,
      "chip": "ym2612"
    },
    {
      "channel": 2,
      "note": 56,
      "start": 67.9308,
      "duration": 0.0163,
      "velocity": 100,
      "chip": "ym2612"
    },
    {
      "channel": 1,
      "note": 71,
      "start": 67.9436,
      "duration": 0.0159,
      "velocity": 124,
      "chip": "ym2612"
    },
    {
      "channel": 4,
      "note": 77,
      "start": 67.9448,
      "duration": 0.0159,
      "velocity": 97,
      "chip": "ym2612"
    },
    {
      "channel": 3,
      "note": 80,
      "start": 67.946,
      "duration": 0.0158,
      "velocity": 97,
      "chip": "ym2612"
    },
    {
      "channel": 2,
      "note": 56,
      "start": 67.9471,
      "duration": 0.0159,
      "velocity": 100,
      "chip": "ym2612"
    },
    {
      "channel": 1,
      "note": 70,
      "start": 67.9594,
      "duration": 0.0178,
      "velocity": 124,
      "chip": "ym2612"
    },
    {
      "channel": 4,
      "note": 77,
      "start": 67.9607,
      "duration": 0.0178,
      "velocity": 97,
      "chip": "ym2612"
    },
    {
      "channel": 3,
      "note": 80,
      "start": 67.9618,
      "duration": 0.0179,
      "velocity": 97,
      "chip": "ym2612"
    },
    {
      "channel": 2,
      "note": 56,
      "start": 67.963,
      "duration": 0.0179,
      "velocity": 100,
      "chip": "ym2612"
    },
    {
      "channel": 1,
      "note": 69,
      "start": 67.9772,
      "duration": 0.0167,
      "velocity": 124,
      "chip": "ym2612"
    },
    {
      "channel": 4,
      "note": 77,
      "start": 67.9785,
      "duration": 0.0167,
      "velocity": 97,
      "chip": "ym2612"
    },
    {
      "channel": 3,
      "note": 80,
      "start": 67.9797,
      "duration": 0.0167,
      "velocity": 97,
      "chip": "ym2612"
    },
    {
      "channel": 2,
      "note": 56,
      "start": 67.9808,
      "duration": 0.0167,
      "velocity": 100,
      "chip": "ym2612"
    },
    {
      "channel": 1,
      "note": 68,
      "start": 67.9939,
      "duration": 0.0162,
      "velocity": 124,
      "chip": "ym2612"
    },
    {
      "channel": 4,
      "note": 77,
      "start": 67.9952,
      "duration": 0.0162,
      "velocity": 97,
      "chip": "ym2612"
    },
    {
      "channel": 3,
      "note": 80,
      "start": 67.9964,
      "duration": 0.0161,
      "velocity": 97,
      "chip": "ym2612"
    },
    {
      "channel": 2,
      "note": 56,
      "start": 67.9975,
      "duration": 0.0162,
      "velocity": 100,
      "chip": "ym2612"
    },
    {
      "channel": 1,
      "note": 66,
      "start": 68.0101,
      "duration": 0.014,
      "velocity": 124,
      "chip": "ym2612"
    },
    {
      "channel": 4,
      "note": 77,
      "start": 68.0114,
      "duration": 0.014,
      "velocity": 97,
      "chip": "ym2612"
    },
    {
      "channel": 3,
      "note": 80,
      "start": 68.0125,
      "duration": 0.014,
      "velocity": 97,
      "chip": "ym2612"
    },
    {
      "channel": 2,
      "note": 56,
      "start": 68.0137,
      "duration": 0.014,
      "velocity": 100,
      "chip": "ym2612"
    },
    {
      "channel": 1,
      "note": 65,
      "start": 68.0241,
      "duration": 0.0185,
      "velocity": 124,
      "chip": "ym2612"
    },
    {
      "channel": 4,
      "note": 77,
      "start": 68.0254,
      "duration": 0.0185,
      "velocity": 97,
      "chip": "ym2612"
    },
    {
      "channel": 3,
      "note": 80,
      "start": 68.0265,
      "duration": 0.0186,
      "velocity": 97,
      "chip": "ym2612"
    },
    {
      "channel": 1,
      "note": 64,
      "start": 68.0426,
      "duration": 0.0179,
      "velocity": 124,
      "chip": "ym2612"
    },
    {
      "channel": 4,
      "note": 77,
      "start": 68.0439,
      "duration": 0.0196,
      "velocity": 120,
      "chip": "ym2612"
    },
    {
      "channel": 3,
      "note": 80,
      "start": 68.0451,
      "duration": 0.0213,
      "velocity": 120,
      "chip": "ym2612"
    },
    {
      "channel": 1,
      "note": 78,
      "start": 68.0605,
      "duration": 0.0161,
      "velocity": 124,
      "chip": "ym2612"
    },
    {
      "channel": 4,
      "note": 62,
      "start": 68.0635,
      "duration": 0.0145,
      "velocity": 120,
      "chip": "ym2612"
    },
    {
      "channel": 3,
      "note": 69,
      "start": 68.0664,
      "duration": 0.0128,
      "velocity": 120,
      "chip": "ym2612"
    },
    {
      "channel": 2,
      "note": 50,
      "start": 68.068,
      "duration": 0.0123,
      "velocity": 100,
      "chip": "ym2612"
    },
    {
      "channel": 1,
      "note": 76,
      "start": 68.0766,
      "duration": 0.0115,
      "velocity": 124,
      "chip": "ym2612"
    },
    {
      "channel": 4,
      "note": 62,
      "start": 68.078,
      "duration": 0.0118,
      "velocity": 120,
      "chip": "ym2612"
    },
    {
      "channel": 3,
      "note": 69,
      "start": 68.0792,
      "duration": 0.0117,
      "velocity": 120,
      "chip": "ym2612"
    },
    {
      "channel": 2,
      "note": 50,
      "start": 68.0803,
      "duration": 0.0117,
      "velocity": 100,
      "chip": "ym2612"
    },
    {
      "channel": 1,
      "note": 75,
      "start": 68.0882,
      "duration": 0.0161,
      "velocity": 124,
      "chip": "ym2612"
    },
    {
      "channel": 4,
      "note": 62,
      "start": 68.0898,
      "duration": 0.0158,
      "velocity": 120,
      "chip": "ym2612"
    },
    {
      "channel": 3,
      "note": 69,
      "start": 68.0909,
      "duration": 0.0186,
      "velocity": 120,
      "chip": "ym2612"
    },
    {
      "channel": 2,
      "note": 50,
      "start": 68.092,
      "duration": 0.0186,
      "velocity": 100,
      "chip": "ym2612"
    },
    {
      "channel": 1,
      "note": 74,
      "start": 68.1043,
      "duration": 0.0161,
      "velocity": 124,
      "chip": "ym2612"
    },
    {
      "channel": 4,
      "note": 62,
      "start": 68.1055,
      "duration": 0.0161,
      "velocity": 120,
      "chip": "ym2612"
    },
    {
      "channel": 3,
      "note": 69,
      "start": 68.1095,
      "duration": 0.0161,
      "velocity": 120,
      "chip": "ym2612"
    },
    {
      "channel": 2,
      "note": 50,
      "start": 68.1106,
      "duration": 0.0161,
      "velocity": 100,
      "chip": "ym2612"
    },
    {
      "channel": 1,
      "note": 72,
      "start": 68.1204,
      "duration": 0.0161,
      "velocity": 124,
      "chip": "ym2612"
    },
    {
      "channel": 4,
      "note": 62,
      "start": 68.1216,
      "duration": 0.0162,
      "velocity": 120,
      "chip": "ym2612"
    },
    {
      "channel": 3,
      "note": 69,
      "start": 68.1256,
      "duration": 0.0134,
      "velocity": 120,
      "chip": "ym2612"
    },
    {
      "channel": 2,
      "note": 50,
      "start": 68.1267,
      "duration": 0.0157,
      "velocity": 100,
      "chip": "ym2612"
    },
    {
      "channel": 1,
      "note": 71,
      "start": 68.1365,
      "duration": 0.0179,
      "velocity": 124,
      "chip": "ym2612"
    },
    {
      "channel": 4,
      "note": 62,
      "start": 68.1378,
      "duration": 0.0179,
      "velocity": 120,
      "chip": "ym2612"
    },
    {
      "channel": 3,
      "note": 69,
      "start": 68.1389,
      "duration": 0.0182,
      "velocity": 120,
      "chip": "ym2612"
    },
    {
      "channel": 2,
      "note": 50,
      "start": 68.1424,
      "duration": 0.0158,
      "velocity": 100,
      "chip": "ym2612"
    },
    {
      "channel": 1,
      "note": 78,
      "start": 68.1544,
      "duration": 0.0144,
      "velocity": 124,
      "chip": "ym2612"
    },
    {
      "channel": 4,
      "note": 62,
      "start": 68.1556,
      "duration": 0.0144,
      "velocity": 120,
      "chip": "ym2612"
    },
    {
      "channel": 3,
      "note": 69,
      "start": 68.1571,
      "duration": 0.0141,
      "velocity": 120,
      "chip": "ym2612"
    },
    {
      "channel": 2,
      "note": 50,
      "start": 68.1583,
      "duration": 0.0141,
      "velocity": 100,
      "chip": "ym2612"
    },
    {
      "channel": 1,
      "note": 76,
      "start": 68.1688,
      "duration": 0.016,
      "velocity": 124,
      "chip": "ym2612"
    },
    {
      "channel": 4,
      "note": 62,
      "start": 68.17,
      "duration": 0.016,
      "velocity": 120,
      "chip": "ym2612"
    },
    {
      "channel": 3,
      "note": 69,
      "start": 68.1712,
      "duration": 0.016,
      "velocity": 120,
      "chip": "ym2612"
    },
    {
      "channel": 1,
      "note": 75,
      "start": 68.1848,
      "duration": 0.0161,
      "velocity": 124,
      "chip": "ym2612"
    },
    {
      "channel": 4,
      "note": 62,
      "start": 68.1861,
      "duration": 0.0161,
      "velocity": 120,
      "chip": "ym2612"
    },
    {
      "channel": 3,
      "note": 69,
      "start": 68.1872,
      "duration": 0.0161,
      "velocity": 120,
      "chip": "ym2612"
    },
    {
      "channel": 1,
      "note": 74,
      "start": 68.2009,
      "duration": 0.0161,
      "velocity": 124,
      "chip": "ym2612"
    },
    {
      "channel": 4,
      "note": 62,
      "start": 68.2022,
      "duration": 0.0161,
      "velocity": 120,
      "chip": "ym2612"
    },
    {
      "channel": 3,
      "note": 69,
      "start": 68.2033,
      "duration": 0.0161,
      "velocity": 120,
      "chip": "ym2612"
    },
    {
      "channel": 1,
      "note": 72,
      "start": 68.217,
      "duration": 0.0161,
      "velocity": 124,
      "chip": "ym2612"
    },
    {
      "channel": 4,
      "note": 62,
      "start": 68.2183,
      "duration": 0.0161,
      "velocity": 120,
      "chip": "ym2612"
    },
    {
      "channel": 3,
      "note": 69,
      "start": 68.2194,
      "duration": 0.0161,
      "velocity": 120,
      "chip": "ym2612"
    },
    {
      "channel": 1,
      "note": 71,
      "start": 68.2331,
      "duration": 0.0179,
      "velocity": 124,
      "chip": "ym2612"
    },
    {
      "channel": 4,
      "note": 62,
      "start": 68.2343,
      "duration": 0.018,
      "velocity": 120,
      "chip": "ym2612"
    },
    {
      "channel": 3,
      "note": 69,
      "start": 68.2355,
      "duration": 0.0179,
      "velocity": 120,
      "chip": "ym2612"
    },
    {
      "channel": 1,
      "note": 78,
      "start": 68.251,
      "duration": 0.0144,
      "velocity": 124,
      "chip": "ym2612"
    },
    {
      "channel": 4,
      "note": 62,
      "start": 68.2523,
      "duration": 0.0144,
      "velocity": 120,
      "chip": "ym2612"
    },
    {
      "channel": 3,
      "note": 69,
      "start": 68.2534,
      "duration": 0.0144,
      "velocity": 120,
      "chip": "ym2612"
    },
    {
      "channel": 2,
      "note": 50,
      "start": 68.2549,
      "duration": 0.0141,
      "velocity": 100,
      "chip": "ym2612"
    },
    {
      "channel": 1,
      "note": 76,
      "start": 68.2654,
      "duration": 0.016,
      "velocity": 124,
      "chip": "ym2612"
    },
    {
      "channel": 4,
      "note": 62,
      "start": 68.2667,
      "duration": 0.016,
      "velocity": 120,
      "chip": "ym2612"
    },
    {
      "channel": 3,
      "note": 69,
      "start": 68.2678,
      "duration": 0.016,
      "velocity": 120,
      "chip": "ym2612"
    },
    {
      "channel": 2,
      "note": 50,
      "start": 68.269,
      "duration": 0.016,
      "velocity": 100,
      "chip": "ym2612"
    },
    {
      "channel": 1,
      "note": 75,
      "start": 68.2814,
      "duration": 0.0161,
      "velocity": 124,
      "chip": "ym2612"
    },
    {
      "channel": 4,
      "note": 62,
      "start": 68.2827,
      "duration": 0.0161,
      "velocity": 120,
      "chip": "ym2612"
    },
    {
      "channel": 3,
      "note": 69,
      "start": 68.2838,
      "duration": 0.0161,
      "velocity": 120,
      "chip": "ym2612"
    },
    {
      "channel": 2,
      "note": 50,
      "start": 68.285,
      "duration": 0.0161,
      "velocity": 100,
      "chip": "ym2612"
    },
    {
      "channel": 1,
      "note": 74,
      "start": 68.2975,
      "duration": 0.0161,
      "velocity": 124,
      "chip": "ym2612"
    },
    {
      "channel": 4,
      "note": 62,
      "start": 68.2988,
      "duration": 0.0161,
      "velocity": 120,
      "chip": "ym2612"
    },
    {
      "channel": 3,
      "note": 69,
      "start": 68.2999,
      "duration": 0.0161,
      "velocity": 120,
      "chip": "ym2612"
    },
    {
      "channel": 2,
      "note": 50,
      "start": 68.3011,
      "duration": 0.0161,
      "velocity": 100,
      "chip": "ym2612"
    },
    {
      "channel": 1,
      "note": 72,
      "start": 68.3136,
      "duration": 0.0161,
      "velocity": 124,
      "chip": "ym2612"
    },
    {
      "channel": 4,
      "note": 62,
      "start": 68.3149,
      "duration": 0.0161,
      "velocity": 120,
      "chip": "ym2612"
    },
    {
      "channel": 3,
      "note": 69,
      "start": 68.316,
      "duration": 0.0161,
      "velocity": 120,
      "chip": "ym2612"
    },
    {
      "channel": 2,
      "note": 50,
      "start": 68.3172,
      "duration": 0.0161,
      "velocity": 100,
      "chip": "ym2612"
    },
    {
      "channel": 1,
      "note": 71,
      "start": 68.3297,
      "duration": 0.0161,
      "velocity": 124,
      "chip": "ym2612"
    },
    {
      "channel": 4,
      "note": 62,
      "start": 68.331,
      "duration": 0.0161,
      "velocity": 120,
      "chip": "ym2612"
    },
    {
      "channel": 3,
      "note": 69,
      "start": 68.3321,
      "duration": 0.0162,
      "velocity": 120,
      "chip": "ym2612"
    },
    {
      "channel": 2,
      "note": 50,
      "start": 68.3333,
      "duration": 0.0161,
      "velocity": 100,
      "chip": "ym2612"
    },
    {
      "channel": 1,
      "note": 70,
      "start": 68.3458,
      "duration": 0.0161,
      "velocity": 124,
      "chip": "ym2612"
    },
    {
      "channel": 4,
      "note": 62,
      "start": 68.3471,
      "duration": 0.0161,
      "velocity": 120,
      "chip": "ym2612"
    },
    {
      "channel": 3,
      "note": 69,
      "start": 68.3483,
      "duration": 0.0161,
      "velocity": 120,
      "chip": "ym2612"
    },
    {
      "channel": 2,
      "note": 50,
      "start": 68.3494,
      "duration": 0.0161,
      "velocity": 100,
      "chip": "ym2612"
    },
    {
      "channel": 1,
      "note": 69,
      "start": 68.3619,
      "duration": 0.0161,
      "velocity": 124,
      "chip": "ym2612"
    },
    {
      "channel": 4,
      "note": 62,
      "start": 68.3632,
      "duration": 0.0162,
      "velocity": 120,
      "chip": "ym2612"
    },
    {
      "channel": 3,
      "note": 69,
      "start": 68.3644,
      "duration": 0.0161,
      "velocity": 120,
      "chip": "ym2612"
    },
    {
      "channel": 1,
      "note": 68,
      "start": 68.378,
      "duration": 0.0161,
      "velocity": 124,
      "chip": "ym2612"
    },
    {
      "channel": 4,
      "note": 62,
      "start": 68.3793,
      "duration": 0.0161,
      "velocity": 120,
      "chip": "ym2612"
    },
    {
      "channel": 3,
      "note": 69,
      "start": 68.3805,
      "duration": 0.0161,
      "velocity": 120,
      "chip": "ym2612"
    },
    {
      "channel": 1,
      "note": 66,
      "start": 68.3941,
      "duration": 0.0161,
      "velocity": 124,
      "chip": "ym2612"
    },
    {
      "channel": 4,
      "note": 62,
      "start": 68.3954,
      "duration": 0.0161,
      "velocity": 120,
      "chip": "ym2612"
    },
    {
      "channel": 3,
      "note": 69,
      "start": 68.3966,
      "duration": 0.0162,
      "velocity": 120,
      "chip": "ym2612"
    },
    {
      "channel": 1,
      "note": 65,
      "start": 68.4102,
      "duration": 0.0161,
      "velocity": 124,
      "chip": "ym2612"
    },
    {
      "channel": 4,
      "note": 62,
      "start": 68.4115,
      "duration": 0.0161,
      "velocity": 120,
      "chip": "ym2612"
    },
    {
      "channel": 3,
      "note": 69,
      "start": 68.4127,
      "duration": 0.016,
      "velocity": 120,
      "chip": "ym2612"
    },
    {
      "channel": 1,
      "note": 64,
      "start": 68.4263,
      "duration": 0.0176,
      "velocity": 124,
      "chip": "ym2612"
    },
    {
      "channel": 4,
      "note": 62,
      "start": 68.4276,
      "duration": 0.0176,
      "velocity": 120,
      "chip": "ym2612"
    },
    {
      "channel": 3,
      "note": 69,
      "start": 68.4288,
      "duration": 0.0176,
      "velocity": 120,
      "chip": "ym2612"
    },
    {
      "channel": 1,
      "note": 62,
      "start": 68.4439,
      "duration": 0.0166,
      "velocity": 124,
      "chip": "ym2612"
    },
    {
      "channel": 4,
      "note": 62,
      "start": 68.4452,
      "duration": 0.0166,
      "velocity": 120,
      "chip": "ym2612"
    },
    {
      "channel": 3,
      "note": 69,
      "start": 68.4464,
      "duration": 0.0167,
      "velocity": 120,
      "chip": "ym2612"
    },
    {
      "channel": 2,
      "note": 50,
      "start": 68.4479,
      "duration": 0.0163,
      "velocity": 100,
      "chip": "ym2612"
    },
    {
      "channel": 1,
      "note": 61,
      "start": 68.4605,
      "duration": 0.0163,
      "velocity": 124,
      "chip": "ym2612"
    },
    {
      "channel": 4,
      "note": 62,
      "start": 68.4618,
      "duration": 0.0163,
      "velocity": 120,
      "chip": "ym2612"
    },
    {
      "channel": 3,
      "note": 69,
      "start": 68.463,
      "duration": 0.0163,
      "velocity": 120,
      "chip": "ym2612"
    },
    {
      "channel": 2,
      "note": 50,
      "start": 68.4642,
      "duration": 0.0163,
      "velocity": 100,
      "chip": "ym2612"
    },
    {
      "channel": 1,
      "note": 60,
      "start": 68.4769,
      "duration": 0.0141,
      "velocity": 124,
      "chip": "ym2612"
    },
    {
      "channel": 4,
      "note": 62,
      "start": 68.4782,
      "duration": 0.0141,
      "velocity": 120,
      "chip": "ym2612"
    },
    {
      "channel": 3,
      "note": 69,
      "start": 68.4793,
      "duration": 0.0141,
      "velocity": 120,
      "chip": "ym2612"
    },
    {
      "channel": 2,
      "note": 50,
      "start": 68.4805,
      "duration": 0.0141,
      "velocity": 100,
      "chip": "ym2612"
    },
    {
      "channel": 1,
      "note": 59,
      "start": 68.491,
      "duration": 0.0186,
      "velocity": 124,
      "chip": "ym2612"
    },
    {
      "channel": 4,
      "note": 62,
      "start": 68.4923,
      "duration": 0.0186,
      "velocity": 120,
      "chip": "ym2612"
    },
    {
      "channel": 3,
      "note": 69,
      "start": 68.4934,
      "duration": 0.0186,
      "velocity": 120,
      "chip": "ym2612"
    },
    {
      "channel": 2,
      "note": 50,
      "start": 68.4946,
      "duration": 0.0186,
      "velocity": 100,
      "chip": "ym2612"
    },
    {
      "channel": 1,
      "note": 57,
      "start": 68.5096,
      "duration": 0.0161,
      "velocity": 124,
      "chip": "ym2612"
    },
    {
      "channel": 4,
      "note": 62,
      "start": 68.5109,
      "duration": 0.0161,
      "velocity": 120,
      "chip": "ym2612"
    },
    {
      "channel": 3,
      "note": 69,
      "start": 68.5121,
      "duration": 0.016,
      "velocity": 120,
      "chip": "ym2612"
    },
    {
      "channel": 2,
      "note": 50,
      "start": 68.5132,
      "duration": 0.0161,
      "velocity": 100,
      "chip": "ym2612"
    },
    {
      "channel": 1,
      "note": 56,
      "start": 68.5257,
      "duration": 0.0134,
      "velocity": 124,
      "chip": "ym2612"
    },
    {
      "channel": 4,
      "note": 62,
      "start": 68.527,
      "duration": 0.0157,
      "velocity": 120,
      "chip": "ym2612"
    },
    {
      "channel": 3,
      "note": 69,
      "start": 68.5281,
      "duration": 0.0157,
      "velocity": 120,
      "chip": "ym2612"
    },
    {
      "channel": 2,
      "note": 50,
      "start": 68.5293,
      "duration": 0.0157,
      "velocity": 100,
      "chip": "ym2612"
    },
    {
      "channel": 1,
      "note": 55,
      "start": 68.539,
      "duration": 0.0161,
      "velocity": 124,
      "chip": "ym2612"
    },
    {
      "channel": 4,
      "note": 62,
      "start": 68.5427,
      "duration": 0.0141,
      "velocity": 120,
      "chip": "ym2612"
    },
    {
      "channel": 3,
      "note": 69,
      "start": 68.5438,
      "duration": 0.0141,
      "velocity": 120,
      "chip": "ym2612"
    },
    {
      "channel": 2,
      "note": 50,
      "start": 68.545,
      "duration": 0.0141,
      "velocity": 100,
      "chip": "ym2612"
    },
    {
      "channel": 1,
      "note": 53,
      "start": 68.5551,
      "duration": 0.0161,
      "velocity": 124,
      "chip": "ym2612"
    },
    {
      "channel": 4,
      "note": 62,
      "start": 68.5567,
      "duration": 0.0158,
      "velocity": 120,
      "chip": "ym2612"
    },
    {
      "channel": 3,
      "note": 69,
      "start": 68.5579,
      "duration": 0.0186,
      "velocity": 120,
      "chip": "ym2612"
    },
    {
      "channel": 1,
      "note": 52,
      "start": 68.5712,
      "duration": 0.0161,
      "velocity": 124,
      "chip": "ym2612"
    },
    {
      "channel": 4,
      "note": 62,
      "start": 68.5725,
      "duration": 0.0161,
      "velocity": 120,
      "chip": "ym2612"
    },
    {
      "channel": 3,
      "note": 69,
      "start": 68.5765,
      "duration": 0.0161,
      "velocity": 120,
      "chip": "ym2612"
    },
    {
      "channel": 1,
      "note": 51,
      "start": 68.5873,
      "duration": 0.0153,
      "velocity": 1,
      "chip": "ym2612"
    },
    {
      "channel": 4,
      "note": 62,
      "start": 68.5886,
      "duration": 0.0153,
      "velocity": 120,
      "chip": "ym2612"
    },
    {
      "channel": 3,
      "note": 69,
      "start": 68.5925,
      "duration": 0.0125,
      "velocity": 120,
      "chip": "ym2612"
    },
    {
      "channel": 4,
      "note": 62,
      "start": 68.6039,
      "duration": 0.0153,
      "velocity": 120,
      "chip": "ym2612"
    },
    {
      "channel": 3,
      "note": 69,
      "start": 68.6051,
      "duration": 0.0153,
      "velocity": 120,
      "chip": "ym2612"
    },
    {
      "channel": 4,
      "note": 62,
      "start": 68.6191,
      "duration": 0.0161,
      "velocity": 120,
      "chip": "ym2612"
    },
    {
      "channel": 3,
      "note": 69,
      "start": 68.6203,
      "duration": 0.0161,
      "velocity": 120,
      "chip": "ym2612"
    },
    {
      "channel": 4,
      "note": 62,
      "start": 68.6352,
      "duration": 0.0161,
      "velocity": 120,
      "chip": "ym2612"
    },
    {
      "channel": 3,
      "note": 69,
      "start": 68.6364,
      "duration": 0.0161,
      "velocity": 120,
      "chip": "ym2612"
    },
    {
      "channel": 2,
      "note": 50,
      "start": 68.638,
      "duration": 0.0157,
      "velocity": 100,
      "chip": "ym2612"
    },
    {
      "channel": 1,
      "note": 38,
      "start": 68.6422,
      "duration": 0.0127,
      "velocity": 100,
      "chip": "ym2612"
    },
    {
      "channel": 4,
      "note": 62,
      "start": 68.6513,
      "duration": 0.0161,
      "velocity": 120,
      "chip": "ym2612"
    },
    {
      "channel": 3,
      "note": 69,
      "start": 68.6525,
      "duration": 0.0161,
      "velocity": 120,
      "chip": "ym2612"
    },
    {
      "channel": 2,
      "note": 50,
      "start": 68.6537,
      "duration": 0.0161,
      "velocity": 100,
      "chip": "ym2612"
    },
    {
      "channel": 1,
      "note": 38,
      "start": 68.6549,
      "duration": 0.016,
      "velocity": 100,
      "chip": "ym2612"
    },
    {
      "channel": 4,
      "note": 62,
      "start": 68.6674,
      "duration": 0.0161,
      "velocity": 120,
      "chip": "ym2612"
    },
    {
      "channel": 3,
      "note": 69,
      "start": 68.6686,
      "duration": 0.0161,
      "velocity": 120,
      "chip": "ym2612"
    },
    {
      "channel": 2,
      "note": 50,
      "start": 68.6698,
      "duration": 0.0161,
      "velocity": 100,
      "chip": "ym2612"
    },
    {
      "channel": 1,
      "note": 38,
      "start": 68.6709,
      "duration": 0.0161,
      "velocity": 100,
      "chip": "ym2612"
    },
    {
      "channel": 4,
      "note": 62,
      "start": 68.6835,
      "duration": 0.0161,
      "velocity": 120,
      "chip": "ym2612"
    },
    {
      "channel": 3,
      "note": 69,
      "start": 68.6847,
      "duration": 0.0161,
      "velocity": 120,
      "chip": "ym2612"
    },
    {
      "channel": 2,
      "note": 50,
      "start": 68.6859,
      "duration": 0.0161,
      "velocity": 100,
      "chip": "ym2612"
    },
    {
      "channel": 1,
      "note": 38,
      "start": 68.6869,
      "duration": 0.0162,
      "velocity": 100,
      "chip": "ym2612"
    },
    {
      "channel": 4,
      "note": 62,
      "start": 68.6997,
      "duration": 0.0161,
      "velocity": 120,
      "chip": "ym2612"
    },
    {
      "channel": 3,
      "note": 69,
      "start": 68.7008,
      "duration": 0.0161,
      "velocity": 120,
      "chip": "ym2612"
    },
    {
      "channel": 2,
      "note": 50,
      "start": 68.702,
      "duration": 0.0161,
      "velocity": 100,
      "chip": "ym2612"
    },
    {
      "channel": 1,
      "note": 38,
      "start": 68.7031,
      "duration": 0.0161,
      "velocity": 100,
      "chip": "ym2612"
    },
    {
      "channel": 4,
      "note": 62,
      "start": 68.7158,
      "duration": 0.0161,
      "velocity": 120,
      "chip": "ym2612"
    },
    {
      "channel": 3,
      "note": 69,
      "start": 68.7169,
      "duration": 0.0161,
      "velocity": 120,
      "chip": "ym2612"
    },
    {
      "channel": 2,
      "note": 50,
      "start": 68.718,
      "duration": 0.0161,
      "velocity": 100,
      "chip": "ym2612"
    },
    {
      "channel": 1,
      "note": 38,
      "start": 68.7192,
      "duration": 0.0161,
      "velocity": 100,
      "chip": "ym2612"
    },
    {
      "channel": 4,
      "note": 62,
      "start": 68.7319,
      "duration": 0.0161,
      "velocity": 120,
      "chip": "ym2612"
    },
    {
      "channel": 3,
      "note": 69,
      "start": 68.733,
      "duration": 0.0161,
      "velocity": 120,
      "chip": "ym2612"
    },
    {
      "channel": 2,
      "note": 50,
      "start": 68.7341,
      "duration": 0.0161,
      "velocity": 100,
      "chip": "ym2612"
    },
    {
      "channel": 1,
      "note": 38,
      "start": 68.7353,
      "duration": 0.0161,
      "velocity": 100,
      "chip": "ym2612"
    },
    {
      "channel": 4,
      "note": 62,
      "start": 68.748,
      "duration": 0.0161,
      "velocity": 120,
      "chip": "ym2612"
    },
    {
      "channel": 3,
      "note": 69,
      "start": 68.7491,
      "duration": 0.0162,
      "velocity": 120,
      "chip": "ym2612"
    },
    {
      "channel": 4,
      "note": 62,
      "start": 68.7641,
      "duration": 0.0161,
      "velocity": 120,
      "chip": "ym2612"
    },
    {
      "channel": 3,
      "note": 69,
      "start": 68.7653,
      "duration": 0.0161,
      "velocity": 120,
      "chip": "ym2612"
    },
    {
      "channel": 4,
      "note": 62,
      "start": 68.7801,
      "duration": 0.0161,
      "velocity": 120,
      "chip": "ym2612"
    },
    {
      "channel": 3,
      "note": 69,
      "start": 68.7814,
      "duration": 0.0161,
      "velocity": 120,
      "chip": "ym2612"
    },
    {
      "channel": 4,
      "note": 62,
      "start": 68.7962,
      "duration": 0.0161,
      "velocity": 120,
      "chip": "ym2612"
    },
    {
      "channel": 3,
      "note": 69,
      "start": 68.7974,
      "duration": 0.0161,
      "velocity": 120,
      "chip": "ym2612"
    },
    {
      "channel": 4,
      "note": 62,
      "start": 68.8123,
      "duration": 0.0161,
      "velocity": 120,
      "chip": "ym2612"
    },
    {
      "channel": 3,
      "note": 69,
      "start": 68.8135,
      "duration": 0.0161,
      "velocity": 120,
      "chip": "ym2612"
    },
    {
      "channel": 4,
      "note": 62,
      "start": 68.8284,
      "duration": 0.0161,
      "velocity": 120,
      "chip": "ym2612"
    },
    {
      "channel": 3,
      "note": 69,
      "start": 68.8296,
      "duration": 0.0161,
      "velocity": 120,
      "chip": "ym2612"
    },
    {
      "channel": 2,
      "note": 50,
      "start": 68.8312,
      "duration": 0.0158,
      "velocity": 100,
      "chip": "ym2612"
    },
    {
      "channel": 1,
      "note": 38,
      "start": 68.8327,
      "duration": 0.0154,
      "velocity": 100,
      "chip": "ym2612"
    },
    {
      "channel": 4,
      "note": 62,
      "start": 68.8446,
      "duration": 0.0161,
      "velocity": 120,
      "chip": "ym2612"
    },
    {
      "channel": 3,
      "note": 69,
      "start": 68.8457,
      "duration": 0.0161,
      "velocity": 120,
      "chip": "ym2612"
    },
    {
      "channel": 2,
      "note": 50,
      "start": 68.8469,
      "duration": 0.016,
      "velocity": 100,
      "chip": "ym2612"
    },
    {
      "channel": 1,
      "note": 38,
      "start": 68.8481,
      "duration": 0.016,
      "velocity": 100,
      "chip": "ym2612"
    },
    {
      "channel": 4,
      "note": 62,
      "start": 68.8607,
      "duration": 0.0161,
      "velocity": 120,
      "chip": "ym2612"
    },
    {
      "channel": 3,
      "note": 69,
      "start": 68.8618,
      "duration": 0.0161,
      "velocity": 120,
      "chip": "ym2612"
    },
    {
      "channel": 2,
      "note": 50,
      "start": 68.863,
      "duration": 0.0161,
      "velocity": 100,
      "chip": "ym2612"
    },
    {
      "channel": 1,
      "note": 38,
      "start": 68.8641,
      "duration": 0.0161,
      "velocity": 100,
      "chip": "ym2612"
    },
    {
      "channel": 4,
      "note": 62,
      "start": 68.8768,
      "duration": 0.0161,
      "velocity": 120,
      "chip": "ym2612"
    },
    {
      "channel": 3,
      "note": 69,
      "start": 68.8779,
      "duration": 0.0162,
      "velocity": 120,
      "chip": "ym2612"
    },
    {
      "channel": 2,
      "note": 50,
      "start": 68.8791,
      "duration": 0.0161,
      "velocity": 100,
      "chip": "ym2612"
    },
    {
      "channel": 1,
      "note": 38,
      "start": 68.8802,
      "duration": 0.0162,
      "velocity": 100,
      "chip": "ym2612"
    },
    {
      "channel": 4,
      "note": 62,
      "start": 68.8929,
      "duration": 0.0173,
      "velocity": 120,
      "chip": "ym2612"
    },
    {
      "channel": 3,
      "note": 69,
      "start": 68.8941,
      "duration": 0.0173,
      "velocity": 120,
      "chip": "ym2612"
    },
    {
      "channel": 2,
      "note": 50,
      "start": 68.8952,
      "duration": 0.0173,
      "velocity": 100,
      "chip": "ym2612"
    },
    {
      "channel": 1,
      "note": 38,
      "start": 68.8964,
      "duration": 0.0172,
      "velocity": 100,
      "chip": "ym2612"
    },
    {
      "channel": 4,
      "note": 62,
      "start": 68.9102,
      "duration": 0.0167,
      "velocity": 120,
      "chip": "ym2612"
    },
    {
      "channel": 3,
      "note": 69,
      "start": 68.9114,
      "duration": 0.0167,
      "velocity": 120,
      "chip": "ym2612"
    },
    {
      "channel": 2,
      "note": 50,
      "start": 68.9125,
      "duration": 0.0167,
      "velocity": 100,
      "chip": "ym2612"
    },
    {
      "channel": 1,
      "note": 38,
      "start": 68.9136,
      "duration": 0.0167,
      "velocity": 100,
      "chip": "ym2612"
    },
    {
      "channel": 4,
      "note": 62,
      "start": 68.9269,
      "duration": 0.0163,
      "velocity": 120,
      "chip": "ym2612"
    },
    {
      "channel": 3,
      "note": 69,
      "start": 68.928,
      "duration": 0.0163,
      "velocity": 120,
      "chip": "ym2612"
    },
    {
      "channel": 2,
      "note": 50,
      "start": 68.9292,
      "duration": 0.0163,
      "velocity": 100,
      "chip": "ym2612"
    },
    {
      "channel": 1,
      "note": 38,
      "start": 68.9303,
      "duration": 0.0163,
      "velocity": 100,
      "chip": "ym2612"
    },
    {
      "channel": 4,
      "note": 62,
      "start": 68.9432,
      "duration": 0.0144,
      "velocity": 120,
      "chip": "ym2612"
    },
    {
      "channel": 3,
      "note": 69,
      "start": 68.9443,
      "duration": 0.0144,
      "velocity": 120,
      "chip": "ym2612"
    },
    {
      "channel": 4,
      "note": 62,
      "start": 68.9576,
      "duration": 0.0186,
      "velocity": 120,
      "chip": "ym2612"
    },
    {
      "channel": 3,
      "note": 69,
      "start": 68.9588,
      "duration": 0.0185,
      "velocity": 120,
      "chip": "ym2612"
    },
    {
      "channel": 4,
      "note": 62,
      "start": 68.9761,
      "duration": 0.0161,
      "velocity": 120,
      "chip": "ym2612"
    },
    {
      "channel": 3,
      "note": 69,
      "start": 68.9773,
      "duration": 0.0161,
      "velocity": 120,
      "chip": "ym2612"
    },
    {
      "channel": 4,
      "note": 62,
      "start": 68.9922,
      "duration": 0.0134,
      "velocity": 120,
      "chip": "ym2612"
    },
    {
      "channel": 3,
      "note": 69,
      "start": 68.9934,
      "duration": 0.0158,
      "velocity": 120,
      "chip": "ym2612"
    },
    {
      "channel": 4,
      "note": 62,
      "start": 69.0056,
      "duration": 0.0199,
      "velocity": 120,
      "chip": "ym2612"
    },
    {
      "channel": 3,
      "note": 69,
      "start": 69.0091,
      "duration": 0.0175,
      "velocity": 120,
      "chip": "ym2612"
    },
    {
      "channel": 1,
      "note": 78,
      "start": 69.0242,
      "duration": 0.0141,
      "velocity": 124,
      "chip": "ym2612"
    },
    {
      "channel": 4,
      "note": 62,
      "start": 69.0254,
      "duration": 0.0168,
      "velocity": 120,
      "chip": "ym2612"
    },
    {
      "channel": 3,
      "note": 69,
      "start": 69.0266,
      "duration": 0.0167,
      "velocity": 120,
      "chip": "ym2612"
    },
    {
      "channel": 2,
      "note": 50,
      "start": 69.0282,
      "duration": 0.0164,
      "velocity": 100,
      "chip": "ym2612"
    },
    {
      "channel": 1,
      "note": 76,
      "start": 69.0382,
      "duration": 0.016,
      "velocity": 124,
      "chip": "ym2612"
    },
    {
      "channel": 4,
      "note": 62,
      "start": 69.0422,
      "duration": 0.0133,
      "velocity": 120,
      "chip": "ym2612"
    },
    {
      "channel": 3,
      "note": 69,
      "start": 69.0434,
      "duration": 0.0161,
      "velocity": 120,
      "chip": "ym2612"
    },
    {
      "channel": 2,
      "note": 50,
      "start": 69.0446,
      "duration": 0.016,
      "velocity": 100,
      "chip": "ym2612"
    },
    {
      "channel": 1,
      "note": 75,
      "start": 69.0542,
      "duration": 0.0161,
      "velocity": 124,
      "chip": "ym2612"
    },
    {
      "channel": 4,
      "note": 62,
      "start": 69.0555,
      "duration": 0.0161,
      "velocity": 120,
      "chip": "ym2612"
    },
    {
      "channel": 3,
      "note": 69,
      "start": 69.0595,
      "duration": 0.0157,
      "velocity": 120,
      "chip": "ym2612"
    },
    {
      "channel": 2,
      "note": 50,
      "start": 69.0605,
      "duration": 0.0158,
      "velocity": 100,
      "chip": "ym2612"
    },
    {
      "channel": 1,
      "note": 74,
      "start": 69.0703,
      "duration": 0.0161,
      "velocity": 124,
      "chip": "ym2612"
    },
    {
      "channel": 4,
      "note": 62,
      "start": 69.0716,
      "duration": 0.0161,
      "velocity": 120,
      "chip": "ym2612"
    },
    {
      "channel": 3,
      "note": 69,
      "start": 69.0752,
      "duration": 0.0137,
      "velocity": 120,
      "chip": "ym2612"
    },
    {
      "channel": 2,
      "note": 50,
      "start": 69.0763,
      "duration": 0.0141,
      "velocity": 100,
      "chip": "ym2612"
    },
    {
      "channel": 1,
      "note": 72,
      "start": 69.0864,
      "duration": 0.0161,
      "velocity": 124,
      "chip": "ym2612"
    },
    {
      "channel": 4,
      "note": 62,
      "start": 69.0877,
      "duration": 0.0161,
      "velocity": 120,
      "chip": "ym2612"
    },
    {
      "channel": 3,
      "note": 69,
      "start": 69.0889,
      "duration": 0.0161,
      "velocity": 120,
      "chip": "ym2612"
    },
    {
      "channel": 2,
      "note": 50,
      "start": 69.0904,
      "duration": 0.0185,
      "velocity": 100,
      "chip": "ym2612"
    },
    {
      "channel": 1,
      "note": 71,
      "start": 69.1025,
      "duration": 0.0179,
      "velocity": 124,
      "chip": "ym2612"
    },
    {
      "channel": 4,
      "note": 62,
      "start": 69.1038,
      "duration": 0.0179,
      "velocity": 120,
      "chip": "ym2612"
    },
    {
      "channel": 3,
      "note": 69,
      "start": 69.105,
      "duration": 0.0206,
      "velocity": 120,
      "chip": "ym2612"
    },
    {
      "channel": 2,
      "note": 50,
      "start": 69.1089,
      "duration": 0.0179,
      "velocity": 100,
      "chip": "ym2612"
    },
    {
      "channel": 1,
      "note": 78,
      "start": 69.1205,
      "duration": 0.0143,
      "velocity": 124,
      "chip": "ym2612"
    },
    {
      "channel": 4,
      "note": 62,
      "start": 69.1217,
      "duration": 0.0143,
      "velocity": 120,
      "chip": "ym2612"
    },
    {
      "channel": 3,
      "note": 69,
      "start": 69.1256,
      "duration": 0.0116,
      "velocity": 120,
      "chip": "ym2612"
    },
    {
      "channel": 2,
      "note": 50,
      "start": 69.1268,
      "duration": 0.0116,
      "velocity": 100,
      "chip": "ym2612"
    },
    {
      "channel": 1,
      "note": 76,
      "start": 69.1348,
      "duration": 0.0161,
      "velocity": 124,
      "chip": "ym2612"
    },
    {
      "channel": 4,
      "note": 62,
      "start": 69.1361,
      "duration": 0.0161,
      "velocity": 120,
      "chip": "ym2612"
    },
    {
      "channel": 3,
      "note": 69,
      "start": 69.1373,
      "duration": 0.0161,
      "velocity": 120,
      "chip": "ym2612"
    },
    {
      "channel": 1,
      "note": 75,
      "start": 69.1509,
      "duration": 0.0161,
      "velocity": 124,
      "chip": "ym2612"
    },
    {
      "channel": 4,
      "note": 62,
      "start": 69.1522,
      "duration": 0.0161,
      "velocity": 120,
      "chip": "ym2612"
    },
    {
      "channel": 3,
      "note": 69,
      "start": 69.1534,
      "duration": 0.016,
      "velocity": 120,
      "chip": "ym2612"
    },
    {
      "channel": 1,
      "note": 74,
      "start": 69.167,
      "duration": 0.0161,
      "velocity": 124,
      "chip": "ym2612"
    },
    {
      "channel": 4,
      "note": 62,
      "start": 69.1683,
      "duration": 0.0161,
      "velocity": 120,
      "chip": "ym2612"
    },
    {
      "channel": 3,
      "note": 69,
      "start": 69.1694,
      "duration": 0.0161,
      "velocity": 120,
      "chip": "ym2612"
    },
    {
      "channel": 1,
      "note": 72,
      "start": 69.1831,
      "duration": 0.0161,
      "velocity": 124,
      "chip": "ym2612"
    },
    {
      "channel": 4,
      "note": 62,
      "start": 69.1843,
      "duration": 0.0161,
      "velocity": 120,
      "chip": "ym2612"
    },
    {
      "channel": 3,
      "note": 69,
      "start": 69.1855,
      "duration": 0.0161,
      "velocity": 120,
      "chip": "ym2612"
    },
    {
      "channel": 1,
      "note": 71,
      "start": 69.1992,
      "duration": 0.0179,
      "velocity": 124,
      "chip": "ym2612"
    },
    {
      "channel": 4,
      "note": 62,
      "start": 69.2004,
      "duration": 0.0179,
      "velocity": 120,
      "chip": "ym2612"
    },
    {
      "channel": 3,
      "note": 69,
      "start": 69.2016,
      "duration": 0.0179,
      "velocity": 120,
      "chip": "ym2612"
    },
    {
      "channel": 1,
      "note": 78,
      "start": 69.217,
      "duration": 0.0144,
      "velocity": 124,
      "chip": "ym2612"
    },
    {
      "channel": 4,
      "note": 62,
      "start": 69.2183,
      "duration": 0.0144,
      "velocity": 120,
      "chip": "ym2612"
    },
    {
      "channel": 3,
      "note": 69,
      "start": 69.2195,
      "duration": 0.0143,
      "velocity": 120,
      "chip": "ym2612"
    },
    {
      "channel": 2,
      "note": 50,
      "start": 69.221,
      "duration": 0.014,
      "velocity": 100,
      "chip": "ym2612"
    },
    {
      "channel": 1,
      "note": 76,
      "start": 69.2314,
      "duration": 0.016,
      "velocity": 124,
      "chip": "ym2612"
    },
    {
      "channel": 4,
      "note": 62,
      "start": 69.2327,
      "duration": 0.016,
      "velocity": 120,
      "chip": "ym2612"
    },
    {
      "channel": 3,
      "note": 69,
      "start": 69.2338,
      "duration": 0.0161,
      "velocity": 120,
      "chip": "ym2612"
    },
    {
      "channel": 2,
      "note": 50,
      "start": 69.235,
      "duration": 0.016,
      "velocity": 100,
      "chip": "ym2612"
    },
    {
      "channel": 1,
      "note": 75,
      "start": 69.2474,
      "duration": 0.0161,
      "velocity": 124,
      "chip": "ym2612"
    },
    {
      "channel": 4,
      "note": 62,
      "start": 69.2487,
      "duration": 0.0161,
      "velocity": 120,
      "chip": "ym2612"
    },
    {
      "channel": 3,
      "note": 69,
      "start": 69.2499,
      "duration": 0.0161,
      "velocity": 120,
      "chip": "ym2612"
    },
    {
      "channel": 2,
      "note": 50,
      "start": 69.2511,
      "duration": 0.0161,
      "velocity": 100,
      "chip": "ym2612"
    },
    {
      "channel": 1,
      "note": 74,
      "start": 69.2635,
      "duration": 0.0162,
      "velocity": 124,
      "chip": "ym2612"
    },
    {
      "channel": 4,
      "note": 62,
      "start": 69.2648,
      "duration": 0.0162,
      "velocity": 120,
      "chip": "ym2612"
    },
    {
      "channel": 3,
      "note": 69,
      "start": 69.266,
      "duration": 0.0162,
      "velocity": 120,
      "chip": "ym2612"
    },
    {
      "channel": 2,
      "note": 50,
      "start": 69.2672,
      "duration": 0.0161,
      "velocity": 100,
      "chip": "ym2612"
    },
    {
      "channel": 1,
      "note": 72,
      "start": 69.2797,
      "duration": 0.0161,
      "velocity": 124,
      "chip": "ym2612"
    },
    {
      "channel": 4,
      "note": 62,
      "start": 69.281,
      "duration": 0.0161,
      "velocity": 120,
      "chip": "ym2612"
    },
    {
      "channel": 3,
      "note": 69,
      "start": 69.2822,
      "duration": 0.016,
      "velocity": 120,
      "chip": "ym2612"
    },
    {
      "channel": 2,
      "note": 50,
      "start": 69.2833,
      "duration": 0.0161,
      "velocity": 100,
      "chip": "ym2612"
    },
    {
      "channel": 1,
      "note": 71,
      "start": 69.2958,
      "duration": 0.0161,
      "velocity": 124,
      "chip": "ym2612"
    },
    {
      "channel": 4,
      "note": 62,
      "start": 69.2971,
      "duration": 0.0161,
      "velocity": 120,
      "chip": "ym2612"
    },
    {
      "channel": 3,
      "note": 69,
      "start": 69.2982,
      "duration": 0.0161,
      "velocity": 120,
      "chip": "ym2612"
    },
    {
      "channel": 2,
      "note": 50,
      "start": 69.2993,
      "duration": 0.0161,
      "velocity": 100,
      "chip": "ym2612"
    },
    {
      "channel": 1,
      "note": 70,
      "start": 69.3119,
      "duration": 0.0161,
      "velocity": 124,
      "chip": "ym2612"
    },
    {
      "channel": 4,
      "note": 62,
      "start": 69.3132,
      "duration": 0.0161,
      "velocity": 120,
      "chip": "ym2612"
    },
    {
      "channel": 3,
      "note": 69,
      "start": 69.3143,
      "duration": 0.0161,
      "velocity": 120,
      "chip": "ym2612"
    },
    {
      "channel": 2,
      "note": 50,
      "start": 69.3154,
      "duration": 0.0161,
      "velocity": 100,
      "chip": "ym2612"
    },
    {
      "channel": 1,
      "note": 69,
      "start": 69.328,
      "duration": 0.0161,
      "velocity": 124,
      "chip": "ym2612"
    },
    {
      "channel": 4,
      "note": 62,
      "start": 69.3293,
      "duration": 0.0161,
      "velocity": 120,
      "chip": "ym2612"
    },
    {
      "channel": 3,
      "note": 69,
      "start": 69.3304,
      "duration": 0.0161,
      "velocity": 120,
      "chip": "ym2612"
    },
    {
      "channel": 1,
      "note": 68,
      "start": 69.3441,
      "duration": 0.0161,
      "velocity": 124,
      "chip": "ym2612"
    },
    {
      "channel": 4,
      "note": 62,
      "start": 69.3454,
      "duration": 0.0161,
      "velocity": 120,
      "chip": "ym2612"
    },
    {
      "channel": 3,
      "note": 69,
      "start": 69.3465,
      "duration": 0.0161,
      "velocity": 120,
      "chip": "ym2612"
    },
    {
      "channel": 1,
      "note": 66,
      "start": 69.3602,
      "duration": 0.0171,
      "velocity": 124,
      "chip": "ym2612"
    },
    {
      "channel": 4,
      "note": 62,
      "start": 69.3614,
      "duration": 0.0171,
      "velocity": 120,
      "chip": "ym2612"
    },
    {
      "channel": 3,
      "note": 69,
      "start": 69.3626,
      "duration": 0.0171,
      "velocity": 120,
      "chip": "ym2612"
    },
    {
      "channel": 1,
      "note": 65,
      "start": 69.3773,
      "duration": 0.0166,
      "velocity": 124,
      "chip": "ym2612"
    },
    {
      "channel": 4,
      "note": 62,
      "start": 69.3785,
      "duration": 0.0166,
      "velocity": 120,
      "chip": "ym2612"
    },
    {
      "channel": 3,
      "note": 69,
      "start": 69.3797,
      "duration": 0.0167,
      "velocity": 120,
      "chip": "ym2612"
    },
    {
      "channel": 1,
      "note": 64,
      "start": 69.3939,
      "duration": 0.0181,
      "velocity": 124,
      "chip": "ym2612"
    },
    {
      "channel": 4,
      "note": 62,
      "start": 69.3951,
      "duration": 0.0181,
      "velocity": 120,
      "chip": "ym2612"
    },
    {
      "channel": 3,
      "note": 69,
      "start": 69.3964,
      "duration": 0.0181,
      "velocity": 120,
      "chip": "ym2612"
    },
    {
      "channel": 1,
      "note": 78,
      "start": 69.412,
      "duration": 0.0129,
      "velocity": 124,
      "chip": "ym2612"
    },
    {
      "channel": 4,
      "note": 62,
      "start": 69.4133,
      "duration": 0.0129,
      "velocity": 120,
      "chip": "ym2612"
    },
    {
      "channel": 3,
      "note": 69,
      "start": 69.4145,
      "duration": 0.0129,
      "velocity": 120,
      "chip": "ym2612"
    },
    {
      "channel": 2,
      "note": 50,
      "start": 69.416,
      "duration": 0.0125,
      "velocity": 100,
      "chip": "ym2612"
    },
    {
      "channel": 1,
      "note": 76,
      "start": 69.4249,
      "duration": 0.0185,
      "velocity": 124,
      "chip": "ym2612"
    },
    {
      "channel": 4,
      "note": 62,
      "start": 69.4262,
      "duration": 0.0185,
      "velocity": 120,
      "chip": "ym2612"
    },
    {
      "channel": 3,
      "note": 69,
      "start": 69.4273,
      "duration": 0.0185,
      "velocity": 120,
      "chip": "ym2612"
    },
    {
      "channel": 2,
      "note": 50,
      "start": 69.4285,
      "duration": 0.0185,
      "velocity": 100,
      "chip": "ym2612"
    },
    {
      "channel": 1,
      "note": 75,
      "start": 69.4434,
      "duration": 0.0161,
      "velocity": 124,
      "chip": "ym2612"
    },
    {
      "channel": 4,
      "note": 62,
      "start": 69.4447,
      "duration": 0.0161,
      "velocity": 120,
      "chip": "ym2612"
    },
    {
      "channel": 3,
      "note": 69,
      "start": 69.4459,
      "duration": 0.0161,
      "velocity": 120,
      "chip": "ym2612"
    },
    {
      "channel": 2,
      "note": 50,
      "start": 69.447,
      "duration": 0.0161,
      "velocity": 100,
      "chip": "ym2612"
    },
    {
      "channel": 1,
      "note": 74,
      "start": 69.4595,
      "duration": 0.0158,
      "velocity": 124,
      "chip": "ym2612"
    },
    {
      "channel": 4,
      "note": 62,
      "start": 69.4608,
      "duration": 0.0158,
      "velocity": 120,
      "chip": "ym2612"
    },
    {
      "channel": 3,
      "note": 69,
      "start": 69.462,
      "duration": 0.0158,
      "velocity": 120,
      "chip": "ym2612"
    },
    {
      "channel": 2,
      "note": 50,
      "start": 69.4631,
      "duration": 0.0158,
      "velocity": 100,
      "chip": "ym2612"
    },
    {
      "channel": 1,
      "note": 72,
      "start": 69.4753,
      "duration": 0.0137,
      "velocity": 124,
      "chip": "ym2612"
    },
    {
      "channel": 4,
      "note": 62,
      "start": 69.4766,
      "duration": 0.014,
      "velocity": 120,
      "chip": "ym2612"
    },
    {
      "channel": 3,
      "note": 69,
      "start": 69.4777,
      "duration": 0.0141,
      "velocity": 120,
      "chip": "ym2612"
    },
    {
      "channel": 2,
      "note": 50,
      "start": 69.4789,
      "duration": 0.014,
      "velocity": 100,
      "chip": "ym2612"
    },
    {
      "channel": 1,
      "note": 71,
      "start": 69.489,
      "duration": 0.0206,
      "velocity": 124,
      "chip": "ym2612"
    },
    {
      "channel": 4,
      "note": 62,
      "start": 69.4906,
      "duration": 0.0203,
      "velocity": 120,
      "chip": "ym2612"
    },
    {
      "channel": 3,
      "note": 69,
      "start": 69.4918,
      "duration": 0.0203,
      "velocity": 120,
      "chip": "ym2612"
    },
    {
      "channel": 2,
      "note": 50,
      "start": 69.4929,
      "duration": 0.0204,
      "velocity": 100,
      "chip": "ym2612"
    },
    {
      "channel": 1,
      "note": 78,
      "start": 69.5096,
      "duration": 0.0117,
      "velocity": 124,
      "chip": "ym2612"
    },
    {
      "channel": 4,
      "note": 62,
      "start": 69.5109,
      "duration": 0.0117,
      "velocity": 120,
      "chip": "ym2612"
    },
    {
      "channel": 3,
      "note": 69,
      "start": 69.5121,
      "duration": 0.0144,
      "velocity": 120,
      "chip": "ym2612"
    },
    {
      "channel": 2,
      "note": 50,
      "start": 69.5132,
      "duration": 0.0144,
      "velocity": 100,
      "chip": "ym2612"
    },
    {
      "channel": 1,
      "note": 76,
      "start": 69.5212,
      "duration": 0.016,
      "velocity": 124,
      "chip": "ym2612"
    },
    {
      "channel": 4,
      "note": 62,
      "start": 69.5225,
      "duration": 0.0161,
      "velocity": 120,
      "chip": "ym2612"
    },
    {
      "channel": 3,
      "note": 69,
      "start": 69.5265,
      "duration": 0.0157,
      "velocity": 120,
      "chip": "ym2612"
    },
    {
      "channel": 1,
      "note": 75,
      "start": 69.5373,
      "duration": 0.0161,
      "velocity": 124,
      "chip": "ym2612"
    },
    {
      "channel": 4,
      "note": 62,
      "start": 69.5386,
      "duration": 0.016,
      "velocity": 120,
      "chip": "ym2612"
    },
    {
      "channel": 3,
      "note": 69,
      "start": 69.5422,
      "duration": 0.0137,
      "velocity": 120,
      "chip": "ym2612"
    },
    {
      "channel": 1,
      "note": 74,
      "start": 69.5534,
      "duration": 0.0161,
      "velocity": 124,
      "chip": "ym2612"
    },
    {
      "channel": 4,
      "note": 62,
      "start": 69.5546,
      "duration": 0.0161,
      "velocity": 120,
      "chip": "ym2612"
    },
    {
      "channel": 3,
      "note": 69,
      "start": 69.5559,
      "duration": 0.0161,
      "velocity": 120,
      "chip": "ym2612"
    },
    {
      "channel": 1,
      "note": 72,
      "start": 69.5695,
      "duration": 0.0162,
      "velocity": 124,
      "chip": "ym2612"
    },
    {
      "channel": 4,
      "note": 62,
      "start": 69.5707,
      "duration": 0.0162,
      "velocity": 120,
      "chip": "ym2612"
    },
    {
      "channel": 3,
      "note": 69,
      "start": 69.5719,
      "duration": 0.0161,
      "velocity": 120,
      "chip": "ym2612"
    },
    {
      "channel": 1,
      "note": 71,
      "start": 69.5856,
      "duration": 0.0178,
      "velocity": 124,
      "chip": "ym2612"
    },
    {
      "channel": 4,
      "note": 62,
      "start": 69.5869,
      "duration": 0.0179,
      "velocity": 120,
      "chip": "ym2612"
    },
    {
      "channel": 3,
      "note": 69,
      "start": 69.588,
      "duration": 0.0202,
      "velocity": 120,
      "chip": "ym2612"
    },
    {
      "channel": 1,
      "note": 78,
      "start": 69.6035,
      "duration": 0.0144,
      "velocity": 124,
      "chip": "ym2612"
    },
    {
      "channel": 4,
      "note": 62,
      "start": 69.6048,
      "duration": 0.0144,
      "velocity": 120,
      "chip": "ym2612"
    },
    {
      "channel": 3,
      "note": 69,
      "start": 69.6083,
      "duration": 0.012,
      "velocity": 120,
      "chip": "ym2612"
    },
    {
      "channel": 2,
      "note": 50,
      "start": 69.6098,
      "duration": 0.0117,
      "velocity": 100,
      "chip": "ym2612"
    },
    {
      "channel": 1,
      "note": 76,
      "start": 69.6179,
      "duration": 0.016,
      "velocity": 124,
      "chip": "ym2612"
    },
    {
      "channel": 4,
      "note": 62,
      "start": 69.6191,
      "duration": 0.016,
      "velocity": 120,
      "chip": "ym2612"
    },
    {
      "channel": 3,
      "note": 69,
      "start": 69.6203,
      "duration": 0.016,
      "velocity": 120,
      "chip": "ym2612"
    },
    {
      "channel": 2,
      "note": 50,
      "start": 69.6215,
      "duration": 0.016,
      "velocity": 100,
      "chip": "ym2612"
    },
    {
      "channel": 1,
      "note": 75,
      "start": 69.6339,
      "duration": 0.0161,
      "velocity": 124,
      "chip": "ym2612"
    },
    {
      "channel": 4,
      "note": 62,
      "start": 69.6352,
      "duration": 0.0161,
      "velocity": 120,
      "chip": "ym2612"
    },
    {
      "channel": 3,
      "note": 69,
      "start": 69.6363,
      "duration": 0.0161,
      "velocity": 120,
      "chip": "ym2612"
    },
    {
      "channel": 2,
      "note": 50,
      "start": 69.6375,
      "duration": 0.0161,
      "velocity": 100,
      "chip": "ym2612"
    },
    {
      "channel": 1,
      "note": 74,
      "start": 69.65,
      "duration": 0.0161,
      "velocity": 124,
      "chip": "ym2612"
    },
    {
      "channel": 4,
      "note": 62,
      "start": 69.6513,
      "duration": 0.0161,
      "velocity": 120,
      "chip": "ym2612"
    },
    {
      "channel": 3,
      "note": 69,
      "start": 69.6524,
      "duration": 0.0162,
      "velocity": 120,
      "chip": "ym2612"
    },
    {
      "channel": 2,
      "note": 50,
      "start": 69.6536,
      "duration": 0.0161,
      "velocity": 100,
      "chip": "ym2612"
    },
    {
      "channel": 1,
      "note": 72,
      "start": 69.6661,
      "duration": 0.0161,
      "velocity": 124,
      "chip": "ym2612"
    },
    {
      "channel": 4,
      "note": 62,
      "start": 69.6673,
      "duration": 0.0161,
      "velocity": 120,
      "chip": "ym2612"
    },
    {
      "channel": 3,
      "note": 69,
      "start": 69.6686,
      "duration": 0.0161,
      "velocity": 120,
      "chip": "ym2612"
    },
    {
      "channel": 2,
      "note": 50,
      "start": 69.6697,
      "duration": 0.0161,
      "velocity": 100,
      "chip": "ym2612"
    },
    {
      "channel": 1,
      "note": 71,
      "start": 69.6822,
      "duration": 0.0179,
      "velocity": 124,
      "chip": "ym2612"
    },
    {
      "channel": 4,
      "note": 62,
      "start": 69.6834,
      "duration": 0.0179,
      "velocity": 120,
      "chip": "ym2612"
    },
    {
      "channel": 3,
      "note": 69,
      "start": 69.6846,
      "duration": 0.0179,
      "velocity": 120,
      "chip": "ym2612"
    },
    {
      "channel": 2,
      "note": 50,
      "start": 69.6858,
      "duration": 0.0179,
      "velocity": 100,
      "chip": "ym2612"
    },
    {
      "channel": 1,
      "note": 78,
      "start": 69.7001,
      "duration": 0.0143,
      "velocity": 124,
      "chip": "ym2612"
    },
    {
      "channel": 4,
      "note": 62,
      "start": 69.7014,
      "duration": 0.0143,
      "velocity": 120,
      "chip": "ym2612"
    },
    {
      "channel": 3,
      "note": 69,
      "start": 69.7025,
      "duration": 0.0144,
      "velocity": 120,
      "chip": "ym2612"
    },
    {
      "channel": 2,
      "note": 50,
      "start": 69.7037,
      "duration": 0.0144,
      "velocity": 100,
      "chip": "ym2612"
    },
    {
      "channel": 1,
      "note": 76,
      "start": 69.7144,
      "duration": 0.0161,
      "velocity": 124,
      "chip": "ym2612"
    },
    {
      "channel": 4,
      "note": 62,
      "start": 69.7157,
      "duration": 0.0161,
      "velocity": 120,
      "chip": "ym2612"
    },
    {
      "channel": 3,
      "note": 69,
      "start": 69.7169,
      "duration": 0.016,
      "velocity": 120,
      "chip": "ym2612"
    },
    {
      "channel": 1,
      "note": 75,
      "start": 69.7305,
      "duration": 0.0161,
      "velocity": 124,
      "chip": "ym2612"
    },
    {
      "channel": 4,
      "note": 62,
      "start": 69.7318,
      "duration": 0.0161,
      "velocity": 120,
      "chip": "ym2612"
    },
    {
      "channel": 3,
      "note": 69,
      "start": 69.7329,
      "duration": 0.0161,
      "velocity": 120,
      "chip": "ym2612"
    },
    {
      "channel": 1,
      "note": 74,
      "start": 69.7466,
      "duration": 0.0161,
      "velocity": 124,
      "chip": "ym2612"
    },
    {
      "channel": 4,
      "note": 62,
      "start": 69.7479,
      "duration": 0.0161,
      "velocity": 120,
      "chip": "ym2612"
    },
    {
      "channel": 3,
      "note": 69,
      "start": 69.749,
      "duration": 0.0161,
      "velocity": 120,
      "chip": "ym2612"
    },
    {
      "channel": 1,
      "note": 72,
      "start": 69.7627,
      "duration": 0.0161,
      "velocity": 124,
      "chip": "ym2612"
    },
    {
      "channel": 4,
      "note": 62,
      "start": 69.764,
      "duration": 0.0161,
      "velocity": 120,
      "chip": "ym2612"
    },
    {
      "channel": 3,
      "note": 69,
      "start": 69.7651,
      "duration": 0.0161,
      "velocity": 120,
      "chip": "ym2612"
    },
    {
      "channel": 1,
      "note": 71,
      "start": 69.7788,
      "duration": 0.0179,
      "velocity": 124,
      "chip": "ym2612"
    },
    {
      "channel": 4,
      "note": 62,
      "start": 69.7801,
      "duration": 0.018,
      "velocity": 120,
      "chip": "ym2612"
    },
    {
      "channel": 3,
      "note": 69,
      "start": 69.7812,
      "duration": 0.0179,
      "velocity": 120,
      "chip": "ym2612"
    },
    {
      "channel": 1,
      "note": 78,
      "start": 69.7967,
      "duration": 0.0144,
      "velocity": 124,
      "chip": "ym2612"
    },
    {
      "channel": 4,
      "note": 62,
      "start": 69.798,
      "duration": 0.0143,
      "velocity": 120,
      "chip": "ym2612"
    },
    {
      "channel": 3,
      "note": 69,
      "start": 69.7992,
      "duration": 0.0143,
      "velocity": 120,
      "chip": "ym2612"
    },
    {
      "channel": 2,
      "note": 50,
      "start": 69.8007,
      "duration": 0.014,
      "velocity": 100,
      "chip": "ym2612"
    },
    {
      "channel": 1,
      "note": 76,
      "start": 69.8111,
      "duration": 0.016,
      "velocity": 124,
      "chip": "ym2612"
    },
    {
      "channel": 4,
      "note": 62,
      "start": 69.8123,
      "duration": 0.016,
      "velocity": 120,
      "chip": "ym2612"
    },
    {
      "channel": 3,
      "note": 69,
      "start": 69.8135,
      "duration": 0.0161,
      "velocity": 120,
      "chip": "ym2612"
    },
    {
      "channel": 2,
      "note": 50,
      "start": 69.8147,
      "duration": 0.016,
      "velocity": 100,
      "chip": "ym2612"
    },
    {
      "channel": 1,
      "note": 75,
      "start": 69.8271,
      "duration": 0.0168,
      "velocity": 124,
      "chip": "ym2612"
    },
    {
      "channel": 4,
      "note": 62,
      "start": 69.8284,
      "duration": 0.0168,
      "velocity": 120,
      "chip": "ym2612"
    },
    {
      "channel": 3,
      "note": 69,
      "start": 69.8296,
      "duration": 0.0168,
      "velocity": 120,
      "chip": "ym2612"
    },
    {
      "channel": 2,
      "note": 50,
      "start": 69.8307,
      "duration": 0.0168,
      "velocity": 100,
      "chip": "ym2612"
    },
    {
      "channel": 1,
      "note": 74,
      "start": 69.8439,
      "duration": 0.0167,
      "velocity": 124,
      "chip": "ym2612"
    },
    {
      "channel": 4,
      "note": 62,
      "start": 69.8451,
      "duration": 0.0167,
      "velocity": 120,
      "chip": "ym2612"
    },
    {
      "channel": 3,
      "note": 69,
      "start": 69.8464,
      "duration": 0.0167,
      "velocity": 120,
      "chip": "ym2612"
    },
    {
      "channel": 2,
      "note": 50,
      "start": 69.8475,
      "duration": 0.0167,
      "velocity": 100,
      "chip": "ym2612"
    },
    {
      "channel": 1,
      "note": 72,
      "start": 69.8606,
      "duration": 0.0163,
      "velocity": 124,
      "chip": "ym2612"
    },
    {
      "channel": 4,
      "note": 62,
      "start": 69.8619,
      "duration": 0.0163,
      "velocity": 120,
      "chip": "ym2612"
    },
    {
      "channel": 3,
      "note": 69,
      "start": 69.863,
      "duration": 0.0163,
      "velocity": 120,
      "chip": "ym2612"
    },
    {
      "channel": 2,
      "note": 50,
      "start": 69.8642,
      "duration": 0.0163,
      "velocity": 100,
      "chip": "ym2612"
    },
    {
      "channel": 1,
      "note": 71,
      "start": 69.8769,
      "duration": 0.0147,
      "velocity": 124,
      "chip": "ym2612"
    },
    {
      "channel": 4,
      "note": 62,
      "start": 69.8782,
      "duration": 0.0147,
      "velocity": 120,
      "chip": "ym2612"
    },
    {
      "channel": 3,
      "note": 69,
      "start": 69.8793,
      "duration": 0.0147,
      "velocity": 120,
      "chip": "ym2612"
    },
    {
      "channel": 2,
      "note": 50,
      "start": 69.8805,
      "duration": 0.0147,
      "velocity": 100,
      "chip": "ym2612"
    },
    {
      "channel": 1,
      "note": 70,
      "start": 69.8916,
      "duration": 0.0188,
      "velocity": 124,
      "chip": "ym2612"
    },
    {
      "channel": 4,
      "note": 62,
      "start": 69.8929,
      "duration": 0.0188,
      "velocity": 120,
      "chip": "ym2612"
    },
    {
      "channel": 3,
      "note": 69,
      "start": 69.894,
      "duration": 0.0188,
      "velocity": 120,
      "chip": "ym2612"
    },
    {
      "channel": 2,
      "note": 50,
      "start": 69.8951,
      "duration": 0.0188,
      "velocity": 100,
      "chip": "ym2612"
    },
    {
      "channel": 1,
      "note": 69,
      "start": 69.9104,
      "duration": 0.0161,
      "velocity": 124,
      "chip": "ym2612"
    },
    {
      "channel": 4,
      "note": 62,
      "start": 69.9116,
      "duration": 0.0161,
      "velocity": 120,
      "chip": "ym2612"
    },
    {
      "channel": 3,
      "note": 69,
      "start": 69.9128,
      "duration": 0.0162,
      "velocity": 120,
      "chip": "ym2612"
    },
    {
      "channel": 1,
      "note": 68,
      "start": 69.9265,
      "duration": 0.0158,
      "velocity": 124,
      "chip": "ym2612"
    },
    {
      "channel": 4,
      "note": 62,
      "start": 69.9277,
      "duration": 0.0158,
      "velocity": 120,
      "chip": "ym2612"
    },
    {
      "channel": 3,
      "note": 69,
      "start": 69.9289,
      "duration": 0.0157,
      "velocity": 120,
      "chip": "ym2612"
    },
    {
      "channel": 1,
      "note": 66,
      "start": 69.9422,
      "duration": 0.0137,
      "velocity": 124,
      "chip": "ym2612"
    },
    {
      "channel": 4,
      "note": 62,
      "start": 69.9435,
      "duration": 0.014,
      "velocity": 120,
      "chip": "ym2612"
    },
    {
      "channel": 3,
      "note": 69,
      "start": 69.9446,
      "duration": 0.014,
      "velocity": 120,
      "chip": "ym2612"
    },
    {
      "channel": 1,
      "note": 65,
      "start": 69.9559,
      "duration": 0.0161,
      "velocity": 124,
      "chip": "ym2612"
    },
    {
      "channel": 4,
      "note": 62,
      "start": 69.9575,
      "duration": 0.0185,
      "velocity": 120,
      "chip": "ym2612"
    },
    {
      "channel": 3,
      "note": 69,
      "start": 69.9586,
      "duration": 0.0186,
      "velocity": 120,
      "chip": "ym2612"
    },
    {
      "channel": 1,
      "note": 64,
      "start": 69.972,
      "duration": 0.0161,
      "velocity": 124,
      "chip": "ym2612"
    },
    {
      "channel": 4,
      "note": 62,
      "start": 69.976,
      "duration": 0.0161,
      "velocity": 120,
      "chip": "ym2612"
    },
    {
      "channel": 3,
      "note": 69,
      "start": 69.9772,
      "duration": 0.0161,
      "velocity": 120,
      "chip": "ym2612"
    },
    {
      "channel": 1,
      "note": 62,
      "start": 69.9881,
      "duration": 0.0161,
      "velocity": 124,
      "chip": "ym2612"
    },
    {
      "channel": 4,
      "note": 62,
      "start": 69.9922,
      "duration": 0.0133,
      "velocity": 120,
      "chip": "ym2612"
    },
    {
      "channel": 3,
      "note": 69,
      "start": 69.9933,
      "duration": 0.0157,
      "velocity": 120,
      "chip": "ym2612"
    },
    {
      "channel": 2,
      "note": 50,
      "start": 69.9948,
      "duration": 0.0154,
      "velocity": 100,
      "chip": "ym2612"
    },
    {
      "channel": 1,
      "note": 61,
      "start": 70.0042,
      "duration": 0.0161,
      "velocity": 124,
      "chip": "ym2612"
    },
    {
      "channel": 4,
      "note": 62,
      "start": 70.0055,
      "duration": 0.0161,
      "velocity": 120,
      "chip": "ym2612"
    },
    {
      "channel": 3,
      "note": 69,
      "start": 70.009,
      "duration": 0.0141,
      "velocity": 120,
      "chip": "ym2612"
    },
    {
      "channel": 2,
      "note": 50,
      "start": 70.0102,
      "duration": 0.014,
      "velocity": 100,
      "chip": "ym2612"
    },
    {
      "channel": 1,
      "note": 60,
      "start": 70.0203,
      "duration": 0.0161,
      "velocity": 124,
      "chip": "ym2612"
    },
    {
      "channel": 4,
      "note": 62,
      "start": 70.0216,
      "duration": 0.0161,
      "velocity": 120,
      "chip": "ym2612"
    },
    {
      "channel": 3,
      "note": 69,
      "start": 70.0231,
      "duration": 0.0158,
      "velocity": 120,
      "chip": "ym2612"
    },
    {
      "channel": 2,
      "note": 50,
      "start": 70.0242,
      "duration": 0.0185,
      "velocity": 100,
      "chip": "ym2612"
    },
    {
      "channel": 1,
      "note": 59,
      "start": 70.0364,
      "duration": 0.0161,
      "velocity": 124,
      "chip": "ym2612"
    },
    {
      "channel": 4,
      "note": 62,
      "start": 70.0377,
      "duration": 0.0161,
      "velocity": 120,
      "chip": "ym2612"
    },
    {
      "channel": 3,
      "note": 69,
      "start": 70.0389,
      "duration": 0.0161,
      "velocity": 120,
      "chip": "ym2612"
    },
    {
      "channel": 2,
      "note": 50,
      "start": 70.0427,
      "duration": 0.0161,
      "velocity": 100,
      "chip": "ym2612"
    },
    {
      "channel": 1,
      "note": 57,
      "start": 70.0525,
      "duration": 0.0161,
      "velocity": 124,
      "chip": "ym2612"
    },
    {
      "channel": 4,
      "note": 62,
      "start": 70.0538,
      "duration": 0.0161,
      "velocity": 120,
      "chip": "ym2612"
    },
    {
      "channel": 3,
      "note": 69,
      "start": 70.055,
      "duration": 0.016,
      "velocity": 120,
      "chip": "ym2612"
    },
    {
      "channel": 2,
      "note": 50,
      "start": 70.0589,
      "duration": 0.0133,
      "velocity": 100,
      "chip": "ym2612"
    },
    {
      "channel": 1,
      "note": 56,
      "start": 70.0686,
      "duration": 0.0161,
      "velocity": 124,
      "chip": "ym2612"
    },
    {
      "channel": 4,
      "note": 62,
      "start": 70.0699,
      "duration": 0.0161,
      "velocity": 120,
      "chip": "ym2612"
    },
    {
      "channel": 3,
      "note": 69,
      "start": 70.071,
      "duration": 0.0161,
      "velocity": 120,
      "chip": "ym2612"
    },
    {
      "channel": 2,
      "note": 50,
      "start": 70.0722,
      "duration": 0.0161,
      "velocity": 100,
      "chip": "ym2612"
    },
    {
      "channel": 1,
      "note": 55,
      "start": 70.0847,
      "duration": 0.0161,
      "velocity": 124,
      "chip": "ym2612"
    },
    {
      "channel": 4,
      "note": 62,
      "start": 70.086,
      "duration": 0.0161,
      "velocity": 120,
      "chip": "ym2612"
    },
    {
      "channel": 3,
      "note": 69,
      "start": 70.0871,
      "duration": 0.0161,
      "velocity": 120,
      "chip": "ym2612"
    },
    {
      "channel": 2,
      "note": 50,
      "start": 70.0883,
      "duration": 0.0161,
      "velocity": 100,
      "chip": "ym2612"
    },
    {
      "channel": 1,
      "note": 53,
      "start": 70.1008,
      "duration": 0.0161,
      "velocity": 124,
      "chip": "ym2612"
    },
    {
      "channel": 4,
      "note": 62,
      "start": 70.1021,
      "duration": 0.0161,
      "velocity": 120,
      "chip": "ym2612"
    },
    {
      "channel": 3,
      "note": 69,
      "start": 70.1032,
      "duration": 0.0161,
      "velocity": 120,
      "chip": "ym2612"
    },
    {
      "channel": 1,
      "note": 52,
      "start": 70.1169,
      "duration": 0.0161,
      "velocity": 124,
      "chip": "ym2612"
    },
    {
      "channel": 4,
      "note": 62,
      "start": 70.1182,
      "duration": 0.0161,
      "velocity": 120,
      "chip": "ym2612"
    },
    {
      "channel": 3,
      "note": 69,
      "start": 70.1193,
      "duration": 0.0162,
      "velocity": 120,
      "chip": "ym2612"
    },
    {
      "channel": 1,
      "note": 51,
      "start": 70.133,
      "duration": 0.0154,
      "velocity": 1,
      "chip": "ym2612"
    },
    {
      "channel": 4,
      "note": 62,
      "start": 70.1343,
      "duration": 0.0153,
      "velocity": 120,
      "chip": "ym2612"
    },
    {
      "channel": 3,
      "note": 69,
      "start": 70.1355,
      "duration": 0.0153,
      "velocity": 120,
      "chip": "ym2612"
    },
    {
      "channel": 4,
      "note": 62,
      "start": 70.1496,
      "duration": 0.0153,
      "velocity": 120,
      "chip": "ym2612"
    },
    {
      "channel": 3,
      "note": 69,
      "start": 70.1507,
      "duration": 0.0153,
      "velocity": 120,
      "chip": "ym2612"
    },
    {
      "channel": 4,
      "note": 62,
      "start": 70.1649,
      "duration": 0.0161,
      "velocity": 120,
      "chip": "ym2612"
    },
    {
      "channel": 3,
      "note": 69,
      "start": 70.166,
      "duration": 0.0162,
      "velocity": 120,
      "chip": "ym2612"
    },
    {
      "channel": 4,
      "note": 62,
      "start": 70.181,
      "duration": 0.0161,
      "velocity": 120,
      "chip": "ym2612"
    },
    {
      "channel": 3,
      "note": 69,
      "start": 70.1822,
      "duration": 0.016,
      "velocity": 120,
      "chip": "ym2612"
    },
    {
      "channel": 2,
      "note": 50,
      "start": 70.1837,
      "duration": 0.0157,
      "velocity": 100,
      "chip": "ym2612"
    },
    {
      "channel": 1,
      "note": 38,
      "start": 70.1852,
      "duration": 0.0153,
      "velocity": 100,
      "chip": "ym2612"
    },
    {
      "channel": 4,
      "note": 62,
      "start": 70.1971,
      "duration": 0.0161,
      "velocity": 120,
      "chip": "ym2612"
    },
    {
      "channel": 3,
      "note": 69,
      "start": 70.1982,
      "duration": 0.0161,
      "velocity": 120,
      "chip": "ym2612"
    },
    {
      "channel": 2,
      "note": 50,
      "start": 70.1994,
      "duration": 0.016,
      "velocity": 100,
      "chip": "ym2612"
    },
    {
      "channel": 1,
      "note": 38,
      "start": 70.2006,
      "duration": 0.016,
      "velocity": 100,
      "chip": "ym2612"
    },
    {
      "channel": 4,
      "note": 62,
      "start": 70.2132,
      "duration": 0.0161,
      "velocity": 120,
      "chip": "ym2612"
    },
    {
      "channel": 3,
      "note": 69,
      "start": 70.2143,
      "duration": 0.0161,
      "velocity": 120,
      "chip": "ym2612"
    },
    {
      "channel": 2,
      "note": 50,
      "start": 70.2154,
      "duration": 0.0161,
      "velocity": 100,
      "chip": "ym2612"
    },
    {
      "channel": 1,
      "note": 38,
      "start": 70.2166,
      "duration": 0.0161,
      "velocity": 100,
      "chip": "ym2612"
    },
    {
      "channel": 4,
      "note": 62,
      "start": 70.2293,
      "duration": 0.0161,
      "velocity": 120,
      "chip": "ym2612"
    },
    {
      "channel": 3,
      "note": 69,
      "start": 70.2304,
      "duration": 0.0161,
      "velocity": 120,
      "chip": "ym2612"
    },
    {
      "channel": 2,
      "note": 50,
      "start": 70.2315,
      "duration": 0.0161,
      "velocity": 100,
      "chip": "ym2612"
    },
    {
      "channel": 1,
      "note": 38,
      "start": 70.2327,
      "duration": 0.0161,
      "velocity": 100,
      "chip": "ym2612"
    },
    {
      "channel": 4,
      "note": 62,
      "start": 70.2454,
      "duration": 0.0161,
      "velocity": 120,
      "chip": "ym2612"
    },
    {
      "channel": 3,
      "note": 69,
      "start": 70.2465,
      "duration": 0.0162,
      "velocity": 120,
      "chip": "ym2612"
    },
    {
      "channel": 2,
      "note": 50,
      "start": 70.2476,
      "duration": 0.0161,
      "velocity": 100,
      "chip": "ym2612"
    },
    {
      "channel": 1,
      "note": 38,
      "start": 70.2488,
      "duration": 0.0161,
      "velocity": 100,
      "chip": "ym2612"
    },
    {
      "channel": 4,
      "note": 62,
      "start": 70.2614,
      "duration": 0.0161,
      "velocity": 120,
      "chip": "ym2612"
    },
    {
      "channel": 3,
      "note": 69,
      "start": 70.2627,
      "duration": 0.0161,
      "velocity": 120,
      "chip": "ym2612"
    },
    {
      "channel": 2,
      "note": 50,
      "start": 70.2637,
      "duration": 0.0162,
      "velocity": 100,
      "chip": "ym2612"
    },
    {
      "channel": 1,
      "note": 38,
      "start": 70.2649,
      "duration": 0.0161,
      "velocity": 100,
      "chip": "ym2612"
    },
    {
      "channel": 4,
      "note": 62,
      "start": 70.2775,
      "duration": 0.0161,
      "velocity": 120,
      "chip": "ym2612"
    },
    {
      "channel": 3,
      "note": 69,
      "start": 70.2788,
      "duration": 0.0161,
      "velocity": 120,
      "chip": "ym2612"
    },
    {
      "channel": 2,
      "note": 50,
      "start": 70.2799,
      "duration": 0.0161,
      "velocity": 100,
      "chip": "ym2612"
    },
    {
      "channel": 1,
      "note": 38,
      "start": 70.281,
      "duration": 0.0161,
      "velocity": 100,
      "chip": "ym2612"
    },
    {
      "channel": 4,
      "note": 62,
      "start": 70.2936,
      "duration": 0.0166,
      "velocity": 120,
      "chip": "ym2612"
    },
    {
      "channel": 3,
      "note": 69,
      "start": 70.2948,
      "duration": 0.0166,
      "velocity": 120,
      "chip": "ym2612"
    },
    {
      "channel": 4,
      "note": 62,
      "start": 70.3102,
      "duration": 0.0166,
      "velocity": 120,
      "chip": "ym2612"
    },
    {
      "channel": 3,
      "note": 69,
      "start": 70.3114,
      "duration": 0.0167,
      "velocity": 120,
      "chip": "ym2612"
    },
    {
      "channel": 4,
      "note": 62,
      "start": 70.3268,
      "duration": 0.0163,
      "velocity": 120,
      "chip": "ym2612"
    },
    {
      "channel": 3,
      "note": 69,
      "start": 70.328,
      "duration": 0.0163,
      "velocity": 120,
      "chip": "ym2612"
    },
    {
      "channel": 4,
      "note": 62,
      "start": 70.3432,
      "duration": 0.0149,
      "velocity": 120,
      "chip": "ym2612"
    },
    {
      "channel": 3,
      "note": 69,
      "start": 70.3443,
      "duration": 0.0149,
      "velocity": 120,
      "chip": "ym2612"
    },
    {
      "channel": 4,
      "note": 62,
      "start": 70.3581,
      "duration": 0.0188,
      "velocity": 120,
      "chip": "ym2612"
    },
    {
      "channel": 3,
      "note": 69,
      "start": 70.3592,
      "duration": 0.0188,
      "velocity": 120,
      "chip": "ym2612"
    },
    {
      "channel": 4,
      "note": 62,
      "start": 70.3768,
      "duration": 0.0162,
      "velocity": 120,
      "chip": "ym2612"
    },
    {
      "channel": 3,
      "note": 69,
      "start": 70.378,
      "duration": 0.0161,
      "velocity": 120,
      "chip": "ym2612"
    },
    {
      "channel": 2,
      "note": 50,
      "start": 70.3796,
      "duration": 0.0158,
      "velocity": 100,
      "chip": "ym2612"
    },
    {
      "channel": 1,
      "note": 38,
      "start": 70.3811,
      "duration": 0.0155,
      "velocity": 100,
      "chip": "ym2612"
    },
    {
      "channel": 4,
      "note": 62,
      "start": 70.393,
      "duration": 0.0158,
      "velocity": 120,
      "chip": "ym2612"
    },
    {
      "channel": 3,
      "note": 69,
      "start": 70.3942,
      "duration": 0.0157,
      "velocity": 120,
      "chip": "ym2612"
    },
    {
      "channel": 2,
      "note": 50,
      "start": 70.3954,
      "duration": 0.0157,
      "velocity": 100,
      "chip": "ym2612"
    },
    {
      "channel": 1,
      "note": 38,
      "start": 70.3966,
      "duration": 0.0156,
      "velocity": 100,
      "chip": "ym2612"
    },
    {
      "channel": 4,
      "note": 62,
      "start": 70.4088,
      "duration": 0.0137,
      "velocity": 120,
      "chip": "ym2612"
    },
    {
      "channel": 3,
      "note": 69,
      "start": 70.4099,
      "duration": 0.0141,
      "velocity": 120,
      "chip": "ym2612"
    },
    {
      "channel": 2,
      "note": 50,
      "start": 70.4111,
      "duration": 0.014,
      "velocity": 100,
      "chip": "ym2612"
    },
    {
      "channel": 1,
      "note": 38,
      "start": 70.4122,
      "duration": 0.014,
      "velocity": 100,
      "chip": "ym2612"
    },
    {
      "channel": 4,
      "note": 62,
      "start": 70.4224,
      "duration": 0.0161,
      "velocity": 120,
      "chip": "ym2612"
    },
    {
      "channel": 3,
      "note": 69,
      "start": 70.424,
      "duration": 0.0186,
      "velocity": 120,
      "chip": "ym2612"
    },
    {
      "channel": 2,
      "note": 50,
      "start": 70.4251,
      "duration": 0.0186,
      "velocity": 100,
      "chip": "ym2612"
    },
    {
      "channel": 1,
      "note": 38,
      "start": 70.4262,
      "duration": 0.0186,
      "velocity": 100,
      "chip": "ym2612"
    },
    {
      "channel": 4,
      "note": 62,
      "start": 70.4386,
      "duration": 0.016,
      "velocity": 120,
      "chip": "ym2612"
    },
    {
      "channel": 3,
      "note": 69,
      "start": 70.4425,
      "duration": 0.0133,
      "velocity": 120,
      "chip": "ym2612"
    },
    {
      "channel": 2,
      "note": 50,
      "start": 70.4436,
      "duration": 0.0161,
      "velocity": 100,
      "chip": "ym2612"
    },
    {
      "channel": 1,
      "note": 38,
      "start": 70.4448,
      "duration": 0.0161,
      "velocity": 100,
      "chip": "ym2612"
    },
    {
      "channel": 4,
      "note": 62,
      "start": 70.4546,
      "duration": 0.0162,
      "velocity": 120,
      "chip": "ym2612"
    },
    {
      "channel": 3,
      "note": 69,
      "start": 70.4559,
      "duration": 0.0161,
      "velocity": 120,
      "chip": "ym2612"
    },
    {
      "channel": 2,
      "note": 50,
      "start": 70.4597,
      "duration": 0.0157,
      "velocity": 100,
      "chip": "ym2612"
    },
    {
      "channel": 1,
      "note": 38,
      "start": 70.4609,
      "duration": 0.0157,
      "velocity": 100,
      "chip": "ym2612"
    },
    {
      "channel": 4,
      "note": 62,
      "start": 70.4708,
      "duration": 0.0161,
      "velocity": 120,
      "chip": "ym2612"
    },
    {
      "channel": 3,
      "note": 69,
      "start": 70.4719,
      "duration": 0.0161,
      "velocity": 120,
      "chip": "ym2612"
    },
    {
      "channel": 2,
      "note": 50,
      "start": 70.4754,
      "duration": 0.0137,
      "velocity": 100,
      "chip": "ym2612"
    },
    {
      "channel": 1,
      "note": 38,
      "start": 70.4766,
      "duration": 0.0141,
      "velocity": 100,
      "chip": "ym2612"
    },
    {
      "channel": 4,
      "note": 62,
      "start": 70.4869,
      "duration": 0.0161,
      "velocity": 120,
      "chip": "ym2612"
    },
    {
      "channel": 3,
      "note": 69,
      "start": 70.488,
      "duration": 0.0161,
      "velocity": 120,
      "chip": "ym2612"
    },
    {
      "channel": 4,
      "note": 62,
      "start": 70.503,
      "duration": 0.0161,
      "velocity": 120,
      "chip": "ym2612"
    },
    {
      "channel": 3,
      "note": 69,
      "start": 70.5041,
      "duration": 0.0161,
      "velocity": 120,
      "chip": "ym2612"
    },
    {
      "channel": 4,
      "note": 62,
      "start": 70.5191,
      "duration": 0.0161,
      "velocity": 120,
      "chip": "ym2612"
    },
    {
      "channel": 3,
      "note": 69,
      "start": 70.5202,
      "duration": 0.0161,
      "velocity": 120,
      "chip": "ym2612"
    },
    {
      "channel": 4,
      "note": 62,
      "start": 70.5352,
      "duration": 0.0161,
      "velocity": 120,
      "chip": "ym2612"
    },
    {
      "channel": 3,
      "note": 69,
      "start": 70.5363,
      "duration": 0.0162,
      "velocity": 120,
      "chip": "ym2612"
    },
    {
      "channel": 4,
      "note": 62,
      "start": 70.5513,
      "duration": 0.0161,
      "velocity": 120,
      "chip": "ym2612"
    },
    {
      "channel": 3,
      "note": 69,
      "start": 70.5525,
      "duration": 0.0161,
      "velocity": 120,
      "chip": "ym2612"
    },
    {
      "channel": 4,
      "note": 62,
      "start": 70.5673,
      "duration": 0.0161,
      "velocity": 120,
      "chip": "ym2612"
    },
    {
      "channel": 3,
      "note": 69,
      "start": 70.5686,
      "duration": 0.0161,
      "velocity": 120,
      "chip": "ym2612"
    },
    {
      "channel": 2,
      "note": 50,
      "start": 70.5701,
      "duration": 0.0157,
      "velocity": 100,
      "chip": "ym2612"
    },
    {
      "channel": 1,
      "note": 38,
      "start": 70.5716,
      "duration": 0.0154,
      "velocity": 100,
      "chip": "ym2612"
    },
    {
      "channel": 4,
      "note": 62,
      "start": 70.5834,
      "duration": 0.0161,
      "velocity": 120,
      "chip": "ym2612"
    },
    {
      "channel": 3,
      "note": 69,
      "start": 70.5846,
      "duration": 0.0161,
      "velocity": 120,
      "chip": "ym2612"
    },
    {
      "channel": 2,
      "note": 50,
      "start": 70.5858,
      "duration": 0.0161,
      "velocity": 100,
      "chip": "ym2612"
    },
    {
      "channel": 1,
      "note": 38,
      "start": 70.587,
      "duration": 0.016,
      "velocity": 100,
      "chip": "ym2612"
    },
    {
      "channel": 4,
      "note": 62,
      "start": 70.5995,
      "duration": 0.0161,
      "velocity": 120,
      "chip": "ym2612"
    },
    {
      "channel": 3,
      "note": 69,
      "start": 70.6007,
      "duration": 0.0161,
      "velocity": 120,
      "chip": "ym2612"
    },
    {
      "channel": 2,
      "note": 50,
      "start": 70.6019,
      "duration": 0.0161,
      "velocity": 100,
      "chip": "ym2612"
    },
    {
      "channel": 1,
      "note": 38,
      "start": 70.603,
      "duration": 0.0162,
      "velocity": 100,
      "chip": "ym2612"
    },
    {
      "channel": 4,
      "note": 62,
      "start": 70.6157,
      "duration": 0.0161,
      "velocity": 120,
      "chip": "ym2612"
    },
    {
      "channel": 3,
      "note": 69,
      "start": 70.6168,
      "duration": 0.0161,
      "velocity": 120,
      "chip": "ym2612"
    },
    {
      "channel": 2,
      "note": 50,
      "start": 70.618,
      "duration": 0.0161,
      "velocity": 100,
      "chip": "ym2612"
    },
    {
      "channel": 1,
      "note": 38,
      "start": 70.6191,
      "duration": 0.0161,
      "velocity": 100,
      "chip": "ym2612"
    },
    {
      "channel": 4,
      "note": 62,
      "start": 70.6318,
      "duration": 0.0161,
      "velocity": 120,
      "chip": "ym2612"
    },
    {
      "channel": 3,
      "note": 69,
      "start": 70.6329,
      "duration": 0.0161,
      "velocity": 120,
      "chip": "ym2612"
    },
    {
      "channel": 2,
      "note": 50,
      "start": 70.6341,
      "duration": 0.0161,
      "velocity": 100,
      "chip": "ym2612"
    },
    {
      "channel": 1,
      "note": 38,
      "start": 70.6352,
      "duration": 0.0161,
      "velocity": 100,
      "chip": "ym2612"
    },
    {
      "channel": 4,
      "note": 62,
      "start": 70.6479,
      "duration": 0.0161,
      "velocity": 120,
      "chip": "ym2612"
    },
    {
      "channel": 3,
      "note": 69,
      "start": 70.649,
      "duration": 0.0161,
      "velocity": 120,
      "chip": "ym2612"
    },
    {
      "channel": 2,
      "note": 50,
      "start": 70.6502,
      "duration": 0.0161,
      "velocity": 100,
      "chip": "ym2612"
    },
    {
      "channel": 1,
      "note": 38,
      "start": 70.6513,
      "duration": 0.0161,
      "velocity": 100,
      "chip": "ym2612"
    },
    {
      "channel": 4,
      "note": 62,
      "start": 70.664,
      "duration": 0.0161,
      "velocity": 120,
      "chip": "ym2612"
    },
    {
      "channel": 3,
      "note": 69,
      "start": 70.6651,
      "duration": 0.0161,
      "velocity": 120,
      "chip": "ym2612"
    },
    {
      "channel": 2,
      "note": 50,
      "start": 70.6663,
      "duration": 0.0161,
      "velocity": 100,
      "chip": "ym2612"
    },
    {
      "channel": 1,
      "note": 38,
      "start": 70.6674,
      "duration": 0.0161,
      "velocity": 100,
      "chip": "ym2612"
    },
    {
      "channel": 4,
      "note": 62,
      "start": 70.6801,
      "duration": 0.0161,
      "velocity": 120,
      "chip": "ym2612"
    },
    {
      "channel": 3,
      "note": 69,
      "start": 70.6812,
      "duration": 0.0162,
      "velocity": 120,
      "chip": "ym2612"
    },
    {
      "channel": 4,
      "note": 62,
      "start": 70.6962,
      "duration": 0.0161,
      "velocity": 120,
      "chip": "ym2612"
    },
    {
      "channel": 3,
      "note": 69,
      "start": 70.6974,
      "duration": 0.0161,
      "velocity": 120,
      "chip": "ym2612"
    },
    {
      "channel": 4,
      "note": 62,
      "start": 70.7123,
      "duration": 0.0161,
      "velocity": 120,
      "chip": "ym2612"
    },
    {
      "channel": 3,
      "note": 69,
      "start": 70.7135,
      "duration": 0.0161,
      "velocity": 120,
      "chip": "ym2612"
    },
    {
      "channel": 4,
      "note": 62,
      "start": 70.7284,
      "duration": 0.0161,
      "velocity": 120,
      "chip": "ym2612"
    },
    {
      "channel": 3,
      "note": 69,
      "start": 70.7296,
      "duration": 0.0161,
      "velocity": 120,
      "chip": "ym2612"
    },
    {
      "channel": 4,
      "note": 62,
      "start": 70.7444,
      "duration": 0.0162,
      "velocity": 120,
      "chip": "ym2612"
    },
    {
      "channel": 3,
      "note": 69,
      "start": 70.7457,
      "duration": 0.0161,
      "velocity": 120,
      "chip": "ym2612"
    },
    {
      "channel": 4,
      "note": 62,
      "start": 70.7606,
      "duration": 0.0162,
      "velocity": 120,
      "chip": "ym2612"
    },
    {
      "channel": 3,
      "note": 69,
      "start": 70.7618,
      "duration": 0.0163,
      "velocity": 120,
      "chip": "ym2612"
    },
    {
      "channel": 2,
      "note": 50,
      "start": 70.7633,
      "duration": 0.0159,
      "velocity": 100,
      "chip": "ym2612"
    },
    {
      "channel": 1,
      "note": 38,
      "start": 70.7648,
      "duration": 0.0156,
      "velocity": 100,
      "chip": "ym2612"
    },
    {
      "channel": 4,
      "note": 62,
      "start": 70.7768,
      "duration": 0.0167,
      "velocity": 120,
      "chip": "ym2612"
    },
    {
      "channel": 3,
      "note": 69,
      "start": 70.778,
      "duration": 0.0167,
      "velocity": 120,
      "chip": "ym2612"
    },
    {
      "channel": 2,
      "note": 50,
      "start": 70.7792,
      "duration": 0.0167,
      "velocity": 100,
      "chip": "ym2612"
    },
    {
      "channel": 1,
      "note": 38,
      "start": 70.7804,
      "duration": 0.0166,
      "velocity": 100,
      "chip": "ym2612"
    },
    {
      "channel": 4,
      "note": 62,
      "start": 70.7935,
      "duration": 0.0163,
      "velocity": 120,
      "chip": "ym2612"
    },
    {
      "channel": 3,
      "note": 69,
      "start": 70.7947,
      "duration": 0.0163,
      "velocity": 120,
      "chip": "ym2612"
    },
    {
      "channel": 2,
      "note": 50,
      "start": 70.7959,
      "duration": 0.0163,
      "velocity": 100,
      "chip": "ym2612"
    },
    {
      "channel": 1,
      "note": 38,
      "start": 70.7969,
      "duration": 0.0163,
      "velocity": 100,
      "chip": "ym2612"
    },
    {
      "channel": 4,
      "note": 62,
      "start": 70.8098,
      "duration": 0.0151,
      "velocity": 120,
      "chip": "ym2612"
    },
    {
      "channel": 3,
      "note": 69,
      "start": 70.811,
      "duration": 0.0152,
      "velocity": 120,
      "chip": "ym2612"
    },
    {
      "channel": 2,
      "note": 50,
      "start": 70.8121,
      "duration": 0.0152,
      "velocity": 100,
      "chip": "ym2612"
    },
    {
      "channel": 1,
      "note": 38,
      "start": 70.8133,
      "duration": 0.0152,
      "velocity": 100,
      "chip": "ym2612"
    },
    {
      "channel": 4,
      "note": 62,
      "start": 70.825,
      "duration": 0.0185,
      "velocity": 120,
      "chip": "ym2612"
    },
    {
      "channel": 3,
      "note": 69,
      "start": 70.8262,
      "duration": 0.0185,
      "velocity": 120,
      "chip": "ym2612"
    },
    {
      "channel": 2,
      "note": 50,
      "start": 70.8273,
      "duration": 0.0185,
      "velocity": 100,
      "chip": "ym2612"
    },
    {
      "channel": 1,
      "note": 38,
      "start": 70.8285,
      "duration": 0.0185,
      "velocity": 100,
      "chip": "ym2612"
    },
    {
      "channel": 4,
      "note": 62,
      "start": 70.8435,
      "duration": 0.0164,
      "velocity": 120,
      "chip": "ym2612"
    },
    {
      "channel": 3,
      "note": 69,
      "start": 70.8447,
      "duration": 0.0164,
      "velocity": 120,
      "chip": "ym2612"
    },
    {
      "channel": 2,
      "note": 50,
      "start": 70.8459,
      "duration": 0.0164,
      "velocity": 100,
      "chip": "ym2612"
    },
    {
      "channel": 1,
      "note": 38,
      "start": 70.8469,
      "duration": 0.0164,
      "velocity": 100,
      "chip": "ym2612"
    },
    {
      "channel": 4,
      "note": 62,
      "start": 70.8599,
      "duration": 0.0158,
      "velocity": 120,
      "chip": "ym2612"
    },
    {
      "channel": 3,
      "note": 69,
      "start": 70.8611,
      "duration": 0.0157,
      "velocity": 120,
      "chip": "ym2612"
    },
    {
      "channel": 2,
      "note": 50,
      "start": 70.8623,
      "duration": 0.0157,
      "velocity": 100,
      "chip": "ym2612"
    },
    {
      "channel": 1,
      "note": 38,
      "start": 70.8634,
      "duration": 0.0158,
      "velocity": 100,
      "chip": "ym2612"
    },
    {
      "channel": 4,
      "note": 62,
      "start": 70.8757,
      "duration": 0.014,
      "velocity": 120,
      "chip": "ym2612"
    },
    {
      "channel": 3,
      "note": 69,
      "start": 70.8768,
      "duration": 0.0141,
      "velocity": 120,
      "chip": "ym2612"
    },
    {
      "channel": 4,
      "note": 62,
      "start": 70.8897,
      "duration": 0.0159,
      "velocity": 120,
      "chip": "ym2612"
    },
    {
      "channel": 3,
      "note": 69,
      "start": 70.8909,
      "duration": 0.0185,
      "velocity": 120,
      "chip": "ym2612"
    },
    {
      "channel": 4,
      "note": 62,
      "start": 70.9055,
      "duration": 0.0161,
      "velocity": 120,
      "chip": "ym2612"
    },
    {
      "channel": 3,
      "note": 69,
      "start": 70.9094,
      "duration": 0.0161,
      "velocity": 120,
      "chip": "ym2612"
    },
    {
      "channel": 4,
      "note": 62,
      "start": 70.9216,
      "duration": 0.0161,
      "velocity": 120,
      "chip": "ym2612"
    },
    {
      "channel": 3,
      "note": 69,
      "start": 70.9255,
      "duration": 0.0134,
      "velocity": 120,
      "chip": "ym2612"
    },
    {
      "channel": 4,
      "note": 62,
      "start": 70.9377,
      "duration": 0.0199,
      "velocity": 120,
      "chip": "ym2612"
    },
    {
      "channel": 3,
      "note": 69,
      "start": 70.9389,
      "duration": 0.0199,
      "velocity": 120,
      "chip": "ym2612"
    },
    {
      "channel": 1,
      "note": 78,
      "start": 70.9562,
      "duration": 0.0142,
      "velocity": 124,
      "chip": "ym2612"
    },
    {
      "channel": 4,
      "note": 62,
      "start": 70.9576,
      "duration": 0.014,
      "velocity": 120,
      "chip": "ym2612"
    },
    {
      "channel": 3,
      "note": 69,
      "start": 70.9588,
      "duration": 0.0168,
      "velocity": 120,
      "chip": "ym2612"
    },
    {
      "channel": 2,
      "note": 50,
      "start": 70.9603,
      "duration": 0.0164,
      "velocity": 100,
      "chip": "ym2612"
    },
    {
      "channel": 1,
      "note": 76,
      "start": 70.9703,
      "duration": 0.016,
      "velocity": 124,
      "chip": "ym2612"
    },
    {
      "channel": 4,
      "note": 62,
      "start": 70.9716,
      "duration": 0.016,
      "velocity": 120,
      "chip": "ym2612"
    },
    {
      "channel": 3,
      "note": 69,
      "start": 70.9756,
      "duration": 0.0132,
      "velocity": 120,
      "chip": "ym2612"
    },
    {
      "channel": 2,
      "note": 50,
      "start": 70.9767,
      "duration": 0.016,
      "velocity": 100,
      "chip": "ym2612"
    },
    {
      "channel": 1,
      "note": 75,
      "start": 70.9864,
      "duration": 0.0161,
      "velocity": 124,
      "chip": "ym2612"
    },
    {
      "channel": 4,
      "note": 62,
      "start": 70.9876,
      "duration": 0.0161,
      "velocity": 120,
      "chip": "ym2612"
    },
    {
      "channel": 3,
      "note": 69,
      "start": 70.9888,
      "duration": 0.0161,
      "velocity": 120,
      "chip": "ym2612"
    },
    {
      "channel": 2,
      "note": 50,
      "start": 70.9927,
      "duration": 0.0157,
      "velocity": 100,
      "chip": "ym2612"
    },
    {
      "channel": 1,
      "note": 74,
      "start": 71.0025,
      "duration": 0.0161,
      "velocity": 124,
      "chip": "ym2612"
    },
    {
      "channel": 4,
      "note": 62,
      "start": 71.0037,
      "duration": 0.0161,
      "velocity": 120,
      "chip": "ym2612"
    },
    {
      "channel": 3,
      "note": 69,
      "start": 71.0049,
      "duration": 0.0161,
      "velocity": 120,
      "chip": "ym2612"
    },
    {
      "channel": 2,
      "note": 50,
      "start": 71.0084,
      "duration": 0.0138,
      "velocity": 100,
      "chip": "ym2612"
    },
    {
      "channel": 1,
      "note": 72,
      "start": 71.0186,
      "duration": 0.0161,
      "velocity": 124,
      "chip": "ym2612"
    },
    {
      "channel": 4,
      "note": 62,
      "start": 71.0198,
      "duration": 0.0161,
      "velocity": 120,
      "chip": "ym2612"
    },
    {
      "channel": 3,
      "note": 69,
      "start": 71.021,
      "duration": 0.0161,
      "velocity": 120,
      "chip": "ym2612"
    },
    {
      "channel": 2,
      "note": 50,
      "start": 71.0222,
      "duration": 0.0161,
      "velocity": 100,
      "chip": "ym2612"
    },
    {
      "channel": 1,
      "note": 71,
      "start": 71.0346,
      "duration": 0.0179,
      "velocity": 124,
      "chip": "ym2612"
    },
    {
      "channel": 4,
      "note": 62,
      "start": 71.0359,
      "duration": 0.0179,
      "velocity": 120,
      "chip": "ym2612"
    },
    {
      "channel": 3,
      "note": 69,
      "start": 71.0371,
      "duration": 0.0179,
      "velocity": 120,
      "chip": "ym2612"
    },
    {
      "channel": 2,
      "note": 50,
      "start": 71.0383,
      "duration": 0.0206,
      "velocity": 100,
      "chip": "ym2612"
    },
    {
      "channel": 1,
      "note": 78,
      "start": 71.0526,
      "duration": 0.0144,
      "velocity": 124,
      "chip": "ym2612"
    },
    {
      "channel": 4,
      "note": 62,
      "start": 71.0539,
      "duration": 0.0144,
      "velocity": 120,
      "chip": "ym2612"
    },
    {
      "channel": 3,
      "note": 69,
      "start": 71.055,
      "duration": 0.0144,
      "velocity": 120,
      "chip": "ym2612"
    },
    {
      "channel": 2,
      "note": 50,
      "start": 71.0589,
      "duration": 0.0117,
      "velocity": 100,
      "chip": "ym2612"
    },
    {
      "channel": 1,
      "note": 76,
      "start": 71.067,
      "duration": 0.016,
      "velocity": 124,
      "chip": "ym2612"
    },
    {
      "channel": 4,
      "note": 62,
      "start": 71.0683,
      "duration": 0.016,
      "velocity": 120,
      "chip": "ym2612"
    },
    {
      "channel": 3,
      "note": 69,
      "start": 71.0694,
      "duration": 0.0161,
      "velocity": 120,
      "chip": "ym2612"
    },
    {
      "channel": 1,
      "note": 75,
      "start": 71.083,
      "duration": 0.0161,
      "velocity": 124,
      "chip": "ym2612"
    },
    {
      "channel": 4,
      "note": 62,
      "start": 71.0843,
      "duration": 0.0161,
      "velocity": 120,
      "chip": "ym2612"
    },
    {
      "channel": 3,
      "note": 69,
      "start": 71.0855,
      "duration": 0.016,
      "velocity": 120,
      "chip": "ym2612"
    },
    {
      "channel": 1,
      "note": 74,
      "start": 71.0991,
      "duration": 0.0161,
      "velocity": 124,
      "chip": "ym2612"
    },
    {
      "channel": 4,
      "note": 62,
      "start": 71.1004,
      "duration": 0.0161,
      "velocity": 120,
      "chip": "ym2612"
    },
    {
      "channel": 3,
      "note": 69,
      "start": 71.1015,
      "duration": 0.0161,
      "velocity": 120,
      "chip": "ym2612"
    },
    {
      "channel": 1,
      "note": 72,
      "start": 71.1152,
      "duration": 0.0161,
      "velocity": 124,
      "chip": "ym2612"
    },
    {
      "channel": 4,
      "note": 62,
      "start": 71.1165,
      "duration": 0.0161,
      "velocity": 120,
      "chip": "ym2612"
    },
    {
      "channel": 3,
      "note": 69,
      "start": 71.1176,
      "duration": 0.0161,
      "velocity": 120,
      "chip": "ym2612"
    },
    {
      "channel": 1,
      "note": 71,
      "start": 71.1313,
      "duration": 0.0179,
      "velocity": 124,
      "chip": "ym2612"
    },
    {
      "channel": 4,
      "note": 62,
      "start": 71.1326,
      "duration": 0.0181,
      "velocity": 120,
      "chip": "ym2612"
    },
    {
      "channel": 3,
      "note": 69,
      "start": 71.1337,
      "duration": 0.0184,
      "velocity": 120,
      "chip": "ym2612"
    },
    {
      "channel": 1,
      "note": 78,
      "start": 71.1492,
      "duration": 0.0144,
      "velocity": 124,
      "chip": "ym2612"
    },
    {
      "channel": 4,
      "note": 65,
      "start": 71.1507,
      "duration": 0.0142,
      "velocity": 120,
      "chip": "ym2612"
    },
    {
      "channel": 3,
      "note": 72,
      "start": 71.1521,
      "duration": 0.014,
      "velocity": 120,
      "chip": "ym2612"
    },
    {
      "channel": 2,
      "note": 50,
      "start": 71.1536,
      "duration": 0.0136,
      "velocity": 100,
      "chip": "ym2612"
    },
    {
      "channel": 1,
      "note": 76,
      "start": 71.1635,
      "duration": 0.016,
      "velocity": 124,
      "chip": "ym2612"
    },
    {
      "channel": 4,
      "note": 65,
      "start": 71.1649,
      "duration": 0.016,
      "velocity": 120,
      "chip": "ym2612"
    },
    {
      "channel": 3,
      "note": 72,
      "start": 71.1661,
      "duration": 0.0159,
      "velocity": 120,
      "chip": "ym2612"
    },
    {
      "channel": 2,
      "note": 50,
      "start": 71.1672,
      "duration": 0.0159,
      "velocity": 100,
      "chip": "ym2612"
    },
    {
      "channel": 1,
      "note": 75,
      "start": 71.1796,
      "duration": 0.0161,
      "velocity": 124,
      "chip": "ym2612"
    },
    {
      "channel": 4,
      "note": 65,
      "start": 71.1808,
      "duration": 0.0161,
      "velocity": 120,
      "chip": "ym2612"
    },
    {
      "channel": 3,
      "note": 72,
      "start": 71.182,
      "duration": 0.0161,
      "velocity": 120,
      "chip": "ym2612"
    },
    {
      "channel": 2,
      "note": 50,
      "start": 71.1831,
      "duration": 0.0161,
      "velocity": 100,
      "chip": "ym2612"
    },
    {
      "channel": 1,
      "note": 74,
      "start": 71.1957,
      "duration": 0.0161,
      "velocity": 124,
      "chip": "ym2612"
    },
    {
      "channel": 4,
      "note": 65,
      "start": 71.1969,
      "duration": 0.0161,
      "velocity": 120,
      "chip": "ym2612"
    },
    {
      "channel": 3,
      "note": 72,
      "start": 71.1981,
      "duration": 0.0162,
      "velocity": 120,
      "chip": "ym2612"
    },
    {
      "channel": 2,
      "note": 50,
      "start": 71.1992,
      "duration": 0.0161,
      "velocity": 100,
      "chip": "ym2612"
    },
    {
      "channel": 1,
      "note": 72,
      "start": 71.2118,
      "duration": 0.0161,
      "velocity": 124,
      "chip": "ym2612"
    },
    {
      "channel": 4,
      "note": 65,
      "start": 71.213,
      "duration": 0.0161,
      "velocity": 120,
      "chip": "ym2612"
    },
    {
      "channel": 3,
      "note": 72,
      "start": 71.2142,
      "duration": 0.0161,
      "velocity": 120,
      "chip": "ym2612"
    },
    {
      "channel": 2,
      "note": 50,
      "start": 71.2153,
      "duration": 0.0161,
      "velocity": 100,
      "chip": "ym2612"
    },
    {
      "channel": 1,
      "note": 71,
      "start": 71.2279,
      "duration": 0.0179,
      "velocity": 124,
      "chip": "ym2612"
    },
    {
      "channel": 4,
      "note": 65,
      "start": 71.2291,
      "duration": 0.0179,
      "velocity": 120,
      "chip": "ym2612"
    },
    {
      "channel": 3,
      "note": 72,
      "start": 71.2303,
      "duration": 0.0179,
      "velocity": 120,
      "chip": "ym2612"
    },
    {
      "channel": 2,
      "note": 50,
      "start": 71.2314,
      "duration": 0.0179,
      "velocity": 100,
      "chip": "ym2612"
    },
    {
      "channel": 1,
      "note": 78,
      "start": 71.2458,
      "duration": 0.0148,
      "velocity": 124,
      "chip": "ym2612"
    },
    {
      "channel": 4,
      "note": 65,
      "start": 71.2471,
      "duration": 0.0148,
      "velocity": 120,
      "chip": "ym2612"
    },
    {
      "channel": 3,
      "note": 72,
      "start": 71.2482,
      "duration": 0.0148,
      "velocity": 120,
      "chip": "ym2612"
    },
    {
      "channel": 2,
      "note": 50,
      "start": 71.2493,
      "duration": 0.0148,
      "velocity": 100,
      "chip": "ym2612"
    },
    {
      "channel": 1,
      "note": 76,
      "start": 71.2606,
      "duration": 0.0163,
      "velocity": 124,
      "chip": "ym2612"
    },
    {
      "channel": 4,
      "note": 65,
      "start": 71.2619,
      "duration": 0.0163,
      "velocity": 120,
      "chip": "ym2612"
    },
    {
      "channel": 3,
      "note": 72,
      "start": 71.263,
      "duration": 0.0163,
      "velocity": 120,
      "chip": "ym2612"
    },
    {
      "channel": 1,
      "note": 75,
      "start": 71.2769,
      "duration": 0.0154,
      "velocity": 124,
      "chip": "ym2612"
    },
    {
      "channel": 4,
      "note": 65,
      "start": 71.2782,
      "duration": 0.0154,
      "velocity": 120,
      "chip": "ym2612"
    },
    {
      "channel": 3,
      "note": 72,
      "start": 71.2793,
      "duration": 0.0154,
      "velocity": 120,
      "chip": "ym2612"
    },
    {
      "channel": 1,
      "note": 74,
      "start": 71.2923,
      "duration": 0.0183,
      "velocity": 124,
      "chip": "ym2612"
    },
    {
      "channel": 4,
      "note": 65,
      "start": 71.2936,
      "duration": 0.0183,
      "velocity": 120,
      "chip": "ym2612"
    },
    {
      "channel": 3,
      "note": 72,
      "start": 71.2947,
      "duration": 0.0183,
      "velocity": 120,
      "chip": "ym2612"
    },
    {
      "channel": 1,
      "note": 72,
      "start": 71.3105,
      "duration": 0.0167,
      "velocity": 124,
      "chip": "ym2612"
    },
    {
      "channel": 4,
      "note": 65,
      "start": 71.3118,
      "duration": 0.0167,
      "velocity": 120,
      "chip": "ym2612"
    },
    {
      "channel": 3,
      "note": 72,
      "start": 71.313,
      "duration": 0.0167,
      "velocity": 120,
      "chip": "ym2612"
    },
    {
      "channel": 1,
      "note": 71,
      "start": 71.3272,
      "duration": 0.0176,
      "velocity": 124,
      "chip": "ym2612"
    },
    {
      "channel": 4,
      "note": 65,
      "start": 71.3285,
      "duration": 0.0176,
      "velocity": 120,
      "chip": "ym2612"
    },
    {
      "channel": 3,
      "note": 72,
      "start": 71.3296,
      "duration": 0.0176,
      "velocity": 120,
      "chip": "ym2612"
    },
    {
      "channel": 1,
      "note": 78,
      "start": 71.3448,
      "duration": 0.0124,
      "velocity": 124,
      "chip": "ym2612"
    },
    {
      "channel": 4,
      "note": 65,
      "start": 71.3461,
      "duration": 0.0123,
      "velocity": 120,
      "chip": "ym2612"
    },
    {
      "channel": 3,
      "note": 72,
      "start": 71.3473,
      "duration": 0.0123,
      "velocity": 120,
      "chip": "ym2612"
    },
    {
      "channel": 2,
      "note": 50,
      "start": 71.3488,
      "duration": 0.012,
      "velocity": 100,
      "chip": "ym2612"
    },
    {
      "channel": 1,
      "note": 76,
      "start": 71.3571,
      "duration": 0.0184,
      "velocity": 124,
      "chip": "ym2612"
    },
    {
      "channel": 4,
      "note": 65,
      "start": 71.3584,
      "duration": 0.0184,
      "velocity": 120,
      "chip": "ym2612"
    },
    {
      "channel": 3,
      "note": 72,
      "start": 71.3595,
      "duration": 0.0185,
      "velocity": 120,
      "chip": "ym2612"
    },
    {
      "channel": 2,
      "note": 50,
      "start": 71.3607,
      "duration": 0.0184,
      "velocity": 100,
      "chip": "ym2612"
    },
    {
      "channel": 1,
      "note": 75,
      "start": 71.3756,
      "duration": 0.0134,
      "velocity": 124,
      "chip": "ym2612"
    },
    {
      "channel": 4,
      "note": 65,
      "start": 71.3768,
      "duration": 0.0161,
      "velocity": 120,
      "chip": "ym2612"
    },
    {
      "channel": 3,
      "note": 72,
      "start": 71.378,
      "duration": 0.0161,
      "velocity": 120,
      "chip": "ym2612"
    },
    {
      "channel": 2,
      "note": 50,
      "start": 71.3791,
      "duration": 0.0161,
      "velocity": 100,
      "chip": "ym2612"
    },
    {
      "channel": 1,
      "note": 74,
      "start": 71.3889,
      "duration": 0.0161,
      "velocity": 124,
      "chip": "ym2612"
    },
    {
      "channel": 4,
      "note": 65,
      "start": 71.3929,
      "duration": 0.0158,
      "velocity": 120,
      "chip": "ym2612"
    },
    {
      "channel": 3,
      "note": 72,
      "start": 71.3941,
      "duration": 0.0157,
      "velocity": 120,
      "chip": "ym2612"
    },
    {
      "channel": 2,
      "note": 50,
      "start": 71.3952,
      "duration": 0.0158,
      "velocity": 100,
      "chip": "ym2612"
    },
    {
      "channel": 1,
      "note": 72,
      "start": 71.405,
      "duration": 0.0161,
      "velocity": 124,
      "chip": "ym2612"
    },
    {
      "channel": 4,
      "note": 65,
      "start": 71.4087,
      "duration": 0.0137,
      "velocity": 120,
      "chip": "ym2612"
    },
    {
      "channel": 3,
      "note": 72,
      "start": 71.4098,
      "duration": 0.0141,
      "velocity": 120,
      "chip": "ym2612"
    },
    {
      "channel": 2,
      "note": 50,
      "start": 71.411,
      "duration": 0.014,
      "velocity": 100,
      "chip": "ym2612"
    },
    {
      "channel": 1,
      "note": 71,
      "start": 71.4211,
      "duration": 0.0161,
      "velocity": 124,
      "chip": "ym2612"
    },
    {
      "channel": 4,
      "note": 65,
      "start": 71.4224,
      "duration": 0.0161,
      "velocity": 120,
      "chip": "ym2612"
    },
    {
      "channel": 3,
      "note": 72,
      "start": 71.4239,
      "duration": 0.0185,
      "velocity": 120,
      "chip": "ym2612"
    },
    {
      "channel": 2,
      "note": 50,
      "start": 71.425,
      "duration": 0.0185,
      "velocity": 100,
      "chip": "ym2612"
    },
    {
      "channel": 1,
      "note": 70,
      "start": 71.4372,
      "duration": 0.0161,
      "velocity": 124,
      "chip": "ym2612"
    },
    {
      "channel": 4,
      "note": 65,
      "start": 71.4385,
      "duration": 0.0161,
      "velocity": 120,
      "chip": "ym2612"
    },
    {
      "channel": 3,
      "note": 72,
      "start": 71.4424,
      "duration": 0.0134,
      "velocity": 120,
      "chip": "ym2612"
    },
    {
      "channel": 2,
      "note": 50,
      "start": 71.4435,
      "duration": 0.0162,
      "velocity": 100,
      "chip": "ym2612"
    },
    {
      "channel": 1,
      "note": 69,
      "start": 71.4533,
      "duration": 0.0161,
      "velocity": 124,
      "chip": "ym2612"
    },
    {
      "channel": 4,
      "note": 65,
      "start": 71.4546,
      "duration": 0.0161,
      "velocity": 120,
      "chip": "ym2612"
    },
    {
      "channel": 3,
      "note": 72,
      "start": 71.4558,
      "duration": 0.0161,
      "velocity": 120,
      "chip": "ym2612"
    },
    {
      "channel": 1,
      "note": 68,
      "start": 71.4694,
      "duration": 0.0161,
      "velocity": 124,
      "chip": "ym2612"
    },
    {
      "channel": 4,
      "note": 65,
      "start": 71.4707,
      "duration": 0.016,
      "velocity": 120,
      "chip": "ym2612"
    },
    {
      "channel": 3,
      "note": 72,
      "start": 71.4719,
      "duration": 0.0161,
      "velocity": 120,
      "chip": "ym2612"
    },
    {
      "channel": 1,
      "note": 66,
      "start": 71.4855,
      "duration": 0.0161,
      "velocity": 124,
      "chip": "ym2612"
    },
    {
      "channel": 4,
      "note": 65,
      "start": 71.4868,
      "duration": 0.0162,
      "velocity": 120,
      "chip": "ym2612"
    },
    {
      "channel": 3,
      "note": 72,
      "start": 71.488,
      "duration": 0.0161,
      "velocity": 120,
      "chip": "ym2612"
    },
    {
      "channel": 1,
      "note": 65,
      "start": 71.5016,
      "duration": 0.0161,
      "velocity": 124,
      "chip": "ym2612"
    },
    {
      "channel": 4,
      "note": 65,
      "start": 71.5029,
      "duration": 0.0161,
      "velocity": 120,
      "chip": "ym2612"
    },
    {
      "channel": 3,
      "note": 72,
      "start": 71.5041,
      "duration": 0.0161,
      "velocity": 120,
      "chip": "ym2612"
    },
    {
      "channel": 1,
      "note": 64,
      "start": 71.5177,
      "duration": 0.0161,
      "velocity": 124,
      "chip": "ym2612"
    },
    {
      "channel": 4,
      "note": 65,
      "start": 71.519,
      "duration": 0.0161,
      "velocity": 120,
      "chip": "ym2612"
    },
    {
      "channel": 3,
      "note": 72,
      "start": 71.5202,
      "duration": 0.0161,
      "velocity": 120,
      "chip": "ym2612"
    },
    {
      "channel": 1,
      "note": 62,
      "start": 71.5338,
      "duration": 0.0161,
      "velocity": 124,
      "chip": "ym2612"
    },
    {
      "channel": 4,
      "note": 65,
      "start": 71.5351,
      "duration": 0.0161,
      "velocity": 120,
      "chip": "ym2612"
    },
    {
      "channel": 3,
      "note": 72,
      "start": 71.5363,
      "duration": 0.0161,
      "velocity": 120,
      "chip": "ym2612"
    },
    {
      "channel": 2,
      "note": 50,
      "start": 71.5378,
      "duration": 0.0158,
      "velocity": 100,
      "chip": "ym2612"
    },
    {
      "channel": 1,
      "note": 61,
      "start": 71.5499,
      "duration": 0.0161,
      "velocity": 124,
      "chip": "ym2612"
    },
    {
      "channel": 4,
      "note": 65,
      "start": 71.5512,
      "duration": 0.0161,
      "velocity": 120,
      "chip": "ym2612"
    },
    {
      "channel": 3,
      "note": 72,
      "start": 71.5523,
      "duration": 0.0161,
      "velocity": 120,
      "chip": "ym2612"
    },
    {
      "channel": 2,
      "note": 50,
      "start": 71.5536,
      "duration": 0.016,
      "velocity": 100,
      "chip": "ym2612"
    },
    {
      "channel": 1,
      "note": 60,
      "start": 71.566,
      "duration": 0.0161,
      "velocity": 124,
      "chip": "ym2612"
    },
    {
      "channel": 4,
      "note": 65,
      "start": 71.5673,
      "duration": 0.0161,
      "velocity": 120,
      "chip": "ym2612"
    },
    {
      "channel": 3,
      "note": 72,
      "start": 71.5684,
      "duration": 0.0161,
      "velocity": 120,
      "chip": "ym2612"
    },
    {
      "channel": 2,
      "note": 50,
      "start": 71.5696,
      "duration": 0.0161,
      "velocity": 100,
      "chip": "ym2612"
    },
    {
      "channel": 1,
      "note": 59,
      "start": 71.5821,
      "duration": 0.0161,
      "velocity": 124,
      "chip": "ym2612"
    },
    {
      "channel": 4,
      "note": 65,
      "start": 71.5834,
      "duration": 0.0161,
      "velocity": 120,
      "chip": "ym2612"
    },
    {
      "channel": 3,
      "note": 72,
      "start": 71.5845,
      "duration": 0.0161,
      "velocity": 120,
      "chip": "ym2612"
    },
    {
      "channel": 2,
      "note": 50,
      "start": 71.5857,
      "duration": 0.0162,
      "velocity": 100,
      "chip": "ym2612"
    },
    {
      "channel": 1,
      "note": 57,
      "start": 71.5982,
      "duration": 0.0161,
      "velocity": 124,
      "chip": "ym2612"
    },
    {
      "channel": 4,
      "note": 65,
      "start": 71.5995,
      "duration": 0.0161,
      "velocity": 120,
      "chip": "ym2612"
    },
    {
      "channel": 3,
      "note": 72,
      "start": 71.6007,
      "duration": 0.0161,
      "velocity": 120,
      "chip": "ym2612"
    },
    {
      "channel": 2,
      "note": 50,
      "start": 71.6018,
      "duration": 0.0161,
      "velocity": 100,
      "chip": "ym2612"
    },
    {
      "channel": 1,
      "note": 56,
      "start": 71.6143,
      "duration": 0.0161,
      "velocity": 124,
      "chip": "ym2612"
    },
    {
      "channel": 4,
      "note": 65,
      "start": 71.6156,
      "duration": 0.0161,
      "velocity": 120,
      "chip": "ym2612"
    },
    {
      "channel": 3,
      "note": 72,
      "start": 71.6168,
      "duration": 0.0161,
      "velocity": 120,
      "chip": "ym2612"
    },
    {
      "channel": 2,
      "note": 50,
      "start": 71.6179,
      "duration": 0.0161,
      "velocity": 100,
      "chip": "ym2612"
    },
    {
      "channel": 1,
      "note": 55,
      "start": 71.6304,
      "duration": 0.0162,
      "velocity": 124,
      "chip": "ym2612"
    },
    {
      "channel": 4,
      "note": 65,
      "start": 71.6317,
      "duration": 0.0161,
      "velocity": 120,
      "chip": "ym2612"
    },
    {
      "channel": 3,
      "note": 72,
      "start": 71.6329,
      "duration": 0.0161,
      "velocity": 120,
      "chip": "ym2612"
    },
    {
      "channel": 2,
      "note": 50,
      "start": 71.634,
      "duration": 0.0161,
      "velocity": 100,
      "chip": "ym2612"
    },
    {
      "channel": 1,
      "note": 53,
      "start": 71.6466,
      "duration": 0.0161,
      "velocity": 124,
      "chip": "ym2612"
    },
    {
      "channel": 4,
      "note": 65,
      "start": 71.6478,
      "duration": 0.0161,
      "velocity": 120,
      "chip": "ym2612"
    },
    {
      "channel": 3,
      "note": 72,
      "start": 71.649,
      "duration": 0.0161,
      "velocity": 120,
      "chip": "ym2612"
    },
    {
      "channel": 1,
      "note": 52,
      "start": 71.6627,
      "duration": 0.0161,
      "velocity": 124,
      "chip": "ym2612"
    },
    {
      "channel": 4,
      "note": 65,
      "start": 71.6639,
      "duration": 0.0161,
      "velocity": 120,
      "chip": "ym2612"
    },
    {
      "channel": 3,
      "note": 72,
      "start": 71.6651,
      "duration": 0.0161,
      "velocity": 120,
      "chip": "ym2612"
    },
    {
      "channel": 1,
      "note": 51,
      "start": 71.6788,
      "duration": 0.0153,
      "velocity": 1,
      "chip": "ym2612"
    },
    {
      "channel": 4,
      "note": 65,
      "start": 71.68,
      "duration": 0.0153,
      "velocity": 120,
      "chip": "ym2612"
    },
    {
      "channel": 3,
      "note": 72,
      "start": 71.6812,
      "duration": 0.0153,
      "velocity": 120,
      "chip": "ym2612"
    },
    {
      "channel": 4,
      "note": 65,
      "start": 71.6953,
      "duration": 0.0153,
      "velocity": 120,
      "chip": "ym2612"
    },
    {
      "channel": 3,
      "note": 72,
      "start": 71.6965,
      "duration": 0.0152,
      "velocity": 120,
      "chip": "ym2612"
    },
    {
      "channel": 4,
      "note": 65,
      "start": 71.7105,
      "duration": 0.0163,
      "velocity": 120,
      "chip": "ym2612"
    },
    {
      "channel": 3,
      "note": 72,
      "start": 71.7117,
      "duration": 0.0163,
      "velocity": 120,
      "chip": "ym2612"
    },
    {
      "channel": 4,
      "note": 65,
      "start": 71.7269,
      "duration": 0.0163,
      "velocity": 120,
      "chip": "ym2612"
    },
    {
      "channel": 3,
      "note": 72,
      "start": 71.728,
      "duration": 0.0163,
      "velocity": 120,
      "chip": "ym2612"
    },
    {
      "channel": 2,
      "note": 50,
      "start": 71.7296,
      "duration": 0.016,
      "velocity": 100,
      "chip": "ym2612"
    },
    {
      "channel": 1,
      "note": 38,
      "start": 71.7312,
      "duration": 0.0155,
      "velocity": 100,
      "chip": "ym2612"
    },
    {
      "channel": 4,
      "note": 65,
      "start": 71.7432,
      "duration": 0.0156,
      "velocity": 120,
      "chip": "ym2612"
    },
    {
      "channel": 3,
      "note": 72,
      "start": 71.7443,
      "duration": 0.0157,
      "velocity": 120,
      "chip": "ym2612"
    },
    {
      "channel": 2,
      "note": 50,
      "start": 71.7455,
      "duration": 0.0156,
      "velocity": 100,
      "chip": "ym2612"
    },
    {
      "channel": 1,
      "note": 38,
      "start": 71.7467,
      "duration": 0.0156,
      "velocity": 100,
      "chip": "ym2612"
    },
    {
      "channel": 4,
      "note": 65,
      "start": 71.7588,
      "duration": 0.018,
      "velocity": 120,
      "chip": "ym2612"
    },
    {
      "channel": 3,
      "note": 72,
      "start": 71.76,
      "duration": 0.018,
      "velocity": 120,
      "chip": "ym2612"
    },
    {
      "channel": 2,
      "note": 50,
      "start": 71.7612,
      "duration": 0.018,
      "velocity": 100,
      "chip": "ym2612"
    },
    {
      "channel": 1,
      "note": 38,
      "start": 71.7623,
      "duration": 0.018,
      "velocity": 100,
      "chip": "ym2612"
    },
    {
      "channel": 4,
      "note": 65,
      "start": 71.7768,
      "duration": 0.0167,
      "velocity": 120,
      "chip": "ym2612"
    },
    {
      "channel": 3,
      "note": 72,
      "start": 71.778,
      "duration": 0.0167,
      "velocity": 120,
      "chip": "ym2612"
    },
    {
      "channel": 2,
      "note": 50,
      "start": 71.7792,
      "duration": 0.0167,
      "velocity": 100,
      "chip": "ym2612"
    },
    {
      "channel": 1,
      "note": 38,
      "start": 71.7803,
      "duration": 0.0167,
      "velocity": 100,
      "chip": "ym2612"
    },
    {
      "channel": 4,
      "note": 65,
      "start": 71.7935,
      "duration": 0.016,
      "velocity": 120,
      "chip": "ym2612"
    },
    {
      "channel": 3,
      "note": 72,
      "start": 71.7947,
      "duration": 0.016,
      "velocity": 120,
      "chip": "ym2612"
    },
    {
      "channel": 2,
      "note": 50,
      "start": 71.7959,
      "duration": 0.016,
      "velocity": 100,
      "chip": "ym2612"
    },
    {
      "channel": 1,
      "note": 38,
      "start": 71.7969,
      "duration": 0.016,
      "velocity": 100,
      "chip": "ym2612"
    },
    {
      "channel": 4,
      "note": 65,
      "start": 71.8095,
      "duration": 0.0141,
      "velocity": 120,
      "chip": "ym2612"
    },
    {
      "channel": 3,
      "note": 72,
      "start": 71.8107,
      "duration": 0.014,
      "velocity": 120,
      "chip": "ym2612"
    },
    {
      "channel": 2,
      "note": 50,
      "start": 71.8118,
      "duration": 0.0141,
      "velocity": 100,
      "chip": "ym2612"
    },
    {
      "channel": 1,
      "note": 38,
      "start": 71.813,
      "duration": 0.0141,
      "velocity": 100,
      "chip": "ym2612"
    },
    {
      "channel": 4,
      "note": 65,
      "start": 71.8236,
      "duration": 0.0185,
      "velocity": 120,
      "chip": "ym2612"
    },
    {
      "channel": 3,
      "note": 72,
      "start": 71.8247,
      "duration": 0.0185,
      "velocity": 120,
      "chip": "ym2612"
    },
    {
      "channel": 2,
      "note": 50,
      "start": 71.8259,
      "duration": 0.0185,
      "velocity": 100,
      "chip": "ym2612"
    },
    {
      "channel": 1,
      "note": 38,
      "start": 71.827,
      "duration": 0.0185,
      "velocity": 100,
      "chip": "ym2612"
    },
    {
      "channel": 4,
      "note": 65,
      "start": 71.8421,
      "duration": 0.0134,
      "velocity": 120,
      "chip": "ym2612"
    },
    {
      "channel": 3,
      "note": 72,
      "start": 71.8432,
      "duration": 0.0162,
      "velocity": 120,
      "chip": "ym2612"
    },
    {
      "channel": 4,
      "note": 65,
      "start": 71.8555,
      "duration": 0.0161,
      "velocity": 120,
      "chip": "ym2612"
    },
    {
      "channel": 3,
      "note": 72,
      "start": 71.8594,
      "duration": 0.0157,
      "velocity": 120,
      "chip": "ym2612"
    },
    {
      "channel": 4,
      "note": 65,
      "start": 71.8716,
      "duration": 0.0161,
      "velocity": 120,
      "chip": "ym2612"
    },
    {
      "channel": 3,
      "note": 72,
      "start": 71.8751,
      "duration": 0.0137,
      "velocity": 120,
      "chip": "ym2612"
    },
    {
      "channel": 4,
      "note": 65,
      "start": 71.8876,
      "duration": 0.0161,
      "velocity": 120,
      "chip": "ym2612"
    },
    {
      "channel": 3,
      "note": 72,
      "start": 71.8889,
      "duration": 0.0161,
      "velocity": 120,
      "chip": "ym2612"
    },
    {
      "channel": 4,
      "note": 65,
      "start": 71.9037,
      "duration": 0.0161,
      "velocity": 120,
      "chip": "ym2612"
    },
    {
      "channel": 3,
      "note": 72,
      "start": 71.9049,
      "duration": 0.0161,
      "velocity": 120,
      "chip": "ym2612"
    },
    {
      "channel": 4,
      "note": 65,
      "start": 71.9198,
      "duration": 0.0161,
      "velocity": 120,
      "chip": "ym2612"
    },
    {
      "channel": 3,
      "note": 72,
      "start": 71.921,
      "duration": 0.0161,
      "velocity": 120,
      "chip": "ym2612"
    },
    {
      "channel": 2,
      "note": 50,
      "start": 71.9226,
      "duration": 0.0157,
      "velocity": 100,
      "chip": "ym2612"
    },
    {
      "channel": 1,
      "note": 38,
      "start": 71.9268,
      "duration": 0.0151,
      "velocity": 100,
      "chip": "ym2612"
    },
    {
      "channel": 4,
      "note": 65,
      "start": 71.9359,
      "duration": 0.0161,
      "velocity": 120,
      "chip": "ym2612"
    },
    {
      "channel": 3,
      "note": 72,
      "start": 71.9371,
      "duration": 0.0161,
      "velocity": 120,
      "chip": "ym2612"
    },
    {
      "channel": 2,
      "note": 50,
      "start": 71.9383,
      "duration": 0.0161,
      "velocity": 100,
      "chip": "ym2612"
    },
    {
      "channel": 1,
      "note": 38,
      "start": 71.9419,
      "duration": 0.0136,
      "velocity": 100,
      "chip": "ym2612"
    },
    {
      "channel": 4,
      "note": 65,
      "start": 71.9521,
      "duration": 0.0161,
      "velocity": 120,
      "chip": "ym2612"
    },
    {
      "channel": 3,
      "note": 72,
      "start": 71.9532,
      "duration": 0.0161,
      "velocity": 120,
      "chip": "ym2612"
    },
    {
      "channel": 2,
      "note": 50,
      "start": 71.9544,
      "duration": 0.0161,
      "velocity": 100,
      "chip": "ym2612"
    },
    {
      "channel": 1,
      "note": 38,
      "start": 71.9555,
      "duration": 0.0161,
      "velocity": 100,
      "chip": "ym2612"
    },
    {
      "channel": 4,
      "note": 65,
      "start": 71.9682,
      "duration": 0.0161,
      "velocity": 120,
      "chip": "ym2612"
    },
    {
      "channel": 3,
      "note": 72,
      "start": 71.9693,
      "duration": 0.0162,
      "velocity": 120,
      "chip": "ym2612"
    },
    {
      "channel": 2,
      "note": 50,
      "start": 71.9705,
      "duration": 0.0161,
      "velocity": 100,
      "chip": "ym2612"
    },
    {
      "channel": 1,
      "note": 38,
      "start": 71.9716,
      "duration": 0.0161,
      "velocity": 100,
      "chip": "ym2612"
    },
    {
      "channel": 4,
      "note": 65,
      "start": 71.9843,
      "duration": 0.0161,
      "velocity": 120,
      "chip": "ym2612"
    },
    {
      "channel": 3,
      "note": 72,
      "start": 71.9855,
      "duration": 0.016,
      "velocity": 120,
      "chip": "ym2612"
    },
    {
      "channel": 2,
      "note": 50,
      "start": 71.9866,
      "duration": 0.016,
      "velocity": 100,
      "chip": "ym2612"
    },
    {
      "channel": 1,
      "note": 38,
      "start": 71.9877,
      "duration": 0.0161,
      "velocity": 100,
      "chip": "ym2612"
    },
    {
      "channel": 4,
      "note": 65,
      "start": 72.0004,
      "duration": 0.0161,
      "velocity": 120,
      "chip": "ym2612"
    },
    {
      "channel": 3,
      "note": 72,
      "start": 72.0015,
      "duration": 0.0161,
      "velocity": 120,
      "chip": "ym2612"
    },
    {
      "channel": 2,
      "note": 50,
      "start": 72.0027,
      "duration": 0.0161,
      "velocity": 100,
      "chip": "ym2612"
    },
    {
      "channel": 1,
      "note": 38,
      "start": 72.0038,
      "duration": 0.0161,
      "velocity": 100,
      "chip": "ym2612"
    },
    {
      "channel": 4,
      "note": 65,
      "start": 72.0165,
      "duration": 0.0161,
      "velocity": 120,
      "chip": "ym2612"
    },
    {
      "channel": 3,
      "note": 72,
      "start": 72.0176,
      "duration": 0.0161,
      "velocity": 120,
      "chip": "ym2612"
    },
    {
      "channel": 2,
      "note": 50,
      "start": 72.0188,
      "duration": 0.0162,
      "velocity": 100,
      "chip": "ym2612"
    },
    {
      "channel": 1,
      "note": 38,
      "start": 72.0199,
      "duration": 0.0161,
      "velocity": 100,
      "chip": "ym2612"
    },
    {
      "channel": 4,
      "note": 65,
      "start": 72.0326,
      "duration": 0.0161,
      "velocity": 120,
      "chip": "ym2612"
    },
    {
      "channel": 3,
      "note": 72,
      "start": 72.0338,
      "duration": 0.0161,
      "velocity": 120,
      "chip": "ym2612"
    },
    {
      "channel": 4,
      "note": 65,
      "start": 72.0487,
      "duration": 0.0161,
      "velocity": 120,
      "chip": "ym2612"
    },
    {
      "channel": 3,
      "note": 72,
      "start": 72.0499,
      "duration": 0.0161,
      "velocity": 120,
      "chip": "ym2612"
    },
    {
      "channel": 4,
      "note": 65,
      "start": 72.0647,
      "duration": 0.0161,
      "velocity": 120,
      "chip": "ym2612"
    },
    {
      "channel": 3,
      "note": 72,
      "start": 72.066,
      "duration": 0.0161,
      "velocity": 120,
      "chip": "ym2612"
    },
    {
      "channel": 4,
      "note": 65,
      "start": 72.0808,
      "duration": 0.0162,
      "velocity": 120,
      "chip": "ym2612"
    },
    {
      "channel": 3,
      "note": 72,
      "start": 72.082,
      "duration": 0.0161,
      "velocity": 120,
      "chip": "ym2612"
    },
    {
      "channel": 4,
      "note": 65,
      "start": 72.097,
      "duration": 0.0161,
      "velocity": 120,
      "chip": "ym2612"
    },
    {
      "channel": 3,
      "note": 72,
      "start": 72.0981,
      "duration": 0.0162,
      "velocity": 120,
      "chip": "ym2612"
    },
    {
      "channel": 4,
      "note": 65,
      "start": 72.1131,
      "duration": 0.0161,
      "velocity": 120,
      "chip": "ym2612"
    },
    {
      "channel": 3,
      "note": 72,
      "start": 72.1143,
      "duration": 0.016,
      "velocity": 120,
      "chip": "ym2612"
    },
    {
      "channel": 2,
      "note": 50,
      "start": 72.1158,
      "duration": 0.0157,
      "velocity": 100,
      "chip": "ym2612"
    },
    {
      "channel": 1,
      "note": 38,
      "start": 72.1173,
      "duration": 0.0154,
      "velocity": 100,
      "chip": "ym2612"
    },
    {
      "channel": 4,
      "note": 65,
      "start": 72.1292,
      "duration": 0.0161,
      "velocity": 120,
      "chip": "ym2612"
    },
    {
      "channel": 3,
      "note": 72,
      "start": 72.1303,
      "duration": 0.0161,
      "velocity": 120,
      "chip": "ym2612"
    },
    {
      "channel": 2,
      "note": 50,
      "start": 72.1315,
      "duration": 0.016,
      "velocity": 100,
      "chip": "ym2612"
    },
    {
      "channel": 1,
      "note": 38,
      "start": 72.1327,
      "duration": 0.016,
      "velocity": 100,
      "chip": "ym2612"
    },
    {
      "channel": 4,
      "note": 65,
      "start": 72.1453,
      "duration": 0.0161,
      "velocity": 120,
      "chip": "ym2612"
    },
    {
      "channel": 3,
      "note": 72,
      "start": 72.1464,
      "duration": 0.0161,
      "velocity": 120,
      "chip": "ym2612"
    },
    {
      "channel": 2,
      "note": 50,
      "start": 72.1476,
      "duration": 0.0161,
      "velocity": 100,
      "chip": "ym2612"
    },
    {
      "channel": 1,
      "note": 38,
      "start": 72.1487,
      "duration": 0.0161,
      "velocity": 100,
      "chip": "ym2612"
    },
    {
      "channel": 4,
      "note": 65,
      "start": 72.1614,
      "duration": 0.0161,
      "velocity": 120,
      "chip": "ym2612"
    },
    {
      "channel": 3,
      "note": 72,
      "start": 72.1625,
      "duration": 0.0162,
      "velocity": 120,
      "chip": "ym2612"
    },
    {
      "channel": 2,
      "note": 50,
      "start": 72.1637,
      "duration": 0.0161,
      "velocity": 100,
      "chip": "ym2612"
    },
    {
      "channel": 1,
      "note": 38,
      "start": 72.1648,
      "duration": 0.0161,
      "velocity": 100,
      "chip": "ym2612"
    },
    {
      "channel": 4,
      "note": 65,
      "start": 72.1775,
      "duration": 0.0161,
      "velocity": 120,
      "chip": "ym2612"
    },
    {
      "channel": 3,
      "note": 72,
      "start": 72.1787,
      "duration": 0.0161,
      "velocity": 120,
      "chip": "ym2612"
    },
    {
      "channel": 2,
      "note": 50,
      "start": 72.1798,
      "duration": 0.0162,
      "velocity": 100,
      "chip": "ym2612"
    },
    {
      "channel": 1,
      "note": 38,
      "start": 72.1809,
      "duration": 0.0161,
      "velocity": 100,
      "chip": "ym2612"
    },
    {
      "channel": 4,
      "note": 65,
      "start": 72.1936,
      "duration": 0.0163,
      "velocity": 120,
      "chip": "ym2612"
    },
    {
      "channel": 3,
      "note": 72,
      "start": 72.1948,
      "duration": 0.0162,
      "velocity": 120,
      "chip": "ym2612"
    },
    {
      "channel": 2,
      "note": 50,
      "start": 72.1959,
      "duration": 0.0162,
      "velocity": 100,
      "chip": "ym2612"
    },
    {
      "channel": 1,
      "note": 38,
      "start": 72.197,
      "duration": 0.0163,
      "velocity": 100,
      "chip": "ym2612"
    },
    {
      "channel": 4,
      "note": 65,
      "start": 72.2098,
      "duration": 0.0159,
      "velocity": 120,
      "chip": "ym2612"
    },
    {
      "channel": 3,
      "note": 72,
      "start": 72.211,
      "duration": 0.016,
      "velocity": 120,
      "chip": "ym2612"
    },
    {
      "channel": 2,
      "note": 50,
      "start": 72.2121,
      "duration": 0.016,
      "velocity": 100,
      "chip": "ym2612"
    },
    {
      "channel": 1,
      "note": 38,
      "start": 72.2133,
      "duration": 0.016,
      "velocity": 100,
      "chip": "ym2612"
    },
    {
      "channel": 4,
      "note": 65,
      "start": 72.2258,
      "duration": 0.0178,
      "velocity": 120,
      "chip": "ym2612"
    },
    {
      "channel": 3,
      "note": 72,
      "start": 72.227,
      "duration": 0.0178,
      "velocity": 120,
      "chip": "ym2612"
    },
    {
      "channel": 4,
      "note": 65,
      "start": 72.2436,
      "duration": 0.0166,
      "velocity": 120,
      "chip": "ym2612"
    },
    {
      "channel": 3,
      "note": 72,
      "start": 72.2447,
      "duration": 0.0167,
      "velocity": 120,
      "chip": "ym2612"
    },
    {
      "channel": 4,
      "note": 65,
      "start": 72.2602,
      "duration": 0.0163,
      "velocity": 120,
      "chip": "ym2612"
    },
    {
      "channel": 3,
      "note": 72,
      "start": 72.2614,
      "duration": 0.0163,
      "velocity": 120,
      "chip": "ym2612"
    },
    {
      "channel": 4,
      "note": 65,
      "start": 72.2765,
      "duration": 0.0141,
      "velocity": 120,
      "chip": "ym2612"
    },
    {
      "channel": 3,
      "note": 72,
      "start": 72.2777,
      "duration": 0.014,
      "velocity": 120,
      "chip": "ym2612"
    },
    {
      "channel": 4,
      "note": 65,
      "start": 72.2905,
      "duration": 0.0185,
      "velocity": 120,
      "chip": "ym2612"
    },
    {
      "channel": 3,
      "note": 72,
      "start": 72.2917,
      "duration": 0.0186,
      "velocity": 120,
      "chip": "ym2612"
    },
    {
      "channel": 4,
      "note": 65,
      "start": 72.309,
      "duration": 0.0134,
      "velocity": 120,
      "chip": "ym2612"
    },
    {
      "channel": 3,
      "note": 72,
      "start": 72.3102,
      "duration": 0.0161,
      "velocity": 120,
      "chip": "ym2612"
    },
    {
      "channel": 2,
      "note": 50,
      "start": 72.3118,
      "duration": 0.0157,
      "velocity": 100,
      "chip": "ym2612"
    },
    {
      "channel": 1,
      "note": 38,
      "start": 72.3133,
      "duration": 0.0154,
      "velocity": 100,
      "chip": "ym2612"
    },
    {
      "channel": 4,
      "note": 65,
      "start": 72.3224,
      "duration": 0.0161,
      "velocity": 120,
      "chip": "ym2612"
    },
    {
      "channel": 3,
      "note": 72,
      "start": 72.3263,
      "duration": 0.0157,
      "velocity": 120,
      "chip": "ym2612"
    },
    {
      "channel": 2,
      "note": 50,
      "start": 72.3275,
      "duration": 0.0157,
      "velocity": 100,
      "chip": "ym2612"
    },
    {
      "channel": 1,
      "note": 38,
      "start": 72.3287,
      "duration": 0.0156,
      "velocity": 100,
      "chip": "ym2612"
    },
    {
      "channel": 4,
      "note": 65,
      "start": 72.3385,
      "duration": 0.0161,
      "velocity": 120,
      "chip": "ym2612"
    },
    {
      "channel": 3,
      "note": 72,
      "start": 72.342,
      "duration": 0.0137,
      "velocity": 120,
      "chip": "ym2612"
    },
    {
      "channel": 2,
      "note": 50,
      "start": 72.3432,
      "duration": 0.0141,
      "velocity": 100,
      "chip": "ym2612"
    },
    {
      "channel": 1,
      "note": 38,
      "start": 72.3443,
      "duration": 0.014,
      "velocity": 100,
      "chip": "ym2612"
    },
    {
      "channel": 4,
      "note": 65,
      "start": 72.3546,
      "duration": 0.0161,
      "velocity": 120,
      "chip": "ym2612"
    },
    {
      "channel": 3,
      "note": 72,
      "start": 72.3558,
      "duration": 0.0161,
      "velocity": 120,
      "chip": "ym2612"
    },
    {
      "channel": 2,
      "note": 50,
      "start": 72.3572,
      "duration": 0.0185,
      "velocity": 100,
      "chip": "ym2612"
    },
    {
      "channel": 1,
      "note": 38,
      "start": 72.3583,
      "duration": 0.0186,
      "velocity": 100,
      "chip": "ym2612"
    },
    {
      "channel": 4,
      "note": 65,
      "start": 72.3707,
      "duration": 0.0161,
      "velocity": 120,
      "chip": "ym2612"
    },
    {
      "channel": 3,
      "note": 72,
      "start": 72.3719,
      "duration": 0.0161,
      "velocity": 120,
      "chip": "ym2612"
    },
    {
      "channel": 2,
      "note": 50,
      "start": 72.3758,
      "duration": 0.0134,
      "velocity": 100,
      "chip": "ym2612"
    },
    {
      "channel": 1,
      "note": 38,
      "start": 72.3769,
      "duration": 0.0161,
      "velocity": 100,
      "chip": "ym2612"
    },
    {
      "channel": 4,
      "note": 65,
      "start": 72.3868,
      "duration": 0.0161,
      "velocity": 120,
      "chip": "ym2612"
    },
    {
      "channel": 3,
      "note": 72,
      "start": 72.388,
      "duration": 0.0161,
      "velocity": 120,
      "chip": "ym2612"
    },
    {
      "channel": 2,
      "note": 50,
      "start": 72.3891,
      "duration": 0.0161,
      "velocity": 100,
      "chip": "ym2612"
    },
    {
      "channel": 1,
      "note": 38,
      "start": 72.393,
      "duration": 0.0157,
      "velocity": 100,
      "chip": "ym2612"
    },
    {
      "channel": 4,
      "note": 65,
      "start": 72.4029,
      "duration": 0.0161,
      "velocity": 120,
      "chip": "ym2612"
    },
    {
      "channel": 3,
      "note": 72,
      "start": 72.4041,
      "duration": 0.0161,
      "velocity": 120,
      "chip": "ym2612"
    },
    {
      "channel": 2,
      "note": 50,
      "start": 72.4052,
      "duration": 0.0161,
      "velocity": 100,
      "chip": "ym2612"
    },
    {
      "channel": 1,
      "note": 38,
      "start": 72.4087,
      "duration": 0.0137,
      "velocity": 100,
      "chip": "ym2612"
    },
    {
      "channel": 4,
      "note": 65,
      "start": 72.419,
      "duration": 0.0161,
      "velocity": 120,
      "chip": "ym2612"
    },
    {
      "channel": 3,
      "note": 72,
      "start": 72.4202,
      "duration": 0.0161,
      "velocity": 120,
      "chip": "ym2612"
    },
    {
      "channel": 4,
      "note": 65,
      "start": 72.4351,
      "duration": 0.0161,
      "velocity": 120,
      "chip": "ym2612"
    },
    {
      "channel": 3,
      "note": 72,
      "start": 72.4363,
      "duration": 0.0161,
      "velocity": 120,
      "chip": "ym2612"
    },
    {
      "channel": 4,
      "note": 65,
      "start": 72.4512,
      "duration": 0.0161,
      "velocity": 120,
      "chip": "ym2612"
    },
    {
      "channel": 3,
      "note": 72,
      "start": 72.4523,
      "duration": 0.0161,
      "velocity": 120,
      "chip": "ym2612"
    },
    {
      "channel": 4,
      "note": 65,
      "start": 72.4673,
      "duration": 0.0161,
      "velocity": 120,
      "chip": "ym2612"
    },
    {
      "channel": 3,
      "note": 72,
      "start": 72.4684,
      "duration": 0.0162,
      "velocity": 120,
      "chip": "ym2612"
    },
    {
      "channel": 4,
      "note": 65,
      "start": 72.4834,
      "duration": 0.0162,
      "velocity": 120,
      "chip": "ym2612"
    },
    {
      "channel": 3,
      "note": 72,
      "start": 72.4846,
      "duration": 0.0161,
      "velocity": 120,
      "chip": "ym2612"
    },
    {
      "channel": 4,
      "note": 65,
      "start": 72.4995,
      "duration": 0.016,
      "velocity": 120,
      "chip": "ym2612"
    },
    {
      "channel": 3,
      "note": 72,
      "start": 72.5007,
      "duration": 0.0161,
      "velocity": 120,
      "chip": "ym2612"
    },
    {
      "channel": 2,
      "note": 50,
      "start": 72.5022,
      "duration": 0.0157,
      "velocity": 100,
      "chip": "ym2612"
    },
    {
      "channel": 1,
      "note": 38,
      "start": 72.5038,
      "duration": 0.0153,
      "velocity": 100,
      "chip": "ym2612"
    },
    {
      "channel": 4,
      "note": 65,
      "start": 72.5156,
      "duration": 0.0161,
      "velocity": 120,
      "chip": "ym2612"
    },
    {
      "channel": 3,
      "note": 72,
      "start": 72.5168,
      "duration": 0.0161,
      "velocity": 120,
      "chip": "ym2612"
    },
    {
      "channel": 2,
      "note": 50,
      "start": 72.5179,
      "duration": 0.0161,
      "velocity": 100,
      "chip": "ym2612"
    },
    {
      "channel": 1,
      "note": 38,
      "start": 72.5191,
      "duration": 0.016,
      "velocity": 100,
      "chip": "ym2612"
    },
    {
      "channel": 4,
      "note": 65,
      "start": 72.5317,
      "duration": 0.0161,
      "velocity": 120,
      "chip": "ym2612"
    },
    {
      "channel": 3,
      "note": 72,
      "start": 72.5329,
      "duration": 0.0161,
      "velocity": 120,
      "chip": "ym2612"
    },
    {
      "channel": 2,
      "note": 50,
      "start": 72.534,
      "duration": 0.0161,
      "velocity": 100,
      "chip": "ym2612"
    },
    {
      "channel": 1,
      "note": 38,
      "start": 72.5351,
      "duration": 0.0162,
      "velocity": 100,
      "chip": "ym2612"
    },
    {
      "channel": 4,
      "note": 65,
      "start": 72.5478,
      "duration": 0.0161,
      "velocity": 120,
      "chip": "ym2612"
    },
    {
      "channel": 3,
      "note": 72,
      "start": 72.549,
      "duration": 0.0161,
      "velocity": 120,
      "chip": "ym2612"
    },
    {
      "channel": 2,
      "note": 50,
      "start": 72.5501,
      "duration": 0.0161,
      "velocity": 100,
      "chip": "ym2612"
    },
    {
      "channel": 1,
      "note": 38,
      "start": 72.5513,
      "duration": 0.0161,
      "velocity": 100,
      "chip": "ym2612"
    },
    {
      "channel": 4,
      "note": 65,
      "start": 72.5639,
      "duration": 0.0161,
      "velocity": 120,
      "chip": "ym2612"
    },
    {
      "channel": 3,
      "note": 72,
      "start": 72.5651,
      "duration": 0.0161,
      "velocity": 120,
      "chip": "ym2612"
    },
    {
      "channel": 2,
      "note": 50,
      "start": 72.5662,
      "duration": 0.0161,
      "velocity": 100,
      "chip": "ym2612"
    },
    {
      "channel": 1,
      "note": 38,
      "start": 72.5673,
      "duration": 0.0161,
      "velocity": 100,
      "chip": "ym2612"
    },
    {
      "channel": 4,
      "note": 65,
      "start": 72.58,
      "duration": 0.0161,
      "velocity": 120,
      "chip": "ym2612"
    },
    {
      "channel": 3,
      "note": 72,
      "start": 72.5812,
      "duration": 0.0161,
      "velocity": 120,
      "chip": "ym2612"
    },
    {
      "channel": 2,
      "note": 50,
      "start": 72.5823,
      "duration": 0.0161,
      "velocity": 100,
      "chip": "ym2612"
    },
    {
      "channel": 1,
      "note": 38,
      "start": 72.5834,
      "duration": 0.0161,
      "velocity": 100,
      "chip": "ym2612"
    },
    {
      "channel": 4,
      "note": 65,
      "start": 72.5961,
      "duration": 0.0161,
      "velocity": 120,
      "chip": "ym2612"
    },
    {
      "channel": 3,
      "note": 72,
      "start": 72.5973,
      "duration": 0.0161,
      "velocity": 120,
      "chip": "ym2612"
    },
    {
      "channel": 2,
      "note": 50,
      "start": 72.5984,
      "duration": 0.0162,
      "velocity": 100,
      "chip": "ym2612"
    },
    {
      "channel": 1,
      "note": 38,
      "start": 72.5995,
      "duration": 0.0161,
      "velocity": 100,
      "chip": "ym2612"
    },
    {
      "channel": 4,
      "note": 65,
      "start": 72.6122,
      "duration": 0.0161,
      "velocity": 120,
      "chip": "ym2612"
    },
    {
      "channel": 3,
      "note": 72,
      "start": 72.6134,
      "duration": 0.0161,
      "velocity": 120,
      "chip": "ym2612"
    },
    {
      "channel": 4,
      "note": 65,
      "start": 72.6283,
      "duration": 0.0161,
      "velocity": 120,
      "chip": "ym2612"
    },
    {
      "channel": 3,
      "note": 72,
      "start": 72.6295,
      "duration": 0.0161,
      "velocity": 120,
      "chip": "ym2612"
    },
    {
      "channel": 4,
      "note": 65,
      "start": 72.6444,
      "duration": 0.0161,
      "velocity": 120,
      "chip": "ym2612"
    },
    {
      "channel": 3,
      "note": 72,
      "start": 72.6456,
      "duration": 0.0161,
      "velocity": 120,
      "chip": "ym2612"
    },
    {
      "channel": 4,
      "note": 65,
      "start": 72.6605,
      "duration": 0.0162,
      "velocity": 120,
      "chip": "ym2612"
    },
    {
      "channel": 3,
      "note": 72,
      "start": 72.6617,
      "duration": 0.0161,
      "velocity": 120,
      "chip": "ym2612"
    },
    {
      "channel": 4,
      "note": 65,
      "start": 72.6766,
      "duration": 0.0195,
      "velocity": 120,
      "chip": "ym2612"
    },
    {
      "channel": 3,
      "note": 72,
      "start": 72.6778,
      "duration": 0.0195,
      "velocity": 120,
      "chip": "ym2612"
    },
    {
      "channel": 0,
      "note": 88,
      "start": 72.695,
      "duration": 0.0157,
      "velocity": 127,
      "chip": "ym2612"
    },
    {
      "channel": 4,
      "note": 65,
      "start": 72.6962,
      "duration": 0.0157,
      "velocity": 120,
      "chip": "ym2612"
    },
    {
      "channel": 3,
      "note": 72,
      "start": 72.6973,
      "duration": 0.0157,
      "velocity": 120,
      "chip": "ym2612"
    },
    {
      "channel": 2,
      "note": 50,
      "start": 72.6988,
      "duration": 0.0154,
      "velocity": 100,
      "chip": "ym2612"
    },
    {
      "channel": 1,
      "note": 38,
      "start": 72.7004,
      "duration": 0.015,
      "velocity": 100,
      "chip": "ym2612"
    },
    {
      "channel": 0,
      "note": 86,
      "start": 72.7107,
      "duration": 0.0166,
      "velocity": 127,
      "chip": "ym2612"
    },
    {
      "channel": 4,
      "note": 65,
      "start": 72.7119,
      "duration": 0.0166,
      "velocity": 120,
      "chip": "ym2612"
    },
    {
      "channel": 3,
      "note": 72,
      "start": 72.713,
      "duration": 0.0167,
      "velocity": 120,
      "chip": "ym2612"
    },
    {
      "channel": 2,
      "note": 50,
      "start": 72.7142,
      "duration": 0.0165,
      "velocity": 100,
      "chip": "ym2612"
    },
    {
      "channel": 1,
      "note": 38,
      "start": 72.7154,
      "duration": 0.0165,
      "velocity": 100,
      "chip": "ym2612"
    },
    {
      "channel": 0,
      "note": 85,
      "start": 72.7273,
      "duration": 0.0163,
      "velocity": 127,
      "chip": "ym2612"
    },
    {
      "channel": 4,
      "note": 65,
      "start": 72.7285,
      "duration": 0.0163,
      "velocity": 120,
      "chip": "ym2612"
    },
    {
      "channel": 3,
      "note": 72,
      "start": 72.7297,
      "duration": 0.0163,
      "velocity": 120,
      "chip": "ym2612"
    },
    {
      "channel": 2,
      "note": 50,
      "start": 72.7308,
      "duration": 0.0163,
      "velocity": 100,
      "chip": "ym2612"
    },
    {
      "channel": 1,
      "note": 38,
      "start": 72.7319,
      "duration": 0.0163,
      "velocity": 100,
      "chip": "ym2612"
    },
    {
      "channel": 0,
      "note": 83,
      "start": 72.7436,
      "duration": 0.0142,
      "velocity": 127,
      "chip": "ym2612"
    },
    {
      "channel": 4,
      "note": 65,
      "start": 72.7448,
      "duration": 0.0143,
      "velocity": 120,
      "chip": "ym2612"
    },
    {
      "channel": 3,
      "note": 72,
      "start": 72.746,
      "duration": 0.0143,
      "velocity": 120,
      "chip": "ym2612"
    },
    {
      "channel": 2,
      "note": 50,
      "start": 72.7471,
      "duration": 0.0143,
      "velocity": 100,
      "chip": "ym2612"
    },
    {
      "channel": 1,
      "note": 38,
      "start": 72.7482,
      "duration": 0.0143,
      "velocity": 100,
      "chip": "ym2612"
    },
    {
      "channel": 0,
      "note": 81,
      "start": 72.7579,
      "duration": 0.0185,
      "velocity": 127,
      "chip": "ym2612"
    },
    {
      "channel": 4,
      "note": 65,
      "start": 72.7591,
      "duration": 0.0185,
      "velocity": 120,
      "chip": "ym2612"
    },
    {
      "channel": 3,
      "note": 72,
      "start": 72.7603,
      "duration": 0.0185,
      "velocity": 120,
      "chip": "ym2612"
    },
    {
      "channel": 2,
      "note": 50,
      "start": 72.7614,
      "duration": 0.0185,
      "velocity": 100,
      "chip": "ym2612"
    },
    {
      "channel": 1,
      "note": 38,
      "start": 72.7625,
      "duration": 0.0185,
      "velocity": 100,
      "chip": "ym2612"
    },
    {
      "channel": 0,
      "note": 80,
      "start": 72.7764,
      "duration": 0.0179,
      "velocity": 127,
      "chip": "ym2612"
    },
    {
      "channel": 4,
      "note": 65,
      "start": 72.7776,
      "duration": 0.0179,
      "velocity": 120,
      "chip": "ym2612"
    },
    {
      "channel": 3,
      "note": 72,
      "start": 72.7788,
      "duration": 0.0179,
      "velocity": 120,
      "chip": "ym2612"
    },
    {
      "channel": 2,
      "note": 50,
      "start": 72.7799,
      "duration": 0.0179,
      "velocity": 100,
      "chip": "ym2612"
    },
    {
      "channel": 1,
      "note": 38,
      "start": 72.781,
      "duration": 0.0179,
      "velocity": 100,
      "chip": "ym2612"
    },
    {
      "channel": 0,
      "note": 88,
      "start": 72.7943,
      "duration": 0.0139,
      "velocity": 127,
      "chip": "ym2612"
    },
    {
      "channel": 4,
      "note": 65,
      "start": 72.7955,
      "duration": 0.014,
      "velocity": 120,
      "chip": "ym2612"
    },
    {
      "channel": 3,
      "note": 72,
      "start": 72.7967,
      "duration": 0.014,
      "velocity": 120,
      "chip": "ym2612"
    },
    {
      "channel": 2,
      "note": 50,
      "start": 72.7978,
      "duration": 0.014,
      "velocity": 100,
      "chip": "ym2612"
    },
    {
      "channel": 1,
      "note": 38,
      "start": 72.799,
      "duration": 0.014,
      "velocity": 100,
      "chip": "ym2612"
    },
    {
      "channel": 0,
      "note": 86,
      "start": 72.8083,
      "duration": 0.0137,
      "velocity": 127,
      "chip": "ym2612"
    },
    {
      "channel": 4,
      "note": 65,
      "start": 72.8095,
      "duration": 0.0139,
      "velocity": 120,
      "chip": "ym2612"
    },
    {
      "channel": 3,
      "note": 72,
      "start": 72.8107,
      "duration": 0.014,
      "velocity": 120,
      "chip": "ym2612"
    },
    {
      "channel": 0,
      "note": 85,
      "start": 72.8219,
      "duration": 0.0162,
      "velocity": 127,
      "chip": "ym2612"
    },
    {
      "channel": 4,
      "note": 65,
      "start": 72.8235,
      "duration": 0.0185,
      "velocity": 120,
      "chip": "ym2612"
    },
    {
      "channel": 3,
      "note": 72,
      "start": 72.8247,
      "duration": 0.0185,
      "velocity": 120,
      "chip": "ym2612"
    },
    {
      "channel": 0,
      "note": 83,
      "start": 72.8381,
      "duration": 0.0161,
      "velocity": 127,
      "chip": "ym2612"
    },
    {
      "channel": 4,
      "note": 65,
      "start": 72.842,
      "duration": 0.0134,
      "velocity": 120,
      "chip": "ym2612"
    },
    {
      "channel": 3,
      "note": 72,
      "start": 72.8432,
      "duration": 0.0161,
      "velocity": 120,
      "chip": "ym2612"
    },
    {
      "channel": 0,
      "note": 81,
      "start": 72.8542,
      "duration": 0.0161,
      "velocity": 127,
      "chip": "ym2612"
    },
    {
      "channel": 4,
      "note": 65,
      "start": 72.8553,
      "duration": 0.0162,
      "velocity": 120,
      "chip": "ym2612"
    },
    {
      "channel": 3,
      "note": 72,
      "start": 72.8593,
      "duration": 0.0157,
      "velocity": 120,
      "chip": "ym2612"
    },
    {
      "channel": 0,
      "note": 80,
      "start": 72.8703,
      "duration": 0.0179,
      "velocity": 127,
      "chip": "ym2612"
    },
    {
      "channel": 4,
      "note": 65,
      "start": 72.8715,
      "duration": 0.0183,
      "velocity": 120,
      "chip": "ym2612"
    },
    {
      "channel": 3,
      "note": 72,
      "start": 72.875,
      "duration": 0.016,
      "velocity": 120,
      "chip": "ym2612"
    },
    {
      "channel": 0,
      "note": 88,
      "start": 72.8882,
      "duration": 0.0143,
      "velocity": 127,
      "chip": "ym2612"
    },
    {
      "channel": 4,
      "note": 65,
      "start": 72.8898,
      "duration": 0.014,
      "velocity": 120,
      "chip": "ym2612"
    },
    {
      "channel": 3,
      "note": 72,
      "start": 72.891,
      "duration": 0.0139,
      "velocity": 120,
      "chip": "ym2612"
    },
    {
      "channel": 2,
      "note": 50,
      "start": 72.8925,
      "duration": 0.0163,
      "velocity": 100,
      "chip": "ym2612"
    },
    {
      "channel": 1,
      "note": 38,
      "start": 72.894,
      "duration": 0.016,
      "velocity": 100,
      "chip": "ym2612"
    },
    {
      "channel": 0,
      "note": 86,
      "start": 72.9025,
      "duration": 0.016,
      "velocity": 127,
      "chip": "ym2612"
    },
    {
      "channel": 4,
      "note": 65,
      "start": 72.9037,
      "duration": 0.016,
      "velocity": 120,
      "chip": "ym2612"
    },
    {
      "channel": 3,
      "note": 72,
      "start": 72.9049,
      "duration": 0.016,
      "velocity": 120,
      "chip": "ym2612"
    },
    {
      "channel": 2,
      "note": 50,
      "start": 72.9088,
      "duration": 0.0132,
      "velocity": 100,
      "chip": "ym2612"
    },
    {
      "channel": 1,
      "note": 38,
      "start": 72.91,
      "duration": 0.0159,
      "velocity": 100,
      "chip": "ym2612"
    },
    {
      "channel": 0,
      "note": 85,
      "start": 72.9186,
      "duration": 0.0161,
      "velocity": 127,
      "chip": "ym2612"
    },
    {
      "channel": 4,
      "note": 65,
      "start": 72.9198,
      "duration": 0.0161,
      "velocity": 120,
      "chip": "ym2612"
    },
    {
      "channel": 3,
      "note": 72,
      "start": 72.9209,
      "duration": 0.0161,
      "velocity": 120,
      "chip": "ym2612"
    },
    {
      "channel": 2,
      "note": 50,
      "start": 72.9221,
      "duration": 0.0161,
      "velocity": 100,
      "chip": "ym2612"
    },
    {
      "channel": 1,
      "note": 38,
      "start": 72.9259,
      "duration": 0.0157,
      "velocity": 100,
      "chip": "ym2612"
    },
    {
      "channel": 0,
      "note": 83,
      "start": 72.9346,
      "duration": 0.0161,
      "velocity": 127,
      "chip": "ym2612"
    },
    {
      "channel": 4,
      "note": 65,
      "start": 72.9359,
      "duration": 0.0161,
      "velocity": 120,
      "chip": "ym2612"
    },
    {
      "channel": 3,
      "note": 72,
      "start": 72.937,
      "duration": 0.0162,
      "velocity": 120,
      "chip": "ym2612"
    },
    {
      "channel": 2,
      "note": 50,
      "start": 72.9382,
      "duration": 0.0161,
      "velocity": 100,
      "chip": "ym2612"
    },
    {
      "channel": 1,
      "note": 38,
      "start": 72.9417,
      "duration": 0.0137,
      "velocity": 100,
      "chip": "ym2612"
    },
    {
      "channel": 0,
      "note": 81,
      "start": 72.9507,
      "duration": 0.0161,
      "velocity": 127,
      "chip": "ym2612"
    },
    {
      "channel": 4,
      "note": 65,
      "start": 72.952,
      "duration": 0.0161,
      "velocity": 120,
      "chip": "ym2612"
    },
    {
      "channel": 3,
      "note": 72,
      "start": 72.9532,
      "duration": 0.0161,
      "velocity": 120,
      "chip": "ym2612"
    },
    {
      "channel": 2,
      "note": 50,
      "start": 72.9542,
      "duration": 0.0161,
      "velocity": 100,
      "chip": "ym2612"
    },
    {
      "channel": 1,
      "note": 38,
      "start": 72.9554,
      "duration": 0.0161,
      "velocity": 100,
      "chip": "ym2612"
    },
    {
      "channel": 0,
      "note": 80,
      "start": 72.9668,
      "duration": 0.0196,
      "velocity": 127,
      "chip": "ym2612"
    },
    {
      "channel": 4,
      "note": 65,
      "start": 72.968,
      "duration": 0.0196,
      "velocity": 120,
      "chip": "ym2612"
    },
    {
      "channel": 3,
      "note": 72,
      "start": 72.9693,
      "duration": 0.0195,
      "velocity": 120,
      "chip": "ym2612"
    },
    {
      "channel": 2,
      "note": 50,
      "start": 72.9703,
      "duration": 0.0223,
      "velocity": 100,
      "chip": "ym2612"
    },
    {
      "channel": 1,
      "note": 38,
      "start": 72.9715,
      "duration": 0.0132,
      "velocity": 124,
      "chip": "ym2612"
    },
    {
      "channel": 1,
      "note": 78,
      "start": 72.9847,
      "duration": 0.0144,
      "velocity": 124,
      "chip": "ym2612"
    },
    {
      "channel": 0,
      "note": 78,
      "start": 72.9864,
      "duration": 0.0144,
      "velocity": 127,
      "chip": "ym2612"
    },
    {
      "channel": 4,
      "note": 65,
      "start": 72.9876,
      "duration": 0.0143,
      "velocity": 120,
      "chip": "ym2612"
    },
    {
      "channel": 3,
      "note": 72,
      "start": 72.9888,
      "duration": 0.0144,
      "velocity": 120,
      "chip": "ym2612"
    },
    {
      "channel": 2,
      "note": 50,
      "start": 72.9927,
      "duration": 0.0116,
      "velocity": 100,
      "chip": "ym2612"
    },
    {
      "channel": 1,
      "note": 76,
      "start": 72.9991,
      "duration": 0.016,
      "velocity": 124,
      "chip": "ym2612"
    },
    {
      "channel": 0,
      "note": 76,
      "start": 73.0008,
      "duration": 0.016,
      "velocity": 127,
      "chip": "ym2612"
    },
    {
      "channel": 4,
      "note": 65,
      "start": 73.002,
      "duration": 0.0161,
      "velocity": 120,
      "chip": "ym2612"
    },
    {
      "channel": 3,
      "note": 72,
      "start": 73.0032,
      "duration": 0.0161,
      "velocity": 120,
      "chip": "ym2612"
    },
    {
      "channel": 1,
      "note": 75,
      "start": 73.0151,
      "duration": 0.0161,
      "velocity": 124,
      "chip": "ym2612"
    },
    {
      "channel": 0,
      "note": 75,
      "start": 73.0168,
      "duration": 0.0161,
      "velocity": 127,
      "chip": "ym2612"
    },
    {
      "channel": 4,
      "note": 65,
      "start": 73.018,
      "duration": 0.0161,
      "velocity": 120,
      "chip": "ym2612"
    },
    {
      "channel": 3,
      "note": 72,
      "start": 73.0193,
      "duration": 0.016,
      "velocity": 120,
      "chip": "ym2612"
    },
    {
      "channel": 1,
      "note": 74,
      "start": 73.0312,
      "duration": 0.0161,
      "velocity": 124,
      "chip": "ym2612"
    },
    {
      "channel": 0,
      "note": 73,
      "start": 73.0329,
      "duration": 0.0161,
      "velocity": 127,
      "chip": "ym2612"
    },
    {
      "channel": 4,
      "note": 65,
      "start": 73.0341,
      "duration": 0.0161,
      "velocity": 120,
      "chip": "ym2612"
    },
    {
      "channel": 3,
      "note": 72,
      "start": 73.0353,
      "duration": 0.0161,
      "velocity": 120,
      "chip": "ym2612"
    },
    {
      "channel": 1,
      "note": 72,
      "start": 73.0473,
      "duration": 0.0161,
      "velocity": 124,
      "chip": "ym2612"
    },
    {
      "channel": 0,
      "note": 71,
      "start": 73.049,
      "duration": 0.0161,
      "velocity": 127,
      "chip": "ym2612"
    },
    {
      "channel": 4,
      "note": 65,
      "start": 73.0502,
      "duration": 0.0161,
      "velocity": 120,
      "chip": "ym2612"
    },
    {
      "channel": 3,
      "note": 72,
      "start": 73.0514,
      "duration": 0.0161,
      "velocity": 120,
      "chip": "ym2612"
    },
    {
      "channel": 1,
      "note": 71,
      "start": 73.0634,
      "duration": 0.0161,
      "velocity": 124,
      "chip": "ym2612"
    },
    {
      "channel": 0,
      "note": 69,
      "start": 73.0651,
      "duration": 0.0179,
      "velocity": 115,
      "chip": "ym2612"
    },
    {
      "channel": 4,
      "note": 65,
      "start": 73.0663,
      "duration": 0.0179,
      "velocity": 120,
      "chip": "ym2612"
    },
    {
      "channel": 3,
      "note": 72,
      "start": 73.0675,
      "duration": 0.0179,
      "velocity": 120,
      "chip": "ym2612"
    },
    {
      "channel": 1,
      "note": 70,
      "start": 73.0795,
      "duration": 0.0161,
      "velocity": 124,
      "chip": "ym2612"
    },
    {
      "channel": 0,
      "note": 36,
      "start": 73.083,
      "duration": 0.0144,
      "velocity": 115,
      "chip": "ym2612"
    },
    {
      "channel": 4,
      "note": 65,
      "start": 73.0842,
      "duration": 0.0144,
      "velocity": 120,
      "chip": "ym2612"
    },
    {
      "channel": 3,
      "note": 72,
      "start": 73.0854,
      "duration": 0.0144,
      "velocity": 120,
      "chip": "ym2612"
    },
    {
      "channel": 2,
      "note": 50,
      "start": 73.0869,
      "duration": 0.0141,
      "velocity": 100,
      "chip": "ym2612"
    },
    {
      "channel": 1,
      "note": 69,
      "start": 73.0956,
      "duration": 0.0161,
      "velocity": 124,
      "chip": "ym2612"
    },
    {
      "channel": 0,
      "note": 36,
      "start": 73.0974,
      "duration": 0.0161,
      "velocity": 115,
      "chip": "ym2612"
    },
    {
      "channel": 4,
      "note": 65,
      "start": 73.0986,
      "duration": 0.016,
      "velocity": 120,
      "chip": "ym2612"
    },
    {
      "channel": 3,
      "note": 72,
      "start": 73.0998,
      "duration": 0.016,
      "velocity": 120,
      "chip": "ym2612"
    },
    {
      "channel": 2,
      "note": 50,
      "start": 73.101,
      "duration": 0.016,
      "velocity": 100,
      "chip": "ym2612"
    },
    {
      "channel": 1,
      "note": 68,
      "start": 73.1117,
      "duration": 0.0161,
      "velocity": 124,
      "chip": "ym2612"
    },
    {
      "channel": 0,
      "note": 37,
      "start": 73.1135,
      "duration": 0.0161,
      "velocity": 115,
      "chip": "ym2612"
    },
    {
      "channel": 4,
      "note": 65,
      "start": 73.1146,
      "duration": 0.0161,
      "velocity": 120,
      "chip": "ym2612"
    },
    {
      "channel": 3,
      "note": 72,
      "start": 73.1158,
      "duration": 0.0161,
      "velocity": 120,
      "chip": "ym2612"
    },
    {
      "channel": 2,
      "note": 50,
      "start": 73.117,
      "duration": 0.0161,
      "velocity": 100,
      "chip": "ym2612"
    },
    {
      "channel": 1,
      "note": 66,
      "start": 73.1278,
      "duration": 0.0162,
      "velocity": 124,
      "chip": "ym2612"
    },
    {
      "channel": 0,
      "note": 37,
      "start": 73.1296,
      "duration": 0.0161,
      "velocity": 115,
      "chip": "ym2612"
    },
    {
      "channel": 4,
      "note": 65,
      "start": 73.1307,
      "duration": 0.0161,
      "velocity": 120,
      "chip": "ym2612"
    },
    {
      "channel": 3,
      "note": 72,
      "start": 73.1319,
      "duration": 0.0161,
      "velocity": 120,
      "chip": "ym2612"
    },
    {
      "channel": 2,
      "note": 50,
      "start": 73.1331,
      "duration": 0.0161,
      "velocity": 100,
      "chip": "ym2612"
    },
    {
      "channel": 1,
      "note": 65,
      "start": 73.1439,
      "duration": 0.0161,
      "velocity": 124,
      "chip": "ym2612"
    },
    {
      "channel": 0,
      "note": 38,
      "start": 73.1457,
      "duration": 0.0161,
      "velocity": 115,
      "chip": "ym2612"
    },
    {
      "channel": 4,
      "note": 65,
      "start": 73.1469,
      "duration": 0.0161,
      "velocity": 120,
      "chip": "ym2612"
    },
    {
      "channel": 3,
      "note": 72,
      "start": 73.1481,
      "duration": 0.016,
      "velocity": 120,
      "chip": "ym2612"
    },
    {
      "channel": 2,
      "note": 50,
      "start": 73.1492,
      "duration": 0.0161,
      "velocity": 100,
      "chip": "ym2612"
    },
    {
      "channel": 1,
      "note": 64,
      "start": 73.16,
      "duration": 0.0172,
      "velocity": 124,
      "chip": "ym2612"
    },
    {
      "channel": 0,
      "note": 38,
      "start": 73.1618,
      "duration": 0.019,
      "velocity": 127,
      "chip": "ym2612"
    },
    {
      "channel": 4,
      "note": 65,
      "start": 73.163,
      "duration": 0.0191,
      "velocity": 120,
      "chip": "ym2612"
    },
    {
      "channel": 3,
      "note": 72,
      "start": 73.1641,
      "duration": 0.0191,
      "velocity": 120,
      "chip": "ym2612"
    },
    {
      "channel": 2,
      "note": 50,
      "start": 73.1653,
      "duration": 0.0191,
      "velocity": 100,
      "chip": "ym2612"
    },
    {
      "channel": 1,
      "note": 62,
      "start": 73.1772,
      "duration": 0.0167,
      "velocity": 124,
      "chip": "ym2612"
    },
    {
      "channel": 0,
      "note": 84,
      "start": 73.1808,
      "duration": 0.0148,
      "velocity": 127,
      "chip": "ym2612"
    },
    {
      "channel": 4,
      "note": 65,
      "start": 73.182,
      "duration": 0.0148,
      "velocity": 120,
      "chip": "ym2612"
    },
    {
      "channel": 3,
      "note": 72,
      "start": 73.1832,
      "duration": 0.0149,
      "velocity": 120,
      "chip": "ym2612"
    },
    {
      "channel": 2,
      "note": 50,
      "start": 73.1843,
      "duration": 0.0149,
      "velocity": 100,
      "chip": "ym2612"
    },
    {
      "channel": 1,
      "note": 61,
      "start": 73.1939,
      "duration": 0.0163,
      "velocity": 124,
      "chip": "ym2612"
    },
    {
      "channel": 0,
      "note": 82,
      "start": 73.1957,
      "duration": 0.0163,
      "velocity": 127,
      "chip": "ym2612"
    },
    {
      "channel": 4,
      "note": 65,
      "start": 73.1969,
      "duration": 0.0163,
      "velocity": 120,
      "chip": "ym2612"
    },
    {
      "channel": 3,
      "note": 72,
      "start": 73.1981,
      "duration": 0.0162,
      "velocity": 120,
      "chip": "ym2612"
    },
    {
      "channel": 1,
      "note": 60,
      "start": 73.2102,
      "duration": 0.0145,
      "velocity": 124,
      "chip": "ym2612"
    },
    {
      "channel": 0,
      "note": 81,
      "start": 73.212,
      "duration": 0.0145,
      "velocity": 127,
      "chip": "ym2612"
    },
    {
      "channel": 4,
      "note": 65,
      "start": 73.2132,
      "duration": 0.0145,
      "velocity": 120,
      "chip": "ym2612"
    },
    {
      "channel": 3,
      "note": 72,
      "start": 73.2143,
      "duration": 0.0145,
      "velocity": 120,
      "chip": "ym2612"
    },
    {
      "channel": 1,
      "note": 59,
      "start": 73.2247,
      "duration": 0.0186,
      "velocity": 124,
      "chip": "ym2612"
    },
    {
      "channel": 0,
      "note": 79,
      "start": 73.2265,
      "duration": 0.0186,
      "velocity": 127,
      "chip": "ym2612"
    },
    {
      "channel": 4,
      "note": 65,
      "start": 73.2277,
      "duration": 0.0185,
      "velocity": 120,
      "chip": "ym2612"
    },
    {
      "channel": 3,
      "note": 72,
      "start": 73.2288,
      "duration": 0.0186,
      "velocity": 120,
      "chip": "ym2612"
    },
    {
      "channel": 1,
      "note": 57,
      "start": 73.2433,
      "duration": 0.0161,
      "velocity": 124,
      "chip": "ym2612"
    },
    {
      "channel": 0,
      "note": 77,
      "start": 73.245,
      "duration": 0.0161,
      "velocity": 127,
      "chip": "ym2612"
    },
    {
      "channel": 4,
      "note": 65,
      "start": 73.2462,
      "duration": 0.0161,
      "velocity": 120,
      "chip": "ym2612"
    },
    {
      "channel": 3,
      "note": 72,
      "start": 73.2474,
      "duration": 0.0161,
      "velocity": 120,
      "chip": "ym2612"
    },
    {
      "channel": 1,
      "note": 56,
      "start": 73.2594,
      "duration": 0.0157,
      "velocity": 124,
      "chip": "ym2612"
    },
    {
      "channel": 0,
      "note": 76,
      "start": 73.2611,
      "duration": 0.0176,
      "velocity": 127,
      "chip": "ym2612"
    },
    {
      "channel": 4,
      "note": 65,
      "start": 73.2623,
      "duration": 0.0176,
      "velocity": 120,
      "chip": "ym2612"
    },
    {
      "channel": 3,
      "note": 72,
      "start": 73.2635,
      "duration": 0.0176,
      "velocity": 120,
      "chip": "ym2612"
    },
    {
      "channel": 1,
      "note": 55,
      "start": 73.2751,
      "duration": 0.0137,
      "velocity": 124,
      "chip": "ym2612"
    },
    {
      "channel": 0,
      "note": 84,
      "start": 73.2787,
      "duration": 0.0123,
      "velocity": 127,
      "chip": "ym2612"
    },
    {
      "channel": 4,
      "note": 65,
      "start": 73.2799,
      "duration": 0.0122,
      "velocity": 120,
      "chip": "ym2612"
    },
    {
      "channel": 3,
      "note": 72,
      "start": 73.2811,
      "duration": 0.0122,
      "velocity": 120,
      "chip": "ym2612"
    },
    {
      "channel": 2,
      "note": 50,
      "start": 73.2826,
      "duration": 0.0118,
      "velocity": 100,
      "chip": "ym2612"
    },
    {
      "channel": 1,
      "note": 53,
      "start": 73.2889,
      "duration": 0.0161,
      "velocity": 124,
      "chip": "ym2612"
    },
    {
      "channel": 0,
      "note": 82,
      "start": 73.291,
      "duration": 0.0185,
      "velocity": 127,
      "chip": "ym2612"
    },
    {
      "channel": 4,
      "note": 65,
      "start": 73.2921,
      "duration": 0.0185,
      "velocity": 120,
      "chip": "ym2612"
    },
    {
      "channel": 3,
      "note": 72,
      "start": 73.2933,
      "duration": 0.0185,
      "velocity": 120,
      "chip": "ym2612"
    },
    {
      "channel": 2,
      "note": 50,
      "start": 73.2944,
      "duration": 0.0185,
      "velocity": 100,
      "chip": "ym2612"
    },
    {
      "channel": 1,
      "note": 52,
      "start": 73.3049,
      "duration": 0.0161,
      "velocity": 124,
      "chip": "ym2612"
    },
    {
      "channel": 0,
      "note": 81,
      "start": 73.3094,
      "duration": 0.0161,
      "velocity": 127,
      "chip": "ym2612"
    },
    {
      "channel": 4,
      "note": 65,
      "start": 73.3106,
      "duration": 0.0161,
      "velocity": 120,
      "chip": "ym2612"
    },
    {
      "channel": 3,
      "note": 72,
      "start": 73.3118,
      "duration": 0.0161,
      "velocity": 120,
      "chip": "ym2612"
    },
    {
      "channel": 2,
      "note": 50,
      "start": 73.3129,
      "duration": 0.0161,
      "velocity": 100,
      "chip": "ym2612"
    },
    {
      "channel": 1,
      "note": 51,
      "start": 73.321,
      "duration": 0.0153,
      "velocity": 1,
      "chip": "ym2612"
    },
    {
      "channel": 0,
      "note": 79,
      "start": 73.3255,
      "duration": 0.0125,
      "velocity": 127,
      "chip": "ym2612"
    },
    {
      "channel": 4,
      "note": 65,
      "start": 73.3267,
      "duration": 0.0149,
      "velocity": 120,
      "chip": "ym2612"
    },
    {
      "channel": 3,
      "note": 72,
      "start": 73.3279,
      "duration": 0.0149,
      "velocity": 120,
      "chip": "ym2612"
    },
    {
      "channel": 2,
      "note": 50,
      "start": 73.329,
      "duration": 0.0149,
      "velocity": 100,
      "chip": "ym2612"
    },
    {
      "channel": 0,
      "note": 77,
      "start": 73.338,
      "duration": 0.0153,
      "velocity": 127,
      "chip": "ym2612"
    },
    {
      "channel": 4,
      "note": 65,
      "start": 73.3416,
      "duration": 0.0129,
      "velocity": 120,
      "chip": "ym2612"
    },
    {
      "channel": 3,
      "note": 72,
      "start": 73.3428,
      "duration": 0.0128,
      "velocity": 120,
      "chip": "ym2612"
    },
    {
      "channel": 2,
      "note": 50,
      "start": 73.3439,
      "duration": 0.0132,
      "velocity": 100,
      "chip": "ym2612"
    },
    {
      "channel": 1,
      "note": 51,
      "start": 73.3461,
      "duration": 0.0122,
      "velocity": 100,
      "chip": "ym2612"
    },
    {
      "channel": 0,
      "note": 76,
      "start": 73.3533,
      "duration": 0.0179,
      "velocity": 115,
      "chip": "ym2612"
    },
    {
      "channel": 4,
      "note": 65,
      "start": 73.3545,
      "duration": 0.0179,
      "velocity": 120,
      "chip": "ym2612"
    },
    {
      "channel": 3,
      "note": 72,
      "start": 73.3556,
      "duration": 0.0207,
      "velocity": 120,
      "chip": "ym2612"
    },
    {
      "channel": 2,
      "note": 50,
      "start": 73.3571,
      "duration": 0.0203,
      "velocity": 100,
      "chip": "ym2612"
    },
    {
      "channel": 1,
      "note": 38,
      "start": 73.3583,
      "duration": 0.0203,
      "velocity": 100,
      "chip": "ym2612"
    },
    {
      "channel": 0,
      "note": 36,
      "start": 73.3712,
      "duration": 0.0144,
      "velocity": 115,
      "chip": "ym2612"
    },
    {
      "channel": 4,
      "note": 65,
      "start": 73.3724,
      "duration": 0.0144,
      "velocity": 120,
      "chip": "ym2612"
    },
    {
      "channel": 3,
      "note": 72,
      "start": 73.3763,
      "duration": 0.0116,
      "velocity": 120,
      "chip": "ym2612"
    },
    {
      "channel": 2,
      "note": 50,
      "start": 73.3775,
      "duration": 0.0117,
      "velocity": 100,
      "chip": "ym2612"
    },
    {
      "channel": 1,
      "note": 38,
      "start": 73.3785,
      "duration": 0.0144,
      "velocity": 100,
      "chip": "ym2612"
    },
    {
      "channel": 0,
      "note": 36,
      "start": 73.3856,
      "duration": 0.0161,
      "velocity": 115,
      "chip": "ym2612"
    },
    {
      "channel": 4,
      "note": 65,
      "start": 73.3868,
      "duration": 0.0161,
      "velocity": 120,
      "chip": "ym2612"
    },
    {
      "channel": 3,
      "note": 72,
      "start": 73.388,
      "duration": 0.016,
      "velocity": 120,
      "chip": "ym2612"
    },
    {
      "channel": 0,
      "note": 37,
      "start": 73.4016,
      "duration": 0.0161,
      "velocity": 115,
      "chip": "ym2612"
    },
    {
      "channel": 4,
      "note": 65,
      "start": 73.4029,
      "duration": 0.016,
      "velocity": 120,
      "chip": "ym2612"
    },
    {
      "channel": 3,
      "note": 72,
      "start": 73.404,
      "duration": 0.0161,
      "velocity": 120,
      "chip": "ym2612"
    },
    {
      "channel": 0,
      "note": 37,
      "start": 73.4177,
      "duration": 0.0161,
      "velocity": 115,
      "chip": "ym2612"
    },
    {
      "channel": 4,
      "note": 65,
      "start": 73.4189,
      "duration": 0.0161,
      "velocity": 120,
      "chip": "ym2612"
    },
    {
      "channel": 3,
      "note": 72,
      "start": 73.4201,
      "duration": 0.0161,
      "velocity": 120,
      "chip": "ym2612"
    },
    {
      "channel": 0,
      "note": 38,
      "start": 73.4338,
      "duration": 0.0161,
      "velocity": 115,
      "chip": "ym2612"
    },
    {
      "channel": 4,
      "note": 65,
      "start": 73.435,
      "duration": 0.0161,
      "velocity": 120,
      "chip": "ym2612"
    },
    {
      "channel": 3,
      "note": 72,
      "start": 73.4362,
      "duration": 0.0161,
      "velocity": 120,
      "chip": "ym2612"
    },
    {
      "channel": 0,
      "note": 38,
      "start": 73.4499,
      "duration": 0.0179,
      "velocity": 127,
      "chip": "ym2612"
    },
    {
      "channel": 4,
      "note": 65,
      "start": 73.4511,
      "duration": 0.0179,
      "velocity": 120,
      "chip": "ym2612"
    },
    {
      "channel": 3,
      "note": 72,
      "start": 73.4523,
      "duration": 0.0179,
      "velocity": 120,
      "chip": "ym2612"
    },
    {
      "channel": 0,
      "note": 78,
      "start": 73.4679,
      "duration": 0.0143,
      "velocity": 127,
      "chip": "ym2612"
    },
    {
      "channel": 4,
      "note": 65,
      "start": 73.4691,
      "duration": 0.0143,
      "velocity": 120,
      "chip": "ym2612"
    },
    {
      "channel": 3,
      "note": 72,
      "start": 73.4702,
      "duration": 0.0143,
      "velocity": 120,
      "chip": "ym2612"
    },
    {
      "channel": 2,
      "note": 50,
      "start": 73.4717,
      "duration": 0.014,
      "velocity": 100,
      "chip": "ym2612"
    },
    {
      "channel": 1,
      "note": 38,
      "start": 73.4757,
      "duration": 0.0112,
      "velocity": 100,
      "chip": "ym2612"
    },
    {
      "channel": 0,
      "note": 76,
      "start": 73.4822,
      "duration": 0.016,
      "velocity": 127,
      "chip": "ym2612"
    },
    {
      "channel": 4,
      "note": 65,
      "start": 73.4834,
      "duration": 0.016,
      "velocity": 120,
      "chip": "ym2612"
    },
    {
      "channel": 3,
      "note": 72,
      "start": 73.4845,
      "duration": 0.016,
      "velocity": 120,
      "chip": "ym2612"
    },
    {
      "channel": 2,
      "note": 50,
      "start": 73.4857,
      "duration": 0.016,
      "velocity": 100,
      "chip": "ym2612"
    },
    {
      "channel": 1,
      "note": 38,
      "start": 73.4869,
      "duration": 0.016,
      "velocity": 100,
      "chip": "ym2612"
    },
    {
      "channel": 0,
      "note": 75,
      "start": 73.4982,
      "duration": 0.0161,
      "velocity": 127,
      "chip": "ym2612"
    },
    {
      "channel": 4,
      "note": 65,
      "start": 73.4994,
      "duration": 0.0161,
      "velocity": 120,
      "chip": "ym2612"
    },
    {
      "channel": 3,
      "note": 72,
      "start": 73.5006,
      "duration": 0.0161,
      "velocity": 120,
      "chip": "ym2612"
    },
    {
      "channel": 2,
      "note": 50,
      "start": 73.5017,
      "duration": 0.0161,
      "velocity": 100,
      "chip": "ym2612"
    },
    {
      "channel": 1,
      "note": 38,
      "start": 73.5029,
      "duration": 0.0161,
      "velocity": 100,
      "chip": "ym2612"
    },
    {
      "channel": 0,
      "note": 73,
      "start": 73.5143,
      "duration": 0.0161,
      "velocity": 127,
      "chip": "ym2612"
    },
    {
      "channel": 4,
      "note": 65,
      "start": 73.5155,
      "duration": 0.0161,
      "velocity": 120,
      "chip": "ym2612"
    },
    {
      "channel": 3,
      "note": 72,
      "start": 73.5167,
      "duration": 0.0161,
      "velocity": 120,
      "chip": "ym2612"
    },
    {
      "channel": 2,
      "note": 50,
      "start": 73.5178,
      "duration": 0.0162,
      "velocity": 100,
      "chip": "ym2612"
    },
    {
      "channel": 1,
      "note": 38,
      "start": 73.519,
      "duration": 0.0161,
      "velocity": 100,
      "chip": "ym2612"
    },
    {
      "channel": 0,
      "note": 71,
      "start": 73.5304,
      "duration": 0.0161,
      "velocity": 127,
      "chip": "ym2612"
    },
    {
      "channel": 4,
      "note": 65,
      "start": 73.5316,
      "duration": 0.0161,
      "velocity": 120,
      "chip": "ym2612"
    },
    {
      "channel": 3,
      "note": 72,
      "start": 73.5328,
      "duration": 0.0161,
      "velocity": 120,
      "chip": "ym2612"
    },
    {
      "channel": 2,
      "note": 50,
      "start": 73.534,
      "duration": 0.016,
      "velocity": 100,
      "chip": "ym2612"
    },
    {
      "channel": 1,
      "note": 38,
      "start": 73.5351,
      "duration": 0.016,
      "velocity": 100,
      "chip": "ym2612"
    },
    {
      "channel": 0,
      "note": 70,
      "start": 73.5465,
      "duration": 0.0179,
      "velocity": 127,
      "chip": "ym2612"
    },
    {
      "channel": 4,
      "note": 65,
      "start": 73.5477,
      "duration": 0.018,
      "velocity": 120,
      "chip": "ym2612"
    },
    {
      "channel": 3,
      "note": 72,
      "start": 73.5489,
      "duration": 0.0179,
      "velocity": 120,
      "chip": "ym2612"
    },
    {
      "channel": 2,
      "note": 50,
      "start": 73.55,
      "duration": 0.018,
      "velocity": 100,
      "chip": "ym2612"
    },
    {
      "channel": 1,
      "note": 38,
      "start": 73.5511,
      "duration": 0.018,
      "velocity": 100,
      "chip": "ym2612"
    },
    {
      "channel": 0,
      "note": 78,
      "start": 73.5645,
      "duration": 0.0143,
      "velocity": 127,
      "chip": "ym2612"
    },
    {
      "channel": 4,
      "note": 65,
      "start": 73.5657,
      "duration": 0.0143,
      "velocity": 120,
      "chip": "ym2612"
    },
    {
      "channel": 3,
      "note": 72,
      "start": 73.5668,
      "duration": 0.0143,
      "velocity": 120,
      "chip": "ym2612"
    },
    {
      "channel": 2,
      "note": 50,
      "start": 73.568,
      "duration": 0.0143,
      "velocity": 100,
      "chip": "ym2612"
    },
    {
      "channel": 1,
      "note": 38,
      "start": 73.5691,
      "duration": 0.0143,
      "velocity": 100,
      "chip": "ym2612"
    },
    {
      "channel": 0,
      "note": 76,
      "start": 73.5788,
      "duration": 0.016,
      "velocity": 127,
      "chip": "ym2612"
    },
    {
      "channel": 4,
      "note": 65,
      "start": 73.58,
      "duration": 0.0161,
      "velocity": 120,
      "chip": "ym2612"
    },
    {
      "channel": 3,
      "note": 72,
      "start": 73.5812,
      "duration": 0.016,
      "velocity": 120,
      "chip": "ym2612"
    },
    {
      "channel": 0,
      "note": 75,
      "start": 73.5948,
      "duration": 0.0161,
      "velocity": 127,
      "chip": "ym2612"
    },
    {
      "channel": 4,
      "note": 65,
      "start": 73.5961,
      "duration": 0.0161,
      "velocity": 120,
      "chip": "ym2612"
    },
    {
      "channel": 3,
      "note": 72,
      "start": 73.5972,
      "duration": 0.0161,
      "velocity": 120,
      "chip": "ym2612"
    },
    {
      "channel": 0,
      "note": 73,
      "start": 73.6109,
      "duration": 0.0161,
      "velocity": 127,
      "chip": "ym2612"
    },
    {
      "channel": 4,
      "note": 65,
      "start": 73.6121,
      "duration": 0.0161,
      "velocity": 120,
      "chip": "ym2612"
    },
    {
      "channel": 3,
      "note": 72,
      "start": 73.6133,
      "duration": 0.0161,
      "velocity": 120,
      "chip": "ym2612"
    },
    {
      "channel": 0,
      "note": 71,
      "start": 73.627,
      "duration": 0.0169,
      "velocity": 127,
      "chip": "ym2612"
    },
    {
      "channel": 4,
      "note": 65,
      "start": 73.6282,
      "duration": 0.0169,
      "velocity": 120,
      "chip": "ym2612"
    },
    {
      "channel": 3,
      "note": 72,
      "start": 73.6294,
      "duration": 0.017,
      "velocity": 120,
      "chip": "ym2612"
    },
    {
      "channel": 0,
      "note": 70,
      "start": 73.6439,
      "duration": 0.0185,
      "velocity": 127,
      "chip": "ym2612"
    },
    {
      "channel": 4,
      "note": 65,
      "start": 73.6451,
      "duration": 0.0186,
      "velocity": 120,
      "chip": "ym2612"
    },
    {
      "channel": 3,
      "note": 72,
      "start": 73.6464,
      "duration": 0.0186,
      "velocity": 120,
      "chip": "ym2612"
    },
    {
      "channel": 0,
      "note": 78,
      "start": 73.6625,
      "duration": 0.0145,
      "velocity": 127,
      "chip": "ym2612"
    },
    {
      "channel": 4,
      "note": 65,
      "start": 73.6637,
      "duration": 0.0144,
      "velocity": 120,
      "chip": "ym2612"
    },
    {
      "channel": 3,
      "note": 72,
      "start": 73.6649,
      "duration": 0.0144,
      "velocity": 120,
      "chip": "ym2612"
    },
    {
      "channel": 2,
      "note": 50,
      "start": 73.6665,
      "duration": 0.0141,
      "velocity": 100,
      "chip": "ym2612"
    },
    {
      "channel": 1,
      "note": 38,
      "start": 73.668,
      "duration": 0.0137,
      "velocity": 100,
      "chip": "ym2612"
    },
    {
      "channel": 0,
      "note": 76,
      "start": 73.677,
      "duration": 0.0146,
      "velocity": 127,
      "chip": "ym2612"
    },
    {
      "channel": 4,
      "note": 65,
      "start": 73.6782,
      "duration": 0.0146,
      "velocity": 120,
      "chip": "ym2612"
    },
    {
      "channel": 3,
      "note": 72,
      "start": 73.6794,
      "duration": 0.0146,
      "velocity": 120,
      "chip": "ym2612"
    },
    {
      "channel": 2,
      "note": 50,
      "start": 73.6805,
      "duration": 0.0146,
      "velocity": 100,
      "chip": "ym2612"
    },
    {
      "channel": 1,
      "note": 38,
      "start": 73.6817,
      "duration": 0.0145,
      "velocity": 100,
      "chip": "ym2612"
    },
    {
      "channel": 0,
      "note": 75,
      "start": 73.6916,
      "duration": 0.0187,
      "velocity": 127,
      "chip": "ym2612"
    },
    {
      "channel": 4,
      "note": 65,
      "start": 73.6928,
      "duration": 0.0186,
      "velocity": 120,
      "chip": "ym2612"
    },
    {
      "channel": 3,
      "note": 72,
      "start": 73.6939,
      "duration": 0.0187,
      "velocity": 120,
      "chip": "ym2612"
    },
    {
      "channel": 2,
      "note": 50,
      "start": 73.6951,
      "duration": 0.0187,
      "velocity": 100,
      "chip": "ym2612"
    },
    {
      "channel": 1,
      "note": 38,
      "start": 73.6962,
      "duration": 0.0186,
      "velocity": 100,
      "chip": "ym2612"
    },
    {
      "channel": 0,
      "note": 73,
      "start": 73.7103,
      "duration": 0.0161,
      "velocity": 127,
      "chip": "ym2612"
    },
    {
      "channel": 4,
      "note": 65,
      "start": 73.7114,
      "duration": 0.0162,
      "velocity": 120,
      "chip": "ym2612"
    },
    {
      "channel": 3,
      "note": 72,
      "start": 73.7127,
      "duration": 0.0161,
      "velocity": 120,
      "chip": "ym2612"
    },
    {
      "channel": 2,
      "note": 50,
      "start": 73.7138,
      "duration": 0.0161,
      "velocity": 100,
      "chip": "ym2612"
    },
    {
      "channel": 1,
      "note": 38,
      "start": 73.7149,
      "duration": 0.0162,
      "velocity": 100,
      "chip": "ym2612"
    },
    {
      "channel": 0,
      "note": 71,
      "start": 73.7264,
      "duration": 0.0157,
      "velocity": 127,
      "chip": "ym2612"
    },
    {
      "channel": 4,
      "note": 65,
      "start": 73.7276,
      "duration": 0.0157,
      "velocity": 120,
      "chip": "ym2612"
    },
    {
      "channel": 3,
      "note": 72,
      "start": 73.7288,
      "duration": 0.0157,
      "velocity": 120,
      "chip": "ym2612"
    },
    {
      "channel": 2,
      "note": 50,
      "start": 73.7299,
      "duration": 0.0157,
      "velocity": 100,
      "chip": "ym2612"
    },
    {
      "channel": 1,
      "note": 38,
      "start": 73.731,
      "duration": 0.0157,
      "velocity": 100,
      "chip": "ym2612"
    },
    {
      "channel": 0,
      "note": 70,
      "start": 73.7421,
      "duration": 0.0175,
      "velocity": 127,
      "chip": "ym2612"
    },
    {
      "channel": 4,
      "note": 65,
      "start": 73.7433,
      "duration": 0.0175,
      "velocity": 120,
      "chip": "ym2612"
    },
    {
      "channel": 3,
      "note": 72,
      "start": 73.7444,
      "duration": 0.0175,
      "velocity": 120,
      "chip": "ym2612"
    },
    {
      "channel": 2,
      "note": 50,
      "start": 73.7456,
      "duration": 0.0175,
      "velocity": 100,
      "chip": "ym2612"
    },
    {
      "channel": 1,
      "note": 38,
      "start": 73.7467,
      "duration": 0.0111,
      "velocity": 124,
      "chip": "ym2612"
    },
    {
      "channel": 1,
      "note": 78,
      "start": 73.7579,
      "duration": 0.0141,
      "velocity": 124,
      "chip": "ym2612"
    },
    {
      "channel": 0,
      "note": 68,
      "start": 73.7596,
      "duration": 0.0168,
      "velocity": 127,
      "chip": "ym2612"
    },
    {
      "channel": 4,
      "note": 65,
      "start": 73.7608,
      "duration": 0.0168,
      "velocity": 120,
      "chip": "ym2612"
    },
    {
      "channel": 3,
      "note": 72,
      "start": 73.762,
      "duration": 0.0168,
      "velocity": 120,
      "chip": "ym2612"
    },
    {
      "channel": 2,
      "note": 50,
      "start": 73.7631,
      "duration": 0.0168,
      "velocity": 100,
      "chip": "ym2612"
    },
    {
      "channel": 1,
      "note": 76,
      "start": 73.7719,
      "duration": 0.016,
      "velocity": 124,
      "chip": "ym2612"
    },
    {
      "channel": 0,
      "note": 66,
      "start": 73.7764,
      "duration": 0.016,
      "velocity": 127,
      "chip": "ym2612"
    },
    {
      "channel": 4,
      "note": 65,
      "start": 73.7776,
      "duration": 0.016,
      "velocity": 120,
      "chip": "ym2612"
    },
    {
      "channel": 3,
      "note": 72,
      "start": 73.7788,
      "duration": 0.0161,
      "velocity": 120,
      "chip": "ym2612"
    },
    {
      "channel": 1,
      "note": 75,
      "start": 73.788,
      "duration": 0.0161,
      "velocity": 124,
      "chip": "ym2612"
    },
    {
      "channel": 0,
      "note": 65,
      "start": 73.7924,
      "duration": 0.0134,
      "velocity": 127,
      "chip": "ym2612"
    },
    {
      "channel": 4,
      "note": 65,
      "start": 73.7936,
      "duration": 0.0157,
      "velocity": 120,
      "chip": "ym2612"
    },
    {
      "channel": 3,
      "note": 72,
      "start": 73.7948,
      "duration": 0.0157,
      "velocity": 120,
      "chip": "ym2612"
    },
    {
      "channel": 1,
      "note": 74,
      "start": 73.8041,
      "duration": 0.0161,
      "velocity": 124,
      "chip": "ym2612"
    },
    {
      "channel": 0,
      "note": 63,
      "start": 73.8058,
      "duration": 0.0161,
      "velocity": 127,
      "chip": "ym2612"
    },
    {
      "channel": 4,
      "note": 65,
      "start": 73.8093,
      "duration": 0.0141,
      "velocity": 120,
      "chip": "ym2612"
    },
    {
      "channel": 3,
      "note": 72,
      "start": 73.8105,
      "duration": 0.014,
      "velocity": 120,
      "chip": "ym2612"
    },
    {
      "channel": 1,
      "note": 72,
      "start": 73.8202,
      "duration": 0.0161,
      "velocity": 124,
      "chip": "ym2612"
    },
    {
      "channel": 0,
      "note": 61,
      "start": 73.8219,
      "duration": 0.0161,
      "velocity": 127,
      "chip": "ym2612"
    },
    {
      "channel": 4,
      "note": 65,
      "start": 73.8234,
      "duration": 0.0158,
      "velocity": 120,
      "chip": "ym2612"
    },
    {
      "channel": 3,
      "note": 72,
      "start": 73.8245,
      "duration": 0.0186,
      "velocity": 120,
      "chip": "ym2612"
    },
    {
      "channel": 1,
      "note": 71,
      "start": 73.8363,
      "duration": 0.0179,
      "velocity": 124,
      "chip": "ym2612"
    },
    {
      "channel": 0,
      "note": 60,
      "start": 73.838,
      "duration": 0.0179,
      "velocity": 127,
      "chip": "ym2612"
    },
    {
      "channel": 4,
      "note": 65,
      "start": 73.8392,
      "duration": 0.0207,
      "velocity": 120,
      "chip": "ym2612"
    },
    {
      "channel": 3,
      "note": 72,
      "start": 73.8431,
      "duration": 0.0179,
      "velocity": 120,
      "chip": "ym2612"
    },
    {
      "channel": 1,
      "note": 78,
      "start": 73.8542,
      "duration": 0.0144,
      "velocity": 124,
      "chip": "ym2612"
    },
    {
      "channel": 0,
      "note": 58,
      "start": 73.8559,
      "duration": 0.0144,
      "velocity": 127,
      "chip": "ym2612"
    },
    {
      "channel": 4,
      "note": 65,
      "start": 73.8598,
      "duration": 0.0116,
      "velocity": 120,
      "chip": "ym2612"
    },
    {
      "channel": 3,
      "note": 72,
      "start": 73.861,
      "duration": 0.014,
      "velocity": 120,
      "chip": "ym2612"
    },
    {
      "channel": 2,
      "note": 50,
      "start": 73.8625,
      "duration": 0.0137,
      "velocity": 100,
      "chip": "ym2612"
    },
    {
      "channel": 1,
      "note": 76,
      "start": 73.8686,
      "duration": 0.016,
      "velocity": 124,
      "chip": "ym2612"
    },
    {
      "channel": 0,
      "note": 56,
      "start": 73.8703,
      "duration": 0.016,
      "velocity": 127,
      "chip": "ym2612"
    },
    {
      "channel": 4,
      "note": 65,
      "start": 73.8714,
      "duration": 0.0161,
      "velocity": 120,
      "chip": "ym2612"
    },
    {
      "channel": 3,
      "note": 72,
      "start": 73.875,
      "duration": 0.0137,
      "velocity": 120,
      "chip": "ym2612"
    },
    {
      "channel": 2,
      "note": 50,
      "start": 73.8762,
      "duration": 0.0139,
      "velocity": 100,
      "chip": "ym2612"
    },
    {
      "channel": 1,
      "note": 75,
      "start": 73.8846,
      "duration": 0.0161,
      "velocity": 124,
      "chip": "ym2612"
    },
    {
      "channel": 0,
      "note": 54,
      "start": 73.8863,
      "duration": 0.0161,
      "velocity": 127,
      "chip": "ym2612"
    },
    {
      "channel": 4,
      "note": 65,
      "start": 73.8875,
      "duration": 0.0161,
      "velocity": 120,
      "chip": "ym2612"
    },
    {
      "channel": 3,
      "note": 72,
      "start": 73.8887,
      "duration": 0.0161,
      "velocity": 120,
      "chip": "ym2612"
    },
    {
      "channel": 2,
      "note": 50,
      "start": 73.8901,
      "duration": 0.0158,
      "velocity": 100,
      "chip": "ym2612"
    },
    {
      "channel": 1,
      "note": 74,
      "start": 73.9007,
      "duration": 0.0161,
      "velocity": 124,
      "chip": "ym2612"
    },
    {
      "channel": 0,
      "note": 53,
      "start": 73.9024,
      "duration": 0.0161,
      "velocity": 127,
      "chip": "ym2612"
    },
    {
      "channel": 4,
      "note": 65,
      "start": 73.9036,
      "duration": 0.0161,
      "velocity": 120,
      "chip": "ym2612"
    },
    {
      "channel": 3,
      "note": 72,
      "start": 73.9048,
      "duration": 0.0161,
      "velocity": 120,
      "chip": "ym2612"
    },
    {
      "channel": 2,
      "note": 50,
      "start": 73.9059,
      "duration": 0.0162,
      "velocity": 100,
      "chip": "ym2612"
    },
    {
      "channel": 1,
      "note": 72,
      "start": 73.9168,
      "duration": 0.0161,
      "velocity": 124,
      "chip": "ym2612"
    },
    {
      "channel": 0,
      "note": 51,
      "start": 73.9185,
      "duration": 0.0161,
      "velocity": 127,
      "chip": "ym2612"
    },
    {
      "channel": 4,
      "note": 65,
      "start": 73.9197,
      "duration": 0.0161,
      "velocity": 120,
      "chip": "ym2612"
    },
    {
      "channel": 3,
      "note": 72,
      "start": 73.9209,
      "duration": 0.016,
      "velocity": 120,
      "chip": "ym2612"
    },
    {
      "channel": 2,
      "note": 50,
      "start": 73.9221,
      "duration": 0.016,
      "velocity": 100,
      "chip": "ym2612"
    },
    {
      "channel": 1,
      "note": 71,
      "start": 73.9329,
      "duration": 0.0179,
      "velocity": 124,
      "chip": "ym2612"
    },
    {
      "channel": 0,
      "note": 49,
      "start": 73.9346,
      "duration": 0.0179,
      "velocity": 127,
      "chip": "ym2612"
    },
    {
      "channel": 4,
      "note": 65,
      "start": 73.9358,
      "duration": 0.0179,
      "velocity": 120,
      "chip": "ym2612"
    },
    {
      "channel": 3,
      "note": 72,
      "start": 73.9369,
      "duration": 0.018,
      "velocity": 120,
      "chip": "ym2612"
    },
    {
      "channel": 2,
      "note": 50,
      "start": 73.9381,
      "duration": 0.0181,
      "velocity": 100,
      "chip": "ym2612"
    },
    {
      "channel": 1,
      "note": 78,
      "start": 73.9507,
      "duration": 0.0144,
      "velocity": 124,
      "chip": "ym2612"
    },
    {
      "channel": 0,
      "note": 48,
      "start": 73.9525,
      "duration": 0.0144,
      "velocity": 127,
      "chip": "ym2612"
    },
    {
      "channel": 4,
      "note": 65,
      "start": 73.9537,
      "duration": 0.0144,
      "velocity": 120,
      "chip": "ym2612"
    },
    {
      "channel": 3,
      "note": 72,
      "start": 73.9549,
      "duration": 0.0143,
      "velocity": 120,
      "chip": "ym2612"
    },
    {
      "channel": 2,
      "note": 50,
      "start": 73.9562,
      "duration": 0.0142,
      "velocity": 100,
      "chip": "ym2612"
    },
    {
      "channel": 1,
      "note": 76,
      "start": 73.9651,
      "duration": 0.016,
      "velocity": 124,
      "chip": "ym2612"
    },
    {
      "channel": 0,
      "note": 46,
      "start": 73.9668,
      "duration": 0.0153,
      "velocity": 1,
      "chip": "ym2612"
    },
    {
      "channel": 4,
      "note": 65,
      "start": 73.968,
      "duration": 0.0153,
      "velocity": 120,
      "chip": "ym2612"
    },
    {
      "channel": 3,
      "note": 72,
      "start": 73.9692,
      "duration": 0.0153,
      "velocity": 120,
      "chip": "ym2612"
    },
    {
      "channel": 1,
      "note": 75,
      "start": 73.9812,
      "duration": 0.0161,
      "velocity": 124,
      "chip": "ym2612"
    },
    {
      "channel": 4,
      "note": 65,
      "start": 73.9833,
      "duration": 0.0152,
      "velocity": 120,
      "chip": "ym2612"
    },
    {
      "channel": 3,
      "note": 72,
      "start": 73.9845,
      "duration": 0.0153,
      "velocity": 120,
      "chip": "ym2612"
    },
    {
      "channel": 1,
      "note": 74,
      "start": 73.9973,
      "duration": 0.0161,
      "velocity": 124,
      "chip": "ym2612"
    },
    {
      "channel": 4,
      "note": 65,
      "start": 73.9985,
      "duration": 0.0162,
      "velocity": 120,
      "chip": "ym2612"
    },
    {
      "channel": 3,
      "note": 72,
      "start": 73.9997,
      "duration": 0.0161,
      "velocity": 120,
      "chip": "ym2612"
    },
    {
      "channel": 1,
      "note": 72,
      "start": 74.0134,
      "duration": 0.0161,
      "velocity": 124,
      "chip": "ym2612"
    },
    {
      "channel": 4,
      "note": 65,
      "start": 74.0147,
      "duration": 0.0161,
      "velocity": 120,
      "chip": "ym2612"
    },
    {
      "channel": 3,
      "note": 72,
      "start": 74.0158,
      "duration": 0.0161,
      "velocity": 120,
      "chip": "ym2612"
    },
    {
      "channel": 1,
      "note": 71,
      "start": 74.0295,
      "duration": 0.0161,
      "velocity": 124,
      "chip": "ym2612"
    },
    {
      "channel": 4,
      "note": 65,
      "start": 74.0308,
      "duration": 0.0161,
      "velocity": 120,
      "chip": "ym2612"
    },
    {
      "channel": 3,
      "note": 72,
      "start": 74.0319,
      "duration": 0.0161,
      "velocity": 120,
      "chip": "ym2612"
    },
    {
      "channel": 1,
      "note": 70,
      "start": 74.0456,
      "duration": 0.0161,
      "velocity": 124,
      "chip": "ym2612"
    },
    {
      "channel": 4,
      "note": 65,
      "start": 74.0469,
      "duration": 0.0161,
      "velocity": 120,
      "chip": "ym2612"
    },
    {
      "channel": 3,
      "note": 72,
      "start": 74.0481,
      "duration": 0.016,
      "velocity": 120,
      "chip": "ym2612"
    },
    {
      "channel": 2,
      "note": 50,
      "start": 74.0496,
      "duration": 0.0157,
      "velocity": 100,
      "chip": "ym2612"
    },
    {
      "channel": 1,
      "note": 69,
      "start": 74.0617,
      "duration": 0.0161,
      "velocity": 124,
      "chip": "ym2612"
    },
    {
      "channel": 4,
      "note": 65,
      "start": 74.063,
      "duration": 0.0161,
      "velocity": 120,
      "chip": "ym2612"
    },
    {
      "channel": 3,
      "note": 72,
      "start": 74.0641,
      "duration": 0.0161,
      "velocity": 120,
      "chip": "ym2612"
    },
    {
      "channel": 2,
      "note": 50,
      "start": 74.0653,
      "duration": 0.016,
      "velocity": 100,
      "chip": "ym2612"
    },
    {
      "channel": 1,
      "note": 68,
      "start": 74.0778,
      "duration": 0.0161,
      "velocity": 124,
      "chip": "ym2612"
    },
    {
      "channel": 4,
      "note": 65,
      "start": 74.0791,
      "duration": 0.0161,
      "velocity": 120,
      "chip": "ym2612"
    },
    {
      "channel": 3,
      "note": 72,
      "start": 74.0802,
      "duration": 0.0161,
      "velocity": 120,
      "chip": "ym2612"
    },
    {
      "channel": 2,
      "note": 50,
      "start": 74.0814,
      "duration": 0.0161,
      "velocity": 100,
      "chip": "ym2612"
    },
    {
      "channel": 1,
      "note": 66,
      "start": 74.0939,
      "duration": 0.0167,
      "velocity": 124,
      "chip": "ym2612"
    },
    {
      "channel": 4,
      "note": 65,
      "start": 74.0951,
      "duration": 0.0167,
      "velocity": 120,
      "chip": "ym2612"
    },
    {
      "channel": 3,
      "note": 72,
      "start": 74.0963,
      "duration": 0.0167,
      "velocity": 120,
      "chip": "ym2612"
    },
    {
      "channel": 2,
      "note": 50,
      "start": 74.0974,
      "duration": 0.0167,
      "velocity": 100,
      "chip": "ym2612"
    },
    {
      "channel": 1,
      "note": 65,
      "start": 74.1106,
      "duration": 0.0166,
      "velocity": 124,
      "chip": "ym2612"
    },
    {
      "channel": 4,
      "note": 65,
      "start": 74.1119,
      "duration": 0.0166,
      "velocity": 120,
      "chip": "ym2612"
    },
    {
      "channel": 3,
      "note": 72,
      "start": 74.113,
      "duration": 0.0167,
      "velocity": 120,
      "chip": "ym2612"
    },
    {
      "channel": 2,
      "note": 50,
      "start": 74.1142,
      "duration": 0.0167,
      "velocity": 100,
      "chip": "ym2612"
    },
    {
      "channel": 1,
      "note": 64,
      "start": 74.1272,
      "duration": 0.0181,
      "velocity": 124,
      "chip": "ym2612"
    },
    {
      "channel": 4,
      "note": 65,
      "start": 74.1285,
      "duration": 0.0181,
      "velocity": 120,
      "chip": "ym2612"
    },
    {
      "channel": 3,
      "note": 72,
      "start": 74.1297,
      "duration": 0.018,
      "velocity": 120,
      "chip": "ym2612"
    },
    {
      "channel": 2,
      "note": 50,
      "start": 74.1308,
      "duration": 0.0181,
      "velocity": 100,
      "chip": "ym2612"
    },
    {
      "channel": 1,
      "note": 78,
      "start": 74.1454,
      "duration": 0.013,
      "velocity": 124,
      "chip": "ym2612"
    },
    {
      "channel": 4,
      "note": 65,
      "start": 74.1466,
      "duration": 0.013,
      "velocity": 120,
      "chip": "ym2612"
    },
    {
      "channel": 3,
      "note": 72,
      "start": 74.1478,
      "duration": 0.013,
      "velocity": 120,
      "chip": "ym2612"
    },
    {
      "channel": 2,
      "note": 50,
      "start": 74.1489,
      "duration": 0.013,
      "velocity": 100,
      "chip": "ym2612"
    },
    {
      "channel": 1,
      "note": 76,
      "start": 74.1584,
      "duration": 0.0188,
      "velocity": 124,
      "chip": "ym2612"
    },
    {
      "channel": 4,
      "note": 65,
      "start": 74.1597,
      "duration": 0.0188,
      "velocity": 120,
      "chip": "ym2612"
    },
    {
      "channel": 3,
      "note": 72,
      "start": 74.1608,
      "duration": 0.0188,
      "velocity": 120,
      "chip": "ym2612"
    },
    {
      "channel": 1,
      "note": 75,
      "start": 74.1771,
      "duration": 0.0161,
      "velocity": 124,
      "chip": "ym2612"
    },
    {
      "channel": 4,
      "note": 65,
      "start": 74.1784,
      "duration": 0.0161,
      "velocity": 120,
      "chip": "ym2612"
    },
    {
      "channel": 3,
      "note": 72,
      "start": 74.1796,
      "duration": 0.016,
      "velocity": 120,
      "chip": "ym2612"
    },
    {
      "channel": 1,
      "note": 74,
      "start": 74.1932,
      "duration": 0.0157,
      "velocity": 124,
      "chip": "ym2612"
    },
    {
      "channel": 4,
      "note": 65,
      "start": 74.1945,
      "duration": 0.0157,
      "velocity": 120,
      "chip": "ym2612"
    },
    {
      "channel": 3,
      "note": 72,
      "start": 74.1957,
      "duration": 0.0158,
      "velocity": 120,
      "chip": "ym2612"
    },
    {
      "channel": 1,
      "note": 72,
      "start": 74.209,
      "duration": 0.0141,
      "velocity": 124,
      "chip": "ym2612"
    },
    {
      "channel": 4,
      "note": 65,
      "start": 74.2102,
      "duration": 0.0141,
      "velocity": 120,
      "chip": "ym2612"
    },
    {
      "channel": 3,
      "note": 72,
      "start": 74.2114,
      "duration": 0.014,
      "velocity": 120,
      "chip": "ym2612"
    },
    {
      "channel": 1,
      "note": 71,
      "start": 74.223,
      "duration": 0.0158,
      "velocity": 124,
      "chip": "ym2612"
    },
    {
      "channel": 4,
      "note": 65,
      "start": 74.2243,
      "duration": 0.0221,
      "velocity": 120,
      "chip": "ym2612"
    },
    {
      "channel": 3,
      "note": 72,
      "start": 74.2254,
      "duration": 0.0224,
      "velocity": 120,
      "chip": "ym2612"
    },
    {
      "channel": 1,
      "note": 70,
      "start": 74.2388,
      "duration": 0.0161,
      "velocity": 124,
      "chip": "ym2612"
    },
    {
      "channel": 0,
      "note": 36,
      "start": 74.245,
      "duration": 0.0144,
      "velocity": 115,
      "chip": "ym2612"
    },
    {
      "channel": 4,
      "note": 65,
      "start": 74.2465,
      "duration": 0.0142,
      "velocity": 120,
      "chip": "ym2612"
    },
    {
      "channel": 3,
      "note": 72,
      "start": 74.2479,
      "duration": 0.014,
      "velocity": 120,
      "chip": "ym2612"
    },
    {
      "channel": 2,
      "note": 53,
      "start": 74.2493,
      "duration": 0.0137,
      "velocity": 100,
      "chip": "ym2612"
    },
    {
      "channel": 1,
      "note": 69,
      "start": 74.2549,
      "duration": 0.0161,
      "velocity": 124,
      "chip": "ym2612"
    },
    {
      "channel": 0,
      "note": 36,
      "start": 74.2594,
      "duration": 0.0157,
      "velocity": 115,
      "chip": "ym2612"
    },
    {
      "channel": 4,
      "note": 65,
      "start": 74.2607,
      "duration": 0.0156,
      "velocity": 120,
      "chip": "ym2612"
    },
    {
      "channel": 3,
      "note": 72,
      "start": 74.2619,
      "duration": 0.0156,
      "velocity": 120,
      "chip": "ym2612"
    },
    {
      "channel": 2,
      "note": 53,
      "start": 74.263,
      "duration": 0.0155,
      "velocity": 100,
      "chip": "ym2612"
    },
    {
      "channel": 1,
      "note": 68,
      "start": 74.271,
      "duration": 0.0161,
      "velocity": 124,
      "chip": "ym2612"
    },
    {
      "channel": 0,
      "note": 37,
      "start": 74.2751,
      "duration": 0.0137,
      "velocity": 115,
      "chip": "ym2612"
    },
    {
      "channel": 4,
      "note": 65,
      "start": 74.2763,
      "duration": 0.014,
      "velocity": 120,
      "chip": "ym2612"
    },
    {
      "channel": 3,
      "note": 72,
      "start": 74.2775,
      "duration": 0.014,
      "velocity": 120,
      "chip": "ym2612"
    },
    {
      "channel": 2,
      "note": 53,
      "start": 74.2785,
      "duration": 0.0141,
      "velocity": 100,
      "chip": "ym2612"
    },
    {
      "channel": 1,
      "note": 66,
      "start": 74.2871,
      "duration": 0.0162,
      "velocity": 124,
      "chip": "ym2612"
    },
    {
      "channel": 0,
      "note": 37,
      "start": 74.2889,
      "duration": 0.0161,
      "velocity": 115,
      "chip": "ym2612"
    },
    {
      "channel": 4,
      "note": 65,
      "start": 74.2903,
      "duration": 0.0186,
      "velocity": 120,
      "chip": "ym2612"
    },
    {
      "channel": 3,
      "note": 72,
      "start": 74.2915,
      "duration": 0.0186,
      "velocity": 120,
      "chip": "ym2612"
    },
    {
      "channel": 2,
      "note": 53,
      "start": 74.2926,
      "duration": 0.0185,
      "velocity": 100,
      "chip": "ym2612"
    },
    {
      "channel": 1,
      "note": 65,
      "start": 74.3032,
      "duration": 0.0161,
      "velocity": 124,
      "chip": "ym2612"
    },
    {
      "channel": 0,
      "note": 38,
      "start": 74.3049,
      "duration": 0.0161,
      "velocity": 115,
      "chip": "ym2612"
    },
    {
      "channel": 4,
      "note": 65,
      "start": 74.3089,
      "duration": 0.0133,
      "velocity": 120,
      "chip": "ym2612"
    },
    {
      "channel": 3,
      "note": 72,
      "start": 74.31,
      "duration": 0.0161,
      "velocity": 120,
      "chip": "ym2612"
    },
    {
      "channel": 2,
      "note": 53,
      "start": 74.3111,
      "duration": 0.0161,
      "velocity": 100,
      "chip": "ym2612"
    },
    {
      "channel": 1,
      "note": 64,
      "start": 74.3193,
      "duration": 0.0161,
      "velocity": 124,
      "chip": "ym2612"
    },
    {
      "channel": 0,
      "note": 38,
      "start": 74.321,
      "duration": 0.0161,
      "velocity": 115,
      "chip": "ym2612"
    },
    {
      "channel": 4,
      "note": 65,
      "start": 74.3222,
      "duration": 0.0161,
      "velocity": 120,
      "chip": "ym2612"
    },
    {
      "channel": 3,
      "note": 72,
      "start": 74.3261,
      "duration": 0.0157,
      "velocity": 120,
      "chip": "ym2612"
    },
    {
      "channel": 2,
      "note": 53,
      "start": 74.3272,
      "duration": 0.0158,
      "velocity": 100,
      "chip": "ym2612"
    },
    {
      "channel": 1,
      "note": 62,
      "start": 74.3354,
      "duration": 0.0161,
      "velocity": 124,
      "chip": "ym2612"
    },
    {
      "channel": 0,
      "note": 39,
      "start": 74.3371,
      "duration": 0.0161,
      "velocity": 115,
      "chip": "ym2612"
    },
    {
      "channel": 4,
      "note": 65,
      "start": 74.3383,
      "duration": 0.0161,
      "velocity": 120,
      "chip": "ym2612"
    },
    {
      "channel": 3,
      "note": 72,
      "start": 74.3418,
      "duration": 0.0137,
      "velocity": 120,
      "chip": "ym2612"
    },
    {
      "channel": 2,
      "note": 53,
      "start": 74.343,
      "duration": 0.014,
      "velocity": 100,
      "chip": "ym2612"
    },
    {
      "channel": 1,
      "note": 61,
      "start": 74.3515,
      "duration": 0.0161,
      "velocity": 124,
      "chip": "ym2612"
    },
    {
      "channel": 0,
      "note": 39,
      "start": 74.3532,
      "duration": 0.0161,
      "velocity": 115,
      "chip": "ym2612"
    },
    {
      "channel": 4,
      "note": 65,
      "start": 74.3544,
      "duration": 0.0161,
      "velocity": 120,
      "chip": "ym2612"
    },
    {
      "channel": 3,
      "note": 72,
      "start": 74.3556,
      "duration": 0.0161,
      "velocity": 120,
      "chip": "ym2612"
    },
    {
      "channel": 1,
      "note": 60,
      "start": 74.3676,
      "duration": 0.0161,
      "velocity": 124,
      "chip": "ym2612"
    },
    {
      "channel": 0,
      "note": 40,
      "start": 74.3693,
      "duration": 0.0161,
      "velocity": 115,
      "chip": "ym2612"
    },
    {
      "channel": 4,
      "note": 65,
      "start": 74.3705,
      "duration": 0.0161,
      "velocity": 120,
      "chip": "ym2612"
    },
    {
      "channel": 3,
      "note": 72,
      "start": 74.3717,
      "duration": 0.0161,
      "velocity": 120,
      "chip": "ym2612"
    },
    {
      "channel": 1,
      "note": 59,
      "start": 74.3837,
      "duration": 0.0161,
      "velocity": 124,
      "chip": "ym2612"
    },
    {
      "channel": 0,
      "note": 40,
      "start": 74.3854,
      "duration": 0.0161,
      "velocity": 115,
      "chip": "ym2612"
    },
    {
      "channel": 4,
      "note": 65,
      "start": 74.3866,
      "duration": 0.0161,
      "velocity": 120,
      "chip": "ym2612"
    },
    {
      "channel": 3,
      "note": 72,
      "start": 74.3878,
      "duration": 0.0161,
      "velocity": 120,
      "chip": "ym2612"
    },
    {
      "channel": 1,
      "note": 57,
      "start": 74.3998,
      "duration": 0.0161,
      "velocity": 124,
      "chip": "ym2612"
    },
    {
      "channel": 0,
      "note": 40,
      "start": 74.4015,
      "duration": 0.0161,
      "velocity": 115,
      "chip": "ym2612"
    },
    {
      "channel": 4,
      "note": 65,
      "start": 74.4027,
      "duration": 0.0162,
      "velocity": 120,
      "chip": "ym2612"
    },
    {
      "channel": 3,
      "note": 72,
      "start": 74.4039,
      "duration": 0.0161,
      "velocity": 120,
      "chip": "ym2612"
    },
    {
      "channel": 1,
      "note": 56,
      "start": 74.4159,
      "duration": 0.0161,
      "velocity": 124,
      "chip": "ym2612"
    },
    {
      "channel": 0,
      "note": 41,
      "start": 74.4176,
      "duration": 0.0161,
      "velocity": 115,
      "chip": "ym2612"
    },
    {
      "channel": 4,
      "note": 65,
      "start": 74.4188,
      "duration": 0.0161,
      "velocity": 120,
      "chip": "ym2612"
    },
    {
      "channel": 3,
      "note": 72,
      "start": 74.42,
      "duration": 0.0162,
      "velocity": 120,
      "chip": "ym2612"
    },
    {
      "channel": 1,
      "note": 55,
      "start": 74.432,
      "duration": 0.0161,
      "velocity": 124,
      "chip": "ym2612"
    },
    {
      "channel": 0,
      "note": 41,
      "start": 74.4337,
      "duration": 0.0162,
      "velocity": 115,
      "chip": "ym2612"
    },
    {
      "channel": 4,
      "note": 65,
      "start": 74.4349,
      "duration": 0.0161,
      "velocity": 120,
      "chip": "ym2612"
    },
    {
      "channel": 3,
      "note": 72,
      "start": 74.4361,
      "duration": 0.0161,
      "velocity": 120,
      "chip": "ym2612"
    },
    {
      "channel": 2,
      "note": 53,
      "start": 74.4375,
      "duration": 0.0158,
      "velocity": 100,
      "chip": "ym2612"
    },
    {
      "channel": 1,
      "note": 53,
      "start": 74.4481,
      "duration": 0.0162,
      "velocity": 124,
      "chip": "ym2612"
    },
    {
      "channel": 0,
      "note": 42,
      "start": 74.4499,
      "duration": 0.0161,
      "velocity": 115,
      "chip": "ym2612"
    },
    {
      "channel": 4,
      "note": 65,
      "start": 74.451,
      "duration": 0.0162,
      "velocity": 120,
      "chip": "ym2612"
    },
    {
      "channel": 3,
      "note": 72,
      "start": 74.4522,
      "duration": 0.0161,
      "velocity": 120,
      "chip": "ym2612"
    },
    {
      "channel": 2,
      "note": 53,
      "start": 74.4534,
      "duration": 0.0161,
      "velocity": 100,
      "chip": "ym2612"
    },
    {
      "channel": 1,
      "note": 52,
      "start": 74.4642,
      "duration": 0.0161,
      "velocity": 124,
      "chip": "ym2612"
    },
    {
      "channel": 0,
      "note": 42,
      "start": 74.466,
      "duration": 0.0161,
      "velocity": 115,
      "chip": "ym2612"
    },
    {
      "channel": 4,
      "note": 65,
      "start": 74.4672,
      "duration": 0.0161,
      "velocity": 120,
      "chip": "ym2612"
    },
    {
      "channel": 3,
      "note": 72,
      "start": 74.4683,
      "duration": 0.0161,
      "velocity": 120,
      "chip": "ym2612"
    },
    {
      "channel": 2,
      "note": 53,
      "start": 74.4695,
      "duration": 0.0161,
      "velocity": 100,
      "chip": "ym2612"
    },
    {
      "channel": 1,
      "note": 51,
      "start": 74.4803,
      "duration": 0.0153,
      "velocity": 1,
      "chip": "ym2612"
    },
    {
      "channel": 0,
      "note": 43,
      "start": 74.482,
      "duration": 0.0153,
      "velocity": 115,
      "chip": "ym2612"
    },
    {
      "channel": 4,
      "note": 65,
      "start": 74.4833,
      "duration": 0.0153,
      "velocity": 120,
      "chip": "ym2612"
    },
    {
      "channel": 3,
      "note": 72,
      "start": 74.4844,
      "duration": 0.0153,
      "velocity": 120,
      "chip": "ym2612"
    },
    {
      "channel": 2,
      "note": 53,
      "start": 74.4856,
      "duration": 0.0153,
      "velocity": 100,
      "chip": "ym2612"
    },
    {
      "channel": 0,
      "note": 43,
      "start": 74.4973,
      "duration": 0.0153,
      "velocity": 115,
      "chip": "ym2612"
    },
    {
      "channel": 4,
      "note": 65,
      "start": 74.4985,
      "duration": 0.0153,
      "velocity": 120,
      "chip": "ym2612"
    },
    {
      "channel": 3,
      "note": 72,
      "start": 74.4997,
      "duration": 0.0153,
      "velocity": 120,
      "chip": "ym2612"
    },
    {
      "channel": 2,
      "note": 53,
      "start": 74.5008,
      "duration": 0.0153,
      "velocity": 100,
      "chip": "ym2612"
    },
    {
      "channel": 1,
      "note": 51,
      "start": 74.5029,
      "duration": 0.0143,
      "velocity": 100,
      "chip": "ym2612"
    },
    {
      "channel": 0,
      "note": 44,
      "start": 74.5126,
      "duration": 0.0161,
      "velocity": 115,
      "chip": "ym2612"
    },
    {
      "channel": 4,
      "note": 65,
      "start": 74.5138,
      "duration": 0.0161,
      "velocity": 120,
      "chip": "ym2612"
    },
    {
      "channel": 3,
      "note": 72,
      "start": 74.5149,
      "duration": 0.0161,
      "velocity": 120,
      "chip": "ym2612"
    },
    {
      "channel": 2,
      "note": 53,
      "start": 74.5161,
      "duration": 0.0161,
      "velocity": 100,
      "chip": "ym2612"
    },
    {
      "channel": 1,
      "note": 41,
      "start": 74.5172,
      "duration": 0.0161,
      "velocity": 100,
      "chip": "ym2612"
    },
    {
      "channel": 0,
      "note": 44,
      "start": 74.5287,
      "duration": 0.0161,
      "velocity": 115,
      "chip": "ym2612"
    },
    {
      "channel": 4,
      "note": 65,
      "start": 74.5299,
      "duration": 0.0161,
      "velocity": 120,
      "chip": "ym2612"
    },
    {
      "channel": 3,
      "note": 72,
      "start": 74.531,
      "duration": 0.0161,
      "velocity": 120,
      "chip": "ym2612"
    },
    {
      "channel": 2,
      "note": 53,
      "start": 74.5322,
      "duration": 0.0161,
      "velocity": 100,
      "chip": "ym2612"
    },
    {
      "channel": 1,
      "note": 41,
      "start": 74.5333,
      "duration": 0.0161,
      "velocity": 100,
      "chip": "ym2612"
    },
    {
      "channel": 0,
      "note": 44,
      "start": 74.5448,
      "duration": 0.0162,
      "velocity": 115,
      "chip": "ym2612"
    },
    {
      "channel": 4,
      "note": 65,
      "start": 74.546,
      "duration": 0.0161,
      "velocity": 120,
      "chip": "ym2612"
    },
    {
      "channel": 3,
      "note": 72,
      "start": 74.5471,
      "duration": 0.0162,
      "velocity": 120,
      "chip": "ym2612"
    },
    {
      "channel": 0,
      "note": 45,
      "start": 74.5609,
      "duration": 0.0163,
      "velocity": 115,
      "chip": "ym2612"
    },
    {
      "channel": 4,
      "note": 65,
      "start": 74.5621,
      "duration": 0.0163,
      "velocity": 120,
      "chip": "ym2612"
    },
    {
      "channel": 3,
      "note": 72,
      "start": 74.5633,
      "duration": 0.0164,
      "velocity": 120,
      "chip": "ym2612"
    },
    {
      "channel": 0,
      "note": 45,
      "start": 74.5773,
      "duration": 0.0167,
      "velocity": 115,
      "chip": "ym2612"
    },
    {
      "channel": 4,
      "note": 65,
      "start": 74.5785,
      "duration": 0.0167,
      "velocity": 120,
      "chip": "ym2612"
    },
    {
      "channel": 3,
      "note": 72,
      "start": 74.5797,
      "duration": 0.0167,
      "velocity": 120,
      "chip": "ym2612"
    },
    {
      "channel": 0,
      "note": 46,
      "start": 74.594,
      "duration": 0.0163,
      "velocity": 115,
      "chip": "ym2612"
    },
    {
      "channel": 4,
      "note": 65,
      "start": 74.5952,
      "duration": 0.0163,
      "velocity": 120,
      "chip": "ym2612"
    },
    {
      "channel": 3,
      "note": 72,
      "start": 74.5964,
      "duration": 0.0163,
      "velocity": 120,
      "chip": "ym2612"
    },
    {
      "channel": 0,
      "note": 46,
      "start": 74.6103,
      "duration": 0.0185,
      "velocity": 115,
      "chip": "ym2612"
    },
    {
      "channel": 4,
      "note": 65,
      "start": 74.6115,
      "duration": 0.0185,
      "velocity": 120,
      "chip": "ym2612"
    },
    {
      "channel": 3,
      "note": 72,
      "start": 74.6127,
      "duration": 0.0184,
      "velocity": 120,
      "chip": "ym2612"
    },
    {
      "channel": 1,
      "note": 78,
      "start": 74.627,
      "duration": 0.0169,
      "velocity": 124,
      "chip": "ym2612"
    },
    {
      "channel": 0,
      "note": 47,
      "start": 74.6288,
      "duration": 0.0169,
      "velocity": 115,
      "chip": "ym2612"
    },
    {
      "channel": 4,
      "note": 65,
      "start": 74.63,
      "duration": 0.0169,
      "velocity": 120,
      "chip": "ym2612"
    },
    {
      "channel": 3,
      "note": 72,
      "start": 74.6311,
      "duration": 0.0169,
      "velocity": 120,
      "chip": "ym2612"
    },
    {
      "channel": 2,
      "note": 53,
      "start": 74.6326,
      "duration": 0.0167,
      "velocity": 100,
      "chip": "ym2612"
    },
    {
      "channel": 1,
      "note": 76,
      "start": 74.6439,
      "duration": 0.0162,
      "velocity": 124,
      "chip": "ym2612"
    },
    {
      "channel": 0,
      "note": 47,
      "start": 74.6457,
      "duration": 0.0162,
      "velocity": 115,
      "chip": "ym2612"
    },
    {
      "channel": 4,
      "note": 65,
      "start": 74.6469,
      "duration": 0.0162,
      "velocity": 120,
      "chip": "ym2612"
    },
    {
      "channel": 3,
      "note": 72,
      "start": 74.648,
      "duration": 0.0163,
      "velocity": 120,
      "chip": "ym2612"
    },
    {
      "channel": 2,
      "note": 53,
      "start": 74.6492,
      "duration": 0.0161,
      "velocity": 100,
      "chip": "ym2612"
    },
    {
      "channel": 1,
      "note": 75,
      "start": 74.6602,
      "duration": 0.0157,
      "velocity": 124,
      "chip": "ym2612"
    },
    {
      "channel": 0,
      "note": 47,
      "start": 74.6619,
      "duration": 0.0158,
      "velocity": 115,
      "chip": "ym2612"
    },
    {
      "channel": 4,
      "note": 65,
      "start": 74.6631,
      "duration": 0.0157,
      "velocity": 120,
      "chip": "ym2612"
    },
    {
      "channel": 3,
      "note": 72,
      "start": 74.6643,
      "duration": 0.0157,
      "velocity": 120,
      "chip": "ym2612"
    },
    {
      "channel": 2,
      "note": 53,
      "start": 74.6654,
      "duration": 0.0158,
      "velocity": 100,
      "chip": "ym2612"
    },
    {
      "channel": 1,
      "note": 74,
      "start": 74.6759,
      "duration": 0.0141,
      "velocity": 124,
      "chip": "ym2612"
    },
    {
      "channel": 0,
      "note": 48,
      "start": 74.6777,
      "duration": 0.014,
      "velocity": 115,
      "chip": "ym2612"
    },
    {
      "channel": 4,
      "note": 65,
      "start": 74.6788,
      "duration": 0.0141,
      "velocity": 120,
      "chip": "ym2612"
    },
    {
      "channel": 3,
      "note": 72,
      "start": 74.68,
      "duration": 0.0141,
      "velocity": 120,
      "chip": "ym2612"
    },
    {
      "channel": 2,
      "note": 53,
      "start": 74.6812,
      "duration": 0.0141,
      "velocity": 100,
      "chip": "ym2612"
    },
    {
      "channel": 1,
      "note": 72,
      "start": 74.6899,
      "duration": 0.0158,
      "velocity": 124,
      "chip": "ym2612"
    },
    {
      "channel": 0,
      "note": 48,
      "start": 74.6917,
      "duration": 0.0185,
      "velocity": 115,
      "chip": "ym2612"
    },
    {
      "channel": 4,
      "note": 65,
      "start": 74.6929,
      "duration": 0.0185,
      "velocity": 120,
      "chip": "ym2612"
    },
    {
      "channel": 3,
      "note": 72,
      "start": 74.6941,
      "duration": 0.0184,
      "velocity": 120,
      "chip": "ym2612"
    },
    {
      "channel": 2,
      "note": 53,
      "start": 74.6952,
      "duration": 0.0185,
      "velocity": 100,
      "chip": "ym2612"
    },
    {
      "channel": 1,
      "note": 71,
      "start": 74.7057,
      "duration": 0.0161,
      "velocity": 124,
      "chip": "ym2612"
    },
    {
      "channel": 0,
      "note": 49,
      "start": 74.7102,
      "duration": 0.0153,
      "velocity": 1,
      "chip": "ym2612"
    },
    {
      "channel": 4,
      "note": 65,
      "start": 74.7114,
      "duration": 0.0153,
      "velocity": 120,
      "chip": "ym2612"
    },
    {
      "channel": 3,
      "note": 72,
      "start": 74.7125,
      "duration": 0.0153,
      "velocity": 120,
      "chip": "ym2612"
    },
    {
      "channel": 2,
      "note": 53,
      "start": 74.7137,
      "duration": 0.0153,
      "velocity": 100,
      "chip": "ym2612"
    },
    {
      "channel": 1,
      "note": 70,
      "start": 74.7218,
      "duration": 0.0161,
      "velocity": 124,
      "chip": "ym2612"
    },
    {
      "channel": 4,
      "note": 65,
      "start": 74.7267,
      "duration": 0.0125,
      "velocity": 120,
      "chip": "ym2612"
    },
    {
      "channel": 3,
      "note": 72,
      "start": 74.7278,
      "duration": 0.0149,
      "velocity": 120,
      "chip": "ym2612"
    },
    {
      "channel": 2,
      "note": 53,
      "start": 74.729,
      "duration": 0.0149,
      "velocity": 100,
      "chip": "ym2612"
    },
    {
      "channel": 1,
      "note": 69,
      "start": 74.7379,
      "duration": 0.0161,
      "velocity": 124,
      "chip": "ym2612"
    },
    {
      "channel": 4,
      "note": 65,
      "start": 74.7392,
      "duration": 0.0161,
      "velocity": 120,
      "chip": "ym2612"
    },
    {
      "channel": 3,
      "note": 72,
      "start": 74.7427,
      "duration": 0.0141,
      "velocity": 120,
      "chip": "ym2612"
    },
    {
      "channel": 1,
      "note": 68,
      "start": 74.7541,
      "duration": 0.0161,
      "velocity": 124,
      "chip": "ym2612"
    },
    {
      "channel": 4,
      "note": 65,
      "start": 74.7553,
      "duration": 0.0161,
      "velocity": 120,
      "chip": "ym2612"
    },
    {
      "channel": 3,
      "note": 72,
      "start": 74.7568,
      "duration": 0.0158,
      "velocity": 120,
      "chip": "ym2612"
    },
    {
      "channel": 1,
      "note": 66,
      "start": 74.7702,
      "duration": 0.0161,
      "velocity": 124,
      "chip": "ym2612"
    },
    {
      "channel": 4,
      "note": 65,
      "start": 74.7714,
      "duration": 0.0161,
      "velocity": 120,
      "chip": "ym2612"
    },
    {
      "channel": 3,
      "note": 72,
      "start": 74.7726,
      "duration": 0.0161,
      "velocity": 120,
      "chip": "ym2612"
    },
    {
      "channel": 1,
      "note": 65,
      "start": 74.7863,
      "duration": 0.0161,
      "velocity": 124,
      "chip": "ym2612"
    },
    {
      "channel": 4,
      "note": 65,
      "start": 74.7875,
      "duration": 0.0161,
      "velocity": 120,
      "chip": "ym2612"
    },
    {
      "channel": 3,
      "note": 72,
      "start": 74.7887,
      "duration": 0.0161,
      "velocity": 120,
      "chip": "ym2612"
    },
    {
      "channel": 1,
      "note": 64,
      "start": 74.8023,
      "duration": 0.0161,
      "velocity": 124,
      "chip": "ym2612"
    },
    {
      "channel": 4,
      "note": 65,
      "start": 74.8036,
      "duration": 0.0199,
      "velocity": 120,
      "chip": "ym2612"
    },
    {
      "channel": 3,
      "note": 72,
      "start": 74.8048,
      "duration": 0.0199,
      "velocity": 120,
      "chip": "ym2612"
    },
    {
      "channel": 1,
      "note": 62,
      "start": 74.8184,
      "duration": 0.0161,
      "velocity": 124,
      "chip": "ym2612"
    },
    {
      "channel": 0,
      "note": 36,
      "start": 74.8219,
      "duration": 0.0144,
      "velocity": 115,
      "chip": "ym2612"
    },
    {
      "channel": 4,
      "note": 65,
      "start": 74.8235,
      "duration": 0.0141,
      "velocity": 120,
      "chip": "ym2612"
    },
    {
      "channel": 3,
      "note": 72,
      "start": 74.8247,
      "duration": 0.014,
      "velocity": 120,
      "chip": "ym2612"
    },
    {
      "channel": 2,
      "note": 53,
      "start": 74.8261,
      "duration": 0.0165,
      "velocity": 100,
      "chip": "ym2612"
    },
    {
      "channel": 1,
      "note": 61,
      "start": 74.8345,
      "duration": 0.0161,
      "velocity": 124,
      "chip": "ym2612"
    },
    {
      "channel": 0,
      "note": 36,
      "start": 74.8363,
      "duration": 0.016,
      "velocity": 115,
      "chip": "ym2612"
    },
    {
      "channel": 4,
      "note": 65,
      "start": 74.8375,
      "duration": 0.016,
      "velocity": 120,
      "chip": "ym2612"
    },
    {
      "channel": 3,
      "note": 72,
      "start": 74.8387,
      "duration": 0.016,
      "velocity": 120,
      "chip": "ym2612"
    },
    {
      "channel": 2,
      "note": 53,
      "start": 74.8426,
      "duration": 0.0132,
      "velocity": 100,
      "chip": "ym2612"
    },
    {
      "channel": 1,
      "note": 60,
      "start": 74.8506,
      "duration": 0.0161,
      "velocity": 124,
      "chip": "ym2612"
    },
    {
      "channel": 0,
      "note": 37,
      "start": 74.8523,
      "duration": 0.0161,
      "velocity": 115,
      "chip": "ym2612"
    },
    {
      "channel": 4,
      "note": 65,
      "start": 74.8536,
      "duration": 0.0161,
      "velocity": 120,
      "chip": "ym2612"
    },
    {
      "channel": 3,
      "note": 72,
      "start": 74.8547,
      "duration": 0.0161,
      "velocity": 120,
      "chip": "ym2612"
    },
    {
      "channel": 2,
      "note": 53,
      "start": 74.8559,
      "duration": 0.0161,
      "velocity": 100,
      "chip": "ym2612"
    },
    {
      "channel": 1,
      "note": 59,
      "start": 74.8667,
      "duration": 0.0161,
      "velocity": 124,
      "chip": "ym2612"
    },
    {
      "channel": 0,
      "note": 37,
      "start": 74.8684,
      "duration": 0.0161,
      "velocity": 115,
      "chip": "ym2612"
    },
    {
      "channel": 4,
      "note": 65,
      "start": 74.8696,
      "duration": 0.0161,
      "velocity": 120,
      "chip": "ym2612"
    },
    {
      "channel": 3,
      "note": 72,
      "start": 74.8708,
      "duration": 0.0161,
      "velocity": 120,
      "chip": "ym2612"
    },
    {
      "channel": 2,
      "note": 53,
      "start": 74.8719,
      "duration": 0.0161,
      "velocity": 100,
      "chip": "ym2612"
    },
    {
      "channel": 1,
      "note": 57,
      "start": 74.8828,
      "duration": 0.0161,
      "velocity": 124,
      "chip": "ym2612"
    },
    {
      "channel": 0,
      "note": 38,
      "start": 74.8845,
      "duration": 0.0161,
      "velocity": 115,
      "chip": "ym2612"
    },
    {
      "channel": 4,
      "note": 65,
      "start": 74.8857,
      "duration": 0.0161,
      "velocity": 120,
      "chip": "ym2612"
    },
    {
      "channel": 3,
      "note": 72,
      "start": 74.8869,
      "duration": 0.0161,
      "velocity": 120,
      "chip": "ym2612"
    },
    {
      "channel": 2,
      "note": 53,
      "start": 74.888,
      "duration": 0.0162,
      "velocity": 100,
      "chip": "ym2612"
    },
    {
      "channel": 1,
      "note": 56,
      "start": 74.8989,
      "duration": 0.0161,
      "velocity": 124,
      "chip": "ym2612"
    },
    {
      "channel": 0,
      "note": 38,
      "start": 74.9007,
      "duration": 0.0161,
      "velocity": 115,
      "chip": "ym2612"
    },
    {
      "channel": 4,
      "note": 65,
      "start": 74.9018,
      "duration": 0.0161,
      "velocity": 120,
      "chip": "ym2612"
    },
    {
      "channel": 3,
      "note": 72,
      "start": 74.903,
      "duration": 0.0161,
      "velocity": 120,
      "chip": "ym2612"
    },
    {
      "channel": 2,
      "note": 53,
      "start": 74.9042,
      "duration": 0.0161,
      "velocity": 100,
      "chip": "ym2612"
    },
    {
      "channel": 1,
      "note": 55,
      "start": 74.9151,
      "duration": 0.0161,
      "velocity": 124,
      "chip": "ym2612"
    },
    {
      "channel": 0,
      "note": 39,
      "start": 74.9168,
      "duration": 0.0161,
      "velocity": 115,
      "chip": "ym2612"
    },
    {
      "channel": 4,
      "note": 65,
      "start": 74.918,
      "duration": 0.0161,
      "velocity": 120,
      "chip": "ym2612"
    },
    {
      "channel": 3,
      "note": 72,
      "start": 74.9191,
      "duration": 0.0161,
      "velocity": 120,
      "chip": "ym2612"
    },
    {
      "channel": 2,
      "note": 53,
      "start": 74.9203,
      "duration": 0.0161,
      "velocity": 100,
      "chip": "ym2612"
    },
    {
      "channel": 1,
      "note": 53,
      "start": 74.9312,
      "duration": 0.0161,
      "velocity": 124,
      "chip": "ym2612"
    },
    {
      "channel": 0,
      "note": 39,
      "start": 74.9329,
      "duration": 0.0161,
      "velocity": 115,
      "chip": "ym2612"
    },
    {
      "channel": 4,
      "note": 65,
      "start": 74.9341,
      "duration": 0.0161,
      "velocity": 120,
      "chip": "ym2612"
    },
    {
      "channel": 3,
      "note": 72,
      "start": 74.9352,
      "duration": 0.0161,
      "velocity": 120,
      "chip": "ym2612"
    },
    {
      "channel": 1,
      "note": 52,
      "start": 74.9473,
      "duration": 0.0161,
      "velocity": 124,
      "chip": "ym2612"
    },
    {
      "channel": 0,
      "note": 40,
      "start": 74.949,
      "duration": 0.0161,
      "velocity": 115,
      "chip": "ym2612"
    },
    {
      "channel": 4,
      "note": 65,
      "start": 74.9502,
      "duration": 0.0161,
      "velocity": 120,
      "chip": "ym2612"
    },
    {
      "channel": 3,
      "note": 72,
      "start": 74.9514,
      "duration": 0.016,
      "velocity": 120,
      "chip": "ym2612"
    },
    {
      "channel": 1,
      "note": 51,
      "start": 74.9634,
      "duration": 0.0153,
      "velocity": 1,
      "chip": "ym2612"
    },
    {
      "channel": 0,
      "note": 40,
      "start": 74.9651,
      "duration": 0.0153,
      "velocity": 115,
      "chip": "ym2612"
    },
    {
      "channel": 4,
      "note": 65,
      "start": 74.9663,
      "duration": 0.0153,
      "velocity": 120,
      "chip": "ym2612"
    },
    {
      "channel": 3,
      "note": 72,
      "start": 74.9674,
      "duration": 0.0153,
      "velocity": 120,
      "chip": "ym2612"
    },
    {
      "channel": 0,
      "note": 40,
      "start": 74.9804,
      "duration": 0.0152,
      "velocity": 115,
      "chip": "ym2612"
    },
    {
      "channel": 4,
      "note": 65,
      "start": 74.9815,
      "duration": 0.0153,
      "velocity": 120,
      "chip": "ym2612"
    },
    {
      "channel": 3,
      "note": 72,
      "start": 74.9827,
      "duration": 0.0152,
      "velocity": 120,
      "chip": "ym2612"
    },
    {
      "channel": 0,
      "note": 41,
      "start": 74.9956,
      "duration": 0.0161,
      "velocity": 115,
      "chip": "ym2612"
    },
    {
      "channel": 4,
      "note": 65,
      "start": 74.9968,
      "duration": 0.0161,
      "velocity": 120,
      "chip": "ym2612"
    },
    {
      "channel": 3,
      "note": 72,
      "start": 74.998,
      "duration": 0.0161,
      "velocity": 120,
      "chip": "ym2612"
    },
    {
      "channel": 0,
      "note": 41,
      "start": 75.0117,
      "duration": 0.0161,
      "velocity": 115,
      "chip": "ym2612"
    },
    {
      "channel": 4,
      "note": 65,
      "start": 75.0129,
      "duration": 0.0161,
      "velocity": 120,
      "chip": "ym2612"
    },
    {
      "channel": 3,
      "note": 72,
      "start": 75.0141,
      "duration": 0.0161,
      "velocity": 120,
      "chip": "ym2612"
    },
    {
      "channel": 2,
      "note": 53,
      "start": 75.0155,
      "duration": 0.0159,
      "velocity": 100,
      "chip": "ym2612"
    },
    {
      "channel": 1,
      "note": 41,
      "start": 75.017,
      "duration": 0.0156,
      "velocity": 100,
      "chip": "ym2612"
    },
    {
      "channel": 0,
      "note": 42,
      "start": 75.0278,
      "duration": 0.0162,
      "velocity": 115,
      "chip": "ym2612"
    },
    {
      "channel": 4,
      "note": 65,
      "start": 75.029,
      "duration": 0.0162,
      "velocity": 120,
      "chip": "ym2612"
    },
    {
      "channel": 3,
      "note": 72,
      "start": 75.0302,
      "duration": 0.0162,
      "velocity": 120,
      "chip": "ym2612"
    },
    {
      "channel": 2,
      "note": 53,
      "start": 75.0314,
      "duration": 0.0161,
      "velocity": 100,
      "chip": "ym2612"
    },
    {
      "channel": 1,
      "note": 41,
      "start": 75.0326,
      "duration": 0.0161,
      "velocity": 100,
      "chip": "ym2612"
    },
    {
      "channel": 0,
      "note": 42,
      "start": 75.044,
      "duration": 0.0167,
      "velocity": 115,
      "chip": "ym2612"
    },
    {
      "channel": 4,
      "note": 65,
      "start": 75.0452,
      "duration": 0.0166,
      "velocity": 120,
      "chip": "ym2612"
    },
    {
      "channel": 3,
      "note": 72,
      "start": 75.0464,
      "duration": 0.0167,
      "velocity": 120,
      "chip": "ym2612"
    },
    {
      "channel": 2,
      "note": 53,
      "start": 75.0475,
      "duration": 0.0167,
      "velocity": 100,
      "chip": "ym2612"
    },
    {
      "channel": 1,
      "note": 41,
      "start": 75.0487,
      "duration": 0.0166,
      "velocity": 100,
      "chip": "ym2612"
    },
    {
      "channel": 0,
      "note": 43,
      "start": 75.0607,
      "duration": 0.0163,
      "velocity": 115,
      "chip": "ym2612"
    },
    {
      "channel": 4,
      "note": 65,
      "start": 75.0618,
      "duration": 0.0163,
      "velocity": 120,
      "chip": "ym2612"
    },
    {
      "channel": 3,
      "note": 72,
      "start": 75.063,
      "duration": 0.0163,
      "velocity": 120,
      "chip": "ym2612"
    },
    {
      "channel": 2,
      "note": 53,
      "start": 75.0642,
      "duration": 0.0163,
      "velocity": 100,
      "chip": "ym2612"
    },
    {
      "channel": 1,
      "note": 41,
      "start": 75.0653,
      "duration": 0.0163,
      "velocity": 100,
      "chip": "ym2612"
    },
    {
      "channel": 0,
      "note": 43,
      "start": 75.077,
      "duration": 0.0153,
      "velocity": 115,
      "chip": "ym2612"
    },
    {
      "channel": 4,
      "note": 65,
      "start": 75.0782,
      "duration": 0.0153,
      "velocity": 120,
      "chip": "ym2612"
    },
    {
      "channel": 3,
      "note": 72,
      "start": 75.0794,
      "duration": 0.0152,
      "velocity": 120,
      "chip": "ym2612"
    },
    {
      "channel": 2,
      "note": 53,
      "start": 75.0805,
      "duration": 0.0153,
      "velocity": 100,
      "chip": "ym2612"
    },
    {
      "channel": 1,
      "note": 41,
      "start": 75.0816,
      "duration": 0.0153,
      "velocity": 100,
      "chip": "ym2612"
    },
    {
      "channel": 0,
      "note": 44,
      "start": 75.0922,
      "duration": 0.0185,
      "velocity": 115,
      "chip": "ym2612"
    },
    {
      "channel": 4,
      "note": 65,
      "start": 75.0934,
      "duration": 0.0184,
      "velocity": 120,
      "chip": "ym2612"
    },
    {
      "channel": 3,
      "note": 72,
      "start": 75.0946,
      "duration": 0.0185,
      "velocity": 120,
      "chip": "ym2612"
    },
    {
      "channel": 2,
      "note": 53,
      "start": 75.0957,
      "duration": 0.0184,
      "velocity": 100,
      "chip": "ym2612"
    },
    {
      "channel": 1,
      "note": 41,
      "start": 75.0969,
      "duration": 0.0184,
      "velocity": 100,
      "chip": "ym2612"
    },
    {
      "channel": 0,
      "note": 44,
      "start": 75.1107,
      "duration": 0.0165,
      "velocity": 115,
      "chip": "ym2612"
    },
    {
      "channel": 4,
      "note": 65,
      "start": 75.1118,
      "duration": 0.0166,
      "velocity": 120,
      "chip": "ym2612"
    },
    {
      "channel": 3,
      "note": 72,
      "start": 75.113,
      "duration": 0.0165,
      "velocity": 120,
      "chip": "ym2612"
    },
    {
      "channel": 2,
      "note": 53,
      "start": 75.1142,
      "duration": 0.0166,
      "velocity": 100,
      "chip": "ym2612"
    },
    {
      "channel": 1,
      "note": 41,
      "start": 75.1153,
      "duration": 0.0166,
      "velocity": 100,
      "chip": "ym2612"
    },
    {
      "channel": 0,
      "note": 44,
      "start": 75.1271,
      "duration": 0.0158,
      "velocity": 115,
      "chip": "ym2612"
    },
    {
      "channel": 4,
      "note": 65,
      "start": 75.1284,
      "duration": 0.0158,
      "velocity": 120,
      "chip": "ym2612"
    },
    {
      "channel": 3,
      "note": 72,
      "start": 75.1296,
      "duration": 0.0157,
      "velocity": 120,
      "chip": "ym2612"
    },
    {
      "channel": 0,
      "note": 45,
      "start": 75.1429,
      "duration": 0.0141,
      "velocity": 115,
      "chip": "ym2612"
    },
    {
      "channel": 4,
      "note": 65,
      "start": 75.1441,
      "duration": 0.014,
      "velocity": 120,
      "chip": "ym2612"
    },
    {
      "channel": 3,
      "note": 72,
      "start": 75.1453,
      "duration": 0.0141,
      "velocity": 120,
      "chip": "ym2612"
    },
    {
      "channel": 0,
      "note": 45,
      "start": 75.157,
      "duration": 0.0185,
      "velocity": 115,
      "chip": "ym2612"
    },
    {
      "channel": 4,
      "note": 65,
      "start": 75.1581,
      "duration": 0.0186,
      "velocity": 120,
      "chip": "ym2612"
    },
    {
      "channel": 3,
      "note": 72,
      "start": 75.1593,
      "duration": 0.0185,
      "velocity": 120,
      "chip": "ym2612"
    },
    {
      "channel": 0,
      "note": 46,
      "start": 75.1755,
      "duration": 0.0134,
      "velocity": 115,
      "chip": "ym2612"
    },
    {
      "channel": 4,
      "note": 65,
      "start": 75.1767,
      "duration": 0.0161,
      "velocity": 120,
      "chip": "ym2612"
    },
    {
      "channel": 3,
      "note": 72,
      "start": 75.1778,
      "duration": 0.0161,
      "velocity": 120,
      "chip": "ym2612"
    },
    {
      "channel": 0,
      "note": 46,
      "start": 75.1889,
      "duration": 0.0202,
      "velocity": 115,
      "chip": "ym2612"
    },
    {
      "channel": 4,
      "note": 65,
      "start": 75.1928,
      "duration": 0.0176,
      "velocity": 120,
      "chip": "ym2612"
    },
    {
      "channel": 3,
      "note": 72,
      "start": 75.1939,
      "duration": 0.0176,
      "velocity": 120,
      "chip": "ym2612"
    },
    {
      "channel": 0,
      "note": 36,
      "start": 75.2091,
      "duration": 0.012,
      "velocity": 115,
      "chip": "ym2612"
    },
    {
      "channel": 4,
      "note": 65,
      "start": 75.2104,
      "duration": 0.012,
      "velocity": 120,
      "chip": "ym2612"
    },
    {
      "channel": 3,
      "note": 72,
      "start": 75.2116,
      "duration": 0.0122,
      "velocity": 120,
      "chip": "ym2612"
    },
    {
      "channel": 2,
      "note": 53,
      "start": 75.213,
      "duration": 0.012,
      "velocity": 100,
      "chip": "ym2612"
    },
    {
      "channel": 1,
      "note": 41,
      "start": 75.2144,
      "duration": 0.0117,
      "velocity": 100,
      "chip": "ym2612"
    },
    {
      "channel": 0,
      "note": 36,
      "start": 75.2211,
      "duration": 0.016,
      "velocity": 115,
      "chip": "ym2612"
    },
    {
      "channel": 4,
      "note": 65,
      "start": 75.2223,
      "duration": 0.016,
      "velocity": 120,
      "chip": "ym2612"
    },
    {
      "channel": 3,
      "note": 72,
      "start": 75.2238,
      "duration": 0.0184,
      "velocity": 120,
      "chip": "ym2612"
    },
    {
      "channel": 2,
      "note": 53,
      "start": 75.225,
      "duration": 0.0184,
      "velocity": 100,
      "chip": "ym2612"
    },
    {
      "channel": 1,
      "note": 41,
      "start": 75.2261,
      "duration": 0.0184,
      "velocity": 100,
      "chip": "ym2612"
    },
    {
      "channel": 0,
      "note": 37,
      "start": 75.2371,
      "duration": 0.0161,
      "velocity": 115,
      "chip": "ym2612"
    },
    {
      "channel": 4,
      "note": 65,
      "start": 75.2383,
      "duration": 0.0161,
      "velocity": 120,
      "chip": "ym2612"
    },
    {
      "channel": 3,
      "note": 72,
      "start": 75.2422,
      "duration": 0.0134,
      "velocity": 120,
      "chip": "ym2612"
    },
    {
      "channel": 2,
      "note": 53,
      "start": 75.2434,
      "duration": 0.0161,
      "velocity": 100,
      "chip": "ym2612"
    },
    {
      "channel": 1,
      "note": 41,
      "start": 75.2445,
      "duration": 0.0161,
      "velocity": 100,
      "chip": "ym2612"
    },
    {
      "channel": 0,
      "note": 37,
      "start": 75.2532,
      "duration": 0.0161,
      "velocity": 115,
      "chip": "ym2612"
    },
    {
      "channel": 4,
      "note": 65,
      "start": 75.2544,
      "duration": 0.0161,
      "velocity": 120,
      "chip": "ym2612"
    },
    {
      "channel": 3,
      "note": 72,
      "start": 75.2556,
      "duration": 0.0161,
      "velocity": 120,
      "chip": "ym2612"
    },
    {
      "channel": 2,
      "note": 53,
      "start": 75.2595,
      "duration": 0.0157,
      "velocity": 100,
      "chip": "ym2612"
    },
    {
      "channel": 1,
      "note": 41,
      "start": 75.2606,
      "duration": 0.0157,
      "velocity": 100,
      "chip": "ym2612"
    },
    {
      "channel": 0,
      "note": 38,
      "start": 75.2693,
      "duration": 0.0161,
      "velocity": 115,
      "chip": "ym2612"
    },
    {
      "channel": 4,
      "note": 65,
      "start": 75.2705,
      "duration": 0.0161,
      "velocity": 120,
      "chip": "ym2612"
    },
    {
      "channel": 3,
      "note": 72,
      "start": 75.2717,
      "duration": 0.0161,
      "velocity": 120,
      "chip": "ym2612"
    },
    {
      "channel": 2,
      "note": 53,
      "start": 75.2752,
      "duration": 0.0137,
      "velocity": 100,
      "chip": "ym2612"
    },
    {
      "channel": 1,
      "note": 41,
      "start": 75.2763,
      "duration": 0.0141,
      "velocity": 100,
      "chip": "ym2612"
    },
    {
      "channel": 0,
      "note": 38,
      "start": 75.2854,
      "duration": 0.0162,
      "velocity": 115,
      "chip": "ym2612"
    },
    {
      "channel": 4,
      "note": 65,
      "start": 75.2866,
      "duration": 0.0161,
      "velocity": 120,
      "chip": "ym2612"
    },
    {
      "channel": 3,
      "note": 72,
      "start": 75.2878,
      "duration": 0.0161,
      "velocity": 120,
      "chip": "ym2612"
    },
    {
      "channel": 2,
      "note": 53,
      "start": 75.2889,
      "duration": 0.0162,
      "velocity": 100,
      "chip": "ym2612"
    },
    {
      "channel": 1,
      "note": 41,
      "start": 75.2904,
      "duration": 0.0186,
      "velocity": 100,
      "chip": "ym2612"
    },
    {
      "channel": 0,
      "note": 39,
      "start": 75.3016,
      "duration": 0.0161,
      "velocity": 115,
      "chip": "ym2612"
    },
    {
      "channel": 4,
      "note": 65,
      "start": 75.3027,
      "duration": 0.0161,
      "velocity": 120,
      "chip": "ym2612"
    },
    {
      "channel": 3,
      "note": 72,
      "start": 75.3039,
      "duration": 0.0161,
      "velocity": 120,
      "chip": "ym2612"
    },
    {
      "channel": 2,
      "note": 53,
      "start": 75.3051,
      "duration": 0.0161,
      "velocity": 100,
      "chip": "ym2612"
    },
    {
      "channel": 1,
      "note": 41,
      "start": 75.309,
      "duration": 0.0134,
      "velocity": 100,
      "chip": "ym2612"
    },
    {
      "channel": 0,
      "note": 39,
      "start": 75.3177,
      "duration": 0.0161,
      "velocity": 115,
      "chip": "ym2612"
    },
    {
      "channel": 4,
      "note": 65,
      "start": 75.3188,
      "duration": 0.0161,
      "velocity": 120,
      "chip": "ym2612"
    },
    {
      "channel": 3,
      "note": 72,
      "start": 75.32,
      "duration": 0.0162,
      "velocity": 120,
      "chip": "ym2612"
    },
    {
      "channel": 0,
      "note": 40,
      "start": 75.3338,
      "duration": 0.0161,
      "velocity": 115,
      "chip": "ym2612"
    },
    {
      "channel": 4,
      "note": 65,
      "start": 75.335,
      "duration": 0.0161,
      "velocity": 120,
      "chip": "ym2612"
    },
    {
      "channel": 3,
      "note": 72,
      "start": 75.3362,
      "duration": 0.016,
      "velocity": 120,
      "chip": "ym2612"
    },
    {
      "channel": 0,
      "note": 40,
      "start": 75.3499,
      "duration": 0.0161,
      "velocity": 115,
      "chip": "ym2612"
    },
    {
      "channel": 4,
      "note": 65,
      "start": 75.3511,
      "duration": 0.0161,
      "velocity": 120,
      "chip": "ym2612"
    },
    {
      "channel": 3,
      "note": 72,
      "start": 75.3522,
      "duration": 0.0161,
      "velocity": 120,
      "chip": "ym2612"
    },
    {
      "channel": 0,
      "note": 40,
      "start": 75.366,
      "duration": 0.0161,
      "velocity": 115,
      "chip": "ym2612"
    },
    {
      "channel": 4,
      "note": 65,
      "start": 75.3672,
      "duration": 0.0161,
      "velocity": 120,
      "chip": "ym2612"
    },
    {
      "channel": 3,
      "note": 72,
      "start": 75.3683,
      "duration": 0.0161,
      "velocity": 120,
      "chip": "ym2612"
    },
    {
      "channel": 0,
      "note": 41,
      "start": 75.382,
      "duration": 0.0195,
      "velocity": 115,
      "chip": "ym2612"
    },
    {
      "channel": 4,
      "note": 65,
      "start": 75.3833,
      "duration": 0.0195,
      "velocity": 120,
      "chip": "ym2612"
    },
    {
      "channel": 3,
      "note": 72,
      "start": 75.3844,
      "duration": 0.0196,
      "velocity": 120,
      "chip": "ym2612"
    },
    {
      "channel": 1,
      "note": 78,
      "start": 75.3999,
      "duration": 0.0144,
      "velocity": 124,
      "chip": "ym2612"
    },
    {
      "channel": 0,
      "note": 41,
      "start": 75.4016,
      "duration": 0.0144,
      "velocity": 115,
      "chip": "ym2612"
    },
    {
      "channel": 4,
      "note": 65,
      "start": 75.4028,
      "duration": 0.0144,
      "velocity": 120,
      "chip": "ym2612"
    },
    {
      "channel": 3,
      "note": 72,
      "start": 75.404,
      "duration": 0.0143,
      "velocity": 120,
      "chip": "ym2612"
    },
    {
      "channel": 2,
      "note": 53,
      "start": 75.4054,
      "duration": 0.0141,
      "velocity": 100,
      "chip": "ym2612"
    },
    {
      "channel": 1,
      "note": 76,
      "start": 75.4142,
      "duration": 0.016,
      "velocity": 124,
      "chip": "ym2612"
    },
    {
      "channel": 0,
      "note": 42,
      "start": 75.416,
      "duration": 0.016,
      "velocity": 115,
      "chip": "ym2612"
    },
    {
      "channel": 4,
      "note": 65,
      "start": 75.4172,
      "duration": 0.016,
      "velocity": 120,
      "chip": "ym2612"
    },
    {
      "channel": 3,
      "note": 72,
      "start": 75.4183,
      "duration": 0.016,
      "velocity": 120,
      "chip": "ym2612"
    },
    {
      "channel": 2,
      "note": 53,
      "start": 75.4195,
      "duration": 0.016,
      "velocity": 100,
      "chip": "ym2612"
    },
    {
      "channel": 1,
      "note": 75,
      "start": 75.4303,
      "duration": 0.0161,
      "velocity": 124,
      "chip": "ym2612"
    },
    {
      "channel": 0,
      "note": 42,
      "start": 75.432,
      "duration": 0.0161,
      "velocity": 115,
      "chip": "ym2612"
    },
    {
      "channel": 4,
      "note": 65,
      "start": 75.4332,
      "duration": 0.0161,
      "velocity": 120,
      "chip": "ym2612"
    },
    {
      "channel": 3,
      "note": 72,
      "start": 75.4343,
      "duration": 0.0162,
      "velocity": 120,
      "chip": "ym2612"
    },
    {
      "channel": 2,
      "note": 53,
      "start": 75.4355,
      "duration": 0.0161,
      "velocity": 100,
      "chip": "ym2612"
    },
    {
      "channel": 1,
      "note": 74,
      "start": 75.4464,
      "duration": 0.0161,
      "velocity": 124,
      "chip": "ym2612"
    },
    {
      "channel": 0,
      "note": 43,
      "start": 75.4481,
      "duration": 0.0162,
      "velocity": 115,
      "chip": "ym2612"
    },
    {
      "channel": 4,
      "note": 65,
      "start": 75.4493,
      "duration": 0.0161,
      "velocity": 120,
      "chip": "ym2612"
    },
    {
      "channel": 3,
      "note": 72,
      "start": 75.4505,
      "duration": 0.0161,
      "velocity": 120,
      "chip": "ym2612"
    },
    {
      "channel": 2,
      "note": 53,
      "start": 75.4516,
      "duration": 0.0161,
      "velocity": 100,
      "chip": "ym2612"
    },
    {
      "channel": 1,
      "note": 72,
      "start": 75.4624,
      "duration": 0.0161,
      "velocity": 124,
      "chip": "ym2612"
    },
    {
      "channel": 0,
      "note": 43,
      "start": 75.4642,
      "duration": 0.0161,
      "velocity": 115,
      "chip": "ym2612"
    },
    {
      "channel": 4,
      "note": 65,
      "start": 75.4654,
      "duration": 0.016,
      "velocity": 120,
      "chip": "ym2612"
    },
    {
      "channel": 3,
      "note": 72,
      "start": 75.4666,
      "duration": 0.0161,
      "velocity": 120,
      "chip": "ym2612"
    },
    {
      "channel": 2,
      "note": 53,
      "start": 75.4677,
      "duration": 0.0161,
      "velocity": 100,
      "chip": "ym2612"
    },
    {
      "channel": 1,
      "note": 71,
      "start": 75.4785,
      "duration": 0.0162,
      "velocity": 124,
      "chip": "ym2612"
    },
    {
      "channel": 0,
      "note": 44,
      "start": 75.4803,
      "duration": 0.0161,
      "velocity": 115,
      "chip": "ym2612"
    },
    {
      "channel": 4,
      "note": 65,
      "start": 75.4815,
      "duration": 0.0162,
      "velocity": 120,
      "chip": "ym2612"
    },
    {
      "channel": 3,
      "note": 72,
      "start": 75.4827,
      "duration": 0.0161,
      "velocity": 120,
      "chip": "ym2612"
    },
    {
      "channel": 2,
      "note": 53,
      "start": 75.4838,
      "duration": 0.0161,
      "velocity": 100,
      "chip": "ym2612"
    },
    {
      "channel": 1,
      "note": 70,
      "start": 75.4947,
      "duration": 0.0161,
      "velocity": 124,
      "chip": "ym2612"
    },
    {
      "channel": 0,
      "note": 44,
      "start": 75.4964,
      "duration": 0.0161,
      "velocity": 115,
      "chip": "ym2612"
    },
    {
      "channel": 4,
      "note": 65,
      "start": 75.4976,
      "duration": 0.0161,
      "velocity": 120,
      "chip": "ym2612"
    },
    {
      "channel": 3,
      "note": 72,
      "start": 75.4988,
      "duration": 0.0161,
      "velocity": 120,
      "chip": "ym2612"
    },
    {
      "channel": 2,
      "note": 53,
      "start": 75.4999,
      "duration": 0.0161,
      "velocity": 100,
      "chip": "ym2612"
    },
    {
      "channel": 1,
      "note": 69,
      "start": 75.5108,
      "duration": 0.0164,
      "velocity": 124,
      "chip": "ym2612"
    },
    {
      "channel": 0,
      "note": 44,
      "start": 75.5125,
      "duration": 0.0165,
      "velocity": 115,
      "chip": "ym2612"
    },
    {
      "channel": 4,
      "note": 65,
      "start": 75.5137,
      "duration": 0.0164,
      "velocity": 120,
      "chip": "ym2612"
    },
    {
      "channel": 3,
      "note": 72,
      "start": 75.5149,
      "duration": 0.0165,
      "velocity": 120,
      "chip": "ym2612"
    },
    {
      "channel": 1,
      "note": 68,
      "start": 75.5272,
      "duration": 0.0163,
      "velocity": 124,
      "chip": "ym2612"
    },
    {
      "channel": 0,
      "note": 45,
      "start": 75.529,
      "duration": 0.0163,
      "velocity": 115,
      "chip": "ym2612"
    },
    {
      "channel": 4,
      "note": 65,
      "start": 75.5301,
      "duration": 0.0163,
      "velocity": 120,
      "chip": "ym2612"
    },
    {
      "channel": 3,
      "note": 72,
      "start": 75.5314,
      "duration": 0.0163,
      "velocity": 120,
      "chip": "ym2612"
    },
    {
      "channel": 1,
      "note": 66,
      "start": 75.5436,
      "duration": 0.0155,
      "velocity": 124,
      "chip": "ym2612"
    },
    {
      "channel": 0,
      "note": 45,
      "start": 75.5453,
      "duration": 0.0155,
      "velocity": 115,
      "chip": "ym2612"
    },
    {
      "channel": 4,
      "note": 65,
      "start": 75.5465,
      "duration": 0.0155,
      "velocity": 120,
      "chip": "ym2612"
    },
    {
      "channel": 3,
      "note": 72,
      "start": 75.5476,
      "duration": 0.0155,
      "velocity": 120,
      "chip": "ym2612"
    },
    {
      "channel": 1,
      "note": 65,
      "start": 75.5591,
      "duration": 0.0181,
      "velocity": 124,
      "chip": "ym2612"
    },
    {
      "channel": 0,
      "note": 46,
      "start": 75.5608,
      "duration": 0.0181,
      "velocity": 115,
      "chip": "ym2612"
    },
    {
      "channel": 4,
      "note": 65,
      "start": 75.562,
      "duration": 0.0181,
      "velocity": 120,
      "chip": "ym2612"
    },
    {
      "channel": 3,
      "note": 72,
      "start": 75.5632,
      "duration": 0.0181,
      "velocity": 120,
      "chip": "ym2612"
    },
    {
      "channel": 1,
      "note": 64,
      "start": 75.5772,
      "duration": 0.0167,
      "velocity": 124,
      "chip": "ym2612"
    },
    {
      "channel": 0,
      "note": 46,
      "start": 75.5789,
      "duration": 0.0185,
      "velocity": 115,
      "chip": "ym2612"
    },
    {
      "channel": 4,
      "note": 65,
      "start": 75.5801,
      "duration": 0.0185,
      "velocity": 120,
      "chip": "ym2612"
    },
    {
      "channel": 3,
      "note": 72,
      "start": 75.5813,
      "duration": 0.0186,
      "velocity": 120,
      "chip": "ym2612"
    },
    {
      "channel": 1,
      "note": 62,
      "start": 75.5939,
      "duration": 0.0159,
      "velocity": 124,
      "chip": "ym2612"
    },
    {
      "channel": 0,
      "note": 36,
      "start": 75.5974,
      "duration": 0.0141,
      "velocity": 115,
      "chip": "ym2612"
    },
    {
      "channel": 4,
      "note": 65,
      "start": 75.5987,
      "duration": 0.0141,
      "velocity": 120,
      "chip": "ym2612"
    },
    {
      "channel": 3,
      "note": 72,
      "start": 75.5999,
      "duration": 0.0141,
      "velocity": 120,
      "chip": "ym2612"
    },
    {
      "channel": 2,
      "note": 53,
      "start": 75.6013,
      "duration": 0.0139,
      "velocity": 100,
      "chip": "ym2612"
    },
    {
      "channel": 1,
      "note": 61,
      "start": 75.6098,
      "duration": 0.014,
      "velocity": 124,
      "chip": "ym2612"
    },
    {
      "channel": 0,
      "note": 36,
      "start": 75.6116,
      "duration": 0.014,
      "velocity": 115,
      "chip": "ym2612"
    },
    {
      "channel": 4,
      "note": 65,
      "start": 75.6128,
      "duration": 0.0139,
      "velocity": 120,
      "chip": "ym2612"
    },
    {
      "channel": 3,
      "note": 72,
      "start": 75.6139,
      "duration": 0.014,
      "velocity": 120,
      "chip": "ym2612"
    },
    {
      "channel": 2,
      "note": 53,
      "start": 75.6151,
      "duration": 0.0139,
      "velocity": 100,
      "chip": "ym2612"
    },
    {
      "channel": 1,
      "note": 60,
      "start": 75.6238,
      "duration": 0.0186,
      "velocity": 124,
      "chip": "ym2612"
    },
    {
      "channel": 0,
      "note": 37,
      "start": 75.6256,
      "duration": 0.0185,
      "velocity": 115,
      "chip": "ym2612"
    },
    {
      "channel": 4,
      "note": 65,
      "start": 75.6267,
      "duration": 0.0186,
      "velocity": 120,
      "chip": "ym2612"
    },
    {
      "channel": 3,
      "note": 72,
      "start": 75.6279,
      "duration": 0.0185,
      "velocity": 120,
      "chip": "ym2612"
    },
    {
      "channel": 2,
      "note": 53,
      "start": 75.6291,
      "duration": 0.0185,
      "velocity": 100,
      "chip": "ym2612"
    },
    {
      "channel": 1,
      "note": 59,
      "start": 75.6424,
      "duration": 0.0134,
      "velocity": 124,
      "chip": "ym2612"
    },
    {
      "channel": 0,
      "note": 37,
      "start": 75.6441,
      "duration": 0.0161,
      "velocity": 115,
      "chip": "ym2612"
    },
    {
      "channel": 4,
      "note": 65,
      "start": 75.6453,
      "duration": 0.0161,
      "velocity": 120,
      "chip": "ym2612"
    },
    {
      "channel": 3,
      "note": 72,
      "start": 75.6464,
      "duration": 0.0161,
      "velocity": 120,
      "chip": "ym2612"
    },
    {
      "channel": 2,
      "note": 53,
      "start": 75.6476,
      "duration": 0.0161,
      "velocity": 100,
      "chip": "ym2612"
    },
    {
      "channel": 1,
      "note": 57,
      "start": 75.6557,
      "duration": 0.0161,
      "velocity": 124,
      "chip": "ym2612"
    },
    {
      "channel": 0,
      "note": 38,
      "start": 75.6602,
      "duration": 0.0157,
      "velocity": 115,
      "chip": "ym2612"
    },
    {
      "channel": 4,
      "note": 65,
      "start": 75.6614,
      "duration": 0.0157,
      "velocity": 120,
      "chip": "ym2612"
    },
    {
      "channel": 3,
      "note": 72,
      "start": 75.6625,
      "duration": 0.0158,
      "velocity": 120,
      "chip": "ym2612"
    },
    {
      "channel": 2,
      "note": 53,
      "start": 75.6637,
      "duration": 0.0157,
      "velocity": 100,
      "chip": "ym2612"
    },
    {
      "channel": 1,
      "note": 56,
      "start": 75.6718,
      "duration": 0.0161,
      "velocity": 124,
      "chip": "ym2612"
    },
    {
      "channel": 0,
      "note": 38,
      "start": 75.6759,
      "duration": 0.0141,
      "velocity": 115,
      "chip": "ym2612"
    },
    {
      "channel": 4,
      "note": 65,
      "start": 75.6771,
      "duration": 0.0141,
      "velocity": 120,
      "chip": "ym2612"
    },
    {
      "channel": 3,
      "note": 72,
      "start": 75.6783,
      "duration": 0.014,
      "velocity": 120,
      "chip": "ym2612"
    },
    {
      "channel": 2,
      "note": 53,
      "start": 75.6794,
      "duration": 0.0141,
      "velocity": 100,
      "chip": "ym2612"
    },
    {
      "channel": 1,
      "note": 55,
      "start": 75.6879,
      "duration": 0.0161,
      "velocity": 124,
      "chip": "ym2612"
    },
    {
      "channel": 0,
      "note": 39,
      "start": 75.6899,
      "duration": 0.0158,
      "velocity": 115,
      "chip": "ym2612"
    },
    {
      "channel": 4,
      "note": 65,
      "start": 75.6912,
      "duration": 0.0185,
      "velocity": 120,
      "chip": "ym2612"
    },
    {
      "channel": 3,
      "note": 72,
      "start": 75.6923,
      "duration": 0.0185,
      "velocity": 120,
      "chip": "ym2612"
    },
    {
      "channel": 2,
      "note": 53,
      "start": 75.6934,
      "duration": 0.0185,
      "velocity": 100,
      "chip": "ym2612"
    },
    {
      "channel": 1,
      "note": 53,
      "start": 75.704,
      "duration": 0.0161,
      "velocity": 124,
      "chip": "ym2612"
    },
    {
      "channel": 0,
      "note": 39,
      "start": 75.7057,
      "duration": 0.0161,
      "velocity": 115,
      "chip": "ym2612"
    },
    {
      "channel": 4,
      "note": 65,
      "start": 75.7097,
      "duration": 0.0161,
      "velocity": 120,
      "chip": "ym2612"
    },
    {
      "channel": 3,
      "note": 72,
      "start": 75.7108,
      "duration": 0.0162,
      "velocity": 120,
      "chip": "ym2612"
    },
    {
      "channel": 1,
      "note": 52,
      "start": 75.7201,
      "duration": 0.0161,
      "velocity": 124,
      "chip": "ym2612"
    },
    {
      "channel": 0,
      "note": 40,
      "start": 75.7218,
      "duration": 0.0161,
      "velocity": 115,
      "chip": "ym2612"
    },
    {
      "channel": 4,
      "note": 65,
      "start": 75.7258,
      "duration": 0.0134,
      "velocity": 120,
      "chip": "ym2612"
    },
    {
      "channel": 3,
      "note": 72,
      "start": 75.727,
      "duration": 0.0157,
      "velocity": 120,
      "chip": "ym2612"
    },
    {
      "channel": 1,
      "note": 51,
      "start": 75.7362,
      "duration": 0.0153,
      "velocity": 1,
      "chip": "ym2612"
    },
    {
      "channel": 0,
      "note": 40,
      "start": 75.7379,
      "duration": 0.0153,
      "velocity": 115,
      "chip": "ym2612"
    },
    {
      "channel": 4,
      "note": 65,
      "start": 75.7391,
      "duration": 0.0153,
      "velocity": 120,
      "chip": "ym2612"
    },
    {
      "channel": 3,
      "note": 72,
      "start": 75.7427,
      "duration": 0.0129,
      "velocity": 120,
      "chip": "ym2612"
    },
    {
      "channel": 0,
      "note": 40,
      "start": 75.7532,
      "duration": 0.0153,
      "velocity": 115,
      "chip": "ym2612"
    },
    {
      "channel": 4,
      "note": 65,
      "start": 75.7544,
      "duration": 0.0152,
      "velocity": 120,
      "chip": "ym2612"
    },
    {
      "channel": 3,
      "note": 72,
      "start": 75.7556,
      "duration": 0.0153,
      "velocity": 120,
      "chip": "ym2612"
    },
    {
      "channel": 0,
      "note": 41,
      "start": 75.7685,
      "duration": 0.0178,
      "velocity": 115,
      "chip": "ym2612"
    },
    {
      "channel": 4,
      "note": 65,
      "start": 75.7696,
      "duration": 0.0181,
      "velocity": 120,
      "chip": "ym2612"
    },
    {
      "channel": 3,
      "note": 72,
      "start": 75.7709,
      "duration": 0.0183,
      "velocity": 120,
      "chip": "ym2612"
    },
    {
      "channel": 0,
      "note": 36,
      "start": 75.7864,
      "duration": 0.0144,
      "velocity": 115,
      "chip": "ym2612"
    },
    {
      "channel": 4,
      "note": 68,
      "start": 75.7878,
      "duration": 0.0141,
      "velocity": 120,
      "chip": "ym2612"
    },
    {
      "channel": 3,
      "note": 75,
      "start": 75.7892,
      "duration": 0.0139,
      "velocity": 120,
      "chip": "ym2612"
    },
    {
      "channel": 2,
      "note": 56,
      "start": 75.7934,
      "duration": 0.0109,
      "velocity": 100,
      "chip": "ym2612"
    },
    {
      "channel": 1,
      "note": 44,
      "start": 75.7948,
      "duration": 0.0107,
      "velocity": 100,
      "chip": "ym2612"
    },
    {
      "channel": 0,
      "note": 36,
      "start": 75.8007,
      "duration": 0.016,
      "velocity": 115,
      "chip": "ym2612"
    },
    {
      "channel": 4,
      "note": 68,
      "start": 75.802,
      "duration": 0.016,
      "velocity": 120,
      "chip": "ym2612"
    },
    {
      "channel": 3,
      "note": 75,
      "start": 75.8032,
      "duration": 0.016,
      "velocity": 120,
      "chip": "ym2612"
    },
    {
      "channel": 2,
      "note": 56,
      "start": 75.8043,
      "duration": 0.0159,
      "velocity": 100,
      "chip": "ym2612"
    },
    {
      "channel": 1,
      "note": 44,
      "start": 75.8055,
      "duration": 0.0158,
      "velocity": 100,
      "chip": "ym2612"
    },
    {
      "channel": 0,
      "note": 37,
      "start": 75.8168,
      "duration": 0.0161,
      "velocity": 115,
      "chip": "ym2612"
    },
    {
      "channel": 4,
      "note": 68,
      "start": 75.8179,
      "duration": 0.0161,
      "velocity": 120,
      "chip": "ym2612"
    },
    {
      "channel": 3,
      "note": 75,
      "start": 75.8191,
      "duration": 0.0161,
      "velocity": 120,
      "chip": "ym2612"
    },
    {
      "channel": 2,
      "note": 56,
      "start": 75.8202,
      "duration": 0.0161,
      "velocity": 100,
      "chip": "ym2612"
    },
    {
      "channel": 1,
      "note": 44,
      "start": 75.8214,
      "duration": 0.0161,
      "velocity": 100,
      "chip": "ym2612"
    },
    {
      "channel": 0,
      "note": 37,
      "start": 75.8329,
      "duration": 0.0161,
      "velocity": 115,
      "chip": "ym2612"
    },
    {
      "channel": 4,
      "note": 68,
      "start": 75.834,
      "duration": 0.0161,
      "velocity": 120,
      "chip": "ym2612"
    },
    {
      "channel": 3,
      "note": 75,
      "start": 75.8352,
      "duration": 0.0161,
      "velocity": 120,
      "chip": "ym2612"
    },
    {
      "channel": 2,
      "note": 56,
      "start": 75.8363,
      "duration": 0.0161,
      "velocity": 100,
      "chip": "ym2612"
    },
    {
      "channel": 1,
      "note": 44,
      "start": 75.8375,
      "duration": 0.0161,
      "velocity": 100,
      "chip": "ym2612"
    },
    {
      "channel": 0,
      "note": 38,
      "start": 75.849,
      "duration": 0.0161,
      "velocity": 115,
      "chip": "ym2612"
    },
    {
      "channel": 4,
      "note": 68,
      "start": 75.8501,
      "duration": 0.0161,
      "velocity": 120,
      "chip": "ym2612"
    },
    {
      "channel": 3,
      "note": 75,
      "start": 75.8513,
      "duration": 0.0161,
      "velocity": 120,
      "chip": "ym2612"
    },
    {
      "channel": 2,
      "note": 56,
      "start": 75.8524,
      "duration": 0.0161,
      "velocity": 100,
      "chip": "ym2612"
    },
    {
      "channel": 1,
      "note": 44,
      "start": 75.8536,
      "duration": 0.0161,
      "velocity": 100,
      "chip": "ym2612"
    },
    {
      "channel": 0,
      "note": 38,
      "start": 75.8651,
      "duration": 0.0161,
      "velocity": 115,
      "chip": "ym2612"
    },
    {
      "channel": 4,
      "note": 68,
      "start": 75.8662,
      "duration": 0.0161,
      "velocity": 120,
      "chip": "ym2612"
    },
    {
      "channel": 3,
      "note": 75,
      "start": 75.8674,
      "duration": 0.0161,
      "velocity": 120,
      "chip": "ym2612"
    },
    {
      "channel": 2,
      "note": 56,
      "start": 75.8685,
      "duration": 0.0161,
      "velocity": 100,
      "chip": "ym2612"
    },
    {
      "channel": 1,
      "note": 44,
      "start": 75.8696,
      "duration": 0.0161,
      "velocity": 100,
      "chip": "ym2612"
    },
    {
      "channel": 0,
      "note": 39,
      "start": 75.8812,
      "duration": 0.0161,
      "velocity": 115,
      "chip": "ym2612"
    },
    {
      "channel": 4,
      "note": 68,
      "start": 75.8824,
      "duration": 0.0161,
      "velocity": 120,
      "chip": "ym2612"
    },
    {
      "channel": 3,
      "note": 75,
      "start": 75.8835,
      "duration": 0.0161,
      "velocity": 120,
      "chip": "ym2612"
    },
    {
      "channel": 2,
      "note": 56,
      "start": 75.8846,
      "duration": 0.0161,
      "velocity": 100,
      "chip": "ym2612"
    },
    {
      "channel": 1,
      "note": 44,
      "start": 75.8857,
      "duration": 0.0162,
      "velocity": 100,
      "chip": "ym2612"
    },
    {
      "channel": 0,
      "note": 39,
      "start": 75.8973,
      "duration": 0.0161,
      "velocity": 115,
      "chip": "ym2612"
    },
    {
      "channel": 4,
      "note": 68,
      "start": 75.8985,
      "duration": 0.0161,
      "velocity": 120,
      "chip": "ym2612"
    },
    {
      "channel": 3,
      "note": 75,
      "start": 75.8996,
      "duration": 0.0161,
      "velocity": 120,
      "chip": "ym2612"
    },
    {
      "channel": 0,
      "note": 40,
      "start": 75.9134,
      "duration": 0.0161,
      "velocity": 115,
      "chip": "ym2612"
    },
    {
      "channel": 4,
      "note": 68,
      "start": 75.9146,
      "duration": 0.0161,
      "velocity": 120,
      "chip": "ym2612"
    },
    {
      "channel": 3,
      "note": 75,
      "start": 75.9157,
      "duration": 0.0161,
      "velocity": 120,
      "chip": "ym2612"
    },
    {
      "channel": 0,
      "note": 40,
      "start": 75.9295,
      "duration": 0.0161,
      "velocity": 115,
      "chip": "ym2612"
    },
    {
      "channel": 4,
      "note": 68,
      "start": 75.9307,
      "duration": 0.0161,
      "velocity": 120,
      "chip": "ym2612"
    },
    {
      "channel": 3,
      "note": 75,
      "start": 75.9318,
      "duration": 0.0161,
      "velocity": 120,
      "chip": "ym2612"
    },
    {
      "channel": 0,
      "note": 40,
      "start": 75.9456,
      "duration": 0.0161,
      "velocity": 115,
      "chip": "ym2612"
    },
    {
      "channel": 4,
      "note": 68,
      "start": 75.9467,
      "duration": 0.0161,
      "velocity": 120,
      "chip": "ym2612"
    },
    {
      "channel": 3,
      "note": 75,
      "start": 75.9479,
      "duration": 0.0162,
      "velocity": 120,
      "chip": "ym2612"
    },
    {
      "channel": 0,
      "note": 41,
      "start": 75.9617,
      "duration": 0.0161,
      "velocity": 115,
      "chip": "ym2612"
    },
    {
      "channel": 4,
      "note": 68,
      "start": 75.9628,
      "duration": 0.0162,
      "velocity": 120,
      "chip": "ym2612"
    },
    {
      "channel": 3,
      "note": 75,
      "start": 75.9641,
      "duration": 0.0161,
      "velocity": 120,
      "chip": "ym2612"
    },
    {
      "channel": 0,
      "note": 41,
      "start": 75.9778,
      "duration": 0.0162,
      "velocity": 115,
      "chip": "ym2612"
    },
    {
      "channel": 4,
      "note": 68,
      "start": 75.979,
      "duration": 0.0161,
      "velocity": 120,
      "chip": "ym2612"
    },
    {
      "channel": 3,
      "note": 75,
      "start": 75.9801,
      "duration": 0.0162,
      "velocity": 120,
      "chip": "ym2612"
    },
    {
      "channel": 2,
      "note": 56,
      "start": 75.9816,
      "duration": 0.0159,
      "velocity": 100,
      "chip": "ym2612"
    },
    {
      "channel": 1,
      "note": 44,
      "start": 75.9831,
      "duration": 0.0156,
      "velocity": 100,
      "chip": "ym2612"
    },
    {
      "channel": 0,
      "note": 42,
      "start": 75.994,
      "duration": 0.0163,
      "velocity": 115,
      "chip": "ym2612"
    },
    {
      "channel": 4,
      "note": 68,
      "start": 75.9951,
      "duration": 0.0163,
      "velocity": 120,
      "chip": "ym2612"
    },
    {
      "channel": 3,
      "note": 75,
      "start": 75.9964,
      "duration": 0.0163,
      "velocity": 120,
      "chip": "ym2612"
    },
    {
      "channel": 2,
      "note": 56,
      "start": 75.9975,
      "duration": 0.0163,
      "velocity": 100,
      "chip": "ym2612"
    },
    {
      "channel": 1,
      "note": 44,
      "start": 75.9987,
      "duration": 0.0162,
      "velocity": 100,
      "chip": "ym2612"
    },
    {
      "channel": 0,
      "note": 42,
      "start": 76.0103,
      "duration": 0.0158,
      "velocity": 115,
      "chip": "ym2612"
    },
    {
      "channel": 4,
      "note": 68,
      "start": 76.0115,
      "duration": 0.0158,
      "velocity": 120,
      "chip": "ym2612"
    },
    {
      "channel": 3,
      "note": 75,
      "start": 76.0127,
      "duration": 0.0158,
      "velocity": 120,
      "chip": "ym2612"
    },
    {
      "channel": 2,
      "note": 56,
      "start": 76.0138,
      "duration": 0.0158,
      "velocity": 100,
      "chip": "ym2612"
    },
    {
      "channel": 1,
      "note": 44,
      "start": 76.0149,
      "duration": 0.0158,
      "velocity": 100,
      "chip": "ym2612"
    },
    {
      "channel": 0,
      "note": 43,
      "start": 76.0261,
      "duration": 0.0179,
      "velocity": 115,
      "chip": "ym2612"
    },
    {
      "channel": 4,
      "note": 68,
      "start": 76.0273,
      "duration": 0.0179,
      "velocity": 120,
      "chip": "ym2612"
    },
    {
      "channel": 3,
      "note": 75,
      "start": 76.0284,
      "duration": 0.0179,
      "velocity": 120,
      "chip": "ym2612"
    },
    {
      "channel": 2,
      "note": 56,
      "start": 76.0296,
      "duration": 0.0179,
      "velocity": 100,
      "chip": "ym2612"
    },
    {
      "channel": 1,
      "note": 44,
      "start": 76.0307,
      "duration": 0.0179,
      "velocity": 100,
      "chip": "ym2612"
    },
    {
      "channel": 0,
      "note": 43,
      "start": 76.044,
      "duration": 0.0167,
      "velocity": 115,
      "chip": "ym2612"
    },
    {
      "channel": 4,
      "note": 68,
      "start": 76.0451,
      "duration": 0.0167,
      "velocity": 120,
      "chip": "ym2612"
    },
    {
      "channel": 3,
      "note": 75,
      "start": 76.0464,
      "duration": 0.0167,
      "velocity": 120,
      "chip": "ym2612"
    },
    {
      "channel": 2,
      "note": 56,
      "start": 76.0475,
      "duration": 0.0167,
      "velocity": 100,
      "chip": "ym2612"
    },
    {
      "channel": 1,
      "note": 44,
      "start": 76.0486,
      "duration": 0.0167,
      "velocity": 100,
      "chip": "ym2612"
    },
    {
      "channel": 0,
      "note": 44,
      "start": 76.0607,
      "duration": 0.0161,
      "velocity": 115,
      "chip": "ym2612"
    },
    {
      "channel": 4,
      "note": 68,
      "start": 76.0618,
      "duration": 0.0162,
      "velocity": 120,
      "chip": "ym2612"
    },
    {
      "channel": 3,
      "note": 75,
      "start": 76.063,
      "duration": 0.0161,
      "velocity": 120,
      "chip": "ym2612"
    },
    {
      "channel": 2,
      "note": 56,
      "start": 76.0642,
      "duration": 0.0161,
      "velocity": 100,
      "chip": "ym2612"
    },
    {
      "channel": 1,
      "note": 44,
      "start": 76.0653,
      "duration": 0.0161,
      "velocity": 100,
      "chip": "ym2612"
    },
    {
      "channel": 0,
      "note": 44,
      "start": 76.0768,
      "duration": 0.0141,
      "velocity": 115,
      "chip": "ym2612"
    },
    {
      "channel": 4,
      "note": 68,
      "start": 76.078,
      "duration": 0.0141,
      "velocity": 120,
      "chip": "ym2612"
    },
    {
      "channel": 3,
      "note": 75,
      "start": 76.0791,
      "duration": 0.0141,
      "velocity": 120,
      "chip": "ym2612"
    },
    {
      "channel": 2,
      "note": 56,
      "start": 76.0803,
      "duration": 0.0141,
      "velocity": 100,
      "chip": "ym2612"
    },
    {
      "channel": 1,
      "note": 44,
      "start": 76.0814,
      "duration": 0.0141,
      "velocity": 100,
      "chip": "ym2612"
    },
    {
      "channel": 0,
      "note": 44,
      "start": 76.0908,
      "duration": 0.0185,
      "velocity": 115,
      "chip": "ym2612"
    },
    {
      "channel": 4,
      "note": 68,
      "start": 76.092,
      "duration": 0.0185,
      "velocity": 120,
      "chip": "ym2612"
    },
    {
      "channel": 3,
      "note": 75,
      "start": 76.0932,
      "duration": 0.0186,
      "velocity": 120,
      "chip": "ym2612"
    },
    {
      "channel": 0,
      "note": 45,
      "start": 76.1093,
      "duration": 0.0161,
      "velocity": 115,
      "chip": "ym2612"
    },
    {
      "channel": 4,
      "note": 68,
      "start": 76.1105,
      "duration": 0.0161,
      "velocity": 120,
      "chip": "ym2612"
    },
    {
      "channel": 3,
      "note": 75,
      "start": 76.1118,
      "duration": 0.016,
      "velocity": 120,
      "chip": "ym2612"
    },
    {
      "channel": 0,
      "note": 45,
      "start": 76.1254,
      "duration": 0.0134,
      "velocity": 115,
      "chip": "ym2612"
    },
    {
      "channel": 4,
      "note": 68,
      "start": 76.1266,
      "duration": 0.0157,
      "velocity": 120,
      "chip": "ym2612"
    },
    {
      "channel": 3,
      "note": 75,
      "start": 76.1278,
      "duration": 0.0158,
      "velocity": 120,
      "chip": "ym2612"
    },
    {
      "channel": 0,
      "note": 46,
      "start": 76.1388,
      "duration": 0.0161,
      "velocity": 115,
      "chip": "ym2612"
    },
    {
      "channel": 4,
      "note": 68,
      "start": 76.1424,
      "duration": 0.0141,
      "velocity": 120,
      "chip": "ym2612"
    },
    {
      "channel": 3,
      "note": 75,
      "start": 76.1436,
      "duration": 0.014,
      "velocity": 120,
      "chip": "ym2612"
    },
    {
      "channel": 0,
      "note": 46,
      "start": 76.1549,
      "duration": 0.0223,
      "velocity": 115,
      "chip": "ym2612"
    },
    {
      "channel": 4,
      "note": 68,
      "start": 76.1564,
      "duration": 0.022,
      "velocity": 120,
      "chip": "ym2612"
    },
    {
      "channel": 3,
      "note": 75,
      "start": 76.1576,
      "duration": 0.022,
      "velocity": 120,
      "chip": "ym2612"
    },
    {
      "channel": 1,
      "note": 78,
      "start": 76.1754,
      "duration": 0.0116,
      "velocity": 124,
      "chip": "ym2612"
    },
    {
      "channel": 0,
      "note": 47,
      "start": 76.1772,
      "duration": 0.0116,
      "velocity": 115,
      "chip": "ym2612"
    },
    {
      "channel": 4,
      "note": 68,
      "start": 76.1784,
      "duration": 0.0144,
      "velocity": 120,
      "chip": "ym2612"
    },
    {
      "channel": 3,
      "note": 75,
      "start": 76.1796,
      "duration": 0.0144,
      "velocity": 120,
      "chip": "ym2612"
    },
    {
      "channel": 2,
      "note": 56,
      "start": 76.181,
      "duration": 0.0141,
      "velocity": 100,
      "chip": "ym2612"
    },
    {
      "channel": 1,
      "note": 76,
      "start": 76.1871,
      "duration": 0.016,
      "velocity": 124,
      "chip": "ym2612"
    },
    {
      "channel": 0,
      "note": 47,
      "start": 76.1888,
      "duration": 0.0161,
      "velocity": 115,
      "chip": "ym2612"
    },
    {
      "channel": 4,
      "note": 68,
      "start": 76.1927,
      "duration": 0.0157,
      "velocity": 120,
      "chip": "ym2612"
    },
    {
      "channel": 3,
      "note": 75,
      "start": 76.1939,
      "duration": 0.0156,
      "velocity": 120,
      "chip": "ym2612"
    },
    {
      "channel": 2,
      "note": 56,
      "start": 76.1951,
      "duration": 0.0156,
      "velocity": 100,
      "chip": "ym2612"
    },
    {
      "channel": 1,
      "note": 75,
      "start": 76.2031,
      "duration": 0.0161,
      "velocity": 124,
      "chip": "ym2612"
    },
    {
      "channel": 0,
      "note": 47,
      "start": 76.2049,
      "duration": 0.0161,
      "velocity": 115,
      "chip": "ym2612"
    },
    {
      "channel": 4,
      "note": 68,
      "start": 76.2085,
      "duration": 0.0137,
      "velocity": 120,
      "chip": "ym2612"
    },
    {
      "channel": 3,
      "note": 75,
      "start": 76.2096,
      "duration": 0.0141,
      "velocity": 120,
      "chip": "ym2612"
    },
    {
      "channel": 2,
      "note": 56,
      "start": 76.2107,
      "duration": 0.0141,
      "velocity": 100,
      "chip": "ym2612"
    },
    {
      "channel": 1,
      "note": 74,
      "start": 76.2192,
      "duration": 0.0161,
      "velocity": 124,
      "chip": "ym2612"
    },
    {
      "channel": 0,
      "note": 48,
      "start": 76.221,
      "duration": 0.0161,
      "velocity": 115,
      "chip": "ym2612"
    },
    {
      "channel": 4,
      "note": 68,
      "start": 76.2221,
      "duration": 0.0161,
      "velocity": 120,
      "chip": "ym2612"
    },
    {
      "channel": 3,
      "note": 75,
      "start": 76.2237,
      "duration": 0.0186,
      "velocity": 120,
      "chip": "ym2612"
    },
    {
      "channel": 2,
      "note": 56,
      "start": 76.2248,
      "duration": 0.0185,
      "velocity": 100,
      "chip": "ym2612"
    },
    {
      "channel": 1,
      "note": 72,
      "start": 76.2354,
      "duration": 0.0161,
      "velocity": 124,
      "chip": "ym2612"
    },
    {
      "channel": 0,
      "note": 48,
      "start": 76.2371,
      "duration": 0.0161,
      "velocity": 115,
      "chip": "ym2612"
    },
    {
      "channel": 4,
      "note": 68,
      "start": 76.2383,
      "duration": 0.0161,
      "velocity": 120,
      "chip": "ym2612"
    },
    {
      "channel": 3,
      "note": 75,
      "start": 76.2422,
      "duration": 0.0133,
      "velocity": 120,
      "chip": "ym2612"
    },
    {
      "channel": 2,
      "note": 56,
      "start": 76.2433,
      "duration": 0.0161,
      "velocity": 100,
      "chip": "ym2612"
    },
    {
      "channel": 1,
      "note": 71,
      "start": 76.2515,
      "duration": 0.0161,
      "velocity": 124,
      "chip": "ym2612"
    },
    {
      "channel": 0,
      "note": 49,
      "start": 76.2532,
      "duration": 0.0153,
      "velocity": 1,
      "chip": "ym2612"
    },
    {
      "channel": 4,
      "note": 68,
      "start": 76.2544,
      "duration": 0.0153,
      "velocity": 120,
      "chip": "ym2612"
    },
    {
      "channel": 3,
      "note": 75,
      "start": 76.2555,
      "duration": 0.0153,
      "velocity": 120,
      "chip": "ym2612"
    },
    {
      "channel": 2,
      "note": 56,
      "start": 76.2594,
      "duration": 0.0126,
      "velocity": 100,
      "chip": "ym2612"
    },
    {
      "channel": 1,
      "note": 70,
      "start": 76.2676,
      "duration": 0.0161,
      "velocity": 124,
      "chip": "ym2612"
    },
    {
      "channel": 4,
      "note": 68,
      "start": 76.2696,
      "duration": 0.0153,
      "velocity": 120,
      "chip": "ym2612"
    },
    {
      "channel": 3,
      "note": 75,
      "start": 76.2709,
      "duration": 0.0152,
      "velocity": 120,
      "chip": "ym2612"
    },
    {
      "channel": 2,
      "note": 56,
      "start": 76.272,
      "duration": 0.0152,
      "velocity": 100,
      "chip": "ym2612"
    },
    {
      "channel": 1,
      "note": 69,
      "start": 76.2837,
      "duration": 0.0161,
      "velocity": 124,
      "chip": "ym2612"
    },
    {
      "channel": 4,
      "note": 68,
      "start": 76.2849,
      "duration": 0.0161,
      "velocity": 120,
      "chip": "ym2612"
    },
    {
      "channel": 3,
      "note": 75,
      "start": 76.2861,
      "duration": 0.0161,
      "velocity": 120,
      "chip": "ym2612"
    },
    {
      "channel": 1,
      "note": 68,
      "start": 76.2997,
      "duration": 0.0161,
      "velocity": 124,
      "chip": "ym2612"
    },
    {
      "channel": 4,
      "note": 68,
      "start": 76.301,
      "duration": 0.0161,
      "velocity": 120,
      "chip": "ym2612"
    },
    {
      "channel": 3,
      "note": 75,
      "start": 76.3022,
      "duration": 0.0161,
      "velocity": 120,
      "chip": "ym2612"
    },
    {
      "channel": 1,
      "note": 66,
      "start": 76.3158,
      "duration": 0.0161,
      "velocity": 124,
      "chip": "ym2612"
    },
    {
      "channel": 4,
      "note": 68,
      "start": 76.3171,
      "duration": 0.0161,
      "velocity": 120,
      "chip": "ym2612"
    },
    {
      "channel": 3,
      "note": 75,
      "start": 76.3183,
      "duration": 0.0161,
      "velocity": 120,
      "chip": "ym2612"
    },
    {
      "channel": 1,
      "note": 65,
      "start": 76.3319,
      "duration": 0.0161,
      "velocity": 124,
      "chip": "ym2612"
    },
    {
      "channel": 4,
      "note": 68,
      "start": 76.3332,
      "duration": 0.0161,
      "velocity": 120,
      "chip": "ym2612"
    },
    {
      "channel": 3,
      "note": 75,
      "start": 76.3344,
      "duration": 0.0161,
      "velocity": 120,
      "chip": "ym2612"
    },
    {
      "channel": 1,
      "note": 64,
      "start": 76.348,
      "duration": 0.0161,
      "velocity": 124,
      "chip": "ym2612"
    },
    {
      "channel": 4,
      "note": 68,
      "start": 76.3493,
      "duration": 0.0161,
      "velocity": 120,
      "chip": "ym2612"
    },
    {
      "channel": 3,
      "note": 75,
      "start": 76.3505,
      "duration": 0.0161,
      "velocity": 120,
      "chip": "ym2612"
    },
    {
      "channel": 1,
      "note": 62,
      "start": 76.3641,
      "duration": 0.0162,
      "velocity": 124,
      "chip": "ym2612"
    },
    {
      "channel": 4,
      "note": 68,
      "start": 76.3654,
      "duration": 0.0161,
      "velocity": 120,
      "chip": "ym2612"
    },
    {
      "channel": 3,
      "note": 75,
      "start": 76.3666,
      "duration": 0.0161,
      "velocity": 120,
      "chip": "ym2612"
    },
    {
      "channel": 2,
      "note": 56,
      "start": 76.368,
      "duration": 0.0159,
      "velocity": 100,
      "chip": "ym2612"
    },
    {
      "channel": 1,
      "note": 61,
      "start": 76.3803,
      "duration": 0.0161,
      "velocity": 124,
      "chip": "ym2612"
    },
    {
      "channel": 4,
      "note": 68,
      "start": 76.3815,
      "duration": 0.0161,
      "velocity": 120,
      "chip": "ym2612"
    },
    {
      "channel": 3,
      "note": 75,
      "start": 76.3827,
      "duration": 0.0161,
      "velocity": 120,
      "chip": "ym2612"
    },
    {
      "channel": 2,
      "note": 56,
      "start": 76.3839,
      "duration": 0.016,
      "velocity": 100,
      "chip": "ym2612"
    },
    {
      "channel": 1,
      "note": 60,
      "start": 76.3964,
      "duration": 0.0161,
      "velocity": 124,
      "chip": "ym2612"
    },
    {
      "channel": 4,
      "note": 68,
      "start": 76.3976,
      "duration": 0.0161,
      "velocity": 120,
      "chip": "ym2612"
    },
    {
      "channel": 3,
      "note": 75,
      "start": 76.3988,
      "duration": 0.0161,
      "velocity": 120,
      "chip": "ym2612"
    },
    {
      "channel": 2,
      "note": 56,
      "start": 76.3999,
      "duration": 0.0161,
      "velocity": 100,
      "chip": "ym2612"
    },
    {
      "channel": 1,
      "note": 59,
      "start": 76.4124,
      "duration": 0.0161,
      "velocity": 124,
      "chip": "ym2612"
    },
    {
      "channel": 4,
      "note": 68,
      "start": 76.4137,
      "duration": 0.0161,
      "velocity": 120,
      "chip": "ym2612"
    },
    {
      "channel": 3,
      "note": 75,
      "start": 76.4149,
      "duration": 0.0161,
      "velocity": 120,
      "chip": "ym2612"
    },
    {
      "channel": 2,
      "note": 56,
      "start": 76.416,
      "duration": 0.0161,
      "velocity": 100,
      "chip": "ym2612"
    },
    {
      "channel": 1,
      "note": 57,
      "start": 76.4285,
      "duration": 0.0161,
      "velocity": 124,
      "chip": "ym2612"
    },
    {
      "channel": 4,
      "note": 68,
      "start": 76.4298,
      "duration": 0.0161,
      "velocity": 120,
      "chip": "ym2612"
    },
    {
      "channel": 3,
      "note": 75,
      "start": 76.431,
      "duration": 0.0161,
      "velocity": 120,
      "chip": "ym2612"
    },
    {
      "channel": 2,
      "note": 56,
      "start": 76.4321,
      "duration": 0.0161,
      "velocity": 100,
      "chip": "ym2612"
    },
    {
      "channel": 1,
      "note": 56,
      "start": 76.4446,
      "duration": 0.0161,
      "velocity": 124,
      "chip": "ym2612"
    },
    {
      "channel": 4,
      "note": 68,
      "start": 76.4459,
      "duration": 0.0161,
      "velocity": 120,
      "chip": "ym2612"
    },
    {
      "channel": 3,
      "note": 75,
      "start": 76.4471,
      "duration": 0.0161,
      "velocity": 120,
      "chip": "ym2612"
    },
    {
      "channel": 2,
      "note": 56,
      "start": 76.4482,
      "duration": 0.0161,
      "velocity": 100,
      "chip": "ym2612"
    },
    {
      "channel": 1,
      "note": 55,
      "start": 76.4607,
      "duration": 0.0161,
      "velocity": 124,
      "chip": "ym2612"
    },
    {
      "channel": 4,
      "note": 68,
      "start": 76.462,
      "duration": 0.0161,
      "velocity": 120,
      "chip": "ym2612"
    },
    {
      "channel": 3,
      "note": 75,
      "start": 76.4632,
      "duration": 0.0162,
      "velocity": 120,
      "chip": "ym2612"
    },
    {
      "channel": 2,
      "note": 56,
      "start": 76.4643,
      "duration": 0.0161,
      "velocity": 100,
      "chip": "ym2612"
    },
    {
      "channel": 1,
      "note": 53,
      "start": 76.4769,
      "duration": 0.016,
      "velocity": 124,
      "chip": "ym2612"
    },
    {
      "channel": 4,
      "note": 68,
      "start": 76.4782,
      "duration": 0.0161,
      "velocity": 120,
      "chip": "ym2612"
    },
    {
      "channel": 3,
      "note": 75,
      "start": 76.4793,
      "duration": 0.0161,
      "velocity": 120,
      "chip": "ym2612"
    },
    {
      "channel": 1,
      "note": 52,
      "start": 76.4929,
      "duration": 0.0176,
      "velocity": 124,
      "chip": "ym2612"
    },
    {
      "channel": 4,
      "note": 68,
      "start": 76.4943,
      "duration": 0.0176,
      "velocity": 120,
      "chip": "ym2612"
    },
    {
      "channel": 3,
      "note": 75,
      "start": 76.4954,
      "duration": 0.0176,
      "velocity": 120,
      "chip": "ym2612"
    },
    {
      "channel": 1,
      "note": 51,
      "start": 76.5105,
      "duration": 0.0159,
      "velocity": 1,
      "chip": "ym2612"
    },
    {
      "channel": 4,
      "note": 68,
      "start": 76.5118,
      "duration": 0.0159,
      "velocity": 120,
      "chip": "ym2612"
    },
    {
      "channel": 3,
      "note": 75,
      "start": 76.513,
      "duration": 0.0158,
      "velocity": 120,
      "chip": "ym2612"
    },
    {
      "channel": 4,
      "note": 68,
      "start": 76.5277,
      "duration": 0.0154,
      "velocity": 120,
      "chip": "ym2612"
    },
    {
      "channel": 3,
      "note": 75,
      "start": 76.5289,
      "duration": 0.0155,
      "velocity": 120,
      "chip": "ym2612"
    },
    {
      "channel": 4,
      "note": 68,
      "start": 76.5432,
      "duration": 0.0176,
      "velocity": 120,
      "chip": "ym2612"
    },
    {
      "channel": 3,
      "note": 75,
      "start": 76.5443,
      "duration": 0.0176,
      "velocity": 120,
      "chip": "ym2612"
    },
    {
      "channel": 0,
      "note": 36,
      "start": 76.5595,
      "duration": 0.0168,
      "velocity": 115,
      "chip": "ym2612"
    },
    {
      "channel": 4,
      "note": 68,
      "start": 76.5607,
      "duration": 0.0168,
      "velocity": 120,
      "chip": "ym2612"
    },
    {
      "channel": 3,
      "note": 75,
      "start": 76.5619,
      "duration": 0.0168,
      "velocity": 120,
      "chip": "ym2612"
    },
    {
      "channel": 2,
      "note": 56,
      "start": 76.5634,
      "duration": 0.0165,
      "velocity": 100,
      "chip": "ym2612"
    },
    {
      "channel": 1,
      "note": 44,
      "start": 76.5648,
      "duration": 0.0163,
      "velocity": 100,
      "chip": "ym2612"
    },
    {
      "channel": 0,
      "note": 36,
      "start": 76.5763,
      "duration": 0.016,
      "velocity": 115,
      "chip": "ym2612"
    },
    {
      "channel": 4,
      "note": 68,
      "start": 76.5775,
      "duration": 0.016,
      "velocity": 120,
      "chip": "ym2612"
    },
    {
      "channel": 3,
      "note": 75,
      "start": 76.5787,
      "duration": 0.016,
      "velocity": 120,
      "chip": "ym2612"
    },
    {
      "channel": 2,
      "note": 56,
      "start": 76.5799,
      "duration": 0.016,
      "velocity": 100,
      "chip": "ym2612"
    },
    {
      "channel": 1,
      "note": 44,
      "start": 76.5811,
      "duration": 0.0159,
      "velocity": 100,
      "chip": "ym2612"
    },
    {
      "channel": 0,
      "note": 37,
      "start": 76.5924,
      "duration": 0.0134,
      "velocity": 115,
      "chip": "ym2612"
    },
    {
      "channel": 4,
      "note": 68,
      "start": 76.5936,
      "duration": 0.0158,
      "velocity": 120,
      "chip": "ym2612"
    },
    {
      "channel": 3,
      "note": 75,
      "start": 76.5947,
      "duration": 0.0158,
      "velocity": 120,
      "chip": "ym2612"
    },
    {
      "channel": 2,
      "note": 56,
      "start": 76.5959,
      "duration": 0.0158,
      "velocity": 100,
      "chip": "ym2612"
    },
    {
      "channel": 1,
      "note": 44,
      "start": 76.597,
      "duration": 0.0158,
      "velocity": 100,
      "chip": "ym2612"
    },
    {
      "channel": 0,
      "note": 37,
      "start": 76.6057,
      "duration": 0.0161,
      "velocity": 115,
      "chip": "ym2612"
    },
    {
      "channel": 4,
      "note": 68,
      "start": 76.6093,
      "duration": 0.014,
      "velocity": 120,
      "chip": "ym2612"
    },
    {
      "channel": 3,
      "note": 75,
      "start": 76.6105,
      "duration": 0.0141,
      "velocity": 120,
      "chip": "ym2612"
    },
    {
      "channel": 2,
      "note": 56,
      "start": 76.6116,
      "duration": 0.0141,
      "velocity": 100,
      "chip": "ym2612"
    },
    {
      "channel": 1,
      "note": 44,
      "start": 76.6128,
      "duration": 0.0141,
      "velocity": 100,
      "chip": "ym2612"
    },
    {
      "channel": 0,
      "note": 38,
      "start": 76.6218,
      "duration": 0.0161,
      "velocity": 115,
      "chip": "ym2612"
    },
    {
      "channel": 4,
      "note": 68,
      "start": 76.6233,
      "duration": 0.0158,
      "velocity": 120,
      "chip": "ym2612"
    },
    {
      "channel": 3,
      "note": 75,
      "start": 76.6245,
      "duration": 0.0185,
      "velocity": 120,
      "chip": "ym2612"
    },
    {
      "channel": 2,
      "note": 56,
      "start": 76.6257,
      "duration": 0.0185,
      "velocity": 100,
      "chip": "ym2612"
    },
    {
      "channel": 1,
      "note": 44,
      "start": 76.6268,
      "duration": 0.0185,
      "velocity": 100,
      "chip": "ym2612"
    },
    {
      "channel": 0,
      "note": 38,
      "start": 76.6379,
      "duration": 0.0161,
      "velocity": 115,
      "chip": "ym2612"
    },
    {
      "channel": 4,
      "note": 68,
      "start": 76.6391,
      "duration": 0.0161,
      "velocity": 120,
      "chip": "ym2612"
    },
    {
      "channel": 3,
      "note": 75,
      "start": 76.6431,
      "duration": 0.0161,
      "velocity": 120,
      "chip": "ym2612"
    },
    {
      "channel": 2,
      "note": 56,
      "start": 76.6442,
      "duration": 0.0161,
      "velocity": 100,
      "chip": "ym2612"
    },
    {
      "channel": 1,
      "note": 44,
      "start": 76.6453,
      "duration": 0.0161,
      "velocity": 100,
      "chip": "ym2612"
    },
    {
      "channel": 0,
      "note": 39,
      "start": 76.6541,
      "duration": 0.0161,
      "velocity": 115,
      "chip": "ym2612"
    },
    {
      "channel": 4,
      "note": 68,
      "start": 76.6552,
      "duration": 0.0161,
      "velocity": 120,
      "chip": "ym2612"
    },
    {
      "channel": 3,
      "note": 75,
      "start": 76.6591,
      "duration": 0.0134,
      "velocity": 120,
      "chip": "ym2612"
    },
    {
      "channel": 2,
      "note": 56,
      "start": 76.6603,
      "duration": 0.0157,
      "velocity": 100,
      "chip": "ym2612"
    },
    {
      "channel": 1,
      "note": 44,
      "start": 76.6614,
      "duration": 0.0158,
      "velocity": 100,
      "chip": "ym2612"
    },
    {
      "channel": 0,
      "note": 39,
      "start": 76.6702,
      "duration": 0.0161,
      "velocity": 115,
      "chip": "ym2612"
    },
    {
      "channel": 4,
      "note": 68,
      "start": 76.6713,
      "duration": 0.0162,
      "velocity": 120,
      "chip": "ym2612"
    },
    {
      "channel": 3,
      "note": 75,
      "start": 76.6725,
      "duration": 0.0161,
      "velocity": 120,
      "chip": "ym2612"
    },
    {
      "channel": 0,
      "note": 40,
      "start": 76.6863,
      "duration": 0.0161,
      "velocity": 115,
      "chip": "ym2612"
    },
    {
      "channel": 4,
      "note": 68,
      "start": 76.6875,
      "duration": 0.0161,
      "velocity": 120,
      "chip": "ym2612"
    },
    {
      "channel": 3,
      "note": 75,
      "start": 76.6886,
      "duration": 0.0161,
      "velocity": 120,
      "chip": "ym2612"
    },
    {
      "channel": 0,
      "note": 40,
      "start": 76.7023,
      "duration": 0.0161,
      "velocity": 115,
      "chip": "ym2612"
    },
    {
      "channel": 4,
      "note": 68,
      "start": 76.7036,
      "duration": 0.0161,
      "velocity": 120,
      "chip": "ym2612"
    },
    {
      "channel": 3,
      "note": 75,
      "start": 76.7047,
      "duration": 0.0161,
      "velocity": 120,
      "chip": "ym2612"
    },
    {
      "channel": 0,
      "note": 40,
      "start": 76.7184,
      "duration": 0.0161,
      "velocity": 115,
      "chip": "ym2612"
    },
    {
      "channel": 4,
      "note": 68,
      "start": 76.7196,
      "duration": 0.0161,
      "velocity": 120,
      "chip": "ym2612"
    },
    {
      "channel": 3,
      "note": 75,
      "start": 76.7208,
      "duration": 0.0161,
      "velocity": 120,
      "chip": "ym2612"
    },
    {
      "channel": 0,
      "note": 41,
      "start": 76.7345,
      "duration": 0.0179,
      "velocity": 115,
      "chip": "ym2612"
    },
    {
      "channel": 4,
      "note": 68,
      "start": 76.7357,
      "duration": 0.0179,
      "velocity": 120,
      "chip": "ym2612"
    },
    {
      "channel": 3,
      "note": 75,
      "start": 76.7369,
      "duration": 0.0179,
      "velocity": 120,
      "chip": "ym2612"
    },
    {
      "channel": 0,
      "note": 36,
      "start": 76.7524,
      "duration": 0.0144,
      "velocity": 115,
      "chip": "ym2612"
    },
    {
      "channel": 4,
      "note": 68,
      "start": 76.7536,
      "duration": 0.0144,
      "velocity": 120,
      "chip": "ym2612"
    },
    {
      "channel": 3,
      "note": 75,
      "start": 76.7548,
      "duration": 0.0143,
      "velocity": 120,
      "chip": "ym2612"
    },
    {
      "channel": 2,
      "note": 56,
      "start": 76.7566,
      "duration": 0.0137,
      "velocity": 100,
      "chip": "ym2612"
    },
    {
      "channel": 1,
      "note": 44,
      "start": 76.7581,
      "duration": 0.0135,
      "velocity": 100,
      "chip": "ym2612"
    },
    {
      "channel": 0,
      "note": 36,
      "start": 76.7668,
      "duration": 0.0161,
      "velocity": 115,
      "chip": "ym2612"
    },
    {
      "channel": 4,
      "note": 68,
      "start": 76.768,
      "duration": 0.016,
      "velocity": 120,
      "chip": "ym2612"
    },
    {
      "channel": 3,
      "note": 75,
      "start": 76.7691,
      "duration": 0.0161,
      "velocity": 120,
      "chip": "ym2612"
    },
    {
      "channel": 2,
      "note": 56,
      "start": 76.7703,
      "duration": 0.016,
      "velocity": 100,
      "chip": "ym2612"
    },
    {
      "channel": 1,
      "note": 44,
      "start": 76.7716,
      "duration": 0.0159,
      "velocity": 100,
      "chip": "ym2612"
    },
    {
      "channel": 0,
      "note": 37,
      "start": 76.7829,
      "duration": 0.0161,
      "velocity": 115,
      "chip": "ym2612"
    },
    {
      "channel": 4,
      "note": 68,
      "start": 76.784,
      "duration": 0.0161,
      "velocity": 120,
      "chip": "ym2612"
    },
    {
      "channel": 3,
      "note": 75,
      "start": 76.7852,
      "duration": 0.0161,
      "velocity": 120,
      "chip": "ym2612"
    },
    {
      "channel": 2,
      "note": 56,
      "start": 76.7864,
      "duration": 0.0161,
      "velocity": 100,
      "chip": "ym2612"
    },
    {
      "channel": 1,
      "note": 44,
      "start": 76.7875,
      "duration": 0.0161,
      "velocity": 100,
      "chip": "ym2612"
    },
    {
      "channel": 0,
      "note": 37,
      "start": 76.799,
      "duration": 0.0161,
      "velocity": 115,
      "chip": "ym2612"
    },
    {
      "channel": 4,
      "note": 68,
      "start": 76.8001,
      "duration": 0.0162,
      "velocity": 120,
      "chip": "ym2612"
    },
    {
      "channel": 3,
      "note": 75,
      "start": 76.8013,
      "duration": 0.0161,
      "velocity": 120,
      "chip": "ym2612"
    },
    {
      "channel": 2,
      "note": 56,
      "start": 76.8025,
      "duration": 0.0161,
      "velocity": 100,
      "chip": "ym2612"
    },
    {
      "channel": 1,
      "note": 44,
      "start": 76.8036,
      "duration": 0.0161,
      "velocity": 100,
      "chip": "ym2612"
    },
    {
      "channel": 0,
      "note": 38,
      "start": 76.8151,
      "duration": 0.0161,
      "velocity": 115,
      "chip": "ym2612"
    },
    {
      "channel": 4,
      "note": 68,
      "start": 76.8163,
      "duration": 0.0161,
      "velocity": 120,
      "chip": "ym2612"
    },
    {
      "channel": 3,
      "note": 75,
      "start": 76.8174,
      "duration": 0.0161,
      "velocity": 120,
      "chip": "ym2612"
    },
    {
      "channel": 2,
      "note": 56,
      "start": 76.8186,
      "duration": 0.0161,
      "velocity": 100,
      "chip": "ym2612"
    },
    {
      "channel": 1,
      "note": 44,
      "start": 76.8197,
      "duration": 0.0161,
      "velocity": 100,
      "chip": "ym2612"
    },
    {
      "channel": 0,
      "note": 38,
      "start": 76.8312,
      "duration": 0.0161,
      "velocity": 115,
      "chip": "ym2612"
    },
    {
      "channel": 4,
      "note": 68,
      "start": 76.8324,
      "duration": 0.0161,
      "velocity": 120,
      "chip": "ym2612"
    },
    {
      "channel": 3,
      "note": 75,
      "start": 76.8335,
      "duration": 0.0161,
      "velocity": 120,
      "chip": "ym2612"
    },
    {
      "channel": 2,
      "note": 56,
      "start": 76.8346,
      "duration": 0.0161,
      "velocity": 100,
      "chip": "ym2612"
    },
    {
      "channel": 1,
      "note": 44,
      "start": 76.8358,
      "duration": 0.0161,
      "velocity": 100,
      "chip": "ym2612"
    },
    {
      "channel": 0,
      "note": 39,
      "start": 76.8473,
      "duration": 0.0161,
      "velocity": 115,
      "chip": "ym2612"
    },
    {
      "channel": 4,
      "note": 68,
      "start": 76.8485,
      "duration": 0.0161,
      "velocity": 120,
      "chip": "ym2612"
    },
    {
      "channel": 3,
      "note": 75,
      "start": 76.8496,
      "duration": 0.0161,
      "velocity": 120,
      "chip": "ym2612"
    },
    {
      "channel": 2,
      "note": 56,
      "start": 76.8507,
      "duration": 0.0161,
      "velocity": 100,
      "chip": "ym2612"
    },
    {
      "channel": 1,
      "note": 44,
      "start": 76.8519,
      "duration": 0.0161,
      "velocity": 100,
      "chip": "ym2612"
    },
    {
      "channel": 0,
      "note": 39,
      "start": 76.8634,
      "duration": 0.0161,
      "velocity": 115,
      "chip": "ym2612"
    },
    {
      "channel": 4,
      "note": 68,
      "start": 76.8646,
      "duration": 0.0161,
      "velocity": 120,
      "chip": "ym2612"
    },
    {
      "channel": 3,
      "note": 75,
      "start": 76.8657,
      "duration": 0.0162,
      "velocity": 120,
      "chip": "ym2612"
    },
    {
      "channel": 0,
      "note": 40,
      "start": 76.8794,
      "duration": 0.0161,
      "velocity": 115,
      "chip": "ym2612"
    },
    {
      "channel": 4,
      "note": 68,
      "start": 76.8807,
      "duration": 0.0161,
      "velocity": 120,
      "chip": "ym2612"
    },
    {
      "channel": 3,
      "note": 75,
      "start": 76.8819,
      "duration": 0.016,
      "velocity": 120,
      "chip": "ym2612"
    },
    {
      "channel": 0,
      "note": 40,
      "start": 76.8955,
      "duration": 0.0161,
      "velocity": 115,
      "chip": "ym2612"
    },
    {
      "channel": 4,
      "note": 68,
      "start": 76.8967,
      "duration": 0.0161,
      "velocity": 120,
      "chip": "ym2612"
    },
    {
      "channel": 3,
      "note": 75,
      "start": 76.8979,
      "duration": 0.0161,
      "velocity": 120,
      "chip": "ym2612"
    },
    {
      "channel": 0,
      "note": 40,
      "start": 76.9116,
      "duration": 0.0161,
      "velocity": 115,
      "chip": "ym2612"
    },
    {
      "channel": 4,
      "note": 68,
      "start": 76.9128,
      "duration": 0.0161,
      "velocity": 120,
      "chip": "ym2612"
    },
    {
      "channel": 3,
      "note": 75,
      "start": 76.914,
      "duration": 0.0161,
      "velocity": 120,
      "chip": "ym2612"
    },
    {
      "channel": 0,
      "note": 41,
      "start": 76.9277,
      "duration": 0.0196,
      "velocity": 115,
      "chip": "ym2612"
    },
    {
      "channel": 4,
      "note": 68,
      "start": 76.9289,
      "duration": 0.0196,
      "velocity": 120,
      "chip": "ym2612"
    },
    {
      "channel": 3,
      "note": 75,
      "start": 76.9301,
      "duration": 0.0195,
      "velocity": 120,
      "chip": "ym2612"
    },
    {
      "channel": 1,
      "note": 78,
      "start": 76.9456,
      "duration": 0.0143,
      "velocity": 124,
      "chip": "ym2612"
    },
    {
      "channel": 0,
      "note": 41,
      "start": 76.9473,
      "duration": 0.0143,
      "velocity": 115,
      "chip": "ym2612"
    },
    {
      "channel": 4,
      "note": 68,
      "start": 76.9485,
      "duration": 0.0143,
      "velocity": 120,
      "chip": "ym2612"
    },
    {
      "channel": 3,
      "note": 75,
      "start": 76.9497,
      "duration": 0.0144,
      "velocity": 120,
      "chip": "ym2612"
    },
    {
      "channel": 2,
      "note": 56,
      "start": 76.9511,
      "duration": 0.0141,
      "velocity": 100,
      "chip": "ym2612"
    },
    {
      "channel": 1,
      "note": 76,
      "start": 76.9599,
      "duration": 0.0173,
      "velocity": 124,
      "chip": "ym2612"
    },
    {
      "channel": 0,
      "note": 42,
      "start": 76.9616,
      "duration": 0.0174,
      "velocity": 115,
      "chip": "ym2612"
    },
    {
      "channel": 4,
      "note": 68,
      "start": 76.9628,
      "duration": 0.0173,
      "velocity": 120,
      "chip": "ym2612"
    },
    {
      "channel": 3,
      "note": 75,
      "start": 76.9641,
      "duration": 0.0173,
      "velocity": 120,
      "chip": "ym2612"
    },
    {
      "channel": 2,
      "note": 56,
      "start": 76.9652,
      "duration": 0.0173,
      "velocity": 100,
      "chip": "ym2612"
    },
    {
      "channel": 1,
      "note": 75,
      "start": 76.9772,
      "duration": 0.0167,
      "velocity": 124,
      "chip": "ym2612"
    },
    {
      "channel": 0,
      "note": 42,
      "start": 76.979,
      "duration": 0.0167,
      "velocity": 115,
      "chip": "ym2612"
    },
    {
      "channel": 4,
      "note": 68,
      "start": 76.9801,
      "duration": 0.0167,
      "velocity": 120,
      "chip": "ym2612"
    },
    {
      "channel": 3,
      "note": 75,
      "start": 76.9814,
      "duration": 0.0167,
      "velocity": 120,
      "chip": "ym2612"
    },
    {
      "channel": 2,
      "note": 56,
      "start": 76.9825,
      "duration": 0.0167,
      "velocity": 100,
      "chip": "ym2612"
    },
    {
      "channel": 1,
      "note": 74,
      "start": 76.9939,
      "duration": 0.0163,
      "velocity": 124,
      "chip": "ym2612"
    },
    {
      "channel": 0,
      "note": 43,
      "start": 76.9957,
      "duration": 0.0163,
      "velocity": 115,
      "chip": "ym2612"
    },
    {
      "channel": 4,
      "note": 68,
      "start": 76.9968,
      "duration": 0.0163,
      "velocity": 120,
      "chip": "ym2612"
    },
    {
      "channel": 3,
      "note": 75,
      "start": 76.998,
      "duration": 0.0163,
      "velocity": 120,
      "chip": "ym2612"
    },
    {
      "channel": 2,
      "note": 56,
      "start": 76.9992,
      "duration": 0.0163,
      "velocity": 100,
      "chip": "ym2612"
    },
    {
      "channel": 1,
      "note": 72,
      "start": 77.0102,
      "duration": 0.0144,
      "velocity": 124,
      "chip": "ym2612"
    },
    {
      "channel": 0,
      "note": 43,
      "start": 77.012,
      "duration": 0.0144,
      "velocity": 115,
      "chip": "ym2612"
    },
    {
      "channel": 4,
      "note": 68,
      "start": 77.0132,
      "duration": 0.0144,
      "velocity": 120,
      "chip": "ym2612"
    },
    {
      "channel": 3,
      "note": 75,
      "start": 77.0144,
      "duration": 0.0144,
      "velocity": 120,
      "chip": "ym2612"
    },
    {
      "channel": 2,
      "note": 56,
      "start": 77.0155,
      "duration": 0.0143,
      "velocity": 100,
      "chip": "ym2612"
    },
    {
      "channel": 1,
      "note": 71,
      "start": 77.0246,
      "duration": 0.0185,
      "velocity": 124,
      "chip": "ym2612"
    },
    {
      "channel": 0,
      "note": 44,
      "start": 77.0263,
      "duration": 0.0185,
      "velocity": 115,
      "chip": "ym2612"
    },
    {
      "channel": 4,
      "note": 68,
      "start": 77.0275,
      "duration": 0.0185,
      "velocity": 120,
      "chip": "ym2612"
    },
    {
      "channel": 3,
      "note": 75,
      "start": 77.0288,
      "duration": 0.0185,
      "velocity": 120,
      "chip": "ym2612"
    },
    {
      "channel": 2,
      "note": 56,
      "start": 77.0298,
      "duration": 0.0185,
      "velocity": 100,
      "chip": "ym2612"
    },
    {
      "channel": 1,
      "note": 70,
      "start": 77.0431,
      "duration": 0.0161,
      "velocity": 124,
      "chip": "ym2612"
    },
    {
      "channel": 0,
      "note": 44,
      "start": 77.0448,
      "duration": 0.0162,
      "velocity": 115,
      "chip": "ym2612"
    },
    {
      "channel": 4,
      "note": 68,
      "start": 77.0461,
      "duration": 0.0161,
      "velocity": 120,
      "chip": "ym2612"
    },
    {
      "channel": 3,
      "note": 75,
      "start": 77.0473,
      "duration": 0.0161,
      "velocity": 120,
      "chip": "ym2612"
    },
    {
      "channel": 2,
      "note": 56,
      "start": 77.0483,
      "duration": 0.0161,
      "velocity": 100,
      "chip": "ym2612"
    },
    {
      "channel": 1,
      "note": 69,
      "start": 77.0592,
      "duration": 0.0134,
      "velocity": 124,
      "chip": "ym2612"
    },
    {
      "channel": 0,
      "note": 44,
      "start": 77.061,
      "duration": 0.0156,
      "velocity": 115,
      "chip": "ym2612"
    },
    {
      "channel": 4,
      "note": 68,
      "start": 77.0621,
      "duration": 0.0157,
      "velocity": 120,
      "chip": "ym2612"
    },
    {
      "channel": 3,
      "note": 75,
      "start": 77.0634,
      "duration": 0.0157,
      "velocity": 120,
      "chip": "ym2612"
    },
    {
      "channel": 1,
      "note": 68,
      "start": 77.0726,
      "duration": 0.0161,
      "velocity": 124,
      "chip": "ym2612"
    },
    {
      "channel": 0,
      "note": 45,
      "start": 77.0766,
      "duration": 0.0141,
      "velocity": 115,
      "chip": "ym2612"
    },
    {
      "channel": 4,
      "note": 68,
      "start": 77.0778,
      "duration": 0.0141,
      "velocity": 120,
      "chip": "ym2612"
    },
    {
      "channel": 3,
      "note": 75,
      "start": 77.0791,
      "duration": 0.0141,
      "velocity": 120,
      "chip": "ym2612"
    },
    {
      "channel": 1,
      "note": 66,
      "start": 77.0887,
      "duration": 0.0161,
      "velocity": 124,
      "chip": "ym2612"
    },
    {
      "channel": 0,
      "note": 45,
      "start": 77.0907,
      "duration": 0.0186,
      "velocity": 115,
      "chip": "ym2612"
    },
    {
      "channel": 4,
      "note": 68,
      "start": 77.0919,
      "duration": 0.0186,
      "velocity": 120,
      "chip": "ym2612"
    },
    {
      "channel": 3,
      "note": 75,
      "start": 77.0931,
      "duration": 0.0185,
      "velocity": 120,
      "chip": "ym2612"
    },
    {
      "channel": 1,
      "note": 65,
      "start": 77.1048,
      "duration": 0.0161,
      "velocity": 124,
      "chip": "ym2612"
    },
    {
      "channel": 0,
      "note": 46,
      "start": 77.1093,
      "duration": 0.0161,
      "velocity": 115,
      "chip": "ym2612"
    },
    {
      "channel": 4,
      "note": 68,
      "start": 77.1105,
      "duration": 0.016,
      "velocity": 120,
      "chip": "ym2612"
    },
    {
      "channel": 3,
      "note": 75,
      "start": 77.1116,
      "duration": 0.0161,
      "velocity": 120,
      "chip": "ym2612"
    },
    {
      "channel": 1,
      "note": 64,
      "start": 77.1209,
      "duration": 0.0161,
      "velocity": 124,
      "chip": "ym2612"
    },
    {
      "channel": 0,
      "note": 46,
      "start": 77.1254,
      "duration": 0.0175,
      "velocity": 115,
      "chip": "ym2612"
    },
    {
      "channel": 4,
      "note": 68,
      "start": 77.1265,
      "duration": 0.0176,
      "velocity": 120,
      "chip": "ym2612"
    },
    {
      "channel": 3,
      "note": 75,
      "start": 77.1277,
      "duration": 0.0176,
      "velocity": 120,
      "chip": "ym2612"
    },
    {
      "channel": 1,
      "note": 62,
      "start": 77.137,
      "duration": 0.0161,
      "velocity": 124,
      "chip": "ym2612"
    },
    {
      "channel": 0,
      "note": 36,
      "start": 77.1429,
      "duration": 0.012,
      "velocity": 115,
      "chip": "ym2612"
    },
    {
      "channel": 4,
      "note": 68,
      "start": 77.1441,
      "duration": 0.0123,
      "velocity": 120,
      "chip": "ym2612"
    },
    {
      "channel": 3,
      "note": 75,
      "start": 77.1453,
      "duration": 0.0123,
      "velocity": 120,
      "chip": "ym2612"
    },
    {
      "channel": 2,
      "note": 56,
      "start": 77.1467,
      "duration": 0.012,
      "velocity": 100,
      "chip": "ym2612"
    },
    {
      "channel": 1,
      "note": 61,
      "start": 77.1531,
      "duration": 0.0161,
      "velocity": 124,
      "chip": "ym2612"
    },
    {
      "channel": 0,
      "note": 36,
      "start": 77.1549,
      "duration": 0.016,
      "velocity": 115,
      "chip": "ym2612"
    },
    {
      "channel": 4,
      "note": 68,
      "start": 77.1564,
      "duration": 0.0157,
      "velocity": 120,
      "chip": "ym2612"
    },
    {
      "channel": 3,
      "note": 75,
      "start": 77.1576,
      "duration": 0.0185,
      "velocity": 120,
      "chip": "ym2612"
    },
    {
      "channel": 2,
      "note": 56,
      "start": 77.1588,
      "duration": 0.0184,
      "velocity": 100,
      "chip": "ym2612"
    },
    {
      "channel": 1,
      "note": 60,
      "start": 77.1692,
      "duration": 0.0161,
      "velocity": 124,
      "chip": "ym2612"
    },
    {
      "channel": 0,
      "note": 37,
      "start": 77.1709,
      "duration": 0.0161,
      "velocity": 115,
      "chip": "ym2612"
    },
    {
      "channel": 4,
      "note": 68,
      "start": 77.1721,
      "duration": 0.0161,
      "velocity": 120,
      "chip": "ym2612"
    },
    {
      "channel": 3,
      "note": 75,
      "start": 77.176,
      "duration": 0.0161,
      "velocity": 120,
      "chip": "ym2612"
    },
    {
      "channel": 2,
      "note": 56,
      "start": 77.1771,
      "duration": 0.0161,
      "velocity": 100,
      "chip": "ym2612"
    },
    {
      "channel": 1,
      "note": 59,
      "start": 77.1853,
      "duration": 0.0161,
      "velocity": 124,
      "chip": "ym2612"
    },
    {
      "channel": 0,
      "note": 37,
      "start": 77.187,
      "duration": 0.0161,
      "velocity": 115,
      "chip": "ym2612"
    },
    {
      "channel": 4,
      "note": 68,
      "start": 77.1882,
      "duration": 0.0161,
      "velocity": 120,
      "chip": "ym2612"
    },
    {
      "channel": 3,
      "note": 75,
      "start": 77.1922,
      "duration": 0.0133,
      "velocity": 120,
      "chip": "ym2612"
    },
    {
      "channel": 2,
      "note": 56,
      "start": 77.1932,
      "duration": 0.0158,
      "velocity": 100,
      "chip": "ym2612"
    },
    {
      "channel": 1,
      "note": 57,
      "start": 77.2014,
      "duration": 0.0161,
      "velocity": 124,
      "chip": "ym2612"
    },
    {
      "channel": 0,
      "note": 38,
      "start": 77.2031,
      "duration": 0.0161,
      "velocity": 115,
      "chip": "ym2612"
    },
    {
      "channel": 4,
      "note": 68,
      "start": 77.2043,
      "duration": 0.0161,
      "velocity": 120,
      "chip": "ym2612"
    },
    {
      "channel": 3,
      "note": 75,
      "start": 77.2055,
      "duration": 0.0161,
      "velocity": 120,
      "chip": "ym2612"
    },
    {
      "channel": 2,
      "note": 56,
      "start": 77.209,
      "duration": 0.014,
      "velocity": 100,
      "chip": "ym2612"
    },
    {
      "channel": 1,
      "note": 56,
      "start": 77.2175,
      "duration": 0.0161,
      "velocity": 124,
      "chip": "ym2612"
    },
    {
      "channel": 0,
      "note": 38,
      "start": 77.2192,
      "duration": 0.0161,
      "velocity": 115,
      "chip": "ym2612"
    },
    {
      "channel": 4,
      "note": 68,
      "start": 77.2204,
      "duration": 0.0161,
      "velocity": 120,
      "chip": "ym2612"
    },
    {
      "channel": 3,
      "note": 75,
      "start": 77.2216,
      "duration": 0.0161,
      "velocity": 120,
      "chip": "ym2612"
    },
    {
      "channel": 2,
      "note": 56,
      "start": 77.223,
      "duration": 0.0158,
      "velocity": 100,
      "chip": "ym2612"
    },
    {
      "channel": 1,
      "note": 55,
      "start": 77.2336,
      "duration": 0.0161,
      "velocity": 124,
      "chip": "ym2612"
    },
    {
      "channel": 0,
      "note": 39,
      "start": 77.2353,
      "duration": 0.0161,
      "velocity": 115,
      "chip": "ym2612"
    },
    {
      "channel": 4,
      "note": 68,
      "start": 77.2365,
      "duration": 0.0161,
      "velocity": 120,
      "chip": "ym2612"
    },
    {
      "channel": 3,
      "note": 75,
      "start": 77.2377,
      "duration": 0.0161,
      "velocity": 120,
      "chip": "ym2612"
    },
    {
      "channel": 2,
      "note": 56,
      "start": 77.2388,
      "duration": 0.0161,
      "velocity": 100,
      "chip": "ym2612"
    },
    {
      "channel": 1,
      "note": 53,
      "start": 77.2497,
      "duration": 0.0162,
      "velocity": 124,
      "chip": "ym2612"
    },
    {
      "channel": 0,
      "note": 39,
      "start": 77.2514,
      "duration": 0.0162,
      "velocity": 115,
      "chip": "ym2612"
    },
    {
      "channel": 4,
      "note": 68,
      "start": 77.2526,
      "duration": 0.0161,
      "velocity": 120,
      "chip": "ym2612"
    },
    {
      "channel": 3,
      "note": 75,
      "start": 77.2538,
      "duration": 0.0161,
      "velocity": 120,
      "chip": "ym2612"
    },
    {
      "channel": 1,
      "note": 52,
      "start": 77.2658,
      "duration": 0.0161,
      "velocity": 124,
      "chip": "ym2612"
    },
    {
      "channel": 0,
      "note": 40,
      "start": 77.2676,
      "duration": 0.0161,
      "velocity": 115,
      "chip": "ym2612"
    },
    {
      "channel": 4,
      "note": 68,
      "start": 77.2688,
      "duration": 0.0161,
      "velocity": 120,
      "chip": "ym2612"
    },
    {
      "channel": 3,
      "note": 75,
      "start": 77.27,
      "duration": 0.016,
      "velocity": 120,
      "chip": "ym2612"
    },
    {
      "channel": 1,
      "note": 51,
      "start": 77.2819,
      "duration": 0.0153,
      "velocity": 1,
      "chip": "ym2612"
    },
    {
      "channel": 0,
      "note": 40,
      "start": 77.2837,
      "duration": 0.0153,
      "velocity": 115,
      "chip": "ym2612"
    },
    {
      "channel": 4,
      "note": 68,
      "start": 77.2849,
      "duration": 0.0153,
      "velocity": 120,
      "chip": "ym2612"
    },
    {
      "channel": 3,
      "note": 75,
      "start": 77.286,
      "duration": 0.0153,
      "velocity": 120,
      "chip": "ym2612"
    },
    {
      "channel": 0,
      "note": 40,
      "start": 77.2989,
      "duration": 0.0153,
      "velocity": 115,
      "chip": "ym2612"
    },
    {
      "channel": 4,
      "note": 68,
      "start": 77.3001,
      "duration": 0.0153,
      "velocity": 120,
      "chip": "ym2612"
    },
    {
      "channel": 3,
      "note": 75,
      "start": 77.3013,
      "duration": 0.0153,
      "velocity": 120,
      "chip": "ym2612"
    },
    {
      "channel": 0,
      "note": 41,
      "start": 77.3142,
      "duration": 0.0179,
      "velocity": 115,
      "chip": "ym2612"
    },
    {
      "channel": 4,
      "note": 68,
      "start": 77.3154,
      "duration": 0.0181,
      "velocity": 120,
      "chip": "ym2612"
    },
    {
      "channel": 3,
      "note": 75,
      "start": 77.3165,
      "duration": 0.0183,
      "velocity": 120,
      "chip": "ym2612"
    },
    {
      "channel": 0,
      "note": 36,
      "start": 77.332,
      "duration": 0.0144,
      "velocity": 115,
      "chip": "ym2612"
    },
    {
      "channel": 4,
      "note": 60,
      "start": 77.3335,
      "duration": 0.0141,
      "velocity": 120,
      "chip": "ym2612"
    },
    {
      "channel": 3,
      "note": 67,
      "start": 77.3349,
      "duration": 0.0139,
      "velocity": 120,
      "chip": "ym2612"
    },
    {
      "channel": 2,
      "note": 48,
      "start": 77.3364,
      "duration": 0.0137,
      "velocity": 100,
      "chip": "ym2612"
    },
    {
      "channel": 1,
      "note": 36,
      "start": 77.3378,
      "duration": 0.0135,
      "velocity": 100,
      "chip": "ym2612"
    },
    {
      "channel": 0,
      "note": 36,
      "start": 77.3464,
      "duration": 0.016,
      "velocity": 115,
      "chip": "ym2612"
    },
    {
      "channel": 4,
      "note": 60,
      "start": 77.3476,
      "duration": 0.016,
      "velocity": 120,
      "chip": "ym2612"
    },
    {
      "channel": 3,
      "note": 67,
      "start": 77.3488,
      "duration": 0.016,
      "velocity": 120,
      "chip": "ym2612"
    },
    {
      "channel": 2,
      "note": 48,
      "start": 77.35,
      "duration": 0.0159,
      "velocity": 100,
      "chip": "ym2612"
    },
    {
      "channel": 1,
      "note": 36,
      "start": 77.3513,
      "duration": 0.0158,
      "velocity": 100,
      "chip": "ym2612"
    },
    {
      "channel": 0,
      "note": 37,
      "start": 77.3624,
      "duration": 0.0161,
      "velocity": 115,
      "chip": "ym2612"
    },
    {
      "channel": 4,
      "note": 60,
      "start": 77.3637,
      "duration": 0.0161,
      "velocity": 120,
      "chip": "ym2612"
    },
    {
      "channel": 3,
      "note": 67,
      "start": 77.3648,
      "duration": 0.0161,
      "velocity": 120,
      "chip": "ym2612"
    },
    {
      "channel": 2,
      "note": 48,
      "start": 77.366,
      "duration": 0.0161,
      "velocity": 100,
      "chip": "ym2612"
    },
    {
      "channel": 1,
      "note": 36,
      "start": 77.367,
      "duration": 0.0161,
      "velocity": 100,
      "chip": "ym2612"
    },
    {
      "channel": 0,
      "note": 37,
      "start": 77.3785,
      "duration": 0.0162,
      "velocity": 115,
      "chip": "ym2612"
    },
    {
      "channel": 4,
      "note": 60,
      "start": 77.3798,
      "duration": 0.0161,
      "velocity": 120,
      "chip": "ym2612"
    },
    {
      "channel": 3,
      "note": 67,
      "start": 77.3809,
      "duration": 0.0161,
      "velocity": 120,
      "chip": "ym2612"
    },
    {
      "channel": 2,
      "note": 48,
      "start": 77.382,
      "duration": 0.0161,
      "velocity": 100,
      "chip": "ym2612"
    },
    {
      "channel": 1,
      "note": 36,
      "start": 77.3831,
      "duration": 0.0161,
      "velocity": 100,
      "chip": "ym2612"
    },
    {
      "channel": 0,
      "note": 38,
      "start": 77.3947,
      "duration": 0.0161,
      "velocity": 115,
      "chip": "ym2612"
    },
    {
      "channel": 4,
      "note": 60,
      "start": 77.3959,
      "duration": 0.0161,
      "velocity": 120,
      "chip": "ym2612"
    },
    {
      "channel": 3,
      "note": 67,
      "start": 77.397,
      "duration": 0.0161,
      "velocity": 120,
      "chip": "ym2612"
    },
    {
      "channel": 2,
      "note": 48,
      "start": 77.3981,
      "duration": 0.0161,
      "velocity": 100,
      "chip": "ym2612"
    },
    {
      "channel": 1,
      "note": 36,
      "start": 77.3992,
      "duration": 0.0161,
      "velocity": 100,
      "chip": "ym2612"
    },
    {
      "channel": 0,
      "note": 38,
      "start": 77.4108,
      "duration": 0.0161,
      "velocity": 115,
      "chip": "ym2612"
    },
    {
      "channel": 4,
      "note": 60,
      "start": 77.412,
      "duration": 0.0161,
      "velocity": 120,
      "chip": "ym2612"
    },
    {
      "channel": 3,
      "note": 67,
      "start": 77.4131,
      "duration": 0.0161,
      "velocity": 120,
      "chip": "ym2612"
    },
    {
      "channel": 2,
      "note": 48,
      "start": 77.4142,
      "duration": 0.0161,
      "velocity": 100,
      "chip": "ym2612"
    },
    {
      "channel": 1,
      "note": 36,
      "start": 77.4153,
      "duration": 0.0161,
      "velocity": 100,
      "chip": "ym2612"
    },
    {
      "channel": 0,
      "note": 39,
      "start": 77.4269,
      "duration": 0.0171,
      "velocity": 115,
      "chip": "ym2612"
    },
    {
      "channel": 4,
      "note": 60,
      "start": 77.428,
      "duration": 0.0171,
      "velocity": 120,
      "chip": "ym2612"
    },
    {
      "channel": 3,
      "note": 67,
      "start": 77.4292,
      "duration": 0.0171,
      "velocity": 120,
      "chip": "ym2612"
    },
    {
      "channel": 2,
      "note": 48,
      "start": 77.4303,
      "duration": 0.0171,
      "velocity": 100,
      "chip": "ym2612"
    },
    {
      "channel": 1,
      "note": 36,
      "start": 77.4315,
      "duration": 0.0171,
      "velocity": 100,
      "chip": "ym2612"
    },
    {
      "channel": 0,
      "note": 39,
      "start": 77.444,
      "duration": 0.0167,
      "velocity": 115,
      "chip": "ym2612"
    },
    {
      "channel": 4,
      "note": 60,
      "start": 77.4451,
      "duration": 0.0167,
      "velocity": 120,
      "chip": "ym2612"
    },
    {
      "channel": 3,
      "note": 67,
      "start": 77.4463,
      "duration": 0.0167,
      "velocity": 120,
      "chip": "ym2612"
    },
    {
      "channel": 0,
      "note": 40,
      "start": 77.4607,
      "duration": 0.0163,
      "velocity": 115,
      "chip": "ym2612"
    },
    {
      "channel": 4,
      "note": 60,
      "start": 77.4618,
      "duration": 0.0163,
      "velocity": 120,
      "chip": "ym2612"
    },
    {
      "channel": 3,
      "note": 67,
      "start": 77.463,
      "duration": 0.0163,
      "velocity": 120,
      "chip": "ym2612"
    },
    {
      "channel": 0,
      "note": 40,
      "start": 77.477,
      "duration": 0.0146,
      "velocity": 115,
      "chip": "ym2612"
    },
    {
      "channel": 4,
      "note": 60,
      "start": 77.4781,
      "duration": 0.0146,
      "velocity": 120,
      "chip": "ym2612"
    },
    {
      "channel": 3,
      "note": 67,
      "start": 77.4793,
      "duration": 0.0146,
      "velocity": 120,
      "chip": "ym2612"
    },
    {
      "channel": 0,
      "note": 40,
      "start": 77.4916,
      "duration": 0.0186,
      "velocity": 115,
      "chip": "ym2612"
    },
    {
      "channel": 4,
      "note": 60,
      "start": 77.4927,
      "duration": 0.0186,
      "velocity": 120,
      "chip": "ym2612"
    },
    {
      "channel": 3,
      "note": 67,
      "start": 77.4939,
      "duration": 0.0186,
      "velocity": 120,
      "chip": "ym2612"
    },
    {
      "channel": 0,
      "note": 41,
      "start": 77.5102,
      "duration": 0.0161,
      "velocity": 115,
      "chip": "ym2612"
    },
    {
      "channel": 4,
      "note": 60,
      "start": 77.5113,
      "duration": 0.0161,
      "velocity": 120,
      "chip": "ym2612"
    },
    {
      "channel": 3,
      "note": 67,
      "start": 77.5124,
      "duration": 0.0162,
      "velocity": 120,
      "chip": "ym2612"
    },
    {
      "channel": 0,
      "note": 41,
      "start": 77.5263,
      "duration": 0.0157,
      "velocity": 115,
      "chip": "ym2612"
    },
    {
      "channel": 4,
      "note": 60,
      "start": 77.5275,
      "duration": 0.0157,
      "velocity": 120,
      "chip": "ym2612"
    },
    {
      "channel": 3,
      "note": 67,
      "start": 77.5286,
      "duration": 0.0157,
      "velocity": 120,
      "chip": "ym2612"
    },
    {
      "channel": 2,
      "note": 48,
      "start": 77.5301,
      "duration": 0.0155,
      "velocity": 100,
      "chip": "ym2612"
    },
    {
      "channel": 1,
      "note": 36,
      "start": 77.5315,
      "duration": 0.0152,
      "velocity": 100,
      "chip": "ym2612"
    },
    {
      "channel": 0,
      "note": 42,
      "start": 77.542,
      "duration": 0.0137,
      "velocity": 115,
      "chip": "ym2612"
    },
    {
      "channel": 4,
      "note": 60,
      "start": 77.5432,
      "duration": 0.0141,
      "velocity": 120,
      "chip": "ym2612"
    },
    {
      "channel": 3,
      "note": 67,
      "start": 77.5443,
      "duration": 0.0141,
      "velocity": 120,
      "chip": "ym2612"
    },
    {
      "channel": 2,
      "note": 48,
      "start": 77.5455,
      "duration": 0.014,
      "velocity": 100,
      "chip": "ym2612"
    },
    {
      "channel": 1,
      "note": 36,
      "start": 77.5467,
      "duration": 0.0139,
      "velocity": 100,
      "chip": "ym2612"
    },
    {
      "channel": 0,
      "note": 42,
      "start": 77.5557,
      "duration": 0.0161,
      "velocity": 115,
      "chip": "ym2612"
    },
    {
      "channel": 4,
      "note": 60,
      "start": 77.5572,
      "duration": 0.0185,
      "velocity": 120,
      "chip": "ym2612"
    },
    {
      "channel": 3,
      "note": 67,
      "start": 77.5584,
      "duration": 0.0185,
      "velocity": 120,
      "chip": "ym2612"
    },
    {
      "channel": 2,
      "note": 48,
      "start": 77.5595,
      "duration": 0.0185,
      "velocity": 100,
      "chip": "ym2612"
    },
    {
      "channel": 1,
      "note": 36,
      "start": 77.5606,
      "duration": 0.0185,
      "velocity": 100,
      "chip": "ym2612"
    },
    {
      "channel": 0,
      "note": 43,
      "start": 77.5718,
      "duration": 0.0161,
      "velocity": 115,
      "chip": "ym2612"
    },
    {
      "channel": 4,
      "note": 60,
      "start": 77.5758,
      "duration": 0.0134,
      "velocity": 120,
      "chip": "ym2612"
    },
    {
      "channel": 3,
      "note": 67,
      "start": 77.5769,
      "duration": 0.0161,
      "velocity": 120,
      "chip": "ym2612"
    },
    {
      "channel": 2,
      "note": 48,
      "start": 77.578,
      "duration": 0.0161,
      "velocity": 100,
      "chip": "ym2612"
    },
    {
      "channel": 1,
      "note": 36,
      "start": 77.5791,
      "duration": 0.0162,
      "velocity": 100,
      "chip": "ym2612"
    },
    {
      "channel": 0,
      "note": 43,
      "start": 77.5879,
      "duration": 0.0161,
      "velocity": 115,
      "chip": "ym2612"
    },
    {
      "channel": 4,
      "note": 60,
      "start": 77.5891,
      "duration": 0.0161,
      "velocity": 120,
      "chip": "ym2612"
    },
    {
      "channel": 3,
      "note": 67,
      "start": 77.593,
      "duration": 0.0158,
      "velocity": 120,
      "chip": "ym2612"
    },
    {
      "channel": 2,
      "note": 48,
      "start": 77.5941,
      "duration": 0.0157,
      "velocity": 100,
      "chip": "ym2612"
    },
    {
      "channel": 1,
      "note": 36,
      "start": 77.5953,
      "duration": 0.0157,
      "velocity": 100,
      "chip": "ym2612"
    },
    {
      "channel": 0,
      "note": 44,
      "start": 77.604,
      "duration": 0.0161,
      "velocity": 115,
      "chip": "ym2612"
    },
    {
      "channel": 4,
      "note": 60,
      "start": 77.6052,
      "duration": 0.0161,
      "velocity": 120,
      "chip": "ym2612"
    },
    {
      "channel": 3,
      "note": 67,
      "start": 77.6088,
      "duration": 0.0137,
      "velocity": 120,
      "chip": "ym2612"
    },
    {
      "channel": 2,
      "note": 48,
      "start": 77.6098,
      "duration": 0.0141,
      "velocity": 100,
      "chip": "ym2612"
    },
    {
      "channel": 1,
      "note": 36,
      "start": 77.611,
      "duration": 0.0141,
      "velocity": 100,
      "chip": "ym2612"
    },
    {
      "channel": 0,
      "note": 44,
      "start": 77.6201,
      "duration": 0.0161,
      "velocity": 115,
      "chip": "ym2612"
    },
    {
      "channel": 4,
      "note": 60,
      "start": 77.6213,
      "duration": 0.0161,
      "velocity": 120,
      "chip": "ym2612"
    },
    {
      "channel": 3,
      "note": 67,
      "start": 77.6224,
      "duration": 0.0161,
      "velocity": 120,
      "chip": "ym2612"
    },
    {
      "channel": 2,
      "note": 48,
      "start": 77.6239,
      "duration": 0.0185,
      "velocity": 100,
      "chip": "ym2612"
    },
    {
      "channel": 1,
      "note": 36,
      "start": 77.6251,
      "duration": 0.0185,
      "velocity": 100,
      "chip": "ym2612"
    },
    {
      "channel": 0,
      "note": 44,
      "start": 77.6362,
      "duration": 0.0161,
      "velocity": 115,
      "chip": "ym2612"
    },
    {
      "channel": 4,
      "note": 60,
      "start": 77.6374,
      "duration": 0.0161,
      "velocity": 120,
      "chip": "ym2612"
    },
    {
      "channel": 3,
      "note": 67,
      "start": 77.6385,
      "duration": 0.0161,
      "velocity": 120,
      "chip": "ym2612"
    },
    {
      "channel": 0,
      "note": 45,
      "start": 77.6523,
      "duration": 0.0161,
      "velocity": 115,
      "chip": "ym2612"
    },
    {
      "channel": 4,
      "note": 60,
      "start": 77.6535,
      "duration": 0.0161,
      "velocity": 120,
      "chip": "ym2612"
    },
    {
      "channel": 3,
      "note": 67,
      "start": 77.6547,
      "duration": 0.0161,
      "velocity": 120,
      "chip": "ym2612"
    },
    {
      "channel": 0,
      "note": 45,
      "start": 77.6684,
      "duration": 0.0162,
      "velocity": 115,
      "chip": "ym2612"
    },
    {
      "channel": 4,
      "note": 60,
      "start": 77.6696,
      "duration": 0.0161,
      "velocity": 120,
      "chip": "ym2612"
    },
    {
      "channel": 3,
      "note": 67,
      "start": 77.6708,
      "duration": 0.0161,
      "velocity": 120,
      "chip": "ym2612"
    },
    {
      "channel": 0,
      "note": 46,
      "start": 77.6845,
      "duration": 0.0161,
      "velocity": 115,
      "chip": "ym2612"
    },
    {
      "channel": 4,
      "note": 60,
      "start": 77.6857,
      "duration": 0.0161,
      "velocity": 120,
      "chip": "ym2612"
    },
    {
      "channel": 3,
      "note": 67,
      "start": 77.6869,
      "duration": 0.0161,
      "velocity": 120,
      "chip": "ym2612"
    },
    {
      "channel": 0,
      "note": 46,
      "start": 77.7006,
      "duration": 0.0195,
      "velocity": 115,
      "chip": "ym2612"
    },
    {
      "channel": 4,
      "note": 60,
      "start": 77.7018,
      "duration": 0.0196,
      "velocity": 120,
      "chip": "ym2612"
    },
    {
      "channel": 3,
      "note": 67,
      "start": 77.703,
      "duration": 0.0195,
      "velocity": 120,
      "chip": "ym2612"
    },
    {
      "channel": 1,
      "note": 78,
      "start": 77.7184,
      "duration": 0.0144,
      "velocity": 124,
      "chip": "ym2612"
    },
    {
      "channel": 0,
      "note": 47,
      "start": 77.7202,
      "duration": 0.0144,
      "velocity": 115,
      "chip": "ym2612"
    },
    {
      "channel": 4,
      "note": 60,
      "start": 77.7214,
      "duration": 0.0144,
      "velocity": 120,
      "chip": "ym2612"
    },
    {
      "channel": 3,
      "note": 67,
      "start": 77.7225,
      "duration": 0.0144,
      "velocity": 120,
      "chip": "ym2612"
    },
    {
      "channel": 2,
      "note": 48,
      "start": 77.7267,
      "duration": 0.0114,
      "velocity": 100,
      "chip": "ym2612"
    },
    {
      "channel": 1,
      "note": 76,
      "start": 77.7328,
      "duration": 0.016,
      "velocity": 124,
      "chip": "ym2612"
    },
    {
      "channel": 0,
      "note": 47,
      "start": 77.7345,
      "duration": 0.016,
      "velocity": 115,
      "chip": "ym2612"
    },
    {
      "channel": 4,
      "note": 60,
      "start": 77.7357,
      "duration": 0.016,
      "velocity": 120,
      "chip": "ym2612"
    },
    {
      "channel": 3,
      "note": 67,
      "start": 77.7369,
      "duration": 0.016,
      "velocity": 120,
      "chip": "ym2612"
    },
    {
      "channel": 2,
      "note": 48,
      "start": 77.7381,
      "duration": 0.016,
      "velocity": 100,
      "chip": "ym2612"
    },
    {
      "channel": 1,
      "note": 75,
      "start": 77.7488,
      "duration": 0.0161,
      "velocity": 124,
      "chip": "ym2612"
    },
    {
      "channel": 0,
      "note": 47,
      "start": 77.7506,
      "duration": 0.0161,
      "velocity": 115,
      "chip": "ym2612"
    },
    {
      "channel": 4,
      "note": 60,
      "start": 77.7518,
      "duration": 0.0161,
      "velocity": 120,
      "chip": "ym2612"
    },
    {
      "channel": 3,
      "note": 67,
      "start": 77.7529,
      "duration": 0.0161,
      "velocity": 120,
      "chip": "ym2612"
    },
    {
      "channel": 2,
      "note": 48,
      "start": 77.7541,
      "duration": 0.0161,
      "velocity": 100,
      "chip": "ym2612"
    },
    {
      "channel": 1,
      "note": 74,
      "start": 77.7649,
      "duration": 0.0161,
      "velocity": 124,
      "chip": "ym2612"
    },
    {
      "channel": 0,
      "note": 48,
      "start": 77.7667,
      "duration": 0.0161,
      "velocity": 115,
      "chip": "ym2612"
    },
    {
      "channel": 4,
      "note": 60,
      "start": 77.7679,
      "duration": 0.0161,
      "velocity": 120,
      "chip": "ym2612"
    },
    {
      "channel": 3,
      "note": 67,
      "start": 77.769,
      "duration": 0.0162,
      "velocity": 120,
      "chip": "ym2612"
    },
    {
      "channel": 2,
      "note": 48,
      "start": 77.7702,
      "duration": 0.0161,
      "velocity": 100,
      "chip": "ym2612"
    },
    {
      "channel": 1,
      "note": 72,
      "start": 77.781,
      "duration": 0.0161,
      "velocity": 124,
      "chip": "ym2612"
    },
    {
      "channel": 0,
      "note": 48,
      "start": 77.7827,
      "duration": 0.0161,
      "velocity": 115,
      "chip": "ym2612"
    },
    {
      "channel": 4,
      "note": 60,
      "start": 77.784,
      "duration": 0.0161,
      "velocity": 120,
      "chip": "ym2612"
    },
    {
      "channel": 3,
      "note": 67,
      "start": 77.7852,
      "duration": 0.016,
      "velocity": 120,
      "chip": "ym2612"
    },
    {
      "channel": 2,
      "note": 48,
      "start": 77.7863,
      "duration": 0.016,
      "velocity": 100,
      "chip": "ym2612"
    },
    {
      "channel": 1,
      "note": 71,
      "start": 77.7971,
      "duration": 0.0161,
      "velocity": 124,
      "chip": "ym2612"
    },
    {
      "channel": 0,
      "note": 49,
      "start": 77.7988,
      "duration": 0.0153,
      "velocity": 1,
      "chip": "ym2612"
    },
    {
      "channel": 4,
      "note": 60,
      "start": 77.8,
      "duration": 0.0153,
      "velocity": 120,
      "chip": "ym2612"
    },
    {
      "channel": 3,
      "note": 67,
      "start": 77.8012,
      "duration": 0.0153,
      "velocity": 120,
      "chip": "ym2612"
    },
    {
      "channel": 2,
      "note": 48,
      "start": 77.8023,
      "duration": 0.0153,
      "velocity": 100,
      "chip": "ym2612"
    },
    {
      "channel": 1,
      "note": 70,
      "start": 77.8132,
      "duration": 0.0161,
      "velocity": 124,
      "chip": "ym2612"
    },
    {
      "channel": 4,
      "note": 60,
      "start": 77.8154,
      "duration": 0.0152,
      "velocity": 120,
      "chip": "ym2612"
    },
    {
      "channel": 3,
      "note": 67,
      "start": 77.8165,
      "duration": 0.0153,
      "velocity": 120,
      "chip": "ym2612"
    },
    {
      "channel": 2,
      "note": 48,
      "start": 77.8177,
      "duration": 0.0153,
      "velocity": 100,
      "chip": "ym2612"
    },
    {
      "channel": 1,
      "note": 69,
      "start": 77.8293,
      "duration": 0.0161,
      "velocity": 124,
      "chip": "ym2612"
    },
    {
      "channel": 4,
      "note": 60,
      "start": 77.8306,
      "duration": 0.0161,
      "velocity": 120,
      "chip": "ym2612"
    },
    {
      "channel": 3,
      "note": 67,
      "start": 77.8318,
      "duration": 0.0161,
      "velocity": 120,
      "chip": "ym2612"
    },
    {
      "channel": 1,
      "note": 68,
      "start": 77.8454,
      "duration": 0.0161,
      "velocity": 124,
      "chip": "ym2612"
    },
    {
      "channel": 4,
      "note": 60,
      "start": 77.8467,
      "duration": 0.0161,
      "velocity": 120,
      "chip": "ym2612"
    },
    {
      "channel": 3,
      "note": 67,
      "start": 77.8479,
      "duration": 0.0161,
      "velocity": 120,
      "chip": "ym2612"
    },
    {
      "channel": 1,
      "note": 66,
      "start": 77.8615,
      "duration": 0.0162,
      "velocity": 124,
      "chip": "ym2612"
    },
    {
      "channel": 4,
      "note": 60,
      "start": 77.8628,
      "duration": 0.0162,
      "velocity": 120,
      "chip": "ym2612"
    },
    {
      "channel": 3,
      "note": 67,
      "start": 77.864,
      "duration": 0.0161,
      "velocity": 120,
      "chip": "ym2612"
    },
    {
      "channel": 1,
      "note": 65,
      "start": 77.8777,
      "duration": 0.0161,
      "velocity": 124,
      "chip": "ym2612"
    },
    {
      "channel": 4,
      "note": 60,
      "start": 77.8789,
      "duration": 0.0161,
      "velocity": 120,
      "chip": "ym2612"
    },
    {
      "channel": 3,
      "note": 67,
      "start": 77.8801,
      "duration": 0.0161,
      "velocity": 120,
      "chip": "ym2612"
    },
    {
      "channel": 1,
      "note": 64,
      "start": 77.8938,
      "duration": 0.0168,
      "velocity": 124,
      "chip": "ym2612"
    },
    {
      "channel": 4,
      "note": 60,
      "start": 77.895,
      "duration": 0.0203,
      "velocity": 120,
      "chip": "ym2612"
    },
    {
      "channel": 3,
      "note": 67,
      "start": 77.8962,
      "duration": 0.0203,
      "velocity": 120,
      "chip": "ym2612"
    },
    {
      "channel": 1,
      "note": 62,
      "start": 77.9106,
      "duration": 0.0166,
      "velocity": 124,
      "chip": "ym2612"
    },
    {
      "channel": 0,
      "note": 36,
      "start": 77.9141,
      "duration": 0.015,
      "velocity": 115,
      "chip": "ym2612"
    },
    {
      "channel": 4,
      "note": 60,
      "start": 77.9153,
      "duration": 0.0149,
      "velocity": 120,
      "chip": "ym2612"
    },
    {
      "channel": 3,
      "note": 67,
      "start": 77.9165,
      "duration": 0.0149,
      "velocity": 120,
      "chip": "ym2612"
    },
    {
      "channel": 2,
      "note": 48,
      "start": 77.9179,
      "duration": 0.0146,
      "velocity": 100,
      "chip": "ym2612"
    },
    {
      "channel": 1,
      "note": 61,
      "start": 77.9272,
      "duration": 0.0163,
      "velocity": 124,
      "chip": "ym2612"
    },
    {
      "channel": 0,
      "note": 36,
      "start": 77.9291,
      "duration": 0.0162,
      "velocity": 115,
      "chip": "ym2612"
    },
    {
      "channel": 4,
      "note": 60,
      "start": 77.9302,
      "duration": 0.0163,
      "velocity": 120,
      "chip": "ym2612"
    },
    {
      "channel": 3,
      "note": 67,
      "start": 77.9314,
      "duration": 0.0162,
      "velocity": 120,
      "chip": "ym2612"
    },
    {
      "channel": 2,
      "note": 48,
      "start": 77.9326,
      "duration": 0.0162,
      "velocity": 100,
      "chip": "ym2612"
    },
    {
      "channel": 1,
      "note": 60,
      "start": 77.9436,
      "duration": 0.0147,
      "velocity": 124,
      "chip": "ym2612"
    },
    {
      "channel": 0,
      "note": 37,
      "start": 77.9453,
      "duration": 0.0147,
      "velocity": 115,
      "chip": "ym2612"
    },
    {
      "channel": 4,
      "note": 60,
      "start": 77.9465,
      "duration": 0.0147,
      "velocity": 120,
      "chip": "ym2612"
    },
    {
      "channel": 3,
      "note": 67,
      "start": 77.9476,
      "duration": 0.0147,
      "velocity": 120,
      "chip": "ym2612"
    },
    {
      "channel": 2,
      "note": 48,
      "start": 77.9488,
      "duration": 0.0147,
      "velocity": 100,
      "chip": "ym2612"
    },
    {
      "channel": 1,
      "note": 59,
      "start": 77.9583,
      "duration": 0.0187,
      "velocity": 124,
      "chip": "ym2612"
    },
    {
      "channel": 0,
      "note": 37,
      "start": 77.96,
      "duration": 0.0188,
      "velocity": 115,
      "chip": "ym2612"
    },
    {
      "channel": 4,
      "note": 60,
      "start": 77.9612,
      "duration": 0.0187,
      "velocity": 120,
      "chip": "ym2612"
    },
    {
      "channel": 3,
      "note": 67,
      "start": 77.9623,
      "duration": 0.0188,
      "velocity": 120,
      "chip": "ym2612"
    },
    {
      "channel": 2,
      "note": 48,
      "start": 77.9635,
      "duration": 0.0187,
      "velocity": 100,
      "chip": "ym2612"
    },
    {
      "channel": 1,
      "note": 57,
      "start": 77.977,
      "duration": 0.0162,
      "velocity": 124,
      "chip": "ym2612"
    },
    {
      "channel": 0,
      "note": 38,
      "start": 77.9788,
      "duration": 0.0161,
      "velocity": 115,
      "chip": "ym2612"
    },
    {
      "channel": 4,
      "note": 60,
      "start": 77.9799,
      "duration": 0.0162,
      "velocity": 120,
      "chip": "ym2612"
    },
    {
      "channel": 3,
      "note": 67,
      "start": 77.9811,
      "duration": 0.0161,
      "velocity": 120,
      "chip": "ym2612"
    },
    {
      "channel": 2,
      "note": 48,
      "start": 77.9822,
      "duration": 0.0162,
      "velocity": 100,
      "chip": "ym2612"
    },
    {
      "channel": 1,
      "note": 56,
      "start": 77.9931,
      "duration": 0.0157,
      "velocity": 124,
      "chip": "ym2612"
    },
    {
      "channel": 0,
      "note": 38,
      "start": 77.9948,
      "duration": 0.0157,
      "velocity": 115,
      "chip": "ym2612"
    },
    {
      "channel": 4,
      "note": 60,
      "start": 77.9961,
      "duration": 0.0157,
      "velocity": 120,
      "chip": "ym2612"
    },
    {
      "channel": 3,
      "note": 67,
      "start": 77.9972,
      "duration": 0.0157,
      "velocity": 120,
      "chip": "ym2612"
    },
    {
      "channel": 2,
      "note": 48,
      "start": 77.9983,
      "duration": 0.0157,
      "velocity": 100,
      "chip": "ym2612"
    },
    {
      "channel": 1,
      "note": 55,
      "start": 78.0088,
      "duration": 0.0137,
      "velocity": 124,
      "chip": "ym2612"
    },
    {
      "channel": 0,
      "note": 39,
      "start": 78.0105,
      "duration": 0.0141,
      "velocity": 115,
      "chip": "ym2612"
    },
    {
      "channel": 4,
      "note": 60,
      "start": 78.0118,
      "duration": 0.014,
      "velocity": 120,
      "chip": "ym2612"
    },
    {
      "channel": 3,
      "note": 67,
      "start": 78.0129,
      "duration": 0.0141,
      "velocity": 120,
      "chip": "ym2612"
    },
    {
      "channel": 2,
      "note": 48,
      "start": 78.0141,
      "duration": 0.014,
      "velocity": 100,
      "chip": "ym2612"
    },
    {
      "channel": 1,
      "note": 53,
      "start": 78.0226,
      "duration": 0.0161,
      "velocity": 124,
      "chip": "ym2612"
    },
    {
      "channel": 0,
      "note": 39,
      "start": 78.0246,
      "duration": 0.0185,
      "velocity": 115,
      "chip": "ym2612"
    },
    {
      "channel": 4,
      "note": 60,
      "start": 78.0258,
      "duration": 0.0185,
      "velocity": 120,
      "chip": "ym2612"
    },
    {
      "channel": 3,
      "note": 67,
      "start": 78.027,
      "duration": 0.0185,
      "velocity": 120,
      "chip": "ym2612"
    },
    {
      "channel": 1,
      "note": 52,
      "start": 78.0387,
      "duration": 0.0161,
      "velocity": 124,
      "chip": "ym2612"
    },
    {
      "channel": 0,
      "note": 40,
      "start": 78.0431,
      "duration": 0.0161,
      "velocity": 115,
      "chip": "ym2612"
    },
    {
      "channel": 4,
      "note": 60,
      "start": 78.0443,
      "duration": 0.0161,
      "velocity": 120,
      "chip": "ym2612"
    },
    {
      "channel": 3,
      "note": 67,
      "start": 78.0455,
      "duration": 0.0162,
      "velocity": 120,
      "chip": "ym2612"
    },
    {
      "channel": 1,
      "note": 51,
      "start": 78.0548,
      "duration": 0.0153,
      "velocity": 1,
      "chip": "ym2612"
    },
    {
      "channel": 0,
      "note": 40,
      "start": 78.0592,
      "duration": 0.0126,
      "velocity": 115,
      "chip": "ym2612"
    },
    {
      "channel": 4,
      "note": 60,
      "start": 78.0604,
      "duration": 0.0149,
      "velocity": 120,
      "chip": "ym2612"
    },
    {
      "channel": 3,
      "note": 67,
      "start": 78.0616,
      "duration": 0.0149,
      "velocity": 120,
      "chip": "ym2612"
    },
    {
      "channel": 0,
      "note": 40,
      "start": 78.0718,
      "duration": 0.0152,
      "velocity": 115,
      "chip": "ym2612"
    },
    {
      "channel": 4,
      "note": 60,
      "start": 78.0754,
      "duration": 0.0129,
      "velocity": 120,
      "chip": "ym2612"
    },
    {
      "channel": 3,
      "note": 67,
      "start": 78.0765,
      "duration": 0.0132,
      "velocity": 120,
      "chip": "ym2612"
    },
    {
      "channel": 0,
      "note": 41,
      "start": 78.087,
      "duration": 0.0161,
      "velocity": 115,
      "chip": "ym2612"
    },
    {
      "channel": 4,
      "note": 60,
      "start": 78.0882,
      "duration": 0.0161,
      "velocity": 120,
      "chip": "ym2612"
    },
    {
      "channel": 3,
      "note": 67,
      "start": 78.0897,
      "duration": 0.0158,
      "velocity": 120,
      "chip": "ym2612"
    },
    {
      "channel": 0,
      "note": 41,
      "start": 78.1031,
      "duration": 0.0161,
      "velocity": 115,
      "chip": "ym2612"
    },
    {
      "channel": 4,
      "note": 60,
      "start": 78.1043,
      "duration": 0.0161,
      "velocity": 120,
      "chip": "ym2612"
    },
    {
      "channel": 3,
      "note": 67,
      "start": 78.1055,
      "duration": 0.0161,
      "velocity": 120,
      "chip": "ym2612"
    },
    {
      "channel": 2,
      "note": 48,
      "start": 78.1097,
      "duration": 0.0159,
      "velocity": 100,
      "chip": "ym2612"
    },
    {
      "channel": 1,
      "note": 36,
      "start": 78.1111,
      "duration": 0.0156,
      "velocity": 100,
      "chip": "ym2612"
    },
    {
      "channel": 0,
      "note": 42,
      "start": 78.1192,
      "duration": 0.0161,
      "velocity": 115,
      "chip": "ym2612"
    },
    {
      "channel": 4,
      "note": 60,
      "start": 78.1204,
      "duration": 0.0161,
      "velocity": 120,
      "chip": "ym2612"
    },
    {
      "channel": 3,
      "note": 67,
      "start": 78.1216,
      "duration": 0.0161,
      "velocity": 120,
      "chip": "ym2612"
    },
    {
      "channel": 2,
      "note": 48,
      "start": 78.1256,
      "duration": 0.0132,
      "velocity": 100,
      "chip": "ym2612"
    },
    {
      "channel": 1,
      "note": 36,
      "start": 78.1267,
      "duration": 0.0156,
      "velocity": 100,
      "chip": "ym2612"
    },
    {
      "channel": 0,
      "note": 42,
      "start": 78.1354,
      "duration": 0.0161,
      "velocity": 115,
      "chip": "ym2612"
    },
    {
      "channel": 4,
      "note": 60,
      "start": 78.1365,
      "duration": 0.0161,
      "velocity": 120,
      "chip": "ym2612"
    },
    {
      "channel": 3,
      "note": 67,
      "start": 78.1377,
      "duration": 0.0161,
      "velocity": 120,
      "chip": "ym2612"
    },
    {
      "channel": 2,
      "note": 48,
      "start": 78.1388,
      "duration": 0.0161,
      "velocity": 100,
      "chip": "ym2612"
    },
    {
      "channel": 1,
      "note": 36,
      "start": 78.1424,
      "duration": 0.014,
      "velocity": 100,
      "chip": "ym2612"
    },
    {
      "channel": 0,
      "note": 43,
      "start": 78.1515,
      "duration": 0.0161,
      "velocity": 115,
      "chip": "ym2612"
    },
    {
      "channel": 4,
      "note": 60,
      "start": 78.1526,
      "duration": 0.0161,
      "velocity": 120,
      "chip": "ym2612"
    },
    {
      "channel": 3,
      "note": 67,
      "start": 78.1538,
      "duration": 0.0161,
      "velocity": 120,
      "chip": "ym2612"
    },
    {
      "channel": 2,
      "note": 48,
      "start": 78.1549,
      "duration": 0.0161,
      "velocity": 100,
      "chip": "ym2612"
    },
    {
      "channel": 1,
      "note": 36,
      "start": 78.1563,
      "duration": 0.0159,
      "velocity": 100,
      "chip": "ym2612"
    },
    {
      "channel": 0,
      "note": 43,
      "start": 78.1676,
      "duration": 0.0161,
      "velocity": 115,
      "chip": "ym2612"
    },
    {
      "channel": 4,
      "note": 60,
      "start": 78.1688,
      "duration": 0.0161,
      "velocity": 120,
      "chip": "ym2612"
    },
    {
      "channel": 3,
      "note": 67,
      "start": 78.1699,
      "duration": 0.0161,
      "velocity": 120,
      "chip": "ym2612"
    },
    {
      "channel": 2,
      "note": 48,
      "start": 78.171,
      "duration": 0.0161,
      "velocity": 100,
      "chip": "ym2612"
    },
    {
      "channel": 1,
      "note": 36,
      "start": 78.1722,
      "duration": 0.016,
      "velocity": 100,
      "chip": "ym2612"
    },
    {
      "channel": 0,
      "note": 44,
      "start": 78.1837,
      "duration": 0.0161,
      "velocity": 115,
      "chip": "ym2612"
    },
    {
      "channel": 4,
      "note": 60,
      "start": 78.1849,
      "duration": 0.0161,
      "velocity": 120,
      "chip": "ym2612"
    },
    {
      "channel": 3,
      "note": 67,
      "start": 78.186,
      "duration": 0.0161,
      "velocity": 120,
      "chip": "ym2612"
    },
    {
      "channel": 2,
      "note": 48,
      "start": 78.1871,
      "duration": 0.0161,
      "velocity": 100,
      "chip": "ym2612"
    },
    {
      "channel": 1,
      "note": 36,
      "start": 78.1882,
      "duration": 0.0161,
      "velocity": 100,
      "chip": "ym2612"
    },
    {
      "channel": 0,
      "note": 44,
      "start": 78.1997,
      "duration": 0.0161,
      "velocity": 115,
      "chip": "ym2612"
    },
    {
      "channel": 4,
      "note": 60,
      "start": 78.201,
      "duration": 0.0161,
      "velocity": 120,
      "chip": "ym2612"
    },
    {
      "channel": 3,
      "note": 67,
      "start": 78.2021,
      "duration": 0.0161,
      "velocity": 120,
      "chip": "ym2612"
    },
    {
      "channel": 2,
      "note": 48,
      "start": 78.2032,
      "duration": 0.0161,
      "velocity": 100,
      "chip": "ym2612"
    },
    {
      "channel": 1,
      "note": 36,
      "start": 78.2043,
      "duration": 0.0162,
      "velocity": 100,
      "chip": "ym2612"
    },
    {
      "channel": 0,
      "note": 44,
      "start": 78.2158,
      "duration": 0.0161,
      "velocity": 115,
      "chip": "ym2612"
    },
    {
      "channel": 4,
      "note": 60,
      "start": 78.217,
      "duration": 0.0161,
      "velocity": 120,
      "chip": "ym2612"
    },
    {
      "channel": 3,
      "note": 67,
      "start": 78.2182,
      "duration": 0.0161,
      "velocity": 120,
      "chip": "ym2612"
    },
    {
      "channel": 0,
      "note": 45,
      "start": 78.2319,
      "duration": 0.0161,
      "velocity": 115,
      "chip": "ym2612"
    },
    {
      "channel": 4,
      "note": 60,
      "start": 78.2331,
      "duration": 0.0161,
      "velocity": 120,
      "chip": "ym2612"
    },
    {
      "channel": 3,
      "note": 67,
      "start": 78.2343,
      "duration": 0.0161,
      "velocity": 120,
      "chip": "ym2612"
    },
    {
      "channel": 0,
      "note": 45,
      "start": 78.248,
      "duration": 0.0161,
      "velocity": 115,
      "chip": "ym2612"
    },
    {
      "channel": 4,
      "note": 60,
      "start": 78.2492,
      "duration": 0.0161,
      "velocity": 120,
      "chip": "ym2612"
    },
    {
      "channel": 3,
      "note": 67,
      "start": 78.2504,
      "duration": 0.0161,
      "velocity": 120,
      "chip": "ym2612"
    },
    {
      "channel": 0,
      "note": 46,
      "start": 78.2641,
      "duration": 0.0162,
      "velocity": 115,
      "chip": "ym2612"
    },
    {
      "channel": 4,
      "note": 60,
      "start": 78.2653,
      "duration": 0.0161,
      "velocity": 120,
      "chip": "ym2612"
    },
    {
      "channel": 3,
      "note": 67,
      "start": 78.2665,
      "duration": 0.0162,
      "velocity": 120,
      "chip": "ym2612"
    },
    {
      "channel": 0,
      "note": 46,
      "start": 78.2803,
      "duration": 0.0178,
      "velocity": 115,
      "chip": "ym2612"
    },
    {
      "channel": 4,
      "note": 60,
      "start": 78.2814,
      "duration": 0.0179,
      "velocity": 120,
      "chip": "ym2612"
    },
    {
      "channel": 3,
      "note": 67,
      "start": 78.2826,
      "duration": 0.0179,
      "velocity": 120,
      "chip": "ym2612"
    },
    {
      "channel": 0,
      "note": 36,
      "start": 78.2981,
      "duration": 0.0144,
      "velocity": 115,
      "chip": "ym2612"
    },
    {
      "channel": 4,
      "note": 60,
      "start": 78.2993,
      "duration": 0.0143,
      "velocity": 120,
      "chip": "ym2612"
    },
    {
      "channel": 3,
      "note": 67,
      "start": 78.3005,
      "duration": 0.0144,
      "velocity": 120,
      "chip": "ym2612"
    },
    {
      "channel": 2,
      "note": 48,
      "start": 78.302,
      "duration": 0.0141,
      "velocity": 100,
      "chip": "ym2612"
    },
    {
      "channel": 1,
      "note": 36,
      "start": 78.3034,
      "duration": 0.0138,
      "velocity": 100,
      "chip": "ym2612"
    },
    {
      "channel": 0,
      "note": 36,
      "start": 78.3125,
      "duration": 0.016,
      "velocity": 115,
      "chip": "ym2612"
    },
    {
      "channel": 4,
      "note": 60,
      "start": 78.3137,
      "duration": 0.0161,
      "velocity": 120,
      "chip": "ym2612"
    },
    {
      "channel": 3,
      "note": 67,
      "start": 78.3149,
      "duration": 0.016,
      "velocity": 120,
      "chip": "ym2612"
    },
    {
      "channel": 2,
      "note": 48,
      "start": 78.316,
      "duration": 0.016,
      "velocity": 100,
      "chip": "ym2612"
    },
    {
      "channel": 1,
      "note": 36,
      "start": 78.3172,
      "duration": 0.0159,
      "velocity": 100,
      "chip": "ym2612"
    },
    {
      "channel": 0,
      "note": 37,
      "start": 78.3285,
      "duration": 0.0161,
      "velocity": 115,
      "chip": "ym2612"
    },
    {
      "channel": 4,
      "note": 60,
      "start": 78.3298,
      "duration": 0.0161,
      "velocity": 120,
      "chip": "ym2612"
    },
    {
      "channel": 3,
      "note": 67,
      "start": 78.3309,
      "duration": 0.0161,
      "velocity": 120,
      "chip": "ym2612"
    },
    {
      "channel": 2,
      "note": 48,
      "start": 78.332,
      "duration": 0.0161,
      "velocity": 100,
      "chip": "ym2612"
    },
    {
      "channel": 1,
      "note": 36,
      "start": 78.3331,
      "duration": 0.0161,
      "velocity": 100,
      "chip": "ym2612"
    },
    {
      "channel": 0,
      "note": 37,
      "start": 78.3446,
      "duration": 0.0161,
      "velocity": 115,
      "chip": "ym2612"
    },
    {
      "channel": 4,
      "note": 60,
      "start": 78.3459,
      "duration": 0.0161,
      "velocity": 120,
      "chip": "ym2612"
    },
    {
      "channel": 3,
      "note": 67,
      "start": 78.347,
      "duration": 0.0161,
      "velocity": 120,
      "chip": "ym2612"
    },
    {
      "channel": 2,
      "note": 48,
      "start": 78.3481,
      "duration": 0.0161,
      "velocity": 100,
      "chip": "ym2612"
    },
    {
      "channel": 1,
      "note": 36,
      "start": 78.3492,
      "duration": 0.0161,
      "velocity": 100,
      "chip": "ym2612"
    },
    {
      "channel": 0,
      "note": 38,
      "start": 78.3607,
      "duration": 0.0166,
      "velocity": 115,
      "chip": "ym2612"
    },
    {
      "channel": 4,
      "note": 60,
      "start": 78.362,
      "duration": 0.0165,
      "velocity": 120,
      "chip": "ym2612"
    },
    {
      "channel": 3,
      "note": 67,
      "start": 78.3631,
      "duration": 0.0166,
      "velocity": 120,
      "chip": "ym2612"
    },
    {
      "channel": 2,
      "note": 48,
      "start": 78.3642,
      "duration": 0.0165,
      "velocity": 100,
      "chip": "ym2612"
    },
    {
      "channel": 1,
      "note": 36,
      "start": 78.3654,
      "duration": 0.0166,
      "velocity": 100,
      "chip": "ym2612"
    },
    {
      "channel": 0,
      "note": 38,
      "start": 78.3773,
      "duration": 0.0167,
      "velocity": 115,
      "chip": "ym2612"
    },
    {
      "channel": 4,
      "note": 60,
      "start": 78.3785,
      "duration": 0.0167,
      "velocity": 120,
      "chip": "ym2612"
    },
    {
      "channel": 3,
      "note": 67,
      "start": 78.3797,
      "duration": 0.0167,
      "velocity": 120,
      "chip": "ym2612"
    },
    {
      "channel": 2,
      "note": 48,
      "start": 78.3808,
      "duration": 0.0167,
      "velocity": 100,
      "chip": "ym2612"
    },
    {
      "channel": 1,
      "note": 36,
      "start": 78.3819,
      "duration": 0.0167,
      "velocity": 100,
      "chip": "ym2612"
    },
    {
      "channel": 0,
      "note": 39,
      "start": 78.394,
      "duration": 0.0163,
      "velocity": 115,
      "chip": "ym2612"
    },
    {
      "channel": 4,
      "note": 60,
      "start": 78.3951,
      "duration": 0.0163,
      "velocity": 120,
      "chip": "ym2612"
    },
    {
      "channel": 3,
      "note": 67,
      "start": 78.3964,
      "duration": 0.0163,
      "velocity": 120,
      "chip": "ym2612"
    },
    {
      "channel": 2,
      "note": 48,
      "start": 78.3974,
      "duration": 0.0163,
      "velocity": 100,
      "chip": "ym2612"
    },
    {
      "channel": 1,
      "note": 36,
      "start": 78.3986,
      "duration": 0.0163,
      "velocity": 100,
      "chip": "ym2612"
    },
    {
      "channel": 0,
      "note": 39,
      "start": 78.4103,
      "duration": 0.0149,
      "velocity": 115,
      "chip": "ym2612"
    },
    {
      "channel": 4,
      "note": 60,
      "start": 78.4115,
      "duration": 0.0149,
      "velocity": 120,
      "chip": "ym2612"
    },
    {
      "channel": 3,
      "note": 67,
      "start": 78.4127,
      "duration": 0.0149,
      "velocity": 120,
      "chip": "ym2612"
    },
    {
      "channel": 0,
      "note": 40,
      "start": 78.4252,
      "duration": 0.0188,
      "velocity": 115,
      "chip": "ym2612"
    },
    {
      "channel": 4,
      "note": 60,
      "start": 78.4264,
      "duration": 0.0188,
      "velocity": 120,
      "chip": "ym2612"
    },
    {
      "channel": 3,
      "note": 67,
      "start": 78.4275,
      "duration": 0.0188,
      "velocity": 120,
      "chip": "ym2612"
    },
    {
      "channel": 0,
      "note": 40,
      "start": 78.4439,
      "duration": 0.0162,
      "velocity": 115,
      "chip": "ym2612"
    },
    {
      "channel": 4,
      "note": 60,
      "start": 78.4451,
      "duration": 0.0162,
      "velocity": 120,
      "chip": "ym2612"
    },
    {
      "channel": 3,
      "note": 67,
      "start": 78.4464,
      "duration": 0.0161,
      "velocity": 120,
      "chip": "ym2612"
    },
    {
      "channel": 0,
      "note": 40,
      "start": 78.4601,
      "duration": 0.0157,
      "velocity": 115,
      "chip": "ym2612"
    },
    {
      "channel": 4,
      "note": 60,
      "start": 78.4613,
      "duration": 0.0157,
      "velocity": 120,
      "chip": "ym2612"
    },
    {
      "channel": 3,
      "note": 67,
      "start": 78.4624,
      "duration": 0.0158,
      "velocity": 120,
      "chip": "ym2612"
    },
    {
      "channel": 0,
      "note": 41,
      "start": 78.4758,
      "duration": 0.0175,
      "velocity": 115,
      "chip": "ym2612"
    },
    {
      "channel": 4,
      "note": 60,
      "start": 78.477,
      "duration": 0.0175,
      "velocity": 120,
      "chip": "ym2612"
    },
    {
      "channel": 3,
      "note": 67,
      "start": 78.4782,
      "duration": 0.0174,
      "velocity": 120,
      "chip": "ym2612"
    },
    {
      "channel": 1,
      "note": 78,
      "start": 78.4916,
      "duration": 0.0141,
      "velocity": 124,
      "chip": "ym2612"
    },
    {
      "channel": 0,
      "note": 41,
      "start": 78.4933,
      "duration": 0.0168,
      "velocity": 115,
      "chip": "ym2612"
    },
    {
      "channel": 4,
      "note": 60,
      "start": 78.4945,
      "duration": 0.0168,
      "velocity": 120,
      "chip": "ym2612"
    },
    {
      "channel": 3,
      "note": 67,
      "start": 78.4957,
      "duration": 0.0168,
      "velocity": 120,
      "chip": "ym2612"
    },
    {
      "channel": 2,
      "note": 48,
      "start": 78.4971,
      "duration": 0.0166,
      "velocity": 100,
      "chip": "ym2612"
    },
    {
      "channel": 1,
      "note": 76,
      "start": 78.5056,
      "duration": 0.016,
      "velocity": 124,
      "chip": "ym2612"
    },
    {
      "channel": 0,
      "note": 42,
      "start": 78.5101,
      "duration": 0.016,
      "velocity": 115,
      "chip": "ym2612"
    },
    {
      "channel": 4,
      "note": 60,
      "start": 78.5113,
      "duration": 0.016,
      "velocity": 120,
      "chip": "ym2612"
    },
    {
      "channel": 3,
      "note": 67,
      "start": 78.5124,
      "duration": 0.016,
      "velocity": 120,
      "chip": "ym2612"
    },
    {
      "channel": 2,
      "note": 48,
      "start": 78.5137,
      "duration": 0.016,
      "velocity": 100,
      "chip": "ym2612"
    },
    {
      "channel": 1,
      "note": 75,
      "start": 78.5217,
      "duration": 0.0161,
      "velocity": 124,
      "chip": "ym2612"
    },
    {
      "channel": 0,
      "note": 42,
      "start": 78.5261,
      "duration": 0.0157,
      "velocity": 115,
      "chip": "ym2612"
    },
    {
      "channel": 4,
      "note": 60,
      "start": 78.5273,
      "duration": 0.0157,
      "velocity": 120,
      "chip": "ym2612"
    },
    {
      "channel": 3,
      "note": 67,
      "start": 78.5285,
      "duration": 0.0158,
      "velocity": 120,
      "chip": "ym2612"
    },
    {
      "channel": 2,
      "note": 48,
      "start": 78.5296,
      "duration": 0.0157,
      "velocity": 100,
      "chip": "ym2612"
    },
    {
      "channel": 1,
      "note": 74,
      "start": 78.5378,
      "duration": 0.0161,
      "velocity": 124,
      "chip": "ym2612"
    },
    {
      "channel": 0,
      "note": 43,
      "start": 78.5418,
      "duration": 0.0137,
      "velocity": 115,
      "chip": "ym2612"
    },
    {
      "channel": 4,
      "note": 60,
      "start": 78.5431,
      "duration": 0.0141,
      "velocity": 120,
      "chip": "ym2612"
    },
    {
      "channel": 3,
      "note": 67,
      "start": 78.5443,
      "duration": 0.0141,
      "velocity": 120,
      "chip": "ym2612"
    },
    {
      "channel": 2,
      "note": 48,
      "start": 78.5454,
      "duration": 0.0141,
      "velocity": 100,
      "chip": "ym2612"
    },
    {
      "channel": 1,
      "note": 72,
      "start": 78.5539,
      "duration": 0.0161,
      "velocity": 124,
      "chip": "ym2612"
    },
    {
      "channel": 0,
      "note": 43,
      "start": 78.5556,
      "duration": 0.0162,
      "velocity": 115,
      "chip": "ym2612"
    },
    {
      "channel": 4,
      "note": 60,
      "start": 78.5571,
      "duration": 0.0186,
      "velocity": 120,
      "chip": "ym2612"
    },
    {
      "channel": 3,
      "note": 67,
      "start": 78.5583,
      "duration": 0.0185,
      "velocity": 120,
      "chip": "ym2612"
    },
    {
      "channel": 2,
      "note": 48,
      "start": 78.5595,
      "duration": 0.0185,
      "velocity": 100,
      "chip": "ym2612"
    },
    {
      "channel": 1,
      "note": 71,
      "start": 78.57,
      "duration": 0.0161,
      "velocity": 124,
      "chip": "ym2612"
    },
    {
      "channel": 0,
      "note": 44,
      "start": 78.5717,
      "duration": 0.0161,
      "velocity": 115,
      "chip": "ym2612"
    },
    {
      "channel": 4,
      "note": 60,
      "start": 78.5757,
      "duration": 0.0133,
      "velocity": 120,
      "chip": "ym2612"
    },
    {
      "channel": 3,
      "note": 67,
      "start": 78.5768,
      "duration": 0.0161,
      "velocity": 120,
      "chip": "ym2612"
    },
    {
      "channel": 2,
      "note": 48,
      "start": 78.578,
      "duration": 0.0161,
      "velocity": 100,
      "chip": "ym2612"
    },
    {
      "channel": 1,
      "note": 70,
      "start": 78.5861,
      "duration": 0.0162,
      "velocity": 124,
      "chip": "ym2612"
    },
    {
      "channel": 0,
      "note": 44,
      "start": 78.5878,
      "duration": 0.0161,
      "velocity": 115,
      "chip": "ym2612"
    },
    {
      "channel": 4,
      "note": 60,
      "start": 78.589,
      "duration": 0.0162,
      "velocity": 120,
      "chip": "ym2612"
    },
    {
      "channel": 3,
      "note": 67,
      "start": 78.5929,
      "duration": 0.0158,
      "velocity": 120,
      "chip": "ym2612"
    },
    {
      "channel": 2,
      "note": 48,
      "start": 78.5941,
      "duration": 0.0157,
      "velocity": 100,
      "chip": "ym2612"
    },
    {
      "channel": 1,
      "note": 69,
      "start": 78.6022,
      "duration": 0.0161,
      "velocity": 124,
      "chip": "ym2612"
    },
    {
      "channel": 0,
      "note": 44,
      "start": 78.6039,
      "duration": 0.0161,
      "velocity": 115,
      "chip": "ym2612"
    },
    {
      "channel": 4,
      "note": 60,
      "start": 78.6051,
      "duration": 0.0161,
      "velocity": 120,
      "chip": "ym2612"
    },
    {
      "channel": 3,
      "note": 67,
      "start": 78.6087,
      "duration": 0.0137,
      "velocity": 120,
      "chip": "ym2612"
    },
    {
      "channel": 1,
      "note": 68,
      "start": 78.6183,
      "duration": 0.0161,
      "velocity": 124,
      "chip": "ym2612"
    },
    {
      "channel": 0,
      "note": 45,
      "start": 78.62,
      "duration": 0.0161,
      "velocity": 115,
      "chip": "ym2612"
    },
    {
      "channel": 4,
      "note": 60,
      "start": 78.6212,
      "duration": 0.0161,
      "velocity": 120,
      "chip": "ym2612"
    },
    {
      "channel": 3,
      "note": 67,
      "start": 78.6224,
      "duration": 0.0161,
      "velocity": 120,
      "chip": "ym2612"
    },
    {
      "channel": 1,
      "note": 66,
      "start": 78.6344,
      "duration": 0.0161,
      "velocity": 124,
      "chip": "ym2612"
    },
    {
      "channel": 0,
      "note": 45,
      "start": 78.6361,
      "duration": 0.0161,
      "velocity": 115,
      "chip": "ym2612"
    },
    {
      "channel": 4,
      "note": 60,
      "start": 78.6373,
      "duration": 0.0161,
      "velocity": 120,
      "chip": "ym2612"
    },
    {
      "channel": 3,
      "note": 67,
      "start": 78.6385,
      "duration": 0.0161,
      "velocity": 120,
      "chip": "ym2612"
    },
    {
      "channel": 1,
      "note": 65,
      "start": 78.6505,
      "duration": 0.0161,
      "velocity": 124,
      "chip": "ym2612"
    },
    {
      "channel": 0,
      "note": 46,
      "start": 78.6522,
      "duration": 0.0161,
      "velocity": 115,
      "chip": "ym2612"
    },
    {
      "channel": 4,
      "note": 60,
      "start": 78.6534,
      "duration": 0.0161,
      "velocity": 120,
      "chip": "ym2612"
    },
    {
      "channel": 3,
      "note": 67,
      "start": 78.6546,
      "duration": 0.0161,
      "velocity": 120,
      "chip": "ym2612"
    },
    {
      "channel": 1,
      "note": 64,
      "start": 78.6666,
      "duration": 0.0161,
      "velocity": 124,
      "chip": "ym2612"
    },
    {
      "channel": 0,
      "note": 46,
      "start": 78.6683,
      "duration": 0.0161,
      "velocity": 115,
      "chip": "ym2612"
    },
    {
      "channel": 4,
      "note": 60,
      "start": 78.6695,
      "duration": 0.0161,
      "velocity": 120,
      "chip": "ym2612"
    },
    {
      "channel": 3,
      "note": 67,
      "start": 78.6707,
      "duration": 0.0162,
      "velocity": 120,
      "chip": "ym2612"
    },
    {
      "channel": 1,
      "note": 62,
      "start": 78.6827,
      "duration": 0.0161,
      "velocity": 124,
      "chip": "ym2612"
    },
    {
      "channel": 0,
      "note": 47,
      "start": 78.6844,
      "duration": 0.0161,
      "velocity": 115,
      "chip": "ym2612"
    },
    {
      "channel": 4,
      "note": 60,
      "start": 78.6856,
      "duration": 0.0161,
      "velocity": 120,
      "chip": "ym2612"
    },
    {
      "channel": 3,
      "note": 67,
      "start": 78.6868,
      "duration": 0.016,
      "velocity": 120,
      "chip": "ym2612"
    },
    {
      "channel": 2,
      "note": 48,
      "start": 78.6883,
      "duration": 0.0158,
      "velocity": 100,
      "chip": "ym2612"
    },
    {
      "channel": 1,
      "note": 61,
      "start": 78.6988,
      "duration": 0.0161,
      "velocity": 124,
      "chip": "ym2612"
    },
    {
      "channel": 0,
      "note": 47,
      "start": 78.7005,
      "duration": 0.0161,
      "velocity": 115,
      "chip": "ym2612"
    },
    {
      "channel": 4,
      "note": 60,
      "start": 78.7017,
      "duration": 0.0161,
      "velocity": 120,
      "chip": "ym2612"
    },
    {
      "channel": 3,
      "note": 67,
      "start": 78.7029,
      "duration": 0.0161,
      "velocity": 120,
      "chip": "ym2612"
    },
    {
      "channel": 2,
      "note": 48,
      "start": 78.7041,
      "duration": 0.016,
      "velocity": 100,
      "chip": "ym2612"
    },
    {
      "channel": 1,
      "note": 60,
      "start": 78.7149,
      "duration": 0.0161,
      "velocity": 124,
      "chip": "ym2612"
    },
    {
      "channel": 0,
      "note": 47,
      "start": 78.7166,
      "duration": 0.0161,
      "velocity": 115,
      "chip": "ym2612"
    },
    {
      "channel": 4,
      "note": 60,
      "start": 78.7178,
      "duration": 0.0161,
      "velocity": 120,
      "chip": "ym2612"
    },
    {
      "channel": 3,
      "note": 67,
      "start": 78.719,
      "duration": 0.0161,
      "velocity": 120,
      "chip": "ym2612"
    },
    {
      "channel": 2,
      "note": 48,
      "start": 78.7201,
      "duration": 0.0161,
      "velocity": 100,
      "chip": "ym2612"
    },
    {
      "channel": 1,
      "note": 59,
      "start": 78.731,
      "duration": 0.0161,
      "velocity": 124,
      "chip": "ym2612"
    },
    {
      "channel": 0,
      "note": 48,
      "start": 78.7327,
      "duration": 0.0162,
      "velocity": 115,
      "chip": "ym2612"
    },
    {
      "channel": 4,
      "note": 60,
      "start": 78.7339,
      "duration": 0.0161,
      "velocity": 120,
      "chip": "ym2612"
    },
    {
      "channel": 3,
      "note": 67,
      "start": 78.735,
      "duration": 0.0162,
      "velocity": 120,
      "chip": "ym2612"
    },
    {
      "channel": 2,
      "note": 48,
      "start": 78.7362,
      "duration": 0.0161,
      "velocity": 100,
      "chip": "ym2612"
    },
    {
      "channel": 1,
      "note": 57,
      "start": 78.7471,
      "duration": 0.0161,
      "velocity": 124,
      "chip": "ym2612"
    },
    {
      "channel": 0,
      "note": 48,
      "start": 78.7488,
      "duration": 0.0161,
      "velocity": 115,
      "chip": "ym2612"
    },
    {
      "channel": 4,
      "note": 60,
      "start": 78.75,
      "duration": 0.0161,
      "velocity": 120,
      "chip": "ym2612"
    },
    {
      "channel": 3,
      "note": 67,
      "start": 78.7512,
      "duration": 0.0161,
      "velocity": 120,
      "chip": "ym2612"
    },
    {
      "channel": 2,
      "note": 48,
      "start": 78.7523,
      "duration": 0.0161,
      "velocity": 100,
      "chip": "ym2612"
    },
    {
      "channel": 1,
      "note": 56,
      "start": 78.7632,
      "duration": 0.0161,
      "velocity": 124,
      "chip": "ym2612"
    },
    {
      "channel": 0,
      "note": 49,
      "start": 78.7649,
      "duration": 0.0153,
      "velocity": 1,
      "chip": "ym2612"
    },
    {
      "channel": 4,
      "note": 60,
      "start": 78.7661,
      "duration": 0.0153,
      "velocity": 120,
      "chip": "ym2612"
    },
    {
      "channel": 3,
      "note": 67,
      "start": 78.7673,
      "duration": 0.0153,
      "velocity": 120,
      "chip": "ym2612"
    },
    {
      "channel": 2,
      "note": 48,
      "start": 78.7684,
      "duration": 0.0153,
      "velocity": 100,
      "chip": "ym2612"
    },
    {
      "channel": 1,
      "note": 55,
      "start": 78.7793,
      "duration": 0.0161,
      "velocity": 124,
      "chip": "ym2612"
    },
    {
      "channel": 4,
      "note": 60,
      "start": 78.7814,
      "duration": 0.0153,
      "velocity": 120,
      "chip": "ym2612"
    },
    {
      "channel": 3,
      "note": 67,
      "start": 78.7826,
      "duration": 0.0153,
      "velocity": 120,
      "chip": "ym2612"
    },
    {
      "channel": 2,
      "note": 48,
      "start": 78.7837,
      "duration": 0.0153,
      "velocity": 100,
      "chip": "ym2612"
    },
    {
      "channel": 1,
      "note": 53,
      "start": 78.7954,
      "duration": 0.0161,
      "velocity": 124,
      "chip": "ym2612"
    },
    {
      "channel": 4,
      "note": 60,
      "start": 78.7967,
      "duration": 0.0161,
      "velocity": 120,
      "chip": "ym2612"
    },
    {
      "channel": 3,
      "note": 67,
      "start": 78.7978,
      "duration": 0.0162,
      "velocity": 120,
      "chip": "ym2612"
    },
    {
      "channel": 1,
      "note": 52,
      "start": 78.8115,
      "duration": 0.0161,
      "velocity": 124,
      "chip": "ym2612"
    },
    {
      "channel": 4,
      "note": 60,
      "start": 78.8128,
      "duration": 0.0161,
      "velocity": 120,
      "chip": "ym2612"
    },
    {
      "channel": 3,
      "note": 67,
      "start": 78.814,
      "duration": 0.016,
      "velocity": 120,
      "chip": "ym2612"
    },
    {
      "channel": 1,
      "note": 51,
      "start": 78.8276,
      "duration": 0.0155,
      "velocity": 1,
      "chip": "ym2612"
    },
    {
      "channel": 4,
      "note": 60,
      "start": 78.8289,
      "duration": 0.0155,
      "velocity": 120,
      "chip": "ym2612"
    },
    {
      "channel": 3,
      "note": 67,
      "start": 78.83,
      "duration": 0.0155,
      "velocity": 120,
      "chip": "ym2612"
    },
    {
      "channel": 4,
      "note": 60,
      "start": 78.8444,
      "duration": 0.0158,
      "velocity": 120,
      "chip": "ym2612"
    },
    {
      "channel": 3,
      "note": 67,
      "start": 78.8455,
      "duration": 0.0159,
      "velocity": 120,
      "chip": "ym2612"
    },
    {
      "channel": 4,
      "note": 60,
      "start": 78.8602,
      "duration": 0.02,
      "velocity": 120,
      "chip": "ym2612"
    },
    {
      "channel": 3,
      "note": 67,
      "start": 78.8614,
      "duration": 0.0202,
      "velocity": 120,
      "chip": "ym2612"
    },
    {
      "channel": 0,
      "note": 36,
      "start": 78.8788,
      "duration": 0.0134,
      "velocity": 115,
      "chip": "ym2612"
    },
    {
      "channel": 4,
      "note": 63,
      "start": 78.8802,
      "duration": 0.0132,
      "velocity": 120,
      "chip": "ym2612"
    },
    {
      "channel": 3,
      "note": 70,
      "start": 78.8816,
      "duration": 0.013,
      "velocity": 120,
      "chip": "ym2612"
    },
    {
      "channel": 2,
      "note": 51,
      "start": 78.8831,
      "duration": 0.0127,
      "velocity": 100,
      "chip": "ym2612"
    },
    {
      "channel": 1,
      "note": 39,
      "start": 78.8845,
      "duration": 0.0124,
      "velocity": 100,
      "chip": "ym2612"
    },
    {
      "channel": 0,
      "note": 36,
      "start": 78.8922,
      "duration": 0.0185,
      "velocity": 115,
      "chip": "ym2612"
    },
    {
      "channel": 4,
      "note": 63,
      "start": 78.8934,
      "duration": 0.0184,
      "velocity": 120,
      "chip": "ym2612"
    },
    {
      "channel": 3,
      "note": 70,
      "start": 78.8946,
      "duration": 0.0184,
      "velocity": 120,
      "chip": "ym2612"
    },
    {
      "channel": 2,
      "note": 51,
      "start": 78.8957,
      "duration": 0.0184,
      "velocity": 100,
      "chip": "ym2612"
    },
    {
      "channel": 1,
      "note": 39,
      "start": 78.8969,
      "duration": 0.0183,
      "velocity": 100,
      "chip": "ym2612"
    },
    {
      "channel": 0,
      "note": 37,
      "start": 78.9107,
      "duration": 0.0163,
      "velocity": 115,
      "chip": "ym2612"
    },
    {
      "channel": 4,
      "note": 63,
      "start": 78.9118,
      "duration": 0.0163,
      "velocity": 120,
      "chip": "ym2612"
    },
    {
      "channel": 3,
      "note": 70,
      "start": 78.913,
      "duration": 0.0164,
      "velocity": 120,
      "chip": "ym2612"
    },
    {
      "channel": 2,
      "note": 51,
      "start": 78.9141,
      "duration": 0.0163,
      "velocity": 100,
      "chip": "ym2612"
    },
    {
      "channel": 1,
      "note": 39,
      "start": 78.9153,
      "duration": 0.0163,
      "velocity": 100,
      "chip": "ym2612"
    },
    {
      "channel": 0,
      "note": 37,
      "start": 78.927,
      "duration": 0.0157,
      "velocity": 115,
      "chip": "ym2612"
    },
    {
      "channel": 4,
      "note": 63,
      "start": 78.9282,
      "duration": 0.0158,
      "velocity": 120,
      "chip": "ym2612"
    },
    {
      "channel": 3,
      "note": 70,
      "start": 78.9294,
      "duration": 0.0157,
      "velocity": 120,
      "chip": "ym2612"
    },
    {
      "channel": 2,
      "note": 51,
      "start": 78.9305,
      "duration": 0.0158,
      "velocity": 100,
      "chip": "ym2612"
    },
    {
      "channel": 1,
      "note": 39,
      "start": 78.9316,
      "duration": 0.0157,
      "velocity": 100,
      "chip": "ym2612"
    },
    {
      "channel": 0,
      "note": 38,
      "start": 78.9427,
      "duration": 0.0141,
      "velocity": 115,
      "chip": "ym2612"
    },
    {
      "channel": 4,
      "note": 63,
      "start": 78.9439,
      "duration": 0.0141,
      "velocity": 120,
      "chip": "ym2612"
    },
    {
      "channel": 3,
      "note": 70,
      "start": 78.9451,
      "duration": 0.014,
      "velocity": 120,
      "chip": "ym2612"
    },
    {
      "channel": 2,
      "note": 51,
      "start": 78.9462,
      "duration": 0.0141,
      "velocity": 100,
      "chip": "ym2612"
    },
    {
      "channel": 1,
      "note": 39,
      "start": 78.9473,
      "duration": 0.0141,
      "velocity": 100,
      "chip": "ym2612"
    },
    {
      "channel": 0,
      "note": 38,
      "start": 78.9568,
      "duration": 0.0185,
      "velocity": 115,
      "chip": "ym2612"
    },
    {
      "channel": 4,
      "note": 63,
      "start": 78.958,
      "duration": 0.0185,
      "velocity": 120,
      "chip": "ym2612"
    },
    {
      "channel": 3,
      "note": 70,
      "start": 78.9591,
      "duration": 0.0185,
      "velocity": 120,
      "chip": "ym2612"
    },
    {
      "channel": 2,
      "note": 51,
      "start": 78.9603,
      "duration": 0.0185,
      "velocity": 100,
      "chip": "ym2612"
    },
    {
      "channel": 1,
      "note": 39,
      "start": 78.9614,
      "duration": 0.0185,
      "velocity": 100,
      "chip": "ym2612"
    },
    {
      "channel": 0,
      "note": 39,
      "start": 78.9753,
      "duration": 0.0134,
      "velocity": 115,
      "chip": "ym2612"
    },
    {
      "channel": 4,
      "note": 63,
      "start": 78.9765,
      "duration": 0.0161,
      "velocity": 120,
      "chip": "ym2612"
    },
    {
      "channel": 3,
      "note": 70,
      "start": 78.9777,
      "duration": 0.0161,
      "velocity": 120,
      "chip": "ym2612"
    },
    {
      "channel": 2,
      "note": 51,
      "start": 78.9788,
      "duration": 0.0161,
      "velocity": 100,
      "chip": "ym2612"
    },
    {
      "channel": 1,
      "note": 39,
      "start": 78.9799,
      "duration": 0.0162,
      "velocity": 100,
      "chip": "ym2612"
    },
    {
      "channel": 0,
      "note": 39,
      "start": 78.9887,
      "duration": 0.0162,
      "velocity": 115,
      "chip": "ym2612"
    },
    {
      "channel": 4,
      "note": 63,
      "start": 78.9926,
      "duration": 0.0157,
      "velocity": 120,
      "chip": "ym2612"
    },
    {
      "channel": 3,
      "note": 70,
      "start": 78.9938,
      "duration": 0.0158,
      "velocity": 120,
      "chip": "ym2612"
    },
    {
      "channel": 0,
      "note": 40,
      "start": 79.0048,
      "duration": 0.016,
      "velocity": 115,
      "chip": "ym2612"
    },
    {
      "channel": 4,
      "note": 63,
      "start": 79.0083,
      "duration": 0.0137,
      "velocity": 120,
      "chip": "ym2612"
    },
    {
      "channel": 3,
      "note": 70,
      "start": 79.0095,
      "duration": 0.014,
      "velocity": 120,
      "chip": "ym2612"
    },
    {
      "channel": 0,
      "note": 40,
      "start": 79.0209,
      "duration": 0.0161,
      "velocity": 115,
      "chip": "ym2612"
    },
    {
      "channel": 4,
      "note": 63,
      "start": 79.0221,
      "duration": 0.0161,
      "velocity": 120,
      "chip": "ym2612"
    },
    {
      "channel": 3,
      "note": 70,
      "start": 79.0235,
      "duration": 0.0186,
      "velocity": 120,
      "chip": "ym2612"
    },
    {
      "channel": 0,
      "note": 40,
      "start": 79.037,
      "duration": 0.0161,
      "velocity": 115,
      "chip": "ym2612"
    },
    {
      "channel": 4,
      "note": 63,
      "start": 79.0382,
      "duration": 0.0161,
      "velocity": 120,
      "chip": "ym2612"
    },
    {
      "channel": 3,
      "note": 70,
      "start": 79.0421,
      "duration": 0.0133,
      "velocity": 120,
      "chip": "ym2612"
    },
    {
      "channel": 0,
      "note": 41,
      "start": 79.0531,
      "duration": 0.0161,
      "velocity": 115,
      "chip": "ym2612"
    },
    {
      "channel": 4,
      "note": 63,
      "start": 79.0542,
      "duration": 0.0163,
      "velocity": 120,
      "chip": "ym2612"
    },
    {
      "channel": 3,
      "note": 70,
      "start": 79.0554,
      "duration": 0.0166,
      "velocity": 120,
      "chip": "ym2612"
    },
    {
      "channel": 0,
      "note": 41,
      "start": 79.0692,
      "duration": 0.0161,
      "velocity": 115,
      "chip": "ym2612"
    },
    {
      "channel": 4,
      "note": 60,
      "start": 79.0707,
      "duration": 0.0159,
      "velocity": 120,
      "chip": "ym2612"
    },
    {
      "channel": 3,
      "note": 67,
      "start": 79.0721,
      "duration": 0.0156,
      "velocity": 120,
      "chip": "ym2612"
    },
    {
      "channel": 2,
      "note": 48,
      "start": 79.0758,
      "duration": 0.0131,
      "velocity": 100,
      "chip": "ym2612"
    },
    {
      "channel": 1,
      "note": 36,
      "start": 79.0772,
      "duration": 0.0132,
      "velocity": 100,
      "chip": "ym2612"
    },
    {
      "channel": 0,
      "note": 42,
      "start": 79.0853,
      "duration": 0.0161,
      "velocity": 115,
      "chip": "ym2612"
    },
    {
      "channel": 4,
      "note": 60,
      "start": 79.0865,
      "duration": 0.016,
      "velocity": 120,
      "chip": "ym2612"
    },
    {
      "channel": 3,
      "note": 67,
      "start": 79.0877,
      "duration": 0.016,
      "velocity": 120,
      "chip": "ym2612"
    },
    {
      "channel": 2,
      "note": 48,
      "start": 79.0889,
      "duration": 0.0159,
      "velocity": 100,
      "chip": "ym2612"
    },
    {
      "channel": 1,
      "note": 36,
      "start": 79.0905,
      "duration": 0.0183,
      "velocity": 100,
      "chip": "ym2612"
    },
    {
      "channel": 0,
      "note": 42,
      "start": 79.1014,
      "duration": 0.0161,
      "velocity": 115,
      "chip": "ym2612"
    },
    {
      "channel": 4,
      "note": 60,
      "start": 79.1025,
      "duration": 0.0161,
      "velocity": 120,
      "chip": "ym2612"
    },
    {
      "channel": 3,
      "note": 67,
      "start": 79.1037,
      "duration": 0.0161,
      "velocity": 120,
      "chip": "ym2612"
    },
    {
      "channel": 2,
      "note": 48,
      "start": 79.1048,
      "duration": 0.0161,
      "velocity": 100,
      "chip": "ym2612"
    },
    {
      "channel": 1,
      "note": 36,
      "start": 79.1087,
      "duration": 0.0134,
      "velocity": 100,
      "chip": "ym2612"
    },
    {
      "channel": 0,
      "note": 43,
      "start": 79.1175,
      "duration": 0.0161,
      "velocity": 115,
      "chip": "ym2612"
    },
    {
      "channel": 4,
      "note": 60,
      "start": 79.1186,
      "duration": 0.0162,
      "velocity": 120,
      "chip": "ym2612"
    },
    {
      "channel": 3,
      "note": 67,
      "start": 79.1198,
      "duration": 0.0162,
      "velocity": 120,
      "chip": "ym2612"
    },
    {
      "channel": 2,
      "note": 48,
      "start": 79.1209,
      "duration": 0.0162,
      "velocity": 100,
      "chip": "ym2612"
    },
    {
      "channel": 1,
      "note": 36,
      "start": 79.1221,
      "duration": 0.0161,
      "velocity": 100,
      "chip": "ym2612"
    },
    {
      "channel": 0,
      "note": 43,
      "start": 79.1336,
      "duration": 0.0161,
      "velocity": 115,
      "chip": "ym2612"
    },
    {
      "channel": 4,
      "note": 60,
      "start": 79.1348,
      "duration": 0.0161,
      "velocity": 120,
      "chip": "ym2612"
    },
    {
      "channel": 3,
      "note": 67,
      "start": 79.1359,
      "duration": 0.0161,
      "velocity": 120,
      "chip": "ym2612"
    },
    {
      "channel": 2,
      "note": 48,
      "start": 79.1371,
      "duration": 0.0161,
      "velocity": 100,
      "chip": "ym2612"
    },
    {
      "channel": 1,
      "note": 36,
      "start": 79.1382,
      "duration": 0.0161,
      "velocity": 100,
      "chip": "ym2612"
    },
    {
      "channel": 0,
      "note": 44,
      "start": 79.1497,
      "duration": 0.0162,
      "velocity": 115,
      "chip": "ym2612"
    },
    {
      "channel": 4,
      "note": 60,
      "start": 79.1509,
      "duration": 0.0161,
      "velocity": 120,
      "chip": "ym2612"
    },
    {
      "channel": 3,
      "note": 67,
      "start": 79.152,
      "duration": 0.0161,
      "velocity": 120,
      "chip": "ym2612"
    },
    {
      "channel": 2,
      "note": 48,
      "start": 79.1532,
      "duration": 0.0161,
      "velocity": 100,
      "chip": "ym2612"
    },
    {
      "channel": 1,
      "note": 36,
      "start": 79.1542,
      "duration": 0.0161,
      "velocity": 100,
      "chip": "ym2612"
    },
    {
      "channel": 0,
      "note": 44,
      "start": 79.1658,
      "duration": 0.0161,
      "velocity": 115,
      "chip": "ym2612"
    },
    {
      "channel": 4,
      "note": 60,
      "start": 79.167,
      "duration": 0.0161,
      "velocity": 120,
      "chip": "ym2612"
    },
    {
      "channel": 3,
      "note": 67,
      "start": 79.1681,
      "duration": 0.0161,
      "velocity": 120,
      "chip": "ym2612"
    },
    {
      "channel": 2,
      "note": 48,
      "start": 79.1693,
      "duration": 0.0161,
      "velocity": 100,
      "chip": "ym2612"
    },
    {
      "channel": 1,
      "note": 36,
      "start": 79.1703,
      "duration": 0.0162,
      "velocity": 100,
      "chip": "ym2612"
    },
    {
      "channel": 0,
      "note": 44,
      "start": 79.1819,
      "duration": 0.0161,
      "velocity": 115,
      "chip": "ym2612"
    },
    {
      "channel": 4,
      "note": 60,
      "start": 79.1831,
      "duration": 0.0161,
      "velocity": 120,
      "chip": "ym2612"
    },
    {
      "channel": 3,
      "note": 67,
      "start": 79.1842,
      "duration": 0.0161,
      "velocity": 120,
      "chip": "ym2612"
    },
    {
      "channel": 0,
      "note": 45,
      "start": 79.198,
      "duration": 0.0161,
      "velocity": 115,
      "chip": "ym2612"
    },
    {
      "channel": 4,
      "note": 60,
      "start": 79.1992,
      "duration": 0.0161,
      "velocity": 120,
      "chip": "ym2612"
    },
    {
      "channel": 3,
      "note": 67,
      "start": 79.2003,
      "duration": 0.0161,
      "velocity": 120,
      "chip": "ym2612"
    },
    {
      "channel": 0,
      "note": 45,
      "start": 79.2141,
      "duration": 0.0161,
      "velocity": 115,
      "chip": "ym2612"
    },
    {
      "channel": 4,
      "note": 60,
      "start": 79.2153,
      "duration": 0.0161,
      "velocity": 120,
      "chip": "ym2612"
    },
    {
      "channel": 3,
      "note": 67,
      "start": 79.2164,
      "duration": 0.0161,
      "velocity": 120,
      "chip": "ym2612"
    },
    {
      "channel": 0,
      "note": 46,
      "start": 79.2302,
      "duration": 0.0161,
      "velocity": 115,
      "chip": "ym2612"
    },
    {
      "channel": 4,
      "note": 60,
      "start": 79.2314,
      "duration": 0.0161,
      "velocity": 120,
      "chip": "ym2612"
    },
    {
      "channel": 3,
      "note": 67,
      "start": 79.2325,
      "duration": 0.0161,
      "velocity": 120,
      "chip": "ym2612"
    },
    {
      "channel": 0,
      "note": 46,
      "start": 79.2463,
      "duration": 0.0195,
      "velocity": 115,
      "chip": "ym2612"
    },
    {
      "channel": 4,
      "note": 60,
      "start": 79.2474,
      "duration": 0.0198,
      "velocity": 120,
      "chip": "ym2612"
    },
    {
      "channel": 3,
      "note": 67,
      "start": 79.2486,
      "duration": 0.0201,
      "velocity": 120,
      "chip": "ym2612"
    },
    {
      "channel": 1,
      "note": 78,
      "start": 79.2641,
      "duration": 0.0144,
      "velocity": 124,
      "chip": "ym2612"
    },
    {
      "channel": 0,
      "note": 47,
      "start": 79.2658,
      "duration": 0.0144,
      "velocity": 115,
      "chip": "ym2612"
    },
    {
      "channel": 4,
      "note": 63,
      "start": 79.2673,
      "duration": 0.0141,
      "velocity": 120,
      "chip": "ym2612"
    },
    {
      "channel": 3,
      "note": 70,
      "start": 79.2687,
      "duration": 0.0139,
      "velocity": 120,
      "chip": "ym2612"
    },
    {
      "channel": 2,
      "note": 51,
      "start": 79.2701,
      "duration": 0.0137,
      "velocity": 100,
      "chip": "ym2612"
    },
    {
      "channel": 1,
      "note": 76,
      "start": 79.2785,
      "duration": 0.016,
      "velocity": 124,
      "chip": "ym2612"
    },
    {
      "channel": 0,
      "note": 47,
      "start": 79.2802,
      "duration": 0.0161,
      "velocity": 115,
      "chip": "ym2612"
    },
    {
      "channel": 4,
      "note": 63,
      "start": 79.2814,
      "duration": 0.016,
      "velocity": 120,
      "chip": "ym2612"
    },
    {
      "channel": 3,
      "note": 70,
      "start": 79.2826,
      "duration": 0.016,
      "velocity": 120,
      "chip": "ym2612"
    },
    {
      "channel": 2,
      "note": 51,
      "start": 79.2838,
      "duration": 0.0159,
      "velocity": 100,
      "chip": "ym2612"
    },
    {
      "channel": 1,
      "note": 75,
      "start": 79.2945,
      "duration": 0.0161,
      "velocity": 124,
      "chip": "ym2612"
    },
    {
      "channel": 0,
      "note": 47,
      "start": 79.2963,
      "duration": 0.016,
      "velocity": 115,
      "chip": "ym2612"
    },
    {
      "channel": 4,
      "note": 63,
      "start": 79.2974,
      "duration": 0.0161,
      "velocity": 120,
      "chip": "ym2612"
    },
    {
      "channel": 3,
      "note": 70,
      "start": 79.2986,
      "duration": 0.0161,
      "velocity": 120,
      "chip": "ym2612"
    },
    {
      "channel": 2,
      "note": 51,
      "start": 79.2997,
      "duration": 0.0161,
      "velocity": 100,
      "chip": "ym2612"
    },
    {
      "channel": 1,
      "note": 74,
      "start": 79.3106,
      "duration": 0.0166,
      "velocity": 124,
      "chip": "ym2612"
    },
    {
      "channel": 0,
      "note": 48,
      "start": 79.3123,
      "duration": 0.0167,
      "velocity": 115,
      "chip": "ym2612"
    },
    {
      "channel": 4,
      "note": 63,
      "start": 79.3135,
      "duration": 0.0166,
      "velocity": 120,
      "chip": "ym2612"
    },
    {
      "channel": 3,
      "note": 70,
      "start": 79.3147,
      "duration": 0.0166,
      "velocity": 120,
      "chip": "ym2612"
    },
    {
      "channel": 2,
      "note": 51,
      "start": 79.3158,
      "duration": 0.0166,
      "velocity": 100,
      "chip": "ym2612"
    },
    {
      "channel": 1,
      "note": 72,
      "start": 79.3272,
      "duration": 0.0163,
      "velocity": 124,
      "chip": "ym2612"
    },
    {
      "channel": 0,
      "note": 48,
      "start": 79.329,
      "duration": 0.0163,
      "velocity": 115,
      "chip": "ym2612"
    },
    {
      "channel": 4,
      "note": 63,
      "start": 79.3301,
      "duration": 0.0163,
      "velocity": 120,
      "chip": "ym2612"
    },
    {
      "channel": 3,
      "note": 70,
      "start": 79.3313,
      "duration": 0.0163,
      "velocity": 120,
      "chip": "ym2612"
    },
    {
      "channel": 2,
      "note": 51,
      "start": 79.3324,
      "duration": 0.0163,
      "velocity": 100,
      "chip": "ym2612"
    },
    {
      "channel": 1,
      "note": 71,
      "start": 79.3436,
      "duration": 0.0154,
      "velocity": 124,
      "chip": "ym2612"
    },
    {
      "channel": 0,
      "note": 49,
      "start": 79.3453,
      "duration": 0.0146,
      "velocity": 1,
      "chip": "ym2612"
    },
    {
      "channel": 4,
      "note": 63,
      "start": 79.3464,
      "duration": 0.0146,
      "velocity": 120,
      "chip": "ym2612"
    },
    {
      "channel": 3,
      "note": 70,
      "start": 79.3476,
      "duration": 0.0146,
      "velocity": 120,
      "chip": "ym2612"
    },
    {
      "channel": 2,
      "note": 51,
      "start": 79.3487,
      "duration": 0.0146,
      "velocity": 100,
      "chip": "ym2612"
    },
    {
      "channel": 1,
      "note": 70,
      "start": 79.359,
      "duration": 0.0183,
      "velocity": 124,
      "chip": "ym2612"
    },
    {
      "channel": 4,
      "note": 63,
      "start": 79.3611,
      "duration": 0.0174,
      "velocity": 120,
      "chip": "ym2612"
    },
    {
      "channel": 3,
      "note": 70,
      "start": 79.3622,
      "duration": 0.0174,
      "velocity": 120,
      "chip": "ym2612"
    },
    {
      "channel": 2,
      "note": 51,
      "start": 79.3634,
      "duration": 0.0174,
      "velocity": 100,
      "chip": "ym2612"
    },
    {
      "channel": 1,
      "note": 69,
      "start": 79.3772,
      "duration": 0.0167,
      "velocity": 124,
      "chip": "ym2612"
    },
    {
      "channel": 4,
      "note": 63,
      "start": 79.3785,
      "duration": 0.0167,
      "velocity": 120,
      "chip": "ym2612"
    },
    {
      "channel": 3,
      "note": 70,
      "start": 79.3796,
      "duration": 0.0167,
      "velocity": 120,
      "chip": "ym2612"
    },
    {
      "channel": 1,
      "note": 68,
      "start": 79.3939,
      "duration": 0.0157,
      "velocity": 124,
      "chip": "ym2612"
    },
    {
      "channel": 4,
      "note": 63,
      "start": 79.3951,
      "duration": 0.0157,
      "velocity": 120,
      "chip": "ym2612"
    },
    {
      "channel": 3,
      "note": 70,
      "start": 79.3963,
      "duration": 0.0157,
      "velocity": 120,
      "chip": "ym2612"
    },
    {
      "channel": 1,
      "note": 66,
      "start": 79.4096,
      "duration": 0.0141,
      "velocity": 124,
      "chip": "ym2612"
    },
    {
      "channel": 4,
      "note": 63,
      "start": 79.4109,
      "duration": 0.0141,
      "velocity": 120,
      "chip": "ym2612"
    },
    {
      "channel": 3,
      "note": 70,
      "start": 79.412,
      "duration": 0.0141,
      "velocity": 120,
      "chip": "ym2612"
    },
    {
      "channel": 1,
      "note": 65,
      "start": 79.4237,
      "duration": 0.0185,
      "velocity": 124,
      "chip": "ym2612"
    },
    {
      "channel": 4,
      "note": 63,
      "start": 79.4249,
      "duration": 0.0185,
      "velocity": 120,
      "chip": "ym2612"
    },
    {
      "channel": 3,
      "note": 70,
      "start": 79.4261,
      "duration": 0.0185,
      "velocity": 120,
      "chip": "ym2612"
    },
    {
      "channel": 1,
      "note": 64,
      "start": 79.4422,
      "duration": 0.0134,
      "velocity": 124,
      "chip": "ym2612"
    },
    {
      "channel": 4,
      "note": 63,
      "start": 79.4434,
      "duration": 0.0161,
      "velocity": 120,
      "chip": "ym2612"
    },
    {
      "channel": 3,
      "note": 70,
      "start": 79.4446,
      "duration": 0.0162,
      "velocity": 120,
      "chip": "ym2612"
    },
    {
      "channel": 1,
      "note": 62,
      "start": 79.4555,
      "duration": 0.0161,
      "velocity": 124,
      "chip": "ym2612"
    },
    {
      "channel": 4,
      "note": 63,
      "start": 79.4596,
      "duration": 0.0157,
      "velocity": 120,
      "chip": "ym2612"
    },
    {
      "channel": 3,
      "note": 70,
      "start": 79.4607,
      "duration": 0.0157,
      "velocity": 120,
      "chip": "ym2612"
    },
    {
      "channel": 2,
      "note": 51,
      "start": 79.4621,
      "duration": 0.0155,
      "velocity": 100,
      "chip": "ym2612"
    },
    {
      "channel": 1,
      "note": 61,
      "start": 79.4716,
      "duration": 0.0162,
      "velocity": 124,
      "chip": "ym2612"
    },
    {
      "channel": 4,
      "note": 63,
      "start": 79.4753,
      "duration": 0.0137,
      "velocity": 120,
      "chip": "ym2612"
    },
    {
      "channel": 3,
      "note": 70,
      "start": 79.4765,
      "duration": 0.0141,
      "velocity": 120,
      "chip": "ym2612"
    },
    {
      "channel": 2,
      "note": 51,
      "start": 79.4777,
      "duration": 0.014,
      "velocity": 100,
      "chip": "ym2612"
    },
    {
      "channel": 1,
      "note": 60,
      "start": 79.4878,
      "duration": 0.0161,
      "velocity": 124,
      "chip": "ym2612"
    },
    {
      "channel": 4,
      "note": 63,
      "start": 79.489,
      "duration": 0.0161,
      "velocity": 120,
      "chip": "ym2612"
    },
    {
      "channel": 3,
      "note": 70,
      "start": 79.4905,
      "duration": 0.0185,
      "velocity": 120,
      "chip": "ym2612"
    },
    {
      "channel": 2,
      "note": 51,
      "start": 79.4917,
      "duration": 0.0185,
      "velocity": 100,
      "chip": "ym2612"
    },
    {
      "channel": 1,
      "note": 59,
      "start": 79.5039,
      "duration": 0.0161,
      "velocity": 124,
      "chip": "ym2612"
    },
    {
      "channel": 4,
      "note": 63,
      "start": 79.5051,
      "duration": 0.0161,
      "velocity": 120,
      "chip": "ym2612"
    },
    {
      "channel": 3,
      "note": 70,
      "start": 79.509,
      "duration": 0.0134,
      "velocity": 120,
      "chip": "ym2612"
    },
    {
      "channel": 2,
      "note": 51,
      "start": 79.5102,
      "duration": 0.0161,
      "velocity": 100,
      "chip": "ym2612"
    },
    {
      "channel": 1,
      "note": 57,
      "start": 79.52,
      "duration": 0.0161,
      "velocity": 124,
      "chip": "ym2612"
    },
    {
      "channel": 4,
      "note": 63,
      "start": 79.5212,
      "duration": 0.0161,
      "velocity": 120,
      "chip": "ym2612"
    },
    {
      "channel": 3,
      "note": 70,
      "start": 79.5224,
      "duration": 0.0161,
      "velocity": 120,
      "chip": "ym2612"
    },
    {
      "channel": 2,
      "note": 51,
      "start": 79.5263,
      "duration": 0.0158,
      "velocity": 100,
      "chip": "ym2612"
    },
    {
      "channel": 1,
      "note": 56,
      "start": 79.5361,
      "duration": 0.0161,
      "velocity": 124,
      "chip": "ym2612"
    },
    {
      "channel": 4,
      "note": 63,
      "start": 79.5373,
      "duration": 0.0161,
      "velocity": 120,
      "chip": "ym2612"
    },
    {
      "channel": 3,
      "note": 70,
      "start": 79.5385,
      "duration": 0.0161,
      "velocity": 120,
      "chip": "ym2612"
    },
    {
      "channel": 2,
      "note": 51,
      "start": 79.542,
      "duration": 0.0137,
      "velocity": 100,
      "chip": "ym2612"
    },
    {
      "channel": 1,
      "note": 55,
      "start": 79.5522,
      "duration": 0.0161,
      "velocity": 124,
      "chip": "ym2612"
    },
    {
      "channel": 4,
      "note": 63,
      "start": 79.5534,
      "duration": 0.0161,
      "velocity": 120,
      "chip": "ym2612"
    },
    {
      "channel": 3,
      "note": 70,
      "start": 79.5546,
      "duration": 0.0161,
      "velocity": 120,
      "chip": "ym2612"
    },
    {
      "channel": 2,
      "note": 51,
      "start": 79.5557,
      "duration": 0.0161,
      "velocity": 100,
      "chip": "ym2612"
    },
    {
      "channel": 1,
      "note": 53,
      "start": 79.5683,
      "duration": 0.0161,
      "velocity": 124,
      "chip": "ym2612"
    },
    {
      "channel": 4,
      "note": 63,
      "start": 79.5695,
      "duration": 0.0161,
      "velocity": 120,
      "chip": "ym2612"
    },
    {
      "channel": 3,
      "note": 70,
      "start": 79.5707,
      "duration": 0.0162,
      "velocity": 120,
      "chip": "ym2612"
    },
    {
      "channel": 1,
      "note": 52,
      "start": 79.5843,
      "duration": 0.0161,
      "velocity": 124,
      "chip": "ym2612"
    },
    {
      "channel": 4,
      "note": 63,
      "start": 79.5856,
      "duration": 0.0161,
      "velocity": 120,
      "chip": "ym2612"
    },
    {
      "channel": 3,
      "note": 70,
      "start": 79.5868,
      "duration": 0.0161,
      "velocity": 120,
      "chip": "ym2612"
    },
    {
      "channel": 1,
      "note": 51,
      "start": 79.6004,
      "duration": 0.0153,
      "velocity": 1,
      "chip": "ym2612"
    },
    {
      "channel": 4,
      "note": 63,
      "start": 79.6017,
      "duration": 0.0153,
      "velocity": 120,
      "chip": "ym2612"
    },
    {
      "channel": 3,
      "note": 70,
      "start": 79.6029,
      "duration": 0.0153,
      "velocity": 120,
      "chip": "ym2612"
    },
    {
      "channel": 4,
      "note": 63,
      "start": 79.617,
      "duration": 0.0152,
      "velocity": 120,
      "chip": "ym2612"
    },
    {
      "channel": 3,
      "note": 70,
      "start": 79.6182,
      "duration": 0.0153,
      "velocity": 120,
      "chip": "ym2612"
    },
    {
      "channel": 4,
      "note": 63,
      "start": 79.6322,
      "duration": 0.0196,
      "velocity": 120,
      "chip": "ym2612"
    },
    {
      "channel": 3,
      "note": 70,
      "start": 79.6334,
      "duration": 0.0195,
      "velocity": 120,
      "chip": "ym2612"
    },
    {
      "channel": 1,
      "note": 78,
      "start": 79.6506,
      "duration": 0.0144,
      "velocity": 124,
      "chip": "ym2612"
    },
    {
      "channel": 4,
      "note": 63,
      "start": 79.6518,
      "duration": 0.0144,
      "velocity": 120,
      "chip": "ym2612"
    },
    {
      "channel": 3,
      "note": 70,
      "start": 79.653,
      "duration": 0.0144,
      "velocity": 120,
      "chip": "ym2612"
    },
    {
      "channel": 2,
      "note": 51,
      "start": 79.6544,
      "duration": 0.0142,
      "velocity": 100,
      "chip": "ym2612"
    },
    {
      "channel": 1,
      "note": 76,
      "start": 79.6649,
      "duration": 0.016,
      "velocity": 124,
      "chip": "ym2612"
    },
    {
      "channel": 4,
      "note": 63,
      "start": 79.6662,
      "duration": 0.016,
      "velocity": 120,
      "chip": "ym2612"
    },
    {
      "channel": 3,
      "note": 70,
      "start": 79.6673,
      "duration": 0.016,
      "velocity": 120,
      "chip": "ym2612"
    },
    {
      "channel": 2,
      "note": 51,
      "start": 79.6686,
      "duration": 0.016,
      "velocity": 100,
      "chip": "ym2612"
    },
    {
      "channel": 1,
      "note": 75,
      "start": 79.681,
      "duration": 0.0161,
      "velocity": 124,
      "chip": "ym2612"
    },
    {
      "channel": 4,
      "note": 63,
      "start": 79.6822,
      "duration": 0.0161,
      "velocity": 120,
      "chip": "ym2612"
    },
    {
      "channel": 3,
      "note": 70,
      "start": 79.6834,
      "duration": 0.0161,
      "velocity": 120,
      "chip": "ym2612"
    },
    {
      "channel": 2,
      "note": 51,
      "start": 79.6845,
      "duration": 0.0161,
      "velocity": 100,
      "chip": "ym2612"
    },
    {
      "channel": 1,
      "note": 74,
      "start": 79.6971,
      "duration": 0.0161,
      "velocity": 124,
      "chip": "ym2612"
    },
    {
      "channel": 4,
      "note": 63,
      "start": 79.6983,
      "duration": 0.0161,
      "velocity": 120,
      "chip": "ym2612"
    },
    {
      "channel": 3,
      "note": 70,
      "start": 79.6995,
      "duration": 0.0162,
      "velocity": 120,
      "chip": "ym2612"
    },
    {
      "channel": 2,
      "note": 51,
      "start": 79.7006,
      "duration": 0.0161,
      "velocity": 100,
      "chip": "ym2612"
    },
    {
      "channel": 1,
      "note": 72,
      "start": 79.7132,
      "duration": 0.0161,
      "velocity": 124,
      "chip": "ym2612"
    },
    {
      "channel": 4,
      "note": 63,
      "start": 79.7144,
      "duration": 0.0161,
      "velocity": 120,
      "chip": "ym2612"
    },
    {
      "channel": 3,
      "note": 70,
      "start": 79.7156,
      "duration": 0.0161,
      "velocity": 120,
      "chip": "ym2612"
    },
    {
      "channel": 2,
      "note": 51,
      "start": 79.7168,
      "duration": 0.0161,
      "velocity": 100,
      "chip": "ym2612"
    },
    {
      "channel": 1,
      "note": 71,
      "start": 79.7293,
      "duration": 0.0179,
      "velocity": 124,
      "chip": "ym2612"
    },
    {
      "channel": 4,
      "note": 63,
      "start": 79.7305,
      "duration": 0.0179,
      "velocity": 120,
      "chip": "ym2612"
    },
    {
      "channel": 3,
      "note": 70,
      "start": 79.7317,
      "duration": 0.0179,
      "velocity": 120,
      "chip": "ym2612"
    },
    {
      "channel": 2,
      "note": 51,
      "start": 79.7329,
      "duration": 0.0179,
      "velocity": 100,
      "chip": "ym2612"
    },
    {
      "channel": 1,
      "note": 78,
      "start": 79.7471,
      "duration": 0.0144,
      "velocity": 124,
      "chip": "ym2612"
    },
    {
      "channel": 4,
      "note": 63,
      "start": 79.7484,
      "duration": 0.0144,
      "velocity": 120,
      "chip": "ym2612"
    },
    {
      "channel": 3,
      "note": 70,
      "start": 79.7496,
      "duration": 0.0144,
      "velocity": 120,
      "chip": "ym2612"
    },
    {
      "channel": 2,
      "note": 51,
      "start": 79.7507,
      "duration": 0.0144,
      "velocity": 100,
      "chip": "ym2612"
    },
    {
      "channel": 1,
      "note": 76,
      "start": 79.7615,
      "duration": 0.016,
      "velocity": 124,
      "chip": "ym2612"
    },
    {
      "channel": 4,
      "note": 63,
      "start": 79.7628,
      "duration": 0.016,
      "velocity": 120,
      "chip": "ym2612"
    },
    {
      "channel": 3,
      "note": 70,
      "start": 79.764,
      "duration": 0.016,
      "velocity": 120,
      "chip": "ym2612"
    },
    {
      "channel": 1,
      "note": 75,
      "start": 79.7775,
      "duration": 0.0163,
      "velocity": 124,
      "chip": "ym2612"
    },
    {
      "channel": 4,
      "note": 63,
      "start": 79.7788,
      "duration": 0.0163,
      "velocity": 120,
      "chip": "ym2612"
    },
    {
      "channel": 3,
      "note": 70,
      "start": 79.78,
      "duration": 0.0163,
      "velocity": 120,
      "chip": "ym2612"
    },
    {
      "channel": 1,
      "note": 74,
      "start": 79.7939,
      "duration": 0.0163,
      "velocity": 124,
      "chip": "ym2612"
    },
    {
      "channel": 4,
      "note": 63,
      "start": 79.7951,
      "duration": 0.0163,
      "velocity": 120,
      "chip": "ym2612"
    },
    {
      "channel": 3,
      "note": 70,
      "start": 79.7964,
      "duration": 0.0163,
      "velocity": 120,
      "chip": "ym2612"
    },
    {
      "channel": 1,
      "note": 72,
      "start": 79.8102,
      "duration": 0.0156,
      "velocity": 124,
      "chip": "ym2612"
    },
    {
      "channel": 4,
      "note": 63,
      "start": 79.8115,
      "duration": 0.0156,
      "velocity": 120,
      "chip": "ym2612"
    },
    {
      "channel": 3,
      "note": 70,
      "start": 79.8127,
      "duration": 0.0156,
      "velocity": 120,
      "chip": "ym2612"
    },
    {
      "channel": 1,
      "note": 71,
      "start": 79.8259,
      "duration": 0.0198,
      "velocity": 124,
      "chip": "ym2612"
    },
    {
      "channel": 4,
      "note": 63,
      "start": 79.8271,
      "duration": 0.0199,
      "velocity": 120,
      "chip": "ym2612"
    },
    {
      "channel": 3,
      "note": 70,
      "start": 79.8283,
      "duration": 0.0199,
      "velocity": 120,
      "chip": "ym2612"
    },
    {
      "channel": 1,
      "note": 78,
      "start": 79.8457,
      "duration": 0.0149,
      "velocity": 124,
      "chip": "ym2612"
    },
    {
      "channel": 4,
      "note": 63,
      "start": 79.847,
      "duration": 0.0149,
      "velocity": 120,
      "chip": "ym2612"
    },
    {
      "channel": 3,
      "note": 70,
      "start": 79.8482,
      "duration": 0.0149,
      "velocity": 120,
      "chip": "ym2612"
    },
    {
      "channel": 2,
      "note": 51,
      "start": 79.8496,
      "duration": 0.0146,
      "velocity": 100,
      "chip": "ym2612"
    },
    {
      "channel": 1,
      "note": 76,
      "start": 79.8606,
      "duration": 0.016,
      "velocity": 124,
      "chip": "ym2612"
    },
    {
      "channel": 4,
      "note": 63,
      "start": 79.8619,
      "duration": 0.016,
      "velocity": 120,
      "chip": "ym2612"
    },
    {
      "channel": 3,
      "note": 70,
      "start": 79.8631,
      "duration": 0.0159,
      "velocity": 120,
      "chip": "ym2612"
    },
    {
      "channel": 2,
      "note": 51,
      "start": 79.8642,
      "duration": 0.0159,
      "velocity": 100,
      "chip": "ym2612"
    },
    {
      "channel": 1,
      "note": 75,
      "start": 79.8766,
      "duration": 0.014,
      "velocity": 124,
      "chip": "ym2612"
    },
    {
      "channel": 4,
      "note": 63,
      "start": 79.8778,
      "duration": 0.014,
      "velocity": 120,
      "chip": "ym2612"
    },
    {
      "channel": 3,
      "note": 70,
      "start": 79.879,
      "duration": 0.0141,
      "velocity": 120,
      "chip": "ym2612"
    },
    {
      "channel": 2,
      "note": 51,
      "start": 79.8801,
      "duration": 0.0141,
      "velocity": 100,
      "chip": "ym2612"
    },
    {
      "channel": 1,
      "note": 74,
      "start": 79.8906,
      "duration": 0.0186,
      "velocity": 124,
      "chip": "ym2612"
    },
    {
      "channel": 4,
      "note": 63,
      "start": 79.8918,
      "duration": 0.0186,
      "velocity": 120,
      "chip": "ym2612"
    },
    {
      "channel": 3,
      "note": 70,
      "start": 79.8931,
      "duration": 0.0185,
      "velocity": 120,
      "chip": "ym2612"
    },
    {
      "channel": 2,
      "note": 51,
      "start": 79.8942,
      "duration": 0.0185,
      "velocity": 100,
      "chip": "ym2612"
    },
    {
      "channel": 1,
      "note": 72,
      "start": 79.9091,
      "duration": 0.0133,
      "velocity": 124,
      "chip": "ym2612"
    },
    {
      "channel": 4,
      "note": 63,
      "start": 79.9104,
      "duration": 0.0161,
      "velocity": 120,
      "chip": "ym2612"
    },
    {
      "channel": 3,
      "note": 70,
      "start": 79.9116,
      "duration": 0.0161,
      "velocity": 120,
      "chip": "ym2612"
    },
    {
      "channel": 2,
      "note": 51,
      "start": 79.9127,
      "duration": 0.0161,
      "velocity": 100,
      "chip": "ym2612"
    },
    {
      "channel": 1,
      "note": 71,
      "start": 79.9224,
      "duration": 0.0161,
      "velocity": 124,
      "chip": "ym2612"
    },
    {
      "channel": 4,
      "note": 63,
      "start": 79.9265,
      "duration": 0.0157,
      "velocity": 120,
      "chip": "ym2612"
    },
    {
      "channel": 3,
      "note": 70,
      "start": 79.9277,
      "duration": 0.0158,
      "velocity": 120,
      "chip": "ym2612"
    },
    {
      "channel": 2,
      "note": 51,
      "start": 79.9288,
      "duration": 0.0157,
      "velocity": 100,
      "chip": "ym2612"
    },
    {
      "channel": 1,
      "note": 70,
      "start": 79.9386,
      "duration": 0.0161,
      "velocity": 124,
      "chip": "ym2612"
    },
    {
      "channel": 4,
      "note": 63,
      "start": 79.9422,
      "duration": 0.0139,
      "velocity": 120,
      "chip": "ym2612"
    },
    {
      "channel": 3,
      "note": 70,
      "start": 79.9434,
      "duration": 0.014,
      "velocity": 120,
      "chip": "ym2612"
    },
    {
      "channel": 2,
      "note": 51,
      "start": 79.9445,
      "duration": 0.0141,
      "velocity": 100,
      "chip": "ym2612"
    },
    {
      "channel": 1,
      "note": 69,
      "start": 79.9547,
      "duration": 0.0161,
      "velocity": 124,
      "chip": "ym2612"
    },
    {
      "channel": 4,
      "note": 63,
      "start": 79.9561,
      "duration": 0.016,
      "velocity": 120,
      "chip": "ym2612"
    },
    {
      "channel": 3,
      "note": 70,
      "start": 79.9574,
      "duration": 0.0186,
      "velocity": 120,
      "chip": "ym2612"
    },
    {
      "channel": 1,
      "note": 68,
      "start": 79.9708,
      "duration": 0.0161,
      "velocity": 124,
      "chip": "ym2612"
    },
    {
      "channel": 4,
      "note": 63,
      "start": 79.9721,
      "duration": 0.0161,
      "velocity": 120,
      "chip": "ym2612"
    },
    {
      "channel": 3,
      "note": 70,
      "start": 79.976,
      "duration": 0.0161,
      "velocity": 120,
      "chip": "ym2612"
    },
    {
      "channel": 1,
      "note": 66,
      "start": 79.9869,
      "duration": 0.0161,
      "velocity": 124,
      "chip": "ym2612"
    },
    {
      "channel": 4,
      "note": 63,
      "start": 79.9882,
      "duration": 0.0161,
      "velocity": 120,
      "chip": "ym2612"
    },
    {
      "channel": 3,
      "note": 70,
      "start": 79.9921,
      "duration": 0.0133,
      "velocity": 120,
      "chip": "ym2612"
    },
    {
      "channel": 1,
      "note": 65,
      "start": 80.003,
      "duration": 0.0161,
      "velocity": 124,
      "chip": "ym2612"
    },
    {
      "channel": 4,
      "note": 63,
      "start": 80.0042,
      "duration": 0.0161,
      "velocity": 120,
      "chip": "ym2612"
    },
    {
      "channel": 3,
      "note": 70,
      "start": 80.0054,
      "duration": 0.0161,
      "velocity": 120,
      "chip": "ym2612"
    },
    {
      "channel": 1,
      "note": 64,
      "start": 80.0191,
      "duration": 0.0179,
      "velocity": 124,
      "chip": "ym2612"
    },
    {
      "channel": 4,
      "note": 63,
      "start": 80.0203,
      "duration": 0.0179,
      "velocity": 120,
      "chip": "ym2612"
    },
    {
      "channel": 3,
      "note": 70,
      "start": 80.0215,
      "duration": 0.0207,
      "velocity": 120,
      "chip": "ym2612"
    },
    {
      "channel": 1,
      "note": 78,
      "start": 80.0369,
      "duration": 0.0144,
      "velocity": 124,
      "chip": "ym2612"
    },
    {
      "channel": 4,
      "note": 63,
      "start": 80.0382,
      "duration": 0.0144,
      "velocity": 120,
      "chip": "ym2612"
    },
    {
      "channel": 3,
      "note": 70,
      "start": 80.0422,
      "duration": 0.0117,
      "velocity": 120,
      "chip": "ym2612"
    },
    {
      "channel": 2,
      "note": 51,
      "start": 80.0436,
      "duration": 0.0114,
      "velocity": 100,
      "chip": "ym2612"
    },
    {
      "channel": 1,
      "note": 76,
      "start": 80.0513,
      "duration": 0.016,
      "velocity": 124,
      "chip": "ym2612"
    },
    {
      "channel": 4,
      "note": 63,
      "start": 80.0526,
      "duration": 0.016,
      "velocity": 120,
      "chip": "ym2612"
    },
    {
      "channel": 3,
      "note": 70,
      "start": 80.0538,
      "duration": 0.016,
      "velocity": 120,
      "chip": "ym2612"
    },
    {
      "channel": 2,
      "note": 51,
      "start": 80.0549,
      "duration": 0.016,
      "velocity": 100,
      "chip": "ym2612"
    },
    {
      "channel": 1,
      "note": 75,
      "start": 80.0673,
      "duration": 0.0161,
      "velocity": 124,
      "chip": "ym2612"
    },
    {
      "channel": 4,
      "note": 63,
      "start": 80.0686,
      "duration": 0.0161,
      "velocity": 120,
      "chip": "ym2612"
    },
    {
      "channel": 3,
      "note": 70,
      "start": 80.0698,
      "duration": 0.0161,
      "velocity": 120,
      "chip": "ym2612"
    },
    {
      "channel": 2,
      "note": 51,
      "start": 80.071,
      "duration": 0.0161,
      "velocity": 100,
      "chip": "ym2612"
    },
    {
      "channel": 1,
      "note": 74,
      "start": 80.0834,
      "duration": 0.0162,
      "velocity": 124,
      "chip": "ym2612"
    },
    {
      "channel": 4,
      "note": 63,
      "start": 80.0847,
      "duration": 0.0162,
      "velocity": 120,
      "chip": "ym2612"
    },
    {
      "channel": 3,
      "note": 70,
      "start": 80.0859,
      "duration": 0.0161,
      "velocity": 120,
      "chip": "ym2612"
    },
    {
      "channel": 2,
      "note": 51,
      "start": 80.0871,
      "duration": 0.0162,
      "velocity": 100,
      "chip": "ym2612"
    },
    {
      "channel": 1,
      "note": 72,
      "start": 80.0996,
      "duration": 0.0161,
      "velocity": 124,
      "chip": "ym2612"
    },
    {
      "channel": 4,
      "note": 63,
      "start": 80.1009,
      "duration": 0.0161,
      "velocity": 120,
      "chip": "ym2612"
    },
    {
      "channel": 3,
      "note": 70,
      "start": 80.1021,
      "duration": 0.016,
      "velocity": 120,
      "chip": "ym2612"
    },
    {
      "channel": 2,
      "note": 51,
      "start": 80.1032,
      "duration": 0.016,
      "velocity": 100,
      "chip": "ym2612"
    },
    {
      "channel": 1,
      "note": 71,
      "start": 80.1157,
      "duration": 0.0179,
      "velocity": 124,
      "chip": "ym2612"
    },
    {
      "channel": 4,
      "note": 63,
      "start": 80.117,
      "duration": 0.0179,
      "velocity": 120,
      "chip": "ym2612"
    },
    {
      "channel": 3,
      "note": 70,
      "start": 80.1181,
      "duration": 0.0179,
      "velocity": 120,
      "chip": "ym2612"
    },
    {
      "channel": 2,
      "note": 51,
      "start": 80.1193,
      "duration": 0.0179,
      "velocity": 100,
      "chip": "ym2612"
    },
    {
      "channel": 1,
      "note": 78,
      "start": 80.1336,
      "duration": 0.0144,
      "velocity": 124,
      "chip": "ym2612"
    },
    {
      "channel": 4,
      "note": 63,
      "start": 80.1349,
      "duration": 0.0144,
      "velocity": 120,
      "chip": "ym2612"
    },
    {
      "channel": 3,
      "note": 70,
      "start": 80.1361,
      "duration": 0.0143,
      "velocity": 120,
      "chip": "ym2612"
    },
    {
      "channel": 2,
      "note": 51,
      "start": 80.1372,
      "duration": 0.0143,
      "velocity": 100,
      "chip": "ym2612"
    },
    {
      "channel": 1,
      "note": 76,
      "start": 80.148,
      "duration": 0.016,
      "velocity": 124,
      "chip": "ym2612"
    },
    {
      "channel": 4,
      "note": 63,
      "start": 80.1492,
      "duration": 0.016,
      "velocity": 120,
      "chip": "ym2612"
    },
    {
      "channel": 3,
      "note": 70,
      "start": 80.1504,
      "duration": 0.016,
      "velocity": 120,
      "chip": "ym2612"
    },
    {
      "channel": 1,
      "note": 75,
      "start": 80.164,
      "duration": 0.0161,
      "velocity": 124,
      "chip": "ym2612"
    },
    {
      "channel": 4,
      "note": 63,
      "start": 80.1653,
      "duration": 0.0161,
      "velocity": 120,
      "chip": "ym2612"
    },
    {
      "channel": 3,
      "note": 70,
      "start": 80.1664,
      "duration": 0.0161,
      "velocity": 120,
      "chip": "ym2612"
    },
    {
      "channel": 1,
      "note": 74,
      "start": 80.1801,
      "duration": 0.0161,
      "velocity": 124,
      "chip": "ym2612"
    },
    {
      "channel": 4,
      "note": 63,
      "start": 80.1814,
      "duration": 0.0161,
      "velocity": 120,
      "chip": "ym2612"
    },
    {
      "channel": 3,
      "note": 70,
      "start": 80.1825,
      "duration": 0.0162,
      "velocity": 120,
      "chip": "ym2612"
    },
    {
      "channel": 1,
      "note": 72,
      "start": 80.1962,
      "duration": 0.0161,
      "velocity": 124,
      "chip": "ym2612"
    },
    {
      "channel": 4,
      "note": 63,
      "start": 80.1974,
      "duration": 0.0161,
      "velocity": 120,
      "chip": "ym2612"
    },
    {
      "channel": 3,
      "note": 70,
      "start": 80.1987,
      "duration": 0.0161,
      "velocity": 120,
      "chip": "ym2612"
    },
    {
      "channel": 1,
      "note": 71,
      "start": 80.2123,
      "duration": 0.0179,
      "velocity": 124,
      "chip": "ym2612"
    },
    {
      "channel": 4,
      "note": 63,
      "start": 80.2135,
      "duration": 0.0179,
      "velocity": 120,
      "chip": "ym2612"
    },
    {
      "channel": 3,
      "note": 70,
      "start": 80.2147,
      "duration": 0.0179,
      "velocity": 120,
      "chip": "ym2612"
    },
    {
      "channel": 1,
      "note": 78,
      "start": 80.2302,
      "duration": 0.0144,
      "velocity": 124,
      "chip": "ym2612"
    },
    {
      "channel": 4,
      "note": 63,
      "start": 80.2315,
      "duration": 0.0144,
      "velocity": 120,
      "chip": "ym2612"
    },
    {
      "channel": 3,
      "note": 70,
      "start": 80.2327,
      "duration": 0.0143,
      "velocity": 120,
      "chip": "ym2612"
    },
    {
      "channel": 2,
      "note": 51,
      "start": 80.2341,
      "duration": 0.0141,
      "velocity": 100,
      "chip": "ym2612"
    },
    {
      "channel": 1,
      "note": 76,
      "start": 80.2446,
      "duration": 0.016,
      "velocity": 124,
      "chip": "ym2612"
    },
    {
      "channel": 4,
      "note": 63,
      "start": 80.2459,
      "duration": 0.016,
      "velocity": 120,
      "chip": "ym2612"
    },
    {
      "channel": 3,
      "note": 70,
      "start": 80.247,
      "duration": 0.016,
      "velocity": 120,
      "chip": "ym2612"
    },
    {
      "channel": 2,
      "note": 51,
      "start": 80.2482,
      "duration": 0.016,
      "velocity": 100,
      "chip": "ym2612"
    },
    {
      "channel": 1,
      "note": 75,
      "start": 80.2606,
      "duration": 0.0163,
      "velocity": 124,
      "chip": "ym2612"
    },
    {
      "channel": 4,
      "note": 63,
      "start": 80.2619,
      "duration": 0.0163,
      "velocity": 120,
      "chip": "ym2612"
    },
    {
      "channel": 3,
      "note": 70,
      "start": 80.263,
      "duration": 0.0163,
      "velocity": 120,
      "chip": "ym2612"
    },
    {
      "channel": 2,
      "note": 51,
      "start": 80.2642,
      "duration": 0.0163,
      "velocity": 100,
      "chip": "ym2612"
    },
    {
      "channel": 1,
      "note": 74,
      "start": 80.2769,
      "duration": 0.0159,
      "velocity": 124,
      "chip": "ym2612"
    },
    {
      "channel": 4,
      "note": 63,
      "start": 80.2782,
      "duration": 0.0159,
      "velocity": 120,
      "chip": "ym2612"
    },
    {
      "channel": 3,
      "note": 70,
      "start": 80.2793,
      "duration": 0.0159,
      "velocity": 120,
      "chip": "ym2612"
    },
    {
      "channel": 2,
      "note": 51,
      "start": 80.2805,
      "duration": 0.0159,
      "velocity": 100,
      "chip": "ym2612"
    },
    {
      "channel": 1,
      "note": 72,
      "start": 80.2928,
      "duration": 0.0177,
      "velocity": 124,
      "chip": "ym2612"
    },
    {
      "channel": 4,
      "note": 63,
      "start": 80.2941,
      "duration": 0.0177,
      "velocity": 120,
      "chip": "ym2612"
    },
    {
      "channel": 3,
      "note": 70,
      "start": 80.2952,
      "duration": 0.0178,
      "velocity": 120,
      "chip": "ym2612"
    },
    {
      "channel": 2,
      "note": 51,
      "start": 80.2964,
      "duration": 0.0178,
      "velocity": 100,
      "chip": "ym2612"
    },
    {
      "channel": 1,
      "note": 71,
      "start": 80.3105,
      "duration": 0.0167,
      "velocity": 124,
      "chip": "ym2612"
    },
    {
      "channel": 4,
      "note": 63,
      "start": 80.3118,
      "duration": 0.0167,
      "velocity": 120,
      "chip": "ym2612"
    },
    {
      "channel": 3,
      "note": 70,
      "start": 80.313,
      "duration": 0.0167,
      "velocity": 120,
      "chip": "ym2612"
    },
    {
      "channel": 2,
      "note": 51,
      "start": 80.3142,
      "duration": 0.0167,
      "velocity": 100,
      "chip": "ym2612"
    },
    {
      "channel": 1,
      "note": 70,
      "start": 80.3272,
      "duration": 0.0163,
      "velocity": 124,
      "chip": "ym2612"
    },
    {
      "channel": 4,
      "note": 63,
      "start": 80.3285,
      "duration": 0.0163,
      "velocity": 120,
      "chip": "ym2612"
    },
    {
      "channel": 3,
      "note": 70,
      "start": 80.3297,
      "duration": 0.0162,
      "velocity": 120,
      "chip": "ym2612"
    },
    {
      "channel": 2,
      "note": 51,
      "start": 80.3308,
      "duration": 0.0162,
      "velocity": 100,
      "chip": "ym2612"
    },
    {
      "channel": 1,
      "note": 69,
      "start": 80.3435,
      "duration": 0.014,
      "velocity": 124,
      "chip": "ym2612"
    },
    {
      "channel": 4,
      "note": 63,
      "start": 80.3448,
      "duration": 0.014,
      "velocity": 120,
      "chip": "ym2612"
    },
    {
      "channel": 3,
      "note": 70,
      "start": 80.3459,
      "duration": 0.0141,
      "velocity": 120,
      "chip": "ym2612"
    },
    {
      "channel": 1,
      "note": 68,
      "start": 80.3575,
      "duration": 0.0186,
      "velocity": 124,
      "chip": "ym2612"
    },
    {
      "channel": 4,
      "note": 63,
      "start": 80.3588,
      "duration": 0.0186,
      "velocity": 120,
      "chip": "ym2612"
    },
    {
      "channel": 3,
      "note": 70,
      "start": 80.36,
      "duration": 0.0185,
      "velocity": 120,
      "chip": "ym2612"
    },
    {
      "channel": 1,
      "note": 66,
      "start": 80.3761,
      "duration": 0.0161,
      "velocity": 124,
      "chip": "ym2612"
    },
    {
      "channel": 4,
      "note": 63,
      "start": 80.3773,
      "duration": 0.0161,
      "velocity": 120,
      "chip": "ym2612"
    },
    {
      "channel": 3,
      "note": 70,
      "start": 80.3785,
      "duration": 0.0161,
      "velocity": 120,
      "chip": "ym2612"
    },
    {
      "channel": 1,
      "note": 65,
      "start": 80.3922,
      "duration": 0.0134,
      "velocity": 124,
      "chip": "ym2612"
    },
    {
      "channel": 4,
      "note": 63,
      "start": 80.3934,
      "duration": 0.0157,
      "velocity": 120,
      "chip": "ym2612"
    },
    {
      "channel": 3,
      "note": 70,
      "start": 80.3946,
      "duration": 0.0158,
      "velocity": 120,
      "chip": "ym2612"
    },
    {
      "channel": 1,
      "note": 64,
      "start": 80.4055,
      "duration": 0.0161,
      "velocity": 124,
      "chip": "ym2612"
    },
    {
      "channel": 4,
      "note": 63,
      "start": 80.4091,
      "duration": 0.0178,
      "velocity": 120,
      "chip": "ym2612"
    },
    {
      "channel": 3,
      "note": 70,
      "start": 80.4104,
      "duration": 0.018,
      "velocity": 120,
      "chip": "ym2612"
    },
    {
      "channel": 1,
      "note": 62,
      "start": 80.4216,
      "duration": 0.0161,
      "velocity": 124,
      "chip": "ym2612"
    },
    {
      "channel": 0,
      "note": 36,
      "start": 80.4254,
      "duration": 0.0168,
      "velocity": 115,
      "chip": "ym2612"
    },
    {
      "channel": 4,
      "note": 65,
      "start": 80.427,
      "duration": 0.0165,
      "velocity": 120,
      "chip": "ym2612"
    },
    {
      "channel": 3,
      "note": 72,
      "start": 80.4284,
      "duration": 0.0163,
      "velocity": 120,
      "chip": "ym2612"
    },
    {
      "channel": 2,
      "note": 53,
      "start": 80.4299,
      "duration": 0.016,
      "velocity": 100,
      "chip": "ym2612"
    },
    {
      "channel": 1,
      "note": 61,
      "start": 80.4377,
      "duration": 0.0161,
      "velocity": 124,
      "chip": "ym2612"
    },
    {
      "channel": 0,
      "note": 36,
      "start": 80.4422,
      "duration": 0.0133,
      "velocity": 115,
      "chip": "ym2612"
    },
    {
      "channel": 4,
      "note": 65,
      "start": 80.4435,
      "duration": 0.016,
      "velocity": 120,
      "chip": "ym2612"
    },
    {
      "channel": 3,
      "note": 72,
      "start": 80.4447,
      "duration": 0.0159,
      "velocity": 120,
      "chip": "ym2612"
    },
    {
      "channel": 2,
      "note": 53,
      "start": 80.4459,
      "duration": 0.0159,
      "velocity": 100,
      "chip": "ym2612"
    },
    {
      "channel": 1,
      "note": 60,
      "start": 80.4538,
      "duration": 0.0161,
      "velocity": 124,
      "chip": "ym2612"
    },
    {
      "channel": 0,
      "note": 37,
      "start": 80.4555,
      "duration": 0.0161,
      "velocity": 115,
      "chip": "ym2612"
    },
    {
      "channel": 4,
      "note": 65,
      "start": 80.4595,
      "duration": 0.0157,
      "velocity": 120,
      "chip": "ym2612"
    },
    {
      "channel": 3,
      "note": 72,
      "start": 80.4606,
      "duration": 0.0157,
      "velocity": 120,
      "chip": "ym2612"
    },
    {
      "channel": 2,
      "note": 53,
      "start": 80.4618,
      "duration": 0.0157,
      "velocity": 100,
      "chip": "ym2612"
    },
    {
      "channel": 1,
      "note": 59,
      "start": 80.4699,
      "duration": 0.0161,
      "velocity": 124,
      "chip": "ym2612"
    },
    {
      "channel": 0,
      "note": 37,
      "start": 80.4716,
      "duration": 0.0161,
      "velocity": 115,
      "chip": "ym2612"
    },
    {
      "channel": 4,
      "note": 65,
      "start": 80.4752,
      "duration": 0.0137,
      "velocity": 120,
      "chip": "ym2612"
    },
    {
      "channel": 3,
      "note": 72,
      "start": 80.4763,
      "duration": 0.0141,
      "velocity": 120,
      "chip": "ym2612"
    },
    {
      "channel": 2,
      "note": 53,
      "start": 80.4775,
      "duration": 0.0141,
      "velocity": 100,
      "chip": "ym2612"
    },
    {
      "channel": 1,
      "note": 57,
      "start": 80.486,
      "duration": 0.0161,
      "velocity": 124,
      "chip": "ym2612"
    },
    {
      "channel": 0,
      "note": 38,
      "start": 80.4877,
      "duration": 0.0161,
      "velocity": 115,
      "chip": "ym2612"
    },
    {
      "channel": 4,
      "note": 65,
      "start": 80.4889,
      "duration": 0.0161,
      "velocity": 120,
      "chip": "ym2612"
    },
    {
      "channel": 3,
      "note": 72,
      "start": 80.4904,
      "duration": 0.0185,
      "velocity": 120,
      "chip": "ym2612"
    },
    {
      "channel": 2,
      "note": 53,
      "start": 80.4915,
      "duration": 0.0185,
      "velocity": 100,
      "chip": "ym2612"
    },
    {
      "channel": 1,
      "note": 56,
      "start": 80.5021,
      "duration": 0.0162,
      "velocity": 124,
      "chip": "ym2612"
    },
    {
      "channel": 0,
      "note": 38,
      "start": 80.5038,
      "duration": 0.0161,
      "velocity": 115,
      "chip": "ym2612"
    },
    {
      "channel": 4,
      "note": 65,
      "start": 80.505,
      "duration": 0.0161,
      "velocity": 120,
      "chip": "ym2612"
    },
    {
      "channel": 3,
      "note": 72,
      "start": 80.5089,
      "duration": 0.0134,
      "velocity": 120,
      "chip": "ym2612"
    },
    {
      "channel": 2,
      "note": 53,
      "start": 80.51,
      "duration": 0.0161,
      "velocity": 100,
      "chip": "ym2612"
    },
    {
      "channel": 1,
      "note": 55,
      "start": 80.5183,
      "duration": 0.0161,
      "velocity": 124,
      "chip": "ym2612"
    },
    {
      "channel": 0,
      "note": 39,
      "start": 80.52,
      "duration": 0.0161,
      "velocity": 115,
      "chip": "ym2612"
    },
    {
      "channel": 4,
      "note": 65,
      "start": 80.5211,
      "duration": 0.0161,
      "velocity": 120,
      "chip": "ym2612"
    },
    {
      "channel": 3,
      "note": 72,
      "start": 80.5222,
      "duration": 0.0162,
      "velocity": 120,
      "chip": "ym2612"
    },
    {
      "channel": 2,
      "note": 53,
      "start": 80.5261,
      "duration": 0.0158,
      "velocity": 100,
      "chip": "ym2612"
    },
    {
      "channel": 1,
      "note": 53,
      "start": 80.5343,
      "duration": 0.0161,
      "velocity": 124,
      "chip": "ym2612"
    },
    {
      "channel": 0,
      "note": 39,
      "start": 80.5361,
      "duration": 0.0161,
      "velocity": 115,
      "chip": "ym2612"
    },
    {
      "channel": 4,
      "note": 65,
      "start": 80.5372,
      "duration": 0.0161,
      "velocity": 120,
      "chip": "ym2612"
    },
    {
      "channel": 3,
      "note": 72,
      "start": 80.5384,
      "duration": 0.0161,
      "velocity": 120,
      "chip": "ym2612"
    },
    {
      "channel": 1,
      "note": 52,
      "start": 80.5504,
      "duration": 0.0161,
      "velocity": 124,
      "chip": "ym2612"
    },
    {
      "channel": 0,
      "note": 40,
      "start": 80.5522,
      "duration": 0.0161,
      "velocity": 115,
      "chip": "ym2612"
    },
    {
      "channel": 4,
      "note": 65,
      "start": 80.5533,
      "duration": 0.0161,
      "velocity": 120,
      "chip": "ym2612"
    },
    {
      "channel": 3,
      "note": 72,
      "start": 80.5545,
      "duration": 0.0161,
      "velocity": 120,
      "chip": "ym2612"
    },
    {
      "channel": 1,
      "note": 51,
      "start": 80.5665,
      "duration": 0.0153,
      "velocity": 1,
      "chip": "ym2612"
    },
    {
      "channel": 0,
      "note": 40,
      "start": 80.5683,
      "duration": 0.0153,
      "velocity": 115,
      "chip": "ym2612"
    },
    {
      "channel": 4,
      "note": 65,
      "start": 80.5694,
      "duration": 0.0153,
      "velocity": 120,
      "chip": "ym2612"
    },
    {
      "channel": 3,
      "note": 72,
      "start": 80.5706,
      "duration": 0.0153,
      "velocity": 120,
      "chip": "ym2612"
    },
    {
      "channel": 0,
      "note": 40,
      "start": 80.5836,
      "duration": 0.0152,
      "velocity": 115,
      "chip": "ym2612"
    },
    {
      "channel": 4,
      "note": 65,
      "start": 80.5847,
      "duration": 0.0152,
      "velocity": 120,
      "chip": "ym2612"
    },
    {
      "channel": 3,
      "note": 72,
      "start": 80.5859,
      "duration": 0.0153,
      "velocity": 120,
      "chip": "ym2612"
    },
    {
      "channel": 0,
      "note": 41,
      "start": 80.5988,
      "duration": 0.0161,
      "velocity": 115,
      "chip": "ym2612"
    },
    {
      "channel": 4,
      "note": 65,
      "start": 80.5999,
      "duration": 0.0161,
      "velocity": 120,
      "chip": "ym2612"
    },
    {
      "channel": 3,
      "note": 72,
      "start": 80.6011,
      "duration": 0.0161,
      "velocity": 120,
      "chip": "ym2612"
    },
    {
      "channel": 0,
      "note": 41,
      "start": 80.6149,
      "duration": 0.0161,
      "velocity": 115,
      "chip": "ym2612"
    },
    {
      "channel": 4,
      "note": 65,
      "start": 80.6161,
      "duration": 0.0161,
      "velocity": 120,
      "chip": "ym2612"
    },
    {
      "channel": 3,
      "note": 72,
      "start": 80.6172,
      "duration": 0.0161,
      "velocity": 120,
      "chip": "ym2612"
    },
    {
      "channel": 2,
      "note": 53,
      "start": 80.6187,
      "duration": 0.0159,
      "velocity": 100,
      "chip": "ym2612"
    },
    {
      "channel": 1,
      "note": 41,
      "start": 80.6202,
      "duration": 0.0156,
      "velocity": 100,
      "chip": "ym2612"
    },
    {
      "channel": 0,
      "note": 42,
      "start": 80.631,
      "duration": 0.0161,
      "velocity": 115,
      "chip": "ym2612"
    },
    {
      "channel": 4,
      "note": 65,
      "start": 80.6322,
      "duration": 0.0161,
      "velocity": 120,
      "chip": "ym2612"
    },
    {
      "channel": 3,
      "note": 72,
      "start": 80.6334,
      "duration": 0.0161,
      "velocity": 120,
      "chip": "ym2612"
    },
    {
      "channel": 2,
      "note": 53,
      "start": 80.6345,
      "duration": 0.0161,
      "velocity": 100,
      "chip": "ym2612"
    },
    {
      "channel": 1,
      "note": 41,
      "start": 80.6357,
      "duration": 0.016,
      "velocity": 100,
      "chip": "ym2612"
    },
    {
      "channel": 0,
      "note": 42,
      "start": 80.6471,
      "duration": 0.0161,
      "velocity": 115,
      "chip": "ym2612"
    },
    {
      "channel": 4,
      "note": 65,
      "start": 80.6483,
      "duration": 0.0161,
      "velocity": 120,
      "chip": "ym2612"
    },
    {
      "channel": 3,
      "note": 72,
      "start": 80.6495,
      "duration": 0.0161,
      "velocity": 120,
      "chip": "ym2612"
    },
    {
      "channel": 2,
      "note": 53,
      "start": 80.6506,
      "duration": 0.0161,
      "velocity": 100,
      "chip": "ym2612"
    },
    {
      "channel": 1,
      "note": 41,
      "start": 80.6517,
      "duration": 0.0161,
      "velocity": 100,
      "chip": "ym2612"
    },
    {
      "channel": 0,
      "note": 43,
      "start": 80.6632,
      "duration": 0.0161,
      "velocity": 115,
      "chip": "ym2612"
    },
    {
      "channel": 4,
      "note": 65,
      "start": 80.6644,
      "duration": 0.0161,
      "velocity": 120,
      "chip": "ym2612"
    },
    {
      "channel": 3,
      "note": 72,
      "start": 80.6656,
      "duration": 0.0161,
      "velocity": 120,
      "chip": "ym2612"
    },
    {
      "channel": 2,
      "note": 53,
      "start": 80.6667,
      "duration": 0.0161,
      "velocity": 100,
      "chip": "ym2612"
    },
    {
      "channel": 1,
      "note": 41,
      "start": 80.6678,
      "duration": 0.0162,
      "velocity": 100,
      "chip": "ym2612"
    },
    {
      "channel": 0,
      "note": 43,
      "start": 80.6793,
      "duration": 0.0161,
      "velocity": 115,
      "chip": "ym2612"
    },
    {
      "channel": 4,
      "note": 65,
      "start": 80.6805,
      "duration": 0.0161,
      "velocity": 120,
      "chip": "ym2612"
    },
    {
      "channel": 3,
      "note": 72,
      "start": 80.6817,
      "duration": 0.0161,
      "velocity": 120,
      "chip": "ym2612"
    },
    {
      "channel": 2,
      "note": 53,
      "start": 80.6828,
      "duration": 0.0161,
      "velocity": 100,
      "chip": "ym2612"
    },
    {
      "channel": 1,
      "note": 41,
      "start": 80.684,
      "duration": 0.0161,
      "velocity": 100,
      "chip": "ym2612"
    },
    {
      "channel": 0,
      "note": 44,
      "start": 80.6954,
      "duration": 0.0161,
      "velocity": 115,
      "chip": "ym2612"
    },
    {
      "channel": 4,
      "note": 65,
      "start": 80.6966,
      "duration": 0.0161,
      "velocity": 120,
      "chip": "ym2612"
    },
    {
      "channel": 3,
      "note": 72,
      "start": 80.6978,
      "duration": 0.0161,
      "velocity": 120,
      "chip": "ym2612"
    },
    {
      "channel": 2,
      "note": 53,
      "start": 80.6989,
      "duration": 0.0161,
      "velocity": 100,
      "chip": "ym2612"
    },
    {
      "channel": 1,
      "note": 41,
      "start": 80.7,
      "duration": 0.0161,
      "velocity": 100,
      "chip": "ym2612"
    },
    {
      "channel": 0,
      "note": 44,
      "start": 80.7115,
      "duration": 0.0161,
      "velocity": 115,
      "chip": "ym2612"
    },
    {
      "channel": 4,
      "note": 65,
      "start": 80.7127,
      "duration": 0.0161,
      "velocity": 120,
      "chip": "ym2612"
    },
    {
      "channel": 3,
      "note": 72,
      "start": 80.7139,
      "duration": 0.0161,
      "velocity": 120,
      "chip": "ym2612"
    },
    {
      "channel": 2,
      "note": 53,
      "start": 80.715,
      "duration": 0.0161,
      "velocity": 100,
      "chip": "ym2612"
    },
    {
      "channel": 1,
      "note": 41,
      "start": 80.7161,
      "duration": 0.0161,
      "velocity": 100,
      "chip": "ym2612"
    },
    {
      "channel": 0,
      "note": 44,
      "start": 80.7276,
      "duration": 0.0162,
      "velocity": 115,
      "chip": "ym2612"
    },
    {
      "channel": 4,
      "note": 65,
      "start": 80.7288,
      "duration": 0.0162,
      "velocity": 120,
      "chip": "ym2612"
    },
    {
      "channel": 3,
      "note": 72,
      "start": 80.73,
      "duration": 0.0161,
      "velocity": 120,
      "chip": "ym2612"
    },
    {
      "channel": 0,
      "note": 45,
      "start": 80.7438,
      "duration": 0.016,
      "velocity": 115,
      "chip": "ym2612"
    },
    {
      "channel": 4,
      "note": 65,
      "start": 80.745,
      "duration": 0.016,
      "velocity": 120,
      "chip": "ym2612"
    },
    {
      "channel": 3,
      "note": 72,
      "start": 80.7461,
      "duration": 0.016,
      "velocity": 120,
      "chip": "ym2612"
    },
    {
      "channel": 0,
      "note": 45,
      "start": 80.7598,
      "duration": 0.0176,
      "velocity": 115,
      "chip": "ym2612"
    },
    {
      "channel": 4,
      "note": 65,
      "start": 80.761,
      "duration": 0.0175,
      "velocity": 120,
      "chip": "ym2612"
    },
    {
      "channel": 3,
      "note": 72,
      "start": 80.7621,
      "duration": 0.0176,
      "velocity": 120,
      "chip": "ym2612"
    },
    {
      "channel": 0,
      "note": 46,
      "start": 80.7773,
      "duration": 0.0167,
      "velocity": 115,
      "chip": "ym2612"
    },
    {
      "channel": 4,
      "note": 65,
      "start": 80.7785,
      "duration": 0.0167,
      "velocity": 120,
      "chip": "ym2612"
    },
    {
      "channel": 3,
      "note": 72,
      "start": 80.7797,
      "duration": 0.0167,
      "velocity": 120,
      "chip": "ym2612"
    },
    {
      "channel": 0,
      "note": 46,
      "start": 80.794,
      "duration": 0.0197,
      "velocity": 115,
      "chip": "ym2612"
    },
    {
      "channel": 4,
      "note": 65,
      "start": 80.7951,
      "duration": 0.0198,
      "velocity": 120,
      "chip": "ym2612"
    },
    {
      "channel": 3,
      "note": 72,
      "start": 80.7964,
      "duration": 0.0197,
      "velocity": 120,
      "chip": "ym2612"
    },
    {
      "channel": 1,
      "note": 78,
      "start": 80.812,
      "duration": 0.0125,
      "velocity": 124,
      "chip": "ym2612"
    },
    {
      "channel": 0,
      "note": 47,
      "start": 80.8137,
      "duration": 0.0125,
      "velocity": 115,
      "chip": "ym2612"
    },
    {
      "channel": 4,
      "note": 65,
      "start": 80.8149,
      "duration": 0.0125,
      "velocity": 120,
      "chip": "ym2612"
    },
    {
      "channel": 3,
      "note": 72,
      "start": 80.8161,
      "duration": 0.0125,
      "velocity": 120,
      "chip": "ym2612"
    },
    {
      "channel": 2,
      "note": 53,
      "start": 80.8176,
      "duration": 0.0123,
      "velocity": 100,
      "chip": "ym2612"
    },
    {
      "channel": 1,
      "note": 76,
      "start": 80.8245,
      "duration": 0.0185,
      "velocity": 124,
      "chip": "ym2612"
    },
    {
      "channel": 0,
      "note": 47,
      "start": 80.8263,
      "duration": 0.0185,
      "velocity": 115,
      "chip": "ym2612"
    },
    {
      "channel": 4,
      "note": 65,
      "start": 80.8275,
      "duration": 0.0185,
      "velocity": 120,
      "chip": "ym2612"
    },
    {
      "channel": 3,
      "note": 72,
      "start": 80.8286,
      "duration": 0.0184,
      "velocity": 120,
      "chip": "ym2612"
    },
    {
      "channel": 2,
      "note": 53,
      "start": 80.8298,
      "duration": 0.0184,
      "velocity": 100,
      "chip": "ym2612"
    },
    {
      "channel": 1,
      "note": 75,
      "start": 80.843,
      "duration": 0.0161,
      "velocity": 124,
      "chip": "ym2612"
    },
    {
      "channel": 0,
      "note": 47,
      "start": 80.8447,
      "duration": 0.0161,
      "velocity": 115,
      "chip": "ym2612"
    },
    {
      "channel": 4,
      "note": 65,
      "start": 80.8459,
      "duration": 0.0161,
      "velocity": 120,
      "chip": "ym2612"
    },
    {
      "channel": 3,
      "note": 72,
      "start": 80.8471,
      "duration": 0.0161,
      "velocity": 120,
      "chip": "ym2612"
    },
    {
      "channel": 2,
      "note": 53,
      "start": 80.8482,
      "duration": 0.0161,
      "velocity": 100,
      "chip": "ym2612"
    },
    {
      "channel": 1,
      "note": 74,
      "start": 80.8591,
      "duration": 0.0134,
      "velocity": 124,
      "chip": "ym2612"
    },
    {
      "channel": 0,
      "note": 48,
      "start": 80.8608,
      "duration": 0.0158,
      "velocity": 115,
      "chip": "ym2612"
    },
    {
      "channel": 4,
      "note": 65,
      "start": 80.862,
      "duration": 0.0158,
      "velocity": 120,
      "chip": "ym2612"
    },
    {
      "channel": 3,
      "note": 72,
      "start": 80.8632,
      "duration": 0.0158,
      "velocity": 120,
      "chip": "ym2612"
    },
    {
      "channel": 2,
      "note": 53,
      "start": 80.8643,
      "duration": 0.0158,
      "velocity": 100,
      "chip": "ym2612"
    },
    {
      "channel": 1,
      "note": 72,
      "start": 80.8724,
      "duration": 0.0161,
      "velocity": 124,
      "chip": "ym2612"
    },
    {
      "channel": 0,
      "note": 48,
      "start": 80.8766,
      "duration": 0.014,
      "velocity": 115,
      "chip": "ym2612"
    },
    {
      "channel": 4,
      "note": 65,
      "start": 80.8778,
      "duration": 0.014,
      "velocity": 120,
      "chip": "ym2612"
    },
    {
      "channel": 3,
      "note": 72,
      "start": 80.8789,
      "duration": 0.014,
      "velocity": 120,
      "chip": "ym2612"
    },
    {
      "channel": 2,
      "note": 53,
      "start": 80.8801,
      "duration": 0.014,
      "velocity": 100,
      "chip": "ym2612"
    },
    {
      "channel": 1,
      "note": 71,
      "start": 80.8885,
      "duration": 0.0161,
      "velocity": 124,
      "chip": "ym2612"
    },
    {
      "channel": 0,
      "note": 49,
      "start": 80.8906,
      "duration": 0.015,
      "velocity": 1,
      "chip": "ym2612"
    },
    {
      "channel": 4,
      "note": 65,
      "start": 80.8918,
      "duration": 0.0177,
      "velocity": 120,
      "chip": "ym2612"
    },
    {
      "channel": 3,
      "note": 72,
      "start": 80.8929,
      "duration": 0.0178,
      "velocity": 120,
      "chip": "ym2612"
    },
    {
      "channel": 2,
      "note": 53,
      "start": 80.8941,
      "duration": 0.0177,
      "velocity": 100,
      "chip": "ym2612"
    },
    {
      "channel": 1,
      "note": 70,
      "start": 80.9046,
      "duration": 0.0161,
      "velocity": 124,
      "chip": "ym2612"
    },
    {
      "channel": 4,
      "note": 65,
      "start": 80.9095,
      "duration": 0.0125,
      "velocity": 120,
      "chip": "ym2612"
    },
    {
      "channel": 3,
      "note": 72,
      "start": 80.9107,
      "duration": 0.0153,
      "velocity": 120,
      "chip": "ym2612"
    },
    {
      "channel": 2,
      "note": 53,
      "start": 80.9118,
      "duration": 0.0153,
      "velocity": 100,
      "chip": "ym2612"
    },
    {
      "channel": 1,
      "note": 69,
      "start": 80.9207,
      "duration": 0.0161,
      "velocity": 124,
      "chip": "ym2612"
    },
    {
      "channel": 4,
      "note": 65,
      "start": 80.922,
      "duration": 0.0161,
      "velocity": 120,
      "chip": "ym2612"
    },
    {
      "channel": 3,
      "note": 72,
      "start": 80.9259,
      "duration": 0.0157,
      "velocity": 120,
      "chip": "ym2612"
    },
    {
      "channel": 1,
      "note": 68,
      "start": 80.9368,
      "duration": 0.0161,
      "velocity": 124,
      "chip": "ym2612"
    },
    {
      "channel": 4,
      "note": 65,
      "start": 80.9381,
      "duration": 0.0161,
      "velocity": 120,
      "chip": "ym2612"
    },
    {
      "channel": 3,
      "note": 72,
      "start": 80.9417,
      "duration": 0.0137,
      "velocity": 120,
      "chip": "ym2612"
    },
    {
      "channel": 1,
      "note": 66,
      "start": 80.9529,
      "duration": 0.0161,
      "velocity": 124,
      "chip": "ym2612"
    },
    {
      "channel": 4,
      "note": 65,
      "start": 80.9542,
      "duration": 0.0161,
      "velocity": 120,
      "chip": "ym2612"
    },
    {
      "channel": 3,
      "note": 72,
      "start": 80.9554,
      "duration": 0.0161,
      "velocity": 120,
      "chip": "ym2612"
    },
    {
      "channel": 1,
      "note": 65,
      "start": 80.9691,
      "duration": 0.0161,
      "velocity": 124,
      "chip": "ym2612"
    },
    {
      "channel": 4,
      "note": 65,
      "start": 80.9703,
      "duration": 0.0161,
      "velocity": 120,
      "chip": "ym2612"
    },
    {
      "channel": 3,
      "note": 72,
      "start": 80.9715,
      "duration": 0.0161,
      "velocity": 120,
      "chip": "ym2612"
    },
    {
      "channel": 1,
      "note": 64,
      "start": 80.9852,
      "duration": 0.0161,
      "velocity": 124,
      "chip": "ym2612"
    },
    {
      "channel": 4,
      "note": 65,
      "start": 80.9864,
      "duration": 0.022,
      "velocity": 120,
      "chip": "ym2612"
    },
    {
      "channel": 3,
      "note": 72,
      "start": 80.9876,
      "duration": 0.022,
      "velocity": 120,
      "chip": "ym2612"
    },
    {
      "channel": 1,
      "note": 62,
      "start": 81.0013,
      "duration": 0.0161,
      "velocity": 124,
      "chip": "ym2612"
    },
    {
      "channel": 0,
      "note": 36,
      "start": 81.0048,
      "duration": 0.0144,
      "velocity": 115,
      "chip": "ym2612"
    },
    {
      "channel": 4,
      "note": 65,
      "start": 81.0084,
      "duration": 0.012,
      "velocity": 120,
      "chip": "ym2612"
    },
    {
      "channel": 3,
      "note": 72,
      "start": 81.0096,
      "duration": 0.0119,
      "velocity": 120,
      "chip": "ym2612"
    },
    {
      "channel": 2,
      "note": 53,
      "start": 81.011,
      "duration": 0.012,
      "velocity": 100,
      "chip": "ym2612"
    },
    {
      "channel": 1,
      "note": 61,
      "start": 81.0173,
      "duration": 0.0161,
      "velocity": 124,
      "chip": "ym2612"
    },
    {
      "channel": 0,
      "note": 36,
      "start": 81.0191,
      "duration": 0.016,
      "velocity": 115,
      "chip": "ym2612"
    },
    {
      "channel": 4,
      "note": 65,
      "start": 81.0203,
      "duration": 0.016,
      "velocity": 120,
      "chip": "ym2612"
    },
    {
      "channel": 3,
      "note": 72,
      "start": 81.0215,
      "duration": 0.016,
      "velocity": 120,
      "chip": "ym2612"
    },
    {
      "channel": 2,
      "note": 53,
      "start": 81.023,
      "duration": 0.0156,
      "velocity": 100,
      "chip": "ym2612"
    },
    {
      "channel": 1,
      "note": 60,
      "start": 81.0334,
      "duration": 0.0161,
      "velocity": 124,
      "chip": "ym2612"
    },
    {
      "channel": 0,
      "note": 37,
      "start": 81.0352,
      "duration": 0.0161,
      "velocity": 115,
      "chip": "ym2612"
    },
    {
      "channel": 4,
      "note": 65,
      "start": 81.0364,
      "duration": 0.0161,
      "velocity": 120,
      "chip": "ym2612"
    },
    {
      "channel": 3,
      "note": 72,
      "start": 81.0375,
      "duration": 0.0161,
      "velocity": 120,
      "chip": "ym2612"
    },
    {
      "channel": 2,
      "note": 53,
      "start": 81.0387,
      "duration": 0.0161,
      "velocity": 100,
      "chip": "ym2612"
    },
    {
      "channel": 1,
      "note": 59,
      "start": 81.0495,
      "duration": 0.0161,
      "velocity": 124,
      "chip": "ym2612"
    },
    {
      "channel": 0,
      "note": 37,
      "start": 81.0513,
      "duration": 0.0161,
      "velocity": 115,
      "chip": "ym2612"
    },
    {
      "channel": 4,
      "note": 65,
      "start": 81.0525,
      "duration": 0.0161,
      "velocity": 120,
      "chip": "ym2612"
    },
    {
      "channel": 3,
      "note": 72,
      "start": 81.0536,
      "duration": 0.0161,
      "velocity": 120,
      "chip": "ym2612"
    },
    {
      "channel": 2,
      "note": 53,
      "start": 81.0548,
      "duration": 0.0161,
      "velocity": 100,
      "chip": "ym2612"
    },
    {
      "channel": 1,
      "note": 57,
      "start": 81.0656,
      "duration": 0.0161,
      "velocity": 124,
      "chip": "ym2612"
    },
    {
      "channel": 0,
      "note": 38,
      "start": 81.0673,
      "duration": 0.0161,
      "velocity": 115,
      "chip": "ym2612"
    },
    {
      "channel": 4,
      "note": 65,
      "start": 81.0686,
      "duration": 0.0161,
      "velocity": 120,
      "chip": "ym2612"
    },
    {
      "channel": 3,
      "note": 72,
      "start": 81.0697,
      "duration": 0.0161,
      "velocity": 120,
      "chip": "ym2612"
    },
    {
      "channel": 2,
      "note": 53,
      "start": 81.0709,
      "duration": 0.0161,
      "velocity": 100,
      "chip": "ym2612"
    },
    {
      "channel": 1,
      "note": 56,
      "start": 81.0817,
      "duration": 0.0161,
      "velocity": 124,
      "chip": "ym2612"
    },
    {
      "channel": 0,
      "note": 38,
      "start": 81.0834,
      "duration": 0.0161,
      "velocity": 115,
      "chip": "ym2612"
    },
    {
      "channel": 4,
      "note": 65,
      "start": 81.0846,
      "duration": 0.0161,
      "velocity": 120,
      "chip": "ym2612"
    },
    {
      "channel": 3,
      "note": 72,
      "start": 81.0858,
      "duration": 0.0161,
      "velocity": 120,
      "chip": "ym2612"
    },
    {
      "channel": 2,
      "note": 53,
      "start": 81.0869,
      "duration": 0.0161,
      "velocity": 100,
      "chip": "ym2612"
    },
    {
      "channel": 1,
      "note": 55,
      "start": 81.0978,
      "duration": 0.0161,
      "velocity": 124,
      "chip": "ym2612"
    },
    {
      "channel": 0,
      "note": 39,
      "start": 81.0995,
      "duration": 0.0161,
      "velocity": 115,
      "chip": "ym2612"
    },
    {
      "channel": 4,
      "note": 65,
      "start": 81.1007,
      "duration": 0.0161,
      "velocity": 120,
      "chip": "ym2612"
    },
    {
      "channel": 3,
      "note": 72,
      "start": 81.102,
      "duration": 0.0161,
      "velocity": 120,
      "chip": "ym2612"
    },
    {
      "channel": 2,
      "note": 53,
      "start": 81.103,
      "duration": 0.0162,
      "velocity": 100,
      "chip": "ym2612"
    },
    {
      "channel": 1,
      "note": 53,
      "start": 81.1139,
      "duration": 0.0161,
      "velocity": 124,
      "chip": "ym2612"
    },
    {
      "channel": 0,
      "note": 39,
      "start": 81.1156,
      "duration": 0.0161,
      "velocity": 115,
      "chip": "ym2612"
    },
    {
      "channel": 4,
      "note": 65,
      "start": 81.1168,
      "duration": 0.0161,
      "velocity": 120,
      "chip": "ym2612"
    },
    {
      "channel": 3,
      "note": 72,
      "start": 81.118,
      "duration": 0.0162,
      "velocity": 120,
      "chip": "ym2612"
    },
    {
      "channel": 1,
      "note": 52,
      "start": 81.1301,
      "duration": 0.0161,
      "velocity": 124,
      "chip": "ym2612"
    },
    {
      "channel": 0,
      "note": 40,
      "start": 81.1318,
      "duration": 0.0161,
      "velocity": 115,
      "chip": "ym2612"
    },
    {
      "channel": 4,
      "note": 65,
      "start": 81.133,
      "duration": 0.0161,
      "velocity": 120,
      "chip": "ym2612"
    },
    {
      "channel": 3,
      "note": 72,
      "start": 81.1342,
      "duration": 0.016,
      "velocity": 120,
      "chip": "ym2612"
    },
    {
      "channel": 1,
      "note": 51,
      "start": 81.1462,
      "duration": 0.0153,
      "velocity": 1,
      "chip": "ym2612"
    },
    {
      "channel": 0,
      "note": 40,
      "start": 81.1479,
      "duration": 0.0153,
      "velocity": 115,
      "chip": "ym2612"
    },
    {
      "channel": 4,
      "note": 65,
      "start": 81.1491,
      "duration": 0.0153,
      "velocity": 120,
      "chip": "ym2612"
    },
    {
      "channel": 3,
      "note": 72,
      "start": 81.1502,
      "duration": 0.0153,
      "velocity": 120,
      "chip": "ym2612"
    },
    {
      "channel": 0,
      "note": 40,
      "start": 81.1632,
      "duration": 0.0153,
      "velocity": 115,
      "chip": "ym2612"
    },
    {
      "channel": 4,
      "note": 65,
      "start": 81.1644,
      "duration": 0.0153,
      "velocity": 120,
      "chip": "ym2612"
    },
    {
      "channel": 3,
      "note": 72,
      "start": 81.1655,
      "duration": 0.0153,
      "velocity": 120,
      "chip": "ym2612"
    },
    {
      "channel": 0,
      "note": 41,
      "start": 81.1784,
      "duration": 0.0161,
      "velocity": 115,
      "chip": "ym2612"
    },
    {
      "channel": 4,
      "note": 65,
      "start": 81.1796,
      "duration": 0.0161,
      "velocity": 120,
      "chip": "ym2612"
    },
    {
      "channel": 3,
      "note": 72,
      "start": 81.1808,
      "duration": 0.0161,
      "velocity": 120,
      "chip": "ym2612"
    },
    {
      "channel": 0,
      "note": 41,
      "start": 81.1945,
      "duration": 0.0161,
      "velocity": 115,
      "chip": "ym2612"
    },
    {
      "channel": 4,
      "note": 65,
      "start": 81.1957,
      "duration": 0.0161,
      "velocity": 120,
      "chip": "ym2612"
    },
    {
      "channel": 3,
      "note": 72,
      "start": 81.1969,
      "duration": 0.0161,
      "velocity": 120,
      "chip": "ym2612"
    },
    {
      "channel": 2,
      "note": 53,
      "start": 81.1983,
      "duration": 0.0158,
      "velocity": 100,
      "chip": "ym2612"
    },
    {
      "channel": 1,
      "note": 41,
      "start": 81.1998,
      "duration": 0.0156,
      "velocity": 100,
      "chip": "ym2612"
    },
    {
      "channel": 0,
      "note": 42,
      "start": 81.2106,
      "duration": 0.0162,
      "velocity": 115,
      "chip": "ym2612"
    },
    {
      "channel": 4,
      "note": 65,
      "start": 81.2118,
      "duration": 0.0161,
      "velocity": 120,
      "chip": "ym2612"
    },
    {
      "channel": 3,
      "note": 72,
      "start": 81.213,
      "duration": 0.0161,
      "velocity": 120,
      "chip": "ym2612"
    },
    {
      "channel": 2,
      "note": 53,
      "start": 81.2142,
      "duration": 0.0161,
      "velocity": 100,
      "chip": "ym2612"
    },
    {
      "channel": 1,
      "note": 41,
      "start": 81.2154,
      "duration": 0.016,
      "velocity": 100,
      "chip": "ym2612"
    },
    {
      "channel": 0,
      "note": 42,
      "start": 81.2268,
      "duration": 0.0172,
      "velocity": 115,
      "chip": "ym2612"
    },
    {
      "channel": 4,
      "note": 65,
      "start": 81.2279,
      "duration": 0.0172,
      "velocity": 120,
      "chip": "ym2612"
    },
    {
      "channel": 3,
      "note": 72,
      "start": 81.2291,
      "duration": 0.0173,
      "velocity": 120,
      "chip": "ym2612"
    },
    {
      "channel": 2,
      "note": 53,
      "start": 81.2303,
      "duration": 0.0172,
      "velocity": 100,
      "chip": "ym2612"
    },
    {
      "channel": 1,
      "note": 41,
      "start": 81.2314,
      "duration": 0.0172,
      "velocity": 100,
      "chip": "ym2612"
    },
    {
      "channel": 0,
      "note": 43,
      "start": 81.2439,
      "duration": 0.0167,
      "velocity": 115,
      "chip": "ym2612"
    },
    {
      "channel": 4,
      "note": 65,
      "start": 81.2451,
      "duration": 0.0167,
      "velocity": 120,
      "chip": "ym2612"
    },
    {
      "channel": 3,
      "note": 72,
      "start": 81.2464,
      "duration": 0.0167,
      "velocity": 120,
      "chip": "ym2612"
    },
    {
      "channel": 2,
      "note": 53,
      "start": 81.2474,
      "duration": 0.0167,
      "velocity": 100,
      "chip": "ym2612"
    },
    {
      "channel": 1,
      "note": 41,
      "start": 81.2486,
      "duration": 0.0167,
      "velocity": 100,
      "chip": "ym2612"
    },
    {
      "channel": 0,
      "note": 43,
      "start": 81.2607,
      "duration": 0.0163,
      "velocity": 115,
      "chip": "ym2612"
    },
    {
      "channel": 4,
      "note": 65,
      "start": 81.2619,
      "duration": 0.0163,
      "velocity": 120,
      "chip": "ym2612"
    },
    {
      "channel": 3,
      "note": 72,
      "start": 81.263,
      "duration": 0.0163,
      "velocity": 120,
      "chip": "ym2612"
    },
    {
      "channel": 2,
      "note": 53,
      "start": 81.2642,
      "duration": 0.0163,
      "velocity": 100,
      "chip": "ym2612"
    },
    {
      "channel": 1,
      "note": 41,
      "start": 81.2653,
      "duration": 0.0163,
      "velocity": 100,
      "chip": "ym2612"
    },
    {
      "channel": 0,
      "note": 44,
      "start": 81.277,
      "duration": 0.0145,
      "velocity": 115,
      "chip": "ym2612"
    },
    {
      "channel": 4,
      "note": 65,
      "start": 81.2782,
      "duration": 0.0145,
      "velocity": 120,
      "chip": "ym2612"
    },
    {
      "channel": 3,
      "note": 72,
      "start": 81.2793,
      "duration": 0.0145,
      "velocity": 120,
      "chip": "ym2612"
    },
    {
      "channel": 2,
      "note": 53,
      "start": 81.2805,
      "duration": 0.0145,
      "velocity": 100,
      "chip": "ym2612"
    },
    {
      "channel": 1,
      "note": 41,
      "start": 81.2816,
      "duration": 0.0145,
      "velocity": 100,
      "chip": "ym2612"
    },
    {
      "channel": 0,
      "note": 44,
      "start": 81.2915,
      "duration": 0.0185,
      "velocity": 115,
      "chip": "ym2612"
    },
    {
      "channel": 4,
      "note": 65,
      "start": 81.2927,
      "duration": 0.0185,
      "velocity": 120,
      "chip": "ym2612"
    },
    {
      "channel": 3,
      "note": 72,
      "start": 81.2938,
      "duration": 0.0185,
      "velocity": 120,
      "chip": "ym2612"
    },
    {
      "channel": 2,
      "note": 53,
      "start": 81.295,
      "duration": 0.0185,
      "velocity": 100,
      "chip": "ym2612"
    },
    {
      "channel": 1,
      "note": 41,
      "start": 81.2961,
      "duration": 0.0185,
      "velocity": 100,
      "chip": "ym2612"
    },
    {
      "channel": 0,
      "note": 44,
      "start": 81.31,
      "duration": 0.0161,
      "velocity": 115,
      "chip": "ym2612"
    },
    {
      "channel": 4,
      "note": 65,
      "start": 81.3112,
      "duration": 0.0161,
      "velocity": 120,
      "chip": "ym2612"
    },
    {
      "channel": 3,
      "note": 72,
      "start": 81.3123,
      "duration": 0.0161,
      "velocity": 120,
      "chip": "ym2612"
    },
    {
      "channel": 0,
      "note": 45,
      "start": 81.3261,
      "duration": 0.0157,
      "velocity": 115,
      "chip": "ym2612"
    },
    {
      "channel": 4,
      "note": 65,
      "start": 81.3273,
      "duration": 0.0157,
      "velocity": 120,
      "chip": "ym2612"
    },
    {
      "channel": 3,
      "note": 72,
      "start": 81.3285,
      "duration": 0.0157,
      "velocity": 120,
      "chip": "ym2612"
    },
    {
      "channel": 0,
      "note": 45,
      "start": 81.3418,
      "duration": 0.0137,
      "velocity": 115,
      "chip": "ym2612"
    },
    {
      "channel": 4,
      "note": 65,
      "start": 81.343,
      "duration": 0.0141,
      "velocity": 120,
      "chip": "ym2612"
    },
    {
      "channel": 3,
      "note": 72,
      "start": 81.3442,
      "duration": 0.014,
      "velocity": 120,
      "chip": "ym2612"
    },
    {
      "channel": 0,
      "note": 46,
      "start": 81.3555,
      "duration": 0.0161,
      "velocity": 115,
      "chip": "ym2612"
    },
    {
      "channel": 4,
      "note": 65,
      "start": 81.3571,
      "duration": 0.0185,
      "velocity": 120,
      "chip": "ym2612"
    },
    {
      "channel": 3,
      "note": 72,
      "start": 81.3582,
      "duration": 0.0186,
      "velocity": 120,
      "chip": "ym2612"
    },
    {
      "channel": 0,
      "note": 46,
      "start": 81.3716,
      "duration": 0.0206,
      "velocity": 115,
      "chip": "ym2612"
    },
    {
      "channel": 4,
      "note": 65,
      "start": 81.3756,
      "duration": 0.0179,
      "velocity": 120,
      "chip": "ym2612"
    },
    {
      "channel": 3,
      "note": 72,
      "start": 81.3768,
      "duration": 0.0179,
      "velocity": 120,
      "chip": "ym2612"
    },
    {
      "channel": 0,
      "note": 36,
      "start": 81.3923,
      "duration": 0.0116,
      "velocity": 115,
      "chip": "ym2612"
    },
    {
      "channel": 4,
      "note": 65,
      "start": 81.3935,
      "duration": 0.0116,
      "velocity": 120,
      "chip": "ym2612"
    },
    {
      "channel": 3,
      "note": 72,
      "start": 81.3947,
      "duration": 0.0139,
      "velocity": 120,
      "chip": "ym2612"
    },
    {
      "channel": 2,
      "note": 53,
      "start": 81.3961,
      "duration": 0.0137,
      "velocity": 100,
      "chip": "ym2612"
    },
    {
      "channel": 1,
      "note": 41,
      "start": 81.3976,
      "duration": 0.0135,
      "velocity": 100,
      "chip": "ym2612"
    },
    {
      "channel": 0,
      "note": 36,
      "start": 81.4039,
      "duration": 0.016,
      "velocity": 115,
      "chip": "ym2612"
    },
    {
      "channel": 4,
      "note": 65,
      "start": 81.4051,
      "duration": 0.0161,
      "velocity": 120,
      "chip": "ym2612"
    },
    {
      "channel": 3,
      "note": 72,
      "start": 81.4086,
      "duration": 0.0137,
      "velocity": 120,
      "chip": "ym2612"
    },
    {
      "channel": 2,
      "note": 53,
      "start": 81.4098,
      "duration": 0.0139,
      "velocity": 100,
      "chip": "ym2612"
    },
    {
      "channel": 1,
      "note": 41,
      "start": 81.4111,
      "duration": 0.0139,
      "velocity": 100,
      "chip": "ym2612"
    },
    {
      "channel": 0,
      "note": 37,
      "start": 81.42,
      "duration": 0.0161,
      "velocity": 115,
      "chip": "ym2612"
    },
    {
      "channel": 4,
      "note": 65,
      "start": 81.4212,
      "duration": 0.0161,
      "velocity": 120,
      "chip": "ym2612"
    },
    {
      "channel": 3,
      "note": 72,
      "start": 81.4223,
      "duration": 0.0161,
      "velocity": 120,
      "chip": "ym2612"
    },
    {
      "channel": 2,
      "note": 53,
      "start": 81.4238,
      "duration": 0.0185,
      "velocity": 100,
      "chip": "ym2612"
    },
    {
      "channel": 1,
      "note": 41,
      "start": 81.4249,
      "duration": 0.0185,
      "velocity": 100,
      "chip": "ym2612"
    },
    {
      "channel": 0,
      "note": 37,
      "start": 81.4361,
      "duration": 0.0161,
      "velocity": 115,
      "chip": "ym2612"
    },
    {
      "channel": 4,
      "note": 65,
      "start": 81.4373,
      "duration": 0.0161,
      "velocity": 120,
      "chip": "ym2612"
    },
    {
      "channel": 3,
      "note": 72,
      "start": 81.4384,
      "duration": 0.0161,
      "velocity": 120,
      "chip": "ym2612"
    },
    {
      "channel": 2,
      "note": 53,
      "start": 81.4423,
      "duration": 0.0134,
      "velocity": 100,
      "chip": "ym2612"
    },
    {
      "channel": 1,
      "note": 41,
      "start": 81.4434,
      "duration": 0.0161,
      "velocity": 100,
      "chip": "ym2612"
    },
    {
      "channel": 0,
      "note": 38,
      "start": 81.4522,
      "duration": 0.0161,
      "velocity": 115,
      "chip": "ym2612"
    },
    {
      "channel": 4,
      "note": 65,
      "start": 81.4534,
      "duration": 0.0161,
      "velocity": 120,
      "chip": "ym2612"
    },
    {
      "channel": 3,
      "note": 72,
      "start": 81.4545,
      "duration": 0.0161,
      "velocity": 120,
      "chip": "ym2612"
    },
    {
      "channel": 2,
      "note": 53,
      "start": 81.4556,
      "duration": 0.0161,
      "velocity": 100,
      "chip": "ym2612"
    },
    {
      "channel": 1,
      "note": 41,
      "start": 81.4595,
      "duration": 0.0157,
      "velocity": 100,
      "chip": "ym2612"
    },
    {
      "channel": 0,
      "note": 38,
      "start": 81.4683,
      "duration": 0.0161,
      "velocity": 115,
      "chip": "ym2612"
    },
    {
      "channel": 4,
      "note": 65,
      "start": 81.4695,
      "duration": 0.0161,
      "velocity": 120,
      "chip": "ym2612"
    },
    {
      "channel": 3,
      "note": 72,
      "start": 81.4706,
      "duration": 0.0161,
      "velocity": 120,
      "chip": "ym2612"
    },
    {
      "channel": 2,
      "note": 53,
      "start": 81.4717,
      "duration": 0.0161,
      "velocity": 100,
      "chip": "ym2612"
    },
    {
      "channel": 1,
      "note": 41,
      "start": 81.4752,
      "duration": 0.0137,
      "velocity": 100,
      "chip": "ym2612"
    },
    {
      "channel": 0,
      "note": 39,
      "start": 81.4843,
      "duration": 0.0161,
      "velocity": 115,
      "chip": "ym2612"
    },
    {
      "channel": 4,
      "note": 65,
      "start": 81.4856,
      "duration": 0.0161,
      "velocity": 120,
      "chip": "ym2612"
    },
    {
      "channel": 3,
      "note": 72,
      "start": 81.4867,
      "duration": 0.0161,
      "velocity": 120,
      "chip": "ym2612"
    },
    {
      "channel": 2,
      "note": 53,
      "start": 81.4878,
      "duration": 0.0161,
      "velocity": 100,
      "chip": "ym2612"
    },
    {
      "channel": 1,
      "note": 41,
      "start": 81.489,
      "duration": 0.0161,
      "velocity": 100,
      "chip": "ym2612"
    },
    {
      "channel": 0,
      "note": 39,
      "start": 81.5004,
      "duration": 0.0161,
      "velocity": 115,
      "chip": "ym2612"
    },
    {
      "channel": 4,
      "note": 65,
      "start": 81.5016,
      "duration": 0.0161,
      "velocity": 120,
      "chip": "ym2612"
    },
    {
      "channel": 3,
      "note": 72,
      "start": 81.5028,
      "duration": 0.0162,
      "velocity": 120,
      "chip": "ym2612"
    },
    {
      "channel": 0,
      "note": 40,
      "start": 81.5165,
      "duration": 0.0161,
      "velocity": 115,
      "chip": "ym2612"
    },
    {
      "channel": 4,
      "note": 65,
      "start": 81.5177,
      "duration": 0.0161,
      "velocity": 120,
      "chip": "ym2612"
    },
    {
      "channel": 3,
      "note": 72,
      "start": 81.519,
      "duration": 0.0161,
      "velocity": 120,
      "chip": "ym2612"
    },
    {
      "channel": 0,
      "note": 40,
      "start": 81.5326,
      "duration": 0.0161,
      "velocity": 115,
      "chip": "ym2612"
    },
    {
      "channel": 4,
      "note": 65,
      "start": 81.5338,
      "duration": 0.0161,
      "velocity": 120,
      "chip": "ym2612"
    },
    {
      "channel": 3,
      "note": 72,
      "start": 81.535,
      "duration": 0.0161,
      "velocity": 120,
      "chip": "ym2612"
    },
    {
      "channel": 0,
      "note": 40,
      "start": 81.5488,
      "duration": 0.0161,
      "velocity": 115,
      "chip": "ym2612"
    },
    {
      "channel": 4,
      "note": 65,
      "start": 81.5499,
      "duration": 0.0161,
      "velocity": 120,
      "chip": "ym2612"
    },
    {
      "channel": 3,
      "note": 72,
      "start": 81.5511,
      "duration": 0.0161,
      "velocity": 120,
      "chip": "ym2612"
    },
    {
      "channel": 0,
      "note": 41,
      "start": 81.5649,
      "duration": 0.0195,
      "velocity": 115,
      "chip": "ym2612"
    },
    {
      "channel": 4,
      "note": 65,
      "start": 81.5661,
      "duration": 0.0195,
      "velocity": 120,
      "chip": "ym2612"
    },
    {
      "channel": 3,
      "note": 72,
      "start": 81.5672,
      "duration": 0.0195,
      "velocity": 120,
      "chip": "ym2612"
    },
    {
      "channel": 1,
      "note": 78,
      "start": 81.5827,
      "duration": 0.0144,
      "velocity": 124,
      "chip": "ym2612"
    },
    {
      "channel": 0,
      "note": 41,
      "start": 81.5844,
      "duration": 0.0144,
      "velocity": 115,
      "chip": "ym2612"
    },
    {
      "channel": 4,
      "note": 65,
      "start": 81.5856,
      "duration": 0.0144,
      "velocity": 120,
      "chip": "ym2612"
    },
    {
      "channel": 3,
      "note": 72,
      "start": 81.5868,
      "duration": 0.0144,
      "velocity": 120,
      "chip": "ym2612"
    },
    {
      "channel": 2,
      "note": 53,
      "start": 81.5882,
      "duration": 0.0141,
      "velocity": 100,
      "chip": "ym2612"
    },
    {
      "channel": 1,
      "note": 76,
      "start": 81.5971,
      "duration": 0.016,
      "velocity": 124,
      "chip": "ym2612"
    },
    {
      "channel": 0,
      "note": 42,
      "start": 81.5988,
      "duration": 0.016,
      "velocity": 115,
      "chip": "ym2612"
    },
    {
      "channel": 4,
      "note": 65,
      "start": 81.6,
      "duration": 0.016,
      "velocity": 120,
      "chip": "ym2612"
    },
    {
      "channel": 3,
      "note": 72,
      "start": 81.6011,
      "duration": 0.016,
      "velocity": 120,
      "chip": "ym2612"
    },
    {
      "channel": 2,
      "note": 53,
      "start": 81.6023,
      "duration": 0.016,
      "velocity": 100,
      "chip": "ym2612"
    },
    {
      "channel": 1,
      "note": 75,
      "start": 81.6131,
      "duration": 0.0161,
      "velocity": 124,
      "chip": "ym2612"
    },
    {
      "channel": 0,
      "note": 42,
      "start": 81.6148,
      "duration": 0.0161,
      "velocity": 115,
      "chip": "ym2612"
    },
    {
      "channel": 4,
      "note": 65,
      "start": 81.616,
      "duration": 0.0161,
      "velocity": 120,
      "chip": "ym2612"
    },
    {
      "channel": 3,
      "note": 72,
      "start": 81.6172,
      "duration": 0.0161,
      "velocity": 120,
      "chip": "ym2612"
    },
    {
      "channel": 2,
      "note": 53,
      "start": 81.6183,
      "duration": 0.0161,
      "velocity": 100,
      "chip": "ym2612"
    },
    {
      "channel": 1,
      "note": 74,
      "start": 81.6292,
      "duration": 0.0161,
      "velocity": 124,
      "chip": "ym2612"
    },
    {
      "channel": 0,
      "note": 43,
      "start": 81.6309,
      "duration": 0.0161,
      "velocity": 115,
      "chip": "ym2612"
    },
    {
      "channel": 4,
      "note": 65,
      "start": 81.6321,
      "duration": 0.0161,
      "velocity": 120,
      "chip": "ym2612"
    },
    {
      "channel": 3,
      "note": 72,
      "start": 81.6333,
      "duration": 0.0161,
      "velocity": 120,
      "chip": "ym2612"
    },
    {
      "channel": 2,
      "note": 53,
      "start": 81.6344,
      "duration": 0.0162,
      "velocity": 100,
      "chip": "ym2612"
    },
    {
      "channel": 1,
      "note": 72,
      "start": 81.6453,
      "duration": 0.0161,
      "velocity": 124,
      "chip": "ym2612"
    },
    {
      "channel": 0,
      "note": 43,
      "start": 81.647,
      "duration": 0.0161,
      "velocity": 115,
      "chip": "ym2612"
    },
    {
      "channel": 4,
      "note": 65,
      "start": 81.6482,
      "duration": 0.0161,
      "velocity": 120,
      "chip": "ym2612"
    },
    {
      "channel": 3,
      "note": 72,
      "start": 81.6494,
      "duration": 0.016,
      "velocity": 120,
      "chip": "ym2612"
    },
    {
      "channel": 2,
      "note": 53,
      "start": 81.6506,
      "duration": 0.016,
      "velocity": 100,
      "chip": "ym2612"
    },
    {
      "channel": 1,
      "note": 71,
      "start": 81.6614,
      "duration": 0.0161,
      "velocity": 124,
      "chip": "ym2612"
    },
    {
      "channel": 0,
      "note": 44,
      "start": 81.6631,
      "duration": 0.0162,
      "velocity": 115,
      "chip": "ym2612"
    },
    {
      "channel": 4,
      "note": 65,
      "start": 81.6643,
      "duration": 0.0161,
      "velocity": 120,
      "chip": "ym2612"
    },
    {
      "channel": 3,
      "note": 72,
      "start": 81.6654,
      "duration": 0.0162,
      "velocity": 120,
      "chip": "ym2612"
    },
    {
      "channel": 2,
      "note": 53,
      "start": 81.6666,
      "duration": 0.0161,
      "velocity": 100,
      "chip": "ym2612"
    },
    {
      "channel": 1,
      "note": 70,
      "start": 81.6775,
      "duration": 0.0161,
      "velocity": 124,
      "chip": "ym2612"
    },
    {
      "channel": 0,
      "note": 44,
      "start": 81.6793,
      "duration": 0.0161,
      "velocity": 115,
      "chip": "ym2612"
    },
    {
      "channel": 4,
      "note": 65,
      "start": 81.6804,
      "duration": 0.0161,
      "velocity": 120,
      "chip": "ym2612"
    },
    {
      "channel": 3,
      "note": 72,
      "start": 81.6816,
      "duration": 0.0161,
      "velocity": 120,
      "chip": "ym2612"
    },
    {
      "channel": 2,
      "note": 53,
      "start": 81.6827,
      "duration": 0.0161,
      "velocity": 100,
      "chip": "ym2612"
    },
    {
      "channel": 1,
      "note": 69,
      "start": 81.6936,
      "duration": 0.017,
      "velocity": 124,
      "chip": "ym2612"
    },
    {
      "channel": 0,
      "note": 44,
      "start": 81.6954,
      "duration": 0.017,
      "velocity": 115,
      "chip": "ym2612"
    },
    {
      "channel": 4,
      "note": 65,
      "start": 81.6965,
      "duration": 0.017,
      "velocity": 120,
      "chip": "ym2612"
    },
    {
      "channel": 3,
      "note": 72,
      "start": 81.6977,
      "duration": 0.017,
      "velocity": 120,
      "chip": "ym2612"
    },
    {
      "channel": 1,
      "note": 68,
      "start": 81.7105,
      "duration": 0.0167,
      "velocity": 124,
      "chip": "ym2612"
    },
    {
      "channel": 0,
      "note": 45,
      "start": 81.7123,
      "duration": 0.0167,
      "velocity": 115,
      "chip": "ym2612"
    },
    {
      "channel": 4,
      "note": 65,
      "start": 81.7135,
      "duration": 0.0167,
      "velocity": 120,
      "chip": "ym2612"
    },
    {
      "channel": 3,
      "note": 72,
      "start": 81.7147,
      "duration": 0.0167,
      "velocity": 120,
      "chip": "ym2612"
    },
    {
      "channel": 1,
      "note": 66,
      "start": 81.7272,
      "duration": 0.0163,
      "velocity": 124,
      "chip": "ym2612"
    },
    {
      "channel": 0,
      "note": 45,
      "start": 81.729,
      "duration": 0.0163,
      "velocity": 115,
      "chip": "ym2612"
    },
    {
      "channel": 4,
      "note": 65,
      "start": 81.7301,
      "duration": 0.0163,
      "velocity": 120,
      "chip": "ym2612"
    },
    {
      "channel": 3,
      "note": 72,
      "start": 81.7314,
      "duration": 0.0163,
      "velocity": 120,
      "chip": "ym2612"
    },
    {
      "channel": 1,
      "note": 65,
      "start": 81.7436,
      "duration": 0.0146,
      "velocity": 124,
      "chip": "ym2612"
    },
    {
      "channel": 0,
      "note": 46,
      "start": 81.7453,
      "duration": 0.0146,
      "velocity": 115,
      "chip": "ym2612"
    },
    {
      "channel": 4,
      "note": 65,
      "start": 81.7465,
      "duration": 0.0146,
      "velocity": 120,
      "chip": "ym2612"
    },
    {
      "channel": 3,
      "note": 72,
      "start": 81.7476,
      "duration": 0.0146,
      "velocity": 120,
      "chip": "ym2612"
    },
    {
      "channel": 1,
      "note": 64,
      "start": 81.7582,
      "duration": 0.0186,
      "velocity": 124,
      "chip": "ym2612"
    },
    {
      "channel": 0,
      "note": 46,
      "start": 81.7599,
      "duration": 0.0204,
      "velocity": 115,
      "chip": "ym2612"
    },
    {
      "channel": 4,
      "note": 65,
      "start": 81.7611,
      "duration": 0.0204,
      "velocity": 120,
      "chip": "ym2612"
    },
    {
      "channel": 3,
      "note": 72,
      "start": 81.7623,
      "duration": 0.0205,
      "velocity": 120,
      "chip": "ym2612"
    },
    {
      "channel": 1,
      "note": 62,
      "start": 81.7768,
      "duration": 0.0161,
      "velocity": 124,
      "chip": "ym2612"
    },
    {
      "channel": 0,
      "note": 36,
      "start": 81.7803,
      "duration": 0.0144,
      "velocity": 115,
      "chip": "ym2612"
    },
    {
      "channel": 4,
      "note": 65,
      "start": 81.7815,
      "duration": 0.0144,
      "velocity": 120,
      "chip": "ym2612"
    },
    {
      "channel": 3,
      "note": 72,
      "start": 81.7827,
      "duration": 0.0143,
      "velocity": 120,
      "chip": "ym2612"
    },
    {
      "channel": 2,
      "note": 53,
      "start": 81.7842,
      "duration": 0.0141,
      "velocity": 100,
      "chip": "ym2612"
    },
    {
      "channel": 1,
      "note": 61,
      "start": 81.7929,
      "duration": 0.0158,
      "velocity": 124,
      "chip": "ym2612"
    },
    {
      "channel": 0,
      "note": 36,
      "start": 81.7947,
      "duration": 0.0157,
      "velocity": 115,
      "chip": "ym2612"
    },
    {
      "channel": 4,
      "note": 65,
      "start": 81.7959,
      "duration": 0.0157,
      "velocity": 120,
      "chip": "ym2612"
    },
    {
      "channel": 3,
      "note": 72,
      "start": 81.7971,
      "duration": 0.0157,
      "velocity": 120,
      "chip": "ym2612"
    },
    {
      "channel": 2,
      "note": 53,
      "start": 81.7983,
      "duration": 0.0156,
      "velocity": 100,
      "chip": "ym2612"
    },
    {
      "channel": 1,
      "note": 60,
      "start": 81.8087,
      "duration": 0.0137,
      "velocity": 124,
      "chip": "ym2612"
    },
    {
      "channel": 0,
      "note": 37,
      "start": 81.8104,
      "duration": 0.014,
      "velocity": 115,
      "chip": "ym2612"
    },
    {
      "channel": 4,
      "note": 65,
      "start": 81.8116,
      "duration": 0.014,
      "velocity": 120,
      "chip": "ym2612"
    },
    {
      "channel": 3,
      "note": 72,
      "start": 81.8128,
      "duration": 0.0141,
      "velocity": 120,
      "chip": "ym2612"
    },
    {
      "channel": 2,
      "note": 53,
      "start": 81.8139,
      "duration": 0.014,
      "velocity": 100,
      "chip": "ym2612"
    },
    {
      "channel": 1,
      "note": 59,
      "start": 81.8224,
      "duration": 0.0161,
      "velocity": 124,
      "chip": "ym2612"
    },
    {
      "channel": 0,
      "note": 37,
      "start": 81.8244,
      "duration": 0.0186,
      "velocity": 115,
      "chip": "ym2612"
    },
    {
      "channel": 4,
      "note": 65,
      "start": 81.8256,
      "duration": 0.0185,
      "velocity": 120,
      "chip": "ym2612"
    },
    {
      "channel": 3,
      "note": 72,
      "start": 81.8268,
      "duration": 0.0185,
      "velocity": 120,
      "chip": "ym2612"
    },
    {
      "channel": 2,
      "note": 53,
      "start": 81.8279,
      "duration": 0.0186,
      "velocity": 100,
      "chip": "ym2612"
    },
    {
      "channel": 1,
      "note": 57,
      "start": 81.8385,
      "duration": 0.0161,
      "velocity": 124,
      "chip": "ym2612"
    },
    {
      "channel": 0,
      "note": 38,
      "start": 81.843,
      "duration": 0.0161,
      "velocity": 115,
      "chip": "ym2612"
    },
    {
      "channel": 4,
      "note": 65,
      "start": 81.8441,
      "duration": 0.0161,
      "velocity": 120,
      "chip": "ym2612"
    },
    {
      "channel": 3,
      "note": 72,
      "start": 81.8454,
      "duration": 0.0161,
      "velocity": 120,
      "chip": "ym2612"
    },
    {
      "channel": 2,
      "note": 53,
      "start": 81.8465,
      "duration": 0.0161,
      "velocity": 100,
      "chip": "ym2612"
    },
    {
      "channel": 1,
      "note": 56,
      "start": 81.8546,
      "duration": 0.0161,
      "velocity": 124,
      "chip": "ym2612"
    },
    {
      "channel": 0,
      "note": 38,
      "start": 81.8591,
      "duration": 0.0134,
      "velocity": 115,
      "chip": "ym2612"
    },
    {
      "channel": 4,
      "note": 65,
      "start": 81.8602,
      "duration": 0.0158,
      "velocity": 120,
      "chip": "ym2612"
    },
    {
      "channel": 3,
      "note": 72,
      "start": 81.8614,
      "duration": 0.0158,
      "velocity": 120,
      "chip": "ym2612"
    },
    {
      "channel": 2,
      "note": 53,
      "start": 81.8626,
      "duration": 0.0158,
      "velocity": 100,
      "chip": "ym2612"
    },
    {
      "channel": 1,
      "note": 55,
      "start": 81.8707,
      "duration": 0.0161,
      "velocity": 124,
      "chip": "ym2612"
    },
    {
      "channel": 0,
      "note": 39,
      "start": 81.8724,
      "duration": 0.0161,
      "velocity": 115,
      "chip": "ym2612"
    },
    {
      "channel": 4,
      "note": 65,
      "start": 81.876,
      "duration": 0.0141,
      "velocity": 120,
      "chip": "ym2612"
    },
    {
      "channel": 3,
      "note": 72,
      "start": 81.8772,
      "duration": 0.014,
      "velocity": 120,
      "chip": "ym2612"
    },
    {
      "channel": 2,
      "note": 53,
      "start": 81.8784,
      "duration": 0.014,
      "velocity": 100,
      "chip": "ym2612"
    },
    {
      "channel": 1,
      "note": 53,
      "start": 81.8868,
      "duration": 0.0161,
      "velocity": 124,
      "chip": "ym2612"
    },
    {
      "channel": 0,
      "note": 39,
      "start": 81.8885,
      "duration": 0.0161,
      "velocity": 115,
      "chip": "ym2612"
    },
    {
      "channel": 4,
      "note": 65,
      "start": 81.8901,
      "duration": 0.0158,
      "velocity": 120,
      "chip": "ym2612"
    },
    {
      "channel": 3,
      "note": 72,
      "start": 81.8912,
      "duration": 0.0186,
      "velocity": 120,
      "chip": "ym2612"
    },
    {
      "channel": 1,
      "note": 52,
      "start": 81.9029,
      "duration": 0.0161,
      "velocity": 124,
      "chip": "ym2612"
    },
    {
      "channel": 0,
      "note": 40,
      "start": 81.9046,
      "duration": 0.0161,
      "velocity": 115,
      "chip": "ym2612"
    },
    {
      "channel": 4,
      "note": 65,
      "start": 81.9059,
      "duration": 0.0161,
      "velocity": 120,
      "chip": "ym2612"
    },
    {
      "channel": 3,
      "note": 72,
      "start": 81.9098,
      "duration": 0.0161,
      "velocity": 120,
      "chip": "ym2612"
    },
    {
      "channel": 1,
      "note": 51,
      "start": 81.919,
      "duration": 0.0153,
      "velocity": 1,
      "chip": "ym2612"
    },
    {
      "channel": 0,
      "note": 40,
      "start": 81.9207,
      "duration": 0.0153,
      "velocity": 115,
      "chip": "ym2612"
    },
    {
      "channel": 4,
      "note": 65,
      "start": 81.9219,
      "duration": 0.0153,
      "velocity": 120,
      "chip": "ym2612"
    },
    {
      "channel": 3,
      "note": 72,
      "start": 81.9259,
      "duration": 0.0125,
      "velocity": 120,
      "chip": "ym2612"
    },
    {
      "channel": 0,
      "note": 40,
      "start": 81.9361,
      "duration": 0.0152,
      "velocity": 115,
      "chip": "ym2612"
    },
    {
      "channel": 4,
      "note": 65,
      "start": 81.9372,
      "duration": 0.0153,
      "velocity": 120,
      "chip": "ym2612"
    },
    {
      "channel": 3,
      "note": 72,
      "start": 81.9384,
      "duration": 0.0152,
      "velocity": 120,
      "chip": "ym2612"
    },
    {
      "channel": 0,
      "note": 41,
      "start": 81.9513,
      "duration": 0.0179,
      "velocity": 115,
      "chip": "ym2612"
    },
    {
      "channel": 4,
      "note": 65,
      "start": 81.9525,
      "duration": 0.0181,
      "velocity": 120,
      "chip": "ym2612"
    },
    {
      "channel": 3,
      "note": 72,
      "start": 81.9536,
      "duration": 0.0184,
      "velocity": 120,
      "chip": "ym2612"
    },
    {
      "channel": 0,
      "note": 36,
      "start": 81.9691,
      "duration": 0.0144,
      "velocity": 115,
      "chip": "ym2612"
    },
    {
      "channel": 4,
      "note": 68,
      "start": 81.9706,
      "duration": 0.0142,
      "velocity": 120,
      "chip": "ym2612"
    },
    {
      "channel": 3,
      "note": 75,
      "start": 81.972,
      "duration": 0.014,
      "velocity": 120,
      "chip": "ym2612"
    },
    {
      "channel": 2,
      "note": 56,
      "start": 81.9762,
      "duration": 0.011,
      "velocity": 100,
      "chip": "ym2612"
    },
    {
      "channel": 1,
      "note": 44,
      "start": 81.9777,
      "duration": 0.0107,
      "velocity": 100,
      "chip": "ym2612"
    },
    {
      "channel": 0,
      "note": 36,
      "start": 81.9836,
      "duration": 0.016,
      "velocity": 115,
      "chip": "ym2612"
    },
    {
      "channel": 4,
      "note": 68,
      "start": 81.9848,
      "duration": 0.016,
      "velocity": 120,
      "chip": "ym2612"
    },
    {
      "channel": 3,
      "note": 75,
      "start": 81.986,
      "duration": 0.0159,
      "velocity": 120,
      "chip": "ym2612"
    },
    {
      "channel": 2,
      "note": 56,
      "start": 81.9871,
      "duration": 0.0159,
      "velocity": 100,
      "chip": "ym2612"
    },
    {
      "channel": 1,
      "note": 44,
      "start": 81.9883,
      "duration": 0.0159,
      "velocity": 100,
      "chip": "ym2612"
    },
    {
      "channel": 0,
      "note": 37,
      "start": 81.9996,
      "duration": 0.0161,
      "velocity": 115,
      "chip": "ym2612"
    },
    {
      "channel": 4,
      "note": 68,
      "start": 82.0007,
      "duration": 0.0161,
      "velocity": 120,
      "chip": "ym2612"
    },
    {
      "channel": 3,
      "note": 75,
      "start": 82.0019,
      "duration": 0.0161,
      "velocity": 120,
      "chip": "ym2612"
    },
    {
      "channel": 2,
      "note": 56,
      "start": 82.003,
      "duration": 0.0161,
      "velocity": 100,
      "chip": "ym2612"
    },
    {
      "channel": 1,
      "note": 44,
      "start": 82.0042,
      "duration": 0.0161,
      "velocity": 100,
      "chip": "ym2612"
    },
    {
      "channel": 0,
      "note": 37,
      "start": 82.0157,
      "duration": 0.0161,
      "velocity": 115,
      "chip": "ym2612"
    },
    {
      "channel": 4,
      "note": 68,
      "start": 82.0168,
      "duration": 0.0161,
      "velocity": 120,
      "chip": "ym2612"
    },
    {
      "channel": 3,
      "note": 75,
      "start": 82.018,
      "duration": 0.0161,
      "velocity": 120,
      "chip": "ym2612"
    },
    {
      "channel": 2,
      "note": 56,
      "start": 82.0191,
      "duration": 0.0161,
      "velocity": 100,
      "chip": "ym2612"
    },
    {
      "channel": 1,
      "note": 44,
      "start": 82.0203,
      "duration": 0.0161,
      "velocity": 100,
      "chip": "ym2612"
    },
    {
      "channel": 0,
      "note": 38,
      "start": 82.0318,
      "duration": 0.0161,
      "velocity": 115,
      "chip": "ym2612"
    },
    {
      "channel": 4,
      "note": 68,
      "start": 82.0329,
      "duration": 0.0161,
      "velocity": 120,
      "chip": "ym2612"
    },
    {
      "channel": 3,
      "note": 75,
      "start": 82.0341,
      "duration": 0.0161,
      "velocity": 120,
      "chip": "ym2612"
    },
    {
      "channel": 2,
      "note": 56,
      "start": 82.0352,
      "duration": 0.0161,
      "velocity": 100,
      "chip": "ym2612"
    },
    {
      "channel": 1,
      "note": 44,
      "start": 82.0364,
      "duration": 0.0161,
      "velocity": 100,
      "chip": "ym2612"
    },
    {
      "channel": 0,
      "note": 38,
      "start": 82.0479,
      "duration": 0.0161,
      "velocity": 115,
      "chip": "ym2612"
    },
    {
      "channel": 4,
      "note": 68,
      "start": 82.049,
      "duration": 0.0161,
      "velocity": 120,
      "chip": "ym2612"
    },
    {
      "channel": 3,
      "note": 75,
      "start": 82.0502,
      "duration": 0.0161,
      "velocity": 120,
      "chip": "ym2612"
    },
    {
      "channel": 2,
      "note": 56,
      "start": 82.0513,
      "duration": 0.0161,
      "velocity": 100,
      "chip": "ym2612"
    },
    {
      "channel": 1,
      "note": 44,
      "start": 82.0525,
      "duration": 0.0161,
      "velocity": 100,
      "chip": "ym2612"
    },
    {
      "channel": 0,
      "note": 39,
      "start": 82.064,
      "duration": 0.0161,
      "velocity": 115,
      "chip": "ym2612"
    },
    {
      "channel": 4,
      "note": 68,
      "start": 82.0651,
      "duration": 0.0161,
      "velocity": 120,
      "chip": "ym2612"
    },
    {
      "channel": 3,
      "note": 75,
      "start": 82.0663,
      "duration": 0.0161,
      "velocity": 120,
      "chip": "ym2612"
    },
    {
      "channel": 2,
      "note": 56,
      "start": 82.0674,
      "duration": 0.0161,
      "velocity": 100,
      "chip": "ym2612"
    },
    {
      "channel": 1,
      "note": 44,
      "start": 82.0686,
      "duration": 0.0161,
      "velocity": 100,
      "chip": "ym2612"
    },
    {
      "channel": 0,
      "note": 39,
      "start": 82.0801,
      "duration": 0.0161,
      "velocity": 115,
      "chip": "ym2612"
    },
    {
      "channel": 4,
      "note": 68,
      "start": 82.0812,
      "duration": 0.0162,
      "velocity": 120,
      "chip": "ym2612"
    },
    {
      "channel": 3,
      "note": 75,
      "start": 82.0824,
      "duration": 0.0161,
      "velocity": 120,
      "chip": "ym2612"
    },
    {
      "channel": 0,
      "note": 40,
      "start": 82.0962,
      "duration": 0.0161,
      "velocity": 115,
      "chip": "ym2612"
    },
    {
      "channel": 4,
      "note": 68,
      "start": 82.0974,
      "duration": 0.0161,
      "velocity": 120,
      "chip": "ym2612"
    },
    {
      "channel": 3,
      "note": 75,
      "start": 82.0985,
      "duration": 0.0161,
      "velocity": 120,
      "chip": "ym2612"
    },
    {
      "channel": 0,
      "note": 40,
      "start": 82.1123,
      "duration": 0.0162,
      "velocity": 115,
      "chip": "ym2612"
    },
    {
      "channel": 4,
      "note": 68,
      "start": 82.1135,
      "duration": 0.0161,
      "velocity": 120,
      "chip": "ym2612"
    },
    {
      "channel": 3,
      "note": 75,
      "start": 82.1146,
      "duration": 0.0161,
      "velocity": 120,
      "chip": "ym2612"
    },
    {
      "channel": 0,
      "note": 40,
      "start": 82.1284,
      "duration": 0.0161,
      "velocity": 115,
      "chip": "ym2612"
    },
    {
      "channel": 4,
      "note": 68,
      "start": 82.1296,
      "duration": 0.0161,
      "velocity": 120,
      "chip": "ym2612"
    },
    {
      "channel": 3,
      "note": 75,
      "start": 82.1307,
      "duration": 0.0161,
      "velocity": 120,
      "chip": "ym2612"
    },
    {
      "channel": 0,
      "note": 41,
      "start": 82.1445,
      "duration": 0.0161,
      "velocity": 115,
      "chip": "ym2612"
    },
    {
      "channel": 4,
      "note": 68,
      "start": 82.1457,
      "duration": 0.0161,
      "velocity": 120,
      "chip": "ym2612"
    },
    {
      "channel": 3,
      "note": 75,
      "start": 82.1468,
      "duration": 0.0162,
      "velocity": 120,
      "chip": "ym2612"
    },
    {
      "channel": 0,
      "note": 41,
      "start": 82.1606,
      "duration": 0.0167,
      "velocity": 115,
      "chip": "ym2612"
    },
    {
      "channel": 4,
      "note": 68,
      "start": 82.1618,
      "duration": 0.0167,
      "velocity": 120,
      "chip": "ym2612"
    },
    {
      "channel": 3,
      "note": 75,
      "start": 82.163,
      "duration": 0.0167,
      "velocity": 120,
      "chip": "ym2612"
    },
    {
      "channel": 2,
      "note": 56,
      "start": 82.1644,
      "duration": 0.0164,
      "velocity": 100,
      "chip": "ym2612"
    },
    {
      "channel": 1,
      "note": 44,
      "start": 82.1659,
      "duration": 0.0161,
      "velocity": 100,
      "chip": "ym2612"
    },
    {
      "channel": 0,
      "note": 42,
      "start": 82.1773,
      "duration": 0.0167,
      "velocity": 115,
      "chip": "ym2612"
    },
    {
      "channel": 4,
      "note": 68,
      "start": 82.1785,
      "duration": 0.0167,
      "velocity": 120,
      "chip": "ym2612"
    },
    {
      "channel": 3,
      "note": 75,
      "start": 82.1797,
      "duration": 0.0167,
      "velocity": 120,
      "chip": "ym2612"
    },
    {
      "channel": 2,
      "note": 56,
      "start": 82.1808,
      "duration": 0.0167,
      "velocity": 100,
      "chip": "ym2612"
    },
    {
      "channel": 1,
      "note": 44,
      "start": 82.182,
      "duration": 0.0166,
      "velocity": 100,
      "chip": "ym2612"
    },
    {
      "channel": 0,
      "note": 42,
      "start": 82.194,
      "duration": 0.0163,
      "velocity": 115,
      "chip": "ym2612"
    },
    {
      "channel": 4,
      "note": 68,
      "start": 82.1952,
      "duration": 0.0163,
      "velocity": 120,
      "chip": "ym2612"
    },
    {
      "channel": 3,
      "note": 75,
      "start": 82.1964,
      "duration": 0.0163,
      "velocity": 120,
      "chip": "ym2612"
    },
    {
      "channel": 2,
      "note": 56,
      "start": 82.1975,
      "duration": 0.0163,
      "velocity": 100,
      "chip": "ym2612"
    },
    {
      "channel": 1,
      "note": 44,
      "start": 82.1987,
      "duration": 0.0163,
      "velocity": 100,
      "chip": "ym2612"
    },
    {
      "channel": 0,
      "note": 43,
      "start": 82.2103,
      "duration": 0.0148,
      "velocity": 115,
      "chip": "ym2612"
    },
    {
      "channel": 4,
      "note": 68,
      "start": 82.2115,
      "duration": 0.0147,
      "velocity": 120,
      "chip": "ym2612"
    },
    {
      "channel": 3,
      "note": 75,
      "start": 82.2127,
      "duration": 0.0148,
      "velocity": 120,
      "chip": "ym2612"
    },
    {
      "channel": 2,
      "note": 56,
      "start": 82.2138,
      "duration": 0.0148,
      "velocity": 100,
      "chip": "ym2612"
    },
    {
      "channel": 1,
      "note": 44,
      "start": 82.2149,
      "duration": 0.0147,
      "velocity": 100,
      "chip": "ym2612"
    },
    {
      "channel": 0,
      "note": 43,
      "start": 82.2251,
      "duration": 0.0188,
      "velocity": 115,
      "chip": "ym2612"
    },
    {
      "channel": 4,
      "note": 68,
      "start": 82.2262,
      "duration": 0.0188,
      "velocity": 120,
      "chip": "ym2612"
    },
    {
      "channel": 3,
      "note": 75,
      "start": 82.2274,
      "duration": 0.0188,
      "velocity": 120,
      "chip": "ym2612"
    },
    {
      "channel": 2,
      "note": 56,
      "start": 82.2285,
      "duration": 0.0188,
      "velocity": 100,
      "chip": "ym2612"
    },
    {
      "channel": 1,
      "note": 44,
      "start": 82.2296,
      "duration": 0.0188,
      "velocity": 100,
      "chip": "ym2612"
    },
    {
      "channel": 0,
      "note": 44,
      "start": 82.2439,
      "duration": 0.0161,
      "velocity": 115,
      "chip": "ym2612"
    },
    {
      "channel": 4,
      "note": 68,
      "start": 82.245,
      "duration": 0.0161,
      "velocity": 120,
      "chip": "ym2612"
    },
    {
      "channel": 3,
      "note": 75,
      "start": 82.2462,
      "duration": 0.0161,
      "velocity": 120,
      "chip": "ym2612"
    },
    {
      "channel": 2,
      "note": 56,
      "start": 82.2474,
      "duration": 0.0161,
      "velocity": 100,
      "chip": "ym2612"
    },
    {
      "channel": 1,
      "note": 44,
      "start": 82.2485,
      "duration": 0.0161,
      "velocity": 100,
      "chip": "ym2612"
    },
    {
      "channel": 0,
      "note": 44,
      "start": 82.26,
      "duration": 0.0157,
      "velocity": 115,
      "chip": "ym2612"
    },
    {
      "channel": 4,
      "note": 68,
      "start": 82.2611,
      "duration": 0.0158,
      "velocity": 120,
      "chip": "ym2612"
    },
    {
      "channel": 3,
      "note": 75,
      "start": 82.2623,
      "duration": 0.0157,
      "velocity": 120,
      "chip": "ym2612"
    },
    {
      "channel": 2,
      "note": 56,
      "start": 82.2635,
      "duration": 0.0157,
      "velocity": 100,
      "chip": "ym2612"
    },
    {
      "channel": 1,
      "note": 44,
      "start": 82.2646,
      "duration": 0.0158,
      "velocity": 100,
      "chip": "ym2612"
    },
    {
      "channel": 0,
      "note": 44,
      "start": 82.2757,
      "duration": 0.0141,
      "velocity": 115,
      "chip": "ym2612"
    },
    {
      "channel": 4,
      "note": 68,
      "start": 82.2769,
      "duration": 0.0141,
      "velocity": 120,
      "chip": "ym2612"
    },
    {
      "channel": 3,
      "note": 75,
      "start": 82.278,
      "duration": 0.0141,
      "velocity": 120,
      "chip": "ym2612"
    },
    {
      "channel": 0,
      "note": 45,
      "start": 82.2898,
      "duration": 0.0158,
      "velocity": 115,
      "chip": "ym2612"
    },
    {
      "channel": 4,
      "note": 68,
      "start": 82.291,
      "duration": 0.0185,
      "velocity": 120,
      "chip": "ym2612"
    },
    {
      "channel": 3,
      "note": 75,
      "start": 82.2921,
      "duration": 0.0185,
      "velocity": 120,
      "chip": "ym2612"
    },
    {
      "channel": 0,
      "note": 45,
      "start": 82.3055,
      "duration": 0.0161,
      "velocity": 115,
      "chip": "ym2612"
    },
    {
      "channel": 4,
      "note": 68,
      "start": 82.3095,
      "duration": 0.0161,
      "velocity": 120,
      "chip": "ym2612"
    },
    {
      "channel": 3,
      "note": 75,
      "start": 82.3106,
      "duration": 0.0161,
      "velocity": 120,
      "chip": "ym2612"
    },
    {
      "channel": 0,
      "note": 46,
      "start": 82.3216,
      "duration": 0.0161,
      "velocity": 115,
      "chip": "ym2612"
    },
    {
      "channel": 4,
      "note": 68,
      "start": 82.3256,
      "duration": 0.0134,
      "velocity": 120,
      "chip": "ym2612"
    },
    {
      "channel": 3,
      "note": 75,
      "start": 82.3267,
      "duration": 0.0158,
      "velocity": 120,
      "chip": "ym2612"
    },
    {
      "channel": 0,
      "note": 46,
      "start": 82.3377,
      "duration": 0.0199,
      "velocity": 115,
      "chip": "ym2612"
    },
    {
      "channel": 4,
      "note": 68,
      "start": 82.3389,
      "duration": 0.0199,
      "velocity": 120,
      "chip": "ym2612"
    },
    {
      "channel": 3,
      "note": 75,
      "start": 82.3425,
      "duration": 0.0175,
      "velocity": 120,
      "chip": "ym2612"
    },
    {
      "channel": 1,
      "note": 78,
      "start": 82.3555,
      "duration": 0.0144,
      "velocity": 124,
      "chip": "ym2612"
    },
    {
      "channel": 0,
      "note": 47,
      "start": 82.3576,
      "duration": 0.014,
      "velocity": 115,
      "chip": "ym2612"
    },
    {
      "channel": 4,
      "note": 68,
      "start": 82.3588,
      "duration": 0.0168,
      "velocity": 120,
      "chip": "ym2612"
    },
    {
      "channel": 3,
      "note": 75,
      "start": 82.36,
      "duration": 0.0167,
      "velocity": 120,
      "chip": "ym2612"
    },
    {
      "channel": 2,
      "note": 56,
      "start": 82.3614,
      "duration": 0.0165,
      "velocity": 100,
      "chip": "ym2612"
    },
    {
      "channel": 1,
      "note": 76,
      "start": 82.3699,
      "duration": 0.016,
      "velocity": 124,
      "chip": "ym2612"
    },
    {
      "channel": 0,
      "note": 47,
      "start": 82.3716,
      "duration": 0.016,
      "velocity": 115,
      "chip": "ym2612"
    },
    {
      "channel": 4,
      "note": 68,
      "start": 82.3756,
      "duration": 0.0133,
      "velocity": 120,
      "chip": "ym2612"
    },
    {
      "channel": 3,
      "note": 75,
      "start": 82.3767,
      "duration": 0.0161,
      "velocity": 120,
      "chip": "ym2612"
    },
    {
      "channel": 2,
      "note": 56,
      "start": 82.3779,
      "duration": 0.016,
      "velocity": 100,
      "chip": "ym2612"
    },
    {
      "channel": 1,
      "note": 75,
      "start": 82.3859,
      "duration": 0.0161,
      "velocity": 124,
      "chip": "ym2612"
    },
    {
      "channel": 0,
      "note": 47,
      "start": 82.3876,
      "duration": 0.0161,
      "velocity": 115,
      "chip": "ym2612"
    },
    {
      "channel": 4,
      "note": 68,
      "start": 82.3889,
      "duration": 0.0161,
      "velocity": 120,
      "chip": "ym2612"
    },
    {
      "channel": 3,
      "note": 75,
      "start": 82.3928,
      "duration": 0.0157,
      "velocity": 120,
      "chip": "ym2612"
    },
    {
      "channel": 2,
      "note": 56,
      "start": 82.3939,
      "duration": 0.0158,
      "velocity": 100,
      "chip": "ym2612"
    },
    {
      "channel": 1,
      "note": 74,
      "start": 82.402,
      "duration": 0.0161,
      "velocity": 124,
      "chip": "ym2612"
    },
    {
      "channel": 0,
      "note": 48,
      "start": 82.4037,
      "duration": 0.0162,
      "velocity": 115,
      "chip": "ym2612"
    },
    {
      "channel": 4,
      "note": 68,
      "start": 82.4049,
      "duration": 0.0162,
      "velocity": 120,
      "chip": "ym2612"
    },
    {
      "channel": 3,
      "note": 75,
      "start": 82.4085,
      "duration": 0.0137,
      "velocity": 120,
      "chip": "ym2612"
    },
    {
      "channel": 2,
      "note": 56,
      "start": 82.4097,
      "duration": 0.0141,
      "velocity": 100,
      "chip": "ym2612"
    },
    {
      "channel": 1,
      "note": 72,
      "start": 82.4181,
      "duration": 0.0161,
      "velocity": 124,
      "chip": "ym2612"
    },
    {
      "channel": 0,
      "note": 48,
      "start": 82.4199,
      "duration": 0.0161,
      "velocity": 115,
      "chip": "ym2612"
    },
    {
      "channel": 4,
      "note": 68,
      "start": 82.4211,
      "duration": 0.016,
      "velocity": 120,
      "chip": "ym2612"
    },
    {
      "channel": 3,
      "note": 75,
      "start": 82.4222,
      "duration": 0.0161,
      "velocity": 120,
      "chip": "ym2612"
    },
    {
      "channel": 2,
      "note": 56,
      "start": 82.4237,
      "duration": 0.0185,
      "velocity": 100,
      "chip": "ym2612"
    },
    {
      "channel": 1,
      "note": 71,
      "start": 82.4342,
      "duration": 0.0161,
      "velocity": 124,
      "chip": "ym2612"
    },
    {
      "channel": 0,
      "note": 49,
      "start": 82.436,
      "duration": 0.0153,
      "velocity": 1,
      "chip": "ym2612"
    },
    {
      "channel": 4,
      "note": 68,
      "start": 82.4371,
      "duration": 0.0153,
      "velocity": 120,
      "chip": "ym2612"
    },
    {
      "channel": 3,
      "note": 75,
      "start": 82.4383,
      "duration": 0.0153,
      "velocity": 120,
      "chip": "ym2612"
    },
    {
      "channel": 2,
      "note": 56,
      "start": 82.4422,
      "duration": 0.0125,
      "velocity": 100,
      "chip": "ym2612"
    },
    {
      "channel": 1,
      "note": 70,
      "start": 82.4504,
      "duration": 0.0161,
      "velocity": 124,
      "chip": "ym2612"
    },
    {
      "channel": 4,
      "note": 68,
      "start": 82.4525,
      "duration": 0.0153,
      "velocity": 120,
      "chip": "ym2612"
    },
    {
      "channel": 3,
      "note": 75,
      "start": 82.4536,
      "duration": 0.0153,
      "velocity": 120,
      "chip": "ym2612"
    },
    {
      "channel": 2,
      "note": 56,
      "start": 82.4548,
      "duration": 0.0153,
      "velocity": 100,
      "chip": "ym2612"
    },
    {
      "channel": 1,
      "note": 69,
      "start": 82.4665,
      "duration": 0.0161,
      "velocity": 124,
      "chip": "ym2612"
    },
    {
      "channel": 4,
      "note": 68,
      "start": 82.4677,
      "duration": 0.0161,
      "velocity": 120,
      "chip": "ym2612"
    },
    {
      "channel": 3,
      "note": 75,
      "start": 82.4689,
      "duration": 0.0161,
      "velocity": 120,
      "chip": "ym2612"
    },
    {
      "channel": 1,
      "note": 68,
      "start": 82.4826,
      "duration": 0.0161,
      "velocity": 124,
      "chip": "ym2612"
    },
    {
      "channel": 4,
      "note": 68,
      "start": 82.4838,
      "duration": 0.0161,
      "velocity": 120,
      "chip": "ym2612"
    },
    {
      "channel": 3,
      "note": 75,
      "start": 82.485,
      "duration": 0.0161,
      "velocity": 120,
      "chip": "ym2612"
    },
    {
      "channel": 1,
      "note": 66,
      "start": 82.4987,
      "duration": 0.0161,
      "velocity": 124,
      "chip": "ym2612"
    },
    {
      "channel": 4,
      "note": 68,
      "start": 82.4999,
      "duration": 0.0161,
      "velocity": 120,
      "chip": "ym2612"
    },
    {
      "channel": 3,
      "note": 75,
      "start": 82.5011,
      "duration": 0.0161,
      "velocity": 120,
      "chip": "ym2612"
    },
    {
      "channel": 1,
      "note": 65,
      "start": 82.5147,
      "duration": 0.0161,
      "velocity": 124,
      "chip": "ym2612"
    },
    {
      "channel": 4,
      "note": 68,
      "start": 82.516,
      "duration": 0.0161,
      "velocity": 120,
      "chip": "ym2612"
    },
    {
      "channel": 3,
      "note": 75,
      "start": 82.5172,
      "duration": 0.0161,
      "velocity": 120,
      "chip": "ym2612"
    },
    {
      "channel": 1,
      "note": 64,
      "start": 82.5308,
      "duration": 0.0161,
      "velocity": 124,
      "chip": "ym2612"
    },
    {
      "channel": 4,
      "note": 68,
      "start": 82.5321,
      "duration": 0.0161,
      "velocity": 120,
      "chip": "ym2612"
    },
    {
      "channel": 3,
      "note": 75,
      "start": 82.5333,
      "duration": 0.0161,
      "velocity": 120,
      "chip": "ym2612"
    },
    {
      "channel": 1,
      "note": 62,
      "start": 82.5469,
      "duration": 0.0161,
      "velocity": 124,
      "chip": "ym2612"
    },
    {
      "channel": 4,
      "note": 68,
      "start": 82.5482,
      "duration": 0.0161,
      "velocity": 120,
      "chip": "ym2612"
    },
    {
      "channel": 3,
      "note": 75,
      "start": 82.5494,
      "duration": 0.0161,
      "velocity": 120,
      "chip": "ym2612"
    },
    {
      "channel": 2,
      "note": 56,
      "start": 82.5509,
      "duration": 0.0158,
      "velocity": 100,
      "chip": "ym2612"
    },
    {
      "channel": 1,
      "note": 61,
      "start": 82.563,
      "duration": 0.0161,
      "velocity": 124,
      "chip": "ym2612"
    },
    {
      "channel": 4,
      "note": 68,
      "start": 82.5643,
      "duration": 0.0161,
      "velocity": 120,
      "chip": "ym2612"
    },
    {
      "channel": 3,
      "note": 75,
      "start": 82.5655,
      "duration": 0.0161,
      "velocity": 120,
      "chip": "ym2612"
    },
    {
      "channel": 2,
      "note": 56,
      "start": 82.5667,
      "duration": 0.016,
      "velocity": 100,
      "chip": "ym2612"
    },
    {
      "channel": 1,
      "note": 60,
      "start": 82.5791,
      "duration": 0.0162,
      "velocity": 124,
      "chip": "ym2612"
    },
    {
      "channel": 4,
      "note": 68,
      "start": 82.5804,
      "duration": 0.0162,
      "velocity": 120,
      "chip": "ym2612"
    },
    {
      "channel": 3,
      "note": 75,
      "start": 82.5816,
      "duration": 0.0161,
      "velocity": 120,
      "chip": "ym2612"
    },
    {
      "channel": 2,
      "note": 56,
      "start": 82.5827,
      "duration": 0.0162,
      "velocity": 100,
      "chip": "ym2612"
    },
    {
      "channel": 1,
      "note": 59,
      "start": 82.5953,
      "duration": 0.0161,
      "velocity": 124,
      "chip": "ym2612"
    },
    {
      "channel": 4,
      "note": 68,
      "start": 82.5966,
      "duration": 0.0161,
      "velocity": 120,
      "chip": "ym2612"
    },
    {
      "channel": 3,
      "note": 75,
      "start": 82.5977,
      "duration": 0.0161,
      "velocity": 120,
      "chip": "ym2612"
    },
    {
      "channel": 2,
      "note": 56,
      "start": 82.5988,
      "duration": 0.0161,
      "velocity": 100,
      "chip": "ym2612"
    },
    {
      "channel": 1,
      "note": 57,
      "start": 82.6114,
      "duration": 0.0161,
      "velocity": 124,
      "chip": "ym2612"
    },
    {
      "channel": 4,
      "note": 68,
      "start": 82.6127,
      "duration": 0.0161,
      "velocity": 120,
      "chip": "ym2612"
    },
    {
      "channel": 3,
      "note": 75,
      "start": 82.6138,
      "duration": 0.0161,
      "velocity": 120,
      "chip": "ym2612"
    },
    {
      "channel": 2,
      "note": 56,
      "start": 82.6149,
      "duration": 0.0161,
      "velocity": 100,
      "chip": "ym2612"
    },
    {
      "channel": 1,
      "note": 56,
      "start": 82.6275,
      "duration": 0.0164,
      "velocity": 124,
      "chip": "ym2612"
    },
    {
      "channel": 4,
      "note": 68,
      "start": 82.6288,
      "duration": 0.0164,
      "velocity": 120,
      "chip": "ym2612"
    },
    {
      "channel": 3,
      "note": 75,
      "start": 82.6299,
      "duration": 0.0165,
      "velocity": 120,
      "chip": "ym2612"
    },
    {
      "channel": 2,
      "note": 56,
      "start": 82.631,
      "duration": 0.0165,
      "velocity": 100,
      "chip": "ym2612"
    },
    {
      "channel": 1,
      "note": 55,
      "start": 82.6439,
      "duration": 0.0167,
      "velocity": 124,
      "chip": "ym2612"
    },
    {
      "channel": 4,
      "note": 68,
      "start": 82.6451,
      "duration": 0.0167,
      "velocity": 120,
      "chip": "ym2612"
    },
    {
      "channel": 3,
      "note": 75,
      "start": 82.6464,
      "duration": 0.0167,
      "velocity": 120,
      "chip": "ym2612"
    },
    {
      "channel": 2,
      "note": 56,
      "start": 82.6475,
      "duration": 0.0167,
      "velocity": 100,
      "chip": "ym2612"
    },
    {
      "channel": 1,
      "note": 53,
      "start": 82.6605,
      "duration": 0.0163,
      "velocity": 124,
      "chip": "ym2612"
    },
    {
      "channel": 4,
      "note": 68,
      "start": 82.6618,
      "duration": 0.0163,
      "velocity": 120,
      "chip": "ym2612"
    },
    {
      "channel": 3,
      "note": 75,
      "start": 82.663,
      "duration": 0.0163,
      "velocity": 120,
      "chip": "ym2612"
    },
    {
      "channel": 1,
      "note": 52,
      "start": 82.6769,
      "duration": 0.0149,
      "velocity": 124,
      "chip": "ym2612"
    },
    {
      "channel": 4,
      "note": 68,
      "start": 82.6782,
      "duration": 0.015,
      "velocity": 120,
      "chip": "ym2612"
    },
    {
      "channel": 3,
      "note": 75,
      "start": 82.6794,
      "duration": 0.0149,
      "velocity": 120,
      "chip": "ym2612"
    },
    {
      "channel": 1,
      "note": 51,
      "start": 82.6918,
      "duration": 0.018,
      "velocity": 1,
      "chip": "ym2612"
    },
    {
      "channel": 4,
      "note": 68,
      "start": 82.6931,
      "duration": 0.0179,
      "velocity": 120,
      "chip": "ym2612"
    },
    {
      "channel": 3,
      "note": 75,
      "start": 82.6943,
      "duration": 0.0179,
      "velocity": 120,
      "chip": "ym2612"
    },
    {
      "channel": 4,
      "note": 68,
      "start": 82.7111,
      "duration": 0.0154,
      "velocity": 120,
      "chip": "ym2612"
    },
    {
      "channel": 3,
      "note": 75,
      "start": 82.7122,
      "duration": 0.0154,
      "velocity": 120,
      "chip": "ym2612"
    },
    {
      "channel": 4,
      "note": 68,
      "start": 82.7265,
      "duration": 0.0191,
      "velocity": 120,
      "chip": "ym2612"
    },
    {
      "channel": 3,
      "note": 75,
      "start": 82.7276,
      "duration": 0.0192,
      "velocity": 120,
      "chip": "ym2612"
    },
    {
      "channel": 0,
      "note": 36,
      "start": 82.7444,
      "duration": 0.0123,
      "velocity": 115,
      "chip": "ym2612"
    },
    {
      "channel": 4,
      "note": 68,
      "start": 82.7456,
      "duration": 0.0123,
      "velocity": 120,
      "chip": "ym2612"
    },
    {
      "channel": 3,
      "note": 75,
      "start": 82.7468,
      "duration": 0.0123,
      "velocity": 120,
      "chip": "ym2612"
    },
    {
      "channel": 2,
      "note": 56,
      "start": 82.7482,
      "duration": 0.0121,
      "velocity": 100,
      "chip": "ym2612"
    },
    {
      "channel": 1,
      "note": 44,
      "start": 82.7497,
      "duration": 0.0118,
      "velocity": 100,
      "chip": "ym2612"
    },
    {
      "channel": 0,
      "note": 36,
      "start": 82.7567,
      "duration": 0.0157,
      "velocity": 115,
      "chip": "ym2612"
    },
    {
      "channel": 4,
      "note": 68,
      "start": 82.7579,
      "duration": 0.0185,
      "velocity": 120,
      "chip": "ym2612"
    },
    {
      "channel": 3,
      "note": 75,
      "start": 82.7591,
      "duration": 0.0184,
      "velocity": 120,
      "chip": "ym2612"
    },
    {
      "channel": 2,
      "note": 56,
      "start": 82.7603,
      "duration": 0.0184,
      "velocity": 100,
      "chip": "ym2612"
    },
    {
      "channel": 1,
      "note": 44,
      "start": 82.7614,
      "duration": 0.0184,
      "velocity": 100,
      "chip": "ym2612"
    },
    {
      "channel": 0,
      "note": 37,
      "start": 82.7724,
      "duration": 0.0161,
      "velocity": 115,
      "chip": "ym2612"
    },
    {
      "channel": 4,
      "note": 68,
      "start": 82.7764,
      "duration": 0.0161,
      "velocity": 120,
      "chip": "ym2612"
    },
    {
      "channel": 3,
      "note": 75,
      "start": 82.7775,
      "duration": 0.0161,
      "velocity": 120,
      "chip": "ym2612"
    },
    {
      "channel": 2,
      "note": 56,
      "start": 82.7787,
      "duration": 0.0161,
      "velocity": 100,
      "chip": "ym2612"
    },
    {
      "channel": 1,
      "note": 44,
      "start": 82.7798,
      "duration": 0.0161,
      "velocity": 100,
      "chip": "ym2612"
    },
    {
      "channel": 0,
      "note": 37,
      "start": 82.7885,
      "duration": 0.0161,
      "velocity": 115,
      "chip": "ym2612"
    },
    {
      "channel": 4,
      "note": 68,
      "start": 82.7925,
      "duration": 0.0134,
      "velocity": 120,
      "chip": "ym2612"
    },
    {
      "channel": 3,
      "note": 75,
      "start": 82.7936,
      "duration": 0.0158,
      "velocity": 120,
      "chip": "ym2612"
    },
    {
      "channel": 2,
      "note": 56,
      "start": 82.7948,
      "duration": 0.0158,
      "velocity": 100,
      "chip": "ym2612"
    },
    {
      "channel": 1,
      "note": 44,
      "start": 82.7959,
      "duration": 0.0158,
      "velocity": 100,
      "chip": "ym2612"
    },
    {
      "channel": 0,
      "note": 38,
      "start": 82.8046,
      "duration": 0.0161,
      "velocity": 115,
      "chip": "ym2612"
    },
    {
      "channel": 4,
      "note": 68,
      "start": 82.8059,
      "duration": 0.0161,
      "velocity": 120,
      "chip": "ym2612"
    },
    {
      "channel": 3,
      "note": 75,
      "start": 82.8094,
      "duration": 0.014,
      "velocity": 120,
      "chip": "ym2612"
    },
    {
      "channel": 2,
      "note": 56,
      "start": 82.8105,
      "duration": 0.014,
      "velocity": 100,
      "chip": "ym2612"
    },
    {
      "channel": 1,
      "note": 44,
      "start": 82.8117,
      "duration": 0.014,
      "velocity": 100,
      "chip": "ym2612"
    },
    {
      "channel": 0,
      "note": 38,
      "start": 82.8207,
      "duration": 0.0161,
      "velocity": 115,
      "chip": "ym2612"
    },
    {
      "channel": 4,
      "note": 68,
      "start": 82.8219,
      "duration": 0.0161,
      "velocity": 120,
      "chip": "ym2612"
    },
    {
      "channel": 3,
      "note": 75,
      "start": 82.8234,
      "duration": 0.0158,
      "velocity": 120,
      "chip": "ym2612"
    },
    {
      "channel": 2,
      "note": 56,
      "start": 82.8245,
      "duration": 0.0185,
      "velocity": 100,
      "chip": "ym2612"
    },
    {
      "channel": 1,
      "note": 44,
      "start": 82.8257,
      "duration": 0.0185,
      "velocity": 100,
      "chip": "ym2612"
    },
    {
      "channel": 0,
      "note": 39,
      "start": 82.8368,
      "duration": 0.0161,
      "velocity": 115,
      "chip": "ym2612"
    },
    {
      "channel": 4,
      "note": 68,
      "start": 82.838,
      "duration": 0.0161,
      "velocity": 120,
      "chip": "ym2612"
    },
    {
      "channel": 3,
      "note": 75,
      "start": 82.8392,
      "duration": 0.0161,
      "velocity": 120,
      "chip": "ym2612"
    },
    {
      "channel": 2,
      "note": 56,
      "start": 82.8431,
      "duration": 0.0161,
      "velocity": 100,
      "chip": "ym2612"
    },
    {
      "channel": 1,
      "note": 44,
      "start": 82.8442,
      "duration": 0.0162,
      "velocity": 100,
      "chip": "ym2612"
    },
    {
      "channel": 0,
      "note": 39,
      "start": 82.8529,
      "duration": 0.0161,
      "velocity": 115,
      "chip": "ym2612"
    },
    {
      "channel": 4,
      "note": 68,
      "start": 82.8541,
      "duration": 0.0161,
      "velocity": 120,
      "chip": "ym2612"
    },
    {
      "channel": 3,
      "note": 75,
      "start": 82.8553,
      "duration": 0.0161,
      "velocity": 120,
      "chip": "ym2612"
    },
    {
      "channel": 0,
      "note": 40,
      "start": 82.8691,
      "duration": 0.0161,
      "velocity": 115,
      "chip": "ym2612"
    },
    {
      "channel": 4,
      "note": 68,
      "start": 82.8702,
      "duration": 0.0161,
      "velocity": 120,
      "chip": "ym2612"
    },
    {
      "channel": 3,
      "note": 75,
      "start": 82.8714,
      "duration": 0.0161,
      "velocity": 120,
      "chip": "ym2612"
    },
    {
      "channel": 0,
      "note": 40,
      "start": 82.8852,
      "duration": 0.0161,
      "velocity": 115,
      "chip": "ym2612"
    },
    {
      "channel": 4,
      "note": 68,
      "start": 82.8864,
      "duration": 0.0161,
      "velocity": 120,
      "chip": "ym2612"
    },
    {
      "channel": 3,
      "note": 75,
      "start": 82.8875,
      "duration": 0.0161,
      "velocity": 120,
      "chip": "ym2612"
    },
    {
      "channel": 0,
      "note": 40,
      "start": 82.9013,
      "duration": 0.0161,
      "velocity": 115,
      "chip": "ym2612"
    },
    {
      "channel": 4,
      "note": 68,
      "start": 82.9025,
      "duration": 0.0161,
      "velocity": 120,
      "chip": "ym2612"
    },
    {
      "channel": 3,
      "note": 75,
      "start": 82.9036,
      "duration": 0.0161,
      "velocity": 120,
      "chip": "ym2612"
    },
    {
      "channel": 0,
      "note": 41,
      "start": 82.9173,
      "duration": 0.0179,
      "velocity": 115,
      "chip": "ym2612"
    },
    {
      "channel": 4,
      "note": 68,
      "start": 82.9186,
      "duration": 0.0179,
      "velocity": 120,
      "chip": "ym2612"
    },
    {
      "channel": 3,
      "note": 75,
      "start": 82.9197,
      "duration": 0.0179,
      "velocity": 120,
      "chip": "ym2612"
    },
    {
      "channel": 0,
      "note": 36,
      "start": 82.9352,
      "duration": 0.0144,
      "velocity": 115,
      "chip": "ym2612"
    },
    {
      "channel": 4,
      "note": 68,
      "start": 82.9364,
      "duration": 0.0144,
      "velocity": 120,
      "chip": "ym2612"
    },
    {
      "channel": 3,
      "note": 75,
      "start": 82.9376,
      "duration": 0.0143,
      "velocity": 120,
      "chip": "ym2612"
    },
    {
      "channel": 2,
      "note": 56,
      "start": 82.9391,
      "duration": 0.0141,
      "velocity": 100,
      "chip": "ym2612"
    },
    {
      "channel": 1,
      "note": 44,
      "start": 82.9429,
      "duration": 0.0114,
      "velocity": 100,
      "chip": "ym2612"
    },
    {
      "channel": 0,
      "note": 36,
      "start": 82.9496,
      "duration": 0.016,
      "velocity": 115,
      "chip": "ym2612"
    },
    {
      "channel": 4,
      "note": 68,
      "start": 82.9508,
      "duration": 0.016,
      "velocity": 120,
      "chip": "ym2612"
    },
    {
      "channel": 3,
      "note": 75,
      "start": 82.952,
      "duration": 0.016,
      "velocity": 120,
      "chip": "ym2612"
    },
    {
      "channel": 2,
      "note": 56,
      "start": 82.9532,
      "duration": 0.016,
      "velocity": 100,
      "chip": "ym2612"
    },
    {
      "channel": 1,
      "note": 44,
      "start": 82.9543,
      "duration": 0.016,
      "velocity": 100,
      "chip": "ym2612"
    },
    {
      "channel": 0,
      "note": 37,
      "start": 82.9656,
      "duration": 0.0161,
      "velocity": 115,
      "chip": "ym2612"
    },
    {
      "channel": 4,
      "note": 68,
      "start": 82.9668,
      "duration": 0.0161,
      "velocity": 120,
      "chip": "ym2612"
    },
    {
      "channel": 3,
      "note": 75,
      "start": 82.968,
      "duration": 0.0161,
      "velocity": 120,
      "chip": "ym2612"
    },
    {
      "channel": 2,
      "note": 56,
      "start": 82.9691,
      "duration": 0.0161,
      "velocity": 100,
      "chip": "ym2612"
    },
    {
      "channel": 1,
      "note": 44,
      "start": 82.9703,
      "duration": 0.0161,
      "velocity": 100,
      "chip": "ym2612"
    },
    {
      "channel": 0,
      "note": 37,
      "start": 82.9817,
      "duration": 0.0161,
      "velocity": 115,
      "chip": "ym2612"
    },
    {
      "channel": 4,
      "note": 68,
      "start": 82.9829,
      "duration": 0.0161,
      "velocity": 120,
      "chip": "ym2612"
    },
    {
      "channel": 3,
      "note": 75,
      "start": 82.9841,
      "duration": 0.0161,
      "velocity": 120,
      "chip": "ym2612"
    },
    {
      "channel": 2,
      "note": 56,
      "start": 82.9852,
      "duration": 0.0161,
      "velocity": 100,
      "chip": "ym2612"
    },
    {
      "channel": 1,
      "note": 44,
      "start": 82.9864,
      "duration": 0.0161,
      "velocity": 100,
      "chip": "ym2612"
    },
    {
      "channel": 0,
      "note": 38,
      "start": 82.9978,
      "duration": 0.0161,
      "velocity": 115,
      "chip": "ym2612"
    },
    {
      "channel": 4,
      "note": 68,
      "start": 82.999,
      "duration": 0.0161,
      "velocity": 120,
      "chip": "ym2612"
    },
    {
      "channel": 3,
      "note": 75,
      "start": 83.0002,
      "duration": 0.0161,
      "velocity": 120,
      "chip": "ym2612"
    },
    {
      "channel": 2,
      "note": 56,
      "start": 83.0013,
      "duration": 0.0161,
      "velocity": 100,
      "chip": "ym2612"
    },
    {
      "channel": 1,
      "note": 44,
      "start": 83.0025,
      "duration": 0.0161,
      "velocity": 100,
      "chip": "ym2612"
    },
    {
      "channel": 0,
      "note": 38,
      "start": 83.0139,
      "duration": 0.0161,
      "velocity": 115,
      "chip": "ym2612"
    },
    {
      "channel": 4,
      "note": 68,
      "start": 83.0151,
      "duration": 0.0161,
      "velocity": 120,
      "chip": "ym2612"
    },
    {
      "channel": 3,
      "note": 75,
      "start": 83.0163,
      "duration": 0.0161,
      "velocity": 120,
      "chip": "ym2612"
    },
    {
      "channel": 2,
      "note": 56,
      "start": 83.0174,
      "duration": 0.0162,
      "velocity": 100,
      "chip": "ym2612"
    },
    {
      "channel": 1,
      "note": 44,
      "start": 83.0186,
      "duration": 0.0161,
      "velocity": 100,
      "chip": "ym2612"
    },
    {
      "channel": 0,
      "note": 39,
      "start": 83.0301,
      "duration": 0.0161,
      "velocity": 115,
      "chip": "ym2612"
    },
    {
      "channel": 4,
      "note": 68,
      "start": 83.0312,
      "duration": 0.0162,
      "velocity": 120,
      "chip": "ym2612"
    },
    {
      "channel": 3,
      "note": 75,
      "start": 83.0324,
      "duration": 0.0161,
      "velocity": 120,
      "chip": "ym2612"
    },
    {
      "channel": 2,
      "note": 56,
      "start": 83.0336,
      "duration": 0.0161,
      "velocity": 100,
      "chip": "ym2612"
    },
    {
      "channel": 1,
      "note": 44,
      "start": 83.0346,
      "duration": 0.0162,
      "velocity": 100,
      "chip": "ym2612"
    },
    {
      "channel": 0,
      "note": 39,
      "start": 83.0462,
      "duration": 0.0161,
      "velocity": 115,
      "chip": "ym2612"
    },
    {
      "channel": 4,
      "note": 68,
      "start": 83.0474,
      "duration": 0.0161,
      "velocity": 120,
      "chip": "ym2612"
    },
    {
      "channel": 3,
      "note": 75,
      "start": 83.0485,
      "duration": 0.0162,
      "velocity": 120,
      "chip": "ym2612"
    },
    {
      "channel": 0,
      "note": 40,
      "start": 83.0623,
      "duration": 0.0161,
      "velocity": 115,
      "chip": "ym2612"
    },
    {
      "channel": 4,
      "note": 68,
      "start": 83.0635,
      "duration": 0.0161,
      "velocity": 120,
      "chip": "ym2612"
    },
    {
      "channel": 3,
      "note": 75,
      "start": 83.0647,
      "duration": 0.016,
      "velocity": 120,
      "chip": "ym2612"
    },
    {
      "channel": 0,
      "note": 40,
      "start": 83.0784,
      "duration": 0.0161,
      "velocity": 115,
      "chip": "ym2612"
    },
    {
      "channel": 4,
      "note": 68,
      "start": 83.0796,
      "duration": 0.0161,
      "velocity": 120,
      "chip": "ym2612"
    },
    {
      "channel": 3,
      "note": 75,
      "start": 83.0807,
      "duration": 0.0161,
      "velocity": 120,
      "chip": "ym2612"
    },
    {
      "channel": 0,
      "note": 40,
      "start": 83.0944,
      "duration": 0.0162,
      "velocity": 115,
      "chip": "ym2612"
    },
    {
      "channel": 4,
      "note": 68,
      "start": 83.0957,
      "duration": 0.0161,
      "velocity": 120,
      "chip": "ym2612"
    },
    {
      "channel": 3,
      "note": 75,
      "start": 83.0968,
      "duration": 0.0162,
      "velocity": 120,
      "chip": "ym2612"
    },
    {
      "channel": 0,
      "note": 41,
      "start": 83.1106,
      "duration": 0.0202,
      "velocity": 115,
      "chip": "ym2612"
    },
    {
      "channel": 4,
      "note": 68,
      "start": 83.1118,
      "duration": 0.0202,
      "velocity": 120,
      "chip": "ym2612"
    },
    {
      "channel": 3,
      "note": 75,
      "start": 83.113,
      "duration": 0.0201,
      "velocity": 120,
      "chip": "ym2612"
    },
    {
      "channel": 1,
      "note": 78,
      "start": 83.1291,
      "duration": 0.0146,
      "velocity": 124,
      "chip": "ym2612"
    },
    {
      "channel": 0,
      "note": 41,
      "start": 83.1308,
      "duration": 0.0146,
      "velocity": 115,
      "chip": "ym2612"
    },
    {
      "channel": 4,
      "note": 68,
      "start": 83.132,
      "duration": 0.0146,
      "velocity": 120,
      "chip": "ym2612"
    },
    {
      "channel": 3,
      "note": 75,
      "start": 83.1331,
      "duration": 0.0146,
      "velocity": 120,
      "chip": "ym2612"
    },
    {
      "channel": 2,
      "note": 56,
      "start": 83.1346,
      "duration": 0.0143,
      "velocity": 100,
      "chip": "ym2612"
    },
    {
      "channel": 1,
      "note": 76,
      "start": 83.1436,
      "duration": 0.0151,
      "velocity": 124,
      "chip": "ym2612"
    },
    {
      "channel": 0,
      "note": 42,
      "start": 83.1454,
      "duration": 0.0152,
      "velocity": 115,
      "chip": "ym2612"
    },
    {
      "channel": 4,
      "note": 68,
      "start": 83.1466,
      "duration": 0.0151,
      "velocity": 120,
      "chip": "ym2612"
    },
    {
      "channel": 3,
      "note": 75,
      "start": 83.1477,
      "duration": 0.0152,
      "velocity": 120,
      "chip": "ym2612"
    },
    {
      "channel": 2,
      "note": 56,
      "start": 83.1489,
      "duration": 0.0151,
      "velocity": 100,
      "chip": "ym2612"
    },
    {
      "channel": 1,
      "note": 75,
      "start": 83.1588,
      "duration": 0.0184,
      "velocity": 124,
      "chip": "ym2612"
    },
    {
      "channel": 0,
      "note": 42,
      "start": 83.1605,
      "duration": 0.0184,
      "velocity": 115,
      "chip": "ym2612"
    },
    {
      "channel": 4,
      "note": 68,
      "start": 83.1617,
      "duration": 0.0184,
      "velocity": 120,
      "chip": "ym2612"
    },
    {
      "channel": 3,
      "note": 75,
      "start": 83.1629,
      "duration": 0.0185,
      "velocity": 120,
      "chip": "ym2612"
    },
    {
      "channel": 2,
      "note": 56,
      "start": 83.1641,
      "duration": 0.0184,
      "velocity": 100,
      "chip": "ym2612"
    },
    {
      "channel": 1,
      "note": 74,
      "start": 83.1772,
      "duration": 0.0166,
      "velocity": 124,
      "chip": "ym2612"
    },
    {
      "channel": 0,
      "note": 43,
      "start": 83.1789,
      "duration": 0.0165,
      "velocity": 115,
      "chip": "ym2612"
    },
    {
      "channel": 4,
      "note": 68,
      "start": 83.1801,
      "duration": 0.0166,
      "velocity": 120,
      "chip": "ym2612"
    },
    {
      "channel": 3,
      "note": 75,
      "start": 83.1814,
      "duration": 0.0165,
      "velocity": 120,
      "chip": "ym2612"
    },
    {
      "channel": 2,
      "note": 56,
      "start": 83.1824,
      "duration": 0.0166,
      "velocity": 100,
      "chip": "ym2612"
    },
    {
      "channel": 1,
      "note": 72,
      "start": 83.1938,
      "duration": 0.0157,
      "velocity": 124,
      "chip": "ym2612"
    },
    {
      "channel": 0,
      "note": 43,
      "start": 83.1955,
      "duration": 0.0157,
      "velocity": 115,
      "chip": "ym2612"
    },
    {
      "channel": 4,
      "note": 68,
      "start": 83.1967,
      "duration": 0.0157,
      "velocity": 120,
      "chip": "ym2612"
    },
    {
      "channel": 3,
      "note": 75,
      "start": 83.1979,
      "duration": 0.0156,
      "velocity": 120,
      "chip": "ym2612"
    },
    {
      "channel": 2,
      "note": 56,
      "start": 83.199,
      "duration": 0.0157,
      "velocity": 100,
      "chip": "ym2612"
    },
    {
      "channel": 1,
      "note": 71,
      "start": 83.2095,
      "duration": 0.0141,
      "velocity": 124,
      "chip": "ym2612"
    },
    {
      "channel": 0,
      "note": 44,
      "start": 83.2112,
      "duration": 0.0141,
      "velocity": 115,
      "chip": "ym2612"
    },
    {
      "channel": 4,
      "note": 68,
      "start": 83.2124,
      "duration": 0.0141,
      "velocity": 120,
      "chip": "ym2612"
    },
    {
      "channel": 3,
      "note": 75,
      "start": 83.2135,
      "duration": 0.0141,
      "velocity": 120,
      "chip": "ym2612"
    },
    {
      "channel": 2,
      "note": 56,
      "start": 83.2147,
      "duration": 0.0141,
      "velocity": 100,
      "chip": "ym2612"
    },
    {
      "channel": 1,
      "note": 70,
      "start": 83.2235,
      "duration": 0.0185,
      "velocity": 124,
      "chip": "ym2612"
    },
    {
      "channel": 0,
      "note": 44,
      "start": 83.2252,
      "duration": 0.0185,
      "velocity": 115,
      "chip": "ym2612"
    },
    {
      "channel": 4,
      "note": 68,
      "start": 83.2265,
      "duration": 0.0185,
      "velocity": 120,
      "chip": "ym2612"
    },
    {
      "channel": 3,
      "note": 75,
      "start": 83.2276,
      "duration": 0.0185,
      "velocity": 120,
      "chip": "ym2612"
    },
    {
      "channel": 2,
      "note": 56,
      "start": 83.2288,
      "duration": 0.0185,
      "velocity": 100,
      "chip": "ym2612"
    },
    {
      "channel": 1,
      "note": 69,
      "start": 83.242,
      "duration": 0.0134,
      "velocity": 124,
      "chip": "ym2612"
    },
    {
      "channel": 0,
      "note": 44,
      "start": 83.2438,
      "duration": 0.0161,
      "velocity": 115,
      "chip": "ym2612"
    },
    {
      "channel": 4,
      "note": 68,
      "start": 83.245,
      "duration": 0.0161,
      "velocity": 120,
      "chip": "ym2612"
    },
    {
      "channel": 3,
      "note": 75,
      "start": 83.2461,
      "duration": 0.0162,
      "velocity": 120,
      "chip": "ym2612"
    },
    {
      "channel": 1,
      "note": 68,
      "start": 83.2554,
      "duration": 0.0161,
      "velocity": 124,
      "chip": "ym2612"
    },
    {
      "channel": 0,
      "note": 45,
      "start": 83.2598,
      "duration": 0.0158,
      "velocity": 115,
      "chip": "ym2612"
    },
    {
      "channel": 4,
      "note": 68,
      "start": 83.2611,
      "duration": 0.0157,
      "velocity": 120,
      "chip": "ym2612"
    },
    {
      "channel": 3,
      "note": 75,
      "start": 83.2623,
      "duration": 0.0157,
      "velocity": 120,
      "chip": "ym2612"
    },
    {
      "channel": 1,
      "note": 66,
      "start": 83.2715,
      "duration": 0.0161,
      "velocity": 124,
      "chip": "ym2612"
    },
    {
      "channel": 0,
      "note": 45,
      "start": 83.2756,
      "duration": 0.0139,
      "velocity": 115,
      "chip": "ym2612"
    },
    {
      "channel": 4,
      "note": 68,
      "start": 83.2768,
      "duration": 0.0141,
      "velocity": 120,
      "chip": "ym2612"
    },
    {
      "channel": 3,
      "note": 75,
      "start": 83.278,
      "duration": 0.0141,
      "velocity": 120,
      "chip": "ym2612"
    },
    {
      "channel": 1,
      "note": 65,
      "start": 83.2876,
      "duration": 0.0161,
      "velocity": 124,
      "chip": "ym2612"
    },
    {
      "channel": 0,
      "note": 46,
      "start": 83.2895,
      "duration": 0.0159,
      "velocity": 115,
      "chip": "ym2612"
    },
    {
      "channel": 4,
      "note": 68,
      "start": 83.2908,
      "duration": 0.0185,
      "velocity": 120,
      "chip": "ym2612"
    },
    {
      "channel": 3,
      "note": 75,
      "start": 83.292,
      "duration": 0.0185,
      "velocity": 120,
      "chip": "ym2612"
    },
    {
      "channel": 1,
      "note": 64,
      "start": 83.3037,
      "duration": 0.0161,
      "velocity": 124,
      "chip": "ym2612"
    },
    {
      "channel": 0,
      "note": 46,
      "start": 83.3054,
      "duration": 0.0206,
      "velocity": 115,
      "chip": "ym2612"
    },
    {
      "channel": 4,
      "note": 68,
      "start": 83.3093,
      "duration": 0.0179,
      "velocity": 120,
      "chip": "ym2612"
    },
    {
      "channel": 3,
      "note": 75,
      "start": 83.3105,
      "duration": 0.0179,
      "velocity": 120,
      "chip": "ym2612"
    },
    {
      "channel": 1,
      "note": 62,
      "start": 83.3198,
      "duration": 0.0162,
      "velocity": 124,
      "chip": "ym2612"
    },
    {
      "channel": 0,
      "note": 36,
      "start": 83.3261,
      "duration": 0.0116,
      "velocity": 115,
      "chip": "ym2612"
    },
    {
      "channel": 4,
      "note": 68,
      "start": 83.3273,
      "duration": 0.0116,
      "velocity": 120,
      "chip": "ym2612"
    },
    {
      "channel": 3,
      "note": 75,
      "start": 83.3285,
      "duration": 0.0139,
      "velocity": 120,
      "chip": "ym2612"
    },
    {
      "channel": 2,
      "note": 56,
      "start": 83.33,
      "duration": 0.0137,
      "velocity": 100,
      "chip": "ym2612"
    },
    {
      "channel": 1,
      "note": 61,
      "start": 83.3359,
      "duration": 0.0161,
      "velocity": 124,
      "chip": "ym2612"
    },
    {
      "channel": 0,
      "note": 36,
      "start": 83.3377,
      "duration": 0.016,
      "velocity": 115,
      "chip": "ym2612"
    },
    {
      "channel": 4,
      "note": 68,
      "start": 83.3389,
      "duration": 0.0161,
      "velocity": 120,
      "chip": "ym2612"
    },
    {
      "channel": 3,
      "note": 75,
      "start": 83.3424,
      "duration": 0.014,
      "velocity": 120,
      "chip": "ym2612"
    },
    {
      "channel": 2,
      "note": 56,
      "start": 83.3436,
      "duration": 0.0139,
      "velocity": 100,
      "chip": "ym2612"
    },
    {
      "channel": 1,
      "note": 60,
      "start": 83.352,
      "duration": 0.0161,
      "velocity": 124,
      "chip": "ym2612"
    },
    {
      "channel": 0,
      "note": 37,
      "start": 83.3537,
      "duration": 0.0161,
      "velocity": 115,
      "chip": "ym2612"
    },
    {
      "channel": 4,
      "note": 68,
      "start": 83.3549,
      "duration": 0.0161,
      "velocity": 120,
      "chip": "ym2612"
    },
    {
      "channel": 3,
      "note": 75,
      "start": 83.3564,
      "duration": 0.0158,
      "velocity": 120,
      "chip": "ym2612"
    },
    {
      "channel": 2,
      "note": 56,
      "start": 83.3576,
      "duration": 0.0185,
      "velocity": 100,
      "chip": "ym2612"
    },
    {
      "channel": 1,
      "note": 59,
      "start": 83.3681,
      "duration": 0.0161,
      "velocity": 124,
      "chip": "ym2612"
    },
    {
      "channel": 0,
      "note": 37,
      "start": 83.3698,
      "duration": 0.0161,
      "velocity": 115,
      "chip": "ym2612"
    },
    {
      "channel": 4,
      "note": 68,
      "start": 83.371,
      "duration": 0.0161,
      "velocity": 120,
      "chip": "ym2612"
    },
    {
      "channel": 3,
      "note": 75,
      "start": 83.3722,
      "duration": 0.0161,
      "velocity": 120,
      "chip": "ym2612"
    },
    {
      "channel": 2,
      "note": 56,
      "start": 83.3761,
      "duration": 0.0161,
      "velocity": 100,
      "chip": "ym2612"
    },
    {
      "channel": 1,
      "note": 57,
      "start": 83.3842,
      "duration": 0.0161,
      "velocity": 124,
      "chip": "ym2612"
    },
    {
      "channel": 0,
      "note": 38,
      "start": 83.3859,
      "duration": 0.0161,
      "velocity": 115,
      "chip": "ym2612"
    },
    {
      "channel": 4,
      "note": 68,
      "start": 83.3871,
      "duration": 0.0161,
      "velocity": 120,
      "chip": "ym2612"
    },
    {
      "channel": 3,
      "note": 75,
      "start": 83.3883,
      "duration": 0.0161,
      "velocity": 120,
      "chip": "ym2612"
    },
    {
      "channel": 2,
      "note": 56,
      "start": 83.3922,
      "duration": 0.0134,
      "velocity": 100,
      "chip": "ym2612"
    },
    {
      "channel": 1,
      "note": 56,
      "start": 83.4003,
      "duration": 0.0161,
      "velocity": 124,
      "chip": "ym2612"
    },
    {
      "channel": 0,
      "note": 38,
      "start": 83.402,
      "duration": 0.0161,
      "velocity": 115,
      "chip": "ym2612"
    },
    {
      "channel": 4,
      "note": 68,
      "start": 83.4032,
      "duration": 0.0161,
      "velocity": 120,
      "chip": "ym2612"
    },
    {
      "channel": 3,
      "note": 75,
      "start": 83.4044,
      "duration": 0.0161,
      "velocity": 120,
      "chip": "ym2612"
    },
    {
      "channel": 2,
      "note": 56,
      "start": 83.4055,
      "duration": 0.0161,
      "velocity": 100,
      "chip": "ym2612"
    },
    {
      "channel": 1,
      "note": 55,
      "start": 83.4164,
      "duration": 0.0161,
      "velocity": 124,
      "chip": "ym2612"
    },
    {
      "channel": 0,
      "note": 39,
      "start": 83.4181,
      "duration": 0.0161,
      "velocity": 115,
      "chip": "ym2612"
    },
    {
      "channel": 4,
      "note": 68,
      "start": 83.4193,
      "duration": 0.0161,
      "velocity": 120,
      "chip": "ym2612"
    },
    {
      "channel": 3,
      "note": 75,
      "start": 83.4205,
      "duration": 0.0161,
      "velocity": 120,
      "chip": "ym2612"
    },
    {
      "channel": 2,
      "note": 56,
      "start": 83.4216,
      "duration": 0.0161,
      "velocity": 100,
      "chip": "ym2612"
    },
    {
      "channel": 1,
      "note": 53,
      "start": 83.4325,
      "duration": 0.0161,
      "velocity": 124,
      "chip": "ym2612"
    },
    {
      "channel": 0,
      "note": 39,
      "start": 83.4342,
      "duration": 0.0161,
      "velocity": 115,
      "chip": "ym2612"
    },
    {
      "channel": 4,
      "note": 68,
      "start": 83.4354,
      "duration": 0.0161,
      "velocity": 120,
      "chip": "ym2612"
    },
    {
      "channel": 3,
      "note": 75,
      "start": 83.4366,
      "duration": 0.0161,
      "velocity": 120,
      "chip": "ym2612"
    },
    {
      "channel": 1,
      "note": 52,
      "start": 83.4486,
      "duration": 0.0161,
      "velocity": 124,
      "chip": "ym2612"
    },
    {
      "channel": 0,
      "note": 40,
      "start": 83.4503,
      "duration": 0.0161,
      "velocity": 115,
      "chip": "ym2612"
    },
    {
      "channel": 4,
      "note": 68,
      "start": 83.4515,
      "duration": 0.0161,
      "velocity": 120,
      "chip": "ym2612"
    },
    {
      "channel": 3,
      "note": 75,
      "start": 83.4527,
      "duration": 0.0161,
      "velocity": 120,
      "chip": "ym2612"
    },
    {
      "channel": 1,
      "note": 51,
      "start": 83.4647,
      "duration": 0.0153,
      "velocity": 1,
      "chip": "ym2612"
    },
    {
      "channel": 0,
      "note": 40,
      "start": 83.4664,
      "duration": 0.0153,
      "velocity": 115,
      "chip": "ym2612"
    },
    {
      "channel": 4,
      "note": 68,
      "start": 83.4676,
      "duration": 0.0153,
      "velocity": 120,
      "chip": "ym2612"
    },
    {
      "channel": 3,
      "note": 75,
      "start": 83.4688,
      "duration": 0.0153,
      "velocity": 120,
      "chip": "ym2612"
    },
    {
      "channel": 0,
      "note": 40,
      "start": 83.4817,
      "duration": 0.0153,
      "velocity": 115,
      "chip": "ym2612"
    },
    {
      "channel": 4,
      "note": 68,
      "start": 83.4829,
      "duration": 0.0153,
      "velocity": 120,
      "chip": "ym2612"
    },
    {
      "channel": 3,
      "note": 75,
      "start": 83.4841,
      "duration": 0.0153,
      "velocity": 120,
      "chip": "ym2612"
    },
    {
      "channel": 0,
      "note": 41,
      "start": 83.497,
      "duration": 0.0179,
      "velocity": 115,
      "chip": "ym2612"
    },
    {
      "channel": 4,
      "note": 68,
      "start": 83.4982,
      "duration": 0.0181,
      "velocity": 120,
      "chip": "ym2612"
    },
    {
      "channel": 3,
      "note": 75,
      "start": 83.4993,
      "duration": 0.0183,
      "velocity": 120,
      "chip": "ym2612"
    },
    {
      "channel": 0,
      "note": 36,
      "start": 83.5149,
      "duration": 0.0144,
      "velocity": 115,
      "chip": "ym2612"
    },
    {
      "channel": 4,
      "note": 60,
      "start": 83.5163,
      "duration": 0.0141,
      "velocity": 120,
      "chip": "ym2612"
    },
    {
      "channel": 3,
      "note": 67,
      "start": 83.5177,
      "duration": 0.0139,
      "velocity": 120,
      "chip": "ym2612"
    },
    {
      "channel": 2,
      "note": 48,
      "start": 83.5192,
      "duration": 0.0137,
      "velocity": 100,
      "chip": "ym2612"
    },
    {
      "channel": 1,
      "note": 36,
      "start": 83.5206,
      "duration": 0.0135,
      "velocity": 100,
      "chip": "ym2612"
    },
    {
      "channel": 0,
      "note": 36,
      "start": 83.5293,
      "duration": 0.016,
      "velocity": 115,
      "chip": "ym2612"
    },
    {
      "channel": 4,
      "note": 60,
      "start": 83.5305,
      "duration": 0.016,
      "velocity": 120,
      "chip": "ym2612"
    },
    {
      "channel": 3,
      "note": 67,
      "start": 83.5317,
      "duration": 0.0159,
      "velocity": 120,
      "chip": "ym2612"
    },
    {
      "channel": 2,
      "note": 48,
      "start": 83.5329,
      "duration": 0.0158,
      "velocity": 100,
      "chip": "ym2612"
    },
    {
      "channel": 1,
      "note": 36,
      "start": 83.5341,
      "duration": 0.0158,
      "velocity": 100,
      "chip": "ym2612"
    },
    {
      "channel": 0,
      "note": 37,
      "start": 83.5453,
      "duration": 0.0161,
      "velocity": 115,
      "chip": "ym2612"
    },
    {
      "channel": 4,
      "note": 60,
      "start": 83.5464,
      "duration": 0.0161,
      "velocity": 120,
      "chip": "ym2612"
    },
    {
      "channel": 3,
      "note": 67,
      "start": 83.5476,
      "duration": 0.0161,
      "velocity": 120,
      "chip": "ym2612"
    },
    {
      "channel": 2,
      "note": 48,
      "start": 83.5487,
      "duration": 0.0161,
      "velocity": 100,
      "chip": "ym2612"
    },
    {
      "channel": 1,
      "note": 36,
      "start": 83.5499,
      "duration": 0.0161,
      "velocity": 100,
      "chip": "ym2612"
    },
    {
      "channel": 0,
      "note": 37,
      "start": 83.5614,
      "duration": 0.0161,
      "velocity": 115,
      "chip": "ym2612"
    },
    {
      "channel": 4,
      "note": 60,
      "start": 83.5625,
      "duration": 0.0162,
      "velocity": 120,
      "chip": "ym2612"
    },
    {
      "channel": 3,
      "note": 67,
      "start": 83.5637,
      "duration": 0.0161,
      "velocity": 120,
      "chip": "ym2612"
    },
    {
      "channel": 2,
      "note": 48,
      "start": 83.5648,
      "duration": 0.0162,
      "velocity": 100,
      "chip": "ym2612"
    },
    {
      "channel": 1,
      "note": 36,
      "start": 83.566,
      "duration": 0.0161,
      "velocity": 100,
      "chip": "ym2612"
    },
    {
      "channel": 0,
      "note": 38,
      "start": 83.5775,
      "duration": 0.0166,
      "velocity": 115,
      "chip": "ym2612"
    },
    {
      "channel": 4,
      "note": 60,
      "start": 83.5787,
      "duration": 0.0165,
      "velocity": 120,
      "chip": "ym2612"
    },
    {
      "channel": 3,
      "note": 67,
      "start": 83.5798,
      "duration": 0.0165,
      "velocity": 120,
      "chip": "ym2612"
    },
    {
      "channel": 2,
      "note": 48,
      "start": 83.581,
      "duration": 0.0165,
      "velocity": 100,
      "chip": "ym2612"
    },
    {
      "channel": 1,
      "note": 36,
      "start": 83.582,
      "duration": 0.0165,
      "velocity": 100,
      "chip": "ym2612"
    },
    {
      "channel": 0,
      "note": 38,
      "start": 83.594,
      "duration": 0.0163,
      "velocity": 115,
      "chip": "ym2612"
    },
    {
      "channel": 4,
      "note": 60,
      "start": 83.5951,
      "duration": 0.0163,
      "velocity": 120,
      "chip": "ym2612"
    },
    {
      "channel": 3,
      "note": 67,
      "start": 83.5963,
      "duration": 0.0163,
      "velocity": 120,
      "chip": "ym2612"
    },
    {
      "channel": 2,
      "note": 48,
      "start": 83.5974,
      "duration": 0.0163,
      "velocity": 100,
      "chip": "ym2612"
    },
    {
      "channel": 1,
      "note": 36,
      "start": 83.5985,
      "duration": 0.0163,
      "velocity": 100,
      "chip": "ym2612"
    },
    {
      "channel": 0,
      "note": 39,
      "start": 83.6103,
      "duration": 0.0155,
      "velocity": 115,
      "chip": "ym2612"
    },
    {
      "channel": 4,
      "note": 60,
      "start": 83.6114,
      "duration": 0.0155,
      "velocity": 120,
      "chip": "ym2612"
    },
    {
      "channel": 3,
      "note": 67,
      "start": 83.6126,
      "duration": 0.0155,
      "velocity": 120,
      "chip": "ym2612"
    },
    {
      "channel": 2,
      "note": 48,
      "start": 83.6137,
      "duration": 0.0155,
      "velocity": 100,
      "chip": "ym2612"
    },
    {
      "channel": 1,
      "note": 36,
      "start": 83.6149,
      "duration": 0.0155,
      "velocity": 100,
      "chip": "ym2612"
    },
    {
      "channel": 0,
      "note": 39,
      "start": 83.6258,
      "duration": 0.0182,
      "velocity": 115,
      "chip": "ym2612"
    },
    {
      "channel": 4,
      "note": 60,
      "start": 83.627,
      "duration": 0.0182,
      "velocity": 120,
      "chip": "ym2612"
    },
    {
      "channel": 3,
      "note": 67,
      "start": 83.6281,
      "duration": 0.0182,
      "velocity": 120,
      "chip": "ym2612"
    },
    {
      "channel": 0,
      "note": 40,
      "start": 83.644,
      "duration": 0.0167,
      "velocity": 115,
      "chip": "ym2612"
    },
    {
      "channel": 4,
      "note": 60,
      "start": 83.6451,
      "duration": 0.0167,
      "velocity": 120,
      "chip": "ym2612"
    },
    {
      "channel": 3,
      "note": 67,
      "start": 83.6463,
      "duration": 0.0167,
      "velocity": 120,
      "chip": "ym2612"
    },
    {
      "channel": 0,
      "note": 40,
      "start": 83.6607,
      "duration": 0.0158,
      "velocity": 115,
      "chip": "ym2612"
    },
    {
      "channel": 4,
      "note": 60,
      "start": 83.6618,
      "duration": 0.0159,
      "velocity": 120,
      "chip": "ym2612"
    },
    {
      "channel": 3,
      "note": 67,
      "start": 83.663,
      "duration": 0.0158,
      "velocity": 120,
      "chip": "ym2612"
    },
    {
      "channel": 0,
      "note": 40,
      "start": 83.6765,
      "duration": 0.0141,
      "velocity": 115,
      "chip": "ym2612"
    },
    {
      "channel": 4,
      "note": 60,
      "start": 83.6777,
      "duration": 0.0141,
      "velocity": 120,
      "chip": "ym2612"
    },
    {
      "channel": 3,
      "note": 67,
      "start": 83.6788,
      "duration": 0.0141,
      "velocity": 120,
      "chip": "ym2612"
    },
    {
      "channel": 0,
      "note": 41,
      "start": 83.6905,
      "duration": 0.0186,
      "velocity": 115,
      "chip": "ym2612"
    },
    {
      "channel": 4,
      "note": 60,
      "start": 83.6917,
      "duration": 0.0185,
      "velocity": 120,
      "chip": "ym2612"
    },
    {
      "channel": 3,
      "note": 67,
      "start": 83.6929,
      "duration": 0.0186,
      "velocity": 120,
      "chip": "ym2612"
    },
    {
      "channel": 0,
      "note": 41,
      "start": 83.7091,
      "duration": 0.0133,
      "velocity": 115,
      "chip": "ym2612"
    },
    {
      "channel": 4,
      "note": 60,
      "start": 83.7102,
      "duration": 0.0161,
      "velocity": 120,
      "chip": "ym2612"
    },
    {
      "channel": 3,
      "note": 67,
      "start": 83.7114,
      "duration": 0.0161,
      "velocity": 120,
      "chip": "ym2612"
    },
    {
      "channel": 2,
      "note": 48,
      "start": 83.7128,
      "duration": 0.0159,
      "velocity": 100,
      "chip": "ym2612"
    },
    {
      "channel": 1,
      "note": 36,
      "start": 83.7143,
      "duration": 0.0156,
      "velocity": 100,
      "chip": "ym2612"
    },
    {
      "channel": 0,
      "note": 42,
      "start": 83.7224,
      "duration": 0.0161,
      "velocity": 115,
      "chip": "ym2612"
    },
    {
      "channel": 4,
      "note": 60,
      "start": 83.7263,
      "duration": 0.0158,
      "velocity": 120,
      "chip": "ym2612"
    },
    {
      "channel": 3,
      "note": 67,
      "start": 83.7275,
      "duration": 0.0157,
      "velocity": 120,
      "chip": "ym2612"
    },
    {
      "channel": 2,
      "note": 48,
      "start": 83.7287,
      "duration": 0.0157,
      "velocity": 100,
      "chip": "ym2612"
    },
    {
      "channel": 1,
      "note": 36,
      "start": 83.7299,
      "duration": 0.0156,
      "velocity": 100,
      "chip": "ym2612"
    },
    {
      "channel": 0,
      "note": 42,
      "start": 83.7385,
      "duration": 0.0161,
      "velocity": 115,
      "chip": "ym2612"
    },
    {
      "channel": 4,
      "note": 60,
      "start": 83.7421,
      "duration": 0.0137,
      "velocity": 120,
      "chip": "ym2612"
    },
    {
      "channel": 3,
      "note": 67,
      "start": 83.7432,
      "duration": 0.0141,
      "velocity": 120,
      "chip": "ym2612"
    },
    {
      "channel": 2,
      "note": 48,
      "start": 83.7444,
      "duration": 0.0141,
      "velocity": 100,
      "chip": "ym2612"
    },
    {
      "channel": 1,
      "note": 36,
      "start": 83.7455,
      "duration": 0.0141,
      "velocity": 100,
      "chip": "ym2612"
    },
    {
      "channel": 0,
      "note": 43,
      "start": 83.7546,
      "duration": 0.0161,
      "velocity": 115,
      "chip": "ym2612"
    },
    {
      "channel": 4,
      "note": 60,
      "start": 83.7558,
      "duration": 0.0161,
      "velocity": 120,
      "chip": "ym2612"
    },
    {
      "channel": 3,
      "note": 67,
      "start": 83.7573,
      "duration": 0.0185,
      "velocity": 120,
      "chip": "ym2612"
    },
    {
      "channel": 2,
      "note": 48,
      "start": 83.7585,
      "duration": 0.0185,
      "velocity": 100,
      "chip": "ym2612"
    },
    {
      "channel": 1,
      "note": 36,
      "start": 83.7595,
      "duration": 0.0185,
      "velocity": 100,
      "chip": "ym2612"
    },
    {
      "channel": 0,
      "note": 43,
      "start": 83.7707,
      "duration": 0.0161,
      "velocity": 115,
      "chip": "ym2612"
    },
    {
      "channel": 4,
      "note": 60,
      "start": 83.7719,
      "duration": 0.0161,
      "velocity": 120,
      "chip": "ym2612"
    },
    {
      "channel": 3,
      "note": 67,
      "start": 83.7758,
      "duration": 0.0134,
      "velocity": 120,
      "chip": "ym2612"
    },
    {
      "channel": 2,
      "note": 48,
      "start": 83.777,
      "duration": 0.0161,
      "velocity": 100,
      "chip": "ym2612"
    },
    {
      "channel": 1,
      "note": 36,
      "start": 83.778,
      "duration": 0.0161,
      "velocity": 100,
      "chip": "ym2612"
    },
    {
      "channel": 0,
      "note": 44,
      "start": 83.7868,
      "duration": 0.0161,
      "velocity": 115,
      "chip": "ym2612"
    },
    {
      "channel": 4,
      "note": 60,
      "start": 83.788,
      "duration": 0.0161,
      "velocity": 120,
      "chip": "ym2612"
    },
    {
      "channel": 3,
      "note": 67,
      "start": 83.7892,
      "duration": 0.0161,
      "velocity": 120,
      "chip": "ym2612"
    },
    {
      "channel": 2,
      "note": 48,
      "start": 83.7931,
      "duration": 0.0157,
      "velocity": 100,
      "chip": "ym2612"
    },
    {
      "channel": 1,
      "note": 36,
      "start": 83.7942,
      "duration": 0.0157,
      "velocity": 100,
      "chip": "ym2612"
    },
    {
      "channel": 0,
      "note": 44,
      "start": 83.8029,
      "duration": 0.0161,
      "velocity": 115,
      "chip": "ym2612"
    },
    {
      "channel": 4,
      "note": 60,
      "start": 83.8041,
      "duration": 0.0161,
      "velocity": 120,
      "chip": "ym2612"
    },
    {
      "channel": 3,
      "note": 67,
      "start": 83.8053,
      "duration": 0.0161,
      "velocity": 120,
      "chip": "ym2612"
    },
    {
      "channel": 2,
      "note": 48,
      "start": 83.8088,
      "duration": 0.0137,
      "velocity": 100,
      "chip": "ym2612"
    },
    {
      "channel": 1,
      "note": 36,
      "start": 83.8099,
      "duration": 0.0141,
      "velocity": 100,
      "chip": "ym2612"
    },
    {
      "channel": 0,
      "note": 44,
      "start": 83.819,
      "duration": 0.0161,
      "velocity": 115,
      "chip": "ym2612"
    },
    {
      "channel": 4,
      "note": 60,
      "start": 83.8202,
      "duration": 0.0161,
      "velocity": 120,
      "chip": "ym2612"
    },
    {
      "channel": 3,
      "note": 67,
      "start": 83.8214,
      "duration": 0.0161,
      "velocity": 120,
      "chip": "ym2612"
    },
    {
      "channel": 0,
      "note": 45,
      "start": 83.8351,
      "duration": 0.0161,
      "velocity": 115,
      "chip": "ym2612"
    },
    {
      "channel": 4,
      "note": 60,
      "start": 83.8363,
      "duration": 0.0161,
      "velocity": 120,
      "chip": "ym2612"
    },
    {
      "channel": 3,
      "note": 67,
      "start": 83.8375,
      "duration": 0.0161,
      "velocity": 120,
      "chip": "ym2612"
    },
    {
      "channel": 0,
      "note": 45,
      "start": 83.8512,
      "duration": 0.0161,
      "velocity": 115,
      "chip": "ym2612"
    },
    {
      "channel": 4,
      "note": 60,
      "start": 83.8524,
      "duration": 0.0161,
      "velocity": 120,
      "chip": "ym2612"
    },
    {
      "channel": 3,
      "note": 67,
      "start": 83.8536,
      "duration": 0.0161,
      "velocity": 120,
      "chip": "ym2612"
    },
    {
      "channel": 0,
      "note": 46,
      "start": 83.8673,
      "duration": 0.0161,
      "velocity": 115,
      "chip": "ym2612"
    },
    {
      "channel": 4,
      "note": 60,
      "start": 83.8685,
      "duration": 0.0161,
      "velocity": 120,
      "chip": "ym2612"
    },
    {
      "channel": 3,
      "note": 67,
      "start": 83.8696,
      "duration": 0.0161,
      "velocity": 120,
      "chip": "ym2612"
    },
    {
      "channel": 0,
      "note": 46,
      "start": 83.8834,
      "duration": 0.0196,
      "velocity": 115,
      "chip": "ym2612"
    },
    {
      "channel": 4,
      "note": 60,
      "start": 83.8846,
      "duration": 0.0196,
      "velocity": 120,
      "chip": "ym2612"
    },
    {
      "channel": 3,
      "note": 67,
      "start": 83.8857,
      "duration": 0.0196,
      "velocity": 120,
      "chip": "ym2612"
    },
    {
      "channel": 1,
      "note": 78,
      "start": 83.9013,
      "duration": 0.0143,
      "velocity": 124,
      "chip": "ym2612"
    },
    {
      "channel": 0,
      "note": 47,
      "start": 83.903,
      "duration": 0.0143,
      "velocity": 115,
      "chip": "ym2612"
    },
    {
      "channel": 4,
      "note": 60,
      "start": 83.9042,
      "duration": 0.0143,
      "velocity": 120,
      "chip": "ym2612"
    },
    {
      "channel": 3,
      "note": 67,
      "start": 83.9053,
      "duration": 0.0144,
      "velocity": 120,
      "chip": "ym2612"
    },
    {
      "channel": 2,
      "note": 48,
      "start": 83.9095,
      "duration": 0.0113,
      "velocity": 100,
      "chip": "ym2612"
    },
    {
      "channel": 1,
      "note": 76,
      "start": 83.9156,
      "duration": 0.0161,
      "velocity": 124,
      "chip": "ym2612"
    },
    {
      "channel": 0,
      "note": 47,
      "start": 83.9173,
      "duration": 0.0161,
      "velocity": 115,
      "chip": "ym2612"
    },
    {
      "channel": 4,
      "note": 60,
      "start": 83.9185,
      "duration": 0.0161,
      "velocity": 120,
      "chip": "ym2612"
    },
    {
      "channel": 3,
      "note": 67,
      "start": 83.9197,
      "duration": 0.016,
      "velocity": 120,
      "chip": "ym2612"
    },
    {
      "channel": 2,
      "note": 48,
      "start": 83.9209,
      "duration": 0.016,
      "velocity": 100,
      "chip": "ym2612"
    },
    {
      "channel": 1,
      "note": 75,
      "start": 83.9317,
      "duration": 0.0161,
      "velocity": 124,
      "chip": "ym2612"
    },
    {
      "channel": 0,
      "note": 47,
      "start": 83.9334,
      "duration": 0.0161,
      "velocity": 115,
      "chip": "ym2612"
    },
    {
      "channel": 4,
      "note": 60,
      "start": 83.9346,
      "duration": 0.0161,
      "velocity": 120,
      "chip": "ym2612"
    },
    {
      "channel": 3,
      "note": 67,
      "start": 83.9357,
      "duration": 0.0161,
      "velocity": 120,
      "chip": "ym2612"
    },
    {
      "channel": 2,
      "note": 48,
      "start": 83.9369,
      "duration": 0.0161,
      "velocity": 100,
      "chip": "ym2612"
    },
    {
      "channel": 1,
      "note": 74,
      "start": 83.9478,
      "duration": 0.0161,
      "velocity": 124,
      "chip": "ym2612"
    },
    {
      "channel": 0,
      "note": 48,
      "start": 83.9495,
      "duration": 0.0161,
      "velocity": 115,
      "chip": "ym2612"
    },
    {
      "channel": 4,
      "note": 60,
      "start": 83.9507,
      "duration": 0.0161,
      "velocity": 120,
      "chip": "ym2612"
    },
    {
      "channel": 3,
      "note": 67,
      "start": 83.9518,
      "duration": 0.0161,
      "velocity": 120,
      "chip": "ym2612"
    },
    {
      "channel": 2,
      "note": 48,
      "start": 83.953,
      "duration": 0.0161,
      "velocity": 100,
      "chip": "ym2612"
    },
    {
      "channel": 1,
      "note": 72,
      "start": 83.9639,
      "duration": 0.0161,
      "velocity": 124,
      "chip": "ym2612"
    },
    {
      "channel": 0,
      "note": 48,
      "start": 83.9656,
      "duration": 0.0161,
      "velocity": 115,
      "chip": "ym2612"
    },
    {
      "channel": 4,
      "note": 60,
      "start": 83.9668,
      "duration": 0.0161,
      "velocity": 120,
      "chip": "ym2612"
    },
    {
      "channel": 3,
      "note": 67,
      "start": 83.9679,
      "duration": 0.0161,
      "velocity": 120,
      "chip": "ym2612"
    },
    {
      "channel": 2,
      "note": 48,
      "start": 83.9691,
      "duration": 0.0161,
      "velocity": 100,
      "chip": "ym2612"
    },
    {
      "channel": 1,
      "note": 71,
      "start": 83.98,
      "duration": 0.0161,
      "velocity": 124,
      "chip": "ym2612"
    },
    {
      "channel": 0,
      "note": 49,
      "start": 83.9817,
      "duration": 0.0153,
      "velocity": 1,
      "chip": "ym2612"
    },
    {
      "channel": 4,
      "note": 60,
      "start": 83.9829,
      "duration": 0.0153,
      "velocity": 120,
      "chip": "ym2612"
    },
    {
      "channel": 3,
      "note": 67,
      "start": 83.984,
      "duration": 0.0153,
      "velocity": 120,
      "chip": "ym2612"
    },
    {
      "channel": 2,
      "note": 48,
      "start": 83.9852,
      "duration": 0.0153,
      "velocity": 100,
      "chip": "ym2612"
    },
    {
      "channel": 1,
      "note": 70,
      "start": 83.9961,
      "duration": 0.0161,
      "velocity": 124,
      "chip": "ym2612"
    },
    {
      "channel": 4,
      "note": 60,
      "start": 83.9981,
      "duration": 0.0153,
      "velocity": 120,
      "chip": "ym2612"
    },
    {
      "channel": 3,
      "note": 67,
      "start": 83.9993,
      "duration": 0.0152,
      "velocity": 120,
      "chip": "ym2612"
    },
    {
      "channel": 2,
      "note": 48,
      "start": 84.0004,
      "duration": 0.0153,
      "velocity": 100,
      "chip": "ym2612"
    },
    {
      "channel": 1,
      "note": 69,
      "start": 84.0121,
      "duration": 0.0161,
      "velocity": 124,
      "chip": "ym2612"
    },
    {
      "channel": 4,
      "note": 60,
      "start": 84.0134,
      "duration": 0.0161,
      "velocity": 120,
      "chip": "ym2612"
    },
    {
      "channel": 3,
      "note": 67,
      "start": 84.0146,
      "duration": 0.0162,
      "velocity": 120,
      "chip": "ym2612"
    },
    {
      "channel": 1,
      "note": 68,
      "start": 84.0282,
      "duration": 0.0161,
      "velocity": 124,
      "chip": "ym2612"
    },
    {
      "channel": 4,
      "note": 60,
      "start": 84.0295,
      "duration": 0.0161,
      "velocity": 120,
      "chip": "ym2612"
    },
    {
      "channel": 3,
      "note": 67,
      "start": 84.0307,
      "duration": 0.0161,
      "velocity": 120,
      "chip": "ym2612"
    },
    {
      "channel": 1,
      "note": 66,
      "start": 84.0443,
      "duration": 0.0162,
      "velocity": 124,
      "chip": "ym2612"
    },
    {
      "channel": 4,
      "note": 60,
      "start": 84.0456,
      "duration": 0.0162,
      "velocity": 120,
      "chip": "ym2612"
    },
    {
      "channel": 3,
      "note": 67,
      "start": 84.0468,
      "duration": 0.0162,
      "velocity": 120,
      "chip": "ym2612"
    },
    {
      "channel": 1,
      "note": 65,
      "start": 84.0605,
      "duration": 0.0163,
      "velocity": 124,
      "chip": "ym2612"
    },
    {
      "channel": 4,
      "note": 60,
      "start": 84.0618,
      "duration": 0.0163,
      "velocity": 120,
      "chip": "ym2612"
    },
    {
      "channel": 3,
      "note": 67,
      "start": 84.063,
      "duration": 0.0163,
      "velocity": 120,
      "chip": "ym2612"
    },
    {
      "channel": 1,
      "note": 64,
      "start": 84.0769,
      "duration": 0.0158,
      "velocity": 124,
      "chip": "ym2612"
    },
    {
      "channel": 4,
      "note": 60,
      "start": 84.0782,
      "duration": 0.0192,
      "velocity": 120,
      "chip": "ym2612"
    },
    {
      "channel": 3,
      "note": 67,
      "start": 84.0793,
      "duration": 0.0193,
      "velocity": 120,
      "chip": "ym2612"
    },
    {
      "channel": 1,
      "note": 62,
      "start": 84.0927,
      "duration": 0.0179,
      "velocity": 124,
      "chip": "ym2612"
    },
    {
      "channel": 0,
      "note": 36,
      "start": 84.0962,
      "duration": 0.0162,
      "velocity": 115,
      "chip": "ym2612"
    },
    {
      "channel": 4,
      "note": 60,
      "start": 84.0974,
      "duration": 0.0161,
      "velocity": 120,
      "chip": "ym2612"
    },
    {
      "channel": 3,
      "note": 67,
      "start": 84.0986,
      "duration": 0.0161,
      "velocity": 120,
      "chip": "ym2612"
    },
    {
      "channel": 2,
      "note": 48,
      "start": 84.1,
      "duration": 0.0159,
      "velocity": 100,
      "chip": "ym2612"
    },
    {
      "channel": 1,
      "note": 61,
      "start": 84.1105,
      "duration": 0.0167,
      "velocity": 124,
      "chip": "ym2612"
    },
    {
      "channel": 0,
      "note": 36,
      "start": 84.1123,
      "duration": 0.0167,
      "velocity": 115,
      "chip": "ym2612"
    },
    {
      "channel": 4,
      "note": 60,
      "start": 84.1135,
      "duration": 0.0167,
      "velocity": 120,
      "chip": "ym2612"
    },
    {
      "channel": 3,
      "note": 67,
      "start": 84.1147,
      "duration": 0.0167,
      "velocity": 120,
      "chip": "ym2612"
    },
    {
      "channel": 2,
      "note": 48,
      "start": 84.1159,
      "duration": 0.0166,
      "velocity": 100,
      "chip": "ym2612"
    },
    {
      "channel": 1,
      "note": 60,
      "start": 84.1273,
      "duration": 0.016,
      "velocity": 124,
      "chip": "ym2612"
    },
    {
      "channel": 0,
      "note": 37,
      "start": 84.129,
      "duration": 0.0161,
      "velocity": 115,
      "chip": "ym2612"
    },
    {
      "channel": 4,
      "note": 60,
      "start": 84.1302,
      "duration": 0.016,
      "velocity": 120,
      "chip": "ym2612"
    },
    {
      "channel": 3,
      "note": 67,
      "start": 84.1314,
      "duration": 0.0161,
      "velocity": 120,
      "chip": "ym2612"
    },
    {
      "channel": 2,
      "note": 48,
      "start": 84.1325,
      "duration": 0.016,
      "velocity": 100,
      "chip": "ym2612"
    },
    {
      "channel": 1,
      "note": 59,
      "start": 84.1433,
      "duration": 0.0141,
      "velocity": 124,
      "chip": "ym2612"
    },
    {
      "channel": 0,
      "note": 37,
      "start": 84.1451,
      "duration": 0.014,
      "velocity": 115,
      "chip": "ym2612"
    },
    {
      "channel": 4,
      "note": 60,
      "start": 84.1462,
      "duration": 0.0141,
      "velocity": 120,
      "chip": "ym2612"
    },
    {
      "channel": 3,
      "note": 67,
      "start": 84.1474,
      "duration": 0.014,
      "velocity": 120,
      "chip": "ym2612"
    },
    {
      "channel": 2,
      "note": 48,
      "start": 84.1485,
      "duration": 0.0141,
      "velocity": 100,
      "chip": "ym2612"
    },
    {
      "channel": 1,
      "note": 57,
      "start": 84.1574,
      "duration": 0.0185,
      "velocity": 124,
      "chip": "ym2612"
    },
    {
      "channel": 0,
      "note": 38,
      "start": 84.1591,
      "duration": 0.0186,
      "velocity": 115,
      "chip": "ym2612"
    },
    {
      "channel": 4,
      "note": 60,
      "start": 84.1603,
      "duration": 0.0185,
      "velocity": 120,
      "chip": "ym2612"
    },
    {
      "channel": 3,
      "note": 67,
      "start": 84.1614,
      "duration": 0.0186,
      "velocity": 120,
      "chip": "ym2612"
    },
    {
      "channel": 2,
      "note": 48,
      "start": 84.1626,
      "duration": 0.0185,
      "velocity": 100,
      "chip": "ym2612"
    },
    {
      "channel": 1,
      "note": 56,
      "start": 84.1759,
      "duration": 0.0161,
      "velocity": 124,
      "chip": "ym2612"
    },
    {
      "channel": 0,
      "note": 38,
      "start": 84.1777,
      "duration": 0.0161,
      "velocity": 115,
      "chip": "ym2612"
    },
    {
      "channel": 4,
      "note": 60,
      "start": 84.1788,
      "duration": 0.0162,
      "velocity": 120,
      "chip": "ym2612"
    },
    {
      "channel": 3,
      "note": 67,
      "start": 84.18,
      "duration": 0.0161,
      "velocity": 120,
      "chip": "ym2612"
    },
    {
      "channel": 2,
      "note": 48,
      "start": 84.1811,
      "duration": 0.0162,
      "velocity": 100,
      "chip": "ym2612"
    },
    {
      "channel": 1,
      "note": 55,
      "start": 84.192,
      "duration": 0.0134,
      "velocity": 124,
      "chip": "ym2612"
    },
    {
      "channel": 0,
      "note": 39,
      "start": 84.1938,
      "duration": 0.0157,
      "velocity": 115,
      "chip": "ym2612"
    },
    {
      "channel": 4,
      "note": 60,
      "start": 84.195,
      "duration": 0.0157,
      "velocity": 120,
      "chip": "ym2612"
    },
    {
      "channel": 3,
      "note": 67,
      "start": 84.1961,
      "duration": 0.0157,
      "velocity": 120,
      "chip": "ym2612"
    },
    {
      "channel": 2,
      "note": 48,
      "start": 84.1973,
      "duration": 0.0157,
      "velocity": 100,
      "chip": "ym2612"
    },
    {
      "channel": 1,
      "note": 53,
      "start": 84.2053,
      "duration": 0.0162,
      "velocity": 124,
      "chip": "ym2612"
    },
    {
      "channel": 0,
      "note": 39,
      "start": 84.2095,
      "duration": 0.0141,
      "velocity": 115,
      "chip": "ym2612"
    },
    {
      "channel": 4,
      "note": 60,
      "start": 84.2107,
      "duration": 0.0141,
      "velocity": 120,
      "chip": "ym2612"
    },
    {
      "channel": 3,
      "note": 67,
      "start": 84.2118,
      "duration": 0.0141,
      "velocity": 120,
      "chip": "ym2612"
    },
    {
      "channel": 1,
      "note": 52,
      "start": 84.2215,
      "duration": 0.0161,
      "velocity": 124,
      "chip": "ym2612"
    },
    {
      "channel": 0,
      "note": 40,
      "start": 84.2235,
      "duration": 0.0185,
      "velocity": 115,
      "chip": "ym2612"
    },
    {
      "channel": 4,
      "note": 60,
      "start": 84.2247,
      "duration": 0.0185,
      "velocity": 120,
      "chip": "ym2612"
    },
    {
      "channel": 3,
      "note": 67,
      "start": 84.2259,
      "duration": 0.0185,
      "velocity": 120,
      "chip": "ym2612"
    },
    {
      "channel": 1,
      "note": 51,
      "start": 84.2376,
      "duration": 0.0153,
      "velocity": 1,
      "chip": "ym2612"
    },
    {
      "channel": 0,
      "note": 40,
      "start": 84.242,
      "duration": 0.0125,
      "velocity": 115,
      "chip": "ym2612"
    },
    {
      "channel": 4,
      "note": 60,
      "start": 84.2432,
      "duration": 0.0125,
      "velocity": 120,
      "chip": "ym2612"
    },
    {
      "channel": 3,
      "note": 67,
      "start": 84.2444,
      "duration": 0.0153,
      "velocity": 120,
      "chip": "ym2612"
    },
    {
      "channel": 0,
      "note": 40,
      "start": 84.2546,
      "duration": 0.0153,
      "velocity": 115,
      "chip": "ym2612"
    },
    {
      "channel": 4,
      "note": 60,
      "start": 84.2558,
      "duration": 0.0153,
      "velocity": 120,
      "chip": "ym2612"
    },
    {
      "channel": 3,
      "note": 67,
      "start": 84.2597,
      "duration": 0.0125,
      "velocity": 120,
      "chip": "ym2612"
    },
    {
      "channel": 0,
      "note": 41,
      "start": 84.2698,
      "duration": 0.0161,
      "velocity": 115,
      "chip": "ym2612"
    },
    {
      "channel": 4,
      "note": 60,
      "start": 84.271,
      "duration": 0.0161,
      "velocity": 120,
      "chip": "ym2612"
    },
    {
      "channel": 3,
      "note": 67,
      "start": 84.2722,
      "duration": 0.0161,
      "velocity": 120,
      "chip": "ym2612"
    },
    {
      "channel": 0,
      "note": 41,
      "start": 84.2859,
      "duration": 0.0161,
      "velocity": 115,
      "chip": "ym2612"
    },
    {
      "channel": 4,
      "note": 60,
      "start": 84.2871,
      "duration": 0.0161,
      "velocity": 120,
      "chip": "ym2612"
    },
    {
      "channel": 3,
      "note": 67,
      "start": 84.2883,
      "duration": 0.0161,
      "velocity": 120,
      "chip": "ym2612"
    },
    {
      "channel": 2,
      "note": 48,
      "start": 84.2901,
      "duration": 0.0155,
      "velocity": 100,
      "chip": "ym2612"
    },
    {
      "channel": 1,
      "note": 36,
      "start": 84.2915,
      "duration": 0.018,
      "velocity": 100,
      "chip": "ym2612"
    },
    {
      "channel": 0,
      "note": 42,
      "start": 84.302,
      "duration": 0.0161,
      "velocity": 115,
      "chip": "ym2612"
    },
    {
      "channel": 4,
      "note": 60,
      "start": 84.3032,
      "duration": 0.0161,
      "velocity": 120,
      "chip": "ym2612"
    },
    {
      "channel": 3,
      "note": 67,
      "start": 84.3044,
      "duration": 0.0161,
      "velocity": 120,
      "chip": "ym2612"
    },
    {
      "channel": 2,
      "note": 48,
      "start": 84.3056,
      "duration": 0.016,
      "velocity": 100,
      "chip": "ym2612"
    },
    {
      "channel": 1,
      "note": 36,
      "start": 84.3095,
      "duration": 0.016,
      "velocity": 100,
      "chip": "ym2612"
    },
    {
      "channel": 0,
      "note": 42,
      "start": 84.3181,
      "duration": 0.0161,
      "velocity": 115,
      "chip": "ym2612"
    },
    {
      "channel": 4,
      "note": 60,
      "start": 84.3193,
      "duration": 0.0161,
      "velocity": 120,
      "chip": "ym2612"
    },
    {
      "channel": 3,
      "note": 67,
      "start": 84.3205,
      "duration": 0.0161,
      "velocity": 120,
      "chip": "ym2612"
    },
    {
      "channel": 2,
      "note": 48,
      "start": 84.3216,
      "duration": 0.0161,
      "velocity": 100,
      "chip": "ym2612"
    },
    {
      "channel": 1,
      "note": 36,
      "start": 84.3255,
      "duration": 0.0134,
      "velocity": 100,
      "chip": "ym2612"
    },
    {
      "channel": 0,
      "note": 43,
      "start": 84.3342,
      "duration": 0.0161,
      "velocity": 115,
      "chip": "ym2612"
    },
    {
      "channel": 4,
      "note": 60,
      "start": 84.3354,
      "duration": 0.0162,
      "velocity": 120,
      "chip": "ym2612"
    },
    {
      "channel": 3,
      "note": 67,
      "start": 84.3366,
      "duration": 0.0161,
      "velocity": 120,
      "chip": "ym2612"
    },
    {
      "channel": 2,
      "note": 48,
      "start": 84.3377,
      "duration": 0.0162,
      "velocity": 100,
      "chip": "ym2612"
    },
    {
      "channel": 1,
      "note": 36,
      "start": 84.3389,
      "duration": 0.0161,
      "velocity": 100,
      "chip": "ym2612"
    },
    {
      "channel": 0,
      "note": 43,
      "start": 84.3504,
      "duration": 0.0161,
      "velocity": 115,
      "chip": "ym2612"
    },
    {
      "channel": 4,
      "note": 60,
      "start": 84.3516,
      "duration": 0.0161,
      "velocity": 120,
      "chip": "ym2612"
    },
    {
      "channel": 3,
      "note": 67,
      "start": 84.3527,
      "duration": 0.0161,
      "velocity": 120,
      "chip": "ym2612"
    },
    {
      "channel": 2,
      "note": 48,
      "start": 84.3539,
      "duration": 0.0161,
      "velocity": 100,
      "chip": "ym2612"
    },
    {
      "channel": 1,
      "note": 36,
      "start": 84.355,
      "duration": 0.016,
      "velocity": 100,
      "chip": "ym2612"
    },
    {
      "channel": 0,
      "note": 44,
      "start": 84.3665,
      "duration": 0.0161,
      "velocity": 115,
      "chip": "ym2612"
    },
    {
      "channel": 4,
      "note": 60,
      "start": 84.3677,
      "duration": 0.0161,
      "velocity": 120,
      "chip": "ym2612"
    },
    {
      "channel": 3,
      "note": 67,
      "start": 84.3688,
      "duration": 0.0161,
      "velocity": 120,
      "chip": "ym2612"
    },
    {
      "channel": 2,
      "note": 48,
      "start": 84.37,
      "duration": 0.0161,
      "velocity": 100,
      "chip": "ym2612"
    },
    {
      "channel": 1,
      "note": 36,
      "start": 84.371,
      "duration": 0.0161,
      "velocity": 100,
      "chip": "ym2612"
    },
    {
      "channel": 0,
      "note": 44,
      "start": 84.3826,
      "duration": 0.0161,
      "velocity": 115,
      "chip": "ym2612"
    },
    {
      "channel": 4,
      "note": 60,
      "start": 84.3838,
      "duration": 0.0161,
      "velocity": 120,
      "chip": "ym2612"
    },
    {
      "channel": 3,
      "note": 67,
      "start": 84.3849,
      "duration": 0.0161,
      "velocity": 120,
      "chip": "ym2612"
    },
    {
      "channel": 2,
      "note": 48,
      "start": 84.3861,
      "duration": 0.0161,
      "velocity": 100,
      "chip": "ym2612"
    },
    {
      "channel": 1,
      "note": 36,
      "start": 84.3871,
      "duration": 0.0161,
      "velocity": 100,
      "chip": "ym2612"
    },
    {
      "channel": 0,
      "note": 44,
      "start": 84.3987,
      "duration": 0.0161,
      "velocity": 115,
      "chip": "ym2612"
    },
    {
      "channel": 4,
      "note": 60,
      "start": 84.3999,
      "duration": 0.0161,
      "velocity": 120,
      "chip": "ym2612"
    },
    {
      "channel": 3,
      "note": 67,
      "start": 84.401,
      "duration": 0.0161,
      "velocity": 120,
      "chip": "ym2612"
    },
    {
      "channel": 0,
      "note": 45,
      "start": 84.4147,
      "duration": 0.0161,
      "velocity": 115,
      "chip": "ym2612"
    },
    {
      "channel": 4,
      "note": 60,
      "start": 84.416,
      "duration": 0.0161,
      "velocity": 120,
      "chip": "ym2612"
    },
    {
      "channel": 3,
      "note": 67,
      "start": 84.4171,
      "duration": 0.0161,
      "velocity": 120,
      "chip": "ym2612"
    },
    {
      "channel": 0,
      "note": 45,
      "start": 84.4308,
      "duration": 0.0161,
      "velocity": 115,
      "chip": "ym2612"
    },
    {
      "channel": 4,
      "note": 60,
      "start": 84.432,
      "duration": 0.0161,
      "velocity": 120,
      "chip": "ym2612"
    },
    {
      "channel": 3,
      "note": 67,
      "start": 84.4332,
      "duration": 0.0161,
      "velocity": 120,
      "chip": "ym2612"
    },
    {
      "channel": 0,
      "note": 46,
      "start": 84.4469,
      "duration": 0.0161,
      "velocity": 115,
      "chip": "ym2612"
    },
    {
      "channel": 4,
      "note": 60,
      "start": 84.4481,
      "duration": 0.0161,
      "velocity": 120,
      "chip": "ym2612"
    },
    {
      "channel": 3,
      "note": 67,
      "start": 84.4493,
      "duration": 0.0161,
      "velocity": 120,
      "chip": "ym2612"
    },
    {
      "channel": 0,
      "note": 46,
      "start": 84.463,
      "duration": 0.0179,
      "velocity": 115,
      "chip": "ym2612"
    },
    {
      "channel": 4,
      "note": 60,
      "start": 84.4642,
      "duration": 0.0179,
      "velocity": 120,
      "chip": "ym2612"
    },
    {
      "channel": 3,
      "note": 67,
      "start": 84.4654,
      "duration": 0.018,
      "velocity": 120,
      "chip": "ym2612"
    },
    {
      "channel": 0,
      "note": 36,
      "start": 84.481,
      "duration": 0.0144,
      "velocity": 115,
      "chip": "ym2612"
    },
    {
      "channel": 4,
      "note": 60,
      "start": 84.4822,
      "duration": 0.0143,
      "velocity": 120,
      "chip": "ym2612"
    },
    {
      "channel": 3,
      "note": 67,
      "start": 84.4833,
      "duration": 0.0144,
      "velocity": 120,
      "chip": "ym2612"
    },
    {
      "channel": 2,
      "note": 48,
      "start": 84.4848,
      "duration": 0.0141,
      "velocity": 100,
      "chip": "ym2612"
    },
    {
      "channel": 1,
      "note": 36,
      "start": 84.4863,
      "duration": 0.0138,
      "velocity": 100,
      "chip": "ym2612"
    },
    {
      "channel": 0,
      "note": 36,
      "start": 84.4954,
      "duration": 0.016,
      "velocity": 115,
      "chip": "ym2612"
    },
    {
      "channel": 4,
      "note": 60,
      "start": 84.4965,
      "duration": 0.016,
      "velocity": 120,
      "chip": "ym2612"
    },
    {
      "channel": 3,
      "note": 67,
      "start": 84.4977,
      "duration": 0.016,
      "velocity": 120,
      "chip": "ym2612"
    },
    {
      "channel": 2,
      "note": 48,
      "start": 84.4988,
      "duration": 0.016,
      "velocity": 100,
      "chip": "ym2612"
    },
    {
      "channel": 1,
      "note": 36,
      "start": 84.5,
      "duration": 0.0159,
      "velocity": 100,
      "chip": "ym2612"
    },
    {
      "channel": 0,
      "note": 37,
      "start": 84.5114,
      "duration": 0.0161,
      "velocity": 115,
      "chip": "ym2612"
    },
    {
      "channel": 4,
      "note": 60,
      "start": 84.5125,
      "duration": 0.0162,
      "velocity": 120,
      "chip": "ym2612"
    },
    {
      "channel": 3,
      "note": 67,
      "start": 84.5137,
      "duration": 0.0161,
      "velocity": 120,
      "chip": "ym2612"
    },
    {
      "channel": 2,
      "note": 48,
      "start": 84.5148,
      "duration": 0.0162,
      "velocity": 100,
      "chip": "ym2612"
    },
    {
      "channel": 1,
      "note": 36,
      "start": 84.516,
      "duration": 0.0161,
      "velocity": 100,
      "chip": "ym2612"
    },
    {
      "channel": 0,
      "note": 37,
      "start": 84.5275,
      "duration": 0.0162,
      "velocity": 115,
      "chip": "ym2612"
    },
    {
      "channel": 4,
      "note": 60,
      "start": 84.5287,
      "duration": 0.0161,
      "velocity": 120,
      "chip": "ym2612"
    },
    {
      "channel": 3,
      "note": 67,
      "start": 84.5298,
      "duration": 0.0162,
      "velocity": 120,
      "chip": "ym2612"
    },
    {
      "channel": 2,
      "note": 48,
      "start": 84.531,
      "duration": 0.0161,
      "velocity": 100,
      "chip": "ym2612"
    },
    {
      "channel": 1,
      "note": 36,
      "start": 84.532,
      "duration": 0.0162,
      "velocity": 100,
      "chip": "ym2612"
    },
    {
      "channel": 0,
      "note": 38,
      "start": 84.5436,
      "duration": 0.016,
      "velocity": 115,
      "chip": "ym2612"
    },
    {
      "channel": 4,
      "note": 60,
      "start": 84.5448,
      "duration": 0.016,
      "velocity": 120,
      "chip": "ym2612"
    },
    {
      "channel": 3,
      "note": 67,
      "start": 84.546,
      "duration": 0.016,
      "velocity": 120,
      "chip": "ym2612"
    },
    {
      "channel": 2,
      "note": 48,
      "start": 84.5471,
      "duration": 0.016,
      "velocity": 100,
      "chip": "ym2612"
    },
    {
      "channel": 1,
      "note": 36,
      "start": 84.5482,
      "duration": 0.0161,
      "velocity": 100,
      "chip": "ym2612"
    },
    {
      "channel": 0,
      "note": 38,
      "start": 84.5597,
      "duration": 0.0177,
      "velocity": 115,
      "chip": "ym2612"
    },
    {
      "channel": 4,
      "note": 60,
      "start": 84.5609,
      "duration": 0.0176,
      "velocity": 120,
      "chip": "ym2612"
    },
    {
      "channel": 3,
      "note": 67,
      "start": 84.562,
      "duration": 0.0177,
      "velocity": 120,
      "chip": "ym2612"
    },
    {
      "channel": 2,
      "note": 48,
      "start": 84.5632,
      "duration": 0.0176,
      "velocity": 100,
      "chip": "ym2612"
    },
    {
      "channel": 1,
      "note": 36,
      "start": 84.5643,
      "duration": 0.0176,
      "velocity": 100,
      "chip": "ym2612"
    },
    {
      "channel": 0,
      "note": 39,
      "start": 84.5773,
      "duration": 0.0167,
      "velocity": 115,
      "chip": "ym2612"
    },
    {
      "channel": 4,
      "note": 60,
      "start": 84.5785,
      "duration": 0.0167,
      "velocity": 120,
      "chip": "ym2612"
    },
    {
      "channel": 3,
      "note": 67,
      "start": 84.5797,
      "duration": 0.0167,
      "velocity": 120,
      "chip": "ym2612"
    },
    {
      "channel": 2,
      "note": 48,
      "start": 84.5808,
      "duration": 0.0167,
      "velocity": 100,
      "chip": "ym2612"
    },
    {
      "channel": 1,
      "note": 36,
      "start": 84.5819,
      "duration": 0.0167,
      "velocity": 100,
      "chip": "ym2612"
    },
    {
      "channel": 0,
      "note": 39,
      "start": 84.594,
      "duration": 0.0163,
      "velocity": 115,
      "chip": "ym2612"
    },
    {
      "channel": 4,
      "note": 60,
      "start": 84.5951,
      "duration": 0.0163,
      "velocity": 120,
      "chip": "ym2612"
    },
    {
      "channel": 3,
      "note": 67,
      "start": 84.5964,
      "duration": 0.0163,
      "velocity": 120,
      "chip": "ym2612"
    },
    {
      "channel": 0,
      "note": 40,
      "start": 84.6103,
      "duration": 0.0141,
      "velocity": 115,
      "chip": "ym2612"
    },
    {
      "channel": 4,
      "note": 60,
      "start": 84.6115,
      "duration": 0.0141,
      "velocity": 120,
      "chip": "ym2612"
    },
    {
      "channel": 3,
      "note": 67,
      "start": 84.6127,
      "duration": 0.0141,
      "velocity": 120,
      "chip": "ym2612"
    },
    {
      "channel": 0,
      "note": 40,
      "start": 84.6244,
      "duration": 0.0186,
      "velocity": 115,
      "chip": "ym2612"
    },
    {
      "channel": 4,
      "note": 60,
      "start": 84.6256,
      "duration": 0.0186,
      "velocity": 120,
      "chip": "ym2612"
    },
    {
      "channel": 3,
      "note": 67,
      "start": 84.6268,
      "duration": 0.0185,
      "velocity": 120,
      "chip": "ym2612"
    },
    {
      "channel": 0,
      "note": 40,
      "start": 84.6429,
      "duration": 0.0161,
      "velocity": 115,
      "chip": "ym2612"
    },
    {
      "channel": 4,
      "note": 60,
      "start": 84.6441,
      "duration": 0.016,
      "velocity": 120,
      "chip": "ym2612"
    },
    {
      "channel": 3,
      "note": 67,
      "start": 84.6453,
      "duration": 0.0161,
      "velocity": 120,
      "chip": "ym2612"
    },
    {
      "channel": 0,
      "note": 41,
      "start": 84.659,
      "duration": 0.0192,
      "velocity": 115,
      "chip": "ym2612"
    },
    {
      "channel": 4,
      "note": 60,
      "start": 84.6602,
      "duration": 0.0192,
      "velocity": 120,
      "chip": "ym2612"
    },
    {
      "channel": 3,
      "note": 67,
      "start": 84.6614,
      "duration": 0.0192,
      "velocity": 120,
      "chip": "ym2612"
    },
    {
      "channel": 1,
      "note": 78,
      "start": 84.6765,
      "duration": 0.012,
      "velocity": 124,
      "chip": "ym2612"
    },
    {
      "channel": 0,
      "note": 41,
      "start": 84.6782,
      "duration": 0.0123,
      "velocity": 115,
      "chip": "ym2612"
    },
    {
      "channel": 4,
      "note": 60,
      "start": 84.6794,
      "duration": 0.0123,
      "velocity": 120,
      "chip": "ym2612"
    },
    {
      "channel": 3,
      "note": 67,
      "start": 84.6806,
      "duration": 0.0123,
      "velocity": 120,
      "chip": "ym2612"
    },
    {
      "channel": 2,
      "note": 48,
      "start": 84.682,
      "duration": 0.0121,
      "velocity": 100,
      "chip": "ym2612"
    },
    {
      "channel": 1,
      "note": 76,
      "start": 84.6885,
      "duration": 0.016,
      "velocity": 124,
      "chip": "ym2612"
    },
    {
      "channel": 0,
      "note": 42,
      "start": 84.6905,
      "duration": 0.0184,
      "velocity": 115,
      "chip": "ym2612"
    },
    {
      "channel": 4,
      "note": 60,
      "start": 84.6917,
      "duration": 0.0184,
      "velocity": 120,
      "chip": "ym2612"
    },
    {
      "channel": 3,
      "note": 67,
      "start": 84.6929,
      "duration": 0.0185,
      "velocity": 120,
      "chip": "ym2612"
    },
    {
      "channel": 2,
      "note": 48,
      "start": 84.6941,
      "duration": 0.0184,
      "velocity": 100,
      "chip": "ym2612"
    },
    {
      "channel": 1,
      "note": 75,
      "start": 84.7045,
      "duration": 0.0161,
      "velocity": 124,
      "chip": "ym2612"
    },
    {
      "channel": 0,
      "note": 42,
      "start": 84.709,
      "duration": 0.0134,
      "velocity": 115,
      "chip": "ym2612"
    },
    {
      "channel": 4,
      "note": 60,
      "start": 84.7102,
      "duration": 0.0161,
      "velocity": 120,
      "chip": "ym2612"
    },
    {
      "channel": 3,
      "note": 67,
      "start": 84.7113,
      "duration": 0.0161,
      "velocity": 120,
      "chip": "ym2612"
    },
    {
      "channel": 2,
      "note": 48,
      "start": 84.7124,
      "duration": 0.0161,
      "velocity": 100,
      "chip": "ym2612"
    },
    {
      "channel": 1,
      "note": 74,
      "start": 84.7206,
      "duration": 0.0161,
      "velocity": 124,
      "chip": "ym2612"
    },
    {
      "channel": 0,
      "note": 43,
      "start": 84.7223,
      "duration": 0.0161,
      "velocity": 115,
      "chip": "ym2612"
    },
    {
      "channel": 4,
      "note": 60,
      "start": 84.7263,
      "duration": 0.0158,
      "velocity": 120,
      "chip": "ym2612"
    },
    {
      "channel": 3,
      "note": 67,
      "start": 84.7275,
      "duration": 0.0157,
      "velocity": 120,
      "chip": "ym2612"
    },
    {
      "channel": 2,
      "note": 48,
      "start": 84.7285,
      "duration": 0.0158,
      "velocity": 100,
      "chip": "ym2612"
    },
    {
      "channel": 1,
      "note": 72,
      "start": 84.7367,
      "duration": 0.0161,
      "velocity": 124,
      "chip": "ym2612"
    },
    {
      "channel": 0,
      "note": 43,
      "start": 84.7384,
      "duration": 0.0161,
      "velocity": 115,
      "chip": "ym2612"
    },
    {
      "channel": 4,
      "note": 60,
      "start": 84.742,
      "duration": 0.0137,
      "velocity": 120,
      "chip": "ym2612"
    },
    {
      "channel": 3,
      "note": 67,
      "start": 84.7432,
      "duration": 0.014,
      "velocity": 120,
      "chip": "ym2612"
    },
    {
      "channel": 2,
      "note": 48,
      "start": 84.7443,
      "duration": 0.014,
      "velocity": 100,
      "chip": "ym2612"
    },
    {
      "channel": 1,
      "note": 71,
      "start": 84.7528,
      "duration": 0.0161,
      "velocity": 124,
      "chip": "ym2612"
    },
    {
      "channel": 0,
      "note": 44,
      "start": 84.7545,
      "duration": 0.0161,
      "velocity": 115,
      "chip": "ym2612"
    },
    {
      "channel": 4,
      "note": 60,
      "start": 84.7557,
      "duration": 0.0161,
      "velocity": 120,
      "chip": "ym2612"
    },
    {
      "channel": 3,
      "note": 67,
      "start": 84.7572,
      "duration": 0.0186,
      "velocity": 120,
      "chip": "ym2612"
    },
    {
      "channel": 2,
      "note": 48,
      "start": 84.7583,
      "duration": 0.0185,
      "velocity": 100,
      "chip": "ym2612"
    },
    {
      "channel": 1,
      "note": 70,
      "start": 84.7689,
      "duration": 0.0161,
      "velocity": 124,
      "chip": "ym2612"
    },
    {
      "channel": 0,
      "note": 44,
      "start": 84.7706,
      "duration": 0.0161,
      "velocity": 115,
      "chip": "ym2612"
    },
    {
      "channel": 4,
      "note": 60,
      "start": 84.7718,
      "duration": 0.0161,
      "velocity": 120,
      "chip": "ym2612"
    },
    {
      "channel": 3,
      "note": 67,
      "start": 84.7758,
      "duration": 0.0134,
      "velocity": 120,
      "chip": "ym2612"
    },
    {
      "channel": 2,
      "note": 48,
      "start": 84.7768,
      "duration": 0.0162,
      "velocity": 100,
      "chip": "ym2612"
    },
    {
      "channel": 1,
      "note": 69,
      "start": 84.785,
      "duration": 0.0161,
      "velocity": 124,
      "chip": "ym2612"
    },
    {
      "channel": 0,
      "note": 44,
      "start": 84.7867,
      "duration": 0.0162,
      "velocity": 115,
      "chip": "ym2612"
    },
    {
      "channel": 4,
      "note": 60,
      "start": 84.7879,
      "duration": 0.0161,
      "velocity": 120,
      "chip": "ym2612"
    },
    {
      "channel": 3,
      "note": 67,
      "start": 84.7891,
      "duration": 0.0161,
      "velocity": 120,
      "chip": "ym2612"
    },
    {
      "channel": 1,
      "note": 68,
      "start": 84.8011,
      "duration": 0.0162,
      "velocity": 124,
      "chip": "ym2612"
    },
    {
      "channel": 0,
      "note": 45,
      "start": 84.8029,
      "duration": 0.0161,
      "velocity": 115,
      "chip": "ym2612"
    },
    {
      "channel": 4,
      "note": 60,
      "start": 84.804,
      "duration": 0.0162,
      "velocity": 120,
      "chip": "ym2612"
    },
    {
      "channel": 3,
      "note": 67,
      "start": 84.8052,
      "duration": 0.0161,
      "velocity": 120,
      "chip": "ym2612"
    },
    {
      "channel": 1,
      "note": 66,
      "start": 84.8172,
      "duration": 0.0161,
      "velocity": 124,
      "chip": "ym2612"
    },
    {
      "channel": 0,
      "note": 45,
      "start": 84.819,
      "duration": 0.0161,
      "velocity": 115,
      "chip": "ym2612"
    },
    {
      "channel": 4,
      "note": 60,
      "start": 84.8202,
      "duration": 0.0161,
      "velocity": 120,
      "chip": "ym2612"
    },
    {
      "channel": 3,
      "note": 67,
      "start": 84.8213,
      "duration": 0.0161,
      "velocity": 120,
      "chip": "ym2612"
    },
    {
      "channel": 1,
      "note": 65,
      "start": 84.8333,
      "duration": 0.0161,
      "velocity": 124,
      "chip": "ym2612"
    },
    {
      "channel": 0,
      "note": 46,
      "start": 84.835,
      "duration": 0.0161,
      "velocity": 115,
      "chip": "ym2612"
    },
    {
      "channel": 4,
      "note": 60,
      "start": 84.8363,
      "duration": 0.0161,
      "velocity": 120,
      "chip": "ym2612"
    },
    {
      "channel": 3,
      "note": 67,
      "start": 84.8374,
      "duration": 0.0161,
      "velocity": 120,
      "chip": "ym2612"
    },
    {
      "channel": 1,
      "note": 64,
      "start": 84.8494,
      "duration": 0.0161,
      "velocity": 124,
      "chip": "ym2612"
    },
    {
      "channel": 0,
      "note": 46,
      "start": 84.8511,
      "duration": 0.0161,
      "velocity": 115,
      "chip": "ym2612"
    },
    {
      "channel": 4,
      "note": 60,
      "start": 84.8523,
      "duration": 0.0161,
      "velocity": 120,
      "chip": "ym2612"
    },
    {
      "channel": 3,
      "note": 67,
      "start": 84.8535,
      "duration": 0.0161,
      "velocity": 120,
      "chip": "ym2612"
    },
    {
      "channel": 1,
      "note": 62,
      "start": 84.8655,
      "duration": 0.0161,
      "velocity": 124,
      "chip": "ym2612"
    },
    {
      "channel": 0,
      "note": 47,
      "start": 84.8672,
      "duration": 0.0161,
      "velocity": 115,
      "chip": "ym2612"
    },
    {
      "channel": 4,
      "note": 60,
      "start": 84.8684,
      "duration": 0.0161,
      "velocity": 120,
      "chip": "ym2612"
    },
    {
      "channel": 3,
      "note": 67,
      "start": 84.8696,
      "duration": 0.016,
      "velocity": 120,
      "chip": "ym2612"
    },
    {
      "channel": 2,
      "note": 48,
      "start": 84.8711,
      "duration": 0.0158,
      "velocity": 100,
      "chip": "ym2612"
    },
    {
      "channel": 1,
      "note": 61,
      "start": 84.8816,
      "duration": 0.0161,
      "velocity": 124,
      "chip": "ym2612"
    },
    {
      "channel": 0,
      "note": 47,
      "start": 84.8833,
      "duration": 0.0161,
      "velocity": 115,
      "chip": "ym2612"
    },
    {
      "channel": 4,
      "note": 60,
      "start": 84.8845,
      "duration": 0.0161,
      "velocity": 120,
      "chip": "ym2612"
    },
    {
      "channel": 3,
      "note": 67,
      "start": 84.8857,
      "duration": 0.0161,
      "velocity": 120,
      "chip": "ym2612"
    },
    {
      "channel": 2,
      "note": 48,
      "start": 84.8869,
      "duration": 0.016,
      "velocity": 100,
      "chip": "ym2612"
    },
    {
      "channel": 1,
      "note": 60,
      "start": 84.8977,
      "duration": 0.0161,
      "velocity": 124,
      "chip": "ym2612"
    },
    {
      "channel": 0,
      "note": 47,
      "start": 84.8994,
      "duration": 0.0161,
      "velocity": 115,
      "chip": "ym2612"
    },
    {
      "channel": 4,
      "note": 60,
      "start": 84.9006,
      "duration": 0.0161,
      "velocity": 120,
      "chip": "ym2612"
    },
    {
      "channel": 3,
      "note": 67,
      "start": 84.9018,
      "duration": 0.0161,
      "velocity": 120,
      "chip": "ym2612"
    },
    {
      "channel": 2,
      "note": 48,
      "start": 84.9029,
      "duration": 0.0161,
      "velocity": 100,
      "chip": "ym2612"
    },
    {
      "channel": 1,
      "note": 59,
      "start": 84.9138,
      "duration": 0.0161,
      "velocity": 124,
      "chip": "ym2612"
    },
    {
      "channel": 0,
      "note": 48,
      "start": 84.9155,
      "duration": 0.0161,
      "velocity": 115,
      "chip": "ym2612"
    },
    {
      "channel": 4,
      "note": 60,
      "start": 84.9167,
      "duration": 0.0161,
      "velocity": 120,
      "chip": "ym2612"
    },
    {
      "channel": 3,
      "note": 67,
      "start": 84.9179,
      "duration": 0.0161,
      "velocity": 120,
      "chip": "ym2612"
    },
    {
      "channel": 2,
      "note": 48,
      "start": 84.919,
      "duration": 0.0161,
      "velocity": 100,
      "chip": "ym2612"
    },
    {
      "channel": 1,
      "note": 57,
      "start": 84.9299,
      "duration": 0.0161,
      "velocity": 124,
      "chip": "ym2612"
    },
    {
      "channel": 0,
      "note": 48,
      "start": 84.9316,
      "duration": 0.0161,
      "velocity": 115,
      "chip": "ym2612"
    },
    {
      "channel": 4,
      "note": 60,
      "start": 84.9328,
      "duration": 0.0161,
      "velocity": 120,
      "chip": "ym2612"
    },
    {
      "channel": 3,
      "note": 67,
      "start": 84.934,
      "duration": 0.0161,
      "velocity": 120,
      "chip": "ym2612"
    },
    {
      "channel": 2,
      "note": 48,
      "start": 84.9351,
      "duration": 0.0161,
      "velocity": 100,
      "chip": "ym2612"
    },
    {
      "channel": 1,
      "note": 56,
      "start": 84.946,
      "duration": 0.0161,
      "velocity": 124,
      "chip": "ym2612"
    },
    {
      "channel": 0,
      "note": 49,
      "start": 84.9477,
      "duration": 0.0153,
      "velocity": 1,
      "chip": "ym2612"
    },
    {
      "channel": 4,
      "note": 60,
      "start": 84.9489,
      "duration": 0.0153,
      "velocity": 120,
      "chip": "ym2612"
    },
    {
      "channel": 3,
      "note": 67,
      "start": 84.9501,
      "duration": 0.0153,
      "velocity": 120,
      "chip": "ym2612"
    },
    {
      "channel": 2,
      "note": 48,
      "start": 84.9512,
      "duration": 0.0153,
      "velocity": 100,
      "chip": "ym2612"
    },
    {
      "channel": 1,
      "note": 55,
      "start": 84.9621,
      "duration": 0.0161,
      "velocity": 124,
      "chip": "ym2612"
    },
    {
      "channel": 4,
      "note": 60,
      "start": 84.9642,
      "duration": 0.0153,
      "velocity": 120,
      "chip": "ym2612"
    },
    {
      "channel": 3,
      "note": 67,
      "start": 84.9654,
      "duration": 0.0153,
      "velocity": 120,
      "chip": "ym2612"
    },
    {
      "channel": 2,
      "note": 48,
      "start": 84.9665,
      "duration": 0.0153,
      "velocity": 100,
      "chip": "ym2612"
    },
    {
      "channel": 1,
      "note": 53,
      "start": 84.9782,
      "duration": 0.0161,
      "velocity": 124,
      "chip": "ym2612"
    },
    {
      "channel": 4,
      "note": 60,
      "start": 84.9795,
      "duration": 0.0161,
      "velocity": 120,
      "chip": "ym2612"
    },
    {
      "channel": 3,
      "note": 67,
      "start": 84.9807,
      "duration": 0.0161,
      "velocity": 120,
      "chip": "ym2612"
    },
    {
      "channel": 1,
      "note": 52,
      "start": 84.9943,
      "duration": 0.0161,
      "velocity": 124,
      "chip": "ym2612"
    },
    {
      "channel": 4,
      "note": 60,
      "start": 84.9956,
      "duration": 0.0161,
      "velocity": 120,
      "chip": "ym2612"
    },
    {
      "channel": 3,
      "note": 67,
      "start": 84.9967,
      "duration": 0.0162,
      "velocity": 120,
      "chip": "ym2612"
    },
    {
      "channel": 1,
      "note": 51,
      "start": 85.0104,
      "duration": 0.0153,
      "velocity": 1,
      "chip": "ym2612"
    },
    {
      "channel": 4,
      "note": 60,
      "start": 85.0117,
      "duration": 0.0153,
      "velocity": 120,
      "chip": "ym2612"
    },
    {
      "channel": 3,
      "note": 67,
      "start": 85.0129,
      "duration": 0.0153,
      "velocity": 120,
      "chip": "ym2612"
    },
    {
      "channel": 4,
      "note": 60,
      "start": 85.027,
      "duration": 0.0165,
      "velocity": 120,
      "chip": "ym2612"
    },
    {
      "channel": 3,
      "note": 67,
      "start": 85.0282,
      "duration": 0.0166,
      "velocity": 120,
      "chip": "ym2612"
    },
    {
      "channel": 4,
      "note": 60,
      "start": 85.0435,
      "duration": 0.0204,
      "velocity": 120,
      "chip": "ym2612"
    },
    {
      "channel": 3,
      "note": 67,
      "start": 85.0447,
      "duration": 0.0205,
      "velocity": 120,
      "chip": "ym2612"
    },
    {
      "channel": 0,
      "note": 36,
      "start": 85.0624,
      "duration": 0.0146,
      "velocity": 115,
      "chip": "ym2612"
    },
    {
      "channel": 4,
      "note": 63,
      "start": 85.0639,
      "duration": 0.0144,
      "velocity": 120,
      "chip": "ym2612"
    },
    {
      "channel": 3,
      "note": 70,
      "start": 85.0653,
      "duration": 0.0141,
      "velocity": 120,
      "chip": "ym2612"
    },
    {
      "channel": 2,
      "note": 51,
      "start": 85.0668,
      "duration": 0.0139,
      "velocity": 100,
      "chip": "ym2612"
    },
    {
      "channel": 1,
      "note": 39,
      "start": 85.0682,
      "duration": 0.0137,
      "velocity": 100,
      "chip": "ym2612"
    },
    {
      "channel": 0,
      "note": 36,
      "start": 85.077,
      "duration": 0.0143,
      "velocity": 115,
      "chip": "ym2612"
    },
    {
      "channel": 4,
      "note": 63,
      "start": 85.0782,
      "duration": 0.0142,
      "velocity": 120,
      "chip": "ym2612"
    },
    {
      "channel": 3,
      "note": 70,
      "start": 85.0794,
      "duration": 0.0142,
      "velocity": 120,
      "chip": "ym2612"
    },
    {
      "channel": 2,
      "note": 51,
      "start": 85.0807,
      "duration": 0.0141,
      "velocity": 100,
      "chip": "ym2612"
    },
    {
      "channel": 1,
      "note": 39,
      "start": 85.0819,
      "duration": 0.0141,
      "velocity": 100,
      "chip": "ym2612"
    },
    {
      "channel": 0,
      "note": 37,
      "start": 85.0913,
      "duration": 0.0185,
      "velocity": 115,
      "chip": "ym2612"
    },
    {
      "channel": 4,
      "note": 63,
      "start": 85.0925,
      "duration": 0.0185,
      "velocity": 120,
      "chip": "ym2612"
    },
    {
      "channel": 3,
      "note": 70,
      "start": 85.0936,
      "duration": 0.0186,
      "velocity": 120,
      "chip": "ym2612"
    },
    {
      "channel": 2,
      "note": 51,
      "start": 85.0948,
      "duration": 0.0185,
      "velocity": 100,
      "chip": "ym2612"
    },
    {
      "channel": 1,
      "note": 39,
      "start": 85.0959,
      "duration": 0.0185,
      "velocity": 100,
      "chip": "ym2612"
    },
    {
      "channel": 0,
      "note": 37,
      "start": 85.1098,
      "duration": 0.0161,
      "velocity": 115,
      "chip": "ym2612"
    },
    {
      "channel": 4,
      "note": 63,
      "start": 85.111,
      "duration": 0.0161,
      "velocity": 120,
      "chip": "ym2612"
    },
    {
      "channel": 3,
      "note": 70,
      "start": 85.1122,
      "duration": 0.0161,
      "velocity": 120,
      "chip": "ym2612"
    },
    {
      "channel": 2,
      "note": 51,
      "start": 85.1133,
      "duration": 0.0161,
      "velocity": 100,
      "chip": "ym2612"
    },
    {
      "channel": 1,
      "note": 39,
      "start": 85.1144,
      "duration": 0.0161,
      "velocity": 100,
      "chip": "ym2612"
    },
    {
      "channel": 0,
      "note": 38,
      "start": 85.1259,
      "duration": 0.0157,
      "velocity": 115,
      "chip": "ym2612"
    },
    {
      "channel": 4,
      "note": 63,
      "start": 85.1271,
      "duration": 0.0158,
      "velocity": 120,
      "chip": "ym2612"
    },
    {
      "channel": 3,
      "note": 70,
      "start": 85.1283,
      "duration": 0.0157,
      "velocity": 120,
      "chip": "ym2612"
    },
    {
      "channel": 2,
      "note": 51,
      "start": 85.1294,
      "duration": 0.0158,
      "velocity": 100,
      "chip": "ym2612"
    },
    {
      "channel": 1,
      "note": 39,
      "start": 85.1305,
      "duration": 0.0158,
      "velocity": 100,
      "chip": "ym2612"
    },
    {
      "channel": 0,
      "note": 38,
      "start": 85.1417,
      "duration": 0.0137,
      "velocity": 115,
      "chip": "ym2612"
    },
    {
      "channel": 4,
      "note": 63,
      "start": 85.1429,
      "duration": 0.0141,
      "velocity": 120,
      "chip": "ym2612"
    },
    {
      "channel": 3,
      "note": 70,
      "start": 85.144,
      "duration": 0.0141,
      "velocity": 120,
      "chip": "ym2612"
    },
    {
      "channel": 2,
      "note": 51,
      "start": 85.1451,
      "duration": 0.0141,
      "velocity": 100,
      "chip": "ym2612"
    },
    {
      "channel": 1,
      "note": 39,
      "start": 85.1463,
      "duration": 0.014,
      "velocity": 100,
      "chip": "ym2612"
    },
    {
      "channel": 0,
      "note": 39,
      "start": 85.1554,
      "duration": 0.0161,
      "velocity": 115,
      "chip": "ym2612"
    },
    {
      "channel": 4,
      "note": 63,
      "start": 85.1569,
      "duration": 0.0185,
      "velocity": 120,
      "chip": "ym2612"
    },
    {
      "channel": 3,
      "note": 70,
      "start": 85.1581,
      "duration": 0.0185,
      "velocity": 120,
      "chip": "ym2612"
    },
    {
      "channel": 2,
      "note": 51,
      "start": 85.1592,
      "duration": 0.0185,
      "velocity": 100,
      "chip": "ym2612"
    },
    {
      "channel": 1,
      "note": 39,
      "start": 85.1603,
      "duration": 0.0186,
      "velocity": 100,
      "chip": "ym2612"
    },
    {
      "channel": 0,
      "note": 39,
      "start": 85.1715,
      "duration": 0.0161,
      "velocity": 115,
      "chip": "ym2612"
    },
    {
      "channel": 4,
      "note": 63,
      "start": 85.1754,
      "duration": 0.0134,
      "velocity": 120,
      "chip": "ym2612"
    },
    {
      "channel": 3,
      "note": 70,
      "start": 85.1766,
      "duration": 0.0161,
      "velocity": 120,
      "chip": "ym2612"
    },
    {
      "channel": 0,
      "note": 40,
      "start": 85.1876,
      "duration": 0.0161,
      "velocity": 115,
      "chip": "ym2612"
    },
    {
      "channel": 4,
      "note": 63,
      "start": 85.1888,
      "duration": 0.0161,
      "velocity": 120,
      "chip": "ym2612"
    },
    {
      "channel": 3,
      "note": 70,
      "start": 85.1927,
      "duration": 0.0157,
      "velocity": 120,
      "chip": "ym2612"
    },
    {
      "channel": 0,
      "note": 40,
      "start": 85.2037,
      "duration": 0.0161,
      "velocity": 115,
      "chip": "ym2612"
    },
    {
      "channel": 4,
      "note": 63,
      "start": 85.2049,
      "duration": 0.0161,
      "velocity": 120,
      "chip": "ym2612"
    },
    {
      "channel": 3,
      "note": 70,
      "start": 85.2084,
      "duration": 0.0137,
      "velocity": 120,
      "chip": "ym2612"
    },
    {
      "channel": 0,
      "note": 40,
      "start": 85.2198,
      "duration": 0.0161,
      "velocity": 115,
      "chip": "ym2612"
    },
    {
      "channel": 4,
      "note": 63,
      "start": 85.221,
      "duration": 0.0161,
      "velocity": 120,
      "chip": "ym2612"
    },
    {
      "channel": 3,
      "note": 70,
      "start": 85.2221,
      "duration": 0.0161,
      "velocity": 120,
      "chip": "ym2612"
    },
    {
      "channel": 0,
      "note": 41,
      "start": 85.2359,
      "duration": 0.0161,
      "velocity": 115,
      "chip": "ym2612"
    },
    {
      "channel": 4,
      "note": 63,
      "start": 85.2371,
      "duration": 0.0163,
      "velocity": 120,
      "chip": "ym2612"
    },
    {
      "channel": 3,
      "note": 70,
      "start": 85.2382,
      "duration": 0.0166,
      "velocity": 120,
      "chip": "ym2612"
    },
    {
      "channel": 0,
      "note": 41,
      "start": 85.252,
      "duration": 0.0161,
      "velocity": 115,
      "chip": "ym2612"
    },
    {
      "channel": 4,
      "note": 60,
      "start": 85.2534,
      "duration": 0.0159,
      "velocity": 120,
      "chip": "ym2612"
    },
    {
      "channel": 3,
      "note": 67,
      "start": 85.2548,
      "duration": 0.0157,
      "velocity": 120,
      "chip": "ym2612"
    },
    {
      "channel": 2,
      "note": 48,
      "start": 85.259,
      "duration": 0.0127,
      "velocity": 100,
      "chip": "ym2612"
    },
    {
      "channel": 1,
      "note": 36,
      "start": 85.2604,
      "duration": 0.0149,
      "velocity": 100,
      "chip": "ym2612"
    },
    {
      "channel": 0,
      "note": 42,
      "start": 85.2681,
      "duration": 0.0161,
      "velocity": 115,
      "chip": "ym2612"
    },
    {
      "channel": 4,
      "note": 60,
      "start": 85.2693,
      "duration": 0.016,
      "velocity": 120,
      "chip": "ym2612"
    },
    {
      "channel": 3,
      "note": 67,
      "start": 85.2705,
      "duration": 0.016,
      "velocity": 120,
      "chip": "ym2612"
    },
    {
      "channel": 2,
      "note": 48,
      "start": 85.2717,
      "duration": 0.0159,
      "velocity": 100,
      "chip": "ym2612"
    },
    {
      "channel": 1,
      "note": 36,
      "start": 85.2753,
      "duration": 0.0135,
      "velocity": 100,
      "chip": "ym2612"
    },
    {
      "channel": 0,
      "note": 42,
      "start": 85.2842,
      "duration": 0.0161,
      "velocity": 115,
      "chip": "ym2612"
    },
    {
      "channel": 4,
      "note": 60,
      "start": 85.2854,
      "duration": 0.0161,
      "velocity": 120,
      "chip": "ym2612"
    },
    {
      "channel": 3,
      "note": 67,
      "start": 85.2865,
      "duration": 0.0161,
      "velocity": 120,
      "chip": "ym2612"
    },
    {
      "channel": 2,
      "note": 48,
      "start": 85.2876,
      "duration": 0.0161,
      "velocity": 100,
      "chip": "ym2612"
    },
    {
      "channel": 1,
      "note": 36,
      "start": 85.2888,
      "duration": 0.0161,
      "velocity": 100,
      "chip": "ym2612"
    },
    {
      "channel": 0,
      "note": 43,
      "start": 85.3003,
      "duration": 0.0161,
      "velocity": 115,
      "chip": "ym2612"
    },
    {
      "channel": 4,
      "note": 60,
      "start": 85.3015,
      "duration": 0.0161,
      "velocity": 120,
      "chip": "ym2612"
    },
    {
      "channel": 3,
      "note": 67,
      "start": 85.3026,
      "duration": 0.0161,
      "velocity": 120,
      "chip": "ym2612"
    },
    {
      "channel": 2,
      "note": 48,
      "start": 85.3037,
      "duration": 0.0161,
      "velocity": 100,
      "chip": "ym2612"
    },
    {
      "channel": 1,
      "note": 36,
      "start": 85.3049,
      "duration": 0.0161,
      "velocity": 100,
      "chip": "ym2612"
    },
    {
      "channel": 0,
      "note": 43,
      "start": 85.3164,
      "duration": 0.0161,
      "velocity": 115,
      "chip": "ym2612"
    },
    {
      "channel": 4,
      "note": 60,
      "start": 85.3176,
      "duration": 0.0161,
      "velocity": 120,
      "chip": "ym2612"
    },
    {
      "channel": 3,
      "note": 67,
      "start": 85.3187,
      "duration": 0.0161,
      "velocity": 120,
      "chip": "ym2612"
    },
    {
      "channel": 2,
      "note": 48,
      "start": 85.3198,
      "duration": 0.0161,
      "velocity": 100,
      "chip": "ym2612"
    },
    {
      "channel": 1,
      "note": 36,
      "start": 85.321,
      "duration": 0.0161,
      "velocity": 100,
      "chip": "ym2612"
    },
    {
      "channel": 0,
      "note": 44,
      "start": 85.3325,
      "duration": 0.0161,
      "velocity": 115,
      "chip": "ym2612"
    },
    {
      "channel": 4,
      "note": 60,
      "start": 85.3337,
      "duration": 0.0161,
      "velocity": 120,
      "chip": "ym2612"
    },
    {
      "channel": 3,
      "note": 67,
      "start": 85.3348,
      "duration": 0.0162,
      "velocity": 120,
      "chip": "ym2612"
    },
    {
      "channel": 2,
      "note": 48,
      "start": 85.3359,
      "duration": 0.0161,
      "velocity": 100,
      "chip": "ym2612"
    },
    {
      "channel": 1,
      "note": 36,
      "start": 85.3371,
      "duration": 0.0161,
      "velocity": 100,
      "chip": "ym2612"
    },
    {
      "channel": 0,
      "note": 44,
      "start": 85.3486,
      "duration": 0.0161,
      "velocity": 115,
      "chip": "ym2612"
    },
    {
      "channel": 4,
      "note": 60,
      "start": 85.3498,
      "duration": 0.0161,
      "velocity": 120,
      "chip": "ym2612"
    },
    {
      "channel": 3,
      "note": 67,
      "start": 85.351,
      "duration": 0.0161,
      "velocity": 120,
      "chip": "ym2612"
    },
    {
      "channel": 2,
      "note": 48,
      "start": 85.3521,
      "duration": 0.0161,
      "velocity": 100,
      "chip": "ym2612"
    },
    {
      "channel": 1,
      "note": 36,
      "start": 85.3532,
      "duration": 0.0161,
      "velocity": 100,
      "chip": "ym2612"
    },
    {
      "channel": 0,
      "note": 44,
      "start": 85.3647,
      "duration": 0.0161,
      "velocity": 115,
      "chip": "ym2612"
    },
    {
      "channel": 4,
      "note": 60,
      "start": 85.3659,
      "duration": 0.0161,
      "velocity": 120,
      "chip": "ym2612"
    },
    {
      "channel": 3,
      "note": 67,
      "start": 85.367,
      "duration": 0.0161,
      "velocity": 120,
      "chip": "ym2612"
    },
    {
      "channel": 0,
      "note": 45,
      "start": 85.3808,
      "duration": 0.0161,
      "velocity": 115,
      "chip": "ym2612"
    },
    {
      "channel": 4,
      "note": 60,
      "start": 85.382,
      "duration": 0.0161,
      "velocity": 120,
      "chip": "ym2612"
    },
    {
      "channel": 3,
      "note": 67,
      "start": 85.3831,
      "duration": 0.0161,
      "velocity": 120,
      "chip": "ym2612"
    },
    {
      "channel": 0,
      "note": 45,
      "start": 85.3969,
      "duration": 0.0161,
      "velocity": 115,
      "chip": "ym2612"
    },
    {
      "channel": 4,
      "note": 60,
      "start": 85.3981,
      "duration": 0.0161,
      "velocity": 120,
      "chip": "ym2612"
    },
    {
      "channel": 3,
      "note": 67,
      "start": 85.3992,
      "duration": 0.0161,
      "velocity": 120,
      "chip": "ym2612"
    },
    {
      "channel": 0,
      "note": 46,
      "start": 85.413,
      "duration": 0.0161,
      "velocity": 115,
      "chip": "ym2612"
    },
    {
      "channel": 4,
      "note": 60,
      "start": 85.4142,
      "duration": 0.0161,
      "velocity": 120,
      "chip": "ym2612"
    },
    {
      "channel": 3,
      "note": 67,
      "start": 85.4153,
      "duration": 0.0161,
      "velocity": 120,
      "chip": "ym2612"
    },
    {
      "channel": 0,
      "note": 46,
      "start": 85.4291,
      "duration": 0.0195,
      "velocity": 115,
      "chip": "ym2612"
    },
    {
      "channel": 4,
      "note": 60,
      "start": 85.4303,
      "duration": 0.0198,
      "velocity": 120,
      "chip": "ym2612"
    },
    {
      "channel": 3,
      "note": 67,
      "start": 85.4314,
      "duration": 0.02,
      "velocity": 120,
      "chip": "ym2612"
    },
    {
      "channel": 1,
      "note": 78,
      "start": 85.4469,
      "duration": 0.0144,
      "velocity": 124,
      "chip": "ym2612"
    },
    {
      "channel": 0,
      "note": 47,
      "start": 85.4487,
      "duration": 0.0144,
      "velocity": 115,
      "chip": "ym2612"
    },
    {
      "channel": 4,
      "note": 63,
      "start": 85.4501,
      "duration": 0.0141,
      "velocity": 120,
      "chip": "ym2612"
    },
    {
      "channel": 3,
      "note": 70,
      "start": 85.4515,
      "duration": 0.0139,
      "velocity": 120,
      "chip": "ym2612"
    },
    {
      "channel": 2,
      "note": 51,
      "start": 85.4529,
      "duration": 0.0137,
      "velocity": 100,
      "chip": "ym2612"
    },
    {
      "channel": 1,
      "note": 76,
      "start": 85.4613,
      "duration": 0.016,
      "velocity": 124,
      "chip": "ym2612"
    },
    {
      "channel": 0,
      "note": 47,
      "start": 85.463,
      "duration": 0.016,
      "velocity": 115,
      "chip": "ym2612"
    },
    {
      "channel": 4,
      "note": 63,
      "start": 85.4642,
      "duration": 0.016,
      "velocity": 120,
      "chip": "ym2612"
    },
    {
      "channel": 3,
      "note": 70,
      "start": 85.4654,
      "duration": 0.016,
      "velocity": 120,
      "chip": "ym2612"
    },
    {
      "channel": 2,
      "note": 51,
      "start": 85.4667,
      "duration": 0.0158,
      "velocity": 100,
      "chip": "ym2612"
    },
    {
      "channel": 1,
      "note": 75,
      "start": 85.4773,
      "duration": 0.0161,
      "velocity": 124,
      "chip": "ym2612"
    },
    {
      "channel": 0,
      "note": 47,
      "start": 85.4791,
      "duration": 0.0161,
      "velocity": 115,
      "chip": "ym2612"
    },
    {
      "channel": 4,
      "note": 63,
      "start": 85.4802,
      "duration": 0.0161,
      "velocity": 120,
      "chip": "ym2612"
    },
    {
      "channel": 3,
      "note": 70,
      "start": 85.4814,
      "duration": 0.0161,
      "velocity": 120,
      "chip": "ym2612"
    },
    {
      "channel": 2,
      "note": 51,
      "start": 85.4825,
      "duration": 0.0161,
      "velocity": 100,
      "chip": "ym2612"
    },
    {
      "channel": 1,
      "note": 74,
      "start": 85.4934,
      "duration": 0.0171,
      "velocity": 124,
      "chip": "ym2612"
    },
    {
      "channel": 0,
      "note": 48,
      "start": 85.4951,
      "duration": 0.0172,
      "velocity": 115,
      "chip": "ym2612"
    },
    {
      "channel": 4,
      "note": 63,
      "start": 85.4963,
      "duration": 0.0172,
      "velocity": 120,
      "chip": "ym2612"
    },
    {
      "channel": 3,
      "note": 70,
      "start": 85.4975,
      "duration": 0.0171,
      "velocity": 120,
      "chip": "ym2612"
    },
    {
      "channel": 2,
      "note": 51,
      "start": 85.4986,
      "duration": 0.0172,
      "velocity": 100,
      "chip": "ym2612"
    },
    {
      "channel": 1,
      "note": 72,
      "start": 85.5105,
      "duration": 0.0167,
      "velocity": 124,
      "chip": "ym2612"
    },
    {
      "channel": 0,
      "note": 48,
      "start": 85.5123,
      "duration": 0.0167,
      "velocity": 115,
      "chip": "ym2612"
    },
    {
      "channel": 4,
      "note": 63,
      "start": 85.5135,
      "duration": 0.0167,
      "velocity": 120,
      "chip": "ym2612"
    },
    {
      "channel": 3,
      "note": 70,
      "start": 85.5146,
      "duration": 0.0167,
      "velocity": 120,
      "chip": "ym2612"
    },
    {
      "channel": 2,
      "note": 51,
      "start": 85.5158,
      "duration": 0.0167,
      "velocity": 100,
      "chip": "ym2612"
    },
    {
      "channel": 1,
      "note": 71,
      "start": 85.5272,
      "duration": 0.0163,
      "velocity": 124,
      "chip": "ym2612"
    },
    {
      "channel": 0,
      "note": 49,
      "start": 85.529,
      "duration": 0.0155,
      "velocity": 1,
      "chip": "ym2612"
    },
    {
      "channel": 4,
      "note": 63,
      "start": 85.5301,
      "duration": 0.0155,
      "velocity": 120,
      "chip": "ym2612"
    },
    {
      "channel": 3,
      "note": 70,
      "start": 85.5313,
      "duration": 0.0155,
      "velocity": 120,
      "chip": "ym2612"
    },
    {
      "channel": 2,
      "note": 51,
      "start": 85.5324,
      "duration": 0.0155,
      "velocity": 100,
      "chip": "ym2612"
    },
    {
      "channel": 1,
      "note": 70,
      "start": 85.5436,
      "duration": 0.0146,
      "velocity": 124,
      "chip": "ym2612"
    },
    {
      "channel": 4,
      "note": 63,
      "start": 85.5457,
      "duration": 0.0137,
      "velocity": 120,
      "chip": "ym2612"
    },
    {
      "channel": 3,
      "note": 70,
      "start": 85.5468,
      "duration": 0.0138,
      "velocity": 120,
      "chip": "ym2612"
    },
    {
      "channel": 2,
      "note": 51,
      "start": 85.548,
      "duration": 0.0137,
      "velocity": 100,
      "chip": "ym2612"
    },
    {
      "channel": 1,
      "note": 69,
      "start": 85.5582,
      "duration": 0.0185,
      "velocity": 124,
      "chip": "ym2612"
    },
    {
      "channel": 4,
      "note": 63,
      "start": 85.5594,
      "duration": 0.0186,
      "velocity": 120,
      "chip": "ym2612"
    },
    {
      "channel": 3,
      "note": 70,
      "start": 85.5606,
      "duration": 0.0185,
      "velocity": 120,
      "chip": "ym2612"
    },
    {
      "channel": 1,
      "note": 68,
      "start": 85.5767,
      "duration": 0.0161,
      "velocity": 124,
      "chip": "ym2612"
    },
    {
      "channel": 4,
      "note": 63,
      "start": 85.578,
      "duration": 0.0161,
      "velocity": 120,
      "chip": "ym2612"
    },
    {
      "channel": 3,
      "note": 70,
      "start": 85.5791,
      "duration": 0.0161,
      "velocity": 120,
      "chip": "ym2612"
    },
    {
      "channel": 1,
      "note": 66,
      "start": 85.5928,
      "duration": 0.0157,
      "velocity": 124,
      "chip": "ym2612"
    },
    {
      "channel": 4,
      "note": 63,
      "start": 85.5941,
      "duration": 0.0157,
      "velocity": 120,
      "chip": "ym2612"
    },
    {
      "channel": 3,
      "note": 70,
      "start": 85.5952,
      "duration": 0.0157,
      "velocity": 120,
      "chip": "ym2612"
    },
    {
      "channel": 1,
      "note": 65,
      "start": 85.6085,
      "duration": 0.0137,
      "velocity": 124,
      "chip": "ym2612"
    },
    {
      "channel": 4,
      "note": 63,
      "start": 85.6098,
      "duration": 0.0141,
      "velocity": 120,
      "chip": "ym2612"
    },
    {
      "channel": 3,
      "note": 70,
      "start": 85.6109,
      "duration": 0.0141,
      "velocity": 120,
      "chip": "ym2612"
    },
    {
      "channel": 1,
      "note": 64,
      "start": 85.6222,
      "duration": 0.0161,
      "velocity": 124,
      "chip": "ym2612"
    },
    {
      "channel": 4,
      "note": 63,
      "start": 85.6239,
      "duration": 0.0185,
      "velocity": 120,
      "chip": "ym2612"
    },
    {
      "channel": 3,
      "note": 70,
      "start": 85.625,
      "duration": 0.0186,
      "velocity": 120,
      "chip": "ym2612"
    },
    {
      "channel": 1,
      "note": 62,
      "start": 85.6383,
      "duration": 0.0161,
      "velocity": 124,
      "chip": "ym2612"
    },
    {
      "channel": 4,
      "note": 63,
      "start": 85.6424,
      "duration": 0.0134,
      "velocity": 120,
      "chip": "ym2612"
    },
    {
      "channel": 3,
      "note": 70,
      "start": 85.6436,
      "duration": 0.0161,
      "velocity": 120,
      "chip": "ym2612"
    },
    {
      "channel": 2,
      "note": 51,
      "start": 85.645,
      "duration": 0.0158,
      "velocity": 100,
      "chip": "ym2612"
    },
    {
      "channel": 1,
      "note": 61,
      "start": 85.6544,
      "duration": 0.0161,
      "velocity": 124,
      "chip": "ym2612"
    },
    {
      "channel": 4,
      "note": 63,
      "start": 85.6557,
      "duration": 0.0161,
      "velocity": 120,
      "chip": "ym2612"
    },
    {
      "channel": 3,
      "note": 70,
      "start": 85.6597,
      "duration": 0.0157,
      "velocity": 120,
      "chip": "ym2612"
    },
    {
      "channel": 2,
      "note": 51,
      "start": 85.6608,
      "duration": 0.0157,
      "velocity": 100,
      "chip": "ym2612"
    },
    {
      "channel": 1,
      "note": 60,
      "start": 85.6705,
      "duration": 0.0161,
      "velocity": 124,
      "chip": "ym2612"
    },
    {
      "channel": 4,
      "note": 63,
      "start": 85.6718,
      "duration": 0.0161,
      "velocity": 120,
      "chip": "ym2612"
    },
    {
      "channel": 3,
      "note": 70,
      "start": 85.6754,
      "duration": 0.0137,
      "velocity": 120,
      "chip": "ym2612"
    },
    {
      "channel": 2,
      "note": 51,
      "start": 85.6765,
      "duration": 0.0141,
      "velocity": 100,
      "chip": "ym2612"
    },
    {
      "channel": 1,
      "note": 59,
      "start": 85.6866,
      "duration": 0.0162,
      "velocity": 124,
      "chip": "ym2612"
    },
    {
      "channel": 4,
      "note": 63,
      "start": 85.6879,
      "duration": 0.0161,
      "velocity": 120,
      "chip": "ym2612"
    },
    {
      "channel": 3,
      "note": 70,
      "start": 85.6891,
      "duration": 0.0161,
      "velocity": 120,
      "chip": "ym2612"
    },
    {
      "channel": 2,
      "note": 51,
      "start": 85.6906,
      "duration": 0.0185,
      "velocity": 100,
      "chip": "ym2612"
    },
    {
      "channel": 1,
      "note": 57,
      "start": 85.7028,
      "duration": 0.0161,
      "velocity": 124,
      "chip": "ym2612"
    },
    {
      "channel": 4,
      "note": 63,
      "start": 85.7041,
      "duration": 0.0161,
      "velocity": 120,
      "chip": "ym2612"
    },
    {
      "channel": 3,
      "note": 70,
      "start": 85.7052,
      "duration": 0.0161,
      "velocity": 120,
      "chip": "ym2612"
    },
    {
      "channel": 2,
      "note": 51,
      "start": 85.7091,
      "duration": 0.0134,
      "velocity": 100,
      "chip": "ym2612"
    },
    {
      "channel": 1,
      "note": 56,
      "start": 85.7189,
      "duration": 0.0161,
      "velocity": 124,
      "chip": "ym2612"
    },
    {
      "channel": 4,
      "note": 63,
      "start": 85.7202,
      "duration": 0.0161,
      "velocity": 120,
      "chip": "ym2612"
    },
    {
      "channel": 3,
      "note": 70,
      "start": 85.7213,
      "duration": 0.0161,
      "velocity": 120,
      "chip": "ym2612"
    },
    {
      "channel": 2,
      "note": 51,
      "start": 85.7224,
      "duration": 0.0161,
      "velocity": 100,
      "chip": "ym2612"
    },
    {
      "channel": 1,
      "note": 55,
      "start": 85.735,
      "duration": 0.0161,
      "velocity": 124,
      "chip": "ym2612"
    },
    {
      "channel": 4,
      "note": 63,
      "start": 85.7363,
      "duration": 0.0161,
      "velocity": 120,
      "chip": "ym2612"
    },
    {
      "channel": 3,
      "note": 70,
      "start": 85.7374,
      "duration": 0.0161,
      "velocity": 120,
      "chip": "ym2612"
    },
    {
      "channel": 2,
      "note": 51,
      "start": 85.7385,
      "duration": 0.0161,
      "velocity": 100,
      "chip": "ym2612"
    },
    {
      "channel": 1,
      "note": 53,
      "start": 85.7511,
      "duration": 0.0161,
      "velocity": 124,
      "chip": "ym2612"
    },
    {
      "channel": 4,
      "note": 63,
      "start": 85.7523,
      "duration": 0.0161,
      "velocity": 120,
      "chip": "ym2612"
    },
    {
      "channel": 3,
      "note": 70,
      "start": 85.7535,
      "duration": 0.0161,
      "velocity": 120,
      "chip": "ym2612"
    },
    {
      "channel": 1,
      "note": 52,
      "start": 85.7672,
      "duration": 0.0161,
      "velocity": 124,
      "chip": "ym2612"
    },
    {
      "channel": 4,
      "note": 63,
      "start": 85.7684,
      "duration": 0.0161,
      "velocity": 120,
      "chip": "ym2612"
    },
    {
      "channel": 3,
      "note": 70,
      "start": 85.7696,
      "duration": 0.016,
      "velocity": 120,
      "chip": "ym2612"
    },
    {
      "channel": 1,
      "note": 51,
      "start": 85.7833,
      "duration": 0.0153,
      "velocity": 1,
      "chip": "ym2612"
    },
    {
      "channel": 4,
      "note": 63,
      "start": 85.7845,
      "duration": 0.0153,
      "velocity": 120,
      "chip": "ym2612"
    },
    {
      "channel": 3,
      "note": 70,
      "start": 85.7857,
      "duration": 0.0153,
      "velocity": 120,
      "chip": "ym2612"
    },
    {
      "channel": 4,
      "note": 63,
      "start": 85.7998,
      "duration": 0.0153,
      "velocity": 120,
      "chip": "ym2612"
    },
    {
      "channel": 3,
      "note": 70,
      "start": 85.801,
      "duration": 0.0153,
      "velocity": 120,
      "chip": "ym2612"
    },
    {
      "channel": 4,
      "note": 63,
      "start": 85.8151,
      "duration": 0.0196,
      "velocity": 120,
      "chip": "ym2612"
    },
    {
      "channel": 3,
      "note": 70,
      "start": 85.8163,
      "duration": 0.0195,
      "velocity": 120,
      "chip": "ym2612"
    },
    {
      "channel": 1,
      "note": 78,
      "start": 85.8334,
      "duration": 0.0143,
      "velocity": 124,
      "chip": "ym2612"
    },
    {
      "channel": 4,
      "note": 63,
      "start": 85.8346,
      "duration": 0.0143,
      "velocity": 120,
      "chip": "ym2612"
    },
    {
      "channel": 3,
      "note": 70,
      "start": 85.8358,
      "duration": 0.0144,
      "velocity": 120,
      "chip": "ym2612"
    },
    {
      "channel": 2,
      "note": 51,
      "start": 85.8372,
      "duration": 0.0141,
      "velocity": 100,
      "chip": "ym2612"
    },
    {
      "channel": 1,
      "note": 76,
      "start": 85.8477,
      "duration": 0.0161,
      "velocity": 124,
      "chip": "ym2612"
    },
    {
      "channel": 4,
      "note": 63,
      "start": 85.849,
      "duration": 0.0161,
      "velocity": 120,
      "chip": "ym2612"
    },
    {
      "channel": 3,
      "note": 70,
      "start": 85.8502,
      "duration": 0.016,
      "velocity": 120,
      "chip": "ym2612"
    },
    {
      "channel": 2,
      "note": 51,
      "start": 85.8513,
      "duration": 0.016,
      "velocity": 100,
      "chip": "ym2612"
    },
    {
      "channel": 1,
      "note": 75,
      "start": 85.8638,
      "duration": 0.0161,
      "velocity": 124,
      "chip": "ym2612"
    },
    {
      "channel": 4,
      "note": 63,
      "start": 85.8651,
      "duration": 0.0161,
      "velocity": 120,
      "chip": "ym2612"
    },
    {
      "channel": 3,
      "note": 70,
      "start": 85.8662,
      "duration": 0.0161,
      "velocity": 120,
      "chip": "ym2612"
    },
    {
      "channel": 2,
      "note": 51,
      "start": 85.8673,
      "duration": 0.0161,
      "velocity": 100,
      "chip": "ym2612"
    },
    {
      "channel": 1,
      "note": 74,
      "start": 85.8799,
      "duration": 0.0161,
      "velocity": 124,
      "chip": "ym2612"
    },
    {
      "channel": 4,
      "note": 63,
      "start": 85.8812,
      "duration": 0.0161,
      "velocity": 120,
      "chip": "ym2612"
    },
    {
      "channel": 3,
      "note": 70,
      "start": 85.8823,
      "duration": 0.0161,
      "velocity": 120,
      "chip": "ym2612"
    },
    {
      "channel": 2,
      "note": 51,
      "start": 85.8834,
      "duration": 0.0162,
      "velocity": 100,
      "chip": "ym2612"
    },
    {
      "channel": 1,
      "note": 72,
      "start": 85.896,
      "duration": 0.0161,
      "velocity": 124,
      "chip": "ym2612"
    },
    {
      "channel": 4,
      "note": 63,
      "start": 85.8973,
      "duration": 0.0161,
      "velocity": 120,
      "chip": "ym2612"
    },
    {
      "channel": 3,
      "note": 70,
      "start": 85.8985,
      "duration": 0.016,
      "velocity": 120,
      "chip": "ym2612"
    },
    {
      "channel": 2,
      "note": 51,
      "start": 85.8996,
      "duration": 0.016,
      "velocity": 100,
      "chip": "ym2612"
    },
    {
      "channel": 1,
      "note": 71,
      "start": 85.9121,
      "duration": 0.0179,
      "velocity": 124,
      "chip": "ym2612"
    },
    {
      "channel": 4,
      "note": 63,
      "start": 85.9134,
      "duration": 0.0179,
      "velocity": 120,
      "chip": "ym2612"
    },
    {
      "channel": 3,
      "note": 70,
      "start": 85.9145,
      "duration": 0.0179,
      "velocity": 120,
      "chip": "ym2612"
    },
    {
      "channel": 2,
      "note": 51,
      "start": 85.9156,
      "duration": 0.0179,
      "velocity": 100,
      "chip": "ym2612"
    },
    {
      "channel": 1,
      "note": 78,
      "start": 85.93,
      "duration": 0.0144,
      "velocity": 124,
      "chip": "ym2612"
    },
    {
      "channel": 4,
      "note": 63,
      "start": 85.9312,
      "duration": 0.0144,
      "velocity": 120,
      "chip": "ym2612"
    },
    {
      "channel": 3,
      "note": 70,
      "start": 85.9324,
      "duration": 0.0144,
      "velocity": 120,
      "chip": "ym2612"
    },
    {
      "channel": 2,
      "note": 51,
      "start": 85.9336,
      "duration": 0.0144,
      "velocity": 100,
      "chip": "ym2612"
    },
    {
      "channel": 1,
      "note": 76,
      "start": 85.9443,
      "duration": 0.016,
      "velocity": 124,
      "chip": "ym2612"
    },
    {
      "channel": 4,
      "note": 63,
      "start": 85.9456,
      "duration": 0.016,
      "velocity": 120,
      "chip": "ym2612"
    },
    {
      "channel": 3,
      "note": 70,
      "start": 85.9468,
      "duration": 0.016,
      "velocity": 120,
      "chip": "ym2612"
    },
    {
      "channel": 1,
      "note": 75,
      "start": 85.9604,
      "duration": 0.0168,
      "velocity": 124,
      "chip": "ym2612"
    },
    {
      "channel": 4,
      "note": 63,
      "start": 85.9616,
      "duration": 0.0168,
      "velocity": 120,
      "chip": "ym2612"
    },
    {
      "channel": 3,
      "note": 70,
      "start": 85.9628,
      "duration": 0.0169,
      "velocity": 120,
      "chip": "ym2612"
    },
    {
      "channel": 1,
      "note": 74,
      "start": 85.9772,
      "duration": 0.0167,
      "velocity": 124,
      "chip": "ym2612"
    },
    {
      "channel": 4,
      "note": 63,
      "start": 85.9785,
      "duration": 0.0167,
      "velocity": 120,
      "chip": "ym2612"
    },
    {
      "channel": 3,
      "note": 70,
      "start": 85.9797,
      "duration": 0.0167,
      "velocity": 120,
      "chip": "ym2612"
    },
    {
      "channel": 1,
      "note": 72,
      "start": 85.9939,
      "duration": 0.0163,
      "velocity": 124,
      "chip": "ym2612"
    },
    {
      "channel": 4,
      "note": 63,
      "start": 85.9952,
      "duration": 0.0163,
      "velocity": 120,
      "chip": "ym2612"
    },
    {
      "channel": 3,
      "note": 70,
      "start": 85.9964,
      "duration": 0.0163,
      "velocity": 120,
      "chip": "ym2612"
    },
    {
      "channel": 1,
      "note": 71,
      "start": 86.0102,
      "duration": 0.0165,
      "velocity": 124,
      "chip": "ym2612"
    },
    {
      "channel": 4,
      "note": 63,
      "start": 86.0115,
      "duration": 0.0166,
      "velocity": 120,
      "chip": "ym2612"
    },
    {
      "channel": 3,
      "note": 70,
      "start": 86.0127,
      "duration": 0.0165,
      "velocity": 120,
      "chip": "ym2612"
    },
    {
      "channel": 1,
      "note": 78,
      "start": 86.0267,
      "duration": 0.017,
      "velocity": 124,
      "chip": "ym2612"
    },
    {
      "channel": 4,
      "note": 63,
      "start": 86.028,
      "duration": 0.0169,
      "velocity": 120,
      "chip": "ym2612"
    },
    {
      "channel": 3,
      "note": 70,
      "start": 86.0292,
      "duration": 0.0169,
      "velocity": 120,
      "chip": "ym2612"
    },
    {
      "channel": 2,
      "note": 51,
      "start": 86.0306,
      "duration": 0.0167,
      "velocity": 100,
      "chip": "ym2612"
    },
    {
      "channel": 1,
      "note": 76,
      "start": 86.0437,
      "duration": 0.016,
      "velocity": 124,
      "chip": "ym2612"
    },
    {
      "channel": 4,
      "note": 63,
      "start": 86.045,
      "duration": 0.016,
      "velocity": 120,
      "chip": "ym2612"
    },
    {
      "channel": 3,
      "note": 70,
      "start": 86.0461,
      "duration": 0.0161,
      "velocity": 120,
      "chip": "ym2612"
    },
    {
      "channel": 2,
      "note": 51,
      "start": 86.0473,
      "duration": 0.016,
      "velocity": 100,
      "chip": "ym2612"
    },
    {
      "channel": 1,
      "note": 75,
      "start": 86.0597,
      "duration": 0.0158,
      "velocity": 124,
      "chip": "ym2612"
    },
    {
      "channel": 4,
      "note": 63,
      "start": 86.061,
      "duration": 0.0158,
      "velocity": 120,
      "chip": "ym2612"
    },
    {
      "channel": 3,
      "note": 70,
      "start": 86.0622,
      "duration": 0.0157,
      "velocity": 120,
      "chip": "ym2612"
    },
    {
      "channel": 2,
      "note": 51,
      "start": 86.0634,
      "duration": 0.0157,
      "velocity": 100,
      "chip": "ym2612"
    },
    {
      "channel": 1,
      "note": 74,
      "start": 86.0755,
      "duration": 0.0137,
      "velocity": 124,
      "chip": "ym2612"
    },
    {
      "channel": 4,
      "note": 63,
      "start": 86.0768,
      "duration": 0.014,
      "velocity": 120,
      "chip": "ym2612"
    },
    {
      "channel": 3,
      "note": 70,
      "start": 86.0779,
      "duration": 0.0141,
      "velocity": 120,
      "chip": "ym2612"
    },
    {
      "channel": 2,
      "note": 51,
      "start": 86.0791,
      "duration": 0.014,
      "velocity": 100,
      "chip": "ym2612"
    },
    {
      "channel": 1,
      "note": 72,
      "start": 86.0892,
      "duration": 0.0161,
      "velocity": 124,
      "chip": "ym2612"
    },
    {
      "channel": 4,
      "note": 63,
      "start": 86.0908,
      "duration": 0.0186,
      "velocity": 120,
      "chip": "ym2612"
    },
    {
      "channel": 3,
      "note": 70,
      "start": 86.092,
      "duration": 0.0185,
      "velocity": 120,
      "chip": "ym2612"
    },
    {
      "channel": 2,
      "note": 51,
      "start": 86.0931,
      "duration": 0.0186,
      "velocity": 100,
      "chip": "ym2612"
    },
    {
      "channel": 1,
      "note": 71,
      "start": 86.1053,
      "duration": 0.0161,
      "velocity": 124,
      "chip": "ym2612"
    },
    {
      "channel": 4,
      "note": 63,
      "start": 86.1093,
      "duration": 0.0161,
      "velocity": 120,
      "chip": "ym2612"
    },
    {
      "channel": 3,
      "note": 70,
      "start": 86.1105,
      "duration": 0.0161,
      "velocity": 120,
      "chip": "ym2612"
    },
    {
      "channel": 2,
      "note": 51,
      "start": 86.1116,
      "duration": 0.0161,
      "velocity": 100,
      "chip": "ym2612"
    },
    {
      "channel": 1,
      "note": 70,
      "start": 86.1214,
      "duration": 0.0161,
      "velocity": 124,
      "chip": "ym2612"
    },
    {
      "channel": 4,
      "note": 63,
      "start": 86.1254,
      "duration": 0.0133,
      "velocity": 120,
      "chip": "ym2612"
    },
    {
      "channel": 3,
      "note": 70,
      "start": 86.1266,
      "duration": 0.0157,
      "velocity": 120,
      "chip": "ym2612"
    },
    {
      "channel": 2,
      "note": 51,
      "start": 86.1277,
      "duration": 0.0157,
      "velocity": 100,
      "chip": "ym2612"
    },
    {
      "channel": 1,
      "note": 69,
      "start": 86.1375,
      "duration": 0.0161,
      "velocity": 124,
      "chip": "ym2612"
    },
    {
      "channel": 4,
      "note": 63,
      "start": 86.1387,
      "duration": 0.0162,
      "velocity": 120,
      "chip": "ym2612"
    },
    {
      "channel": 3,
      "note": 70,
      "start": 86.1423,
      "duration": 0.0141,
      "velocity": 120,
      "chip": "ym2612"
    },
    {
      "channel": 1,
      "note": 68,
      "start": 86.1536,
      "duration": 0.0161,
      "velocity": 124,
      "chip": "ym2612"
    },
    {
      "channel": 4,
      "note": 63,
      "start": 86.1549,
      "duration": 0.0161,
      "velocity": 120,
      "chip": "ym2612"
    },
    {
      "channel": 3,
      "note": 70,
      "start": 86.1564,
      "duration": 0.0157,
      "velocity": 120,
      "chip": "ym2612"
    },
    {
      "channel": 1,
      "note": 66,
      "start": 86.1697,
      "duration": 0.0161,
      "velocity": 124,
      "chip": "ym2612"
    },
    {
      "channel": 4,
      "note": 63,
      "start": 86.171,
      "duration": 0.0161,
      "velocity": 120,
      "chip": "ym2612"
    },
    {
      "channel": 3,
      "note": 70,
      "start": 86.1721,
      "duration": 0.0161,
      "velocity": 120,
      "chip": "ym2612"
    },
    {
      "channel": 1,
      "note": 65,
      "start": 86.1858,
      "duration": 0.0161,
      "velocity": 124,
      "chip": "ym2612"
    },
    {
      "channel": 4,
      "note": 63,
      "start": 86.1871,
      "duration": 0.0161,
      "velocity": 120,
      "chip": "ym2612"
    },
    {
      "channel": 3,
      "note": 70,
      "start": 86.1882,
      "duration": 0.0161,
      "velocity": 120,
      "chip": "ym2612"
    },
    {
      "channel": 1,
      "note": 64,
      "start": 86.2019,
      "duration": 0.0179,
      "velocity": 124,
      "chip": "ym2612"
    },
    {
      "channel": 4,
      "note": 63,
      "start": 86.2032,
      "duration": 0.0179,
      "velocity": 120,
      "chip": "ym2612"
    },
    {
      "channel": 3,
      "note": 70,
      "start": 86.2043,
      "duration": 0.0179,
      "velocity": 120,
      "chip": "ym2612"
    },
    {
      "channel": 1,
      "note": 78,
      "start": 86.2198,
      "duration": 0.0144,
      "velocity": 124,
      "chip": "ym2612"
    },
    {
      "channel": 4,
      "note": 63,
      "start": 86.221,
      "duration": 0.0144,
      "velocity": 120,
      "chip": "ym2612"
    },
    {
      "channel": 3,
      "note": 70,
      "start": 86.2222,
      "duration": 0.0143,
      "velocity": 120,
      "chip": "ym2612"
    },
    {
      "channel": 2,
      "note": 51,
      "start": 86.224,
      "duration": 0.0138,
      "velocity": 100,
      "chip": "ym2612"
    },
    {
      "channel": 1,
      "note": 76,
      "start": 86.2341,
      "duration": 0.016,
      "velocity": 124,
      "chip": "ym2612"
    },
    {
      "channel": 4,
      "note": 63,
      "start": 86.2354,
      "duration": 0.016,
      "velocity": 120,
      "chip": "ym2612"
    },
    {
      "channel": 3,
      "note": 70,
      "start": 86.2366,
      "duration": 0.016,
      "velocity": 120,
      "chip": "ym2612"
    },
    {
      "channel": 2,
      "note": 51,
      "start": 86.2378,
      "duration": 0.016,
      "velocity": 100,
      "chip": "ym2612"
    },
    {
      "channel": 1,
      "note": 75,
      "start": 86.2502,
      "duration": 0.0161,
      "velocity": 124,
      "chip": "ym2612"
    },
    {
      "channel": 4,
      "note": 63,
      "start": 86.2515,
      "duration": 0.0161,
      "velocity": 120,
      "chip": "ym2612"
    },
    {
      "channel": 3,
      "note": 70,
      "start": 86.2526,
      "duration": 0.0161,
      "velocity": 120,
      "chip": "ym2612"
    },
    {
      "channel": 2,
      "note": 51,
      "start": 86.2537,
      "duration": 0.0162,
      "velocity": 100,
      "chip": "ym2612"
    },
    {
      "channel": 1,
      "note": 74,
      "start": 86.2663,
      "duration": 0.0161,
      "velocity": 124,
      "chip": "ym2612"
    },
    {
      "channel": 4,
      "note": 63,
      "start": 86.2676,
      "duration": 0.0161,
      "velocity": 120,
      "chip": "ym2612"
    },
    {
      "channel": 3,
      "note": 70,
      "start": 86.2688,
      "duration": 0.0162,
      "velocity": 120,
      "chip": "ym2612"
    },
    {
      "channel": 2,
      "note": 51,
      "start": 86.2699,
      "duration": 0.0161,
      "velocity": 100,
      "chip": "ym2612"
    },
    {
      "channel": 1,
      "note": 72,
      "start": 86.2824,
      "duration": 0.0161,
      "velocity": 124,
      "chip": "ym2612"
    },
    {
      "channel": 4,
      "note": 63,
      "start": 86.2837,
      "duration": 0.0161,
      "velocity": 120,
      "chip": "ym2612"
    },
    {
      "channel": 3,
      "note": 70,
      "start": 86.2849,
      "duration": 0.016,
      "velocity": 120,
      "chip": "ym2612"
    },
    {
      "channel": 2,
      "note": 51,
      "start": 86.286,
      "duration": 0.0161,
      "velocity": 100,
      "chip": "ym2612"
    },
    {
      "channel": 1,
      "note": 71,
      "start": 86.2985,
      "duration": 0.0178,
      "velocity": 124,
      "chip": "ym2612"
    },
    {
      "channel": 4,
      "note": 63,
      "start": 86.2998,
      "duration": 0.0179,
      "velocity": 120,
      "chip": "ym2612"
    },
    {
      "channel": 3,
      "note": 70,
      "start": 86.301,
      "duration": 0.0179,
      "velocity": 120,
      "chip": "ym2612"
    },
    {
      "channel": 2,
      "note": 51,
      "start": 86.3021,
      "duration": 0.0179,
      "velocity": 100,
      "chip": "ym2612"
    },
    {
      "channel": 1,
      "note": 78,
      "start": 86.3164,
      "duration": 0.0144,
      "velocity": 124,
      "chip": "ym2612"
    },
    {
      "channel": 4,
      "note": 63,
      "start": 86.3177,
      "duration": 0.0144,
      "velocity": 120,
      "chip": "ym2612"
    },
    {
      "channel": 3,
      "note": 70,
      "start": 86.3188,
      "duration": 0.0144,
      "velocity": 120,
      "chip": "ym2612"
    },
    {
      "channel": 2,
      "note": 51,
      "start": 86.32,
      "duration": 0.0144,
      "velocity": 100,
      "chip": "ym2612"
    },
    {
      "channel": 1,
      "note": 76,
      "start": 86.3308,
      "duration": 0.016,
      "velocity": 124,
      "chip": "ym2612"
    },
    {
      "channel": 4,
      "note": 63,
      "start": 86.332,
      "duration": 0.016,
      "velocity": 120,
      "chip": "ym2612"
    },
    {
      "channel": 3,
      "note": 70,
      "start": 86.3332,
      "duration": 0.016,
      "velocity": 120,
      "chip": "ym2612"
    },
    {
      "channel": 1,
      "note": 75,
      "start": 86.3468,
      "duration": 0.0161,
      "velocity": 124,
      "chip": "ym2612"
    },
    {
      "channel": 4,
      "note": 63,
      "start": 86.3481,
      "duration": 0.0161,
      "velocity": 120,
      "chip": "ym2612"
    },
    {
      "channel": 3,
      "note": 70,
      "start": 86.3492,
      "duration": 0.0161,
      "velocity": 120,
      "chip": "ym2612"
    },
    {
      "channel": 1,
      "note": 74,
      "start": 86.3629,
      "duration": 0.0161,
      "velocity": 124,
      "chip": "ym2612"
    },
    {
      "channel": 4,
      "note": 63,
      "start": 86.3642,
      "duration": 0.0161,
      "velocity": 120,
      "chip": "ym2612"
    },
    {
      "channel": 3,
      "note": 70,
      "start": 86.3653,
      "duration": 0.0161,
      "velocity": 120,
      "chip": "ym2612"
    },
    {
      "channel": 1,
      "note": 72,
      "start": 86.379,
      "duration": 0.0161,
      "velocity": 124,
      "chip": "ym2612"
    },
    {
      "channel": 4,
      "note": 63,
      "start": 86.3803,
      "duration": 0.0161,
      "velocity": 120,
      "chip": "ym2612"
    },
    {
      "channel": 3,
      "note": 70,
      "start": 86.3814,
      "duration": 0.0162,
      "velocity": 120,
      "chip": "ym2612"
    },
    {
      "channel": 1,
      "note": 71,
      "start": 86.3951,
      "duration": 0.0179,
      "velocity": 124,
      "chip": "ym2612"
    },
    {
      "channel": 4,
      "note": 63,
      "start": 86.3964,
      "duration": 0.0179,
      "velocity": 120,
      "chip": "ym2612"
    },
    {
      "channel": 3,
      "note": 70,
      "start": 86.3976,
      "duration": 0.0179,
      "velocity": 120,
      "chip": "ym2612"
    },
    {
      "channel": 1,
      "note": 78,
      "start": 86.413,
      "duration": 0.0143,
      "velocity": 124,
      "chip": "ym2612"
    },
    {
      "channel": 4,
      "note": 63,
      "start": 86.4143,
      "duration": 0.0143,
      "velocity": 120,
      "chip": "ym2612"
    },
    {
      "channel": 3,
      "note": 70,
      "start": 86.4155,
      "duration": 0.0143,
      "velocity": 120,
      "chip": "ym2612"
    },
    {
      "channel": 2,
      "note": 51,
      "start": 86.4169,
      "duration": 0.0141,
      "velocity": 100,
      "chip": "ym2612"
    },
    {
      "channel": 1,
      "note": 76,
      "start": 86.4273,
      "duration": 0.0166,
      "velocity": 124,
      "chip": "ym2612"
    },
    {
      "channel": 4,
      "note": 63,
      "start": 86.4286,
      "duration": 0.0166,
      "velocity": 120,
      "chip": "ym2612"
    },
    {
      "channel": 3,
      "note": 70,
      "start": 86.4298,
      "duration": 0.0166,
      "velocity": 120,
      "chip": "ym2612"
    },
    {
      "channel": 2,
      "note": 51,
      "start": 86.431,
      "duration": 0.0165,
      "velocity": 100,
      "chip": "ym2612"
    },
    {
      "channel": 1,
      "note": 75,
      "start": 86.4439,
      "duration": 0.0166,
      "velocity": 124,
      "chip": "ym2612"
    },
    {
      "channel": 4,
      "note": 63,
      "start": 86.4452,
      "duration": 0.0166,
      "velocity": 120,
      "chip": "ym2612"
    },
    {
      "channel": 3,
      "note": 70,
      "start": 86.4464,
      "duration": 0.0167,
      "velocity": 120,
      "chip": "ym2612"
    },
    {
      "channel": 2,
      "note": 51,
      "start": 86.4475,
      "duration": 0.0167,
      "velocity": 100,
      "chip": "ym2612"
    },
    {
      "channel": 1,
      "note": 74,
      "start": 86.4605,
      "duration": 0.0163,
      "velocity": 124,
      "chip": "ym2612"
    },
    {
      "channel": 4,
      "note": 63,
      "start": 86.4618,
      "duration": 0.0163,
      "velocity": 120,
      "chip": "ym2612"
    },
    {
      "channel": 3,
      "note": 70,
      "start": 86.463,
      "duration": 0.0163,
      "velocity": 120,
      "chip": "ym2612"
    },
    {
      "channel": 2,
      "note": 51,
      "start": 86.4642,
      "duration": 0.0163,
      "velocity": 100,
      "chip": "ym2612"
    },
    {
      "channel": 1,
      "note": 72,
      "start": 86.4769,
      "duration": 0.0148,
      "velocity": 124,
      "chip": "ym2612"
    },
    {
      "channel": 4,
      "note": 63,
      "start": 86.4782,
      "duration": 0.0148,
      "velocity": 120,
      "chip": "ym2612"
    },
    {
      "channel": 3,
      "note": 70,
      "start": 86.4793,
      "duration": 0.0148,
      "velocity": 120,
      "chip": "ym2612"
    },
    {
      "channel": 2,
      "note": 51,
      "start": 86.4805,
      "duration": 0.0148,
      "velocity": 100,
      "chip": "ym2612"
    },
    {
      "channel": 1,
      "note": 71,
      "start": 86.4917,
      "duration": 0.0188,
      "velocity": 124,
      "chip": "ym2612"
    },
    {
      "channel": 4,
      "note": 63,
      "start": 86.493,
      "duration": 0.0188,
      "velocity": 120,
      "chip": "ym2612"
    },
    {
      "channel": 3,
      "note": 70,
      "start": 86.4941,
      "duration": 0.0189,
      "velocity": 120,
      "chip": "ym2612"
    },
    {
      "channel": 2,
      "note": 51,
      "start": 86.4953,
      "duration": 0.0189,
      "velocity": 100,
      "chip": "ym2612"
    },
    {
      "channel": 1,
      "note": 70,
      "start": 86.5105,
      "duration": 0.0161,
      "velocity": 124,
      "chip": "ym2612"
    },
    {
      "channel": 4,
      "note": 63,
      "start": 86.5118,
      "duration": 0.0161,
      "velocity": 120,
      "chip": "ym2612"
    },
    {
      "channel": 3,
      "note": 70,
      "start": 86.513,
      "duration": 0.0161,
      "velocity": 120,
      "chip": "ym2612"
    },
    {
      "channel": 2,
      "note": 51,
      "start": 86.5142,
      "duration": 0.0161,
      "velocity": 100,
      "chip": "ym2612"
    },
    {
      "channel": 1,
      "note": 69,
      "start": 86.5266,
      "duration": 0.0158,
      "velocity": 124,
      "chip": "ym2612"
    },
    {
      "channel": 4,
      "note": 63,
      "start": 86.5279,
      "duration": 0.0158,
      "velocity": 120,
      "chip": "ym2612"
    },
    {
      "channel": 3,
      "note": 70,
      "start": 86.5291,
      "duration": 0.0158,
      "velocity": 120,
      "chip": "ym2612"
    },
    {
      "channel": 1,
      "note": 68,
      "start": 86.5424,
      "duration": 0.014,
      "velocity": 124,
      "chip": "ym2612"
    },
    {
      "channel": 4,
      "note": 63,
      "start": 86.5437,
      "duration": 0.014,
      "velocity": 120,
      "chip": "ym2612"
    },
    {
      "channel": 3,
      "note": 70,
      "start": 86.5449,
      "duration": 0.014,
      "velocity": 120,
      "chip": "ym2612"
    },
    {
      "channel": 1,
      "note": 66,
      "start": 86.5564,
      "duration": 0.0158,
      "velocity": 124,
      "chip": "ym2612"
    },
    {
      "channel": 4,
      "note": 63,
      "start": 86.5577,
      "duration": 0.0186,
      "velocity": 120,
      "chip": "ym2612"
    },
    {
      "channel": 3,
      "note": 70,
      "start": 86.5589,
      "duration": 0.0185,
      "velocity": 120,
      "chip": "ym2612"
    },
    {
      "channel": 1,
      "note": 65,
      "start": 86.5722,
      "duration": 0.0161,
      "velocity": 124,
      "chip": "ym2612"
    },
    {
      "channel": 4,
      "note": 63,
      "start": 86.5763,
      "duration": 0.0161,
      "velocity": 120,
      "chip": "ym2612"
    },
    {
      "channel": 3,
      "note": 70,
      "start": 86.5774,
      "duration": 0.0161,
      "velocity": 120,
      "chip": "ym2612"
    },
    {
      "channel": 1,
      "note": 64,
      "start": 86.5883,
      "duration": 0.0161,
      "velocity": 124,
      "chip": "ym2612"
    },
    {
      "channel": 4,
      "note": 63,
      "start": 86.5924,
      "duration": 0.021,
      "velocity": 97,
      "chip": "ym2612"
    },
    {
      "channel": 3,
      "note": 70,
      "start": 86.5935,
      "duration": 0.0229,
      "velocity": 97,
      "chip": "ym2612"
    },
    {
      "channel": 1,
      "note": 62,
      "start": 86.6044,
      "duration": 0.0188,
      "velocity": 124,
      "chip": "ym2612"
    },
    {
      "channel": 0,
      "note": 36,
      "start": 86.6103,
      "duration": 0.0148,
      "velocity": 115,
      "chip": "ym2612"
    },
    {
      "channel": 4,
      "note": 81,
      "start": 86.6134,
      "duration": 0.0129,
      "velocity": 97,
      "chip": "ym2612"
    },
    {
      "channel": 3,
      "note": 84,
      "start": 86.6164,
      "duration": 0.0111,
      "velocity": 97,
      "chip": "ym2612"
    },
    {
      "channel": 2,
      "note": 53,
      "start": 86.6179,
      "duration": 0.0107,
      "velocity": 100,
      "chip": "ym2612"
    },
    {
      "channel": 1,
      "note": 61,
      "start": 86.6233,
      "duration": 0.0134,
      "velocity": 124,
      "chip": "ym2612"
    },
    {
      "channel": 0,
      "note": 36,
      "start": 86.6251,
      "duration": 0.0133,
      "velocity": 115,
      "chip": "ym2612"
    },
    {
      "channel": 4,
      "note": 81,
      "start": 86.6263,
      "duration": 0.016,
      "velocity": 97,
      "chip": "ym2612"
    },
    {
      "channel": 3,
      "note": 84,
      "start": 86.6275,
      "duration": 0.016,
      "velocity": 97,
      "chip": "ym2612"
    },
    {
      "channel": 2,
      "note": 53,
      "start": 86.6287,
      "duration": 0.0159,
      "velocity": 100,
      "chip": "ym2612"
    },
    {
      "channel": 1,
      "note": 60,
      "start": 86.6366,
      "duration": 0.0161,
      "velocity": 124,
      "chip": "ym2612"
    },
    {
      "channel": 0,
      "note": 37,
      "start": 86.6383,
      "duration": 0.0161,
      "velocity": 115,
      "chip": "ym2612"
    },
    {
      "channel": 4,
      "note": 81,
      "start": 86.6423,
      "duration": 0.0133,
      "velocity": 97,
      "chip": "ym2612"
    },
    {
      "channel": 3,
      "note": 84,
      "start": 86.6434,
      "duration": 0.0161,
      "velocity": 97,
      "chip": "ym2612"
    },
    {
      "channel": 2,
      "note": 53,
      "start": 86.6446,
      "duration": 0.016,
      "velocity": 100,
      "chip": "ym2612"
    },
    {
      "channel": 1,
      "note": 59,
      "start": 86.6527,
      "duration": 0.0161,
      "velocity": 124,
      "chip": "ym2612"
    },
    {
      "channel": 0,
      "note": 37,
      "start": 86.6544,
      "duration": 0.0161,
      "velocity": 115,
      "chip": "ym2612"
    },
    {
      "channel": 4,
      "note": 81,
      "start": 86.6556,
      "duration": 0.0161,
      "velocity": 97,
      "chip": "ym2612"
    },
    {
      "channel": 3,
      "note": 84,
      "start": 86.6595,
      "duration": 0.0157,
      "velocity": 97,
      "chip": "ym2612"
    },
    {
      "channel": 2,
      "note": 53,
      "start": 86.6606,
      "duration": 0.0158,
      "velocity": 100,
      "chip": "ym2612"
    },
    {
      "channel": 1,
      "note": 57,
      "start": 86.6688,
      "duration": 0.0161,
      "velocity": 124,
      "chip": "ym2612"
    },
    {
      "channel": 0,
      "note": 38,
      "start": 86.6705,
      "duration": 0.0161,
      "velocity": 115,
      "chip": "ym2612"
    },
    {
      "channel": 4,
      "note": 81,
      "start": 86.6717,
      "duration": 0.0162,
      "velocity": 97,
      "chip": "ym2612"
    },
    {
      "channel": 3,
      "note": 84,
      "start": 86.6752,
      "duration": 0.0137,
      "velocity": 97,
      "chip": "ym2612"
    },
    {
      "channel": 2,
      "note": 53,
      "start": 86.6764,
      "duration": 0.0141,
      "velocity": 100,
      "chip": "ym2612"
    },
    {
      "channel": 1,
      "note": 56,
      "start": 86.6849,
      "duration": 0.0161,
      "velocity": 124,
      "chip": "ym2612"
    },
    {
      "channel": 0,
      "note": 38,
      "start": 86.6866,
      "duration": 0.0161,
      "velocity": 115,
      "chip": "ym2612"
    },
    {
      "channel": 4,
      "note": 81,
      "start": 86.6878,
      "duration": 0.0161,
      "velocity": 97,
      "chip": "ym2612"
    },
    {
      "channel": 3,
      "note": 84,
      "start": 86.689,
      "duration": 0.0161,
      "velocity": 97,
      "chip": "ym2612"
    },
    {
      "channel": 2,
      "note": 53,
      "start": 86.6905,
      "duration": 0.0185,
      "velocity": 100,
      "chip": "ym2612"
    },
    {
      "channel": 1,
      "note": 55,
      "start": 86.701,
      "duration": 0.0161,
      "velocity": 124,
      "chip": "ym2612"
    },
    {
      "channel": 0,
      "note": 39,
      "start": 86.7027,
      "duration": 0.0161,
      "velocity": 115,
      "chip": "ym2612"
    },
    {
      "channel": 4,
      "note": 81,
      "start": 86.7039,
      "duration": 0.0161,
      "velocity": 97,
      "chip": "ym2612"
    },
    {
      "channel": 3,
      "note": 84,
      "start": 86.7051,
      "duration": 0.0161,
      "velocity": 97,
      "chip": "ym2612"
    },
    {
      "channel": 2,
      "note": 53,
      "start": 86.709,
      "duration": 0.0134,
      "velocity": 100,
      "chip": "ym2612"
    },
    {
      "channel": 1,
      "note": 53,
      "start": 86.7171,
      "duration": 0.0161,
      "velocity": 124,
      "chip": "ym2612"
    },
    {
      "channel": 0,
      "note": 39,
      "start": 86.7188,
      "duration": 0.0161,
      "velocity": 115,
      "chip": "ym2612"
    },
    {
      "channel": 4,
      "note": 81,
      "start": 86.72,
      "duration": 0.0161,
      "velocity": 97,
      "chip": "ym2612"
    },
    {
      "channel": 3,
      "note": 84,
      "start": 86.7212,
      "duration": 0.0161,
      "velocity": 97,
      "chip": "ym2612"
    },
    {
      "channel": 2,
      "note": 53,
      "start": 86.7223,
      "duration": 0.0161,
      "velocity": 100,
      "chip": "ym2612"
    },
    {
      "channel": 1,
      "note": 52,
      "start": 86.7332,
      "duration": 0.0161,
      "velocity": 124,
      "chip": "ym2612"
    },
    {
      "channel": 0,
      "note": 40,
      "start": 86.735,
      "duration": 0.0161,
      "velocity": 115,
      "chip": "ym2612"
    },
    {
      "channel": 4,
      "note": 81,
      "start": 86.7361,
      "duration": 0.0161,
      "velocity": 97,
      "chip": "ym2612"
    },
    {
      "channel": 3,
      "note": 84,
      "start": 86.7373,
      "duration": 0.0161,
      "velocity": 97,
      "chip": "ym2612"
    },
    {
      "channel": 2,
      "note": 53,
      "start": 86.7384,
      "duration": 0.0161,
      "velocity": 100,
      "chip": "ym2612"
    },
    {
      "channel": 1,
      "note": 51,
      "start": 86.7493,
      "duration": 0.0153,
      "velocity": 1,
      "chip": "ym2612"
    },
    {
      "channel": 0,
      "note": 40,
      "start": 86.7511,
      "duration": 0.0153,
      "velocity": 115,
      "chip": "ym2612"
    },
    {
      "channel": 4,
      "note": 81,
      "start": 86.7522,
      "duration": 0.0153,
      "velocity": 97,
      "chip": "ym2612"
    },
    {
      "channel": 3,
      "note": 84,
      "start": 86.7534,
      "duration": 0.0153,
      "velocity": 97,
      "chip": "ym2612"
    },
    {
      "channel": 2,
      "note": 53,
      "start": 86.7545,
      "duration": 0.0153,
      "velocity": 100,
      "chip": "ym2612"
    },
    {
      "channel": 0,
      "note": 40,
      "start": 86.7663,
      "duration": 0.0153,
      "velocity": 115,
      "chip": "ym2612"
    },
    {
      "channel": 4,
      "note": 81,
      "start": 86.7675,
      "duration": 0.0153,
      "velocity": 97,
      "chip": "ym2612"
    },
    {
      "channel": 3,
      "note": 84,
      "start": 86.7686,
      "duration": 0.0153,
      "velocity": 97,
      "chip": "ym2612"
    },
    {
      "channel": 0,
      "note": 41,
      "start": 86.7816,
      "duration": 0.0161,
      "velocity": 115,
      "chip": "ym2612"
    },
    {
      "channel": 4,
      "note": 81,
      "start": 86.7827,
      "duration": 0.0162,
      "velocity": 97,
      "chip": "ym2612"
    },
    {
      "channel": 3,
      "note": 84,
      "start": 86.7839,
      "duration": 0.0161,
      "velocity": 97,
      "chip": "ym2612"
    },
    {
      "channel": 0,
      "note": 41,
      "start": 86.7977,
      "duration": 0.0161,
      "velocity": 115,
      "chip": "ym2612"
    },
    {
      "channel": 4,
      "note": 81,
      "start": 86.7989,
      "duration": 0.0161,
      "velocity": 97,
      "chip": "ym2612"
    },
    {
      "channel": 3,
      "note": 84,
      "start": 86.8,
      "duration": 0.0161,
      "velocity": 97,
      "chip": "ym2612"
    },
    {
      "channel": 2,
      "note": 60,
      "start": 86.8015,
      "duration": 0.0159,
      "velocity": 100,
      "chip": "ym2612"
    },
    {
      "channel": 1,
      "note": 48,
      "start": 86.8029,
      "duration": 0.0156,
      "velocity": 100,
      "chip": "ym2612"
    },
    {
      "channel": 0,
      "note": 42,
      "start": 86.8138,
      "duration": 0.0161,
      "velocity": 115,
      "chip": "ym2612"
    },
    {
      "channel": 4,
      "note": 81,
      "start": 86.815,
      "duration": 0.0161,
      "velocity": 97,
      "chip": "ym2612"
    },
    {
      "channel": 3,
      "note": 84,
      "start": 86.8161,
      "duration": 0.0161,
      "velocity": 97,
      "chip": "ym2612"
    },
    {
      "channel": 2,
      "note": 60,
      "start": 86.8173,
      "duration": 0.016,
      "velocity": 100,
      "chip": "ym2612"
    },
    {
      "channel": 1,
      "note": 48,
      "start": 86.8185,
      "duration": 0.016,
      "velocity": 100,
      "chip": "ym2612"
    },
    {
      "channel": 0,
      "note": 42,
      "start": 86.8299,
      "duration": 0.0161,
      "velocity": 115,
      "chip": "ym2612"
    },
    {
      "channel": 4,
      "note": 81,
      "start": 86.8311,
      "duration": 0.0161,
      "velocity": 97,
      "chip": "ym2612"
    },
    {
      "channel": 3,
      "note": 84,
      "start": 86.8322,
      "duration": 0.0161,
      "velocity": 97,
      "chip": "ym2612"
    },
    {
      "channel": 2,
      "note": 60,
      "start": 86.8334,
      "duration": 0.0161,
      "velocity": 100,
      "chip": "ym2612"
    },
    {
      "channel": 1,
      "note": 48,
      "start": 86.8345,
      "duration": 0.0161,
      "velocity": 100,
      "chip": "ym2612"
    },
    {
      "channel": 0,
      "note": 43,
      "start": 86.846,
      "duration": 0.0161,
      "velocity": 115,
      "chip": "ym2612"
    },
    {
      "channel": 4,
      "note": 81,
      "start": 86.8472,
      "duration": 0.0161,
      "velocity": 97,
      "chip": "ym2612"
    },
    {
      "channel": 3,
      "note": 84,
      "start": 86.8484,
      "duration": 0.0161,
      "velocity": 97,
      "chip": "ym2612"
    },
    {
      "channel": 2,
      "note": 60,
      "start": 86.8495,
      "duration": 0.0161,
      "velocity": 100,
      "chip": "ym2612"
    },
    {
      "channel": 1,
      "note": 48,
      "start": 86.8506,
      "duration": 0.0161,
      "velocity": 100,
      "chip": "ym2612"
    },
    {
      "channel": 0,
      "note": 43,
      "start": 86.8621,
      "duration": 0.0161,
      "velocity": 115,
      "chip": "ym2612"
    },
    {
      "channel": 4,
      "note": 81,
      "start": 86.8633,
      "duration": 0.0161,
      "velocity": 97,
      "chip": "ym2612"
    },
    {
      "channel": 3,
      "note": 84,
      "start": 86.8645,
      "duration": 0.0161,
      "velocity": 97,
      "chip": "ym2612"
    },
    {
      "channel": 2,
      "note": 60,
      "start": 86.8656,
      "duration": 0.0161,
      "velocity": 100,
      "chip": "ym2612"
    },
    {
      "channel": 1,
      "note": 48,
      "start": 86.8667,
      "duration": 0.0161,
      "velocity": 100,
      "chip": "ym2612"
    },
    {
      "channel": 0,
      "note": 44,
      "start": 86.8782,
      "duration": 0.0161,
      "velocity": 115,
      "chip": "ym2612"
    },
    {
      "channel": 4,
      "note": 81,
      "start": 86.8794,
      "duration": 0.0161,
      "velocity": 97,
      "chip": "ym2612"
    },
    {
      "channel": 3,
      "note": 84,
      "start": 86.8806,
      "duration": 0.0161,
      "velocity": 97,
      "chip": "ym2612"
    },
    {
      "channel": 2,
      "note": 60,
      "start": 86.8817,
      "duration": 0.0161,
      "velocity": 100,
      "chip": "ym2612"
    },
    {
      "channel": 1,
      "note": 48,
      "start": 86.8828,
      "duration": 0.0162,
      "velocity": 100,
      "chip": "ym2612"
    },
    {
      "channel": 0,
      "note": 44,
      "start": 86.8943,
      "duration": 0.0163,
      "velocity": 115,
      "chip": "ym2612"
    },
    {
      "channel": 4,
      "note": 81,
      "start": 86.8955,
      "duration": 0.0163,
      "velocity": 97,
      "chip": "ym2612"
    },
    {
      "channel": 3,
      "note": 84,
      "start": 86.8967,
      "duration": 0.0163,
      "velocity": 97,
      "chip": "ym2612"
    },
    {
      "channel": 2,
      "note": 60,
      "start": 86.8978,
      "duration": 0.0163,
      "velocity": 100,
      "chip": "ym2612"
    },
    {
      "channel": 1,
      "note": 48,
      "start": 86.899,
      "duration": 0.0163,
      "velocity": 100,
      "chip": "ym2612"
    },
    {
      "channel": 0,
      "note": 44,
      "start": 86.9106,
      "duration": 0.0167,
      "velocity": 115,
      "chip": "ym2612"
    },
    {
      "channel": 4,
      "note": 81,
      "start": 86.9118,
      "duration": 0.0167,
      "velocity": 97,
      "chip": "ym2612"
    },
    {
      "channel": 3,
      "note": 84,
      "start": 86.913,
      "duration": 0.0167,
      "velocity": 97,
      "chip": "ym2612"
    },
    {
      "channel": 2,
      "note": 60,
      "start": 86.9141,
      "duration": 0.0167,
      "velocity": 100,
      "chip": "ym2612"
    },
    {
      "channel": 1,
      "note": 48,
      "start": 86.9153,
      "duration": 0.0167,
      "velocity": 100,
      "chip": "ym2612"
    },
    {
      "channel": 0,
      "note": 45,
      "start": 86.9273,
      "duration": 0.0163,
      "velocity": 115,
      "chip": "ym2612"
    },
    {
      "channel": 4,
      "note": 81,
      "start": 86.9285,
      "duration": 0.0163,
      "velocity": 97,
      "chip": "ym2612"
    },
    {
      "channel": 3,
      "note": 84,
      "start": 86.9297,
      "duration": 0.0163,
      "velocity": 97,
      "chip": "ym2612"
    },
    {
      "channel": 2,
      "note": 60,
      "start": 86.9308,
      "duration": 0.0163,
      "velocity": 100,
      "chip": "ym2612"
    },
    {
      "channel": 1,
      "note": 48,
      "start": 86.932,
      "duration": 0.0162,
      "velocity": 100,
      "chip": "ym2612"
    },
    {
      "channel": 0,
      "note": 45,
      "start": 86.9436,
      "duration": 0.0151,
      "velocity": 115,
      "chip": "ym2612"
    },
    {
      "channel": 4,
      "note": 81,
      "start": 86.9448,
      "duration": 0.0151,
      "velocity": 97,
      "chip": "ym2612"
    },
    {
      "channel": 3,
      "note": 84,
      "start": 86.946,
      "duration": 0.0151,
      "velocity": 97,
      "chip": "ym2612"
    },
    {
      "channel": 2,
      "note": 60,
      "start": 86.9471,
      "duration": 0.0151,
      "velocity": 100,
      "chip": "ym2612"
    },
    {
      "channel": 1,
      "note": 48,
      "start": 86.9482,
      "duration": 0.0151,
      "velocity": 100,
      "chip": "ym2612"
    },
    {
      "channel": 0,
      "note": 46,
      "start": 86.9587,
      "duration": 0.0186,
      "velocity": 115,
      "chip": "ym2612"
    },
    {
      "channel": 4,
      "note": 81,
      "start": 86.9599,
      "duration": 0.0186,
      "velocity": 97,
      "chip": "ym2612"
    },
    {
      "channel": 3,
      "note": 84,
      "start": 86.9611,
      "duration": 0.0186,
      "velocity": 97,
      "chip": "ym2612"
    },
    {
      "channel": 0,
      "note": 46,
      "start": 86.9773,
      "duration": 0.0198,
      "velocity": 115,
      "chip": "ym2612"
    },
    {
      "channel": 4,
      "note": 81,
      "start": 86.9785,
      "duration": 0.0199,
      "velocity": 97,
      "chip": "ym2612"
    },
    {
      "channel": 3,
      "note": 84,
      "start": 86.9797,
      "duration": 0.0198,
      "velocity": 97,
      "chip": "ym2612"
    },
    {
      "channel": 1,
      "note": 78,
      "start": 86.9954,
      "duration": 0.014,
      "velocity": 124,
      "chip": "ym2612"
    },
    {
      "channel": 0,
      "note": 47,
      "start": 86.9971,
      "duration": 0.014,
      "velocity": 115,
      "chip": "ym2612"
    },
    {
      "channel": 4,
      "note": 81,
      "start": 86.9983,
      "duration": 0.014,
      "velocity": 97,
      "chip": "ym2612"
    },
    {
      "channel": 3,
      "note": 84,
      "start": 86.9995,
      "duration": 0.014,
      "velocity": 97,
      "chip": "ym2612"
    },
    {
      "channel": 2,
      "note": 65,
      "start": 87.0009,
      "duration": 0.0138,
      "velocity": 100,
      "chip": "ym2612"
    },
    {
      "channel": 1,
      "note": 76,
      "start": 87.0094,
      "duration": 0.014,
      "velocity": 124,
      "chip": "ym2612"
    },
    {
      "channel": 0,
      "note": 47,
      "start": 87.0111,
      "duration": 0.014,
      "velocity": 115,
      "chip": "ym2612"
    },
    {
      "channel": 4,
      "note": 81,
      "start": 87.0123,
      "duration": 0.014,
      "velocity": 97,
      "chip": "ym2612"
    },
    {
      "channel": 3,
      "note": 84,
      "start": 87.0135,
      "duration": 0.014,
      "velocity": 97,
      "chip": "ym2612"
    },
    {
      "channel": 2,
      "note": 65,
      "start": 87.0147,
      "duration": 0.0139,
      "velocity": 100,
      "chip": "ym2612"
    },
    {
      "channel": 1,
      "note": 75,
      "start": 87.0234,
      "duration": 0.0158,
      "velocity": 124,
      "chip": "ym2612"
    },
    {
      "channel": 0,
      "note": 47,
      "start": 87.0251,
      "duration": 0.0185,
      "velocity": 115,
      "chip": "ym2612"
    },
    {
      "channel": 4,
      "note": 81,
      "start": 87.0263,
      "duration": 0.0185,
      "velocity": 97,
      "chip": "ym2612"
    },
    {
      "channel": 3,
      "note": 84,
      "start": 87.0275,
      "duration": 0.0185,
      "velocity": 97,
      "chip": "ym2612"
    },
    {
      "channel": 2,
      "note": 65,
      "start": 87.0286,
      "duration": 0.0185,
      "velocity": 100,
      "chip": "ym2612"
    },
    {
      "channel": 1,
      "note": 74,
      "start": 87.0392,
      "duration": 0.0161,
      "velocity": 124,
      "chip": "ym2612"
    },
    {
      "channel": 0,
      "note": 48,
      "start": 87.0436,
      "duration": 0.0161,
      "velocity": 115,
      "chip": "ym2612"
    },
    {
      "channel": 4,
      "note": 81,
      "start": 87.0448,
      "duration": 0.0161,
      "velocity": 97,
      "chip": "ym2612"
    },
    {
      "channel": 3,
      "note": 84,
      "start": 87.046,
      "duration": 0.0161,
      "velocity": 97,
      "chip": "ym2612"
    },
    {
      "channel": 2,
      "note": 65,
      "start": 87.0471,
      "duration": 0.0162,
      "velocity": 100,
      "chip": "ym2612"
    },
    {
      "channel": 1,
      "note": 72,
      "start": 87.0553,
      "duration": 0.0161,
      "velocity": 124,
      "chip": "ym2612"
    },
    {
      "channel": 0,
      "note": 48,
      "start": 87.0597,
      "duration": 0.0158,
      "velocity": 115,
      "chip": "ym2612"
    },
    {
      "channel": 4,
      "note": 81,
      "start": 87.0609,
      "duration": 0.0157,
      "velocity": 97,
      "chip": "ym2612"
    },
    {
      "channel": 3,
      "note": 84,
      "start": 87.0621,
      "duration": 0.0157,
      "velocity": 97,
      "chip": "ym2612"
    },
    {
      "channel": 2,
      "note": 65,
      "start": 87.0633,
      "duration": 0.0156,
      "velocity": 100,
      "chip": "ym2612"
    },
    {
      "channel": 1,
      "note": 71,
      "start": 87.0714,
      "duration": 0.0161,
      "velocity": 124,
      "chip": "ym2612"
    },
    {
      "channel": 0,
      "note": 49,
      "start": 87.0755,
      "duration": 0.0129,
      "velocity": 1,
      "chip": "ym2612"
    },
    {
      "channel": 4,
      "note": 81,
      "start": 87.0766,
      "duration": 0.0132,
      "velocity": 97,
      "chip": "ym2612"
    },
    {
      "channel": 3,
      "note": 84,
      "start": 87.0778,
      "duration": 0.0132,
      "velocity": 97,
      "chip": "ym2612"
    },
    {
      "channel": 2,
      "note": 65,
      "start": 87.0789,
      "duration": 0.0132,
      "velocity": 100,
      "chip": "ym2612"
    },
    {
      "channel": 1,
      "note": 70,
      "start": 87.0875,
      "duration": 0.0161,
      "velocity": 124,
      "chip": "ym2612"
    },
    {
      "channel": 4,
      "note": 81,
      "start": 87.0899,
      "duration": 0.015,
      "velocity": 97,
      "chip": "ym2612"
    },
    {
      "channel": 3,
      "note": 84,
      "start": 87.0911,
      "duration": 0.0177,
      "velocity": 97,
      "chip": "ym2612"
    },
    {
      "channel": 2,
      "note": 65,
      "start": 87.0922,
      "duration": 0.0177,
      "velocity": 100,
      "chip": "ym2612"
    },
    {
      "channel": 1,
      "note": 69,
      "start": 87.1036,
      "duration": 0.0161,
      "velocity": 124,
      "chip": "ym2612"
    },
    {
      "channel": 4,
      "note": 81,
      "start": 87.1048,
      "duration": 0.0161,
      "velocity": 97,
      "chip": "ym2612"
    },
    {
      "channel": 3,
      "note": 84,
      "start": 87.1088,
      "duration": 0.0133,
      "velocity": 97,
      "chip": "ym2612"
    },
    {
      "channel": 2,
      "note": 65,
      "start": 87.1098,
      "duration": 0.0161,
      "velocity": 100,
      "chip": "ym2612"
    },
    {
      "channel": 1,
      "note": 68,
      "start": 87.1196,
      "duration": 0.0161,
      "velocity": 124,
      "chip": "ym2612"
    },
    {
      "channel": 4,
      "note": 81,
      "start": 87.1209,
      "duration": 0.0161,
      "velocity": 97,
      "chip": "ym2612"
    },
    {
      "channel": 3,
      "note": 84,
      "start": 87.1221,
      "duration": 0.0162,
      "velocity": 97,
      "chip": "ym2612"
    },
    {
      "channel": 2,
      "note": 65,
      "start": 87.1259,
      "duration": 0.0158,
      "velocity": 100,
      "chip": "ym2612"
    },
    {
      "channel": 1,
      "note": 66,
      "start": 87.1357,
      "duration": 0.0161,
      "velocity": 124,
      "chip": "ym2612"
    },
    {
      "channel": 4,
      "note": 81,
      "start": 87.137,
      "duration": 0.0161,
      "velocity": 97,
      "chip": "ym2612"
    },
    {
      "channel": 3,
      "note": 84,
      "start": 87.1382,
      "duration": 0.0161,
      "velocity": 97,
      "chip": "ym2612"
    },
    {
      "channel": 2,
      "note": 65,
      "start": 87.1417,
      "duration": 0.0137,
      "velocity": 100,
      "chip": "ym2612"
    },
    {
      "channel": 1,
      "note": 65,
      "start": 87.1518,
      "duration": 0.0161,
      "velocity": 124,
      "chip": "ym2612"
    },
    {
      "channel": 4,
      "note": 81,
      "start": 87.1531,
      "duration": 0.0161,
      "velocity": 97,
      "chip": "ym2612"
    },
    {
      "channel": 3,
      "note": 84,
      "start": 87.1543,
      "duration": 0.0161,
      "velocity": 97,
      "chip": "ym2612"
    },
    {
      "channel": 1,
      "note": 64,
      "start": 87.1679,
      "duration": 0.0161,
      "velocity": 124,
      "chip": "ym2612"
    },
    {
      "channel": 4,
      "note": 81,
      "start": 87.1692,
      "duration": 0.0196,
      "velocity": 97,
      "chip": "ym2612"
    },
    {
      "channel": 3,
      "note": 84,
      "start": 87.1704,
      "duration": 0.0223,
      "velocity": 97,
      "chip": "ym2612"
    },
    {
      "channel": 1,
      "note": 62,
      "start": 87.1841,
      "duration": 0.0161,
      "velocity": 124,
      "chip": "ym2612"
    },
    {
      "channel": 0,
      "note": 36,
      "start": 87.1876,
      "duration": 0.0144,
      "velocity": 115,
      "chip": "ym2612"
    },
    {
      "channel": 4,
      "note": 81,
      "start": 87.1888,
      "duration": 0.0144,
      "velocity": 97,
      "chip": "ym2612"
    },
    {
      "channel": 3,
      "note": 84,
      "start": 87.1927,
      "duration": 0.0116,
      "velocity": 97,
      "chip": "ym2612"
    },
    {
      "channel": 2,
      "note": 63,
      "start": 87.1941,
      "duration": 0.0113,
      "velocity": 100,
      "chip": "ym2612"
    },
    {
      "channel": 1,
      "note": 61,
      "start": 87.2002,
      "duration": 0.0161,
      "velocity": 124,
      "chip": "ym2612"
    },
    {
      "channel": 0,
      "note": 36,
      "start": 87.202,
      "duration": 0.016,
      "velocity": 115,
      "chip": "ym2612"
    },
    {
      "channel": 4,
      "note": 81,
      "start": 87.2032,
      "duration": 0.016,
      "velocity": 97,
      "chip": "ym2612"
    },
    {
      "channel": 3,
      "note": 84,
      "start": 87.2043,
      "duration": 0.016,
      "velocity": 97,
      "chip": "ym2612"
    },
    {
      "channel": 2,
      "note": 63,
      "start": 87.2055,
      "duration": 0.016,
      "velocity": 100,
      "chip": "ym2612"
    },
    {
      "channel": 1,
      "note": 60,
      "start": 87.2163,
      "duration": 0.0161,
      "velocity": 124,
      "chip": "ym2612"
    },
    {
      "channel": 0,
      "note": 37,
      "start": 87.218,
      "duration": 0.0161,
      "velocity": 115,
      "chip": "ym2612"
    },
    {
      "channel": 4,
      "note": 81,
      "start": 87.2192,
      "duration": 0.0161,
      "velocity": 97,
      "chip": "ym2612"
    },
    {
      "channel": 3,
      "note": 84,
      "start": 87.2203,
      "duration": 0.0161,
      "velocity": 97,
      "chip": "ym2612"
    },
    {
      "channel": 2,
      "note": 63,
      "start": 87.2215,
      "duration": 0.0161,
      "velocity": 100,
      "chip": "ym2612"
    },
    {
      "channel": 1,
      "note": 59,
      "start": 87.2324,
      "duration": 0.0161,
      "velocity": 124,
      "chip": "ym2612"
    },
    {
      "channel": 0,
      "note": 37,
      "start": 87.2341,
      "duration": 0.0161,
      "velocity": 115,
      "chip": "ym2612"
    },
    {
      "channel": 4,
      "note": 81,
      "start": 87.2353,
      "duration": 0.0161,
      "velocity": 97,
      "chip": "ym2612"
    },
    {
      "channel": 3,
      "note": 84,
      "start": 87.2364,
      "duration": 0.0161,
      "velocity": 97,
      "chip": "ym2612"
    },
    {
      "channel": 2,
      "note": 63,
      "start": 87.2376,
      "duration": 0.0161,
      "velocity": 100,
      "chip": "ym2612"
    },
    {
      "channel": 1,
      "note": 57,
      "start": 87.2485,
      "duration": 0.0161,
      "velocity": 124,
      "chip": "ym2612"
    },
    {
      "channel": 0,
      "note": 38,
      "start": 87.2502,
      "duration": 0.0161,
      "velocity": 115,
      "chip": "ym2612"
    },
    {
      "channel": 4,
      "note": 81,
      "start": 87.2514,
      "duration": 0.0161,
      "velocity": 97,
      "chip": "ym2612"
    },
    {
      "channel": 3,
      "note": 84,
      "start": 87.2525,
      "duration": 0.0161,
      "velocity": 97,
      "chip": "ym2612"
    },
    {
      "channel": 2,
      "note": 63,
      "start": 87.2537,
      "duration": 0.0161,
      "velocity": 100,
      "chip": "ym2612"
    },
    {
      "channel": 1,
      "note": 56,
      "start": 87.2646,
      "duration": 0.0161,
      "velocity": 124,
      "chip": "ym2612"
    },
    {
      "channel": 0,
      "note": 38,
      "start": 87.2663,
      "duration": 0.0161,
      "velocity": 115,
      "chip": "ym2612"
    },
    {
      "channel": 4,
      "note": 81,
      "start": 87.2675,
      "duration": 0.0161,
      "velocity": 97,
      "chip": "ym2612"
    },
    {
      "channel": 3,
      "note": 84,
      "start": 87.2686,
      "duration": 0.0161,
      "velocity": 97,
      "chip": "ym2612"
    },
    {
      "channel": 2,
      "note": 63,
      "start": 87.2698,
      "duration": 0.0161,
      "velocity": 100,
      "chip": "ym2612"
    },
    {
      "channel": 1,
      "note": 55,
      "start": 87.2807,
      "duration": 0.0161,
      "velocity": 124,
      "chip": "ym2612"
    },
    {
      "channel": 0,
      "note": 39,
      "start": 87.2824,
      "duration": 0.0161,
      "velocity": 115,
      "chip": "ym2612"
    },
    {
      "channel": 4,
      "note": 81,
      "start": 87.2836,
      "duration": 0.0161,
      "velocity": 97,
      "chip": "ym2612"
    },
    {
      "channel": 3,
      "note": 84,
      "start": 87.2847,
      "duration": 0.0161,
      "velocity": 97,
      "chip": "ym2612"
    },
    {
      "channel": 2,
      "note": 63,
      "start": 87.2859,
      "duration": 0.0161,
      "velocity": 100,
      "chip": "ym2612"
    },
    {
      "channel": 1,
      "note": 53,
      "start": 87.2967,
      "duration": 0.0161,
      "velocity": 124,
      "chip": "ym2612"
    },
    {
      "channel": 0,
      "note": 39,
      "start": 87.2985,
      "duration": 0.0161,
      "velocity": 115,
      "chip": "ym2612"
    },
    {
      "channel": 4,
      "note": 81,
      "start": 87.2997,
      "duration": 0.0161,
      "velocity": 97,
      "chip": "ym2612"
    },
    {
      "channel": 3,
      "note": 84,
      "start": 87.3008,
      "duration": 0.0162,
      "velocity": 97,
      "chip": "ym2612"
    },
    {
      "channel": 2,
      "note": 63,
      "start": 87.302,
      "duration": 0.0162,
      "velocity": 100,
      "chip": "ym2612"
    },
    {
      "channel": 1,
      "note": 52,
      "start": 87.3128,
      "duration": 0.0161,
      "velocity": 124,
      "chip": "ym2612"
    },
    {
      "channel": 0,
      "note": 40,
      "start": 87.3146,
      "duration": 0.0162,
      "velocity": 115,
      "chip": "ym2612"
    },
    {
      "channel": 4,
      "note": 81,
      "start": 87.3158,
      "duration": 0.0161,
      "velocity": 97,
      "chip": "ym2612"
    },
    {
      "channel": 3,
      "note": 84,
      "start": 87.317,
      "duration": 0.0161,
      "velocity": 97,
      "chip": "ym2612"
    },
    {
      "channel": 2,
      "note": 63,
      "start": 87.3181,
      "duration": 0.016,
      "velocity": 100,
      "chip": "ym2612"
    },
    {
      "channel": 1,
      "note": 51,
      "start": 87.3289,
      "duration": 0.0153,
      "velocity": 1,
      "chip": "ym2612"
    },
    {
      "channel": 0,
      "note": 40,
      "start": 87.3307,
      "duration": 0.0153,
      "velocity": 115,
      "chip": "ym2612"
    },
    {
      "channel": 4,
      "note": 81,
      "start": 87.3319,
      "duration": 0.0153,
      "velocity": 97,
      "chip": "ym2612"
    },
    {
      "channel": 3,
      "note": 84,
      "start": 87.3331,
      "duration": 0.0153,
      "velocity": 97,
      "chip": "ym2612"
    },
    {
      "channel": 2,
      "note": 63,
      "start": 87.3341,
      "duration": 0.0153,
      "velocity": 100,
      "chip": "ym2612"
    },
    {
      "channel": 0,
      "note": 40,
      "start": 87.346,
      "duration": 0.0153,
      "velocity": 115,
      "chip": "ym2612"
    },
    {
      "channel": 4,
      "note": 81,
      "start": 87.3472,
      "duration": 0.0153,
      "velocity": 97,
      "chip": "ym2612"
    },
    {
      "channel": 3,
      "note": 84,
      "start": 87.3483,
      "duration": 0.0153,
      "velocity": 97,
      "chip": "ym2612"
    },
    {
      "channel": 0,
      "note": 41,
      "start": 87.3612,
      "duration": 0.0161,
      "velocity": 115,
      "chip": "ym2612"
    },
    {
      "channel": 4,
      "note": 81,
      "start": 87.3624,
      "duration": 0.0161,
      "velocity": 97,
      "chip": "ym2612"
    },
    {
      "channel": 3,
      "note": 84,
      "start": 87.3636,
      "duration": 0.0161,
      "velocity": 97,
      "chip": "ym2612"
    },
    {
      "channel": 0,
      "note": 41,
      "start": 87.3773,
      "duration": 0.0167,
      "velocity": 115,
      "chip": "ym2612"
    },
    {
      "channel": 4,
      "note": 81,
      "start": 87.3785,
      "duration": 0.0166,
      "velocity": 97,
      "chip": "ym2612"
    },
    {
      "channel": 3,
      "note": 84,
      "start": 87.3797,
      "duration": 0.0167,
      "velocity": 97,
      "chip": "ym2612"
    },
    {
      "channel": 0,
      "note": 42,
      "start": 87.394,
      "duration": 0.0163,
      "velocity": 115,
      "chip": "ym2612"
    },
    {
      "channel": 4,
      "note": 81,
      "start": 87.3951,
      "duration": 0.0163,
      "velocity": 97,
      "chip": "ym2612"
    },
    {
      "channel": 3,
      "note": 84,
      "start": 87.3964,
      "duration": 0.0163,
      "velocity": 97,
      "chip": "ym2612"
    },
    {
      "channel": 0,
      "note": 42,
      "start": 87.4103,
      "duration": 0.0153,
      "velocity": 115,
      "chip": "ym2612"
    },
    {
      "channel": 4,
      "note": 81,
      "start": 87.4115,
      "duration": 0.0153,
      "velocity": 97,
      "chip": "ym2612"
    },
    {
      "channel": 3,
      "note": 84,
      "start": 87.4127,
      "duration": 0.0153,
      "velocity": 97,
      "chip": "ym2612"
    },
    {
      "channel": 0,
      "note": 43,
      "start": 87.4256,
      "duration": 0.0184,
      "velocity": 115,
      "chip": "ym2612"
    },
    {
      "channel": 4,
      "note": 81,
      "start": 87.4268,
      "duration": 0.0184,
      "velocity": 97,
      "chip": "ym2612"
    },
    {
      "channel": 3,
      "note": 84,
      "start": 87.428,
      "duration": 0.0184,
      "velocity": 97,
      "chip": "ym2612"
    },
    {
      "channel": 0,
      "note": 43,
      "start": 87.444,
      "duration": 0.0166,
      "velocity": 115,
      "chip": "ym2612"
    },
    {
      "channel": 4,
      "note": 81,
      "start": 87.4452,
      "duration": 0.0166,
      "velocity": 97,
      "chip": "ym2612"
    },
    {
      "channel": 3,
      "note": 84,
      "start": 87.4464,
      "duration": 0.0166,
      "velocity": 97,
      "chip": "ym2612"
    },
    {
      "channel": 0,
      "note": 44,
      "start": 87.4606,
      "duration": 0.0157,
      "velocity": 115,
      "chip": "ym2612"
    },
    {
      "channel": 4,
      "note": 81,
      "start": 87.4618,
      "duration": 0.0157,
      "velocity": 97,
      "chip": "ym2612"
    },
    {
      "channel": 3,
      "note": 84,
      "start": 87.463,
      "duration": 0.0157,
      "velocity": 97,
      "chip": "ym2612"
    },
    {
      "channel": 0,
      "note": 44,
      "start": 87.4763,
      "duration": 0.0141,
      "velocity": 115,
      "chip": "ym2612"
    },
    {
      "channel": 4,
      "note": 81,
      "start": 87.4775,
      "duration": 0.0141,
      "velocity": 97,
      "chip": "ym2612"
    },
    {
      "channel": 3,
      "note": 84,
      "start": 87.4787,
      "duration": 0.0141,
      "velocity": 97,
      "chip": "ym2612"
    },
    {
      "channel": 0,
      "note": 44,
      "start": 87.4904,
      "duration": 0.0185,
      "velocity": 115,
      "chip": "ym2612"
    },
    {
      "channel": 4,
      "note": 81,
      "start": 87.4916,
      "duration": 0.0185,
      "velocity": 97,
      "chip": "ym2612"
    },
    {
      "channel": 3,
      "note": 84,
      "start": 87.4927,
      "duration": 0.0185,
      "velocity": 97,
      "chip": "ym2612"
    },
    {
      "channel": 0,
      "note": 45,
      "start": 87.5089,
      "duration": 0.0134,
      "velocity": 115,
      "chip": "ym2612"
    },
    {
      "channel": 4,
      "note": 81,
      "start": 87.5101,
      "duration": 0.0161,
      "velocity": 97,
      "chip": "ym2612"
    },
    {
      "channel": 3,
      "note": 84,
      "start": 87.5112,
      "duration": 0.0161,
      "velocity": 97,
      "chip": "ym2612"
    },
    {
      "channel": 0,
      "note": 45,
      "start": 87.5222,
      "duration": 0.0161,
      "velocity": 115,
      "chip": "ym2612"
    },
    {
      "channel": 4,
      "note": 81,
      "start": 87.5262,
      "duration": 0.0157,
      "velocity": 97,
      "chip": "ym2612"
    },
    {
      "channel": 3,
      "note": 84,
      "start": 87.5273,
      "duration": 0.0158,
      "velocity": 97,
      "chip": "ym2612"
    },
    {
      "channel": 0,
      "note": 46,
      "start": 87.5383,
      "duration": 0.0161,
      "velocity": 115,
      "chip": "ym2612"
    },
    {
      "channel": 4,
      "note": 81,
      "start": 87.5419,
      "duration": 0.0137,
      "velocity": 97,
      "chip": "ym2612"
    },
    {
      "channel": 3,
      "note": 84,
      "start": 87.5431,
      "duration": 0.014,
      "velocity": 97,
      "chip": "ym2612"
    },
    {
      "channel": 0,
      "note": 46,
      "start": 87.5544,
      "duration": 0.016,
      "velocity": 115,
      "chip": "ym2612"
    },
    {
      "channel": 4,
      "note": 81,
      "start": 87.5556,
      "duration": 0.0148,
      "velocity": 97,
      "chip": "ym2612"
    },
    {
      "channel": 3,
      "note": 84,
      "start": 87.5571,
      "duration": 0.0134,
      "velocity": 97,
      "chip": "ym2612"
    }
  ]
}