{
  "track_name": "21 - Track 29",
  "duration_sec": 40.076,
  "sample_rate": 44100,
  "note_count": 824,
  "unique_pitches": 15,
  "pitch_range": 67,
  "avg_note_duration": 0.1878,
  "reconstruction_stats": {
    "notes_reconstructed": 824,
    "keyon_events": 824,
    "keyoff_events": 822,
    "orphan_keyons": 2,
    "unique_pitches": 15,
    "pitch_range": 67,
    "avg_duration_sec": 0.1878
  },
  "metadata": {
    "source": "L\\Lord Monarch - Tokoton Sentou Densetsu\\21 - Track 29.vgz"
  },
  "notes": [
    {
      "channel": 0,
      "note": 50,
      "start": 0.0021,
      "duration": 0.6783,
      "velocity": 102,
      "chip": "ym2612"
    },
    {
      "channel": 1,
      "note": 62,
      "start": 0.0048,
      "duration": 0.6759,
      "velocity": 107,
      "chip": "ym2612"
    },
    {
      "channel": 3,
      "note": 45,
      "start": 0.1432,
      "duration": 0.6776,
      "velocity": 102,
      "chip": "ym2612"
    },
    {
      "channel": 0,
      "note": 49,
      "start": 0.6981,
      "duration": 0.6807,
      "velocity": 102,
      "chip": "ym2612"
    },
    {
      "channel": 1,
      "note": 61,
      "start": 0.6986,
      "duration": 0.6805,
      "velocity": 107,
      "chip": "ym2612"
    },
    {
      "channel": 3,
      "note": 50,
      "start": 0.8386,
      "duration": 0.6804,
      "velocity": 102,
      "chip": "ym2612"
    },
    {
      "channel": 0,
      "note": 52,
      "start": 1.3963,
      "duration": 0.6805,
      "velocity": 102,
      "chip": "ym2612"
    },
    {
      "channel": 1,
      "note": 64,
      "start": 1.3968,
      "duration": 0.6803,
      "velocity": 107,
      "chip": "ym2612"
    },
    {
      "channel": 3,
      "note": 49,
      "start": 1.5368,
      "duration": 0.6804,
      "velocity": 102,
      "chip": "ym2612"
    },
    {
      "channel": 0,
      "note": 49,
      "start": 2.0948,
      "duration": 0.6803,
      "velocity": 102,
      "chip": "ym2612"
    },
    {
      "channel": 1,
      "note": 61,
      "start": 2.0955,
      "duration": 0.6798,
      "velocity": 107,
      "chip": "ym2612"
    },
    {
      "channel": 3,
      "note": 52,
      "start": 2.235,
      "duration": 0.6803,
      "velocity": 102,
      "chip": "ym2612"
    },
    {
      "channel": 0,
      "note": 33,
      "start": 2.7947,
      "duration": 0.1549,
      "velocity": 127,
      "chip": "ym2612"
    },
    {
      "channel": 1,
      "note": 33,
      "start": 2.7973,
      "duration": 0.1875,
      "velocity": 127,
      "chip": "ym2612"
    },
    {
      "channel": 2,
      "note": 97,
      "start": 2.7994,
      "duration": 0.0461,
      "velocity": 99,
      "chip": "ym2612"
    },
    {
      "channel": 2,
      "note": 98,
      "start": 2.8646,
      "duration": 0.0505,
      "velocity": 99,
      "chip": "ym2612"
    },
    {
      "channel": 4,
      "note": 82,
      "start": 2.9009,
      "duration": 0.0497,
      "velocity": 99,
      "chip": "ym2612"
    },
    {
      "channel": 2,
      "note": 97,
      "start": 2.9327,
      "duration": 0.0522,
      "velocity": 99,
      "chip": "ym2612"
    },
    {
      "channel": 3,
      "note": 49,
      "start": 2.936,
      "duration": 0.0493,
      "velocity": 99,
      "chip": "ym2612"
    },
    {
      "channel": 0,
      "note": 33,
      "start": 2.9689,
      "duration": 0.0506,
      "velocity": 127,
      "chip": "ym2612"
    },
    {
      "channel": 4,
      "note": 97,
      "start": 2.9726,
      "duration": 0.0478,
      "velocity": 99,
      "chip": "ym2612"
    },
    {
      "channel": 1,
      "note": 33,
      "start": 3.0041,
      "duration": 0.0505,
      "velocity": 127,
      "chip": "ym2612"
    },
    {
      "channel": 2,
      "note": 98,
      "start": 3.0046,
      "duration": 0.0502,
      "velocity": 99,
      "chip": "ym2612"
    },
    {
      "channel": 3,
      "note": 97,
      "start": 3.0076,
      "duration": 0.0476,
      "velocity": 99,
      "chip": "ym2612"
    },
    {
      "channel": 0,
      "note": 33,
      "start": 3.0387,
      "duration": 0.0505,
      "velocity": 127,
      "chip": "ym2612"
    },
    {
      "channel": 4,
      "note": 98,
      "start": 3.0401,
      "duration": 0.0502,
      "velocity": 99,
      "chip": "ym2612"
    },
    {
      "channel": 1,
      "note": 33,
      "start": 3.0738,
      "duration": 0.0506,
      "velocity": 127,
      "chip": "ym2612"
    },
    {
      "channel": 2,
      "note": 97,
      "start": 3.0744,
      "duration": 0.0503,
      "velocity": 99,
      "chip": "ym2612"
    },
    {
      "channel": 3,
      "note": 98,
      "start": 3.075,
      "duration": 0.05,
      "velocity": 99,
      "chip": "ym2612"
    },
    {
      "channel": 0,
      "note": 33,
      "start": 3.1085,
      "duration": 0.0506,
      "velocity": 127,
      "chip": "ym2612"
    },
    {
      "channel": 4,
      "note": 97,
      "start": 3.1098,
      "duration": 0.0502,
      "velocity": 99,
      "chip": "ym2612"
    },
    {
      "channel": 1,
      "note": 33,
      "start": 3.1437,
      "duration": 0.0508,
      "velocity": 127,
      "chip": "ym2612"
    },
    {
      "channel": 2,
      "note": 98,
      "start": 3.1444,
      "duration": 0.0502,
      "velocity": 99,
      "chip": "ym2612"
    },
    {
      "channel": 3,
      "note": 97,
      "start": 3.1453,
      "duration": 0.05,
      "velocity": 99,
      "chip": "ym2612"
    },
    {
      "channel": 0,
      "note": 33,
      "start": 3.1789,
      "duration": 0.0501,
      "velocity": 127,
      "chip": "ym2612"
    },
    {
      "channel": 4,
      "note": 98,
      "start": 3.1802,
      "duration": 0.0498,
      "velocity": 99,
      "chip": "ym2612"
    },
    {
      "channel": 1,
      "note": 33,
      "start": 3.2139,
      "duration": 0.0502,
      "velocity": 127,
      "chip": "ym2612"
    },
    {
      "channel": 2,
      "note": 97,
      "start": 3.216,
      "duration": 0.0483,
      "velocity": 99,
      "chip": "ym2612"
    },
    {
      "channel": 3,
      "note": 98,
      "start": 3.2166,
      "duration": 0.048,
      "velocity": 99,
      "chip": "ym2612"
    },
    {
      "channel": 0,
      "note": 33,
      "start": 3.2466,
      "duration": 0.0522,
      "velocity": 127,
      "chip": "ym2612"
    },
    {
      "channel": 4,
      "note": 97,
      "start": 3.2478,
      "duration": 0.0519,
      "velocity": 99,
      "chip": "ym2612"
    },
    {
      "channel": 1,
      "note": 33,
      "start": 3.2817,
      "duration": 0.0522,
      "velocity": 127,
      "chip": "ym2612"
    },
    {
      "channel": 2,
      "note": 98,
      "start": 3.2822,
      "duration": 0.052,
      "velocity": 99,
      "chip": "ym2612"
    },
    {
      "channel": 3,
      "note": 97,
      "start": 3.2827,
      "duration": 0.0517,
      "velocity": 99,
      "chip": "ym2612"
    },
    {
      "channel": 0,
      "note": 33,
      "start": 3.318,
      "duration": 0.0505,
      "velocity": 127,
      "chip": "ym2612"
    },
    {
      "channel": 4,
      "note": 98,
      "start": 3.3217,
      "duration": 0.0478,
      "velocity": 99,
      "chip": "ym2612"
    },
    {
      "channel": 1,
      "note": 33,
      "start": 3.3532,
      "duration": 0.0505,
      "velocity": 127,
      "chip": "ym2612"
    },
    {
      "channel": 2,
      "note": 97,
      "start": 3.3537,
      "duration": 0.0502,
      "velocity": 99,
      "chip": "ym2612"
    },
    {
      "channel": 3,
      "note": 98,
      "start": 3.3567,
      "duration": 0.0476,
      "velocity": 99,
      "chip": "ym2612"
    },
    {
      "channel": 0,
      "note": 33,
      "start": 3.3862,
      "duration": 0.0522,
      "velocity": 127,
      "chip": "ym2612"
    },
    {
      "channel": 4,
      "note": 97,
      "start": 3.3875,
      "duration": 0.0519,
      "velocity": 99,
      "chip": "ym2612"
    },
    {
      "channel": 1,
      "note": 33,
      "start": 3.4213,
      "duration": 0.0522,
      "velocity": 127,
      "chip": "ym2612"
    },
    {
      "channel": 2,
      "note": 98,
      "start": 3.4218,
      "duration": 0.0519,
      "velocity": 99,
      "chip": "ym2612"
    },
    {
      "channel": 3,
      "note": 97,
      "start": 3.4224,
      "duration": 0.0516,
      "velocity": 99,
      "chip": "ym2612"
    },
    {
      "channel": 0,
      "note": 33,
      "start": 3.4577,
      "duration": 0.0505,
      "velocity": 127,
      "chip": "ym2612"
    },
    {
      "channel": 4,
      "note": 98,
      "start": 3.459,
      "duration": 0.0502,
      "velocity": 99,
      "chip": "ym2612"
    },
    {
      "channel": 1,
      "note": 33,
      "start": 3.4928,
      "duration": 0.0505,
      "velocity": 127,
      "chip": "ym2612"
    },
    {
      "channel": 2,
      "note": 97,
      "start": 3.4955,
      "duration": 0.0481,
      "velocity": 99,
      "chip": "ym2612"
    },
    {
      "channel": 3,
      "note": 98,
      "start": 3.4961,
      "duration": 0.0478,
      "velocity": 99,
      "chip": "ym2612"
    },
    {
      "channel": 0,
      "note": 33,
      "start": 3.5258,
      "duration": 0.0522,
      "velocity": 127,
      "chip": "ym2612"
    },
    {
      "channel": 4,
      "note": 97,
      "start": 3.5271,
      "duration": 0.0522,
      "velocity": 99,
      "chip": "ym2612"
    },
    {
      "channel": 1,
      "note": 33,
      "start": 3.5612,
      "duration": 0.0519,
      "velocity": 127,
      "chip": "ym2612"
    },
    {
      "channel": 2,
      "note": 98,
      "start": 3.562,
      "duration": 0.0514,
      "velocity": 99,
      "chip": "ym2612"
    },
    {
      "channel": 3,
      "note": 97,
      "start": 3.5626,
      "duration": 0.0511,
      "velocity": 99,
      "chip": "ym2612"
    },
    {
      "channel": 0,
      "note": 33,
      "start": 3.5957,
      "duration": 0.0521,
      "velocity": 127,
      "chip": "ym2612"
    },
    {
      "channel": 4,
      "note": 98,
      "start": 3.5994,
      "duration": 0.0494,
      "velocity": 99,
      "chip": "ym2612"
    },
    {
      "channel": 1,
      "note": 33,
      "start": 3.6308,
      "duration": 0.0522,
      "velocity": 127,
      "chip": "ym2612"
    },
    {
      "channel": 2,
      "note": 97,
      "start": 3.6313,
      "duration": 0.0519,
      "velocity": 99,
      "chip": "ym2612"
    },
    {
      "channel": 3,
      "note": 98,
      "start": 3.6343,
      "duration": 0.0493,
      "velocity": 99,
      "chip": "ym2612"
    },
    {
      "channel": 0,
      "note": 33,
      "start": 3.6672,
      "duration": 0.0505,
      "velocity": 127,
      "chip": "ym2612"
    },
    {
      "channel": 4,
      "note": 97,
      "start": 3.6684,
      "duration": 0.0502,
      "velocity": 99,
      "chip": "ym2612"
    },
    {
      "channel": 1,
      "note": 33,
      "start": 3.7022,
      "duration": 0.0506,
      "velocity": 127,
      "chip": "ym2612"
    },
    {
      "channel": 2,
      "note": 98,
      "start": 3.7044,
      "duration": 0.0487,
      "velocity": 99,
      "chip": "ym2612"
    },
    {
      "channel": 3,
      "note": 97,
      "start": 3.705,
      "duration": 0.0483,
      "velocity": 99,
      "chip": "ym2612"
    },
    {
      "channel": 0,
      "note": 33,
      "start": 3.7353,
      "duration": 0.0522,
      "velocity": 127,
      "chip": "ym2612"
    },
    {
      "channel": 4,
      "note": 98,
      "start": 3.7366,
      "duration": 0.0519,
      "velocity": 99,
      "chip": "ym2612"
    },
    {
      "channel": 1,
      "note": 33,
      "start": 3.7704,
      "duration": 0.0522,
      "velocity": 127,
      "chip": "ym2612"
    },
    {
      "channel": 2,
      "note": 97,
      "start": 3.7709,
      "duration": 0.0519,
      "velocity": 99,
      "chip": "ym2612"
    },
    {
      "channel": 3,
      "note": 98,
      "start": 3.7715,
      "duration": 0.0516,
      "velocity": 99,
      "chip": "ym2612"
    },
    {
      "channel": 0,
      "note": 33,
      "start": 3.8051,
      "duration": 0.0522,
      "velocity": 127,
      "chip": "ym2612"
    },
    {
      "channel": 4,
      "note": 97,
      "start": 3.8088,
      "duration": 0.0495,
      "velocity": 99,
      "chip": "ym2612"
    },
    {
      "channel": 1,
      "note": 33,
      "start": 3.8402,
      "duration": 0.0522,
      "velocity": 127,
      "chip": "ym2612"
    },
    {
      "channel": 2,
      "note": 98,
      "start": 3.8407,
      "duration": 0.0519,
      "velocity": 99,
      "chip": "ym2612"
    },
    {
      "channel": 3,
      "note": 97,
      "start": 3.8437,
      "duration": 0.0493,
      "velocity": 99,
      "chip": "ym2612"
    },
    {
      "channel": 0,
      "note": 33,
      "start": 3.8749,
      "duration": 0.0522,
      "velocity": 127,
      "chip": "ym2612"
    },
    {
      "channel": 4,
      "note": 98,
      "start": 3.8762,
      "duration": 0.0525,
      "velocity": 99,
      "chip": "ym2612"
    },
    {
      "channel": 1,
      "note": 33,
      "start": 3.91,
      "duration": 0.0524,
      "velocity": 127,
      "chip": "ym2612"
    },
    {
      "channel": 2,
      "note": 97,
      "start": 3.9127,
      "duration": 0.0499,
      "velocity": 99,
      "chip": "ym2612"
    },
    {
      "channel": 3,
      "note": 98,
      "start": 3.9133,
      "duration": 0.0496,
      "velocity": 99,
      "chip": "ym2612"
    },
    {
      "channel": 0,
      "note": 33,
      "start": 3.9468,
      "duration": 0.0501,
      "velocity": 127,
      "chip": "ym2612"
    },
    {
      "channel": 4,
      "note": 97,
      "start": 3.9481,
      "duration": 0.0499,
      "velocity": 99,
      "chip": "ym2612"
    },
    {
      "channel": 1,
      "note": 33,
      "start": 3.9815,
      "duration": 0.0505,
      "velocity": 127,
      "chip": "ym2612"
    },
    {
      "channel": 2,
      "note": 98,
      "start": 3.982,
      "duration": 0.0502,
      "velocity": 99,
      "chip": "ym2612"
    },
    {
      "channel": 3,
      "note": 97,
      "start": 3.9827,
      "duration": 0.0499,
      "velocity": 99,
      "chip": "ym2612"
    },
    {
      "channel": 0,
      "note": 33,
      "start": 4.0146,
      "duration": 0.0522,
      "velocity": 127,
      "chip": "ym2612"
    },
    {
      "channel": 4,
      "note": 98,
      "start": 4.0183,
      "duration": 0.0495,
      "velocity": 99,
      "chip": "ym2612"
    },
    {
      "channel": 1,
      "note": 33,
      "start": 4.0497,
      "duration": 0.0522,
      "velocity": 127,
      "chip": "ym2612"
    },
    {
      "channel": 2,
      "note": 97,
      "start": 4.0502,
      "duration": 0.052,
      "velocity": 99,
      "chip": "ym2612"
    },
    {
      "channel": 3,
      "note": 98,
      "start": 4.0532,
      "duration": 0.0493,
      "velocity": 99,
      "chip": "ym2612"
    },
    {
      "channel": 0,
      "note": 33,
      "start": 4.0844,
      "duration": 0.0522,
      "velocity": 127,
      "chip": "ym2612"
    },
    {
      "channel": 4,
      "note": 97,
      "start": 4.0857,
      "duration": 0.0519,
      "velocity": 99,
      "chip": "ym2612"
    },
    {
      "channel": 1,
      "note": 33,
      "start": 4.1195,
      "duration": 0.0522,
      "velocity": 127,
      "chip": "ym2612"
    },
    {
      "channel": 2,
      "note": 98,
      "start": 4.12,
      "duration": 0.0519,
      "velocity": 99,
      "chip": "ym2612"
    },
    {
      "channel": 3,
      "note": 97,
      "start": 4.1206,
      "duration": 0.0517,
      "velocity": 99,
      "chip": "ym2612"
    },
    {
      "channel": 0,
      "note": 33,
      "start": 4.1542,
      "duration": 0.0522,
      "velocity": 127,
      "chip": "ym2612"
    },
    {
      "channel": 4,
      "note": 98,
      "start": 4.1555,
      "duration": 0.0519,
      "velocity": 99,
      "chip": "ym2612"
    },
    {
      "channel": 1,
      "note": 33,
      "start": 4.1894,
      "duration": 0.0522,
      "velocity": 127,
      "chip": "ym2612"
    },
    {
      "channel": 2,
      "note": 97,
      "start": 4.1898,
      "duration": 0.052,
      "velocity": 99,
      "chip": "ym2612"
    },
    {
      "channel": 3,
      "note": 98,
      "start": 4.1904,
      "duration": 0.0517,
      "velocity": 99,
      "chip": "ym2612"
    },
    {
      "channel": 0,
      "note": 33,
      "start": 4.2257,
      "duration": 0.2251,
      "velocity": 127,
      "chip": "ym2612"
    },
    {
      "channel": 4,
      "note": 97,
      "start": 4.227,
      "duration": 0.0502,
      "velocity": 99,
      "chip": "ym2612"
    },
    {
      "channel": 1,
      "note": 33,
      "start": 4.2611,
      "duration": 0.2247,
      "velocity": 127,
      "chip": "ym2612"
    },
    {
      "channel": 2,
      "note": 98,
      "start": 4.2616,
      "duration": 0.0504,
      "velocity": 99,
      "chip": "ym2612"
    },
    {
      "channel": 3,
      "note": 97,
      "start": 4.2626,
      "duration": 0.0498,
      "velocity": 99,
      "chip": "ym2612"
    },
    {
      "channel": 4,
      "note": 98,
      "start": 4.2954,
      "duration": 0.0517,
      "velocity": 99,
      "chip": "ym2612"
    },
    {
      "channel": 2,
      "note": 97,
      "start": 4.3311,
      "duration": 0.0502,
      "velocity": 99,
      "chip": "ym2612"
    },
    {
      "channel": 3,
      "note": 98,
      "start": 4.3317,
      "duration": 0.05,
      "velocity": 99,
      "chip": "ym2612"
    },
    {
      "channel": 4,
      "note": 97,
      "start": 4.3647,
      "duration": 0.0521,
      "velocity": 99,
      "chip": "ym2612"
    },
    {
      "channel": 2,
      "note": 98,
      "start": 4.399,
      "duration": 0.0522,
      "velocity": 99,
      "chip": "ym2612"
    },
    {
      "channel": 3,
      "note": 97,
      "start": 4.3996,
      "duration": 0.0519,
      "velocity": 99,
      "chip": "ym2612"
    },
    {
      "channel": 4,
      "note": 98,
      "start": 4.4369,
      "duration": 0.0498,
      "velocity": 99,
      "chip": "ym2612"
    },
    {
      "channel": 2,
      "note": 97,
      "start": 4.4689,
      "duration": 0.0521,
      "velocity": 99,
      "chip": "ym2612"
    },
    {
      "channel": 3,
      "note": 98,
      "start": 4.4719,
      "duration": 0.0494,
      "velocity": 99,
      "chip": "ym2612"
    },
    {
      "channel": 4,
      "note": 97,
      "start": 4.5045,
      "duration": 0.052,
      "velocity": 99,
      "chip": "ym2612"
    },
    {
      "channel": 2,
      "note": 98,
      "start": 4.5403,
      "duration": 0.0505,
      "velocity": 99,
      "chip": "ym2612"
    },
    {
      "channel": 3,
      "note": 97,
      "start": 4.541,
      "duration": 0.0502,
      "velocity": 99,
      "chip": "ym2612"
    },
    {
      "channel": 4,
      "note": 98,
      "start": 4.5741,
      "duration": 0.0521,
      "velocity": 99,
      "chip": "ym2612"
    },
    {
      "channel": 2,
      "note": 97,
      "start": 4.6085,
      "duration": 0.0522,
      "velocity": 99,
      "chip": "ym2612"
    },
    {
      "channel": 3,
      "note": 98,
      "start": 4.6091,
      "duration": 0.0522,
      "velocity": 99,
      "chip": "ym2612"
    },
    {
      "channel": 4,
      "note": 97,
      "start": 4.6469,
      "duration": 0.0494,
      "velocity": 99,
      "chip": "ym2612"
    },
    {
      "channel": 2,
      "note": 98,
      "start": 4.6788,
      "duration": 0.0517,
      "velocity": 99,
      "chip": "ym2612"
    },
    {
      "channel": 3,
      "note": 97,
      "start": 4.6818,
      "duration": 0.049,
      "velocity": 99,
      "chip": "ym2612"
    },
    {
      "channel": 4,
      "note": 98,
      "start": 4.7138,
      "duration": 0.0522,
      "velocity": 99,
      "chip": "ym2612"
    },
    {
      "channel": 2,
      "note": 97,
      "start": 4.7498,
      "duration": 0.0505,
      "velocity": 99,
      "chip": "ym2612"
    },
    {
      "channel": 3,
      "note": 98,
      "start": 4.7504,
      "duration": 0.0502,
      "velocity": 99,
      "chip": "ym2612"
    },
    {
      "channel": 4,
      "note": 97,
      "start": 4.7836,
      "duration": 0.0522,
      "velocity": 99,
      "chip": "ym2612"
    },
    {
      "channel": 2,
      "note": 98,
      "start": 4.818,
      "duration": 0.0522,
      "velocity": 99,
      "chip": "ym2612"
    },
    {
      "channel": 3,
      "note": 97,
      "start": 4.8185,
      "duration": 0.0519,
      "velocity": 99,
      "chip": "ym2612"
    },
    {
      "channel": 4,
      "note": 98,
      "start": 4.8559,
      "duration": 0.0498,
      "velocity": 99,
      "chip": "ym2612"
    },
    {
      "channel": 2,
      "note": 97,
      "start": 4.8878,
      "duration": 0.0522,
      "velocity": 99,
      "chip": "ym2612"
    },
    {
      "channel": 3,
      "note": 98,
      "start": 4.8908,
      "duration": 0.0495,
      "velocity": 99,
      "chip": "ym2612"
    },
    {
      "channel": 4,
      "note": 97,
      "start": 4.9233,
      "duration": 0.0522,
      "velocity": 99,
      "chip": "ym2612"
    },
    {
      "channel": 2,
      "note": 98,
      "start": 4.9593,
      "duration": 0.0505,
      "velocity": 99,
      "chip": "ym2612"
    },
    {
      "channel": 3,
      "note": 97,
      "start": 4.9599,
      "duration": 0.0502,
      "velocity": 99,
      "chip": "ym2612"
    },
    {
      "channel": 4,
      "note": 98,
      "start": 4.9932,
      "duration": 0.0527,
      "velocity": 99,
      "chip": "ym2612"
    },
    {
      "channel": 2,
      "note": 97,
      "start": 5.0278,
      "duration": 0.052,
      "velocity": 99,
      "chip": "ym2612"
    },
    {
      "channel": 3,
      "note": 98,
      "start": 5.0286,
      "duration": 0.0514,
      "velocity": 99,
      "chip": "ym2612"
    },
    {
      "channel": 4,
      "note": 97,
      "start": 5.0656,
      "duration": 0.0495,
      "velocity": 99,
      "chip": "ym2612"
    },
    {
      "channel": 2,
      "note": 98,
      "start": 5.0973,
      "duration": 0.0522,
      "velocity": 99,
      "chip": "ym2612"
    },
    {
      "channel": 3,
      "note": 97,
      "start": 5.1003,
      "duration": 0.0495,
      "velocity": 99,
      "chip": "ym2612"
    },
    {
      "channel": 4,
      "note": 98,
      "start": 5.1328,
      "duration": 0.0522,
      "velocity": 99,
      "chip": "ym2612"
    },
    {
      "channel": 2,
      "note": 97,
      "start": 5.1671,
      "duration": 0.0523,
      "velocity": 99,
      "chip": "ym2612"
    },
    {
      "channel": 3,
      "note": 98,
      "start": 5.1677,
      "duration": 0.0519,
      "velocity": 99,
      "chip": "ym2612"
    },
    {
      "channel": 4,
      "note": 97,
      "start": 5.2026,
      "duration": 0.0522,
      "velocity": 99,
      "chip": "ym2612"
    },
    {
      "channel": 2,
      "note": 98,
      "start": 5.2386,
      "duration": 0.0506,
      "velocity": 99,
      "chip": "ym2612"
    },
    {
      "channel": 3,
      "note": 97,
      "start": 5.2392,
      "duration": 0.0503,
      "velocity": 99,
      "chip": "ym2612"
    },
    {
      "channel": 4,
      "note": 98,
      "start": 5.2724,
      "duration": 0.0522,
      "velocity": 99,
      "chip": "ym2612"
    },
    {
      "channel": 2,
      "note": 97,
      "start": 5.3068,
      "duration": 0.0522,
      "velocity": 99,
      "chip": "ym2612"
    },
    {
      "channel": 3,
      "note": 98,
      "start": 5.3098,
      "duration": 0.0494,
      "velocity": 99,
      "chip": "ym2612"
    },
    {
      "channel": 4,
      "note": 97,
      "start": 5.3452,
      "duration": 0.0495,
      "velocity": 99,
      "chip": "ym2612"
    },
    {
      "channel": 2,
      "note": 98,
      "start": 5.3766,
      "duration": 0.0525,
      "velocity": 99,
      "chip": "ym2612"
    },
    {
      "channel": 3,
      "note": 97,
      "start": 5.3772,
      "duration": 0.0522,
      "velocity": 99,
      "chip": "ym2612"
    },
    {
      "channel": 4,
      "note": 98,
      "start": 5.4126,
      "duration": 0.0516,
      "velocity": 99,
      "chip": "ym2612"
    },
    {
      "channel": 2,
      "note": 97,
      "start": 5.4464,
      "duration": 0.0522,
      "velocity": 99,
      "chip": "ym2612"
    },
    {
      "channel": 3,
      "note": 98,
      "start": 5.4471,
      "duration": 0.0519,
      "velocity": 99,
      "chip": "ym2612"
    },
    {
      "channel": 4,
      "note": 97,
      "start": 5.4819,
      "duration": 0.0521,
      "velocity": 99,
      "chip": "ym2612"
    },
    {
      "channel": 2,
      "note": 98,
      "start": 5.5163,
      "duration": 0.0523,
      "velocity": 99,
      "chip": "ym2612"
    },
    {
      "channel": 3,
      "note": 97,
      "start": 5.5193,
      "duration": 0.0496,
      "velocity": 99,
      "chip": "ym2612"
    },
    {
      "channel": 0,
      "note": 50,
      "start": 5.5877,
      "duration": 0.6784,
      "velocity": 102,
      "chip": "ym2612"
    },
    {
      "channel": 1,
      "note": 62,
      "start": 5.5904,
      "duration": 0.676,
      "velocity": 107,
      "chip": "ym2612"
    },
    {
      "channel": 3,
      "note": 98,
      "start": 5.7294,
      "duration": 0.677,
      "velocity": 102,
      "chip": "ym2612"
    },
    {
      "channel": 0,
      "note": 49,
      "start": 6.2838,
      "duration": 0.6806,
      "velocity": 102,
      "chip": "ym2612"
    },
    {
      "channel": 1,
      "note": 61,
      "start": 6.2843,
      "duration": 0.6803,
      "velocity": 107,
      "chip": "ym2612"
    },
    {
      "channel": 3,
      "note": 50,
      "start": 6.4244,
      "duration": 0.6803,
      "velocity": 102,
      "chip": "ym2612"
    },
    {
      "channel": 0,
      "note": 52,
      "start": 6.982,
      "duration": 0.6806,
      "velocity": 102,
      "chip": "ym2612"
    },
    {
      "channel": 1,
      "note": 64,
      "start": 6.9825,
      "duration": 0.6803,
      "velocity": 107,
      "chip": "ym2612"
    },
    {
      "channel": 3,
      "note": 49,
      "start": 7.1226,
      "duration": 0.6803,
      "velocity": 102,
      "chip": "ym2612"
    },
    {
      "channel": 0,
      "note": 49,
      "start": 7.6802,
      "duration": 0.6808,
      "velocity": 102,
      "chip": "ym2612"
    },
    {
      "channel": 1,
      "note": 61,
      "start": 7.6807,
      "duration": 0.6807,
      "velocity": 107,
      "chip": "ym2612"
    },
    {
      "channel": 3,
      "note": 52,
      "start": 7.8208,
      "duration": 0.6803,
      "velocity": 102,
      "chip": "ym2612"
    },
    {
      "channel": 0,
      "note": 33,
      "start": 8.3804,
      "duration": 0.1549,
      "velocity": 127,
      "chip": "ym2612"
    },
    {
      "channel": 1,
      "note": 33,
      "start": 8.3827,
      "duration": 0.1878,
      "velocity": 127,
      "chip": "ym2612"
    },
    {
      "channel": 2,
      "note": 97,
      "start": 8.3849,
      "duration": 0.0462,
      "velocity": 99,
      "chip": "ym2612"
    },
    {
      "channel": 2,
      "note": 98,
      "start": 8.4503,
      "duration": 0.0505,
      "velocity": 99,
      "chip": "ym2612"
    },
    {
      "channel": 4,
      "note": 98,
      "start": 8.4866,
      "duration": 0.0497,
      "velocity": 99,
      "chip": "ym2612"
    },
    {
      "channel": 2,
      "note": 97,
      "start": 8.5185,
      "duration": 0.0522,
      "velocity": 99,
      "chip": "ym2612"
    },
    {
      "channel": 3,
      "note": 49,
      "start": 8.5217,
      "duration": 0.0493,
      "velocity": 99,
      "chip": "ym2612"
    },
    {
      "channel": 0,
      "note": 33,
      "start": 8.5546,
      "duration": 0.0505,
      "velocity": 127,
      "chip": "ym2612"
    },
    {
      "channel": 4,
      "note": 97,
      "start": 8.5584,
      "duration": 0.0478,
      "velocity": 99,
      "chip": "ym2612"
    },
    {
      "channel": 1,
      "note": 33,
      "start": 8.5898,
      "duration": 0.0505,
      "velocity": 127,
      "chip": "ym2612"
    },
    {
      "channel": 2,
      "note": 98,
      "start": 8.5902,
      "duration": 0.0502,
      "velocity": 99,
      "chip": "ym2612"
    },
    {
      "channel": 3,
      "note": 97,
      "start": 8.5932,
      "duration": 0.0476,
      "velocity": 99,
      "chip": "ym2612"
    },
    {
      "channel": 0,
      "note": 33,
      "start": 8.6245,
      "duration": 0.0505,
      "velocity": 127,
      "chip": "ym2612"
    },
    {
      "channel": 4,
      "note": 98,
      "start": 8.6257,
      "duration": 0.0503,
      "velocity": 99,
      "chip": "ym2612"
    },
    {
      "channel": 1,
      "note": 33,
      "start": 8.6596,
      "duration": 0.0505,
      "velocity": 127,
      "chip": "ym2612"
    },
    {
      "channel": 2,
      "note": 97,
      "start": 8.6601,
      "duration": 0.0502,
      "velocity": 99,
      "chip": "ym2612"
    },
    {
      "channel": 3,
      "note": 98,
      "start": 8.6607,
      "duration": 0.05,
      "velocity": 99,
      "chip": "ym2612"
    },
    {
      "channel": 0,
      "note": 33,
      "start": 8.6946,
      "duration": 0.0502,
      "velocity": 127,
      "chip": "ym2612"
    },
    {
      "channel": 4,
      "note": 97,
      "start": 8.6961,
      "duration": 0.0499,
      "velocity": 99,
      "chip": "ym2612"
    },
    {
      "channel": 1,
      "note": 33,
      "start": 8.73,
      "duration": 0.0499,
      "velocity": 127,
      "chip": "ym2612"
    },
    {
      "channel": 2,
      "note": 98,
      "start": 8.7305,
      "duration": 0.0497,
      "velocity": 99,
      "chip": "ym2612"
    },
    {
      "channel": 3,
      "note": 97,
      "start": 8.731,
      "duration": 0.0494,
      "velocity": 99,
      "chip": "ym2612"
    },
    {
      "channel": 0,
      "note": 33,
      "start": 8.7641,
      "duration": 0.0505,
      "velocity": 127,
      "chip": "ym2612"
    },
    {
      "channel": 4,
      "note": 98,
      "start": 8.7654,
      "duration": 0.0502,
      "velocity": 99,
      "chip": "ym2612"
    },
    {
      "channel": 1,
      "note": 33,
      "start": 8.7993,
      "duration": 0.0504,
      "velocity": 127,
      "chip": "ym2612"
    },
    {
      "channel": 2,
      "note": 97,
      "start": 8.8015,
      "duration": 0.0485,
      "velocity": 99,
      "chip": "ym2612"
    },
    {
      "channel": 3,
      "note": 98,
      "start": 8.8021,
      "duration": 0.0482,
      "velocity": 99,
      "chip": "ym2612"
    },
    {
      "channel": 0,
      "note": 33,
      "start": 8.8322,
      "duration": 0.0522,
      "velocity": 127,
      "chip": "ym2612"
    },
    {
      "channel": 4,
      "note": 97,
      "start": 8.8336,
      "duration": 0.0519,
      "velocity": 99,
      "chip": "ym2612"
    },
    {
      "channel": 1,
      "note": 33,
      "start": 8.8673,
      "duration": 0.0522,
      "velocity": 127,
      "chip": "ym2612"
    },
    {
      "channel": 2,
      "note": 98,
      "start": 8.8679,
      "duration": 0.052,
      "velocity": 99,
      "chip": "ym2612"
    },
    {
      "channel": 3,
      "note": 97,
      "start": 8.8685,
      "duration": 0.0516,
      "velocity": 99,
      "chip": "ym2612"
    },
    {
      "channel": 0,
      "note": 33,
      "start": 8.9037,
      "duration": 0.0505,
      "velocity": 127,
      "chip": "ym2612"
    },
    {
      "channel": 4,
      "note": 98,
      "start": 8.9075,
      "duration": 0.0478,
      "velocity": 99,
      "chip": "ym2612"
    },
    {
      "channel": 1,
      "note": 33,
      "start": 8.9388,
      "duration": 0.0505,
      "velocity": 127,
      "chip": "ym2612"
    },
    {
      "channel": 2,
      "note": 97,
      "start": 8.9394,
      "duration": 0.0502,
      "velocity": 99,
      "chip": "ym2612"
    },
    {
      "channel": 3,
      "note": 98,
      "start": 8.9424,
      "duration": 0.0476,
      "velocity": 99,
      "chip": "ym2612"
    },
    {
      "channel": 0,
      "note": 33,
      "start": 8.9719,
      "duration": 0.0522,
      "velocity": 127,
      "chip": "ym2612"
    },
    {
      "channel": 4,
      "note": 97,
      "start": 8.9732,
      "duration": 0.0519,
      "velocity": 99,
      "chip": "ym2612"
    },
    {
      "channel": 1,
      "note": 33,
      "start": 9.007,
      "duration": 0.0522,
      "velocity": 127,
      "chip": "ym2612"
    },
    {
      "channel": 2,
      "note": 98,
      "start": 9.0075,
      "duration": 0.052,
      "velocity": 99,
      "chip": "ym2612"
    },
    {
      "channel": 3,
      "note": 97,
      "start": 9.0081,
      "duration": 0.0517,
      "velocity": 99,
      "chip": "ym2612"
    },
    {
      "channel": 0,
      "note": 33,
      "start": 9.0434,
      "duration": 0.0505,
      "velocity": 127,
      "chip": "ym2612"
    },
    {
      "channel": 4,
      "note": 98,
      "start": 9.0451,
      "duration": 0.0502,
      "velocity": 99,
      "chip": "ym2612"
    },
    {
      "channel": 1,
      "note": 33,
      "start": 9.079,
      "duration": 0.0501,
      "velocity": 127,
      "chip": "ym2612"
    },
    {
      "channel": 2,
      "note": 97,
      "start": 9.0812,
      "duration": 0.0482,
      "velocity": 99,
      "chip": "ym2612"
    },
    {
      "channel": 3,
      "note": 98,
      "start": 9.0818,
      "duration": 0.0479,
      "velocity": 99,
      "chip": "ym2612"
    },
    {
      "channel": 0,
      "note": 33,
      "start": 9.1116,
      "duration": 0.0522,
      "velocity": 127,
      "chip": "ym2612"
    },
    {
      "channel": 4,
      "note": 97,
      "start": 9.1131,
      "duration": 0.0517,
      "velocity": 99,
      "chip": "ym2612"
    },
    {
      "channel": 1,
      "note": 33,
      "start": 9.1467,
      "duration": 0.0522,
      "velocity": 127,
      "chip": "ym2612"
    },
    {
      "channel": 2,
      "note": 98,
      "start": 9.1472,
      "duration": 0.0519,
      "velocity": 99,
      "chip": "ym2612"
    },
    {
      "channel": 3,
      "note": 97,
      "start": 9.1478,
      "duration": 0.0517,
      "velocity": 99,
      "chip": "ym2612"
    },
    {
      "channel": 0,
      "note": 33,
      "start": 9.1813,
      "duration": 0.0522,
      "velocity": 127,
      "chip": "ym2612"
    },
    {
      "channel": 4,
      "note": 98,
      "start": 9.185,
      "duration": 0.0495,
      "velocity": 99,
      "chip": "ym2612"
    },
    {
      "channel": 1,
      "note": 33,
      "start": 9.2165,
      "duration": 0.0522,
      "velocity": 127,
      "chip": "ym2612"
    },
    {
      "channel": 2,
      "note": 97,
      "start": 9.217,
      "duration": 0.052,
      "velocity": 99,
      "chip": "ym2612"
    },
    {
      "channel": 3,
      "note": 98,
      "start": 9.22,
      "duration": 0.0492,
      "velocity": 99,
      "chip": "ym2612"
    },
    {
      "channel": 0,
      "note": 33,
      "start": 9.2528,
      "duration": 0.0505,
      "velocity": 127,
      "chip": "ym2612"
    },
    {
      "channel": 4,
      "note": 97,
      "start": 9.2542,
      "duration": 0.0502,
      "velocity": 99,
      "chip": "ym2612"
    },
    {
      "channel": 1,
      "note": 33,
      "start": 9.288,
      "duration": 0.0505,
      "velocity": 127,
      "chip": "ym2612"
    },
    {
      "channel": 2,
      "note": 98,
      "start": 9.2901,
      "duration": 0.0486,
      "velocity": 99,
      "chip": "ym2612"
    },
    {
      "channel": 3,
      "note": 97,
      "start": 9.2907,
      "duration": 0.0483,
      "velocity": 99,
      "chip": "ym2612"
    },
    {
      "channel": 0,
      "note": 33,
      "start": 9.321,
      "duration": 0.0522,
      "velocity": 127,
      "chip": "ym2612"
    },
    {
      "channel": 4,
      "note": 98,
      "start": 9.3223,
      "duration": 0.0519,
      "velocity": 99,
      "chip": "ym2612"
    },
    {
      "channel": 1,
      "note": 33,
      "start": 9.3561,
      "duration": 0.0522,
      "velocity": 127,
      "chip": "ym2612"
    },
    {
      "channel": 2,
      "note": 97,
      "start": 9.3566,
      "duration": 0.052,
      "velocity": 99,
      "chip": "ym2612"
    },
    {
      "channel": 3,
      "note": 98,
      "start": 9.3572,
      "duration": 0.0517,
      "velocity": 99,
      "chip": "ym2612"
    },
    {
      "channel": 0,
      "note": 33,
      "start": 9.3908,
      "duration": 0.0522,
      "velocity": 127,
      "chip": "ym2612"
    },
    {
      "channel": 4,
      "note": 97,
      "start": 9.3948,
      "duration": 0.0492,
      "velocity": 99,
      "chip": "ym2612"
    },
    {
      "channel": 1,
      "note": 33,
      "start": 9.4259,
      "duration": 0.0526,
      "velocity": 127,
      "chip": "ym2612"
    },
    {
      "channel": 2,
      "note": 98,
      "start": 9.4264,
      "duration": 0.0524,
      "velocity": 99,
      "chip": "ym2612"
    },
    {
      "channel": 3,
      "note": 97,
      "start": 9.43,
      "duration": 0.049,
      "velocity": 99,
      "chip": "ym2612"
    },
    {
      "channel": 0,
      "note": 33,
      "start": 9.4607,
      "duration": 0.0522,
      "velocity": 127,
      "chip": "ym2612"
    },
    {
      "channel": 4,
      "note": 98,
      "start": 9.4624,
      "duration": 0.0514,
      "velocity": 99,
      "chip": "ym2612"
    },
    {
      "channel": 1,
      "note": 33,
      "start": 9.496,
      "duration": 0.052,
      "velocity": 127,
      "chip": "ym2612"
    },
    {
      "channel": 2,
      "note": 97,
      "start": 9.4981,
      "duration": 0.0501,
      "velocity": 99,
      "chip": "ym2612"
    },
    {
      "channel": 3,
      "note": 98,
      "start": 9.4987,
      "duration": 0.0498,
      "velocity": 99,
      "chip": "ym2612"
    },
    {
      "channel": 0,
      "note": 33,
      "start": 9.5321,
      "duration": 0.0506,
      "velocity": 127,
      "chip": "ym2612"
    },
    {
      "channel": 4,
      "note": 97,
      "start": 9.5334,
      "duration": 0.0502,
      "velocity": 99,
      "chip": "ym2612"
    },
    {
      "channel": 1,
      "note": 33,
      "start": 9.5673,
      "duration": 0.0505,
      "velocity": 127,
      "chip": "ym2612"
    },
    {
      "channel": 2,
      "note": 98,
      "start": 9.5678,
      "duration": 0.0502,
      "velocity": 99,
      "chip": "ym2612"
    },
    {
      "channel": 3,
      "note": 97,
      "start": 9.5684,
      "duration": 0.05,
      "velocity": 99,
      "chip": "ym2612"
    },
    {
      "channel": 0,
      "note": 33,
      "start": 9.6003,
      "duration": 0.0522,
      "velocity": 127,
      "chip": "ym2612"
    },
    {
      "channel": 4,
      "note": 98,
      "start": 9.604,
      "duration": 0.0495,
      "velocity": 99,
      "chip": "ym2612"
    },
    {
      "channel": 1,
      "note": 33,
      "start": 9.6354,
      "duration": 0.0522,
      "velocity": 127,
      "chip": "ym2612"
    },
    {
      "channel": 2,
      "note": 97,
      "start": 9.6359,
      "duration": 0.0519,
      "velocity": 99,
      "chip": "ym2612"
    },
    {
      "channel": 3,
      "note": 98,
      "start": 9.6389,
      "duration": 0.0492,
      "velocity": 99,
      "chip": "ym2612"
    },
    {
      "channel": 0,
      "note": 33,
      "start": 9.6701,
      "duration": 0.0522,
      "velocity": 127,
      "chip": "ym2612"
    },
    {
      "channel": 4,
      "note": 97,
      "start": 9.6714,
      "duration": 0.0519,
      "velocity": 99,
      "chip": "ym2612"
    },
    {
      "channel": 1,
      "note": 33,
      "start": 9.7053,
      "duration": 0.0521,
      "velocity": 127,
      "chip": "ym2612"
    },
    {
      "channel": 2,
      "note": 98,
      "start": 9.7058,
      "duration": 0.0519,
      "velocity": 99,
      "chip": "ym2612"
    },
    {
      "channel": 3,
      "note": 97,
      "start": 9.7063,
      "duration": 0.0516,
      "velocity": 99,
      "chip": "ym2612"
    },
    {
      "channel": 0,
      "note": 33,
      "start": 9.7399,
      "duration": 0.0522,
      "velocity": 127,
      "chip": "ym2612"
    },
    {
      "channel": 4,
      "note": 98,
      "start": 9.7413,
      "duration": 0.0518,
      "velocity": 99,
      "chip": "ym2612"
    },
    {
      "channel": 1,
      "note": 33,
      "start": 9.7751,
      "duration": 0.0522,
      "velocity": 127,
      "chip": "ym2612"
    },
    {
      "channel": 2,
      "note": 97,
      "start": 9.7756,
      "duration": 0.0522,
      "velocity": 99,
      "chip": "ym2612"
    },
    {
      "channel": 3,
      "note": 98,
      "start": 9.7762,
      "duration": 0.0518,
      "velocity": 99,
      "chip": "ym2612"
    },
    {
      "channel": 0,
      "note": 33,
      "start": 9.812,
      "duration": 0.2245,
      "velocity": 127,
      "chip": "ym2612"
    },
    {
      "channel": 4,
      "note": 97,
      "start": 9.8133,
      "duration": 0.0499,
      "velocity": 99,
      "chip": "ym2612"
    },
    {
      "channel": 1,
      "note": 33,
      "start": 9.847,
      "duration": 0.2246,
      "velocity": 127,
      "chip": "ym2612"
    },
    {
      "channel": 2,
      "note": 98,
      "start": 9.8475,
      "duration": 0.0498,
      "velocity": 99,
      "chip": "ym2612"
    },
    {
      "channel": 3,
      "note": 97,
      "start": 9.8483,
      "duration": 0.0493,
      "velocity": 99,
      "chip": "ym2612"
    },
    {
      "channel": 4,
      "note": 98,
      "start": 9.8806,
      "duration": 0.0522,
      "velocity": 99,
      "chip": "ym2612"
    },
    {
      "channel": 2,
      "note": 97,
      "start": 9.9166,
      "duration": 0.0505,
      "velocity": 99,
      "chip": "ym2612"
    },
    {
      "channel": 3,
      "note": 98,
      "start": 9.9172,
      "duration": 0.0502,
      "velocity": 99,
      "chip": "ym2612"
    },
    {
      "channel": 4,
      "note": 97,
      "start": 9.9504,
      "duration": 0.0522,
      "velocity": 99,
      "chip": "ym2612"
    },
    {
      "channel": 2,
      "note": 98,
      "start": 9.9847,
      "duration": 0.0522,
      "velocity": 99,
      "chip": "ym2612"
    },
    {
      "channel": 3,
      "note": 97,
      "start": 9.9854,
      "duration": 0.0519,
      "velocity": 99,
      "chip": "ym2612"
    },
    {
      "channel": 4,
      "note": 98,
      "start": 10.0227,
      "duration": 0.0497,
      "velocity": 99,
      "chip": "ym2612"
    },
    {
      "channel": 2,
      "note": 97,
      "start": 10.0547,
      "duration": 0.052,
      "velocity": 99,
      "chip": "ym2612"
    },
    {
      "channel": 3,
      "note": 98,
      "start": 10.0577,
      "duration": 0.0494,
      "velocity": 99,
      "chip": "ym2612"
    },
    {
      "channel": 4,
      "note": 97,
      "start": 10.0902,
      "duration": 0.052,
      "velocity": 99,
      "chip": "ym2612"
    },
    {
      "channel": 2,
      "note": 98,
      "start": 10.126,
      "duration": 0.0506,
      "velocity": 99,
      "chip": "ym2612"
    },
    {
      "channel": 3,
      "note": 97,
      "start": 10.1266,
      "duration": 0.0502,
      "velocity": 99,
      "chip": "ym2612"
    },
    {
      "channel": 4,
      "note": 98,
      "start": 10.1599,
      "duration": 0.0526,
      "velocity": 99,
      "chip": "ym2612"
    },
    {
      "channel": 2,
      "note": 97,
      "start": 10.1945,
      "duration": 0.0518,
      "velocity": 99,
      "chip": "ym2612"
    },
    {
      "channel": 3,
      "note": 98,
      "start": 10.1953,
      "duration": 0.0513,
      "velocity": 99,
      "chip": "ym2612"
    },
    {
      "channel": 4,
      "note": 97,
      "start": 10.2324,
      "duration": 0.0495,
      "velocity": 99,
      "chip": "ym2612"
    },
    {
      "channel": 2,
      "note": 98,
      "start": 10.264,
      "duration": 0.0522,
      "velocity": 99,
      "chip": "ym2612"
    },
    {
      "channel": 3,
      "note": 97,
      "start": 10.267,
      "duration": 0.0495,
      "velocity": 99,
      "chip": "ym2612"
    },
    {
      "channel": 4,
      "note": 98,
      "start": 10.2995,
      "duration": 0.0522,
      "velocity": 99,
      "chip": "ym2612"
    },
    {
      "channel": 2,
      "note": 97,
      "start": 10.3355,
      "duration": 0.0505,
      "velocity": 99,
      "chip": "ym2612"
    },
    {
      "channel": 3,
      "note": 98,
      "start": 10.3361,
      "duration": 0.0502,
      "velocity": 99,
      "chip": "ym2612"
    },
    {
      "channel": 4,
      "note": 97,
      "start": 10.3694,
      "duration": 0.0521,
      "velocity": 99,
      "chip": "ym2612"
    },
    {
      "channel": 2,
      "note": 98,
      "start": 10.4037,
      "duration": 0.0522,
      "velocity": 99,
      "chip": "ym2612"
    },
    {
      "channel": 3,
      "note": 97,
      "start": 10.4042,
      "duration": 0.0519,
      "velocity": 99,
      "chip": "ym2612"
    },
    {
      "channel": 4,
      "note": 98,
      "start": 10.4416,
      "duration": 0.0498,
      "velocity": 99,
      "chip": "ym2612"
    },
    {
      "channel": 2,
      "note": 97,
      "start": 10.4735,
      "duration": 0.0522,
      "velocity": 99,
      "chip": "ym2612"
    },
    {
      "channel": 3,
      "note": 98,
      "start": 10.4765,
      "duration": 0.0495,
      "velocity": 99,
      "chip": "ym2612"
    },
    {
      "channel": 4,
      "note": 97,
      "start": 10.5091,
      "duration": 0.0524,
      "velocity": 99,
      "chip": "ym2612"
    },
    {
      "channel": 2,
      "note": 98,
      "start": 10.5456,
      "duration": 0.0502,
      "velocity": 99,
      "chip": "ym2612"
    },
    {
      "channel": 3,
      "note": 97,
      "start": 10.5462,
      "duration": 0.0499,
      "velocity": 99,
      "chip": "ym2612"
    },
    {
      "channel": 4,
      "note": 98,
      "start": 10.5794,
      "duration": 0.0517,
      "velocity": 99,
      "chip": "ym2612"
    },
    {
      "channel": 2,
      "note": 97,
      "start": 10.6132,
      "duration": 0.0522,
      "velocity": 99,
      "chip": "ym2612"
    },
    {
      "channel": 3,
      "note": 98,
      "start": 10.6139,
      "duration": 0.0518,
      "velocity": 99,
      "chip": "ym2612"
    },
    {
      "channel": 4,
      "note": 97,
      "start": 10.6511,
      "duration": 0.0497,
      "velocity": 99,
      "chip": "ym2612"
    },
    {
      "channel": 2,
      "note": 98,
      "start": 10.6831,
      "duration": 0.0522,
      "velocity": 99,
      "chip": "ym2612"
    },
    {
      "channel": 3,
      "note": 97,
      "start": 10.6861,
      "duration": 0.0495,
      "velocity": 99,
      "chip": "ym2612"
    },
    {
      "channel": 4,
      "note": 98,
      "start": 10.7185,
      "duration": 0.0522,
      "velocity": 99,
      "chip": "ym2612"
    },
    {
      "channel": 2,
      "note": 97,
      "start": 10.7528,
      "duration": 0.0522,
      "velocity": 99,
      "chip": "ym2612"
    },
    {
      "channel": 3,
      "note": 98,
      "start": 10.7535,
      "duration": 0.0519,
      "velocity": 99,
      "chip": "ym2612"
    },
    {
      "channel": 4,
      "note": 97,
      "start": 10.7883,
      "duration": 0.0522,
      "velocity": 99,
      "chip": "ym2612"
    },
    {
      "channel": 2,
      "note": 98,
      "start": 10.8244,
      "duration": 0.0505,
      "velocity": 99,
      "chip": "ym2612"
    },
    {
      "channel": 3,
      "note": 97,
      "start": 10.8249,
      "duration": 0.0502,
      "velocity": 99,
      "chip": "ym2612"
    },
    {
      "channel": 4,
      "note": 98,
      "start": 10.8582,
      "duration": 0.0521,
      "velocity": 99,
      "chip": "ym2612"
    },
    {
      "channel": 2,
      "note": 97,
      "start": 10.8925,
      "duration": 0.0527,
      "velocity": 99,
      "chip": "ym2612"
    },
    {
      "channel": 3,
      "note": 98,
      "start": 10.896,
      "duration": 0.0494,
      "velocity": 99,
      "chip": "ym2612"
    },
    {
      "channel": 4,
      "note": 97,
      "start": 10.931,
      "duration": 0.0493,
      "velocity": 99,
      "chip": "ym2612"
    },
    {
      "channel": 2,
      "note": 98,
      "start": 10.9625,
      "duration": 0.052,
      "velocity": 99,
      "chip": "ym2612"
    },
    {
      "channel": 3,
      "note": 97,
      "start": 10.9632,
      "duration": 0.0517,
      "velocity": 99,
      "chip": "ym2612"
    },
    {
      "channel": 4,
      "note": 98,
      "start": 10.9978,
      "duration": 0.0521,
      "velocity": 99,
      "chip": "ym2612"
    },
    {
      "channel": 2,
      "note": 97,
      "start": 11.0322,
      "duration": 0.0522,
      "velocity": 99,
      "chip": "ym2612"
    },
    {
      "channel": 3,
      "note": 98,
      "start": 11.0327,
      "duration": 0.0519,
      "velocity": 99,
      "chip": "ym2612"
    },
    {
      "channel": 4,
      "note": 97,
      "start": 11.0677,
      "duration": 0.0521,
      "velocity": 99,
      "chip": "ym2612"
    },
    {
      "channel": 2,
      "note": 98,
      "start": 11.102,
      "duration": 0.0523,
      "velocity": 99,
      "chip": "ym2612"
    },
    {
      "channel": 3,
      "note": 97,
      "start": 11.105,
      "duration": 0.0495,
      "velocity": 99,
      "chip": "ym2612"
    },
    {
      "channel": 0,
      "note": 50,
      "start": 11.1736,
      "duration": 0.6783,
      "velocity": 102,
      "chip": "ym2612"
    },
    {
      "channel": 1,
      "note": 62,
      "start": 11.1764,
      "duration": 0.6758,
      "velocity": 107,
      "chip": "ym2612"
    },
    {
      "channel": 3,
      "note": 98,
      "start": 11.3152,
      "duration": 0.677,
      "velocity": 102,
      "chip": "ym2612"
    },
    {
      "channel": 0,
      "note": 49,
      "start": 11.8695,
      "duration": 0.6805,
      "velocity": 102,
      "chip": "ym2612"
    },
    {
      "channel": 1,
      "note": 61,
      "start": 11.87,
      "duration": 0.6803,
      "velocity": 107,
      "chip": "ym2612"
    },
    {
      "channel": 3,
      "note": 50,
      "start": 12.01,
      "duration": 0.6804,
      "velocity": 102,
      "chip": "ym2612"
    },
    {
      "channel": 0,
      "note": 52,
      "start": 12.5677,
      "duration": 0.6805,
      "velocity": 102,
      "chip": "ym2612"
    },
    {
      "channel": 1,
      "note": 64,
      "start": 12.5682,
      "duration": 0.6803,
      "velocity": 107,
      "chip": "ym2612"
    },
    {
      "channel": 3,
      "note": 49,
      "start": 12.7083,
      "duration": 0.6804,
      "velocity": 102,
      "chip": "ym2612"
    },
    {
      "channel": 0,
      "note": 49,
      "start": 13.2659,
      "duration": 0.6805,
      "velocity": 102,
      "chip": "ym2612"
    },
    {
      "channel": 1,
      "note": 61,
      "start": 13.2665,
      "duration": 0.6803,
      "velocity": 107,
      "chip": "ym2612"
    },
    {
      "channel": 3,
      "note": 52,
      "start": 13.4065,
      "duration": 0.6803,
      "velocity": 102,
      "chip": "ym2612"
    },
    {
      "channel": 0,
      "note": 50,
      "start": 13.9659,
      "duration": 0.6788,
      "velocity": 102,
      "chip": "ym2612"
    },
    {
      "channel": 1,
      "note": 62,
      "start": 13.9682,
      "duration": 0.677,
      "velocity": 107,
      "chip": "ym2612"
    },
    {
      "channel": 3,
      "note": 49,
      "start": 14.1072,
      "duration": 0.6778,
      "velocity": 102,
      "chip": "ym2612"
    },
    {
      "channel": 0,
      "note": 49,
      "start": 14.6624,
      "duration": 0.6805,
      "velocity": 102,
      "chip": "ym2612"
    },
    {
      "channel": 1,
      "note": 61,
      "start": 14.6629,
      "duration": 0.6803,
      "velocity": 107,
      "chip": "ym2612"
    },
    {
      "channel": 3,
      "note": 50,
      "start": 14.8029,
      "duration": 0.6803,
      "velocity": 102,
      "chip": "ym2612"
    },
    {
      "channel": 0,
      "note": 52,
      "start": 15.3605,
      "duration": 0.6806,
      "velocity": 102,
      "chip": "ym2612"
    },
    {
      "channel": 1,
      "note": 64,
      "start": 15.3614,
      "duration": 0.6801,
      "velocity": 107,
      "chip": "ym2612"
    },
    {
      "channel": 3,
      "note": 49,
      "start": 15.5011,
      "duration": 0.6803,
      "velocity": 102,
      "chip": "ym2612"
    },
    {
      "channel": 0,
      "note": 49,
      "start": 16.0588,
      "duration": 0.6805,
      "velocity": 102,
      "chip": "ym2612"
    },
    {
      "channel": 1,
      "note": 61,
      "start": 16.0593,
      "duration": 0.6803,
      "velocity": 107,
      "chip": "ym2612"
    },
    {
      "channel": 3,
      "note": 52,
      "start": 16.1993,
      "duration": 0.6804,
      "velocity": 102,
      "chip": "ym2612"
    },
    {
      "channel": 0,
      "note": 50,
      "start": 16.7588,
      "duration": 0.6439,
      "velocity": 102,
      "chip": "ym2612"
    },
    {
      "channel": 1,
      "note": 62,
      "start": 16.7632,
      "duration": 0.6397,
      "velocity": 107,
      "chip": "ym2612"
    },
    {
      "channel": 2,
      "note": 86,
      "start": 16.7655,
      "duration": 0.6377,
      "velocity": 99,
      "chip": "ym2612"
    },
    {
      "channel": 4,
      "note": 98,
      "start": 16.8656,
      "duration": 0.6428,
      "velocity": 99,
      "chip": "ym2612"
    },
    {
      "channel": 3,
      "note": 49,
      "start": 16.9,
      "duration": 0.6429,
      "velocity": 102,
      "chip": "ym2612"
    },
    {
      "channel": 0,
      "note": 49,
      "start": 17.4203,
      "duration": 0.6456,
      "velocity": 102,
      "chip": "ym2612"
    },
    {
      "channel": 1,
      "note": 61,
      "start": 17.4208,
      "duration": 0.6455,
      "velocity": 107,
      "chip": "ym2612"
    },
    {
      "channel": 2,
      "note": 85,
      "start": 17.4213,
      "duration": 0.6452,
      "velocity": 99,
      "chip": "ym2612"
    },
    {
      "channel": 4,
      "note": 86,
      "start": 17.5261,
      "duration": 0.6456,
      "velocity": 99,
      "chip": "ym2612"
    },
    {
      "channel": 3,
      "note": 50,
      "start": 17.5611,
      "duration": 0.6452,
      "velocity": 102,
      "chip": "ym2612"
    },
    {
      "channel": 0,
      "note": 52,
      "start": 18.0836,
      "duration": 0.6457,
      "velocity": 102,
      "chip": "ym2612"
    },
    {
      "channel": 1,
      "note": 64,
      "start": 18.0841,
      "duration": 0.6454,
      "velocity": 107,
      "chip": "ym2612"
    },
    {
      "channel": 2,
      "note": 88,
      "start": 18.0846,
      "duration": 0.6452,
      "velocity": 99,
      "chip": "ym2612"
    },
    {
      "channel": 4,
      "note": 85,
      "start": 18.1894,
      "duration": 0.6457,
      "velocity": 99,
      "chip": "ym2612"
    },
    {
      "channel": 3,
      "note": 49,
      "start": 18.2241,
      "duration": 0.6455,
      "velocity": 102,
      "chip": "ym2612"
    },
    {
      "channel": 0,
      "note": 49,
      "start": 18.7469,
      "duration": 0.6456,
      "velocity": 102,
      "chip": "ym2612"
    },
    {
      "channel": 1,
      "note": 61,
      "start": 18.7474,
      "duration": 0.6454,
      "velocity": 107,
      "chip": "ym2612"
    },
    {
      "channel": 2,
      "note": 85,
      "start": 18.7479,
      "duration": 0.6452,
      "velocity": 99,
      "chip": "ym2612"
    },
    {
      "channel": 4,
      "note": 88,
      "start": 18.8527,
      "duration": 0.6455,
      "velocity": 99,
      "chip": "ym2612"
    },
    {
      "channel": 3,
      "note": 52,
      "start": 18.8874,
      "duration": 0.6455,
      "velocity": 102,
      "chip": "ym2612"
    },
    {
      "channel": 0,
      "note": 50,
      "start": 19.4102,
      "duration": 0.6107,
      "velocity": 102,
      "chip": "ym2612"
    },
    {
      "channel": 1,
      "note": 62,
      "start": 19.4129,
      "duration": 0.6083,
      "velocity": 107,
      "chip": "ym2612"
    },
    {
      "channel": 2,
      "note": 98,
      "start": 19.4151,
      "duration": 0.6064,
      "velocity": 99,
      "chip": "ym2612"
    },
    {
      "channel": 4,
      "note": 85,
      "start": 19.5184,
      "duration": 0.6083,
      "velocity": 99,
      "chip": "ym2612"
    },
    {
      "channel": 3,
      "note": 49,
      "start": 19.5507,
      "duration": 0.6109,
      "velocity": 102,
      "chip": "ym2612"
    },
    {
      "channel": 0,
      "note": 49,
      "start": 20.0386,
      "duration": 0.6107,
      "velocity": 102,
      "chip": "ym2612"
    },
    {
      "channel": 1,
      "note": 61,
      "start": 20.0391,
      "duration": 0.6105,
      "velocity": 107,
      "chip": "ym2612"
    },
    {
      "channel": 2,
      "note": 97,
      "start": 20.0395,
      "duration": 0.6104,
      "velocity": 99,
      "chip": "ym2612"
    },
    {
      "channel": 4,
      "note": 98,
      "start": 20.1447,
      "duration": 0.6104,
      "velocity": 99,
      "chip": "ym2612"
    },
    {
      "channel": 3,
      "note": 50,
      "start": 20.1793,
      "duration": 0.6104,
      "velocity": 102,
      "chip": "ym2612"
    },
    {
      "channel": 0,
      "note": 52,
      "start": 20.667,
      "duration": 0.611,
      "velocity": 102,
      "chip": "ym2612"
    },
    {
      "channel": 1,
      "note": 64,
      "start": 20.6675,
      "duration": 0.611,
      "velocity": 107,
      "chip": "ym2612"
    },
    {
      "channel": 2,
      "note": 100,
      "start": 20.668,
      "duration": 0.6108,
      "velocity": 99,
      "chip": "ym2612"
    },
    {
      "channel": 4,
      "note": 97,
      "start": 20.7728,
      "duration": 0.6107,
      "velocity": 99,
      "chip": "ym2612"
    },
    {
      "channel": 3,
      "note": 49,
      "start": 20.8076,
      "duration": 0.6106,
      "velocity": 102,
      "chip": "ym2612"
    },
    {
      "channel": 0,
      "note": 49,
      "start": 21.2956,
      "duration": 0.6105,
      "velocity": 102,
      "chip": "ym2612"
    },
    {
      "channel": 1,
      "note": 61,
      "start": 21.2961,
      "duration": 0.6103,
      "velocity": 107,
      "chip": "ym2612"
    },
    {
      "channel": 2,
      "note": 97,
      "start": 21.2966,
      "duration": 0.6101,
      "velocity": 99,
      "chip": "ym2612"
    },
    {
      "channel": 4,
      "note": 100,
      "start": 21.4012,
      "duration": 0.6112,
      "velocity": 99,
      "chip": "ym2612"
    },
    {
      "channel": 3,
      "note": 52,
      "start": 21.4359,
      "duration": 0.6106,
      "velocity": 102,
      "chip": "ym2612"
    },
    {
      "channel": 0,
      "note": 50,
      "start": 21.9239,
      "duration": 0.3314,
      "velocity": 102,
      "chip": "ym2612"
    },
    {
      "channel": 1,
      "note": 62,
      "start": 21.9262,
      "duration": 0.3293,
      "velocity": 107,
      "chip": "ym2612"
    },
    {
      "channel": 2,
      "note": 86,
      "start": 21.9289,
      "duration": 0.3269,
      "velocity": 99,
      "chip": "ym2612"
    },
    {
      "channel": 4,
      "note": 97,
      "start": 22.0324,
      "duration": 0.3288,
      "velocity": 99,
      "chip": "ym2612"
    },
    {
      "channel": 3,
      "note": 49,
      "start": 22.0645,
      "duration": 0.3313,
      "velocity": 102,
      "chip": "ym2612"
    },
    {
      "channel": 0,
      "note": 49,
      "start": 22.2729,
      "duration": 0.3315,
      "velocity": 102,
      "chip": "ym2612"
    },
    {
      "channel": 1,
      "note": 61,
      "start": 22.2734,
      "duration": 0.3312,
      "velocity": 107,
      "chip": "ym2612"
    },
    {
      "channel": 2,
      "note": 85,
      "start": 22.2739,
      "duration": 0.331,
      "velocity": 99,
      "chip": "ym2612"
    },
    {
      "channel": 4,
      "note": 86,
      "start": 22.3792,
      "duration": 0.3309,
      "velocity": 99,
      "chip": "ym2612"
    },
    {
      "channel": 3,
      "note": 50,
      "start": 22.4134,
      "duration": 0.3318,
      "velocity": 102,
      "chip": "ym2612"
    },
    {
      "channel": 0,
      "note": 52,
      "start": 22.622,
      "duration": 0.3315,
      "velocity": 102,
      "chip": "ym2612"
    },
    {
      "channel": 1,
      "note": 64,
      "start": 22.6225,
      "duration": 0.3312,
      "velocity": 107,
      "chip": "ym2612"
    },
    {
      "channel": 2,
      "note": 88,
      "start": 22.6229,
      "duration": 0.331,
      "velocity": 99,
      "chip": "ym2612"
    },
    {
      "channel": 4,
      "note": 85,
      "start": 22.728,
      "duration": 0.3312,
      "velocity": 99,
      "chip": "ym2612"
    },
    {
      "channel": 3,
      "note": 49,
      "start": 22.7628,
      "duration": 0.331,
      "velocity": 102,
      "chip": "ym2612"
    },
    {
      "channel": 0,
      "note": 49,
      "start": 22.9711,
      "duration": 0.3315,
      "velocity": 102,
      "chip": "ym2612"
    },
    {
      "channel": 1,
      "note": 61,
      "start": 22.9716,
      "duration": 0.3312,
      "velocity": 107,
      "chip": "ym2612"
    },
    {
      "channel": 2,
      "note": 85,
      "start": 22.9721,
      "duration": 0.331,
      "velocity": 99,
      "chip": "ym2612"
    },
    {
      "channel": 4,
      "note": 88,
      "start": 23.0769,
      "duration": 0.3314,
      "velocity": 99,
      "chip": "ym2612"
    },
    {
      "channel": 3,
      "note": 52,
      "start": 23.1121,
      "duration": 0.3308,
      "velocity": 102,
      "chip": "ym2612"
    },
    {
      "channel": 0,
      "note": 50,
      "start": 23.3202,
      "duration": 0.3315,
      "velocity": 102,
      "chip": "ym2612"
    },
    {
      "channel": 1,
      "note": 62,
      "start": 23.3224,
      "duration": 0.3296,
      "velocity": 107,
      "chip": "ym2612"
    },
    {
      "channel": 2,
      "note": 98,
      "start": 23.3245,
      "duration": 0.3277,
      "velocity": 99,
      "chip": "ym2612"
    },
    {
      "channel": 4,
      "note": 85,
      "start": 23.429,
      "duration": 0.3284,
      "velocity": 99,
      "chip": "ym2612"
    },
    {
      "channel": 3,
      "note": 49,
      "start": 23.461,
      "duration": 0.331,
      "velocity": 102,
      "chip": "ym2612"
    },
    {
      "channel": 0,
      "note": 49,
      "start": 23.6693,
      "duration": 0.3315,
      "velocity": 102,
      "chip": "ym2612"
    },
    {
      "channel": 1,
      "note": 61,
      "start": 23.6698,
      "duration": 0.3312,
      "velocity": 107,
      "chip": "ym2612"
    },
    {
      "channel": 2,
      "note": 97,
      "start": 23.6703,
      "duration": 0.331,
      "velocity": 99,
      "chip": "ym2612"
    },
    {
      "channel": 4,
      "note": 98,
      "start": 23.7751,
      "duration": 0.3314,
      "velocity": 99,
      "chip": "ym2612"
    },
    {
      "channel": 3,
      "note": 50,
      "start": 23.8098,
      "duration": 0.3313,
      "velocity": 102,
      "chip": "ym2612"
    },
    {
      "channel": 0,
      "note": 52,
      "start": 24.0184,
      "duration": 0.3314,
      "velocity": 102,
      "chip": "ym2612"
    },
    {
      "channel": 1,
      "note": 64,
      "start": 24.0189,
      "duration": 0.3312,
      "velocity": 107,
      "chip": "ym2612"
    },
    {
      "channel": 2,
      "note": 100,
      "start": 24.0194,
      "duration": 0.331,
      "velocity": 99,
      "chip": "ym2612"
    },
    {
      "channel": 4,
      "note": 97,
      "start": 24.1241,
      "duration": 0.3314,
      "velocity": 99,
      "chip": "ym2612"
    },
    {
      "channel": 3,
      "note": 49,
      "start": 24.159,
      "duration": 0.3313,
      "velocity": 102,
      "chip": "ym2612"
    },
    {
      "channel": 0,
      "note": 49,
      "start": 24.3675,
      "duration": 0.3315,
      "velocity": 102,
      "chip": "ym2612"
    },
    {
      "channel": 1,
      "note": 61,
      "start": 24.368,
      "duration": 0.3312,
      "velocity": 107,
      "chip": "ym2612"
    },
    {
      "channel": 2,
      "note": 97,
      "start": 24.3685,
      "duration": 0.331,
      "velocity": 99,
      "chip": "ym2612"
    },
    {
      "channel": 4,
      "note": 100,
      "start": 24.4733,
      "duration": 0.3314,
      "velocity": 99,
      "chip": "ym2612"
    },
    {
      "channel": 3,
      "note": 52,
      "start": 24.508,
      "duration": 0.3312,
      "velocity": 102,
      "chip": "ym2612"
    },
    {
      "channel": 0,
      "note": 50,
      "start": 24.7168,
      "duration": 0.3313,
      "velocity": 102,
      "chip": "ym2612"
    },
    {
      "channel": 1,
      "note": 62,
      "start": 24.7191,
      "duration": 0.3293,
      "velocity": 107,
      "chip": "ym2612"
    },
    {
      "channel": 2,
      "note": 86,
      "start": 24.7196,
      "duration": 0.329,
      "velocity": 99,
      "chip": "ym2612"
    },
    {
      "channel": 4,
      "note": 97,
      "start": 24.8225,
      "duration": 0.3313,
      "velocity": 99,
      "chip": "ym2612"
    },
    {
      "channel": 3,
      "note": 49,
      "start": 24.8573,
      "duration": 0.3311,
      "velocity": 102,
      "chip": "ym2612"
    },
    {
      "channel": 0,
      "note": 49,
      "start": 25.0658,
      "duration": 0.3314,
      "velocity": 102,
      "chip": "ym2612"
    },
    {
      "channel": 1,
      "note": 61,
      "start": 25.0663,
      "duration": 0.3312,
      "velocity": 107,
      "chip": "ym2612"
    },
    {
      "channel": 2,
      "note": 85,
      "start": 25.0668,
      "duration": 0.3309,
      "velocity": 99,
      "chip": "ym2612"
    },
    {
      "channel": 4,
      "note": 86,
      "start": 25.1715,
      "duration": 0.3314,
      "velocity": 99,
      "chip": "ym2612"
    },
    {
      "channel": 3,
      "note": 50,
      "start": 25.2063,
      "duration": 0.3313,
      "velocity": 102,
      "chip": "ym2612"
    },
    {
      "channel": 0,
      "note": 52,
      "start": 25.4148,
      "duration": 0.3315,
      "velocity": 102,
      "chip": "ym2612"
    },
    {
      "channel": 1,
      "note": 64,
      "start": 25.4153,
      "duration": 0.3312,
      "velocity": 107,
      "chip": "ym2612"
    },
    {
      "channel": 2,
      "note": 88,
      "start": 25.4158,
      "duration": 0.331,
      "velocity": 99,
      "chip": "ym2612"
    },
    {
      "channel": 4,
      "note": 85,
      "start": 25.5206,
      "duration": 0.3314,
      "velocity": 99,
      "chip": "ym2612"
    },
    {
      "channel": 3,
      "note": 49,
      "start": 25.5554,
      "duration": 0.3312,
      "velocity": 102,
      "chip": "ym2612"
    },
    {
      "channel": 0,
      "note": 49,
      "start": 25.764,
      "duration": 0.3316,
      "velocity": 102,
      "chip": "ym2612"
    },
    {
      "channel": 1,
      "note": 61,
      "start": 25.7645,
      "duration": 0.3313,
      "velocity": 107,
      "chip": "ym2612"
    },
    {
      "channel": 2,
      "note": 85,
      "start": 25.765,
      "duration": 0.331,
      "velocity": 99,
      "chip": "ym2612"
    },
    {
      "channel": 4,
      "note": 88,
      "start": 25.8697,
      "duration": 0.3314,
      "velocity": 99,
      "chip": "ym2612"
    },
    {
      "channel": 3,
      "note": 52,
      "start": 25.9044,
      "duration": 0.3314,
      "velocity": 102,
      "chip": "ym2612"
    },
    {
      "channel": 0,
      "note": 50,
      "start": 26.113,
      "duration": 0.3317,
      "velocity": 102,
      "chip": "ym2612"
    },
    {
      "channel": 1,
      "note": 62,
      "start": 26.1152,
      "duration": 0.33,
      "velocity": 107,
      "chip": "ym2612"
    },
    {
      "channel": 2,
      "note": 98,
      "start": 26.1173,
      "duration": 0.3281,
      "velocity": 99,
      "chip": "ym2612"
    },
    {
      "channel": 4,
      "note": 85,
      "start": 26.2214,
      "duration": 0.3289,
      "velocity": 99,
      "chip": "ym2612"
    },
    {
      "channel": 3,
      "note": 49,
      "start": 26.2536,
      "duration": 0.3312,
      "velocity": 102,
      "chip": "ym2612"
    },
    {
      "channel": 0,
      "note": 49,
      "start": 26.4624,
      "duration": 0.3312,
      "velocity": 102,
      "chip": "ym2612"
    },
    {
      "channel": 1,
      "note": 61,
      "start": 26.4629,
      "duration": 0.331,
      "velocity": 107,
      "chip": "ym2612"
    },
    {
      "channel": 2,
      "note": 97,
      "start": 26.4634,
      "duration": 0.331,
      "velocity": 99,
      "chip": "ym2612"
    },
    {
      "channel": 4,
      "note": 98,
      "start": 26.5679,
      "duration": 0.3314,
      "velocity": 99,
      "chip": "ym2612"
    },
    {
      "channel": 3,
      "note": 50,
      "start": 26.6027,
      "duration": 0.3312,
      "velocity": 102,
      "chip": "ym2612"
    },
    {
      "channel": 0,
      "note": 52,
      "start": 26.8116,
      "duration": 0.3312,
      "velocity": 102,
      "chip": "ym2612"
    },
    {
      "channel": 1,
      "note": 64,
      "start": 26.8123,
      "duration": 0.3307,
      "velocity": 107,
      "chip": "ym2612"
    },
    {
      "channel": 2,
      "note": 100,
      "start": 26.8128,
      "duration": 0.3305,
      "velocity": 99,
      "chip": "ym2612"
    },
    {
      "channel": 4,
      "note": 97,
      "start": 26.917,
      "duration": 0.3314,
      "velocity": 99,
      "chip": "ym2612"
    },
    {
      "channel": 3,
      "note": 49,
      "start": 26.9518,
      "duration": 0.3313,
      "velocity": 102,
      "chip": "ym2612"
    },
    {
      "channel": 0,
      "note": 49,
      "start": 27.1603,
      "duration": 0.3315,
      "velocity": 102,
      "chip": "ym2612"
    },
    {
      "channel": 1,
      "note": 61,
      "start": 27.1612,
      "duration": 0.3309,
      "velocity": 107,
      "chip": "ym2612"
    },
    {
      "channel": 2,
      "note": 97,
      "start": 27.1619,
      "duration": 0.3305,
      "velocity": 99,
      "chip": "ym2612"
    },
    {
      "channel": 4,
      "note": 100,
      "start": 27.2661,
      "duration": 0.3314,
      "velocity": 99,
      "chip": "ym2612"
    },
    {
      "channel": 3,
      "note": 52,
      "start": 27.3009,
      "duration": 0.3313,
      "velocity": 102,
      "chip": "ym2612"
    },
    {
      "channel": 0,
      "note": 50,
      "start": 27.512,
      "duration": 0.1544,
      "velocity": 102,
      "chip": "ym2612"
    },
    {
      "channel": 1,
      "note": 62,
      "start": 27.5144,
      "duration": 0.1523,
      "velocity": 107,
      "chip": "ym2612"
    },
    {
      "channel": 3,
      "note": 49,
      "start": 27.6527,
      "duration": 0.1541,
      "velocity": 102,
      "chip": "ym2612"
    },
    {
      "channel": 0,
      "note": 49,
      "start": 27.6841,
      "duration": 0.1569,
      "velocity": 102,
      "chip": "ym2612"
    },
    {
      "channel": 1,
      "note": 61,
      "start": 27.6846,
      "duration": 0.1566,
      "velocity": 107,
      "chip": "ym2612"
    },
    {
      "channel": 3,
      "note": 50,
      "start": 27.8244,
      "duration": 0.1569,
      "velocity": 102,
      "chip": "ym2612"
    },
    {
      "channel": 0,
      "note": 52,
      "start": 27.8586,
      "duration": 0.1569,
      "velocity": 102,
      "chip": "ym2612"
    },
    {
      "channel": 1,
      "note": 64,
      "start": 27.8591,
      "duration": 0.1566,
      "velocity": 107,
      "chip": "ym2612"
    },
    {
      "channel": 3,
      "note": 49,
      "start": 27.999,
      "duration": 0.1569,
      "velocity": 102,
      "chip": "ym2612"
    },
    {
      "channel": 0,
      "note": 49,
      "start": 28.0332,
      "duration": 0.1569,
      "velocity": 102,
      "chip": "ym2612"
    },
    {
      "channel": 1,
      "note": 61,
      "start": 28.0337,
      "duration": 0.1566,
      "velocity": 107,
      "chip": "ym2612"
    },
    {
      "channel": 3,
      "note": 52,
      "start": 28.1736,
      "duration": 0.1569,
      "velocity": 102,
      "chip": "ym2612"
    },
    {
      "channel": 0,
      "note": 50,
      "start": 28.2094,
      "duration": 0.1552,
      "velocity": 102,
      "chip": "ym2612"
    },
    {
      "channel": 1,
      "note": 62,
      "start": 28.2121,
      "duration": 0.1528,
      "velocity": 107,
      "chip": "ym2612"
    },
    {
      "channel": 3,
      "note": 49,
      "start": 28.3507,
      "duration": 0.1543,
      "velocity": 102,
      "chip": "ym2612"
    },
    {
      "channel": 0,
      "note": 49,
      "start": 28.3823,
      "duration": 0.1569,
      "velocity": 102,
      "chip": "ym2612"
    },
    {
      "channel": 1,
      "note": 61,
      "start": 28.3827,
      "duration": 0.1567,
      "velocity": 107,
      "chip": "ym2612"
    },
    {
      "channel": 3,
      "note": 50,
      "start": 28.5227,
      "duration": 0.1569,
      "velocity": 102,
      "chip": "ym2612"
    },
    {
      "channel": 0,
      "note": 52,
      "start": 28.5568,
      "duration": 0.1569,
      "velocity": 102,
      "chip": "ym2612"
    },
    {
      "channel": 1,
      "note": 64,
      "start": 28.5573,
      "duration": 0.1567,
      "velocity": 107,
      "chip": "ym2612"
    },
    {
      "channel": 3,
      "note": 49,
      "start": 28.6973,
      "duration": 0.1569,
      "velocity": 102,
      "chip": "ym2612"
    },
    {
      "channel": 0,
      "note": 49,
      "start": 28.7313,
      "duration": 0.1569,
      "velocity": 102,
      "chip": "ym2612"
    },
    {
      "channel": 1,
      "note": 61,
      "start": 28.7319,
      "duration": 0.1567,
      "velocity": 107,
      "chip": "ym2612"
    },
    {
      "channel": 3,
      "note": 52,
      "start": 28.8718,
      "duration": 0.1572,
      "velocity": 102,
      "chip": "ym2612"
    },
    {
      "channel": 0,
      "note": 50,
      "start": 28.9076,
      "duration": 0.1553,
      "velocity": 102,
      "chip": "ym2612"
    },
    {
      "channel": 1,
      "note": 62,
      "start": 28.9097,
      "duration": 0.1534,
      "velocity": 107,
      "chip": "ym2612"
    },
    {
      "channel": 2,
      "note": 86,
      "start": 28.9124,
      "duration": 0.151,
      "velocity": 99,
      "chip": "ym2612"
    },
    {
      "channel": 4,
      "note": 97,
      "start": 29.0146,
      "duration": 0.1539,
      "velocity": 99,
      "chip": "ym2612"
    },
    {
      "channel": 3,
      "note": 49,
      "start": 29.049,
      "duration": 0.1541,
      "velocity": 102,
      "chip": "ym2612"
    },
    {
      "channel": 0,
      "note": 49,
      "start": 29.0805,
      "duration": 0.1569,
      "velocity": 102,
      "chip": "ym2612"
    },
    {
      "channel": 1,
      "note": 61,
      "start": 29.081,
      "duration": 0.1567,
      "velocity": 107,
      "chip": "ym2612"
    },
    {
      "channel": 2,
      "note": 85,
      "start": 29.0815,
      "duration": 0.1564,
      "velocity": 99,
      "chip": "ym2612"
    },
    {
      "channel": 4,
      "note": 86,
      "start": 29.1862,
      "duration": 0.1569,
      "velocity": 99,
      "chip": "ym2612"
    },
    {
      "channel": 3,
      "note": 50,
      "start": 29.2209,
      "duration": 0.1571,
      "velocity": 102,
      "chip": "ym2612"
    },
    {
      "channel": 0,
      "note": 52,
      "start": 29.255,
      "duration": 0.1571,
      "velocity": 102,
      "chip": "ym2612"
    },
    {
      "channel": 1,
      "note": 64,
      "start": 29.2555,
      "duration": 0.1569,
      "velocity": 107,
      "chip": "ym2612"
    },
    {
      "channel": 2,
      "note": 88,
      "start": 29.256,
      "duration": 0.1566,
      "velocity": 99,
      "chip": "ym2612"
    },
    {
      "channel": 4,
      "note": 85,
      "start": 29.361,
      "duration": 0.1566,
      "velocity": 99,
      "chip": "ym2612"
    },
    {
      "channel": 3,
      "note": 49,
      "start": 29.3959,
      "duration": 0.1563,
      "velocity": 102,
      "chip": "ym2612"
    },
    {
      "channel": 0,
      "note": 49,
      "start": 29.4296,
      "duration": 0.1569,
      "velocity": 102,
      "chip": "ym2612"
    },
    {
      "channel": 1,
      "note": 61,
      "start": 29.4301,
      "duration": 0.1566,
      "velocity": 107,
      "chip": "ym2612"
    },
    {
      "channel": 2,
      "note": 85,
      "start": 29.4306,
      "duration": 0.1564,
      "velocity": 99,
      "chip": "ym2612"
    },
    {
      "channel": 4,
      "note": 88,
      "start": 29.5354,
      "duration": 0.1569,
      "velocity": 99,
      "chip": "ym2612"
    },
    {
      "channel": 3,
      "note": 52,
      "start": 29.57,
      "duration": 0.1568,
      "velocity": 102,
      "chip": "ym2612"
    },
    {
      "channel": 0,
      "note": 50,
      "start": 29.6041,
      "duration": 0.1572,
      "velocity": 102,
      "chip": "ym2612"
    },
    {
      "channel": 1,
      "note": 62,
      "start": 29.6063,
      "duration": 0.1553,
      "velocity": 107,
      "chip": "ym2612"
    },
    {
      "channel": 2,
      "note": 86,
      "start": 29.6084,
      "duration": 0.1536,
      "velocity": 99,
      "chip": "ym2612"
    },
    {
      "channel": 4,
      "note": 85,
      "start": 29.7128,
      "duration": 0.1539,
      "velocity": 99,
      "chip": "ym2612"
    },
    {
      "channel": 3,
      "note": 49,
      "start": 29.7476,
      "duration": 0.1538,
      "velocity": 102,
      "chip": "ym2612"
    },
    {
      "channel": 0,
      "note": 49,
      "start": 29.7789,
      "duration": 0.1567,
      "velocity": 102,
      "chip": "ym2612"
    },
    {
      "channel": 1,
      "note": 61,
      "start": 29.7794,
      "duration": 0.1565,
      "velocity": 107,
      "chip": "ym2612"
    },
    {
      "channel": 2,
      "note": 85,
      "start": 29.7799,
      "duration": 0.1562,
      "velocity": 99,
      "chip": "ym2612"
    },
    {
      "channel": 4,
      "note": 86,
      "start": 29.8845,
      "duration": 0.1569,
      "velocity": 99,
      "chip": "ym2612"
    },
    {
      "channel": 3,
      "note": 50,
      "start": 29.9191,
      "duration": 0.1569,
      "velocity": 102,
      "chip": "ym2612"
    },
    {
      "channel": 0,
      "note": 52,
      "start": 29.9532,
      "duration": 0.1569,
      "velocity": 102,
      "chip": "ym2612"
    },
    {
      "channel": 1,
      "note": 64,
      "start": 29.9537,
      "duration": 0.1567,
      "velocity": 107,
      "chip": "ym2612"
    },
    {
      "channel": 2,
      "note": 88,
      "start": 29.9542,
      "duration": 0.1564,
      "velocity": 99,
      "chip": "ym2612"
    },
    {
      "channel": 4,
      "note": 85,
      "start": 30.059,
      "duration": 0.1569,
      "velocity": 99,
      "chip": "ym2612"
    },
    {
      "channel": 3,
      "note": 49,
      "start": 30.0937,
      "duration": 0.1568,
      "velocity": 102,
      "chip": "ym2612"
    },
    {
      "channel": 0,
      "note": 49,
      "start": 30.1281,
      "duration": 0.1566,
      "velocity": 102,
      "chip": "ym2612"
    },
    {
      "channel": 1,
      "note": 61,
      "start": 30.1288,
      "duration": 0.1562,
      "velocity": 107,
      "chip": "ym2612"
    },
    {
      "channel": 2,
      "note": 85,
      "start": 30.1293,
      "duration": 0.1559,
      "velocity": 99,
      "chip": "ym2612"
    },
    {
      "channel": 4,
      "note": 88,
      "start": 30.2336,
      "duration": 0.1569,
      "velocity": 99,
      "chip": "ym2612"
    },
    {
      "channel": 3,
      "note": 52,
      "start": 30.2682,
      "duration": 0.1568,
      "velocity": 102,
      "chip": "ym2612"
    },
    {
      "channel": 0,
      "note": 50,
      "start": 30.3041,
      "duration": 0.1551,
      "velocity": 102,
      "chip": "ym2612"
    },
    {
      "channel": 1,
      "note": 62,
      "start": 30.3064,
      "duration": 0.1531,
      "velocity": 107,
      "chip": "ym2612"
    },
    {
      "channel": 2,
      "note": 98,
      "start": 30.3086,
      "duration": 0.1512,
      "velocity": 99,
      "chip": "ym2612"
    },
    {
      "channel": 4,
      "note": 85,
      "start": 30.4107,
      "duration": 0.1543,
      "velocity": 99,
      "chip": "ym2612"
    },
    {
      "channel": 3,
      "note": 49,
      "start": 30.446,
      "duration": 0.1536,
      "velocity": 102,
      "chip": "ym2612"
    },
    {
      "channel": 0,
      "note": 49,
      "start": 30.4769,
      "duration": 0.1569,
      "velocity": 102,
      "chip": "ym2612"
    },
    {
      "channel": 1,
      "note": 61,
      "start": 30.4777,
      "duration": 0.1564,
      "velocity": 107,
      "chip": "ym2612"
    },
    {
      "channel": 2,
      "note": 97,
      "start": 30.4782,
      "duration": 0.1561,
      "velocity": 99,
      "chip": "ym2612"
    },
    {
      "channel": 4,
      "note": 98,
      "start": 30.5827,
      "duration": 0.1568,
      "velocity": 99,
      "chip": "ym2612"
    },
    {
      "channel": 3,
      "note": 50,
      "start": 30.6173,
      "duration": 0.1569,
      "velocity": 102,
      "chip": "ym2612"
    },
    {
      "channel": 0,
      "note": 52,
      "start": 30.6515,
      "duration": 0.1569,
      "velocity": 102,
      "chip": "ym2612"
    },
    {
      "channel": 1,
      "note": 64,
      "start": 30.652,
      "duration": 0.1567,
      "velocity": 107,
      "chip": "ym2612"
    },
    {
      "channel": 2,
      "note": 100,
      "start": 30.6525,
      "duration": 0.1564,
      "velocity": 99,
      "chip": "ym2612"
    },
    {
      "channel": 4,
      "note": 97,
      "start": 30.7572,
      "duration": 0.1569,
      "velocity": 99,
      "chip": "ym2612"
    },
    {
      "channel": 3,
      "note": 49,
      "start": 30.7918,
      "duration": 0.1569,
      "velocity": 102,
      "chip": "ym2612"
    },
    {
      "channel": 0,
      "note": 49,
      "start": 30.826,
      "duration": 0.1569,
      "velocity": 102,
      "chip": "ym2612"
    },
    {
      "channel": 1,
      "note": 61,
      "start": 30.8265,
      "duration": 0.1567,
      "velocity": 107,
      "chip": "ym2612"
    },
    {
      "channel": 2,
      "note": 97,
      "start": 30.827,
      "duration": 0.1564,
      "velocity": 99,
      "chip": "ym2612"
    },
    {
      "channel": 4,
      "note": 100,
      "start": 30.9318,
      "duration": 0.1569,
      "velocity": 99,
      "chip": "ym2612"
    },
    {
      "channel": 3,
      "note": 52,
      "start": 30.9664,
      "duration": 0.1569,
      "velocity": 102,
      "chip": "ym2612"
    },
    {
      "channel": 0,
      "note": 50,
      "start": 31.0022,
      "duration": 0.1553,
      "velocity": 102,
      "chip": "ym2612"
    },
    {
      "channel": 1,
      "note": 62,
      "start": 31.0044,
      "duration": 0.1534,
      "velocity": 107,
      "chip": "ym2612"
    },
    {
      "channel": 2,
      "note": 98,
      "start": 31.0065,
      "duration": 0.1515,
      "velocity": 99,
      "chip": "ym2612"
    },
    {
      "channel": 4,
      "note": 97,
      "start": 31.1089,
      "duration": 0.1543,
      "velocity": 99,
      "chip": "ym2612"
    },
    {
      "channel": 3,
      "note": 49,
      "start": 31.1435,
      "duration": 0.1543,
      "velocity": 102,
      "chip": "ym2612"
    },
    {
      "channel": 0,
      "note": 49,
      "start": 31.1751,
      "duration": 0.1569,
      "velocity": 102,
      "chip": "ym2612"
    },
    {
      "channel": 1,
      "note": 61,
      "start": 31.1756,
      "duration": 0.1567,
      "velocity": 107,
      "chip": "ym2612"
    },
    {
      "channel": 2,
      "note": 97,
      "start": 31.1761,
      "duration": 0.1564,
      "velocity": 99,
      "chip": "ym2612"
    },
    {
      "channel": 4,
      "note": 98,
      "start": 31.2809,
      "duration": 0.1568,
      "velocity": 99,
      "chip": "ym2612"
    },
    {
      "channel": 3,
      "note": 50,
      "start": 31.3155,
      "duration": 0.1569,
      "velocity": 102,
      "chip": "ym2612"
    },
    {
      "channel": 0,
      "note": 52,
      "start": 31.3497,
      "duration": 0.1569,
      "velocity": 102,
      "chip": "ym2612"
    },
    {
      "channel": 1,
      "note": 64,
      "start": 31.3502,
      "duration": 0.1567,
      "velocity": 107,
      "chip": "ym2612"
    },
    {
      "channel": 2,
      "note": 100,
      "start": 31.3507,
      "duration": 0.1564,
      "velocity": 99,
      "chip": "ym2612"
    },
    {
      "channel": 4,
      "note": 97,
      "start": 31.4554,
      "duration": 0.1572,
      "velocity": 99,
      "chip": "ym2612"
    },
    {
      "channel": 3,
      "note": 49,
      "start": 31.4901,
      "duration": 0.1569,
      "velocity": 102,
      "chip": "ym2612"
    },
    {
      "channel": 0,
      "note": 49,
      "start": 31.5242,
      "duration": 0.1569,
      "velocity": 102,
      "chip": "ym2612"
    },
    {
      "channel": 1,
      "note": 61,
      "start": 31.5247,
      "duration": 0.1567,
      "velocity": 107,
      "chip": "ym2612"
    },
    {
      "channel": 2,
      "note": 97,
      "start": 31.5252,
      "duration": 0.1564,
      "velocity": 99,
      "chip": "ym2612"
    },
    {
      "channel": 4,
      "note": 100,
      "start": 31.6301,
      "duration": 0.1568,
      "velocity": 99,
      "chip": "ym2612"
    },
    {
      "channel": 3,
      "note": 52,
      "start": 31.6646,
      "duration": 0.1569,
      "velocity": 102,
      "chip": "ym2612"
    },
    {
      "channel": 0,
      "note": 50,
      "start": 31.7004,
      "duration": 0.1553,
      "velocity": 102,
      "chip": "ym2612"
    },
    {
      "channel": 1,
      "note": 62,
      "start": 31.7026,
      "duration": 0.1534,
      "velocity": 107,
      "chip": "ym2612"
    },
    {
      "channel": 2,
      "note": 86,
      "start": 31.7048,
      "duration": 0.1515,
      "velocity": 99,
      "chip": "ym2612"
    },
    {
      "channel": 4,
      "note": 97,
      "start": 31.8071,
      "duration": 0.1549,
      "velocity": 99,
      "chip": "ym2612"
    },
    {
      "channel": 3,
      "note": 49,
      "start": 31.8417,
      "duration": 0.1545,
      "velocity": 102,
      "chip": "ym2612"
    },
    {
      "channel": 0,
      "note": 49,
      "start": 31.8733,
      "duration": 0.1569,
      "velocity": 102,
      "chip": "ym2612"
    },
    {
      "channel": 1,
      "note": 61,
      "start": 31.8738,
      "duration": 0.1567,
      "velocity": 107,
      "chip": "ym2612"
    },
    {
      "channel": 2,
      "note": 85,
      "start": 31.8744,
      "duration": 0.1564,
      "velocity": 99,
      "chip": "ym2612"
    },
    {
      "channel": 4,
      "note": 86,
      "start": 31.9795,
      "duration": 0.1565,
      "velocity": 99,
      "chip": "ym2612"
    },
    {
      "channel": 3,
      "note": 50,
      "start": 32.0137,
      "duration": 0.1569,
      "velocity": 102,
      "chip": "ym2612"
    },
    {
      "channel": 0,
      "note": 52,
      "start": 32.0479,
      "duration": 0.1569,
      "velocity": 102,
      "chip": "ym2612"
    },
    {
      "channel": 1,
      "note": 64,
      "start": 32.0484,
      "duration": 0.1567,
      "velocity": 107,
      "chip": "ym2612"
    },
    {
      "channel": 2,
      "note": 88,
      "start": 32.0489,
      "duration": 0.1564,
      "velocity": 99,
      "chip": "ym2612"
    },
    {
      "channel": 4,
      "note": 85,
      "start": 32.1537,
      "duration": 0.1569,
      "velocity": 99,
      "chip": "ym2612"
    },
    {
      "channel": 3,
      "note": 49,
      "start": 32.1883,
      "duration": 0.1574,
      "velocity": 102,
      "chip": "ym2612"
    },
    {
      "channel": 0,
      "note": 49,
      "start": 32.2224,
      "duration": 0.1569,
      "velocity": 102,
      "chip": "ym2612"
    },
    {
      "channel": 1,
      "note": 61,
      "start": 32.2229,
      "duration": 0.1567,
      "velocity": 107,
      "chip": "ym2612"
    },
    {
      "channel": 2,
      "note": 85,
      "start": 32.2234,
      "duration": 0.1564,
      "velocity": 99,
      "chip": "ym2612"
    },
    {
      "channel": 4,
      "note": 88,
      "start": 32.3287,
      "duration": 0.1564,
      "velocity": 99,
      "chip": "ym2612"
    },
    {
      "channel": 3,
      "note": 52,
      "start": 32.3631,
      "duration": 0.1566,
      "velocity": 102,
      "chip": "ym2612"
    },
    {
      "channel": 0,
      "note": 50,
      "start": 32.397,
      "duration": 0.1569,
      "velocity": 102,
      "chip": "ym2612"
    },
    {
      "channel": 1,
      "note": 62,
      "start": 32.3992,
      "duration": 0.155,
      "velocity": 107,
      "chip": "ym2612"
    },
    {
      "channel": 2,
      "note": 86,
      "start": 32.4013,
      "duration": 0.1531,
      "velocity": 99,
      "chip": "ym2612"
    },
    {
      "channel": 4,
      "note": 85,
      "start": 32.5053,
      "duration": 0.1543,
      "velocity": 99,
      "chip": "ym2612"
    },
    {
      "channel": 3,
      "note": 49,
      "start": 32.5399,
      "duration": 0.1546,
      "velocity": 102,
      "chip": "ym2612"
    },
    {
      "channel": 0,
      "note": 49,
      "start": 32.5715,
      "duration": 0.1571,
      "velocity": 102,
      "chip": "ym2612"
    },
    {
      "channel": 1,
      "note": 61,
      "start": 32.5721,
      "duration": 0.1569,
      "velocity": 107,
      "chip": "ym2612"
    },
    {
      "channel": 2,
      "note": 85,
      "start": 32.5726,
      "duration": 0.1566,
      "velocity": 99,
      "chip": "ym2612"
    },
    {
      "channel": 4,
      "note": 86,
      "start": 32.6773,
      "duration": 0.1569,
      "velocity": 99,
      "chip": "ym2612"
    },
    {
      "channel": 3,
      "note": 50,
      "start": 32.7124,
      "duration": 0.1564,
      "velocity": 102,
      "chip": "ym2612"
    },
    {
      "channel": 0,
      "note": 52,
      "start": 32.7461,
      "duration": 0.1569,
      "velocity": 102,
      "chip": "ym2612"
    },
    {
      "channel": 1,
      "note": 64,
      "start": 32.7466,
      "duration": 0.1567,
      "velocity": 107,
      "chip": "ym2612"
    },
    {
      "channel": 2,
      "note": 88,
      "start": 32.7471,
      "duration": 0.1564,
      "velocity": 99,
      "chip": "ym2612"
    },
    {
      "channel": 4,
      "note": 85,
      "start": 32.8519,
      "duration": 0.1569,
      "velocity": 99,
      "chip": "ym2612"
    },
    {
      "channel": 3,
      "note": 49,
      "start": 32.8865,
      "duration": 0.1569,
      "velocity": 102,
      "chip": "ym2612"
    },
    {
      "channel": 0,
      "note": 49,
      "start": 32.9207,
      "duration": 0.1572,
      "velocity": 102,
      "chip": "ym2612"
    },
    {
      "channel": 1,
      "note": 61,
      "start": 32.9212,
      "duration": 0.1569,
      "velocity": 107,
      "chip": "ym2612"
    },
    {
      "channel": 2,
      "note": 85,
      "start": 32.9217,
      "duration": 0.1569,
      "velocity": 99,
      "chip": "ym2612"
    },
    {
      "channel": 4,
      "note": 88,
      "start": 33.0264,
      "duration": 0.1569,
      "velocity": 99,
      "chip": "ym2612"
    },
    {
      "channel": 3,
      "note": 52,
      "start": 33.0614,
      "duration": 0.1566,
      "velocity": 102,
      "chip": "ym2612"
    },
    {
      "channel": 0,
      "note": 50,
      "start": 33.0973,
      "duration": 0.1548,
      "velocity": 102,
      "chip": "ym2612"
    },
    {
      "channel": 1,
      "note": 62,
      "start": 33.0995,
      "duration": 0.1528,
      "velocity": 107,
      "chip": "ym2612"
    },
    {
      "channel": 2,
      "note": 98,
      "start": 33.1017,
      "duration": 0.1509,
      "velocity": 99,
      "chip": "ym2612"
    },
    {
      "channel": 4,
      "note": 85,
      "start": 33.2035,
      "duration": 0.1543,
      "velocity": 99,
      "chip": "ym2612"
    },
    {
      "channel": 3,
      "note": 49,
      "start": 33.2383,
      "duration": 0.1542,
      "velocity": 102,
      "chip": "ym2612"
    },
    {
      "channel": 0,
      "note": 49,
      "start": 33.2698,
      "duration": 0.1569,
      "velocity": 102,
      "chip": "ym2612"
    },
    {
      "channel": 1,
      "note": 61,
      "start": 33.2703,
      "duration": 0.1566,
      "velocity": 107,
      "chip": "ym2612"
    },
    {
      "channel": 2,
      "note": 97,
      "start": 33.2707,
      "duration": 0.1564,
      "velocity": 99,
      "chip": "ym2612"
    },
    {
      "channel": 4,
      "note": 98,
      "start": 33.3756,
      "duration": 0.1568,
      "velocity": 99,
      "chip": "ym2612"
    },
    {
      "channel": 3,
      "note": 50,
      "start": 33.4102,
      "duration": 0.1569,
      "velocity": 102,
      "chip": "ym2612"
    },
    {
      "channel": 0,
      "note": 52,
      "start": 33.4446,
      "duration": 0.1566,
      "velocity": 102,
      "chip": "ym2612"
    },
    {
      "channel": 1,
      "note": 64,
      "start": 33.4453,
      "duration": 0.1562,
      "velocity": 107,
      "chip": "ym2612"
    },
    {
      "channel": 2,
      "note": 100,
      "start": 33.4459,
      "duration": 0.1559,
      "velocity": 99,
      "chip": "ym2612"
    },
    {
      "channel": 4,
      "note": 97,
      "start": 33.5501,
      "duration": 0.1568,
      "velocity": 99,
      "chip": "ym2612"
    },
    {
      "channel": 3,
      "note": 49,
      "start": 33.5847,
      "duration": 0.1569,
      "velocity": 102,
      "chip": "ym2612"
    },
    {
      "channel": 0,
      "note": 49,
      "start": 33.6189,
      "duration": 0.1569,
      "velocity": 102,
      "chip": "ym2612"
    },
    {
      "channel": 1,
      "note": 61,
      "start": 33.6194,
      "duration": 0.1567,
      "velocity": 107,
      "chip": "ym2612"
    },
    {
      "channel": 2,
      "note": 97,
      "start": 33.6199,
      "duration": 0.1564,
      "velocity": 99,
      "chip": "ym2612"
    },
    {
      "channel": 4,
      "note": 100,
      "start": 33.7246,
      "duration": 0.1569,
      "velocity": 99,
      "chip": "ym2612"
    },
    {
      "channel": 3,
      "note": 52,
      "start": 33.7593,
      "duration": 0.1569,
      "velocity": 102,
      "chip": "ym2612"
    },
    {
      "channel": 0,
      "note": 50,
      "start": 33.7956,
      "duration": 0.1548,
      "velocity": 102,
      "chip": "ym2612"
    },
    {
      "channel": 1,
      "note": 62,
      "start": 33.7978,
      "duration": 0.1529,
      "velocity": 107,
      "chip": "ym2612"
    },
    {
      "channel": 2,
      "note": 98,
      "start": 33.7999,
      "duration": 0.151,
      "velocity": 99,
      "chip": "ym2612"
    },
    {
      "channel": 4,
      "note": 97,
      "start": 33.9018,
      "duration": 0.1543,
      "velocity": 99,
      "chip": "ym2612"
    },
    {
      "channel": 3,
      "note": 49,
      "start": 33.9364,
      "duration": 0.1543,
      "velocity": 102,
      "chip": "ym2612"
    },
    {
      "channel": 0,
      "note": 49,
      "start": 33.968,
      "duration": 0.1569,
      "velocity": 102,
      "chip": "ym2612"
    },
    {
      "channel": 1,
      "note": 61,
      "start": 33.9684,
      "duration": 0.1567,
      "velocity": 107,
      "chip": "ym2612"
    },
    {
      "channel": 2,
      "note": 97,
      "start": 33.9689,
      "duration": 0.1564,
      "velocity": 99,
      "chip": "ym2612"
    },
    {
      "channel": 4,
      "note": 98,
      "start": 34.0738,
      "duration": 0.1569,
      "velocity": 99,
      "chip": "ym2612"
    },
    {
      "channel": 3,
      "note": 50,
      "start": 34.1084,
      "duration": 0.1568,
      "velocity": 102,
      "chip": "ym2612"
    },
    {
      "channel": 0,
      "note": 52,
      "start": 34.1425,
      "duration": 0.1569,
      "velocity": 102,
      "chip": "ym2612"
    },
    {
      "channel": 1,
      "note": 64,
      "start": 34.143,
      "duration": 0.1566,
      "velocity": 107,
      "chip": "ym2612"
    },
    {
      "channel": 2,
      "note": 100,
      "start": 34.1436,
      "duration": 0.1563,
      "velocity": 99,
      "chip": "ym2612"
    },
    {
      "channel": 4,
      "note": 97,
      "start": 34.2483,
      "duration": 0.1569,
      "velocity": 99,
      "chip": "ym2612"
    },
    {
      "channel": 3,
      "note": 49,
      "start": 34.2829,
      "duration": 0.1568,
      "velocity": 102,
      "chip": "ym2612"
    },
    {
      "channel": 0,
      "note": 49,
      "start": 34.3171,
      "duration": 0.1569,
      "velocity": 102,
      "chip": "ym2612"
    },
    {
      "channel": 1,
      "note": 61,
      "start": 34.3176,
      "duration": 0.1566,
      "velocity": 107,
      "chip": "ym2612"
    },
    {
      "channel": 2,
      "note": 97,
      "start": 34.3181,
      "duration": 0.1563,
      "velocity": 99,
      "chip": "ym2612"
    },
    {
      "channel": 4,
      "note": 100,
      "start": 34.4228,
      "duration": 0.1571,
      "velocity": 99,
      "chip": "ym2612"
    },
    {
      "channel": 3,
      "note": 52,
      "start": 34.4575,
      "duration": 0.1569,
      "velocity": 102,
      "chip": "ym2612"
    },
    {
      "channel": 0,
      "note": 50,
      "start": 34.4934,
      "duration": 0.1552,
      "velocity": 102,
      "chip": "ym2612"
    },
    {
      "channel": 1,
      "note": 62,
      "start": 34.496,
      "duration": 0.1527,
      "velocity": 107,
      "chip": "ym2612"
    },
    {
      "channel": 2,
      "note": 86,
      "start": 34.4983,
      "duration": 0.1508,
      "velocity": 99,
      "chip": "ym2612"
    },
    {
      "channel": 4,
      "note": 97,
      "start": 34.6,
      "duration": 0.1542,
      "velocity": 99,
      "chip": "ym2612"
    },
    {
      "channel": 3,
      "note": 49,
      "start": 34.6346,
      "duration": 0.1543,
      "velocity": 102,
      "chip": "ym2612"
    },
    {
      "channel": 0,
      "note": 49,
      "start": 34.6662,
      "duration": 0.1569,
      "velocity": 102,
      "chip": "ym2612"
    },
    {
      "channel": 1,
      "note": 61,
      "start": 34.6667,
      "duration": 0.1566,
      "velocity": 107,
      "chip": "ym2612"
    },
    {
      "channel": 2,
      "note": 85,
      "start": 34.6672,
      "duration": 0.1564,
      "velocity": 99,
      "chip": "ym2612"
    },
    {
      "channel": 4,
      "note": 86,
      "start": 34.7719,
      "duration": 0.1574,
      "velocity": 99,
      "chip": "ym2612"
    },
    {
      "channel": 3,
      "note": 50,
      "start": 34.8065,
      "duration": 0.1569,
      "velocity": 102,
      "chip": "ym2612"
    },
    {
      "channel": 0,
      "note": 52,
      "start": 34.8407,
      "duration": 0.1569,
      "velocity": 102,
      "chip": "ym2612"
    },
    {
      "channel": 1,
      "note": 64,
      "start": 34.8413,
      "duration": 0.1566,
      "velocity": 107,
      "chip": "ym2612"
    },
    {
      "channel": 2,
      "note": 88,
      "start": 34.8417,
      "duration": 0.1564,
      "velocity": 99,
      "chip": "ym2612"
    },
    {
      "channel": 4,
      "note": 85,
      "start": 34.9467,
      "duration": 0.1566,
      "velocity": 99,
      "chip": "ym2612"
    },
    {
      "channel": 3,
      "note": 49,
      "start": 34.9812,
      "duration": 0.1569,
      "velocity": 102,
      "chip": "ym2612"
    },
    {
      "channel": 0,
      "note": 49,
      "start": 35.0153,
      "duration": 0.1569,
      "velocity": 102,
      "chip": "ym2612"
    },
    {
      "channel": 1,
      "note": 61,
      "start": 35.0158,
      "duration": 0.1567,
      "velocity": 107,
      "chip": "ym2612"
    },
    {
      "channel": 2,
      "note": 85,
      "start": 35.0163,
      "duration": 0.1564,
      "velocity": 99,
      "chip": "ym2612"
    },
    {
      "channel": 4,
      "note": 88,
      "start": 35.1211,
      "duration": 0.1571,
      "velocity": 99,
      "chip": "ym2612"
    },
    {
      "channel": 3,
      "note": 52,
      "start": 35.1557,
      "duration": 0.1571,
      "velocity": 102,
      "chip": "ym2612"
    },
    {
      "channel": 0,
      "note": 50,
      "start": 35.1899,
      "duration": 0.1569,
      "velocity": 102,
      "chip": "ym2612"
    },
    {
      "channel": 1,
      "note": 62,
      "start": 35.192,
      "duration": 0.155,
      "velocity": 107,
      "chip": "ym2612"
    },
    {
      "channel": 2,
      "note": 86,
      "start": 35.1944,
      "duration": 0.1529,
      "velocity": 99,
      "chip": "ym2612"
    },
    {
      "channel": 4,
      "note": 85,
      "start": 35.2986,
      "duration": 0.1538,
      "velocity": 99,
      "chip": "ym2612"
    },
    {
      "channel": 3,
      "note": 49,
      "start": 35.3327,
      "duration": 0.1544,
      "velocity": 102,
      "chip": "ym2612"
    },
    {
      "channel": 0,
      "note": 49,
      "start": 35.3644,
      "duration": 0.1569,
      "velocity": 102,
      "chip": "ym2612"
    },
    {
      "channel": 1,
      "note": 61,
      "start": 35.3649,
      "duration": 0.1566,
      "velocity": 107,
      "chip": "ym2612"
    },
    {
      "channel": 2,
      "note": 85,
      "start": 35.3654,
      "duration": 0.1563,
      "velocity": 99,
      "chip": "ym2612"
    },
    {
      "channel": 4,
      "note": 86,
      "start": 35.4701,
      "duration": 0.1569,
      "velocity": 99,
      "chip": "ym2612"
    },
    {
      "channel": 3,
      "note": 50,
      "start": 35.5048,
      "duration": 0.1573,
      "velocity": 102,
      "chip": "ym2612"
    },
    {
      "channel": 0,
      "note": 52,
      "start": 35.539,
      "duration": 0.1569,
      "velocity": 102,
      "chip": "ym2612"
    },
    {
      "channel": 1,
      "note": 64,
      "start": 35.5394,
      "duration": 0.1567,
      "velocity": 107,
      "chip": "ym2612"
    },
    {
      "channel": 2,
      "note": 88,
      "start": 35.5399,
      "duration": 0.1564,
      "velocity": 99,
      "chip": "ym2612"
    },
    {
      "channel": 4,
      "note": 85,
      "start": 35.6453,
      "duration": 0.1563,
      "velocity": 99,
      "chip": "ym2612"
    },
    {
      "channel": 3,
      "note": 49,
      "start": 35.6796,
      "duration": 0.1567,
      "velocity": 102,
      "chip": "ym2612"
    },
    {
      "channel": 0,
      "note": 49,
      "start": 35.7135,
      "duration": 0.1569,
      "velocity": 102,
      "chip": "ym2612"
    },
    {
      "channel": 1,
      "note": 61,
      "start": 35.714,
      "duration": 0.1567,
      "velocity": 107,
      "chip": "ym2612"
    },
    {
      "channel": 2,
      "note": 85,
      "start": 35.7145,
      "duration": 0.1564,
      "velocity": 99,
      "chip": "ym2612"
    },
    {
      "channel": 4,
      "note": 88,
      "start": 35.8193,
      "duration": 0.1569,
      "velocity": 99,
      "chip": "ym2612"
    },
    {
      "channel": 3,
      "note": 52,
      "start": 35.8539,
      "duration": 0.1571,
      "velocity": 102,
      "chip": "ym2612"
    },
    {
      "channel": 0,
      "note": 50,
      "start": 35.8899,
      "duration": 0.1554,
      "velocity": 102,
      "chip": "ym2612"
    },
    {
      "channel": 1,
      "note": 62,
      "start": 35.8921,
      "duration": 0.1534,
      "velocity": 107,
      "chip": "ym2612"
    },
    {
      "channel": 2,
      "note": 98,
      "start": 35.8946,
      "duration": 0.1511,
      "velocity": 99,
      "chip": "ym2612"
    },
    {
      "channel": 4,
      "note": 85,
      "start": 35.9969,
      "duration": 0.1538,
      "velocity": 99,
      "chip": "ym2612"
    },
    {
      "channel": 3,
      "note": 49,
      "start": 36.0317,
      "duration": 0.1536,
      "velocity": 102,
      "chip": "ym2612"
    },
    {
      "channel": 0,
      "note": 49,
      "start": 36.0626,
      "duration": 0.1569,
      "velocity": 102,
      "chip": "ym2612"
    },
    {
      "channel": 1,
      "note": 61,
      "start": 36.0631,
      "duration": 0.1567,
      "velocity": 107,
      "chip": "ym2612"
    },
    {
      "channel": 2,
      "note": 97,
      "start": 36.0636,
      "duration": 0.1565,
      "velocity": 99,
      "chip": "ym2612"
    },
    {
      "channel": 4,
      "note": 98,
      "start": 36.1684,
      "duration": 0.1569,
      "velocity": 99,
      "chip": "ym2612"
    },
    {
      "channel": 3,
      "note": 50,
      "start": 36.203,
      "duration": 0.1568,
      "velocity": 102,
      "chip": "ym2612"
    },
    {
      "channel": 0,
      "note": 52,
      "start": 36.2372,
      "duration": 0.1572,
      "velocity": 102,
      "chip": "ym2612"
    },
    {
      "channel": 1,
      "note": 64,
      "start": 36.2377,
      "duration": 0.1569,
      "velocity": 107,
      "chip": "ym2612"
    },
    {
      "channel": 2,
      "note": 100,
      "start": 36.2382,
      "duration": 0.1567,
      "velocity": 99,
      "chip": "ym2612"
    },
    {
      "channel": 4,
      "note": 97,
      "start": 36.3429,
      "duration": 0.1569,
      "velocity": 99,
      "chip": "ym2612"
    },
    {
      "channel": 3,
      "note": 49,
      "start": 36.3778,
      "duration": 0.1566,
      "velocity": 102,
      "chip": "ym2612"
    },
    {
      "channel": 0,
      "note": 49,
      "start": 36.412,
      "duration": 0.1567,
      "velocity": 102,
      "chip": "ym2612"
    },
    {
      "channel": 1,
      "note": 61,
      "start": 36.4124,
      "duration": 0.1564,
      "velocity": 107,
      "chip": "ym2612"
    },
    {
      "channel": 2,
      "note": 97,
      "start": 36.4129,
      "duration": 0.1562,
      "velocity": 99,
      "chip": "ym2612"
    },
    {
      "channel": 4,
      "note": 100,
      "start": 36.5175,
      "duration": 0.1569,
      "velocity": 99,
      "chip": "ym2612"
    },
    {
      "channel": 3,
      "note": 52,
      "start": 36.5521,
      "duration": 0.1569,
      "velocity": 102,
      "chip": "ym2612"
    },
    {
      "channel": 0,
      "note": 50,
      "start": 36.5863,
      "duration": 0.1569,
      "velocity": 102,
      "chip": "ym2612"
    },
    {
      "channel": 1,
      "note": 62,
      "start": 36.5869,
      "duration": 0.1565,
      "velocity": 107,
      "chip": "ym2612"
    },
    {
      "channel": 2,
      "note": 98,
      "start": 36.5891,
      "duration": 0.1546,
      "velocity": 99,
      "chip": "ym2612"
    },
    {
      "channel": 4,
      "note": 97,
      "start": 36.6949,
      "duration": 0.154,
      "velocity": 99,
      "chip": "ym2612"
    },
    {
      "channel": 3,
      "note": 49,
      "start": 36.7297,
      "duration": 0.1539,
      "velocity": 102,
      "chip": "ym2612"
    },
    {
      "channel": 0,
      "note": 49,
      "start": 36.7611,
      "duration": 0.1566,
      "velocity": 102,
      "chip": "ym2612"
    },
    {
      "channel": 1,
      "note": 61,
      "start": 36.7618,
      "duration": 0.1562,
      "velocity": 107,
      "chip": "ym2612"
    },
    {
      "channel": 2,
      "note": 97,
      "start": 36.7623,
      "duration": 0.1559,
      "velocity": 99,
      "chip": "ym2612"
    },
    {
      "channel": 4,
      "note": 98,
      "start": 36.8666,
      "duration": 0.1569,
      "velocity": 99,
      "chip": "ym2612"
    },
    {
      "channel": 3,
      "note": 50,
      "start": 36.9012,
      "duration": 0.1568,
      "velocity": 102,
      "chip": "ym2612"
    },
    {
      "channel": 0,
      "note": 52,
      "start": 36.9354,
      "duration": 0.1569,
      "velocity": 102,
      "chip": "ym2612"
    },
    {
      "channel": 1,
      "note": 64,
      "start": 36.9359,
      "duration": 0.1566,
      "velocity": 107,
      "chip": "ym2612"
    },
    {
      "channel": 2,
      "note": 100,
      "start": 36.9364,
      "duration": 0.1563,
      "velocity": 99,
      "chip": "ym2612"
    },
    {
      "channel": 4,
      "note": 97,
      "start": 37.0411,
      "duration": 0.1569,
      "velocity": 99,
      "chip": "ym2612"
    },
    {
      "channel": 3,
      "note": 49,
      "start": 37.0758,
      "duration": 0.1569,
      "velocity": 102,
      "chip": "ym2612"
    },
    {
      "channel": 0,
      "note": 49,
      "start": 37.1099,
      "duration": 0.1569,
      "velocity": 102,
      "chip": "ym2612"
    },
    {
      "channel": 1,
      "note": 61,
      "start": 37.1104,
      "duration": 0.1567,
      "velocity": 107,
      "chip": "ym2612"
    },
    {
      "channel": 2,
      "note": 97,
      "start": 37.1112,
      "duration": 0.1562,
      "velocity": 99,
      "chip": "ym2612"
    },
    {
      "channel": 4,
      "note": 100,
      "start": 37.2157,
      "duration": 0.1569,
      "velocity": 99,
      "chip": "ym2612"
    },
    {
      "channel": 3,
      "note": 52,
      "start": 37.2503,
      "duration": 0.1569,
      "velocity": 102,
      "chip": "ym2612"
    },
    {
      "channel": 0,
      "note": 50,
      "start": 37.2862,
      "duration": 0.1551,
      "velocity": 102,
      "chip": "ym2612"
    },
    {
      "channel": 1,
      "note": 62,
      "start": 37.2869,
      "duration": 0.1547,
      "velocity": 107,
      "chip": "ym2612"
    },
    {
      "channel": 2,
      "note": 86,
      "start": 37.2892,
      "duration": 0.1527,
      "velocity": 99,
      "chip": "ym2612"
    },
    {
      "channel": 4,
      "note": 97,
      "start": 37.3929,
      "duration": 0.1542,
      "velocity": 99,
      "chip": "ym2612"
    },
    {
      "channel": 3,
      "note": 49,
      "start": 37.4277,
      "duration": 0.1541,
      "velocity": 102,
      "chip": "ym2612"
    },
    {
      "channel": 0,
      "note": 49,
      "start": 37.4591,
      "duration": 0.1569,
      "velocity": 102,
      "chip": "ym2612"
    },
    {
      "channel": 1,
      "note": 61,
      "start": 37.4596,
      "duration": 0.1566,
      "velocity": 107,
      "chip": "ym2612"
    },
    {
      "channel": 2,
      "note": 85,
      "start": 37.46,
      "duration": 0.1564,
      "velocity": 99,
      "chip": "ym2612"
    },
    {
      "channel": 4,
      "note": 86,
      "start": 37.5648,
      "duration": 0.1569,
      "velocity": 99,
      "chip": "ym2612"
    },
    {
      "channel": 3,
      "note": 50,
      "start": 37.5995,
      "duration": 0.1569,
      "velocity": 102,
      "chip": "ym2612"
    },
    {
      "channel": 0,
      "note": 52,
      "start": 37.6336,
      "duration": 0.1569,
      "velocity": 102,
      "chip": "ym2612"
    },
    {
      "channel": 1,
      "note": 64,
      "start": 37.6341,
      "duration": 0.1567,
      "velocity": 107,
      "chip": "ym2612"
    },
    {
      "channel": 2,
      "note": 88,
      "start": 37.6346,
      "duration": 0.1564,
      "velocity": 99,
      "chip": "ym2612"
    },
    {
      "channel": 4,
      "note": 85,
      "start": 37.7394,
      "duration": 0.1571,
      "velocity": 99,
      "chip": "ym2612"
    },
    {
      "channel": 3,
      "note": 49,
      "start": 37.774,
      "duration": 0.1568,
      "velocity": 102,
      "chip": "ym2612"
    },
    {
      "channel": 0,
      "note": 49,
      "start": 37.8082,
      "duration": 0.1569,
      "velocity": 102,
      "chip": "ym2612"
    },
    {
      "channel": 1,
      "note": 61,
      "start": 37.8086,
      "duration": 0.1567,
      "velocity": 107,
      "chip": "ym2612"
    },
    {
      "channel": 2,
      "note": 85,
      "start": 37.8091,
      "duration": 0.1564,
      "velocity": 99,
      "chip": "ym2612"
    },
    {
      "channel": 4,
      "note": 88,
      "start": 37.9139,
      "duration": 0.1569,
      "velocity": 99,
      "chip": "ym2612"
    },
    {
      "channel": 3,
      "note": 52,
      "start": 37.9486,
      "duration": 0.1568,
      "velocity": 102,
      "chip": "ym2612"
    },
    {
      "channel": 0,
      "note": 50,
      "start": 37.9827,
      "duration": 0.157,
      "velocity": 102,
      "chip": "ym2612"
    },
    {
      "channel": 1,
      "note": 62,
      "start": 37.9833,
      "duration": 0.1566,
      "velocity": 107,
      "chip": "ym2612"
    },
    {
      "channel": 2,
      "note": 86,
      "start": 37.9855,
      "duration": 0.1547,
      "velocity": 99,
      "chip": "ym2612"
    },
    {
      "channel": 4,
      "note": 85,
      "start": 38.091,
      "duration": 0.1548,
      "velocity": 99,
      "chip": "ym2612"
    },
    {
      "channel": 3,
      "note": 49,
      "start": 38.1257,
      "duration": 0.1543,
      "velocity": 102,
      "chip": "ym2612"
    },
    {
      "channel": 0,
      "note": 49,
      "start": 38.1572,
      "duration": 0.1569,
      "velocity": 102,
      "chip": "ym2612"
    },
    {
      "channel": 1,
      "note": 61,
      "start": 38.1577,
      "duration": 0.1567,
      "velocity": 107,
      "chip": "ym2612"
    },
    {
      "channel": 2,
      "note": 85,
      "start": 38.1583,
      "duration": 0.1564,
      "velocity": 99,
      "chip": "ym2612"
    },
    {
      "channel": 4,
      "note": 86,
      "start": 38.2633,
      "duration": 0.1566,
      "velocity": 99,
      "chip": "ym2612"
    },
    {
      "channel": 3,
      "note": 50,
      "start": 38.2976,
      "duration": 0.1569,
      "velocity": 102,
      "chip": "ym2612"
    },
    {
      "channel": 0,
      "note": 52,
      "start": 38.3319,
      "duration": 0.1569,
      "velocity": 102,
      "chip": "ym2612"
    },
    {
      "channel": 1,
      "note": 64,
      "start": 38.3324,
      "duration": 0.1566,
      "velocity": 107,
      "chip": "ym2612"
    },
    {
      "channel": 2,
      "note": 88,
      "start": 38.3328,
      "duration": 0.1564,
      "velocity": 99,
      "chip": "ym2612"
    },
    {
      "channel": 4,
      "note": 85,
      "start": 38.4376,
      "duration": 0.1572,
      "velocity": 99,
      "chip": "ym2612"
    },
    {
      "channel": 3,
      "note": 49,
      "start": 38.4722,
      "duration": 0.1571,
      "velocity": 102,
      "chip": "ym2612"
    },
    {
      "channel": 0,
      "note": 49,
      "start": 38.5064,
      "duration": 0.1569,
      "velocity": 102,
      "chip": "ym2612"
    },
    {
      "channel": 1,
      "note": 61,
      "start": 38.5068,
      "duration": 0.1567,
      "velocity": 107,
      "chip": "ym2612"
    },
    {
      "channel": 2,
      "note": 85,
      "start": 38.5074,
      "duration": 0.1564,
      "velocity": 99,
      "chip": "ym2612"
    },
    {
      "channel": 4,
      "note": 88,
      "start": 38.6126,
      "duration": 0.1564,
      "velocity": 99,
      "chip": "ym2612"
    },
    {
      "channel": 3,
      "note": 52,
      "start": 38.6467,
      "duration": 0.1569,
      "velocity": 102,
      "chip": "ym2612"
    },
    {
      "channel": 0,
      "note": 50,
      "start": 38.6827,
      "duration": 0.1551,
      "velocity": 102,
      "chip": "ym2612"
    },
    {
      "channel": 1,
      "note": 62,
      "start": 38.6833,
      "duration": 0.1548,
      "velocity": 107,
      "chip": "ym2612"
    },
    {
      "channel": 2,
      "note": 98,
      "start": 38.6855,
      "duration": 0.1529,
      "velocity": 99,
      "chip": "ym2612"
    },
    {
      "channel": 4,
      "note": 85,
      "start": 38.7892,
      "duration": 0.1543,
      "velocity": 99,
      "chip": "ym2612"
    },
    {
      "channel": 3,
      "note": 49,
      "start": 38.824,
      "duration": 0.1547,
      "velocity": 102,
      "chip": "ym2612"
    },
    {
      "channel": 0,
      "note": 49,
      "start": 38.8555,
      "duration": 0.1569,
      "velocity": 102,
      "chip": "ym2612"
    },
    {
      "channel": 1,
      "note": 61,
      "start": 38.856,
      "duration": 0.1567,
      "velocity": 107,
      "chip": "ym2612"
    },
    {
      "channel": 2,
      "note": 97,
      "start": 38.8565,
      "duration": 0.1564,
      "velocity": 99,
      "chip": "ym2612"
    },
    {
      "channel": 4,
      "note": 98,
      "start": 38.9615,
      "duration": 0.1566,
      "velocity": 99,
      "chip": "ym2612"
    },
    {
      "channel": 3,
      "note": 50,
      "start": 38.9961,
      "duration": 0.1566,
      "velocity": 102,
      "chip": "ym2612"
    },
    {
      "channel": 0,
      "note": 52,
      "start": 39.0301,
      "duration": 0.1569,
      "velocity": 102,
      "chip": "ym2612"
    },
    {
      "channel": 1,
      "note": 64,
      "start": 39.0306,
      "duration": 0.1566,
      "velocity": 107,
      "chip": "ym2612"
    },
    {
      "channel": 2,
      "note": 100,
      "start": 39.031,
      "duration": 0.1564,
      "velocity": 99,
      "chip": "ym2612"
    },
    {
      "channel": 4,
      "note": 97,
      "start": 39.1358,
      "duration": 0.1569,
      "velocity": 99,
      "chip": "ym2612"
    },
    {
      "channel": 3,
      "note": 49,
      "start": 39.1705,
      "duration": 0.1569,
      "velocity": 102,
      "chip": "ym2612"
    },
    {
      "channel": 0,
      "note": 49,
      "start": 39.2046,
      "duration": 0.1569,
      "velocity": 102,
      "chip": "ym2612"
    },
    {
      "channel": 1,
      "note": 61,
      "start": 39.2051,
      "duration": 0.1569,
      "velocity": 107,
      "chip": "ym2612"
    },
    {
      "channel": 2,
      "note": 97,
      "start": 39.2056,
      "duration": 0.1567,
      "velocity": 99,
      "chip": "ym2612"
    },
    {
      "channel": 4,
      "note": 100,
      "start": 39.3103,
      "duration": 0.1569,
      "velocity": 99,
      "chip": "ym2612"
    },
    {
      "channel": 3,
      "note": 52,
      "start": 39.3455,
      "duration": 0.1564,
      "velocity": 102,
      "chip": "ym2612"
    },
    {
      "channel": 0,
      "note": 50,
      "start": 39.3791,
      "duration": 0.1569,
      "velocity": 102,
      "chip": "ym2612"
    },
    {
      "channel": 1,
      "note": 62,
      "start": 39.3798,
      "duration": 0.1566,
      "velocity": 107,
      "chip": "ym2612"
    },
    {
      "channel": 2,
      "note": 98,
      "start": 39.3819,
      "duration": 0.1546,
      "velocity": 99,
      "chip": "ym2612"
    },
    {
      "channel": 4,
      "note": 97,
      "start": 39.4875,
      "duration": 0.1543,
      "velocity": 99,
      "chip": "ym2612"
    },
    {
      "channel": 3,
      "note": 49,
      "start": 39.5221,
      "duration": 0.1543,
      "velocity": 102,
      "chip": "ym2612"
    },
    {
      "channel": 0,
      "note": 49,
      "start": 39.5537,
      "duration": 0.1569,
      "velocity": 102,
      "chip": "ym2612"
    },
    {
      "channel": 1,
      "note": 61,
      "start": 39.5542,
      "duration": 0.157,
      "velocity": 107,
      "chip": "ym2612"
    },
    {
      "channel": 2,
      "note": 97,
      "start": 39.5547,
      "duration": 0.1567,
      "velocity": 99,
      "chip": "ym2612"
    },
    {
      "channel": 4,
      "note": 98,
      "start": 39.6595,
      "duration": 0.1569,
      "velocity": 99,
      "chip": "ym2612"
    },
    {
      "channel": 3,
      "note": 50,
      "start": 39.6944,
      "duration": 0.1566,
      "velocity": 102,
      "chip": "ym2612"
    },
    {
      "channel": 0,
      "note": 52,
      "start": 39.7282,
      "duration": 0.1569,
      "velocity": 102,
      "chip": "ym2612"
    },
    {
      "channel": 1,
      "note": 64,
      "start": 39.729,
      "duration": 0.1564,
      "velocity": 107,
      "chip": "ym2612"
    },
    {
      "channel": 2,
      "note": 100,
      "start": 39.7295,
      "duration": 0.1562,
      "velocity": 99,
      "chip": "ym2612"
    },
    {
      "channel": 4,
      "note": 97,
      "start": 39.834,
      "duration": 0.1569,
      "velocity": 99,
      "chip": "ym2612"
    },
    {
      "channel": 3,
      "note": 49,
      "start": 39.8686,
      "duration": 0.1569,
      "velocity": 102,
      "chip": "ym2612"
    },
    {
      "channel": 0,
      "note": 49,
      "start": 39.9028,
      "duration": 0.1569,
      "velocity": 102,
      "chip": "ym2612"
    },
    {
      "channel": 1,
      "note": 61,
      "start": 39.9034,
      "duration": 0.1566,
      "velocity": 107,
      "chip": "ym2612"
    },
    {
      "channel": 2,
      "note": 97,
      "start": 39.9039,
      "duration": 0.1564,
      "velocity": 99,
      "chip": "ym2612"
    },
    {
      "channel": 4,
      "note": 100,
      "start": 40.0086,
      "duration": 0.0671,
      "velocity": 99,
      "chip": "ym2612"
    },
    {
      "channel": 3,
      "note": 52,
      "start": 40.0432,
      "duration": 0.0324,
      "velocity": 102,
      "chip": "ym2612"
    }
  ]
}