{
  "track_name": "21 - Sorrowful Requiem",
  "duration_sec": 74.578,
  "sample_rate": 44100,
  "note_count": 1388,
  "unique_pitches": 24,
  "pitch_range": 53,
  "avg_note_duration": 0.2387,
  "reconstruction_stats": {
    "notes_reconstructed": 1388,
    "keyon_events": 1388,
    "keyoff_events": 1388,
    "orphan_keyons": 0,
    "unique_pitches": 24,
    "pitch_range": 53,
    "avg_duration_sec": 0.2387
  },
  "metadata": {
    "source": "E\\Elemental Master\\21 - Sorrowful Requiem.vgz"
  },
  "notes": [
    {
      "channel": 0,
      "note": 71,
      "start": 0.0,
      "duration": 0.0717,
      "velocity": 95,
      "chip": "ym2612"
    },
    {
      "channel": 1,
      "note": 47,
      "start": 0.0016,
      "duration": 0.1641,
      "velocity": 99,
      "chip": "ym2612"
    },
    {
      "channel": 2,
      "note": 71,
      "start": 0.0034,
      "duration": 1.477,
      "velocity": 95,
      "chip": "ym2612"
    },
    {
      "channel": 3,
      "note": 64,
      "start": 0.0083,
      "duration": 0.0173,
      "velocity": 127,
      "chip": "ym2612"
    },
    {
      "channel": 4,
      "note": 66,
      "start": 0.01,
      "duration": 2.9732,
      "velocity": 101,
      "chip": "ym2612"
    },
    {
      "channel": 0,
      "note": 71,
      "start": 0.1045,
      "duration": 0.0611,
      "velocity": 95,
      "chip": "ym2612"
    },
    {
      "channel": 0,
      "note": 78,
      "start": 0.1984,
      "duration": 0.0611,
      "velocity": 95,
      "chip": "ym2612"
    },
    {
      "channel": 1,
      "note": 47,
      "start": 0.2,
      "duration": 2.7826,
      "velocity": 99,
      "chip": "ym2612"
    },
    {
      "channel": 3,
      "note": 64,
      "start": 0.2022,
      "duration": 0.0112,
      "velocity": 127,
      "chip": "ym2612"
    },
    {
      "channel": 5,
      "note": 71,
      "start": 0.2041,
      "duration": 1.4646,
      "velocity": 95,
      "chip": "ym2612"
    },
    {
      "channel": 0,
      "note": 78,
      "start": 0.2923,
      "duration": 0.0611,
      "velocity": 95,
      "chip": "ym2612"
    },
    {
      "channel": 0,
      "note": 76,
      "start": 0.3862,
      "duration": 0.0611,
      "velocity": 95,
      "chip": "ym2612"
    },
    {
      "channel": 0,
      "note": 76,
      "start": 0.4801,
      "duration": 0.0611,
      "velocity": 95,
      "chip": "ym2612"
    },
    {
      "channel": 0,
      "note": 78,
      "start": 0.574,
      "duration": 0.0611,
      "velocity": 95,
      "chip": "ym2612"
    },
    {
      "channel": 0,
      "note": 78,
      "start": 0.6678,
      "duration": 0.0611,
      "velocity": 95,
      "chip": "ym2612"
    },
    {
      "channel": 0,
      "note": 74,
      "start": 0.7617,
      "duration": 0.0611,
      "velocity": 95,
      "chip": "ym2612"
    },
    {
      "channel": 3,
      "note": 64,
      "start": 0.7673,
      "duration": 0.0095,
      "velocity": 127,
      "chip": "ym2612"
    },
    {
      "channel": 0,
      "note": 74,
      "start": 0.8557,
      "duration": 0.0611,
      "velocity": 95,
      "chip": "ym2612"
    },
    {
      "channel": 0,
      "note": 78,
      "start": 0.9496,
      "duration": 0.061,
      "velocity": 95,
      "chip": "ym2612"
    },
    {
      "channel": 0,
      "note": 78,
      "start": 1.0435,
      "duration": 0.0611,
      "velocity": 95,
      "chip": "ym2612"
    },
    {
      "channel": 0,
      "note": 73,
      "start": 1.1374,
      "duration": 0.0611,
      "velocity": 95,
      "chip": "ym2612"
    },
    {
      "channel": 0,
      "note": 73,
      "start": 1.2313,
      "duration": 0.0611,
      "velocity": 95,
      "chip": "ym2612"
    },
    {
      "channel": 0,
      "note": 78,
      "start": 1.3252,
      "duration": 0.0611,
      "velocity": 95,
      "chip": "ym2612"
    },
    {
      "channel": 0,
      "note": 78,
      "start": 1.4191,
      "duration": 0.0611,
      "velocity": 95,
      "chip": "ym2612"
    },
    {
      "channel": 0,
      "note": 71,
      "start": 1.5133,
      "duration": 0.0608,
      "velocity": 95,
      "chip": "ym2612"
    },
    {
      "channel": 2,
      "note": 73,
      "start": 1.5166,
      "duration": 0.7151,
      "velocity": 95,
      "chip": "ym2612"
    },
    {
      "channel": 0,
      "note": 71,
      "start": 1.6068,
      "duration": 0.0611,
      "velocity": 95,
      "chip": "ym2612"
    },
    {
      "channel": 0,
      "note": 78,
      "start": 1.7007,
      "duration": 0.0611,
      "velocity": 95,
      "chip": "ym2612"
    },
    {
      "channel": 5,
      "note": 73,
      "start": 1.703,
      "duration": 0.7172,
      "velocity": 95,
      "chip": "ym2612"
    },
    {
      "channel": 0,
      "note": 78,
      "start": 1.7946,
      "duration": 0.0611,
      "velocity": 95,
      "chip": "ym2612"
    },
    {
      "channel": 0,
      "note": 76,
      "start": 1.8886,
      "duration": 0.061,
      "velocity": 95,
      "chip": "ym2612"
    },
    {
      "channel": 0,
      "note": 76,
      "start": 1.9825,
      "duration": 0.0611,
      "velocity": 95,
      "chip": "ym2612"
    },
    {
      "channel": 0,
      "note": 78,
      "start": 2.0763,
      "duration": 0.0611,
      "velocity": 95,
      "chip": "ym2612"
    },
    {
      "channel": 0,
      "note": 78,
      "start": 2.1703,
      "duration": 0.061,
      "velocity": 95,
      "chip": "ym2612"
    },
    {
      "channel": 0,
      "note": 74,
      "start": 2.2642,
      "duration": 0.0611,
      "velocity": 95,
      "chip": "ym2612"
    },
    {
      "channel": 2,
      "note": 74,
      "start": 2.266,
      "duration": 0.7169,
      "velocity": 95,
      "chip": "ym2612"
    },
    {
      "channel": 3,
      "note": 64,
      "start": 2.2677,
      "duration": 0.0111,
      "velocity": 127,
      "chip": "ym2612"
    },
    {
      "channel": 0,
      "note": 74,
      "start": 2.358,
      "duration": 0.0611,
      "velocity": 95,
      "chip": "ym2612"
    },
    {
      "channel": 0,
      "note": 78,
      "start": 2.452,
      "duration": 0.0611,
      "velocity": 95,
      "chip": "ym2612"
    },
    {
      "channel": 5,
      "note": 74,
      "start": 2.4547,
      "duration": 0.7168,
      "velocity": 95,
      "chip": "ym2612"
    },
    {
      "channel": 0,
      "note": 78,
      "start": 2.5459,
      "duration": 0.0611,
      "velocity": 95,
      "chip": "ym2612"
    },
    {
      "channel": 0,
      "note": 73,
      "start": 2.6397,
      "duration": 0.0611,
      "velocity": 95,
      "chip": "ym2612"
    },
    {
      "channel": 0,
      "note": 73,
      "start": 2.7336,
      "duration": 0.0611,
      "velocity": 95,
      "chip": "ym2612"
    },
    {
      "channel": 0,
      "note": 78,
      "start": 2.8275,
      "duration": 0.0611,
      "velocity": 95,
      "chip": "ym2612"
    },
    {
      "channel": 0,
      "note": 78,
      "start": 2.9215,
      "duration": 0.061,
      "velocity": 95,
      "chip": "ym2612"
    },
    {
      "channel": 0,
      "note": 71,
      "start": 3.0156,
      "duration": 0.0607,
      "velocity": 95,
      "chip": "ym2612"
    },
    {
      "channel": 1,
      "note": 43,
      "start": 3.0175,
      "duration": 0.153,
      "velocity": 99,
      "chip": "ym2612"
    },
    {
      "channel": 2,
      "note": 74,
      "start": 3.0193,
      "duration": 1.4659,
      "velocity": 95,
      "chip": "ym2612"
    },
    {
      "channel": 3,
      "note": 64,
      "start": 3.0245,
      "duration": 0.0068,
      "velocity": 127,
      "chip": "ym2612"
    },
    {
      "channel": 4,
      "note": 67,
      "start": 3.0262,
      "duration": 2.9618,
      "velocity": 101,
      "chip": "ym2612"
    },
    {
      "channel": 0,
      "note": 71,
      "start": 3.1092,
      "duration": 0.0611,
      "velocity": 95,
      "chip": "ym2612"
    },
    {
      "channel": 0,
      "note": 78,
      "start": 3.2031,
      "duration": 0.0611,
      "velocity": 95,
      "chip": "ym2612"
    },
    {
      "channel": 1,
      "note": 43,
      "start": 3.2048,
      "duration": 2.7826,
      "velocity": 99,
      "chip": "ym2612"
    },
    {
      "channel": 3,
      "note": 64,
      "start": 3.207,
      "duration": 0.0112,
      "velocity": 127,
      "chip": "ym2612"
    },
    {
      "channel": 5,
      "note": 74,
      "start": 3.2088,
      "duration": 1.4646,
      "velocity": 95,
      "chip": "ym2612"
    },
    {
      "channel": 0,
      "note": 78,
      "start": 3.297,
      "duration": 0.0611,
      "velocity": 95,
      "chip": "ym2612"
    },
    {
      "channel": 0,
      "note": 76,
      "start": 3.391,
      "duration": 0.0611,
      "velocity": 95,
      "chip": "ym2612"
    },
    {
      "channel": 0,
      "note": 76,
      "start": 3.4848,
      "duration": 0.061,
      "velocity": 95,
      "chip": "ym2612"
    },
    {
      "channel": 0,
      "note": 78,
      "start": 3.5787,
      "duration": 0.0611,
      "velocity": 95,
      "chip": "ym2612"
    },
    {
      "channel": 0,
      "note": 78,
      "start": 3.6726,
      "duration": 0.0611,
      "velocity": 95,
      "chip": "ym2612"
    },
    {
      "channel": 0,
      "note": 74,
      "start": 3.7665,
      "duration": 0.0611,
      "velocity": 95,
      "chip": "ym2612"
    },
    {
      "channel": 3,
      "note": 64,
      "start": 3.772,
      "duration": 0.0095,
      "velocity": 127,
      "chip": "ym2612"
    },
    {
      "channel": 0,
      "note": 74,
      "start": 3.8604,
      "duration": 0.0611,
      "velocity": 95,
      "chip": "ym2612"
    },
    {
      "channel": 0,
      "note": 78,
      "start": 3.9551,
      "duration": 0.0602,
      "velocity": 95,
      "chip": "ym2612"
    },
    {
      "channel": 0,
      "note": 78,
      "start": 4.0482,
      "duration": 0.0618,
      "velocity": 95,
      "chip": "ym2612"
    },
    {
      "channel": 0,
      "note": 73,
      "start": 4.1421,
      "duration": 0.0611,
      "velocity": 95,
      "chip": "ym2612"
    },
    {
      "channel": 0,
      "note": 73,
      "start": 4.236,
      "duration": 0.0611,
      "velocity": 95,
      "chip": "ym2612"
    },
    {
      "channel": 0,
      "note": 78,
      "start": 4.3299,
      "duration": 0.0611,
      "velocity": 95,
      "chip": "ym2612"
    },
    {
      "channel": 0,
      "note": 78,
      "start": 4.4244,
      "duration": 0.0604,
      "velocity": 95,
      "chip": "ym2612"
    },
    {
      "channel": 0,
      "note": 71,
      "start": 4.518,
      "duration": 0.0613,
      "velocity": 95,
      "chip": "ym2612"
    },
    {
      "channel": 2,
      "note": 71,
      "start": 4.5212,
      "duration": 1.4664,
      "velocity": 95,
      "chip": "ym2612"
    },
    {
      "channel": 0,
      "note": 71,
      "start": 4.6116,
      "duration": 0.0611,
      "velocity": 95,
      "chip": "ym2612"
    },
    {
      "channel": 0,
      "note": 78,
      "start": 4.7055,
      "duration": 0.0611,
      "velocity": 95,
      "chip": "ym2612"
    },
    {
      "channel": 5,
      "note": 71,
      "start": 4.7077,
      "duration": 1.4686,
      "velocity": 95,
      "chip": "ym2612"
    },
    {
      "channel": 0,
      "note": 78,
      "start": 4.7994,
      "duration": 0.0611,
      "velocity": 95,
      "chip": "ym2612"
    },
    {
      "channel": 0,
      "note": 76,
      "start": 4.8937,
      "duration": 0.0607,
      "velocity": 95,
      "chip": "ym2612"
    },
    {
      "channel": 0,
      "note": 76,
      "start": 4.9873,
      "duration": 0.0613,
      "velocity": 95,
      "chip": "ym2612"
    },
    {
      "channel": 0,
      "note": 78,
      "start": 5.0811,
      "duration": 0.0611,
      "velocity": 95,
      "chip": "ym2612"
    },
    {
      "channel": 0,
      "note": 78,
      "start": 5.175,
      "duration": 0.0611,
      "velocity": 95,
      "chip": "ym2612"
    },
    {
      "channel": 0,
      "note": 74,
      "start": 5.2689,
      "duration": 0.0611,
      "velocity": 95,
      "chip": "ym2612"
    },
    {
      "channel": 3,
      "note": 64,
      "start": 5.2742,
      "duration": 0.0099,
      "velocity": 127,
      "chip": "ym2612"
    },
    {
      "channel": 0,
      "note": 74,
      "start": 5.3629,
      "duration": 0.0609,
      "velocity": 95,
      "chip": "ym2612"
    },
    {
      "channel": 0,
      "note": 78,
      "start": 5.4567,
      "duration": 0.0611,
      "velocity": 95,
      "chip": "ym2612"
    },
    {
      "channel": 0,
      "note": 78,
      "start": 5.5505,
      "duration": 0.0611,
      "velocity": 95,
      "chip": "ym2612"
    },
    {
      "channel": 0,
      "note": 73,
      "start": 5.6444,
      "duration": 0.0611,
      "velocity": 95,
      "chip": "ym2612"
    },
    {
      "channel": 0,
      "note": 73,
      "start": 5.7384,
      "duration": 0.061,
      "velocity": 95,
      "chip": "ym2612"
    },
    {
      "channel": 0,
      "note": 78,
      "start": 5.8323,
      "duration": 0.061,
      "velocity": 95,
      "chip": "ym2612"
    },
    {
      "channel": 0,
      "note": 78,
      "start": 5.9262,
      "duration": 0.061,
      "velocity": 95,
      "chip": "ym2612"
    },
    {
      "channel": 0,
      "note": 71,
      "start": 6.0203,
      "duration": 0.0608,
      "velocity": 95,
      "chip": "ym2612"
    },
    {
      "channel": 1,
      "note": 45,
      "start": 6.0222,
      "duration": 0.153,
      "velocity": 99,
      "chip": "ym2612"
    },
    {
      "channel": 2,
      "note": 69,
      "start": 6.024,
      "duration": 1.4659,
      "velocity": 95,
      "chip": "ym2612"
    },
    {
      "channel": 3,
      "note": 64,
      "start": 6.0294,
      "duration": 0.0069,
      "velocity": 127,
      "chip": "ym2612"
    },
    {
      "channel": 4,
      "note": 69,
      "start": 6.0311,
      "duration": 2.9616,
      "velocity": 101,
      "chip": "ym2612"
    },
    {
      "channel": 0,
      "note": 71,
      "start": 6.114,
      "duration": 0.0611,
      "velocity": 95,
      "chip": "ym2612"
    },
    {
      "channel": 0,
      "note": 78,
      "start": 6.2079,
      "duration": 0.0611,
      "velocity": 95,
      "chip": "ym2612"
    },
    {
      "channel": 1,
      "note": 45,
      "start": 6.2095,
      "duration": 2.7827,
      "velocity": 99,
      "chip": "ym2612"
    },
    {
      "channel": 3,
      "note": 64,
      "start": 6.2117,
      "duration": 0.0112,
      "velocity": 127,
      "chip": "ym2612"
    },
    {
      "channel": 5,
      "note": 69,
      "start": 6.2135,
      "duration": 1.4646,
      "velocity": 95,
      "chip": "ym2612"
    },
    {
      "channel": 0,
      "note": 78,
      "start": 6.3018,
      "duration": 0.0611,
      "velocity": 95,
      "chip": "ym2612"
    },
    {
      "channel": 0,
      "note": 76,
      "start": 6.3956,
      "duration": 0.0611,
      "velocity": 95,
      "chip": "ym2612"
    },
    {
      "channel": 0,
      "note": 76,
      "start": 6.4896,
      "duration": 0.061,
      "velocity": 95,
      "chip": "ym2612"
    },
    {
      "channel": 0,
      "note": 78,
      "start": 6.5834,
      "duration": 0.0611,
      "velocity": 95,
      "chip": "ym2612"
    },
    {
      "channel": 0,
      "note": 78,
      "start": 6.6773,
      "duration": 0.0611,
      "velocity": 95,
      "chip": "ym2612"
    },
    {
      "channel": 0,
      "note": 74,
      "start": 6.7713,
      "duration": 0.061,
      "velocity": 95,
      "chip": "ym2612"
    },
    {
      "channel": 3,
      "note": 64,
      "start": 6.7768,
      "duration": 0.0095,
      "velocity": 127,
      "chip": "ym2612"
    },
    {
      "channel": 0,
      "note": 74,
      "start": 6.8652,
      "duration": 0.061,
      "velocity": 95,
      "chip": "ym2612"
    },
    {
      "channel": 0,
      "note": 78,
      "start": 6.959,
      "duration": 0.0611,
      "velocity": 95,
      "chip": "ym2612"
    },
    {
      "channel": 0,
      "note": 78,
      "start": 7.053,
      "duration": 0.061,
      "velocity": 95,
      "chip": "ym2612"
    },
    {
      "channel": 0,
      "note": 73,
      "start": 7.1468,
      "duration": 0.0611,
      "velocity": 95,
      "chip": "ym2612"
    },
    {
      "channel": 0,
      "note": 73,
      "start": 7.2407,
      "duration": 0.0611,
      "velocity": 95,
      "chip": "ym2612"
    },
    {
      "channel": 0,
      "note": 78,
      "start": 7.3346,
      "duration": 0.061,
      "velocity": 95,
      "chip": "ym2612"
    },
    {
      "channel": 0,
      "note": 78,
      "start": 7.4285,
      "duration": 0.0611,
      "velocity": 95,
      "chip": "ym2612"
    },
    {
      "channel": 0,
      "note": 71,
      "start": 7.5227,
      "duration": 0.0608,
      "velocity": 95,
      "chip": "ym2612"
    },
    {
      "channel": 2,
      "note": 64,
      "start": 7.5263,
      "duration": 0.7148,
      "velocity": 95,
      "chip": "ym2612"
    },
    {
      "channel": 0,
      "note": 71,
      "start": 7.6163,
      "duration": 0.0611,
      "velocity": 95,
      "chip": "ym2612"
    },
    {
      "channel": 0,
      "note": 78,
      "start": 7.7102,
      "duration": 0.0611,
      "velocity": 95,
      "chip": "ym2612"
    },
    {
      "channel": 5,
      "note": 64,
      "start": 7.7127,
      "duration": 0.717,
      "velocity": 95,
      "chip": "ym2612"
    },
    {
      "channel": 0,
      "note": 78,
      "start": 7.8041,
      "duration": 0.0611,
      "velocity": 95,
      "chip": "ym2612"
    },
    {
      "channel": 0,
      "note": 76,
      "start": 7.898,
      "duration": 0.0611,
      "velocity": 95,
      "chip": "ym2612"
    },
    {
      "channel": 0,
      "note": 76,
      "start": 7.9919,
      "duration": 0.0611,
      "velocity": 95,
      "chip": "ym2612"
    },
    {
      "channel": 0,
      "note": 78,
      "start": 8.0858,
      "duration": 0.0611,
      "velocity": 95,
      "chip": "ym2612"
    },
    {
      "channel": 0,
      "note": 78,
      "start": 8.1798,
      "duration": 0.061,
      "velocity": 95,
      "chip": "ym2612"
    },
    {
      "channel": 0,
      "note": 74,
      "start": 8.2737,
      "duration": 0.061,
      "velocity": 95,
      "chip": "ym2612"
    },
    {
      "channel": 2,
      "note": 69,
      "start": 8.2755,
      "duration": 0.7169,
      "velocity": 95,
      "chip": "ym2612"
    },
    {
      "channel": 3,
      "note": 64,
      "start": 8.2771,
      "duration": 0.0111,
      "velocity": 127,
      "chip": "ym2612"
    },
    {
      "channel": 0,
      "note": 74,
      "start": 8.3675,
      "duration": 0.061,
      "velocity": 95,
      "chip": "ym2612"
    },
    {
      "channel": 0,
      "note": 78,
      "start": 8.4614,
      "duration": 0.061,
      "velocity": 95,
      "chip": "ym2612"
    },
    {
      "channel": 5,
      "note": 69,
      "start": 8.464,
      "duration": 0.7179,
      "velocity": 95,
      "chip": "ym2612"
    },
    {
      "channel": 0,
      "note": 78,
      "start": 8.5553,
      "duration": 0.0611,
      "velocity": 95,
      "chip": "ym2612"
    },
    {
      "channel": 0,
      "note": 73,
      "start": 8.6492,
      "duration": 0.0611,
      "velocity": 95,
      "chip": "ym2612"
    },
    {
      "channel": 0,
      "note": 73,
      "start": 8.7431,
      "duration": 0.0611,
      "velocity": 95,
      "chip": "ym2612"
    },
    {
      "channel": 0,
      "note": 78,
      "start": 8.837,
      "duration": 0.0611,
      "velocity": 95,
      "chip": "ym2612"
    },
    {
      "channel": 0,
      "note": 78,
      "start": 8.9309,
      "duration": 0.0611,
      "velocity": 95,
      "chip": "ym2612"
    },
    {
      "channel": 0,
      "note": 71,
      "start": 9.025,
      "duration": 0.0608,
      "velocity": 95,
      "chip": "ym2612"
    },
    {
      "channel": 1,
      "note": 47,
      "start": 9.027,
      "duration": 0.1538,
      "velocity": 99,
      "chip": "ym2612"
    },
    {
      "channel": 2,
      "note": 67,
      "start": 9.0287,
      "duration": 2.9684,
      "velocity": 95,
      "chip": "ym2612"
    },
    {
      "channel": 3,
      "note": 64,
      "start": 9.0339,
      "duration": 0.0068,
      "velocity": 127,
      "chip": "ym2612"
    },
    {
      "channel": 4,
      "note": 71,
      "start": 9.0356,
      "duration": 2.9623,
      "velocity": 101,
      "chip": "ym2612"
    },
    {
      "channel": 0,
      "note": 71,
      "start": 9.1187,
      "duration": 0.062,
      "velocity": 95,
      "chip": "ym2612"
    },
    {
      "channel": 0,
      "note": 78,
      "start": 9.2126,
      "duration": 0.0611,
      "velocity": 95,
      "chip": "ym2612"
    },
    {
      "channel": 1,
      "note": 47,
      "start": 9.2142,
      "duration": 2.7826,
      "velocity": 99,
      "chip": "ym2612"
    },
    {
      "channel": 3,
      "note": 64,
      "start": 9.2165,
      "duration": 0.0111,
      "velocity": 127,
      "chip": "ym2612"
    },
    {
      "channel": 5,
      "note": 67,
      "start": 9.2183,
      "duration": 2.9831,
      "velocity": 95,
      "chip": "ym2612"
    },
    {
      "channel": 0,
      "note": 78,
      "start": 9.3065,
      "duration": 0.0611,
      "velocity": 95,
      "chip": "ym2612"
    },
    {
      "channel": 0,
      "note": 76,
      "start": 9.4004,
      "duration": 0.0611,
      "velocity": 95,
      "chip": "ym2612"
    },
    {
      "channel": 0,
      "note": 76,
      "start": 9.495,
      "duration": 0.0603,
      "velocity": 95,
      "chip": "ym2612"
    },
    {
      "channel": 0,
      "note": 78,
      "start": 9.5882,
      "duration": 0.0617,
      "velocity": 95,
      "chip": "ym2612"
    },
    {
      "channel": 0,
      "note": 78,
      "start": 9.682,
      "duration": 0.0611,
      "velocity": 95,
      "chip": "ym2612"
    },
    {
      "channel": 0,
      "note": 74,
      "start": 9.776,
      "duration": 0.061,
      "velocity": 95,
      "chip": "ym2612"
    },
    {
      "channel": 3,
      "note": 64,
      "start": 9.7815,
      "duration": 0.0095,
      "velocity": 127,
      "chip": "ym2612"
    },
    {
      "channel": 0,
      "note": 74,
      "start": 9.8699,
      "duration": 0.0611,
      "velocity": 95,
      "chip": "ym2612"
    },
    {
      "channel": 0,
      "note": 78,
      "start": 9.9643,
      "duration": 0.0605,
      "velocity": 95,
      "chip": "ym2612"
    },
    {
      "channel": 0,
      "note": 78,
      "start": 10.0577,
      "duration": 0.0615,
      "velocity": 95,
      "chip": "ym2612"
    },
    {
      "channel": 0,
      "note": 73,
      "start": 10.1516,
      "duration": 0.0611,
      "velocity": 95,
      "chip": "ym2612"
    },
    {
      "channel": 0,
      "note": 73,
      "start": 10.2455,
      "duration": 0.0611,
      "velocity": 95,
      "chip": "ym2612"
    },
    {
      "channel": 0,
      "note": 78,
      "start": 10.3394,
      "duration": 0.061,
      "velocity": 95,
      "chip": "ym2612"
    },
    {
      "channel": 0,
      "note": 78,
      "start": 10.4336,
      "duration": 0.0607,
      "velocity": 95,
      "chip": "ym2612"
    },
    {
      "channel": 0,
      "note": 71,
      "start": 10.5274,
      "duration": 0.0611,
      "velocity": 95,
      "chip": "ym2612"
    },
    {
      "channel": 0,
      "note": 71,
      "start": 10.621,
      "duration": 0.0611,
      "velocity": 95,
      "chip": "ym2612"
    },
    {
      "channel": 0,
      "note": 78,
      "start": 10.715,
      "duration": 0.061,
      "velocity": 95,
      "chip": "ym2612"
    },
    {
      "channel": 0,
      "note": 78,
      "start": 10.8088,
      "duration": 0.0611,
      "velocity": 95,
      "chip": "ym2612"
    },
    {
      "channel": 0,
      "note": 76,
      "start": 10.9028,
      "duration": 0.061,
      "velocity": 95,
      "chip": "ym2612"
    },
    {
      "channel": 0,
      "note": 76,
      "start": 10.9967,
      "duration": 0.0611,
      "velocity": 95,
      "chip": "ym2612"
    },
    {
      "channel": 0,
      "note": 78,
      "start": 11.0906,
      "duration": 0.0611,
      "velocity": 95,
      "chip": "ym2612"
    },
    {
      "channel": 0,
      "note": 78,
      "start": 11.1845,
      "duration": 0.0611,
      "velocity": 95,
      "chip": "ym2612"
    },
    {
      "channel": 0,
      "note": 74,
      "start": 11.2783,
      "duration": 0.0611,
      "velocity": 95,
      "chip": "ym2612"
    },
    {
      "channel": 3,
      "note": 73,
      "start": 11.2837,
      "duration": 0.0097,
      "velocity": 127,
      "chip": "ym2612"
    },
    {
      "channel": 0,
      "note": 74,
      "start": 11.3722,
      "duration": 0.0611,
      "velocity": 95,
      "chip": "ym2612"
    },
    {
      "channel": 0,
      "note": 78,
      "start": 11.4661,
      "duration": 0.0611,
      "velocity": 95,
      "chip": "ym2612"
    },
    {
      "channel": 3,
      "note": 73,
      "start": 11.4685,
      "duration": 0.0127,
      "velocity": 127,
      "chip": "ym2612"
    },
    {
      "channel": 0,
      "note": 78,
      "start": 11.56,
      "duration": 0.0611,
      "velocity": 95,
      "chip": "ym2612"
    },
    {
      "channel": 0,
      "note": 73,
      "start": 11.654,
      "duration": 0.061,
      "velocity": 95,
      "chip": "ym2612"
    },
    {
      "channel": 0,
      "note": 73,
      "start": 11.7478,
      "duration": 0.0611,
      "velocity": 95,
      "chip": "ym2612"
    },
    {
      "channel": 0,
      "note": 78,
      "start": 11.8417,
      "duration": 0.0611,
      "velocity": 95,
      "chip": "ym2612"
    },
    {
      "channel": 0,
      "note": 78,
      "start": 11.9357,
      "duration": 0.061,
      "velocity": 95,
      "chip": "ym2612"
    },
    {
      "channel": 0,
      "note": 71,
      "start": 12.0298,
      "duration": 0.0764,
      "velocity": 95,
      "chip": "ym2612"
    },
    {
      "channel": 1,
      "note": 47,
      "start": 12.0317,
      "duration": 0.1686,
      "velocity": 99,
      "chip": "ym2612"
    },
    {
      "channel": 2,
      "note": 71,
      "start": 12.0338,
      "duration": 1.4813,
      "velocity": 95,
      "chip": "ym2612"
    },
    {
      "channel": 3,
      "note": 64,
      "start": 12.0395,
      "duration": 0.0206,
      "velocity": 127,
      "chip": "ym2612"
    },
    {
      "channel": 4,
      "note": 66,
      "start": 12.0416,
      "duration": 2.9763,
      "velocity": 101,
      "chip": "ym2612"
    },
    {
      "channel": 0,
      "note": 71,
      "start": 12.1391,
      "duration": 0.061,
      "velocity": 95,
      "chip": "ym2612"
    },
    {
      "channel": 0,
      "note": 78,
      "start": 12.233,
      "duration": 0.061,
      "velocity": 95,
      "chip": "ym2612"
    },
    {
      "channel": 1,
      "note": 47,
      "start": 12.2346,
      "duration": 2.7827,
      "velocity": 99,
      "chip": "ym2612"
    },
    {
      "channel": 3,
      "note": 64,
      "start": 12.2368,
      "duration": 0.0112,
      "velocity": 127,
      "chip": "ym2612"
    },
    {
      "channel": 5,
      "note": 71,
      "start": 12.239,
      "duration": 1.4642,
      "velocity": 95,
      "chip": "ym2612"
    },
    {
      "channel": 0,
      "note": 78,
      "start": 12.3268,
      "duration": 0.0611,
      "velocity": 95,
      "chip": "ym2612"
    },
    {
      "channel": 0,
      "note": 76,
      "start": 12.4208,
      "duration": 0.0611,
      "velocity": 95,
      "chip": "ym2612"
    },
    {
      "channel": 0,
      "note": 76,
      "start": 12.5147,
      "duration": 0.0611,
      "velocity": 95,
      "chip": "ym2612"
    },
    {
      "channel": 0,
      "note": 78,
      "start": 12.6086,
      "duration": 0.0611,
      "velocity": 95,
      "chip": "ym2612"
    },
    {
      "channel": 0,
      "note": 78,
      "start": 12.7025,
      "duration": 0.0611,
      "velocity": 95,
      "chip": "ym2612"
    },
    {
      "channel": 0,
      "note": 74,
      "start": 12.7963,
      "duration": 0.0611,
      "velocity": 95,
      "chip": "ym2612"
    },
    {
      "channel": 3,
      "note": 64,
      "start": 12.8018,
      "duration": 0.0095,
      "velocity": 127,
      "chip": "ym2612"
    },
    {
      "channel": 0,
      "note": 74,
      "start": 12.8902,
      "duration": 0.0611,
      "velocity": 95,
      "chip": "ym2612"
    },
    {
      "channel": 0,
      "note": 78,
      "start": 12.9841,
      "duration": 0.0611,
      "velocity": 95,
      "chip": "ym2612"
    },
    {
      "channel": 0,
      "note": 78,
      "start": 13.078,
      "duration": 0.0611,
      "velocity": 95,
      "chip": "ym2612"
    },
    {
      "channel": 0,
      "note": 73,
      "start": 13.172,
      "duration": 0.061,
      "velocity": 95,
      "chip": "ym2612"
    },
    {
      "channel": 0,
      "note": 73,
      "start": 13.2658,
      "duration": 0.0611,
      "velocity": 95,
      "chip": "ym2612"
    },
    {
      "channel": 0,
      "note": 78,
      "start": 13.3598,
      "duration": 0.061,
      "velocity": 95,
      "chip": "ym2612"
    },
    {
      "channel": 0,
      "note": 78,
      "start": 13.4536,
      "duration": 0.0611,
      "velocity": 95,
      "chip": "ym2612"
    },
    {
      "channel": 0,
      "note": 71,
      "start": 13.5478,
      "duration": 0.0608,
      "velocity": 95,
      "chip": "ym2612"
    },
    {
      "channel": 2,
      "note": 73,
      "start": 13.5511,
      "duration": 0.7151,
      "velocity": 95,
      "chip": "ym2612"
    },
    {
      "channel": 0,
      "note": 71,
      "start": 13.6415,
      "duration": 0.061,
      "velocity": 95,
      "chip": "ym2612"
    },
    {
      "channel": 0,
      "note": 78,
      "start": 13.7354,
      "duration": 0.0611,
      "velocity": 95,
      "chip": "ym2612"
    },
    {
      "channel": 5,
      "note": 73,
      "start": 13.7376,
      "duration": 0.7172,
      "velocity": 95,
      "chip": "ym2612"
    },
    {
      "channel": 0,
      "note": 78,
      "start": 13.8293,
      "duration": 0.0611,
      "velocity": 95,
      "chip": "ym2612"
    },
    {
      "channel": 0,
      "note": 76,
      "start": 13.9231,
      "duration": 0.0611,
      "velocity": 95,
      "chip": "ym2612"
    },
    {
      "channel": 0,
      "note": 76,
      "start": 14.017,
      "duration": 0.0611,
      "velocity": 95,
      "chip": "ym2612"
    },
    {
      "channel": 0,
      "note": 78,
      "start": 14.1109,
      "duration": 0.0611,
      "velocity": 95,
      "chip": "ym2612"
    },
    {
      "channel": 0,
      "note": 78,
      "start": 14.2049,
      "duration": 0.061,
      "velocity": 95,
      "chip": "ym2612"
    },
    {
      "channel": 0,
      "note": 74,
      "start": 14.2987,
      "duration": 0.0611,
      "velocity": 95,
      "chip": "ym2612"
    },
    {
      "channel": 2,
      "note": 74,
      "start": 14.3005,
      "duration": 0.7169,
      "velocity": 95,
      "chip": "ym2612"
    },
    {
      "channel": 3,
      "note": 64,
      "start": 14.3022,
      "duration": 0.0111,
      "velocity": 127,
      "chip": "ym2612"
    },
    {
      "channel": 0,
      "note": 74,
      "start": 14.3926,
      "duration": 0.0611,
      "velocity": 95,
      "chip": "ym2612"
    },
    {
      "channel": 0,
      "note": 78,
      "start": 14.4865,
      "duration": 0.0611,
      "velocity": 95,
      "chip": "ym2612"
    },
    {
      "channel": 5,
      "note": 74,
      "start": 14.4891,
      "duration": 0.717,
      "velocity": 95,
      "chip": "ym2612"
    },
    {
      "channel": 0,
      "note": 78,
      "start": 14.5804,
      "duration": 0.0625,
      "velocity": 95,
      "chip": "ym2612"
    },
    {
      "channel": 0,
      "note": 73,
      "start": 14.6743,
      "duration": 0.0611,
      "velocity": 95,
      "chip": "ym2612"
    },
    {
      "channel": 0,
      "note": 73,
      "start": 14.7682,
      "duration": 0.0611,
      "velocity": 95,
      "chip": "ym2612"
    },
    {
      "channel": 0,
      "note": 78,
      "start": 14.8621,
      "duration": 0.0611,
      "velocity": 95,
      "chip": "ym2612"
    },
    {
      "channel": 0,
      "note": 78,
      "start": 14.9568,
      "duration": 0.0603,
      "velocity": 95,
      "chip": "ym2612"
    },
    {
      "channel": 0,
      "note": 71,
      "start": 15.0502,
      "duration": 0.0614,
      "velocity": 95,
      "chip": "ym2612"
    },
    {
      "channel": 1,
      "note": 43,
      "start": 15.0521,
      "duration": 0.153,
      "velocity": 99,
      "chip": "ym2612"
    },
    {
      "channel": 2,
      "note": 74,
      "start": 15.0539,
      "duration": 1.4659,
      "velocity": 95,
      "chip": "ym2612"
    },
    {
      "channel": 3,
      "note": 64,
      "start": 15.0591,
      "duration": 0.0068,
      "velocity": 127,
      "chip": "ym2612"
    },
    {
      "channel": 4,
      "note": 67,
      "start": 15.0608,
      "duration": 2.9618,
      "velocity": 101,
      "chip": "ym2612"
    },
    {
      "channel": 0,
      "note": 71,
      "start": 15.1438,
      "duration": 0.0611,
      "velocity": 95,
      "chip": "ym2612"
    },
    {
      "channel": 0,
      "note": 78,
      "start": 15.2377,
      "duration": 0.0611,
      "velocity": 95,
      "chip": "ym2612"
    },
    {
      "channel": 1,
      "note": 43,
      "start": 15.2394,
      "duration": 2.7826,
      "velocity": 99,
      "chip": "ym2612"
    },
    {
      "channel": 3,
      "note": 64,
      "start": 15.2416,
      "duration": 0.0111,
      "velocity": 127,
      "chip": "ym2612"
    },
    {
      "channel": 5,
      "note": 74,
      "start": 15.2434,
      "duration": 1.4645,
      "velocity": 95,
      "chip": "ym2612"
    },
    {
      "channel": 0,
      "note": 78,
      "start": 15.3316,
      "duration": 0.0611,
      "velocity": 95,
      "chip": "ym2612"
    },
    {
      "channel": 0,
      "note": 76,
      "start": 15.426,
      "duration": 0.0605,
      "velocity": 95,
      "chip": "ym2612"
    },
    {
      "channel": 0,
      "note": 76,
      "start": 15.5194,
      "duration": 0.0619,
      "velocity": 95,
      "chip": "ym2612"
    },
    {
      "channel": 0,
      "note": 78,
      "start": 15.6133,
      "duration": 0.0611,
      "velocity": 95,
      "chip": "ym2612"
    },
    {
      "channel": 0,
      "note": 78,
      "start": 15.7072,
      "duration": 0.0611,
      "velocity": 95,
      "chip": "ym2612"
    },
    {
      "channel": 0,
      "note": 74,
      "start": 15.8011,
      "duration": 0.0611,
      "velocity": 95,
      "chip": "ym2612"
    },
    {
      "channel": 3,
      "note": 64,
      "start": 15.8066,
      "duration": 0.0098,
      "velocity": 127,
      "chip": "ym2612"
    },
    {
      "channel": 0,
      "note": 74,
      "start": 15.8953,
      "duration": 0.0607,
      "velocity": 95,
      "chip": "ym2612"
    },
    {
      "channel": 0,
      "note": 78,
      "start": 15.9889,
      "duration": 0.0613,
      "velocity": 95,
      "chip": "ym2612"
    },
    {
      "channel": 0,
      "note": 78,
      "start": 16.0828,
      "duration": 0.0611,
      "velocity": 95,
      "chip": "ym2612"
    },
    {
      "channel": 0,
      "note": 73,
      "start": 16.1767,
      "duration": 0.0611,
      "velocity": 95,
      "chip": "ym2612"
    },
    {
      "channel": 0,
      "note": 73,
      "start": 16.2707,
      "duration": 0.061,
      "velocity": 95,
      "chip": "ym2612"
    },
    {
      "channel": 0,
      "note": 78,
      "start": 16.3649,
      "duration": 0.0606,
      "velocity": 95,
      "chip": "ym2612"
    },
    {
      "channel": 0,
      "note": 78,
      "start": 16.4584,
      "duration": 0.0611,
      "velocity": 95,
      "chip": "ym2612"
    },
    {
      "channel": 0,
      "note": 71,
      "start": 16.5525,
      "duration": 0.0608,
      "velocity": 95,
      "chip": "ym2612"
    },
    {
      "channel": 2,
      "note": 71,
      "start": 16.5558,
      "duration": 1.4664,
      "velocity": 95,
      "chip": "ym2612"
    },
    {
      "channel": 0,
      "note": 71,
      "start": 16.6462,
      "duration": 0.0611,
      "velocity": 95,
      "chip": "ym2612"
    },
    {
      "channel": 0,
      "note": 78,
      "start": 16.74,
      "duration": 0.0611,
      "velocity": 95,
      "chip": "ym2612"
    },
    {
      "channel": 5,
      "note": 71,
      "start": 16.7422,
      "duration": 1.4686,
      "velocity": 95,
      "chip": "ym2612"
    },
    {
      "channel": 0,
      "note": 78,
      "start": 16.8339,
      "duration": 0.0611,
      "velocity": 95,
      "chip": "ym2612"
    },
    {
      "channel": 0,
      "note": 76,
      "start": 16.9278,
      "duration": 0.0611,
      "velocity": 95,
      "chip": "ym2612"
    },
    {
      "channel": 0,
      "note": 76,
      "start": 17.0218,
      "duration": 0.061,
      "velocity": 95,
      "chip": "ym2612"
    },
    {
      "channel": 0,
      "note": 78,
      "start": 17.1156,
      "duration": 0.0611,
      "velocity": 95,
      "chip": "ym2612"
    },
    {
      "channel": 0,
      "note": 78,
      "start": 17.2096,
      "duration": 0.0611,
      "velocity": 95,
      "chip": "ym2612"
    },
    {
      "channel": 0,
      "note": 74,
      "start": 17.3035,
      "duration": 0.061,
      "velocity": 95,
      "chip": "ym2612"
    },
    {
      "channel": 3,
      "note": 64,
      "start": 17.3088,
      "duration": 0.0096,
      "velocity": 127,
      "chip": "ym2612"
    },
    {
      "channel": 0,
      "note": 74,
      "start": 17.3974,
      "duration": 0.0611,
      "velocity": 95,
      "chip": "ym2612"
    },
    {
      "channel": 0,
      "note": 78,
      "start": 17.4913,
      "duration": 0.0611,
      "velocity": 95,
      "chip": "ym2612"
    },
    {
      "channel": 0,
      "note": 78,
      "start": 17.5851,
      "duration": 0.0611,
      "velocity": 95,
      "chip": "ym2612"
    },
    {
      "channel": 0,
      "note": 73,
      "start": 17.679,
      "duration": 0.0611,
      "velocity": 95,
      "chip": "ym2612"
    },
    {
      "channel": 0,
      "note": 73,
      "start": 17.7729,
      "duration": 0.0611,
      "velocity": 95,
      "chip": "ym2612"
    },
    {
      "channel": 0,
      "note": 78,
      "start": 17.8668,
      "duration": 0.0611,
      "velocity": 95,
      "chip": "ym2612"
    },
    {
      "channel": 0,
      "note": 78,
      "start": 17.9607,
      "duration": 0.0611,
      "velocity": 95,
      "chip": "ym2612"
    },
    {
      "channel": 0,
      "note": 71,
      "start": 18.0549,
      "duration": 0.0607,
      "velocity": 95,
      "chip": "ym2612"
    },
    {
      "channel": 1,
      "note": 45,
      "start": 18.0568,
      "duration": 0.1529,
      "velocity": 99,
      "chip": "ym2612"
    },
    {
      "channel": 2,
      "note": 69,
      "start": 18.0586,
      "duration": 1.4659,
      "velocity": 95,
      "chip": "ym2612"
    },
    {
      "channel": 3,
      "note": 64,
      "start": 18.064,
      "duration": 0.0069,
      "velocity": 127,
      "chip": "ym2612"
    },
    {
      "channel": 4,
      "note": 69,
      "start": 18.0657,
      "duration": 2.9616,
      "velocity": 101,
      "chip": "ym2612"
    },
    {
      "channel": 0,
      "note": 71,
      "start": 18.1485,
      "duration": 0.0611,
      "velocity": 95,
      "chip": "ym2612"
    },
    {
      "channel": 0,
      "note": 78,
      "start": 18.2424,
      "duration": 0.0611,
      "velocity": 95,
      "chip": "ym2612"
    },
    {
      "channel": 1,
      "note": 45,
      "start": 18.2441,
      "duration": 2.7827,
      "velocity": 99,
      "chip": "ym2612"
    },
    {
      "channel": 3,
      "note": 64,
      "start": 18.2463,
      "duration": 0.0111,
      "velocity": 127,
      "chip": "ym2612"
    },
    {
      "channel": 5,
      "note": 69,
      "start": 18.2481,
      "duration": 1.4646,
      "velocity": 95,
      "chip": "ym2612"
    },
    {
      "channel": 0,
      "note": 78,
      "start": 18.3363,
      "duration": 0.0611,
      "velocity": 95,
      "chip": "ym2612"
    },
    {
      "channel": 0,
      "note": 76,
      "start": 18.4302,
      "duration": 0.0611,
      "velocity": 95,
      "chip": "ym2612"
    },
    {
      "channel": 0,
      "note": 76,
      "start": 18.5241,
      "duration": 0.0611,
      "velocity": 95,
      "chip": "ym2612"
    },
    {
      "channel": 0,
      "note": 78,
      "start": 18.618,
      "duration": 0.0611,
      "velocity": 95,
      "chip": "ym2612"
    },
    {
      "channel": 0,
      "note": 78,
      "start": 18.712,
      "duration": 0.061,
      "velocity": 95,
      "chip": "ym2612"
    },
    {
      "channel": 0,
      "note": 74,
      "start": 18.8058,
      "duration": 0.0611,
      "velocity": 95,
      "chip": "ym2612"
    },
    {
      "channel": 3,
      "note": 64,
      "start": 18.8114,
      "duration": 0.0094,
      "velocity": 127,
      "chip": "ym2612"
    },
    {
      "channel": 0,
      "note": 74,
      "start": 18.8997,
      "duration": 0.0611,
      "velocity": 95,
      "chip": "ym2612"
    },
    {
      "channel": 0,
      "note": 78,
      "start": 18.9936,
      "duration": 0.0611,
      "velocity": 95,
      "chip": "ym2612"
    },
    {
      "channel": 0,
      "note": 78,
      "start": 19.0875,
      "duration": 0.0611,
      "velocity": 95,
      "chip": "ym2612"
    },
    {
      "channel": 0,
      "note": 73,
      "start": 19.1814,
      "duration": 0.0611,
      "velocity": 95,
      "chip": "ym2612"
    },
    {
      "channel": 0,
      "note": 73,
      "start": 19.2753,
      "duration": 0.0611,
      "velocity": 95,
      "chip": "ym2612"
    },
    {
      "channel": 0,
      "note": 78,
      "start": 19.3692,
      "duration": 0.0611,
      "velocity": 95,
      "chip": "ym2612"
    },
    {
      "channel": 0,
      "note": 78,
      "start": 19.4631,
      "duration": 0.0611,
      "velocity": 95,
      "chip": "ym2612"
    },
    {
      "channel": 0,
      "note": 71,
      "start": 19.5573,
      "duration": 0.0607,
      "velocity": 95,
      "chip": "ym2612"
    },
    {
      "channel": 2,
      "note": 71,
      "start": 19.5609,
      "duration": 0.7148,
      "velocity": 95,
      "chip": "ym2612"
    },
    {
      "channel": 0,
      "note": 71,
      "start": 19.6509,
      "duration": 0.0611,
      "velocity": 95,
      "chip": "ym2612"
    },
    {
      "channel": 0,
      "note": 78,
      "start": 19.7448,
      "duration": 0.0611,
      "velocity": 95,
      "chip": "ym2612"
    },
    {
      "channel": 5,
      "note": 71,
      "start": 19.7472,
      "duration": 0.7171,
      "velocity": 95,
      "chip": "ym2612"
    },
    {
      "channel": 0,
      "note": 78,
      "start": 19.8387,
      "duration": 0.061,
      "velocity": 95,
      "chip": "ym2612"
    },
    {
      "channel": 0,
      "note": 76,
      "start": 19.9326,
      "duration": 0.061,
      "velocity": 95,
      "chip": "ym2612"
    },
    {
      "channel": 0,
      "note": 76,
      "start": 20.0274,
      "duration": 0.0602,
      "velocity": 95,
      "chip": "ym2612"
    },
    {
      "channel": 0,
      "note": 78,
      "start": 20.1204,
      "duration": 0.0619,
      "velocity": 95,
      "chip": "ym2612"
    },
    {
      "channel": 0,
      "note": 78,
      "start": 20.2143,
      "duration": 0.0611,
      "velocity": 95,
      "chip": "ym2612"
    },
    {
      "channel": 0,
      "note": 74,
      "start": 20.3082,
      "duration": 0.0611,
      "velocity": 95,
      "chip": "ym2612"
    },
    {
      "channel": 2,
      "note": 73,
      "start": 20.31,
      "duration": 0.7169,
      "velocity": 95,
      "chip": "ym2612"
    },
    {
      "channel": 3,
      "note": 64,
      "start": 20.3117,
      "duration": 0.0111,
      "velocity": 127,
      "chip": "ym2612"
    },
    {
      "channel": 0,
      "note": 74,
      "start": 20.4021,
      "duration": 0.0611,
      "velocity": 95,
      "chip": "ym2612"
    },
    {
      "channel": 0,
      "note": 78,
      "start": 20.4967,
      "duration": 0.0604,
      "velocity": 95,
      "chip": "ym2612"
    },
    {
      "channel": 5,
      "note": 73,
      "start": 20.4993,
      "duration": 0.7163,
      "velocity": 95,
      "chip": "ym2612"
    },
    {
      "channel": 0,
      "note": 78,
      "start": 20.5899,
      "duration": 0.0617,
      "velocity": 95,
      "chip": "ym2612"
    },
    {
      "channel": 0,
      "note": 73,
      "start": 20.6838,
      "duration": 0.0611,
      "velocity": 95,
      "chip": "ym2612"
    },
    {
      "channel": 0,
      "note": 73,
      "start": 20.7776,
      "duration": 0.0611,
      "velocity": 95,
      "chip": "ym2612"
    },
    {
      "channel": 0,
      "note": 78,
      "start": 20.8716,
      "duration": 0.061,
      "velocity": 95,
      "chip": "ym2612"
    },
    {
      "channel": 0,
      "note": 78,
      "start": 20.9659,
      "duration": 0.0606,
      "velocity": 95,
      "chip": "ym2612"
    },
    {
      "channel": 0,
      "note": 71,
      "start": 21.0597,
      "duration": 0.0612,
      "velocity": 95,
      "chip": "ym2612"
    },
    {
      "channel": 1,
      "note": 47,
      "start": 21.0616,
      "duration": 0.153,
      "velocity": 99,
      "chip": "ym2612"
    },
    {
      "channel": 2,
      "note": 71,
      "start": 21.0633,
      "duration": 2.9683,
      "velocity": 95,
      "chip": "ym2612"
    },
    {
      "channel": 3,
      "note": 64,
      "start": 21.0685,
      "duration": 0.0068,
      "velocity": 127,
      "chip": "ym2612"
    },
    {
      "channel": 4,
      "note": 71,
      "start": 21.0702,
      "duration": 2.9622,
      "velocity": 101,
      "chip": "ym2612"
    },
    {
      "channel": 0,
      "note": 71,
      "start": 21.1532,
      "duration": 0.0611,
      "velocity": 95,
      "chip": "ym2612"
    },
    {
      "channel": 0,
      "note": 78,
      "start": 21.2472,
      "duration": 0.061,
      "velocity": 95,
      "chip": "ym2612"
    },
    {
      "channel": 1,
      "note": 47,
      "start": 21.2488,
      "duration": 2.2193,
      "velocity": 99,
      "chip": "ym2612"
    },
    {
      "channel": 3,
      "note": 64,
      "start": 21.251,
      "duration": 0.0112,
      "velocity": 127,
      "chip": "ym2612"
    },
    {
      "channel": 5,
      "note": 71,
      "start": 21.2528,
      "duration": 2.9831,
      "velocity": 95,
      "chip": "ym2612"
    },
    {
      "channel": 0,
      "note": 78,
      "start": 21.3411,
      "duration": 0.061,
      "velocity": 95,
      "chip": "ym2612"
    },
    {
      "channel": 0,
      "note": 76,
      "start": 21.4352,
      "duration": 0.0608,
      "velocity": 95,
      "chip": "ym2612"
    },
    {
      "channel": 0,
      "note": 76,
      "start": 21.5289,
      "duration": 0.0616,
      "velocity": 95,
      "chip": "ym2612"
    },
    {
      "channel": 0,
      "note": 78,
      "start": 21.6227,
      "duration": 0.0611,
      "velocity": 95,
      "chip": "ym2612"
    },
    {
      "channel": 0,
      "note": 78,
      "start": 21.7166,
      "duration": 0.0611,
      "velocity": 95,
      "chip": "ym2612"
    },
    {
      "channel": 0,
      "note": 74,
      "start": 21.8105,
      "duration": 0.0611,
      "velocity": 95,
      "chip": "ym2612"
    },
    {
      "channel": 3,
      "note": 64,
      "start": 21.8161,
      "duration": 0.0095,
      "velocity": 127,
      "chip": "ym2612"
    },
    {
      "channel": 0,
      "note": 74,
      "start": 21.9045,
      "duration": 0.061,
      "velocity": 95,
      "chip": "ym2612"
    },
    {
      "channel": 0,
      "note": 78,
      "start": 21.9983,
      "duration": 0.0611,
      "velocity": 95,
      "chip": "ym2612"
    },
    {
      "channel": 0,
      "note": 78,
      "start": 22.0923,
      "duration": 0.061,
      "velocity": 95,
      "chip": "ym2612"
    },
    {
      "channel": 0,
      "note": 73,
      "start": 22.1861,
      "duration": 0.0611,
      "velocity": 95,
      "chip": "ym2612"
    },
    {
      "channel": 0,
      "note": 73,
      "start": 22.28,
      "duration": 0.0611,
      "velocity": 95,
      "chip": "ym2612"
    },
    {
      "channel": 0,
      "note": 78,
      "start": 22.3741,
      "duration": 0.0608,
      "velocity": 95,
      "chip": "ym2612"
    },
    {
      "channel": 0,
      "note": 78,
      "start": 22.4678,
      "duration": 0.0611,
      "velocity": 95,
      "chip": "ym2612"
    },
    {
      "channel": 0,
      "note": 71,
      "start": 22.562,
      "duration": 0.0608,
      "velocity": 95,
      "chip": "ym2612"
    },
    {
      "channel": 0,
      "note": 71,
      "start": 22.6556,
      "duration": 0.0611,
      "velocity": 95,
      "chip": "ym2612"
    },
    {
      "channel": 0,
      "note": 78,
      "start": 22.7495,
      "duration": 0.0611,
      "velocity": 95,
      "chip": "ym2612"
    },
    {
      "channel": 0,
      "note": 78,
      "start": 22.8434,
      "duration": 0.0611,
      "velocity": 95,
      "chip": "ym2612"
    },
    {
      "channel": 0,
      "note": 76,
      "start": 22.9373,
      "duration": 0.0611,
      "velocity": 95,
      "chip": "ym2612"
    },
    {
      "channel": 0,
      "note": 76,
      "start": 23.0312,
      "duration": 0.0611,
      "velocity": 95,
      "chip": "ym2612"
    },
    {
      "channel": 0,
      "note": 78,
      "start": 23.1251,
      "duration": 0.0611,
      "velocity": 95,
      "chip": "ym2612"
    },
    {
      "channel": 0,
      "note": 78,
      "start": 23.219,
      "duration": 0.0611,
      "velocity": 95,
      "chip": "ym2612"
    },
    {
      "channel": 0,
      "note": 74,
      "start": 23.3129,
      "duration": 0.0611,
      "velocity": 95,
      "chip": "ym2612"
    },
    {
      "channel": 3,
      "note": 73,
      "start": 23.3182,
      "duration": 0.0097,
      "velocity": 127,
      "chip": "ym2612"
    },
    {
      "channel": 0,
      "note": 74,
      "start": 23.4068,
      "duration": 0.0611,
      "velocity": 95,
      "chip": "ym2612"
    },
    {
      "channel": 0,
      "note": 78,
      "start": 23.5007,
      "duration": 0.061,
      "velocity": 95,
      "chip": "ym2612"
    },
    {
      "channel": 1,
      "note": 47,
      "start": 23.5023,
      "duration": 0.1536,
      "velocity": 99,
      "chip": "ym2612"
    },
    {
      "channel": 3,
      "note": 73,
      "start": 23.5046,
      "duration": 0.0111,
      "velocity": 127,
      "chip": "ym2612"
    },
    {
      "channel": 0,
      "note": 78,
      "start": 23.5946,
      "duration": 0.0611,
      "velocity": 95,
      "chip": "ym2612"
    },
    {
      "channel": 0,
      "note": 73,
      "start": 23.6885,
      "duration": 0.0611,
      "velocity": 95,
      "chip": "ym2612"
    },
    {
      "channel": 1,
      "note": 45,
      "start": 23.6901,
      "duration": 0.1536,
      "velocity": 99,
      "chip": "ym2612"
    },
    {
      "channel": 3,
      "note": 69,
      "start": 23.6925,
      "duration": 0.0109,
      "velocity": 127,
      "chip": "ym2612"
    },
    {
      "channel": 0,
      "note": 73,
      "start": 23.7824,
      "duration": 0.0611,
      "velocity": 95,
      "chip": "ym2612"
    },
    {
      "channel": 0,
      "note": 78,
      "start": 23.8763,
      "duration": 0.061,
      "velocity": 95,
      "chip": "ym2612"
    },
    {
      "channel": 1,
      "note": 43,
      "start": 23.8779,
      "duration": 0.1536,
      "velocity": 99,
      "chip": "ym2612"
    },
    {
      "channel": 3,
      "note": 64,
      "start": 23.8803,
      "duration": 0.011,
      "velocity": 127,
      "chip": "ym2612"
    },
    {
      "channel": 0,
      "note": 78,
      "start": 23.9702,
      "duration": 0.0611,
      "velocity": 95,
      "chip": "ym2612"
    },
    {
      "channel": 0,
      "note": 71,
      "start": 24.0644,
      "duration": 0.0765,
      "velocity": 95,
      "chip": "ym2612"
    },
    {
      "channel": 1,
      "note": 47,
      "start": 24.0663,
      "duration": 0.1686,
      "velocity": 99,
      "chip": "ym2612"
    },
    {
      "channel": 2,
      "note": 71,
      "start": 24.0684,
      "duration": 1.4812,
      "velocity": 95,
      "chip": "ym2612"
    },
    {
      "channel": 3,
      "note": 64,
      "start": 24.0741,
      "duration": 0.0206,
      "velocity": 127,
      "chip": "ym2612"
    },
    {
      "channel": 4,
      "note": 74,
      "start": 24.0796,
      "duration": 1.4703,
      "velocity": 95,
      "chip": "ym2612"
    },
    {
      "channel": 0,
      "note": 71,
      "start": 24.1737,
      "duration": 0.0611,
      "velocity": 95,
      "chip": "ym2612"
    },
    {
      "channel": 0,
      "note": 78,
      "start": 24.2675,
      "duration": 0.0611,
      "velocity": 95,
      "chip": "ym2612"
    },
    {
      "channel": 1,
      "note": 47,
      "start": 24.2692,
      "duration": 2.7828,
      "velocity": 99,
      "chip": "ym2612"
    },
    {
      "channel": 3,
      "note": 64,
      "start": 24.2714,
      "duration": 0.0111,
      "velocity": 127,
      "chip": "ym2612"
    },
    {
      "channel": 5,
      "note": 71,
      "start": 24.2735,
      "duration": 1.4643,
      "velocity": 95,
      "chip": "ym2612"
    },
    {
      "channel": 0,
      "note": 78,
      "start": 24.3614,
      "duration": 0.0611,
      "velocity": 95,
      "chip": "ym2612"
    },
    {
      "channel": 0,
      "note": 76,
      "start": 24.4554,
      "duration": 0.061,
      "velocity": 95,
      "chip": "ym2612"
    },
    {
      "channel": 0,
      "note": 76,
      "start": 24.5492,
      "duration": 0.0611,
      "velocity": 95,
      "chip": "ym2612"
    },
    {
      "channel": 0,
      "note": 78,
      "start": 24.6431,
      "duration": 0.0611,
      "velocity": 95,
      "chip": "ym2612"
    },
    {
      "channel": 0,
      "note": 78,
      "start": 24.737,
      "duration": 0.0611,
      "velocity": 95,
      "chip": "ym2612"
    },
    {
      "channel": 0,
      "note": 74,
      "start": 24.831,
      "duration": 0.061,
      "velocity": 95,
      "chip": "ym2612"
    },
    {
      "channel": 3,
      "note": 64,
      "start": 24.8364,
      "duration": 0.0095,
      "velocity": 127,
      "chip": "ym2612"
    },
    {
      "channel": 0,
      "note": 74,
      "start": 24.9249,
      "duration": 0.061,
      "velocity": 95,
      "chip": "ym2612"
    },
    {
      "channel": 0,
      "note": 78,
      "start": 25.0188,
      "duration": 0.061,
      "velocity": 95,
      "chip": "ym2612"
    },
    {
      "channel": 0,
      "note": 78,
      "start": 25.1126,
      "duration": 0.0611,
      "velocity": 95,
      "chip": "ym2612"
    },
    {
      "channel": 0,
      "note": 73,
      "start": 25.2065,
      "duration": 0.0611,
      "velocity": 95,
      "chip": "ym2612"
    },
    {
      "channel": 0,
      "note": 73,
      "start": 25.3004,
      "duration": 0.0611,
      "velocity": 95,
      "chip": "ym2612"
    },
    {
      "channel": 0,
      "note": 78,
      "start": 25.3943,
      "duration": 0.0611,
      "velocity": 95,
      "chip": "ym2612"
    },
    {
      "channel": 0,
      "note": 78,
      "start": 25.4892,
      "duration": 0.0601,
      "velocity": 95,
      "chip": "ym2612"
    },
    {
      "channel": 0,
      "note": 71,
      "start": 25.5824,
      "duration": 0.0621,
      "velocity": 95,
      "chip": "ym2612"
    },
    {
      "channel": 2,
      "note": 73,
      "start": 25.5857,
      "duration": 0.7151,
      "velocity": 95,
      "chip": "ym2612"
    },
    {
      "channel": 4,
      "note": 76,
      "start": 25.5875,
      "duration": 0.7136,
      "velocity": 95,
      "chip": "ym2612"
    },
    {
      "channel": 0,
      "note": 71,
      "start": 25.676,
      "duration": 0.0611,
      "velocity": 95,
      "chip": "ym2612"
    },
    {
      "channel": 0,
      "note": 78,
      "start": 25.7699,
      "duration": 0.0611,
      "velocity": 95,
      "chip": "ym2612"
    },
    {
      "channel": 5,
      "note": 73,
      "start": 25.7721,
      "duration": 0.7173,
      "velocity": 95,
      "chip": "ym2612"
    },
    {
      "channel": 0,
      "note": 78,
      "start": 25.8638,
      "duration": 0.0611,
      "velocity": 95,
      "chip": "ym2612"
    },
    {
      "channel": 0,
      "note": 76,
      "start": 25.9584,
      "duration": 0.0603,
      "velocity": 95,
      "chip": "ym2612"
    },
    {
      "channel": 0,
      "note": 76,
      "start": 26.0516,
      "duration": 0.0617,
      "velocity": 95,
      "chip": "ym2612"
    },
    {
      "channel": 0,
      "note": 78,
      "start": 26.1455,
      "duration": 0.0611,
      "velocity": 95,
      "chip": "ym2612"
    },
    {
      "channel": 0,
      "note": 78,
      "start": 26.2394,
      "duration": 0.061,
      "velocity": 95,
      "chip": "ym2612"
    },
    {
      "channel": 0,
      "note": 74,
      "start": 26.3333,
      "duration": 0.061,
      "velocity": 95,
      "chip": "ym2612"
    },
    {
      "channel": 2,
      "note": 74,
      "start": 26.3351,
      "duration": 0.7171,
      "velocity": 95,
      "chip": "ym2612"
    },
    {
      "channel": 3,
      "note": 64,
      "start": 26.3368,
      "duration": 0.0116,
      "velocity": 127,
      "chip": "ym2612"
    },
    {
      "channel": 4,
      "note": 78,
      "start": 26.3385,
      "duration": 0.7141,
      "velocity": 95,
      "chip": "ym2612"
    },
    {
      "channel": 0,
      "note": 74,
      "start": 26.4281,
      "duration": 0.0602,
      "velocity": 95,
      "chip": "ym2612"
    },
    {
      "channel": 0,
      "note": 78,
      "start": 26.5211,
      "duration": 0.0615,
      "velocity": 95,
      "chip": "ym2612"
    },
    {
      "channel": 5,
      "note": 74,
      "start": 26.5237,
      "duration": 0.717,
      "velocity": 95,
      "chip": "ym2612"
    },
    {
      "channel": 0,
      "note": 78,
      "start": 26.615,
      "duration": 0.0611,
      "velocity": 95,
      "chip": "ym2612"
    },
    {
      "channel": 0,
      "note": 73,
      "start": 26.7089,
      "duration": 0.0611,
      "velocity": 95,
      "chip": "ym2612"
    },
    {
      "channel": 0,
      "note": 73,
      "start": 26.8028,
      "duration": 0.0611,
      "velocity": 95,
      "chip": "ym2612"
    },
    {
      "channel": 0,
      "note": 78,
      "start": 26.897,
      "duration": 0.0607,
      "velocity": 95,
      "chip": "ym2612"
    },
    {
      "channel": 0,
      "note": 78,
      "start": 26.9906,
      "duration": 0.0612,
      "velocity": 95,
      "chip": "ym2612"
    },
    {
      "channel": 0,
      "note": 71,
      "start": 27.0848,
      "duration": 0.0607,
      "velocity": 95,
      "chip": "ym2612"
    },
    {
      "channel": 1,
      "note": 43,
      "start": 27.0867,
      "duration": 0.1529,
      "velocity": 99,
      "chip": "ym2612"
    },
    {
      "channel": 2,
      "note": 74,
      "start": 27.0885,
      "duration": 1.4659,
      "velocity": 95,
      "chip": "ym2612"
    },
    {
      "channel": 3,
      "note": 64,
      "start": 27.0936,
      "duration": 0.0069,
      "velocity": 127,
      "chip": "ym2612"
    },
    {
      "channel": 4,
      "note": 78,
      "start": 27.0953,
      "duration": 1.4594,
      "velocity": 95,
      "chip": "ym2612"
    },
    {
      "channel": 0,
      "note": 71,
      "start": 27.1783,
      "duration": 0.0611,
      "velocity": 95,
      "chip": "ym2612"
    },
    {
      "channel": 0,
      "note": 78,
      "start": 27.2723,
      "duration": 0.061,
      "velocity": 95,
      "chip": "ym2612"
    },
    {
      "channel": 1,
      "note": 43,
      "start": 27.274,
      "duration": 2.7826,
      "velocity": 99,
      "chip": "ym2612"
    },
    {
      "channel": 3,
      "note": 64,
      "start": 27.2761,
      "duration": 0.0113,
      "velocity": 127,
      "chip": "ym2612"
    },
    {
      "channel": 5,
      "note": 74,
      "start": 27.278,
      "duration": 1.4646,
      "velocity": 95,
      "chip": "ym2612"
    },
    {
      "channel": 0,
      "note": 78,
      "start": 27.3662,
      "duration": 0.061,
      "velocity": 95,
      "chip": "ym2612"
    },
    {
      "channel": 0,
      "note": 76,
      "start": 27.46,
      "duration": 0.0611,
      "velocity": 95,
      "chip": "ym2612"
    },
    {
      "channel": 0,
      "note": 76,
      "start": 27.554,
      "duration": 0.0611,
      "velocity": 95,
      "chip": "ym2612"
    },
    {
      "channel": 0,
      "note": 78,
      "start": 27.6479,
      "duration": 0.0611,
      "velocity": 95,
      "chip": "ym2612"
    },
    {
      "channel": 0,
      "note": 78,
      "start": 27.7418,
      "duration": 0.0611,
      "velocity": 95,
      "chip": "ym2612"
    },
    {
      "channel": 0,
      "note": 74,
      "start": 27.8357,
      "duration": 0.0611,
      "velocity": 95,
      "chip": "ym2612"
    },
    {
      "channel": 3,
      "note": 64,
      "start": 27.8411,
      "duration": 0.0095,
      "velocity": 127,
      "chip": "ym2612"
    },
    {
      "channel": 0,
      "note": 74,
      "start": 27.9296,
      "duration": 0.0611,
      "velocity": 95,
      "chip": "ym2612"
    },
    {
      "channel": 0,
      "note": 78,
      "start": 28.0234,
      "duration": 0.0611,
      "velocity": 95,
      "chip": "ym2612"
    },
    {
      "channel": 0,
      "note": 78,
      "start": 28.1173,
      "duration": 0.0611,
      "velocity": 95,
      "chip": "ym2612"
    },
    {
      "channel": 0,
      "note": 73,
      "start": 28.2112,
      "duration": 0.0611,
      "velocity": 95,
      "chip": "ym2612"
    },
    {
      "channel": 0,
      "note": 73,
      "start": 28.3052,
      "duration": 0.061,
      "velocity": 95,
      "chip": "ym2612"
    },
    {
      "channel": 0,
      "note": 78,
      "start": 28.399,
      "duration": 0.0611,
      "velocity": 95,
      "chip": "ym2612"
    },
    {
      "channel": 0,
      "note": 78,
      "start": 28.4929,
      "duration": 0.0611,
      "velocity": 95,
      "chip": "ym2612"
    },
    {
      "channel": 0,
      "note": 71,
      "start": 28.5871,
      "duration": 0.0608,
      "velocity": 95,
      "chip": "ym2612"
    },
    {
      "channel": 2,
      "note": 71,
      "start": 28.5904,
      "duration": 1.4664,
      "velocity": 95,
      "chip": "ym2612"
    },
    {
      "channel": 4,
      "note": 74,
      "start": 28.5922,
      "duration": 1.465,
      "velocity": 95,
      "chip": "ym2612"
    },
    {
      "channel": 0,
      "note": 71,
      "start": 28.6807,
      "duration": 0.0611,
      "velocity": 95,
      "chip": "ym2612"
    },
    {
      "channel": 0,
      "note": 78,
      "start": 28.7747,
      "duration": 0.0611,
      "velocity": 95,
      "chip": "ym2612"
    },
    {
      "channel": 5,
      "note": 71,
      "start": 28.7768,
      "duration": 1.4686,
      "velocity": 95,
      "chip": "ym2612"
    },
    {
      "channel": 0,
      "note": 78,
      "start": 28.8685,
      "duration": 0.0611,
      "velocity": 95,
      "chip": "ym2612"
    },
    {
      "channel": 0,
      "note": 76,
      "start": 28.9624,
      "duration": 0.0611,
      "velocity": 95,
      "chip": "ym2612"
    },
    {
      "channel": 0,
      "note": 76,
      "start": 29.0563,
      "duration": 0.0611,
      "velocity": 95,
      "chip": "ym2612"
    },
    {
      "channel": 0,
      "note": 78,
      "start": 29.1502,
      "duration": 0.0611,
      "velocity": 95,
      "chip": "ym2612"
    },
    {
      "channel": 0,
      "note": 78,
      "start": 29.2441,
      "duration": 0.0611,
      "velocity": 95,
      "chip": "ym2612"
    },
    {
      "channel": 0,
      "note": 74,
      "start": 29.3381,
      "duration": 0.061,
      "velocity": 95,
      "chip": "ym2612"
    },
    {
      "channel": 3,
      "note": 64,
      "start": 29.3434,
      "duration": 0.0098,
      "velocity": 127,
      "chip": "ym2612"
    },
    {
      "channel": 0,
      "note": 74,
      "start": 29.4319,
      "duration": 0.0611,
      "velocity": 95,
      "chip": "ym2612"
    },
    {
      "channel": 0,
      "note": 78,
      "start": 29.5258,
      "duration": 0.0611,
      "velocity": 95,
      "chip": "ym2612"
    },
    {
      "channel": 0,
      "note": 78,
      "start": 29.6197,
      "duration": 0.0611,
      "velocity": 95,
      "chip": "ym2612"
    },
    {
      "channel": 0,
      "note": 73,
      "start": 29.7136,
      "duration": 0.0611,
      "velocity": 95,
      "chip": "ym2612"
    },
    {
      "channel": 0,
      "note": 73,
      "start": 29.8075,
      "duration": 0.0611,
      "velocity": 95,
      "chip": "ym2612"
    },
    {
      "channel": 0,
      "note": 78,
      "start": 29.9015,
      "duration": 0.061,
      "velocity": 95,
      "chip": "ym2612"
    },
    {
      "channel": 0,
      "note": 78,
      "start": 29.9953,
      "duration": 0.061,
      "velocity": 95,
      "chip": "ym2612"
    },
    {
      "channel": 0,
      "note": 71,
      "start": 30.0895,
      "duration": 0.0608,
      "velocity": 95,
      "chip": "ym2612"
    },
    {
      "channel": 1,
      "note": 45,
      "start": 30.0914,
      "duration": 0.153,
      "velocity": 99,
      "chip": "ym2612"
    },
    {
      "channel": 2,
      "note": 69,
      "start": 30.0932,
      "duration": 1.4659,
      "velocity": 95,
      "chip": "ym2612"
    },
    {
      "channel": 3,
      "note": 64,
      "start": 30.0985,
      "duration": 0.0069,
      "velocity": 127,
      "chip": "ym2612"
    },
    {
      "channel": 4,
      "note": 73,
      "start": 30.1002,
      "duration": 1.4592,
      "velocity": 95,
      "chip": "ym2612"
    },
    {
      "channel": 0,
      "note": 71,
      "start": 30.1831,
      "duration": 0.0611,
      "velocity": 95,
      "chip": "ym2612"
    },
    {
      "channel": 0,
      "note": 78,
      "start": 30.277,
      "duration": 0.0611,
      "velocity": 95,
      "chip": "ym2612"
    },
    {
      "channel": 1,
      "note": 45,
      "start": 30.2786,
      "duration": 2.7827,
      "velocity": 99,
      "chip": "ym2612"
    },
    {
      "channel": 3,
      "note": 64,
      "start": 30.2808,
      "duration": 0.0112,
      "velocity": 127,
      "chip": "ym2612"
    },
    {
      "channel": 5,
      "note": 69,
      "start": 30.2826,
      "duration": 1.4646,
      "velocity": 95,
      "chip": "ym2612"
    },
    {
      "channel": 0,
      "note": 78,
      "start": 30.3709,
      "duration": 0.0611,
      "velocity": 95,
      "chip": "ym2612"
    },
    {
      "channel": 0,
      "note": 76,
      "start": 30.4648,
      "duration": 0.0611,
      "velocity": 95,
      "chip": "ym2612"
    },
    {
      "channel": 0,
      "note": 76,
      "start": 30.5587,
      "duration": 0.0611,
      "velocity": 95,
      "chip": "ym2612"
    },
    {
      "channel": 0,
      "note": 78,
      "start": 30.6526,
      "duration": 0.0611,
      "velocity": 95,
      "chip": "ym2612"
    },
    {
      "channel": 0,
      "note": 78,
      "start": 30.7465,
      "duration": 0.0611,
      "velocity": 95,
      "chip": "ym2612"
    },
    {
      "channel": 0,
      "note": 74,
      "start": 30.8404,
      "duration": 0.0611,
      "velocity": 95,
      "chip": "ym2612"
    },
    {
      "channel": 3,
      "note": 64,
      "start": 30.8459,
      "duration": 0.0095,
      "velocity": 127,
      "chip": "ym2612"
    },
    {
      "channel": 0,
      "note": 74,
      "start": 30.9343,
      "duration": 0.0611,
      "velocity": 95,
      "chip": "ym2612"
    },
    {
      "channel": 0,
      "note": 78,
      "start": 31.029,
      "duration": 0.0602,
      "velocity": 95,
      "chip": "ym2612"
    },
    {
      "channel": 0,
      "note": 78,
      "start": 31.1221,
      "duration": 0.0618,
      "velocity": 95,
      "chip": "ym2612"
    },
    {
      "channel": 0,
      "note": 73,
      "start": 31.216,
      "duration": 0.061,
      "velocity": 95,
      "chip": "ym2612"
    },
    {
      "channel": 0,
      "note": 73,
      "start": 31.3098,
      "duration": 0.0611,
      "velocity": 95,
      "chip": "ym2612"
    },
    {
      "channel": 0,
      "note": 78,
      "start": 31.4037,
      "duration": 0.0611,
      "velocity": 95,
      "chip": "ym2612"
    },
    {
      "channel": 0,
      "note": 78,
      "start": 31.4983,
      "duration": 0.0604,
      "velocity": 95,
      "chip": "ym2612"
    },
    {
      "channel": 0,
      "note": 71,
      "start": 31.5918,
      "duration": 0.0615,
      "velocity": 95,
      "chip": "ym2612"
    },
    {
      "channel": 2,
      "note": 64,
      "start": 31.5954,
      "duration": 0.7148,
      "velocity": 95,
      "chip": "ym2612"
    },
    {
      "channel": 4,
      "note": 69,
      "start": 31.5976,
      "duration": 0.713,
      "velocity": 95,
      "chip": "ym2612"
    },
    {
      "channel": 0,
      "note": 71,
      "start": 31.6855,
      "duration": 0.0611,
      "velocity": 95,
      "chip": "ym2612"
    },
    {
      "channel": 0,
      "note": 78,
      "start": 31.7794,
      "duration": 0.0611,
      "velocity": 95,
      "chip": "ym2612"
    },
    {
      "channel": 5,
      "note": 64,
      "start": 31.7819,
      "duration": 0.717,
      "velocity": 95,
      "chip": "ym2612"
    },
    {
      "channel": 0,
      "note": 78,
      "start": 31.8733,
      "duration": 0.0611,
      "velocity": 95,
      "chip": "ym2612"
    },
    {
      "channel": 0,
      "note": 76,
      "start": 31.9676,
      "duration": 0.0606,
      "velocity": 95,
      "chip": "ym2612"
    },
    {
      "channel": 0,
      "note": 76,
      "start": 32.061,
      "duration": 0.0615,
      "velocity": 95,
      "chip": "ym2612"
    },
    {
      "channel": 0,
      "note": 78,
      "start": 32.155,
      "duration": 0.061,
      "velocity": 95,
      "chip": "ym2612"
    },
    {
      "channel": 0,
      "note": 78,
      "start": 32.2488,
      "duration": 0.0611,
      "velocity": 95,
      "chip": "ym2612"
    },
    {
      "channel": 0,
      "note": 74,
      "start": 32.3427,
      "duration": 0.0611,
      "velocity": 95,
      "chip": "ym2612"
    },
    {
      "channel": 2,
      "note": 69,
      "start": 32.3446,
      "duration": 0.7169,
      "velocity": 95,
      "chip": "ym2612"
    },
    {
      "channel": 3,
      "note": 64,
      "start": 32.3462,
      "duration": 0.0113,
      "velocity": 127,
      "chip": "ym2612"
    },
    {
      "channel": 4,
      "note": 73,
      "start": 32.3479,
      "duration": 0.7139,
      "velocity": 95,
      "chip": "ym2612"
    },
    {
      "channel": 0,
      "note": 74,
      "start": 32.4368,
      "duration": 0.0609,
      "velocity": 95,
      "chip": "ym2612"
    },
    {
      "channel": 0,
      "note": 78,
      "start": 32.5305,
      "duration": 0.0612,
      "velocity": 95,
      "chip": "ym2612"
    },
    {
      "channel": 5,
      "note": 69,
      "start": 32.5331,
      "duration": 0.717,
      "velocity": 95,
      "chip": "ym2612"
    },
    {
      "channel": 0,
      "note": 78,
      "start": 32.6244,
      "duration": 0.0611,
      "velocity": 95,
      "chip": "ym2612"
    },
    {
      "channel": 0,
      "note": 73,
      "start": 32.7184,
      "duration": 0.0611,
      "velocity": 95,
      "chip": "ym2612"
    },
    {
      "channel": 0,
      "note": 73,
      "start": 32.8123,
      "duration": 0.061,
      "velocity": 95,
      "chip": "ym2612"
    },
    {
      "channel": 0,
      "note": 78,
      "start": 32.9062,
      "duration": 0.061,
      "velocity": 95,
      "chip": "ym2612"
    },
    {
      "channel": 0,
      "note": 78,
      "start": 33.0,
      "duration": 0.0611,
      "velocity": 95,
      "chip": "ym2612"
    },
    {
      "channel": 0,
      "note": 71,
      "start": 33.0943,
      "duration": 0.0607,
      "velocity": 95,
      "chip": "ym2612"
    },
    {
      "channel": 1,
      "note": 47,
      "start": 33.0962,
      "duration": 0.1529,
      "velocity": 99,
      "chip": "ym2612"
    },
    {
      "channel": 2,
      "note": 67,
      "start": 33.0979,
      "duration": 2.9684,
      "velocity": 95,
      "chip": "ym2612"
    },
    {
      "channel": 3,
      "note": 64,
      "start": 33.103,
      "duration": 0.007,
      "velocity": 127,
      "chip": "ym2612"
    },
    {
      "channel": 4,
      "note": 71,
      "start": 33.1048,
      "duration": 2.9623,
      "velocity": 95,
      "chip": "ym2612"
    },
    {
      "channel": 0,
      "note": 71,
      "start": 33.1878,
      "duration": 0.0611,
      "velocity": 95,
      "chip": "ym2612"
    },
    {
      "channel": 0,
      "note": 78,
      "start": 33.2817,
      "duration": 0.0611,
      "velocity": 95,
      "chip": "ym2612"
    },
    {
      "channel": 1,
      "note": 47,
      "start": 33.2834,
      "duration": 2.7827,
      "velocity": 99,
      "chip": "ym2612"
    },
    {
      "channel": 3,
      "note": 64,
      "start": 33.2855,
      "duration": 0.0112,
      "velocity": 127,
      "chip": "ym2612"
    },
    {
      "channel": 5,
      "note": 67,
      "start": 33.2874,
      "duration": 2.9831,
      "velocity": 95,
      "chip": "ym2612"
    },
    {
      "channel": 0,
      "note": 78,
      "start": 33.3756,
      "duration": 0.0611,
      "velocity": 95,
      "chip": "ym2612"
    },
    {
      "channel": 0,
      "note": 76,
      "start": 33.4695,
      "duration": 0.0611,
      "velocity": 95,
      "chip": "ym2612"
    },
    {
      "channel": 0,
      "note": 76,
      "start": 33.5635,
      "duration": 0.061,
      "velocity": 95,
      "chip": "ym2612"
    },
    {
      "channel": 0,
      "note": 78,
      "start": 33.6573,
      "duration": 0.0611,
      "velocity": 95,
      "chip": "ym2612"
    },
    {
      "channel": 0,
      "note": 78,
      "start": 33.7512,
      "duration": 0.0611,
      "velocity": 95,
      "chip": "ym2612"
    },
    {
      "channel": 0,
      "note": 74,
      "start": 33.8451,
      "duration": 0.0611,
      "velocity": 95,
      "chip": "ym2612"
    },
    {
      "channel": 3,
      "note": 64,
      "start": 33.8506,
      "duration": 0.0095,
      "velocity": 127,
      "chip": "ym2612"
    },
    {
      "channel": 0,
      "note": 74,
      "start": 33.939,
      "duration": 0.0611,
      "velocity": 95,
      "chip": "ym2612"
    },
    {
      "channel": 0,
      "note": 78,
      "start": 34.0329,
      "duration": 0.0611,
      "velocity": 95,
      "chip": "ym2612"
    },
    {
      "channel": 0,
      "note": 78,
      "start": 34.1268,
      "duration": 0.0611,
      "velocity": 95,
      "chip": "ym2612"
    },
    {
      "channel": 0,
      "note": 73,
      "start": 34.2207,
      "duration": 0.0611,
      "velocity": 95,
      "chip": "ym2612"
    },
    {
      "channel": 0,
      "note": 73,
      "start": 34.3146,
      "duration": 0.0611,
      "velocity": 95,
      "chip": "ym2612"
    },
    {
      "channel": 0,
      "note": 78,
      "start": 34.4085,
      "duration": 0.0611,
      "velocity": 95,
      "chip": "ym2612"
    },
    {
      "channel": 0,
      "note": 78,
      "start": 34.5024,
      "duration": 0.0611,
      "velocity": 95,
      "chip": "ym2612"
    },
    {
      "channel": 0,
      "note": 71,
      "start": 34.5966,
      "duration": 0.0608,
      "velocity": 95,
      "chip": "ym2612"
    },
    {
      "channel": 0,
      "note": 71,
      "start": 34.6902,
      "duration": 0.0611,
      "velocity": 95,
      "chip": "ym2612"
    },
    {
      "channel": 0,
      "note": 78,
      "start": 34.7841,
      "duration": 0.0611,
      "velocity": 95,
      "chip": "ym2612"
    },
    {
      "channel": 0,
      "note": 78,
      "start": 34.878,
      "duration": 0.0611,
      "velocity": 95,
      "chip": "ym2612"
    },
    {
      "channel": 0,
      "note": 76,
      "start": 34.9719,
      "duration": 0.0611,
      "velocity": 95,
      "chip": "ym2612"
    },
    {
      "channel": 0,
      "note": 76,
      "start": 35.0658,
      "duration": 0.061,
      "velocity": 95,
      "chip": "ym2612"
    },
    {
      "channel": 0,
      "note": 78,
      "start": 35.1597,
      "duration": 0.0611,
      "velocity": 95,
      "chip": "ym2612"
    },
    {
      "channel": 0,
      "note": 78,
      "start": 35.2536,
      "duration": 0.0611,
      "velocity": 95,
      "chip": "ym2612"
    },
    {
      "channel": 0,
      "note": 74,
      "start": 35.3475,
      "duration": 0.0611,
      "velocity": 95,
      "chip": "ym2612"
    },
    {
      "channel": 3,
      "note": 73,
      "start": 35.3528,
      "duration": 0.0097,
      "velocity": 127,
      "chip": "ym2612"
    },
    {
      "channel": 0,
      "note": 74,
      "start": 35.4414,
      "duration": 0.0611,
      "velocity": 95,
      "chip": "ym2612"
    },
    {
      "channel": 0,
      "note": 78,
      "start": 35.5353,
      "duration": 0.0611,
      "velocity": 95,
      "chip": "ym2612"
    },
    {
      "channel": 3,
      "note": 73,
      "start": 35.5377,
      "duration": 0.0126,
      "velocity": 127,
      "chip": "ym2612"
    },
    {
      "channel": 0,
      "note": 78,
      "start": 35.6292,
      "duration": 0.0611,
      "velocity": 95,
      "chip": "ym2612"
    },
    {
      "channel": 0,
      "note": 73,
      "start": 35.7231,
      "duration": 0.0611,
      "velocity": 95,
      "chip": "ym2612"
    },
    {
      "channel": 0,
      "note": 73,
      "start": 35.817,
      "duration": 0.0611,
      "velocity": 95,
      "chip": "ym2612"
    },
    {
      "channel": 0,
      "note": 78,
      "start": 35.9109,
      "duration": 0.0611,
      "velocity": 95,
      "chip": "ym2612"
    },
    {
      "channel": 0,
      "note": 78,
      "start": 36.0048,
      "duration": 0.061,
      "velocity": 95,
      "chip": "ym2612"
    },
    {
      "channel": 0,
      "note": 71,
      "start": 36.099,
      "duration": 0.0764,
      "velocity": 95,
      "chip": "ym2612"
    },
    {
      "channel": 1,
      "note": 47,
      "start": 36.1009,
      "duration": 0.1686,
      "velocity": 99,
      "chip": "ym2612"
    },
    {
      "channel": 2,
      "note": 71,
      "start": 36.1029,
      "duration": 1.4816,
      "velocity": 95,
      "chip": "ym2612"
    },
    {
      "channel": 3,
      "note": 64,
      "start": 36.1087,
      "duration": 0.0206,
      "velocity": 127,
      "chip": "ym2612"
    },
    {
      "channel": 4,
      "note": 74,
      "start": 36.1107,
      "duration": 1.4741,
      "velocity": 95,
      "chip": "ym2612"
    },
    {
      "channel": 0,
      "note": 71,
      "start": 36.2083,
      "duration": 0.061,
      "velocity": 95,
      "chip": "ym2612"
    },
    {
      "channel": 0,
      "note": 78,
      "start": 36.3022,
      "duration": 0.061,
      "velocity": 95,
      "chip": "ym2612"
    },
    {
      "channel": 1,
      "note": 47,
      "start": 36.3039,
      "duration": 2.7826,
      "velocity": 99,
      "chip": "ym2612"
    },
    {
      "channel": 3,
      "note": 64,
      "start": 36.3061,
      "duration": 0.011,
      "velocity": 127,
      "chip": "ym2612"
    },
    {
      "channel": 5,
      "note": 71,
      "start": 36.3082,
      "duration": 1.4642,
      "velocity": 95,
      "chip": "ym2612"
    },
    {
      "channel": 0,
      "note": 78,
      "start": 36.396,
      "duration": 0.061,
      "velocity": 95,
      "chip": "ym2612"
    },
    {
      "channel": 0,
      "note": 76,
      "start": 36.4907,
      "duration": 0.0602,
      "velocity": 95,
      "chip": "ym2612"
    },
    {
      "channel": 0,
      "note": 76,
      "start": 36.5838,
      "duration": 0.0618,
      "velocity": 95,
      "chip": "ym2612"
    },
    {
      "channel": 0,
      "note": 78,
      "start": 36.6777,
      "duration": 0.0611,
      "velocity": 95,
      "chip": "ym2612"
    },
    {
      "channel": 0,
      "note": 78,
      "start": 36.7717,
      "duration": 0.061,
      "velocity": 95,
      "chip": "ym2612"
    },
    {
      "channel": 0,
      "note": 74,
      "start": 36.8655,
      "duration": 0.0611,
      "velocity": 95,
      "chip": "ym2612"
    },
    {
      "channel": 3,
      "note": 64,
      "start": 36.871,
      "duration": 0.0101,
      "velocity": 127,
      "chip": "ym2612"
    },
    {
      "channel": 0,
      "note": 74,
      "start": 36.96,
      "duration": 0.0604,
      "velocity": 95,
      "chip": "ym2612"
    },
    {
      "channel": 0,
      "note": 78,
      "start": 37.0533,
      "duration": 0.0616,
      "velocity": 95,
      "chip": "ym2612"
    },
    {
      "channel": 0,
      "note": 78,
      "start": 37.1472,
      "duration": 0.0611,
      "velocity": 95,
      "chip": "ym2612"
    },
    {
      "channel": 0,
      "note": 73,
      "start": 37.2411,
      "duration": 0.0611,
      "velocity": 95,
      "chip": "ym2612"
    },
    {
      "channel": 0,
      "note": 73,
      "start": 37.335,
      "duration": 0.0611,
      "velocity": 95,
      "chip": "ym2612"
    },
    {
      "channel": 0,
      "note": 78,
      "start": 37.4293,
      "duration": 0.0606,
      "velocity": 95,
      "chip": "ym2612"
    },
    {
      "channel": 0,
      "note": 78,
      "start": 37.5228,
      "duration": 0.0614,
      "velocity": 95,
      "chip": "ym2612"
    },
    {
      "channel": 0,
      "note": 71,
      "start": 37.617,
      "duration": 0.0607,
      "velocity": 95,
      "chip": "ym2612"
    },
    {
      "channel": 2,
      "note": 73,
      "start": 37.6203,
      "duration": 0.7151,
      "velocity": 95,
      "chip": "ym2612"
    },
    {
      "channel": 4,
      "note": 76,
      "start": 37.6221,
      "duration": 0.7136,
      "velocity": 95,
      "chip": "ym2612"
    },
    {
      "channel": 0,
      "note": 71,
      "start": 37.7106,
      "duration": 0.0611,
      "velocity": 95,
      "chip": "ym2612"
    },
    {
      "channel": 0,
      "note": 78,
      "start": 37.8045,
      "duration": 0.061,
      "velocity": 95,
      "chip": "ym2612"
    },
    {
      "channel": 5,
      "note": 73,
      "start": 37.8067,
      "duration": 0.7173,
      "velocity": 95,
      "chip": "ym2612"
    },
    {
      "channel": 0,
      "note": 78,
      "start": 37.8986,
      "duration": 0.0609,
      "velocity": 95,
      "chip": "ym2612"
    },
    {
      "channel": 0,
      "note": 76,
      "start": 37.9923,
      "duration": 0.0611,
      "velocity": 95,
      "chip": "ym2612"
    },
    {
      "channel": 0,
      "note": 76,
      "start": 38.0862,
      "duration": 0.0611,
      "velocity": 95,
      "chip": "ym2612"
    },
    {
      "channel": 0,
      "note": 78,
      "start": 38.1801,
      "duration": 0.0611,
      "velocity": 95,
      "chip": "ym2612"
    },
    {
      "channel": 0,
      "note": 78,
      "start": 38.274,
      "duration": 0.0611,
      "velocity": 95,
      "chip": "ym2612"
    },
    {
      "channel": 0,
      "note": 74,
      "start": 38.3678,
      "duration": 0.0611,
      "velocity": 95,
      "chip": "ym2612"
    },
    {
      "channel": 2,
      "note": 74,
      "start": 38.3698,
      "duration": 0.7168,
      "velocity": 95,
      "chip": "ym2612"
    },
    {
      "channel": 3,
      "note": 64,
      "start": 38.3714,
      "duration": 0.011,
      "velocity": 127,
      "chip": "ym2612"
    },
    {
      "channel": 4,
      "note": 78,
      "start": 38.3731,
      "duration": 0.7139,
      "velocity": 95,
      "chip": "ym2612"
    },
    {
      "channel": 0,
      "note": 74,
      "start": 38.4617,
      "duration": 0.0611,
      "velocity": 95,
      "chip": "ym2612"
    },
    {
      "channel": 0,
      "note": 78,
      "start": 38.5557,
      "duration": 0.061,
      "velocity": 95,
      "chip": "ym2612"
    },
    {
      "channel": 5,
      "note": 74,
      "start": 38.5583,
      "duration": 0.7169,
      "velocity": 95,
      "chip": "ym2612"
    },
    {
      "channel": 0,
      "note": 78,
      "start": 38.6495,
      "duration": 0.0611,
      "velocity": 95,
      "chip": "ym2612"
    },
    {
      "channel": 0,
      "note": 73,
      "start": 38.7434,
      "duration": 0.0611,
      "velocity": 95,
      "chip": "ym2612"
    },
    {
      "channel": 0,
      "note": 73,
      "start": 38.8373,
      "duration": 0.0611,
      "velocity": 95,
      "chip": "ym2612"
    },
    {
      "channel": 0,
      "note": 78,
      "start": 38.9312,
      "duration": 0.0611,
      "velocity": 95,
      "chip": "ym2612"
    },
    {
      "channel": 0,
      "note": 78,
      "start": 39.0252,
      "duration": 0.0611,
      "velocity": 95,
      "chip": "ym2612"
    },
    {
      "channel": 0,
      "note": 71,
      "start": 39.1193,
      "duration": 0.0608,
      "velocity": 95,
      "chip": "ym2612"
    },
    {
      "channel": 1,
      "note": 43,
      "start": 39.1213,
      "duration": 0.1529,
      "velocity": 99,
      "chip": "ym2612"
    },
    {
      "channel": 2,
      "note": 74,
      "start": 39.1231,
      "duration": 1.4659,
      "velocity": 95,
      "chip": "ym2612"
    },
    {
      "channel": 3,
      "note": 64,
      "start": 39.1282,
      "duration": 0.007,
      "velocity": 127,
      "chip": "ym2612"
    },
    {
      "channel": 4,
      "note": 78,
      "start": 39.1299,
      "duration": 1.4593,
      "velocity": 95,
      "chip": "ym2612"
    },
    {
      "channel": 0,
      "note": 71,
      "start": 39.2129,
      "duration": 0.0611,
      "velocity": 95,
      "chip": "ym2612"
    },
    {
      "channel": 0,
      "note": 78,
      "start": 39.3068,
      "duration": 0.0611,
      "velocity": 95,
      "chip": "ym2612"
    },
    {
      "channel": 1,
      "note": 43,
      "start": 39.3084,
      "duration": 2.7827,
      "velocity": 99,
      "chip": "ym2612"
    },
    {
      "channel": 3,
      "note": 64,
      "start": 39.3107,
      "duration": 0.0112,
      "velocity": 127,
      "chip": "ym2612"
    },
    {
      "channel": 5,
      "note": 74,
      "start": 39.3125,
      "duration": 1.4646,
      "velocity": 95,
      "chip": "ym2612"
    },
    {
      "channel": 0,
      "note": 78,
      "start": 39.4007,
      "duration": 0.0611,
      "velocity": 95,
      "chip": "ym2612"
    },
    {
      "channel": 0,
      "note": 76,
      "start": 39.4946,
      "duration": 0.0611,
      "velocity": 95,
      "chip": "ym2612"
    },
    {
      "channel": 0,
      "note": 76,
      "start": 39.5886,
      "duration": 0.061,
      "velocity": 95,
      "chip": "ym2612"
    },
    {
      "channel": 0,
      "note": 78,
      "start": 39.6824,
      "duration": 0.0611,
      "velocity": 95,
      "chip": "ym2612"
    },
    {
      "channel": 0,
      "note": 78,
      "start": 39.7763,
      "duration": 0.0611,
      "velocity": 95,
      "chip": "ym2612"
    },
    {
      "channel": 0,
      "note": 74,
      "start": 39.8702,
      "duration": 0.0611,
      "velocity": 95,
      "chip": "ym2612"
    },
    {
      "channel": 3,
      "note": 64,
      "start": 39.8757,
      "duration": 0.0095,
      "velocity": 127,
      "chip": "ym2612"
    },
    {
      "channel": 0,
      "note": 74,
      "start": 39.9641,
      "duration": 0.0611,
      "velocity": 95,
      "chip": "ym2612"
    },
    {
      "channel": 0,
      "note": 78,
      "start": 40.058,
      "duration": 0.0611,
      "velocity": 95,
      "chip": "ym2612"
    },
    {
      "channel": 0,
      "note": 78,
      "start": 40.1519,
      "duration": 0.0611,
      "velocity": 95,
      "chip": "ym2612"
    },
    {
      "channel": 0,
      "note": 73,
      "start": 40.2459,
      "duration": 0.0611,
      "velocity": 95,
      "chip": "ym2612"
    },
    {
      "channel": 0,
      "note": 73,
      "start": 40.3397,
      "duration": 0.0611,
      "velocity": 95,
      "chip": "ym2612"
    },
    {
      "channel": 0,
      "note": 78,
      "start": 40.4336,
      "duration": 0.0611,
      "velocity": 95,
      "chip": "ym2612"
    },
    {
      "channel": 0,
      "note": 78,
      "start": 40.5275,
      "duration": 0.0611,
      "velocity": 95,
      "chip": "ym2612"
    },
    {
      "channel": 0,
      "note": 71,
      "start": 40.6217,
      "duration": 0.0607,
      "velocity": 95,
      "chip": "ym2612"
    },
    {
      "channel": 2,
      "note": 71,
      "start": 40.625,
      "duration": 1.4664,
      "velocity": 95,
      "chip": "ym2612"
    },
    {
      "channel": 4,
      "note": 74,
      "start": 40.6268,
      "duration": 1.4649,
      "velocity": 95,
      "chip": "ym2612"
    },
    {
      "channel": 0,
      "note": 71,
      "start": 40.7153,
      "duration": 0.0611,
      "velocity": 95,
      "chip": "ym2612"
    },
    {
      "channel": 0,
      "note": 78,
      "start": 40.8092,
      "duration": 0.0611,
      "velocity": 95,
      "chip": "ym2612"
    },
    {
      "channel": 5,
      "note": 71,
      "start": 40.8114,
      "duration": 1.4686,
      "velocity": 95,
      "chip": "ym2612"
    },
    {
      "channel": 0,
      "note": 78,
      "start": 40.9031,
      "duration": 0.0611,
      "velocity": 95,
      "chip": "ym2612"
    },
    {
      "channel": 0,
      "note": 76,
      "start": 40.997,
      "duration": 0.0611,
      "velocity": 95,
      "chip": "ym2612"
    },
    {
      "channel": 0,
      "note": 76,
      "start": 41.0909,
      "duration": 0.0611,
      "velocity": 95,
      "chip": "ym2612"
    },
    {
      "channel": 0,
      "note": 78,
      "start": 41.1848,
      "duration": 0.0611,
      "velocity": 95,
      "chip": "ym2612"
    },
    {
      "channel": 0,
      "note": 78,
      "start": 41.2787,
      "duration": 0.0611,
      "velocity": 95,
      "chip": "ym2612"
    },
    {
      "channel": 0,
      "note": 74,
      "start": 41.3726,
      "duration": 0.0611,
      "velocity": 95,
      "chip": "ym2612"
    },
    {
      "channel": 3,
      "note": 64,
      "start": 41.378,
      "duration": 0.0096,
      "velocity": 127,
      "chip": "ym2612"
    },
    {
      "channel": 0,
      "note": 74,
      "start": 41.4665,
      "duration": 0.061,
      "velocity": 95,
      "chip": "ym2612"
    },
    {
      "channel": 0,
      "note": 78,
      "start": 41.5604,
      "duration": 0.0611,
      "velocity": 95,
      "chip": "ym2612"
    },
    {
      "channel": 0,
      "note": 78,
      "start": 41.6543,
      "duration": 0.062,
      "velocity": 95,
      "chip": "ym2612"
    },
    {
      "channel": 0,
      "note": 73,
      "start": 41.7482,
      "duration": 0.0611,
      "velocity": 95,
      "chip": "ym2612"
    },
    {
      "channel": 0,
      "note": 73,
      "start": 41.8421,
      "duration": 0.0611,
      "velocity": 95,
      "chip": "ym2612"
    },
    {
      "channel": 0,
      "note": 78,
      "start": 41.936,
      "duration": 0.0611,
      "velocity": 95,
      "chip": "ym2612"
    },
    {
      "channel": 0,
      "note": 78,
      "start": 42.0307,
      "duration": 0.0602,
      "velocity": 95,
      "chip": "ym2612"
    },
    {
      "channel": 0,
      "note": 71,
      "start": 42.1241,
      "duration": 0.0615,
      "velocity": 95,
      "chip": "ym2612"
    },
    {
      "channel": 1,
      "note": 45,
      "start": 42.126,
      "duration": 0.1529,
      "velocity": 99,
      "chip": "ym2612"
    },
    {
      "channel": 2,
      "note": 69,
      "start": 42.1277,
      "duration": 1.466,
      "velocity": 95,
      "chip": "ym2612"
    },
    {
      "channel": 3,
      "note": 64,
      "start": 42.1331,
      "duration": 0.007,
      "velocity": 127,
      "chip": "ym2612"
    },
    {
      "channel": 4,
      "note": 73,
      "start": 42.1348,
      "duration": 1.4593,
      "velocity": 95,
      "chip": "ym2612"
    },
    {
      "channel": 0,
      "note": 71,
      "start": 42.2177,
      "duration": 0.0611,
      "velocity": 95,
      "chip": "ym2612"
    },
    {
      "channel": 0,
      "note": 78,
      "start": 42.3116,
      "duration": 0.0611,
      "velocity": 95,
      "chip": "ym2612"
    },
    {
      "channel": 1,
      "note": 45,
      "start": 42.3132,
      "duration": 2.7826,
      "velocity": 99,
      "chip": "ym2612"
    },
    {
      "channel": 3,
      "note": 64,
      "start": 42.3154,
      "duration": 0.0112,
      "velocity": 127,
      "chip": "ym2612"
    },
    {
      "channel": 5,
      "note": 69,
      "start": 42.3172,
      "duration": 1.4646,
      "velocity": 95,
      "chip": "ym2612"
    },
    {
      "channel": 0,
      "note": 78,
      "start": 42.4055,
      "duration": 0.061,
      "velocity": 95,
      "chip": "ym2612"
    },
    {
      "channel": 0,
      "note": 76,
      "start": 42.4999,
      "duration": 0.0605,
      "velocity": 95,
      "chip": "ym2612"
    },
    {
      "channel": 0,
      "note": 76,
      "start": 42.5932,
      "duration": 0.062,
      "velocity": 95,
      "chip": "ym2612"
    },
    {
      "channel": 0,
      "note": 78,
      "start": 42.6873,
      "duration": 0.061,
      "velocity": 95,
      "chip": "ym2612"
    },
    {
      "channel": 0,
      "note": 78,
      "start": 42.781,
      "duration": 0.0611,
      "velocity": 95,
      "chip": "ym2612"
    },
    {
      "channel": 0,
      "note": 74,
      "start": 42.875,
      "duration": 0.0611,
      "velocity": 95,
      "chip": "ym2612"
    },
    {
      "channel": 3,
      "note": 64,
      "start": 42.8805,
      "duration": 0.0099,
      "velocity": 127,
      "chip": "ym2612"
    },
    {
      "channel": 0,
      "note": 74,
      "start": 42.9692,
      "duration": 0.0607,
      "velocity": 95,
      "chip": "ym2612"
    },
    {
      "channel": 0,
      "note": 78,
      "start": 43.0628,
      "duration": 0.0613,
      "velocity": 95,
      "chip": "ym2612"
    },
    {
      "channel": 0,
      "note": 78,
      "start": 43.1567,
      "duration": 0.0611,
      "velocity": 95,
      "chip": "ym2612"
    },
    {
      "channel": 0,
      "note": 73,
      "start": 43.2505,
      "duration": 0.0611,
      "velocity": 95,
      "chip": "ym2612"
    },
    {
      "channel": 0,
      "note": 73,
      "start": 43.3444,
      "duration": 0.0611,
      "velocity": 95,
      "chip": "ym2612"
    },
    {
      "channel": 0,
      "note": 78,
      "start": 43.4389,
      "duration": 0.0605,
      "velocity": 95,
      "chip": "ym2612"
    },
    {
      "channel": 0,
      "note": 78,
      "start": 43.5322,
      "duration": 0.0611,
      "velocity": 95,
      "chip": "ym2612"
    },
    {
      "channel": 0,
      "note": 71,
      "start": 43.6264,
      "duration": 0.0607,
      "velocity": 95,
      "chip": "ym2612"
    },
    {
      "channel": 2,
      "note": 71,
      "start": 43.63,
      "duration": 0.7148,
      "velocity": 95,
      "chip": "ym2612"
    },
    {
      "channel": 4,
      "note": 74,
      "start": 43.6321,
      "duration": 0.713,
      "velocity": 95,
      "chip": "ym2612"
    },
    {
      "channel": 0,
      "note": 71,
      "start": 43.72,
      "duration": 0.0611,
      "velocity": 95,
      "chip": "ym2612"
    },
    {
      "channel": 0,
      "note": 78,
      "start": 43.8139,
      "duration": 0.0611,
      "velocity": 95,
      "chip": "ym2612"
    },
    {
      "channel": 5,
      "note": 71,
      "start": 43.8164,
      "duration": 0.717,
      "velocity": 95,
      "chip": "ym2612"
    },
    {
      "channel": 0,
      "note": 78,
      "start": 43.9079,
      "duration": 0.0611,
      "velocity": 95,
      "chip": "ym2612"
    },
    {
      "channel": 0,
      "note": 76,
      "start": 44.0018,
      "duration": 0.061,
      "velocity": 95,
      "chip": "ym2612"
    },
    {
      "channel": 0,
      "note": 76,
      "start": 44.0956,
      "duration": 0.0611,
      "velocity": 95,
      "chip": "ym2612"
    },
    {
      "channel": 0,
      "note": 78,
      "start": 44.1895,
      "duration": 0.0611,
      "velocity": 95,
      "chip": "ym2612"
    },
    {
      "channel": 0,
      "note": 78,
      "start": 44.2834,
      "duration": 0.0611,
      "velocity": 95,
      "chip": "ym2612"
    },
    {
      "channel": 0,
      "note": 74,
      "start": 44.3773,
      "duration": 0.0611,
      "velocity": 95,
      "chip": "ym2612"
    },
    {
      "channel": 2,
      "note": 73,
      "start": 44.3792,
      "duration": 0.7169,
      "velocity": 95,
      "chip": "ym2612"
    },
    {
      "channel": 3,
      "note": 64,
      "start": 44.3808,
      "duration": 0.0111,
      "velocity": 127,
      "chip": "ym2612"
    },
    {
      "channel": 4,
      "note": 76,
      "start": 44.3825,
      "duration": 0.7139,
      "velocity": 95,
      "chip": "ym2612"
    },
    {
      "channel": 0,
      "note": 74,
      "start": 44.4713,
      "duration": 0.061,
      "velocity": 95,
      "chip": "ym2612"
    },
    {
      "channel": 0,
      "note": 78,
      "start": 44.5651,
      "duration": 0.0611,
      "velocity": 95,
      "chip": "ym2612"
    },
    {
      "channel": 5,
      "note": 73,
      "start": 44.5677,
      "duration": 0.717,
      "velocity": 95,
      "chip": "ym2612"
    },
    {
      "channel": 0,
      "note": 78,
      "start": 44.659,
      "duration": 0.0611,
      "velocity": 95,
      "chip": "ym2612"
    },
    {
      "channel": 0,
      "note": 73,
      "start": 44.7529,
      "duration": 0.0611,
      "velocity": 95,
      "chip": "ym2612"
    },
    {
      "channel": 0,
      "note": 73,
      "start": 44.8468,
      "duration": 0.0611,
      "velocity": 95,
      "chip": "ym2612"
    },
    {
      "channel": 0,
      "note": 78,
      "start": 44.9407,
      "duration": 0.0611,
      "velocity": 95,
      "chip": "ym2612"
    },
    {
      "channel": 0,
      "note": 78,
      "start": 45.0346,
      "duration": 0.0611,
      "velocity": 95,
      "chip": "ym2612"
    },
    {
      "channel": 0,
      "note": 71,
      "start": 45.1288,
      "duration": 0.0608,
      "velocity": 95,
      "chip": "ym2612"
    },
    {
      "channel": 1,
      "note": 47,
      "start": 45.1307,
      "duration": 0.153,
      "velocity": 99,
      "chip": "ym2612"
    },
    {
      "channel": 2,
      "note": 71,
      "start": 45.1325,
      "duration": 2.9683,
      "velocity": 95,
      "chip": "ym2612"
    },
    {
      "channel": 3,
      "note": 64,
      "start": 45.1376,
      "duration": 0.007,
      "velocity": 127,
      "chip": "ym2612"
    },
    {
      "channel": 4,
      "note": 74,
      "start": 45.1393,
      "duration": 2.9623,
      "velocity": 95,
      "chip": "ym2612"
    },
    {
      "channel": 0,
      "note": 71,
      "start": 45.2224,
      "duration": 0.0611,
      "velocity": 95,
      "chip": "ym2612"
    },
    {
      "channel": 0,
      "note": 78,
      "start": 45.3163,
      "duration": 0.061,
      "velocity": 95,
      "chip": "ym2612"
    },
    {
      "channel": 1,
      "note": 47,
      "start": 45.3179,
      "duration": 2.2193,
      "velocity": 99,
      "chip": "ym2612"
    },
    {
      "channel": 3,
      "note": 64,
      "start": 45.3201,
      "duration": 0.0112,
      "velocity": 127,
      "chip": "ym2612"
    },
    {
      "channel": 5,
      "note": 71,
      "start": 45.322,
      "duration": 2.9831,
      "velocity": 95,
      "chip": "ym2612"
    },
    {
      "channel": 0,
      "note": 78,
      "start": 45.4102,
      "duration": 0.0611,
      "velocity": 95,
      "chip": "ym2612"
    },
    {
      "channel": 0,
      "note": 76,
      "start": 45.5041,
      "duration": 0.0611,
      "velocity": 95,
      "chip": "ym2612"
    },
    {
      "channel": 0,
      "note": 76,
      "start": 45.598,
      "duration": 0.0611,
      "velocity": 95,
      "chip": "ym2612"
    },
    {
      "channel": 0,
      "note": 78,
      "start": 45.6919,
      "duration": 0.0611,
      "velocity": 95,
      "chip": "ym2612"
    },
    {
      "channel": 0,
      "note": 78,
      "start": 45.7858,
      "duration": 0.0611,
      "velocity": 95,
      "chip": "ym2612"
    },
    {
      "channel": 0,
      "note": 74,
      "start": 45.8797,
      "duration": 0.0611,
      "velocity": 95,
      "chip": "ym2612"
    },
    {
      "channel": 3,
      "note": 64,
      "start": 45.8851,
      "duration": 0.0095,
      "velocity": 127,
      "chip": "ym2612"
    },
    {
      "channel": 0,
      "note": 74,
      "start": 45.9736,
      "duration": 0.0611,
      "velocity": 95,
      "chip": "ym2612"
    },
    {
      "channel": 0,
      "note": 78,
      "start": 46.0675,
      "duration": 0.0611,
      "velocity": 95,
      "chip": "ym2612"
    },
    {
      "channel": 0,
      "note": 78,
      "start": 46.1614,
      "duration": 0.0611,
      "velocity": 95,
      "chip": "ym2612"
    },
    {
      "channel": 0,
      "note": 73,
      "start": 46.2553,
      "duration": 0.061,
      "velocity": 95,
      "chip": "ym2612"
    },
    {
      "channel": 0,
      "note": 73,
      "start": 46.3492,
      "duration": 0.061,
      "velocity": 95,
      "chip": "ym2612"
    },
    {
      "channel": 0,
      "note": 78,
      "start": 46.4431,
      "duration": 0.0611,
      "velocity": 95,
      "chip": "ym2612"
    },
    {
      "channel": 0,
      "note": 78,
      "start": 46.537,
      "duration": 0.0611,
      "velocity": 95,
      "chip": "ym2612"
    },
    {
      "channel": 0,
      "note": 71,
      "start": 46.6312,
      "duration": 0.0607,
      "velocity": 95,
      "chip": "ym2612"
    },
    {
      "channel": 3,
      "note": 64,
      "start": 46.6378,
      "duration": 0.0085,
      "velocity": 127,
      "chip": "ym2612"
    },
    {
      "channel": 0,
      "note": 71,
      "start": 46.7248,
      "duration": 0.0611,
      "velocity": 95,
      "chip": "ym2612"
    },
    {
      "channel": 0,
      "note": 78,
      "start": 46.8187,
      "duration": 0.0611,
      "velocity": 95,
      "chip": "ym2612"
    },
    {
      "channel": 0,
      "note": 78,
      "start": 46.9126,
      "duration": 0.0611,
      "velocity": 95,
      "chip": "ym2612"
    },
    {
      "channel": 0,
      "note": 76,
      "start": 47.0065,
      "duration": 0.0611,
      "velocity": 95,
      "chip": "ym2612"
    },
    {
      "channel": 3,
      "note": 64,
      "start": 47.012,
      "duration": 0.0095,
      "velocity": 127,
      "chip": "ym2612"
    },
    {
      "channel": 0,
      "note": 76,
      "start": 47.1013,
      "duration": 0.0601,
      "velocity": 95,
      "chip": "ym2612"
    },
    {
      "channel": 0,
      "note": 78,
      "start": 47.1943,
      "duration": 0.062,
      "velocity": 95,
      "chip": "ym2612"
    },
    {
      "channel": 0,
      "note": 78,
      "start": 47.2882,
      "duration": 0.061,
      "velocity": 95,
      "chip": "ym2612"
    },
    {
      "channel": 0,
      "note": 74,
      "start": 47.382,
      "duration": 0.0611,
      "velocity": 95,
      "chip": "ym2612"
    },
    {
      "channel": 3,
      "note": 64,
      "start": 47.3876,
      "duration": 0.0095,
      "velocity": 127,
      "chip": "ym2612"
    },
    {
      "channel": 0,
      "note": 74,
      "start": 47.4759,
      "duration": 0.0611,
      "velocity": 95,
      "chip": "ym2612"
    },
    {
      "channel": 0,
      "note": 78,
      "start": 47.5707,
      "duration": 0.0602,
      "velocity": 95,
      "chip": "ym2612"
    },
    {
      "channel": 1,
      "note": 47,
      "start": 47.5724,
      "duration": 0.1533,
      "velocity": 99,
      "chip": "ym2612"
    },
    {
      "channel": 3,
      "note": 64,
      "start": 47.5777,
      "duration": 0.0071,
      "velocity": 127,
      "chip": "ym2612"
    },
    {
      "channel": 0,
      "note": 78,
      "start": 47.6637,
      "duration": 0.0618,
      "velocity": 95,
      "chip": "ym2612"
    },
    {
      "channel": 0,
      "note": 73,
      "start": 47.7577,
      "duration": 0.061,
      "velocity": 95,
      "chip": "ym2612"
    },
    {
      "channel": 1,
      "note": 45,
      "start": 47.7593,
      "duration": 0.1536,
      "velocity": 99,
      "chip": "ym2612"
    },
    {
      "channel": 3,
      "note": 64,
      "start": 47.7614,
      "duration": 0.0112,
      "velocity": 127,
      "chip": "ym2612"
    },
    {
      "channel": 0,
      "note": 73,
      "start": 47.8515,
      "duration": 0.0611,
      "velocity": 95,
      "chip": "ym2612"
    },
    {
      "channel": 0,
      "note": 78,
      "start": 47.9455,
      "duration": 0.061,
      "velocity": 95,
      "chip": "ym2612"
    },
    {
      "channel": 1,
      "note": 43,
      "start": 47.9471,
      "duration": 0.1536,
      "velocity": 99,
      "chip": "ym2612"
    },
    {
      "channel": 3,
      "note": 64,
      "start": 47.9492,
      "duration": 0.0118,
      "velocity": 127,
      "chip": "ym2612"
    },
    {
      "channel": 0,
      "note": 78,
      "start": 48.0399,
      "duration": 0.0605,
      "velocity": 95,
      "chip": "ym2612"
    },
    {
      "channel": 0,
      "note": 71,
      "start": 48.1336,
      "duration": 0.0763,
      "velocity": 95,
      "chip": "ym2612"
    },
    {
      "channel": 1,
      "note": 42,
      "start": 48.1357,
      "duration": 0.0745,
      "velocity": 99,
      "chip": "ym2612"
    },
    {
      "channel": 2,
      "note": 70,
      "start": 48.1378,
      "duration": 0.1663,
      "velocity": 95,
      "chip": "ym2612"
    },
    {
      "channel": 3,
      "note": 64,
      "start": 48.1436,
      "duration": 0.0203,
      "velocity": 127,
      "chip": "ym2612"
    },
    {
      "channel": 4,
      "note": 70,
      "start": 48.149,
      "duration": 0.0621,
      "velocity": 103,
      "chip": "ym2612"
    },
    {
      "channel": 0,
      "note": 71,
      "start": 48.2428,
      "duration": 0.0611,
      "velocity": 95,
      "chip": "ym2612"
    },
    {
      "channel": 0,
      "note": 78,
      "start": 48.3367,
      "duration": 0.0611,
      "velocity": 95,
      "chip": "ym2612"
    },
    {
      "channel": 1,
      "note": 42,
      "start": 48.3383,
      "duration": 0.0597,
      "velocity": 99,
      "chip": "ym2612"
    },
    {
      "channel": 3,
      "note": 64,
      "start": 48.3437,
      "duration": 0.0083,
      "velocity": 127,
      "chip": "ym2612"
    },
    {
      "channel": 4,
      "note": 70,
      "start": 48.3453,
      "duration": 0.0535,
      "velocity": 103,
      "chip": "ym2612"
    },
    {
      "channel": 5,
      "note": 70,
      "start": 48.3474,
      "duration": 0.1456,
      "velocity": 95,
      "chip": "ym2612"
    },
    {
      "channel": 0,
      "note": 78,
      "start": 48.4308,
      "duration": 0.0608,
      "velocity": 95,
      "chip": "ym2612"
    },
    {
      "channel": 1,
      "note": 42,
      "start": 48.4325,
      "duration": 0.0593,
      "velocity": 99,
      "chip": "ym2612"
    },
    {
      "channel": 3,
      "note": 64,
      "start": 48.4346,
      "duration": 0.011,
      "velocity": 127,
      "chip": "ym2612"
    },
    {
      "channel": 4,
      "note": 70,
      "start": 48.4363,
      "duration": 0.0564,
      "velocity": 103,
      "chip": "ym2612"
    },
    {
      "channel": 0,
      "note": 76,
      "start": 48.5245,
      "duration": 0.0614,
      "velocity": 95,
      "chip": "ym2612"
    },
    {
      "channel": 1,
      "note": 42,
      "start": 48.5263,
      "duration": 0.0598,
      "velocity": 99,
      "chip": "ym2612"
    },
    {
      "channel": 2,
      "note": 70,
      "start": 48.528,
      "duration": 0.1518,
      "velocity": 95,
      "chip": "ym2612"
    },
    {
      "channel": 3,
      "note": 64,
      "start": 48.5332,
      "duration": 0.0066,
      "velocity": 127,
      "chip": "ym2612"
    },
    {
      "channel": 4,
      "note": 70,
      "start": 48.5351,
      "duration": 0.0518,
      "velocity": 103,
      "chip": "ym2612"
    },
    {
      "channel": 0,
      "note": 76,
      "start": 48.6184,
      "duration": 0.0611,
      "velocity": 95,
      "chip": "ym2612"
    },
    {
      "channel": 0,
      "note": 78,
      "start": 48.7123,
      "duration": 0.0611,
      "velocity": 95,
      "chip": "ym2612"
    },
    {
      "channel": 1,
      "note": 42,
      "start": 48.7139,
      "duration": 0.0597,
      "velocity": 99,
      "chip": "ym2612"
    },
    {
      "channel": 2,
      "note": 71,
      "start": 48.7156,
      "duration": 0.152,
      "velocity": 95,
      "chip": "ym2612"
    },
    {
      "channel": 3,
      "note": 64,
      "start": 48.7208,
      "duration": 0.008,
      "velocity": 127,
      "chip": "ym2612"
    },
    {
      "channel": 4,
      "note": 70,
      "start": 48.7226,
      "duration": 0.0519,
      "velocity": 103,
      "chip": "ym2612"
    },
    {
      "channel": 5,
      "note": 70,
      "start": 48.7243,
      "duration": 0.1444,
      "velocity": 95,
      "chip": "ym2612"
    },
    {
      "channel": 0,
      "note": 78,
      "start": 48.8062,
      "duration": 0.061,
      "velocity": 95,
      "chip": "ym2612"
    },
    {
      "channel": 1,
      "note": 42,
      "start": 48.8078,
      "duration": 0.0596,
      "velocity": 99,
      "chip": "ym2612"
    },
    {
      "channel": 3,
      "note": 64,
      "start": 48.81,
      "duration": 0.0113,
      "velocity": 127,
      "chip": "ym2612"
    },
    {
      "channel": 4,
      "note": 70,
      "start": 48.8116,
      "duration": 0.0568,
      "velocity": 103,
      "chip": "ym2612"
    },
    {
      "channel": 0,
      "note": 74,
      "start": 48.9001,
      "duration": 0.0767,
      "velocity": 95,
      "chip": "ym2612"
    },
    {
      "channel": 1,
      "note": 42,
      "start": 48.9019,
      "duration": 0.0751,
      "velocity": 99,
      "chip": "ym2612"
    },
    {
      "channel": 2,
      "note": 73,
      "start": 48.9037,
      "duration": 0.3552,
      "velocity": 95,
      "chip": "ym2612"
    },
    {
      "channel": 3,
      "note": 64,
      "start": 48.9091,
      "duration": 0.0216,
      "velocity": 127,
      "chip": "ym2612"
    },
    {
      "channel": 4,
      "note": 70,
      "start": 48.9109,
      "duration": 0.067,
      "velocity": 103,
      "chip": "ym2612"
    },
    {
      "channel": 5,
      "note": 71,
      "start": 48.9126,
      "duration": 0.1592,
      "velocity": 95,
      "chip": "ym2612"
    },
    {
      "channel": 0,
      "note": 74,
      "start": 49.0097,
      "duration": 0.061,
      "velocity": 95,
      "chip": "ym2612"
    },
    {
      "channel": 0,
      "note": 78,
      "start": 49.1035,
      "duration": 0.0611,
      "velocity": 95,
      "chip": "ym2612"
    },
    {
      "channel": 1,
      "note": 42,
      "start": 49.1052,
      "duration": 0.0596,
      "velocity": 99,
      "chip": "ym2612"
    },
    {
      "channel": 3,
      "note": 64,
      "start": 49.1105,
      "duration": 0.008,
      "velocity": 127,
      "chip": "ym2612"
    },
    {
      "channel": 4,
      "note": 70,
      "start": 49.1123,
      "duration": 0.0534,
      "velocity": 103,
      "chip": "ym2612"
    },
    {
      "channel": 5,
      "note": 73,
      "start": 49.1139,
      "duration": 0.3335,
      "velocity": 95,
      "chip": "ym2612"
    },
    {
      "channel": 0,
      "note": 78,
      "start": 49.1974,
      "duration": 0.061,
      "velocity": 95,
      "chip": "ym2612"
    },
    {
      "channel": 1,
      "note": 42,
      "start": 49.199,
      "duration": 0.0597,
      "velocity": 99,
      "chip": "ym2612"
    },
    {
      "channel": 3,
      "note": 64,
      "start": 49.2012,
      "duration": 0.0113,
      "velocity": 127,
      "chip": "ym2612"
    },
    {
      "channel": 4,
      "note": 70,
      "start": 49.2028,
      "duration": 0.0568,
      "velocity": 103,
      "chip": "ym2612"
    },
    {
      "channel": 0,
      "note": 73,
      "start": 49.2913,
      "duration": 0.0611,
      "velocity": 95,
      "chip": "ym2612"
    },
    {
      "channel": 1,
      "note": 42,
      "start": 49.293,
      "duration": 0.0596,
      "velocity": 99,
      "chip": "ym2612"
    },
    {
      "channel": 2,
      "note": 66,
      "start": 49.2948,
      "duration": 0.3397,
      "velocity": 95,
      "chip": "ym2612"
    },
    {
      "channel": 3,
      "note": 64,
      "start": 49.3001,
      "duration": 0.0065,
      "velocity": 127,
      "chip": "ym2612"
    },
    {
      "channel": 4,
      "note": 70,
      "start": 49.3019,
      "duration": 0.0517,
      "velocity": 103,
      "chip": "ym2612"
    },
    {
      "channel": 0,
      "note": 73,
      "start": 49.3852,
      "duration": 0.0611,
      "velocity": 95,
      "chip": "ym2612"
    },
    {
      "channel": 0,
      "note": 78,
      "start": 49.4791,
      "duration": 0.0611,
      "velocity": 95,
      "chip": "ym2612"
    },
    {
      "channel": 1,
      "note": 42,
      "start": 49.4807,
      "duration": 0.0597,
      "velocity": 99,
      "chip": "ym2612"
    },
    {
      "channel": 3,
      "note": 64,
      "start": 49.4861,
      "duration": 0.0081,
      "velocity": 127,
      "chip": "ym2612"
    },
    {
      "channel": 4,
      "note": 70,
      "start": 49.4878,
      "duration": 0.0535,
      "velocity": 103,
      "chip": "ym2612"
    },
    {
      "channel": 5,
      "note": 66,
      "start": 49.4894,
      "duration": 0.3494,
      "velocity": 95,
      "chip": "ym2612"
    },
    {
      "channel": 0,
      "note": 78,
      "start": 49.573,
      "duration": 0.0611,
      "velocity": 95,
      "chip": "ym2612"
    },
    {
      "channel": 1,
      "note": 42,
      "start": 49.5746,
      "duration": 0.0597,
      "velocity": 99,
      "chip": "ym2612"
    },
    {
      "channel": 3,
      "note": 64,
      "start": 49.5768,
      "duration": 0.0113,
      "velocity": 127,
      "chip": "ym2612"
    },
    {
      "channel": 4,
      "note": 70,
      "start": 49.5785,
      "duration": 0.0568,
      "velocity": 103,
      "chip": "ym2612"
    },
    {
      "channel": 0,
      "note": 71,
      "start": 49.6672,
      "duration": 0.0764,
      "velocity": 95,
      "chip": "ym2612"
    },
    {
      "channel": 1,
      "note": 43,
      "start": 49.6694,
      "duration": 0.0744,
      "velocity": 99,
      "chip": "ym2612"
    },
    {
      "channel": 2,
      "note": 67,
      "start": 49.6712,
      "duration": 0.1667,
      "velocity": 95,
      "chip": "ym2612"
    },
    {
      "channel": 3,
      "note": 64,
      "start": 49.6766,
      "duration": 0.021,
      "velocity": 127,
      "chip": "ym2612"
    },
    {
      "channel": 4,
      "note": 71,
      "start": 49.6789,
      "duration": 0.0658,
      "velocity": 103,
      "chip": "ym2612"
    },
    {
      "channel": 0,
      "note": 71,
      "start": 49.7764,
      "duration": 0.0611,
      "velocity": 95,
      "chip": "ym2612"
    },
    {
      "channel": 0,
      "note": 78,
      "start": 49.8703,
      "duration": 0.0611,
      "velocity": 95,
      "chip": "ym2612"
    },
    {
      "channel": 1,
      "note": 43,
      "start": 49.872,
      "duration": 0.0597,
      "velocity": 99,
      "chip": "ym2612"
    },
    {
      "channel": 2,
      "note": 66,
      "start": 49.8738,
      "duration": 0.152,
      "velocity": 95,
      "chip": "ym2612"
    },
    {
      "channel": 3,
      "note": 64,
      "start": 49.879,
      "duration": 0.0079,
      "velocity": 127,
      "chip": "ym2612"
    },
    {
      "channel": 4,
      "note": 71,
      "start": 49.8806,
      "duration": 0.0519,
      "velocity": 103,
      "chip": "ym2612"
    },
    {
      "channel": 5,
      "note": 67,
      "start": 49.8824,
      "duration": 0.1443,
      "velocity": 95,
      "chip": "ym2612"
    },
    {
      "channel": 0,
      "note": 78,
      "start": 49.9642,
      "duration": 0.0611,
      "velocity": 95,
      "chip": "ym2612"
    },
    {
      "channel": 1,
      "note": 43,
      "start": 49.9659,
      "duration": 0.0596,
      "velocity": 99,
      "chip": "ym2612"
    },
    {
      "channel": 3,
      "note": 64,
      "start": 49.968,
      "duration": 0.0112,
      "velocity": 127,
      "chip": "ym2612"
    },
    {
      "channel": 4,
      "note": 71,
      "start": 49.9697,
      "duration": 0.0568,
      "velocity": 103,
      "chip": "ym2612"
    },
    {
      "channel": 0,
      "note": 70,
      "start": 50.0581,
      "duration": 0.0767,
      "velocity": 95,
      "chip": "ym2612"
    },
    {
      "channel": 1,
      "note": 43,
      "start": 50.0599,
      "duration": 0.0752,
      "velocity": 99,
      "chip": "ym2612"
    },
    {
      "channel": 2,
      "note": 64,
      "start": 50.0617,
      "duration": 0.1674,
      "velocity": 95,
      "chip": "ym2612"
    },
    {
      "channel": 3,
      "note": 64,
      "start": 50.0669,
      "duration": 0.022,
      "velocity": 127,
      "chip": "ym2612"
    },
    {
      "channel": 4,
      "note": 71,
      "start": 50.0688,
      "duration": 0.0672,
      "velocity": 103,
      "chip": "ym2612"
    },
    {
      "channel": 5,
      "note": 66,
      "start": 50.0704,
      "duration": 0.1596,
      "velocity": 95,
      "chip": "ym2612"
    },
    {
      "channel": 0,
      "note": 70,
      "start": 50.1677,
      "duration": 0.061,
      "velocity": 95,
      "chip": "ym2612"
    },
    {
      "channel": 0,
      "note": 78,
      "start": 50.2616,
      "duration": 0.0611,
      "velocity": 95,
      "chip": "ym2612"
    },
    {
      "channel": 1,
      "note": 43,
      "start": 50.2632,
      "duration": 0.0597,
      "velocity": 99,
      "chip": "ym2612"
    },
    {
      "channel": 2,
      "note": 66,
      "start": 50.2649,
      "duration": 0.1521,
      "velocity": 95,
      "chip": "ym2612"
    },
    {
      "channel": 3,
      "note": 64,
      "start": 50.2701,
      "duration": 0.008,
      "velocity": 127,
      "chip": "ym2612"
    },
    {
      "channel": 4,
      "note": 71,
      "start": 50.2719,
      "duration": 0.0519,
      "velocity": 103,
      "chip": "ym2612"
    },
    {
      "channel": 5,
      "note": 64,
      "start": 50.2735,
      "duration": 0.1445,
      "velocity": 95,
      "chip": "ym2612"
    },
    {
      "channel": 0,
      "note": 78,
      "start": 50.3555,
      "duration": 0.0611,
      "velocity": 95,
      "chip": "ym2612"
    },
    {
      "channel": 1,
      "note": 43,
      "start": 50.3571,
      "duration": 0.0597,
      "velocity": 99,
      "chip": "ym2612"
    },
    {
      "channel": 3,
      "note": 64,
      "start": 50.3593,
      "duration": 0.0112,
      "velocity": 127,
      "chip": "ym2612"
    },
    {
      "channel": 4,
      "note": 71,
      "start": 50.361,
      "duration": 0.0568,
      "velocity": 103,
      "chip": "ym2612"
    },
    {
      "channel": 0,
      "note": 71,
      "start": 50.4494,
      "duration": 0.0766,
      "velocity": 95,
      "chip": "ym2612"
    },
    {
      "channel": 1,
      "note": 43,
      "start": 50.4511,
      "duration": 0.0752,
      "velocity": 99,
      "chip": "ym2612"
    },
    {
      "channel": 2,
      "note": 64,
      "start": 50.4529,
      "duration": 0.1674,
      "velocity": 95,
      "chip": "ym2612"
    },
    {
      "channel": 3,
      "note": 64,
      "start": 50.4586,
      "duration": 0.0214,
      "velocity": 127,
      "chip": "ym2612"
    },
    {
      "channel": 4,
      "note": 71,
      "start": 50.4604,
      "duration": 0.0668,
      "velocity": 103,
      "chip": "ym2612"
    },
    {
      "channel": 5,
      "note": 66,
      "start": 50.4621,
      "duration": 0.1591,
      "velocity": 95,
      "chip": "ym2612"
    },
    {
      "channel": 0,
      "note": 71,
      "start": 50.559,
      "duration": 0.0611,
      "velocity": 95,
      "chip": "ym2612"
    },
    {
      "channel": 0,
      "note": 78,
      "start": 50.6528,
      "duration": 0.0611,
      "velocity": 95,
      "chip": "ym2612"
    },
    {
      "channel": 1,
      "note": 43,
      "start": 50.6544,
      "duration": 0.0597,
      "velocity": 99,
      "chip": "ym2612"
    },
    {
      "channel": 2,
      "note": 62,
      "start": 50.6562,
      "duration": 0.152,
      "velocity": 95,
      "chip": "ym2612"
    },
    {
      "channel": 3,
      "note": 64,
      "start": 50.6583,
      "duration": 0.0095,
      "velocity": 127,
      "chip": "ym2612"
    },
    {
      "channel": 4,
      "note": 71,
      "start": 50.66,
      "duration": 0.055,
      "velocity": 103,
      "chip": "ym2612"
    },
    {
      "channel": 5,
      "note": 64,
      "start": 50.6616,
      "duration": 0.1476,
      "velocity": 95,
      "chip": "ym2612"
    },
    {
      "channel": 0,
      "note": 78,
      "start": 50.7467,
      "duration": 0.0611,
      "velocity": 95,
      "chip": "ym2612"
    },
    {
      "channel": 1,
      "note": 43,
      "start": 50.7483,
      "duration": 0.0597,
      "velocity": 99,
      "chip": "ym2612"
    },
    {
      "channel": 3,
      "note": 64,
      "start": 50.7505,
      "duration": 0.0112,
      "velocity": 127,
      "chip": "ym2612"
    },
    {
      "channel": 4,
      "note": 71,
      "start": 50.7522,
      "duration": 0.0568,
      "velocity": 103,
      "chip": "ym2612"
    },
    {
      "channel": 0,
      "note": 73,
      "start": 50.8406,
      "duration": 0.0767,
      "velocity": 95,
      "chip": "ym2612"
    },
    {
      "channel": 1,
      "note": 43,
      "start": 50.8424,
      "duration": 0.0751,
      "velocity": 99,
      "chip": "ym2612"
    },
    {
      "channel": 2,
      "note": 64,
      "start": 50.8441,
      "duration": 0.1675,
      "velocity": 95,
      "chip": "ym2612"
    },
    {
      "channel": 3,
      "note": 64,
      "start": 50.8494,
      "duration": 0.0219,
      "velocity": 127,
      "chip": "ym2612"
    },
    {
      "channel": 4,
      "note": 71,
      "start": 50.8512,
      "duration": 0.0673,
      "velocity": 103,
      "chip": "ym2612"
    },
    {
      "channel": 5,
      "note": 62,
      "start": 50.8528,
      "duration": 0.1596,
      "velocity": 95,
      "chip": "ym2612"
    },
    {
      "channel": 0,
      "note": 73,
      "start": 50.9502,
      "duration": 0.0611,
      "velocity": 95,
      "chip": "ym2612"
    },
    {
      "channel": 0,
      "note": 78,
      "start": 51.0441,
      "duration": 0.0611,
      "velocity": 95,
      "chip": "ym2612"
    },
    {
      "channel": 1,
      "note": 43,
      "start": 51.0456,
      "duration": 0.0597,
      "velocity": 99,
      "chip": "ym2612"
    },
    {
      "channel": 2,
      "note": 61,
      "start": 51.0474,
      "duration": 0.152,
      "velocity": 95,
      "chip": "ym2612"
    },
    {
      "channel": 3,
      "note": 64,
      "start": 51.0495,
      "duration": 0.0096,
      "velocity": 127,
      "chip": "ym2612"
    },
    {
      "channel": 4,
      "note": 71,
      "start": 51.0511,
      "duration": 0.0551,
      "velocity": 103,
      "chip": "ym2612"
    },
    {
      "channel": 5,
      "note": 64,
      "start": 51.0528,
      "duration": 0.1477,
      "velocity": 95,
      "chip": "ym2612"
    },
    {
      "channel": 0,
      "note": 78,
      "start": 51.138,
      "duration": 0.061,
      "velocity": 95,
      "chip": "ym2612"
    },
    {
      "channel": 1,
      "note": 43,
      "start": 51.1396,
      "duration": 0.0597,
      "velocity": 99,
      "chip": "ym2612"
    },
    {
      "channel": 3,
      "note": 64,
      "start": 51.1418,
      "duration": 0.0113,
      "velocity": 127,
      "chip": "ym2612"
    },
    {
      "channel": 4,
      "note": 71,
      "start": 51.1434,
      "duration": 0.0568,
      "velocity": 103,
      "chip": "ym2612"
    },
    {
      "channel": 0,
      "note": 71,
      "start": 51.2322,
      "duration": 0.0764,
      "velocity": 95,
      "chip": "ym2612"
    },
    {
      "channel": 1,
      "note": 42,
      "start": 51.2343,
      "duration": 0.0745,
      "velocity": 99,
      "chip": "ym2612"
    },
    {
      "channel": 2,
      "note": 70,
      "start": 51.2364,
      "duration": 0.1665,
      "velocity": 95,
      "chip": "ym2612"
    },
    {
      "channel": 3,
      "note": 64,
      "start": 51.2421,
      "duration": 0.0204,
      "velocity": 127,
      "chip": "ym2612"
    },
    {
      "channel": 4,
      "note": 70,
      "start": 51.2444,
      "duration": 0.0653,
      "velocity": 103,
      "chip": "ym2612"
    },
    {
      "channel": 5,
      "note": 61,
      "start": 51.246,
      "duration": 0.1576,
      "velocity": 95,
      "chip": "ym2612"
    },
    {
      "channel": 0,
      "note": 71,
      "start": 51.3414,
      "duration": 0.0611,
      "velocity": 95,
      "chip": "ym2612"
    },
    {
      "channel": 0,
      "note": 78,
      "start": 51.4353,
      "duration": 0.0611,
      "velocity": 95,
      "chip": "ym2612"
    },
    {
      "channel": 1,
      "note": 42,
      "start": 51.4369,
      "duration": 0.0597,
      "velocity": 99,
      "chip": "ym2612"
    },
    {
      "channel": 3,
      "note": 64,
      "start": 51.4423,
      "duration": 0.008,
      "velocity": 127,
      "chip": "ym2612"
    },
    {
      "channel": 4,
      "note": 70,
      "start": 51.444,
      "duration": 0.0535,
      "velocity": 103,
      "chip": "ym2612"
    },
    {
      "channel": 5,
      "note": 70,
      "start": 51.446,
      "duration": 0.1456,
      "velocity": 95,
      "chip": "ym2612"
    },
    {
      "channel": 0,
      "note": 78,
      "start": 51.5293,
      "duration": 0.061,
      "velocity": 95,
      "chip": "ym2612"
    },
    {
      "channel": 1,
      "note": 42,
      "start": 51.5308,
      "duration": 0.0597,
      "velocity": 99,
      "chip": "ym2612"
    },
    {
      "channel": 3,
      "note": 64,
      "start": 51.533,
      "duration": 0.0112,
      "velocity": 127,
      "chip": "ym2612"
    },
    {
      "channel": 4,
      "note": 70,
      "start": 51.5346,
      "duration": 0.0567,
      "velocity": 103,
      "chip": "ym2612"
    },
    {
      "channel": 0,
      "note": 76,
      "start": 51.6231,
      "duration": 0.0611,
      "velocity": 95,
      "chip": "ym2612"
    },
    {
      "channel": 1,
      "note": 42,
      "start": 51.6249,
      "duration": 0.0595,
      "velocity": 99,
      "chip": "ym2612"
    },
    {
      "channel": 2,
      "note": 70,
      "start": 51.6266,
      "duration": 0.1518,
      "velocity": 95,
      "chip": "ym2612"
    },
    {
      "channel": 3,
      "note": 64,
      "start": 51.6319,
      "duration": 0.0067,
      "velocity": 127,
      "chip": "ym2612"
    },
    {
      "channel": 4,
      "note": 70,
      "start": 51.6337,
      "duration": 0.0516,
      "velocity": 103,
      "chip": "ym2612"
    },
    {
      "channel": 0,
      "note": 76,
      "start": 51.717,
      "duration": 0.0611,
      "velocity": 95,
      "chip": "ym2612"
    },
    {
      "channel": 0,
      "note": 78,
      "start": 51.8109,
      "duration": 0.0611,
      "velocity": 95,
      "chip": "ym2612"
    },
    {
      "channel": 1,
      "note": 42,
      "start": 51.8125,
      "duration": 0.0597,
      "velocity": 99,
      "chip": "ym2612"
    },
    {
      "channel": 2,
      "note": 71,
      "start": 51.8143,
      "duration": 0.152,
      "velocity": 95,
      "chip": "ym2612"
    },
    {
      "channel": 3,
      "note": 64,
      "start": 51.8195,
      "duration": 0.0079,
      "velocity": 127,
      "chip": "ym2612"
    },
    {
      "channel": 4,
      "note": 70,
      "start": 51.8212,
      "duration": 0.0519,
      "velocity": 103,
      "chip": "ym2612"
    },
    {
      "channel": 5,
      "note": 70,
      "start": 51.8229,
      "duration": 0.1444,
      "velocity": 95,
      "chip": "ym2612"
    },
    {
      "channel": 0,
      "note": 78,
      "start": 51.9048,
      "duration": 0.0611,
      "velocity": 95,
      "chip": "ym2612"
    },
    {
      "channel": 1,
      "note": 42,
      "start": 51.9065,
      "duration": 0.0596,
      "velocity": 99,
      "chip": "ym2612"
    },
    {
      "channel": 3,
      "note": 64,
      "start": 51.9086,
      "duration": 0.0112,
      "velocity": 127,
      "chip": "ym2612"
    },
    {
      "channel": 4,
      "note": 70,
      "start": 51.9103,
      "duration": 0.0568,
      "velocity": 103,
      "chip": "ym2612"
    },
    {
      "channel": 0,
      "note": 74,
      "start": 51.9987,
      "duration": 0.0767,
      "velocity": 95,
      "chip": "ym2612"
    },
    {
      "channel": 1,
      "note": 42,
      "start": 52.0004,
      "duration": 0.0752,
      "velocity": 99,
      "chip": "ym2612"
    },
    {
      "channel": 2,
      "note": 73,
      "start": 52.0022,
      "duration": 0.3554,
      "velocity": 95,
      "chip": "ym2612"
    },
    {
      "channel": 3,
      "note": 64,
      "start": 52.0077,
      "duration": 0.0217,
      "velocity": 127,
      "chip": "ym2612"
    },
    {
      "channel": 4,
      "note": 70,
      "start": 52.0095,
      "duration": 0.067,
      "velocity": 103,
      "chip": "ym2612"
    },
    {
      "channel": 5,
      "note": 71,
      "start": 52.0112,
      "duration": 0.1593,
      "velocity": 95,
      "chip": "ym2612"
    },
    {
      "channel": 0,
      "note": 74,
      "start": 52.1083,
      "duration": 0.0611,
      "velocity": 95,
      "chip": "ym2612"
    },
    {
      "channel": 0,
      "note": 78,
      "start": 52.2022,
      "duration": 0.0611,
      "velocity": 95,
      "chip": "ym2612"
    },
    {
      "channel": 1,
      "note": 42,
      "start": 52.2037,
      "duration": 0.0597,
      "velocity": 99,
      "chip": "ym2612"
    },
    {
      "channel": 3,
      "note": 64,
      "start": 52.2091,
      "duration": 0.008,
      "velocity": 127,
      "chip": "ym2612"
    },
    {
      "channel": 4,
      "note": 70,
      "start": 52.2109,
      "duration": 0.0535,
      "velocity": 103,
      "chip": "ym2612"
    },
    {
      "channel": 5,
      "note": 73,
      "start": 52.2125,
      "duration": 0.3335,
      "velocity": 95,
      "chip": "ym2612"
    },
    {
      "channel": 0,
      "note": 78,
      "start": 52.296,
      "duration": 0.0611,
      "velocity": 95,
      "chip": "ym2612"
    },
    {
      "channel": 1,
      "note": 42,
      "start": 52.2977,
      "duration": 0.0596,
      "velocity": 99,
      "chip": "ym2612"
    },
    {
      "channel": 3,
      "note": 64,
      "start": 52.2999,
      "duration": 0.0112,
      "velocity": 127,
      "chip": "ym2612"
    },
    {
      "channel": 4,
      "note": 70,
      "start": 52.3015,
      "duration": 0.0568,
      "velocity": 103,
      "chip": "ym2612"
    },
    {
      "channel": 0,
      "note": 73,
      "start": 52.3899,
      "duration": 0.0611,
      "velocity": 95,
      "chip": "ym2612"
    },
    {
      "channel": 1,
      "note": 42,
      "start": 52.3917,
      "duration": 0.0595,
      "velocity": 99,
      "chip": "ym2612"
    },
    {
      "channel": 2,
      "note": 66,
      "start": 52.3934,
      "duration": 0.3397,
      "velocity": 95,
      "chip": "ym2612"
    },
    {
      "channel": 3,
      "note": 64,
      "start": 52.3987,
      "duration": 0.0066,
      "velocity": 127,
      "chip": "ym2612"
    },
    {
      "channel": 4,
      "note": 70,
      "start": 52.4005,
      "duration": 0.0517,
      "velocity": 103,
      "chip": "ym2612"
    },
    {
      "channel": 0,
      "note": 73,
      "start": 52.4838,
      "duration": 0.0611,
      "velocity": 95,
      "chip": "ym2612"
    },
    {
      "channel": 0,
      "note": 78,
      "start": 52.5777,
      "duration": 0.062,
      "velocity": 95,
      "chip": "ym2612"
    },
    {
      "channel": 1,
      "note": 42,
      "start": 52.5794,
      "duration": 0.0605,
      "velocity": 99,
      "chip": "ym2612"
    },
    {
      "channel": 3,
      "note": 64,
      "start": 52.5847,
      "duration": 0.008,
      "velocity": 127,
      "chip": "ym2612"
    },
    {
      "channel": 4,
      "note": 70,
      "start": 52.5864,
      "duration": 0.0543,
      "velocity": 103,
      "chip": "ym2612"
    },
    {
      "channel": 5,
      "note": 66,
      "start": 52.5881,
      "duration": 0.3493,
      "velocity": 95,
      "chip": "ym2612"
    },
    {
      "channel": 0,
      "note": 78,
      "start": 52.6717,
      "duration": 0.061,
      "velocity": 95,
      "chip": "ym2612"
    },
    {
      "channel": 1,
      "note": 42,
      "start": 52.6733,
      "duration": 0.0597,
      "velocity": 99,
      "chip": "ym2612"
    },
    {
      "channel": 3,
      "note": 64,
      "start": 52.6754,
      "duration": 0.0113,
      "velocity": 127,
      "chip": "ym2612"
    },
    {
      "channel": 4,
      "note": 70,
      "start": 52.6771,
      "duration": 0.0567,
      "velocity": 103,
      "chip": "ym2612"
    },
    {
      "channel": 0,
      "note": 71,
      "start": 52.7658,
      "duration": 0.0765,
      "velocity": 95,
      "chip": "ym2612"
    },
    {
      "channel": 1,
      "note": 47,
      "start": 52.768,
      "duration": 0.0745,
      "velocity": 99,
      "chip": "ym2612"
    },
    {
      "channel": 2,
      "note": 71,
      "start": 52.7698,
      "duration": 0.1667,
      "velocity": 95,
      "chip": "ym2612"
    },
    {
      "channel": 3,
      "note": 64,
      "start": 52.7752,
      "duration": 0.0218,
      "velocity": 127,
      "chip": "ym2612"
    },
    {
      "channel": 4,
      "note": 71,
      "start": 52.7775,
      "duration": 0.0659,
      "velocity": 103,
      "chip": "ym2612"
    },
    {
      "channel": 0,
      "note": 71,
      "start": 52.8758,
      "duration": 0.0603,
      "velocity": 95,
      "chip": "ym2612"
    },
    {
      "channel": 0,
      "note": 78,
      "start": 52.969,
      "duration": 0.0767,
      "velocity": 95,
      "chip": "ym2612"
    },
    {
      "channel": 1,
      "note": 47,
      "start": 52.9706,
      "duration": 0.0753,
      "velocity": 99,
      "chip": "ym2612"
    },
    {
      "channel": 2,
      "note": 73,
      "start": 52.9724,
      "duration": 0.1677,
      "velocity": 95,
      "chip": "ym2612"
    },
    {
      "channel": 3,
      "note": 64,
      "start": 52.9776,
      "duration": 0.0221,
      "velocity": 127,
      "chip": "ym2612"
    },
    {
      "channel": 4,
      "note": 71,
      "start": 52.9793,
      "duration": 0.0675,
      "velocity": 103,
      "chip": "ym2612"
    },
    {
      "channel": 5,
      "note": 71,
      "start": 52.981,
      "duration": 0.1601,
      "velocity": 95,
      "chip": "ym2612"
    },
    {
      "channel": 0,
      "note": 78,
      "start": 53.0785,
      "duration": 0.0611,
      "velocity": 95,
      "chip": "ym2612"
    },
    {
      "channel": 1,
      "note": 47,
      "start": 53.0801,
      "duration": 0.0597,
      "velocity": 99,
      "chip": "ym2612"
    },
    {
      "channel": 3,
      "note": 64,
      "start": 53.0823,
      "duration": 0.0113,
      "velocity": 127,
      "chip": "ym2612"
    },
    {
      "channel": 4,
      "note": 71,
      "start": 53.0839,
      "duration": 0.0569,
      "velocity": 103,
      "chip": "ym2612"
    },
    {
      "channel": 0,
      "note": 70,
      "start": 53.1724,
      "duration": 0.0767,
      "velocity": 95,
      "chip": "ym2612"
    },
    {
      "channel": 1,
      "note": 47,
      "start": 53.1742,
      "duration": 0.0751,
      "velocity": 99,
      "chip": "ym2612"
    },
    {
      "channel": 2,
      "note": 71,
      "start": 53.1759,
      "duration": 0.1679,
      "velocity": 95,
      "chip": "ym2612"
    },
    {
      "channel": 3,
      "note": 64,
      "start": 53.1812,
      "duration": 0.0219,
      "velocity": 127,
      "chip": "ym2612"
    },
    {
      "channel": 4,
      "note": 71,
      "start": 53.183,
      "duration": 0.0672,
      "velocity": 103,
      "chip": "ym2612"
    },
    {
      "channel": 5,
      "note": 73,
      "start": 53.1847,
      "duration": 0.16,
      "velocity": 95,
      "chip": "ym2612"
    },
    {
      "channel": 0,
      "note": 70,
      "start": 53.282,
      "duration": 0.0616,
      "velocity": 95,
      "chip": "ym2612"
    },
    {
      "channel": 0,
      "note": 78,
      "start": 53.3759,
      "duration": 0.0767,
      "velocity": 95,
      "chip": "ym2612"
    },
    {
      "channel": 1,
      "note": 47,
      "start": 53.3775,
      "duration": 0.0753,
      "velocity": 99,
      "chip": "ym2612"
    },
    {
      "channel": 2,
      "note": 70,
      "start": 53.3793,
      "duration": 0.1677,
      "velocity": 95,
      "chip": "ym2612"
    },
    {
      "channel": 3,
      "note": 64,
      "start": 53.3845,
      "duration": 0.0221,
      "velocity": 127,
      "chip": "ym2612"
    },
    {
      "channel": 4,
      "note": 71,
      "start": 53.3862,
      "duration": 0.0675,
      "velocity": 103,
      "chip": "ym2612"
    },
    {
      "channel": 5,
      "note": 71,
      "start": 53.3878,
      "duration": 0.1601,
      "velocity": 95,
      "chip": "ym2612"
    },
    {
      "channel": 0,
      "note": 78,
      "start": 53.4854,
      "duration": 0.0611,
      "velocity": 95,
      "chip": "ym2612"
    },
    {
      "channel": 1,
      "note": 47,
      "start": 53.4871,
      "duration": 0.0595,
      "velocity": 99,
      "chip": "ym2612"
    },
    {
      "channel": 3,
      "note": 64,
      "start": 53.4894,
      "duration": 0.0115,
      "velocity": 127,
      "chip": "ym2612"
    },
    {
      "channel": 4,
      "note": 71,
      "start": 53.491,
      "duration": 0.0567,
      "velocity": 103,
      "chip": "ym2612"
    },
    {
      "channel": 0,
      "note": 71,
      "start": 53.5798,
      "duration": 0.0766,
      "velocity": 95,
      "chip": "ym2612"
    },
    {
      "channel": 1,
      "note": 47,
      "start": 53.5815,
      "duration": 0.0751,
      "velocity": 99,
      "chip": "ym2612"
    },
    {
      "channel": 2,
      "note": 71,
      "start": 53.5832,
      "duration": 0.7305,
      "velocity": 95,
      "chip": "ym2612"
    },
    {
      "channel": 3,
      "note": 64,
      "start": 53.589,
      "duration": 0.0209,
      "velocity": 127,
      "chip": "ym2612"
    },
    {
      "channel": 4,
      "note": 71,
      "start": 53.5908,
      "duration": 0.0667,
      "velocity": 103,
      "chip": "ym2612"
    },
    {
      "channel": 5,
      "note": 70,
      "start": 53.5925,
      "duration": 0.1585,
      "velocity": 95,
      "chip": "ym2612"
    },
    {
      "channel": 0,
      "note": 71,
      "start": 53.6889,
      "duration": 0.061,
      "velocity": 95,
      "chip": "ym2612"
    },
    {
      "channel": 0,
      "note": 78,
      "start": 53.7827,
      "duration": 0.0611,
      "velocity": 95,
      "chip": "ym2612"
    },
    {
      "channel": 1,
      "note": 47,
      "start": 53.7844,
      "duration": 0.0597,
      "velocity": 99,
      "chip": "ym2612"
    },
    {
      "channel": 3,
      "note": 64,
      "start": 53.7866,
      "duration": 0.0112,
      "velocity": 127,
      "chip": "ym2612"
    },
    {
      "channel": 4,
      "note": 71,
      "start": 53.7883,
      "duration": 0.0567,
      "velocity": 103,
      "chip": "ym2612"
    },
    {
      "channel": 5,
      "note": 71,
      "start": 53.79,
      "duration": 0.728,
      "velocity": 95,
      "chip": "ym2612"
    },
    {
      "channel": 0,
      "note": 78,
      "start": 53.8766,
      "duration": 0.0611,
      "velocity": 95,
      "chip": "ym2612"
    },
    {
      "channel": 1,
      "note": 47,
      "start": 53.8782,
      "duration": 0.0597,
      "velocity": 99,
      "chip": "ym2612"
    },
    {
      "channel": 3,
      "note": 64,
      "start": 53.8805,
      "duration": 0.0115,
      "velocity": 127,
      "chip": "ym2612"
    },
    {
      "channel": 4,
      "note": 71,
      "start": 53.8821,
      "duration": 0.0567,
      "velocity": 103,
      "chip": "ym2612"
    },
    {
      "channel": 0,
      "note": 73,
      "start": 53.9708,
      "duration": 0.0608,
      "velocity": 95,
      "chip": "ym2612"
    },
    {
      "channel": 1,
      "note": 47,
      "start": 53.9726,
      "duration": 0.0593,
      "velocity": 99,
      "chip": "ym2612"
    },
    {
      "channel": 3,
      "note": 64,
      "start": 53.978,
      "duration": 0.0076,
      "velocity": 127,
      "chip": "ym2612"
    },
    {
      "channel": 4,
      "note": 71,
      "start": 53.9798,
      "duration": 0.0531,
      "velocity": 103,
      "chip": "ym2612"
    },
    {
      "channel": 0,
      "note": 73,
      "start": 54.0645,
      "duration": 0.0612,
      "velocity": 95,
      "chip": "ym2612"
    },
    {
      "channel": 0,
      "note": 78,
      "start": 54.1584,
      "duration": 0.0611,
      "velocity": 95,
      "chip": "ym2612"
    },
    {
      "channel": 1,
      "note": 47,
      "start": 54.16,
      "duration": 0.0597,
      "velocity": 99,
      "chip": "ym2612"
    },
    {
      "channel": 3,
      "note": 64,
      "start": 54.1621,
      "duration": 0.0112,
      "velocity": 127,
      "chip": "ym2612"
    },
    {
      "channel": 4,
      "note": 71,
      "start": 54.1639,
      "duration": 0.0567,
      "velocity": 103,
      "chip": "ym2612"
    },
    {
      "channel": 0,
      "note": 78,
      "start": 54.2523,
      "duration": 0.0611,
      "velocity": 95,
      "chip": "ym2612"
    },
    {
      "channel": 1,
      "note": 47,
      "start": 54.2539,
      "duration": 0.0597,
      "velocity": 99,
      "chip": "ym2612"
    },
    {
      "channel": 3,
      "note": 64,
      "start": 54.2561,
      "duration": 0.0111,
      "velocity": 127,
      "chip": "ym2612"
    },
    {
      "channel": 4,
      "note": 71,
      "start": 54.2577,
      "duration": 0.0568,
      "velocity": 103,
      "chip": "ym2612"
    },
    {
      "channel": 0,
      "note": 71,
      "start": 54.3464,
      "duration": 0.0764,
      "velocity": 95,
      "chip": "ym2612"
    },
    {
      "channel": 1,
      "note": 42,
      "start": 54.3486,
      "duration": 0.0745,
      "velocity": 99,
      "chip": "ym2612"
    },
    {
      "channel": 2,
      "note": 70,
      "start": 54.3507,
      "duration": 0.1664,
      "velocity": 95,
      "chip": "ym2612"
    },
    {
      "channel": 3,
      "note": 64,
      "start": 54.3564,
      "duration": 0.0204,
      "velocity": 127,
      "chip": "ym2612"
    },
    {
      "channel": 4,
      "note": 70,
      "start": 54.3586,
      "duration": 0.0653,
      "velocity": 103,
      "chip": "ym2612"
    },
    {
      "channel": 0,
      "note": 71,
      "start": 54.4557,
      "duration": 0.0611,
      "velocity": 95,
      "chip": "ym2612"
    },
    {
      "channel": 0,
      "note": 78,
      "start": 54.5496,
      "duration": 0.0611,
      "velocity": 95,
      "chip": "ym2612"
    },
    {
      "channel": 1,
      "note": 42,
      "start": 54.5512,
      "duration": 0.0597,
      "velocity": 99,
      "chip": "ym2612"
    },
    {
      "channel": 3,
      "note": 64,
      "start": 54.5566,
      "duration": 0.008,
      "velocity": 127,
      "chip": "ym2612"
    },
    {
      "channel": 4,
      "note": 70,
      "start": 54.5583,
      "duration": 0.0535,
      "velocity": 103,
      "chip": "ym2612"
    },
    {
      "channel": 5,
      "note": 70,
      "start": 54.5603,
      "duration": 0.1456,
      "velocity": 95,
      "chip": "ym2612"
    },
    {
      "channel": 0,
      "note": 78,
      "start": 54.6435,
      "duration": 0.0611,
      "velocity": 95,
      "chip": "ym2612"
    },
    {
      "channel": 1,
      "note": 42,
      "start": 54.6451,
      "duration": 0.0597,
      "velocity": 99,
      "chip": "ym2612"
    },
    {
      "channel": 3,
      "note": 64,
      "start": 54.6472,
      "duration": 0.0113,
      "velocity": 127,
      "chip": "ym2612"
    },
    {
      "channel": 4,
      "note": 70,
      "start": 54.6489,
      "duration": 0.0568,
      "velocity": 103,
      "chip": "ym2612"
    },
    {
      "channel": 0,
      "note": 76,
      "start": 54.7374,
      "duration": 0.0611,
      "velocity": 95,
      "chip": "ym2612"
    },
    {
      "channel": 1,
      "note": 42,
      "start": 54.7392,
      "duration": 0.0595,
      "velocity": 99,
      "chip": "ym2612"
    },
    {
      "channel": 2,
      "note": 70,
      "start": 54.741,
      "duration": 0.1518,
      "velocity": 95,
      "chip": "ym2612"
    },
    {
      "channel": 3,
      "note": 64,
      "start": 54.7462,
      "duration": 0.0066,
      "velocity": 127,
      "chip": "ym2612"
    },
    {
      "channel": 4,
      "note": 70,
      "start": 54.748,
      "duration": 0.0515,
      "velocity": 103,
      "chip": "ym2612"
    },
    {
      "channel": 0,
      "note": 76,
      "start": 54.8313,
      "duration": 0.0611,
      "velocity": 95,
      "chip": "ym2612"
    },
    {
      "channel": 0,
      "note": 78,
      "start": 54.9252,
      "duration": 0.0767,
      "velocity": 95,
      "chip": "ym2612"
    },
    {
      "channel": 1,
      "note": 42,
      "start": 54.9268,
      "duration": 0.0753,
      "velocity": 99,
      "chip": "ym2612"
    },
    {
      "channel": 2,
      "note": 71,
      "start": 54.9285,
      "duration": 0.1677,
      "velocity": 95,
      "chip": "ym2612"
    },
    {
      "channel": 3,
      "note": 64,
      "start": 54.9338,
      "duration": 0.0221,
      "velocity": 127,
      "chip": "ym2612"
    },
    {
      "channel": 4,
      "note": 70,
      "start": 54.9355,
      "duration": 0.0676,
      "velocity": 103,
      "chip": "ym2612"
    },
    {
      "channel": 5,
      "note": 70,
      "start": 54.9372,
      "duration": 0.16,
      "velocity": 95,
      "chip": "ym2612"
    },
    {
      "channel": 0,
      "note": 78,
      "start": 55.0347,
      "duration": 0.0611,
      "velocity": 95,
      "chip": "ym2612"
    },
    {
      "channel": 1,
      "note": 42,
      "start": 55.0364,
      "duration": 0.0596,
      "velocity": 99,
      "chip": "ym2612"
    },
    {
      "channel": 3,
      "note": 64,
      "start": 55.0386,
      "duration": 0.0111,
      "velocity": 127,
      "chip": "ym2612"
    },
    {
      "channel": 4,
      "note": 70,
      "start": 55.0402,
      "duration": 0.0567,
      "velocity": 103,
      "chip": "ym2612"
    },
    {
      "channel": 0,
      "note": 74,
      "start": 55.1286,
      "duration": 0.0767,
      "velocity": 95,
      "chip": "ym2612"
    },
    {
      "channel": 1,
      "note": 42,
      "start": 55.1304,
      "duration": 0.0751,
      "velocity": 99,
      "chip": "ym2612"
    },
    {
      "channel": 2,
      "note": 73,
      "start": 55.1322,
      "duration": 0.3553,
      "velocity": 95,
      "chip": "ym2612"
    },
    {
      "channel": 3,
      "note": 64,
      "start": 55.1376,
      "duration": 0.0217,
      "velocity": 127,
      "chip": "ym2612"
    },
    {
      "channel": 4,
      "note": 70,
      "start": 55.1394,
      "duration": 0.0671,
      "velocity": 103,
      "chip": "ym2612"
    },
    {
      "channel": 5,
      "note": 71,
      "start": 55.1411,
      "duration": 0.1593,
      "velocity": 95,
      "chip": "ym2612"
    },
    {
      "channel": 0,
      "note": 74,
      "start": 55.2382,
      "duration": 0.061,
      "velocity": 95,
      "chip": "ym2612"
    },
    {
      "channel": 0,
      "note": 78,
      "start": 55.3321,
      "duration": 0.061,
      "velocity": 95,
      "chip": "ym2612"
    },
    {
      "channel": 1,
      "note": 42,
      "start": 55.3337,
      "duration": 0.0597,
      "velocity": 99,
      "chip": "ym2612"
    },
    {
      "channel": 3,
      "note": 64,
      "start": 55.3391,
      "duration": 0.008,
      "velocity": 127,
      "chip": "ym2612"
    },
    {
      "channel": 4,
      "note": 70,
      "start": 55.3407,
      "duration": 0.0535,
      "velocity": 103,
      "chip": "ym2612"
    },
    {
      "channel": 5,
      "note": 73,
      "start": 55.3425,
      "duration": 0.3335,
      "velocity": 95,
      "chip": "ym2612"
    },
    {
      "channel": 0,
      "note": 78,
      "start": 55.426,
      "duration": 0.0611,
      "velocity": 95,
      "chip": "ym2612"
    },
    {
      "channel": 1,
      "note": 42,
      "start": 55.4276,
      "duration": 0.0597,
      "velocity": 99,
      "chip": "ym2612"
    },
    {
      "channel": 3,
      "note": 64,
      "start": 55.4298,
      "duration": 0.0112,
      "velocity": 127,
      "chip": "ym2612"
    },
    {
      "channel": 4,
      "note": 70,
      "start": 55.4314,
      "duration": 0.0569,
      "velocity": 103,
      "chip": "ym2612"
    },
    {
      "channel": 0,
      "note": 73,
      "start": 55.5199,
      "duration": 0.0611,
      "velocity": 95,
      "chip": "ym2612"
    },
    {
      "channel": 1,
      "note": 42,
      "start": 55.5217,
      "duration": 0.0595,
      "velocity": 99,
      "chip": "ym2612"
    },
    {
      "channel": 2,
      "note": 66,
      "start": 55.5234,
      "duration": 0.3396,
      "velocity": 95,
      "chip": "ym2612"
    },
    {
      "channel": 3,
      "note": 64,
      "start": 55.5287,
      "duration": 0.0065,
      "velocity": 127,
      "chip": "ym2612"
    },
    {
      "channel": 4,
      "note": 70,
      "start": 55.5305,
      "duration": 0.0515,
      "velocity": 103,
      "chip": "ym2612"
    },
    {
      "channel": 0,
      "note": 73,
      "start": 55.6138,
      "duration": 0.0611,
      "velocity": 95,
      "chip": "ym2612"
    },
    {
      "channel": 0,
      "note": 78,
      "start": 55.7077,
      "duration": 0.0611,
      "velocity": 95,
      "chip": "ym2612"
    },
    {
      "channel": 1,
      "note": 42,
      "start": 55.7093,
      "duration": 0.0597,
      "velocity": 99,
      "chip": "ym2612"
    },
    {
      "channel": 3,
      "note": 64,
      "start": 55.7146,
      "duration": 0.0081,
      "velocity": 127,
      "chip": "ym2612"
    },
    {
      "channel": 4,
      "note": 70,
      "start": 55.7163,
      "duration": 0.0535,
      "velocity": 103,
      "chip": "ym2612"
    },
    {
      "channel": 5,
      "note": 66,
      "start": 55.718,
      "duration": 0.3493,
      "velocity": 95,
      "chip": "ym2612"
    },
    {
      "channel": 0,
      "note": 78,
      "start": 55.8016,
      "duration": 0.0611,
      "velocity": 95,
      "chip": "ym2612"
    },
    {
      "channel": 1,
      "note": 42,
      "start": 55.8032,
      "duration": 0.0597,
      "velocity": 99,
      "chip": "ym2612"
    },
    {
      "channel": 3,
      "note": 64,
      "start": 55.8054,
      "duration": 0.0112,
      "velocity": 127,
      "chip": "ym2612"
    },
    {
      "channel": 4,
      "note": 70,
      "start": 55.8071,
      "duration": 0.0568,
      "velocity": 103,
      "chip": "ym2612"
    },
    {
      "channel": 0,
      "note": 71,
      "start": 55.8957,
      "duration": 0.0765,
      "velocity": 95,
      "chip": "ym2612"
    },
    {
      "channel": 1,
      "note": 43,
      "start": 55.8979,
      "duration": 0.0745,
      "velocity": 99,
      "chip": "ym2612"
    },
    {
      "channel": 2,
      "note": 67,
      "start": 55.8997,
      "duration": 0.1667,
      "velocity": 95,
      "chip": "ym2612"
    },
    {
      "channel": 3,
      "note": 64,
      "start": 55.9051,
      "duration": 0.021,
      "velocity": 127,
      "chip": "ym2612"
    },
    {
      "channel": 4,
      "note": 71,
      "start": 55.9074,
      "duration": 0.0659,
      "velocity": 103,
      "chip": "ym2612"
    },
    {
      "channel": 0,
      "note": 71,
      "start": 56.0051,
      "duration": 0.061,
      "velocity": 95,
      "chip": "ym2612"
    },
    {
      "channel": 0,
      "note": 78,
      "start": 56.0989,
      "duration": 0.0767,
      "velocity": 95,
      "chip": "ym2612"
    },
    {
      "channel": 1,
      "note": 43,
      "start": 56.1005,
      "duration": 0.0753,
      "velocity": 99,
      "chip": "ym2612"
    },
    {
      "channel": 2,
      "note": 66,
      "start": 56.1023,
      "duration": 0.1677,
      "velocity": 95,
      "chip": "ym2612"
    },
    {
      "channel": 3,
      "note": 64,
      "start": 56.1076,
      "duration": 0.022,
      "velocity": 127,
      "chip": "ym2612"
    },
    {
      "channel": 4,
      "note": 71,
      "start": 56.1092,
      "duration": 0.0675,
      "velocity": 103,
      "chip": "ym2612"
    },
    {
      "channel": 5,
      "note": 67,
      "start": 56.1109,
      "duration": 0.16,
      "velocity": 95,
      "chip": "ym2612"
    },
    {
      "channel": 0,
      "note": 78,
      "start": 56.2084,
      "duration": 0.0611,
      "velocity": 95,
      "chip": "ym2612"
    },
    {
      "channel": 1,
      "note": 43,
      "start": 56.21,
      "duration": 0.0597,
      "velocity": 99,
      "chip": "ym2612"
    },
    {
      "channel": 3,
      "note": 64,
      "start": 56.2122,
      "duration": 0.0112,
      "velocity": 127,
      "chip": "ym2612"
    },
    {
      "channel": 4,
      "note": 71,
      "start": 56.2139,
      "duration": 0.0568,
      "velocity": 103,
      "chip": "ym2612"
    },
    {
      "channel": 0,
      "note": 70,
      "start": 56.3023,
      "duration": 0.0767,
      "velocity": 95,
      "chip": "ym2612"
    },
    {
      "channel": 1,
      "note": 43,
      "start": 56.3041,
      "duration": 0.0751,
      "velocity": 99,
      "chip": "ym2612"
    },
    {
      "channel": 2,
      "note": 64,
      "start": 56.3059,
      "duration": 0.1674,
      "velocity": 95,
      "chip": "ym2612"
    },
    {
      "channel": 3,
      "note": 64,
      "start": 56.3111,
      "duration": 0.0219,
      "velocity": 127,
      "chip": "ym2612"
    },
    {
      "channel": 4,
      "note": 71,
      "start": 56.3129,
      "duration": 0.0673,
      "velocity": 103,
      "chip": "ym2612"
    },
    {
      "channel": 5,
      "note": 66,
      "start": 56.3146,
      "duration": 0.1595,
      "velocity": 95,
      "chip": "ym2612"
    },
    {
      "channel": 0,
      "note": 70,
      "start": 56.4119,
      "duration": 0.0611,
      "velocity": 95,
      "chip": "ym2612"
    },
    {
      "channel": 0,
      "note": 78,
      "start": 56.5058,
      "duration": 0.061,
      "velocity": 95,
      "chip": "ym2612"
    },
    {
      "channel": 1,
      "note": 43,
      "start": 56.5074,
      "duration": 0.0597,
      "velocity": 99,
      "chip": "ym2612"
    },
    {
      "channel": 2,
      "note": 66,
      "start": 56.5092,
      "duration": 0.152,
      "velocity": 95,
      "chip": "ym2612"
    },
    {
      "channel": 3,
      "note": 64,
      "start": 56.5144,
      "duration": 0.008,
      "velocity": 127,
      "chip": "ym2612"
    },
    {
      "channel": 4,
      "note": 71,
      "start": 56.5161,
      "duration": 0.0518,
      "velocity": 103,
      "chip": "ym2612"
    },
    {
      "channel": 5,
      "note": 64,
      "start": 56.5178,
      "duration": 0.1444,
      "velocity": 95,
      "chip": "ym2612"
    },
    {
      "channel": 0,
      "note": 78,
      "start": 56.5997,
      "duration": 0.0611,
      "velocity": 95,
      "chip": "ym2612"
    },
    {
      "channel": 1,
      "note": 43,
      "start": 56.6013,
      "duration": 0.0597,
      "velocity": 99,
      "chip": "ym2612"
    },
    {
      "channel": 3,
      "note": 64,
      "start": 56.6035,
      "duration": 0.0112,
      "velocity": 127,
      "chip": "ym2612"
    },
    {
      "channel": 4,
      "note": 71,
      "start": 56.6052,
      "duration": 0.0568,
      "velocity": 103,
      "chip": "ym2612"
    },
    {
      "channel": 0,
      "note": 71,
      "start": 56.6936,
      "duration": 0.0766,
      "velocity": 95,
      "chip": "ym2612"
    },
    {
      "channel": 1,
      "note": 43,
      "start": 56.6953,
      "duration": 0.0752,
      "velocity": 99,
      "chip": "ym2612"
    },
    {
      "channel": 2,
      "note": 64,
      "start": 56.6971,
      "duration": 0.1674,
      "velocity": 95,
      "chip": "ym2612"
    },
    {
      "channel": 3,
      "note": 64,
      "start": 56.7028,
      "duration": 0.0214,
      "velocity": 127,
      "chip": "ym2612"
    },
    {
      "channel": 4,
      "note": 71,
      "start": 56.7046,
      "duration": 0.0668,
      "velocity": 103,
      "chip": "ym2612"
    },
    {
      "channel": 5,
      "note": 66,
      "start": 56.7063,
      "duration": 0.1591,
      "velocity": 95,
      "chip": "ym2612"
    },
    {
      "channel": 0,
      "note": 71,
      "start": 56.8032,
      "duration": 0.061,
      "velocity": 95,
      "chip": "ym2612"
    },
    {
      "channel": 0,
      "note": 78,
      "start": 56.8971,
      "duration": 0.0611,
      "velocity": 95,
      "chip": "ym2612"
    },
    {
      "channel": 1,
      "note": 43,
      "start": 56.8986,
      "duration": 0.0597,
      "velocity": 99,
      "chip": "ym2612"
    },
    {
      "channel": 2,
      "note": 62,
      "start": 56.9004,
      "duration": 0.152,
      "velocity": 95,
      "chip": "ym2612"
    },
    {
      "channel": 3,
      "note": 64,
      "start": 56.9025,
      "duration": 0.0096,
      "velocity": 127,
      "chip": "ym2612"
    },
    {
      "channel": 4,
      "note": 71,
      "start": 56.9041,
      "duration": 0.0551,
      "velocity": 103,
      "chip": "ym2612"
    },
    {
      "channel": 5,
      "note": 64,
      "start": 56.9058,
      "duration": 0.1476,
      "velocity": 95,
      "chip": "ym2612"
    },
    {
      "channel": 0,
      "note": 78,
      "start": 56.991,
      "duration": 0.0611,
      "velocity": 95,
      "chip": "ym2612"
    },
    {
      "channel": 1,
      "note": 43,
      "start": 56.9925,
      "duration": 0.0597,
      "velocity": 99,
      "chip": "ym2612"
    },
    {
      "channel": 3,
      "note": 64,
      "start": 56.9947,
      "duration": 0.0113,
      "velocity": 127,
      "chip": "ym2612"
    },
    {
      "channel": 4,
      "note": 71,
      "start": 56.9963,
      "duration": 0.0569,
      "velocity": 103,
      "chip": "ym2612"
    },
    {
      "channel": 0,
      "note": 73,
      "start": 57.0848,
      "duration": 0.0767,
      "velocity": 95,
      "chip": "ym2612"
    },
    {
      "channel": 1,
      "note": 43,
      "start": 57.0866,
      "duration": 0.0752,
      "velocity": 99,
      "chip": "ym2612"
    },
    {
      "channel": 2,
      "note": 64,
      "start": 57.0883,
      "duration": 0.1674,
      "velocity": 95,
      "chip": "ym2612"
    },
    {
      "channel": 3,
      "note": 64,
      "start": 57.0936,
      "duration": 0.0219,
      "velocity": 127,
      "chip": "ym2612"
    },
    {
      "channel": 4,
      "note": 71,
      "start": 57.0954,
      "duration": 0.0672,
      "velocity": 103,
      "chip": "ym2612"
    },
    {
      "channel": 5,
      "note": 62,
      "start": 57.0971,
      "duration": 0.1595,
      "velocity": 95,
      "chip": "ym2612"
    },
    {
      "channel": 0,
      "note": 73,
      "start": 57.1944,
      "duration": 0.0611,
      "velocity": 95,
      "chip": "ym2612"
    },
    {
      "channel": 0,
      "note": 78,
      "start": 57.2883,
      "duration": 0.061,
      "velocity": 95,
      "chip": "ym2612"
    },
    {
      "channel": 1,
      "note": 43,
      "start": 57.2899,
      "duration": 0.0596,
      "velocity": 99,
      "chip": "ym2612"
    },
    {
      "channel": 2,
      "note": 61,
      "start": 57.2917,
      "duration": 0.152,
      "velocity": 95,
      "chip": "ym2612"
    },
    {
      "channel": 3,
      "note": 64,
      "start": 57.2937,
      "duration": 0.0096,
      "velocity": 127,
      "chip": "ym2612"
    },
    {
      "channel": 4,
      "note": 71,
      "start": 57.2954,
      "duration": 0.0551,
      "velocity": 103,
      "chip": "ym2612"
    },
    {
      "channel": 5,
      "note": 64,
      "start": 57.2971,
      "duration": 0.1476,
      "velocity": 95,
      "chip": "ym2612"
    },
    {
      "channel": 0,
      "note": 78,
      "start": 57.3822,
      "duration": 0.0611,
      "velocity": 95,
      "chip": "ym2612"
    },
    {
      "channel": 1,
      "note": 43,
      "start": 57.3838,
      "duration": 0.0597,
      "velocity": 99,
      "chip": "ym2612"
    },
    {
      "channel": 3,
      "note": 64,
      "start": 57.386,
      "duration": 0.0112,
      "velocity": 127,
      "chip": "ym2612"
    },
    {
      "channel": 4,
      "note": 71,
      "start": 57.3876,
      "duration": 0.0568,
      "velocity": 103,
      "chip": "ym2612"
    },
    {
      "channel": 0,
      "note": 71,
      "start": 57.4764,
      "duration": 0.0764,
      "velocity": 95,
      "chip": "ym2612"
    },
    {
      "channel": 1,
      "note": 42,
      "start": 57.4785,
      "duration": 0.0744,
      "velocity": 99,
      "chip": "ym2612"
    },
    {
      "channel": 2,
      "note": 70,
      "start": 57.4806,
      "duration": 0.1664,
      "velocity": 95,
      "chip": "ym2612"
    },
    {
      "channel": 3,
      "note": 64,
      "start": 57.4863,
      "duration": 0.0204,
      "velocity": 127,
      "chip": "ym2612"
    },
    {
      "channel": 4,
      "note": 70,
      "start": 57.4886,
      "duration": 0.0653,
      "velocity": 103,
      "chip": "ym2612"
    },
    {
      "channel": 5,
      "note": 61,
      "start": 57.4902,
      "duration": 0.1576,
      "velocity": 95,
      "chip": "ym2612"
    },
    {
      "channel": 0,
      "note": 71,
      "start": 57.5856,
      "duration": 0.0611,
      "velocity": 95,
      "chip": "ym2612"
    },
    {
      "channel": 0,
      "note": 78,
      "start": 57.6796,
      "duration": 0.061,
      "velocity": 95,
      "chip": "ym2612"
    },
    {
      "channel": 1,
      "note": 42,
      "start": 57.6812,
      "duration": 0.0597,
      "velocity": 99,
      "chip": "ym2612"
    },
    {
      "channel": 3,
      "note": 64,
      "start": 57.6865,
      "duration": 0.008,
      "velocity": 127,
      "chip": "ym2612"
    },
    {
      "channel": 4,
      "note": 70,
      "start": 57.6882,
      "duration": 0.0535,
      "velocity": 103,
      "chip": "ym2612"
    },
    {
      "channel": 5,
      "note": 70,
      "start": 57.6902,
      "duration": 0.1456,
      "velocity": 95,
      "chip": "ym2612"
    },
    {
      "channel": 0,
      "note": 78,
      "start": 57.7734,
      "duration": 0.0611,
      "velocity": 95,
      "chip": "ym2612"
    },
    {
      "channel": 1,
      "note": 42,
      "start": 57.775,
      "duration": 0.0596,
      "velocity": 99,
      "chip": "ym2612"
    },
    {
      "channel": 3,
      "note": 64,
      "start": 57.7772,
      "duration": 0.0112,
      "velocity": 127,
      "chip": "ym2612"
    },
    {
      "channel": 4,
      "note": 70,
      "start": 57.7789,
      "duration": 0.0567,
      "velocity": 103,
      "chip": "ym2612"
    },
    {
      "channel": 0,
      "note": 76,
      "start": 57.8673,
      "duration": 0.061,
      "velocity": 95,
      "chip": "ym2612"
    },
    {
      "channel": 1,
      "note": 42,
      "start": 57.8691,
      "duration": 0.0595,
      "velocity": 99,
      "chip": "ym2612"
    },
    {
      "channel": 2,
      "note": 70,
      "start": 57.8708,
      "duration": 0.1527,
      "velocity": 95,
      "chip": "ym2612"
    },
    {
      "channel": 3,
      "note": 64,
      "start": 57.8761,
      "duration": 0.0066,
      "velocity": 127,
      "chip": "ym2612"
    },
    {
      "channel": 4,
      "note": 70,
      "start": 57.878,
      "duration": 0.0515,
      "velocity": 103,
      "chip": "ym2612"
    },
    {
      "channel": 0,
      "note": 76,
      "start": 57.9612,
      "duration": 0.0619,
      "velocity": 95,
      "chip": "ym2612"
    },
    {
      "channel": 0,
      "note": 78,
      "start": 58.0551,
      "duration": 0.0611,
      "velocity": 95,
      "chip": "ym2612"
    },
    {
      "channel": 1,
      "note": 42,
      "start": 58.0567,
      "duration": 0.0597,
      "velocity": 99,
      "chip": "ym2612"
    },
    {
      "channel": 2,
      "note": 71,
      "start": 58.0585,
      "duration": 0.152,
      "velocity": 95,
      "chip": "ym2612"
    },
    {
      "channel": 3,
      "note": 64,
      "start": 58.0637,
      "duration": 0.008,
      "velocity": 127,
      "chip": "ym2612"
    },
    {
      "channel": 4,
      "note": 70,
      "start": 58.0654,
      "duration": 0.0518,
      "velocity": 103,
      "chip": "ym2612"
    },
    {
      "channel": 5,
      "note": 70,
      "start": 58.0671,
      "duration": 0.1444,
      "velocity": 95,
      "chip": "ym2612"
    },
    {
      "channel": 0,
      "note": 78,
      "start": 58.149,
      "duration": 0.0611,
      "velocity": 95,
      "chip": "ym2612"
    },
    {
      "channel": 1,
      "note": 42,
      "start": 58.1506,
      "duration": 0.0597,
      "velocity": 99,
      "chip": "ym2612"
    },
    {
      "channel": 3,
      "note": 64,
      "start": 58.1528,
      "duration": 0.0112,
      "velocity": 127,
      "chip": "ym2612"
    },
    {
      "channel": 4,
      "note": 70,
      "start": 58.1544,
      "duration": 0.0569,
      "velocity": 103,
      "chip": "ym2612"
    },
    {
      "channel": 0,
      "note": 74,
      "start": 58.2429,
      "duration": 0.0766,
      "velocity": 95,
      "chip": "ym2612"
    },
    {
      "channel": 1,
      "note": 42,
      "start": 58.2446,
      "duration": 0.0752,
      "velocity": 99,
      "chip": "ym2612"
    },
    {
      "channel": 2,
      "note": 73,
      "start": 58.2464,
      "duration": 0.3554,
      "velocity": 95,
      "chip": "ym2612"
    },
    {
      "channel": 3,
      "note": 64,
      "start": 58.2518,
      "duration": 0.0217,
      "velocity": 127,
      "chip": "ym2612"
    },
    {
      "channel": 4,
      "note": 70,
      "start": 58.2537,
      "duration": 0.0671,
      "velocity": 103,
      "chip": "ym2612"
    },
    {
      "channel": 5,
      "note": 71,
      "start": 58.2554,
      "duration": 0.1599,
      "velocity": 95,
      "chip": "ym2612"
    },
    {
      "channel": 0,
      "note": 74,
      "start": 58.3525,
      "duration": 0.0618,
      "velocity": 95,
      "chip": "ym2612"
    },
    {
      "channel": 0,
      "note": 78,
      "start": 58.4463,
      "duration": 0.0611,
      "velocity": 95,
      "chip": "ym2612"
    },
    {
      "channel": 1,
      "note": 42,
      "start": 58.4479,
      "duration": 0.0597,
      "velocity": 99,
      "chip": "ym2612"
    },
    {
      "channel": 3,
      "note": 64,
      "start": 58.4533,
      "duration": 0.0081,
      "velocity": 127,
      "chip": "ym2612"
    },
    {
      "channel": 4,
      "note": 70,
      "start": 58.455,
      "duration": 0.0535,
      "velocity": 103,
      "chip": "ym2612"
    },
    {
      "channel": 5,
      "note": 73,
      "start": 58.4567,
      "duration": 0.3335,
      "velocity": 95,
      "chip": "ym2612"
    },
    {
      "channel": 0,
      "note": 78,
      "start": 58.5402,
      "duration": 0.0611,
      "velocity": 95,
      "chip": "ym2612"
    },
    {
      "channel": 1,
      "note": 42,
      "start": 58.5418,
      "duration": 0.0597,
      "velocity": 99,
      "chip": "ym2612"
    },
    {
      "channel": 3,
      "note": 64,
      "start": 58.544,
      "duration": 0.0113,
      "velocity": 127,
      "chip": "ym2612"
    },
    {
      "channel": 4,
      "note": 70,
      "start": 58.5457,
      "duration": 0.0568,
      "velocity": 103,
      "chip": "ym2612"
    },
    {
      "channel": 0,
      "note": 73,
      "start": 58.6341,
      "duration": 0.0611,
      "velocity": 95,
      "chip": "ym2612"
    },
    {
      "channel": 1,
      "note": 42,
      "start": 58.6359,
      "duration": 0.0595,
      "velocity": 99,
      "chip": "ym2612"
    },
    {
      "channel": 2,
      "note": 66,
      "start": 58.6376,
      "duration": 0.3397,
      "velocity": 95,
      "chip": "ym2612"
    },
    {
      "channel": 3,
      "note": 64,
      "start": 58.6429,
      "duration": 0.0065,
      "velocity": 127,
      "chip": "ym2612"
    },
    {
      "channel": 4,
      "note": 70,
      "start": 58.6448,
      "duration": 0.0515,
      "velocity": 103,
      "chip": "ym2612"
    },
    {
      "channel": 0,
      "note": 73,
      "start": 58.7286,
      "duration": 0.0605,
      "velocity": 95,
      "chip": "ym2612"
    },
    {
      "channel": 0,
      "note": 78,
      "start": 58.822,
      "duration": 0.0615,
      "velocity": 95,
      "chip": "ym2612"
    },
    {
      "channel": 1,
      "note": 42,
      "start": 58.8236,
      "duration": 0.0601,
      "velocity": 99,
      "chip": "ym2612"
    },
    {
      "channel": 3,
      "note": 64,
      "start": 58.8289,
      "duration": 0.008,
      "velocity": 127,
      "chip": "ym2612"
    },
    {
      "channel": 4,
      "note": 70,
      "start": 58.8306,
      "duration": 0.0539,
      "velocity": 103,
      "chip": "ym2612"
    },
    {
      "channel": 5,
      "note": 66,
      "start": 58.8323,
      "duration": 0.3493,
      "velocity": 95,
      "chip": "ym2612"
    },
    {
      "channel": 0,
      "note": 78,
      "start": 58.9158,
      "duration": 0.0611,
      "velocity": 95,
      "chip": "ym2612"
    },
    {
      "channel": 1,
      "note": 42,
      "start": 58.9175,
      "duration": 0.0597,
      "velocity": 99,
      "chip": "ym2612"
    },
    {
      "channel": 3,
      "note": 64,
      "start": 58.9196,
      "duration": 0.0112,
      "velocity": 127,
      "chip": "ym2612"
    },
    {
      "channel": 4,
      "note": 70,
      "start": 58.9214,
      "duration": 0.0567,
      "velocity": 103,
      "chip": "ym2612"
    },
    {
      "channel": 0,
      "note": 71,
      "start": 59.01,
      "duration": 0.0764,
      "velocity": 95,
      "chip": "ym2612"
    },
    {
      "channel": 1,
      "note": 47,
      "start": 59.0122,
      "duration": 0.0745,
      "velocity": 99,
      "chip": "ym2612"
    },
    {
      "channel": 2,
      "note": 71,
      "start": 59.014,
      "duration": 0.1667,
      "velocity": 95,
      "chip": "ym2612"
    },
    {
      "channel": 3,
      "note": 64,
      "start": 59.0194,
      "duration": 0.0214,
      "velocity": 127,
      "chip": "ym2612"
    },
    {
      "channel": 4,
      "note": 71,
      "start": 59.0217,
      "duration": 0.0659,
      "velocity": 103,
      "chip": "ym2612"
    },
    {
      "channel": 0,
      "note": 71,
      "start": 59.1196,
      "duration": 0.0607,
      "velocity": 95,
      "chip": "ym2612"
    },
    {
      "channel": 0,
      "note": 78,
      "start": 59.2132,
      "duration": 0.0767,
      "velocity": 95,
      "chip": "ym2612"
    },
    {
      "channel": 1,
      "note": 47,
      "start": 59.2148,
      "duration": 0.0753,
      "velocity": 99,
      "chip": "ym2612"
    },
    {
      "channel": 2,
      "note": 73,
      "start": 59.2165,
      "duration": 0.1677,
      "velocity": 95,
      "chip": "ym2612"
    },
    {
      "channel": 3,
      "note": 64,
      "start": 59.2218,
      "duration": 0.0221,
      "velocity": 127,
      "chip": "ym2612"
    },
    {
      "channel": 4,
      "note": 71,
      "start": 59.2234,
      "duration": 0.0676,
      "velocity": 103,
      "chip": "ym2612"
    },
    {
      "channel": 5,
      "note": 71,
      "start": 59.2252,
      "duration": 0.16,
      "velocity": 95,
      "chip": "ym2612"
    },
    {
      "channel": 0,
      "note": 78,
      "start": 59.3227,
      "duration": 0.0611,
      "velocity": 95,
      "chip": "ym2612"
    },
    {
      "channel": 1,
      "note": 47,
      "start": 59.3244,
      "duration": 0.0597,
      "velocity": 99,
      "chip": "ym2612"
    },
    {
      "channel": 3,
      "note": 64,
      "start": 59.3266,
      "duration": 0.0111,
      "velocity": 127,
      "chip": "ym2612"
    },
    {
      "channel": 4,
      "note": 71,
      "start": 59.3282,
      "duration": 0.0568,
      "velocity": 103,
      "chip": "ym2612"
    },
    {
      "channel": 0,
      "note": 70,
      "start": 59.4166,
      "duration": 0.0767,
      "velocity": 95,
      "chip": "ym2612"
    },
    {
      "channel": 1,
      "note": 47,
      "start": 59.4184,
      "duration": 0.0752,
      "velocity": 99,
      "chip": "ym2612"
    },
    {
      "channel": 2,
      "note": 71,
      "start": 59.4201,
      "duration": 0.1676,
      "velocity": 95,
      "chip": "ym2612"
    },
    {
      "channel": 3,
      "note": 64,
      "start": 59.4254,
      "duration": 0.0218,
      "velocity": 127,
      "chip": "ym2612"
    },
    {
      "channel": 4,
      "note": 71,
      "start": 59.4272,
      "duration": 0.0672,
      "velocity": 103,
      "chip": "ym2612"
    },
    {
      "channel": 5,
      "note": 73,
      "start": 59.4289,
      "duration": 0.1597,
      "velocity": 95,
      "chip": "ym2612"
    },
    {
      "channel": 0,
      "note": 70,
      "start": 59.5262,
      "duration": 0.0612,
      "velocity": 95,
      "chip": "ym2612"
    },
    {
      "channel": 0,
      "note": 78,
      "start": 59.6201,
      "duration": 0.0611,
      "velocity": 95,
      "chip": "ym2612"
    },
    {
      "channel": 1,
      "note": 47,
      "start": 59.6217,
      "duration": 0.0597,
      "velocity": 99,
      "chip": "ym2612"
    },
    {
      "channel": 2,
      "note": 70,
      "start": 59.6234,
      "duration": 0.152,
      "velocity": 95,
      "chip": "ym2612"
    },
    {
      "channel": 3,
      "note": 64,
      "start": 59.6287,
      "duration": 0.008,
      "velocity": 127,
      "chip": "ym2612"
    },
    {
      "channel": 4,
      "note": 71,
      "start": 59.6304,
      "duration": 0.0518,
      "velocity": 103,
      "chip": "ym2612"
    },
    {
      "channel": 5,
      "note": 71,
      "start": 59.632,
      "duration": 0.1444,
      "velocity": 95,
      "chip": "ym2612"
    },
    {
      "channel": 0,
      "note": 78,
      "start": 59.714,
      "duration": 0.0611,
      "velocity": 95,
      "chip": "ym2612"
    },
    {
      "channel": 1,
      "note": 47,
      "start": 59.7156,
      "duration": 0.0597,
      "velocity": 99,
      "chip": "ym2612"
    },
    {
      "channel": 3,
      "note": 64,
      "start": 59.7178,
      "duration": 0.0112,
      "velocity": 127,
      "chip": "ym2612"
    },
    {
      "channel": 4,
      "note": 71,
      "start": 59.7195,
      "duration": 0.0568,
      "velocity": 103,
      "chip": "ym2612"
    },
    {
      "channel": 0,
      "note": 71,
      "start": 59.8079,
      "duration": 0.0767,
      "velocity": 95,
      "chip": "ym2612"
    },
    {
      "channel": 1,
      "note": 47,
      "start": 59.8097,
      "duration": 0.0751,
      "velocity": 99,
      "chip": "ym2612"
    },
    {
      "channel": 2,
      "note": 71,
      "start": 59.8114,
      "duration": 0.7309,
      "velocity": 95,
      "chip": "ym2612"
    },
    {
      "channel": 3,
      "note": 73,
      "start": 59.8173,
      "duration": 0.0212,
      "velocity": 127,
      "chip": "ym2612"
    },
    {
      "channel": 4,
      "note": 71,
      "start": 59.8192,
      "duration": 0.0667,
      "velocity": 103,
      "chip": "ym2612"
    },
    {
      "channel": 5,
      "note": 70,
      "start": 59.8208,
      "duration": 0.1588,
      "velocity": 95,
      "chip": "ym2612"
    },
    {
      "channel": 3,
      "note": 73,
      "start": 59.8712,
      "duration": 0.0145,
      "velocity": 127,
      "chip": "ym2612"
    },
    {
      "channel": 0,
      "note": 71,
      "start": 59.9174,
      "duration": 0.0611,
      "velocity": 95,
      "chip": "ym2612"
    },
    {
      "channel": 3,
      "note": 73,
      "start": 59.9198,
      "duration": 0.0127,
      "velocity": 127,
      "chip": "ym2612"
    },
    {
      "channel": 0,
      "note": 78,
      "start": 60.0113,
      "duration": 0.0611,
      "velocity": 95,
      "chip": "ym2612"
    },
    {
      "channel": 1,
      "note": 47,
      "start": 60.0129,
      "duration": 0.0597,
      "velocity": 99,
      "chip": "ym2612"
    },
    {
      "channel": 3,
      "note": 69,
      "start": 60.0154,
      "duration": 0.011,
      "velocity": 127,
      "chip": "ym2612"
    },
    {
      "channel": 4,
      "note": 71,
      "start": 60.017,
      "duration": 0.0564,
      "velocity": 103,
      "chip": "ym2612"
    },
    {
      "channel": 5,
      "note": 71,
      "start": 60.0188,
      "duration": 0.7277,
      "velocity": 95,
      "chip": "ym2612"
    },
    {
      "channel": 0,
      "note": 78,
      "start": 60.1053,
      "duration": 0.061,
      "velocity": 95,
      "chip": "ym2612"
    },
    {
      "channel": 1,
      "note": 47,
      "start": 60.1068,
      "duration": 0.0596,
      "velocity": 99,
      "chip": "ym2612"
    },
    {
      "channel": 3,
      "note": 69,
      "start": 60.1091,
      "duration": 0.0111,
      "velocity": 127,
      "chip": "ym2612"
    },
    {
      "channel": 4,
      "note": 71,
      "start": 60.1107,
      "duration": 0.0566,
      "velocity": 103,
      "chip": "ym2612"
    },
    {
      "channel": 0,
      "note": 73,
      "start": 60.1991,
      "duration": 0.0611,
      "velocity": 95,
      "chip": "ym2612"
    },
    {
      "channel": 1,
      "note": 47,
      "start": 60.2009,
      "duration": 0.0595,
      "velocity": 99,
      "chip": "ym2612"
    },
    {
      "channel": 3,
      "note": 64,
      "start": 60.2033,
      "duration": 0.0111,
      "velocity": 127,
      "chip": "ym2612"
    },
    {
      "channel": 4,
      "note": 71,
      "start": 60.2051,
      "duration": 0.0562,
      "velocity": 103,
      "chip": "ym2612"
    },
    {
      "channel": 0,
      "note": 73,
      "start": 60.293,
      "duration": 0.0611,
      "velocity": 95,
      "chip": "ym2612"
    },
    {
      "channel": 3,
      "note": 64,
      "start": 60.2954,
      "duration": 0.0126,
      "velocity": 127,
      "chip": "ym2612"
    },
    {
      "channel": 0,
      "note": 78,
      "start": 60.3869,
      "duration": 0.061,
      "velocity": 95,
      "chip": "ym2612"
    },
    {
      "channel": 1,
      "note": 47,
      "start": 60.3885,
      "duration": 0.0597,
      "velocity": 99,
      "chip": "ym2612"
    },
    {
      "channel": 3,
      "note": 64,
      "start": 60.3941,
      "duration": 0.0078,
      "velocity": 127,
      "chip": "ym2612"
    },
    {
      "channel": 4,
      "note": 71,
      "start": 60.3959,
      "duration": 0.0532,
      "velocity": 103,
      "chip": "ym2612"
    },
    {
      "channel": 0,
      "note": 78,
      "start": 60.4808,
      "duration": 0.061,
      "velocity": 95,
      "chip": "ym2612"
    },
    {
      "channel": 1,
      "note": 47,
      "start": 60.4824,
      "duration": 0.0597,
      "velocity": 99,
      "chip": "ym2612"
    },
    {
      "channel": 3,
      "note": 64,
      "start": 60.4846,
      "duration": 0.0112,
      "velocity": 127,
      "chip": "ym2612"
    },
    {
      "channel": 4,
      "note": 71,
      "start": 60.4862,
      "duration": 0.0568,
      "velocity": 103,
      "chip": "ym2612"
    },
    {
      "channel": 0,
      "note": 78,
      "start": 60.5782,
      "duration": 0.7305,
      "velocity": 103,
      "chip": "ym2612"
    },
    {
      "channel": 1,
      "note": 47,
      "start": 60.5802,
      "duration": 0.7287,
      "velocity": 99,
      "chip": "ym2612"
    },
    {
      "channel": 2,
      "note": 71,
      "start": 60.5855,
      "duration": 0.16,
      "velocity": 99,
      "chip": "ym2612"
    },
    {
      "channel": 3,
      "note": 64,
      "start": 60.5911,
      "duration": 0.0143,
      "velocity": 127,
      "chip": "ym2612"
    },
    {
      "channel": 4,
      "note": 74,
      "start": 60.5933,
      "duration": 0.7165,
      "velocity": 103,
      "chip": "ym2612"
    },
    {
      "channel": 2,
      "note": 74,
      "start": 60.7783,
      "duration": 0.155,
      "velocity": 99,
      "chip": "ym2612"
    },
    {
      "channel": 5,
      "note": 71,
      "start": 60.7842,
      "duration": 0.15,
      "velocity": 99,
      "chip": "ym2612"
    },
    {
      "channel": 2,
      "note": 83,
      "start": 60.9662,
      "duration": 0.5307,
      "velocity": 99,
      "chip": "ym2612"
    },
    {
      "channel": 3,
      "note": 64,
      "start": 60.9714,
      "duration": 0.0095,
      "velocity": 127,
      "chip": "ym2612"
    },
    {
      "channel": 5,
      "note": 74,
      "start": 60.9733,
      "duration": 0.1487,
      "velocity": 99,
      "chip": "ym2612"
    },
    {
      "channel": 5,
      "note": 83,
      "start": 61.1548,
      "duration": 0.5305,
      "velocity": 99,
      "chip": "ym2612"
    },
    {
      "channel": 0,
      "note": 78,
      "start": 61.3415,
      "duration": 0.155,
      "velocity": 103,
      "chip": "ym2612"
    },
    {
      "channel": 1,
      "note": 47,
      "start": 61.343,
      "duration": 0.1537,
      "velocity": 99,
      "chip": "ym2612"
    },
    {
      "channel": 3,
      "note": 64,
      "start": 61.3453,
      "duration": 0.0113,
      "velocity": 127,
      "chip": "ym2612"
    },
    {
      "channel": 4,
      "note": 74,
      "start": 61.3469,
      "duration": 0.1508,
      "velocity": 103,
      "chip": "ym2612"
    },
    {
      "channel": 0,
      "note": 76,
      "start": 61.5293,
      "duration": 0.3428,
      "velocity": 103,
      "chip": "ym2612"
    },
    {
      "channel": 1,
      "note": 45,
      "start": 61.5308,
      "duration": 0.3415,
      "velocity": 99,
      "chip": "ym2612"
    },
    {
      "channel": 2,
      "note": 85,
      "start": 61.5326,
      "duration": 0.3399,
      "velocity": 99,
      "chip": "ym2612"
    },
    {
      "channel": 3,
      "note": 64,
      "start": 61.5347,
      "duration": 0.0096,
      "velocity": 127,
      "chip": "ym2612"
    },
    {
      "channel": 4,
      "note": 73,
      "start": 61.5364,
      "duration": 0.3369,
      "velocity": 103,
      "chip": "ym2612"
    },
    {
      "channel": 5,
      "note": 85,
      "start": 61.7181,
      "duration": 0.3428,
      "velocity": 99,
      "chip": "ym2612"
    },
    {
      "channel": 0,
      "note": 74,
      "start": 61.9049,
      "duration": 1.094,
      "velocity": 103,
      "chip": "ym2612"
    },
    {
      "channel": 1,
      "note": 43,
      "start": 61.9065,
      "duration": 1.0926,
      "velocity": 99,
      "chip": "ym2612"
    },
    {
      "channel": 2,
      "note": 85,
      "start": 61.9083,
      "duration": 0.7152,
      "velocity": 99,
      "chip": "ym2612"
    },
    {
      "channel": 3,
      "note": 64,
      "start": 61.9135,
      "duration": 0.0066,
      "velocity": 127,
      "chip": "ym2612"
    },
    {
      "channel": 4,
      "note": 71,
      "start": 61.9152,
      "duration": 1.0847,
      "velocity": 103,
      "chip": "ym2612"
    },
    {
      "channel": 5,
      "note": 85,
      "start": 62.0937,
      "duration": 0.7184,
      "velocity": 99,
      "chip": "ym2612"
    },
    {
      "channel": 3,
      "note": 64,
      "start": 62.2844,
      "duration": 0.0112,
      "velocity": 127,
      "chip": "ym2612"
    },
    {
      "channel": 3,
      "note": 64,
      "start": 62.4689,
      "duration": 0.0144,
      "velocity": 127,
      "chip": "ym2612"
    },
    {
      "channel": 2,
      "note": 86,
      "start": 62.6564,
      "duration": 0.5307,
      "velocity": 99,
      "chip": "ym2612"
    },
    {
      "channel": 3,
      "note": 64,
      "start": 62.8478,
      "duration": 0.0111,
      "velocity": 127,
      "chip": "ym2612"
    },
    {
      "channel": 5,
      "note": 86,
      "start": 62.8496,
      "duration": 0.526,
      "velocity": 99,
      "chip": "ym2612"
    },
    {
      "channel": 0,
      "note": 74,
      "start": 63.0316,
      "duration": 0.1551,
      "velocity": 103,
      "chip": "ym2612"
    },
    {
      "channel": 1,
      "note": 43,
      "start": 63.0332,
      "duration": 0.1536,
      "velocity": 99,
      "chip": "ym2612"
    },
    {
      "channel": 3,
      "note": 73,
      "start": 63.0389,
      "duration": 0.0079,
      "velocity": 127,
      "chip": "ym2612"
    },
    {
      "channel": 4,
      "note": 71,
      "start": 63.0406,
      "duration": 0.1473,
      "velocity": 103,
      "chip": "ym2612"
    },
    {
      "channel": 0,
      "note": 76,
      "start": 63.2197,
      "duration": 0.3434,
      "velocity": 103,
      "chip": "ym2612"
    },
    {
      "channel": 1,
      "note": 45,
      "start": 63.2216,
      "duration": 0.3417,
      "velocity": 99,
      "chip": "ym2612"
    },
    {
      "channel": 2,
      "note": 86,
      "start": 63.2234,
      "duration": 0.0574,
      "velocity": 99,
      "chip": "ym2612"
    },
    {
      "channel": 3,
      "note": 64,
      "start": 63.2257,
      "duration": 0.0087,
      "velocity": 127,
      "chip": "ym2612"
    },
    {
      "channel": 4,
      "note": 73,
      "start": 63.2277,
      "duration": 0.3366,
      "velocity": 103,
      "chip": "ym2612"
    },
    {
      "channel": 2,
      "note": 88,
      "start": 63.3136,
      "duration": 0.0611,
      "velocity": 99,
      "chip": "ym2612"
    },
    {
      "channel": 2,
      "note": 86,
      "start": 63.4084,
      "duration": 0.0602,
      "velocity": 99,
      "chip": "ym2612"
    },
    {
      "channel": 5,
      "note": 86,
      "start": 63.4108,
      "duration": 0.0587,
      "velocity": 99,
      "chip": "ym2612"
    },
    {
      "channel": 2,
      "note": 85,
      "start": 63.5014,
      "duration": 0.0622,
      "velocity": 99,
      "chip": "ym2612"
    },
    {
      "channel": 5,
      "note": 88,
      "start": 63.5038,
      "duration": 0.0607,
      "velocity": 99,
      "chip": "ym2612"
    },
    {
      "channel": 0,
      "note": 78,
      "start": 63.5953,
      "duration": 0.7338,
      "velocity": 103,
      "chip": "ym2612"
    },
    {
      "channel": 1,
      "note": 47,
      "start": 63.5972,
      "duration": 0.7321,
      "velocity": 99,
      "chip": "ym2612"
    },
    {
      "channel": 2,
      "note": 86,
      "start": 63.599,
      "duration": 0.7305,
      "velocity": 99,
      "chip": "ym2612"
    },
    {
      "channel": 3,
      "note": 64,
      "start": 63.6048,
      "duration": 0.0209,
      "velocity": 127,
      "chip": "ym2612"
    },
    {
      "channel": 4,
      "note": 74,
      "start": 63.6067,
      "duration": 0.7235,
      "velocity": 103,
      "chip": "ym2612"
    },
    {
      "channel": 5,
      "note": 86,
      "start": 63.6084,
      "duration": 0.0644,
      "velocity": 99,
      "chip": "ym2612"
    },
    {
      "channel": 5,
      "note": 85,
      "start": 63.7056,
      "duration": 0.0611,
      "velocity": 99,
      "chip": "ym2612"
    },
    {
      "channel": 5,
      "note": 86,
      "start": 63.8002,
      "duration": 0.718,
      "velocity": 99,
      "chip": "ym2612"
    },
    {
      "channel": 3,
      "note": 64,
      "start": 63.9902,
      "duration": 0.0112,
      "velocity": 127,
      "chip": "ym2612"
    },
    {
      "channel": 0,
      "note": 78,
      "start": 64.3618,
      "duration": 0.1551,
      "velocity": 103,
      "chip": "ym2612"
    },
    {
      "channel": 1,
      "note": 47,
      "start": 64.3635,
      "duration": 0.1536,
      "velocity": 99,
      "chip": "ym2612"
    },
    {
      "channel": 2,
      "note": 83,
      "start": 64.3652,
      "duration": 0.0893,
      "velocity": 99,
      "chip": "ym2612"
    },
    {
      "channel": 3,
      "note": 64,
      "start": 64.3673,
      "duration": 0.0097,
      "velocity": 127,
      "chip": "ym2612"
    },
    {
      "channel": 4,
      "note": 74,
      "start": 64.3689,
      "duration": 0.149,
      "velocity": 103,
      "chip": "ym2612"
    },
    {
      "channel": 2,
      "note": 85,
      "start": 64.4873,
      "duration": 0.0927,
      "velocity": 99,
      "chip": "ym2612"
    },
    {
      "channel": 0,
      "note": 76,
      "start": 64.5496,
      "duration": 0.3431,
      "velocity": 103,
      "chip": "ym2612"
    },
    {
      "channel": 1,
      "note": 45,
      "start": 64.5512,
      "duration": 0.3416,
      "velocity": 99,
      "chip": "ym2612"
    },
    {
      "channel": 3,
      "note": 64,
      "start": 64.5534,
      "duration": 0.0112,
      "velocity": 127,
      "chip": "ym2612"
    },
    {
      "channel": 4,
      "note": 73,
      "start": 64.5551,
      "duration": 0.3386,
      "velocity": 103,
      "chip": "ym2612"
    },
    {
      "channel": 5,
      "note": 83,
      "start": 64.5568,
      "duration": 0.0863,
      "velocity": 99,
      "chip": "ym2612"
    },
    {
      "channel": 2,
      "note": 86,
      "start": 64.6125,
      "duration": 0.0924,
      "velocity": 99,
      "chip": "ym2612"
    },
    {
      "channel": 5,
      "note": 85,
      "start": 64.6759,
      "duration": 0.0924,
      "velocity": 99,
      "chip": "ym2612"
    },
    {
      "channel": 2,
      "note": 86,
      "start": 64.7381,
      "duration": 0.092,
      "velocity": 99,
      "chip": "ym2612"
    },
    {
      "channel": 5,
      "note": 86,
      "start": 64.8011,
      "duration": 0.0929,
      "velocity": 99,
      "chip": "ym2612"
    },
    {
      "channel": 2,
      "note": 88,
      "start": 64.8629,
      "duration": 0.0924,
      "velocity": 99,
      "chip": "ym2612"
    },
    {
      "channel": 0,
      "note": 74,
      "start": 64.9252,
      "duration": 1.094,
      "velocity": 103,
      "chip": "ym2612"
    },
    {
      "channel": 1,
      "note": 43,
      "start": 64.9268,
      "duration": 1.0926,
      "velocity": 99,
      "chip": "ym2612"
    },
    {
      "channel": 3,
      "note": 64,
      "start": 64.9322,
      "duration": 0.0081,
      "velocity": 127,
      "chip": "ym2612"
    },
    {
      "channel": 4,
      "note": 71,
      "start": 64.9339,
      "duration": 1.0868,
      "velocity": 103,
      "chip": "ym2612"
    },
    {
      "channel": 5,
      "note": 86,
      "start": 64.9356,
      "duration": 0.0831,
      "velocity": 99,
      "chip": "ym2612"
    },
    {
      "channel": 2,
      "note": 90,
      "start": 64.9881,
      "duration": 0.0924,
      "velocity": 99,
      "chip": "ym2612"
    },
    {
      "channel": 5,
      "note": 88,
      "start": 65.0516,
      "duration": 0.0923,
      "velocity": 99,
      "chip": "ym2612"
    },
    {
      "channel": 2,
      "note": 91,
      "start": 65.1136,
      "duration": 1.4699,
      "velocity": 99,
      "chip": "ym2612"
    },
    {
      "channel": 5,
      "note": 90,
      "start": 65.1766,
      "duration": 0.0924,
      "velocity": 99,
      "chip": "ym2612"
    },
    {
      "channel": 3,
      "note": 64,
      "start": 65.3048,
      "duration": 0.0111,
      "velocity": 127,
      "chip": "ym2612"
    },
    {
      "channel": 5,
      "note": 91,
      "start": 65.3068,
      "duration": 1.4656,
      "velocity": 99,
      "chip": "ym2612"
    },
    {
      "channel": 3,
      "note": 64,
      "start": 65.4894,
      "duration": 0.0143,
      "velocity": 127,
      "chip": "ym2612"
    },
    {
      "channel": 3,
      "note": 64,
      "start": 65.8685,
      "duration": 0.0111,
      "velocity": 127,
      "chip": "ym2612"
    },
    {
      "channel": 0,
      "note": 74,
      "start": 66.052,
      "duration": 0.155,
      "velocity": 103,
      "chip": "ym2612"
    },
    {
      "channel": 1,
      "note": 43,
      "start": 66.0536,
      "duration": 0.1536,
      "velocity": 99,
      "chip": "ym2612"
    },
    {
      "channel": 3,
      "note": 73,
      "start": 66.0597,
      "duration": 0.0078,
      "velocity": 127,
      "chip": "ym2612"
    },
    {
      "channel": 4,
      "note": 71,
      "start": 66.0614,
      "duration": 0.1472,
      "velocity": 103,
      "chip": "ym2612"
    },
    {
      "channel": 0,
      "note": 76,
      "start": 66.24,
      "duration": 0.1548,
      "velocity": 103,
      "chip": "ym2612"
    },
    {
      "channel": 1,
      "note": 45,
      "start": 66.242,
      "duration": 0.153,
      "velocity": 99,
      "chip": "ym2612"
    },
    {
      "channel": 3,
      "note": 64,
      "start": 66.2448,
      "duration": 0.0105,
      "velocity": 127,
      "chip": "ym2612"
    },
    {
      "channel": 4,
      "note": 73,
      "start": 66.2468,
      "duration": 0.1495,
      "velocity": 103,
      "chip": "ym2612"
    },
    {
      "channel": 0,
      "note": 74,
      "start": 66.4276,
      "duration": 0.155,
      "velocity": 103,
      "chip": "ym2612"
    },
    {
      "channel": 1,
      "note": 43,
      "start": 66.4292,
      "duration": 0.1536,
      "velocity": 99,
      "chip": "ym2612"
    },
    {
      "channel": 4,
      "note": 71,
      "start": 66.4319,
      "duration": 0.1523,
      "velocity": 103,
      "chip": "ym2612"
    },
    {
      "channel": 0,
      "note": 73,
      "start": 66.6154,
      "duration": 2.972,
      "velocity": 103,
      "chip": "ym2612"
    },
    {
      "channel": 1,
      "note": 42,
      "start": 66.617,
      "duration": 2.5949,
      "velocity": 99,
      "chip": "ym2612"
    },
    {
      "channel": 2,
      "note": 90,
      "start": 66.6195,
      "duration": 1.4658,
      "velocity": 99,
      "chip": "ym2612"
    },
    {
      "channel": 3,
      "note": 73,
      "start": 66.6222,
      "duration": 0.0082,
      "velocity": 127,
      "chip": "ym2612"
    },
    {
      "channel": 4,
      "note": 69,
      "start": 66.624,
      "duration": 2.9646,
      "velocity": 103,
      "chip": "ym2612"
    },
    {
      "channel": 3,
      "note": 73,
      "start": 66.7116,
      "duration": 0.0133,
      "velocity": 127,
      "chip": "ym2612"
    },
    {
      "channel": 3,
      "note": 73,
      "start": 66.8044,
      "duration": 0.0139,
      "velocity": 127,
      "chip": "ym2612"
    },
    {
      "channel": 5,
      "note": 90,
      "start": 66.8069,
      "duration": 1.4674,
      "velocity": 99,
      "chip": "ym2612"
    },
    {
      "channel": 3,
      "note": 69,
      "start": 66.992,
      "duration": 0.0142,
      "velocity": 127,
      "chip": "ym2612"
    },
    {
      "channel": 3,
      "note": 69,
      "start": 67.0857,
      "duration": 0.0144,
      "velocity": 127,
      "chip": "ym2612"
    },
    {
      "channel": 3,
      "note": 69,
      "start": 67.1795,
      "duration": 0.0143,
      "velocity": 127,
      "chip": "ym2612"
    },
    {
      "channel": 3,
      "note": 64,
      "start": 67.3675,
      "duration": 0.0141,
      "velocity": 127,
      "chip": "ym2612"
    },
    {
      "channel": 3,
      "note": 64,
      "start": 67.4612,
      "duration": 0.0144,
      "velocity": 127,
      "chip": "ym2612"
    },
    {
      "channel": 3,
      "note": 64,
      "start": 67.5551,
      "duration": 0.0143,
      "velocity": 127,
      "chip": "ym2612"
    },
    {
      "channel": 3,
      "note": 64,
      "start": 67.7464,
      "duration": 0.0108,
      "velocity": 127,
      "chip": "ym2612"
    },
    {
      "channel": 3,
      "note": 64,
      "start": 67.8369,
      "duration": 0.0142,
      "velocity": 127,
      "chip": "ym2612"
    },
    {
      "channel": 3,
      "note": 64,
      "start": 67.9308,
      "duration": 0.0142,
      "velocity": 127,
      "chip": "ym2612"
    },
    {
      "channel": 3,
      "note": 64,
      "start": 68.0247,
      "duration": 0.0143,
      "velocity": 127,
      "chip": "ym2612"
    },
    {
      "channel": 2,
      "note": 90,
      "start": 68.121,
      "duration": 1.4668,
      "velocity": 99,
      "chip": "ym2612"
    },
    {
      "channel": 3,
      "note": 73,
      "start": 68.1268,
      "duration": 0.0066,
      "velocity": 127,
      "chip": "ym2612"
    },
    {
      "channel": 3,
      "note": 73,
      "start": 68.2139,
      "duration": 0.0133,
      "velocity": 127,
      "chip": "ym2612"
    },
    {
      "channel": 3,
      "note": 69,
      "start": 68.3071,
      "duration": 0.014,
      "velocity": 127,
      "chip": "ym2612"
    },
    {
      "channel": 5,
      "note": 90,
      "start": 68.3088,
      "duration": 1.4832,
      "velocity": 99,
      "chip": "ym2612"
    },
    {
      "channel": 3,
      "note": 69,
      "start": 68.4002,
      "duration": 0.0143,
      "velocity": 127,
      "chip": "ym2612"
    },
    {
      "channel": 3,
      "note": 73,
      "start": 68.4944,
      "duration": 0.0141,
      "velocity": 127,
      "chip": "ym2612"
    },
    {
      "channel": 3,
      "note": 73,
      "start": 68.5881,
      "duration": 0.0143,
      "velocity": 127,
      "chip": "ym2612"
    },
    {
      "channel": 3,
      "note": 69,
      "start": 68.6821,
      "duration": 0.0141,
      "velocity": 127,
      "chip": "ym2612"
    },
    {
      "channel": 3,
      "note": 69,
      "start": 68.7758,
      "duration": 0.0152,
      "velocity": 127,
      "chip": "ym2612"
    },
    {
      "channel": 3,
      "note": 73,
      "start": 68.8709,
      "duration": 0.0131,
      "velocity": 127,
      "chip": "ym2612"
    },
    {
      "channel": 3,
      "note": 73,
      "start": 68.9166,
      "duration": 0.0143,
      "velocity": 127,
      "chip": "ym2612"
    },
    {
      "channel": 3,
      "note": 73,
      "start": 68.9636,
      "duration": 0.0143,
      "velocity": 127,
      "chip": "ym2612"
    },
    {
      "channel": 3,
      "note": 69,
      "start": 69.0577,
      "duration": 0.0142,
      "velocity": 127,
      "chip": "ym2612"
    },
    {
      "channel": 3,
      "note": 69,
      "start": 69.1514,
      "duration": 0.0143,
      "velocity": 127,
      "chip": "ym2612"
    },
    {
      "channel": 1,
      "note": 46,
      "start": 69.2446,
      "duration": 0.343,
      "velocity": 99,
      "chip": "ym2612"
    },
    {
      "channel": 3,
      "note": 64,
      "start": 69.2472,
      "duration": 0.0131,
      "velocity": 127,
      "chip": "ym2612"
    },
    {
      "channel": 3,
      "note": 64,
      "start": 69.34,
      "duration": 0.0135,
      "velocity": 127,
      "chip": "ym2612"
    },
    {
      "channel": 3,
      "note": 64,
      "start": 69.4332,
      "duration": 0.0142,
      "velocity": 127,
      "chip": "ym2612"
    },
    {
      "channel": 3,
      "note": 64,
      "start": 69.5271,
      "duration": 0.0142,
      "velocity": 127,
      "chip": "ym2612"
    },
    {
      "channel": 0,
      "note": 71,
      "start": 69.6239,
      "duration": 0.1669,
      "velocity": 95,
      "chip": "ym2612"
    },
    {
      "channel": 1,
      "note": 47,
      "start": 69.6258,
      "duration": 4.8568,
      "velocity": 99,
      "chip": "ym2612"
    },
    {
      "channel": 2,
      "note": 95,
      "start": 69.6276,
      "duration": 4.8552,
      "velocity": 99,
      "chip": "ym2612"
    },
    {
      "channel": 4,
      "note": 71,
      "start": 69.7462,
      "duration": 0.1558,
      "velocity": 95,
      "chip": "ym2612"
    },
    {
      "channel": 0,
      "note": 78,
      "start": 69.8243,
      "duration": 0.1582,
      "velocity": 95,
      "chip": "ym2612"
    },
    {
      "channel": 5,
      "note": 95,
      "start": 69.8269,
      "duration": 4.6563,
      "velocity": 99,
      "chip": "ym2612"
    },
    {
      "channel": 3,
      "note": 47,
      "start": 69.84,
      "duration": 4.6741,
      "velocity": 99,
      "chip": "ym2612"
    },
    {
      "channel": 4,
      "note": 78,
      "start": 69.9361,
      "duration": 0.1652,
      "velocity": 95,
      "chip": "ym2612"
    },
    {
      "channel": 0,
      "note": 76,
      "start": 70.0178,
      "duration": 0.1699,
      "velocity": 95,
      "chip": "ym2612"
    },
    {
      "channel": 4,
      "note": 76,
      "start": 70.138,
      "duration": 0.1777,
      "velocity": 95,
      "chip": "ym2612"
    },
    {
      "channel": 0,
      "note": 78,
      "start": 70.2263,
      "duration": 0.1818,
      "velocity": 95,
      "chip": "ym2612"
    },
    {
      "channel": 4,
      "note": 78,
      "start": 70.3539,
      "duration": 0.1919,
      "velocity": 95,
      "chip": "ym2612"
    },
    {
      "channel": 0,
      "note": 74,
      "start": 70.4489,
      "duration": 0.1975,
      "velocity": 95,
      "chip": "ym2612"
    },
    {
      "channel": 4,
      "note": 74,
      "start": 70.5878,
      "duration": 0.208,
      "velocity": 95,
      "chip": "ym2612"
    },
    {
      "channel": 0,
      "note": 78,
      "start": 70.6903,
      "duration": 0.2153,
      "velocity": 95,
      "chip": "ym2612"
    },
    {
      "channel": 4,
      "note": 78,
      "start": 70.8416,
      "duration": 0.2272,
      "velocity": 95,
      "chip": "ym2612"
    },
    {
      "channel": 0,
      "note": 73,
      "start": 70.9532,
      "duration": 0.2365,
      "velocity": 95,
      "chip": "ym2612"
    },
    {
      "channel": 4,
      "note": 73,
      "start": 71.1189,
      "duration": 0.2509,
      "velocity": 95,
      "chip": "ym2612"
    },
    {
      "channel": 0,
      "note": 78,
      "start": 71.2421,
      "duration": 0.2611,
      "velocity": 95,
      "chip": "ym2612"
    },
    {
      "channel": 4,
      "note": 78,
      "start": 71.4247,
      "duration": 0.2788,
      "velocity": 95,
      "chip": "ym2612"
    },
    {
      "channel": 0,
      "note": 71,
      "start": 71.5616,
      "duration": 2.9208,
      "velocity": 95,
      "chip": "ym2612"
    },
    {
      "channel": 4,
      "note": 71,
      "start": 71.7656,
      "duration": 2.5607,
      "velocity": 95,
      "chip": "ym2612"
    }
  ]
}