{
  "track_name": "22 - Zeon",
  "duration_sec": 26.729,
  "sample_rate": 44100,
  "note_count": 702,
  "unique_pitches": 45,
  "pitch_range": 61,
  "avg_note_duration": 0.1439,
  "reconstruction_stats": {
    "notes_reconstructed": 702,
    "keyon_events": 702,
    "keyoff_events": 695,
    "orphan_keyons": 4,
    "unique_pitches": 45,
    "pitch_range": 61,
    "avg_duration_sec": 0.1439
  },
  "metadata": {
    "source": "S\\Shining Force II\\22 - Zeon.vgz"
  },
  "notes": [
    {
      "channel": 0,
      "note": 40,
      "start": 0.0,
      "duration": 0.0,
      "velocity": 102,
      "chip": "ym2612"
    },
    {
      "channel": 0,
      "note": 52,
      "start": 0.0,
      "duration": 0.0,
      "velocity": 102,
      "chip": "ym2612"
    },
    {
      "channel": 0,
      "note": 52,
      "start": 0.0,
      "duration": 0.0,
      "velocity": 102,
      "chip": "ym2612"
    },
    {
      "channel": 0,
      "note": 52,
      "start": 0.0,
      "duration": 0.0,
      "velocity": 102,
      "chip": "ym2612"
    },
    {
      "channel": 0,
      "note": 52,
      "start": 0.0,
      "duration": 0.0,
      "velocity": 102,
      "chip": "ym2612"
    },
    {
      "channel": 0,
      "note": 52,
      "start": 0.0,
      "duration": 0.0,
      "velocity": 102,
      "chip": "ym2612"
    },
    {
      "channel": 0,
      "note": 52,
      "start": 0.0,
      "duration": 0.0,
      "velocity": 102,
      "chip": "ym2612"
    },
    {
      "channel": 0,
      "note": 47,
      "start": 0.0,
      "duration": 0.0,
      "velocity": 102,
      "chip": "ym2612"
    },
    {
      "channel": 1,
      "note": 101,
      "start": 0.0,
      "duration": 0.0,
      "velocity": 99,
      "chip": "ym2612"
    },
    {
      "channel": 2,
      "note": 74,
      "start": 0.0,
      "duration": 0.0,
      "velocity": 98,
      "chip": "ym2612"
    },
    {
      "channel": 2,
      "note": 94,
      "start": 0.0,
      "duration": 0.0,
      "velocity": 99,
      "chip": "ym2612"
    },
    {
      "channel": 3,
      "note": 65,
      "start": 0.0,
      "duration": 0.0,
      "velocity": 98,
      "chip": "ym2612"
    },
    {
      "channel": 3,
      "note": 66,
      "start": 0.0,
      "duration": 0.0,
      "velocity": 99,
      "chip": "ym2612"
    },
    {
      "channel": 4,
      "note": 75,
      "start": 0.0,
      "duration": 0.0,
      "velocity": 98,
      "chip": "ym2612"
    },
    {
      "channel": 0,
      "note": 53,
      "start": 0.0015,
      "duration": 0.0218,
      "velocity": 104,
      "chip": "ym2612"
    },
    {
      "channel": 1,
      "note": 77,
      "start": 0.0041,
      "duration": 0.0269,
      "velocity": 104,
      "chip": "ym2612"
    },
    {
      "channel": 2,
      "note": 72,
      "start": 0.0067,
      "duration": 0.0245,
      "velocity": 104,
      "chip": "ym2612"
    },
    {
      "channel": 3,
      "note": 85,
      "start": 0.0102,
      "duration": 0.0213,
      "velocity": 104,
      "chip": "ym2612"
    },
    {
      "channel": 1,
      "note": 77,
      "start": 0.0348,
      "duration": 0.0231,
      "velocity": 104,
      "chip": "ym2612"
    },
    {
      "channel": 2,
      "note": 72,
      "start": 0.0354,
      "duration": 0.0227,
      "velocity": 104,
      "chip": "ym2612"
    },
    {
      "channel": 3,
      "note": 69,
      "start": 0.036,
      "duration": 0.0224,
      "velocity": 104,
      "chip": "ym2612"
    },
    {
      "channel": 4,
      "note": 74,
      "start": 0.0396,
      "duration": 0.0193,
      "velocity": 104,
      "chip": "ym2612"
    },
    {
      "channel": 0,
      "note": 52,
      "start": 0.0607,
      "duration": 0.0139,
      "velocity": 104,
      "chip": "ym2612"
    },
    {
      "channel": 1,
      "note": 78,
      "start": 0.0623,
      "duration": 0.0824,
      "velocity": 104,
      "chip": "ym2612"
    },
    {
      "channel": 2,
      "note": 73,
      "start": 0.0628,
      "duration": 0.0822,
      "velocity": 104,
      "chip": "ym2612"
    },
    {
      "channel": 3,
      "note": 69,
      "start": 0.0635,
      "duration": 0.0819,
      "velocity": 104,
      "chip": "ym2612"
    },
    {
      "channel": 4,
      "note": 77,
      "start": 0.0642,
      "duration": 0.0192,
      "velocity": 104,
      "chip": "ym2612"
    },
    {
      "channel": 4,
      "note": 77,
      "start": 0.0872,
      "duration": 0.0786,
      "velocity": 104,
      "chip": "ym2612"
    },
    {
      "channel": 0,
      "note": 51,
      "start": 0.1091,
      "duration": 0.0127,
      "velocity": 104,
      "chip": "ym2612"
    },
    {
      "channel": 0,
      "note": 50,
      "start": 0.1478,
      "duration": 0.0115,
      "velocity": 104,
      "chip": "ym2612"
    },
    {
      "channel": 1,
      "note": 79,
      "start": 0.1484,
      "duration": 0.0165,
      "velocity": 104,
      "chip": "ym2612"
    },
    {
      "channel": 2,
      "note": 74,
      "start": 0.1489,
      "duration": 0.0162,
      "velocity": 104,
      "chip": "ym2612"
    },
    {
      "channel": 3,
      "note": 70,
      "start": 0.1495,
      "duration": 0.0159,
      "velocity": 104,
      "chip": "ym2612"
    },
    {
      "channel": 1,
      "note": 79,
      "start": 0.1704,
      "duration": 0.0214,
      "velocity": 104,
      "chip": "ym2612"
    },
    {
      "channel": 2,
      "note": 74,
      "start": 0.1726,
      "duration": 0.0194,
      "velocity": 104,
      "chip": "ym2612"
    },
    {
      "channel": 3,
      "note": 71,
      "start": 0.1756,
      "duration": 0.0168,
      "velocity": 104,
      "chip": "ym2612"
    },
    {
      "channel": 4,
      "note": 78,
      "start": 0.1763,
      "duration": 0.0165,
      "velocity": 104,
      "chip": "ym2612"
    },
    {
      "channel": 0,
      "note": 49,
      "start": 0.208,
      "duration": 0.0193,
      "velocity": 104,
      "chip": "ym2612"
    },
    {
      "channel": 1,
      "note": 79,
      "start": 0.2102,
      "duration": 0.0236,
      "velocity": 104,
      "chip": "ym2612"
    },
    {
      "channel": 2,
      "note": 74,
      "start": 0.2124,
      "duration": 0.0216,
      "velocity": 104,
      "chip": "ym2612"
    },
    {
      "channel": 3,
      "note": 71,
      "start": 0.2154,
      "duration": 0.0192,
      "velocity": 104,
      "chip": "ym2612"
    },
    {
      "channel": 4,
      "note": 79,
      "start": 0.2185,
      "duration": 0.0165,
      "velocity": 104,
      "chip": "ym2612"
    },
    {
      "channel": 1,
      "note": 79,
      "start": 0.239,
      "duration": 0.0225,
      "velocity": 104,
      "chip": "ym2612"
    },
    {
      "channel": 2,
      "note": 74,
      "start": 0.2412,
      "duration": 0.0206,
      "velocity": 104,
      "chip": "ym2612"
    },
    {
      "channel": 3,
      "note": 71,
      "start": 0.2441,
      "duration": 0.0179,
      "velocity": 104,
      "chip": "ym2612"
    },
    {
      "channel": 4,
      "note": 79,
      "start": 0.2473,
      "duration": 0.0152,
      "velocity": 104,
      "chip": "ym2612"
    },
    {
      "channel": 0,
      "note": 48,
      "start": 0.2655,
      "duration": 0.0194,
      "velocity": 104,
      "chip": "ym2612"
    },
    {
      "channel": 1,
      "note": 80,
      "start": 0.2676,
      "duration": 0.0242,
      "velocity": 104,
      "chip": "ym2612"
    },
    {
      "channel": 2,
      "note": 75,
      "start": 0.2702,
      "duration": 0.0219,
      "velocity": 104,
      "chip": "ym2612"
    },
    {
      "channel": 3,
      "note": 71,
      "start": 0.2732,
      "duration": 0.0192,
      "velocity": 104,
      "chip": "ym2612"
    },
    {
      "channel": 4,
      "note": 79,
      "start": 0.2763,
      "duration": 0.0165,
      "velocity": 104,
      "chip": "ym2612"
    },
    {
      "channel": 1,
      "note": 80,
      "start": 0.2977,
      "duration": 0.024,
      "velocity": 104,
      "chip": "ym2612"
    },
    {
      "channel": 2,
      "note": 75,
      "start": 0.2998,
      "duration": 0.0221,
      "velocity": 104,
      "chip": "ym2612"
    },
    {
      "channel": 3,
      "note": 72,
      "start": 0.3032,
      "duration": 0.019,
      "velocity": 104,
      "chip": "ym2612"
    },
    {
      "channel": 4,
      "note": 79,
      "start": 0.3063,
      "duration": 0.0163,
      "velocity": 104,
      "chip": "ym2612"
    },
    {
      "channel": 0,
      "note": 47,
      "start": 0.3255,
      "duration": 0.0191,
      "velocity": 104,
      "chip": "ym2612"
    },
    {
      "channel": 1,
      "note": 81,
      "start": 0.3277,
      "duration": 0.0234,
      "velocity": 104,
      "chip": "ym2612"
    },
    {
      "channel": 2,
      "note": 76,
      "start": 0.3298,
      "duration": 0.0215,
      "velocity": 104,
      "chip": "ym2612"
    },
    {
      "channel": 3,
      "note": 72,
      "start": 0.3328,
      "duration": 0.0188,
      "velocity": 104,
      "chip": "ym2612"
    },
    {
      "channel": 4,
      "note": 80,
      "start": 0.3369,
      "duration": 0.0151,
      "velocity": 104,
      "chip": "ym2612"
    },
    {
      "channel": 1,
      "note": 80,
      "start": 0.355,
      "duration": 0.0185,
      "velocity": 104,
      "chip": "ym2612"
    },
    {
      "channel": 2,
      "note": 75,
      "start": 0.3555,
      "duration": 0.0182,
      "velocity": 104,
      "chip": "ym2612"
    },
    {
      "channel": 3,
      "note": 73,
      "start": 0.3562,
      "duration": 0.0179,
      "velocity": 104,
      "chip": "ym2612"
    },
    {
      "channel": 4,
      "note": 80,
      "start": 0.3593,
      "duration": 0.0151,
      "velocity": 104,
      "chip": "ym2612"
    },
    {
      "channel": 0,
      "note": 43,
      "start": 0.3792,
      "duration": 0.0429,
      "velocity": 97,
      "chip": "ym2612"
    },
    {
      "channel": 1,
      "note": 81,
      "start": 0.3798,
      "duration": 0.0168,
      "velocity": 104,
      "chip": "ym2612"
    },
    {
      "channel": 2,
      "note": 76,
      "start": 0.3803,
      "duration": 0.0166,
      "velocity": 104,
      "chip": "ym2612"
    },
    {
      "channel": 3,
      "note": 72,
      "start": 0.3809,
      "duration": 0.0162,
      "velocity": 104,
      "chip": "ym2612"
    },
    {
      "channel": 4,
      "note": 81,
      "start": 0.3816,
      "duration": 0.0159,
      "velocity": 104,
      "chip": "ym2612"
    },
    {
      "channel": 1,
      "note": 81,
      "start": 0.4012,
      "duration": 0.0212,
      "velocity": 104,
      "chip": "ym2612"
    },
    {
      "channel": 2,
      "note": 76,
      "start": 0.4034,
      "duration": 0.0193,
      "velocity": 104,
      "chip": "ym2612"
    },
    {
      "channel": 3,
      "note": 73,
      "start": 0.4063,
      "duration": 0.0166,
      "velocity": 104,
      "chip": "ym2612"
    },
    {
      "channel": 4,
      "note": 80,
      "start": 0.4071,
      "duration": 0.0163,
      "velocity": 104,
      "chip": "ym2612"
    },
    {
      "channel": 0,
      "note": 42,
      "start": 0.4405,
      "duration": 0.0186,
      "velocity": 104,
      "chip": "ym2612"
    },
    {
      "channel": 1,
      "note": 81,
      "start": 0.4429,
      "duration": 0.0228,
      "velocity": 104,
      "chip": "ym2612"
    },
    {
      "channel": 2,
      "note": 76,
      "start": 0.445,
      "duration": 0.0209,
      "velocity": 104,
      "chip": "ym2612"
    },
    {
      "channel": 3,
      "note": 73,
      "start": 0.448,
      "duration": 0.0182,
      "velocity": 104,
      "chip": "ym2612"
    },
    {
      "channel": 4,
      "note": 81,
      "start": 0.4511,
      "duration": 0.0155,
      "velocity": 104,
      "chip": "ym2612"
    },
    {
      "channel": 1,
      "note": 81,
      "start": 0.4702,
      "duration": 0.0214,
      "velocity": 104,
      "chip": "ym2612"
    },
    {
      "channel": 2,
      "note": 76,
      "start": 0.4724,
      "duration": 0.0195,
      "velocity": 104,
      "chip": "ym2612"
    },
    {
      "channel": 3,
      "note": 73,
      "start": 0.4758,
      "duration": 0.0165,
      "velocity": 104,
      "chip": "ym2612"
    },
    {
      "channel": 4,
      "note": 81,
      "start": 0.4788,
      "duration": 0.0138,
      "velocity": 104,
      "chip": "ym2612"
    },
    {
      "channel": 0,
      "note": 53,
      "start": 0.4944,
      "duration": 0.0191,
      "velocity": 104,
      "chip": "ym2612"
    },
    {
      "channel": 1,
      "note": 77,
      "start": 0.4966,
      "duration": 0.0238,
      "velocity": 104,
      "chip": "ym2612"
    },
    {
      "channel": 2,
      "note": 72,
      "start": 0.4988,
      "duration": 0.0219,
      "velocity": 104,
      "chip": "ym2612"
    },
    {
      "channel": 3,
      "note": 73,
      "start": 0.5022,
      "duration": 0.0188,
      "velocity": 104,
      "chip": "ym2612"
    },
    {
      "channel": 4,
      "note": 81,
      "start": 0.5053,
      "duration": 0.0161,
      "velocity": 104,
      "chip": "ym2612"
    },
    {
      "channel": 1,
      "note": 77,
      "start": 0.5247,
      "duration": 0.0187,
      "velocity": 104,
      "chip": "ym2612"
    },
    {
      "channel": 2,
      "note": 72,
      "start": 0.5252,
      "duration": 0.0184,
      "velocity": 104,
      "chip": "ym2612"
    },
    {
      "channel": 3,
      "note": 69,
      "start": 0.5258,
      "duration": 0.0181,
      "velocity": 104,
      "chip": "ym2612"
    },
    {
      "channel": 4,
      "note": 81,
      "start": 0.5289,
      "duration": 0.0154,
      "velocity": 104,
      "chip": "ym2612"
    },
    {
      "channel": 0,
      "note": 52,
      "start": 0.547,
      "duration": 0.0101,
      "velocity": 104,
      "chip": "ym2612"
    },
    {
      "channel": 1,
      "note": 78,
      "start": 0.5475,
      "duration": 0.0343,
      "velocity": 104,
      "chip": "ym2612"
    },
    {
      "channel": 2,
      "note": 73,
      "start": 0.548,
      "duration": 0.034,
      "velocity": 104,
      "chip": "ym2612"
    },
    {
      "channel": 3,
      "note": 69,
      "start": 0.5487,
      "duration": 0.0337,
      "velocity": 104,
      "chip": "ym2612"
    },
    {
      "channel": 4,
      "note": 77,
      "start": 0.5494,
      "duration": 0.015,
      "velocity": 104,
      "chip": "ym2612"
    },
    {
      "channel": 4,
      "note": 77,
      "start": 0.5682,
      "duration": 0.0351,
      "velocity": 104,
      "chip": "ym2612"
    },
    {
      "channel": 0,
      "note": 51,
      "start": 0.5856,
      "duration": 0.0104,
      "velocity": 104,
      "chip": "ym2612"
    },
    {
      "channel": 1,
      "note": 79,
      "start": 0.5863,
      "duration": 0.016,
      "velocity": 104,
      "chip": "ym2612"
    },
    {
      "channel": 2,
      "note": 74,
      "start": 0.5868,
      "duration": 0.0157,
      "velocity": 104,
      "chip": "ym2612"
    },
    {
      "channel": 3,
      "note": 70,
      "start": 0.5875,
      "duration": 0.0154,
      "velocity": 104,
      "chip": "ym2612"
    },
    {
      "channel": 1,
      "note": 79,
      "start": 0.608,
      "duration": 0.0227,
      "velocity": 104,
      "chip": "ym2612"
    },
    {
      "channel": 2,
      "note": 74,
      "start": 0.6105,
      "duration": 0.0204,
      "velocity": 104,
      "chip": "ym2612"
    },
    {
      "channel": 3,
      "note": 71,
      "start": 0.6135,
      "duration": 0.0177,
      "velocity": 104,
      "chip": "ym2612"
    },
    {
      "channel": 4,
      "note": 78,
      "start": 0.6142,
      "duration": 0.0174,
      "velocity": 104,
      "chip": "ym2612"
    },
    {
      "channel": 0,
      "note": 50,
      "start": 0.6469,
      "duration": 0.0186,
      "velocity": 104,
      "chip": "ym2612"
    },
    {
      "channel": 1,
      "note": 79,
      "start": 0.6491,
      "duration": 0.022,
      "velocity": 104,
      "chip": "ym2612"
    },
    {
      "channel": 2,
      "note": 74,
      "start": 0.6512,
      "duration": 0.02,
      "velocity": 104,
      "chip": "ym2612"
    },
    {
      "channel": 3,
      "note": 71,
      "start": 0.6546,
      "duration": 0.017,
      "velocity": 104,
      "chip": "ym2612"
    },
    {
      "channel": 4,
      "note": 79,
      "start": 0.6577,
      "duration": 0.0143,
      "velocity": 104,
      "chip": "ym2612"
    },
    {
      "channel": 1,
      "note": 79,
      "start": 0.6766,
      "duration": 0.0215,
      "velocity": 104,
      "chip": "ym2612"
    },
    {
      "channel": 2,
      "note": 74,
      "start": 0.6789,
      "duration": 0.0195,
      "velocity": 104,
      "chip": "ym2612"
    },
    {
      "channel": 3,
      "note": 71,
      "start": 0.6819,
      "duration": 0.0169,
      "velocity": 104,
      "chip": "ym2612"
    },
    {
      "channel": 4,
      "note": 79,
      "start": 0.6853,
      "duration": 0.0138,
      "velocity": 104,
      "chip": "ym2612"
    },
    {
      "channel": 0,
      "note": 49,
      "start": 0.7009,
      "duration": 0.019,
      "velocity": 104,
      "chip": "ym2612"
    },
    {
      "channel": 1,
      "note": 80,
      "start": 0.7031,
      "duration": 0.0228,
      "velocity": 104,
      "chip": "ym2612"
    },
    {
      "channel": 2,
      "note": 75,
      "start": 0.7052,
      "duration": 0.0209,
      "velocity": 104,
      "chip": "ym2612"
    },
    {
      "channel": 3,
      "note": 71,
      "start": 0.7082,
      "duration": 0.0182,
      "velocity": 104,
      "chip": "ym2612"
    },
    {
      "channel": 4,
      "note": 79,
      "start": 0.7117,
      "duration": 0.0151,
      "velocity": 104,
      "chip": "ym2612"
    },
    {
      "channel": 1,
      "note": 80,
      "start": 0.7327,
      "duration": 0.0219,
      "velocity": 104,
      "chip": "ym2612"
    },
    {
      "channel": 2,
      "note": 75,
      "start": 0.7349,
      "duration": 0.02,
      "velocity": 104,
      "chip": "ym2612"
    },
    {
      "channel": 3,
      "note": 72,
      "start": 0.7379,
      "duration": 0.0173,
      "velocity": 104,
      "chip": "ym2612"
    },
    {
      "channel": 4,
      "note": 79,
      "start": 0.741,
      "duration": 0.0146,
      "velocity": 104,
      "chip": "ym2612"
    },
    {
      "channel": 0,
      "note": 47,
      "start": 0.758,
      "duration": 0.0182,
      "velocity": 104,
      "chip": "ym2612"
    },
    {
      "channel": 1,
      "note": 81,
      "start": 0.7602,
      "duration": 0.022,
      "velocity": 104,
      "chip": "ym2612"
    },
    {
      "channel": 2,
      "note": 76,
      "start": 0.7624,
      "duration": 0.02,
      "velocity": 104,
      "chip": "ym2612"
    },
    {
      "channel": 3,
      "note": 72,
      "start": 0.7654,
      "duration": 0.0177,
      "velocity": 104,
      "chip": "ym2612"
    },
    {
      "channel": 4,
      "note": 80,
      "start": 0.7685,
      "duration": 0.015,
      "velocity": 104,
      "chip": "ym2612"
    },
    {
      "channel": 1,
      "note": 80,
      "start": 0.7855,
      "duration": 0.0207,
      "velocity": 104,
      "chip": "ym2612"
    },
    {
      "channel": 2,
      "note": 75,
      "start": 0.7861,
      "duration": 0.0204,
      "velocity": 104,
      "chip": "ym2612"
    },
    {
      "channel": 3,
      "note": 73,
      "start": 0.7878,
      "duration": 0.019,
      "velocity": 104,
      "chip": "ym2612"
    },
    {
      "channel": 4,
      "note": 80,
      "start": 0.7908,
      "duration": 0.0163,
      "velocity": 104,
      "chip": "ym2612"
    },
    {
      "channel": 0,
      "note": 43,
      "start": 0.8107,
      "duration": 0.0352,
      "velocity": 97,
      "chip": "ym2612"
    },
    {
      "channel": 1,
      "note": 81,
      "start": 0.8113,
      "duration": 0.0155,
      "velocity": 104,
      "chip": "ym2612"
    },
    {
      "channel": 2,
      "note": 76,
      "start": 0.8118,
      "duration": 0.0153,
      "velocity": 104,
      "chip": "ym2612"
    },
    {
      "channel": 3,
      "note": 72,
      "start": 0.8128,
      "duration": 0.0146,
      "velocity": 104,
      "chip": "ym2612"
    },
    {
      "channel": 4,
      "note": 81,
      "start": 0.8135,
      "duration": 0.0143,
      "velocity": 104,
      "chip": "ym2612"
    },
    {
      "channel": 1,
      "note": 84,
      "start": 0.83,
      "duration": 0.0162,
      "velocity": 104,
      "chip": "ym2612"
    },
    {
      "channel": 2,
      "note": 81,
      "start": 0.8305,
      "duration": 0.0159,
      "velocity": 104,
      "chip": "ym2612"
    },
    {
      "channel": 3,
      "note": 73,
      "start": 0.8312,
      "duration": 0.0156,
      "velocity": 104,
      "chip": "ym2612"
    },
    {
      "channel": 4,
      "note": 80,
      "start": 0.8319,
      "duration": 0.0152,
      "velocity": 104,
      "chip": "ym2612"
    },
    {
      "channel": 0,
      "note": 42,
      "start": 0.852,
      "duration": 0.0109,
      "velocity": 104,
      "chip": "ym2612"
    },
    {
      "channel": 1,
      "note": 89,
      "start": 0.8527,
      "duration": 0.016,
      "velocity": 104,
      "chip": "ym2612"
    },
    {
      "channel": 2,
      "note": 84,
      "start": 0.8533,
      "duration": 0.0156,
      "velocity": 104,
      "chip": "ym2612"
    },
    {
      "channel": 3,
      "note": 77,
      "start": 0.8541,
      "duration": 0.0152,
      "velocity": 104,
      "chip": "ym2612"
    },
    {
      "channel": 4,
      "note": 81,
      "start": 0.8549,
      "duration": 0.0149,
      "velocity": 104,
      "chip": "ym2612"
    },
    {
      "channel": 1,
      "note": 89,
      "start": 0.8734,
      "duration": 0.0203,
      "velocity": 104,
      "chip": "ym2612"
    },
    {
      "channel": 2,
      "note": 84,
      "start": 0.8756,
      "duration": 0.0183,
      "velocity": 104,
      "chip": "ym2612"
    },
    {
      "channel": 3,
      "note": 81,
      "start": 0.8786,
      "duration": 0.0157,
      "velocity": 104,
      "chip": "ym2612"
    },
    {
      "channel": 4,
      "note": 84,
      "start": 0.8795,
      "duration": 0.0151,
      "velocity": 104,
      "chip": "ym2612"
    },
    {
      "channel": 0,
      "note": 41,
      "start": 0.8965,
      "duration": 0.0182,
      "velocity": 104,
      "chip": "ym2612"
    },
    {
      "channel": 1,
      "note": 89,
      "start": 0.8987,
      "duration": 0.0218,
      "velocity": 104,
      "chip": "ym2612"
    },
    {
      "channel": 2,
      "note": 84,
      "start": 0.9009,
      "duration": 0.0199,
      "velocity": 104,
      "chip": "ym2612"
    },
    {
      "channel": 3,
      "note": 81,
      "start": 0.904,
      "duration": 0.0172,
      "velocity": 104,
      "chip": "ym2612"
    },
    {
      "channel": 4,
      "note": 89,
      "start": 0.9071,
      "duration": 0.0145,
      "velocity": 104,
      "chip": "ym2612"
    },
    {
      "channel": 1,
      "note": 77,
      "start": 0.9254,
      "duration": 0.0254,
      "velocity": 99,
      "chip": "ym2612"
    },
    {
      "channel": 2,
      "note": 72,
      "start": 0.9278,
      "duration": 0.0232,
      "velocity": 99,
      "chip": "ym2612"
    },
    {
      "channel": 3,
      "note": 81,
      "start": 0.931,
      "duration": 0.0204,
      "velocity": 99,
      "chip": "ym2612"
    },
    {
      "channel": 4,
      "note": 89,
      "start": 0.9341,
      "duration": 0.0177,
      "velocity": 104,
      "chip": "ym2612"
    },
    {
      "channel": 0,
      "note": 48,
      "start": 0.967,
      "duration": 0.0485,
      "velocity": 104,
      "chip": "ym2612"
    },
    {
      "channel": 1,
      "note": 77,
      "start": 0.9675,
      "duration": 1.1534,
      "velocity": 99,
      "chip": "ym2612"
    },
    {
      "channel": 2,
      "note": 72,
      "start": 0.9681,
      "duration": 1.1531,
      "velocity": 99,
      "chip": "ym2612"
    },
    {
      "channel": 3,
      "note": 69,
      "start": 0.969,
      "duration": 1.1525,
      "velocity": 99,
      "chip": "ym2612"
    },
    {
      "channel": 4,
      "note": 89,
      "start": 0.9724,
      "duration": 0.0767,
      "velocity": 99,
      "chip": "ym2612"
    },
    {
      "channel": 4,
      "note": 77,
      "start": 1.0655,
      "duration": 1.0949,
      "velocity": 99,
      "chip": "ym2612"
    },
    {
      "channel": 0,
      "note": 49,
      "start": 1.162,
      "duration": 0.0486,
      "velocity": 104,
      "chip": "ym2612"
    },
    {
      "channel": 0,
      "note": 42,
      "start": 1.3571,
      "duration": 0.0484,
      "velocity": 104,
      "chip": "ym2612"
    },
    {
      "channel": 0,
      "note": 41,
      "start": 1.5524,
      "duration": 0.0481,
      "velocity": 104,
      "chip": "ym2612"
    },
    {
      "channel": 0,
      "note": 48,
      "start": 1.7471,
      "duration": 0.0485,
      "velocity": 104,
      "chip": "ym2612"
    },
    {
      "channel": 0,
      "note": 49,
      "start": 1.9421,
      "duration": 0.0485,
      "velocity": 104,
      "chip": "ym2612"
    },
    {
      "channel": 0,
      "note": 42,
      "start": 2.1372,
      "duration": 0.0157,
      "velocity": 104,
      "chip": "ym2612"
    },
    {
      "channel": 1,
      "note": 77,
      "start": 2.1394,
      "duration": 0.0197,
      "velocity": 99,
      "chip": "ym2612"
    },
    {
      "channel": 2,
      "note": 72,
      "start": 2.1416,
      "duration": 0.0181,
      "velocity": 99,
      "chip": "ym2612"
    },
    {
      "channel": 3,
      "note": 69,
      "start": 2.1446,
      "duration": 0.0154,
      "velocity": 99,
      "chip": "ym2612"
    },
    {
      "channel": 1,
      "note": 77,
      "start": 2.1644,
      "duration": 0.0237,
      "velocity": 99,
      "chip": "ym2612"
    },
    {
      "channel": 2,
      "note": 72,
      "start": 2.1666,
      "duration": 0.0218,
      "velocity": 99,
      "chip": "ym2612"
    },
    {
      "channel": 3,
      "note": 69,
      "start": 2.1696,
      "duration": 0.0191,
      "velocity": 99,
      "chip": "ym2612"
    },
    {
      "channel": 4,
      "note": 77,
      "start": 2.1727,
      "duration": 0.0164,
      "velocity": 99,
      "chip": "ym2612"
    },
    {
      "channel": 0,
      "note": 41,
      "start": 2.1909,
      "duration": 0.0184,
      "velocity": 104,
      "chip": "ym2612"
    },
    {
      "channel": 1,
      "note": 77,
      "start": 2.1931,
      "duration": 0.0221,
      "velocity": 99,
      "chip": "ym2612"
    },
    {
      "channel": 2,
      "note": 72,
      "start": 2.1956,
      "duration": 0.0198,
      "velocity": 99,
      "chip": "ym2612"
    },
    {
      "channel": 3,
      "note": 69,
      "start": 2.1987,
      "duration": 0.0171,
      "velocity": 99,
      "chip": "ym2612"
    },
    {
      "channel": 4,
      "note": 77,
      "start": 2.2018,
      "duration": 0.0143,
      "velocity": 99,
      "chip": "ym2612"
    },
    {
      "channel": 1,
      "note": 88,
      "start": 2.2199,
      "duration": 0.0228,
      "velocity": 104,
      "chip": "ym2612"
    },
    {
      "channel": 2,
      "note": 84,
      "start": 2.2221,
      "duration": 0.0209,
      "velocity": 104,
      "chip": "ym2612"
    },
    {
      "channel": 3,
      "note": 69,
      "start": 2.2255,
      "duration": 0.0178,
      "velocity": 104,
      "chip": "ym2612"
    },
    {
      "channel": 4,
      "note": 77,
      "start": 2.2286,
      "duration": 0.0151,
      "velocity": 99,
      "chip": "ym2612"
    },
    {
      "channel": 0,
      "note": 48,
      "start": 2.2559,
      "duration": 0.0486,
      "velocity": 104,
      "chip": "ym2612"
    },
    {
      "channel": 1,
      "note": 88,
      "start": 2.2564,
      "duration": 0.1132,
      "velocity": 104,
      "chip": "ym2612"
    },
    {
      "channel": 2,
      "note": 84,
      "start": 2.257,
      "duration": 0.113,
      "velocity": 104,
      "chip": "ym2612"
    },
    {
      "channel": 3,
      "note": 80,
      "start": 2.2576,
      "duration": 0.1127,
      "velocity": 104,
      "chip": "ym2612"
    },
    {
      "channel": 4,
      "note": 77,
      "start": 2.2609,
      "duration": 0.0771,
      "velocity": 104,
      "chip": "ym2612"
    },
    {
      "channel": 4,
      "note": 88,
      "start": 2.3545,
      "duration": 0.1136,
      "velocity": 104,
      "chip": "ym2612"
    },
    {
      "channel": 1,
      "note": 87,
      "start": 2.3861,
      "duration": 0.0485,
      "velocity": 104,
      "chip": "ym2612"
    },
    {
      "channel": 2,
      "note": 84,
      "start": 2.3867,
      "duration": 0.0483,
      "velocity": 104,
      "chip": "ym2612"
    },
    {
      "channel": 3,
      "note": 80,
      "start": 2.3873,
      "duration": 0.048,
      "velocity": 104,
      "chip": "ym2612"
    },
    {
      "channel": 0,
      "note": 49,
      "start": 2.4509,
      "duration": 0.0485,
      "velocity": 104,
      "chip": "ym2612"
    },
    {
      "channel": 1,
      "note": 87,
      "start": 2.4531,
      "duration": 0.0466,
      "velocity": 104,
      "chip": "ym2612"
    },
    {
      "channel": 2,
      "note": 84,
      "start": 2.4552,
      "duration": 0.0448,
      "velocity": 104,
      "chip": "ym2612"
    },
    {
      "channel": 3,
      "note": 80,
      "start": 2.4582,
      "duration": 0.0421,
      "velocity": 104,
      "chip": "ym2612"
    },
    {
      "channel": 4,
      "note": 88,
      "start": 2.4845,
      "duration": 0.0485,
      "velocity": 104,
      "chip": "ym2612"
    },
    {
      "channel": 1,
      "note": 86,
      "start": 2.5178,
      "duration": 0.5985,
      "velocity": 104,
      "chip": "ym2612"
    },
    {
      "channel": 2,
      "note": 83,
      "start": 2.5199,
      "duration": 0.5967,
      "velocity": 104,
      "chip": "ym2612"
    },
    {
      "channel": 3,
      "note": 80,
      "start": 2.523,
      "duration": 0.594,
      "velocity": 104,
      "chip": "ym2612"
    },
    {
      "channel": 4,
      "note": 87,
      "start": 2.5519,
      "duration": 0.0464,
      "velocity": 104,
      "chip": "ym2612"
    },
    {
      "channel": 4,
      "note": 87,
      "start": 2.618,
      "duration": 0.4995,
      "velocity": 104,
      "chip": "ym2612"
    },
    {
      "channel": 0,
      "note": 54,
      "start": 2.6461,
      "duration": 0.0484,
      "velocity": 104,
      "chip": "ym2612"
    },
    {
      "channel": 0,
      "note": 53,
      "start": 2.8409,
      "duration": 0.0486,
      "velocity": 104,
      "chip": "ym2612"
    },
    {
      "channel": 0,
      "note": 60,
      "start": 3.0378,
      "duration": 0.0371,
      "velocity": 104,
      "chip": "ym2612"
    },
    {
      "channel": 0,
      "note": 54,
      "start": 3.0786,
      "duration": 0.0107,
      "velocity": 104,
      "chip": "ym2612"
    },
    {
      "channel": 0,
      "note": 47,
      "start": 3.1212,
      "duration": 0.013,
      "velocity": 104,
      "chip": "ym2612"
    },
    {
      "channel": 0,
      "note": 49,
      "start": 3.1807,
      "duration": 0.0088,
      "velocity": 104,
      "chip": "ym2612"
    },
    {
      "channel": 0,
      "note": 50,
      "start": 3.2161,
      "duration": 0.0121,
      "velocity": 104,
      "chip": "ym2612"
    },
    {
      "channel": 1,
      "note": 91,
      "start": 3.2166,
      "duration": 0.0949,
      "velocity": 104,
      "chip": "ym2612"
    },
    {
      "channel": 4,
      "note": 86,
      "start": 3.2204,
      "duration": 0.092,
      "velocity": 104,
      "chip": "ym2612"
    },
    {
      "channel": 0,
      "note": 52,
      "start": 3.2775,
      "duration": 0.0099,
      "velocity": 104,
      "chip": "ym2612"
    },
    {
      "channel": 0,
      "note": 53,
      "start": 3.3142,
      "duration": 0.0151,
      "velocity": 104,
      "chip": "ym2612"
    },
    {
      "channel": 1,
      "note": 91,
      "start": 3.3164,
      "duration": 0.0412,
      "velocity": 104,
      "chip": "ym2612"
    },
    {
      "channel": 4,
      "note": 79,
      "start": 3.32,
      "duration": 0.0386,
      "velocity": 104,
      "chip": "ym2612"
    },
    {
      "channel": 0,
      "note": 52,
      "start": 3.3739,
      "duration": 0.0147,
      "velocity": 104,
      "chip": "ym2612"
    },
    {
      "channel": 1,
      "note": 91,
      "start": 3.376,
      "duration": 0.0371,
      "velocity": 104,
      "chip": "ym2612"
    },
    {
      "channel": 4,
      "note": 79,
      "start": 3.3797,
      "duration": 0.0349,
      "velocity": 104,
      "chip": "ym2612"
    },
    {
      "channel": 0,
      "note": 50,
      "start": 3.4172,
      "duration": 0.0173,
      "velocity": 104,
      "chip": "ym2612"
    },
    {
      "channel": 1,
      "note": 91,
      "start": 3.4198,
      "duration": 0.0914,
      "velocity": 104,
      "chip": "ym2612"
    },
    {
      "channel": 2,
      "note": 90,
      "start": 3.422,
      "duration": 0.0895,
      "velocity": 104,
      "chip": "ym2612"
    },
    {
      "channel": 4,
      "note": 79,
      "start": 3.4254,
      "duration": 0.0867,
      "velocity": 104,
      "chip": "ym2612"
    },
    {
      "channel": 0,
      "note": 49,
      "start": 3.4772,
      "duration": 0.0098,
      "velocity": 104,
      "chip": "ym2612"
    },
    {
      "channel": 0,
      "note": 47,
      "start": 3.5155,
      "duration": 0.0167,
      "velocity": 104,
      "chip": "ym2612"
    },
    {
      "channel": 1,
      "note": 91,
      "start": 3.5177,
      "duration": 0.0411,
      "velocity": 104,
      "chip": "ym2612"
    },
    {
      "channel": 2,
      "note": 90,
      "start": 3.5199,
      "duration": 0.0391,
      "velocity": 104,
      "chip": "ym2612"
    },
    {
      "channel": 4,
      "note": 79,
      "start": 3.5234,
      "duration": 0.0363,
      "velocity": 104,
      "chip": "ym2612"
    },
    {
      "channel": 0,
      "note": 49,
      "start": 3.5753,
      "duration": 0.0171,
      "velocity": 104,
      "chip": "ym2612"
    },
    {
      "channel": 1,
      "note": 91,
      "start": 3.5775,
      "duration": 0.0402,
      "velocity": 104,
      "chip": "ym2612"
    },
    {
      "channel": 2,
      "note": 90,
      "start": 3.5797,
      "duration": 0.0383,
      "velocity": 104,
      "chip": "ym2612"
    },
    {
      "channel": 4,
      "note": 79,
      "start": 3.5831,
      "duration": 0.0356,
      "velocity": 104,
      "chip": "ym2612"
    },
    {
      "channel": 0,
      "note": 50,
      "start": 3.6217,
      "duration": 0.0173,
      "velocity": 104,
      "chip": "ym2612"
    },
    {
      "channel": 1,
      "note": 91,
      "start": 3.6238,
      "duration": 0.0731,
      "velocity": 104,
      "chip": "ym2612"
    },
    {
      "channel": 2,
      "note": 89,
      "start": 3.6261,
      "duration": 0.0712,
      "velocity": 104,
      "chip": "ym2612"
    },
    {
      "channel": 4,
      "note": 79,
      "start": 3.6298,
      "duration": 0.0682,
      "velocity": 104,
      "chip": "ym2612"
    },
    {
      "channel": 0,
      "note": 52,
      "start": 3.6813,
      "duration": 0.0099,
      "velocity": 104,
      "chip": "ym2612"
    },
    {
      "channel": 1,
      "note": 91,
      "start": 3.7023,
      "duration": 0.019,
      "velocity": 104,
      "chip": "ym2612"
    },
    {
      "channel": 2,
      "note": 89,
      "start": 3.7045,
      "duration": 0.0171,
      "velocity": 104,
      "chip": "ym2612"
    },
    {
      "channel": 4,
      "note": 79,
      "start": 3.7079,
      "duration": 0.0144,
      "velocity": 104,
      "chip": "ym2612"
    },
    {
      "channel": 0,
      "note": 53,
      "start": 3.7244,
      "duration": 0.0167,
      "velocity": 104,
      "chip": "ym2612"
    },
    {
      "channel": 1,
      "note": 91,
      "start": 3.7266,
      "duration": 0.0267,
      "velocity": 104,
      "chip": "ym2612"
    },
    {
      "channel": 2,
      "note": 88,
      "start": 3.7288,
      "duration": 0.0248,
      "velocity": 104,
      "chip": "ym2612"
    },
    {
      "channel": 4,
      "note": 79,
      "start": 3.7322,
      "duration": 0.0225,
      "velocity": 104,
      "chip": "ym2612"
    },
    {
      "channel": 1,
      "note": 91,
      "start": 3.7587,
      "duration": 0.0367,
      "velocity": 104,
      "chip": "ym2612"
    },
    {
      "channel": 2,
      "note": 88,
      "start": 3.761,
      "duration": 0.0348,
      "velocity": 104,
      "chip": "ym2612"
    },
    {
      "channel": 4,
      "note": 79,
      "start": 3.7643,
      "duration": 0.0322,
      "velocity": 104,
      "chip": "ym2612"
    },
    {
      "channel": 0,
      "note": 52,
      "start": 3.7858,
      "duration": 0.0094,
      "velocity": 104,
      "chip": "ym2612"
    },
    {
      "channel": 1,
      "note": 91,
      "start": 3.8012,
      "duration": 0.0251,
      "velocity": 104,
      "chip": "ym2612"
    },
    {
      "channel": 2,
      "note": 87,
      "start": 3.8034,
      "duration": 0.0232,
      "velocity": 104,
      "chip": "ym2612"
    },
    {
      "channel": 4,
      "note": 79,
      "start": 3.8072,
      "duration": 0.02,
      "velocity": 104,
      "chip": "ym2612"
    },
    {
      "channel": 0,
      "note": 50,
      "start": 3.8293,
      "duration": 0.016,
      "velocity": 104,
      "chip": "ym2612"
    },
    {
      "channel": 1,
      "note": 91,
      "start": 3.8314,
      "duration": 0.0261,
      "velocity": 104,
      "chip": "ym2612"
    },
    {
      "channel": 2,
      "note": 87,
      "start": 3.8337,
      "duration": 0.0242,
      "velocity": 104,
      "chip": "ym2612"
    },
    {
      "channel": 4,
      "note": 79,
      "start": 3.8373,
      "duration": 0.0212,
      "velocity": 104,
      "chip": "ym2612"
    },
    {
      "channel": 1,
      "note": 91,
      "start": 3.8622,
      "duration": 0.0357,
      "velocity": 104,
      "chip": "ym2612"
    },
    {
      "channel": 2,
      "note": 88,
      "start": 3.8645,
      "duration": 0.0337,
      "velocity": 104,
      "chip": "ym2612"
    },
    {
      "channel": 4,
      "note": 79,
      "start": 3.8678,
      "duration": 0.0311,
      "velocity": 104,
      "chip": "ym2612"
    },
    {
      "channel": 0,
      "note": 49,
      "start": 3.8888,
      "duration": 0.0088,
      "velocity": 104,
      "chip": "ym2612"
    },
    {
      "channel": 1,
      "note": 91,
      "start": 3.9037,
      "duration": 0.0256,
      "velocity": 104,
      "chip": "ym2612"
    },
    {
      "channel": 2,
      "note": 88,
      "start": 3.9059,
      "duration": 0.0237,
      "velocity": 104,
      "chip": "ym2612"
    },
    {
      "channel": 4,
      "note": 79,
      "start": 3.9093,
      "duration": 0.0214,
      "velocity": 104,
      "chip": "ym2612"
    },
    {
      "channel": 0,
      "note": 47,
      "start": 3.9333,
      "duration": 0.0127,
      "velocity": 104,
      "chip": "ym2612"
    },
    {
      "channel": 0,
      "note": 49,
      "start": 3.994,
      "duration": 0.0088,
      "velocity": 104,
      "chip": "ym2612"
    },
    {
      "channel": 0,
      "note": 50,
      "start": 4.0307,
      "duration": 0.0121,
      "velocity": 104,
      "chip": "ym2612"
    },
    {
      "channel": 1,
      "note": 91,
      "start": 4.0312,
      "duration": 0.0955,
      "velocity": 104,
      "chip": "ym2612"
    },
    {
      "channel": 4,
      "note": 79,
      "start": 4.035,
      "duration": 0.0926,
      "velocity": 104,
      "chip": "ym2612"
    },
    {
      "channel": 0,
      "note": 52,
      "start": 4.0904,
      "duration": 0.0096,
      "velocity": 104,
      "chip": "ym2612"
    },
    {
      "channel": 0,
      "note": 53,
      "start": 4.1308,
      "duration": 0.0141,
      "velocity": 104,
      "chip": "ym2612"
    },
    {
      "channel": 1,
      "note": 91,
      "start": 4.133,
      "duration": 0.0413,
      "velocity": 104,
      "chip": "ym2612"
    },
    {
      "channel": 4,
      "note": 79,
      "start": 4.137,
      "duration": 0.0383,
      "velocity": 104,
      "chip": "ym2612"
    },
    {
      "channel": 0,
      "note": 52,
      "start": 4.1906,
      "duration": 0.0139,
      "velocity": 104,
      "chip": "ym2612"
    },
    {
      "channel": 1,
      "note": 91,
      "start": 4.1927,
      "duration": 0.0365,
      "velocity": 104,
      "chip": "ym2612"
    },
    {
      "channel": 4,
      "note": 79,
      "start": 4.1964,
      "duration": 0.0338,
      "velocity": 104,
      "chip": "ym2612"
    },
    {
      "channel": 0,
      "note": 50,
      "start": 4.2321,
      "duration": 0.016,
      "velocity": 104,
      "chip": "ym2612"
    },
    {
      "channel": 1,
      "note": 91,
      "start": 4.2342,
      "duration": 0.0941,
      "velocity": 104,
      "chip": "ym2612"
    },
    {
      "channel": 2,
      "note": 90,
      "start": 4.2365,
      "duration": 0.0921,
      "velocity": 104,
      "chip": "ym2612"
    },
    {
      "channel": 4,
      "note": 79,
      "start": 4.2399,
      "duration": 0.0895,
      "velocity": 104,
      "chip": "ym2612"
    },
    {
      "channel": 0,
      "note": 49,
      "start": 4.2934,
      "duration": 0.0094,
      "velocity": 104,
      "chip": "ym2612"
    },
    {
      "channel": 0,
      "note": 47,
      "start": 4.3319,
      "duration": 0.0163,
      "velocity": 104,
      "chip": "ym2612"
    },
    {
      "channel": 1,
      "note": 91,
      "start": 4.3341,
      "duration": 0.041,
      "velocity": 104,
      "chip": "ym2612"
    },
    {
      "channel": 2,
      "note": 90,
      "start": 4.3363,
      "duration": 0.039,
      "velocity": 104,
      "chip": "ym2612"
    },
    {
      "channel": 4,
      "note": 79,
      "start": 4.34,
      "duration": 0.0359,
      "velocity": 104,
      "chip": "ym2612"
    },
    {
      "channel": 0,
      "note": 49,
      "start": 4.3912,
      "duration": 0.0156,
      "velocity": 104,
      "chip": "ym2612"
    },
    {
      "channel": 1,
      "note": 91,
      "start": 4.3934,
      "duration": 0.0397,
      "velocity": 104,
      "chip": "ym2612"
    },
    {
      "channel": 2,
      "note": 90,
      "start": 4.3956,
      "duration": 0.0377,
      "velocity": 104,
      "chip": "ym2612"
    },
    {
      "channel": 4,
      "note": 79,
      "start": 4.399,
      "duration": 0.0354,
      "velocity": 104,
      "chip": "ym2612"
    },
    {
      "channel": 0,
      "note": 50,
      "start": 4.4371,
      "duration": 0.0166,
      "velocity": 104,
      "chip": "ym2612"
    },
    {
      "channel": 1,
      "note": 91,
      "start": 4.4397,
      "duration": 0.0727,
      "velocity": 104,
      "chip": "ym2612"
    },
    {
      "channel": 2,
      "note": 89,
      "start": 4.4418,
      "duration": 0.0709,
      "velocity": 104,
      "chip": "ym2612"
    },
    {
      "channel": 4,
      "note": 79,
      "start": 4.4453,
      "duration": 0.0681,
      "velocity": 104,
      "chip": "ym2612"
    },
    {
      "channel": 0,
      "note": 52,
      "start": 4.4976,
      "duration": 0.009,
      "velocity": 104,
      "chip": "ym2612"
    },
    {
      "channel": 1,
      "note": 91,
      "start": 4.5171,
      "duration": 0.0202,
      "velocity": 104,
      "chip": "ym2612"
    },
    {
      "channel": 2,
      "note": 89,
      "start": 4.5193,
      "duration": 0.0183,
      "velocity": 104,
      "chip": "ym2612"
    },
    {
      "channel": 4,
      "note": 79,
      "start": 4.5227,
      "duration": 0.0156,
      "velocity": 104,
      "chip": "ym2612"
    },
    {
      "channel": 0,
      "note": 53,
      "start": 4.5412,
      "duration": 0.0155,
      "velocity": 104,
      "chip": "ym2612"
    },
    {
      "channel": 1,
      "note": 91,
      "start": 4.5433,
      "duration": 0.0247,
      "velocity": 104,
      "chip": "ym2612"
    },
    {
      "channel": 2,
      "note": 88,
      "start": 4.5456,
      "duration": 0.0228,
      "velocity": 104,
      "chip": "ym2612"
    },
    {
      "channel": 4,
      "note": 79,
      "start": 4.5489,
      "duration": 0.0202,
      "velocity": 104,
      "chip": "ym2612"
    },
    {
      "channel": 1,
      "note": 91,
      "start": 4.5738,
      "duration": 0.0359,
      "velocity": 104,
      "chip": "ym2612"
    },
    {
      "channel": 2,
      "note": 88,
      "start": 4.5761,
      "duration": 0.0342,
      "velocity": 104,
      "chip": "ym2612"
    },
    {
      "channel": 4,
      "note": 79,
      "start": 4.5794,
      "duration": 0.0316,
      "velocity": 104,
      "chip": "ym2612"
    },
    {
      "channel": 0,
      "note": 52,
      "start": 4.6003,
      "duration": 0.0091,
      "velocity": 104,
      "chip": "ym2612"
    },
    {
      "channel": 1,
      "note": 91,
      "start": 4.6152,
      "duration": 0.0281,
      "velocity": 104,
      "chip": "ym2612"
    },
    {
      "channel": 2,
      "note": 87,
      "start": 4.6173,
      "duration": 0.0263,
      "velocity": 104,
      "chip": "ym2612"
    },
    {
      "channel": 4,
      "note": 79,
      "start": 4.6207,
      "duration": 0.0235,
      "velocity": 104,
      "chip": "ym2612"
    },
    {
      "channel": 0,
      "note": 50,
      "start": 4.647,
      "duration": 0.016,
      "velocity": 104,
      "chip": "ym2612"
    },
    {
      "channel": 1,
      "note": 91,
      "start": 4.6493,
      "duration": 0.0253,
      "velocity": 104,
      "chip": "ym2612"
    },
    {
      "channel": 2,
      "note": 87,
      "start": 4.6518,
      "duration": 0.0231,
      "velocity": 104,
      "chip": "ym2612"
    },
    {
      "channel": 4,
      "note": 79,
      "start": 4.6552,
      "duration": 0.0204,
      "velocity": 104,
      "chip": "ym2612"
    },
    {
      "channel": 1,
      "note": 91,
      "start": 4.6794,
      "duration": 0.0366,
      "velocity": 104,
      "chip": "ym2612"
    },
    {
      "channel": 2,
      "note": 88,
      "start": 4.6816,
      "duration": 0.0346,
      "velocity": 104,
      "chip": "ym2612"
    },
    {
      "channel": 4,
      "note": 79,
      "start": 4.6861,
      "duration": 0.0309,
      "velocity": 104,
      "chip": "ym2612"
    },
    {
      "channel": 0,
      "note": 49,
      "start": 4.7068,
      "duration": 0.0089,
      "velocity": 104,
      "chip": "ym2612"
    },
    {
      "channel": 1,
      "note": 91,
      "start": 4.7208,
      "duration": 0.0266,
      "velocity": 104,
      "chip": "ym2612"
    },
    {
      "channel": 2,
      "note": 88,
      "start": 4.7231,
      "duration": 0.0247,
      "velocity": 104,
      "chip": "ym2612"
    },
    {
      "channel": 4,
      "note": 79,
      "start": 4.7264,
      "duration": 0.022,
      "velocity": 104,
      "chip": "ym2612"
    },
    {
      "channel": 0,
      "note": 47,
      "start": 4.7512,
      "duration": 0.0163,
      "velocity": 104,
      "chip": "ym2612"
    },
    {
      "channel": 1,
      "note": 75,
      "start": 4.7537,
      "duration": 0.0141,
      "velocity": 99,
      "chip": "ym2612"
    },
    {
      "channel": 2,
      "note": 71,
      "start": 4.7562,
      "duration": 0.0119,
      "velocity": 99,
      "chip": "ym2612"
    },
    {
      "channel": 4,
      "note": 79,
      "start": 4.7599,
      "duration": 0.0088,
      "velocity": 99,
      "chip": "ym2612"
    },
    {
      "channel": 1,
      "note": 75,
      "start": 4.7725,
      "duration": 0.0133,
      "velocity": 99,
      "chip": "ym2612"
    },
    {
      "channel": 2,
      "note": 71,
      "start": 4.7747,
      "duration": 0.0116,
      "velocity": 99,
      "chip": "ym2612"
    },
    {
      "channel": 4,
      "note": 67,
      "start": 4.778,
      "duration": 0.009,
      "velocity": 99,
      "chip": "ym2612"
    },
    {
      "channel": 1,
      "note": 75,
      "start": 4.7911,
      "duration": 0.0144,
      "velocity": 99,
      "chip": "ym2612"
    },
    {
      "channel": 2,
      "note": 71,
      "start": 4.7933,
      "duration": 0.0125,
      "velocity": 99,
      "chip": "ym2612"
    },
    {
      "channel": 4,
      "note": 67,
      "start": 4.7967,
      "duration": 0.0098,
      "velocity": 99,
      "chip": "ym2612"
    },
    {
      "channel": 0,
      "note": 49,
      "start": 4.8123,
      "duration": 0.0155,
      "velocity": 104,
      "chip": "ym2612"
    },
    {
      "channel": 1,
      "note": 75,
      "start": 4.8145,
      "duration": 0.0137,
      "velocity": 99,
      "chip": "ym2612"
    },
    {
      "channel": 2,
      "note": 71,
      "start": 4.817,
      "duration": 0.0114,
      "velocity": 99,
      "chip": "ym2612"
    },
    {
      "channel": 4,
      "note": 67,
      "start": 4.8203,
      "duration": 0.0087,
      "velocity": 99,
      "chip": "ym2612"
    },
    {
      "channel": 1,
      "note": 75,
      "start": 4.8328,
      "duration": 0.0141,
      "velocity": 99,
      "chip": "ym2612"
    },
    {
      "channel": 2,
      "note": 71,
      "start": 4.8354,
      "duration": 0.0118,
      "velocity": 99,
      "chip": "ym2612"
    },
    {
      "channel": 4,
      "note": 67,
      "start": 4.8388,
      "duration": 0.009,
      "velocity": 99,
      "chip": "ym2612"
    },
    {
      "channel": 1,
      "note": 75,
      "start": 4.8515,
      "duration": 0.0143,
      "velocity": 99,
      "chip": "ym2612"
    },
    {
      "channel": 2,
      "note": 71,
      "start": 4.8537,
      "duration": 0.0124,
      "velocity": 99,
      "chip": "ym2612"
    },
    {
      "channel": 4,
      "note": 67,
      "start": 4.8574,
      "duration": 0.0093,
      "velocity": 99,
      "chip": "ym2612"
    },
    {
      "channel": 0,
      "note": 50,
      "start": 4.8695,
      "duration": 0.0159,
      "velocity": 104,
      "chip": "ym2612"
    },
    {
      "channel": 1,
      "note": 75,
      "start": 4.8717,
      "duration": 0.3056,
      "velocity": 99,
      "chip": "ym2612"
    },
    {
      "channel": 2,
      "note": 71,
      "start": 4.8739,
      "duration": 0.3038,
      "velocity": 99,
      "chip": "ym2612"
    },
    {
      "channel": 4,
      "note": 67,
      "start": 4.8776,
      "duration": 0.3007,
      "velocity": 99,
      "chip": "ym2612"
    },
    {
      "channel": 0,
      "note": 52,
      "start": 4.9294,
      "duration": 0.0085,
      "velocity": 104,
      "chip": "ym2612"
    },
    {
      "channel": 0,
      "note": 53,
      "start": 4.9655,
      "duration": 0.0102,
      "velocity": 104,
      "chip": "ym2612"
    },
    {
      "channel": 0,
      "note": 52,
      "start": 5.0264,
      "duration": 0.0091,
      "velocity": 104,
      "chip": "ym2612"
    },
    {
      "channel": 0,
      "note": 50,
      "start": 5.0633,
      "duration": 0.0093,
      "velocity": 104,
      "chip": "ym2612"
    },
    {
      "channel": 0,
      "note": 49,
      "start": 5.1225,
      "duration": 0.0095,
      "velocity": 104,
      "chip": "ym2612"
    },
    {
      "channel": 0,
      "note": 47,
      "start": 5.1621,
      "duration": 0.0094,
      "velocity": 104,
      "chip": "ym2612"
    },
    {
      "channel": 0,
      "note": 49,
      "start": 5.2213,
      "duration": 0.0167,
      "velocity": 104,
      "chip": "ym2612"
    },
    {
      "channel": 1,
      "note": 73,
      "start": 5.2237,
      "duration": 0.02,
      "velocity": 98,
      "chip": "ym2612"
    },
    {
      "channel": 2,
      "note": 70,
      "start": 5.2261,
      "duration": 0.0178,
      "velocity": 98,
      "chip": "ym2612"
    },
    {
      "channel": 4,
      "note": 67,
      "start": 5.2296,
      "duration": 0.015,
      "velocity": 98,
      "chip": "ym2612"
    },
    {
      "channel": 1,
      "note": 73,
      "start": 5.247,
      "duration": 0.0191,
      "velocity": 98,
      "chip": "ym2612"
    },
    {
      "channel": 2,
      "note": 70,
      "start": 5.2493,
      "duration": 0.0171,
      "velocity": 98,
      "chip": "ym2612"
    },
    {
      "channel": 4,
      "note": 66,
      "start": 5.2526,
      "duration": 0.0144,
      "velocity": 98,
      "chip": "ym2612"
    },
    {
      "channel": 0,
      "note": 50,
      "start": 5.2709,
      "duration": 0.0142,
      "velocity": 104,
      "chip": "ym2612"
    },
    {
      "channel": 1,
      "note": 73,
      "start": 5.2714,
      "duration": 0.0197,
      "velocity": 98,
      "chip": "ym2612"
    },
    {
      "channel": 2,
      "note": 70,
      "start": 5.2736,
      "duration": 0.0178,
      "velocity": 98,
      "chip": "ym2612"
    },
    {
      "channel": 4,
      "note": 66,
      "start": 5.277,
      "duration": 0.0151,
      "velocity": 98,
      "chip": "ym2612"
    },
    {
      "channel": 1,
      "note": 73,
      "start": 5.296,
      "duration": 0.0203,
      "velocity": 98,
      "chip": "ym2612"
    },
    {
      "channel": 2,
      "note": 70,
      "start": 5.2982,
      "duration": 0.0183,
      "velocity": 98,
      "chip": "ym2612"
    },
    {
      "channel": 4,
      "note": 66,
      "start": 5.3016,
      "duration": 0.0156,
      "velocity": 98,
      "chip": "ym2612"
    },
    {
      "channel": 0,
      "note": 52,
      "start": 5.332,
      "duration": 0.0168,
      "velocity": 104,
      "chip": "ym2612"
    },
    {
      "channel": 1,
      "note": 77,
      "start": 5.3352,
      "duration": 0.0195,
      "velocity": 98,
      "chip": "ym2612"
    },
    {
      "channel": 2,
      "note": 74,
      "start": 5.3375,
      "duration": 0.0174,
      "velocity": 98,
      "chip": "ym2612"
    },
    {
      "channel": 4,
      "note": 78,
      "start": 5.3408,
      "duration": 0.0147,
      "velocity": 98,
      "chip": "ym2612"
    },
    {
      "channel": 1,
      "note": 77,
      "start": 5.3594,
      "duration": 0.0197,
      "velocity": 98,
      "chip": "ym2612"
    },
    {
      "channel": 2,
      "note": 74,
      "start": 5.3616,
      "duration": 0.0178,
      "velocity": 98,
      "chip": "ym2612"
    },
    {
      "channel": 4,
      "note": 70,
      "start": 5.3654,
      "duration": 0.0147,
      "velocity": 98,
      "chip": "ym2612"
    },
    {
      "channel": 0,
      "note": 53,
      "start": 5.3829,
      "duration": 0.0169,
      "velocity": 104,
      "chip": "ym2612"
    },
    {
      "channel": 1,
      "note": 77,
      "start": 5.3851,
      "duration": 0.0205,
      "velocity": 98,
      "chip": "ym2612"
    },
    {
      "channel": 2,
      "note": 74,
      "start": 5.3873,
      "duration": 0.0186,
      "velocity": 98,
      "chip": "ym2612"
    },
    {
      "channel": 4,
      "note": 70,
      "start": 5.3917,
      "duration": 0.0148,
      "velocity": 98,
      "chip": "ym2612"
    },
    {
      "channel": 1,
      "note": 77,
      "start": 5.4102,
      "duration": 0.019,
      "velocity": 98,
      "chip": "ym2612"
    },
    {
      "channel": 2,
      "note": 74,
      "start": 5.4124,
      "duration": 0.0171,
      "velocity": 98,
      "chip": "ym2612"
    },
    {
      "channel": 4,
      "note": 70,
      "start": 5.4158,
      "duration": 0.0144,
      "velocity": 98,
      "chip": "ym2612"
    },
    {
      "channel": 0,
      "note": 52,
      "start": 5.4421,
      "duration": 0.0167,
      "velocity": 104,
      "chip": "ym2612"
    },
    {
      "channel": 1,
      "note": 81,
      "start": 5.4443,
      "duration": 0.0202,
      "velocity": 98,
      "chip": "ym2612"
    },
    {
      "channel": 2,
      "note": 78,
      "start": 5.4465,
      "duration": 0.0183,
      "velocity": 98,
      "chip": "ym2612"
    },
    {
      "channel": 4,
      "note": 70,
      "start": 5.4499,
      "duration": 0.0156,
      "velocity": 98,
      "chip": "ym2612"
    },
    {
      "channel": 1,
      "note": 81,
      "start": 5.4694,
      "duration": 0.0197,
      "velocity": 98,
      "chip": "ym2612"
    },
    {
      "channel": 2,
      "note": 78,
      "start": 5.4716,
      "duration": 0.0179,
      "velocity": 98,
      "chip": "ym2612"
    },
    {
      "channel": 4,
      "note": 74,
      "start": 5.475,
      "duration": 0.0151,
      "velocity": 98,
      "chip": "ym2612"
    },
    {
      "channel": 0,
      "note": 50,
      "start": 5.4919,
      "duration": 0.0175,
      "velocity": 104,
      "chip": "ym2612"
    },
    {
      "channel": 1,
      "note": 81,
      "start": 5.4944,
      "duration": 0.0216,
      "velocity": 98,
      "chip": "ym2612"
    },
    {
      "channel": 2,
      "note": 78,
      "start": 5.4966,
      "duration": 0.0197,
      "velocity": 98,
      "chip": "ym2612"
    },
    {
      "channel": 4,
      "note": 74,
      "start": 5.5,
      "duration": 0.017,
      "velocity": 98,
      "chip": "ym2612"
    },
    {
      "channel": 1,
      "note": 81,
      "start": 5.5207,
      "duration": 0.0193,
      "velocity": 98,
      "chip": "ym2612"
    },
    {
      "channel": 2,
      "note": 78,
      "start": 5.5233,
      "duration": 0.017,
      "velocity": 98,
      "chip": "ym2612"
    },
    {
      "channel": 4,
      "note": 74,
      "start": 5.5266,
      "duration": 0.0143,
      "velocity": 98,
      "chip": "ym2612"
    },
    {
      "channel": 0,
      "note": 49,
      "start": 5.5526,
      "duration": 0.0171,
      "velocity": 104,
      "chip": "ym2612"
    },
    {
      "channel": 1,
      "note": 84,
      "start": 5.5548,
      "duration": 0.0208,
      "velocity": 98,
      "chip": "ym2612"
    },
    {
      "channel": 2,
      "note": 81,
      "start": 5.557,
      "duration": 0.0189,
      "velocity": 98,
      "chip": "ym2612"
    },
    {
      "channel": 4,
      "note": 74,
      "start": 5.5607,
      "duration": 0.0158,
      "velocity": 98,
      "chip": "ym2612"
    },
    {
      "channel": 1,
      "note": 84,
      "start": 5.5803,
      "duration": 0.0198,
      "velocity": 98,
      "chip": "ym2612"
    },
    {
      "channel": 2,
      "note": 81,
      "start": 5.5825,
      "duration": 0.0178,
      "velocity": 98,
      "chip": "ym2612"
    },
    {
      "channel": 4,
      "note": 77,
      "start": 5.5859,
      "duration": 0.0152,
      "velocity": 98,
      "chip": "ym2612"
    },
    {
      "channel": 0,
      "note": 47,
      "start": 5.6042,
      "duration": 0.011,
      "velocity": 104,
      "chip": "ym2612"
    },
    {
      "channel": 1,
      "note": 95,
      "start": 5.6253,
      "duration": 0.1076,
      "velocity": 98,
      "chip": "ym2612"
    },
    {
      "channel": 0,
      "note": 49,
      "start": 5.6635,
      "duration": 0.0151,
      "velocity": 104,
      "chip": "ym2612"
    },
    {
      "channel": 2,
      "note": 85,
      "start": 5.6661,
      "duration": 0.0234,
      "velocity": 87,
      "chip": "ym2612"
    },
    {
      "channel": 4,
      "note": 77,
      "start": 5.6698,
      "duration": 0.1018,
      "velocity": 98,
      "chip": "ym2612"
    },
    {
      "channel": 2,
      "note": 86,
      "start": 5.6896,
      "duration": 0.0153,
      "velocity": 87,
      "chip": "ym2612"
    },
    {
      "channel": 0,
      "note": 50,
      "start": 5.7077,
      "duration": 0.0136,
      "velocity": 104,
      "chip": "ym2612"
    },
    {
      "channel": 2,
      "note": 91,
      "start": 5.7086,
      "duration": 0.0784,
      "velocity": 87,
      "chip": "ym2612"
    },
    {
      "channel": 3,
      "note": 80,
      "start": 5.7121,
      "duration": 0.0099,
      "velocity": 96,
      "chip": "ym2612"
    },
    {
      "channel": 3,
      "note": 65,
      "start": 5.7249,
      "duration": 0.0086,
      "velocity": 96,
      "chip": "ym2612"
    },
    {
      "channel": 1,
      "note": 94,
      "start": 5.7358,
      "duration": 0.0421,
      "velocity": 98,
      "chip": "ym2612"
    },
    {
      "channel": 3,
      "note": 69,
      "start": 5.7366,
      "duration": 0.0147,
      "velocity": 96,
      "chip": "ym2612"
    },
    {
      "channel": 0,
      "note": 52,
      "start": 5.7671,
      "duration": 0.0106,
      "velocity": 104,
      "chip": "ym2612"
    },
    {
      "channel": 3,
      "note": 73,
      "start": 5.7681,
      "duration": 0.0103,
      "velocity": 96,
      "chip": "ym2612"
    },
    {
      "channel": 4,
      "note": 95,
      "start": 5.7745,
      "duration": 0.0226,
      "velocity": 98,
      "chip": "ym2612"
    },
    {
      "channel": 1,
      "note": 90,
      "start": 5.7808,
      "duration": 0.0212,
      "velocity": 98,
      "chip": "ym2612"
    },
    {
      "channel": 3,
      "note": 74,
      "start": 5.7817,
      "duration": 0.0088,
      "velocity": 96,
      "chip": "ym2612"
    },
    {
      "channel": 2,
      "note": 90,
      "start": 5.7869,
      "duration": 0.0095,
      "velocity": 87,
      "chip": "ym2612"
    },
    {
      "channel": 3,
      "note": 79,
      "start": 5.7934,
      "duration": 0.0092,
      "velocity": 96,
      "chip": "ym2612"
    },
    {
      "channel": 2,
      "note": 89,
      "start": 5.7964,
      "duration": 0.0058,
      "velocity": 87,
      "chip": "ym2612"
    },
    {
      "channel": 4,
      "note": 94,
      "start": 5.8,
      "duration": 0.0224,
      "velocity": 98,
      "chip": "ym2612"
    },
    {
      "channel": 0,
      "note": 53,
      "start": 5.8054,
      "duration": 0.0105,
      "velocity": 104,
      "chip": "ym2612"
    },
    {
      "channel": 1,
      "note": 92,
      "start": 5.8059,
      "duration": 0.0156,
      "velocity": 98,
      "chip": "ym2612"
    },
    {
      "channel": 2,
      "note": 82,
      "start": 5.8064,
      "duration": 0.0246,
      "velocity": 87,
      "chip": "ym2612"
    },
    {
      "channel": 3,
      "note": 80,
      "start": 5.8071,
      "duration": 0.0151,
      "velocity": 96,
      "chip": "ym2612"
    },
    {
      "channel": 1,
      "note": 98,
      "start": 5.8246,
      "duration": 0.0255,
      "velocity": 98,
      "chip": "ym2612"
    },
    {
      "channel": 3,
      "note": 73,
      "start": 5.8278,
      "duration": 0.0228,
      "velocity": 96,
      "chip": "ym2612"
    },
    {
      "channel": 4,
      "note": 90,
      "start": 5.8285,
      "duration": 0.0224,
      "velocity": 98,
      "chip": "ym2612"
    },
    {
      "channel": 2,
      "note": 82,
      "start": 5.8359,
      "duration": 0.0432,
      "velocity": 87,
      "chip": "ym2612"
    },
    {
      "channel": 0,
      "note": 52,
      "start": 5.8663,
      "duration": 0.0123,
      "velocity": 104,
      "chip": "ym2612"
    },
    {
      "channel": 1,
      "note": 92,
      "start": 5.867,
      "duration": 0.1138,
      "velocity": 98,
      "chip": "ym2612"
    },
    {
      "channel": 3,
      "note": 73,
      "start": 5.8706,
      "duration": 0.0174,
      "velocity": 96,
      "chip": "ym2612"
    },
    {
      "channel": 4,
      "note": 92,
      "start": 5.8713,
      "duration": 0.0171,
      "velocity": 98,
      "chip": "ym2612"
    },
    {
      "channel": 2,
      "note": 82,
      "start": 5.8845,
      "duration": 0.0237,
      "velocity": 87,
      "chip": "ym2612"
    },
    {
      "channel": 3,
      "note": 73,
      "start": 5.894,
      "duration": 0.0146,
      "velocity": 96,
      "chip": "ym2612"
    },
    {
      "channel": 4,
      "note": 98,
      "start": 5.8948,
      "duration": 0.1097,
      "velocity": 98,
      "chip": "ym2612"
    },
    {
      "channel": 0,
      "note": 50,
      "start": 5.9114,
      "duration": 0.0109,
      "velocity": 104,
      "chip": "ym2612"
    },
    {
      "channel": 2,
      "note": 82,
      "start": 5.9138,
      "duration": 0.0219,
      "velocity": 87,
      "chip": "ym2612"
    },
    {
      "channel": 3,
      "note": 77,
      "start": 5.9146,
      "duration": 0.0058,
      "velocity": 96,
      "chip": "ym2612"
    },
    {
      "channel": 3,
      "note": 76,
      "start": 5.9234,
      "duration": 0.0065,
      "velocity": 96,
      "chip": "ym2612"
    },
    {
      "channel": 3,
      "note": 77,
      "start": 5.9331,
      "duration": 0.0074,
      "velocity": 96,
      "chip": "ym2612"
    },
    {
      "channel": 2,
      "note": 82,
      "start": 5.9401,
      "duration": 0.0412,
      "velocity": 87,
      "chip": "ym2612"
    },
    {
      "channel": 3,
      "note": 76,
      "start": 5.9435,
      "duration": 0.0118,
      "velocity": 96,
      "chip": "ym2612"
    },
    {
      "channel": 0,
      "note": 49,
      "start": 5.971,
      "duration": 0.0095,
      "velocity": 104,
      "chip": "ym2612"
    },
    {
      "channel": 3,
      "note": 77,
      "start": 5.9723,
      "duration": 0.0061,
      "velocity": 96,
      "chip": "ym2612"
    },
    {
      "channel": 1,
      "note": 91,
      "start": 5.981,
      "duration": 0.0124,
      "velocity": 98,
      "chip": "ym2612"
    },
    {
      "channel": 3,
      "note": 76,
      "start": 5.9819,
      "duration": 0.0085,
      "velocity": 96,
      "chip": "ym2612"
    },
    {
      "channel": 2,
      "note": 82,
      "start": 5.9873,
      "duration": 0.0228,
      "velocity": 87,
      "chip": "ym2612"
    },
    {
      "channel": 1,
      "note": 90,
      "start": 5.9937,
      "duration": 0.0092,
      "velocity": 98,
      "chip": "ym2612"
    },
    {
      "channel": 3,
      "note": 77,
      "start": 5.9947,
      "duration": 0.0058,
      "velocity": 96,
      "chip": "ym2612"
    },
    {
      "channel": 1,
      "note": 89,
      "start": 6.0032,
      "duration": 0.0105,
      "velocity": 98,
      "chip": "ym2612"
    },
    {
      "channel": 3,
      "note": 76,
      "start": 6.004,
      "duration": 0.0064,
      "velocity": 96,
      "chip": "ym2612"
    },
    {
      "channel": 4,
      "note": 92,
      "start": 6.0048,
      "duration": 0.0107,
      "velocity": 98,
      "chip": "ym2612"
    },
    {
      "channel": 0,
      "note": 47,
      "start": 6.0131,
      "duration": 0.0117,
      "velocity": 104,
      "chip": "ym2612"
    },
    {
      "channel": 1,
      "note": 88,
      "start": 6.014,
      "duration": 0.0111,
      "velocity": 98,
      "chip": "ym2612"
    },
    {
      "channel": 3,
      "note": 77,
      "start": 6.0151,
      "duration": 0.0071,
      "velocity": 96,
      "chip": "ym2612"
    },
    {
      "channel": 4,
      "note": 91,
      "start": 6.0159,
      "duration": 0.011,
      "velocity": 98,
      "chip": "ym2612"
    },
    {
      "channel": 1,
      "note": 87,
      "start": 6.0253,
      "duration": 0.0103,
      "velocity": 98,
      "chip": "ym2612"
    },
    {
      "channel": 3,
      "note": 76,
      "start": 6.0261,
      "duration": 0.0074,
      "velocity": 96,
      "chip": "ym2612"
    },
    {
      "channel": 4,
      "note": 90,
      "start": 6.0272,
      "duration": 0.0102,
      "velocity": 98,
      "chip": "ym2612"
    },
    {
      "channel": 1,
      "note": 86,
      "start": 6.0359,
      "duration": 0.01,
      "velocity": 98,
      "chip": "ym2612"
    },
    {
      "channel": 3,
      "note": 77,
      "start": 6.0369,
      "duration": 0.0064,
      "velocity": 96,
      "chip": "ym2612"
    },
    {
      "channel": 4,
      "note": 89,
      "start": 6.0377,
      "duration": 0.0098,
      "velocity": 98,
      "chip": "ym2612"
    },
    {
      "channel": 1,
      "note": 85,
      "start": 6.0461,
      "duration": 0.0281,
      "velocity": 98,
      "chip": "ym2612"
    },
    {
      "channel": 3,
      "note": 76,
      "start": 6.047,
      "duration": 0.0112,
      "velocity": 96,
      "chip": "ym2612"
    },
    {
      "channel": 4,
      "note": 88,
      "start": 6.0478,
      "duration": 0.0326,
      "velocity": 98,
      "chip": "ym2612"
    },
    {
      "channel": 0,
      "note": 49,
      "start": 6.0739,
      "duration": 0.0177,
      "velocity": 104,
      "chip": "ym2612"
    },
    {
      "channel": 1,
      "note": 73,
      "start": 6.0764,
      "duration": 0.022,
      "velocity": 98,
      "chip": "ym2612"
    },
    {
      "channel": 2,
      "note": 70,
      "start": 6.0788,
      "duration": 0.0199,
      "velocity": 98,
      "chip": "ym2612"
    },
    {
      "channel": 3,
      "note": 77,
      "start": 6.08,
      "duration": 0.019,
      "velocity": 96,
      "chip": "ym2612"
    },
    {
      "channel": 4,
      "note": 87,
      "start": 6.0836,
      "duration": 0.0158,
      "velocity": 98,
      "chip": "ym2612"
    },
    {
      "channel": 1,
      "note": 73,
      "start": 6.1015,
      "duration": 0.0222,
      "velocity": 98,
      "chip": "ym2612"
    },
    {
      "channel": 2,
      "note": 70,
      "start": 6.1036,
      "duration": 0.0203,
      "velocity": 98,
      "chip": "ym2612"
    },
    {
      "channel": 3,
      "note": 76,
      "start": 6.1067,
      "duration": 0.0176,
      "velocity": 96,
      "chip": "ym2612"
    },
    {
      "channel": 4,
      "note": 66,
      "start": 6.1101,
      "duration": 0.0144,
      "velocity": 98,
      "chip": "ym2612"
    },
    {
      "channel": 0,
      "note": 50,
      "start": 6.1269,
      "duration": 0.0171,
      "velocity": 104,
      "chip": "ym2612"
    },
    {
      "channel": 1,
      "note": 73,
      "start": 6.1274,
      "duration": 0.0233,
      "velocity": 98,
      "chip": "ym2612"
    },
    {
      "channel": 2,
      "note": 70,
      "start": 6.1296,
      "duration": 0.0213,
      "velocity": 98,
      "chip": "ym2612"
    },
    {
      "channel": 3,
      "note": 76,
      "start": 6.1326,
      "duration": 0.0187,
      "velocity": 96,
      "chip": "ym2612"
    },
    {
      "channel": 4,
      "note": 66,
      "start": 6.1357,
      "duration": 0.0159,
      "velocity": 98,
      "chip": "ym2612"
    },
    {
      "channel": 1,
      "note": 73,
      "start": 6.1554,
      "duration": 0.019,
      "velocity": 98,
      "chip": "ym2612"
    },
    {
      "channel": 2,
      "note": 70,
      "start": 6.1576,
      "duration": 0.0171,
      "velocity": 98,
      "chip": "ym2612"
    },
    {
      "channel": 4,
      "note": 66,
      "start": 6.1611,
      "duration": 0.0142,
      "velocity": 98,
      "chip": "ym2612"
    },
    {
      "channel": 0,
      "note": 52,
      "start": 6.1865,
      "duration": 0.0158,
      "velocity": 104,
      "chip": "ym2612"
    },
    {
      "channel": 1,
      "note": 77,
      "start": 6.1888,
      "duration": 0.02,
      "velocity": 98,
      "chip": "ym2612"
    },
    {
      "channel": 2,
      "note": 74,
      "start": 6.1909,
      "duration": 0.0181,
      "velocity": 98,
      "chip": "ym2612"
    },
    {
      "channel": 4,
      "note": 78,
      "start": 6.1943,
      "duration": 0.0164,
      "velocity": 98,
      "chip": "ym2612"
    },
    {
      "channel": 1,
      "note": 77,
      "start": 6.2154,
      "duration": 0.0198,
      "velocity": 98,
      "chip": "ym2612"
    },
    {
      "channel": 2,
      "note": 74,
      "start": 6.2177,
      "duration": 0.0178,
      "velocity": 98,
      "chip": "ym2612"
    },
    {
      "channel": 4,
      "note": 70,
      "start": 6.221,
      "duration": 0.0151,
      "velocity": 98,
      "chip": "ym2612"
    },
    {
      "channel": 0,
      "note": 53,
      "start": 6.2379,
      "duration": 0.016,
      "velocity": 104,
      "chip": "ym2612"
    },
    {
      "channel": 1,
      "note": 77,
      "start": 6.2402,
      "duration": 0.0195,
      "velocity": 98,
      "chip": "ym2612"
    },
    {
      "channel": 2,
      "note": 74,
      "start": 6.2427,
      "duration": 0.0173,
      "velocity": 98,
      "chip": "ym2612"
    },
    {
      "channel": 4,
      "note": 70,
      "start": 6.246,
      "duration": 0.0146,
      "velocity": 98,
      "chip": "ym2612"
    },
    {
      "channel": 1,
      "note": 77,
      "start": 6.2653,
      "duration": 0.0193,
      "velocity": 98,
      "chip": "ym2612"
    },
    {
      "channel": 2,
      "note": 74,
      "start": 6.2675,
      "duration": 0.0174,
      "velocity": 98,
      "chip": "ym2612"
    },
    {
      "channel": 4,
      "note": 70,
      "start": 6.2712,
      "duration": 0.0144,
      "velocity": 98,
      "chip": "ym2612"
    },
    {
      "channel": 0,
      "note": 52,
      "start": 6.2978,
      "duration": 0.0161,
      "velocity": 104,
      "chip": "ym2612"
    },
    {
      "channel": 1,
      "note": 81,
      "start": 6.3,
      "duration": 0.0198,
      "velocity": 98,
      "chip": "ym2612"
    },
    {
      "channel": 2,
      "note": 78,
      "start": 6.3022,
      "duration": 0.0179,
      "velocity": 98,
      "chip": "ym2612"
    },
    {
      "channel": 4,
      "note": 70,
      "start": 6.3056,
      "duration": 0.0151,
      "velocity": 98,
      "chip": "ym2612"
    },
    {
      "channel": 1,
      "note": 81,
      "start": 6.3254,
      "duration": 0.0193,
      "velocity": 98,
      "chip": "ym2612"
    },
    {
      "channel": 2,
      "note": 78,
      "start": 6.3277,
      "duration": 0.0173,
      "velocity": 98,
      "chip": "ym2612"
    },
    {
      "channel": 4,
      "note": 74,
      "start": 6.331,
      "duration": 0.0146,
      "velocity": 98,
      "chip": "ym2612"
    },
    {
      "channel": 0,
      "note": 50,
      "start": 6.3475,
      "duration": 0.0159,
      "velocity": 104,
      "chip": "ym2612"
    },
    {
      "channel": 1,
      "note": 81,
      "start": 6.3497,
      "duration": 0.0225,
      "velocity": 98,
      "chip": "ym2612"
    },
    {
      "channel": 2,
      "note": 78,
      "start": 6.3519,
      "duration": 0.0205,
      "velocity": 98,
      "chip": "ym2612"
    },
    {
      "channel": 4,
      "note": 74,
      "start": 6.3553,
      "duration": 0.0178,
      "velocity": 98,
      "chip": "ym2612"
    },
    {
      "channel": 3,
      "note": 76,
      "start": 6.3696,
      "duration": 0.0197,
      "velocity": 98,
      "chip": "ym2612"
    },
    {
      "channel": 1,
      "note": 81,
      "start": 6.3777,
      "duration": 0.0204,
      "velocity": 98,
      "chip": "ym2612"
    },
    {
      "channel": 2,
      "note": 78,
      "start": 6.3799,
      "duration": 0.0185,
      "velocity": 98,
      "chip": "ym2612"
    },
    {
      "channel": 4,
      "note": 74,
      "start": 6.3833,
      "duration": 0.0158,
      "velocity": 98,
      "chip": "ym2612"
    },
    {
      "channel": 3,
      "note": 93,
      "start": 6.3896,
      "duration": 0.0237,
      "velocity": 98,
      "chip": "ym2612"
    },
    {
      "channel": 0,
      "note": 49,
      "start": 6.4083,
      "duration": 0.0167,
      "velocity": 104,
      "chip": "ym2612"
    },
    {
      "channel": 1,
      "note": 84,
      "start": 6.4108,
      "duration": 0.0203,
      "velocity": 98,
      "chip": "ym2612"
    },
    {
      "channel": 2,
      "note": 81,
      "start": 6.413,
      "duration": 0.0184,
      "velocity": 98,
      "chip": "ym2612"
    },
    {
      "channel": 3,
      "note": 90,
      "start": 6.4137,
      "duration": 0.0146,
      "velocity": 98,
      "chip": "ym2612"
    },
    {
      "channel": 4,
      "note": 74,
      "start": 6.4168,
      "duration": 0.0152,
      "velocity": 98,
      "chip": "ym2612"
    },
    {
      "channel": 3,
      "note": 86,
      "start": 6.4286,
      "duration": 0.0195,
      "velocity": 98,
      "chip": "ym2612"
    },
    {
      "channel": 1,
      "note": 84,
      "start": 6.4359,
      "duration": 0.0205,
      "velocity": 98,
      "chip": "ym2612"
    },
    {
      "channel": 2,
      "note": 81,
      "start": 6.4381,
      "duration": 0.0186,
      "velocity": 98,
      "chip": "ym2612"
    },
    {
      "channel": 4,
      "note": 77,
      "start": 6.4425,
      "duration": 0.0148,
      "velocity": 98,
      "chip": "ym2612"
    },
    {
      "channel": 3,
      "note": 85,
      "start": 6.4485,
      "duration": 0.0165,
      "velocity": 98,
      "chip": "ym2612"
    },
    {
      "channel": 0,
      "note": 47,
      "start": 6.4597,
      "duration": 0.0156,
      "velocity": 104,
      "chip": "ym2612"
    },
    {
      "channel": 3,
      "note": 82,
      "start": 6.4653,
      "duration": 0.0135,
      "velocity": 98,
      "chip": "ym2612"
    },
    {
      "channel": 3,
      "note": 79,
      "start": 6.4791,
      "duration": 0.012,
      "velocity": 98,
      "chip": "ym2612"
    },
    {
      "channel": 3,
      "note": 78,
      "start": 6.4915,
      "duration": 0.0285,
      "velocity": 98,
      "chip": "ym2612"
    },
    {
      "channel": 0,
      "note": 49,
      "start": 6.519,
      "duration": 0.0095,
      "velocity": 104,
      "chip": "ym2612"
    },
    {
      "channel": 3,
      "note": 74,
      "start": 6.5203,
      "duration": 0.0116,
      "velocity": 98,
      "chip": "ym2612"
    },
    {
      "channel": 3,
      "note": 73,
      "start": 6.5322,
      "duration": 0.0184,
      "velocity": 98,
      "chip": "ym2612"
    },
    {
      "channel": 3,
      "note": 70,
      "start": 6.5533,
      "duration": 0.023,
      "velocity": 98,
      "chip": "ym2612"
    },
    {
      "channel": 0,
      "note": 50,
      "start": 6.5594,
      "duration": 0.0131,
      "velocity": 104,
      "chip": "ym2612"
    },
    {
      "channel": 1,
      "note": 91,
      "start": 6.5603,
      "duration": 0.0935,
      "velocity": 104,
      "chip": "ym2612"
    },
    {
      "channel": 4,
      "note": 77,
      "start": 6.5641,
      "duration": 0.0906,
      "velocity": 104,
      "chip": "ym2612"
    },
    {
      "channel": 3,
      "note": 70,
      "start": 6.5795,
      "duration": 0.0154,
      "velocity": 98,
      "chip": "ym2612"
    },
    {
      "channel": 0,
      "note": 52,
      "start": 6.6207,
      "duration": 0.0088,
      "velocity": 104,
      "chip": "ym2612"
    },
    {
      "channel": 0,
      "note": 53,
      "start": 6.6574,
      "duration": 0.0139,
      "velocity": 104,
      "chip": "ym2612"
    },
    {
      "channel": 1,
      "note": 91,
      "start": 6.6596,
      "duration": 0.0413,
      "velocity": 104,
      "chip": "ym2612"
    },
    {
      "channel": 4,
      "note": 79,
      "start": 6.6632,
      "duration": 0.0387,
      "velocity": 104,
      "chip": "ym2612"
    },
    {
      "channel": 3,
      "note": 70,
      "start": 6.6829,
      "duration": 0.0186,
      "velocity": 98,
      "chip": "ym2612"
    },
    {
      "channel": 0,
      "note": 52,
      "start": 6.7171,
      "duration": 0.0143,
      "velocity": 104,
      "chip": "ym2612"
    },
    {
      "channel": 1,
      "note": 91,
      "start": 6.7193,
      "duration": 0.0376,
      "velocity": 104,
      "chip": "ym2612"
    },
    {
      "channel": 3,
      "note": 91,
      "start": 6.7203,
      "duration": 0.018,
      "velocity": 98,
      "chip": "ym2612"
    },
    {
      "channel": 4,
      "note": 79,
      "start": 6.7233,
      "duration": 0.0346,
      "velocity": 104,
      "chip": "ym2612"
    },
    {
      "channel": 3,
      "note": 90,
      "start": 6.7416,
      "duration": 0.016,
      "velocity": 98,
      "chip": "ym2612"
    },
    {
      "channel": 0,
      "note": 50,
      "start": 6.7607,
      "duration": 0.0163,
      "velocity": 104,
      "chip": "ym2612"
    },
    {
      "channel": 1,
      "note": 91,
      "start": 6.7629,
      "duration": 0.0901,
      "velocity": 104,
      "chip": "ym2612"
    },
    {
      "channel": 2,
      "note": 90,
      "start": 6.7655,
      "duration": 0.0878,
      "velocity": 104,
      "chip": "ym2612"
    },
    {
      "channel": 3,
      "note": 84,
      "start": 6.7662,
      "duration": 0.0144,
      "velocity": 98,
      "chip": "ym2612"
    },
    {
      "channel": 4,
      "note": 79,
      "start": 6.7693,
      "duration": 0.0846,
      "velocity": 104,
      "chip": "ym2612"
    },
    {
      "channel": 3,
      "note": 89,
      "start": 6.7809,
      "duration": 0.011,
      "velocity": 98,
      "chip": "ym2612"
    },
    {
      "channel": 3,
      "note": 90,
      "start": 6.7921,
      "duration": 0.175,
      "velocity": 98,
      "chip": "ym2612"
    },
    {
      "channel": 0,
      "note": 49,
      "start": 6.8202,
      "duration": 0.0087,
      "velocity": 104,
      "chip": "ym2612"
    },
    {
      "channel": 0,
      "note": 47,
      "start": 6.8571,
      "duration": 0.0156,
      "velocity": 104,
      "chip": "ym2612"
    },
    {
      "channel": 1,
      "note": 91,
      "start": 6.8593,
      "duration": 0.0418,
      "velocity": 104,
      "chip": "ym2612"
    },
    {
      "channel": 2,
      "note": 90,
      "start": 6.8615,
      "duration": 0.0399,
      "velocity": 104,
      "chip": "ym2612"
    },
    {
      "channel": 4,
      "note": 79,
      "start": 6.8649,
      "duration": 0.0373,
      "velocity": 104,
      "chip": "ym2612"
    },
    {
      "channel": 0,
      "note": 49,
      "start": 6.9173,
      "duration": 0.0162,
      "velocity": 104,
      "chip": "ym2612"
    },
    {
      "channel": 1,
      "note": 91,
      "start": 6.9198,
      "duration": 0.0393,
      "velocity": 104,
      "chip": "ym2612"
    },
    {
      "channel": 2,
      "note": 90,
      "start": 6.922,
      "duration": 0.0374,
      "velocity": 104,
      "chip": "ym2612"
    },
    {
      "channel": 4,
      "note": 79,
      "start": 6.9254,
      "duration": 0.0347,
      "velocity": 104,
      "chip": "ym2612"
    },
    {
      "channel": 0,
      "note": 50,
      "start": 6.9624,
      "duration": 0.019,
      "velocity": 104,
      "chip": "ym2612"
    },
    {
      "channel": 1,
      "note": 91,
      "start": 6.9645,
      "duration": 0.072,
      "velocity": 104,
      "chip": "ym2612"
    },
    {
      "channel": 2,
      "note": 89,
      "start": 6.9668,
      "duration": 0.0701,
      "velocity": 104,
      "chip": "ym2612"
    },
    {
      "channel": 3,
      "note": 88,
      "start": 6.9702,
      "duration": 0.02,
      "velocity": 98,
      "chip": "ym2612"
    },
    {
      "channel": 4,
      "note": 79,
      "start": 6.9733,
      "duration": 0.0643,
      "velocity": 104,
      "chip": "ym2612"
    },
    {
      "channel": 3,
      "note": 88,
      "start": 6.993,
      "duration": 0.015,
      "velocity": 96,
      "chip": "ym2612"
    },
    {
      "channel": 0,
      "note": 52,
      "start": 7.0216,
      "duration": 0.0092,
      "velocity": 104,
      "chip": "ym2612"
    },
    {
      "channel": 3,
      "note": 72,
      "start": 7.0228,
      "duration": 0.0144,
      "velocity": 96,
      "chip": "ym2612"
    },
    {
      "channel": 1,
      "note": 91,
      "start": 7.0423,
      "duration": 0.0204,
      "velocity": 104,
      "chip": "ym2612"
    },
    {
      "channel": 2,
      "note": 89,
      "start": 7.0446,
      "duration": 0.0184,
      "velocity": 104,
      "chip": "ym2612"
    },
    {
      "channel": 3,
      "note": 74,
      "start": 7.0452,
      "duration": 0.0182,
      "velocity": 96,
      "chip": "ym2612"
    },
    {
      "channel": 4,
      "note": 79,
      "start": 7.0483,
      "duration": 0.0154,
      "velocity": 104,
      "chip": "ym2612"
    },
    {
      "channel": 0,
      "note": 53,
      "start": 7.0669,
      "duration": 0.0165,
      "velocity": 104,
      "chip": "ym2612"
    },
    {
      "channel": 1,
      "note": 91,
      "start": 7.069,
      "duration": 0.0275,
      "velocity": 104,
      "chip": "ym2612"
    },
    {
      "channel": 2,
      "note": 88,
      "start": 7.0713,
      "duration": 0.0256,
      "velocity": 104,
      "chip": "ym2612"
    },
    {
      "channel": 3,
      "note": 80,
      "start": 7.072,
      "duration": 0.0123,
      "velocity": 96,
      "chip": "ym2612"
    },
    {
      "channel": 4,
      "note": 79,
      "start": 7.075,
      "duration": 0.0226,
      "velocity": 104,
      "chip": "ym2612"
    },
    {
      "channel": 3,
      "note": 73,
      "start": 7.0876,
      "duration": 0.0096,
      "velocity": 96,
      "chip": "ym2612"
    },
    {
      "channel": 1,
      "note": 91,
      "start": 7.1013,
      "duration": 0.0361,
      "velocity": 104,
      "chip": "ym2612"
    },
    {
      "channel": 2,
      "note": 88,
      "start": 7.1039,
      "duration": 0.0338,
      "velocity": 104,
      "chip": "ym2612"
    },
    {
      "channel": 3,
      "note": 77,
      "start": 7.1046,
      "duration": 0.2167,
      "velocity": 96,
      "chip": "ym2612"
    },
    {
      "channel": 4,
      "note": 79,
      "start": 7.1076,
      "duration": 0.0307,
      "velocity": 104,
      "chip": "ym2612"
    },
    {
      "channel": 0,
      "note": 52,
      "start": 7.1281,
      "duration": 0.009,
      "velocity": 104,
      "chip": "ym2612"
    },
    {
      "channel": 1,
      "note": 91,
      "start": 7.142,
      "duration": 0.0268,
      "velocity": 104,
      "chip": "ym2612"
    },
    {
      "channel": 2,
      "note": 87,
      "start": 7.1443,
      "duration": 0.0249,
      "velocity": 104,
      "chip": "ym2612"
    },
    {
      "channel": 4,
      "note": 79,
      "start": 7.148,
      "duration": 0.0218,
      "velocity": 104,
      "chip": "ym2612"
    },
    {
      "channel": 0,
      "note": 50,
      "start": 7.1728,
      "duration": 0.0156,
      "velocity": 104,
      "chip": "ym2612"
    },
    {
      "channel": 1,
      "note": 91,
      "start": 7.1749,
      "duration": 0.0246,
      "velocity": 104,
      "chip": "ym2612"
    },
    {
      "channel": 2,
      "note": 87,
      "start": 7.1772,
      "duration": 0.0227,
      "velocity": 104,
      "chip": "ym2612"
    },
    {
      "channel": 4,
      "note": 79,
      "start": 7.1805,
      "duration": 0.0199,
      "velocity": 104,
      "chip": "ym2612"
    },
    {
      "channel": 1,
      "note": 91,
      "start": 7.2042,
      "duration": 0.037,
      "velocity": 104,
      "chip": "ym2612"
    },
    {
      "channel": 2,
      "note": 88,
      "start": 7.2064,
      "duration": 0.0351,
      "velocity": 104,
      "chip": "ym2612"
    },
    {
      "channel": 4,
      "note": 79,
      "start": 7.2098,
      "duration": 0.0324,
      "velocity": 104,
      "chip": "ym2612"
    },
    {
      "channel": 0,
      "note": 49,
      "start": 7.2322,
      "duration": 0.0088,
      "velocity": 104,
      "chip": "ym2612"
    },
    {
      "channel": 1,
      "note": 91,
      "start": 7.2463,
      "duration": 0.0263,
      "velocity": 104,
      "chip": "ym2612"
    },
    {
      "channel": 2,
      "note": 88,
      "start": 7.2485,
      "duration": 0.0245,
      "velocity": 104,
      "chip": "ym2612"
    },
    {
      "channel": 4,
      "note": 79,
      "start": 7.252,
      "duration": 0.0218,
      "velocity": 104,
      "chip": "ym2612"
    },
    {
      "channel": 0,
      "note": 47,
      "start": 7.2778,
      "duration": 0.012,
      "velocity": 104,
      "chip": "ym2612"
    },
    {
      "channel": 0,
      "note": 49,
      "start": 7.3368,
      "duration": 0.0091,
      "velocity": 104,
      "chip": "ym2612"
    },
    {
      "channel": 3,
      "note": 81,
      "start": 7.3381,
      "duration": 0.0143,
      "velocity": 96,
      "chip": "ym2612"
    },
    {
      "channel": 3,
      "note": 81,
      "start": 7.359,
      "duration": 0.0144,
      "velocity": 96,
      "chip": "ym2612"
    },
    {
      "channel": 0,
      "note": 50,
      "start": 7.378,
      "duration": 0.0149,
      "velocity": 104,
      "chip": "ym2612"
    },
    {
      "channel": 1,
      "note": 91,
      "start": 7.3785,
      "duration": 0.0979,
      "velocity": 104,
      "chip": "ym2612"
    },
    {
      "channel": 3,
      "note": 81,
      "start": 7.3819,
      "duration": 0.0174,
      "velocity": 96,
      "chip": "ym2612"
    },
    {
      "channel": 4,
      "note": 79,
      "start": 7.3852,
      "duration": 0.0922,
      "velocity": 104,
      "chip": "ym2612"
    },
    {
      "channel": 0,
      "note": 52,
      "start": 7.4384,
      "duration": 0.0136,
      "velocity": 104,
      "chip": "ym2612"
    },
    {
      "channel": 3,
      "note": 81,
      "start": 7.4431,
      "duration": 0.0153,
      "velocity": 87,
      "chip": "ym2612"
    },
    {
      "channel": 3,
      "note": 78,
      "start": 7.4625,
      "duration": 0.3547,
      "velocity": 87,
      "chip": "ym2612"
    },
    {
      "channel": 0,
      "note": 53,
      "start": 7.4807,
      "duration": 0.0147,
      "velocity": 104,
      "chip": "ym2612"
    },
    {
      "channel": 1,
      "note": 91,
      "start": 7.4828,
      "duration": 0.0411,
      "velocity": 104,
      "chip": "ym2612"
    },
    {
      "channel": 4,
      "note": 79,
      "start": 7.4864,
      "duration": 0.0384,
      "velocity": 104,
      "chip": "ym2612"
    },
    {
      "channel": 0,
      "note": 52,
      "start": 7.5401,
      "duration": 0.0149,
      "velocity": 104,
      "chip": "ym2612"
    },
    {
      "channel": 1,
      "note": 91,
      "start": 7.5423,
      "duration": 0.0365,
      "velocity": 104,
      "chip": "ym2612"
    },
    {
      "channel": 4,
      "note": 79,
      "start": 7.546,
      "duration": 0.0339,
      "velocity": 104,
      "chip": "ym2612"
    },
    {
      "channel": 0,
      "note": 50,
      "start": 7.5823,
      "duration": 0.0174,
      "velocity": 104,
      "chip": "ym2612"
    },
    {
      "channel": 1,
      "note": 91,
      "start": 7.5845,
      "duration": 0.0928,
      "velocity": 104,
      "chip": "ym2612"
    },
    {
      "channel": 2,
      "note": 90,
      "start": 7.5868,
      "duration": 0.0908,
      "velocity": 104,
      "chip": "ym2612"
    },
    {
      "channel": 4,
      "note": 79,
      "start": 7.5902,
      "duration": 0.0881,
      "velocity": 104,
      "chip": "ym2612"
    },
    {
      "channel": 0,
      "note": 49,
      "start": 7.6433,
      "duration": 0.0102,
      "velocity": 104,
      "chip": "ym2612"
    },
    {
      "channel": 0,
      "note": 47,
      "start": 7.6815,
      "duration": 0.0173,
      "velocity": 104,
      "chip": "ym2612"
    },
    {
      "channel": 1,
      "note": 91,
      "start": 7.6837,
      "duration": 0.0415,
      "velocity": 104,
      "chip": "ym2612"
    },
    {
      "channel": 2,
      "note": 90,
      "start": 7.6859,
      "duration": 0.0396,
      "velocity": 104,
      "chip": "ym2612"
    },
    {
      "channel": 4,
      "note": 79,
      "start": 7.6893,
      "duration": 0.0368,
      "velocity": 104,
      "chip": "ym2612"
    },
    {
      "channel": 0,
      "note": 49,
      "start": 7.7414,
      "duration": 0.0165,
      "velocity": 104,
      "chip": "ym2612"
    },
    {
      "channel": 1,
      "note": 91,
      "start": 7.7435,
      "duration": 0.0409,
      "velocity": 104,
      "chip": "ym2612"
    },
    {
      "channel": 2,
      "note": 90,
      "start": 7.7458,
      "duration": 0.039,
      "velocity": 104,
      "chip": "ym2612"
    },
    {
      "channel": 4,
      "note": 79,
      "start": 7.7491,
      "duration": 0.0363,
      "velocity": 104,
      "chip": "ym2612"
    },
    {
      "channel": 0,
      "note": 50,
      "start": 7.7884,
      "duration": 0.017,
      "velocity": 104,
      "chip": "ym2612"
    },
    {
      "channel": 1,
      "note": 91,
      "start": 7.7906,
      "duration": 0.0732,
      "velocity": 104,
      "chip": "ym2612"
    },
    {
      "channel": 2,
      "note": 89,
      "start": 7.7932,
      "duration": 0.071,
      "velocity": 104,
      "chip": "ym2612"
    },
    {
      "channel": 4,
      "note": 79,
      "start": 7.7965,
      "duration": 0.0682,
      "velocity": 104,
      "chip": "ym2612"
    },
    {
      "channel": 3,
      "note": 77,
      "start": 7.8203,
      "duration": 0.0383,
      "velocity": 87,
      "chip": "ym2612"
    },
    {
      "channel": 0,
      "note": 52,
      "start": 7.8479,
      "duration": 0.0098,
      "velocity": 104,
      "chip": "ym2612"
    },
    {
      "channel": 3,
      "note": 76,
      "start": 7.8616,
      "duration": 0.0266,
      "velocity": 87,
      "chip": "ym2612"
    },
    {
      "channel": 1,
      "note": 91,
      "start": 7.8689,
      "duration": 0.0187,
      "velocity": 104,
      "chip": "ym2612"
    },
    {
      "channel": 2,
      "note": 89,
      "start": 7.8711,
      "duration": 0.0168,
      "velocity": 104,
      "chip": "ym2612"
    },
    {
      "channel": 4,
      "note": 79,
      "start": 7.8744,
      "duration": 0.0141,
      "velocity": 104,
      "chip": "ym2612"
    },
    {
      "channel": 0,
      "note": 53,
      "start": 7.8907,
      "duration": 0.0168,
      "velocity": 104,
      "chip": "ym2612"
    },
    {
      "channel": 1,
      "note": 91,
      "start": 7.8929,
      "duration": 0.0263,
      "velocity": 104,
      "chip": "ym2612"
    },
    {
      "channel": 2,
      "note": 88,
      "start": 7.8951,
      "duration": 0.0244,
      "velocity": 104,
      "chip": "ym2612"
    },
    {
      "channel": 3,
      "note": 80,
      "start": 7.8957,
      "duration": 0.0126,
      "velocity": 87,
      "chip": "ym2612"
    },
    {
      "channel": 4,
      "note": 79,
      "start": 7.8988,
      "duration": 0.0213,
      "velocity": 104,
      "chip": "ym2612"
    },
    {
      "channel": 3,
      "note": 84,
      "start": 7.9114,
      "duration": 0.0083,
      "velocity": 87,
      "chip": "ym2612"
    },
    {
      "channel": 1,
      "note": 91,
      "start": 7.9241,
      "duration": 0.0372,
      "velocity": 104,
      "chip": "ym2612"
    },
    {
      "channel": 2,
      "note": 88,
      "start": 7.9262,
      "duration": 0.0354,
      "velocity": 104,
      "chip": "ym2612"
    },
    {
      "channel": 3,
      "note": 85,
      "start": 7.9269,
      "duration": 0.1156,
      "velocity": 87,
      "chip": "ym2612"
    },
    {
      "channel": 4,
      "note": 79,
      "start": 7.93,
      "duration": 0.0323,
      "velocity": 104,
      "chip": "ym2612"
    },
    {
      "channel": 0,
      "note": 52,
      "start": 7.9513,
      "duration": 0.0097,
      "velocity": 104,
      "chip": "ym2612"
    },
    {
      "channel": 1,
      "note": 91,
      "start": 7.967,
      "duration": 0.0253,
      "velocity": 104,
      "chip": "ym2612"
    },
    {
      "channel": 2,
      "note": 87,
      "start": 7.9695,
      "duration": 0.0231,
      "velocity": 104,
      "chip": "ym2612"
    },
    {
      "channel": 4,
      "note": 79,
      "start": 7.9729,
      "duration": 0.0203,
      "velocity": 104,
      "chip": "ym2612"
    },
    {
      "channel": 0,
      "note": 50,
      "start": 7.9959,
      "duration": 0.0158,
      "velocity": 104,
      "chip": "ym2612"
    },
    {
      "channel": 1,
      "note": 91,
      "start": 7.998,
      "duration": 0.0259,
      "velocity": 104,
      "chip": "ym2612"
    },
    {
      "channel": 2,
      "note": 87,
      "start": 8.0002,
      "duration": 0.024,
      "velocity": 104,
      "chip": "ym2612"
    },
    {
      "channel": 4,
      "note": 79,
      "start": 8.0039,
      "duration": 0.021,
      "velocity": 104,
      "chip": "ym2612"
    },
    {
      "channel": 1,
      "note": 91,
      "start": 8.0287,
      "duration": 0.0359,
      "velocity": 104,
      "chip": "ym2612"
    },
    {
      "channel": 2,
      "note": 88,
      "start": 8.0309,
      "duration": 0.0339,
      "velocity": 104,
      "chip": "ym2612"
    },
    {
      "channel": 4,
      "note": 79,
      "start": 8.0343,
      "duration": 0.0313,
      "velocity": 104,
      "chip": "ym2612"
    },
    {
      "channel": 0,
      "note": 49,
      "start": 8.0552,
      "duration": 0.0091,
      "velocity": 104,
      "chip": "ym2612"
    },
    {
      "channel": 3,
      "note": 81,
      "start": 8.0564,
      "duration": 0.0088,
      "velocity": 87,
      "chip": "ym2612"
    },
    {
      "channel": 1,
      "note": 91,
      "start": 8.0704,
      "duration": 0.0265,
      "velocity": 104,
      "chip": "ym2612"
    },
    {
      "channel": 2,
      "note": 88,
      "start": 8.0726,
      "duration": 0.0246,
      "velocity": 104,
      "chip": "ym2612"
    },
    {
      "channel": 3,
      "note": 80,
      "start": 8.0733,
      "duration": 0.0125,
      "velocity": 87,
      "chip": "ym2612"
    },
    {
      "channel": 4,
      "note": 79,
      "start": 8.0764,
      "duration": 0.0216,
      "velocity": 104,
      "chip": "ym2612"
    },
    {
      "channel": 3,
      "note": 84,
      "start": 8.0889,
      "duration": 0.0086,
      "velocity": 87,
      "chip": "ym2612"
    },
    {
      "channel": 0,
      "note": 47,
      "start": 8.1005,
      "duration": 0.0173,
      "velocity": 104,
      "chip": "ym2612"
    },
    {
      "channel": 1,
      "note": 75,
      "start": 8.1029,
      "duration": 0.0151,
      "velocity": 99,
      "chip": "ym2612"
    },
    {
      "channel": 2,
      "note": 71,
      "start": 8.1054,
      "duration": 0.0128,
      "velocity": 99,
      "chip": "ym2612"
    },
    {
      "channel": 3,
      "note": 85,
      "start": 8.1061,
      "duration": 0.3027,
      "velocity": 87,
      "chip": "ym2612"
    },
    {
      "channel": 4,
      "note": 79,
      "start": 8.1095,
      "duration": 0.0098,
      "velocity": 99,
      "chip": "ym2612"
    },
    {
      "channel": 1,
      "note": 75,
      "start": 8.1241,
      "duration": 0.0135,
      "velocity": 99,
      "chip": "ym2612"
    },
    {
      "channel": 2,
      "note": 71,
      "start": 8.1263,
      "duration": 0.0115,
      "velocity": 99,
      "chip": "ym2612"
    },
    {
      "channel": 4,
      "note": 67,
      "start": 8.1296,
      "duration": 0.0088,
      "velocity": 99,
      "chip": "ym2612"
    },
    {
      "channel": 1,
      "note": 75,
      "start": 8.1422,
      "duration": 0.0134,
      "velocity": 99,
      "chip": "ym2612"
    },
    {
      "channel": 2,
      "note": 71,
      "start": 8.1447,
      "duration": 0.0111,
      "velocity": 99,
      "chip": "ym2612"
    },
    {
      "channel": 4,
      "note": 67,
      "start": 8.1481,
      "duration": 0.0084,
      "velocity": 99,
      "chip": "ym2612"
    },
    {
      "channel": 0,
      "note": 49,
      "start": 8.1612,
      "duration": 0.0155,
      "velocity": 104,
      "chip": "ym2612"
    },
    {
      "channel": 1,
      "note": 75,
      "start": 8.1634,
      "duration": 0.0136,
      "velocity": 99,
      "chip": "ym2612"
    },
    {
      "channel": 2,
      "note": 71,
      "start": 8.1656,
      "duration": 0.0117,
      "velocity": 99,
      "chip": "ym2612"
    },
    {
      "channel": 4,
      "note": 67,
      "start": 8.1692,
      "duration": 0.0087,
      "velocity": 99,
      "chip": "ym2612"
    },
    {
      "channel": 1,
      "note": 75,
      "start": 8.1817,
      "duration": 0.0142,
      "velocity": 99,
      "chip": "ym2612"
    },
    {
      "channel": 2,
      "note": 71,
      "start": 8.184,
      "duration": 0.0122,
      "velocity": 99,
      "chip": "ym2612"
    },
    {
      "channel": 4,
      "note": 67,
      "start": 8.1883,
      "duration": 0.0085,
      "velocity": 99,
      "chip": "ym2612"
    },
    {
      "channel": 1,
      "note": 75,
      "start": 8.2006,
      "duration": 0.0135,
      "velocity": 99,
      "chip": "ym2612"
    },
    {
      "channel": 2,
      "note": 71,
      "start": 8.2027,
      "duration": 0.0116,
      "velocity": 99,
      "chip": "ym2612"
    },
    {
      "channel": 4,
      "note": 67,
      "start": 8.2061,
      "duration": 0.0089,
      "velocity": 99,
      "chip": "ym2612"
    },
    {
      "channel": 0,
      "note": 50,
      "start": 8.217,
      "duration": 0.016,
      "velocity": 104,
      "chip": "ym2612"
    },
    {
      "channel": 1,
      "note": 75,
      "start": 8.2192,
      "duration": 0.3082,
      "velocity": 99,
      "chip": "ym2612"
    },
    {
      "channel": 2,
      "note": 71,
      "start": 8.2214,
      "duration": 0.3063,
      "velocity": 99,
      "chip": "ym2612"
    },
    {
      "channel": 4,
      "note": 67,
      "start": 8.2248,
      "duration": 0.3036,
      "velocity": 99,
      "chip": "ym2612"
    },
    {
      "channel": 0,
      "note": 52,
      "start": 8.277,
      "duration": 0.0086,
      "velocity": 104,
      "chip": "ym2612"
    },
    {
      "channel": 0,
      "note": 53,
      "start": 8.3145,
      "duration": 0.0096,
      "velocity": 104,
      "chip": "ym2612"
    },
    {
      "channel": 0,
      "note": 52,
      "start": 8.3744,
      "duration": 0.0091,
      "velocity": 104,
      "chip": "ym2612"
    },
    {
      "channel": 0,
      "note": 50,
      "start": 8.411,
      "duration": 0.012,
      "velocity": 104,
      "chip": "ym2612"
    },
    {
      "channel": 3,
      "note": 81,
      "start": 8.4145,
      "duration": 0.0414,
      "velocity": 87,
      "chip": "ym2612"
    },
    {
      "channel": 0,
      "note": 49,
      "start": 8.4713,
      "duration": 0.0129,
      "velocity": 104,
      "chip": "ym2612"
    },
    {
      "channel": 3,
      "note": 81,
      "start": 8.4752,
      "duration": 0.0336,
      "velocity": 87,
      "chip": "ym2612"
    },
    {
      "channel": 0,
      "note": 47,
      "start": 8.5122,
      "duration": 0.0095,
      "velocity": 104,
      "chip": "ym2612"
    },
    {
      "channel": 0,
      "note": 49,
      "start": 8.5718,
      "duration": 18.1571,
      "velocity": 104,
      "chip": "ym2612"
    },
    {
      "channel": 1,
      "note": 73,
      "start": 8.5741,
      "duration": 18.1547,
      "velocity": 98,
      "chip": "ym2612"
    },
    {
      "channel": 2,
      "note": 70,
      "start": 8.5766,
      "duration": 18.1523,
      "velocity": 98,
      "chip": "ym2612"
    },
    {
      "channel": 4,
      "note": 67,
      "start": 8.5801,
      "duration": 18.1488,
      "velocity": 98,
      "chip": "ym2612"
    }
  ]
}