{
  "track_name": "22 - Mega Man 2- Woodman Stage",
  "duration_sec": 39.835,
  "sample_rate": 44100,
  "note_count": 1075,
  "unique_pitches": 41,
  "pitch_range": 74,
  "avg_note_duration": 0.1883,
  "reconstruction_stats": {
    "notes_reconstructed": 1075,
    "keyon_events": 1075,
    "keyoff_events": 1071,
    "orphan_keyons": 4,
    "unique_pitches": 41,
    "pitch_range": 74,
    "avg_duration_sec": 0.1883
  },
  "metadata": {
    "source": "M\\Mega Man - The Wily Wars\\22 - Mega Man 2- Woodman Stage.vgm"
  },
  "notes": [
    {
      "channel": 1,
      "note": 58,
      "start": 0.0,
      "duration": 0.0,
      "velocity": 1,
      "chip": "ym2612"
    },
    {
      "channel": 5,
      "note": 32,
      "start": 0.0,
      "duration": 0.0,
      "velocity": 1,
      "chip": "ym2612"
    },
    {
      "channel": 5,
      "note": 32,
      "start": 0.0,
      "duration": 0.1886,
      "velocity": 114,
      "chip": "ym2612"
    },
    {
      "channel": 5,
      "note": 75,
      "start": 0.3084,
      "duration": 0.3464,
      "velocity": 120,
      "chip": "ym2612"
    },
    {
      "channel": 5,
      "note": 32,
      "start": 0.6585,
      "duration": 0.163,
      "velocity": 114,
      "chip": "ym2612"
    },
    {
      "channel": 5,
      "note": 32,
      "start": 0.8252,
      "duration": 0.1629,
      "velocity": 114,
      "chip": "ym2612"
    },
    {
      "channel": 5,
      "note": 75,
      "start": 0.9917,
      "duration": 0.1797,
      "velocity": 120,
      "chip": "ym2612"
    },
    {
      "channel": 5,
      "note": 32,
      "start": 1.1751,
      "duration": 0.2145,
      "velocity": 114,
      "chip": "ym2612"
    },
    {
      "channel": 5,
      "note": 32,
      "start": 1.51,
      "duration": 0.1781,
      "velocity": 114,
      "chip": "ym2612"
    },
    {
      "channel": 5,
      "note": 75,
      "start": 1.693,
      "duration": 0.1618,
      "velocity": 120,
      "chip": "ym2612"
    },
    {
      "channel": 5,
      "note": 32,
      "start": 1.8598,
      "duration": 0.1617,
      "velocity": 114,
      "chip": "ym2612"
    },
    {
      "channel": 5,
      "note": 32,
      "start": 2.0265,
      "duration": 0.2302,
      "velocity": 114,
      "chip": "ym2612"
    },
    {
      "channel": 5,
      "note": 75,
      "start": 2.3763,
      "duration": 0.3284,
      "velocity": 120,
      "chip": "ym2612"
    },
    {
      "channel": 5,
      "note": 32,
      "start": 2.7106,
      "duration": 0.2294,
      "velocity": 114,
      "chip": "ym2612"
    },
    {
      "channel": 5,
      "note": 75,
      "start": 3.0597,
      "duration": 0.3451,
      "velocity": 120,
      "chip": "ym2612"
    },
    {
      "channel": 5,
      "note": 32,
      "start": 3.4098,
      "duration": 0.1617,
      "velocity": 114,
      "chip": "ym2612"
    },
    {
      "channel": 5,
      "note": 32,
      "start": 3.5765,
      "duration": 0.1617,
      "velocity": 114,
      "chip": "ym2612"
    },
    {
      "channel": 5,
      "note": 75,
      "start": 3.743,
      "duration": 0.3451,
      "velocity": 120,
      "chip": "ym2612"
    },
    {
      "channel": 0,
      "note": 106,
      "start": 4.0914,
      "duration": 0.0826,
      "velocity": 100,
      "chip": "ym2612"
    },
    {
      "channel": 2,
      "note": 101,
      "start": 4.0928,
      "duration": 0.0824,
      "velocity": 100,
      "chip": "ym2612"
    },
    {
      "channel": 5,
      "note": 75,
      "start": 4.0942,
      "duration": 0.0772,
      "velocity": 120,
      "chip": "ym2612"
    },
    {
      "channel": 0,
      "note": 105,
      "start": 4.1748,
      "duration": 0.0826,
      "velocity": 100,
      "chip": "ym2612"
    },
    {
      "channel": 2,
      "note": 100,
      "start": 4.1759,
      "duration": 0.0826,
      "velocity": 100,
      "chip": "ym2612"
    },
    {
      "channel": 3,
      "note": 106,
      "start": 4.1772,
      "duration": 0.0822,
      "velocity": 100,
      "chip": "ym2612"
    },
    {
      "channel": 5,
      "note": 75,
      "start": 4.1783,
      "duration": 0.0765,
      "velocity": 120,
      "chip": "ym2612"
    },
    {
      "channel": 0,
      "note": 104,
      "start": 4.2581,
      "duration": 0.0826,
      "velocity": 100,
      "chip": "ym2612"
    },
    {
      "channel": 2,
      "note": 99,
      "start": 4.2592,
      "duration": 0.0826,
      "velocity": 100,
      "chip": "ym2612"
    },
    {
      "channel": 3,
      "note": 105,
      "start": 4.2601,
      "duration": 0.0826,
      "velocity": 100,
      "chip": "ym2612"
    },
    {
      "channel": 4,
      "note": 106,
      "start": 4.2609,
      "duration": 0.0826,
      "velocity": 100,
      "chip": "ym2612"
    },
    {
      "channel": 5,
      "note": 75,
      "start": 4.2617,
      "duration": 0.0765,
      "velocity": 120,
      "chip": "ym2612"
    },
    {
      "channel": 0,
      "note": 103,
      "start": 4.3414,
      "duration": 0.0993,
      "velocity": 100,
      "chip": "ym2612"
    },
    {
      "channel": 2,
      "note": 98,
      "start": 4.3426,
      "duration": 0.0993,
      "velocity": 100,
      "chip": "ym2612"
    },
    {
      "channel": 3,
      "note": 104,
      "start": 4.3434,
      "duration": 0.0993,
      "velocity": 100,
      "chip": "ym2612"
    },
    {
      "channel": 4,
      "note": 105,
      "start": 4.3442,
      "duration": 0.0993,
      "velocity": 100,
      "chip": "ym2612"
    },
    {
      "channel": 5,
      "note": 75,
      "start": 4.3449,
      "duration": 0.0932,
      "velocity": 120,
      "chip": "ym2612"
    },
    {
      "channel": 0,
      "note": 102,
      "start": 4.4414,
      "duration": 0.0826,
      "velocity": 100,
      "chip": "ym2612"
    },
    {
      "channel": 2,
      "note": 97,
      "start": 4.4426,
      "duration": 0.0826,
      "velocity": 100,
      "chip": "ym2612"
    },
    {
      "channel": 3,
      "note": 103,
      "start": 4.4434,
      "duration": 0.0826,
      "velocity": 100,
      "chip": "ym2612"
    },
    {
      "channel": 4,
      "note": 104,
      "start": 4.4442,
      "duration": 0.0826,
      "velocity": 100,
      "chip": "ym2612"
    },
    {
      "channel": 5,
      "note": 75,
      "start": 4.4449,
      "duration": 0.0765,
      "velocity": 120,
      "chip": "ym2612"
    },
    {
      "channel": 0,
      "note": 101,
      "start": 4.5248,
      "duration": 0.0827,
      "velocity": 100,
      "chip": "ym2612"
    },
    {
      "channel": 2,
      "note": 96,
      "start": 4.5259,
      "duration": 0.0827,
      "velocity": 100,
      "chip": "ym2612"
    },
    {
      "channel": 3,
      "note": 102,
      "start": 4.5267,
      "duration": 0.0827,
      "velocity": 100,
      "chip": "ym2612"
    },
    {
      "channel": 4,
      "note": 103,
      "start": 4.5276,
      "duration": 0.0827,
      "velocity": 100,
      "chip": "ym2612"
    },
    {
      "channel": 5,
      "note": 75,
      "start": 4.5283,
      "duration": 0.0766,
      "velocity": 120,
      "chip": "ym2612"
    },
    {
      "channel": 0,
      "note": 100,
      "start": 4.6081,
      "duration": 0.0826,
      "velocity": 100,
      "chip": "ym2612"
    },
    {
      "channel": 2,
      "note": 95,
      "start": 4.6092,
      "duration": 0.0826,
      "velocity": 100,
      "chip": "ym2612"
    },
    {
      "channel": 3,
      "note": 101,
      "start": 4.6101,
      "duration": 0.0826,
      "velocity": 100,
      "chip": "ym2612"
    },
    {
      "channel": 4,
      "note": 102,
      "start": 4.611,
      "duration": 0.0826,
      "velocity": 100,
      "chip": "ym2612"
    },
    {
      "channel": 5,
      "note": 75,
      "start": 4.6117,
      "duration": 0.0765,
      "velocity": 120,
      "chip": "ym2612"
    },
    {
      "channel": 0,
      "note": 99,
      "start": 4.6914,
      "duration": 0.0826,
      "velocity": 100,
      "chip": "ym2612"
    },
    {
      "channel": 2,
      "note": 94,
      "start": 4.6926,
      "duration": 0.0826,
      "velocity": 100,
      "chip": "ym2612"
    },
    {
      "channel": 3,
      "note": 100,
      "start": 4.6934,
      "duration": 0.0826,
      "velocity": 100,
      "chip": "ym2612"
    },
    {
      "channel": 4,
      "note": 101,
      "start": 4.6942,
      "duration": 0.0826,
      "velocity": 100,
      "chip": "ym2612"
    },
    {
      "channel": 5,
      "note": 75,
      "start": 4.6949,
      "duration": 0.0765,
      "velocity": 120,
      "chip": "ym2612"
    },
    {
      "channel": 0,
      "note": 98,
      "start": 4.7748,
      "duration": 0.0826,
      "velocity": 100,
      "chip": "ym2612"
    },
    {
      "channel": 2,
      "note": 93,
      "start": 4.7759,
      "duration": 0.0826,
      "velocity": 100,
      "chip": "ym2612"
    },
    {
      "channel": 3,
      "note": 99,
      "start": 4.7767,
      "duration": 0.0826,
      "velocity": 100,
      "chip": "ym2612"
    },
    {
      "channel": 4,
      "note": 100,
      "start": 4.7776,
      "duration": 0.0826,
      "velocity": 100,
      "chip": "ym2612"
    },
    {
      "channel": 5,
      "note": 75,
      "start": 4.7783,
      "duration": 0.0765,
      "velocity": 120,
      "chip": "ym2612"
    },
    {
      "channel": 0,
      "note": 97,
      "start": 4.8581,
      "duration": 0.0826,
      "velocity": 100,
      "chip": "ym2612"
    },
    {
      "channel": 2,
      "note": 92,
      "start": 4.8592,
      "duration": 0.0826,
      "velocity": 100,
      "chip": "ym2612"
    },
    {
      "channel": 3,
      "note": 98,
      "start": 4.8601,
      "duration": 0.0826,
      "velocity": 100,
      "chip": "ym2612"
    },
    {
      "channel": 4,
      "note": 99,
      "start": 4.8609,
      "duration": 0.0826,
      "velocity": 100,
      "chip": "ym2612"
    },
    {
      "channel": 5,
      "note": 75,
      "start": 4.8616,
      "duration": 0.0765,
      "velocity": 120,
      "chip": "ym2612"
    },
    {
      "channel": 0,
      "note": 96,
      "start": 4.9414,
      "duration": 0.0993,
      "velocity": 100,
      "chip": "ym2612"
    },
    {
      "channel": 2,
      "note": 91,
      "start": 4.9426,
      "duration": 0.0993,
      "velocity": 100,
      "chip": "ym2612"
    },
    {
      "channel": 3,
      "note": 97,
      "start": 4.9434,
      "duration": 0.0993,
      "velocity": 100,
      "chip": "ym2612"
    },
    {
      "channel": 4,
      "note": 98,
      "start": 4.9442,
      "duration": 0.0993,
      "velocity": 100,
      "chip": "ym2612"
    },
    {
      "channel": 5,
      "note": 75,
      "start": 4.9449,
      "duration": 0.0932,
      "velocity": 120,
      "chip": "ym2612"
    },
    {
      "channel": 0,
      "note": 95,
      "start": 5.0414,
      "duration": 0.0826,
      "velocity": 100,
      "chip": "ym2612"
    },
    {
      "channel": 2,
      "note": 90,
      "start": 5.0426,
      "duration": 0.0826,
      "velocity": 100,
      "chip": "ym2612"
    },
    {
      "channel": 3,
      "note": 96,
      "start": 5.0434,
      "duration": 0.0826,
      "velocity": 100,
      "chip": "ym2612"
    },
    {
      "channel": 4,
      "note": 97,
      "start": 5.0442,
      "duration": 0.0826,
      "velocity": 100,
      "chip": "ym2612"
    },
    {
      "channel": 5,
      "note": 75,
      "start": 5.0449,
      "duration": 0.0765,
      "velocity": 120,
      "chip": "ym2612"
    },
    {
      "channel": 0,
      "note": 94,
      "start": 5.1248,
      "duration": 0.0827,
      "velocity": 100,
      "chip": "ym2612"
    },
    {
      "channel": 2,
      "note": 89,
      "start": 5.1259,
      "duration": 0.0827,
      "velocity": 100,
      "chip": "ym2612"
    },
    {
      "channel": 3,
      "note": 95,
      "start": 5.1267,
      "duration": 0.0827,
      "velocity": 100,
      "chip": "ym2612"
    },
    {
      "channel": 4,
      "note": 96,
      "start": 5.1276,
      "duration": 0.0827,
      "velocity": 100,
      "chip": "ym2612"
    },
    {
      "channel": 5,
      "note": 75,
      "start": 5.1283,
      "duration": 0.0766,
      "velocity": 120,
      "chip": "ym2612"
    },
    {
      "channel": 0,
      "note": 93,
      "start": 5.2081,
      "duration": 0.0826,
      "velocity": 100,
      "chip": "ym2612"
    },
    {
      "channel": 2,
      "note": 88,
      "start": 5.2092,
      "duration": 0.0826,
      "velocity": 100,
      "chip": "ym2612"
    },
    {
      "channel": 3,
      "note": 94,
      "start": 5.2101,
      "duration": 0.0826,
      "velocity": 100,
      "chip": "ym2612"
    },
    {
      "channel": 4,
      "note": 95,
      "start": 5.211,
      "duration": 0.0826,
      "velocity": 100,
      "chip": "ym2612"
    },
    {
      "channel": 5,
      "note": 75,
      "start": 5.2117,
      "duration": 0.0765,
      "velocity": 120,
      "chip": "ym2612"
    },
    {
      "channel": 0,
      "note": 92,
      "start": 5.2914,
      "duration": 0.0826,
      "velocity": 100,
      "chip": "ym2612"
    },
    {
      "channel": 2,
      "note": 87,
      "start": 5.2925,
      "duration": 0.0827,
      "velocity": 100,
      "chip": "ym2612"
    },
    {
      "channel": 3,
      "note": 93,
      "start": 5.2934,
      "duration": 0.0826,
      "velocity": 100,
      "chip": "ym2612"
    },
    {
      "channel": 4,
      "note": 94,
      "start": 5.2942,
      "duration": 0.0826,
      "velocity": 100,
      "chip": "ym2612"
    },
    {
      "channel": 5,
      "note": 75,
      "start": 5.2949,
      "duration": 0.0765,
      "velocity": 120,
      "chip": "ym2612"
    },
    {
      "channel": 0,
      "note": 91,
      "start": 5.3748,
      "duration": 0.0852,
      "velocity": 106,
      "chip": "ym2612"
    },
    {
      "channel": 2,
      "note": 86,
      "start": 5.3758,
      "duration": 0.0883,
      "velocity": 106,
      "chip": "ym2612"
    },
    {
      "channel": 3,
      "note": 92,
      "start": 5.3767,
      "duration": 0.0912,
      "velocity": 106,
      "chip": "ym2612"
    },
    {
      "channel": 4,
      "note": 93,
      "start": 5.3776,
      "duration": 0.0911,
      "velocity": 100,
      "chip": "ym2612"
    },
    {
      "channel": 5,
      "note": 75,
      "start": 5.3783,
      "duration": 0.0765,
      "velocity": 120,
      "chip": "ym2612"
    },
    {
      "channel": 0,
      "note": 92,
      "start": 5.4606,
      "duration": 0.1779,
      "velocity": 106,
      "chip": "ym2612"
    },
    {
      "channel": 1,
      "note": 61,
      "start": 5.4614,
      "duration": 0.3471,
      "velocity": 101,
      "chip": "ym2612"
    },
    {
      "channel": 2,
      "note": 89,
      "start": 5.4648,
      "duration": 0.1751,
      "velocity": 106,
      "chip": "ym2612"
    },
    {
      "channel": 3,
      "note": 73,
      "start": 5.4685,
      "duration": 0.1724,
      "velocity": 106,
      "chip": "ym2612"
    },
    {
      "channel": 4,
      "note": 92,
      "start": 5.4693,
      "duration": 0.0869,
      "velocity": 100,
      "chip": "ym2612"
    },
    {
      "channel": 5,
      "note": 75,
      "start": 5.47,
      "duration": 0.3348,
      "velocity": 120,
      "chip": "ym2612"
    },
    {
      "channel": 4,
      "note": 91,
      "start": 5.5569,
      "duration": 0.0874,
      "velocity": 106,
      "chip": "ym2612"
    },
    {
      "channel": 0,
      "note": 92,
      "start": 5.6391,
      "duration": 0.1687,
      "velocity": 106,
      "chip": "ym2612"
    },
    {
      "channel": 2,
      "note": 89,
      "start": 5.6404,
      "duration": 0.169,
      "velocity": 106,
      "chip": "ym2612"
    },
    {
      "channel": 3,
      "note": 73,
      "start": 5.6414,
      "duration": 0.169,
      "velocity": 106,
      "chip": "ym2612"
    },
    {
      "channel": 4,
      "note": 92,
      "start": 5.645,
      "duration": 0.1665,
      "velocity": 106,
      "chip": "ym2612"
    },
    {
      "channel": 0,
      "note": 92,
      "start": 5.8083,
      "duration": 0.1636,
      "velocity": 106,
      "chip": "ym2612"
    },
    {
      "channel": 1,
      "note": 61,
      "start": 5.8088,
      "duration": 0.3489,
      "velocity": 101,
      "chip": "ym2612"
    },
    {
      "channel": 2,
      "note": 89,
      "start": 5.8099,
      "duration": 0.1634,
      "velocity": 106,
      "chip": "ym2612"
    },
    {
      "channel": 3,
      "note": 73,
      "start": 5.8109,
      "duration": 0.1634,
      "velocity": 106,
      "chip": "ym2612"
    },
    {
      "channel": 4,
      "note": 92,
      "start": 5.8119,
      "duration": 0.1634,
      "velocity": 106,
      "chip": "ym2612"
    },
    {
      "channel": 5,
      "note": 75,
      "start": 5.8127,
      "duration": 0.3421,
      "velocity": 120,
      "chip": "ym2612"
    },
    {
      "channel": 0,
      "note": 92,
      "start": 5.9724,
      "duration": 0.185,
      "velocity": 106,
      "chip": "ym2612"
    },
    {
      "channel": 2,
      "note": 89,
      "start": 5.9737,
      "duration": 0.1843,
      "velocity": 106,
      "chip": "ym2612"
    },
    {
      "channel": 3,
      "note": 73,
      "start": 5.9748,
      "duration": 0.1837,
      "velocity": 106,
      "chip": "ym2612"
    },
    {
      "channel": 4,
      "note": 92,
      "start": 5.9758,
      "duration": 0.1833,
      "velocity": 106,
      "chip": "ym2612"
    },
    {
      "channel": 4,
      "note": 92,
      "start": 6.1596,
      "duration": 0.1682,
      "velocity": 106,
      "chip": "ym2612"
    },
    {
      "channel": 5,
      "note": 32,
      "start": 6.1604,
      "duration": 0.161,
      "velocity": 114,
      "chip": "ym2612"
    },
    {
      "channel": 0,
      "note": 92,
      "start": 6.3249,
      "duration": 0.1662,
      "velocity": 106,
      "chip": "ym2612"
    },
    {
      "channel": 1,
      "note": 61,
      "start": 6.3256,
      "duration": 0.1661,
      "velocity": 101,
      "chip": "ym2612"
    },
    {
      "channel": 2,
      "note": 89,
      "start": 6.3267,
      "duration": 0.1658,
      "velocity": 106,
      "chip": "ym2612"
    },
    {
      "channel": 3,
      "note": 73,
      "start": 6.3277,
      "duration": 0.1658,
      "velocity": 106,
      "chip": "ym2612"
    },
    {
      "channel": 5,
      "note": 75,
      "start": 6.3287,
      "duration": 0.0761,
      "velocity": 120,
      "chip": "ym2612"
    },
    {
      "channel": 5,
      "note": 75,
      "start": 6.4095,
      "duration": 0.0786,
      "velocity": 120,
      "chip": "ym2612"
    },
    {
      "channel": 0,
      "note": 92,
      "start": 6.4916,
      "duration": 0.1828,
      "velocity": 106,
      "chip": "ym2612"
    },
    {
      "channel": 2,
      "note": 89,
      "start": 6.4929,
      "duration": 0.1832,
      "velocity": 106,
      "chip": "ym2612"
    },
    {
      "channel": 3,
      "note": 73,
      "start": 6.494,
      "duration": 0.1832,
      "velocity": 106,
      "chip": "ym2612"
    },
    {
      "channel": 4,
      "note": 92,
      "start": 6.495,
      "duration": 0.1833,
      "velocity": 106,
      "chip": "ym2612"
    },
    {
      "channel": 5,
      "note": 75,
      "start": 6.4957,
      "duration": 0.1757,
      "velocity": 120,
      "chip": "ym2612"
    },
    {
      "channel": 0,
      "note": 92,
      "start": 6.6749,
      "duration": 0.1684,
      "velocity": 111,
      "chip": "ym2612"
    },
    {
      "channel": 1,
      "note": 61,
      "start": 6.6756,
      "duration": 0.1685,
      "velocity": 101,
      "chip": "ym2612"
    },
    {
      "channel": 2,
      "note": 89,
      "start": 6.6767,
      "duration": 0.1708,
      "velocity": 111,
      "chip": "ym2612"
    },
    {
      "channel": 3,
      "note": 73,
      "start": 6.6777,
      "duration": 0.1729,
      "velocity": 108,
      "chip": "ym2612"
    },
    {
      "channel": 4,
      "note": 92,
      "start": 6.6787,
      "duration": 0.1732,
      "velocity": 106,
      "chip": "ym2612"
    },
    {
      "channel": 5,
      "note": 75,
      "start": 6.6795,
      "duration": 0.1587,
      "velocity": 120,
      "chip": "ym2612"
    },
    {
      "channel": 0,
      "note": 90,
      "start": 6.844,
      "duration": 0.6801,
      "velocity": 111,
      "chip": "ym2612"
    },
    {
      "channel": 1,
      "note": 63,
      "start": 6.8447,
      "duration": 0.163,
      "velocity": 101,
      "chip": "ym2612"
    },
    {
      "channel": 2,
      "note": 87,
      "start": 6.8481,
      "duration": 0.6772,
      "velocity": 111,
      "chip": "ym2612"
    },
    {
      "channel": 3,
      "note": 63,
      "start": 6.8513,
      "duration": 0.1573,
      "velocity": 108,
      "chip": "ym2612"
    },
    {
      "channel": 4,
      "note": 92,
      "start": 6.8524,
      "duration": 0.1599,
      "velocity": 111,
      "chip": "ym2612"
    },
    {
      "channel": 5,
      "note": 32,
      "start": 6.8532,
      "duration": 0.1517,
      "velocity": 114,
      "chip": "ym2612"
    },
    {
      "channel": 1,
      "note": 63,
      "start": 7.0081,
      "duration": 0.1663,
      "velocity": 101,
      "chip": "ym2612"
    },
    {
      "channel": 3,
      "note": 70,
      "start": 7.0094,
      "duration": 0.0798,
      "velocity": 108,
      "chip": "ym2612"
    },
    {
      "channel": 4,
      "note": 90,
      "start": 7.0129,
      "duration": 0.6782,
      "velocity": 111,
      "chip": "ym2612"
    },
    {
      "channel": 5,
      "note": 32,
      "start": 7.0137,
      "duration": 0.1578,
      "velocity": 114,
      "chip": "ym2612"
    },
    {
      "channel": 3,
      "note": 70,
      "start": 7.0897,
      "duration": 0.183,
      "velocity": 108,
      "chip": "ym2612"
    },
    {
      "channel": 1,
      "note": 63,
      "start": 7.1749,
      "duration": 0.1803,
      "velocity": 101,
      "chip": "ym2612"
    },
    {
      "channel": 5,
      "note": 75,
      "start": 7.1768,
      "duration": 0.3447,
      "velocity": 120,
      "chip": "ym2612"
    },
    {
      "channel": 3,
      "note": 63,
      "start": 7.2734,
      "duration": 0.0829,
      "velocity": 108,
      "chip": "ym2612"
    },
    {
      "channel": 1,
      "note": 63,
      "start": 7.3557,
      "duration": 0.169,
      "velocity": 101,
      "chip": "ym2612"
    },
    {
      "channel": 3,
      "note": 66,
      "start": 7.3569,
      "duration": 0.0824,
      "velocity": 108,
      "chip": "ym2612"
    },
    {
      "channel": 3,
      "note": 66,
      "start": 7.4401,
      "duration": 0.0859,
      "velocity": 108,
      "chip": "ym2612"
    },
    {
      "channel": 0,
      "note": 90,
      "start": 7.5246,
      "duration": 0.1636,
      "velocity": 111,
      "chip": "ym2612"
    },
    {
      "channel": 1,
      "note": 63,
      "start": 7.5251,
      "duration": 0.1639,
      "velocity": 101,
      "chip": "ym2612"
    },
    {
      "channel": 2,
      "note": 87,
      "start": 7.5258,
      "duration": 0.1638,
      "velocity": 111,
      "chip": "ym2612"
    },
    {
      "channel": 3,
      "note": 63,
      "start": 7.5267,
      "duration": 0.1637,
      "velocity": 108,
      "chip": "ym2612"
    },
    {
      "channel": 5,
      "note": 32,
      "start": 7.5279,
      "duration": 0.2287,
      "velocity": 114,
      "chip": "ym2612"
    },
    {
      "channel": 0,
      "note": 89,
      "start": 7.6888,
      "duration": 0.1852,
      "velocity": 111,
      "chip": "ym2612"
    },
    {
      "channel": 1,
      "note": 63,
      "start": 7.6894,
      "duration": 0.185,
      "velocity": 101,
      "chip": "ym2612"
    },
    {
      "channel": 2,
      "note": 85,
      "start": 7.6902,
      "duration": 0.1847,
      "velocity": 111,
      "chip": "ym2612"
    },
    {
      "channel": 3,
      "note": 70,
      "start": 7.691,
      "duration": 0.0981,
      "velocity": 108,
      "chip": "ym2612"
    },
    {
      "channel": 4,
      "note": 90,
      "start": 7.6917,
      "duration": 0.184,
      "velocity": 111,
      "chip": "ym2612"
    },
    {
      "channel": 3,
      "note": 70,
      "start": 7.7897,
      "duration": 0.1656,
      "velocity": 108,
      "chip": "ym2612"
    },
    {
      "channel": 1,
      "note": 63,
      "start": 7.8748,
      "duration": 0.1642,
      "velocity": 101,
      "chip": "ym2612"
    },
    {
      "channel": 4,
      "note": 89,
      "start": 7.8763,
      "duration": 0.1649,
      "velocity": 111,
      "chip": "ym2612"
    },
    {
      "channel": 5,
      "note": 75,
      "start": 7.8771,
      "duration": 0.3277,
      "velocity": 120,
      "chip": "ym2612"
    },
    {
      "channel": 3,
      "note": 63,
      "start": 7.956,
      "duration": 0.0844,
      "velocity": 108,
      "chip": "ym2612"
    },
    {
      "channel": 0,
      "note": 90,
      "start": 8.0388,
      "duration": 0.3494,
      "velocity": 111,
      "chip": "ym2612"
    },
    {
      "channel": 1,
      "note": 63,
      "start": 8.0394,
      "duration": 0.3496,
      "velocity": 101,
      "chip": "ym2612"
    },
    {
      "channel": 2,
      "note": 87,
      "start": 8.0402,
      "duration": 0.3494,
      "velocity": 111,
      "chip": "ym2612"
    },
    {
      "channel": 3,
      "note": 66,
      "start": 8.041,
      "duration": 0.0815,
      "velocity": 108,
      "chip": "ym2612"
    },
    {
      "channel": 3,
      "note": 66,
      "start": 8.1232,
      "duration": 0.0854,
      "velocity": 108,
      "chip": "ym2612"
    },
    {
      "channel": 3,
      "note": 63,
      "start": 8.2092,
      "duration": 0.1812,
      "velocity": 108,
      "chip": "ym2612"
    },
    {
      "channel": 4,
      "note": 90,
      "start": 8.21,
      "duration": 0.349,
      "velocity": 111,
      "chip": "ym2612"
    },
    {
      "channel": 5,
      "note": 32,
      "start": 8.2108,
      "duration": 0.2291,
      "velocity": 114,
      "chip": "ym2612"
    },
    {
      "channel": 0,
      "note": 87,
      "start": 8.3888,
      "duration": 0.1686,
      "velocity": 111,
      "chip": "ym2612"
    },
    {
      "channel": 1,
      "note": 63,
      "start": 8.3894,
      "duration": 0.1683,
      "velocity": 101,
      "chip": "ym2612"
    },
    {
      "channel": 2,
      "note": 82,
      "start": 8.3902,
      "duration": 0.1681,
      "velocity": 111,
      "chip": "ym2612"
    },
    {
      "channel": 3,
      "note": 70,
      "start": 8.391,
      "duration": 0.0815,
      "velocity": 108,
      "chip": "ym2612"
    },
    {
      "channel": 3,
      "note": 70,
      "start": 8.473,
      "duration": 0.1656,
      "velocity": 108,
      "chip": "ym2612"
    },
    {
      "channel": 1,
      "note": 63,
      "start": 8.5581,
      "duration": 0.1642,
      "velocity": 101,
      "chip": "ym2612"
    },
    {
      "channel": 4,
      "note": 87,
      "start": 8.5596,
      "duration": 0.1649,
      "velocity": 111,
      "chip": "ym2612"
    },
    {
      "channel": 5,
      "note": 75,
      "start": 8.5604,
      "duration": 0.3444,
      "velocity": 120,
      "chip": "ym2612"
    },
    {
      "channel": 3,
      "note": 63,
      "start": 8.6393,
      "duration": 0.0844,
      "velocity": 108,
      "chip": "ym2612"
    },
    {
      "channel": 0,
      "note": 87,
      "start": 8.7222,
      "duration": 0.1852,
      "velocity": 111,
      "chip": "ym2612"
    },
    {
      "channel": 1,
      "note": 63,
      "start": 8.7227,
      "duration": 0.1855,
      "velocity": 101,
      "chip": "ym2612"
    },
    {
      "channel": 2,
      "note": 82,
      "start": 8.7235,
      "duration": 0.1852,
      "velocity": 111,
      "chip": "ym2612"
    },
    {
      "channel": 3,
      "note": 66,
      "start": 8.7244,
      "duration": 0.0815,
      "velocity": 108,
      "chip": "ym2612"
    },
    {
      "channel": 3,
      "note": 66,
      "start": 8.8065,
      "duration": 0.1032,
      "velocity": 108,
      "chip": "ym2612"
    },
    {
      "channel": 0,
      "note": 90,
      "start": 8.9081,
      "duration": 0.3326,
      "velocity": 111,
      "chip": "ym2612"
    },
    {
      "channel": 1,
      "note": 63,
      "start": 8.9086,
      "duration": 0.1659,
      "velocity": 101,
      "chip": "ym2612"
    },
    {
      "channel": 2,
      "note": 87,
      "start": 8.9094,
      "duration": 0.3327,
      "velocity": 111,
      "chip": "ym2612"
    },
    {
      "channel": 3,
      "note": 63,
      "start": 8.9103,
      "duration": 0.165,
      "velocity": 108,
      "chip": "ym2612"
    },
    {
      "channel": 4,
      "note": 87,
      "start": 8.9111,
      "duration": 0.165,
      "velocity": 111,
      "chip": "ym2612"
    },
    {
      "channel": 5,
      "note": 32,
      "start": 8.912,
      "duration": 0.1595,
      "velocity": 114,
      "chip": "ym2612"
    },
    {
      "channel": 1,
      "note": 63,
      "start": 9.0748,
      "duration": 0.1667,
      "velocity": 101,
      "chip": "ym2612"
    },
    {
      "channel": 3,
      "note": 70,
      "start": 9.076,
      "duration": 0.0798,
      "velocity": 108,
      "chip": "ym2612"
    },
    {
      "channel": 4,
      "note": 90,
      "start": 9.0768,
      "duration": 0.33,
      "velocity": 111,
      "chip": "ym2612"
    },
    {
      "channel": 5,
      "note": 32,
      "start": 9.0776,
      "duration": 0.1605,
      "velocity": 114,
      "chip": "ym2612"
    },
    {
      "channel": 3,
      "note": 70,
      "start": 9.1564,
      "duration": 0.1661,
      "velocity": 108,
      "chip": "ym2612"
    },
    {
      "channel": 0,
      "note": 94,
      "start": 9.2414,
      "duration": 0.3493,
      "velocity": 111,
      "chip": "ym2612"
    },
    {
      "channel": 1,
      "note": 63,
      "start": 9.242,
      "duration": 0.1632,
      "velocity": 101,
      "chip": "ym2612"
    },
    {
      "channel": 2,
      "note": 90,
      "start": 9.2428,
      "duration": 0.3495,
      "velocity": 111,
      "chip": "ym2612"
    },
    {
      "channel": 5,
      "note": 75,
      "start": 9.2442,
      "duration": 0.3439,
      "velocity": 120,
      "chip": "ym2612"
    },
    {
      "channel": 3,
      "note": 63,
      "start": 9.3232,
      "duration": 0.083,
      "velocity": 108,
      "chip": "ym2612"
    },
    {
      "channel": 1,
      "note": 63,
      "start": 9.4056,
      "duration": 0.1859,
      "velocity": 101,
      "chip": "ym2612"
    },
    {
      "channel": 3,
      "note": 66,
      "start": 9.4068,
      "duration": 0.0991,
      "velocity": 108,
      "chip": "ym2612"
    },
    {
      "channel": 4,
      "note": 94,
      "start": 9.4076,
      "duration": 0.3519,
      "velocity": 111,
      "chip": "ym2612"
    },
    {
      "channel": 3,
      "note": 66,
      "start": 9.5065,
      "duration": 0.0867,
      "velocity": 108,
      "chip": "ym2612"
    },
    {
      "channel": 0,
      "note": 92,
      "start": 9.5914,
      "duration": 0.6826,
      "velocity": 111,
      "chip": "ym2612"
    },
    {
      "channel": 1,
      "note": 64,
      "start": 9.5921,
      "duration": 0.1657,
      "velocity": 101,
      "chip": "ym2612"
    },
    {
      "channel": 2,
      "note": 88,
      "start": 9.5929,
      "duration": 0.6823,
      "velocity": 111,
      "chip": "ym2612"
    },
    {
      "channel": 3,
      "note": 59,
      "start": 9.5938,
      "duration": 0.1648,
      "velocity": 108,
      "chip": "ym2612"
    },
    {
      "channel": 5,
      "note": 32,
      "start": 9.595,
      "duration": 0.1598,
      "velocity": 114,
      "chip": "ym2612"
    },
    {
      "channel": 1,
      "note": 64,
      "start": 9.7581,
      "duration": 0.1663,
      "velocity": 101,
      "chip": "ym2612"
    },
    {
      "channel": 3,
      "note": 68,
      "start": 9.7593,
      "duration": 0.0799,
      "velocity": 108,
      "chip": "ym2612"
    },
    {
      "channel": 4,
      "note": 92,
      "start": 9.7602,
      "duration": 0.68,
      "velocity": 111,
      "chip": "ym2612"
    },
    {
      "channel": 5,
      "note": 32,
      "start": 9.761,
      "duration": 0.1605,
      "velocity": 114,
      "chip": "ym2612"
    },
    {
      "channel": 3,
      "note": 68,
      "start": 9.8397,
      "duration": 0.183,
      "velocity": 108,
      "chip": "ym2612"
    },
    {
      "channel": 1,
      "note": 64,
      "start": 9.9249,
      "duration": 0.1803,
      "velocity": 101,
      "chip": "ym2612"
    },
    {
      "channel": 5,
      "note": 75,
      "start": 9.9268,
      "duration": 0.3447,
      "velocity": 120,
      "chip": "ym2612"
    },
    {
      "channel": 3,
      "note": 59,
      "start": 10.0234,
      "duration": 0.0829,
      "velocity": 108,
      "chip": "ym2612"
    },
    {
      "channel": 1,
      "note": 64,
      "start": 10.1057,
      "duration": 0.169,
      "velocity": 101,
      "chip": "ym2612"
    },
    {
      "channel": 3,
      "note": 64,
      "start": 10.1069,
      "duration": 0.0824,
      "velocity": 108,
      "chip": "ym2612"
    },
    {
      "channel": 3,
      "note": 64,
      "start": 10.1901,
      "duration": 0.0859,
      "velocity": 108,
      "chip": "ym2612"
    },
    {
      "channel": 0,
      "note": 92,
      "start": 10.2746,
      "duration": 0.3495,
      "velocity": 111,
      "chip": "ym2612"
    },
    {
      "channel": 1,
      "note": 64,
      "start": 10.2751,
      "duration": 0.1634,
      "velocity": 101,
      "chip": "ym2612"
    },
    {
      "channel": 2,
      "note": 88,
      "start": 10.2758,
      "duration": 0.3497,
      "velocity": 111,
      "chip": "ym2612"
    },
    {
      "channel": 3,
      "note": 59,
      "start": 10.2767,
      "duration": 0.1627,
      "velocity": 108,
      "chip": "ym2612"
    },
    {
      "channel": 5,
      "note": 32,
      "start": 10.2779,
      "duration": 0.2287,
      "velocity": 114,
      "chip": "ym2612"
    },
    {
      "channel": 1,
      "note": 64,
      "start": 10.4389,
      "duration": 0.1859,
      "velocity": 101,
      "chip": "ym2612"
    },
    {
      "channel": 3,
      "note": 68,
      "start": 10.4401,
      "duration": 0.0824,
      "velocity": 108,
      "chip": "ym2612"
    },
    {
      "channel": 4,
      "note": 92,
      "start": 10.4407,
      "duration": 0.3504,
      "velocity": 111,
      "chip": "ym2612"
    },
    {
      "channel": 3,
      "note": 68,
      "start": 10.523,
      "duration": 0.1828,
      "velocity": 108,
      "chip": "ym2612"
    },
    {
      "channel": 0,
      "note": 90,
      "start": 10.6248,
      "duration": 0.1634,
      "velocity": 111,
      "chip": "ym2612"
    },
    {
      "channel": 1,
      "note": 64,
      "start": 10.6253,
      "duration": 0.1637,
      "velocity": 101,
      "chip": "ym2612"
    },
    {
      "channel": 2,
      "note": 83,
      "start": 10.6261,
      "duration": 0.1635,
      "velocity": 111,
      "chip": "ym2612"
    },
    {
      "channel": 5,
      "note": 75,
      "start": 10.6276,
      "duration": 0.3272,
      "velocity": 120,
      "chip": "ym2612"
    },
    {
      "channel": 3,
      "note": 59,
      "start": 10.7065,
      "duration": 0.0839,
      "velocity": 108,
      "chip": "ym2612"
    },
    {
      "channel": 0,
      "note": 94,
      "start": 10.7889,
      "duration": 0.1685,
      "velocity": 111,
      "chip": "ym2612"
    },
    {
      "channel": 1,
      "note": 64,
      "start": 10.7894,
      "duration": 0.3496,
      "velocity": 101,
      "chip": "ym2612"
    },
    {
      "channel": 2,
      "note": 90,
      "start": 10.7902,
      "duration": 0.1678,
      "velocity": 111,
      "chip": "ym2612"
    },
    {
      "channel": 3,
      "note": 64,
      "start": 10.791,
      "duration": 0.0815,
      "velocity": 108,
      "chip": "ym2612"
    },
    {
      "channel": 4,
      "note": 90,
      "start": 10.7919,
      "duration": 0.1674,
      "velocity": 111,
      "chip": "ym2612"
    },
    {
      "channel": 3,
      "note": 64,
      "start": 10.8732,
      "duration": 0.0853,
      "velocity": 108,
      "chip": "ym2612"
    },
    {
      "channel": 3,
      "note": 59,
      "start": 10.9591,
      "duration": 0.1813,
      "velocity": 108,
      "chip": "ym2612"
    },
    {
      "channel": 4,
      "note": 94,
      "start": 10.96,
      "duration": 0.1812,
      "velocity": 111,
      "chip": "ym2612"
    },
    {
      "channel": 5,
      "note": 32,
      "start": 10.9607,
      "duration": 0.229,
      "velocity": 114,
      "chip": "ym2612"
    },
    {
      "channel": 0,
      "note": 92,
      "start": 11.1388,
      "duration": 0.6852,
      "velocity": 111,
      "chip": "ym2612"
    },
    {
      "channel": 1,
      "note": 64,
      "start": 11.1394,
      "duration": 0.1684,
      "velocity": 101,
      "chip": "ym2612"
    },
    {
      "channel": 2,
      "note": 88,
      "start": 11.1402,
      "duration": 0.6852,
      "velocity": 111,
      "chip": "ym2612"
    },
    {
      "channel": 3,
      "note": 68,
      "start": 11.141,
      "duration": 0.0815,
      "velocity": 108,
      "chip": "ym2612"
    },
    {
      "channel": 3,
      "note": 68,
      "start": 11.223,
      "duration": 0.1661,
      "velocity": 108,
      "chip": "ym2612"
    },
    {
      "channel": 1,
      "note": 64,
      "start": 11.3081,
      "duration": 0.1638,
      "velocity": 101,
      "chip": "ym2612"
    },
    {
      "channel": 4,
      "note": 92,
      "start": 11.3097,
      "duration": 0.6836,
      "velocity": 111,
      "chip": "ym2612"
    },
    {
      "channel": 5,
      "note": 75,
      "start": 11.3104,
      "duration": 0.3277,
      "velocity": 120,
      "chip": "ym2612"
    },
    {
      "channel": 3,
      "note": 59,
      "start": 11.3898,
      "duration": 0.0832,
      "velocity": 108,
      "chip": "ym2612"
    },
    {
      "channel": 1,
      "note": 64,
      "start": 11.4724,
      "duration": 0.1688,
      "velocity": 101,
      "chip": "ym2612"
    },
    {
      "channel": 3,
      "note": 64,
      "start": 11.4736,
      "duration": 0.0824,
      "velocity": 108,
      "chip": "ym2612"
    },
    {
      "channel": 3,
      "note": 64,
      "start": 11.5568,
      "duration": 0.0856,
      "velocity": 108,
      "chip": "ym2612"
    },
    {
      "channel": 1,
      "note": 64,
      "start": 11.6416,
      "duration": 0.1833,
      "velocity": 101,
      "chip": "ym2612"
    },
    {
      "channel": 3,
      "note": 59,
      "start": 11.6429,
      "duration": 0.1833,
      "velocity": 108,
      "chip": "ym2612"
    },
    {
      "channel": 5,
      "note": 32,
      "start": 11.6442,
      "duration": 0.1772,
      "velocity": 114,
      "chip": "ym2612"
    },
    {
      "channel": 0,
      "note": 92,
      "start": 11.8248,
      "duration": 0.166,
      "velocity": 111,
      "chip": "ym2612"
    },
    {
      "channel": 1,
      "note": 64,
      "start": 11.8253,
      "duration": 0.1662,
      "velocity": 101,
      "chip": "ym2612"
    },
    {
      "channel": 2,
      "note": 88,
      "start": 11.8261,
      "duration": 0.166,
      "velocity": 111,
      "chip": "ym2612"
    },
    {
      "channel": 3,
      "note": 68,
      "start": 11.8269,
      "duration": 0.0789,
      "velocity": 108,
      "chip": "ym2612"
    },
    {
      "channel": 5,
      "note": 32,
      "start": 11.8282,
      "duration": 0.1599,
      "velocity": 114,
      "chip": "ym2612"
    },
    {
      "channel": 3,
      "note": 68,
      "start": 11.9064,
      "duration": 0.1661,
      "velocity": 108,
      "chip": "ym2612"
    },
    {
      "channel": 0,
      "note": 90,
      "start": 11.9914,
      "duration": 0.166,
      "velocity": 111,
      "chip": "ym2612"
    },
    {
      "channel": 1,
      "note": 64,
      "start": 11.9919,
      "duration": 0.1663,
      "velocity": 101,
      "chip": "ym2612"
    },
    {
      "channel": 2,
      "note": 87,
      "start": 11.9928,
      "duration": 0.1661,
      "velocity": 111,
      "chip": "ym2612"
    },
    {
      "channel": 4,
      "note": 92,
      "start": 11.994,
      "duration": 0.1666,
      "velocity": 111,
      "chip": "ym2612"
    },
    {
      "channel": 5,
      "note": 75,
      "start": 11.9947,
      "duration": 0.1601,
      "velocity": 120,
      "chip": "ym2612"
    },
    {
      "channel": 3,
      "note": 59,
      "start": 12.0732,
      "duration": 0.0866,
      "velocity": 108,
      "chip": "ym2612"
    },
    {
      "channel": 0,
      "note": 92,
      "start": 12.1581,
      "duration": 1.216,
      "velocity": 111,
      "chip": "ym2612"
    },
    {
      "channel": 1,
      "note": 61,
      "start": 12.1588,
      "duration": 0.3491,
      "velocity": 101,
      "chip": "ym2612"
    },
    {
      "channel": 2,
      "note": 85,
      "start": 12.1596,
      "duration": 1.2156,
      "velocity": 111,
      "chip": "ym2612"
    },
    {
      "channel": 3,
      "note": 64,
      "start": 12.1604,
      "duration": 0.0954,
      "velocity": 108,
      "chip": "ym2612"
    },
    {
      "channel": 4,
      "note": 90,
      "start": 12.1612,
      "duration": 0.1794,
      "velocity": 111,
      "chip": "ym2612"
    },
    {
      "channel": 5,
      "note": 32,
      "start": 12.162,
      "duration": 0.2279,
      "velocity": 114,
      "chip": "ym2612"
    },
    {
      "channel": 3,
      "note": 64,
      "start": 12.2565,
      "duration": 0.0833,
      "velocity": 108,
      "chip": "ym2612"
    },
    {
      "channel": 3,
      "note": 61,
      "start": 12.3405,
      "duration": 0.1684,
      "velocity": 108,
      "chip": "ym2612"
    },
    {
      "channel": 4,
      "note": 92,
      "start": 12.3413,
      "duration": 1.2026,
      "velocity": 111,
      "chip": "ym2612"
    },
    {
      "channel": 1,
      "note": 61,
      "start": 12.5083,
      "duration": 0.1662,
      "velocity": 101,
      "chip": "ym2612"
    },
    {
      "channel": 3,
      "note": 68,
      "start": 12.5095,
      "duration": 0.0798,
      "velocity": 108,
      "chip": "ym2612"
    },
    {
      "channel": 5,
      "note": 32,
      "start": 12.511,
      "duration": 0.1605,
      "velocity": 114,
      "chip": "ym2612"
    },
    {
      "channel": 3,
      "note": 68,
      "start": 12.5899,
      "duration": 0.1829,
      "velocity": 108,
      "chip": "ym2612"
    },
    {
      "channel": 1,
      "note": 61,
      "start": 12.6749,
      "duration": 0.1803,
      "velocity": 101,
      "chip": "ym2612"
    },
    {
      "channel": 5,
      "note": 75,
      "start": 12.6769,
      "duration": 0.3445,
      "velocity": 120,
      "chip": "ym2612"
    },
    {
      "channel": 3,
      "note": 61,
      "start": 12.7734,
      "duration": 0.0829,
      "velocity": 108,
      "chip": "ym2612"
    },
    {
      "channel": 1,
      "note": 61,
      "start": 12.8557,
      "duration": 0.1688,
      "velocity": 101,
      "chip": "ym2612"
    },
    {
      "channel": 3,
      "note": 64,
      "start": 12.8569,
      "duration": 0.0824,
      "velocity": 108,
      "chip": "ym2612"
    },
    {
      "channel": 3,
      "note": 64,
      "start": 12.9401,
      "duration": 0.0854,
      "velocity": 108,
      "chip": "ym2612"
    },
    {
      "channel": 1,
      "note": 61,
      "start": 13.0249,
      "duration": 0.1662,
      "velocity": 101,
      "chip": "ym2612"
    },
    {
      "channel": 3,
      "note": 61,
      "start": 13.0262,
      "duration": 0.166,
      "velocity": 108,
      "chip": "ym2612"
    },
    {
      "channel": 5,
      "note": 32,
      "start": 13.0275,
      "duration": 0.1606,
      "velocity": 114,
      "chip": "ym2612"
    },
    {
      "channel": 1,
      "note": 61,
      "start": 13.1916,
      "duration": 0.1831,
      "velocity": 101,
      "chip": "ym2612"
    },
    {
      "channel": 3,
      "note": 68,
      "start": 13.1929,
      "duration": 0.0798,
      "velocity": 108,
      "chip": "ym2612"
    },
    {
      "channel": 5,
      "note": 32,
      "start": 13.1941,
      "duration": 0.1773,
      "velocity": 114,
      "chip": "ym2612"
    },
    {
      "channel": 3,
      "note": 68,
      "start": 13.2732,
      "duration": 0.1826,
      "velocity": 108,
      "chip": "ym2612"
    },
    {
      "channel": 0,
      "note": 92,
      "start": 13.3746,
      "duration": 0.1662,
      "velocity": 111,
      "chip": "ym2612"
    },
    {
      "channel": 1,
      "note": 61,
      "start": 13.3751,
      "duration": 0.1664,
      "velocity": 101,
      "chip": "ym2612"
    },
    {
      "channel": 2,
      "note": 85,
      "start": 13.3758,
      "duration": 0.1665,
      "velocity": 111,
      "chip": "ym2612"
    },
    {
      "channel": 5,
      "note": 75,
      "start": 13.3773,
      "duration": 0.1608,
      "velocity": 120,
      "chip": "ym2612"
    },
    {
      "channel": 3,
      "note": 61,
      "start": 13.4566,
      "duration": 0.0866,
      "velocity": 108,
      "chip": "ym2612"
    },
    {
      "channel": 0,
      "note": 94,
      "start": 13.5414,
      "duration": 0.516,
      "velocity": 111,
      "chip": "ym2612"
    },
    {
      "channel": 1,
      "note": 62,
      "start": 13.5421,
      "duration": 0.3491,
      "velocity": 101,
      "chip": "ym2612"
    },
    {
      "channel": 2,
      "note": 86,
      "start": 13.5429,
      "duration": 0.5158,
      "velocity": 111,
      "chip": "ym2612"
    },
    {
      "channel": 3,
      "note": 64,
      "start": 13.5438,
      "duration": 0.0788,
      "velocity": 108,
      "chip": "ym2612"
    },
    {
      "channel": 4,
      "note": 92,
      "start": 13.5444,
      "duration": 0.1625,
      "velocity": 111,
      "chip": "ym2612"
    },
    {
      "channel": 5,
      "note": 32,
      "start": 13.5452,
      "duration": 0.228,
      "velocity": 114,
      "chip": "ym2612"
    },
    {
      "channel": 3,
      "note": 64,
      "start": 13.6232,
      "duration": 0.083,
      "velocity": 108,
      "chip": "ym2612"
    },
    {
      "channel": 3,
      "note": 58,
      "start": 13.7068,
      "duration": 0.1855,
      "velocity": 108,
      "chip": "ym2612"
    },
    {
      "channel": 4,
      "note": 94,
      "start": 13.7076,
      "duration": 0.516,
      "velocity": 111,
      "chip": "ym2612"
    },
    {
      "channel": 1,
      "note": 62,
      "start": 13.8916,
      "duration": 0.1666,
      "velocity": 101,
      "chip": "ym2612"
    },
    {
      "channel": 3,
      "note": 66,
      "start": 13.8929,
      "duration": 0.0799,
      "velocity": 108,
      "chip": "ym2612"
    },
    {
      "channel": 5,
      "note": 32,
      "start": 13.8941,
      "duration": 0.1607,
      "velocity": 114,
      "chip": "ym2612"
    },
    {
      "channel": 3,
      "note": 66,
      "start": 13.9733,
      "duration": 0.1659,
      "velocity": 108,
      "chip": "ym2612"
    },
    {
      "channel": 0,
      "note": 92,
      "start": 14.0581,
      "duration": 0.3326,
      "velocity": 111,
      "chip": "ym2612"
    },
    {
      "channel": 1,
      "note": 62,
      "start": 14.0587,
      "duration": 0.1632,
      "velocity": 101,
      "chip": "ym2612"
    },
    {
      "channel": 2,
      "note": 86,
      "start": 14.0595,
      "duration": 0.3326,
      "velocity": 111,
      "chip": "ym2612"
    },
    {
      "channel": 5,
      "note": 75,
      "start": 14.061,
      "duration": 0.3271,
      "velocity": 120,
      "chip": "ym2612"
    },
    {
      "channel": 3,
      "note": 58,
      "start": 14.1398,
      "duration": 0.0829,
      "velocity": 108,
      "chip": "ym2612"
    },
    {
      "channel": 1,
      "note": 62,
      "start": 14.2223,
      "duration": 0.1693,
      "velocity": 101,
      "chip": "ym2612"
    },
    {
      "channel": 3,
      "note": 62,
      "start": 14.2234,
      "duration": 0.0824,
      "velocity": 108,
      "chip": "ym2612"
    },
    {
      "channel": 4,
      "note": 92,
      "start": 14.2242,
      "duration": 0.3519,
      "velocity": 111,
      "chip": "ym2612"
    },
    {
      "channel": 3,
      "note": 62,
      "start": 14.3065,
      "duration": 0.0865,
      "velocity": 108,
      "chip": "ym2612"
    },
    {
      "channel": 0,
      "note": 90,
      "start": 14.3914,
      "duration": 0.3493,
      "velocity": 111,
      "chip": "ym2612"
    },
    {
      "channel": 1,
      "note": 62,
      "start": 14.3919,
      "duration": 0.1825,
      "velocity": 101,
      "chip": "ym2612"
    },
    {
      "channel": 2,
      "note": 82,
      "start": 14.3928,
      "duration": 0.3493,
      "velocity": 111,
      "chip": "ym2612"
    },
    {
      "channel": 3,
      "note": 58,
      "start": 14.3936,
      "duration": 0.1817,
      "velocity": 108,
      "chip": "ym2612"
    },
    {
      "channel": 5,
      "note": 32,
      "start": 14.3947,
      "duration": 0.1767,
      "velocity": 114,
      "chip": "ym2612"
    },
    {
      "channel": 1,
      "note": 62,
      "start": 14.5748,
      "duration": 0.1667,
      "velocity": 101,
      "chip": "ym2612"
    },
    {
      "channel": 3,
      "note": 66,
      "start": 14.576,
      "duration": 0.0799,
      "velocity": 108,
      "chip": "ym2612"
    },
    {
      "channel": 4,
      "note": 90,
      "start": 14.5768,
      "duration": 0.3327,
      "velocity": 111,
      "chip": "ym2612"
    },
    {
      "channel": 5,
      "note": 32,
      "start": 14.5776,
      "duration": 0.1605,
      "velocity": 114,
      "chip": "ym2612"
    },
    {
      "channel": 3,
      "note": 66,
      "start": 14.6564,
      "duration": 0.1661,
      "velocity": 108,
      "chip": "ym2612"
    },
    {
      "channel": 0,
      "note": 89,
      "start": 14.7414,
      "duration": 0.347,
      "velocity": 111,
      "chip": "ym2612"
    },
    {
      "channel": 1,
      "note": 62,
      "start": 14.7419,
      "duration": 0.1659,
      "velocity": 101,
      "chip": "ym2612"
    },
    {
      "channel": 2,
      "note": 82,
      "start": 14.7428,
      "duration": 0.3468,
      "velocity": 111,
      "chip": "ym2612"
    },
    {
      "channel": 5,
      "note": 75,
      "start": 14.7442,
      "duration": 0.1606,
      "velocity": 120,
      "chip": "ym2612"
    },
    {
      "channel": 3,
      "note": 58,
      "start": 14.8232,
      "duration": 0.0855,
      "velocity": 108,
      "chip": "ym2612"
    },
    {
      "channel": 1,
      "note": 62,
      "start": 14.9081,
      "duration": 0.1811,
      "velocity": 101,
      "chip": "ym2612"
    },
    {
      "channel": 3,
      "note": 62,
      "start": 14.9093,
      "duration": 0.0966,
      "velocity": 108,
      "chip": "ym2612"
    },
    {
      "channel": 4,
      "note": 89,
      "start": 14.9101,
      "duration": 0.3503,
      "velocity": 111,
      "chip": "ym2612"
    },
    {
      "channel": 5,
      "note": 32,
      "start": 14.911,
      "duration": 0.2288,
      "velocity": 114,
      "chip": "ym2612"
    },
    {
      "channel": 3,
      "note": 62,
      "start": 15.0065,
      "duration": 0.0839,
      "velocity": 108,
      "chip": "ym2612"
    },
    {
      "channel": 0,
      "note": 89,
      "start": 15.0891,
      "duration": 0.1683,
      "velocity": 111,
      "chip": "ym2612"
    },
    {
      "channel": 2,
      "note": 82,
      "start": 15.0902,
      "duration": 0.1687,
      "velocity": 111,
      "chip": "ym2612"
    },
    {
      "channel": 3,
      "note": 58,
      "start": 15.091,
      "duration": 0.1685,
      "velocity": 108,
      "chip": "ym2612"
    },
    {
      "channel": 0,
      "note": 90,
      "start": 15.2581,
      "duration": 0.166,
      "velocity": 111,
      "chip": "ym2612"
    },
    {
      "channel": 1,
      "note": 65,
      "start": 15.2588,
      "duration": 0.1661,
      "velocity": 101,
      "chip": "ym2612"
    },
    {
      "channel": 2,
      "note": 82,
      "start": 15.2594,
      "duration": 0.1661,
      "velocity": 111,
      "chip": "ym2612"
    },
    {
      "channel": 3,
      "note": 66,
      "start": 15.2602,
      "duration": 0.0789,
      "velocity": 108,
      "chip": "ym2612"
    },
    {
      "channel": 4,
      "note": 89,
      "start": 15.2611,
      "duration": 0.1655,
      "velocity": 111,
      "chip": "ym2612"
    },
    {
      "channel": 5,
      "note": 32,
      "start": 15.2618,
      "duration": 0.1596,
      "velocity": 114,
      "chip": "ym2612"
    },
    {
      "channel": 3,
      "note": 66,
      "start": 15.3397,
      "duration": 0.1661,
      "velocity": 108,
      "chip": "ym2612"
    },
    {
      "channel": 0,
      "note": 89,
      "start": 15.4248,
      "duration": 0.1801,
      "velocity": 111,
      "chip": "ym2612"
    },
    {
      "channel": 1,
      "note": 66,
      "start": 15.4254,
      "duration": 0.1802,
      "velocity": 101,
      "chip": "ym2612"
    },
    {
      "channel": 2,
      "note": 82,
      "start": 15.4261,
      "duration": 0.1803,
      "velocity": 111,
      "chip": "ym2612"
    },
    {
      "channel": 4,
      "note": 90,
      "start": 15.4272,
      "duration": 0.1805,
      "velocity": 111,
      "chip": "ym2612"
    },
    {
      "channel": 5,
      "note": 75,
      "start": 15.4279,
      "duration": 0.3435,
      "velocity": 120,
      "chip": "ym2612"
    },
    {
      "channel": 3,
      "note": 58,
      "start": 15.5065,
      "duration": 0.1005,
      "velocity": 108,
      "chip": "ym2612"
    },
    {
      "channel": 0,
      "note": 87,
      "start": 15.6055,
      "duration": 0.8546,
      "velocity": 106,
      "chip": "ym2612"
    },
    {
      "channel": 1,
      "note": 63,
      "start": 15.6062,
      "duration": 0.1684,
      "velocity": 101,
      "chip": "ym2612"
    },
    {
      "channel": 2,
      "note": 82,
      "start": 15.6069,
      "duration": 0.8574,
      "velocity": 106,
      "chip": "ym2612"
    },
    {
      "channel": 3,
      "note": 63,
      "start": 15.6076,
      "duration": 0.0815,
      "velocity": 108,
      "chip": "ym2612"
    },
    {
      "channel": 4,
      "note": 89,
      "start": 15.6085,
      "duration": 0.1682,
      "velocity": 111,
      "chip": "ym2612"
    },
    {
      "channel": 3,
      "note": 63,
      "start": 15.6898,
      "duration": 0.086,
      "velocity": 108,
      "chip": "ym2612"
    },
    {
      "channel": 1,
      "note": 65,
      "start": 15.7752,
      "duration": 0.166,
      "velocity": 101,
      "chip": "ym2612"
    },
    {
      "channel": 3,
      "note": 58,
      "start": 15.7765,
      "duration": 0.1659,
      "velocity": 108,
      "chip": "ym2612"
    },
    {
      "channel": 4,
      "note": 87,
      "start": 15.7774,
      "duration": 0.8528,
      "velocity": 106,
      "chip": "ym2612"
    },
    {
      "channel": 5,
      "note": 32,
      "start": 15.7782,
      "duration": 0.1599,
      "velocity": 114,
      "chip": "ym2612"
    },
    {
      "channel": 1,
      "note": 63,
      "start": 15.9417,
      "duration": 0.3494,
      "velocity": 101,
      "chip": "ym2612"
    },
    {
      "channel": 3,
      "note": 66,
      "start": 15.943,
      "duration": 0.0797,
      "velocity": 108,
      "chip": "ym2612"
    },
    {
      "channel": 5,
      "note": 32,
      "start": 15.9444,
      "duration": 0.1771,
      "velocity": 114,
      "chip": "ym2612"
    },
    {
      "channel": 3,
      "note": 66,
      "start": 16.0232,
      "duration": 0.1829,
      "velocity": 108,
      "chip": "ym2612"
    },
    {
      "channel": 5,
      "note": 75,
      "start": 16.1267,
      "duration": 0.1614,
      "velocity": 120,
      "chip": "ym2612"
    },
    {
      "channel": 3,
      "note": 58,
      "start": 16.2068,
      "duration": 0.0854,
      "velocity": 108,
      "chip": "ym2612"
    },
    {
      "channel": 1,
      "note": 63,
      "start": 16.2916,
      "duration": 0.1693,
      "velocity": 101,
      "chip": "ym2612"
    },
    {
      "channel": 3,
      "note": 63,
      "start": 16.2928,
      "duration": 0.08,
      "velocity": 108,
      "chip": "ym2612"
    },
    {
      "channel": 5,
      "note": 32,
      "start": 16.2941,
      "duration": 0.1607,
      "velocity": 114,
      "chip": "ym2612"
    },
    {
      "channel": 3,
      "note": 63,
      "start": 16.3734,
      "duration": 0.0941,
      "velocity": 106,
      "chip": "ym2612"
    },
    {
      "channel": 0,
      "note": 92,
      "start": 16.4607,
      "duration": 0.1637,
      "velocity": 106,
      "chip": "ym2612"
    },
    {
      "channel": 1,
      "note": 61,
      "start": 16.4615,
      "duration": 0.3469,
      "velocity": 101,
      "chip": "ym2612"
    },
    {
      "channel": 2,
      "note": 89,
      "start": 16.4649,
      "duration": 0.1609,
      "velocity": 106,
      "chip": "ym2612"
    },
    {
      "channel": 3,
      "note": 73,
      "start": 16.4681,
      "duration": 0.1586,
      "velocity": 106,
      "chip": "ym2612"
    },
    {
      "channel": 5,
      "note": 75,
      "start": 16.4693,
      "duration": 0.1521,
      "velocity": 120,
      "chip": "ym2612"
    },
    {
      "channel": 0,
      "note": 92,
      "start": 16.6249,
      "duration": 0.1828,
      "velocity": 106,
      "chip": "ym2612"
    },
    {
      "channel": 2,
      "note": 89,
      "start": 16.6263,
      "duration": 0.1831,
      "velocity": 106,
      "chip": "ym2612"
    },
    {
      "channel": 3,
      "note": 73,
      "start": 16.6273,
      "duration": 0.1831,
      "velocity": 106,
      "chip": "ym2612"
    },
    {
      "channel": 4,
      "note": 92,
      "start": 16.6309,
      "duration": 0.1805,
      "velocity": 106,
      "chip": "ym2612"
    },
    {
      "channel": 5,
      "note": 32,
      "start": 16.6317,
      "duration": 0.1731,
      "velocity": 114,
      "chip": "ym2612"
    },
    {
      "channel": 0,
      "note": 92,
      "start": 16.8083,
      "duration": 0.1636,
      "velocity": 106,
      "chip": "ym2612"
    },
    {
      "channel": 1,
      "note": 61,
      "start": 16.8088,
      "duration": 0.3322,
      "velocity": 101,
      "chip": "ym2612"
    },
    {
      "channel": 2,
      "note": 89,
      "start": 16.8099,
      "duration": 0.1634,
      "velocity": 106,
      "chip": "ym2612"
    },
    {
      "channel": 3,
      "note": 73,
      "start": 16.8109,
      "duration": 0.1634,
      "velocity": 106,
      "chip": "ym2612"
    },
    {
      "channel": 4,
      "note": 92,
      "start": 16.8119,
      "duration": 0.1634,
      "velocity": 106,
      "chip": "ym2612"
    },
    {
      "channel": 5,
      "note": 75,
      "start": 16.8126,
      "duration": 0.3255,
      "velocity": 120,
      "chip": "ym2612"
    },
    {
      "channel": 0,
      "note": 92,
      "start": 16.9724,
      "duration": 0.1683,
      "velocity": 106,
      "chip": "ym2612"
    },
    {
      "channel": 2,
      "note": 89,
      "start": 16.9737,
      "duration": 0.1676,
      "velocity": 106,
      "chip": "ym2612"
    },
    {
      "channel": 3,
      "note": 73,
      "start": 16.9748,
      "duration": 0.167,
      "velocity": 106,
      "chip": "ym2612"
    },
    {
      "channel": 4,
      "note": 92,
      "start": 16.9758,
      "duration": 0.1667,
      "velocity": 106,
      "chip": "ym2612"
    },
    {
      "channel": 4,
      "note": 92,
      "start": 17.1429,
      "duration": 0.1849,
      "velocity": 106,
      "chip": "ym2612"
    },
    {
      "channel": 5,
      "note": 32,
      "start": 17.1438,
      "duration": 0.1777,
      "velocity": 114,
      "chip": "ym2612"
    },
    {
      "channel": 0,
      "note": 92,
      "start": 17.3249,
      "duration": 0.1662,
      "velocity": 106,
      "chip": "ym2612"
    },
    {
      "channel": 1,
      "note": 61,
      "start": 17.3256,
      "duration": 0.0795,
      "velocity": 101,
      "chip": "ym2612"
    },
    {
      "channel": 2,
      "note": 89,
      "start": 17.3267,
      "duration": 0.166,
      "velocity": 106,
      "chip": "ym2612"
    },
    {
      "channel": 3,
      "note": 73,
      "start": 17.3277,
      "duration": 0.166,
      "velocity": 106,
      "chip": "ym2612"
    },
    {
      "channel": 5,
      "note": 75,
      "start": 17.3288,
      "duration": 0.1594,
      "velocity": 120,
      "chip": "ym2612"
    },
    {
      "channel": 1,
      "note": 61,
      "start": 17.4056,
      "duration": 0.0861,
      "velocity": 101,
      "chip": "ym2612"
    },
    {
      "channel": 0,
      "note": 92,
      "start": 17.4916,
      "duration": 0.1662,
      "velocity": 106,
      "chip": "ym2612"
    },
    {
      "channel": 1,
      "note": 61,
      "start": 17.4922,
      "duration": 0.1662,
      "velocity": 101,
      "chip": "ym2612"
    },
    {
      "channel": 2,
      "note": 89,
      "start": 17.4932,
      "duration": 0.1662,
      "velocity": 106,
      "chip": "ym2612"
    },
    {
      "channel": 3,
      "note": 73,
      "start": 17.4942,
      "duration": 0.1662,
      "velocity": 106,
      "chip": "ym2612"
    },
    {
      "channel": 4,
      "note": 92,
      "start": 17.4952,
      "duration": 0.1662,
      "velocity": 106,
      "chip": "ym2612"
    },
    {
      "channel": 5,
      "note": 75,
      "start": 17.4959,
      "duration": 0.1588,
      "velocity": 120,
      "chip": "ym2612"
    },
    {
      "channel": 0,
      "note": 92,
      "start": 17.6583,
      "duration": 0.1852,
      "velocity": 111,
      "chip": "ym2612"
    },
    {
      "channel": 1,
      "note": 61,
      "start": 17.6588,
      "duration": 0.1856,
      "velocity": 101,
      "chip": "ym2612"
    },
    {
      "channel": 2,
      "note": 89,
      "start": 17.6599,
      "duration": 0.188,
      "velocity": 111,
      "chip": "ym2612"
    },
    {
      "channel": 3,
      "note": 73,
      "start": 17.6609,
      "duration": 0.1902,
      "velocity": 108,
      "chip": "ym2612"
    },
    {
      "channel": 4,
      "note": 92,
      "start": 17.6619,
      "duration": 0.1904,
      "velocity": 106,
      "chip": "ym2612"
    },
    {
      "channel": 5,
      "note": 75,
      "start": 17.6626,
      "duration": 0.1756,
      "velocity": 120,
      "chip": "ym2612"
    },
    {
      "channel": 0,
      "note": 90,
      "start": 17.8441,
      "duration": 0.6799,
      "velocity": 111,
      "chip": "ym2612"
    },
    {
      "channel": 1,
      "note": 63,
      "start": 17.845,
      "duration": 0.1628,
      "velocity": 101,
      "chip": "ym2612"
    },
    {
      "channel": 2,
      "note": 87,
      "start": 17.8485,
      "duration": 0.6768,
      "velocity": 111,
      "chip": "ym2612"
    },
    {
      "channel": 3,
      "note": 63,
      "start": 17.8518,
      "duration": 0.1569,
      "velocity": 108,
      "chip": "ym2612"
    },
    {
      "channel": 4,
      "note": 92,
      "start": 17.8528,
      "duration": 0.1595,
      "velocity": 111,
      "chip": "ym2612"
    },
    {
      "channel": 5,
      "note": 32,
      "start": 17.8536,
      "duration": 0.1512,
      "velocity": 114,
      "chip": "ym2612"
    },
    {
      "channel": 1,
      "note": 63,
      "start": 18.0081,
      "duration": 0.1663,
      "velocity": 101,
      "chip": "ym2612"
    },
    {
      "channel": 3,
      "note": 70,
      "start": 18.0094,
      "duration": 0.0798,
      "velocity": 108,
      "chip": "ym2612"
    },
    {
      "channel": 4,
      "note": 90,
      "start": 18.013,
      "duration": 0.6782,
      "velocity": 111,
      "chip": "ym2612"
    },
    {
      "channel": 5,
      "note": 32,
      "start": 18.0138,
      "duration": 0.1576,
      "velocity": 114,
      "chip": "ym2612"
    },
    {
      "channel": 3,
      "note": 70,
      "start": 18.0897,
      "duration": 0.1664,
      "velocity": 108,
      "chip": "ym2612"
    },
    {
      "channel": 1,
      "note": 63,
      "start": 18.1749,
      "duration": 0.1803,
      "velocity": 101,
      "chip": "ym2612"
    },
    {
      "channel": 5,
      "note": 75,
      "start": 18.1768,
      "duration": 0.3447,
      "velocity": 120,
      "chip": "ym2612"
    },
    {
      "channel": 3,
      "note": 63,
      "start": 18.2568,
      "duration": 0.0995,
      "velocity": 108,
      "chip": "ym2612"
    },
    {
      "channel": 1,
      "note": 63,
      "start": 18.3557,
      "duration": 0.169,
      "velocity": 101,
      "chip": "ym2612"
    },
    {
      "channel": 3,
      "note": 66,
      "start": 18.3569,
      "duration": 0.0824,
      "velocity": 108,
      "chip": "ym2612"
    },
    {
      "channel": 3,
      "note": 66,
      "start": 18.4401,
      "duration": 0.0859,
      "velocity": 108,
      "chip": "ym2612"
    },
    {
      "channel": 0,
      "note": 90,
      "start": 18.5246,
      "duration": 0.1636,
      "velocity": 111,
      "chip": "ym2612"
    },
    {
      "channel": 1,
      "note": 63,
      "start": 18.5251,
      "duration": 0.1639,
      "velocity": 101,
      "chip": "ym2612"
    },
    {
      "channel": 2,
      "note": 87,
      "start": 18.5258,
      "duration": 0.1638,
      "velocity": 111,
      "chip": "ym2612"
    },
    {
      "channel": 3,
      "note": 63,
      "start": 18.5267,
      "duration": 0.1637,
      "velocity": 108,
      "chip": "ym2612"
    },
    {
      "channel": 5,
      "note": 32,
      "start": 18.5279,
      "duration": 0.2287,
      "velocity": 114,
      "chip": "ym2612"
    },
    {
      "channel": 0,
      "note": 89,
      "start": 18.6888,
      "duration": 0.1686,
      "velocity": 111,
      "chip": "ym2612"
    },
    {
      "channel": 1,
      "note": 63,
      "start": 18.6894,
      "duration": 0.1683,
      "velocity": 101,
      "chip": "ym2612"
    },
    {
      "channel": 2,
      "note": 85,
      "start": 18.6902,
      "duration": 0.1681,
      "velocity": 111,
      "chip": "ym2612"
    },
    {
      "channel": 3,
      "note": 70,
      "start": 18.691,
      "duration": 0.0815,
      "velocity": 108,
      "chip": "ym2612"
    },
    {
      "channel": 4,
      "note": 90,
      "start": 18.6917,
      "duration": 0.1673,
      "velocity": 111,
      "chip": "ym2612"
    },
    {
      "channel": 3,
      "note": 70,
      "start": 18.773,
      "duration": 0.1823,
      "velocity": 108,
      "chip": "ym2612"
    },
    {
      "channel": 1,
      "note": 63,
      "start": 18.8581,
      "duration": 0.1809,
      "velocity": 101,
      "chip": "ym2612"
    },
    {
      "channel": 4,
      "note": 89,
      "start": 18.8596,
      "duration": 0.1815,
      "velocity": 111,
      "chip": "ym2612"
    },
    {
      "channel": 5,
      "note": 75,
      "start": 18.8604,
      "duration": 0.3444,
      "velocity": 120,
      "chip": "ym2612"
    },
    {
      "channel": 3,
      "note": 63,
      "start": 18.956,
      "duration": 0.0844,
      "velocity": 108,
      "chip": "ym2612"
    },
    {
      "channel": 0,
      "note": 90,
      "start": 19.0388,
      "duration": 0.3327,
      "velocity": 111,
      "chip": "ym2612"
    },
    {
      "channel": 1,
      "note": 63,
      "start": 19.0394,
      "duration": 0.3329,
      "velocity": 101,
      "chip": "ym2612"
    },
    {
      "channel": 2,
      "note": 87,
      "start": 19.0402,
      "duration": 0.3327,
      "velocity": 111,
      "chip": "ym2612"
    },
    {
      "channel": 3,
      "note": 66,
      "start": 19.041,
      "duration": 0.0815,
      "velocity": 108,
      "chip": "ym2612"
    },
    {
      "channel": 3,
      "note": 66,
      "start": 19.1232,
      "duration": 0.0854,
      "velocity": 108,
      "chip": "ym2612"
    },
    {
      "channel": 3,
      "note": 63,
      "start": 19.2092,
      "duration": 0.1646,
      "velocity": 108,
      "chip": "ym2612"
    },
    {
      "channel": 4,
      "note": 90,
      "start": 19.21,
      "duration": 0.349,
      "velocity": 111,
      "chip": "ym2612"
    },
    {
      "channel": 5,
      "note": 32,
      "start": 19.2108,
      "duration": 0.2291,
      "velocity": 114,
      "chip": "ym2612"
    },
    {
      "channel": 0,
      "note": 87,
      "start": 19.3722,
      "duration": 0.1852,
      "velocity": 111,
      "chip": "ym2612"
    },
    {
      "channel": 1,
      "note": 63,
      "start": 19.3727,
      "duration": 0.185,
      "velocity": 101,
      "chip": "ym2612"
    },
    {
      "channel": 2,
      "note": 82,
      "start": 19.3735,
      "duration": 0.1847,
      "velocity": 111,
      "chip": "ym2612"
    },
    {
      "channel": 3,
      "note": 70,
      "start": 19.3744,
      "duration": 0.0981,
      "velocity": 108,
      "chip": "ym2612"
    },
    {
      "channel": 3,
      "note": 70,
      "start": 19.473,
      "duration": 0.1656,
      "velocity": 108,
      "chip": "ym2612"
    },
    {
      "channel": 1,
      "note": 63,
      "start": 19.5581,
      "duration": 0.1642,
      "velocity": 101,
      "chip": "ym2612"
    },
    {
      "channel": 4,
      "note": 87,
      "start": 19.5596,
      "duration": 0.1649,
      "velocity": 111,
      "chip": "ym2612"
    },
    {
      "channel": 5,
      "note": 75,
      "start": 19.5604,
      "duration": 0.3277,
      "velocity": 120,
      "chip": "ym2612"
    },
    {
      "channel": 3,
      "note": 63,
      "start": 19.6393,
      "duration": 0.0844,
      "velocity": 108,
      "chip": "ym2612"
    },
    {
      "channel": 0,
      "note": 87,
      "start": 19.7222,
      "duration": 0.1686,
      "velocity": 111,
      "chip": "ym2612"
    },
    {
      "channel": 1,
      "note": 63,
      "start": 19.7227,
      "duration": 0.1688,
      "velocity": 101,
      "chip": "ym2612"
    },
    {
      "channel": 2,
      "note": 82,
      "start": 19.7235,
      "duration": 0.1686,
      "velocity": 111,
      "chip": "ym2612"
    },
    {
      "channel": 3,
      "note": 66,
      "start": 19.7244,
      "duration": 0.0815,
      "velocity": 108,
      "chip": "ym2612"
    },
    {
      "channel": 3,
      "note": 66,
      "start": 19.8065,
      "duration": 0.0865,
      "velocity": 108,
      "chip": "ym2612"
    },
    {
      "channel": 0,
      "note": 90,
      "start": 19.8914,
      "duration": 0.3493,
      "velocity": 111,
      "chip": "ym2612"
    },
    {
      "channel": 1,
      "note": 63,
      "start": 19.892,
      "duration": 0.1824,
      "velocity": 101,
      "chip": "ym2612"
    },
    {
      "channel": 2,
      "note": 87,
      "start": 19.8928,
      "duration": 0.3493,
      "velocity": 111,
      "chip": "ym2612"
    },
    {
      "channel": 3,
      "note": 63,
      "start": 19.8937,
      "duration": 0.1816,
      "velocity": 108,
      "chip": "ym2612"
    },
    {
      "channel": 4,
      "note": 87,
      "start": 19.8945,
      "duration": 0.1817,
      "velocity": 111,
      "chip": "ym2612"
    },
    {
      "channel": 5,
      "note": 32,
      "start": 19.8953,
      "duration": 0.1761,
      "velocity": 114,
      "chip": "ym2612"
    },
    {
      "channel": 1,
      "note": 63,
      "start": 20.0748,
      "duration": 0.1667,
      "velocity": 101,
      "chip": "ym2612"
    },
    {
      "channel": 3,
      "note": 70,
      "start": 20.076,
      "duration": 0.0798,
      "velocity": 108,
      "chip": "ym2612"
    },
    {
      "channel": 4,
      "note": 90,
      "start": 20.0768,
      "duration": 0.33,
      "velocity": 111,
      "chip": "ym2612"
    },
    {
      "channel": 5,
      "note": 32,
      "start": 20.0776,
      "duration": 0.1605,
      "velocity": 114,
      "chip": "ym2612"
    },
    {
      "channel": 3,
      "note": 70,
      "start": 20.1564,
      "duration": 0.1661,
      "velocity": 108,
      "chip": "ym2612"
    },
    {
      "channel": 0,
      "note": 94,
      "start": 20.2414,
      "duration": 0.3493,
      "velocity": 111,
      "chip": "ym2612"
    },
    {
      "channel": 1,
      "note": 63,
      "start": 20.242,
      "duration": 0.1632,
      "velocity": 101,
      "chip": "ym2612"
    },
    {
      "channel": 2,
      "note": 90,
      "start": 20.2428,
      "duration": 0.3495,
      "velocity": 111,
      "chip": "ym2612"
    },
    {
      "channel": 5,
      "note": 75,
      "start": 20.2442,
      "duration": 0.3439,
      "velocity": 120,
      "chip": "ym2612"
    },
    {
      "channel": 3,
      "note": 63,
      "start": 20.3232,
      "duration": 0.0829,
      "velocity": 108,
      "chip": "ym2612"
    },
    {
      "channel": 1,
      "note": 63,
      "start": 20.4056,
      "duration": 0.1859,
      "velocity": 101,
      "chip": "ym2612"
    },
    {
      "channel": 3,
      "note": 66,
      "start": 20.4068,
      "duration": 0.0824,
      "velocity": 108,
      "chip": "ym2612"
    },
    {
      "channel": 4,
      "note": 94,
      "start": 20.4076,
      "duration": 0.3519,
      "velocity": 111,
      "chip": "ym2612"
    },
    {
      "channel": 3,
      "note": 66,
      "start": 20.4898,
      "duration": 0.1034,
      "velocity": 108,
      "chip": "ym2612"
    },
    {
      "channel": 0,
      "note": 92,
      "start": 20.5914,
      "duration": 0.6826,
      "velocity": 111,
      "chip": "ym2612"
    },
    {
      "channel": 1,
      "note": 64,
      "start": 20.5921,
      "duration": 0.1657,
      "velocity": 101,
      "chip": "ym2612"
    },
    {
      "channel": 2,
      "note": 88,
      "start": 20.5929,
      "duration": 0.6823,
      "velocity": 111,
      "chip": "ym2612"
    },
    {
      "channel": 3,
      "note": 59,
      "start": 20.5938,
      "duration": 0.1648,
      "velocity": 108,
      "chip": "ym2612"
    },
    {
      "channel": 5,
      "note": 32,
      "start": 20.595,
      "duration": 0.1598,
      "velocity": 114,
      "chip": "ym2612"
    },
    {
      "channel": 1,
      "note": 64,
      "start": 20.7581,
      "duration": 0.1663,
      "velocity": 101,
      "chip": "ym2612"
    },
    {
      "channel": 3,
      "note": 68,
      "start": 20.7593,
      "duration": 0.0799,
      "velocity": 108,
      "chip": "ym2612"
    },
    {
      "channel": 4,
      "note": 92,
      "start": 20.7602,
      "duration": 0.68,
      "velocity": 111,
      "chip": "ym2612"
    },
    {
      "channel": 5,
      "note": 32,
      "start": 20.761,
      "duration": 0.1605,
      "velocity": 114,
      "chip": "ym2612"
    },
    {
      "channel": 3,
      "note": 68,
      "start": 20.8397,
      "duration": 0.1664,
      "velocity": 108,
      "chip": "ym2612"
    },
    {
      "channel": 1,
      "note": 64,
      "start": 20.9249,
      "duration": 0.1637,
      "velocity": 101,
      "chip": "ym2612"
    },
    {
      "channel": 5,
      "note": 75,
      "start": 20.9268,
      "duration": 0.3447,
      "velocity": 120,
      "chip": "ym2612"
    },
    {
      "channel": 3,
      "note": 59,
      "start": 21.0068,
      "duration": 0.0829,
      "velocity": 108,
      "chip": "ym2612"
    },
    {
      "channel": 1,
      "note": 64,
      "start": 21.0891,
      "duration": 0.1856,
      "velocity": 101,
      "chip": "ym2612"
    },
    {
      "channel": 3,
      "note": 64,
      "start": 21.0903,
      "duration": 0.0991,
      "velocity": 108,
      "chip": "ym2612"
    },
    {
      "channel": 3,
      "note": 64,
      "start": 21.1901,
      "duration": 0.0859,
      "velocity": 108,
      "chip": "ym2612"
    },
    {
      "channel": 0,
      "note": 92,
      "start": 21.2746,
      "duration": 0.3328,
      "velocity": 111,
      "chip": "ym2612"
    },
    {
      "channel": 1,
      "note": 64,
      "start": 21.2751,
      "duration": 0.1634,
      "velocity": 101,
      "chip": "ym2612"
    },
    {
      "channel": 2,
      "note": 88,
      "start": 21.2758,
      "duration": 0.333,
      "velocity": 111,
      "chip": "ym2612"
    },
    {
      "channel": 3,
      "note": 59,
      "start": 21.2767,
      "duration": 0.1627,
      "velocity": 108,
      "chip": "ym2612"
    },
    {
      "channel": 5,
      "note": 32,
      "start": 21.2779,
      "duration": 0.2287,
      "velocity": 114,
      "chip": "ym2612"
    },
    {
      "channel": 1,
      "note": 64,
      "start": 21.4389,
      "duration": 0.1693,
      "velocity": 101,
      "chip": "ym2612"
    },
    {
      "channel": 3,
      "note": 68,
      "start": 21.4401,
      "duration": 0.0824,
      "velocity": 108,
      "chip": "ym2612"
    },
    {
      "channel": 4,
      "note": 92,
      "start": 21.4407,
      "duration": 0.3504,
      "velocity": 111,
      "chip": "ym2612"
    },
    {
      "channel": 3,
      "note": 68,
      "start": 21.523,
      "duration": 0.1828,
      "velocity": 108,
      "chip": "ym2612"
    },
    {
      "channel": 0,
      "note": 90,
      "start": 21.6081,
      "duration": 0.1801,
      "velocity": 111,
      "chip": "ym2612"
    },
    {
      "channel": 1,
      "note": 64,
      "start": 21.6087,
      "duration": 0.1803,
      "velocity": 101,
      "chip": "ym2612"
    },
    {
      "channel": 2,
      "note": 83,
      "start": 21.6095,
      "duration": 0.1801,
      "velocity": 111,
      "chip": "ym2612"
    },
    {
      "channel": 5,
      "note": 75,
      "start": 21.6109,
      "duration": 0.3439,
      "velocity": 120,
      "chip": "ym2612"
    },
    {
      "channel": 3,
      "note": 59,
      "start": 21.7066,
      "duration": 0.0839,
      "velocity": 108,
      "chip": "ym2612"
    },
    {
      "channel": 0,
      "note": 94,
      "start": 21.7889,
      "duration": 0.1685,
      "velocity": 111,
      "chip": "ym2612"
    },
    {
      "channel": 1,
      "note": 64,
      "start": 21.7894,
      "duration": 0.3329,
      "velocity": 101,
      "chip": "ym2612"
    },
    {
      "channel": 2,
      "note": 90,
      "start": 21.7902,
      "duration": 0.1678,
      "velocity": 111,
      "chip": "ym2612"
    },
    {
      "channel": 3,
      "note": 64,
      "start": 21.791,
      "duration": 0.0815,
      "velocity": 108,
      "chip": "ym2612"
    },
    {
      "channel": 4,
      "note": 90,
      "start": 21.7919,
      "duration": 0.1674,
      "velocity": 111,
      "chip": "ym2612"
    },
    {
      "channel": 3,
      "note": 64,
      "start": 21.8732,
      "duration": 0.0853,
      "velocity": 108,
      "chip": "ym2612"
    },
    {
      "channel": 3,
      "note": 59,
      "start": 21.9591,
      "duration": 0.1646,
      "velocity": 108,
      "chip": "ym2612"
    },
    {
      "channel": 4,
      "note": 94,
      "start": 21.96,
      "duration": 0.1645,
      "velocity": 111,
      "chip": "ym2612"
    },
    {
      "channel": 5,
      "note": 32,
      "start": 21.9607,
      "duration": 0.229,
      "velocity": 114,
      "chip": "ym2612"
    },
    {
      "channel": 0,
      "note": 92,
      "start": 22.1222,
      "duration": 0.7019,
      "velocity": 111,
      "chip": "ym2612"
    },
    {
      "channel": 1,
      "note": 64,
      "start": 22.1227,
      "duration": 0.1851,
      "velocity": 101,
      "chip": "ym2612"
    },
    {
      "channel": 2,
      "note": 88,
      "start": 22.1235,
      "duration": 0.7019,
      "velocity": 111,
      "chip": "ym2612"
    },
    {
      "channel": 3,
      "note": 68,
      "start": 22.1244,
      "duration": 0.0815,
      "velocity": 108,
      "chip": "ym2612"
    },
    {
      "channel": 3,
      "note": 68,
      "start": 22.2064,
      "duration": 0.1828,
      "velocity": 108,
      "chip": "ym2612"
    },
    {
      "channel": 1,
      "note": 64,
      "start": 22.3081,
      "duration": 0.1639,
      "velocity": 101,
      "chip": "ym2612"
    },
    {
      "channel": 4,
      "note": 92,
      "start": 22.3097,
      "duration": 0.6836,
      "velocity": 111,
      "chip": "ym2612"
    },
    {
      "channel": 5,
      "note": 75,
      "start": 22.3104,
      "duration": 0.3277,
      "velocity": 120,
      "chip": "ym2612"
    },
    {
      "channel": 3,
      "note": 59,
      "start": 22.3898,
      "duration": 0.0832,
      "velocity": 108,
      "chip": "ym2612"
    },
    {
      "channel": 1,
      "note": 64,
      "start": 22.4724,
      "duration": 0.1688,
      "velocity": 101,
      "chip": "ym2612"
    },
    {
      "channel": 3,
      "note": 64,
      "start": 22.4737,
      "duration": 0.0824,
      "velocity": 108,
      "chip": "ym2612"
    },
    {
      "channel": 3,
      "note": 64,
      "start": 22.5568,
      "duration": 0.0856,
      "velocity": 108,
      "chip": "ym2612"
    },
    {
      "channel": 1,
      "note": 64,
      "start": 22.6416,
      "duration": 0.1833,
      "velocity": 101,
      "chip": "ym2612"
    },
    {
      "channel": 3,
      "note": 59,
      "start": 22.6429,
      "duration": 0.1833,
      "velocity": 108,
      "chip": "ym2612"
    },
    {
      "channel": 5,
      "note": 32,
      "start": 22.6442,
      "duration": 0.1772,
      "velocity": 114,
      "chip": "ym2612"
    },
    {
      "channel": 0,
      "note": 92,
      "start": 22.8248,
      "duration": 0.166,
      "velocity": 111,
      "chip": "ym2612"
    },
    {
      "channel": 1,
      "note": 64,
      "start": 22.8253,
      "duration": 0.1662,
      "velocity": 101,
      "chip": "ym2612"
    },
    {
      "channel": 2,
      "note": 88,
      "start": 22.8261,
      "duration": 0.166,
      "velocity": 111,
      "chip": "ym2612"
    },
    {
      "channel": 3,
      "note": 68,
      "start": 22.8269,
      "duration": 0.0789,
      "velocity": 108,
      "chip": "ym2612"
    },
    {
      "channel": 5,
      "note": 32,
      "start": 22.8282,
      "duration": 0.1599,
      "velocity": 114,
      "chip": "ym2612"
    },
    {
      "channel": 3,
      "note": 68,
      "start": 22.9064,
      "duration": 0.1661,
      "velocity": 108,
      "chip": "ym2612"
    },
    {
      "channel": 0,
      "note": 90,
      "start": 22.9914,
      "duration": 0.166,
      "velocity": 111,
      "chip": "ym2612"
    },
    {
      "channel": 1,
      "note": 64,
      "start": 22.9919,
      "duration": 0.1663,
      "velocity": 101,
      "chip": "ym2612"
    },
    {
      "channel": 2,
      "note": 87,
      "start": 22.9928,
      "duration": 0.1661,
      "velocity": 111,
      "chip": "ym2612"
    },
    {
      "channel": 4,
      "note": 92,
      "start": 22.994,
      "duration": 0.1666,
      "velocity": 111,
      "chip": "ym2612"
    },
    {
      "channel": 5,
      "note": 75,
      "start": 22.9947,
      "duration": 0.1601,
      "velocity": 120,
      "chip": "ym2612"
    },
    {
      "channel": 3,
      "note": 59,
      "start": 23.0732,
      "duration": 0.0866,
      "velocity": 108,
      "chip": "ym2612"
    },
    {
      "channel": 0,
      "note": 92,
      "start": 23.1581,
      "duration": 1.1993,
      "velocity": 111,
      "chip": "ym2612"
    },
    {
      "channel": 1,
      "note": 61,
      "start": 23.1588,
      "duration": 0.3491,
      "velocity": 101,
      "chip": "ym2612"
    },
    {
      "channel": 2,
      "note": 85,
      "start": 23.1596,
      "duration": 1.199,
      "velocity": 111,
      "chip": "ym2612"
    },
    {
      "channel": 3,
      "note": 64,
      "start": 23.1604,
      "duration": 0.0788,
      "velocity": 108,
      "chip": "ym2612"
    },
    {
      "channel": 4,
      "note": 90,
      "start": 23.1612,
      "duration": 0.1627,
      "velocity": 111,
      "chip": "ym2612"
    },
    {
      "channel": 5,
      "note": 32,
      "start": 23.162,
      "duration": 0.2279,
      "velocity": 114,
      "chip": "ym2612"
    },
    {
      "channel": 3,
      "note": 64,
      "start": 23.2398,
      "duration": 0.0833,
      "velocity": 108,
      "chip": "ym2612"
    },
    {
      "channel": 3,
      "note": 61,
      "start": 23.3238,
      "duration": 0.1851,
      "velocity": 108,
      "chip": "ym2612"
    },
    {
      "channel": 4,
      "note": 92,
      "start": 23.3246,
      "duration": 1.2193,
      "velocity": 111,
      "chip": "ym2612"
    },
    {
      "channel": 1,
      "note": 61,
      "start": 23.5083,
      "duration": 0.1662,
      "velocity": 101,
      "chip": "ym2612"
    },
    {
      "channel": 3,
      "note": 68,
      "start": 23.5095,
      "duration": 0.0798,
      "velocity": 108,
      "chip": "ym2612"
    },
    {
      "channel": 5,
      "note": 32,
      "start": 23.511,
      "duration": 0.1605,
      "velocity": 114,
      "chip": "ym2612"
    },
    {
      "channel": 3,
      "note": 68,
      "start": 23.5899,
      "duration": 0.1662,
      "velocity": 108,
      "chip": "ym2612"
    },
    {
      "channel": 1,
      "note": 61,
      "start": 23.6749,
      "duration": 0.1637,
      "velocity": 101,
      "chip": "ym2612"
    },
    {
      "channel": 5,
      "note": 75,
      "start": 23.6769,
      "duration": 0.3445,
      "velocity": 120,
      "chip": "ym2612"
    },
    {
      "channel": 3,
      "note": 61,
      "start": 23.7568,
      "duration": 0.0829,
      "velocity": 108,
      "chip": "ym2612"
    },
    {
      "channel": 1,
      "note": 61,
      "start": 23.8391,
      "duration": 0.1854,
      "velocity": 101,
      "chip": "ym2612"
    },
    {
      "channel": 3,
      "note": 64,
      "start": 23.8403,
      "duration": 0.0991,
      "velocity": 108,
      "chip": "ym2612"
    },
    {
      "channel": 3,
      "note": 64,
      "start": 23.9401,
      "duration": 0.0854,
      "velocity": 108,
      "chip": "ym2612"
    },
    {
      "channel": 1,
      "note": 61,
      "start": 24.0249,
      "duration": 0.1662,
      "velocity": 101,
      "chip": "ym2612"
    },
    {
      "channel": 3,
      "note": 61,
      "start": 24.0262,
      "duration": 0.166,
      "velocity": 108,
      "chip": "ym2612"
    },
    {
      "channel": 5,
      "note": 32,
      "start": 24.0275,
      "duration": 0.1606,
      "velocity": 114,
      "chip": "ym2612"
    },
    {
      "channel": 1,
      "note": 61,
      "start": 24.1916,
      "duration": 0.1664,
      "velocity": 101,
      "chip": "ym2612"
    },
    {
      "channel": 3,
      "note": 68,
      "start": 24.1929,
      "duration": 0.0798,
      "velocity": 108,
      "chip": "ym2612"
    },
    {
      "channel": 5,
      "note": 32,
      "start": 24.1941,
      "duration": 0.1606,
      "velocity": 114,
      "chip": "ym2612"
    },
    {
      "channel": 3,
      "note": 68,
      "start": 24.2732,
      "duration": 0.166,
      "velocity": 108,
      "chip": "ym2612"
    },
    {
      "channel": 0,
      "note": 92,
      "start": 24.3579,
      "duration": 0.1828,
      "velocity": 111,
      "chip": "ym2612"
    },
    {
      "channel": 1,
      "note": 61,
      "start": 24.3585,
      "duration": 0.1831,
      "velocity": 101,
      "chip": "ym2612"
    },
    {
      "channel": 2,
      "note": 85,
      "start": 24.3591,
      "duration": 0.1832,
      "velocity": 111,
      "chip": "ym2612"
    },
    {
      "channel": 5,
      "note": 75,
      "start": 24.3606,
      "duration": 0.1775,
      "velocity": 120,
      "chip": "ym2612"
    },
    {
      "channel": 3,
      "note": 61,
      "start": 24.4398,
      "duration": 0.1033,
      "velocity": 108,
      "chip": "ym2612"
    },
    {
      "channel": 0,
      "note": 94,
      "start": 24.5414,
      "duration": 0.516,
      "velocity": 111,
      "chip": "ym2612"
    },
    {
      "channel": 1,
      "note": 62,
      "start": 24.5421,
      "duration": 0.3324,
      "velocity": 101,
      "chip": "ym2612"
    },
    {
      "channel": 2,
      "note": 86,
      "start": 24.5429,
      "duration": 0.5158,
      "velocity": 111,
      "chip": "ym2612"
    },
    {
      "channel": 3,
      "note": 64,
      "start": 24.5438,
      "duration": 0.0788,
      "velocity": 108,
      "chip": "ym2612"
    },
    {
      "channel": 4,
      "note": 92,
      "start": 24.5444,
      "duration": 0.1625,
      "velocity": 111,
      "chip": "ym2612"
    },
    {
      "channel": 5,
      "note": 32,
      "start": 24.5452,
      "duration": 0.2114,
      "velocity": 114,
      "chip": "ym2612"
    },
    {
      "channel": 3,
      "note": 64,
      "start": 24.6232,
      "duration": 0.083,
      "velocity": 108,
      "chip": "ym2612"
    },
    {
      "channel": 3,
      "note": 58,
      "start": 24.7068,
      "duration": 0.1688,
      "velocity": 108,
      "chip": "ym2612"
    },
    {
      "channel": 4,
      "note": 94,
      "start": 24.7076,
      "duration": 0.5159,
      "velocity": 111,
      "chip": "ym2612"
    },
    {
      "channel": 1,
      "note": 62,
      "start": 24.8749,
      "duration": 0.1833,
      "velocity": 101,
      "chip": "ym2612"
    },
    {
      "channel": 3,
      "note": 66,
      "start": 24.8762,
      "duration": 0.0798,
      "velocity": 108,
      "chip": "ym2612"
    },
    {
      "channel": 5,
      "note": 32,
      "start": 24.8774,
      "duration": 0.1774,
      "velocity": 114,
      "chip": "ym2612"
    },
    {
      "channel": 3,
      "note": 66,
      "start": 24.9566,
      "duration": 0.1826,
      "velocity": 108,
      "chip": "ym2612"
    },
    {
      "channel": 0,
      "note": 92,
      "start": 25.0581,
      "duration": 0.3326,
      "velocity": 111,
      "chip": "ym2612"
    },
    {
      "channel": 1,
      "note": 62,
      "start": 25.0586,
      "duration": 0.1632,
      "velocity": 101,
      "chip": "ym2612"
    },
    {
      "channel": 2,
      "note": 86,
      "start": 25.0594,
      "duration": 0.3327,
      "velocity": 111,
      "chip": "ym2612"
    },
    {
      "channel": 5,
      "note": 75,
      "start": 25.061,
      "duration": 0.3271,
      "velocity": 120,
      "chip": "ym2612"
    },
    {
      "channel": 3,
      "note": 58,
      "start": 25.1398,
      "duration": 0.0829,
      "velocity": 108,
      "chip": "ym2612"
    },
    {
      "channel": 1,
      "note": 62,
      "start": 25.2223,
      "duration": 0.1693,
      "velocity": 101,
      "chip": "ym2612"
    },
    {
      "channel": 3,
      "note": 62,
      "start": 25.2234,
      "duration": 0.0824,
      "velocity": 108,
      "chip": "ym2612"
    },
    {
      "channel": 4,
      "note": 92,
      "start": 25.2242,
      "duration": 0.3519,
      "velocity": 111,
      "chip": "ym2612"
    },
    {
      "channel": 3,
      "note": 62,
      "start": 25.3065,
      "duration": 0.0865,
      "velocity": 108,
      "chip": "ym2612"
    },
    {
      "channel": 0,
      "note": 90,
      "start": 25.3914,
      "duration": 0.3493,
      "velocity": 111,
      "chip": "ym2612"
    },
    {
      "channel": 1,
      "note": 62,
      "start": 25.3919,
      "duration": 0.1825,
      "velocity": 101,
      "chip": "ym2612"
    },
    {
      "channel": 2,
      "note": 82,
      "start": 25.3928,
      "duration": 0.3493,
      "velocity": 111,
      "chip": "ym2612"
    },
    {
      "channel": 3,
      "note": 58,
      "start": 25.3936,
      "duration": 0.1817,
      "velocity": 108,
      "chip": "ym2612"
    },
    {
      "channel": 5,
      "note": 32,
      "start": 25.3947,
      "duration": 0.1767,
      "velocity": 114,
      "chip": "ym2612"
    },
    {
      "channel": 1,
      "note": 62,
      "start": 25.5748,
      "duration": 0.1667,
      "velocity": 101,
      "chip": "ym2612"
    },
    {
      "channel": 3,
      "note": 66,
      "start": 25.576,
      "duration": 0.0799,
      "velocity": 108,
      "chip": "ym2612"
    },
    {
      "channel": 4,
      "note": 90,
      "start": 25.5768,
      "duration": 0.3327,
      "velocity": 111,
      "chip": "ym2612"
    },
    {
      "channel": 5,
      "note": 32,
      "start": 25.5776,
      "duration": 0.1605,
      "velocity": 114,
      "chip": "ym2612"
    },
    {
      "channel": 3,
      "note": 66,
      "start": 25.6564,
      "duration": 0.1661,
      "velocity": 108,
      "chip": "ym2612"
    },
    {
      "channel": 0,
      "note": 89,
      "start": 25.7414,
      "duration": 0.3303,
      "velocity": 111,
      "chip": "ym2612"
    },
    {
      "channel": 1,
      "note": 62,
      "start": 25.7419,
      "duration": 0.1659,
      "velocity": 101,
      "chip": "ym2612"
    },
    {
      "channel": 2,
      "note": 82,
      "start": 25.7428,
      "duration": 0.3301,
      "velocity": 111,
      "chip": "ym2612"
    },
    {
      "channel": 5,
      "note": 75,
      "start": 25.7442,
      "duration": 0.1606,
      "velocity": 120,
      "chip": "ym2612"
    },
    {
      "channel": 3,
      "note": 58,
      "start": 25.8232,
      "duration": 0.0855,
      "velocity": 108,
      "chip": "ym2612"
    },
    {
      "channel": 1,
      "note": 62,
      "start": 25.9081,
      "duration": 0.1644,
      "velocity": 101,
      "chip": "ym2612"
    },
    {
      "channel": 3,
      "note": 62,
      "start": 25.9093,
      "duration": 0.0799,
      "velocity": 108,
      "chip": "ym2612"
    },
    {
      "channel": 4,
      "note": 89,
      "start": 25.9101,
      "duration": 0.3503,
      "velocity": 111,
      "chip": "ym2612"
    },
    {
      "channel": 5,
      "note": 32,
      "start": 25.911,
      "duration": 0.2288,
      "velocity": 114,
      "chip": "ym2612"
    },
    {
      "channel": 3,
      "note": 62,
      "start": 25.9898,
      "duration": 0.0839,
      "velocity": 108,
      "chip": "ym2612"
    },
    {
      "channel": 0,
      "note": 89,
      "start": 26.0724,
      "duration": 0.185,
      "velocity": 111,
      "chip": "ym2612"
    },
    {
      "channel": 2,
      "note": 82,
      "start": 26.0735,
      "duration": 0.1854,
      "velocity": 111,
      "chip": "ym2612"
    },
    {
      "channel": 3,
      "note": 58,
      "start": 26.0744,
      "duration": 0.1852,
      "velocity": 108,
      "chip": "ym2612"
    },
    {
      "channel": 0,
      "note": 90,
      "start": 26.2581,
      "duration": 0.166,
      "velocity": 111,
      "chip": "ym2612"
    },
    {
      "channel": 1,
      "note": 65,
      "start": 26.2588,
      "duration": 0.1661,
      "velocity": 101,
      "chip": "ym2612"
    },
    {
      "channel": 2,
      "note": 82,
      "start": 26.2594,
      "duration": 0.1661,
      "velocity": 111,
      "chip": "ym2612"
    },
    {
      "channel": 3,
      "note": 66,
      "start": 26.2602,
      "duration": 0.079,
      "velocity": 108,
      "chip": "ym2612"
    },
    {
      "channel": 4,
      "note": 89,
      "start": 26.2611,
      "duration": 0.1655,
      "velocity": 111,
      "chip": "ym2612"
    },
    {
      "channel": 5,
      "note": 32,
      "start": 26.2618,
      "duration": 0.1596,
      "velocity": 114,
      "chip": "ym2612"
    },
    {
      "channel": 3,
      "note": 66,
      "start": 26.3397,
      "duration": 0.1661,
      "velocity": 108,
      "chip": "ym2612"
    },
    {
      "channel": 0,
      "note": 89,
      "start": 26.4248,
      "duration": 0.1634,
      "velocity": 111,
      "chip": "ym2612"
    },
    {
      "channel": 1,
      "note": 66,
      "start": 26.4254,
      "duration": 0.1636,
      "velocity": 101,
      "chip": "ym2612"
    },
    {
      "channel": 2,
      "note": 82,
      "start": 26.4261,
      "duration": 0.1636,
      "velocity": 111,
      "chip": "ym2612"
    },
    {
      "channel": 4,
      "note": 90,
      "start": 26.4272,
      "duration": 0.1639,
      "velocity": 111,
      "chip": "ym2612"
    },
    {
      "channel": 5,
      "note": 75,
      "start": 26.4279,
      "duration": 0.3435,
      "velocity": 120,
      "chip": "ym2612"
    },
    {
      "channel": 3,
      "note": 58,
      "start": 26.5066,
      "duration": 0.0838,
      "velocity": 108,
      "chip": "ym2612"
    },
    {
      "channel": 0,
      "note": 87,
      "start": 26.5888,
      "duration": 0.8713,
      "velocity": 106,
      "chip": "ym2612"
    },
    {
      "channel": 1,
      "note": 63,
      "start": 26.5896,
      "duration": 0.1851,
      "velocity": 101,
      "chip": "ym2612"
    },
    {
      "channel": 2,
      "note": 82,
      "start": 26.5902,
      "duration": 0.8741,
      "velocity": 106,
      "chip": "ym2612"
    },
    {
      "channel": 3,
      "note": 63,
      "start": 26.591,
      "duration": 0.0982,
      "velocity": 108,
      "chip": "ym2612"
    },
    {
      "channel": 4,
      "note": 89,
      "start": 26.5918,
      "duration": 0.1849,
      "velocity": 111,
      "chip": "ym2612"
    },
    {
      "channel": 3,
      "note": 63,
      "start": 26.6898,
      "duration": 0.086,
      "velocity": 108,
      "chip": "ym2612"
    },
    {
      "channel": 1,
      "note": 65,
      "start": 26.7752,
      "duration": 0.166,
      "velocity": 101,
      "chip": "ym2612"
    },
    {
      "channel": 3,
      "note": 58,
      "start": 26.7765,
      "duration": 0.1659,
      "velocity": 108,
      "chip": "ym2612"
    },
    {
      "channel": 4,
      "note": 87,
      "start": 26.7774,
      "duration": 0.8528,
      "velocity": 106,
      "chip": "ym2612"
    },
    {
      "channel": 5,
      "note": 32,
      "start": 26.7782,
      "duration": 0.1599,
      "velocity": 114,
      "chip": "ym2612"
    },
    {
      "channel": 1,
      "note": 63,
      "start": 26.9418,
      "duration": 0.3494,
      "velocity": 101,
      "chip": "ym2612"
    },
    {
      "channel": 3,
      "note": 66,
      "start": 26.9431,
      "duration": 0.0796,
      "velocity": 108,
      "chip": "ym2612"
    },
    {
      "channel": 5,
      "note": 32,
      "start": 26.9445,
      "duration": 0.1603,
      "velocity": 114,
      "chip": "ym2612"
    },
    {
      "channel": 3,
      "note": 66,
      "start": 27.0232,
      "duration": 0.1662,
      "velocity": 108,
      "chip": "ym2612"
    },
    {
      "channel": 5,
      "note": 75,
      "start": 27.1101,
      "duration": 0.178,
      "velocity": 120,
      "chip": "ym2612"
    },
    {
      "channel": 3,
      "note": 58,
      "start": 27.1901,
      "duration": 0.1021,
      "velocity": 108,
      "chip": "ym2612"
    },
    {
      "channel": 1,
      "note": 63,
      "start": 27.2916,
      "duration": 0.1693,
      "velocity": 101,
      "chip": "ym2612"
    },
    {
      "channel": 3,
      "note": 63,
      "start": 27.2928,
      "duration": 0.0799,
      "velocity": 108,
      "chip": "ym2612"
    },
    {
      "channel": 5,
      "note": 32,
      "start": 27.2941,
      "duration": 0.1607,
      "velocity": 114,
      "chip": "ym2612"
    },
    {
      "channel": 3,
      "note": 63,
      "start": 27.3734,
      "duration": 0.0941,
      "velocity": 106,
      "chip": "ym2612"
    },
    {
      "channel": 0,
      "note": 92,
      "start": 27.4607,
      "duration": 0.1637,
      "velocity": 106,
      "chip": "ym2612"
    },
    {
      "channel": 1,
      "note": 61,
      "start": 27.4615,
      "duration": 0.3469,
      "velocity": 101,
      "chip": "ym2612"
    },
    {
      "channel": 2,
      "note": 89,
      "start": 27.4649,
      "duration": 0.1609,
      "velocity": 106,
      "chip": "ym2612"
    },
    {
      "channel": 3,
      "note": 73,
      "start": 27.4681,
      "duration": 0.1586,
      "velocity": 106,
      "chip": "ym2612"
    },
    {
      "channel": 5,
      "note": 75,
      "start": 27.4693,
      "duration": 0.1521,
      "velocity": 120,
      "chip": "ym2612"
    },
    {
      "channel": 0,
      "note": 92,
      "start": 27.6249,
      "duration": 0.1828,
      "velocity": 106,
      "chip": "ym2612"
    },
    {
      "channel": 2,
      "note": 89,
      "start": 27.6263,
      "duration": 0.1831,
      "velocity": 106,
      "chip": "ym2612"
    },
    {
      "channel": 3,
      "note": 73,
      "start": 27.6273,
      "duration": 0.1831,
      "velocity": 106,
      "chip": "ym2612"
    },
    {
      "channel": 4,
      "note": 92,
      "start": 27.6309,
      "duration": 0.1805,
      "velocity": 106,
      "chip": "ym2612"
    },
    {
      "channel": 5,
      "note": 32,
      "start": 27.6317,
      "duration": 0.1731,
      "velocity": 114,
      "chip": "ym2612"
    },
    {
      "channel": 0,
      "note": 92,
      "start": 27.8083,
      "duration": 0.1636,
      "velocity": 106,
      "chip": "ym2612"
    },
    {
      "channel": 1,
      "note": 61,
      "start": 27.8088,
      "duration": 0.3323,
      "velocity": 101,
      "chip": "ym2612"
    },
    {
      "channel": 2,
      "note": 89,
      "start": 27.8098,
      "duration": 0.1634,
      "velocity": 106,
      "chip": "ym2612"
    },
    {
      "channel": 3,
      "note": 73,
      "start": 27.8109,
      "duration": 0.1634,
      "velocity": 106,
      "chip": "ym2612"
    },
    {
      "channel": 4,
      "note": 92,
      "start": 27.8119,
      "duration": 0.1634,
      "velocity": 106,
      "chip": "ym2612"
    },
    {
      "channel": 5,
      "note": 75,
      "start": 27.8126,
      "duration": 0.3255,
      "velocity": 120,
      "chip": "ym2612"
    },
    {
      "channel": 0,
      "note": 92,
      "start": 27.9724,
      "duration": 0.1683,
      "velocity": 106,
      "chip": "ym2612"
    },
    {
      "channel": 2,
      "note": 89,
      "start": 27.9737,
      "duration": 0.1676,
      "velocity": 106,
      "chip": "ym2612"
    },
    {
      "channel": 3,
      "note": 73,
      "start": 27.9748,
      "duration": 0.167,
      "velocity": 106,
      "chip": "ym2612"
    },
    {
      "channel": 4,
      "note": 92,
      "start": 27.9758,
      "duration": 0.1667,
      "velocity": 106,
      "chip": "ym2612"
    },
    {
      "channel": 4,
      "note": 92,
      "start": 28.1429,
      "duration": 0.1683,
      "velocity": 106,
      "chip": "ym2612"
    },
    {
      "channel": 5,
      "note": 32,
      "start": 28.1438,
      "duration": 0.161,
      "velocity": 114,
      "chip": "ym2612"
    },
    {
      "channel": 0,
      "note": 92,
      "start": 28.3083,
      "duration": 0.1828,
      "velocity": 106,
      "chip": "ym2612"
    },
    {
      "channel": 1,
      "note": 61,
      "start": 28.309,
      "duration": 0.0962,
      "velocity": 101,
      "chip": "ym2612"
    },
    {
      "channel": 2,
      "note": 89,
      "start": 28.31,
      "duration": 0.1827,
      "velocity": 106,
      "chip": "ym2612"
    },
    {
      "channel": 3,
      "note": 73,
      "start": 28.3111,
      "duration": 0.1827,
      "velocity": 106,
      "chip": "ym2612"
    },
    {
      "channel": 5,
      "note": 75,
      "start": 28.3121,
      "duration": 0.176,
      "velocity": 120,
      "chip": "ym2612"
    },
    {
      "channel": 1,
      "note": 61,
      "start": 28.4056,
      "duration": 0.0861,
      "velocity": 101,
      "chip": "ym2612"
    },
    {
      "channel": 0,
      "note": 92,
      "start": 28.4916,
      "duration": 0.1662,
      "velocity": 106,
      "chip": "ym2612"
    },
    {
      "channel": 1,
      "note": 61,
      "start": 28.4922,
      "duration": 0.1662,
      "velocity": 101,
      "chip": "ym2612"
    },
    {
      "channel": 2,
      "note": 89,
      "start": 28.4932,
      "duration": 0.1662,
      "velocity": 106,
      "chip": "ym2612"
    },
    {
      "channel": 3,
      "note": 73,
      "start": 28.4942,
      "duration": 0.1662,
      "velocity": 106,
      "chip": "ym2612"
    },
    {
      "channel": 4,
      "note": 92,
      "start": 28.4952,
      "duration": 0.1662,
      "velocity": 106,
      "chip": "ym2612"
    },
    {
      "channel": 5,
      "note": 75,
      "start": 28.4959,
      "duration": 0.1588,
      "velocity": 120,
      "chip": "ym2612"
    },
    {
      "channel": 0,
      "note": 92,
      "start": 28.6583,
      "duration": 0.1686,
      "velocity": 111,
      "chip": "ym2612"
    },
    {
      "channel": 1,
      "note": 61,
      "start": 28.6588,
      "duration": 0.1689,
      "velocity": 101,
      "chip": "ym2612"
    },
    {
      "channel": 2,
      "note": 89,
      "start": 28.6599,
      "duration": 0.1712,
      "velocity": 110,
      "chip": "ym2612"
    },
    {
      "channel": 3,
      "note": 73,
      "start": 28.6609,
      "duration": 0.1735,
      "velocity": 108,
      "chip": "ym2612"
    },
    {
      "channel": 4,
      "note": 92,
      "start": 28.6619,
      "duration": 0.1737,
      "velocity": 106,
      "chip": "ym2612"
    },
    {
      "channel": 5,
      "note": 75,
      "start": 28.6626,
      "duration": 0.159,
      "velocity": 120,
      "chip": "ym2612"
    },
    {
      "channel": 0,
      "note": 90,
      "start": 28.8275,
      "duration": 0.6966,
      "velocity": 111,
      "chip": "ym2612"
    },
    {
      "channel": 1,
      "note": 59,
      "start": 28.8283,
      "duration": 0.1795,
      "velocity": 101,
      "chip": "ym2612"
    },
    {
      "channel": 2,
      "note": 87,
      "start": 28.8317,
      "duration": 0.6938,
      "velocity": 110,
      "chip": "ym2612"
    },
    {
      "channel": 3,
      "note": 59,
      "start": 28.8351,
      "duration": 0.1736,
      "velocity": 108,
      "chip": "ym2612"
    },
    {
      "channel": 4,
      "note": 92,
      "start": 28.8361,
      "duration": 0.176,
      "velocity": 111,
      "chip": "ym2612"
    },
    {
      "channel": 5,
      "note": 32,
      "start": 28.8369,
      "duration": 0.1679,
      "velocity": 114,
      "chip": "ym2612"
    },
    {
      "channel": 1,
      "note": 59,
      "start": 29.0081,
      "duration": 0.0804,
      "velocity": 101,
      "chip": "ym2612"
    },
    {
      "channel": 3,
      "note": 59,
      "start": 29.0092,
      "duration": 0.0802,
      "velocity": 108,
      "chip": "ym2612"
    },
    {
      "channel": 4,
      "note": 90,
      "start": 29.0128,
      "duration": 0.6783,
      "velocity": 111,
      "chip": "ym2612"
    },
    {
      "channel": 5,
      "note": 32,
      "start": 29.0136,
      "duration": 0.1578,
      "velocity": 114,
      "chip": "ym2612"
    },
    {
      "channel": 1,
      "note": 59,
      "start": 29.0889,
      "duration": 0.0857,
      "velocity": 101,
      "chip": "ym2612"
    },
    {
      "channel": 3,
      "note": 59,
      "start": 29.0899,
      "duration": 0.0859,
      "velocity": 108,
      "chip": "ym2612"
    },
    {
      "channel": 1,
      "note": 59,
      "start": 29.1752,
      "duration": 0.1634,
      "velocity": 101,
      "chip": "ym2612"
    },
    {
      "channel": 3,
      "note": 71,
      "start": 29.1765,
      "duration": 0.1631,
      "velocity": 108,
      "chip": "ym2612"
    },
    {
      "channel": 5,
      "note": 75,
      "start": 29.1776,
      "duration": 0.3439,
      "velocity": 120,
      "chip": "ym2612"
    },
    {
      "channel": 1,
      "note": 59,
      "start": 29.3391,
      "duration": 0.0829,
      "velocity": 101,
      "chip": "ym2612"
    },
    {
      "channel": 3,
      "note": 59,
      "start": 29.3403,
      "duration": 0.186,
      "velocity": 108,
      "chip": "ym2612"
    },
    {
      "channel": 1,
      "note": 59,
      "start": 29.4224,
      "duration": 0.1024,
      "velocity": 101,
      "chip": "ym2612"
    },
    {
      "channel": 0,
      "note": 90,
      "start": 29.5246,
      "duration": 0.1636,
      "velocity": 111,
      "chip": "ym2612"
    },
    {
      "channel": 1,
      "note": 59,
      "start": 29.5254,
      "duration": 0.1636,
      "velocity": 101,
      "chip": "ym2612"
    },
    {
      "channel": 2,
      "note": 87,
      "start": 29.526,
      "duration": 0.1635,
      "velocity": 110,
      "chip": "ym2612"
    },
    {
      "channel": 3,
      "note": 59,
      "start": 29.5269,
      "duration": 0.1635,
      "velocity": 108,
      "chip": "ym2612"
    },
    {
      "channel": 5,
      "note": 32,
      "start": 29.5282,
      "duration": 0.2118,
      "velocity": 114,
      "chip": "ym2612"
    },
    {
      "channel": 0,
      "note": 89,
      "start": 29.6888,
      "duration": 0.1686,
      "velocity": 111,
      "chip": "ym2612"
    },
    {
      "channel": 1,
      "note": 59,
      "start": 29.6894,
      "duration": 0.0824,
      "velocity": 101,
      "chip": "ym2612"
    },
    {
      "channel": 2,
      "note": 85,
      "start": 29.6902,
      "duration": 0.1683,
      "velocity": 110,
      "chip": "ym2612"
    },
    {
      "channel": 3,
      "note": 59,
      "start": 29.6909,
      "duration": 0.0818,
      "velocity": 108,
      "chip": "ym2612"
    },
    {
      "channel": 4,
      "note": 90,
      "start": 29.6915,
      "duration": 0.1681,
      "velocity": 111,
      "chip": "ym2612"
    },
    {
      "channel": 1,
      "note": 59,
      "start": 29.7723,
      "duration": 0.0856,
      "velocity": 101,
      "chip": "ym2612"
    },
    {
      "channel": 3,
      "note": 59,
      "start": 29.7732,
      "duration": 0.0856,
      "velocity": 108,
      "chip": "ym2612"
    },
    {
      "channel": 1,
      "note": 59,
      "start": 29.8584,
      "duration": 0.1806,
      "velocity": 101,
      "chip": "ym2612"
    },
    {
      "channel": 3,
      "note": 71,
      "start": 29.8595,
      "duration": 0.1809,
      "velocity": 108,
      "chip": "ym2612"
    },
    {
      "channel": 4,
      "note": 89,
      "start": 29.8603,
      "duration": 0.1808,
      "velocity": 111,
      "chip": "ym2612"
    },
    {
      "channel": 5,
      "note": 75,
      "start": 29.8611,
      "duration": 0.3437,
      "velocity": 120,
      "chip": "ym2612"
    },
    {
      "channel": 0,
      "note": 90,
      "start": 30.0388,
      "duration": 0.3327,
      "velocity": 111,
      "chip": "ym2612"
    },
    {
      "channel": 1,
      "note": 59,
      "start": 30.0394,
      "duration": 0.0824,
      "velocity": 101,
      "chip": "ym2612"
    },
    {
      "channel": 2,
      "note": 87,
      "start": 30.0402,
      "duration": 0.3327,
      "velocity": 110,
      "chip": "ym2612"
    },
    {
      "channel": 3,
      "note": 59,
      "start": 30.041,
      "duration": 0.1679,
      "velocity": 108,
      "chip": "ym2612"
    },
    {
      "channel": 1,
      "note": 59,
      "start": 30.1223,
      "duration": 0.0856,
      "velocity": 101,
      "chip": "ym2612"
    },
    {
      "channel": 1,
      "note": 59,
      "start": 30.2084,
      "duration": 0.1639,
      "velocity": 101,
      "chip": "ym2612"
    },
    {
      "channel": 3,
      "note": 59,
      "start": 30.2097,
      "duration": 0.1641,
      "velocity": 108,
      "chip": "ym2612"
    },
    {
      "channel": 4,
      "note": 90,
      "start": 30.2105,
      "duration": 0.3325,
      "velocity": 111,
      "chip": "ym2612"
    },
    {
      "channel": 5,
      "note": 32,
      "start": 30.2113,
      "duration": 0.2287,
      "velocity": 114,
      "chip": "ym2612"
    },
    {
      "channel": 0,
      "note": 87,
      "start": 30.3722,
      "duration": 0.1686,
      "velocity": 111,
      "chip": "ym2612"
    },
    {
      "channel": 1,
      "note": 59,
      "start": 30.3727,
      "duration": 0.0824,
      "velocity": 101,
      "chip": "ym2612"
    },
    {
      "channel": 2,
      "note": 83,
      "start": 30.3735,
      "duration": 0.1683,
      "velocity": 110,
      "chip": "ym2612"
    },
    {
      "channel": 3,
      "note": 59,
      "start": 30.3742,
      "duration": 0.0818,
      "velocity": 108,
      "chip": "ym2612"
    },
    {
      "channel": 1,
      "note": 59,
      "start": 30.4556,
      "duration": 0.0856,
      "velocity": 101,
      "chip": "ym2612"
    },
    {
      "channel": 3,
      "note": 59,
      "start": 30.4566,
      "duration": 0.0856,
      "velocity": 108,
      "chip": "ym2612"
    },
    {
      "channel": 1,
      "note": 59,
      "start": 30.5417,
      "duration": 0.1806,
      "velocity": 101,
      "chip": "ym2612"
    },
    {
      "channel": 3,
      "note": 71,
      "start": 30.5429,
      "duration": 0.1809,
      "velocity": 108,
      "chip": "ym2612"
    },
    {
      "channel": 4,
      "note": 87,
      "start": 30.5437,
      "duration": 0.1808,
      "velocity": 111,
      "chip": "ym2612"
    },
    {
      "channel": 5,
      "note": 75,
      "start": 30.5444,
      "duration": 0.3437,
      "velocity": 120,
      "chip": "ym2612"
    },
    {
      "channel": 0,
      "note": 87,
      "start": 30.7222,
      "duration": 0.1686,
      "velocity": 111,
      "chip": "ym2612"
    },
    {
      "channel": 1,
      "note": 59,
      "start": 30.7227,
      "duration": 0.0824,
      "velocity": 101,
      "chip": "ym2612"
    },
    {
      "channel": 2,
      "note": 83,
      "start": 30.7235,
      "duration": 0.1688,
      "velocity": 110,
      "chip": "ym2612"
    },
    {
      "channel": 3,
      "note": 59,
      "start": 30.7244,
      "duration": 0.1689,
      "velocity": 108,
      "chip": "ym2612"
    },
    {
      "channel": 1,
      "note": 59,
      "start": 30.8056,
      "duration": 0.086,
      "velocity": 101,
      "chip": "ym2612"
    },
    {
      "channel": 0,
      "note": 90,
      "start": 30.8914,
      "duration": 0.3493,
      "velocity": 111,
      "chip": "ym2612"
    },
    {
      "channel": 1,
      "note": 59,
      "start": 30.8922,
      "duration": 0.1656,
      "velocity": 101,
      "chip": "ym2612"
    },
    {
      "channel": 2,
      "note": 87,
      "start": 30.893,
      "duration": 0.3494,
      "velocity": 110,
      "chip": "ym2612"
    },
    {
      "channel": 3,
      "note": 59,
      "start": 30.8939,
      "duration": 0.1648,
      "velocity": 108,
      "chip": "ym2612"
    },
    {
      "channel": 4,
      "note": 87,
      "start": 30.8947,
      "duration": 0.1646,
      "velocity": 111,
      "chip": "ym2612"
    },
    {
      "channel": 5,
      "note": 32,
      "start": 30.8956,
      "duration": 0.1592,
      "velocity": 114,
      "chip": "ym2612"
    },
    {
      "channel": 1,
      "note": 59,
      "start": 31.0581,
      "duration": 0.097,
      "velocity": 101,
      "chip": "ym2612"
    },
    {
      "channel": 3,
      "note": 59,
      "start": 31.0592,
      "duration": 0.097,
      "velocity": 108,
      "chip": "ym2612"
    },
    {
      "channel": 4,
      "note": 90,
      "start": 31.06,
      "duration": 0.3469,
      "velocity": 111,
      "chip": "ym2612"
    },
    {
      "channel": 5,
      "note": 32,
      "start": 31.0608,
      "duration": 0.1773,
      "velocity": 114,
      "chip": "ym2612"
    },
    {
      "channel": 1,
      "note": 59,
      "start": 31.1556,
      "duration": 0.0861,
      "velocity": 101,
      "chip": "ym2612"
    },
    {
      "channel": 3,
      "note": 59,
      "start": 31.1566,
      "duration": 0.0866,
      "velocity": 108,
      "chip": "ym2612"
    },
    {
      "channel": 0,
      "note": 94,
      "start": 31.2414,
      "duration": 0.3327,
      "velocity": 111,
      "chip": "ym2612"
    },
    {
      "channel": 1,
      "note": 59,
      "start": 31.2422,
      "duration": 0.1629,
      "velocity": 101,
      "chip": "ym2612"
    },
    {
      "channel": 2,
      "note": 90,
      "start": 31.243,
      "duration": 0.3328,
      "velocity": 110,
      "chip": "ym2612"
    },
    {
      "channel": 3,
      "note": 71,
      "start": 31.2438,
      "duration": 0.1622,
      "velocity": 108,
      "chip": "ym2612"
    },
    {
      "channel": 5,
      "note": 75,
      "start": 31.2449,
      "duration": 0.3266,
      "velocity": 120,
      "chip": "ym2612"
    },
    {
      "channel": 1,
      "note": 59,
      "start": 31.4056,
      "duration": 0.0829,
      "velocity": 101,
      "chip": "ym2612"
    },
    {
      "channel": 3,
      "note": 59,
      "start": 31.4068,
      "duration": 0.17,
      "velocity": 108,
      "chip": "ym2612"
    },
    {
      "channel": 4,
      "note": 94,
      "start": 31.4076,
      "duration": 0.3517,
      "velocity": 111,
      "chip": "ym2612"
    },
    {
      "channel": 1,
      "note": 59,
      "start": 31.4889,
      "duration": 0.0861,
      "velocity": 101,
      "chip": "ym2612"
    },
    {
      "channel": 0,
      "note": 92,
      "start": 31.5748,
      "duration": 1.0326,
      "velocity": 111,
      "chip": "ym2612"
    },
    {
      "channel": 1,
      "note": 61,
      "start": 31.5756,
      "duration": 0.1821,
      "velocity": 101,
      "chip": "ym2612"
    },
    {
      "channel": 2,
      "note": 89,
      "start": 31.5765,
      "duration": 1.0321,
      "velocity": 110,
      "chip": "ym2612"
    },
    {
      "channel": 3,
      "note": 61,
      "start": 31.5774,
      "duration": 0.1813,
      "velocity": 108,
      "chip": "ym2612"
    },
    {
      "channel": 5,
      "note": 32,
      "start": 31.5785,
      "duration": 0.1763,
      "velocity": 114,
      "chip": "ym2612"
    },
    {
      "channel": 1,
      "note": 61,
      "start": 31.7581,
      "duration": 0.0804,
      "velocity": 101,
      "chip": "ym2612"
    },
    {
      "channel": 3,
      "note": 61,
      "start": 31.7592,
      "duration": 0.0802,
      "velocity": 108,
      "chip": "ym2612"
    },
    {
      "channel": 4,
      "note": 92,
      "start": 31.76,
      "duration": 1.0145,
      "velocity": 111,
      "chip": "ym2612"
    },
    {
      "channel": 5,
      "note": 32,
      "start": 31.7608,
      "duration": 0.1606,
      "velocity": 114,
      "chip": "ym2612"
    },
    {
      "channel": 1,
      "note": 61,
      "start": 31.8389,
      "duration": 0.0857,
      "velocity": 101,
      "chip": "ym2612"
    },
    {
      "channel": 3,
      "note": 61,
      "start": 31.8399,
      "duration": 0.0859,
      "velocity": 108,
      "chip": "ym2612"
    },
    {
      "channel": 1,
      "note": 61,
      "start": 31.9252,
      "duration": 0.1634,
      "velocity": 101,
      "chip": "ym2612"
    },
    {
      "channel": 3,
      "note": 73,
      "start": 31.9265,
      "duration": 0.1631,
      "velocity": 108,
      "chip": "ym2612"
    },
    {
      "channel": 5,
      "note": 75,
      "start": 31.9276,
      "duration": 0.3439,
      "velocity": 120,
      "chip": "ym2612"
    },
    {
      "channel": 1,
      "note": 61,
      "start": 32.0891,
      "duration": 0.0829,
      "velocity": 101,
      "chip": "ym2612"
    },
    {
      "channel": 3,
      "note": 61,
      "start": 32.0903,
      "duration": 0.1856,
      "velocity": 108,
      "chip": "ym2612"
    },
    {
      "channel": 1,
      "note": 61,
      "start": 32.1724,
      "duration": 0.1022,
      "velocity": 101,
      "chip": "ym2612"
    },
    {
      "channel": 1,
      "note": 61,
      "start": 32.2752,
      "duration": 0.1634,
      "velocity": 101,
      "chip": "ym2612"
    },
    {
      "channel": 3,
      "note": 61,
      "start": 32.2765,
      "duration": 0.1631,
      "velocity": 108,
      "chip": "ym2612"
    },
    {
      "channel": 5,
      "note": 32,
      "start": 32.2778,
      "duration": 0.2125,
      "velocity": 114,
      "chip": "ym2612"
    },
    {
      "channel": 1,
      "note": 61,
      "start": 32.4391,
      "duration": 0.0829,
      "velocity": 101,
      "chip": "ym2612"
    },
    {
      "channel": 3,
      "note": 61,
      "start": 32.4402,
      "duration": 0.0829,
      "velocity": 108,
      "chip": "ym2612"
    },
    {
      "channel": 1,
      "note": 61,
      "start": 32.5224,
      "duration": 0.0854,
      "velocity": 101,
      "chip": "ym2612"
    },
    {
      "channel": 3,
      "note": 61,
      "start": 32.5235,
      "duration": 0.0853,
      "velocity": 108,
      "chip": "ym2612"
    },
    {
      "channel": 1,
      "note": 61,
      "start": 32.6084,
      "duration": 0.1639,
      "velocity": 101,
      "chip": "ym2612"
    },
    {
      "channel": 3,
      "note": 73,
      "start": 32.6095,
      "duration": 0.1642,
      "velocity": 108,
      "chip": "ym2612"
    },
    {
      "channel": 5,
      "note": 75,
      "start": 32.6107,
      "duration": 0.344,
      "velocity": 120,
      "chip": "ym2612"
    },
    {
      "channel": 0,
      "note": 90,
      "start": 32.7722,
      "duration": 0.1852,
      "velocity": 111,
      "chip": "ym2612"
    },
    {
      "channel": 1,
      "note": 61,
      "start": 32.7727,
      "duration": 0.0991,
      "velocity": 101,
      "chip": "ym2612"
    },
    {
      "channel": 2,
      "note": 87,
      "start": 32.7735,
      "duration": 0.1855,
      "velocity": 110,
      "chip": "ym2612"
    },
    {
      "channel": 3,
      "note": 61,
      "start": 32.7744,
      "duration": 0.1856,
      "velocity": 108,
      "chip": "ym2612"
    },
    {
      "channel": 1,
      "note": 61,
      "start": 32.8723,
      "duration": 0.0861,
      "velocity": 101,
      "chip": "ym2612"
    },
    {
      "channel": 0,
      "note": 85,
      "start": 32.9581,
      "duration": 0.3326,
      "velocity": 111,
      "chip": "ym2612"
    },
    {
      "channel": 1,
      "note": 61,
      "start": 32.9589,
      "duration": 0.1629,
      "velocity": 101,
      "chip": "ym2612"
    },
    {
      "channel": 2,
      "note": 80,
      "start": 32.9597,
      "duration": 0.3327,
      "velocity": 110,
      "chip": "ym2612"
    },
    {
      "channel": 3,
      "note": 61,
      "start": 32.9606,
      "duration": 0.1621,
      "velocity": 108,
      "chip": "ym2612"
    },
    {
      "channel": 4,
      "note": 90,
      "start": 32.9614,
      "duration": 0.162,
      "velocity": 111,
      "chip": "ym2612"
    },
    {
      "channel": 5,
      "note": 32,
      "start": 32.9622,
      "duration": 0.2277,
      "velocity": 114,
      "chip": "ym2612"
    },
    {
      "channel": 1,
      "note": 61,
      "start": 33.1223,
      "duration": 0.0829,
      "velocity": 101,
      "chip": "ym2612"
    },
    {
      "channel": 3,
      "note": 61,
      "start": 33.1232,
      "duration": 0.0828,
      "velocity": 108,
      "chip": "ym2612"
    },
    {
      "channel": 4,
      "note": 85,
      "start": 33.1241,
      "duration": 0.3494,
      "velocity": 111,
      "chip": "ym2612"
    },
    {
      "channel": 1,
      "note": 61,
      "start": 33.2056,
      "duration": 0.086,
      "velocity": 101,
      "chip": "ym2612"
    },
    {
      "channel": 3,
      "note": 61,
      "start": 33.2066,
      "duration": 0.0866,
      "velocity": 108,
      "chip": "ym2612"
    },
    {
      "channel": 0,
      "note": 87,
      "start": 33.2914,
      "duration": 0.3493,
      "velocity": 111,
      "chip": "ym2612"
    },
    {
      "channel": 1,
      "note": 61,
      "start": 33.2922,
      "duration": 0.1797,
      "velocity": 101,
      "chip": "ym2612"
    },
    {
      "channel": 2,
      "note": 85,
      "start": 33.293,
      "duration": 0.3494,
      "velocity": 110,
      "chip": "ym2612"
    },
    {
      "channel": 3,
      "note": 73,
      "start": 33.2938,
      "duration": 0.179,
      "velocity": 108,
      "chip": "ym2612"
    },
    {
      "channel": 5,
      "note": 75,
      "start": 33.2949,
      "duration": 0.3432,
      "velocity": 120,
      "chip": "ym2612"
    },
    {
      "channel": 1,
      "note": 61,
      "start": 33.4723,
      "duration": 0.0829,
      "velocity": 101,
      "chip": "ym2612"
    },
    {
      "channel": 3,
      "note": 61,
      "start": 33.4734,
      "duration": 0.1698,
      "velocity": 108,
      "chip": "ym2612"
    },
    {
      "channel": 4,
      "note": 87,
      "start": 33.4742,
      "duration": 0.3351,
      "velocity": 111,
      "chip": "ym2612"
    },
    {
      "channel": 1,
      "note": 61,
      "start": 33.5556,
      "duration": 0.086,
      "velocity": 101,
      "chip": "ym2612"
    },
    {
      "channel": 0,
      "note": 89,
      "start": 33.6414,
      "duration": 0.3493,
      "velocity": 111,
      "chip": "ym2612"
    },
    {
      "channel": 1,
      "note": 61,
      "start": 33.6422,
      "duration": 0.1656,
      "velocity": 101,
      "chip": "ym2612"
    },
    {
      "channel": 2,
      "note": 85,
      "start": 33.643,
      "duration": 0.3494,
      "velocity": 110,
      "chip": "ym2612"
    },
    {
      "channel": 3,
      "note": 61,
      "start": 33.6439,
      "duration": 0.1648,
      "velocity": 108,
      "chip": "ym2612"
    },
    {
      "channel": 5,
      "note": 32,
      "start": 33.6451,
      "duration": 0.1597,
      "velocity": 114,
      "chip": "ym2612"
    },
    {
      "channel": 1,
      "note": 61,
      "start": 33.8081,
      "duration": 0.0804,
      "velocity": 101,
      "chip": "ym2612"
    },
    {
      "channel": 3,
      "note": 61,
      "start": 33.8092,
      "duration": 0.0802,
      "velocity": 108,
      "chip": "ym2612"
    },
    {
      "channel": 4,
      "note": 89,
      "start": 33.81,
      "duration": 0.3469,
      "velocity": 111,
      "chip": "ym2612"
    },
    {
      "channel": 5,
      "note": 32,
      "start": 33.8107,
      "duration": 0.1774,
      "velocity": 114,
      "chip": "ym2612"
    },
    {
      "channel": 1,
      "note": 61,
      "start": 33.8889,
      "duration": 0.1027,
      "velocity": 101,
      "chip": "ym2612"
    },
    {
      "channel": 3,
      "note": 61,
      "start": 33.8899,
      "duration": 0.1033,
      "velocity": 108,
      "chip": "ym2612"
    },
    {
      "channel": 0,
      "note": 92,
      "start": 33.9914,
      "duration": 0.3327,
      "velocity": 111,
      "chip": "ym2612"
    },
    {
      "channel": 1,
      "note": 61,
      "start": 33.9922,
      "duration": 0.163,
      "velocity": 101,
      "chip": "ym2612"
    },
    {
      "channel": 2,
      "note": 89,
      "start": 33.993,
      "duration": 0.3328,
      "velocity": 110,
      "chip": "ym2612"
    },
    {
      "channel": 3,
      "note": 73,
      "start": 33.9938,
      "duration": 0.1623,
      "velocity": 108,
      "chip": "ym2612"
    },
    {
      "channel": 5,
      "note": 75,
      "start": 33.9949,
      "duration": 0.3266,
      "velocity": 120,
      "chip": "ym2612"
    },
    {
      "channel": 1,
      "note": 61,
      "start": 34.1556,
      "duration": 0.0829,
      "velocity": 101,
      "chip": "ym2612"
    },
    {
      "channel": 3,
      "note": 61,
      "start": 34.1568,
      "duration": 0.17,
      "velocity": 108,
      "chip": "ym2612"
    },
    {
      "channel": 4,
      "note": 92,
      "start": 34.1576,
      "duration": 0.3517,
      "velocity": 111,
      "chip": "ym2612"
    },
    {
      "channel": 1,
      "note": 61,
      "start": 34.2389,
      "duration": 0.0861,
      "velocity": 101,
      "chip": "ym2612"
    },
    {
      "channel": 0,
      "note": 93,
      "start": 34.3249,
      "duration": 0.6825,
      "velocity": 111,
      "chip": "ym2612"
    },
    {
      "channel": 1,
      "note": 62,
      "start": 34.3256,
      "duration": 0.1821,
      "velocity": 101,
      "chip": "ym2612"
    },
    {
      "channel": 2,
      "note": 90,
      "start": 34.3265,
      "duration": 0.6824,
      "velocity": 110,
      "chip": "ym2612"
    },
    {
      "channel": 3,
      "note": 62,
      "start": 34.3274,
      "duration": 0.1813,
      "velocity": 108,
      "chip": "ym2612"
    },
    {
      "channel": 5,
      "note": 32,
      "start": 34.3286,
      "duration": 0.1762,
      "velocity": 114,
      "chip": "ym2612"
    },
    {
      "channel": 1,
      "note": 62,
      "start": 34.5081,
      "duration": 0.0804,
      "velocity": 101,
      "chip": "ym2612"
    },
    {
      "channel": 3,
      "note": 62,
      "start": 34.5092,
      "duration": 0.0803,
      "velocity": 108,
      "chip": "ym2612"
    },
    {
      "channel": 4,
      "note": 93,
      "start": 34.51,
      "duration": 0.681,
      "velocity": 111,
      "chip": "ym2612"
    },
    {
      "channel": 5,
      "note": 32,
      "start": 34.5108,
      "duration": 0.1606,
      "velocity": 114,
      "chip": "ym2612"
    },
    {
      "channel": 1,
      "note": 62,
      "start": 34.5889,
      "duration": 0.0857,
      "velocity": 101,
      "chip": "ym2612"
    },
    {
      "channel": 3,
      "note": 62,
      "start": 34.59,
      "duration": 0.0859,
      "velocity": 108,
      "chip": "ym2612"
    },
    {
      "channel": 1,
      "note": 62,
      "start": 34.6752,
      "duration": 0.1634,
      "velocity": 101,
      "chip": "ym2612"
    },
    {
      "channel": 3,
      "note": 74,
      "start": 34.6765,
      "duration": 0.1631,
      "velocity": 108,
      "chip": "ym2612"
    },
    {
      "channel": 5,
      "note": 75,
      "start": 34.6776,
      "duration": 0.3272,
      "velocity": 120,
      "chip": "ym2612"
    },
    {
      "channel": 1,
      "note": 62,
      "start": 34.8391,
      "duration": 0.0829,
      "velocity": 101,
      "chip": "ym2612"
    },
    {
      "channel": 3,
      "note": 62,
      "start": 34.8403,
      "duration": 0.1693,
      "velocity": 108,
      "chip": "ym2612"
    },
    {
      "channel": 1,
      "note": 62,
      "start": 34.9224,
      "duration": 0.0857,
      "velocity": 101,
      "chip": "ym2612"
    },
    {
      "channel": 0,
      "note": 93,
      "start": 35.0079,
      "duration": 0.1803,
      "velocity": 111,
      "chip": "ym2612"
    },
    {
      "channel": 1,
      "note": 62,
      "start": 35.0087,
      "duration": 0.1803,
      "velocity": 101,
      "chip": "ym2612"
    },
    {
      "channel": 2,
      "note": 90,
      "start": 35.0094,
      "duration": 0.1802,
      "velocity": 110,
      "chip": "ym2612"
    },
    {
      "channel": 3,
      "note": 62,
      "start": 35.0102,
      "duration": 0.1802,
      "velocity": 108,
      "chip": "ym2612"
    },
    {
      "channel": 5,
      "note": 32,
      "start": 35.0115,
      "duration": 0.2284,
      "velocity": 114,
      "chip": "ym2612"
    },
    {
      "channel": 0,
      "note": 92,
      "start": 35.1888,
      "duration": 0.1686,
      "velocity": 111,
      "chip": "ym2612"
    },
    {
      "channel": 1,
      "note": 62,
      "start": 35.1894,
      "duration": 0.0824,
      "velocity": 101,
      "chip": "ym2612"
    },
    {
      "channel": 2,
      "note": 88,
      "start": 35.1902,
      "duration": 0.1683,
      "velocity": 110,
      "chip": "ym2612"
    },
    {
      "channel": 3,
      "note": 62,
      "start": 35.1909,
      "duration": 0.0819,
      "velocity": 108,
      "chip": "ym2612"
    },
    {
      "channel": 4,
      "note": 93,
      "start": 35.1915,
      "duration": 0.1681,
      "velocity": 111,
      "chip": "ym2612"
    },
    {
      "channel": 1,
      "note": 62,
      "start": 35.2723,
      "duration": 0.0856,
      "velocity": 101,
      "chip": "ym2612"
    },
    {
      "channel": 3,
      "note": 62,
      "start": 35.2733,
      "duration": 0.0856,
      "velocity": 108,
      "chip": "ym2612"
    },
    {
      "channel": 1,
      "note": 62,
      "start": 35.3584,
      "duration": 0.1639,
      "velocity": 101,
      "chip": "ym2612"
    },
    {
      "channel": 3,
      "note": 74,
      "start": 35.3595,
      "duration": 0.1642,
      "velocity": 108,
      "chip": "ym2612"
    },
    {
      "channel": 4,
      "note": 92,
      "start": 35.3603,
      "duration": 0.1642,
      "velocity": 111,
      "chip": "ym2612"
    },
    {
      "channel": 5,
      "note": 75,
      "start": 35.3611,
      "duration": 0.3437,
      "velocity": 120,
      "chip": "ym2612"
    },
    {
      "channel": 0,
      "note": 93,
      "start": 35.5222,
      "duration": 0.1852,
      "velocity": 111,
      "chip": "ym2612"
    },
    {
      "channel": 1,
      "note": 62,
      "start": 35.5227,
      "duration": 0.0991,
      "velocity": 101,
      "chip": "ym2612"
    },
    {
      "channel": 2,
      "note": 90,
      "start": 35.5235,
      "duration": 0.185,
      "velocity": 110,
      "chip": "ym2612"
    },
    {
      "channel": 3,
      "note": 62,
      "start": 35.5244,
      "duration": 0.1845,
      "velocity": 108,
      "chip": "ym2612"
    },
    {
      "channel": 1,
      "note": 62,
      "start": 35.6223,
      "duration": 0.0856,
      "velocity": 101,
      "chip": "ym2612"
    },
    {
      "channel": 1,
      "note": 62,
      "start": 35.7084,
      "duration": 0.1639,
      "velocity": 101,
      "chip": "ym2612"
    },
    {
      "channel": 3,
      "note": 62,
      "start": 35.7096,
      "duration": 0.1641,
      "velocity": 108,
      "chip": "ym2612"
    },
    {
      "channel": 4,
      "note": 93,
      "start": 35.7104,
      "duration": 0.1639,
      "velocity": 111,
      "chip": "ym2612"
    },
    {
      "channel": 5,
      "note": 32,
      "start": 35.7113,
      "duration": 0.2118,
      "velocity": 114,
      "chip": "ym2612"
    },
    {
      "channel": 0,
      "note": 93,
      "start": 35.8722,
      "duration": 0.1685,
      "velocity": 111,
      "chip": "ym2612"
    },
    {
      "channel": 1,
      "note": 62,
      "start": 35.8727,
      "duration": 0.0824,
      "velocity": 101,
      "chip": "ym2612"
    },
    {
      "channel": 2,
      "note": 90,
      "start": 35.8735,
      "duration": 0.1683,
      "velocity": 110,
      "chip": "ym2612"
    },
    {
      "channel": 3,
      "note": 62,
      "start": 35.8742,
      "duration": 0.0819,
      "velocity": 108,
      "chip": "ym2612"
    },
    {
      "channel": 1,
      "note": 62,
      "start": 35.9556,
      "duration": 0.0856,
      "velocity": 101,
      "chip": "ym2612"
    },
    {
      "channel": 3,
      "note": 62,
      "start": 35.9566,
      "duration": 0.0856,
      "velocity": 108,
      "chip": "ym2612"
    },
    {
      "channel": 1,
      "note": 62,
      "start": 36.0417,
      "duration": 0.1806,
      "velocity": 101,
      "chip": "ym2612"
    },
    {
      "channel": 3,
      "note": 74,
      "start": 36.0429,
      "duration": 0.1809,
      "velocity": 108,
      "chip": "ym2612"
    },
    {
      "channel": 4,
      "note": 93,
      "start": 36.0437,
      "duration": 0.1808,
      "velocity": 111,
      "chip": "ym2612"
    },
    {
      "channel": 5,
      "note": 75,
      "start": 36.0444,
      "duration": 0.3437,
      "velocity": 120,
      "chip": "ym2612"
    },
    {
      "channel": 0,
      "note": 93,
      "start": 36.2222,
      "duration": 0.1685,
      "velocity": 111,
      "chip": "ym2612"
    },
    {
      "channel": 1,
      "note": 62,
      "start": 36.2227,
      "duration": 0.0824,
      "velocity": 101,
      "chip": "ym2612"
    },
    {
      "channel": 2,
      "note": 90,
      "start": 36.2235,
      "duration": 0.1688,
      "velocity": 110,
      "chip": "ym2612"
    },
    {
      "channel": 3,
      "note": 62,
      "start": 36.2244,
      "duration": 0.1689,
      "velocity": 108,
      "chip": "ym2612"
    },
    {
      "channel": 1,
      "note": 62,
      "start": 36.3056,
      "duration": 0.0861,
      "velocity": 101,
      "chip": "ym2612"
    },
    {
      "channel": 0,
      "note": 90,
      "start": 36.3914,
      "duration": 0.3493,
      "velocity": 111,
      "chip": "ym2612"
    },
    {
      "channel": 1,
      "note": 62,
      "start": 36.3922,
      "duration": 0.1655,
      "velocity": 101,
      "chip": "ym2612"
    },
    {
      "channel": 2,
      "note": 86,
      "start": 36.3931,
      "duration": 0.3493,
      "velocity": 110,
      "chip": "ym2612"
    },
    {
      "channel": 3,
      "note": 62,
      "start": 36.394,
      "duration": 0.1647,
      "velocity": 108,
      "chip": "ym2612"
    },
    {
      "channel": 4,
      "note": 93,
      "start": 36.3948,
      "duration": 0.1645,
      "velocity": 111,
      "chip": "ym2612"
    },
    {
      "channel": 5,
      "note": 32,
      "start": 36.3956,
      "duration": 0.1592,
      "velocity": 114,
      "chip": "ym2612"
    },
    {
      "channel": 1,
      "note": 62,
      "start": 36.5581,
      "duration": 0.0804,
      "velocity": 101,
      "chip": "ym2612"
    },
    {
      "channel": 3,
      "note": 62,
      "start": 36.5592,
      "duration": 0.0802,
      "velocity": 108,
      "chip": "ym2612"
    },
    {
      "channel": 4,
      "note": 90,
      "start": 36.56,
      "duration": 0.3469,
      "velocity": 111,
      "chip": "ym2612"
    },
    {
      "channel": 5,
      "note": 32,
      "start": 36.5608,
      "duration": 0.1773,
      "velocity": 114,
      "chip": "ym2612"
    },
    {
      "channel": 1,
      "note": 62,
      "start": 36.6389,
      "duration": 0.1027,
      "velocity": 101,
      "chip": "ym2612"
    },
    {
      "channel": 3,
      "note": 62,
      "start": 36.6399,
      "duration": 0.1033,
      "velocity": 108,
      "chip": "ym2612"
    },
    {
      "channel": 0,
      "note": 93,
      "start": 36.7414,
      "duration": 0.3352,
      "velocity": 100,
      "chip": "ym2612"
    },
    {
      "channel": 1,
      "note": 62,
      "start": 36.7422,
      "duration": 0.1629,
      "velocity": 101,
      "chip": "ym2612"
    },
    {
      "channel": 2,
      "note": 90,
      "start": 36.743,
      "duration": 0.3382,
      "velocity": 100,
      "chip": "ym2612"
    },
    {
      "channel": 3,
      "note": 74,
      "start": 36.7438,
      "duration": 0.1623,
      "velocity": 108,
      "chip": "ym2612"
    },
    {
      "channel": 5,
      "note": 75,
      "start": 36.7449,
      "duration": 0.3266,
      "velocity": 120,
      "chip": "ym2612"
    },
    {
      "channel": 1,
      "note": 62,
      "start": 36.9056,
      "duration": 0.0829,
      "velocity": 101,
      "chip": "ym2612"
    },
    {
      "channel": 3,
      "note": 62,
      "start": 36.9068,
      "duration": 0.1775,
      "velocity": 106,
      "chip": "ym2612"
    },
    {
      "channel": 4,
      "note": 93,
      "start": 36.9076,
      "duration": 0.3389,
      "velocity": 100,
      "chip": "ym2612"
    },
    {
      "channel": 1,
      "note": 62,
      "start": 36.9889,
      "duration": 0.0886,
      "velocity": 101,
      "chip": "ym2612"
    },
    {
      "channel": 0,
      "note": 101,
      "start": 37.0773,
      "duration": 0.0801,
      "velocity": 100,
      "chip": "ym2612"
    },
    {
      "channel": 1,
      "note": 63,
      "start": 37.0781,
      "duration": 0.0801,
      "velocity": 101,
      "chip": "ym2612"
    },
    {
      "channel": 3,
      "note": 63,
      "start": 37.0849,
      "duration": 0.0748,
      "velocity": 106,
      "chip": "ym2612"
    },
    {
      "channel": 5,
      "note": 32,
      "start": 37.0861,
      "duration": 0.0687,
      "velocity": 114,
      "chip": "ym2612"
    },
    {
      "channel": 0,
      "note": 100,
      "start": 37.1581,
      "duration": 0.0826,
      "velocity": 100,
      "chip": "ym2612"
    },
    {
      "channel": 1,
      "note": 63,
      "start": 37.1588,
      "duration": 0.0828,
      "velocity": 101,
      "chip": "ym2612"
    },
    {
      "channel": 2,
      "note": 101,
      "start": 37.1596,
      "duration": 0.0826,
      "velocity": 100,
      "chip": "ym2612"
    },
    {
      "channel": 3,
      "note": 63,
      "start": 37.1602,
      "duration": 0.0828,
      "velocity": 106,
      "chip": "ym2612"
    },
    {
      "channel": 5,
      "note": 32,
      "start": 37.1615,
      "duration": 0.0767,
      "velocity": 114,
      "chip": "ym2612"
    },
    {
      "channel": 0,
      "note": 99,
      "start": 37.2414,
      "duration": 0.0993,
      "velocity": 100,
      "chip": "ym2612"
    },
    {
      "channel": 1,
      "note": 51,
      "start": 37.2421,
      "duration": 0.0994,
      "velocity": 101,
      "chip": "ym2612"
    },
    {
      "channel": 2,
      "note": 100,
      "start": 37.2429,
      "duration": 0.0993,
      "velocity": 100,
      "chip": "ym2612"
    },
    {
      "channel": 3,
      "note": 51,
      "start": 37.2437,
      "duration": 0.0994,
      "velocity": 106,
      "chip": "ym2612"
    },
    {
      "channel": 4,
      "note": 101,
      "start": 37.2472,
      "duration": 0.0967,
      "velocity": 100,
      "chip": "ym2612"
    },
    {
      "channel": 5,
      "note": 75,
      "start": 37.2479,
      "duration": 0.0902,
      "velocity": 120,
      "chip": "ym2612"
    },
    {
      "channel": 0,
      "note": 98,
      "start": 37.3414,
      "duration": 0.0801,
      "velocity": 100,
      "chip": "ym2612"
    },
    {
      "channel": 1,
      "note": 63,
      "start": 37.3421,
      "duration": 0.0802,
      "velocity": 101,
      "chip": "ym2612"
    },
    {
      "channel": 2,
      "note": 99,
      "start": 37.3429,
      "duration": 0.0801,
      "velocity": 100,
      "chip": "ym2612"
    },
    {
      "channel": 3,
      "note": 63,
      "start": 37.3438,
      "duration": 0.0801,
      "velocity": 106,
      "chip": "ym2612"
    },
    {
      "channel": 4,
      "note": 100,
      "start": 37.3446,
      "duration": 0.08,
      "velocity": 100,
      "chip": "ym2612"
    },
    {
      "channel": 5,
      "note": 32,
      "start": 37.3454,
      "duration": 0.1594,
      "velocity": 114,
      "chip": "ym2612"
    },
    {
      "channel": 0,
      "note": 97,
      "start": 37.4222,
      "duration": 0.0852,
      "velocity": 100,
      "chip": "ym2612"
    },
    {
      "channel": 1,
      "note": 51,
      "start": 37.4229,
      "duration": 0.0853,
      "velocity": 101,
      "chip": "ym2612"
    },
    {
      "channel": 2,
      "note": 98,
      "start": 37.4237,
      "duration": 0.0852,
      "velocity": 100,
      "chip": "ym2612"
    },
    {
      "channel": 3,
      "note": 51,
      "start": 37.4245,
      "duration": 0.0853,
      "velocity": 106,
      "chip": "ym2612"
    },
    {
      "channel": 4,
      "note": 99,
      "start": 37.4253,
      "duration": 0.0852,
      "velocity": 100,
      "chip": "ym2612"
    },
    {
      "channel": 0,
      "note": 96,
      "start": 37.5081,
      "duration": 0.0801,
      "velocity": 100,
      "chip": "ym2612"
    },
    {
      "channel": 1,
      "note": 63,
      "start": 37.5088,
      "duration": 0.0802,
      "velocity": 101,
      "chip": "ym2612"
    },
    {
      "channel": 2,
      "note": 97,
      "start": 37.5096,
      "duration": 0.0801,
      "velocity": 100,
      "chip": "ym2612"
    },
    {
      "channel": 3,
      "note": 63,
      "start": 37.5104,
      "duration": 0.0801,
      "velocity": 106,
      "chip": "ym2612"
    },
    {
      "channel": 4,
      "note": 98,
      "start": 37.5113,
      "duration": 0.08,
      "velocity": 100,
      "chip": "ym2612"
    },
    {
      "channel": 5,
      "note": 75,
      "start": 37.512,
      "duration": 0.1595,
      "velocity": 120,
      "chip": "ym2612"
    },
    {
      "channel": 0,
      "note": 95,
      "start": 37.5889,
      "duration": 0.0852,
      "velocity": 100,
      "chip": "ym2612"
    },
    {
      "channel": 1,
      "note": 51,
      "start": 37.5896,
      "duration": 0.0853,
      "velocity": 101,
      "chip": "ym2612"
    },
    {
      "channel": 2,
      "note": 96,
      "start": 37.5904,
      "duration": 0.0852,
      "velocity": 100,
      "chip": "ym2612"
    },
    {
      "channel": 3,
      "note": 51,
      "start": 37.5912,
      "duration": 0.0853,
      "velocity": 106,
      "chip": "ym2612"
    },
    {
      "channel": 4,
      "note": 97,
      "start": 37.592,
      "duration": 0.0852,
      "velocity": 100,
      "chip": "ym2612"
    },
    {
      "channel": 0,
      "note": 94,
      "start": 37.6748,
      "duration": 0.0826,
      "velocity": 100,
      "chip": "ym2612"
    },
    {
      "channel": 1,
      "note": 63,
      "start": 37.6754,
      "duration": 0.0828,
      "velocity": 101,
      "chip": "ym2612"
    },
    {
      "channel": 2,
      "note": 95,
      "start": 37.6763,
      "duration": 0.0826,
      "velocity": 100,
      "chip": "ym2612"
    },
    {
      "channel": 3,
      "note": 63,
      "start": 37.6771,
      "duration": 0.0827,
      "velocity": 106,
      "chip": "ym2612"
    },
    {
      "channel": 4,
      "note": 96,
      "start": 37.6779,
      "duration": 0.0826,
      "velocity": 100,
      "chip": "ym2612"
    },
    {
      "channel": 5,
      "note": 75,
      "start": 37.6786,
      "duration": 0.0761,
      "velocity": 120,
      "chip": "ym2612"
    },
    {
      "channel": 0,
      "note": 93,
      "start": 37.7581,
      "duration": 0.0968,
      "velocity": 100,
      "chip": "ym2612"
    },
    {
      "channel": 1,
      "note": 63,
      "start": 37.7588,
      "duration": 0.0969,
      "velocity": 101,
      "chip": "ym2612"
    },
    {
      "channel": 2,
      "note": 94,
      "start": 37.7596,
      "duration": 0.0968,
      "velocity": 100,
      "chip": "ym2612"
    },
    {
      "channel": 3,
      "note": 63,
      "start": 37.7604,
      "duration": 0.0968,
      "velocity": 106,
      "chip": "ym2612"
    },
    {
      "channel": 4,
      "note": 95,
      "start": 37.7613,
      "duration": 0.0967,
      "velocity": 100,
      "chip": "ym2612"
    },
    {
      "channel": 5,
      "note": 32,
      "start": 37.762,
      "duration": 0.1761,
      "velocity": 114,
      "chip": "ym2612"
    },
    {
      "channel": 0,
      "note": 92,
      "start": 37.8555,
      "duration": 0.0852,
      "velocity": 100,
      "chip": "ym2612"
    },
    {
      "channel": 1,
      "note": 51,
      "start": 37.8562,
      "duration": 0.0853,
      "velocity": 101,
      "chip": "ym2612"
    },
    {
      "channel": 2,
      "note": 93,
      "start": 37.857,
      "duration": 0.0852,
      "velocity": 100,
      "chip": "ym2612"
    },
    {
      "channel": 3,
      "note": 51,
      "start": 37.8578,
      "duration": 0.0853,
      "velocity": 106,
      "chip": "ym2612"
    },
    {
      "channel": 4,
      "note": 94,
      "start": 37.8587,
      "duration": 0.0852,
      "velocity": 100,
      "chip": "ym2612"
    },
    {
      "channel": 0,
      "note": 91,
      "start": 37.9414,
      "duration": 0.0801,
      "velocity": 100,
      "chip": "ym2612"
    },
    {
      "channel": 1,
      "note": 63,
      "start": 37.9421,
      "duration": 0.0802,
      "velocity": 101,
      "chip": "ym2612"
    },
    {
      "channel": 2,
      "note": 92,
      "start": 37.9429,
      "duration": 0.0802,
      "velocity": 100,
      "chip": "ym2612"
    },
    {
      "channel": 3,
      "note": 63,
      "start": 37.9437,
      "duration": 0.0801,
      "velocity": 106,
      "chip": "ym2612"
    },
    {
      "channel": 4,
      "note": 93,
      "start": 37.9445,
      "duration": 0.0801,
      "velocity": 100,
      "chip": "ym2612"
    },
    {
      "channel": 5,
      "note": 75,
      "start": 37.9452,
      "duration": 0.1595,
      "velocity": 120,
      "chip": "ym2612"
    },
    {
      "channel": 0,
      "note": 90,
      "start": 38.0222,
      "duration": 0.0852,
      "velocity": 100,
      "chip": "ym2612"
    },
    {
      "channel": 1,
      "note": 51,
      "start": 38.0229,
      "duration": 0.0853,
      "velocity": 101,
      "chip": "ym2612"
    },
    {
      "channel": 2,
      "note": 91,
      "start": 38.0237,
      "duration": 0.0852,
      "velocity": 100,
      "chip": "ym2612"
    },
    {
      "channel": 3,
      "note": 51,
      "start": 38.0245,
      "duration": 0.0853,
      "velocity": 106,
      "chip": "ym2612"
    },
    {
      "channel": 4,
      "note": 92,
      "start": 38.0253,
      "duration": 0.0852,
      "velocity": 100,
      "chip": "ym2612"
    },
    {
      "channel": 0,
      "note": 89,
      "start": 38.1081,
      "duration": 0.0801,
      "velocity": 100,
      "chip": "ym2612"
    },
    {
      "channel": 1,
      "note": 63,
      "start": 38.1088,
      "duration": 0.0802,
      "velocity": 101,
      "chip": "ym2612"
    },
    {
      "channel": 2,
      "note": 90,
      "start": 38.1095,
      "duration": 0.0802,
      "velocity": 100,
      "chip": "ym2612"
    },
    {
      "channel": 3,
      "note": 63,
      "start": 38.1104,
      "duration": 0.0801,
      "velocity": 106,
      "chip": "ym2612"
    },
    {
      "channel": 4,
      "note": 91,
      "start": 38.1112,
      "duration": 0.0801,
      "velocity": 100,
      "chip": "ym2612"
    },
    {
      "channel": 5,
      "note": 75,
      "start": 38.1119,
      "duration": 0.1595,
      "velocity": 120,
      "chip": "ym2612"
    },
    {
      "channel": 0,
      "note": 88,
      "start": 38.1888,
      "duration": 0.0852,
      "velocity": 100,
      "chip": "ym2612"
    },
    {
      "channel": 1,
      "note": 51,
      "start": 38.1896,
      "duration": 0.0853,
      "velocity": 101,
      "chip": "ym2612"
    },
    {
      "channel": 2,
      "note": 89,
      "start": 38.1903,
      "duration": 0.0852,
      "velocity": 100,
      "chip": "ym2612"
    },
    {
      "channel": 3,
      "note": 51,
      "start": 38.1912,
      "duration": 0.0853,
      "velocity": 106,
      "chip": "ym2612"
    },
    {
      "channel": 4,
      "note": 90,
      "start": 38.192,
      "duration": 0.0852,
      "velocity": 100,
      "chip": "ym2612"
    },
    {
      "channel": 0,
      "note": 87,
      "start": 38.2748,
      "duration": 0.0993,
      "velocity": 100,
      "chip": "ym2612"
    },
    {
      "channel": 1,
      "note": 63,
      "start": 38.2754,
      "duration": 0.0994,
      "velocity": 101,
      "chip": "ym2612"
    },
    {
      "channel": 2,
      "note": 88,
      "start": 38.2762,
      "duration": 0.0994,
      "velocity": 100,
      "chip": "ym2612"
    },
    {
      "channel": 3,
      "note": 63,
      "start": 38.2771,
      "duration": 0.0994,
      "velocity": 106,
      "chip": "ym2612"
    },
    {
      "channel": 4,
      "note": 89,
      "start": 38.2779,
      "duration": 0.0993,
      "velocity": 100,
      "chip": "ym2612"
    },
    {
      "channel": 5,
      "note": 75,
      "start": 38.2786,
      "duration": 0.0929,
      "velocity": 120,
      "chip": "ym2612"
    },
    {
      "channel": 0,
      "note": 86,
      "start": 38.3748,
      "duration": 0.0847,
      "velocity": 106,
      "chip": "ym2612"
    },
    {
      "channel": 1,
      "note": 51,
      "start": 38.3754,
      "duration": 0.0849,
      "velocity": 101,
      "chip": "ym2612"
    },
    {
      "channel": 2,
      "note": 87,
      "start": 38.3762,
      "duration": 0.0875,
      "velocity": 106,
      "chip": "ym2612"
    },
    {
      "channel": 3,
      "note": 51,
      "start": 38.3771,
      "duration": 0.0878,
      "velocity": 106,
      "chip": "ym2612"
    },
    {
      "channel": 4,
      "note": 88,
      "start": 38.3779,
      "duration": 0.0878,
      "velocity": 100,
      "chip": "ym2612"
    },
    {
      "channel": 5,
      "note": 75,
      "start": 38.3786,
      "duration": 0.0762,
      "velocity": 120,
      "chip": "ym2612"
    },
    {
      "channel": 0,
      "note": 94,
      "start": 38.4602,
      "duration": 0.1643,
      "velocity": 106,
      "chip": "ym2612"
    },
    {
      "channel": 1,
      "note": 62,
      "start": 38.4609,
      "duration": 0.3309,
      "velocity": 101,
      "chip": "ym2612"
    },
    {
      "channel": 2,
      "note": 89,
      "start": 38.4644,
      "duration": 0.1614,
      "velocity": 106,
      "chip": "ym2612"
    },
    {
      "channel": 3,
      "note": 74,
      "start": 38.4656,
      "duration": 0.1612,
      "velocity": 106,
      "chip": "ym2612"
    },
    {
      "channel": 4,
      "note": 87,
      "start": 38.4663,
      "duration": 0.0732,
      "velocity": 100,
      "chip": "ym2612"
    },
    {
      "channel": 5,
      "note": 75,
      "start": 38.4671,
      "duration": 0.1543,
      "velocity": 120,
      "chip": "ym2612"
    },
    {
      "channel": 4,
      "note": 86,
      "start": 38.5402,
      "duration": 0.0895,
      "velocity": 106,
      "chip": "ym2612"
    },
    {
      "channel": 0,
      "note": 94,
      "start": 38.6249,
      "duration": 0.1662,
      "velocity": 106,
      "chip": "ym2612"
    },
    {
      "channel": 2,
      "note": 89,
      "start": 38.6263,
      "duration": 0.1664,
      "velocity": 106,
      "chip": "ym2612"
    },
    {
      "channel": 3,
      "note": 74,
      "start": 38.6273,
      "duration": 0.1664,
      "velocity": 106,
      "chip": "ym2612"
    },
    {
      "channel": 4,
      "note": 94,
      "start": 38.6304,
      "duration": 0.1643,
      "velocity": 106,
      "chip": "ym2612"
    },
    {
      "channel": 5,
      "note": 32,
      "start": 38.6312,
      "duration": 0.1569,
      "velocity": 114,
      "chip": "ym2612"
    },
    {
      "channel": 0,
      "note": 94,
      "start": 38.7916,
      "duration": 0.1803,
      "velocity": 106,
      "chip": "ym2612"
    },
    {
      "channel": 1,
      "note": 62,
      "start": 38.7922,
      "duration": 0.3489,
      "velocity": 101,
      "chip": "ym2612"
    },
    {
      "channel": 2,
      "note": 89,
      "start": 38.7932,
      "duration": 0.18,
      "velocity": 106,
      "chip": "ym2612"
    },
    {
      "channel": 3,
      "note": 74,
      "start": 38.7942,
      "duration": 0.18,
      "velocity": 106,
      "chip": "ym2612"
    },
    {
      "channel": 4,
      "note": 94,
      "start": 38.7952,
      "duration": 0.18,
      "velocity": 106,
      "chip": "ym2612"
    },
    {
      "channel": 5,
      "note": 75,
      "start": 38.7959,
      "duration": 0.3422,
      "velocity": 120,
      "chip": "ym2612"
    },
    {
      "channel": 0,
      "note": 94,
      "start": 38.9724,
      "duration": 0.1683,
      "velocity": 106,
      "chip": "ym2612"
    },
    {
      "channel": 2,
      "note": 89,
      "start": 38.9737,
      "duration": 0.1676,
      "velocity": 106,
      "chip": "ym2612"
    },
    {
      "channel": 3,
      "note": 74,
      "start": 38.9748,
      "duration": 0.167,
      "velocity": 106,
      "chip": "ym2612"
    },
    {
      "channel": 4,
      "note": 94,
      "start": 38.9758,
      "duration": 0.1667,
      "velocity": 106,
      "chip": "ym2612"
    },
    {
      "channel": 4,
      "note": 94,
      "start": 39.1429,
      "duration": 0.1682,
      "velocity": 106,
      "chip": "ym2612"
    },
    {
      "channel": 5,
      "note": 32,
      "start": 39.1438,
      "duration": 0.161,
      "velocity": 114,
      "chip": "ym2612"
    },
    {
      "channel": 0,
      "note": 94,
      "start": 39.3083,
      "duration": 0.1828,
      "velocity": 106,
      "chip": "ym2612"
    },
    {
      "channel": 1,
      "note": 62,
      "start": 39.309,
      "duration": 0.1828,
      "velocity": 101,
      "chip": "ym2612"
    },
    {
      "channel": 2,
      "note": 89,
      "start": 39.31,
      "duration": 0.1824,
      "velocity": 106,
      "chip": "ym2612"
    },
    {
      "channel": 3,
      "note": 74,
      "start": 39.311,
      "duration": 0.1824,
      "velocity": 106,
      "chip": "ym2612"
    },
    {
      "channel": 5,
      "note": 75,
      "start": 39.3121,
      "duration": 0.076,
      "velocity": 120,
      "chip": "ym2612"
    },
    {
      "channel": 5,
      "note": 75,
      "start": 39.3928,
      "duration": 0.0954,
      "velocity": 120,
      "chip": "ym2612"
    },
    {
      "channel": 0,
      "note": 94,
      "start": 39.4916,
      "duration": 0.1662,
      "velocity": 106,
      "chip": "ym2612"
    },
    {
      "channel": 2,
      "note": 89,
      "start": 39.4929,
      "duration": 0.1665,
      "velocity": 106,
      "chip": "ym2612"
    },
    {
      "channel": 3,
      "note": 74,
      "start": 39.494,
      "duration": 0.1665,
      "velocity": 106,
      "chip": "ym2612"
    },
    {
      "channel": 4,
      "note": 94,
      "start": 39.495,
      "duration": 0.1666,
      "velocity": 106,
      "chip": "ym2612"
    },
    {
      "channel": 5,
      "note": 75,
      "start": 39.4957,
      "duration": 0.159,
      "velocity": 120,
      "chip": "ym2612"
    },
    {
      "channel": 0,
      "note": 94,
      "start": 39.6583,
      "duration": 0.1685,
      "velocity": 111,
      "chip": "ym2612"
    },
    {
      "channel": 1,
      "note": 62,
      "start": 39.659,
      "duration": 0.1686,
      "velocity": 101,
      "chip": "ym2612"
    },
    {
      "channel": 2,
      "note": 89,
      "start": 39.66,
      "duration": 0.171,
      "velocity": 111,
      "chip": "ym2612"
    },
    {
      "channel": 3,
      "note": 74,
      "start": 39.661,
      "duration": 0.1731,
      "velocity": 108,
      "chip": "ym2612"
    },
    {
      "channel": 4,
      "note": 94,
      "start": 39.662,
      "duration": 0.1733,
      "velocity": 106,
      "chip": "ym2612"
    },
    {
      "channel": 5,
      "note": 75,
      "start": 39.6628,
      "duration": 0.1587,
      "velocity": 120,
      "chip": "ym2612"
    },
    {
      "channel": 0,
      "note": 90,
      "start": 39.8274,
      "duration": 0.008,
      "velocity": 111,
      "chip": "ym2612"
    },
    {
      "channel": 1,
      "note": 63,
      "start": 39.8282,
      "duration": 0.0071,
      "velocity": 101,
      "chip": "ym2612"
    },
    {
      "channel": 2,
      "note": 87,
      "start": 39.8316,
      "duration": 0.0037,
      "velocity": 111,
      "chip": "ym2612"
    },
    {
      "channel": 3,
      "note": 63,
      "start": 39.8348,
      "duration": 0.0005,
      "velocity": 108,
      "chip": "ym2612"
    }
  ]
}