{
  "track_name": "22 - Tastes Like Chicken",
  "duration_sec": 74.352,
  "sample_rate": 44100,
  "note_count": 688,
  "unique_pitches": 20,
  "pitch_range": 62,
  "avg_note_duration": 0.1072,
  "reconstruction_stats": {
    "notes_reconstructed": 688,
    "keyon_events": 688,
    "keyoff_events": 687,
    "orphan_keyons": 1,
    "unique_pitches": 20,
    "pitch_range": 62,
    "avg_duration_sec": 0.1072
  },
  "metadata": {
    "source": "S\\Skitchin'\\22 - Tastes Like Chicken.vgz"
  },
  "notes": [
    {
      "channel": 0,
      "note": 55,
      "start": 0.0,
      "duration": 0.0031,
      "velocity": 88,
      "chip": "ym2612"
    },
    {
      "channel": 1,
      "note": 82,
      "start": 0.0012,
      "duration": 0.001,
      "velocity": 127,
      "chip": "ym2612"
    },
    {
      "channel": 0,
      "note": 48,
      "start": 0.0032,
      "duration": 0.0005,
      "velocity": 88,
      "chip": "ym2612"
    },
    {
      "channel": 0,
      "note": 54,
      "start": 0.0044,
      "duration": 0.0022,
      "velocity": 88,
      "chip": "ym2612"
    },
    {
      "channel": 1,
      "note": 82,
      "start": 0.0047,
      "duration": 0.0009,
      "velocity": 127,
      "chip": "ym2612"
    },
    {
      "channel": 0,
      "note": 48,
      "start": 0.0067,
      "duration": 0.0005,
      "velocity": 88,
      "chip": "ym2612"
    },
    {
      "channel": 0,
      "note": 53,
      "start": 0.0079,
      "duration": 0.0023,
      "velocity": 88,
      "chip": "ym2612"
    },
    {
      "channel": 1,
      "note": 82,
      "start": 0.0082,
      "duration": 0.001,
      "velocity": 127,
      "chip": "ym2612"
    },
    {
      "channel": 0,
      "note": 52,
      "start": 0.0102,
      "duration": 0.0022,
      "velocity": 88,
      "chip": "ym2612"
    },
    {
      "channel": 1,
      "note": 82,
      "start": 0.0106,
      "duration": 0.0009,
      "velocity": 127,
      "chip": "ym2612"
    },
    {
      "channel": 0,
      "note": 48,
      "start": 0.0126,
      "duration": 0.0005,
      "velocity": 88,
      "chip": "ym2612"
    },
    {
      "channel": 0,
      "note": 51,
      "start": 0.0138,
      "duration": 0.0023,
      "velocity": 88,
      "chip": "ym2612"
    },
    {
      "channel": 1,
      "note": 82,
      "start": 0.0141,
      "duration": 0.0009,
      "velocity": 127,
      "chip": "ym2612"
    },
    {
      "channel": 0,
      "note": 48,
      "start": 0.0161,
      "duration": 0.0005,
      "velocity": 88,
      "chip": "ym2612"
    },
    {
      "channel": 0,
      "note": 50,
      "start": 0.0173,
      "duration": 0.0034,
      "velocity": 88,
      "chip": "ym2612"
    },
    {
      "channel": 1,
      "note": 82,
      "start": 0.0177,
      "duration": 0.0009,
      "velocity": 127,
      "chip": "ym2612"
    },
    {
      "channel": 0,
      "note": 55,
      "start": 0.0207,
      "duration": 0.0024,
      "velocity": 88,
      "chip": "ym2612"
    },
    {
      "channel": 1,
      "note": 82,
      "start": 0.021,
      "duration": 0.001,
      "velocity": 127,
      "chip": "ym2612"
    },
    {
      "channel": 0,
      "note": 48,
      "start": 0.0231,
      "duration": 0.0005,
      "velocity": 88,
      "chip": "ym2612"
    },
    {
      "channel": 0,
      "note": 54,
      "start": 0.0242,
      "duration": 0.0023,
      "velocity": 88,
      "chip": "ym2612"
    },
    {
      "channel": 1,
      "note": 82,
      "start": 0.0246,
      "duration": 0.0009,
      "velocity": 127,
      "chip": "ym2612"
    },
    {
      "channel": 0,
      "note": 48,
      "start": 0.0266,
      "duration": 0.0005,
      "velocity": 88,
      "chip": "ym2612"
    },
    {
      "channel": 0,
      "note": 53,
      "start": 0.029,
      "duration": 0.0033,
      "velocity": 88,
      "chip": "ym2612"
    },
    {
      "channel": 1,
      "note": 82,
      "start": 0.0293,
      "duration": 0.0009,
      "velocity": 127,
      "chip": "ym2612"
    },
    {
      "channel": 0,
      "note": 52,
      "start": 0.0323,
      "duration": 0.0037,
      "velocity": 88,
      "chip": "ym2612"
    },
    {
      "channel": 1,
      "note": 82,
      "start": 0.0327,
      "duration": 0.0022,
      "velocity": 127,
      "chip": "ym2612"
    },
    {
      "channel": 0,
      "note": 48,
      "start": 0.036,
      "duration": 0.0004,
      "velocity": 88,
      "chip": "ym2612"
    },
    {
      "channel": 0,
      "note": 51,
      "start": 0.0389,
      "duration": 0.0023,
      "velocity": 88,
      "chip": "ym2612"
    },
    {
      "channel": 1,
      "note": 82,
      "start": 0.0392,
      "duration": 0.0009,
      "velocity": 127,
      "chip": "ym2612"
    },
    {
      "channel": 0,
      "note": 48,
      "start": 0.0412,
      "duration": 0.0005,
      "velocity": 88,
      "chip": "ym2612"
    },
    {
      "channel": 0,
      "note": 50,
      "start": 0.0424,
      "duration": 0.0035,
      "velocity": 88,
      "chip": "ym2612"
    },
    {
      "channel": 1,
      "note": 82,
      "start": 0.0427,
      "duration": 0.0009,
      "velocity": 127,
      "chip": "ym2612"
    },
    {
      "channel": 0,
      "note": 55,
      "start": 0.0459,
      "duration": 0.0023,
      "velocity": 88,
      "chip": "ym2612"
    },
    {
      "channel": 1,
      "note": 82,
      "start": 0.0463,
      "duration": 0.0009,
      "velocity": 127,
      "chip": "ym2612"
    },
    {
      "channel": 0,
      "note": 48,
      "start": 0.0483,
      "duration": 0.0004,
      "velocity": 88,
      "chip": "ym2612"
    },
    {
      "channel": 0,
      "note": 54,
      "start": 0.0495,
      "duration": 0.0023,
      "velocity": 88,
      "chip": "ym2612"
    },
    {
      "channel": 1,
      "note": 82,
      "start": 0.0498,
      "duration": 0.001,
      "velocity": 127,
      "chip": "ym2612"
    },
    {
      "channel": 0,
      "note": 48,
      "start": 0.0518,
      "duration": 0.0005,
      "velocity": 88,
      "chip": "ym2612"
    },
    {
      "channel": 0,
      "note": 53,
      "start": 0.053,
      "duration": 0.0023,
      "velocity": 88,
      "chip": "ym2612"
    },
    {
      "channel": 1,
      "note": 82,
      "start": 0.0533,
      "duration": 0.0009,
      "velocity": 127,
      "chip": "ym2612"
    },
    {
      "channel": 0,
      "note": 52,
      "start": 0.0553,
      "duration": 0.0024,
      "velocity": 88,
      "chip": "ym2612"
    },
    {
      "channel": 1,
      "note": 82,
      "start": 0.0556,
      "duration": 0.001,
      "velocity": 127,
      "chip": "ym2612"
    },
    {
      "channel": 0,
      "note": 48,
      "start": 0.0576,
      "duration": 0.0005,
      "velocity": 88,
      "chip": "ym2612"
    },
    {
      "channel": 0,
      "note": 51,
      "start": 0.0589,
      "duration": 0.0024,
      "velocity": 88,
      "chip": "ym2612"
    },
    {
      "channel": 1,
      "note": 82,
      "start": 0.0592,
      "duration": 0.0009,
      "velocity": 127,
      "chip": "ym2612"
    },
    {
      "channel": 0,
      "note": 48,
      "start": 0.0612,
      "duration": 0.0005,
      "velocity": 88,
      "chip": "ym2612"
    },
    {
      "channel": 0,
      "note": 50,
      "start": 0.0624,
      "duration": 0.003,
      "velocity": 88,
      "chip": "ym2612"
    },
    {
      "channel": 1,
      "note": 82,
      "start": 0.0627,
      "duration": 0.0009,
      "velocity": 127,
      "chip": "ym2612"
    },
    {
      "channel": 0,
      "note": 48,
      "start": 0.0654,
      "duration": 0.0037,
      "velocity": 88,
      "chip": "ym2612"
    },
    {
      "channel": 1,
      "note": 82,
      "start": 0.0658,
      "duration": 0.0025,
      "velocity": 127,
      "chip": "ym2612"
    },
    {
      "channel": 0,
      "note": 47,
      "start": 0.0699,
      "duration": 0.0024,
      "velocity": 88,
      "chip": "ym2612"
    },
    {
      "channel": 1,
      "note": 82,
      "start": 0.0702,
      "duration": 0.001,
      "velocity": 127,
      "chip": "ym2612"
    },
    {
      "channel": 0,
      "note": 53,
      "start": 0.0722,
      "duration": 0.0021,
      "velocity": 88,
      "chip": "ym2612"
    },
    {
      "channel": 0,
      "note": 52,
      "start": 0.0744,
      "duration": 0.0023,
      "velocity": 88,
      "chip": "ym2612"
    },
    {
      "channel": 0,
      "note": 58,
      "start": 0.0774,
      "duration": 0.0024,
      "velocity": 88,
      "chip": "ym2612"
    },
    {
      "channel": 0,
      "note": 57,
      "start": 0.0805,
      "duration": 0.0019,
      "velocity": 88,
      "chip": "ym2612"
    },
    {
      "channel": 0,
      "note": 55,
      "start": 0.0824,
      "duration": 0.0022,
      "velocity": 88,
      "chip": "ym2612"
    },
    {
      "channel": 1,
      "note": 82,
      "start": 0.0827,
      "duration": 0.001,
      "velocity": 127,
      "chip": "ym2612"
    },
    {
      "channel": 0,
      "note": 48,
      "start": 0.0847,
      "duration": 0.0024,
      "velocity": 88,
      "chip": "ym2612"
    },
    {
      "channel": 1,
      "note": 84,
      "start": 0.0865,
      "duration": 0.0008,
      "velocity": 123,
      "chip": "ym2612"
    },
    {
      "channel": 0,
      "note": 54,
      "start": 0.088,
      "duration": 0.0026,
      "velocity": 88,
      "chip": "ym2612"
    },
    {
      "channel": 1,
      "note": 84,
      "start": 0.0892,
      "duration": 0.0004,
      "velocity": 123,
      "chip": "ym2612"
    },
    {
      "channel": 0,
      "note": 48,
      "start": 0.0906,
      "duration": 0.0007,
      "velocity": 88,
      "chip": "ym2612"
    },
    {
      "channel": 0,
      "note": 53,
      "start": 0.0921,
      "duration": 0.0028,
      "velocity": 88,
      "chip": "ym2612"
    },
    {
      "channel": 1,
      "note": 84,
      "start": 0.0924,
      "duration": 0.0009,
      "velocity": 123,
      "chip": "ym2612"
    },
    {
      "channel": 0,
      "note": 52,
      "start": 0.0949,
      "duration": 0.0037,
      "velocity": 88,
      "chip": "ym2612"
    },
    {
      "channel": 1,
      "note": 84,
      "start": 0.0952,
      "duration": 0.0022,
      "velocity": 123,
      "chip": "ym2612"
    },
    {
      "channel": 0,
      "note": 48,
      "start": 0.0985,
      "duration": 0.001,
      "velocity": 88,
      "chip": "ym2612"
    },
    {
      "channel": 1,
      "note": 84,
      "start": 0.0988,
      "duration": 0.0008,
      "velocity": 123,
      "chip": "ym2612"
    },
    {
      "channel": 0,
      "note": 51,
      "start": 0.1012,
      "duration": 0.0026,
      "velocity": 88,
      "chip": "ym2612"
    },
    {
      "channel": 1,
      "note": 84,
      "start": 0.1024,
      "duration": 0.0004,
      "velocity": 123,
      "chip": "ym2612"
    },
    {
      "channel": 0,
      "note": 48,
      "start": 0.1039,
      "duration": 0.0007,
      "velocity": 88,
      "chip": "ym2612"
    },
    {
      "channel": 0,
      "note": 50,
      "start": 0.1057,
      "duration": 0.0041,
      "velocity": 88,
      "chip": "ym2612"
    },
    {
      "channel": 1,
      "note": 84,
      "start": 0.106,
      "duration": 0.0027,
      "velocity": 123,
      "chip": "ym2612"
    },
    {
      "channel": 0,
      "note": 55,
      "start": 0.1099,
      "duration": 0.0023,
      "velocity": 88,
      "chip": "ym2612"
    },
    {
      "channel": 1,
      "note": 84,
      "start": 0.1102,
      "duration": 0.001,
      "velocity": 123,
      "chip": "ym2612"
    },
    {
      "channel": 0,
      "note": 48,
      "start": 0.1122,
      "duration": 0.0015,
      "velocity": 88,
      "chip": "ym2612"
    },
    {
      "channel": 1,
      "note": 84,
      "start": 0.1125,
      "duration": 0.0007,
      "velocity": 123,
      "chip": "ym2612"
    },
    {
      "channel": 0,
      "note": 54,
      "start": 0.1143,
      "duration": 0.0027,
      "velocity": 88,
      "chip": "ym2612"
    },
    {
      "channel": 1,
      "note": 84,
      "start": 0.1154,
      "duration": 0.0004,
      "velocity": 123,
      "chip": "ym2612"
    },
    {
      "channel": 0,
      "note": 48,
      "start": 0.1169,
      "duration": 0.0007,
      "velocity": 88,
      "chip": "ym2612"
    },
    {
      "channel": 0,
      "note": 53,
      "start": 0.1183,
      "duration": 0.0028,
      "velocity": 88,
      "chip": "ym2612"
    },
    {
      "channel": 1,
      "note": 84,
      "start": 0.1186,
      "duration": 0.0009,
      "velocity": 123,
      "chip": "ym2612"
    },
    {
      "channel": 0,
      "note": 52,
      "start": 0.1211,
      "duration": 0.0036,
      "velocity": 88,
      "chip": "ym2612"
    },
    {
      "channel": 1,
      "note": 84,
      "start": 0.1215,
      "duration": 0.0023,
      "velocity": 123,
      "chip": "ym2612"
    },
    {
      "channel": 0,
      "note": 48,
      "start": 0.1248,
      "duration": 0.001,
      "velocity": 88,
      "chip": "ym2612"
    },
    {
      "channel": 1,
      "note": 84,
      "start": 0.1251,
      "duration": 0.0008,
      "velocity": 123,
      "chip": "ym2612"
    },
    {
      "channel": 0,
      "note": 51,
      "start": 0.1273,
      "duration": 0.0026,
      "velocity": 88,
      "chip": "ym2612"
    },
    {
      "channel": 1,
      "note": 84,
      "start": 0.1284,
      "duration": 0.0004,
      "velocity": 123,
      "chip": "ym2612"
    },
    {
      "channel": 0,
      "note": 48,
      "start": 0.1299,
      "duration": 0.0007,
      "velocity": 88,
      "chip": "ym2612"
    },
    {
      "channel": 0,
      "note": 50,
      "start": 0.1312,
      "duration": 0.0054,
      "velocity": 88,
      "chip": "ym2612"
    },
    {
      "channel": 1,
      "note": 82,
      "start": 0.133,
      "duration": 0.0009,
      "velocity": 127,
      "chip": "ym2612"
    },
    {
      "channel": 0,
      "note": 55,
      "start": 0.1366,
      "duration": 0.0037,
      "velocity": 88,
      "chip": "ym2612"
    },
    {
      "channel": 1,
      "note": 84,
      "start": 0.1384,
      "duration": 0.0009,
      "velocity": 123,
      "chip": "ym2612"
    },
    {
      "channel": 0,
      "note": 48,
      "start": 0.1404,
      "duration": 0.001,
      "velocity": 88,
      "chip": "ym2612"
    },
    {
      "channel": 1,
      "note": 84,
      "start": 0.1407,
      "duration": 0.0008,
      "velocity": 123,
      "chip": "ym2612"
    },
    {
      "channel": 0,
      "note": 54,
      "start": 0.1422,
      "duration": 0.0026,
      "velocity": 88,
      "chip": "ym2612"
    },
    {
      "channel": 1,
      "note": 84,
      "start": 0.1434,
      "duration": 0.0005,
      "velocity": 123,
      "chip": "ym2612"
    },
    {
      "channel": 0,
      "note": 48,
      "start": 0.1449,
      "duration": 0.0007,
      "velocity": 88,
      "chip": "ym2612"
    },
    {
      "channel": 0,
      "note": 53,
      "start": 0.1463,
      "duration": 0.0023,
      "velocity": 88,
      "chip": "ym2612"
    },
    {
      "channel": 1,
      "note": 84,
      "start": 0.1466,
      "duration": 0.0009,
      "velocity": 123,
      "chip": "ym2612"
    },
    {
      "channel": 0,
      "note": 52,
      "start": 0.1486,
      "duration": 0.0036,
      "velocity": 88,
      "chip": "ym2612"
    },
    {
      "channel": 1,
      "note": 84,
      "start": 0.1489,
      "duration": 0.0023,
      "velocity": 123,
      "chip": "ym2612"
    },
    {
      "channel": 0,
      "note": 48,
      "start": 0.1523,
      "duration": 0.0018,
      "velocity": 88,
      "chip": "ym2612"
    },
    {
      "channel": 1,
      "note": 84,
      "start": 0.1526,
      "duration": 0.001,
      "velocity": 123,
      "chip": "ym2612"
    },
    {
      "channel": 0,
      "note": 51,
      "start": 0.1548,
      "duration": 0.0027,
      "velocity": 88,
      "chip": "ym2612"
    },
    {
      "channel": 1,
      "note": 84,
      "start": 0.1559,
      "duration": 0.0005,
      "velocity": 123,
      "chip": "ym2612"
    },
    {
      "channel": 0,
      "note": 48,
      "start": 0.1575,
      "duration": 0.0007,
      "velocity": 88,
      "chip": "ym2612"
    },
    {
      "channel": 0,
      "note": 50,
      "start": 0.1588,
      "duration": 0.0046,
      "velocity": 88,
      "chip": "ym2612"
    },
    {
      "channel": 1,
      "note": 84,
      "start": 0.1592,
      "duration": 0.0028,
      "velocity": 123,
      "chip": "ym2612"
    },
    {
      "channel": 0,
      "note": 48,
      "start": 0.1636,
      "duration": 0.0051,
      "velocity": 88,
      "chip": "ym2612"
    },
    {
      "channel": 1,
      "note": 82,
      "start": 0.1653,
      "duration": 0.0025,
      "velocity": 127,
      "chip": "ym2612"
    },
    {
      "channel": 0,
      "note": 47,
      "start": 0.1695,
      "duration": 0.0022,
      "velocity": 88,
      "chip": "ym2612"
    },
    {
      "channel": 1,
      "note": 82,
      "start": 0.1698,
      "duration": 0.0009,
      "velocity": 127,
      "chip": "ym2612"
    },
    {
      "channel": 0,
      "note": 53,
      "start": 0.2232,
      "duration": 0.0017,
      "velocity": 88,
      "chip": "ym2612"
    },
    {
      "channel": 1,
      "note": 82,
      "start": 0.2235,
      "duration": 0.001,
      "velocity": 127,
      "chip": "ym2612"
    },
    {
      "channel": 0,
      "note": 52,
      "start": 0.2265,
      "duration": 0.006,
      "velocity": 88,
      "chip": "ym2612"
    },
    {
      "channel": 1,
      "note": 82,
      "start": 0.2268,
      "duration": 0.0024,
      "velocity": 127,
      "chip": "ym2612"
    },
    {
      "channel": 0,
      "note": 58,
      "start": 0.2332,
      "duration": 0.0047,
      "velocity": 88,
      "chip": "ym2612"
    },
    {
      "channel": 1,
      "note": 82,
      "start": 0.2336,
      "duration": 0.0012,
      "velocity": 127,
      "chip": "ym2612"
    },
    {
      "channel": 0,
      "note": 57,
      "start": 0.239,
      "duration": 0.0039,
      "velocity": 88,
      "chip": "ym2612"
    },
    {
      "channel": 1,
      "note": 82,
      "start": 0.2393,
      "duration": 0.0012,
      "velocity": 127,
      "chip": "ym2612"
    },
    {
      "channel": 0,
      "note": 50,
      "start": 0.2429,
      "duration": 0.0097,
      "velocity": 88,
      "chip": "ym2612"
    },
    {
      "channel": 1,
      "note": 82,
      "start": 0.2432,
      "duration": 0.0012,
      "velocity": 127,
      "chip": "ym2612"
    },
    {
      "channel": 1,
      "note": 101,
      "start": 0.2508,
      "duration": 0.001,
      "velocity": 114,
      "chip": "ym2612"
    },
    {
      "channel": 0,
      "note": 48,
      "start": 0.2526,
      "duration": 0.0063,
      "velocity": 88,
      "chip": "ym2612"
    },
    {
      "channel": 1,
      "note": 106,
      "start": 0.2572,
      "duration": 0.0007,
      "velocity": 127,
      "chip": "ym2612"
    },
    {
      "channel": 0,
      "note": 50,
      "start": 0.259,
      "duration": 0.0065,
      "velocity": 88,
      "chip": "ym2612"
    },
    {
      "channel": 1,
      "note": 101,
      "start": 0.2608,
      "duration": 0.0009,
      "velocity": 114,
      "chip": "ym2612"
    },
    {
      "channel": 1,
      "note": 106,
      "start": 0.2643,
      "duration": 0.0005,
      "velocity": 127,
      "chip": "ym2612"
    },
    {
      "channel": 0,
      "note": 48,
      "start": 0.2655,
      "duration": 0.0046,
      "velocity": 88,
      "chip": "ym2612"
    },
    {
      "channel": 1,
      "note": 101,
      "start": 0.2681,
      "duration": 0.0004,
      "velocity": 114,
      "chip": "ym2612"
    },
    {
      "channel": 0,
      "note": 51,
      "start": 0.2708,
      "duration": 0.0065,
      "velocity": 88,
      "chip": "ym2612"
    },
    {
      "channel": 1,
      "note": 106,
      "start": 0.2726,
      "duration": 0.0009,
      "velocity": 114,
      "chip": "ym2612"
    },
    {
      "channel": 0,
      "note": 50,
      "start": 0.2773,
      "duration": 0.013,
      "velocity": 88,
      "chip": "ym2612"
    },
    {
      "channel": 1,
      "note": 106,
      "start": 0.2792,
      "duration": 0.0014,
      "velocity": 127,
      "chip": "ym2612"
    },
    {
      "channel": 1,
      "note": 101,
      "start": 0.2876,
      "duration": 0.0014,
      "velocity": 114,
      "chip": "ym2612"
    },
    {
      "channel": 0,
      "note": 48,
      "start": 0.2918,
      "duration": 0.009,
      "velocity": 88,
      "chip": "ym2612"
    },
    {
      "channel": 1,
      "note": 106,
      "start": 0.2974,
      "duration": 0.0009,
      "velocity": 127,
      "chip": "ym2612"
    },
    {
      "channel": 0,
      "note": 50,
      "start": 0.3009,
      "duration": 0.0093,
      "velocity": 88,
      "chip": "ym2612"
    },
    {
      "channel": 1,
      "note": 101,
      "start": 0.3027,
      "duration": 0.0012,
      "velocity": 114,
      "chip": "ym2612"
    },
    {
      "channel": 1,
      "note": 106,
      "start": 0.3079,
      "duration": 0.0012,
      "velocity": 127,
      "chip": "ym2612"
    },
    {
      "channel": 0,
      "note": 48,
      "start": 0.3117,
      "duration": 0.0116,
      "velocity": 88,
      "chip": "ym2612"
    },
    {
      "channel": 1,
      "note": 101,
      "start": 0.3191,
      "duration": 0.0012,
      "velocity": 114,
      "chip": "ym2612"
    },
    {
      "channel": 0,
      "note": 52,
      "start": 0.3239,
      "duration": 0.0121,
      "velocity": 88,
      "chip": "ym2612"
    },
    {
      "channel": 1,
      "note": 106,
      "start": 0.3257,
      "duration": 0.0012,
      "velocity": 114,
      "chip": "ym2612"
    },
    {
      "channel": 1,
      "note": 101,
      "start": 0.3309,
      "duration": 0.0008,
      "velocity": 114,
      "chip": "ym2612"
    },
    {
      "channel": 0,
      "note": 50,
      "start": 0.336,
      "duration": 0.0122,
      "velocity": 88,
      "chip": "ym2612"
    },
    {
      "channel": 1,
      "note": 106,
      "start": 0.338,
      "duration": 0.001,
      "velocity": 127,
      "chip": "ym2612"
    },
    {
      "channel": 1,
      "note": 101,
      "start": 0.3466,
      "duration": 0.0007,
      "velocity": 114,
      "chip": "ym2612"
    },
    {
      "channel": 0,
      "note": 48,
      "start": 0.3847,
      "duration": 0.009,
      "velocity": 88,
      "chip": "ym2612"
    },
    {
      "channel": 1,
      "note": 106,
      "start": 0.3896,
      "duration": 0.001,
      "velocity": 127,
      "chip": "ym2612"
    },
    {
      "channel": 0,
      "note": 50,
      "start": 0.3937,
      "duration": 0.0087,
      "velocity": 88,
      "chip": "ym2612"
    },
    {
      "channel": 1,
      "note": 101,
      "start": 0.3955,
      "duration": 0.0012,
      "velocity": 114,
      "chip": "ym2612"
    },
    {
      "channel": 1,
      "note": 106,
      "start": 0.4007,
      "duration": 0.0008,
      "velocity": 127,
      "chip": "ym2612"
    },
    {
      "channel": 0,
      "note": 48,
      "start": 0.4031,
      "duration": 0.0081,
      "velocity": 88,
      "chip": "ym2612"
    },
    {
      "channel": 1,
      "note": 101,
      "start": 0.408,
      "duration": 0.0007,
      "velocity": 114,
      "chip": "ym2612"
    },
    {
      "channel": 0,
      "note": 53,
      "start": 0.4118,
      "duration": 0.0434,
      "velocity": 88,
      "chip": "ym2612"
    },
    {
      "channel": 1,
      "note": 106,
      "start": 0.4136,
      "duration": 0.0012,
      "velocity": 114,
      "chip": "ym2612"
    },
    {
      "channel": 0,
      "note": 50,
      "start": 0.4552,
      "duration": 0.0066,
      "velocity": 88,
      "chip": "ym2612"
    },
    {
      "channel": 1,
      "note": 106,
      "start": 0.4571,
      "duration": 0.0011,
      "velocity": 127,
      "chip": "ym2612"
    },
    {
      "channel": 1,
      "note": 101,
      "start": 0.4607,
      "duration": 0.0004,
      "velocity": 114,
      "chip": "ym2612"
    },
    {
      "channel": 0,
      "note": 48,
      "start": 0.4618,
      "duration": 0.0084,
      "velocity": 88,
      "chip": "ym2612"
    },
    {
      "channel": 1,
      "note": 106,
      "start": 0.466,
      "duration": 0.0007,
      "velocity": 127,
      "chip": "ym2612"
    },
    {
      "channel": 0,
      "note": 50,
      "start": 0.4703,
      "duration": 0.0038,
      "velocity": 88,
      "chip": "ym2612"
    },
    {
      "channel": 1,
      "note": 101,
      "start": 0.4721,
      "duration": 0.001,
      "velocity": 114,
      "chip": "ym2612"
    },
    {
      "channel": 0,
      "note": 53,
      "start": 0.4741,
      "duration": 0.0011,
      "velocity": 88,
      "chip": "ym2612"
    },
    {
      "channel": 0,
      "note": 55,
      "start": 0.4752,
      "duration": 0.0023,
      "velocity": 88,
      "chip": "ym2612"
    },
    {
      "channel": 0,
      "note": 56,
      "start": 0.4776,
      "duration": 0.0023,
      "velocity": 88,
      "chip": "ym2612"
    },
    {
      "channel": 0,
      "note": 57,
      "start": 0.4799,
      "duration": 0.0011,
      "velocity": 88,
      "chip": "ym2612"
    },
    {
      "channel": 0,
      "note": 60,
      "start": 0.481,
      "duration": 0.0088,
      "velocity": 88,
      "chip": "ym2612"
    },
    {
      "channel": 1,
      "note": 82,
      "start": 0.4828,
      "duration": 0.0011,
      "velocity": 127,
      "chip": "ym2612"
    },
    {
      "channel": 0,
      "note": 50,
      "start": 0.4905,
      "duration": 0.0094,
      "velocity": 88,
      "chip": "ym2612"
    },
    {
      "channel": 1,
      "note": 82,
      "start": 0.4908,
      "duration": 0.0015,
      "velocity": 127,
      "chip": "ym2612"
    },
    {
      "channel": 1,
      "note": 101,
      "start": 0.4986,
      "duration": 0.0006,
      "velocity": 114,
      "chip": "ym2612"
    },
    {
      "channel": 0,
      "note": 48,
      "start": 0.4999,
      "duration": 0.0062,
      "velocity": 88,
      "chip": "ym2612"
    },
    {
      "channel": 1,
      "note": 106,
      "start": 0.5026,
      "duration": 0.0007,
      "velocity": 127,
      "chip": "ym2612"
    },
    {
      "channel": 0,
      "note": 50,
      "start": 0.5061,
      "duration": 0.0408,
      "velocity": 88,
      "chip": "ym2612"
    },
    {
      "channel": 1,
      "note": 101,
      "start": 0.508,
      "duration": 0.001,
      "velocity": 114,
      "chip": "ym2612"
    },
    {
      "channel": 1,
      "note": 106,
      "start": 0.5115,
      "duration": 0.0005,
      "velocity": 127,
      "chip": "ym2612"
    },
    {
      "channel": 0,
      "note": 48,
      "start": 0.547,
      "duration": 0.0064,
      "velocity": 88,
      "chip": "ym2612"
    },
    {
      "channel": 1,
      "note": 101,
      "start": 0.5512,
      "duration": 0.0004,
      "velocity": 114,
      "chip": "ym2612"
    },
    {
      "channel": 0,
      "note": 51,
      "start": 0.5535,
      "duration": 0.0134,
      "velocity": 88,
      "chip": "ym2612"
    },
    {
      "channel": 1,
      "note": 106,
      "start": 0.5552,
      "duration": 0.0011,
      "velocity": 114,
      "chip": "ym2612"
    },
    {
      "channel": 0,
      "note": 50,
      "start": 0.567,
      "duration": 0.0482,
      "velocity": 88,
      "chip": "ym2612"
    },
    {
      "channel": 1,
      "note": 106,
      "start": 0.5688,
      "duration": 0.0018,
      "velocity": 127,
      "chip": "ym2612"
    },
    {
      "channel": 1,
      "note": 101,
      "start": 0.5788,
      "duration": 0.001,
      "velocity": 114,
      "chip": "ym2612"
    },
    {
      "channel": 0,
      "note": 48,
      "start": 0.6152,
      "duration": 0.0077,
      "velocity": 88,
      "chip": "ym2612"
    },
    {
      "channel": 1,
      "note": 106,
      "start": 0.6194,
      "duration": 0.0007,
      "velocity": 127,
      "chip": "ym2612"
    },
    {
      "channel": 0,
      "note": 50,
      "start": 0.623,
      "duration": 0.0076,
      "velocity": 88,
      "chip": "ym2612"
    },
    {
      "channel": 1,
      "note": 101,
      "start": 0.6249,
      "duration": 0.0009,
      "velocity": 114,
      "chip": "ym2612"
    },
    {
      "channel": 1,
      "note": 106,
      "start": 0.6283,
      "duration": 0.0006,
      "velocity": 127,
      "chip": "ym2612"
    },
    {
      "channel": 0,
      "note": 48,
      "start": 0.6307,
      "duration": 0.0072,
      "velocity": 88,
      "chip": "ym2612"
    },
    {
      "channel": 1,
      "note": 101,
      "start": 0.6351,
      "duration": 0.0004,
      "velocity": 114,
      "chip": "ym2612"
    },
    {
      "channel": 0,
      "note": 52,
      "start": 0.6404,
      "duration": 0.0215,
      "velocity": 88,
      "chip": "ym2612"
    },
    {
      "channel": 1,
      "note": 82,
      "start": 0.6422,
      "duration": 0.0023,
      "velocity": 127,
      "chip": "ym2612"
    },
    {
      "channel": 1,
      "note": 106,
      "start": 0.6521,
      "duration": 0.0014,
      "velocity": 114,
      "chip": "ym2612"
    },
    {
      "channel": 0,
      "note": 50,
      "start": 0.6619,
      "duration": 0.0431,
      "velocity": 88,
      "chip": "ym2612"
    },
    {
      "channel": 1,
      "note": 106,
      "start": 0.6638,
      "duration": 0.0015,
      "velocity": 127,
      "chip": "ym2612"
    },
    {
      "channel": 1,
      "note": 101,
      "start": 0.6693,
      "duration": 0.0004,
      "velocity": 114,
      "chip": "ym2612"
    },
    {
      "channel": 0,
      "note": 48,
      "start": 0.705,
      "duration": 0.0083,
      "velocity": 88,
      "chip": "ym2612"
    },
    {
      "channel": 1,
      "note": 106,
      "start": 0.7094,
      "duration": 0.0007,
      "velocity": 127,
      "chip": "ym2612"
    },
    {
      "channel": 0,
      "note": 50,
      "start": 0.7134,
      "duration": 0.0068,
      "velocity": 88,
      "chip": "ym2612"
    },
    {
      "channel": 1,
      "note": 101,
      "start": 0.7153,
      "duration": 0.0009,
      "velocity": 114,
      "chip": "ym2612"
    },
    {
      "channel": 1,
      "note": 106,
      "start": 0.7188,
      "duration": 0.0007,
      "velocity": 127,
      "chip": "ym2612"
    },
    {
      "channel": 0,
      "note": 48,
      "start": 0.7202,
      "duration": 0.006,
      "velocity": 88,
      "chip": "ym2612"
    },
    {
      "channel": 1,
      "note": 101,
      "start": 0.7229,
      "duration": 0.0004,
      "velocity": 114,
      "chip": "ym2612"
    },
    {
      "channel": 0,
      "note": 53,
      "start": 0.7262,
      "duration": 0.0682,
      "velocity": 88,
      "chip": "ym2612"
    },
    {
      "channel": 1,
      "note": 106,
      "start": 0.728,
      "duration": 0.0015,
      "velocity": 114,
      "chip": "ym2612"
    },
    {
      "channel": 0,
      "note": 50,
      "start": 0.7944,
      "duration": 0.0088,
      "velocity": 88,
      "chip": "ym2612"
    },
    {
      "channel": 1,
      "note": 106,
      "start": 0.7963,
      "duration": 0.0012,
      "velocity": 127,
      "chip": "ym2612"
    },
    {
      "channel": 1,
      "note": 101,
      "start": 0.801,
      "duration": 0.0012,
      "velocity": 114,
      "chip": "ym2612"
    },
    {
      "channel": 0,
      "note": 48,
      "start": 0.8032,
      "duration": 0.0071,
      "velocity": 88,
      "chip": "ym2612"
    },
    {
      "channel": 1,
      "note": 106,
      "start": 0.8069,
      "duration": 0.001,
      "velocity": 127,
      "chip": "ym2612"
    },
    {
      "channel": 0,
      "note": 50,
      "start": 0.8103,
      "duration": 0.0048,
      "velocity": 88,
      "chip": "ym2612"
    },
    {
      "channel": 0,
      "note": 53,
      "start": 0.8151,
      "duration": 0.0024,
      "velocity": 88,
      "chip": "ym2612"
    },
    {
      "channel": 0,
      "note": 55,
      "start": 0.8176,
      "duration": 0.0018,
      "velocity": 88,
      "chip": "ym2612"
    },
    {
      "channel": 0,
      "note": 56,
      "start": 0.8194,
      "duration": 0.0017,
      "velocity": 88,
      "chip": "ym2612"
    },
    {
      "channel": 0,
      "note": 57,
      "start": 0.8212,
      "duration": 0.0018,
      "velocity": 88,
      "chip": "ym2612"
    },
    {
      "channel": 0,
      "note": 60,
      "start": 0.823,
      "duration": 0.0432,
      "velocity": 88,
      "chip": "ym2612"
    },
    {
      "channel": 1,
      "note": 82,
      "start": 0.8248,
      "duration": 0.0013,
      "velocity": 127,
      "chip": "ym2612"
    },
    {
      "channel": 0,
      "note": 55,
      "start": 0.9355,
      "duration": 0.0047,
      "velocity": 88,
      "chip": "ym2612"
    },
    {
      "channel": 1,
      "note": 82,
      "start": 0.9359,
      "duration": 0.0012,
      "velocity": 127,
      "chip": "ym2612"
    },
    {
      "channel": 0,
      "note": 48,
      "start": 0.9402,
      "duration": 0.0044,
      "velocity": 88,
      "chip": "ym2612"
    },
    {
      "channel": 1,
      "note": 84,
      "start": 0.942,
      "duration": 0.0015,
      "velocity": 123,
      "chip": "ym2612"
    },
    {
      "channel": 0,
      "note": 54,
      "start": 0.946,
      "duration": 0.0034,
      "velocity": 88,
      "chip": "ym2612"
    },
    {
      "channel": 1,
      "note": 84,
      "start": 0.948,
      "duration": 0.0004,
      "velocity": 123,
      "chip": "ym2612"
    },
    {
      "channel": 0,
      "note": 48,
      "start": 0.9495,
      "duration": 0.0007,
      "velocity": 88,
      "chip": "ym2612"
    },
    {
      "channel": 0,
      "note": 53,
      "start": 0.9508,
      "duration": 0.0028,
      "velocity": 88,
      "chip": "ym2612"
    },
    {
      "channel": 1,
      "note": 84,
      "start": 0.9511,
      "duration": 0.001,
      "velocity": 123,
      "chip": "ym2612"
    },
    {
      "channel": 0,
      "note": 52,
      "start": 0.9536,
      "duration": 0.0037,
      "velocity": 88,
      "chip": "ym2612"
    },
    {
      "channel": 1,
      "note": 84,
      "start": 0.9539,
      "duration": 0.0023,
      "velocity": 123,
      "chip": "ym2612"
    },
    {
      "channel": 0,
      "note": 48,
      "start": 0.9573,
      "duration": 0.001,
      "velocity": 88,
      "chip": "ym2612"
    },
    {
      "channel": 1,
      "note": 84,
      "start": 0.9576,
      "duration": 0.0008,
      "velocity": 123,
      "chip": "ym2612"
    },
    {
      "channel": 0,
      "note": 51,
      "start": 0.96,
      "duration": 0.0049,
      "velocity": 88,
      "chip": "ym2612"
    },
    {
      "channel": 1,
      "note": 84,
      "start": 0.9615,
      "duration": 0.0006,
      "velocity": 123,
      "chip": "ym2612"
    },
    {
      "channel": 0,
      "note": 48,
      "start": 0.9649,
      "duration": 0.0015,
      "velocity": 88,
      "chip": "ym2612"
    },
    {
      "channel": 0,
      "note": 50,
      "start": 0.969,
      "duration": 0.0124,
      "velocity": 88,
      "chip": "ym2612"
    },
    {
      "channel": 1,
      "note": 82,
      "start": 0.9707,
      "duration": 0.0017,
      "velocity": 127,
      "chip": "ym2612"
    },
    {
      "channel": 0,
      "note": 55,
      "start": 0.9814,
      "duration": 0.0048,
      "velocity": 88,
      "chip": "ym2612"
    },
    {
      "channel": 1,
      "note": 84,
      "start": 0.9832,
      "duration": 0.0018,
      "velocity": 123,
      "chip": "ym2612"
    },
    {
      "channel": 0,
      "note": 48,
      "start": 0.9862,
      "duration": 0.001,
      "velocity": 88,
      "chip": "ym2612"
    },
    {
      "channel": 1,
      "note": 84,
      "start": 0.9865,
      "duration": 0.0008,
      "velocity": 123,
      "chip": "ym2612"
    },
    {
      "channel": 0,
      "note": 54,
      "start": 0.988,
      "duration": 0.0026,
      "velocity": 88,
      "chip": "ym2612"
    },
    {
      "channel": 1,
      "note": 84,
      "start": 0.9892,
      "duration": 0.0004,
      "velocity": 123,
      "chip": "ym2612"
    },
    {
      "channel": 0,
      "note": 48,
      "start": 0.9907,
      "duration": 0.0007,
      "velocity": 88,
      "chip": "ym2612"
    },
    {
      "channel": 0,
      "note": 53,
      "start": 0.9946,
      "duration": 0.0029,
      "velocity": 88,
      "chip": "ym2612"
    },
    {
      "channel": 1,
      "note": 84,
      "start": 0.9949,
      "duration": 0.001,
      "velocity": 123,
      "chip": "ym2612"
    },
    {
      "channel": 0,
      "note": 52,
      "start": 0.9976,
      "duration": 0.0036,
      "velocity": 88,
      "chip": "ym2612"
    },
    {
      "channel": 1,
      "note": 84,
      "start": 0.9979,
      "duration": 0.0022,
      "velocity": 123,
      "chip": "ym2612"
    },
    {
      "channel": 0,
      "note": 48,
      "start": 1.0012,
      "duration": 0.0015,
      "velocity": 88,
      "chip": "ym2612"
    },
    {
      "channel": 1,
      "note": 84,
      "start": 1.0015,
      "duration": 0.0007,
      "velocity": 123,
      "chip": "ym2612"
    },
    {
      "channel": 0,
      "note": 51,
      "start": 1.0034,
      "duration": 0.0027,
      "velocity": 88,
      "chip": "ym2612"
    },
    {
      "channel": 1,
      "note": 84,
      "start": 1.0045,
      "duration": 0.0004,
      "velocity": 123,
      "chip": "ym2612"
    },
    {
      "channel": 0,
      "note": 48,
      "start": 1.006,
      "duration": 0.0007,
      "velocity": 88,
      "chip": "ym2612"
    },
    {
      "channel": 0,
      "note": 50,
      "start": 1.0078,
      "duration": 0.0039,
      "velocity": 88,
      "chip": "ym2612"
    },
    {
      "channel": 1,
      "note": 82,
      "start": 1.0096,
      "duration": 0.001,
      "velocity": 127,
      "chip": "ym2612"
    },
    {
      "channel": 0,
      "note": 55,
      "start": 1.0117,
      "duration": 0.0038,
      "velocity": 88,
      "chip": "ym2612"
    },
    {
      "channel": 1,
      "note": 84,
      "start": 1.0135,
      "duration": 0.001,
      "velocity": 123,
      "chip": "ym2612"
    },
    {
      "channel": 0,
      "note": 48,
      "start": 1.0155,
      "duration": 0.001,
      "velocity": 88,
      "chip": "ym2612"
    },
    {
      "channel": 1,
      "note": 84,
      "start": 1.0159,
      "duration": 0.0008,
      "velocity": 123,
      "chip": "ym2612"
    },
    {
      "channel": 0,
      "note": 54,
      "start": 1.0177,
      "duration": 0.0026,
      "velocity": 88,
      "chip": "ym2612"
    },
    {
      "channel": 1,
      "note": 84,
      "start": 1.0189,
      "duration": 0.0004,
      "velocity": 123,
      "chip": "ym2612"
    },
    {
      "channel": 0,
      "note": 48,
      "start": 1.0203,
      "duration": 0.0007,
      "velocity": 88,
      "chip": "ym2612"
    },
    {
      "channel": 0,
      "note": 53,
      "start": 1.0218,
      "duration": 0.0027,
      "velocity": 88,
      "chip": "ym2612"
    },
    {
      "channel": 1,
      "note": 84,
      "start": 1.0221,
      "duration": 0.001,
      "velocity": 123,
      "chip": "ym2612"
    },
    {
      "channel": 0,
      "note": 52,
      "start": 1.0245,
      "duration": 0.0036,
      "velocity": 88,
      "chip": "ym2612"
    },
    {
      "channel": 1,
      "note": 84,
      "start": 1.0249,
      "duration": 0.0022,
      "velocity": 123,
      "chip": "ym2612"
    },
    {
      "channel": 0,
      "note": 48,
      "start": 1.0282,
      "duration": 0.0015,
      "velocity": 88,
      "chip": "ym2612"
    },
    {
      "channel": 1,
      "note": 84,
      "start": 1.0285,
      "duration": 0.0007,
      "velocity": 123,
      "chip": "ym2612"
    },
    {
      "channel": 0,
      "note": 51,
      "start": 1.0304,
      "duration": 0.0026,
      "velocity": 88,
      "chip": "ym2612"
    },
    {
      "channel": 1,
      "note": 84,
      "start": 1.0315,
      "duration": 0.0005,
      "velocity": 123,
      "chip": "ym2612"
    },
    {
      "channel": 0,
      "note": 48,
      "start": 1.033,
      "duration": 0.0007,
      "velocity": 88,
      "chip": "ym2612"
    },
    {
      "channel": 0,
      "note": 50,
      "start": 1.0344,
      "duration": 0.0052,
      "velocity": 88,
      "chip": "ym2612"
    },
    {
      "channel": 1,
      "note": 82,
      "start": 1.0361,
      "duration": 0.0009,
      "velocity": 127,
      "chip": "ym2612"
    },
    {
      "channel": 0,
      "note": 50,
      "start": 1.0396,
      "duration": 0.0022,
      "velocity": 88,
      "chip": "ym2612"
    },
    {
      "channel": 1,
      "note": 82,
      "start": 1.0399,
      "duration": 0.001,
      "velocity": 127,
      "chip": "ym2612"
    },
    {
      "channel": 0,
      "note": 49,
      "start": 1.0425,
      "duration": 0.0021,
      "velocity": 88,
      "chip": "ym2612"
    },
    {
      "channel": 1,
      "note": 82,
      "start": 1.0428,
      "duration": 0.001,
      "velocity": 127,
      "chip": "ym2612"
    },
    {
      "channel": 0,
      "note": 48,
      "start": 1.0801,
      "duration": 0.0023,
      "velocity": 88,
      "chip": "ym2612"
    },
    {
      "channel": 1,
      "note": 82,
      "start": 1.0804,
      "duration": 0.001,
      "velocity": 127,
      "chip": "ym2612"
    },
    {
      "channel": 0,
      "note": 47,
      "start": 1.0824,
      "duration": 0.037,
      "velocity": 88,
      "chip": "ym2612"
    },
    {
      "channel": 1,
      "note": 82,
      "start": 1.0827,
      "duration": 0.0009,
      "velocity": 127,
      "chip": "ym2612"
    },
    {
      "channel": 0,
      "note": 46,
      "start": 1.1195,
      "duration": 0.0022,
      "velocity": 88,
      "chip": "ym2612"
    },
    {
      "channel": 1,
      "note": 82,
      "start": 1.1198,
      "duration": 0.001,
      "velocity": 127,
      "chip": "ym2612"
    },
    {
      "channel": 0,
      "note": 45,
      "start": 1.1732,
      "duration": 0.0043,
      "velocity": 88,
      "chip": "ym2612"
    },
    {
      "channel": 1,
      "note": 82,
      "start": 1.1735,
      "duration": 0.0029,
      "velocity": 127,
      "chip": "ym2612"
    },
    {
      "channel": 0,
      "note": 44,
      "start": 1.1774,
      "duration": 0.0061,
      "velocity": 88,
      "chip": "ym2612"
    },
    {
      "channel": 1,
      "note": 82,
      "start": 1.1778,
      "duration": 0.001,
      "velocity": 127,
      "chip": "ym2612"
    },
    {
      "channel": 1,
      "note": 82,
      "start": 1.1812,
      "duration": 0.0007,
      "velocity": 127,
      "chip": "ym2612"
    },
    {
      "channel": 0,
      "note": 53,
      "start": 1.1836,
      "duration": 0.0263,
      "velocity": 88,
      "chip": "ym2612"
    },
    {
      "channel": 1,
      "note": 106,
      "start": 1.1854,
      "duration": 0.0005,
      "velocity": 127,
      "chip": "ym2612"
    },
    {
      "channel": 0,
      "note": 50,
      "start": 1.2099,
      "duration": 0.066,
      "velocity": 88,
      "chip": "ym2612"
    },
    {
      "channel": 0,
      "note": 55,
      "start": 1.3101,
      "duration": 0.0017,
      "velocity": 88,
      "chip": "ym2612"
    },
    {
      "channel": 0,
      "note": 50,
      "start": 1.3119,
      "duration": 0.0015,
      "velocity": 88,
      "chip": "ym2612"
    },
    {
      "channel": 0,
      "note": 58,
      "start": 1.3134,
      "duration": 0.0018,
      "velocity": 88,
      "chip": "ym2612"
    },
    {
      "channel": 1,
      "note": 106,
      "start": 1.3139,
      "duration": 0.0007,
      "velocity": 127,
      "chip": "ym2612"
    },
    {
      "channel": 0,
      "note": 50,
      "start": 1.3152,
      "duration": 0.0005,
      "velocity": 88,
      "chip": "ym2612"
    },
    {
      "channel": 0,
      "note": 53,
      "start": 1.3364,
      "duration": 0.0663,
      "velocity": 88,
      "chip": "ym2612"
    },
    {
      "channel": 0,
      "note": 55,
      "start": 1.4369,
      "duration": 0.0009,
      "velocity": 88,
      "chip": "ym2612"
    },
    {
      "channel": 0,
      "note": 50,
      "start": 1.4378,
      "duration": 0.0014,
      "velocity": 88,
      "chip": "ym2612"
    },
    {
      "channel": 1,
      "note": 106,
      "start": 1.4383,
      "duration": 0.0005,
      "velocity": 127,
      "chip": "ym2612"
    },
    {
      "channel": 0,
      "note": 58,
      "start": 1.4607,
      "duration": 0.1174,
      "velocity": 88,
      "chip": "ym2612"
    },
    {
      "channel": 0,
      "note": 50,
      "start": 1.5782,
      "duration": 0.001,
      "velocity": 88,
      "chip": "ym2612"
    },
    {
      "channel": 0,
      "note": 53,
      "start": 1.5792,
      "duration": 0.0014,
      "velocity": 88,
      "chip": "ym2612"
    },
    {
      "channel": 0,
      "note": 55,
      "start": 1.5829,
      "duration": 0.0018,
      "velocity": 88,
      "chip": "ym2612"
    },
    {
      "channel": 1,
      "note": 106,
      "start": 1.5833,
      "duration": 0.0007,
      "velocity": 127,
      "chip": "ym2612"
    },
    {
      "channel": 0,
      "note": 50,
      "start": 1.5847,
      "duration": 0.0221,
      "velocity": 88,
      "chip": "ym2612"
    },
    {
      "channel": 0,
      "note": 58,
      "start": 1.6068,
      "duration": 0.1001,
      "velocity": 88,
      "chip": "ym2612"
    },
    {
      "channel": 0,
      "note": 50,
      "start": 1.707,
      "duration": 0.0007,
      "velocity": 88,
      "chip": "ym2612"
    },
    {
      "channel": 0,
      "note": 53,
      "start": 1.7084,
      "duration": 0.0227,
      "velocity": 88,
      "chip": "ym2612"
    },
    {
      "channel": 1,
      "note": 106,
      "start": 1.7089,
      "duration": 0.0005,
      "velocity": 127,
      "chip": "ym2612"
    },
    {
      "channel": 0,
      "note": 48,
      "start": 1.7311,
      "duration": 0.1171,
      "velocity": 88,
      "chip": "ym2612"
    },
    {
      "channel": 0,
      "note": 55,
      "start": 1.8483,
      "duration": 0.001,
      "velocity": 88,
      "chip": "ym2612"
    },
    {
      "channel": 0,
      "note": 48,
      "start": 1.8493,
      "duration": 0.0014,
      "velocity": 88,
      "chip": "ym2612"
    },
    {
      "channel": 0,
      "note": 58,
      "start": 1.853,
      "duration": 0.0018,
      "velocity": 88,
      "chip": "ym2612"
    },
    {
      "channel": 1,
      "note": 106,
      "start": 1.8534,
      "duration": 0.0007,
      "velocity": 127,
      "chip": "ym2612"
    },
    {
      "channel": 0,
      "note": 48,
      "start": 1.8548,
      "duration": 0.022,
      "velocity": 88,
      "chip": "ym2612"
    },
    {
      "channel": 0,
      "note": 53,
      "start": 1.8768,
      "duration": 0.066,
      "velocity": 88,
      "chip": "ym2612"
    },
    {
      "channel": 0,
      "note": 55,
      "start": 1.9769,
      "duration": 0.0009,
      "velocity": 88,
      "chip": "ym2612"
    },
    {
      "channel": 0,
      "note": 48,
      "start": 1.9779,
      "duration": 0.0234,
      "velocity": 88,
      "chip": "ym2612"
    },
    {
      "channel": 1,
      "note": 106,
      "start": 1.9783,
      "duration": 0.0005,
      "velocity": 127,
      "chip": "ym2612"
    },
    {
      "channel": 0,
      "note": 58,
      "start": 2.0013,
      "duration": 0.1001,
      "velocity": 88,
      "chip": "ym2612"
    },
    {
      "channel": 0,
      "note": 48,
      "start": 2.1015,
      "duration": 0.0018,
      "velocity": 88,
      "chip": "ym2612"
    },
    {
      "channel": 0,
      "note": 53,
      "start": 2.1034,
      "duration": 0.0013,
      "velocity": 88,
      "chip": "ym2612"
    },
    {
      "channel": 0,
      "note": 55,
      "start": 2.1072,
      "duration": 0.0017,
      "velocity": 88,
      "chip": "ym2612"
    },
    {
      "channel": 1,
      "note": 106,
      "start": 2.1076,
      "duration": 0.0007,
      "velocity": 127,
      "chip": "ym2612"
    },
    {
      "channel": 0,
      "note": 48,
      "start": 2.109,
      "duration": 0.022,
      "velocity": 88,
      "chip": "ym2612"
    },
    {
      "channel": 0,
      "note": 58,
      "start": 2.131,
      "duration": 0.1168,
      "velocity": 88,
      "chip": "ym2612"
    },
    {
      "channel": 0,
      "note": 47,
      "start": 2.2479,
      "duration": 0.0007,
      "velocity": 88,
      "chip": "ym2612"
    },
    {
      "channel": 0,
      "note": 53,
      "start": 2.2493,
      "duration": 0.0227,
      "velocity": 88,
      "chip": "ym2612"
    },
    {
      "channel": 1,
      "note": 106,
      "start": 2.2497,
      "duration": 0.0005,
      "velocity": 127,
      "chip": "ym2612"
    },
    {
      "channel": 0,
      "note": 47,
      "start": 2.272,
      "duration": 0.066,
      "velocity": 88,
      "chip": "ym2612"
    },
    {
      "channel": 0,
      "note": 55,
      "start": 2.3722,
      "duration": 0.0017,
      "velocity": 88,
      "chip": "ym2612"
    },
    {
      "channel": 0,
      "note": 47,
      "start": 2.374,
      "duration": 0.0015,
      "velocity": 88,
      "chip": "ym2612"
    },
    {
      "channel": 0,
      "note": 58,
      "start": 2.3755,
      "duration": 0.0018,
      "velocity": 88,
      "chip": "ym2612"
    },
    {
      "channel": 1,
      "note": 106,
      "start": 2.376,
      "duration": 0.0007,
      "velocity": 127,
      "chip": "ym2612"
    },
    {
      "channel": 0,
      "note": 47,
      "start": 2.3773,
      "duration": 0.0217,
      "velocity": 88,
      "chip": "ym2612"
    },
    {
      "channel": 0,
      "note": 53,
      "start": 2.3991,
      "duration": 0.066,
      "velocity": 88,
      "chip": "ym2612"
    },
    {
      "channel": 0,
      "note": 55,
      "start": 2.5159,
      "duration": 0.0009,
      "velocity": 88,
      "chip": "ym2612"
    },
    {
      "channel": 0,
      "note": 47,
      "start": 2.5168,
      "duration": 0.0236,
      "velocity": 88,
      "chip": "ym2612"
    },
    {
      "channel": 1,
      "note": 106,
      "start": 2.5172,
      "duration": 0.0005,
      "velocity": 127,
      "chip": "ym2612"
    },
    {
      "channel": 0,
      "note": 58,
      "start": 2.5404,
      "duration": 0.1004,
      "velocity": 88,
      "chip": "ym2612"
    },
    {
      "channel": 0,
      "note": 47,
      "start": 2.6408,
      "duration": 0.0015,
      "velocity": 88,
      "chip": "ym2612"
    },
    {
      "channel": 0,
      "note": 53,
      "start": 2.6424,
      "duration": 0.0013,
      "velocity": 88,
      "chip": "ym2612"
    },
    {
      "channel": 0,
      "note": 55,
      "start": 2.6462,
      "duration": 0.0018,
      "velocity": 88,
      "chip": "ym2612"
    },
    {
      "channel": 1,
      "note": 106,
      "start": 2.6466,
      "duration": 0.0007,
      "velocity": 127,
      "chip": "ym2612"
    },
    {
      "channel": 0,
      "note": 47,
      "start": 2.648,
      "duration": 0.0217,
      "velocity": 88,
      "chip": "ym2612"
    },
    {
      "channel": 0,
      "note": 58,
      "start": 2.6699,
      "duration": 0.1006,
      "velocity": 88,
      "chip": "ym2612"
    },
    {
      "channel": 0,
      "note": 47,
      "start": 2.7706,
      "duration": 0.0007,
      "velocity": 88,
      "chip": "ym2612"
    },
    {
      "channel": 0,
      "note": 53,
      "start": 2.772,
      "duration": 0.0224,
      "velocity": 88,
      "chip": "ym2612"
    },
    {
      "channel": 1,
      "note": 106,
      "start": 2.7724,
      "duration": 0.0005,
      "velocity": 127,
      "chip": "ym2612"
    },
    {
      "channel": 0,
      "note": 48,
      "start": 2.7945,
      "duration": 0.0826,
      "velocity": 88,
      "chip": "ym2612"
    },
    {
      "channel": 0,
      "note": 56,
      "start": 2.9117,
      "duration": 0.0007,
      "velocity": 88,
      "chip": "ym2612"
    },
    {
      "channel": 0,
      "note": 48,
      "start": 2.9132,
      "duration": 0.0017,
      "velocity": 88,
      "chip": "ym2612"
    },
    {
      "channel": 0,
      "note": 58,
      "start": 2.9149,
      "duration": 0.0018,
      "velocity": 88,
      "chip": "ym2612"
    },
    {
      "channel": 1,
      "note": 106,
      "start": 2.9154,
      "duration": 0.0007,
      "velocity": 127,
      "chip": "ym2612"
    },
    {
      "channel": 0,
      "note": 48,
      "start": 2.9168,
      "duration": 0.0221,
      "velocity": 88,
      "chip": "ym2612"
    },
    {
      "channel": 0,
      "note": 53,
      "start": 2.939,
      "duration": 0.0007,
      "velocity": 88,
      "chip": "ym2612"
    },
    {
      "channel": 0,
      "note": 55,
      "start": 2.942,
      "duration": 0.0011,
      "velocity": 88,
      "chip": "ym2612"
    },
    {
      "channel": 0,
      "note": 58,
      "start": 2.9431,
      "duration": 0.0033,
      "velocity": 88,
      "chip": "ym2612"
    },
    {
      "channel": 1,
      "note": 106,
      "start": 2.9435,
      "duration": 0.0007,
      "velocity": 127,
      "chip": "ym2612"
    },
    {
      "channel": 0,
      "note": 60,
      "start": 2.9463,
      "duration": 0.0028,
      "velocity": 88,
      "chip": "ym2612"
    },
    {
      "channel": 0,
      "note": 58,
      "start": 2.9491,
      "duration": 0.0018,
      "velocity": 88,
      "chip": "ym2612"
    },
    {
      "channel": 0,
      "note": 55,
      "start": 2.951,
      "duration": 0.0009,
      "velocity": 88,
      "chip": "ym2612"
    },
    {
      "channel": 0,
      "note": 58,
      "start": 2.9527,
      "duration": 0.0037,
      "velocity": 88,
      "chip": "ym2612"
    },
    {
      "channel": 0,
      "note": 55,
      "start": 2.9564,
      "duration": 0.0026,
      "velocity": 88,
      "chip": "ym2612"
    },
    {
      "channel": 0,
      "note": 53,
      "start": 2.959,
      "duration": 0.0034,
      "velocity": 88,
      "chip": "ym2612"
    },
    {
      "channel": 0,
      "note": 48,
      "start": 2.9624,
      "duration": 0.0023,
      "velocity": 88,
      "chip": "ym2612"
    },
    {
      "channel": 0,
      "note": 53,
      "start": 2.9648,
      "duration": 0.0033,
      "velocity": 88,
      "chip": "ym2612"
    },
    {
      "channel": 1,
      "note": 82,
      "start": 2.9666,
      "duration": 0.0009,
      "velocity": 127,
      "chip": "ym2612"
    },
    {
      "channel": 0,
      "note": 50,
      "start": 2.9682,
      "duration": 0.0005,
      "velocity": 88,
      "chip": "ym2612"
    },
    {
      "channel": 0,
      "note": 55,
      "start": 2.9693,
      "duration": 0.0012,
      "velocity": 88,
      "chip": "ym2612"
    },
    {
      "channel": 0,
      "note": 50,
      "start": 2.9706,
      "duration": 0.0012,
      "velocity": 88,
      "chip": "ym2612"
    },
    {
      "channel": 0,
      "note": 58,
      "start": 2.9719,
      "duration": 0.0034,
      "velocity": 88,
      "chip": "ym2612"
    },
    {
      "channel": 1,
      "note": 106,
      "start": 2.9737,
      "duration": 0.001,
      "velocity": 127,
      "chip": "ym2612"
    },
    {
      "channel": 0,
      "note": 50,
      "start": 2.9754,
      "duration": 0.0004,
      "velocity": 88,
      "chip": "ym2612"
    },
    {
      "channel": 0,
      "note": 53,
      "start": 2.9778,
      "duration": 0.0013,
      "velocity": 88,
      "chip": "ym2612"
    },
    {
      "channel": 0,
      "note": 55,
      "start": 2.9805,
      "duration": 0.0012,
      "velocity": 88,
      "chip": "ym2612"
    },
    {
      "channel": 0,
      "note": 50,
      "start": 2.9817,
      "duration": 0.0013,
      "velocity": 88,
      "chip": "ym2612"
    },
    {
      "channel": 1,
      "note": 106,
      "start": 2.9821,
      "duration": 0.0004,
      "velocity": 127,
      "chip": "ym2612"
    },
    {
      "channel": 0,
      "note": 58,
      "start": 2.9841,
      "duration": 0.0013,
      "velocity": 88,
      "chip": "ym2612"
    },
    {
      "channel": 0,
      "note": 50,
      "start": 2.9855,
      "duration": 0.0009,
      "velocity": 88,
      "chip": "ym2612"
    },
    {
      "channel": 0,
      "note": 53,
      "start": 2.9864,
      "duration": 0.0011,
      "velocity": 88,
      "chip": "ym2612"
    },
    {
      "channel": 0,
      "note": 55,
      "start": 2.9904,
      "duration": 0.002,
      "velocity": 88,
      "chip": "ym2612"
    },
    {
      "channel": 1,
      "note": 106,
      "start": 2.9908,
      "duration": 0.001,
      "velocity": 127,
      "chip": "ym2612"
    },
    {
      "channel": 0,
      "note": 50,
      "start": 2.9924,
      "duration": 0.0021,
      "velocity": 88,
      "chip": "ym2612"
    },
    {
      "channel": 0,
      "note": 58,
      "start": 2.9945,
      "duration": 0.0016,
      "velocity": 88,
      "chip": "ym2612"
    },
    {
      "channel": 0,
      "note": 50,
      "start": 2.9961,
      "duration": 0.0007,
      "velocity": 88,
      "chip": "ym2612"
    },
    {
      "channel": 0,
      "note": 53,
      "start": 2.9975,
      "duration": 0.0021,
      "velocity": 88,
      "chip": "ym2612"
    },
    {
      "channel": 1,
      "note": 106,
      "start": 2.9978,
      "duration": 0.0007,
      "velocity": 127,
      "chip": "ym2612"
    },
    {
      "channel": 0,
      "note": 48,
      "start": 2.9996,
      "duration": 0.0013,
      "velocity": 88,
      "chip": "ym2612"
    },
    {
      "channel": 0,
      "note": 55,
      "start": 3.0009,
      "duration": 0.0028,
      "velocity": 88,
      "chip": "ym2612"
    },
    {
      "channel": 0,
      "note": 48,
      "start": 3.0037,
      "duration": 0.0007,
      "velocity": 88,
      "chip": "ym2612"
    },
    {
      "channel": 0,
      "note": 58,
      "start": 3.0051,
      "duration": 0.0021,
      "velocity": 88,
      "chip": "ym2612"
    },
    {
      "channel": 1,
      "note": 106,
      "start": 3.0055,
      "duration": 0.001,
      "velocity": 127,
      "chip": "ym2612"
    },
    {
      "channel": 0,
      "note": 48,
      "start": 3.0072,
      "duration": 0.0024,
      "velocity": 88,
      "chip": "ym2612"
    },
    {
      "channel": 0,
      "note": 53,
      "start": 3.0096,
      "duration": 0.0013,
      "velocity": 88,
      "chip": "ym2612"
    },
    {
      "channel": 0,
      "note": 55,
      "start": 3.0127,
      "duration": 0.0011,
      "velocity": 88,
      "chip": "ym2612"
    },
    {
      "channel": 0,
      "note": 48,
      "start": 3.0139,
      "duration": 0.0031,
      "velocity": 88,
      "chip": "ym2612"
    },
    {
      "channel": 1,
      "note": 106,
      "start": 3.0143,
      "duration": 0.0005,
      "velocity": 127,
      "chip": "ym2612"
    },
    {
      "channel": 0,
      "note": 58,
      "start": 3.0171,
      "duration": 0.0015,
      "velocity": 88,
      "chip": "ym2612"
    },
    {
      "channel": 0,
      "note": 48,
      "start": 3.0186,
      "duration": 0.0009,
      "velocity": 88,
      "chip": "ym2612"
    },
    {
      "channel": 0,
      "note": 53,
      "start": 3.0196,
      "duration": 0.001,
      "velocity": 88,
      "chip": "ym2612"
    },
    {
      "channel": 0,
      "note": 55,
      "start": 3.0234,
      "duration": 0.002,
      "velocity": 88,
      "chip": "ym2612"
    },
    {
      "channel": 1,
      "note": 106,
      "start": 3.0238,
      "duration": 0.001,
      "velocity": 127,
      "chip": "ym2612"
    },
    {
      "channel": 0,
      "note": 48,
      "start": 3.0254,
      "duration": 0.0021,
      "velocity": 88,
      "chip": "ym2612"
    },
    {
      "channel": 0,
      "note": 58,
      "start": 3.0276,
      "duration": 0.0015,
      "velocity": 88,
      "chip": "ym2612"
    },
    {
      "channel": 0,
      "note": 47,
      "start": 3.0291,
      "duration": 0.0007,
      "velocity": 88,
      "chip": "ym2612"
    },
    {
      "channel": 0,
      "note": 53,
      "start": 3.0305,
      "duration": 0.0022,
      "velocity": 88,
      "chip": "ym2612"
    },
    {
      "channel": 1,
      "note": 106,
      "start": 3.0309,
      "duration": 0.0007,
      "velocity": 127,
      "chip": "ym2612"
    },
    {
      "channel": 0,
      "note": 47,
      "start": 3.0327,
      "duration": 0.0005,
      "velocity": 88,
      "chip": "ym2612"
    },
    {
      "channel": 0,
      "note": 55,
      "start": 3.0339,
      "duration": 0.001,
      "velocity": 88,
      "chip": "ym2612"
    },
    {
      "channel": 0,
      "note": 47,
      "start": 3.035,
      "duration": 0.0009,
      "velocity": 88,
      "chip": "ym2612"
    },
    {
      "channel": 0,
      "note": 58,
      "start": 3.0359,
      "duration": 0.002,
      "velocity": 88,
      "chip": "ym2612"
    },
    {
      "channel": 1,
      "note": 106,
      "start": 3.0363,
      "duration": 0.0009,
      "velocity": 127,
      "chip": "ym2612"
    },
    {
      "channel": 0,
      "note": 47,
      "start": 3.0378,
      "duration": 0.002,
      "velocity": 88,
      "chip": "ym2612"
    },
    {
      "channel": 0,
      "note": 53,
      "start": 3.04,
      "duration": 0.0013,
      "velocity": 88,
      "chip": "ym2612"
    },
    {
      "channel": 0,
      "note": 55,
      "start": 3.0432,
      "duration": 0.0011,
      "velocity": 88,
      "chip": "ym2612"
    },
    {
      "channel": 0,
      "note": 47,
      "start": 3.0443,
      "duration": 0.0031,
      "velocity": 88,
      "chip": "ym2612"
    },
    {
      "channel": 1,
      "note": 106,
      "start": 3.0447,
      "duration": 0.0005,
      "velocity": 127,
      "chip": "ym2612"
    },
    {
      "channel": 0,
      "note": 58,
      "start": 3.0475,
      "duration": 0.0016,
      "velocity": 88,
      "chip": "ym2612"
    },
    {
      "channel": 0,
      "note": 47,
      "start": 3.049,
      "duration": 0.0009,
      "velocity": 88,
      "chip": "ym2612"
    },
    {
      "channel": 0,
      "note": 53,
      "start": 3.0499,
      "duration": 0.0011,
      "velocity": 88,
      "chip": "ym2612"
    },
    {
      "channel": 0,
      "note": 55,
      "start": 3.0539,
      "duration": 0.002,
      "velocity": 88,
      "chip": "ym2612"
    },
    {
      "channel": 1,
      "note": 106,
      "start": 3.0544,
      "duration": 0.0009,
      "velocity": 127,
      "chip": "ym2612"
    },
    {
      "channel": 0,
      "note": 47,
      "start": 3.0559,
      "duration": 0.0018,
      "velocity": 88,
      "chip": "ym2612"
    },
    {
      "channel": 0,
      "note": 58,
      "start": 3.0578,
      "duration": 0.0016,
      "velocity": 88,
      "chip": "ym2612"
    },
    {
      "channel": 0,
      "note": 47,
      "start": 3.0593,
      "duration": 0.0007,
      "velocity": 88,
      "chip": "ym2612"
    },
    {
      "channel": 0,
      "note": 53,
      "start": 3.0607,
      "duration": 0.0021,
      "velocity": 88,
      "chip": "ym2612"
    },
    {
      "channel": 1,
      "note": 106,
      "start": 3.0611,
      "duration": 0.0007,
      "velocity": 127,
      "chip": "ym2612"
    },
    {
      "channel": 0,
      "note": 48,
      "start": 3.0629,
      "duration": 0.0005,
      "velocity": 88,
      "chip": "ym2612"
    },
    {
      "channel": 0,
      "note": 56,
      "start": 3.0641,
      "duration": 0.001,
      "velocity": 88,
      "chip": "ym2612"
    },
    {
      "channel": 0,
      "note": 48,
      "start": 3.0658,
      "duration": 0.0008,
      "velocity": 88,
      "chip": "ym2612"
    },
    {
      "channel": 0,
      "note": 58,
      "start": 3.0667,
      "duration": 0.002,
      "velocity": 88,
      "chip": "ym2612"
    },
    {
      "channel": 1,
      "note": 106,
      "start": 3.0671,
      "duration": 0.001,
      "velocity": 127,
      "chip": "ym2612"
    },
    {
      "channel": 0,
      "note": 48,
      "start": 3.0687,
      "duration": 0.002,
      "velocity": 88,
      "chip": "ym2612"
    },
    {
      "channel": 0,
      "note": 53,
      "start": 3.0707,
      "duration": 0.0014,
      "velocity": 88,
      "chip": "ym2612"
    },
    {
      "channel": 0,
      "note": 55,
      "start": 3.0732,
      "duration": 0.001,
      "velocity": 88,
      "chip": "ym2612"
    },
    {
      "channel": 0,
      "note": 58,
      "start": 3.0743,
      "duration": 0.0037,
      "velocity": 88,
      "chip": "ym2612"
    },
    {
      "channel": 1,
      "note": 106,
      "start": 3.0746,
      "duration": 0.0007,
      "velocity": 127,
      "chip": "ym2612"
    },
    {
      "channel": 0,
      "note": 60,
      "start": 3.078,
      "duration": 0.0011,
      "velocity": 88,
      "chip": "ym2612"
    },
    {
      "channel": 0,
      "note": 58,
      "start": 3.0791,
      "duration": 0.0029,
      "velocity": 88,
      "chip": "ym2612"
    },
    {
      "channel": 0,
      "note": 55,
      "start": 3.082,
      "duration": 0.001,
      "velocity": 88,
      "chip": "ym2612"
    },
    {
      "channel": 0,
      "note": 58,
      "start": 3.0847,
      "duration": 0.0043,
      "velocity": 88,
      "chip": "ym2612"
    },
    {
      "channel": 0,
      "note": 55,
      "start": 3.089,
      "duration": 0.0026,
      "velocity": 88,
      "chip": "ym2612"
    },
    {
      "channel": 0,
      "note": 53,
      "start": 3.0916,
      "duration": 0.0032,
      "velocity": 88,
      "chip": "ym2612"
    },
    {
      "channel": 0,
      "note": 48,
      "start": 3.0948,
      "duration": 0.0017,
      "velocity": 88,
      "chip": "ym2612"
    },
    {
      "channel": 0,
      "note": 53,
      "start": 3.0966,
      "duration": 0.0049,
      "velocity": 88,
      "chip": "ym2612"
    },
    {
      "channel": 1,
      "note": 82,
      "start": 3.0983,
      "duration": 0.0012,
      "velocity": 127,
      "chip": "ym2612"
    },
    {
      "channel": 0,
      "note": 50,
      "start": 3.1015,
      "duration": 0.0018,
      "velocity": 88,
      "chip": "ym2612"
    },
    {
      "channel": 0,
      "note": 55,
      "start": 3.1048,
      "duration": 0.0035,
      "velocity": 88,
      "chip": "ym2612"
    },
    {
      "channel": 0,
      "note": 50,
      "start": 3.1083,
      "duration": 0.0029,
      "velocity": 88,
      "chip": "ym2612"
    },
    {
      "channel": 0,
      "note": 58,
      "start": 3.1113,
      "duration": 0.0034,
      "velocity": 88,
      "chip": "ym2612"
    },
    {
      "channel": 1,
      "note": 84,
      "start": 3.1131,
      "duration": 0.001,
      "velocity": 123,
      "chip": "ym2612"
    },
    {
      "channel": 0,
      "note": 50,
      "start": 3.1147,
      "duration": 0.0005,
      "velocity": 88,
      "chip": "ym2612"
    },
    {
      "channel": 0,
      "note": 53,
      "start": 3.1173,
      "duration": 0.001,
      "velocity": 88,
      "chip": "ym2612"
    },
    {
      "channel": 0,
      "note": 55,
      "start": 3.1209,
      "duration": 0.0011,
      "velocity": 88,
      "chip": "ym2612"
    },
    {
      "channel": 0,
      "note": 50,
      "start": 3.122,
      "duration": 0.0012,
      "velocity": 88,
      "chip": "ym2612"
    },
    {
      "channel": 1,
      "note": 84,
      "start": 3.1224,
      "duration": 0.0004,
      "velocity": 123,
      "chip": "ym2612"
    },
    {
      "channel": 0,
      "note": 58,
      "start": 3.1243,
      "duration": 0.0013,
      "velocity": 88,
      "chip": "ym2612"
    },
    {
      "channel": 0,
      "note": 50,
      "start": 3.1256,
      "duration": 0.0009,
      "velocity": 88,
      "chip": "ym2612"
    },
    {
      "channel": 0,
      "note": 53,
      "start": 3.1266,
      "duration": 0.0007,
      "velocity": 88,
      "chip": "ym2612"
    },
    {
      "channel": 0,
      "note": 55,
      "start": 3.1279,
      "duration": 0.0032,
      "velocity": 88,
      "chip": "ym2612"
    },
    {
      "channel": 1,
      "note": 84,
      "start": 3.1283,
      "duration": 0.0011,
      "velocity": 123,
      "chip": "ym2612"
    },
    {
      "channel": 0,
      "note": 50,
      "start": 3.1312,
      "duration": 0.0037,
      "velocity": 88,
      "chip": "ym2612"
    },
    {
      "channel": 0,
      "note": 58,
      "start": 3.1349,
      "duration": 0.0035,
      "velocity": 88,
      "chip": "ym2612"
    },
    {
      "channel": 0,
      "note": 50,
      "start": 3.1384,
      "duration": 0.0015,
      "velocity": 88,
      "chip": "ym2612"
    },
    {
      "channel": 0,
      "note": 53,
      "start": 3.1412,
      "duration": 0.0043,
      "velocity": 88,
      "chip": "ym2612"
    },
    {
      "channel": 1,
      "note": 84,
      "start": 3.1415,
      "duration": 0.0014,
      "velocity": 123,
      "chip": "ym2612"
    },
    {
      "channel": 0,
      "note": 48,
      "start": 3.1456,
      "duration": 0.0012,
      "velocity": 88,
      "chip": "ym2612"
    },
    {
      "channel": 0,
      "note": 55,
      "start": 3.1468,
      "duration": 0.0016,
      "velocity": 88,
      "chip": "ym2612"
    },
    {
      "channel": 0,
      "note": 48,
      "start": 3.1484,
      "duration": 0.0008,
      "velocity": 88,
      "chip": "ym2612"
    },
    {
      "channel": 0,
      "note": 58,
      "start": 3.1499,
      "duration": 0.0019,
      "velocity": 88,
      "chip": "ym2612"
    },
    {
      "channel": 1,
      "note": 84,
      "start": 3.1502,
      "duration": 0.0009,
      "velocity": 123,
      "chip": "ym2612"
    },
    {
      "channel": 0,
      "note": 48,
      "start": 3.1518,
      "duration": 0.0031,
      "velocity": 88,
      "chip": "ym2612"
    },
    {
      "channel": 0,
      "note": 53,
      "start": 3.155,
      "duration": 0.001,
      "velocity": 88,
      "chip": "ym2612"
    },
    {
      "channel": 0,
      "note": 55,
      "start": 3.1574,
      "duration": 0.0012,
      "velocity": 88,
      "chip": "ym2612"
    },
    {
      "channel": 0,
      "note": 48,
      "start": 3.1585,
      "duration": 0.0037,
      "velocity": 88,
      "chip": "ym2612"
    },
    {
      "channel": 1,
      "note": 84,
      "start": 3.1589,
      "duration": 0.0006,
      "velocity": 123,
      "chip": "ym2612"
    },
    {
      "channel": 0,
      "note": 58,
      "start": 3.1622,
      "duration": 0.0023,
      "velocity": 88,
      "chip": "ym2612"
    },
    {
      "channel": 0,
      "note": 48,
      "start": 3.1646,
      "duration": 0.0016,
      "velocity": 88,
      "chip": "ym2612"
    },
    {
      "channel": 0,
      "note": 53,
      "start": 3.1662,
      "duration": 0.0015,
      "velocity": 88,
      "chip": "ym2612"
    },
    {
      "channel": 0,
      "note": 55,
      "start": 3.1689,
      "duration": 0.0021,
      "velocity": 88,
      "chip": "ym2612"
    },
    {
      "channel": 1,
      "note": 84,
      "start": 3.1692,
      "duration": 0.0011,
      "velocity": 123,
      "chip": "ym2612"
    },
    {
      "channel": 0,
      "note": 48,
      "start": 3.171,
      "duration": 0.0027,
      "velocity": 88,
      "chip": "ym2612"
    },
    {
      "channel": 0,
      "note": 58,
      "start": 3.1738,
      "duration": 0.0041,
      "velocity": 88,
      "chip": "ym2612"
    },
    {
      "channel": 0,
      "note": 47,
      "start": 3.178,
      "duration": 0.0016,
      "velocity": 88,
      "chip": "ym2612"
    },
    {
      "channel": 0,
      "note": 53,
      "start": 3.1802,
      "duration": 0.0022,
      "velocity": 88,
      "chip": "ym2612"
    },
    {
      "channel": 1,
      "note": 84,
      "start": 3.1805,
      "duration": 0.0007,
      "velocity": 123,
      "chip": "ym2612"
    },
    {
      "channel": 0,
      "note": 47,
      "start": 3.1824,
      "duration": 0.0005,
      "velocity": 88,
      "chip": "ym2612"
    },
    {
      "channel": 0,
      "note": 55,
      "start": 3.1836,
      "duration": 0.0027,
      "velocity": 88,
      "chip": "ym2612"
    },
    {
      "channel": 0,
      "note": 47,
      "start": 3.1864,
      "duration": 0.0008,
      "velocity": 88,
      "chip": "ym2612"
    },
    {
      "channel": 0,
      "note": 58,
      "start": 3.1873,
      "duration": 0.0019,
      "velocity": 88,
      "chip": "ym2612"
    },
    {
      "channel": 1,
      "note": 84,
      "start": 3.1876,
      "duration": 0.001,
      "velocity": 123,
      "chip": "ym2612"
    },
    {
      "channel": 0,
      "note": 47,
      "start": 3.1892,
      "duration": 0.0027,
      "velocity": 88,
      "chip": "ym2612"
    },
    {
      "channel": 0,
      "note": 53,
      "start": 3.192,
      "duration": 0.0009,
      "velocity": 88,
      "chip": "ym2612"
    },
    {
      "channel": 0,
      "note": 55,
      "start": 3.1953,
      "duration": 0.0011,
      "velocity": 88,
      "chip": "ym2612"
    },
    {
      "channel": 0,
      "note": 47,
      "start": 3.1963,
      "duration": 0.0033,
      "velocity": 88,
      "chip": "ym2612"
    },
    {
      "channel": 1,
      "note": 84,
      "start": 3.1967,
      "duration": 0.0005,
      "velocity": 123,
      "chip": "ym2612"
    },
    {
      "channel": 0,
      "note": 58,
      "start": 3.1997,
      "duration": 0.0022,
      "velocity": 88,
      "chip": "ym2612"
    },
    {
      "channel": 0,
      "note": 47,
      "start": 3.2019,
      "duration": 0.0009,
      "velocity": 88,
      "chip": "ym2612"
    },
    {
      "channel": 0,
      "note": 53,
      "start": 3.2029,
      "duration": 0.0016,
      "velocity": 88,
      "chip": "ym2612"
    },
    {
      "channel": 0,
      "note": 55,
      "start": 3.2064,
      "duration": 0.0021,
      "velocity": 88,
      "chip": "ym2612"
    },
    {
      "channel": 1,
      "note": 84,
      "start": 3.2067,
      "duration": 0.0011,
      "velocity": 123,
      "chip": "ym2612"
    },
    {
      "channel": 0,
      "note": 47,
      "start": 3.2084,
      "duration": 0.0015,
      "velocity": 88,
      "chip": "ym2612"
    },
    {
      "channel": 0,
      "note": 58,
      "start": 3.21,
      "duration": 0.0021,
      "velocity": 88,
      "chip": "ym2612"
    },
    {
      "channel": 0,
      "note": 47,
      "start": 3.2122,
      "duration": 0.0012,
      "velocity": 88,
      "chip": "ym2612"
    },
    {
      "channel": 0,
      "note": 53,
      "start": 3.2141,
      "duration": 0.0022,
      "velocity": 88,
      "chip": "ym2612"
    },
    {
      "channel": 1,
      "note": 84,
      "start": 3.2145,
      "duration": 0.0007,
      "velocity": 123,
      "chip": "ym2612"
    },
    {
      "channel": 0,
      "note": 48,
      "start": 3.2163,
      "duration": 0.0011,
      "velocity": 88,
      "chip": "ym2612"
    },
    {
      "channel": 0,
      "note": 56,
      "start": 3.218,
      "duration": 0.0015,
      "velocity": 88,
      "chip": "ym2612"
    },
    {
      "channel": 0,
      "note": 48,
      "start": 3.2203,
      "duration": 0.0009,
      "velocity": 88,
      "chip": "ym2612"
    },
    {
      "channel": 0,
      "note": 58,
      "start": 3.2212,
      "duration": 0.0029,
      "velocity": 88,
      "chip": "ym2612"
    },
    {
      "channel": 1,
      "note": 84,
      "start": 3.2215,
      "duration": 0.0011,
      "velocity": 123,
      "chip": "ym2612"
    },
    {
      "channel": 0,
      "note": 48,
      "start": 3.2241,
      "duration": 0.0034,
      "velocity": 88,
      "chip": "ym2612"
    },
    {
      "channel": 0,
      "note": 53,
      "start": 3.2274,
      "duration": 0.0014,
      "velocity": 88,
      "chip": "ym2612"
    },
    {
      "channel": 0,
      "note": 55,
      "start": 3.2308,
      "duration": 0.0017,
      "velocity": 88,
      "chip": "ym2612"
    },
    {
      "channel": 0,
      "note": 58,
      "start": 3.2324,
      "duration": 0.0027,
      "velocity": 88,
      "chip": "ym2612"
    },
    {
      "channel": 1,
      "note": 84,
      "start": 3.2328,
      "duration": 0.0009,
      "velocity": 123,
      "chip": "ym2612"
    },
    {
      "channel": 0,
      "note": 60,
      "start": 3.2351,
      "duration": 0.0015,
      "velocity": 88,
      "chip": "ym2612"
    },
    {
      "channel": 0,
      "note": 58,
      "start": 3.2367,
      "duration": 0.0027,
      "velocity": 88,
      "chip": "ym2612"
    },
    {
      "channel": 0,
      "note": 55,
      "start": 3.2394,
      "duration": 0.0011,
      "velocity": 88,
      "chip": "ym2612"
    },
    {
      "channel": 0,
      "note": 58,
      "start": 3.2411,
      "duration": 0.0021,
      "velocity": 88,
      "chip": "ym2612"
    },
    {
      "channel": 0,
      "note": 55,
      "start": 3.2433,
      "duration": 0.0027,
      "velocity": 88,
      "chip": "ym2612"
    },
    {
      "channel": 0,
      "note": 53,
      "start": 3.2459,
      "duration": 0.0016,
      "velocity": 88,
      "chip": "ym2612"
    },
    {
      "channel": 0,
      "note": 48,
      "start": 3.2476,
      "duration": 0.0012,
      "velocity": 88,
      "chip": "ym2612"
    },
    {
      "channel": 0,
      "note": 53,
      "start": 3.2489,
      "duration": 0.0024,
      "velocity": 88,
      "chip": "ym2612"
    },
    {
      "channel": 0,
      "note": 50,
      "start": 3.2514,
      "duration": 0.0026,
      "velocity": 88,
      "chip": "ym2612"
    },
    {
      "channel": 0,
      "note": 55,
      "start": 3.2552,
      "duration": 0.0016,
      "velocity": 88,
      "chip": "ym2612"
    },
    {
      "channel": 0,
      "note": 50,
      "start": 3.2568,
      "duration": 0.0012,
      "velocity": 88,
      "chip": "ym2612"
    },
    {
      "channel": 0,
      "note": 58,
      "start": 3.2581,
      "duration": 0.0034,
      "velocity": 88,
      "chip": "ym2612"
    },
    {
      "channel": 1,
      "note": 82,
      "start": 3.2599,
      "duration": 0.001,
      "velocity": 127,
      "chip": "ym2612"
    },
    {
      "channel": 0,
      "note": 50,
      "start": 3.2616,
      "duration": 0.0005,
      "velocity": 88,
      "chip": "ym2612"
    },
    {
      "channel": 0,
      "note": 53,
      "start": 3.2631,
      "duration": 0.0014,
      "velocity": 88,
      "chip": "ym2612"
    },
    {
      "channel": 0,
      "note": 55,
      "start": 3.2659,
      "duration": 0.0011,
      "velocity": 88,
      "chip": "ym2612"
    },
    {
      "channel": 0,
      "note": 50,
      "start": 3.2669,
      "duration": 0.0033,
      "velocity": 88,
      "chip": "ym2612"
    },
    {
      "channel": 1,
      "note": 84,
      "start": 3.2687,
      "duration": 0.0006,
      "velocity": 123,
      "chip": "ym2612"
    },
    {
      "channel": 0,
      "note": 58,
      "start": 3.2726,
      "duration": 0.0022,
      "velocity": 88,
      "chip": "ym2612"
    },
    {
      "channel": 0,
      "note": 50,
      "start": 3.2749,
      "duration": 0.0017,
      "velocity": 88,
      "chip": "ym2612"
    },
    {
      "channel": 0,
      "note": 53,
      "start": 3.2766,
      "duration": 0.0018,
      "velocity": 88,
      "chip": "ym2612"
    },
    {
      "channel": 0,
      "note": 55,
      "start": 3.279,
      "duration": 0.0025,
      "velocity": 88,
      "chip": "ym2612"
    },
    {
      "channel": 1,
      "note": 84,
      "start": 3.2794,
      "duration": 0.0012,
      "velocity": 123,
      "chip": "ym2612"
    },
    {
      "channel": 0,
      "note": 50,
      "start": 3.2815,
      "duration": 0.0025,
      "velocity": 88,
      "chip": "ym2612"
    },
    {
      "channel": 0,
      "note": 58,
      "start": 3.2841,
      "duration": 0.0022,
      "velocity": 88,
      "chip": "ym2612"
    },
    {
      "channel": 0,
      "note": 50,
      "start": 3.2863,
      "duration": 0.0014,
      "velocity": 88,
      "chip": "ym2612"
    },
    {
      "channel": 0,
      "note": 53,
      "start": 3.2883,
      "duration": 0.0027,
      "velocity": 88,
      "chip": "ym2612"
    },
    {
      "channel": 1,
      "note": 84,
      "start": 3.2886,
      "duration": 0.0009,
      "velocity": 123,
      "chip": "ym2612"
    },
    {
      "channel": 0,
      "note": 48,
      "start": 3.291,
      "duration": 0.0013,
      "velocity": 88,
      "chip": "ym2612"
    },
    {
      "channel": 0,
      "note": 55,
      "start": 3.2924,
      "duration": 0.0017,
      "velocity": 88,
      "chip": "ym2612"
    },
    {
      "channel": 0,
      "note": 48,
      "start": 3.2941,
      "duration": 0.0013,
      "velocity": 88,
      "chip": "ym2612"
    },
    {
      "channel": 0,
      "note": 58,
      "start": 3.2961,
      "duration": 0.0024,
      "velocity": 88,
      "chip": "ym2612"
    },
    {
      "channel": 1,
      "note": 84,
      "start": 3.2964,
      "duration": 0.0012,
      "velocity": 123,
      "chip": "ym2612"
    },
    {
      "channel": 0,
      "note": 48,
      "start": 3.2985,
      "duration": 0.0016,
      "velocity": 88,
      "chip": "ym2612"
    },
    {
      "channel": 0,
      "note": 53,
      "start": 3.3002,
      "duration": 0.0015,
      "velocity": 88,
      "chip": "ym2612"
    },
    {
      "channel": 0,
      "note": 55,
      "start": 3.3024,
      "duration": 0.0012,
      "velocity": 88,
      "chip": "ym2612"
    },
    {
      "channel": 0,
      "note": 48,
      "start": 3.3036,
      "duration": 0.0033,
      "velocity": 88,
      "chip": "ym2612"
    },
    {
      "channel": 1,
      "note": 84,
      "start": 3.3039,
      "duration": 0.0005,
      "velocity": 123,
      "chip": "ym2612"
    },
    {
      "channel": 0,
      "note": 58,
      "start": 3.307,
      "duration": 0.0023,
      "velocity": 88,
      "chip": "ym2612"
    },
    {
      "channel": 0,
      "note": 48,
      "start": 3.3092,
      "duration": 0.0016,
      "velocity": 88,
      "chip": "ym2612"
    },
    {
      "channel": 0,
      "note": 53,
      "start": 3.3108,
      "duration": 0.0014,
      "velocity": 88,
      "chip": "ym2612"
    },
    {
      "channel": 0,
      "note": 55,
      "start": 3.3129,
      "duration": 0.002,
      "velocity": 88,
      "chip": "ym2612"
    },
    {
      "channel": 1,
      "note": 84,
      "start": 3.3133,
      "duration": 0.0011,
      "velocity": 123,
      "chip": "ym2612"
    },
    {
      "channel": 0,
      "note": 48,
      "start": 3.315,
      "duration": 0.0049,
      "velocity": 88,
      "chip": "ym2612"
    },
    {
      "channel": 0,
      "note": 58,
      "start": 3.32,
      "duration": 0.005,
      "velocity": 88,
      "chip": "ym2612"
    },
    {
      "channel": 0,
      "note": 47,
      "start": 3.325,
      "duration": 0.002,
      "velocity": 88,
      "chip": "ym2612"
    },
    {
      "channel": 0,
      "note": 53,
      "start": 3.3277,
      "duration": 0.0021,
      "velocity": 88,
      "chip": "ym2612"
    },
    {
      "channel": 1,
      "note": 84,
      "start": 3.328,
      "duration": 0.0007,
      "velocity": 123,
      "chip": "ym2612"
    },
    {
      "channel": 0,
      "note": 47,
      "start": 3.3298,
      "duration": 0.0005,
      "velocity": 88,
      "chip": "ym2612"
    },
    {
      "channel": 0,
      "note": 55,
      "start": 3.3311,
      "duration": 0.0011,
      "velocity": 88,
      "chip": "ym2612"
    },
    {
      "channel": 0,
      "note": 47,
      "start": 3.3322,
      "duration": 0.0009,
      "velocity": 88,
      "chip": "ym2612"
    },
    {
      "channel": 0,
      "note": 58,
      "start": 3.3331,
      "duration": 0.0019,
      "velocity": 88,
      "chip": "ym2612"
    },
    {
      "channel": 1,
      "note": 84,
      "start": 3.3334,
      "duration": 0.001,
      "velocity": 123,
      "chip": "ym2612"
    },
    {
      "channel": 0,
      "note": 47,
      "start": 3.335,
      "duration": 0.0027,
      "velocity": 88,
      "chip": "ym2612"
    },
    {
      "channel": 0,
      "note": 53,
      "start": 3.3378,
      "duration": 0.0009,
      "velocity": 88,
      "chip": "ym2612"
    },
    {
      "channel": 0,
      "note": 55,
      "start": 3.3404,
      "duration": 0.0011,
      "velocity": 88,
      "chip": "ym2612"
    },
    {
      "channel": 0,
      "note": 47,
      "start": 3.3415,
      "duration": 0.0038,
      "velocity": 88,
      "chip": "ym2612"
    },
    {
      "channel": 1,
      "note": 84,
      "start": 3.3418,
      "duration": 0.0006,
      "velocity": 123,
      "chip": "ym2612"
    },
    {
      "channel": 0,
      "note": 58,
      "start": 3.3452,
      "duration": 0.0023,
      "velocity": 88,
      "chip": "ym2612"
    },
    {
      "channel": 0,
      "note": 47,
      "start": 3.3476,
      "duration": 0.0015,
      "velocity": 88,
      "chip": "ym2612"
    },
    {
      "channel": 0,
      "note": 53,
      "start": 3.3491,
      "duration": 0.0018,
      "velocity": 88,
      "chip": "ym2612"
    },
    {
      "channel": 0,
      "note": 55,
      "start": 3.3529,
      "duration": 0.0026,
      "velocity": 88,
      "chip": "ym2612"
    },
    {
      "channel": 1,
      "note": 84,
      "start": 3.3532,
      "duration": 0.0012,
      "velocity": 123,
      "chip": "ym2612"
    },
    {
      "channel": 0,
      "note": 47,
      "start": 3.3554,
      "duration": 0.0027,
      "velocity": 88,
      "chip": "ym2612"
    },
    {
      "channel": 0,
      "note": 58,
      "start": 3.3581,
      "duration": 0.0022,
      "velocity": 88,
      "chip": "ym2612"
    },
    {
      "channel": 0,
      "note": 47,
      "start": 3.3604,
      "duration": 0.0014,
      "velocity": 88,
      "chip": "ym2612"
    },
    {
      "channel": 0,
      "note": 53,
      "start": 3.3624,
      "duration": 0.0027,
      "velocity": 88,
      "chip": "ym2612"
    },
    {
      "channel": 1,
      "note": 84,
      "start": 3.3628,
      "duration": 0.001,
      "velocity": 123,
      "chip": "ym2612"
    },
    {
      "channel": 0,
      "note": 48,
      "start": 3.3652,
      "duration": 0.0012,
      "velocity": 88,
      "chip": "ym2612"
    },
    {
      "channel": 0,
      "note": 56,
      "start": 3.3672,
      "duration": 0.0033,
      "velocity": 88,
      "chip": "ym2612"
    },
    {
      "channel": 0,
      "note": 48,
      "start": 3.3712,
      "duration": 0.0015,
      "velocity": 88,
      "chip": "ym2612"
    },
    {
      "channel": 0,
      "note": 58,
      "start": 3.3727,
      "duration": 0.0026,
      "velocity": 88,
      "chip": "ym2612"
    },
    {
      "channel": 1,
      "note": 84,
      "start": 3.373,
      "duration": 0.0012,
      "velocity": 123,
      "chip": "ym2612"
    },
    {
      "channel": 0,
      "note": 48,
      "start": 3.3752,
      "duration": 0.0025,
      "velocity": 88,
      "chip": "ym2612"
    },
    {
      "channel": 0,
      "note": 53,
      "start": 3.3778,
      "duration": 0.002,
      "velocity": 88,
      "chip": "ym2612"
    },
    {
      "channel": 0,
      "note": 55,
      "start": 3.3805,
      "duration": 0.0017,
      "velocity": 88,
      "chip": "ym2612"
    },
    {
      "channel": 0,
      "note": 58,
      "start": 3.3823,
      "duration": 0.0026,
      "velocity": 88,
      "chip": "ym2612"
    },
    {
      "channel": 1,
      "note": 84,
      "start": 3.3826,
      "duration": 0.0009,
      "velocity": 123,
      "chip": "ym2612"
    },
    {
      "channel": 0,
      "note": 60,
      "start": 3.3849,
      "duration": 0.0017,
      "velocity": 88,
      "chip": "ym2612"
    },
    {
      "channel": 0,
      "note": 58,
      "start": 3.3867,
      "duration": 0.004,
      "velocity": 88,
      "chip": "ym2612"
    },
    {
      "channel": 0,
      "note": 55,
      "start": 3.3907,
      "duration": 0.0009,
      "velocity": 88,
      "chip": "ym2612"
    },
    {
      "channel": 0,
      "note": 58,
      "start": 3.3929,
      "duration": 0.0032,
      "velocity": 88,
      "chip": "ym2612"
    },
    {
      "channel": 0,
      "note": 55,
      "start": 3.3961,
      "duration": 0.0041,
      "velocity": 88,
      "chip": "ym2612"
    },
    {
      "channel": 0,
      "note": 53,
      "start": 3.4002,
      "duration": 0.0044,
      "velocity": 88,
      "chip": "ym2612"
    },
    {
      "channel": 0,
      "note": 48,
      "start": 3.4047,
      "duration": 0.0043,
      "velocity": 88,
      "chip": "ym2612"
    },
    {
      "channel": 0,
      "note": 50,
      "start": 3.409,
      "duration": 0.0066,
      "velocity": 88,
      "chip": "ym2612"
    },
    {
      "channel": 1,
      "note": 82,
      "start": 3.4108,
      "duration": 0.0018,
      "velocity": 127,
      "chip": "ym2612"
    },
    {
      "channel": 0,
      "note": 49,
      "start": 3.4164,
      "duration": 0.0023,
      "velocity": 88,
      "chip": "ym2612"
    },
    {
      "channel": 1,
      "note": 82,
      "start": 3.4168,
      "duration": 0.001,
      "velocity": 127,
      "chip": "ym2612"
    },
    {
      "channel": 0,
      "note": 48,
      "start": 3.4708,
      "duration": 0.0042,
      "velocity": 88,
      "chip": "ym2612"
    },
    {
      "channel": 1,
      "note": 82,
      "start": 3.4711,
      "duration": 0.0025,
      "velocity": 127,
      "chip": "ym2612"
    },
    {
      "channel": 0,
      "note": 47,
      "start": 3.4751,
      "duration": 0.0371,
      "velocity": 88,
      "chip": "ym2612"
    },
    {
      "channel": 1,
      "note": 82,
      "start": 3.4754,
      "duration": 0.0009,
      "velocity": 127,
      "chip": "ym2612"
    },
    {
      "channel": 0,
      "note": 46,
      "start": 3.5123,
      "duration": 0.0022,
      "velocity": 88,
      "chip": "ym2612"
    },
    {
      "channel": 1,
      "note": 82,
      "start": 3.5126,
      "duration": 0.001,
      "velocity": 127,
      "chip": "ym2612"
    },
    {
      "channel": 0,
      "note": 45,
      "start": 3.5493,
      "duration": 0.0042,
      "velocity": 88,
      "chip": "ym2612"
    },
    {
      "channel": 1,
      "note": 82,
      "start": 3.5496,
      "duration": 0.0029,
      "velocity": 127,
      "chip": "ym2612"
    },
    {
      "channel": 0,
      "note": 44,
      "start": 3.5536,
      "duration": 0.0062,
      "velocity": 88,
      "chip": "ym2612"
    },
    {
      "channel": 1,
      "note": 82,
      "start": 3.5539,
      "duration": 0.001,
      "velocity": 127,
      "chip": "ym2612"
    },
    {
      "channel": 1,
      "note": 82,
      "start": 3.5573,
      "duration": 0.0007,
      "velocity": 127,
      "chip": "ym2612"
    },
    {
      "channel": 0,
      "note": 55,
      "start": 3.5598,
      "duration": 0.0174,
      "velocity": 88,
      "chip": "ym2612"
    },
    {
      "channel": 1,
      "note": 82,
      "start": 3.5601,
      "duration": 0.0007,
      "velocity": 127,
      "chip": "ym2612"
    },
    {
      "channel": 0,
      "note": 48,
      "start": 3.5772,
      "duration": 0.0025,
      "velocity": 88,
      "chip": "ym2612"
    },
    {
      "channel": 1,
      "note": 84,
      "start": 3.5789,
      "duration": 0.0009,
      "velocity": 123,
      "chip": "ym2612"
    },
    {
      "channel": 0,
      "note": 54,
      "start": 3.5805,
      "duration": 0.0178,
      "velocity": 88,
      "chip": "ym2612"
    },
    {
      "channel": 1,
      "note": 84,
      "start": 3.5822,
      "duration": 0.0004,
      "velocity": 123,
      "chip": "ym2612"
    },
    {
      "channel": 0,
      "note": 48,
      "start": 3.5984,
      "duration": 0.0013,
      "velocity": 88,
      "chip": "ym2612"
    },
    {
      "channel": 0,
      "note": 53,
      "start": 3.6024,
      "duration": 0.0253,
      "velocity": 88,
      "chip": "ym2612"
    },
    {
      "channel": 1,
      "note": 84,
      "start": 3.6027,
      "duration": 0.0007,
      "velocity": 123,
      "chip": "ym2612"
    },
    {
      "channel": 0,
      "note": 52,
      "start": 3.6277,
      "duration": 0.0171,
      "velocity": 88,
      "chip": "ym2612"
    },
    {
      "channel": 1,
      "note": 84,
      "start": 3.628,
      "duration": 0.0007,
      "velocity": 123,
      "chip": "ym2612"
    },
    {
      "channel": 0,
      "note": 48,
      "start": 3.6448,
      "duration": 0.001,
      "velocity": 88,
      "chip": "ym2612"
    },
    {
      "channel": 1,
      "note": 84,
      "start": 3.6451,
      "duration": 0.0009,
      "velocity": 123,
      "chip": "ym2612"
    },
    {
      "channel": 0,
      "note": 51,
      "start": 3.6481,
      "duration": 0.018,
      "velocity": 88,
      "chip": "ym2612"
    },
    {
      "channel": 1,
      "note": 84,
      "start": 3.6498,
      "duration": 0.0004,
      "velocity": 123,
      "chip": "ym2612"
    },
    {
      "channel": 0,
      "note": 48,
      "start": 3.6662,
      "duration": 0.0013,
      "velocity": 88,
      "chip": "ym2612"
    },
    {
      "channel": 0,
      "note": 50,
      "start": 3.6704,
      "duration": 0.0084,
      "velocity": 88,
      "chip": "ym2612"
    },
    {
      "channel": 1,
      "note": 84,
      "start": 3.6707,
      "duration": 0.0007,
      "velocity": 123,
      "chip": "ym2612"
    },
    {
      "channel": 0,
      "note": 55,
      "start": 3.6789,
      "duration": 0.0171,
      "velocity": 88,
      "chip": "ym2612"
    },
    {
      "channel": 1,
      "note": 84,
      "start": 3.6792,
      "duration": 0.0007,
      "velocity": 123,
      "chip": "ym2612"
    },
    {
      "channel": 0,
      "note": 48,
      "start": 3.6959,
      "duration": 0.0016,
      "velocity": 88,
      "chip": "ym2612"
    },
    {
      "channel": 1,
      "note": 84,
      "start": 3.6963,
      "duration": 0.0007,
      "velocity": 123,
      "chip": "ym2612"
    },
    {
      "channel": 0,
      "note": 54,
      "start": 3.6982,
      "duration": 0.0177,
      "velocity": 88,
      "chip": "ym2612"
    },
    {
      "channel": 1,
      "note": 84,
      "start": 3.6998,
      "duration": 0.0005,
      "velocity": 123,
      "chip": "ym2612"
    },
    {
      "channel": 0,
      "note": 48,
      "start": 3.716,
      "duration": 0.0013,
      "velocity": 88,
      "chip": "ym2612"
    },
    {
      "channel": 0,
      "note": 53,
      "start": 3.7202,
      "duration": 0.0251,
      "velocity": 88,
      "chip": "ym2612"
    },
    {
      "channel": 1,
      "note": 84,
      "start": 3.7205,
      "duration": 0.0007,
      "velocity": 123,
      "chip": "ym2612"
    },
    {
      "channel": 0,
      "note": 52,
      "start": 3.7454,
      "duration": 0.0171,
      "velocity": 88,
      "chip": "ym2612"
    },
    {
      "channel": 1,
      "note": 84,
      "start": 3.7457,
      "duration": 0.0007,
      "velocity": 123,
      "chip": "ym2612"
    },
    {
      "channel": 0,
      "note": 48,
      "start": 3.7625,
      "duration": 0.0011,
      "velocity": 88,
      "chip": "ym2612"
    },
    {
      "channel": 1,
      "note": 84,
      "start": 3.7629,
      "duration": 0.0008,
      "velocity": 123,
      "chip": "ym2612"
    },
    {
      "channel": 0,
      "note": 51,
      "start": 3.765,
      "duration": 0.018,
      "velocity": 88,
      "chip": "ym2612"
    },
    {
      "channel": 1,
      "note": 84,
      "start": 3.7666,
      "duration": 0.0005,
      "velocity": 123,
      "chip": "ym2612"
    },
    {
      "channel": 0,
      "note": 48,
      "start": 3.7831,
      "duration": 0.0013,
      "velocity": 88,
      "chip": "ym2612"
    },
    {
      "channel": 0,
      "note": 50,
      "start": 3.7873,
      "duration": 0.0253,
      "velocity": 88,
      "chip": "ym2612"
    },
    {
      "channel": 1,
      "note": 82,
      "start": 3.7891,
      "duration": 0.0007,
      "velocity": 127,
      "chip": "ym2612"
    },
    {
      "channel": 0,
      "note": 55,
      "start": 3.8126,
      "duration": 0.0172,
      "velocity": 88,
      "chip": "ym2612"
    },
    {
      "channel": 1,
      "note": 84,
      "start": 3.8144,
      "duration": 0.0007,
      "velocity": 123,
      "chip": "ym2612"
    },
    {
      "channel": 0,
      "note": 48,
      "start": 3.8298,
      "duration": 0.0011,
      "velocity": 88,
      "chip": "ym2612"
    },
    {
      "channel": 1,
      "note": 84,
      "start": 3.8302,
      "duration": 0.0008,
      "velocity": 123,
      "chip": "ym2612"
    },
    {
      "channel": 0,
      "note": 54,
      "start": 3.8332,
      "duration": 0.0179,
      "velocity": 88,
      "chip": "ym2612"
    },
    {
      "channel": 1,
      "note": 84,
      "start": 3.8348,
      "duration": 0.0005,
      "velocity": 123,
      "chip": "ym2612"
    },
    {
      "channel": 0,
      "note": 48,
      "start": 3.8512,
      "duration": 0.0014,
      "velocity": 88,
      "chip": "ym2612"
    },
    {
      "channel": 0,
      "note": 53,
      "start": 3.8553,
      "duration": 0.025,
      "velocity": 88,
      "chip": "ym2612"
    },
    {
      "channel": 1,
      "note": 84,
      "start": 3.8556,
      "duration": 0.0007,
      "velocity": 123,
      "chip": "ym2612"
    },
    {
      "channel": 0,
      "note": 52,
      "start": 3.8804,
      "duration": 0.0171,
      "velocity": 88,
      "chip": "ym2612"
    },
    {
      "channel": 1,
      "note": 84,
      "start": 3.8807,
      "duration": 0.0007,
      "velocity": 123,
      "chip": "ym2612"
    },
    {
      "channel": 0,
      "note": 48,
      "start": 3.8975,
      "duration": 0.0016,
      "velocity": 88,
      "chip": "ym2612"
    },
    {
      "channel": 1,
      "note": 84,
      "start": 3.8978,
      "duration": 0.0007,
      "velocity": 123,
      "chip": "ym2612"
    },
    {
      "channel": 0,
      "note": 51,
      "start": 3.9007,
      "duration": 0.0179,
      "velocity": 88,
      "chip": "ym2612"
    },
    {
      "channel": 1,
      "note": 84,
      "start": 3.9022,
      "duration": 0.0005,
      "velocity": 123,
      "chip": "ym2612"
    },
    {
      "channel": 0,
      "note": 48,
      "start": 3.9186,
      "duration": 0.0013,
      "velocity": 88,
      "chip": "ym2612"
    },
    {
      "channel": 0,
      "note": 50,
      "start": 3.9228,
      "duration": 0.0255,
      "velocity": 88,
      "chip": "ym2612"
    },
    {
      "channel": 1,
      "note": 84,
      "start": 3.9231,
      "duration": 0.0007,
      "velocity": 123,
      "chip": "ym2612"
    },
    {
      "channel": 0,
      "note": 48,
      "start": 3.9484,
      "duration": 0.0046,
      "velocity": 88,
      "chip": "ym2612"
    },
    {
      "channel": 1,
      "note": 82,
      "start": 3.9502,
      "duration": 0.0019,
      "velocity": 127,
      "chip": "ym2612"
    },
    {
      "channel": 0,
      "note": 47,
      "start": 3.9537,
      "duration": 0.0023,
      "velocity": 88,
      "chip": "ym2612"
    },
    {
      "channel": 1,
      "note": 82,
      "start": 3.954,
      "duration": 0.001,
      "velocity": 127,
      "chip": "ym2612"
    },
    {
      "channel": 0,
      "note": 53,
      "start": 4.0075,
      "duration": 0.0017,
      "velocity": 88,
      "chip": "ym2612"
    },
    {
      "channel": 1,
      "note": 82,
      "start": 4.0078,
      "duration": 0.001,
      "velocity": 127,
      "chip": "ym2612"
    },
    {
      "channel": 0,
      "note": 52,
      "start": 4.0103,
      "duration": 0.0034,
      "velocity": 88,
      "chip": "ym2612"
    },
    {
      "channel": 1,
      "note": 82,
      "start": 4.0106,
      "duration": 0.0022,
      "velocity": 127,
      "chip": "ym2612"
    },
    {
      "channel": 0,
      "note": 58,
      "start": 4.0177,
      "duration": 0.0022,
      "velocity": 88,
      "chip": "ym2612"
    },
    {
      "channel": 1,
      "note": 82,
      "start": 4.018,
      "duration": 0.001,
      "velocity": 127,
      "chip": "ym2612"
    },
    {
      "channel": 0,
      "note": 57,
      "start": 4.0209,
      "duration": 0.0023,
      "velocity": 88,
      "chip": "ym2612"
    },
    {
      "channel": 1,
      "note": 82,
      "start": 4.0212,
      "duration": 0.0009,
      "velocity": 127,
      "chip": "ym2612"
    },
    {
      "channel": 0,
      "note": 55,
      "start": 4.0233,
      "duration": 70.3292,
      "velocity": 88,
      "chip": "ym2612"
    },
    {
      "channel": 1,
      "note": 82,
      "start": 4.0237,
      "duration": 0.0009,
      "velocity": 127,
      "chip": "ym2612"
    }
  ]
}