{
  "track_name": "22 - Setting Out",
  "duration_sec": 233.279,
  "sample_rate": 44100,
  "note_count": 3449,
  "unique_pitches": 34,
  "pitch_range": 44,
  "avg_note_duration": 0.2724,
  "reconstruction_stats": {
    "notes_reconstructed": 3449,
    "keyon_events": 3449,
    "keyoff_events": 3449,
    "orphan_keyons": 0,
    "unique_pitches": 34,
    "pitch_range": 44,
    "avg_duration_sec": 0.2724
  },
  "metadata": {
    "source": "E\\Elemental Master\\22 - Setting Out.vgz"
  },
  "notes": [
    {
      "channel": 0,
      "note": 61,
      "start": 0.0,
      "duration": 3.1866,
      "velocity": 98,
      "chip": "ym2612"
    },
    {
      "channel": 1,
      "note": 61,
      "start": 0.0,
      "duration": 16.1471,
      "velocity": 98,
      "chip": "ym2612"
    },
    {
      "channel": 2,
      "note": 65,
      "start": 0.0,
      "duration": 15.7427,
      "velocity": 98,
      "chip": "ym2612"
    },
    {
      "channel": 3,
      "note": 68,
      "start": 0.0,
      "duration": 16.1475,
      "velocity": 98,
      "chip": "ym2612"
    },
    {
      "channel": 4,
      "note": 75,
      "start": 0.0,
      "duration": 15.7429,
      "velocity": 98,
      "chip": "ym2612"
    },
    {
      "channel": 5,
      "note": 75,
      "start": 0.0,
      "duration": 3.1872,
      "velocity": 98,
      "chip": "ym2612"
    },
    {
      "channel": 0,
      "note": 61,
      "start": 3.2264,
      "duration": 0.3815,
      "velocity": 122,
      "chip": "ym2612"
    },
    {
      "channel": 5,
      "note": 61,
      "start": 3.2388,
      "duration": 0.3697,
      "velocity": 119,
      "chip": "ym2612"
    },
    {
      "channel": 0,
      "note": 61,
      "start": 3.643,
      "duration": 0.0154,
      "velocity": 122,
      "chip": "ym2612"
    },
    {
      "channel": 5,
      "note": 61,
      "start": 3.645,
      "duration": 0.014,
      "velocity": 119,
      "chip": "ym2612"
    },
    {
      "channel": 0,
      "note": 61,
      "start": 3.8452,
      "duration": 0.0155,
      "velocity": 122,
      "chip": "ym2612"
    },
    {
      "channel": 5,
      "note": 61,
      "start": 3.8472,
      "duration": 0.0141,
      "velocity": 119,
      "chip": "ym2612"
    },
    {
      "channel": 0,
      "note": 61,
      "start": 4.0475,
      "duration": 0.0155,
      "velocity": 122,
      "chip": "ym2612"
    },
    {
      "channel": 5,
      "note": 61,
      "start": 4.0495,
      "duration": 0.0141,
      "velocity": 119,
      "chip": "ym2612"
    },
    {
      "channel": 0,
      "note": 63,
      "start": 4.2497,
      "duration": 0.3694,
      "velocity": 122,
      "chip": "ym2612"
    },
    {
      "channel": 5,
      "note": 63,
      "start": 4.2518,
      "duration": 0.3679,
      "velocity": 119,
      "chip": "ym2612"
    },
    {
      "channel": 0,
      "note": 65,
      "start": 4.6542,
      "duration": 0.3693,
      "velocity": 122,
      "chip": "ym2612"
    },
    {
      "channel": 5,
      "note": 65,
      "start": 4.6562,
      "duration": 0.3679,
      "velocity": 119,
      "chip": "ym2612"
    },
    {
      "channel": 0,
      "note": 61,
      "start": 5.0587,
      "duration": 0.0154,
      "velocity": 122,
      "chip": "ym2612"
    },
    {
      "channel": 5,
      "note": 61,
      "start": 5.0607,
      "duration": 0.014,
      "velocity": 119,
      "chip": "ym2612"
    },
    {
      "channel": 0,
      "note": 61,
      "start": 5.2609,
      "duration": 0.0155,
      "velocity": 122,
      "chip": "ym2612"
    },
    {
      "channel": 5,
      "note": 61,
      "start": 5.2629,
      "duration": 0.0141,
      "velocity": 119,
      "chip": "ym2612"
    },
    {
      "channel": 0,
      "note": 61,
      "start": 5.4632,
      "duration": 0.0155,
      "velocity": 122,
      "chip": "ym2612"
    },
    {
      "channel": 5,
      "note": 61,
      "start": 5.4651,
      "duration": 0.0141,
      "velocity": 119,
      "chip": "ym2612"
    },
    {
      "channel": 0,
      "note": 61,
      "start": 5.6654,
      "duration": 0.0155,
      "velocity": 122,
      "chip": "ym2612"
    },
    {
      "channel": 5,
      "note": 61,
      "start": 5.6674,
      "duration": 0.0141,
      "velocity": 119,
      "chip": "ym2612"
    },
    {
      "channel": 0,
      "note": 65,
      "start": 5.8684,
      "duration": 0.3686,
      "velocity": 122,
      "chip": "ym2612"
    },
    {
      "channel": 5,
      "note": 65,
      "start": 5.8704,
      "duration": 0.3672,
      "velocity": 119,
      "chip": "ym2612"
    },
    {
      "channel": 0,
      "note": 66,
      "start": 6.2725,
      "duration": 0.369,
      "velocity": 122,
      "chip": "ym2612"
    },
    {
      "channel": 5,
      "note": 66,
      "start": 6.2745,
      "duration": 0.3676,
      "velocity": 119,
      "chip": "ym2612"
    },
    {
      "channel": 0,
      "note": 61,
      "start": 6.6767,
      "duration": 0.0154,
      "velocity": 122,
      "chip": "ym2612"
    },
    {
      "channel": 5,
      "note": 61,
      "start": 6.6787,
      "duration": 0.014,
      "velocity": 119,
      "chip": "ym2612"
    },
    {
      "channel": 0,
      "note": 61,
      "start": 6.8788,
      "duration": 0.0155,
      "velocity": 122,
      "chip": "ym2612"
    },
    {
      "channel": 5,
      "note": 61,
      "start": 6.8809,
      "duration": 0.0141,
      "velocity": 119,
      "chip": "ym2612"
    },
    {
      "channel": 0,
      "note": 61,
      "start": 7.081,
      "duration": 0.0155,
      "velocity": 122,
      "chip": "ym2612"
    },
    {
      "channel": 5,
      "note": 61,
      "start": 7.0831,
      "duration": 0.0141,
      "velocity": 119,
      "chip": "ym2612"
    },
    {
      "channel": 0,
      "note": 61,
      "start": 7.2833,
      "duration": 0.0155,
      "velocity": 122,
      "chip": "ym2612"
    },
    {
      "channel": 5,
      "note": 61,
      "start": 7.2853,
      "duration": 0.0141,
      "velocity": 119,
      "chip": "ym2612"
    },
    {
      "channel": 0,
      "note": 61,
      "start": 7.4856,
      "duration": 0.0155,
      "velocity": 122,
      "chip": "ym2612"
    },
    {
      "channel": 5,
      "note": 61,
      "start": 7.4876,
      "duration": 0.0141,
      "velocity": 119,
      "chip": "ym2612"
    },
    {
      "channel": 0,
      "note": 61,
      "start": 7.6878,
      "duration": 0.0154,
      "velocity": 122,
      "chip": "ym2612"
    },
    {
      "channel": 5,
      "note": 61,
      "start": 7.6898,
      "duration": 0.0141,
      "velocity": 119,
      "chip": "ym2612"
    },
    {
      "channel": 0,
      "note": 61,
      "start": 7.89,
      "duration": 0.0155,
      "velocity": 122,
      "chip": "ym2612"
    },
    {
      "channel": 5,
      "note": 61,
      "start": 7.8921,
      "duration": 0.0141,
      "velocity": 119,
      "chip": "ym2612"
    },
    {
      "channel": 0,
      "note": 66,
      "start": 8.0926,
      "duration": 0.1668,
      "velocity": 122,
      "chip": "ym2612"
    },
    {
      "channel": 5,
      "note": 66,
      "start": 8.1013,
      "duration": 0.1588,
      "velocity": 119,
      "chip": "ym2612"
    },
    {
      "channel": 0,
      "note": 65,
      "start": 8.2945,
      "duration": 0.1672,
      "velocity": 122,
      "chip": "ym2612"
    },
    {
      "channel": 5,
      "note": 65,
      "start": 8.2966,
      "duration": 0.1657,
      "velocity": 119,
      "chip": "ym2612"
    },
    {
      "channel": 0,
      "note": 61,
      "start": 8.4968,
      "duration": 0.1672,
      "velocity": 122,
      "chip": "ym2612"
    },
    {
      "channel": 5,
      "note": 61,
      "start": 8.4988,
      "duration": 0.1657,
      "velocity": 119,
      "chip": "ym2612"
    },
    {
      "channel": 0,
      "note": 61,
      "start": 8.699,
      "duration": 0.3693,
      "velocity": 122,
      "chip": "ym2612"
    },
    {
      "channel": 5,
      "note": 61,
      "start": 8.7011,
      "duration": 0.3679,
      "velocity": 119,
      "chip": "ym2612"
    },
    {
      "channel": 0,
      "note": 61,
      "start": 9.1036,
      "duration": 0.1671,
      "velocity": 122,
      "chip": "ym2612"
    },
    {
      "channel": 5,
      "note": 61,
      "start": 9.1056,
      "duration": 0.1656,
      "velocity": 119,
      "chip": "ym2612"
    },
    {
      "channel": 0,
      "note": 63,
      "start": 9.3058,
      "duration": 0.3693,
      "velocity": 122,
      "chip": "ym2612"
    },
    {
      "channel": 5,
      "note": 63,
      "start": 9.3078,
      "duration": 0.3679,
      "velocity": 119,
      "chip": "ym2612"
    },
    {
      "channel": 0,
      "note": 61,
      "start": 9.7106,
      "duration": 0.369,
      "velocity": 122,
      "chip": "ym2612"
    },
    {
      "channel": 5,
      "note": 61,
      "start": 9.7192,
      "duration": 0.361,
      "velocity": 119,
      "chip": "ym2612"
    },
    {
      "channel": 0,
      "note": 61,
      "start": 10.1147,
      "duration": 0.0155,
      "velocity": 122,
      "chip": "ym2612"
    },
    {
      "channel": 5,
      "note": 61,
      "start": 10.1168,
      "duration": 0.014,
      "velocity": 119,
      "chip": "ym2612"
    },
    {
      "channel": 0,
      "note": 61,
      "start": 10.3169,
      "duration": 0.0155,
      "velocity": 122,
      "chip": "ym2612"
    },
    {
      "channel": 5,
      "note": 61,
      "start": 10.319,
      "duration": 0.0141,
      "velocity": 119,
      "chip": "ym2612"
    },
    {
      "channel": 0,
      "note": 61,
      "start": 10.5192,
      "duration": 0.0155,
      "velocity": 122,
      "chip": "ym2612"
    },
    {
      "channel": 5,
      "note": 61,
      "start": 10.5212,
      "duration": 0.014,
      "velocity": 119,
      "chip": "ym2612"
    },
    {
      "channel": 0,
      "note": 63,
      "start": 10.7215,
      "duration": 0.3693,
      "velocity": 122,
      "chip": "ym2612"
    },
    {
      "channel": 5,
      "note": 63,
      "start": 10.7235,
      "duration": 0.368,
      "velocity": 119,
      "chip": "ym2612"
    },
    {
      "channel": 0,
      "note": 65,
      "start": 11.1259,
      "duration": 0.3694,
      "velocity": 122,
      "chip": "ym2612"
    },
    {
      "channel": 5,
      "note": 65,
      "start": 11.1279,
      "duration": 0.3679,
      "velocity": 119,
      "chip": "ym2612"
    },
    {
      "channel": 0,
      "note": 61,
      "start": 11.5304,
      "duration": 0.0155,
      "velocity": 122,
      "chip": "ym2612"
    },
    {
      "channel": 5,
      "note": 61,
      "start": 11.5324,
      "duration": 0.0141,
      "velocity": 119,
      "chip": "ym2612"
    },
    {
      "channel": 0,
      "note": 61,
      "start": 11.7326,
      "duration": 0.0155,
      "velocity": 122,
      "chip": "ym2612"
    },
    {
      "channel": 5,
      "note": 61,
      "start": 11.7346,
      "duration": 0.0141,
      "velocity": 119,
      "chip": "ym2612"
    },
    {
      "channel": 0,
      "note": 61,
      "start": 11.9349,
      "duration": 0.0154,
      "velocity": 122,
      "chip": "ym2612"
    },
    {
      "channel": 5,
      "note": 61,
      "start": 11.937,
      "duration": 0.0141,
      "velocity": 119,
      "chip": "ym2612"
    },
    {
      "channel": 0,
      "note": 61,
      "start": 12.1372,
      "duration": 0.0154,
      "velocity": 122,
      "chip": "ym2612"
    },
    {
      "channel": 5,
      "note": 61,
      "start": 12.1392,
      "duration": 0.0141,
      "velocity": 119,
      "chip": "ym2612"
    },
    {
      "channel": 0,
      "note": 65,
      "start": 12.3394,
      "duration": 0.3693,
      "velocity": 122,
      "chip": "ym2612"
    },
    {
      "channel": 5,
      "note": 65,
      "start": 12.3414,
      "duration": 0.3679,
      "velocity": 119,
      "chip": "ym2612"
    },
    {
      "channel": 0,
      "note": 66,
      "start": 12.7438,
      "duration": 0.3694,
      "velocity": 122,
      "chip": "ym2612"
    },
    {
      "channel": 5,
      "note": 66,
      "start": 12.7459,
      "duration": 0.368,
      "velocity": 119,
      "chip": "ym2612"
    },
    {
      "channel": 0,
      "note": 61,
      "start": 13.1483,
      "duration": 0.0155,
      "velocity": 122,
      "chip": "ym2612"
    },
    {
      "channel": 5,
      "note": 61,
      "start": 13.1504,
      "duration": 0.014,
      "velocity": 119,
      "chip": "ym2612"
    },
    {
      "channel": 0,
      "note": 61,
      "start": 13.3506,
      "duration": 0.0154,
      "velocity": 122,
      "chip": "ym2612"
    },
    {
      "channel": 5,
      "note": 61,
      "start": 13.3527,
      "duration": 0.014,
      "velocity": 119,
      "chip": "ym2612"
    },
    {
      "channel": 0,
      "note": 61,
      "start": 13.5528,
      "duration": 0.0154,
      "velocity": 122,
      "chip": "ym2612"
    },
    {
      "channel": 5,
      "note": 61,
      "start": 13.5548,
      "duration": 0.0141,
      "velocity": 119,
      "chip": "ym2612"
    },
    {
      "channel": 0,
      "note": 61,
      "start": 13.755,
      "duration": 0.0155,
      "velocity": 122,
      "chip": "ym2612"
    },
    {
      "channel": 5,
      "note": 61,
      "start": 13.7571,
      "duration": 0.0141,
      "velocity": 119,
      "chip": "ym2612"
    },
    {
      "channel": 0,
      "note": 61,
      "start": 13.9573,
      "duration": 0.0155,
      "velocity": 122,
      "chip": "ym2612"
    },
    {
      "channel": 5,
      "note": 61,
      "start": 13.9593,
      "duration": 0.0141,
      "velocity": 119,
      "chip": "ym2612"
    },
    {
      "channel": 0,
      "note": 61,
      "start": 14.1595,
      "duration": 0.0155,
      "velocity": 122,
      "chip": "ym2612"
    },
    {
      "channel": 5,
      "note": 61,
      "start": 14.1615,
      "duration": 0.0141,
      "velocity": 119,
      "chip": "ym2612"
    },
    {
      "channel": 0,
      "note": 61,
      "start": 14.3618,
      "duration": 0.0155,
      "velocity": 122,
      "chip": "ym2612"
    },
    {
      "channel": 5,
      "note": 61,
      "start": 14.3638,
      "duration": 0.0141,
      "velocity": 119,
      "chip": "ym2612"
    },
    {
      "channel": 0,
      "note": 66,
      "start": 14.5643,
      "duration": 0.1669,
      "velocity": 122,
      "chip": "ym2612"
    },
    {
      "channel": 5,
      "note": 66,
      "start": 14.573,
      "duration": 0.1587,
      "velocity": 119,
      "chip": "ym2612"
    },
    {
      "channel": 0,
      "note": 65,
      "start": 14.7662,
      "duration": 0.1672,
      "velocity": 122,
      "chip": "ym2612"
    },
    {
      "channel": 5,
      "note": 65,
      "start": 14.7683,
      "duration": 0.1658,
      "velocity": 119,
      "chip": "ym2612"
    },
    {
      "channel": 0,
      "note": 61,
      "start": 14.9685,
      "duration": 0.1671,
      "velocity": 122,
      "chip": "ym2612"
    },
    {
      "channel": 5,
      "note": 61,
      "start": 14.9705,
      "duration": 0.1657,
      "velocity": 119,
      "chip": "ym2612"
    },
    {
      "channel": 0,
      "note": 61,
      "start": 15.1708,
      "duration": 0.3693,
      "velocity": 122,
      "chip": "ym2612"
    },
    {
      "channel": 5,
      "note": 61,
      "start": 15.1728,
      "duration": 0.3679,
      "velocity": 119,
      "chip": "ym2612"
    },
    {
      "channel": 0,
      "note": 61,
      "start": 15.5753,
      "duration": 0.1671,
      "velocity": 122,
      "chip": "ym2612"
    },
    {
      "channel": 5,
      "note": 61,
      "start": 15.5773,
      "duration": 0.1659,
      "velocity": 119,
      "chip": "ym2612"
    },
    {
      "channel": 0,
      "note": 63,
      "start": 15.7775,
      "duration": 0.3693,
      "velocity": 122,
      "chip": "ym2612"
    },
    {
      "channel": 2,
      "note": 68,
      "start": 15.7833,
      "duration": 0.3639,
      "velocity": 109,
      "chip": "ym2612"
    },
    {
      "channel": 4,
      "note": 68,
      "start": 15.7893,
      "duration": 0.3584,
      "velocity": 109,
      "chip": "ym2612"
    },
    {
      "channel": 5,
      "note": 63,
      "start": 15.7908,
      "duration": 0.3571,
      "velocity": 119,
      "chip": "ym2612"
    },
    {
      "channel": 0,
      "note": 61,
      "start": 16.1823,
      "duration": 0.3864,
      "velocity": 122,
      "chip": "ym2612"
    },
    {
      "channel": 1,
      "note": 49,
      "start": 16.1876,
      "duration": 0.1784,
      "velocity": 103,
      "chip": "ym2612"
    },
    {
      "channel": 2,
      "note": 80,
      "start": 16.1894,
      "duration": 1.5926,
      "velocity": 109,
      "chip": "ym2612"
    },
    {
      "channel": 3,
      "note": 64,
      "start": 16.195,
      "duration": 0.0201,
      "velocity": 127,
      "chip": "ym2612"
    },
    {
      "channel": 4,
      "note": 80,
      "start": 16.1967,
      "duration": 1.586,
      "velocity": 109,
      "chip": "ym2612"
    },
    {
      "channel": 5,
      "note": 61,
      "start": 16.1986,
      "duration": 0.3713,
      "velocity": 119,
      "chip": "ym2612"
    },
    {
      "channel": 1,
      "note": 49,
      "start": 16.4013,
      "duration": 0.1676,
      "velocity": 103,
      "chip": "ym2612"
    },
    {
      "channel": 0,
      "note": 61,
      "start": 16.6033,
      "duration": 0.0155,
      "velocity": 122,
      "chip": "ym2612"
    },
    {
      "channel": 1,
      "note": 49,
      "start": 16.6051,
      "duration": 0.1654,
      "velocity": 103,
      "chip": "ym2612"
    },
    {
      "channel": 3,
      "note": 64,
      "start": 16.6104,
      "duration": 0.0094,
      "velocity": 127,
      "chip": "ym2612"
    },
    {
      "channel": 5,
      "note": 61,
      "start": 16.6122,
      "duration": 0.008,
      "velocity": 119,
      "chip": "ym2612"
    },
    {
      "channel": 0,
      "note": 61,
      "start": 16.8055,
      "duration": 0.0155,
      "velocity": 122,
      "chip": "ym2612"
    },
    {
      "channel": 1,
      "note": 49,
      "start": 16.8073,
      "duration": 0.1658,
      "velocity": 103,
      "chip": "ym2612"
    },
    {
      "channel": 5,
      "note": 61,
      "start": 16.8096,
      "duration": 0.0124,
      "velocity": 119,
      "chip": "ym2612"
    },
    {
      "channel": 0,
      "note": 61,
      "start": 17.0078,
      "duration": 0.0154,
      "velocity": 122,
      "chip": "ym2612"
    },
    {
      "channel": 1,
      "note": 49,
      "start": 17.0095,
      "duration": 0.1655,
      "velocity": 103,
      "chip": "ym2612"
    },
    {
      "channel": 3,
      "note": 64,
      "start": 17.015,
      "duration": 0.0092,
      "velocity": 127,
      "chip": "ym2612"
    },
    {
      "channel": 5,
      "note": 61,
      "start": 17.0167,
      "duration": 0.0078,
      "velocity": 119,
      "chip": "ym2612"
    },
    {
      "channel": 0,
      "note": 63,
      "start": 17.21,
      "duration": 0.3693,
      "velocity": 122,
      "chip": "ym2612"
    },
    {
      "channel": 1,
      "note": 49,
      "start": 17.2118,
      "duration": 0.1655,
      "velocity": 103,
      "chip": "ym2612"
    },
    {
      "channel": 5,
      "note": 63,
      "start": 17.2142,
      "duration": 0.3663,
      "velocity": 119,
      "chip": "ym2612"
    },
    {
      "channel": 1,
      "note": 49,
      "start": 17.4125,
      "duration": 0.1671,
      "velocity": 103,
      "chip": "ym2612"
    },
    {
      "channel": 3,
      "note": 64,
      "start": 17.4178,
      "duration": 0.0107,
      "velocity": 127,
      "chip": "ym2612"
    },
    {
      "channel": 0,
      "note": 65,
      "start": 17.6145,
      "duration": 0.3693,
      "velocity": 122,
      "chip": "ym2612"
    },
    {
      "channel": 1,
      "note": 49,
      "start": 17.6162,
      "duration": 0.1655,
      "velocity": 103,
      "chip": "ym2612"
    },
    {
      "channel": 5,
      "note": 65,
      "start": 17.6186,
      "duration": 0.3666,
      "velocity": 119,
      "chip": "ym2612"
    },
    {
      "channel": 1,
      "note": 49,
      "start": 17.817,
      "duration": 0.1672,
      "velocity": 103,
      "chip": "ym2612"
    },
    {
      "channel": 2,
      "note": 80,
      "start": 17.8187,
      "duration": 0.57,
      "velocity": 109,
      "chip": "ym2612"
    },
    {
      "channel": 3,
      "note": 64,
      "start": 17.8242,
      "duration": 0.0098,
      "velocity": 127,
      "chip": "ym2612"
    },
    {
      "channel": 4,
      "note": 80,
      "start": 17.8258,
      "duration": 0.5636,
      "velocity": 109,
      "chip": "ym2612"
    },
    {
      "channel": 0,
      "note": 61,
      "start": 18.019,
      "duration": 0.0154,
      "velocity": 122,
      "chip": "ym2612"
    },
    {
      "channel": 1,
      "note": 49,
      "start": 18.0208,
      "duration": 0.1654,
      "velocity": 103,
      "chip": "ym2612"
    },
    {
      "channel": 5,
      "note": 61,
      "start": 18.0232,
      "duration": 0.0123,
      "velocity": 119,
      "chip": "ym2612"
    },
    {
      "channel": 0,
      "note": 61,
      "start": 18.2212,
      "duration": 0.0159,
      "velocity": 122,
      "chip": "ym2612"
    },
    {
      "channel": 1,
      "note": 49,
      "start": 18.223,
      "duration": 0.1655,
      "velocity": 103,
      "chip": "ym2612"
    },
    {
      "channel": 3,
      "note": 64,
      "start": 18.2283,
      "duration": 0.0099,
      "velocity": 127,
      "chip": "ym2612"
    },
    {
      "channel": 5,
      "note": 61,
      "start": 18.23,
      "duration": 0.0085,
      "velocity": 119,
      "chip": "ym2612"
    },
    {
      "channel": 0,
      "note": 61,
      "start": 18.4234,
      "duration": 0.0155,
      "velocity": 122,
      "chip": "ym2612"
    },
    {
      "channel": 1,
      "note": 49,
      "start": 18.4252,
      "duration": 0.1655,
      "velocity": 103,
      "chip": "ym2612"
    },
    {
      "channel": 2,
      "note": 78,
      "start": 18.4269,
      "duration": 0.5684,
      "velocity": 109,
      "chip": "ym2612"
    },
    {
      "channel": 4,
      "note": 78,
      "start": 18.4291,
      "duration": 0.5671,
      "velocity": 109,
      "chip": "ym2612"
    },
    {
      "channel": 5,
      "note": 61,
      "start": 18.4307,
      "duration": 0.0094,
      "velocity": 119,
      "chip": "ym2612"
    },
    {
      "channel": 0,
      "note": 61,
      "start": 18.6257,
      "duration": 0.0155,
      "velocity": 122,
      "chip": "ym2612"
    },
    {
      "channel": 1,
      "note": 49,
      "start": 18.6274,
      "duration": 0.1655,
      "velocity": 103,
      "chip": "ym2612"
    },
    {
      "channel": 3,
      "note": 64,
      "start": 18.6329,
      "duration": 0.0093,
      "velocity": 127,
      "chip": "ym2612"
    },
    {
      "channel": 5,
      "note": 61,
      "start": 18.6347,
      "duration": 0.0078,
      "velocity": 119,
      "chip": "ym2612"
    },
    {
      "channel": 0,
      "note": 65,
      "start": 18.828,
      "duration": 0.3693,
      "velocity": 122,
      "chip": "ym2612"
    },
    {
      "channel": 1,
      "note": 49,
      "start": 18.8297,
      "duration": 0.1655,
      "velocity": 103,
      "chip": "ym2612"
    },
    {
      "channel": 5,
      "note": 65,
      "start": 18.8321,
      "duration": 0.3663,
      "velocity": 119,
      "chip": "ym2612"
    },
    {
      "channel": 1,
      "note": 49,
      "start": 19.0304,
      "duration": 0.1671,
      "velocity": 103,
      "chip": "ym2612"
    },
    {
      "channel": 2,
      "note": 77,
      "start": 19.0322,
      "duration": 0.3677,
      "velocity": 109,
      "chip": "ym2612"
    },
    {
      "channel": 3,
      "note": 64,
      "start": 19.0374,
      "duration": 0.0091,
      "velocity": 127,
      "chip": "ym2612"
    },
    {
      "channel": 4,
      "note": 77,
      "start": 19.0391,
      "duration": 0.3615,
      "velocity": 109,
      "chip": "ym2612"
    },
    {
      "channel": 0,
      "note": 66,
      "start": 19.2324,
      "duration": 0.3693,
      "velocity": 122,
      "chip": "ym2612"
    },
    {
      "channel": 1,
      "note": 49,
      "start": 19.2342,
      "duration": 0.1655,
      "velocity": 103,
      "chip": "ym2612"
    },
    {
      "channel": 5,
      "note": 66,
      "start": 19.2366,
      "duration": 0.3666,
      "velocity": 119,
      "chip": "ym2612"
    },
    {
      "channel": 1,
      "note": 49,
      "start": 19.4349,
      "duration": 0.1671,
      "velocity": 103,
      "chip": "ym2612"
    },
    {
      "channel": 2,
      "note": 78,
      "start": 19.4367,
      "duration": 0.1655,
      "velocity": 109,
      "chip": "ym2612"
    },
    {
      "channel": 3,
      "note": 64,
      "start": 19.4421,
      "duration": 0.0089,
      "velocity": 127,
      "chip": "ym2612"
    },
    {
      "channel": 4,
      "note": 78,
      "start": 19.4438,
      "duration": 0.1592,
      "velocity": 109,
      "chip": "ym2612"
    },
    {
      "channel": 0,
      "note": 61,
      "start": 19.637,
      "duration": 0.0154,
      "velocity": 122,
      "chip": "ym2612"
    },
    {
      "channel": 1,
      "note": 49,
      "start": 19.6388,
      "duration": 0.1654,
      "velocity": 103,
      "chip": "ym2612"
    },
    {
      "channel": 2,
      "note": 77,
      "start": 19.6405,
      "duration": 0.1639,
      "velocity": 109,
      "chip": "ym2612"
    },
    {
      "channel": 4,
      "note": 77,
      "start": 19.6426,
      "duration": 0.1625,
      "velocity": 109,
      "chip": "ym2612"
    },
    {
      "channel": 5,
      "note": 61,
      "start": 19.6443,
      "duration": 0.0092,
      "velocity": 119,
      "chip": "ym2612"
    },
    {
      "channel": 0,
      "note": 61,
      "start": 19.8391,
      "duration": 0.0154,
      "velocity": 122,
      "chip": "ym2612"
    },
    {
      "channel": 1,
      "note": 49,
      "start": 19.8409,
      "duration": 0.1655,
      "velocity": 103,
      "chip": "ym2612"
    },
    {
      "channel": 3,
      "note": 64,
      "start": 19.8463,
      "duration": 0.0093,
      "velocity": 127,
      "chip": "ym2612"
    },
    {
      "channel": 5,
      "note": 61,
      "start": 19.848,
      "duration": 0.0079,
      "velocity": 119,
      "chip": "ym2612"
    },
    {
      "channel": 0,
      "note": 61,
      "start": 20.0414,
      "duration": 0.0155,
      "velocity": 122,
      "chip": "ym2612"
    },
    {
      "channel": 1,
      "note": 49,
      "start": 20.0431,
      "duration": 0.1655,
      "velocity": 103,
      "chip": "ym2612"
    },
    {
      "channel": 2,
      "note": 73,
      "start": 20.0449,
      "duration": 0.973,
      "velocity": 109,
      "chip": "ym2612"
    },
    {
      "channel": 4,
      "note": 73,
      "start": 20.0471,
      "duration": 0.9715,
      "velocity": 109,
      "chip": "ym2612"
    },
    {
      "channel": 5,
      "note": 61,
      "start": 20.0487,
      "duration": 0.0092,
      "velocity": 119,
      "chip": "ym2612"
    },
    {
      "channel": 0,
      "note": 61,
      "start": 20.2437,
      "duration": 0.0154,
      "velocity": 122,
      "chip": "ym2612"
    },
    {
      "channel": 1,
      "note": 49,
      "start": 20.2454,
      "duration": 0.1655,
      "velocity": 103,
      "chip": "ym2612"
    },
    {
      "channel": 3,
      "note": 64,
      "start": 20.2509,
      "duration": 0.0091,
      "velocity": 127,
      "chip": "ym2612"
    },
    {
      "channel": 5,
      "note": 61,
      "start": 20.2526,
      "duration": 0.0078,
      "velocity": 119,
      "chip": "ym2612"
    },
    {
      "channel": 0,
      "note": 61,
      "start": 20.4459,
      "duration": 0.0155,
      "velocity": 122,
      "chip": "ym2612"
    },
    {
      "channel": 1,
      "note": 49,
      "start": 20.4476,
      "duration": 0.1655,
      "velocity": 103,
      "chip": "ym2612"
    },
    {
      "channel": 5,
      "note": 61,
      "start": 20.45,
      "duration": 0.0125,
      "velocity": 119,
      "chip": "ym2612"
    },
    {
      "channel": 0,
      "note": 61,
      "start": 20.6481,
      "duration": 0.0155,
      "velocity": 122,
      "chip": "ym2612"
    },
    {
      "channel": 1,
      "note": 49,
      "start": 20.6499,
      "duration": 0.1654,
      "velocity": 103,
      "chip": "ym2612"
    },
    {
      "channel": 3,
      "note": 64,
      "start": 20.6552,
      "duration": 0.0093,
      "velocity": 127,
      "chip": "ym2612"
    },
    {
      "channel": 5,
      "note": 61,
      "start": 20.6569,
      "duration": 0.0079,
      "velocity": 119,
      "chip": "ym2612"
    },
    {
      "channel": 0,
      "note": 61,
      "start": 20.8503,
      "duration": 0.0155,
      "velocity": 122,
      "chip": "ym2612"
    },
    {
      "channel": 1,
      "note": 49,
      "start": 20.8521,
      "duration": 0.1655,
      "velocity": 103,
      "chip": "ym2612"
    },
    {
      "channel": 5,
      "note": 61,
      "start": 20.8545,
      "duration": 0.0124,
      "velocity": 119,
      "chip": "ym2612"
    },
    {
      "channel": 0,
      "note": 66,
      "start": 21.0529,
      "duration": 0.1837,
      "velocity": 122,
      "chip": "ym2612"
    },
    {
      "channel": 1,
      "note": 54,
      "start": 21.055,
      "duration": 0.1819,
      "velocity": 103,
      "chip": "ym2612"
    },
    {
      "channel": 2,
      "note": 78,
      "start": 21.0571,
      "duration": 0.18,
      "velocity": 109,
      "chip": "ym2612"
    },
    {
      "channel": 3,
      "note": 64,
      "start": 21.0625,
      "duration": 0.0233,
      "velocity": 127,
      "chip": "ym2612"
    },
    {
      "channel": 4,
      "note": 78,
      "start": 21.0645,
      "duration": 0.1733,
      "velocity": 109,
      "chip": "ym2612"
    },
    {
      "channel": 5,
      "note": 66,
      "start": 21.0664,
      "duration": 0.1716,
      "velocity": 119,
      "chip": "ym2612"
    },
    {
      "channel": 0,
      "note": 65,
      "start": 21.2717,
      "duration": 0.1671,
      "velocity": 122,
      "chip": "ym2612"
    },
    {
      "channel": 1,
      "note": 53,
      "start": 21.2733,
      "duration": 0.1658,
      "velocity": 103,
      "chip": "ym2612"
    },
    {
      "channel": 2,
      "note": 77,
      "start": 21.275,
      "duration": 0.1642,
      "velocity": 109,
      "chip": "ym2612"
    },
    {
      "channel": 4,
      "note": 77,
      "start": 21.2772,
      "duration": 0.1629,
      "velocity": 109,
      "chip": "ym2612"
    },
    {
      "channel": 5,
      "note": 65,
      "start": 21.2788,
      "duration": 0.1615,
      "velocity": 119,
      "chip": "ym2612"
    },
    {
      "channel": 0,
      "note": 61,
      "start": 21.4739,
      "duration": 0.1672,
      "velocity": 122,
      "chip": "ym2612"
    },
    {
      "channel": 1,
      "note": 49,
      "start": 21.4755,
      "duration": 0.1658,
      "velocity": 103,
      "chip": "ym2612"
    },
    {
      "channel": 3,
      "note": 64,
      "start": 21.4809,
      "duration": 0.0094,
      "velocity": 127,
      "chip": "ym2612"
    },
    {
      "channel": 5,
      "note": 61,
      "start": 21.4826,
      "duration": 0.1597,
      "velocity": 119,
      "chip": "ym2612"
    },
    {
      "channel": 0,
      "note": 61,
      "start": 21.6762,
      "duration": 0.3693,
      "velocity": 122,
      "chip": "ym2612"
    },
    {
      "channel": 1,
      "note": 54,
      "start": 21.6778,
      "duration": 0.1656,
      "velocity": 103,
      "chip": "ym2612"
    },
    {
      "channel": 2,
      "note": 73,
      "start": 21.6796,
      "duration": 0.5686,
      "velocity": 109,
      "chip": "ym2612"
    },
    {
      "channel": 4,
      "note": 73,
      "start": 21.6817,
      "duration": 0.5672,
      "velocity": 109,
      "chip": "ym2612"
    },
    {
      "channel": 5,
      "note": 61,
      "start": 21.6834,
      "duration": 0.3633,
      "velocity": 119,
      "chip": "ym2612"
    },
    {
      "channel": 1,
      "note": 53,
      "start": 21.8785,
      "duration": 0.1672,
      "velocity": 103,
      "chip": "ym2612"
    },
    {
      "channel": 3,
      "note": 64,
      "start": 21.884,
      "duration": 0.0107,
      "velocity": 127,
      "chip": "ym2612"
    },
    {
      "channel": 0,
      "note": 61,
      "start": 22.0807,
      "duration": 0.1672,
      "velocity": 122,
      "chip": "ym2612"
    },
    {
      "channel": 1,
      "note": 49,
      "start": 22.0823,
      "duration": 0.1658,
      "velocity": 103,
      "chip": "ym2612"
    },
    {
      "channel": 5,
      "note": 61,
      "start": 22.0847,
      "duration": 0.1645,
      "velocity": 119,
      "chip": "ym2612"
    },
    {
      "channel": 0,
      "note": 63,
      "start": 22.2829,
      "duration": 0.3694,
      "velocity": 122,
      "chip": "ym2612"
    },
    {
      "channel": 1,
      "note": 49,
      "start": 22.2846,
      "duration": 0.1656,
      "velocity": 103,
      "chip": "ym2612"
    },
    {
      "channel": 2,
      "note": 68,
      "start": 22.2866,
      "duration": 0.3661,
      "velocity": 109,
      "chip": "ym2612"
    },
    {
      "channel": 3,
      "note": 64,
      "start": 22.2919,
      "duration": 0.0078,
      "velocity": 127,
      "chip": "ym2612"
    },
    {
      "channel": 4,
      "note": 68,
      "start": 22.2939,
      "duration": 0.3596,
      "velocity": 109,
      "chip": "ym2612"
    },
    {
      "channel": 5,
      "note": 63,
      "start": 22.2956,
      "duration": 0.3581,
      "velocity": 119,
      "chip": "ym2612"
    },
    {
      "channel": 1,
      "note": 51,
      "start": 22.4852,
      "duration": 0.1673,
      "velocity": 103,
      "chip": "ym2612"
    },
    {
      "channel": 0,
      "note": 61,
      "start": 22.6877,
      "duration": 0.3859,
      "velocity": 122,
      "chip": "ym2612"
    },
    {
      "channel": 1,
      "note": 49,
      "start": 22.6898,
      "duration": 0.1817,
      "velocity": 103,
      "chip": "ym2612"
    },
    {
      "channel": 2,
      "note": 80,
      "start": 22.6915,
      "duration": 1.5959,
      "velocity": 109,
      "chip": "ym2612"
    },
    {
      "channel": 3,
      "note": 64,
      "start": 22.697,
      "duration": 0.0237,
      "velocity": 127,
      "chip": "ym2612"
    },
    {
      "channel": 4,
      "note": 80,
      "start": 22.6986,
      "duration": 1.5895,
      "velocity": 109,
      "chip": "ym2612"
    },
    {
      "channel": 5,
      "note": 61,
      "start": 22.7005,
      "duration": 0.3743,
      "velocity": 119,
      "chip": "ym2612"
    },
    {
      "channel": 1,
      "note": 49,
      "start": 22.9068,
      "duration": 0.1671,
      "velocity": 103,
      "chip": "ym2612"
    },
    {
      "channel": 0,
      "note": 61,
      "start": 23.1087,
      "duration": 0.0154,
      "velocity": 122,
      "chip": "ym2612"
    },
    {
      "channel": 1,
      "note": 49,
      "start": 23.1105,
      "duration": 0.1655,
      "velocity": 103,
      "chip": "ym2612"
    },
    {
      "channel": 3,
      "note": 64,
      "start": 23.1159,
      "duration": 0.0093,
      "velocity": 127,
      "chip": "ym2612"
    },
    {
      "channel": 5,
      "note": 61,
      "start": 23.1176,
      "duration": 0.0079,
      "velocity": 119,
      "chip": "ym2612"
    },
    {
      "channel": 0,
      "note": 61,
      "start": 23.311,
      "duration": 0.0154,
      "velocity": 122,
      "chip": "ym2612"
    },
    {
      "channel": 1,
      "note": 49,
      "start": 23.3127,
      "duration": 0.1655,
      "velocity": 103,
      "chip": "ym2612"
    },
    {
      "channel": 5,
      "note": 61,
      "start": 23.3151,
      "duration": 0.0124,
      "velocity": 119,
      "chip": "ym2612"
    },
    {
      "channel": 0,
      "note": 61,
      "start": 23.5132,
      "duration": 0.0162,
      "velocity": 122,
      "chip": "ym2612"
    },
    {
      "channel": 1,
      "note": 49,
      "start": 23.515,
      "duration": 0.1654,
      "velocity": 103,
      "chip": "ym2612"
    },
    {
      "channel": 3,
      "note": 64,
      "start": 23.5205,
      "duration": 0.0099,
      "velocity": 127,
      "chip": "ym2612"
    },
    {
      "channel": 5,
      "note": 61,
      "start": 23.5222,
      "duration": 0.0085,
      "velocity": 119,
      "chip": "ym2612"
    },
    {
      "channel": 0,
      "note": 63,
      "start": 23.7155,
      "duration": 0.3694,
      "velocity": 122,
      "chip": "ym2612"
    },
    {
      "channel": 1,
      "note": 49,
      "start": 23.7173,
      "duration": 0.1654,
      "velocity": 103,
      "chip": "ym2612"
    },
    {
      "channel": 5,
      "note": 63,
      "start": 23.7197,
      "duration": 0.3663,
      "velocity": 119,
      "chip": "ym2612"
    },
    {
      "channel": 1,
      "note": 49,
      "start": 23.9179,
      "duration": 0.1671,
      "velocity": 103,
      "chip": "ym2612"
    },
    {
      "channel": 3,
      "note": 64,
      "start": 23.9233,
      "duration": 0.0111,
      "velocity": 127,
      "chip": "ym2612"
    },
    {
      "channel": 0,
      "note": 65,
      "start": 24.12,
      "duration": 0.3693,
      "velocity": 122,
      "chip": "ym2612"
    },
    {
      "channel": 1,
      "note": 49,
      "start": 24.1217,
      "duration": 0.1655,
      "velocity": 103,
      "chip": "ym2612"
    },
    {
      "channel": 5,
      "note": 65,
      "start": 24.1241,
      "duration": 0.3664,
      "velocity": 119,
      "chip": "ym2612"
    },
    {
      "channel": 1,
      "note": 49,
      "start": 24.3225,
      "duration": 0.167,
      "velocity": 103,
      "chip": "ym2612"
    },
    {
      "channel": 2,
      "note": 80,
      "start": 24.3242,
      "duration": 0.57,
      "velocity": 109,
      "chip": "ym2612"
    },
    {
      "channel": 3,
      "note": 64,
      "start": 24.3296,
      "duration": 0.0089,
      "velocity": 127,
      "chip": "ym2612"
    },
    {
      "channel": 4,
      "note": 80,
      "start": 24.3312,
      "duration": 0.5636,
      "velocity": 109,
      "chip": "ym2612"
    },
    {
      "channel": 0,
      "note": 61,
      "start": 24.5244,
      "duration": 0.0154,
      "velocity": 122,
      "chip": "ym2612"
    },
    {
      "channel": 1,
      "note": 49,
      "start": 24.5262,
      "duration": 0.1655,
      "velocity": 103,
      "chip": "ym2612"
    },
    {
      "channel": 5,
      "note": 61,
      "start": 24.5286,
      "duration": 0.0123,
      "velocity": 119,
      "chip": "ym2612"
    },
    {
      "channel": 0,
      "note": 61,
      "start": 24.7267,
      "duration": 0.0154,
      "velocity": 122,
      "chip": "ym2612"
    },
    {
      "channel": 1,
      "note": 49,
      "start": 24.7284,
      "duration": 0.1655,
      "velocity": 103,
      "chip": "ym2612"
    },
    {
      "channel": 3,
      "note": 64,
      "start": 24.7337,
      "duration": 0.0094,
      "velocity": 127,
      "chip": "ym2612"
    },
    {
      "channel": 5,
      "note": 61,
      "start": 24.7355,
      "duration": 0.0079,
      "velocity": 119,
      "chip": "ym2612"
    },
    {
      "channel": 0,
      "note": 61,
      "start": 24.9289,
      "duration": 0.0155,
      "velocity": 122,
      "chip": "ym2612"
    },
    {
      "channel": 1,
      "note": 49,
      "start": 24.9307,
      "duration": 0.1655,
      "velocity": 103,
      "chip": "ym2612"
    },
    {
      "channel": 2,
      "note": 78,
      "start": 24.9324,
      "duration": 0.5685,
      "velocity": 109,
      "chip": "ym2612"
    },
    {
      "channel": 4,
      "note": 78,
      "start": 24.9346,
      "duration": 0.567,
      "velocity": 109,
      "chip": "ym2612"
    },
    {
      "channel": 5,
      "note": 61,
      "start": 24.9361,
      "duration": 0.0093,
      "velocity": 119,
      "chip": "ym2612"
    },
    {
      "channel": 0,
      "note": 61,
      "start": 25.1311,
      "duration": 0.0155,
      "velocity": 122,
      "chip": "ym2612"
    },
    {
      "channel": 1,
      "note": 49,
      "start": 25.1329,
      "duration": 0.1655,
      "velocity": 103,
      "chip": "ym2612"
    },
    {
      "channel": 3,
      "note": 64,
      "start": 25.1384,
      "duration": 0.0092,
      "velocity": 127,
      "chip": "ym2612"
    },
    {
      "channel": 5,
      "note": 61,
      "start": 25.1401,
      "duration": 0.0077,
      "velocity": 119,
      "chip": "ym2612"
    },
    {
      "channel": 0,
      "note": 65,
      "start": 25.3334,
      "duration": 0.3694,
      "velocity": 122,
      "chip": "ym2612"
    },
    {
      "channel": 1,
      "note": 49,
      "start": 25.3351,
      "duration": 0.1655,
      "velocity": 103,
      "chip": "ym2612"
    },
    {
      "channel": 5,
      "note": 65,
      "start": 25.3376,
      "duration": 0.3663,
      "velocity": 119,
      "chip": "ym2612"
    },
    {
      "channel": 1,
      "note": 49,
      "start": 25.5359,
      "duration": 0.1671,
      "velocity": 103,
      "chip": "ym2612"
    },
    {
      "channel": 2,
      "note": 77,
      "start": 25.5377,
      "duration": 0.3677,
      "velocity": 109,
      "chip": "ym2612"
    },
    {
      "channel": 3,
      "note": 64,
      "start": 25.5429,
      "duration": 0.0091,
      "velocity": 127,
      "chip": "ym2612"
    },
    {
      "channel": 4,
      "note": 77,
      "start": 25.5445,
      "duration": 0.3615,
      "velocity": 109,
      "chip": "ym2612"
    },
    {
      "channel": 0,
      "note": 66,
      "start": 25.7379,
      "duration": 0.3693,
      "velocity": 122,
      "chip": "ym2612"
    },
    {
      "channel": 1,
      "note": 49,
      "start": 25.7396,
      "duration": 0.1655,
      "velocity": 103,
      "chip": "ym2612"
    },
    {
      "channel": 5,
      "note": 66,
      "start": 25.7421,
      "duration": 0.3665,
      "velocity": 119,
      "chip": "ym2612"
    },
    {
      "channel": 1,
      "note": 49,
      "start": 25.9403,
      "duration": 0.1671,
      "velocity": 103,
      "chip": "ym2612"
    },
    {
      "channel": 2,
      "note": 78,
      "start": 25.9421,
      "duration": 0.1656,
      "velocity": 109,
      "chip": "ym2612"
    },
    {
      "channel": 3,
      "note": 64,
      "start": 25.9475,
      "duration": 0.009,
      "velocity": 127,
      "chip": "ym2612"
    },
    {
      "channel": 4,
      "note": 78,
      "start": 25.9491,
      "duration": 0.1593,
      "velocity": 109,
      "chip": "ym2612"
    },
    {
      "channel": 0,
      "note": 61,
      "start": 26.1424,
      "duration": 0.0154,
      "velocity": 122,
      "chip": "ym2612"
    },
    {
      "channel": 1,
      "note": 49,
      "start": 26.1441,
      "duration": 0.1655,
      "velocity": 103,
      "chip": "ym2612"
    },
    {
      "channel": 2,
      "note": 77,
      "start": 26.1459,
      "duration": 0.1639,
      "velocity": 109,
      "chip": "ym2612"
    },
    {
      "channel": 4,
      "note": 77,
      "start": 26.148,
      "duration": 0.1625,
      "velocity": 109,
      "chip": "ym2612"
    },
    {
      "channel": 5,
      "note": 61,
      "start": 26.1497,
      "duration": 0.0092,
      "velocity": 119,
      "chip": "ym2612"
    },
    {
      "channel": 0,
      "note": 61,
      "start": 26.3446,
      "duration": 0.0154,
      "velocity": 122,
      "chip": "ym2612"
    },
    {
      "channel": 1,
      "note": 49,
      "start": 26.3463,
      "duration": 0.1655,
      "velocity": 103,
      "chip": "ym2612"
    },
    {
      "channel": 3,
      "note": 64,
      "start": 26.3517,
      "duration": 0.0094,
      "velocity": 127,
      "chip": "ym2612"
    },
    {
      "channel": 5,
      "note": 61,
      "start": 26.3534,
      "duration": 0.0079,
      "velocity": 119,
      "chip": "ym2612"
    },
    {
      "channel": 0,
      "note": 61,
      "start": 26.5468,
      "duration": 0.0155,
      "velocity": 122,
      "chip": "ym2612"
    },
    {
      "channel": 1,
      "note": 49,
      "start": 26.5486,
      "duration": 0.1654,
      "velocity": 103,
      "chip": "ym2612"
    },
    {
      "channel": 2,
      "note": 73,
      "start": 26.5503,
      "duration": 0.973,
      "velocity": 109,
      "chip": "ym2612"
    },
    {
      "channel": 4,
      "note": 73,
      "start": 26.5525,
      "duration": 0.9715,
      "velocity": 109,
      "chip": "ym2612"
    },
    {
      "channel": 5,
      "note": 61,
      "start": 26.5541,
      "duration": 0.0092,
      "velocity": 119,
      "chip": "ym2612"
    },
    {
      "channel": 0,
      "note": 61,
      "start": 26.749,
      "duration": 0.0155,
      "velocity": 122,
      "chip": "ym2612"
    },
    {
      "channel": 1,
      "note": 49,
      "start": 26.7508,
      "duration": 0.1654,
      "velocity": 103,
      "chip": "ym2612"
    },
    {
      "channel": 3,
      "note": 64,
      "start": 26.7564,
      "duration": 0.0092,
      "velocity": 127,
      "chip": "ym2612"
    },
    {
      "channel": 5,
      "note": 61,
      "start": 26.7581,
      "duration": 0.0078,
      "velocity": 119,
      "chip": "ym2612"
    },
    {
      "channel": 0,
      "note": 61,
      "start": 26.9513,
      "duration": 0.0155,
      "velocity": 122,
      "chip": "ym2612"
    },
    {
      "channel": 1,
      "note": 49,
      "start": 26.9531,
      "duration": 0.1655,
      "velocity": 103,
      "chip": "ym2612"
    },
    {
      "channel": 5,
      "note": 61,
      "start": 26.9555,
      "duration": 0.0124,
      "velocity": 119,
      "chip": "ym2612"
    },
    {
      "channel": 0,
      "note": 61,
      "start": 27.1536,
      "duration": 0.0155,
      "velocity": 122,
      "chip": "ym2612"
    },
    {
      "channel": 1,
      "note": 49,
      "start": 27.1554,
      "duration": 0.1655,
      "velocity": 103,
      "chip": "ym2612"
    },
    {
      "channel": 3,
      "note": 64,
      "start": 27.1607,
      "duration": 0.0093,
      "velocity": 127,
      "chip": "ym2612"
    },
    {
      "channel": 5,
      "note": 61,
      "start": 27.1623,
      "duration": 0.008,
      "velocity": 119,
      "chip": "ym2612"
    },
    {
      "channel": 0,
      "note": 61,
      "start": 27.3558,
      "duration": 0.0154,
      "velocity": 122,
      "chip": "ym2612"
    },
    {
      "channel": 1,
      "note": 49,
      "start": 27.3575,
      "duration": 0.1655,
      "velocity": 103,
      "chip": "ym2612"
    },
    {
      "channel": 5,
      "note": 61,
      "start": 27.3599,
      "duration": 0.0125,
      "velocity": 119,
      "chip": "ym2612"
    },
    {
      "channel": 0,
      "note": 66,
      "start": 27.559,
      "duration": 0.183,
      "velocity": 122,
      "chip": "ym2612"
    },
    {
      "channel": 1,
      "note": 54,
      "start": 27.5611,
      "duration": 0.1812,
      "velocity": 103,
      "chip": "ym2612"
    },
    {
      "channel": 2,
      "note": 78,
      "start": 27.5632,
      "duration": 0.1793,
      "velocity": 109,
      "chip": "ym2612"
    },
    {
      "channel": 3,
      "note": 64,
      "start": 27.5686,
      "duration": 0.0227,
      "velocity": 127,
      "chip": "ym2612"
    },
    {
      "channel": 4,
      "note": 78,
      "start": 27.5706,
      "duration": 0.1726,
      "velocity": 109,
      "chip": "ym2612"
    },
    {
      "channel": 5,
      "note": 66,
      "start": 27.5725,
      "duration": 0.1709,
      "velocity": 119,
      "chip": "ym2612"
    },
    {
      "channel": 0,
      "note": 65,
      "start": 27.7771,
      "duration": 0.1672,
      "velocity": 122,
      "chip": "ym2612"
    },
    {
      "channel": 1,
      "note": 53,
      "start": 27.7787,
      "duration": 0.1658,
      "velocity": 103,
      "chip": "ym2612"
    },
    {
      "channel": 2,
      "note": 77,
      "start": 27.7804,
      "duration": 0.1643,
      "velocity": 109,
      "chip": "ym2612"
    },
    {
      "channel": 4,
      "note": 77,
      "start": 27.7826,
      "duration": 0.1628,
      "velocity": 109,
      "chip": "ym2612"
    },
    {
      "channel": 5,
      "note": 65,
      "start": 27.7842,
      "duration": 0.1614,
      "velocity": 119,
      "chip": "ym2612"
    },
    {
      "channel": 0,
      "note": 61,
      "start": 27.9793,
      "duration": 0.1672,
      "velocity": 122,
      "chip": "ym2612"
    },
    {
      "channel": 1,
      "note": 49,
      "start": 27.9809,
      "duration": 0.1658,
      "velocity": 103,
      "chip": "ym2612"
    },
    {
      "channel": 3,
      "note": 64,
      "start": 27.9863,
      "duration": 0.0095,
      "velocity": 127,
      "chip": "ym2612"
    },
    {
      "channel": 5,
      "note": 61,
      "start": 27.988,
      "duration": 0.1596,
      "velocity": 119,
      "chip": "ym2612"
    },
    {
      "channel": 0,
      "note": 61,
      "start": 28.1816,
      "duration": 0.3694,
      "velocity": 122,
      "chip": "ym2612"
    },
    {
      "channel": 1,
      "note": 54,
      "start": 28.1832,
      "duration": 0.1656,
      "velocity": 103,
      "chip": "ym2612"
    },
    {
      "channel": 2,
      "note": 73,
      "start": 28.185,
      "duration": 0.9732,
      "velocity": 109,
      "chip": "ym2612"
    },
    {
      "channel": 4,
      "note": 73,
      "start": 28.1872,
      "duration": 0.9717,
      "velocity": 109,
      "chip": "ym2612"
    },
    {
      "channel": 5,
      "note": 61,
      "start": 28.1888,
      "duration": 0.3634,
      "velocity": 119,
      "chip": "ym2612"
    },
    {
      "channel": 1,
      "note": 53,
      "start": 28.384,
      "duration": 0.1673,
      "velocity": 103,
      "chip": "ym2612"
    },
    {
      "channel": 3,
      "note": 64,
      "start": 28.3898,
      "duration": 0.0104,
      "velocity": 127,
      "chip": "ym2612"
    },
    {
      "channel": 0,
      "note": 61,
      "start": 28.5861,
      "duration": 0.1672,
      "velocity": 122,
      "chip": "ym2612"
    },
    {
      "channel": 1,
      "note": 49,
      "start": 28.5877,
      "duration": 0.1657,
      "velocity": 103,
      "chip": "ym2612"
    },
    {
      "channel": 5,
      "note": 61,
      "start": 28.5901,
      "duration": 0.1643,
      "velocity": 119,
      "chip": "ym2612"
    },
    {
      "channel": 0,
      "note": 63,
      "start": 28.7884,
      "duration": 0.3693,
      "velocity": 122,
      "chip": "ym2612"
    },
    {
      "channel": 1,
      "note": 49,
      "start": 28.79,
      "duration": 0.1656,
      "velocity": 103,
      "chip": "ym2612"
    },
    {
      "channel": 3,
      "note": 64,
      "start": 28.7953,
      "duration": 0.0093,
      "velocity": 127,
      "chip": "ym2612"
    },
    {
      "channel": 5,
      "note": 63,
      "start": 28.7971,
      "duration": 0.362,
      "velocity": 119,
      "chip": "ym2612"
    },
    {
      "channel": 1,
      "note": 51,
      "start": 28.9907,
      "duration": 0.1673,
      "velocity": 103,
      "chip": "ym2612"
    },
    {
      "channel": 0,
      "note": 60,
      "start": 29.1931,
      "duration": 3.2173,
      "velocity": 122,
      "chip": "ym2612"
    },
    {
      "channel": 1,
      "note": 48,
      "start": 29.1952,
      "duration": 0.1817,
      "velocity": 103,
      "chip": "ym2612"
    },
    {
      "channel": 2,
      "note": 72,
      "start": 29.1973,
      "duration": 3.2135,
      "velocity": 109,
      "chip": "ym2612"
    },
    {
      "channel": 3,
      "note": 64,
      "start": 29.2027,
      "duration": 0.0242,
      "velocity": 127,
      "chip": "ym2612"
    },
    {
      "channel": 4,
      "note": 72,
      "start": 29.2048,
      "duration": 3.2068,
      "velocity": 109,
      "chip": "ym2612"
    },
    {
      "channel": 5,
      "note": 60,
      "start": 29.2067,
      "duration": 3.2051,
      "velocity": 119,
      "chip": "ym2612"
    },
    {
      "channel": 1,
      "note": 48,
      "start": 29.4122,
      "duration": 0.167,
      "velocity": 103,
      "chip": "ym2612"
    },
    {
      "channel": 1,
      "note": 48,
      "start": 29.6144,
      "duration": 0.167,
      "velocity": 103,
      "chip": "ym2612"
    },
    {
      "channel": 3,
      "note": 64,
      "start": 29.6167,
      "duration": 0.014,
      "velocity": 127,
      "chip": "ym2612"
    },
    {
      "channel": 1,
      "note": 48,
      "start": 29.8166,
      "duration": 0.1671,
      "velocity": 103,
      "chip": "ym2612"
    },
    {
      "channel": 1,
      "note": 48,
      "start": 30.0189,
      "duration": 0.167,
      "velocity": 103,
      "chip": "ym2612"
    },
    {
      "channel": 3,
      "note": 64,
      "start": 30.0212,
      "duration": 0.0137,
      "velocity": 127,
      "chip": "ym2612"
    },
    {
      "channel": 1,
      "note": 48,
      "start": 30.2212,
      "duration": 0.1669,
      "velocity": 103,
      "chip": "ym2612"
    },
    {
      "channel": 1,
      "note": 48,
      "start": 30.4234,
      "duration": 0.167,
      "velocity": 103,
      "chip": "ym2612"
    },
    {
      "channel": 3,
      "note": 64,
      "start": 30.4257,
      "duration": 0.0137,
      "velocity": 127,
      "chip": "ym2612"
    },
    {
      "channel": 1,
      "note": 48,
      "start": 30.6256,
      "duration": 0.167,
      "velocity": 103,
      "chip": "ym2612"
    },
    {
      "channel": 1,
      "note": 48,
      "start": 30.8293,
      "duration": 0.1656,
      "velocity": 103,
      "chip": "ym2612"
    },
    {
      "channel": 3,
      "note": 64,
      "start": 30.833,
      "duration": 0.0109,
      "velocity": 127,
      "chip": "ym2612"
    },
    {
      "channel": 1,
      "note": 48,
      "start": 31.0301,
      "duration": 0.167,
      "velocity": 103,
      "chip": "ym2612"
    },
    {
      "channel": 1,
      "note": 48,
      "start": 31.2323,
      "duration": 0.167,
      "velocity": 103,
      "chip": "ym2612"
    },
    {
      "channel": 3,
      "note": 64,
      "start": 31.2347,
      "duration": 0.0137,
      "velocity": 127,
      "chip": "ym2612"
    },
    {
      "channel": 1,
      "note": 48,
      "start": 31.4346,
      "duration": 0.167,
      "velocity": 103,
      "chip": "ym2612"
    },
    {
      "channel": 1,
      "note": 48,
      "start": 31.6368,
      "duration": 0.167,
      "velocity": 103,
      "chip": "ym2612"
    },
    {
      "channel": 3,
      "note": 64,
      "start": 31.6392,
      "duration": 0.0137,
      "velocity": 127,
      "chip": "ym2612"
    },
    {
      "channel": 1,
      "note": 48,
      "start": 31.8391,
      "duration": 0.167,
      "velocity": 103,
      "chip": "ym2612"
    },
    {
      "channel": 1,
      "note": 48,
      "start": 32.0413,
      "duration": 0.167,
      "velocity": 103,
      "chip": "ym2612"
    },
    {
      "channel": 3,
      "note": 64,
      "start": 32.0437,
      "duration": 0.0137,
      "velocity": 127,
      "chip": "ym2612"
    },
    {
      "channel": 1,
      "note": 48,
      "start": 32.2435,
      "duration": 0.1671,
      "velocity": 103,
      "chip": "ym2612"
    },
    {
      "channel": 0,
      "note": 61,
      "start": 32.4459,
      "duration": 0.3859,
      "velocity": 122,
      "chip": "ym2612"
    },
    {
      "channel": 1,
      "note": 49,
      "start": 32.448,
      "duration": 0.1816,
      "velocity": 103,
      "chip": "ym2612"
    },
    {
      "channel": 3,
      "note": 64,
      "start": 32.4562,
      "duration": 0.0225,
      "velocity": 127,
      "chip": "ym2612"
    },
    {
      "channel": 5,
      "note": 61,
      "start": 32.4604,
      "duration": 0.3725,
      "velocity": 119,
      "chip": "ym2612"
    },
    {
      "channel": 1,
      "note": 49,
      "start": 32.6649,
      "duration": 0.1671,
      "velocity": 103,
      "chip": "ym2612"
    },
    {
      "channel": 0,
      "note": 61,
      "start": 32.8669,
      "duration": 0.0154,
      "velocity": 122,
      "chip": "ym2612"
    },
    {
      "channel": 1,
      "note": 49,
      "start": 32.8686,
      "duration": 0.1656,
      "velocity": 103,
      "chip": "ym2612"
    },
    {
      "channel": 3,
      "note": 64,
      "start": 32.874,
      "duration": 0.0093,
      "velocity": 127,
      "chip": "ym2612"
    },
    {
      "channel": 5,
      "note": 61,
      "start": 32.8758,
      "duration": 0.0078,
      "velocity": 119,
      "chip": "ym2612"
    },
    {
      "channel": 0,
      "note": 61,
      "start": 33.0691,
      "duration": 0.0155,
      "velocity": 122,
      "chip": "ym2612"
    },
    {
      "channel": 1,
      "note": 49,
      "start": 33.0709,
      "duration": 0.1655,
      "velocity": 103,
      "chip": "ym2612"
    },
    {
      "channel": 5,
      "note": 61,
      "start": 33.0732,
      "duration": 0.0124,
      "velocity": 119,
      "chip": "ym2612"
    },
    {
      "channel": 0,
      "note": 61,
      "start": 33.2713,
      "duration": 0.0155,
      "velocity": 122,
      "chip": "ym2612"
    },
    {
      "channel": 1,
      "note": 49,
      "start": 33.2731,
      "duration": 0.1655,
      "velocity": 103,
      "chip": "ym2612"
    },
    {
      "channel": 3,
      "note": 64,
      "start": 33.2786,
      "duration": 0.0092,
      "velocity": 127,
      "chip": "ym2612"
    },
    {
      "channel": 5,
      "note": 61,
      "start": 33.2803,
      "duration": 0.0078,
      "velocity": 119,
      "chip": "ym2612"
    },
    {
      "channel": 0,
      "note": 63,
      "start": 33.4736,
      "duration": 0.3694,
      "velocity": 122,
      "chip": "ym2612"
    },
    {
      "channel": 1,
      "note": 49,
      "start": 33.4754,
      "duration": 0.1654,
      "velocity": 103,
      "chip": "ym2612"
    },
    {
      "channel": 5,
      "note": 63,
      "start": 33.4777,
      "duration": 0.3664,
      "velocity": 119,
      "chip": "ym2612"
    },
    {
      "channel": 1,
      "note": 49,
      "start": 33.6761,
      "duration": 0.1671,
      "velocity": 103,
      "chip": "ym2612"
    },
    {
      "channel": 3,
      "note": 64,
      "start": 33.6814,
      "duration": 0.0107,
      "velocity": 127,
      "chip": "ym2612"
    },
    {
      "channel": 0,
      "note": 65,
      "start": 33.878,
      "duration": 0.3694,
      "velocity": 122,
      "chip": "ym2612"
    },
    {
      "channel": 1,
      "note": 49,
      "start": 33.8798,
      "duration": 0.1655,
      "velocity": 103,
      "chip": "ym2612"
    },
    {
      "channel": 5,
      "note": 65,
      "start": 33.8822,
      "duration": 0.3664,
      "velocity": 119,
      "chip": "ym2612"
    },
    {
      "channel": 1,
      "note": 49,
      "start": 34.0805,
      "duration": 0.1671,
      "velocity": 103,
      "chip": "ym2612"
    },
    {
      "channel": 3,
      "note": 64,
      "start": 34.0877,
      "duration": 0.0089,
      "velocity": 127,
      "chip": "ym2612"
    },
    {
      "channel": 0,
      "note": 61,
      "start": 34.2826,
      "duration": 0.0154,
      "velocity": 122,
      "chip": "ym2612"
    },
    {
      "channel": 1,
      "note": 49,
      "start": 34.2844,
      "duration": 0.1655,
      "velocity": 103,
      "chip": "ym2612"
    },
    {
      "channel": 5,
      "note": 61,
      "start": 34.2868,
      "duration": 0.0123,
      "velocity": 119,
      "chip": "ym2612"
    },
    {
      "channel": 0,
      "note": 61,
      "start": 34.4848,
      "duration": 0.0154,
      "velocity": 122,
      "chip": "ym2612"
    },
    {
      "channel": 1,
      "note": 49,
      "start": 34.4866,
      "duration": 0.1655,
      "velocity": 103,
      "chip": "ym2612"
    },
    {
      "channel": 3,
      "note": 64,
      "start": 34.4919,
      "duration": 0.0093,
      "velocity": 127,
      "chip": "ym2612"
    },
    {
      "channel": 5,
      "note": 61,
      "start": 34.4936,
      "duration": 0.008,
      "velocity": 119,
      "chip": "ym2612"
    },
    {
      "channel": 0,
      "note": 61,
      "start": 34.687,
      "duration": 0.0155,
      "velocity": 122,
      "chip": "ym2612"
    },
    {
      "channel": 1,
      "note": 49,
      "start": 34.6888,
      "duration": 0.1655,
      "velocity": 103,
      "chip": "ym2612"
    },
    {
      "channel": 5,
      "note": 61,
      "start": 34.6912,
      "duration": 0.0124,
      "velocity": 119,
      "chip": "ym2612"
    },
    {
      "channel": 0,
      "note": 61,
      "start": 34.8893,
      "duration": 0.0155,
      "velocity": 122,
      "chip": "ym2612"
    },
    {
      "channel": 1,
      "note": 49,
      "start": 34.891,
      "duration": 0.1655,
      "velocity": 103,
      "chip": "ym2612"
    },
    {
      "channel": 3,
      "note": 64,
      "start": 34.8966,
      "duration": 0.0092,
      "velocity": 127,
      "chip": "ym2612"
    },
    {
      "channel": 5,
      "note": 61,
      "start": 34.8983,
      "duration": 0.0077,
      "velocity": 119,
      "chip": "ym2612"
    },
    {
      "channel": 0,
      "note": 65,
      "start": 35.0915,
      "duration": 0.3694,
      "velocity": 122,
      "chip": "ym2612"
    },
    {
      "channel": 1,
      "note": 49,
      "start": 35.0933,
      "duration": 0.1654,
      "velocity": 103,
      "chip": "ym2612"
    },
    {
      "channel": 5,
      "note": 65,
      "start": 35.0957,
      "duration": 0.3663,
      "velocity": 119,
      "chip": "ym2612"
    },
    {
      "channel": 1,
      "note": 49,
      "start": 35.294,
      "duration": 0.1671,
      "velocity": 103,
      "chip": "ym2612"
    },
    {
      "channel": 3,
      "note": 64,
      "start": 35.2994,
      "duration": 0.0107,
      "velocity": 127,
      "chip": "ym2612"
    },
    {
      "channel": 0,
      "note": 66,
      "start": 35.496,
      "duration": 0.3694,
      "velocity": 122,
      "chip": "ym2612"
    },
    {
      "channel": 1,
      "note": 49,
      "start": 35.4978,
      "duration": 0.1655,
      "velocity": 103,
      "chip": "ym2612"
    },
    {
      "channel": 5,
      "note": 66,
      "start": 35.5001,
      "duration": 0.3664,
      "velocity": 119,
      "chip": "ym2612"
    },
    {
      "channel": 1,
      "note": 49,
      "start": 35.6985,
      "duration": 0.1671,
      "velocity": 103,
      "chip": "ym2612"
    },
    {
      "channel": 3,
      "note": 64,
      "start": 35.7057,
      "duration": 0.0089,
      "velocity": 127,
      "chip": "ym2612"
    },
    {
      "channel": 0,
      "note": 61,
      "start": 35.9011,
      "duration": 0.0149,
      "velocity": 122,
      "chip": "ym2612"
    },
    {
      "channel": 1,
      "note": 49,
      "start": 35.9028,
      "duration": 0.1649,
      "velocity": 103,
      "chip": "ym2612"
    },
    {
      "channel": 5,
      "note": 61,
      "start": 35.9052,
      "duration": 0.0118,
      "velocity": 119,
      "chip": "ym2612"
    },
    {
      "channel": 0,
      "note": 61,
      "start": 36.1027,
      "duration": 0.0155,
      "velocity": 122,
      "chip": "ym2612"
    },
    {
      "channel": 1,
      "note": 49,
      "start": 36.1045,
      "duration": 0.1655,
      "velocity": 103,
      "chip": "ym2612"
    },
    {
      "channel": 3,
      "note": 64,
      "start": 36.1098,
      "duration": 0.0094,
      "velocity": 127,
      "chip": "ym2612"
    },
    {
      "channel": 5,
      "note": 61,
      "start": 36.1115,
      "duration": 0.008,
      "velocity": 119,
      "chip": "ym2612"
    },
    {
      "channel": 0,
      "note": 61,
      "start": 36.3051,
      "duration": 0.0153,
      "velocity": 122,
      "chip": "ym2612"
    },
    {
      "channel": 1,
      "note": 49,
      "start": 36.3069,
      "duration": 0.1653,
      "velocity": 103,
      "chip": "ym2612"
    },
    {
      "channel": 5,
      "note": 61,
      "start": 36.3093,
      "duration": 0.0122,
      "velocity": 119,
      "chip": "ym2612"
    },
    {
      "channel": 0,
      "note": 61,
      "start": 36.5072,
      "duration": 0.0155,
      "velocity": 122,
      "chip": "ym2612"
    },
    {
      "channel": 1,
      "note": 49,
      "start": 36.509,
      "duration": 0.1655,
      "velocity": 103,
      "chip": "ym2612"
    },
    {
      "channel": 3,
      "note": 64,
      "start": 36.5144,
      "duration": 0.0092,
      "velocity": 127,
      "chip": "ym2612"
    },
    {
      "channel": 5,
      "note": 61,
      "start": 36.5162,
      "duration": 0.0078,
      "velocity": 119,
      "chip": "ym2612"
    },
    {
      "channel": 0,
      "note": 61,
      "start": 36.7095,
      "duration": 0.0155,
      "velocity": 122,
      "chip": "ym2612"
    },
    {
      "channel": 1,
      "note": 49,
      "start": 36.7112,
      "duration": 0.1662,
      "velocity": 103,
      "chip": "ym2612"
    },
    {
      "channel": 5,
      "note": 61,
      "start": 36.7136,
      "duration": 0.0124,
      "velocity": 119,
      "chip": "ym2612"
    },
    {
      "channel": 0,
      "note": 61,
      "start": 36.9117,
      "duration": 0.0155,
      "velocity": 122,
      "chip": "ym2612"
    },
    {
      "channel": 1,
      "note": 49,
      "start": 36.9134,
      "duration": 0.1655,
      "velocity": 103,
      "chip": "ym2612"
    },
    {
      "channel": 3,
      "note": 64,
      "start": 36.9188,
      "duration": 0.0093,
      "velocity": 127,
      "chip": "ym2612"
    },
    {
      "channel": 5,
      "note": 61,
      "start": 36.9205,
      "duration": 0.0078,
      "velocity": 119,
      "chip": "ym2612"
    },
    {
      "channel": 0,
      "note": 61,
      "start": 37.1139,
      "duration": 0.0154,
      "velocity": 122,
      "chip": "ym2612"
    },
    {
      "channel": 1,
      "note": 49,
      "start": 37.1157,
      "duration": 0.1657,
      "velocity": 103,
      "chip": "ym2612"
    },
    {
      "channel": 5,
      "note": 61,
      "start": 37.1181,
      "duration": 0.0123,
      "velocity": 119,
      "chip": "ym2612"
    },
    {
      "channel": 0,
      "note": 61,
      "start": 37.3165,
      "duration": 0.3859,
      "velocity": 122,
      "chip": "ym2612"
    },
    {
      "channel": 1,
      "note": 49,
      "start": 37.3185,
      "duration": 0.3841,
      "velocity": 103,
      "chip": "ym2612"
    },
    {
      "channel": 3,
      "note": 64,
      "start": 37.3257,
      "duration": 0.0237,
      "velocity": 127,
      "chip": "ym2612"
    },
    {
      "channel": 5,
      "note": 61,
      "start": 37.3294,
      "duration": 0.3742,
      "velocity": 119,
      "chip": "ym2612"
    },
    {
      "channel": 0,
      "note": 61,
      "start": 37.7375,
      "duration": 0.0155,
      "velocity": 122,
      "chip": "ym2612"
    },
    {
      "channel": 1,
      "note": 49,
      "start": 37.7392,
      "duration": 0.1656,
      "velocity": 103,
      "chip": "ym2612"
    },
    {
      "channel": 3,
      "note": 64,
      "start": 37.7445,
      "duration": 0.0094,
      "velocity": 127,
      "chip": "ym2612"
    },
    {
      "channel": 5,
      "note": 61,
      "start": 37.7463,
      "duration": 0.008,
      "velocity": 119,
      "chip": "ym2612"
    },
    {
      "channel": 0,
      "note": 60,
      "start": 37.9398,
      "duration": 0.3694,
      "velocity": 122,
      "chip": "ym2612"
    },
    {
      "channel": 1,
      "note": 48,
      "start": 37.9414,
      "duration": 0.3679,
      "velocity": 103,
      "chip": "ym2612"
    },
    {
      "channel": 5,
      "note": 60,
      "start": 37.9438,
      "duration": 0.3666,
      "velocity": 119,
      "chip": "ym2612"
    },
    {
      "channel": 3,
      "note": 64,
      "start": 38.1461,
      "duration": 0.0122,
      "velocity": 127,
      "chip": "ym2612"
    },
    {
      "channel": 0,
      "note": 60,
      "start": 38.3443,
      "duration": 0.0154,
      "velocity": 122,
      "chip": "ym2612"
    },
    {
      "channel": 1,
      "note": 48,
      "start": 38.3459,
      "duration": 0.1656,
      "velocity": 103,
      "chip": "ym2612"
    },
    {
      "channel": 5,
      "note": 60,
      "start": 38.3483,
      "duration": 0.0124,
      "velocity": 119,
      "chip": "ym2612"
    },
    {
      "channel": 0,
      "note": 60,
      "start": 38.5471,
      "duration": 0.0148,
      "velocity": 122,
      "chip": "ym2612"
    },
    {
      "channel": 1,
      "note": 48,
      "start": 38.5488,
      "duration": 0.1649,
      "velocity": 103,
      "chip": "ym2612"
    },
    {
      "channel": 3,
      "note": 64,
      "start": 38.5541,
      "duration": 0.0088,
      "velocity": 127,
      "chip": "ym2612"
    },
    {
      "channel": 5,
      "note": 60,
      "start": 38.5559,
      "duration": 0.0073,
      "velocity": 119,
      "chip": "ym2612"
    },
    {
      "channel": 0,
      "note": 60,
      "start": 38.7487,
      "duration": 0.0155,
      "velocity": 122,
      "chip": "ym2612"
    },
    {
      "channel": 1,
      "note": 48,
      "start": 38.7503,
      "duration": 0.1656,
      "velocity": 103,
      "chip": "ym2612"
    },
    {
      "channel": 5,
      "note": 60,
      "start": 38.7527,
      "duration": 0.0125,
      "velocity": 119,
      "chip": "ym2612"
    },
    {
      "channel": 0,
      "note": 61,
      "start": 38.9516,
      "duration": 0.3856,
      "velocity": 122,
      "chip": "ym2612"
    },
    {
      "channel": 1,
      "note": 49,
      "start": 38.9536,
      "duration": 0.1814,
      "velocity": 103,
      "chip": "ym2612"
    },
    {
      "channel": 3,
      "note": 64,
      "start": 38.9608,
      "duration": 0.0234,
      "velocity": 127,
      "chip": "ym2612"
    },
    {
      "channel": 5,
      "note": 61,
      "start": 38.9645,
      "duration": 0.3739,
      "velocity": 119,
      "chip": "ym2612"
    },
    {
      "channel": 1,
      "note": 49,
      "start": 39.1704,
      "duration": 0.1671,
      "velocity": 103,
      "chip": "ym2612"
    },
    {
      "channel": 0,
      "note": 61,
      "start": 39.3723,
      "duration": 0.0155,
      "velocity": 122,
      "chip": "ym2612"
    },
    {
      "channel": 1,
      "note": 49,
      "start": 39.3741,
      "duration": 0.1655,
      "velocity": 103,
      "chip": "ym2612"
    },
    {
      "channel": 3,
      "note": 64,
      "start": 39.3794,
      "duration": 0.0094,
      "velocity": 127,
      "chip": "ym2612"
    },
    {
      "channel": 5,
      "note": 61,
      "start": 39.3812,
      "duration": 0.0078,
      "velocity": 119,
      "chip": "ym2612"
    },
    {
      "channel": 0,
      "note": 61,
      "start": 39.5746,
      "duration": 0.0155,
      "velocity": 122,
      "chip": "ym2612"
    },
    {
      "channel": 1,
      "note": 49,
      "start": 39.5763,
      "duration": 0.1655,
      "velocity": 103,
      "chip": "ym2612"
    },
    {
      "channel": 5,
      "note": 61,
      "start": 39.5786,
      "duration": 0.0124,
      "velocity": 119,
      "chip": "ym2612"
    },
    {
      "channel": 0,
      "note": 61,
      "start": 39.7768,
      "duration": 0.0155,
      "velocity": 122,
      "chip": "ym2612"
    },
    {
      "channel": 1,
      "note": 49,
      "start": 39.7785,
      "duration": 0.1655,
      "velocity": 103,
      "chip": "ym2612"
    },
    {
      "channel": 3,
      "note": 64,
      "start": 39.784,
      "duration": 0.0092,
      "velocity": 127,
      "chip": "ym2612"
    },
    {
      "channel": 5,
      "note": 61,
      "start": 39.7858,
      "duration": 0.0078,
      "velocity": 119,
      "chip": "ym2612"
    },
    {
      "channel": 0,
      "note": 63,
      "start": 39.979,
      "duration": 0.3694,
      "velocity": 122,
      "chip": "ym2612"
    },
    {
      "channel": 1,
      "note": 49,
      "start": 39.9808,
      "duration": 0.1655,
      "velocity": 103,
      "chip": "ym2612"
    },
    {
      "channel": 5,
      "note": 63,
      "start": 39.9832,
      "duration": 0.3663,
      "velocity": 119,
      "chip": "ym2612"
    },
    {
      "channel": 1,
      "note": 49,
      "start": 40.1816,
      "duration": 0.1671,
      "velocity": 103,
      "chip": "ym2612"
    },
    {
      "channel": 3,
      "note": 64,
      "start": 40.1869,
      "duration": 0.0107,
      "velocity": 127,
      "chip": "ym2612"
    },
    {
      "channel": 0,
      "note": 65,
      "start": 40.3835,
      "duration": 0.3694,
      "velocity": 122,
      "chip": "ym2612"
    },
    {
      "channel": 1,
      "note": 49,
      "start": 40.3852,
      "duration": 0.1656,
      "velocity": 103,
      "chip": "ym2612"
    },
    {
      "channel": 5,
      "note": 65,
      "start": 40.3877,
      "duration": 0.3664,
      "velocity": 119,
      "chip": "ym2612"
    },
    {
      "channel": 1,
      "note": 49,
      "start": 40.586,
      "duration": 0.1671,
      "velocity": 103,
      "chip": "ym2612"
    },
    {
      "channel": 3,
      "note": 64,
      "start": 40.5932,
      "duration": 0.0089,
      "velocity": 127,
      "chip": "ym2612"
    },
    {
      "channel": 0,
      "note": 61,
      "start": 40.788,
      "duration": 0.0155,
      "velocity": 122,
      "chip": "ym2612"
    },
    {
      "channel": 1,
      "note": 49,
      "start": 40.7898,
      "duration": 0.1654,
      "velocity": 103,
      "chip": "ym2612"
    },
    {
      "channel": 5,
      "note": 61,
      "start": 40.7922,
      "duration": 0.0123,
      "velocity": 119,
      "chip": "ym2612"
    },
    {
      "channel": 0,
      "note": 61,
      "start": 40.9902,
      "duration": 0.0155,
      "velocity": 122,
      "chip": "ym2612"
    },
    {
      "channel": 1,
      "note": 49,
      "start": 40.992,
      "duration": 0.1654,
      "velocity": 103,
      "chip": "ym2612"
    },
    {
      "channel": 3,
      "note": 64,
      "start": 40.9973,
      "duration": 0.0093,
      "velocity": 127,
      "chip": "ym2612"
    },
    {
      "channel": 5,
      "note": 61,
      "start": 40.999,
      "duration": 0.0079,
      "velocity": 119,
      "chip": "ym2612"
    },
    {
      "channel": 0,
      "note": 61,
      "start": 41.1933,
      "duration": 0.0147,
      "velocity": 122,
      "chip": "ym2612"
    },
    {
      "channel": 1,
      "note": 49,
      "start": 41.195,
      "duration": 0.1647,
      "velocity": 103,
      "chip": "ym2612"
    },
    {
      "channel": 5,
      "note": 61,
      "start": 41.1974,
      "duration": 0.0116,
      "velocity": 119,
      "chip": "ym2612"
    },
    {
      "channel": 0,
      "note": 61,
      "start": 41.3947,
      "duration": 0.0155,
      "velocity": 122,
      "chip": "ym2612"
    },
    {
      "channel": 1,
      "note": 49,
      "start": 41.3964,
      "duration": 0.1655,
      "velocity": 103,
      "chip": "ym2612"
    },
    {
      "channel": 3,
      "note": 64,
      "start": 41.402,
      "duration": 0.0092,
      "velocity": 127,
      "chip": "ym2612"
    },
    {
      "channel": 5,
      "note": 61,
      "start": 41.4037,
      "duration": 0.0078,
      "velocity": 119,
      "chip": "ym2612"
    },
    {
      "channel": 0,
      "note": 65,
      "start": 41.5976,
      "duration": 0.3687,
      "velocity": 122,
      "chip": "ym2612"
    },
    {
      "channel": 1,
      "note": 49,
      "start": 41.5994,
      "duration": 0.1648,
      "velocity": 103,
      "chip": "ym2612"
    },
    {
      "channel": 5,
      "note": 65,
      "start": 41.6018,
      "duration": 0.3658,
      "velocity": 119,
      "chip": "ym2612"
    },
    {
      "channel": 1,
      "note": 49,
      "start": 41.7995,
      "duration": 0.1671,
      "velocity": 103,
      "chip": "ym2612"
    },
    {
      "channel": 3,
      "note": 64,
      "start": 41.8048,
      "duration": 0.0107,
      "velocity": 127,
      "chip": "ym2612"
    },
    {
      "channel": 0,
      "note": 66,
      "start": 42.0015,
      "duration": 0.3694,
      "velocity": 122,
      "chip": "ym2612"
    },
    {
      "channel": 1,
      "note": 49,
      "start": 42.0032,
      "duration": 0.1655,
      "velocity": 103,
      "chip": "ym2612"
    },
    {
      "channel": 5,
      "note": 66,
      "start": 42.0056,
      "duration": 0.3664,
      "velocity": 119,
      "chip": "ym2612"
    },
    {
      "channel": 1,
      "note": 49,
      "start": 42.2039,
      "duration": 0.1671,
      "velocity": 103,
      "chip": "ym2612"
    },
    {
      "channel": 3,
      "note": 64,
      "start": 42.2111,
      "duration": 0.0089,
      "velocity": 127,
      "chip": "ym2612"
    },
    {
      "channel": 0,
      "note": 61,
      "start": 42.406,
      "duration": 0.0154,
      "velocity": 122,
      "chip": "ym2612"
    },
    {
      "channel": 1,
      "note": 49,
      "start": 42.4077,
      "duration": 0.166,
      "velocity": 103,
      "chip": "ym2612"
    },
    {
      "channel": 5,
      "note": 61,
      "start": 42.4101,
      "duration": 0.0124,
      "velocity": 119,
      "chip": "ym2612"
    },
    {
      "channel": 0,
      "note": 61,
      "start": 42.6081,
      "duration": 0.0155,
      "velocity": 122,
      "chip": "ym2612"
    },
    {
      "channel": 1,
      "note": 49,
      "start": 42.6099,
      "duration": 0.1655,
      "velocity": 103,
      "chip": "ym2612"
    },
    {
      "channel": 3,
      "note": 64,
      "start": 42.6153,
      "duration": 0.0093,
      "velocity": 127,
      "chip": "ym2612"
    },
    {
      "channel": 5,
      "note": 61,
      "start": 42.617,
      "duration": 0.0079,
      "velocity": 119,
      "chip": "ym2612"
    },
    {
      "channel": 0,
      "note": 61,
      "start": 42.8104,
      "duration": 0.0155,
      "velocity": 122,
      "chip": "ym2612"
    },
    {
      "channel": 1,
      "note": 49,
      "start": 42.8122,
      "duration": 0.1656,
      "velocity": 103,
      "chip": "ym2612"
    },
    {
      "channel": 5,
      "note": 61,
      "start": 42.8145,
      "duration": 0.0124,
      "velocity": 119,
      "chip": "ym2612"
    },
    {
      "channel": 0,
      "note": 61,
      "start": 43.0127,
      "duration": 0.0154,
      "velocity": 122,
      "chip": "ym2612"
    },
    {
      "channel": 1,
      "note": 49,
      "start": 43.0144,
      "duration": 0.1655,
      "velocity": 103,
      "chip": "ym2612"
    },
    {
      "channel": 3,
      "note": 64,
      "start": 43.02,
      "duration": 0.0091,
      "velocity": 127,
      "chip": "ym2612"
    },
    {
      "channel": 5,
      "note": 61,
      "start": 43.0216,
      "duration": 0.0078,
      "velocity": 119,
      "chip": "ym2612"
    },
    {
      "channel": 0,
      "note": 61,
      "start": 43.2149,
      "duration": 0.0154,
      "velocity": 122,
      "chip": "ym2612"
    },
    {
      "channel": 1,
      "note": 49,
      "start": 43.2167,
      "duration": 0.1655,
      "velocity": 103,
      "chip": "ym2612"
    },
    {
      "channel": 5,
      "note": 61,
      "start": 43.219,
      "duration": 0.0124,
      "velocity": 119,
      "chip": "ym2612"
    },
    {
      "channel": 0,
      "note": 61,
      "start": 43.4171,
      "duration": 0.0155,
      "velocity": 122,
      "chip": "ym2612"
    },
    {
      "channel": 1,
      "note": 49,
      "start": 43.4189,
      "duration": 0.1655,
      "velocity": 103,
      "chip": "ym2612"
    },
    {
      "channel": 3,
      "note": 64,
      "start": 43.4242,
      "duration": 0.0093,
      "velocity": 127,
      "chip": "ym2612"
    },
    {
      "channel": 5,
      "note": 61,
      "start": 43.426,
      "duration": 0.0079,
      "velocity": 119,
      "chip": "ym2612"
    },
    {
      "channel": 0,
      "note": 61,
      "start": 43.6194,
      "duration": 0.0155,
      "velocity": 122,
      "chip": "ym2612"
    },
    {
      "channel": 1,
      "note": 49,
      "start": 43.6212,
      "duration": 0.1655,
      "velocity": 103,
      "chip": "ym2612"
    },
    {
      "channel": 5,
      "note": 61,
      "start": 43.6235,
      "duration": 0.0123,
      "velocity": 119,
      "chip": "ym2612"
    },
    {
      "channel": 0,
      "note": 61,
      "start": 43.8219,
      "duration": 0.3859,
      "velocity": 122,
      "chip": "ym2612"
    },
    {
      "channel": 1,
      "note": 49,
      "start": 43.8239,
      "duration": 0.3842,
      "velocity": 103,
      "chip": "ym2612"
    },
    {
      "channel": 3,
      "note": 64,
      "start": 43.8311,
      "duration": 0.0237,
      "velocity": 127,
      "chip": "ym2612"
    },
    {
      "channel": 5,
      "note": 61,
      "start": 43.8348,
      "duration": 0.3742,
      "velocity": 119,
      "chip": "ym2612"
    },
    {
      "channel": 0,
      "note": 61,
      "start": 44.2435,
      "duration": 0.0149,
      "velocity": 122,
      "chip": "ym2612"
    },
    {
      "channel": 1,
      "note": 49,
      "start": 44.2452,
      "duration": 0.165,
      "velocity": 103,
      "chip": "ym2612"
    },
    {
      "channel": 3,
      "note": 64,
      "start": 44.2505,
      "duration": 0.0089,
      "velocity": 127,
      "chip": "ym2612"
    },
    {
      "channel": 5,
      "note": 61,
      "start": 44.2522,
      "duration": 0.0075,
      "velocity": 119,
      "chip": "ym2612"
    },
    {
      "channel": 0,
      "note": 60,
      "start": 44.4452,
      "duration": 0.3693,
      "velocity": 122,
      "chip": "ym2612"
    },
    {
      "channel": 1,
      "note": 48,
      "start": 44.4468,
      "duration": 0.3679,
      "velocity": 103,
      "chip": "ym2612"
    },
    {
      "channel": 5,
      "note": 60,
      "start": 44.4493,
      "duration": 0.3665,
      "velocity": 119,
      "chip": "ym2612"
    },
    {
      "channel": 3,
      "note": 64,
      "start": 44.652,
      "duration": 0.0118,
      "velocity": 127,
      "chip": "ym2612"
    },
    {
      "channel": 0,
      "note": 60,
      "start": 44.8497,
      "duration": 0.0155,
      "velocity": 122,
      "chip": "ym2612"
    },
    {
      "channel": 1,
      "note": 48,
      "start": 44.8513,
      "duration": 0.1656,
      "velocity": 103,
      "chip": "ym2612"
    },
    {
      "channel": 3,
      "note": 64,
      "start": 44.8567,
      "duration": 0.0094,
      "velocity": 127,
      "chip": "ym2612"
    },
    {
      "channel": 5,
      "note": 60,
      "start": 44.8585,
      "duration": 0.008,
      "velocity": 119,
      "chip": "ym2612"
    },
    {
      "channel": 0,
      "note": 60,
      "start": 45.0519,
      "duration": 0.0155,
      "velocity": 122,
      "chip": "ym2612"
    },
    {
      "channel": 1,
      "note": 48,
      "start": 45.0536,
      "duration": 0.1663,
      "velocity": 103,
      "chip": "ym2612"
    },
    {
      "channel": 3,
      "note": 64,
      "start": 45.0557,
      "duration": 0.0127,
      "velocity": 127,
      "chip": "ym2612"
    },
    {
      "channel": 5,
      "note": 60,
      "start": 45.0574,
      "duration": 0.0113,
      "velocity": 119,
      "chip": "ym2612"
    },
    {
      "channel": 0,
      "note": 60,
      "start": 45.2542,
      "duration": 0.0154,
      "velocity": 122,
      "chip": "ym2612"
    },
    {
      "channel": 1,
      "note": 48,
      "start": 45.2558,
      "duration": 0.1656,
      "velocity": 103,
      "chip": "ym2612"
    },
    {
      "channel": 3,
      "note": 64,
      "start": 45.258,
      "duration": 0.0127,
      "velocity": 127,
      "chip": "ym2612"
    },
    {
      "channel": 5,
      "note": 60,
      "start": 45.2596,
      "duration": 0.0112,
      "velocity": 119,
      "chip": "ym2612"
    },
    {
      "channel": 0,
      "note": 70,
      "start": 45.4567,
      "duration": 1.5994,
      "velocity": 122,
      "chip": "ym2612"
    },
    {
      "channel": 1,
      "note": 58,
      "start": 45.4587,
      "duration": 0.1818,
      "velocity": 103,
      "chip": "ym2612"
    },
    {
      "channel": 2,
      "note": 65,
      "start": 45.4642,
      "duration": 1.5923,
      "velocity": 122,
      "chip": "ym2612"
    },
    {
      "channel": 3,
      "note": 64,
      "start": 45.4698,
      "duration": 0.0198,
      "velocity": 127,
      "chip": "ym2612"
    },
    {
      "channel": 4,
      "note": 65,
      "start": 45.475,
      "duration": 1.5822,
      "velocity": 119,
      "chip": "ym2612"
    },
    {
      "channel": 5,
      "note": 70,
      "start": 45.4772,
      "duration": 1.5803,
      "velocity": 119,
      "chip": "ym2612"
    },
    {
      "channel": 1,
      "note": 58,
      "start": 45.6758,
      "duration": 0.167,
      "velocity": 103,
      "chip": "ym2612"
    },
    {
      "channel": 1,
      "note": 58,
      "start": 45.878,
      "duration": 0.167,
      "velocity": 103,
      "chip": "ym2612"
    },
    {
      "channel": 3,
      "note": 64,
      "start": 45.8833,
      "duration": 0.0107,
      "velocity": 127,
      "chip": "ym2612"
    },
    {
      "channel": 1,
      "note": 58,
      "start": 46.0802,
      "duration": 0.167,
      "velocity": 103,
      "chip": "ym2612"
    },
    {
      "channel": 1,
      "note": 58,
      "start": 46.2825,
      "duration": 0.167,
      "velocity": 103,
      "chip": "ym2612"
    },
    {
      "channel": 3,
      "note": 64,
      "start": 46.2879,
      "duration": 0.0106,
      "velocity": 127,
      "chip": "ym2612"
    },
    {
      "channel": 1,
      "note": 58,
      "start": 46.4847,
      "duration": 0.167,
      "velocity": 103,
      "chip": "ym2612"
    },
    {
      "channel": 3,
      "note": 64,
      "start": 46.4869,
      "duration": 0.0139,
      "velocity": 127,
      "chip": "ym2612"
    },
    {
      "channel": 1,
      "note": 58,
      "start": 46.687,
      "duration": 0.167,
      "velocity": 103,
      "chip": "ym2612"
    },
    {
      "channel": 3,
      "note": 64,
      "start": 46.6925,
      "duration": 0.0106,
      "velocity": 127,
      "chip": "ym2612"
    },
    {
      "channel": 1,
      "note": 58,
      "start": 46.8899,
      "duration": 0.1664,
      "velocity": 103,
      "chip": "ym2612"
    },
    {
      "channel": 0,
      "note": 70,
      "start": 47.0912,
      "duration": 0.0159,
      "velocity": 122,
      "chip": "ym2612"
    },
    {
      "channel": 1,
      "note": 58,
      "start": 47.093,
      "duration": 0.1654,
      "velocity": 103,
      "chip": "ym2612"
    },
    {
      "channel": 2,
      "note": 58,
      "start": 47.0946,
      "duration": 0.0127,
      "velocity": 122,
      "chip": "ym2612"
    },
    {
      "channel": 3,
      "note": 64,
      "start": 47.0999,
      "duration": 0.0082,
      "velocity": 127,
      "chip": "ym2612"
    },
    {
      "channel": 4,
      "note": 58,
      "start": 47.1015,
      "duration": 0.0067,
      "velocity": 119,
      "chip": "ym2612"
    },
    {
      "channel": 5,
      "note": 70,
      "start": 47.1032,
      "duration": 0.0053,
      "velocity": 119,
      "chip": "ym2612"
    },
    {
      "channel": 0,
      "note": 70,
      "start": 47.2938,
      "duration": 0.1668,
      "velocity": 122,
      "chip": "ym2612"
    },
    {
      "channel": 1,
      "note": 58,
      "start": 47.2956,
      "duration": 0.1652,
      "velocity": 103,
      "chip": "ym2612"
    },
    {
      "channel": 2,
      "note": 58,
      "start": 47.2971,
      "duration": 0.1639,
      "velocity": 122,
      "chip": "ym2612"
    },
    {
      "channel": 4,
      "note": 58,
      "start": 47.2994,
      "duration": 0.1623,
      "velocity": 119,
      "chip": "ym2612"
    },
    {
      "channel": 5,
      "note": 70,
      "start": 47.301,
      "duration": 0.1609,
      "velocity": 119,
      "chip": "ym2612"
    },
    {
      "channel": 0,
      "note": 73,
      "start": 47.4957,
      "duration": 0.1671,
      "velocity": 122,
      "chip": "ym2612"
    },
    {
      "channel": 1,
      "note": 58,
      "start": 47.4974,
      "duration": 0.1656,
      "velocity": 103,
      "chip": "ym2612"
    },
    {
      "channel": 2,
      "note": 61,
      "start": 47.499,
      "duration": 0.1642,
      "velocity": 122,
      "chip": "ym2612"
    },
    {
      "channel": 3,
      "note": 64,
      "start": 47.5045,
      "duration": 0.0088,
      "velocity": 127,
      "chip": "ym2612"
    },
    {
      "channel": 4,
      "note": 61,
      "start": 47.5061,
      "duration": 0.1579,
      "velocity": 119,
      "chip": "ym2612"
    },
    {
      "channel": 5,
      "note": 73,
      "start": 47.5076,
      "duration": 0.1565,
      "velocity": 119,
      "chip": "ym2612"
    },
    {
      "channel": 0,
      "note": 70,
      "start": 47.6979,
      "duration": 0.1679,
      "velocity": 122,
      "chip": "ym2612"
    },
    {
      "channel": 1,
      "note": 58,
      "start": 47.6997,
      "duration": 0.1663,
      "velocity": 103,
      "chip": "ym2612"
    },
    {
      "channel": 2,
      "note": 58,
      "start": 47.7013,
      "duration": 0.165,
      "velocity": 122,
      "chip": "ym2612"
    },
    {
      "channel": 4,
      "note": 58,
      "start": 47.7035,
      "duration": 0.1635,
      "velocity": 119,
      "chip": "ym2612"
    },
    {
      "channel": 5,
      "note": 70,
      "start": 47.7051,
      "duration": 0.1621,
      "velocity": 119,
      "chip": "ym2612"
    },
    {
      "channel": 0,
      "note": 77,
      "start": 47.9001,
      "duration": 0.1672,
      "velocity": 122,
      "chip": "ym2612"
    },
    {
      "channel": 1,
      "note": 58,
      "start": 47.9019,
      "duration": 0.1656,
      "velocity": 103,
      "chip": "ym2612"
    },
    {
      "channel": 2,
      "note": 65,
      "start": 47.9036,
      "duration": 0.1641,
      "velocity": 122,
      "chip": "ym2612"
    },
    {
      "channel": 3,
      "note": 64,
      "start": 47.9088,
      "duration": 0.0081,
      "velocity": 127,
      "chip": "ym2612"
    },
    {
      "channel": 4,
      "note": 65,
      "start": 47.9104,
      "duration": 0.158,
      "velocity": 119,
      "chip": "ym2612"
    },
    {
      "channel": 5,
      "note": 77,
      "start": 47.912,
      "duration": 0.1566,
      "velocity": 119,
      "chip": "ym2612"
    },
    {
      "channel": 0,
      "note": 75,
      "start": 48.1024,
      "duration": 0.1676,
      "velocity": 122,
      "chip": "ym2612"
    },
    {
      "channel": 1,
      "note": 58,
      "start": 48.1042,
      "duration": 0.166,
      "velocity": 103,
      "chip": "ym2612"
    },
    {
      "channel": 2,
      "note": 63,
      "start": 48.1058,
      "duration": 0.1646,
      "velocity": 122,
      "chip": "ym2612"
    },
    {
      "channel": 4,
      "note": 63,
      "start": 48.1079,
      "duration": 0.1632,
      "velocity": 119,
      "chip": "ym2612"
    },
    {
      "channel": 5,
      "note": 75,
      "start": 48.1095,
      "duration": 0.1618,
      "velocity": 119,
      "chip": "ym2612"
    },
    {
      "channel": 0,
      "note": 73,
      "start": 48.3046,
      "duration": 0.1672,
      "velocity": 122,
      "chip": "ym2612"
    },
    {
      "channel": 1,
      "note": 58,
      "start": 48.3064,
      "duration": 0.1656,
      "velocity": 103,
      "chip": "ym2612"
    },
    {
      "channel": 2,
      "note": 61,
      "start": 48.308,
      "duration": 0.1642,
      "velocity": 122,
      "chip": "ym2612"
    },
    {
      "channel": 3,
      "note": 64,
      "start": 48.3134,
      "duration": 0.0076,
      "velocity": 127,
      "chip": "ym2612"
    },
    {
      "channel": 4,
      "note": 61,
      "start": 48.315,
      "duration": 0.158,
      "velocity": 119,
      "chip": "ym2612"
    },
    {
      "channel": 5,
      "note": 73,
      "start": 48.3166,
      "duration": 0.1566,
      "velocity": 119,
      "chip": "ym2612"
    },
    {
      "channel": 0,
      "note": 77,
      "start": 48.5069,
      "duration": 0.1672,
      "velocity": 122,
      "chip": "ym2612"
    },
    {
      "channel": 1,
      "note": 58,
      "start": 48.5086,
      "duration": 0.1656,
      "velocity": 103,
      "chip": "ym2612"
    },
    {
      "channel": 2,
      "note": 65,
      "start": 48.5102,
      "duration": 0.1642,
      "velocity": 122,
      "chip": "ym2612"
    },
    {
      "channel": 3,
      "note": 64,
      "start": 48.5155,
      "duration": 0.0078,
      "velocity": 127,
      "chip": "ym2612"
    },
    {
      "channel": 4,
      "note": 65,
      "start": 48.5171,
      "duration": 0.1581,
      "velocity": 119,
      "chip": "ym2612"
    },
    {
      "channel": 5,
      "note": 77,
      "start": 48.5187,
      "duration": 0.1567,
      "velocity": 119,
      "chip": "ym2612"
    },
    {
      "channel": 0,
      "note": 68,
      "start": 48.7094,
      "duration": 3.2173,
      "velocity": 122,
      "chip": "ym2612"
    },
    {
      "channel": 1,
      "note": 56,
      "start": 48.7116,
      "duration": 0.1816,
      "velocity": 103,
      "chip": "ym2612"
    },
    {
      "channel": 2,
      "note": 63,
      "start": 48.7135,
      "duration": 1.5956,
      "velocity": 122,
      "chip": "ym2612"
    },
    {
      "channel": 3,
      "note": 64,
      "start": 48.7191,
      "duration": 0.0232,
      "velocity": 127,
      "chip": "ym2612"
    },
    {
      "channel": 4,
      "note": 63,
      "start": 48.7211,
      "duration": 1.5888,
      "velocity": 119,
      "chip": "ym2612"
    },
    {
      "channel": 5,
      "note": 68,
      "start": 48.723,
      "duration": 3.2051,
      "velocity": 119,
      "chip": "ym2612"
    },
    {
      "channel": 1,
      "note": 56,
      "start": 48.9284,
      "duration": 0.1671,
      "velocity": 103,
      "chip": "ym2612"
    },
    {
      "channel": 1,
      "note": 56,
      "start": 49.1307,
      "duration": 0.167,
      "velocity": 103,
      "chip": "ym2612"
    },
    {
      "channel": 3,
      "note": 64,
      "start": 49.1361,
      "duration": 0.0107,
      "velocity": 127,
      "chip": "ym2612"
    },
    {
      "channel": 1,
      "note": 56,
      "start": 49.3329,
      "duration": 0.167,
      "velocity": 103,
      "chip": "ym2612"
    },
    {
      "channel": 1,
      "note": 56,
      "start": 49.536,
      "duration": 0.1662,
      "velocity": 103,
      "chip": "ym2612"
    },
    {
      "channel": 3,
      "note": 64,
      "start": 49.5414,
      "duration": 0.01,
      "velocity": 127,
      "chip": "ym2612"
    },
    {
      "channel": 1,
      "note": 56,
      "start": 49.7375,
      "duration": 0.1669,
      "velocity": 103,
      "chip": "ym2612"
    },
    {
      "channel": 1,
      "note": 56,
      "start": 49.9401,
      "duration": 0.1666,
      "velocity": 103,
      "chip": "ym2612"
    },
    {
      "channel": 3,
      "note": 64,
      "start": 49.9454,
      "duration": 0.0103,
      "velocity": 127,
      "chip": "ym2612"
    },
    {
      "channel": 1,
      "note": 56,
      "start": 50.1419,
      "duration": 0.167,
      "velocity": 103,
      "chip": "ym2612"
    },
    {
      "channel": 3,
      "note": 64,
      "start": 50.1473,
      "duration": 0.0107,
      "velocity": 127,
      "chip": "ym2612"
    },
    {
      "channel": 1,
      "note": 56,
      "start": 50.3456,
      "duration": 0.1655,
      "velocity": 103,
      "chip": "ym2612"
    },
    {
      "channel": 2,
      "note": 63,
      "start": 50.3472,
      "duration": 1.58,
      "velocity": 122,
      "chip": "ym2612"
    },
    {
      "channel": 4,
      "note": 63,
      "start": 50.3494,
      "duration": 1.5785,
      "velocity": 119,
      "chip": "ym2612"
    },
    {
      "channel": 1,
      "note": 56,
      "start": 50.5464,
      "duration": 0.167,
      "velocity": 103,
      "chip": "ym2612"
    },
    {
      "channel": 3,
      "note": 64,
      "start": 50.5486,
      "duration": 0.0139,
      "velocity": 127,
      "chip": "ym2612"
    },
    {
      "channel": 1,
      "note": 56,
      "start": 50.7487,
      "duration": 0.1675,
      "velocity": 103,
      "chip": "ym2612"
    },
    {
      "channel": 3,
      "note": 64,
      "start": 50.754,
      "duration": 0.0107,
      "velocity": 127,
      "chip": "ym2612"
    },
    {
      "channel": 1,
      "note": 56,
      "start": 50.9509,
      "duration": 0.167,
      "velocity": 103,
      "chip": "ym2612"
    },
    {
      "channel": 1,
      "note": 56,
      "start": 51.1532,
      "duration": 0.1671,
      "velocity": 103,
      "chip": "ym2612"
    },
    {
      "channel": 3,
      "note": 64,
      "start": 51.1585,
      "duration": 0.0107,
      "velocity": 127,
      "chip": "ym2612"
    },
    {
      "channel": 1,
      "note": 56,
      "start": 51.3554,
      "duration": 0.167,
      "velocity": 103,
      "chip": "ym2612"
    },
    {
      "channel": 1,
      "note": 56,
      "start": 51.5576,
      "duration": 0.1671,
      "velocity": 103,
      "chip": "ym2612"
    },
    {
      "channel": 3,
      "note": 64,
      "start": 51.5629,
      "duration": 0.0107,
      "velocity": 127,
      "chip": "ym2612"
    },
    {
      "channel": 1,
      "note": 56,
      "start": 51.7599,
      "duration": 0.1671,
      "velocity": 103,
      "chip": "ym2612"
    },
    {
      "channel": 0,
      "note": 70,
      "start": 51.9622,
      "duration": 1.6005,
      "velocity": 122,
      "chip": "ym2612"
    },
    {
      "channel": 1,
      "note": 58,
      "start": 51.9643,
      "duration": 0.1816,
      "velocity": 103,
      "chip": "ym2612"
    },
    {
      "channel": 2,
      "note": 65,
      "start": 51.9662,
      "duration": 1.5968,
      "velocity": 122,
      "chip": "ym2612"
    },
    {
      "channel": 3,
      "note": 64,
      "start": 51.9718,
      "duration": 0.0232,
      "velocity": 127,
      "chip": "ym2612"
    },
    {
      "channel": 4,
      "note": 65,
      "start": 51.9737,
      "duration": 1.59,
      "velocity": 119,
      "chip": "ym2612"
    },
    {
      "channel": 5,
      "note": 70,
      "start": 51.9756,
      "duration": 1.5883,
      "velocity": 119,
      "chip": "ym2612"
    },
    {
      "channel": 1,
      "note": 58,
      "start": 52.1812,
      "duration": 0.167,
      "velocity": 103,
      "chip": "ym2612"
    },
    {
      "channel": 1,
      "note": 58,
      "start": 52.3834,
      "duration": 0.1671,
      "velocity": 103,
      "chip": "ym2612"
    },
    {
      "channel": 3,
      "note": 64,
      "start": 52.3888,
      "duration": 0.0107,
      "velocity": 127,
      "chip": "ym2612"
    },
    {
      "channel": 1,
      "note": 58,
      "start": 52.5863,
      "duration": 0.1663,
      "velocity": 103,
      "chip": "ym2612"
    },
    {
      "channel": 1,
      "note": 58,
      "start": 52.7879,
      "duration": 0.167,
      "velocity": 103,
      "chip": "ym2612"
    },
    {
      "channel": 3,
      "note": 64,
      "start": 52.7933,
      "duration": 0.0107,
      "velocity": 127,
      "chip": "ym2612"
    },
    {
      "channel": 1,
      "note": 58,
      "start": 52.9903,
      "duration": 0.1668,
      "velocity": 103,
      "chip": "ym2612"
    },
    {
      "channel": 3,
      "note": 64,
      "start": 52.9925,
      "duration": 0.0137,
      "velocity": 127,
      "chip": "ym2612"
    },
    {
      "channel": 1,
      "note": 58,
      "start": 53.1924,
      "duration": 0.1669,
      "velocity": 103,
      "chip": "ym2612"
    },
    {
      "channel": 3,
      "note": 64,
      "start": 53.1979,
      "duration": 0.0105,
      "velocity": 127,
      "chip": "ym2612"
    },
    {
      "channel": 1,
      "note": 58,
      "start": 53.3947,
      "duration": 0.1681,
      "velocity": 103,
      "chip": "ym2612"
    },
    {
      "channel": 0,
      "note": 70,
      "start": 53.5966,
      "duration": 0.0158,
      "velocity": 122,
      "chip": "ym2612"
    },
    {
      "channel": 1,
      "note": 58,
      "start": 53.5984,
      "duration": 0.1655,
      "velocity": 103,
      "chip": "ym2612"
    },
    {
      "channel": 2,
      "note": 58,
      "start": 53.6001,
      "duration": 0.0126,
      "velocity": 122,
      "chip": "ym2612"
    },
    {
      "channel": 3,
      "note": 64,
      "start": 53.6054,
      "duration": 0.0081,
      "velocity": 127,
      "chip": "ym2612"
    },
    {
      "channel": 4,
      "note": 58,
      "start": 53.607,
      "duration": 0.0066,
      "velocity": 119,
      "chip": "ym2612"
    },
    {
      "channel": 5,
      "note": 70,
      "start": 53.6087,
      "duration": 0.0051,
      "velocity": 119,
      "chip": "ym2612"
    },
    {
      "channel": 0,
      "note": 70,
      "start": 53.7989,
      "duration": 0.1676,
      "velocity": 122,
      "chip": "ym2612"
    },
    {
      "channel": 1,
      "note": 58,
      "start": 53.8006,
      "duration": 0.166,
      "velocity": 103,
      "chip": "ym2612"
    },
    {
      "channel": 2,
      "note": 58,
      "start": 53.8023,
      "duration": 0.1646,
      "velocity": 122,
      "chip": "ym2612"
    },
    {
      "channel": 4,
      "note": 58,
      "start": 53.8045,
      "duration": 0.1631,
      "velocity": 119,
      "chip": "ym2612"
    },
    {
      "channel": 5,
      "note": 70,
      "start": 53.8062,
      "duration": 0.1617,
      "velocity": 119,
      "chip": "ym2612"
    },
    {
      "channel": 0,
      "note": 73,
      "start": 54.0011,
      "duration": 0.184,
      "velocity": 122,
      "chip": "ym2612"
    },
    {
      "channel": 1,
      "note": 58,
      "start": 54.0029,
      "duration": 0.1824,
      "velocity": 103,
      "chip": "ym2612"
    },
    {
      "channel": 2,
      "note": 61,
      "start": 54.0045,
      "duration": 0.181,
      "velocity": 122,
      "chip": "ym2612"
    },
    {
      "channel": 3,
      "note": 64,
      "start": 54.0099,
      "duration": 0.0244,
      "velocity": 127,
      "chip": "ym2612"
    },
    {
      "channel": 4,
      "note": 61,
      "start": 54.0115,
      "duration": 0.1748,
      "velocity": 119,
      "chip": "ym2612"
    },
    {
      "channel": 5,
      "note": 73,
      "start": 54.0131,
      "duration": 0.1734,
      "velocity": 119,
      "chip": "ym2612"
    },
    {
      "channel": 0,
      "note": 70,
      "start": 54.2202,
      "duration": 0.1671,
      "velocity": 122,
      "chip": "ym2612"
    },
    {
      "channel": 1,
      "note": 58,
      "start": 54.222,
      "duration": 0.1655,
      "velocity": 103,
      "chip": "ym2612"
    },
    {
      "channel": 2,
      "note": 58,
      "start": 54.2236,
      "duration": 0.1641,
      "velocity": 122,
      "chip": "ym2612"
    },
    {
      "channel": 4,
      "note": 58,
      "start": 54.2257,
      "duration": 0.1628,
      "velocity": 119,
      "chip": "ym2612"
    },
    {
      "channel": 5,
      "note": 70,
      "start": 54.2274,
      "duration": 0.1613,
      "velocity": 119,
      "chip": "ym2612"
    },
    {
      "channel": 0,
      "note": 77,
      "start": 54.4224,
      "duration": 0.1672,
      "velocity": 122,
      "chip": "ym2612"
    },
    {
      "channel": 1,
      "note": 58,
      "start": 54.4242,
      "duration": 0.1656,
      "velocity": 103,
      "chip": "ym2612"
    },
    {
      "channel": 2,
      "note": 65,
      "start": 54.4258,
      "duration": 0.1642,
      "velocity": 122,
      "chip": "ym2612"
    },
    {
      "channel": 3,
      "note": 64,
      "start": 54.431,
      "duration": 0.0077,
      "velocity": 127,
      "chip": "ym2612"
    },
    {
      "channel": 4,
      "note": 65,
      "start": 54.4326,
      "duration": 0.1581,
      "velocity": 119,
      "chip": "ym2612"
    },
    {
      "channel": 5,
      "note": 77,
      "start": 54.4343,
      "duration": 0.1566,
      "velocity": 119,
      "chip": "ym2612"
    },
    {
      "channel": 0,
      "note": 75,
      "start": 54.6247,
      "duration": 0.1672,
      "velocity": 122,
      "chip": "ym2612"
    },
    {
      "channel": 1,
      "note": 58,
      "start": 54.6265,
      "duration": 0.1656,
      "velocity": 103,
      "chip": "ym2612"
    },
    {
      "channel": 2,
      "note": 63,
      "start": 54.628,
      "duration": 0.1642,
      "velocity": 122,
      "chip": "ym2612"
    },
    {
      "channel": 4,
      "note": 63,
      "start": 54.6302,
      "duration": 0.1629,
      "velocity": 119,
      "chip": "ym2612"
    },
    {
      "channel": 5,
      "note": 75,
      "start": 54.6318,
      "duration": 0.1614,
      "velocity": 119,
      "chip": "ym2612"
    },
    {
      "channel": 0,
      "note": 73,
      "start": 54.8269,
      "duration": 0.1672,
      "velocity": 122,
      "chip": "ym2612"
    },
    {
      "channel": 1,
      "note": 58,
      "start": 54.8287,
      "duration": 0.1656,
      "velocity": 103,
      "chip": "ym2612"
    },
    {
      "channel": 2,
      "note": 61,
      "start": 54.8303,
      "duration": 0.1642,
      "velocity": 122,
      "chip": "ym2612"
    },
    {
      "channel": 3,
      "note": 64,
      "start": 54.8356,
      "duration": 0.0076,
      "velocity": 127,
      "chip": "ym2612"
    },
    {
      "channel": 4,
      "note": 61,
      "start": 54.8373,
      "duration": 0.158,
      "velocity": 119,
      "chip": "ym2612"
    },
    {
      "channel": 5,
      "note": 73,
      "start": 54.8389,
      "duration": 0.1566,
      "velocity": 119,
      "chip": "ym2612"
    },
    {
      "channel": 0,
      "note": 77,
      "start": 55.0291,
      "duration": 0.1672,
      "velocity": 122,
      "chip": "ym2612"
    },
    {
      "channel": 1,
      "note": 58,
      "start": 55.0309,
      "duration": 0.1656,
      "velocity": 103,
      "chip": "ym2612"
    },
    {
      "channel": 2,
      "note": 65,
      "start": 55.0325,
      "duration": 0.1642,
      "velocity": 122,
      "chip": "ym2612"
    },
    {
      "channel": 3,
      "note": 64,
      "start": 55.0378,
      "duration": 0.0077,
      "velocity": 127,
      "chip": "ym2612"
    },
    {
      "channel": 4,
      "note": 65,
      "start": 55.0394,
      "duration": 0.1581,
      "velocity": 119,
      "chip": "ym2612"
    },
    {
      "channel": 5,
      "note": 77,
      "start": 55.041,
      "duration": 0.1566,
      "velocity": 119,
      "chip": "ym2612"
    },
    {
      "channel": 0,
      "note": 66,
      "start": 55.2324,
      "duration": 0.3852,
      "velocity": 122,
      "chip": "ym2612"
    },
    {
      "channel": 1,
      "note": 54,
      "start": 55.2346,
      "duration": 0.181,
      "velocity": 103,
      "chip": "ym2612"
    },
    {
      "channel": 2,
      "note": 61,
      "start": 55.2365,
      "duration": 0.3815,
      "velocity": 122,
      "chip": "ym2612"
    },
    {
      "channel": 3,
      "note": 64,
      "start": 55.2421,
      "duration": 0.0225,
      "velocity": 127,
      "chip": "ym2612"
    },
    {
      "channel": 4,
      "note": 61,
      "start": 55.244,
      "duration": 0.3748,
      "velocity": 119,
      "chip": "ym2612"
    },
    {
      "channel": 5,
      "note": 66,
      "start": 55.2459,
      "duration": 0.3732,
      "velocity": 119,
      "chip": "ym2612"
    },
    {
      "channel": 1,
      "note": 54,
      "start": 55.4508,
      "duration": 0.1671,
      "velocity": 103,
      "chip": "ym2612"
    },
    {
      "channel": 1,
      "note": 54,
      "start": 55.6531,
      "duration": 0.1669,
      "velocity": 103,
      "chip": "ym2612"
    },
    {
      "channel": 3,
      "note": 64,
      "start": 55.6583,
      "duration": 0.0107,
      "velocity": 127,
      "chip": "ym2612"
    },
    {
      "channel": 0,
      "note": 66,
      "start": 55.855,
      "duration": 0.9761,
      "velocity": 122,
      "chip": "ym2612"
    },
    {
      "channel": 1,
      "note": 54,
      "start": 55.8568,
      "duration": 0.1655,
      "velocity": 103,
      "chip": "ym2612"
    },
    {
      "channel": 2,
      "note": 61,
      "start": 55.8584,
      "duration": 0.9731,
      "velocity": 122,
      "chip": "ym2612"
    },
    {
      "channel": 4,
      "note": 61,
      "start": 55.8606,
      "duration": 0.9717,
      "velocity": 119,
      "chip": "ym2612"
    },
    {
      "channel": 5,
      "note": 66,
      "start": 55.8622,
      "duration": 0.9703,
      "velocity": 119,
      "chip": "ym2612"
    },
    {
      "channel": 1,
      "note": 54,
      "start": 56.0575,
      "duration": 0.167,
      "velocity": 103,
      "chip": "ym2612"
    },
    {
      "channel": 3,
      "note": 64,
      "start": 56.0629,
      "duration": 0.0107,
      "velocity": 127,
      "chip": "ym2612"
    },
    {
      "channel": 1,
      "note": 54,
      "start": 56.2597,
      "duration": 0.167,
      "velocity": 103,
      "chip": "ym2612"
    },
    {
      "channel": 1,
      "note": 54,
      "start": 56.462,
      "duration": 0.167,
      "velocity": 103,
      "chip": "ym2612"
    },
    {
      "channel": 3,
      "note": 64,
      "start": 56.4673,
      "duration": 0.0107,
      "velocity": 127,
      "chip": "ym2612"
    },
    {
      "channel": 1,
      "note": 54,
      "start": 56.6642,
      "duration": 0.1671,
      "velocity": 103,
      "chip": "ym2612"
    },
    {
      "channel": 3,
      "note": 64,
      "start": 56.6695,
      "duration": 0.0108,
      "velocity": 127,
      "chip": "ym2612"
    },
    {
      "channel": 0,
      "note": 68,
      "start": 56.8662,
      "duration": 0.3357,
      "velocity": 122,
      "chip": "ym2612"
    },
    {
      "channel": 1,
      "note": 56,
      "start": 56.8681,
      "duration": 0.1653,
      "velocity": 103,
      "chip": "ym2612"
    },
    {
      "channel": 2,
      "note": 63,
      "start": 56.8698,
      "duration": 0.3324,
      "velocity": 122,
      "chip": "ym2612"
    },
    {
      "channel": 3,
      "note": 64,
      "start": 56.8718,
      "duration": 0.0107,
      "velocity": 127,
      "chip": "ym2612"
    },
    {
      "channel": 4,
      "note": 63,
      "start": 56.8735,
      "duration": 0.3295,
      "velocity": 119,
      "chip": "ym2612"
    },
    {
      "channel": 5,
      "note": 68,
      "start": 56.8751,
      "duration": 0.3281,
      "velocity": 119,
      "chip": "ym2612"
    },
    {
      "channel": 1,
      "note": 56,
      "start": 57.0687,
      "duration": 0.167,
      "velocity": 103,
      "chip": "ym2612"
    },
    {
      "channel": 3,
      "note": 64,
      "start": 57.0742,
      "duration": 0.0106,
      "velocity": 127,
      "chip": "ym2612"
    },
    {
      "channel": 1,
      "note": 56,
      "start": 57.2709,
      "duration": 0.167,
      "velocity": 103,
      "chip": "ym2612"
    },
    {
      "channel": 3,
      "note": 64,
      "start": 57.2733,
      "duration": 0.0137,
      "velocity": 127,
      "chip": "ym2612"
    },
    {
      "channel": 0,
      "note": 68,
      "start": 57.473,
      "duration": 0.9761,
      "velocity": 122,
      "chip": "ym2612"
    },
    {
      "channel": 1,
      "note": 56,
      "start": 57.4747,
      "duration": 0.1654,
      "velocity": 103,
      "chip": "ym2612"
    },
    {
      "channel": 2,
      "note": 63,
      "start": 57.4763,
      "duration": 0.9731,
      "velocity": 122,
      "chip": "ym2612"
    },
    {
      "channel": 3,
      "note": 64,
      "start": 57.4785,
      "duration": 0.0107,
      "velocity": 127,
      "chip": "ym2612"
    },
    {
      "channel": 4,
      "note": 63,
      "start": 57.4802,
      "duration": 0.97,
      "velocity": 119,
      "chip": "ym2612"
    },
    {
      "channel": 5,
      "note": 68,
      "start": 57.4818,
      "duration": 0.9686,
      "velocity": 119,
      "chip": "ym2612"
    },
    {
      "channel": 1,
      "note": 56,
      "start": 57.6754,
      "duration": 0.167,
      "velocity": 103,
      "chip": "ym2612"
    },
    {
      "channel": 3,
      "note": 64,
      "start": 57.6777,
      "duration": 0.0137,
      "velocity": 127,
      "chip": "ym2612"
    },
    {
      "channel": 1,
      "note": 56,
      "start": 57.8784,
      "duration": 0.1662,
      "velocity": 103,
      "chip": "ym2612"
    },
    {
      "channel": 3,
      "note": 64,
      "start": 57.8807,
      "duration": 0.013,
      "velocity": 127,
      "chip": "ym2612"
    },
    {
      "channel": 1,
      "note": 56,
      "start": 58.0799,
      "duration": 0.167,
      "velocity": 103,
      "chip": "ym2612"
    },
    {
      "channel": 3,
      "note": 64,
      "start": 58.0822,
      "duration": 0.0137,
      "velocity": 127,
      "chip": "ym2612"
    },
    {
      "channel": 1,
      "note": 56,
      "start": 58.2828,
      "duration": 0.1665,
      "velocity": 103,
      "chip": "ym2612"
    },
    {
      "channel": 3,
      "note": 64,
      "start": 58.2851,
      "duration": 0.0132,
      "velocity": 127,
      "chip": "ym2612"
    },
    {
      "channel": 0,
      "note": 73,
      "start": 58.4846,
      "duration": 0.9925,
      "velocity": 122,
      "chip": "ym2612"
    },
    {
      "channel": 1,
      "note": 61,
      "start": 58.4868,
      "duration": 0.1814,
      "velocity": 103,
      "chip": "ym2612"
    },
    {
      "channel": 2,
      "note": 68,
      "start": 58.4924,
      "duration": 0.9851,
      "velocity": 98,
      "chip": "ym2612"
    },
    {
      "channel": 3,
      "note": 64,
      "start": 58.4982,
      "duration": 0.0191,
      "velocity": 127,
      "chip": "ym2612"
    },
    {
      "channel": 4,
      "note": 65,
      "start": 58.5039,
      "duration": 0.9744,
      "velocity": 98,
      "chip": "ym2612"
    },
    {
      "channel": 5,
      "note": 73,
      "start": 58.5061,
      "duration": 0.9723,
      "velocity": 119,
      "chip": "ym2612"
    },
    {
      "channel": 1,
      "note": 61,
      "start": 58.7035,
      "duration": 0.167,
      "velocity": 103,
      "chip": "ym2612"
    },
    {
      "channel": 1,
      "note": 61,
      "start": 58.9057,
      "duration": 0.167,
      "velocity": 103,
      "chip": "ym2612"
    },
    {
      "channel": 3,
      "note": 64,
      "start": 58.9111,
      "duration": 0.0107,
      "velocity": 127,
      "chip": "ym2612"
    },
    {
      "channel": 1,
      "note": 61,
      "start": 59.108,
      "duration": 0.167,
      "velocity": 103,
      "chip": "ym2612"
    },
    {
      "channel": 1,
      "note": 61,
      "start": 59.3102,
      "duration": 0.1671,
      "velocity": 103,
      "chip": "ym2612"
    },
    {
      "channel": 3,
      "note": 64,
      "start": 59.3157,
      "duration": 0.0106,
      "velocity": 127,
      "chip": "ym2612"
    },
    {
      "channel": 0,
      "note": 75,
      "start": 59.5122,
      "duration": 0.1671,
      "velocity": 122,
      "chip": "ym2612"
    },
    {
      "channel": 1,
      "note": 61,
      "start": 59.5139,
      "duration": 0.1656,
      "velocity": 103,
      "chip": "ym2612"
    },
    {
      "channel": 2,
      "note": 70,
      "start": 59.5157,
      "duration": 0.1641,
      "velocity": 98,
      "chip": "ym2612"
    },
    {
      "channel": 4,
      "note": 66,
      "start": 59.5179,
      "duration": 0.1626,
      "velocity": 98,
      "chip": "ym2612"
    },
    {
      "channel": 5,
      "note": 75,
      "start": 59.5195,
      "duration": 0.1611,
      "velocity": 119,
      "chip": "ym2612"
    },
    {
      "channel": 0,
      "note": 73,
      "start": 59.7144,
      "duration": 0.184,
      "velocity": 122,
      "chip": "ym2612"
    },
    {
      "channel": 1,
      "note": 61,
      "start": 59.7162,
      "duration": 0.1824,
      "velocity": 103,
      "chip": "ym2612"
    },
    {
      "channel": 2,
      "note": 68,
      "start": 59.7179,
      "duration": 0.181,
      "velocity": 98,
      "chip": "ym2612"
    },
    {
      "channel": 3,
      "note": 64,
      "start": 59.7232,
      "duration": 0.0244,
      "velocity": 127,
      "chip": "ym2612"
    },
    {
      "channel": 4,
      "note": 65,
      "start": 59.7248,
      "duration": 0.1748,
      "velocity": 98,
      "chip": "ym2612"
    },
    {
      "channel": 5,
      "note": 73,
      "start": 59.7264,
      "duration": 0.1734,
      "velocity": 119,
      "chip": "ym2612"
    },
    {
      "channel": 0,
      "note": 72,
      "start": 59.9335,
      "duration": 1.1784,
      "velocity": 122,
      "chip": "ym2612"
    },
    {
      "channel": 1,
      "note": 61,
      "start": 59.9353,
      "duration": 0.1656,
      "velocity": 103,
      "chip": "ym2612"
    },
    {
      "channel": 2,
      "note": 68,
      "start": 59.937,
      "duration": 1.1753,
      "velocity": 98,
      "chip": "ym2612"
    },
    {
      "channel": 4,
      "note": 63,
      "start": 59.9393,
      "duration": 1.1738,
      "velocity": 98,
      "chip": "ym2612"
    },
    {
      "channel": 5,
      "note": 72,
      "start": 59.9408,
      "duration": 1.1724,
      "velocity": 119,
      "chip": "ym2612"
    },
    {
      "channel": 1,
      "note": 60,
      "start": 60.1362,
      "duration": 0.1669,
      "velocity": 103,
      "chip": "ym2612"
    },
    {
      "channel": 3,
      "note": 64,
      "start": 60.1417,
      "duration": 0.0104,
      "velocity": 127,
      "chip": "ym2612"
    },
    {
      "channel": 1,
      "note": 60,
      "start": 60.3383,
      "duration": 0.1669,
      "velocity": 103,
      "chip": "ym2612"
    },
    {
      "channel": 1,
      "note": 60,
      "start": 60.5405,
      "duration": 0.167,
      "velocity": 103,
      "chip": "ym2612"
    },
    {
      "channel": 3,
      "note": 64,
      "start": 60.5459,
      "duration": 0.0107,
      "velocity": 127,
      "chip": "ym2612"
    },
    {
      "channel": 1,
      "note": 60,
      "start": 60.7427,
      "duration": 0.167,
      "velocity": 103,
      "chip": "ym2612"
    },
    {
      "channel": 1,
      "note": 60,
      "start": 60.945,
      "duration": 0.1671,
      "velocity": 103,
      "chip": "ym2612"
    },
    {
      "channel": 3,
      "note": 64,
      "start": 60.9505,
      "duration": 0.0105,
      "velocity": 127,
      "chip": "ym2612"
    },
    {
      "channel": 0,
      "note": 73,
      "start": 61.147,
      "duration": 0.1671,
      "velocity": 122,
      "chip": "ym2612"
    },
    {
      "channel": 1,
      "note": 60,
      "start": 61.1488,
      "duration": 0.1655,
      "velocity": 103,
      "chip": "ym2612"
    },
    {
      "channel": 2,
      "note": 70,
      "start": 61.1505,
      "duration": 0.164,
      "velocity": 98,
      "chip": "ym2612"
    },
    {
      "channel": 4,
      "note": 65,
      "start": 61.1528,
      "duration": 0.1625,
      "velocity": 98,
      "chip": "ym2612"
    },
    {
      "channel": 5,
      "note": 73,
      "start": 61.1545,
      "duration": 0.161,
      "velocity": 119,
      "chip": "ym2612"
    },
    {
      "channel": 0,
      "note": 72,
      "start": 61.3492,
      "duration": 0.1672,
      "velocity": 122,
      "chip": "ym2612"
    },
    {
      "channel": 1,
      "note": 60,
      "start": 61.351,
      "duration": 0.1656,
      "velocity": 103,
      "chip": "ym2612"
    },
    {
      "channel": 2,
      "note": 68,
      "start": 61.3527,
      "duration": 0.1641,
      "velocity": 98,
      "chip": "ym2612"
    },
    {
      "channel": 3,
      "note": 64,
      "start": 61.358,
      "duration": 0.0091,
      "velocity": 127,
      "chip": "ym2612"
    },
    {
      "channel": 4,
      "note": 63,
      "start": 61.3595,
      "duration": 0.158,
      "velocity": 98,
      "chip": "ym2612"
    },
    {
      "channel": 5,
      "note": 72,
      "start": 61.3612,
      "duration": 0.1565,
      "velocity": 119,
      "chip": "ym2612"
    },
    {
      "channel": 0,
      "note": 70,
      "start": 61.5515,
      "duration": 1.7851,
      "velocity": 122,
      "chip": "ym2612"
    },
    {
      "channel": 1,
      "note": 60,
      "start": 61.5532,
      "duration": 0.1655,
      "velocity": 103,
      "chip": "ym2612"
    },
    {
      "channel": 2,
      "note": 65,
      "start": 61.555,
      "duration": 1.782,
      "velocity": 98,
      "chip": "ym2612"
    },
    {
      "channel": 4,
      "note": 61,
      "start": 61.5572,
      "duration": 1.7805,
      "velocity": 98,
      "chip": "ym2612"
    },
    {
      "channel": 5,
      "note": 70,
      "start": 61.5588,
      "duration": 1.7791,
      "velocity": 119,
      "chip": "ym2612"
    },
    {
      "channel": 1,
      "note": 58,
      "start": 61.7555,
      "duration": 0.1654,
      "velocity": 103,
      "chip": "ym2612"
    },
    {
      "channel": 3,
      "note": 64,
      "start": 61.7625,
      "duration": 0.0081,
      "velocity": 127,
      "chip": "ym2612"
    },
    {
      "channel": 1,
      "note": 58,
      "start": 61.9562,
      "duration": 0.167,
      "velocity": 103,
      "chip": "ym2612"
    },
    {
      "channel": 1,
      "note": 58,
      "start": 62.1584,
      "duration": 0.167,
      "velocity": 103,
      "chip": "ym2612"
    },
    {
      "channel": 3,
      "note": 64,
      "start": 62.1638,
      "duration": 0.0107,
      "velocity": 127,
      "chip": "ym2612"
    },
    {
      "channel": 1,
      "note": 58,
      "start": 62.3607,
      "duration": 0.167,
      "velocity": 103,
      "chip": "ym2612"
    },
    {
      "channel": 1,
      "note": 58,
      "start": 62.5629,
      "duration": 0.167,
      "velocity": 103,
      "chip": "ym2612"
    },
    {
      "channel": 3,
      "note": 64,
      "start": 62.5685,
      "duration": 0.0105,
      "velocity": 127,
      "chip": "ym2612"
    },
    {
      "channel": 1,
      "note": 58,
      "start": 62.7652,
      "duration": 0.1669,
      "velocity": 103,
      "chip": "ym2612"
    },
    {
      "channel": 1,
      "note": 58,
      "start": 62.9674,
      "duration": 0.167,
      "velocity": 103,
      "chip": "ym2612"
    },
    {
      "channel": 3,
      "note": 64,
      "start": 62.9728,
      "duration": 0.0107,
      "velocity": 127,
      "chip": "ym2612"
    },
    {
      "channel": 1,
      "note": 58,
      "start": 63.1697,
      "duration": 0.1671,
      "velocity": 103,
      "chip": "ym2612"
    },
    {
      "channel": 0,
      "note": 66,
      "start": 63.3716,
      "duration": 0.184,
      "velocity": 122,
      "chip": "ym2612"
    },
    {
      "channel": 1,
      "note": 54,
      "start": 63.3735,
      "duration": 0.1823,
      "velocity": 103,
      "chip": "ym2612"
    },
    {
      "channel": 2,
      "note": 61,
      "start": 63.3753,
      "duration": 0.5852,
      "velocity": 98,
      "chip": "ym2612"
    },
    {
      "channel": 3,
      "note": 64,
      "start": 63.381,
      "duration": 0.0237,
      "velocity": 127,
      "chip": "ym2612"
    },
    {
      "channel": 4,
      "note": 58,
      "start": 63.3827,
      "duration": 0.5785,
      "velocity": 98,
      "chip": "ym2612"
    },
    {
      "channel": 5,
      "note": 66,
      "start": 63.3844,
      "duration": 0.1724,
      "velocity": 119,
      "chip": "ym2612"
    },
    {
      "channel": 0,
      "note": 66,
      "start": 63.5907,
      "duration": 0.0154,
      "velocity": 122,
      "chip": "ym2612"
    },
    {
      "channel": 1,
      "note": 54,
      "start": 63.5925,
      "duration": 0.1655,
      "velocity": 103,
      "chip": "ym2612"
    },
    {
      "channel": 3,
      "note": 64,
      "start": 63.5978,
      "duration": 0.0093,
      "velocity": 127,
      "chip": "ym2612"
    },
    {
      "channel": 5,
      "note": 66,
      "start": 63.5996,
      "duration": 0.0078,
      "velocity": 119,
      "chip": "ym2612"
    },
    {
      "channel": 0,
      "note": 66,
      "start": 63.7929,
      "duration": 0.0155,
      "velocity": 122,
      "chip": "ym2612"
    },
    {
      "channel": 1,
      "note": 54,
      "start": 63.7947,
      "duration": 0.1655,
      "velocity": 103,
      "chip": "ym2612"
    },
    {
      "channel": 3,
      "note": 64,
      "start": 63.7969,
      "duration": 0.0125,
      "velocity": 127,
      "chip": "ym2612"
    },
    {
      "channel": 5,
      "note": 66,
      "start": 63.7986,
      "duration": 0.0111,
      "velocity": 119,
      "chip": "ym2612"
    },
    {
      "channel": 0,
      "note": 68,
      "start": 63.9952,
      "duration": 0.3864,
      "velocity": 122,
      "chip": "ym2612"
    },
    {
      "channel": 1,
      "note": 56,
      "start": 63.9971,
      "duration": 0.1822,
      "velocity": 103,
      "chip": "ym2612"
    },
    {
      "channel": 2,
      "note": 63,
      "start": 63.9988,
      "duration": 0.5852,
      "velocity": 98,
      "chip": "ym2612"
    },
    {
      "channel": 3,
      "note": 64,
      "start": 64.0042,
      "duration": 0.0242,
      "velocity": 127,
      "chip": "ym2612"
    },
    {
      "channel": 4,
      "note": 60,
      "start": 64.0059,
      "duration": 0.5789,
      "velocity": 98,
      "chip": "ym2612"
    },
    {
      "channel": 5,
      "note": 68,
      "start": 64.0075,
      "duration": 0.3753,
      "velocity": 119,
      "chip": "ym2612"
    },
    {
      "channel": 1,
      "note": 56,
      "start": 64.2146,
      "duration": 0.1672,
      "velocity": 103,
      "chip": "ym2612"
    },
    {
      "channel": 3,
      "note": 64,
      "start": 64.22,
      "duration": 0.0106,
      "velocity": 127,
      "chip": "ym2612"
    },
    {
      "channel": 0,
      "note": 68,
      "start": 64.4166,
      "duration": 0.0154,
      "velocity": 122,
      "chip": "ym2612"
    },
    {
      "channel": 1,
      "note": 56,
      "start": 64.4183,
      "duration": 0.1655,
      "velocity": 103,
      "chip": "ym2612"
    },
    {
      "channel": 3,
      "note": 64,
      "start": 64.4205,
      "duration": 0.0124,
      "velocity": 127,
      "chip": "ym2612"
    },
    {
      "channel": 5,
      "note": 68,
      "start": 64.4223,
      "duration": 0.011,
      "velocity": 119,
      "chip": "ym2612"
    },
    {
      "channel": 0,
      "note": 72,
      "start": 64.6189,
      "duration": 0.3693,
      "velocity": 122,
      "chip": "ym2612"
    },
    {
      "channel": 1,
      "note": 56,
      "start": 64.6207,
      "duration": 0.1653,
      "velocity": 103,
      "chip": "ym2612"
    },
    {
      "channel": 2,
      "note": 68,
      "start": 64.6224,
      "duration": 0.3662,
      "velocity": 98,
      "chip": "ym2612"
    },
    {
      "channel": 3,
      "note": 68,
      "start": 64.628,
      "duration": 0.0079,
      "velocity": 127,
      "chip": "ym2612"
    },
    {
      "channel": 4,
      "note": 63,
      "start": 64.6297,
      "duration": 0.3597,
      "velocity": 98,
      "chip": "ym2612"
    },
    {
      "channel": 5,
      "note": 72,
      "start": 64.6313,
      "duration": 0.3582,
      "velocity": 119,
      "chip": "ym2612"
    },
    {
      "channel": 1,
      "note": 56,
      "start": 64.8213,
      "duration": 0.1671,
      "velocity": 103,
      "chip": "ym2612"
    },
    {
      "channel": 0,
      "note": 73,
      "start": 65.0235,
      "duration": 0.9927,
      "velocity": 122,
      "chip": "ym2612"
    },
    {
      "channel": 1,
      "note": 61,
      "start": 65.0258,
      "duration": 0.1816,
      "velocity": 103,
      "chip": "ym2612"
    },
    {
      "channel": 2,
      "note": 68,
      "start": 65.0277,
      "duration": 0.9889,
      "velocity": 98,
      "chip": "ym2612"
    },
    {
      "channel": 3,
      "note": 64,
      "start": 65.0337,
      "duration": 0.0228,
      "velocity": 127,
      "chip": "ym2612"
    },
    {
      "channel": 4,
      "note": 65,
      "start": 65.0356,
      "duration": 0.9818,
      "velocity": 98,
      "chip": "ym2612"
    },
    {
      "channel": 5,
      "note": 73,
      "start": 65.0375,
      "duration": 0.9802,
      "velocity": 119,
      "chip": "ym2612"
    },
    {
      "channel": 1,
      "note": 61,
      "start": 65.2434,
      "duration": 0.1662,
      "velocity": 103,
      "chip": "ym2612"
    },
    {
      "channel": 1,
      "note": 61,
      "start": 65.4449,
      "duration": 0.167,
      "velocity": 103,
      "chip": "ym2612"
    },
    {
      "channel": 3,
      "note": 64,
      "start": 65.4502,
      "duration": 0.0107,
      "velocity": 127,
      "chip": "ym2612"
    },
    {
      "channel": 1,
      "note": 61,
      "start": 65.6475,
      "duration": 0.1666,
      "velocity": 103,
      "chip": "ym2612"
    },
    {
      "channel": 1,
      "note": 61,
      "start": 65.8494,
      "duration": 0.1671,
      "velocity": 103,
      "chip": "ym2612"
    },
    {
      "channel": 3,
      "note": 64,
      "start": 65.8549,
      "duration": 0.0105,
      "velocity": 127,
      "chip": "ym2612"
    },
    {
      "channel": 0,
      "note": 75,
      "start": 66.0513,
      "duration": 0.1687,
      "velocity": 122,
      "chip": "ym2612"
    },
    {
      "channel": 1,
      "note": 61,
      "start": 66.0532,
      "duration": 0.167,
      "velocity": 103,
      "chip": "ym2612"
    },
    {
      "channel": 2,
      "note": 70,
      "start": 66.0549,
      "duration": 0.1655,
      "velocity": 98,
      "chip": "ym2612"
    },
    {
      "channel": 4,
      "note": 66,
      "start": 66.0571,
      "duration": 0.1641,
      "velocity": 98,
      "chip": "ym2612"
    },
    {
      "channel": 5,
      "note": 75,
      "start": 66.0587,
      "duration": 0.1627,
      "velocity": 119,
      "chip": "ym2612"
    },
    {
      "channel": 0,
      "note": 73,
      "start": 66.2536,
      "duration": 0.184,
      "velocity": 122,
      "chip": "ym2612"
    },
    {
      "channel": 1,
      "note": 61,
      "start": 66.2554,
      "duration": 0.1824,
      "velocity": 103,
      "chip": "ym2612"
    },
    {
      "channel": 2,
      "note": 68,
      "start": 66.2571,
      "duration": 0.1809,
      "velocity": 98,
      "chip": "ym2612"
    },
    {
      "channel": 3,
      "note": 64,
      "start": 66.2623,
      "duration": 0.0245,
      "velocity": 127,
      "chip": "ym2612"
    },
    {
      "channel": 4,
      "note": 65,
      "start": 66.2639,
      "duration": 0.1748,
      "velocity": 98,
      "chip": "ym2612"
    },
    {
      "channel": 5,
      "note": 73,
      "start": 66.2655,
      "duration": 0.1734,
      "velocity": 119,
      "chip": "ym2612"
    },
    {
      "channel": 0,
      "note": 72,
      "start": 66.4727,
      "duration": 1.1783,
      "velocity": 122,
      "chip": "ym2612"
    },
    {
      "channel": 1,
      "note": 61,
      "start": 66.4744,
      "duration": 0.1654,
      "velocity": 103,
      "chip": "ym2612"
    },
    {
      "channel": 2,
      "note": 68,
      "start": 66.4762,
      "duration": 1.1752,
      "velocity": 98,
      "chip": "ym2612"
    },
    {
      "channel": 4,
      "note": 63,
      "start": 66.4784,
      "duration": 1.1738,
      "velocity": 98,
      "chip": "ym2612"
    },
    {
      "channel": 5,
      "note": 72,
      "start": 66.48,
      "duration": 1.1723,
      "velocity": 119,
      "chip": "ym2612"
    },
    {
      "channel": 1,
      "note": 60,
      "start": 66.6753,
      "duration": 0.1668,
      "velocity": 103,
      "chip": "ym2612"
    },
    {
      "channel": 3,
      "note": 64,
      "start": 66.6808,
      "duration": 0.0104,
      "velocity": 127,
      "chip": "ym2612"
    },
    {
      "channel": 1,
      "note": 60,
      "start": 66.8774,
      "duration": 0.167,
      "velocity": 103,
      "chip": "ym2612"
    },
    {
      "channel": 1,
      "note": 60,
      "start": 67.0797,
      "duration": 0.167,
      "velocity": 103,
      "chip": "ym2612"
    },
    {
      "channel": 3,
      "note": 64,
      "start": 67.085,
      "duration": 0.0107,
      "velocity": 127,
      "chip": "ym2612"
    },
    {
      "channel": 1,
      "note": 60,
      "start": 67.2819,
      "duration": 0.167,
      "velocity": 103,
      "chip": "ym2612"
    },
    {
      "channel": 1,
      "note": 60,
      "start": 67.4841,
      "duration": 0.1671,
      "velocity": 103,
      "chip": "ym2612"
    },
    {
      "channel": 3,
      "note": 64,
      "start": 67.4896,
      "duration": 0.0106,
      "velocity": 127,
      "chip": "ym2612"
    },
    {
      "channel": 0,
      "note": 73,
      "start": 67.6861,
      "duration": 0.1671,
      "velocity": 122,
      "chip": "ym2612"
    },
    {
      "channel": 1,
      "note": 60,
      "start": 67.6879,
      "duration": 0.1655,
      "velocity": 103,
      "chip": "ym2612"
    },
    {
      "channel": 2,
      "note": 70,
      "start": 67.6896,
      "duration": 0.1641,
      "velocity": 98,
      "chip": "ym2612"
    },
    {
      "channel": 4,
      "note": 65,
      "start": 67.6919,
      "duration": 0.1625,
      "velocity": 98,
      "chip": "ym2612"
    },
    {
      "channel": 5,
      "note": 73,
      "start": 67.6935,
      "duration": 0.1611,
      "velocity": 119,
      "chip": "ym2612"
    },
    {
      "channel": 0,
      "note": 72,
      "start": 67.8893,
      "duration": 0.1831,
      "velocity": 122,
      "chip": "ym2612"
    },
    {
      "channel": 1,
      "note": 60,
      "start": 67.891,
      "duration": 0.1815,
      "velocity": 103,
      "chip": "ym2612"
    },
    {
      "channel": 2,
      "note": 68,
      "start": 67.8927,
      "duration": 0.18,
      "velocity": 98,
      "chip": "ym2612"
    },
    {
      "channel": 3,
      "note": 64,
      "start": 67.898,
      "duration": 0.0236,
      "velocity": 127,
      "chip": "ym2612"
    },
    {
      "channel": 4,
      "note": 63,
      "start": 67.8996,
      "duration": 0.1739,
      "velocity": 98,
      "chip": "ym2612"
    },
    {
      "channel": 5,
      "note": 72,
      "start": 67.9012,
      "duration": 0.1725,
      "velocity": 119,
      "chip": "ym2612"
    },
    {
      "channel": 0,
      "note": 70,
      "start": 68.1075,
      "duration": 1.785,
      "velocity": 122,
      "chip": "ym2612"
    },
    {
      "channel": 1,
      "note": 60,
      "start": 68.1092,
      "duration": 0.1655,
      "velocity": 103,
      "chip": "ym2612"
    },
    {
      "channel": 2,
      "note": 65,
      "start": 68.111,
      "duration": 1.782,
      "velocity": 98,
      "chip": "ym2612"
    },
    {
      "channel": 4,
      "note": 61,
      "start": 68.1132,
      "duration": 1.7805,
      "velocity": 98,
      "chip": "ym2612"
    },
    {
      "channel": 5,
      "note": 70,
      "start": 68.1148,
      "duration": 1.7791,
      "velocity": 119,
      "chip": "ym2612"
    },
    {
      "channel": 1,
      "note": 58,
      "start": 68.3115,
      "duration": 0.1655,
      "velocity": 103,
      "chip": "ym2612"
    },
    {
      "channel": 3,
      "note": 64,
      "start": 68.3185,
      "duration": 0.0082,
      "velocity": 127,
      "chip": "ym2612"
    },
    {
      "channel": 1,
      "note": 58,
      "start": 68.5122,
      "duration": 0.167,
      "velocity": 103,
      "chip": "ym2612"
    },
    {
      "channel": 1,
      "note": 58,
      "start": 68.7144,
      "duration": 0.167,
      "velocity": 103,
      "chip": "ym2612"
    },
    {
      "channel": 3,
      "note": 64,
      "start": 68.7198,
      "duration": 0.0107,
      "velocity": 127,
      "chip": "ym2612"
    },
    {
      "channel": 1,
      "note": 58,
      "start": 68.9167,
      "duration": 0.167,
      "velocity": 103,
      "chip": "ym2612"
    },
    {
      "channel": 1,
      "note": 58,
      "start": 69.1189,
      "duration": 0.167,
      "velocity": 103,
      "chip": "ym2612"
    },
    {
      "channel": 3,
      "note": 64,
      "start": 69.1244,
      "duration": 0.0106,
      "velocity": 127,
      "chip": "ym2612"
    },
    {
      "channel": 1,
      "note": 58,
      "start": 69.3212,
      "duration": 0.167,
      "velocity": 103,
      "chip": "ym2612"
    },
    {
      "channel": 1,
      "note": 58,
      "start": 69.5234,
      "duration": 0.167,
      "velocity": 103,
      "chip": "ym2612"
    },
    {
      "channel": 3,
      "note": 64,
      "start": 69.5288,
      "duration": 0.0107,
      "velocity": 127,
      "chip": "ym2612"
    },
    {
      "channel": 1,
      "note": 58,
      "start": 69.7256,
      "duration": 0.1671,
      "velocity": 103,
      "chip": "ym2612"
    },
    {
      "channel": 0,
      "note": 66,
      "start": 69.9276,
      "duration": 0.184,
      "velocity": 122,
      "chip": "ym2612"
    },
    {
      "channel": 1,
      "note": 54,
      "start": 69.9295,
      "duration": 0.1823,
      "velocity": 103,
      "chip": "ym2612"
    },
    {
      "channel": 2,
      "note": 61,
      "start": 69.9312,
      "duration": 0.5852,
      "velocity": 98,
      "chip": "ym2612"
    },
    {
      "channel": 3,
      "note": 64,
      "start": 69.9371,
      "duration": 0.0242,
      "velocity": 127,
      "chip": "ym2612"
    },
    {
      "channel": 4,
      "note": 58,
      "start": 69.9388,
      "duration": 0.5784,
      "velocity": 98,
      "chip": "ym2612"
    },
    {
      "channel": 5,
      "note": 66,
      "start": 69.9404,
      "duration": 0.1724,
      "velocity": 119,
      "chip": "ym2612"
    },
    {
      "channel": 0,
      "note": 66,
      "start": 70.1468,
      "duration": 0.0154,
      "velocity": 122,
      "chip": "ym2612"
    },
    {
      "channel": 1,
      "note": 54,
      "start": 70.1485,
      "duration": 0.1655,
      "velocity": 103,
      "chip": "ym2612"
    },
    {
      "channel": 3,
      "note": 64,
      "start": 70.1539,
      "duration": 0.0092,
      "velocity": 127,
      "chip": "ym2612"
    },
    {
      "channel": 5,
      "note": 66,
      "start": 70.1556,
      "duration": 0.0078,
      "velocity": 119,
      "chip": "ym2612"
    },
    {
      "channel": 0,
      "note": 66,
      "start": 70.3489,
      "duration": 0.0156,
      "velocity": 122,
      "chip": "ym2612"
    },
    {
      "channel": 1,
      "note": 54,
      "start": 70.3507,
      "duration": 0.1655,
      "velocity": 103,
      "chip": "ym2612"
    },
    {
      "channel": 3,
      "note": 64,
      "start": 70.3529,
      "duration": 0.0126,
      "velocity": 127,
      "chip": "ym2612"
    },
    {
      "channel": 5,
      "note": 66,
      "start": 70.3546,
      "duration": 0.0112,
      "velocity": 119,
      "chip": "ym2612"
    },
    {
      "channel": 0,
      "note": 68,
      "start": 70.5512,
      "duration": 0.387,
      "velocity": 122,
      "chip": "ym2612"
    },
    {
      "channel": 1,
      "note": 56,
      "start": 70.5531,
      "duration": 0.1822,
      "velocity": 103,
      "chip": "ym2612"
    },
    {
      "channel": 2,
      "note": 63,
      "start": 70.5548,
      "duration": 0.5852,
      "velocity": 98,
      "chip": "ym2612"
    },
    {
      "channel": 3,
      "note": 64,
      "start": 70.5602,
      "duration": 0.0241,
      "velocity": 127,
      "chip": "ym2612"
    },
    {
      "channel": 4,
      "note": 60,
      "start": 70.5619,
      "duration": 0.5788,
      "velocity": 98,
      "chip": "ym2612"
    },
    {
      "channel": 5,
      "note": 68,
      "start": 70.5635,
      "duration": 0.376,
      "velocity": 119,
      "chip": "ym2612"
    },
    {
      "channel": 1,
      "note": 56,
      "start": 70.7706,
      "duration": 0.1679,
      "velocity": 103,
      "chip": "ym2612"
    },
    {
      "channel": 3,
      "note": 64,
      "start": 70.776,
      "duration": 0.0107,
      "velocity": 127,
      "chip": "ym2612"
    },
    {
      "channel": 0,
      "note": 68,
      "start": 70.9726,
      "duration": 0.0154,
      "velocity": 122,
      "chip": "ym2612"
    },
    {
      "channel": 1,
      "note": 56,
      "start": 70.9743,
      "duration": 0.1655,
      "velocity": 103,
      "chip": "ym2612"
    },
    {
      "channel": 3,
      "note": 64,
      "start": 70.9765,
      "duration": 0.0125,
      "velocity": 127,
      "chip": "ym2612"
    },
    {
      "channel": 5,
      "note": 68,
      "start": 70.9783,
      "duration": 0.011,
      "velocity": 119,
      "chip": "ym2612"
    },
    {
      "channel": 0,
      "note": 72,
      "start": 71.1748,
      "duration": 0.3693,
      "velocity": 122,
      "chip": "ym2612"
    },
    {
      "channel": 1,
      "note": 56,
      "start": 71.1765,
      "duration": 0.1663,
      "velocity": 103,
      "chip": "ym2612"
    },
    {
      "channel": 2,
      "note": 68,
      "start": 71.1783,
      "duration": 0.3663,
      "velocity": 98,
      "chip": "ym2612"
    },
    {
      "channel": 3,
      "note": 68,
      "start": 71.1839,
      "duration": 0.0081,
      "velocity": 127,
      "chip": "ym2612"
    },
    {
      "channel": 4,
      "note": 63,
      "start": 71.1856,
      "duration": 0.3597,
      "velocity": 98,
      "chip": "ym2612"
    },
    {
      "channel": 5,
      "note": 72,
      "start": 71.1873,
      "duration": 0.3583,
      "velocity": 119,
      "chip": "ym2612"
    },
    {
      "channel": 1,
      "note": 56,
      "start": 71.3773,
      "duration": 0.1671,
      "velocity": 103,
      "chip": "ym2612"
    },
    {
      "channel": 0,
      "note": 61,
      "start": 71.5796,
      "duration": 3.2173,
      "velocity": 122,
      "chip": "ym2612"
    },
    {
      "channel": 1,
      "note": 49,
      "start": 71.5817,
      "duration": 0.1816,
      "velocity": 103,
      "chip": "ym2612"
    },
    {
      "channel": 2,
      "note": 61,
      "start": 71.5837,
      "duration": 3.2136,
      "velocity": 98,
      "chip": "ym2612"
    },
    {
      "channel": 3,
      "note": 64,
      "start": 71.5897,
      "duration": 0.0227,
      "velocity": 127,
      "chip": "ym2612"
    },
    {
      "channel": 4,
      "note": 56,
      "start": 71.5917,
      "duration": 3.2063,
      "velocity": 98,
      "chip": "ym2612"
    },
    {
      "channel": 5,
      "note": 61,
      "start": 71.5936,
      "duration": 3.2046,
      "velocity": 119,
      "chip": "ym2612"
    },
    {
      "channel": 1,
      "note": 49,
      "start": 71.7986,
      "duration": 0.167,
      "velocity": 103,
      "chip": "ym2612"
    },
    {
      "channel": 1,
      "note": 49,
      "start": 72.0008,
      "duration": 0.167,
      "velocity": 103,
      "chip": "ym2612"
    },
    {
      "channel": 3,
      "note": 64,
      "start": 72.0062,
      "duration": 0.0107,
      "velocity": 127,
      "chip": "ym2612"
    },
    {
      "channel": 1,
      "note": 49,
      "start": 72.2031,
      "duration": 0.167,
      "velocity": 103,
      "chip": "ym2612"
    },
    {
      "channel": 1,
      "note": 49,
      "start": 72.4054,
      "duration": 0.167,
      "velocity": 103,
      "chip": "ym2612"
    },
    {
      "channel": 3,
      "note": 64,
      "start": 72.4108,
      "duration": 0.0106,
      "velocity": 127,
      "chip": "ym2612"
    },
    {
      "channel": 1,
      "note": 49,
      "start": 72.6082,
      "duration": 0.1663,
      "velocity": 103,
      "chip": "ym2612"
    },
    {
      "channel": 1,
      "note": 49,
      "start": 72.8098,
      "duration": 0.167,
      "velocity": 103,
      "chip": "ym2612"
    },
    {
      "channel": 3,
      "note": 64,
      "start": 72.8152,
      "duration": 0.0107,
      "velocity": 127,
      "chip": "ym2612"
    },
    {
      "channel": 1,
      "note": 49,
      "start": 73.0123,
      "duration": 0.1668,
      "velocity": 103,
      "chip": "ym2612"
    },
    {
      "channel": 1,
      "note": 49,
      "start": 73.2157,
      "duration": 0.1656,
      "velocity": 103,
      "chip": "ym2612"
    },
    {
      "channel": 3,
      "note": 64,
      "start": 73.2227,
      "duration": 0.0086,
      "velocity": 127,
      "chip": "ym2612"
    },
    {
      "channel": 1,
      "note": 49,
      "start": 73.4166,
      "duration": 0.1679,
      "velocity": 103,
      "chip": "ym2612"
    },
    {
      "channel": 1,
      "note": 49,
      "start": 73.6188,
      "duration": 0.167,
      "velocity": 103,
      "chip": "ym2612"
    },
    {
      "channel": 3,
      "note": 64,
      "start": 73.6242,
      "duration": 0.0107,
      "velocity": 127,
      "chip": "ym2612"
    },
    {
      "channel": 1,
      "note": 49,
      "start": 73.8211,
      "duration": 0.1675,
      "velocity": 103,
      "chip": "ym2612"
    },
    {
      "channel": 1,
      "note": 49,
      "start": 74.0233,
      "duration": 0.167,
      "velocity": 103,
      "chip": "ym2612"
    },
    {
      "channel": 3,
      "note": 64,
      "start": 74.0288,
      "duration": 0.0105,
      "velocity": 127,
      "chip": "ym2612"
    },
    {
      "channel": 1,
      "note": 49,
      "start": 74.2255,
      "duration": 0.1672,
      "velocity": 103,
      "chip": "ym2612"
    },
    {
      "channel": 1,
      "note": 49,
      "start": 74.4277,
      "duration": 0.167,
      "velocity": 103,
      "chip": "ym2612"
    },
    {
      "channel": 3,
      "note": 64,
      "start": 74.4331,
      "duration": 0.0107,
      "velocity": 127,
      "chip": "ym2612"
    },
    {
      "channel": 1,
      "note": 49,
      "start": 74.63,
      "duration": 0.1671,
      "velocity": 103,
      "chip": "ym2612"
    },
    {
      "channel": 0,
      "note": 61,
      "start": 74.8325,
      "duration": 0.0318,
      "velocity": 122,
      "chip": "ym2612"
    },
    {
      "channel": 1,
      "note": 49,
      "start": 74.8347,
      "duration": 0.1814,
      "velocity": 103,
      "chip": "ym2612"
    },
    {
      "channel": 2,
      "note": 68,
      "start": 74.8401,
      "duration": 0.1762,
      "velocity": 91,
      "chip": "ym2612"
    },
    {
      "channel": 3,
      "note": 64,
      "start": 74.8459,
      "duration": 0.0193,
      "velocity": 127,
      "chip": "ym2612"
    },
    {
      "channel": 4,
      "note": 68,
      "start": 74.8513,
      "duration": 0.1658,
      "velocity": 91,
      "chip": "ym2612"
    },
    {
      "channel": 5,
      "note": 61,
      "start": 74.8535,
      "duration": 0.012,
      "velocity": 119,
      "chip": "ym2612"
    },
    {
      "channel": 0,
      "note": 61,
      "start": 75.0512,
      "duration": 0.0153,
      "velocity": 122,
      "chip": "ym2612"
    },
    {
      "channel": 1,
      "note": 49,
      "start": 75.053,
      "duration": 0.1653,
      "velocity": 103,
      "chip": "ym2612"
    },
    {
      "channel": 2,
      "note": 73,
      "start": 75.0546,
      "duration": 0.3661,
      "velocity": 91,
      "chip": "ym2612"
    },
    {
      "channel": 4,
      "note": 73,
      "start": 75.0568,
      "duration": 0.3647,
      "velocity": 91,
      "chip": "ym2612"
    },
    {
      "channel": 5,
      "note": 61,
      "start": 75.0586,
      "duration": 0.009,
      "velocity": 119,
      "chip": "ym2612"
    },
    {
      "channel": 0,
      "note": 61,
      "start": 75.2541,
      "duration": 0.0146,
      "velocity": 122,
      "chip": "ym2612"
    },
    {
      "channel": 1,
      "note": 49,
      "start": 75.2559,
      "duration": 0.1646,
      "velocity": 103,
      "chip": "ym2612"
    },
    {
      "channel": 3,
      "note": 64,
      "start": 75.2613,
      "duration": 0.0085,
      "velocity": 127,
      "chip": "ym2612"
    },
    {
      "channel": 5,
      "note": 61,
      "start": 75.2631,
      "duration": 0.0069,
      "velocity": 119,
      "chip": "ym2612"
    },
    {
      "channel": 0,
      "note": 61,
      "start": 75.4557,
      "duration": 0.0153,
      "velocity": 122,
      "chip": "ym2612"
    },
    {
      "channel": 1,
      "note": 49,
      "start": 75.4574,
      "duration": 0.1654,
      "velocity": 103,
      "chip": "ym2612"
    },
    {
      "channel": 2,
      "note": 75,
      "start": 75.4591,
      "duration": 0.3662,
      "velocity": 91,
      "chip": "ym2612"
    },
    {
      "channel": 4,
      "note": 75,
      "start": 75.4613,
      "duration": 0.3648,
      "velocity": 91,
      "chip": "ym2612"
    },
    {
      "channel": 5,
      "note": 61,
      "start": 75.463,
      "duration": 0.009,
      "velocity": 119,
      "chip": "ym2612"
    },
    {
      "channel": 0,
      "note": 61,
      "start": 75.6583,
      "duration": 0.015,
      "velocity": 122,
      "chip": "ym2612"
    },
    {
      "channel": 1,
      "note": 49,
      "start": 75.66,
      "duration": 0.1651,
      "velocity": 103,
      "chip": "ym2612"
    },
    {
      "channel": 3,
      "note": 64,
      "start": 75.6655,
      "duration": 0.0087,
      "velocity": 127,
      "chip": "ym2612"
    },
    {
      "channel": 5,
      "note": 61,
      "start": 75.6674,
      "duration": 0.0071,
      "velocity": 119,
      "chip": "ym2612"
    },
    {
      "channel": 0,
      "note": 61,
      "start": 75.8602,
      "duration": 0.0153,
      "velocity": 122,
      "chip": "ym2612"
    },
    {
      "channel": 1,
      "note": 49,
      "start": 75.862,
      "duration": 0.1653,
      "velocity": 103,
      "chip": "ym2612"
    },
    {
      "channel": 2,
      "note": 73,
      "start": 75.8636,
      "duration": 0.1639,
      "velocity": 91,
      "chip": "ym2612"
    },
    {
      "channel": 4,
      "note": 73,
      "start": 75.8658,
      "duration": 0.1625,
      "velocity": 91,
      "chip": "ym2612"
    },
    {
      "channel": 5,
      "note": 61,
      "start": 75.8676,
      "duration": 0.009,
      "velocity": 119,
      "chip": "ym2612"
    },
    {
      "channel": 0,
      "note": 61,
      "start": 76.0624,
      "duration": 0.0153,
      "velocity": 122,
      "chip": "ym2612"
    },
    {
      "channel": 1,
      "note": 49,
      "start": 76.0642,
      "duration": 0.1663,
      "velocity": 103,
      "chip": "ym2612"
    },
    {
      "channel": 2,
      "note": 75,
      "start": 76.0659,
      "duration": 0.3661,
      "velocity": 91,
      "chip": "ym2612"
    },
    {
      "channel": 3,
      "note": 64,
      "start": 76.0711,
      "duration": 0.0076,
      "velocity": 127,
      "chip": "ym2612"
    },
    {
      "channel": 4,
      "note": 75,
      "start": 76.0727,
      "duration": 0.36,
      "velocity": 91,
      "chip": "ym2612"
    },
    {
      "channel": 5,
      "note": 61,
      "start": 76.0745,
      "duration": 0.0045,
      "velocity": 119,
      "chip": "ym2612"
    },
    {
      "channel": 0,
      "note": 61,
      "start": 76.2647,
      "duration": 0.0153,
      "velocity": 122,
      "chip": "ym2612"
    },
    {
      "channel": 1,
      "note": 49,
      "start": 76.2664,
      "duration": 0.1653,
      "velocity": 103,
      "chip": "ym2612"
    },
    {
      "channel": 5,
      "note": 61,
      "start": 76.269,
      "duration": 0.012,
      "velocity": 119,
      "chip": "ym2612"
    },
    {
      "channel": 0,
      "note": 61,
      "start": 76.4669,
      "duration": 0.016,
      "velocity": 122,
      "chip": "ym2612"
    },
    {
      "channel": 1,
      "note": 49,
      "start": 76.4686,
      "duration": 0.1661,
      "velocity": 103,
      "chip": "ym2612"
    },
    {
      "channel": 2,
      "note": 69,
      "start": 76.4704,
      "duration": 0.1646,
      "velocity": 91,
      "chip": "ym2612"
    },
    {
      "channel": 3,
      "note": 64,
      "start": 76.4758,
      "duration": 0.0082,
      "velocity": 127,
      "chip": "ym2612"
    },
    {
      "channel": 4,
      "note": 69,
      "start": 76.4774,
      "duration": 0.1583,
      "velocity": 91,
      "chip": "ym2612"
    },
    {
      "channel": 5,
      "note": 61,
      "start": 76.4791,
      "duration": 0.0051,
      "velocity": 119,
      "chip": "ym2612"
    },
    {
      "channel": 0,
      "note": 61,
      "start": 76.6692,
      "duration": 0.0153,
      "velocity": 122,
      "chip": "ym2612"
    },
    {
      "channel": 1,
      "note": 49,
      "start": 76.6709,
      "duration": 0.1653,
      "velocity": 103,
      "chip": "ym2612"
    },
    {
      "channel": 2,
      "note": 73,
      "start": 76.6726,
      "duration": 0.3663,
      "velocity": 91,
      "chip": "ym2612"
    },
    {
      "channel": 4,
      "note": 73,
      "start": 76.6748,
      "duration": 0.3649,
      "velocity": 91,
      "chip": "ym2612"
    },
    {
      "channel": 5,
      "note": 61,
      "start": 76.6765,
      "duration": 0.009,
      "velocity": 119,
      "chip": "ym2612"
    },
    {
      "channel": 0,
      "note": 61,
      "start": 76.8715,
      "duration": 0.0153,
      "velocity": 122,
      "chip": "ym2612"
    },
    {
      "channel": 1,
      "note": 49,
      "start": 76.8732,
      "duration": 0.1655,
      "velocity": 103,
      "chip": "ym2612"
    },
    {
      "channel": 3,
      "note": 64,
      "start": 76.8785,
      "duration": 0.0092,
      "velocity": 127,
      "chip": "ym2612"
    },
    {
      "channel": 5,
      "note": 61,
      "start": 76.8804,
      "duration": 0.0076,
      "velocity": 119,
      "chip": "ym2612"
    },
    {
      "channel": 0,
      "note": 61,
      "start": 77.0737,
      "duration": 0.0153,
      "velocity": 122,
      "chip": "ym2612"
    },
    {
      "channel": 1,
      "note": 49,
      "start": 77.0754,
      "duration": 0.1653,
      "velocity": 103,
      "chip": "ym2612"
    },
    {
      "channel": 2,
      "note": 75,
      "start": 77.0771,
      "duration": 0.3661,
      "velocity": 91,
      "chip": "ym2612"
    },
    {
      "channel": 4,
      "note": 75,
      "start": 77.0792,
      "duration": 0.3647,
      "velocity": 91,
      "chip": "ym2612"
    },
    {
      "channel": 5,
      "note": 61,
      "start": 77.081,
      "duration": 0.009,
      "velocity": 119,
      "chip": "ym2612"
    },
    {
      "channel": 0,
      "note": 61,
      "start": 77.2759,
      "duration": 0.0153,
      "velocity": 122,
      "chip": "ym2612"
    },
    {
      "channel": 1,
      "note": 49,
      "start": 77.2777,
      "duration": 0.1653,
      "velocity": 103,
      "chip": "ym2612"
    },
    {
      "channel": 3,
      "note": 64,
      "start": 77.2832,
      "duration": 0.009,
      "velocity": 127,
      "chip": "ym2612"
    },
    {
      "channel": 5,
      "note": 61,
      "start": 77.285,
      "duration": 0.0074,
      "velocity": 119,
      "chip": "ym2612"
    },
    {
      "channel": 0,
      "note": 61,
      "start": 77.4781,
      "duration": 0.0153,
      "velocity": 122,
      "chip": "ym2612"
    },
    {
      "channel": 1,
      "note": 49,
      "start": 77.4799,
      "duration": 0.1653,
      "velocity": 103,
      "chip": "ym2612"
    },
    {
      "channel": 2,
      "note": 73,
      "start": 77.4815,
      "duration": 0.1639,
      "velocity": 91,
      "chip": "ym2612"
    },
    {
      "channel": 4,
      "note": 73,
      "start": 77.4837,
      "duration": 0.1625,
      "velocity": 91,
      "chip": "ym2612"
    },
    {
      "channel": 5,
      "note": 61,
      "start": 77.4855,
      "duration": 0.009,
      "velocity": 119,
      "chip": "ym2612"
    },
    {
      "channel": 0,
      "note": 61,
      "start": 77.6803,
      "duration": 0.0153,
      "velocity": 122,
      "chip": "ym2612"
    },
    {
      "channel": 1,
      "note": 49,
      "start": 77.6821,
      "duration": 0.1653,
      "velocity": 103,
      "chip": "ym2612"
    },
    {
      "channel": 2,
      "note": 75,
      "start": 77.6838,
      "duration": 0.3661,
      "velocity": 91,
      "chip": "ym2612"
    },
    {
      "channel": 3,
      "note": 64,
      "start": 77.689,
      "duration": 0.0076,
      "velocity": 127,
      "chip": "ym2612"
    },
    {
      "channel": 4,
      "note": 75,
      "start": 77.6907,
      "duration": 0.36,
      "velocity": 91,
      "chip": "ym2612"
    },
    {
      "channel": 5,
      "note": 61,
      "start": 77.6924,
      "duration": 0.0045,
      "velocity": 119,
      "chip": "ym2612"
    },
    {
      "channel": 0,
      "note": 61,
      "start": 77.8826,
      "duration": 0.0164,
      "velocity": 122,
      "chip": "ym2612"
    },
    {
      "channel": 1,
      "note": 49,
      "start": 77.8844,
      "duration": 0.1653,
      "velocity": 103,
      "chip": "ym2612"
    },
    {
      "channel": 5,
      "note": 61,
      "start": 77.8869,
      "duration": 0.0131,
      "velocity": 119,
      "chip": "ym2612"
    },
    {
      "channel": 0,
      "note": 61,
      "start": 78.0849,
      "duration": 0.0321,
      "velocity": 122,
      "chip": "ym2612"
    },
    {
      "channel": 1,
      "note": 49,
      "start": 78.0871,
      "duration": 0.1817,
      "velocity": 103,
      "chip": "ym2612"
    },
    {
      "channel": 2,
      "note": 70,
      "start": 78.0888,
      "duration": 0.1803,
      "velocity": 91,
      "chip": "ym2612"
    },
    {
      "channel": 3,
      "note": 64,
      "start": 78.0941,
      "duration": 0.0239,
      "velocity": 127,
      "chip": "ym2612"
    },
    {
      "channel": 4,
      "note": 70,
      "start": 78.0958,
      "duration": 0.174,
      "velocity": 91,
      "chip": "ym2612"
    },
    {
      "channel": 5,
      "note": 61,
      "start": 78.0975,
      "duration": 0.0208,
      "velocity": 119,
      "chip": "ym2612"
    },
    {
      "channel": 0,
      "note": 61,
      "start": 78.3046,
      "duration": 0.0147,
      "velocity": 122,
      "chip": "ym2612"
    },
    {
      "channel": 1,
      "note": 49,
      "start": 78.3064,
      "duration": 0.1647,
      "velocity": 103,
      "chip": "ym2612"
    },
    {
      "channel": 2,
      "note": 73,
      "start": 78.308,
      "duration": 0.3654,
      "velocity": 91,
      "chip": "ym2612"
    },
    {
      "channel": 4,
      "note": 73,
      "start": 78.3102,
      "duration": 0.3641,
      "velocity": 91,
      "chip": "ym2612"
    },
    {
      "channel": 5,
      "note": 61,
      "start": 78.312,
      "duration": 0.0084,
      "velocity": 119,
      "chip": "ym2612"
    },
    {
      "channel": 0,
      "note": 61,
      "start": 78.5062,
      "duration": 0.0153,
      "velocity": 122,
      "chip": "ym2612"
    },
    {
      "channel": 1,
      "note": 49,
      "start": 78.508,
      "duration": 0.1653,
      "velocity": 103,
      "chip": "ym2612"
    },
    {
      "channel": 3,
      "note": 64,
      "start": 78.5133,
      "duration": 0.0092,
      "velocity": 127,
      "chip": "ym2612"
    },
    {
      "channel": 5,
      "note": 61,
      "start": 78.5151,
      "duration": 0.0076,
      "velocity": 119,
      "chip": "ym2612"
    },
    {
      "channel": 0,
      "note": 61,
      "start": 78.7085,
      "duration": 0.0153,
      "velocity": 122,
      "chip": "ym2612"
    },
    {
      "channel": 1,
      "note": 49,
      "start": 78.7102,
      "duration": 0.1653,
      "velocity": 103,
      "chip": "ym2612"
    },
    {
      "channel": 2,
      "note": 75,
      "start": 78.7118,
      "duration": 0.3662,
      "velocity": 91,
      "chip": "ym2612"
    },
    {
      "channel": 4,
      "note": 75,
      "start": 78.714,
      "duration": 0.3647,
      "velocity": 91,
      "chip": "ym2612"
    },
    {
      "channel": 5,
      "note": 61,
      "start": 78.7158,
      "duration": 0.009,
      "velocity": 119,
      "chip": "ym2612"
    },
    {
      "channel": 0,
      "note": 61,
      "start": 78.9107,
      "duration": 0.0153,
      "velocity": 122,
      "chip": "ym2612"
    },
    {
      "channel": 1,
      "note": 49,
      "start": 78.9124,
      "duration": 0.1653,
      "velocity": 103,
      "chip": "ym2612"
    },
    {
      "channel": 3,
      "note": 64,
      "start": 78.9179,
      "duration": 0.009,
      "velocity": 127,
      "chip": "ym2612"
    },
    {
      "channel": 5,
      "note": 61,
      "start": 78.9199,
      "duration": 0.0074,
      "velocity": 119,
      "chip": "ym2612"
    },
    {
      "channel": 0,
      "note": 61,
      "start": 79.1129,
      "duration": 0.0153,
      "velocity": 122,
      "chip": "ym2612"
    },
    {
      "channel": 1,
      "note": 49,
      "start": 79.1146,
      "duration": 0.1661,
      "velocity": 103,
      "chip": "ym2612"
    },
    {
      "channel": 2,
      "note": 73,
      "start": 79.1163,
      "duration": 0.1646,
      "velocity": 91,
      "chip": "ym2612"
    },
    {
      "channel": 4,
      "note": 73,
      "start": 79.1185,
      "duration": 0.1632,
      "velocity": 91,
      "chip": "ym2612"
    },
    {
      "channel": 5,
      "note": 61,
      "start": 79.1203,
      "duration": 0.009,
      "velocity": 119,
      "chip": "ym2612"
    },
    {
      "channel": 0,
      "note": 61,
      "start": 79.3151,
      "duration": 0.0153,
      "velocity": 122,
      "chip": "ym2612"
    },
    {
      "channel": 1,
      "note": 49,
      "start": 79.3169,
      "duration": 0.1654,
      "velocity": 103,
      "chip": "ym2612"
    },
    {
      "channel": 2,
      "note": 75,
      "start": 79.3186,
      "duration": 0.3664,
      "velocity": 91,
      "chip": "ym2612"
    },
    {
      "channel": 3,
      "note": 64,
      "start": 79.3238,
      "duration": 0.0076,
      "velocity": 127,
      "chip": "ym2612"
    },
    {
      "channel": 4,
      "note": 75,
      "start": 79.3254,
      "duration": 0.3603,
      "velocity": 91,
      "chip": "ym2612"
    },
    {
      "channel": 5,
      "note": 61,
      "start": 79.3272,
      "duration": 0.0044,
      "velocity": 119,
      "chip": "ym2612"
    },
    {
      "channel": 0,
      "note": 61,
      "start": 79.5174,
      "duration": 0.0153,
      "velocity": 122,
      "chip": "ym2612"
    },
    {
      "channel": 1,
      "note": 49,
      "start": 79.5192,
      "duration": 0.1656,
      "velocity": 103,
      "chip": "ym2612"
    },
    {
      "channel": 5,
      "note": 61,
      "start": 79.5217,
      "duration": 0.012,
      "velocity": 119,
      "chip": "ym2612"
    },
    {
      "channel": 0,
      "note": 61,
      "start": 79.7197,
      "duration": 0.016,
      "velocity": 122,
      "chip": "ym2612"
    },
    {
      "channel": 1,
      "note": 49,
      "start": 79.7215,
      "duration": 0.1653,
      "velocity": 103,
      "chip": "ym2612"
    },
    {
      "channel": 2,
      "note": 69,
      "start": 79.723,
      "duration": 0.1639,
      "velocity": 91,
      "chip": "ym2612"
    },
    {
      "channel": 3,
      "note": 64,
      "start": 79.7284,
      "duration": 0.0082,
      "velocity": 127,
      "chip": "ym2612"
    },
    {
      "channel": 4,
      "note": 69,
      "start": 79.7301,
      "duration": 0.1576,
      "velocity": 91,
      "chip": "ym2612"
    },
    {
      "channel": 5,
      "note": 61,
      "start": 79.7319,
      "duration": 0.005,
      "velocity": 119,
      "chip": "ym2612"
    },
    {
      "channel": 0,
      "note": 61,
      "start": 79.9219,
      "duration": 0.0153,
      "velocity": 122,
      "chip": "ym2612"
    },
    {
      "channel": 1,
      "note": 49,
      "start": 79.9236,
      "duration": 0.1654,
      "velocity": 103,
      "chip": "ym2612"
    },
    {
      "channel": 2,
      "note": 73,
      "start": 79.9253,
      "duration": 0.3662,
      "velocity": 91,
      "chip": "ym2612"
    },
    {
      "channel": 4,
      "note": 73,
      "start": 79.9274,
      "duration": 0.3648,
      "velocity": 91,
      "chip": "ym2612"
    },
    {
      "channel": 5,
      "note": 61,
      "start": 79.9292,
      "duration": 0.009,
      "velocity": 119,
      "chip": "ym2612"
    },
    {
      "channel": 0,
      "note": 61,
      "start": 80.1241,
      "duration": 0.0154,
      "velocity": 122,
      "chip": "ym2612"
    },
    {
      "channel": 1,
      "note": 49,
      "start": 80.1259,
      "duration": 0.1653,
      "velocity": 103,
      "chip": "ym2612"
    },
    {
      "channel": 3,
      "note": 64,
      "start": 80.1312,
      "duration": 0.0092,
      "velocity": 127,
      "chip": "ym2612"
    },
    {
      "channel": 5,
      "note": 61,
      "start": 80.1331,
      "duration": 0.0076,
      "velocity": 119,
      "chip": "ym2612"
    },
    {
      "channel": 0,
      "note": 61,
      "start": 80.3264,
      "duration": 0.0153,
      "velocity": 122,
      "chip": "ym2612"
    },
    {
      "channel": 1,
      "note": 49,
      "start": 80.3281,
      "duration": 0.1653,
      "velocity": 103,
      "chip": "ym2612"
    },
    {
      "channel": 2,
      "note": 75,
      "start": 80.3298,
      "duration": 0.3662,
      "velocity": 91,
      "chip": "ym2612"
    },
    {
      "channel": 4,
      "note": 75,
      "start": 80.332,
      "duration": 0.3647,
      "velocity": 91,
      "chip": "ym2612"
    },
    {
      "channel": 5,
      "note": 61,
      "start": 80.3337,
      "duration": 0.009,
      "velocity": 119,
      "chip": "ym2612"
    },
    {
      "channel": 0,
      "note": 61,
      "start": 80.5286,
      "duration": 0.0153,
      "velocity": 122,
      "chip": "ym2612"
    },
    {
      "channel": 1,
      "note": 49,
      "start": 80.5303,
      "duration": 0.1653,
      "velocity": 103,
      "chip": "ym2612"
    },
    {
      "channel": 3,
      "note": 64,
      "start": 80.5358,
      "duration": 0.009,
      "velocity": 127,
      "chip": "ym2612"
    },
    {
      "channel": 5,
      "note": 61,
      "start": 80.5377,
      "duration": 0.0074,
      "velocity": 119,
      "chip": "ym2612"
    },
    {
      "channel": 0,
      "note": 61,
      "start": 80.7309,
      "duration": 0.0153,
      "velocity": 122,
      "chip": "ym2612"
    },
    {
      "channel": 1,
      "note": 49,
      "start": 80.7326,
      "duration": 0.1654,
      "velocity": 103,
      "chip": "ym2612"
    },
    {
      "channel": 2,
      "note": 73,
      "start": 80.7342,
      "duration": 0.1639,
      "velocity": 91,
      "chip": "ym2612"
    },
    {
      "channel": 4,
      "note": 73,
      "start": 80.7365,
      "duration": 0.1624,
      "velocity": 91,
      "chip": "ym2612"
    },
    {
      "channel": 5,
      "note": 61,
      "start": 80.7382,
      "duration": 0.009,
      "velocity": 119,
      "chip": "ym2612"
    },
    {
      "channel": 0,
      "note": 61,
      "start": 80.9331,
      "duration": 0.0159,
      "velocity": 122,
      "chip": "ym2612"
    },
    {
      "channel": 1,
      "note": 49,
      "start": 80.9349,
      "duration": 0.1653,
      "velocity": 103,
      "chip": "ym2612"
    },
    {
      "channel": 2,
      "note": 75,
      "start": 80.9365,
      "duration": 0.3661,
      "velocity": 91,
      "chip": "ym2612"
    },
    {
      "channel": 3,
      "note": 64,
      "start": 80.9417,
      "duration": 0.0081,
      "velocity": 127,
      "chip": "ym2612"
    },
    {
      "channel": 4,
      "note": 75,
      "start": 80.9434,
      "duration": 0.36,
      "velocity": 91,
      "chip": "ym2612"
    },
    {
      "channel": 5,
      "note": 61,
      "start": 80.9452,
      "duration": 0.005,
      "velocity": 119,
      "chip": "ym2612"
    },
    {
      "channel": 0,
      "note": 61,
      "start": 81.1353,
      "duration": 0.0153,
      "velocity": 122,
      "chip": "ym2612"
    },
    {
      "channel": 1,
      "note": 49,
      "start": 81.1371,
      "duration": 0.1653,
      "velocity": 103,
      "chip": "ym2612"
    },
    {
      "channel": 5,
      "note": 61,
      "start": 81.1396,
      "duration": 0.012,
      "velocity": 119,
      "chip": "ym2612"
    },
    {
      "channel": 0,
      "note": 68,
      "start": 81.3378,
      "duration": 0.3858,
      "velocity": 122,
      "chip": "ym2612"
    },
    {
      "channel": 1,
      "note": 49,
      "start": 81.34,
      "duration": 0.1815,
      "velocity": 103,
      "chip": "ym2612"
    },
    {
      "channel": 2,
      "note": 68,
      "start": 81.3419,
      "duration": 0.1798,
      "velocity": 91,
      "chip": "ym2612"
    },
    {
      "channel": 3,
      "note": 64,
      "start": 81.3473,
      "duration": 0.0233,
      "velocity": 127,
      "chip": "ym2612"
    },
    {
      "channel": 4,
      "note": 68,
      "start": 81.3493,
      "duration": 0.1732,
      "velocity": 91,
      "chip": "ym2612"
    },
    {
      "channel": 5,
      "note": 68,
      "start": 81.3513,
      "duration": 0.3735,
      "velocity": 119,
      "chip": "ym2612"
    },
    {
      "channel": 1,
      "note": 49,
      "start": 81.5568,
      "duration": 0.1671,
      "velocity": 103,
      "chip": "ym2612"
    },
    {
      "channel": 2,
      "note": 73,
      "start": 81.5584,
      "duration": 0.3686,
      "velocity": 91,
      "chip": "ym2612"
    },
    {
      "channel": 4,
      "note": 73,
      "start": 81.5606,
      "duration": 0.3672,
      "velocity": 91,
      "chip": "ym2612"
    },
    {
      "channel": 0,
      "note": 61,
      "start": 81.7588,
      "duration": 0.0155,
      "velocity": 122,
      "chip": "ym2612"
    },
    {
      "channel": 1,
      "note": 49,
      "start": 81.7606,
      "duration": 0.1663,
      "velocity": 103,
      "chip": "ym2612"
    },
    {
      "channel": 3,
      "note": 64,
      "start": 81.7659,
      "duration": 0.0093,
      "velocity": 127,
      "chip": "ym2612"
    },
    {
      "channel": 5,
      "note": 61,
      "start": 81.7676,
      "duration": 0.0078,
      "velocity": 119,
      "chip": "ym2612"
    },
    {
      "channel": 0,
      "note": 61,
      "start": 81.961,
      "duration": 0.0154,
      "velocity": 122,
      "chip": "ym2612"
    },
    {
      "channel": 1,
      "note": 49,
      "start": 81.9627,
      "duration": 0.1655,
      "velocity": 103,
      "chip": "ym2612"
    },
    {
      "channel": 2,
      "note": 75,
      "start": 81.9644,
      "duration": 0.3667,
      "velocity": 91,
      "chip": "ym2612"
    },
    {
      "channel": 4,
      "note": 75,
      "start": 81.9666,
      "duration": 0.3653,
      "velocity": 91,
      "chip": "ym2612"
    },
    {
      "channel": 5,
      "note": 61,
      "start": 81.9682,
      "duration": 0.0093,
      "velocity": 119,
      "chip": "ym2612"
    },
    {
      "channel": 0,
      "note": 61,
      "start": 82.1632,
      "duration": 0.0154,
      "velocity": 122,
      "chip": "ym2612"
    },
    {
      "channel": 1,
      "note": 49,
      "start": 82.165,
      "duration": 0.1659,
      "velocity": 103,
      "chip": "ym2612"
    },
    {
      "channel": 3,
      "note": 64,
      "start": 82.1705,
      "duration": 0.0092,
      "velocity": 127,
      "chip": "ym2612"
    },
    {
      "channel": 5,
      "note": 61,
      "start": 82.1722,
      "duration": 0.0078,
      "velocity": 119,
      "chip": "ym2612"
    },
    {
      "channel": 0,
      "note": 68,
      "start": 82.3655,
      "duration": 0.3695,
      "velocity": 122,
      "chip": "ym2612"
    },
    {
      "channel": 1,
      "note": 49,
      "start": 82.3673,
      "duration": 0.1654,
      "velocity": 103,
      "chip": "ym2612"
    },
    {
      "channel": 2,
      "note": 73,
      "start": 82.3689,
      "duration": 0.1641,
      "velocity": 91,
      "chip": "ym2612"
    },
    {
      "channel": 4,
      "note": 73,
      "start": 82.3711,
      "duration": 0.1625,
      "velocity": 91,
      "chip": "ym2612"
    },
    {
      "channel": 5,
      "note": 68,
      "start": 82.3727,
      "duration": 0.3635,
      "velocity": 119,
      "chip": "ym2612"
    },
    {
      "channel": 1,
      "note": 49,
      "start": 82.568,
      "duration": 0.1672,
      "velocity": 103,
      "chip": "ym2612"
    },
    {
      "channel": 2,
      "note": 75,
      "start": 82.5696,
      "duration": 0.3678,
      "velocity": 91,
      "chip": "ym2612"
    },
    {
      "channel": 3,
      "note": 64,
      "start": 82.5749,
      "duration": 0.0092,
      "velocity": 127,
      "chip": "ym2612"
    },
    {
      "channel": 4,
      "note": 75,
      "start": 82.5765,
      "duration": 0.3616,
      "velocity": 91,
      "chip": "ym2612"
    },
    {
      "channel": 0,
      "note": 69,
      "start": 82.77,
      "duration": 0.3693,
      "velocity": 122,
      "chip": "ym2612"
    },
    {
      "channel": 1,
      "note": 49,
      "start": 82.7718,
      "duration": 0.1654,
      "velocity": 103,
      "chip": "ym2612"
    },
    {
      "channel": 5,
      "note": 69,
      "start": 82.7741,
      "duration": 0.3666,
      "velocity": 119,
      "chip": "ym2612"
    },
    {
      "channel": 1,
      "note": 49,
      "start": 82.9725,
      "duration": 0.167,
      "velocity": 103,
      "chip": "ym2612"
    },
    {
      "channel": 2,
      "note": 69,
      "start": 82.9741,
      "duration": 0.1657,
      "velocity": 91,
      "chip": "ym2612"
    },
    {
      "channel": 3,
      "note": 64,
      "start": 82.9795,
      "duration": 0.009,
      "velocity": 127,
      "chip": "ym2612"
    },
    {
      "channel": 4,
      "note": 69,
      "start": 82.9812,
      "duration": 0.1593,
      "velocity": 91,
      "chip": "ym2612"
    },
    {
      "channel": 0,
      "note": 61,
      "start": 83.1746,
      "duration": 0.0153,
      "velocity": 122,
      "chip": "ym2612"
    },
    {
      "channel": 1,
      "note": 49,
      "start": 83.1763,
      "duration": 0.1653,
      "velocity": 103,
      "chip": "ym2612"
    },
    {
      "channel": 2,
      "note": 73,
      "start": 83.178,
      "duration": 0.3661,
      "velocity": 91,
      "chip": "ym2612"
    },
    {
      "channel": 4,
      "note": 73,
      "start": 83.1802,
      "duration": 0.3647,
      "velocity": 91,
      "chip": "ym2612"
    },
    {
      "channel": 5,
      "note": 61,
      "start": 83.182,
      "duration": 0.009,
      "velocity": 119,
      "chip": "ym2612"
    },
    {
      "channel": 0,
      "note": 61,
      "start": 83.3768,
      "duration": 0.0153,
      "velocity": 122,
      "chip": "ym2612"
    },
    {
      "channel": 1,
      "note": 49,
      "start": 83.3786,
      "duration": 0.1653,
      "velocity": 103,
      "chip": "ym2612"
    },
    {
      "channel": 3,
      "note": 64,
      "start": 83.3839,
      "duration": 0.0091,
      "velocity": 127,
      "chip": "ym2612"
    },
    {
      "channel": 5,
      "note": 61,
      "start": 83.3858,
      "duration": 0.0076,
      "velocity": 119,
      "chip": "ym2612"
    },
    {
      "channel": 0,
      "note": 61,
      "start": 83.5791,
      "duration": 0.0162,
      "velocity": 122,
      "chip": "ym2612"
    },
    {
      "channel": 1,
      "note": 49,
      "start": 83.5809,
      "duration": 0.1653,
      "velocity": 103,
      "chip": "ym2612"
    },
    {
      "channel": 2,
      "note": 75,
      "start": 83.5825,
      "duration": 0.3661,
      "velocity": 91,
      "chip": "ym2612"
    },
    {
      "channel": 4,
      "note": 75,
      "start": 83.5847,
      "duration": 0.3647,
      "velocity": 91,
      "chip": "ym2612"
    },
    {
      "channel": 5,
      "note": 61,
      "start": 83.5865,
      "duration": 0.0099,
      "velocity": 119,
      "chip": "ym2612"
    },
    {
      "channel": 0,
      "note": 61,
      "start": 83.7813,
      "duration": 0.0154,
      "velocity": 122,
      "chip": "ym2612"
    },
    {
      "channel": 1,
      "note": 49,
      "start": 83.7831,
      "duration": 0.1653,
      "velocity": 103,
      "chip": "ym2612"
    },
    {
      "channel": 3,
      "note": 64,
      "start": 83.7886,
      "duration": 0.009,
      "velocity": 127,
      "chip": "ym2612"
    },
    {
      "channel": 5,
      "note": 61,
      "start": 83.7905,
      "duration": 0.0075,
      "velocity": 119,
      "chip": "ym2612"
    },
    {
      "channel": 0,
      "note": 69,
      "start": 83.9836,
      "duration": 0.3692,
      "velocity": 122,
      "chip": "ym2612"
    },
    {
      "channel": 1,
      "note": 49,
      "start": 83.9853,
      "duration": 0.1653,
      "velocity": 103,
      "chip": "ym2612"
    },
    {
      "channel": 2,
      "note": 73,
      "start": 83.987,
      "duration": 0.1638,
      "velocity": 91,
      "chip": "ym2612"
    },
    {
      "channel": 4,
      "note": 73,
      "start": 83.9892,
      "duration": 0.1624,
      "velocity": 91,
      "chip": "ym2612"
    },
    {
      "channel": 5,
      "note": 69,
      "start": 83.991,
      "duration": 0.363,
      "velocity": 119,
      "chip": "ym2612"
    },
    {
      "channel": 1,
      "note": 49,
      "start": 84.1859,
      "duration": 0.1671,
      "velocity": 103,
      "chip": "ym2612"
    },
    {
      "channel": 2,
      "note": 75,
      "start": 84.1875,
      "duration": 0.3678,
      "velocity": 91,
      "chip": "ym2612"
    },
    {
      "channel": 3,
      "note": 64,
      "start": 84.1928,
      "duration": 0.0092,
      "velocity": 127,
      "chip": "ym2612"
    },
    {
      "channel": 4,
      "note": 75,
      "start": 84.1945,
      "duration": 0.3617,
      "velocity": 91,
      "chip": "ym2612"
    },
    {
      "channel": 0,
      "note": 70,
      "start": 84.3879,
      "duration": 0.3693,
      "velocity": 122,
      "chip": "ym2612"
    },
    {
      "channel": 1,
      "note": 49,
      "start": 84.3896,
      "duration": 0.1655,
      "velocity": 103,
      "chip": "ym2612"
    },
    {
      "channel": 5,
      "note": 70,
      "start": 84.3921,
      "duration": 0.3665,
      "velocity": 119,
      "chip": "ym2612"
    },
    {
      "channel": 1,
      "note": 49,
      "start": 84.5908,
      "duration": 0.1666,
      "velocity": 103,
      "chip": "ym2612"
    },
    {
      "channel": 2,
      "note": 70,
      "start": 84.5924,
      "duration": 0.1653,
      "velocity": 91,
      "chip": "ym2612"
    },
    {
      "channel": 3,
      "note": 64,
      "start": 84.5978,
      "duration": 0.0086,
      "velocity": 127,
      "chip": "ym2612"
    },
    {
      "channel": 4,
      "note": 70,
      "start": 84.5995,
      "duration": 0.1589,
      "velocity": 91,
      "chip": "ym2612"
    },
    {
      "channel": 0,
      "note": 61,
      "start": 84.7926,
      "duration": 0.0153,
      "velocity": 122,
      "chip": "ym2612"
    },
    {
      "channel": 1,
      "note": 49,
      "start": 84.7944,
      "duration": 0.1653,
      "velocity": 103,
      "chip": "ym2612"
    },
    {
      "channel": 2,
      "note": 73,
      "start": 84.7959,
      "duration": 0.3661,
      "velocity": 91,
      "chip": "ym2612"
    },
    {
      "channel": 4,
      "note": 73,
      "start": 84.7982,
      "duration": 0.3646,
      "velocity": 91,
      "chip": "ym2612"
    },
    {
      "channel": 5,
      "note": 61,
      "start": 84.7999,
      "duration": 0.009,
      "velocity": 119,
      "chip": "ym2612"
    },
    {
      "channel": 0,
      "note": 61,
      "start": 84.9948,
      "duration": 0.0153,
      "velocity": 122,
      "chip": "ym2612"
    },
    {
      "channel": 1,
      "note": 49,
      "start": 84.9966,
      "duration": 0.1653,
      "velocity": 103,
      "chip": "ym2612"
    },
    {
      "channel": 3,
      "note": 64,
      "start": 85.0019,
      "duration": 0.0092,
      "velocity": 127,
      "chip": "ym2612"
    },
    {
      "channel": 5,
      "note": 61,
      "start": 85.0038,
      "duration": 0.0076,
      "velocity": 119,
      "chip": "ym2612"
    },
    {
      "channel": 0,
      "note": 61,
      "start": 85.197,
      "duration": 0.0153,
      "velocity": 122,
      "chip": "ym2612"
    },
    {
      "channel": 1,
      "note": 49,
      "start": 85.1987,
      "duration": 0.1654,
      "velocity": 103,
      "chip": "ym2612"
    },
    {
      "channel": 2,
      "note": 75,
      "start": 85.2004,
      "duration": 0.3662,
      "velocity": 91,
      "chip": "ym2612"
    },
    {
      "channel": 4,
      "note": 75,
      "start": 85.2025,
      "duration": 0.3648,
      "velocity": 91,
      "chip": "ym2612"
    },
    {
      "channel": 5,
      "note": 61,
      "start": 85.2044,
      "duration": 0.009,
      "velocity": 119,
      "chip": "ym2612"
    },
    {
      "channel": 0,
      "note": 61,
      "start": 85.3993,
      "duration": 0.0153,
      "velocity": 122,
      "chip": "ym2612"
    },
    {
      "channel": 1,
      "note": 49,
      "start": 85.401,
      "duration": 0.1653,
      "velocity": 103,
      "chip": "ym2612"
    },
    {
      "channel": 3,
      "note": 64,
      "start": 85.4066,
      "duration": 0.009,
      "velocity": 127,
      "chip": "ym2612"
    },
    {
      "channel": 5,
      "note": 61,
      "start": 85.4084,
      "duration": 0.0074,
      "velocity": 119,
      "chip": "ym2612"
    },
    {
      "channel": 0,
      "note": 70,
      "start": 85.6015,
      "duration": 0.3693,
      "velocity": 122,
      "chip": "ym2612"
    },
    {
      "channel": 1,
      "note": 49,
      "start": 85.6033,
      "duration": 0.1653,
      "velocity": 103,
      "chip": "ym2612"
    },
    {
      "channel": 2,
      "note": 73,
      "start": 85.6049,
      "duration": 0.1639,
      "velocity": 91,
      "chip": "ym2612"
    },
    {
      "channel": 4,
      "note": 73,
      "start": 85.6071,
      "duration": 0.1624,
      "velocity": 91,
      "chip": "ym2612"
    },
    {
      "channel": 5,
      "note": 70,
      "start": 85.6089,
      "duration": 0.363,
      "velocity": 119,
      "chip": "ym2612"
    },
    {
      "channel": 1,
      "note": 49,
      "start": 85.8039,
      "duration": 0.1671,
      "velocity": 103,
      "chip": "ym2612"
    },
    {
      "channel": 2,
      "note": 75,
      "start": 85.8055,
      "duration": 0.3678,
      "velocity": 91,
      "chip": "ym2612"
    },
    {
      "channel": 3,
      "note": 64,
      "start": 85.8107,
      "duration": 0.0092,
      "velocity": 127,
      "chip": "ym2612"
    },
    {
      "channel": 4,
      "note": 75,
      "start": 85.8124,
      "duration": 0.3616,
      "velocity": 91,
      "chip": "ym2612"
    },
    {
      "channel": 0,
      "note": 69,
      "start": 86.0058,
      "duration": 0.3694,
      "velocity": 122,
      "chip": "ym2612"
    },
    {
      "channel": 1,
      "note": 49,
      "start": 86.0076,
      "duration": 0.1655,
      "velocity": 103,
      "chip": "ym2612"
    },
    {
      "channel": 5,
      "note": 69,
      "start": 86.0099,
      "duration": 0.3666,
      "velocity": 119,
      "chip": "ym2612"
    },
    {
      "channel": 1,
      "note": 49,
      "start": 86.2083,
      "duration": 0.1671,
      "velocity": 103,
      "chip": "ym2612"
    },
    {
      "channel": 2,
      "note": 69,
      "start": 86.21,
      "duration": 0.1656,
      "velocity": 91,
      "chip": "ym2612"
    },
    {
      "channel": 3,
      "note": 64,
      "start": 86.2154,
      "duration": 0.009,
      "velocity": 127,
      "chip": "ym2612"
    },
    {
      "channel": 4,
      "note": 69,
      "start": 86.2171,
      "duration": 0.1593,
      "velocity": 91,
      "chip": "ym2612"
    },
    {
      "channel": 0,
      "note": 61,
      "start": 86.4105,
      "duration": 0.0153,
      "velocity": 122,
      "chip": "ym2612"
    },
    {
      "channel": 1,
      "note": 49,
      "start": 86.4122,
      "duration": 0.1653,
      "velocity": 103,
      "chip": "ym2612"
    },
    {
      "channel": 2,
      "note": 73,
      "start": 86.4139,
      "duration": 0.3661,
      "velocity": 91,
      "chip": "ym2612"
    },
    {
      "channel": 4,
      "note": 73,
      "start": 86.416,
      "duration": 0.3647,
      "velocity": 91,
      "chip": "ym2612"
    },
    {
      "channel": 5,
      "note": 61,
      "start": 86.4178,
      "duration": 0.009,
      "velocity": 119,
      "chip": "ym2612"
    },
    {
      "channel": 0,
      "note": 61,
      "start": 86.6127,
      "duration": 0.0153,
      "velocity": 122,
      "chip": "ym2612"
    },
    {
      "channel": 1,
      "note": 49,
      "start": 86.6144,
      "duration": 0.1653,
      "velocity": 103,
      "chip": "ym2612"
    },
    {
      "channel": 3,
      "note": 64,
      "start": 86.6199,
      "duration": 0.0091,
      "velocity": 127,
      "chip": "ym2612"
    },
    {
      "channel": 5,
      "note": 61,
      "start": 86.6217,
      "duration": 0.0076,
      "velocity": 119,
      "chip": "ym2612"
    },
    {
      "channel": 0,
      "note": 61,
      "start": 86.815,
      "duration": 0.0153,
      "velocity": 122,
      "chip": "ym2612"
    },
    {
      "channel": 1,
      "note": 49,
      "start": 86.8167,
      "duration": 0.1653,
      "velocity": 103,
      "chip": "ym2612"
    },
    {
      "channel": 2,
      "note": 75,
      "start": 86.8183,
      "duration": 0.3662,
      "velocity": 91,
      "chip": "ym2612"
    },
    {
      "channel": 4,
      "note": 75,
      "start": 86.8205,
      "duration": 0.3647,
      "velocity": 91,
      "chip": "ym2612"
    },
    {
      "channel": 5,
      "note": 61,
      "start": 86.8223,
      "duration": 0.009,
      "velocity": 119,
      "chip": "ym2612"
    },
    {
      "channel": 0,
      "note": 61,
      "start": 87.0172,
      "duration": 0.0153,
      "velocity": 122,
      "chip": "ym2612"
    },
    {
      "channel": 1,
      "note": 49,
      "start": 87.019,
      "duration": 0.1653,
      "velocity": 103,
      "chip": "ym2612"
    },
    {
      "channel": 3,
      "note": 64,
      "start": 87.0248,
      "duration": 0.0087,
      "velocity": 127,
      "chip": "ym2612"
    },
    {
      "channel": 5,
      "note": 61,
      "start": 87.0267,
      "duration": 0.007,
      "velocity": 119,
      "chip": "ym2612"
    },
    {
      "channel": 0,
      "note": 69,
      "start": 87.2194,
      "duration": 0.3693,
      "velocity": 122,
      "chip": "ym2612"
    },
    {
      "channel": 1,
      "note": 49,
      "start": 87.2212,
      "duration": 0.1654,
      "velocity": 103,
      "chip": "ym2612"
    },
    {
      "channel": 2,
      "note": 73,
      "start": 87.2228,
      "duration": 0.1639,
      "velocity": 91,
      "chip": "ym2612"
    },
    {
      "channel": 3,
      "note": 76,
      "start": 87.2283,
      "duration": 0.0073,
      "velocity": 127,
      "chip": "ym2612"
    },
    {
      "channel": 4,
      "note": 73,
      "start": 87.23,
      "duration": 0.1576,
      "velocity": 91,
      "chip": "ym2612"
    },
    {
      "channel": 5,
      "note": 69,
      "start": 87.2317,
      "duration": 0.3581,
      "velocity": 119,
      "chip": "ym2612"
    },
    {
      "channel": 3,
      "note": 76,
      "start": 87.2706,
      "duration": 0.0155,
      "velocity": 127,
      "chip": "ym2612"
    },
    {
      "channel": 1,
      "note": 49,
      "start": 87.4218,
      "duration": 0.1671,
      "velocity": 103,
      "chip": "ym2612"
    },
    {
      "channel": 2,
      "note": 75,
      "start": 87.4234,
      "duration": 0.3679,
      "velocity": 91,
      "chip": "ym2612"
    },
    {
      "channel": 3,
      "note": 73,
      "start": 87.4257,
      "duration": 0.0121,
      "velocity": 127,
      "chip": "ym2612"
    },
    {
      "channel": 4,
      "note": 75,
      "start": 87.4274,
      "duration": 0.3647,
      "velocity": 91,
      "chip": "ym2612"
    },
    {
      "channel": 0,
      "note": 68,
      "start": 87.6243,
      "duration": 0.1666,
      "velocity": 122,
      "chip": "ym2612"
    },
    {
      "channel": 1,
      "note": 49,
      "start": 87.626,
      "duration": 0.1651,
      "velocity": 103,
      "chip": "ym2612"
    },
    {
      "channel": 3,
      "note": 68,
      "start": 87.6284,
      "duration": 0.0117,
      "velocity": 127,
      "chip": "ym2612"
    },
    {
      "channel": 5,
      "note": 68,
      "start": 87.6302,
      "duration": 0.1621,
      "velocity": 119,
      "chip": "ym2612"
    },
    {
      "channel": 0,
      "note": 61,
      "start": 87.8264,
      "duration": 0.3858,
      "velocity": 122,
      "chip": "ym2612"
    },
    {
      "channel": 1,
      "note": 49,
      "start": 87.8286,
      "duration": 0.1815,
      "velocity": 103,
      "chip": "ym2612"
    },
    {
      "channel": 3,
      "note": 64,
      "start": 87.8366,
      "duration": 0.0226,
      "velocity": 127,
      "chip": "ym2612"
    },
    {
      "channel": 5,
      "note": 61,
      "start": 87.8407,
      "duration": 0.3727,
      "velocity": 119,
      "chip": "ym2612"
    },
    {
      "channel": 1,
      "note": 49,
      "start": 88.0454,
      "duration": 0.1671,
      "velocity": 103,
      "chip": "ym2612"
    },
    {
      "channel": 0,
      "note": 61,
      "start": 88.2473,
      "duration": 0.0155,
      "velocity": 122,
      "chip": "ym2612"
    },
    {
      "channel": 1,
      "note": 49,
      "start": 88.2491,
      "duration": 0.1655,
      "velocity": 103,
      "chip": "ym2612"
    },
    {
      "channel": 3,
      "note": 64,
      "start": 88.2545,
      "duration": 0.0093,
      "velocity": 127,
      "chip": "ym2612"
    },
    {
      "channel": 5,
      "note": 61,
      "start": 88.2562,
      "duration": 0.0079,
      "velocity": 119,
      "chip": "ym2612"
    },
    {
      "channel": 0,
      "note": 61,
      "start": 88.4496,
      "duration": 0.0154,
      "velocity": 122,
      "chip": "ym2612"
    },
    {
      "channel": 1,
      "note": 49,
      "start": 88.4513,
      "duration": 0.1655,
      "velocity": 103,
      "chip": "ym2612"
    },
    {
      "channel": 5,
      "note": 61,
      "start": 88.4537,
      "duration": 0.0124,
      "velocity": 119,
      "chip": "ym2612"
    },
    {
      "channel": 0,
      "note": 61,
      "start": 88.6518,
      "duration": 0.0155,
      "velocity": 122,
      "chip": "ym2612"
    },
    {
      "channel": 1,
      "note": 49,
      "start": 88.6536,
      "duration": 0.1655,
      "velocity": 103,
      "chip": "ym2612"
    },
    {
      "channel": 3,
      "note": 64,
      "start": 88.6591,
      "duration": 0.0092,
      "velocity": 127,
      "chip": "ym2612"
    },
    {
      "channel": 5,
      "note": 61,
      "start": 88.6608,
      "duration": 0.0077,
      "velocity": 119,
      "chip": "ym2612"
    },
    {
      "channel": 0,
      "note": 63,
      "start": 88.8541,
      "duration": 0.3693,
      "velocity": 122,
      "chip": "ym2612"
    },
    {
      "channel": 1,
      "note": 49,
      "start": 88.8559,
      "duration": 0.1655,
      "velocity": 103,
      "chip": "ym2612"
    },
    {
      "channel": 5,
      "note": 63,
      "start": 88.8583,
      "duration": 0.3663,
      "velocity": 119,
      "chip": "ym2612"
    },
    {
      "channel": 1,
      "note": 49,
      "start": 89.0566,
      "duration": 0.1671,
      "velocity": 103,
      "chip": "ym2612"
    },
    {
      "channel": 3,
      "note": 64,
      "start": 89.0619,
      "duration": 0.0107,
      "velocity": 127,
      "chip": "ym2612"
    },
    {
      "channel": 0,
      "note": 65,
      "start": 89.2585,
      "duration": 0.3694,
      "velocity": 122,
      "chip": "ym2612"
    },
    {
      "channel": 1,
      "note": 49,
      "start": 89.2603,
      "duration": 0.1654,
      "velocity": 103,
      "chip": "ym2612"
    },
    {
      "channel": 5,
      "note": 65,
      "start": 89.2627,
      "duration": 0.3664,
      "velocity": 119,
      "chip": "ym2612"
    },
    {
      "channel": 1,
      "note": 49,
      "start": 89.461,
      "duration": 0.1671,
      "velocity": 103,
      "chip": "ym2612"
    },
    {
      "channel": 3,
      "note": 64,
      "start": 89.4682,
      "duration": 0.0089,
      "velocity": 127,
      "chip": "ym2612"
    },
    {
      "channel": 0,
      "note": 61,
      "start": 89.663,
      "duration": 0.0155,
      "velocity": 122,
      "chip": "ym2612"
    },
    {
      "channel": 1,
      "note": 49,
      "start": 89.6648,
      "duration": 0.1655,
      "velocity": 103,
      "chip": "ym2612"
    },
    {
      "channel": 5,
      "note": 61,
      "start": 89.6672,
      "duration": 0.0123,
      "velocity": 119,
      "chip": "ym2612"
    },
    {
      "channel": 0,
      "note": 61,
      "start": 89.8653,
      "duration": 0.0154,
      "velocity": 122,
      "chip": "ym2612"
    },
    {
      "channel": 1,
      "note": 49,
      "start": 89.867,
      "duration": 0.1655,
      "velocity": 103,
      "chip": "ym2612"
    },
    {
      "channel": 3,
      "note": 64,
      "start": 89.8724,
      "duration": 0.0093,
      "velocity": 127,
      "chip": "ym2612"
    },
    {
      "channel": 5,
      "note": 61,
      "start": 89.8741,
      "duration": 0.0079,
      "velocity": 119,
      "chip": "ym2612"
    },
    {
      "channel": 0,
      "note": 61,
      "start": 90.0675,
      "duration": 0.0154,
      "velocity": 122,
      "chip": "ym2612"
    },
    {
      "channel": 1,
      "note": 49,
      "start": 90.0693,
      "duration": 0.1655,
      "velocity": 103,
      "chip": "ym2612"
    },
    {
      "channel": 5,
      "note": 61,
      "start": 90.0716,
      "duration": 0.0124,
      "velocity": 119,
      "chip": "ym2612"
    },
    {
      "channel": 0,
      "note": 61,
      "start": 90.2707,
      "duration": 0.0146,
      "velocity": 122,
      "chip": "ym2612"
    },
    {
      "channel": 1,
      "note": 49,
      "start": 90.2725,
      "duration": 0.1646,
      "velocity": 103,
      "chip": "ym2612"
    },
    {
      "channel": 3,
      "note": 64,
      "start": 90.2779,
      "duration": 0.0082,
      "velocity": 127,
      "chip": "ym2612"
    },
    {
      "channel": 5,
      "note": 61,
      "start": 90.2797,
      "duration": 0.0069,
      "velocity": 119,
      "chip": "ym2612"
    },
    {
      "channel": 0,
      "note": 65,
      "start": 90.472,
      "duration": 0.3694,
      "velocity": 122,
      "chip": "ym2612"
    },
    {
      "channel": 1,
      "note": 49,
      "start": 90.4738,
      "duration": 0.1655,
      "velocity": 103,
      "chip": "ym2612"
    },
    {
      "channel": 5,
      "note": 65,
      "start": 90.4761,
      "duration": 0.3663,
      "velocity": 119,
      "chip": "ym2612"
    },
    {
      "channel": 1,
      "note": 49,
      "start": 90.6748,
      "duration": 0.1668,
      "velocity": 103,
      "chip": "ym2612"
    },
    {
      "channel": 3,
      "note": 64,
      "start": 90.6801,
      "duration": 0.0104,
      "velocity": 127,
      "chip": "ym2612"
    },
    {
      "channel": 0,
      "note": 66,
      "start": 90.8765,
      "duration": 0.3704,
      "velocity": 122,
      "chip": "ym2612"
    },
    {
      "channel": 1,
      "note": 49,
      "start": 90.8782,
      "duration": 0.1655,
      "velocity": 103,
      "chip": "ym2612"
    },
    {
      "channel": 5,
      "note": 66,
      "start": 90.8805,
      "duration": 0.3674,
      "velocity": 119,
      "chip": "ym2612"
    },
    {
      "channel": 1,
      "note": 49,
      "start": 91.079,
      "duration": 0.168,
      "velocity": 103,
      "chip": "ym2612"
    },
    {
      "channel": 3,
      "note": 64,
      "start": 91.0861,
      "duration": 0.0089,
      "velocity": 127,
      "chip": "ym2612"
    },
    {
      "channel": 0,
      "note": 61,
      "start": 91.281,
      "duration": 0.0155,
      "velocity": 122,
      "chip": "ym2612"
    },
    {
      "channel": 1,
      "note": 49,
      "start": 91.2828,
      "duration": 0.1655,
      "velocity": 103,
      "chip": "ym2612"
    },
    {
      "channel": 5,
      "note": 61,
      "start": 91.2851,
      "duration": 0.0123,
      "velocity": 119,
      "chip": "ym2612"
    },
    {
      "channel": 0,
      "note": 61,
      "start": 91.4832,
      "duration": 0.0154,
      "velocity": 122,
      "chip": "ym2612"
    },
    {
      "channel": 1,
      "note": 49,
      "start": 91.4849,
      "duration": 0.1661,
      "velocity": 103,
      "chip": "ym2612"
    },
    {
      "channel": 3,
      "note": 64,
      "start": 91.4903,
      "duration": 0.0093,
      "velocity": 127,
      "chip": "ym2612"
    },
    {
      "channel": 5,
      "note": 61,
      "start": 91.492,
      "duration": 0.0079,
      "velocity": 119,
      "chip": "ym2612"
    },
    {
      "channel": 0,
      "note": 61,
      "start": 91.6855,
      "duration": 0.0154,
      "velocity": 122,
      "chip": "ym2612"
    },
    {
      "channel": 1,
      "note": 49,
      "start": 91.6873,
      "duration": 0.1654,
      "velocity": 103,
      "chip": "ym2612"
    },
    {
      "channel": 5,
      "note": 61,
      "start": 91.6896,
      "duration": 0.0123,
      "velocity": 119,
      "chip": "ym2612"
    },
    {
      "channel": 0,
      "note": 61,
      "start": 91.8877,
      "duration": 0.0155,
      "velocity": 122,
      "chip": "ym2612"
    },
    {
      "channel": 1,
      "note": 49,
      "start": 91.8895,
      "duration": 0.1654,
      "velocity": 103,
      "chip": "ym2612"
    },
    {
      "channel": 3,
      "note": 64,
      "start": 91.895,
      "duration": 0.0092,
      "velocity": 127,
      "chip": "ym2612"
    },
    {
      "channel": 5,
      "note": 61,
      "start": 91.8967,
      "duration": 0.0078,
      "velocity": 119,
      "chip": "ym2612"
    },
    {
      "channel": 0,
      "note": 61,
      "start": 92.0899,
      "duration": 0.0155,
      "velocity": 122,
      "chip": "ym2612"
    },
    {
      "channel": 1,
      "note": 49,
      "start": 92.0917,
      "duration": 0.1655,
      "velocity": 103,
      "chip": "ym2612"
    },
    {
      "channel": 5,
      "note": 61,
      "start": 92.094,
      "duration": 0.0124,
      "velocity": 119,
      "chip": "ym2612"
    },
    {
      "channel": 0,
      "note": 61,
      "start": 92.2922,
      "duration": 0.0155,
      "velocity": 122,
      "chip": "ym2612"
    },
    {
      "channel": 1,
      "note": 49,
      "start": 92.2939,
      "duration": 0.1655,
      "velocity": 103,
      "chip": "ym2612"
    },
    {
      "channel": 3,
      "note": 64,
      "start": 92.2993,
      "duration": 0.0093,
      "velocity": 127,
      "chip": "ym2612"
    },
    {
      "channel": 5,
      "note": 61,
      "start": 92.301,
      "duration": 0.008,
      "velocity": 119,
      "chip": "ym2612"
    },
    {
      "channel": 0,
      "note": 61,
      "start": 92.4944,
      "duration": 0.0155,
      "velocity": 122,
      "chip": "ym2612"
    },
    {
      "channel": 1,
      "note": 49,
      "start": 92.4962,
      "duration": 0.1655,
      "velocity": 103,
      "chip": "ym2612"
    },
    {
      "channel": 5,
      "note": 61,
      "start": 92.4985,
      "duration": 0.0123,
      "velocity": 119,
      "chip": "ym2612"
    },
    {
      "channel": 0,
      "note": 61,
      "start": 92.697,
      "duration": 0.3859,
      "velocity": 122,
      "chip": "ym2612"
    },
    {
      "channel": 1,
      "note": 49,
      "start": 92.699,
      "duration": 0.3841,
      "velocity": 103,
      "chip": "ym2612"
    },
    {
      "channel": 3,
      "note": 64,
      "start": 92.7062,
      "duration": 0.0237,
      "velocity": 127,
      "chip": "ym2612"
    },
    {
      "channel": 5,
      "note": 61,
      "start": 92.7099,
      "duration": 0.3742,
      "velocity": 119,
      "chip": "ym2612"
    },
    {
      "channel": 0,
      "note": 61,
      "start": 93.118,
      "duration": 0.0155,
      "velocity": 122,
      "chip": "ym2612"
    },
    {
      "channel": 1,
      "note": 49,
      "start": 93.1196,
      "duration": 0.1656,
      "velocity": 103,
      "chip": "ym2612"
    },
    {
      "channel": 3,
      "note": 64,
      "start": 93.1249,
      "duration": 0.0095,
      "velocity": 127,
      "chip": "ym2612"
    },
    {
      "channel": 5,
      "note": 61,
      "start": 93.1267,
      "duration": 0.008,
      "velocity": 119,
      "chip": "ym2612"
    },
    {
      "channel": 0,
      "note": 60,
      "start": 93.3207,
      "duration": 0.369,
      "velocity": 122,
      "chip": "ym2612"
    },
    {
      "channel": 1,
      "note": 48,
      "start": 93.3223,
      "duration": 0.3675,
      "velocity": 103,
      "chip": "ym2612"
    },
    {
      "channel": 5,
      "note": 60,
      "start": 93.3248,
      "duration": 0.366,
      "velocity": 119,
      "chip": "ym2612"
    },
    {
      "channel": 3,
      "note": 64,
      "start": 93.5266,
      "duration": 0.0122,
      "velocity": 127,
      "chip": "ym2612"
    },
    {
      "channel": 0,
      "note": 60,
      "start": 93.7248,
      "duration": 0.0154,
      "velocity": 122,
      "chip": "ym2612"
    },
    {
      "channel": 1,
      "note": 48,
      "start": 93.7264,
      "duration": 0.1655,
      "velocity": 103,
      "chip": "ym2612"
    },
    {
      "channel": 5,
      "note": 60,
      "start": 93.7288,
      "duration": 0.0125,
      "velocity": 119,
      "chip": "ym2612"
    },
    {
      "channel": 0,
      "note": 60,
      "start": 93.9269,
      "duration": 0.0155,
      "velocity": 122,
      "chip": "ym2612"
    },
    {
      "channel": 1,
      "note": 48,
      "start": 93.9285,
      "duration": 0.1657,
      "velocity": 103,
      "chip": "ym2612"
    },
    {
      "channel": 3,
      "note": 64,
      "start": 93.9339,
      "duration": 0.0095,
      "velocity": 127,
      "chip": "ym2612"
    },
    {
      "channel": 5,
      "note": 60,
      "start": 93.9356,
      "duration": 0.008,
      "velocity": 119,
      "chip": "ym2612"
    },
    {
      "channel": 0,
      "note": 60,
      "start": 94.1291,
      "duration": 0.0155,
      "velocity": 122,
      "chip": "ym2612"
    },
    {
      "channel": 1,
      "note": 48,
      "start": 94.1308,
      "duration": 0.1662,
      "velocity": 103,
      "chip": "ym2612"
    },
    {
      "channel": 5,
      "note": 60,
      "start": 94.1332,
      "duration": 0.0125,
      "velocity": 119,
      "chip": "ym2612"
    },
    {
      "channel": 0,
      "note": 61,
      "start": 94.3317,
      "duration": 0.3859,
      "velocity": 122,
      "chip": "ym2612"
    },
    {
      "channel": 1,
      "note": 49,
      "start": 94.3338,
      "duration": 0.1817,
      "velocity": 103,
      "chip": "ym2612"
    },
    {
      "channel": 3,
      "note": 64,
      "start": 94.341,
      "duration": 0.0236,
      "velocity": 127,
      "chip": "ym2612"
    },
    {
      "channel": 5,
      "note": 61,
      "start": 94.3447,
      "duration": 0.3742,
      "velocity": 119,
      "chip": "ym2612"
    },
    {
      "channel": 1,
      "note": 49,
      "start": 94.5508,
      "duration": 0.1671,
      "velocity": 103,
      "chip": "ym2612"
    },
    {
      "channel": 0,
      "note": 61,
      "start": 94.7528,
      "duration": 0.0154,
      "velocity": 122,
      "chip": "ym2612"
    },
    {
      "channel": 1,
      "note": 49,
      "start": 94.7546,
      "duration": 0.1655,
      "velocity": 103,
      "chip": "ym2612"
    },
    {
      "channel": 3,
      "note": 64,
      "start": 94.7599,
      "duration": 0.0093,
      "velocity": 127,
      "chip": "ym2612"
    },
    {
      "channel": 5,
      "note": 61,
      "start": 94.7617,
      "duration": 0.0078,
      "velocity": 119,
      "chip": "ym2612"
    },
    {
      "channel": 0,
      "note": 61,
      "start": 94.955,
      "duration": 0.0155,
      "velocity": 122,
      "chip": "ym2612"
    },
    {
      "channel": 1,
      "note": 49,
      "start": 94.9568,
      "duration": 0.1655,
      "velocity": 103,
      "chip": "ym2612"
    },
    {
      "channel": 5,
      "note": 61,
      "start": 94.9591,
      "duration": 0.0124,
      "velocity": 119,
      "chip": "ym2612"
    },
    {
      "channel": 0,
      "note": 61,
      "start": 95.1573,
      "duration": 0.0155,
      "velocity": 122,
      "chip": "ym2612"
    },
    {
      "channel": 1,
      "note": 49,
      "start": 95.159,
      "duration": 0.1655,
      "velocity": 103,
      "chip": "ym2612"
    },
    {
      "channel": 3,
      "note": 64,
      "start": 95.1645,
      "duration": 0.0092,
      "velocity": 127,
      "chip": "ym2612"
    },
    {
      "channel": 5,
      "note": 61,
      "start": 95.1662,
      "duration": 0.0078,
      "velocity": 119,
      "chip": "ym2612"
    },
    {
      "channel": 0,
      "note": 63,
      "start": 95.3595,
      "duration": 0.3694,
      "velocity": 122,
      "chip": "ym2612"
    },
    {
      "channel": 1,
      "note": 49,
      "start": 95.3613,
      "duration": 0.1654,
      "velocity": 103,
      "chip": "ym2612"
    },
    {
      "channel": 5,
      "note": 63,
      "start": 95.3637,
      "duration": 0.3663,
      "velocity": 119,
      "chip": "ym2612"
    },
    {
      "channel": 1,
      "note": 49,
      "start": 95.562,
      "duration": 0.1671,
      "velocity": 103,
      "chip": "ym2612"
    },
    {
      "channel": 3,
      "note": 64,
      "start": 95.5673,
      "duration": 0.0107,
      "velocity": 127,
      "chip": "ym2612"
    },
    {
      "channel": 0,
      "note": 65,
      "start": 95.764,
      "duration": 0.3693,
      "velocity": 122,
      "chip": "ym2612"
    },
    {
      "channel": 1,
      "note": 49,
      "start": 95.7657,
      "duration": 0.1655,
      "velocity": 103,
      "chip": "ym2612"
    },
    {
      "channel": 5,
      "note": 65,
      "start": 95.7681,
      "duration": 0.3664,
      "velocity": 119,
      "chip": "ym2612"
    },
    {
      "channel": 1,
      "note": 49,
      "start": 95.9671,
      "duration": 0.1665,
      "velocity": 103,
      "chip": "ym2612"
    },
    {
      "channel": 3,
      "note": 64,
      "start": 95.9742,
      "duration": 0.0083,
      "velocity": 127,
      "chip": "ym2612"
    },
    {
      "channel": 0,
      "note": 61,
      "start": 96.1685,
      "duration": 0.0155,
      "velocity": 122,
      "chip": "ym2612"
    },
    {
      "channel": 1,
      "note": 49,
      "start": 96.1702,
      "duration": 0.1655,
      "velocity": 103,
      "chip": "ym2612"
    },
    {
      "channel": 5,
      "note": 61,
      "start": 96.1727,
      "duration": 0.0123,
      "velocity": 119,
      "chip": "ym2612"
    },
    {
      "channel": 0,
      "note": 61,
      "start": 96.3709,
      "duration": 0.0153,
      "velocity": 122,
      "chip": "ym2612"
    },
    {
      "channel": 1,
      "note": 49,
      "start": 96.3727,
      "duration": 0.1653,
      "velocity": 103,
      "chip": "ym2612"
    },
    {
      "channel": 3,
      "note": 64,
      "start": 96.3779,
      "duration": 0.0092,
      "velocity": 127,
      "chip": "ym2612"
    },
    {
      "channel": 5,
      "note": 61,
      "start": 96.3797,
      "duration": 0.0078,
      "velocity": 119,
      "chip": "ym2612"
    },
    {
      "channel": 0,
      "note": 61,
      "start": 96.5729,
      "duration": 0.0155,
      "velocity": 122,
      "chip": "ym2612"
    },
    {
      "channel": 1,
      "note": 49,
      "start": 96.5747,
      "duration": 0.1655,
      "velocity": 103,
      "chip": "ym2612"
    },
    {
      "channel": 5,
      "note": 61,
      "start": 96.5771,
      "duration": 0.0124,
      "velocity": 119,
      "chip": "ym2612"
    },
    {
      "channel": 0,
      "note": 61,
      "start": 96.7751,
      "duration": 0.0155,
      "velocity": 122,
      "chip": "ym2612"
    },
    {
      "channel": 1,
      "note": 49,
      "start": 96.7769,
      "duration": 0.1661,
      "velocity": 103,
      "chip": "ym2612"
    },
    {
      "channel": 3,
      "note": 64,
      "start": 96.7824,
      "duration": 0.0092,
      "velocity": 127,
      "chip": "ym2612"
    },
    {
      "channel": 5,
      "note": 61,
      "start": 96.7842,
      "duration": 0.0078,
      "velocity": 119,
      "chip": "ym2612"
    },
    {
      "channel": 0,
      "note": 65,
      "start": 96.9775,
      "duration": 0.3698,
      "velocity": 122,
      "chip": "ym2612"
    },
    {
      "channel": 1,
      "note": 49,
      "start": 96.9792,
      "duration": 0.1655,
      "velocity": 103,
      "chip": "ym2612"
    },
    {
      "channel": 5,
      "note": 65,
      "start": 96.9816,
      "duration": 0.3668,
      "velocity": 119,
      "chip": "ym2612"
    },
    {
      "channel": 1,
      "note": 49,
      "start": 97.1799,
      "duration": 0.1676,
      "velocity": 103,
      "chip": "ym2612"
    },
    {
      "channel": 3,
      "note": 64,
      "start": 97.1852,
      "duration": 0.0108,
      "velocity": 127,
      "chip": "ym2612"
    },
    {
      "channel": 0,
      "note": 66,
      "start": 97.382,
      "duration": 0.3695,
      "velocity": 122,
      "chip": "ym2612"
    },
    {
      "channel": 1,
      "note": 49,
      "start": 97.3837,
      "duration": 0.1655,
      "velocity": 103,
      "chip": "ym2612"
    },
    {
      "channel": 5,
      "note": 66,
      "start": 97.386,
      "duration": 0.3666,
      "velocity": 119,
      "chip": "ym2612"
    },
    {
      "channel": 1,
      "note": 49,
      "start": 97.5844,
      "duration": 0.1672,
      "velocity": 103,
      "chip": "ym2612"
    },
    {
      "channel": 3,
      "note": 64,
      "start": 97.5916,
      "duration": 0.0088,
      "velocity": 127,
      "chip": "ym2612"
    },
    {
      "channel": 0,
      "note": 61,
      "start": 97.7865,
      "duration": 0.0154,
      "velocity": 122,
      "chip": "ym2612"
    },
    {
      "channel": 1,
      "note": 49,
      "start": 97.7882,
      "duration": 0.1654,
      "velocity": 103,
      "chip": "ym2612"
    },
    {
      "channel": 5,
      "note": 61,
      "start": 97.7906,
      "duration": 0.0123,
      "velocity": 119,
      "chip": "ym2612"
    },
    {
      "channel": 0,
      "note": 61,
      "start": 97.9886,
      "duration": 0.0155,
      "velocity": 122,
      "chip": "ym2612"
    },
    {
      "channel": 1,
      "note": 49,
      "start": 97.9904,
      "duration": 0.1654,
      "velocity": 103,
      "chip": "ym2612"
    },
    {
      "channel": 3,
      "note": 64,
      "start": 97.9957,
      "duration": 0.0094,
      "velocity": 127,
      "chip": "ym2612"
    },
    {
      "channel": 5,
      "note": 61,
      "start": 97.9974,
      "duration": 0.008,
      "velocity": 119,
      "chip": "ym2612"
    },
    {
      "channel": 0,
      "note": 61,
      "start": 98.1909,
      "duration": 0.0155,
      "velocity": 122,
      "chip": "ym2612"
    },
    {
      "channel": 1,
      "note": 49,
      "start": 98.1926,
      "duration": 0.1655,
      "velocity": 103,
      "chip": "ym2612"
    },
    {
      "channel": 5,
      "note": 61,
      "start": 98.195,
      "duration": 0.0124,
      "velocity": 119,
      "chip": "ym2612"
    },
    {
      "channel": 0,
      "note": 61,
      "start": 98.3931,
      "duration": 0.0155,
      "velocity": 122,
      "chip": "ym2612"
    },
    {
      "channel": 1,
      "note": 49,
      "start": 98.3949,
      "duration": 0.1655,
      "velocity": 103,
      "chip": "ym2612"
    },
    {
      "channel": 3,
      "note": 64,
      "start": 98.4004,
      "duration": 0.0092,
      "velocity": 127,
      "chip": "ym2612"
    },
    {
      "channel": 5,
      "note": 61,
      "start": 98.4022,
      "duration": 0.0076,
      "velocity": 119,
      "chip": "ym2612"
    },
    {
      "channel": 0,
      "note": 61,
      "start": 98.5954,
      "duration": 0.0161,
      "velocity": 122,
      "chip": "ym2612"
    },
    {
      "channel": 1,
      "note": 49,
      "start": 98.5971,
      "duration": 0.1655,
      "velocity": 103,
      "chip": "ym2612"
    },
    {
      "channel": 5,
      "note": 61,
      "start": 98.5994,
      "duration": 0.0131,
      "velocity": 119,
      "chip": "ym2612"
    },
    {
      "channel": 0,
      "note": 61,
      "start": 98.7976,
      "duration": 0.0154,
      "velocity": 122,
      "chip": "ym2612"
    },
    {
      "channel": 1,
      "note": 49,
      "start": 98.7994,
      "duration": 0.1655,
      "velocity": 103,
      "chip": "ym2612"
    },
    {
      "channel": 3,
      "note": 64,
      "start": 98.8047,
      "duration": 0.0093,
      "velocity": 127,
      "chip": "ym2612"
    },
    {
      "channel": 5,
      "note": 61,
      "start": 98.8064,
      "duration": 0.0079,
      "velocity": 119,
      "chip": "ym2612"
    },
    {
      "channel": 0,
      "note": 61,
      "start": 98.9998,
      "duration": 0.0157,
      "velocity": 122,
      "chip": "ym2612"
    },
    {
      "channel": 1,
      "note": 49,
      "start": 99.0016,
      "duration": 0.1655,
      "velocity": 103,
      "chip": "ym2612"
    },
    {
      "channel": 5,
      "note": 61,
      "start": 99.0039,
      "duration": 0.0127,
      "velocity": 119,
      "chip": "ym2612"
    },
    {
      "channel": 0,
      "note": 61,
      "start": 99.2024,
      "duration": 0.3868,
      "velocity": 122,
      "chip": "ym2612"
    },
    {
      "channel": 1,
      "note": 49,
      "start": 99.2045,
      "duration": 0.3849,
      "velocity": 103,
      "chip": "ym2612"
    },
    {
      "channel": 3,
      "note": 64,
      "start": 99.2116,
      "duration": 0.0237,
      "velocity": 127,
      "chip": "ym2612"
    },
    {
      "channel": 5,
      "note": 61,
      "start": 99.2153,
      "duration": 0.375,
      "velocity": 119,
      "chip": "ym2612"
    },
    {
      "channel": 0,
      "note": 61,
      "start": 99.6234,
      "duration": 0.0154,
      "velocity": 122,
      "chip": "ym2612"
    },
    {
      "channel": 1,
      "note": 49,
      "start": 99.6251,
      "duration": 0.1656,
      "velocity": 103,
      "chip": "ym2612"
    },
    {
      "channel": 3,
      "note": 64,
      "start": 99.6304,
      "duration": 0.0094,
      "velocity": 127,
      "chip": "ym2612"
    },
    {
      "channel": 5,
      "note": 61,
      "start": 99.6321,
      "duration": 0.008,
      "velocity": 119,
      "chip": "ym2612"
    },
    {
      "channel": 0,
      "note": 60,
      "start": 99.8256,
      "duration": 0.3694,
      "velocity": 122,
      "chip": "ym2612"
    },
    {
      "channel": 1,
      "note": 48,
      "start": 99.8273,
      "duration": 0.3679,
      "velocity": 103,
      "chip": "ym2612"
    },
    {
      "channel": 5,
      "note": 60,
      "start": 99.8297,
      "duration": 0.3665,
      "velocity": 119,
      "chip": "ym2612"
    },
    {
      "channel": 3,
      "note": 64,
      "start": 100.0323,
      "duration": 0.012,
      "velocity": 127,
      "chip": "ym2612"
    },
    {
      "channel": 0,
      "note": 60,
      "start": 100.2302,
      "duration": 0.0155,
      "velocity": 122,
      "chip": "ym2612"
    },
    {
      "channel": 1,
      "note": 48,
      "start": 100.2318,
      "duration": 0.1656,
      "velocity": 103,
      "chip": "ym2612"
    },
    {
      "channel": 3,
      "note": 64,
      "start": 100.2372,
      "duration": 0.0094,
      "velocity": 127,
      "chip": "ym2612"
    },
    {
      "channel": 5,
      "note": 60,
      "start": 100.2389,
      "duration": 0.008,
      "velocity": 119,
      "chip": "ym2612"
    },
    {
      "channel": 0,
      "note": 60,
      "start": 100.4324,
      "duration": 0.0155,
      "velocity": 122,
      "chip": "ym2612"
    },
    {
      "channel": 1,
      "note": 48,
      "start": 100.434,
      "duration": 0.1656,
      "velocity": 103,
      "chip": "ym2612"
    },
    {
      "channel": 3,
      "note": 64,
      "start": 100.4361,
      "duration": 0.0127,
      "velocity": 127,
      "chip": "ym2612"
    },
    {
      "channel": 5,
      "note": 60,
      "start": 100.4379,
      "duration": 0.0112,
      "velocity": 119,
      "chip": "ym2612"
    },
    {
      "channel": 0,
      "note": 60,
      "start": 100.6346,
      "duration": 0.0155,
      "velocity": 122,
      "chip": "ym2612"
    },
    {
      "channel": 1,
      "note": 48,
      "start": 100.6362,
      "duration": 0.1657,
      "velocity": 103,
      "chip": "ym2612"
    },
    {
      "channel": 3,
      "note": 64,
      "start": 100.6384,
      "duration": 0.0126,
      "velocity": 127,
      "chip": "ym2612"
    },
    {
      "channel": 5,
      "note": 60,
      "start": 100.6401,
      "duration": 0.0112,
      "velocity": 119,
      "chip": "ym2612"
    },
    {
      "channel": 0,
      "note": 70,
      "start": 100.8372,
      "duration": 1.5994,
      "velocity": 122,
      "chip": "ym2612"
    },
    {
      "channel": 1,
      "note": 58,
      "start": 100.8393,
      "duration": 0.1817,
      "velocity": 103,
      "chip": "ym2612"
    },
    {
      "channel": 2,
      "note": 65,
      "start": 100.8447,
      "duration": 1.5922,
      "velocity": 122,
      "chip": "ym2612"
    },
    {
      "channel": 3,
      "note": 64,
      "start": 100.8502,
      "duration": 0.0198,
      "velocity": 127,
      "chip": "ym2612"
    },
    {
      "channel": 4,
      "note": 65,
      "start": 100.8557,
      "duration": 1.5821,
      "velocity": 119,
      "chip": "ym2612"
    },
    {
      "channel": 5,
      "note": 70,
      "start": 100.8578,
      "duration": 1.5801,
      "velocity": 119,
      "chip": "ym2612"
    },
    {
      "channel": 1,
      "note": 58,
      "start": 101.0562,
      "duration": 0.167,
      "velocity": 103,
      "chip": "ym2612"
    },
    {
      "channel": 1,
      "note": 58,
      "start": 101.2592,
      "duration": 0.1662,
      "velocity": 103,
      "chip": "ym2612"
    },
    {
      "channel": 3,
      "note": 64,
      "start": 101.2646,
      "duration": 0.0099,
      "velocity": 127,
      "chip": "ym2612"
    },
    {
      "channel": 1,
      "note": 58,
      "start": 101.4607,
      "duration": 0.167,
      "velocity": 103,
      "chip": "ym2612"
    },
    {
      "channel": 1,
      "note": 58,
      "start": 101.6634,
      "duration": 0.1666,
      "velocity": 103,
      "chip": "ym2612"
    },
    {
      "channel": 3,
      "note": 64,
      "start": 101.6688,
      "duration": 0.0102,
      "velocity": 127,
      "chip": "ym2612"
    },
    {
      "channel": 1,
      "note": 58,
      "start": 101.8652,
      "duration": 0.167,
      "velocity": 103,
      "chip": "ym2612"
    },
    {
      "channel": 3,
      "note": 64,
      "start": 101.8674,
      "duration": 0.0139,
      "velocity": 127,
      "chip": "ym2612"
    },
    {
      "channel": 1,
      "note": 58,
      "start": 102.0674,
      "duration": 0.167,
      "velocity": 103,
      "chip": "ym2612"
    },
    {
      "channel": 3,
      "note": 64,
      "start": 102.073,
      "duration": 0.0105,
      "velocity": 127,
      "chip": "ym2612"
    },
    {
      "channel": 1,
      "note": 58,
      "start": 102.2697,
      "duration": 0.1671,
      "velocity": 103,
      "chip": "ym2612"
    },
    {
      "channel": 0,
      "note": 70,
      "start": 102.4717,
      "duration": 0.0159,
      "velocity": 122,
      "chip": "ym2612"
    },
    {
      "channel": 1,
      "note": 58,
      "start": 102.4735,
      "duration": 0.1659,
      "velocity": 103,
      "chip": "ym2612"
    },
    {
      "channel": 2,
      "note": 58,
      "start": 102.4751,
      "duration": 0.0128,
      "velocity": 122,
      "chip": "ym2612"
    },
    {
      "channel": 3,
      "note": 64,
      "start": 102.4803,
      "duration": 0.0083,
      "velocity": 127,
      "chip": "ym2612"
    },
    {
      "channel": 4,
      "note": 58,
      "start": 102.482,
      "duration": 0.0069,
      "velocity": 119,
      "chip": "ym2612"
    },
    {
      "channel": 5,
      "note": 70,
      "start": 102.4837,
      "duration": 0.0054,
      "velocity": 119,
      "chip": "ym2612"
    },
    {
      "channel": 0,
      "note": 70,
      "start": 102.6739,
      "duration": 0.1671,
      "velocity": 122,
      "chip": "ym2612"
    },
    {
      "channel": 1,
      "note": 58,
      "start": 102.6757,
      "duration": 0.1655,
      "velocity": 103,
      "chip": "ym2612"
    },
    {
      "channel": 2,
      "note": 58,
      "start": 102.6774,
      "duration": 0.1641,
      "velocity": 122,
      "chip": "ym2612"
    },
    {
      "channel": 4,
      "note": 58,
      "start": 102.6795,
      "duration": 0.1627,
      "velocity": 119,
      "chip": "ym2612"
    },
    {
      "channel": 5,
      "note": 70,
      "start": 102.6812,
      "duration": 0.1612,
      "velocity": 119,
      "chip": "ym2612"
    },
    {
      "channel": 0,
      "note": 73,
      "start": 102.8761,
      "duration": 0.1675,
      "velocity": 122,
      "chip": "ym2612"
    },
    {
      "channel": 1,
      "note": 58,
      "start": 102.8779,
      "duration": 0.166,
      "velocity": 103,
      "chip": "ym2612"
    },
    {
      "channel": 2,
      "note": 61,
      "start": 102.8795,
      "duration": 0.1645,
      "velocity": 122,
      "chip": "ym2612"
    },
    {
      "channel": 3,
      "note": 64,
      "start": 102.8849,
      "duration": 0.009,
      "velocity": 127,
      "chip": "ym2612"
    },
    {
      "channel": 4,
      "note": 61,
      "start": 102.8865,
      "duration": 0.1583,
      "velocity": 119,
      "chip": "ym2612"
    },
    {
      "channel": 5,
      "note": 73,
      "start": 102.8881,
      "duration": 0.1569,
      "velocity": 119,
      "chip": "ym2612"
    },
    {
      "channel": 0,
      "note": 70,
      "start": 103.0784,
      "duration": 0.1671,
      "velocity": 122,
      "chip": "ym2612"
    },
    {
      "channel": 1,
      "note": 58,
      "start": 103.0802,
      "duration": 0.1655,
      "velocity": 103,
      "chip": "ym2612"
    },
    {
      "channel": 2,
      "note": 58,
      "start": 103.0817,
      "duration": 0.1642,
      "velocity": 122,
      "chip": "ym2612"
    },
    {
      "channel": 4,
      "note": 58,
      "start": 103.0839,
      "duration": 0.1628,
      "velocity": 119,
      "chip": "ym2612"
    },
    {
      "channel": 5,
      "note": 70,
      "start": 103.0856,
      "duration": 0.1613,
      "velocity": 119,
      "chip": "ym2612"
    },
    {
      "channel": 0,
      "note": 77,
      "start": 103.2806,
      "duration": 0.1672,
      "velocity": 122,
      "chip": "ym2612"
    },
    {
      "channel": 1,
      "note": 58,
      "start": 103.2824,
      "duration": 0.1656,
      "velocity": 103,
      "chip": "ym2612"
    },
    {
      "channel": 2,
      "note": 65,
      "start": 103.284,
      "duration": 0.1642,
      "velocity": 122,
      "chip": "ym2612"
    },
    {
      "channel": 3,
      "note": 64,
      "start": 103.2893,
      "duration": 0.0082,
      "velocity": 127,
      "chip": "ym2612"
    },
    {
      "channel": 4,
      "note": 65,
      "start": 103.2908,
      "duration": 0.1581,
      "velocity": 119,
      "chip": "ym2612"
    },
    {
      "channel": 5,
      "note": 77,
      "start": 103.2925,
      "duration": 0.1566,
      "velocity": 119,
      "chip": "ym2612"
    },
    {
      "channel": 0,
      "note": 75,
      "start": 103.4829,
      "duration": 0.1671,
      "velocity": 122,
      "chip": "ym2612"
    },
    {
      "channel": 1,
      "note": 58,
      "start": 103.4846,
      "duration": 0.1656,
      "velocity": 103,
      "chip": "ym2612"
    },
    {
      "channel": 2,
      "note": 63,
      "start": 103.4862,
      "duration": 0.1643,
      "velocity": 122,
      "chip": "ym2612"
    },
    {
      "channel": 4,
      "note": 63,
      "start": 103.4884,
      "duration": 0.1628,
      "velocity": 119,
      "chip": "ym2612"
    },
    {
      "channel": 5,
      "note": 75,
      "start": 103.49,
      "duration": 0.1613,
      "velocity": 119,
      "chip": "ym2612"
    },
    {
      "channel": 0,
      "note": 73,
      "start": 103.6851,
      "duration": 0.1671,
      "velocity": 122,
      "chip": "ym2612"
    },
    {
      "channel": 1,
      "note": 58,
      "start": 103.6869,
      "duration": 0.1655,
      "velocity": 103,
      "chip": "ym2612"
    },
    {
      "channel": 2,
      "note": 61,
      "start": 103.6885,
      "duration": 0.1641,
      "velocity": 122,
      "chip": "ym2612"
    },
    {
      "channel": 3,
      "note": 64,
      "start": 103.6939,
      "duration": 0.0076,
      "velocity": 127,
      "chip": "ym2612"
    },
    {
      "channel": 4,
      "note": 61,
      "start": 103.6955,
      "duration": 0.158,
      "velocity": 119,
      "chip": "ym2612"
    },
    {
      "channel": 5,
      "note": 73,
      "start": 103.6971,
      "duration": 0.1565,
      "velocity": 119,
      "chip": "ym2612"
    },
    {
      "channel": 0,
      "note": 77,
      "start": 103.8874,
      "duration": 0.1671,
      "velocity": 122,
      "chip": "ym2612"
    },
    {
      "channel": 1,
      "note": 58,
      "start": 103.8891,
      "duration": 0.1655,
      "velocity": 103,
      "chip": "ym2612"
    },
    {
      "channel": 2,
      "note": 65,
      "start": 103.8907,
      "duration": 0.1642,
      "velocity": 122,
      "chip": "ym2612"
    },
    {
      "channel": 3,
      "note": 64,
      "start": 103.896,
      "duration": 0.0077,
      "velocity": 127,
      "chip": "ym2612"
    },
    {
      "channel": 4,
      "note": 65,
      "start": 103.8976,
      "duration": 0.158,
      "velocity": 119,
      "chip": "ym2612"
    },
    {
      "channel": 5,
      "note": 77,
      "start": 103.8993,
      "duration": 0.1566,
      "velocity": 119,
      "chip": "ym2612"
    },
    {
      "channel": 0,
      "note": 68,
      "start": 104.0899,
      "duration": 3.2173,
      "velocity": 122,
      "chip": "ym2612"
    },
    {
      "channel": 1,
      "note": 56,
      "start": 104.0921,
      "duration": 0.1816,
      "velocity": 103,
      "chip": "ym2612"
    },
    {
      "channel": 2,
      "note": 63,
      "start": 104.094,
      "duration": 1.5961,
      "velocity": 122,
      "chip": "ym2612"
    },
    {
      "channel": 3,
      "note": 64,
      "start": 104.0995,
      "duration": 0.0233,
      "velocity": 127,
      "chip": "ym2612"
    },
    {
      "channel": 4,
      "note": 63,
      "start": 104.1014,
      "duration": 1.5894,
      "velocity": 119,
      "chip": "ym2612"
    },
    {
      "channel": 5,
      "note": 68,
      "start": 104.1034,
      "duration": 3.2051,
      "velocity": 119,
      "chip": "ym2612"
    },
    {
      "channel": 1,
      "note": 56,
      "start": 104.3094,
      "duration": 0.1666,
      "velocity": 103,
      "chip": "ym2612"
    },
    {
      "channel": 1,
      "note": 56,
      "start": 104.5112,
      "duration": 0.167,
      "velocity": 103,
      "chip": "ym2612"
    },
    {
      "channel": 3,
      "note": 64,
      "start": 104.5165,
      "duration": 0.0107,
      "velocity": 127,
      "chip": "ym2612"
    },
    {
      "channel": 1,
      "note": 56,
      "start": 104.7136,
      "duration": 0.1668,
      "velocity": 103,
      "chip": "ym2612"
    },
    {
      "channel": 1,
      "note": 56,
      "start": 104.9156,
      "duration": 0.167,
      "velocity": 103,
      "chip": "ym2612"
    },
    {
      "channel": 3,
      "note": 64,
      "start": 104.9211,
      "duration": 0.0106,
      "velocity": 127,
      "chip": "ym2612"
    },
    {
      "channel": 1,
      "note": 56,
      "start": 105.1179,
      "duration": 0.168,
      "velocity": 103,
      "chip": "ym2612"
    },
    {
      "channel": 1,
      "note": 56,
      "start": 105.3202,
      "duration": 0.1669,
      "velocity": 103,
      "chip": "ym2612"
    },
    {
      "channel": 3,
      "note": 64,
      "start": 105.3255,
      "duration": 0.0107,
      "velocity": 127,
      "chip": "ym2612"
    },
    {
      "channel": 1,
      "note": 56,
      "start": 105.5224,
      "duration": 0.1674,
      "velocity": 103,
      "chip": "ym2612"
    },
    {
      "channel": 3,
      "note": 64,
      "start": 105.5277,
      "duration": 0.0107,
      "velocity": 127,
      "chip": "ym2612"
    },
    {
      "channel": 1,
      "note": 56,
      "start": 105.726,
      "duration": 0.1656,
      "velocity": 103,
      "chip": "ym2612"
    },
    {
      "channel": 2,
      "note": 63,
      "start": 105.7276,
      "duration": 1.58,
      "velocity": 122,
      "chip": "ym2612"
    },
    {
      "channel": 4,
      "note": 63,
      "start": 105.7298,
      "duration": 1.5786,
      "velocity": 119,
      "chip": "ym2612"
    },
    {
      "channel": 1,
      "note": 56,
      "start": 105.9268,
      "duration": 0.167,
      "velocity": 103,
      "chip": "ym2612"
    },
    {
      "channel": 3,
      "note": 64,
      "start": 105.929,
      "duration": 0.0139,
      "velocity": 127,
      "chip": "ym2612"
    },
    {
      "channel": 1,
      "note": 56,
      "start": 106.1291,
      "duration": 0.1671,
      "velocity": 103,
      "chip": "ym2612"
    },
    {
      "channel": 3,
      "note": 64,
      "start": 106.1345,
      "duration": 0.0107,
      "velocity": 127,
      "chip": "ym2612"
    },
    {
      "channel": 1,
      "note": 56,
      "start": 106.3314,
      "duration": 0.167,
      "velocity": 103,
      "chip": "ym2612"
    },
    {
      "channel": 1,
      "note": 56,
      "start": 106.5336,
      "duration": 0.167,
      "velocity": 103,
      "chip": "ym2612"
    },
    {
      "channel": 3,
      "note": 64,
      "start": 106.5389,
      "duration": 0.0107,
      "velocity": 127,
      "chip": "ym2612"
    },
    {
      "channel": 1,
      "note": 56,
      "start": 106.7358,
      "duration": 0.167,
      "velocity": 103,
      "chip": "ym2612"
    },
    {
      "channel": 1,
      "note": 56,
      "start": 106.9381,
      "duration": 0.1669,
      "velocity": 103,
      "chip": "ym2612"
    },
    {
      "channel": 3,
      "note": 64,
      "start": 106.9434,
      "duration": 0.0114,
      "velocity": 127,
      "chip": "ym2612"
    },
    {
      "channel": 1,
      "note": 56,
      "start": 107.1403,
      "duration": 0.1671,
      "velocity": 103,
      "chip": "ym2612"
    },
    {
      "channel": 0,
      "note": 70,
      "start": 107.3426,
      "duration": 1.5994,
      "velocity": 122,
      "chip": "ym2612"
    },
    {
      "channel": 1,
      "note": 58,
      "start": 107.3448,
      "duration": 0.1816,
      "velocity": 103,
      "chip": "ym2612"
    },
    {
      "channel": 2,
      "note": 65,
      "start": 107.3467,
      "duration": 1.5957,
      "velocity": 122,
      "chip": "ym2612"
    },
    {
      "channel": 3,
      "note": 64,
      "start": 107.3522,
      "duration": 0.0232,
      "velocity": 127,
      "chip": "ym2612"
    },
    {
      "channel": 4,
      "note": 65,
      "start": 107.3542,
      "duration": 1.5889,
      "velocity": 119,
      "chip": "ym2612"
    },
    {
      "channel": 5,
      "note": 70,
      "start": 107.3561,
      "duration": 1.5872,
      "velocity": 119,
      "chip": "ym2612"
    },
    {
      "channel": 1,
      "note": 58,
      "start": 107.5617,
      "duration": 0.167,
      "velocity": 103,
      "chip": "ym2612"
    },
    {
      "channel": 1,
      "note": 58,
      "start": 107.7639,
      "duration": 0.1682,
      "velocity": 103,
      "chip": "ym2612"
    },
    {
      "channel": 3,
      "note": 64,
      "start": 107.7692,
      "duration": 0.0108,
      "velocity": 127,
      "chip": "ym2612"
    },
    {
      "channel": 1,
      "note": 58,
      "start": 107.9662,
      "duration": 0.167,
      "velocity": 103,
      "chip": "ym2612"
    },
    {
      "channel": 1,
      "note": 58,
      "start": 108.1684,
      "duration": 0.1678,
      "velocity": 103,
      "chip": "ym2612"
    },
    {
      "channel": 3,
      "note": 64,
      "start": 108.1738,
      "duration": 0.0106,
      "velocity": 127,
      "chip": "ym2612"
    },
    {
      "channel": 1,
      "note": 58,
      "start": 108.3707,
      "duration": 0.1669,
      "velocity": 103,
      "chip": "ym2612"
    },
    {
      "channel": 3,
      "note": 64,
      "start": 108.3728,
      "duration": 0.0139,
      "velocity": 127,
      "chip": "ym2612"
    },
    {
      "channel": 1,
      "note": 58,
      "start": 108.5728,
      "duration": 0.1674,
      "velocity": 103,
      "chip": "ym2612"
    },
    {
      "channel": 3,
      "note": 64,
      "start": 108.5784,
      "duration": 0.0106,
      "velocity": 127,
      "chip": "ym2612"
    },
    {
      "channel": 1,
      "note": 58,
      "start": 108.7751,
      "duration": 0.1671,
      "velocity": 103,
      "chip": "ym2612"
    },
    {
      "channel": 0,
      "note": 70,
      "start": 108.9771,
      "duration": 0.016,
      "velocity": 122,
      "chip": "ym2612"
    },
    {
      "channel": 1,
      "note": 58,
      "start": 108.9789,
      "duration": 0.1655,
      "velocity": 103,
      "chip": "ym2612"
    },
    {
      "channel": 2,
      "note": 58,
      "start": 108.9805,
      "duration": 0.0128,
      "velocity": 122,
      "chip": "ym2612"
    },
    {
      "channel": 3,
      "note": 64,
      "start": 108.9858,
      "duration": 0.0083,
      "velocity": 127,
      "chip": "ym2612"
    },
    {
      "channel": 4,
      "note": 58,
      "start": 108.9875,
      "duration": 0.0068,
      "velocity": 119,
      "chip": "ym2612"
    },
    {
      "channel": 5,
      "note": 70,
      "start": 108.9891,
      "duration": 0.0053,
      "velocity": 119,
      "chip": "ym2612"
    },
    {
      "channel": 0,
      "note": 70,
      "start": 109.1793,
      "duration": 0.1672,
      "velocity": 122,
      "chip": "ym2612"
    },
    {
      "channel": 1,
      "note": 58,
      "start": 109.1811,
      "duration": 0.1656,
      "velocity": 103,
      "chip": "ym2612"
    },
    {
      "channel": 2,
      "note": 58,
      "start": 109.1828,
      "duration": 0.1641,
      "velocity": 122,
      "chip": "ym2612"
    },
    {
      "channel": 4,
      "note": 58,
      "start": 109.1849,
      "duration": 0.1627,
      "velocity": 119,
      "chip": "ym2612"
    },
    {
      "channel": 5,
      "note": 70,
      "start": 109.1866,
      "duration": 0.1613,
      "velocity": 119,
      "chip": "ym2612"
    },
    {
      "channel": 0,
      "note": 73,
      "start": 109.3816,
      "duration": 0.1672,
      "velocity": 122,
      "chip": "ym2612"
    },
    {
      "channel": 1,
      "note": 58,
      "start": 109.3833,
      "duration": 0.1656,
      "velocity": 103,
      "chip": "ym2612"
    },
    {
      "channel": 2,
      "note": 61,
      "start": 109.3849,
      "duration": 0.1642,
      "velocity": 122,
      "chip": "ym2612"
    },
    {
      "channel": 3,
      "note": 64,
      "start": 109.3903,
      "duration": 0.0089,
      "velocity": 127,
      "chip": "ym2612"
    },
    {
      "channel": 4,
      "note": 61,
      "start": 109.3919,
      "duration": 0.158,
      "velocity": 119,
      "chip": "ym2612"
    },
    {
      "channel": 5,
      "note": 73,
      "start": 109.3936,
      "duration": 0.1565,
      "velocity": 119,
      "chip": "ym2612"
    },
    {
      "channel": 0,
      "note": 70,
      "start": 109.5838,
      "duration": 0.1672,
      "velocity": 122,
      "chip": "ym2612"
    },
    {
      "channel": 1,
      "note": 58,
      "start": 109.5856,
      "duration": 0.1656,
      "velocity": 103,
      "chip": "ym2612"
    },
    {
      "channel": 2,
      "note": 58,
      "start": 109.5872,
      "duration": 0.1641,
      "velocity": 122,
      "chip": "ym2612"
    },
    {
      "channel": 4,
      "note": 58,
      "start": 109.5894,
      "duration": 0.1627,
      "velocity": 119,
      "chip": "ym2612"
    },
    {
      "channel": 5,
      "note": 70,
      "start": 109.591,
      "duration": 0.1613,
      "velocity": 119,
      "chip": "ym2612"
    },
    {
      "channel": 0,
      "note": 77,
      "start": 109.7861,
      "duration": 0.1672,
      "velocity": 122,
      "chip": "ym2612"
    },
    {
      "channel": 1,
      "note": 58,
      "start": 109.7878,
      "duration": 0.1656,
      "velocity": 103,
      "chip": "ym2612"
    },
    {
      "channel": 2,
      "note": 65,
      "start": 109.7895,
      "duration": 0.1642,
      "velocity": 122,
      "chip": "ym2612"
    },
    {
      "channel": 3,
      "note": 64,
      "start": 109.7947,
      "duration": 0.0083,
      "velocity": 127,
      "chip": "ym2612"
    },
    {
      "channel": 4,
      "note": 65,
      "start": 109.7963,
      "duration": 0.1581,
      "velocity": 119,
      "chip": "ym2612"
    },
    {
      "channel": 5,
      "note": 77,
      "start": 109.798,
      "duration": 0.1566,
      "velocity": 119,
      "chip": "ym2612"
    },
    {
      "channel": 0,
      "note": 75,
      "start": 109.9883,
      "duration": 0.1671,
      "velocity": 122,
      "chip": "ym2612"
    },
    {
      "channel": 1,
      "note": 58,
      "start": 109.99,
      "duration": 0.1656,
      "velocity": 103,
      "chip": "ym2612"
    },
    {
      "channel": 2,
      "note": 63,
      "start": 109.9917,
      "duration": 0.1642,
      "velocity": 122,
      "chip": "ym2612"
    },
    {
      "channel": 4,
      "note": 63,
      "start": 109.9938,
      "duration": 0.1628,
      "velocity": 119,
      "chip": "ym2612"
    },
    {
      "channel": 5,
      "note": 75,
      "start": 109.9954,
      "duration": 0.1614,
      "velocity": 119,
      "chip": "ym2612"
    },
    {
      "channel": 0,
      "note": 73,
      "start": 110.1905,
      "duration": 0.1671,
      "velocity": 122,
      "chip": "ym2612"
    },
    {
      "channel": 1,
      "note": 58,
      "start": 110.1923,
      "duration": 0.1656,
      "velocity": 103,
      "chip": "ym2612"
    },
    {
      "channel": 2,
      "note": 61,
      "start": 110.1939,
      "duration": 0.1642,
      "velocity": 122,
      "chip": "ym2612"
    },
    {
      "channel": 3,
      "note": 64,
      "start": 110.1993,
      "duration": 0.0076,
      "velocity": 127,
      "chip": "ym2612"
    },
    {
      "channel": 4,
      "note": 61,
      "start": 110.2008,
      "duration": 0.1579,
      "velocity": 119,
      "chip": "ym2612"
    },
    {
      "channel": 5,
      "note": 73,
      "start": 110.2025,
      "duration": 0.1566,
      "velocity": 119,
      "chip": "ym2612"
    },
    {
      "channel": 0,
      "note": 77,
      "start": 110.3927,
      "duration": 0.1672,
      "velocity": 122,
      "chip": "ym2612"
    },
    {
      "channel": 1,
      "note": 58,
      "start": 110.3945,
      "duration": 0.1656,
      "velocity": 103,
      "chip": "ym2612"
    },
    {
      "channel": 2,
      "note": 65,
      "start": 110.3961,
      "duration": 0.1642,
      "velocity": 122,
      "chip": "ym2612"
    },
    {
      "channel": 3,
      "note": 64,
      "start": 110.4014,
      "duration": 0.0077,
      "velocity": 127,
      "chip": "ym2612"
    },
    {
      "channel": 4,
      "note": 65,
      "start": 110.4031,
      "duration": 0.158,
      "velocity": 119,
      "chip": "ym2612"
    },
    {
      "channel": 5,
      "note": 77,
      "start": 110.4046,
      "duration": 0.1566,
      "velocity": 119,
      "chip": "ym2612"
    },
    {
      "channel": 0,
      "note": 66,
      "start": 110.5954,
      "duration": 0.3866,
      "velocity": 122,
      "chip": "ym2612"
    },
    {
      "channel": 1,
      "note": 54,
      "start": 110.5975,
      "duration": 0.1816,
      "velocity": 103,
      "chip": "ym2612"
    },
    {
      "channel": 2,
      "note": 61,
      "start": 110.5994,
      "duration": 0.3829,
      "velocity": 122,
      "chip": "ym2612"
    },
    {
      "channel": 3,
      "note": 64,
      "start": 110.6051,
      "duration": 0.023,
      "velocity": 127,
      "chip": "ym2612"
    },
    {
      "channel": 4,
      "note": 61,
      "start": 110.6071,
      "duration": 0.3761,
      "velocity": 119,
      "chip": "ym2612"
    },
    {
      "channel": 5,
      "note": 66,
      "start": 110.609,
      "duration": 0.3744,
      "velocity": 119,
      "chip": "ym2612"
    },
    {
      "channel": 1,
      "note": 54,
      "start": 110.8144,
      "duration": 0.1678,
      "velocity": 103,
      "chip": "ym2612"
    },
    {
      "channel": 1,
      "note": 54,
      "start": 111.0166,
      "duration": 0.167,
      "velocity": 103,
      "chip": "ym2612"
    },
    {
      "channel": 3,
      "note": 64,
      "start": 111.022,
      "duration": 0.0107,
      "velocity": 127,
      "chip": "ym2612"
    },
    {
      "channel": 0,
      "note": 66,
      "start": 111.2186,
      "duration": 0.9761,
      "velocity": 122,
      "chip": "ym2612"
    },
    {
      "channel": 1,
      "note": 54,
      "start": 111.2204,
      "duration": 0.1658,
      "velocity": 103,
      "chip": "ym2612"
    },
    {
      "channel": 2,
      "note": 61,
      "start": 111.222,
      "duration": 0.9731,
      "velocity": 122,
      "chip": "ym2612"
    },
    {
      "channel": 4,
      "note": 61,
      "start": 111.2242,
      "duration": 0.9717,
      "velocity": 119,
      "chip": "ym2612"
    },
    {
      "channel": 5,
      "note": 66,
      "start": 111.2258,
      "duration": 0.9702,
      "velocity": 119,
      "chip": "ym2612"
    },
    {
      "channel": 1,
      "note": 54,
      "start": 111.4211,
      "duration": 0.167,
      "velocity": 103,
      "chip": "ym2612"
    },
    {
      "channel": 3,
      "note": 64,
      "start": 111.4266,
      "duration": 0.0106,
      "velocity": 127,
      "chip": "ym2612"
    },
    {
      "channel": 1,
      "note": 54,
      "start": 111.6234,
      "duration": 0.1671,
      "velocity": 103,
      "chip": "ym2612"
    },
    {
      "channel": 1,
      "note": 54,
      "start": 111.8256,
      "duration": 0.167,
      "velocity": 103,
      "chip": "ym2612"
    },
    {
      "channel": 3,
      "note": 64,
      "start": 111.8309,
      "duration": 0.0107,
      "velocity": 127,
      "chip": "ym2612"
    },
    {
      "channel": 1,
      "note": 54,
      "start": 112.0278,
      "duration": 0.1671,
      "velocity": 103,
      "chip": "ym2612"
    },
    {
      "channel": 0,
      "note": 68,
      "start": 112.2298,
      "duration": 0.3525,
      "velocity": 122,
      "chip": "ym2612"
    },
    {
      "channel": 1,
      "note": 56,
      "start": 112.2317,
      "duration": 0.1821,
      "velocity": 103,
      "chip": "ym2612"
    },
    {
      "channel": 2,
      "note": 63,
      "start": 112.2333,
      "duration": 0.3493,
      "velocity": 122,
      "chip": "ym2612"
    },
    {
      "channel": 3,
      "note": 64,
      "start": 112.2388,
      "duration": 0.0242,
      "velocity": 127,
      "chip": "ym2612"
    },
    {
      "channel": 4,
      "note": 63,
      "start": 112.2404,
      "duration": 0.343,
      "velocity": 119,
      "chip": "ym2612"
    },
    {
      "channel": 5,
      "note": 68,
      "start": 112.2421,
      "duration": 0.3415,
      "velocity": 119,
      "chip": "ym2612"
    },
    {
      "channel": 1,
      "note": 56,
      "start": 112.4492,
      "duration": 0.167,
      "velocity": 103,
      "chip": "ym2612"
    },
    {
      "channel": 1,
      "note": 56,
      "start": 112.652,
      "duration": 0.1664,
      "velocity": 103,
      "chip": "ym2612"
    },
    {
      "channel": 3,
      "note": 64,
      "start": 112.6573,
      "duration": 0.0101,
      "velocity": 127,
      "chip": "ym2612"
    },
    {
      "channel": 0,
      "note": 68,
      "start": 112.8534,
      "duration": 0.9761,
      "velocity": 122,
      "chip": "ym2612"
    },
    {
      "channel": 1,
      "note": 56,
      "start": 112.8552,
      "duration": 0.1654,
      "velocity": 103,
      "chip": "ym2612"
    },
    {
      "channel": 2,
      "note": 63,
      "start": 112.8568,
      "duration": 0.9731,
      "velocity": 122,
      "chip": "ym2612"
    },
    {
      "channel": 4,
      "note": 63,
      "start": 112.859,
      "duration": 0.9717,
      "velocity": 119,
      "chip": "ym2612"
    },
    {
      "channel": 5,
      "note": 68,
      "start": 112.8606,
      "duration": 0.9702,
      "velocity": 119,
      "chip": "ym2612"
    },
    {
      "channel": 1,
      "note": 56,
      "start": 113.0561,
      "duration": 0.1668,
      "velocity": 103,
      "chip": "ym2612"
    },
    {
      "channel": 3,
      "note": 64,
      "start": 113.0615,
      "duration": 0.0104,
      "velocity": 127,
      "chip": "ym2612"
    },
    {
      "channel": 1,
      "note": 56,
      "start": 113.2581,
      "duration": 0.167,
      "velocity": 103,
      "chip": "ym2612"
    },
    {
      "channel": 1,
      "note": 56,
      "start": 113.4604,
      "duration": 0.168,
      "velocity": 103,
      "chip": "ym2612"
    },
    {
      "channel": 3,
      "note": 64,
      "start": 113.4656,
      "duration": 0.0107,
      "velocity": 127,
      "chip": "ym2612"
    },
    {
      "channel": 1,
      "note": 56,
      "start": 113.6626,
      "duration": 0.1671,
      "velocity": 103,
      "chip": "ym2612"
    },
    {
      "channel": 0,
      "note": 68,
      "start": 113.8649,
      "duration": 3.2177,
      "velocity": 122,
      "chip": "ym2612"
    },
    {
      "channel": 1,
      "note": 56,
      "start": 113.8671,
      "duration": 0.1816,
      "velocity": 103,
      "chip": "ym2612"
    },
    {
      "channel": 2,
      "note": 63,
      "start": 113.869,
      "duration": 3.2145,
      "velocity": 122,
      "chip": "ym2612"
    },
    {
      "channel": 3,
      "note": 64,
      "start": 113.8747,
      "duration": 0.023,
      "velocity": 127,
      "chip": "ym2612"
    },
    {
      "channel": 4,
      "note": 63,
      "start": 113.8766,
      "duration": 3.2081,
      "velocity": 119,
      "chip": "ym2612"
    },
    {
      "channel": 5,
      "note": 68,
      "start": 113.8785,
      "duration": 3.2068,
      "velocity": 119,
      "chip": "ym2612"
    },
    {
      "channel": 1,
      "note": 56,
      "start": 114.0839,
      "duration": 0.167,
      "velocity": 103,
      "chip": "ym2612"
    },
    {
      "channel": 1,
      "note": 56,
      "start": 114.2862,
      "duration": 0.167,
      "velocity": 103,
      "chip": "ym2612"
    },
    {
      "channel": 3,
      "note": 64,
      "start": 114.2915,
      "duration": 0.0107,
      "velocity": 127,
      "chip": "ym2612"
    },
    {
      "channel": 1,
      "note": 56,
      "start": 114.4884,
      "duration": 0.167,
      "velocity": 103,
      "chip": "ym2612"
    },
    {
      "channel": 1,
      "note": 56,
      "start": 114.6907,
      "duration": 0.167,
      "velocity": 103,
      "chip": "ym2612"
    },
    {
      "channel": 3,
      "note": 64,
      "start": 114.696,
      "duration": 0.0107,
      "velocity": 127,
      "chip": "ym2612"
    },
    {
      "channel": 1,
      "note": 56,
      "start": 114.8929,
      "duration": 0.1669,
      "velocity": 103,
      "chip": "ym2612"
    },
    {
      "channel": 1,
      "note": 56,
      "start": 115.0951,
      "duration": 0.1671,
      "velocity": 103,
      "chip": "ym2612"
    },
    {
      "channel": 3,
      "note": 64,
      "start": 115.1005,
      "duration": 0.0107,
      "velocity": 127,
      "chip": "ym2612"
    },
    {
      "channel": 1,
      "note": 56,
      "start": 115.2981,
      "duration": 0.1663,
      "velocity": 103,
      "chip": "ym2612"
    },
    {
      "channel": 3,
      "note": 64,
      "start": 115.3034,
      "duration": 0.01,
      "velocity": 127,
      "chip": "ym2612"
    },
    {
      "channel": 1,
      "note": 56,
      "start": 115.5013,
      "duration": 0.1658,
      "velocity": 103,
      "chip": "ym2612"
    },
    {
      "channel": 3,
      "note": 64,
      "start": 115.5051,
      "duration": 0.0115,
      "velocity": 127,
      "chip": "ym2612"
    },
    {
      "channel": 1,
      "note": 56,
      "start": 115.7026,
      "duration": 0.1667,
      "velocity": 103,
      "chip": "ym2612"
    },
    {
      "channel": 3,
      "note": 76,
      "start": 115.7087,
      "duration": 0.0102,
      "velocity": 127,
      "chip": "ym2612"
    },
    {
      "channel": 3,
      "note": 76,
      "start": 115.737,
      "duration": 0.0156,
      "velocity": 127,
      "chip": "ym2612"
    },
    {
      "channel": 1,
      "note": 56,
      "start": 115.9046,
      "duration": 0.167,
      "velocity": 103,
      "chip": "ym2612"
    },
    {
      "channel": 3,
      "note": 64,
      "start": 115.9106,
      "duration": 0.0104,
      "velocity": 127,
      "chip": "ym2612"
    },
    {
      "channel": 1,
      "note": 56,
      "start": 116.1068,
      "duration": 0.1678,
      "velocity": 103,
      "chip": "ym2612"
    },
    {
      "channel": 3,
      "note": 73,
      "start": 116.1126,
      "duration": 0.0107,
      "velocity": 127,
      "chip": "ym2612"
    },
    {
      "channel": 3,
      "note": 73,
      "start": 116.1415,
      "duration": 0.0155,
      "velocity": 127,
      "chip": "ym2612"
    },
    {
      "channel": 1,
      "note": 56,
      "start": 116.309,
      "duration": 0.167,
      "velocity": 103,
      "chip": "ym2612"
    },
    {
      "channel": 3,
      "note": 64,
      "start": 116.3149,
      "duration": 0.0106,
      "velocity": 127,
      "chip": "ym2612"
    },
    {
      "channel": 1,
      "note": 56,
      "start": 116.5113,
      "duration": 0.1674,
      "velocity": 103,
      "chip": "ym2612"
    },
    {
      "channel": 3,
      "note": 68,
      "start": 116.5173,
      "duration": 0.0105,
      "velocity": 127,
      "chip": "ym2612"
    },
    {
      "channel": 3,
      "note": 68,
      "start": 116.5459,
      "duration": 0.0155,
      "velocity": 127,
      "chip": "ym2612"
    },
    {
      "channel": 1,
      "note": 56,
      "start": 116.7135,
      "duration": 0.1671,
      "velocity": 103,
      "chip": "ym2612"
    },
    {
      "channel": 3,
      "note": 64,
      "start": 116.7195,
      "duration": 0.0105,
      "velocity": 127,
      "chip": "ym2612"
    },
    {
      "channel": 1,
      "note": 56,
      "start": 116.9158,
      "duration": 0.1671,
      "velocity": 103,
      "chip": "ym2612"
    },
    {
      "channel": 3,
      "note": 64,
      "start": 116.9183,
      "duration": 0.0139,
      "velocity": 127,
      "chip": "ym2612"
    },
    {
      "channel": 0,
      "note": 73,
      "start": 117.1182,
      "duration": 0.992,
      "velocity": 122,
      "chip": "ym2612"
    },
    {
      "channel": 1,
      "note": 61,
      "start": 117.1204,
      "duration": 0.181,
      "velocity": 103,
      "chip": "ym2612"
    },
    {
      "channel": 2,
      "note": 68,
      "start": 117.1264,
      "duration": 0.9843,
      "velocity": 98,
      "chip": "ym2612"
    },
    {
      "channel": 3,
      "note": 64,
      "start": 117.1321,
      "duration": 0.0184,
      "velocity": 127,
      "chip": "ym2612"
    },
    {
      "channel": 4,
      "note": 65,
      "start": 117.1381,
      "duration": 0.9733,
      "velocity": 98,
      "chip": "ym2612"
    },
    {
      "channel": 5,
      "note": 73,
      "start": 117.1408,
      "duration": 0.9709,
      "velocity": 119,
      "chip": "ym2612"
    },
    {
      "channel": 1,
      "note": 61,
      "start": 117.3367,
      "duration": 0.1669,
      "velocity": 103,
      "chip": "ym2612"
    },
    {
      "channel": 1,
      "note": 61,
      "start": 117.5389,
      "duration": 0.1669,
      "velocity": 103,
      "chip": "ym2612"
    },
    {
      "channel": 3,
      "note": 64,
      "start": 117.5443,
      "duration": 0.0107,
      "velocity": 127,
      "chip": "ym2612"
    },
    {
      "channel": 1,
      "note": 61,
      "start": 117.7412,
      "duration": 0.167,
      "velocity": 103,
      "chip": "ym2612"
    },
    {
      "channel": 1,
      "note": 61,
      "start": 117.9444,
      "duration": 0.1661,
      "velocity": 103,
      "chip": "ym2612"
    },
    {
      "channel": 3,
      "note": 64,
      "start": 117.9499,
      "duration": 0.0096,
      "velocity": 127,
      "chip": "ym2612"
    },
    {
      "channel": 0,
      "note": 75,
      "start": 118.1454,
      "duration": 0.1671,
      "velocity": 122,
      "chip": "ym2612"
    },
    {
      "channel": 1,
      "note": 61,
      "start": 118.1472,
      "duration": 0.1655,
      "velocity": 103,
      "chip": "ym2612"
    },
    {
      "channel": 2,
      "note": 70,
      "start": 118.149,
      "duration": 0.164,
      "velocity": 98,
      "chip": "ym2612"
    },
    {
      "channel": 4,
      "note": 66,
      "start": 118.1512,
      "duration": 0.1624,
      "velocity": 98,
      "chip": "ym2612"
    },
    {
      "channel": 5,
      "note": 75,
      "start": 118.1529,
      "duration": 0.1611,
      "velocity": 119,
      "chip": "ym2612"
    },
    {
      "channel": 0,
      "note": 73,
      "start": 118.3482,
      "duration": 0.1835,
      "velocity": 122,
      "chip": "ym2612"
    },
    {
      "channel": 1,
      "note": 61,
      "start": 118.3499,
      "duration": 0.1819,
      "velocity": 103,
      "chip": "ym2612"
    },
    {
      "channel": 2,
      "note": 68,
      "start": 118.3517,
      "duration": 0.1803,
      "velocity": 98,
      "chip": "ym2612"
    },
    {
      "channel": 3,
      "note": 64,
      "start": 118.3569,
      "duration": 0.0239,
      "velocity": 127,
      "chip": "ym2612"
    },
    {
      "channel": 4,
      "note": 65,
      "start": 118.3587,
      "duration": 0.1741,
      "velocity": 98,
      "chip": "ym2612"
    },
    {
      "channel": 5,
      "note": 73,
      "start": 118.3603,
      "duration": 0.1727,
      "velocity": 119,
      "chip": "ym2612"
    },
    {
      "channel": 0,
      "note": 72,
      "start": 118.5667,
      "duration": 1.1783,
      "velocity": 122,
      "chip": "ym2612"
    },
    {
      "channel": 1,
      "note": 61,
      "start": 118.5685,
      "duration": 0.1654,
      "velocity": 103,
      "chip": "ym2612"
    },
    {
      "channel": 2,
      "note": 68,
      "start": 118.5704,
      "duration": 1.1751,
      "velocity": 98,
      "chip": "ym2612"
    },
    {
      "channel": 4,
      "note": 63,
      "start": 118.5726,
      "duration": 1.1737,
      "velocity": 98,
      "chip": "ym2612"
    },
    {
      "channel": 5,
      "note": 72,
      "start": 118.5742,
      "duration": 1.1723,
      "velocity": 119,
      "chip": "ym2612"
    },
    {
      "channel": 1,
      "note": 60,
      "start": 118.7693,
      "duration": 0.1668,
      "velocity": 103,
      "chip": "ym2612"
    },
    {
      "channel": 3,
      "note": 64,
      "start": 118.7749,
      "duration": 0.0104,
      "velocity": 127,
      "chip": "ym2612"
    },
    {
      "channel": 1,
      "note": 60,
      "start": 118.9715,
      "duration": 0.1669,
      "velocity": 103,
      "chip": "ym2612"
    },
    {
      "channel": 1,
      "note": 60,
      "start": 119.1737,
      "duration": 0.1669,
      "velocity": 103,
      "chip": "ym2612"
    },
    {
      "channel": 3,
      "note": 64,
      "start": 119.1791,
      "duration": 0.0107,
      "velocity": 127,
      "chip": "ym2612"
    },
    {
      "channel": 1,
      "note": 60,
      "start": 119.376,
      "duration": 0.167,
      "velocity": 103,
      "chip": "ym2612"
    },
    {
      "channel": 1,
      "note": 60,
      "start": 119.5782,
      "duration": 0.1671,
      "velocity": 103,
      "chip": "ym2612"
    },
    {
      "channel": 3,
      "note": 64,
      "start": 119.5837,
      "duration": 0.0106,
      "velocity": 127,
      "chip": "ym2612"
    },
    {
      "channel": 0,
      "note": 73,
      "start": 119.7802,
      "duration": 0.1671,
      "velocity": 122,
      "chip": "ym2612"
    },
    {
      "channel": 1,
      "note": 60,
      "start": 119.782,
      "duration": 0.1655,
      "velocity": 103,
      "chip": "ym2612"
    },
    {
      "channel": 2,
      "note": 70,
      "start": 119.7838,
      "duration": 0.1639,
      "velocity": 98,
      "chip": "ym2612"
    },
    {
      "channel": 4,
      "note": 65,
      "start": 119.786,
      "duration": 0.1625,
      "velocity": 98,
      "chip": "ym2612"
    },
    {
      "channel": 5,
      "note": 73,
      "start": 119.7877,
      "duration": 0.161,
      "velocity": 119,
      "chip": "ym2612"
    },
    {
      "channel": 0,
      "note": 72,
      "start": 119.9824,
      "duration": 0.184,
      "velocity": 122,
      "chip": "ym2612"
    },
    {
      "channel": 1,
      "note": 60,
      "start": 119.9842,
      "duration": 0.1824,
      "velocity": 103,
      "chip": "ym2612"
    },
    {
      "channel": 2,
      "note": 68,
      "start": 119.9859,
      "duration": 0.1809,
      "velocity": 98,
      "chip": "ym2612"
    },
    {
      "channel": 3,
      "note": 64,
      "start": 119.9912,
      "duration": 0.0251,
      "velocity": 127,
      "chip": "ym2612"
    },
    {
      "channel": 4,
      "note": 63,
      "start": 119.9929,
      "duration": 0.1747,
      "velocity": 98,
      "chip": "ym2612"
    },
    {
      "channel": 5,
      "note": 72,
      "start": 119.9945,
      "duration": 0.1733,
      "velocity": 119,
      "chip": "ym2612"
    },
    {
      "channel": 0,
      "note": 70,
      "start": 120.2015,
      "duration": 1.785,
      "velocity": 122,
      "chip": "ym2612"
    },
    {
      "channel": 1,
      "note": 60,
      "start": 120.2034,
      "duration": 0.1653,
      "velocity": 103,
      "chip": "ym2612"
    },
    {
      "channel": 2,
      "note": 65,
      "start": 120.2051,
      "duration": 1.7819,
      "velocity": 98,
      "chip": "ym2612"
    },
    {
      "channel": 4,
      "note": 61,
      "start": 120.2074,
      "duration": 1.7804,
      "velocity": 98,
      "chip": "ym2612"
    },
    {
      "channel": 5,
      "note": 70,
      "start": 120.209,
      "duration": 1.7789,
      "velocity": 119,
      "chip": "ym2612"
    },
    {
      "channel": 1,
      "note": 58,
      "start": 120.4057,
      "duration": 0.1653,
      "velocity": 103,
      "chip": "ym2612"
    },
    {
      "channel": 3,
      "note": 64,
      "start": 120.4127,
      "duration": 0.0093,
      "velocity": 127,
      "chip": "ym2612"
    },
    {
      "channel": 1,
      "note": 58,
      "start": 120.6062,
      "duration": 0.167,
      "velocity": 103,
      "chip": "ym2612"
    },
    {
      "channel": 1,
      "note": 58,
      "start": 120.8085,
      "duration": 0.1671,
      "velocity": 103,
      "chip": "ym2612"
    },
    {
      "channel": 3,
      "note": 64,
      "start": 120.8139,
      "duration": 0.0107,
      "velocity": 127,
      "chip": "ym2612"
    },
    {
      "channel": 1,
      "note": 58,
      "start": 121.0107,
      "duration": 0.167,
      "velocity": 103,
      "chip": "ym2612"
    },
    {
      "channel": 1,
      "note": 58,
      "start": 121.213,
      "duration": 0.167,
      "velocity": 103,
      "chip": "ym2612"
    },
    {
      "channel": 3,
      "note": 64,
      "start": 121.2185,
      "duration": 0.0105,
      "velocity": 127,
      "chip": "ym2612"
    },
    {
      "channel": 1,
      "note": 58,
      "start": 121.4152,
      "duration": 0.167,
      "velocity": 103,
      "chip": "ym2612"
    },
    {
      "channel": 1,
      "note": 58,
      "start": 121.6174,
      "duration": 0.167,
      "velocity": 103,
      "chip": "ym2612"
    },
    {
      "channel": 3,
      "note": 64,
      "start": 121.6228,
      "duration": 0.0107,
      "velocity": 127,
      "chip": "ym2612"
    },
    {
      "channel": 1,
      "note": 58,
      "start": 121.8197,
      "duration": 0.1671,
      "velocity": 103,
      "chip": "ym2612"
    },
    {
      "channel": 0,
      "note": 66,
      "start": 122.0217,
      "duration": 0.184,
      "velocity": 122,
      "chip": "ym2612"
    },
    {
      "channel": 1,
      "note": 54,
      "start": 122.0236,
      "duration": 0.1822,
      "velocity": 103,
      "chip": "ym2612"
    },
    {
      "channel": 2,
      "note": 61,
      "start": 122.0254,
      "duration": 0.5851,
      "velocity": 98,
      "chip": "ym2612"
    },
    {
      "channel": 3,
      "note": 64,
      "start": 122.0312,
      "duration": 0.0237,
      "velocity": 127,
      "chip": "ym2612"
    },
    {
      "channel": 4,
      "note": 58,
      "start": 122.0329,
      "duration": 0.5784,
      "velocity": 98,
      "chip": "ym2612"
    },
    {
      "channel": 5,
      "note": 66,
      "start": 122.0346,
      "duration": 0.1723,
      "velocity": 119,
      "chip": "ym2612"
    },
    {
      "channel": 0,
      "note": 66,
      "start": 122.2408,
      "duration": 0.0154,
      "velocity": 122,
      "chip": "ym2612"
    },
    {
      "channel": 1,
      "note": 54,
      "start": 122.2426,
      "duration": 0.1655,
      "velocity": 103,
      "chip": "ym2612"
    },
    {
      "channel": 3,
      "note": 64,
      "start": 122.248,
      "duration": 0.0092,
      "velocity": 127,
      "chip": "ym2612"
    },
    {
      "channel": 5,
      "note": 66,
      "start": 122.2498,
      "duration": 0.0078,
      "velocity": 119,
      "chip": "ym2612"
    },
    {
      "channel": 0,
      "note": 66,
      "start": 122.4431,
      "duration": 0.0154,
      "velocity": 122,
      "chip": "ym2612"
    },
    {
      "channel": 1,
      "note": 54,
      "start": 122.4448,
      "duration": 0.1655,
      "velocity": 103,
      "chip": "ym2612"
    },
    {
      "channel": 3,
      "note": 64,
      "start": 122.447,
      "duration": 0.0124,
      "velocity": 127,
      "chip": "ym2612"
    },
    {
      "channel": 5,
      "note": 66,
      "start": 122.4488,
      "duration": 0.011,
      "velocity": 119,
      "chip": "ym2612"
    },
    {
      "channel": 0,
      "note": 68,
      "start": 122.6453,
      "duration": 0.3862,
      "velocity": 122,
      "chip": "ym2612"
    },
    {
      "channel": 1,
      "note": 56,
      "start": 122.6472,
      "duration": 0.1821,
      "velocity": 103,
      "chip": "ym2612"
    },
    {
      "channel": 2,
      "note": 63,
      "start": 122.6489,
      "duration": 0.5852,
      "velocity": 98,
      "chip": "ym2612"
    },
    {
      "channel": 3,
      "note": 64,
      "start": 122.6543,
      "duration": 0.0241,
      "velocity": 127,
      "chip": "ym2612"
    },
    {
      "channel": 4,
      "note": 60,
      "start": 122.6561,
      "duration": 0.5789,
      "velocity": 98,
      "chip": "ym2612"
    },
    {
      "channel": 5,
      "note": 68,
      "start": 122.6577,
      "duration": 0.375,
      "velocity": 119,
      "chip": "ym2612"
    },
    {
      "channel": 1,
      "note": 56,
      "start": 122.8646,
      "duration": 0.1671,
      "velocity": 103,
      "chip": "ym2612"
    },
    {
      "channel": 3,
      "note": 64,
      "start": 122.87,
      "duration": 0.0106,
      "velocity": 127,
      "chip": "ym2612"
    },
    {
      "channel": 0,
      "note": 68,
      "start": 123.0669,
      "duration": 0.0152,
      "velocity": 122,
      "chip": "ym2612"
    },
    {
      "channel": 1,
      "note": 56,
      "start": 123.0686,
      "duration": 0.1652,
      "velocity": 103,
      "chip": "ym2612"
    },
    {
      "channel": 3,
      "note": 64,
      "start": 123.0709,
      "duration": 0.0122,
      "velocity": 127,
      "chip": "ym2612"
    },
    {
      "channel": 5,
      "note": 68,
      "start": 123.0727,
      "duration": 0.0107,
      "velocity": 119,
      "chip": "ym2612"
    },
    {
      "channel": 0,
      "note": 72,
      "start": 123.269,
      "duration": 0.3702,
      "velocity": 122,
      "chip": "ym2612"
    },
    {
      "channel": 1,
      "note": 56,
      "start": 123.2707,
      "duration": 0.1653,
      "velocity": 103,
      "chip": "ym2612"
    },
    {
      "channel": 2,
      "note": 68,
      "start": 123.2725,
      "duration": 0.3671,
      "velocity": 98,
      "chip": "ym2612"
    },
    {
      "channel": 3,
      "note": 68,
      "start": 123.2781,
      "duration": 0.0083,
      "velocity": 127,
      "chip": "ym2612"
    },
    {
      "channel": 4,
      "note": 63,
      "start": 123.2798,
      "duration": 0.3606,
      "velocity": 98,
      "chip": "ym2612"
    },
    {
      "channel": 5,
      "note": 72,
      "start": 123.2815,
      "duration": 0.3592,
      "velocity": 119,
      "chip": "ym2612"
    },
    {
      "channel": 1,
      "note": 56,
      "start": 123.4715,
      "duration": 0.168,
      "velocity": 103,
      "chip": "ym2612"
    },
    {
      "channel": 0,
      "note": 73,
      "start": 123.6737,
      "duration": 0.9926,
      "velocity": 122,
      "chip": "ym2612"
    },
    {
      "channel": 1,
      "note": 61,
      "start": 123.6758,
      "duration": 0.1816,
      "velocity": 103,
      "chip": "ym2612"
    },
    {
      "channel": 2,
      "note": 68,
      "start": 123.6779,
      "duration": 0.9888,
      "velocity": 98,
      "chip": "ym2612"
    },
    {
      "channel": 3,
      "note": 64,
      "start": 123.6838,
      "duration": 0.0227,
      "velocity": 127,
      "chip": "ym2612"
    },
    {
      "channel": 4,
      "note": 65,
      "start": 123.6858,
      "duration": 0.9817,
      "velocity": 98,
      "chip": "ym2612"
    },
    {
      "channel": 5,
      "note": 73,
      "start": 123.6878,
      "duration": 0.98,
      "velocity": 119,
      "chip": "ym2612"
    },
    {
      "channel": 1,
      "note": 61,
      "start": 123.8927,
      "duration": 0.167,
      "velocity": 103,
      "chip": "ym2612"
    },
    {
      "channel": 1,
      "note": 61,
      "start": 124.0949,
      "duration": 0.167,
      "velocity": 103,
      "chip": "ym2612"
    },
    {
      "channel": 3,
      "note": 64,
      "start": 124.1002,
      "duration": 0.0108,
      "velocity": 127,
      "chip": "ym2612"
    },
    {
      "channel": 1,
      "note": 61,
      "start": 124.2971,
      "duration": 0.167,
      "velocity": 103,
      "chip": "ym2612"
    },
    {
      "channel": 1,
      "note": 61,
      "start": 124.4994,
      "duration": 0.1671,
      "velocity": 103,
      "chip": "ym2612"
    },
    {
      "channel": 3,
      "note": 64,
      "start": 124.505,
      "duration": 0.0105,
      "velocity": 127,
      "chip": "ym2612"
    },
    {
      "channel": 0,
      "note": 75,
      "start": 124.7015,
      "duration": 0.1671,
      "velocity": 122,
      "chip": "ym2612"
    },
    {
      "channel": 1,
      "note": 61,
      "start": 124.7032,
      "duration": 0.1655,
      "velocity": 103,
      "chip": "ym2612"
    },
    {
      "channel": 2,
      "note": 70,
      "start": 124.705,
      "duration": 0.1639,
      "velocity": 98,
      "chip": "ym2612"
    },
    {
      "channel": 4,
      "note": 66,
      "start": 124.7073,
      "duration": 0.1625,
      "velocity": 98,
      "chip": "ym2612"
    },
    {
      "channel": 5,
      "note": 75,
      "start": 124.7089,
      "duration": 0.1611,
      "velocity": 119,
      "chip": "ym2612"
    },
    {
      "channel": 0,
      "note": 73,
      "start": 124.9037,
      "duration": 0.1839,
      "velocity": 122,
      "chip": "ym2612"
    },
    {
      "channel": 1,
      "note": 61,
      "start": 124.9054,
      "duration": 0.1824,
      "velocity": 103,
      "chip": "ym2612"
    },
    {
      "channel": 2,
      "note": 68,
      "start": 124.9072,
      "duration": 0.1809,
      "velocity": 98,
      "chip": "ym2612"
    },
    {
      "channel": 3,
      "note": 64,
      "start": 124.9124,
      "duration": 0.0244,
      "velocity": 127,
      "chip": "ym2612"
    },
    {
      "channel": 4,
      "note": 65,
      "start": 124.9141,
      "duration": 0.1748,
      "velocity": 98,
      "chip": "ym2612"
    },
    {
      "channel": 5,
      "note": 73,
      "start": 124.9157,
      "duration": 0.1733,
      "velocity": 119,
      "chip": "ym2612"
    },
    {
      "channel": 0,
      "note": 72,
      "start": 125.1228,
      "duration": 1.1783,
      "velocity": 122,
      "chip": "ym2612"
    },
    {
      "channel": 1,
      "note": 61,
      "start": 125.1246,
      "duration": 0.1654,
      "velocity": 103,
      "chip": "ym2612"
    },
    {
      "channel": 2,
      "note": 68,
      "start": 125.1263,
      "duration": 1.1752,
      "velocity": 98,
      "chip": "ym2612"
    },
    {
      "channel": 4,
      "note": 63,
      "start": 125.1286,
      "duration": 1.1737,
      "velocity": 98,
      "chip": "ym2612"
    },
    {
      "channel": 5,
      "note": 72,
      "start": 125.1302,
      "duration": 1.1723,
      "velocity": 119,
      "chip": "ym2612"
    },
    {
      "channel": 1,
      "note": 60,
      "start": 125.3254,
      "duration": 0.1668,
      "velocity": 103,
      "chip": "ym2612"
    },
    {
      "channel": 3,
      "note": 64,
      "start": 125.3309,
      "duration": 0.0104,
      "velocity": 127,
      "chip": "ym2612"
    },
    {
      "channel": 1,
      "note": 60,
      "start": 125.5274,
      "duration": 0.1671,
      "velocity": 103,
      "chip": "ym2612"
    },
    {
      "channel": 1,
      "note": 60,
      "start": 125.7297,
      "duration": 0.167,
      "velocity": 103,
      "chip": "ym2612"
    },
    {
      "channel": 3,
      "note": 64,
      "start": 125.7351,
      "duration": 0.0107,
      "velocity": 127,
      "chip": "ym2612"
    },
    {
      "channel": 1,
      "note": 60,
      "start": 125.932,
      "duration": 0.167,
      "velocity": 103,
      "chip": "ym2612"
    },
    {
      "channel": 1,
      "note": 60,
      "start": 126.1342,
      "duration": 0.1671,
      "velocity": 103,
      "chip": "ym2612"
    },
    {
      "channel": 3,
      "note": 64,
      "start": 126.1398,
      "duration": 0.0105,
      "velocity": 127,
      "chip": "ym2612"
    },
    {
      "channel": 0,
      "note": 73,
      "start": 126.3362,
      "duration": 0.1671,
      "velocity": 122,
      "chip": "ym2612"
    },
    {
      "channel": 1,
      "note": 60,
      "start": 126.338,
      "duration": 0.1655,
      "velocity": 103,
      "chip": "ym2612"
    },
    {
      "channel": 2,
      "note": 70,
      "start": 126.3398,
      "duration": 0.164,
      "velocity": 98,
      "chip": "ym2612"
    },
    {
      "channel": 4,
      "note": 65,
      "start": 126.3421,
      "duration": 0.1624,
      "velocity": 98,
      "chip": "ym2612"
    },
    {
      "channel": 5,
      "note": 73,
      "start": 126.3437,
      "duration": 0.161,
      "velocity": 119,
      "chip": "ym2612"
    },
    {
      "channel": 0,
      "note": 72,
      "start": 126.5384,
      "duration": 0.1671,
      "velocity": 122,
      "chip": "ym2612"
    },
    {
      "channel": 1,
      "note": 60,
      "start": 126.5402,
      "duration": 0.1655,
      "velocity": 103,
      "chip": "ym2612"
    },
    {
      "channel": 2,
      "note": 68,
      "start": 126.5419,
      "duration": 0.1641,
      "velocity": 98,
      "chip": "ym2612"
    },
    {
      "channel": 3,
      "note": 64,
      "start": 126.5471,
      "duration": 0.0093,
      "velocity": 127,
      "chip": "ym2612"
    },
    {
      "channel": 4,
      "note": 63,
      "start": 126.5488,
      "duration": 0.158,
      "velocity": 98,
      "chip": "ym2612"
    },
    {
      "channel": 5,
      "note": 72,
      "start": 126.5505,
      "duration": 0.1565,
      "velocity": 119,
      "chip": "ym2612"
    },
    {
      "channel": 0,
      "note": 70,
      "start": 126.7407,
      "duration": 1.785,
      "velocity": 122,
      "chip": "ym2612"
    },
    {
      "channel": 1,
      "note": 60,
      "start": 126.7424,
      "duration": 0.1655,
      "velocity": 103,
      "chip": "ym2612"
    },
    {
      "channel": 2,
      "note": 65,
      "start": 126.7442,
      "duration": 1.7819,
      "velocity": 98,
      "chip": "ym2612"
    },
    {
      "channel": 4,
      "note": 61,
      "start": 126.7464,
      "duration": 1.7805,
      "velocity": 98,
      "chip": "ym2612"
    },
    {
      "channel": 5,
      "note": 70,
      "start": 126.7482,
      "duration": 1.7789,
      "velocity": 119,
      "chip": "ym2612"
    },
    {
      "channel": 1,
      "note": 58,
      "start": 126.9447,
      "duration": 0.1654,
      "velocity": 103,
      "chip": "ym2612"
    },
    {
      "channel": 3,
      "note": 64,
      "start": 126.9518,
      "duration": 0.0093,
      "velocity": 127,
      "chip": "ym2612"
    },
    {
      "channel": 1,
      "note": 58,
      "start": 127.1454,
      "duration": 0.167,
      "velocity": 103,
      "chip": "ym2612"
    },
    {
      "channel": 1,
      "note": 58,
      "start": 127.3476,
      "duration": 0.1669,
      "velocity": 103,
      "chip": "ym2612"
    },
    {
      "channel": 3,
      "note": 64,
      "start": 127.353,
      "duration": 0.0107,
      "velocity": 127,
      "chip": "ym2612"
    },
    {
      "channel": 1,
      "note": 58,
      "start": 127.5499,
      "duration": 0.167,
      "velocity": 103,
      "chip": "ym2612"
    },
    {
      "channel": 1,
      "note": 58,
      "start": 127.7521,
      "duration": 0.167,
      "velocity": 103,
      "chip": "ym2612"
    },
    {
      "channel": 3,
      "note": 64,
      "start": 127.7577,
      "duration": 0.0105,
      "velocity": 127,
      "chip": "ym2612"
    },
    {
      "channel": 1,
      "note": 58,
      "start": 127.9553,
      "duration": 0.166,
      "velocity": 103,
      "chip": "ym2612"
    },
    {
      "channel": 1,
      "note": 58,
      "start": 128.1566,
      "duration": 0.1669,
      "velocity": 103,
      "chip": "ym2612"
    },
    {
      "channel": 3,
      "note": 64,
      "start": 128.162,
      "duration": 0.0107,
      "velocity": 127,
      "chip": "ym2612"
    },
    {
      "channel": 1,
      "note": 58,
      "start": 128.3594,
      "duration": 0.1665,
      "velocity": 103,
      "chip": "ym2612"
    },
    {
      "channel": 0,
      "note": 66,
      "start": 128.5609,
      "duration": 0.1839,
      "velocity": 122,
      "chip": "ym2612"
    },
    {
      "channel": 1,
      "note": 54,
      "start": 128.5628,
      "duration": 0.1822,
      "velocity": 103,
      "chip": "ym2612"
    },
    {
      "channel": 2,
      "note": 61,
      "start": 128.5645,
      "duration": 0.5851,
      "velocity": 98,
      "chip": "ym2612"
    },
    {
      "channel": 3,
      "note": 64,
      "start": 128.5704,
      "duration": 0.0237,
      "velocity": 127,
      "chip": "ym2612"
    },
    {
      "channel": 4,
      "note": 58,
      "start": 128.5721,
      "duration": 0.5783,
      "velocity": 98,
      "chip": "ym2612"
    },
    {
      "channel": 5,
      "note": 66,
      "start": 128.5737,
      "duration": 0.1723,
      "velocity": 119,
      "chip": "ym2612"
    },
    {
      "channel": 0,
      "note": 66,
      "start": 128.78,
      "duration": 0.0154,
      "velocity": 122,
      "chip": "ym2612"
    },
    {
      "channel": 1,
      "note": 54,
      "start": 128.7817,
      "duration": 0.1654,
      "velocity": 103,
      "chip": "ym2612"
    },
    {
      "channel": 3,
      "note": 64,
      "start": 128.7872,
      "duration": 0.0092,
      "velocity": 127,
      "chip": "ym2612"
    },
    {
      "channel": 5,
      "note": 66,
      "start": 128.7889,
      "duration": 0.0078,
      "velocity": 119,
      "chip": "ym2612"
    },
    {
      "channel": 0,
      "note": 66,
      "start": 128.9822,
      "duration": 0.0154,
      "velocity": 122,
      "chip": "ym2612"
    },
    {
      "channel": 1,
      "note": 54,
      "start": 128.984,
      "duration": 0.1654,
      "velocity": 103,
      "chip": "ym2612"
    },
    {
      "channel": 3,
      "note": 64,
      "start": 128.9861,
      "duration": 0.0125,
      "velocity": 127,
      "chip": "ym2612"
    },
    {
      "channel": 5,
      "note": 66,
      "start": 128.9879,
      "duration": 0.011,
      "velocity": 119,
      "chip": "ym2612"
    },
    {
      "channel": 0,
      "note": 68,
      "start": 129.1845,
      "duration": 0.3861,
      "velocity": 122,
      "chip": "ym2612"
    },
    {
      "channel": 1,
      "note": 56,
      "start": 129.1864,
      "duration": 0.1821,
      "velocity": 103,
      "chip": "ym2612"
    },
    {
      "channel": 2,
      "note": 63,
      "start": 129.1882,
      "duration": 0.5851,
      "velocity": 98,
      "chip": "ym2612"
    },
    {
      "channel": 3,
      "note": 64,
      "start": 129.1935,
      "duration": 0.0241,
      "velocity": 127,
      "chip": "ym2612"
    },
    {
      "channel": 4,
      "note": 60,
      "start": 129.1952,
      "duration": 0.5788,
      "velocity": 98,
      "chip": "ym2612"
    },
    {
      "channel": 5,
      "note": 68,
      "start": 129.1969,
      "duration": 0.3749,
      "velocity": 119,
      "chip": "ym2612"
    },
    {
      "channel": 1,
      "note": 56,
      "start": 129.4038,
      "duration": 0.1671,
      "velocity": 103,
      "chip": "ym2612"
    },
    {
      "channel": 3,
      "note": 64,
      "start": 129.4091,
      "duration": 0.0108,
      "velocity": 127,
      "chip": "ym2612"
    },
    {
      "channel": 0,
      "note": 68,
      "start": 129.6058,
      "duration": 0.0163,
      "velocity": 122,
      "chip": "ym2612"
    },
    {
      "channel": 1,
      "note": 56,
      "start": 129.6075,
      "duration": 0.1655,
      "velocity": 103,
      "chip": "ym2612"
    },
    {
      "channel": 3,
      "note": 64,
      "start": 129.6097,
      "duration": 0.0133,
      "velocity": 127,
      "chip": "ym2612"
    },
    {
      "channel": 5,
      "note": 68,
      "start": 129.6115,
      "duration": 0.0119,
      "velocity": 119,
      "chip": "ym2612"
    },
    {
      "channel": 0,
      "note": 72,
      "start": 129.808,
      "duration": 0.3693,
      "velocity": 122,
      "chip": "ym2612"
    },
    {
      "channel": 1,
      "note": 56,
      "start": 129.8098,
      "duration": 0.1654,
      "velocity": 103,
      "chip": "ym2612"
    },
    {
      "channel": 2,
      "note": 68,
      "start": 129.8115,
      "duration": 0.3663,
      "velocity": 98,
      "chip": "ym2612"
    },
    {
      "channel": 3,
      "note": 68,
      "start": 129.8172,
      "duration": 0.0083,
      "velocity": 127,
      "chip": "ym2612"
    },
    {
      "channel": 4,
      "note": 63,
      "start": 129.819,
      "duration": 0.3596,
      "velocity": 98,
      "chip": "ym2612"
    },
    {
      "channel": 5,
      "note": 72,
      "start": 129.8207,
      "duration": 0.3581,
      "velocity": 119,
      "chip": "ym2612"
    },
    {
      "channel": 1,
      "note": 56,
      "start": 130.0104,
      "duration": 0.1671,
      "velocity": 103,
      "chip": "ym2612"
    },
    {
      "channel": 0,
      "note": 73,
      "start": 130.2128,
      "duration": 0.9926,
      "velocity": 122,
      "chip": "ym2612"
    },
    {
      "channel": 1,
      "note": 61,
      "start": 130.215,
      "duration": 0.1816,
      "velocity": 103,
      "chip": "ym2612"
    },
    {
      "channel": 2,
      "note": 68,
      "start": 130.217,
      "duration": 0.9889,
      "velocity": 98,
      "chip": "ym2612"
    },
    {
      "channel": 3,
      "note": 64,
      "start": 130.223,
      "duration": 0.0227,
      "velocity": 127,
      "chip": "ym2612"
    },
    {
      "channel": 4,
      "note": 65,
      "start": 130.2249,
      "duration": 0.9817,
      "velocity": 98,
      "chip": "ym2612"
    },
    {
      "channel": 5,
      "note": 73,
      "start": 130.2269,
      "duration": 0.9799,
      "velocity": 119,
      "chip": "ym2612"
    },
    {
      "channel": 1,
      "note": 61,
      "start": 130.432,
      "duration": 0.1668,
      "velocity": 103,
      "chip": "ym2612"
    },
    {
      "channel": 1,
      "note": 61,
      "start": 130.634,
      "duration": 0.167,
      "velocity": 103,
      "chip": "ym2612"
    },
    {
      "channel": 3,
      "note": 64,
      "start": 130.6395,
      "duration": 0.0107,
      "velocity": 127,
      "chip": "ym2612"
    },
    {
      "channel": 1,
      "note": 61,
      "start": 130.8363,
      "duration": 0.1683,
      "velocity": 103,
      "chip": "ym2612"
    },
    {
      "channel": 1,
      "note": 61,
      "start": 131.0385,
      "duration": 0.1671,
      "velocity": 103,
      "chip": "ym2612"
    },
    {
      "channel": 3,
      "note": 64,
      "start": 131.0441,
      "duration": 0.0106,
      "velocity": 127,
      "chip": "ym2612"
    },
    {
      "channel": 0,
      "note": 75,
      "start": 131.2405,
      "duration": 0.168,
      "velocity": 122,
      "chip": "ym2612"
    },
    {
      "channel": 1,
      "note": 61,
      "start": 131.2423,
      "duration": 0.1664,
      "velocity": 103,
      "chip": "ym2612"
    },
    {
      "channel": 2,
      "note": 70,
      "start": 131.2441,
      "duration": 0.1648,
      "velocity": 98,
      "chip": "ym2612"
    },
    {
      "channel": 4,
      "note": 66,
      "start": 131.2464,
      "duration": 0.1633,
      "velocity": 98,
      "chip": "ym2612"
    },
    {
      "channel": 5,
      "note": 75,
      "start": 131.248,
      "duration": 0.1619,
      "velocity": 119,
      "chip": "ym2612"
    },
    {
      "channel": 0,
      "note": 73,
      "start": 131.4427,
      "duration": 0.184,
      "velocity": 122,
      "chip": "ym2612"
    },
    {
      "channel": 1,
      "note": 61,
      "start": 131.4445,
      "duration": 0.1824,
      "velocity": 103,
      "chip": "ym2612"
    },
    {
      "channel": 2,
      "note": 68,
      "start": 131.4463,
      "duration": 0.1809,
      "velocity": 98,
      "chip": "ym2612"
    },
    {
      "channel": 3,
      "note": 64,
      "start": 131.4515,
      "duration": 0.0244,
      "velocity": 127,
      "chip": "ym2612"
    },
    {
      "channel": 4,
      "note": 65,
      "start": 131.4532,
      "duration": 0.1747,
      "velocity": 98,
      "chip": "ym2612"
    },
    {
      "channel": 5,
      "note": 73,
      "start": 131.4549,
      "duration": 0.1733,
      "velocity": 119,
      "chip": "ym2612"
    },
    {
      "channel": 0,
      "note": 72,
      "start": 131.6619,
      "duration": 1.1783,
      "velocity": 122,
      "chip": "ym2612"
    },
    {
      "channel": 1,
      "note": 61,
      "start": 131.6637,
      "duration": 0.1654,
      "velocity": 103,
      "chip": "ym2612"
    },
    {
      "channel": 2,
      "note": 68,
      "start": 131.6654,
      "duration": 1.1753,
      "velocity": 98,
      "chip": "ym2612"
    },
    {
      "channel": 4,
      "note": 63,
      "start": 131.6677,
      "duration": 1.1737,
      "velocity": 98,
      "chip": "ym2612"
    },
    {
      "channel": 5,
      "note": 72,
      "start": 131.6693,
      "duration": 1.1723,
      "velocity": 119,
      "chip": "ym2612"
    },
    {
      "channel": 1,
      "note": 60,
      "start": 131.8645,
      "duration": 0.1668,
      "velocity": 103,
      "chip": "ym2612"
    },
    {
      "channel": 3,
      "note": 64,
      "start": 131.87,
      "duration": 0.0104,
      "velocity": 127,
      "chip": "ym2612"
    },
    {
      "channel": 1,
      "note": 60,
      "start": 132.0666,
      "duration": 0.167,
      "velocity": 103,
      "chip": "ym2612"
    },
    {
      "channel": 1,
      "note": 60,
      "start": 132.2688,
      "duration": 0.167,
      "velocity": 103,
      "chip": "ym2612"
    },
    {
      "channel": 3,
      "note": 64,
      "start": 132.2742,
      "duration": 0.0107,
      "velocity": 127,
      "chip": "ym2612"
    },
    {
      "channel": 1,
      "note": 60,
      "start": 132.4711,
      "duration": 0.1669,
      "velocity": 103,
      "chip": "ym2612"
    },
    {
      "channel": 1,
      "note": 60,
      "start": 132.674,
      "duration": 0.1664,
      "velocity": 103,
      "chip": "ym2612"
    },
    {
      "channel": 3,
      "note": 64,
      "start": 132.6795,
      "duration": 0.0099,
      "velocity": 127,
      "chip": "ym2612"
    },
    {
      "channel": 0,
      "note": 73,
      "start": 132.8753,
      "duration": 0.1671,
      "velocity": 122,
      "chip": "ym2612"
    },
    {
      "channel": 1,
      "note": 60,
      "start": 132.8771,
      "duration": 0.1656,
      "velocity": 103,
      "chip": "ym2612"
    },
    {
      "channel": 2,
      "note": 70,
      "start": 132.8789,
      "duration": 0.164,
      "velocity": 98,
      "chip": "ym2612"
    },
    {
      "channel": 4,
      "note": 65,
      "start": 132.8812,
      "duration": 0.1625,
      "velocity": 98,
      "chip": "ym2612"
    },
    {
      "channel": 5,
      "note": 73,
      "start": 132.8828,
      "duration": 0.161,
      "velocity": 119,
      "chip": "ym2612"
    },
    {
      "channel": 0,
      "note": 72,
      "start": 133.0779,
      "duration": 0.1837,
      "velocity": 122,
      "chip": "ym2612"
    },
    {
      "channel": 1,
      "note": 60,
      "start": 133.0796,
      "duration": 0.1822,
      "velocity": 103,
      "chip": "ym2612"
    },
    {
      "channel": 2,
      "note": 68,
      "start": 133.0814,
      "duration": 0.1806,
      "velocity": 98,
      "chip": "ym2612"
    },
    {
      "channel": 3,
      "note": 64,
      "start": 133.0866,
      "duration": 0.0242,
      "velocity": 127,
      "chip": "ym2612"
    },
    {
      "channel": 4,
      "note": 63,
      "start": 133.0883,
      "duration": 0.1744,
      "velocity": 98,
      "chip": "ym2612"
    },
    {
      "channel": 5,
      "note": 72,
      "start": 133.09,
      "duration": 0.173,
      "velocity": 119,
      "chip": "ym2612"
    },
    {
      "channel": 0,
      "note": 70,
      "start": 133.2967,
      "duration": 1.785,
      "velocity": 122,
      "chip": "ym2612"
    },
    {
      "channel": 1,
      "note": 60,
      "start": 133.2984,
      "duration": 0.1655,
      "velocity": 103,
      "chip": "ym2612"
    },
    {
      "channel": 2,
      "note": 65,
      "start": 133.3002,
      "duration": 1.7819,
      "velocity": 98,
      "chip": "ym2612"
    },
    {
      "channel": 4,
      "note": 61,
      "start": 133.3025,
      "duration": 1.7804,
      "velocity": 98,
      "chip": "ym2612"
    },
    {
      "channel": 5,
      "note": 70,
      "start": 133.3042,
      "duration": 1.7789,
      "velocity": 119,
      "chip": "ym2612"
    },
    {
      "channel": 1,
      "note": 58,
      "start": 133.5008,
      "duration": 0.1654,
      "velocity": 103,
      "chip": "ym2612"
    },
    {
      "channel": 3,
      "note": 64,
      "start": 133.5078,
      "duration": 0.0092,
      "velocity": 127,
      "chip": "ym2612"
    },
    {
      "channel": 1,
      "note": 58,
      "start": 133.7014,
      "duration": 0.167,
      "velocity": 103,
      "chip": "ym2612"
    },
    {
      "channel": 1,
      "note": 58,
      "start": 133.9036,
      "duration": 0.167,
      "velocity": 103,
      "chip": "ym2612"
    },
    {
      "channel": 3,
      "note": 64,
      "start": 133.909,
      "duration": 0.0107,
      "velocity": 127,
      "chip": "ym2612"
    },
    {
      "channel": 1,
      "note": 58,
      "start": 134.1059,
      "duration": 0.167,
      "velocity": 103,
      "chip": "ym2612"
    },
    {
      "channel": 1,
      "note": 58,
      "start": 134.3081,
      "duration": 0.167,
      "velocity": 103,
      "chip": "ym2612"
    },
    {
      "channel": 3,
      "note": 64,
      "start": 134.3136,
      "duration": 0.0105,
      "velocity": 127,
      "chip": "ym2612"
    },
    {
      "channel": 1,
      "note": 58,
      "start": 134.5104,
      "duration": 0.1669,
      "velocity": 103,
      "chip": "ym2612"
    },
    {
      "channel": 1,
      "note": 58,
      "start": 134.7126,
      "duration": 0.167,
      "velocity": 103,
      "chip": "ym2612"
    },
    {
      "channel": 3,
      "note": 64,
      "start": 134.7179,
      "duration": 0.0107,
      "velocity": 127,
      "chip": "ym2612"
    },
    {
      "channel": 1,
      "note": 58,
      "start": 134.9148,
      "duration": 0.1671,
      "velocity": 103,
      "chip": "ym2612"
    },
    {
      "channel": 0,
      "note": 66,
      "start": 135.1169,
      "duration": 0.184,
      "velocity": 122,
      "chip": "ym2612"
    },
    {
      "channel": 1,
      "note": 54,
      "start": 135.1188,
      "duration": 0.1823,
      "velocity": 103,
      "chip": "ym2612"
    },
    {
      "channel": 2,
      "note": 61,
      "start": 135.1205,
      "duration": 0.5851,
      "velocity": 98,
      "chip": "ym2612"
    },
    {
      "channel": 3,
      "note": 64,
      "start": 135.1263,
      "duration": 0.0237,
      "velocity": 127,
      "chip": "ym2612"
    },
    {
      "channel": 4,
      "note": 58,
      "start": 135.128,
      "duration": 0.5783,
      "velocity": 98,
      "chip": "ym2612"
    },
    {
      "channel": 5,
      "note": 66,
      "start": 135.1297,
      "duration": 0.1724,
      "velocity": 119,
      "chip": "ym2612"
    },
    {
      "channel": 0,
      "note": 66,
      "start": 135.3359,
      "duration": 0.0154,
      "velocity": 122,
      "chip": "ym2612"
    },
    {
      "channel": 1,
      "note": 54,
      "start": 135.3377,
      "duration": 0.1655,
      "velocity": 103,
      "chip": "ym2612"
    },
    {
      "channel": 3,
      "note": 64,
      "start": 135.3431,
      "duration": 0.0093,
      "velocity": 127,
      "chip": "ym2612"
    },
    {
      "channel": 5,
      "note": 66,
      "start": 135.3449,
      "duration": 0.0078,
      "velocity": 119,
      "chip": "ym2612"
    },
    {
      "channel": 0,
      "note": 66,
      "start": 135.5382,
      "duration": 0.0155,
      "velocity": 122,
      "chip": "ym2612"
    },
    {
      "channel": 1,
      "note": 54,
      "start": 135.5399,
      "duration": 0.1655,
      "velocity": 103,
      "chip": "ym2612"
    },
    {
      "channel": 3,
      "note": 64,
      "start": 135.5421,
      "duration": 0.0125,
      "velocity": 127,
      "chip": "ym2612"
    },
    {
      "channel": 5,
      "note": 66,
      "start": 135.5439,
      "duration": 0.011,
      "velocity": 119,
      "chip": "ym2612"
    },
    {
      "channel": 0,
      "note": 68,
      "start": 135.7405,
      "duration": 0.3863,
      "velocity": 122,
      "chip": "ym2612"
    },
    {
      "channel": 1,
      "note": 56,
      "start": 135.7424,
      "duration": 0.1821,
      "velocity": 103,
      "chip": "ym2612"
    },
    {
      "channel": 2,
      "note": 63,
      "start": 135.7441,
      "duration": 0.5851,
      "velocity": 98,
      "chip": "ym2612"
    },
    {
      "channel": 3,
      "note": 64,
      "start": 135.7495,
      "duration": 0.0241,
      "velocity": 127,
      "chip": "ym2612"
    },
    {
      "channel": 4,
      "note": 60,
      "start": 135.7512,
      "duration": 0.5788,
      "velocity": 98,
      "chip": "ym2612"
    },
    {
      "channel": 5,
      "note": 68,
      "start": 135.7529,
      "duration": 0.3752,
      "velocity": 119,
      "chip": "ym2612"
    },
    {
      "channel": 1,
      "note": 56,
      "start": 135.9597,
      "duration": 0.1673,
      "velocity": 103,
      "chip": "ym2612"
    },
    {
      "channel": 3,
      "note": 64,
      "start": 135.9651,
      "duration": 0.0107,
      "velocity": 127,
      "chip": "ym2612"
    },
    {
      "channel": 0,
      "note": 68,
      "start": 136.1618,
      "duration": 0.0154,
      "velocity": 122,
      "chip": "ym2612"
    },
    {
      "channel": 1,
      "note": 56,
      "start": 136.1636,
      "duration": 0.1654,
      "velocity": 103,
      "chip": "ym2612"
    },
    {
      "channel": 3,
      "note": 64,
      "start": 136.1657,
      "duration": 0.0125,
      "velocity": 127,
      "chip": "ym2612"
    },
    {
      "channel": 5,
      "note": 68,
      "start": 136.1675,
      "duration": 0.011,
      "velocity": 119,
      "chip": "ym2612"
    },
    {
      "channel": 0,
      "note": 72,
      "start": 136.364,
      "duration": 0.3693,
      "velocity": 122,
      "chip": "ym2612"
    },
    {
      "channel": 1,
      "note": 56,
      "start": 136.3658,
      "duration": 0.1656,
      "velocity": 103,
      "chip": "ym2612"
    },
    {
      "channel": 2,
      "note": 68,
      "start": 136.3676,
      "duration": 0.3662,
      "velocity": 98,
      "chip": "ym2612"
    },
    {
      "channel": 3,
      "note": 68,
      "start": 136.3732,
      "duration": 0.0082,
      "velocity": 127,
      "chip": "ym2612"
    },
    {
      "channel": 4,
      "note": 63,
      "start": 136.3749,
      "duration": 0.3596,
      "velocity": 98,
      "chip": "ym2612"
    },
    {
      "channel": 5,
      "note": 72,
      "start": 136.3766,
      "duration": 0.3582,
      "velocity": 119,
      "chip": "ym2612"
    },
    {
      "channel": 1,
      "note": 56,
      "start": 136.5665,
      "duration": 0.1671,
      "velocity": 103,
      "chip": "ym2612"
    },
    {
      "channel": 0,
      "note": 73,
      "start": 136.7688,
      "duration": 0.9927,
      "velocity": 122,
      "chip": "ym2612"
    },
    {
      "channel": 1,
      "note": 61,
      "start": 136.771,
      "duration": 0.1815,
      "velocity": 103,
      "chip": "ym2612"
    },
    {
      "channel": 2,
      "note": 68,
      "start": 136.7731,
      "duration": 0.9887,
      "velocity": 98,
      "chip": "ym2612"
    },
    {
      "channel": 3,
      "note": 64,
      "start": 136.779,
      "duration": 0.0227,
      "velocity": 127,
      "chip": "ym2612"
    },
    {
      "channel": 4,
      "note": 65,
      "start": 136.781,
      "duration": 0.9816,
      "velocity": 98,
      "chip": "ym2612"
    },
    {
      "channel": 5,
      "note": 73,
      "start": 136.7829,
      "duration": 0.9799,
      "velocity": 119,
      "chip": "ym2612"
    },
    {
      "channel": 1,
      "note": 61,
      "start": 136.9885,
      "duration": 0.1662,
      "velocity": 103,
      "chip": "ym2612"
    },
    {
      "channel": 1,
      "note": 61,
      "start": 137.19,
      "duration": 0.1671,
      "velocity": 103,
      "chip": "ym2612"
    },
    {
      "channel": 3,
      "note": 64,
      "start": 137.1954,
      "duration": 0.0107,
      "velocity": 127,
      "chip": "ym2612"
    },
    {
      "channel": 1,
      "note": 61,
      "start": 137.3926,
      "duration": 0.1666,
      "velocity": 103,
      "chip": "ym2612"
    },
    {
      "channel": 1,
      "note": 61,
      "start": 137.5945,
      "duration": 0.1671,
      "velocity": 103,
      "chip": "ym2612"
    },
    {
      "channel": 3,
      "note": 64,
      "start": 137.6001,
      "duration": 0.0106,
      "velocity": 127,
      "chip": "ym2612"
    },
    {
      "channel": 0,
      "note": 75,
      "start": 137.7966,
      "duration": 0.1686,
      "velocity": 122,
      "chip": "ym2612"
    },
    {
      "channel": 1,
      "note": 61,
      "start": 137.7983,
      "duration": 0.1671,
      "velocity": 103,
      "chip": "ym2612"
    },
    {
      "channel": 2,
      "note": 70,
      "start": 137.8001,
      "duration": 0.1655,
      "velocity": 98,
      "chip": "ym2612"
    },
    {
      "channel": 4,
      "note": 66,
      "start": 137.8024,
      "duration": 0.164,
      "velocity": 98,
      "chip": "ym2612"
    },
    {
      "channel": 5,
      "note": 75,
      "start": 137.8041,
      "duration": 0.1625,
      "velocity": 119,
      "chip": "ym2612"
    },
    {
      "channel": 0,
      "note": 73,
      "start": 137.9988,
      "duration": 0.184,
      "velocity": 122,
      "chip": "ym2612"
    },
    {
      "channel": 1,
      "note": 61,
      "start": 138.0005,
      "duration": 0.1824,
      "velocity": 103,
      "chip": "ym2612"
    },
    {
      "channel": 2,
      "note": 68,
      "start": 138.0024,
      "duration": 0.1808,
      "velocity": 98,
      "chip": "ym2612"
    },
    {
      "channel": 3,
      "note": 64,
      "start": 138.0076,
      "duration": 0.0243,
      "velocity": 127,
      "chip": "ym2612"
    },
    {
      "channel": 4,
      "note": 65,
      "start": 138.0093,
      "duration": 0.1746,
      "velocity": 98,
      "chip": "ym2612"
    },
    {
      "channel": 5,
      "note": 73,
      "start": 138.011,
      "duration": 0.1732,
      "velocity": 119,
      "chip": "ym2612"
    },
    {
      "channel": 0,
      "note": 72,
      "start": 138.2179,
      "duration": 1.1783,
      "velocity": 122,
      "chip": "ym2612"
    },
    {
      "channel": 1,
      "note": 61,
      "start": 138.2197,
      "duration": 0.1654,
      "velocity": 103,
      "chip": "ym2612"
    },
    {
      "channel": 2,
      "note": 68,
      "start": 138.2215,
      "duration": 1.1751,
      "velocity": 98,
      "chip": "ym2612"
    },
    {
      "channel": 4,
      "note": 63,
      "start": 138.2237,
      "duration": 1.1737,
      "velocity": 98,
      "chip": "ym2612"
    },
    {
      "channel": 5,
      "note": 72,
      "start": 138.2254,
      "duration": 1.1722,
      "velocity": 119,
      "chip": "ym2612"
    },
    {
      "channel": 1,
      "note": 60,
      "start": 138.4205,
      "duration": 0.1668,
      "velocity": 103,
      "chip": "ym2612"
    },
    {
      "channel": 3,
      "note": 64,
      "start": 138.4261,
      "duration": 0.0104,
      "velocity": 127,
      "chip": "ym2612"
    },
    {
      "channel": 1,
      "note": 60,
      "start": 138.6226,
      "duration": 0.167,
      "velocity": 103,
      "chip": "ym2612"
    },
    {
      "channel": 1,
      "note": 60,
      "start": 138.8248,
      "duration": 0.167,
      "velocity": 103,
      "chip": "ym2612"
    },
    {
      "channel": 3,
      "note": 64,
      "start": 138.8302,
      "duration": 0.0107,
      "velocity": 127,
      "chip": "ym2612"
    },
    {
      "channel": 1,
      "note": 60,
      "start": 139.0271,
      "duration": 0.1669,
      "velocity": 103,
      "chip": "ym2612"
    },
    {
      "channel": 1,
      "note": 60,
      "start": 139.2293,
      "duration": 0.167,
      "velocity": 103,
      "chip": "ym2612"
    },
    {
      "channel": 3,
      "note": 64,
      "start": 139.2349,
      "duration": 0.0105,
      "velocity": 127,
      "chip": "ym2612"
    },
    {
      "channel": 0,
      "note": 73,
      "start": 139.4314,
      "duration": 0.1671,
      "velocity": 122,
      "chip": "ym2612"
    },
    {
      "channel": 1,
      "note": 60,
      "start": 139.4331,
      "duration": 0.1656,
      "velocity": 103,
      "chip": "ym2612"
    },
    {
      "channel": 2,
      "note": 70,
      "start": 139.4349,
      "duration": 0.164,
      "velocity": 98,
      "chip": "ym2612"
    },
    {
      "channel": 4,
      "note": 65,
      "start": 139.4372,
      "duration": 0.1624,
      "velocity": 98,
      "chip": "ym2612"
    },
    {
      "channel": 5,
      "note": 73,
      "start": 139.4388,
      "duration": 0.161,
      "velocity": 119,
      "chip": "ym2612"
    },
    {
      "channel": 0,
      "note": 72,
      "start": 139.6345,
      "duration": 0.183,
      "velocity": 122,
      "chip": "ym2612"
    },
    {
      "channel": 1,
      "note": 60,
      "start": 139.6363,
      "duration": 0.1815,
      "velocity": 103,
      "chip": "ym2612"
    },
    {
      "channel": 2,
      "note": 68,
      "start": 139.638,
      "duration": 0.1799,
      "velocity": 98,
      "chip": "ym2612"
    },
    {
      "channel": 3,
      "note": 64,
      "start": 139.6433,
      "duration": 0.0235,
      "velocity": 127,
      "chip": "ym2612"
    },
    {
      "channel": 4,
      "note": 63,
      "start": 139.6449,
      "duration": 0.1738,
      "velocity": 98,
      "chip": "ym2612"
    },
    {
      "channel": 5,
      "note": 72,
      "start": 139.6466,
      "duration": 0.1724,
      "velocity": 119,
      "chip": "ym2612"
    },
    {
      "channel": 0,
      "note": 70,
      "start": 139.8527,
      "duration": 1.785,
      "velocity": 122,
      "chip": "ym2612"
    },
    {
      "channel": 1,
      "note": 60,
      "start": 139.8545,
      "duration": 0.1654,
      "velocity": 103,
      "chip": "ym2612"
    },
    {
      "channel": 2,
      "note": 65,
      "start": 139.8562,
      "duration": 1.7819,
      "velocity": 98,
      "chip": "ym2612"
    },
    {
      "channel": 4,
      "note": 61,
      "start": 139.8585,
      "duration": 1.7804,
      "velocity": 98,
      "chip": "ym2612"
    },
    {
      "channel": 5,
      "note": 70,
      "start": 139.8602,
      "duration": 1.7789,
      "velocity": 119,
      "chip": "ym2612"
    },
    {
      "channel": 1,
      "note": 58,
      "start": 140.0568,
      "duration": 0.1654,
      "velocity": 103,
      "chip": "ym2612"
    },
    {
      "channel": 3,
      "note": 64,
      "start": 140.0637,
      "duration": 0.0093,
      "velocity": 127,
      "chip": "ym2612"
    },
    {
      "channel": 1,
      "note": 58,
      "start": 140.2574,
      "duration": 0.167,
      "velocity": 103,
      "chip": "ym2612"
    },
    {
      "channel": 1,
      "note": 58,
      "start": 140.4596,
      "duration": 0.167,
      "velocity": 103,
      "chip": "ym2612"
    },
    {
      "channel": 3,
      "note": 64,
      "start": 140.465,
      "duration": 0.0107,
      "velocity": 127,
      "chip": "ym2612"
    },
    {
      "channel": 1,
      "note": 58,
      "start": 140.6618,
      "duration": 0.167,
      "velocity": 103,
      "chip": "ym2612"
    },
    {
      "channel": 1,
      "note": 58,
      "start": 140.8641,
      "duration": 0.1669,
      "velocity": 103,
      "chip": "ym2612"
    },
    {
      "channel": 3,
      "note": 64,
      "start": 140.8697,
      "duration": 0.0106,
      "velocity": 127,
      "chip": "ym2612"
    },
    {
      "channel": 1,
      "note": 58,
      "start": 141.0663,
      "duration": 0.167,
      "velocity": 103,
      "chip": "ym2612"
    },
    {
      "channel": 1,
      "note": 58,
      "start": 141.2686,
      "duration": 0.167,
      "velocity": 103,
      "chip": "ym2612"
    },
    {
      "channel": 3,
      "note": 64,
      "start": 141.2739,
      "duration": 0.0107,
      "velocity": 127,
      "chip": "ym2612"
    },
    {
      "channel": 1,
      "note": 58,
      "start": 141.4709,
      "duration": 0.1671,
      "velocity": 103,
      "chip": "ym2612"
    },
    {
      "channel": 0,
      "note": 66,
      "start": 141.6728,
      "duration": 0.184,
      "velocity": 122,
      "chip": "ym2612"
    },
    {
      "channel": 1,
      "note": 54,
      "start": 141.6748,
      "duration": 0.1822,
      "velocity": 103,
      "chip": "ym2612"
    },
    {
      "channel": 2,
      "note": 61,
      "start": 141.6765,
      "duration": 0.5851,
      "velocity": 98,
      "chip": "ym2612"
    },
    {
      "channel": 3,
      "note": 64,
      "start": 141.6823,
      "duration": 0.0242,
      "velocity": 127,
      "chip": "ym2612"
    },
    {
      "channel": 4,
      "note": 58,
      "start": 141.684,
      "duration": 0.5783,
      "velocity": 98,
      "chip": "ym2612"
    },
    {
      "channel": 5,
      "note": 66,
      "start": 141.6857,
      "duration": 0.1723,
      "velocity": 119,
      "chip": "ym2612"
    },
    {
      "channel": 0,
      "note": 66,
      "start": 141.892,
      "duration": 0.0154,
      "velocity": 122,
      "chip": "ym2612"
    },
    {
      "channel": 1,
      "note": 54,
      "start": 141.8937,
      "duration": 0.1654,
      "velocity": 103,
      "chip": "ym2612"
    },
    {
      "channel": 3,
      "note": 64,
      "start": 141.8991,
      "duration": 0.0092,
      "velocity": 127,
      "chip": "ym2612"
    },
    {
      "channel": 5,
      "note": 66,
      "start": 141.9009,
      "duration": 0.0078,
      "velocity": 119,
      "chip": "ym2612"
    },
    {
      "channel": 0,
      "note": 66,
      "start": 142.0941,
      "duration": 0.0156,
      "velocity": 122,
      "chip": "ym2612"
    },
    {
      "channel": 1,
      "note": 54,
      "start": 142.0959,
      "duration": 0.1654,
      "velocity": 103,
      "chip": "ym2612"
    },
    {
      "channel": 3,
      "note": 64,
      "start": 142.0981,
      "duration": 0.0126,
      "velocity": 127,
      "chip": "ym2612"
    },
    {
      "channel": 5,
      "note": 66,
      "start": 142.0999,
      "duration": 0.0111,
      "velocity": 119,
      "chip": "ym2612"
    },
    {
      "channel": 0,
      "note": 68,
      "start": 142.2964,
      "duration": 0.387,
      "velocity": 122,
      "chip": "ym2612"
    },
    {
      "channel": 1,
      "note": 56,
      "start": 142.2983,
      "duration": 0.1821,
      "velocity": 103,
      "chip": "ym2612"
    },
    {
      "channel": 2,
      "note": 63,
      "start": 142.3001,
      "duration": 0.5851,
      "velocity": 98,
      "chip": "ym2612"
    },
    {
      "channel": 3,
      "note": 64,
      "start": 142.3055,
      "duration": 0.0241,
      "velocity": 127,
      "chip": "ym2612"
    },
    {
      "channel": 4,
      "note": 60,
      "start": 142.3072,
      "duration": 0.5788,
      "velocity": 98,
      "chip": "ym2612"
    },
    {
      "channel": 5,
      "note": 68,
      "start": 142.3088,
      "duration": 0.3758,
      "velocity": 119,
      "chip": "ym2612"
    },
    {
      "channel": 1,
      "note": 56,
      "start": 142.5157,
      "duration": 0.1679,
      "velocity": 103,
      "chip": "ym2612"
    },
    {
      "channel": 3,
      "note": 64,
      "start": 142.5211,
      "duration": 0.0107,
      "velocity": 127,
      "chip": "ym2612"
    },
    {
      "channel": 0,
      "note": 68,
      "start": 142.7178,
      "duration": 0.0155,
      "velocity": 122,
      "chip": "ym2612"
    },
    {
      "channel": 1,
      "note": 56,
      "start": 142.7195,
      "duration": 0.1654,
      "velocity": 103,
      "chip": "ym2612"
    },
    {
      "channel": 3,
      "note": 64,
      "start": 142.7217,
      "duration": 0.0125,
      "velocity": 127,
      "chip": "ym2612"
    },
    {
      "channel": 5,
      "note": 68,
      "start": 142.7235,
      "duration": 0.011,
      "velocity": 119,
      "chip": "ym2612"
    },
    {
      "channel": 0,
      "note": 72,
      "start": 142.92,
      "duration": 0.3693,
      "velocity": 122,
      "chip": "ym2612"
    },
    {
      "channel": 1,
      "note": 56,
      "start": 142.9218,
      "duration": 0.1663,
      "velocity": 103,
      "chip": "ym2612"
    },
    {
      "channel": 2,
      "note": 68,
      "start": 142.9236,
      "duration": 0.3662,
      "velocity": 98,
      "chip": "ym2612"
    },
    {
      "channel": 3,
      "note": 68,
      "start": 142.9292,
      "duration": 0.0083,
      "velocity": 127,
      "chip": "ym2612"
    },
    {
      "channel": 4,
      "note": 63,
      "start": 142.9309,
      "duration": 0.3596,
      "velocity": 98,
      "chip": "ym2612"
    },
    {
      "channel": 5,
      "note": 72,
      "start": 142.9326,
      "duration": 0.3582,
      "velocity": 119,
      "chip": "ym2612"
    },
    {
      "channel": 1,
      "note": 56,
      "start": 143.1225,
      "duration": 0.1671,
      "velocity": 103,
      "chip": "ym2612"
    },
    {
      "channel": 0,
      "note": 61,
      "start": 143.3251,
      "duration": 0.0317,
      "velocity": 122,
      "chip": "ym2612"
    },
    {
      "channel": 1,
      "note": 49,
      "start": 143.3272,
      "duration": 0.1813,
      "velocity": 103,
      "chip": "ym2612"
    },
    {
      "channel": 2,
      "note": 73,
      "start": 143.3326,
      "duration": 1.1874,
      "velocity": 109,
      "chip": "ym2612"
    },
    {
      "channel": 3,
      "note": 64,
      "start": 143.3385,
      "duration": 0.0193,
      "velocity": 127,
      "chip": "ym2612"
    },
    {
      "channel": 4,
      "note": 73,
      "start": 143.3439,
      "duration": 1.1768,
      "velocity": 109,
      "chip": "ym2612"
    },
    {
      "channel": 5,
      "note": 61,
      "start": 143.3461,
      "duration": 0.012,
      "velocity": 119,
      "chip": "ym2612"
    },
    {
      "channel": 0,
      "note": 61,
      "start": 143.5437,
      "duration": 0.0153,
      "velocity": 122,
      "chip": "ym2612"
    },
    {
      "channel": 1,
      "note": 49,
      "start": 143.5455,
      "duration": 0.1653,
      "velocity": 103,
      "chip": "ym2612"
    },
    {
      "channel": 5,
      "note": 61,
      "start": 143.5481,
      "duration": 0.012,
      "velocity": 119,
      "chip": "ym2612"
    },
    {
      "channel": 0,
      "note": 61,
      "start": 143.7459,
      "duration": 0.0153,
      "velocity": 122,
      "chip": "ym2612"
    },
    {
      "channel": 1,
      "note": 49,
      "start": 143.7477,
      "duration": 0.1653,
      "velocity": 103,
      "chip": "ym2612"
    },
    {
      "channel": 3,
      "note": 64,
      "start": 143.7531,
      "duration": 0.0092,
      "velocity": 127,
      "chip": "ym2612"
    },
    {
      "channel": 5,
      "note": 61,
      "start": 143.755,
      "duration": 0.0076,
      "velocity": 119,
      "chip": "ym2612"
    },
    {
      "channel": 0,
      "note": 61,
      "start": 143.9482,
      "duration": 0.0153,
      "velocity": 122,
      "chip": "ym2612"
    },
    {
      "channel": 1,
      "note": 49,
      "start": 143.9499,
      "duration": 0.1654,
      "velocity": 103,
      "chip": "ym2612"
    },
    {
      "channel": 5,
      "note": 61,
      "start": 143.9525,
      "duration": 0.0121,
      "velocity": 119,
      "chip": "ym2612"
    },
    {
      "channel": 0,
      "note": 61,
      "start": 144.1505,
      "duration": 0.0153,
      "velocity": 122,
      "chip": "ym2612"
    },
    {
      "channel": 1,
      "note": 49,
      "start": 144.1522,
      "duration": 0.1654,
      "velocity": 103,
      "chip": "ym2612"
    },
    {
      "channel": 3,
      "note": 64,
      "start": 144.1578,
      "duration": 0.0089,
      "velocity": 127,
      "chip": "ym2612"
    },
    {
      "channel": 5,
      "note": 61,
      "start": 144.1597,
      "duration": 0.0074,
      "velocity": 119,
      "chip": "ym2612"
    },
    {
      "channel": 0,
      "note": 61,
      "start": 144.3534,
      "duration": 0.0146,
      "velocity": 122,
      "chip": "ym2612"
    },
    {
      "channel": 1,
      "note": 49,
      "start": 144.3551,
      "duration": 0.1646,
      "velocity": 103,
      "chip": "ym2612"
    },
    {
      "channel": 5,
      "note": 61,
      "start": 144.3577,
      "duration": 0.0114,
      "velocity": 119,
      "chip": "ym2612"
    },
    {
      "channel": 0,
      "note": 61,
      "start": 144.5549,
      "duration": 0.0157,
      "velocity": 122,
      "chip": "ym2612"
    },
    {
      "channel": 1,
      "note": 49,
      "start": 144.5567,
      "duration": 0.1653,
      "velocity": 103,
      "chip": "ym2612"
    },
    {
      "channel": 2,
      "note": 68,
      "start": 144.5585,
      "duration": 0.0625,
      "velocity": 109,
      "chip": "ym2612"
    },
    {
      "channel": 3,
      "note": 64,
      "start": 144.5637,
      "duration": 0.0079,
      "velocity": 127,
      "chip": "ym2612"
    },
    {
      "channel": 4,
      "note": 68,
      "start": 144.5654,
      "duration": 0.0564,
      "velocity": 109,
      "chip": "ym2612"
    },
    {
      "channel": 5,
      "note": 61,
      "start": 144.5672,
      "duration": 0.0048,
      "velocity": 119,
      "chip": "ym2612"
    },
    {
      "channel": 2,
      "note": 73,
      "start": 144.6562,
      "duration": 0.066,
      "velocity": 109,
      "chip": "ym2612"
    },
    {
      "channel": 4,
      "note": 73,
      "start": 144.6585,
      "duration": 0.0645,
      "velocity": 109,
      "chip": "ym2612"
    },
    {
      "channel": 0,
      "note": 61,
      "start": 144.7574,
      "duration": 0.0151,
      "velocity": 122,
      "chip": "ym2612"
    },
    {
      "channel": 1,
      "note": 49,
      "start": 144.7592,
      "duration": 0.1651,
      "velocity": 103,
      "chip": "ym2612"
    },
    {
      "channel": 2,
      "note": 75,
      "start": 144.761,
      "duration": 0.1635,
      "velocity": 109,
      "chip": "ym2612"
    },
    {
      "channel": 4,
      "note": 75,
      "start": 144.7632,
      "duration": 0.1621,
      "velocity": 109,
      "chip": "ym2612"
    },
    {
      "channel": 5,
      "note": 61,
      "start": 144.765,
      "duration": 0.0086,
      "velocity": 119,
      "chip": "ym2612"
    },
    {
      "channel": 0,
      "note": 61,
      "start": 144.9594,
      "duration": 0.0321,
      "velocity": 122,
      "chip": "ym2612"
    },
    {
      "channel": 1,
      "note": 49,
      "start": 144.9612,
      "duration": 0.1821,
      "velocity": 103,
      "chip": "ym2612"
    },
    {
      "channel": 2,
      "note": 80,
      "start": 144.963,
      "duration": 1.1918,
      "velocity": 109,
      "chip": "ym2612"
    },
    {
      "channel": 3,
      "note": 64,
      "start": 144.9684,
      "duration": 0.0242,
      "velocity": 127,
      "chip": "ym2612"
    },
    {
      "channel": 4,
      "note": 80,
      "start": 144.9701,
      "duration": 1.1854,
      "velocity": 109,
      "chip": "ym2612"
    },
    {
      "channel": 5,
      "note": 61,
      "start": 144.972,
      "duration": 0.0209,
      "velocity": 119,
      "chip": "ym2612"
    },
    {
      "channel": 0,
      "note": 61,
      "start": 145.1785,
      "duration": 0.0153,
      "velocity": 122,
      "chip": "ym2612"
    },
    {
      "channel": 1,
      "note": 49,
      "start": 145.1803,
      "duration": 0.1653,
      "velocity": 103,
      "chip": "ym2612"
    },
    {
      "channel": 5,
      "note": 61,
      "start": 145.1829,
      "duration": 0.012,
      "velocity": 119,
      "chip": "ym2612"
    },
    {
      "channel": 0,
      "note": 61,
      "start": 145.3807,
      "duration": 0.0153,
      "velocity": 122,
      "chip": "ym2612"
    },
    {
      "channel": 1,
      "note": 49,
      "start": 145.3825,
      "duration": 0.1653,
      "velocity": 103,
      "chip": "ym2612"
    },
    {
      "channel": 3,
      "note": 64,
      "start": 145.3879,
      "duration": 0.0092,
      "velocity": 127,
      "chip": "ym2612"
    },
    {
      "channel": 5,
      "note": 61,
      "start": 145.3898,
      "duration": 0.0076,
      "velocity": 119,
      "chip": "ym2612"
    },
    {
      "channel": 0,
      "note": 61,
      "start": 145.5829,
      "duration": 0.0154,
      "velocity": 122,
      "chip": "ym2612"
    },
    {
      "channel": 1,
      "note": 49,
      "start": 145.5847,
      "duration": 0.1653,
      "velocity": 103,
      "chip": "ym2612"
    },
    {
      "channel": 5,
      "note": 61,
      "start": 145.5873,
      "duration": 0.012,
      "velocity": 119,
      "chip": "ym2612"
    },
    {
      "channel": 0,
      "note": 61,
      "start": 145.7852,
      "duration": 0.0153,
      "velocity": 122,
      "chip": "ym2612"
    },
    {
      "channel": 1,
      "note": 49,
      "start": 145.787,
      "duration": 0.1653,
      "velocity": 103,
      "chip": "ym2612"
    },
    {
      "channel": 3,
      "note": 64,
      "start": 145.7926,
      "duration": 0.0089,
      "velocity": 127,
      "chip": "ym2612"
    },
    {
      "channel": 5,
      "note": 61,
      "start": 145.7945,
      "duration": 0.0073,
      "velocity": 119,
      "chip": "ym2612"
    },
    {
      "channel": 0,
      "note": 61,
      "start": 145.9875,
      "duration": 0.0152,
      "velocity": 122,
      "chip": "ym2612"
    },
    {
      "channel": 1,
      "note": 49,
      "start": 145.9893,
      "duration": 0.1653,
      "velocity": 103,
      "chip": "ym2612"
    },
    {
      "channel": 5,
      "note": 61,
      "start": 145.9919,
      "duration": 0.0121,
      "velocity": 119,
      "chip": "ym2612"
    },
    {
      "channel": 0,
      "note": 61,
      "start": 146.1897,
      "duration": 0.0322,
      "velocity": 122,
      "chip": "ym2612"
    },
    {
      "channel": 1,
      "note": 49,
      "start": 146.1915,
      "duration": 0.1822,
      "velocity": 103,
      "chip": "ym2612"
    },
    {
      "channel": 2,
      "note": 73,
      "start": 146.1933,
      "duration": 0.0794,
      "velocity": 109,
      "chip": "ym2612"
    },
    {
      "channel": 3,
      "note": 64,
      "start": 146.1985,
      "duration": 0.0244,
      "velocity": 127,
      "chip": "ym2612"
    },
    {
      "channel": 4,
      "note": 73,
      "start": 146.2002,
      "duration": 0.0732,
      "velocity": 109,
      "chip": "ym2612"
    },
    {
      "channel": 5,
      "note": 61,
      "start": 146.202,
      "duration": 0.0212,
      "velocity": 119,
      "chip": "ym2612"
    },
    {
      "channel": 2,
      "note": 75,
      "start": 146.309,
      "duration": 0.0648,
      "velocity": 109,
      "chip": "ym2612"
    },
    {
      "channel": 4,
      "note": 75,
      "start": 146.3113,
      "duration": 0.0634,
      "velocity": 109,
      "chip": "ym2612"
    },
    {
      "channel": 0,
      "note": 61,
      "start": 146.4088,
      "duration": 0.0155,
      "velocity": 122,
      "chip": "ym2612"
    },
    {
      "channel": 1,
      "note": 49,
      "start": 146.4106,
      "duration": 0.1653,
      "velocity": 103,
      "chip": "ym2612"
    },
    {
      "channel": 2,
      "note": 76,
      "start": 146.4123,
      "duration": 0.1637,
      "velocity": 109,
      "chip": "ym2612"
    },
    {
      "channel": 4,
      "note": 76,
      "start": 146.4146,
      "duration": 0.1623,
      "velocity": 109,
      "chip": "ym2612"
    },
    {
      "channel": 5,
      "note": 61,
      "start": 146.4163,
      "duration": 0.0091,
      "velocity": 119,
      "chip": "ym2612"
    },
    {
      "channel": 0,
      "note": 61,
      "start": 146.6111,
      "duration": 0.0321,
      "velocity": 122,
      "chip": "ym2612"
    },
    {
      "channel": 1,
      "note": 49,
      "start": 146.6132,
      "duration": 0.1817,
      "velocity": 103,
      "chip": "ym2612"
    },
    {
      "channel": 2,
      "note": 81,
      "start": 146.615,
      "duration": 1.1915,
      "velocity": 109,
      "chip": "ym2612"
    },
    {
      "channel": 3,
      "note": 64,
      "start": 146.6209,
      "duration": 0.0233,
      "velocity": 127,
      "chip": "ym2612"
    },
    {
      "channel": 4,
      "note": 81,
      "start": 146.6226,
      "duration": 1.1847,
      "velocity": 109,
      "chip": "ym2612"
    },
    {
      "channel": 5,
      "note": 61,
      "start": 146.6244,
      "duration": 0.0201,
      "velocity": 119,
      "chip": "ym2612"
    },
    {
      "channel": 0,
      "note": 61,
      "start": 146.8302,
      "duration": 0.0152,
      "velocity": 122,
      "chip": "ym2612"
    },
    {
      "channel": 1,
      "note": 49,
      "start": 146.832,
      "duration": 0.166,
      "velocity": 103,
      "chip": "ym2612"
    },
    {
      "channel": 5,
      "note": 61,
      "start": 146.8346,
      "duration": 0.012,
      "velocity": 119,
      "chip": "ym2612"
    },
    {
      "channel": 0,
      "note": 61,
      "start": 147.0324,
      "duration": 0.0153,
      "velocity": 122,
      "chip": "ym2612"
    },
    {
      "channel": 1,
      "note": 49,
      "start": 147.0342,
      "duration": 0.1653,
      "velocity": 103,
      "chip": "ym2612"
    },
    {
      "channel": 3,
      "note": 64,
      "start": 147.0396,
      "duration": 0.0092,
      "velocity": 127,
      "chip": "ym2612"
    },
    {
      "channel": 5,
      "note": 61,
      "start": 147.0415,
      "duration": 0.0076,
      "velocity": 119,
      "chip": "ym2612"
    },
    {
      "channel": 0,
      "note": 61,
      "start": 147.2346,
      "duration": 0.0153,
      "velocity": 122,
      "chip": "ym2612"
    },
    {
      "channel": 1,
      "note": 49,
      "start": 147.2364,
      "duration": 0.1658,
      "velocity": 103,
      "chip": "ym2612"
    },
    {
      "channel": 5,
      "note": 61,
      "start": 147.239,
      "duration": 0.012,
      "velocity": 119,
      "chip": "ym2612"
    },
    {
      "channel": 0,
      "note": 61,
      "start": 147.4369,
      "duration": 0.0153,
      "velocity": 122,
      "chip": "ym2612"
    },
    {
      "channel": 1,
      "note": 49,
      "start": 147.4387,
      "duration": 0.1653,
      "velocity": 103,
      "chip": "ym2612"
    },
    {
      "channel": 3,
      "note": 64,
      "start": 147.4442,
      "duration": 0.009,
      "velocity": 127,
      "chip": "ym2612"
    },
    {
      "channel": 5,
      "note": 61,
      "start": 147.4461,
      "duration": 0.0074,
      "velocity": 119,
      "chip": "ym2612"
    },
    {
      "channel": 0,
      "note": 61,
      "start": 147.6391,
      "duration": 0.0153,
      "velocity": 122,
      "chip": "ym2612"
    },
    {
      "channel": 1,
      "note": 49,
      "start": 147.6408,
      "duration": 0.1655,
      "velocity": 103,
      "chip": "ym2612"
    },
    {
      "channel": 5,
      "note": 61,
      "start": 147.6434,
      "duration": 0.0121,
      "velocity": 119,
      "chip": "ym2612"
    },
    {
      "channel": 0,
      "note": 61,
      "start": 147.8414,
      "duration": 0.0156,
      "velocity": 122,
      "chip": "ym2612"
    },
    {
      "channel": 1,
      "note": 49,
      "start": 147.8431,
      "duration": 0.1653,
      "velocity": 103,
      "chip": "ym2612"
    },
    {
      "channel": 2,
      "note": 73,
      "start": 147.8449,
      "duration": 0.0625,
      "velocity": 109,
      "chip": "ym2612"
    },
    {
      "channel": 3,
      "note": 64,
      "start": 147.8501,
      "duration": 0.0078,
      "velocity": 127,
      "chip": "ym2612"
    },
    {
      "channel": 4,
      "note": 73,
      "start": 147.8519,
      "duration": 0.0563,
      "velocity": 109,
      "chip": "ym2612"
    },
    {
      "channel": 5,
      "note": 61,
      "start": 147.8537,
      "duration": 0.0046,
      "velocity": 119,
      "chip": "ym2612"
    },
    {
      "channel": 2,
      "note": 75,
      "start": 147.9426,
      "duration": 0.066,
      "velocity": 109,
      "chip": "ym2612"
    },
    {
      "channel": 4,
      "note": 75,
      "start": 147.9449,
      "duration": 0.0646,
      "velocity": 109,
      "chip": "ym2612"
    },
    {
      "channel": 0,
      "note": 61,
      "start": 148.0436,
      "duration": 0.0153,
      "velocity": 122,
      "chip": "ym2612"
    },
    {
      "channel": 1,
      "note": 49,
      "start": 148.0454,
      "duration": 0.1653,
      "velocity": 103,
      "chip": "ym2612"
    },
    {
      "channel": 2,
      "note": 76,
      "start": 148.0471,
      "duration": 0.1637,
      "velocity": 109,
      "chip": "ym2612"
    },
    {
      "channel": 4,
      "note": 76,
      "start": 148.0494,
      "duration": 0.1623,
      "velocity": 109,
      "chip": "ym2612"
    },
    {
      "channel": 5,
      "note": 61,
      "start": 148.0512,
      "duration": 0.0088,
      "velocity": 119,
      "chip": "ym2612"
    },
    {
      "channel": 0,
      "note": 61,
      "start": 148.2459,
      "duration": 0.0165,
      "velocity": 122,
      "chip": "ym2612"
    },
    {
      "channel": 1,
      "note": 49,
      "start": 148.2476,
      "duration": 0.1653,
      "velocity": 103,
      "chip": "ym2612"
    },
    {
      "channel": 2,
      "note": 82,
      "start": 148.2494,
      "duration": 1.1749,
      "velocity": 109,
      "chip": "ym2612"
    },
    {
      "channel": 3,
      "note": 64,
      "start": 148.2548,
      "duration": 0.0085,
      "velocity": 127,
      "chip": "ym2612"
    },
    {
      "channel": 4,
      "note": 82,
      "start": 148.2566,
      "duration": 1.1685,
      "velocity": 109,
      "chip": "ym2612"
    },
    {
      "channel": 5,
      "note": 61,
      "start": 148.2583,
      "duration": 0.0054,
      "velocity": 119,
      "chip": "ym2612"
    },
    {
      "channel": 0,
      "note": 61,
      "start": 148.4481,
      "duration": 0.0153,
      "velocity": 122,
      "chip": "ym2612"
    },
    {
      "channel": 1,
      "note": 49,
      "start": 148.4498,
      "duration": 0.1653,
      "velocity": 103,
      "chip": "ym2612"
    },
    {
      "channel": 5,
      "note": 61,
      "start": 148.4525,
      "duration": 0.012,
      "velocity": 119,
      "chip": "ym2612"
    },
    {
      "channel": 0,
      "note": 61,
      "start": 148.6503,
      "duration": 0.016,
      "velocity": 122,
      "chip": "ym2612"
    },
    {
      "channel": 1,
      "note": 49,
      "start": 148.6521,
      "duration": 0.1654,
      "velocity": 103,
      "chip": "ym2612"
    },
    {
      "channel": 3,
      "note": 64,
      "start": 148.6575,
      "duration": 0.0099,
      "velocity": 127,
      "chip": "ym2612"
    },
    {
      "channel": 5,
      "note": 61,
      "start": 148.6594,
      "duration": 0.0083,
      "velocity": 119,
      "chip": "ym2612"
    },
    {
      "channel": 0,
      "note": 61,
      "start": 148.8525,
      "duration": 0.0153,
      "velocity": 122,
      "chip": "ym2612"
    },
    {
      "channel": 1,
      "note": 49,
      "start": 148.8543,
      "duration": 0.1653,
      "velocity": 103,
      "chip": "ym2612"
    },
    {
      "channel": 5,
      "note": 61,
      "start": 148.8603,
      "duration": 0.0096,
      "velocity": 119,
      "chip": "ym2612"
    },
    {
      "channel": 0,
      "note": 61,
      "start": 149.0548,
      "duration": 0.0157,
      "velocity": 122,
      "chip": "ym2612"
    },
    {
      "channel": 1,
      "note": 49,
      "start": 149.0566,
      "duration": 0.1653,
      "velocity": 103,
      "chip": "ym2612"
    },
    {
      "channel": 3,
      "note": 64,
      "start": 149.0621,
      "duration": 0.0094,
      "velocity": 127,
      "chip": "ym2612"
    },
    {
      "channel": 5,
      "note": 61,
      "start": 149.0641,
      "duration": 0.0077,
      "velocity": 119,
      "chip": "ym2612"
    },
    {
      "channel": 0,
      "note": 61,
      "start": 149.2571,
      "duration": 0.0153,
      "velocity": 122,
      "chip": "ym2612"
    },
    {
      "channel": 1,
      "note": 49,
      "start": 149.2588,
      "duration": 0.1653,
      "velocity": 103,
      "chip": "ym2612"
    },
    {
      "channel": 5,
      "note": 61,
      "start": 149.2614,
      "duration": 0.0121,
      "velocity": 119,
      "chip": "ym2612"
    },
    {
      "channel": 0,
      "note": 61,
      "start": 149.4593,
      "duration": 0.0156,
      "velocity": 122,
      "chip": "ym2612"
    },
    {
      "channel": 1,
      "note": 49,
      "start": 149.461,
      "duration": 0.1653,
      "velocity": 103,
      "chip": "ym2612"
    },
    {
      "channel": 2,
      "note": 84,
      "start": 149.4628,
      "duration": 0.366,
      "velocity": 109,
      "chip": "ym2612"
    },
    {
      "channel": 3,
      "note": 64,
      "start": 149.4681,
      "duration": 0.0078,
      "velocity": 127,
      "chip": "ym2612"
    },
    {
      "channel": 4,
      "note": 84,
      "start": 149.4698,
      "duration": 0.3598,
      "velocity": 109,
      "chip": "ym2612"
    },
    {
      "channel": 5,
      "note": 61,
      "start": 149.4716,
      "duration": 0.0046,
      "velocity": 119,
      "chip": "ym2612"
    },
    {
      "channel": 0,
      "note": 61,
      "start": 149.6615,
      "duration": 0.0153,
      "velocity": 122,
      "chip": "ym2612"
    },
    {
      "channel": 1,
      "note": 49,
      "start": 149.6633,
      "duration": 0.1653,
      "velocity": 103,
      "chip": "ym2612"
    },
    {
      "channel": 5,
      "note": 61,
      "start": 149.6659,
      "duration": 0.012,
      "velocity": 119,
      "chip": "ym2612"
    },
    {
      "channel": 0,
      "note": 61,
      "start": 149.8642,
      "duration": 0.0317,
      "velocity": 122,
      "chip": "ym2612"
    },
    {
      "channel": 1,
      "note": 49,
      "start": 149.8663,
      "duration": 0.1819,
      "velocity": 103,
      "chip": "ym2612"
    },
    {
      "channel": 2,
      "note": 85,
      "start": 149.8681,
      "duration": 0.7865,
      "velocity": 109,
      "chip": "ym2612"
    },
    {
      "channel": 3,
      "note": 64,
      "start": 149.874,
      "duration": 0.0229,
      "velocity": 127,
      "chip": "ym2612"
    },
    {
      "channel": 4,
      "note": 85,
      "start": 149.8757,
      "duration": 0.7796,
      "velocity": 109,
      "chip": "ym2612"
    },
    {
      "channel": 5,
      "note": 61,
      "start": 149.8779,
      "duration": 0.0193,
      "velocity": 119,
      "chip": "ym2612"
    },
    {
      "channel": 0,
      "note": 61,
      "start": 150.0829,
      "duration": 0.0153,
      "velocity": 122,
      "chip": "ym2612"
    },
    {
      "channel": 1,
      "note": 49,
      "start": 150.0846,
      "duration": 0.1653,
      "velocity": 103,
      "chip": "ym2612"
    },
    {
      "channel": 5,
      "note": 61,
      "start": 150.0873,
      "duration": 0.012,
      "velocity": 119,
      "chip": "ym2612"
    },
    {
      "channel": 0,
      "note": 61,
      "start": 150.2851,
      "duration": 0.0153,
      "velocity": 122,
      "chip": "ym2612"
    },
    {
      "channel": 1,
      "note": 49,
      "start": 150.2869,
      "duration": 0.1656,
      "velocity": 103,
      "chip": "ym2612"
    },
    {
      "channel": 3,
      "note": 64,
      "start": 150.2923,
      "duration": 0.0091,
      "velocity": 127,
      "chip": "ym2612"
    },
    {
      "channel": 5,
      "note": 61,
      "start": 150.2942,
      "duration": 0.0076,
      "velocity": 119,
      "chip": "ym2612"
    },
    {
      "channel": 0,
      "note": 61,
      "start": 150.4874,
      "duration": 0.0152,
      "velocity": 122,
      "chip": "ym2612"
    },
    {
      "channel": 1,
      "note": 49,
      "start": 150.4891,
      "duration": 0.1653,
      "velocity": 103,
      "chip": "ym2612"
    },
    {
      "channel": 5,
      "note": 61,
      "start": 150.4917,
      "duration": 0.012,
      "velocity": 119,
      "chip": "ym2612"
    },
    {
      "channel": 0,
      "note": 61,
      "start": 150.6896,
      "duration": 0.0159,
      "velocity": 122,
      "chip": "ym2612"
    },
    {
      "channel": 1,
      "note": 49,
      "start": 150.6914,
      "duration": 0.1653,
      "velocity": 103,
      "chip": "ym2612"
    },
    {
      "channel": 2,
      "note": 85,
      "start": 150.6931,
      "duration": 0.0625,
      "velocity": 109,
      "chip": "ym2612"
    },
    {
      "channel": 3,
      "note": 64,
      "start": 150.6985,
      "duration": 0.0078,
      "velocity": 127,
      "chip": "ym2612"
    },
    {
      "channel": 4,
      "note": 85,
      "start": 150.7002,
      "duration": 0.0562,
      "velocity": 109,
      "chip": "ym2612"
    },
    {
      "channel": 5,
      "note": 61,
      "start": 150.702,
      "duration": 0.0047,
      "velocity": 119,
      "chip": "ym2612"
    },
    {
      "channel": 2,
      "note": 84,
      "start": 150.8246,
      "duration": 0.0692,
      "velocity": 109,
      "chip": "ym2612"
    },
    {
      "channel": 4,
      "note": 84,
      "start": 150.8268,
      "duration": 0.0678,
      "velocity": 109,
      "chip": "ym2612"
    },
    {
      "channel": 0,
      "note": 61,
      "start": 150.8919,
      "duration": 0.0152,
      "velocity": 122,
      "chip": "ym2612"
    },
    {
      "channel": 1,
      "note": 49,
      "start": 150.8936,
      "duration": 0.1653,
      "velocity": 103,
      "chip": "ym2612"
    },
    {
      "channel": 5,
      "note": 61,
      "start": 150.8964,
      "duration": 0.0118,
      "velocity": 119,
      "chip": "ym2612"
    },
    {
      "channel": 2,
      "note": 81,
      "start": 150.9594,
      "duration": 0.0666,
      "velocity": 109,
      "chip": "ym2612"
    },
    {
      "channel": 4,
      "note": 81,
      "start": 150.9617,
      "duration": 0.0651,
      "velocity": 109,
      "chip": "ym2612"
    },
    {
      "channel": 0,
      "note": 61,
      "start": 151.0941,
      "duration": 0.0153,
      "velocity": 122,
      "chip": "ym2612"
    },
    {
      "channel": 1,
      "note": 49,
      "start": 151.0958,
      "duration": 0.1653,
      "velocity": 103,
      "chip": "ym2612"
    },
    {
      "channel": 2,
      "note": 84,
      "start": 151.0976,
      "duration": 0.0626,
      "velocity": 109,
      "chip": "ym2612"
    },
    {
      "channel": 3,
      "note": 64,
      "start": 151.1028,
      "duration": 0.0076,
      "velocity": 127,
      "chip": "ym2612"
    },
    {
      "channel": 4,
      "note": 84,
      "start": 151.1045,
      "duration": 0.0564,
      "velocity": 109,
      "chip": "ym2612"
    },
    {
      "channel": 5,
      "note": 61,
      "start": 151.1064,
      "duration": 0.0043,
      "velocity": 119,
      "chip": "ym2612"
    },
    {
      "channel": 2,
      "note": 81,
      "start": 151.2291,
      "duration": 0.0693,
      "velocity": 109,
      "chip": "ym2612"
    },
    {
      "channel": 4,
      "note": 81,
      "start": 151.2313,
      "duration": 0.0678,
      "velocity": 109,
      "chip": "ym2612"
    },
    {
      "channel": 0,
      "note": 61,
      "start": 151.2963,
      "duration": 0.0164,
      "velocity": 122,
      "chip": "ym2612"
    },
    {
      "channel": 1,
      "note": 49,
      "start": 151.2981,
      "duration": 0.1653,
      "velocity": 103,
      "chip": "ym2612"
    },
    {
      "channel": 5,
      "note": 61,
      "start": 151.3009,
      "duration": 0.013,
      "velocity": 119,
      "chip": "ym2612"
    },
    {
      "channel": 2,
      "note": 80,
      "start": 151.3639,
      "duration": 0.0661,
      "velocity": 109,
      "chip": "ym2612"
    },
    {
      "channel": 4,
      "note": 80,
      "start": 151.3662,
      "duration": 0.0646,
      "velocity": 109,
      "chip": "ym2612"
    },
    {
      "channel": 0,
      "note": 61,
      "start": 151.4985,
      "duration": 0.0165,
      "velocity": 122,
      "chip": "ym2612"
    },
    {
      "channel": 1,
      "note": 49,
      "start": 151.5003,
      "duration": 0.1653,
      "velocity": 103,
      "chip": "ym2612"
    },
    {
      "channel": 2,
      "note": 78,
      "start": 151.5021,
      "duration": 0.5683,
      "velocity": 109,
      "chip": "ym2612"
    },
    {
      "channel": 3,
      "note": 64,
      "start": 151.5075,
      "duration": 0.0086,
      "velocity": 127,
      "chip": "ym2612"
    },
    {
      "channel": 4,
      "note": 78,
      "start": 151.5092,
      "duration": 0.5618,
      "velocity": 109,
      "chip": "ym2612"
    },
    {
      "channel": 5,
      "note": 61,
      "start": 151.511,
      "duration": 0.0054,
      "velocity": 119,
      "chip": "ym2612"
    },
    {
      "channel": 0,
      "note": 61,
      "start": 151.7008,
      "duration": 0.016,
      "velocity": 122,
      "chip": "ym2612"
    },
    {
      "channel": 1,
      "note": 49,
      "start": 151.7025,
      "duration": 0.1654,
      "velocity": 103,
      "chip": "ym2612"
    },
    {
      "channel": 5,
      "note": 61,
      "start": 151.7052,
      "duration": 0.0127,
      "velocity": 119,
      "chip": "ym2612"
    },
    {
      "channel": 0,
      "note": 61,
      "start": 151.9031,
      "duration": 0.0153,
      "velocity": 122,
      "chip": "ym2612"
    },
    {
      "channel": 1,
      "note": 49,
      "start": 151.9048,
      "duration": 0.1653,
      "velocity": 103,
      "chip": "ym2612"
    },
    {
      "channel": 3,
      "note": 64,
      "start": 151.9102,
      "duration": 0.0092,
      "velocity": 127,
      "chip": "ym2612"
    },
    {
      "channel": 5,
      "note": 61,
      "start": 151.9122,
      "duration": 0.0076,
      "velocity": 119,
      "chip": "ym2612"
    },
    {
      "channel": 0,
      "note": 61,
      "start": 152.1053,
      "duration": 0.0156,
      "velocity": 122,
      "chip": "ym2612"
    },
    {
      "channel": 1,
      "note": 49,
      "start": 152.107,
      "duration": 0.1653,
      "velocity": 103,
      "chip": "ym2612"
    },
    {
      "channel": 2,
      "note": 76,
      "start": 152.1088,
      "duration": 0.5683,
      "velocity": 109,
      "chip": "ym2612"
    },
    {
      "channel": 4,
      "note": 76,
      "start": 152.111,
      "duration": 0.5668,
      "velocity": 109,
      "chip": "ym2612"
    },
    {
      "channel": 5,
      "note": 61,
      "start": 152.1128,
      "duration": 0.0093,
      "velocity": 119,
      "chip": "ym2612"
    },
    {
      "channel": 0,
      "note": 61,
      "start": 152.3075,
      "duration": 0.0153,
      "velocity": 122,
      "chip": "ym2612"
    },
    {
      "channel": 1,
      "note": 49,
      "start": 152.3093,
      "duration": 0.1653,
      "velocity": 103,
      "chip": "ym2612"
    },
    {
      "channel": 3,
      "note": 64,
      "start": 152.3148,
      "duration": 0.009,
      "velocity": 127,
      "chip": "ym2612"
    },
    {
      "channel": 5,
      "note": 61,
      "start": 152.3167,
      "duration": 0.0074,
      "velocity": 119,
      "chip": "ym2612"
    },
    {
      "channel": 0,
      "note": 61,
      "start": 152.5097,
      "duration": 0.0154,
      "velocity": 122,
      "chip": "ym2612"
    },
    {
      "channel": 1,
      "note": 49,
      "start": 152.5115,
      "duration": 0.1653,
      "velocity": 103,
      "chip": "ym2612"
    },
    {
      "channel": 5,
      "note": 61,
      "start": 152.5141,
      "duration": 0.0121,
      "velocity": 119,
      "chip": "ym2612"
    },
    {
      "channel": 0,
      "note": 61,
      "start": 152.712,
      "duration": 0.0156,
      "velocity": 122,
      "chip": "ym2612"
    },
    {
      "channel": 1,
      "note": 49,
      "start": 152.7137,
      "duration": 0.1653,
      "velocity": 103,
      "chip": "ym2612"
    },
    {
      "channel": 2,
      "note": 75,
      "start": 152.7155,
      "duration": 0.366,
      "velocity": 109,
      "chip": "ym2612"
    },
    {
      "channel": 3,
      "note": 64,
      "start": 152.7207,
      "duration": 0.0078,
      "velocity": 127,
      "chip": "ym2612"
    },
    {
      "channel": 4,
      "note": 75,
      "start": 152.7225,
      "duration": 0.3598,
      "velocity": 109,
      "chip": "ym2612"
    },
    {
      "channel": 5,
      "note": 61,
      "start": 152.7243,
      "duration": 0.0046,
      "velocity": 119,
      "chip": "ym2612"
    },
    {
      "channel": 0,
      "note": 61,
      "start": 152.9143,
      "duration": 0.0153,
      "velocity": 122,
      "chip": "ym2612"
    },
    {
      "channel": 1,
      "note": 49,
      "start": 152.916,
      "duration": 0.1653,
      "velocity": 103,
      "chip": "ym2612"
    },
    {
      "channel": 5,
      "note": 61,
      "start": 152.9186,
      "duration": 0.012,
      "velocity": 119,
      "chip": "ym2612"
    },
    {
      "channel": 0,
      "note": 61,
      "start": 153.1165,
      "duration": 0.0321,
      "velocity": 122,
      "chip": "ym2612"
    },
    {
      "channel": 1,
      "note": 49,
      "start": 153.1186,
      "duration": 0.1817,
      "velocity": 103,
      "chip": "ym2612"
    },
    {
      "channel": 2,
      "note": 76,
      "start": 153.1205,
      "duration": 0.9891,
      "velocity": 109,
      "chip": "ym2612"
    },
    {
      "channel": 3,
      "note": 64,
      "start": 153.1263,
      "duration": 0.0233,
      "velocity": 127,
      "chip": "ym2612"
    },
    {
      "channel": 4,
      "note": 76,
      "start": 153.128,
      "duration": 0.9824,
      "velocity": 109,
      "chip": "ym2612"
    },
    {
      "channel": 5,
      "note": 61,
      "start": 153.1298,
      "duration": 0.0201,
      "velocity": 119,
      "chip": "ym2612"
    },
    {
      "channel": 0,
      "note": 61,
      "start": 153.3356,
      "duration": 0.0153,
      "velocity": 122,
      "chip": "ym2612"
    },
    {
      "channel": 1,
      "note": 49,
      "start": 153.3373,
      "duration": 0.1653,
      "velocity": 103,
      "chip": "ym2612"
    },
    {
      "channel": 5,
      "note": 61,
      "start": 153.34,
      "duration": 0.012,
      "velocity": 119,
      "chip": "ym2612"
    },
    {
      "channel": 0,
      "note": 61,
      "start": 153.5378,
      "duration": 0.0153,
      "velocity": 122,
      "chip": "ym2612"
    },
    {
      "channel": 1,
      "note": 49,
      "start": 153.5396,
      "duration": 0.1653,
      "velocity": 103,
      "chip": "ym2612"
    },
    {
      "channel": 3,
      "note": 64,
      "start": 153.545,
      "duration": 0.0092,
      "velocity": 127,
      "chip": "ym2612"
    },
    {
      "channel": 5,
      "note": 61,
      "start": 153.5469,
      "duration": 0.0076,
      "velocity": 119,
      "chip": "ym2612"
    },
    {
      "channel": 0,
      "note": 61,
      "start": 153.7401,
      "duration": 0.0153,
      "velocity": 122,
      "chip": "ym2612"
    },
    {
      "channel": 1,
      "note": 49,
      "start": 153.7419,
      "duration": 0.1653,
      "velocity": 103,
      "chip": "ym2612"
    },
    {
      "channel": 5,
      "note": 61,
      "start": 153.7444,
      "duration": 0.0121,
      "velocity": 119,
      "chip": "ym2612"
    },
    {
      "channel": 0,
      "note": 61,
      "start": 153.9423,
      "duration": 0.0153,
      "velocity": 122,
      "chip": "ym2612"
    },
    {
      "channel": 1,
      "note": 49,
      "start": 153.944,
      "duration": 0.1653,
      "velocity": 103,
      "chip": "ym2612"
    },
    {
      "channel": 3,
      "note": 64,
      "start": 153.9496,
      "duration": 0.009,
      "velocity": 127,
      "chip": "ym2612"
    },
    {
      "channel": 5,
      "note": 61,
      "start": 153.9515,
      "duration": 0.0074,
      "velocity": 119,
      "chip": "ym2612"
    },
    {
      "channel": 0,
      "note": 61,
      "start": 154.1445,
      "duration": 0.0153,
      "velocity": 122,
      "chip": "ym2612"
    },
    {
      "channel": 1,
      "note": 49,
      "start": 154.1463,
      "duration": 0.1653,
      "velocity": 103,
      "chip": "ym2612"
    },
    {
      "channel": 2,
      "note": 80,
      "start": 154.1481,
      "duration": 0.366,
      "velocity": 109,
      "chip": "ym2612"
    },
    {
      "channel": 4,
      "note": 80,
      "start": 154.1503,
      "duration": 0.3645,
      "velocity": 109,
      "chip": "ym2612"
    },
    {
      "channel": 5,
      "note": 61,
      "start": 154.1521,
      "duration": 0.0088,
      "velocity": 119,
      "chip": "ym2612"
    },
    {
      "channel": 0,
      "note": 61,
      "start": 154.3468,
      "duration": 0.0159,
      "velocity": 122,
      "chip": "ym2612"
    },
    {
      "channel": 1,
      "note": 49,
      "start": 154.3485,
      "duration": 0.1653,
      "velocity": 103,
      "chip": "ym2612"
    },
    {
      "channel": 3,
      "note": 64,
      "start": 154.3539,
      "duration": 0.0097,
      "velocity": 127,
      "chip": "ym2612"
    },
    {
      "channel": 5,
      "note": 61,
      "start": 154.3559,
      "duration": 0.0081,
      "velocity": 119,
      "chip": "ym2612"
    },
    {
      "channel": 0,
      "note": 61,
      "start": 154.549,
      "duration": 0.0153,
      "velocity": 122,
      "chip": "ym2612"
    },
    {
      "channel": 1,
      "note": 49,
      "start": 154.5508,
      "duration": 0.1653,
      "velocity": 103,
      "chip": "ym2612"
    },
    {
      "channel": 2,
      "note": 78,
      "start": 154.5525,
      "duration": 0.7705,
      "velocity": 109,
      "chip": "ym2612"
    },
    {
      "channel": 4,
      "note": 78,
      "start": 154.5548,
      "duration": 0.769,
      "velocity": 109,
      "chip": "ym2612"
    },
    {
      "channel": 5,
      "note": 61,
      "start": 154.5566,
      "duration": 0.0088,
      "velocity": 119,
      "chip": "ym2612"
    },
    {
      "channel": 0,
      "note": 61,
      "start": 154.7513,
      "duration": 0.0155,
      "velocity": 122,
      "chip": "ym2612"
    },
    {
      "channel": 1,
      "note": 49,
      "start": 154.7531,
      "duration": 0.1653,
      "velocity": 103,
      "chip": "ym2612"
    },
    {
      "channel": 3,
      "note": 64,
      "start": 154.7586,
      "duration": 0.0092,
      "velocity": 127,
      "chip": "ym2612"
    },
    {
      "channel": 5,
      "note": 61,
      "start": 154.7605,
      "duration": 0.0076,
      "velocity": 119,
      "chip": "ym2612"
    },
    {
      "channel": 0,
      "note": 61,
      "start": 154.9535,
      "duration": 0.0153,
      "velocity": 122,
      "chip": "ym2612"
    },
    {
      "channel": 1,
      "note": 49,
      "start": 154.9553,
      "duration": 0.1653,
      "velocity": 103,
      "chip": "ym2612"
    },
    {
      "channel": 5,
      "note": 61,
      "start": 154.9579,
      "duration": 0.0121,
      "velocity": 119,
      "chip": "ym2612"
    },
    {
      "channel": 0,
      "note": 61,
      "start": 155.1557,
      "duration": 0.0153,
      "velocity": 122,
      "chip": "ym2612"
    },
    {
      "channel": 1,
      "note": 49,
      "start": 155.1575,
      "duration": 0.1653,
      "velocity": 103,
      "chip": "ym2612"
    },
    {
      "channel": 3,
      "note": 64,
      "start": 155.1629,
      "duration": 0.0092,
      "velocity": 127,
      "chip": "ym2612"
    },
    {
      "channel": 5,
      "note": 61,
      "start": 155.1648,
      "duration": 0.0075,
      "velocity": 119,
      "chip": "ym2612"
    },
    {
      "channel": 0,
      "note": 61,
      "start": 155.358,
      "duration": 0.0153,
      "velocity": 122,
      "chip": "ym2612"
    },
    {
      "channel": 1,
      "note": 49,
      "start": 155.3597,
      "duration": 0.1654,
      "velocity": 103,
      "chip": "ym2612"
    },
    {
      "channel": 2,
      "note": 81,
      "start": 155.3615,
      "duration": 0.9727,
      "velocity": 109,
      "chip": "ym2612"
    },
    {
      "channel": 4,
      "note": 81,
      "start": 155.3638,
      "duration": 0.9712,
      "velocity": 109,
      "chip": "ym2612"
    },
    {
      "channel": 5,
      "note": 61,
      "start": 155.3656,
      "duration": 0.0088,
      "velocity": 119,
      "chip": "ym2612"
    },
    {
      "channel": 0,
      "note": 61,
      "start": 155.5602,
      "duration": 0.0153,
      "velocity": 122,
      "chip": "ym2612"
    },
    {
      "channel": 1,
      "note": 49,
      "start": 155.562,
      "duration": 0.1653,
      "velocity": 103,
      "chip": "ym2612"
    },
    {
      "channel": 3,
      "note": 64,
      "start": 155.5675,
      "duration": 0.009,
      "velocity": 127,
      "chip": "ym2612"
    },
    {
      "channel": 5,
      "note": 61,
      "start": 155.5695,
      "duration": 0.0074,
      "velocity": 119,
      "chip": "ym2612"
    },
    {
      "channel": 0,
      "note": 61,
      "start": 155.7625,
      "duration": 0.0153,
      "velocity": 122,
      "chip": "ym2612"
    },
    {
      "channel": 1,
      "note": 49,
      "start": 155.7643,
      "duration": 0.1653,
      "velocity": 103,
      "chip": "ym2612"
    },
    {
      "channel": 5,
      "note": 61,
      "start": 155.7669,
      "duration": 0.0121,
      "velocity": 119,
      "chip": "ym2612"
    },
    {
      "channel": 0,
      "note": 61,
      "start": 155.9648,
      "duration": 0.0152,
      "velocity": 122,
      "chip": "ym2612"
    },
    {
      "channel": 1,
      "note": 49,
      "start": 155.9665,
      "duration": 0.1653,
      "velocity": 103,
      "chip": "ym2612"
    },
    {
      "channel": 3,
      "note": 64,
      "start": 155.9734,
      "duration": 0.008,
      "velocity": 127,
      "chip": "ym2612"
    },
    {
      "channel": 5,
      "note": 61,
      "start": 155.9768,
      "duration": 0.0054,
      "velocity": 119,
      "chip": "ym2612"
    },
    {
      "channel": 0,
      "note": 61,
      "start": 156.167,
      "duration": 0.0153,
      "velocity": 122,
      "chip": "ym2612"
    },
    {
      "channel": 1,
      "note": 49,
      "start": 156.1687,
      "duration": 0.1653,
      "velocity": 103,
      "chip": "ym2612"
    },
    {
      "channel": 5,
      "note": 61,
      "start": 156.1714,
      "duration": 0.012,
      "velocity": 119,
      "chip": "ym2612"
    },
    {
      "channel": 0,
      "note": 62,
      "start": 156.3697,
      "duration": 0.3855,
      "velocity": 122,
      "chip": "ym2612"
    },
    {
      "channel": 1,
      "note": 50,
      "start": 156.372,
      "duration": 0.1812,
      "velocity": 103,
      "chip": "ym2612"
    },
    {
      "channel": 2,
      "note": 78,
      "start": 156.3741,
      "duration": 0.9883,
      "velocity": 109,
      "chip": "ym2612"
    },
    {
      "channel": 3,
      "note": 64,
      "start": 156.3799,
      "duration": 0.0223,
      "velocity": 127,
      "chip": "ym2612"
    },
    {
      "channel": 4,
      "note": 78,
      "start": 156.3819,
      "duration": 0.9812,
      "velocity": 109,
      "chip": "ym2612"
    },
    {
      "channel": 5,
      "note": 62,
      "start": 156.3842,
      "duration": 0.3723,
      "velocity": 119,
      "chip": "ym2612"
    },
    {
      "channel": 1,
      "note": 50,
      "start": 156.5884,
      "duration": 0.1671,
      "velocity": 103,
      "chip": "ym2612"
    },
    {
      "channel": 0,
      "note": 62,
      "start": 156.7904,
      "duration": 0.0154,
      "velocity": 122,
      "chip": "ym2612"
    },
    {
      "channel": 1,
      "note": 50,
      "start": 156.7922,
      "duration": 0.1654,
      "velocity": 103,
      "chip": "ym2612"
    },
    {
      "channel": 3,
      "note": 64,
      "start": 156.7975,
      "duration": 0.0093,
      "velocity": 127,
      "chip": "ym2612"
    },
    {
      "channel": 5,
      "note": 62,
      "start": 156.7994,
      "duration": 0.0078,
      "velocity": 119,
      "chip": "ym2612"
    },
    {
      "channel": 0,
      "note": 62,
      "start": 156.9926,
      "duration": 0.0165,
      "velocity": 122,
      "chip": "ym2612"
    },
    {
      "channel": 1,
      "note": 50,
      "start": 156.9944,
      "duration": 0.1655,
      "velocity": 103,
      "chip": "ym2612"
    },
    {
      "channel": 5,
      "note": 62,
      "start": 156.9968,
      "duration": 0.0134,
      "velocity": 119,
      "chip": "ym2612"
    },
    {
      "channel": 0,
      "note": 62,
      "start": 157.1949,
      "duration": 0.0155,
      "velocity": 122,
      "chip": "ym2612"
    },
    {
      "channel": 1,
      "note": 50,
      "start": 157.1966,
      "duration": 0.1654,
      "velocity": 103,
      "chip": "ym2612"
    },
    {
      "channel": 3,
      "note": 64,
      "start": 157.2022,
      "duration": 0.0091,
      "velocity": 127,
      "chip": "ym2612"
    },
    {
      "channel": 5,
      "note": 62,
      "start": 157.2039,
      "duration": 0.0077,
      "velocity": 119,
      "chip": "ym2612"
    },
    {
      "channel": 0,
      "note": 62,
      "start": 157.3971,
      "duration": 0.3693,
      "velocity": 122,
      "chip": "ym2612"
    },
    {
      "channel": 1,
      "note": 50,
      "start": 157.3989,
      "duration": 0.1654,
      "velocity": 103,
      "chip": "ym2612"
    },
    {
      "channel": 2,
      "note": 81,
      "start": 157.4006,
      "duration": 0.3663,
      "velocity": 109,
      "chip": "ym2612"
    },
    {
      "channel": 4,
      "note": 81,
      "start": 157.4029,
      "duration": 0.3648,
      "velocity": 109,
      "chip": "ym2612"
    },
    {
      "channel": 5,
      "note": 62,
      "start": 157.4046,
      "duration": 0.3632,
      "velocity": 119,
      "chip": "ym2612"
    },
    {
      "channel": 1,
      "note": 50,
      "start": 157.5996,
      "duration": 0.1671,
      "velocity": 103,
      "chip": "ym2612"
    },
    {
      "channel": 3,
      "note": 64,
      "start": 157.605,
      "duration": 0.0107,
      "velocity": 127,
      "chip": "ym2612"
    },
    {
      "channel": 0,
      "note": 62,
      "start": 157.8016,
      "duration": 0.3693,
      "velocity": 122,
      "chip": "ym2612"
    },
    {
      "channel": 1,
      "note": 50,
      "start": 157.8034,
      "duration": 0.1655,
      "velocity": 103,
      "chip": "ym2612"
    },
    {
      "channel": 2,
      "note": 80,
      "start": 157.8051,
      "duration": 0.5684,
      "velocity": 109,
      "chip": "ym2612"
    },
    {
      "channel": 4,
      "note": 80,
      "start": 157.8074,
      "duration": 0.5669,
      "velocity": 109,
      "chip": "ym2612"
    },
    {
      "channel": 5,
      "note": 62,
      "start": 157.8091,
      "duration": 0.3631,
      "velocity": 119,
      "chip": "ym2612"
    },
    {
      "channel": 1,
      "note": 50,
      "start": 158.0041,
      "duration": 0.1671,
      "velocity": 103,
      "chip": "ym2612"
    },
    {
      "channel": 3,
      "note": 64,
      "start": 158.0096,
      "duration": 0.0106,
      "velocity": 127,
      "chip": "ym2612"
    },
    {
      "channel": 0,
      "note": 62,
      "start": 158.2062,
      "duration": 0.0153,
      "velocity": 122,
      "chip": "ym2612"
    },
    {
      "channel": 1,
      "note": 50,
      "start": 158.208,
      "duration": 0.1653,
      "velocity": 103,
      "chip": "ym2612"
    },
    {
      "channel": 5,
      "note": 62,
      "start": 158.2106,
      "duration": 0.0121,
      "velocity": 119,
      "chip": "ym2612"
    },
    {
      "channel": 0,
      "note": 62,
      "start": 158.4085,
      "duration": 0.0156,
      "velocity": 122,
      "chip": "ym2612"
    },
    {
      "channel": 1,
      "note": 50,
      "start": 158.4102,
      "duration": 0.1653,
      "velocity": 103,
      "chip": "ym2612"
    },
    {
      "channel": 2,
      "note": 83,
      "start": 158.412,
      "duration": 0.5683,
      "velocity": 109,
      "chip": "ym2612"
    },
    {
      "channel": 3,
      "note": 64,
      "start": 158.4173,
      "duration": 0.0079,
      "velocity": 127,
      "chip": "ym2612"
    },
    {
      "channel": 4,
      "note": 83,
      "start": 158.419,
      "duration": 0.562,
      "velocity": 109,
      "chip": "ym2612"
    },
    {
      "channel": 5,
      "note": 62,
      "start": 158.4208,
      "duration": 0.0046,
      "velocity": 119,
      "chip": "ym2612"
    },
    {
      "channel": 0,
      "note": 62,
      "start": 158.6107,
      "duration": 0.0153,
      "velocity": 122,
      "chip": "ym2612"
    },
    {
      "channel": 1,
      "note": 50,
      "start": 158.6125,
      "duration": 0.1653,
      "velocity": 103,
      "chip": "ym2612"
    },
    {
      "channel": 5,
      "note": 62,
      "start": 158.6151,
      "duration": 0.012,
      "velocity": 119,
      "chip": "ym2612"
    },
    {
      "channel": 0,
      "note": 62,
      "start": 158.8129,
      "duration": 0.0153,
      "velocity": 122,
      "chip": "ym2612"
    },
    {
      "channel": 1,
      "note": 50,
      "start": 158.8147,
      "duration": 0.1653,
      "velocity": 103,
      "chip": "ym2612"
    },
    {
      "channel": 3,
      "note": 64,
      "start": 158.8203,
      "duration": 0.009,
      "velocity": 127,
      "chip": "ym2612"
    },
    {
      "channel": 5,
      "note": 62,
      "start": 158.8222,
      "duration": 0.0074,
      "velocity": 119,
      "chip": "ym2612"
    },
    {
      "channel": 0,
      "note": 62,
      "start": 159.0152,
      "duration": 0.5714,
      "velocity": 122,
      "chip": "ym2612"
    },
    {
      "channel": 1,
      "note": 50,
      "start": 159.017,
      "duration": 0.1653,
      "velocity": 103,
      "chip": "ym2612"
    },
    {
      "channel": 2,
      "note": 85,
      "start": 159.0188,
      "duration": 0.5683,
      "velocity": 109,
      "chip": "ym2612"
    },
    {
      "channel": 4,
      "note": 85,
      "start": 159.0211,
      "duration": 0.5668,
      "velocity": 109,
      "chip": "ym2612"
    },
    {
      "channel": 5,
      "note": 62,
      "start": 159.0228,
      "duration": 0.5652,
      "velocity": 119,
      "chip": "ym2612"
    },
    {
      "channel": 1,
      "note": 50,
      "start": 159.2175,
      "duration": 0.167,
      "velocity": 103,
      "chip": "ym2612"
    },
    {
      "channel": 3,
      "note": 64,
      "start": 159.2244,
      "duration": 0.0096,
      "velocity": 127,
      "chip": "ym2612"
    },
    {
      "channel": 1,
      "note": 50,
      "start": 159.4198,
      "duration": 0.1671,
      "velocity": 103,
      "chip": "ym2612"
    },
    {
      "channel": 0,
      "note": 61,
      "start": 159.6222,
      "duration": 0.3858,
      "velocity": 122,
      "chip": "ym2612"
    },
    {
      "channel": 1,
      "note": 49,
      "start": 159.6244,
      "duration": 0.1814,
      "velocity": 103,
      "chip": "ym2612"
    },
    {
      "channel": 2,
      "note": 85,
      "start": 159.6262,
      "duration": 1.5956,
      "velocity": 109,
      "chip": "ym2612"
    },
    {
      "channel": 3,
      "note": 64,
      "start": 159.6321,
      "duration": 0.0237,
      "velocity": 127,
      "chip": "ym2612"
    },
    {
      "channel": 4,
      "note": 85,
      "start": 159.6338,
      "duration": 1.5887,
      "velocity": 109,
      "chip": "ym2612"
    },
    {
      "channel": 5,
      "note": 61,
      "start": 159.6358,
      "duration": 0.3734,
      "velocity": 119,
      "chip": "ym2612"
    },
    {
      "channel": 1,
      "note": 49,
      "start": 159.8411,
      "duration": 0.1671,
      "velocity": 103,
      "chip": "ym2612"
    },
    {
      "channel": 0,
      "note": 61,
      "start": 160.0431,
      "duration": 0.0159,
      "velocity": 122,
      "chip": "ym2612"
    },
    {
      "channel": 1,
      "note": 49,
      "start": 160.0449,
      "duration": 0.1655,
      "velocity": 103,
      "chip": "ym2612"
    },
    {
      "channel": 3,
      "note": 64,
      "start": 160.0502,
      "duration": 0.0098,
      "velocity": 127,
      "chip": "ym2612"
    },
    {
      "channel": 5,
      "note": 61,
      "start": 160.052,
      "duration": 0.0083,
      "velocity": 119,
      "chip": "ym2612"
    },
    {
      "channel": 0,
      "note": 61,
      "start": 160.2454,
      "duration": 0.0155,
      "velocity": 122,
      "chip": "ym2612"
    },
    {
      "channel": 1,
      "note": 49,
      "start": 160.2471,
      "duration": 0.1655,
      "velocity": 103,
      "chip": "ym2612"
    },
    {
      "channel": 5,
      "note": 61,
      "start": 160.2496,
      "duration": 0.0123,
      "velocity": 119,
      "chip": "ym2612"
    },
    {
      "channel": 0,
      "note": 61,
      "start": 160.4476,
      "duration": 0.0155,
      "velocity": 122,
      "chip": "ym2612"
    },
    {
      "channel": 1,
      "note": 49,
      "start": 160.4494,
      "duration": 0.1655,
      "velocity": 103,
      "chip": "ym2612"
    },
    {
      "channel": 3,
      "note": 64,
      "start": 160.4549,
      "duration": 0.0092,
      "velocity": 127,
      "chip": "ym2612"
    },
    {
      "channel": 5,
      "note": 61,
      "start": 160.4567,
      "duration": 0.0078,
      "velocity": 119,
      "chip": "ym2612"
    },
    {
      "channel": 0,
      "note": 61,
      "start": 160.6499,
      "duration": 0.3693,
      "velocity": 122,
      "chip": "ym2612"
    },
    {
      "channel": 1,
      "note": 49,
      "start": 160.6516,
      "duration": 0.1655,
      "velocity": 103,
      "chip": "ym2612"
    },
    {
      "channel": 5,
      "note": 61,
      "start": 160.6541,
      "duration": 0.3663,
      "velocity": 119,
      "chip": "ym2612"
    },
    {
      "channel": 1,
      "note": 49,
      "start": 160.8524,
      "duration": 0.1671,
      "velocity": 103,
      "chip": "ym2612"
    },
    {
      "channel": 3,
      "note": 64,
      "start": 160.8578,
      "duration": 0.0106,
      "velocity": 127,
      "chip": "ym2612"
    },
    {
      "channel": 0,
      "note": 61,
      "start": 161.0543,
      "duration": 0.3693,
      "velocity": 122,
      "chip": "ym2612"
    },
    {
      "channel": 1,
      "note": 49,
      "start": 161.0561,
      "duration": 0.1654,
      "velocity": 103,
      "chip": "ym2612"
    },
    {
      "channel": 5,
      "note": 61,
      "start": 161.0585,
      "duration": 0.3666,
      "velocity": 119,
      "chip": "ym2612"
    },
    {
      "channel": 1,
      "note": 49,
      "start": 161.2568,
      "duration": 0.1671,
      "velocity": 103,
      "chip": "ym2612"
    },
    {
      "channel": 2,
      "note": 85,
      "start": 161.2586,
      "duration": 0.1655,
      "velocity": 109,
      "chip": "ym2612"
    },
    {
      "channel": 3,
      "note": 64,
      "start": 161.264,
      "duration": 0.0088,
      "velocity": 127,
      "chip": "ym2612"
    },
    {
      "channel": 4,
      "note": 85,
      "start": 161.2657,
      "duration": 0.1592,
      "velocity": 109,
      "chip": "ym2612"
    },
    {
      "channel": 0,
      "note": 61,
      "start": 161.459,
      "duration": 0.0153,
      "velocity": 122,
      "chip": "ym2612"
    },
    {
      "channel": 1,
      "note": 49,
      "start": 161.4607,
      "duration": 0.1653,
      "velocity": 103,
      "chip": "ym2612"
    },
    {
      "channel": 2,
      "note": 83,
      "start": 161.4625,
      "duration": 0.1638,
      "velocity": 109,
      "chip": "ym2612"
    },
    {
      "channel": 4,
      "note": 83,
      "start": 161.4647,
      "duration": 0.1624,
      "velocity": 109,
      "chip": "ym2612"
    },
    {
      "channel": 5,
      "note": 61,
      "start": 161.4666,
      "duration": 0.0088,
      "velocity": 119,
      "chip": "ym2612"
    },
    {
      "channel": 0,
      "note": 61,
      "start": 161.6612,
      "duration": 0.0153,
      "velocity": 122,
      "chip": "ym2612"
    },
    {
      "channel": 1,
      "note": 49,
      "start": 161.6629,
      "duration": 0.1653,
      "velocity": 103,
      "chip": "ym2612"
    },
    {
      "channel": 2,
      "note": 81,
      "start": 161.6647,
      "duration": 0.1638,
      "velocity": 109,
      "chip": "ym2612"
    },
    {
      "channel": 3,
      "note": 64,
      "start": 161.67,
      "duration": 0.0075,
      "velocity": 127,
      "chip": "ym2612"
    },
    {
      "channel": 4,
      "note": 81,
      "start": 161.6716,
      "duration": 0.1576,
      "velocity": 109,
      "chip": "ym2612"
    },
    {
      "channel": 5,
      "note": 61,
      "start": 161.6735,
      "duration": 0.0043,
      "velocity": 119,
      "chip": "ym2612"
    },
    {
      "channel": 0,
      "note": 61,
      "start": 161.8634,
      "duration": 0.0153,
      "velocity": 122,
      "chip": "ym2612"
    },
    {
      "channel": 1,
      "note": 49,
      "start": 161.8652,
      "duration": 0.1653,
      "velocity": 103,
      "chip": "ym2612"
    },
    {
      "channel": 2,
      "note": 80,
      "start": 161.8669,
      "duration": 0.1638,
      "velocity": 109,
      "chip": "ym2612"
    },
    {
      "channel": 4,
      "note": 80,
      "start": 161.8692,
      "duration": 0.1623,
      "velocity": 109,
      "chip": "ym2612"
    },
    {
      "channel": 5,
      "note": 61,
      "start": 161.871,
      "duration": 0.0088,
      "velocity": 119,
      "chip": "ym2612"
    },
    {
      "channel": 0,
      "note": 61,
      "start": 162.0656,
      "duration": 0.0155,
      "velocity": 122,
      "chip": "ym2612"
    },
    {
      "channel": 1,
      "note": 49,
      "start": 162.0674,
      "duration": 0.1653,
      "velocity": 103,
      "chip": "ym2612"
    },
    {
      "channel": 2,
      "note": 81,
      "start": 162.0692,
      "duration": 0.1637,
      "velocity": 109,
      "chip": "ym2612"
    },
    {
      "channel": 3,
      "note": 64,
      "start": 162.0746,
      "duration": 0.0075,
      "velocity": 127,
      "chip": "ym2612"
    },
    {
      "channel": 4,
      "note": 81,
      "start": 162.0763,
      "duration": 0.1574,
      "velocity": 109,
      "chip": "ym2612"
    },
    {
      "channel": 5,
      "note": 61,
      "start": 162.0781,
      "duration": 0.0043,
      "velocity": 119,
      "chip": "ym2612"
    },
    {
      "channel": 0,
      "note": 61,
      "start": 162.2679,
      "duration": 0.5715,
      "velocity": 122,
      "chip": "ym2612"
    },
    {
      "channel": 1,
      "note": 49,
      "start": 162.2697,
      "duration": 0.1653,
      "velocity": 103,
      "chip": "ym2612"
    },
    {
      "channel": 2,
      "note": 80,
      "start": 162.2715,
      "duration": 0.1638,
      "velocity": 109,
      "chip": "ym2612"
    },
    {
      "channel": 4,
      "note": 80,
      "start": 162.2737,
      "duration": 0.1623,
      "velocity": 109,
      "chip": "ym2612"
    },
    {
      "channel": 5,
      "note": 61,
      "start": 162.2755,
      "duration": 0.5653,
      "velocity": 119,
      "chip": "ym2612"
    },
    {
      "channel": 1,
      "note": 49,
      "start": 162.4702,
      "duration": 0.167,
      "velocity": 103,
      "chip": "ym2612"
    },
    {
      "channel": 2,
      "note": 78,
      "start": 162.472,
      "duration": 0.1655,
      "velocity": 109,
      "chip": "ym2612"
    },
    {
      "channel": 3,
      "note": 64,
      "start": 162.4772,
      "duration": 0.0091,
      "velocity": 127,
      "chip": "ym2612"
    },
    {
      "channel": 4,
      "note": 78,
      "start": 162.4789,
      "duration": 0.1593,
      "velocity": 109,
      "chip": "ym2612"
    },
    {
      "channel": 1,
      "note": 49,
      "start": 162.6725,
      "duration": 0.1671,
      "velocity": 103,
      "chip": "ym2612"
    },
    {
      "channel": 2,
      "note": 76,
      "start": 162.6742,
      "duration": 0.1656,
      "velocity": 109,
      "chip": "ym2612"
    },
    {
      "channel": 4,
      "note": 76,
      "start": 162.6765,
      "duration": 0.1641,
      "velocity": 109,
      "chip": "ym2612"
    },
    {
      "channel": 0,
      "note": 62,
      "start": 162.8749,
      "duration": 0.3858,
      "velocity": 122,
      "chip": "ym2612"
    },
    {
      "channel": 1,
      "note": 50,
      "start": 162.8772,
      "duration": 0.1814,
      "velocity": 103,
      "chip": "ym2612"
    },
    {
      "channel": 2,
      "note": 78,
      "start": 162.8792,
      "duration": 0.0784,
      "velocity": 109,
      "chip": "ym2612"
    },
    {
      "channel": 3,
      "note": 64,
      "start": 162.8851,
      "duration": 0.0226,
      "velocity": 127,
      "chip": "ym2612"
    },
    {
      "channel": 4,
      "note": 78,
      "start": 162.8871,
      "duration": 0.0712,
      "velocity": 109,
      "chip": "ym2612"
    },
    {
      "channel": 5,
      "note": 62,
      "start": 162.8891,
      "duration": 0.3728,
      "velocity": 119,
      "chip": "ym2612"
    },
    {
      "channel": 2,
      "note": 80,
      "start": 162.9939,
      "duration": 0.0649,
      "velocity": 109,
      "chip": "ym2612"
    },
    {
      "channel": 4,
      "note": 80,
      "start": 162.9961,
      "duration": 0.0634,
      "velocity": 109,
      "chip": "ym2612"
    },
    {
      "channel": 1,
      "note": 50,
      "start": 163.0938,
      "duration": 0.1671,
      "velocity": 103,
      "chip": "ym2612"
    },
    {
      "channel": 2,
      "note": 81,
      "start": 163.0956,
      "duration": 0.0643,
      "velocity": 109,
      "chip": "ym2612"
    },
    {
      "channel": 4,
      "note": 81,
      "start": 163.0978,
      "duration": 0.0628,
      "velocity": 109,
      "chip": "ym2612"
    },
    {
      "channel": 2,
      "note": 83,
      "start": 163.1951,
      "duration": 0.1674,
      "velocity": 109,
      "chip": "ym2612"
    },
    {
      "channel": 4,
      "note": 83,
      "start": 163.1973,
      "duration": 0.1665,
      "velocity": 109,
      "chip": "ym2612"
    },
    {
      "channel": 0,
      "note": 62,
      "start": 163.2959,
      "duration": 0.0154,
      "velocity": 122,
      "chip": "ym2612"
    },
    {
      "channel": 1,
      "note": 50,
      "start": 163.2976,
      "duration": 0.1654,
      "velocity": 103,
      "chip": "ym2612"
    },
    {
      "channel": 3,
      "note": 64,
      "start": 163.3045,
      "duration": 0.0082,
      "velocity": 127,
      "chip": "ym2612"
    },
    {
      "channel": 5,
      "note": 62,
      "start": 163.3078,
      "duration": 0.0057,
      "velocity": 119,
      "chip": "ym2612"
    },
    {
      "channel": 2,
      "note": 85,
      "start": 163.3978,
      "duration": 0.2677,
      "velocity": 109,
      "chip": "ym2612"
    },
    {
      "channel": 4,
      "note": 85,
      "start": 163.4001,
      "duration": 0.2662,
      "velocity": 109,
      "chip": "ym2612"
    },
    {
      "channel": 0,
      "note": 62,
      "start": 163.498,
      "duration": 0.0156,
      "velocity": 122,
      "chip": "ym2612"
    },
    {
      "channel": 1,
      "note": 50,
      "start": 163.4998,
      "duration": 0.1655,
      "velocity": 103,
      "chip": "ym2612"
    },
    {
      "channel": 5,
      "note": 62,
      "start": 163.5053,
      "duration": 0.0104,
      "velocity": 119,
      "chip": "ym2612"
    },
    {
      "channel": 0,
      "note": 62,
      "start": 163.7003,
      "duration": 0.0156,
      "velocity": 122,
      "chip": "ym2612"
    },
    {
      "channel": 1,
      "note": 50,
      "start": 163.702,
      "duration": 0.1656,
      "velocity": 103,
      "chip": "ym2612"
    },
    {
      "channel": 2,
      "note": 90,
      "start": 163.704,
      "duration": 0.0625,
      "velocity": 109,
      "chip": "ym2612"
    },
    {
      "channel": 3,
      "note": 64,
      "start": 163.7094,
      "duration": 0.0075,
      "velocity": 127,
      "chip": "ym2612"
    },
    {
      "channel": 4,
      "note": 90,
      "start": 163.7113,
      "duration": 0.056,
      "velocity": 109,
      "chip": "ym2612"
    },
    {
      "channel": 5,
      "note": 62,
      "start": 163.7129,
      "duration": 0.0043,
      "velocity": 119,
      "chip": "ym2612"
    },
    {
      "channel": 2,
      "note": 86,
      "start": 163.8019,
      "duration": 0.066,
      "velocity": 109,
      "chip": "ym2612"
    },
    {
      "channel": 4,
      "note": 86,
      "start": 163.8041,
      "duration": 0.0644,
      "velocity": 109,
      "chip": "ym2612"
    },
    {
      "channel": 0,
      "note": 62,
      "start": 163.9025,
      "duration": 0.3693,
      "velocity": 122,
      "chip": "ym2612"
    },
    {
      "channel": 1,
      "note": 50,
      "start": 163.9043,
      "duration": 0.1655,
      "velocity": 103,
      "chip": "ym2612"
    },
    {
      "channel": 2,
      "note": 81,
      "start": 163.9061,
      "duration": 0.0627,
      "velocity": 109,
      "chip": "ym2612"
    },
    {
      "channel": 4,
      "note": 81,
      "start": 163.9083,
      "duration": 0.0612,
      "velocity": 109,
      "chip": "ym2612"
    },
    {
      "channel": 5,
      "note": 62,
      "start": 163.91,
      "duration": 0.3633,
      "velocity": 119,
      "chip": "ym2612"
    },
    {
      "channel": 2,
      "note": 92,
      "start": 164.0041,
      "duration": 0.066,
      "velocity": 109,
      "chip": "ym2612"
    },
    {
      "channel": 4,
      "note": 92,
      "start": 164.0063,
      "duration": 0.0645,
      "velocity": 109,
      "chip": "ym2612"
    },
    {
      "channel": 1,
      "note": 50,
      "start": 164.105,
      "duration": 0.1671,
      "velocity": 103,
      "chip": "ym2612"
    },
    {
      "channel": 2,
      "note": 86,
      "start": 164.1068,
      "duration": 0.0642,
      "velocity": 109,
      "chip": "ym2612"
    },
    {
      "channel": 3,
      "note": 64,
      "start": 164.112,
      "duration": 0.0091,
      "velocity": 127,
      "chip": "ym2612"
    },
    {
      "channel": 4,
      "note": 86,
      "start": 164.1137,
      "duration": 0.0581,
      "velocity": 109,
      "chip": "ym2612"
    },
    {
      "channel": 2,
      "note": 81,
      "start": 164.2062,
      "duration": 0.0661,
      "velocity": 109,
      "chip": "ym2612"
    },
    {
      "channel": 4,
      "note": 81,
      "start": 164.2085,
      "duration": 0.0646,
      "velocity": 109,
      "chip": "ym2612"
    },
    {
      "channel": 0,
      "note": 62,
      "start": 164.307,
      "duration": 0.3694,
      "velocity": 122,
      "chip": "ym2612"
    },
    {
      "channel": 1,
      "note": 50,
      "start": 164.3088,
      "duration": 0.1655,
      "velocity": 103,
      "chip": "ym2612"
    },
    {
      "channel": 2,
      "note": 90,
      "start": 164.3107,
      "duration": 0.0634,
      "velocity": 109,
      "chip": "ym2612"
    },
    {
      "channel": 4,
      "note": 90,
      "start": 164.3131,
      "duration": 0.0618,
      "velocity": 109,
      "chip": "ym2612"
    },
    {
      "channel": 5,
      "note": 62,
      "start": 164.3148,
      "duration": 0.363,
      "velocity": 119,
      "chip": "ym2612"
    },
    {
      "channel": 2,
      "note": 86,
      "start": 164.4085,
      "duration": 0.066,
      "velocity": 109,
      "chip": "ym2612"
    },
    {
      "channel": 4,
      "note": 86,
      "start": 164.4107,
      "duration": 0.0646,
      "velocity": 109,
      "chip": "ym2612"
    },
    {
      "channel": 1,
      "note": 50,
      "start": 164.5095,
      "duration": 0.1671,
      "velocity": 103,
      "chip": "ym2612"
    },
    {
      "channel": 2,
      "note": 81,
      "start": 164.5113,
      "duration": 0.0642,
      "velocity": 109,
      "chip": "ym2612"
    },
    {
      "channel": 3,
      "note": 64,
      "start": 164.5167,
      "duration": 0.0089,
      "velocity": 127,
      "chip": "ym2612"
    },
    {
      "channel": 4,
      "note": 81,
      "start": 164.5183,
      "duration": 0.058,
      "velocity": 109,
      "chip": "ym2612"
    },
    {
      "channel": 2,
      "note": 92,
      "start": 164.6107,
      "duration": 0.0661,
      "velocity": 109,
      "chip": "ym2612"
    },
    {
      "channel": 4,
      "note": 92,
      "start": 164.6129,
      "duration": 0.0646,
      "velocity": 109,
      "chip": "ym2612"
    },
    {
      "channel": 0,
      "note": 62,
      "start": 164.7117,
      "duration": 0.0153,
      "velocity": 122,
      "chip": "ym2612"
    },
    {
      "channel": 1,
      "note": 50,
      "start": 164.7134,
      "duration": 0.1653,
      "velocity": 103,
      "chip": "ym2612"
    },
    {
      "channel": 2,
      "note": 86,
      "start": 164.7152,
      "duration": 0.063,
      "velocity": 109,
      "chip": "ym2612"
    },
    {
      "channel": 4,
      "note": 86,
      "start": 164.7174,
      "duration": 0.0615,
      "velocity": 109,
      "chip": "ym2612"
    },
    {
      "channel": 5,
      "note": 62,
      "start": 164.7193,
      "duration": 0.0088,
      "velocity": 119,
      "chip": "ym2612"
    },
    {
      "channel": 2,
      "note": 81,
      "start": 164.813,
      "duration": 0.066,
      "velocity": 109,
      "chip": "ym2612"
    },
    {
      "channel": 4,
      "note": 81,
      "start": 164.8152,
      "duration": 0.0645,
      "velocity": 109,
      "chip": "ym2612"
    },
    {
      "channel": 0,
      "note": 62,
      "start": 164.9139,
      "duration": 0.0156,
      "velocity": 122,
      "chip": "ym2612"
    },
    {
      "channel": 1,
      "note": 50,
      "start": 164.9156,
      "duration": 0.1653,
      "velocity": 103,
      "chip": "ym2612"
    },
    {
      "channel": 2,
      "note": 90,
      "start": 164.9176,
      "duration": 0.0624,
      "velocity": 109,
      "chip": "ym2612"
    },
    {
      "channel": 3,
      "note": 64,
      "start": 164.9228,
      "duration": 0.0077,
      "velocity": 127,
      "chip": "ym2612"
    },
    {
      "channel": 4,
      "note": 90,
      "start": 164.9247,
      "duration": 0.0561,
      "velocity": 109,
      "chip": "ym2612"
    },
    {
      "channel": 5,
      "note": 62,
      "start": 164.9265,
      "duration": 0.0043,
      "velocity": 119,
      "chip": "ym2612"
    },
    {
      "channel": 2,
      "note": 86,
      "start": 165.0152,
      "duration": 0.066,
      "velocity": 109,
      "chip": "ym2612"
    },
    {
      "channel": 4,
      "note": 86,
      "start": 165.0174,
      "duration": 0.0646,
      "velocity": 109,
      "chip": "ym2612"
    },
    {
      "channel": 0,
      "note": 62,
      "start": 165.1162,
      "duration": 0.0153,
      "velocity": 122,
      "chip": "ym2612"
    },
    {
      "channel": 1,
      "note": 50,
      "start": 165.1179,
      "duration": 0.1653,
      "velocity": 103,
      "chip": "ym2612"
    },
    {
      "channel": 2,
      "note": 81,
      "start": 165.1197,
      "duration": 0.0625,
      "velocity": 109,
      "chip": "ym2612"
    },
    {
      "channel": 4,
      "note": 81,
      "start": 165.122,
      "duration": 0.0611,
      "velocity": 109,
      "chip": "ym2612"
    },
    {
      "channel": 5,
      "note": 62,
      "start": 165.1237,
      "duration": 0.0088,
      "velocity": 119,
      "chip": "ym2612"
    },
    {
      "channel": 2,
      "note": 92,
      "start": 165.2174,
      "duration": 0.066,
      "velocity": 109,
      "chip": "ym2612"
    },
    {
      "channel": 4,
      "note": 92,
      "start": 165.2197,
      "duration": 0.0645,
      "velocity": 109,
      "chip": "ym2612"
    },
    {
      "channel": 0,
      "note": 62,
      "start": 165.3184,
      "duration": 0.0155,
      "velocity": 122,
      "chip": "ym2612"
    },
    {
      "channel": 1,
      "note": 50,
      "start": 165.3202,
      "duration": 0.1653,
      "velocity": 103,
      "chip": "ym2612"
    },
    {
      "channel": 2,
      "note": 86,
      "start": 165.322,
      "duration": 0.0625,
      "velocity": 109,
      "chip": "ym2612"
    },
    {
      "channel": 3,
      "note": 64,
      "start": 165.3274,
      "duration": 0.0076,
      "velocity": 127,
      "chip": "ym2612"
    },
    {
      "channel": 4,
      "note": 86,
      "start": 165.329,
      "duration": 0.0562,
      "velocity": 109,
      "chip": "ym2612"
    },
    {
      "channel": 5,
      "note": 62,
      "start": 165.3309,
      "duration": 0.0044,
      "velocity": 119,
      "chip": "ym2612"
    },
    {
      "channel": 2,
      "note": 81,
      "start": 165.4197,
      "duration": 0.066,
      "velocity": 109,
      "chip": "ym2612"
    },
    {
      "channel": 4,
      "note": 81,
      "start": 165.422,
      "duration": 0.0645,
      "velocity": 109,
      "chip": "ym2612"
    },
    {
      "channel": 0,
      "note": 62,
      "start": 165.5207,
      "duration": 0.5714,
      "velocity": 122,
      "chip": "ym2612"
    },
    {
      "channel": 1,
      "note": 50,
      "start": 165.5224,
      "duration": 0.1653,
      "velocity": 103,
      "chip": "ym2612"
    },
    {
      "channel": 2,
      "note": 90,
      "start": 165.5243,
      "duration": 0.0625,
      "velocity": 109,
      "chip": "ym2612"
    },
    {
      "channel": 4,
      "note": 90,
      "start": 165.5267,
      "duration": 0.0609,
      "velocity": 109,
      "chip": "ym2612"
    },
    {
      "channel": 5,
      "note": 62,
      "start": 165.5284,
      "duration": 0.5649,
      "velocity": 119,
      "chip": "ym2612"
    },
    {
      "channel": 2,
      "note": 86,
      "start": 165.622,
      "duration": 0.066,
      "velocity": 109,
      "chip": "ym2612"
    },
    {
      "channel": 4,
      "note": 86,
      "start": 165.6242,
      "duration": 0.0645,
      "velocity": 109,
      "chip": "ym2612"
    },
    {
      "channel": 1,
      "note": 50,
      "start": 165.723,
      "duration": 0.167,
      "velocity": 103,
      "chip": "ym2612"
    },
    {
      "channel": 2,
      "note": 81,
      "start": 165.7247,
      "duration": 0.0642,
      "velocity": 109,
      "chip": "ym2612"
    },
    {
      "channel": 3,
      "note": 64,
      "start": 165.73,
      "duration": 0.0091,
      "velocity": 127,
      "chip": "ym2612"
    },
    {
      "channel": 4,
      "note": 81,
      "start": 165.7316,
      "duration": 0.0581,
      "velocity": 109,
      "chip": "ym2612"
    },
    {
      "channel": 2,
      "note": 92,
      "start": 165.8242,
      "duration": 0.066,
      "velocity": 109,
      "chip": "ym2612"
    },
    {
      "channel": 4,
      "note": 92,
      "start": 165.8264,
      "duration": 0.0646,
      "velocity": 109,
      "chip": "ym2612"
    },
    {
      "channel": 1,
      "note": 50,
      "start": 165.9252,
      "duration": 0.1671,
      "velocity": 103,
      "chip": "ym2612"
    },
    {
      "channel": 2,
      "note": 90,
      "start": 165.9269,
      "duration": 0.0642,
      "velocity": 109,
      "chip": "ym2612"
    },
    {
      "channel": 4,
      "note": 90,
      "start": 165.9291,
      "duration": 0.0628,
      "velocity": 109,
      "chip": "ym2612"
    },
    {
      "channel": 2,
      "note": 86,
      "start": 166.0265,
      "duration": 3.3187,
      "velocity": 109,
      "chip": "ym2612"
    },
    {
      "channel": 4,
      "note": 86,
      "start": 166.0289,
      "duration": 3.3171,
      "velocity": 109,
      "chip": "ym2612"
    },
    {
      "channel": 0,
      "note": 64,
      "start": 166.1276,
      "duration": 0.3858,
      "velocity": 122,
      "chip": "ym2612"
    },
    {
      "channel": 1,
      "note": 52,
      "start": 166.1299,
      "duration": 0.1814,
      "velocity": 103,
      "chip": "ym2612"
    },
    {
      "channel": 3,
      "note": 64,
      "start": 166.1374,
      "duration": 0.0236,
      "velocity": 127,
      "chip": "ym2612"
    },
    {
      "channel": 5,
      "note": 64,
      "start": 166.1411,
      "duration": 0.3735,
      "velocity": 119,
      "chip": "ym2612"
    },
    {
      "channel": 1,
      "note": 52,
      "start": 166.3465,
      "duration": 0.1671,
      "velocity": 103,
      "chip": "ym2612"
    },
    {
      "channel": 0,
      "note": 64,
      "start": 166.5485,
      "duration": 0.0154,
      "velocity": 122,
      "chip": "ym2612"
    },
    {
      "channel": 1,
      "note": 52,
      "start": 166.5503,
      "duration": 0.1654,
      "velocity": 103,
      "chip": "ym2612"
    },
    {
      "channel": 3,
      "note": 64,
      "start": 166.5557,
      "duration": 0.0092,
      "velocity": 127,
      "chip": "ym2612"
    },
    {
      "channel": 5,
      "note": 64,
      "start": 166.5575,
      "duration": 0.0078,
      "velocity": 119,
      "chip": "ym2612"
    },
    {
      "channel": 0,
      "note": 64,
      "start": 166.7508,
      "duration": 0.0155,
      "velocity": 122,
      "chip": "ym2612"
    },
    {
      "channel": 1,
      "note": 52,
      "start": 166.7525,
      "duration": 0.1655,
      "velocity": 103,
      "chip": "ym2612"
    },
    {
      "channel": 5,
      "note": 64,
      "start": 166.755,
      "duration": 0.0123,
      "velocity": 119,
      "chip": "ym2612"
    },
    {
      "channel": 0,
      "note": 64,
      "start": 166.9531,
      "duration": 0.0154,
      "velocity": 122,
      "chip": "ym2612"
    },
    {
      "channel": 1,
      "note": 52,
      "start": 166.9548,
      "duration": 0.1654,
      "velocity": 103,
      "chip": "ym2612"
    },
    {
      "channel": 3,
      "note": 64,
      "start": 166.9603,
      "duration": 0.0092,
      "velocity": 127,
      "chip": "ym2612"
    },
    {
      "channel": 5,
      "note": 64,
      "start": 166.9621,
      "duration": 0.0078,
      "velocity": 119,
      "chip": "ym2612"
    },
    {
      "channel": 0,
      "note": 64,
      "start": 167.1553,
      "duration": 0.3693,
      "velocity": 122,
      "chip": "ym2612"
    },
    {
      "channel": 1,
      "note": 52,
      "start": 167.1571,
      "duration": 0.1654,
      "velocity": 103,
      "chip": "ym2612"
    },
    {
      "channel": 5,
      "note": 64,
      "start": 167.1595,
      "duration": 0.3663,
      "velocity": 119,
      "chip": "ym2612"
    },
    {
      "channel": 1,
      "note": 52,
      "start": 167.3578,
      "duration": 0.167,
      "velocity": 103,
      "chip": "ym2612"
    },
    {
      "channel": 3,
      "note": 64,
      "start": 167.3631,
      "duration": 0.0107,
      "velocity": 127,
      "chip": "ym2612"
    },
    {
      "channel": 0,
      "note": 64,
      "start": 167.5597,
      "duration": 0.3693,
      "velocity": 122,
      "chip": "ym2612"
    },
    {
      "channel": 1,
      "note": 52,
      "start": 167.5615,
      "duration": 0.1655,
      "velocity": 103,
      "chip": "ym2612"
    },
    {
      "channel": 5,
      "note": 64,
      "start": 167.5639,
      "duration": 0.3664,
      "velocity": 119,
      "chip": "ym2612"
    },
    {
      "channel": 1,
      "note": 52,
      "start": 167.7622,
      "duration": 0.1671,
      "velocity": 103,
      "chip": "ym2612"
    },
    {
      "channel": 3,
      "note": 76,
      "start": 167.7695,
      "duration": 0.0093,
      "velocity": 127,
      "chip": "ym2612"
    },
    {
      "channel": 0,
      "note": 64,
      "start": 167.9644,
      "duration": 0.0153,
      "velocity": 122,
      "chip": "ym2612"
    },
    {
      "channel": 1,
      "note": 52,
      "start": 167.9662,
      "duration": 0.1653,
      "velocity": 103,
      "chip": "ym2612"
    },
    {
      "channel": 3,
      "note": 76,
      "start": 167.9683,
      "duration": 0.0123,
      "velocity": 127,
      "chip": "ym2612"
    },
    {
      "channel": 5,
      "note": 64,
      "start": 167.9704,
      "duration": 0.0106,
      "velocity": 119,
      "chip": "ym2612"
    },
    {
      "channel": 0,
      "note": 64,
      "start": 168.1666,
      "duration": 0.0154,
      "velocity": 122,
      "chip": "ym2612"
    },
    {
      "channel": 1,
      "note": 52,
      "start": 168.1684,
      "duration": 0.1653,
      "velocity": 103,
      "chip": "ym2612"
    },
    {
      "channel": 3,
      "note": 64,
      "start": 168.174,
      "duration": 0.0089,
      "velocity": 127,
      "chip": "ym2612"
    },
    {
      "channel": 5,
      "note": 64,
      "start": 168.1759,
      "duration": 0.0073,
      "velocity": 119,
      "chip": "ym2612"
    },
    {
      "channel": 0,
      "note": 64,
      "start": 168.3689,
      "duration": 0.0154,
      "velocity": 122,
      "chip": "ym2612"
    },
    {
      "channel": 1,
      "note": 52,
      "start": 168.3707,
      "duration": 0.1653,
      "velocity": 103,
      "chip": "ym2612"
    },
    {
      "channel": 3,
      "note": 73,
      "start": 168.3761,
      "duration": 0.0091,
      "velocity": 127,
      "chip": "ym2612"
    },
    {
      "channel": 5,
      "note": 64,
      "start": 168.378,
      "duration": 0.0075,
      "velocity": 119,
      "chip": "ym2612"
    },
    {
      "channel": 0,
      "note": 64,
      "start": 168.5711,
      "duration": 0.0153,
      "velocity": 122,
      "chip": "ym2612"
    },
    {
      "channel": 1,
      "note": 52,
      "start": 168.5729,
      "duration": 0.1653,
      "velocity": 103,
      "chip": "ym2612"
    },
    {
      "channel": 3,
      "note": 73,
      "start": 168.5751,
      "duration": 0.0123,
      "velocity": 127,
      "chip": "ym2612"
    },
    {
      "channel": 5,
      "note": 64,
      "start": 168.5771,
      "duration": 0.0107,
      "velocity": 119,
      "chip": "ym2612"
    },
    {
      "channel": 0,
      "note": 64,
      "start": 168.7734,
      "duration": 0.5714,
      "velocity": 122,
      "chip": "ym2612"
    },
    {
      "channel": 1,
      "note": 52,
      "start": 168.7751,
      "duration": 0.1653,
      "velocity": 103,
      "chip": "ym2612"
    },
    {
      "channel": 3,
      "note": 64,
      "start": 168.7805,
      "duration": 0.009,
      "velocity": 127,
      "chip": "ym2612"
    },
    {
      "channel": 5,
      "note": 64,
      "start": 168.7824,
      "duration": 0.5638,
      "velocity": 119,
      "chip": "ym2612"
    },
    {
      "channel": 1,
      "note": 52,
      "start": 168.9757,
      "duration": 0.1669,
      "velocity": 103,
      "chip": "ym2612"
    },
    {
      "channel": 3,
      "note": 68,
      "start": 168.9813,
      "duration": 0.0105,
      "velocity": 127,
      "chip": "ym2612"
    },
    {
      "channel": 1,
      "note": 52,
      "start": 169.1779,
      "duration": 0.1671,
      "velocity": 103,
      "chip": "ym2612"
    },
    {
      "channel": 3,
      "note": 68,
      "start": 169.1801,
      "duration": 0.0139,
      "velocity": 127,
      "chip": "ym2612"
    },
    {
      "channel": 0,
      "note": 73,
      "start": 169.381,
      "duration": 0.9918,
      "velocity": 122,
      "chip": "ym2612"
    },
    {
      "channel": 1,
      "note": 61,
      "start": 169.3833,
      "duration": 0.1807,
      "velocity": 103,
      "chip": "ym2612"
    },
    {
      "channel": 2,
      "note": 68,
      "start": 169.3889,
      "duration": 0.9844,
      "velocity": 98,
      "chip": "ym2612"
    },
    {
      "channel": 3,
      "note": 64,
      "start": 169.3949,
      "duration": 0.0183,
      "velocity": 127,
      "chip": "ym2612"
    },
    {
      "channel": 4,
      "note": 65,
      "start": 169.4005,
      "duration": 0.9736,
      "velocity": 98,
      "chip": "ym2612"
    },
    {
      "channel": 5,
      "note": 73,
      "start": 169.4029,
      "duration": 0.9714,
      "velocity": 119,
      "chip": "ym2612"
    },
    {
      "channel": 1,
      "note": 61,
      "start": 169.5993,
      "duration": 0.167,
      "velocity": 103,
      "chip": "ym2612"
    },
    {
      "channel": 1,
      "note": 61,
      "start": 169.8015,
      "duration": 0.1669,
      "velocity": 103,
      "chip": "ym2612"
    },
    {
      "channel": 3,
      "note": 64,
      "start": 169.8069,
      "duration": 0.0107,
      "velocity": 127,
      "chip": "ym2612"
    },
    {
      "channel": 1,
      "note": 61,
      "start": 170.0038,
      "duration": 0.167,
      "velocity": 103,
      "chip": "ym2612"
    },
    {
      "channel": 1,
      "note": 61,
      "start": 170.206,
      "duration": 0.1671,
      "velocity": 103,
      "chip": "ym2612"
    },
    {
      "channel": 3,
      "note": 64,
      "start": 170.2115,
      "duration": 0.0106,
      "velocity": 127,
      "chip": "ym2612"
    },
    {
      "channel": 0,
      "note": 75,
      "start": 170.408,
      "duration": 0.1671,
      "velocity": 122,
      "chip": "ym2612"
    },
    {
      "channel": 1,
      "note": 61,
      "start": 170.4098,
      "duration": 0.1655,
      "velocity": 103,
      "chip": "ym2612"
    },
    {
      "channel": 2,
      "note": 70,
      "start": 170.4116,
      "duration": 0.1639,
      "velocity": 98,
      "chip": "ym2612"
    },
    {
      "channel": 4,
      "note": 66,
      "start": 170.4138,
      "duration": 0.1625,
      "velocity": 98,
      "chip": "ym2612"
    },
    {
      "channel": 5,
      "note": 75,
      "start": 170.4155,
      "duration": 0.161,
      "velocity": 119,
      "chip": "ym2612"
    },
    {
      "channel": 0,
      "note": 73,
      "start": 170.6102,
      "duration": 0.184,
      "velocity": 122,
      "chip": "ym2612"
    },
    {
      "channel": 1,
      "note": 61,
      "start": 170.612,
      "duration": 0.1824,
      "velocity": 103,
      "chip": "ym2612"
    },
    {
      "channel": 2,
      "note": 68,
      "start": 170.6137,
      "duration": 0.1809,
      "velocity": 98,
      "chip": "ym2612"
    },
    {
      "channel": 3,
      "note": 64,
      "start": 170.619,
      "duration": 0.0244,
      "velocity": 127,
      "chip": "ym2612"
    },
    {
      "channel": 4,
      "note": 65,
      "start": 170.6207,
      "duration": 0.1747,
      "velocity": 98,
      "chip": "ym2612"
    },
    {
      "channel": 5,
      "note": 73,
      "start": 170.6223,
      "duration": 0.1733,
      "velocity": 119,
      "chip": "ym2612"
    },
    {
      "channel": 0,
      "note": 72,
      "start": 170.8293,
      "duration": 1.1783,
      "velocity": 122,
      "chip": "ym2612"
    },
    {
      "channel": 1,
      "note": 61,
      "start": 170.8311,
      "duration": 0.1654,
      "velocity": 103,
      "chip": "ym2612"
    },
    {
      "channel": 2,
      "note": 68,
      "start": 170.8328,
      "duration": 1.1753,
      "velocity": 98,
      "chip": "ym2612"
    },
    {
      "channel": 4,
      "note": 63,
      "start": 170.8351,
      "duration": 1.1737,
      "velocity": 98,
      "chip": "ym2612"
    },
    {
      "channel": 5,
      "note": 72,
      "start": 170.8368,
      "duration": 1.1722,
      "velocity": 119,
      "chip": "ym2612"
    },
    {
      "channel": 1,
      "note": 60,
      "start": 171.032,
      "duration": 0.1668,
      "velocity": 103,
      "chip": "ym2612"
    },
    {
      "channel": 3,
      "note": 64,
      "start": 171.0375,
      "duration": 0.011,
      "velocity": 127,
      "chip": "ym2612"
    },
    {
      "channel": 1,
      "note": 60,
      "start": 171.234,
      "duration": 0.167,
      "velocity": 103,
      "chip": "ym2612"
    },
    {
      "channel": 1,
      "note": 60,
      "start": 171.4363,
      "duration": 0.1671,
      "velocity": 103,
      "chip": "ym2612"
    },
    {
      "channel": 3,
      "note": 64,
      "start": 171.4417,
      "duration": 0.011,
      "velocity": 127,
      "chip": "ym2612"
    },
    {
      "channel": 1,
      "note": 60,
      "start": 171.6385,
      "duration": 0.167,
      "velocity": 103,
      "chip": "ym2612"
    },
    {
      "channel": 1,
      "note": 60,
      "start": 171.8407,
      "duration": 0.1672,
      "velocity": 103,
      "chip": "ym2612"
    },
    {
      "channel": 3,
      "note": 64,
      "start": 171.8463,
      "duration": 0.0106,
      "velocity": 127,
      "chip": "ym2612"
    },
    {
      "channel": 0,
      "note": 73,
      "start": 172.0428,
      "duration": 0.1671,
      "velocity": 122,
      "chip": "ym2612"
    },
    {
      "channel": 1,
      "note": 60,
      "start": 172.0445,
      "duration": 0.1656,
      "velocity": 103,
      "chip": "ym2612"
    },
    {
      "channel": 2,
      "note": 70,
      "start": 172.0463,
      "duration": 0.164,
      "velocity": 98,
      "chip": "ym2612"
    },
    {
      "channel": 4,
      "note": 65,
      "start": 172.0486,
      "duration": 0.1624,
      "velocity": 98,
      "chip": "ym2612"
    },
    {
      "channel": 5,
      "note": 73,
      "start": 172.0502,
      "duration": 0.161,
      "velocity": 119,
      "chip": "ym2612"
    },
    {
      "channel": 0,
      "note": 72,
      "start": 172.245,
      "duration": 0.1844,
      "velocity": 122,
      "chip": "ym2612"
    },
    {
      "channel": 1,
      "note": 60,
      "start": 172.2468,
      "duration": 0.1828,
      "velocity": 103,
      "chip": "ym2612"
    },
    {
      "channel": 2,
      "note": 68,
      "start": 172.2485,
      "duration": 0.1812,
      "velocity": 98,
      "chip": "ym2612"
    },
    {
      "channel": 3,
      "note": 64,
      "start": 172.2538,
      "duration": 0.0244,
      "velocity": 127,
      "chip": "ym2612"
    },
    {
      "channel": 4,
      "note": 63,
      "start": 172.2555,
      "duration": 0.175,
      "velocity": 98,
      "chip": "ym2612"
    },
    {
      "channel": 5,
      "note": 72,
      "start": 172.2571,
      "duration": 0.1736,
      "velocity": 119,
      "chip": "ym2612"
    },
    {
      "channel": 0,
      "note": 70,
      "start": 172.4641,
      "duration": 1.785,
      "velocity": 122,
      "chip": "ym2612"
    },
    {
      "channel": 1,
      "note": 60,
      "start": 172.4659,
      "duration": 0.1654,
      "velocity": 103,
      "chip": "ym2612"
    },
    {
      "channel": 2,
      "note": 65,
      "start": 172.4676,
      "duration": 1.782,
      "velocity": 98,
      "chip": "ym2612"
    },
    {
      "channel": 4,
      "note": 61,
      "start": 172.4699,
      "duration": 1.7804,
      "velocity": 98,
      "chip": "ym2612"
    },
    {
      "channel": 5,
      "note": 70,
      "start": 172.4716,
      "duration": 1.7789,
      "velocity": 119,
      "chip": "ym2612"
    },
    {
      "channel": 1,
      "note": 58,
      "start": 172.6682,
      "duration": 0.1655,
      "velocity": 103,
      "chip": "ym2612"
    },
    {
      "channel": 3,
      "note": 64,
      "start": 172.6753,
      "duration": 0.0092,
      "velocity": 127,
      "chip": "ym2612"
    },
    {
      "channel": 1,
      "note": 58,
      "start": 172.8688,
      "duration": 0.167,
      "velocity": 103,
      "chip": "ym2612"
    },
    {
      "channel": 1,
      "note": 58,
      "start": 173.0711,
      "duration": 0.167,
      "velocity": 103,
      "chip": "ym2612"
    },
    {
      "channel": 3,
      "note": 64,
      "start": 173.0765,
      "duration": 0.0107,
      "velocity": 127,
      "chip": "ym2612"
    },
    {
      "channel": 1,
      "note": 58,
      "start": 173.2733,
      "duration": 0.167,
      "velocity": 103,
      "chip": "ym2612"
    },
    {
      "channel": 1,
      "note": 58,
      "start": 173.4755,
      "duration": 0.167,
      "velocity": 103,
      "chip": "ym2612"
    },
    {
      "channel": 3,
      "note": 64,
      "start": 173.481,
      "duration": 0.0106,
      "velocity": 127,
      "chip": "ym2612"
    },
    {
      "channel": 1,
      "note": 58,
      "start": 173.6778,
      "duration": 0.167,
      "velocity": 103,
      "chip": "ym2612"
    },
    {
      "channel": 1,
      "note": 58,
      "start": 173.88,
      "duration": 0.167,
      "velocity": 103,
      "chip": "ym2612"
    },
    {
      "channel": 3,
      "note": 64,
      "start": 173.8854,
      "duration": 0.0107,
      "velocity": 127,
      "chip": "ym2612"
    },
    {
      "channel": 1,
      "note": 58,
      "start": 174.0823,
      "duration": 0.1671,
      "velocity": 103,
      "chip": "ym2612"
    },
    {
      "channel": 0,
      "note": 66,
      "start": 174.2843,
      "duration": 0.184,
      "velocity": 122,
      "chip": "ym2612"
    },
    {
      "channel": 1,
      "note": 54,
      "start": 174.2862,
      "duration": 0.1823,
      "velocity": 103,
      "chip": "ym2612"
    },
    {
      "channel": 2,
      "note": 61,
      "start": 174.288,
      "duration": 0.5851,
      "velocity": 98,
      "chip": "ym2612"
    },
    {
      "channel": 3,
      "note": 64,
      "start": 174.2937,
      "duration": 0.0237,
      "velocity": 127,
      "chip": "ym2612"
    },
    {
      "channel": 4,
      "note": 58,
      "start": 174.2954,
      "duration": 0.5784,
      "velocity": 98,
      "chip": "ym2612"
    },
    {
      "channel": 5,
      "note": 66,
      "start": 174.2971,
      "duration": 0.1724,
      "velocity": 119,
      "chip": "ym2612"
    },
    {
      "channel": 0,
      "note": 66,
      "start": 174.5034,
      "duration": 0.0153,
      "velocity": 122,
      "chip": "ym2612"
    },
    {
      "channel": 1,
      "note": 54,
      "start": 174.5052,
      "duration": 0.1667,
      "velocity": 103,
      "chip": "ym2612"
    },
    {
      "channel": 5,
      "note": 66,
      "start": 174.5076,
      "duration": 0.0123,
      "velocity": 119,
      "chip": "ym2612"
    },
    {
      "channel": 0,
      "note": 66,
      "start": 174.7056,
      "duration": 0.0155,
      "velocity": 122,
      "chip": "ym2612"
    },
    {
      "channel": 1,
      "note": 54,
      "start": 174.7074,
      "duration": 0.1654,
      "velocity": 103,
      "chip": "ym2612"
    },
    {
      "channel": 3,
      "note": 64,
      "start": 174.7127,
      "duration": 0.0093,
      "velocity": 127,
      "chip": "ym2612"
    },
    {
      "channel": 5,
      "note": 66,
      "start": 174.7145,
      "duration": 0.0079,
      "velocity": 119,
      "chip": "ym2612"
    },
    {
      "channel": 0,
      "note": 68,
      "start": 174.9079,
      "duration": 0.3862,
      "velocity": 122,
      "chip": "ym2612"
    },
    {
      "channel": 1,
      "note": 56,
      "start": 174.9098,
      "duration": 0.1821,
      "velocity": 103,
      "chip": "ym2612"
    },
    {
      "channel": 2,
      "note": 63,
      "start": 174.9115,
      "duration": 0.5851,
      "velocity": 98,
      "chip": "ym2612"
    },
    {
      "channel": 3,
      "note": 64,
      "start": 174.9168,
      "duration": 0.0242,
      "velocity": 127,
      "chip": "ym2612"
    },
    {
      "channel": 4,
      "note": 60,
      "start": 174.9185,
      "duration": 0.5789,
      "velocity": 98,
      "chip": "ym2612"
    },
    {
      "channel": 5,
      "note": 68,
      "start": 174.9202,
      "duration": 0.3751,
      "velocity": 119,
      "chip": "ym2612"
    },
    {
      "channel": 1,
      "note": 56,
      "start": 175.1272,
      "duration": 0.1671,
      "velocity": 103,
      "chip": "ym2612"
    },
    {
      "channel": 0,
      "note": 68,
      "start": 175.3292,
      "duration": 0.0154,
      "velocity": 122,
      "chip": "ym2612"
    },
    {
      "channel": 1,
      "note": 56,
      "start": 175.331,
      "duration": 0.1654,
      "velocity": 103,
      "chip": "ym2612"
    },
    {
      "channel": 3,
      "note": 64,
      "start": 175.3332,
      "duration": 0.0125,
      "velocity": 127,
      "chip": "ym2612"
    },
    {
      "channel": 5,
      "note": 68,
      "start": 175.335,
      "duration": 0.011,
      "velocity": 119,
      "chip": "ym2612"
    },
    {
      "channel": 0,
      "note": 72,
      "start": 175.5314,
      "duration": 0.3695,
      "velocity": 122,
      "chip": "ym2612"
    },
    {
      "channel": 1,
      "note": 56,
      "start": 175.5332,
      "duration": 0.1654,
      "velocity": 103,
      "chip": "ym2612"
    },
    {
      "channel": 2,
      "note": 68,
      "start": 175.535,
      "duration": 0.3663,
      "velocity": 98,
      "chip": "ym2612"
    },
    {
      "channel": 3,
      "note": 64,
      "start": 175.5403,
      "duration": 0.0081,
      "velocity": 127,
      "chip": "ym2612"
    },
    {
      "channel": 4,
      "note": 63,
      "start": 175.542,
      "duration": 0.36,
      "velocity": 98,
      "chip": "ym2612"
    },
    {
      "channel": 5,
      "note": 72,
      "start": 175.5437,
      "duration": 0.3586,
      "velocity": 119,
      "chip": "ym2612"
    },
    {
      "channel": 1,
      "note": 56,
      "start": 175.7339,
      "duration": 0.1672,
      "velocity": 103,
      "chip": "ym2612"
    },
    {
      "channel": 0,
      "note": 73,
      "start": 175.9362,
      "duration": 0.9926,
      "velocity": 122,
      "chip": "ym2612"
    },
    {
      "channel": 1,
      "note": 61,
      "start": 175.9384,
      "duration": 0.1815,
      "velocity": 103,
      "chip": "ym2612"
    },
    {
      "channel": 2,
      "note": 68,
      "start": 175.9405,
      "duration": 0.9888,
      "velocity": 98,
      "chip": "ym2612"
    },
    {
      "channel": 3,
      "note": 64,
      "start": 175.9462,
      "duration": 0.0229,
      "velocity": 127,
      "chip": "ym2612"
    },
    {
      "channel": 4,
      "note": 65,
      "start": 175.9482,
      "duration": 0.9819,
      "velocity": 98,
      "chip": "ym2612"
    },
    {
      "channel": 5,
      "note": 73,
      "start": 175.9501,
      "duration": 0.9801,
      "velocity": 119,
      "chip": "ym2612"
    },
    {
      "channel": 1,
      "note": 61,
      "start": 176.1552,
      "duration": 0.167,
      "velocity": 103,
      "chip": "ym2612"
    },
    {
      "channel": 1,
      "note": 61,
      "start": 176.3575,
      "duration": 0.167,
      "velocity": 103,
      "chip": "ym2612"
    },
    {
      "channel": 3,
      "note": 64,
      "start": 176.3629,
      "duration": 0.0107,
      "velocity": 127,
      "chip": "ym2612"
    },
    {
      "channel": 1,
      "note": 61,
      "start": 176.5597,
      "duration": 0.167,
      "velocity": 103,
      "chip": "ym2612"
    },
    {
      "channel": 1,
      "note": 61,
      "start": 176.762,
      "duration": 0.1671,
      "velocity": 103,
      "chip": "ym2612"
    },
    {
      "channel": 3,
      "note": 64,
      "start": 176.7675,
      "duration": 0.0105,
      "velocity": 127,
      "chip": "ym2612"
    },
    {
      "channel": 0,
      "note": 75,
      "start": 176.964,
      "duration": 0.1671,
      "velocity": 122,
      "chip": "ym2612"
    },
    {
      "channel": 1,
      "note": 61,
      "start": 176.9658,
      "duration": 0.1655,
      "velocity": 103,
      "chip": "ym2612"
    },
    {
      "channel": 2,
      "note": 70,
      "start": 176.9676,
      "duration": 0.1639,
      "velocity": 98,
      "chip": "ym2612"
    },
    {
      "channel": 4,
      "note": 66,
      "start": 176.9698,
      "duration": 0.1625,
      "velocity": 98,
      "chip": "ym2612"
    },
    {
      "channel": 5,
      "note": 75,
      "start": 176.9715,
      "duration": 0.161,
      "velocity": 119,
      "chip": "ym2612"
    },
    {
      "channel": 0,
      "note": 73,
      "start": 177.1662,
      "duration": 0.184,
      "velocity": 122,
      "chip": "ym2612"
    },
    {
      "channel": 1,
      "note": 61,
      "start": 177.1679,
      "duration": 0.1824,
      "velocity": 103,
      "chip": "ym2612"
    },
    {
      "channel": 2,
      "note": 68,
      "start": 177.1697,
      "duration": 0.1809,
      "velocity": 98,
      "chip": "ym2612"
    },
    {
      "channel": 3,
      "note": 64,
      "start": 177.175,
      "duration": 0.0244,
      "velocity": 127,
      "chip": "ym2612"
    },
    {
      "channel": 4,
      "note": 65,
      "start": 177.1767,
      "duration": 0.1747,
      "velocity": 98,
      "chip": "ym2612"
    },
    {
      "channel": 5,
      "note": 73,
      "start": 177.1783,
      "duration": 0.1733,
      "velocity": 119,
      "chip": "ym2612"
    },
    {
      "channel": 0,
      "note": 72,
      "start": 177.3854,
      "duration": 1.1783,
      "velocity": 122,
      "chip": "ym2612"
    },
    {
      "channel": 1,
      "note": 61,
      "start": 177.3872,
      "duration": 0.1654,
      "velocity": 103,
      "chip": "ym2612"
    },
    {
      "channel": 2,
      "note": 68,
      "start": 177.3889,
      "duration": 1.1751,
      "velocity": 98,
      "chip": "ym2612"
    },
    {
      "channel": 4,
      "note": 63,
      "start": 177.3912,
      "duration": 1.1737,
      "velocity": 98,
      "chip": "ym2612"
    },
    {
      "channel": 5,
      "note": 72,
      "start": 177.3928,
      "duration": 1.1722,
      "velocity": 119,
      "chip": "ym2612"
    },
    {
      "channel": 1,
      "note": 60,
      "start": 177.5879,
      "duration": 0.1669,
      "velocity": 103,
      "chip": "ym2612"
    },
    {
      "channel": 3,
      "note": 64,
      "start": 177.5934,
      "duration": 0.0104,
      "velocity": 127,
      "chip": "ym2612"
    },
    {
      "channel": 1,
      "note": 60,
      "start": 177.79,
      "duration": 0.167,
      "velocity": 103,
      "chip": "ym2612"
    },
    {
      "channel": 1,
      "note": 60,
      "start": 177.9922,
      "duration": 0.1671,
      "velocity": 103,
      "chip": "ym2612"
    },
    {
      "channel": 3,
      "note": 64,
      "start": 177.9976,
      "duration": 0.0116,
      "velocity": 127,
      "chip": "ym2612"
    },
    {
      "channel": 1,
      "note": 60,
      "start": 178.1945,
      "duration": 0.167,
      "velocity": 103,
      "chip": "ym2612"
    },
    {
      "channel": 1,
      "note": 60,
      "start": 178.3968,
      "duration": 0.1671,
      "velocity": 103,
      "chip": "ym2612"
    },
    {
      "channel": 3,
      "note": 64,
      "start": 178.4023,
      "duration": 0.0111,
      "velocity": 127,
      "chip": "ym2612"
    },
    {
      "channel": 0,
      "note": 73,
      "start": 178.5988,
      "duration": 0.1671,
      "velocity": 122,
      "chip": "ym2612"
    },
    {
      "channel": 1,
      "note": 60,
      "start": 178.6006,
      "duration": 0.1655,
      "velocity": 103,
      "chip": "ym2612"
    },
    {
      "channel": 2,
      "note": 70,
      "start": 178.6024,
      "duration": 0.1639,
      "velocity": 98,
      "chip": "ym2612"
    },
    {
      "channel": 4,
      "note": 65,
      "start": 178.6047,
      "duration": 0.1623,
      "velocity": 98,
      "chip": "ym2612"
    },
    {
      "channel": 5,
      "note": 73,
      "start": 178.6064,
      "duration": 0.1609,
      "velocity": 119,
      "chip": "ym2612"
    },
    {
      "channel": 0,
      "note": 72,
      "start": 178.801,
      "duration": 0.184,
      "velocity": 122,
      "chip": "ym2612"
    },
    {
      "channel": 1,
      "note": 60,
      "start": 178.8027,
      "duration": 0.1824,
      "velocity": 103,
      "chip": "ym2612"
    },
    {
      "channel": 2,
      "note": 68,
      "start": 178.8045,
      "duration": 0.1809,
      "velocity": 98,
      "chip": "ym2612"
    },
    {
      "channel": 3,
      "note": 64,
      "start": 178.8098,
      "duration": 0.0244,
      "velocity": 127,
      "chip": "ym2612"
    },
    {
      "channel": 4,
      "note": 63,
      "start": 178.8115,
      "duration": 0.1747,
      "velocity": 98,
      "chip": "ym2612"
    },
    {
      "channel": 5,
      "note": 72,
      "start": 178.8131,
      "duration": 0.1733,
      "velocity": 119,
      "chip": "ym2612"
    },
    {
      "channel": 0,
      "note": 70,
      "start": 179.0202,
      "duration": 1.785,
      "velocity": 122,
      "chip": "ym2612"
    },
    {
      "channel": 1,
      "note": 60,
      "start": 179.0219,
      "duration": 0.1654,
      "velocity": 103,
      "chip": "ym2612"
    },
    {
      "channel": 2,
      "note": 65,
      "start": 179.0237,
      "duration": 1.7819,
      "velocity": 98,
      "chip": "ym2612"
    },
    {
      "channel": 4,
      "note": 61,
      "start": 179.026,
      "duration": 1.7803,
      "velocity": 98,
      "chip": "ym2612"
    },
    {
      "channel": 5,
      "note": 70,
      "start": 179.0276,
      "duration": 1.7789,
      "velocity": 119,
      "chip": "ym2612"
    },
    {
      "channel": 1,
      "note": 58,
      "start": 179.2242,
      "duration": 0.1662,
      "velocity": 103,
      "chip": "ym2612"
    },
    {
      "channel": 3,
      "note": 64,
      "start": 179.2312,
      "duration": 0.0093,
      "velocity": 127,
      "chip": "ym2612"
    },
    {
      "channel": 1,
      "note": 58,
      "start": 179.4248,
      "duration": 0.167,
      "velocity": 103,
      "chip": "ym2612"
    },
    {
      "channel": 1,
      "note": 58,
      "start": 179.6271,
      "duration": 0.1674,
      "velocity": 103,
      "chip": "ym2612"
    },
    {
      "channel": 3,
      "note": 64,
      "start": 179.6324,
      "duration": 0.0107,
      "velocity": 127,
      "chip": "ym2612"
    },
    {
      "channel": 1,
      "note": 58,
      "start": 179.8293,
      "duration": 0.167,
      "velocity": 103,
      "chip": "ym2612"
    },
    {
      "channel": 1,
      "note": 58,
      "start": 180.0315,
      "duration": 0.1672,
      "velocity": 103,
      "chip": "ym2612"
    },
    {
      "channel": 3,
      "note": 64,
      "start": 180.0371,
      "duration": 0.0105,
      "velocity": 127,
      "chip": "ym2612"
    },
    {
      "channel": 1,
      "note": 58,
      "start": 180.2338,
      "duration": 0.1671,
      "velocity": 103,
      "chip": "ym2612"
    },
    {
      "channel": 1,
      "note": 58,
      "start": 180.436,
      "duration": 0.1671,
      "velocity": 103,
      "chip": "ym2612"
    },
    {
      "channel": 3,
      "note": 64,
      "start": 180.4414,
      "duration": 0.0107,
      "velocity": 127,
      "chip": "ym2612"
    },
    {
      "channel": 1,
      "note": 58,
      "start": 180.6382,
      "duration": 0.1671,
      "velocity": 103,
      "chip": "ym2612"
    },
    {
      "channel": 0,
      "note": 66,
      "start": 180.8403,
      "duration": 0.184,
      "velocity": 122,
      "chip": "ym2612"
    },
    {
      "channel": 1,
      "note": 54,
      "start": 180.8422,
      "duration": 0.1823,
      "velocity": 103,
      "chip": "ym2612"
    },
    {
      "channel": 2,
      "note": 61,
      "start": 180.844,
      "duration": 0.5851,
      "velocity": 98,
      "chip": "ym2612"
    },
    {
      "channel": 3,
      "note": 64,
      "start": 180.8496,
      "duration": 0.0239,
      "velocity": 127,
      "chip": "ym2612"
    },
    {
      "channel": 4,
      "note": 58,
      "start": 180.8513,
      "duration": 0.5784,
      "velocity": 98,
      "chip": "ym2612"
    },
    {
      "channel": 5,
      "note": 66,
      "start": 180.8531,
      "duration": 0.1724,
      "velocity": 119,
      "chip": "ym2612"
    },
    {
      "channel": 0,
      "note": 66,
      "start": 181.06,
      "duration": 0.0148,
      "velocity": 122,
      "chip": "ym2612"
    },
    {
      "channel": 1,
      "note": 54,
      "start": 181.0618,
      "duration": 0.1648,
      "velocity": 103,
      "chip": "ym2612"
    },
    {
      "channel": 5,
      "note": 66,
      "start": 181.0643,
      "duration": 0.0117,
      "velocity": 119,
      "chip": "ym2612"
    },
    {
      "channel": 0,
      "note": 66,
      "start": 181.2617,
      "duration": 0.0154,
      "velocity": 122,
      "chip": "ym2612"
    },
    {
      "channel": 1,
      "note": 54,
      "start": 181.2634,
      "duration": 0.1655,
      "velocity": 103,
      "chip": "ym2612"
    },
    {
      "channel": 3,
      "note": 64,
      "start": 181.2688,
      "duration": 0.0092,
      "velocity": 127,
      "chip": "ym2612"
    },
    {
      "channel": 5,
      "note": 66,
      "start": 181.2705,
      "duration": 0.0078,
      "velocity": 119,
      "chip": "ym2612"
    },
    {
      "channel": 0,
      "note": 68,
      "start": 181.4641,
      "duration": 0.386,
      "velocity": 122,
      "chip": "ym2612"
    },
    {
      "channel": 1,
      "note": 56,
      "start": 181.466,
      "duration": 0.182,
      "velocity": 103,
      "chip": "ym2612"
    },
    {
      "channel": 2,
      "note": 63,
      "start": 181.4677,
      "duration": 0.5849,
      "velocity": 98,
      "chip": "ym2612"
    },
    {
      "channel": 3,
      "note": 64,
      "start": 181.473,
      "duration": 0.024,
      "velocity": 127,
      "chip": "ym2612"
    },
    {
      "channel": 4,
      "note": 60,
      "start": 181.4747,
      "duration": 0.5788,
      "velocity": 98,
      "chip": "ym2612"
    },
    {
      "channel": 5,
      "note": 68,
      "start": 181.4764,
      "duration": 0.3749,
      "velocity": 119,
      "chip": "ym2612"
    },
    {
      "channel": 1,
      "note": 56,
      "start": 181.6832,
      "duration": 0.1671,
      "velocity": 103,
      "chip": "ym2612"
    },
    {
      "channel": 0,
      "note": 68,
      "start": 181.8852,
      "duration": 0.0154,
      "velocity": 122,
      "chip": "ym2612"
    },
    {
      "channel": 1,
      "note": 56,
      "start": 181.887,
      "duration": 0.1655,
      "velocity": 103,
      "chip": "ym2612"
    },
    {
      "channel": 3,
      "note": 64,
      "start": 181.8892,
      "duration": 0.0124,
      "velocity": 127,
      "chip": "ym2612"
    },
    {
      "channel": 5,
      "note": 68,
      "start": 181.891,
      "duration": 0.0109,
      "velocity": 119,
      "chip": "ym2612"
    },
    {
      "channel": 0,
      "note": 72,
      "start": 182.0875,
      "duration": 0.3693,
      "velocity": 122,
      "chip": "ym2612"
    },
    {
      "channel": 1,
      "note": 56,
      "start": 182.0893,
      "duration": 0.1654,
      "velocity": 103,
      "chip": "ym2612"
    },
    {
      "channel": 2,
      "note": 68,
      "start": 182.091,
      "duration": 0.3662,
      "velocity": 98,
      "chip": "ym2612"
    },
    {
      "channel": 3,
      "note": 64,
      "start": 182.0963,
      "duration": 0.0082,
      "velocity": 127,
      "chip": "ym2612"
    },
    {
      "channel": 4,
      "note": 63,
      "start": 182.098,
      "duration": 0.36,
      "velocity": 98,
      "chip": "ym2612"
    },
    {
      "channel": 5,
      "note": 72,
      "start": 182.0996,
      "duration": 0.3585,
      "velocity": 119,
      "chip": "ym2612"
    },
    {
      "channel": 1,
      "note": 56,
      "start": 182.2899,
      "duration": 0.1671,
      "velocity": 103,
      "chip": "ym2612"
    },
    {
      "channel": 0,
      "note": 73,
      "start": 182.4922,
      "duration": 0.9927,
      "velocity": 122,
      "chip": "ym2612"
    },
    {
      "channel": 1,
      "note": 61,
      "start": 182.4944,
      "duration": 0.1816,
      "velocity": 103,
      "chip": "ym2612"
    },
    {
      "channel": 2,
      "note": 68,
      "start": 182.4964,
      "duration": 0.9888,
      "velocity": 98,
      "chip": "ym2612"
    },
    {
      "channel": 3,
      "note": 64,
      "start": 182.5021,
      "duration": 0.023,
      "velocity": 127,
      "chip": "ym2612"
    },
    {
      "channel": 4,
      "note": 65,
      "start": 182.5041,
      "duration": 0.9819,
      "velocity": 98,
      "chip": "ym2612"
    },
    {
      "channel": 5,
      "note": 73,
      "start": 182.5061,
      "duration": 0.9801,
      "velocity": 119,
      "chip": "ym2612"
    },
    {
      "channel": 1,
      "note": 61,
      "start": 182.7112,
      "duration": 0.167,
      "velocity": 103,
      "chip": "ym2612"
    },
    {
      "channel": 1,
      "note": 61,
      "start": 182.9135,
      "duration": 0.167,
      "velocity": 103,
      "chip": "ym2612"
    },
    {
      "channel": 3,
      "note": 64,
      "start": 182.9188,
      "duration": 0.0107,
      "velocity": 127,
      "chip": "ym2612"
    },
    {
      "channel": 1,
      "note": 61,
      "start": 183.1157,
      "duration": 0.167,
      "velocity": 103,
      "chip": "ym2612"
    },
    {
      "channel": 1,
      "note": 61,
      "start": 183.3179,
      "duration": 0.1671,
      "velocity": 103,
      "chip": "ym2612"
    },
    {
      "channel": 3,
      "note": 64,
      "start": 183.3235,
      "duration": 0.0105,
      "velocity": 127,
      "chip": "ym2612"
    },
    {
      "channel": 0,
      "note": 75,
      "start": 183.52,
      "duration": 0.1671,
      "velocity": 122,
      "chip": "ym2612"
    },
    {
      "channel": 1,
      "note": 61,
      "start": 183.5218,
      "duration": 0.1655,
      "velocity": 103,
      "chip": "ym2612"
    },
    {
      "channel": 2,
      "note": 70,
      "start": 183.5236,
      "duration": 0.1639,
      "velocity": 98,
      "chip": "ym2612"
    },
    {
      "channel": 4,
      "note": 66,
      "start": 183.5258,
      "duration": 0.1624,
      "velocity": 98,
      "chip": "ym2612"
    },
    {
      "channel": 5,
      "note": 75,
      "start": 183.5275,
      "duration": 0.161,
      "velocity": 119,
      "chip": "ym2612"
    },
    {
      "channel": 0,
      "note": 73,
      "start": 183.7222,
      "duration": 0.1671,
      "velocity": 122,
      "chip": "ym2612"
    },
    {
      "channel": 1,
      "note": 61,
      "start": 183.724,
      "duration": 0.1656,
      "velocity": 103,
      "chip": "ym2612"
    },
    {
      "channel": 2,
      "note": 68,
      "start": 183.7257,
      "duration": 0.1641,
      "velocity": 98,
      "chip": "ym2612"
    },
    {
      "channel": 3,
      "note": 64,
      "start": 183.731,
      "duration": 0.0084,
      "velocity": 127,
      "chip": "ym2612"
    },
    {
      "channel": 4,
      "note": 65,
      "start": 183.7326,
      "duration": 0.1579,
      "velocity": 98,
      "chip": "ym2612"
    },
    {
      "channel": 5,
      "note": 73,
      "start": 183.7343,
      "duration": 0.1564,
      "velocity": 119,
      "chip": "ym2612"
    },
    {
      "channel": 0,
      "note": 72,
      "start": 183.9245,
      "duration": 1.1783,
      "velocity": 122,
      "chip": "ym2612"
    },
    {
      "channel": 1,
      "note": 61,
      "start": 183.9262,
      "duration": 0.1655,
      "velocity": 103,
      "chip": "ym2612"
    },
    {
      "channel": 2,
      "note": 68,
      "start": 183.928,
      "duration": 1.1752,
      "velocity": 98,
      "chip": "ym2612"
    },
    {
      "channel": 4,
      "note": 63,
      "start": 183.9302,
      "duration": 1.1738,
      "velocity": 98,
      "chip": "ym2612"
    },
    {
      "channel": 5,
      "note": 72,
      "start": 183.932,
      "duration": 1.1722,
      "velocity": 119,
      "chip": "ym2612"
    },
    {
      "channel": 1,
      "note": 60,
      "start": 184.1271,
      "duration": 0.1668,
      "velocity": 103,
      "chip": "ym2612"
    },
    {
      "channel": 3,
      "note": 64,
      "start": 184.1326,
      "duration": 0.0104,
      "velocity": 127,
      "chip": "ym2612"
    },
    {
      "channel": 1,
      "note": 60,
      "start": 184.3291,
      "duration": 0.167,
      "velocity": 103,
      "chip": "ym2612"
    },
    {
      "channel": 1,
      "note": 60,
      "start": 184.5314,
      "duration": 0.167,
      "velocity": 103,
      "chip": "ym2612"
    },
    {
      "channel": 3,
      "note": 64,
      "start": 184.5368,
      "duration": 0.0107,
      "velocity": 127,
      "chip": "ym2612"
    },
    {
      "channel": 1,
      "note": 60,
      "start": 184.7337,
      "duration": 0.167,
      "velocity": 103,
      "chip": "ym2612"
    },
    {
      "channel": 1,
      "note": 60,
      "start": 184.9359,
      "duration": 0.1671,
      "velocity": 103,
      "chip": "ym2612"
    },
    {
      "channel": 3,
      "note": 64,
      "start": 184.9414,
      "duration": 0.0105,
      "velocity": 127,
      "chip": "ym2612"
    },
    {
      "channel": 0,
      "note": 73,
      "start": 185.1379,
      "duration": 0.1671,
      "velocity": 122,
      "chip": "ym2612"
    },
    {
      "channel": 1,
      "note": 60,
      "start": 185.1397,
      "duration": 0.1655,
      "velocity": 103,
      "chip": "ym2612"
    },
    {
      "channel": 2,
      "note": 70,
      "start": 185.1415,
      "duration": 0.1639,
      "velocity": 98,
      "chip": "ym2612"
    },
    {
      "channel": 4,
      "note": 65,
      "start": 185.1438,
      "duration": 0.1624,
      "velocity": 98,
      "chip": "ym2612"
    },
    {
      "channel": 5,
      "note": 73,
      "start": 185.1454,
      "duration": 0.161,
      "velocity": 119,
      "chip": "ym2612"
    },
    {
      "channel": 0,
      "note": 72,
      "start": 185.3401,
      "duration": 0.184,
      "velocity": 122,
      "chip": "ym2612"
    },
    {
      "channel": 1,
      "note": 60,
      "start": 185.3419,
      "duration": 0.1824,
      "velocity": 103,
      "chip": "ym2612"
    },
    {
      "channel": 2,
      "note": 68,
      "start": 185.3437,
      "duration": 0.1808,
      "velocity": 98,
      "chip": "ym2612"
    },
    {
      "channel": 3,
      "note": 64,
      "start": 185.3489,
      "duration": 0.0254,
      "velocity": 127,
      "chip": "ym2612"
    },
    {
      "channel": 4,
      "note": 63,
      "start": 185.3505,
      "duration": 0.1747,
      "velocity": 98,
      "chip": "ym2612"
    },
    {
      "channel": 5,
      "note": 72,
      "start": 185.3523,
      "duration": 0.1732,
      "velocity": 119,
      "chip": "ym2612"
    },
    {
      "channel": 0,
      "note": 70,
      "start": 185.5592,
      "duration": 1.7851,
      "velocity": 122,
      "chip": "ym2612"
    },
    {
      "channel": 1,
      "note": 60,
      "start": 185.561,
      "duration": 0.1654,
      "velocity": 103,
      "chip": "ym2612"
    },
    {
      "channel": 2,
      "note": 65,
      "start": 185.5628,
      "duration": 1.7819,
      "velocity": 98,
      "chip": "ym2612"
    },
    {
      "channel": 4,
      "note": 61,
      "start": 185.565,
      "duration": 1.7804,
      "velocity": 98,
      "chip": "ym2612"
    },
    {
      "channel": 5,
      "note": 70,
      "start": 185.5667,
      "duration": 1.7789,
      "velocity": 119,
      "chip": "ym2612"
    },
    {
      "channel": 1,
      "note": 58,
      "start": 185.7633,
      "duration": 0.1654,
      "velocity": 103,
      "chip": "ym2612"
    },
    {
      "channel": 3,
      "note": 64,
      "start": 185.7704,
      "duration": 0.0093,
      "velocity": 127,
      "chip": "ym2612"
    },
    {
      "channel": 1,
      "note": 58,
      "start": 185.9639,
      "duration": 0.167,
      "velocity": 103,
      "chip": "ym2612"
    },
    {
      "channel": 1,
      "note": 58,
      "start": 186.1662,
      "duration": 0.167,
      "velocity": 103,
      "chip": "ym2612"
    },
    {
      "channel": 3,
      "note": 64,
      "start": 186.1716,
      "duration": 0.0106,
      "velocity": 127,
      "chip": "ym2612"
    },
    {
      "channel": 1,
      "note": 58,
      "start": 186.3685,
      "duration": 0.167,
      "velocity": 103,
      "chip": "ym2612"
    },
    {
      "channel": 1,
      "note": 58,
      "start": 186.5707,
      "duration": 0.167,
      "velocity": 103,
      "chip": "ym2612"
    },
    {
      "channel": 3,
      "note": 64,
      "start": 186.5762,
      "duration": 0.0106,
      "velocity": 127,
      "chip": "ym2612"
    },
    {
      "channel": 1,
      "note": 58,
      "start": 186.7729,
      "duration": 0.167,
      "velocity": 103,
      "chip": "ym2612"
    },
    {
      "channel": 1,
      "note": 58,
      "start": 186.9751,
      "duration": 0.1671,
      "velocity": 103,
      "chip": "ym2612"
    },
    {
      "channel": 3,
      "note": 64,
      "start": 186.9805,
      "duration": 0.0107,
      "velocity": 127,
      "chip": "ym2612"
    },
    {
      "channel": 1,
      "note": 58,
      "start": 187.1774,
      "duration": 0.1671,
      "velocity": 103,
      "chip": "ym2612"
    },
    {
      "channel": 0,
      "note": 66,
      "start": 187.3795,
      "duration": 0.1839,
      "velocity": 122,
      "chip": "ym2612"
    },
    {
      "channel": 1,
      "note": 54,
      "start": 187.3814,
      "duration": 0.1823,
      "velocity": 103,
      "chip": "ym2612"
    },
    {
      "channel": 2,
      "note": 61,
      "start": 187.3831,
      "duration": 0.5851,
      "velocity": 98,
      "chip": "ym2612"
    },
    {
      "channel": 3,
      "note": 64,
      "start": 187.3888,
      "duration": 0.0238,
      "velocity": 127,
      "chip": "ym2612"
    },
    {
      "channel": 4,
      "note": 58,
      "start": 187.3905,
      "duration": 0.5784,
      "velocity": 98,
      "chip": "ym2612"
    },
    {
      "channel": 5,
      "note": 66,
      "start": 187.3922,
      "duration": 0.1724,
      "velocity": 119,
      "chip": "ym2612"
    },
    {
      "channel": 0,
      "note": 66,
      "start": 187.5985,
      "duration": 0.0154,
      "velocity": 122,
      "chip": "ym2612"
    },
    {
      "channel": 1,
      "note": 54,
      "start": 187.6003,
      "duration": 0.1654,
      "velocity": 103,
      "chip": "ym2612"
    },
    {
      "channel": 5,
      "note": 66,
      "start": 187.6027,
      "duration": 0.0123,
      "velocity": 119,
      "chip": "ym2612"
    },
    {
      "channel": 0,
      "note": 66,
      "start": 187.8008,
      "duration": 0.0154,
      "velocity": 122,
      "chip": "ym2612"
    },
    {
      "channel": 1,
      "note": 54,
      "start": 187.8025,
      "duration": 0.1654,
      "velocity": 103,
      "chip": "ym2612"
    },
    {
      "channel": 3,
      "note": 64,
      "start": 187.808,
      "duration": 0.0092,
      "velocity": 127,
      "chip": "ym2612"
    },
    {
      "channel": 5,
      "note": 66,
      "start": 187.8097,
      "duration": 0.0078,
      "velocity": 119,
      "chip": "ym2612"
    },
    {
      "channel": 0,
      "note": 68,
      "start": 188.0031,
      "duration": 0.3861,
      "velocity": 122,
      "chip": "ym2612"
    },
    {
      "channel": 1,
      "note": 56,
      "start": 188.005,
      "duration": 0.1821,
      "velocity": 103,
      "chip": "ym2612"
    },
    {
      "channel": 2,
      "note": 63,
      "start": 188.0067,
      "duration": 0.5851,
      "velocity": 98,
      "chip": "ym2612"
    },
    {
      "channel": 3,
      "note": 64,
      "start": 188.012,
      "duration": 0.0242,
      "velocity": 127,
      "chip": "ym2612"
    },
    {
      "channel": 4,
      "note": 60,
      "start": 188.0136,
      "duration": 0.5789,
      "velocity": 98,
      "chip": "ym2612"
    },
    {
      "channel": 5,
      "note": 68,
      "start": 188.0153,
      "duration": 0.3751,
      "velocity": 119,
      "chip": "ym2612"
    },
    {
      "channel": 1,
      "note": 56,
      "start": 188.2223,
      "duration": 0.1671,
      "velocity": 103,
      "chip": "ym2612"
    },
    {
      "channel": 0,
      "note": 68,
      "start": 188.4248,
      "duration": 0.015,
      "velocity": 122,
      "chip": "ym2612"
    },
    {
      "channel": 1,
      "note": 56,
      "start": 188.4266,
      "duration": 0.1649,
      "velocity": 103,
      "chip": "ym2612"
    },
    {
      "channel": 3,
      "note": 64,
      "start": 188.4288,
      "duration": 0.012,
      "velocity": 127,
      "chip": "ym2612"
    },
    {
      "channel": 5,
      "note": 68,
      "start": 188.4306,
      "duration": 0.0105,
      "velocity": 119,
      "chip": "ym2612"
    },
    {
      "channel": 0,
      "note": 72,
      "start": 188.6266,
      "duration": 0.3693,
      "velocity": 122,
      "chip": "ym2612"
    },
    {
      "channel": 1,
      "note": 56,
      "start": 188.6283,
      "duration": 0.1654,
      "velocity": 103,
      "chip": "ym2612"
    },
    {
      "channel": 2,
      "note": 68,
      "start": 188.6301,
      "duration": 0.3663,
      "velocity": 98,
      "chip": "ym2612"
    },
    {
      "channel": 3,
      "note": 64,
      "start": 188.6354,
      "duration": 0.0082,
      "velocity": 127,
      "chip": "ym2612"
    },
    {
      "channel": 4,
      "note": 63,
      "start": 188.6371,
      "duration": 0.36,
      "velocity": 98,
      "chip": "ym2612"
    },
    {
      "channel": 5,
      "note": 72,
      "start": 188.6388,
      "duration": 0.3586,
      "velocity": 119,
      "chip": "ym2612"
    },
    {
      "channel": 1,
      "note": 56,
      "start": 188.8291,
      "duration": 0.167,
      "velocity": 103,
      "chip": "ym2612"
    },
    {
      "channel": 0,
      "note": 73,
      "start": 189.0314,
      "duration": 0.9926,
      "velocity": 122,
      "chip": "ym2612"
    },
    {
      "channel": 1,
      "note": 61,
      "start": 189.0335,
      "duration": 0.1816,
      "velocity": 103,
      "chip": "ym2612"
    },
    {
      "channel": 2,
      "note": 68,
      "start": 189.0356,
      "duration": 0.9889,
      "velocity": 98,
      "chip": "ym2612"
    },
    {
      "channel": 3,
      "note": 64,
      "start": 189.0413,
      "duration": 0.023,
      "velocity": 127,
      "chip": "ym2612"
    },
    {
      "channel": 4,
      "note": 65,
      "start": 189.0433,
      "duration": 0.9818,
      "velocity": 98,
      "chip": "ym2612"
    },
    {
      "channel": 5,
      "note": 73,
      "start": 189.0453,
      "duration": 0.9801,
      "velocity": 119,
      "chip": "ym2612"
    },
    {
      "channel": 1,
      "note": 61,
      "start": 189.2504,
      "duration": 0.167,
      "velocity": 103,
      "chip": "ym2612"
    },
    {
      "channel": 1,
      "note": 61,
      "start": 189.4526,
      "duration": 0.167,
      "velocity": 103,
      "chip": "ym2612"
    },
    {
      "channel": 3,
      "note": 64,
      "start": 189.458,
      "duration": 0.0107,
      "velocity": 127,
      "chip": "ym2612"
    },
    {
      "channel": 1,
      "note": 61,
      "start": 189.6549,
      "duration": 0.1669,
      "velocity": 103,
      "chip": "ym2612"
    },
    {
      "channel": 1,
      "note": 61,
      "start": 189.8571,
      "duration": 0.1671,
      "velocity": 103,
      "chip": "ym2612"
    },
    {
      "channel": 3,
      "note": 64,
      "start": 189.8627,
      "duration": 0.0105,
      "velocity": 127,
      "chip": "ym2612"
    },
    {
      "channel": 0,
      "note": 75,
      "start": 190.0592,
      "duration": 0.1671,
      "velocity": 122,
      "chip": "ym2612"
    },
    {
      "channel": 1,
      "note": 61,
      "start": 190.0609,
      "duration": 0.1656,
      "velocity": 103,
      "chip": "ym2612"
    },
    {
      "channel": 2,
      "note": 70,
      "start": 190.0627,
      "duration": 0.164,
      "velocity": 98,
      "chip": "ym2612"
    },
    {
      "channel": 4,
      "note": 66,
      "start": 190.065,
      "duration": 0.1624,
      "velocity": 98,
      "chip": "ym2612"
    },
    {
      "channel": 5,
      "note": 75,
      "start": 190.0666,
      "duration": 0.161,
      "velocity": 119,
      "chip": "ym2612"
    },
    {
      "channel": 0,
      "note": 73,
      "start": 190.2613,
      "duration": 0.184,
      "velocity": 122,
      "chip": "ym2612"
    },
    {
      "channel": 1,
      "note": 61,
      "start": 190.2631,
      "duration": 0.1824,
      "velocity": 103,
      "chip": "ym2612"
    },
    {
      "channel": 2,
      "note": 68,
      "start": 190.2648,
      "duration": 0.1809,
      "velocity": 98,
      "chip": "ym2612"
    },
    {
      "channel": 3,
      "note": 64,
      "start": 190.2701,
      "duration": 0.0244,
      "velocity": 127,
      "chip": "ym2612"
    },
    {
      "channel": 4,
      "note": 65,
      "start": 190.2718,
      "duration": 0.1747,
      "velocity": 98,
      "chip": "ym2612"
    },
    {
      "channel": 5,
      "note": 73,
      "start": 190.2735,
      "duration": 0.1733,
      "velocity": 119,
      "chip": "ym2612"
    },
    {
      "channel": 0,
      "note": 72,
      "start": 190.4805,
      "duration": 1.1783,
      "velocity": 122,
      "chip": "ym2612"
    },
    {
      "channel": 1,
      "note": 61,
      "start": 190.4823,
      "duration": 0.1654,
      "velocity": 103,
      "chip": "ym2612"
    },
    {
      "channel": 2,
      "note": 68,
      "start": 190.484,
      "duration": 1.1752,
      "velocity": 98,
      "chip": "ym2612"
    },
    {
      "channel": 4,
      "note": 63,
      "start": 190.4863,
      "duration": 1.1737,
      "velocity": 98,
      "chip": "ym2612"
    },
    {
      "channel": 5,
      "note": 72,
      "start": 190.488,
      "duration": 1.1722,
      "velocity": 119,
      "chip": "ym2612"
    },
    {
      "channel": 1,
      "note": 60,
      "start": 190.6831,
      "duration": 0.1668,
      "velocity": 103,
      "chip": "ym2612"
    },
    {
      "channel": 3,
      "note": 64,
      "start": 190.6886,
      "duration": 0.0104,
      "velocity": 127,
      "chip": "ym2612"
    },
    {
      "channel": 1,
      "note": 60,
      "start": 190.8852,
      "duration": 0.167,
      "velocity": 103,
      "chip": "ym2612"
    },
    {
      "channel": 1,
      "note": 60,
      "start": 191.0874,
      "duration": 0.167,
      "velocity": 103,
      "chip": "ym2612"
    },
    {
      "channel": 3,
      "note": 64,
      "start": 191.0928,
      "duration": 0.0107,
      "velocity": 127,
      "chip": "ym2612"
    },
    {
      "channel": 1,
      "note": 60,
      "start": 191.2896,
      "duration": 0.167,
      "velocity": 103,
      "chip": "ym2612"
    },
    {
      "channel": 1,
      "note": 60,
      "start": 191.4919,
      "duration": 0.1671,
      "velocity": 103,
      "chip": "ym2612"
    },
    {
      "channel": 3,
      "note": 64,
      "start": 191.4975,
      "duration": 0.0105,
      "velocity": 127,
      "chip": "ym2612"
    },
    {
      "channel": 0,
      "note": 73,
      "start": 191.6939,
      "duration": 0.1671,
      "velocity": 122,
      "chip": "ym2612"
    },
    {
      "channel": 1,
      "note": 60,
      "start": 191.6957,
      "duration": 0.1655,
      "velocity": 103,
      "chip": "ym2612"
    },
    {
      "channel": 2,
      "note": 70,
      "start": 191.6975,
      "duration": 0.164,
      "velocity": 98,
      "chip": "ym2612"
    },
    {
      "channel": 4,
      "note": 65,
      "start": 191.6997,
      "duration": 0.1625,
      "velocity": 98,
      "chip": "ym2612"
    },
    {
      "channel": 5,
      "note": 73,
      "start": 191.7013,
      "duration": 0.1611,
      "velocity": 119,
      "chip": "ym2612"
    },
    {
      "channel": 0,
      "note": 72,
      "start": 191.8961,
      "duration": 0.1671,
      "velocity": 122,
      "chip": "ym2612"
    },
    {
      "channel": 1,
      "note": 60,
      "start": 191.8979,
      "duration": 0.1656,
      "velocity": 103,
      "chip": "ym2612"
    },
    {
      "channel": 2,
      "note": 68,
      "start": 191.8996,
      "duration": 0.1641,
      "velocity": 98,
      "chip": "ym2612"
    },
    {
      "channel": 3,
      "note": 64,
      "start": 191.9048,
      "duration": 0.0094,
      "velocity": 127,
      "chip": "ym2612"
    },
    {
      "channel": 4,
      "note": 63,
      "start": 191.9066,
      "duration": 0.1579,
      "velocity": 98,
      "chip": "ym2612"
    },
    {
      "channel": 5,
      "note": 72,
      "start": 191.9082,
      "duration": 0.1565,
      "velocity": 119,
      "chip": "ym2612"
    },
    {
      "channel": 0,
      "note": 70,
      "start": 192.0984,
      "duration": 1.5828,
      "velocity": 122,
      "chip": "ym2612"
    },
    {
      "channel": 1,
      "note": 60,
      "start": 192.1002,
      "duration": 0.1654,
      "velocity": 103,
      "chip": "ym2612"
    },
    {
      "channel": 2,
      "note": 65,
      "start": 192.1019,
      "duration": 1.5797,
      "velocity": 98,
      "chip": "ym2612"
    },
    {
      "channel": 4,
      "note": 61,
      "start": 192.1042,
      "duration": 1.5782,
      "velocity": 98,
      "chip": "ym2612"
    },
    {
      "channel": 5,
      "note": 70,
      "start": 192.1059,
      "duration": 1.5767,
      "velocity": 119,
      "chip": "ym2612"
    },
    {
      "channel": 1,
      "note": 58,
      "start": 192.301,
      "duration": 0.1668,
      "velocity": 103,
      "chip": "ym2612"
    },
    {
      "channel": 3,
      "note": 64,
      "start": 192.3066,
      "duration": 0.0104,
      "velocity": 127,
      "chip": "ym2612"
    },
    {
      "channel": 1,
      "note": 58,
      "start": 192.5031,
      "duration": 0.1669,
      "velocity": 103,
      "chip": "ym2612"
    },
    {
      "channel": 1,
      "note": 58,
      "start": 192.7054,
      "duration": 0.167,
      "velocity": 103,
      "chip": "ym2612"
    },
    {
      "channel": 3,
      "note": 64,
      "start": 192.7107,
      "duration": 0.0107,
      "velocity": 127,
      "chip": "ym2612"
    },
    {
      "channel": 1,
      "note": 58,
      "start": 192.9076,
      "duration": 0.167,
      "velocity": 103,
      "chip": "ym2612"
    },
    {
      "channel": 1,
      "note": 58,
      "start": 193.1098,
      "duration": 0.167,
      "velocity": 103,
      "chip": "ym2612"
    },
    {
      "channel": 3,
      "note": 64,
      "start": 193.1153,
      "duration": 0.0106,
      "velocity": 127,
      "chip": "ym2612"
    },
    {
      "channel": 1,
      "note": 58,
      "start": 193.312,
      "duration": 0.167,
      "velocity": 103,
      "chip": "ym2612"
    },
    {
      "channel": 1,
      "note": 58,
      "start": 193.5143,
      "duration": 0.1671,
      "velocity": 103,
      "chip": "ym2612"
    },
    {
      "channel": 3,
      "note": 64,
      "start": 193.5197,
      "duration": 0.0107,
      "velocity": 127,
      "chip": "ym2612"
    },
    {
      "channel": 0,
      "note": 73,
      "start": 193.7171,
      "duration": 0.1663,
      "velocity": 122,
      "chip": "ym2612"
    },
    {
      "channel": 1,
      "note": 58,
      "start": 193.7188,
      "duration": 0.1648,
      "velocity": 103,
      "chip": "ym2612"
    },
    {
      "channel": 2,
      "note": 61,
      "start": 193.7206,
      "duration": 0.1632,
      "velocity": 98,
      "chip": "ym2612"
    },
    {
      "channel": 4,
      "note": 58,
      "start": 193.7229,
      "duration": 0.1618,
      "velocity": 98,
      "chip": "ym2612"
    },
    {
      "channel": 5,
      "note": 73,
      "start": 193.7246,
      "duration": 0.1604,
      "velocity": 119,
      "chip": "ym2612"
    },
    {
      "channel": 0,
      "note": 78,
      "start": 193.9187,
      "duration": 0.1838,
      "velocity": 122,
      "chip": "ym2612"
    },
    {
      "channel": 1,
      "note": 54,
      "start": 193.9207,
      "duration": 0.1821,
      "velocity": 103,
      "chip": "ym2612"
    },
    {
      "channel": 2,
      "note": 66,
      "start": 193.9226,
      "duration": 0.1803,
      "velocity": 98,
      "chip": "ym2612"
    },
    {
      "channel": 3,
      "note": 76,
      "start": 193.9286,
      "duration": 0.0231,
      "velocity": 127,
      "chip": "ym2612"
    },
    {
      "channel": 4,
      "note": 61,
      "start": 193.9305,
      "duration": 0.1733,
      "velocity": 98,
      "chip": "ym2612"
    },
    {
      "channel": 5,
      "note": 78,
      "start": 193.9323,
      "duration": 0.1716,
      "velocity": 119,
      "chip": "ym2612"
    },
    {
      "channel": 0,
      "note": 77,
      "start": 194.1377,
      "duration": 0.1671,
      "velocity": 122,
      "chip": "ym2612"
    },
    {
      "channel": 1,
      "note": 54,
      "start": 194.1395,
      "duration": 0.1655,
      "velocity": 103,
      "chip": "ym2612"
    },
    {
      "channel": 2,
      "note": 65,
      "start": 194.1412,
      "duration": 0.1641,
      "velocity": 98,
      "chip": "ym2612"
    },
    {
      "channel": 3,
      "note": 73,
      "start": 194.1435,
      "duration": 0.0105,
      "velocity": 127,
      "chip": "ym2612"
    },
    {
      "channel": 4,
      "note": 60,
      "start": 194.1452,
      "duration": 0.1608,
      "velocity": 98,
      "chip": "ym2612"
    },
    {
      "channel": 5,
      "note": 77,
      "start": 194.1468,
      "duration": 0.1593,
      "velocity": 119,
      "chip": "ym2612"
    },
    {
      "channel": 0,
      "note": 73,
      "start": 194.3399,
      "duration": 0.1671,
      "velocity": 122,
      "chip": "ym2612"
    },
    {
      "channel": 1,
      "note": 54,
      "start": 194.3417,
      "duration": 0.1655,
      "velocity": 103,
      "chip": "ym2612"
    },
    {
      "channel": 2,
      "note": 61,
      "start": 194.3434,
      "duration": 0.1641,
      "velocity": 98,
      "chip": "ym2612"
    },
    {
      "channel": 3,
      "note": 68,
      "start": 194.3457,
      "duration": 0.0106,
      "velocity": 127,
      "chip": "ym2612"
    },
    {
      "channel": 4,
      "note": 58,
      "start": 194.3473,
      "duration": 0.1609,
      "velocity": 98,
      "chip": "ym2612"
    },
    {
      "channel": 5,
      "note": 73,
      "start": 194.349,
      "duration": 0.1594,
      "velocity": 119,
      "chip": "ym2612"
    },
    {
      "channel": 0,
      "note": 78,
      "start": 194.5423,
      "duration": 0.1669,
      "velocity": 122,
      "chip": "ym2612"
    },
    {
      "channel": 1,
      "note": 54,
      "start": 194.544,
      "duration": 0.1654,
      "velocity": 103,
      "chip": "ym2612"
    },
    {
      "channel": 2,
      "note": 66,
      "start": 194.5459,
      "duration": 0.1637,
      "velocity": 98,
      "chip": "ym2612"
    },
    {
      "channel": 3,
      "note": 76,
      "start": 194.5483,
      "duration": 0.0101,
      "velocity": 127,
      "chip": "ym2612"
    },
    {
      "channel": 4,
      "note": 61,
      "start": 194.5502,
      "duration": 0.1602,
      "velocity": 98,
      "chip": "ym2612"
    },
    {
      "channel": 5,
      "note": 78,
      "start": 194.552,
      "duration": 0.1587,
      "velocity": 119,
      "chip": "ym2612"
    },
    {
      "channel": 0,
      "note": 77,
      "start": 194.7444,
      "duration": 0.1671,
      "velocity": 122,
      "chip": "ym2612"
    },
    {
      "channel": 1,
      "note": 54,
      "start": 194.7461,
      "duration": 0.1656,
      "velocity": 103,
      "chip": "ym2612"
    },
    {
      "channel": 2,
      "note": 65,
      "start": 194.7478,
      "duration": 0.1641,
      "velocity": 98,
      "chip": "ym2612"
    },
    {
      "channel": 3,
      "note": 73,
      "start": 194.7502,
      "duration": 0.0105,
      "velocity": 127,
      "chip": "ym2612"
    },
    {
      "channel": 4,
      "note": 60,
      "start": 194.7519,
      "duration": 0.1608,
      "velocity": 98,
      "chip": "ym2612"
    },
    {
      "channel": 5,
      "note": 77,
      "start": 194.7535,
      "duration": 0.1594,
      "velocity": 119,
      "chip": "ym2612"
    },
    {
      "channel": 0,
      "note": 73,
      "start": 194.9466,
      "duration": 0.1671,
      "velocity": 122,
      "chip": "ym2612"
    },
    {
      "channel": 1,
      "note": 54,
      "start": 194.9483,
      "duration": 0.1656,
      "velocity": 103,
      "chip": "ym2612"
    },
    {
      "channel": 2,
      "note": 61,
      "start": 194.9501,
      "duration": 0.164,
      "velocity": 98,
      "chip": "ym2612"
    },
    {
      "channel": 3,
      "note": 68,
      "start": 194.9524,
      "duration": 0.0105,
      "velocity": 127,
      "chip": "ym2612"
    },
    {
      "channel": 4,
      "note": 58,
      "start": 194.9541,
      "duration": 0.1607,
      "velocity": 98,
      "chip": "ym2612"
    },
    {
      "channel": 5,
      "note": 73,
      "start": 194.9558,
      "duration": 0.1593,
      "velocity": 119,
      "chip": "ym2612"
    },
    {
      "channel": 0,
      "note": 78,
      "start": 195.149,
      "duration": 0.1669,
      "velocity": 122,
      "chip": "ym2612"
    },
    {
      "channel": 1,
      "note": 54,
      "start": 195.1508,
      "duration": 0.1654,
      "velocity": 103,
      "chip": "ym2612"
    },
    {
      "channel": 2,
      "note": 66,
      "start": 195.1527,
      "duration": 0.1637,
      "velocity": 98,
      "chip": "ym2612"
    },
    {
      "channel": 3,
      "note": 76,
      "start": 195.1551,
      "duration": 0.0101,
      "velocity": 127,
      "chip": "ym2612"
    },
    {
      "channel": 4,
      "note": 61,
      "start": 195.157,
      "duration": 0.1601,
      "velocity": 98,
      "chip": "ym2612"
    },
    {
      "channel": 5,
      "note": 78,
      "start": 195.1588,
      "duration": 0.1586,
      "velocity": 119,
      "chip": "ym2612"
    },
    {
      "channel": 0,
      "note": 77,
      "start": 195.3511,
      "duration": 0.1671,
      "velocity": 122,
      "chip": "ym2612"
    },
    {
      "channel": 1,
      "note": 54,
      "start": 195.3529,
      "duration": 0.1656,
      "velocity": 103,
      "chip": "ym2612"
    },
    {
      "channel": 2,
      "note": 65,
      "start": 195.3546,
      "duration": 0.164,
      "velocity": 98,
      "chip": "ym2612"
    },
    {
      "channel": 3,
      "note": 73,
      "start": 195.3569,
      "duration": 0.0105,
      "velocity": 127,
      "chip": "ym2612"
    },
    {
      "channel": 4,
      "note": 60,
      "start": 195.3586,
      "duration": 0.1608,
      "velocity": 98,
      "chip": "ym2612"
    },
    {
      "channel": 5,
      "note": 77,
      "start": 195.3602,
      "duration": 0.1594,
      "velocity": 119,
      "chip": "ym2612"
    },
    {
      "channel": 0,
      "note": 73,
      "start": 195.5534,
      "duration": 0.1671,
      "velocity": 122,
      "chip": "ym2612"
    },
    {
      "channel": 1,
      "note": 54,
      "start": 195.5551,
      "duration": 0.1656,
      "velocity": 103,
      "chip": "ym2612"
    },
    {
      "channel": 2,
      "note": 61,
      "start": 195.5569,
      "duration": 0.164,
      "velocity": 98,
      "chip": "ym2612"
    },
    {
      "channel": 3,
      "note": 68,
      "start": 195.5592,
      "duration": 0.0105,
      "velocity": 127,
      "chip": "ym2612"
    },
    {
      "channel": 4,
      "note": 58,
      "start": 195.5608,
      "duration": 0.1608,
      "velocity": 98,
      "chip": "ym2612"
    },
    {
      "channel": 5,
      "note": 73,
      "start": 195.5625,
      "duration": 0.1594,
      "velocity": 119,
      "chip": "ym2612"
    },
    {
      "channel": 0,
      "note": 78,
      "start": 195.7557,
      "duration": 0.167,
      "velocity": 122,
      "chip": "ym2612"
    },
    {
      "channel": 1,
      "note": 54,
      "start": 195.7575,
      "duration": 0.1654,
      "velocity": 103,
      "chip": "ym2612"
    },
    {
      "channel": 2,
      "note": 66,
      "start": 195.7594,
      "duration": 0.1637,
      "velocity": 98,
      "chip": "ym2612"
    },
    {
      "channel": 3,
      "note": 76,
      "start": 195.7618,
      "duration": 0.01,
      "velocity": 127,
      "chip": "ym2612"
    },
    {
      "channel": 4,
      "note": 61,
      "start": 195.7637,
      "duration": 0.1602,
      "velocity": 98,
      "chip": "ym2612"
    },
    {
      "channel": 5,
      "note": 78,
      "start": 195.7655,
      "duration": 0.1586,
      "velocity": 119,
      "chip": "ym2612"
    },
    {
      "channel": 0,
      "note": 77,
      "start": 195.9578,
      "duration": 0.1671,
      "velocity": 122,
      "chip": "ym2612"
    },
    {
      "channel": 1,
      "note": 54,
      "start": 195.9595,
      "duration": 0.1656,
      "velocity": 103,
      "chip": "ym2612"
    },
    {
      "channel": 2,
      "note": 65,
      "start": 195.9613,
      "duration": 0.1641,
      "velocity": 98,
      "chip": "ym2612"
    },
    {
      "channel": 3,
      "note": 73,
      "start": 195.9636,
      "duration": 0.0105,
      "velocity": 127,
      "chip": "ym2612"
    },
    {
      "channel": 4,
      "note": 60,
      "start": 195.9653,
      "duration": 0.1609,
      "velocity": 98,
      "chip": "ym2612"
    },
    {
      "channel": 5,
      "note": 77,
      "start": 195.9669,
      "duration": 0.1594,
      "velocity": 119,
      "chip": "ym2612"
    },
    {
      "channel": 0,
      "note": 73,
      "start": 196.16,
      "duration": 0.1671,
      "velocity": 122,
      "chip": "ym2612"
    },
    {
      "channel": 1,
      "note": 54,
      "start": 196.1618,
      "duration": 0.1655,
      "velocity": 103,
      "chip": "ym2612"
    },
    {
      "channel": 2,
      "note": 61,
      "start": 196.1636,
      "duration": 0.1641,
      "velocity": 98,
      "chip": "ym2612"
    },
    {
      "channel": 3,
      "note": 68,
      "start": 196.1659,
      "duration": 0.0105,
      "velocity": 127,
      "chip": "ym2612"
    },
    {
      "channel": 4,
      "note": 58,
      "start": 196.1675,
      "duration": 0.1609,
      "velocity": 98,
      "chip": "ym2612"
    },
    {
      "channel": 5,
      "note": 73,
      "start": 196.1692,
      "duration": 0.1594,
      "velocity": 119,
      "chip": "ym2612"
    },
    {
      "channel": 0,
      "note": 78,
      "start": 196.3634,
      "duration": 0.166,
      "velocity": 122,
      "chip": "ym2612"
    },
    {
      "channel": 1,
      "note": 54,
      "start": 196.3651,
      "duration": 0.1645,
      "velocity": 103,
      "chip": "ym2612"
    },
    {
      "channel": 2,
      "note": 66,
      "start": 196.367,
      "duration": 0.1629,
      "velocity": 98,
      "chip": "ym2612"
    },
    {
      "channel": 3,
      "note": 76,
      "start": 196.3694,
      "duration": 0.0092,
      "velocity": 127,
      "chip": "ym2612"
    },
    {
      "channel": 4,
      "note": 61,
      "start": 196.3712,
      "duration": 0.1594,
      "velocity": 98,
      "chip": "ym2612"
    },
    {
      "channel": 5,
      "note": 78,
      "start": 196.373,
      "duration": 0.1578,
      "velocity": 119,
      "chip": "ym2612"
    },
    {
      "channel": 0,
      "note": 77,
      "start": 196.5646,
      "duration": 0.1671,
      "velocity": 122,
      "chip": "ym2612"
    },
    {
      "channel": 1,
      "note": 54,
      "start": 196.5663,
      "duration": 0.1656,
      "velocity": 103,
      "chip": "ym2612"
    },
    {
      "channel": 2,
      "note": 65,
      "start": 196.5681,
      "duration": 0.164,
      "velocity": 98,
      "chip": "ym2612"
    },
    {
      "channel": 3,
      "note": 73,
      "start": 196.5704,
      "duration": 0.0105,
      "velocity": 127,
      "chip": "ym2612"
    },
    {
      "channel": 4,
      "note": 60,
      "start": 196.5721,
      "duration": 0.1607,
      "velocity": 98,
      "chip": "ym2612"
    },
    {
      "channel": 5,
      "note": 77,
      "start": 196.5737,
      "duration": 0.1593,
      "velocity": 119,
      "chip": "ym2612"
    },
    {
      "channel": 0,
      "note": 73,
      "start": 196.7673,
      "duration": 0.1666,
      "velocity": 122,
      "chip": "ym2612"
    },
    {
      "channel": 1,
      "note": 54,
      "start": 196.769,
      "duration": 0.1651,
      "velocity": 103,
      "chip": "ym2612"
    },
    {
      "channel": 2,
      "note": 61,
      "start": 196.7708,
      "duration": 0.1636,
      "velocity": 98,
      "chip": "ym2612"
    },
    {
      "channel": 3,
      "note": 68,
      "start": 196.7731,
      "duration": 0.01,
      "velocity": 127,
      "chip": "ym2612"
    },
    {
      "channel": 4,
      "note": 58,
      "start": 196.7748,
      "duration": 0.1604,
      "velocity": 98,
      "chip": "ym2612"
    },
    {
      "channel": 5,
      "note": 73,
      "start": 196.7765,
      "duration": 0.1589,
      "velocity": 119,
      "chip": "ym2612"
    },
    {
      "channel": 0,
      "note": 73,
      "start": 197.1715,
      "duration": 0.1669,
      "velocity": 122,
      "chip": "ym2612"
    },
    {
      "channel": 1,
      "note": 54,
      "start": 197.1732,
      "duration": 0.1655,
      "velocity": 103,
      "chip": "ym2612"
    },
    {
      "channel": 2,
      "note": 61,
      "start": 197.1749,
      "duration": 0.1639,
      "velocity": 98,
      "chip": "ym2612"
    },
    {
      "channel": 3,
      "note": 68,
      "start": 197.177,
      "duration": 0.0106,
      "velocity": 127,
      "chip": "ym2612"
    },
    {
      "channel": 4,
      "note": 58,
      "start": 197.1787,
      "duration": 0.1609,
      "velocity": 98,
      "chip": "ym2612"
    },
    {
      "channel": 5,
      "note": 73,
      "start": 197.1804,
      "duration": 0.1594,
      "velocity": 119,
      "chip": "ym2612"
    },
    {
      "channel": 0,
      "note": 73,
      "start": 197.5758,
      "duration": 0.168,
      "velocity": 122,
      "chip": "ym2612"
    },
    {
      "channel": 1,
      "note": 54,
      "start": 197.5774,
      "duration": 0.1665,
      "velocity": 103,
      "chip": "ym2612"
    },
    {
      "channel": 2,
      "note": 61,
      "start": 197.5792,
      "duration": 0.1649,
      "velocity": 98,
      "chip": "ym2612"
    },
    {
      "channel": 3,
      "note": 68,
      "start": 197.5812,
      "duration": 0.0108,
      "velocity": 127,
      "chip": "ym2612"
    },
    {
      "channel": 4,
      "note": 58,
      "start": 197.5829,
      "duration": 0.162,
      "velocity": 98,
      "chip": "ym2612"
    },
    {
      "channel": 5,
      "note": 73,
      "start": 197.5847,
      "duration": 0.1604,
      "velocity": 119,
      "chip": "ym2612"
    },
    {
      "channel": 0,
      "note": 73,
      "start": 197.9803,
      "duration": 0.1676,
      "velocity": 122,
      "chip": "ym2612"
    },
    {
      "channel": 1,
      "note": 54,
      "start": 197.9819,
      "duration": 0.1661,
      "velocity": 103,
      "chip": "ym2612"
    },
    {
      "channel": 2,
      "note": 61,
      "start": 197.9837,
      "duration": 0.1646,
      "velocity": 98,
      "chip": "ym2612"
    },
    {
      "channel": 3,
      "note": 68,
      "start": 197.9858,
      "duration": 0.0108,
      "velocity": 127,
      "chip": "ym2612"
    },
    {
      "channel": 4,
      "note": 58,
      "start": 197.9875,
      "duration": 0.1615,
      "velocity": 98,
      "chip": "ym2612"
    },
    {
      "channel": 5,
      "note": 73,
      "start": 197.9892,
      "duration": 0.1601,
      "velocity": 119,
      "chip": "ym2612"
    },
    {
      "channel": 0,
      "note": 61,
      "start": 198.7895,
      "duration": 3.2342,
      "velocity": 122,
      "chip": "ym2612"
    },
    {
      "channel": 1,
      "note": 49,
      "start": 198.7915,
      "duration": 0.1817,
      "velocity": 103,
      "chip": "ym2612"
    },
    {
      "channel": 2,
      "note": 61,
      "start": 198.7933,
      "duration": 3.2308,
      "velocity": 98,
      "chip": "ym2612"
    },
    {
      "channel": 3,
      "note": 64,
      "start": 198.7988,
      "duration": 0.0236,
      "velocity": 127,
      "chip": "ym2612"
    },
    {
      "channel": 4,
      "note": 56,
      "start": 198.8005,
      "duration": 3.2243,
      "velocity": 98,
      "chip": "ym2612"
    },
    {
      "channel": 5,
      "note": 61,
      "start": 198.8025,
      "duration": 3.2225,
      "velocity": 119,
      "chip": "ym2612"
    },
    {
      "channel": 1,
      "note": 49,
      "start": 199.0085,
      "duration": 0.167,
      "velocity": 103,
      "chip": "ym2612"
    },
    {
      "channel": 1,
      "note": 49,
      "start": 199.2107,
      "duration": 0.167,
      "velocity": 103,
      "chip": "ym2612"
    },
    {
      "channel": 3,
      "note": 64,
      "start": 199.2161,
      "duration": 0.0107,
      "velocity": 127,
      "chip": "ym2612"
    },
    {
      "channel": 1,
      "note": 49,
      "start": 199.4136,
      "duration": 0.1664,
      "velocity": 103,
      "chip": "ym2612"
    },
    {
      "channel": 1,
      "note": 49,
      "start": 199.6153,
      "duration": 0.167,
      "velocity": 103,
      "chip": "ym2612"
    },
    {
      "channel": 3,
      "note": 64,
      "start": 199.6208,
      "duration": 0.0105,
      "velocity": 127,
      "chip": "ym2612"
    },
    {
      "channel": 1,
      "note": 49,
      "start": 199.8178,
      "duration": 0.1667,
      "velocity": 103,
      "chip": "ym2612"
    },
    {
      "channel": 1,
      "note": 49,
      "start": 200.0198,
      "duration": 0.1669,
      "velocity": 103,
      "chip": "ym2612"
    },
    {
      "channel": 3,
      "note": 64,
      "start": 200.0251,
      "duration": 0.0107,
      "velocity": 127,
      "chip": "ym2612"
    },
    {
      "channel": 1,
      "note": 49,
      "start": 200.222,
      "duration": 0.168,
      "velocity": 103,
      "chip": "ym2612"
    },
    {
      "channel": 1,
      "note": 49,
      "start": 200.4256,
      "duration": 0.1824,
      "velocity": 103,
      "chip": "ym2612"
    },
    {
      "channel": 3,
      "note": 64,
      "start": 200.4327,
      "duration": 0.0254,
      "velocity": 127,
      "chip": "ym2612"
    },
    {
      "channel": 1,
      "note": 49,
      "start": 200.6433,
      "duration": 0.167,
      "velocity": 103,
      "chip": "ym2612"
    },
    {
      "channel": 1,
      "note": 49,
      "start": 200.8456,
      "duration": 0.167,
      "velocity": 103,
      "chip": "ym2612"
    },
    {
      "channel": 3,
      "note": 64,
      "start": 200.851,
      "duration": 0.0107,
      "velocity": 127,
      "chip": "ym2612"
    },
    {
      "channel": 1,
      "note": 49,
      "start": 201.0478,
      "duration": 0.167,
      "velocity": 103,
      "chip": "ym2612"
    },
    {
      "channel": 1,
      "note": 49,
      "start": 201.2501,
      "duration": 0.167,
      "velocity": 103,
      "chip": "ym2612"
    },
    {
      "channel": 3,
      "note": 64,
      "start": 201.2556,
      "duration": 0.0105,
      "velocity": 127,
      "chip": "ym2612"
    },
    {
      "channel": 1,
      "note": 49,
      "start": 201.4524,
      "duration": 0.1669,
      "velocity": 103,
      "chip": "ym2612"
    },
    {
      "channel": 1,
      "note": 49,
      "start": 201.6545,
      "duration": 0.167,
      "velocity": 103,
      "chip": "ym2612"
    },
    {
      "channel": 3,
      "note": 64,
      "start": 201.6599,
      "duration": 0.0107,
      "velocity": 127,
      "chip": "ym2612"
    },
    {
      "channel": 1,
      "note": 49,
      "start": 201.8568,
      "duration": 0.1671,
      "velocity": 103,
      "chip": "ym2612"
    },
    {
      "channel": 0,
      "note": 73,
      "start": 202.0599,
      "duration": 0.9919,
      "velocity": 122,
      "chip": "ym2612"
    },
    {
      "channel": 1,
      "note": 49,
      "start": 202.062,
      "duration": 0.1809,
      "velocity": 103,
      "chip": "ym2612"
    },
    {
      "channel": 2,
      "note": 77,
      "start": 202.0674,
      "duration": 0.9847,
      "velocity": 109,
      "chip": "ym2612"
    },
    {
      "channel": 3,
      "note": 64,
      "start": 202.0733,
      "duration": 0.0186,
      "velocity": 127,
      "chip": "ym2612"
    },
    {
      "channel": 4,
      "note": 77,
      "start": 202.0787,
      "duration": 0.9742,
      "velocity": 109,
      "chip": "ym2612"
    },
    {
      "channel": 5,
      "note": 73,
      "start": 202.0807,
      "duration": 0.9725,
      "velocity": 119,
      "chip": "ym2612"
    },
    {
      "channel": 1,
      "note": 49,
      "start": 202.2781,
      "duration": 0.167,
      "velocity": 103,
      "chip": "ym2612"
    },
    {
      "channel": 1,
      "note": 49,
      "start": 202.4803,
      "duration": 0.167,
      "velocity": 103,
      "chip": "ym2612"
    },
    {
      "channel": 3,
      "note": 64,
      "start": 202.4857,
      "duration": 0.0108,
      "velocity": 127,
      "chip": "ym2612"
    },
    {
      "channel": 1,
      "note": 49,
      "start": 202.6826,
      "duration": 0.167,
      "velocity": 103,
      "chip": "ym2612"
    },
    {
      "channel": 1,
      "note": 49,
      "start": 202.8848,
      "duration": 0.1671,
      "velocity": 103,
      "chip": "ym2612"
    },
    {
      "channel": 3,
      "note": 64,
      "start": 202.8904,
      "duration": 0.0105,
      "velocity": 127,
      "chip": "ym2612"
    },
    {
      "channel": 0,
      "note": 75,
      "start": 203.0869,
      "duration": 0.1671,
      "velocity": 122,
      "chip": "ym2612"
    },
    {
      "channel": 1,
      "note": 49,
      "start": 203.0887,
      "duration": 0.1655,
      "velocity": 103,
      "chip": "ym2612"
    },
    {
      "channel": 2,
      "note": 78,
      "start": 203.0905,
      "duration": 0.1639,
      "velocity": 109,
      "chip": "ym2612"
    },
    {
      "channel": 4,
      "note": 78,
      "start": 203.0927,
      "duration": 0.1624,
      "velocity": 109,
      "chip": "ym2612"
    },
    {
      "channel": 5,
      "note": 75,
      "start": 203.0944,
      "duration": 0.161,
      "velocity": 119,
      "chip": "ym2612"
    },
    {
      "channel": 0,
      "note": 73,
      "start": 203.2891,
      "duration": 0.1671,
      "velocity": 122,
      "chip": "ym2612"
    },
    {
      "channel": 1,
      "note": 49,
      "start": 203.2908,
      "duration": 0.1655,
      "velocity": 103,
      "chip": "ym2612"
    },
    {
      "channel": 2,
      "note": 77,
      "start": 203.2926,
      "duration": 0.1641,
      "velocity": 109,
      "chip": "ym2612"
    },
    {
      "channel": 3,
      "note": 64,
      "start": 203.2978,
      "duration": 0.0076,
      "velocity": 127,
      "chip": "ym2612"
    },
    {
      "channel": 4,
      "note": 77,
      "start": 203.2995,
      "duration": 0.1579,
      "velocity": 109,
      "chip": "ym2612"
    },
    {
      "channel": 5,
      "note": 73,
      "start": 203.3012,
      "duration": 0.1565,
      "velocity": 119,
      "chip": "ym2612"
    },
    {
      "channel": 0,
      "note": 72,
      "start": 203.4914,
      "duration": 1.1782,
      "velocity": 122,
      "chip": "ym2612"
    },
    {
      "channel": 1,
      "note": 49,
      "start": 203.4931,
      "duration": 0.1654,
      "velocity": 103,
      "chip": "ym2612"
    },
    {
      "channel": 2,
      "note": 75,
      "start": 203.4949,
      "duration": 1.1752,
      "velocity": 109,
      "chip": "ym2612"
    },
    {
      "channel": 4,
      "note": 75,
      "start": 203.4971,
      "duration": 1.1737,
      "velocity": 109,
      "chip": "ym2612"
    },
    {
      "channel": 5,
      "note": 72,
      "start": 203.4989,
      "duration": 1.1722,
      "velocity": 119,
      "chip": "ym2612"
    },
    {
      "channel": 1,
      "note": 49,
      "start": 203.6938,
      "duration": 0.167,
      "velocity": 103,
      "chip": "ym2612"
    },
    {
      "channel": 3,
      "note": 64,
      "start": 203.6993,
      "duration": 0.0106,
      "velocity": 127,
      "chip": "ym2612"
    },
    {
      "channel": 1,
      "note": 49,
      "start": 203.896,
      "duration": 0.167,
      "velocity": 103,
      "chip": "ym2612"
    },
    {
      "channel": 1,
      "note": 49,
      "start": 204.0983,
      "duration": 0.167,
      "velocity": 103,
      "chip": "ym2612"
    },
    {
      "channel": 3,
      "note": 64,
      "start": 204.1036,
      "duration": 0.0107,
      "velocity": 127,
      "chip": "ym2612"
    },
    {
      "channel": 1,
      "note": 49,
      "start": 204.3005,
      "duration": 0.1671,
      "velocity": 103,
      "chip": "ym2612"
    },
    {
      "channel": 1,
      "note": 49,
      "start": 204.5027,
      "duration": 0.1671,
      "velocity": 103,
      "chip": "ym2612"
    },
    {
      "channel": 3,
      "note": 64,
      "start": 204.5083,
      "duration": 0.0105,
      "velocity": 127,
      "chip": "ym2612"
    },
    {
      "channel": 0,
      "note": 73,
      "start": 204.7057,
      "duration": 0.1662,
      "velocity": 122,
      "chip": "ym2612"
    },
    {
      "channel": 1,
      "note": 49,
      "start": 204.7074,
      "duration": 0.1646,
      "velocity": 103,
      "chip": "ym2612"
    },
    {
      "channel": 2,
      "note": 77,
      "start": 204.7092,
      "duration": 0.1631,
      "velocity": 109,
      "chip": "ym2612"
    },
    {
      "channel": 4,
      "note": 77,
      "start": 204.7115,
      "duration": 0.1617,
      "velocity": 109,
      "chip": "ym2612"
    },
    {
      "channel": 5,
      "note": 73,
      "start": 204.7132,
      "duration": 0.1601,
      "velocity": 119,
      "chip": "ym2612"
    },
    {
      "channel": 0,
      "note": 72,
      "start": 204.907,
      "duration": 0.1671,
      "velocity": 122,
      "chip": "ym2612"
    },
    {
      "channel": 1,
      "note": 49,
      "start": 204.9087,
      "duration": 0.1656,
      "velocity": 103,
      "chip": "ym2612"
    },
    {
      "channel": 2,
      "note": 75,
      "start": 204.9105,
      "duration": 0.1641,
      "velocity": 109,
      "chip": "ym2612"
    },
    {
      "channel": 3,
      "note": 64,
      "start": 204.9157,
      "duration": 0.0076,
      "velocity": 127,
      "chip": "ym2612"
    },
    {
      "channel": 4,
      "note": 75,
      "start": 204.9174,
      "duration": 0.158,
      "velocity": 109,
      "chip": "ym2612"
    },
    {
      "channel": 5,
      "note": 72,
      "start": 204.919,
      "duration": 0.1566,
      "velocity": 119,
      "chip": "ym2612"
    },
    {
      "channel": 0,
      "note": 70,
      "start": 205.1098,
      "duration": 1.7846,
      "velocity": 122,
      "chip": "ym2612"
    },
    {
      "channel": 1,
      "note": 49,
      "start": 205.1115,
      "duration": 0.1649,
      "velocity": 103,
      "chip": "ym2612"
    },
    {
      "channel": 2,
      "note": 73,
      "start": 205.1133,
      "duration": 1.5791,
      "velocity": 109,
      "chip": "ym2612"
    },
    {
      "channel": 4,
      "note": 73,
      "start": 205.1156,
      "duration": 1.5775,
      "velocity": 109,
      "chip": "ym2612"
    },
    {
      "channel": 5,
      "note": 70,
      "start": 205.1173,
      "duration": 1.7785,
      "velocity": 119,
      "chip": "ym2612"
    },
    {
      "channel": 1,
      "note": 49,
      "start": 205.3136,
      "duration": 0.1651,
      "velocity": 103,
      "chip": "ym2612"
    },
    {
      "channel": 3,
      "note": 64,
      "start": 205.3196,
      "duration": 0.0087,
      "velocity": 127,
      "chip": "ym2612"
    },
    {
      "channel": 1,
      "note": 49,
      "start": 205.5141,
      "duration": 0.1669,
      "velocity": 103,
      "chip": "ym2612"
    },
    {
      "channel": 1,
      "note": 49,
      "start": 205.7162,
      "duration": 0.167,
      "velocity": 103,
      "chip": "ym2612"
    },
    {
      "channel": 3,
      "note": 64,
      "start": 205.7216,
      "duration": 0.0107,
      "velocity": 127,
      "chip": "ym2612"
    },
    {
      "channel": 1,
      "note": 49,
      "start": 205.9185,
      "duration": 0.1678,
      "velocity": 103,
      "chip": "ym2612"
    },
    {
      "channel": 1,
      "note": 49,
      "start": 206.1207,
      "duration": 0.1669,
      "velocity": 103,
      "chip": "ym2612"
    },
    {
      "channel": 3,
      "note": 64,
      "start": 206.1263,
      "duration": 0.0106,
      "velocity": 127,
      "chip": "ym2612"
    },
    {
      "channel": 1,
      "note": 49,
      "start": 206.3229,
      "duration": 0.1675,
      "velocity": 103,
      "chip": "ym2612"
    },
    {
      "channel": 1,
      "note": 49,
      "start": 206.5252,
      "duration": 0.167,
      "velocity": 103,
      "chip": "ym2612"
    },
    {
      "channel": 3,
      "note": 64,
      "start": 206.5305,
      "duration": 0.0107,
      "velocity": 127,
      "chip": "ym2612"
    },
    {
      "channel": 1,
      "note": 49,
      "start": 206.7274,
      "duration": 0.1671,
      "velocity": 103,
      "chip": "ym2612"
    },
    {
      "channel": 2,
      "note": 73,
      "start": 206.7292,
      "duration": 0.1656,
      "velocity": 109,
      "chip": "ym2612"
    },
    {
      "channel": 4,
      "note": 73,
      "start": 206.7314,
      "duration": 0.1641,
      "velocity": 109,
      "chip": "ym2612"
    },
    {
      "channel": 0,
      "note": 66,
      "start": 206.9295,
      "duration": 0.1671,
      "velocity": 122,
      "chip": "ym2612"
    },
    {
      "channel": 1,
      "note": 49,
      "start": 206.9312,
      "duration": 0.1656,
      "velocity": 103,
      "chip": "ym2612"
    },
    {
      "channel": 2,
      "note": 78,
      "start": 206.9329,
      "duration": 0.164,
      "velocity": 109,
      "chip": "ym2612"
    },
    {
      "channel": 3,
      "note": 64,
      "start": 206.9384,
      "duration": 0.0074,
      "velocity": 127,
      "chip": "ym2612"
    },
    {
      "channel": 4,
      "note": 78,
      "start": 206.9401,
      "duration": 0.1576,
      "velocity": 109,
      "chip": "ym2612"
    },
    {
      "channel": 5,
      "note": 66,
      "start": 206.9417,
      "duration": 0.1562,
      "velocity": 119,
      "chip": "ym2612"
    },
    {
      "channel": 0,
      "note": 66,
      "start": 207.1317,
      "duration": 0.0154,
      "velocity": 122,
      "chip": "ym2612"
    },
    {
      "channel": 1,
      "note": 49,
      "start": 207.1335,
      "duration": 0.1654,
      "velocity": 103,
      "chip": "ym2612"
    },
    {
      "channel": 2,
      "note": 77,
      "start": 207.1352,
      "duration": 0.1639,
      "velocity": 109,
      "chip": "ym2612"
    },
    {
      "channel": 4,
      "note": 77,
      "start": 207.1375,
      "duration": 0.1624,
      "velocity": 109,
      "chip": "ym2612"
    },
    {
      "channel": 5,
      "note": 66,
      "start": 207.1391,
      "duration": 0.0091,
      "velocity": 119,
      "chip": "ym2612"
    },
    {
      "channel": 0,
      "note": 66,
      "start": 207.3339,
      "duration": 0.0154,
      "velocity": 122,
      "chip": "ym2612"
    },
    {
      "channel": 1,
      "note": 49,
      "start": 207.3357,
      "duration": 0.1654,
      "velocity": 103,
      "chip": "ym2612"
    },
    {
      "channel": 2,
      "note": 73,
      "start": 207.3375,
      "duration": 0.1638,
      "velocity": 109,
      "chip": "ym2612"
    },
    {
      "channel": 3,
      "note": 64,
      "start": 207.3427,
      "duration": 0.0076,
      "velocity": 127,
      "chip": "ym2612"
    },
    {
      "channel": 4,
      "note": 73,
      "start": 207.3444,
      "duration": 0.1577,
      "velocity": 109,
      "chip": "ym2612"
    },
    {
      "channel": 5,
      "note": 66,
      "start": 207.3461,
      "duration": 0.0046,
      "velocity": 119,
      "chip": "ym2612"
    },
    {
      "channel": 0,
      "note": 68,
      "start": 207.5362,
      "duration": 0.3693,
      "velocity": 122,
      "chip": "ym2612"
    },
    {
      "channel": 1,
      "note": 49,
      "start": 207.538,
      "duration": 0.1654,
      "velocity": 103,
      "chip": "ym2612"
    },
    {
      "channel": 2,
      "note": 73,
      "start": 207.5398,
      "duration": 0.3662,
      "velocity": 109,
      "chip": "ym2612"
    },
    {
      "channel": 4,
      "note": 73,
      "start": 207.542,
      "duration": 0.3647,
      "velocity": 109,
      "chip": "ym2612"
    },
    {
      "channel": 5,
      "note": 68,
      "start": 207.5437,
      "duration": 0.3633,
      "velocity": 119,
      "chip": "ym2612"
    },
    {
      "channel": 1,
      "note": 49,
      "start": 207.7386,
      "duration": 0.1671,
      "velocity": 103,
      "chip": "ym2612"
    },
    {
      "channel": 3,
      "note": 64,
      "start": 207.7441,
      "duration": 0.0112,
      "velocity": 127,
      "chip": "ym2612"
    },
    {
      "channel": 0,
      "note": 68,
      "start": 207.9407,
      "duration": 0.0154,
      "velocity": 122,
      "chip": "ym2612"
    },
    {
      "channel": 1,
      "note": 49,
      "start": 207.9424,
      "duration": 0.1654,
      "velocity": 103,
      "chip": "ym2612"
    },
    {
      "channel": 2,
      "note": 73,
      "start": 207.9442,
      "duration": 0.1639,
      "velocity": 109,
      "chip": "ym2612"
    },
    {
      "channel": 4,
      "note": 73,
      "start": 207.9464,
      "duration": 0.1624,
      "velocity": 109,
      "chip": "ym2612"
    },
    {
      "channel": 5,
      "note": 68,
      "start": 207.9481,
      "duration": 0.0091,
      "velocity": 119,
      "chip": "ym2612"
    },
    {
      "channel": 0,
      "note": 72,
      "start": 208.1429,
      "duration": 0.3693,
      "velocity": 122,
      "chip": "ym2612"
    },
    {
      "channel": 1,
      "note": 49,
      "start": 208.1447,
      "duration": 0.1654,
      "velocity": 103,
      "chip": "ym2612"
    },
    {
      "channel": 2,
      "note": 75,
      "start": 208.1464,
      "duration": 0.3662,
      "velocity": 109,
      "chip": "ym2612"
    },
    {
      "channel": 3,
      "note": 64,
      "start": 208.1517,
      "duration": 0.0075,
      "velocity": 127,
      "chip": "ym2612"
    },
    {
      "channel": 4,
      "note": 75,
      "start": 208.1534,
      "duration": 0.36,
      "velocity": 109,
      "chip": "ym2612"
    },
    {
      "channel": 5,
      "note": 72,
      "start": 208.1551,
      "duration": 0.3586,
      "velocity": 119,
      "chip": "ym2612"
    },
    {
      "channel": 1,
      "note": 49,
      "start": 208.3454,
      "duration": 0.1671,
      "velocity": 103,
      "chip": "ym2612"
    },
    {
      "channel": 0,
      "note": 73,
      "start": 208.5476,
      "duration": 0.9928,
      "velocity": 122,
      "chip": "ym2612"
    },
    {
      "channel": 1,
      "note": 49,
      "start": 208.5498,
      "duration": 0.1824,
      "velocity": 103,
      "chip": "ym2612"
    },
    {
      "channel": 2,
      "note": 77,
      "start": 208.5519,
      "duration": 0.989,
      "velocity": 109,
      "chip": "ym2612"
    },
    {
      "channel": 3,
      "note": 64,
      "start": 208.5578,
      "duration": 0.0228,
      "velocity": 127,
      "chip": "ym2612"
    },
    {
      "channel": 4,
      "note": 77,
      "start": 208.5597,
      "duration": 0.982,
      "velocity": 109,
      "chip": "ym2612"
    },
    {
      "channel": 5,
      "note": 73,
      "start": 208.5617,
      "duration": 0.9802,
      "velocity": 119,
      "chip": "ym2612"
    },
    {
      "channel": 1,
      "note": 49,
      "start": 208.7667,
      "duration": 0.167,
      "velocity": 103,
      "chip": "ym2612"
    },
    {
      "channel": 1,
      "note": 49,
      "start": 208.969,
      "duration": 0.1675,
      "velocity": 103,
      "chip": "ym2612"
    },
    {
      "channel": 3,
      "note": 64,
      "start": 208.9744,
      "duration": 0.0107,
      "velocity": 127,
      "chip": "ym2612"
    },
    {
      "channel": 1,
      "note": 49,
      "start": 209.1712,
      "duration": 0.167,
      "velocity": 103,
      "chip": "ym2612"
    },
    {
      "channel": 1,
      "note": 49,
      "start": 209.3734,
      "duration": 0.1672,
      "velocity": 103,
      "chip": "ym2612"
    },
    {
      "channel": 3,
      "note": 64,
      "start": 209.379,
      "duration": 0.0105,
      "velocity": 127,
      "chip": "ym2612"
    },
    {
      "channel": 0,
      "note": 75,
      "start": 209.5754,
      "duration": 0.1671,
      "velocity": 122,
      "chip": "ym2612"
    },
    {
      "channel": 1,
      "note": 49,
      "start": 209.5772,
      "duration": 0.1656,
      "velocity": 103,
      "chip": "ym2612"
    },
    {
      "channel": 2,
      "note": 78,
      "start": 209.579,
      "duration": 0.164,
      "velocity": 109,
      "chip": "ym2612"
    },
    {
      "channel": 4,
      "note": 78,
      "start": 209.5812,
      "duration": 0.1625,
      "velocity": 109,
      "chip": "ym2612"
    },
    {
      "channel": 5,
      "note": 75,
      "start": 209.5829,
      "duration": 0.1611,
      "velocity": 119,
      "chip": "ym2612"
    },
    {
      "channel": 0,
      "note": 73,
      "start": 209.7777,
      "duration": 0.1671,
      "velocity": 122,
      "chip": "ym2612"
    },
    {
      "channel": 1,
      "note": 49,
      "start": 209.7794,
      "duration": 0.1656,
      "velocity": 103,
      "chip": "ym2612"
    },
    {
      "channel": 2,
      "note": 77,
      "start": 209.7812,
      "duration": 0.1641,
      "velocity": 109,
      "chip": "ym2612"
    },
    {
      "channel": 3,
      "note": 64,
      "start": 209.7864,
      "duration": 0.0076,
      "velocity": 127,
      "chip": "ym2612"
    },
    {
      "channel": 4,
      "note": 77,
      "start": 209.7881,
      "duration": 0.1578,
      "velocity": 109,
      "chip": "ym2612"
    },
    {
      "channel": 5,
      "note": 73,
      "start": 209.7898,
      "duration": 0.1564,
      "velocity": 119,
      "chip": "ym2612"
    },
    {
      "channel": 0,
      "note": 72,
      "start": 209.9799,
      "duration": 1.1783,
      "velocity": 122,
      "chip": "ym2612"
    },
    {
      "channel": 1,
      "note": 49,
      "start": 209.9817,
      "duration": 0.1655,
      "velocity": 103,
      "chip": "ym2612"
    },
    {
      "channel": 2,
      "note": 75,
      "start": 209.9835,
      "duration": 1.1752,
      "velocity": 109,
      "chip": "ym2612"
    },
    {
      "channel": 4,
      "note": 75,
      "start": 209.9857,
      "duration": 1.1737,
      "velocity": 109,
      "chip": "ym2612"
    },
    {
      "channel": 5,
      "note": 72,
      "start": 209.9874,
      "duration": 1.1722,
      "velocity": 119,
      "chip": "ym2612"
    },
    {
      "channel": 1,
      "note": 49,
      "start": 210.1824,
      "duration": 0.167,
      "velocity": 103,
      "chip": "ym2612"
    },
    {
      "channel": 3,
      "note": 64,
      "start": 210.188,
      "duration": 0.0105,
      "velocity": 127,
      "chip": "ym2612"
    },
    {
      "channel": 1,
      "note": 49,
      "start": 210.3846,
      "duration": 0.167,
      "velocity": 103,
      "chip": "ym2612"
    },
    {
      "channel": 1,
      "note": 49,
      "start": 210.5869,
      "duration": 0.1669,
      "velocity": 103,
      "chip": "ym2612"
    },
    {
      "channel": 3,
      "note": 64,
      "start": 210.5922,
      "duration": 0.0107,
      "velocity": 127,
      "chip": "ym2612"
    },
    {
      "channel": 1,
      "note": 49,
      "start": 210.7891,
      "duration": 0.167,
      "velocity": 103,
      "chip": "ym2612"
    },
    {
      "channel": 1,
      "note": 49,
      "start": 210.9914,
      "duration": 0.1671,
      "velocity": 103,
      "chip": "ym2612"
    },
    {
      "channel": 3,
      "note": 64,
      "start": 210.9969,
      "duration": 0.0105,
      "velocity": 127,
      "chip": "ym2612"
    },
    {
      "channel": 0,
      "note": 73,
      "start": 211.1934,
      "duration": 0.1671,
      "velocity": 122,
      "chip": "ym2612"
    },
    {
      "channel": 1,
      "note": 49,
      "start": 211.1952,
      "duration": 0.1655,
      "velocity": 103,
      "chip": "ym2612"
    },
    {
      "channel": 2,
      "note": 77,
      "start": 211.197,
      "duration": 0.1639,
      "velocity": 109,
      "chip": "ym2612"
    },
    {
      "channel": 4,
      "note": 77,
      "start": 211.1992,
      "duration": 0.1625,
      "velocity": 109,
      "chip": "ym2612"
    },
    {
      "channel": 5,
      "note": 73,
      "start": 211.2009,
      "duration": 0.161,
      "velocity": 119,
      "chip": "ym2612"
    },
    {
      "channel": 0,
      "note": 72,
      "start": 211.3956,
      "duration": 0.1672,
      "velocity": 122,
      "chip": "ym2612"
    },
    {
      "channel": 1,
      "note": 49,
      "start": 211.3973,
      "duration": 0.1656,
      "velocity": 103,
      "chip": "ym2612"
    },
    {
      "channel": 2,
      "note": 75,
      "start": 211.399,
      "duration": 0.1641,
      "velocity": 109,
      "chip": "ym2612"
    },
    {
      "channel": 3,
      "note": 64,
      "start": 211.4043,
      "duration": 0.0076,
      "velocity": 127,
      "chip": "ym2612"
    },
    {
      "channel": 4,
      "note": 75,
      "start": 211.4061,
      "duration": 0.1579,
      "velocity": 109,
      "chip": "ym2612"
    },
    {
      "channel": 5,
      "note": 72,
      "start": 211.4077,
      "duration": 0.1564,
      "velocity": 119,
      "chip": "ym2612"
    },
    {
      "channel": 0,
      "note": 70,
      "start": 211.5978,
      "duration": 1.7851,
      "velocity": 122,
      "chip": "ym2612"
    },
    {
      "channel": 1,
      "note": 49,
      "start": 211.5996,
      "duration": 0.1654,
      "velocity": 103,
      "chip": "ym2612"
    },
    {
      "channel": 2,
      "note": 73,
      "start": 211.6014,
      "duration": 1.5796,
      "velocity": 109,
      "chip": "ym2612"
    },
    {
      "channel": 4,
      "note": 73,
      "start": 211.6037,
      "duration": 1.578,
      "velocity": 109,
      "chip": "ym2612"
    },
    {
      "channel": 5,
      "note": 70,
      "start": 211.6054,
      "duration": 1.779,
      "velocity": 119,
      "chip": "ym2612"
    },
    {
      "channel": 1,
      "note": 49,
      "start": 211.8022,
      "duration": 0.1651,
      "velocity": 103,
      "chip": "ym2612"
    },
    {
      "channel": 3,
      "note": 64,
      "start": 211.8082,
      "duration": 0.0087,
      "velocity": 127,
      "chip": "ym2612"
    },
    {
      "channel": 1,
      "note": 49,
      "start": 212.0025,
      "duration": 0.167,
      "velocity": 103,
      "chip": "ym2612"
    },
    {
      "channel": 1,
      "note": 49,
      "start": 212.2048,
      "duration": 0.1669,
      "velocity": 103,
      "chip": "ym2612"
    },
    {
      "channel": 3,
      "note": 64,
      "start": 212.2102,
      "duration": 0.0107,
      "velocity": 127,
      "chip": "ym2612"
    },
    {
      "channel": 1,
      "note": 49,
      "start": 212.407,
      "duration": 0.167,
      "velocity": 103,
      "chip": "ym2612"
    },
    {
      "channel": 1,
      "note": 49,
      "start": 212.6093,
      "duration": 0.167,
      "velocity": 103,
      "chip": "ym2612"
    },
    {
      "channel": 3,
      "note": 64,
      "start": 212.6148,
      "duration": 0.0105,
      "velocity": 127,
      "chip": "ym2612"
    },
    {
      "channel": 1,
      "note": 49,
      "start": 212.8115,
      "duration": 0.167,
      "velocity": 103,
      "chip": "ym2612"
    },
    {
      "channel": 1,
      "note": 49,
      "start": 213.0137,
      "duration": 0.167,
      "velocity": 103,
      "chip": "ym2612"
    },
    {
      "channel": 3,
      "note": 64,
      "start": 213.0191,
      "duration": 0.0107,
      "velocity": 127,
      "chip": "ym2612"
    },
    {
      "channel": 1,
      "note": 49,
      "start": 213.216,
      "duration": 0.1671,
      "velocity": 103,
      "chip": "ym2612"
    },
    {
      "channel": 2,
      "note": 73,
      "start": 213.2178,
      "duration": 0.1656,
      "velocity": 109,
      "chip": "ym2612"
    },
    {
      "channel": 4,
      "note": 73,
      "start": 213.22,
      "duration": 0.1641,
      "velocity": 109,
      "chip": "ym2612"
    },
    {
      "channel": 0,
      "note": 66,
      "start": 213.418,
      "duration": 0.1671,
      "velocity": 122,
      "chip": "ym2612"
    },
    {
      "channel": 1,
      "note": 49,
      "start": 213.4198,
      "duration": 0.1655,
      "velocity": 103,
      "chip": "ym2612"
    },
    {
      "channel": 2,
      "note": 78,
      "start": 213.4216,
      "duration": 0.164,
      "velocity": 109,
      "chip": "ym2612"
    },
    {
      "channel": 3,
      "note": 64,
      "start": 213.427,
      "duration": 0.0073,
      "velocity": 127,
      "chip": "ym2612"
    },
    {
      "channel": 4,
      "note": 78,
      "start": 213.4286,
      "duration": 0.1577,
      "velocity": 109,
      "chip": "ym2612"
    },
    {
      "channel": 5,
      "note": 66,
      "start": 213.4303,
      "duration": 0.1562,
      "velocity": 119,
      "chip": "ym2612"
    },
    {
      "channel": 0,
      "note": 66,
      "start": 213.6203,
      "duration": 0.0154,
      "velocity": 122,
      "chip": "ym2612"
    },
    {
      "channel": 1,
      "note": 49,
      "start": 213.6221,
      "duration": 0.1654,
      "velocity": 103,
      "chip": "ym2612"
    },
    {
      "channel": 2,
      "note": 77,
      "start": 213.6238,
      "duration": 0.1639,
      "velocity": 109,
      "chip": "ym2612"
    },
    {
      "channel": 4,
      "note": 77,
      "start": 213.626,
      "duration": 0.1624,
      "velocity": 109,
      "chip": "ym2612"
    },
    {
      "channel": 5,
      "note": 66,
      "start": 213.6277,
      "duration": 0.0092,
      "velocity": 119,
      "chip": "ym2612"
    },
    {
      "channel": 0,
      "note": 66,
      "start": 213.8225,
      "duration": 0.0154,
      "velocity": 122,
      "chip": "ym2612"
    },
    {
      "channel": 1,
      "note": 49,
      "start": 213.8242,
      "duration": 0.1655,
      "velocity": 103,
      "chip": "ym2612"
    },
    {
      "channel": 2,
      "note": 73,
      "start": 213.826,
      "duration": 0.1639,
      "velocity": 109,
      "chip": "ym2612"
    },
    {
      "channel": 3,
      "note": 64,
      "start": 213.8312,
      "duration": 0.0076,
      "velocity": 127,
      "chip": "ym2612"
    },
    {
      "channel": 4,
      "note": 73,
      "start": 213.8329,
      "duration": 0.1578,
      "velocity": 109,
      "chip": "ym2612"
    },
    {
      "channel": 5,
      "note": 66,
      "start": 213.8346,
      "duration": 0.0047,
      "velocity": 119,
      "chip": "ym2612"
    },
    {
      "channel": 0,
      "note": 68,
      "start": 214.0248,
      "duration": 0.3693,
      "velocity": 122,
      "chip": "ym2612"
    },
    {
      "channel": 1,
      "note": 49,
      "start": 214.0265,
      "duration": 0.1654,
      "velocity": 103,
      "chip": "ym2612"
    },
    {
      "channel": 2,
      "note": 73,
      "start": 214.0283,
      "duration": 0.3662,
      "velocity": 109,
      "chip": "ym2612"
    },
    {
      "channel": 4,
      "note": 73,
      "start": 214.0305,
      "duration": 0.3648,
      "velocity": 109,
      "chip": "ym2612"
    },
    {
      "channel": 5,
      "note": 68,
      "start": 214.0322,
      "duration": 0.3633,
      "velocity": 119,
      "chip": "ym2612"
    },
    {
      "channel": 1,
      "note": 49,
      "start": 214.2272,
      "duration": 0.1671,
      "velocity": 103,
      "chip": "ym2612"
    },
    {
      "channel": 3,
      "note": 64,
      "start": 214.2327,
      "duration": 0.0106,
      "velocity": 127,
      "chip": "ym2612"
    },
    {
      "channel": 0,
      "note": 68,
      "start": 214.4298,
      "duration": 0.0148,
      "velocity": 122,
      "chip": "ym2612"
    },
    {
      "channel": 1,
      "note": 49,
      "start": 214.4316,
      "duration": 0.1648,
      "velocity": 103,
      "chip": "ym2612"
    },
    {
      "channel": 2,
      "note": 73,
      "start": 214.4334,
      "duration": 0.1633,
      "velocity": 109,
      "chip": "ym2612"
    },
    {
      "channel": 4,
      "note": 73,
      "start": 214.4356,
      "duration": 0.1618,
      "velocity": 109,
      "chip": "ym2612"
    },
    {
      "channel": 5,
      "note": 68,
      "start": 214.4373,
      "duration": 0.0084,
      "velocity": 119,
      "chip": "ym2612"
    },
    {
      "channel": 0,
      "note": 72,
      "start": 214.6315,
      "duration": 0.3694,
      "velocity": 122,
      "chip": "ym2612"
    },
    {
      "channel": 1,
      "note": 49,
      "start": 214.6332,
      "duration": 0.1654,
      "velocity": 103,
      "chip": "ym2612"
    },
    {
      "channel": 2,
      "note": 75,
      "start": 214.635,
      "duration": 0.3663,
      "velocity": 109,
      "chip": "ym2612"
    },
    {
      "channel": 3,
      "note": 64,
      "start": 214.6403,
      "duration": 0.0075,
      "velocity": 127,
      "chip": "ym2612"
    },
    {
      "channel": 4,
      "note": 75,
      "start": 214.642,
      "duration": 0.36,
      "velocity": 109,
      "chip": "ym2612"
    },
    {
      "channel": 5,
      "note": 72,
      "start": 214.6437,
      "duration": 0.3586,
      "velocity": 119,
      "chip": "ym2612"
    },
    {
      "channel": 1,
      "note": 49,
      "start": 214.8342,
      "duration": 0.1669,
      "velocity": 103,
      "chip": "ym2612"
    },
    {
      "channel": 0,
      "note": 65,
      "start": 215.0399,
      "duration": 18.1783,
      "velocity": 98,
      "chip": "ym2612"
    },
    {
      "channel": 1,
      "note": 61,
      "start": 215.0454,
      "duration": 18.173,
      "velocity": 98,
      "chip": "ym2612"
    },
    {
      "channel": 2,
      "note": 68,
      "start": 215.0506,
      "duration": 0.1864,
      "velocity": 91,
      "chip": "ym2612"
    },
    {
      "channel": 3,
      "note": 68,
      "start": 215.0568,
      "duration": 18.163,
      "velocity": 98,
      "chip": "ym2612"
    },
    {
      "channel": 4,
      "note": 68,
      "start": 215.0621,
      "duration": 0.1753,
      "velocity": 91,
      "chip": "ym2612"
    },
    {
      "channel": 5,
      "note": 75,
      "start": 215.0676,
      "duration": 18.1536,
      "velocity": 98,
      "chip": "ym2612"
    },
    {
      "channel": 2,
      "note": 73,
      "start": 215.2722,
      "duration": 0.1671,
      "velocity": 91,
      "chip": "ym2612"
    },
    {
      "channel": 4,
      "note": 73,
      "start": 215.2739,
      "duration": 0.1656,
      "velocity": 91,
      "chip": "ym2612"
    },
    {
      "channel": 2,
      "note": 68,
      "start": 215.4744,
      "duration": 0.1671,
      "velocity": 91,
      "chip": "ym2612"
    },
    {
      "channel": 4,
      "note": 68,
      "start": 215.4761,
      "duration": 0.1656,
      "velocity": 91,
      "chip": "ym2612"
    },
    {
      "channel": 2,
      "note": 75,
      "start": 215.6767,
      "duration": 0.3693,
      "velocity": 91,
      "chip": "ym2612"
    },
    {
      "channel": 4,
      "note": 75,
      "start": 215.6784,
      "duration": 0.3678,
      "velocity": 91,
      "chip": "ym2612"
    },
    {
      "channel": 2,
      "note": 73,
      "start": 216.0811,
      "duration": 0.3693,
      "velocity": 91,
      "chip": "ym2612"
    },
    {
      "channel": 4,
      "note": 73,
      "start": 216.0829,
      "duration": 0.3679,
      "velocity": 91,
      "chip": "ym2612"
    },
    {
      "channel": 2,
      "note": 68,
      "start": 216.4857,
      "duration": 0.167,
      "velocity": 91,
      "chip": "ym2612"
    },
    {
      "channel": 4,
      "note": 68,
      "start": 216.4875,
      "duration": 0.1655,
      "velocity": 91,
      "chip": "ym2612"
    },
    {
      "channel": 2,
      "note": 69,
      "start": 216.6911,
      "duration": 0.1638,
      "velocity": 91,
      "chip": "ym2612"
    },
    {
      "channel": 4,
      "note": 69,
      "start": 216.6945,
      "duration": 0.1608,
      "velocity": 91,
      "chip": "ym2612"
    },
    {
      "channel": 2,
      "note": 73,
      "start": 216.8901,
      "duration": 0.167,
      "velocity": 91,
      "chip": "ym2612"
    },
    {
      "channel": 4,
      "note": 73,
      "start": 216.8919,
      "duration": 0.1656,
      "velocity": 91,
      "chip": "ym2612"
    },
    {
      "channel": 2,
      "note": 69,
      "start": 217.0923,
      "duration": 0.1671,
      "velocity": 91,
      "chip": "ym2612"
    },
    {
      "channel": 4,
      "note": 69,
      "start": 217.0941,
      "duration": 0.1656,
      "velocity": 91,
      "chip": "ym2612"
    },
    {
      "channel": 2,
      "note": 75,
      "start": 217.2945,
      "duration": 0.3693,
      "velocity": 91,
      "chip": "ym2612"
    },
    {
      "channel": 4,
      "note": 75,
      "start": 217.2964,
      "duration": 0.3679,
      "velocity": 91,
      "chip": "ym2612"
    },
    {
      "channel": 2,
      "note": 73,
      "start": 217.699,
      "duration": 0.3693,
      "velocity": 91,
      "chip": "ym2612"
    },
    {
      "channel": 4,
      "note": 73,
      "start": 217.7008,
      "duration": 0.3679,
      "velocity": 91,
      "chip": "ym2612"
    },
    {
      "channel": 2,
      "note": 69,
      "start": 218.1036,
      "duration": 0.1671,
      "velocity": 91,
      "chip": "ym2612"
    },
    {
      "channel": 4,
      "note": 69,
      "start": 218.1054,
      "duration": 0.1656,
      "velocity": 91,
      "chip": "ym2612"
    },
    {
      "channel": 2,
      "note": 70,
      "start": 218.309,
      "duration": 0.1639,
      "velocity": 91,
      "chip": "ym2612"
    },
    {
      "channel": 4,
      "note": 70,
      "start": 218.3123,
      "duration": 0.1608,
      "velocity": 91,
      "chip": "ym2612"
    },
    {
      "channel": 2,
      "note": 73,
      "start": 218.508,
      "duration": 0.1671,
      "velocity": 91,
      "chip": "ym2612"
    },
    {
      "channel": 4,
      "note": 73,
      "start": 218.5098,
      "duration": 0.1656,
      "velocity": 91,
      "chip": "ym2612"
    },
    {
      "channel": 2,
      "note": 70,
      "start": 218.7102,
      "duration": 0.1671,
      "velocity": 91,
      "chip": "ym2612"
    },
    {
      "channel": 4,
      "note": 70,
      "start": 218.7121,
      "duration": 0.1656,
      "velocity": 91,
      "chip": "ym2612"
    },
    {
      "channel": 2,
      "note": 75,
      "start": 218.9125,
      "duration": 0.3693,
      "velocity": 91,
      "chip": "ym2612"
    },
    {
      "channel": 4,
      "note": 75,
      "start": 218.9143,
      "duration": 0.3678,
      "velocity": 91,
      "chip": "ym2612"
    },
    {
      "channel": 2,
      "note": 73,
      "start": 219.317,
      "duration": 0.3693,
      "velocity": 91,
      "chip": "ym2612"
    },
    {
      "channel": 4,
      "note": 73,
      "start": 219.3188,
      "duration": 0.3679,
      "velocity": 91,
      "chip": "ym2612"
    },
    {
      "channel": 2,
      "note": 70,
      "start": 219.7225,
      "duration": 0.166,
      "velocity": 91,
      "chip": "ym2612"
    },
    {
      "channel": 4,
      "note": 70,
      "start": 219.7243,
      "duration": 0.1646,
      "velocity": 91,
      "chip": "ym2612"
    },
    {
      "channel": 2,
      "note": 69,
      "start": 219.9269,
      "duration": 0.1639,
      "velocity": 91,
      "chip": "ym2612"
    },
    {
      "channel": 4,
      "note": 69,
      "start": 219.9303,
      "duration": 0.1608,
      "velocity": 91,
      "chip": "ym2612"
    },
    {
      "channel": 2,
      "note": 73,
      "start": 220.1265,
      "duration": 0.1665,
      "velocity": 91,
      "chip": "ym2612"
    },
    {
      "channel": 4,
      "note": 73,
      "start": 220.1284,
      "duration": 0.165,
      "velocity": 91,
      "chip": "ym2612"
    },
    {
      "channel": 2,
      "note": 69,
      "start": 220.3282,
      "duration": 0.1671,
      "velocity": 91,
      "chip": "ym2612"
    },
    {
      "channel": 4,
      "note": 69,
      "start": 220.33,
      "duration": 0.1656,
      "velocity": 91,
      "chip": "ym2612"
    },
    {
      "channel": 2,
      "note": 75,
      "start": 220.5307,
      "duration": 0.3691,
      "velocity": 91,
      "chip": "ym2612"
    },
    {
      "channel": 4,
      "note": 75,
      "start": 220.5324,
      "duration": 0.3676,
      "velocity": 91,
      "chip": "ym2612"
    },
    {
      "channel": 2,
      "note": 73,
      "start": 220.9349,
      "duration": 0.3693,
      "velocity": 91,
      "chip": "ym2612"
    },
    {
      "channel": 4,
      "note": 73,
      "start": 220.9367,
      "duration": 0.3679,
      "velocity": 91,
      "chip": "ym2612"
    },
    {
      "channel": 2,
      "note": 69,
      "start": 221.3394,
      "duration": 0.1674,
      "velocity": 91,
      "chip": "ym2612"
    },
    {
      "channel": 4,
      "note": 69,
      "start": 221.3412,
      "duration": 0.1659,
      "velocity": 91,
      "chip": "ym2612"
    },
    {
      "channel": 2,
      "note": 68,
      "start": 221.5451,
      "duration": 0.1636,
      "velocity": 91,
      "chip": "ym2612"
    },
    {
      "channel": 4,
      "note": 68,
      "start": 221.5488,
      "duration": 0.1602,
      "velocity": 91,
      "chip": "ym2612"
    },
    {
      "channel": 2,
      "note": 73,
      "start": 221.7439,
      "duration": 0.1671,
      "velocity": 91,
      "chip": "ym2612"
    },
    {
      "channel": 4,
      "note": 73,
      "start": 221.7457,
      "duration": 0.1656,
      "velocity": 91,
      "chip": "ym2612"
    },
    {
      "channel": 2,
      "note": 68,
      "start": 221.9461,
      "duration": 0.1671,
      "velocity": 91,
      "chip": "ym2612"
    },
    {
      "channel": 4,
      "note": 68,
      "start": 221.9479,
      "duration": 0.1656,
      "velocity": 91,
      "chip": "ym2612"
    },
    {
      "channel": 2,
      "note": 75,
      "start": 222.1483,
      "duration": 0.3694,
      "velocity": 91,
      "chip": "ym2612"
    },
    {
      "channel": 4,
      "note": 75,
      "start": 222.1502,
      "duration": 0.3679,
      "velocity": 91,
      "chip": "ym2612"
    },
    {
      "channel": 2,
      "note": 73,
      "start": 222.5528,
      "duration": 0.3693,
      "velocity": 91,
      "chip": "ym2612"
    },
    {
      "channel": 4,
      "note": 73,
      "start": 222.5546,
      "duration": 0.3678,
      "velocity": 91,
      "chip": "ym2612"
    },
    {
      "channel": 2,
      "note": 68,
      "start": 222.9573,
      "duration": 0.1671,
      "velocity": 91,
      "chip": "ym2612"
    },
    {
      "channel": 4,
      "note": 68,
      "start": 222.9591,
      "duration": 0.1657,
      "velocity": 91,
      "chip": "ym2612"
    },
    {
      "channel": 2,
      "note": 69,
      "start": 223.1628,
      "duration": 0.1639,
      "velocity": 91,
      "chip": "ym2612"
    },
    {
      "channel": 4,
      "note": 69,
      "start": 223.1662,
      "duration": 0.1608,
      "velocity": 91,
      "chip": "ym2612"
    },
    {
      "channel": 2,
      "note": 73,
      "start": 223.3618,
      "duration": 0.1671,
      "velocity": 91,
      "chip": "ym2612"
    },
    {
      "channel": 4,
      "note": 73,
      "start": 223.3636,
      "duration": 0.1656,
      "velocity": 91,
      "chip": "ym2612"
    },
    {
      "channel": 2,
      "note": 69,
      "start": 223.5641,
      "duration": 0.1671,
      "velocity": 91,
      "chip": "ym2612"
    },
    {
      "channel": 4,
      "note": 69,
      "start": 223.5659,
      "duration": 0.1656,
      "velocity": 91,
      "chip": "ym2612"
    },
    {
      "channel": 2,
      "note": 75,
      "start": 223.7663,
      "duration": 0.3693,
      "velocity": 91,
      "chip": "ym2612"
    },
    {
      "channel": 4,
      "note": 75,
      "start": 223.7681,
      "duration": 0.3678,
      "velocity": 91,
      "chip": "ym2612"
    },
    {
      "channel": 2,
      "note": 73,
      "start": 224.1708,
      "duration": 0.3693,
      "velocity": 91,
      "chip": "ym2612"
    },
    {
      "channel": 4,
      "note": 73,
      "start": 224.1726,
      "duration": 0.3678,
      "velocity": 91,
      "chip": "ym2612"
    },
    {
      "channel": 2,
      "note": 69,
      "start": 224.5753,
      "duration": 0.1671,
      "velocity": 91,
      "chip": "ym2612"
    },
    {
      "channel": 4,
      "note": 69,
      "start": 224.5771,
      "duration": 0.1656,
      "velocity": 91,
      "chip": "ym2612"
    },
    {
      "channel": 2,
      "note": 70,
      "start": 224.7807,
      "duration": 0.1639,
      "velocity": 91,
      "chip": "ym2612"
    },
    {
      "channel": 4,
      "note": 70,
      "start": 224.7841,
      "duration": 0.1608,
      "velocity": 91,
      "chip": "ym2612"
    },
    {
      "channel": 2,
      "note": 73,
      "start": 224.9797,
      "duration": 0.1671,
      "velocity": 91,
      "chip": "ym2612"
    },
    {
      "channel": 4,
      "note": 73,
      "start": 224.9816,
      "duration": 0.1656,
      "velocity": 91,
      "chip": "ym2612"
    },
    {
      "channel": 2,
      "note": 70,
      "start": 225.182,
      "duration": 0.1671,
      "velocity": 91,
      "chip": "ym2612"
    },
    {
      "channel": 4,
      "note": 70,
      "start": 225.1838,
      "duration": 0.1656,
      "velocity": 91,
      "chip": "ym2612"
    },
    {
      "channel": 2,
      "note": 75,
      "start": 225.3842,
      "duration": 0.3693,
      "velocity": 91,
      "chip": "ym2612"
    },
    {
      "channel": 4,
      "note": 75,
      "start": 225.386,
      "duration": 0.3679,
      "velocity": 91,
      "chip": "ym2612"
    },
    {
      "channel": 2,
      "note": 73,
      "start": 225.7887,
      "duration": 0.3693,
      "velocity": 91,
      "chip": "ym2612"
    },
    {
      "channel": 4,
      "note": 73,
      "start": 225.7905,
      "duration": 0.3678,
      "velocity": 91,
      "chip": "ym2612"
    },
    {
      "channel": 2,
      "note": 70,
      "start": 226.1932,
      "duration": 0.1671,
      "velocity": 91,
      "chip": "ym2612"
    },
    {
      "channel": 4,
      "note": 70,
      "start": 226.195,
      "duration": 0.1656,
      "velocity": 91,
      "chip": "ym2612"
    },
    {
      "channel": 2,
      "note": 69,
      "start": 226.3997,
      "duration": 0.1629,
      "velocity": 91,
      "chip": "ym2612"
    },
    {
      "channel": 4,
      "note": 69,
      "start": 226.4031,
      "duration": 0.1598,
      "velocity": 91,
      "chip": "ym2612"
    },
    {
      "channel": 2,
      "note": 73,
      "start": 226.5976,
      "duration": 0.1671,
      "velocity": 91,
      "chip": "ym2612"
    },
    {
      "channel": 4,
      "note": 73,
      "start": 226.5995,
      "duration": 0.1656,
      "velocity": 91,
      "chip": "ym2612"
    },
    {
      "channel": 2,
      "note": 69,
      "start": 226.8005,
      "duration": 0.1665,
      "velocity": 91,
      "chip": "ym2612"
    },
    {
      "channel": 4,
      "note": 69,
      "start": 226.8024,
      "duration": 0.1649,
      "velocity": 91,
      "chip": "ym2612"
    },
    {
      "channel": 2,
      "note": 75,
      "start": 227.0022,
      "duration": 0.3693,
      "velocity": 91,
      "chip": "ym2612"
    },
    {
      "channel": 4,
      "note": 75,
      "start": 227.0039,
      "duration": 0.3679,
      "velocity": 91,
      "chip": "ym2612"
    },
    {
      "channel": 2,
      "note": 73,
      "start": 227.4066,
      "duration": 0.3701,
      "velocity": 91,
      "chip": "ym2612"
    },
    {
      "channel": 4,
      "note": 73,
      "start": 227.4085,
      "duration": 0.3686,
      "velocity": 91,
      "chip": "ym2612"
    },
    {
      "channel": 2,
      "note": 69,
      "start": 227.8111,
      "duration": 0.1671,
      "velocity": 91,
      "chip": "ym2612"
    },
    {
      "channel": 4,
      "note": 69,
      "start": 227.8129,
      "duration": 0.1656,
      "velocity": 91,
      "chip": "ym2612"
    },
    {
      "channel": 2,
      "note": 63,
      "start": 228.0176,
      "duration": 0.0653,
      "velocity": 91,
      "chip": "ym2612"
    },
    {
      "channel": 4,
      "note": 63,
      "start": 228.0222,
      "duration": 0.0611,
      "velocity": 91,
      "chip": "ym2612"
    },
    {
      "channel": 2,
      "note": 65,
      "start": 228.1214,
      "duration": 0.0744,
      "velocity": 91,
      "chip": "ym2612"
    },
    {
      "channel": 4,
      "note": 65,
      "start": 228.1241,
      "duration": 0.0721,
      "velocity": 91,
      "chip": "ym2612"
    },
    {
      "channel": 2,
      "note": 68,
      "start": 228.2373,
      "duration": 0.0805,
      "velocity": 91,
      "chip": "ym2612"
    },
    {
      "channel": 4,
      "note": 68,
      "start": 228.24,
      "duration": 0.078,
      "velocity": 91,
      "chip": "ym2612"
    },
    {
      "channel": 2,
      "note": 73,
      "start": 228.3623,
      "duration": 4.7995,
      "velocity": 91,
      "chip": "ym2612"
    },
    {
      "channel": 4,
      "note": 73,
      "start": 228.3653,
      "duration": 4.7969,
      "velocity": 91,
      "chip": "ym2612"
    }
  ]
}