{
  "track_name": "22 - Credit Roll (German)",
  "duration_sec": 112.36,
  "sample_rate": 44100,
  "note_count": 941,
  "unique_pitches": 48,
  "pitch_range": 57,
  "avg_note_duration": 0.3458,
  "reconstruction_stats": {
    "notes_reconstructed": 941,
    "keyon_events": 941,
    "keyoff_events": 941,
    "orphan_keyons": 0,
    "unique_pitches": 48,
    "pitch_range": 57,
    "avg_duration_sec": 0.3458
  },
  "metadata": {
    "source": "D\\Dune - The Battle for Arrakis\\22 - Credit Roll (German).vgz"
  },
  "notes": [
    {
      "channel": 1,
      "note": 83,
      "start": 0.0,
      "duration": 0.0135,
      "velocity": 95,
      "chip": "ym2612"
    },
    {
      "channel": 4,
      "note": 83,
      "start": 0.0,
      "duration": 0.0138,
      "velocity": 95,
      "chip": "ym2612"
    },
    {
      "channel": 4,
      "note": 68,
      "start": 0.0204,
      "duration": 0.1331,
      "velocity": 95,
      "chip": "ym2612"
    },
    {
      "channel": 1,
      "note": 68,
      "start": 0.0261,
      "duration": 0.5673,
      "velocity": 111,
      "chip": "ym2612"
    },
    {
      "channel": 0,
      "note": 72,
      "start": 0.0317,
      "duration": 2.3217,
      "velocity": 112,
      "chip": "ym2612"
    },
    {
      "channel": 3,
      "note": 56,
      "start": 0.0382,
      "duration": 4.6555,
      "velocity": 99,
      "chip": "ym2612"
    },
    {
      "channel": 4,
      "note": 75,
      "start": 0.1564,
      "duration": 0.1571,
      "velocity": 95,
      "chip": "ym2612"
    },
    {
      "channel": 4,
      "note": 86,
      "start": 0.3168,
      "duration": 0.1368,
      "velocity": 95,
      "chip": "ym2612"
    },
    {
      "channel": 4,
      "note": 91,
      "start": 0.4565,
      "duration": 0.1371,
      "velocity": 95,
      "chip": "ym2612"
    },
    {
      "channel": 4,
      "note": 96,
      "start": 0.5966,
      "duration": 0.1569,
      "velocity": 95,
      "chip": "ym2612"
    },
    {
      "channel": 1,
      "note": 75,
      "start": 0.5992,
      "duration": 0.5943,
      "velocity": 111,
      "chip": "ym2612"
    },
    {
      "channel": 4,
      "note": 91,
      "start": 0.7565,
      "duration": 0.1371,
      "velocity": 95,
      "chip": "ym2612"
    },
    {
      "channel": 4,
      "note": 86,
      "start": 0.8965,
      "duration": 0.1371,
      "velocity": 95,
      "chip": "ym2612"
    },
    {
      "channel": 4,
      "note": 75,
      "start": 1.0365,
      "duration": 0.1571,
      "velocity": 95,
      "chip": "ym2612"
    },
    {
      "channel": 4,
      "note": 68,
      "start": 1.1966,
      "duration": 0.1369,
      "velocity": 95,
      "chip": "ym2612"
    },
    {
      "channel": 1,
      "note": 74,
      "start": 1.1992,
      "duration": 0.5743,
      "velocity": 111,
      "chip": "ym2612"
    },
    {
      "channel": 4,
      "note": 75,
      "start": 1.3364,
      "duration": 0.1371,
      "velocity": 95,
      "chip": "ym2612"
    },
    {
      "channel": 4,
      "note": 86,
      "start": 1.4765,
      "duration": 0.1571,
      "velocity": 95,
      "chip": "ym2612"
    },
    {
      "channel": 4,
      "note": 91,
      "start": 1.6365,
      "duration": 0.1372,
      "velocity": 95,
      "chip": "ym2612"
    },
    {
      "channel": 4,
      "note": 96,
      "start": 1.7766,
      "duration": 0.1369,
      "velocity": 95,
      "chip": "ym2612"
    },
    {
      "channel": 1,
      "note": 75,
      "start": 1.7792,
      "duration": 0.5744,
      "velocity": 111,
      "chip": "ym2612"
    },
    {
      "channel": 4,
      "note": 91,
      "start": 1.9165,
      "duration": 0.1371,
      "velocity": 95,
      "chip": "ym2612"
    },
    {
      "channel": 4,
      "note": 86,
      "start": 2.0565,
      "duration": 0.1571,
      "velocity": 95,
      "chip": "ym2612"
    },
    {
      "channel": 4,
      "note": 75,
      "start": 2.2165,
      "duration": 0.1373,
      "velocity": 95,
      "chip": "ym2612"
    },
    {
      "channel": 4,
      "note": 68,
      "start": 2.3567,
      "duration": 0.1368,
      "velocity": 95,
      "chip": "ym2612"
    },
    {
      "channel": 1,
      "note": 77,
      "start": 2.3596,
      "duration": 0.5739,
      "velocity": 111,
      "chip": "ym2612"
    },
    {
      "channel": 0,
      "note": 72,
      "start": 2.362,
      "duration": 2.3314,
      "velocity": 112,
      "chip": "ym2612"
    },
    {
      "channel": 4,
      "note": 75,
      "start": 2.4965,
      "duration": 0.1571,
      "velocity": 95,
      "chip": "ym2612"
    },
    {
      "channel": 4,
      "note": 86,
      "start": 2.6568,
      "duration": 0.1367,
      "velocity": 95,
      "chip": "ym2612"
    },
    {
      "channel": 4,
      "note": 91,
      "start": 2.7965,
      "duration": 0.1372,
      "velocity": 95,
      "chip": "ym2612"
    },
    {
      "channel": 4,
      "note": 96,
      "start": 2.9366,
      "duration": 0.1569,
      "velocity": 95,
      "chip": "ym2612"
    },
    {
      "channel": 1,
      "note": 75,
      "start": 2.9392,
      "duration": 0.5943,
      "velocity": 111,
      "chip": "ym2612"
    },
    {
      "channel": 4,
      "note": 91,
      "start": 3.0964,
      "duration": 0.1371,
      "velocity": 95,
      "chip": "ym2612"
    },
    {
      "channel": 4,
      "note": 86,
      "start": 3.2365,
      "duration": 0.1371,
      "velocity": 95,
      "chip": "ym2612"
    },
    {
      "channel": 4,
      "note": 75,
      "start": 3.3765,
      "duration": 0.1572,
      "velocity": 95,
      "chip": "ym2612"
    },
    {
      "channel": 4,
      "note": 68,
      "start": 3.5366,
      "duration": 0.1369,
      "velocity": 95,
      "chip": "ym2612"
    },
    {
      "channel": 1,
      "note": 74,
      "start": 3.5392,
      "duration": 0.5743,
      "velocity": 111,
      "chip": "ym2612"
    },
    {
      "channel": 4,
      "note": 75,
      "start": 3.6765,
      "duration": 0.1371,
      "velocity": 95,
      "chip": "ym2612"
    },
    {
      "channel": 4,
      "note": 86,
      "start": 3.8165,
      "duration": 0.1571,
      "velocity": 95,
      "chip": "ym2612"
    },
    {
      "channel": 4,
      "note": 91,
      "start": 3.9765,
      "duration": 0.1372,
      "velocity": 95,
      "chip": "ym2612"
    },
    {
      "channel": 4,
      "note": 96,
      "start": 4.1165,
      "duration": 0.1371,
      "velocity": 95,
      "chip": "ym2612"
    },
    {
      "channel": 1,
      "note": 72,
      "start": 4.1191,
      "duration": 0.5744,
      "velocity": 111,
      "chip": "ym2612"
    },
    {
      "channel": 4,
      "note": 91,
      "start": 4.2565,
      "duration": 0.1369,
      "velocity": 95,
      "chip": "ym2612"
    },
    {
      "channel": 4,
      "note": 86,
      "start": 4.3964,
      "duration": 0.1571,
      "velocity": 95,
      "chip": "ym2612"
    },
    {
      "channel": 4,
      "note": 75,
      "start": 4.5565,
      "duration": 0.1374,
      "velocity": 95,
      "chip": "ym2612"
    },
    {
      "channel": 4,
      "note": 66,
      "start": 4.6968,
      "duration": 0.1368,
      "velocity": 95,
      "chip": "ym2612"
    },
    {
      "channel": 1,
      "note": 66,
      "start": 4.6993,
      "duration": 0.5741,
      "velocity": 111,
      "chip": "ym2612"
    },
    {
      "channel": 0,
      "note": 70,
      "start": 4.7017,
      "duration": 2.3317,
      "velocity": 112,
      "chip": "ym2612"
    },
    {
      "channel": 3,
      "note": 54,
      "start": 4.7042,
      "duration": 4.6695,
      "velocity": 99,
      "chip": "ym2612"
    },
    {
      "channel": 4,
      "note": 73,
      "start": 4.8365,
      "duration": 0.1571,
      "velocity": 95,
      "chip": "ym2612"
    },
    {
      "channel": 4,
      "note": 84,
      "start": 4.9968,
      "duration": 0.1367,
      "velocity": 95,
      "chip": "ym2612"
    },
    {
      "channel": 4,
      "note": 89,
      "start": 5.1365,
      "duration": 0.1372,
      "velocity": 95,
      "chip": "ym2612"
    },
    {
      "channel": 4,
      "note": 94,
      "start": 5.2765,
      "duration": 0.1571,
      "velocity": 95,
      "chip": "ym2612"
    },
    {
      "channel": 1,
      "note": 78,
      "start": 5.2791,
      "duration": 0.5943,
      "velocity": 111,
      "chip": "ym2612"
    },
    {
      "channel": 4,
      "note": 89,
      "start": 5.4365,
      "duration": 0.1371,
      "velocity": 95,
      "chip": "ym2612"
    },
    {
      "channel": 4,
      "note": 84,
      "start": 5.5765,
      "duration": 0.1371,
      "velocity": 95,
      "chip": "ym2612"
    },
    {
      "channel": 4,
      "note": 73,
      "start": 5.7165,
      "duration": 0.1571,
      "velocity": 95,
      "chip": "ym2612"
    },
    {
      "channel": 4,
      "note": 66,
      "start": 5.8765,
      "duration": 0.1371,
      "velocity": 95,
      "chip": "ym2612"
    },
    {
      "channel": 1,
      "note": 77,
      "start": 5.879,
      "duration": 0.5744,
      "velocity": 111,
      "chip": "ym2612"
    },
    {
      "channel": 4,
      "note": 73,
      "start": 6.0165,
      "duration": 0.1371,
      "velocity": 95,
      "chip": "ym2612"
    },
    {
      "channel": 4,
      "note": 84,
      "start": 6.1565,
      "duration": 0.1569,
      "velocity": 95,
      "chip": "ym2612"
    },
    {
      "channel": 4,
      "note": 89,
      "start": 6.3164,
      "duration": 0.1372,
      "velocity": 95,
      "chip": "ym2612"
    },
    {
      "channel": 4,
      "note": 94,
      "start": 6.4565,
      "duration": 0.1371,
      "velocity": 95,
      "chip": "ym2612"
    },
    {
      "channel": 1,
      "note": 78,
      "start": 6.459,
      "duration": 0.5745,
      "velocity": 111,
      "chip": "ym2612"
    },
    {
      "channel": 4,
      "note": 89,
      "start": 6.5965,
      "duration": 0.1571,
      "velocity": 95,
      "chip": "ym2612"
    },
    {
      "channel": 4,
      "note": 84,
      "start": 6.7565,
      "duration": 0.1371,
      "velocity": 95,
      "chip": "ym2612"
    },
    {
      "channel": 4,
      "note": 73,
      "start": 6.8965,
      "duration": 0.1372,
      "velocity": 95,
      "chip": "ym2612"
    },
    {
      "channel": 4,
      "note": 66,
      "start": 7.0367,
      "duration": 0.1368,
      "velocity": 95,
      "chip": "ym2612"
    },
    {
      "channel": 1,
      "note": 80,
      "start": 7.0392,
      "duration": 0.5743,
      "velocity": 111,
      "chip": "ym2612"
    },
    {
      "channel": 0,
      "note": 70,
      "start": 7.0416,
      "duration": 2.3317,
      "velocity": 112,
      "chip": "ym2612"
    },
    {
      "channel": 4,
      "note": 73,
      "start": 7.1765,
      "duration": 0.1571,
      "velocity": 95,
      "chip": "ym2612"
    },
    {
      "channel": 4,
      "note": 84,
      "start": 7.3368,
      "duration": 0.1367,
      "velocity": 95,
      "chip": "ym2612"
    },
    {
      "channel": 4,
      "note": 89,
      "start": 7.4765,
      "duration": 0.1372,
      "velocity": 95,
      "chip": "ym2612"
    },
    {
      "channel": 4,
      "note": 94,
      "start": 7.6165,
      "duration": 0.1571,
      "velocity": 95,
      "chip": "ym2612"
    },
    {
      "channel": 1,
      "note": 78,
      "start": 7.6191,
      "duration": 0.5943,
      "velocity": 111,
      "chip": "ym2612"
    },
    {
      "channel": 4,
      "note": 89,
      "start": 7.7765,
      "duration": 0.1371,
      "velocity": 95,
      "chip": "ym2612"
    },
    {
      "channel": 4,
      "note": 84,
      "start": 7.9165,
      "duration": 0.1371,
      "velocity": 95,
      "chip": "ym2612"
    },
    {
      "channel": 4,
      "note": 73,
      "start": 8.0565,
      "duration": 0.1571,
      "velocity": 95,
      "chip": "ym2612"
    },
    {
      "channel": 4,
      "note": 66,
      "start": 8.2165,
      "duration": 0.137,
      "velocity": 95,
      "chip": "ym2612"
    },
    {
      "channel": 1,
      "note": 77,
      "start": 8.219,
      "duration": 0.5744,
      "velocity": 111,
      "chip": "ym2612"
    },
    {
      "channel": 4,
      "note": 73,
      "start": 8.3565,
      "duration": 0.1371,
      "velocity": 95,
      "chip": "ym2612"
    },
    {
      "channel": 4,
      "note": 84,
      "start": 8.4965,
      "duration": 0.1571,
      "velocity": 95,
      "chip": "ym2612"
    },
    {
      "channel": 4,
      "note": 89,
      "start": 8.6565,
      "duration": 0.1372,
      "velocity": 95,
      "chip": "ym2612"
    },
    {
      "channel": 4,
      "note": 94,
      "start": 8.7965,
      "duration": 0.1371,
      "velocity": 95,
      "chip": "ym2612"
    },
    {
      "channel": 1,
      "note": 73,
      "start": 8.7991,
      "duration": 0.5744,
      "velocity": 111,
      "chip": "ym2612"
    },
    {
      "channel": 4,
      "note": 89,
      "start": 8.9365,
      "duration": 0.1569,
      "velocity": 95,
      "chip": "ym2612"
    },
    {
      "channel": 4,
      "note": 84,
      "start": 9.0964,
      "duration": 0.1371,
      "velocity": 95,
      "chip": "ym2612"
    },
    {
      "channel": 4,
      "note": 73,
      "start": 9.2364,
      "duration": 0.1374,
      "velocity": 95,
      "chip": "ym2612"
    },
    {
      "channel": 4,
      "note": 68,
      "start": 9.3767,
      "duration": 0.1368,
      "velocity": 95,
      "chip": "ym2612"
    },
    {
      "channel": 1,
      "note": 68,
      "start": 9.3793,
      "duration": 0.5742,
      "velocity": 111,
      "chip": "ym2612"
    },
    {
      "channel": 0,
      "note": 72,
      "start": 9.382,
      "duration": 2.3313,
      "velocity": 112,
      "chip": "ym2612"
    },
    {
      "channel": 3,
      "note": 56,
      "start": 9.3849,
      "duration": 4.6688,
      "velocity": 99,
      "chip": "ym2612"
    },
    {
      "channel": 4,
      "note": 75,
      "start": 9.5165,
      "duration": 0.1571,
      "velocity": 95,
      "chip": "ym2612"
    },
    {
      "channel": 4,
      "note": 86,
      "start": 9.6768,
      "duration": 0.1367,
      "velocity": 95,
      "chip": "ym2612"
    },
    {
      "channel": 4,
      "note": 91,
      "start": 9.8165,
      "duration": 0.1372,
      "velocity": 95,
      "chip": "ym2612"
    },
    {
      "channel": 4,
      "note": 96,
      "start": 9.9565,
      "duration": 0.157,
      "velocity": 95,
      "chip": "ym2612"
    },
    {
      "channel": 1,
      "note": 75,
      "start": 9.9591,
      "duration": 0.5944,
      "velocity": 111,
      "chip": "ym2612"
    },
    {
      "channel": 4,
      "note": 91,
      "start": 10.1165,
      "duration": 0.1371,
      "velocity": 95,
      "chip": "ym2612"
    },
    {
      "channel": 4,
      "note": 86,
      "start": 10.2565,
      "duration": 0.1371,
      "velocity": 95,
      "chip": "ym2612"
    },
    {
      "channel": 4,
      "note": 75,
      "start": 10.3965,
      "duration": 0.1572,
      "velocity": 95,
      "chip": "ym2612"
    },
    {
      "channel": 4,
      "note": 68,
      "start": 10.5566,
      "duration": 0.1369,
      "velocity": 95,
      "chip": "ym2612"
    },
    {
      "channel": 1,
      "note": 74,
      "start": 10.5592,
      "duration": 0.5743,
      "velocity": 111,
      "chip": "ym2612"
    },
    {
      "channel": 4,
      "note": 75,
      "start": 10.6965,
      "duration": 0.1371,
      "velocity": 95,
      "chip": "ym2612"
    },
    {
      "channel": 4,
      "note": 86,
      "start": 10.8365,
      "duration": 0.1571,
      "velocity": 95,
      "chip": "ym2612"
    },
    {
      "channel": 4,
      "note": 91,
      "start": 10.9965,
      "duration": 0.1372,
      "velocity": 95,
      "chip": "ym2612"
    },
    {
      "channel": 4,
      "note": 96,
      "start": 11.1366,
      "duration": 0.137,
      "velocity": 95,
      "chip": "ym2612"
    },
    {
      "channel": 1,
      "note": 75,
      "start": 11.1392,
      "duration": 0.5744,
      "velocity": 111,
      "chip": "ym2612"
    },
    {
      "channel": 4,
      "note": 91,
      "start": 11.2765,
      "duration": 0.1569,
      "velocity": 95,
      "chip": "ym2612"
    },
    {
      "channel": 4,
      "note": 86,
      "start": 11.4364,
      "duration": 0.1371,
      "velocity": 95,
      "chip": "ym2612"
    },
    {
      "channel": 4,
      "note": 75,
      "start": 11.5764,
      "duration": 0.1373,
      "velocity": 95,
      "chip": "ym2612"
    },
    {
      "channel": 4,
      "note": 68,
      "start": 11.7167,
      "duration": 0.1569,
      "velocity": 95,
      "chip": "ym2612"
    },
    {
      "channel": 1,
      "note": 77,
      "start": 11.7195,
      "duration": 0.5739,
      "velocity": 111,
      "chip": "ym2612"
    },
    {
      "channel": 0,
      "note": 72,
      "start": 11.722,
      "duration": 2.3314,
      "velocity": 112,
      "chip": "ym2612"
    },
    {
      "channel": 4,
      "note": 75,
      "start": 11.8765,
      "duration": 0.1371,
      "velocity": 95,
      "chip": "ym2612"
    },
    {
      "channel": 4,
      "note": 86,
      "start": 12.0168,
      "duration": 0.1367,
      "velocity": 95,
      "chip": "ym2612"
    },
    {
      "channel": 4,
      "note": 91,
      "start": 12.1565,
      "duration": 0.1372,
      "velocity": 95,
      "chip": "ym2612"
    },
    {
      "channel": 4,
      "note": 96,
      "start": 12.2965,
      "duration": 0.1571,
      "velocity": 95,
      "chip": "ym2612"
    },
    {
      "channel": 1,
      "note": 75,
      "start": 12.2991,
      "duration": 0.5943,
      "velocity": 111,
      "chip": "ym2612"
    },
    {
      "channel": 4,
      "note": 91,
      "start": 12.4565,
      "duration": 0.1371,
      "velocity": 95,
      "chip": "ym2612"
    },
    {
      "channel": 4,
      "note": 86,
      "start": 12.5965,
      "duration": 0.1369,
      "velocity": 95,
      "chip": "ym2612"
    },
    {
      "channel": 4,
      "note": 75,
      "start": 12.7364,
      "duration": 0.1572,
      "velocity": 95,
      "chip": "ym2612"
    },
    {
      "channel": 4,
      "note": 68,
      "start": 12.8965,
      "duration": 0.1371,
      "velocity": 95,
      "chip": "ym2612"
    },
    {
      "channel": 1,
      "note": 74,
      "start": 12.899,
      "duration": 0.5744,
      "velocity": 111,
      "chip": "ym2612"
    },
    {
      "channel": 4,
      "note": 75,
      "start": 13.0365,
      "duration": 0.1371,
      "velocity": 95,
      "chip": "ym2612"
    },
    {
      "channel": 4,
      "note": 86,
      "start": 13.1765,
      "duration": 0.1571,
      "velocity": 95,
      "chip": "ym2612"
    },
    {
      "channel": 4,
      "note": 91,
      "start": 13.3365,
      "duration": 0.1371,
      "velocity": 95,
      "chip": "ym2612"
    },
    {
      "channel": 4,
      "note": 96,
      "start": 13.4766,
      "duration": 0.1369,
      "velocity": 95,
      "chip": "ym2612"
    },
    {
      "channel": 1,
      "note": 72,
      "start": 13.4792,
      "duration": 0.5744,
      "velocity": 111,
      "chip": "ym2612"
    },
    {
      "channel": 4,
      "note": 91,
      "start": 13.6165,
      "duration": 0.1571,
      "velocity": 95,
      "chip": "ym2612"
    },
    {
      "channel": 4,
      "note": 86,
      "start": 13.7765,
      "duration": 0.1369,
      "velocity": 95,
      "chip": "ym2612"
    },
    {
      "channel": 4,
      "note": 75,
      "start": 13.9164,
      "duration": 0.1374,
      "velocity": 95,
      "chip": "ym2612"
    },
    {
      "channel": 4,
      "note": 66,
      "start": 14.0567,
      "duration": 0.1568,
      "velocity": 95,
      "chip": "ym2612"
    },
    {
      "channel": 1,
      "note": 66,
      "start": 14.0593,
      "duration": 0.5742,
      "velocity": 111,
      "chip": "ym2612"
    },
    {
      "channel": 0,
      "note": 70,
      "start": 14.0616,
      "duration": 2.3318,
      "velocity": 112,
      "chip": "ym2612"
    },
    {
      "channel": 3,
      "note": 54,
      "start": 14.0641,
      "duration": 4.6696,
      "velocity": 99,
      "chip": "ym2612"
    },
    {
      "channel": 4,
      "note": 73,
      "start": 14.2165,
      "duration": 0.1371,
      "velocity": 95,
      "chip": "ym2612"
    },
    {
      "channel": 4,
      "note": 84,
      "start": 14.3568,
      "duration": 0.1367,
      "velocity": 95,
      "chip": "ym2612"
    },
    {
      "channel": 4,
      "note": 89,
      "start": 14.4965,
      "duration": 0.1372,
      "velocity": 95,
      "chip": "ym2612"
    },
    {
      "channel": 4,
      "note": 94,
      "start": 14.6365,
      "duration": 0.1571,
      "velocity": 95,
      "chip": "ym2612"
    },
    {
      "channel": 1,
      "note": 78,
      "start": 14.6391,
      "duration": 0.5944,
      "velocity": 111,
      "chip": "ym2612"
    },
    {
      "channel": 4,
      "note": 89,
      "start": 14.7965,
      "duration": 0.1371,
      "velocity": 95,
      "chip": "ym2612"
    },
    {
      "channel": 4,
      "note": 84,
      "start": 14.9365,
      "duration": 0.1369,
      "velocity": 95,
      "chip": "ym2612"
    },
    {
      "channel": 4,
      "note": 73,
      "start": 15.0764,
      "duration": 0.1572,
      "velocity": 95,
      "chip": "ym2612"
    },
    {
      "channel": 4,
      "note": 66,
      "start": 15.2365,
      "duration": 0.1371,
      "velocity": 95,
      "chip": "ym2612"
    },
    {
      "channel": 1,
      "note": 77,
      "start": 15.2391,
      "duration": 0.5744,
      "velocity": 111,
      "chip": "ym2612"
    },
    {
      "channel": 4,
      "note": 73,
      "start": 15.3765,
      "duration": 0.137,
      "velocity": 95,
      "chip": "ym2612"
    },
    {
      "channel": 4,
      "note": 84,
      "start": 15.5165,
      "duration": 0.1571,
      "velocity": 95,
      "chip": "ym2612"
    },
    {
      "channel": 4,
      "note": 89,
      "start": 15.6765,
      "duration": 0.1372,
      "velocity": 95,
      "chip": "ym2612"
    },
    {
      "channel": 4,
      "note": 94,
      "start": 15.8166,
      "duration": 0.137,
      "velocity": 95,
      "chip": "ym2612"
    },
    {
      "channel": 1,
      "note": 78,
      "start": 15.8192,
      "duration": 0.5744,
      "velocity": 111,
      "chip": "ym2612"
    },
    {
      "channel": 4,
      "note": 89,
      "start": 15.9565,
      "duration": 0.1569,
      "velocity": 95,
      "chip": "ym2612"
    },
    {
      "channel": 4,
      "note": 84,
      "start": 16.1164,
      "duration": 0.1371,
      "velocity": 95,
      "chip": "ym2612"
    },
    {
      "channel": 4,
      "note": 73,
      "start": 16.2565,
      "duration": 0.1373,
      "velocity": 95,
      "chip": "ym2612"
    },
    {
      "channel": 4,
      "note": 66,
      "start": 16.3967,
      "duration": 0.1568,
      "velocity": 95,
      "chip": "ym2612"
    },
    {
      "channel": 1,
      "note": 80,
      "start": 16.3992,
      "duration": 0.5943,
      "velocity": 111,
      "chip": "ym2612"
    },
    {
      "channel": 0,
      "note": 70,
      "start": 16.4016,
      "duration": 2.3318,
      "velocity": 112,
      "chip": "ym2612"
    },
    {
      "channel": 4,
      "note": 73,
      "start": 16.5565,
      "duration": 0.1371,
      "velocity": 95,
      "chip": "ym2612"
    },
    {
      "channel": 4,
      "note": 84,
      "start": 16.6968,
      "duration": 0.1367,
      "velocity": 95,
      "chip": "ym2612"
    },
    {
      "channel": 4,
      "note": 89,
      "start": 16.8365,
      "duration": 0.1572,
      "velocity": 95,
      "chip": "ym2612"
    },
    {
      "channel": 4,
      "note": 94,
      "start": 16.9966,
      "duration": 0.1369,
      "velocity": 95,
      "chip": "ym2612"
    },
    {
      "channel": 1,
      "note": 78,
      "start": 16.9992,
      "duration": 0.5742,
      "velocity": 111,
      "chip": "ym2612"
    },
    {
      "channel": 4,
      "note": 89,
      "start": 17.1365,
      "duration": 0.1371,
      "velocity": 95,
      "chip": "ym2612"
    },
    {
      "channel": 4,
      "note": 84,
      "start": 17.2765,
      "duration": 0.1369,
      "velocity": 95,
      "chip": "ym2612"
    },
    {
      "channel": 4,
      "note": 73,
      "start": 17.4164,
      "duration": 0.1572,
      "velocity": 95,
      "chip": "ym2612"
    },
    {
      "channel": 4,
      "note": 66,
      "start": 17.5765,
      "duration": 0.1371,
      "velocity": 95,
      "chip": "ym2612"
    },
    {
      "channel": 1,
      "note": 77,
      "start": 17.579,
      "duration": 0.5744,
      "velocity": 111,
      "chip": "ym2612"
    },
    {
      "channel": 4,
      "note": 73,
      "start": 17.7165,
      "duration": 0.1371,
      "velocity": 95,
      "chip": "ym2612"
    },
    {
      "channel": 4,
      "note": 84,
      "start": 17.8565,
      "duration": 0.1571,
      "velocity": 95,
      "chip": "ym2612"
    },
    {
      "channel": 4,
      "note": 89,
      "start": 18.0165,
      "duration": 0.1371,
      "velocity": 95,
      "chip": "ym2612"
    },
    {
      "channel": 4,
      "note": 94,
      "start": 18.1566,
      "duration": 0.1369,
      "velocity": 95,
      "chip": "ym2612"
    },
    {
      "channel": 1,
      "note": 73,
      "start": 18.1592,
      "duration": 0.5744,
      "velocity": 111,
      "chip": "ym2612"
    },
    {
      "channel": 4,
      "note": 89,
      "start": 18.2965,
      "duration": 0.1571,
      "velocity": 95,
      "chip": "ym2612"
    },
    {
      "channel": 4,
      "note": 84,
      "start": 18.4565,
      "duration": 0.1371,
      "velocity": 95,
      "chip": "ym2612"
    },
    {
      "channel": 4,
      "note": 73,
      "start": 18.5965,
      "duration": 0.1373,
      "velocity": 95,
      "chip": "ym2612"
    },
    {
      "channel": 4,
      "note": 64,
      "start": 18.7368,
      "duration": 0.1568,
      "velocity": 95,
      "chip": "ym2612"
    },
    {
      "channel": 1,
      "note": 74,
      "start": 18.7393,
      "duration": 0.5942,
      "velocity": 111,
      "chip": "ym2612"
    },
    {
      "channel": 0,
      "note": 66,
      "start": 18.7417,
      "duration": 2.3317,
      "velocity": 112,
      "chip": "ym2612"
    },
    {
      "channel": 3,
      "note": 52,
      "start": 18.7442,
      "duration": 4.6695,
      "velocity": 99,
      "chip": "ym2612"
    },
    {
      "channel": 4,
      "note": 71,
      "start": 18.8965,
      "duration": 0.1371,
      "velocity": 95,
      "chip": "ym2612"
    },
    {
      "channel": 4,
      "note": 76,
      "start": 19.0368,
      "duration": 0.1367,
      "velocity": 95,
      "chip": "ym2612"
    },
    {
      "channel": 4,
      "note": 83,
      "start": 19.1765,
      "duration": 0.1572,
      "velocity": 95,
      "chip": "ym2612"
    },
    {
      "channel": 4,
      "note": 92,
      "start": 19.3366,
      "duration": 0.1369,
      "velocity": 95,
      "chip": "ym2612"
    },
    {
      "channel": 1,
      "note": 71,
      "start": 19.3395,
      "duration": 1.154,
      "velocity": 111,
      "chip": "ym2612"
    },
    {
      "channel": 4,
      "note": 86,
      "start": 19.4764,
      "duration": 0.1371,
      "velocity": 95,
      "chip": "ym2612"
    },
    {
      "channel": 4,
      "note": 76,
      "start": 19.6164,
      "duration": 0.1371,
      "velocity": 95,
      "chip": "ym2612"
    },
    {
      "channel": 4,
      "note": 71,
      "start": 19.7564,
      "duration": 0.1571,
      "velocity": 95,
      "chip": "ym2612"
    },
    {
      "channel": 4,
      "note": 64,
      "start": 19.9164,
      "duration": 0.1371,
      "velocity": 95,
      "chip": "ym2612"
    },
    {
      "channel": 4,
      "note": 71,
      "start": 20.0565,
      "duration": 0.1371,
      "velocity": 95,
      "chip": "ym2612"
    },
    {
      "channel": 4,
      "note": 76,
      "start": 20.1965,
      "duration": 0.1571,
      "velocity": 95,
      "chip": "ym2612"
    },
    {
      "channel": 4,
      "note": 83,
      "start": 20.3565,
      "duration": 0.1372,
      "velocity": 95,
      "chip": "ym2612"
    },
    {
      "channel": 4,
      "note": 92,
      "start": 20.4966,
      "duration": 0.1369,
      "velocity": 95,
      "chip": "ym2612"
    },
    {
      "channel": 1,
      "note": 74,
      "start": 20.4998,
      "duration": 0.5737,
      "velocity": 111,
      "chip": "ym2612"
    },
    {
      "channel": 4,
      "note": 86,
      "start": 20.6365,
      "duration": 0.1571,
      "velocity": 95,
      "chip": "ym2612"
    },
    {
      "channel": 4,
      "note": 76,
      "start": 20.7965,
      "duration": 0.137,
      "velocity": 95,
      "chip": "ym2612"
    },
    {
      "channel": 4,
      "note": 71,
      "start": 20.9365,
      "duration": 0.1373,
      "velocity": 95,
      "chip": "ym2612"
    },
    {
      "channel": 4,
      "note": 64,
      "start": 21.0767,
      "duration": 0.1568,
      "velocity": 95,
      "chip": "ym2612"
    },
    {
      "channel": 1,
      "note": 73,
      "start": 21.0792,
      "duration": 0.5943,
      "velocity": 111,
      "chip": "ym2612"
    },
    {
      "channel": 0,
      "note": 68,
      "start": 21.0816,
      "duration": 2.3318,
      "velocity": 112,
      "chip": "ym2612"
    },
    {
      "channel": 4,
      "note": 71,
      "start": 21.2365,
      "duration": 0.1371,
      "velocity": 95,
      "chip": "ym2612"
    },
    {
      "channel": 4,
      "note": 76,
      "start": 21.3768,
      "duration": 0.1367,
      "velocity": 95,
      "chip": "ym2612"
    },
    {
      "channel": 4,
      "note": 83,
      "start": 21.5165,
      "duration": 0.1572,
      "velocity": 95,
      "chip": "ym2612"
    },
    {
      "channel": 4,
      "note": 92,
      "start": 21.6766,
      "duration": 0.1369,
      "velocity": 95,
      "chip": "ym2612"
    },
    {
      "channel": 1,
      "note": 69,
      "start": 21.6795,
      "duration": 1.154,
      "velocity": 111,
      "chip": "ym2612"
    },
    {
      "channel": 4,
      "note": 86,
      "start": 21.8165,
      "duration": 0.1371,
      "velocity": 95,
      "chip": "ym2612"
    },
    {
      "channel": 4,
      "note": 76,
      "start": 21.9565,
      "duration": 0.1571,
      "velocity": 95,
      "chip": "ym2612"
    },
    {
      "channel": 4,
      "note": 71,
      "start": 22.1165,
      "duration": 0.137,
      "velocity": 95,
      "chip": "ym2612"
    },
    {
      "channel": 4,
      "note": 64,
      "start": 22.2565,
      "duration": 0.1371,
      "velocity": 95,
      "chip": "ym2612"
    },
    {
      "channel": 4,
      "note": 71,
      "start": 22.3965,
      "duration": 0.1371,
      "velocity": 95,
      "chip": "ym2612"
    },
    {
      "channel": 4,
      "note": 76,
      "start": 22.5365,
      "duration": 0.1571,
      "velocity": 95,
      "chip": "ym2612"
    },
    {
      "channel": 4,
      "note": 83,
      "start": 22.6965,
      "duration": 0.1371,
      "velocity": 95,
      "chip": "ym2612"
    },
    {
      "channel": 4,
      "note": 92,
      "start": 22.8366,
      "duration": 0.1369,
      "velocity": 95,
      "chip": "ym2612"
    },
    {
      "channel": 1,
      "note": 71,
      "start": 22.8395,
      "duration": 0.5741,
      "velocity": 111,
      "chip": "ym2612"
    },
    {
      "channel": 4,
      "note": 86,
      "start": 22.9765,
      "duration": 0.1571,
      "velocity": 95,
      "chip": "ym2612"
    },
    {
      "channel": 4,
      "note": 76,
      "start": 23.1365,
      "duration": 0.1371,
      "velocity": 95,
      "chip": "ym2612"
    },
    {
      "channel": 4,
      "note": 71,
      "start": 23.2765,
      "duration": 0.1373,
      "velocity": 95,
      "chip": "ym2612"
    },
    {
      "channel": 4,
      "note": 64,
      "start": 23.4167,
      "duration": 0.1569,
      "velocity": 95,
      "chip": "ym2612"
    },
    {
      "channel": 1,
      "note": 71,
      "start": 23.4196,
      "duration": 1.7539,
      "velocity": 111,
      "chip": "ym2612"
    },
    {
      "channel": 0,
      "note": 69,
      "start": 23.4223,
      "duration": 1.171,
      "velocity": 112,
      "chip": "ym2612"
    },
    {
      "channel": 3,
      "note": 55,
      "start": 23.4248,
      "duration": 4.6689,
      "velocity": 99,
      "chip": "ym2612"
    },
    {
      "channel": 4,
      "note": 71,
      "start": 23.5765,
      "duration": 0.1371,
      "velocity": 95,
      "chip": "ym2612"
    },
    {
      "channel": 4,
      "note": 79,
      "start": 23.7168,
      "duration": 0.1367,
      "velocity": 95,
      "chip": "ym2612"
    },
    {
      "channel": 4,
      "note": 83,
      "start": 23.8565,
      "duration": 0.1571,
      "velocity": 95,
      "chip": "ym2612"
    },
    {
      "channel": 4,
      "note": 91,
      "start": 24.0165,
      "duration": 0.1371,
      "velocity": 95,
      "chip": "ym2612"
    },
    {
      "channel": 4,
      "note": 85,
      "start": 24.1565,
      "duration": 0.1371,
      "velocity": 95,
      "chip": "ym2612"
    },
    {
      "channel": 4,
      "note": 79,
      "start": 24.2965,
      "duration": 0.1569,
      "velocity": 95,
      "chip": "ym2612"
    },
    {
      "channel": 4,
      "note": 71,
      "start": 24.4564,
      "duration": 0.1372,
      "velocity": 95,
      "chip": "ym2612"
    },
    {
      "channel": 4,
      "note": 64,
      "start": 24.5965,
      "duration": 0.137,
      "velocity": 95,
      "chip": "ym2612"
    },
    {
      "channel": 0,
      "note": 67,
      "start": 24.599,
      "duration": 1.1544,
      "velocity": 112,
      "chip": "ym2612"
    },
    {
      "channel": 4,
      "note": 71,
      "start": 24.7365,
      "duration": 0.1371,
      "velocity": 95,
      "chip": "ym2612"
    },
    {
      "channel": 4,
      "note": 79,
      "start": 24.8765,
      "duration": 0.1571,
      "velocity": 95,
      "chip": "ym2612"
    },
    {
      "channel": 4,
      "note": 83,
      "start": 25.0365,
      "duration": 0.1371,
      "velocity": 95,
      "chip": "ym2612"
    },
    {
      "channel": 4,
      "note": 91,
      "start": 25.1766,
      "duration": 0.1369,
      "velocity": 95,
      "chip": "ym2612"
    },
    {
      "channel": 1,
      "note": 74,
      "start": 25.1795,
      "duration": 1.1739,
      "velocity": 111,
      "chip": "ym2612"
    },
    {
      "channel": 4,
      "note": 85,
      "start": 25.3165,
      "duration": 0.1571,
      "velocity": 95,
      "chip": "ym2612"
    },
    {
      "channel": 4,
      "note": 79,
      "start": 25.4765,
      "duration": 0.1371,
      "velocity": 95,
      "chip": "ym2612"
    },
    {
      "channel": 4,
      "note": 71,
      "start": 25.6165,
      "duration": 0.1372,
      "velocity": 95,
      "chip": "ym2612"
    },
    {
      "channel": 4,
      "note": 64,
      "start": 25.7566,
      "duration": 0.1569,
      "velocity": 95,
      "chip": "ym2612"
    },
    {
      "channel": 0,
      "note": 67,
      "start": 25.7594,
      "duration": 2.334,
      "velocity": 112,
      "chip": "ym2612"
    },
    {
      "channel": 4,
      "note": 71,
      "start": 25.9164,
      "duration": 0.1371,
      "velocity": 95,
      "chip": "ym2612"
    },
    {
      "channel": 4,
      "note": 79,
      "start": 26.0568,
      "duration": 0.1368,
      "velocity": 95,
      "chip": "ym2612"
    },
    {
      "channel": 4,
      "note": 83,
      "start": 26.1965,
      "duration": 0.1571,
      "velocity": 95,
      "chip": "ym2612"
    },
    {
      "channel": 4,
      "note": 91,
      "start": 26.3565,
      "duration": 0.1371,
      "velocity": 95,
      "chip": "ym2612"
    },
    {
      "channel": 1,
      "note": 73,
      "start": 26.3594,
      "duration": 1.1541,
      "velocity": 111,
      "chip": "ym2612"
    },
    {
      "channel": 4,
      "note": 85,
      "start": 26.4965,
      "duration": 0.1371,
      "velocity": 95,
      "chip": "ym2612"
    },
    {
      "channel": 4,
      "note": 79,
      "start": 26.6365,
      "duration": 0.1569,
      "velocity": 95,
      "chip": "ym2612"
    },
    {
      "channel": 4,
      "note": 71,
      "start": 26.7964,
      "duration": 0.1371,
      "velocity": 95,
      "chip": "ym2612"
    },
    {
      "channel": 4,
      "note": 64,
      "start": 26.9364,
      "duration": 0.1371,
      "velocity": 95,
      "chip": "ym2612"
    },
    {
      "channel": 4,
      "note": 71,
      "start": 27.0765,
      "duration": 0.1571,
      "velocity": 95,
      "chip": "ym2612"
    },
    {
      "channel": 4,
      "note": 79,
      "start": 27.2365,
      "duration": 0.1371,
      "velocity": 95,
      "chip": "ym2612"
    },
    {
      "channel": 4,
      "note": 83,
      "start": 27.3765,
      "duration": 0.1372,
      "velocity": 95,
      "chip": "ym2612"
    },
    {
      "channel": 4,
      "note": 91,
      "start": 27.5166,
      "duration": 0.1369,
      "velocity": 95,
      "chip": "ym2612"
    },
    {
      "channel": 1,
      "note": 71,
      "start": 27.5194,
      "duration": 0.5741,
      "velocity": 111,
      "chip": "ym2612"
    },
    {
      "channel": 4,
      "note": 85,
      "start": 27.6564,
      "duration": 0.1571,
      "velocity": 95,
      "chip": "ym2612"
    },
    {
      "channel": 4,
      "note": 79,
      "start": 27.8165,
      "duration": 0.1371,
      "velocity": 95,
      "chip": "ym2612"
    },
    {
      "channel": 4,
      "note": 71,
      "start": 27.9565,
      "duration": 0.1373,
      "velocity": 95,
      "chip": "ym2612"
    },
    {
      "channel": 4,
      "note": 64,
      "start": 28.0967,
      "duration": 0.1568,
      "velocity": 95,
      "chip": "ym2612"
    },
    {
      "channel": 1,
      "note": 74,
      "start": 28.0993,
      "duration": 0.5942,
      "velocity": 111,
      "chip": "ym2612"
    },
    {
      "channel": 0,
      "note": 66,
      "start": 28.1016,
      "duration": 2.3318,
      "velocity": 112,
      "chip": "ym2612"
    },
    {
      "channel": 3,
      "note": 52,
      "start": 28.1041,
      "duration": 4.6695,
      "velocity": 99,
      "chip": "ym2612"
    },
    {
      "channel": 4,
      "note": 71,
      "start": 28.2565,
      "duration": 0.1371,
      "velocity": 95,
      "chip": "ym2612"
    },
    {
      "channel": 4,
      "note": 76,
      "start": 28.3968,
      "duration": 0.1367,
      "velocity": 95,
      "chip": "ym2612"
    },
    {
      "channel": 4,
      "note": 83,
      "start": 28.5365,
      "duration": 0.1572,
      "velocity": 95,
      "chip": "ym2612"
    },
    {
      "channel": 4,
      "note": 92,
      "start": 28.6966,
      "duration": 0.1369,
      "velocity": 95,
      "chip": "ym2612"
    },
    {
      "channel": 1,
      "note": 71,
      "start": 28.6994,
      "duration": 1.154,
      "velocity": 111,
      "chip": "ym2612"
    },
    {
      "channel": 4,
      "note": 86,
      "start": 28.8365,
      "duration": 0.1371,
      "velocity": 95,
      "chip": "ym2612"
    },
    {
      "channel": 4,
      "note": 76,
      "start": 28.9765,
      "duration": 0.1571,
      "velocity": 95,
      "chip": "ym2612"
    },
    {
      "channel": 4,
      "note": 71,
      "start": 29.1365,
      "duration": 0.1371,
      "velocity": 95,
      "chip": "ym2612"
    },
    {
      "channel": 4,
      "note": 64,
      "start": 29.2765,
      "duration": 0.1371,
      "velocity": 95,
      "chip": "ym2612"
    },
    {
      "channel": 4,
      "note": 71,
      "start": 29.4165,
      "duration": 0.1569,
      "velocity": 95,
      "chip": "ym2612"
    },
    {
      "channel": 4,
      "note": 76,
      "start": 29.5764,
      "duration": 0.1371,
      "velocity": 95,
      "chip": "ym2612"
    },
    {
      "channel": 4,
      "note": 83,
      "start": 29.7164,
      "duration": 0.1372,
      "velocity": 95,
      "chip": "ym2612"
    },
    {
      "channel": 4,
      "note": 92,
      "start": 29.8565,
      "duration": 0.137,
      "velocity": 95,
      "chip": "ym2612"
    },
    {
      "channel": 1,
      "note": 74,
      "start": 29.8594,
      "duration": 0.5741,
      "velocity": 111,
      "chip": "ym2612"
    },
    {
      "channel": 4,
      "note": 86,
      "start": 29.9965,
      "duration": 0.1571,
      "velocity": 95,
      "chip": "ym2612"
    },
    {
      "channel": 4,
      "note": 76,
      "start": 30.1565,
      "duration": 0.1371,
      "velocity": 95,
      "chip": "ym2612"
    },
    {
      "channel": 4,
      "note": 71,
      "start": 30.2965,
      "duration": 0.1372,
      "velocity": 95,
      "chip": "ym2612"
    },
    {
      "channel": 4,
      "note": 64,
      "start": 30.4367,
      "duration": 0.1568,
      "velocity": 95,
      "chip": "ym2612"
    },
    {
      "channel": 1,
      "note": 76,
      "start": 30.4395,
      "duration": 1.1739,
      "velocity": 111,
      "chip": "ym2612"
    },
    {
      "channel": 0,
      "note": 68,
      "start": 30.4419,
      "duration": 2.3314,
      "velocity": 112,
      "chip": "ym2612"
    },
    {
      "channel": 4,
      "note": 71,
      "start": 30.5964,
      "duration": 0.1371,
      "velocity": 95,
      "chip": "ym2612"
    },
    {
      "channel": 4,
      "note": 76,
      "start": 30.7368,
      "duration": 0.1368,
      "velocity": 95,
      "chip": "ym2612"
    },
    {
      "channel": 4,
      "note": 83,
      "start": 30.8765,
      "duration": 0.1571,
      "velocity": 95,
      "chip": "ym2612"
    },
    {
      "channel": 4,
      "note": 92,
      "start": 31.0365,
      "duration": 0.1371,
      "velocity": 95,
      "chip": "ym2612"
    },
    {
      "channel": 4,
      "note": 86,
      "start": 31.1765,
      "duration": 0.1371,
      "velocity": 95,
      "chip": "ym2612"
    },
    {
      "channel": 4,
      "note": 76,
      "start": 31.3165,
      "duration": 0.1569,
      "velocity": 95,
      "chip": "ym2612"
    },
    {
      "channel": 4,
      "note": 71,
      "start": 31.4764,
      "duration": 0.1372,
      "velocity": 95,
      "chip": "ym2612"
    },
    {
      "channel": 4,
      "note": 64,
      "start": 31.6165,
      "duration": 0.1371,
      "velocity": 95,
      "chip": "ym2612"
    },
    {
      "channel": 1,
      "note": 78,
      "start": 31.6191,
      "duration": 1.1544,
      "velocity": 111,
      "chip": "ym2612"
    },
    {
      "channel": 4,
      "note": 71,
      "start": 31.7565,
      "duration": 0.1571,
      "velocity": 95,
      "chip": "ym2612"
    },
    {
      "channel": 4,
      "note": 76,
      "start": 31.9165,
      "duration": 0.1371,
      "velocity": 95,
      "chip": "ym2612"
    },
    {
      "channel": 4,
      "note": 83,
      "start": 32.0565,
      "duration": 0.1371,
      "velocity": 95,
      "chip": "ym2612"
    },
    {
      "channel": 4,
      "note": 92,
      "start": 32.1965,
      "duration": 0.1569,
      "velocity": 95,
      "chip": "ym2612"
    },
    {
      "channel": 4,
      "note": 86,
      "start": 32.3564,
      "duration": 0.1371,
      "velocity": 95,
      "chip": "ym2612"
    },
    {
      "channel": 4,
      "note": 76,
      "start": 32.4964,
      "duration": 0.1371,
      "velocity": 95,
      "chip": "ym2612"
    },
    {
      "channel": 4,
      "note": 71,
      "start": 32.6365,
      "duration": 0.1373,
      "velocity": 95,
      "chip": "ym2612"
    },
    {
      "channel": 4,
      "note": 64,
      "start": 32.7767,
      "duration": 0.1568,
      "velocity": 95,
      "chip": "ym2612"
    },
    {
      "channel": 1,
      "note": 79,
      "start": 32.7792,
      "duration": 1.1744,
      "velocity": 111,
      "chip": "ym2612"
    },
    {
      "channel": 0,
      "note": 69,
      "start": 32.7823,
      "duration": 1.1711,
      "velocity": 112,
      "chip": "ym2612"
    },
    {
      "channel": 3,
      "note": 55,
      "start": 32.7848,
      "duration": 4.6889,
      "velocity": 99,
      "chip": "ym2612"
    },
    {
      "channel": 4,
      "note": 71,
      "start": 32.9364,
      "duration": 0.1371,
      "velocity": 95,
      "chip": "ym2612"
    },
    {
      "channel": 4,
      "note": 79,
      "start": 33.0768,
      "duration": 0.1367,
      "velocity": 95,
      "chip": "ym2612"
    },
    {
      "channel": 4,
      "note": 83,
      "start": 33.2164,
      "duration": 0.1571,
      "velocity": 95,
      "chip": "ym2612"
    },
    {
      "channel": 4,
      "note": 91,
      "start": 33.3765,
      "duration": 0.1371,
      "velocity": 95,
      "chip": "ym2612"
    },
    {
      "channel": 4,
      "note": 85,
      "start": 33.5165,
      "duration": 0.1371,
      "velocity": 95,
      "chip": "ym2612"
    },
    {
      "channel": 4,
      "note": 79,
      "start": 33.6565,
      "duration": 0.1571,
      "velocity": 95,
      "chip": "ym2612"
    },
    {
      "channel": 4,
      "note": 71,
      "start": 33.8165,
      "duration": 0.1373,
      "velocity": 95,
      "chip": "ym2612"
    },
    {
      "channel": 4,
      "note": 64,
      "start": 33.9567,
      "duration": 0.1369,
      "velocity": 95,
      "chip": "ym2612"
    },
    {
      "channel": 1,
      "note": 78,
      "start": 33.9599,
      "duration": 0.5735,
      "velocity": 111,
      "chip": "ym2612"
    },
    {
      "channel": 0,
      "note": 67,
      "start": 33.9623,
      "duration": 1.1511,
      "velocity": 112,
      "chip": "ym2612"
    },
    {
      "channel": 4,
      "note": 71,
      "start": 34.0965,
      "duration": 0.1569,
      "velocity": 95,
      "chip": "ym2612"
    },
    {
      "channel": 4,
      "note": 79,
      "start": 34.2564,
      "duration": 0.1371,
      "velocity": 95,
      "chip": "ym2612"
    },
    {
      "channel": 4,
      "note": 83,
      "start": 34.3964,
      "duration": 0.1372,
      "velocity": 95,
      "chip": "ym2612"
    },
    {
      "channel": 4,
      "note": 91,
      "start": 34.5365,
      "duration": 0.157,
      "velocity": 95,
      "chip": "ym2612"
    },
    {
      "channel": 1,
      "note": 76,
      "start": 34.5391,
      "duration": 0.5744,
      "velocity": 111,
      "chip": "ym2612"
    },
    {
      "channel": 4,
      "note": 85,
      "start": 34.6965,
      "duration": 0.1371,
      "velocity": 95,
      "chip": "ym2612"
    },
    {
      "channel": 4,
      "note": 79,
      "start": 34.8365,
      "duration": 0.137,
      "velocity": 95,
      "chip": "ym2612"
    },
    {
      "channel": 4,
      "note": 71,
      "start": 34.9765,
      "duration": 0.1373,
      "velocity": 95,
      "chip": "ym2612"
    },
    {
      "channel": 4,
      "note": 64,
      "start": 35.1167,
      "duration": 0.1569,
      "velocity": 95,
      "chip": "ym2612"
    },
    {
      "channel": 1,
      "note": 81,
      "start": 35.1195,
      "duration": 1.1739,
      "velocity": 111,
      "chip": "ym2612"
    },
    {
      "channel": 0,
      "note": 67,
      "start": 35.1222,
      "duration": 2.3512,
      "velocity": 112,
      "chip": "ym2612"
    },
    {
      "channel": 4,
      "note": 71,
      "start": 35.2765,
      "duration": 0.1371,
      "velocity": 95,
      "chip": "ym2612"
    },
    {
      "channel": 4,
      "note": 79,
      "start": 35.4168,
      "duration": 0.1367,
      "velocity": 95,
      "chip": "ym2612"
    },
    {
      "channel": 4,
      "note": 83,
      "start": 35.5565,
      "duration": 0.1571,
      "velocity": 95,
      "chip": "ym2612"
    },
    {
      "channel": 4,
      "note": 91,
      "start": 35.7165,
      "duration": 0.1371,
      "velocity": 95,
      "chip": "ym2612"
    },
    {
      "channel": 4,
      "note": 85,
      "start": 35.8565,
      "duration": 0.1369,
      "velocity": 95,
      "chip": "ym2612"
    },
    {
      "channel": 4,
      "note": 79,
      "start": 35.9964,
      "duration": 0.1571,
      "velocity": 95,
      "chip": "ym2612"
    },
    {
      "channel": 4,
      "note": 71,
      "start": 36.1564,
      "duration": 0.1372,
      "velocity": 95,
      "chip": "ym2612"
    },
    {
      "channel": 4,
      "note": 64,
      "start": 36.2965,
      "duration": 0.1371,
      "velocity": 95,
      "chip": "ym2612"
    },
    {
      "channel": 1,
      "note": 83,
      "start": 36.2991,
      "duration": 1.1744,
      "velocity": 111,
      "chip": "ym2612"
    },
    {
      "channel": 4,
      "note": 66,
      "start": 36.4365,
      "duration": 0.1569,
      "velocity": 95,
      "chip": "ym2612"
    },
    {
      "channel": 4,
      "note": 67,
      "start": 36.5964,
      "duration": 0.1371,
      "velocity": 95,
      "chip": "ym2612"
    },
    {
      "channel": 4,
      "note": 69,
      "start": 36.7365,
      "duration": 0.1371,
      "velocity": 95,
      "chip": "ym2612"
    },
    {
      "channel": 4,
      "note": 71,
      "start": 36.8765,
      "duration": 0.1571,
      "velocity": 95,
      "chip": "ym2612"
    },
    {
      "channel": 4,
      "note": 73,
      "start": 37.0365,
      "duration": 0.1371,
      "velocity": 95,
      "chip": "ym2612"
    },
    {
      "channel": 4,
      "note": 74,
      "start": 37.1765,
      "duration": 0.1371,
      "velocity": 95,
      "chip": "ym2612"
    },
    {
      "channel": 4,
      "note": 76,
      "start": 37.3165,
      "duration": 0.1573,
      "velocity": 95,
      "chip": "ym2612"
    },
    {
      "channel": 4,
      "note": 78,
      "start": 37.4774,
      "duration": 0.8267,
      "velocity": 95,
      "chip": "ym2612"
    },
    {
      "channel": 1,
      "note": 83,
      "start": 37.4803,
      "duration": 1.7601,
      "velocity": 111,
      "chip": "ym2612"
    },
    {
      "channel": 0,
      "note": 88,
      "start": 37.4845,
      "duration": 0.4844,
      "velocity": 97,
      "chip": "ym2612"
    },
    {
      "channel": 3,
      "note": 59,
      "start": 37.4885,
      "duration": 0.5988,
      "velocity": 113,
      "chip": "ym2612"
    },
    {
      "channel": 0,
      "note": 86,
      "start": 37.9726,
      "duration": 0.1145,
      "velocity": 97,
      "chip": "ym2612"
    },
    {
      "channel": 0,
      "note": 85,
      "start": 38.0902,
      "duration": 0.2136,
      "velocity": 97,
      "chip": "ym2612"
    },
    {
      "channel": 3,
      "note": 59,
      "start": 38.0932,
      "duration": 0.5107,
      "velocity": 113,
      "chip": "ym2612"
    },
    {
      "channel": 4,
      "note": 83,
      "start": 38.3071,
      "duration": 0.9336,
      "velocity": 95,
      "chip": "ym2612"
    },
    {
      "channel": 0,
      "note": 86,
      "start": 38.3098,
      "duration": 0.4908,
      "velocity": 97,
      "chip": "ym2612"
    },
    {
      "channel": 3,
      "note": 57,
      "start": 38.6078,
      "duration": 0.2576,
      "velocity": 113,
      "chip": "ym2612"
    },
    {
      "channel": 0,
      "note": 83,
      "start": 38.804,
      "duration": 0.9324,
      "velocity": 97,
      "chip": "ym2612"
    },
    {
      "channel": 3,
      "note": 59,
      "start": 38.8682,
      "duration": 0.3723,
      "velocity": 113,
      "chip": "ym2612"
    },
    {
      "channel": 4,
      "note": 76,
      "start": 39.2436,
      "duration": 0.8255,
      "velocity": 95,
      "chip": "ym2612"
    },
    {
      "channel": 1,
      "note": 81,
      "start": 39.2473,
      "duration": 1.7373,
      "velocity": 111,
      "chip": "ym2612"
    },
    {
      "channel": 3,
      "note": 47,
      "start": 39.2503,
      "duration": 0.6043,
      "velocity": 113,
      "chip": "ym2612"
    },
    {
      "channel": 0,
      "note": 86,
      "start": 39.7397,
      "duration": 0.329,
      "velocity": 97,
      "chip": "ym2612"
    },
    {
      "channel": 3,
      "note": 47,
      "start": 39.8581,
      "duration": 0.2109,
      "velocity": 113,
      "chip": "ym2612"
    },
    {
      "channel": 4,
      "note": 85,
      "start": 40.0723,
      "duration": 0.4934,
      "velocity": 95,
      "chip": "ym2612"
    },
    {
      "channel": 0,
      "note": 85,
      "start": 40.0748,
      "duration": 0.4905,
      "velocity": 97,
      "chip": "ym2612"
    },
    {
      "channel": 3,
      "note": 47,
      "start": 40.0777,
      "duration": 0.4878,
      "velocity": 113,
      "chip": "ym2612"
    },
    {
      "channel": 4,
      "note": 88,
      "start": 40.5687,
      "duration": 0.4161,
      "velocity": 95,
      "chip": "ym2612"
    },
    {
      "channel": 0,
      "note": 81,
      "start": 40.5712,
      "duration": 0.4133,
      "velocity": 97,
      "chip": "ym2612"
    },
    {
      "channel": 3,
      "note": 49,
      "start": 40.5737,
      "duration": 0.411,
      "velocity": 113,
      "chip": "ym2612"
    },
    {
      "channel": 4,
      "note": 86,
      "start": 40.9881,
      "duration": 0.1922,
      "velocity": 95,
      "chip": "ym2612"
    },
    {
      "channel": 1,
      "note": 78,
      "start": 40.991,
      "duration": 0.8239,
      "velocity": 111,
      "chip": "ym2612"
    },
    {
      "channel": 0,
      "note": 81,
      "start": 40.994,
      "duration": 1.757,
      "velocity": 97,
      "chip": "ym2612"
    },
    {
      "channel": 3,
      "note": 50,
      "start": 40.9969,
      "duration": 0.6018,
      "velocity": 113,
      "chip": "ym2612"
    },
    {
      "channel": 4,
      "note": 85,
      "start": 41.1832,
      "duration": 0.297,
      "velocity": 95,
      "chip": "ym2612"
    },
    {
      "channel": 4,
      "note": 83,
      "start": 41.4832,
      "duration": 0.1157,
      "velocity": 95,
      "chip": "ym2612"
    },
    {
      "channel": 4,
      "note": 81,
      "start": 41.6018,
      "duration": 0.2132,
      "velocity": 95,
      "chip": "ym2612"
    },
    {
      "channel": 3,
      "note": 50,
      "start": 41.6053,
      "duration": 0.5097,
      "velocity": 113,
      "chip": "ym2612"
    },
    {
      "channel": 4,
      "note": 79,
      "start": 41.818,
      "duration": 0.2971,
      "velocity": 95,
      "chip": "ym2612"
    },
    {
      "channel": 1,
      "note": 74,
      "start": 41.8206,
      "duration": 0.9305,
      "velocity": 111,
      "chip": "ym2612"
    },
    {
      "channel": 4,
      "note": 78,
      "start": 42.118,
      "duration": 0.1936,
      "velocity": 95,
      "chip": "ym2612"
    },
    {
      "channel": 3,
      "note": 45,
      "start": 42.1211,
      "duration": 0.255,
      "velocity": 113,
      "chip": "ym2612"
    },
    {
      "channel": 4,
      "note": 76,
      "start": 42.3145,
      "duration": 0.1368,
      "velocity": 95,
      "chip": "ym2612"
    },
    {
      "channel": 3,
      "note": 50,
      "start": 42.3788,
      "duration": 0.3724,
      "velocity": 113,
      "chip": "ym2612"
    },
    {
      "channel": 4,
      "note": 74,
      "start": 42.4545,
      "duration": 0.2969,
      "velocity": 95,
      "chip": "ym2612"
    },
    {
      "channel": 4,
      "note": 76,
      "start": 42.7547,
      "duration": 0.4924,
      "velocity": 95,
      "chip": "ym2612"
    },
    {
      "channel": 1,
      "note": 74,
      "start": 42.7573,
      "duration": 0.8246,
      "velocity": 111,
      "chip": "ym2612"
    },
    {
      "channel": 0,
      "note": 80,
      "start": 42.7597,
      "duration": 1.7401,
      "velocity": 97,
      "chip": "ym2612"
    },
    {
      "channel": 3,
      "note": 62,
      "start": 42.7625,
      "duration": 0.6029,
      "velocity": 113,
      "chip": "ym2612"
    },
    {
      "channel": 4,
      "note": 69,
      "start": 43.2501,
      "duration": 0.332,
      "velocity": 95,
      "chip": "ym2612"
    },
    {
      "channel": 3,
      "note": 62,
      "start": 43.369,
      "duration": 0.213,
      "velocity": 113,
      "chip": "ym2612"
    },
    {
      "channel": 4,
      "note": 78,
      "start": 43.5851,
      "duration": 0.4943,
      "velocity": 95,
      "chip": "ym2612"
    },
    {
      "channel": 1,
      "note": 76,
      "start": 43.5876,
      "duration": 0.9122,
      "velocity": 111,
      "chip": "ym2612"
    },
    {
      "channel": 3,
      "note": 61,
      "start": 43.5907,
      "duration": 0.4887,
      "velocity": 113,
      "chip": "ym2612"
    },
    {
      "channel": 4,
      "note": 73,
      "start": 44.0824,
      "duration": 0.4178,
      "velocity": 95,
      "chip": "ym2612"
    },
    {
      "channel": 3,
      "note": 57,
      "start": 44.0856,
      "duration": 0.4145,
      "velocity": 113,
      "chip": "ym2612"
    },
    {
      "channel": 4,
      "note": 78,
      "start": 44.5034,
      "duration": 0.8271,
      "velocity": 95,
      "chip": "ym2612"
    },
    {
      "channel": 1,
      "note": 83,
      "start": 44.5069,
      "duration": 1.7596,
      "velocity": 111,
      "chip": "ym2612"
    },
    {
      "channel": 0,
      "note": 88,
      "start": 44.5096,
      "duration": 0.4865,
      "velocity": 97,
      "chip": "ym2612"
    },
    {
      "channel": 3,
      "note": 59,
      "start": 44.5124,
      "duration": 0.6223,
      "velocity": 113,
      "chip": "ym2612"
    },
    {
      "channel": 0,
      "note": 86,
      "start": 44.9993,
      "duration": 0.1352,
      "velocity": 97,
      "chip": "ym2612"
    },
    {
      "channel": 0,
      "note": 85,
      "start": 45.1376,
      "duration": 0.1927,
      "velocity": 97,
      "chip": "ym2612"
    },
    {
      "channel": 3,
      "note": 59,
      "start": 45.1405,
      "duration": 0.4899,
      "velocity": 113,
      "chip": "ym2612"
    },
    {
      "channel": 4,
      "note": 83,
      "start": 45.3335,
      "duration": 0.9333,
      "velocity": 95,
      "chip": "ym2612"
    },
    {
      "channel": 0,
      "note": 86,
      "start": 45.3363,
      "duration": 0.4906,
      "velocity": 97,
      "chip": "ym2612"
    },
    {
      "channel": 3,
      "note": 57,
      "start": 45.634,
      "duration": 0.2576,
      "velocity": 113,
      "chip": "ym2612"
    },
    {
      "channel": 0,
      "note": 83,
      "start": 45.8302,
      "duration": 0.9318,
      "velocity": 97,
      "chip": "ym2612"
    },
    {
      "channel": 3,
      "note": 59,
      "start": 45.8941,
      "duration": 0.3726,
      "velocity": 113,
      "chip": "ym2612"
    },
    {
      "channel": 4,
      "note": 76,
      "start": 46.2697,
      "duration": 0.8265,
      "velocity": 95,
      "chip": "ym2612"
    },
    {
      "channel": 1,
      "note": 81,
      "start": 46.2734,
      "duration": 1.7383,
      "velocity": 111,
      "chip": "ym2612"
    },
    {
      "channel": 3,
      "note": 47,
      "start": 46.2764,
      "duration": 0.6235,
      "velocity": 113,
      "chip": "ym2612"
    },
    {
      "channel": 0,
      "note": 86,
      "start": 46.7658,
      "duration": 0.3301,
      "velocity": 97,
      "chip": "ym2612"
    },
    {
      "channel": 3,
      "note": 47,
      "start": 46.9038,
      "duration": 0.1923,
      "velocity": 113,
      "chip": "ym2612"
    },
    {
      "channel": 4,
      "note": 85,
      "start": 47.0995,
      "duration": 0.4934,
      "velocity": 95,
      "chip": "ym2612"
    },
    {
      "channel": 0,
      "note": 85,
      "start": 47.102,
      "duration": 0.4906,
      "velocity": 97,
      "chip": "ym2612"
    },
    {
      "channel": 3,
      "note": 47,
      "start": 47.1048,
      "duration": 0.4879,
      "velocity": 113,
      "chip": "ym2612"
    },
    {
      "channel": 4,
      "note": 88,
      "start": 47.5958,
      "duration": 0.4162,
      "velocity": 95,
      "chip": "ym2612"
    },
    {
      "channel": 0,
      "note": 81,
      "start": 47.5983,
      "duration": 0.4133,
      "velocity": 97,
      "chip": "ym2612"
    },
    {
      "channel": 3,
      "note": 49,
      "start": 47.6008,
      "duration": 0.411,
      "velocity": 113,
      "chip": "ym2612"
    },
    {
      "channel": 4,
      "note": 86,
      "start": 48.0156,
      "duration": 0.1918,
      "velocity": 95,
      "chip": "ym2612"
    },
    {
      "channel": 1,
      "note": 78,
      "start": 48.0185,
      "duration": 0.824,
      "velocity": 111,
      "chip": "ym2612"
    },
    {
      "channel": 0,
      "note": 81,
      "start": 48.0212,
      "duration": 1.758,
      "velocity": 97,
      "chip": "ym2612"
    },
    {
      "channel": 3,
      "note": 50,
      "start": 48.0241,
      "duration": 0.6217,
      "velocity": 113,
      "chip": "ym2612"
    },
    {
      "channel": 4,
      "note": 85,
      "start": 48.2104,
      "duration": 0.297,
      "velocity": 95,
      "chip": "ym2612"
    },
    {
      "channel": 4,
      "note": 83,
      "start": 48.5103,
      "duration": 0.1356,
      "velocity": 95,
      "chip": "ym2612"
    },
    {
      "channel": 4,
      "note": 81,
      "start": 48.6488,
      "duration": 0.1938,
      "velocity": 95,
      "chip": "ym2612"
    },
    {
      "channel": 3,
      "note": 50,
      "start": 48.6519,
      "duration": 0.4906,
      "velocity": 113,
      "chip": "ym2612"
    },
    {
      "channel": 4,
      "note": 79,
      "start": 48.8456,
      "duration": 0.2971,
      "velocity": 95,
      "chip": "ym2612"
    },
    {
      "channel": 1,
      "note": 74,
      "start": 48.8482,
      "duration": 0.9311,
      "velocity": 111,
      "chip": "ym2612"
    },
    {
      "channel": 4,
      "note": 78,
      "start": 49.1456,
      "duration": 0.1935,
      "velocity": 95,
      "chip": "ym2612"
    },
    {
      "channel": 3,
      "note": 45,
      "start": 49.1487,
      "duration": 0.2554,
      "velocity": 113,
      "chip": "ym2612"
    },
    {
      "channel": 4,
      "note": 76,
      "start": 49.342,
      "duration": 0.1373,
      "velocity": 95,
      "chip": "ym2612"
    },
    {
      "channel": 3,
      "note": 50,
      "start": 49.4066,
      "duration": 0.3729,
      "velocity": 113,
      "chip": "ym2612"
    },
    {
      "channel": 4,
      "note": 74,
      "start": 49.4822,
      "duration": 0.2975,
      "velocity": 95,
      "chip": "ym2612"
    },
    {
      "channel": 4,
      "note": 76,
      "start": 49.7829,
      "duration": 0.4927,
      "velocity": 95,
      "chip": "ym2612"
    },
    {
      "channel": 1,
      "note": 74,
      "start": 49.7854,
      "duration": 0.8255,
      "velocity": 111,
      "chip": "ym2612"
    },
    {
      "channel": 0,
      "note": 80,
      "start": 49.7881,
      "duration": 1.7409,
      "velocity": 97,
      "chip": "ym2612"
    },
    {
      "channel": 3,
      "note": 62,
      "start": 49.7914,
      "duration": 0.6228,
      "velocity": 113,
      "chip": "ym2612"
    },
    {
      "channel": 4,
      "note": 69,
      "start": 50.2785,
      "duration": 0.3326,
      "velocity": 95,
      "chip": "ym2612"
    },
    {
      "channel": 3,
      "note": 62,
      "start": 50.4177,
      "duration": 0.1934,
      "velocity": 113,
      "chip": "ym2612"
    },
    {
      "channel": 4,
      "note": 78,
      "start": 50.6142,
      "duration": 0.4944,
      "velocity": 95,
      "chip": "ym2612"
    },
    {
      "channel": 1,
      "note": 76,
      "start": 50.617,
      "duration": 0.9121,
      "velocity": 111,
      "chip": "ym2612"
    },
    {
      "channel": 3,
      "note": 61,
      "start": 50.62,
      "duration": 0.4884,
      "velocity": 113,
      "chip": "ym2612"
    },
    {
      "channel": 4,
      "note": 73,
      "start": 51.1121,
      "duration": 0.4173,
      "velocity": 95,
      "chip": "ym2612"
    },
    {
      "channel": 3,
      "note": 57,
      "start": 51.1149,
      "duration": 0.4143,
      "velocity": 113,
      "chip": "ym2612"
    },
    {
      "channel": 3,
      "note": 59,
      "start": 51.533,
      "duration": 0.0297,
      "velocity": 113,
      "chip": "ym2612"
    },
    {
      "channel": 3,
      "note": 47,
      "start": 51.5648,
      "duration": 0.0265,
      "velocity": 113,
      "chip": "ym2612"
    },
    {
      "channel": 3,
      "note": 47,
      "start": 51.5935,
      "duration": 0.0293,
      "velocity": 113,
      "chip": "ym2612"
    },
    {
      "channel": 3,
      "note": 47,
      "start": 51.625,
      "duration": 0.0327,
      "velocity": 113,
      "chip": "ym2612"
    },
    {
      "channel": 3,
      "note": 47,
      "start": 51.6616,
      "duration": 0.2577,
      "velocity": 113,
      "chip": "ym2612"
    },
    {
      "channel": 3,
      "note": 47,
      "start": 51.9229,
      "duration": 0.0291,
      "velocity": 113,
      "chip": "ym2612"
    },
    {
      "channel": 3,
      "note": 47,
      "start": 51.9541,
      "duration": 0.0259,
      "velocity": 113,
      "chip": "ym2612"
    },
    {
      "channel": 0,
      "note": 78,
      "start": 51.9821,
      "duration": 0.2631,
      "velocity": 97,
      "chip": "ym2612"
    },
    {
      "channel": 3,
      "note": 57,
      "start": 51.984,
      "duration": 0.0344,
      "velocity": 113,
      "chip": "ym2612"
    },
    {
      "channel": 3,
      "note": 47,
      "start": 52.0211,
      "duration": 0.0248,
      "velocity": 113,
      "chip": "ym2612"
    },
    {
      "channel": 3,
      "note": 47,
      "start": 52.0482,
      "duration": 0.0248,
      "velocity": 113,
      "chip": "ym2612"
    },
    {
      "channel": 3,
      "note": 47,
      "start": 52.0751,
      "duration": 0.0283,
      "velocity": 113,
      "chip": "ym2612"
    },
    {
      "channel": 3,
      "note": 47,
      "start": 52.1063,
      "duration": 0.0248,
      "velocity": 113,
      "chip": "ym2612"
    },
    {
      "channel": 3,
      "note": 47,
      "start": 52.1333,
      "duration": 0.112,
      "velocity": 113,
      "chip": "ym2612"
    },
    {
      "channel": 0,
      "note": 80,
      "start": 52.249,
      "duration": 0.8477,
      "velocity": 97,
      "chip": "ym2612"
    },
    {
      "channel": 3,
      "note": 62,
      "start": 52.2517,
      "duration": 0.029,
      "velocity": 113,
      "chip": "ym2612"
    },
    {
      "channel": 3,
      "note": 47,
      "start": 52.2828,
      "duration": 0.0297,
      "velocity": 113,
      "chip": "ym2612"
    },
    {
      "channel": 3,
      "note": 47,
      "start": 52.3151,
      "duration": 0.0244,
      "velocity": 113,
      "chip": "ym2612"
    },
    {
      "channel": 3,
      "note": 47,
      "start": 52.3417,
      "duration": 0.0318,
      "velocity": 113,
      "chip": "ym2612"
    },
    {
      "channel": 3,
      "note": 47,
      "start": 52.3772,
      "duration": 0.0334,
      "velocity": 113,
      "chip": "ym2612"
    },
    {
      "channel": 3,
      "note": 47,
      "start": 52.4128,
      "duration": 0.0253,
      "velocity": 113,
      "chip": "ym2612"
    },
    {
      "channel": 3,
      "note": 47,
      "start": 52.4404,
      "duration": 0.2518,
      "velocity": 113,
      "chip": "ym2612"
    },
    {
      "channel": 3,
      "note": 47,
      "start": 52.6957,
      "duration": 0.0292,
      "velocity": 113,
      "chip": "ym2612"
    },
    {
      "channel": 3,
      "note": 47,
      "start": 52.7271,
      "duration": 0.0259,
      "velocity": 113,
      "chip": "ym2612"
    },
    {
      "channel": 3,
      "note": 62,
      "start": 52.7554,
      "duration": 0.0446,
      "velocity": 113,
      "chip": "ym2612"
    },
    {
      "channel": 3,
      "note": 47,
      "start": 52.8037,
      "duration": 0.0368,
      "velocity": 113,
      "chip": "ym2612"
    },
    {
      "channel": 3,
      "note": 47,
      "start": 52.8432,
      "duration": 0.0356,
      "velocity": 113,
      "chip": "ym2612"
    },
    {
      "channel": 3,
      "note": 47,
      "start": 52.8816,
      "duration": 0.0943,
      "velocity": 113,
      "chip": "ym2612"
    },
    {
      "channel": 3,
      "note": 49,
      "start": 52.9792,
      "duration": 0.0332,
      "velocity": 113,
      "chip": "ym2612"
    },
    {
      "channel": 3,
      "note": 49,
      "start": 53.0145,
      "duration": 0.0253,
      "velocity": 113,
      "chip": "ym2612"
    },
    {
      "channel": 3,
      "note": 49,
      "start": 53.0422,
      "duration": 0.0546,
      "velocity": 113,
      "chip": "ym2612"
    },
    {
      "channel": 3,
      "note": 50,
      "start": 53.0992,
      "duration": 0.0281,
      "velocity": 113,
      "chip": "ym2612"
    },
    {
      "channel": 3,
      "note": 50,
      "start": 53.1294,
      "duration": 0.0253,
      "velocity": 113,
      "chip": "ym2612"
    },
    {
      "channel": 3,
      "note": 50,
      "start": 53.1569,
      "duration": 0.0288,
      "velocity": 113,
      "chip": "ym2612"
    },
    {
      "channel": 3,
      "note": 50,
      "start": 53.1881,
      "duration": 0.031,
      "velocity": 113,
      "chip": "ym2612"
    },
    {
      "channel": 3,
      "note": 50,
      "start": 53.2227,
      "duration": 0.2583,
      "velocity": 113,
      "chip": "ym2612"
    },
    {
      "channel": 3,
      "note": 50,
      "start": 53.4846,
      "duration": 0.0297,
      "velocity": 113,
      "chip": "ym2612"
    },
    {
      "channel": 3,
      "note": 50,
      "start": 53.5165,
      "duration": 0.0259,
      "velocity": 113,
      "chip": "ym2612"
    },
    {
      "channel": 0,
      "note": 81,
      "start": 53.5445,
      "duration": 0.5033,
      "velocity": 97,
      "chip": "ym2612"
    },
    {
      "channel": 3,
      "note": 62,
      "start": 53.5465,
      "duration": 0.0457,
      "velocity": 113,
      "chip": "ym2612"
    },
    {
      "channel": 3,
      "note": 50,
      "start": 53.5961,
      "duration": 0.0355,
      "velocity": 113,
      "chip": "ym2612"
    },
    {
      "channel": 3,
      "note": 50,
      "start": 53.6353,
      "duration": 0.0368,
      "velocity": 113,
      "chip": "ym2612"
    },
    {
      "channel": 3,
      "note": 50,
      "start": 53.6748,
      "duration": 0.0931,
      "velocity": 113,
      "chip": "ym2612"
    },
    {
      "channel": 3,
      "note": 50,
      "start": 53.7711,
      "duration": 0.1367,
      "velocity": 113,
      "chip": "ym2612"
    },
    {
      "channel": 3,
      "note": 50,
      "start": 53.9111,
      "duration": 0.1369,
      "velocity": 113,
      "chip": "ym2612"
    },
    {
      "channel": 0,
      "note": 85,
      "start": 54.0513,
      "duration": 1.3072,
      "velocity": 97,
      "chip": "ym2612"
    },
    {
      "channel": 3,
      "note": 57,
      "start": 54.0539,
      "duration": 0.0326,
      "velocity": 113,
      "chip": "ym2612"
    },
    {
      "channel": 3,
      "note": 50,
      "start": 54.0888,
      "duration": 0.0254,
      "velocity": 113,
      "chip": "ym2612"
    },
    {
      "channel": 3,
      "note": 50,
      "start": 54.1167,
      "duration": 0.0249,
      "velocity": 113,
      "chip": "ym2612"
    },
    {
      "channel": 3,
      "note": 50,
      "start": 54.1438,
      "duration": 0.0323,
      "velocity": 113,
      "chip": "ym2612"
    },
    {
      "channel": 3,
      "note": 50,
      "start": 54.1793,
      "duration": 0.0337,
      "velocity": 113,
      "chip": "ym2612"
    },
    {
      "channel": 3,
      "note": 50,
      "start": 54.2152,
      "duration": 0.0253,
      "velocity": 113,
      "chip": "ym2612"
    },
    {
      "channel": 3,
      "note": 50,
      "start": 54.2428,
      "duration": 0.2519,
      "velocity": 113,
      "chip": "ym2612"
    },
    {
      "channel": 3,
      "note": 50,
      "start": 54.4987,
      "duration": 0.0291,
      "velocity": 113,
      "chip": "ym2612"
    },
    {
      "channel": 3,
      "note": 50,
      "start": 54.53,
      "duration": 0.026,
      "velocity": 113,
      "chip": "ym2612"
    },
    {
      "channel": 3,
      "note": 61,
      "start": 54.558,
      "duration": 0.0444,
      "velocity": 113,
      "chip": "ym2612"
    },
    {
      "channel": 3,
      "note": 50,
      "start": 54.6061,
      "duration": 0.0357,
      "velocity": 113,
      "chip": "ym2612"
    },
    {
      "channel": 3,
      "note": 50,
      "start": 54.6456,
      "duration": 0.0363,
      "velocity": 113,
      "chip": "ym2612"
    },
    {
      "channel": 3,
      "note": 50,
      "start": 54.6845,
      "duration": 0.0941,
      "velocity": 113,
      "chip": "ym2612"
    },
    {
      "channel": 3,
      "note": 50,
      "start": 54.7822,
      "duration": 0.2764,
      "velocity": 113,
      "chip": "ym2612"
    },
    {
      "channel": 3,
      "note": 45,
      "start": 55.0619,
      "duration": 0.2968,
      "velocity": 113,
      "chip": "ym2612"
    },
    {
      "channel": 3,
      "note": 59,
      "start": 55.3623,
      "duration": 0.0298,
      "velocity": 113,
      "chip": "ym2612"
    },
    {
      "channel": 3,
      "note": 47,
      "start": 55.3942,
      "duration": 0.0256,
      "velocity": 113,
      "chip": "ym2612"
    },
    {
      "channel": 3,
      "note": 47,
      "start": 55.422,
      "duration": 0.0288,
      "velocity": 113,
      "chip": "ym2612"
    },
    {
      "channel": 3,
      "note": 47,
      "start": 55.4532,
      "duration": 0.0347,
      "velocity": 113,
      "chip": "ym2612"
    },
    {
      "channel": 3,
      "note": 47,
      "start": 55.4918,
      "duration": 0.2579,
      "velocity": 113,
      "chip": "ym2612"
    },
    {
      "channel": 3,
      "note": 47,
      "start": 55.7533,
      "duration": 0.0297,
      "velocity": 113,
      "chip": "ym2612"
    },
    {
      "channel": 3,
      "note": 47,
      "start": 55.7851,
      "duration": 0.0255,
      "velocity": 113,
      "chip": "ym2612"
    },
    {
      "channel": 0,
      "note": 83,
      "start": 55.8126,
      "duration": 0.2639,
      "velocity": 97,
      "chip": "ym2612"
    },
    {
      "channel": 3,
      "note": 57,
      "start": 55.8146,
      "duration": 0.0341,
      "velocity": 113,
      "chip": "ym2612"
    },
    {
      "channel": 3,
      "note": 47,
      "start": 55.8509,
      "duration": 0.0251,
      "velocity": 113,
      "chip": "ym2612"
    },
    {
      "channel": 3,
      "note": 47,
      "start": 55.8782,
      "duration": 0.0251,
      "velocity": 113,
      "chip": "ym2612"
    },
    {
      "channel": 3,
      "note": 47,
      "start": 55.9054,
      "duration": 0.0289,
      "velocity": 113,
      "chip": "ym2612"
    },
    {
      "channel": 3,
      "note": 47,
      "start": 55.9371,
      "duration": 0.0248,
      "velocity": 113,
      "chip": "ym2612"
    },
    {
      "channel": 3,
      "note": 47,
      "start": 55.9641,
      "duration": 0.1127,
      "velocity": 113,
      "chip": "ym2612"
    },
    {
      "channel": 0,
      "note": 86,
      "start": 56.0799,
      "duration": 0.522,
      "velocity": 97,
      "chip": "ym2612"
    },
    {
      "channel": 3,
      "note": 62,
      "start": 56.0826,
      "duration": 0.0327,
      "velocity": 113,
      "chip": "ym2612"
    },
    {
      "channel": 3,
      "note": 47,
      "start": 56.1174,
      "duration": 0.025,
      "velocity": 113,
      "chip": "ym2612"
    },
    {
      "channel": 3,
      "note": 47,
      "start": 56.145,
      "duration": 0.0245,
      "velocity": 113,
      "chip": "ym2612"
    },
    {
      "channel": 3,
      "note": 47,
      "start": 56.1718,
      "duration": 0.0523,
      "velocity": 113,
      "chip": "ym2612"
    },
    {
      "channel": 3,
      "note": 47,
      "start": 56.2274,
      "duration": 0.0288,
      "velocity": 113,
      "chip": "ym2612"
    },
    {
      "channel": 3,
      "note": 47,
      "start": 56.2584,
      "duration": 0.0252,
      "velocity": 113,
      "chip": "ym2612"
    },
    {
      "channel": 3,
      "note": 47,
      "start": 56.286,
      "duration": 0.2546,
      "velocity": 113,
      "chip": "ym2612"
    },
    {
      "channel": 3,
      "note": 47,
      "start": 56.5441,
      "duration": 0.0295,
      "velocity": 113,
      "chip": "ym2612"
    },
    {
      "channel": 3,
      "note": 47,
      "start": 56.5758,
      "duration": 0.0262,
      "velocity": 113,
      "chip": "ym2612"
    },
    {
      "channel": 0,
      "note": 88,
      "start": 56.6042,
      "duration": 0.2205,
      "velocity": 97,
      "chip": "ym2612"
    },
    {
      "channel": 3,
      "note": 62,
      "start": 56.6064,
      "duration": 0.0439,
      "velocity": 113,
      "chip": "ym2612"
    },
    {
      "channel": 3,
      "note": 47,
      "start": 56.6529,
      "duration": 0.0363,
      "velocity": 113,
      "chip": "ym2612"
    },
    {
      "channel": 3,
      "note": 47,
      "start": 56.6927,
      "duration": 0.0358,
      "velocity": 113,
      "chip": "ym2612"
    },
    {
      "channel": 3,
      "note": 47,
      "start": 56.7321,
      "duration": 0.0928,
      "velocity": 113,
      "chip": "ym2612"
    },
    {
      "channel": 0,
      "note": 85,
      "start": 56.8278,
      "duration": 0.1206,
      "velocity": 97,
      "chip": "ym2612"
    },
    {
      "channel": 3,
      "note": 49,
      "start": 56.8305,
      "duration": 0.0323,
      "velocity": 113,
      "chip": "ym2612"
    },
    {
      "channel": 3,
      "note": 49,
      "start": 56.8649,
      "duration": 0.026,
      "velocity": 113,
      "chip": "ym2612"
    },
    {
      "channel": 3,
      "note": 49,
      "start": 56.8933,
      "duration": 0.0552,
      "velocity": 113,
      "chip": "ym2612"
    },
    {
      "channel": 0,
      "note": 86,
      "start": 56.9505,
      "duration": 0.4398,
      "velocity": 97,
      "chip": "ym2612"
    },
    {
      "channel": 3,
      "note": 50,
      "start": 56.9527,
      "duration": 0.0271,
      "velocity": 113,
      "chip": "ym2612"
    },
    {
      "channel": 3,
      "note": 50,
      "start": 56.9818,
      "duration": 0.0293,
      "velocity": 113,
      "chip": "ym2612"
    },
    {
      "channel": 3,
      "note": 50,
      "start": 57.0134,
      "duration": 0.0258,
      "velocity": 113,
      "chip": "ym2612"
    },
    {
      "channel": 3,
      "note": 50,
      "start": 57.0415,
      "duration": 0.0263,
      "velocity": 113,
      "chip": "ym2612"
    },
    {
      "channel": 3,
      "note": 50,
      "start": 57.0713,
      "duration": 0.2583,
      "velocity": 113,
      "chip": "ym2612"
    },
    {
      "channel": 3,
      "note": 50,
      "start": 57.3331,
      "duration": 0.0297,
      "velocity": 113,
      "chip": "ym2612"
    },
    {
      "channel": 3,
      "note": 50,
      "start": 57.3649,
      "duration": 0.0256,
      "velocity": 113,
      "chip": "ym2612"
    },
    {
      "channel": 0,
      "note": 81,
      "start": 57.3925,
      "duration": 0.5002,
      "velocity": 97,
      "chip": "ym2612"
    },
    {
      "channel": 3,
      "note": 62,
      "start": 57.3947,
      "duration": 0.0437,
      "velocity": 113,
      "chip": "ym2612"
    },
    {
      "channel": 3,
      "note": 50,
      "start": 57.4412,
      "duration": 0.0368,
      "velocity": 113,
      "chip": "ym2612"
    },
    {
      "channel": 3,
      "note": 50,
      "start": 57.4816,
      "duration": 0.0357,
      "velocity": 113,
      "chip": "ym2612"
    },
    {
      "channel": 3,
      "note": 50,
      "start": 57.521,
      "duration": 0.092,
      "velocity": 113,
      "chip": "ym2612"
    },
    {
      "channel": 3,
      "note": 50,
      "start": 57.6162,
      "duration": 0.1366,
      "velocity": 113,
      "chip": "ym2612"
    },
    {
      "channel": 3,
      "note": 50,
      "start": 57.7561,
      "duration": 0.1369,
      "velocity": 113,
      "chip": "ym2612"
    },
    {
      "channel": 0,
      "note": 90,
      "start": 57.8964,
      "duration": 0.9905,
      "velocity": 97,
      "chip": "ym2612"
    },
    {
      "channel": 3,
      "note": 57,
      "start": 57.899,
      "duration": 0.0325,
      "velocity": 113,
      "chip": "ym2612"
    },
    {
      "channel": 3,
      "note": 50,
      "start": 57.9337,
      "duration": 0.0255,
      "velocity": 113,
      "chip": "ym2612"
    },
    {
      "channel": 3,
      "note": 50,
      "start": 57.9618,
      "duration": 0.0249,
      "velocity": 113,
      "chip": "ym2612"
    },
    {
      "channel": 3,
      "note": 50,
      "start": 57.9888,
      "duration": 0.0524,
      "velocity": 113,
      "chip": "ym2612"
    },
    {
      "channel": 3,
      "note": 50,
      "start": 58.0444,
      "duration": 0.0291,
      "velocity": 113,
      "chip": "ym2612"
    },
    {
      "channel": 3,
      "note": 50,
      "start": 58.0757,
      "duration": 0.0259,
      "velocity": 113,
      "chip": "ym2612"
    },
    {
      "channel": 3,
      "note": 50,
      "start": 58.1039,
      "duration": 0.2543,
      "velocity": 113,
      "chip": "ym2612"
    },
    {
      "channel": 3,
      "note": 50,
      "start": 58.3622,
      "duration": 0.0296,
      "velocity": 113,
      "chip": "ym2612"
    },
    {
      "channel": 3,
      "note": 50,
      "start": 58.3938,
      "duration": 0.0256,
      "velocity": 113,
      "chip": "ym2612"
    },
    {
      "channel": 3,
      "note": 62,
      "start": 58.4215,
      "duration": 0.0452,
      "velocity": 113,
      "chip": "ym2612"
    },
    {
      "channel": 3,
      "note": 50,
      "start": 58.4704,
      "duration": 0.0369,
      "velocity": 113,
      "chip": "ym2612"
    },
    {
      "channel": 3,
      "note": 50,
      "start": 58.51,
      "duration": 0.0357,
      "velocity": 113,
      "chip": "ym2612"
    },
    {
      "channel": 3,
      "note": 50,
      "start": 58.5484,
      "duration": 0.0938,
      "velocity": 113,
      "chip": "ym2612"
    },
    {
      "channel": 3,
      "note": 50,
      "start": 58.6457,
      "duration": 0.1073,
      "velocity": 113,
      "chip": "ym2612"
    },
    {
      "channel": 3,
      "note": 52,
      "start": 58.7567,
      "duration": 0.1303,
      "velocity": 113,
      "chip": "ym2612"
    },
    {
      "channel": 4,
      "note": 81,
      "start": 58.8902,
      "duration": 0.4107,
      "velocity": 95,
      "chip": "ym2612"
    },
    {
      "channel": 3,
      "note": 54,
      "start": 58.8945,
      "duration": 0.5458,
      "velocity": 113,
      "chip": "ym2612"
    },
    {
      "channel": 1,
      "note": 85,
      "start": 59.1077,
      "duration": 0.1356,
      "velocity": 95,
      "chip": "ym2612"
    },
    {
      "channel": 1,
      "note": 85,
      "start": 59.2465,
      "duration": 0.0543,
      "velocity": 95,
      "chip": "ym2612"
    },
    {
      "channel": 4,
      "note": 78,
      "start": 59.3039,
      "duration": 0.4166,
      "velocity": 95,
      "chip": "ym2612"
    },
    {
      "channel": 1,
      "note": 81,
      "start": 59.3068,
      "duration": 0.1333,
      "velocity": 95,
      "chip": "ym2612"
    },
    {
      "channel": 0,
      "note": 90,
      "start": 59.3095,
      "duration": 0.4106,
      "velocity": 97,
      "chip": "ym2612"
    },
    {
      "channel": 1,
      "note": 81,
      "start": 59.4434,
      "duration": 0.277,
      "velocity": 95,
      "chip": "ym2612"
    },
    {
      "channel": 3,
      "note": 57,
      "start": 59.4467,
      "duration": 0.9045,
      "velocity": 113,
      "chip": "ym2612"
    },
    {
      "channel": 4,
      "note": 73,
      "start": 59.7235,
      "duration": 0.5146,
      "velocity": 95,
      "chip": "ym2612"
    },
    {
      "channel": 1,
      "note": 78,
      "start": 59.7264,
      "duration": 0.1537,
      "velocity": 95,
      "chip": "ym2612"
    },
    {
      "channel": 0,
      "note": 97,
      "start": 59.7288,
      "duration": 0.5091,
      "velocity": 97,
      "chip": "ym2612"
    },
    {
      "channel": 1,
      "note": 78,
      "start": 59.8835,
      "duration": 0.1368,
      "velocity": 95,
      "chip": "ym2612"
    },
    {
      "channel": 1,
      "note": 81,
      "start": 60.0814,
      "duration": 0.2154,
      "velocity": 95,
      "chip": "ym2612"
    },
    {
      "channel": 4,
      "note": 76,
      "start": 60.241,
      "duration": 0.4053,
      "velocity": 95,
      "chip": "ym2612"
    },
    {
      "channel": 0,
      "note": 100,
      "start": 60.2439,
      "duration": 0.4021,
      "velocity": 97,
      "chip": "ym2612"
    },
    {
      "channel": 1,
      "note": 81,
      "start": 60.3004,
      "duration": 0.2056,
      "velocity": 95,
      "chip": "ym2612"
    },
    {
      "channel": 3,
      "note": 51,
      "start": 60.3541,
      "duration": 0.5084,
      "velocity": 113,
      "chip": "ym2612"
    },
    {
      "channel": 1,
      "note": 81,
      "start": 60.5094,
      "duration": 0.1367,
      "velocity": 95,
      "chip": "ym2612"
    },
    {
      "channel": 4,
      "note": 75,
      "start": 60.6496,
      "duration": 1.4588,
      "velocity": 95,
      "chip": "ym2612"
    },
    {
      "channel": 1,
      "note": 82,
      "start": 60.6522,
      "duration": 0.0532,
      "velocity": 95,
      "chip": "ym2612"
    },
    {
      "channel": 0,
      "note": 99,
      "start": 60.6549,
      "duration": 1.0337,
      "velocity": 97,
      "chip": "ym2612"
    },
    {
      "channel": 1,
      "note": 82,
      "start": 60.7083,
      "duration": 0.1541,
      "velocity": 95,
      "chip": "ym2612"
    },
    {
      "channel": 1,
      "note": 80,
      "start": 60.8656,
      "duration": 0.1369,
      "velocity": 95,
      "chip": "ym2612"
    },
    {
      "channel": 3,
      "note": 49,
      "start": 60.8686,
      "duration": 0.1913,
      "velocity": 113,
      "chip": "ym2612"
    },
    {
      "channel": 1,
      "note": 80,
      "start": 61.0057,
      "duration": 0.0541,
      "velocity": 95,
      "chip": "ym2612"
    },
    {
      "channel": 1,
      "note": 82,
      "start": 61.063,
      "duration": 0.0628,
      "velocity": 95,
      "chip": "ym2612"
    },
    {
      "channel": 3,
      "note": 51,
      "start": 61.066,
      "duration": 0.2537,
      "velocity": 113,
      "chip": "ym2612"
    },
    {
      "channel": 1,
      "note": 87,
      "start": 61.1286,
      "duration": 0.0706,
      "velocity": 95,
      "chip": "ym2612"
    },
    {
      "channel": 1,
      "note": 87,
      "start": 61.2592,
      "duration": 0.0604,
      "velocity": 95,
      "chip": "ym2612"
    },
    {
      "channel": 3,
      "note": 52,
      "start": 61.3225,
      "duration": 0.1015,
      "velocity": 113,
      "chip": "ym2612"
    },
    {
      "channel": 3,
      "note": 51,
      "start": 61.4266,
      "duration": 0.2622,
      "velocity": 113,
      "chip": "ym2612"
    },
    {
      "channel": 0,
      "note": 94,
      "start": 61.692,
      "duration": 0.4161,
      "velocity": 97,
      "chip": "ym2612"
    },
    {
      "channel": 3,
      "note": 49,
      "start": 61.6953,
      "duration": 0.0523,
      "velocity": 113,
      "chip": "ym2612"
    },
    {
      "channel": 3,
      "note": 49,
      "start": 61.7512,
      "duration": 0.057,
      "velocity": 113,
      "chip": "ym2612"
    },
    {
      "channel": 3,
      "note": 51,
      "start": 61.8118,
      "duration": 0.2965,
      "velocity": 113,
      "chip": "ym2612"
    },
    {
      "channel": 4,
      "note": 81,
      "start": 62.1117,
      "duration": 0.4101,
      "velocity": 95,
      "chip": "ym2612"
    },
    {
      "channel": 3,
      "note": 54,
      "start": 62.1148,
      "duration": 0.5453,
      "velocity": 113,
      "chip": "ym2612"
    },
    {
      "channel": 1,
      "note": 85,
      "start": 62.3279,
      "duration": 0.1364,
      "velocity": 95,
      "chip": "ym2612"
    },
    {
      "channel": 1,
      "note": 85,
      "start": 62.4675,
      "duration": 0.0541,
      "velocity": 95,
      "chip": "ym2612"
    },
    {
      "channel": 4,
      "note": 78,
      "start": 62.5247,
      "duration": 0.4354,
      "velocity": 95,
      "chip": "ym2612"
    },
    {
      "channel": 1,
      "note": 81,
      "start": 62.5277,
      "duration": 0.1323,
      "velocity": 95,
      "chip": "ym2612"
    },
    {
      "channel": 0,
      "note": 90,
      "start": 62.5302,
      "duration": 0.4296,
      "velocity": 97,
      "chip": "ym2612"
    },
    {
      "channel": 1,
      "note": 81,
      "start": 62.6632,
      "duration": 0.2968,
      "velocity": 95,
      "chip": "ym2612"
    },
    {
      "channel": 3,
      "note": 57,
      "start": 62.6662,
      "duration": 0.9042,
      "velocity": 113,
      "chip": "ym2612"
    },
    {
      "channel": 4,
      "note": 73,
      "start": 62.9631,
      "duration": 0.4941,
      "velocity": 95,
      "chip": "ym2612"
    },
    {
      "channel": 1,
      "note": 78,
      "start": 62.9661,
      "duration": 0.1339,
      "velocity": 95,
      "chip": "ym2612"
    },
    {
      "channel": 0,
      "note": 97,
      "start": 62.9684,
      "duration": 0.4885,
      "velocity": 97,
      "chip": "ym2612"
    },
    {
      "channel": 1,
      "note": 78,
      "start": 63.1032,
      "duration": 0.1366,
      "velocity": 95,
      "chip": "ym2612"
    },
    {
      "channel": 1,
      "note": 81,
      "start": 63.3002,
      "duration": 0.2153,
      "velocity": 95,
      "chip": "ym2612"
    },
    {
      "channel": 4,
      "note": 76,
      "start": 63.4601,
      "duration": 0.4056,
      "velocity": 95,
      "chip": "ym2612"
    },
    {
      "channel": 0,
      "note": 102,
      "start": 63.4626,
      "duration": 0.4028,
      "velocity": 97,
      "chip": "ym2612"
    },
    {
      "channel": 1,
      "note": 81,
      "start": 63.5192,
      "duration": 0.2063,
      "velocity": 95,
      "chip": "ym2612"
    },
    {
      "channel": 3,
      "note": 51,
      "start": 63.5734,
      "duration": 0.5083,
      "velocity": 113,
      "chip": "ym2612"
    },
    {
      "channel": 1,
      "note": 81,
      "start": 63.7293,
      "duration": 0.1362,
      "velocity": 95,
      "chip": "ym2612"
    },
    {
      "channel": 4,
      "note": 75,
      "start": 63.8694,
      "duration": 1.3257,
      "velocity": 95,
      "chip": "ym2612"
    },
    {
      "channel": 1,
      "note": 82,
      "start": 63.8721,
      "duration": 0.0532,
      "velocity": 95,
      "chip": "ym2612"
    },
    {
      "channel": 0,
      "note": 102,
      "start": 63.8747,
      "duration": 0.9003,
      "velocity": 97,
      "chip": "ym2612"
    },
    {
      "channel": 1,
      "note": 82,
      "start": 63.928,
      "duration": 0.1535,
      "velocity": 95,
      "chip": "ym2612"
    },
    {
      "channel": 1,
      "note": 80,
      "start": 64.0848,
      "duration": 0.1368,
      "velocity": 95,
      "chip": "ym2612"
    },
    {
      "channel": 3,
      "note": 49,
      "start": 64.0881,
      "duration": 0.1909,
      "velocity": 113,
      "chip": "ym2612"
    },
    {
      "channel": 1,
      "note": 80,
      "start": 64.2248,
      "duration": 0.0541,
      "velocity": 95,
      "chip": "ym2612"
    },
    {
      "channel": 1,
      "note": 82,
      "start": 64.2822,
      "duration": 0.0634,
      "velocity": 95,
      "chip": "ym2612"
    },
    {
      "channel": 3,
      "note": 51,
      "start": 64.2851,
      "duration": 0.2492,
      "velocity": 113,
      "chip": "ym2612"
    },
    {
      "channel": 1,
      "note": 87,
      "start": 64.3482,
      "duration": 0.0706,
      "velocity": 95,
      "chip": "ym2612"
    },
    {
      "channel": 1,
      "note": 87,
      "start": 64.4778,
      "duration": 0.0564,
      "velocity": 95,
      "chip": "ym2612"
    },
    {
      "channel": 3,
      "note": 52,
      "start": 64.5373,
      "duration": 0.1017,
      "velocity": 113,
      "chip": "ym2612"
    },
    {
      "channel": 3,
      "note": 51,
      "start": 64.6418,
      "duration": 0.1334,
      "velocity": 113,
      "chip": "ym2612"
    },
    {
      "channel": 0,
      "note": 99,
      "start": 64.7788,
      "duration": 0.416,
      "velocity": 97,
      "chip": "ym2612"
    },
    {
      "channel": 3,
      "note": 49,
      "start": 64.7817,
      "duration": 0.0528,
      "velocity": 113,
      "chip": "ym2612"
    },
    {
      "channel": 3,
      "note": 49,
      "start": 64.8371,
      "duration": 0.0576,
      "velocity": 113,
      "chip": "ym2612"
    },
    {
      "channel": 3,
      "note": 51,
      "start": 64.8983,
      "duration": 0.2966,
      "velocity": 113,
      "chip": "ym2612"
    },
    {
      "channel": 4,
      "note": 81,
      "start": 65.1983,
      "duration": 0.4106,
      "velocity": 95,
      "chip": "ym2612"
    },
    {
      "channel": 3,
      "note": 54,
      "start": 65.2019,
      "duration": 0.5464,
      "velocity": 113,
      "chip": "ym2612"
    },
    {
      "channel": 1,
      "note": 85,
      "start": 65.4145,
      "duration": 0.1369,
      "velocity": 95,
      "chip": "ym2612"
    },
    {
      "channel": 1,
      "note": 85,
      "start": 65.5546,
      "duration": 0.0542,
      "velocity": 95,
      "chip": "ym2612"
    },
    {
      "channel": 4,
      "note": 78,
      "start": 65.612,
      "duration": 0.4364,
      "velocity": 95,
      "chip": "ym2612"
    },
    {
      "channel": 1,
      "note": 81,
      "start": 65.6149,
      "duration": 0.1333,
      "velocity": 95,
      "chip": "ym2612"
    },
    {
      "channel": 0,
      "note": 90,
      "start": 65.6174,
      "duration": 0.4306,
      "velocity": 97,
      "chip": "ym2612"
    },
    {
      "channel": 1,
      "note": 81,
      "start": 65.7517,
      "duration": 0.2965,
      "velocity": 95,
      "chip": "ym2612"
    },
    {
      "channel": 3,
      "note": 57,
      "start": 65.7547,
      "duration": 0.9041,
      "velocity": 113,
      "chip": "ym2612"
    },
    {
      "channel": 4,
      "note": 73,
      "start": 66.0513,
      "duration": 0.4944,
      "velocity": 95,
      "chip": "ym2612"
    },
    {
      "channel": 1,
      "note": 78,
      "start": 66.0543,
      "duration": 0.1339,
      "velocity": 95,
      "chip": "ym2612"
    },
    {
      "channel": 0,
      "note": 97,
      "start": 66.0567,
      "duration": 0.4888,
      "velocity": 97,
      "chip": "ym2612"
    },
    {
      "channel": 1,
      "note": 78,
      "start": 66.1915,
      "duration": 0.1366,
      "velocity": 95,
      "chip": "ym2612"
    },
    {
      "channel": 1,
      "note": 81,
      "start": 66.4086,
      "duration": 0.1955,
      "velocity": 95,
      "chip": "ym2612"
    },
    {
      "channel": 4,
      "note": 76,
      "start": 66.5486,
      "duration": 0.4055,
      "velocity": 95,
      "chip": "ym2612"
    },
    {
      "channel": 0,
      "note": 100,
      "start": 66.5511,
      "duration": 0.4027,
      "velocity": 97,
      "chip": "ym2612"
    },
    {
      "channel": 1,
      "note": 81,
      "start": 66.6077,
      "duration": 0.2061,
      "velocity": 95,
      "chip": "ym2612"
    },
    {
      "channel": 3,
      "note": 51,
      "start": 66.6617,
      "duration": 0.5087,
      "velocity": 113,
      "chip": "ym2612"
    },
    {
      "channel": 1,
      "note": 81,
      "start": 66.8173,
      "duration": 0.1367,
      "velocity": 95,
      "chip": "ym2612"
    },
    {
      "channel": 4,
      "note": 75,
      "start": 66.9574,
      "duration": 1.4564,
      "velocity": 95,
      "chip": "ym2612"
    },
    {
      "channel": 1,
      "note": 82,
      "start": 66.9601,
      "duration": 0.0533,
      "velocity": 95,
      "chip": "ym2612"
    },
    {
      "channel": 0,
      "note": 99,
      "start": 66.9627,
      "duration": 1.0309,
      "velocity": 97,
      "chip": "ym2612"
    },
    {
      "channel": 1,
      "note": 82,
      "start": 67.0162,
      "duration": 0.1541,
      "velocity": 95,
      "chip": "ym2612"
    },
    {
      "channel": 1,
      "note": 80,
      "start": 67.1735,
      "duration": 0.1369,
      "velocity": 95,
      "chip": "ym2612"
    },
    {
      "channel": 3,
      "note": 49,
      "start": 67.1765,
      "duration": 0.1913,
      "velocity": 113,
      "chip": "ym2612"
    },
    {
      "channel": 1,
      "note": 80,
      "start": 67.3136,
      "duration": 0.0541,
      "velocity": 95,
      "chip": "ym2612"
    },
    {
      "channel": 1,
      "note": 82,
      "start": 67.3713,
      "duration": 0.0631,
      "velocity": 95,
      "chip": "ym2612"
    },
    {
      "channel": 3,
      "note": 51,
      "start": 67.3743,
      "duration": 0.2511,
      "velocity": 113,
      "chip": "ym2612"
    },
    {
      "channel": 1,
      "note": 87,
      "start": 67.437,
      "duration": 0.0698,
      "velocity": 95,
      "chip": "ym2612"
    },
    {
      "channel": 1,
      "note": 87,
      "start": 67.566,
      "duration": 0.0593,
      "velocity": 95,
      "chip": "ym2612"
    },
    {
      "channel": 3,
      "note": 52,
      "start": 67.6282,
      "duration": 0.1008,
      "velocity": 113,
      "chip": "ym2612"
    },
    {
      "channel": 3,
      "note": 51,
      "start": 67.7318,
      "duration": 0.262,
      "velocity": 113,
      "chip": "ym2612"
    },
    {
      "channel": 0,
      "note": 94,
      "start": 67.997,
      "duration": 0.4165,
      "velocity": 97,
      "chip": "ym2612"
    },
    {
      "channel": 3,
      "note": 49,
      "start": 67.9999,
      "duration": 0.053,
      "velocity": 113,
      "chip": "ym2612"
    },
    {
      "channel": 3,
      "note": 49,
      "start": 68.0564,
      "duration": 0.0772,
      "velocity": 113,
      "chip": "ym2612"
    },
    {
      "channel": 3,
      "note": 51,
      "start": 68.1372,
      "duration": 0.2765,
      "velocity": 113,
      "chip": "ym2612"
    },
    {
      "channel": 4,
      "note": 81,
      "start": 68.4171,
      "duration": 0.4104,
      "velocity": 95,
      "chip": "ym2612"
    },
    {
      "channel": 3,
      "note": 54,
      "start": 68.4202,
      "duration": 0.5462,
      "velocity": 113,
      "chip": "ym2612"
    },
    {
      "channel": 1,
      "note": 85,
      "start": 68.6332,
      "duration": 0.1369,
      "velocity": 95,
      "chip": "ym2612"
    },
    {
      "channel": 1,
      "note": 85,
      "start": 68.7733,
      "duration": 0.054,
      "velocity": 95,
      "chip": "ym2612"
    },
    {
      "channel": 4,
      "note": 85,
      "start": 68.8311,
      "duration": 0.1355,
      "velocity": 95,
      "chip": "ym2612"
    },
    {
      "channel": 1,
      "note": 81,
      "start": 68.8341,
      "duration": 0.1322,
      "velocity": 95,
      "chip": "ym2612"
    },
    {
      "channel": 0,
      "note": 90,
      "start": 68.8366,
      "duration": 0.4297,
      "velocity": 97,
      "chip": "ym2612"
    },
    {
      "channel": 4,
      "note": 90,
      "start": 68.9695,
      "duration": 0.2971,
      "velocity": 95,
      "chip": "ym2612"
    },
    {
      "channel": 1,
      "note": 81,
      "start": 68.9722,
      "duration": 0.2942,
      "velocity": 95,
      "chip": "ym2612"
    },
    {
      "channel": 3,
      "note": 57,
      "start": 68.9752,
      "duration": 0.9141,
      "velocity": 113,
      "chip": "ym2612"
    },
    {
      "channel": 4,
      "note": 85,
      "start": 69.2695,
      "duration": 0.277,
      "velocity": 95,
      "chip": "ym2612"
    },
    {
      "channel": 1,
      "note": 78,
      "start": 69.2725,
      "duration": 0.1338,
      "velocity": 95,
      "chip": "ym2612"
    },
    {
      "channel": 0,
      "note": 97,
      "start": 69.2749,
      "duration": 0.4854,
      "velocity": 97,
      "chip": "ym2612"
    },
    {
      "channel": 1,
      "note": 78,
      "start": 69.41,
      "duration": 0.1363,
      "velocity": 95,
      "chip": "ym2612"
    },
    {
      "channel": 4,
      "note": 90,
      "start": 69.5495,
      "duration": 0.2111,
      "velocity": 95,
      "chip": "ym2612"
    },
    {
      "channel": 1,
      "note": 81,
      "start": 69.6236,
      "duration": 0.1961,
      "velocity": 95,
      "chip": "ym2612"
    },
    {
      "channel": 4,
      "note": 88,
      "start": 69.7638,
      "duration": 0.4057,
      "velocity": 95,
      "chip": "ym2612"
    },
    {
      "channel": 0,
      "note": 102,
      "start": 69.7663,
      "duration": 0.4029,
      "velocity": 97,
      "chip": "ym2612"
    },
    {
      "channel": 1,
      "note": 81,
      "start": 69.8234,
      "duration": 0.2057,
      "velocity": 95,
      "chip": "ym2612"
    },
    {
      "channel": 3,
      "note": 51,
      "start": 69.8932,
      "duration": 0.4923,
      "velocity": 113,
      "chip": "ym2612"
    },
    {
      "channel": 1,
      "note": 81,
      "start": 70.0326,
      "duration": 0.1367,
      "velocity": 95,
      "chip": "ym2612"
    },
    {
      "channel": 4,
      "note": 87,
      "start": 70.1729,
      "duration": 1.3017,
      "velocity": 95,
      "chip": "ym2612"
    },
    {
      "channel": 1,
      "note": 82,
      "start": 70.1756,
      "duration": 0.0532,
      "velocity": 95,
      "chip": "ym2612"
    },
    {
      "channel": 0,
      "note": 102,
      "start": 70.1786,
      "duration": 1.0585,
      "velocity": 97,
      "chip": "ym2612"
    },
    {
      "channel": 1,
      "note": 82,
      "start": 70.2316,
      "duration": 0.1537,
      "velocity": 95,
      "chip": "ym2612"
    },
    {
      "channel": 1,
      "note": 80,
      "start": 70.3885,
      "duration": 0.1369,
      "velocity": 95,
      "chip": "ym2612"
    },
    {
      "channel": 3,
      "note": 49,
      "start": 70.3915,
      "duration": 0.1914,
      "velocity": 113,
      "chip": "ym2612"
    },
    {
      "channel": 1,
      "note": 80,
      "start": 70.5286,
      "duration": 0.0541,
      "velocity": 95,
      "chip": "ym2612"
    },
    {
      "channel": 1,
      "note": 82,
      "start": 70.5859,
      "duration": 0.0629,
      "velocity": 95,
      "chip": "ym2612"
    },
    {
      "channel": 3,
      "note": 51,
      "start": 70.589,
      "duration": 0.2495,
      "velocity": 113,
      "chip": "ym2612"
    },
    {
      "channel": 1,
      "note": 87,
      "start": 70.6517,
      "duration": 0.0707,
      "velocity": 95,
      "chip": "ym2612"
    },
    {
      "channel": 1,
      "note": 87,
      "start": 70.7812,
      "duration": 0.0572,
      "velocity": 95,
      "chip": "ym2612"
    },
    {
      "channel": 3,
      "note": 52,
      "start": 70.8413,
      "duration": 0.1021,
      "velocity": 113,
      "chip": "ym2612"
    },
    {
      "channel": 3,
      "note": 51,
      "start": 70.9462,
      "duration": 0.2911,
      "velocity": 113,
      "chip": "ym2612"
    },
    {
      "channel": 0,
      "note": 99,
      "start": 71.2406,
      "duration": 0.2336,
      "velocity": 97,
      "chip": "ym2612"
    },
    {
      "channel": 3,
      "note": 49,
      "start": 71.2435,
      "duration": 0.0527,
      "velocity": 113,
      "chip": "ym2612"
    },
    {
      "channel": 3,
      "note": 49,
      "start": 71.2999,
      "duration": 0.0583,
      "velocity": 113,
      "chip": "ym2612"
    },
    {
      "channel": 3,
      "note": 51,
      "start": 71.3613,
      "duration": 0.1131,
      "velocity": 113,
      "chip": "ym2612"
    },
    {
      "channel": 1,
      "note": 76,
      "start": 71.4781,
      "duration": 0.1562,
      "velocity": 95,
      "chip": "ym2612"
    },
    {
      "channel": 0,
      "note": 64,
      "start": 71.4819,
      "duration": 0.5723,
      "velocity": 95,
      "chip": "ym2612"
    },
    {
      "channel": 3,
      "note": 57,
      "start": 71.4858,
      "duration": 1.7486,
      "velocity": 99,
      "chip": "ym2612"
    },
    {
      "channel": 1,
      "note": 73,
      "start": 71.6374,
      "duration": 0.1369,
      "velocity": 95,
      "chip": "ym2612"
    },
    {
      "channel": 1,
      "note": 71,
      "start": 71.7774,
      "duration": 0.1369,
      "velocity": 95,
      "chip": "ym2612"
    },
    {
      "channel": 1,
      "note": 69,
      "start": 71.9175,
      "duration": 0.1368,
      "velocity": 95,
      "chip": "ym2612"
    },
    {
      "channel": 1,
      "note": 75,
      "start": 72.0575,
      "duration": 0.1568,
      "velocity": 95,
      "chip": "ym2612"
    },
    {
      "channel": 0,
      "note": 75,
      "start": 72.06,
      "duration": 0.5942,
      "velocity": 95,
      "chip": "ym2612"
    },
    {
      "channel": 1,
      "note": 73,
      "start": 72.2174,
      "duration": 0.1369,
      "velocity": 95,
      "chip": "ym2612"
    },
    {
      "channel": 1,
      "note": 71,
      "start": 72.3574,
      "duration": 0.1369,
      "velocity": 95,
      "chip": "ym2612"
    },
    {
      "channel": 1,
      "note": 69,
      "start": 72.4975,
      "duration": 0.1568,
      "velocity": 95,
      "chip": "ym2612"
    },
    {
      "channel": 1,
      "note": 76,
      "start": 72.6574,
      "duration": 0.1368,
      "velocity": 95,
      "chip": "ym2612"
    },
    {
      "channel": 0,
      "note": 76,
      "start": 72.66,
      "duration": 0.5742,
      "velocity": 95,
      "chip": "ym2612"
    },
    {
      "channel": 1,
      "note": 73,
      "start": 72.7973,
      "duration": 0.1369,
      "velocity": 95,
      "chip": "ym2612"
    },
    {
      "channel": 1,
      "note": 71,
      "start": 72.9374,
      "duration": 0.1569,
      "velocity": 95,
      "chip": "ym2612"
    },
    {
      "channel": 1,
      "note": 69,
      "start": 73.0975,
      "duration": 0.1368,
      "velocity": 95,
      "chip": "ym2612"
    },
    {
      "channel": 1,
      "note": 75,
      "start": 73.2375,
      "duration": 0.1368,
      "velocity": 95,
      "chip": "ym2612"
    },
    {
      "channel": 0,
      "note": 69,
      "start": 73.24,
      "duration": 0.5742,
      "velocity": 95,
      "chip": "ym2612"
    },
    {
      "channel": 3,
      "note": 56,
      "start": 73.2428,
      "duration": 0.2915,
      "velocity": 99,
      "chip": "ym2612"
    },
    {
      "channel": 1,
      "note": 73,
      "start": 73.3775,
      "duration": 0.1567,
      "velocity": 95,
      "chip": "ym2612"
    },
    {
      "channel": 1,
      "note": 71,
      "start": 73.5374,
      "duration": 0.1369,
      "velocity": 95,
      "chip": "ym2612"
    },
    {
      "channel": 3,
      "note": 54,
      "start": 73.54,
      "duration": 0.2745,
      "velocity": 99,
      "chip": "ym2612"
    },
    {
      "channel": 1,
      "note": 69,
      "start": 73.6778,
      "duration": 0.1366,
      "velocity": 95,
      "chip": "ym2612"
    },
    {
      "channel": 1,
      "note": 75,
      "start": 73.8176,
      "duration": 0.1567,
      "velocity": 95,
      "chip": "ym2612"
    },
    {
      "channel": 0,
      "note": 78,
      "start": 73.8202,
      "duration": 0.5741,
      "velocity": 95,
      "chip": "ym2612"
    },
    {
      "channel": 3,
      "note": 51,
      "start": 73.8229,
      "duration": 2.3315,
      "velocity": 99,
      "chip": "ym2612"
    },
    {
      "channel": 1,
      "note": 70,
      "start": 73.9775,
      "duration": 0.1367,
      "velocity": 95,
      "chip": "ym2612"
    },
    {
      "channel": 1,
      "note": 66,
      "start": 74.1173,
      "duration": 0.1369,
      "velocity": 95,
      "chip": "ym2612"
    },
    {
      "channel": 1,
      "note": 63,
      "start": 74.2574,
      "duration": 0.1369,
      "velocity": 95,
      "chip": "ym2612"
    },
    {
      "channel": 1,
      "note": 78,
      "start": 74.3975,
      "duration": 0.1568,
      "velocity": 95,
      "chip": "ym2612"
    },
    {
      "channel": 0,
      "note": 76,
      "start": 74.4,
      "duration": 0.5941,
      "velocity": 95,
      "chip": "ym2612"
    },
    {
      "channel": 1,
      "note": 75,
      "start": 74.5574,
      "duration": 0.1369,
      "velocity": 95,
      "chip": "ym2612"
    },
    {
      "channel": 1,
      "note": 70,
      "start": 74.6975,
      "duration": 0.1367,
      "velocity": 95,
      "chip": "ym2612"
    },
    {
      "channel": 1,
      "note": 66,
      "start": 74.8373,
      "duration": 0.1569,
      "velocity": 95,
      "chip": "ym2612"
    },
    {
      "channel": 1,
      "note": 82,
      "start": 74.9975,
      "duration": 0.1367,
      "velocity": 95,
      "chip": "ym2612"
    },
    {
      "channel": 0,
      "note": 75,
      "start": 75.0,
      "duration": 0.5742,
      "velocity": 95,
      "chip": "ym2612"
    },
    {
      "channel": 1,
      "note": 78,
      "start": 75.1374,
      "duration": 0.1369,
      "velocity": 95,
      "chip": "ym2612"
    },
    {
      "channel": 1,
      "note": 75,
      "start": 75.2774,
      "duration": 0.1569,
      "velocity": 95,
      "chip": "ym2612"
    },
    {
      "channel": 1,
      "note": 70,
      "start": 75.4374,
      "duration": 0.1369,
      "velocity": 95,
      "chip": "ym2612"
    },
    {
      "channel": 1,
      "note": 87,
      "start": 75.5775,
      "duration": 0.1368,
      "velocity": 95,
      "chip": "ym2612"
    },
    {
      "channel": 0,
      "note": 70,
      "start": 75.5804,
      "duration": 0.5737,
      "velocity": 95,
      "chip": "ym2612"
    },
    {
      "channel": 1,
      "note": 82,
      "start": 75.7175,
      "duration": 0.1567,
      "velocity": 95,
      "chip": "ym2612"
    },
    {
      "channel": 1,
      "note": 78,
      "start": 75.8773,
      "duration": 0.1369,
      "velocity": 95,
      "chip": "ym2612"
    },
    {
      "channel": 1,
      "note": 75,
      "start": 76.0177,
      "duration": 0.1366,
      "velocity": 95,
      "chip": "ym2612"
    },
    {
      "channel": 1,
      "note": 76,
      "start": 76.1575,
      "duration": 0.1568,
      "velocity": 95,
      "chip": "ym2612"
    },
    {
      "channel": 0,
      "note": 71,
      "start": 76.1603,
      "duration": 1.1739,
      "velocity": 95,
      "chip": "ym2612"
    },
    {
      "channel": 3,
      "note": 52,
      "start": 76.1635,
      "duration": 1.751,
      "velocity": 99,
      "chip": "ym2612"
    },
    {
      "channel": 1,
      "note": 80,
      "start": 76.3174,
      "duration": 0.1369,
      "velocity": 95,
      "chip": "ym2612"
    },
    {
      "channel": 1,
      "note": 83,
      "start": 76.4575,
      "duration": 0.1367,
      "velocity": 95,
      "chip": "ym2612"
    },
    {
      "channel": 1,
      "note": 88,
      "start": 76.5973,
      "duration": 0.1569,
      "velocity": 95,
      "chip": "ym2612"
    },
    {
      "channel": 1,
      "note": 92,
      "start": 76.7574,
      "duration": 0.1369,
      "velocity": 95,
      "chip": "ym2612"
    },
    {
      "channel": 1,
      "note": 88,
      "start": 76.8974,
      "duration": 0.1369,
      "velocity": 95,
      "chip": "ym2612"
    },
    {
      "channel": 1,
      "note": 87,
      "start": 77.0375,
      "duration": 0.1367,
      "velocity": 95,
      "chip": "ym2612"
    },
    {
      "channel": 1,
      "note": 83,
      "start": 77.1773,
      "duration": 0.157,
      "velocity": 95,
      "chip": "ym2612"
    },
    {
      "channel": 1,
      "note": 76,
      "start": 77.3375,
      "duration": 0.1368,
      "velocity": 95,
      "chip": "ym2612"
    },
    {
      "channel": 0,
      "note": 76,
      "start": 77.3403,
      "duration": 0.5739,
      "velocity": 95,
      "chip": "ym2612"
    },
    {
      "channel": 1,
      "note": 80,
      "start": 77.4775,
      "duration": 0.1367,
      "velocity": 95,
      "chip": "ym2612"
    },
    {
      "channel": 1,
      "note": 83,
      "start": 77.6173,
      "duration": 0.1569,
      "velocity": 95,
      "chip": "ym2612"
    },
    {
      "channel": 1,
      "note": 88,
      "start": 77.7774,
      "duration": 0.1369,
      "velocity": 95,
      "chip": "ym2612"
    },
    {
      "channel": 1,
      "note": 92,
      "start": 77.9176,
      "duration": 0.1366,
      "velocity": 95,
      "chip": "ym2612"
    },
    {
      "channel": 0,
      "note": 75,
      "start": 77.9204,
      "duration": 0.2938,
      "velocity": 95,
      "chip": "ym2612"
    },
    {
      "channel": 3,
      "note": 52,
      "start": 77.9232,
      "duration": 0.2914,
      "velocity": 99,
      "chip": "ym2612"
    },
    {
      "channel": 1,
      "note": 88,
      "start": 78.0574,
      "duration": 0.1569,
      "velocity": 95,
      "chip": "ym2612"
    },
    {
      "channel": 1,
      "note": 87,
      "start": 78.2177,
      "duration": 0.1366,
      "velocity": 95,
      "chip": "ym2612"
    },
    {
      "channel": 0,
      "note": 73,
      "start": 78.2202,
      "duration": 0.2741,
      "velocity": 95,
      "chip": "ym2612"
    },
    {
      "channel": 3,
      "note": 54,
      "start": 78.2227,
      "duration": 0.2718,
      "velocity": 99,
      "chip": "ym2612"
    },
    {
      "channel": 1,
      "note": 83,
      "start": 78.3578,
      "duration": 0.1366,
      "velocity": 95,
      "chip": "ym2612"
    },
    {
      "channel": 1,
      "note": 80,
      "start": 78.4976,
      "duration": 0.1567,
      "velocity": 95,
      "chip": "ym2612"
    },
    {
      "channel": 0,
      "note": 75,
      "start": 78.5004,
      "duration": 1.1738,
      "velocity": 95,
      "chip": "ym2612"
    },
    {
      "channel": 3,
      "note": 56,
      "start": 78.5032,
      "duration": 2.3313,
      "velocity": 99,
      "chip": "ym2612"
    },
    {
      "channel": 1,
      "note": 83,
      "start": 78.6575,
      "duration": 0.1368,
      "velocity": 95,
      "chip": "ym2612"
    },
    {
      "channel": 1,
      "note": 87,
      "start": 78.7975,
      "duration": 0.1367,
      "velocity": 95,
      "chip": "ym2612"
    },
    {
      "channel": 1,
      "note": 88,
      "start": 78.9373,
      "duration": 0.1569,
      "velocity": 95,
      "chip": "ym2612"
    },
    {
      "channel": 1,
      "note": 92,
      "start": 79.0974,
      "duration": 0.1369,
      "velocity": 95,
      "chip": "ym2612"
    },
    {
      "channel": 1,
      "note": 88,
      "start": 79.2375,
      "duration": 0.1367,
      "velocity": 95,
      "chip": "ym2612"
    },
    {
      "channel": 1,
      "note": 87,
      "start": 79.3773,
      "duration": 0.1369,
      "velocity": 95,
      "chip": "ym2612"
    },
    {
      "channel": 1,
      "note": 83,
      "start": 79.5174,
      "duration": 0.1569,
      "velocity": 95,
      "chip": "ym2612"
    },
    {
      "channel": 1,
      "note": 80,
      "start": 79.6775,
      "duration": 0.1368,
      "velocity": 95,
      "chip": "ym2612"
    },
    {
      "channel": 0,
      "note": 68,
      "start": 79.68,
      "duration": 1.1542,
      "velocity": 95,
      "chip": "ym2612"
    },
    {
      "channel": 1,
      "note": 83,
      "start": 79.8175,
      "duration": 0.1367,
      "velocity": 95,
      "chip": "ym2612"
    },
    {
      "channel": 1,
      "note": 87,
      "start": 79.9573,
      "duration": 0.1569,
      "velocity": 95,
      "chip": "ym2612"
    },
    {
      "channel": 1,
      "note": 88,
      "start": 80.1174,
      "duration": 0.1369,
      "velocity": 95,
      "chip": "ym2612"
    },
    {
      "channel": 1,
      "note": 92,
      "start": 80.2575,
      "duration": 0.1367,
      "velocity": 95,
      "chip": "ym2612"
    },
    {
      "channel": 1,
      "note": 88,
      "start": 80.3973,
      "duration": 0.1569,
      "velocity": 95,
      "chip": "ym2612"
    },
    {
      "channel": 1,
      "note": 87,
      "start": 80.5574,
      "duration": 0.1369,
      "velocity": 95,
      "chip": "ym2612"
    },
    {
      "channel": 1,
      "note": 83,
      "start": 80.6979,
      "duration": 0.1365,
      "velocity": 95,
      "chip": "ym2612"
    },
    {
      "channel": 4,
      "note": 88,
      "start": 80.8378,
      "duration": 0.1566,
      "velocity": 95,
      "chip": "ym2612"
    },
    {
      "channel": 1,
      "note": 76,
      "start": 80.8405,
      "duration": 0.1537,
      "velocity": 95,
      "chip": "ym2612"
    },
    {
      "channel": 0,
      "note": 64,
      "start": 80.8437,
      "duration": 0.5905,
      "velocity": 95,
      "chip": "ym2612"
    },
    {
      "channel": 3,
      "note": 57,
      "start": 80.8465,
      "duration": 1.748,
      "velocity": 99,
      "chip": "ym2612"
    },
    {
      "channel": 4,
      "note": 85,
      "start": 80.9973,
      "duration": 0.1371,
      "velocity": 95,
      "chip": "ym2612"
    },
    {
      "channel": 1,
      "note": 73,
      "start": 81.0,
      "duration": 0.1342,
      "velocity": 95,
      "chip": "ym2612"
    },
    {
      "channel": 4,
      "note": 83,
      "start": 81.1377,
      "duration": 0.1367,
      "velocity": 95,
      "chip": "ym2612"
    },
    {
      "channel": 1,
      "note": 71,
      "start": 81.1404,
      "duration": 0.1338,
      "velocity": 95,
      "chip": "ym2612"
    },
    {
      "channel": 4,
      "note": 81,
      "start": 81.2773,
      "duration": 0.1572,
      "velocity": 95,
      "chip": "ym2612"
    },
    {
      "channel": 1,
      "note": 69,
      "start": 81.28,
      "duration": 0.1544,
      "velocity": 95,
      "chip": "ym2612"
    },
    {
      "channel": 4,
      "note": 87,
      "start": 81.4375,
      "duration": 0.1369,
      "velocity": 95,
      "chip": "ym2612"
    },
    {
      "channel": 1,
      "note": 75,
      "start": 81.4402,
      "duration": 0.134,
      "velocity": 95,
      "chip": "ym2612"
    },
    {
      "channel": 0,
      "note": 75,
      "start": 81.4427,
      "duration": 0.5714,
      "velocity": 95,
      "chip": "ym2612"
    },
    {
      "channel": 4,
      "note": 85,
      "start": 81.5773,
      "duration": 0.1371,
      "velocity": 95,
      "chip": "ym2612"
    },
    {
      "channel": 1,
      "note": 73,
      "start": 81.58,
      "duration": 0.1343,
      "velocity": 95,
      "chip": "ym2612"
    },
    {
      "channel": 4,
      "note": 83,
      "start": 81.7174,
      "duration": 0.1571,
      "velocity": 95,
      "chip": "ym2612"
    },
    {
      "channel": 1,
      "note": 71,
      "start": 81.72,
      "duration": 0.1543,
      "velocity": 95,
      "chip": "ym2612"
    },
    {
      "channel": 4,
      "note": 81,
      "start": 81.8774,
      "duration": 0.137,
      "velocity": 95,
      "chip": "ym2612"
    },
    {
      "channel": 1,
      "note": 69,
      "start": 81.8801,
      "duration": 0.1342,
      "velocity": 95,
      "chip": "ym2612"
    },
    {
      "channel": 4,
      "note": 88,
      "start": 82.0174,
      "duration": 0.137,
      "velocity": 95,
      "chip": "ym2612"
    },
    {
      "channel": 1,
      "note": 76,
      "start": 82.0208,
      "duration": 0.1334,
      "velocity": 95,
      "chip": "ym2612"
    },
    {
      "channel": 0,
      "note": 76,
      "start": 82.0234,
      "duration": 0.5709,
      "velocity": 95,
      "chip": "ym2612"
    },
    {
      "channel": 4,
      "note": 85,
      "start": 82.1573,
      "duration": 0.1371,
      "velocity": 95,
      "chip": "ym2612"
    },
    {
      "channel": 1,
      "note": 73,
      "start": 82.16,
      "duration": 0.1343,
      "velocity": 95,
      "chip": "ym2612"
    },
    {
      "channel": 4,
      "note": 83,
      "start": 82.2974,
      "duration": 0.1571,
      "velocity": 95,
      "chip": "ym2612"
    },
    {
      "channel": 1,
      "note": 71,
      "start": 82.3004,
      "duration": 0.1539,
      "velocity": 95,
      "chip": "ym2612"
    },
    {
      "channel": 4,
      "note": 81,
      "start": 82.4574,
      "duration": 0.1372,
      "velocity": 95,
      "chip": "ym2612"
    },
    {
      "channel": 1,
      "note": 69,
      "start": 82.4601,
      "duration": 0.1343,
      "velocity": 95,
      "chip": "ym2612"
    },
    {
      "channel": 4,
      "note": 87,
      "start": 82.5975,
      "duration": 0.1369,
      "velocity": 95,
      "chip": "ym2612"
    },
    {
      "channel": 1,
      "note": 75,
      "start": 82.6002,
      "duration": 0.134,
      "velocity": 95,
      "chip": "ym2612"
    },
    {
      "channel": 0,
      "note": 69,
      "start": 82.6027,
      "duration": 0.5714,
      "velocity": 95,
      "chip": "ym2612"
    },
    {
      "channel": 3,
      "note": 56,
      "start": 82.6055,
      "duration": 0.2889,
      "velocity": 99,
      "chip": "ym2612"
    },
    {
      "channel": 4,
      "note": 85,
      "start": 82.7373,
      "duration": 0.1572,
      "velocity": 95,
      "chip": "ym2612"
    },
    {
      "channel": 1,
      "note": 73,
      "start": 82.74,
      "duration": 0.1543,
      "velocity": 95,
      "chip": "ym2612"
    },
    {
      "channel": 4,
      "note": 83,
      "start": 82.8975,
      "duration": 0.1369,
      "velocity": 95,
      "chip": "ym2612"
    },
    {
      "channel": 1,
      "note": 71,
      "start": 82.9002,
      "duration": 0.1341,
      "velocity": 95,
      "chip": "ym2612"
    },
    {
      "channel": 3,
      "note": 54,
      "start": 82.9031,
      "duration": 0.2714,
      "velocity": 99,
      "chip": "ym2612"
    },
    {
      "channel": 4,
      "note": 81,
      "start": 83.0373,
      "duration": 0.1373,
      "velocity": 95,
      "chip": "ym2612"
    },
    {
      "channel": 1,
      "note": 69,
      "start": 83.04,
      "duration": 0.1343,
      "velocity": 95,
      "chip": "ym2612"
    },
    {
      "channel": 4,
      "note": 87,
      "start": 83.1775,
      "duration": 0.1569,
      "velocity": 95,
      "chip": "ym2612"
    },
    {
      "channel": 1,
      "note": 75,
      "start": 83.181,
      "duration": 0.1533,
      "velocity": 95,
      "chip": "ym2612"
    },
    {
      "channel": 0,
      "note": 78,
      "start": 83.1835,
      "duration": 0.5907,
      "velocity": 95,
      "chip": "ym2612"
    },
    {
      "channel": 3,
      "note": 51,
      "start": 83.1863,
      "duration": 2.3281,
      "velocity": 99,
      "chip": "ym2612"
    },
    {
      "channel": 4,
      "note": 82,
      "start": 83.3374,
      "duration": 0.137,
      "velocity": 95,
      "chip": "ym2612"
    },
    {
      "channel": 1,
      "note": 70,
      "start": 83.3401,
      "duration": 0.1341,
      "velocity": 95,
      "chip": "ym2612"
    },
    {
      "channel": 4,
      "note": 78,
      "start": 83.4777,
      "duration": 0.1367,
      "velocity": 95,
      "chip": "ym2612"
    },
    {
      "channel": 1,
      "note": 66,
      "start": 83.4804,
      "duration": 0.1339,
      "velocity": 95,
      "chip": "ym2612"
    },
    {
      "channel": 4,
      "note": 75,
      "start": 83.6174,
      "duration": 0.1571,
      "velocity": 95,
      "chip": "ym2612"
    },
    {
      "channel": 1,
      "note": 63,
      "start": 83.6201,
      "duration": 0.1542,
      "velocity": 95,
      "chip": "ym2612"
    },
    {
      "channel": 4,
      "note": 90,
      "start": 83.7774,
      "duration": 0.137,
      "velocity": 95,
      "chip": "ym2612"
    },
    {
      "channel": 1,
      "note": 78,
      "start": 83.7801,
      "duration": 0.1341,
      "velocity": 95,
      "chip": "ym2612"
    },
    {
      "channel": 0,
      "note": 76,
      "start": 83.7826,
      "duration": 0.5716,
      "velocity": 95,
      "chip": "ym2612"
    },
    {
      "channel": 4,
      "note": 87,
      "start": 83.9173,
      "duration": 0.1372,
      "velocity": 95,
      "chip": "ym2612"
    },
    {
      "channel": 1,
      "note": 75,
      "start": 83.9203,
      "duration": 0.1339,
      "velocity": 95,
      "chip": "ym2612"
    },
    {
      "channel": 4,
      "note": 82,
      "start": 84.0574,
      "duration": 0.157,
      "velocity": 95,
      "chip": "ym2612"
    },
    {
      "channel": 1,
      "note": 70,
      "start": 84.0601,
      "duration": 0.1541,
      "velocity": 95,
      "chip": "ym2612"
    },
    {
      "channel": 4,
      "note": 78,
      "start": 84.2173,
      "duration": 0.1372,
      "velocity": 95,
      "chip": "ym2612"
    },
    {
      "channel": 1,
      "note": 66,
      "start": 84.22,
      "duration": 0.1343,
      "velocity": 95,
      "chip": "ym2612"
    },
    {
      "channel": 4,
      "note": 94,
      "start": 84.3574,
      "duration": 0.137,
      "velocity": 95,
      "chip": "ym2612"
    },
    {
      "channel": 1,
      "note": 82,
      "start": 84.3609,
      "duration": 0.1333,
      "velocity": 95,
      "chip": "ym2612"
    },
    {
      "channel": 0,
      "note": 75,
      "start": 84.3634,
      "duration": 0.5707,
      "velocity": 95,
      "chip": "ym2612"
    },
    {
      "channel": 4,
      "note": 90,
      "start": 84.4973,
      "duration": 0.1371,
      "velocity": 95,
      "chip": "ym2612"
    },
    {
      "channel": 1,
      "note": 78,
      "start": 84.5001,
      "duration": 0.1341,
      "velocity": 95,
      "chip": "ym2612"
    },
    {
      "channel": 4,
      "note": 87,
      "start": 84.6373,
      "duration": 0.1572,
      "velocity": 95,
      "chip": "ym2612"
    },
    {
      "channel": 1,
      "note": 75,
      "start": 84.64,
      "duration": 0.1543,
      "velocity": 95,
      "chip": "ym2612"
    },
    {
      "channel": 4,
      "note": 82,
      "start": 84.7973,
      "duration": 0.1371,
      "velocity": 95,
      "chip": "ym2612"
    },
    {
      "channel": 1,
      "note": 70,
      "start": 84.8001,
      "duration": 0.1343,
      "velocity": 95,
      "chip": "ym2612"
    },
    {
      "channel": 4,
      "note": 99,
      "start": 84.9375,
      "duration": 0.1369,
      "velocity": 95,
      "chip": "ym2612"
    },
    {
      "channel": 1,
      "note": 87,
      "start": 84.9402,
      "duration": 0.1341,
      "velocity": 95,
      "chip": "ym2612"
    },
    {
      "channel": 0,
      "note": 70,
      "start": 84.9427,
      "duration": 0.5714,
      "velocity": 95,
      "chip": "ym2612"
    },
    {
      "channel": 4,
      "note": 94,
      "start": 85.0773,
      "duration": 0.1572,
      "velocity": 95,
      "chip": "ym2612"
    },
    {
      "channel": 1,
      "note": 82,
      "start": 85.08,
      "duration": 0.1543,
      "velocity": 95,
      "chip": "ym2612"
    },
    {
      "channel": 4,
      "note": 90,
      "start": 85.2374,
      "duration": 0.1371,
      "velocity": 95,
      "chip": "ym2612"
    },
    {
      "channel": 1,
      "note": 78,
      "start": 85.2402,
      "duration": 0.1341,
      "velocity": 95,
      "chip": "ym2612"
    },
    {
      "channel": 4,
      "note": 87,
      "start": 85.3773,
      "duration": 0.1372,
      "velocity": 95,
      "chip": "ym2612"
    },
    {
      "channel": 1,
      "note": 75,
      "start": 85.3801,
      "duration": 0.1342,
      "velocity": 95,
      "chip": "ym2612"
    },
    {
      "channel": 4,
      "note": 68,
      "start": 85.5175,
      "duration": 0.1569,
      "velocity": 95,
      "chip": "ym2612"
    },
    {
      "channel": 1,
      "note": 76,
      "start": 85.5213,
      "duration": 0.153,
      "velocity": 95,
      "chip": "ym2612"
    },
    {
      "channel": 0,
      "note": 71,
      "start": 85.5241,
      "duration": 1.1701,
      "velocity": 95,
      "chip": "ym2612"
    },
    {
      "channel": 3,
      "note": 52,
      "start": 85.5269,
      "duration": 1.7475,
      "velocity": 99,
      "chip": "ym2612"
    },
    {
      "channel": 4,
      "note": 71,
      "start": 85.6773,
      "duration": 0.1371,
      "velocity": 95,
      "chip": "ym2612"
    },
    {
      "channel": 1,
      "note": 80,
      "start": 85.6801,
      "duration": 0.1342,
      "velocity": 95,
      "chip": "ym2612"
    },
    {
      "channel": 4,
      "note": 83,
      "start": 85.8178,
      "duration": 0.1366,
      "velocity": 95,
      "chip": "ym2612"
    },
    {
      "channel": 1,
      "note": 83,
      "start": 85.8205,
      "duration": 0.1337,
      "velocity": 95,
      "chip": "ym2612"
    },
    {
      "channel": 4,
      "note": 88,
      "start": 85.9573,
      "duration": 0.1571,
      "velocity": 95,
      "chip": "ym2612"
    },
    {
      "channel": 1,
      "note": 88,
      "start": 85.9601,
      "duration": 0.1541,
      "velocity": 95,
      "chip": "ym2612"
    },
    {
      "channel": 4,
      "note": 92,
      "start": 86.1173,
      "duration": 0.1372,
      "velocity": 95,
      "chip": "ym2612"
    },
    {
      "channel": 1,
      "note": 92,
      "start": 86.12,
      "duration": 0.1343,
      "velocity": 95,
      "chip": "ym2612"
    },
    {
      "channel": 4,
      "note": 88,
      "start": 86.2574,
      "duration": 0.137,
      "velocity": 95,
      "chip": "ym2612"
    },
    {
      "channel": 1,
      "note": 88,
      "start": 86.2602,
      "duration": 0.1341,
      "velocity": 95,
      "chip": "ym2612"
    },
    {
      "channel": 4,
      "note": 83,
      "start": 86.3973,
      "duration": 0.1571,
      "velocity": 95,
      "chip": "ym2612"
    },
    {
      "channel": 1,
      "note": 87,
      "start": 86.4001,
      "duration": 0.1541,
      "velocity": 95,
      "chip": "ym2612"
    },
    {
      "channel": 4,
      "note": 71,
      "start": 86.5573,
      "duration": 0.1373,
      "velocity": 95,
      "chip": "ym2612"
    },
    {
      "channel": 1,
      "note": 83,
      "start": 86.56,
      "duration": 0.1343,
      "velocity": 95,
      "chip": "ym2612"
    },
    {
      "channel": 4,
      "note": 68,
      "start": 86.6975,
      "duration": 0.1369,
      "velocity": 95,
      "chip": "ym2612"
    },
    {
      "channel": 1,
      "note": 76,
      "start": 86.7013,
      "duration": 0.1329,
      "velocity": 95,
      "chip": "ym2612"
    },
    {
      "channel": 0,
      "note": 76,
      "start": 86.7041,
      "duration": 0.57,
      "velocity": 95,
      "chip": "ym2612"
    },
    {
      "channel": 4,
      "note": 71,
      "start": 86.8373,
      "duration": 0.1571,
      "velocity": 95,
      "chip": "ym2612"
    },
    {
      "channel": 1,
      "note": 80,
      "start": 86.8401,
      "duration": 0.1541,
      "velocity": 95,
      "chip": "ym2612"
    },
    {
      "channel": 4,
      "note": 83,
      "start": 86.9973,
      "duration": 0.1372,
      "velocity": 95,
      "chip": "ym2612"
    },
    {
      "channel": 1,
      "note": 83,
      "start": 87.0,
      "duration": 0.1343,
      "velocity": 95,
      "chip": "ym2612"
    },
    {
      "channel": 4,
      "note": 88,
      "start": 87.1373,
      "duration": 0.1373,
      "velocity": 95,
      "chip": "ym2612"
    },
    {
      "channel": 1,
      "note": 88,
      "start": 87.1401,
      "duration": 0.1342,
      "velocity": 95,
      "chip": "ym2612"
    },
    {
      "channel": 4,
      "note": 92,
      "start": 87.2775,
      "duration": 0.1369,
      "velocity": 95,
      "chip": "ym2612"
    },
    {
      "channel": 1,
      "note": 92,
      "start": 87.2803,
      "duration": 0.1339,
      "velocity": 95,
      "chip": "ym2612"
    },
    {
      "channel": 0,
      "note": 75,
      "start": 87.2834,
      "duration": 0.2908,
      "velocity": 95,
      "chip": "ym2612"
    },
    {
      "channel": 3,
      "note": 52,
      "start": 87.2862,
      "duration": 0.2882,
      "velocity": 99,
      "chip": "ym2612"
    },
    {
      "channel": 4,
      "note": 88,
      "start": 87.4173,
      "duration": 0.1573,
      "velocity": 95,
      "chip": "ym2612"
    },
    {
      "channel": 1,
      "note": 88,
      "start": 87.4201,
      "duration": 0.1543,
      "velocity": 95,
      "chip": "ym2612"
    },
    {
      "channel": 4,
      "note": 83,
      "start": 87.5775,
      "duration": 0.1369,
      "velocity": 95,
      "chip": "ym2612"
    },
    {
      "channel": 1,
      "note": 87,
      "start": 87.5803,
      "duration": 0.134,
      "velocity": 95,
      "chip": "ym2612"
    },
    {
      "channel": 0,
      "note": 73,
      "start": 87.5828,
      "duration": 0.2714,
      "velocity": 95,
      "chip": "ym2612"
    },
    {
      "channel": 3,
      "note": 54,
      "start": 87.5853,
      "duration": 0.2692,
      "velocity": 99,
      "chip": "ym2612"
    },
    {
      "channel": 4,
      "note": 71,
      "start": 87.7174,
      "duration": 0.1372,
      "velocity": 95,
      "chip": "ym2612"
    },
    {
      "channel": 1,
      "note": 83,
      "start": 87.7202,
      "duration": 0.1342,
      "velocity": 95,
      "chip": "ym2612"
    },
    {
      "channel": 4,
      "note": 68,
      "start": 87.8575,
      "duration": 0.1569,
      "velocity": 95,
      "chip": "ym2612"
    },
    {
      "channel": 1,
      "note": 80,
      "start": 87.8602,
      "duration": 0.1541,
      "velocity": 95,
      "chip": "ym2612"
    },
    {
      "channel": 0,
      "note": 75,
      "start": 87.863,
      "duration": 1.1711,
      "velocity": 95,
      "chip": "ym2612"
    },
    {
      "channel": 3,
      "note": 56,
      "start": 87.8659,
      "duration": 2.3285,
      "velocity": 99,
      "chip": "ym2612"
    },
    {
      "channel": 4,
      "note": 71,
      "start": 88.0174,
      "duration": 0.1371,
      "velocity": 95,
      "chip": "ym2612"
    },
    {
      "channel": 1,
      "note": 83,
      "start": 88.0202,
      "duration": 0.1341,
      "velocity": 95,
      "chip": "ym2612"
    },
    {
      "channel": 4,
      "note": 87,
      "start": 88.1577,
      "duration": 0.1367,
      "velocity": 95,
      "chip": "ym2612"
    },
    {
      "channel": 1,
      "note": 87,
      "start": 88.1605,
      "duration": 0.1338,
      "velocity": 95,
      "chip": "ym2612"
    },
    {
      "channel": 4,
      "note": 88,
      "start": 88.2974,
      "duration": 0.1571,
      "velocity": 95,
      "chip": "ym2612"
    },
    {
      "channel": 1,
      "note": 88,
      "start": 88.3002,
      "duration": 0.1541,
      "velocity": 95,
      "chip": "ym2612"
    },
    {
      "channel": 4,
      "note": 92,
      "start": 88.4573,
      "duration": 0.1371,
      "velocity": 95,
      "chip": "ym2612"
    },
    {
      "channel": 1,
      "note": 92,
      "start": 88.4601,
      "duration": 0.1341,
      "velocity": 95,
      "chip": "ym2612"
    },
    {
      "channel": 4,
      "note": 88,
      "start": 88.5973,
      "duration": 0.1371,
      "velocity": 95,
      "chip": "ym2612"
    },
    {
      "channel": 1,
      "note": 88,
      "start": 88.6001,
      "duration": 0.1341,
      "velocity": 95,
      "chip": "ym2612"
    },
    {
      "channel": 4,
      "note": 87,
      "start": 88.7373,
      "duration": 0.1571,
      "velocity": 95,
      "chip": "ym2612"
    },
    {
      "channel": 1,
      "note": 87,
      "start": 88.7412,
      "duration": 0.153,
      "velocity": 95,
      "chip": "ym2612"
    },
    {
      "channel": 4,
      "note": 83,
      "start": 88.8973,
      "duration": 0.1372,
      "velocity": 95,
      "chip": "ym2612"
    },
    {
      "channel": 1,
      "note": 83,
      "start": 88.9001,
      "duration": 0.1342,
      "velocity": 95,
      "chip": "ym2612"
    },
    {
      "channel": 4,
      "note": 68,
      "start": 89.0374,
      "duration": 0.137,
      "velocity": 95,
      "chip": "ym2612"
    },
    {
      "channel": 1,
      "note": 80,
      "start": 89.0402,
      "duration": 0.1341,
      "velocity": 95,
      "chip": "ym2612"
    },
    {
      "channel": 0,
      "note": 68,
      "start": 89.0427,
      "duration": 1.1514,
      "velocity": 95,
      "chip": "ym2612"
    },
    {
      "channel": 4,
      "note": 71,
      "start": 89.1773,
      "duration": 0.1571,
      "velocity": 95,
      "chip": "ym2612"
    },
    {
      "channel": 1,
      "note": 83,
      "start": 89.1801,
      "duration": 0.1542,
      "velocity": 95,
      "chip": "ym2612"
    },
    {
      "channel": 4,
      "note": 87,
      "start": 89.3373,
      "duration": 0.1371,
      "velocity": 95,
      "chip": "ym2612"
    },
    {
      "channel": 1,
      "note": 87,
      "start": 89.3402,
      "duration": 0.1341,
      "velocity": 95,
      "chip": "ym2612"
    },
    {
      "channel": 4,
      "note": 88,
      "start": 89.4773,
      "duration": 0.1371,
      "velocity": 95,
      "chip": "ym2612"
    },
    {
      "channel": 1,
      "note": 88,
      "start": 89.4802,
      "duration": 0.1341,
      "velocity": 95,
      "chip": "ym2612"
    },
    {
      "channel": 4,
      "note": 92,
      "start": 89.6173,
      "duration": 0.1371,
      "velocity": 95,
      "chip": "ym2612"
    },
    {
      "channel": 1,
      "note": 92,
      "start": 89.6202,
      "duration": 0.1341,
      "velocity": 95,
      "chip": "ym2612"
    },
    {
      "channel": 4,
      "note": 88,
      "start": 89.7573,
      "duration": 0.1571,
      "velocity": 95,
      "chip": "ym2612"
    },
    {
      "channel": 1,
      "note": 88,
      "start": 89.7602,
      "duration": 0.1541,
      "velocity": 95,
      "chip": "ym2612"
    },
    {
      "channel": 4,
      "note": 87,
      "start": 89.9174,
      "duration": 0.1371,
      "velocity": 95,
      "chip": "ym2612"
    },
    {
      "channel": 1,
      "note": 87,
      "start": 89.9202,
      "duration": 0.1341,
      "velocity": 95,
      "chip": "ym2612"
    },
    {
      "channel": 4,
      "note": 83,
      "start": 90.0574,
      "duration": 0.1371,
      "velocity": 95,
      "chip": "ym2612"
    },
    {
      "channel": 1,
      "note": 83,
      "start": 90.0602,
      "duration": 0.1341,
      "velocity": 95,
      "chip": "ym2612"
    }
  ]
}