{
  "track_name": "22 - Dead World Map",
  "duration_sec": 24.955,
  "sample_rate": 44100,
  "note_count": 185,
  "unique_pitches": 18,
  "pitch_range": 31,
  "avg_note_duration": 0.6737,
  "reconstruction_stats": {
    "notes_reconstructed": 185,
    "keyon_events": 185,
    "keyoff_events": 180,
    "orphan_keyons": 5,
    "unique_pitches": 18,
    "pitch_range": 31,
    "avg_duration_sec": 0.6737
  },
  "metadata": {
    "source": "P\\Phantasy Star III\\22 - Dead World Map.vgz"
  },
  "notes": [
    {
      "channel": 1,
      "note": 42,
      "start": 0.0,
      "duration": 1.5196,
      "velocity": 109,
      "chip": "ym2612"
    },
    {
      "channel": 3,
      "note": 42,
      "start": 0.002,
      "duration": 0.1846,
      "velocity": 109,
      "chip": "ym2612"
    },
    {
      "channel": 4,
      "note": 54,
      "start": 0.0053,
      "duration": 1.1341,
      "velocity": 66,
      "chip": "ym2612"
    },
    {
      "channel": 5,
      "note": 54,
      "start": 0.0086,
      "duration": 1.1315,
      "velocity": 95,
      "chip": "ym2612"
    },
    {
      "channel": 0,
      "note": 42,
      "start": 0.0301,
      "duration": 1.14,
      "velocity": 95,
      "chip": "ym2612"
    },
    {
      "channel": 3,
      "note": 54,
      "start": 0.1871,
      "duration": 0.3804,
      "velocity": 109,
      "chip": "ym2612"
    },
    {
      "channel": 3,
      "note": 54,
      "start": 0.5679,
      "duration": 0.3806,
      "velocity": 109,
      "chip": "ym2612"
    },
    {
      "channel": 3,
      "note": 54,
      "start": 0.949,
      "duration": 0.3806,
      "velocity": 109,
      "chip": "ym2612"
    },
    {
      "channel": 4,
      "note": 49,
      "start": 1.1399,
      "duration": 0.3812,
      "velocity": 66,
      "chip": "ym2612"
    },
    {
      "channel": 5,
      "note": 56,
      "start": 1.1406,
      "duration": 0.3812,
      "velocity": 95,
      "chip": "ym2612"
    },
    {
      "channel": 0,
      "note": 44,
      "start": 1.1706,
      "duration": 0.3804,
      "velocity": 95,
      "chip": "ym2612"
    },
    {
      "channel": 3,
      "note": 54,
      "start": 1.33,
      "duration": 0.1903,
      "velocity": 109,
      "chip": "ym2612"
    },
    {
      "channel": 1,
      "note": 40,
      "start": 1.5202,
      "duration": 1.5235,
      "velocity": 109,
      "chip": "ym2612"
    },
    {
      "channel": 3,
      "note": 40,
      "start": 1.521,
      "duration": 0.1896,
      "velocity": 109,
      "chip": "ym2612"
    },
    {
      "channel": 4,
      "note": 54,
      "start": 1.5217,
      "duration": 0.7607,
      "velocity": 66,
      "chip": "ym2612"
    },
    {
      "channel": 5,
      "note": 57,
      "start": 1.5224,
      "duration": 0.7605,
      "velocity": 95,
      "chip": "ym2612"
    },
    {
      "channel": 0,
      "note": 45,
      "start": 1.5516,
      "duration": 0.7615,
      "velocity": 95,
      "chip": "ym2612"
    },
    {
      "channel": 3,
      "note": 52,
      "start": 1.7111,
      "duration": 0.3804,
      "velocity": 109,
      "chip": "ym2612"
    },
    {
      "channel": 3,
      "note": 52,
      "start": 2.092,
      "duration": 0.3806,
      "velocity": 109,
      "chip": "ym2612"
    },
    {
      "channel": 4,
      "note": 54,
      "start": 2.2828,
      "duration": 0.3807,
      "velocity": 66,
      "chip": "ym2612"
    },
    {
      "channel": 5,
      "note": 61,
      "start": 2.2835,
      "duration": 0.7625,
      "velocity": 95,
      "chip": "ym2612"
    },
    {
      "channel": 0,
      "note": 49,
      "start": 2.3136,
      "duration": 0.7615,
      "velocity": 95,
      "chip": "ym2612"
    },
    {
      "channel": 3,
      "note": 52,
      "start": 2.473,
      "duration": 0.3805,
      "velocity": 109,
      "chip": "ym2612"
    },
    {
      "channel": 4,
      "note": 56,
      "start": 2.664,
      "duration": 0.3812,
      "velocity": 66,
      "chip": "ym2612"
    },
    {
      "channel": 3,
      "note": 52,
      "start": 2.8539,
      "duration": 0.1905,
      "velocity": 109,
      "chip": "ym2612"
    },
    {
      "channel": 1,
      "note": 39,
      "start": 3.0443,
      "duration": 1.5234,
      "velocity": 109,
      "chip": "ym2612"
    },
    {
      "channel": 3,
      "note": 39,
      "start": 3.045,
      "duration": 0.1895,
      "velocity": 109,
      "chip": "ym2612"
    },
    {
      "channel": 4,
      "note": 57,
      "start": 3.0459,
      "duration": 1.1415,
      "velocity": 66,
      "chip": "ym2612"
    },
    {
      "channel": 5,
      "note": 61,
      "start": 3.0466,
      "duration": 0.3791,
      "velocity": 95,
      "chip": "ym2612"
    },
    {
      "channel": 0,
      "note": 49,
      "start": 3.0756,
      "duration": 0.3805,
      "velocity": 95,
      "chip": "ym2612"
    },
    {
      "channel": 3,
      "note": 51,
      "start": 3.2351,
      "duration": 0.3805,
      "velocity": 109,
      "chip": "ym2612"
    },
    {
      "channel": 5,
      "note": 54,
      "start": 3.4263,
      "duration": 2.2856,
      "velocity": 95,
      "chip": "ym2612"
    },
    {
      "channel": 0,
      "note": 42,
      "start": 3.4567,
      "duration": 2.2854,
      "velocity": 95,
      "chip": "ym2612"
    },
    {
      "channel": 3,
      "note": 51,
      "start": 3.616,
      "duration": 0.3806,
      "velocity": 109,
      "chip": "ym2612"
    },
    {
      "channel": 3,
      "note": 51,
      "start": 3.9971,
      "duration": 0.3806,
      "velocity": 109,
      "chip": "ym2612"
    },
    {
      "channel": 4,
      "note": 54,
      "start": 4.188,
      "duration": 1.9054,
      "velocity": 66,
      "chip": "ym2612"
    },
    {
      "channel": 3,
      "note": 51,
      "start": 4.3781,
      "duration": 0.1903,
      "velocity": 109,
      "chip": "ym2612"
    },
    {
      "channel": 1,
      "note": 35,
      "start": 4.5683,
      "duration": 1.5235,
      "velocity": 109,
      "chip": "ym2612"
    },
    {
      "channel": 3,
      "note": 35,
      "start": 4.569,
      "duration": 0.1896,
      "velocity": 109,
      "chip": "ym2612"
    },
    {
      "channel": 3,
      "note": 47,
      "start": 4.7592,
      "duration": 0.3804,
      "velocity": 109,
      "chip": "ym2612"
    },
    {
      "channel": 3,
      "note": 47,
      "start": 5.1401,
      "duration": 0.3805,
      "velocity": 109,
      "chip": "ym2612"
    },
    {
      "channel": 3,
      "note": 47,
      "start": 5.521,
      "duration": 0.3806,
      "velocity": 109,
      "chip": "ym2612"
    },
    {
      "channel": 5,
      "note": 54,
      "start": 5.7124,
      "duration": 0.1901,
      "velocity": 95,
      "chip": "ym2612"
    },
    {
      "channel": 0,
      "note": 42,
      "start": 5.7427,
      "duration": 0.1899,
      "velocity": 95,
      "chip": "ym2612"
    },
    {
      "channel": 3,
      "note": 47,
      "start": 5.9021,
      "duration": 0.1905,
      "velocity": 109,
      "chip": "ym2612"
    },
    {
      "channel": 5,
      "note": 56,
      "start": 5.9032,
      "duration": 0.1908,
      "velocity": 95,
      "chip": "ym2612"
    },
    {
      "channel": 0,
      "note": 44,
      "start": 5.9332,
      "duration": 0.1899,
      "velocity": 95,
      "chip": "ym2612"
    },
    {
      "channel": 1,
      "note": 37,
      "start": 6.0924,
      "duration": 1.5234,
      "velocity": 109,
      "chip": "ym2612"
    },
    {
      "channel": 3,
      "note": 37,
      "start": 6.0931,
      "duration": 0.1895,
      "velocity": 109,
      "chip": "ym2612"
    },
    {
      "channel": 4,
      "note": 49,
      "start": 6.0939,
      "duration": 1.5234,
      "velocity": 66,
      "chip": "ym2612"
    },
    {
      "channel": 5,
      "note": 57,
      "start": 6.0946,
      "duration": 1.5233,
      "velocity": 95,
      "chip": "ym2612"
    },
    {
      "channel": 0,
      "note": 45,
      "start": 6.1237,
      "duration": 1.5235,
      "velocity": 95,
      "chip": "ym2612"
    },
    {
      "channel": 3,
      "note": 49,
      "start": 6.2832,
      "duration": 0.3806,
      "velocity": 109,
      "chip": "ym2612"
    },
    {
      "channel": 3,
      "note": 49,
      "start": 6.6642,
      "duration": 0.3804,
      "velocity": 109,
      "chip": "ym2612"
    },
    {
      "channel": 3,
      "note": 49,
      "start": 7.0451,
      "duration": 0.3805,
      "velocity": 109,
      "chip": "ym2612"
    },
    {
      "channel": 3,
      "note": 49,
      "start": 7.4261,
      "duration": 0.1904,
      "velocity": 109,
      "chip": "ym2612"
    },
    {
      "channel": 1,
      "note": 37,
      "start": 7.6163,
      "duration": 1.5235,
      "velocity": 109,
      "chip": "ym2612"
    },
    {
      "channel": 3,
      "note": 37,
      "start": 7.617,
      "duration": 0.1897,
      "velocity": 109,
      "chip": "ym2612"
    },
    {
      "channel": 4,
      "note": 49,
      "start": 7.6178,
      "duration": 1.5235,
      "velocity": 66,
      "chip": "ym2612"
    },
    {
      "channel": 5,
      "note": 54,
      "start": 7.6185,
      "duration": 1.1413,
      "velocity": 95,
      "chip": "ym2612"
    },
    {
      "channel": 0,
      "note": 42,
      "start": 7.6478,
      "duration": 1.1424,
      "velocity": 95,
      "chip": "ym2612"
    },
    {
      "channel": 3,
      "note": 49,
      "start": 7.8073,
      "duration": 0.3803,
      "velocity": 109,
      "chip": "ym2612"
    },
    {
      "channel": 3,
      "note": 49,
      "start": 8.1881,
      "duration": 0.3805,
      "velocity": 109,
      "chip": "ym2612"
    },
    {
      "channel": 3,
      "note": 49,
      "start": 8.5691,
      "duration": 0.3806,
      "velocity": 109,
      "chip": "ym2612"
    },
    {
      "channel": 5,
      "note": 53,
      "start": 8.7604,
      "duration": 0.3816,
      "velocity": 95,
      "chip": "ym2612"
    },
    {
      "channel": 0,
      "note": 41,
      "start": 8.7907,
      "duration": 0.3805,
      "velocity": 95,
      "chip": "ym2612"
    },
    {
      "channel": 3,
      "note": 49,
      "start": 8.9501,
      "duration": 0.1905,
      "velocity": 109,
      "chip": "ym2612"
    },
    {
      "channel": 1,
      "note": 42,
      "start": 9.1404,
      "duration": 1.5234,
      "velocity": 109,
      "chip": "ym2612"
    },
    {
      "channel": 3,
      "note": 42,
      "start": 9.1411,
      "duration": 0.1896,
      "velocity": 109,
      "chip": "ym2612"
    },
    {
      "channel": 4,
      "note": 54,
      "start": 9.1419,
      "duration": 1.1416,
      "velocity": 66,
      "chip": "ym2612"
    },
    {
      "channel": 5,
      "note": 54,
      "start": 9.1426,
      "duration": 0.3793,
      "velocity": 95,
      "chip": "ym2612"
    },
    {
      "channel": 0,
      "note": 42,
      "start": 9.1719,
      "duration": 0.3803,
      "velocity": 95,
      "chip": "ym2612"
    },
    {
      "channel": 3,
      "note": 54,
      "start": 9.3313,
      "duration": 0.3804,
      "velocity": 109,
      "chip": "ym2612"
    },
    {
      "channel": 5,
      "note": 49,
      "start": 9.5224,
      "duration": 2.2859,
      "velocity": 95,
      "chip": "ym2612"
    },
    {
      "channel": 0,
      "note": 37,
      "start": 9.5528,
      "duration": 2.2855,
      "velocity": 95,
      "chip": "ym2612"
    },
    {
      "channel": 3,
      "note": 54,
      "start": 9.7121,
      "duration": 0.3806,
      "velocity": 109,
      "chip": "ym2612"
    },
    {
      "channel": 3,
      "note": 54,
      "start": 10.0931,
      "duration": 0.3806,
      "velocity": 109,
      "chip": "ym2612"
    },
    {
      "channel": 4,
      "note": 56,
      "start": 10.2841,
      "duration": 0.3813,
      "velocity": 66,
      "chip": "ym2612"
    },
    {
      "channel": 3,
      "note": 54,
      "start": 10.4741,
      "duration": 0.1905,
      "velocity": 109,
      "chip": "ym2612"
    },
    {
      "channel": 1,
      "note": 44,
      "start": 10.6644,
      "duration": 1.5235,
      "velocity": 109,
      "chip": "ym2612"
    },
    {
      "channel": 3,
      "note": 44,
      "start": 10.6652,
      "duration": 0.1896,
      "velocity": 109,
      "chip": "ym2612"
    },
    {
      "channel": 4,
      "note": 57,
      "start": 10.6659,
      "duration": 0.7607,
      "velocity": 66,
      "chip": "ym2612"
    },
    {
      "channel": 3,
      "note": 56,
      "start": 10.8553,
      "duration": 0.3805,
      "velocity": 109,
      "chip": "ym2612"
    },
    {
      "channel": 3,
      "note": 56,
      "start": 11.2362,
      "duration": 0.3804,
      "velocity": 109,
      "chip": "ym2612"
    },
    {
      "channel": 4,
      "note": 54,
      "start": 11.4272,
      "duration": 0.3804,
      "velocity": 66,
      "chip": "ym2612"
    },
    {
      "channel": 3,
      "note": 56,
      "start": 11.6171,
      "duration": 0.3806,
      "velocity": 109,
      "chip": "ym2612"
    },
    {
      "channel": 4,
      "note": 53,
      "start": 11.8082,
      "duration": 0.384,
      "velocity": 66,
      "chip": "ym2612"
    },
    {
      "channel": 5,
      "note": 49,
      "start": 11.809,
      "duration": 0.3839,
      "velocity": 95,
      "chip": "ym2612"
    },
    {
      "channel": 0,
      "note": 37,
      "start": 11.8388,
      "duration": 0.3804,
      "velocity": 95,
      "chip": "ym2612"
    },
    {
      "channel": 3,
      "note": 56,
      "start": 11.9981,
      "duration": 0.1907,
      "velocity": 109,
      "chip": "ym2612"
    },
    {
      "channel": 1,
      "note": 42,
      "start": 12.1885,
      "duration": 1.5234,
      "velocity": 109,
      "chip": "ym2612"
    },
    {
      "channel": 3,
      "note": 42,
      "start": 12.1894,
      "duration": 0.1894,
      "velocity": 109,
      "chip": "ym2612"
    },
    {
      "channel": 4,
      "note": 54,
      "start": 12.1927,
      "duration": 1.1389,
      "velocity": 66,
      "chip": "ym2612"
    },
    {
      "channel": 5,
      "note": 54,
      "start": 12.1934,
      "duration": 1.1389,
      "velocity": 95,
      "chip": "ym2612"
    },
    {
      "channel": 0,
      "note": 42,
      "start": 12.2198,
      "duration": 1.1425,
      "velocity": 95,
      "chip": "ym2612"
    },
    {
      "channel": 3,
      "note": 54,
      "start": 12.3794,
      "duration": 0.3803,
      "velocity": 109,
      "chip": "ym2612"
    },
    {
      "channel": 3,
      "note": 54,
      "start": 12.7602,
      "duration": 0.3807,
      "velocity": 109,
      "chip": "ym2612"
    },
    {
      "channel": 3,
      "note": 54,
      "start": 13.1413,
      "duration": 0.3805,
      "velocity": 109,
      "chip": "ym2612"
    },
    {
      "channel": 4,
      "note": 49,
      "start": 13.3322,
      "duration": 0.3813,
      "velocity": 66,
      "chip": "ym2612"
    },
    {
      "channel": 5,
      "note": 56,
      "start": 13.3329,
      "duration": 0.3812,
      "velocity": 95,
      "chip": "ym2612"
    },
    {
      "channel": 0,
      "note": 44,
      "start": 13.363,
      "duration": 0.3803,
      "velocity": 95,
      "chip": "ym2612"
    },
    {
      "channel": 3,
      "note": 54,
      "start": 13.5222,
      "duration": 0.1905,
      "velocity": 109,
      "chip": "ym2612"
    },
    {
      "channel": 1,
      "note": 40,
      "start": 13.7126,
      "duration": 1.5234,
      "velocity": 109,
      "chip": "ym2612"
    },
    {
      "channel": 3,
      "note": 40,
      "start": 13.7133,
      "duration": 0.1896,
      "velocity": 109,
      "chip": "ym2612"
    },
    {
      "channel": 4,
      "note": 54,
      "start": 13.714,
      "duration": 0.7607,
      "velocity": 66,
      "chip": "ym2612"
    },
    {
      "channel": 5,
      "note": 57,
      "start": 13.7148,
      "duration": 0.7605,
      "velocity": 95,
      "chip": "ym2612"
    },
    {
      "channel": 0,
      "note": 45,
      "start": 13.7439,
      "duration": 0.7615,
      "velocity": 95,
      "chip": "ym2612"
    },
    {
      "channel": 3,
      "note": 52,
      "start": 13.9034,
      "duration": 0.3804,
      "velocity": 109,
      "chip": "ym2612"
    },
    {
      "channel": 3,
      "note": 52,
      "start": 14.2843,
      "duration": 0.3805,
      "velocity": 109,
      "chip": "ym2612"
    },
    {
      "channel": 4,
      "note": 54,
      "start": 14.4752,
      "duration": 0.3805,
      "velocity": 66,
      "chip": "ym2612"
    },
    {
      "channel": 5,
      "note": 61,
      "start": 14.4759,
      "duration": 0.7623,
      "velocity": 95,
      "chip": "ym2612"
    },
    {
      "channel": 0,
      "note": 49,
      "start": 14.5059,
      "duration": 0.7615,
      "velocity": 95,
      "chip": "ym2612"
    },
    {
      "channel": 3,
      "note": 52,
      "start": 14.6652,
      "duration": 0.3807,
      "velocity": 109,
      "chip": "ym2612"
    },
    {
      "channel": 4,
      "note": 56,
      "start": 14.8562,
      "duration": 0.3812,
      "velocity": 66,
      "chip": "ym2612"
    },
    {
      "channel": 3,
      "note": 52,
      "start": 15.0463,
      "duration": 0.1903,
      "velocity": 109,
      "chip": "ym2612"
    },
    {
      "channel": 1,
      "note": 39,
      "start": 15.2366,
      "duration": 1.5235,
      "velocity": 109,
      "chip": "ym2612"
    },
    {
      "channel": 3,
      "note": 39,
      "start": 15.2373,
      "duration": 0.1895,
      "velocity": 109,
      "chip": "ym2612"
    },
    {
      "channel": 4,
      "note": 57,
      "start": 15.238,
      "duration": 1.1417,
      "velocity": 66,
      "chip": "ym2612"
    },
    {
      "channel": 5,
      "note": 66,
      "start": 15.2388,
      "duration": 0.3792,
      "velocity": 95,
      "chip": "ym2612"
    },
    {
      "channel": 0,
      "note": 54,
      "start": 15.2679,
      "duration": 0.3804,
      "velocity": 95,
      "chip": "ym2612"
    },
    {
      "channel": 3,
      "note": 51,
      "start": 15.4273,
      "duration": 0.3805,
      "velocity": 109,
      "chip": "ym2612"
    },
    {
      "channel": 5,
      "note": 54,
      "start": 15.6185,
      "duration": 2.2856,
      "velocity": 95,
      "chip": "ym2612"
    },
    {
      "channel": 0,
      "note": 42,
      "start": 15.6489,
      "duration": 2.2856,
      "velocity": 95,
      "chip": "ym2612"
    },
    {
      "channel": 3,
      "note": 51,
      "start": 15.8083,
      "duration": 0.3805,
      "velocity": 109,
      "chip": "ym2612"
    },
    {
      "channel": 3,
      "note": 51,
      "start": 16.1893,
      "duration": 0.3805,
      "velocity": 109,
      "chip": "ym2612"
    },
    {
      "channel": 4,
      "note": 54,
      "start": 16.3804,
      "duration": 1.9051,
      "velocity": 66,
      "chip": "ym2612"
    },
    {
      "channel": 3,
      "note": 51,
      "start": 16.5703,
      "duration": 0.1905,
      "velocity": 109,
      "chip": "ym2612"
    },
    {
      "channel": 1,
      "note": 35,
      "start": 16.7607,
      "duration": 1.5233,
      "velocity": 109,
      "chip": "ym2612"
    },
    {
      "channel": 3,
      "note": 35,
      "start": 16.7614,
      "duration": 0.1895,
      "velocity": 109,
      "chip": "ym2612"
    },
    {
      "channel": 3,
      "note": 47,
      "start": 16.9515,
      "duration": 0.3804,
      "velocity": 109,
      "chip": "ym2612"
    },
    {
      "channel": 3,
      "note": 47,
      "start": 17.3323,
      "duration": 0.3806,
      "velocity": 109,
      "chip": "ym2612"
    },
    {
      "channel": 3,
      "note": 47,
      "start": 17.7133,
      "duration": 0.3805,
      "velocity": 109,
      "chip": "ym2612"
    },
    {
      "channel": 5,
      "note": 54,
      "start": 17.9047,
      "duration": 0.1901,
      "velocity": 95,
      "chip": "ym2612"
    },
    {
      "channel": 0,
      "note": 42,
      "start": 17.935,
      "duration": 0.1899,
      "velocity": 95,
      "chip": "ym2612"
    },
    {
      "channel": 3,
      "note": 47,
      "start": 18.0943,
      "duration": 0.1904,
      "velocity": 109,
      "chip": "ym2612"
    },
    {
      "channel": 5,
      "note": 56,
      "start": 18.0954,
      "duration": 0.1908,
      "velocity": 95,
      "chip": "ym2612"
    },
    {
      "channel": 0,
      "note": 44,
      "start": 18.1255,
      "duration": 0.19,
      "velocity": 95,
      "chip": "ym2612"
    },
    {
      "channel": 1,
      "note": 37,
      "start": 18.2846,
      "duration": 1.5235,
      "velocity": 109,
      "chip": "ym2612"
    },
    {
      "channel": 3,
      "note": 37,
      "start": 18.2853,
      "duration": 0.1896,
      "velocity": 109,
      "chip": "ym2612"
    },
    {
      "channel": 4,
      "note": 49,
      "start": 18.2861,
      "duration": 1.5235,
      "velocity": 66,
      "chip": "ym2612"
    },
    {
      "channel": 5,
      "note": 57,
      "start": 18.2868,
      "duration": 1.5235,
      "velocity": 95,
      "chip": "ym2612"
    },
    {
      "channel": 0,
      "note": 45,
      "start": 18.3161,
      "duration": 1.5234,
      "velocity": 95,
      "chip": "ym2612"
    },
    {
      "channel": 3,
      "note": 49,
      "start": 18.4755,
      "duration": 0.3804,
      "velocity": 109,
      "chip": "ym2612"
    },
    {
      "channel": 3,
      "note": 49,
      "start": 18.8563,
      "duration": 0.3805,
      "velocity": 109,
      "chip": "ym2612"
    },
    {
      "channel": 3,
      "note": 49,
      "start": 19.2373,
      "duration": 0.3805,
      "velocity": 109,
      "chip": "ym2612"
    },
    {
      "channel": 3,
      "note": 49,
      "start": 19.6183,
      "duration": 0.1905,
      "velocity": 109,
      "chip": "ym2612"
    },
    {
      "channel": 1,
      "note": 37,
      "start": 19.8086,
      "duration": 1.5235,
      "velocity": 109,
      "chip": "ym2612"
    },
    {
      "channel": 3,
      "note": 37,
      "start": 19.8094,
      "duration": 0.1895,
      "velocity": 109,
      "chip": "ym2612"
    },
    {
      "channel": 4,
      "note": 49,
      "start": 19.8101,
      "duration": 1.5235,
      "velocity": 66,
      "chip": "ym2612"
    },
    {
      "channel": 5,
      "note": 54,
      "start": 19.8109,
      "duration": 1.1413,
      "velocity": 95,
      "chip": "ym2612"
    },
    {
      "channel": 0,
      "note": 42,
      "start": 19.8401,
      "duration": 1.1424,
      "velocity": 95,
      "chip": "ym2612"
    },
    {
      "channel": 3,
      "note": 49,
      "start": 19.9995,
      "duration": 0.3805,
      "velocity": 109,
      "chip": "ym2612"
    },
    {
      "channel": 3,
      "note": 49,
      "start": 20.3805,
      "duration": 0.3805,
      "velocity": 109,
      "chip": "ym2612"
    },
    {
      "channel": 3,
      "note": 49,
      "start": 20.7614,
      "duration": 0.3806,
      "velocity": 109,
      "chip": "ym2612"
    },
    {
      "channel": 5,
      "note": 53,
      "start": 20.9527,
      "duration": 0.3815,
      "velocity": 95,
      "chip": "ym2612"
    },
    {
      "channel": 0,
      "note": 41,
      "start": 20.9831,
      "duration": 0.3805,
      "velocity": 95,
      "chip": "ym2612"
    },
    {
      "channel": 3,
      "note": 49,
      "start": 21.1424,
      "duration": 0.1904,
      "velocity": 109,
      "chip": "ym2612"
    },
    {
      "channel": 1,
      "note": 42,
      "start": 21.3327,
      "duration": 1.5235,
      "velocity": 109,
      "chip": "ym2612"
    },
    {
      "channel": 3,
      "note": 42,
      "start": 21.3334,
      "duration": 0.1896,
      "velocity": 109,
      "chip": "ym2612"
    },
    {
      "channel": 4,
      "note": 54,
      "start": 21.3341,
      "duration": 1.1417,
      "velocity": 66,
      "chip": "ym2612"
    },
    {
      "channel": 5,
      "note": 54,
      "start": 21.3349,
      "duration": 2.6658,
      "velocity": 95,
      "chip": "ym2612"
    },
    {
      "channel": 0,
      "note": 42,
      "start": 21.3641,
      "duration": 2.6664,
      "velocity": 95,
      "chip": "ym2612"
    },
    {
      "channel": 3,
      "note": 54,
      "start": 21.5235,
      "duration": 0.3804,
      "velocity": 109,
      "chip": "ym2612"
    },
    {
      "channel": 3,
      "note": 54,
      "start": 21.9044,
      "duration": 0.3806,
      "velocity": 109,
      "chip": "ym2612"
    },
    {
      "channel": 3,
      "note": 54,
      "start": 22.2854,
      "duration": 0.3805,
      "velocity": 109,
      "chip": "ym2612"
    },
    {
      "channel": 4,
      "note": 56,
      "start": 22.4764,
      "duration": 0.3812,
      "velocity": 66,
      "chip": "ym2612"
    },
    {
      "channel": 3,
      "note": 54,
      "start": 22.6664,
      "duration": 0.1906,
      "velocity": 109,
      "chip": "ym2612"
    },
    {
      "channel": 1,
      "note": 42,
      "start": 22.8567,
      "duration": 1.5259,
      "velocity": 109,
      "chip": "ym2612"
    },
    {
      "channel": 3,
      "note": 42,
      "start": 22.8576,
      "duration": 0.1894,
      "velocity": 109,
      "chip": "ym2612"
    },
    {
      "channel": 4,
      "note": 57,
      "start": 22.8583,
      "duration": 0.7605,
      "velocity": 66,
      "chip": "ym2612"
    },
    {
      "channel": 3,
      "note": 54,
      "start": 23.0476,
      "duration": 0.3805,
      "velocity": 109,
      "chip": "ym2612"
    },
    {
      "channel": 3,
      "note": 54,
      "start": 23.4285,
      "duration": 0.3805,
      "velocity": 109,
      "chip": "ym2612"
    },
    {
      "channel": 4,
      "note": 54,
      "start": 23.6194,
      "duration": 0.3805,
      "velocity": 66,
      "chip": "ym2612"
    },
    {
      "channel": 3,
      "note": 54,
      "start": 23.8095,
      "duration": 0.3805,
      "velocity": 109,
      "chip": "ym2612"
    },
    {
      "channel": 4,
      "note": 53,
      "start": 24.0004,
      "duration": 0.389,
      "velocity": 66,
      "chip": "ym2612"
    },
    {
      "channel": 5,
      "note": 49,
      "start": 24.0012,
      "duration": 0.3917,
      "velocity": 95,
      "chip": "ym2612"
    },
    {
      "channel": 0,
      "note": 37,
      "start": 24.0311,
      "duration": 0.383,
      "velocity": 95,
      "chip": "ym2612"
    },
    {
      "channel": 3,
      "note": 54,
      "start": 24.1904,
      "duration": 0.1957,
      "velocity": 109,
      "chip": "ym2612"
    },
    {
      "channel": 1,
      "note": 42,
      "start": 24.3832,
      "duration": 0.5719,
      "velocity": 109,
      "chip": "ym2612"
    },
    {
      "channel": 3,
      "note": 42,
      "start": 24.3867,
      "duration": 0.1843,
      "velocity": 109,
      "chip": "ym2612"
    },
    {
      "channel": 4,
      "note": 54,
      "start": 24.3901,
      "duration": 0.5651,
      "velocity": 66,
      "chip": "ym2612"
    },
    {
      "channel": 5,
      "note": 54,
      "start": 24.3934,
      "duration": 0.5617,
      "velocity": 95,
      "chip": "ym2612"
    },
    {
      "channel": 0,
      "note": 42,
      "start": 24.4147,
      "duration": 0.5405,
      "velocity": 95,
      "chip": "ym2612"
    },
    {
      "channel": 3,
      "note": 54,
      "start": 24.5715,
      "duration": 0.3805,
      "velocity": 109,
      "chip": "ym2612"
    },
    {
      "channel": 3,
      "note": 54,
      "start": 24.9525,
      "duration": 0.0027,
      "velocity": 109,
      "chip": "ym2612"
    }
  ]
}