{
  "track_name": "22 - Solitude",
  "duration_sec": 169.701,
  "sample_rate": 44100,
  "note_count": 553,
  "unique_pitches": 25,
  "pitch_range": 31,
  "avg_note_duration": 1.1618,
  "reconstruction_stats": {
    "notes_reconstructed": 553,
    "keyon_events": 553,
    "keyoff_events": 552,
    "orphan_keyons": 1,
    "unique_pitches": 25,
    "pitch_range": 31,
    "avg_duration_sec": 1.1618
  },
  "metadata": {
    "source": "D\\Desire\\22 - Solitude.vgz"
  },
  "notes": [
    {
      "channel": 2,
      "note": 70,
      "start": 0.0016,
      "duration": 1.6099,
      "velocity": 87,
      "chip": "ym2612"
    },
    {
      "channel": 3,
      "note": 70,
      "start": 0.3229,
      "duration": 1.6144,
      "velocity": 87,
      "chip": "ym2612"
    },
    {
      "channel": 2,
      "note": 63,
      "start": 1.6252,
      "duration": 0.3121,
      "velocity": 87,
      "chip": "ym2612"
    },
    {
      "channel": 2,
      "note": 65,
      "start": 1.9509,
      "duration": 0.3121,
      "velocity": 87,
      "chip": "ym2612"
    },
    {
      "channel": 3,
      "note": 63,
      "start": 1.9512,
      "duration": 0.3118,
      "velocity": 87,
      "chip": "ym2612"
    },
    {
      "channel": 2,
      "note": 66,
      "start": 2.2766,
      "duration": 0.3121,
      "velocity": 87,
      "chip": "ym2612"
    },
    {
      "channel": 3,
      "note": 65,
      "start": 2.2769,
      "duration": 0.3119,
      "velocity": 87,
      "chip": "ym2612"
    },
    {
      "channel": 2,
      "note": 70,
      "start": 2.6024,
      "duration": 2.5921,
      "velocity": 87,
      "chip": "ym2612"
    },
    {
      "channel": 3,
      "note": 66,
      "start": 2.6026,
      "duration": 0.3118,
      "velocity": 87,
      "chip": "ym2612"
    },
    {
      "channel": 3,
      "note": 70,
      "start": 2.9282,
      "duration": 2.592,
      "velocity": 87,
      "chip": "ym2612"
    },
    {
      "channel": 2,
      "note": 70,
      "start": 5.2082,
      "duration": 1.615,
      "velocity": 87,
      "chip": "ym2612"
    },
    {
      "channel": 3,
      "note": 70,
      "start": 5.5341,
      "duration": 1.6149,
      "velocity": 87,
      "chip": "ym2612"
    },
    {
      "channel": 2,
      "note": 63,
      "start": 6.8368,
      "duration": 0.3121,
      "velocity": 87,
      "chip": "ym2612"
    },
    {
      "channel": 2,
      "note": 65,
      "start": 7.1625,
      "duration": 0.3121,
      "velocity": 87,
      "chip": "ym2612"
    },
    {
      "channel": 3,
      "note": 63,
      "start": 7.1628,
      "duration": 0.3119,
      "velocity": 87,
      "chip": "ym2612"
    },
    {
      "channel": 2,
      "note": 66,
      "start": 7.4883,
      "duration": 0.3121,
      "velocity": 87,
      "chip": "ym2612"
    },
    {
      "channel": 3,
      "note": 65,
      "start": 7.4885,
      "duration": 0.3119,
      "velocity": 87,
      "chip": "ym2612"
    },
    {
      "channel": 2,
      "note": 68,
      "start": 7.814,
      "duration": 2.5922,
      "velocity": 87,
      "chip": "ym2612"
    },
    {
      "channel": 3,
      "note": 66,
      "start": 7.8143,
      "duration": 0.3118,
      "velocity": 87,
      "chip": "ym2612"
    },
    {
      "channel": 3,
      "note": 68,
      "start": 8.1399,
      "duration": 2.592,
      "velocity": 87,
      "chip": "ym2612"
    },
    {
      "channel": 2,
      "note": 66,
      "start": 10.4198,
      "duration": 1.2892,
      "velocity": 87,
      "chip": "ym2612"
    },
    {
      "channel": 3,
      "note": 66,
      "start": 10.7457,
      "duration": 1.2891,
      "velocity": 87,
      "chip": "ym2612"
    },
    {
      "channel": 2,
      "note": 66,
      "start": 11.7227,
      "duration": 0.4749,
      "velocity": 87,
      "chip": "ym2612"
    },
    {
      "channel": 3,
      "note": 66,
      "start": 12.0486,
      "duration": 0.475,
      "velocity": 87,
      "chip": "ym2612"
    },
    {
      "channel": 2,
      "note": 68,
      "start": 12.2113,
      "duration": 0.4749,
      "velocity": 87,
      "chip": "ym2612"
    },
    {
      "channel": 3,
      "note": 68,
      "start": 12.5372,
      "duration": 0.4748,
      "velocity": 87,
      "chip": "ym2612"
    },
    {
      "channel": 2,
      "note": 66,
      "start": 12.6999,
      "duration": 0.3121,
      "velocity": 87,
      "chip": "ym2612"
    },
    {
      "channel": 2,
      "note": 65,
      "start": 13.0257,
      "duration": 1.2892,
      "velocity": 87,
      "chip": "ym2612"
    },
    {
      "channel": 3,
      "note": 66,
      "start": 13.0259,
      "duration": 0.3118,
      "velocity": 87,
      "chip": "ym2612"
    },
    {
      "channel": 3,
      "note": 65,
      "start": 13.3515,
      "duration": 1.2891,
      "velocity": 87,
      "chip": "ym2612"
    },
    {
      "channel": 2,
      "note": 61,
      "start": 14.3285,
      "duration": 1.2893,
      "velocity": 87,
      "chip": "ym2612"
    },
    {
      "channel": 3,
      "note": 61,
      "start": 14.6544,
      "duration": 1.2895,
      "velocity": 87,
      "chip": "ym2612"
    },
    {
      "channel": 2,
      "note": 58,
      "start": 15.6315,
      "duration": 0.9635,
      "velocity": 87,
      "chip": "ym2612"
    },
    {
      "channel": 3,
      "note": 58,
      "start": 15.9573,
      "duration": 0.9634,
      "velocity": 87,
      "chip": "ym2612"
    },
    {
      "channel": 2,
      "note": 63,
      "start": 16.6087,
      "duration": 4.2208,
      "velocity": 87,
      "chip": "ym2612"
    },
    {
      "channel": 3,
      "note": 63,
      "start": 16.9347,
      "duration": 4.2205,
      "velocity": 87,
      "chip": "ym2612"
    },
    {
      "channel": 2,
      "note": 70,
      "start": 20.8432,
      "duration": 1.6149,
      "velocity": 87,
      "chip": "ym2612"
    },
    {
      "channel": 4,
      "note": 75,
      "start": 20.8438,
      "duration": 0.3254,
      "velocity": 100,
      "chip": "ym2612"
    },
    {
      "channel": 5,
      "note": 70,
      "start": 20.8441,
      "duration": 0.3251,
      "velocity": 100,
      "chip": "ym2612"
    },
    {
      "channel": 3,
      "note": 70,
      "start": 21.169,
      "duration": 1.6149,
      "velocity": 87,
      "chip": "ym2612"
    },
    {
      "channel": 4,
      "note": 75,
      "start": 21.4949,
      "duration": 0.3257,
      "velocity": 100,
      "chip": "ym2612"
    },
    {
      "channel": 5,
      "note": 70,
      "start": 21.4951,
      "duration": 0.3254,
      "velocity": 100,
      "chip": "ym2612"
    },
    {
      "channel": 4,
      "note": 75,
      "start": 22.1463,
      "duration": 0.3257,
      "velocity": 100,
      "chip": "ym2612"
    },
    {
      "channel": 5,
      "note": 70,
      "start": 22.1466,
      "duration": 0.3255,
      "velocity": 100,
      "chip": "ym2612"
    },
    {
      "channel": 2,
      "note": 63,
      "start": 22.4717,
      "duration": 0.3121,
      "velocity": 87,
      "chip": "ym2612"
    },
    {
      "channel": 2,
      "note": 65,
      "start": 22.7975,
      "duration": 0.3121,
      "velocity": 87,
      "chip": "ym2612"
    },
    {
      "channel": 3,
      "note": 63,
      "start": 22.7977,
      "duration": 0.3119,
      "velocity": 87,
      "chip": "ym2612"
    },
    {
      "channel": 4,
      "note": 75,
      "start": 22.798,
      "duration": 0.3259,
      "velocity": 100,
      "chip": "ym2612"
    },
    {
      "channel": 5,
      "note": 70,
      "start": 22.7983,
      "duration": 0.3257,
      "velocity": 100,
      "chip": "ym2612"
    },
    {
      "channel": 2,
      "note": 66,
      "start": 23.1232,
      "duration": 0.3121,
      "velocity": 87,
      "chip": "ym2612"
    },
    {
      "channel": 3,
      "note": 65,
      "start": 23.1237,
      "duration": 0.3116,
      "velocity": 87,
      "chip": "ym2612"
    },
    {
      "channel": 2,
      "note": 70,
      "start": 23.449,
      "duration": 2.5922,
      "velocity": 87,
      "chip": "ym2612"
    },
    {
      "channel": 3,
      "note": 66,
      "start": 23.4492,
      "duration": 0.3118,
      "velocity": 87,
      "chip": "ym2612"
    },
    {
      "channel": 4,
      "note": 74,
      "start": 23.4495,
      "duration": 0.3255,
      "velocity": 100,
      "chip": "ym2612"
    },
    {
      "channel": 5,
      "note": 70,
      "start": 23.4497,
      "duration": 0.3253,
      "velocity": 100,
      "chip": "ym2612"
    },
    {
      "channel": 3,
      "note": 70,
      "start": 23.7748,
      "duration": 2.592,
      "velocity": 87,
      "chip": "ym2612"
    },
    {
      "channel": 4,
      "note": 74,
      "start": 24.1007,
      "duration": 0.3256,
      "velocity": 100,
      "chip": "ym2612"
    },
    {
      "channel": 5,
      "note": 70,
      "start": 24.101,
      "duration": 0.3254,
      "velocity": 100,
      "chip": "ym2612"
    },
    {
      "channel": 4,
      "note": 74,
      "start": 24.7522,
      "duration": 0.3257,
      "velocity": 100,
      "chip": "ym2612"
    },
    {
      "channel": 5,
      "note": 70,
      "start": 24.7524,
      "duration": 0.3254,
      "velocity": 100,
      "chip": "ym2612"
    },
    {
      "channel": 4,
      "note": 74,
      "start": 25.4039,
      "duration": 0.3254,
      "velocity": 100,
      "chip": "ym2612"
    },
    {
      "channel": 5,
      "note": 70,
      "start": 25.4041,
      "duration": 0.3252,
      "velocity": 100,
      "chip": "ym2612"
    },
    {
      "channel": 2,
      "note": 70,
      "start": 26.0548,
      "duration": 1.615,
      "velocity": 87,
      "chip": "ym2612"
    },
    {
      "channel": 4,
      "note": 73,
      "start": 26.0552,
      "duration": 0.326,
      "velocity": 100,
      "chip": "ym2612"
    },
    {
      "channel": 5,
      "note": 70,
      "start": 26.0555,
      "duration": 0.3258,
      "velocity": 100,
      "chip": "ym2612"
    },
    {
      "channel": 3,
      "note": 70,
      "start": 26.381,
      "duration": 1.6145,
      "velocity": 87,
      "chip": "ym2612"
    },
    {
      "channel": 4,
      "note": 73,
      "start": 26.7065,
      "duration": 0.3256,
      "velocity": 100,
      "chip": "ym2612"
    },
    {
      "channel": 5,
      "note": 70,
      "start": 26.7068,
      "duration": 0.3254,
      "velocity": 100,
      "chip": "ym2612"
    },
    {
      "channel": 4,
      "note": 73,
      "start": 27.358,
      "duration": 0.326,
      "velocity": 100,
      "chip": "ym2612"
    },
    {
      "channel": 5,
      "note": 70,
      "start": 27.3583,
      "duration": 0.3258,
      "velocity": 100,
      "chip": "ym2612"
    },
    {
      "channel": 2,
      "note": 63,
      "start": 27.6837,
      "duration": 0.3118,
      "velocity": 87,
      "chip": "ym2612"
    },
    {
      "channel": 2,
      "note": 65,
      "start": 28.0091,
      "duration": 0.3121,
      "velocity": 87,
      "chip": "ym2612"
    },
    {
      "channel": 3,
      "note": 63,
      "start": 28.0094,
      "duration": 0.3119,
      "velocity": 87,
      "chip": "ym2612"
    },
    {
      "channel": 4,
      "note": 73,
      "start": 28.0096,
      "duration": 0.3256,
      "velocity": 100,
      "chip": "ym2612"
    },
    {
      "channel": 5,
      "note": 70,
      "start": 28.0099,
      "duration": 0.3254,
      "velocity": 100,
      "chip": "ym2612"
    },
    {
      "channel": 2,
      "note": 66,
      "start": 28.3349,
      "duration": 0.3121,
      "velocity": 87,
      "chip": "ym2612"
    },
    {
      "channel": 3,
      "note": 65,
      "start": 28.3351,
      "duration": 0.3118,
      "velocity": 87,
      "chip": "ym2612"
    },
    {
      "channel": 2,
      "note": 68,
      "start": 28.6606,
      "duration": 2.5922,
      "velocity": 87,
      "chip": "ym2612"
    },
    {
      "channel": 3,
      "note": 66,
      "start": 28.6609,
      "duration": 0.3118,
      "velocity": 87,
      "chip": "ym2612"
    },
    {
      "channel": 4,
      "note": 72,
      "start": 28.6611,
      "duration": 0.3255,
      "velocity": 100,
      "chip": "ym2612"
    },
    {
      "channel": 5,
      "note": 68,
      "start": 28.6614,
      "duration": 0.3253,
      "velocity": 100,
      "chip": "ym2612"
    },
    {
      "channel": 3,
      "note": 68,
      "start": 28.9865,
      "duration": 2.592,
      "velocity": 87,
      "chip": "ym2612"
    },
    {
      "channel": 4,
      "note": 72,
      "start": 29.3124,
      "duration": 0.3256,
      "velocity": 100,
      "chip": "ym2612"
    },
    {
      "channel": 5,
      "note": 68,
      "start": 29.3126,
      "duration": 0.3254,
      "velocity": 100,
      "chip": "ym2612"
    },
    {
      "channel": 4,
      "note": 72,
      "start": 29.964,
      "duration": 0.3255,
      "velocity": 100,
      "chip": "ym2612"
    },
    {
      "channel": 5,
      "note": 68,
      "start": 29.9643,
      "duration": 0.3252,
      "velocity": 100,
      "chip": "ym2612"
    },
    {
      "channel": 4,
      "note": 72,
      "start": 30.6153,
      "duration": 0.3256,
      "velocity": 100,
      "chip": "ym2612"
    },
    {
      "channel": 5,
      "note": 68,
      "start": 30.6155,
      "duration": 0.3254,
      "velocity": 100,
      "chip": "ym2612"
    },
    {
      "channel": 2,
      "note": 66,
      "start": 31.2664,
      "duration": 1.2892,
      "velocity": 87,
      "chip": "ym2612"
    },
    {
      "channel": 4,
      "note": 71,
      "start": 31.2668,
      "duration": 0.3256,
      "velocity": 100,
      "chip": "ym2612"
    },
    {
      "channel": 5,
      "note": 66,
      "start": 31.2671,
      "duration": 0.3254,
      "velocity": 100,
      "chip": "ym2612"
    },
    {
      "channel": 3,
      "note": 66,
      "start": 31.5923,
      "duration": 1.2891,
      "velocity": 87,
      "chip": "ym2612"
    },
    {
      "channel": 4,
      "note": 71,
      "start": 31.9182,
      "duration": 0.3257,
      "velocity": 100,
      "chip": "ym2612"
    },
    {
      "channel": 5,
      "note": 66,
      "start": 31.9185,
      "duration": 0.3255,
      "velocity": 100,
      "chip": "ym2612"
    },
    {
      "channel": 2,
      "note": 66,
      "start": 32.5693,
      "duration": 0.4749,
      "velocity": 87,
      "chip": "ym2612"
    },
    {
      "channel": 4,
      "note": 71,
      "start": 32.5697,
      "duration": 0.3256,
      "velocity": 100,
      "chip": "ym2612"
    },
    {
      "channel": 5,
      "note": 66,
      "start": 32.57,
      "duration": 0.3254,
      "velocity": 100,
      "chip": "ym2612"
    },
    {
      "channel": 3,
      "note": 66,
      "start": 32.8952,
      "duration": 0.4748,
      "velocity": 87,
      "chip": "ym2612"
    },
    {
      "channel": 2,
      "note": 68,
      "start": 33.0579,
      "duration": 0.4749,
      "velocity": 87,
      "chip": "ym2612"
    },
    {
      "channel": 4,
      "note": 71,
      "start": 33.2211,
      "duration": 0.3258,
      "velocity": 100,
      "chip": "ym2612"
    },
    {
      "channel": 5,
      "note": 66,
      "start": 33.2213,
      "duration": 0.3255,
      "velocity": 100,
      "chip": "ym2612"
    },
    {
      "channel": 3,
      "note": 68,
      "start": 33.3839,
      "duration": 0.4748,
      "velocity": 87,
      "chip": "ym2612"
    },
    {
      "channel": 2,
      "note": 66,
      "start": 33.5465,
      "duration": 0.3121,
      "velocity": 87,
      "chip": "ym2612"
    },
    {
      "channel": 2,
      "note": 65,
      "start": 33.8723,
      "duration": 1.2892,
      "velocity": 87,
      "chip": "ym2612"
    },
    {
      "channel": 3,
      "note": 66,
      "start": 33.8725,
      "duration": 0.3118,
      "velocity": 87,
      "chip": "ym2612"
    },
    {
      "channel": 4,
      "note": 71,
      "start": 33.8728,
      "duration": 0.3255,
      "velocity": 100,
      "chip": "ym2612"
    },
    {
      "channel": 5,
      "note": 65,
      "start": 33.873,
      "duration": 0.3253,
      "velocity": 100,
      "chip": "ym2612"
    },
    {
      "channel": 3,
      "note": 65,
      "start": 34.1981,
      "duration": 1.2891,
      "velocity": 87,
      "chip": "ym2612"
    },
    {
      "channel": 4,
      "note": 71,
      "start": 34.524,
      "duration": 0.3256,
      "velocity": 100,
      "chip": "ym2612"
    },
    {
      "channel": 5,
      "note": 65,
      "start": 34.5243,
      "duration": 0.3254,
      "velocity": 100,
      "chip": "ym2612"
    },
    {
      "channel": 2,
      "note": 61,
      "start": 35.1751,
      "duration": 1.2893,
      "velocity": 87,
      "chip": "ym2612"
    },
    {
      "channel": 4,
      "note": 71,
      "start": 35.1756,
      "duration": 0.3257,
      "velocity": 100,
      "chip": "ym2612"
    },
    {
      "channel": 5,
      "note": 65,
      "start": 35.1758,
      "duration": 0.3255,
      "velocity": 100,
      "chip": "ym2612"
    },
    {
      "channel": 3,
      "note": 61,
      "start": 35.501,
      "duration": 1.2891,
      "velocity": 87,
      "chip": "ym2612"
    },
    {
      "channel": 4,
      "note": 71,
      "start": 35.8269,
      "duration": 0.3256,
      "velocity": 100,
      "chip": "ym2612"
    },
    {
      "channel": 5,
      "note": 65,
      "start": 35.8272,
      "duration": 0.3254,
      "velocity": 100,
      "chip": "ym2612"
    },
    {
      "channel": 2,
      "note": 63,
      "start": 36.4781,
      "duration": 4.5465,
      "velocity": 87,
      "chip": "ym2612"
    },
    {
      "channel": 4,
      "note": 70,
      "start": 36.4785,
      "duration": 0.3256,
      "velocity": 100,
      "chip": "ym2612"
    },
    {
      "channel": 5,
      "note": 63,
      "start": 36.4788,
      "duration": 0.3254,
      "velocity": 100,
      "chip": "ym2612"
    },
    {
      "channel": 3,
      "note": 63,
      "start": 36.8039,
      "duration": 4.5464,
      "velocity": 87,
      "chip": "ym2612"
    },
    {
      "channel": 4,
      "note": 70,
      "start": 37.1298,
      "duration": 0.3257,
      "velocity": 100,
      "chip": "ym2612"
    },
    {
      "channel": 5,
      "note": 63,
      "start": 37.1301,
      "duration": 0.3254,
      "velocity": 100,
      "chip": "ym2612"
    },
    {
      "channel": 4,
      "note": 70,
      "start": 37.7813,
      "duration": 0.3256,
      "velocity": 100,
      "chip": "ym2612"
    },
    {
      "channel": 5,
      "note": 63,
      "start": 37.7815,
      "duration": 0.3254,
      "velocity": 100,
      "chip": "ym2612"
    },
    {
      "channel": 4,
      "note": 70,
      "start": 38.4327,
      "duration": 0.3256,
      "velocity": 100,
      "chip": "ym2612"
    },
    {
      "channel": 5,
      "note": 63,
      "start": 38.433,
      "duration": 0.3254,
      "velocity": 100,
      "chip": "ym2612"
    },
    {
      "channel": 4,
      "note": 70,
      "start": 39.0842,
      "duration": 0.3256,
      "velocity": 100,
      "chip": "ym2612"
    },
    {
      "channel": 5,
      "note": 63,
      "start": 39.0845,
      "duration": 0.3254,
      "velocity": 100,
      "chip": "ym2612"
    },
    {
      "channel": 4,
      "note": 70,
      "start": 39.7356,
      "duration": 0.3256,
      "velocity": 100,
      "chip": "ym2612"
    },
    {
      "channel": 5,
      "note": 63,
      "start": 39.7359,
      "duration": 0.3254,
      "velocity": 100,
      "chip": "ym2612"
    },
    {
      "channel": 4,
      "note": 70,
      "start": 40.3871,
      "duration": 0.3256,
      "velocity": 100,
      "chip": "ym2612"
    },
    {
      "channel": 5,
      "note": 63,
      "start": 40.3874,
      "duration": 0.3254,
      "velocity": 100,
      "chip": "ym2612"
    },
    {
      "channel": 2,
      "note": 63,
      "start": 41.0383,
      "duration": 0.3121,
      "velocity": 87,
      "chip": "ym2612"
    },
    {
      "channel": 4,
      "note": 70,
      "start": 41.0387,
      "duration": 0.3258,
      "velocity": 100,
      "chip": "ym2612"
    },
    {
      "channel": 5,
      "note": 63,
      "start": 41.0389,
      "duration": 0.3255,
      "velocity": 100,
      "chip": "ym2612"
    },
    {
      "channel": 2,
      "note": 65,
      "start": 41.364,
      "duration": 0.3121,
      "velocity": 87,
      "chip": "ym2612"
    },
    {
      "channel": 3,
      "note": 63,
      "start": 41.3642,
      "duration": 0.3119,
      "velocity": 87,
      "chip": "ym2612"
    },
    {
      "channel": 2,
      "note": 66,
      "start": 41.6897,
      "duration": 4.5465,
      "velocity": 87,
      "chip": "ym2612"
    },
    {
      "channel": 3,
      "note": 65,
      "start": 41.69,
      "duration": 0.312,
      "velocity": 87,
      "chip": "ym2612"
    },
    {
      "channel": 4,
      "note": 71,
      "start": 41.6902,
      "duration": 0.3255,
      "velocity": 100,
      "chip": "ym2612"
    },
    {
      "channel": 5,
      "note": 63,
      "start": 41.6905,
      "duration": 0.3253,
      "velocity": 100,
      "chip": "ym2612"
    },
    {
      "channel": 3,
      "note": 66,
      "start": 42.0156,
      "duration": 4.5464,
      "velocity": 87,
      "chip": "ym2612"
    },
    {
      "channel": 4,
      "note": 71,
      "start": 42.3415,
      "duration": 0.3256,
      "velocity": 100,
      "chip": "ym2612"
    },
    {
      "channel": 5,
      "note": 63,
      "start": 42.3417,
      "duration": 0.3254,
      "velocity": 100,
      "chip": "ym2612"
    },
    {
      "channel": 4,
      "note": 71,
      "start": 42.993,
      "duration": 0.3255,
      "velocity": 100,
      "chip": "ym2612"
    },
    {
      "channel": 5,
      "note": 63,
      "start": 42.9933,
      "duration": 0.3253,
      "velocity": 100,
      "chip": "ym2612"
    },
    {
      "channel": 4,
      "note": 71,
      "start": 43.6444,
      "duration": 0.3256,
      "velocity": 100,
      "chip": "ym2612"
    },
    {
      "channel": 5,
      "note": 63,
      "start": 43.6446,
      "duration": 0.3254,
      "velocity": 100,
      "chip": "ym2612"
    },
    {
      "channel": 4,
      "note": 71,
      "start": 44.2959,
      "duration": 0.3256,
      "velocity": 100,
      "chip": "ym2612"
    },
    {
      "channel": 5,
      "note": 65,
      "start": 44.2961,
      "duration": 0.3254,
      "velocity": 100,
      "chip": "ym2612"
    },
    {
      "channel": 4,
      "note": 71,
      "start": 44.9473,
      "duration": 0.3256,
      "velocity": 100,
      "chip": "ym2612"
    },
    {
      "channel": 5,
      "note": 65,
      "start": 44.9476,
      "duration": 0.3254,
      "velocity": 100,
      "chip": "ym2612"
    },
    {
      "channel": 4,
      "note": 71,
      "start": 45.5988,
      "duration": 0.3256,
      "velocity": 100,
      "chip": "ym2612"
    },
    {
      "channel": 5,
      "note": 65,
      "start": 45.599,
      "duration": 0.3254,
      "velocity": 100,
      "chip": "ym2612"
    },
    {
      "channel": 2,
      "note": 65,
      "start": 46.2499,
      "duration": 0.3121,
      "velocity": 87,
      "chip": "ym2612"
    },
    {
      "channel": 4,
      "note": 71,
      "start": 46.2503,
      "duration": 0.3257,
      "velocity": 100,
      "chip": "ym2612"
    },
    {
      "channel": 5,
      "note": 65,
      "start": 46.2506,
      "duration": 0.3255,
      "velocity": 100,
      "chip": "ym2612"
    },
    {
      "channel": 2,
      "note": 66,
      "start": 46.5756,
      "duration": 0.3121,
      "velocity": 87,
      "chip": "ym2612"
    },
    {
      "channel": 3,
      "note": 65,
      "start": 46.5759,
      "duration": 0.3119,
      "velocity": 87,
      "chip": "ym2612"
    },
    {
      "channel": 2,
      "note": 68,
      "start": 46.9014,
      "duration": 4.5469,
      "velocity": 87,
      "chip": "ym2612"
    },
    {
      "channel": 3,
      "note": 66,
      "start": 46.9016,
      "duration": 0.312,
      "velocity": 87,
      "chip": "ym2612"
    },
    {
      "channel": 4,
      "note": 71,
      "start": 46.9019,
      "duration": 0.3255,
      "velocity": 100,
      "chip": "ym2612"
    },
    {
      "channel": 5,
      "note": 66,
      "start": 46.9022,
      "duration": 0.3253,
      "velocity": 100,
      "chip": "ym2612"
    },
    {
      "channel": 3,
      "note": 68,
      "start": 47.2272,
      "duration": 4.5464,
      "velocity": 87,
      "chip": "ym2612"
    },
    {
      "channel": 4,
      "note": 71,
      "start": 47.5531,
      "duration": 0.3256,
      "velocity": 100,
      "chip": "ym2612"
    },
    {
      "channel": 5,
      "note": 66,
      "start": 47.5536,
      "duration": 0.3252,
      "velocity": 100,
      "chip": "ym2612"
    },
    {
      "channel": 4,
      "note": 71,
      "start": 48.2046,
      "duration": 0.3256,
      "velocity": 100,
      "chip": "ym2612"
    },
    {
      "channel": 5,
      "note": 66,
      "start": 48.2048,
      "duration": 0.3254,
      "velocity": 100,
      "chip": "ym2612"
    },
    {
      "channel": 4,
      "note": 71,
      "start": 48.856,
      "duration": 0.3256,
      "velocity": 100,
      "chip": "ym2612"
    },
    {
      "channel": 5,
      "note": 66,
      "start": 48.8563,
      "duration": 0.3254,
      "velocity": 100,
      "chip": "ym2612"
    },
    {
      "channel": 4,
      "note": 71,
      "start": 49.5075,
      "duration": 0.3256,
      "velocity": 100,
      "chip": "ym2612"
    },
    {
      "channel": 5,
      "note": 66,
      "start": 49.5078,
      "duration": 0.3254,
      "velocity": 100,
      "chip": "ym2612"
    },
    {
      "channel": 4,
      "note": 71,
      "start": 50.159,
      "duration": 0.3257,
      "velocity": 100,
      "chip": "ym2612"
    },
    {
      "channel": 5,
      "note": 66,
      "start": 50.1592,
      "duration": 0.3255,
      "velocity": 100,
      "chip": "ym2612"
    },
    {
      "channel": 4,
      "note": 71,
      "start": 50.8104,
      "duration": 0.3256,
      "velocity": 100,
      "chip": "ym2612"
    },
    {
      "channel": 5,
      "note": 66,
      "start": 50.8107,
      "duration": 0.3254,
      "velocity": 100,
      "chip": "ym2612"
    },
    {
      "channel": 2,
      "note": 63,
      "start": 51.4615,
      "duration": 0.6378,
      "velocity": 87,
      "chip": "ym2612"
    },
    {
      "channel": 4,
      "note": 71,
      "start": 51.462,
      "duration": 0.3257,
      "velocity": 100,
      "chip": "ym2612"
    },
    {
      "channel": 5,
      "note": 66,
      "start": 51.4622,
      "duration": 0.3254,
      "velocity": 100,
      "chip": "ym2612"
    },
    {
      "channel": 3,
      "note": 63,
      "start": 51.7874,
      "duration": 0.6376,
      "velocity": 87,
      "chip": "ym2612"
    },
    {
      "channel": 2,
      "note": 62,
      "start": 52.113,
      "duration": 4.2208,
      "velocity": 87,
      "chip": "ym2612"
    },
    {
      "channel": 4,
      "note": 70,
      "start": 52.1137,
      "duration": 0.3258,
      "velocity": 100,
      "chip": "ym2612"
    },
    {
      "channel": 5,
      "note": 65,
      "start": 52.1139,
      "duration": 0.3256,
      "velocity": 100,
      "chip": "ym2612"
    },
    {
      "channel": 3,
      "note": 62,
      "start": 52.4393,
      "duration": 4.2203,
      "velocity": 87,
      "chip": "ym2612"
    },
    {
      "channel": 4,
      "note": 70,
      "start": 52.7648,
      "duration": 0.3257,
      "velocity": 100,
      "chip": "ym2612"
    },
    {
      "channel": 5,
      "note": 65,
      "start": 52.765,
      "duration": 0.3254,
      "velocity": 100,
      "chip": "ym2612"
    },
    {
      "channel": 4,
      "note": 70,
      "start": 53.4162,
      "duration": 0.3256,
      "velocity": 100,
      "chip": "ym2612"
    },
    {
      "channel": 5,
      "note": 65,
      "start": 53.4165,
      "duration": 0.3254,
      "velocity": 100,
      "chip": "ym2612"
    },
    {
      "channel": 4,
      "note": 70,
      "start": 54.0677,
      "duration": 0.3259,
      "velocity": 100,
      "chip": "ym2612"
    },
    {
      "channel": 5,
      "note": 65,
      "start": 54.068,
      "duration": 0.3256,
      "velocity": 100,
      "chip": "ym2612"
    },
    {
      "channel": 4,
      "note": 70,
      "start": 54.7192,
      "duration": 0.3256,
      "velocity": 100,
      "chip": "ym2612"
    },
    {
      "channel": 5,
      "note": 62,
      "start": 54.7194,
      "duration": 0.3254,
      "velocity": 100,
      "chip": "ym2612"
    },
    {
      "channel": 4,
      "note": 70,
      "start": 55.3706,
      "duration": 0.3256,
      "velocity": 100,
      "chip": "ym2612"
    },
    {
      "channel": 5,
      "note": 62,
      "start": 55.3709,
      "duration": 0.3254,
      "velocity": 100,
      "chip": "ym2612"
    },
    {
      "channel": 4,
      "note": 70,
      "start": 56.0221,
      "duration": 0.3257,
      "velocity": 100,
      "chip": "ym2612"
    },
    {
      "channel": 5,
      "note": 62,
      "start": 56.0223,
      "duration": 0.3255,
      "velocity": 100,
      "chip": "ym2612"
    },
    {
      "channel": 2,
      "note": 58,
      "start": 56.3475,
      "duration": 0.3121,
      "velocity": 87,
      "chip": "ym2612"
    },
    {
      "channel": 2,
      "note": 63,
      "start": 56.6732,
      "duration": 0.3121,
      "velocity": 87,
      "chip": "ym2612"
    },
    {
      "channel": 3,
      "note": 58,
      "start": 56.6737,
      "duration": 0.3116,
      "velocity": 87,
      "chip": "ym2612"
    },
    {
      "channel": 4,
      "note": 70,
      "start": 56.6739,
      "duration": 0.3254,
      "velocity": 100,
      "chip": "ym2612"
    },
    {
      "channel": 5,
      "note": 62,
      "start": 56.6742,
      "duration": 0.3252,
      "velocity": 100,
      "chip": "ym2612"
    },
    {
      "channel": 2,
      "note": 65,
      "start": 56.9989,
      "duration": 0.3121,
      "velocity": 87,
      "chip": "ym2612"
    },
    {
      "channel": 3,
      "note": 63,
      "start": 56.9992,
      "duration": 0.3119,
      "velocity": 87,
      "chip": "ym2612"
    },
    {
      "channel": 2,
      "note": 67,
      "start": 57.3247,
      "duration": 4.5465,
      "velocity": 87,
      "chip": "ym2612"
    },
    {
      "channel": 3,
      "note": 65,
      "start": 57.3249,
      "duration": 0.3118,
      "velocity": 87,
      "chip": "ym2612"
    },
    {
      "channel": 4,
      "note": 70,
      "start": 57.3252,
      "duration": 0.3255,
      "velocity": 100,
      "chip": "ym2612"
    },
    {
      "channel": 5,
      "note": 63,
      "start": 57.3254,
      "duration": 0.3253,
      "velocity": 100,
      "chip": "ym2612"
    },
    {
      "channel": 3,
      "note": 67,
      "start": 57.6505,
      "duration": 4.5464,
      "velocity": 87,
      "chip": "ym2612"
    },
    {
      "channel": 4,
      "note": 70,
      "start": 57.9764,
      "duration": 0.3256,
      "velocity": 100,
      "chip": "ym2612"
    },
    {
      "channel": 5,
      "note": 63,
      "start": 57.9767,
      "duration": 0.3254,
      "velocity": 100,
      "chip": "ym2612"
    },
    {
      "channel": 4,
      "note": 70,
      "start": 58.6279,
      "duration": 0.3259,
      "velocity": 100,
      "chip": "ym2612"
    },
    {
      "channel": 5,
      "note": 63,
      "start": 58.6281,
      "duration": 0.3256,
      "velocity": 100,
      "chip": "ym2612"
    },
    {
      "channel": 4,
      "note": 70,
      "start": 59.2793,
      "duration": 0.3256,
      "velocity": 100,
      "chip": "ym2612"
    },
    {
      "channel": 5,
      "note": 63,
      "start": 59.2796,
      "duration": 0.3254,
      "velocity": 100,
      "chip": "ym2612"
    },
    {
      "channel": 4,
      "note": 70,
      "start": 59.9308,
      "duration": 0.3256,
      "velocity": 100,
      "chip": "ym2612"
    },
    {
      "channel": 5,
      "note": 63,
      "start": 59.9311,
      "duration": 0.3254,
      "velocity": 100,
      "chip": "ym2612"
    },
    {
      "channel": 4,
      "note": 70,
      "start": 60.5822,
      "duration": 0.3256,
      "velocity": 100,
      "chip": "ym2612"
    },
    {
      "channel": 5,
      "note": 63,
      "start": 60.5825,
      "duration": 0.3254,
      "velocity": 100,
      "chip": "ym2612"
    },
    {
      "channel": 4,
      "note": 70,
      "start": 61.2339,
      "duration": 0.3254,
      "velocity": 100,
      "chip": "ym2612"
    },
    {
      "channel": 5,
      "note": 63,
      "start": 61.2342,
      "duration": 0.3252,
      "velocity": 100,
      "chip": "ym2612"
    },
    {
      "channel": 2,
      "note": 63,
      "start": 61.8849,
      "duration": 0.3121,
      "velocity": 87,
      "chip": "ym2612"
    },
    {
      "channel": 4,
      "note": 70,
      "start": 61.8853,
      "duration": 0.3257,
      "velocity": 100,
      "chip": "ym2612"
    },
    {
      "channel": 5,
      "note": 63,
      "start": 61.8855,
      "duration": 0.3255,
      "velocity": 100,
      "chip": "ym2612"
    },
    {
      "channel": 2,
      "note": 65,
      "start": 62.2106,
      "duration": 0.3121,
      "velocity": 87,
      "chip": "ym2612"
    },
    {
      "channel": 3,
      "note": 63,
      "start": 62.2108,
      "duration": 0.3119,
      "velocity": 87,
      "chip": "ym2612"
    },
    {
      "channel": 2,
      "note": 66,
      "start": 62.5363,
      "duration": 4.5465,
      "velocity": 87,
      "chip": "ym2612"
    },
    {
      "channel": 3,
      "note": 65,
      "start": 62.5366,
      "duration": 0.3118,
      "velocity": 87,
      "chip": "ym2612"
    },
    {
      "channel": 4,
      "note": 71,
      "start": 62.5368,
      "duration": 0.3255,
      "velocity": 100,
      "chip": "ym2612"
    },
    {
      "channel": 5,
      "note": 63,
      "start": 62.5371,
      "duration": 0.3253,
      "velocity": 100,
      "chip": "ym2612"
    },
    {
      "channel": 3,
      "note": 66,
      "start": 62.8622,
      "duration": 4.5464,
      "velocity": 87,
      "chip": "ym2612"
    },
    {
      "channel": 4,
      "note": 71,
      "start": 63.1881,
      "duration": 0.3259,
      "velocity": 100,
      "chip": "ym2612"
    },
    {
      "channel": 5,
      "note": 63,
      "start": 63.1883,
      "duration": 0.3256,
      "velocity": 100,
      "chip": "ym2612"
    },
    {
      "channel": 4,
      "note": 71,
      "start": 63.8395,
      "duration": 0.3256,
      "velocity": 100,
      "chip": "ym2612"
    },
    {
      "channel": 5,
      "note": 63,
      "start": 63.8398,
      "duration": 0.3254,
      "velocity": 100,
      "chip": "ym2612"
    },
    {
      "channel": 4,
      "note": 71,
      "start": 64.491,
      "duration": 0.3256,
      "velocity": 100,
      "chip": "ym2612"
    },
    {
      "channel": 5,
      "note": 63,
      "start": 64.4912,
      "duration": 0.3254,
      "velocity": 100,
      "chip": "ym2612"
    },
    {
      "channel": 4,
      "note": 71,
      "start": 65.1424,
      "duration": 0.3257,
      "velocity": 100,
      "chip": "ym2612"
    },
    {
      "channel": 5,
      "note": 65,
      "start": 65.1427,
      "duration": 0.3254,
      "velocity": 100,
      "chip": "ym2612"
    },
    {
      "channel": 4,
      "note": 71,
      "start": 65.794,
      "duration": 0.3256,
      "velocity": 100,
      "chip": "ym2612"
    },
    {
      "channel": 5,
      "note": 65,
      "start": 65.7942,
      "duration": 0.3253,
      "velocity": 100,
      "chip": "ym2612"
    },
    {
      "channel": 4,
      "note": 71,
      "start": 66.4454,
      "duration": 0.3256,
      "velocity": 100,
      "chip": "ym2612"
    },
    {
      "channel": 5,
      "note": 65,
      "start": 66.4456,
      "duration": 0.3254,
      "velocity": 100,
      "chip": "ym2612"
    },
    {
      "channel": 2,
      "note": 65,
      "start": 67.0965,
      "duration": 0.3121,
      "velocity": 87,
      "chip": "ym2612"
    },
    {
      "channel": 4,
      "note": 71,
      "start": 67.0969,
      "duration": 0.3258,
      "velocity": 100,
      "chip": "ym2612"
    },
    {
      "channel": 5,
      "note": 65,
      "start": 67.0972,
      "duration": 0.3255,
      "velocity": 100,
      "chip": "ym2612"
    },
    {
      "channel": 2,
      "note": 66,
      "start": 67.4222,
      "duration": 0.3121,
      "velocity": 87,
      "chip": "ym2612"
    },
    {
      "channel": 3,
      "note": 65,
      "start": 67.4225,
      "duration": 0.3119,
      "velocity": 87,
      "chip": "ym2612"
    },
    {
      "channel": 2,
      "note": 68,
      "start": 67.748,
      "duration": 4.5465,
      "velocity": 87,
      "chip": "ym2612"
    },
    {
      "channel": 3,
      "note": 66,
      "start": 67.7482,
      "duration": 0.312,
      "velocity": 87,
      "chip": "ym2612"
    },
    {
      "channel": 4,
      "note": 71,
      "start": 67.7485,
      "duration": 0.3255,
      "velocity": 100,
      "chip": "ym2612"
    },
    {
      "channel": 5,
      "note": 66,
      "start": 67.7488,
      "duration": 0.3253,
      "velocity": 100,
      "chip": "ym2612"
    },
    {
      "channel": 3,
      "note": 68,
      "start": 68.0738,
      "duration": 4.5464,
      "velocity": 87,
      "chip": "ym2612"
    },
    {
      "channel": 4,
      "note": 71,
      "start": 68.3997,
      "duration": 0.3256,
      "velocity": 100,
      "chip": "ym2612"
    },
    {
      "channel": 5,
      "note": 66,
      "start": 68.4,
      "duration": 0.3254,
      "velocity": 100,
      "chip": "ym2612"
    },
    {
      "channel": 4,
      "note": 71,
      "start": 69.0513,
      "duration": 0.3255,
      "velocity": 100,
      "chip": "ym2612"
    },
    {
      "channel": 5,
      "note": 66,
      "start": 69.0516,
      "duration": 0.3253,
      "velocity": 100,
      "chip": "ym2612"
    },
    {
      "channel": 4,
      "note": 71,
      "start": 69.7026,
      "duration": 0.3256,
      "velocity": 100,
      "chip": "ym2612"
    },
    {
      "channel": 5,
      "note": 66,
      "start": 69.7029,
      "duration": 0.3254,
      "velocity": 100,
      "chip": "ym2612"
    },
    {
      "channel": 4,
      "note": 73,
      "start": 70.3541,
      "duration": 0.3256,
      "velocity": 100,
      "chip": "ym2612"
    },
    {
      "channel": 5,
      "note": 68,
      "start": 70.3544,
      "duration": 0.3254,
      "velocity": 100,
      "chip": "ym2612"
    },
    {
      "channel": 4,
      "note": 73,
      "start": 71.0055,
      "duration": 0.3256,
      "velocity": 100,
      "chip": "ym2612"
    },
    {
      "channel": 5,
      "note": 68,
      "start": 71.0058,
      "duration": 0.3254,
      "velocity": 100,
      "chip": "ym2612"
    },
    {
      "channel": 4,
      "note": 73,
      "start": 71.657,
      "duration": 0.3256,
      "velocity": 100,
      "chip": "ym2612"
    },
    {
      "channel": 5,
      "note": 68,
      "start": 71.6573,
      "duration": 0.3254,
      "velocity": 100,
      "chip": "ym2612"
    },
    {
      "channel": 2,
      "note": 63,
      "start": 72.3081,
      "duration": 0.6378,
      "velocity": 87,
      "chip": "ym2612"
    },
    {
      "channel": 4,
      "note": 73,
      "start": 72.3085,
      "duration": 0.3256,
      "velocity": 100,
      "chip": "ym2612"
    },
    {
      "channel": 5,
      "note": 68,
      "start": 72.3088,
      "duration": 0.3254,
      "velocity": 100,
      "chip": "ym2612"
    },
    {
      "channel": 3,
      "note": 63,
      "start": 72.634,
      "duration": 0.6377,
      "velocity": 87,
      "chip": "ym2612"
    },
    {
      "channel": 2,
      "note": 70,
      "start": 72.9596,
      "duration": 1.2893,
      "velocity": 87,
      "chip": "ym2612"
    },
    {
      "channel": 4,
      "note": 75,
      "start": 72.96,
      "duration": 0.3256,
      "velocity": 100,
      "chip": "ym2612"
    },
    {
      "channel": 5,
      "note": 70,
      "start": 72.9603,
      "duration": 0.3254,
      "velocity": 100,
      "chip": "ym2612"
    },
    {
      "channel": 3,
      "note": 70,
      "start": 73.2855,
      "duration": 1.2891,
      "velocity": 87,
      "chip": "ym2612"
    },
    {
      "channel": 4,
      "note": 75,
      "start": 73.6114,
      "duration": 0.3256,
      "velocity": 100,
      "chip": "ym2612"
    },
    {
      "channel": 5,
      "note": 70,
      "start": 73.6116,
      "duration": 0.3254,
      "velocity": 100,
      "chip": "ym2612"
    },
    {
      "channel": 2,
      "note": 68,
      "start": 74.2625,
      "duration": 1.2893,
      "velocity": 87,
      "chip": "ym2612"
    },
    {
      "channel": 4,
      "note": 75,
      "start": 74.2629,
      "duration": 0.3256,
      "velocity": 100,
      "chip": "ym2612"
    },
    {
      "channel": 5,
      "note": 70,
      "start": 74.2632,
      "duration": 0.3254,
      "velocity": 100,
      "chip": "ym2612"
    },
    {
      "channel": 3,
      "note": 68,
      "start": 74.5884,
      "duration": 1.2891,
      "velocity": 87,
      "chip": "ym2612"
    },
    {
      "channel": 4,
      "note": 75,
      "start": 74.9143,
      "duration": 0.3256,
      "velocity": 100,
      "chip": "ym2612"
    },
    {
      "channel": 5,
      "note": 70,
      "start": 74.9145,
      "duration": 0.3254,
      "velocity": 100,
      "chip": "ym2612"
    },
    {
      "channel": 2,
      "note": 66,
      "start": 75.5654,
      "duration": 0.9635,
      "velocity": 87,
      "chip": "ym2612"
    },
    {
      "channel": 4,
      "note": 75,
      "start": 75.5659,
      "duration": 0.3256,
      "velocity": 100,
      "chip": "ym2612"
    },
    {
      "channel": 5,
      "note": 70,
      "start": 75.5661,
      "duration": 0.3254,
      "velocity": 100,
      "chip": "ym2612"
    },
    {
      "channel": 3,
      "note": 66,
      "start": 75.8913,
      "duration": 0.9634,
      "velocity": 87,
      "chip": "ym2612"
    },
    {
      "channel": 4,
      "note": 75,
      "start": 76.2172,
      "duration": 0.3258,
      "velocity": 100,
      "chip": "ym2612"
    },
    {
      "channel": 5,
      "note": 70,
      "start": 76.2174,
      "duration": 0.3255,
      "velocity": 100,
      "chip": "ym2612"
    },
    {
      "channel": 2,
      "note": 68,
      "start": 76.5426,
      "duration": 0.964,
      "velocity": 87,
      "chip": "ym2612"
    },
    {
      "channel": 3,
      "note": 68,
      "start": 76.8685,
      "duration": 0.9634,
      "velocity": 87,
      "chip": "ym2612"
    },
    {
      "channel": 4,
      "note": 75,
      "start": 76.8688,
      "duration": 0.3255,
      "velocity": 100,
      "chip": "ym2612"
    },
    {
      "channel": 5,
      "note": 70,
      "start": 76.869,
      "duration": 0.3253,
      "velocity": 100,
      "chip": "ym2612"
    },
    {
      "channel": 2,
      "note": 70,
      "start": 77.5198,
      "duration": 0.6378,
      "velocity": 87,
      "chip": "ym2612"
    },
    {
      "channel": 4,
      "note": 75,
      "start": 77.5202,
      "duration": 0.3256,
      "velocity": 100,
      "chip": "ym2612"
    },
    {
      "channel": 5,
      "note": 70,
      "start": 77.5205,
      "duration": 0.3254,
      "velocity": 100,
      "chip": "ym2612"
    },
    {
      "channel": 3,
      "note": 70,
      "start": 77.8457,
      "duration": 0.6379,
      "velocity": 87,
      "chip": "ym2612"
    },
    {
      "channel": 2,
      "note": 72,
      "start": 78.1713,
      "duration": 5.198,
      "velocity": 87,
      "chip": "ym2612"
    },
    {
      "channel": 4,
      "note": 75,
      "start": 78.1717,
      "duration": 0.326,
      "velocity": 100,
      "chip": "ym2612"
    },
    {
      "channel": 5,
      "note": 68,
      "start": 78.172,
      "duration": 0.3258,
      "velocity": 100,
      "chip": "ym2612"
    },
    {
      "channel": 3,
      "note": 72,
      "start": 78.4975,
      "duration": 5.1975,
      "velocity": 87,
      "chip": "ym2612"
    },
    {
      "channel": 4,
      "note": 75,
      "start": 78.823,
      "duration": 0.3256,
      "velocity": 100,
      "chip": "ym2612"
    },
    {
      "channel": 5,
      "note": 68,
      "start": 78.8233,
      "duration": 0.3254,
      "velocity": 100,
      "chip": "ym2612"
    },
    {
      "channel": 4,
      "note": 75,
      "start": 79.4745,
      "duration": 0.3256,
      "velocity": 100,
      "chip": "ym2612"
    },
    {
      "channel": 5,
      "note": 68,
      "start": 79.4747,
      "duration": 0.3254,
      "velocity": 100,
      "chip": "ym2612"
    },
    {
      "channel": 4,
      "note": 75,
      "start": 80.1259,
      "duration": 0.3256,
      "velocity": 100,
      "chip": "ym2612"
    },
    {
      "channel": 5,
      "note": 68,
      "start": 80.1262,
      "duration": 0.3254,
      "velocity": 100,
      "chip": "ym2612"
    },
    {
      "channel": 4,
      "note": 75,
      "start": 80.7774,
      "duration": 2.6063,
      "velocity": 100,
      "chip": "ym2612"
    },
    {
      "channel": 5,
      "note": 68,
      "start": 80.7777,
      "duration": 2.6062,
      "velocity": 100,
      "chip": "ym2612"
    },
    {
      "channel": 0,
      "note": 63,
      "start": 83.3829,
      "duration": 5.2116,
      "velocity": 117,
      "chip": "ym2612"
    },
    {
      "channel": 2,
      "note": 70,
      "start": 83.3832,
      "duration": 0.3118,
      "velocity": 87,
      "chip": "ym2612"
    },
    {
      "channel": 2,
      "note": 68,
      "start": 83.7088,
      "duration": 0.3119,
      "velocity": 87,
      "chip": "ym2612"
    },
    {
      "channel": 3,
      "note": 70,
      "start": 83.709,
      "duration": 0.3117,
      "velocity": 87,
      "chip": "ym2612"
    },
    {
      "channel": 2,
      "note": 67,
      "start": 84.0345,
      "duration": 0.3119,
      "velocity": 87,
      "chip": "ym2612"
    },
    {
      "channel": 3,
      "note": 68,
      "start": 84.0348,
      "duration": 0.3117,
      "velocity": 87,
      "chip": "ym2612"
    },
    {
      "channel": 2,
      "note": 63,
      "start": 84.3602,
      "duration": 4.2207,
      "velocity": 87,
      "chip": "ym2612"
    },
    {
      "channel": 3,
      "note": 67,
      "start": 84.3605,
      "duration": 0.3117,
      "velocity": 87,
      "chip": "ym2612"
    },
    {
      "channel": 3,
      "note": 63,
      "start": 84.6861,
      "duration": 4.2205,
      "velocity": 87,
      "chip": "ym2612"
    },
    {
      "channel": 4,
      "note": 75,
      "start": 85.9892,
      "duration": 2.6059,
      "velocity": 100,
      "chip": "ym2612"
    },
    {
      "channel": 5,
      "note": 70,
      "start": 85.9894,
      "duration": 2.6057,
      "velocity": 100,
      "chip": "ym2612"
    },
    {
      "channel": 0,
      "note": 61,
      "start": 88.5945,
      "duration": 5.2116,
      "velocity": 117,
      "chip": "ym2612"
    },
    {
      "channel": 2,
      "note": 70,
      "start": 88.5948,
      "duration": 0.3118,
      "velocity": 87,
      "chip": "ym2612"
    },
    {
      "channel": 2,
      "note": 68,
      "start": 88.9204,
      "duration": 0.3119,
      "velocity": 87,
      "chip": "ym2612"
    },
    {
      "channel": 3,
      "note": 70,
      "start": 88.9207,
      "duration": 0.3117,
      "velocity": 87,
      "chip": "ym2612"
    },
    {
      "channel": 2,
      "note": 67,
      "start": 89.2461,
      "duration": 0.3119,
      "velocity": 87,
      "chip": "ym2612"
    },
    {
      "channel": 3,
      "note": 68,
      "start": 89.2464,
      "duration": 0.3117,
      "velocity": 87,
      "chip": "ym2612"
    },
    {
      "channel": 2,
      "note": 63,
      "start": 89.5719,
      "duration": 2.592,
      "velocity": 87,
      "chip": "ym2612"
    },
    {
      "channel": 3,
      "note": 67,
      "start": 89.5721,
      "duration": 0.3117,
      "velocity": 87,
      "chip": "ym2612"
    },
    {
      "channel": 3,
      "note": 63,
      "start": 89.8978,
      "duration": 2.5919,
      "velocity": 87,
      "chip": "ym2612"
    },
    {
      "channel": 4,
      "note": 77,
      "start": 91.2008,
      "duration": 2.6059,
      "velocity": 100,
      "chip": "ym2612"
    },
    {
      "channel": 5,
      "note": 70,
      "start": 91.2011,
      "duration": 2.6057,
      "velocity": 100,
      "chip": "ym2612"
    },
    {
      "channel": 2,
      "note": 63,
      "start": 92.1777,
      "duration": 0.3119,
      "velocity": 87,
      "chip": "ym2612"
    },
    {
      "channel": 2,
      "note": 65,
      "start": 92.5037,
      "duration": 0.3117,
      "velocity": 87,
      "chip": "ym2612"
    },
    {
      "channel": 3,
      "note": 63,
      "start": 92.5039,
      "duration": 0.3115,
      "velocity": 87,
      "chip": "ym2612"
    },
    {
      "channel": 2,
      "note": 67,
      "start": 92.8292,
      "duration": 0.9634,
      "velocity": 87,
      "chip": "ym2612"
    },
    {
      "channel": 3,
      "note": 65,
      "start": 92.8294,
      "duration": 0.3117,
      "velocity": 87,
      "chip": "ym2612"
    },
    {
      "channel": 3,
      "note": 67,
      "start": 93.155,
      "duration": 0.9634,
      "velocity": 87,
      "chip": "ym2612"
    },
    {
      "channel": 0,
      "note": 60,
      "start": 93.8062,
      "duration": 5.2116,
      "velocity": 117,
      "chip": "ym2612"
    },
    {
      "channel": 2,
      "note": 70,
      "start": 93.8064,
      "duration": 0.312,
      "velocity": 87,
      "chip": "ym2612"
    },
    {
      "channel": 2,
      "note": 68,
      "start": 94.1321,
      "duration": 0.3119,
      "velocity": 87,
      "chip": "ym2612"
    },
    {
      "channel": 3,
      "note": 70,
      "start": 94.1323,
      "duration": 0.3117,
      "velocity": 87,
      "chip": "ym2612"
    },
    {
      "channel": 2,
      "note": 67,
      "start": 94.4578,
      "duration": 0.3119,
      "velocity": 87,
      "chip": "ym2612"
    },
    {
      "channel": 3,
      "note": 68,
      "start": 94.458,
      "duration": 0.3117,
      "velocity": 87,
      "chip": "ym2612"
    },
    {
      "channel": 2,
      "note": 68,
      "start": 94.7838,
      "duration": 3.2432,
      "velocity": 87,
      "chip": "ym2612"
    },
    {
      "channel": 3,
      "note": 67,
      "start": 94.784,
      "duration": 0.3115,
      "velocity": 87,
      "chip": "ym2612"
    },
    {
      "channel": 3,
      "note": 68,
      "start": 95.1095,
      "duration": 3.2432,
      "velocity": 87,
      "chip": "ym2612"
    },
    {
      "channel": 4,
      "note": 75,
      "start": 96.4125,
      "duration": 2.6061,
      "velocity": 100,
      "chip": "ym2612"
    },
    {
      "channel": 5,
      "note": 70,
      "start": 96.4127,
      "duration": 2.6061,
      "velocity": 100,
      "chip": "ym2612"
    },
    {
      "channel": 2,
      "note": 65,
      "start": 98.0408,
      "duration": 0.3119,
      "velocity": 87,
      "chip": "ym2612"
    },
    {
      "channel": 2,
      "note": 67,
      "start": 98.3665,
      "duration": 0.3119,
      "velocity": 87,
      "chip": "ym2612"
    },
    {
      "channel": 3,
      "note": 65,
      "start": 98.3668,
      "duration": 0.3117,
      "velocity": 87,
      "chip": "ym2612"
    },
    {
      "channel": 2,
      "note": 68,
      "start": 98.6922,
      "duration": 0.312,
      "velocity": 87,
      "chip": "ym2612"
    },
    {
      "channel": 3,
      "note": 67,
      "start": 98.6925,
      "duration": 0.3117,
      "velocity": 87,
      "chip": "ym2612"
    },
    {
      "channel": 0,
      "note": 59,
      "start": 99.0178,
      "duration": 2.6057,
      "velocity": 117,
      "chip": "ym2612"
    },
    {
      "channel": 2,
      "note": 70,
      "start": 99.0181,
      "duration": 3.8948,
      "velocity": 87,
      "chip": "ym2612"
    },
    {
      "channel": 3,
      "note": 68,
      "start": 99.0184,
      "duration": 0.3116,
      "velocity": 87,
      "chip": "ym2612"
    },
    {
      "channel": 4,
      "note": 78,
      "start": 99.0186,
      "duration": 2.6056,
      "velocity": 100,
      "chip": "ym2612"
    },
    {
      "channel": 5,
      "note": 75,
      "start": 99.0189,
      "duration": 2.6055,
      "velocity": 100,
      "chip": "ym2612"
    },
    {
      "channel": 3,
      "note": 70,
      "start": 99.344,
      "duration": 3.8947,
      "velocity": 87,
      "chip": "ym2612"
    },
    {
      "channel": 0,
      "note": 61,
      "start": 101.6237,
      "duration": 2.6057,
      "velocity": 117,
      "chip": "ym2612"
    },
    {
      "channel": 4,
      "note": 77,
      "start": 101.6242,
      "duration": 2.6058,
      "velocity": 100,
      "chip": "ym2612"
    },
    {
      "channel": 5,
      "note": 73,
      "start": 101.6245,
      "duration": 2.6059,
      "velocity": 100,
      "chip": "ym2612"
    },
    {
      "channel": 2,
      "note": 68,
      "start": 102.9267,
      "duration": 1.2891,
      "velocity": 87,
      "chip": "ym2612"
    },
    {
      "channel": 3,
      "note": 68,
      "start": 103.2526,
      "duration": 1.289,
      "velocity": 87,
      "chip": "ym2612"
    },
    {
      "channel": 0,
      "note": 63,
      "start": 104.2295,
      "duration": 5.2116,
      "velocity": 117,
      "chip": "ym2612"
    },
    {
      "channel": 2,
      "note": 67,
      "start": 104.2298,
      "duration": 0.9633,
      "velocity": 87,
      "chip": "ym2612"
    },
    {
      "channel": 4,
      "note": 75,
      "start": 104.2302,
      "duration": 2.9312,
      "velocity": 100,
      "chip": "ym2612"
    },
    {
      "channel": 5,
      "note": 70,
      "start": 104.2306,
      "duration": 2.9311,
      "velocity": 100,
      "chip": "ym2612"
    },
    {
      "channel": 3,
      "note": 67,
      "start": 104.5559,
      "duration": 0.9629,
      "velocity": 87,
      "chip": "ym2612"
    },
    {
      "channel": 2,
      "note": 67,
      "start": 105.2068,
      "duration": 0.3119,
      "velocity": 87,
      "chip": "ym2612"
    },
    {
      "channel": 2,
      "note": 68,
      "start": 105.5325,
      "duration": 0.3119,
      "velocity": 87,
      "chip": "ym2612"
    },
    {
      "channel": 3,
      "note": 67,
      "start": 105.5328,
      "duration": 0.3117,
      "velocity": 87,
      "chip": "ym2612"
    },
    {
      "channel": 2,
      "note": 70,
      "start": 105.8583,
      "duration": 3.2435,
      "velocity": 87,
      "chip": "ym2612"
    },
    {
      "channel": 3,
      "note": 68,
      "start": 105.8585,
      "duration": 0.3117,
      "velocity": 87,
      "chip": "ym2612"
    },
    {
      "channel": 3,
      "note": 70,
      "start": 106.1841,
      "duration": 3.2434,
      "velocity": 87,
      "chip": "ym2612"
    },
    {
      "channel": 4,
      "note": 75,
      "start": 107.1615,
      "duration": 0.3256,
      "velocity": 100,
      "chip": "ym2612"
    },
    {
      "channel": 5,
      "note": 70,
      "start": 107.1617,
      "duration": 0.3256,
      "velocity": 100,
      "chip": "ym2612"
    },
    {
      "channel": 4,
      "note": 77,
      "start": 107.4872,
      "duration": 0.3256,
      "velocity": 100,
      "chip": "ym2612"
    },
    {
      "channel": 5,
      "note": 70,
      "start": 107.4875,
      "duration": 0.3256,
      "velocity": 100,
      "chip": "ym2612"
    },
    {
      "channel": 4,
      "note": 79,
      "start": 107.8129,
      "duration": 1.6289,
      "velocity": 100,
      "chip": "ym2612"
    },
    {
      "channel": 5,
      "note": 75,
      "start": 107.8132,
      "duration": 1.6289,
      "velocity": 100,
      "chip": "ym2612"
    },
    {
      "channel": 2,
      "note": 68,
      "start": 109.1156,
      "duration": 0.3119,
      "velocity": 87,
      "chip": "ym2612"
    },
    {
      "channel": 0,
      "note": 61,
      "start": 109.4411,
      "duration": 5.2116,
      "velocity": 117,
      "chip": "ym2612"
    },
    {
      "channel": 2,
      "note": 67,
      "start": 109.4414,
      "duration": 0.9633,
      "velocity": 87,
      "chip": "ym2612"
    },
    {
      "channel": 3,
      "note": 68,
      "start": 109.4416,
      "duration": 0.3116,
      "velocity": 87,
      "chip": "ym2612"
    },
    {
      "channel": 4,
      "note": 75,
      "start": 109.4419,
      "duration": 2.9312,
      "velocity": 100,
      "chip": "ym2612"
    },
    {
      "channel": 5,
      "note": 70,
      "start": 109.4422,
      "duration": 2.9314,
      "velocity": 100,
      "chip": "ym2612"
    },
    {
      "channel": 3,
      "note": 67,
      "start": 109.7672,
      "duration": 0.9633,
      "velocity": 87,
      "chip": "ym2612"
    },
    {
      "channel": 2,
      "note": 67,
      "start": 110.4185,
      "duration": 0.3119,
      "velocity": 87,
      "chip": "ym2612"
    },
    {
      "channel": 2,
      "note": 68,
      "start": 110.7442,
      "duration": 0.3119,
      "velocity": 87,
      "chip": "ym2612"
    },
    {
      "channel": 3,
      "note": 67,
      "start": 110.7444,
      "duration": 0.3117,
      "velocity": 87,
      "chip": "ym2612"
    },
    {
      "channel": 2,
      "note": 70,
      "start": 111.0699,
      "duration": 3.2437,
      "velocity": 87,
      "chip": "ym2612"
    },
    {
      "channel": 3,
      "note": 68,
      "start": 111.0702,
      "duration": 0.3117,
      "velocity": 87,
      "chip": "ym2612"
    },
    {
      "channel": 3,
      "note": 70,
      "start": 111.3958,
      "duration": 3.2434,
      "velocity": 87,
      "chip": "ym2612"
    },
    {
      "channel": 4,
      "note": 75,
      "start": 112.3732,
      "duration": 0.3256,
      "velocity": 100,
      "chip": "ym2612"
    },
    {
      "channel": 5,
      "note": 70,
      "start": 112.3736,
      "duration": 0.3254,
      "velocity": 100,
      "chip": "ym2612"
    },
    {
      "channel": 4,
      "note": 77,
      "start": 112.6989,
      "duration": 0.3256,
      "velocity": 100,
      "chip": "ym2612"
    },
    {
      "channel": 5,
      "note": 70,
      "start": 112.6991,
      "duration": 0.3257,
      "velocity": 100,
      "chip": "ym2612"
    },
    {
      "channel": 4,
      "note": 79,
      "start": 113.0246,
      "duration": 0.6514,
      "velocity": 100,
      "chip": "ym2612"
    },
    {
      "channel": 5,
      "note": 75,
      "start": 113.0249,
      "duration": 0.6514,
      "velocity": 100,
      "chip": "ym2612"
    },
    {
      "channel": 4,
      "note": 82,
      "start": 113.6761,
      "duration": 0.9776,
      "velocity": 100,
      "chip": "ym2612"
    },
    {
      "channel": 5,
      "note": 77,
      "start": 113.6763,
      "duration": 0.9776,
      "velocity": 100,
      "chip": "ym2612"
    },
    {
      "channel": 2,
      "note": 68,
      "start": 114.3272,
      "duration": 0.312,
      "velocity": 87,
      "chip": "ym2612"
    },
    {
      "channel": 0,
      "note": 59,
      "start": 114.6528,
      "duration": 5.2116,
      "velocity": 117,
      "chip": "ym2612"
    },
    {
      "channel": 2,
      "note": 66,
      "start": 114.653,
      "duration": 0.9633,
      "velocity": 87,
      "chip": "ym2612"
    },
    {
      "channel": 3,
      "note": 68,
      "start": 114.6533,
      "duration": 0.3116,
      "velocity": 87,
      "chip": "ym2612"
    },
    {
      "channel": 4,
      "note": 82,
      "start": 114.6538,
      "duration": 2.6052,
      "velocity": 100,
      "chip": "ym2612"
    },
    {
      "channel": 5,
      "note": 78,
      "start": 114.654,
      "duration": 2.6052,
      "velocity": 100,
      "chip": "ym2612"
    },
    {
      "channel": 3,
      "note": 66,
      "start": 114.9788,
      "duration": 0.9632,
      "velocity": 87,
      "chip": "ym2612"
    },
    {
      "channel": 2,
      "note": 66,
      "start": 115.6301,
      "duration": 0.3119,
      "velocity": 87,
      "chip": "ym2612"
    },
    {
      "channel": 2,
      "note": 68,
      "start": 115.9558,
      "duration": 0.312,
      "velocity": 87,
      "chip": "ym2612"
    },
    {
      "channel": 3,
      "note": 66,
      "start": 115.9561,
      "duration": 0.3117,
      "velocity": 87,
      "chip": "ym2612"
    },
    {
      "channel": 2,
      "note": 70,
      "start": 116.2816,
      "duration": 1.9406,
      "velocity": 87,
      "chip": "ym2612"
    },
    {
      "channel": 3,
      "note": 68,
      "start": 116.2818,
      "duration": 0.3118,
      "velocity": 87,
      "chip": "ym2612"
    },
    {
      "channel": 3,
      "note": 70,
      "start": 116.6075,
      "duration": 1.9404,
      "velocity": 87,
      "chip": "ym2612"
    },
    {
      "channel": 4,
      "note": 80,
      "start": 117.2591,
      "duration": 1.303,
      "velocity": 100,
      "chip": "ym2612"
    },
    {
      "channel": 5,
      "note": 77,
      "start": 117.2593,
      "duration": 1.303,
      "velocity": 100,
      "chip": "ym2612"
    },
    {
      "channel": 2,
      "note": 63,
      "start": 118.2359,
      "duration": 0.3119,
      "velocity": 87,
      "chip": "ym2612"
    },
    {
      "channel": 2,
      "note": 65,
      "start": 118.5617,
      "duration": 0.312,
      "velocity": 87,
      "chip": "ym2612"
    },
    {
      "channel": 3,
      "note": 63,
      "start": 118.5619,
      "duration": 0.3117,
      "velocity": 87,
      "chip": "ym2612"
    },
    {
      "channel": 4,
      "note": 75,
      "start": 118.5622,
      "duration": 1.3029,
      "velocity": 100,
      "chip": "ym2612"
    },
    {
      "channel": 5,
      "note": 71,
      "start": 118.5624,
      "duration": 1.3029,
      "velocity": 100,
      "chip": "ym2612"
    },
    {
      "channel": 2,
      "note": 66,
      "start": 118.8874,
      "duration": 0.3119,
      "velocity": 87,
      "chip": "ym2612"
    },
    {
      "channel": 3,
      "note": 65,
      "start": 118.8876,
      "duration": 0.3117,
      "velocity": 87,
      "chip": "ym2612"
    },
    {
      "channel": 2,
      "note": 68,
      "start": 119.2131,
      "duration": 0.3119,
      "velocity": 87,
      "chip": "ym2612"
    },
    {
      "channel": 3,
      "note": 66,
      "start": 119.2136,
      "duration": 0.3115,
      "velocity": 87,
      "chip": "ym2612"
    },
    {
      "channel": 2,
      "note": 70,
      "start": 119.5388,
      "duration": 0.3119,
      "velocity": 87,
      "chip": "ym2612"
    },
    {
      "channel": 3,
      "note": 68,
      "start": 119.5391,
      "duration": 0.3117,
      "velocity": 87,
      "chip": "ym2612"
    },
    {
      "channel": 0,
      "note": 58,
      "start": 119.8644,
      "duration": 5.2116,
      "velocity": 117,
      "chip": "ym2612"
    },
    {
      "channel": 2,
      "note": 75,
      "start": 119.8647,
      "duration": 2.5919,
      "velocity": 87,
      "chip": "ym2612"
    },
    {
      "channel": 3,
      "note": 70,
      "start": 119.8649,
      "duration": 0.3117,
      "velocity": 87,
      "chip": "ym2612"
    },
    {
      "channel": 4,
      "note": 78,
      "start": 119.8652,
      "duration": 3.9086,
      "velocity": 100,
      "chip": "ym2612"
    },
    {
      "channel": 5,
      "note": 75,
      "start": 119.8654,
      "duration": 3.9086,
      "velocity": 100,
      "chip": "ym2612"
    },
    {
      "channel": 3,
      "note": 75,
      "start": 120.1905,
      "duration": 2.5919,
      "velocity": 87,
      "chip": "ym2612"
    },
    {
      "channel": 2,
      "note": 77,
      "start": 122.4704,
      "duration": 2.592,
      "velocity": 87,
      "chip": "ym2612"
    },
    {
      "channel": 3,
      "note": 77,
      "start": 122.7963,
      "duration": 2.5919,
      "velocity": 87,
      "chip": "ym2612"
    },
    {
      "channel": 4,
      "note": 77,
      "start": 123.7739,
      "duration": 1.3028,
      "velocity": 100,
      "chip": "ym2612"
    },
    {
      "channel": 5,
      "note": 74,
      "start": 123.7741,
      "duration": 1.3028,
      "velocity": 100,
      "chip": "ym2612"
    },
    {
      "channel": 0,
      "note": 59,
      "start": 125.0761,
      "duration": 2.6057,
      "velocity": 117,
      "chip": "ym2612"
    },
    {
      "channel": 2,
      "note": 78,
      "start": 125.0763,
      "duration": 1.289,
      "velocity": 87,
      "chip": "ym2612"
    },
    {
      "channel": 4,
      "note": 75,
      "start": 125.0768,
      "duration": 2.6058,
      "velocity": 100,
      "chip": "ym2612"
    },
    {
      "channel": 5,
      "note": 71,
      "start": 125.077,
      "duration": 2.6058,
      "velocity": 100,
      "chip": "ym2612"
    },
    {
      "channel": 3,
      "note": 78,
      "start": 125.4021,
      "duration": 1.289,
      "velocity": 87,
      "chip": "ym2612"
    },
    {
      "channel": 2,
      "note": 77,
      "start": 126.3791,
      "duration": 0.4748,
      "velocity": 87,
      "chip": "ym2612"
    },
    {
      "channel": 3,
      "note": 77,
      "start": 126.705,
      "duration": 0.4746,
      "velocity": 87,
      "chip": "ym2612"
    },
    {
      "channel": 2,
      "note": 75,
      "start": 126.8677,
      "duration": 0.4748,
      "velocity": 87,
      "chip": "ym2612"
    },
    {
      "channel": 3,
      "note": 75,
      "start": 127.1939,
      "duration": 0.4744,
      "velocity": 87,
      "chip": "ym2612"
    },
    {
      "channel": 2,
      "note": 78,
      "start": 127.3563,
      "duration": 0.3119,
      "velocity": 87,
      "chip": "ym2612"
    },
    {
      "channel": 0,
      "note": 61,
      "start": 127.6819,
      "duration": 2.6058,
      "velocity": 117,
      "chip": "ym2612"
    },
    {
      "channel": 2,
      "note": 77,
      "start": 127.6822,
      "duration": 1.289,
      "velocity": 87,
      "chip": "ym2612"
    },
    {
      "channel": 3,
      "note": 78,
      "start": 127.6824,
      "duration": 0.3116,
      "velocity": 87,
      "chip": "ym2612"
    },
    {
      "channel": 4,
      "note": 77,
      "start": 127.6827,
      "duration": 2.6056,
      "velocity": 100,
      "chip": "ym2612"
    },
    {
      "channel": 5,
      "note": 73,
      "start": 127.6829,
      "duration": 2.6056,
      "velocity": 100,
      "chip": "ym2612"
    },
    {
      "channel": 3,
      "note": 77,
      "start": 128.0079,
      "duration": 1.289,
      "velocity": 87,
      "chip": "ym2612"
    },
    {
      "channel": 2,
      "note": 73,
      "start": 128.985,
      "duration": 1.2891,
      "velocity": 87,
      "chip": "ym2612"
    },
    {
      "channel": 3,
      "note": 73,
      "start": 129.3108,
      "duration": 1.289,
      "velocity": 87,
      "chip": "ym2612"
    },
    {
      "channel": 0,
      "note": 63,
      "start": 130.2877,
      "duration": 2.6059,
      "velocity": 117,
      "chip": "ym2612"
    },
    {
      "channel": 2,
      "note": 75,
      "start": 130.288,
      "duration": 1.6148,
      "velocity": 87,
      "chip": "ym2612"
    },
    {
      "channel": 4,
      "note": 79,
      "start": 130.2884,
      "duration": 2.606,
      "velocity": 100,
      "chip": "ym2612"
    },
    {
      "channel": 5,
      "note": 75,
      "start": 130.2886,
      "duration": 2.606,
      "velocity": 100,
      "chip": "ym2612"
    },
    {
      "channel": 3,
      "note": 75,
      "start": 130.6144,
      "duration": 1.6141,
      "velocity": 87,
      "chip": "ym2612"
    },
    {
      "channel": 2,
      "note": 70,
      "start": 131.9165,
      "duration": 0.3119,
      "velocity": 87,
      "chip": "ym2612"
    },
    {
      "channel": 2,
      "note": 72,
      "start": 132.2422,
      "duration": 0.3119,
      "velocity": 87,
      "chip": "ym2612"
    },
    {
      "channel": 3,
      "note": 70,
      "start": 132.2425,
      "duration": 0.3117,
      "velocity": 87,
      "chip": "ym2612"
    },
    {
      "channel": 2,
      "note": 73,
      "start": 132.568,
      "duration": 0.3119,
      "velocity": 87,
      "chip": "ym2612"
    },
    {
      "channel": 3,
      "note": 72,
      "start": 132.5683,
      "duration": 0.3117,
      "velocity": 87,
      "chip": "ym2612"
    },
    {
      "channel": 0,
      "note": 56,
      "start": 132.8937,
      "duration": 1.9541,
      "velocity": 117,
      "chip": "ym2612"
    },
    {
      "channel": 2,
      "note": 72,
      "start": 132.8939,
      "duration": 2.5918,
      "velocity": 87,
      "chip": "ym2612"
    },
    {
      "channel": 3,
      "note": 73,
      "start": 132.8942,
      "duration": 0.3114,
      "velocity": 87,
      "chip": "ym2612"
    },
    {
      "channel": 4,
      "note": 80,
      "start": 132.8944,
      "duration": 2.2796,
      "velocity": 100,
      "chip": "ym2612"
    },
    {
      "channel": 5,
      "note": 75,
      "start": 132.8947,
      "duration": 2.6055,
      "velocity": 100,
      "chip": "ym2612"
    },
    {
      "channel": 3,
      "note": 72,
      "start": 133.2196,
      "duration": 2.5919,
      "velocity": 87,
      "chip": "ym2612"
    },
    {
      "channel": 0,
      "note": 58,
      "start": 134.8479,
      "duration": 0.6514,
      "velocity": 117,
      "chip": "ym2612"
    },
    {
      "channel": 4,
      "note": 71,
      "start": 135.1741,
      "duration": 0.1627,
      "velocity": 100,
      "chip": "ym2612"
    },
    {
      "channel": 4,
      "note": 73,
      "start": 135.337,
      "duration": 0.163,
      "velocity": 100,
      "chip": "ym2612"
    },
    {
      "channel": 0,
      "note": 59,
      "start": 135.4994,
      "duration": 2.6057,
      "velocity": 117,
      "chip": "ym2612"
    },
    {
      "channel": 2,
      "note": 71,
      "start": 135.4996,
      "duration": 3.5691,
      "velocity": 87,
      "chip": "ym2612"
    },
    {
      "channel": 4,
      "note": 75,
      "start": 135.5,
      "duration": 2.6056,
      "velocity": 100,
      "chip": "ym2612"
    },
    {
      "channel": 5,
      "note": 71,
      "start": 135.5003,
      "duration": 2.6056,
      "velocity": 100,
      "chip": "ym2612"
    },
    {
      "channel": 3,
      "note": 71,
      "start": 135.8254,
      "duration": 3.5691,
      "velocity": 87,
      "chip": "ym2612"
    },
    {
      "channel": 0,
      "note": 61,
      "start": 138.1052,
      "duration": 2.6057,
      "velocity": 117,
      "chip": "ym2612"
    },
    {
      "channel": 4,
      "note": 77,
      "start": 138.1058,
      "duration": 2.6059,
      "velocity": 100,
      "chip": "ym2612"
    },
    {
      "channel": 5,
      "note": 73,
      "start": 138.106,
      "duration": 2.6059,
      "velocity": 100,
      "chip": "ym2612"
    },
    {
      "channel": 2,
      "note": 70,
      "start": 139.0825,
      "duration": 0.312,
      "velocity": 87,
      "chip": "ym2612"
    },
    {
      "channel": 2,
      "note": 68,
      "start": 139.4083,
      "duration": 0.3119,
      "velocity": 87,
      "chip": "ym2612"
    },
    {
      "channel": 3,
      "note": 70,
      "start": 139.4085,
      "duration": 0.3117,
      "velocity": 87,
      "chip": "ym2612"
    },
    {
      "channel": 2,
      "note": 63,
      "start": 139.734,
      "duration": 0.6376,
      "velocity": 87,
      "chip": "ym2612"
    },
    {
      "channel": 3,
      "note": 68,
      "start": 139.7342,
      "duration": 0.3117,
      "velocity": 87,
      "chip": "ym2612"
    },
    {
      "channel": 3,
      "note": 63,
      "start": 140.0599,
      "duration": 0.6375,
      "velocity": 87,
      "chip": "ym2612"
    },
    {
      "channel": 2,
      "note": 65,
      "start": 140.3854,
      "duration": 0.3119,
      "velocity": 87,
      "chip": "ym2612"
    },
    {
      "channel": 0,
      "note": 63,
      "start": 140.711,
      "duration": 5.2116,
      "velocity": 117,
      "chip": "ym2612"
    },
    {
      "channel": 2,
      "note": 67,
      "start": 140.7113,
      "duration": 5.1978,
      "velocity": 87,
      "chip": "ym2612"
    },
    {
      "channel": 3,
      "note": 65,
      "start": 140.7115,
      "duration": 0.3116,
      "velocity": 87,
      "chip": "ym2612"
    },
    {
      "channel": 4,
      "note": 79,
      "start": 140.7118,
      "duration": 5.2115,
      "velocity": 100,
      "chip": "ym2612"
    },
    {
      "channel": 5,
      "note": 75,
      "start": 140.712,
      "duration": 2.6053,
      "velocity": 100,
      "chip": "ym2612"
    },
    {
      "channel": 3,
      "note": 67,
      "start": 141.0371,
      "duration": 5.1979,
      "velocity": 87,
      "chip": "ym2612"
    },
    {
      "channel": 5,
      "note": 75,
      "start": 143.3175,
      "duration": 2.6063,
      "velocity": 100,
      "chip": "ym2612"
    },
    {
      "channel": 0,
      "note": 59,
      "start": 145.9227,
      "duration": 2.6057,
      "velocity": 117,
      "chip": "ym2612"
    },
    {
      "channel": 2,
      "note": 66,
      "start": 145.9229,
      "duration": 1.289,
      "velocity": 87,
      "chip": "ym2612"
    },
    {
      "channel": 4,
      "note": 75,
      "start": 145.9236,
      "duration": 2.6056,
      "velocity": 100,
      "chip": "ym2612"
    },
    {
      "channel": 5,
      "note": 71,
      "start": 145.9238,
      "duration": 2.6056,
      "velocity": 100,
      "chip": "ym2612"
    },
    {
      "channel": 3,
      "note": 66,
      "start": 146.2487,
      "duration": 1.289,
      "velocity": 87,
      "chip": "ym2612"
    },
    {
      "channel": 2,
      "note": 65,
      "start": 147.2259,
      "duration": 0.4747,
      "velocity": 87,
      "chip": "ym2612"
    },
    {
      "channel": 3,
      "note": 65,
      "start": 147.5516,
      "duration": 0.4746,
      "velocity": 87,
      "chip": "ym2612"
    },
    {
      "channel": 2,
      "note": 63,
      "start": 147.7143,
      "duration": 0.4748,
      "velocity": 87,
      "chip": "ym2612"
    },
    {
      "channel": 3,
      "note": 63,
      "start": 148.0402,
      "duration": 0.4747,
      "velocity": 87,
      "chip": "ym2612"
    },
    {
      "channel": 2,
      "note": 66,
      "start": 148.2029,
      "duration": 0.3119,
      "velocity": 87,
      "chip": "ym2612"
    },
    {
      "channel": 0,
      "note": 61,
      "start": 148.5285,
      "duration": 2.6057,
      "velocity": 117,
      "chip": "ym2612"
    },
    {
      "channel": 2,
      "note": 65,
      "start": 148.5287,
      "duration": 1.289,
      "velocity": 87,
      "chip": "ym2612"
    },
    {
      "channel": 3,
      "note": 66,
      "start": 148.529,
      "duration": 0.3116,
      "velocity": 87,
      "chip": "ym2612"
    },
    {
      "channel": 4,
      "note": 77,
      "start": 148.5293,
      "duration": 2.6057,
      "velocity": 100,
      "chip": "ym2612"
    },
    {
      "channel": 5,
      "note": 73,
      "start": 148.5295,
      "duration": 2.6057,
      "velocity": 100,
      "chip": "ym2612"
    },
    {
      "channel": 3,
      "note": 65,
      "start": 148.8545,
      "duration": 1.2891,
      "velocity": 87,
      "chip": "ym2612"
    },
    {
      "channel": 2,
      "note": 61,
      "start": 149.8315,
      "duration": 1.2891,
      "velocity": 87,
      "chip": "ym2612"
    },
    {
      "channel": 3,
      "note": 61,
      "start": 150.1574,
      "duration": 1.289,
      "velocity": 87,
      "chip": "ym2612"
    },
    {
      "channel": 0,
      "note": 63,
      "start": 151.1343,
      "duration": 2.6057,
      "velocity": 117,
      "chip": "ym2612"
    },
    {
      "channel": 2,
      "note": 63,
      "start": 151.1346,
      "duration": 1.6147,
      "velocity": 87,
      "chip": "ym2612"
    },
    {
      "channel": 4,
      "note": 79,
      "start": 151.135,
      "duration": 2.6058,
      "velocity": 100,
      "chip": "ym2612"
    },
    {
      "channel": 5,
      "note": 75,
      "start": 151.1353,
      "duration": 2.6058,
      "velocity": 100,
      "chip": "ym2612"
    },
    {
      "channel": 3,
      "note": 63,
      "start": 151.4603,
      "duration": 1.6147,
      "velocity": 87,
      "chip": "ym2612"
    },
    {
      "channel": 2,
      "note": 58,
      "start": 152.7631,
      "duration": 0.3119,
      "velocity": 87,
      "chip": "ym2612"
    },
    {
      "channel": 2,
      "note": 60,
      "start": 153.0888,
      "duration": 0.312,
      "velocity": 87,
      "chip": "ym2612"
    },
    {
      "channel": 3,
      "note": 58,
      "start": 153.0891,
      "duration": 0.3117,
      "velocity": 87,
      "chip": "ym2612"
    },
    {
      "channel": 2,
      "note": 61,
      "start": 153.4146,
      "duration": 0.3119,
      "velocity": 87,
      "chip": "ym2612"
    },
    {
      "channel": 3,
      "note": 60,
      "start": 153.4148,
      "duration": 0.3117,
      "velocity": 87,
      "chip": "ym2612"
    },
    {
      "channel": 0,
      "note": 56,
      "start": 153.7401,
      "duration": 1.9543,
      "velocity": 117,
      "chip": "ym2612"
    },
    {
      "channel": 2,
      "note": 60,
      "start": 153.7404,
      "duration": 2.5919,
      "velocity": 87,
      "chip": "ym2612"
    },
    {
      "channel": 3,
      "note": 61,
      "start": 153.7406,
      "duration": 0.3116,
      "velocity": 87,
      "chip": "ym2612"
    },
    {
      "channel": 4,
      "note": 80,
      "start": 153.7409,
      "duration": 2.2797,
      "velocity": 100,
      "chip": "ym2612"
    },
    {
      "channel": 5,
      "note": 75,
      "start": 153.7412,
      "duration": 2.6056,
      "velocity": 100,
      "chip": "ym2612"
    },
    {
      "channel": 3,
      "note": 60,
      "start": 154.0662,
      "duration": 2.5919,
      "velocity": 87,
      "chip": "ym2612"
    },
    {
      "channel": 0,
      "note": 58,
      "start": 155.6945,
      "duration": 0.6514,
      "velocity": 117,
      "chip": "ym2612"
    },
    {
      "channel": 4,
      "note": 71,
      "start": 156.0207,
      "duration": 0.163,
      "velocity": 100,
      "chip": "ym2612"
    },
    {
      "channel": 4,
      "note": 73,
      "start": 156.1838,
      "duration": 0.1627,
      "velocity": 100,
      "chip": "ym2612"
    },
    {
      "channel": 0,
      "note": 59,
      "start": 156.3459,
      "duration": 2.6058,
      "velocity": 117,
      "chip": "ym2612"
    },
    {
      "channel": 2,
      "note": 59,
      "start": 156.3462,
      "duration": 3.5691,
      "velocity": 87,
      "chip": "ym2612"
    },
    {
      "channel": 4,
      "note": 75,
      "start": 156.3466,
      "duration": 2.6056,
      "velocity": 100,
      "chip": "ym2612"
    },
    {
      "channel": 5,
      "note": 71,
      "start": 156.3469,
      "duration": 2.6056,
      "velocity": 100,
      "chip": "ym2612"
    },
    {
      "channel": 3,
      "note": 59,
      "start": 156.6724,
      "duration": 3.5687,
      "velocity": 87,
      "chip": "ym2612"
    },
    {
      "channel": 0,
      "note": 61,
      "start": 158.9518,
      "duration": 2.6058,
      "velocity": 117,
      "chip": "ym2612"
    },
    {
      "channel": 4,
      "note": 77,
      "start": 158.9523,
      "duration": 2.606,
      "velocity": 100,
      "chip": "ym2612"
    },
    {
      "channel": 5,
      "note": 73,
      "start": 158.9526,
      "duration": 2.6059,
      "velocity": 100,
      "chip": "ym2612"
    },
    {
      "channel": 2,
      "note": 58,
      "start": 159.9291,
      "duration": 0.3119,
      "velocity": 87,
      "chip": "ym2612"
    },
    {
      "channel": 2,
      "note": 56,
      "start": 160.2549,
      "duration": 0.3119,
      "velocity": 87,
      "chip": "ym2612"
    },
    {
      "channel": 3,
      "note": 58,
      "start": 160.2551,
      "duration": 0.3117,
      "velocity": 87,
      "chip": "ym2612"
    },
    {
      "channel": 2,
      "note": 51,
      "start": 160.5806,
      "duration": 0.6377,
      "velocity": 87,
      "chip": "ym2612"
    },
    {
      "channel": 3,
      "note": 56,
      "start": 160.5808,
      "duration": 0.3117,
      "velocity": 87,
      "chip": "ym2612"
    },
    {
      "channel": 3,
      "note": 51,
      "start": 160.9065,
      "duration": 0.6375,
      "velocity": 87,
      "chip": "ym2612"
    },
    {
      "channel": 2,
      "note": 53,
      "start": 161.232,
      "duration": 0.3119,
      "velocity": 87,
      "chip": "ym2612"
    },
    {
      "channel": 0,
      "note": 51,
      "start": 161.5576,
      "duration": 7.4917,
      "velocity": 117,
      "chip": "ym2612"
    },
    {
      "channel": 2,
      "note": 55,
      "start": 161.5579,
      "duration": 7.8036,
      "velocity": 87,
      "chip": "ym2612"
    },
    {
      "channel": 3,
      "note": 53,
      "start": 161.5581,
      "duration": 0.3116,
      "velocity": 87,
      "chip": "ym2612"
    },
    {
      "channel": 4,
      "note": 79,
      "start": 161.5584,
      "duration": 7.8186,
      "velocity": 100,
      "chip": "ym2612"
    },
    {
      "channel": 5,
      "note": 75,
      "start": 161.5586,
      "duration": 7.8191,
      "velocity": 100,
      "chip": "ym2612"
    },
    {
      "channel": 3,
      "note": 55,
      "start": 161.8839,
      "duration": 7.8033,
      "velocity": 87,
      "chip": "ym2612"
    },
    {
      "channel": 2,
      "note": 70,
      "start": 169.3766,
      "duration": 0.3241,
      "velocity": 87,
      "chip": "ym2612"
    }
  ]
}