{
  "track_name": "23 - Shit!",
  "duration_sec": 45.602,
  "sample_rate": 44100,
  "note_count": 941,
  "unique_pitches": 31,
  "pitch_range": 52,
  "avg_note_duration": 0.2068,
  "reconstruction_stats": {
    "notes_reconstructed": 941,
    "keyon_events": 941,
    "keyoff_events": 939,
    "orphan_keyons": 2,
    "unique_pitches": 31,
    "pitch_range": 52,
    "avg_duration_sec": 0.2068
  },
  "metadata": {
    "source": "S\\Sorcerer's Kingdom\\23 - Shit!.vgm"
  },
  "notes": [
    {
      "channel": 0,
      "note": 59,
      "start": 0.0067,
      "duration": 0.8014,
      "velocity": 91,
      "chip": "ym2612"
    },
    {
      "channel": 1,
      "note": 59,
      "start": 0.0068,
      "duration": 6.4034,
      "velocity": 78,
      "chip": "ym2612"
    },
    {
      "channel": 2,
      "note": 47,
      "start": 0.0068,
      "duration": 0.1604,
      "velocity": 119,
      "chip": "ym2612"
    },
    {
      "channel": 3,
      "note": 71,
      "start": 0.0069,
      "duration": 0.3437,
      "velocity": 91,
      "chip": "ym2612"
    },
    {
      "channel": 4,
      "note": 85,
      "start": 0.007,
      "duration": 0.027,
      "velocity": 114,
      "chip": "ym2612"
    },
    {
      "channel": 5,
      "note": 55,
      "start": 0.007,
      "duration": 0.0943,
      "velocity": 127,
      "chip": "ym2612"
    },
    {
      "channel": 5,
      "note": 55,
      "start": 0.1014,
      "duration": 0.1005,
      "velocity": 127,
      "chip": "ym2612"
    },
    {
      "channel": 2,
      "note": 47,
      "start": 0.2019,
      "duration": 0.0821,
      "velocity": 119,
      "chip": "ym2612"
    },
    {
      "channel": 5,
      "note": 55,
      "start": 0.202,
      "duration": 0.0998,
      "velocity": 127,
      "chip": "ym2612"
    },
    {
      "channel": 2,
      "note": 47,
      "start": 0.3017,
      "duration": 0.0822,
      "velocity": 119,
      "chip": "ym2612"
    },
    {
      "channel": 5,
      "note": 55,
      "start": 0.3019,
      "duration": 0.1011,
      "velocity": 127,
      "chip": "ym2612"
    },
    {
      "channel": 2,
      "note": 47,
      "start": 0.4028,
      "duration": 0.1644,
      "velocity": 119,
      "chip": "ym2612"
    },
    {
      "channel": 4,
      "note": 85,
      "start": 0.4029,
      "duration": 0.031,
      "velocity": 114,
      "chip": "ym2612"
    },
    {
      "channel": 5,
      "note": 55,
      "start": 0.403,
      "duration": 0.098,
      "velocity": 127,
      "chip": "ym2612"
    },
    {
      "channel": 5,
      "note": 36,
      "start": 0.604,
      "duration": 0.0966,
      "velocity": 101,
      "chip": "ym2612"
    },
    {
      "channel": 0,
      "note": 62,
      "start": 0.8082,
      "duration": 0.1964,
      "velocity": 91,
      "chip": "ym2612"
    },
    {
      "channel": 2,
      "note": 50,
      "start": 0.8082,
      "duration": 0.3424,
      "velocity": 119,
      "chip": "ym2612"
    },
    {
      "channel": 3,
      "note": 74,
      "start": 0.8083,
      "duration": 0.159,
      "velocity": 91,
      "chip": "ym2612"
    },
    {
      "channel": 4,
      "note": 85,
      "start": 0.8083,
      "duration": 0.0256,
      "velocity": 114,
      "chip": "ym2612"
    },
    {
      "channel": 5,
      "note": 55,
      "start": 0.8084,
      "duration": 0.1422,
      "velocity": 127,
      "chip": "ym2612"
    },
    {
      "channel": 0,
      "note": 61,
      "start": 1.0046,
      "duration": 0.2017,
      "velocity": 91,
      "chip": "ym2612"
    },
    {
      "channel": 5,
      "note": 36,
      "start": 1.0047,
      "duration": 0.0959,
      "velocity": 101,
      "chip": "ym2612"
    },
    {
      "channel": 0,
      "note": 57,
      "start": 1.2064,
      "duration": 0.1997,
      "velocity": 91,
      "chip": "ym2612"
    },
    {
      "channel": 2,
      "note": 45,
      "start": 1.2064,
      "duration": 0.161,
      "velocity": 119,
      "chip": "ym2612"
    },
    {
      "channel": 3,
      "note": 69,
      "start": 1.2065,
      "duration": 0.161,
      "velocity": 91,
      "chip": "ym2612"
    },
    {
      "channel": 4,
      "note": 85,
      "start": 1.2066,
      "duration": 0.0273,
      "velocity": 114,
      "chip": "ym2612"
    },
    {
      "channel": 5,
      "note": 55,
      "start": 1.2066,
      "duration": 0.144,
      "velocity": 127,
      "chip": "ym2612"
    },
    {
      "channel": 0,
      "note": 59,
      "start": 1.4062,
      "duration": 1.0011,
      "velocity": 91,
      "chip": "ym2612"
    },
    {
      "channel": 2,
      "note": 47,
      "start": 1.4063,
      "duration": 0.3609,
      "velocity": 119,
      "chip": "ym2612"
    },
    {
      "channel": 3,
      "note": 71,
      "start": 1.4064,
      "duration": 0.5442,
      "velocity": 91,
      "chip": "ym2612"
    },
    {
      "channel": 5,
      "note": 36,
      "start": 1.4064,
      "duration": 0.0941,
      "velocity": 101,
      "chip": "ym2612"
    },
    {
      "channel": 4,
      "note": 85,
      "start": 1.6075,
      "duration": 0.0264,
      "velocity": 114,
      "chip": "ym2612"
    },
    {
      "channel": 5,
      "note": 36,
      "start": 1.6076,
      "duration": 0.0932,
      "velocity": 101,
      "chip": "ym2612"
    },
    {
      "channel": 2,
      "note": 47,
      "start": 1.8045,
      "duration": 0.0795,
      "velocity": 119,
      "chip": "ym2612"
    },
    {
      "channel": 5,
      "note": 55,
      "start": 1.8046,
      "duration": 0.0972,
      "velocity": 127,
      "chip": "ym2612"
    },
    {
      "channel": 2,
      "note": 47,
      "start": 1.9017,
      "duration": 0.0822,
      "velocity": 119,
      "chip": "ym2612"
    },
    {
      "channel": 5,
      "note": 55,
      "start": 1.9019,
      "duration": 0.1011,
      "velocity": 127,
      "chip": "ym2612"
    },
    {
      "channel": 2,
      "note": 47,
      "start": 2.0028,
      "duration": 0.1644,
      "velocity": 119,
      "chip": "ym2612"
    },
    {
      "channel": 4,
      "note": 85,
      "start": 2.0029,
      "duration": 0.031,
      "velocity": 114,
      "chip": "ym2612"
    },
    {
      "channel": 5,
      "note": 55,
      "start": 2.003,
      "duration": 0.098,
      "velocity": 127,
      "chip": "ym2612"
    },
    {
      "channel": 5,
      "note": 36,
      "start": 2.204,
      "duration": 0.0966,
      "velocity": 101,
      "chip": "ym2612"
    },
    {
      "channel": 0,
      "note": 62,
      "start": 2.4073,
      "duration": 0.0939,
      "velocity": 91,
      "chip": "ym2612"
    },
    {
      "channel": 2,
      "note": 50,
      "start": 2.4075,
      "duration": 0.3432,
      "velocity": 119,
      "chip": "ym2612"
    },
    {
      "channel": 3,
      "note": 74,
      "start": 2.4075,
      "duration": 0.3432,
      "velocity": 91,
      "chip": "ym2612"
    },
    {
      "channel": 4,
      "note": 85,
      "start": 2.4076,
      "duration": 0.0263,
      "velocity": 114,
      "chip": "ym2612"
    },
    {
      "channel": 5,
      "note": 55,
      "start": 2.4076,
      "duration": 0.1431,
      "velocity": 127,
      "chip": "ym2612"
    },
    {
      "channel": 0,
      "note": 61,
      "start": 2.5013,
      "duration": 0.104,
      "velocity": 91,
      "chip": "ym2612"
    },
    {
      "channel": 0,
      "note": 62,
      "start": 2.6054,
      "duration": 0.0961,
      "velocity": 91,
      "chip": "ym2612"
    },
    {
      "channel": 5,
      "note": 36,
      "start": 2.6055,
      "duration": 0.0961,
      "velocity": 101,
      "chip": "ym2612"
    },
    {
      "channel": 0,
      "note": 64,
      "start": 2.7015,
      "duration": 0.1049,
      "velocity": 91,
      "chip": "ym2612"
    },
    {
      "channel": 0,
      "note": 66,
      "start": 2.8064,
      "duration": 0.0957,
      "velocity": 91,
      "chip": "ym2612"
    },
    {
      "channel": 2,
      "note": 52,
      "start": 2.8065,
      "duration": 0.3441,
      "velocity": 119,
      "chip": "ym2612"
    },
    {
      "channel": 3,
      "note": 76,
      "start": 2.8066,
      "duration": 0.3441,
      "velocity": 91,
      "chip": "ym2612"
    },
    {
      "channel": 4,
      "note": 85,
      "start": 2.8066,
      "duration": 0.0273,
      "velocity": 114,
      "chip": "ym2612"
    },
    {
      "channel": 5,
      "note": 55,
      "start": 2.8067,
      "duration": 0.0956,
      "velocity": 127,
      "chip": "ym2612"
    },
    {
      "channel": 0,
      "note": 64,
      "start": 2.9022,
      "duration": 0.1022,
      "velocity": 91,
      "chip": "ym2612"
    },
    {
      "channel": 5,
      "note": 55,
      "start": 2.9024,
      "duration": 0.1022,
      "velocity": 101,
      "chip": "ym2612"
    },
    {
      "channel": 0,
      "note": 62,
      "start": 3.0045,
      "duration": 0.0968,
      "velocity": 91,
      "chip": "ym2612"
    },
    {
      "channel": 5,
      "note": 36,
      "start": 3.0047,
      "duration": 0.0967,
      "velocity": 101,
      "chip": "ym2612"
    },
    {
      "channel": 0,
      "note": 61,
      "start": 3.1013,
      "duration": 0.1077,
      "velocity": 91,
      "chip": "ym2612"
    },
    {
      "channel": 0,
      "note": 59,
      "start": 3.209,
      "duration": 0.799,
      "velocity": 91,
      "chip": "ym2612"
    },
    {
      "channel": 2,
      "note": 47,
      "start": 3.2091,
      "duration": 0.1581,
      "velocity": 119,
      "chip": "ym2612"
    },
    {
      "channel": 3,
      "note": 71,
      "start": 3.2092,
      "duration": 0.3414,
      "velocity": 91,
      "chip": "ym2612"
    },
    {
      "channel": 4,
      "note": 85,
      "start": 3.2093,
      "duration": 0.0247,
      "velocity": 114,
      "chip": "ym2612"
    },
    {
      "channel": 5,
      "note": 55,
      "start": 3.2093,
      "duration": 0.092,
      "velocity": 127,
      "chip": "ym2612"
    },
    {
      "channel": 5,
      "note": 55,
      "start": 3.3014,
      "duration": 0.1005,
      "velocity": 127,
      "chip": "ym2612"
    },
    {
      "channel": 2,
      "note": 47,
      "start": 3.4019,
      "duration": 0.0821,
      "velocity": 119,
      "chip": "ym2612"
    },
    {
      "channel": 5,
      "note": 55,
      "start": 3.402,
      "duration": 0.0998,
      "velocity": 127,
      "chip": "ym2612"
    },
    {
      "channel": 2,
      "note": 47,
      "start": 3.5017,
      "duration": 0.0822,
      "velocity": 119,
      "chip": "ym2612"
    },
    {
      "channel": 5,
      "note": 55,
      "start": 3.5019,
      "duration": 0.1011,
      "velocity": 127,
      "chip": "ym2612"
    },
    {
      "channel": 2,
      "note": 47,
      "start": 3.6028,
      "duration": 0.1644,
      "velocity": 119,
      "chip": "ym2612"
    },
    {
      "channel": 4,
      "note": 85,
      "start": 3.6029,
      "duration": 0.031,
      "velocity": 114,
      "chip": "ym2612"
    },
    {
      "channel": 5,
      "note": 55,
      "start": 3.603,
      "duration": 0.098,
      "velocity": 127,
      "chip": "ym2612"
    },
    {
      "channel": 5,
      "note": 36,
      "start": 3.804,
      "duration": 0.0966,
      "velocity": 101,
      "chip": "ym2612"
    },
    {
      "channel": 0,
      "note": 62,
      "start": 4.0082,
      "duration": 0.1966,
      "velocity": 91,
      "chip": "ym2612"
    },
    {
      "channel": 2,
      "note": 50,
      "start": 4.0082,
      "duration": 0.1592,
      "velocity": 119,
      "chip": "ym2612"
    },
    {
      "channel": 3,
      "note": 74,
      "start": 4.0083,
      "duration": 0.1592,
      "velocity": 91,
      "chip": "ym2612"
    },
    {
      "channel": 4,
      "note": 85,
      "start": 4.0083,
      "duration": 0.0256,
      "velocity": 114,
      "chip": "ym2612"
    },
    {
      "channel": 5,
      "note": 55,
      "start": 4.0084,
      "duration": 0.1422,
      "velocity": 127,
      "chip": "ym2612"
    },
    {
      "channel": 0,
      "note": 61,
      "start": 4.2048,
      "duration": 0.2015,
      "velocity": 91,
      "chip": "ym2612"
    },
    {
      "channel": 5,
      "note": 36,
      "start": 4.2049,
      "duration": 0.0957,
      "velocity": 101,
      "chip": "ym2612"
    },
    {
      "channel": 0,
      "note": 62,
      "start": 4.4064,
      "duration": 0.1997,
      "velocity": 91,
      "chip": "ym2612"
    },
    {
      "channel": 2,
      "note": 45,
      "start": 4.4064,
      "duration": 0.161,
      "velocity": 119,
      "chip": "ym2612"
    },
    {
      "channel": 3,
      "note": 69,
      "start": 4.4065,
      "duration": 0.161,
      "velocity": 91,
      "chip": "ym2612"
    },
    {
      "channel": 4,
      "note": 85,
      "start": 4.4066,
      "duration": 0.0273,
      "velocity": 114,
      "chip": "ym2612"
    },
    {
      "channel": 5,
      "note": 55,
      "start": 4.4066,
      "duration": 0.144,
      "velocity": 127,
      "chip": "ym2612"
    },
    {
      "channel": 0,
      "note": 66,
      "start": 4.6062,
      "duration": 1.0019,
      "velocity": 91,
      "chip": "ym2612"
    },
    {
      "channel": 2,
      "note": 47,
      "start": 4.6063,
      "duration": 0.3609,
      "velocity": 119,
      "chip": "ym2612"
    },
    {
      "channel": 3,
      "note": 71,
      "start": 4.6064,
      "duration": 0.5442,
      "velocity": 91,
      "chip": "ym2612"
    },
    {
      "channel": 5,
      "note": 36,
      "start": 4.6064,
      "duration": 0.0941,
      "velocity": 101,
      "chip": "ym2612"
    },
    {
      "channel": 4,
      "note": 85,
      "start": 4.8075,
      "duration": 0.0264,
      "velocity": 114,
      "chip": "ym2612"
    },
    {
      "channel": 5,
      "note": 36,
      "start": 4.8076,
      "duration": 0.0932,
      "velocity": 101,
      "chip": "ym2612"
    },
    {
      "channel": 2,
      "note": 47,
      "start": 5.0045,
      "duration": 0.0795,
      "velocity": 119,
      "chip": "ym2612"
    },
    {
      "channel": 5,
      "note": 55,
      "start": 5.0046,
      "duration": 0.0972,
      "velocity": 127,
      "chip": "ym2612"
    },
    {
      "channel": 2,
      "note": 47,
      "start": 5.1017,
      "duration": 0.0822,
      "velocity": 119,
      "chip": "ym2612"
    },
    {
      "channel": 5,
      "note": 55,
      "start": 5.1019,
      "duration": 0.1011,
      "velocity": 127,
      "chip": "ym2612"
    },
    {
      "channel": 2,
      "note": 47,
      "start": 5.2028,
      "duration": 0.1644,
      "velocity": 119,
      "chip": "ym2612"
    },
    {
      "channel": 4,
      "note": 85,
      "start": 5.2029,
      "duration": 0.031,
      "velocity": 114,
      "chip": "ym2612"
    },
    {
      "channel": 5,
      "note": 55,
      "start": 5.203,
      "duration": 0.098,
      "velocity": 127,
      "chip": "ym2612"
    },
    {
      "channel": 5,
      "note": 36,
      "start": 5.404,
      "duration": 0.0966,
      "velocity": 101,
      "chip": "ym2612"
    },
    {
      "channel": 0,
      "note": 67,
      "start": 5.6082,
      "duration": 0.0931,
      "velocity": 91,
      "chip": "ym2612"
    },
    {
      "channel": 2,
      "note": 52,
      "start": 5.6083,
      "duration": 0.3424,
      "velocity": 119,
      "chip": "ym2612"
    },
    {
      "channel": 3,
      "note": 40,
      "start": 5.6083,
      "duration": 0.3424,
      "velocity": 91,
      "chip": "ym2612"
    },
    {
      "channel": 4,
      "note": 85,
      "start": 5.6084,
      "duration": 0.0255,
      "velocity": 114,
      "chip": "ym2612"
    },
    {
      "channel": 5,
      "note": 55,
      "start": 5.6084,
      "duration": 0.1422,
      "velocity": 127,
      "chip": "ym2612"
    },
    {
      "channel": 0,
      "note": 66,
      "start": 5.7013,
      "duration": 0.1031,
      "velocity": 91,
      "chip": "ym2612"
    },
    {
      "channel": 0,
      "note": 67,
      "start": 5.8044,
      "duration": 0.0968,
      "velocity": 91,
      "chip": "ym2612"
    },
    {
      "channel": 5,
      "note": 36,
      "start": 5.8045,
      "duration": 0.0968,
      "velocity": 101,
      "chip": "ym2612"
    },
    {
      "channel": 0,
      "note": 73,
      "start": 5.9013,
      "duration": 0.1061,
      "velocity": 91,
      "chip": "ym2612"
    },
    {
      "channel": 0,
      "note": 71,
      "start": 6.0075,
      "duration": 0.198,
      "velocity": 91,
      "chip": "ym2612"
    },
    {
      "channel": 2,
      "note": 50,
      "start": 6.0075,
      "duration": 0.3431,
      "velocity": 119,
      "chip": "ym2612"
    },
    {
      "channel": 3,
      "note": 38,
      "start": 6.0076,
      "duration": 0.3431,
      "velocity": 91,
      "chip": "ym2612"
    },
    {
      "channel": 4,
      "note": 85,
      "start": 6.0077,
      "duration": 0.0263,
      "velocity": 114,
      "chip": "ym2612"
    },
    {
      "channel": 5,
      "note": 55,
      "start": 6.0077,
      "duration": 0.0937,
      "velocity": 127,
      "chip": "ym2612"
    },
    {
      "channel": 5,
      "note": 55,
      "start": 6.1014,
      "duration": 0.1042,
      "velocity": 101,
      "chip": "ym2612"
    },
    {
      "channel": 0,
      "note": 70,
      "start": 6.2055,
      "duration": 0.2046,
      "velocity": 91,
      "chip": "ym2612"
    },
    {
      "channel": 5,
      "note": 36,
      "start": 6.2057,
      "duration": 0.0949,
      "velocity": 101,
      "chip": "ym2612"
    },
    {
      "channel": 0,
      "note": 71,
      "start": 6.4101,
      "duration": 1.6912,
      "velocity": 91,
      "chip": "ym2612"
    },
    {
      "channel": 1,
      "note": 59,
      "start": 6.4102,
      "duration": 6.4007,
      "velocity": 78,
      "chip": "ym2612"
    },
    {
      "channel": 2,
      "note": 47,
      "start": 6.4103,
      "duration": 0.157,
      "velocity": 119,
      "chip": "ym2612"
    },
    {
      "channel": 3,
      "note": 71,
      "start": 6.4103,
      "duration": 0.3403,
      "velocity": 91,
      "chip": "ym2612"
    },
    {
      "channel": 4,
      "note": 85,
      "start": 6.4104,
      "duration": 0.0235,
      "velocity": 114,
      "chip": "ym2612"
    },
    {
      "channel": 5,
      "note": 55,
      "start": 6.4105,
      "duration": 0.0909,
      "velocity": 127,
      "chip": "ym2612"
    },
    {
      "channel": 5,
      "note": 55,
      "start": 6.5014,
      "duration": 0.1005,
      "velocity": 127,
      "chip": "ym2612"
    },
    {
      "channel": 2,
      "note": 47,
      "start": 6.6019,
      "duration": 0.0821,
      "velocity": 119,
      "chip": "ym2612"
    },
    {
      "channel": 5,
      "note": 55,
      "start": 6.602,
      "duration": 0.0998,
      "velocity": 127,
      "chip": "ym2612"
    },
    {
      "channel": 2,
      "note": 47,
      "start": 6.7017,
      "duration": 0.0822,
      "velocity": 119,
      "chip": "ym2612"
    },
    {
      "channel": 5,
      "note": 55,
      "start": 6.7019,
      "duration": 0.1011,
      "velocity": 127,
      "chip": "ym2612"
    },
    {
      "channel": 2,
      "note": 47,
      "start": 6.8028,
      "duration": 0.1645,
      "velocity": 119,
      "chip": "ym2612"
    },
    {
      "channel": 4,
      "note": 85,
      "start": 6.8029,
      "duration": 0.031,
      "velocity": 114,
      "chip": "ym2612"
    },
    {
      "channel": 5,
      "note": 55,
      "start": 6.803,
      "duration": 0.098,
      "velocity": 127,
      "chip": "ym2612"
    },
    {
      "channel": 5,
      "note": 36,
      "start": 7.004,
      "duration": 0.0966,
      "velocity": 101,
      "chip": "ym2612"
    },
    {
      "channel": 2,
      "note": 50,
      "start": 7.2065,
      "duration": 0.3441,
      "velocity": 119,
      "chip": "ym2612"
    },
    {
      "channel": 3,
      "note": 74,
      "start": 7.2066,
      "duration": 0.1607,
      "velocity": 91,
      "chip": "ym2612"
    },
    {
      "channel": 4,
      "note": 85,
      "start": 7.2066,
      "duration": 0.0273,
      "velocity": 114,
      "chip": "ym2612"
    },
    {
      "channel": 5,
      "note": 55,
      "start": 7.2067,
      "duration": 0.144,
      "velocity": 127,
      "chip": "ym2612"
    },
    {
      "channel": 5,
      "note": 36,
      "start": 7.404,
      "duration": 0.0967,
      "velocity": 101,
      "chip": "ym2612"
    },
    {
      "channel": 2,
      "note": 45,
      "start": 7.6057,
      "duration": 0.1617,
      "velocity": 119,
      "chip": "ym2612"
    },
    {
      "channel": 3,
      "note": 69,
      "start": 7.6057,
      "duration": 0.1617,
      "velocity": 91,
      "chip": "ym2612"
    },
    {
      "channel": 4,
      "note": 85,
      "start": 7.6058,
      "duration": 0.0281,
      "velocity": 114,
      "chip": "ym2612"
    },
    {
      "channel": 5,
      "note": 55,
      "start": 7.6059,
      "duration": 0.1449,
      "velocity": 127,
      "chip": "ym2612"
    },
    {
      "channel": 2,
      "note": 47,
      "start": 7.8056,
      "duration": 0.3617,
      "velocity": 119,
      "chip": "ym2612"
    },
    {
      "channel": 3,
      "note": 71,
      "start": 7.8056,
      "duration": 0.545,
      "velocity": 91,
      "chip": "ym2612"
    },
    {
      "channel": 5,
      "note": 36,
      "start": 7.8057,
      "duration": 0.0949,
      "velocity": 101,
      "chip": "ym2612"
    },
    {
      "channel": 4,
      "note": 85,
      "start": 8.0075,
      "duration": 0.0264,
      "velocity": 114,
      "chip": "ym2612"
    },
    {
      "channel": 5,
      "note": 36,
      "start": 8.0076,
      "duration": 0.0939,
      "velocity": 101,
      "chip": "ym2612"
    },
    {
      "channel": 0,
      "note": 69,
      "start": 8.1014,
      "duration": 0.1037,
      "velocity": 91,
      "chip": "ym2612"
    },
    {
      "channel": 0,
      "note": 67,
      "start": 8.2052,
      "duration": 0.0971,
      "velocity": 91,
      "chip": "ym2612"
    },
    {
      "channel": 2,
      "note": 47,
      "start": 8.2053,
      "duration": 0.0786,
      "velocity": 119,
      "chip": "ym2612"
    },
    {
      "channel": 5,
      "note": 55,
      "start": 8.2054,
      "duration": 0.0972,
      "velocity": 127,
      "chip": "ym2612"
    },
    {
      "channel": 0,
      "note": 66,
      "start": 8.3024,
      "duration": 0.1011,
      "velocity": 91,
      "chip": "ym2612"
    },
    {
      "channel": 2,
      "note": 47,
      "start": 8.3025,
      "duration": 0.0814,
      "velocity": 119,
      "chip": "ym2612"
    },
    {
      "channel": 5,
      "note": 55,
      "start": 8.3026,
      "duration": 0.1011,
      "velocity": 127,
      "chip": "ym2612"
    },
    {
      "channel": 0,
      "note": 67,
      "start": 8.4035,
      "duration": 0.2011,
      "velocity": 91,
      "chip": "ym2612"
    },
    {
      "channel": 2,
      "note": 47,
      "start": 8.4036,
      "duration": 0.1637,
      "velocity": 119,
      "chip": "ym2612"
    },
    {
      "channel": 4,
      "note": 85,
      "start": 8.4037,
      "duration": 0.0302,
      "velocity": 114,
      "chip": "ym2612"
    },
    {
      "channel": 5,
      "note": 55,
      "start": 8.4038,
      "duration": 0.0972,
      "velocity": 127,
      "chip": "ym2612"
    },
    {
      "channel": 0,
      "note": 69,
      "start": 8.6047,
      "duration": 0.2024,
      "velocity": 91,
      "chip": "ym2612"
    },
    {
      "channel": 5,
      "note": 36,
      "start": 8.6048,
      "duration": 0.0959,
      "velocity": 101,
      "chip": "ym2612"
    },
    {
      "channel": 0,
      "note": 69,
      "start": 8.8071,
      "duration": 0.3993,
      "velocity": 91,
      "chip": "ym2612"
    },
    {
      "channel": 2,
      "note": 50,
      "start": 8.8072,
      "duration": 0.3434,
      "velocity": 119,
      "chip": "ym2612"
    },
    {
      "channel": 3,
      "note": 74,
      "start": 8.8073,
      "duration": 0.3434,
      "velocity": 91,
      "chip": "ym2612"
    },
    {
      "channel": 4,
      "note": 85,
      "start": 8.8073,
      "duration": 0.0266,
      "velocity": 114,
      "chip": "ym2612"
    },
    {
      "channel": 5,
      "note": 55,
      "start": 8.8074,
      "duration": 0.1433,
      "velocity": 127,
      "chip": "ym2612"
    },
    {
      "channel": 5,
      "note": 36,
      "start": 9.0038,
      "duration": 0.0969,
      "velocity": 101,
      "chip": "ym2612"
    },
    {
      "channel": 0,
      "note": 67,
      "start": 9.2065,
      "duration": 0.4022,
      "velocity": 91,
      "chip": "ym2612"
    },
    {
      "channel": 2,
      "note": 52,
      "start": 9.2066,
      "duration": 0.3441,
      "velocity": 119,
      "chip": "ym2612"
    },
    {
      "channel": 3,
      "note": 76,
      "start": 9.2066,
      "duration": 0.3441,
      "velocity": 91,
      "chip": "ym2612"
    },
    {
      "channel": 4,
      "note": 85,
      "start": 9.2067,
      "duration": 0.0272,
      "velocity": 114,
      "chip": "ym2612"
    },
    {
      "channel": 5,
      "note": 55,
      "start": 9.2068,
      "duration": 0.0946,
      "velocity": 127,
      "chip": "ym2612"
    },
    {
      "channel": 5,
      "note": 55,
      "start": 9.3014,
      "duration": 0.1025,
      "velocity": 101,
      "chip": "ym2612"
    },
    {
      "channel": 5,
      "note": 36,
      "start": 9.404,
      "duration": 0.0967,
      "velocity": 101,
      "chip": "ym2612"
    },
    {
      "channel": 0,
      "note": 66,
      "start": 9.6088,
      "duration": 3.202,
      "velocity": 91,
      "chip": "ym2612"
    },
    {
      "channel": 2,
      "note": 47,
      "start": 9.6089,
      "duration": 0.1584,
      "velocity": 119,
      "chip": "ym2612"
    },
    {
      "channel": 3,
      "note": 71,
      "start": 9.6089,
      "duration": 0.3417,
      "velocity": 91,
      "chip": "ym2612"
    },
    {
      "channel": 4,
      "note": 85,
      "start": 9.609,
      "duration": 0.0249,
      "velocity": 114,
      "chip": "ym2612"
    },
    {
      "channel": 5,
      "note": 55,
      "start": 9.609,
      "duration": 0.0923,
      "velocity": 127,
      "chip": "ym2612"
    },
    {
      "channel": 5,
      "note": 55,
      "start": 9.7014,
      "duration": 0.1005,
      "velocity": 127,
      "chip": "ym2612"
    },
    {
      "channel": 2,
      "note": 47,
      "start": 9.8019,
      "duration": 0.0821,
      "velocity": 119,
      "chip": "ym2612"
    },
    {
      "channel": 5,
      "note": 55,
      "start": 9.802,
      "duration": 0.0998,
      "velocity": 127,
      "chip": "ym2612"
    },
    {
      "channel": 2,
      "note": 47,
      "start": 9.9017,
      "duration": 0.0822,
      "velocity": 119,
      "chip": "ym2612"
    },
    {
      "channel": 5,
      "note": 55,
      "start": 9.9019,
      "duration": 0.1011,
      "velocity": 127,
      "chip": "ym2612"
    },
    {
      "channel": 2,
      "note": 47,
      "start": 10.0028,
      "duration": 0.1644,
      "velocity": 119,
      "chip": "ym2612"
    },
    {
      "channel": 4,
      "note": 85,
      "start": 10.0029,
      "duration": 0.031,
      "velocity": 114,
      "chip": "ym2612"
    },
    {
      "channel": 5,
      "note": 55,
      "start": 10.003,
      "duration": 0.098,
      "velocity": 127,
      "chip": "ym2612"
    },
    {
      "channel": 5,
      "note": 36,
      "start": 10.204,
      "duration": 0.0966,
      "velocity": 101,
      "chip": "ym2612"
    },
    {
      "channel": 2,
      "note": 50,
      "start": 10.4064,
      "duration": 0.161,
      "velocity": 119,
      "chip": "ym2612"
    },
    {
      "channel": 3,
      "note": 74,
      "start": 10.4065,
      "duration": 0.161,
      "velocity": 91,
      "chip": "ym2612"
    },
    {
      "channel": 4,
      "note": 85,
      "start": 10.4066,
      "duration": 0.0273,
      "velocity": 114,
      "chip": "ym2612"
    },
    {
      "channel": 5,
      "note": 55,
      "start": 10.4066,
      "duration": 0.144,
      "velocity": 127,
      "chip": "ym2612"
    },
    {
      "channel": 5,
      "note": 36,
      "start": 10.6041,
      "duration": 0.0965,
      "velocity": 101,
      "chip": "ym2612"
    },
    {
      "channel": 2,
      "note": 45,
      "start": 10.8057,
      "duration": 0.1617,
      "velocity": 119,
      "chip": "ym2612"
    },
    {
      "channel": 3,
      "note": 69,
      "start": 10.8057,
      "duration": 0.1617,
      "velocity": 91,
      "chip": "ym2612"
    },
    {
      "channel": 4,
      "note": 85,
      "start": 10.8058,
      "duration": 0.0281,
      "velocity": 114,
      "chip": "ym2612"
    },
    {
      "channel": 5,
      "note": 55,
      "start": 10.8059,
      "duration": 0.1448,
      "velocity": 127,
      "chip": "ym2612"
    },
    {
      "channel": 2,
      "note": 47,
      "start": 11.0056,
      "duration": 0.3617,
      "velocity": 119,
      "chip": "ym2612"
    },
    {
      "channel": 3,
      "note": 71,
      "start": 11.0056,
      "duration": 0.545,
      "velocity": 91,
      "chip": "ym2612"
    },
    {
      "channel": 5,
      "note": 36,
      "start": 11.0057,
      "duration": 0.0949,
      "velocity": 101,
      "chip": "ym2612"
    },
    {
      "channel": 4,
      "note": 85,
      "start": 11.2075,
      "duration": 0.0264,
      "velocity": 114,
      "chip": "ym2612"
    },
    {
      "channel": 5,
      "note": 36,
      "start": 11.2076,
      "duration": 0.0932,
      "velocity": 101,
      "chip": "ym2612"
    },
    {
      "channel": 2,
      "note": 47,
      "start": 11.4045,
      "duration": 0.0795,
      "velocity": 119,
      "chip": "ym2612"
    },
    {
      "channel": 5,
      "note": 55,
      "start": 11.4046,
      "duration": 0.0972,
      "velocity": 127,
      "chip": "ym2612"
    },
    {
      "channel": 2,
      "note": 47,
      "start": 11.5017,
      "duration": 0.0822,
      "velocity": 119,
      "chip": "ym2612"
    },
    {
      "channel": 5,
      "note": 55,
      "start": 11.5019,
      "duration": 0.1011,
      "velocity": 127,
      "chip": "ym2612"
    },
    {
      "channel": 2,
      "note": 47,
      "start": 11.6028,
      "duration": 0.1644,
      "velocity": 119,
      "chip": "ym2612"
    },
    {
      "channel": 4,
      "note": 85,
      "start": 11.6029,
      "duration": 0.031,
      "velocity": 114,
      "chip": "ym2612"
    },
    {
      "channel": 5,
      "note": 55,
      "start": 11.603,
      "duration": 0.098,
      "velocity": 127,
      "chip": "ym2612"
    },
    {
      "channel": 5,
      "note": 36,
      "start": 11.804,
      "duration": 0.0966,
      "velocity": 101,
      "chip": "ym2612"
    },
    {
      "channel": 2,
      "note": 52,
      "start": 12.0065,
      "duration": 0.3441,
      "velocity": 119,
      "chip": "ym2612"
    },
    {
      "channel": 3,
      "note": 40,
      "start": 12.0066,
      "duration": 0.3441,
      "velocity": 91,
      "chip": "ym2612"
    },
    {
      "channel": 4,
      "note": 85,
      "start": 12.0066,
      "duration": 0.0273,
      "velocity": 114,
      "chip": "ym2612"
    },
    {
      "channel": 5,
      "note": 55,
      "start": 12.0067,
      "duration": 0.1439,
      "velocity": 127,
      "chip": "ym2612"
    },
    {
      "channel": 5,
      "note": 36,
      "start": 12.2038,
      "duration": 0.0968,
      "velocity": 101,
      "chip": "ym2612"
    },
    {
      "channel": 2,
      "note": 50,
      "start": 12.4058,
      "duration": 0.3449,
      "velocity": 119,
      "chip": "ym2612"
    },
    {
      "channel": 3,
      "note": 38,
      "start": 12.4059,
      "duration": 0.3449,
      "velocity": 91,
      "chip": "ym2612"
    },
    {
      "channel": 4,
      "note": 85,
      "start": 12.4059,
      "duration": 0.028,
      "velocity": 114,
      "chip": "ym2612"
    },
    {
      "channel": 5,
      "note": 55,
      "start": 12.4059,
      "duration": 0.0954,
      "velocity": 127,
      "chip": "ym2612"
    },
    {
      "channel": 5,
      "note": 55,
      "start": 12.5014,
      "duration": 0.1024,
      "velocity": 101,
      "chip": "ym2612"
    },
    {
      "channel": 5,
      "note": 36,
      "start": 12.6039,
      "duration": 0.0967,
      "velocity": 101,
      "chip": "ym2612"
    },
    {
      "channel": 0,
      "note": 59,
      "start": 12.8108,
      "duration": 0.1957,
      "velocity": 91,
      "chip": "ym2612"
    },
    {
      "channel": 1,
      "note": 59,
      "start": 12.811,
      "duration": 1.5967,
      "velocity": 78,
      "chip": "ym2612"
    },
    {
      "channel": 2,
      "note": 47,
      "start": 12.811,
      "duration": 0.1563,
      "velocity": 119,
      "chip": "ym2612"
    },
    {
      "channel": 3,
      "note": 59,
      "start": 12.8111,
      "duration": 0.1563,
      "velocity": 91,
      "chip": "ym2612"
    },
    {
      "channel": 4,
      "note": 85,
      "start": 12.8112,
      "duration": 0.0228,
      "velocity": 114,
      "chip": "ym2612"
    },
    {
      "channel": 5,
      "note": 36,
      "start": 12.8112,
      "duration": 0.0896,
      "velocity": 101,
      "chip": "ym2612"
    },
    {
      "channel": 0,
      "note": 58,
      "start": 13.0066,
      "duration": 0.2001,
      "velocity": 91,
      "chip": "ym2612"
    },
    {
      "channel": 2,
      "note": 47,
      "start": 13.0066,
      "duration": 0.0773,
      "velocity": 119,
      "chip": "ym2612"
    },
    {
      "channel": 3,
      "note": 59,
      "start": 13.0067,
      "duration": 0.0773,
      "velocity": 91,
      "chip": "ym2612"
    },
    {
      "channel": 5,
      "note": 55,
      "start": 13.0068,
      "duration": 0.1439,
      "velocity": 127,
      "chip": "ym2612"
    },
    {
      "channel": 2,
      "note": 47,
      "start": 13.1019,
      "duration": 0.0821,
      "velocity": 119,
      "chip": "ym2612"
    },
    {
      "channel": 3,
      "note": 59,
      "start": 13.102,
      "duration": 0.0821,
      "velocity": 91,
      "chip": "ym2612"
    },
    {
      "channel": 0,
      "note": 59,
      "start": 13.2067,
      "duration": 0.1993,
      "velocity": 91,
      "chip": "ym2612"
    },
    {
      "channel": 2,
      "note": 47,
      "start": 13.2068,
      "duration": 0.1605,
      "velocity": 119,
      "chip": "ym2612"
    },
    {
      "channel": 3,
      "note": 59,
      "start": 13.2068,
      "duration": 0.0771,
      "velocity": 91,
      "chip": "ym2612"
    },
    {
      "channel": 4,
      "note": 85,
      "start": 13.2069,
      "duration": 0.027,
      "velocity": 114,
      "chip": "ym2612"
    },
    {
      "channel": 5,
      "note": 36,
      "start": 13.207,
      "duration": 0.0954,
      "velocity": 101,
      "chip": "ym2612"
    },
    {
      "channel": 3,
      "note": 59,
      "start": 13.3022,
      "duration": 0.0817,
      "velocity": 91,
      "chip": "ym2612"
    },
    {
      "channel": 5,
      "note": 36,
      "start": 13.3024,
      "duration": 0.1039,
      "velocity": 127,
      "chip": "ym2612"
    },
    {
      "channel": 0,
      "note": 61,
      "start": 13.4061,
      "duration": 0.2014,
      "velocity": 91,
      "chip": "ym2612"
    },
    {
      "channel": 2,
      "note": 47,
      "start": 13.4061,
      "duration": 0.0779,
      "velocity": 119,
      "chip": "ym2612"
    },
    {
      "channel": 3,
      "note": 59,
      "start": 13.4062,
      "duration": 0.0779,
      "velocity": 91,
      "chip": "ym2612"
    },
    {
      "channel": 5,
      "note": 55,
      "start": 13.4063,
      "duration": 0.1443,
      "velocity": 127,
      "chip": "ym2612"
    },
    {
      "channel": 2,
      "note": 47,
      "start": 13.5019,
      "duration": 0.0821,
      "velocity": 119,
      "chip": "ym2612"
    },
    {
      "channel": 3,
      "note": 59,
      "start": 13.502,
      "duration": 0.0821,
      "velocity": 91,
      "chip": "ym2612"
    },
    {
      "channel": 0,
      "note": 62,
      "start": 13.6075,
      "duration": 0.198,
      "velocity": 91,
      "chip": "ym2612"
    },
    {
      "channel": 2,
      "note": 50,
      "start": 13.6077,
      "duration": 0.1597,
      "velocity": 119,
      "chip": "ym2612"
    },
    {
      "channel": 3,
      "note": 62,
      "start": 13.6077,
      "duration": 0.1597,
      "velocity": 91,
      "chip": "ym2612"
    },
    {
      "channel": 4,
      "note": 85,
      "start": 13.6078,
      "duration": 0.0261,
      "velocity": 114,
      "chip": "ym2612"
    },
    {
      "channel": 5,
      "note": 36,
      "start": 13.6078,
      "duration": 0.093,
      "velocity": 101,
      "chip": "ym2612"
    },
    {
      "channel": 0,
      "note": 59,
      "start": 13.8056,
      "duration": 0.2002,
      "velocity": 91,
      "chip": "ym2612"
    },
    {
      "channel": 2,
      "note": 47,
      "start": 13.8057,
      "duration": 0.1617,
      "velocity": 119,
      "chip": "ym2612"
    },
    {
      "channel": 3,
      "note": 59,
      "start": 13.8057,
      "duration": 0.1617,
      "velocity": 91,
      "chip": "ym2612"
    },
    {
      "channel": 5,
      "note": 55,
      "start": 13.8058,
      "duration": 0.1449,
      "velocity": 127,
      "chip": "ym2612"
    },
    {
      "channel": 2,
      "note": 45,
      "start": 14.0059,
      "duration": 0.1614,
      "velocity": 119,
      "chip": "ym2612"
    },
    {
      "channel": 3,
      "note": 57,
      "start": 14.006,
      "duration": 0.1614,
      "velocity": 91,
      "chip": "ym2612"
    },
    {
      "channel": 4,
      "note": 85,
      "start": 14.0061,
      "duration": 0.0279,
      "velocity": 114,
      "chip": "ym2612"
    },
    {
      "channel": 5,
      "note": 36,
      "start": 14.0061,
      "duration": 0.0952,
      "velocity": 101,
      "chip": "ym2612"
    },
    {
      "channel": 5,
      "note": 36,
      "start": 14.1014,
      "duration": 0.1045,
      "velocity": 127,
      "chip": "ym2612"
    },
    {
      "channel": 2,
      "note": 47,
      "start": 14.2058,
      "duration": 0.3616,
      "velocity": 119,
      "chip": "ym2612"
    },
    {
      "channel": 3,
      "note": 59,
      "start": 14.2059,
      "duration": 0.3616,
      "velocity": 91,
      "chip": "ym2612"
    },
    {
      "channel": 5,
      "note": 55,
      "start": 14.206,
      "duration": 0.1446,
      "velocity": 127,
      "chip": "ym2612"
    },
    {
      "channel": 0,
      "note": 57,
      "start": 14.4076,
      "duration": 0.3996,
      "velocity": 91,
      "chip": "ym2612"
    },
    {
      "channel": 1,
      "note": 57,
      "start": 14.4077,
      "duration": 1.6009,
      "velocity": 78,
      "chip": "ym2612"
    },
    {
      "channel": 4,
      "note": 85,
      "start": 14.4078,
      "duration": 0.0262,
      "velocity": 114,
      "chip": "ym2612"
    },
    {
      "channel": 5,
      "note": 55,
      "start": 14.4078,
      "duration": 0.1428,
      "velocity": 127,
      "chip": "ym2612"
    },
    {
      "channel": 2,
      "note": 47,
      "start": 14.6041,
      "duration": 0.0798,
      "velocity": 119,
      "chip": "ym2612"
    },
    {
      "channel": 3,
      "note": 59,
      "start": 14.6042,
      "duration": 0.0798,
      "velocity": 91,
      "chip": "ym2612"
    },
    {
      "channel": 5,
      "note": 55,
      "start": 14.6043,
      "duration": 0.0985,
      "velocity": 127,
      "chip": "ym2612"
    },
    {
      "channel": 2,
      "note": 47,
      "start": 14.7026,
      "duration": 0.0814,
      "velocity": 119,
      "chip": "ym2612"
    },
    {
      "channel": 3,
      "note": 59,
      "start": 14.7027,
      "duration": 0.0814,
      "velocity": 91,
      "chip": "ym2612"
    },
    {
      "channel": 5,
      "note": 55,
      "start": 14.7028,
      "duration": 0.1047,
      "velocity": 127,
      "chip": "ym2612"
    },
    {
      "channel": 0,
      "note": 57,
      "start": 14.8073,
      "duration": 0.1961,
      "velocity": 91,
      "chip": "ym2612"
    },
    {
      "channel": 2,
      "note": 47,
      "start": 14.8074,
      "duration": 0.1599,
      "velocity": 119,
      "chip": "ym2612"
    },
    {
      "channel": 3,
      "note": 59,
      "start": 14.8075,
      "duration": 0.0765,
      "velocity": 91,
      "chip": "ym2612"
    },
    {
      "channel": 4,
      "note": 85,
      "start": 14.8075,
      "duration": 0.0264,
      "velocity": 114,
      "chip": "ym2612"
    },
    {
      "channel": 5,
      "note": 55,
      "start": 14.8076,
      "duration": 0.1431,
      "velocity": 127,
      "chip": "ym2612"
    },
    {
      "channel": 3,
      "note": 59,
      "start": 14.9015,
      "duration": 0.0824,
      "velocity": 91,
      "chip": "ym2612"
    },
    {
      "channel": 0,
      "note": 57,
      "start": 15.0034,
      "duration": 0.3996,
      "velocity": 91,
      "chip": "ym2612"
    },
    {
      "channel": 2,
      "note": 47,
      "start": 15.0035,
      "duration": 0.0805,
      "velocity": 119,
      "chip": "ym2612"
    },
    {
      "channel": 3,
      "note": 59,
      "start": 15.0036,
      "duration": 0.0805,
      "velocity": 91,
      "chip": "ym2612"
    },
    {
      "channel": 5,
      "note": 55,
      "start": 15.0037,
      "duration": 0.0991,
      "velocity": 127,
      "chip": "ym2612"
    },
    {
      "channel": 2,
      "note": 47,
      "start": 15.1026,
      "duration": 0.0814,
      "velocity": 119,
      "chip": "ym2612"
    },
    {
      "channel": 3,
      "note": 59,
      "start": 15.1027,
      "duration": 0.0814,
      "velocity": 91,
      "chip": "ym2612"
    },
    {
      "channel": 5,
      "note": 55,
      "start": 15.1028,
      "duration": 0.1025,
      "velocity": 127,
      "chip": "ym2612"
    },
    {
      "channel": 2,
      "note": 52,
      "start": 15.2051,
      "duration": 0.1623,
      "velocity": 119,
      "chip": "ym2612"
    },
    {
      "channel": 3,
      "note": 64,
      "start": 15.2052,
      "duration": 0.1623,
      "velocity": 91,
      "chip": "ym2612"
    },
    {
      "channel": 4,
      "note": 85,
      "start": 15.2052,
      "duration": 0.0287,
      "velocity": 114,
      "chip": "ym2612"
    },
    {
      "channel": 5,
      "note": 55,
      "start": 15.2054,
      "duration": 0.198,
      "velocity": 127,
      "chip": "ym2612"
    },
    {
      "channel": 0,
      "note": 57,
      "start": 15.4031,
      "duration": 0.2007,
      "velocity": 91,
      "chip": "ym2612"
    },
    {
      "channel": 2,
      "note": 50,
      "start": 15.4032,
      "duration": 0.1642,
      "velocity": 119,
      "chip": "ym2612"
    },
    {
      "channel": 3,
      "note": 62,
      "start": 15.4033,
      "duration": 0.1642,
      "velocity": 91,
      "chip": "ym2612"
    },
    {
      "channel": 5,
      "note": 55,
      "start": 15.4033,
      "duration": 0.2008,
      "velocity": 127,
      "chip": "ym2612"
    },
    {
      "channel": 0,
      "note": 57,
      "start": 15.6038,
      "duration": 0.4047,
      "velocity": 91,
      "chip": "ym2612"
    },
    {
      "channel": 2,
      "note": 47,
      "start": 15.604,
      "duration": 0.1634,
      "velocity": 119,
      "chip": "ym2612"
    },
    {
      "channel": 3,
      "note": 64,
      "start": 15.604,
      "duration": 0.1634,
      "velocity": 91,
      "chip": "ym2612"
    },
    {
      "channel": 4,
      "note": 85,
      "start": 15.6041,
      "duration": 0.0298,
      "velocity": 114,
      "chip": "ym2612"
    },
    {
      "channel": 5,
      "note": 55,
      "start": 15.6041,
      "duration": 0.1984,
      "velocity": 127,
      "chip": "ym2612"
    },
    {
      "channel": 2,
      "note": 45,
      "start": 15.8024,
      "duration": 0.1649,
      "velocity": 119,
      "chip": "ym2612"
    },
    {
      "channel": 3,
      "note": 66,
      "start": 15.8025,
      "duration": 0.3649,
      "velocity": 91,
      "chip": "ym2612"
    },
    {
      "channel": 5,
      "note": 55,
      "start": 15.8026,
      "duration": 0.2062,
      "velocity": 101,
      "chip": "ym2612"
    },
    {
      "channel": 0,
      "note": 59,
      "start": 16.0085,
      "duration": 0.198,
      "velocity": 91,
      "chip": "ym2612"
    },
    {
      "channel": 1,
      "note": 59,
      "start": 16.0087,
      "duration": 1.599,
      "velocity": 78,
      "chip": "ym2612"
    },
    {
      "channel": 2,
      "note": 47,
      "start": 16.0087,
      "duration": 0.1586,
      "velocity": 119,
      "chip": "ym2612"
    },
    {
      "channel": 4,
      "note": 85,
      "start": 16.0088,
      "duration": 0.0251,
      "velocity": 114,
      "chip": "ym2612"
    },
    {
      "channel": 5,
      "note": 36,
      "start": 16.0089,
      "duration": 0.0919,
      "velocity": 101,
      "chip": "ym2612"
    },
    {
      "channel": 0,
      "note": 58,
      "start": 16.2066,
      "duration": 0.2001,
      "velocity": 91,
      "chip": "ym2612"
    },
    {
      "channel": 2,
      "note": 47,
      "start": 16.2066,
      "duration": 0.0773,
      "velocity": 119,
      "chip": "ym2612"
    },
    {
      "channel": 3,
      "note": 59,
      "start": 16.2067,
      "duration": 0.0773,
      "velocity": 91,
      "chip": "ym2612"
    },
    {
      "channel": 5,
      "note": 55,
      "start": 16.2068,
      "duration": 0.1439,
      "velocity": 127,
      "chip": "ym2612"
    },
    {
      "channel": 2,
      "note": 47,
      "start": 16.3019,
      "duration": 0.0821,
      "velocity": 119,
      "chip": "ym2612"
    },
    {
      "channel": 3,
      "note": 59,
      "start": 16.302,
      "duration": 0.0821,
      "velocity": 91,
      "chip": "ym2612"
    },
    {
      "channel": 0,
      "note": 59,
      "start": 16.4067,
      "duration": 0.1993,
      "velocity": 91,
      "chip": "ym2612"
    },
    {
      "channel": 2,
      "note": 47,
      "start": 16.4068,
      "duration": 0.1605,
      "velocity": 119,
      "chip": "ym2612"
    },
    {
      "channel": 3,
      "note": 59,
      "start": 16.4068,
      "duration": 0.0771,
      "velocity": 91,
      "chip": "ym2612"
    },
    {
      "channel": 4,
      "note": 85,
      "start": 16.4069,
      "duration": 0.027,
      "velocity": 114,
      "chip": "ym2612"
    },
    {
      "channel": 5,
      "note": 36,
      "start": 16.407,
      "duration": 0.0954,
      "velocity": 101,
      "chip": "ym2612"
    },
    {
      "channel": 3,
      "note": 59,
      "start": 16.5022,
      "duration": 0.0817,
      "velocity": 91,
      "chip": "ym2612"
    },
    {
      "channel": 5,
      "note": 36,
      "start": 16.5024,
      "duration": 0.1039,
      "velocity": 127,
      "chip": "ym2612"
    },
    {
      "channel": 0,
      "note": 61,
      "start": 16.6061,
      "duration": 0.2022,
      "velocity": 91,
      "chip": "ym2612"
    },
    {
      "channel": 2,
      "note": 47,
      "start": 16.6061,
      "duration": 0.0779,
      "velocity": 119,
      "chip": "ym2612"
    },
    {
      "channel": 3,
      "note": 59,
      "start": 16.6062,
      "duration": 0.0779,
      "velocity": 91,
      "chip": "ym2612"
    },
    {
      "channel": 5,
      "note": 55,
      "start": 16.6063,
      "duration": 0.1443,
      "velocity": 127,
      "chip": "ym2612"
    },
    {
      "channel": 2,
      "note": 47,
      "start": 16.7019,
      "duration": 0.0821,
      "velocity": 119,
      "chip": "ym2612"
    },
    {
      "channel": 3,
      "note": 59,
      "start": 16.702,
      "duration": 0.0821,
      "velocity": 91,
      "chip": "ym2612"
    },
    {
      "channel": 0,
      "note": 62,
      "start": 16.8083,
      "duration": 0.1973,
      "velocity": 91,
      "chip": "ym2612"
    },
    {
      "channel": 2,
      "note": 50,
      "start": 16.8084,
      "duration": 0.1589,
      "velocity": 119,
      "chip": "ym2612"
    },
    {
      "channel": 3,
      "note": 62,
      "start": 16.8085,
      "duration": 0.1589,
      "velocity": 91,
      "chip": "ym2612"
    },
    {
      "channel": 4,
      "note": 85,
      "start": 16.8085,
      "duration": 0.0254,
      "velocity": 114,
      "chip": "ym2612"
    },
    {
      "channel": 5,
      "note": 36,
      "start": 16.8085,
      "duration": 0.0922,
      "velocity": 101,
      "chip": "ym2612"
    },
    {
      "channel": 0,
      "note": 59,
      "start": 17.0056,
      "duration": 0.2002,
      "velocity": 91,
      "chip": "ym2612"
    },
    {
      "channel": 2,
      "note": 47,
      "start": 17.0057,
      "duration": 0.1617,
      "velocity": 119,
      "chip": "ym2612"
    },
    {
      "channel": 3,
      "note": 59,
      "start": 17.0057,
      "duration": 0.1617,
      "velocity": 91,
      "chip": "ym2612"
    },
    {
      "channel": 5,
      "note": 55,
      "start": 17.0058,
      "duration": 0.1449,
      "velocity": 127,
      "chip": "ym2612"
    },
    {
      "channel": 2,
      "note": 45,
      "start": 17.2059,
      "duration": 0.1614,
      "velocity": 119,
      "chip": "ym2612"
    },
    {
      "channel": 3,
      "note": 57,
      "start": 17.206,
      "duration": 0.1614,
      "velocity": 91,
      "chip": "ym2612"
    },
    {
      "channel": 4,
      "note": 85,
      "start": 17.2061,
      "duration": 0.0279,
      "velocity": 114,
      "chip": "ym2612"
    },
    {
      "channel": 5,
      "note": 36,
      "start": 17.2061,
      "duration": 0.0952,
      "velocity": 101,
      "chip": "ym2612"
    },
    {
      "channel": 5,
      "note": 36,
      "start": 17.3014,
      "duration": 0.1037,
      "velocity": 127,
      "chip": "ym2612"
    },
    {
      "channel": 2,
      "note": 47,
      "start": 17.4051,
      "duration": 0.3623,
      "velocity": 119,
      "chip": "ym2612"
    },
    {
      "channel": 3,
      "note": 59,
      "start": 17.4051,
      "duration": 0.3624,
      "velocity": 91,
      "chip": "ym2612"
    },
    {
      "channel": 5,
      "note": 55,
      "start": 17.4052,
      "duration": 0.1454,
      "velocity": 127,
      "chip": "ym2612"
    },
    {
      "channel": 0,
      "note": 54,
      "start": 17.6077,
      "duration": 0.1971,
      "velocity": 91,
      "chip": "ym2612"
    },
    {
      "channel": 1,
      "note": 57,
      "start": 17.6078,
      "duration": 1.6008,
      "velocity": 78,
      "chip": "ym2612"
    },
    {
      "channel": 4,
      "note": 85,
      "start": 17.6078,
      "duration": 0.0261,
      "velocity": 114,
      "chip": "ym2612"
    },
    {
      "channel": 5,
      "note": 55,
      "start": 17.6079,
      "duration": 0.1427,
      "velocity": 127,
      "chip": "ym2612"
    },
    {
      "channel": 0,
      "note": 54,
      "start": 17.8048,
      "duration": 0.3986,
      "velocity": 91,
      "chip": "ym2612"
    },
    {
      "channel": 2,
      "note": 47,
      "start": 17.8049,
      "duration": 0.0791,
      "velocity": 119,
      "chip": "ym2612"
    },
    {
      "channel": 3,
      "note": 59,
      "start": 17.8049,
      "duration": 0.0791,
      "velocity": 91,
      "chip": "ym2612"
    },
    {
      "channel": 5,
      "note": 55,
      "start": 17.805,
      "duration": 0.0978,
      "velocity": 127,
      "chip": "ym2612"
    },
    {
      "channel": 2,
      "note": 47,
      "start": 17.9026,
      "duration": 0.0814,
      "velocity": 119,
      "chip": "ym2612"
    },
    {
      "channel": 3,
      "note": 59,
      "start": 17.9027,
      "duration": 0.0814,
      "velocity": 91,
      "chip": "ym2612"
    },
    {
      "channel": 5,
      "note": 55,
      "start": 17.9028,
      "duration": 0.1039,
      "velocity": 127,
      "chip": "ym2612"
    },
    {
      "channel": 2,
      "note": 47,
      "start": 18.0066,
      "duration": 0.1607,
      "velocity": 119,
      "chip": "ym2612"
    },
    {
      "channel": 3,
      "note": 59,
      "start": 18.0066,
      "duration": 0.0772,
      "velocity": 91,
      "chip": "ym2612"
    },
    {
      "channel": 4,
      "note": 85,
      "start": 18.0067,
      "duration": 0.0272,
      "velocity": 114,
      "chip": "ym2612"
    },
    {
      "channel": 5,
      "note": 55,
      "start": 18.0068,
      "duration": 0.1438,
      "velocity": 127,
      "chip": "ym2612"
    },
    {
      "channel": 3,
      "note": 59,
      "start": 18.1015,
      "duration": 0.0824,
      "velocity": 91,
      "chip": "ym2612"
    },
    {
      "channel": 0,
      "note": 54,
      "start": 18.2034,
      "duration": 0.2024,
      "velocity": 91,
      "chip": "ym2612"
    },
    {
      "channel": 2,
      "note": 47,
      "start": 18.2035,
      "duration": 0.0804,
      "velocity": 119,
      "chip": "ym2612"
    },
    {
      "channel": 3,
      "note": 59,
      "start": 18.2036,
      "duration": 0.0804,
      "velocity": 91,
      "chip": "ym2612"
    },
    {
      "channel": 5,
      "note": 55,
      "start": 18.2037,
      "duration": 0.0991,
      "velocity": 127,
      "chip": "ym2612"
    },
    {
      "channel": 2,
      "note": 47,
      "start": 18.3026,
      "duration": 0.0814,
      "velocity": 119,
      "chip": "ym2612"
    },
    {
      "channel": 3,
      "note": 59,
      "start": 18.3027,
      "duration": 0.0814,
      "velocity": 91,
      "chip": "ym2612"
    },
    {
      "channel": 5,
      "note": 55,
      "start": 18.3028,
      "duration": 0.1032,
      "velocity": 127,
      "chip": "ym2612"
    },
    {
      "channel": 0,
      "note": 54,
      "start": 18.4058,
      "duration": 0.398,
      "velocity": 91,
      "chip": "ym2612"
    },
    {
      "channel": 2,
      "note": 52,
      "start": 18.4059,
      "duration": 0.1613,
      "velocity": 119,
      "chip": "ym2612"
    },
    {
      "channel": 3,
      "note": 55,
      "start": 18.406,
      "duration": 0.3446,
      "velocity": 91,
      "chip": "ym2612"
    },
    {
      "channel": 4,
      "note": 85,
      "start": 18.4061,
      "duration": 0.0279,
      "velocity": 114,
      "chip": "ym2612"
    },
    {
      "channel": 5,
      "note": 55,
      "start": 18.4061,
      "duration": 0.1958,
      "velocity": 127,
      "chip": "ym2612"
    },
    {
      "channel": 2,
      "note": 50,
      "start": 18.6019,
      "duration": 0.1654,
      "velocity": 119,
      "chip": "ym2612"
    },
    {
      "channel": 5,
      "note": 55,
      "start": 18.602,
      "duration": 0.2022,
      "velocity": 127,
      "chip": "ym2612"
    },
    {
      "channel": 0,
      "note": 54,
      "start": 18.8039,
      "duration": 0.4046,
      "velocity": 91,
      "chip": "ym2612"
    },
    {
      "channel": 2,
      "note": 47,
      "start": 18.804,
      "duration": 0.1633,
      "velocity": 119,
      "chip": "ym2612"
    },
    {
      "channel": 3,
      "note": 57,
      "start": 18.804,
      "duration": 0.3466,
      "velocity": 91,
      "chip": "ym2612"
    },
    {
      "channel": 4,
      "note": 85,
      "start": 18.8041,
      "duration": 0.0298,
      "velocity": 114,
      "chip": "ym2612"
    },
    {
      "channel": 5,
      "note": 55,
      "start": 18.8042,
      "duration": 0.1977,
      "velocity": 127,
      "chip": "ym2612"
    },
    {
      "channel": 2,
      "note": 45,
      "start": 19.0019,
      "duration": 0.1654,
      "velocity": 119,
      "chip": "ym2612"
    },
    {
      "channel": 5,
      "note": 55,
      "start": 19.002,
      "duration": 0.2069,
      "velocity": 101,
      "chip": "ym2612"
    },
    {
      "channel": 0,
      "note": 54,
      "start": 19.2085,
      "duration": 0.0927,
      "velocity": 91,
      "chip": "ym2612"
    },
    {
      "channel": 1,
      "note": 54,
      "start": 19.2087,
      "duration": 1.5997,
      "velocity": 78,
      "chip": "ym2612"
    },
    {
      "channel": 2,
      "note": 42,
      "start": 19.2087,
      "duration": 0.1586,
      "velocity": 119,
      "chip": "ym2612"
    },
    {
      "channel": 3,
      "note": 54,
      "start": 19.2088,
      "duration": 0.1586,
      "velocity": 91,
      "chip": "ym2612"
    },
    {
      "channel": 4,
      "note": 85,
      "start": 19.2089,
      "duration": 0.025,
      "velocity": 114,
      "chip": "ym2612"
    },
    {
      "channel": 5,
      "note": 36,
      "start": 19.2089,
      "duration": 0.0926,
      "velocity": 101,
      "chip": "ym2612"
    },
    {
      "channel": 0,
      "note": 53,
      "start": 19.3014,
      "duration": 0.1059,
      "velocity": 91,
      "chip": "ym2612"
    },
    {
      "channel": 0,
      "note": 54,
      "start": 19.4073,
      "duration": 0.0952,
      "velocity": 91,
      "chip": "ym2612"
    },
    {
      "channel": 2,
      "note": 42,
      "start": 19.4075,
      "duration": 0.0765,
      "velocity": 119,
      "chip": "ym2612"
    },
    {
      "channel": 3,
      "note": 54,
      "start": 19.4075,
      "duration": 0.0765,
      "velocity": 91,
      "chip": "ym2612"
    },
    {
      "channel": 5,
      "note": 55,
      "start": 19.4076,
      "duration": 0.143,
      "velocity": 127,
      "chip": "ym2612"
    },
    {
      "channel": 0,
      "note": 55,
      "start": 19.5026,
      "duration": 0.1052,
      "velocity": 91,
      "chip": "ym2612"
    },
    {
      "channel": 2,
      "note": 42,
      "start": 19.5027,
      "duration": 0.0812,
      "velocity": 119,
      "chip": "ym2612"
    },
    {
      "channel": 3,
      "note": 54,
      "start": 19.5028,
      "duration": 0.0812,
      "velocity": 91,
      "chip": "ym2612"
    },
    {
      "channel": 0,
      "note": 57,
      "start": 19.6079,
      "duration": 0.1988,
      "velocity": 91,
      "chip": "ym2612"
    },
    {
      "channel": 2,
      "note": 42,
      "start": 19.608,
      "duration": 0.1592,
      "velocity": 119,
      "chip": "ym2612"
    },
    {
      "channel": 3,
      "note": 54,
      "start": 19.608,
      "duration": 0.0758,
      "velocity": 91,
      "chip": "ym2612"
    },
    {
      "channel": 4,
      "note": 85,
      "start": 19.6081,
      "duration": 0.0258,
      "velocity": 114,
      "chip": "ym2612"
    },
    {
      "channel": 5,
      "note": 36,
      "start": 19.6082,
      "duration": 0.0941,
      "velocity": 101,
      "chip": "ym2612"
    },
    {
      "channel": 3,
      "note": 54,
      "start": 19.7022,
      "duration": 0.0816,
      "velocity": 91,
      "chip": "ym2612"
    },
    {
      "channel": 5,
      "note": 36,
      "start": 19.7024,
      "duration": 0.1047,
      "velocity": 127,
      "chip": "ym2612"
    },
    {
      "channel": 0,
      "note": 57,
      "start": 19.8068,
      "duration": 0.2012,
      "velocity": 91,
      "chip": "ym2612"
    },
    {
      "channel": 2,
      "note": 42,
      "start": 19.807,
      "duration": 0.077,
      "velocity": 119,
      "chip": "ym2612"
    },
    {
      "channel": 3,
      "note": 54,
      "start": 19.807,
      "duration": 0.077,
      "velocity": 91,
      "chip": "ym2612"
    },
    {
      "channel": 5,
      "note": 55,
      "start": 19.8071,
      "duration": 0.1435,
      "velocity": 127,
      "chip": "ym2612"
    },
    {
      "channel": 2,
      "note": 42,
      "start": 19.902,
      "duration": 0.0819,
      "velocity": 119,
      "chip": "ym2612"
    },
    {
      "channel": 3,
      "note": 54,
      "start": 19.9021,
      "duration": 0.0819,
      "velocity": 91,
      "chip": "ym2612"
    },
    {
      "channel": 0,
      "note": 62,
      "start": 20.0081,
      "duration": 0.1986,
      "velocity": 91,
      "chip": "ym2612"
    },
    {
      "channel": 2,
      "note": 42,
      "start": 20.0082,
      "duration": 0.159,
      "velocity": 119,
      "chip": "ym2612"
    },
    {
      "channel": 3,
      "note": 54,
      "start": 20.0083,
      "duration": 0.0756,
      "velocity": 91,
      "chip": "ym2612"
    },
    {
      "channel": 4,
      "note": 85,
      "start": 20.0083,
      "duration": 0.0255,
      "velocity": 114,
      "chip": "ym2612"
    },
    {
      "channel": 5,
      "note": 36,
      "start": 20.0083,
      "duration": 0.0934,
      "velocity": 101,
      "chip": "ym2612"
    },
    {
      "channel": 3,
      "note": 54,
      "start": 20.1017,
      "duration": 0.0822,
      "velocity": 91,
      "chip": "ym2612"
    },
    {
      "channel": 0,
      "note": 62,
      "start": 20.2068,
      "duration": 0.201,
      "velocity": 91,
      "chip": "ym2612"
    },
    {
      "channel": 2,
      "note": 42,
      "start": 20.2068,
      "duration": 0.0771,
      "velocity": 119,
      "chip": "ym2612"
    },
    {
      "channel": 3,
      "note": 54,
      "start": 20.2069,
      "duration": 0.0771,
      "velocity": 91,
      "chip": "ym2612"
    },
    {
      "channel": 5,
      "note": 55,
      "start": 20.207,
      "duration": 0.1436,
      "velocity": 127,
      "chip": "ym2612"
    },
    {
      "channel": 2,
      "note": 42,
      "start": 20.302,
      "duration": 0.0819,
      "velocity": 119,
      "chip": "ym2612"
    },
    {
      "channel": 3,
      "note": 54,
      "start": 20.3021,
      "duration": 0.0819,
      "velocity": 91,
      "chip": "ym2612"
    },
    {
      "channel": 0,
      "note": 61,
      "start": 20.4078,
      "duration": 0.1995,
      "velocity": 91,
      "chip": "ym2612"
    },
    {
      "channel": 2,
      "note": 42,
      "start": 20.4079,
      "duration": 0.1593,
      "velocity": 119,
      "chip": "ym2612"
    },
    {
      "channel": 3,
      "note": 54,
      "start": 20.408,
      "duration": 0.0759,
      "velocity": 91,
      "chip": "ym2612"
    },
    {
      "channel": 4,
      "note": 85,
      "start": 20.408,
      "duration": 0.0258,
      "velocity": 114,
      "chip": "ym2612"
    },
    {
      "channel": 5,
      "note": 36,
      "start": 20.4081,
      "duration": 0.0942,
      "velocity": 101,
      "chip": "ym2612"
    },
    {
      "channel": 3,
      "note": 54,
      "start": 20.5022,
      "duration": 0.0816,
      "velocity": 91,
      "chip": "ym2612"
    },
    {
      "channel": 5,
      "note": 36,
      "start": 20.5024,
      "duration": 0.1053,
      "velocity": 127,
      "chip": "ym2612"
    },
    {
      "channel": 0,
      "note": 57,
      "start": 20.6075,
      "duration": 0.2008,
      "velocity": 91,
      "chip": "ym2612"
    },
    {
      "channel": 2,
      "note": 42,
      "start": 20.6075,
      "duration": 0.0764,
      "velocity": 119,
      "chip": "ym2612"
    },
    {
      "channel": 3,
      "note": 52,
      "start": 20.6076,
      "duration": 0.0764,
      "velocity": 91,
      "chip": "ym2612"
    },
    {
      "channel": 5,
      "note": 55,
      "start": 20.6077,
      "duration": 0.1429,
      "velocity": 127,
      "chip": "ym2612"
    },
    {
      "channel": 2,
      "note": 42,
      "start": 20.7016,
      "duration": 0.0823,
      "velocity": 119,
      "chip": "ym2612"
    },
    {
      "channel": 3,
      "note": 54,
      "start": 20.7017,
      "duration": 0.0823,
      "velocity": 91,
      "chip": "ym2612"
    },
    {
      "channel": 0,
      "note": 57,
      "start": 20.8083,
      "duration": 0.0931,
      "velocity": 91,
      "chip": "ym2612"
    },
    {
      "channel": 1,
      "note": 55,
      "start": 20.8084,
      "duration": 1.5998,
      "velocity": 78,
      "chip": "ym2612"
    },
    {
      "channel": 2,
      "note": 43,
      "start": 20.8085,
      "duration": 0.1588,
      "velocity": 119,
      "chip": "ym2612"
    },
    {
      "channel": 3,
      "note": 55,
      "start": 20.8085,
      "duration": 0.1588,
      "velocity": 91,
      "chip": "ym2612"
    },
    {
      "channel": 4,
      "note": 85,
      "start": 20.8086,
      "duration": 0.0252,
      "velocity": 114,
      "chip": "ym2612"
    },
    {
      "channel": 5,
      "note": 36,
      "start": 20.8087,
      "duration": 0.0928,
      "velocity": 101,
      "chip": "ym2612"
    },
    {
      "channel": 0,
      "note": 54,
      "start": 20.9014,
      "duration": 0.1051,
      "velocity": 91,
      "chip": "ym2612"
    },
    {
      "channel": 0,
      "note": 57,
      "start": 21.0066,
      "duration": 0.0959,
      "velocity": 91,
      "chip": "ym2612"
    },
    {
      "channel": 2,
      "note": 43,
      "start": 21.0068,
      "duration": 0.0772,
      "velocity": 119,
      "chip": "ym2612"
    },
    {
      "channel": 3,
      "note": 55,
      "start": 21.0068,
      "duration": 0.0772,
      "velocity": 91,
      "chip": "ym2612"
    },
    {
      "channel": 5,
      "note": 55,
      "start": 21.0069,
      "duration": 0.1438,
      "velocity": 127,
      "chip": "ym2612"
    },
    {
      "channel": 0,
      "note": 59,
      "start": 21.1026,
      "duration": 0.1045,
      "velocity": 91,
      "chip": "ym2612"
    },
    {
      "channel": 2,
      "note": 43,
      "start": 21.1027,
      "duration": 0.0813,
      "velocity": 119,
      "chip": "ym2612"
    },
    {
      "channel": 3,
      "note": 55,
      "start": 21.1028,
      "duration": 0.0813,
      "velocity": 91,
      "chip": "ym2612"
    },
    {
      "channel": 0,
      "note": 57,
      "start": 21.2071,
      "duration": 0.1989,
      "velocity": 91,
      "chip": "ym2612"
    },
    {
      "channel": 2,
      "note": 43,
      "start": 21.2071,
      "duration": 0.1601,
      "velocity": 119,
      "chip": "ym2612"
    },
    {
      "channel": 3,
      "note": 55,
      "start": 21.2072,
      "duration": 0.0766,
      "velocity": 91,
      "chip": "ym2612"
    },
    {
      "channel": 4,
      "note": 85,
      "start": 21.2073,
      "duration": 0.0266,
      "velocity": 114,
      "chip": "ym2612"
    },
    {
      "channel": 5,
      "note": 36,
      "start": 21.2073,
      "duration": 0.095,
      "velocity": 101,
      "chip": "ym2612"
    },
    {
      "channel": 3,
      "note": 55,
      "start": 21.3022,
      "duration": 0.0817,
      "velocity": 91,
      "chip": "ym2612"
    },
    {
      "channel": 5,
      "note": 36,
      "start": 21.3024,
      "duration": 0.1039,
      "velocity": 127,
      "chip": "ym2612"
    },
    {
      "channel": 0,
      "note": 59,
      "start": 21.4061,
      "duration": 0.2018,
      "velocity": 91,
      "chip": "ym2612"
    },
    {
      "channel": 2,
      "note": 43,
      "start": 21.4062,
      "duration": 0.0777,
      "velocity": 119,
      "chip": "ym2612"
    },
    {
      "channel": 3,
      "note": 55,
      "start": 21.4063,
      "duration": 0.0777,
      "velocity": 91,
      "chip": "ym2612"
    },
    {
      "channel": 5,
      "note": 55,
      "start": 21.4063,
      "duration": 0.1443,
      "velocity": 127,
      "chip": "ym2612"
    },
    {
      "channel": 2,
      "note": 43,
      "start": 21.5019,
      "duration": 0.0821,
      "velocity": 119,
      "chip": "ym2612"
    },
    {
      "channel": 3,
      "note": 55,
      "start": 21.502,
      "duration": 0.0821,
      "velocity": 91,
      "chip": "ym2612"
    },
    {
      "channel": 0,
      "note": 62,
      "start": 21.6079,
      "duration": 0.1976,
      "velocity": 91,
      "chip": "ym2612"
    },
    {
      "channel": 2,
      "note": 43,
      "start": 21.608,
      "duration": 0.1593,
      "velocity": 119,
      "chip": "ym2612"
    },
    {
      "channel": 3,
      "note": 55,
      "start": 21.6081,
      "duration": 0.1593,
      "velocity": 91,
      "chip": "ym2612"
    },
    {
      "channel": 4,
      "note": 85,
      "start": 21.6082,
      "duration": 0.0257,
      "velocity": 114,
      "chip": "ym2612"
    },
    {
      "channel": 5,
      "note": 36,
      "start": 21.6082,
      "duration": 0.0926,
      "velocity": 101,
      "chip": "ym2612"
    },
    {
      "channel": 0,
      "note": 62,
      "start": 21.8056,
      "duration": 0.2016,
      "velocity": 91,
      "chip": "ym2612"
    },
    {
      "channel": 2,
      "note": 43,
      "start": 21.8057,
      "duration": 0.0782,
      "velocity": 119,
      "chip": "ym2612"
    },
    {
      "channel": 3,
      "note": 54,
      "start": 21.8057,
      "duration": 0.1615,
      "velocity": 91,
      "chip": "ym2612"
    },
    {
      "channel": 5,
      "note": 55,
      "start": 21.8058,
      "duration": 0.1449,
      "velocity": 127,
      "chip": "ym2612"
    },
    {
      "channel": 2,
      "note": 43,
      "start": 21.901,
      "duration": 0.0829,
      "velocity": 119,
      "chip": "ym2612"
    },
    {
      "channel": 0,
      "note": 64,
      "start": 22.0073,
      "duration": 0.1983,
      "velocity": 91,
      "chip": "ym2612"
    },
    {
      "channel": 2,
      "note": 42,
      "start": 22.0073,
      "duration": 0.16,
      "velocity": 119,
      "chip": "ym2612"
    },
    {
      "channel": 3,
      "note": 52,
      "start": 22.0074,
      "duration": 0.16,
      "velocity": 91,
      "chip": "ym2612"
    },
    {
      "channel": 4,
      "note": 85,
      "start": 22.0075,
      "duration": 0.0264,
      "velocity": 114,
      "chip": "ym2612"
    },
    {
      "channel": 5,
      "note": 36,
      "start": 22.0075,
      "duration": 0.0938,
      "velocity": 101,
      "chip": "ym2612"
    },
    {
      "channel": 5,
      "note": 36,
      "start": 22.1014,
      "duration": 0.1046,
      "velocity": 127,
      "chip": "ym2612"
    },
    {
      "channel": 0,
      "note": 64,
      "start": 22.2057,
      "duration": 0.2024,
      "velocity": 91,
      "chip": "ym2612"
    },
    {
      "channel": 2,
      "note": 43,
      "start": 22.2058,
      "duration": 0.1616,
      "velocity": 119,
      "chip": "ym2612"
    },
    {
      "channel": 3,
      "note": 55,
      "start": 22.2059,
      "duration": 0.1616,
      "velocity": 91,
      "chip": "ym2612"
    },
    {
      "channel": 5,
      "note": 55,
      "start": 22.2059,
      "duration": 0.1448,
      "velocity": 127,
      "chip": "ym2612"
    },
    {
      "channel": 0,
      "note": 57,
      "start": 22.4082,
      "duration": 0.0932,
      "velocity": 91,
      "chip": "ym2612"
    },
    {
      "channel": 1,
      "note": 57,
      "start": 22.4082,
      "duration": 1.6013,
      "velocity": 78,
      "chip": "ym2612"
    },
    {
      "channel": 2,
      "note": 45,
      "start": 22.4083,
      "duration": 0.159,
      "velocity": 119,
      "chip": "ym2612"
    },
    {
      "channel": 3,
      "note": 57,
      "start": 22.4084,
      "duration": 0.159,
      "velocity": 91,
      "chip": "ym2612"
    },
    {
      "channel": 4,
      "note": 85,
      "start": 22.4084,
      "duration": 0.0255,
      "velocity": 114,
      "chip": "ym2612"
    },
    {
      "channel": 5,
      "note": 36,
      "start": 22.4085,
      "duration": 0.0931,
      "velocity": 101,
      "chip": "ym2612"
    },
    {
      "channel": 0,
      "note": 54,
      "start": 22.5014,
      "duration": 0.1059,
      "velocity": 91,
      "chip": "ym2612"
    },
    {
      "channel": 0,
      "note": 57,
      "start": 22.6074,
      "duration": 0.0952,
      "velocity": 91,
      "chip": "ym2612"
    },
    {
      "channel": 2,
      "note": 45,
      "start": 22.6075,
      "duration": 0.0765,
      "velocity": 119,
      "chip": "ym2612"
    },
    {
      "channel": 3,
      "note": 57,
      "start": 22.6075,
      "duration": 0.0765,
      "velocity": 91,
      "chip": "ym2612"
    },
    {
      "channel": 5,
      "note": 55,
      "start": 22.6076,
      "duration": 0.1431,
      "velocity": 127,
      "chip": "ym2612"
    },
    {
      "channel": 0,
      "note": 59,
      "start": 22.7026,
      "duration": 0.1051,
      "velocity": 91,
      "chip": "ym2612"
    },
    {
      "channel": 2,
      "note": 45,
      "start": 22.7027,
      "duration": 0.0813,
      "velocity": 119,
      "chip": "ym2612"
    },
    {
      "channel": 3,
      "note": 57,
      "start": 22.7028,
      "duration": 0.0813,
      "velocity": 91,
      "chip": "ym2612"
    },
    {
      "channel": 0,
      "note": 57,
      "start": 22.8078,
      "duration": 0.199,
      "velocity": 91,
      "chip": "ym2612"
    },
    {
      "channel": 2,
      "note": 45,
      "start": 22.8079,
      "duration": 0.1593,
      "velocity": 119,
      "chip": "ym2612"
    },
    {
      "channel": 3,
      "note": 57,
      "start": 22.808,
      "duration": 0.0759,
      "velocity": 91,
      "chip": "ym2612"
    },
    {
      "channel": 4,
      "note": 85,
      "start": 22.808,
      "duration": 0.0259,
      "velocity": 114,
      "chip": "ym2612"
    },
    {
      "channel": 5,
      "note": 36,
      "start": 22.808,
      "duration": 0.0943,
      "velocity": 101,
      "chip": "ym2612"
    },
    {
      "channel": 3,
      "note": 57,
      "start": 22.9022,
      "duration": 0.0817,
      "velocity": 91,
      "chip": "ym2612"
    },
    {
      "channel": 5,
      "note": 36,
      "start": 22.9024,
      "duration": 0.1046,
      "velocity": 127,
      "chip": "ym2612"
    },
    {
      "channel": 0,
      "note": 59,
      "start": 23.0068,
      "duration": 0.2018,
      "velocity": 91,
      "chip": "ym2612"
    },
    {
      "channel": 2,
      "note": 45,
      "start": 23.0069,
      "duration": 0.0771,
      "velocity": 119,
      "chip": "ym2612"
    },
    {
      "channel": 3,
      "note": 57,
      "start": 23.007,
      "duration": 0.0771,
      "velocity": 91,
      "chip": "ym2612"
    },
    {
      "channel": 5,
      "note": 55,
      "start": 23.0071,
      "duration": 0.1436,
      "velocity": 127,
      "chip": "ym2612"
    },
    {
      "channel": 2,
      "note": 45,
      "start": 23.1019,
      "duration": 0.0821,
      "velocity": 119,
      "chip": "ym2612"
    },
    {
      "channel": 3,
      "note": 57,
      "start": 23.102,
      "duration": 0.0821,
      "velocity": 91,
      "chip": "ym2612"
    },
    {
      "channel": 0,
      "note": 62,
      "start": 23.2087,
      "duration": 0.1976,
      "velocity": 91,
      "chip": "ym2612"
    },
    {
      "channel": 2,
      "note": 45,
      "start": 23.2088,
      "duration": 0.1585,
      "velocity": 119,
      "chip": "ym2612"
    },
    {
      "channel": 3,
      "note": 57,
      "start": 23.2089,
      "duration": 0.1585,
      "velocity": 91,
      "chip": "ym2612"
    },
    {
      "channel": 4,
      "note": 85,
      "start": 23.2089,
      "duration": 0.025,
      "velocity": 114,
      "chip": "ym2612"
    },
    {
      "channel": 5,
      "note": 36,
      "start": 23.2089,
      "duration": 0.0919,
      "velocity": 101,
      "chip": "ym2612"
    },
    {
      "channel": 0,
      "note": 62,
      "start": 23.4064,
      "duration": 0.201,
      "velocity": 91,
      "chip": "ym2612"
    },
    {
      "channel": 2,
      "note": 45,
      "start": 23.4064,
      "duration": 0.0774,
      "velocity": 119,
      "chip": "ym2612"
    },
    {
      "channel": 3,
      "note": 57,
      "start": 23.4065,
      "duration": 0.1607,
      "velocity": 91,
      "chip": "ym2612"
    },
    {
      "channel": 5,
      "note": 55,
      "start": 23.4066,
      "duration": 0.1441,
      "velocity": 127,
      "chip": "ym2612"
    },
    {
      "channel": 2,
      "note": 45,
      "start": 23.501,
      "duration": 0.0828,
      "velocity": 119,
      "chip": "ym2612"
    },
    {
      "channel": 0,
      "note": 61,
      "start": 23.6075,
      "duration": 0.199,
      "velocity": 91,
      "chip": "ym2612"
    },
    {
      "channel": 2,
      "note": 45,
      "start": 23.6075,
      "duration": 0.1598,
      "velocity": 119,
      "chip": "ym2612"
    },
    {
      "channel": 3,
      "note": 55,
      "start": 23.6076,
      "duration": 0.1598,
      "velocity": 91,
      "chip": "ym2612"
    },
    {
      "channel": 4,
      "note": 85,
      "start": 23.6077,
      "duration": 0.0263,
      "velocity": 114,
      "chip": "ym2612"
    },
    {
      "channel": 5,
      "note": 36,
      "start": 23.6077,
      "duration": 0.0937,
      "velocity": 101,
      "chip": "ym2612"
    },
    {
      "channel": 5,
      "note": 36,
      "start": 23.7014,
      "duration": 0.1053,
      "velocity": 127,
      "chip": "ym2612"
    },
    {
      "channel": 0,
      "note": 57,
      "start": 23.8065,
      "duration": 0.203,
      "velocity": 91,
      "chip": "ym2612"
    },
    {
      "channel": 2,
      "note": 45,
      "start": 23.8066,
      "duration": 0.0773,
      "velocity": 119,
      "chip": "ym2612"
    },
    {
      "channel": 3,
      "note": 57,
      "start": 23.8066,
      "duration": 0.1606,
      "velocity": 91,
      "chip": "ym2612"
    },
    {
      "channel": 5,
      "note": 55,
      "start": 23.8068,
      "duration": 0.1439,
      "velocity": 127,
      "chip": "ym2612"
    },
    {
      "channel": 2,
      "note": 45,
      "start": 23.901,
      "duration": 0.0828,
      "velocity": 119,
      "chip": "ym2612"
    },
    {
      "channel": 0,
      "note": 62,
      "start": 24.0096,
      "duration": 0.1983,
      "velocity": 91,
      "chip": "ym2612"
    },
    {
      "channel": 1,
      "note": 55,
      "start": 24.0096,
      "duration": 1.6,
      "velocity": 78,
      "chip": "ym2612"
    },
    {
      "channel": 2,
      "note": 45,
      "start": 24.0097,
      "duration": 0.1576,
      "velocity": 119,
      "chip": "ym2612"
    },
    {
      "channel": 3,
      "note": 55,
      "start": 24.0098,
      "duration": 0.1576,
      "velocity": 91,
      "chip": "ym2612"
    },
    {
      "channel": 4,
      "note": 85,
      "start": 24.0098,
      "duration": 0.0241,
      "velocity": 114,
      "chip": "ym2612"
    },
    {
      "channel": 5,
      "note": 55,
      "start": 24.0099,
      "duration": 0.094,
      "velocity": 101,
      "chip": "ym2612"
    },
    {
      "channel": 5,
      "note": 36,
      "start": 24.104,
      "duration": 0.1041,
      "velocity": 127,
      "chip": "ym2612"
    },
    {
      "channel": 0,
      "note": 61,
      "start": 24.2079,
      "duration": 0.2002,
      "velocity": 91,
      "chip": "ym2612"
    },
    {
      "channel": 2,
      "note": 45,
      "start": 24.208,
      "duration": 0.076,
      "velocity": 119,
      "chip": "ym2612"
    },
    {
      "channel": 3,
      "note": 55,
      "start": 24.208,
      "duration": 0.076,
      "velocity": 91,
      "chip": "ym2612"
    },
    {
      "channel": 5,
      "note": 55,
      "start": 24.2082,
      "duration": 0.0971,
      "velocity": 101,
      "chip": "ym2612"
    },
    {
      "channel": 2,
      "note": 45,
      "start": 24.3052,
      "duration": 0.0788,
      "velocity": 119,
      "chip": "ym2612"
    },
    {
      "channel": 3,
      "note": 55,
      "start": 24.3052,
      "duration": 0.0788,
      "velocity": 91,
      "chip": "ym2612"
    },
    {
      "channel": 5,
      "note": 36,
      "start": 24.3054,
      "duration": 0.1031,
      "velocity": 127,
      "chip": "ym2612"
    },
    {
      "channel": 0,
      "note": 62,
      "start": 24.4082,
      "duration": 0.1983,
      "velocity": 91,
      "chip": "ym2612"
    },
    {
      "channel": 2,
      "note": 45,
      "start": 24.4083,
      "duration": 0.159,
      "velocity": 119,
      "chip": "ym2612"
    },
    {
      "channel": 3,
      "note": 55,
      "start": 24.4083,
      "duration": 0.0756,
      "velocity": 91,
      "chip": "ym2612"
    },
    {
      "channel": 4,
      "note": 85,
      "start": 24.4084,
      "duration": 0.0255,
      "velocity": 114,
      "chip": "ym2612"
    },
    {
      "channel": 5,
      "note": 55,
      "start": 24.4085,
      "duration": 0.1421,
      "velocity": 127,
      "chip": "ym2612"
    },
    {
      "channel": 3,
      "note": 55,
      "start": 24.5015,
      "duration": 0.0824,
      "velocity": 91,
      "chip": "ym2612"
    },
    {
      "channel": 0,
      "note": 64,
      "start": 24.6066,
      "duration": 0.1992,
      "velocity": 91,
      "chip": "ym2612"
    },
    {
      "channel": 2,
      "note": 45,
      "start": 24.6067,
      "duration": 0.0773,
      "velocity": 119,
      "chip": "ym2612"
    },
    {
      "channel": 3,
      "note": 55,
      "start": 24.6068,
      "duration": 0.0773,
      "velocity": 91,
      "chip": "ym2612"
    },
    {
      "channel": 5,
      "note": 36,
      "start": 24.6068,
      "duration": 0.0953,
      "velocity": 101,
      "chip": "ym2612"
    },
    {
      "channel": 2,
      "note": 45,
      "start": 24.702,
      "duration": 0.082,
      "velocity": 119,
      "chip": "ym2612"
    },
    {
      "channel": 3,
      "note": 55,
      "start": 24.7021,
      "duration": 0.082,
      "velocity": 91,
      "chip": "ym2612"
    },
    {
      "channel": 0,
      "note": 66,
      "start": 24.8059,
      "duration": 0.2005,
      "velocity": 91,
      "chip": "ym2612"
    },
    {
      "channel": 2,
      "note": 45,
      "start": 24.8059,
      "duration": 0.1614,
      "velocity": 119,
      "chip": "ym2612"
    },
    {
      "channel": 3,
      "note": 57,
      "start": 24.806,
      "duration": 0.1614,
      "velocity": 91,
      "chip": "ym2612"
    },
    {
      "channel": 4,
      "note": 85,
      "start": 24.8061,
      "duration": 0.0279,
      "velocity": 114,
      "chip": "ym2612"
    },
    {
      "channel": 5,
      "note": 36,
      "start": 24.8061,
      "duration": 0.0947,
      "velocity": 101,
      "chip": "ym2612"
    },
    {
      "channel": 0,
      "note": 66,
      "start": 25.0064,
      "duration": 0.1986,
      "velocity": 91,
      "chip": "ym2612"
    },
    {
      "channel": 2,
      "note": 45,
      "start": 25.0065,
      "duration": 0.0773,
      "velocity": 119,
      "chip": "ym2612"
    },
    {
      "channel": 3,
      "note": 55,
      "start": 25.0066,
      "duration": 0.1607,
      "velocity": 91,
      "chip": "ym2612"
    },
    {
      "channel": 5,
      "note": 55,
      "start": 25.0066,
      "duration": 0.144,
      "velocity": 127,
      "chip": "ym2612"
    },
    {
      "channel": 2,
      "note": 45,
      "start": 25.101,
      "duration": 0.0829,
      "velocity": 119,
      "chip": "ym2612"
    },
    {
      "channel": 0,
      "note": 67,
      "start": 25.2051,
      "duration": 0.1988,
      "velocity": 91,
      "chip": "ym2612"
    },
    {
      "channel": 2,
      "note": 45,
      "start": 25.2051,
      "duration": 0.1623,
      "velocity": 119,
      "chip": "ym2612"
    },
    {
      "channel": 3,
      "note": 57,
      "start": 25.2052,
      "duration": 0.1623,
      "velocity": 91,
      "chip": "ym2612"
    },
    {
      "channel": 4,
      "note": 85,
      "start": 25.2052,
      "duration": 0.0287,
      "velocity": 114,
      "chip": "ym2612"
    },
    {
      "channel": 5,
      "note": 55,
      "start": 25.2053,
      "duration": 0.0961,
      "velocity": 127,
      "chip": "ym2612"
    },
    {
      "channel": 5,
      "note": 55,
      "start": 25.3014,
      "duration": 0.1027,
      "velocity": 127,
      "chip": "ym2612"
    },
    {
      "channel": 0,
      "note": 69,
      "start": 25.4039,
      "duration": 0.2057,
      "velocity": 91,
      "chip": "ym2612"
    },
    {
      "channel": 2,
      "note": 45,
      "start": 25.404,
      "duration": 0.0798,
      "velocity": 119,
      "chip": "ym2612"
    },
    {
      "channel": 3,
      "note": 54,
      "start": 25.4041,
      "duration": 0.1632,
      "velocity": 91,
      "chip": "ym2612"
    },
    {
      "channel": 5,
      "note": 55,
      "start": 25.4041,
      "duration": 0.0976,
      "velocity": 127,
      "chip": "ym2612"
    },
    {
      "channel": 2,
      "note": 45,
      "start": 25.5017,
      "duration": 0.0822,
      "velocity": 119,
      "chip": "ym2612"
    },
    {
      "channel": 5,
      "note": 55,
      "start": 25.5018,
      "duration": 0.1082,
      "velocity": 101,
      "chip": "ym2612"
    },
    {
      "channel": 0,
      "note": 54,
      "start": 25.6096,
      "duration": 0.0917,
      "velocity": 91,
      "chip": "ym2612"
    },
    {
      "channel": 1,
      "note": 54,
      "start": 25.6098,
      "duration": 1.5986,
      "velocity": 78,
      "chip": "ym2612"
    },
    {
      "channel": 2,
      "note": 42,
      "start": 25.6098,
      "duration": 0.1575,
      "velocity": 119,
      "chip": "ym2612"
    },
    {
      "channel": 3,
      "note": 54,
      "start": 25.6099,
      "duration": 0.1575,
      "velocity": 91,
      "chip": "ym2612"
    },
    {
      "channel": 4,
      "note": 85,
      "start": 25.61,
      "duration": 0.0239,
      "velocity": 114,
      "chip": "ym2612"
    },
    {
      "channel": 5,
      "note": 36,
      "start": 25.61,
      "duration": 0.0915,
      "velocity": 101,
      "chip": "ym2612"
    },
    {
      "channel": 0,
      "note": 53,
      "start": 25.7014,
      "duration": 0.1059,
      "velocity": 91,
      "chip": "ym2612"
    },
    {
      "channel": 0,
      "note": 54,
      "start": 25.8073,
      "duration": 0.0952,
      "velocity": 91,
      "chip": "ym2612"
    },
    {
      "channel": 2,
      "note": 42,
      "start": 25.8075,
      "duration": 0.0765,
      "velocity": 119,
      "chip": "ym2612"
    },
    {
      "channel": 3,
      "note": 54,
      "start": 25.8075,
      "duration": 0.0765,
      "velocity": 91,
      "chip": "ym2612"
    },
    {
      "channel": 5,
      "note": 55,
      "start": 25.8076,
      "duration": 0.143,
      "velocity": 127,
      "chip": "ym2612"
    },
    {
      "channel": 0,
      "note": 55,
      "start": 25.9026,
      "duration": 0.1052,
      "velocity": 91,
      "chip": "ym2612"
    },
    {
      "channel": 2,
      "note": 42,
      "start": 25.9027,
      "duration": 0.0812,
      "velocity": 119,
      "chip": "ym2612"
    },
    {
      "channel": 3,
      "note": 54,
      "start": 25.9028,
      "duration": 0.0812,
      "velocity": 91,
      "chip": "ym2612"
    },
    {
      "channel": 0,
      "note": 57,
      "start": 26.0079,
      "duration": 0.1988,
      "velocity": 91,
      "chip": "ym2612"
    },
    {
      "channel": 2,
      "note": 42,
      "start": 26.008,
      "duration": 0.1592,
      "velocity": 119,
      "chip": "ym2612"
    },
    {
      "channel": 3,
      "note": 54,
      "start": 26.008,
      "duration": 0.0758,
      "velocity": 91,
      "chip": "ym2612"
    },
    {
      "channel": 4,
      "note": 85,
      "start": 26.0081,
      "duration": 0.0258,
      "velocity": 114,
      "chip": "ym2612"
    },
    {
      "channel": 5,
      "note": 36,
      "start": 26.0082,
      "duration": 0.0941,
      "velocity": 101,
      "chip": "ym2612"
    },
    {
      "channel": 3,
      "note": 54,
      "start": 26.1022,
      "duration": 0.0816,
      "velocity": 91,
      "chip": "ym2612"
    },
    {
      "channel": 5,
      "note": 36,
      "start": 26.1024,
      "duration": 0.1047,
      "velocity": 127,
      "chip": "ym2612"
    },
    {
      "channel": 0,
      "note": 57,
      "start": 26.2068,
      "duration": 0.2012,
      "velocity": 91,
      "chip": "ym2612"
    },
    {
      "channel": 2,
      "note": 42,
      "start": 26.207,
      "duration": 0.077,
      "velocity": 119,
      "chip": "ym2612"
    },
    {
      "channel": 3,
      "note": 54,
      "start": 26.207,
      "duration": 0.077,
      "velocity": 91,
      "chip": "ym2612"
    },
    {
      "channel": 5,
      "note": 55,
      "start": 26.2071,
      "duration": 0.1435,
      "velocity": 127,
      "chip": "ym2612"
    },
    {
      "channel": 2,
      "note": 42,
      "start": 26.302,
      "duration": 0.0819,
      "velocity": 119,
      "chip": "ym2612"
    },
    {
      "channel": 3,
      "note": 54,
      "start": 26.3021,
      "duration": 0.0819,
      "velocity": 91,
      "chip": "ym2612"
    },
    {
      "channel": 0,
      "note": 62,
      "start": 26.4081,
      "duration": 0.1986,
      "velocity": 91,
      "chip": "ym2612"
    },
    {
      "channel": 2,
      "note": 42,
      "start": 26.4082,
      "duration": 0.159,
      "velocity": 119,
      "chip": "ym2612"
    },
    {
      "channel": 3,
      "note": 54,
      "start": 26.4083,
      "duration": 0.0756,
      "velocity": 91,
      "chip": "ym2612"
    },
    {
      "channel": 4,
      "note": 85,
      "start": 26.4083,
      "duration": 0.0255,
      "velocity": 114,
      "chip": "ym2612"
    },
    {
      "channel": 5,
      "note": 36,
      "start": 26.4083,
      "duration": 0.0934,
      "velocity": 101,
      "chip": "ym2612"
    },
    {
      "channel": 3,
      "note": 54,
      "start": 26.5017,
      "duration": 0.0822,
      "velocity": 91,
      "chip": "ym2612"
    },
    {
      "channel": 0,
      "note": 62,
      "start": 26.6068,
      "duration": 0.201,
      "velocity": 91,
      "chip": "ym2612"
    },
    {
      "channel": 2,
      "note": 42,
      "start": 26.6068,
      "duration": 0.0771,
      "velocity": 119,
      "chip": "ym2612"
    },
    {
      "channel": 3,
      "note": 54,
      "start": 26.6069,
      "duration": 0.0771,
      "velocity": 91,
      "chip": "ym2612"
    },
    {
      "channel": 5,
      "note": 55,
      "start": 26.607,
      "duration": 0.1436,
      "velocity": 127,
      "chip": "ym2612"
    },
    {
      "channel": 2,
      "note": 42,
      "start": 26.702,
      "duration": 0.0819,
      "velocity": 119,
      "chip": "ym2612"
    },
    {
      "channel": 3,
      "note": 54,
      "start": 26.7021,
      "duration": 0.0819,
      "velocity": 91,
      "chip": "ym2612"
    },
    {
      "channel": 0,
      "note": 61,
      "start": 26.8078,
      "duration": 0.1995,
      "velocity": 91,
      "chip": "ym2612"
    },
    {
      "channel": 2,
      "note": 42,
      "start": 26.8079,
      "duration": 0.1593,
      "velocity": 119,
      "chip": "ym2612"
    },
    {
      "channel": 3,
      "note": 54,
      "start": 26.808,
      "duration": 0.0759,
      "velocity": 91,
      "chip": "ym2612"
    },
    {
      "channel": 4,
      "note": 85,
      "start": 26.808,
      "duration": 0.0258,
      "velocity": 114,
      "chip": "ym2612"
    },
    {
      "channel": 5,
      "note": 36,
      "start": 26.8081,
      "duration": 0.0942,
      "velocity": 101,
      "chip": "ym2612"
    },
    {
      "channel": 3,
      "note": 54,
      "start": 26.9022,
      "duration": 0.0816,
      "velocity": 91,
      "chip": "ym2612"
    },
    {
      "channel": 5,
      "note": 36,
      "start": 26.9024,
      "duration": 0.1053,
      "velocity": 127,
      "chip": "ym2612"
    },
    {
      "channel": 0,
      "note": 57,
      "start": 27.0075,
      "duration": 0.2008,
      "velocity": 91,
      "chip": "ym2612"
    },
    {
      "channel": 2,
      "note": 42,
      "start": 27.0075,
      "duration": 0.0764,
      "velocity": 119,
      "chip": "ym2612"
    },
    {
      "channel": 3,
      "note": 52,
      "start": 27.0076,
      "duration": 0.0764,
      "velocity": 91,
      "chip": "ym2612"
    },
    {
      "channel": 5,
      "note": 55,
      "start": 27.0077,
      "duration": 0.1429,
      "velocity": 127,
      "chip": "ym2612"
    },
    {
      "channel": 2,
      "note": 42,
      "start": 27.1016,
      "duration": 0.0823,
      "velocity": 119,
      "chip": "ym2612"
    },
    {
      "channel": 3,
      "note": 54,
      "start": 27.1017,
      "duration": 0.0823,
      "velocity": 91,
      "chip": "ym2612"
    },
    {
      "channel": 0,
      "note": 57,
      "start": 27.2083,
      "duration": 0.0931,
      "velocity": 91,
      "chip": "ym2612"
    },
    {
      "channel": 1,
      "note": 55,
      "start": 27.2084,
      "duration": 1.6008,
      "velocity": 78,
      "chip": "ym2612"
    },
    {
      "channel": 2,
      "note": 43,
      "start": 27.2085,
      "duration": 0.1588,
      "velocity": 119,
      "chip": "ym2612"
    },
    {
      "channel": 3,
      "note": 55,
      "start": 27.2085,
      "duration": 0.1588,
      "velocity": 91,
      "chip": "ym2612"
    },
    {
      "channel": 4,
      "note": 85,
      "start": 27.2086,
      "duration": 0.0252,
      "velocity": 114,
      "chip": "ym2612"
    },
    {
      "channel": 5,
      "note": 36,
      "start": 27.2087,
      "duration": 0.0928,
      "velocity": 101,
      "chip": "ym2612"
    },
    {
      "channel": 0,
      "note": 54,
      "start": 27.3014,
      "duration": 0.1051,
      "velocity": 91,
      "chip": "ym2612"
    },
    {
      "channel": 0,
      "note": 57,
      "start": 27.4066,
      "duration": 0.0959,
      "velocity": 91,
      "chip": "ym2612"
    },
    {
      "channel": 2,
      "note": 43,
      "start": 27.4068,
      "duration": 0.0772,
      "velocity": 119,
      "chip": "ym2612"
    },
    {
      "channel": 3,
      "note": 55,
      "start": 27.4068,
      "duration": 0.0772,
      "velocity": 91,
      "chip": "ym2612"
    },
    {
      "channel": 5,
      "note": 55,
      "start": 27.4069,
      "duration": 0.1438,
      "velocity": 127,
      "chip": "ym2612"
    },
    {
      "channel": 0,
      "note": 59,
      "start": 27.5026,
      "duration": 0.1045,
      "velocity": 91,
      "chip": "ym2612"
    },
    {
      "channel": 2,
      "note": 43,
      "start": 27.5027,
      "duration": 0.0813,
      "velocity": 119,
      "chip": "ym2612"
    },
    {
      "channel": 3,
      "note": 55,
      "start": 27.5028,
      "duration": 0.0813,
      "velocity": 91,
      "chip": "ym2612"
    },
    {
      "channel": 0,
      "note": 57,
      "start": 27.6071,
      "duration": 0.1989,
      "velocity": 91,
      "chip": "ym2612"
    },
    {
      "channel": 2,
      "note": 43,
      "start": 27.6071,
      "duration": 0.1601,
      "velocity": 119,
      "chip": "ym2612"
    },
    {
      "channel": 3,
      "note": 55,
      "start": 27.6072,
      "duration": 0.0766,
      "velocity": 91,
      "chip": "ym2612"
    },
    {
      "channel": 4,
      "note": 85,
      "start": 27.6073,
      "duration": 0.0266,
      "velocity": 114,
      "chip": "ym2612"
    },
    {
      "channel": 5,
      "note": 36,
      "start": 27.6073,
      "duration": 0.095,
      "velocity": 101,
      "chip": "ym2612"
    },
    {
      "channel": 3,
      "note": 55,
      "start": 27.7022,
      "duration": 0.0817,
      "velocity": 91,
      "chip": "ym2612"
    },
    {
      "channel": 5,
      "note": 36,
      "start": 27.7024,
      "duration": 0.1039,
      "velocity": 127,
      "chip": "ym2612"
    },
    {
      "channel": 0,
      "note": 59,
      "start": 27.8061,
      "duration": 0.2012,
      "velocity": 91,
      "chip": "ym2612"
    },
    {
      "channel": 2,
      "note": 43,
      "start": 27.8062,
      "duration": 0.0777,
      "velocity": 119,
      "chip": "ym2612"
    },
    {
      "channel": 3,
      "note": 55,
      "start": 27.8063,
      "duration": 0.0777,
      "velocity": 91,
      "chip": "ym2612"
    },
    {
      "channel": 5,
      "note": 55,
      "start": 27.8063,
      "duration": 0.1443,
      "velocity": 127,
      "chip": "ym2612"
    },
    {
      "channel": 2,
      "note": 43,
      "start": 27.9019,
      "duration": 0.0821,
      "velocity": 119,
      "chip": "ym2612"
    },
    {
      "channel": 3,
      "note": 55,
      "start": 27.902,
      "duration": 0.0821,
      "velocity": 91,
      "chip": "ym2612"
    },
    {
      "channel": 0,
      "note": 62,
      "start": 28.0073,
      "duration": 0.1986,
      "velocity": 91,
      "chip": "ym2612"
    },
    {
      "channel": 2,
      "note": 43,
      "start": 28.0075,
      "duration": 0.1598,
      "velocity": 119,
      "chip": "ym2612"
    },
    {
      "channel": 3,
      "note": 55,
      "start": 28.0075,
      "duration": 0.0763,
      "velocity": 91,
      "chip": "ym2612"
    },
    {
      "channel": 4,
      "note": 85,
      "start": 28.0076,
      "duration": 0.0263,
      "velocity": 114,
      "chip": "ym2612"
    },
    {
      "channel": 5,
      "note": 36,
      "start": 28.0076,
      "duration": 0.0941,
      "velocity": 101,
      "chip": "ym2612"
    },
    {
      "channel": 3,
      "note": 55,
      "start": 28.1017,
      "duration": 0.0822,
      "velocity": 91,
      "chip": "ym2612"
    },
    {
      "channel": 0,
      "note": 62,
      "start": 28.206,
      "duration": 0.2016,
      "velocity": 91,
      "chip": "ym2612"
    },
    {
      "channel": 2,
      "note": 43,
      "start": 28.2061,
      "duration": 0.0779,
      "velocity": 119,
      "chip": "ym2612"
    },
    {
      "channel": 3,
      "note": 55,
      "start": 28.2061,
      "duration": 0.0779,
      "velocity": 91,
      "chip": "ym2612"
    },
    {
      "channel": 5,
      "note": 55,
      "start": 28.2062,
      "duration": 0.1445,
      "velocity": 127,
      "chip": "ym2612"
    },
    {
      "channel": 2,
      "note": 43,
      "start": 28.3019,
      "duration": 0.0821,
      "velocity": 119,
      "chip": "ym2612"
    },
    {
      "channel": 3,
      "note": 55,
      "start": 28.302,
      "duration": 0.0821,
      "velocity": 91,
      "chip": "ym2612"
    },
    {
      "channel": 0,
      "note": 64,
      "start": 28.4077,
      "duration": 0.1983,
      "velocity": 91,
      "chip": "ym2612"
    },
    {
      "channel": 2,
      "note": 42,
      "start": 28.4077,
      "duration": 0.1595,
      "velocity": 119,
      "chip": "ym2612"
    },
    {
      "channel": 3,
      "note": 55,
      "start": 28.4078,
      "duration": 0.0761,
      "velocity": 91,
      "chip": "ym2612"
    },
    {
      "channel": 4,
      "note": 85,
      "start": 28.4078,
      "duration": 0.026,
      "velocity": 114,
      "chip": "ym2612"
    },
    {
      "channel": 5,
      "note": 36,
      "start": 28.4079,
      "duration": 0.0944,
      "velocity": 101,
      "chip": "ym2612"
    },
    {
      "channel": 3,
      "note": 55,
      "start": 28.5022,
      "duration": 0.0817,
      "velocity": 91,
      "chip": "ym2612"
    },
    {
      "channel": 5,
      "note": 36,
      "start": 28.5024,
      "duration": 0.1039,
      "velocity": 127,
      "chip": "ym2612"
    },
    {
      "channel": 0,
      "note": 64,
      "start": 28.6061,
      "duration": 0.203,
      "velocity": 91,
      "chip": "ym2612"
    },
    {
      "channel": 2,
      "note": 43,
      "start": 28.6062,
      "duration": 0.1611,
      "velocity": 119,
      "chip": "ym2612"
    },
    {
      "channel": 3,
      "note": 55,
      "start": 28.6063,
      "duration": 0.0776,
      "velocity": 91,
      "chip": "ym2612"
    },
    {
      "channel": 5,
      "note": 55,
      "start": 28.6063,
      "duration": 0.1444,
      "velocity": 127,
      "chip": "ym2612"
    },
    {
      "channel": 3,
      "note": 55,
      "start": 28.7014,
      "duration": 0.0825,
      "velocity": 91,
      "chip": "ym2612"
    },
    {
      "channel": 0,
      "note": 57,
      "start": 28.8091,
      "duration": 0.0922,
      "velocity": 91,
      "chip": "ym2612"
    },
    {
      "channel": 1,
      "note": 57,
      "start": 28.8093,
      "duration": 1.6002,
      "velocity": 78,
      "chip": "ym2612"
    },
    {
      "channel": 2,
      "note": 45,
      "start": 28.8093,
      "duration": 0.158,
      "velocity": 119,
      "chip": "ym2612"
    },
    {
      "channel": 3,
      "note": 57,
      "start": 28.8094,
      "duration": 0.158,
      "velocity": 91,
      "chip": "ym2612"
    },
    {
      "channel": 4,
      "note": 85,
      "start": 28.8094,
      "duration": 0.0245,
      "velocity": 114,
      "chip": "ym2612"
    },
    {
      "channel": 5,
      "note": 36,
      "start": 28.8095,
      "duration": 0.092,
      "velocity": 101,
      "chip": "ym2612"
    },
    {
      "channel": 0,
      "note": 54,
      "start": 28.9014,
      "duration": 0.1059,
      "velocity": 91,
      "chip": "ym2612"
    },
    {
      "channel": 0,
      "note": 57,
      "start": 29.0074,
      "duration": 0.0952,
      "velocity": 91,
      "chip": "ym2612"
    },
    {
      "channel": 2,
      "note": 45,
      "start": 29.0075,
      "duration": 0.0765,
      "velocity": 119,
      "chip": "ym2612"
    },
    {
      "channel": 3,
      "note": 57,
      "start": 29.0075,
      "duration": 0.0765,
      "velocity": 91,
      "chip": "ym2612"
    },
    {
      "channel": 5,
      "note": 55,
      "start": 29.0076,
      "duration": 0.1431,
      "velocity": 127,
      "chip": "ym2612"
    },
    {
      "channel": 0,
      "note": 59,
      "start": 29.1026,
      "duration": 0.1051,
      "velocity": 91,
      "chip": "ym2612"
    },
    {
      "channel": 2,
      "note": 45,
      "start": 29.1027,
      "duration": 0.0813,
      "velocity": 119,
      "chip": "ym2612"
    },
    {
      "channel": 3,
      "note": 57,
      "start": 29.1028,
      "duration": 0.0813,
      "velocity": 91,
      "chip": "ym2612"
    },
    {
      "channel": 0,
      "note": 57,
      "start": 29.2078,
      "duration": 0.199,
      "velocity": 91,
      "chip": "ym2612"
    },
    {
      "channel": 2,
      "note": 45,
      "start": 29.2079,
      "duration": 0.1593,
      "velocity": 119,
      "chip": "ym2612"
    },
    {
      "channel": 3,
      "note": 57,
      "start": 29.208,
      "duration": 0.0759,
      "velocity": 91,
      "chip": "ym2612"
    },
    {
      "channel": 4,
      "note": 85,
      "start": 29.208,
      "duration": 0.0259,
      "velocity": 114,
      "chip": "ym2612"
    },
    {
      "channel": 5,
      "note": 36,
      "start": 29.208,
      "duration": 0.0943,
      "velocity": 101,
      "chip": "ym2612"
    },
    {
      "channel": 3,
      "note": 57,
      "start": 29.3022,
      "duration": 0.0817,
      "velocity": 91,
      "chip": "ym2612"
    },
    {
      "channel": 5,
      "note": 36,
      "start": 29.3024,
      "duration": 0.1046,
      "velocity": 127,
      "chip": "ym2612"
    },
    {
      "channel": 0,
      "note": 59,
      "start": 29.4068,
      "duration": 0.2018,
      "velocity": 91,
      "chip": "ym2612"
    },
    {
      "channel": 2,
      "note": 45,
      "start": 29.4069,
      "duration": 0.0771,
      "velocity": 119,
      "chip": "ym2612"
    },
    {
      "channel": 3,
      "note": 57,
      "start": 29.407,
      "duration": 0.0771,
      "velocity": 91,
      "chip": "ym2612"
    },
    {
      "channel": 5,
      "note": 55,
      "start": 29.4071,
      "duration": 0.1436,
      "velocity": 127,
      "chip": "ym2612"
    },
    {
      "channel": 2,
      "note": 45,
      "start": 29.5019,
      "duration": 0.0821,
      "velocity": 119,
      "chip": "ym2612"
    },
    {
      "channel": 3,
      "note": 57,
      "start": 29.502,
      "duration": 0.0821,
      "velocity": 91,
      "chip": "ym2612"
    },
    {
      "channel": 0,
      "note": 62,
      "start": 29.6087,
      "duration": 0.1986,
      "velocity": 91,
      "chip": "ym2612"
    },
    {
      "channel": 2,
      "note": 45,
      "start": 29.6088,
      "duration": 0.1585,
      "velocity": 119,
      "chip": "ym2612"
    },
    {
      "channel": 3,
      "note": 57,
      "start": 29.6089,
      "duration": 0.1585,
      "velocity": 91,
      "chip": "ym2612"
    },
    {
      "channel": 4,
      "note": 85,
      "start": 29.6089,
      "duration": 0.025,
      "velocity": 114,
      "chip": "ym2612"
    },
    {
      "channel": 5,
      "note": 36,
      "start": 29.6089,
      "duration": 0.0919,
      "velocity": 101,
      "chip": "ym2612"
    },
    {
      "channel": 0,
      "note": 62,
      "start": 29.8073,
      "duration": 0.2004,
      "velocity": 91,
      "chip": "ym2612"
    },
    {
      "channel": 2,
      "note": 45,
      "start": 29.8074,
      "duration": 0.0766,
      "velocity": 119,
      "chip": "ym2612"
    },
    {
      "channel": 3,
      "note": 57,
      "start": 29.8075,
      "duration": 0.0766,
      "velocity": 91,
      "chip": "ym2612"
    },
    {
      "channel": 5,
      "note": 55,
      "start": 29.8075,
      "duration": 0.1431,
      "velocity": 127,
      "chip": "ym2612"
    },
    {
      "channel": 2,
      "note": 45,
      "start": 29.9019,
      "duration": 0.0821,
      "velocity": 119,
      "chip": "ym2612"
    },
    {
      "channel": 3,
      "note": 57,
      "start": 29.902,
      "duration": 0.0821,
      "velocity": 91,
      "chip": "ym2612"
    },
    {
      "channel": 0,
      "note": 61,
      "start": 30.0078,
      "duration": 0.199,
      "velocity": 91,
      "chip": "ym2612"
    },
    {
      "channel": 2,
      "note": 45,
      "start": 30.0079,
      "duration": 0.1593,
      "velocity": 119,
      "chip": "ym2612"
    },
    {
      "channel": 3,
      "note": 57,
      "start": 30.008,
      "duration": 0.0759,
      "velocity": 91,
      "chip": "ym2612"
    },
    {
      "channel": 4,
      "note": 85,
      "start": 30.008,
      "duration": 0.0259,
      "velocity": 114,
      "chip": "ym2612"
    },
    {
      "channel": 5,
      "note": 36,
      "start": 30.008,
      "duration": 0.0943,
      "velocity": 101,
      "chip": "ym2612"
    },
    {
      "channel": 3,
      "note": 57,
      "start": 30.1022,
      "duration": 0.0817,
      "velocity": 91,
      "chip": "ym2612"
    },
    {
      "channel": 5,
      "note": 36,
      "start": 30.1024,
      "duration": 0.1046,
      "velocity": 127,
      "chip": "ym2612"
    },
    {
      "channel": 0,
      "note": 57,
      "start": 30.2068,
      "duration": 0.2025,
      "velocity": 91,
      "chip": "ym2612"
    },
    {
      "channel": 2,
      "note": 45,
      "start": 30.2069,
      "duration": 0.0771,
      "velocity": 119,
      "chip": "ym2612"
    },
    {
      "channel": 3,
      "note": 57,
      "start": 30.207,
      "duration": 0.0771,
      "velocity": 91,
      "chip": "ym2612"
    },
    {
      "channel": 5,
      "note": 55,
      "start": 30.2071,
      "duration": 0.1436,
      "velocity": 127,
      "chip": "ym2612"
    },
    {
      "channel": 2,
      "note": 45,
      "start": 30.3019,
      "duration": 0.0821,
      "velocity": 119,
      "chip": "ym2612"
    },
    {
      "channel": 3,
      "note": 57,
      "start": 30.302,
      "duration": 0.0821,
      "velocity": 91,
      "chip": "ym2612"
    },
    {
      "channel": 0,
      "note": 62,
      "start": 30.4094,
      "duration": 0.1976,
      "velocity": 91,
      "chip": "ym2612"
    },
    {
      "channel": 1,
      "note": 62,
      "start": 30.4095,
      "duration": 0.7971,
      "velocity": 78,
      "chip": "ym2612"
    },
    {
      "channel": 2,
      "note": 45,
      "start": 30.4096,
      "duration": 0.1578,
      "velocity": 119,
      "chip": "ym2612"
    },
    {
      "channel": 3,
      "note": 57,
      "start": 30.4096,
      "duration": 0.1578,
      "velocity": 91,
      "chip": "ym2612"
    },
    {
      "channel": 4,
      "note": 85,
      "start": 30.4097,
      "duration": 0.0242,
      "velocity": 114,
      "chip": "ym2612"
    },
    {
      "channel": 5,
      "note": 55,
      "start": 30.4098,
      "duration": 0.0941,
      "velocity": 101,
      "chip": "ym2612"
    },
    {
      "channel": 5,
      "note": 36,
      "start": 30.504,
      "duration": 0.1034,
      "velocity": 127,
      "chip": "ym2612"
    },
    {
      "channel": 0,
      "note": 61,
      "start": 30.6071,
      "duration": 0.2002,
      "velocity": 91,
      "chip": "ym2612"
    },
    {
      "channel": 2,
      "note": 45,
      "start": 30.6072,
      "duration": 0.0768,
      "velocity": 119,
      "chip": "ym2612"
    },
    {
      "channel": 3,
      "note": 57,
      "start": 30.6073,
      "duration": 0.0768,
      "velocity": 91,
      "chip": "ym2612"
    },
    {
      "channel": 5,
      "note": 55,
      "start": 30.6074,
      "duration": 0.0979,
      "velocity": 101,
      "chip": "ym2612"
    },
    {
      "channel": 2,
      "note": 45,
      "start": 30.7052,
      "duration": 0.0788,
      "velocity": 119,
      "chip": "ym2612"
    },
    {
      "channel": 3,
      "note": 57,
      "start": 30.7052,
      "duration": 0.0788,
      "velocity": 91,
      "chip": "ym2612"
    },
    {
      "channel": 5,
      "note": 36,
      "start": 30.7054,
      "duration": 0.1023,
      "velocity": 127,
      "chip": "ym2612"
    },
    {
      "channel": 0,
      "note": 62,
      "start": 30.8075,
      "duration": 0.1983,
      "velocity": 91,
      "chip": "ym2612"
    },
    {
      "channel": 2,
      "note": 45,
      "start": 30.8075,
      "duration": 0.1597,
      "velocity": 119,
      "chip": "ym2612"
    },
    {
      "channel": 3,
      "note": 57,
      "start": 30.8076,
      "duration": 0.0763,
      "velocity": 91,
      "chip": "ym2612"
    },
    {
      "channel": 4,
      "note": 85,
      "start": 30.8077,
      "duration": 0.0263,
      "velocity": 114,
      "chip": "ym2612"
    },
    {
      "channel": 5,
      "note": 55,
      "start": 30.8078,
      "duration": 0.1429,
      "velocity": 127,
      "chip": "ym2612"
    },
    {
      "channel": 3,
      "note": 57,
      "start": 30.9015,
      "duration": 0.0824,
      "velocity": 91,
      "chip": "ym2612"
    },
    {
      "channel": 0,
      "note": 64,
      "start": 31.0058,
      "duration": 0.2006,
      "velocity": 91,
      "chip": "ym2612"
    },
    {
      "channel": 2,
      "note": 45,
      "start": 31.0059,
      "duration": 0.078,
      "velocity": 119,
      "chip": "ym2612"
    },
    {
      "channel": 3,
      "note": 57,
      "start": 31.006,
      "duration": 0.078,
      "velocity": 91,
      "chip": "ym2612"
    },
    {
      "channel": 5,
      "note": 36,
      "start": 31.0061,
      "duration": 0.0961,
      "velocity": 101,
      "chip": "ym2612"
    },
    {
      "channel": 2,
      "note": 45,
      "start": 31.1021,
      "duration": 0.0819,
      "velocity": 119,
      "chip": "ym2612"
    },
    {
      "channel": 3,
      "note": 57,
      "start": 31.1021,
      "duration": 0.0819,
      "velocity": 91,
      "chip": "ym2612"
    },
    {
      "channel": 0,
      "note": 66,
      "start": 31.2065,
      "duration": 0.1989,
      "velocity": 91,
      "chip": "ym2612"
    },
    {
      "channel": 1,
      "note": 61,
      "start": 31.2066,
      "duration": 0.3989,
      "velocity": 78,
      "chip": "ym2612"
    },
    {
      "channel": 2,
      "note": 50,
      "start": 31.2066,
      "duration": 0.3441,
      "velocity": 119,
      "chip": "ym2612"
    },
    {
      "channel": 3,
      "note": 62,
      "start": 31.2068,
      "duration": 0.0772,
      "velocity": 91,
      "chip": "ym2612"
    },
    {
      "channel": 4,
      "note": 85,
      "start": 31.2068,
      "duration": 0.0272,
      "velocity": 114,
      "chip": "ym2612"
    },
    {
      "channel": 5,
      "note": 36,
      "start": 31.2068,
      "duration": 0.0949,
      "velocity": 101,
      "chip": "ym2612"
    },
    {
      "channel": 3,
      "note": 62,
      "start": 31.3017,
      "duration": 0.0822,
      "velocity": 91,
      "chip": "ym2612"
    },
    {
      "channel": 0,
      "note": 66,
      "start": 31.4055,
      "duration": 0.1999,
      "velocity": 91,
      "chip": "ym2612"
    },
    {
      "channel": 3,
      "note": 62,
      "start": 31.4056,
      "duration": 0.0784,
      "velocity": 91,
      "chip": "ym2612"
    },
    {
      "channel": 5,
      "note": 55,
      "start": 31.4057,
      "duration": 0.1451,
      "velocity": 127,
      "chip": "ym2612"
    },
    {
      "channel": 3,
      "note": 62,
      "start": 31.5014,
      "duration": 0.0825,
      "velocity": 91,
      "chip": "ym2612"
    },
    {
      "channel": 0,
      "note": 67,
      "start": 31.6054,
      "duration": 0.1971,
      "velocity": 91,
      "chip": "ym2612"
    },
    {
      "channel": 1,
      "note": 64,
      "start": 31.6056,
      "duration": 0.4049,
      "velocity": 78,
      "chip": "ym2612"
    },
    {
      "channel": 2,
      "note": 49,
      "start": 31.6056,
      "duration": 0.345,
      "velocity": 119,
      "chip": "ym2612"
    },
    {
      "channel": 3,
      "note": 61,
      "start": 31.6057,
      "duration": 0.1616,
      "velocity": 91,
      "chip": "ym2612"
    },
    {
      "channel": 4,
      "note": 85,
      "start": 31.6057,
      "duration": 0.0282,
      "velocity": 114,
      "chip": "ym2612"
    },
    {
      "channel": 5,
      "note": 55,
      "start": 31.6058,
      "duration": 0.0956,
      "velocity": 127,
      "chip": "ym2612"
    },
    {
      "channel": 5,
      "note": 55,
      "start": 31.7014,
      "duration": 0.1013,
      "velocity": 127,
      "chip": "ym2612"
    },
    {
      "channel": 0,
      "note": 69,
      "start": 31.8026,
      "duration": 0.2077,
      "velocity": 91,
      "chip": "ym2612"
    },
    {
      "channel": 3,
      "note": 64,
      "start": 31.8027,
      "duration": 0.1646,
      "velocity": 91,
      "chip": "ym2612"
    },
    {
      "channel": 5,
      "note": 55,
      "start": 31.8028,
      "duration": 0.0984,
      "velocity": 127,
      "chip": "ym2612"
    },
    {
      "channel": 5,
      "note": 55,
      "start": 31.9013,
      "duration": 0.1095,
      "velocity": 101,
      "chip": "ym2612"
    },
    {
      "channel": 0,
      "note": 71,
      "start": 32.0104,
      "duration": 1.5976,
      "velocity": 91,
      "chip": "ym2612"
    },
    {
      "channel": 1,
      "note": 78,
      "start": 32.0105,
      "duration": 1.5975,
      "velocity": 78,
      "chip": "ym2612"
    },
    {
      "channel": 2,
      "note": 59,
      "start": 32.0106,
      "duration": 0.5068,
      "velocity": 119,
      "chip": "ym2612"
    },
    {
      "channel": 3,
      "note": 66,
      "start": 32.0106,
      "duration": 0.5068,
      "velocity": 91,
      "chip": "ym2612"
    },
    {
      "channel": 4,
      "note": 85,
      "start": 32.0107,
      "duration": 0.0232,
      "velocity": 114,
      "chip": "ym2612"
    },
    {
      "channel": 5,
      "note": 36,
      "start": 32.0108,
      "duration": 0.09,
      "velocity": 101,
      "chip": "ym2612"
    },
    {
      "channel": 2,
      "note": 59,
      "start": 32.6053,
      "duration": 0.5121,
      "velocity": 119,
      "chip": "ym2612"
    },
    {
      "channel": 3,
      "note": 62,
      "start": 32.6054,
      "duration": 0.5121,
      "velocity": 91,
      "chip": "ym2612"
    },
    {
      "channel": 4,
      "note": 85,
      "start": 32.6054,
      "duration": 0.0286,
      "velocity": 114,
      "chip": "ym2612"
    },
    {
      "channel": 5,
      "note": 55,
      "start": 32.6055,
      "duration": 0.1452,
      "velocity": 127,
      "chip": "ym2612"
    },
    {
      "channel": 5,
      "note": 36,
      "start": 33.0037,
      "duration": 0.0976,
      "velocity": 101,
      "chip": "ym2612"
    },
    {
      "channel": 5,
      "note": 36,
      "start": 33.1013,
      "duration": 0.1051,
      "velocity": 127,
      "chip": "ym2612"
    },
    {
      "channel": 2,
      "note": 57,
      "start": 33.2063,
      "duration": 0.3445,
      "velocity": 119,
      "chip": "ym2612"
    },
    {
      "channel": 3,
      "note": 67,
      "start": 33.2063,
      "duration": 0.3445,
      "velocity": 91,
      "chip": "ym2612"
    },
    {
      "channel": 4,
      "note": 88,
      "start": 33.2064,
      "duration": 0.1444,
      "velocity": 114,
      "chip": "ym2612"
    },
    {
      "channel": 5,
      "note": 55,
      "start": 33.2065,
      "duration": 0.1443,
      "velocity": 127,
      "chip": "ym2612"
    },
    {
      "channel": 0,
      "note": 73,
      "start": 33.608,
      "duration": 1.5999,
      "velocity": 91,
      "chip": "ym2612"
    },
    {
      "channel": 1,
      "note": 79,
      "start": 33.6081,
      "duration": 1.5999,
      "velocity": 78,
      "chip": "ym2612"
    },
    {
      "channel": 2,
      "note": 55,
      "start": 33.6082,
      "duration": 0.5092,
      "velocity": 119,
      "chip": "ym2612"
    },
    {
      "channel": 3,
      "note": 67,
      "start": 33.6082,
      "duration": 0.5092,
      "velocity": 91,
      "chip": "ym2612"
    },
    {
      "channel": 4,
      "note": 85,
      "start": 33.6083,
      "duration": 0.059,
      "velocity": 114,
      "chip": "ym2612"
    },
    {
      "channel": 5,
      "note": 36,
      "start": 33.6083,
      "duration": 0.0924,
      "velocity": 101,
      "chip": "ym2612"
    },
    {
      "channel": 2,
      "note": 55,
      "start": 34.2054,
      "duration": 0.512,
      "velocity": 119,
      "chip": "ym2612"
    },
    {
      "channel": 3,
      "note": 64,
      "start": 34.2054,
      "duration": 0.512,
      "velocity": 91,
      "chip": "ym2612"
    },
    {
      "channel": 4,
      "note": 85,
      "start": 34.2055,
      "duration": 0.0618,
      "velocity": 114,
      "chip": "ym2612"
    },
    {
      "channel": 5,
      "note": 55,
      "start": 34.2056,
      "duration": 0.1452,
      "velocity": 127,
      "chip": "ym2612"
    },
    {
      "channel": 5,
      "note": 36,
      "start": 34.6038,
      "duration": 0.0975,
      "velocity": 101,
      "chip": "ym2612"
    },
    {
      "channel": 5,
      "note": 36,
      "start": 34.7014,
      "duration": 0.1051,
      "velocity": 127,
      "chip": "ym2612"
    },
    {
      "channel": 2,
      "note": 54,
      "start": 34.8063,
      "duration": 0.3445,
      "velocity": 119,
      "chip": "ym2612"
    },
    {
      "channel": 3,
      "note": 69,
      "start": 34.8064,
      "duration": 0.3444,
      "velocity": 91,
      "chip": "ym2612"
    },
    {
      "channel": 4,
      "note": 88,
      "start": 34.8064,
      "duration": 0.1444,
      "velocity": 114,
      "chip": "ym2612"
    },
    {
      "channel": 5,
      "note": 55,
      "start": 34.8066,
      "duration": 0.1443,
      "velocity": 127,
      "chip": "ym2612"
    },
    {
      "channel": 0,
      "note": 74,
      "start": 35.208,
      "duration": 1.6002,
      "velocity": 91,
      "chip": "ym2612"
    },
    {
      "channel": 1,
      "note": 69,
      "start": 35.2081,
      "duration": 1.6002,
      "velocity": 78,
      "chip": "ym2612"
    },
    {
      "channel": 2,
      "note": 52,
      "start": 35.2082,
      "duration": 0.5092,
      "velocity": 119,
      "chip": "ym2612"
    },
    {
      "channel": 3,
      "note": 69,
      "start": 35.2082,
      "duration": 0.5092,
      "velocity": 91,
      "chip": "ym2612"
    },
    {
      "channel": 4,
      "note": 85,
      "start": 35.2083,
      "duration": 0.059,
      "velocity": 114,
      "chip": "ym2612"
    },
    {
      "channel": 5,
      "note": 36,
      "start": 35.2083,
      "duration": 0.0924,
      "velocity": 101,
      "chip": "ym2612"
    },
    {
      "channel": 2,
      "note": 52,
      "start": 35.8054,
      "duration": 0.512,
      "velocity": 119,
      "chip": "ym2612"
    },
    {
      "channel": 3,
      "note": 67,
      "start": 35.8054,
      "duration": 0.512,
      "velocity": 91,
      "chip": "ym2612"
    },
    {
      "channel": 4,
      "note": 85,
      "start": 35.8055,
      "duration": 0.0618,
      "velocity": 114,
      "chip": "ym2612"
    },
    {
      "channel": 5,
      "note": 55,
      "start": 35.8056,
      "duration": 0.1452,
      "velocity": 127,
      "chip": "ym2612"
    },
    {
      "channel": 5,
      "note": 36,
      "start": 36.2037,
      "duration": 0.0976,
      "velocity": 101,
      "chip": "ym2612"
    },
    {
      "channel": 5,
      "note": 36,
      "start": 36.3014,
      "duration": 0.1051,
      "velocity": 127,
      "chip": "ym2612"
    },
    {
      "channel": 2,
      "note": 55,
      "start": 36.4063,
      "duration": 0.3445,
      "velocity": 119,
      "chip": "ym2612"
    },
    {
      "channel": 3,
      "note": 66,
      "start": 36.4063,
      "duration": 0.3445,
      "velocity": 91,
      "chip": "ym2612"
    },
    {
      "channel": 4,
      "note": 88,
      "start": 36.4064,
      "duration": 0.1444,
      "velocity": 114,
      "chip": "ym2612"
    },
    {
      "channel": 5,
      "note": 55,
      "start": 36.4065,
      "duration": 0.1443,
      "velocity": 127,
      "chip": "ym2612"
    },
    {
      "channel": 0,
      "note": 76,
      "start": 36.8082,
      "duration": 0.7942,
      "velocity": 91,
      "chip": "ym2612"
    },
    {
      "channel": 1,
      "note": 67,
      "start": 36.8083,
      "duration": 1.6001,
      "velocity": 78,
      "chip": "ym2612"
    },
    {
      "channel": 2,
      "note": 54,
      "start": 36.8084,
      "duration": 0.1589,
      "velocity": 119,
      "chip": "ym2612"
    },
    {
      "channel": 3,
      "note": 64,
      "start": 36.8085,
      "duration": 0.5088,
      "velocity": 91,
      "chip": "ym2612"
    },
    {
      "channel": 4,
      "note": 85,
      "start": 36.8085,
      "duration": 0.0587,
      "velocity": 114,
      "chip": "ym2612"
    },
    {
      "channel": 5,
      "note": 55,
      "start": 36.8086,
      "duration": 0.0928,
      "velocity": 127,
      "chip": "ym2612"
    },
    {
      "channel": 5,
      "note": 55,
      "start": 36.9014,
      "duration": 0.1006,
      "velocity": 127,
      "chip": "ym2612"
    },
    {
      "channel": 2,
      "note": 54,
      "start": 37.0019,
      "duration": 0.082,
      "velocity": 119,
      "chip": "ym2612"
    },
    {
      "channel": 5,
      "note": 55,
      "start": 37.0021,
      "duration": 0.0998,
      "velocity": 127,
      "chip": "ym2612"
    },
    {
      "channel": 2,
      "note": 54,
      "start": 37.1017,
      "duration": 0.0822,
      "velocity": 119,
      "chip": "ym2612"
    },
    {
      "channel": 5,
      "note": 55,
      "start": 37.1019,
      "duration": 0.1,
      "velocity": 127,
      "chip": "ym2612"
    },
    {
      "channel": 2,
      "note": 54,
      "start": 37.2018,
      "duration": 0.1655,
      "velocity": 119,
      "chip": "ym2612"
    },
    {
      "channel": 5,
      "note": 55,
      "start": 37.2019,
      "duration": 0.1488,
      "velocity": 127,
      "chip": "ym2612"
    },
    {
      "channel": 2,
      "note": 54,
      "start": 37.4027,
      "duration": 0.0812,
      "velocity": 119,
      "chip": "ym2612"
    },
    {
      "channel": 3,
      "note": 67,
      "start": 37.4028,
      "duration": 0.5145,
      "velocity": 91,
      "chip": "ym2612"
    },
    {
      "channel": 4,
      "note": 85,
      "start": 37.4028,
      "duration": 0.0644,
      "velocity": 114,
      "chip": "ym2612"
    },
    {
      "channel": 5,
      "note": 55,
      "start": 37.4029,
      "duration": 0.1478,
      "velocity": 127,
      "chip": "ym2612"
    },
    {
      "channel": 2,
      "note": 54,
      "start": 37.5012,
      "duration": 0.0827,
      "velocity": 119,
      "chip": "ym2612"
    },
    {
      "channel": 0,
      "note": 78,
      "start": 37.6025,
      "duration": 0.8059,
      "velocity": 91,
      "chip": "ym2612"
    },
    {
      "channel": 2,
      "note": 57,
      "start": 37.6026,
      "duration": 0.348,
      "velocity": 119,
      "chip": "ym2612"
    },
    {
      "channel": 5,
      "note": 55,
      "start": 37.6027,
      "duration": 0.148,
      "velocity": 127,
      "chip": "ym2612"
    },
    {
      "channel": 5,
      "note": 36,
      "start": 37.8037,
      "duration": 0.0969,
      "velocity": 101,
      "chip": "ym2612"
    },
    {
      "channel": 2,
      "note": 58,
      "start": 38.0062,
      "duration": 0.3445,
      "velocity": 119,
      "chip": "ym2612"
    },
    {
      "channel": 3,
      "note": 66,
      "start": 38.0063,
      "duration": 0.3445,
      "velocity": 91,
      "chip": "ym2612"
    },
    {
      "channel": 4,
      "note": 88,
      "start": 38.0063,
      "duration": 0.1445,
      "velocity": 114,
      "chip": "ym2612"
    },
    {
      "channel": 5,
      "note": 55,
      "start": 38.0064,
      "duration": 0.1444,
      "velocity": 127,
      "chip": "ym2612"
    },
    {
      "channel": 5,
      "note": 36,
      "start": 38.2038,
      "duration": 0.0968,
      "velocity": 101,
      "chip": "ym2612"
    },
    {
      "channel": 0,
      "note": 71,
      "start": 38.4085,
      "duration": 1.5995,
      "velocity": 91,
      "chip": "ym2612"
    },
    {
      "channel": 1,
      "note": 78,
      "start": 38.4085,
      "duration": 1.5995,
      "velocity": 78,
      "chip": "ym2612"
    },
    {
      "channel": 2,
      "note": 59,
      "start": 38.4086,
      "duration": 0.5088,
      "velocity": 119,
      "chip": "ym2612"
    },
    {
      "channel": 3,
      "note": 66,
      "start": 38.4087,
      "duration": 0.5088,
      "velocity": 91,
      "chip": "ym2612"
    },
    {
      "channel": 4,
      "note": 85,
      "start": 38.4087,
      "duration": 0.0585,
      "velocity": 114,
      "chip": "ym2612"
    },
    {
      "channel": 5,
      "note": 36,
      "start": 38.4088,
      "duration": 0.092,
      "velocity": 101,
      "chip": "ym2612"
    },
    {
      "channel": 2,
      "note": 59,
      "start": 39.0054,
      "duration": 0.512,
      "velocity": 119,
      "chip": "ym2612"
    },
    {
      "channel": 3,
      "note": 62,
      "start": 39.0054,
      "duration": 0.512,
      "velocity": 91,
      "chip": "ym2612"
    },
    {
      "channel": 4,
      "note": 85,
      "start": 39.0055,
      "duration": 0.0618,
      "velocity": 114,
      "chip": "ym2612"
    },
    {
      "channel": 5,
      "note": 55,
      "start": 39.0056,
      "duration": 0.1452,
      "velocity": 127,
      "chip": "ym2612"
    },
    {
      "channel": 5,
      "note": 36,
      "start": 39.4037,
      "duration": 0.0976,
      "velocity": 101,
      "chip": "ym2612"
    },
    {
      "channel": 5,
      "note": 36,
      "start": 39.5014,
      "duration": 0.1051,
      "velocity": 127,
      "chip": "ym2612"
    },
    {
      "channel": 2,
      "note": 57,
      "start": 39.6063,
      "duration": 0.3445,
      "velocity": 119,
      "chip": "ym2612"
    },
    {
      "channel": 3,
      "note": 67,
      "start": 39.6063,
      "duration": 0.3445,
      "velocity": 91,
      "chip": "ym2612"
    },
    {
      "channel": 4,
      "note": 88,
      "start": 39.6064,
      "duration": 0.1444,
      "velocity": 114,
      "chip": "ym2612"
    },
    {
      "channel": 5,
      "note": 55,
      "start": 39.6065,
      "duration": 0.1443,
      "velocity": 127,
      "chip": "ym2612"
    },
    {
      "channel": 0,
      "note": 73,
      "start": 40.008,
      "duration": 1.5999,
      "velocity": 91,
      "chip": "ym2612"
    },
    {
      "channel": 1,
      "note": 79,
      "start": 40.0081,
      "duration": 1.5999,
      "velocity": 78,
      "chip": "ym2612"
    },
    {
      "channel": 2,
      "note": 55,
      "start": 40.0082,
      "duration": 0.5092,
      "velocity": 119,
      "chip": "ym2612"
    },
    {
      "channel": 3,
      "note": 67,
      "start": 40.0082,
      "duration": 0.5092,
      "velocity": 91,
      "chip": "ym2612"
    },
    {
      "channel": 4,
      "note": 85,
      "start": 40.0083,
      "duration": 0.059,
      "velocity": 114,
      "chip": "ym2612"
    },
    {
      "channel": 5,
      "note": 36,
      "start": 40.0083,
      "duration": 0.0924,
      "velocity": 101,
      "chip": "ym2612"
    },
    {
      "channel": 2,
      "note": 55,
      "start": 40.6054,
      "duration": 0.512,
      "velocity": 119,
      "chip": "ym2612"
    },
    {
      "channel": 3,
      "note": 64,
      "start": 40.6054,
      "duration": 0.512,
      "velocity": 91,
      "chip": "ym2612"
    },
    {
      "channel": 4,
      "note": 85,
      "start": 40.6055,
      "duration": 0.0618,
      "velocity": 114,
      "chip": "ym2612"
    },
    {
      "channel": 5,
      "note": 55,
      "start": 40.6056,
      "duration": 0.1452,
      "velocity": 127,
      "chip": "ym2612"
    },
    {
      "channel": 5,
      "note": 36,
      "start": 41.0038,
      "duration": 0.0975,
      "velocity": 101,
      "chip": "ym2612"
    },
    {
      "channel": 5,
      "note": 36,
      "start": 41.1014,
      "duration": 0.1051,
      "velocity": 127,
      "chip": "ym2612"
    },
    {
      "channel": 2,
      "note": 54,
      "start": 41.2063,
      "duration": 0.3445,
      "velocity": 119,
      "chip": "ym2612"
    },
    {
      "channel": 3,
      "note": 69,
      "start": 41.2064,
      "duration": 0.3444,
      "velocity": 91,
      "chip": "ym2612"
    },
    {
      "channel": 4,
      "note": 88,
      "start": 41.2064,
      "duration": 0.1444,
      "velocity": 114,
      "chip": "ym2612"
    },
    {
      "channel": 5,
      "note": 55,
      "start": 41.2066,
      "duration": 0.1443,
      "velocity": 127,
      "chip": "ym2612"
    },
    {
      "channel": 0,
      "note": 74,
      "start": 41.608,
      "duration": 1.6001,
      "velocity": 91,
      "chip": "ym2612"
    },
    {
      "channel": 1,
      "note": 76,
      "start": 41.6081,
      "duration": 1.6001,
      "velocity": 78,
      "chip": "ym2612"
    },
    {
      "channel": 2,
      "note": 52,
      "start": 41.6082,
      "duration": 0.5092,
      "velocity": 119,
      "chip": "ym2612"
    },
    {
      "channel": 3,
      "note": 69,
      "start": 41.6082,
      "duration": 0.5092,
      "velocity": 91,
      "chip": "ym2612"
    },
    {
      "channel": 4,
      "note": 85,
      "start": 41.6083,
      "duration": 0.059,
      "velocity": 114,
      "chip": "ym2612"
    },
    {
      "channel": 5,
      "note": 36,
      "start": 41.6083,
      "duration": 0.0924,
      "velocity": 101,
      "chip": "ym2612"
    },
    {
      "channel": 2,
      "note": 52,
      "start": 42.2054,
      "duration": 0.512,
      "velocity": 119,
      "chip": "ym2612"
    },
    {
      "channel": 3,
      "note": 67,
      "start": 42.2054,
      "duration": 0.512,
      "velocity": 91,
      "chip": "ym2612"
    },
    {
      "channel": 4,
      "note": 85,
      "start": 42.2055,
      "duration": 0.0618,
      "velocity": 114,
      "chip": "ym2612"
    },
    {
      "channel": 5,
      "note": 55,
      "start": 42.2056,
      "duration": 0.1452,
      "velocity": 127,
      "chip": "ym2612"
    },
    {
      "channel": 5,
      "note": 36,
      "start": 42.6037,
      "duration": 0.0976,
      "velocity": 101,
      "chip": "ym2612"
    },
    {
      "channel": 5,
      "note": 36,
      "start": 42.7014,
      "duration": 0.1051,
      "velocity": 127,
      "chip": "ym2612"
    },
    {
      "channel": 2,
      "note": 55,
      "start": 42.8063,
      "duration": 0.3445,
      "velocity": 119,
      "chip": "ym2612"
    },
    {
      "channel": 3,
      "note": 66,
      "start": 42.8063,
      "duration": 0.3445,
      "velocity": 91,
      "chip": "ym2612"
    },
    {
      "channel": 4,
      "note": 88,
      "start": 42.8064,
      "duration": 0.1444,
      "velocity": 114,
      "chip": "ym2612"
    },
    {
      "channel": 5,
      "note": 55,
      "start": 42.8065,
      "duration": 0.1443,
      "velocity": 127,
      "chip": "ym2612"
    },
    {
      "channel": 0,
      "note": 76,
      "start": 43.2082,
      "duration": 0.7943,
      "velocity": 91,
      "chip": "ym2612"
    },
    {
      "channel": 1,
      "note": 78,
      "start": 43.2083,
      "duration": 1.6022,
      "velocity": 78,
      "chip": "ym2612"
    },
    {
      "channel": 2,
      "note": 54,
      "start": 43.2083,
      "duration": 0.159,
      "velocity": 119,
      "chip": "ym2612"
    },
    {
      "channel": 3,
      "note": 64,
      "start": 43.2084,
      "duration": 0.5089,
      "velocity": 91,
      "chip": "ym2612"
    },
    {
      "channel": 4,
      "note": 85,
      "start": 43.2085,
      "duration": 0.0588,
      "velocity": 114,
      "chip": "ym2612"
    },
    {
      "channel": 5,
      "note": 55,
      "start": 43.2085,
      "duration": 0.0929,
      "velocity": 127,
      "chip": "ym2612"
    },
    {
      "channel": 5,
      "note": 55,
      "start": 43.3015,
      "duration": 0.1005,
      "velocity": 127,
      "chip": "ym2612"
    },
    {
      "channel": 2,
      "note": 54,
      "start": 43.4019,
      "duration": 0.082,
      "velocity": 119,
      "chip": "ym2612"
    },
    {
      "channel": 5,
      "note": 55,
      "start": 43.4021,
      "duration": 0.0998,
      "velocity": 127,
      "chip": "ym2612"
    },
    {
      "channel": 2,
      "note": 54,
      "start": 43.5017,
      "duration": 0.0822,
      "velocity": 119,
      "chip": "ym2612"
    },
    {
      "channel": 5,
      "note": 55,
      "start": 43.5019,
      "duration": 0.1,
      "velocity": 127,
      "chip": "ym2612"
    },
    {
      "channel": 2,
      "note": 54,
      "start": 43.6018,
      "duration": 0.1655,
      "velocity": 119,
      "chip": "ym2612"
    },
    {
      "channel": 5,
      "note": 55,
      "start": 43.6019,
      "duration": 0.1488,
      "velocity": 127,
      "chip": "ym2612"
    },
    {
      "channel": 2,
      "note": 54,
      "start": 43.8027,
      "duration": 0.0812,
      "velocity": 119,
      "chip": "ym2612"
    },
    {
      "channel": 3,
      "note": 67,
      "start": 43.8028,
      "duration": 0.5146,
      "velocity": 91,
      "chip": "ym2612"
    },
    {
      "channel": 4,
      "note": 85,
      "start": 43.8028,
      "duration": 0.0644,
      "velocity": 114,
      "chip": "ym2612"
    },
    {
      "channel": 5,
      "note": 55,
      "start": 43.8029,
      "duration": 0.1478,
      "velocity": 127,
      "chip": "ym2612"
    },
    {
      "channel": 2,
      "note": 54,
      "start": 43.9012,
      "duration": 0.0827,
      "velocity": 119,
      "chip": "ym2612"
    },
    {
      "channel": 0,
      "note": 78,
      "start": 44.0025,
      "duration": 0.4043,
      "velocity": 91,
      "chip": "ym2612"
    },
    {
      "channel": 2,
      "note": 57,
      "start": 44.0026,
      "duration": 0.348,
      "velocity": 119,
      "chip": "ym2612"
    },
    {
      "channel": 5,
      "note": 55,
      "start": 44.0026,
      "duration": 0.1481,
      "velocity": 127,
      "chip": "ym2612"
    },
    {
      "channel": 5,
      "note": 36,
      "start": 44.2037,
      "duration": 0.0971,
      "velocity": 101,
      "chip": "ym2612"
    },
    {
      "channel": 0,
      "note": 69,
      "start": 44.4069,
      "duration": 0.4034,
      "velocity": 91,
      "chip": "ym2612"
    },
    {
      "channel": 2,
      "note": 58,
      "start": 44.407,
      "duration": 0.3438,
      "velocity": 119,
      "chip": "ym2612"
    },
    {
      "channel": 3,
      "note": 70,
      "start": 44.407,
      "duration": 0.3438,
      "velocity": 91,
      "chip": "ym2612"
    },
    {
      "channel": 4,
      "note": 88,
      "start": 44.4071,
      "duration": 0.1437,
      "velocity": 114,
      "chip": "ym2612"
    },
    {
      "channel": 5,
      "note": 55,
      "start": 44.4071,
      "duration": 0.1437,
      "velocity": 127,
      "chip": "ym2612"
    },
    {
      "channel": 5,
      "note": 36,
      "start": 44.6038,
      "duration": 0.0968,
      "velocity": 101,
      "chip": "ym2612"
    },
    {
      "channel": 0,
      "note": 59,
      "start": 44.8104,
      "duration": 0.7912,
      "velocity": 91,
      "chip": "ym2612"
    },
    {
      "channel": 1,
      "note": 59,
      "start": 44.8105,
      "duration": 0.791,
      "velocity": 78,
      "chip": "ym2612"
    },
    {
      "channel": 2,
      "note": 47,
      "start": 44.8106,
      "duration": 0.1567,
      "velocity": 119,
      "chip": "ym2612"
    },
    {
      "channel": 3,
      "note": 71,
      "start": 44.8106,
      "duration": 0.34,
      "velocity": 91,
      "chip": "ym2612"
    },
    {
      "channel": 4,
      "note": 85,
      "start": 44.8107,
      "duration": 0.0566,
      "velocity": 114,
      "chip": "ym2612"
    },
    {
      "channel": 5,
      "note": 55,
      "start": 44.8108,
      "duration": 0.0907,
      "velocity": 127,
      "chip": "ym2612"
    },
    {
      "channel": 5,
      "note": 55,
      "start": 44.9015,
      "duration": 0.1005,
      "velocity": 127,
      "chip": "ym2612"
    },
    {
      "channel": 2,
      "note": 47,
      "start": 45.0019,
      "duration": 0.082,
      "velocity": 119,
      "chip": "ym2612"
    },
    {
      "channel": 5,
      "note": 55,
      "start": 45.0021,
      "duration": 0.0998,
      "velocity": 127,
      "chip": "ym2612"
    },
    {
      "channel": 2,
      "note": 47,
      "start": 45.1017,
      "duration": 0.0822,
      "velocity": 119,
      "chip": "ym2612"
    },
    {
      "channel": 5,
      "note": 55,
      "start": 45.1019,
      "duration": 0.1012,
      "velocity": 127,
      "chip": "ym2612"
    },
    {
      "channel": 2,
      "note": 47,
      "start": 45.2029,
      "duration": 0.1644,
      "velocity": 119,
      "chip": "ym2612"
    },
    {
      "channel": 4,
      "note": 85,
      "start": 45.2029,
      "duration": 0.0643,
      "velocity": 114,
      "chip": "ym2612"
    },
    {
      "channel": 5,
      "note": 55,
      "start": 45.203,
      "duration": 0.098,
      "velocity": 127,
      "chip": "ym2612"
    },
    {
      "channel": 5,
      "note": 36,
      "start": 45.404,
      "duration": 0.0966,
      "velocity": 101,
      "chip": "ym2612"
    }
  ]
}