{
  "track_name": "23 - Tragedy",
  "duration_sec": 75.037,
  "sample_rate": 44100,
  "note_count": 295,
  "unique_pitches": 27,
  "pitch_range": 46,
  "avg_note_duration": 0.9976,
  "reconstruction_stats": {
    "notes_reconstructed": 295,
    "keyon_events": 295,
    "keyoff_events": 290,
    "orphan_keyons": 5,
    "unique_pitches": 27,
    "pitch_range": 46,
    "avg_duration_sec": 0.9976
  },
  "metadata": {
    "source": "P\\Pier Solar and the Great Architects\\23 - Tragedy.vgz"
  },
  "notes": [
    {
      "channel": 1,
      "note": 60,
      "start": 0.1803,
      "duration": 2.0603,
      "velocity": 90,
      "chip": "ym2612"
    },
    {
      "channel": 2,
      "note": 65,
      "start": 0.1817,
      "duration": 2.0591,
      "velocity": 90,
      "chip": "ym2612"
    },
    {
      "channel": 4,
      "note": 56,
      "start": 0.1832,
      "duration": 2.058,
      "velocity": 90,
      "chip": "ym2612"
    },
    {
      "channel": 1,
      "note": 80,
      "start": 2.2407,
      "duration": 2.0616,
      "velocity": 90,
      "chip": "ym2612"
    },
    {
      "channel": 2,
      "note": 72,
      "start": 2.241,
      "duration": 2.0616,
      "velocity": 90,
      "chip": "ym2612"
    },
    {
      "channel": 4,
      "note": 65,
      "start": 2.2413,
      "duration": 2.0616,
      "velocity": 90,
      "chip": "ym2612"
    },
    {
      "channel": 1,
      "note": 77,
      "start": 4.3024,
      "duration": 2.0616,
      "velocity": 90,
      "chip": "ym2612"
    },
    {
      "channel": 2,
      "note": 70,
      "start": 4.3027,
      "duration": 2.0616,
      "velocity": 90,
      "chip": "ym2612"
    },
    {
      "channel": 4,
      "note": 61,
      "start": 4.303,
      "duration": 2.0616,
      "velocity": 90,
      "chip": "ym2612"
    },
    {
      "channel": 1,
      "note": 77,
      "start": 6.3642,
      "duration": 1.0307,
      "velocity": 90,
      "chip": "ym2612"
    },
    {
      "channel": 2,
      "note": 68,
      "start": 6.3645,
      "duration": 1.0307,
      "velocity": 90,
      "chip": "ym2612"
    },
    {
      "channel": 4,
      "note": 61,
      "start": 6.3648,
      "duration": 1.0307,
      "velocity": 90,
      "chip": "ym2612"
    },
    {
      "channel": 1,
      "note": 75,
      "start": 7.3951,
      "duration": 1.0309,
      "velocity": 90,
      "chip": "ym2612"
    },
    {
      "channel": 2,
      "note": 67,
      "start": 7.3954,
      "duration": 1.0309,
      "velocity": 90,
      "chip": "ym2612"
    },
    {
      "channel": 4,
      "note": 60,
      "start": 7.3957,
      "duration": 1.0309,
      "velocity": 90,
      "chip": "ym2612"
    },
    {
      "channel": 1,
      "note": 60,
      "start": 8.4261,
      "duration": 2.0615,
      "velocity": 90,
      "chip": "ym2612"
    },
    {
      "channel": 2,
      "note": 65,
      "start": 8.4264,
      "duration": 2.0615,
      "velocity": 90,
      "chip": "ym2612"
    },
    {
      "channel": 4,
      "note": 56,
      "start": 8.4267,
      "duration": 2.0615,
      "velocity": 90,
      "chip": "ym2612"
    },
    {
      "channel": 1,
      "note": 68,
      "start": 10.4877,
      "duration": 2.0616,
      "velocity": 90,
      "chip": "ym2612"
    },
    {
      "channel": 2,
      "note": 72,
      "start": 10.488,
      "duration": 2.0616,
      "velocity": 90,
      "chip": "ym2612"
    },
    {
      "channel": 4,
      "note": 65,
      "start": 10.4883,
      "duration": 2.0617,
      "velocity": 90,
      "chip": "ym2612"
    },
    {
      "channel": 1,
      "note": 70,
      "start": 12.5495,
      "duration": 2.0616,
      "velocity": 90,
      "chip": "ym2612"
    },
    {
      "channel": 2,
      "note": 73,
      "start": 12.5498,
      "duration": 2.0616,
      "velocity": 90,
      "chip": "ym2612"
    },
    {
      "channel": 4,
      "note": 65,
      "start": 12.5501,
      "duration": 2.0616,
      "velocity": 90,
      "chip": "ym2612"
    },
    {
      "channel": 1,
      "note": 65,
      "start": 14.6113,
      "duration": 1.0307,
      "velocity": 90,
      "chip": "ym2612"
    },
    {
      "channel": 2,
      "note": 68,
      "start": 14.6115,
      "duration": 1.0307,
      "velocity": 90,
      "chip": "ym2612"
    },
    {
      "channel": 4,
      "note": 61,
      "start": 14.6118,
      "duration": 1.0307,
      "velocity": 90,
      "chip": "ym2612"
    },
    {
      "channel": 1,
      "note": 63,
      "start": 15.6421,
      "duration": 1.031,
      "velocity": 90,
      "chip": "ym2612"
    },
    {
      "channel": 2,
      "note": 67,
      "start": 15.6424,
      "duration": 1.031,
      "velocity": 90,
      "chip": "ym2612"
    },
    {
      "channel": 4,
      "note": 60,
      "start": 15.6427,
      "duration": 1.031,
      "velocity": 90,
      "chip": "ym2612"
    },
    {
      "channel": 1,
      "note": 65,
      "start": 16.6733,
      "duration": 2.0614,
      "velocity": 90,
      "chip": "ym2612"
    },
    {
      "channel": 2,
      "note": 68,
      "start": 16.6735,
      "duration": 2.0614,
      "velocity": 90,
      "chip": "ym2612"
    },
    {
      "channel": 4,
      "note": 61,
      "start": 16.6738,
      "duration": 2.0614,
      "velocity": 90,
      "chip": "ym2612"
    },
    {
      "channel": 1,
      "note": 61,
      "start": 18.7348,
      "duration": 2.0616,
      "velocity": 90,
      "chip": "ym2612"
    },
    {
      "channel": 2,
      "note": 65,
      "start": 18.7351,
      "duration": 2.0616,
      "velocity": 90,
      "chip": "ym2612"
    },
    {
      "channel": 4,
      "note": 58,
      "start": 18.7354,
      "duration": 2.0616,
      "velocity": 90,
      "chip": "ym2612"
    },
    {
      "channel": 1,
      "note": 68,
      "start": 20.7966,
      "duration": 2.0616,
      "velocity": 90,
      "chip": "ym2612"
    },
    {
      "channel": 2,
      "note": 72,
      "start": 20.7968,
      "duration": 2.0616,
      "velocity": 90,
      "chip": "ym2612"
    },
    {
      "channel": 4,
      "note": 65,
      "start": 20.7971,
      "duration": 2.0616,
      "velocity": 90,
      "chip": "ym2612"
    },
    {
      "channel": 1,
      "note": 61,
      "start": 22.8583,
      "duration": 2.0618,
      "velocity": 90,
      "chip": "ym2612"
    },
    {
      "channel": 2,
      "note": 64,
      "start": 22.8585,
      "duration": 2.0618,
      "velocity": 90,
      "chip": "ym2612"
    },
    {
      "channel": 4,
      "note": 58,
      "start": 22.8589,
      "duration": 2.0618,
      "velocity": 90,
      "chip": "ym2612"
    },
    {
      "channel": 1,
      "note": 68,
      "start": 24.9202,
      "duration": 2.0615,
      "velocity": 90,
      "chip": "ym2612"
    },
    {
      "channel": 2,
      "note": 73,
      "start": 24.9205,
      "duration": 2.0615,
      "velocity": 90,
      "chip": "ym2612"
    },
    {
      "channel": 4,
      "note": 65,
      "start": 24.9208,
      "duration": 2.0615,
      "velocity": 90,
      "chip": "ym2612"
    },
    {
      "channel": 1,
      "note": 68,
      "start": 26.9818,
      "duration": 2.0616,
      "velocity": 90,
      "chip": "ym2612"
    },
    {
      "channel": 2,
      "note": 72,
      "start": 26.9821,
      "duration": 2.0616,
      "velocity": 90,
      "chip": "ym2612"
    },
    {
      "channel": 4,
      "note": 65,
      "start": 26.9824,
      "duration": 2.0616,
      "velocity": 90,
      "chip": "ym2612"
    },
    {
      "channel": 1,
      "note": 67,
      "start": 29.0436,
      "duration": 1.0307,
      "velocity": 90,
      "chip": "ym2612"
    },
    {
      "channel": 2,
      "note": 70,
      "start": 29.0439,
      "duration": 1.0307,
      "velocity": 90,
      "chip": "ym2612"
    },
    {
      "channel": 4,
      "note": 63,
      "start": 29.0442,
      "duration": 1.0307,
      "velocity": 90,
      "chip": "ym2612"
    },
    {
      "channel": 1,
      "note": 62,
      "start": 30.0745,
      "duration": 1.0307,
      "velocity": 90,
      "chip": "ym2612"
    },
    {
      "channel": 2,
      "note": 67,
      "start": 30.0747,
      "duration": 1.0307,
      "velocity": 90,
      "chip": "ym2612"
    },
    {
      "channel": 4,
      "note": 58,
      "start": 30.0751,
      "duration": 1.0307,
      "velocity": 90,
      "chip": "ym2612"
    },
    {
      "channel": 1,
      "note": 68,
      "start": 31.1054,
      "duration": 1.0307,
      "velocity": 90,
      "chip": "ym2612"
    },
    {
      "channel": 2,
      "note": 72,
      "start": 31.1056,
      "duration": 1.0308,
      "velocity": 90,
      "chip": "ym2612"
    },
    {
      "channel": 4,
      "note": 63,
      "start": 31.1059,
      "duration": 1.0307,
      "velocity": 90,
      "chip": "ym2612"
    },
    {
      "channel": 1,
      "note": 62,
      "start": 32.1363,
      "duration": 1.0309,
      "velocity": 90,
      "chip": "ym2612"
    },
    {
      "channel": 2,
      "note": 65,
      "start": 32.1365,
      "duration": 1.0309,
      "velocity": 90,
      "chip": "ym2612"
    },
    {
      "channel": 4,
      "note": 58,
      "start": 32.1368,
      "duration": 1.0309,
      "velocity": 90,
      "chip": "ym2612"
    },
    {
      "channel": 1,
      "note": 60,
      "start": 33.1673,
      "duration": 4.1235,
      "velocity": 90,
      "chip": "ym2612"
    },
    {
      "channel": 2,
      "note": 63,
      "start": 33.1675,
      "duration": 4.1247,
      "velocity": 90,
      "chip": "ym2612"
    },
    {
      "channel": 4,
      "note": 55,
      "start": 33.1678,
      "duration": 4.1249,
      "velocity": 90,
      "chip": "ym2612"
    },
    {
      "channel": 0,
      "note": 80,
      "start": 36.7752,
      "duration": 0.2576,
      "velocity": 87,
      "chip": "ym2612"
    },
    {
      "channel": 0,
      "note": 82,
      "start": 37.0329,
      "duration": 0.2576,
      "velocity": 87,
      "chip": "ym2612"
    },
    {
      "channel": 0,
      "note": 84,
      "start": 37.2907,
      "duration": 1.2176,
      "velocity": 87,
      "chip": "ym2612"
    },
    {
      "channel": 1,
      "note": 65,
      "start": 37.2922,
      "duration": 1.7105,
      "velocity": 114,
      "chip": "ym2612"
    },
    {
      "channel": 2,
      "note": 65,
      "start": 37.2924,
      "duration": 3.4324,
      "velocity": 90,
      "chip": "ym2612"
    },
    {
      "channel": 3,
      "note": 80,
      "start": 37.2927,
      "duration": 0.2145,
      "velocity": 87,
      "chip": "ym2612"
    },
    {
      "channel": 4,
      "note": 60,
      "start": 37.2929,
      "duration": 3.9262,
      "velocity": 90,
      "chip": "ym2612"
    },
    {
      "channel": 3,
      "note": 82,
      "start": 37.5073,
      "duration": 0.2774,
      "velocity": 87,
      "chip": "ym2612"
    },
    {
      "channel": 3,
      "note": 84,
      "start": 37.7849,
      "duration": 1.218,
      "velocity": 87,
      "chip": "ym2612"
    },
    {
      "channel": 0,
      "note": 82,
      "start": 39.0025,
      "duration": 0.2164,
      "velocity": 87,
      "chip": "ym2612"
    },
    {
      "channel": 1,
      "note": 63,
      "start": 39.0028,
      "duration": 1.7218,
      "velocity": 114,
      "chip": "ym2612"
    },
    {
      "channel": 0,
      "note": 80,
      "start": 39.219,
      "duration": 0.2774,
      "velocity": 87,
      "chip": "ym2612"
    },
    {
      "channel": 0,
      "note": 79,
      "start": 39.4966,
      "duration": 0.2774,
      "velocity": 87,
      "chip": "ym2612"
    },
    {
      "channel": 3,
      "note": 82,
      "start": 39.497,
      "duration": 0.2774,
      "velocity": 87,
      "chip": "ym2612"
    },
    {
      "channel": 0,
      "note": 80,
      "start": 39.7741,
      "duration": 0.0842,
      "velocity": 87,
      "chip": "ym2612"
    },
    {
      "channel": 3,
      "note": 80,
      "start": 39.7745,
      "duration": 0.0842,
      "velocity": 87,
      "chip": "ym2612"
    },
    {
      "channel": 0,
      "note": 75,
      "start": 39.8585,
      "duration": 0.3617,
      "velocity": 87,
      "chip": "ym2612"
    },
    {
      "channel": 3,
      "note": 79,
      "start": 39.8588,
      "duration": 0.0839,
      "velocity": 87,
      "chip": "ym2612"
    },
    {
      "channel": 3,
      "note": 80,
      "start": 39.9429,
      "duration": 0.2776,
      "velocity": 87,
      "chip": "ym2612"
    },
    {
      "channel": 0,
      "note": 80,
      "start": 40.2203,
      "duration": 0.2774,
      "velocity": 87,
      "chip": "ym2612"
    },
    {
      "channel": 3,
      "note": 75,
      "start": 40.2207,
      "duration": 0.5056,
      "velocity": 87,
      "chip": "ym2612"
    },
    {
      "channel": 0,
      "note": 82,
      "start": 40.4978,
      "duration": 0.2265,
      "velocity": 87,
      "chip": "ym2612"
    },
    {
      "channel": 0,
      "note": 84,
      "start": 40.7245,
      "duration": 0.8559,
      "velocity": 87,
      "chip": "ym2612"
    },
    {
      "channel": 1,
      "note": 61,
      "start": 40.7247,
      "duration": 1.712,
      "velocity": 114,
      "chip": "ym2612"
    },
    {
      "channel": 2,
      "note": 72,
      "start": 40.7261,
      "duration": 0.2149,
      "velocity": 98,
      "chip": "ym2612"
    },
    {
      "channel": 3,
      "note": 80,
      "start": 40.7264,
      "duration": 0.2149,
      "velocity": 87,
      "chip": "ym2612"
    },
    {
      "channel": 2,
      "note": 77,
      "start": 40.9412,
      "duration": 0.2774,
      "velocity": 98,
      "chip": "ym2612"
    },
    {
      "channel": 3,
      "note": 82,
      "start": 40.9414,
      "duration": 0.2774,
      "velocity": 87,
      "chip": "ym2612"
    },
    {
      "channel": 2,
      "note": 84,
      "start": 41.2187,
      "duration": 0.2774,
      "velocity": 98,
      "chip": "ym2612"
    },
    {
      "channel": 3,
      "note": 84,
      "start": 41.219,
      "duration": 0.7237,
      "velocity": 87,
      "chip": "ym2612"
    },
    {
      "channel": 4,
      "note": 72,
      "start": 41.2204,
      "duration": 0.2761,
      "velocity": 98,
      "chip": "ym2612"
    },
    {
      "channel": 2,
      "note": 92,
      "start": 41.4963,
      "duration": 0.0844,
      "velocity": 98,
      "chip": "ym2612"
    },
    {
      "channel": 4,
      "note": 77,
      "start": 41.4966,
      "duration": 0.0844,
      "velocity": 98,
      "chip": "ym2612"
    },
    {
      "channel": 0,
      "note": 77,
      "start": 41.5805,
      "duration": 0.3617,
      "velocity": 87,
      "chip": "ym2612"
    },
    {
      "channel": 2,
      "note": 96,
      "start": 41.5808,
      "duration": 0.8561,
      "velocity": 98,
      "chip": "ym2612"
    },
    {
      "channel": 4,
      "note": 84,
      "start": 41.5811,
      "duration": 0.0838,
      "velocity": 98,
      "chip": "ym2612"
    },
    {
      "channel": 4,
      "note": 92,
      "start": 41.6651,
      "duration": 0.2778,
      "velocity": 98,
      "chip": "ym2612"
    },
    {
      "channel": 0,
      "note": 84,
      "start": 41.9424,
      "duration": 0.4941,
      "velocity": 87,
      "chip": "ym2612"
    },
    {
      "channel": 3,
      "note": 77,
      "start": 41.9428,
      "duration": 0.4956,
      "velocity": 87,
      "chip": "ym2612"
    },
    {
      "channel": 4,
      "note": 96,
      "start": 41.943,
      "duration": 0.988,
      "velocity": 98,
      "chip": "ym2612"
    },
    {
      "channel": 0,
      "note": 82,
      "start": 42.4366,
      "duration": 0.9399,
      "velocity": 87,
      "chip": "ym2612"
    },
    {
      "channel": 1,
      "note": 60,
      "start": 42.4368,
      "duration": 1.7217,
      "velocity": 114,
      "chip": "ym2612"
    },
    {
      "channel": 2,
      "note": 70,
      "start": 42.4382,
      "duration": 0.2147,
      "velocity": 98,
      "chip": "ym2612"
    },
    {
      "channel": 3,
      "note": 84,
      "start": 42.4385,
      "duration": 0.4923,
      "velocity": 87,
      "chip": "ym2612"
    },
    {
      "channel": 2,
      "note": 75,
      "start": 42.653,
      "duration": 0.2774,
      "velocity": 98,
      "chip": "ym2612"
    },
    {
      "channel": 2,
      "note": 82,
      "start": 42.9306,
      "duration": 0.2774,
      "velocity": 98,
      "chip": "ym2612"
    },
    {
      "channel": 3,
      "note": 82,
      "start": 42.9309,
      "duration": 1.001,
      "velocity": 87,
      "chip": "ym2612"
    },
    {
      "channel": 4,
      "note": 70,
      "start": 42.9323,
      "duration": 0.276,
      "velocity": 98,
      "chip": "ym2612"
    },
    {
      "channel": 2,
      "note": 89,
      "start": 43.2081,
      "duration": 0.0842,
      "velocity": 98,
      "chip": "ym2612"
    },
    {
      "channel": 4,
      "note": 75,
      "start": 43.2085,
      "duration": 0.0842,
      "velocity": 98,
      "chip": "ym2612"
    },
    {
      "channel": 2,
      "note": 94,
      "start": 43.2925,
      "duration": 4.3001,
      "velocity": 98,
      "chip": "ym2612"
    },
    {
      "channel": 4,
      "note": 82,
      "start": 43.2928,
      "duration": 0.084,
      "velocity": 98,
      "chip": "ym2612"
    },
    {
      "channel": 4,
      "note": 89,
      "start": 43.3769,
      "duration": 0.2774,
      "velocity": 98,
      "chip": "ym2612"
    },
    {
      "channel": 4,
      "note": 94,
      "start": 43.6545,
      "duration": 4.4322,
      "velocity": 98,
      "chip": "ym2612"
    },
    {
      "channel": 0,
      "note": 80,
      "start": 43.9317,
      "duration": 0.0878,
      "velocity": 87,
      "chip": "ym2612"
    },
    {
      "channel": 0,
      "note": 82,
      "start": 44.0197,
      "duration": 0.1386,
      "velocity": 87,
      "chip": "ym2612"
    },
    {
      "channel": 0,
      "note": 84,
      "start": 44.1584,
      "duration": 1.2174,
      "velocity": 87,
      "chip": "ym2612"
    },
    {
      "channel": 1,
      "note": 65,
      "start": 44.1587,
      "duration": 1.7117,
      "velocity": 114,
      "chip": "ym2612"
    },
    {
      "channel": 3,
      "note": 80,
      "start": 44.3752,
      "duration": 0.1386,
      "velocity": 87,
      "chip": "ym2612"
    },
    {
      "channel": 3,
      "note": 82,
      "start": 44.5139,
      "duration": 0.1386,
      "velocity": 87,
      "chip": "ym2612"
    },
    {
      "channel": 3,
      "note": 84,
      "start": 44.6527,
      "duration": 1.2179,
      "velocity": 87,
      "chip": "ym2612"
    },
    {
      "channel": 0,
      "note": 82,
      "start": 45.8702,
      "duration": 0.2163,
      "velocity": 87,
      "chip": "ym2612"
    },
    {
      "channel": 1,
      "note": 63,
      "start": 45.8705,
      "duration": 1.7218,
      "velocity": 114,
      "chip": "ym2612"
    },
    {
      "channel": 0,
      "note": 80,
      "start": 46.0867,
      "duration": 0.2774,
      "velocity": 87,
      "chip": "ym2612"
    },
    {
      "channel": 0,
      "note": 79,
      "start": 46.3642,
      "duration": 0.2774,
      "velocity": 87,
      "chip": "ym2612"
    },
    {
      "channel": 3,
      "note": 82,
      "start": 46.3646,
      "duration": 0.2774,
      "velocity": 87,
      "chip": "ym2612"
    },
    {
      "channel": 0,
      "note": 80,
      "start": 46.6418,
      "duration": 0.0842,
      "velocity": 87,
      "chip": "ym2612"
    },
    {
      "channel": 3,
      "note": 80,
      "start": 46.6422,
      "duration": 0.0842,
      "velocity": 87,
      "chip": "ym2612"
    },
    {
      "channel": 0,
      "note": 75,
      "start": 46.7261,
      "duration": 0.3617,
      "velocity": 87,
      "chip": "ym2612"
    },
    {
      "channel": 3,
      "note": 79,
      "start": 46.7265,
      "duration": 0.084,
      "velocity": 87,
      "chip": "ym2612"
    },
    {
      "channel": 3,
      "note": 80,
      "start": 46.8106,
      "duration": 0.2776,
      "velocity": 87,
      "chip": "ym2612"
    },
    {
      "channel": 0,
      "note": 80,
      "start": 47.088,
      "duration": 0.2774,
      "velocity": 87,
      "chip": "ym2612"
    },
    {
      "channel": 3,
      "note": 75,
      "start": 47.0884,
      "duration": 0.5056,
      "velocity": 87,
      "chip": "ym2612"
    },
    {
      "channel": 0,
      "note": 82,
      "start": 47.3655,
      "duration": 0.2265,
      "velocity": 87,
      "chip": "ym2612"
    },
    {
      "channel": 0,
      "note": 84,
      "start": 47.5922,
      "duration": 1.2176,
      "velocity": 87,
      "chip": "ym2612"
    },
    {
      "channel": 1,
      "note": 61,
      "start": 47.5924,
      "duration": 1.7119,
      "velocity": 114,
      "chip": "ym2612"
    },
    {
      "channel": 2,
      "note": 72,
      "start": 47.5938,
      "duration": 0.2148,
      "velocity": 98,
      "chip": "ym2612"
    },
    {
      "channel": 3,
      "note": 80,
      "start": 47.5941,
      "duration": 0.2148,
      "velocity": 87,
      "chip": "ym2612"
    },
    {
      "channel": 2,
      "note": 77,
      "start": 47.8088,
      "duration": 0.2774,
      "velocity": 98,
      "chip": "ym2612"
    },
    {
      "channel": 3,
      "note": 82,
      "start": 47.809,
      "duration": 0.2774,
      "velocity": 87,
      "chip": "ym2612"
    },
    {
      "channel": 2,
      "note": 84,
      "start": 48.0863,
      "duration": 0.2774,
      "velocity": 98,
      "chip": "ym2612"
    },
    {
      "channel": 3,
      "note": 84,
      "start": 48.0866,
      "duration": 1.2193,
      "velocity": 87,
      "chip": "ym2612"
    },
    {
      "channel": 4,
      "note": 72,
      "start": 48.088,
      "duration": 0.276,
      "velocity": 98,
      "chip": "ym2612"
    },
    {
      "channel": 2,
      "note": 92,
      "start": 48.3639,
      "duration": 0.0842,
      "velocity": 98,
      "chip": "ym2612"
    },
    {
      "channel": 4,
      "note": 77,
      "start": 48.3642,
      "duration": 0.0842,
      "velocity": 98,
      "chip": "ym2612"
    },
    {
      "channel": 2,
      "note": 96,
      "start": 48.4482,
      "duration": 0.8564,
      "velocity": 98,
      "chip": "ym2612"
    },
    {
      "channel": 4,
      "note": 84,
      "start": 48.4485,
      "duration": 0.0841,
      "velocity": 98,
      "chip": "ym2612"
    },
    {
      "channel": 4,
      "note": 92,
      "start": 48.5327,
      "duration": 0.2774,
      "velocity": 98,
      "chip": "ym2612"
    },
    {
      "channel": 4,
      "note": 96,
      "start": 48.8103,
      "duration": 0.9884,
      "velocity": 98,
      "chip": "ym2612"
    },
    {
      "channel": 0,
      "note": 77,
      "start": 49.0876,
      "duration": 0.2165,
      "velocity": 87,
      "chip": "ym2612"
    },
    {
      "channel": 0,
      "note": 75,
      "start": 49.3042,
      "duration": 0.9399,
      "velocity": 87,
      "chip": "ym2612"
    },
    {
      "channel": 1,
      "note": 63,
      "start": 49.3045,
      "duration": 1.7217,
      "velocity": 114,
      "chip": "ym2612"
    },
    {
      "channel": 2,
      "note": 70,
      "start": 49.3059,
      "duration": 0.2147,
      "velocity": 98,
      "chip": "ym2612"
    },
    {
      "channel": 2,
      "note": 75,
      "start": 49.5207,
      "duration": 0.2774,
      "velocity": 98,
      "chip": "ym2612"
    },
    {
      "channel": 3,
      "note": 77,
      "start": 49.521,
      "duration": 0.2774,
      "velocity": 87,
      "chip": "ym2612"
    },
    {
      "channel": 2,
      "note": 82,
      "start": 49.7983,
      "duration": 0.2774,
      "velocity": 98,
      "chip": "ym2612"
    },
    {
      "channel": 3,
      "note": 75,
      "start": 49.7985,
      "duration": 1.0011,
      "velocity": 87,
      "chip": "ym2612"
    },
    {
      "channel": 4,
      "note": 70,
      "start": 49.8,
      "duration": 0.276,
      "velocity": 98,
      "chip": "ym2612"
    },
    {
      "channel": 2,
      "note": 89,
      "start": 50.0758,
      "duration": 0.0842,
      "velocity": 98,
      "chip": "ym2612"
    },
    {
      "channel": 4,
      "note": 75,
      "start": 50.0761,
      "duration": 0.0842,
      "velocity": 98,
      "chip": "ym2612"
    },
    {
      "channel": 2,
      "note": 94,
      "start": 50.1602,
      "duration": 4.3,
      "velocity": 98,
      "chip": "ym2612"
    },
    {
      "channel": 4,
      "note": 82,
      "start": 50.1605,
      "duration": 0.084,
      "velocity": 98,
      "chip": "ym2612"
    },
    {
      "channel": 4,
      "note": 89,
      "start": 50.2446,
      "duration": 0.2776,
      "velocity": 98,
      "chip": "ym2612"
    },
    {
      "channel": 0,
      "note": 80,
      "start": 50.5218,
      "duration": 0.2774,
      "velocity": 87,
      "chip": "ym2612"
    },
    {
      "channel": 4,
      "note": 94,
      "start": 50.5223,
      "duration": 4.4321,
      "velocity": 98,
      "chip": "ym2612"
    },
    {
      "channel": 0,
      "note": 82,
      "start": 50.7994,
      "duration": 0.2265,
      "velocity": 87,
      "chip": "ym2612"
    },
    {
      "channel": 0,
      "note": 84,
      "start": 51.0261,
      "duration": 1.2175,
      "velocity": 87,
      "chip": "ym2612"
    },
    {
      "channel": 1,
      "note": 65,
      "start": 51.0275,
      "duration": 1.7106,
      "velocity": 114,
      "chip": "ym2612"
    },
    {
      "channel": 3,
      "note": 80,
      "start": 51.0279,
      "duration": 0.2148,
      "velocity": 87,
      "chip": "ym2612"
    },
    {
      "channel": 3,
      "note": 82,
      "start": 51.2428,
      "duration": 0.2774,
      "velocity": 87,
      "chip": "ym2612"
    },
    {
      "channel": 3,
      "note": 84,
      "start": 51.5204,
      "duration": 1.218,
      "velocity": 87,
      "chip": "ym2612"
    },
    {
      "channel": 0,
      "note": 82,
      "start": 52.738,
      "duration": 0.2163,
      "velocity": 87,
      "chip": "ym2612"
    },
    {
      "channel": 1,
      "note": 63,
      "start": 52.7383,
      "duration": 1.7217,
      "velocity": 114,
      "chip": "ym2612"
    },
    {
      "channel": 0,
      "note": 84,
      "start": 52.9544,
      "duration": 0.2774,
      "velocity": 87,
      "chip": "ym2612"
    },
    {
      "channel": 0,
      "note": 85,
      "start": 53.232,
      "duration": 0.2774,
      "velocity": 87,
      "chip": "ym2612"
    },
    {
      "channel": 3,
      "note": 82,
      "start": 53.2324,
      "duration": 0.2774,
      "velocity": 87,
      "chip": "ym2612"
    },
    {
      "channel": 0,
      "note": 87,
      "start": 53.5095,
      "duration": 0.0841,
      "velocity": 87,
      "chip": "ym2612"
    },
    {
      "channel": 3,
      "note": 84,
      "start": 53.5099,
      "duration": 0.0841,
      "velocity": 87,
      "chip": "ym2612"
    },
    {
      "channel": 0,
      "note": 80,
      "start": 53.5937,
      "duration": 0.6393,
      "velocity": 87,
      "chip": "ym2612"
    },
    {
      "channel": 3,
      "note": 85,
      "start": 53.5941,
      "duration": 0.084,
      "velocity": 87,
      "chip": "ym2612"
    },
    {
      "channel": 3,
      "note": 87,
      "start": 53.6783,
      "duration": 0.2774,
      "velocity": 87,
      "chip": "ym2612"
    },
    {
      "channel": 3,
      "note": 80,
      "start": 53.9559,
      "duration": 0.7207,
      "velocity": 87,
      "chip": "ym2612"
    },
    {
      "channel": 0,
      "note": 77,
      "start": 54.2332,
      "duration": 0.2265,
      "velocity": 87,
      "chip": "ym2612"
    },
    {
      "channel": 0,
      "note": 75,
      "start": 54.4599,
      "duration": 0.8558,
      "velocity": 87,
      "chip": "ym2612"
    },
    {
      "channel": 1,
      "note": 61,
      "start": 54.4601,
      "duration": 1.7119,
      "velocity": 114,
      "chip": "ym2612"
    },
    {
      "channel": 2,
      "note": 72,
      "start": 54.4615,
      "duration": 0.2149,
      "velocity": 98,
      "chip": "ym2612"
    },
    {
      "channel": 2,
      "note": 77,
      "start": 54.6765,
      "duration": 0.2774,
      "velocity": 98,
      "chip": "ym2612"
    },
    {
      "channel": 3,
      "note": 77,
      "start": 54.6768,
      "duration": 0.2774,
      "velocity": 87,
      "chip": "ym2612"
    },
    {
      "channel": 2,
      "note": 84,
      "start": 54.954,
      "duration": 0.2774,
      "velocity": 98,
      "chip": "ym2612"
    },
    {
      "channel": 3,
      "note": 75,
      "start": 54.9543,
      "duration": 0.7237,
      "velocity": 87,
      "chip": "ym2612"
    },
    {
      "channel": 4,
      "note": 72,
      "start": 54.9557,
      "duration": 0.2761,
      "velocity": 98,
      "chip": "ym2612"
    },
    {
      "channel": 2,
      "note": 92,
      "start": 55.2316,
      "duration": 0.0844,
      "velocity": 98,
      "chip": "ym2612"
    },
    {
      "channel": 4,
      "note": 77,
      "start": 55.2319,
      "duration": 0.0844,
      "velocity": 98,
      "chip": "ym2612"
    },
    {
      "channel": 0,
      "note": 80,
      "start": 55.3158,
      "duration": 0.3617,
      "velocity": 87,
      "chip": "ym2612"
    },
    {
      "channel": 2,
      "note": 96,
      "start": 55.3161,
      "duration": 0.8562,
      "velocity": 98,
      "chip": "ym2612"
    },
    {
      "channel": 4,
      "note": 84,
      "start": 55.3164,
      "duration": 0.0838,
      "velocity": 98,
      "chip": "ym2612"
    },
    {
      "channel": 4,
      "note": 92,
      "start": 55.4004,
      "duration": 0.2778,
      "velocity": 98,
      "chip": "ym2612"
    },
    {
      "channel": 0,
      "note": 84,
      "start": 55.6777,
      "duration": 0.4941,
      "velocity": 87,
      "chip": "ym2612"
    },
    {
      "channel": 3,
      "note": 80,
      "start": 55.6781,
      "duration": 0.4956,
      "velocity": 87,
      "chip": "ym2612"
    },
    {
      "channel": 4,
      "note": 96,
      "start": 55.6783,
      "duration": 0.9882,
      "velocity": 98,
      "chip": "ym2612"
    },
    {
      "channel": 0,
      "note": 79,
      "start": 56.1719,
      "duration": 0.4938,
      "velocity": 87,
      "chip": "ym2612"
    },
    {
      "channel": 1,
      "note": 60,
      "start": 56.1722,
      "duration": 1.7216,
      "velocity": 114,
      "chip": "ym2612"
    },
    {
      "channel": 2,
      "note": 70,
      "start": 56.1735,
      "duration": 0.2147,
      "velocity": 98,
      "chip": "ym2612"
    },
    {
      "channel": 3,
      "note": 84,
      "start": 56.1738,
      "duration": 0.4924,
      "velocity": 87,
      "chip": "ym2612"
    },
    {
      "channel": 2,
      "note": 75,
      "start": 56.3884,
      "duration": 0.2776,
      "velocity": 98,
      "chip": "ym2612"
    },
    {
      "channel": 0,
      "note": 82,
      "start": 56.6658,
      "duration": 0.3616,
      "velocity": 87,
      "chip": "ym2612"
    },
    {
      "channel": 2,
      "note": 82,
      "start": 56.6661,
      "duration": 0.2772,
      "velocity": 98,
      "chip": "ym2612"
    },
    {
      "channel": 3,
      "note": 79,
      "start": 56.6664,
      "duration": 0.3617,
      "velocity": 87,
      "chip": "ym2612"
    },
    {
      "channel": 4,
      "note": 70,
      "start": 56.6678,
      "duration": 0.2759,
      "velocity": 98,
      "chip": "ym2612"
    },
    {
      "channel": 2,
      "note": 89,
      "start": 56.9435,
      "duration": 0.0843,
      "velocity": 98,
      "chip": "ym2612"
    },
    {
      "channel": 4,
      "note": 75,
      "start": 56.9438,
      "duration": 0.0845,
      "velocity": 98,
      "chip": "ym2612"
    },
    {
      "channel": 0,
      "note": 75,
      "start": 57.0276,
      "duration": 0.3616,
      "velocity": 87,
      "chip": "ym2612"
    },
    {
      "channel": 2,
      "note": 94,
      "start": 57.0279,
      "duration": 4.2999,
      "velocity": 98,
      "chip": "ym2612"
    },
    {
      "channel": 3,
      "note": 82,
      "start": 57.0282,
      "duration": 0.3613,
      "velocity": 87,
      "chip": "ym2612"
    },
    {
      "channel": 4,
      "note": 82,
      "start": 57.0285,
      "duration": 0.0836,
      "velocity": 98,
      "chip": "ym2612"
    },
    {
      "channel": 4,
      "note": 89,
      "start": 57.1122,
      "duration": 0.2776,
      "velocity": 98,
      "chip": "ym2612"
    },
    {
      "channel": 3,
      "note": 75,
      "start": 57.3897,
      "duration": 0.7206,
      "velocity": 87,
      "chip": "ym2612"
    },
    {
      "channel": 4,
      "note": 94,
      "start": 57.3899,
      "duration": 4.4321,
      "velocity": 98,
      "chip": "ym2612"
    },
    {
      "channel": 0,
      "note": 80,
      "start": 57.667,
      "duration": 0.0878,
      "velocity": 87,
      "chip": "ym2612"
    },
    {
      "channel": 0,
      "note": 82,
      "start": 57.7549,
      "duration": 0.1386,
      "velocity": 87,
      "chip": "ym2612"
    },
    {
      "channel": 0,
      "note": 84,
      "start": 57.8937,
      "duration": 1.2176,
      "velocity": 87,
      "chip": "ym2612"
    },
    {
      "channel": 1,
      "note": 65,
      "start": 57.8939,
      "duration": 1.7119,
      "velocity": 114,
      "chip": "ym2612"
    },
    {
      "channel": 3,
      "note": 80,
      "start": 58.1104,
      "duration": 0.1386,
      "velocity": 87,
      "chip": "ym2612"
    },
    {
      "channel": 3,
      "note": 82,
      "start": 58.2492,
      "duration": 0.1386,
      "velocity": 87,
      "chip": "ym2612"
    },
    {
      "channel": 3,
      "note": 84,
      "start": 58.388,
      "duration": 1.2181,
      "velocity": 87,
      "chip": "ym2612"
    },
    {
      "channel": 0,
      "note": 82,
      "start": 59.6057,
      "duration": 0.2162,
      "velocity": 87,
      "chip": "ym2612"
    },
    {
      "channel": 1,
      "note": 63,
      "start": 59.606,
      "duration": 1.7215,
      "velocity": 114,
      "chip": "ym2612"
    },
    {
      "channel": 0,
      "note": 84,
      "start": 59.8221,
      "duration": 0.2774,
      "velocity": 87,
      "chip": "ym2612"
    },
    {
      "channel": 0,
      "note": 85,
      "start": 60.0996,
      "duration": 0.2774,
      "velocity": 87,
      "chip": "ym2612"
    },
    {
      "channel": 3,
      "note": 82,
      "start": 60.1,
      "duration": 0.2774,
      "velocity": 87,
      "chip": "ym2612"
    },
    {
      "channel": 0,
      "note": 87,
      "start": 60.3772,
      "duration": 0.0841,
      "velocity": 87,
      "chip": "ym2612"
    },
    {
      "channel": 3,
      "note": 84,
      "start": 60.3776,
      "duration": 0.0841,
      "velocity": 87,
      "chip": "ym2612"
    },
    {
      "channel": 0,
      "note": 80,
      "start": 60.4614,
      "duration": 0.3617,
      "velocity": 87,
      "chip": "ym2612"
    },
    {
      "channel": 3,
      "note": 85,
      "start": 60.4618,
      "duration": 0.0839,
      "velocity": 87,
      "chip": "ym2612"
    },
    {
      "channel": 3,
      "note": 87,
      "start": 60.5459,
      "duration": 0.2776,
      "velocity": 87,
      "chip": "ym2612"
    },
    {
      "channel": 0,
      "note": 84,
      "start": 60.8232,
      "duration": 0.2774,
      "velocity": 87,
      "chip": "ym2612"
    },
    {
      "channel": 3,
      "note": 80,
      "start": 60.8236,
      "duration": 0.5056,
      "velocity": 87,
      "chip": "ym2612"
    },
    {
      "channel": 0,
      "note": 85,
      "start": 61.1008,
      "duration": 0.2265,
      "velocity": 87,
      "chip": "ym2612"
    },
    {
      "channel": 0,
      "note": 87,
      "start": 61.3274,
      "duration": 0.8558,
      "velocity": 87,
      "chip": "ym2612"
    },
    {
      "channel": 1,
      "note": 61,
      "start": 61.3277,
      "duration": 1.7118,
      "velocity": 114,
      "chip": "ym2612"
    },
    {
      "channel": 2,
      "note": 72,
      "start": 61.3291,
      "duration": 0.2149,
      "velocity": 98,
      "chip": "ym2612"
    },
    {
      "channel": 3,
      "note": 84,
      "start": 61.3293,
      "duration": 0.2149,
      "velocity": 87,
      "chip": "ym2612"
    },
    {
      "channel": 2,
      "note": 77,
      "start": 61.5441,
      "duration": 0.2774,
      "velocity": 98,
      "chip": "ym2612"
    },
    {
      "channel": 3,
      "note": 85,
      "start": 61.5444,
      "duration": 0.2774,
      "velocity": 87,
      "chip": "ym2612"
    },
    {
      "channel": 2,
      "note": 84,
      "start": 61.8217,
      "duration": 0.2774,
      "velocity": 98,
      "chip": "ym2612"
    },
    {
      "channel": 3,
      "note": 87,
      "start": 61.8219,
      "duration": 0.7235,
      "velocity": 87,
      "chip": "ym2612"
    },
    {
      "channel": 4,
      "note": 72,
      "start": 61.8234,
      "duration": 0.2761,
      "velocity": 98,
      "chip": "ym2612"
    },
    {
      "channel": 2,
      "note": 92,
      "start": 62.0992,
      "duration": 0.0844,
      "velocity": 98,
      "chip": "ym2612"
    },
    {
      "channel": 4,
      "note": 77,
      "start": 62.0995,
      "duration": 0.0844,
      "velocity": 98,
      "chip": "ym2612"
    },
    {
      "channel": 0,
      "note": 80,
      "start": 62.1834,
      "duration": 0.3617,
      "velocity": 87,
      "chip": "ym2612"
    },
    {
      "channel": 2,
      "note": 96,
      "start": 62.1837,
      "duration": 0.856,
      "velocity": 98,
      "chip": "ym2612"
    },
    {
      "channel": 4,
      "note": 84,
      "start": 62.184,
      "duration": 0.0837,
      "velocity": 98,
      "chip": "ym2612"
    },
    {
      "channel": 4,
      "note": 92,
      "start": 62.2679,
      "duration": 0.2778,
      "velocity": 98,
      "chip": "ym2612"
    },
    {
      "channel": 0,
      "note": 82,
      "start": 62.5452,
      "duration": 0.494,
      "velocity": 87,
      "chip": "ym2612"
    },
    {
      "channel": 3,
      "note": 80,
      "start": 62.5456,
      "duration": 0.4956,
      "velocity": 87,
      "chip": "ym2612"
    },
    {
      "channel": 4,
      "note": 96,
      "start": 62.5459,
      "duration": 0.9881,
      "velocity": 98,
      "chip": "ym2612"
    },
    {
      "channel": 0,
      "note": 84,
      "start": 63.0394,
      "duration": 0.4937,
      "velocity": 87,
      "chip": "ym2612"
    },
    {
      "channel": 1,
      "note": 63,
      "start": 63.0397,
      "duration": 1.7217,
      "velocity": 114,
      "chip": "ym2612"
    },
    {
      "channel": 2,
      "note": 70,
      "start": 63.041,
      "duration": 0.2147,
      "velocity": 98,
      "chip": "ym2612"
    },
    {
      "channel": 3,
      "note": 82,
      "start": 63.0413,
      "duration": 0.4924,
      "velocity": 87,
      "chip": "ym2612"
    },
    {
      "channel": 2,
      "note": 75,
      "start": 63.2559,
      "duration": 0.2776,
      "velocity": 98,
      "chip": "ym2612"
    },
    {
      "channel": 0,
      "note": 79,
      "start": 63.5333,
      "duration": 0.3617,
      "velocity": 87,
      "chip": "ym2612"
    },
    {
      "channel": 2,
      "note": 82,
      "start": 63.5336,
      "duration": 0.2772,
      "velocity": 98,
      "chip": "ym2612"
    },
    {
      "channel": 3,
      "note": 84,
      "start": 63.5339,
      "duration": 0.3617,
      "velocity": 87,
      "chip": "ym2612"
    },
    {
      "channel": 4,
      "note": 70,
      "start": 63.5353,
      "duration": 0.2759,
      "velocity": 98,
      "chip": "ym2612"
    },
    {
      "channel": 2,
      "note": 89,
      "start": 63.811,
      "duration": 0.0843,
      "velocity": 98,
      "chip": "ym2612"
    },
    {
      "channel": 4,
      "note": 75,
      "start": 63.8113,
      "duration": 0.0845,
      "velocity": 98,
      "chip": "ym2612"
    },
    {
      "channel": 0,
      "note": 82,
      "start": 63.8951,
      "duration": 0.3617,
      "velocity": 87,
      "chip": "ym2612"
    },
    {
      "channel": 2,
      "note": 94,
      "start": 63.8955,
      "duration": 0.8673,
      "velocity": 98,
      "chip": "ym2612"
    },
    {
      "channel": 3,
      "note": 79,
      "start": 63.8957,
      "duration": 0.3615,
      "velocity": 87,
      "chip": "ym2612"
    },
    {
      "channel": 4,
      "note": 82,
      "start": 63.896,
      "duration": 0.0836,
      "velocity": 98,
      "chip": "ym2612"
    },
    {
      "channel": 4,
      "note": 89,
      "start": 63.9797,
      "duration": 0.2778,
      "velocity": 98,
      "chip": "ym2612"
    },
    {
      "channel": 0,
      "note": 75,
      "start": 64.2569,
      "duration": 0.5041,
      "velocity": 87,
      "chip": "ym2612"
    },
    {
      "channel": 3,
      "note": 82,
      "start": 64.2573,
      "duration": 0.5057,
      "velocity": 87,
      "chip": "ym2612"
    },
    {
      "channel": 4,
      "note": 94,
      "start": 64.2576,
      "duration": 0.9983,
      "velocity": 98,
      "chip": "ym2612"
    },
    {
      "channel": 0,
      "note": 77,
      "start": 64.7612,
      "duration": 10.2755,
      "velocity": 87,
      "chip": "ym2612"
    },
    {
      "channel": 1,
      "note": 65,
      "start": 64.7627,
      "duration": 10.274,
      "velocity": 114,
      "chip": "ym2612"
    },
    {
      "channel": 2,
      "note": 72,
      "start": 64.7629,
      "duration": 0.2149,
      "velocity": 98,
      "chip": "ym2612"
    },
    {
      "channel": 3,
      "note": 75,
      "start": 64.7632,
      "duration": 0.4924,
      "velocity": 87,
      "chip": "ym2612"
    },
    {
      "channel": 2,
      "note": 77,
      "start": 64.9779,
      "duration": 0.2774,
      "velocity": 98,
      "chip": "ym2612"
    },
    {
      "channel": 2,
      "note": 80,
      "start": 65.2555,
      "duration": 0.2774,
      "velocity": 98,
      "chip": "ym2612"
    },
    {
      "channel": 3,
      "note": 77,
      "start": 65.2557,
      "duration": 9.781,
      "velocity": 87,
      "chip": "ym2612"
    },
    {
      "channel": 4,
      "note": 72,
      "start": 65.256,
      "duration": 0.2772,
      "velocity": 98,
      "chip": "ym2612"
    },
    {
      "channel": 2,
      "note": 84,
      "start": 65.533,
      "duration": 0.2774,
      "velocity": 98,
      "chip": "ym2612"
    },
    {
      "channel": 4,
      "note": 77,
      "start": 65.5333,
      "duration": 0.2774,
      "velocity": 98,
      "chip": "ym2612"
    },
    {
      "channel": 2,
      "note": 89,
      "start": 65.8105,
      "duration": 0.2774,
      "velocity": 98,
      "chip": "ym2612"
    },
    {
      "channel": 4,
      "note": 80,
      "start": 65.8109,
      "duration": 0.2774,
      "velocity": 98,
      "chip": "ym2612"
    },
    {
      "channel": 2,
      "note": 96,
      "start": 66.0881,
      "duration": 0.2774,
      "velocity": 98,
      "chip": "ym2612"
    },
    {
      "channel": 4,
      "note": 84,
      "start": 66.0884,
      "duration": 0.2774,
      "velocity": 98,
      "chip": "ym2612"
    },
    {
      "channel": 2,
      "note": 101,
      "start": 66.3656,
      "duration": 8.6711,
      "velocity": 98,
      "chip": "ym2612"
    },
    {
      "channel": 4,
      "note": 89,
      "start": 66.366,
      "duration": 0.2772,
      "velocity": 98,
      "chip": "ym2612"
    },
    {
      "channel": 4,
      "note": 96,
      "start": 66.6433,
      "duration": 8.3934,
      "velocity": 98,
      "chip": "ym2612"
    }
  ]
}