{
  "track_name": "23 - Title Screen (No Voice)",
  "duration_sec": 79.785,
  "sample_rate": 44100,
  "note_count": 654,
  "unique_pitches": 32,
  "pitch_range": 62,
  "avg_note_duration": 0.0093,
  "reconstruction_stats": {
    "notes_reconstructed": 654,
    "keyon_events": 654,
    "keyoff_events": 654,
    "orphan_keyons": 0,
    "unique_pitches": 32,
    "pitch_range": 62,
    "avg_duration_sec": 0.0093
  },
  "metadata": {
    "source": "S\\Skitchin'\\23 - Title Screen (No Voice).vgz"
  },
  "notes": [
    {
      "channel": 1,
      "note": 101,
      "start": 0.0,
      "duration": 0.0,
      "velocity": 114,
      "chip": "ym2612"
    },
    {
      "channel": 1,
      "note": 101,
      "start": 0.0,
      "duration": 0.0,
      "velocity": 114,
      "chip": "ym2612"
    },
    {
      "channel": 1,
      "note": 106,
      "start": 0.0534,
      "duration": 0.0314,
      "velocity": 114,
      "chip": "ym2612"
    },
    {
      "channel": 1,
      "note": 62,
      "start": 0.3877,
      "duration": 0.0022,
      "velocity": 120,
      "chip": "ym2612"
    },
    {
      "channel": 1,
      "note": 59,
      "start": 0.39,
      "duration": 0.0027,
      "velocity": 120,
      "chip": "ym2612"
    },
    {
      "channel": 1,
      "note": 55,
      "start": 0.3927,
      "duration": 0.0512,
      "velocity": 120,
      "chip": "ym2612"
    },
    {
      "channel": 0,
      "note": 49,
      "start": 0.5554,
      "duration": 0.0035,
      "velocity": 88,
      "chip": "ym2612"
    },
    {
      "channel": 1,
      "note": 82,
      "start": 0.5572,
      "duration": 0.0008,
      "velocity": 127,
      "chip": "ym2612"
    },
    {
      "channel": 0,
      "note": 49,
      "start": 0.5596,
      "duration": 0.0031,
      "velocity": 88,
      "chip": "ym2612"
    },
    {
      "channel": 1,
      "note": 84,
      "start": 0.5614,
      "duration": 0.0009,
      "velocity": 123,
      "chip": "ym2612"
    },
    {
      "channel": 0,
      "note": 48,
      "start": 0.5643,
      "duration": 0.0053,
      "velocity": 88,
      "chip": "ym2612"
    },
    {
      "channel": 0,
      "note": 49,
      "start": 0.5697,
      "duration": 0.0034,
      "velocity": 88,
      "chip": "ym2612"
    },
    {
      "channel": 1,
      "note": 84,
      "start": 0.57,
      "duration": 0.0024,
      "velocity": 123,
      "chip": "ym2612"
    },
    {
      "channel": 0,
      "note": 52,
      "start": 0.5731,
      "duration": 0.0024,
      "velocity": 88,
      "chip": "ym2612"
    },
    {
      "channel": 0,
      "note": 54,
      "start": 0.5773,
      "duration": 0.0028,
      "velocity": 88,
      "chip": "ym2612"
    },
    {
      "channel": 1,
      "note": 84,
      "start": 0.5776,
      "duration": 0.0009,
      "velocity": 123,
      "chip": "ym2612"
    },
    {
      "channel": 0,
      "note": 55,
      "start": 0.5801,
      "duration": 0.0044,
      "velocity": 88,
      "chip": "ym2612"
    },
    {
      "channel": 1,
      "note": 84,
      "start": 0.5826,
      "duration": 0.0008,
      "velocity": 123,
      "chip": "ym2612"
    },
    {
      "channel": 0,
      "note": 54,
      "start": 0.5851,
      "duration": 0.0017,
      "velocity": 88,
      "chip": "ym2612"
    },
    {
      "channel": 1,
      "note": 84,
      "start": 0.5854,
      "duration": 0.0009,
      "velocity": 123,
      "chip": "ym2612"
    },
    {
      "channel": 0,
      "note": 52,
      "start": 0.5879,
      "duration": 0.0028,
      "velocity": 88,
      "chip": "ym2612"
    },
    {
      "channel": 0,
      "note": 54,
      "start": 0.5914,
      "duration": 0.0017,
      "velocity": 88,
      "chip": "ym2612"
    },
    {
      "channel": 1,
      "note": 84,
      "start": 0.5917,
      "duration": 0.0009,
      "velocity": 123,
      "chip": "ym2612"
    },
    {
      "channel": 0,
      "note": 52,
      "start": 0.5932,
      "duration": 0.0025,
      "velocity": 88,
      "chip": "ym2612"
    },
    {
      "channel": 0,
      "note": 48,
      "start": 0.5957,
      "duration": 0.0018,
      "velocity": 88,
      "chip": "ym2612"
    },
    {
      "channel": 1,
      "note": 84,
      "start": 0.5961,
      "duration": 0.0009,
      "velocity": 123,
      "chip": "ym2612"
    },
    {
      "channel": 0,
      "note": 49,
      "start": 0.5976,
      "duration": 0.0039,
      "velocity": 88,
      "chip": "ym2612"
    },
    {
      "channel": 1,
      "note": 84,
      "start": 0.5995,
      "duration": 0.0008,
      "velocity": 123,
      "chip": "ym2612"
    },
    {
      "channel": 0,
      "note": 49,
      "start": 0.6021,
      "duration": 0.0017,
      "velocity": 88,
      "chip": "ym2612"
    },
    {
      "channel": 1,
      "note": 84,
      "start": 0.6024,
      "duration": 0.0009,
      "velocity": 123,
      "chip": "ym2612"
    },
    {
      "channel": 0,
      "note": 48,
      "start": 0.6045,
      "duration": 0.001,
      "velocity": 88,
      "chip": "ym2612"
    },
    {
      "channel": 0,
      "note": 49,
      "start": 0.6062,
      "duration": 0.0033,
      "velocity": 88,
      "chip": "ym2612"
    },
    {
      "channel": 1,
      "note": 84,
      "start": 0.6065,
      "duration": 0.0024,
      "velocity": 123,
      "chip": "ym2612"
    },
    {
      "channel": 0,
      "note": 52,
      "start": 0.6095,
      "duration": 0.0009,
      "velocity": 88,
      "chip": "ym2612"
    },
    {
      "channel": 0,
      "note": 54,
      "start": 0.6121,
      "duration": 0.0017,
      "velocity": 88,
      "chip": "ym2612"
    },
    {
      "channel": 1,
      "note": 84,
      "start": 0.6124,
      "duration": 0.0009,
      "velocity": 123,
      "chip": "ym2612"
    },
    {
      "channel": 0,
      "note": 55,
      "start": 0.6154,
      "duration": 0.0051,
      "velocity": 88,
      "chip": "ym2612"
    },
    {
      "channel": 1,
      "note": 62,
      "start": 0.6172,
      "duration": 0.0027,
      "velocity": 120,
      "chip": "ym2612"
    },
    {
      "channel": 0,
      "note": 54,
      "start": 0.7396,
      "duration": 0.0037,
      "velocity": 88,
      "chip": "ym2612"
    },
    {
      "channel": 1,
      "note": 59,
      "start": 0.7414,
      "duration": 0.0013,
      "velocity": 120,
      "chip": "ym2612"
    },
    {
      "channel": 0,
      "note": 52,
      "start": 0.8623,
      "duration": 0.0046,
      "velocity": 88,
      "chip": "ym2612"
    },
    {
      "channel": 1,
      "note": 55,
      "start": 0.8642,
      "duration": 0.0018,
      "velocity": 120,
      "chip": "ym2612"
    },
    {
      "channel": 0,
      "note": 54,
      "start": 0.9185,
      "duration": 0.0023,
      "velocity": 88,
      "chip": "ym2612"
    },
    {
      "channel": 0,
      "note": 49,
      "start": 0.922,
      "duration": 0.0049,
      "velocity": 88,
      "chip": "ym2612"
    },
    {
      "channel": 1,
      "note": 82,
      "start": 0.9238,
      "duration": 0.0016,
      "velocity": 127,
      "chip": "ym2612"
    },
    {
      "channel": 0,
      "note": 49,
      "start": 0.9275,
      "duration": 0.003,
      "velocity": 88,
      "chip": "ym2612"
    },
    {
      "channel": 1,
      "note": 84,
      "start": 0.9293,
      "duration": 0.0008,
      "velocity": 123,
      "chip": "ym2612"
    },
    {
      "channel": 0,
      "note": 48,
      "start": 0.9319,
      "duration": 0.0048,
      "velocity": 88,
      "chip": "ym2612"
    },
    {
      "channel": 0,
      "note": 49,
      "start": 0.9367,
      "duration": 0.0033,
      "velocity": 88,
      "chip": "ym2612"
    },
    {
      "channel": 1,
      "note": 84,
      "start": 0.937,
      "duration": 0.0024,
      "velocity": 123,
      "chip": "ym2612"
    },
    {
      "channel": 0,
      "note": 52,
      "start": 0.94,
      "duration": 0.0009,
      "velocity": 88,
      "chip": "ym2612"
    },
    {
      "channel": 0,
      "note": 54,
      "start": 0.9415,
      "duration": 0.0016,
      "velocity": 88,
      "chip": "ym2612"
    },
    {
      "channel": 1,
      "note": 84,
      "start": 0.9418,
      "duration": 0.0009,
      "velocity": 123,
      "chip": "ym2612"
    },
    {
      "channel": 0,
      "note": 55,
      "start": 0.9438,
      "duration": 0.0044,
      "velocity": 88,
      "chip": "ym2612"
    },
    {
      "channel": 1,
      "note": 84,
      "start": 0.9462,
      "duration": 0.0009,
      "velocity": 123,
      "chip": "ym2612"
    },
    {
      "channel": 0,
      "note": 54,
      "start": 0.9489,
      "duration": 0.0017,
      "velocity": 88,
      "chip": "ym2612"
    },
    {
      "channel": 1,
      "note": 84,
      "start": 0.9492,
      "duration": 0.0009,
      "velocity": 123,
      "chip": "ym2612"
    },
    {
      "channel": 0,
      "note": 52,
      "start": 0.9511,
      "duration": 0.001,
      "velocity": 88,
      "chip": "ym2612"
    },
    {
      "channel": 0,
      "note": 44,
      "start": 0.9547,
      "duration": 0.0019,
      "velocity": 88,
      "chip": "ym2612"
    },
    {
      "channel": 1,
      "note": 84,
      "start": 0.955,
      "duration": 0.0009,
      "velocity": 123,
      "chip": "ym2612"
    },
    {
      "channel": 0,
      "note": 52,
      "start": 0.9566,
      "duration": 0.0024,
      "velocity": 88,
      "chip": "ym2612"
    },
    {
      "channel": 0,
      "note": 48,
      "start": 0.9597,
      "duration": 0.001,
      "velocity": 88,
      "chip": "ym2612"
    },
    {
      "channel": 0,
      "note": 49,
      "start": 0.9608,
      "duration": 0.0067,
      "velocity": 88,
      "chip": "ym2612"
    },
    {
      "channel": 1,
      "note": 82,
      "start": 0.9626,
      "duration": 0.0008,
      "velocity": 127,
      "chip": "ym2612"
    },
    {
      "channel": 1,
      "note": 84,
      "start": 0.9655,
      "duration": 0.0004,
      "velocity": 123,
      "chip": "ym2612"
    },
    {
      "channel": 0,
      "note": 49,
      "start": 0.9681,
      "duration": 0.0016,
      "velocity": 88,
      "chip": "ym2612"
    },
    {
      "channel": 1,
      "note": 84,
      "start": 0.9684,
      "duration": 0.0008,
      "velocity": 123,
      "chip": "ym2612"
    },
    {
      "channel": 0,
      "note": 48,
      "start": 0.9704,
      "duration": 0.0012,
      "velocity": 88,
      "chip": "ym2612"
    },
    {
      "channel": 0,
      "note": 49,
      "start": 0.9716,
      "duration": 0.0018,
      "velocity": 88,
      "chip": "ym2612"
    },
    {
      "channel": 1,
      "note": 84,
      "start": 0.9719,
      "duration": 0.0009,
      "velocity": 123,
      "chip": "ym2612"
    },
    {
      "channel": 0,
      "note": 52,
      "start": 0.9735,
      "duration": 0.0008,
      "velocity": 88,
      "chip": "ym2612"
    },
    {
      "channel": 0,
      "note": 54,
      "start": 0.9761,
      "duration": 0.0016,
      "velocity": 88,
      "chip": "ym2612"
    },
    {
      "channel": 1,
      "note": 84,
      "start": 0.9764,
      "duration": 0.0009,
      "velocity": 123,
      "chip": "ym2612"
    },
    {
      "channel": 0,
      "note": 55,
      "start": 0.9793,
      "duration": 0.0056,
      "velocity": 88,
      "chip": "ym2612"
    },
    {
      "channel": 1,
      "note": 62,
      "start": 0.9812,
      "duration": 0.0032,
      "velocity": 120,
      "chip": "ym2612"
    },
    {
      "channel": 0,
      "note": 54,
      "start": 1.1038,
      "duration": 0.0042,
      "velocity": 88,
      "chip": "ym2612"
    },
    {
      "channel": 1,
      "note": 59,
      "start": 1.1057,
      "duration": 0.0015,
      "velocity": 120,
      "chip": "ym2612"
    },
    {
      "channel": 0,
      "note": 52,
      "start": 1.1932,
      "duration": 0.0042,
      "velocity": 88,
      "chip": "ym2612"
    },
    {
      "channel": 1,
      "note": 55,
      "start": 1.1951,
      "duration": 0.0013,
      "velocity": 120,
      "chip": "ym2612"
    },
    {
      "channel": 0,
      "note": 54,
      "start": 1.2655,
      "duration": 0.0028,
      "velocity": 88,
      "chip": "ym2612"
    },
    {
      "channel": 0,
      "note": 51,
      "start": 1.269,
      "duration": 0.0035,
      "velocity": 88,
      "chip": "ym2612"
    },
    {
      "channel": 1,
      "note": 82,
      "start": 1.2707,
      "duration": 0.0009,
      "velocity": 127,
      "chip": "ym2612"
    },
    {
      "channel": 0,
      "note": 51,
      "start": 1.2731,
      "duration": 0.0005,
      "velocity": 88,
      "chip": "ym2612"
    },
    {
      "channel": 0,
      "note": 51,
      "start": 1.2743,
      "duration": 0.003,
      "velocity": 88,
      "chip": "ym2612"
    },
    {
      "channel": 1,
      "note": 106,
      "start": 1.2761,
      "duration": 0.0007,
      "velocity": 127,
      "chip": "ym2612"
    },
    {
      "channel": 0,
      "note": 51,
      "start": 1.278,
      "duration": 0.002,
      "velocity": 88,
      "chip": "ym2612"
    },
    {
      "channel": 0,
      "note": 51,
      "start": 1.2807,
      "duration": 0.0033,
      "velocity": 88,
      "chip": "ym2612"
    },
    {
      "channel": 1,
      "note": 82,
      "start": 1.2825,
      "duration": 0.001,
      "velocity": 127,
      "chip": "ym2612"
    },
    {
      "channel": 0,
      "note": 51,
      "start": 1.2847,
      "duration": 0.001,
      "velocity": 88,
      "chip": "ym2612"
    },
    {
      "channel": 0,
      "note": 51,
      "start": 1.2864,
      "duration": 0.003,
      "velocity": 88,
      "chip": "ym2612"
    },
    {
      "channel": 1,
      "note": 106,
      "start": 1.2883,
      "duration": 0.0007,
      "velocity": 127,
      "chip": "ym2612"
    },
    {
      "channel": 0,
      "note": 52,
      "start": 1.2906,
      "duration": 0.0029,
      "velocity": 88,
      "chip": "ym2612"
    },
    {
      "channel": 0,
      "note": 52,
      "start": 1.2936,
      "duration": 0.0017,
      "velocity": 88,
      "chip": "ym2612"
    },
    {
      "channel": 1,
      "note": 106,
      "start": 1.294,
      "duration": 0.0008,
      "velocity": 127,
      "chip": "ym2612"
    },
    {
      "channel": 0,
      "note": 52,
      "start": 1.296,
      "duration": 0.0007,
      "velocity": 88,
      "chip": "ym2612"
    },
    {
      "channel": 0,
      "note": 52,
      "start": 1.2974,
      "duration": 0.0017,
      "velocity": 88,
      "chip": "ym2612"
    },
    {
      "channel": 1,
      "note": 106,
      "start": 1.2979,
      "duration": 0.0009,
      "velocity": 127,
      "chip": "ym2612"
    },
    {
      "channel": 0,
      "note": 52,
      "start": 1.2999,
      "duration": 0.0009,
      "velocity": 88,
      "chip": "ym2612"
    },
    {
      "channel": 0,
      "note": 52,
      "start": 1.3027,
      "duration": 0.0041,
      "velocity": 88,
      "chip": "ym2612"
    },
    {
      "channel": 1,
      "note": 82,
      "start": 1.3045,
      "duration": 0.0019,
      "velocity": 127,
      "chip": "ym2612"
    },
    {
      "channel": 0,
      "note": 52,
      "start": 1.3075,
      "duration": 0.001,
      "velocity": 88,
      "chip": "ym2612"
    },
    {
      "channel": 0,
      "note": 52,
      "start": 1.3092,
      "duration": 0.0045,
      "velocity": 88,
      "chip": "ym2612"
    },
    {
      "channel": 1,
      "note": 106,
      "start": 1.311,
      "duration": 0.0022,
      "velocity": 127,
      "chip": "ym2612"
    },
    {
      "channel": 0,
      "note": 44,
      "start": 1.3144,
      "duration": 0.0028,
      "velocity": 88,
      "chip": "ym2612"
    },
    {
      "channel": 1,
      "note": 106,
      "start": 1.3159,
      "duration": 0.0008,
      "velocity": 127,
      "chip": "ym2612"
    },
    {
      "channel": 0,
      "note": 53,
      "start": 1.3179,
      "duration": 0.0007,
      "velocity": 88,
      "chip": "ym2612"
    },
    {
      "channel": 0,
      "note": 53,
      "start": 1.3193,
      "duration": 0.0017,
      "velocity": 88,
      "chip": "ym2612"
    },
    {
      "channel": 1,
      "note": 106,
      "start": 1.3197,
      "duration": 0.0009,
      "velocity": 127,
      "chip": "ym2612"
    },
    {
      "channel": 0,
      "note": 53,
      "start": 1.3216,
      "duration": 0.0024,
      "velocity": 88,
      "chip": "ym2612"
    },
    {
      "channel": 0,
      "note": 53,
      "start": 1.3247,
      "duration": 0.0031,
      "velocity": 88,
      "chip": "ym2612"
    },
    {
      "channel": 1,
      "note": 82,
      "start": 1.3265,
      "duration": 0.0009,
      "velocity": 127,
      "chip": "ym2612"
    },
    {
      "channel": 0,
      "note": 53,
      "start": 1.3284,
      "duration": 0.001,
      "velocity": 88,
      "chip": "ym2612"
    },
    {
      "channel": 0,
      "note": 53,
      "start": 1.3301,
      "duration": 0.0009,
      "velocity": 88,
      "chip": "ym2612"
    },
    {
      "channel": 0,
      "note": 59,
      "start": 1.3321,
      "duration": 0.0043,
      "velocity": 88,
      "chip": "ym2612"
    },
    {
      "channel": 1,
      "note": 62,
      "start": 1.3339,
      "duration": 0.0018,
      "velocity": 120,
      "chip": "ym2612"
    },
    {
      "channel": 0,
      "note": 56,
      "start": 1.3384,
      "duration": 0.0066,
      "velocity": 88,
      "chip": "ym2612"
    },
    {
      "channel": 1,
      "note": 59,
      "start": 1.3402,
      "duration": 0.0035,
      "velocity": 120,
      "chip": "ym2612"
    },
    {
      "channel": 0,
      "note": 54,
      "start": 1.3472,
      "duration": 0.0045,
      "velocity": 88,
      "chip": "ym2612"
    },
    {
      "channel": 1,
      "note": 55,
      "start": 1.3491,
      "duration": 0.0014,
      "velocity": 120,
      "chip": "ym2612"
    },
    {
      "channel": 0,
      "note": 52,
      "start": 1.3537,
      "duration": 0.0022,
      "velocity": 88,
      "chip": "ym2612"
    },
    {
      "channel": 0,
      "note": 49,
      "start": 1.357,
      "duration": 0.0034,
      "velocity": 88,
      "chip": "ym2612"
    },
    {
      "channel": 1,
      "note": 82,
      "start": 1.3588,
      "duration": 0.0008,
      "velocity": 127,
      "chip": "ym2612"
    },
    {
      "channel": 0,
      "note": 49,
      "start": 1.3612,
      "duration": 0.0031,
      "velocity": 88,
      "chip": "ym2612"
    },
    {
      "channel": 1,
      "note": 84,
      "start": 1.3629,
      "duration": 0.0007,
      "velocity": 123,
      "chip": "ym2612"
    },
    {
      "channel": 0,
      "note": 47,
      "start": 1.3643,
      "duration": 0.1198,
      "velocity": 88,
      "chip": "ym2612"
    },
    {
      "channel": 0,
      "note": 49,
      "start": 1.5188,
      "duration": 0.0035,
      "velocity": 88,
      "chip": "ym2612"
    },
    {
      "channel": 1,
      "note": 84,
      "start": 1.5191,
      "duration": 0.0007,
      "velocity": 123,
      "chip": "ym2612"
    },
    {
      "channel": 0,
      "note": 49,
      "start": 1.524,
      "duration": 0.0016,
      "velocity": 88,
      "chip": "ym2612"
    },
    {
      "channel": 1,
      "note": 84,
      "start": 1.5243,
      "duration": 0.0007,
      "velocity": 123,
      "chip": "ym2612"
    },
    {
      "channel": 0,
      "note": 47,
      "start": 1.5257,
      "duration": 0.1385,
      "velocity": 88,
      "chip": "ym2612"
    },
    {
      "channel": 0,
      "note": 49,
      "start": 1.682,
      "duration": 0.002,
      "velocity": 88,
      "chip": "ym2612"
    },
    {
      "channel": 1,
      "note": 84,
      "start": 1.6823,
      "duration": 0.0007,
      "velocity": 123,
      "chip": "ym2612"
    },
    {
      "channel": 0,
      "note": 49,
      "start": 1.6878,
      "duration": 0.0017,
      "velocity": 88,
      "chip": "ym2612"
    },
    {
      "channel": 1,
      "note": 84,
      "start": 1.6881,
      "duration": 0.0007,
      "velocity": 123,
      "chip": "ym2612"
    },
    {
      "channel": 0,
      "note": 47,
      "start": 1.6896,
      "duration": 0.1378,
      "velocity": 88,
      "chip": "ym2612"
    },
    {
      "channel": 0,
      "note": 49,
      "start": 1.862,
      "duration": 0.0018,
      "velocity": 88,
      "chip": "ym2612"
    },
    {
      "channel": 1,
      "note": 84,
      "start": 1.8624,
      "duration": 0.0007,
      "velocity": 123,
      "chip": "ym2612"
    },
    {
      "channel": 0,
      "note": 52,
      "start": 1.8637,
      "duration": 0.0017,
      "velocity": 88,
      "chip": "ym2612"
    },
    {
      "channel": 0,
      "note": 47,
      "start": 1.8654,
      "duration": 0.0007,
      "velocity": 88,
      "chip": "ym2612"
    },
    {
      "channel": 0,
      "note": 49,
      "start": 1.8682,
      "duration": 0.0374,
      "velocity": 88,
      "chip": "ym2612"
    },
    {
      "channel": 1,
      "note": 82,
      "start": 1.8699,
      "duration": 0.0018,
      "velocity": 127,
      "chip": "ym2612"
    },
    {
      "channel": 0,
      "note": 49,
      "start": 1.9756,
      "duration": 0.0031,
      "velocity": 88,
      "chip": "ym2612"
    },
    {
      "channel": 1,
      "note": 84,
      "start": 1.9774,
      "duration": 0.0007,
      "velocity": 123,
      "chip": "ym2612"
    },
    {
      "channel": 0,
      "note": 47,
      "start": 1.9787,
      "duration": 0.137,
      "velocity": 88,
      "chip": "ym2612"
    },
    {
      "channel": 0,
      "note": 49,
      "start": 2.1335,
      "duration": 0.0029,
      "velocity": 88,
      "chip": "ym2612"
    },
    {
      "channel": 1,
      "note": 84,
      "start": 2.1339,
      "duration": 0.0007,
      "velocity": 123,
      "chip": "ym2612"
    },
    {
      "channel": 1,
      "note": 84,
      "start": 2.1393,
      "duration": 0.0007,
      "velocity": 123,
      "chip": "ym2612"
    },
    {
      "channel": 0,
      "note": 57,
      "start": 2.1437,
      "duration": 0.0044,
      "velocity": 88,
      "chip": "ym2612"
    },
    {
      "channel": 1,
      "note": 62,
      "start": 2.1456,
      "duration": 0.002,
      "velocity": 120,
      "chip": "ym2612"
    },
    {
      "channel": 0,
      "note": 56,
      "start": 2.1692,
      "duration": 0.0043,
      "velocity": 88,
      "chip": "ym2612"
    },
    {
      "channel": 1,
      "note": 59,
      "start": 2.171,
      "duration": 0.0018,
      "velocity": 120,
      "chip": "ym2612"
    },
    {
      "channel": 0,
      "note": 55,
      "start": 2.1746,
      "duration": 0.0043,
      "velocity": 88,
      "chip": "ym2612"
    },
    {
      "channel": 1,
      "note": 55,
      "start": 2.1764,
      "duration": 0.0019,
      "velocity": 120,
      "chip": "ym2612"
    },
    {
      "channel": 0,
      "note": 49,
      "start": 2.2454,
      "duration": 0.0009,
      "velocity": 88,
      "chip": "ym2612"
    },
    {
      "channel": 0,
      "note": 49,
      "start": 2.2469,
      "duration": 0.0039,
      "velocity": 88,
      "chip": "ym2612"
    },
    {
      "channel": 0,
      "note": 52,
      "start": 2.2509,
      "duration": 0.0036,
      "velocity": 88,
      "chip": "ym2612"
    },
    {
      "channel": 1,
      "note": 82,
      "start": 2.2527,
      "duration": 0.0009,
      "velocity": 127,
      "chip": "ym2612"
    },
    {
      "channel": 0,
      "note": 49,
      "start": 2.2545,
      "duration": 0.0031,
      "velocity": 88,
      "chip": "ym2612"
    },
    {
      "channel": 1,
      "note": 84,
      "start": 2.2563,
      "duration": 0.0009,
      "velocity": 123,
      "chip": "ym2612"
    },
    {
      "channel": 0,
      "note": 47,
      "start": 2.2591,
      "duration": 0.0051,
      "velocity": 88,
      "chip": "ym2612"
    },
    {
      "channel": 0,
      "note": 49,
      "start": 2.2649,
      "duration": 0.0031,
      "velocity": 88,
      "chip": "ym2612"
    },
    {
      "channel": 1,
      "note": 84,
      "start": 2.2652,
      "duration": 0.0023,
      "velocity": 123,
      "chip": "ym2612"
    },
    {
      "channel": 0,
      "note": 49,
      "start": 2.2706,
      "duration": 0.0017,
      "velocity": 88,
      "chip": "ym2612"
    },
    {
      "channel": 1,
      "note": 84,
      "start": 2.2709,
      "duration": 0.0008,
      "velocity": 123,
      "chip": "ym2612"
    },
    {
      "channel": 0,
      "note": 47,
      "start": 2.2724,
      "duration": 0.0026,
      "velocity": 88,
      "chip": "ym2612"
    },
    {
      "channel": 0,
      "note": 49,
      "start": 2.2757,
      "duration": 0.0032,
      "velocity": 88,
      "chip": "ym2612"
    },
    {
      "channel": 1,
      "note": 84,
      "start": 2.276,
      "duration": 0.0024,
      "velocity": 123,
      "chip": "ym2612"
    },
    {
      "channel": 1,
      "note": 84,
      "start": 2.2817,
      "duration": 0.0008,
      "velocity": 123,
      "chip": "ym2612"
    },
    {
      "channel": 0,
      "note": 47,
      "start": 2.2832,
      "duration": 0.0032,
      "velocity": 88,
      "chip": "ym2612"
    },
    {
      "channel": 0,
      "note": 49,
      "start": 2.2865,
      "duration": 0.0018,
      "velocity": 88,
      "chip": "ym2612"
    },
    {
      "channel": 1,
      "note": 84,
      "start": 2.2868,
      "duration": 0.0009,
      "velocity": 123,
      "chip": "ym2612"
    },
    {
      "channel": 0,
      "note": 52,
      "start": 2.2883,
      "duration": 0.0009,
      "velocity": 88,
      "chip": "ym2612"
    },
    {
      "channel": 0,
      "note": 54,
      "start": 2.2899,
      "duration": 0.0019,
      "velocity": 88,
      "chip": "ym2612"
    },
    {
      "channel": 1,
      "note": 84,
      "start": 2.2902,
      "duration": 0.0011,
      "velocity": 123,
      "chip": "ym2612"
    },
    {
      "channel": 0,
      "note": 52,
      "start": 2.2924,
      "duration": 0.003,
      "velocity": 88,
      "chip": "ym2612"
    },
    {
      "channel": 1,
      "note": 84,
      "start": 2.2935,
      "duration": 0.0008,
      "velocity": 123,
      "chip": "ym2612"
    },
    {
      "channel": 0,
      "note": 49,
      "start": 2.2961,
      "duration": 0.0017,
      "velocity": 88,
      "chip": "ym2612"
    },
    {
      "channel": 1,
      "note": 84,
      "start": 2.2964,
      "duration": 0.0008,
      "velocity": 123,
      "chip": "ym2612"
    },
    {
      "channel": 0,
      "note": 47,
      "start": 2.2979,
      "duration": 0.0025,
      "velocity": 88,
      "chip": "ym2612"
    },
    {
      "channel": 0,
      "note": 49,
      "start": 2.3014,
      "duration": 0.0037,
      "velocity": 88,
      "chip": "ym2612"
    },
    {
      "channel": 1,
      "note": 84,
      "start": 2.3017,
      "duration": 0.0023,
      "velocity": 123,
      "chip": "ym2612"
    },
    {
      "channel": 0,
      "note": 49,
      "start": 2.308,
      "duration": 0.0017,
      "velocity": 88,
      "chip": "ym2612"
    },
    {
      "channel": 1,
      "note": 84,
      "start": 2.3084,
      "duration": 0.0009,
      "velocity": 123,
      "chip": "ym2612"
    },
    {
      "channel": 0,
      "note": 47,
      "start": 2.3103,
      "duration": 0.0009,
      "velocity": 88,
      "chip": "ym2612"
    },
    {
      "channel": 0,
      "note": 51,
      "start": 2.3119,
      "duration": 0.0031,
      "velocity": 88,
      "chip": "ym2612"
    },
    {
      "channel": 1,
      "note": 82,
      "start": 2.3137,
      "duration": 0.0008,
      "velocity": 127,
      "chip": "ym2612"
    },
    {
      "channel": 0,
      "note": 52,
      "start": 2.344,
      "duration": 0.0013,
      "velocity": 88,
      "chip": "ym2612"
    },
    {
      "channel": 0,
      "note": 53,
      "start": 2.346,
      "duration": 0.0016,
      "velocity": 88,
      "chip": "ym2612"
    },
    {
      "channel": 1,
      "note": 82,
      "start": 2.3463,
      "duration": 0.0009,
      "velocity": 127,
      "chip": "ym2612"
    },
    {
      "channel": 0,
      "note": 54,
      "start": 2.3487,
      "duration": 0.0009,
      "velocity": 88,
      "chip": "ym2612"
    },
    {
      "channel": 0,
      "note": 55,
      "start": 2.3506,
      "duration": 0.0064,
      "velocity": 88,
      "chip": "ym2612"
    },
    {
      "channel": 1,
      "note": 82,
      "start": 2.351,
      "duration": 0.0027,
      "velocity": 127,
      "chip": "ym2612"
    },
    {
      "channel": 2,
      "note": 83,
      "start": 2.3528,
      "duration": 0.023,
      "velocity": 114,
      "chip": "ym2612"
    },
    {
      "channel": 3,
      "note": 83,
      "start": 2.3563,
      "duration": 0.026,
      "velocity": 114,
      "chip": "ym2612"
    },
    {
      "channel": 0,
      "note": 57,
      "start": 2.3583,
      "duration": 0.0064,
      "velocity": 88,
      "chip": "ym2612"
    },
    {
      "channel": 1,
      "note": 82,
      "start": 2.3586,
      "duration": 0.0008,
      "velocity": 127,
      "chip": "ym2612"
    },
    {
      "channel": 4,
      "note": 83,
      "start": 2.3625,
      "duration": 0.0243,
      "velocity": 114,
      "chip": "ym2612"
    },
    {
      "channel": 0,
      "note": 57,
      "start": 2.3663,
      "duration": 0.0037,
      "velocity": 88,
      "chip": "ym2612"
    },
    {
      "channel": 1,
      "note": 106,
      "start": 2.3681,
      "duration": 0.0015,
      "velocity": 114,
      "chip": "ym2612"
    },
    {
      "channel": 0,
      "note": 57,
      "start": 2.3708,
      "duration": 0.002,
      "velocity": 88,
      "chip": "ym2612"
    },
    {
      "channel": 0,
      "note": 57,
      "start": 2.3751,
      "duration": 0.0051,
      "velocity": 88,
      "chip": "ym2612"
    },
    {
      "channel": 1,
      "note": 106,
      "start": 2.3754,
      "duration": 0.0026,
      "velocity": 114,
      "chip": "ym2612"
    },
    {
      "channel": 2,
      "note": 83,
      "start": 2.3759,
      "duration": 0.0238,
      "velocity": 114,
      "chip": "ym2612"
    },
    {
      "channel": 0,
      "note": 57,
      "start": 2.3819,
      "duration": 0.003,
      "velocity": 88,
      "chip": "ym2612"
    },
    {
      "channel": 3,
      "note": 83,
      "start": 2.3823,
      "duration": 0.0199,
      "velocity": 114,
      "chip": "ym2612"
    },
    {
      "channel": 0,
      "note": 57,
      "start": 2.3861,
      "duration": 0.0032,
      "velocity": 88,
      "chip": "ym2612"
    },
    {
      "channel": 1,
      "note": 106,
      "start": 2.3864,
      "duration": 0.0024,
      "velocity": 114,
      "chip": "ym2612"
    },
    {
      "channel": 4,
      "note": 83,
      "start": 2.3869,
      "duration": 0.0015,
      "velocity": 114,
      "chip": "ym2612"
    },
    {
      "channel": 0,
      "note": 57,
      "start": 2.3913,
      "duration": 0.0033,
      "velocity": 88,
      "chip": "ym2612"
    },
    {
      "channel": 0,
      "note": 52,
      "start": 2.3955,
      "duration": 0.0032,
      "velocity": 88,
      "chip": "ym2612"
    },
    {
      "channel": 1,
      "note": 106,
      "start": 2.3958,
      "duration": 0.0013,
      "velocity": 114,
      "chip": "ym2612"
    },
    {
      "channel": 0,
      "note": 52,
      "start": 2.3993,
      "duration": 0.0012,
      "velocity": 88,
      "chip": "ym2612"
    },
    {
      "channel": 2,
      "note": 80,
      "start": 2.3997,
      "duration": 0.0022,
      "velocity": 114,
      "chip": "ym2612"
    },
    {
      "channel": 0,
      "note": 52,
      "start": 2.4012,
      "duration": 0.0035,
      "velocity": 88,
      "chip": "ym2612"
    },
    {
      "channel": 1,
      "note": 106,
      "start": 2.4015,
      "duration": 0.0027,
      "velocity": 114,
      "chip": "ym2612"
    },
    {
      "channel": 2,
      "note": 79,
      "start": 2.4019,
      "duration": 0.0038,
      "velocity": 114,
      "chip": "ym2612"
    },
    {
      "channel": 3,
      "note": 80,
      "start": 2.4023,
      "duration": 0.0037,
      "velocity": 114,
      "chip": "ym2612"
    },
    {
      "channel": 0,
      "note": 52,
      "start": 2.4053,
      "duration": 0.0022,
      "velocity": 88,
      "chip": "ym2612"
    },
    {
      "channel": 2,
      "note": 78,
      "start": 2.4057,
      "duration": 0.0031,
      "velocity": 114,
      "chip": "ym2612"
    },
    {
      "channel": 3,
      "note": 79,
      "start": 2.4061,
      "duration": 0.0032,
      "velocity": 114,
      "chip": "ym2612"
    },
    {
      "channel": 4,
      "note": 80,
      "start": 2.4065,
      "duration": 0.0032,
      "velocity": 114,
      "chip": "ym2612"
    },
    {
      "channel": 0,
      "note": 52,
      "start": 2.4082,
      "duration": 0.0043,
      "velocity": 88,
      "chip": "ym2612"
    },
    {
      "channel": 1,
      "note": 106,
      "start": 2.4085,
      "duration": 0.0036,
      "velocity": 114,
      "chip": "ym2612"
    },
    {
      "channel": 2,
      "note": 76,
      "start": 2.4089,
      "duration": 0.0046,
      "velocity": 114,
      "chip": "ym2612"
    },
    {
      "channel": 3,
      "note": 78,
      "start": 2.4093,
      "duration": 0.0046,
      "velocity": 114,
      "chip": "ym2612"
    },
    {
      "channel": 4,
      "note": 79,
      "start": 2.4098,
      "duration": 0.0046,
      "velocity": 114,
      "chip": "ym2612"
    },
    {
      "channel": 0,
      "note": 52,
      "start": 2.4132,
      "duration": 0.0039,
      "velocity": 88,
      "chip": "ym2612"
    },
    {
      "channel": 2,
      "note": 73,
      "start": 2.4136,
      "duration": 0.0048,
      "velocity": 114,
      "chip": "ym2612"
    },
    {
      "channel": 3,
      "note": 76,
      "start": 2.414,
      "duration": 0.0049,
      "velocity": 114,
      "chip": "ym2612"
    },
    {
      "channel": 4,
      "note": 78,
      "start": 2.4144,
      "duration": 0.0048,
      "velocity": 114,
      "chip": "ym2612"
    },
    {
      "channel": 0,
      "note": 52,
      "start": 2.4178,
      "duration": 0.0038,
      "velocity": 88,
      "chip": "ym2612"
    },
    {
      "channel": 1,
      "note": 106,
      "start": 2.4181,
      "duration": 0.0031,
      "velocity": 114,
      "chip": "ym2612"
    },
    {
      "channel": 2,
      "note": 76,
      "start": 2.4185,
      "duration": 0.0041,
      "velocity": 114,
      "chip": "ym2612"
    },
    {
      "channel": 3,
      "note": 73,
      "start": 2.4189,
      "duration": 0.0041,
      "velocity": 114,
      "chip": "ym2612"
    },
    {
      "channel": 4,
      "note": 76,
      "start": 2.4193,
      "duration": 0.0041,
      "velocity": 114,
      "chip": "ym2612"
    },
    {
      "channel": 0,
      "note": 52,
      "start": 2.4223,
      "duration": 0.0022,
      "velocity": 88,
      "chip": "ym2612"
    },
    {
      "channel": 2,
      "note": 73,
      "start": 2.4227,
      "duration": 0.0032,
      "velocity": 114,
      "chip": "ym2612"
    },
    {
      "channel": 3,
      "note": 76,
      "start": 2.4231,
      "duration": 0.0032,
      "velocity": 114,
      "chip": "ym2612"
    },
    {
      "channel": 4,
      "note": 73,
      "start": 2.4235,
      "duration": 0.0032,
      "velocity": 114,
      "chip": "ym2612"
    },
    {
      "channel": 0,
      "note": 59,
      "start": 2.4253,
      "duration": 0.003,
      "velocity": 88,
      "chip": "ym2612"
    },
    {
      "channel": 1,
      "note": 106,
      "start": 2.4256,
      "duration": 0.0018,
      "velocity": 114,
      "chip": "ym2612"
    },
    {
      "channel": 2,
      "note": 76,
      "start": 2.4259,
      "duration": 0.0088,
      "velocity": 114,
      "chip": "ym2612"
    },
    {
      "channel": 3,
      "note": 73,
      "start": 2.4263,
      "duration": 0.0034,
      "velocity": 114,
      "chip": "ym2612"
    },
    {
      "channel": 4,
      "note": 76,
      "start": 2.4268,
      "duration": 0.0033,
      "velocity": 114,
      "chip": "ym2612"
    },
    {
      "channel": 0,
      "note": 59,
      "start": 2.4294,
      "duration": 0.0032,
      "velocity": 88,
      "chip": "ym2612"
    },
    {
      "channel": 3,
      "note": 76,
      "start": 2.4298,
      "duration": 0.011,
      "velocity": 114,
      "chip": "ym2612"
    },
    {
      "channel": 4,
      "note": 73,
      "start": 2.4302,
      "duration": 0.005,
      "velocity": 114,
      "chip": "ym2612"
    },
    {
      "channel": 0,
      "note": 59,
      "start": 2.434,
      "duration": 0.0031,
      "velocity": 88,
      "chip": "ym2612"
    },
    {
      "channel": 1,
      "note": 106,
      "start": 2.4344,
      "duration": 0.0017,
      "velocity": 114,
      "chip": "ym2612"
    },
    {
      "channel": 2,
      "note": 76,
      "start": 2.4348,
      "duration": 0.0112,
      "velocity": 114,
      "chip": "ym2612"
    },
    {
      "channel": 4,
      "note": 76,
      "start": 2.4352,
      "duration": 0.0112,
      "velocity": 114,
      "chip": "ym2612"
    },
    {
      "channel": 0,
      "note": 59,
      "start": 2.4404,
      "duration": 0.0019,
      "velocity": 88,
      "chip": "ym2612"
    },
    {
      "channel": 3,
      "note": 76,
      "start": 2.4408,
      "duration": 0.0006,
      "velocity": 114,
      "chip": "ym2612"
    },
    {
      "channel": 0,
      "note": 59,
      "start": 2.4454,
      "duration": 0.004,
      "velocity": 88,
      "chip": "ym2612"
    },
    {
      "channel": 1,
      "note": 106,
      "start": 2.4457,
      "duration": 0.0022,
      "velocity": 114,
      "chip": "ym2612"
    },
    {
      "channel": 2,
      "note": 76,
      "start": 2.4461,
      "duration": 0.0114,
      "velocity": 114,
      "chip": "ym2612"
    },
    {
      "channel": 4,
      "note": 76,
      "start": 2.4465,
      "duration": 0.0115,
      "velocity": 114,
      "chip": "ym2612"
    },
    {
      "channel": 0,
      "note": 59,
      "start": 2.4504,
      "duration": 0.0037,
      "velocity": 88,
      "chip": "ym2612"
    },
    {
      "channel": 3,
      "note": 76,
      "start": 2.4508,
      "duration": 0.012,
      "velocity": 114,
      "chip": "ym2612"
    },
    {
      "channel": 0,
      "note": 59,
      "start": 2.4567,
      "duration": 0.0043,
      "velocity": 88,
      "chip": "ym2612"
    },
    {
      "channel": 1,
      "note": 106,
      "start": 2.4571,
      "duration": 0.0023,
      "velocity": 114,
      "chip": "ym2612"
    },
    {
      "channel": 2,
      "note": 73,
      "start": 2.4574,
      "duration": 0.0049,
      "velocity": 114,
      "chip": "ym2612"
    },
    {
      "channel": 4,
      "note": 76,
      "start": 2.4581,
      "duration": 0.0107,
      "velocity": 114,
      "chip": "ym2612"
    },
    {
      "channel": 0,
      "note": 56,
      "start": 2.4617,
      "duration": 0.0085,
      "velocity": 88,
      "chip": "ym2612"
    },
    {
      "channel": 1,
      "note": 106,
      "start": 2.462,
      "duration": 0.0038,
      "velocity": 114,
      "chip": "ym2612"
    },
    {
      "channel": 2,
      "note": 78,
      "start": 2.4624,
      "duration": 0.0893,
      "velocity": 114,
      "chip": "ym2612"
    },
    {
      "channel": 3,
      "note": 73,
      "start": 2.4628,
      "duration": 0.0056,
      "velocity": 114,
      "chip": "ym2612"
    },
    {
      "channel": 3,
      "note": 78,
      "start": 2.4685,
      "duration": 0.1544,
      "velocity": 114,
      "chip": "ym2612"
    },
    {
      "channel": 4,
      "note": 73,
      "start": 2.4689,
      "duration": 0.0538,
      "velocity": 114,
      "chip": "ym2612"
    },
    {
      "channel": 0,
      "note": 52,
      "start": 2.522,
      "duration": 0.0056,
      "velocity": 88,
      "chip": "ym2612"
    },
    {
      "channel": 1,
      "note": 106,
      "start": 2.5223,
      "duration": 0.0032,
      "velocity": 114,
      "chip": "ym2612"
    },
    {
      "channel": 4,
      "note": 78,
      "start": 2.5228,
      "duration": 0.1045,
      "velocity": 114,
      "chip": "ym2612"
    },
    {
      "channel": 0,
      "note": 51,
      "start": 2.5465,
      "duration": 0.0759,
      "velocity": 88,
      "chip": "ym2612"
    },
    {
      "channel": 1,
      "note": 55,
      "start": 2.5484,
      "duration": 0.0009,
      "velocity": 120,
      "chip": "ym2612"
    },
    {
      "channel": 2,
      "note": 73,
      "start": 2.5519,
      "duration": 0.001,
      "velocity": 114,
      "chip": "ym2612"
    },
    {
      "channel": 2,
      "note": 76,
      "start": 2.553,
      "duration": 0.071,
      "velocity": 114,
      "chip": "ym2612"
    },
    {
      "channel": 0,
      "note": 52,
      "start": 2.6225,
      "duration": 0.0237,
      "velocity": 88,
      "chip": "ym2612"
    },
    {
      "channel": 3,
      "note": 73,
      "start": 2.6229,
      "duration": 0.002,
      "velocity": 114,
      "chip": "ym2612"
    },
    {
      "channel": 2,
      "note": 78,
      "start": 2.624,
      "duration": 0.0017,
      "velocity": 114,
      "chip": "ym2612"
    },
    {
      "channel": 3,
      "note": 76,
      "start": 2.6249,
      "duration": 0.0034,
      "velocity": 114,
      "chip": "ym2612"
    },
    {
      "channel": 2,
      "note": 79,
      "start": 2.6257,
      "duration": 0.0023,
      "velocity": 114,
      "chip": "ym2612"
    },
    {
      "channel": 4,
      "note": 73,
      "start": 2.6274,
      "duration": 0.0021,
      "velocity": 114,
      "chip": "ym2612"
    },
    {
      "channel": 2,
      "note": 80,
      "start": 2.628,
      "duration": 0.0186,
      "velocity": 114,
      "chip": "ym2612"
    },
    {
      "channel": 3,
      "note": 78,
      "start": 2.6284,
      "duration": 0.0186,
      "velocity": 114,
      "chip": "ym2612"
    },
    {
      "channel": 4,
      "note": 76,
      "start": 2.6295,
      "duration": 0.0888,
      "velocity": 114,
      "chip": "ym2612"
    },
    {
      "channel": 2,
      "note": 83,
      "start": 2.6467,
      "duration": 0.0829,
      "velocity": 114,
      "chip": "ym2612"
    },
    {
      "channel": 3,
      "note": 79,
      "start": 2.6471,
      "duration": 0.0708,
      "velocity": 114,
      "chip": "ym2612"
    },
    {
      "channel": 0,
      "note": 57,
      "start": 2.7131,
      "duration": 0.0095,
      "velocity": 88,
      "chip": "ym2612"
    },
    {
      "channel": 1,
      "note": 82,
      "start": 2.7149,
      "duration": 0.0027,
      "velocity": 127,
      "chip": "ym2612"
    },
    {
      "channel": 3,
      "note": 80,
      "start": 2.7179,
      "duration": 0.0015,
      "velocity": 114,
      "chip": "ym2612"
    },
    {
      "channel": 4,
      "note": 78,
      "start": 2.7184,
      "duration": 0.0015,
      "velocity": 114,
      "chip": "ym2612"
    },
    {
      "channel": 3,
      "note": 83,
      "start": 2.7195,
      "duration": 0.0157,
      "velocity": 114,
      "chip": "ym2612"
    },
    {
      "channel": 4,
      "note": 79,
      "start": 2.7199,
      "duration": 0.0006,
      "velocity": 114,
      "chip": "ym2612"
    },
    {
      "channel": 4,
      "note": 80,
      "start": 2.7205,
      "duration": 0.0016,
      "velocity": 114,
      "chip": "ym2612"
    },
    {
      "channel": 4,
      "note": 83,
      "start": 2.7222,
      "duration": 0.0196,
      "velocity": 114,
      "chip": "ym2612"
    },
    {
      "channel": 0,
      "note": 57,
      "start": 2.7235,
      "duration": 0.0031,
      "velocity": 88,
      "chip": "ym2612"
    },
    {
      "channel": 1,
      "note": 106,
      "start": 2.7253,
      "duration": 0.0008,
      "velocity": 114,
      "chip": "ym2612"
    },
    {
      "channel": 0,
      "note": 57,
      "start": 2.7273,
      "duration": 0.0033,
      "velocity": 88,
      "chip": "ym2612"
    },
    {
      "channel": 2,
      "note": 81,
      "start": 2.7296,
      "duration": 0.0052,
      "velocity": 114,
      "chip": "ym2612"
    },
    {
      "channel": 0,
      "note": 57,
      "start": 2.7314,
      "duration": 0.006,
      "velocity": 88,
      "chip": "ym2612"
    },
    {
      "channel": 1,
      "note": 106,
      "start": 2.7317,
      "duration": 0.0026,
      "velocity": 114,
      "chip": "ym2612"
    },
    {
      "channel": 2,
      "note": 88,
      "start": 2.7348,
      "duration": 0.02,
      "velocity": 114,
      "chip": "ym2612"
    },
    {
      "channel": 3,
      "note": 81,
      "start": 2.7352,
      "duration": 0.0062,
      "velocity": 114,
      "chip": "ym2612"
    },
    {
      "channel": 0,
      "note": 57,
      "start": 2.738,
      "duration": 0.0048,
      "velocity": 88,
      "chip": "ym2612"
    },
    {
      "channel": 3,
      "note": 88,
      "start": 2.7415,
      "duration": 0.0178,
      "velocity": 114,
      "chip": "ym2612"
    },
    {
      "channel": 4,
      "note": 81,
      "start": 2.7418,
      "duration": 0.0043,
      "velocity": 114,
      "chip": "ym2612"
    },
    {
      "channel": 0,
      "note": 57,
      "start": 2.7439,
      "duration": 0.004,
      "velocity": 88,
      "chip": "ym2612"
    },
    {
      "channel": 1,
      "note": 106,
      "start": 2.7442,
      "duration": 0.0016,
      "velocity": 114,
      "chip": "ym2612"
    },
    {
      "channel": 4,
      "note": 88,
      "start": 2.7462,
      "duration": 0.0173,
      "velocity": 114,
      "chip": "ym2612"
    },
    {
      "channel": 0,
      "note": 52,
      "start": 2.749,
      "duration": 0.0055,
      "velocity": 88,
      "chip": "ym2612"
    },
    {
      "channel": 1,
      "note": 106,
      "start": 2.7519,
      "duration": 0.0008,
      "velocity": 114,
      "chip": "ym2612"
    },
    {
      "channel": 0,
      "note": 52,
      "start": 2.7545,
      "duration": 0.001,
      "velocity": 88,
      "chip": "ym2612"
    },
    {
      "channel": 2,
      "note": 85,
      "start": 2.7549,
      "duration": 0.0023,
      "velocity": 114,
      "chip": "ym2612"
    },
    {
      "channel": 2,
      "note": 83,
      "start": 2.7572,
      "duration": 0.0046,
      "velocity": 114,
      "chip": "ym2612"
    },
    {
      "channel": 0,
      "note": 52,
      "start": 2.7585,
      "duration": 0.0046,
      "velocity": 88,
      "chip": "ym2612"
    },
    {
      "channel": 1,
      "note": 106,
      "start": 2.7588,
      "duration": 0.0023,
      "velocity": 114,
      "chip": "ym2612"
    },
    {
      "channel": 3,
      "note": 85,
      "start": 2.7592,
      "duration": 0.0033,
      "velocity": 114,
      "chip": "ym2612"
    },
    {
      "channel": 2,
      "note": 84,
      "start": 2.7619,
      "duration": 0.003,
      "velocity": 114,
      "chip": "ym2612"
    },
    {
      "channel": 3,
      "note": 83,
      "start": 2.7626,
      "duration": 0.003,
      "velocity": 114,
      "chip": "ym2612"
    },
    {
      "channel": 0,
      "note": 52,
      "start": 2.7632,
      "duration": 0.0029,
      "velocity": 88,
      "chip": "ym2612"
    },
    {
      "channel": 4,
      "note": 85,
      "start": 2.7636,
      "duration": 0.0037,
      "velocity": 114,
      "chip": "ym2612"
    },
    {
      "channel": 2,
      "note": 85,
      "start": 2.7649,
      "duration": 0.0019,
      "velocity": 114,
      "chip": "ym2612"
    },
    {
      "channel": 3,
      "note": 84,
      "start": 2.7657,
      "duration": 0.0052,
      "velocity": 114,
      "chip": "ym2612"
    },
    {
      "channel": 2,
      "note": 88,
      "start": 2.7668,
      "duration": 0.0047,
      "velocity": 114,
      "chip": "ym2612"
    },
    {
      "channel": 4,
      "note": 83,
      "start": 2.7673,
      "duration": 0.0047,
      "velocity": 114,
      "chip": "ym2612"
    },
    {
      "channel": 0,
      "note": 52,
      "start": 2.7679,
      "duration": 0.0046,
      "velocity": 88,
      "chip": "ym2612"
    },
    {
      "channel": 1,
      "note": 106,
      "start": 2.7682,
      "duration": 0.0023,
      "velocity": 114,
      "chip": "ym2612"
    },
    {
      "channel": 3,
      "note": 85,
      "start": 2.771,
      "duration": 0.0018,
      "velocity": 114,
      "chip": "ym2612"
    },
    {
      "channel": 2,
      "note": 85,
      "start": 2.7717,
      "duration": 0.0048,
      "velocity": 114,
      "chip": "ym2612"
    },
    {
      "channel": 4,
      "note": 84,
      "start": 2.772,
      "duration": 0.0048,
      "velocity": 114,
      "chip": "ym2612"
    },
    {
      "channel": 3,
      "note": 88,
      "start": 2.7729,
      "duration": 0.0047,
      "velocity": 114,
      "chip": "ym2612"
    },
    {
      "channel": 0,
      "note": 52,
      "start": 2.7735,
      "duration": 0.0045,
      "velocity": 88,
      "chip": "ym2612"
    },
    {
      "channel": 2,
      "note": 84,
      "start": 2.7765,
      "duration": 0.0023,
      "velocity": 114,
      "chip": "ym2612"
    },
    {
      "channel": 4,
      "note": 85,
      "start": 2.7769,
      "duration": 0.0022,
      "velocity": 114,
      "chip": "ym2612"
    },
    {
      "channel": 3,
      "note": 85,
      "start": 2.7776,
      "duration": 0.0048,
      "velocity": 114,
      "chip": "ym2612"
    },
    {
      "channel": 2,
      "note": 83,
      "start": 2.7788,
      "duration": 0.0042,
      "velocity": 114,
      "chip": "ym2612"
    },
    {
      "channel": 4,
      "note": 88,
      "start": 2.7792,
      "duration": 0.0046,
      "velocity": 114,
      "chip": "ym2612"
    },
    {
      "channel": 0,
      "note": 52,
      "start": 2.7798,
      "duration": 0.0045,
      "velocity": 88,
      "chip": "ym2612"
    },
    {
      "channel": 1,
      "note": 106,
      "start": 2.7801,
      "duration": 0.002,
      "velocity": 114,
      "chip": "ym2612"
    },
    {
      "channel": 3,
      "note": 84,
      "start": 2.7824,
      "duration": 0.0025,
      "velocity": 114,
      "chip": "ym2612"
    },
    {
      "channel": 2,
      "note": 84,
      "start": 2.7831,
      "duration": 0.0015,
      "velocity": 114,
      "chip": "ym2612"
    },
    {
      "channel": 4,
      "note": 85,
      "start": 2.7838,
      "duration": 0.003,
      "velocity": 114,
      "chip": "ym2612"
    },
    {
      "channel": 2,
      "note": 85,
      "start": 2.7846,
      "duration": 0.0029,
      "velocity": 114,
      "chip": "ym2612"
    },
    {
      "channel": 3,
      "note": 83,
      "start": 2.7851,
      "duration": 0.0028,
      "velocity": 114,
      "chip": "ym2612"
    },
    {
      "channel": 0,
      "note": 59,
      "start": 2.7857,
      "duration": 0.0098,
      "velocity": 88,
      "chip": "ym2612"
    },
    {
      "channel": 4,
      "note": 84,
      "start": 2.7869,
      "duration": 0.0021,
      "velocity": 114,
      "chip": "ym2612"
    },
    {
      "channel": 2,
      "note": 88,
      "start": 2.7875,
      "duration": 0.0212,
      "velocity": 114,
      "chip": "ym2612"
    },
    {
      "channel": 3,
      "note": 84,
      "start": 2.7879,
      "duration": 0.0007,
      "velocity": 114,
      "chip": "ym2612"
    },
    {
      "channel": 3,
      "note": 85,
      "start": 2.7886,
      "duration": 0.0031,
      "velocity": 114,
      "chip": "ym2612"
    },
    {
      "channel": 4,
      "note": 83,
      "start": 2.789,
      "duration": 0.0031,
      "velocity": 114,
      "chip": "ym2612"
    },
    {
      "channel": 1,
      "note": 106,
      "start": 2.7896,
      "duration": 0.0012,
      "velocity": 114,
      "chip": "ym2612"
    },
    {
      "channel": 3,
      "note": 88,
      "start": 2.7917,
      "duration": 0.0209,
      "velocity": 114,
      "chip": "ym2612"
    },
    {
      "channel": 4,
      "note": 84,
      "start": 2.7921,
      "duration": 0.0007,
      "velocity": 114,
      "chip": "ym2612"
    },
    {
      "channel": 4,
      "note": 85,
      "start": 2.7929,
      "duration": 0.0022,
      "velocity": 114,
      "chip": "ym2612"
    },
    {
      "channel": 4,
      "note": 88,
      "start": 2.7951,
      "duration": 0.0721,
      "velocity": 114,
      "chip": "ym2612"
    },
    {
      "channel": 0,
      "note": 59,
      "start": 2.7961,
      "duration": 0.0026,
      "velocity": 88,
      "chip": "ym2612"
    },
    {
      "channel": 1,
      "note": 106,
      "start": 2.7964,
      "duration": 0.0013,
      "velocity": 114,
      "chip": "ym2612"
    },
    {
      "channel": 0,
      "note": 59,
      "start": 2.7988,
      "duration": 0.0011,
      "velocity": 88,
      "chip": "ym2612"
    },
    {
      "channel": 0,
      "note": 59,
      "start": 2.801,
      "duration": 0.0028,
      "velocity": 88,
      "chip": "ym2612"
    },
    {
      "channel": 1,
      "note": 106,
      "start": 2.8013,
      "duration": 0.0009,
      "velocity": 114,
      "chip": "ym2612"
    },
    {
      "channel": 0,
      "note": 59,
      "start": 2.8044,
      "duration": 0.0022,
      "velocity": 88,
      "chip": "ym2612"
    },
    {
      "channel": 1,
      "note": 106,
      "start": 2.8047,
      "duration": 0.0009,
      "velocity": 114,
      "chip": "ym2612"
    },
    {
      "channel": 0,
      "note": 54,
      "start": 2.8066,
      "duration": 0.0239,
      "velocity": 88,
      "chip": "ym2612"
    },
    {
      "channel": 1,
      "note": 82,
      "start": 2.8083,
      "duration": 0.0017,
      "velocity": 127,
      "chip": "ym2612"
    },
    {
      "channel": 2,
      "note": 85,
      "start": 2.8088,
      "duration": 0.0615,
      "velocity": 114,
      "chip": "ym2612"
    },
    {
      "channel": 3,
      "note": 85,
      "start": 2.8127,
      "duration": 0.0593,
      "velocity": 114,
      "chip": "ym2612"
    },
    {
      "channel": 0,
      "note": 55,
      "start": 2.8665,
      "duration": 0.0059,
      "velocity": 88,
      "chip": "ym2612"
    },
    {
      "channel": 1,
      "note": 82,
      "start": 2.8668,
      "duration": 0.003,
      "velocity": 127,
      "chip": "ym2612"
    },
    {
      "channel": 4,
      "note": 85,
      "start": 2.8672,
      "duration": 0.0265,
      "velocity": 114,
      "chip": "ym2612"
    },
    {
      "channel": 2,
      "note": 86,
      "start": 2.8703,
      "duration": 0.0221,
      "velocity": 114,
      "chip": "ym2612"
    },
    {
      "channel": 3,
      "note": 86,
      "start": 2.872,
      "duration": 0.0224,
      "velocity": 114,
      "chip": "ym2612"
    },
    {
      "channel": 0,
      "note": 56,
      "start": 2.8917,
      "duration": 0.0035,
      "velocity": 88,
      "chip": "ym2612"
    },
    {
      "channel": 1,
      "note": 82,
      "start": 2.892,
      "duration": 0.0013,
      "velocity": 127,
      "chip": "ym2612"
    },
    {
      "channel": 2,
      "note": 87,
      "start": 2.8924,
      "duration": 0.0573,
      "velocity": 114,
      "chip": "ym2612"
    },
    {
      "channel": 4,
      "note": 86,
      "start": 2.8938,
      "duration": 0.0564,
      "velocity": 114,
      "chip": "ym2612"
    },
    {
      "channel": 3,
      "note": 87,
      "start": 2.8945,
      "duration": 0.0573,
      "velocity": 114,
      "chip": "ym2612"
    },
    {
      "channel": 0,
      "note": 59,
      "start": 2.9491,
      "duration": 0.0037,
      "velocity": 88,
      "chip": "ym2612"
    },
    {
      "channel": 1,
      "note": 82,
      "start": 2.9495,
      "duration": 0.0017,
      "velocity": 127,
      "chip": "ym2612"
    },
    {
      "channel": 2,
      "note": 83,
      "start": 2.9498,
      "duration": 0.0031,
      "velocity": 114,
      "chip": "ym2612"
    },
    {
      "channel": 4,
      "note": 87,
      "start": 2.9503,
      "duration": 0.0031,
      "velocity": 114,
      "chip": "ym2612"
    },
    {
      "channel": 3,
      "note": 83,
      "start": 2.9519,
      "duration": 0.0034,
      "velocity": 114,
      "chip": "ym2612"
    },
    {
      "channel": 0,
      "note": 56,
      "start": 2.9529,
      "duration": 0.0019,
      "velocity": 88,
      "chip": "ym2612"
    },
    {
      "channel": 4,
      "note": 83,
      "start": 2.9534,
      "duration": 0.0039,
      "velocity": 114,
      "chip": "ym2612"
    },
    {
      "channel": 0,
      "note": 61,
      "start": 2.9548,
      "duration": 0.0017,
      "velocity": 88,
      "chip": "ym2612"
    },
    {
      "channel": 1,
      "note": 82,
      "start": 2.9551,
      "duration": 0.001,
      "velocity": 127,
      "chip": "ym2612"
    },
    {
      "channel": 0,
      "note": 59,
      "start": 2.9572,
      "duration": 0.0011,
      "velocity": 88,
      "chip": "ym2612"
    },
    {
      "channel": 0,
      "note": 56,
      "start": 2.959,
      "duration": 0.0007,
      "velocity": 88,
      "chip": "ym2612"
    },
    {
      "channel": 0,
      "note": 55,
      "start": 2.9604,
      "duration": 0.001,
      "velocity": 88,
      "chip": "ym2612"
    },
    {
      "channel": 0,
      "note": 54,
      "start": 2.9615,
      "duration": 0.0009,
      "velocity": 88,
      "chip": "ym2612"
    },
    {
      "channel": 0,
      "note": 52,
      "start": 2.9624,
      "duration": 0.0024,
      "velocity": 88,
      "chip": "ym2612"
    },
    {
      "channel": 0,
      "note": 49,
      "start": 2.9647,
      "duration": 0.0024,
      "velocity": 88,
      "chip": "ym2612"
    },
    {
      "channel": 0,
      "note": 47,
      "start": 2.9671,
      "duration": 0.0009,
      "velocity": 88,
      "chip": "ym2612"
    },
    {
      "channel": 0,
      "note": 49,
      "start": 2.968,
      "duration": 0.0028,
      "velocity": 88,
      "chip": "ym2612"
    },
    {
      "channel": 1,
      "note": 82,
      "start": 2.9683,
      "duration": 0.0017,
      "velocity": 127,
      "chip": "ym2612"
    },
    {
      "channel": 1,
      "note": 84,
      "start": 2.973,
      "duration": 0.0009,
      "velocity": 123,
      "chip": "ym2612"
    },
    {
      "channel": 1,
      "note": 84,
      "start": 2.9787,
      "duration": 0.0009,
      "velocity": 123,
      "chip": "ym2612"
    },
    {
      "channel": 1,
      "note": 84,
      "start": 2.9821,
      "duration": 0.0022,
      "velocity": 123,
      "chip": "ym2612"
    },
    {
      "channel": 1,
      "note": 101,
      "start": 2.9865,
      "duration": 0.0007,
      "velocity": 114,
      "chip": "ym2612"
    },
    {
      "channel": 1,
      "note": 106,
      "start": 2.9894,
      "duration": 0.0005,
      "velocity": 127,
      "chip": "ym2612"
    },
    {
      "channel": 1,
      "note": 106,
      "start": 2.9927,
      "duration": 0.001,
      "velocity": 114,
      "chip": "ym2612"
    },
    {
      "channel": 1,
      "note": 55,
      "start": 2.9971,
      "duration": 0.0019,
      "velocity": 120,
      "chip": "ym2612"
    },
    {
      "channel": 2,
      "note": 88,
      "start": 3.0041,
      "duration": 0.0154,
      "velocity": 114,
      "chip": "ym2612"
    },
    {
      "channel": 1,
      "note": 62,
      "start": 3.0082,
      "duration": 0.0027,
      "velocity": 120,
      "chip": "ym2612"
    },
    {
      "channel": 3,
      "note": 88,
      "start": 3.0088,
      "duration": 0.0188,
      "velocity": 114,
      "chip": "ym2612"
    },
    {
      "channel": 1,
      "note": 59,
      "start": 3.0135,
      "duration": 0.0027,
      "velocity": 120,
      "chip": "ym2612"
    },
    {
      "channel": 1,
      "note": 55,
      "start": 3.0191,
      "duration": 0.005,
      "velocity": 120,
      "chip": "ym2612"
    },
    {
      "channel": 2,
      "note": 85,
      "start": 3.0195,
      "duration": 0.0078,
      "velocity": 114,
      "chip": "ym2612"
    },
    {
      "channel": 4,
      "note": 88,
      "start": 3.0201,
      "duration": 0.0141,
      "velocity": 114,
      "chip": "ym2612"
    },
    {
      "channel": 2,
      "note": 84,
      "start": 3.0273,
      "duration": 0.0062,
      "velocity": 114,
      "chip": "ym2612"
    },
    {
      "channel": 3,
      "note": 85,
      "start": 3.0277,
      "duration": 0.0061,
      "velocity": 114,
      "chip": "ym2612"
    },
    {
      "channel": 2,
      "note": 83,
      "start": 3.0335,
      "duration": 0.0037,
      "velocity": 114,
      "chip": "ym2612"
    },
    {
      "channel": 3,
      "note": 84,
      "start": 3.0339,
      "duration": 0.0015,
      "velocity": 114,
      "chip": "ym2612"
    },
    {
      "channel": 4,
      "note": 85,
      "start": 3.0343,
      "duration": 0.0016,
      "velocity": 114,
      "chip": "ym2612"
    },
    {
      "channel": 3,
      "note": 83,
      "start": 3.0355,
      "duration": 0.0045,
      "velocity": 114,
      "chip": "ym2612"
    },
    {
      "channel": 4,
      "note": 84,
      "start": 3.0359,
      "duration": 0.0017,
      "velocity": 114,
      "chip": "ym2612"
    },
    {
      "channel": 2,
      "note": 76,
      "start": 3.0372,
      "duration": 0.0071,
      "velocity": 114,
      "chip": "ym2612"
    },
    {
      "channel": 4,
      "note": 83,
      "start": 3.0376,
      "duration": 0.0073,
      "velocity": 114,
      "chip": "ym2612"
    },
    {
      "channel": 3,
      "note": 76,
      "start": 3.04,
      "duration": 0.0096,
      "velocity": 114,
      "chip": "ym2612"
    },
    {
      "channel": 2,
      "note": 73,
      "start": 3.0443,
      "duration": 0.0049,
      "velocity": 114,
      "chip": "ym2612"
    },
    {
      "channel": 4,
      "note": 76,
      "start": 3.0449,
      "duration": 0.0113,
      "velocity": 114,
      "chip": "ym2612"
    },
    {
      "channel": 2,
      "note": 72,
      "start": 3.0492,
      "duration": 0.0061,
      "velocity": 114,
      "chip": "ym2612"
    },
    {
      "channel": 3,
      "note": 73,
      "start": 3.0497,
      "duration": 0.0062,
      "velocity": 114,
      "chip": "ym2612"
    },
    {
      "channel": 1,
      "note": 106,
      "start": 3.0551,
      "duration": 0.0025,
      "velocity": 114,
      "chip": "ym2612"
    },
    {
      "channel": 2,
      "note": 71,
      "start": 3.0554,
      "duration": 0.0963,
      "velocity": 114,
      "chip": "ym2612"
    },
    {
      "channel": 3,
      "note": 72,
      "start": 3.0558,
      "duration": 0.0032,
      "velocity": 114,
      "chip": "ym2612"
    },
    {
      "channel": 4,
      "note": 73,
      "start": 3.0563,
      "duration": 0.0032,
      "velocity": 114,
      "chip": "ym2612"
    },
    {
      "channel": 3,
      "note": 71,
      "start": 3.0591,
      "duration": 0.0962,
      "velocity": 114,
      "chip": "ym2612"
    },
    {
      "channel": 4,
      "note": 72,
      "start": 3.0595,
      "duration": 0.0046,
      "velocity": 114,
      "chip": "ym2612"
    },
    {
      "channel": 4,
      "note": 71,
      "start": 3.0641,
      "duration": 0.0972,
      "velocity": 114,
      "chip": "ym2612"
    },
    {
      "channel": 1,
      "note": 106,
      "start": 3.0661,
      "duration": 0.0009,
      "velocity": 114,
      "chip": "ym2612"
    },
    {
      "channel": 1,
      "note": 82,
      "start": 3.0701,
      "duration": 0.0006,
      "velocity": 127,
      "chip": "ym2612"
    },
    {
      "channel": 1,
      "note": 82,
      "start": 3.0715,
      "duration": 0.0006,
      "velocity": 127,
      "chip": "ym2612"
    },
    {
      "channel": 1,
      "note": 82,
      "start": 3.0789,
      "duration": 0.0017,
      "velocity": 127,
      "chip": "ym2612"
    },
    {
      "channel": 1,
      "note": 84,
      "start": 3.087,
      "duration": 0.0025,
      "velocity": 123,
      "chip": "ym2612"
    },
    {
      "channel": 1,
      "note": 84,
      "start": 3.0931,
      "duration": 0.0025,
      "velocity": 123,
      "chip": "ym2612"
    },
    {
      "channel": 1,
      "note": 84,
      "start": 3.1043,
      "duration": 0.0011,
      "velocity": 123,
      "chip": "ym2612"
    },
    {
      "channel": 1,
      "note": 84,
      "start": 3.1157,
      "duration": 0.001,
      "velocity": 123,
      "chip": "ym2612"
    },
    {
      "channel": 1,
      "note": 84,
      "start": 3.1368,
      "duration": 0.0031,
      "velocity": 123,
      "chip": "ym2612"
    },
    {
      "channel": 2,
      "note": 88,
      "start": 3.1517,
      "duration": 0.009,
      "velocity": 114,
      "chip": "ym2612"
    },
    {
      "channel": 1,
      "note": 84,
      "start": 3.1549,
      "duration": 0.0018,
      "velocity": 123,
      "chip": "ym2612"
    },
    {
      "channel": 3,
      "note": 88,
      "start": 3.1554,
      "duration": 0.0128,
      "velocity": 114,
      "chip": "ym2612"
    },
    {
      "channel": 1,
      "note": 84,
      "start": 3.1604,
      "duration": 0.0037,
      "velocity": 123,
      "chip": "ym2612"
    },
    {
      "channel": 2,
      "note": 85,
      "start": 3.1608,
      "duration": 0.007,
      "velocity": 114,
      "chip": "ym2612"
    },
    {
      "channel": 4,
      "note": 88,
      "start": 3.1614,
      "duration": 0.0125,
      "velocity": 114,
      "chip": "ym2612"
    },
    {
      "channel": 2,
      "note": 84,
      "start": 3.1679,
      "duration": 0.0052,
      "velocity": 114,
      "chip": "ym2612"
    },
    {
      "channel": 3,
      "note": 85,
      "start": 3.1683,
      "duration": 0.0052,
      "velocity": 114,
      "chip": "ym2612"
    },
    {
      "channel": 2,
      "note": 83,
      "start": 3.173,
      "duration": 0.0048,
      "velocity": 114,
      "chip": "ym2612"
    },
    {
      "channel": 3,
      "note": 84,
      "start": 3.1735,
      "duration": 0.0018,
      "velocity": 114,
      "chip": "ym2612"
    },
    {
      "channel": 4,
      "note": 85,
      "start": 3.1739,
      "duration": 0.0019,
      "velocity": 114,
      "chip": "ym2612"
    },
    {
      "channel": 1,
      "note": 84,
      "start": 3.175,
      "duration": 0.0018,
      "velocity": 123,
      "chip": "ym2612"
    },
    {
      "channel": 3,
      "note": 83,
      "start": 3.1754,
      "duration": 0.0071,
      "velocity": 114,
      "chip": "ym2612"
    },
    {
      "channel": 4,
      "note": 84,
      "start": 3.1758,
      "duration": 0.0024,
      "velocity": 114,
      "chip": "ym2612"
    },
    {
      "channel": 1,
      "note": 84,
      "start": 3.1775,
      "duration": 0.003,
      "velocity": 123,
      "chip": "ym2612"
    },
    {
      "channel": 2,
      "note": 76,
      "start": 3.1778,
      "duration": 0.0107,
      "velocity": 114,
      "chip": "ym2612"
    },
    {
      "channel": 4,
      "note": 83,
      "start": 3.1783,
      "duration": 0.0108,
      "velocity": 114,
      "chip": "ym2612"
    },
    {
      "channel": 3,
      "note": 76,
      "start": 3.1825,
      "duration": 0.0126,
      "velocity": 114,
      "chip": "ym2612"
    },
    {
      "channel": 0,
      "note": 64,
      "start": 3.1881,
      "duration": 0.004,
      "velocity": 88,
      "chip": "ym2612"
    },
    {
      "channel": 2,
      "note": 73,
      "start": 3.1886,
      "duration": 0.0062,
      "velocity": 114,
      "chip": "ym2612"
    },
    {
      "channel": 4,
      "note": 76,
      "start": 3.1891,
      "duration": 0.0124,
      "velocity": 114,
      "chip": "ym2612"
    },
    {
      "channel": 0,
      "note": 61,
      "start": 3.1922,
      "duration": 0.0021,
      "velocity": 88,
      "chip": "ym2612"
    },
    {
      "channel": 0,
      "note": 59,
      "start": 3.1944,
      "duration": 0.0038,
      "velocity": 88,
      "chip": "ym2612"
    },
    {
      "channel": 2,
      "note": 72,
      "start": 3.1948,
      "duration": 0.006,
      "velocity": 114,
      "chip": "ym2612"
    },
    {
      "channel": 3,
      "note": 73,
      "start": 3.1952,
      "duration": 0.0059,
      "velocity": 114,
      "chip": "ym2612"
    },
    {
      "channel": 0,
      "note": 44,
      "start": 3.1983,
      "duration": 0.0021,
      "velocity": 88,
      "chip": "ym2612"
    },
    {
      "channel": 0,
      "note": 61,
      "start": 3.2004,
      "duration": 0.0027,
      "velocity": 88,
      "chip": "ym2612"
    },
    {
      "channel": 2,
      "note": 71,
      "start": 3.2008,
      "duration": 0.0151,
      "velocity": 114,
      "chip": "ym2612"
    },
    {
      "channel": 3,
      "note": 72,
      "start": 3.2012,
      "duration": 0.0034,
      "velocity": 114,
      "chip": "ym2612"
    },
    {
      "channel": 4,
      "note": 73,
      "start": 3.2016,
      "duration": 0.0034,
      "velocity": 114,
      "chip": "ym2612"
    },
    {
      "channel": 0,
      "note": 59,
      "start": 3.2032,
      "duration": 0.001,
      "velocity": 88,
      "chip": "ym2612"
    },
    {
      "channel": 0,
      "note": 56,
      "start": 3.2042,
      "duration": 0.0019,
      "velocity": 88,
      "chip": "ym2612"
    },
    {
      "channel": 3,
      "note": 71,
      "start": 3.2046,
      "duration": 0.0138,
      "velocity": 114,
      "chip": "ym2612"
    },
    {
      "channel": 4,
      "note": 72,
      "start": 3.2051,
      "duration": 0.0022,
      "velocity": 114,
      "chip": "ym2612"
    },
    {
      "channel": 0,
      "note": 44,
      "start": 3.2061,
      "duration": 0.0008,
      "velocity": 88,
      "chip": "ym2612"
    },
    {
      "channel": 0,
      "note": 56,
      "start": 3.2069,
      "duration": 0.0015,
      "velocity": 88,
      "chip": "ym2612"
    },
    {
      "channel": 4,
      "note": 71,
      "start": 3.2074,
      "duration": 0.1583,
      "velocity": 114,
      "chip": "ym2612"
    },
    {
      "channel": 0,
      "note": 55,
      "start": 3.2084,
      "duration": 0.001,
      "velocity": 88,
      "chip": "ym2612"
    },
    {
      "channel": 0,
      "note": 54,
      "start": 3.2094,
      "duration": 0.001,
      "velocity": 88,
      "chip": "ym2612"
    },
    {
      "channel": 0,
      "note": 44,
      "start": 3.2105,
      "duration": 0.0008,
      "velocity": 88,
      "chip": "ym2612"
    },
    {
      "channel": 0,
      "note": 47,
      "start": 3.2114,
      "duration": 0.0035,
      "velocity": 88,
      "chip": "ym2612"
    },
    {
      "channel": 1,
      "note": 82,
      "start": 3.2132,
      "duration": 0.0009,
      "velocity": 127,
      "chip": "ym2612"
    },
    {
      "channel": 0,
      "note": 49,
      "start": 3.2155,
      "duration": 0.0021,
      "velocity": 88,
      "chip": "ym2612"
    },
    {
      "channel": 1,
      "note": 82,
      "start": 3.2158,
      "duration": 0.0012,
      "velocity": 127,
      "chip": "ym2612"
    },
    {
      "channel": 0,
      "note": 49,
      "start": 3.2183,
      "duration": 0.1129,
      "velocity": 88,
      "chip": "ym2612"
    },
    {
      "channel": 0,
      "note": 49,
      "start": 3.3656,
      "duration": 0.0008,
      "velocity": 88,
      "chip": "ym2612"
    },
    {
      "channel": 0,
      "note": 49,
      "start": 3.3672,
      "duration": 0.1149,
      "velocity": 88,
      "chip": "ym2612"
    },
    {
      "channel": 0,
      "note": 49,
      "start": 3.5163,
      "duration": 0.0007,
      "velocity": 88,
      "chip": "ym2612"
    },
    {
      "channel": 0,
      "note": 49,
      "start": 3.5176,
      "duration": 0.132,
      "velocity": 88,
      "chip": "ym2612"
    },
    {
      "channel": 0,
      "note": 49,
      "start": 3.6671,
      "duration": 0.0007,
      "velocity": 88,
      "chip": "ym2612"
    },
    {
      "channel": 0,
      "note": 49,
      "start": 3.6685,
      "duration": 0.1322,
      "velocity": 88,
      "chip": "ym2612"
    },
    {
      "channel": 0,
      "note": 49,
      "start": 3.818,
      "duration": 0.0007,
      "velocity": 88,
      "chip": "ym2612"
    },
    {
      "channel": 0,
      "note": 49,
      "start": 3.8194,
      "duration": 0.1319,
      "velocity": 88,
      "chip": "ym2612"
    },
    {
      "channel": 0,
      "note": 49,
      "start": 3.969,
      "duration": 0.0007,
      "velocity": 88,
      "chip": "ym2612"
    },
    {
      "channel": 0,
      "note": 49,
      "start": 3.9704,
      "duration": 0.1317,
      "velocity": 88,
      "chip": "ym2612"
    },
    {
      "channel": 0,
      "note": 49,
      "start": 4.1363,
      "duration": 0.0007,
      "velocity": 88,
      "chip": "ym2612"
    },
    {
      "channel": 0,
      "note": 49,
      "start": 4.1378,
      "duration": 0.1152,
      "velocity": 88,
      "chip": "ym2612"
    },
    {
      "channel": 0,
      "note": 49,
      "start": 4.2872,
      "duration": 0.0007,
      "velocity": 88,
      "chip": "ym2612"
    },
    {
      "channel": 0,
      "note": 49,
      "start": 4.2887,
      "duration": 0.1153,
      "velocity": 88,
      "chip": "ym2612"
    },
    {
      "channel": 0,
      "note": 49,
      "start": 4.4381,
      "duration": 0.0007,
      "velocity": 88,
      "chip": "ym2612"
    },
    {
      "channel": 0,
      "note": 49,
      "start": 4.4396,
      "duration": 0.1319,
      "velocity": 88,
      "chip": "ym2612"
    },
    {
      "channel": 0,
      "note": 49,
      "start": 4.5891,
      "duration": 0.0007,
      "velocity": 88,
      "chip": "ym2612"
    },
    {
      "channel": 0,
      "note": 49,
      "start": 4.5905,
      "duration": 0.1322,
      "velocity": 88,
      "chip": "ym2612"
    },
    {
      "channel": 0,
      "note": 49,
      "start": 4.74,
      "duration": 0.0007,
      "velocity": 88,
      "chip": "ym2612"
    },
    {
      "channel": 0,
      "note": 49,
      "start": 4.7414,
      "duration": 0.1319,
      "velocity": 88,
      "chip": "ym2612"
    },
    {
      "channel": 0,
      "note": 49,
      "start": 4.9077,
      "duration": 0.0007,
      "velocity": 88,
      "chip": "ym2612"
    },
    {
      "channel": 0,
      "note": 49,
      "start": 4.9104,
      "duration": 0.0016,
      "velocity": 88,
      "chip": "ym2612"
    },
    {
      "channel": 1,
      "note": 82,
      "start": 4.9107,
      "duration": 0.0009,
      "velocity": 127,
      "chip": "ym2612"
    },
    {
      "channel": 0,
      "note": 49,
      "start": 4.9126,
      "duration": 0.0011,
      "velocity": 88,
      "chip": "ym2612"
    },
    {
      "channel": 0,
      "note": 49,
      "start": 4.9145,
      "duration": 0.1158,
      "velocity": 88,
      "chip": "ym2612"
    },
    {
      "channel": 0,
      "note": 49,
      "start": 5.0644,
      "duration": 0.0007,
      "velocity": 88,
      "chip": "ym2612"
    },
    {
      "channel": 0,
      "note": 49,
      "start": 5.0678,
      "duration": 0.002,
      "velocity": 88,
      "chip": "ym2612"
    },
    {
      "channel": 1,
      "note": 82,
      "start": 5.0681,
      "duration": 0.0012,
      "velocity": 127,
      "chip": "ym2612"
    },
    {
      "channel": 0,
      "note": 49,
      "start": 5.0704,
      "duration": 0.0011,
      "velocity": 88,
      "chip": "ym2612"
    },
    {
      "channel": 0,
      "note": 49,
      "start": 5.0723,
      "duration": 0.116,
      "velocity": 88,
      "chip": "ym2612"
    },
    {
      "channel": 0,
      "note": 49,
      "start": 5.2222,
      "duration": 0.0007,
      "velocity": 88,
      "chip": "ym2612"
    },
    {
      "channel": 0,
      "note": 49,
      "start": 5.2236,
      "duration": 0.0026,
      "velocity": 88,
      "chip": "ym2612"
    },
    {
      "channel": 1,
      "note": 82,
      "start": 5.2239,
      "duration": 0.0018,
      "velocity": 127,
      "chip": "ym2612"
    },
    {
      "channel": 0,
      "note": 49,
      "start": 5.2269,
      "duration": 0.0008,
      "velocity": 88,
      "chip": "ym2612"
    },
    {
      "channel": 0,
      "note": 49,
      "start": 5.2283,
      "duration": 0.003,
      "velocity": 88,
      "chip": "ym2612"
    },
    {
      "channel": 0,
      "note": 49,
      "start": 5.2329,
      "duration": 0.0024,
      "velocity": 88,
      "chip": "ym2612"
    },
    {
      "channel": 0,
      "note": 49,
      "start": 5.2358,
      "duration": 0.0011,
      "velocity": 88,
      "chip": "ym2612"
    },
    {
      "channel": 0,
      "note": 49,
      "start": 5.238,
      "duration": 0.0023,
      "velocity": 88,
      "chip": "ym2612"
    },
    {
      "channel": 0,
      "note": 49,
      "start": 5.241,
      "duration": 0.0031,
      "velocity": 88,
      "chip": "ym2612"
    },
    {
      "channel": 0,
      "note": 49,
      "start": 5.2456,
      "duration": 0.0024,
      "velocity": 88,
      "chip": "ym2612"
    },
    {
      "channel": 0,
      "note": 49,
      "start": 5.2499,
      "duration": 0.0039,
      "velocity": 88,
      "chip": "ym2612"
    },
    {
      "channel": 0,
      "note": 49,
      "start": 5.2551,
      "duration": 0.0024,
      "velocity": 88,
      "chip": "ym2612"
    },
    {
      "channel": 0,
      "note": 49,
      "start": 5.2589,
      "duration": 0.0027,
      "velocity": 88,
      "chip": "ym2612"
    },
    {
      "channel": 0,
      "note": 49,
      "start": 5.2629,
      "duration": 0.0024,
      "velocity": 88,
      "chip": "ym2612"
    },
    {
      "channel": 0,
      "note": 49,
      "start": 5.2659,
      "duration": 0.0031,
      "velocity": 88,
      "chip": "ym2612"
    },
    {
      "channel": 0,
      "note": 49,
      "start": 5.2696,
      "duration": 0.0009,
      "velocity": 88,
      "chip": "ym2612"
    },
    {
      "channel": 0,
      "note": 49,
      "start": 5.2712,
      "duration": 0.003,
      "velocity": 88,
      "chip": "ym2612"
    },
    {
      "channel": 0,
      "note": 49,
      "start": 5.2755,
      "duration": 0.0024,
      "velocity": 88,
      "chip": "ym2612"
    },
    {
      "channel": 0,
      "note": 49,
      "start": 5.2785,
      "duration": 0.0045,
      "velocity": 88,
      "chip": "ym2612"
    },
    {
      "channel": 2,
      "note": 76,
      "start": 5.2788,
      "duration": 0.0205,
      "velocity": 114,
      "chip": "ym2612"
    },
    {
      "channel": 0,
      "note": 49,
      "start": 5.285,
      "duration": 0.0056,
      "velocity": 88,
      "chip": "ym2612"
    },
    {
      "channel": 3,
      "note": 76,
      "start": 5.2856,
      "duration": 0.0226,
      "velocity": 114,
      "chip": "ym2612"
    },
    {
      "channel": 0,
      "note": 49,
      "start": 5.2915,
      "duration": 0.0059,
      "velocity": 88,
      "chip": "ym2612"
    },
    {
      "channel": 4,
      "note": 76,
      "start": 5.2923,
      "duration": 0.0207,
      "velocity": 114,
      "chip": "ym2612"
    },
    {
      "channel": 0,
      "note": 49,
      "start": 5.299,
      "duration": 0.0067,
      "velocity": 88,
      "chip": "ym2612"
    },
    {
      "channel": 2,
      "note": 73,
      "start": 5.2994,
      "duration": 0.0084,
      "velocity": 114,
      "chip": "ym2612"
    },
    {
      "channel": 0,
      "note": 49,
      "start": 5.3074,
      "duration": 0.003,
      "velocity": 88,
      "chip": "ym2612"
    },
    {
      "channel": 2,
      "note": 72,
      "start": 5.3078,
      "duration": 0.0044,
      "velocity": 114,
      "chip": "ym2612"
    },
    {
      "channel": 3,
      "note": 73,
      "start": 5.3082,
      "duration": 0.0044,
      "velocity": 114,
      "chip": "ym2612"
    },
    {
      "channel": 0,
      "note": 49,
      "start": 5.3118,
      "duration": 0.0036,
      "velocity": 88,
      "chip": "ym2612"
    },
    {
      "channel": 2,
      "note": 71,
      "start": 5.3122,
      "duration": 0.0038,
      "velocity": 114,
      "chip": "ym2612"
    },
    {
      "channel": 3,
      "note": 72,
      "start": 5.3126,
      "duration": 0.0039,
      "velocity": 114,
      "chip": "ym2612"
    },
    {
      "channel": 4,
      "note": 73,
      "start": 5.313,
      "duration": 0.0039,
      "velocity": 114,
      "chip": "ym2612"
    },
    {
      "channel": 0,
      "note": 49,
      "start": 5.316,
      "duration": 0.002,
      "velocity": 88,
      "chip": "ym2612"
    },
    {
      "channel": 3,
      "note": 71,
      "start": 5.3165,
      "duration": 0.0022,
      "velocity": 114,
      "chip": "ym2612"
    },
    {
      "channel": 4,
      "note": 72,
      "start": 5.317,
      "duration": 0.0022,
      "velocity": 114,
      "chip": "ym2612"
    },
    {
      "channel": 0,
      "note": 49,
      "start": 5.3187,
      "duration": 0.0014,
      "velocity": 88,
      "chip": "ym2612"
    },
    {
      "channel": 4,
      "note": 71,
      "start": 5.3192,
      "duration": 0.0027,
      "velocity": 114,
      "chip": "ym2612"
    },
    {
      "channel": 0,
      "note": 49,
      "start": 5.3216,
      "duration": 0.0017,
      "velocity": 88,
      "chip": "ym2612"
    },
    {
      "channel": 1,
      "note": 82,
      "start": 5.3219,
      "duration": 0.001,
      "velocity": 127,
      "chip": "ym2612"
    },
    {
      "channel": 0,
      "note": 49,
      "start": 5.324,
      "duration": 0.0024,
      "velocity": 88,
      "chip": "ym2612"
    },
    {
      "channel": 0,
      "note": 49,
      "start": 5.327,
      "duration": 0.0031,
      "velocity": 88,
      "chip": "ym2612"
    },
    {
      "channel": 0,
      "note": 49,
      "start": 5.3313,
      "duration": 0.0024,
      "velocity": 88,
      "chip": "ym2612"
    },
    {
      "channel": 0,
      "note": 49,
      "start": 5.3344,
      "duration": 0.002,
      "velocity": 88,
      "chip": "ym2612"
    },
    {
      "channel": 1,
      "note": 82,
      "start": 5.3347,
      "duration": 0.0012,
      "velocity": 127,
      "chip": "ym2612"
    },
    {
      "channel": 0,
      "note": 49,
      "start": 5.3378,
      "duration": 0.0024,
      "velocity": 88,
      "chip": "ym2612"
    },
    {
      "channel": 0,
      "note": 49,
      "start": 5.3408,
      "duration": 0.003,
      "velocity": 88,
      "chip": "ym2612"
    },
    {
      "channel": 0,
      "note": 49,
      "start": 5.3445,
      "duration": 0.0024,
      "velocity": 88,
      "chip": "ym2612"
    },
    {
      "channel": 0,
      "note": 49,
      "start": 5.3476,
      "duration": 0.0017,
      "velocity": 88,
      "chip": "ym2612"
    },
    {
      "channel": 1,
      "note": 82,
      "start": 5.3479,
      "duration": 0.0009,
      "velocity": 127,
      "chip": "ym2612"
    },
    {
      "channel": 0,
      "note": 49,
      "start": 5.3507,
      "duration": 0.0024,
      "velocity": 88,
      "chip": "ym2612"
    },
    {
      "channel": 0,
      "note": 49,
      "start": 5.3542,
      "duration": 0.0028,
      "velocity": 88,
      "chip": "ym2612"
    },
    {
      "channel": 0,
      "note": 49,
      "start": 5.3588,
      "duration": 0.0018,
      "velocity": 88,
      "chip": "ym2612"
    },
    {
      "channel": 0,
      "note": 49,
      "start": 5.3613,
      "duration": 0.001,
      "velocity": 88,
      "chip": "ym2612"
    },
    {
      "channel": 0,
      "note": 49,
      "start": 5.3636,
      "duration": 0.0017,
      "velocity": 88,
      "chip": "ym2612"
    },
    {
      "channel": 0,
      "note": 49,
      "start": 5.3659,
      "duration": 0.0031,
      "velocity": 88,
      "chip": "ym2612"
    },
    {
      "channel": 0,
      "note": 49,
      "start": 5.3704,
      "duration": 0.0009,
      "velocity": 88,
      "chip": "ym2612"
    },
    {
      "channel": 0,
      "note": 49,
      "start": 5.3719,
      "duration": 0.001,
      "velocity": 88,
      "chip": "ym2612"
    },
    {
      "channel": 0,
      "note": 49,
      "start": 5.3736,
      "duration": 0.0009,
      "velocity": 88,
      "chip": "ym2612"
    },
    {
      "channel": 0,
      "note": 49,
      "start": 5.3752,
      "duration": 0.0028,
      "velocity": 88,
      "chip": "ym2612"
    },
    {
      "channel": 0,
      "note": 49,
      "start": 5.3794,
      "duration": 0.0018,
      "velocity": 88,
      "chip": "ym2612"
    },
    {
      "channel": 0,
      "note": 49,
      "start": 5.3819,
      "duration": 0.0014,
      "velocity": 88,
      "chip": "ym2612"
    },
    {
      "channel": 0,
      "note": 49,
      "start": 5.3839,
      "duration": 0.0017,
      "velocity": 88,
      "chip": "ym2612"
    },
    {
      "channel": 0,
      "note": 49,
      "start": 5.3863,
      "duration": 0.0031,
      "velocity": 88,
      "chip": "ym2612"
    },
    {
      "channel": 0,
      "note": 49,
      "start": 5.3911,
      "duration": 0.0009,
      "velocity": 88,
      "chip": "ym2612"
    },
    {
      "channel": 0,
      "note": 49,
      "start": 5.3927,
      "duration": 0.0011,
      "velocity": 88,
      "chip": "ym2612"
    },
    {
      "channel": 0,
      "note": 49,
      "start": 5.3944,
      "duration": 0.0009,
      "velocity": 88,
      "chip": "ym2612"
    },
    {
      "channel": 0,
      "note": 49,
      "start": 5.3959,
      "duration": 0.001,
      "velocity": 88,
      "chip": "ym2612"
    },
    {
      "channel": 0,
      "note": 49,
      "start": 5.3984,
      "duration": 0.0018,
      "velocity": 88,
      "chip": "ym2612"
    },
    {
      "channel": 0,
      "note": 49,
      "start": 5.4009,
      "duration": 0.0031,
      "velocity": 88,
      "chip": "ym2612"
    },
    {
      "channel": 0,
      "note": 49,
      "start": 5.4051,
      "duration": 0.0017,
      "velocity": 88,
      "chip": "ym2612"
    },
    {
      "channel": 0,
      "note": 49,
      "start": 5.4074,
      "duration": 0.0039,
      "velocity": 88,
      "chip": "ym2612"
    },
    {
      "channel": 0,
      "note": 49,
      "start": 5.4126,
      "duration": 0.0009,
      "velocity": 88,
      "chip": "ym2612"
    },
    {
      "channel": 0,
      "note": 49,
      "start": 5.4142,
      "duration": 0.0017,
      "velocity": 88,
      "chip": "ym2612"
    },
    {
      "channel": 1,
      "note": 82,
      "start": 5.4145,
      "duration": 0.0008,
      "velocity": 127,
      "chip": "ym2612"
    },
    {
      "channel": 0,
      "note": 49,
      "start": 5.4165,
      "duration": 0.0024,
      "velocity": 88,
      "chip": "ym2612"
    },
    {
      "channel": 0,
      "note": 49,
      "start": 5.42,
      "duration": 0.0028,
      "velocity": 88,
      "chip": "ym2612"
    },
    {
      "channel": 0,
      "note": 49,
      "start": 5.4243,
      "duration": 0.0009,
      "velocity": 88,
      "chip": "ym2612"
    },
    {
      "channel": 0,
      "note": 49,
      "start": 5.4278,
      "duration": 0.0017,
      "velocity": 88,
      "chip": "ym2612"
    },
    {
      "channel": 1,
      "note": 82,
      "start": 5.4282,
      "duration": 0.0009,
      "velocity": 127,
      "chip": "ym2612"
    },
    {
      "channel": 0,
      "note": 49,
      "start": 5.4311,
      "duration": 0.0022,
      "velocity": 88,
      "chip": "ym2612"
    },
    {
      "channel": 0,
      "note": 49,
      "start": 5.4339,
      "duration": 0.003,
      "velocity": 88,
      "chip": "ym2612"
    },
    {
      "channel": 0,
      "note": 49,
      "start": 5.4383,
      "duration": 0.0008,
      "velocity": 88,
      "chip": "ym2612"
    },
    {
      "channel": 0,
      "note": 49,
      "start": 5.4398,
      "duration": 0.0026,
      "velocity": 88,
      "chip": "ym2612"
    },
    {
      "channel": 1,
      "note": 82,
      "start": 5.4401,
      "duration": 0.0018,
      "velocity": 127,
      "chip": "ym2612"
    },
    {
      "channel": 0,
      "note": 49,
      "start": 5.443,
      "duration": 0.0009,
      "velocity": 88,
      "chip": "ym2612"
    },
    {
      "channel": 0,
      "note": 49,
      "start": 5.4451,
      "duration": 0.0028,
      "velocity": 88,
      "chip": "ym2612"
    },
    {
      "channel": 0,
      "note": 49,
      "start": 5.4497,
      "duration": 0.0042,
      "velocity": 88,
      "chip": "ym2612"
    },
    {
      "channel": 1,
      "note": 106,
      "start": 5.4516,
      "duration": 0.0018,
      "velocity": 127,
      "chip": "ym2612"
    },
    {
      "channel": 0,
      "note": 49,
      "start": 5.4545,
      "duration": 0.0024,
      "velocity": 88,
      "chip": "ym2612"
    },
    {
      "channel": 0,
      "note": 49,
      "start": 5.4592,
      "duration": 0.0025,
      "velocity": 88,
      "chip": "ym2612"
    },
    {
      "channel": 1,
      "note": 106,
      "start": 5.4596,
      "duration": 0.0017,
      "velocity": 127,
      "chip": "ym2612"
    },
    {
      "channel": 0,
      "note": 49,
      "start": 5.4623,
      "duration": 0.0031,
      "velocity": 88,
      "chip": "ym2612"
    },
    {
      "channel": 0,
      "note": 49,
      "start": 5.4673,
      "duration": 0.0017,
      "velocity": 88,
      "chip": "ym2612"
    },
    {
      "channel": 1,
      "note": 106,
      "start": 5.4677,
      "duration": 0.0009,
      "velocity": 127,
      "chip": "ym2612"
    },
    {
      "channel": 0,
      "note": 49,
      "start": 5.4697,
      "duration": 0.001,
      "velocity": 88,
      "chip": "ym2612"
    },
    {
      "channel": 0,
      "note": 49,
      "start": 5.4715,
      "duration": 0.0032,
      "velocity": 88,
      "chip": "ym2612"
    },
    {
      "channel": 1,
      "note": 106,
      "start": 5.4718,
      "duration": 0.0024,
      "velocity": 127,
      "chip": "ym2612"
    },
    {
      "channel": 0,
      "note": 49,
      "start": 5.4754,
      "duration": 0.001,
      "velocity": 88,
      "chip": "ym2612"
    },
    {
      "channel": 0,
      "note": 49,
      "start": 5.4784,
      "duration": 0.0027,
      "velocity": 88,
      "chip": "ym2612"
    },
    {
      "channel": 1,
      "note": 106,
      "start": 5.4788,
      "duration": 0.0018,
      "velocity": 127,
      "chip": "ym2612"
    },
    {
      "channel": 0,
      "note": 49,
      "start": 5.4818,
      "duration": 0.0015,
      "velocity": 88,
      "chip": "ym2612"
    },
    {
      "channel": 0,
      "note": 49,
      "start": 5.485,
      "duration": 0.0025,
      "velocity": 88,
      "chip": "ym2612"
    },
    {
      "channel": 1,
      "note": 106,
      "start": 5.4854,
      "duration": 0.0017,
      "velocity": 127,
      "chip": "ym2612"
    },
    {
      "channel": 0,
      "note": 49,
      "start": 5.4881,
      "duration": 0.0031,
      "velocity": 88,
      "chip": "ym2612"
    },
    {
      "channel": 0,
      "note": 49,
      "start": 5.493,
      "duration": 0.0017,
      "velocity": 88,
      "chip": "ym2612"
    },
    {
      "channel": 1,
      "note": 106,
      "start": 5.4934,
      "duration": 0.0009,
      "velocity": 127,
      "chip": "ym2612"
    },
    {
      "channel": 0,
      "note": 49,
      "start": 5.4954,
      "duration": 0.001,
      "velocity": 88,
      "chip": "ym2612"
    },
    {
      "channel": 0,
      "note": 49,
      "start": 5.4972,
      "duration": 0.0033,
      "velocity": 88,
      "chip": "ym2612"
    },
    {
      "channel": 1,
      "note": 106,
      "start": 5.4977,
      "duration": 0.0023,
      "velocity": 127,
      "chip": "ym2612"
    },
    {
      "channel": 0,
      "note": 49,
      "start": 5.5011,
      "duration": 0.003,
      "velocity": 88,
      "chip": "ym2612"
    },
    {
      "channel": 0,
      "note": 49,
      "start": 5.5059,
      "duration": 0.0027,
      "velocity": 88,
      "chip": "ym2612"
    },
    {
      "channel": 1,
      "note": 106,
      "start": 5.5063,
      "duration": 0.0018,
      "velocity": 127,
      "chip": "ym2612"
    },
    {
      "channel": 0,
      "note": 49,
      "start": 5.5092,
      "duration": 0.001,
      "velocity": 88,
      "chip": "ym2612"
    },
    {
      "channel": 0,
      "note": 49,
      "start": 5.5122,
      "duration": 0.0025,
      "velocity": 88,
      "chip": "ym2612"
    },
    {
      "channel": 1,
      "note": 106,
      "start": 5.5125,
      "duration": 0.0017,
      "velocity": 127,
      "chip": "ym2612"
    },
    {
      "channel": 0,
      "note": 49,
      "start": 5.5154,
      "duration": 0.003,
      "velocity": 88,
      "chip": "ym2612"
    },
    {
      "channel": 0,
      "note": 49,
      "start": 5.52,
      "duration": 0.0017,
      "velocity": 88,
      "chip": "ym2612"
    },
    {
      "channel": 1,
      "note": 106,
      "start": 5.5204,
      "duration": 0.0009,
      "velocity": 127,
      "chip": "ym2612"
    },
    {
      "channel": 0,
      "note": 55,
      "start": 5.5223,
      "duration": 0.0035,
      "velocity": 88,
      "chip": "ym2612"
    },
    {
      "channel": 1,
      "note": 82,
      "start": 5.524,
      "duration": 0.0009,
      "velocity": 127,
      "chip": "ym2612"
    },
    {
      "channel": 0,
      "note": 56,
      "start": 5.5265,
      "duration": 0.0038,
      "velocity": 88,
      "chip": "ym2612"
    },
    {
      "channel": 1,
      "note": 62,
      "start": 5.5284,
      "duration": 0.0012,
      "velocity": 120,
      "chip": "ym2612"
    },
    {
      "channel": 0,
      "note": 54,
      "start": 5.5304,
      "duration": 0.0055,
      "velocity": 88,
      "chip": "ym2612"
    },
    {
      "channel": 1,
      "note": 59,
      "start": 5.5323,
      "duration": 0.003,
      "velocity": 120,
      "chip": "ym2612"
    },
    {
      "channel": 0,
      "note": 52,
      "start": 5.5366,
      "duration": 0.0038,
      "velocity": 88,
      "chip": "ym2612"
    },
    {
      "channel": 1,
      "note": 59,
      "start": 5.537,
      "duration": 0.0027,
      "velocity": 120,
      "chip": "ym2612"
    },
    {
      "channel": 0,
      "note": 54,
      "start": 5.541,
      "duration": 0.0044,
      "velocity": 88,
      "chip": "ym2612"
    },
    {
      "channel": 1,
      "note": 55,
      "start": 5.5429,
      "duration": 0.0017,
      "velocity": 120,
      "chip": "ym2612"
    },
    {
      "channel": 0,
      "note": 52,
      "start": 5.5454,
      "duration": 0.0057,
      "velocity": 88,
      "chip": "ym2612"
    },
    {
      "channel": 1,
      "note": 55,
      "start": 5.5473,
      "duration": 0.0032,
      "velocity": 120,
      "chip": "ym2612"
    },
    {
      "channel": 0,
      "note": 44,
      "start": 5.5518,
      "duration": 0.0039,
      "velocity": 88,
      "chip": "ym2612"
    },
    {
      "channel": 1,
      "note": 82,
      "start": 5.5536,
      "duration": 0.0023,
      "velocity": 127,
      "chip": "ym2612"
    },
    {
      "channel": 1,
      "note": 101,
      "start": 5.5585,
      "duration": 0.0005,
      "velocity": 114,
      "chip": "ym2612"
    },
    {
      "channel": 1,
      "note": 101,
      "start": 5.5597,
      "duration": 0.0005,
      "velocity": 114,
      "chip": "ym2612"
    },
    {
      "channel": 1,
      "note": 106,
      "start": 5.5624,
      "duration": 0.0005,
      "velocity": 114,
      "chip": "ym2612"
    },
    {
      "channel": 1,
      "note": 62,
      "start": 5.5658,
      "duration": 0.0025,
      "velocity": 120,
      "chip": "ym2612"
    },
    {
      "channel": 1,
      "note": 59,
      "start": 5.5683,
      "duration": 0.0026,
      "velocity": 120,
      "chip": "ym2612"
    },
    {
      "channel": 1,
      "note": 55,
      "start": 5.571,
      "duration": 0.0025,
      "velocity": 120,
      "chip": "ym2612"
    },
    {
      "channel": 0,
      "note": 49,
      "start": 5.576,
      "duration": 0.0042,
      "velocity": 88,
      "chip": "ym2612"
    },
    {
      "channel": 1,
      "note": 82,
      "start": 5.5777,
      "duration": 0.0017,
      "velocity": 127,
      "chip": "ym2612"
    }
  ]
}