{
  "track_name": "23 - Ending Theme",
  "duration_sec": 140.166,
  "sample_rate": 44100,
  "note_count": 1403,
  "unique_pitches": 36,
  "pitch_range": 59,
  "avg_note_duration": 0.282,
  "reconstruction_stats": {
    "notes_reconstructed": 1403,
    "keyon_events": 1403,
    "keyoff_events": 1403,
    "orphan_keyons": 0,
    "unique_pitches": 36,
    "pitch_range": 59,
    "avg_duration_sec": 0.282
  },
  "metadata": {
    "source": "G\\Genghis Khan II - Clan of the Grey Wolf\\23 - Ending Theme.vgz"
  },
  "notes": [
    {
      "channel": 1,
      "note": 57,
      "start": 0.0,
      "duration": 3.0257,
      "velocity": 101,
      "chip": "ym2612"
    },
    {
      "channel": 2,
      "note": 103,
      "start": 0.0038,
      "duration": 0.5553,
      "velocity": 119,
      "chip": "ym2612"
    },
    {
      "channel": 2,
      "note": 66,
      "start": 0.5934,
      "duration": 2.3323,
      "velocity": 119,
      "chip": "ym2612"
    },
    {
      "channel": 0,
      "note": 69,
      "start": 0.7927,
      "duration": 0.7329,
      "velocity": 101,
      "chip": "ym2612"
    },
    {
      "channel": 3,
      "note": 64,
      "start": 0.7936,
      "duration": 0.7323,
      "velocity": 101,
      "chip": "ym2612"
    },
    {
      "channel": 0,
      "note": 76,
      "start": 1.5761,
      "duration": 0.7495,
      "velocity": 101,
      "chip": "ym2612"
    },
    {
      "channel": 3,
      "note": 69,
      "start": 1.577,
      "duration": 0.749,
      "velocity": 101,
      "chip": "ym2612"
    },
    {
      "channel": 0,
      "note": 74,
      "start": 2.3594,
      "duration": 0.1495,
      "velocity": 101,
      "chip": "ym2612"
    },
    {
      "channel": 3,
      "note": 67,
      "start": 2.3603,
      "duration": 0.149,
      "velocity": 101,
      "chip": "ym2612"
    },
    {
      "channel": 0,
      "note": 79,
      "start": 2.7594,
      "duration": 0.1495,
      "velocity": 101,
      "chip": "ym2612"
    },
    {
      "channel": 3,
      "note": 74,
      "start": 2.7603,
      "duration": 0.149,
      "velocity": 101,
      "chip": "ym2612"
    },
    {
      "channel": 0,
      "note": 76,
      "start": 3.1594,
      "duration": 2.3329,
      "velocity": 101,
      "chip": "ym2612"
    },
    {
      "channel": 3,
      "note": 69,
      "start": 3.1609,
      "duration": 2.3317,
      "velocity": 101,
      "chip": "ym2612"
    },
    {
      "channel": 1,
      "note": 57,
      "start": 4.3432,
      "duration": 0.0658,
      "velocity": 101,
      "chip": "ym2612"
    },
    {
      "channel": 2,
      "note": 95,
      "start": 4.3446,
      "duration": 0.1645,
      "velocity": 119,
      "chip": "ym2612"
    },
    {
      "channel": 1,
      "note": 57,
      "start": 4.5427,
      "duration": 0.0663,
      "velocity": 101,
      "chip": "ym2612"
    },
    {
      "channel": 2,
      "note": 95,
      "start": 4.544,
      "duration": 0.1484,
      "velocity": 119,
      "chip": "ym2612"
    },
    {
      "channel": 1,
      "note": 57,
      "start": 4.7266,
      "duration": 1.4158,
      "velocity": 101,
      "chip": "ym2612"
    },
    {
      "channel": 2,
      "note": 103,
      "start": 4.7279,
      "duration": 0.5645,
      "velocity": 119,
      "chip": "ym2612"
    },
    {
      "channel": 2,
      "note": 66,
      "start": 5.3268,
      "duration": 0.7323,
      "velocity": 119,
      "chip": "ym2612"
    },
    {
      "channel": 0,
      "note": 76,
      "start": 5.5259,
      "duration": 0.1497,
      "velocity": 101,
      "chip": "ym2612"
    },
    {
      "channel": 3,
      "note": 69,
      "start": 5.5267,
      "duration": 0.1492,
      "velocity": 101,
      "chip": "ym2612"
    },
    {
      "channel": 0,
      "note": 69,
      "start": 5.9094,
      "duration": 0.1829,
      "velocity": 101,
      "chip": "ym2612"
    },
    {
      "channel": 3,
      "note": 69,
      "start": 5.9102,
      "duration": 0.1824,
      "velocity": 101,
      "chip": "ym2612"
    },
    {
      "channel": 0,
      "note": 76,
      "start": 6.1094,
      "duration": 0.1829,
      "velocity": 101,
      "chip": "ym2612"
    },
    {
      "channel": 3,
      "note": 76,
      "start": 6.1103,
      "duration": 0.1823,
      "velocity": 101,
      "chip": "ym2612"
    },
    {
      "channel": 0,
      "note": 74,
      "start": 6.3094,
      "duration": 2.3328,
      "velocity": 101,
      "chip": "ym2612"
    },
    {
      "channel": 3,
      "note": 67,
      "start": 6.3109,
      "duration": 2.3316,
      "velocity": 101,
      "chip": "ym2612"
    },
    {
      "channel": 1,
      "note": 57,
      "start": 7.4933,
      "duration": 0.0656,
      "velocity": 101,
      "chip": "ym2612"
    },
    {
      "channel": 2,
      "note": 95,
      "start": 7.4946,
      "duration": 0.1644,
      "velocity": 119,
      "chip": "ym2612"
    },
    {
      "channel": 1,
      "note": 57,
      "start": 7.6926,
      "duration": 0.0663,
      "velocity": 101,
      "chip": "ym2612"
    },
    {
      "channel": 2,
      "note": 95,
      "start": 7.6939,
      "duration": 0.1651,
      "velocity": 119,
      "chip": "ym2612"
    },
    {
      "channel": 1,
      "note": 57,
      "start": 7.8932,
      "duration": 1.4158,
      "velocity": 101,
      "chip": "ym2612"
    },
    {
      "channel": 2,
      "note": 103,
      "start": 7.8945,
      "duration": 0.5478,
      "velocity": 119,
      "chip": "ym2612"
    },
    {
      "channel": 2,
      "note": 66,
      "start": 8.4768,
      "duration": 0.7489,
      "velocity": 119,
      "chip": "ym2612"
    },
    {
      "channel": 0,
      "note": 74,
      "start": 8.6759,
      "duration": 0.1497,
      "velocity": 101,
      "chip": "ym2612"
    },
    {
      "channel": 3,
      "note": 67,
      "start": 8.6768,
      "duration": 0.1491,
      "velocity": 101,
      "chip": "ym2612"
    },
    {
      "channel": 0,
      "note": 67,
      "start": 9.076,
      "duration": 0.1829,
      "velocity": 101,
      "chip": "ym2612"
    },
    {
      "channel": 3,
      "note": 67,
      "start": 9.0768,
      "duration": 0.1824,
      "velocity": 101,
      "chip": "ym2612"
    },
    {
      "channel": 0,
      "note": 74,
      "start": 9.276,
      "duration": 0.1662,
      "velocity": 101,
      "chip": "ym2612"
    },
    {
      "channel": 3,
      "note": 74,
      "start": 9.2769,
      "duration": 0.1657,
      "velocity": 101,
      "chip": "ym2612"
    },
    {
      "channel": 0,
      "note": 76,
      "start": 9.4593,
      "duration": 0.1496,
      "velocity": 101,
      "chip": "ym2612"
    },
    {
      "channel": 3,
      "note": 69,
      "start": 9.4609,
      "duration": 0.1484,
      "velocity": 101,
      "chip": "ym2612"
    },
    {
      "channel": 0,
      "note": 69,
      "start": 9.8761,
      "duration": 1.8995,
      "velocity": 101,
      "chip": "ym2612"
    },
    {
      "channel": 3,
      "note": 64,
      "start": 9.877,
      "duration": 1.899,
      "velocity": 101,
      "chip": "ym2612"
    },
    {
      "channel": 1,
      "note": 57,
      "start": 10.6599,
      "duration": 0.0658,
      "velocity": 101,
      "chip": "ym2612"
    },
    {
      "channel": 2,
      "note": 95,
      "start": 10.6612,
      "duration": 0.1645,
      "velocity": 119,
      "chip": "ym2612"
    },
    {
      "channel": 1,
      "note": 57,
      "start": 10.8593,
      "duration": 0.0663,
      "velocity": 101,
      "chip": "ym2612"
    },
    {
      "channel": 2,
      "note": 95,
      "start": 10.8607,
      "duration": 0.1651,
      "velocity": 119,
      "chip": "ym2612"
    },
    {
      "channel": 1,
      "note": 57,
      "start": 11.0599,
      "duration": 1.4158,
      "velocity": 101,
      "chip": "ym2612"
    },
    {
      "channel": 2,
      "note": 103,
      "start": 11.0612,
      "duration": 0.5645,
      "velocity": 119,
      "chip": "ym2612"
    },
    {
      "channel": 2,
      "note": 66,
      "start": 11.6602,
      "duration": 0.7322,
      "velocity": 119,
      "chip": "ym2612"
    },
    {
      "channel": 2,
      "note": 103,
      "start": 12.6443,
      "duration": 0.5482,
      "velocity": 119,
      "chip": "ym2612"
    },
    {
      "channel": 2,
      "note": 66,
      "start": 13.2268,
      "duration": 2.3323,
      "velocity": 119,
      "chip": "ym2612"
    },
    {
      "channel": 1,
      "note": 57,
      "start": 13.8267,
      "duration": 0.0656,
      "velocity": 101,
      "chip": "ym2612"
    },
    {
      "channel": 1,
      "note": 57,
      "start": 14.0093,
      "duration": 0.0663,
      "velocity": 101,
      "chip": "ym2612"
    },
    {
      "channel": 1,
      "note": 57,
      "start": 14.2099,
      "duration": 1.4158,
      "velocity": 101,
      "chip": "ym2612"
    },
    {
      "channel": 0,
      "note": 67,
      "start": 15.0094,
      "duration": 0.1382,
      "velocity": 101,
      "chip": "ym2612"
    },
    {
      "channel": 3,
      "note": 67,
      "start": 15.0103,
      "duration": 0.1377,
      "velocity": 101,
      "chip": "ym2612"
    },
    {
      "channel": 0,
      "note": 69,
      "start": 15.3927,
      "duration": 0.1829,
      "velocity": 101,
      "chip": "ym2612"
    },
    {
      "channel": 3,
      "note": 69,
      "start": 15.3936,
      "duration": 0.1823,
      "velocity": 101,
      "chip": "ym2612"
    },
    {
      "channel": 0,
      "note": 71,
      "start": 15.5927,
      "duration": 0.1829,
      "velocity": 101,
      "chip": "ym2612"
    },
    {
      "channel": 3,
      "note": 71,
      "start": 15.5936,
      "duration": 0.1823,
      "velocity": 101,
      "chip": "ym2612"
    },
    {
      "channel": 0,
      "note": 72,
      "start": 15.7927,
      "duration": 0.7329,
      "velocity": 101,
      "chip": "ym2612"
    },
    {
      "channel": 2,
      "note": 103,
      "start": 15.7946,
      "duration": 0.5478,
      "velocity": 119,
      "chip": "ym2612"
    },
    {
      "channel": 3,
      "note": 69,
      "start": 15.7953,
      "duration": 0.7307,
      "velocity": 101,
      "chip": "ym2612"
    },
    {
      "channel": 2,
      "note": 66,
      "start": 16.3768,
      "duration": 2.3323,
      "velocity": 119,
      "chip": "ym2612"
    },
    {
      "channel": 0,
      "note": 74,
      "start": 16.5761,
      "duration": 1.5162,
      "velocity": 101,
      "chip": "ym2612"
    },
    {
      "channel": 3,
      "note": 71,
      "start": 16.577,
      "duration": 1.5156,
      "velocity": 101,
      "chip": "ym2612"
    },
    {
      "channel": 1,
      "note": 57,
      "start": 16.9767,
      "duration": 0.0656,
      "velocity": 101,
      "chip": "ym2612"
    },
    {
      "channel": 1,
      "note": 57,
      "start": 17.176,
      "duration": 0.0663,
      "velocity": 101,
      "chip": "ym2612"
    },
    {
      "channel": 1,
      "note": 57,
      "start": 17.3766,
      "duration": 1.3991,
      "velocity": 101,
      "chip": "ym2612"
    },
    {
      "channel": 0,
      "note": 72,
      "start": 18.1594,
      "duration": 0.1495,
      "velocity": 101,
      "chip": "ym2612"
    },
    {
      "channel": 3,
      "note": 69,
      "start": 18.1603,
      "duration": 0.149,
      "velocity": 101,
      "chip": "ym2612"
    },
    {
      "channel": 0,
      "note": 71,
      "start": 18.5594,
      "duration": 0.1662,
      "velocity": 101,
      "chip": "ym2612"
    },
    {
      "channel": 3,
      "note": 67,
      "start": 18.5603,
      "duration": 0.1656,
      "velocity": 101,
      "chip": "ym2612"
    },
    {
      "channel": 0,
      "note": 69,
      "start": 18.7427,
      "duration": 0.1829,
      "velocity": 101,
      "chip": "ym2612"
    },
    {
      "channel": 3,
      "note": 65,
      "start": 18.7436,
      "duration": 0.1823,
      "velocity": 101,
      "chip": "ym2612"
    },
    {
      "channel": 0,
      "note": 71,
      "start": 18.9427,
      "duration": 2.3329,
      "velocity": 101,
      "chip": "ym2612"
    },
    {
      "channel": 2,
      "note": 103,
      "start": 18.9445,
      "duration": 0.5646,
      "velocity": 119,
      "chip": "ym2612"
    },
    {
      "channel": 3,
      "note": 67,
      "start": 18.9453,
      "duration": 2.3307,
      "velocity": 101,
      "chip": "ym2612"
    },
    {
      "channel": 2,
      "note": 66,
      "start": 19.5434,
      "duration": 2.3323,
      "velocity": 119,
      "chip": "ym2612"
    },
    {
      "channel": 1,
      "note": 57,
      "start": 20.1266,
      "duration": 0.0658,
      "velocity": 101,
      "chip": "ym2612"
    },
    {
      "channel": 1,
      "note": 57,
      "start": 20.326,
      "duration": 0.0663,
      "velocity": 101,
      "chip": "ym2612"
    },
    {
      "channel": 1,
      "note": 57,
      "start": 20.5266,
      "duration": 1.4158,
      "velocity": 101,
      "chip": "ym2612"
    },
    {
      "channel": 0,
      "note": 67,
      "start": 21.3094,
      "duration": 0.1495,
      "velocity": 101,
      "chip": "ym2612"
    },
    {
      "channel": 3,
      "note": 67,
      "start": 21.3103,
      "duration": 0.149,
      "velocity": 101,
      "chip": "ym2612"
    },
    {
      "channel": 0,
      "note": 69,
      "start": 21.7094,
      "duration": 0.1829,
      "velocity": 101,
      "chip": "ym2612"
    },
    {
      "channel": 3,
      "note": 69,
      "start": 21.7103,
      "duration": 0.1823,
      "velocity": 101,
      "chip": "ym2612"
    },
    {
      "channel": 0,
      "note": 71,
      "start": 21.9094,
      "duration": 0.1829,
      "velocity": 101,
      "chip": "ym2612"
    },
    {
      "channel": 3,
      "note": 71,
      "start": 21.9103,
      "duration": 0.1823,
      "velocity": 101,
      "chip": "ym2612"
    },
    {
      "channel": 0,
      "note": 72,
      "start": 22.1094,
      "duration": 0.7329,
      "velocity": 101,
      "chip": "ym2612"
    },
    {
      "channel": 2,
      "note": 103,
      "start": 22.1112,
      "duration": 0.5479,
      "velocity": 119,
      "chip": "ym2612"
    },
    {
      "channel": 3,
      "note": 69,
      "start": 22.112,
      "duration": 0.7307,
      "velocity": 101,
      "chip": "ym2612"
    },
    {
      "channel": 2,
      "note": 66,
      "start": 22.6934,
      "duration": 2.3323,
      "velocity": 119,
      "chip": "ym2612"
    },
    {
      "channel": 0,
      "note": 74,
      "start": 22.8927,
      "duration": 1.5162,
      "velocity": 101,
      "chip": "ym2612"
    },
    {
      "channel": 3,
      "note": 71,
      "start": 22.8936,
      "duration": 1.5156,
      "velocity": 101,
      "chip": "ym2612"
    },
    {
      "channel": 1,
      "note": 57,
      "start": 23.2934,
      "duration": 0.0489,
      "velocity": 101,
      "chip": "ym2612"
    },
    {
      "channel": 1,
      "note": 57,
      "start": 23.476,
      "duration": 0.0663,
      "velocity": 101,
      "chip": "ym2612"
    },
    {
      "channel": 1,
      "note": 57,
      "start": 23.6766,
      "duration": 1.4158,
      "velocity": 101,
      "chip": "ym2612"
    },
    {
      "channel": 0,
      "note": 72,
      "start": 24.4681,
      "duration": 0.1408,
      "velocity": 101,
      "chip": "ym2612"
    },
    {
      "channel": 3,
      "note": 69,
      "start": 24.469,
      "duration": 0.1402,
      "velocity": 101,
      "chip": "ym2612"
    },
    {
      "channel": 0,
      "note": 71,
      "start": 24.8594,
      "duration": 0.1829,
      "velocity": 101,
      "chip": "ym2612"
    },
    {
      "channel": 3,
      "note": 67,
      "start": 24.8603,
      "duration": 0.1823,
      "velocity": 101,
      "chip": "ym2612"
    },
    {
      "channel": 0,
      "note": 69,
      "start": 25.0594,
      "duration": 0.1829,
      "velocity": 101,
      "chip": "ym2612"
    },
    {
      "channel": 3,
      "note": 65,
      "start": 25.0603,
      "duration": 0.1823,
      "velocity": 101,
      "chip": "ym2612"
    },
    {
      "channel": 0,
      "note": 71,
      "start": 25.2594,
      "duration": 2.3329,
      "velocity": 101,
      "chip": "ym2612"
    },
    {
      "channel": 2,
      "note": 103,
      "start": 25.2612,
      "duration": 0.5479,
      "velocity": 119,
      "chip": "ym2612"
    },
    {
      "channel": 3,
      "note": 67,
      "start": 25.262,
      "duration": 2.3307,
      "velocity": 101,
      "chip": "ym2612"
    },
    {
      "channel": 2,
      "note": 66,
      "start": 25.8434,
      "duration": 2.3323,
      "velocity": 119,
      "chip": "ym2612"
    },
    {
      "channel": 1,
      "note": 57,
      "start": 26.4434,
      "duration": 0.0656,
      "velocity": 101,
      "chip": "ym2612"
    },
    {
      "channel": 1,
      "note": 57,
      "start": 26.6427,
      "duration": 0.0663,
      "velocity": 101,
      "chip": "ym2612"
    },
    {
      "channel": 1,
      "note": 57,
      "start": 26.8266,
      "duration": 1.4158,
      "velocity": 101,
      "chip": "ym2612"
    },
    {
      "channel": 0,
      "note": 79,
      "start": 27.6261,
      "duration": 0.7329,
      "velocity": 101,
      "chip": "ym2612"
    },
    {
      "channel": 3,
      "note": 71,
      "start": 27.627,
      "duration": 0.7323,
      "velocity": 101,
      "chip": "ym2612"
    },
    {
      "channel": 0,
      "note": 76,
      "start": 28.4094,
      "duration": 3.1502,
      "velocity": 101,
      "chip": "ym2612"
    },
    {
      "channel": 2,
      "note": 103,
      "start": 28.4112,
      "duration": 0.5645,
      "velocity": 119,
      "chip": "ym2612"
    },
    {
      "channel": 3,
      "note": 69,
      "start": 28.412,
      "duration": 3.151,
      "velocity": 101,
      "chip": "ym2612"
    },
    {
      "channel": 2,
      "note": 66,
      "start": 29.0101,
      "duration": 1.499,
      "velocity": 119,
      "chip": "ym2612"
    },
    {
      "channel": 1,
      "note": 57,
      "start": 29.5928,
      "duration": 0.0662,
      "velocity": 101,
      "chip": "ym2612"
    },
    {
      "channel": 1,
      "note": 57,
      "start": 29.7927,
      "duration": 0.0663,
      "velocity": 101,
      "chip": "ym2612"
    },
    {
      "channel": 1,
      "note": 57,
      "start": 29.9927,
      "duration": 1.0163,
      "velocity": 101,
      "chip": "ym2612"
    },
    {
      "channel": 2,
      "note": 95,
      "start": 30.7768,
      "duration": 0.1156,
      "velocity": 119,
      "chip": "ym2612"
    },
    {
      "channel": 2,
      "note": 95,
      "start": 30.9102,
      "duration": 0.1156,
      "velocity": 119,
      "chip": "ym2612"
    },
    {
      "channel": 2,
      "note": 95,
      "start": 31.0435,
      "duration": 0.1156,
      "velocity": 119,
      "chip": "ym2612"
    },
    {
      "channel": 1,
      "note": 57,
      "start": 31.1761,
      "duration": 0.0662,
      "velocity": 101,
      "chip": "ym2612"
    },
    {
      "channel": 2,
      "note": 95,
      "start": 31.1775,
      "duration": 0.1149,
      "velocity": 119,
      "chip": "ym2612"
    },
    {
      "channel": 2,
      "note": 95,
      "start": 31.3102,
      "duration": 0.1156,
      "velocity": 119,
      "chip": "ym2612"
    },
    {
      "channel": 1,
      "note": 57,
      "start": 31.376,
      "duration": 0.0663,
      "velocity": 101,
      "chip": "ym2612"
    },
    {
      "channel": 2,
      "note": 95,
      "start": 31.4436,
      "duration": 0.0988,
      "velocity": 119,
      "chip": "ym2612"
    },
    {
      "channel": 1,
      "note": 57,
      "start": 31.5607,
      "duration": 1.415,
      "velocity": 101,
      "chip": "ym2612"
    },
    {
      "channel": 2,
      "note": 103,
      "start": 31.562,
      "duration": 0.5637,
      "velocity": 119,
      "chip": "ym2612"
    },
    {
      "channel": 2,
      "note": 66,
      "start": 32.1601,
      "duration": 2.3323,
      "velocity": 119,
      "chip": "ym2612"
    },
    {
      "channel": 0,
      "note": 81,
      "start": 32.3594,
      "duration": 0.7329,
      "velocity": 101,
      "chip": "ym2612"
    },
    {
      "channel": 3,
      "note": 76,
      "start": 32.3603,
      "duration": 0.7323,
      "velocity": 101,
      "chip": "ym2612"
    },
    {
      "channel": 0,
      "note": 88,
      "start": 33.1427,
      "duration": 0.7329,
      "velocity": 101,
      "chip": "ym2612"
    },
    {
      "channel": 1,
      "note": 57,
      "start": 33.1435,
      "duration": 1.4488,
      "velocity": 101,
      "chip": "ym2612"
    },
    {
      "channel": 3,
      "note": 81,
      "start": 33.1443,
      "duration": 0.7317,
      "velocity": 101,
      "chip": "ym2612"
    },
    {
      "channel": 0,
      "note": 86,
      "start": 33.9261,
      "duration": 0.1495,
      "velocity": 101,
      "chip": "ym2612"
    },
    {
      "channel": 3,
      "note": 79,
      "start": 33.927,
      "duration": 0.149,
      "velocity": 101,
      "chip": "ym2612"
    },
    {
      "channel": 0,
      "note": 91,
      "start": 34.3261,
      "duration": 0.1495,
      "velocity": 101,
      "chip": "ym2612"
    },
    {
      "channel": 3,
      "note": 86,
      "start": 34.327,
      "duration": 0.149,
      "velocity": 101,
      "chip": "ym2612"
    },
    {
      "channel": 0,
      "note": 88,
      "start": 34.7261,
      "duration": 2.3329,
      "velocity": 101,
      "chip": "ym2612"
    },
    {
      "channel": 2,
      "note": 103,
      "start": 34.7277,
      "duration": 0.5481,
      "velocity": 119,
      "chip": "ym2612"
    },
    {
      "channel": 3,
      "note": 81,
      "start": 34.7284,
      "duration": 2.3308,
      "velocity": 101,
      "chip": "ym2612"
    },
    {
      "channel": 2,
      "note": 66,
      "start": 35.3101,
      "duration": 0.5656,
      "velocity": 119,
      "chip": "ym2612"
    },
    {
      "channel": 1,
      "note": 57,
      "start": 35.91,
      "duration": 0.0656,
      "velocity": 101,
      "chip": "ym2612"
    },
    {
      "channel": 2,
      "note": 95,
      "start": 35.9114,
      "duration": 0.1644,
      "velocity": 119,
      "chip": "ym2612"
    },
    {
      "channel": 1,
      "note": 57,
      "start": 36.1023,
      "duration": 0.0567,
      "velocity": 101,
      "chip": "ym2612"
    },
    {
      "channel": 2,
      "note": 95,
      "start": 36.1036,
      "duration": 0.1555,
      "velocity": 119,
      "chip": "ym2612"
    },
    {
      "channel": 1,
      "note": 57,
      "start": 36.2932,
      "duration": 1.4491,
      "velocity": 101,
      "chip": "ym2612"
    },
    {
      "channel": 2,
      "note": 103,
      "start": 36.2946,
      "duration": 0.5645,
      "velocity": 119,
      "chip": "ym2612"
    },
    {
      "channel": 2,
      "note": 66,
      "start": 36.8934,
      "duration": 0.7323,
      "velocity": 119,
      "chip": "ym2612"
    },
    {
      "channel": 0,
      "note": 88,
      "start": 37.0926,
      "duration": 0.1497,
      "velocity": 101,
      "chip": "ym2612"
    },
    {
      "channel": 3,
      "note": 81,
      "start": 37.0934,
      "duration": 0.1492,
      "velocity": 101,
      "chip": "ym2612"
    },
    {
      "channel": 0,
      "note": 81,
      "start": 37.4761,
      "duration": 0.1829,
      "velocity": 101,
      "chip": "ym2612"
    },
    {
      "channel": 3,
      "note": 81,
      "start": 37.4768,
      "duration": 0.1824,
      "velocity": 101,
      "chip": "ym2612"
    },
    {
      "channel": 0,
      "note": 88,
      "start": 37.6761,
      "duration": 0.1829,
      "velocity": 101,
      "chip": "ym2612"
    },
    {
      "channel": 3,
      "note": 88,
      "start": 37.677,
      "duration": 0.1823,
      "velocity": 101,
      "chip": "ym2612"
    },
    {
      "channel": 0,
      "note": 86,
      "start": 37.8761,
      "duration": 2.3329,
      "velocity": 101,
      "chip": "ym2612"
    },
    {
      "channel": 2,
      "note": 103,
      "start": 37.8782,
      "duration": 0.5531,
      "velocity": 119,
      "chip": "ym2612"
    },
    {
      "channel": 3,
      "note": 79,
      "start": 37.879,
      "duration": 2.3303,
      "velocity": 101,
      "chip": "ym2612"
    },
    {
      "channel": 2,
      "note": 66,
      "start": 38.4601,
      "duration": 2.3323,
      "velocity": 119,
      "chip": "ym2612"
    },
    {
      "channel": 1,
      "note": 57,
      "start": 39.0595,
      "duration": 0.0662,
      "velocity": 101,
      "chip": "ym2612"
    },
    {
      "channel": 1,
      "note": 57,
      "start": 39.2593,
      "duration": 0.0663,
      "velocity": 101,
      "chip": "ym2612"
    },
    {
      "channel": 1,
      "note": 57,
      "start": 39.4599,
      "duration": 1.4324,
      "velocity": 101,
      "chip": "ym2612"
    },
    {
      "channel": 0,
      "note": 86,
      "start": 40.2432,
      "duration": 0.1491,
      "velocity": 101,
      "chip": "ym2612"
    },
    {
      "channel": 3,
      "note": 79,
      "start": 40.2441,
      "duration": 0.1485,
      "velocity": 101,
      "chip": "ym2612"
    },
    {
      "channel": 0,
      "note": 91,
      "start": 40.6427,
      "duration": 0.1329,
      "velocity": 101,
      "chip": "ym2612"
    },
    {
      "channel": 3,
      "note": 86,
      "start": 40.6436,
      "duration": 0.1323,
      "velocity": 101,
      "chip": "ym2612"
    },
    {
      "channel": 0,
      "note": 86,
      "start": 41.0261,
      "duration": 2.3329,
      "velocity": 101,
      "chip": "ym2612"
    },
    {
      "channel": 2,
      "note": 103,
      "start": 41.0282,
      "duration": 0.5642,
      "velocity": 119,
      "chip": "ym2612"
    },
    {
      "channel": 3,
      "note": 79,
      "start": 41.029,
      "duration": 2.3303,
      "velocity": 101,
      "chip": "ym2612"
    },
    {
      "channel": 2,
      "note": 66,
      "start": 41.6268,
      "duration": 1.499,
      "velocity": 119,
      "chip": "ym2612"
    },
    {
      "channel": 1,
      "note": 57,
      "start": 42.2104,
      "duration": 0.0653,
      "velocity": 101,
      "chip": "ym2612"
    },
    {
      "channel": 1,
      "note": 57,
      "start": 42.4093,
      "duration": 0.0663,
      "velocity": 101,
      "chip": "ym2612"
    },
    {
      "channel": 1,
      "note": 57,
      "start": 42.6099,
      "duration": 1.4491,
      "velocity": 101,
      "chip": "ym2612"
    },
    {
      "channel": 0,
      "note": 86,
      "start": 43.3932,
      "duration": 0.1491,
      "velocity": 101,
      "chip": "ym2612"
    },
    {
      "channel": 2,
      "note": 95,
      "start": 43.3946,
      "duration": 0.5645,
      "velocity": 119,
      "chip": "ym2612"
    },
    {
      "channel": 3,
      "note": 79,
      "start": 43.3954,
      "duration": 0.1473,
      "velocity": 101,
      "chip": "ym2612"
    },
    {
      "channel": 0,
      "note": 91,
      "start": 43.7927,
      "duration": 0.1495,
      "velocity": 101,
      "chip": "ym2612"
    },
    {
      "channel": 3,
      "note": 86,
      "start": 43.7936,
      "duration": 0.149,
      "velocity": 101,
      "chip": "ym2612"
    },
    {
      "channel": 2,
      "note": 66,
      "start": 43.9934,
      "duration": 0.1656,
      "velocity": 119,
      "chip": "ym2612"
    },
    {
      "channel": 2,
      "note": 95,
      "start": 44.1939,
      "duration": 0.0652,
      "velocity": 119,
      "chip": "ym2612"
    },
    {
      "channel": 2,
      "note": 95,
      "start": 44.7102,
      "duration": 0.0822,
      "velocity": 119,
      "chip": "ym2612"
    },
    {
      "channel": 2,
      "note": 95,
      "start": 45.2435,
      "duration": 0.0822,
      "velocity": 119,
      "chip": "ym2612"
    },
    {
      "channel": 2,
      "note": 95,
      "start": 45.7602,
      "duration": 0.0822,
      "velocity": 119,
      "chip": "ym2612"
    },
    {
      "channel": 2,
      "note": 95,
      "start": 46.2934,
      "duration": 0.0823,
      "velocity": 119,
      "chip": "ym2612"
    },
    {
      "channel": 2,
      "note": 95,
      "start": 46.8102,
      "duration": 0.0822,
      "velocity": 119,
      "chip": "ym2612"
    },
    {
      "channel": 1,
      "note": 57,
      "start": 47.3475,
      "duration": 0.904,
      "velocity": 101,
      "chip": "ym2612"
    },
    {
      "channel": 2,
      "note": 97,
      "start": 47.352,
      "duration": 0.4481,
      "velocity": 119,
      "chip": "ym2612"
    },
    {
      "channel": 2,
      "note": 81,
      "start": 47.8128,
      "duration": 0.1376,
      "velocity": 119,
      "chip": "ym2612"
    },
    {
      "channel": 2,
      "note": 81,
      "start": 47.9685,
      "duration": 0.2826,
      "velocity": 119,
      "chip": "ym2612"
    },
    {
      "channel": 2,
      "note": 81,
      "start": 48.2693,
      "duration": 0.0138,
      "velocity": 119,
      "chip": "ym2612"
    },
    {
      "channel": 2,
      "note": 81,
      "start": 48.2992,
      "duration": 0.0265,
      "velocity": 119,
      "chip": "ym2612"
    },
    {
      "channel": 2,
      "note": 81,
      "start": 48.3433,
      "duration": 0.0249,
      "velocity": 119,
      "chip": "ym2612"
    },
    {
      "channel": 2,
      "note": 81,
      "start": 48.3847,
      "duration": 0.0167,
      "velocity": 119,
      "chip": "ym2612"
    },
    {
      "channel": 2,
      "note": 81,
      "start": 48.4174,
      "duration": 0.0149,
      "velocity": 119,
      "chip": "ym2612"
    },
    {
      "channel": 2,
      "note": 81,
      "start": 48.4594,
      "duration": 0.0163,
      "velocity": 119,
      "chip": "ym2612"
    },
    {
      "channel": 2,
      "note": 81,
      "start": 48.5024,
      "duration": 0.0154,
      "velocity": 119,
      "chip": "ym2612"
    },
    {
      "channel": 2,
      "note": 81,
      "start": 48.535,
      "duration": 0.0148,
      "velocity": 119,
      "chip": "ym2612"
    },
    {
      "channel": 2,
      "note": 81,
      "start": 48.5665,
      "duration": 0.026,
      "velocity": 119,
      "chip": "ym2612"
    },
    {
      "channel": 2,
      "note": 81,
      "start": 48.6094,
      "duration": 0.0163,
      "velocity": 119,
      "chip": "ym2612"
    },
    {
      "channel": 2,
      "note": 81,
      "start": 48.6519,
      "duration": 0.0161,
      "velocity": 119,
      "chip": "ym2612"
    },
    {
      "channel": 2,
      "note": 81,
      "start": 48.6834,
      "duration": 0.0155,
      "velocity": 119,
      "chip": "ym2612"
    },
    {
      "channel": 2,
      "note": 81,
      "start": 48.7267,
      "duration": 0.0746,
      "velocity": 119,
      "chip": "ym2612"
    },
    {
      "channel": 1,
      "note": 52,
      "start": 48.8761,
      "duration": 0.2829,
      "velocity": 101,
      "chip": "ym2612"
    },
    {
      "channel": 2,
      "note": 81,
      "start": 48.8768,
      "duration": 0.0702,
      "velocity": 119,
      "chip": "ym2612"
    },
    {
      "channel": 1,
      "note": 57,
      "start": 49.1842,
      "duration": 0.9006,
      "velocity": 101,
      "chip": "ym2612"
    },
    {
      "channel": 2,
      "note": 44,
      "start": 49.1881,
      "duration": 0.28,
      "velocity": 101,
      "chip": "ym2612"
    },
    {
      "channel": 2,
      "note": 81,
      "start": 49.6358,
      "duration": 0.0733,
      "velocity": 119,
      "chip": "ym2612"
    },
    {
      "channel": 2,
      "note": 81,
      "start": 49.7822,
      "duration": 0.0859,
      "velocity": 119,
      "chip": "ym2612"
    },
    {
      "channel": 2,
      "note": 81,
      "start": 50.0938,
      "duration": 0.0153,
      "velocity": 119,
      "chip": "ym2612"
    },
    {
      "channel": 2,
      "note": 81,
      "start": 50.1356,
      "duration": 0.013,
      "velocity": 119,
      "chip": "ym2612"
    },
    {
      "channel": 2,
      "note": 81,
      "start": 50.1659,
      "duration": 0.016,
      "velocity": 119,
      "chip": "ym2612"
    },
    {
      "channel": 2,
      "note": 81,
      "start": 50.1996,
      "duration": 0.0261,
      "velocity": 119,
      "chip": "ym2612"
    },
    {
      "channel": 2,
      "note": 81,
      "start": 50.2433,
      "duration": 0.0247,
      "velocity": 119,
      "chip": "ym2612"
    },
    {
      "channel": 2,
      "note": 81,
      "start": 50.2828,
      "duration": 0.0156,
      "velocity": 119,
      "chip": "ym2612"
    },
    {
      "channel": 2,
      "note": 81,
      "start": 50.3155,
      "duration": 0.0166,
      "velocity": 119,
      "chip": "ym2612"
    },
    {
      "channel": 2,
      "note": 81,
      "start": 50.3594,
      "duration": 0.0163,
      "velocity": 119,
      "chip": "ym2612"
    },
    {
      "channel": 2,
      "note": 81,
      "start": 50.4022,
      "duration": 0.0632,
      "velocity": 119,
      "chip": "ym2612"
    },
    {
      "channel": 2,
      "note": 81,
      "start": 50.5489,
      "duration": 0.0768,
      "velocity": 119,
      "chip": "ym2612"
    },
    {
      "channel": 1,
      "note": 52,
      "start": 50.6987,
      "duration": 0.2838,
      "velocity": 101,
      "chip": "ym2612"
    },
    {
      "channel": 2,
      "note": 81,
      "start": 50.6993,
      "duration": 0.0765,
      "velocity": 119,
      "chip": "ym2612"
    },
    {
      "channel": 2,
      "note": 81,
      "start": 50.8469,
      "duration": 0.0788,
      "velocity": 119,
      "chip": "ym2612"
    },
    {
      "channel": 0,
      "note": 57,
      "start": 51.0026,
      "duration": 0.8984,
      "velocity": 101,
      "chip": "ym2612"
    },
    {
      "channel": 1,
      "note": 57,
      "start": 51.0035,
      "duration": 0.8977,
      "velocity": 101,
      "chip": "ym2612"
    },
    {
      "channel": 2,
      "note": 97,
      "start": 51.0075,
      "duration": 0.4394,
      "velocity": 119,
      "chip": "ym2612"
    },
    {
      "channel": 3,
      "note": 64,
      "start": 51.3097,
      "duration": 0.2887,
      "velocity": 97,
      "chip": "ym2612"
    },
    {
      "channel": 2,
      "note": 81,
      "start": 51.4628,
      "duration": 0.0671,
      "velocity": 119,
      "chip": "ym2612"
    },
    {
      "channel": 2,
      "note": 81,
      "start": 51.6095,
      "duration": 0.0704,
      "velocity": 119,
      "chip": "ym2612"
    },
    {
      "channel": 3,
      "note": 69,
      "start": 51.6102,
      "duration": 0.2906,
      "velocity": 97,
      "chip": "ym2612"
    },
    {
      "channel": 0,
      "note": 64,
      "start": 51.9174,
      "duration": 1.4916,
      "velocity": 101,
      "chip": "ym2612"
    },
    {
      "channel": 2,
      "note": 81,
      "start": 51.9188,
      "duration": 0.0108,
      "velocity": 119,
      "chip": "ym2612"
    },
    {
      "channel": 3,
      "note": 73,
      "start": 51.9195,
      "duration": 0.2969,
      "velocity": 97,
      "chip": "ym2612"
    },
    {
      "channel": 2,
      "note": 81,
      "start": 51.9469,
      "duration": 0.032,
      "velocity": 119,
      "chip": "ym2612"
    },
    {
      "channel": 2,
      "note": 81,
      "start": 51.9934,
      "duration": 0.0157,
      "velocity": 119,
      "chip": "ym2612"
    },
    {
      "channel": 2,
      "note": 81,
      "start": 52.03,
      "duration": 0.0162,
      "velocity": 119,
      "chip": "ym2612"
    },
    {
      "channel": 2,
      "note": 81,
      "start": 52.0637,
      "duration": 0.0162,
      "velocity": 119,
      "chip": "ym2612"
    },
    {
      "channel": 2,
      "note": 81,
      "start": 52.096,
      "duration": 0.0298,
      "velocity": 119,
      "chip": "ym2612"
    },
    {
      "channel": 2,
      "note": 81,
      "start": 52.1433,
      "duration": 0.0197,
      "velocity": 119,
      "chip": "ym2612"
    },
    {
      "channel": 2,
      "note": 81,
      "start": 52.1798,
      "duration": 0.0164,
      "velocity": 119,
      "chip": "ym2612"
    },
    {
      "channel": 2,
      "note": 81,
      "start": 52.218,
      "duration": 0.0116,
      "velocity": 119,
      "chip": "ym2612"
    },
    {
      "channel": 3,
      "note": 69,
      "start": 52.2188,
      "duration": 0.2958,
      "velocity": 97,
      "chip": "ym2612"
    },
    {
      "channel": 2,
      "note": 81,
      "start": 52.2595,
      "duration": 0.0163,
      "velocity": 119,
      "chip": "ym2612"
    },
    {
      "channel": 2,
      "note": 81,
      "start": 52.2972,
      "duration": 0.0156,
      "velocity": 119,
      "chip": "ym2612"
    },
    {
      "channel": 2,
      "note": 81,
      "start": 52.3298,
      "duration": 0.0168,
      "velocity": 119,
      "chip": "ym2612"
    },
    {
      "channel": 2,
      "note": 81,
      "start": 52.3633,
      "duration": 0.0828,
      "velocity": 119,
      "chip": "ym2612"
    },
    {
      "channel": 1,
      "note": 52,
      "start": 52.5261,
      "duration": 0.2829,
      "velocity": 101,
      "chip": "ym2612"
    },
    {
      "channel": 2,
      "note": 81,
      "start": 52.5268,
      "duration": 0.0669,
      "velocity": 119,
      "chip": "ym2612"
    },
    {
      "channel": 3,
      "note": 64,
      "start": 52.5275,
      "duration": 0.2818,
      "velocity": 97,
      "chip": "ym2612"
    },
    {
      "channel": 1,
      "note": 57,
      "start": 52.8265,
      "duration": 0.8992,
      "velocity": 101,
      "chip": "ym2612"
    },
    {
      "channel": 2,
      "note": 44,
      "start": 52.8303,
      "duration": 0.2856,
      "velocity": 101,
      "chip": "ym2612"
    },
    {
      "channel": 3,
      "note": 64,
      "start": 53.1333,
      "duration": 0.3006,
      "velocity": 97,
      "chip": "ym2612"
    },
    {
      "channel": 2,
      "note": 81,
      "start": 53.2848,
      "duration": 0.0744,
      "velocity": 119,
      "chip": "ym2612"
    },
    {
      "channel": 0,
      "note": 66,
      "start": 53.4346,
      "duration": 0.2786,
      "velocity": 101,
      "chip": "ym2612"
    },
    {
      "channel": 2,
      "note": 81,
      "start": 53.4352,
      "duration": 0.0739,
      "velocity": 119,
      "chip": "ym2612"
    },
    {
      "channel": 3,
      "note": 69,
      "start": 53.436,
      "duration": 0.2775,
      "velocity": 97,
      "chip": "ym2612"
    },
    {
      "channel": 0,
      "note": 67,
      "start": 53.7427,
      "duration": 0.5695,
      "velocity": 101,
      "chip": "ym2612"
    },
    {
      "channel": 2,
      "note": 81,
      "start": 53.7442,
      "duration": 0.015,
      "velocity": 119,
      "chip": "ym2612"
    },
    {
      "channel": 3,
      "note": 73,
      "start": 53.745,
      "duration": 0.2878,
      "velocity": 97,
      "chip": "ym2612"
    },
    {
      "channel": 2,
      "note": 81,
      "start": 53.7766,
      "duration": 0.0185,
      "velocity": 119,
      "chip": "ym2612"
    },
    {
      "channel": 2,
      "note": 81,
      "start": 53.8127,
      "duration": 0.0158,
      "velocity": 119,
      "chip": "ym2612"
    },
    {
      "channel": 2,
      "note": 81,
      "start": 53.8476,
      "duration": 0.0283,
      "velocity": 119,
      "chip": "ym2612"
    },
    {
      "channel": 2,
      "note": 81,
      "start": 53.8934,
      "duration": 0.0157,
      "velocity": 119,
      "chip": "ym2612"
    },
    {
      "channel": 2,
      "note": 81,
      "start": 53.9294,
      "duration": 0.0158,
      "velocity": 119,
      "chip": "ym2612"
    },
    {
      "channel": 2,
      "note": 81,
      "start": 53.9621,
      "duration": 0.018,
      "velocity": 119,
      "chip": "ym2612"
    },
    {
      "channel": 2,
      "note": 81,
      "start": 53.9969,
      "duration": 0.029,
      "velocity": 119,
      "chip": "ym2612"
    },
    {
      "channel": 2,
      "note": 81,
      "start": 54.0434,
      "duration": 0.07,
      "velocity": 119,
      "chip": "ym2612"
    },
    {
      "channel": 3,
      "note": 69,
      "start": 54.0441,
      "duration": 0.2985,
      "velocity": 97,
      "chip": "ym2612"
    },
    {
      "channel": 2,
      "note": 81,
      "start": 54.1954,
      "duration": 0.0678,
      "velocity": 119,
      "chip": "ym2612"
    },
    {
      "channel": 0,
      "note": 69,
      "start": 54.3482,
      "duration": 0.2812,
      "velocity": 101,
      "chip": "ym2612"
    },
    {
      "channel": 1,
      "note": 52,
      "start": 54.3489,
      "duration": 0.2807,
      "velocity": 101,
      "chip": "ym2612"
    },
    {
      "channel": 2,
      "note": 81,
      "start": 54.3495,
      "duration": 0.0763,
      "velocity": 119,
      "chip": "ym2612"
    },
    {
      "channel": 3,
      "note": 64,
      "start": 54.3502,
      "duration": 0.2796,
      "velocity": 97,
      "chip": "ym2612"
    },
    {
      "channel": 2,
      "note": 81,
      "start": 54.494,
      "duration": 0.0818,
      "velocity": 119,
      "chip": "ym2612"
    },
    {
      "channel": 0,
      "note": 66,
      "start": 54.6483,
      "duration": 0.9024,
      "velocity": 101,
      "chip": "ym2612"
    },
    {
      "channel": 1,
      "note": 57,
      "start": 54.6491,
      "duration": 0.9017,
      "velocity": 101,
      "chip": "ym2612"
    },
    {
      "channel": 2,
      "note": 44,
      "start": 54.653,
      "duration": 0.2795,
      "velocity": 101,
      "chip": "ym2612"
    },
    {
      "channel": 3,
      "note": 66,
      "start": 54.9487,
      "duration": 0.2996,
      "velocity": 97,
      "chip": "ym2612"
    },
    {
      "channel": 2,
      "note": 81,
      "start": 55.1128,
      "duration": 0.0667,
      "velocity": 119,
      "chip": "ym2612"
    },
    {
      "channel": 2,
      "note": 81,
      "start": 55.2595,
      "duration": 0.0704,
      "velocity": 119,
      "chip": "ym2612"
    },
    {
      "channel": 3,
      "note": 69,
      "start": 55.2602,
      "duration": 0.2824,
      "velocity": 97,
      "chip": "ym2612"
    },
    {
      "channel": 0,
      "note": 62,
      "start": 55.5674,
      "duration": 2.0083,
      "velocity": 101,
      "chip": "ym2612"
    },
    {
      "channel": 2,
      "note": 81,
      "start": 55.5688,
      "duration": 0.0107,
      "velocity": 119,
      "chip": "ym2612"
    },
    {
      "channel": 3,
      "note": 74,
      "start": 55.5695,
      "duration": 0.2897,
      "velocity": 97,
      "chip": "ym2612"
    },
    {
      "channel": 2,
      "note": 81,
      "start": 55.5964,
      "duration": 0.016,
      "velocity": 119,
      "chip": "ym2612"
    },
    {
      "channel": 2,
      "note": 81,
      "start": 55.6434,
      "duration": 0.0158,
      "velocity": 119,
      "chip": "ym2612"
    },
    {
      "channel": 2,
      "note": 81,
      "start": 55.6761,
      "duration": 0.02,
      "velocity": 119,
      "chip": "ym2612"
    },
    {
      "channel": 2,
      "note": 81,
      "start": 55.7137,
      "duration": 0.0158,
      "velocity": 119,
      "chip": "ym2612"
    },
    {
      "channel": 2,
      "note": 81,
      "start": 55.746,
      "duration": 0.0298,
      "velocity": 119,
      "chip": "ym2612"
    },
    {
      "channel": 2,
      "note": 81,
      "start": 55.7934,
      "duration": 0.0157,
      "velocity": 119,
      "chip": "ym2612"
    },
    {
      "channel": 2,
      "note": 81,
      "start": 55.8298,
      "duration": 0.0164,
      "velocity": 119,
      "chip": "ym2612"
    },
    {
      "channel": 2,
      "note": 81,
      "start": 55.8665,
      "duration": 0.0126,
      "velocity": 119,
      "chip": "ym2612"
    },
    {
      "channel": 3,
      "note": 69,
      "start": 55.8672,
      "duration": 0.2974,
      "velocity": 97,
      "chip": "ym2612"
    },
    {
      "channel": 2,
      "note": 81,
      "start": 55.8959,
      "duration": 0.03,
      "velocity": 119,
      "chip": "ym2612"
    },
    {
      "channel": 2,
      "note": 81,
      "start": 55.9433,
      "duration": 0.0195,
      "velocity": 119,
      "chip": "ym2612"
    },
    {
      "channel": 2,
      "note": 81,
      "start": 55.9798,
      "duration": 0.0163,
      "velocity": 119,
      "chip": "ym2612"
    },
    {
      "channel": 2,
      "note": 81,
      "start": 56.0133,
      "duration": 0.0828,
      "velocity": 119,
      "chip": "ym2612"
    },
    {
      "channel": 1,
      "note": 52,
      "start": 56.1654,
      "duration": 0.2936,
      "velocity": 101,
      "chip": "ym2612"
    },
    {
      "channel": 2,
      "note": 81,
      "start": 56.166,
      "duration": 0.0777,
      "velocity": 119,
      "chip": "ym2612"
    },
    {
      "channel": 3,
      "note": 66,
      "start": 56.1667,
      "duration": 0.2925,
      "velocity": 97,
      "chip": "ym2612"
    },
    {
      "channel": 1,
      "note": 57,
      "start": 56.4765,
      "duration": 0.8992,
      "velocity": 101,
      "chip": "ym2612"
    },
    {
      "channel": 2,
      "note": 44,
      "start": 56.4803,
      "duration": 0.2788,
      "velocity": 101,
      "chip": "ym2612"
    },
    {
      "channel": 3,
      "note": 66,
      "start": 56.7833,
      "duration": 0.2926,
      "velocity": 97,
      "chip": "ym2612"
    },
    {
      "channel": 2,
      "note": 81,
      "start": 56.9348,
      "duration": 0.0744,
      "velocity": 119,
      "chip": "ym2612"
    },
    {
      "channel": 2,
      "note": 81,
      "start": 57.0842,
      "duration": 0.0749,
      "velocity": 119,
      "chip": "ym2612"
    },
    {
      "channel": 3,
      "note": 69,
      "start": 57.0849,
      "duration": 0.281,
      "velocity": 97,
      "chip": "ym2612"
    },
    {
      "channel": 2,
      "note": 81,
      "start": 57.3866,
      "duration": 0.0226,
      "velocity": 119,
      "chip": "ym2612"
    },
    {
      "channel": 3,
      "note": 74,
      "start": 57.3873,
      "duration": 0.297,
      "velocity": 97,
      "chip": "ym2612"
    },
    {
      "channel": 2,
      "note": 81,
      "start": 57.4267,
      "duration": 0.0157,
      "velocity": 119,
      "chip": "ym2612"
    },
    {
      "channel": 2,
      "note": 81,
      "start": 57.4653,
      "duration": 0.0158,
      "velocity": 119,
      "chip": "ym2612"
    },
    {
      "channel": 2,
      "note": 81,
      "start": 57.4996,
      "duration": 0.0191,
      "velocity": 119,
      "chip": "ym2612"
    },
    {
      "channel": 2,
      "note": 81,
      "start": 57.5435,
      "duration": 0.0156,
      "velocity": 119,
      "chip": "ym2612"
    },
    {
      "channel": 2,
      "note": 81,
      "start": 57.5768,
      "duration": 0.021,
      "velocity": 119,
      "chip": "ym2612"
    },
    {
      "channel": 2,
      "note": 81,
      "start": 57.6147,
      "duration": 0.0174,
      "velocity": 119,
      "chip": "ym2612"
    },
    {
      "channel": 2,
      "note": 81,
      "start": 57.6494,
      "duration": 0.0263,
      "velocity": 119,
      "chip": "ym2612"
    },
    {
      "channel": 0,
      "note": 62,
      "start": 57.6927,
      "duration": 0.2829,
      "velocity": 101,
      "chip": "ym2612"
    },
    {
      "channel": 2,
      "note": 81,
      "start": 57.694,
      "duration": 0.069,
      "velocity": 119,
      "chip": "ym2612"
    },
    {
      "channel": 3,
      "note": 69,
      "start": 57.6947,
      "duration": 0.2978,
      "velocity": 97,
      "chip": "ym2612"
    },
    {
      "channel": 2,
      "note": 81,
      "start": 57.8427,
      "duration": 0.0705,
      "velocity": 119,
      "chip": "ym2612"
    },
    {
      "channel": 0,
      "note": 64,
      "start": 57.9982,
      "duration": 0.2812,
      "velocity": 101,
      "chip": "ym2612"
    },
    {
      "channel": 1,
      "note": 52,
      "start": 57.9989,
      "duration": 0.2807,
      "velocity": 101,
      "chip": "ym2612"
    },
    {
      "channel": 2,
      "note": 81,
      "start": 57.9995,
      "duration": 0.0613,
      "velocity": 119,
      "chip": "ym2612"
    },
    {
      "channel": 3,
      "note": 66,
      "start": 58.0002,
      "duration": 0.2796,
      "velocity": 97,
      "chip": "ym2612"
    },
    {
      "channel": 2,
      "note": 81,
      "start": 58.144,
      "duration": 0.0818,
      "velocity": 119,
      "chip": "ym2612"
    },
    {
      "channel": 0,
      "note": 65,
      "start": 58.2983,
      "duration": 0.9024,
      "velocity": 101,
      "chip": "ym2612"
    },
    {
      "channel": 1,
      "note": 57,
      "start": 58.2991,
      "duration": 0.9017,
      "velocity": 101,
      "chip": "ym2612"
    },
    {
      "channel": 2,
      "note": 44,
      "start": 58.3031,
      "duration": 0.279,
      "velocity": 101,
      "chip": "ym2612"
    },
    {
      "channel": 3,
      "note": 65,
      "start": 58.5987,
      "duration": 0.2992,
      "velocity": 97,
      "chip": "ym2612"
    },
    {
      "channel": 2,
      "note": 81,
      "start": 58.7492,
      "duration": 0.0803,
      "velocity": 119,
      "chip": "ym2612"
    },
    {
      "channel": 2,
      "note": 81,
      "start": 58.9095,
      "duration": 0.07,
      "velocity": 119,
      "chip": "ym2612"
    },
    {
      "channel": 3,
      "note": 70,
      "start": 58.9102,
      "duration": 0.2823,
      "velocity": 97,
      "chip": "ym2612"
    },
    {
      "channel": 0,
      "note": 62,
      "start": 59.2094,
      "duration": 1.7053,
      "velocity": 101,
      "chip": "ym2612"
    },
    {
      "channel": 2,
      "note": 81,
      "start": 59.2109,
      "duration": 0.0186,
      "velocity": 119,
      "chip": "ym2612"
    },
    {
      "channel": 3,
      "note": 74,
      "start": 59.2116,
      "duration": 0.2977,
      "velocity": 97,
      "chip": "ym2612"
    },
    {
      "channel": 2,
      "note": 81,
      "start": 59.2464,
      "duration": 0.016,
      "velocity": 119,
      "chip": "ym2612"
    },
    {
      "channel": 2,
      "note": 81,
      "start": 59.2798,
      "duration": 0.0294,
      "velocity": 119,
      "chip": "ym2612"
    },
    {
      "channel": 2,
      "note": 81,
      "start": 59.3261,
      "duration": 0.0163,
      "velocity": 119,
      "chip": "ym2612"
    },
    {
      "channel": 2,
      "note": 81,
      "start": 59.3637,
      "duration": 0.0158,
      "velocity": 119,
      "chip": "ym2612"
    },
    {
      "channel": 2,
      "note": 81,
      "start": 59.3956,
      "duration": 0.0166,
      "velocity": 119,
      "chip": "ym2612"
    },
    {
      "channel": 2,
      "note": 81,
      "start": 59.4434,
      "duration": 0.0158,
      "velocity": 119,
      "chip": "ym2612"
    },
    {
      "channel": 2,
      "note": 81,
      "start": 59.4761,
      "duration": 0.0228,
      "velocity": 119,
      "chip": "ym2612"
    },
    {
      "channel": 2,
      "note": 81,
      "start": 59.5164,
      "duration": 0.0123,
      "velocity": 119,
      "chip": "ym2612"
    },
    {
      "channel": 3,
      "note": 70,
      "start": 59.5171,
      "duration": 0.2975,
      "velocity": 97,
      "chip": "ym2612"
    },
    {
      "channel": 2,
      "note": 81,
      "start": 59.5459,
      "duration": 0.03,
      "velocity": 119,
      "chip": "ym2612"
    },
    {
      "channel": 2,
      "note": 81,
      "start": 59.5934,
      "duration": 0.0157,
      "velocity": 119,
      "chip": "ym2612"
    },
    {
      "channel": 2,
      "note": 81,
      "start": 59.6298,
      "duration": 0.0164,
      "velocity": 119,
      "chip": "ym2612"
    },
    {
      "channel": 2,
      "note": 81,
      "start": 59.6628,
      "duration": 0.0796,
      "velocity": 119,
      "chip": "ym2612"
    },
    {
      "channel": 1,
      "note": 52,
      "start": 59.8154,
      "duration": 0.2828,
      "velocity": 101,
      "chip": "ym2612"
    },
    {
      "channel": 2,
      "note": 81,
      "start": 59.816,
      "duration": 0.0803,
      "velocity": 119,
      "chip": "ym2612"
    },
    {
      "channel": 3,
      "note": 65,
      "start": 59.8167,
      "duration": 0.2817,
      "velocity": 97,
      "chip": "ym2612"
    },
    {
      "channel": 1,
      "note": 57,
      "start": 60.1265,
      "duration": 0.8992,
      "velocity": 101,
      "chip": "ym2612"
    },
    {
      "channel": 2,
      "note": 44,
      "start": 60.1303,
      "duration": 0.2788,
      "velocity": 101,
      "chip": "ym2612"
    },
    {
      "channel": 3,
      "note": 65,
      "start": 60.4263,
      "duration": 0.2996,
      "velocity": 97,
      "chip": "ym2612"
    },
    {
      "channel": 2,
      "note": 81,
      "start": 60.5848,
      "duration": 0.0634,
      "velocity": 119,
      "chip": "ym2612"
    },
    {
      "channel": 2,
      "note": 81,
      "start": 60.734,
      "duration": 0.0752,
      "velocity": 119,
      "chip": "ym2612"
    },
    {
      "channel": 3,
      "note": 70,
      "start": 60.7347,
      "duration": 0.2809,
      "velocity": 97,
      "chip": "ym2612"
    },
    {
      "channel": 0,
      "note": 62,
      "start": 61.0345,
      "duration": 0.2786,
      "velocity": 101,
      "chip": "ym2612"
    },
    {
      "channel": 2,
      "note": 81,
      "start": 61.0359,
      "duration": 0.0107,
      "velocity": 119,
      "chip": "ym2612"
    },
    {
      "channel": 3,
      "note": 74,
      "start": 61.0366,
      "duration": 0.2955,
      "velocity": 97,
      "chip": "ym2612"
    },
    {
      "channel": 2,
      "note": 81,
      "start": 61.0767,
      "duration": 0.0158,
      "velocity": 119,
      "chip": "ym2612"
    },
    {
      "channel": 2,
      "note": 81,
      "start": 61.11,
      "duration": 0.0185,
      "velocity": 119,
      "chip": "ym2612"
    },
    {
      "channel": 2,
      "note": 81,
      "start": 61.1472,
      "duration": 0.016,
      "velocity": 119,
      "chip": "ym2612"
    },
    {
      "channel": 2,
      "note": 81,
      "start": 61.1808,
      "duration": 0.0284,
      "velocity": 119,
      "chip": "ym2612"
    },
    {
      "channel": 2,
      "note": 81,
      "start": 61.2267,
      "duration": 0.0157,
      "velocity": 119,
      "chip": "ym2612"
    },
    {
      "channel": 2,
      "note": 81,
      "start": 61.2621,
      "duration": 0.0176,
      "velocity": 119,
      "chip": "ym2612"
    },
    {
      "channel": 2,
      "note": 81,
      "start": 61.2964,
      "duration": 0.0169,
      "velocity": 119,
      "chip": "ym2612"
    },
    {
      "channel": 0,
      "note": 65,
      "start": 61.3427,
      "duration": 0.2829,
      "velocity": 101,
      "chip": "ym2612"
    },
    {
      "channel": 2,
      "note": 81,
      "start": 61.344,
      "duration": 0.069,
      "velocity": 119,
      "chip": "ym2612"
    },
    {
      "channel": 3,
      "note": 70,
      "start": 61.3447,
      "duration": 0.287,
      "velocity": 97,
      "chip": "ym2612"
    },
    {
      "channel": 2,
      "note": 81,
      "start": 61.4928,
      "duration": 0.07,
      "velocity": 119,
      "chip": "ym2612"
    },
    {
      "channel": 0,
      "note": 70,
      "start": 61.6427,
      "duration": 0.2829,
      "velocity": 101,
      "chip": "ym2612"
    },
    {
      "channel": 1,
      "note": 52,
      "start": 61.6434,
      "duration": 0.2824,
      "velocity": 101,
      "chip": "ym2612"
    },
    {
      "channel": 2,
      "note": 81,
      "start": 61.6441,
      "duration": 0.0667,
      "velocity": 119,
      "chip": "ym2612"
    },
    {
      "channel": 3,
      "note": 65,
      "start": 61.6448,
      "duration": 0.2813,
      "velocity": 97,
      "chip": "ym2612"
    },
    {
      "channel": 2,
      "note": 81,
      "start": 61.7955,
      "duration": 0.0678,
      "velocity": 119,
      "chip": "ym2612"
    },
    {
      "channel": 0,
      "note": 69,
      "start": 61.948,
      "duration": 0.9026,
      "velocity": 101,
      "chip": "ym2612"
    },
    {
      "channel": 1,
      "note": 57,
      "start": 61.9488,
      "duration": 0.902,
      "velocity": 101,
      "chip": "ym2612"
    },
    {
      "channel": 2,
      "note": 44,
      "start": 61.9528,
      "duration": 0.2791,
      "velocity": 101,
      "chip": "ym2612"
    },
    {
      "channel": 3,
      "note": 64,
      "start": 62.2484,
      "duration": 0.2999,
      "velocity": 97,
      "chip": "ym2612"
    },
    {
      "channel": 2,
      "note": 81,
      "start": 62.3992,
      "duration": 0.0803,
      "velocity": 119,
      "chip": "ym2612"
    },
    {
      "channel": 2,
      "note": 81,
      "start": 62.5491,
      "duration": 0.0804,
      "velocity": 119,
      "chip": "ym2612"
    },
    {
      "channel": 3,
      "note": 69,
      "start": 62.5499,
      "duration": 0.2927,
      "velocity": 97,
      "chip": "ym2612"
    },
    {
      "channel": 0,
      "note": 64,
      "start": 62.8594,
      "duration": 2.6205,
      "velocity": 101,
      "chip": "ym2612"
    },
    {
      "channel": 2,
      "note": 81,
      "start": 62.8609,
      "duration": 0.0149,
      "velocity": 119,
      "chip": "ym2612"
    },
    {
      "channel": 3,
      "note": 73,
      "start": 62.8616,
      "duration": 0.2976,
      "velocity": 97,
      "chip": "ym2612"
    },
    {
      "channel": 2,
      "note": 81,
      "start": 62.8964,
      "duration": 0.0155,
      "velocity": 119,
      "chip": "ym2612"
    },
    {
      "channel": 2,
      "note": 81,
      "start": 62.9298,
      "duration": 0.0158,
      "velocity": 119,
      "chip": "ym2612"
    },
    {
      "channel": 2,
      "note": 81,
      "start": 62.9761,
      "duration": 0.0163,
      "velocity": 119,
      "chip": "ym2612"
    },
    {
      "channel": 2,
      "note": 81,
      "start": 63.01,
      "duration": 0.0195,
      "velocity": 119,
      "chip": "ym2612"
    },
    {
      "channel": 2,
      "note": 81,
      "start": 63.0456,
      "duration": 0.0166,
      "velocity": 119,
      "chip": "ym2612"
    },
    {
      "channel": 2,
      "note": 81,
      "start": 63.0798,
      "duration": 0.0294,
      "velocity": 119,
      "chip": "ym2612"
    },
    {
      "channel": 2,
      "note": 81,
      "start": 63.1261,
      "duration": 0.0163,
      "velocity": 119,
      "chip": "ym2612"
    },
    {
      "channel": 2,
      "note": 81,
      "start": 63.1665,
      "duration": 0.0122,
      "velocity": 119,
      "chip": "ym2612"
    },
    {
      "channel": 3,
      "note": 69,
      "start": 63.1672,
      "duration": 0.2921,
      "velocity": 97,
      "chip": "ym2612"
    },
    {
      "channel": 2,
      "note": 81,
      "start": 63.1954,
      "duration": 0.0168,
      "velocity": 119,
      "chip": "ym2612"
    },
    {
      "channel": 2,
      "note": 81,
      "start": 63.2434,
      "duration": 0.0158,
      "velocity": 119,
      "chip": "ym2612"
    },
    {
      "channel": 2,
      "note": 81,
      "start": 63.2761,
      "duration": 0.0201,
      "velocity": 119,
      "chip": "ym2612"
    },
    {
      "channel": 2,
      "note": 81,
      "start": 63.3128,
      "duration": 0.0797,
      "velocity": 119,
      "chip": "ym2612"
    },
    {
      "channel": 1,
      "note": 52,
      "start": 63.465,
      "duration": 0.2833,
      "velocity": 101,
      "chip": "ym2612"
    },
    {
      "channel": 2,
      "note": 81,
      "start": 63.4656,
      "duration": 0.0769,
      "velocity": 119,
      "chip": "ym2612"
    },
    {
      "channel": 3,
      "note": 64,
      "start": 63.4663,
      "duration": 0.2821,
      "velocity": 97,
      "chip": "ym2612"
    },
    {
      "channel": 1,
      "note": 57,
      "start": 63.7673,
      "duration": 0.8987,
      "velocity": 101,
      "chip": "ym2612"
    },
    {
      "channel": 2,
      "note": 44,
      "start": 63.7712,
      "duration": 0.2879,
      "velocity": 101,
      "chip": "ym2612"
    },
    {
      "channel": 3,
      "note": 64,
      "start": 64.0763,
      "duration": 0.2996,
      "velocity": 97,
      "chip": "ym2612"
    },
    {
      "channel": 2,
      "note": 81,
      "start": 64.2295,
      "duration": 0.0687,
      "velocity": 119,
      "chip": "ym2612"
    },
    {
      "channel": 2,
      "note": 81,
      "start": 64.384,
      "duration": 0.0641,
      "velocity": 119,
      "chip": "ym2612"
    },
    {
      "channel": 3,
      "note": 69,
      "start": 64.3848,
      "duration": 0.2809,
      "velocity": 97,
      "chip": "ym2612"
    },
    {
      "channel": 2,
      "note": 81,
      "start": 64.6849,
      "duration": 0.0133,
      "velocity": 119,
      "chip": "ym2612"
    },
    {
      "channel": 3,
      "note": 73,
      "start": 64.6857,
      "duration": 0.2981,
      "velocity": 97,
      "chip": "ym2612"
    },
    {
      "channel": 2,
      "note": 81,
      "start": 64.7156,
      "duration": 0.0269,
      "velocity": 119,
      "chip": "ym2612"
    },
    {
      "channel": 2,
      "note": 81,
      "start": 64.76,
      "duration": 0.0157,
      "velocity": 119,
      "chip": "ym2612"
    },
    {
      "channel": 2,
      "note": 81,
      "start": 64.7998,
      "duration": 0.0146,
      "velocity": 119,
      "chip": "ym2612"
    },
    {
      "channel": 2,
      "note": 81,
      "start": 64.8324,
      "duration": 0.0157,
      "velocity": 119,
      "chip": "ym2612"
    },
    {
      "channel": 2,
      "note": 81,
      "start": 64.8767,
      "duration": 0.0158,
      "velocity": 119,
      "chip": "ym2612"
    },
    {
      "channel": 2,
      "note": 81,
      "start": 64.9094,
      "duration": 0.0228,
      "velocity": 119,
      "chip": "ym2612"
    },
    {
      "channel": 2,
      "note": 81,
      "start": 64.9481,
      "duration": 0.0168,
      "velocity": 119,
      "chip": "ym2612"
    },
    {
      "channel": 2,
      "note": 81,
      "start": 64.9852,
      "duration": 0.0803,
      "velocity": 119,
      "chip": "ym2612"
    },
    {
      "channel": 3,
      "note": 69,
      "start": 64.986,
      "duration": 0.2983,
      "velocity": 97,
      "chip": "ym2612"
    },
    {
      "channel": 2,
      "note": 81,
      "start": 65.1427,
      "duration": 0.0717,
      "velocity": 119,
      "chip": "ym2612"
    },
    {
      "channel": 1,
      "note": 52,
      "start": 65.2929,
      "duration": 0.2828,
      "velocity": 101,
      "chip": "ym2612"
    },
    {
      "channel": 2,
      "note": 81,
      "start": 65.2934,
      "duration": 0.0685,
      "velocity": 119,
      "chip": "ym2612"
    },
    {
      "channel": 3,
      "note": 64,
      "start": 65.2941,
      "duration": 0.2818,
      "velocity": 97,
      "chip": "ym2612"
    },
    {
      "channel": 2,
      "note": 81,
      "start": 65.4428,
      "duration": 0.0721,
      "velocity": 119,
      "chip": "ym2612"
    },
    {
      "channel": 0,
      "note": 57,
      "start": 65.6006,
      "duration": 0.8917,
      "velocity": 101,
      "chip": "ym2612"
    },
    {
      "channel": 1,
      "note": 57,
      "start": 65.6015,
      "duration": 0.891,
      "velocity": 101,
      "chip": "ym2612"
    },
    {
      "channel": 2,
      "note": 97,
      "start": 65.6055,
      "duration": 0.4253,
      "velocity": 119,
      "chip": "ym2612"
    },
    {
      "channel": 3,
      "note": 64,
      "start": 65.9002,
      "duration": 0.2976,
      "velocity": 97,
      "chip": "ym2612"
    },
    {
      "channel": 2,
      "note": 81,
      "start": 66.0506,
      "duration": 0.0753,
      "velocity": 119,
      "chip": "ym2612"
    },
    {
      "channel": 2,
      "note": 81,
      "start": 66.1987,
      "duration": 0.0808,
      "velocity": 119,
      "chip": "ym2612"
    },
    {
      "channel": 3,
      "note": 69,
      "start": 66.1994,
      "duration": 0.2822,
      "velocity": 97,
      "chip": "ym2612"
    },
    {
      "channel": 0,
      "note": 64,
      "start": 66.5094,
      "duration": 1.4889,
      "velocity": 101,
      "chip": "ym2612"
    },
    {
      "channel": 2,
      "note": 81,
      "start": 66.5109,
      "duration": 0.0149,
      "velocity": 119,
      "chip": "ym2612"
    },
    {
      "channel": 3,
      "note": 73,
      "start": 66.5116,
      "duration": 0.2879,
      "velocity": 97,
      "chip": "ym2612"
    },
    {
      "channel": 2,
      "note": 81,
      "start": 66.5464,
      "duration": 0.0155,
      "velocity": 119,
      "chip": "ym2612"
    },
    {
      "channel": 2,
      "note": 81,
      "start": 66.5794,
      "duration": 0.0161,
      "velocity": 119,
      "chip": "ym2612"
    },
    {
      "channel": 2,
      "note": 81,
      "start": 66.6125,
      "duration": 0.03,
      "velocity": 119,
      "chip": "ym2612"
    },
    {
      "channel": 2,
      "note": 81,
      "start": 66.66,
      "duration": 0.0157,
      "velocity": 119,
      "chip": "ym2612"
    },
    {
      "channel": 2,
      "note": 81,
      "start": 66.6956,
      "duration": 0.0162,
      "velocity": 119,
      "chip": "ym2612"
    },
    {
      "channel": 2,
      "note": 81,
      "start": 66.7298,
      "duration": 0.0158,
      "velocity": 119,
      "chip": "ym2612"
    },
    {
      "channel": 2,
      "note": 81,
      "start": 66.7761,
      "duration": 0.0164,
      "velocity": 119,
      "chip": "ym2612"
    },
    {
      "channel": 2,
      "note": 81,
      "start": 66.81,
      "duration": 0.0186,
      "velocity": 119,
      "chip": "ym2612"
    },
    {
      "channel": 3,
      "note": 69,
      "start": 66.8107,
      "duration": 0.2985,
      "velocity": 97,
      "chip": "ym2612"
    },
    {
      "channel": 2,
      "note": 81,
      "start": 66.8454,
      "duration": 0.0168,
      "velocity": 119,
      "chip": "ym2612"
    },
    {
      "channel": 2,
      "note": 81,
      "start": 66.8798,
      "duration": 0.0294,
      "velocity": 119,
      "chip": "ym2612"
    },
    {
      "channel": 2,
      "note": 81,
      "start": 66.9261,
      "duration": 0.0163,
      "velocity": 119,
      "chip": "ym2612"
    },
    {
      "channel": 2,
      "note": 81,
      "start": 66.9628,
      "duration": 0.0797,
      "velocity": 119,
      "chip": "ym2612"
    },
    {
      "channel": 1,
      "note": 52,
      "start": 67.1149,
      "duration": 0.2829,
      "velocity": 101,
      "chip": "ym2612"
    },
    {
      "channel": 2,
      "note": 81,
      "start": 67.1155,
      "duration": 0.077,
      "velocity": 119,
      "chip": "ym2612"
    },
    {
      "channel": 3,
      "note": 64,
      "start": 67.1163,
      "duration": 0.2818,
      "velocity": 97,
      "chip": "ym2612"
    },
    {
      "channel": 1,
      "note": 57,
      "start": 67.4173,
      "duration": 0.8992,
      "velocity": 101,
      "chip": "ym2612"
    },
    {
      "channel": 2,
      "note": 44,
      "start": 67.4212,
      "duration": 0.2795,
      "velocity": 101,
      "chip": "ym2612"
    },
    {
      "channel": 3,
      "note": 64,
      "start": 67.7263,
      "duration": 0.2915,
      "velocity": 97,
      "chip": "ym2612"
    },
    {
      "channel": 2,
      "note": 81,
      "start": 67.8797,
      "duration": 0.0683,
      "velocity": 119,
      "chip": "ym2612"
    },
    {
      "channel": 0,
      "note": 66,
      "start": 68.0263,
      "duration": 0.2895,
      "velocity": 101,
      "chip": "ym2612"
    },
    {
      "channel": 2,
      "note": 81,
      "start": 68.027,
      "duration": 0.0699,
      "velocity": 119,
      "chip": "ym2612"
    },
    {
      "channel": 3,
      "note": 69,
      "start": 68.0277,
      "duration": 0.2884,
      "velocity": 97,
      "chip": "ym2612"
    },
    {
      "channel": 0,
      "note": 67,
      "start": 68.3326,
      "duration": 0.5794,
      "velocity": 101,
      "chip": "ym2612"
    },
    {
      "channel": 2,
      "note": 81,
      "start": 68.3341,
      "duration": 0.0124,
      "velocity": 119,
      "chip": "ym2612"
    },
    {
      "channel": 3,
      "note": 73,
      "start": 68.3348,
      "duration": 0.2977,
      "velocity": 97,
      "chip": "ym2612"
    },
    {
      "channel": 2,
      "note": 81,
      "start": 68.3643,
      "duration": 0.0149,
      "velocity": 119,
      "chip": "ym2612"
    },
    {
      "channel": 2,
      "note": 81,
      "start": 68.4102,
      "duration": 0.0158,
      "velocity": 119,
      "chip": "ym2612"
    },
    {
      "channel": 2,
      "note": 81,
      "start": 68.4475,
      "duration": 0.0156,
      "velocity": 119,
      "chip": "ym2612"
    },
    {
      "channel": 2,
      "note": 81,
      "start": 68.4806,
      "duration": 0.0162,
      "velocity": 119,
      "chip": "ym2612"
    },
    {
      "channel": 2,
      "note": 81,
      "start": 68.5135,
      "duration": 0.0292,
      "velocity": 119,
      "chip": "ym2612"
    },
    {
      "channel": 2,
      "note": 81,
      "start": 68.5597,
      "duration": 0.0163,
      "velocity": 119,
      "chip": "ym2612"
    },
    {
      "channel": 2,
      "note": 81,
      "start": 68.5967,
      "duration": 0.0163,
      "velocity": 119,
      "chip": "ym2612"
    },
    {
      "channel": 2,
      "note": 81,
      "start": 68.6338,
      "duration": 0.0756,
      "velocity": 119,
      "chip": "ym2612"
    },
    {
      "channel": 3,
      "note": 69,
      "start": 68.6345,
      "duration": 0.2969,
      "velocity": 97,
      "chip": "ym2612"
    },
    {
      "channel": 2,
      "note": 81,
      "start": 68.7796,
      "duration": 0.0835,
      "velocity": 119,
      "chip": "ym2612"
    },
    {
      "channel": 0,
      "note": 69,
      "start": 68.943,
      "duration": 0.2826,
      "velocity": 101,
      "chip": "ym2612"
    },
    {
      "channel": 1,
      "note": 52,
      "start": 68.9437,
      "duration": 0.2821,
      "velocity": 101,
      "chip": "ym2612"
    },
    {
      "channel": 2,
      "note": 81,
      "start": 68.9443,
      "duration": 0.0663,
      "velocity": 119,
      "chip": "ym2612"
    },
    {
      "channel": 3,
      "note": 64,
      "start": 68.945,
      "duration": 0.281,
      "velocity": 97,
      "chip": "ym2612"
    },
    {
      "channel": 2,
      "note": 81,
      "start": 69.093,
      "duration": 0.0702,
      "velocity": 119,
      "chip": "ym2612"
    },
    {
      "channel": 0,
      "note": 66,
      "start": 69.2427,
      "duration": 0.8995,
      "velocity": 101,
      "chip": "ym2612"
    },
    {
      "channel": 1,
      "note": 57,
      "start": 69.2436,
      "duration": 0.8989,
      "velocity": 101,
      "chip": "ym2612"
    },
    {
      "channel": 2,
      "note": 44,
      "start": 69.2476,
      "duration": 0.2783,
      "velocity": 101,
      "chip": "ym2612"
    },
    {
      "channel": 3,
      "note": 66,
      "start": 69.5483,
      "duration": 0.2943,
      "velocity": 97,
      "chip": "ym2612"
    },
    {
      "channel": 2,
      "note": 81,
      "start": 69.6997,
      "duration": 0.0761,
      "velocity": 119,
      "chip": "ym2612"
    },
    {
      "channel": 2,
      "note": 81,
      "start": 69.8483,
      "duration": 0.0776,
      "velocity": 119,
      "chip": "ym2612"
    },
    {
      "channel": 3,
      "note": 69,
      "start": 69.849,
      "duration": 0.2828,
      "velocity": 97,
      "chip": "ym2612"
    },
    {
      "channel": 0,
      "note": 62,
      "start": 70.1513,
      "duration": 2.0125,
      "velocity": 101,
      "chip": "ym2612"
    },
    {
      "channel": 2,
      "note": 81,
      "start": 70.1528,
      "duration": 0.023,
      "velocity": 119,
      "chip": "ym2612"
    },
    {
      "channel": 3,
      "note": 74,
      "start": 70.1536,
      "duration": 0.2959,
      "velocity": 97,
      "chip": "ym2612"
    },
    {
      "channel": 2,
      "note": 81,
      "start": 70.1927,
      "duration": 0.0191,
      "velocity": 119,
      "chip": "ym2612"
    },
    {
      "channel": 2,
      "note": 81,
      "start": 70.2294,
      "duration": 0.0158,
      "velocity": 119,
      "chip": "ym2612"
    },
    {
      "channel": 2,
      "note": 81,
      "start": 70.2637,
      "duration": 0.0162,
      "velocity": 119,
      "chip": "ym2612"
    },
    {
      "channel": 2,
      "note": 81,
      "start": 70.31,
      "duration": 0.0157,
      "velocity": 119,
      "chip": "ym2612"
    },
    {
      "channel": 2,
      "note": 81,
      "start": 70.3454,
      "duration": 0.0164,
      "velocity": 119,
      "chip": "ym2612"
    },
    {
      "channel": 2,
      "note": 81,
      "start": 70.3794,
      "duration": 0.0174,
      "velocity": 119,
      "chip": "ym2612"
    },
    {
      "channel": 2,
      "note": 81,
      "start": 70.4135,
      "duration": 0.029,
      "velocity": 119,
      "chip": "ym2612"
    },
    {
      "channel": 2,
      "note": 81,
      "start": 70.46,
      "duration": 0.0157,
      "velocity": 119,
      "chip": "ym2612"
    },
    {
      "channel": 3,
      "note": 69,
      "start": 70.4607,
      "duration": 0.2985,
      "velocity": 97,
      "chip": "ym2612"
    },
    {
      "channel": 2,
      "note": 81,
      "start": 70.4955,
      "duration": 0.0163,
      "velocity": 119,
      "chip": "ym2612"
    },
    {
      "channel": 2,
      "note": 81,
      "start": 70.5309,
      "duration": 0.0156,
      "velocity": 119,
      "chip": "ym2612"
    },
    {
      "channel": 2,
      "note": 81,
      "start": 70.5761,
      "duration": 0.0164,
      "velocity": 119,
      "chip": "ym2612"
    },
    {
      "channel": 2,
      "note": 81,
      "start": 70.61,
      "duration": 0.0698,
      "velocity": 119,
      "chip": "ym2612"
    },
    {
      "channel": 1,
      "note": 52,
      "start": 70.7649,
      "duration": 0.2829,
      "velocity": 101,
      "chip": "ym2612"
    },
    {
      "channel": 2,
      "note": 81,
      "start": 70.7656,
      "duration": 0.0769,
      "velocity": 119,
      "chip": "ym2612"
    },
    {
      "channel": 3,
      "note": 66,
      "start": 70.7663,
      "duration": 0.2818,
      "velocity": 97,
      "chip": "ym2612"
    },
    {
      "channel": 1,
      "note": 57,
      "start": 71.0669,
      "duration": 0.9014,
      "velocity": 101,
      "chip": "ym2612"
    },
    {
      "channel": 2,
      "note": 44,
      "start": 71.0709,
      "duration": 0.2798,
      "velocity": 101,
      "chip": "ym2612"
    },
    {
      "channel": 3,
      "note": 66,
      "start": 71.367,
      "duration": 0.3006,
      "velocity": 97,
      "chip": "ym2612"
    },
    {
      "channel": 2,
      "note": 81,
      "start": 71.5295,
      "duration": 0.0683,
      "velocity": 119,
      "chip": "ym2612"
    },
    {
      "channel": 2,
      "note": 81,
      "start": 71.6761,
      "duration": 0.0715,
      "velocity": 119,
      "chip": "ym2612"
    },
    {
      "channel": 3,
      "note": 69,
      "start": 71.6769,
      "duration": 0.2823,
      "velocity": 97,
      "chip": "ym2612"
    },
    {
      "channel": 2,
      "note": 81,
      "start": 71.9851,
      "duration": 0.0128,
      "velocity": 119,
      "chip": "ym2612"
    },
    {
      "channel": 3,
      "note": 74,
      "start": 71.9857,
      "duration": 0.2901,
      "velocity": 97,
      "chip": "ym2612"
    },
    {
      "channel": 2,
      "note": 81,
      "start": 72.0152,
      "duration": 0.0155,
      "velocity": 119,
      "chip": "ym2612"
    },
    {
      "channel": 2,
      "note": 81,
      "start": 72.049,
      "duration": 0.0268,
      "velocity": 119,
      "chip": "ym2612"
    },
    {
      "channel": 2,
      "note": 81,
      "start": 72.0933,
      "duration": 0.0211,
      "velocity": 119,
      "chip": "ym2612"
    },
    {
      "channel": 2,
      "note": 81,
      "start": 72.132,
      "duration": 0.0156,
      "velocity": 119,
      "chip": "ym2612"
    },
    {
      "channel": 2,
      "note": 81,
      "start": 72.165,
      "duration": 0.0165,
      "velocity": 119,
      "chip": "ym2612"
    },
    {
      "channel": 2,
      "note": 81,
      "start": 72.2094,
      "duration": 0.0163,
      "velocity": 119,
      "chip": "ym2612"
    },
    {
      "channel": 2,
      "note": 81,
      "start": 72.2481,
      "duration": 0.0163,
      "velocity": 119,
      "chip": "ym2612"
    },
    {
      "channel": 0,
      "note": 62,
      "start": 72.284,
      "duration": 0.2782,
      "velocity": 101,
      "chip": "ym2612"
    },
    {
      "channel": 2,
      "note": 81,
      "start": 72.2853,
      "duration": 0.0739,
      "velocity": 119,
      "chip": "ym2612"
    },
    {
      "channel": 3,
      "note": 69,
      "start": 72.286,
      "duration": 0.2952,
      "velocity": 97,
      "chip": "ym2612"
    },
    {
      "channel": 2,
      "note": 81,
      "start": 72.4293,
      "duration": 0.0798,
      "velocity": 119,
      "chip": "ym2612"
    },
    {
      "channel": 0,
      "note": 64,
      "start": 72.582,
      "duration": 0.2936,
      "velocity": 101,
      "chip": "ym2612"
    },
    {
      "channel": 1,
      "note": 52,
      "start": 72.5827,
      "duration": 0.2931,
      "velocity": 101,
      "chip": "ym2612"
    },
    {
      "channel": 2,
      "note": 81,
      "start": 72.5833,
      "duration": 0.0771,
      "velocity": 119,
      "chip": "ym2612"
    },
    {
      "channel": 3,
      "note": 66,
      "start": 72.584,
      "duration": 0.292,
      "velocity": 97,
      "chip": "ym2612"
    },
    {
      "channel": 2,
      "note": 81,
      "start": 72.7428,
      "duration": 0.0702,
      "velocity": 119,
      "chip": "ym2612"
    },
    {
      "channel": 0,
      "note": 65,
      "start": 72.8927,
      "duration": 0.8995,
      "velocity": 101,
      "chip": "ym2612"
    },
    {
      "channel": 1,
      "note": 57,
      "start": 72.8936,
      "duration": 0.8989,
      "velocity": 101,
      "chip": "ym2612"
    },
    {
      "channel": 2,
      "note": 44,
      "start": 72.8976,
      "duration": 0.2784,
      "velocity": 101,
      "chip": "ym2612"
    },
    {
      "channel": 3,
      "note": 65,
      "start": 73.1985,
      "duration": 0.2942,
      "velocity": 97,
      "chip": "ym2612"
    },
    {
      "channel": 2,
      "note": 81,
      "start": 73.3491,
      "duration": 0.0769,
      "velocity": 119,
      "chip": "ym2612"
    },
    {
      "channel": 2,
      "note": 81,
      "start": 73.4985,
      "duration": 0.0774,
      "velocity": 119,
      "chip": "ym2612"
    },
    {
      "channel": 3,
      "note": 70,
      "start": 73.4992,
      "duration": 0.2821,
      "velocity": 97,
      "chip": "ym2612"
    },
    {
      "channel": 0,
      "note": 62,
      "start": 73.8013,
      "duration": 1.091,
      "velocity": 101,
      "chip": "ym2612"
    },
    {
      "channel": 2,
      "note": 81,
      "start": 73.8028,
      "duration": 0.023,
      "velocity": 119,
      "chip": "ym2612"
    },
    {
      "channel": 3,
      "note": 74,
      "start": 73.8036,
      "duration": 0.2953,
      "velocity": 97,
      "chip": "ym2612"
    },
    {
      "channel": 2,
      "note": 81,
      "start": 73.8428,
      "duration": 0.0163,
      "velocity": 119,
      "chip": "ym2612"
    },
    {
      "channel": 2,
      "note": 81,
      "start": 73.8794,
      "duration": 0.0158,
      "velocity": 119,
      "chip": "ym2612"
    },
    {
      "channel": 2,
      "note": 81,
      "start": 73.9133,
      "duration": 0.0166,
      "velocity": 119,
      "chip": "ym2612"
    },
    {
      "channel": 2,
      "note": 81,
      "start": 73.9475,
      "duration": 0.0284,
      "velocity": 119,
      "chip": "ym2612"
    },
    {
      "channel": 2,
      "note": 81,
      "start": 73.9927,
      "duration": 0.0191,
      "velocity": 119,
      "chip": "ym2612"
    },
    {
      "channel": 2,
      "note": 81,
      "start": 74.0294,
      "duration": 0.0169,
      "velocity": 119,
      "chip": "ym2612"
    },
    {
      "channel": 2,
      "note": 81,
      "start": 74.0635,
      "duration": 0.0164,
      "velocity": 119,
      "chip": "ym2612"
    },
    {
      "channel": 2,
      "note": 81,
      "start": 74.11,
      "duration": 0.0157,
      "velocity": 119,
      "chip": "ym2612"
    },
    {
      "channel": 3,
      "note": 70,
      "start": 74.1107,
      "duration": 0.2876,
      "velocity": 97,
      "chip": "ym2612"
    },
    {
      "channel": 2,
      "note": 81,
      "start": 74.1455,
      "duration": 0.0163,
      "velocity": 119,
      "chip": "ym2612"
    },
    {
      "channel": 2,
      "note": 81,
      "start": 74.1805,
      "duration": 0.016,
      "velocity": 119,
      "chip": "ym2612"
    },
    {
      "channel": 2,
      "note": 81,
      "start": 74.2135,
      "duration": 0.029,
      "velocity": 119,
      "chip": "ym2612"
    },
    {
      "channel": 2,
      "note": 81,
      "start": 74.26,
      "duration": 0.0698,
      "velocity": 119,
      "chip": "ym2612"
    },
    {
      "channel": 1,
      "note": 52,
      "start": 74.4095,
      "duration": 0.2901,
      "velocity": 101,
      "chip": "ym2612"
    },
    {
      "channel": 2,
      "note": 81,
      "start": 74.4101,
      "duration": 0.0673,
      "velocity": 119,
      "chip": "ym2612"
    },
    {
      "channel": 3,
      "note": 65,
      "start": 74.4108,
      "duration": 0.289,
      "velocity": 97,
      "chip": "ym2612"
    },
    {
      "channel": 1,
      "note": 57,
      "start": 74.7167,
      "duration": 0.8992,
      "velocity": 101,
      "chip": "ym2612"
    },
    {
      "channel": 2,
      "note": 44,
      "start": 74.7205,
      "duration": 0.2795,
      "velocity": 101,
      "chip": "ym2612"
    },
    {
      "channel": 0,
      "note": 62,
      "start": 75.0167,
      "duration": 0.2787,
      "velocity": 101,
      "chip": "ym2612"
    },
    {
      "channel": 3,
      "note": 65,
      "start": 75.0176,
      "duration": 0.2969,
      "velocity": 97,
      "chip": "ym2612"
    },
    {
      "channel": 2,
      "note": 81,
      "start": 75.1659,
      "duration": 0.0803,
      "velocity": 119,
      "chip": "ym2612"
    },
    {
      "channel": 0,
      "note": 64,
      "start": 75.3261,
      "duration": 0.2829,
      "velocity": 101,
      "chip": "ym2612"
    },
    {
      "channel": 2,
      "note": 81,
      "start": 75.3268,
      "duration": 0.0694,
      "velocity": 119,
      "chip": "ym2612"
    },
    {
      "channel": 3,
      "note": 70,
      "start": 75.3275,
      "duration": 0.2818,
      "velocity": 97,
      "chip": "ym2612"
    },
    {
      "channel": 0,
      "note": 65,
      "start": 75.6261,
      "duration": 0.2893,
      "velocity": 101,
      "chip": "ym2612"
    },
    {
      "channel": 2,
      "note": 81,
      "start": 75.6275,
      "duration": 0.0186,
      "velocity": 119,
      "chip": "ym2612"
    },
    {
      "channel": 3,
      "note": 74,
      "start": 75.6283,
      "duration": 0.2976,
      "velocity": 97,
      "chip": "ym2612"
    },
    {
      "channel": 2,
      "note": 81,
      "start": 75.6637,
      "duration": 0.0149,
      "velocity": 119,
      "chip": "ym2612"
    },
    {
      "channel": 2,
      "note": 81,
      "start": 75.6964,
      "duration": 0.0294,
      "velocity": 119,
      "chip": "ym2612"
    },
    {
      "channel": 2,
      "note": 81,
      "start": 75.7434,
      "duration": 0.0157,
      "velocity": 119,
      "chip": "ym2612"
    },
    {
      "channel": 2,
      "note": 81,
      "start": 75.7803,
      "duration": 0.0158,
      "velocity": 119,
      "chip": "ym2612"
    },
    {
      "channel": 2,
      "note": 81,
      "start": 75.8128,
      "duration": 0.016,
      "velocity": 119,
      "chip": "ym2612"
    },
    {
      "channel": 2,
      "note": 81,
      "start": 75.8459,
      "duration": 0.03,
      "velocity": 119,
      "chip": "ym2612"
    },
    {
      "channel": 2,
      "note": 81,
      "start": 75.8927,
      "duration": 0.0229,
      "velocity": 119,
      "chip": "ym2612"
    },
    {
      "channel": 0,
      "note": 70,
      "start": 75.9325,
      "duration": 0.2793,
      "velocity": 101,
      "chip": "ym2612"
    },
    {
      "channel": 2,
      "note": 81,
      "start": 75.9337,
      "duration": 0.0754,
      "velocity": 119,
      "chip": "ym2612"
    },
    {
      "channel": 3,
      "note": 70,
      "start": 75.9344,
      "duration": 0.2968,
      "velocity": 97,
      "chip": "ym2612"
    },
    {
      "channel": 2,
      "note": 81,
      "start": 76.0789,
      "duration": 0.0802,
      "velocity": 119,
      "chip": "ym2612"
    },
    {
      "channel": 0,
      "note": 74,
      "start": 76.2319,
      "duration": 0.2813,
      "velocity": 101,
      "chip": "ym2612"
    },
    {
      "channel": 1,
      "note": 52,
      "start": 76.2326,
      "duration": 0.2807,
      "velocity": 101,
      "chip": "ym2612"
    },
    {
      "channel": 2,
      "note": 81,
      "start": 76.2333,
      "duration": 0.0759,
      "velocity": 119,
      "chip": "ym2612"
    },
    {
      "channel": 3,
      "note": 65,
      "start": 76.234,
      "duration": 0.2796,
      "velocity": 97,
      "chip": "ym2612"
    },
    {
      "channel": 2,
      "note": 81,
      "start": 76.3777,
      "duration": 0.0852,
      "velocity": 119,
      "chip": "ym2612"
    },
    {
      "channel": 0,
      "note": 76,
      "start": 76.5428,
      "duration": 3.5385,
      "velocity": 101,
      "chip": "ym2612"
    },
    {
      "channel": 1,
      "note": 57,
      "start": 76.5436,
      "duration": 0.8882,
      "velocity": 101,
      "chip": "ym2612"
    },
    {
      "channel": 2,
      "note": 44,
      "start": 76.5476,
      "duration": 0.2783,
      "velocity": 101,
      "chip": "ym2612"
    },
    {
      "channel": 3,
      "note": 64,
      "start": 76.843,
      "duration": 0.2996,
      "velocity": 97,
      "chip": "ym2612"
    },
    {
      "channel": 2,
      "note": 81,
      "start": 76.9988,
      "duration": 0.0644,
      "velocity": 119,
      "chip": "ym2612"
    },
    {
      "channel": 2,
      "note": 81,
      "start": 77.1482,
      "duration": 0.0776,
      "velocity": 119,
      "chip": "ym2612"
    },
    {
      "channel": 3,
      "note": 69,
      "start": 77.1489,
      "duration": 0.2824,
      "velocity": 97,
      "chip": "ym2612"
    },
    {
      "channel": 2,
      "note": 81,
      "start": 77.4517,
      "duration": 0.013,
      "velocity": 119,
      "chip": "ym2612"
    },
    {
      "channel": 3,
      "note": 73,
      "start": 77.4525,
      "duration": 0.2981,
      "velocity": 97,
      "chip": "ym2612"
    },
    {
      "channel": 2,
      "note": 81,
      "start": 77.4928,
      "duration": 0.0163,
      "velocity": 119,
      "chip": "ym2612"
    },
    {
      "channel": 2,
      "note": 81,
      "start": 77.5266,
      "duration": 0.0211,
      "velocity": 119,
      "chip": "ym2612"
    },
    {
      "channel": 2,
      "note": 81,
      "start": 77.5649,
      "duration": 0.0162,
      "velocity": 119,
      "chip": "ym2612"
    },
    {
      "channel": 2,
      "note": 81,
      "start": 77.599,
      "duration": 0.0268,
      "velocity": 119,
      "chip": "ym2612"
    },
    {
      "channel": 2,
      "note": 81,
      "start": 77.6427,
      "duration": 0.0163,
      "velocity": 119,
      "chip": "ym2612"
    },
    {
      "channel": 2,
      "note": 81,
      "start": 77.682,
      "duration": 0.016,
      "velocity": 119,
      "chip": "ym2612"
    },
    {
      "channel": 2,
      "note": 81,
      "start": 77.7148,
      "duration": 0.0167,
      "velocity": 119,
      "chip": "ym2612"
    },
    {
      "channel": 2,
      "note": 81,
      "start": 77.7518,
      "duration": 0.024,
      "velocity": 119,
      "chip": "ym2612"
    },
    {
      "channel": 3,
      "note": 69,
      "start": 77.7526,
      "duration": 0.2983,
      "velocity": 97,
      "chip": "ym2612"
    },
    {
      "channel": 2,
      "note": 81,
      "start": 77.7927,
      "duration": 0.0217,
      "velocity": 119,
      "chip": "ym2612"
    },
    {
      "channel": 2,
      "note": 81,
      "start": 77.8322,
      "duration": 0.0156,
      "velocity": 119,
      "chip": "ym2612"
    },
    {
      "channel": 2,
      "note": 81,
      "start": 77.8651,
      "duration": 0.0165,
      "velocity": 119,
      "chip": "ym2612"
    },
    {
      "channel": 2,
      "note": 81,
      "start": 77.91,
      "duration": 0.0711,
      "velocity": 119,
      "chip": "ym2612"
    },
    {
      "channel": 1,
      "note": 52,
      "start": 78.0595,
      "duration": 0.2829,
      "velocity": 101,
      "chip": "ym2612"
    },
    {
      "channel": 2,
      "note": 81,
      "start": 78.0601,
      "duration": 0.0688,
      "velocity": 119,
      "chip": "ym2612"
    },
    {
      "channel": 3,
      "note": 64,
      "start": 78.0608,
      "duration": 0.2818,
      "velocity": 97,
      "chip": "ym2612"
    },
    {
      "channel": 1,
      "note": 57,
      "start": 78.3667,
      "duration": 0.9015,
      "velocity": 101,
      "chip": "ym2612"
    },
    {
      "channel": 2,
      "note": 44,
      "start": 78.3706,
      "duration": 0.2796,
      "velocity": 101,
      "chip": "ym2612"
    },
    {
      "channel": 3,
      "note": 64,
      "start": 78.6667,
      "duration": 0.3006,
      "velocity": 97,
      "chip": "ym2612"
    },
    {
      "channel": 2,
      "note": 81,
      "start": 78.8176,
      "duration": 0.0803,
      "velocity": 119,
      "chip": "ym2612"
    },
    {
      "channel": 2,
      "note": 81,
      "start": 78.968,
      "duration": 0.0798,
      "velocity": 119,
      "chip": "ym2612"
    },
    {
      "channel": 3,
      "note": 69,
      "start": 78.9687,
      "duration": 0.2905,
      "velocity": 97,
      "chip": "ym2612"
    },
    {
      "channel": 2,
      "note": 81,
      "start": 79.2771,
      "duration": 0.0153,
      "velocity": 119,
      "chip": "ym2612"
    },
    {
      "channel": 3,
      "note": 73,
      "start": 79.2779,
      "duration": 0.298,
      "velocity": 97,
      "chip": "ym2612"
    },
    {
      "channel": 2,
      "note": 81,
      "start": 79.3153,
      "duration": 0.0148,
      "velocity": 119,
      "chip": "ym2612"
    },
    {
      "channel": 2,
      "note": 81,
      "start": 79.3476,
      "duration": 0.0172,
      "velocity": 119,
      "chip": "ym2612"
    },
    {
      "channel": 2,
      "note": 81,
      "start": 79.3934,
      "duration": 0.0158,
      "velocity": 119,
      "chip": "ym2612"
    },
    {
      "channel": 2,
      "note": 81,
      "start": 79.4266,
      "duration": 0.0211,
      "velocity": 119,
      "chip": "ym2612"
    },
    {
      "channel": 2,
      "note": 81,
      "start": 79.4644,
      "duration": 0.0157,
      "velocity": 119,
      "chip": "ym2612"
    },
    {
      "channel": 2,
      "note": 81,
      "start": 79.4985,
      "duration": 0.0274,
      "velocity": 119,
      "chip": "ym2612"
    },
    {
      "channel": 2,
      "note": 81,
      "start": 79.5428,
      "duration": 0.0163,
      "velocity": 119,
      "chip": "ym2612"
    },
    {
      "channel": 1,
      "note": 57,
      "start": 79.5842,
      "duration": 0.28,
      "velocity": 101,
      "chip": "ym2612"
    },
    {
      "channel": 2,
      "note": 81,
      "start": 79.5854,
      "duration": 0.0613,
      "velocity": 119,
      "chip": "ym2612"
    },
    {
      "channel": 3,
      "note": 69,
      "start": 79.5861,
      "duration": 0.2898,
      "velocity": 97,
      "chip": "ym2612"
    },
    {
      "channel": 2,
      "note": 81,
      "start": 79.7288,
      "duration": 0.0803,
      "velocity": 119,
      "chip": "ym2612"
    },
    {
      "channel": 1,
      "note": 59,
      "start": 79.8834,
      "duration": 0.2823,
      "velocity": 101,
      "chip": "ym2612"
    },
    {
      "channel": 2,
      "note": 81,
      "start": 79.8841,
      "duration": 0.0751,
      "velocity": 119,
      "chip": "ym2612"
    },
    {
      "channel": 3,
      "note": 64,
      "start": 79.8848,
      "duration": 0.2812,
      "velocity": 97,
      "chip": "ym2612"
    },
    {
      "channel": 2,
      "note": 81,
      "start": 80.0303,
      "duration": 0.0788,
      "velocity": 119,
      "chip": "ym2612"
    },
    {
      "channel": 0,
      "note": 91,
      "start": 80.188,
      "duration": 0.9135,
      "velocity": 101,
      "chip": "ym2612"
    },
    {
      "channel": 1,
      "note": 60,
      "start": 80.1893,
      "duration": 0.8933,
      "velocity": 101,
      "chip": "ym2612"
    },
    {
      "channel": 2,
      "note": 97,
      "start": 80.1938,
      "duration": 0.438,
      "velocity": 119,
      "chip": "ym2612"
    },
    {
      "channel": 3,
      "note": 64,
      "start": 80.1953,
      "duration": 0.29,
      "velocity": 97,
      "chip": "ym2612"
    },
    {
      "channel": 3,
      "note": 67,
      "start": 80.493,
      "duration": 0.2996,
      "velocity": 97,
      "chip": "ym2612"
    },
    {
      "channel": 2,
      "note": 81,
      "start": 80.6462,
      "duration": 0.0695,
      "velocity": 119,
      "chip": "ym2612"
    },
    {
      "channel": 2,
      "note": 81,
      "start": 80.7997,
      "duration": 0.0662,
      "velocity": 119,
      "chip": "ym2612"
    },
    {
      "channel": 3,
      "note": 72,
      "start": 80.8004,
      "duration": 0.2819,
      "velocity": 97,
      "chip": "ym2612"
    },
    {
      "channel": 0,
      "note": 90,
      "start": 81.1018,
      "duration": 0.4454,
      "velocity": 101,
      "chip": "ym2612"
    },
    {
      "channel": 2,
      "note": 81,
      "start": 81.1032,
      "duration": 0.01,
      "velocity": 119,
      "chip": "ym2612"
    },
    {
      "channel": 3,
      "note": 74,
      "start": 81.104,
      "duration": 0.2966,
      "velocity": 97,
      "chip": "ym2612"
    },
    {
      "channel": 2,
      "note": 81,
      "start": 81.1303,
      "duration": 0.0289,
      "velocity": 119,
      "chip": "ym2612"
    },
    {
      "channel": 2,
      "note": 81,
      "start": 81.1767,
      "duration": 0.0157,
      "velocity": 119,
      "chip": "ym2612"
    },
    {
      "channel": 2,
      "note": 81,
      "start": 81.2132,
      "duration": 0.0163,
      "velocity": 119,
      "chip": "ym2612"
    },
    {
      "channel": 2,
      "note": 81,
      "start": 81.247,
      "duration": 0.0179,
      "velocity": 119,
      "chip": "ym2612"
    },
    {
      "channel": 2,
      "note": 81,
      "start": 81.2927,
      "duration": 0.0164,
      "velocity": 119,
      "chip": "ym2612"
    },
    {
      "channel": 2,
      "note": 81,
      "start": 81.3266,
      "duration": 0.0222,
      "velocity": 119,
      "chip": "ym2612"
    },
    {
      "channel": 2,
      "note": 81,
      "start": 81.3657,
      "duration": 0.0163,
      "velocity": 119,
      "chip": "ym2612"
    },
    {
      "channel": 2,
      "note": 81,
      "start": 81.402,
      "duration": 0.0239,
      "velocity": 119,
      "chip": "ym2612"
    },
    {
      "channel": 3,
      "note": 69,
      "start": 81.4027,
      "duration": 0.2952,
      "velocity": 97,
      "chip": "ym2612"
    },
    {
      "channel": 2,
      "note": 81,
      "start": 81.4427,
      "duration": 0.0163,
      "velocity": 119,
      "chip": "ym2612"
    },
    {
      "channel": 2,
      "note": 81,
      "start": 81.4831,
      "duration": 0.0156,
      "velocity": 119,
      "chip": "ym2612"
    },
    {
      "channel": 2,
      "note": 81,
      "start": 81.5157,
      "duration": 0.0159,
      "velocity": 119,
      "chip": "ym2612"
    },
    {
      "channel": 0,
      "note": 88,
      "start": 81.5475,
      "duration": 0.131,
      "velocity": 101,
      "chip": "ym2612"
    },
    {
      "channel": 2,
      "note": 81,
      "start": 81.5487,
      "duration": 0.0808,
      "velocity": 119,
      "chip": "ym2612"
    },
    {
      "channel": 0,
      "note": 86,
      "start": 81.7095,
      "duration": 0.2828,
      "velocity": 101,
      "chip": "ym2612"
    },
    {
      "channel": 1,
      "note": 55,
      "start": 81.7102,
      "duration": 0.2823,
      "velocity": 101,
      "chip": "ym2612"
    },
    {
      "channel": 2,
      "note": 81,
      "start": 81.7107,
      "duration": 0.0663,
      "velocity": 119,
      "chip": "ym2612"
    },
    {
      "channel": 3,
      "note": 66,
      "start": 81.7115,
      "duration": 0.2813,
      "velocity": 97,
      "chip": "ym2612"
    },
    {
      "channel": 0,
      "note": 88,
      "start": 82.0095,
      "duration": 1.0557,
      "velocity": 101,
      "chip": "ym2612"
    },
    {
      "channel": 1,
      "note": 60,
      "start": 82.0103,
      "duration": 0.8987,
      "velocity": 101,
      "chip": "ym2612"
    },
    {
      "channel": 2,
      "note": 44,
      "start": 82.0142,
      "duration": 0.2854,
      "velocity": 101,
      "chip": "ym2612"
    },
    {
      "channel": 3,
      "note": 64,
      "start": 82.0149,
      "duration": 0.2944,
      "velocity": 97,
      "chip": "ym2612"
    },
    {
      "channel": 3,
      "note": 67,
      "start": 82.3165,
      "duration": 0.2996,
      "velocity": 97,
      "chip": "ym2612"
    },
    {
      "channel": 2,
      "note": 81,
      "start": 82.467,
      "duration": 0.0755,
      "velocity": 119,
      "chip": "ym2612"
    },
    {
      "channel": 2,
      "note": 81,
      "start": 82.6168,
      "duration": 0.0801,
      "velocity": 119,
      "chip": "ym2612"
    },
    {
      "channel": 3,
      "note": 72,
      "start": 82.6176,
      "duration": 0.2818,
      "velocity": 97,
      "chip": "ym2612"
    },
    {
      "channel": 2,
      "note": 81,
      "start": 82.9271,
      "duration": 0.0154,
      "velocity": 119,
      "chip": "ym2612"
    },
    {
      "channel": 3,
      "note": 76,
      "start": 82.9279,
      "duration": 0.2908,
      "velocity": 97,
      "chip": "ym2612"
    },
    {
      "channel": 2,
      "note": 81,
      "start": 82.96,
      "duration": 0.02,
      "velocity": 119,
      "chip": "ym2612"
    },
    {
      "channel": 2,
      "note": 81,
      "start": 82.9975,
      "duration": 0.0162,
      "velocity": 119,
      "chip": "ym2612"
    },
    {
      "channel": 2,
      "note": 81,
      "start": 83.034,
      "duration": 0.0251,
      "velocity": 119,
      "chip": "ym2612"
    },
    {
      "channel": 2,
      "note": 81,
      "start": 83.0766,
      "duration": 0.0158,
      "velocity": 119,
      "chip": "ym2612"
    },
    {
      "channel": 2,
      "note": 81,
      "start": 83.1141,
      "duration": 0.0158,
      "velocity": 119,
      "chip": "ym2612"
    },
    {
      "channel": 2,
      "note": 81,
      "start": 83.1469,
      "duration": 0.019,
      "velocity": 119,
      "chip": "ym2612"
    },
    {
      "channel": 2,
      "note": 81,
      "start": 83.1927,
      "duration": 0.0163,
      "velocity": 119,
      "chip": "ym2612"
    },
    {
      "channel": 0,
      "note": 88,
      "start": 83.2261,
      "duration": 0.2995,
      "velocity": 101,
      "chip": "ym2612"
    },
    {
      "channel": 2,
      "note": 81,
      "start": 83.2273,
      "duration": 0.0693,
      "velocity": 119,
      "chip": "ym2612"
    },
    {
      "channel": 3,
      "note": 72,
      "start": 83.228,
      "duration": 0.2979,
      "velocity": 97,
      "chip": "ym2612"
    },
    {
      "channel": 2,
      "note": 81,
      "start": 83.3803,
      "duration": 0.069,
      "velocity": 119,
      "chip": "ym2612"
    },
    {
      "channel": 0,
      "note": 90,
      "start": 83.5331,
      "duration": 0.2997,
      "velocity": 101,
      "chip": "ym2612"
    },
    {
      "channel": 1,
      "note": 55,
      "start": 83.5338,
      "duration": 0.2817,
      "velocity": 101,
      "chip": "ym2612"
    },
    {
      "channel": 2,
      "note": 81,
      "start": 83.5344,
      "duration": 0.0748,
      "velocity": 119,
      "chip": "ym2612"
    },
    {
      "channel": 3,
      "note": 67,
      "start": 83.5351,
      "duration": 0.2806,
      "velocity": 97,
      "chip": "ym2612"
    },
    {
      "channel": 2,
      "note": 81,
      "start": 83.6773,
      "duration": 0.0818,
      "velocity": 119,
      "chip": "ym2612"
    },
    {
      "channel": 0,
      "note": 91,
      "start": 83.8338,
      "duration": 0.299,
      "velocity": 101,
      "chip": "ym2612"
    },
    {
      "channel": 1,
      "note": 60,
      "start": 83.8346,
      "duration": 0.8993,
      "velocity": 101,
      "chip": "ym2612"
    },
    {
      "channel": 2,
      "note": 44,
      "start": 83.8385,
      "duration": 0.2773,
      "velocity": 101,
      "chip": "ym2612"
    },
    {
      "channel": 3,
      "note": 64,
      "start": 83.8394,
      "duration": 0.2938,
      "velocity": 97,
      "chip": "ym2612"
    },
    {
      "channel": 0,
      "note": 93,
      "start": 84.1428,
      "duration": 0.2903,
      "velocity": 101,
      "chip": "ym2612"
    },
    {
      "channel": 3,
      "note": 67,
      "start": 84.1436,
      "duration": 0.2898,
      "velocity": 97,
      "chip": "ym2612"
    },
    {
      "channel": 2,
      "note": 81,
      "start": 84.2962,
      "duration": 0.0693,
      "velocity": 119,
      "chip": "ym2612"
    },
    {
      "channel": 0,
      "note": 91,
      "start": 84.4427,
      "duration": 0.2995,
      "velocity": 101,
      "chip": "ym2612"
    },
    {
      "channel": 2,
      "note": 81,
      "start": 84.4434,
      "duration": 0.0699,
      "velocity": 119,
      "chip": "ym2612"
    },
    {
      "channel": 3,
      "note": 72,
      "start": 84.4441,
      "duration": 0.2817,
      "velocity": 97,
      "chip": "ym2612"
    },
    {
      "channel": 0,
      "note": 90,
      "start": 84.7507,
      "duration": 0.4459,
      "velocity": 101,
      "chip": "ym2612"
    },
    {
      "channel": 2,
      "note": 81,
      "start": 84.7522,
      "duration": 0.0107,
      "velocity": 119,
      "chip": "ym2612"
    },
    {
      "channel": 3,
      "note": 74,
      "start": 84.7529,
      "duration": 0.2897,
      "velocity": 97,
      "chip": "ym2612"
    },
    {
      "channel": 2,
      "note": 81,
      "start": 84.7803,
      "duration": 0.0155,
      "velocity": 119,
      "chip": "ym2612"
    },
    {
      "channel": 2,
      "note": 81,
      "start": 84.8267,
      "duration": 0.0158,
      "velocity": 119,
      "chip": "ym2612"
    },
    {
      "channel": 2,
      "note": 81,
      "start": 84.8594,
      "duration": 0.0202,
      "velocity": 119,
      "chip": "ym2612"
    },
    {
      "channel": 2,
      "note": 81,
      "start": 84.897,
      "duration": 0.0179,
      "velocity": 119,
      "chip": "ym2612"
    },
    {
      "channel": 2,
      "note": 81,
      "start": 84.9308,
      "duration": 0.0283,
      "velocity": 119,
      "chip": "ym2612"
    },
    {
      "channel": 2,
      "note": 81,
      "start": 84.9767,
      "duration": 0.0157,
      "velocity": 119,
      "chip": "ym2612"
    },
    {
      "channel": 2,
      "note": 81,
      "start": 85.0157,
      "duration": 0.0163,
      "velocity": 119,
      "chip": "ym2612"
    },
    {
      "channel": 2,
      "note": 81,
      "start": 85.0516,
      "duration": 0.0123,
      "velocity": 119,
      "chip": "ym2612"
    },
    {
      "channel": 3,
      "note": 69,
      "start": 85.0523,
      "duration": 0.2957,
      "velocity": 97,
      "chip": "ym2612"
    },
    {
      "channel": 2,
      "note": 81,
      "start": 85.0928,
      "duration": 0.0163,
      "velocity": 119,
      "chip": "ym2612"
    },
    {
      "channel": 2,
      "note": 81,
      "start": 85.1266,
      "duration": 0.0221,
      "velocity": 119,
      "chip": "ym2612"
    },
    {
      "channel": 2,
      "note": 81,
      "start": 85.1657,
      "duration": 0.0155,
      "velocity": 119,
      "chip": "ym2612"
    },
    {
      "channel": 0,
      "note": 88,
      "start": 85.1976,
      "duration": 0.1501,
      "velocity": 101,
      "chip": "ym2612"
    },
    {
      "channel": 2,
      "note": 81,
      "start": 85.1988,
      "duration": 0.0807,
      "velocity": 119,
      "chip": "ym2612"
    },
    {
      "channel": 0,
      "note": 86,
      "start": 85.3488,
      "duration": 0.1447,
      "velocity": 101,
      "chip": "ym2612"
    },
    {
      "channel": 1,
      "note": 55,
      "start": 85.3495,
      "duration": 0.2929,
      "velocity": 101,
      "chip": "ym2612"
    },
    {
      "channel": 2,
      "note": 81,
      "start": 85.3501,
      "duration": 0.077,
      "velocity": 119,
      "chip": "ym2612"
    },
    {
      "channel": 3,
      "note": 66,
      "start": 85.3508,
      "duration": 0.2918,
      "velocity": 97,
      "chip": "ym2612"
    },
    {
      "channel": 0,
      "note": 90,
      "start": 85.5095,
      "duration": 0.139,
      "velocity": 101,
      "chip": "ym2612"
    },
    {
      "channel": 0,
      "note": 88,
      "start": 85.6595,
      "duration": 1.6526,
      "velocity": 101,
      "chip": "ym2612"
    },
    {
      "channel": 1,
      "note": 60,
      "start": 85.6602,
      "duration": 0.8989,
      "velocity": 101,
      "chip": "ym2612"
    },
    {
      "channel": 2,
      "note": 44,
      "start": 85.6642,
      "duration": 0.2783,
      "velocity": 101,
      "chip": "ym2612"
    },
    {
      "channel": 3,
      "note": 64,
      "start": 85.6649,
      "duration": 0.2944,
      "velocity": 97,
      "chip": "ym2612"
    },
    {
      "channel": 3,
      "note": 67,
      "start": 85.9665,
      "duration": 0.2927,
      "velocity": 97,
      "chip": "ym2612"
    },
    {
      "channel": 2,
      "note": 81,
      "start": 86.117,
      "duration": 0.0755,
      "velocity": 119,
      "chip": "ym2612"
    },
    {
      "channel": 2,
      "note": 81,
      "start": 86.2664,
      "duration": 0.0761,
      "velocity": 119,
      "chip": "ym2612"
    },
    {
      "channel": 3,
      "note": 72,
      "start": 86.2672,
      "duration": 0.2822,
      "velocity": 97,
      "chip": "ym2612"
    },
    {
      "channel": 2,
      "note": 81,
      "start": 86.57,
      "duration": 0.0225,
      "velocity": 119,
      "chip": "ym2612"
    },
    {
      "channel": 3,
      "note": 76,
      "start": 86.5707,
      "duration": 0.2981,
      "velocity": 97,
      "chip": "ym2612"
    },
    {
      "channel": 2,
      "note": 81,
      "start": 86.61,
      "duration": 0.0157,
      "velocity": 119,
      "chip": "ym2612"
    },
    {
      "channel": 2,
      "note": 81,
      "start": 86.6475,
      "duration": 0.0158,
      "velocity": 119,
      "chip": "ym2612"
    },
    {
      "channel": 2,
      "note": 81,
      "start": 86.6835,
      "duration": 0.0157,
      "velocity": 119,
      "chip": "ym2612"
    },
    {
      "channel": 2,
      "note": 81,
      "start": 86.7267,
      "duration": 0.0158,
      "velocity": 119,
      "chip": "ym2612"
    },
    {
      "channel": 2,
      "note": 81,
      "start": 86.76,
      "duration": 0.02,
      "velocity": 119,
      "chip": "ym2612"
    },
    {
      "channel": 2,
      "note": 81,
      "start": 86.7969,
      "duration": 0.019,
      "velocity": 119,
      "chip": "ym2612"
    },
    {
      "channel": 2,
      "note": 81,
      "start": 86.8329,
      "duration": 0.0263,
      "velocity": 119,
      "chip": "ym2612"
    },
    {
      "channel": 2,
      "note": 81,
      "start": 86.8767,
      "duration": 0.089,
      "velocity": 119,
      "chip": "ym2612"
    },
    {
      "channel": 3,
      "note": 72,
      "start": 86.8774,
      "duration": 0.2985,
      "velocity": 97,
      "chip": "ym2612"
    },
    {
      "channel": 2,
      "note": 81,
      "start": 87.0261,
      "duration": 0.0732,
      "velocity": 119,
      "chip": "ym2612"
    },
    {
      "channel": 1,
      "note": 55,
      "start": 87.183,
      "duration": 0.2813,
      "velocity": 101,
      "chip": "ym2612"
    },
    {
      "channel": 2,
      "note": 81,
      "start": 87.1837,
      "duration": 0.0629,
      "velocity": 119,
      "chip": "ym2612"
    },
    {
      "channel": 3,
      "note": 67,
      "start": 87.1844,
      "duration": 0.2802,
      "velocity": 97,
      "chip": "ym2612"
    },
    {
      "channel": 2,
      "note": 81,
      "start": 87.3288,
      "duration": 0.0803,
      "velocity": 119,
      "chip": "ym2612"
    },
    {
      "channel": 0,
      "note": 91,
      "start": 87.4844,
      "duration": 0.917,
      "velocity": 101,
      "chip": "ym2612"
    },
    {
      "channel": 1,
      "note": 60,
      "start": 87.4852,
      "duration": 0.8998,
      "velocity": 101,
      "chip": "ym2612"
    },
    {
      "channel": 2,
      "note": 97,
      "start": 87.4893,
      "duration": 0.4365,
      "velocity": 119,
      "chip": "ym2612"
    },
    {
      "channel": 3,
      "note": 64,
      "start": 87.4901,
      "duration": 0.2996,
      "velocity": 97,
      "chip": "ym2612"
    },
    {
      "channel": 3,
      "note": 67,
      "start": 87.7906,
      "duration": 0.2925,
      "velocity": 97,
      "chip": "ym2612"
    },
    {
      "channel": 2,
      "note": 81,
      "start": 87.9462,
      "duration": 0.0691,
      "velocity": 119,
      "chip": "ym2612"
    },
    {
      "channel": 2,
      "note": 81,
      "start": 88.0928,
      "duration": 0.0727,
      "velocity": 119,
      "chip": "ym2612"
    },
    {
      "channel": 3,
      "note": 72,
      "start": 88.0936,
      "duration": 0.2823,
      "velocity": 97,
      "chip": "ym2612"
    },
    {
      "channel": 0,
      "note": 90,
      "start": 88.4017,
      "duration": 0.445,
      "velocity": 101,
      "chip": "ym2612"
    },
    {
      "channel": 2,
      "note": 81,
      "start": 88.4032,
      "duration": 0.0097,
      "velocity": 119,
      "chip": "ym2612"
    },
    {
      "channel": 3,
      "note": 74,
      "start": 88.4039,
      "duration": 0.2887,
      "velocity": 97,
      "chip": "ym2612"
    },
    {
      "channel": 2,
      "note": 81,
      "start": 88.4298,
      "duration": 0.0159,
      "velocity": 119,
      "chip": "ym2612"
    },
    {
      "channel": 2,
      "note": 81,
      "start": 88.4631,
      "duration": 0.0294,
      "velocity": 119,
      "chip": "ym2612"
    },
    {
      "channel": 2,
      "note": 81,
      "start": 88.5094,
      "duration": 0.0163,
      "velocity": 119,
      "chip": "ym2612"
    },
    {
      "channel": 2,
      "note": 81,
      "start": 88.547,
      "duration": 0.0174,
      "velocity": 119,
      "chip": "ym2612"
    },
    {
      "channel": 2,
      "note": 81,
      "start": 88.5808,
      "duration": 0.0162,
      "velocity": 119,
      "chip": "ym2612"
    },
    {
      "channel": 2,
      "note": 81,
      "start": 88.6267,
      "duration": 0.0158,
      "velocity": 119,
      "chip": "ym2612"
    },
    {
      "channel": 2,
      "note": 81,
      "start": 88.6594,
      "duration": 0.0227,
      "velocity": 119,
      "chip": "ym2612"
    },
    {
      "channel": 2,
      "note": 81,
      "start": 88.7016,
      "duration": 0.0123,
      "velocity": 119,
      "chip": "ym2612"
    },
    {
      "channel": 3,
      "note": 69,
      "start": 88.7023,
      "duration": 0.2956,
      "velocity": 97,
      "chip": "ym2612"
    },
    {
      "channel": 2,
      "note": 81,
      "start": 88.7307,
      "duration": 0.0284,
      "velocity": 119,
      "chip": "ym2612"
    },
    {
      "channel": 2,
      "note": 81,
      "start": 88.7767,
      "duration": 0.0157,
      "velocity": 119,
      "chip": "ym2612"
    },
    {
      "channel": 2,
      "note": 81,
      "start": 88.8157,
      "duration": 0.0155,
      "velocity": 119,
      "chip": "ym2612"
    },
    {
      "channel": 0,
      "note": 88,
      "start": 88.8471,
      "duration": 0.1285,
      "velocity": 101,
      "chip": "ym2612"
    },
    {
      "channel": 2,
      "note": 81,
      "start": 88.8483,
      "duration": 0.0774,
      "velocity": 119,
      "chip": "ym2612"
    },
    {
      "channel": 0,
      "note": 86,
      "start": 88.9987,
      "duration": 0.2838,
      "velocity": 101,
      "chip": "ym2612"
    },
    {
      "channel": 1,
      "note": 55,
      "start": 88.9994,
      "duration": 0.2833,
      "velocity": 101,
      "chip": "ym2612"
    },
    {
      "channel": 2,
      "note": 81,
      "start": 89.0,
      "duration": 0.077,
      "velocity": 119,
      "chip": "ym2612"
    },
    {
      "channel": 3,
      "note": 66,
      "start": 89.0007,
      "duration": 0.2822,
      "velocity": 97,
      "chip": "ym2612"
    },
    {
      "channel": 0,
      "note": 88,
      "start": 89.3095,
      "duration": 1.0495,
      "velocity": 101,
      "chip": "ym2612"
    },
    {
      "channel": 1,
      "note": 60,
      "start": 89.3102,
      "duration": 0.8989,
      "velocity": 101,
      "chip": "ym2612"
    },
    {
      "channel": 2,
      "note": 44,
      "start": 89.3142,
      "duration": 0.2785,
      "velocity": 101,
      "chip": "ym2612"
    },
    {
      "channel": 3,
      "note": 64,
      "start": 89.3149,
      "duration": 0.2856,
      "velocity": 97,
      "chip": "ym2612"
    },
    {
      "channel": 3,
      "note": 67,
      "start": 89.6097,
      "duration": 0.2996,
      "velocity": 97,
      "chip": "ym2612"
    },
    {
      "channel": 2,
      "note": 81,
      "start": 89.767,
      "duration": 0.0755,
      "velocity": 119,
      "chip": "ym2612"
    },
    {
      "channel": 2,
      "note": 81,
      "start": 89.9163,
      "duration": 0.0763,
      "velocity": 119,
      "chip": "ym2612"
    },
    {
      "channel": 3,
      "note": 72,
      "start": 89.9171,
      "duration": 0.2822,
      "velocity": 97,
      "chip": "ym2612"
    },
    {
      "channel": 2,
      "note": 81,
      "start": 90.22,
      "duration": 0.0124,
      "velocity": 119,
      "chip": "ym2612"
    },
    {
      "channel": 3,
      "note": 76,
      "start": 90.2207,
      "duration": 0.2976,
      "velocity": 97,
      "chip": "ym2612"
    },
    {
      "channel": 2,
      "note": 81,
      "start": 90.2602,
      "duration": 0.0155,
      "velocity": 119,
      "chip": "ym2612"
    },
    {
      "channel": 2,
      "note": 81,
      "start": 90.2975,
      "duration": 0.0158,
      "velocity": 119,
      "chip": "ym2612"
    },
    {
      "channel": 2,
      "note": 81,
      "start": 90.3333,
      "duration": 0.0159,
      "velocity": 119,
      "chip": "ym2612"
    },
    {
      "channel": 2,
      "note": 81,
      "start": 90.3666,
      "duration": 0.0261,
      "velocity": 119,
      "chip": "ym2612"
    },
    {
      "channel": 2,
      "note": 81,
      "start": 90.41,
      "duration": 0.0158,
      "velocity": 119,
      "chip": "ym2612"
    },
    {
      "channel": 2,
      "note": 81,
      "start": 90.4469,
      "duration": 0.0188,
      "velocity": 119,
      "chip": "ym2612"
    },
    {
      "channel": 2,
      "note": 81,
      "start": 90.4828,
      "duration": 0.0162,
      "velocity": 119,
      "chip": "ym2612"
    },
    {
      "channel": 0,
      "note": 88,
      "start": 90.5263,
      "duration": 0.29,
      "velocity": 101,
      "chip": "ym2612"
    },
    {
      "channel": 2,
      "note": 81,
      "start": 90.5276,
      "duration": 0.0689,
      "velocity": 119,
      "chip": "ym2612"
    },
    {
      "channel": 3,
      "note": 72,
      "start": 90.5283,
      "duration": 0.2884,
      "velocity": 97,
      "chip": "ym2612"
    },
    {
      "channel": 2,
      "note": 81,
      "start": 90.6761,
      "duration": 0.0728,
      "velocity": 119,
      "chip": "ym2612"
    },
    {
      "channel": 0,
      "note": 90,
      "start": 90.8261,
      "duration": 0.2998,
      "velocity": 101,
      "chip": "ym2612"
    },
    {
      "channel": 1,
      "note": 55,
      "start": 90.8268,
      "duration": 0.2894,
      "velocity": 101,
      "chip": "ym2612"
    },
    {
      "channel": 2,
      "note": 81,
      "start": 90.8274,
      "duration": 0.0667,
      "velocity": 119,
      "chip": "ym2612"
    },
    {
      "channel": 3,
      "note": 67,
      "start": 90.8281,
      "duration": 0.2883,
      "velocity": 97,
      "chip": "ym2612"
    },
    {
      "channel": 2,
      "note": 81,
      "start": 90.9805,
      "duration": 0.0689,
      "velocity": 119,
      "chip": "ym2612"
    },
    {
      "channel": 0,
      "note": 91,
      "start": 91.1332,
      "duration": 0.2996,
      "velocity": 101,
      "chip": "ym2612"
    },
    {
      "channel": 1,
      "note": 60,
      "start": 91.134,
      "duration": 0.8999,
      "velocity": 101,
      "chip": "ym2612"
    },
    {
      "channel": 2,
      "note": 44,
      "start": 91.1379,
      "duration": 0.2776,
      "velocity": 101,
      "chip": "ym2612"
    },
    {
      "channel": 3,
      "note": 64,
      "start": 91.1387,
      "duration": 0.2944,
      "velocity": 97,
      "chip": "ym2612"
    },
    {
      "channel": 0,
      "note": 93,
      "start": 91.4339,
      "duration": 0.299,
      "velocity": 101,
      "chip": "ym2612"
    },
    {
      "channel": 3,
      "note": 67,
      "start": 91.4347,
      "duration": 0.2985,
      "velocity": 97,
      "chip": "ym2612"
    },
    {
      "channel": 2,
      "note": 81,
      "start": 91.5826,
      "duration": 0.0831,
      "velocity": 119,
      "chip": "ym2612"
    },
    {
      "channel": 0,
      "note": 91,
      "start": 91.7428,
      "duration": 0.2915,
      "velocity": 101,
      "chip": "ym2612"
    },
    {
      "channel": 2,
      "note": 81,
      "start": 91.7434,
      "duration": 0.0695,
      "velocity": 119,
      "chip": "ym2612"
    },
    {
      "channel": 3,
      "note": 72,
      "start": 91.7442,
      "duration": 0.2817,
      "velocity": 97,
      "chip": "ym2612"
    },
    {
      "channel": 0,
      "note": 90,
      "start": 92.0428,
      "duration": 0.4495,
      "velocity": 101,
      "chip": "ym2612"
    },
    {
      "channel": 2,
      "note": 81,
      "start": 92.0442,
      "duration": 0.0188,
      "velocity": 119,
      "chip": "ym2612"
    },
    {
      "channel": 3,
      "note": 74,
      "start": 92.045,
      "duration": 0.2976,
      "velocity": 97,
      "chip": "ym2612"
    },
    {
      "channel": 2,
      "note": 81,
      "start": 92.0799,
      "duration": 0.0154,
      "velocity": 119,
      "chip": "ym2612"
    },
    {
      "channel": 2,
      "note": 81,
      "start": 92.1131,
      "duration": 0.016,
      "velocity": 119,
      "chip": "ym2612"
    },
    {
      "channel": 2,
      "note": 81,
      "start": 92.1595,
      "duration": 0.0163,
      "velocity": 119,
      "chip": "ym2612"
    },
    {
      "channel": 2,
      "note": 81,
      "start": 92.1988,
      "duration": 0.0156,
      "velocity": 119,
      "chip": "ym2612"
    },
    {
      "channel": 2,
      "note": 81,
      "start": 92.2305,
      "duration": 0.0166,
      "velocity": 119,
      "chip": "ym2612"
    },
    {
      "channel": 2,
      "note": 81,
      "start": 92.266,
      "duration": 0.0265,
      "velocity": 119,
      "chip": "ym2612"
    },
    {
      "channel": 2,
      "note": 81,
      "start": 92.3095,
      "duration": 0.0165,
      "velocity": 119,
      "chip": "ym2612"
    },
    {
      "channel": 2,
      "note": 81,
      "start": 92.3513,
      "duration": 0.0122,
      "velocity": 119,
      "chip": "ym2612"
    },
    {
      "channel": 3,
      "note": 69,
      "start": 92.352,
      "duration": 0.2906,
      "velocity": 97,
      "chip": "ym2612"
    },
    {
      "channel": 2,
      "note": 81,
      "start": 92.3807,
      "duration": 0.0178,
      "velocity": 119,
      "chip": "ym2612"
    },
    {
      "channel": 2,
      "note": 81,
      "start": 92.4267,
      "duration": 0.0158,
      "velocity": 119,
      "chip": "ym2612"
    },
    {
      "channel": 2,
      "note": 81,
      "start": 92.4597,
      "duration": 0.0214,
      "velocity": 119,
      "chip": "ym2612"
    },
    {
      "channel": 0,
      "note": 88,
      "start": 92.4972,
      "duration": 0.1451,
      "velocity": 101,
      "chip": "ym2612"
    },
    {
      "channel": 2,
      "note": 81,
      "start": 92.4985,
      "duration": 0.0774,
      "velocity": 119,
      "chip": "ym2612"
    },
    {
      "channel": 0,
      "note": 86,
      "start": 92.6484,
      "duration": 0.1454,
      "velocity": 101,
      "chip": "ym2612"
    },
    {
      "channel": 1,
      "note": 55,
      "start": 92.6491,
      "duration": 0.281,
      "velocity": 101,
      "chip": "ym2612"
    },
    {
      "channel": 2,
      "note": 81,
      "start": 92.6497,
      "duration": 0.0763,
      "velocity": 119,
      "chip": "ym2612"
    },
    {
      "channel": 3,
      "note": 66,
      "start": 92.6504,
      "duration": 0.28,
      "velocity": 97,
      "chip": "ym2612"
    },
    {
      "channel": 0,
      "note": 90,
      "start": 92.7947,
      "duration": 0.1531,
      "velocity": 101,
      "chip": "ym2612"
    },
    {
      "channel": 0,
      "note": 88,
      "start": 92.9488,
      "duration": 1.6629,
      "velocity": 101,
      "chip": "ym2612"
    },
    {
      "channel": 1,
      "note": 60,
      "start": 92.9496,
      "duration": 0.8997,
      "velocity": 101,
      "chip": "ym2612"
    },
    {
      "channel": 2,
      "note": 44,
      "start": 92.9535,
      "duration": 0.289,
      "velocity": 101,
      "chip": "ym2612"
    },
    {
      "channel": 3,
      "note": 64,
      "start": 92.9543,
      "duration": 0.296,
      "velocity": 97,
      "chip": "ym2612"
    },
    {
      "channel": 3,
      "note": 67,
      "start": 93.2599,
      "duration": 0.2994,
      "velocity": 97,
      "chip": "ym2612"
    },
    {
      "channel": 2,
      "note": 81,
      "start": 93.4128,
      "duration": 0.0695,
      "velocity": 119,
      "chip": "ym2612"
    },
    {
      "channel": 2,
      "note": 81,
      "start": 93.5663,
      "duration": 0.0761,
      "velocity": 119,
      "chip": "ym2612"
    },
    {
      "channel": 3,
      "note": 72,
      "start": 93.5671,
      "duration": 0.2819,
      "velocity": 97,
      "chip": "ym2612"
    },
    {
      "channel": 2,
      "note": 81,
      "start": 93.8697,
      "duration": 0.0127,
      "velocity": 119,
      "chip": "ym2612"
    },
    {
      "channel": 3,
      "note": 76,
      "start": 93.8704,
      "duration": 0.2978,
      "velocity": 97,
      "chip": "ym2612"
    },
    {
      "channel": 2,
      "note": 81,
      "start": 93.9001,
      "duration": 0.0259,
      "velocity": 119,
      "chip": "ym2612"
    },
    {
      "channel": 2,
      "note": 81,
      "start": 93.9433,
      "duration": 0.02,
      "velocity": 119,
      "chip": "ym2612"
    },
    {
      "channel": 2,
      "note": 81,
      "start": 93.9831,
      "duration": 0.016,
      "velocity": 119,
      "chip": "ym2612"
    },
    {
      "channel": 2,
      "note": 81,
      "start": 94.0165,
      "duration": 0.016,
      "velocity": 119,
      "chip": "ym2612"
    },
    {
      "channel": 2,
      "note": 81,
      "start": 94.0602,
      "duration": 0.0155,
      "velocity": 119,
      "chip": "ym2612"
    },
    {
      "channel": 2,
      "note": 81,
      "start": 94.0969,
      "duration": 0.0186,
      "velocity": 119,
      "chip": "ym2612"
    },
    {
      "channel": 2,
      "note": 81,
      "start": 94.1327,
      "duration": 0.0163,
      "velocity": 119,
      "chip": "ym2612"
    },
    {
      "channel": 2,
      "note": 81,
      "start": 94.1696,
      "duration": 0.0793,
      "velocity": 119,
      "chip": "ym2612"
    },
    {
      "channel": 3,
      "note": 72,
      "start": 94.1703,
      "duration": 0.2961,
      "velocity": 97,
      "chip": "ym2612"
    },
    {
      "channel": 2,
      "note": 81,
      "start": 94.3261,
      "duration": 0.0728,
      "velocity": 119,
      "chip": "ym2612"
    },
    {
      "channel": 1,
      "note": 55,
      "start": 94.4761,
      "duration": 0.2829,
      "velocity": 101,
      "chip": "ym2612"
    },
    {
      "channel": 2,
      "note": 81,
      "start": 94.4768,
      "duration": 0.0693,
      "velocity": 119,
      "chip": "ym2612"
    },
    {
      "channel": 3,
      "note": 67,
      "start": 94.4775,
      "duration": 0.2818,
      "velocity": 97,
      "chip": "ym2612"
    },
    {
      "channel": 2,
      "note": 81,
      "start": 94.6261,
      "duration": 0.0732,
      "velocity": 119,
      "chip": "ym2612"
    },
    {
      "channel": 0,
      "note": 88,
      "start": 94.7874,
      "duration": 0.5943,
      "velocity": 101,
      "chip": "ym2612"
    },
    {
      "channel": 1,
      "note": 65,
      "start": 94.7882,
      "duration": 0.8941,
      "velocity": 101,
      "chip": "ym2612"
    },
    {
      "channel": 2,
      "note": 97,
      "start": 94.7926,
      "duration": 0.4333,
      "velocity": 119,
      "chip": "ym2612"
    },
    {
      "channel": 3,
      "note": 65,
      "start": 94.7934,
      "duration": 0.2824,
      "velocity": 97,
      "chip": "ym2612"
    },
    {
      "channel": 3,
      "note": 69,
      "start": 95.0837,
      "duration": 0.2976,
      "velocity": 97,
      "chip": "ym2612"
    },
    {
      "channel": 2,
      "note": 81,
      "start": 95.2344,
      "duration": 0.0748,
      "velocity": 119,
      "chip": "ym2612"
    },
    {
      "channel": 0,
      "note": 86,
      "start": 95.3821,
      "duration": 0.3106,
      "velocity": 101,
      "chip": "ym2612"
    },
    {
      "channel": 2,
      "note": 81,
      "start": 95.3827,
      "duration": 0.0802,
      "velocity": 119,
      "chip": "ym2612"
    },
    {
      "channel": 3,
      "note": 72,
      "start": 95.3834,
      "duration": 0.2924,
      "velocity": 97,
      "chip": "ym2612"
    },
    {
      "channel": 0,
      "note": 81,
      "start": 95.693,
      "duration": 2.0045,
      "velocity": 101,
      "chip": "ym2612"
    },
    {
      "channel": 2,
      "note": 81,
      "start": 95.6945,
      "duration": 0.0146,
      "velocity": 119,
      "chip": "ym2612"
    },
    {
      "channel": 3,
      "note": 76,
      "start": 95.6952,
      "duration": 0.2976,
      "velocity": 97,
      "chip": "ym2612"
    },
    {
      "channel": 2,
      "note": 81,
      "start": 95.7298,
      "duration": 0.0155,
      "velocity": 119,
      "chip": "ym2612"
    },
    {
      "channel": 2,
      "note": 81,
      "start": 95.7627,
      "duration": 0.0162,
      "velocity": 119,
      "chip": "ym2612"
    },
    {
      "channel": 2,
      "note": 81,
      "start": 95.7961,
      "duration": 0.0297,
      "velocity": 119,
      "chip": "ym2612"
    },
    {
      "channel": 2,
      "note": 81,
      "start": 95.8433,
      "duration": 0.0196,
      "velocity": 119,
      "chip": "ym2612"
    },
    {
      "channel": 2,
      "note": 81,
      "start": 95.8789,
      "duration": 0.0164,
      "velocity": 119,
      "chip": "ym2612"
    },
    {
      "channel": 2,
      "note": 81,
      "start": 95.9131,
      "duration": 0.0158,
      "velocity": 119,
      "chip": "ym2612"
    },
    {
      "channel": 2,
      "note": 81,
      "start": 95.9594,
      "duration": 0.0163,
      "velocity": 119,
      "chip": "ym2612"
    },
    {
      "channel": 2,
      "note": 81,
      "start": 96.0001,
      "duration": 0.012,
      "velocity": 119,
      "chip": "ym2612"
    },
    {
      "channel": 3,
      "note": 72,
      "start": 96.0008,
      "duration": 0.2919,
      "velocity": 97,
      "chip": "ym2612"
    },
    {
      "channel": 2,
      "note": 81,
      "start": 96.0288,
      "duration": 0.0168,
      "velocity": 119,
      "chip": "ym2612"
    },
    {
      "channel": 2,
      "note": 81,
      "start": 96.0631,
      "duration": 0.0296,
      "velocity": 119,
      "chip": "ym2612"
    },
    {
      "channel": 2,
      "note": 81,
      "start": 96.1095,
      "duration": 0.0163,
      "velocity": 119,
      "chip": "ym2612"
    },
    {
      "channel": 2,
      "note": 81,
      "start": 96.1462,
      "duration": 0.0797,
      "velocity": 119,
      "chip": "ym2612"
    },
    {
      "channel": 1,
      "note": 60,
      "start": 96.2985,
      "duration": 0.2826,
      "velocity": 101,
      "chip": "ym2612"
    },
    {
      "channel": 2,
      "note": 81,
      "start": 96.2991,
      "duration": 0.0767,
      "velocity": 119,
      "chip": "ym2612"
    },
    {
      "channel": 3,
      "note": 69,
      "start": 96.2999,
      "duration": 0.2816,
      "velocity": 97,
      "chip": "ym2612"
    },
    {
      "channel": 1,
      "note": 65,
      "start": 96.6008,
      "duration": 0.9014,
      "velocity": 101,
      "chip": "ym2612"
    },
    {
      "channel": 2,
      "note": 44,
      "start": 96.6048,
      "duration": 0.2767,
      "velocity": 101,
      "chip": "ym2612"
    },
    {
      "channel": 3,
      "note": 65,
      "start": 96.6056,
      "duration": 0.2943,
      "velocity": 97,
      "chip": "ym2612"
    },
    {
      "channel": 3,
      "note": 69,
      "start": 96.9097,
      "duration": 0.2916,
      "velocity": 97,
      "chip": "ym2612"
    },
    {
      "channel": 2,
      "note": 81,
      "start": 97.0628,
      "duration": 0.0687,
      "velocity": 119,
      "chip": "ym2612"
    },
    {
      "channel": 2,
      "note": 81,
      "start": 97.2095,
      "duration": 0.072,
      "velocity": 119,
      "chip": "ym2612"
    },
    {
      "channel": 3,
      "note": 72,
      "start": 97.2102,
      "duration": 0.2917,
      "velocity": 97,
      "chip": "ym2612"
    },
    {
      "channel": 2,
      "note": 81,
      "start": 97.5184,
      "duration": 0.0127,
      "velocity": 119,
      "chip": "ym2612"
    },
    {
      "channel": 3,
      "note": 76,
      "start": 97.5192,
      "duration": 0.298,
      "velocity": 97,
      "chip": "ym2612"
    },
    {
      "channel": 2,
      "note": 81,
      "start": 97.549,
      "duration": 0.0268,
      "velocity": 119,
      "chip": "ym2612"
    },
    {
      "channel": 2,
      "note": 81,
      "start": 97.5936,
      "duration": 0.0155,
      "velocity": 119,
      "chip": "ym2612"
    },
    {
      "channel": 2,
      "note": 81,
      "start": 97.6331,
      "duration": 0.0148,
      "velocity": 119,
      "chip": "ym2612"
    },
    {
      "channel": 2,
      "note": 81,
      "start": 97.6653,
      "duration": 0.0161,
      "velocity": 119,
      "chip": "ym2612"
    },
    {
      "channel": 2,
      "note": 81,
      "start": 97.6986,
      "duration": 0.0272,
      "velocity": 119,
      "chip": "ym2612"
    },
    {
      "channel": 2,
      "note": 81,
      "start": 97.7427,
      "duration": 0.0228,
      "velocity": 119,
      "chip": "ym2612"
    },
    {
      "channel": 2,
      "note": 81,
      "start": 97.7815,
      "duration": 0.0164,
      "velocity": 119,
      "chip": "ym2612"
    },
    {
      "channel": 0,
      "note": 84,
      "start": 97.8179,
      "duration": 0.3078,
      "velocity": 101,
      "chip": "ym2612"
    },
    {
      "channel": 1,
      "note": 65,
      "start": 97.8186,
      "duration": 0.2782,
      "velocity": 101,
      "chip": "ym2612"
    },
    {
      "channel": 2,
      "note": 81,
      "start": 97.8198,
      "duration": 0.0741,
      "velocity": 119,
      "chip": "ym2612"
    },
    {
      "channel": 3,
      "note": 72,
      "start": 97.8205,
      "duration": 0.2942,
      "velocity": 97,
      "chip": "ym2612"
    },
    {
      "channel": 2,
      "note": 81,
      "start": 97.9611,
      "duration": 0.0852,
      "velocity": 119,
      "chip": "ym2612"
    },
    {
      "channel": 0,
      "note": 86,
      "start": 98.1261,
      "duration": 0.2996,
      "velocity": 101,
      "chip": "ym2612"
    },
    {
      "channel": 1,
      "note": 60,
      "start": 98.1268,
      "duration": 0.2822,
      "velocity": 101,
      "chip": "ym2612"
    },
    {
      "channel": 2,
      "note": 81,
      "start": 98.1274,
      "duration": 0.0665,
      "velocity": 119,
      "chip": "ym2612"
    },
    {
      "channel": 3,
      "note": 69,
      "start": 98.1282,
      "duration": 0.2811,
      "velocity": 97,
      "chip": "ym2612"
    },
    {
      "channel": 2,
      "note": 81,
      "start": 98.2761,
      "duration": 0.0701,
      "velocity": 119,
      "chip": "ym2612"
    },
    {
      "channel": 0,
      "note": 88,
      "start": 98.4261,
      "duration": 0.6055,
      "velocity": 101,
      "chip": "ym2612"
    },
    {
      "channel": 1,
      "note": 58,
      "start": 98.4269,
      "duration": 0.8988,
      "velocity": 101,
      "chip": "ym2612"
    },
    {
      "channel": 2,
      "note": 44,
      "start": 98.4308,
      "duration": 0.2838,
      "velocity": 101,
      "chip": "ym2612"
    },
    {
      "channel": 3,
      "note": 65,
      "start": 98.4317,
      "duration": 0.2941,
      "velocity": 97,
      "chip": "ym2612"
    },
    {
      "channel": 3,
      "note": 69,
      "start": 98.7317,
      "duration": 0.2996,
      "velocity": 97,
      "chip": "ym2612"
    },
    {
      "channel": 2,
      "note": 81,
      "start": 98.8822,
      "duration": 0.077,
      "velocity": 119,
      "chip": "ym2612"
    },
    {
      "channel": 0,
      "note": 86,
      "start": 99.0321,
      "duration": 0.3104,
      "velocity": 101,
      "chip": "ym2612"
    },
    {
      "channel": 2,
      "note": 81,
      "start": 99.0327,
      "duration": 0.0765,
      "velocity": 119,
      "chip": "ym2612"
    },
    {
      "channel": 3,
      "note": 74,
      "start": 99.0334,
      "duration": 0.28,
      "velocity": 97,
      "chip": "ym2612"
    },
    {
      "channel": 0,
      "note": 81,
      "start": 99.3428,
      "duration": 1.7048,
      "velocity": 101,
      "chip": "ym2612"
    },
    {
      "channel": 2,
      "note": 81,
      "start": 99.3442,
      "duration": 0.015,
      "velocity": 119,
      "chip": "ym2612"
    },
    {
      "channel": 3,
      "note": 77,
      "start": 99.345,
      "duration": 0.2877,
      "velocity": 97,
      "chip": "ym2612"
    },
    {
      "channel": 2,
      "note": 81,
      "start": 99.3761,
      "duration": 0.0193,
      "velocity": 119,
      "chip": "ym2612"
    },
    {
      "channel": 2,
      "note": 81,
      "start": 99.4127,
      "duration": 0.0158,
      "velocity": 119,
      "chip": "ym2612"
    },
    {
      "channel": 2,
      "note": 81,
      "start": 99.447,
      "duration": 0.0288,
      "velocity": 119,
      "chip": "ym2612"
    },
    {
      "channel": 2,
      "note": 81,
      "start": 99.4936,
      "duration": 0.0155,
      "velocity": 119,
      "chip": "ym2612"
    },
    {
      "channel": 2,
      "note": 81,
      "start": 99.5288,
      "duration": 0.0164,
      "velocity": 119,
      "chip": "ym2612"
    },
    {
      "channel": 2,
      "note": 81,
      "start": 99.5627,
      "duration": 0.0174,
      "velocity": 119,
      "chip": "ym2612"
    },
    {
      "channel": 2,
      "note": 81,
      "start": 99.5971,
      "duration": 0.0288,
      "velocity": 119,
      "chip": "ym2612"
    },
    {
      "channel": 2,
      "note": 81,
      "start": 99.6433,
      "duration": 0.0185,
      "velocity": 119,
      "chip": "ym2612"
    },
    {
      "channel": 3,
      "note": 74,
      "start": 99.6441,
      "duration": 0.2985,
      "velocity": 97,
      "chip": "ym2612"
    },
    {
      "channel": 2,
      "note": 81,
      "start": 99.6788,
      "duration": 0.0166,
      "velocity": 119,
      "chip": "ym2612"
    },
    {
      "channel": 2,
      "note": 81,
      "start": 99.7142,
      "duration": 0.0156,
      "velocity": 119,
      "chip": "ym2612"
    },
    {
      "channel": 2,
      "note": 81,
      "start": 99.7595,
      "duration": 0.0163,
      "velocity": 119,
      "chip": "ym2612"
    },
    {
      "channel": 2,
      "note": 81,
      "start": 99.7962,
      "duration": 0.067,
      "velocity": 119,
      "chip": "ym2612"
    },
    {
      "channel": 1,
      "note": 53,
      "start": 99.9482,
      "duration": 0.2829,
      "velocity": 101,
      "chip": "ym2612"
    },
    {
      "channel": 2,
      "note": 81,
      "start": 99.9488,
      "duration": 0.0771,
      "velocity": 119,
      "chip": "ym2612"
    },
    {
      "channel": 3,
      "note": 69,
      "start": 99.9495,
      "duration": 0.2819,
      "velocity": 97,
      "chip": "ym2612"
    },
    {
      "channel": 1,
      "note": 58,
      "start": 100.2503,
      "duration": 0.9013,
      "velocity": 101,
      "chip": "ym2612"
    },
    {
      "channel": 2,
      "note": 44,
      "start": 100.2543,
      "duration": 0.2772,
      "velocity": 101,
      "chip": "ym2612"
    },
    {
      "channel": 3,
      "note": 65,
      "start": 100.2551,
      "duration": 0.2946,
      "velocity": 97,
      "chip": "ym2612"
    },
    {
      "channel": 3,
      "note": 69,
      "start": 100.5506,
      "duration": 0.3004,
      "velocity": 97,
      "chip": "ym2612"
    },
    {
      "channel": 2,
      "note": 81,
      "start": 100.7128,
      "duration": 0.0683,
      "velocity": 119,
      "chip": "ym2612"
    },
    {
      "channel": 2,
      "note": 81,
      "start": 100.8595,
      "duration": 0.072,
      "velocity": 119,
      "chip": "ym2612"
    },
    {
      "channel": 3,
      "note": 74,
      "start": 100.8602,
      "duration": 0.2824,
      "velocity": 97,
      "chip": "ym2612"
    },
    {
      "channel": 0,
      "note": 81,
      "start": 101.1678,
      "duration": 0.2977,
      "velocity": 101,
      "chip": "ym2612"
    },
    {
      "channel": 2,
      "note": 81,
      "start": 101.1693,
      "duration": 0.0102,
      "velocity": 119,
      "chip": "ym2612"
    },
    {
      "channel": 3,
      "note": 77,
      "start": 101.17,
      "duration": 0.2893,
      "velocity": 97,
      "chip": "ym2612"
    },
    {
      "channel": 2,
      "note": 81,
      "start": 101.1973,
      "duration": 0.0151,
      "velocity": 119,
      "chip": "ym2612"
    },
    {
      "channel": 2,
      "note": 81,
      "start": 101.2434,
      "duration": 0.0158,
      "velocity": 119,
      "chip": "ym2612"
    },
    {
      "channel": 2,
      "note": 81,
      "start": 101.2766,
      "duration": 0.0197,
      "velocity": 119,
      "chip": "ym2612"
    },
    {
      "channel": 2,
      "note": 81,
      "start": 101.3137,
      "duration": 0.0158,
      "velocity": 119,
      "chip": "ym2612"
    },
    {
      "channel": 2,
      "note": 81,
      "start": 101.3466,
      "duration": 0.0293,
      "velocity": 119,
      "chip": "ym2612"
    },
    {
      "channel": 2,
      "note": 81,
      "start": 101.393,
      "duration": 0.0161,
      "velocity": 119,
      "chip": "ym2612"
    },
    {
      "channel": 2,
      "note": 81,
      "start": 101.4298,
      "duration": 0.0163,
      "velocity": 119,
      "chip": "ym2612"
    },
    {
      "channel": 0,
      "note": 84,
      "start": 101.4659,
      "duration": 0.299,
      "velocity": 101,
      "chip": "ym2612"
    },
    {
      "channel": 2,
      "note": 81,
      "start": 101.4671,
      "duration": 0.0753,
      "velocity": 119,
      "chip": "ym2612"
    },
    {
      "channel": 3,
      "note": 74,
      "start": 101.4678,
      "duration": 0.2968,
      "velocity": 97,
      "chip": "ym2612"
    },
    {
      "channel": 2,
      "note": 81,
      "start": 101.6127,
      "duration": 0.0835,
      "velocity": 119,
      "chip": "ym2612"
    },
    {
      "channel": 0,
      "note": 91,
      "start": 101.7653,
      "duration": 0.3104,
      "velocity": 101,
      "chip": "ym2612"
    },
    {
      "channel": 1,
      "note": 53,
      "start": 101.766,
      "duration": 0.2931,
      "velocity": 101,
      "chip": "ym2612"
    },
    {
      "channel": 2,
      "note": 81,
      "start": 101.7666,
      "duration": 0.0771,
      "velocity": 119,
      "chip": "ym2612"
    },
    {
      "channel": 3,
      "note": 69,
      "start": 101.7673,
      "duration": 0.292,
      "velocity": 97,
      "chip": "ym2612"
    },
    {
      "channel": 2,
      "note": 81,
      "start": 101.9261,
      "duration": 0.0701,
      "velocity": 119,
      "chip": "ym2612"
    },
    {
      "channel": 0,
      "note": 88,
      "start": 102.0761,
      "duration": 3.1549,
      "velocity": 101,
      "chip": "ym2612"
    },
    {
      "channel": 1,
      "note": 57,
      "start": 102.077,
      "duration": 0.8987,
      "velocity": 101,
      "chip": "ym2612"
    },
    {
      "channel": 2,
      "note": 44,
      "start": 102.0811,
      "duration": 0.278,
      "velocity": 101,
      "chip": "ym2612"
    },
    {
      "channel": 3,
      "note": 64,
      "start": 102.3817,
      "duration": 0.2942,
      "velocity": 97,
      "chip": "ym2612"
    },
    {
      "channel": 2,
      "note": 81,
      "start": 102.5322,
      "duration": 0.077,
      "velocity": 119,
      "chip": "ym2612"
    },
    {
      "channel": 2,
      "note": 81,
      "start": 102.6816,
      "duration": 0.0776,
      "velocity": 119,
      "chip": "ym2612"
    },
    {
      "channel": 3,
      "note": 69,
      "start": 102.6823,
      "duration": 0.2828,
      "velocity": 97,
      "chip": "ym2612"
    },
    {
      "channel": 2,
      "note": 81,
      "start": 102.9854,
      "duration": 0.0237,
      "velocity": 119,
      "chip": "ym2612"
    },
    {
      "channel": 3,
      "note": 73,
      "start": 102.9862,
      "duration": 0.2982,
      "velocity": 97,
      "chip": "ym2612"
    },
    {
      "channel": 2,
      "note": 81,
      "start": 103.0261,
      "duration": 0.0163,
      "velocity": 119,
      "chip": "ym2612"
    },
    {
      "channel": 2,
      "note": 81,
      "start": 103.0652,
      "duration": 0.0159,
      "velocity": 119,
      "chip": "ym2612"
    },
    {
      "channel": 2,
      "note": 81,
      "start": 103.0983,
      "duration": 0.0166,
      "velocity": 119,
      "chip": "ym2612"
    },
    {
      "channel": 2,
      "note": 81,
      "start": 103.1434,
      "duration": 0.0158,
      "velocity": 119,
      "chip": "ym2612"
    },
    {
      "channel": 2,
      "note": 81,
      "start": 103.1761,
      "duration": 0.0216,
      "velocity": 119,
      "chip": "ym2612"
    },
    {
      "channel": 2,
      "note": 81,
      "start": 103.2153,
      "duration": 0.016,
      "velocity": 119,
      "chip": "ym2612"
    },
    {
      "channel": 2,
      "note": 81,
      "start": 103.2485,
      "duration": 0.0273,
      "velocity": 119,
      "chip": "ym2612"
    },
    {
      "channel": 2,
      "note": 81,
      "start": 103.2935,
      "duration": 0.0156,
      "velocity": 119,
      "chip": "ym2612"
    },
    {
      "channel": 3,
      "note": 69,
      "start": 103.2943,
      "duration": 0.2983,
      "velocity": 97,
      "chip": "ym2612"
    },
    {
      "channel": 2,
      "note": 81,
      "start": 103.3313,
      "duration": 0.0165,
      "velocity": 119,
      "chip": "ym2612"
    },
    {
      "channel": 2,
      "note": 81,
      "start": 103.3655,
      "duration": 0.016,
      "velocity": 119,
      "chip": "ym2612"
    },
    {
      "channel": 2,
      "note": 81,
      "start": 103.3984,
      "duration": 0.0274,
      "velocity": 119,
      "chip": "ym2612"
    },
    {
      "channel": 2,
      "note": 81,
      "start": 103.4434,
      "duration": 0.0715,
      "velocity": 119,
      "chip": "ym2612"
    },
    {
      "channel": 1,
      "note": 52,
      "start": 103.6008,
      "duration": 0.2814,
      "velocity": 101,
      "chip": "ym2612"
    },
    {
      "channel": 2,
      "note": 81,
      "start": 103.6014,
      "duration": 0.0609,
      "velocity": 119,
      "chip": "ym2612"
    },
    {
      "channel": 3,
      "note": 64,
      "start": 103.6021,
      "duration": 0.2804,
      "velocity": 97,
      "chip": "ym2612"
    },
    {
      "channel": 1,
      "note": 57,
      "start": 103.9003,
      "duration": 0.9013,
      "velocity": 101,
      "chip": "ym2612"
    },
    {
      "channel": 2,
      "note": 44,
      "start": 103.9042,
      "duration": 0.2796,
      "velocity": 101,
      "chip": "ym2612"
    },
    {
      "channel": 3,
      "note": 64,
      "start": 104.2002,
      "duration": 0.3003,
      "velocity": 97,
      "chip": "ym2612"
    },
    {
      "channel": 2,
      "note": 81,
      "start": 104.3509,
      "duration": 0.0803,
      "velocity": 119,
      "chip": "ym2612"
    },
    {
      "channel": 2,
      "note": 81,
      "start": 104.5095,
      "duration": 0.0717,
      "velocity": 119,
      "chip": "ym2612"
    },
    {
      "channel": 3,
      "note": 69,
      "start": 104.5102,
      "duration": 0.2823,
      "velocity": 97,
      "chip": "ym2612"
    },
    {
      "channel": 2,
      "note": 81,
      "start": 104.8104,
      "duration": 0.0207,
      "velocity": 119,
      "chip": "ym2612"
    },
    {
      "channel": 3,
      "note": 75,
      "start": 104.8112,
      "duration": 0.298,
      "velocity": 97,
      "chip": "ym2612"
    },
    {
      "channel": 2,
      "note": 81,
      "start": 104.8487,
      "duration": 0.0153,
      "velocity": 119,
      "chip": "ym2612"
    },
    {
      "channel": 2,
      "note": 81,
      "start": 104.8814,
      "duration": 0.0277,
      "velocity": 119,
      "chip": "ym2612"
    },
    {
      "channel": 2,
      "note": 81,
      "start": 104.9267,
      "duration": 0.0157,
      "velocity": 119,
      "chip": "ym2612"
    },
    {
      "channel": 2,
      "note": 81,
      "start": 104.9654,
      "duration": 0.0158,
      "velocity": 119,
      "chip": "ym2612"
    },
    {
      "channel": 2,
      "note": 81,
      "start": 104.9977,
      "duration": 0.0161,
      "velocity": 119,
      "chip": "ym2612"
    },
    {
      "channel": 2,
      "note": 81,
      "start": 105.0427,
      "duration": 0.0164,
      "velocity": 119,
      "chip": "ym2612"
    },
    {
      "channel": 2,
      "note": 81,
      "start": 105.0761,
      "duration": 0.0244,
      "velocity": 119,
      "chip": "ym2612"
    },
    {
      "channel": 2,
      "note": 81,
      "start": 105.118,
      "duration": 0.0744,
      "velocity": 119,
      "chip": "ym2612"
    },
    {
      "channel": 3,
      "note": 71,
      "start": 105.1188,
      "duration": 0.2957,
      "velocity": 97,
      "chip": "ym2612"
    },
    {
      "channel": 0,
      "note": 88,
      "start": 105.2638,
      "duration": 0.1155,
      "velocity": 101,
      "chip": "ym2612"
    },
    {
      "channel": 2,
      "note": 81,
      "start": 105.2644,
      "duration": 0.078,
      "velocity": 119,
      "chip": "ym2612"
    },
    {
      "channel": 0,
      "note": 87,
      "start": 105.4153,
      "duration": 0.1115,
      "velocity": 101,
      "chip": "ym2612"
    },
    {
      "channel": 1,
      "note": 52,
      "start": 105.416,
      "duration": 0.2805,
      "velocity": 101,
      "chip": "ym2612"
    },
    {
      "channel": 2,
      "note": 81,
      "start": 105.4166,
      "duration": 0.0771,
      "velocity": 119,
      "chip": "ym2612"
    },
    {
      "channel": 3,
      "note": 66,
      "start": 105.4173,
      "duration": 0.2795,
      "velocity": 97,
      "chip": "ym2612"
    },
    {
      "channel": 0,
      "note": 90,
      "start": 105.5611,
      "duration": 0.1186,
      "velocity": 101,
      "chip": "ym2612"
    },
    {
      "channel": 2,
      "note": 81,
      "start": 105.5617,
      "duration": 0.0846,
      "velocity": 119,
      "chip": "ym2612"
    },
    {
      "channel": 0,
      "note": 88,
      "start": 105.7261,
      "duration": 3.1495,
      "velocity": 101,
      "chip": "ym2612"
    },
    {
      "channel": 1,
      "note": 57,
      "start": 105.7269,
      "duration": 0.8988,
      "velocity": 101,
      "chip": "ym2612"
    },
    {
      "channel": 2,
      "note": 44,
      "start": 105.7309,
      "duration": 0.2783,
      "velocity": 101,
      "chip": "ym2612"
    },
    {
      "channel": 3,
      "note": 64,
      "start": 106.0263,
      "duration": 0.2996,
      "velocity": 97,
      "chip": "ym2612"
    },
    {
      "channel": 2,
      "note": 81,
      "start": 106.1822,
      "duration": 0.0644,
      "velocity": 119,
      "chip": "ym2612"
    },
    {
      "channel": 2,
      "note": 81,
      "start": 106.3315,
      "duration": 0.0776,
      "velocity": 119,
      "chip": "ym2612"
    },
    {
      "channel": 3,
      "note": 69,
      "start": 106.3322,
      "duration": 0.2825,
      "velocity": 97,
      "chip": "ym2612"
    },
    {
      "channel": 2,
      "note": 81,
      "start": 106.6354,
      "duration": 0.0127,
      "velocity": 119,
      "chip": "ym2612"
    },
    {
      "channel": 3,
      "note": 73,
      "start": 106.6362,
      "duration": 0.2977,
      "velocity": 97,
      "chip": "ym2612"
    },
    {
      "channel": 2,
      "note": 81,
      "start": 106.6761,
      "duration": 0.0163,
      "velocity": 119,
      "chip": "ym2612"
    },
    {
      "channel": 2,
      "note": 81,
      "start": 106.71,
      "duration": 0.0211,
      "velocity": 119,
      "chip": "ym2612"
    },
    {
      "channel": 2,
      "note": 81,
      "start": 106.7483,
      "duration": 0.0166,
      "velocity": 119,
      "chip": "ym2612"
    },
    {
      "channel": 2,
      "note": 81,
      "start": 106.7823,
      "duration": 0.0268,
      "velocity": 119,
      "chip": "ym2612"
    },
    {
      "channel": 2,
      "note": 81,
      "start": 106.8261,
      "duration": 0.0163,
      "velocity": 119,
      "chip": "ym2612"
    },
    {
      "channel": 2,
      "note": 81,
      "start": 106.8653,
      "duration": 0.016,
      "velocity": 119,
      "chip": "ym2612"
    },
    {
      "channel": 2,
      "note": 81,
      "start": 106.8981,
      "duration": 0.0167,
      "velocity": 119,
      "chip": "ym2612"
    },
    {
      "channel": 2,
      "note": 81,
      "start": 106.9435,
      "duration": 0.0156,
      "velocity": 119,
      "chip": "ym2612"
    },
    {
      "channel": 3,
      "note": 69,
      "start": 106.9443,
      "duration": 0.29,
      "velocity": 97,
      "chip": "ym2612"
    },
    {
      "channel": 2,
      "note": 81,
      "start": 106.9761,
      "duration": 0.0217,
      "velocity": 119,
      "chip": "ym2612"
    },
    {
      "channel": 2,
      "note": 81,
      "start": 107.0155,
      "duration": 0.0156,
      "velocity": 119,
      "chip": "ym2612"
    },
    {
      "channel": 2,
      "note": 81,
      "start": 107.0484,
      "duration": 0.0274,
      "velocity": 119,
      "chip": "ym2612"
    },
    {
      "channel": 2,
      "note": 81,
      "start": 107.0934,
      "duration": 0.0711,
      "velocity": 119,
      "chip": "ym2612"
    },
    {
      "channel": 1,
      "note": 52,
      "start": 107.2428,
      "duration": 0.2829,
      "velocity": 101,
      "chip": "ym2612"
    },
    {
      "channel": 2,
      "note": 81,
      "start": 107.2434,
      "duration": 0.0688,
      "velocity": 119,
      "chip": "ym2612"
    },
    {
      "channel": 3,
      "note": 64,
      "start": 107.2441,
      "duration": 0.2818,
      "velocity": 97,
      "chip": "ym2612"
    },
    {
      "channel": 1,
      "note": 57,
      "start": 107.5501,
      "duration": 0.9015,
      "velocity": 101,
      "chip": "ym2612"
    },
    {
      "channel": 2,
      "note": 44,
      "start": 107.554,
      "duration": 0.2796,
      "velocity": 101,
      "chip": "ym2612"
    },
    {
      "channel": 3,
      "note": 64,
      "start": 107.85,
      "duration": 0.3006,
      "velocity": 97,
      "chip": "ym2612"
    },
    {
      "channel": 2,
      "note": 81,
      "start": 108.0009,
      "duration": 0.0803,
      "velocity": 119,
      "chip": "ym2612"
    },
    {
      "channel": 2,
      "note": 81,
      "start": 108.1513,
      "duration": 0.0798,
      "velocity": 119,
      "chip": "ym2612"
    },
    {
      "channel": 3,
      "note": 69,
      "start": 108.1521,
      "duration": 0.2905,
      "velocity": 97,
      "chip": "ym2612"
    },
    {
      "channel": 2,
      "note": 81,
      "start": 108.4604,
      "duration": 0.0153,
      "velocity": 119,
      "chip": "ym2612"
    },
    {
      "channel": 3,
      "note": 75,
      "start": 108.4612,
      "duration": 0.298,
      "velocity": 97,
      "chip": "ym2612"
    },
    {
      "channel": 2,
      "note": 81,
      "start": 108.4987,
      "duration": 0.0148,
      "velocity": 119,
      "chip": "ym2612"
    },
    {
      "channel": 2,
      "note": 81,
      "start": 108.5314,
      "duration": 0.0168,
      "velocity": 119,
      "chip": "ym2612"
    },
    {
      "channel": 2,
      "note": 81,
      "start": 108.5767,
      "duration": 0.0158,
      "velocity": 119,
      "chip": "ym2612"
    },
    {
      "channel": 2,
      "note": 81,
      "start": 108.61,
      "duration": 0.0212,
      "velocity": 119,
      "chip": "ym2612"
    },
    {
      "channel": 2,
      "note": 81,
      "start": 108.6477,
      "duration": 0.0161,
      "velocity": 119,
      "chip": "ym2612"
    },
    {
      "channel": 2,
      "note": 81,
      "start": 108.6819,
      "duration": 0.0273,
      "velocity": 119,
      "chip": "ym2612"
    },
    {
      "channel": 2,
      "note": 81,
      "start": 108.7261,
      "duration": 0.0163,
      "velocity": 119,
      "chip": "ym2612"
    },
    {
      "channel": 2,
      "note": 81,
      "start": 108.768,
      "duration": 0.0744,
      "velocity": 119,
      "chip": "ym2612"
    },
    {
      "channel": 3,
      "note": 71,
      "start": 108.7688,
      "duration": 0.2903,
      "velocity": 97,
      "chip": "ym2612"
    },
    {
      "channel": 0,
      "note": 88,
      "start": 108.9138,
      "duration": 0.1155,
      "velocity": 101,
      "chip": "ym2612"
    },
    {
      "channel": 2,
      "note": 81,
      "start": 108.9144,
      "duration": 0.078,
      "velocity": 119,
      "chip": "ym2612"
    },
    {
      "channel": 0,
      "note": 87,
      "start": 109.0649,
      "duration": 0.112,
      "velocity": 101,
      "chip": "ym2612"
    },
    {
      "channel": 1,
      "note": 52,
      "start": 109.0656,
      "duration": 0.281,
      "velocity": 101,
      "chip": "ym2612"
    },
    {
      "channel": 2,
      "note": 81,
      "start": 109.0662,
      "duration": 0.0763,
      "velocity": 119,
      "chip": "ym2612"
    },
    {
      "channel": 3,
      "note": 66,
      "start": 109.0669,
      "duration": 0.2799,
      "velocity": 97,
      "chip": "ym2612"
    },
    {
      "channel": 0,
      "note": 90,
      "start": 109.2111,
      "duration": 0.1183,
      "velocity": 101,
      "chip": "ym2612"
    },
    {
      "channel": 2,
      "note": 81,
      "start": 109.2117,
      "duration": 0.0846,
      "velocity": 119,
      "chip": "ym2612"
    },
    {
      "channel": 0,
      "note": 88,
      "start": 109.3653,
      "duration": 3.4803,
      "velocity": 101,
      "chip": "ym2612"
    },
    {
      "channel": 1,
      "note": 57,
      "start": 109.3661,
      "duration": 0.8989,
      "velocity": 101,
      "chip": "ym2612"
    },
    {
      "channel": 2,
      "note": 44,
      "start": 109.3702,
      "duration": 0.289,
      "velocity": 101,
      "chip": "ym2612"
    },
    {
      "channel": 3,
      "note": 64,
      "start": 109.6763,
      "duration": 0.2996,
      "velocity": 97,
      "chip": "ym2612"
    },
    {
      "channel": 2,
      "note": 81,
      "start": 109.8295,
      "duration": 0.0671,
      "velocity": 119,
      "chip": "ym2612"
    },
    {
      "channel": 2,
      "note": 81,
      "start": 109.9815,
      "duration": 0.065,
      "velocity": 119,
      "chip": "ym2612"
    },
    {
      "channel": 3,
      "note": 69,
      "start": 109.9822,
      "duration": 0.2825,
      "velocity": 97,
      "chip": "ym2612"
    },
    {
      "channel": 2,
      "note": 81,
      "start": 110.2849,
      "duration": 0.0132,
      "velocity": 119,
      "chip": "ym2612"
    },
    {
      "channel": 3,
      "note": 73,
      "start": 110.2857,
      "duration": 0.2982,
      "velocity": 97,
      "chip": "ym2612"
    },
    {
      "channel": 2,
      "note": 81,
      "start": 110.3151,
      "duration": 0.0274,
      "velocity": 119,
      "chip": "ym2612"
    },
    {
      "channel": 2,
      "note": 81,
      "start": 110.36,
      "duration": 0.0157,
      "velocity": 119,
      "chip": "ym2612"
    },
    {
      "channel": 2,
      "note": 81,
      "start": 110.3983,
      "duration": 0.0162,
      "velocity": 119,
      "chip": "ym2612"
    },
    {
      "channel": 2,
      "note": 81,
      "start": 110.4323,
      "duration": 0.0159,
      "velocity": 119,
      "chip": "ym2612"
    },
    {
      "channel": 2,
      "note": 81,
      "start": 110.4761,
      "duration": 0.0164,
      "velocity": 119,
      "chip": "ym2612"
    },
    {
      "channel": 2,
      "note": 81,
      "start": 110.51,
      "duration": 0.0213,
      "velocity": 119,
      "chip": "ym2612"
    },
    {
      "channel": 2,
      "note": 81,
      "start": 110.5481,
      "duration": 0.0167,
      "velocity": 119,
      "chip": "ym2612"
    },
    {
      "channel": 2,
      "note": 81,
      "start": 110.5854,
      "duration": 0.0237,
      "velocity": 119,
      "chip": "ym2612"
    },
    {
      "channel": 3,
      "note": 69,
      "start": 110.5861,
      "duration": 0.2982,
      "velocity": 97,
      "chip": "ym2612"
    },
    {
      "channel": 2,
      "note": 81,
      "start": 110.6261,
      "duration": 0.0163,
      "velocity": 119,
      "chip": "ym2612"
    },
    {
      "channel": 2,
      "note": 81,
      "start": 110.6655,
      "duration": 0.0156,
      "velocity": 119,
      "chip": "ym2612"
    },
    {
      "channel": 2,
      "note": 81,
      "start": 110.698,
      "duration": 0.0168,
      "velocity": 119,
      "chip": "ym2612"
    },
    {
      "channel": 2,
      "note": 81,
      "start": 110.7434,
      "duration": 0.0711,
      "velocity": 119,
      "chip": "ym2612"
    },
    {
      "channel": 1,
      "note": 52,
      "start": 110.8928,
      "duration": 0.2829,
      "velocity": 101,
      "chip": "ym2612"
    },
    {
      "channel": 2,
      "note": 81,
      "start": 110.8934,
      "duration": 0.0684,
      "velocity": 119,
      "chip": "ym2612"
    },
    {
      "channel": 3,
      "note": 64,
      "start": 110.8941,
      "duration": 0.2818,
      "velocity": 97,
      "chip": "ym2612"
    },
    {
      "channel": 1,
      "note": 57,
      "start": 111.2001,
      "duration": 0.8922,
      "velocity": 101,
      "chip": "ym2612"
    },
    {
      "channel": 2,
      "note": 44,
      "start": 111.204,
      "duration": 0.2796,
      "velocity": 101,
      "chip": "ym2612"
    },
    {
      "channel": 3,
      "note": 64,
      "start": 111.5,
      "duration": 0.3006,
      "velocity": 97,
      "chip": "ym2612"
    },
    {
      "channel": 2,
      "note": 81,
      "start": 111.6505,
      "duration": 0.0753,
      "velocity": 119,
      "chip": "ym2612"
    },
    {
      "channel": 2,
      "note": 81,
      "start": 111.8013,
      "duration": 0.0798,
      "velocity": 119,
      "chip": "ym2612"
    },
    {
      "channel": 3,
      "note": 69,
      "start": 111.8021,
      "duration": 0.2795,
      "velocity": 97,
      "chip": "ym2612"
    },
    {
      "channel": 2,
      "note": 81,
      "start": 112.1102,
      "duration": 0.0155,
      "velocity": 119,
      "chip": "ym2612"
    },
    {
      "channel": 3,
      "note": 73,
      "start": 112.111,
      "duration": 0.3361,
      "velocity": 97,
      "chip": "ym2612"
    },
    {
      "channel": 2,
      "note": 81,
      "start": 112.1487,
      "duration": 0.0148,
      "velocity": 119,
      "chip": "ym2612"
    },
    {
      "channel": 2,
      "note": 81,
      "start": 112.181,
      "duration": 0.0172,
      "velocity": 119,
      "chip": "ym2612"
    },
    {
      "channel": 2,
      "note": 81,
      "start": 112.2158,
      "duration": 0.0267,
      "velocity": 119,
      "chip": "ym2612"
    },
    {
      "channel": 2,
      "note": 81,
      "start": 112.26,
      "duration": 0.0157,
      "velocity": 119,
      "chip": "ym2612"
    },
    {
      "channel": 2,
      "note": 81,
      "start": 112.2977,
      "duration": 0.0158,
      "velocity": 119,
      "chip": "ym2612"
    },
    {
      "channel": 2,
      "note": 81,
      "start": 112.3319,
      "duration": 0.0163,
      "velocity": 119,
      "chip": "ym2612"
    },
    {
      "channel": 2,
      "note": 81,
      "start": 112.3761,
      "duration": 0.0163,
      "velocity": 119,
      "chip": "ym2612"
    },
    {
      "channel": 2,
      "note": 81,
      "start": 112.4551,
      "duration": 0.0264,
      "velocity": 119,
      "chip": "ym2612"
    },
    {
      "channel": 3,
      "note": 69,
      "start": 112.4559,
      "duration": 0.2534,
      "velocity": 97,
      "chip": "ym2612"
    },
    {
      "channel": 2,
      "note": 81,
      "start": 112.5638,
      "duration": 0.0787,
      "velocity": 119,
      "chip": "ym2612"
    },
    {
      "channel": 1,
      "note": 52,
      "start": 112.7139,
      "duration": 0.2849,
      "velocity": 101,
      "chip": "ym2612"
    },
    {
      "channel": 2,
      "note": 81,
      "start": 112.7145,
      "duration": 0.078,
      "velocity": 119,
      "chip": "ym2612"
    },
    {
      "channel": 3,
      "note": 64,
      "start": 112.7153,
      "duration": 0.2839,
      "velocity": 97,
      "chip": "ym2612"
    },
    {
      "channel": 2,
      "note": 81,
      "start": 112.8633,
      "duration": 0.0791,
      "velocity": 119,
      "chip": "ym2612"
    },
    {
      "channel": 0,
      "note": 79,
      "start": 113.0212,
      "duration": 2.6931,
      "velocity": 101,
      "chip": "ym2612"
    },
    {
      "channel": 1,
      "note": 60,
      "start": 113.0221,
      "duration": 0.8956,
      "velocity": 101,
      "chip": "ym2612"
    },
    {
      "channel": 2,
      "note": 97,
      "start": 113.0266,
      "duration": 0.437,
      "velocity": 119,
      "chip": "ym2612"
    },
    {
      "channel": 3,
      "note": 67,
      "start": 113.3263,
      "duration": 0.2887,
      "velocity": 97,
      "chip": "ym2612"
    },
    {
      "channel": 2,
      "note": 81,
      "start": 113.4795,
      "duration": 0.0666,
      "velocity": 119,
      "chip": "ym2612"
    },
    {
      "channel": 2,
      "note": 81,
      "start": 113.6261,
      "duration": 0.0705,
      "velocity": 119,
      "chip": "ym2612"
    },
    {
      "channel": 3,
      "note": 72,
      "start": 113.6268,
      "duration": 0.2905,
      "velocity": 97,
      "chip": "ym2612"
    },
    {
      "channel": 2,
      "note": 81,
      "start": 113.9351,
      "duration": 0.0126,
      "velocity": 119,
      "chip": "ym2612"
    },
    {
      "channel": 3,
      "note": 76,
      "start": 113.9358,
      "duration": 0.2981,
      "velocity": 97,
      "chip": "ym2612"
    },
    {
      "channel": 2,
      "note": 81,
      "start": 113.9653,
      "duration": 0.0164,
      "velocity": 119,
      "chip": "ym2612"
    },
    {
      "channel": 2,
      "note": 81,
      "start": 114.01,
      "duration": 0.0157,
      "velocity": 119,
      "chip": "ym2612"
    },
    {
      "channel": 2,
      "note": 81,
      "start": 114.0482,
      "duration": 0.0163,
      "velocity": 119,
      "chip": "ym2612"
    },
    {
      "channel": 2,
      "note": 81,
      "start": 114.0819,
      "duration": 0.0164,
      "velocity": 119,
      "chip": "ym2612"
    },
    {
      "channel": 2,
      "note": 81,
      "start": 114.1153,
      "duration": 0.0272,
      "velocity": 119,
      "chip": "ym2612"
    },
    {
      "channel": 2,
      "note": 81,
      "start": 114.16,
      "duration": 0.0157,
      "velocity": 119,
      "chip": "ym2612"
    },
    {
      "channel": 2,
      "note": 81,
      "start": 114.1981,
      "duration": 0.0162,
      "velocity": 119,
      "chip": "ym2612"
    },
    {
      "channel": 2,
      "note": 81,
      "start": 114.2352,
      "duration": 0.0134,
      "velocity": 119,
      "chip": "ym2612"
    },
    {
      "channel": 3,
      "note": 72,
      "start": 114.236,
      "duration": 0.2978,
      "velocity": 97,
      "chip": "ym2612"
    },
    {
      "channel": 2,
      "note": 81,
      "start": 114.2761,
      "duration": 0.0164,
      "velocity": 119,
      "chip": "ym2612"
    },
    {
      "channel": 2,
      "note": 81,
      "start": 114.31,
      "duration": 0.0212,
      "velocity": 119,
      "chip": "ym2612"
    },
    {
      "channel": 2,
      "note": 81,
      "start": 114.348,
      "duration": 0.017,
      "velocity": 119,
      "chip": "ym2612"
    },
    {
      "channel": 2,
      "note": 81,
      "start": 114.3826,
      "duration": 0.082,
      "velocity": 119,
      "chip": "ym2612"
    },
    {
      "channel": 1,
      "note": 55,
      "start": 114.5428,
      "duration": 0.2829,
      "velocity": 101,
      "chip": "ym2612"
    },
    {
      "channel": 2,
      "note": 81,
      "start": 114.5434,
      "duration": 0.0684,
      "velocity": 119,
      "chip": "ym2612"
    },
    {
      "channel": 3,
      "note": 67,
      "start": 114.5441,
      "duration": 0.2818,
      "velocity": 97,
      "chip": "ym2612"
    },
    {
      "channel": 1,
      "note": 60,
      "start": 114.8431,
      "duration": 0.8995,
      "velocity": 101,
      "chip": "ym2612"
    },
    {
      "channel": 2,
      "note": 44,
      "start": 114.8471,
      "duration": 0.2788,
      "velocity": 101,
      "chip": "ym2612"
    },
    {
      "channel": 3,
      "note": 67,
      "start": 115.1498,
      "duration": 0.2928,
      "velocity": 97,
      "chip": "ym2612"
    },
    {
      "channel": 2,
      "note": 81,
      "start": 115.3005,
      "duration": 0.0753,
      "velocity": 119,
      "chip": "ym2612"
    },
    {
      "channel": 2,
      "note": 81,
      "start": 115.451,
      "duration": 0.0749,
      "velocity": 119,
      "chip": "ym2612"
    },
    {
      "channel": 3,
      "note": 72,
      "start": 115.4517,
      "duration": 0.281,
      "velocity": 97,
      "chip": "ym2612"
    },
    {
      "channel": 0,
      "note": 78,
      "start": 115.7524,
      "duration": 0.2899,
      "velocity": 101,
      "chip": "ym2612"
    },
    {
      "channel": 2,
      "note": 81,
      "start": 115.7539,
      "duration": 0.022,
      "velocity": 119,
      "chip": "ym2612"
    },
    {
      "channel": 3,
      "note": 74,
      "start": 115.7546,
      "duration": 0.2949,
      "velocity": 97,
      "chip": "ym2612"
    },
    {
      "channel": 2,
      "note": 81,
      "start": 115.7933,
      "duration": 0.0185,
      "velocity": 119,
      "chip": "ym2612"
    },
    {
      "channel": 2,
      "note": 81,
      "start": 115.8294,
      "duration": 0.0158,
      "velocity": 119,
      "chip": "ym2612"
    },
    {
      "channel": 2,
      "note": 81,
      "start": 115.8642,
      "duration": 0.0158,
      "velocity": 119,
      "chip": "ym2612"
    },
    {
      "channel": 2,
      "note": 81,
      "start": 115.91,
      "duration": 0.0157,
      "velocity": 119,
      "chip": "ym2612"
    },
    {
      "channel": 2,
      "note": 81,
      "start": 115.9461,
      "duration": 0.0158,
      "velocity": 119,
      "chip": "ym2612"
    },
    {
      "channel": 2,
      "note": 81,
      "start": 115.9788,
      "duration": 0.0179,
      "velocity": 119,
      "chip": "ym2612"
    },
    {
      "channel": 2,
      "note": 81,
      "start": 116.0136,
      "duration": 0.029,
      "velocity": 119,
      "chip": "ym2612"
    },
    {
      "channel": 0,
      "note": 79,
      "start": 116.0595,
      "duration": 0.1357,
      "velocity": 101,
      "chip": "ym2612"
    },
    {
      "channel": 2,
      "note": 81,
      "start": 116.0607,
      "duration": 0.0693,
      "velocity": 119,
      "chip": "ym2612"
    },
    {
      "channel": 3,
      "note": 69,
      "start": 116.0614,
      "duration": 0.2978,
      "velocity": 97,
      "chip": "ym2612"
    },
    {
      "channel": 2,
      "note": 81,
      "start": 116.2094,
      "duration": 0.0705,
      "velocity": 119,
      "chip": "ym2612"
    },
    {
      "channel": 1,
      "note": 55,
      "start": 116.3649,
      "duration": 0.2812,
      "velocity": 101,
      "chip": "ym2612"
    },
    {
      "channel": 2,
      "note": 81,
      "start": 116.3655,
      "duration": 0.077,
      "velocity": 119,
      "chip": "ym2612"
    },
    {
      "channel": 3,
      "note": 66,
      "start": 116.3662,
      "duration": 0.2802,
      "velocity": 97,
      "chip": "ym2612"
    },
    {
      "channel": 0,
      "note": 81,
      "start": 116.5106,
      "duration": 0.1361,
      "velocity": 101,
      "chip": "ym2612"
    },
    {
      "channel": 2,
      "note": 81,
      "start": 116.5113,
      "duration": 0.0812,
      "velocity": 119,
      "chip": "ym2612"
    },
    {
      "channel": 0,
      "note": 79,
      "start": 116.6649,
      "duration": 3.0007,
      "velocity": 101,
      "chip": "ym2612"
    },
    {
      "channel": 1,
      "note": 60,
      "start": 116.6658,
      "duration": 0.9015,
      "velocity": 101,
      "chip": "ym2612"
    },
    {
      "channel": 2,
      "note": 44,
      "start": 116.6697,
      "duration": 0.2796,
      "velocity": 101,
      "chip": "ym2612"
    },
    {
      "channel": 3,
      "note": 67,
      "start": 116.9654,
      "duration": 0.2996,
      "velocity": 97,
      "chip": "ym2612"
    },
    {
      "channel": 2,
      "note": 81,
      "start": 117.1295,
      "duration": 0.0666,
      "velocity": 119,
      "chip": "ym2612"
    },
    {
      "channel": 2,
      "note": 81,
      "start": 117.2761,
      "duration": 0.0701,
      "velocity": 119,
      "chip": "ym2612"
    },
    {
      "channel": 3,
      "note": 72,
      "start": 117.2768,
      "duration": 0.2824,
      "velocity": 97,
      "chip": "ym2612"
    },
    {
      "channel": 2,
      "note": 81,
      "start": 117.5851,
      "duration": 0.0126,
      "velocity": 119,
      "chip": "ym2612"
    },
    {
      "channel": 3,
      "note": 76,
      "start": 117.5858,
      "duration": 0.2901,
      "velocity": 97,
      "chip": "ym2612"
    },
    {
      "channel": 2,
      "note": 81,
      "start": 117.6148,
      "duration": 0.0169,
      "velocity": 119,
      "chip": "ym2612"
    },
    {
      "channel": 2,
      "note": 81,
      "start": 117.649,
      "duration": 0.0268,
      "velocity": 119,
      "chip": "ym2612"
    },
    {
      "channel": 2,
      "note": 81,
      "start": 117.6927,
      "duration": 0.0218,
      "velocity": 119,
      "chip": "ym2612"
    },
    {
      "channel": 2,
      "note": 81,
      "start": 117.7319,
      "duration": 0.0162,
      "velocity": 119,
      "chip": "ym2612"
    },
    {
      "channel": 2,
      "note": 81,
      "start": 117.7653,
      "duration": 0.0161,
      "velocity": 119,
      "chip": "ym2612"
    },
    {
      "channel": 2,
      "note": 81,
      "start": 117.81,
      "duration": 0.0157,
      "velocity": 119,
      "chip": "ym2612"
    },
    {
      "channel": 2,
      "note": 81,
      "start": 117.8481,
      "duration": 0.0162,
      "velocity": 119,
      "chip": "ym2612"
    },
    {
      "channel": 2,
      "note": 81,
      "start": 117.8849,
      "duration": 0.0136,
      "velocity": 119,
      "chip": "ym2612"
    },
    {
      "channel": 3,
      "note": 72,
      "start": 117.8856,
      "duration": 0.2982,
      "velocity": 97,
      "chip": "ym2612"
    },
    {
      "channel": 2,
      "note": 81,
      "start": 117.9151,
      "duration": 0.0274,
      "velocity": 119,
      "chip": "ym2612"
    },
    {
      "channel": 2,
      "note": 81,
      "start": 117.96,
      "duration": 0.0157,
      "velocity": 119,
      "chip": "ym2612"
    },
    {
      "channel": 2,
      "note": 81,
      "start": 117.998,
      "duration": 0.0166,
      "velocity": 119,
      "chip": "ym2612"
    },
    {
      "channel": 2,
      "note": 81,
      "start": 118.0326,
      "duration": 0.0765,
      "velocity": 119,
      "chip": "ym2612"
    },
    {
      "channel": 1,
      "note": 55,
      "start": 118.1846,
      "duration": 0.2912,
      "velocity": 101,
      "chip": "ym2612"
    },
    {
      "channel": 2,
      "note": 81,
      "start": 118.1852,
      "duration": 0.0766,
      "velocity": 119,
      "chip": "ym2612"
    },
    {
      "channel": 3,
      "note": 67,
      "start": 118.1859,
      "duration": 0.29,
      "velocity": 97,
      "chip": "ym2612"
    },
    {
      "channel": 1,
      "note": 60,
      "start": 118.4931,
      "duration": 0.8993,
      "velocity": 101,
      "chip": "ym2612"
    },
    {
      "channel": 2,
      "note": 44,
      "start": 118.497,
      "duration": 0.2788,
      "velocity": 101,
      "chip": "ym2612"
    },
    {
      "channel": 3,
      "note": 67,
      "start": 118.7998,
      "duration": 0.2928,
      "velocity": 97,
      "chip": "ym2612"
    },
    {
      "channel": 2,
      "note": 81,
      "start": 118.9505,
      "duration": 0.0753,
      "velocity": 119,
      "chip": "ym2612"
    },
    {
      "channel": 2,
      "note": 81,
      "start": 119.101,
      "duration": 0.0749,
      "velocity": 119,
      "chip": "ym2612"
    },
    {
      "channel": 3,
      "note": 72,
      "start": 119.1017,
      "duration": 0.2806,
      "velocity": 97,
      "chip": "ym2612"
    },
    {
      "channel": 2,
      "note": 81,
      "start": 119.4032,
      "duration": 0.0227,
      "velocity": 119,
      "chip": "ym2612"
    },
    {
      "channel": 3,
      "note": 74,
      "start": 119.4039,
      "duration": 0.2968,
      "velocity": 97,
      "chip": "ym2612"
    },
    {
      "channel": 2,
      "note": 81,
      "start": 119.4434,
      "duration": 0.0157,
      "velocity": 119,
      "chip": "ym2612"
    },
    {
      "channel": 2,
      "note": 81,
      "start": 119.481,
      "duration": 0.0167,
      "velocity": 119,
      "chip": "ym2612"
    },
    {
      "channel": 2,
      "note": 81,
      "start": 119.5164,
      "duration": 0.016,
      "velocity": 119,
      "chip": "ym2612"
    },
    {
      "channel": 2,
      "note": 81,
      "start": 119.55,
      "duration": 0.0258,
      "velocity": 119,
      "chip": "ym2612"
    },
    {
      "channel": 2,
      "note": 81,
      "start": 119.5933,
      "duration": 0.0202,
      "velocity": 119,
      "chip": "ym2612"
    },
    {
      "channel": 2,
      "note": 81,
      "start": 119.6314,
      "duration": 0.0174,
      "velocity": 119,
      "chip": "ym2612"
    },
    {
      "channel": 2,
      "note": 81,
      "start": 119.6661,
      "duration": 0.0163,
      "velocity": 119,
      "chip": "ym2612"
    },
    {
      "channel": 0,
      "note": 78,
      "start": 119.7095,
      "duration": 0.2828,
      "velocity": 101,
      "chip": "ym2612"
    },
    {
      "channel": 2,
      "note": 81,
      "start": 119.7107,
      "duration": 0.0689,
      "velocity": 119,
      "chip": "ym2612"
    },
    {
      "channel": 3,
      "note": 69,
      "start": 119.7114,
      "duration": 0.287,
      "velocity": 97,
      "chip": "ym2612"
    },
    {
      "channel": 2,
      "note": 81,
      "start": 119.8595,
      "duration": 0.0705,
      "velocity": 119,
      "chip": "ym2612"
    },
    {
      "channel": 0,
      "note": 74,
      "start": 120.0094,
      "duration": 0.2884,
      "velocity": 101,
      "chip": "ym2612"
    },
    {
      "channel": 1,
      "note": 55,
      "start": 120.0101,
      "duration": 0.2879,
      "velocity": 101,
      "chip": "ym2612"
    },
    {
      "channel": 2,
      "note": 81,
      "start": 120.0107,
      "duration": 0.0667,
      "velocity": 119,
      "chip": "ym2612"
    },
    {
      "channel": 3,
      "note": 66,
      "start": 120.0115,
      "duration": 0.2868,
      "velocity": 97,
      "chip": "ym2612"
    },
    {
      "channel": 2,
      "note": 81,
      "start": 120.1622,
      "duration": 0.0805,
      "velocity": 119,
      "chip": "ym2612"
    },
    {
      "channel": 0,
      "note": 76,
      "start": 120.3147,
      "duration": 3.0004,
      "velocity": 101,
      "chip": "ym2612"
    },
    {
      "channel": 1,
      "note": 57,
      "start": 120.3156,
      "duration": 0.9018,
      "velocity": 101,
      "chip": "ym2612"
    },
    {
      "channel": 2,
      "note": 97,
      "start": 120.3197,
      "duration": 0.4395,
      "velocity": 119,
      "chip": "ym2612"
    },
    {
      "channel": 3,
      "note": 64,
      "start": 120.6173,
      "duration": 0.2973,
      "velocity": 97,
      "chip": "ym2612"
    },
    {
      "channel": 2,
      "note": 81,
      "start": 120.7677,
      "duration": 0.0784,
      "velocity": 119,
      "chip": "ym2612"
    },
    {
      "channel": 2,
      "note": 81,
      "start": 120.9261,
      "duration": 0.07,
      "velocity": 119,
      "chip": "ym2612"
    },
    {
      "channel": 3,
      "note": 69,
      "start": 120.9268,
      "duration": 0.2824,
      "velocity": 97,
      "chip": "ym2612"
    },
    {
      "channel": 2,
      "note": 81,
      "start": 121.227,
      "duration": 0.0209,
      "velocity": 119,
      "chip": "ym2612"
    },
    {
      "channel": 3,
      "note": 73,
      "start": 121.2278,
      "duration": 0.2981,
      "velocity": 97,
      "chip": "ym2612"
    },
    {
      "channel": 2,
      "note": 81,
      "start": 121.2648,
      "duration": 0.0165,
      "velocity": 119,
      "chip": "ym2612"
    },
    {
      "channel": 2,
      "note": 81,
      "start": 121.299,
      "duration": 0.0268,
      "velocity": 119,
      "chip": "ym2612"
    },
    {
      "channel": 2,
      "note": 81,
      "start": 121.3428,
      "duration": 0.0163,
      "velocity": 119,
      "chip": "ym2612"
    },
    {
      "channel": 2,
      "note": 81,
      "start": 121.3819,
      "duration": 0.0159,
      "velocity": 119,
      "chip": "ym2612"
    },
    {
      "channel": 2,
      "note": 81,
      "start": 121.4149,
      "duration": 0.0166,
      "velocity": 119,
      "chip": "ym2612"
    },
    {
      "channel": 2,
      "note": 81,
      "start": 121.4489,
      "duration": 0.0269,
      "velocity": 119,
      "chip": "ym2612"
    },
    {
      "channel": 2,
      "note": 81,
      "start": 121.4927,
      "duration": 0.0243,
      "velocity": 119,
      "chip": "ym2612"
    },
    {
      "channel": 2,
      "note": 81,
      "start": 121.5347,
      "duration": 0.0132,
      "velocity": 119,
      "chip": "ym2612"
    },
    {
      "channel": 3,
      "note": 69,
      "start": 121.5355,
      "duration": 0.2984,
      "velocity": 97,
      "chip": "ym2612"
    },
    {
      "channel": 2,
      "note": 81,
      "start": 121.5651,
      "duration": 0.0162,
      "velocity": 119,
      "chip": "ym2612"
    },
    {
      "channel": 2,
      "note": 81,
      "start": 121.61,
      "duration": 0.0157,
      "velocity": 119,
      "chip": "ym2612"
    },
    {
      "channel": 2,
      "note": 81,
      "start": 121.648,
      "duration": 0.0165,
      "velocity": 119,
      "chip": "ym2612"
    },
    {
      "channel": 2,
      "note": 81,
      "start": 121.6821,
      "duration": 0.0771,
      "velocity": 119,
      "chip": "ym2612"
    },
    {
      "channel": 1,
      "note": 52,
      "start": 121.8347,
      "duration": 0.2811,
      "velocity": 101,
      "chip": "ym2612"
    },
    {
      "channel": 2,
      "note": 81,
      "start": 121.8353,
      "duration": 0.0739,
      "velocity": 119,
      "chip": "ym2612"
    },
    {
      "channel": 3,
      "note": 64,
      "start": 121.836,
      "duration": 0.28,
      "velocity": 97,
      "chip": "ym2612"
    },
    {
      "channel": 1,
      "note": 57,
      "start": 122.1431,
      "duration": 0.8896,
      "velocity": 101,
      "chip": "ym2612"
    },
    {
      "channel": 2,
      "note": 44,
      "start": 122.147,
      "duration": 0.2788,
      "velocity": 101,
      "chip": "ym2612"
    },
    {
      "channel": 3,
      "note": 64,
      "start": 122.443,
      "duration": 0.2998,
      "velocity": 97,
      "chip": "ym2612"
    },
    {
      "channel": 2,
      "note": 81,
      "start": 122.6005,
      "duration": 0.0653,
      "velocity": 119,
      "chip": "ym2612"
    },
    {
      "channel": 2,
      "note": 81,
      "start": 122.7511,
      "duration": 0.0748,
      "velocity": 119,
      "chip": "ym2612"
    },
    {
      "channel": 3,
      "note": 69,
      "start": 122.7518,
      "duration": 0.2805,
      "velocity": 97,
      "chip": "ym2612"
    },
    {
      "channel": 2,
      "note": 81,
      "start": 123.0526,
      "duration": 0.0132,
      "velocity": 119,
      "chip": "ym2612"
    },
    {
      "channel": 3,
      "note": 74,
      "start": 123.0534,
      "duration": 0.2971,
      "velocity": 97,
      "chip": "ym2612"
    },
    {
      "channel": 2,
      "note": 81,
      "start": 123.0934,
      "duration": 0.0158,
      "velocity": 119,
      "chip": "ym2612"
    },
    {
      "channel": 2,
      "note": 81,
      "start": 123.1266,
      "duration": 0.0211,
      "velocity": 119,
      "chip": "ym2612"
    },
    {
      "channel": 2,
      "note": 81,
      "start": 123.1665,
      "duration": 0.0155,
      "velocity": 119,
      "chip": "ym2612"
    },
    {
      "channel": 2,
      "note": 81,
      "start": 123.2001,
      "duration": 0.0258,
      "velocity": 119,
      "chip": "ym2612"
    },
    {
      "channel": 2,
      "note": 81,
      "start": 123.2436,
      "duration": 0.0155,
      "velocity": 119,
      "chip": "ym2612"
    },
    {
      "channel": 2,
      "note": 81,
      "start": 123.2814,
      "duration": 0.0175,
      "velocity": 119,
      "chip": "ym2612"
    },
    {
      "channel": 2,
      "note": 81,
      "start": 123.3157,
      "duration": 0.0167,
      "velocity": 119,
      "chip": "ym2612"
    },
    {
      "channel": 0,
      "note": 78,
      "start": 123.3513,
      "duration": 0.291,
      "velocity": 101,
      "chip": "ym2612"
    },
    {
      "channel": 2,
      "note": 81,
      "start": 123.3525,
      "duration": 0.0771,
      "velocity": 119,
      "chip": "ym2612"
    },
    {
      "channel": 3,
      "note": 69,
      "start": 123.3532,
      "duration": 0.2952,
      "velocity": 97,
      "chip": "ym2612"
    },
    {
      "channel": 2,
      "note": 81,
      "start": 123.5095,
      "duration": 0.07,
      "velocity": 119,
      "chip": "ym2612"
    },
    {
      "channel": 0,
      "note": 74,
      "start": 123.6594,
      "duration": 0.2829,
      "velocity": 101,
      "chip": "ym2612"
    },
    {
      "channel": 1,
      "note": 52,
      "start": 123.6602,
      "duration": 0.2823,
      "velocity": 101,
      "chip": "ym2612"
    },
    {
      "channel": 2,
      "note": 81,
      "start": 123.6607,
      "duration": 0.0667,
      "velocity": 119,
      "chip": "ym2612"
    },
    {
      "channel": 3,
      "note": 66,
      "start": 123.6615,
      "duration": 0.2813,
      "velocity": 97,
      "chip": "ym2612"
    },
    {
      "channel": 2,
      "note": 81,
      "start": 123.8095,
      "duration": 0.0705,
      "velocity": 119,
      "chip": "ym2612"
    },
    {
      "channel": 0,
      "note": 76,
      "start": 123.9647,
      "duration": 3.3155,
      "velocity": 101,
      "chip": "ym2612"
    },
    {
      "channel": 1,
      "note": 57,
      "start": 123.9655,
      "duration": 0.9019,
      "velocity": 101,
      "chip": "ym2612"
    },
    {
      "channel": 2,
      "note": 44,
      "start": 123.9694,
      "duration": 0.2795,
      "velocity": 101,
      "chip": "ym2612"
    },
    {
      "channel": 3,
      "note": 64,
      "start": 124.2651,
      "duration": 0.2994,
      "velocity": 97,
      "chip": "ym2612"
    },
    {
      "channel": 2,
      "note": 81,
      "start": 124.4159,
      "duration": 0.0803,
      "velocity": 119,
      "chip": "ym2612"
    },
    {
      "channel": 2,
      "note": 81,
      "start": 124.5653,
      "duration": 0.0808,
      "velocity": 119,
      "chip": "ym2612"
    },
    {
      "channel": 3,
      "note": 69,
      "start": 124.5661,
      "duration": 0.2931,
      "velocity": 97,
      "chip": "ym2612"
    },
    {
      "channel": 2,
      "note": 81,
      "start": 124.8771,
      "duration": 0.0153,
      "velocity": 119,
      "chip": "ym2612"
    },
    {
      "channel": 3,
      "note": 73,
      "start": 124.8778,
      "duration": 0.2981,
      "velocity": 97,
      "chip": "ym2612"
    },
    {
      "channel": 2,
      "note": 81,
      "start": 124.9148,
      "duration": 0.0165,
      "velocity": 119,
      "chip": "ym2612"
    },
    {
      "channel": 2,
      "note": 81,
      "start": 124.9487,
      "duration": 0.016,
      "velocity": 119,
      "chip": "ym2612"
    },
    {
      "channel": 2,
      "note": 81,
      "start": 124.9928,
      "duration": 0.0163,
      "velocity": 119,
      "chip": "ym2612"
    },
    {
      "channel": 2,
      "note": 81,
      "start": 125.0266,
      "duration": 0.0211,
      "velocity": 119,
      "chip": "ym2612"
    },
    {
      "channel": 2,
      "note": 81,
      "start": 125.0649,
      "duration": 0.0162,
      "velocity": 119,
      "chip": "ym2612"
    },
    {
      "channel": 2,
      "note": 81,
      "start": 125.0989,
      "duration": 0.0269,
      "velocity": 119,
      "chip": "ym2612"
    },
    {
      "channel": 2,
      "note": 81,
      "start": 125.1427,
      "duration": 0.0163,
      "velocity": 119,
      "chip": "ym2612"
    },
    {
      "channel": 2,
      "note": 81,
      "start": 125.1847,
      "duration": 0.0132,
      "velocity": 119,
      "chip": "ym2612"
    },
    {
      "channel": 3,
      "note": 69,
      "start": 125.1855,
      "duration": 0.2904,
      "velocity": 97,
      "chip": "ym2612"
    },
    {
      "channel": 2,
      "note": 81,
      "start": 125.2148,
      "duration": 0.0166,
      "velocity": 119,
      "chip": "ym2612"
    },
    {
      "channel": 2,
      "note": 81,
      "start": 125.2492,
      "duration": 0.0266,
      "velocity": 119,
      "chip": "ym2612"
    },
    {
      "channel": 2,
      "note": 81,
      "start": 125.2927,
      "duration": 0.0217,
      "velocity": 119,
      "chip": "ym2612"
    },
    {
      "channel": 2,
      "note": 81,
      "start": 125.3321,
      "duration": 0.0771,
      "velocity": 119,
      "chip": "ym2612"
    },
    {
      "channel": 1,
      "note": 52,
      "start": 125.4843,
      "duration": 0.2815,
      "velocity": 101,
      "chip": "ym2612"
    },
    {
      "channel": 2,
      "note": 81,
      "start": 125.4849,
      "duration": 0.0743,
      "velocity": 119,
      "chip": "ym2612"
    },
    {
      "channel": 3,
      "note": 64,
      "start": 125.4856,
      "duration": 0.2804,
      "velocity": 97,
      "chip": "ym2612"
    },
    {
      "channel": 1,
      "note": 57,
      "start": 125.7849,
      "duration": 0.8978,
      "velocity": 101,
      "chip": "ym2612"
    },
    {
      "channel": 2,
      "note": 44,
      "start": 125.7889,
      "duration": 0.287,
      "velocity": 101,
      "chip": "ym2612"
    },
    {
      "channel": 3,
      "note": 64,
      "start": 126.093,
      "duration": 0.2996,
      "velocity": 97,
      "chip": "ym2612"
    },
    {
      "channel": 2,
      "note": 81,
      "start": 126.2464,
      "duration": 0.0695,
      "velocity": 119,
      "chip": "ym2612"
    },
    {
      "channel": 2,
      "note": 81,
      "start": 126.4008,
      "duration": 0.0641,
      "velocity": 119,
      "chip": "ym2612"
    },
    {
      "channel": 3,
      "note": 69,
      "start": 126.4016,
      "duration": 0.2808,
      "velocity": 97,
      "chip": "ym2612"
    },
    {
      "channel": 2,
      "note": 81,
      "start": 126.7026,
      "duration": 0.0132,
      "velocity": 119,
      "chip": "ym2612"
    },
    {
      "channel": 3,
      "note": 73,
      "start": 126.7034,
      "duration": 0.2972,
      "velocity": 97,
      "chip": "ym2612"
    },
    {
      "channel": 2,
      "note": 81,
      "start": 126.7324,
      "duration": 0.0267,
      "velocity": 119,
      "chip": "ym2612"
    },
    {
      "channel": 2,
      "note": 81,
      "start": 126.7767,
      "duration": 0.0157,
      "velocity": 119,
      "chip": "ym2612"
    },
    {
      "channel": 2,
      "note": 81,
      "start": 126.8165,
      "duration": 0.0155,
      "velocity": 119,
      "chip": "ym2612"
    },
    {
      "channel": 2,
      "note": 81,
      "start": 126.8496,
      "duration": 0.0153,
      "velocity": 119,
      "chip": "ym2612"
    },
    {
      "channel": 2,
      "note": 81,
      "start": 126.8934,
      "duration": 0.0158,
      "velocity": 119,
      "chip": "ym2612"
    },
    {
      "channel": 2,
      "note": 81,
      "start": 126.9261,
      "duration": 0.0228,
      "velocity": 119,
      "chip": "ym2612"
    },
    {
      "channel": 2,
      "note": 81,
      "start": 126.9656,
      "duration": 0.0165,
      "velocity": 119,
      "chip": "ym2612"
    },
    {
      "channel": 2,
      "note": 81,
      "start": 127.0018,
      "duration": 0.0804,
      "velocity": 119,
      "chip": "ym2612"
    },
    {
      "channel": 3,
      "note": 69,
      "start": 127.0026,
      "duration": 0.2968,
      "velocity": 97,
      "chip": "ym2612"
    },
    {
      "channel": 2,
      "note": 81,
      "start": 127.1476,
      "duration": 0.0843,
      "velocity": 119,
      "chip": "ym2612"
    },
    {
      "channel": 0,
      "note": 69,
      "start": 127.3095,
      "duration": 0.2828,
      "velocity": 101,
      "chip": "ym2612"
    },
    {
      "channel": 1,
      "note": 52,
      "start": 127.3102,
      "duration": 0.2823,
      "velocity": 101,
      "chip": "ym2612"
    },
    {
      "channel": 2,
      "note": 81,
      "start": 127.3107,
      "duration": 0.0663,
      "velocity": 119,
      "chip": "ym2612"
    },
    {
      "channel": 3,
      "note": 64,
      "start": 127.3115,
      "duration": 0.2813,
      "velocity": 97,
      "chip": "ym2612"
    },
    {
      "channel": 2,
      "note": 81,
      "start": 127.4595,
      "duration": 0.0706,
      "velocity": 119,
      "chip": "ym2612"
    },
    {
      "channel": 0,
      "note": 76,
      "start": 127.6094,
      "duration": 3.0059,
      "velocity": 101,
      "chip": "ym2612"
    },
    {
      "channel": 1,
      "note": 57,
      "start": 127.6102,
      "duration": 0.8988,
      "velocity": 101,
      "chip": "ym2612"
    },
    {
      "channel": 2,
      "note": 97,
      "start": 127.6143,
      "duration": 0.433,
      "velocity": 119,
      "chip": "ym2612"
    },
    {
      "channel": 3,
      "note": 64,
      "start": 127.9167,
      "duration": 0.2978,
      "velocity": 97,
      "chip": "ym2612"
    },
    {
      "channel": 2,
      "note": 81,
      "start": 128.0672,
      "duration": 0.0753,
      "velocity": 119,
      "chip": "ym2612"
    },
    {
      "channel": 2,
      "note": 81,
      "start": 128.2153,
      "duration": 0.0826,
      "velocity": 119,
      "chip": "ym2612"
    },
    {
      "channel": 3,
      "note": 69,
      "start": 128.2161,
      "duration": 0.2823,
      "velocity": 97,
      "chip": "ym2612"
    },
    {
      "channel": 2,
      "note": 81,
      "start": 128.5271,
      "duration": 0.0154,
      "velocity": 119,
      "chip": "ym2612"
    },
    {
      "channel": 3,
      "note": 73,
      "start": 128.5278,
      "duration": 0.2899,
      "velocity": 97,
      "chip": "ym2612"
    },
    {
      "channel": 2,
      "note": 81,
      "start": 128.5594,
      "duration": 0.0217,
      "velocity": 119,
      "chip": "ym2612"
    },
    {
      "channel": 2,
      "note": 81,
      "start": 128.5985,
      "duration": 0.0163,
      "velocity": 119,
      "chip": "ym2612"
    },
    {
      "channel": 2,
      "note": 81,
      "start": 128.632,
      "duration": 0.0272,
      "velocity": 119,
      "chip": "ym2612"
    },
    {
      "channel": 2,
      "note": 81,
      "start": 128.6767,
      "duration": 0.0157,
      "velocity": 119,
      "chip": "ym2612"
    },
    {
      "channel": 2,
      "note": 81,
      "start": 128.7148,
      "duration": 0.0162,
      "velocity": 119,
      "chip": "ym2612"
    },
    {
      "channel": 2,
      "note": 81,
      "start": 128.7488,
      "duration": 0.0162,
      "velocity": 119,
      "chip": "ym2612"
    },
    {
      "channel": 2,
      "note": 81,
      "start": 128.7927,
      "duration": 0.0164,
      "velocity": 119,
      "chip": "ym2612"
    },
    {
      "channel": 2,
      "note": 81,
      "start": 128.8266,
      "duration": 0.0211,
      "velocity": 119,
      "chip": "ym2612"
    },
    {
      "channel": 3,
      "note": 69,
      "start": 128.8274,
      "duration": 0.2985,
      "velocity": 97,
      "chip": "ym2612"
    },
    {
      "channel": 2,
      "note": 81,
      "start": 128.8646,
      "duration": 0.0165,
      "velocity": 119,
      "chip": "ym2612"
    },
    {
      "channel": 2,
      "note": 81,
      "start": 128.8992,
      "duration": 0.0266,
      "velocity": 119,
      "chip": "ym2612"
    },
    {
      "channel": 2,
      "note": 81,
      "start": 128.9428,
      "duration": 0.0163,
      "velocity": 119,
      "chip": "ym2612"
    },
    {
      "channel": 2,
      "note": 81,
      "start": 128.982,
      "duration": 0.0661,
      "velocity": 119,
      "chip": "ym2612"
    },
    {
      "channel": 1,
      "note": 52,
      "start": 129.1341,
      "duration": 0.2814,
      "velocity": 101,
      "chip": "ym2612"
    },
    {
      "channel": 2,
      "note": 81,
      "start": 129.1347,
      "duration": 0.0744,
      "velocity": 119,
      "chip": "ym2612"
    },
    {
      "channel": 3,
      "note": 64,
      "start": 129.1354,
      "duration": 0.2803,
      "velocity": 97,
      "chip": "ym2612"
    },
    {
      "channel": 1,
      "note": 57,
      "start": 129.434,
      "duration": 0.9009,
      "velocity": 101,
      "chip": "ym2612"
    },
    {
      "channel": 2,
      "note": 44,
      "start": 129.4379,
      "duration": 0.2796,
      "velocity": 101,
      "chip": "ym2612"
    },
    {
      "channel": 3,
      "note": 64,
      "start": 129.7432,
      "duration": 0.291,
      "velocity": 97,
      "chip": "ym2612"
    },
    {
      "channel": 2,
      "note": 81,
      "start": 129.8962,
      "duration": 0.0683,
      "velocity": 119,
      "chip": "ym2612"
    },
    {
      "channel": 2,
      "note": 81,
      "start": 130.0428,
      "duration": 0.0721,
      "velocity": 119,
      "chip": "ym2612"
    },
    {
      "channel": 3,
      "note": 69,
      "start": 130.0435,
      "duration": 0.2824,
      "velocity": 97,
      "chip": "ym2612"
    },
    {
      "channel": 2,
      "note": 81,
      "start": 130.3527,
      "duration": 0.0118,
      "velocity": 119,
      "chip": "ym2612"
    },
    {
      "channel": 3,
      "note": 74,
      "start": 130.3534,
      "duration": 0.2891,
      "velocity": 97,
      "chip": "ym2612"
    },
    {
      "channel": 2,
      "note": 81,
      "start": 130.3824,
      "duration": 0.0148,
      "velocity": 119,
      "chip": "ym2612"
    },
    {
      "channel": 2,
      "note": 81,
      "start": 130.4267,
      "duration": 0.0158,
      "velocity": 119,
      "chip": "ym2612"
    },
    {
      "channel": 2,
      "note": 81,
      "start": 130.46,
      "duration": 0.0221,
      "velocity": 119,
      "chip": "ym2612"
    },
    {
      "channel": 2,
      "note": 81,
      "start": 130.4987,
      "duration": 0.0162,
      "velocity": 119,
      "chip": "ym2612"
    },
    {
      "channel": 2,
      "note": 81,
      "start": 130.5314,
      "duration": 0.0277,
      "velocity": 119,
      "chip": "ym2612"
    },
    {
      "channel": 2,
      "note": 81,
      "start": 130.5761,
      "duration": 0.0163,
      "velocity": 119,
      "chip": "ym2612"
    },
    {
      "channel": 2,
      "note": 81,
      "start": 130.6158,
      "duration": 0.0153,
      "velocity": 119,
      "chip": "ym2612"
    },
    {
      "channel": 0,
      "note": 74,
      "start": 130.6509,
      "duration": 0.278,
      "velocity": 101,
      "chip": "ym2612"
    },
    {
      "channel": 2,
      "note": 81,
      "start": 130.6521,
      "duration": 0.0737,
      "velocity": 119,
      "chip": "ym2612"
    },
    {
      "channel": 3,
      "note": 70,
      "start": 130.6528,
      "duration": 0.2951,
      "velocity": 97,
      "chip": "ym2612"
    },
    {
      "channel": 2,
      "note": 81,
      "start": 130.796,
      "duration": 0.0835,
      "velocity": 119,
      "chip": "ym2612"
    },
    {
      "channel": 0,
      "note": 79,
      "start": 130.9486,
      "duration": 0.294,
      "velocity": 101,
      "chip": "ym2612"
    },
    {
      "channel": 1,
      "note": 52,
      "start": 130.9493,
      "duration": 0.2934,
      "velocity": 101,
      "chip": "ym2612"
    },
    {
      "channel": 2,
      "note": 81,
      "start": 130.9499,
      "duration": 0.0771,
      "velocity": 119,
      "chip": "ym2612"
    },
    {
      "channel": 3,
      "note": 67,
      "start": 130.9506,
      "duration": 0.2923,
      "velocity": 97,
      "chip": "ym2612"
    },
    {
      "channel": 2,
      "note": 81,
      "start": 131.1095,
      "duration": 0.0702,
      "velocity": 119,
      "chip": "ym2612"
    },
    {
      "channel": 0,
      "note": 76,
      "start": 131.2595,
      "duration": 2.8246,
      "velocity": 101,
      "chip": "ym2612"
    },
    {
      "channel": 1,
      "note": 57,
      "start": 131.2602,
      "duration": 0.8989,
      "velocity": 101,
      "chip": "ym2612"
    },
    {
      "channel": 2,
      "note": 44,
      "start": 131.2642,
      "duration": 0.2783,
      "velocity": 101,
      "chip": "ym2612"
    },
    {
      "channel": 3,
      "note": 64,
      "start": 131.5649,
      "duration": 0.2943,
      "velocity": 97,
      "chip": "ym2612"
    },
    {
      "channel": 2,
      "note": 81,
      "start": 131.7155,
      "duration": 0.077,
      "velocity": 119,
      "chip": "ym2612"
    },
    {
      "channel": 2,
      "note": 81,
      "start": 131.8649,
      "duration": 0.0776,
      "velocity": 119,
      "chip": "ym2612"
    },
    {
      "channel": 3,
      "note": 69,
      "start": 131.8656,
      "duration": 0.2828,
      "velocity": 97,
      "chip": "ym2612"
    },
    {
      "channel": 2,
      "note": 81,
      "start": 132.169,
      "duration": 0.0235,
      "velocity": 119,
      "chip": "ym2612"
    },
    {
      "channel": 3,
      "note": 74,
      "start": 132.1697,
      "duration": 0.298,
      "velocity": 97,
      "chip": "ym2612"
    },
    {
      "channel": 2,
      "note": 81,
      "start": 132.2095,
      "duration": 0.0163,
      "velocity": 119,
      "chip": "ym2612"
    },
    {
      "channel": 2,
      "note": 81,
      "start": 132.2487,
      "duration": 0.0157,
      "velocity": 119,
      "chip": "ym2612"
    },
    {
      "channel": 2,
      "note": 81,
      "start": 132.282,
      "duration": 0.0161,
      "velocity": 119,
      "chip": "ym2612"
    },
    {
      "channel": 2,
      "note": 81,
      "start": 132.3267,
      "duration": 0.0158,
      "velocity": 119,
      "chip": "ym2612"
    },
    {
      "channel": 2,
      "note": 81,
      "start": 132.3594,
      "duration": 0.0216,
      "velocity": 119,
      "chip": "ym2612"
    },
    {
      "channel": 2,
      "note": 81,
      "start": 132.3987,
      "duration": 0.0163,
      "velocity": 119,
      "chip": "ym2612"
    },
    {
      "channel": 2,
      "note": 81,
      "start": 132.4318,
      "duration": 0.0274,
      "velocity": 119,
      "chip": "ym2612"
    },
    {
      "channel": 2,
      "note": 81,
      "start": 132.4767,
      "duration": 0.0157,
      "velocity": 119,
      "chip": "ym2612"
    },
    {
      "channel": 3,
      "note": 70,
      "start": 132.4774,
      "duration": 0.2985,
      "velocity": 97,
      "chip": "ym2612"
    },
    {
      "channel": 2,
      "note": 81,
      "start": 132.5146,
      "duration": 0.0165,
      "velocity": 119,
      "chip": "ym2612"
    },
    {
      "channel": 2,
      "note": 81,
      "start": 132.5488,
      "duration": 0.016,
      "velocity": 119,
      "chip": "ym2612"
    },
    {
      "channel": 2,
      "note": 81,
      "start": 132.5927,
      "duration": 0.0164,
      "velocity": 119,
      "chip": "ym2612"
    },
    {
      "channel": 2,
      "note": 81,
      "start": 132.6267,
      "duration": 0.0714,
      "velocity": 119,
      "chip": "ym2612"
    },
    {
      "channel": 1,
      "note": 52,
      "start": 132.7841,
      "duration": 0.2814,
      "velocity": 101,
      "chip": "ym2612"
    },
    {
      "channel": 2,
      "note": 81,
      "start": 132.7847,
      "duration": 0.0609,
      "velocity": 119,
      "chip": "ym2612"
    },
    {
      "channel": 3,
      "note": 67,
      "start": 132.7854,
      "duration": 0.2803,
      "velocity": 97,
      "chip": "ym2612"
    },
    {
      "channel": 1,
      "note": 57,
      "start": 133.0841,
      "duration": 0.9915,
      "velocity": 101,
      "chip": "ym2612"
    },
    {
      "channel": 2,
      "note": 44,
      "start": 133.088,
      "duration": 0.3113,
      "velocity": 101,
      "chip": "ym2612"
    },
    {
      "channel": 3,
      "note": 64,
      "start": 133.4171,
      "duration": 0.3336,
      "velocity": 97,
      "chip": "ym2612"
    },
    {
      "channel": 2,
      "note": 81,
      "start": 133.5863,
      "duration": 0.0776,
      "velocity": 119,
      "chip": "ym2612"
    },
    {
      "channel": 2,
      "note": 81,
      "start": 133.7514,
      "duration": 0.0802,
      "velocity": 119,
      "chip": "ym2612"
    },
    {
      "channel": 3,
      "note": 69,
      "start": 133.7521,
      "duration": 0.3141,
      "velocity": 97,
      "chip": "ym2612"
    },
    {
      "channel": 0,
      "note": 76,
      "start": 134.0844,
      "duration": 0.3142,
      "velocity": 101,
      "chip": "ym2612"
    },
    {
      "channel": 2,
      "note": 81,
      "start": 134.0859,
      "duration": 0.0232,
      "velocity": 119,
      "chip": "ym2612"
    },
    {
      "channel": 3,
      "note": 74,
      "start": 134.0866,
      "duration": 0.3287,
      "velocity": 97,
      "chip": "ym2612"
    },
    {
      "channel": 2,
      "note": 81,
      "start": 134.1303,
      "duration": 0.0158,
      "velocity": 119,
      "chip": "ym2612"
    },
    {
      "channel": 2,
      "note": 81,
      "start": 134.1641,
      "duration": 0.0284,
      "velocity": 119,
      "chip": "ym2612"
    },
    {
      "channel": 2,
      "note": 81,
      "start": 134.2127,
      "duration": 0.0158,
      "velocity": 119,
      "chip": "ym2612"
    },
    {
      "channel": 2,
      "note": 81,
      "start": 134.2478,
      "duration": 0.028,
      "velocity": 119,
      "chip": "ym2612"
    },
    {
      "channel": 2,
      "note": 81,
      "start": 134.297,
      "duration": 0.0149,
      "velocity": 119,
      "chip": "ym2612"
    },
    {
      "channel": 2,
      "note": 81,
      "start": 134.3292,
      "duration": 0.0299,
      "velocity": 119,
      "chip": "ym2612"
    },
    {
      "channel": 2,
      "note": 81,
      "start": 134.3826,
      "duration": 0.0162,
      "velocity": 119,
      "chip": "ym2612"
    },
    {
      "channel": 0,
      "note": 74,
      "start": 134.4161,
      "duration": 0.2262,
      "velocity": 101,
      "chip": "ym2612"
    },
    {
      "channel": 2,
      "note": 81,
      "start": 134.4173,
      "duration": 0.0782,
      "velocity": 119,
      "chip": "ym2612"
    },
    {
      "channel": 3,
      "note": 70,
      "start": 134.418,
      "duration": 0.33,
      "velocity": 97,
      "chip": "ym2612"
    },
    {
      "channel": 2,
      "note": 81,
      "start": 134.5793,
      "duration": 0.0838,
      "velocity": 119,
      "chip": "ym2612"
    },
    {
      "channel": 1,
      "note": 52,
      "start": 134.7487,
      "duration": 0.3156,
      "velocity": 101,
      "chip": "ym2612"
    },
    {
      "channel": 2,
      "note": 81,
      "start": 134.7493,
      "duration": 0.0781,
      "velocity": 119,
      "chip": "ym2612"
    },
    {
      "channel": 3,
      "note": 67,
      "start": 134.7501,
      "duration": 0.3146,
      "velocity": 97,
      "chip": "ym2612"
    },
    {
      "channel": 0,
      "note": 79,
      "start": 134.9126,
      "duration": 0.163,
      "velocity": 101,
      "chip": "ym2612"
    },
    {
      "channel": 2,
      "note": 81,
      "start": 134.9132,
      "duration": 0.0835,
      "velocity": 119,
      "chip": "ym2612"
    },
    {
      "channel": 0,
      "note": 76,
      "start": 135.0817,
      "duration": 3.9875,
      "velocity": 101,
      "chip": "ym2612"
    },
    {
      "channel": 1,
      "note": 57,
      "start": 135.0826,
      "duration": 3.9868,
      "velocity": 101,
      "chip": "ym2612"
    },
    {
      "channel": 2,
      "note": 96,
      "start": 135.0866,
      "duration": 3.9725,
      "velocity": 119,
      "chip": "ym2612"
    },
    {
      "channel": 3,
      "note": 73,
      "start": 135.0875,
      "duration": 3.9821,
      "velocity": 97,
      "chip": "ym2612"
    }
  ]
}